<?xml version="1.0" standalone="no"?>
<!DOCTYPE svg PUBLIC "-//W3C//DTD SVG 1.1//EN"
 "http://www.w3.org/Graphics/SVG/1.1/DTD/svg11.dtd">
<!-- generate by Japanese dictionary app com.asnsami.kanjidictionary -->

<svg xmlns="http://www.w3.org/2000/svg" xmlns:sodipodi="http://sodipodi.sourceforge.net/DTD/sodipodi-0.dtd" version="1.1" width="640" height="128" viewBox="0 0 5120 1024">
	<g id="id0:id0" transform="translate(0.0,0)">
		<g id="id0:id0:id0" transform="matrix(1.0,0,0,1.0,0,0.0)">			<g stroke="lightgray" stroke-width="4" transform="scale(4, 4)"> <rect x="0" y="0" width="256" height="256" fill="white" stroke-width="4"/></g>
			<g transform="scale(0.92, -0.92) translate(60, -920)">					<path d="M 659 326 Q 662 414 664 490 L 665 519 Q 668 646 669 647 Q 668 650 667 650 Q 648 669 630 679 L 596 664 Q 611 634 614 525 Q 614 455 614 319 C 614 289 658 296 659 326 Z" fill="red"></path>
				<path d="M 664 490 Q 704 480 798 503 Q 808 506 820 509 Q 835 513 837 515 Q 846 524 840 532 Q 833 544 802 549 Q 771 552 741 537 Q 725 531 706 526 Q 687 522 665 519 C 635 515 635 496 664 490 Z" fill="lightgray"></path>
				<path d="M 614 319 Q 574 313 537 304 Q 527 300 525 304 Q 516 310 518 327 Q 519 438 527 470 Q 531 485 519 495 Q 497 514 467 521 Q 454 524 446 516 Q 442 509 453 494 Q 472 469 475 431 Q 485 335 457 284 Q 447 269 453 260 Q 460 242 478 230 Q 488 221 503 234 Q 578 285 756 285 Q 787 286 824 283 Q 846 279 854 285 Q 861 291 855 302 Q 851 314 814 334 Q 796 344 719 333 Q 713 336 659 326 L 614 319 Z" fill="lightgray"></path>
				<path d="M 321 260 Q 376 381 378 382 Q 384 391 397 401 Q 406 407 399 423 Q 392 433 353 454 Q 346 461 285 450 Q 273 446 268 452 Q 262 461 280 505 Q 337 623 373 644 Q 394 657 378 675 Q 348 697 320 703 Q 304 707 284 690 Q 265 674 217 658 Q 165 642 143 645 Q 130 646 127 639 Q 123 632 134 625 Q 171 603 198 613 Q 231 619 272 638 Q 284 644 287 641 Q 296 626 234 491 Q 227 469 208 452 Q 195 442 199 429 Q 202 419 208 412 Q 221 399 239 411 Q 303 441 317 415 Q 320 403 310 373 Q 297 319 282 282 L 266 250 L 266 249 Q 212 156 71 69 Q 59 59 68 54 Q 81 53 109 66 Q 205 109 262 168 Q 283 192 304 228 L 321 260 Z" fill="lightgray"></path>
				<path d="M 304 228 Q 323 218 343 205 Q 466 114 690 1 Q 738 -14 935 45 Q 948 52 951 62 Q 954 72 929 71 Q 853 81 768 84 Q 567 97 334 253 Q 327 257 321 260 L 282 282 Q 206 331 138 313 Q 128 307 133 298 Q 140 288 153 288 Q 205 287 266 250 L 304 228 Z" fill="lightgray"></path>
</g>
		<text x="40" y="140" font-size="128" fill="#999999">1</text></g>
		<g id="id0:id1:id1" transform="matrix(1.0,0,0,1.0,1024,0.0)">			<g stroke="lightgray" stroke-width="4" transform="scale(4, 4)"> <rect x="0" y="0" width="256" height="256" fill="white" stroke-width="4"/></g>
			<g transform="scale(0.92, -0.92) translate(60, -920)">					<path d="M 659 326 Q 662 414 664 490 L 665 519 Q 668 646 669 647 Q 668 650 667 650 Q 648 669 630 679 L 596 664 Q 611 634 614 525 Q 614 455 614 319 C 614 289 658 296 659 326 Z" fill="black"></path>
				<path d="M 664 490 Q 704 480 798 503 Q 808 506 820 509 Q 835 513 837 515 Q 846 524 840 532 Q 833 544 802 549 Q 771 552 741 537 Q 725 531 706 526 Q 687 522 665 519 C 635 515 635 496 664 490 Z" fill="red"></path>
				<path d="M 614 319 Q 574 313 537 304 Q 527 300 525 304 Q 516 310 518 327 Q 519 438 527 470 Q 531 485 519 495 Q 497 514 467 521 Q 454 524 446 516 Q 442 509 453 494 Q 472 469 475 431 Q 485 335 457 284 Q 447 269 453 260 Q 460 242 478 230 Q 488 221 503 234 Q 578 285 756 285 Q 787 286 824 283 Q 846 279 854 285 Q 861 291 855 302 Q 851 314 814 334 Q 796 344 719 333 Q 713 336 659 326 L 614 319 Z" fill="lightgray"></path>
				<path d="M 321 260 Q 376 381 378 382 Q 384 391 397 401 Q 406 407 399 423 Q 392 433 353 454 Q 346 461 285 450 Q 273 446 268 452 Q 262 461 280 505 Q 337 623 373 644 Q 394 657 378 675 Q 348 697 320 703 Q 304 707 284 690 Q 265 674 217 658 Q 165 642 143 645 Q 130 646 127 639 Q 123 632 134 625 Q 171 603 198 613 Q 231 619 272 638 Q 284 644 287 641 Q 296 626 234 491 Q 227 469 208 452 Q 195 442 199 429 Q 202 419 208 412 Q 221 399 239 411 Q 303 441 317 415 Q 320 403 310 373 Q 297 319 282 282 L 266 250 L 266 249 Q 212 156 71 69 Q 59 59 68 54 Q 81 53 109 66 Q 205 109 262 168 Q 283 192 304 228 L 321 260 Z" fill="lightgray"></path>
				<path d="M 304 228 Q 323 218 343 205 Q 466 114 690 1 Q 738 -14 935 45 Q 948 52 951 62 Q 954 72 929 71 Q 853 81 768 84 Q 567 97 334 253 Q 327 257 321 260 L 282 282 Q 206 331 138 313 Q 128 307 133 298 Q 140 288 153 288 Q 205 287 266 250 L 304 228 Z" fill="lightgray"></path>
</g>
		<text x="40" y="140" font-size="128" fill="#999999">2</text></g>
		<g id="id0:id2:id2" transform="matrix(1.0,0,0,1.0,2048,0.0)">			<g stroke="lightgray" stroke-width="4" transform="scale(4, 4)"> <rect x="0" y="0" width="256" height="256" fill="white" stroke-width="4"/></g>
			<g transform="scale(0.92, -0.92) translate(60, -920)">					<path d="M 659 326 Q 662 414 664 490 L 665 519 Q 668 646 669 647 Q 668 650 667 650 Q 648 669 630 679 L 596 664 Q 611 634 614 525 Q 614 455 614 319 C 614 289 658 296 659 326 Z" fill="black"></path>
				<path d="M 664 490 Q 704 480 798 503 Q 808 506 820 509 Q 835 513 837 515 Q 846 524 840 532 Q 833 544 802 549 Q 771 552 741 537 Q 725 531 706 526 Q 687 522 665 519 C 635 515 635 496 664 490 Z" fill="black"></path>
				<path d="M 614 319 Q 574 313 537 304 Q 527 300 525 304 Q 516 310 518 327 Q 519 438 527 470 Q 531 485 519 495 Q 497 514 467 521 Q 454 524 446 516 Q 442 509 453 494 Q 472 469 475 431 Q 485 335 457 284 Q 447 269 453 260 Q 460 242 478 230 Q 488 221 503 234 Q 578 285 756 285 Q 787 286 824 283 Q 846 279 854 285 Q 861 291 855 302 Q 851 314 814 334 Q 796 344 719 333 Q 713 336 659 326 L 614 319 Z" fill="red"></path>
				<path d="M 321 260 Q 376 381 378 382 Q 384 391 397 401 Q 406 407 399 423 Q 392 433 353 454 Q 346 461 285 450 Q 273 446 268 452 Q 262 461 280 505 Q 337 623 373 644 Q 394 657 378 675 Q 348 697 320 703 Q 304 707 284 690 Q 265 674 217 658 Q 165 642 143 645 Q 130 646 127 639 Q 123 632 134 625 Q 171 603 198 613 Q 231 619 272 638 Q 284 644 287 641 Q 296 626 234 491 Q 227 469 208 452 Q 195 442 199 429 Q 202 419 208 412 Q 221 399 239 411 Q 303 441 317 415 Q 320 403 310 373 Q 297 319 282 282 L 266 250 L 266 249 Q 212 156 71 69 Q 59 59 68 54 Q 81 53 109 66 Q 205 109 262 168 Q 283 192 304 228 L 321 260 Z" fill="lightgray"></path>
				<path d="M 304 228 Q 323 218 343 205 Q 466 114 690 1 Q 738 -14 935 45 Q 948 52 951 62 Q 954 72 929 71 Q 853 81 768 84 Q 567 97 334 253 Q 327 257 321 260 L 282 282 Q 206 331 138 313 Q 128 307 133 298 Q 140 288 153 288 Q 205 287 266 250 L 304 228 Z" fill="lightgray"></path>
</g>
		<text x="40" y="140" font-size="128" fill="#999999">3</text></g>
		<g id="id0:id3:id3" transform="matrix(1.0,0,0,1.0,3072,0.0)">			<g stroke="lightgray" stroke-width="4" transform="scale(4, 4)"> <rect x="0" y="0" width="256" height="256" fill="white" stroke-width="4"/></g>
			<g transform="scale(0.92, -0.92) translate(60, -920)">					<path d="M 659 326 Q 662 414 664 490 L 665 519 Q 668 646 669 647 Q 668 650 667 650 Q 648 669 630 679 L 596 664 Q 611 634 614 525 Q 614 455 614 319 C 614 289 658 296 659 326 Z" fill="black"></path>
				<path d="M 664 490 Q 704 480 798 503 Q 808 506 820 509 Q 835 513 837 515 Q 846 524 840 532 Q 833 544 802 549 Q 771 552 741 537 Q 725 531 706 526 Q 687 522 665 519 C 635 515 635 496 664 490 Z" fill="black"></path>
				<path d="M 614 319 Q 574 313 537 304 Q 527 300 525 304 Q 516 310 518 327 Q 519 438 527 470 Q 531 485 519 495 Q 497 514 467 521 Q 454 524 446 516 Q 442 509 453 494 Q 472 469 475 431 Q 485 335 457 284 Q 447 269 453 260 Q 460 242 478 230 Q 488 221 503 234 Q 578 285 756 285 Q 787 286 824 283 Q 846 279 854 285 Q 861 291 855 302 Q 851 314 814 334 Q 796 344 719 333 Q 713 336 659 326 L 614 319 Z" fill="black"></path>
				<path d="M 321 260 Q 376 381 378 382 Q 384 391 397 401 Q 406 407 399 423 Q 392 433 353 454 Q 346 461 285 450 Q 273 446 268 452 Q 262 461 280 505 Q 337 623 373 644 Q 394 657 378 675 Q 348 697 320 703 Q 304 707 284 690 Q 265 674 217 658 Q 165 642 143 645 Q 130 646 127 639 Q 123 632 134 625 Q 171 603 198 613 Q 231 619 272 638 Q 284 644 287 641 Q 296 626 234 491 Q 227 469 208 452 Q 195 442 199 429 Q 202 419 208 412 Q 221 399 239 411 Q 303 441 317 415 Q 320 403 310 373 Q 297 319 282 282 L 266 250 L 266 249 Q 212 156 71 69 Q 59 59 68 54 Q 81 53 109 66 Q 205 109 262 168 Q 283 192 304 228 L 321 260 Z" fill="red"></path>
				<path d="M 304 228 Q 323 218 343 205 Q 466 114 690 1 Q 738 -14 935 45 Q 948 52 951 62 Q 954 72 929 71 Q 853 81 768 84 Q 567 97 334 253 Q 327 257 321 260 L 282 282 Q 206 331 138 313 Q 128 307 133 298 Q 140 288 153 288 Q 205 287 266 250 L 304 228 Z" fill="lightgray"></path>
</g>
		<text x="40" y="140" font-size="128" fill="#999999">4</text></g>
		<g id="id0:id4:id4" transform="matrix(1.0,0,0,1.0,4096,0.0)">			<g stroke="lightgray" stroke-width="4" transform="scale(4, 4)"> <rect x="0" y="0" width="256" height="256" fill="white" stroke-width="4"/></g>
			<g transform="scale(0.92, -0.92) translate(60, -920)">					<path d="M 659 326 Q 662 414 664 490 L 665 519 Q 668 646 669 647 Q 668 650 667 650 Q 648 669 630 679 L 596 664 Q 611 634 614 525 Q 614 455 614 319 C 614 289 658 296 659 326 Z" fill="black"></path>
				<path d="M 664 490 Q 704 480 798 503 Q 808 506 820 509 Q 835 513 837 515 Q 846 524 840 532 Q 833 544 802 549 Q 771 552 741 537 Q 725 531 706 526 Q 687 522 665 519 C 635 515 635 496 664 490 Z" fill="black"></path>
				<path d="M 614 319 Q 574 313 537 304 Q 527 300 525 304 Q 516 310 518 327 Q 519 438 527 470 Q 531 485 519 495 Q 497 514 467 521 Q 454 524 446 516 Q 442 509 453 494 Q 472 469 475 431 Q 485 335 457 284 Q 447 269 453 260 Q 460 242 478 230 Q 488 221 503 234 Q 578 285 756 285 Q 787 286 824 283 Q 846 279 854 285 Q 861 291 855 302 Q 851 314 814 334 Q 796 344 719 333 Q 713 336 659 326 L 614 319 Z" fill="black"></path>
				<path d="M 321 260 Q 376 381 378 382 Q 384 391 397 401 Q 406 407 399 423 Q 392 433 353 454 Q 346 461 285 450 Q 273 446 268 452 Q 262 461 280 505 Q 337 623 373 644 Q 394 657 378 675 Q 348 697 320 703 Q 304 707 284 690 Q 265 674 217 658 Q 165 642 143 645 Q 130 646 127 639 Q 123 632 134 625 Q 171 603 198 613 Q 231 619 272 638 Q 284 644 287 641 Q 296 626 234 491 Q 227 469 208 452 Q 195 442 199 429 Q 202 419 208 412 Q 221 399 239 411 Q 303 441 317 415 Q 320 403 310 373 Q 297 319 282 282 L 266 250 L 266 249 Q 212 156 71 69 Q 59 59 68 54 Q 81 53 109 66 Q 205 109 262 168 Q 283 192 304 228 L 321 260 Z" fill="black"></path>
				<path d="M 304 228 Q 323 218 343 205 Q 466 114 690 1 Q 738 -14 935 45 Q 948 52 951 62 Q 954 72 929 71 Q 853 81 768 84 Q 567 97 334 253 Q 327 257 321 260 L 282 282 Q 206 331 138 313 Q 128 307 133 298 Q 140 288 153 288 Q 205 287 266 250 L 304 228 Z" fill="red"></path>
</g>
		<text x="40" y="140" font-size="128" fill="#999999">5</text></g>
</g>
</svg>
