<?xml version="1.0" standalone="no"?>
<!DOCTYPE svg PUBLIC "-//W3C//DTD SVG 1.1//EN"
 "http://www.w3.org/Graphics/SVG/1.1/DTD/svg11.dtd">
<!-- generate by Japanese dictionary app com.asnsami.kanjidictionary -->

<svg xmlns="http://www.w3.org/2000/svg" xmlns:sodipodi="http://sodipodi.sourceforge.net/DTD/sodipodi-0.dtd" version="1.1" width="640" height="128" viewBox="0 0 5120 1024">
	<g id="id0:id0" transform="translate(0.0,0)">
		<g id="id0:id0:id0" transform="matrix(1.0,0,0,1.0,0,0.0)">			<g stroke="lightgray" stroke-width="4" transform="scale(4, 4)"> <rect x="0" y="0" width="256" height="256" fill="white" stroke-width="4"/></g>
			<g transform="scale(0.92, -0.92) translate(60, -920)">					<path d="M 436 583 L 442 492 Q 443 479 443 438 L 441 19 C 441 -11 498 -5 499 25 L 507 334 L 507 364 L 510 450 Q 511 468 511 494 L 515 526 L 522 562 L 537 598 Q 537 616 505 631 L 464 648 Q 456 651 437 655 Q 417 658 417 645 Q 417 640 419 632 L 427 613 Q 434 597 436 583 Z" fill="red"></path>
				<path d="M 507 334 L 541 331 Q 544 330 581 332 L 732 355 Q 761 359 762 375 Q 763 380 755 388 Q 746 396 730 401 Q 696 414 678 405 L 647 395 Q 616 385 599 383 L 507 364 C 478 358 477 337 507 334 Z" fill="lightgray"></path>
				<path d="M 441 19 L 152 -9 L 78 -14 Q 72 -14 70 -19 Q 68 -24 76 -33 Q 81 -42 98 -53 Q 114 -65 126 -71 Q 148 -79 154 -78 Q 159 -78 185 -69 Q 211 -60 249 -56 L 396 -36 L 555 -24 Q 630 -22 651 -18 Q 699 -8 883 -16 L 910 -17 Q 922 -18 939 -16 Q 946 -13 949 -7 Q 952 -2 940 14 Q 928 30 917 35 Q 906 44 885 52 Q 863 60 857 60 Q 850 60 838 57 Q 825 53 803 51 L 732 44 L 499 25 L 441 19 Z" fill="lightgray"></path>
</g>
		<text x="40" y="140" font-size="128" fill="#999999">1</text></g>
		<g id="id0:id1:id1" transform="matrix(1.0,0,0,1.0,1024,0.0)">			<g stroke="lightgray" stroke-width="4" transform="scale(4, 4)"> <rect x="0" y="0" width="256" height="256" fill="white" stroke-width="4"/></g>
			<g transform="scale(0.92, -0.92) translate(60, -920)">					<path d="M 436 583 L 442 492 Q 443 479 443 438 L 441 19 C 441 -11 498 -5 499 25 L 507 334 L 507 364 L 510 450 Q 511 468 511 494 L 515 526 L 522 562 L 537 598 Q 537 616 505 631 L 464 648 Q 456 651 437 655 Q 417 658 417 645 Q 417 640 419 632 L 427 613 Q 434 597 436 583 Z" fill="black"></path>
				<path d="M 507 334 L 541 331 Q 544 330 581 332 L 732 355 Q 761 359 762 375 Q 763 380 755 388 Q 746 396 730 401 Q 696 414 678 405 L 647 395 Q 616 385 599 383 L 507 364 C 478 358 477 337 507 334 Z" fill="red"></path>
				<path d="M 441 19 L 152 -9 L 78 -14 Q 72 -14 70 -19 Q 68 -24 76 -33 Q 81 -42 98 -53 Q 114 -65 126 -71 Q 148 -79 154 -78 Q 159 -78 185 -69 Q 211 -60 249 -56 L 396 -36 L 555 -24 Q 630 -22 651 -18 Q 699 -8 883 -16 L 910 -17 Q 922 -18 939 -16 Q 946 -13 949 -7 Q 952 -2 940 14 Q 928 30 917 35 Q 906 44 885 52 Q 863 60 857 60 Q 850 60 838 57 Q 825 53 803 51 L 732 44 L 499 25 L 441 19 Z" fill="lightgray"></path>
</g>
		<text x="40" y="140" font-size="128" fill="#999999">2</text></g>
		<g id="id0:id2:id2" transform="matrix(1.0,0,0,1.0,2048,0.0)">			<g stroke="lightgray" stroke-width="4" transform="scale(4, 4)"> <rect x="0" y="0" width="256" height="256" fill="white" stroke-width="4"/></g>
			<g transform="scale(0.92, -0.92) translate(60, -920)">					<path d="M 436 583 L 442 492 Q 443 479 443 438 L 441 19 C 441 -11 498 -5 499 25 L 507 334 L 507 364 L 510 450 Q 511 468 511 494 L 515 526 L 522 562 L 537 598 Q 537 616 505 631 L 464 648 Q 456 651 437 655 Q 417 658 417 645 Q 417 640 419 632 L 427 613 Q 434 597 436 583 Z" fill="black"></path>
				<path d="M 507 334 L 541 331 Q 544 330 581 332 L 732 355 Q 761 359 762 375 Q 763 380 755 388 Q 746 396 730 401 Q 696 414 678 405 L 647 395 Q 616 385 599 383 L 507 364 C 478 358 477 337 507 334 Z" fill="black"></path>
				<path d="M 441 19 L 152 -9 L 78 -14 Q 72 -14 70 -19 Q 68 -24 76 -33 Q 81 -42 98 -53 Q 114 -65 126 -71 Q 148 -79 154 -78 Q 159 -78 185 -69 Q 211 -60 249 -56 L 396 -36 L 555 -24 Q 630 -22 651 -18 Q 699 -8 883 -16 L 910 -17 Q 922 -18 939 -16 Q 946 -13 949 -7 Q 952 -2 940 14 Q 928 30 917 35 Q 906 44 885 52 Q 863 60 857 60 Q 850 60 838 57 Q 825 53 803 51 L 732 44 L 499 25 L 441 19 Z" fill="red"></path>
</g>
		<text x="40" y="140" font-size="128" fill="#999999">3</text></g>
		<g id="id0:id3:id3" transform="matrix(1.0,0,0,1.0,3072,0.0)">			<g stroke="white" stroke-width="4" transform="scale(4, 4)"> <rect x="1" y="1" width="255" height="255" fill="white" stroke-width="0"/></g>
</g>
		<g id="id0:id4:id4" transform="matrix(1.0,0,0,1.0,4096,0.0)">			<g stroke="white" stroke-width="4" transform="scale(4, 4)"> <rect x="1" y="1" width="255" height="255" fill="white" stroke-width="0"/></g>
</g>
</g>
</svg>
