<?xml version="1.0" standalone="no"?>
<!DOCTYPE svg PUBLIC "-//W3C//DTD SVG 1.1//EN"
 "http://www.w3.org/Graphics/SVG/1.1/DTD/svg11.dtd">
<!-- generate by Japanese dictionary app com.asnsami.kanjidictionary -->

<svg xmlns="http://www.w3.org/2000/svg" xmlns:sodipodi="http://sodipodi.sourceforge.net/DTD/sodipodi-0.dtd" version="1.1" width="640" height="256" viewBox="0 0 5120 2048">
	<g id="id0:id0" transform="translate(0.0,0)">
		<g id="id0:id0:id0" transform="matrix(1.0,0,0,1.0,0,0.0)">			<g stroke="lightgray" stroke-width="4" transform="scale(4, 4)"> <rect x="0" y="0" width="256" height="256" fill="white" stroke-width="4"/></g>
			<g transform="scale(0.92, -0.92) translate(60, -920)">					<path d="M 593 663 Q 615 669 748 679 Q 758 678 768 690 Q 769 702 747 713 Q 717 737 645 716 Q 503 689 316 670 Q 307 670 301 668 Q 273 667 294 648 Q 321 621 354 626 Q 382 632 415 636 L 457 643 Q 500 650 550 657 L 593 663 Z" fill="red"></path>
				<path d="M 415 636 Q 424 608 427 537 Q 427 488 428 398 C 428 368 467 373 468 403 Q 472 505 477 581 Q 481 624 462 640 Q 459 641 457 643 C 432 660 407 665 415 636 Z" fill="lightgray"></path>
				<path d="M 598 424 Q 613 642 613 643 Q 603 655 593 663 C 570 683 542 686 550 657 Q 559 630 559 555 Q 558 506 557 416 C 557 386 596 394 598 424 Z" fill="lightgray"></path>
				<path d="M 281 509 Q 299 490 318 464 Q 330 451 344 449 Q 354 449 361 461 Q 367 474 362 504 Q 356 528 281 556 Q 266 560 260 559 Q 256 556 255 543 Q 256 533 281 509 Z" fill="lightgray"></path>
				<path d="M 709 585 Q 690 554 651 505 Q 645 498 651 491 Q 658 490 666 494 Q 744 545 781 564 Q 799 568 795 580 Q 789 596 770 614 Q 751 632 729 634 Q 714 633 715 614 Q 718 601 709 585 Z" fill="lightgray"></path>
				<path d="M 305 339 Q 315 338 332 341 Q 558 380 797 400 Q 809 399 819 411 Q 820 424 797 436 Q 755 460 687 443 Q 642 436 598 424 L 557 416 L 468 403 L 428 398 Q 385 398 297 388 C 267 385 275 338 305 339 Z" fill="lightgray"></path>
				<path d="M 297 388 Q 281 398 269 401 Q 245 411 228 402 Q 215 396 224 383 Q 260 334 240 173 Q 239 169 238 163 Q 208 33 81 -81 Q 71 -91 82 -93 Q 136 -87 208 -4 Q 283 80 297 229 Q 291 250 305 339 C 309 369 311 380 297 388 Z" fill="lightgray"></path>
</g>
		<text x="40" y="140" font-size="128" fill="#999999">1</text></g>
		<g id="id0:id1:id1" transform="matrix(1.0,0,0,1.0,1024,0.0)">			<g stroke="lightgray" stroke-width="4" transform="scale(4, 4)"> <rect x="0" y="0" width="256" height="256" fill="white" stroke-width="4"/></g>
			<g transform="scale(0.92, -0.92) translate(60, -920)">					<path d="M 593 663 Q 615 669 748 679 Q 758 678 768 690 Q 769 702 747 713 Q 717 737 645 716 Q 503 689 316 670 Q 307 670 301 668 Q 273 667 294 648 Q 321 621 354 626 Q 382 632 415 636 L 457 643 Q 500 650 550 657 L 593 663 Z" fill="black"></path>
				<path d="M 415 636 Q 424 608 427 537 Q 427 488 428 398 C 428 368 467 373 468 403 Q 472 505 477 581 Q 481 624 462 640 Q 459 641 457 643 C 432 660 407 665 415 636 Z" fill="red"></path>
				<path d="M 598 424 Q 613 642 613 643 Q 603 655 593 663 C 570 683 542 686 550 657 Q 559 630 559 555 Q 558 506 557 416 C 557 386 596 394 598 424 Z" fill="lightgray"></path>
				<path d="M 281 509 Q 299 490 318 464 Q 330 451 344 449 Q 354 449 361 461 Q 367 474 362 504 Q 356 528 281 556 Q 266 560 260 559 Q 256 556 255 543 Q 256 533 281 509 Z" fill="lightgray"></path>
				<path d="M 709 585 Q 690 554 651 505 Q 645 498 651 491 Q 658 490 666 494 Q 744 545 781 564 Q 799 568 795 580 Q 789 596 770 614 Q 751 632 729 634 Q 714 633 715 614 Q 718 601 709 585 Z" fill="lightgray"></path>
				<path d="M 305 339 Q 315 338 332 341 Q 558 380 797 400 Q 809 399 819 411 Q 820 424 797 436 Q 755 460 687 443 Q 642 436 598 424 L 557 416 L 468 403 L 428 398 Q 385 398 297 388 C 267 385 275 338 305 339 Z" fill="lightgray"></path>
				<path d="M 297 388 Q 281 398 269 401 Q 245 411 228 402 Q 215 396 224 383 Q 260 334 240 173 Q 239 169 238 163 Q 208 33 81 -81 Q 71 -91 82 -93 Q 136 -87 208 -4 Q 283 80 297 229 Q 291 250 305 339 C 309 369 311 380 297 388 Z" fill="lightgray"></path>
</g>
		<text x="40" y="140" font-size="128" fill="#999999">2</text></g>
		<g id="id0:id2:id2" transform="matrix(1.0,0,0,1.0,2048,0.0)">			<g stroke="lightgray" stroke-width="4" transform="scale(4, 4)"> <rect x="0" y="0" width="256" height="256" fill="white" stroke-width="4"/></g>
			<g transform="scale(0.92, -0.92) translate(60, -920)">					<path d="M 593 663 Q 615 669 748 679 Q 758 678 768 690 Q 769 702 747 713 Q 717 737 645 716 Q 503 689 316 670 Q 307 670 301 668 Q 273 667 294 648 Q 321 621 354 626 Q 382 632 415 636 L 457 643 Q 500 650 550 657 L 593 663 Z" fill="black"></path>
				<path d="M 415 636 Q 424 608 427 537 Q 427 488 428 398 C 428 368 467 373 468 403 Q 472 505 477 581 Q 481 624 462 640 Q 459 641 457 643 C 432 660 407 665 415 636 Z" fill="black"></path>
				<path d="M 598 424 Q 613 642 613 643 Q 603 655 593 663 C 570 683 542 686 550 657 Q 559 630 559 555 Q 558 506 557 416 C 557 386 596 394 598 424 Z" fill="red"></path>
				<path d="M 281 509 Q 299 490 318 464 Q 330 451 344 449 Q 354 449 361 461 Q 367 474 362 504 Q 356 528 281 556 Q 266 560 260 559 Q 256 556 255 543 Q 256 533 281 509 Z" fill="lightgray"></path>
				<path d="M 709 585 Q 690 554 651 505 Q 645 498 651 491 Q 658 490 666 494 Q 744 545 781 564 Q 799 568 795 580 Q 789 596 770 614 Q 751 632 729 634 Q 714 633 715 614 Q 718 601 709 585 Z" fill="lightgray"></path>
				<path d="M 305 339 Q 315 338 332 341 Q 558 380 797 400 Q 809 399 819 411 Q 820 424 797 436 Q 755 460 687 443 Q 642 436 598 424 L 557 416 L 468 403 L 428 398 Q 385 398 297 388 C 267 385 275 338 305 339 Z" fill="lightgray"></path>
				<path d="M 297 388 Q 281 398 269 401 Q 245 411 228 402 Q 215 396 224 383 Q 260 334 240 173 Q 239 169 238 163 Q 208 33 81 -81 Q 71 -91 82 -93 Q 136 -87 208 -4 Q 283 80 297 229 Q 291 250 305 339 C 309 369 311 380 297 388 Z" fill="lightgray"></path>
</g>
		<text x="40" y="140" font-size="128" fill="#999999">3</text></g>
		<g id="id0:id3:id3" transform="matrix(1.0,0,0,1.0,3072,0.0)">			<g stroke="lightgray" stroke-width="4" transform="scale(4, 4)"> <rect x="0" y="0" width="256" height="256" fill="white" stroke-width="4"/></g>
			<g transform="scale(0.92, -0.92) translate(60, -920)">					<path d="M 593 663 Q 615 669 748 679 Q 758 678 768 690 Q 769 702 747 713 Q 717 737 645 716 Q 503 689 316 670 Q 307 670 301 668 Q 273 667 294 648 Q 321 621 354 626 Q 382 632 415 636 L 457 643 Q 500 650 550 657 L 593 663 Z" fill="black"></path>
				<path d="M 415 636 Q 424 608 427 537 Q 427 488 428 398 C 428 368 467 373 468 403 Q 472 505 477 581 Q 481 624 462 640 Q 459 641 457 643 C 432 660 407 665 415 636 Z" fill="black"></path>
				<path d="M 598 424 Q 613 642 613 643 Q 603 655 593 663 C 570 683 542 686 550 657 Q 559 630 559 555 Q 558 506 557 416 C 557 386 596 394 598 424 Z" fill="black"></path>
				<path d="M 281 509 Q 299 490 318 464 Q 330 451 344 449 Q 354 449 361 461 Q 367 474 362 504 Q 356 528 281 556 Q 266 560 260 559 Q 256 556 255 543 Q 256 533 281 509 Z" fill="red"></path>
				<path d="M 709 585 Q 690 554 651 505 Q 645 498 651 491 Q 658 490 666 494 Q 744 545 781 564 Q 799 568 795 580 Q 789 596 770 614 Q 751 632 729 634 Q 714 633 715 614 Q 718 601 709 585 Z" fill="lightgray"></path>
				<path d="M 305 339 Q 315 338 332 341 Q 558 380 797 400 Q 809 399 819 411 Q 820 424 797 436 Q 755 460 687 443 Q 642 436 598 424 L 557 416 L 468 403 L 428 398 Q 385 398 297 388 C 267 385 275 338 305 339 Z" fill="lightgray"></path>
				<path d="M 297 388 Q 281 398 269 401 Q 245 411 228 402 Q 215 396 224 383 Q 260 334 240 173 Q 239 169 238 163 Q 208 33 81 -81 Q 71 -91 82 -93 Q 136 -87 208 -4 Q 283 80 297 229 Q 291 250 305 339 C 309 369 311 380 297 388 Z" fill="lightgray"></path>
</g>
		<text x="40" y="140" font-size="128" fill="#999999">4</text></g>
		<g id="id0:id4:id4" transform="matrix(1.0,0,0,1.0,4096,0.0)">			<g stroke="lightgray" stroke-width="4" transform="scale(4, 4)"> <rect x="0" y="0" width="256" height="256" fill="white" stroke-width="4"/></g>
			<g transform="scale(0.92, -0.92) translate(60, -920)">					<path d="M 593 663 Q 615 669 748 679 Q 758 678 768 690 Q 769 702 747 713 Q 717 737 645 716 Q 503 689 316 670 Q 307 670 301 668 Q 273 667 294 648 Q 321 621 354 626 Q 382 632 415 636 L 457 643 Q 500 650 550 657 L 593 663 Z" fill="black"></path>
				<path d="M 415 636 Q 424 608 427 537 Q 427 488 428 398 C 428 368 467 373 468 403 Q 472 505 477 581 Q 481 624 462 640 Q 459 641 457 643 C 432 660 407 665 415 636 Z" fill="black"></path>
				<path d="M 598 424 Q 613 642 613 643 Q 603 655 593 663 C 570 683 542 686 550 657 Q 559 630 559 555 Q 558 506 557 416 C 557 386 596 394 598 424 Z" fill="black"></path>
				<path d="M 281 509 Q 299 490 318 464 Q 330 451 344 449 Q 354 449 361 461 Q 367 474 362 504 Q 356 528 281 556 Q 266 560 260 559 Q 256 556 255 543 Q 256 533 281 509 Z" fill="black"></path>
				<path d="M 709 585 Q 690 554 651 505 Q 645 498 651 491 Q 658 490 666 494 Q 744 545 781 564 Q 799 568 795 580 Q 789 596 770 614 Q 751 632 729 634 Q 714 633 715 614 Q 718 601 709 585 Z" fill="red"></path>
				<path d="M 305 339 Q 315 338 332 341 Q 558 380 797 400 Q 809 399 819 411 Q 820 424 797 436 Q 755 460 687 443 Q 642 436 598 424 L 557 416 L 468 403 L 428 398 Q 385 398 297 388 C 267 385 275 338 305 339 Z" fill="lightgray"></path>
				<path d="M 297 388 Q 281 398 269 401 Q 245 411 228 402 Q 215 396 224 383 Q 260 334 240 173 Q 239 169 238 163 Q 208 33 81 -81 Q 71 -91 82 -93 Q 136 -87 208 -4 Q 283 80 297 229 Q 291 250 305 339 C 309 369 311 380 297 388 Z" fill="lightgray"></path>
</g>
		<text x="40" y="140" font-size="128" fill="#999999">5</text></g>
</g>
	<g id="id1:id1" transform="translate(0.0,1024)">
		<g id="id1:id0:id0" transform="matrix(1.0,0,0,1.0,0,0.0)">			<g stroke="lightgray" stroke-width="4" transform="scale(4, 4)"> <rect x="0" y="0" width="256" height="256" fill="white" stroke-width="4"/></g>
			<g transform="scale(0.92, -0.92) translate(60, -920)">					<path d="M 593 663 Q 615 669 748 679 Q 758 678 768 690 Q 769 702 747 713 Q 717 737 645 716 Q 503 689 316 670 Q 307 670 301 668 Q 273 667 294 648 Q 321 621 354 626 Q 382 632 415 636 L 457 643 Q 500 650 550 657 L 593 663 Z" fill="black"></path>
				<path d="M 415 636 Q 424 608 427 537 Q 427 488 428 398 C 428 368 467 373 468 403 Q 472 505 477 581 Q 481 624 462 640 Q 459 641 457 643 C 432 660 407 665 415 636 Z" fill="black"></path>
				<path d="M 598 424 Q 613 642 613 643 Q 603 655 593 663 C 570 683 542 686 550 657 Q 559 630 559 555 Q 558 506 557 416 C 557 386 596 394 598 424 Z" fill="black"></path>
				<path d="M 281 509 Q 299 490 318 464 Q 330 451 344 449 Q 354 449 361 461 Q 367 474 362 504 Q 356 528 281 556 Q 266 560 260 559 Q 256 556 255 543 Q 256 533 281 509 Z" fill="black"></path>
				<path d="M 709 585 Q 690 554 651 505 Q 645 498 651 491 Q 658 490 666 494 Q 744 545 781 564 Q 799 568 795 580 Q 789 596 770 614 Q 751 632 729 634 Q 714 633 715 614 Q 718 601 709 585 Z" fill="black"></path>
				<path d="M 305 339 Q 315 338 332 341 Q 558 380 797 400 Q 809 399 819 411 Q 820 424 797 436 Q 755 460 687 443 Q 642 436 598 424 L 557 416 L 468 403 L 428 398 Q 385 398 297 388 C 267 385 275 338 305 339 Z" fill="red"></path>
				<path d="M 297 388 Q 281 398 269 401 Q 245 411 228 402 Q 215 396 224 383 Q 260 334 240 173 Q 239 169 238 163 Q 208 33 81 -81 Q 71 -91 82 -93 Q 136 -87 208 -4 Q 283 80 297 229 Q 291 250 305 339 C 309 369 311 380 297 388 Z" fill="lightgray"></path>
</g>
		<text x="40" y="140" font-size="128" fill="#999999">6</text></g>
		<g id="id1:id1:id1" transform="matrix(1.0,0,0,1.0,1024,0.0)">			<g stroke="lightgray" stroke-width="4" transform="scale(4, 4)"> <rect x="0" y="0" width="256" height="256" fill="white" stroke-width="4"/></g>
			<g transform="scale(0.92, -0.92) translate(60, -920)">					<path d="M 593 663 Q 615 669 748 679 Q 758 678 768 690 Q 769 702 747 713 Q 717 737 645 716 Q 503 689 316 670 Q 307 670 301 668 Q 273 667 294 648 Q 321 621 354 626 Q 382 632 415 636 L 457 643 Q 500 650 550 657 L 593 663 Z" fill="black"></path>
				<path d="M 415 636 Q 424 608 427 537 Q 427 488 428 398 C 428 368 467 373 468 403 Q 472 505 477 581 Q 481 624 462 640 Q 459 641 457 643 C 432 660 407 665 415 636 Z" fill="black"></path>
				<path d="M 598 424 Q 613 642 613 643 Q 603 655 593 663 C 570 683 542 686 550 657 Q 559 630 559 555 Q 558 506 557 416 C 557 386 596 394 598 424 Z" fill="black"></path>
				<path d="M 281 509 Q 299 490 318 464 Q 330 451 344 449 Q 354 449 361 461 Q 367 474 362 504 Q 356 528 281 556 Q 266 560 260 559 Q 256 556 255 543 Q 256 533 281 509 Z" fill="black"></path>
				<path d="M 709 585 Q 690 554 651 505 Q 645 498 651 491 Q 658 490 666 494 Q 744 545 781 564 Q 799 568 795 580 Q 789 596 770 614 Q 751 632 729 634 Q 714 633 715 614 Q 718 601 709 585 Z" fill="black"></path>
				<path d="M 305 339 Q 315 338 332 341 Q 558 380 797 400 Q 809 399 819 411 Q 820 424 797 436 Q 755 460 687 443 Q 642 436 598 424 L 557 416 L 468 403 L 428 398 Q 385 398 297 388 C 267 385 275 338 305 339 Z" fill="black"></path>
				<path d="M 297 388 Q 281 398 269 401 Q 245 411 228 402 Q 215 396 224 383 Q 260 334 240 173 Q 239 169 238 163 Q 208 33 81 -81 Q 71 -91 82 -93 Q 136 -87 208 -4 Q 283 80 297 229 Q 291 250 305 339 C 309 369 311 380 297 388 Z" fill="red"></path>
</g>
		<text x="40" y="140" font-size="128" fill="#999999">7</text></g>
		<g id="id1:id2:id2" transform="matrix(1.0,0,0,1.0,2048,0.0)">			<g stroke="white" stroke-width="4" transform="scale(4, 4)"> <rect x="1" y="1" width="255" height="255" fill="white" stroke-width="0"/></g>
</g>
		<g id="id1:id3:id3" transform="matrix(1.0,0,0,1.0,3072,0.0)">			<g stroke="white" stroke-width="4" transform="scale(4, 4)"> <rect x="1" y="1" width="255" height="255" fill="white" stroke-width="0"/></g>
</g>
		<g id="id1:id4:id4" transform="matrix(1.0,0,0,1.0,4096,0.0)">			<g stroke="white" stroke-width="4" transform="scale(4, 4)"> <rect x="1" y="1" width="255" height="255" fill="white" stroke-width="0"/></g>
</g>
</g>
</svg>
