<?xml version="1.0" standalone="no"?>
<!DOCTYPE svg PUBLIC "-//W3C//DTD SVG 1.1//EN"
 "http://www.w3.org/Graphics/SVG/1.1/DTD/svg11.dtd">
<!-- generate by Japanese dictionary app com.asnsami.kanjidictionary -->

<svg xmlns="http://www.w3.org/2000/svg" xmlns:sodipodi="http://sodipodi.sourceforge.net/DTD/sodipodi-0.dtd" version="1.1" width="640" height="128" viewBox="0 0 5120 1024">
	<g id="id0:id0" transform="translate(0.0,0)">
		<g id="id0:id0:id0" transform="matrix(1.0,0,0,1.0,0,0.0)">			<g stroke="lightgray" stroke-width="4" transform="scale(4, 4)"> <rect x="0" y="0" width="256" height="256" fill="white" stroke-width="4"/></g>
			<g transform="scale(0.92, -0.92) translate(60, -920)">					<path d="M 546 420 L 622 472 Q 629 480 671 502 Q 720 531 723 532 L 764 550 Q 792 562 796 570 Q 799 581 784 599 Q 769 617 746 630 L 701 654 Q 679 662 673 661 Q 668 660 649 654 Q 631 645 612 642 L 570 630 L 409 598 Q 392 595 373 593 L 328 587 L 234 578 Q 226 577 224 574 Q 223 570 232 558 Q 239 550 260 539 Q 282 528 298 526 Q 314 523 357 536 Q 401 549 428 555 L 588 588 Q 634 595 638 592 Q 647 589 649 583 Q 649 578 646 573 Q 644 568 623 545 L 517 435 C 496 413 521 403 546 420 Z" fill="red"></path>
				<path d="M 517 435 L 476 438 Q 466 438 463 435 Q 460 432 460 421 L 479 394 Q 506 338 510 182 L 510 118 L 504 46 Q 501 -12 487 -25 Q 474 -38 450 -27 Q 426 -16 422 -15 L 399 -8 Q 386 -5 383 -10 Q 381 -12 389 -21 L 408 -38 L 446 -84 Q 465 -106 470 -117 Q 475 -128 482 -135 Q 490 -142 499 -141 Q 509 -141 526 -121 L 550 -88 Q 558 -75 565 -48 Q 572 -22 573 0 Q 574 21 572 113 Q 570 205 565 276 Q 560 346 560 369 Q 560 391 559 396 Q 558 400 546 420 C 538 433 538 433 517 435 Z" fill="lightgray"></path>
</g>
		<text x="40" y="140" font-size="128" fill="#999999">1</text></g>
		<g id="id0:id1:id1" transform="matrix(1.0,0,0,1.0,1024,0.0)">			<g stroke="lightgray" stroke-width="4" transform="scale(4, 4)"> <rect x="0" y="0" width="256" height="256" fill="white" stroke-width="4"/></g>
			<g transform="scale(0.92, -0.92) translate(60, -920)">					<path d="M 546 420 L 622 472 Q 629 480 671 502 Q 720 531 723 532 L 764 550 Q 792 562 796 570 Q 799 581 784 599 Q 769 617 746 630 L 701 654 Q 679 662 673 661 Q 668 660 649 654 Q 631 645 612 642 L 570 630 L 409 598 Q 392 595 373 593 L 328 587 L 234 578 Q 226 577 224 574 Q 223 570 232 558 Q 239 550 260 539 Q 282 528 298 526 Q 314 523 357 536 Q 401 549 428 555 L 588 588 Q 634 595 638 592 Q 647 589 649 583 Q 649 578 646 573 Q 644 568 623 545 L 517 435 C 496 413 521 403 546 420 Z" fill="black"></path>
				<path d="M 517 435 L 476 438 Q 466 438 463 435 Q 460 432 460 421 L 479 394 Q 506 338 510 182 L 510 118 L 504 46 Q 501 -12 487 -25 Q 474 -38 450 -27 Q 426 -16 422 -15 L 399 -8 Q 386 -5 383 -10 Q 381 -12 389 -21 L 408 -38 L 446 -84 Q 465 -106 470 -117 Q 475 -128 482 -135 Q 490 -142 499 -141 Q 509 -141 526 -121 L 550 -88 Q 558 -75 565 -48 Q 572 -22 573 0 Q 574 21 572 113 Q 570 205 565 276 Q 560 346 560 369 Q 560 391 559 396 Q 558 400 546 420 C 538 433 538 433 517 435 Z" fill="red"></path>
</g>
		<text x="40" y="140" font-size="128" fill="#999999">2</text></g>
		<g id="id0:id2:id2" transform="matrix(1.0,0,0,1.0,2048,0.0)">			<g stroke="white" stroke-width="4" transform="scale(4, 4)"> <rect x="1" y="1" width="255" height="255" fill="white" stroke-width="0"/></g>
</g>
		<g id="id0:id3:id3" transform="matrix(1.0,0,0,1.0,3072,0.0)">			<g stroke="white" stroke-width="4" transform="scale(4, 4)"> <rect x="1" y="1" width="255" height="255" fill="white" stroke-width="0"/></g>
</g>
		<g id="id0:id4:id4" transform="matrix(1.0,0,0,1.0,4096,0.0)">			<g stroke="white" stroke-width="4" transform="scale(4, 4)"> <rect x="1" y="1" width="255" height="255" fill="white" stroke-width="0"/></g>
</g>
</g>
</svg>
