<?xml version="1.0" standalone="no"?>
<!DOCTYPE svg PUBLIC "-//W3C//DTD SVG 1.1//EN"
 "http://www.w3.org/Graphics/SVG/1.1/DTD/svg11.dtd">
<!-- generate by Japanese dictionary app com.asnsami.kanjidictionary -->

<svg xmlns="http://www.w3.org/2000/svg" xmlns:sodipodi="http://sodipodi.sourceforge.net/DTD/sodipodi-0.dtd" version="1.1" width="640" height="256" viewBox="0 0 5120 2048">
	<g id="id0:id0" transform="translate(0.0,0)">
		<g id="id0:id0:id0" transform="matrix(1.0,0,0,1.0,0,0.0)">			<g stroke="lightgray" stroke-width="4" transform="scale(4, 4)"> <rect x="0" y="0" width="256" height="256" fill="white" stroke-width="4"/></g>
			<g transform="scale(0.92, -0.92) translate(60, -920)">					<path d="M 406 379 Q 406 466 405 547 L 405 579 Q 404 624 415 732 Q 418 742 398 755 Q 364 771 341 773 Q 325 774 319 767 Q 312 760 321 745 Q 346 714 347 691 Q 363 543 368 368 C 369 338 406 349 406 379 Z" fill="red"></path>
				<path d="M 405 547 Q 469 563 517 574 Q 539 581 530 593 Q 517 606 492 607 Q 449 610 405 579 C 380 562 376 540 405 547 Z" fill="lightgray"></path>
				<path d="M 294 349 Q 278 496 281 526 Q 282 548 268 558 Q 246 574 218 581 Q 205 585 197 578 Q 190 572 197 558 Q 216 528 226 496 Q 235 465 255 339 C 260 309 297 319 294 349 Z" fill="lightgray"></path>
				<path d="M 255 339 Q 227 335 200 326 Q 178 320 141 322 Q 126 321 124 310 Q 121 297 131 287 Q 155 269 190 247 Q 200 243 214 252 Q 265 285 461 360 Q 491 375 524 391 Q 537 398 539 408 Q 533 415 520 412 Q 465 396 406 379 L 368 368 Q 331 359 294 349 L 255 339 Z" fill="lightgray"></path>
				<path d="M 608 532 Q 666 548 786 594 Q 811 604 839 608 Q 864 611 859 633 Q 850 655 828 678 Q 807 700 793 701 Q 780 704 779 688 Q 776 654 688 603 Q 651 579 608 554 C 582 539 579 524 608 532 Z" fill="lightgray"></path>
				<path d="M 934 364 Q 918 404 907 472 Q 906 488 898 494 Q 889 500 885 478 Q 864 397 851 384 Q 830 360 728 359 Q 676 362 652 372 Q 613 393 608 532 L 608 554 Q 611 683 634 744 Q 647 775 627 793 Q 575 833 558 828 Q 542 822 550 804 Q 571 764 567 707 Q 560 392 600 348 Q 622 326 678 314 Q 729 304 811 303 Q 884 302 914 316 Q 945 331 934 364 Z" fill="lightgray"></path>
				<path d="M 379 232 Q 339 225 367 207 Q 410 180 473 195 Q 542 208 613 222 Q 646 229 651 233 Q 660 242 655 251 Q 648 264 616 272 Q 585 279 551 266 Q 514 254 475 245 Q 430 236 379 232 Z" fill="lightgray"></path>
				<path d="M 202 56 Q 180 55 196 35 Q 212 19 231 13 Q 255 6 272 11 Q 443 56 800 56 Q 819 56 839 55 Q 861 54 867 64 Q 873 77 855 92 Q 797 137 756 128 Q 585 95 202 56 Z" fill="lightgray"></path>
</g>
		<text x="40" y="140" font-size="128" fill="#999999">1</text></g>
		<g id="id0:id1:id1" transform="matrix(1.0,0,0,1.0,1024,0.0)">			<g stroke="lightgray" stroke-width="4" transform="scale(4, 4)"> <rect x="0" y="0" width="256" height="256" fill="white" stroke-width="4"/></g>
			<g transform="scale(0.92, -0.92) translate(60, -920)">					<path d="M 406 379 Q 406 466 405 547 L 405 579 Q 404 624 415 732 Q 418 742 398 755 Q 364 771 341 773 Q 325 774 319 767 Q 312 760 321 745 Q 346 714 347 691 Q 363 543 368 368 C 369 338 406 349 406 379 Z" fill="black"></path>
				<path d="M 405 547 Q 469 563 517 574 Q 539 581 530 593 Q 517 606 492 607 Q 449 610 405 579 C 380 562 376 540 405 547 Z" fill="red"></path>
				<path d="M 294 349 Q 278 496 281 526 Q 282 548 268 558 Q 246 574 218 581 Q 205 585 197 578 Q 190 572 197 558 Q 216 528 226 496 Q 235 465 255 339 C 260 309 297 319 294 349 Z" fill="lightgray"></path>
				<path d="M 255 339 Q 227 335 200 326 Q 178 320 141 322 Q 126 321 124 310 Q 121 297 131 287 Q 155 269 190 247 Q 200 243 214 252 Q 265 285 461 360 Q 491 375 524 391 Q 537 398 539 408 Q 533 415 520 412 Q 465 396 406 379 L 368 368 Q 331 359 294 349 L 255 339 Z" fill="lightgray"></path>
				<path d="M 608 532 Q 666 548 786 594 Q 811 604 839 608 Q 864 611 859 633 Q 850 655 828 678 Q 807 700 793 701 Q 780 704 779 688 Q 776 654 688 603 Q 651 579 608 554 C 582 539 579 524 608 532 Z" fill="lightgray"></path>
				<path d="M 934 364 Q 918 404 907 472 Q 906 488 898 494 Q 889 500 885 478 Q 864 397 851 384 Q 830 360 728 359 Q 676 362 652 372 Q 613 393 608 532 L 608 554 Q 611 683 634 744 Q 647 775 627 793 Q 575 833 558 828 Q 542 822 550 804 Q 571 764 567 707 Q 560 392 600 348 Q 622 326 678 314 Q 729 304 811 303 Q 884 302 914 316 Q 945 331 934 364 Z" fill="lightgray"></path>
				<path d="M 379 232 Q 339 225 367 207 Q 410 180 473 195 Q 542 208 613 222 Q 646 229 651 233 Q 660 242 655 251 Q 648 264 616 272 Q 585 279 551 266 Q 514 254 475 245 Q 430 236 379 232 Z" fill="lightgray"></path>
				<path d="M 202 56 Q 180 55 196 35 Q 212 19 231 13 Q 255 6 272 11 Q 443 56 800 56 Q 819 56 839 55 Q 861 54 867 64 Q 873 77 855 92 Q 797 137 756 128 Q 585 95 202 56 Z" fill="lightgray"></path>
</g>
		<text x="40" y="140" font-size="128" fill="#999999">2</text></g>
		<g id="id0:id2:id2" transform="matrix(1.0,0,0,1.0,2048,0.0)">			<g stroke="lightgray" stroke-width="4" transform="scale(4, 4)"> <rect x="0" y="0" width="256" height="256" fill="white" stroke-width="4"/></g>
			<g transform="scale(0.92, -0.92) translate(60, -920)">					<path d="M 406 379 Q 406 466 405 547 L 405 579 Q 404 624 415 732 Q 418 742 398 755 Q 364 771 341 773 Q 325 774 319 767 Q 312 760 321 745 Q 346 714 347 691 Q 363 543 368 368 C 369 338 406 349 406 379 Z" fill="black"></path>
				<path d="M 405 547 Q 469 563 517 574 Q 539 581 530 593 Q 517 606 492 607 Q 449 610 405 579 C 380 562 376 540 405 547 Z" fill="black"></path>
				<path d="M 294 349 Q 278 496 281 526 Q 282 548 268 558 Q 246 574 218 581 Q 205 585 197 578 Q 190 572 197 558 Q 216 528 226 496 Q 235 465 255 339 C 260 309 297 319 294 349 Z" fill="red"></path>
				<path d="M 255 339 Q 227 335 200 326 Q 178 320 141 322 Q 126 321 124 310 Q 121 297 131 287 Q 155 269 190 247 Q 200 243 214 252 Q 265 285 461 360 Q 491 375 524 391 Q 537 398 539 408 Q 533 415 520 412 Q 465 396 406 379 L 368 368 Q 331 359 294 349 L 255 339 Z" fill="lightgray"></path>
				<path d="M 608 532 Q 666 548 786 594 Q 811 604 839 608 Q 864 611 859 633 Q 850 655 828 678 Q 807 700 793 701 Q 780 704 779 688 Q 776 654 688 603 Q 651 579 608 554 C 582 539 579 524 608 532 Z" fill="lightgray"></path>
				<path d="M 934 364 Q 918 404 907 472 Q 906 488 898 494 Q 889 500 885 478 Q 864 397 851 384 Q 830 360 728 359 Q 676 362 652 372 Q 613 393 608 532 L 608 554 Q 611 683 634 744 Q 647 775 627 793 Q 575 833 558 828 Q 542 822 550 804 Q 571 764 567 707 Q 560 392 600 348 Q 622 326 678 314 Q 729 304 811 303 Q 884 302 914 316 Q 945 331 934 364 Z" fill="lightgray"></path>
				<path d="M 379 232 Q 339 225 367 207 Q 410 180 473 195 Q 542 208 613 222 Q 646 229 651 233 Q 660 242 655 251 Q 648 264 616 272 Q 585 279 551 266 Q 514 254 475 245 Q 430 236 379 232 Z" fill="lightgray"></path>
				<path d="M 202 56 Q 180 55 196 35 Q 212 19 231 13 Q 255 6 272 11 Q 443 56 800 56 Q 819 56 839 55 Q 861 54 867 64 Q 873 77 855 92 Q 797 137 756 128 Q 585 95 202 56 Z" fill="lightgray"></path>
</g>
		<text x="40" y="140" font-size="128" fill="#999999">3</text></g>
		<g id="id0:id3:id3" transform="matrix(1.0,0,0,1.0,3072,0.0)">			<g stroke="lightgray" stroke-width="4" transform="scale(4, 4)"> <rect x="0" y="0" width="256" height="256" fill="white" stroke-width="4"/></g>
			<g transform="scale(0.92, -0.92) translate(60, -920)">					<path d="M 406 379 Q 406 466 405 547 L 405 579 Q 404 624 415 732 Q 418 742 398 755 Q 364 771 341 773 Q 325 774 319 767 Q 312 760 321 745 Q 346 714 347 691 Q 363 543 368 368 C 369 338 406 349 406 379 Z" fill="black"></path>
				<path d="M 405 547 Q 469 563 517 574 Q 539 581 530 593 Q 517 606 492 607 Q 449 610 405 579 C 380 562 376 540 405 547 Z" fill="black"></path>
				<path d="M 294 349 Q 278 496 281 526 Q 282 548 268 558 Q 246 574 218 581 Q 205 585 197 578 Q 190 572 197 558 Q 216 528 226 496 Q 235 465 255 339 C 260 309 297 319 294 349 Z" fill="black"></path>
				<path d="M 255 339 Q 227 335 200 326 Q 178 320 141 322 Q 126 321 124 310 Q 121 297 131 287 Q 155 269 190 247 Q 200 243 214 252 Q 265 285 461 360 Q 491 375 524 391 Q 537 398 539 408 Q 533 415 520 412 Q 465 396 406 379 L 368 368 Q 331 359 294 349 L 255 339 Z" fill="red"></path>
				<path d="M 608 532 Q 666 548 786 594 Q 811 604 839 608 Q 864 611 859 633 Q 850 655 828 678 Q 807 700 793 701 Q 780 704 779 688 Q 776 654 688 603 Q 651 579 608 554 C 582 539 579 524 608 532 Z" fill="lightgray"></path>
				<path d="M 934 364 Q 918 404 907 472 Q 906 488 898 494 Q 889 500 885 478 Q 864 397 851 384 Q 830 360 728 359 Q 676 362 652 372 Q 613 393 608 532 L 608 554 Q 611 683 634 744 Q 647 775 627 793 Q 575 833 558 828 Q 542 822 550 804 Q 571 764 567 707 Q 560 392 600 348 Q 622 326 678 314 Q 729 304 811 303 Q 884 302 914 316 Q 945 331 934 364 Z" fill="lightgray"></path>
				<path d="M 379 232 Q 339 225 367 207 Q 410 180 473 195 Q 542 208 613 222 Q 646 229 651 233 Q 660 242 655 251 Q 648 264 616 272 Q 585 279 551 266 Q 514 254 475 245 Q 430 236 379 232 Z" fill="lightgray"></path>
				<path d="M 202 56 Q 180 55 196 35 Q 212 19 231 13 Q 255 6 272 11 Q 443 56 800 56 Q 819 56 839 55 Q 861 54 867 64 Q 873 77 855 92 Q 797 137 756 128 Q 585 95 202 56 Z" fill="lightgray"></path>
</g>
		<text x="40" y="140" font-size="128" fill="#999999">4</text></g>
		<g id="id0:id4:id4" transform="matrix(1.0,0,0,1.0,4096,0.0)">			<g stroke="lightgray" stroke-width="4" transform="scale(4, 4)"> <rect x="0" y="0" width="256" height="256" fill="white" stroke-width="4"/></g>
			<g transform="scale(0.92, -0.92) translate(60, -920)">					<path d="M 406 379 Q 406 466 405 547 L 405 579 Q 404 624 415 732 Q 418 742 398 755 Q 364 771 341 773 Q 325 774 319 767 Q 312 760 321 745 Q 346 714 347 691 Q 363 543 368 368 C 369 338 406 349 406 379 Z" fill="black"></path>
				<path d="M 405 547 Q 469 563 517 574 Q 539 581 530 593 Q 517 606 492 607 Q 449 610 405 579 C 380 562 376 540 405 547 Z" fill="black"></path>
				<path d="M 294 349 Q 278 496 281 526 Q 282 548 268 558 Q 246 574 218 581 Q 205 585 197 578 Q 190 572 197 558 Q 216 528 226 496 Q 235 465 255 339 C 260 309 297 319 294 349 Z" fill="black"></path>
				<path d="M 255 339 Q 227 335 200 326 Q 178 320 141 322 Q 126 321 124 310 Q 121 297 131 287 Q 155 269 190 247 Q 200 243 214 252 Q 265 285 461 360 Q 491 375 524 391 Q 537 398 539 408 Q 533 415 520 412 Q 465 396 406 379 L 368 368 Q 331 359 294 349 L 255 339 Z" fill="black"></path>
				<path d="M 608 532 Q 666 548 786 594 Q 811 604 839 608 Q 864 611 859 633 Q 850 655 828 678 Q 807 700 793 701 Q 780 704 779 688 Q 776 654 688 603 Q 651 579 608 554 C 582 539 579 524 608 532 Z" fill="red"></path>
				<path d="M 934 364 Q 918 404 907 472 Q 906 488 898 494 Q 889 500 885 478 Q 864 397 851 384 Q 830 360 728 359 Q 676 362 652 372 Q 613 393 608 532 L 608 554 Q 611 683 634 744 Q 647 775 627 793 Q 575 833 558 828 Q 542 822 550 804 Q 571 764 567 707 Q 560 392 600 348 Q 622 326 678 314 Q 729 304 811 303 Q 884 302 914 316 Q 945 331 934 364 Z" fill="lightgray"></path>
				<path d="M 379 232 Q 339 225 367 207 Q 410 180 473 195 Q 542 208 613 222 Q 646 229 651 233 Q 660 242 655 251 Q 648 264 616 272 Q 585 279 551 266 Q 514 254 475 245 Q 430 236 379 232 Z" fill="lightgray"></path>
				<path d="M 202 56 Q 180 55 196 35 Q 212 19 231 13 Q 255 6 272 11 Q 443 56 800 56 Q 819 56 839 55 Q 861 54 867 64 Q 873 77 855 92 Q 797 137 756 128 Q 585 95 202 56 Z" fill="lightgray"></path>
</g>
		<text x="40" y="140" font-size="128" fill="#999999">5</text></g>
</g>
	<g id="id1:id1" transform="translate(0.0,1024)">
		<g id="id1:id0:id0" transform="matrix(1.0,0,0,1.0,0,0.0)">			<g stroke="lightgray" stroke-width="4" transform="scale(4, 4)"> <rect x="0" y="0" width="256" height="256" fill="white" stroke-width="4"/></g>
			<g transform="scale(0.92, -0.92) translate(60, -920)">					<path d="M 406 379 Q 406 466 405 547 L 405 579 Q 404 624 415 732 Q 418 742 398 755 Q 364 771 341 773 Q 325 774 319 767 Q 312 760 321 745 Q 346 714 347 691 Q 363 543 368 368 C 369 338 406 349 406 379 Z" fill="black"></path>
				<path d="M 405 547 Q 469 563 517 574 Q 539 581 530 593 Q 517 606 492 607 Q 449 610 405 579 C 380 562 376 540 405 547 Z" fill="black"></path>
				<path d="M 294 349 Q 278 496 281 526 Q 282 548 268 558 Q 246 574 218 581 Q 205 585 197 578 Q 190 572 197 558 Q 216 528 226 496 Q 235 465 255 339 C 260 309 297 319 294 349 Z" fill="black"></path>
				<path d="M 255 339 Q 227 335 200 326 Q 178 320 141 322 Q 126 321 124 310 Q 121 297 131 287 Q 155 269 190 247 Q 200 243 214 252 Q 265 285 461 360 Q 491 375 524 391 Q 537 398 539 408 Q 533 415 520 412 Q 465 396 406 379 L 368 368 Q 331 359 294 349 L 255 339 Z" fill="black"></path>
				<path d="M 608 532 Q 666 548 786 594 Q 811 604 839 608 Q 864 611 859 633 Q 850 655 828 678 Q 807 700 793 701 Q 780 704 779 688 Q 776 654 688 603 Q 651 579 608 554 C 582 539 579 524 608 532 Z" fill="black"></path>
				<path d="M 934 364 Q 918 404 907 472 Q 906 488 898 494 Q 889 500 885 478 Q 864 397 851 384 Q 830 360 728 359 Q 676 362 652 372 Q 613 393 608 532 L 608 554 Q 611 683 634 744 Q 647 775 627 793 Q 575 833 558 828 Q 542 822 550 804 Q 571 764 567 707 Q 560 392 600 348 Q 622 326 678 314 Q 729 304 811 303 Q 884 302 914 316 Q 945 331 934 364 Z" fill="red"></path>
				<path d="M 379 232 Q 339 225 367 207 Q 410 180 473 195 Q 542 208 613 222 Q 646 229 651 233 Q 660 242 655 251 Q 648 264 616 272 Q 585 279 551 266 Q 514 254 475 245 Q 430 236 379 232 Z" fill="lightgray"></path>
				<path d="M 202 56 Q 180 55 196 35 Q 212 19 231 13 Q 255 6 272 11 Q 443 56 800 56 Q 819 56 839 55 Q 861 54 867 64 Q 873 77 855 92 Q 797 137 756 128 Q 585 95 202 56 Z" fill="lightgray"></path>
</g>
		<text x="40" y="140" font-size="128" fill="#999999">6</text></g>
		<g id="id1:id1:id1" transform="matrix(1.0,0,0,1.0,1024,0.0)">			<g stroke="lightgray" stroke-width="4" transform="scale(4, 4)"> <rect x="0" y="0" width="256" height="256" fill="white" stroke-width="4"/></g>
			<g transform="scale(0.92, -0.92) translate(60, -920)">					<path d="M 406 379 Q 406 466 405 547 L 405 579 Q 404 624 415 732 Q 418 742 398 755 Q 364 771 341 773 Q 325 774 319 767 Q 312 760 321 745 Q 346 714 347 691 Q 363 543 368 368 C 369 338 406 349 406 379 Z" fill="black"></path>
				<path d="M 405 547 Q 469 563 517 574 Q 539 581 530 593 Q 517 606 492 607 Q 449 610 405 579 C 380 562 376 540 405 547 Z" fill="black"></path>
				<path d="M 294 349 Q 278 496 281 526 Q 282 548 268 558 Q 246 574 218 581 Q 205 585 197 578 Q 190 572 197 558 Q 216 528 226 496 Q 235 465 255 339 C 260 309 297 319 294 349 Z" fill="black"></path>
				<path d="M 255 339 Q 227 335 200 326 Q 178 320 141 322 Q 126 321 124 310 Q 121 297 131 287 Q 155 269 190 247 Q 200 243 214 252 Q 265 285 461 360 Q 491 375 524 391 Q 537 398 539 408 Q 533 415 520 412 Q 465 396 406 379 L 368 368 Q 331 359 294 349 L 255 339 Z" fill="black"></path>
				<path d="M 608 532 Q 666 548 786 594 Q 811 604 839 608 Q 864 611 859 633 Q 850 655 828 678 Q 807 700 793 701 Q 780 704 779 688 Q 776 654 688 603 Q 651 579 608 554 C 582 539 579 524 608 532 Z" fill="black"></path>
				<path d="M 934 364 Q 918 404 907 472 Q 906 488 898 494 Q 889 500 885 478 Q 864 397 851 384 Q 830 360 728 359 Q 676 362 652 372 Q 613 393 608 532 L 608 554 Q 611 683 634 744 Q 647 775 627 793 Q 575 833 558 828 Q 542 822 550 804 Q 571 764 567 707 Q 560 392 600 348 Q 622 326 678 314 Q 729 304 811 303 Q 884 302 914 316 Q 945 331 934 364 Z" fill="black"></path>
				<path d="M 379 232 Q 339 225 367 207 Q 410 180 473 195 Q 542 208 613 222 Q 646 229 651 233 Q 660 242 655 251 Q 648 264 616 272 Q 585 279 551 266 Q 514 254 475 245 Q 430 236 379 232 Z" fill="red"></path>
				<path d="M 202 56 Q 180 55 196 35 Q 212 19 231 13 Q 255 6 272 11 Q 443 56 800 56 Q 819 56 839 55 Q 861 54 867 64 Q 873 77 855 92 Q 797 137 756 128 Q 585 95 202 56 Z" fill="lightgray"></path>
</g>
		<text x="40" y="140" font-size="128" fill="#999999">7</text></g>
		<g id="id1:id2:id2" transform="matrix(1.0,0,0,1.0,2048,0.0)">			<g stroke="lightgray" stroke-width="4" transform="scale(4, 4)"> <rect x="0" y="0" width="256" height="256" fill="white" stroke-width="4"/></g>
			<g transform="scale(0.92, -0.92) translate(60, -920)">					<path d="M 406 379 Q 406 466 405 547 L 405 579 Q 404 624 415 732 Q 418 742 398 755 Q 364 771 341 773 Q 325 774 319 767 Q 312 760 321 745 Q 346 714 347 691 Q 363 543 368 368 C 369 338 406 349 406 379 Z" fill="black"></path>
				<path d="M 405 547 Q 469 563 517 574 Q 539 581 530 593 Q 517 606 492 607 Q 449 610 405 579 C 380 562 376 540 405 547 Z" fill="black"></path>
				<path d="M 294 349 Q 278 496 281 526 Q 282 548 268 558 Q 246 574 218 581 Q 205 585 197 578 Q 190 572 197 558 Q 216 528 226 496 Q 235 465 255 339 C 260 309 297 319 294 349 Z" fill="black"></path>
				<path d="M 255 339 Q 227 335 200 326 Q 178 320 141 322 Q 126 321 124 310 Q 121 297 131 287 Q 155 269 190 247 Q 200 243 214 252 Q 265 285 461 360 Q 491 375 524 391 Q 537 398 539 408 Q 533 415 520 412 Q 465 396 406 379 L 368 368 Q 331 359 294 349 L 255 339 Z" fill="black"></path>
				<path d="M 608 532 Q 666 548 786 594 Q 811 604 839 608 Q 864 611 859 633 Q 850 655 828 678 Q 807 700 793 701 Q 780 704 779 688 Q 776 654 688 603 Q 651 579 608 554 C 582 539 579 524 608 532 Z" fill="black"></path>
				<path d="M 934 364 Q 918 404 907 472 Q 906 488 898 494 Q 889 500 885 478 Q 864 397 851 384 Q 830 360 728 359 Q 676 362 652 372 Q 613 393 608 532 L 608 554 Q 611 683 634 744 Q 647 775 627 793 Q 575 833 558 828 Q 542 822 550 804 Q 571 764 567 707 Q 560 392 600 348 Q 622 326 678 314 Q 729 304 811 303 Q 884 302 914 316 Q 945 331 934 364 Z" fill="black"></path>
				<path d="M 379 232 Q 339 225 367 207 Q 410 180 473 195 Q 542 208 613 222 Q 646 229 651 233 Q 660 242 655 251 Q 648 264 616 272 Q 585 279 551 266 Q 514 254 475 245 Q 430 236 379 232 Z" fill="black"></path>
				<path d="M 202 56 Q 180 55 196 35 Q 212 19 231 13 Q 255 6 272 11 Q 443 56 800 56 Q 819 56 839 55 Q 861 54 867 64 Q 873 77 855 92 Q 797 137 756 128 Q 585 95 202 56 Z" fill="red"></path>
</g>
		<text x="40" y="140" font-size="128" fill="#999999">8</text></g>
		<g id="id1:id3:id3" transform="matrix(1.0,0,0,1.0,3072,0.0)">			<g stroke="white" stroke-width="4" transform="scale(4, 4)"> <rect x="1" y="1" width="255" height="255" fill="white" stroke-width="0"/></g>
</g>
		<g id="id1:id4:id4" transform="matrix(1.0,0,0,1.0,4096,0.0)">			<g stroke="white" stroke-width="4" transform="scale(4, 4)"> <rect x="1" y="1" width="255" height="255" fill="white" stroke-width="0"/></g>
</g>
</g>
</svg>
