<?xml version="1.0" standalone="no"?>
<!DOCTYPE svg PUBLIC "-//W3C//DTD SVG 1.1//EN"
 "http://www.w3.org/Graphics/SVG/1.1/DTD/svg11.dtd">
<!-- generate by Japanese dictionary app com.asnsami.kanjidictionary -->

<svg xmlns="http://www.w3.org/2000/svg" xmlns:sodipodi="http://sodipodi.sourceforge.net/DTD/sodipodi-0.dtd" version="1.1" width="640" height="256" viewBox="0 0 5120 2048">
	<g id="id0:id0" transform="translate(0.0,0)">
		<g id="id0:id0:id0" transform="matrix(1.0,0,0,1.0,0,0.0)">			<g stroke="lightgray" stroke-width="4" transform="scale(4, 4)"> <rect x="0" y="0" width="256" height="256" fill="white" stroke-width="4"/></g>
			<g transform="scale(0.92, -0.92) translate(60, -920)">					<path d="M 272 555 Q 303 601 339 658 Q 366 707 389 730 Q 399 742 394 757 Q 390 770 357 795 Q 327 814 306 814 Q 285 813 295 788 Q 310 757 298 729 Q 264 638 209 552 Q 155 470 83 378 Q 73 366 70 360 Q 66 347 82 350 Q 121 360 242 514 L 272 555 Z" fill="red"></path>
				<path d="M 242 514 Q 270 450 251 257 Q 244 202 229 143 Q 214 94 251 46 Q 252 43 256 40 Q 275 24 287 52 Q 302 94 302 142 Q 301 416 310 477 Q 317 507 291 535 Q 285 541 272 555 C 251 577 232 542 242 514 Z" fill="lightgray"></path>
				<path d="M 498 557 Q 514 587 531 611 Q 540 623 526 636 Q 486 666 462 660 Q 452 657 455 644 Q 470 572 401 485 Q 385 464 376 451 Q 369 438 383 442 Q 396 443 413 458 Q 458 495 486 537 L 498 557 Z" fill="lightgray"></path>
				<path d="M 674 543 Q 821 577 827 583 Q 836 592 831 600 Q 824 612 794 619 Q 763 625 732 612 Q 704 602 675 593 L 617 577 Q 563 567 501 558 Q 498 558 498 557 C 469 551 465 550 486 537 Q 495 528 530 521 Q 558 517 591 525 Q 603 528 617 530 L 674 543 Z" fill="lightgray"></path>
				<path d="M 673 352 Q 761 362 887 365 Q 912 365 933 366 Q 955 366 961 376 Q 967 389 948 404 Q 884 449 828 430 Q 765 417 673 398 L 617 388 Q 490 369 341 345 Q 319 342 336 323 Q 352 308 372 303 Q 396 297 413 303 Q 557 345 617 345 L 673 352 Z" fill="lightgray"></path>
				<path d="M 617 345 Q 614 -18 632 -48 Q 647 -64 656 -42 Q 672 -2 673 352 L 673 398 Q 673 480 674 543 L 675 593 Q 676 734 699 770 Q 706 786 685 803 Q 660 822 615 834 Q 594 840 581 825 Q 571 816 584 804 Q 614 779 616 743 Q 617 679 617 577 L 617 530 Q 620 403 617 388 L 617 345 Z" fill="lightgray"></path>
</g>
		<text x="40" y="140" font-size="128" fill="#999999">1</text></g>
		<g id="id0:id1:id1" transform="matrix(1.0,0,0,1.0,1024,0.0)">			<g stroke="lightgray" stroke-width="4" transform="scale(4, 4)"> <rect x="0" y="0" width="256" height="256" fill="white" stroke-width="4"/></g>
			<g transform="scale(0.92, -0.92) translate(60, -920)">					<path d="M 272 555 Q 303 601 339 658 Q 366 707 389 730 Q 399 742 394 757 Q 390 770 357 795 Q 327 814 306 814 Q 285 813 295 788 Q 310 757 298 729 Q 264 638 209 552 Q 155 470 83 378 Q 73 366 70 360 Q 66 347 82 350 Q 121 360 242 514 L 272 555 Z" fill="black"></path>
				<path d="M 242 514 Q 270 450 251 257 Q 244 202 229 143 Q 214 94 251 46 Q 252 43 256 40 Q 275 24 287 52 Q 302 94 302 142 Q 301 416 310 477 Q 317 507 291 535 Q 285 541 272 555 C 251 577 232 542 242 514 Z" fill="red"></path>
				<path d="M 498 557 Q 514 587 531 611 Q 540 623 526 636 Q 486 666 462 660 Q 452 657 455 644 Q 470 572 401 485 Q 385 464 376 451 Q 369 438 383 442 Q 396 443 413 458 Q 458 495 486 537 L 498 557 Z" fill="lightgray"></path>
				<path d="M 674 543 Q 821 577 827 583 Q 836 592 831 600 Q 824 612 794 619 Q 763 625 732 612 Q 704 602 675 593 L 617 577 Q 563 567 501 558 Q 498 558 498 557 C 469 551 465 550 486 537 Q 495 528 530 521 Q 558 517 591 525 Q 603 528 617 530 L 674 543 Z" fill="lightgray"></path>
				<path d="M 673 352 Q 761 362 887 365 Q 912 365 933 366 Q 955 366 961 376 Q 967 389 948 404 Q 884 449 828 430 Q 765 417 673 398 L 617 388 Q 490 369 341 345 Q 319 342 336 323 Q 352 308 372 303 Q 396 297 413 303 Q 557 345 617 345 L 673 352 Z" fill="lightgray"></path>
				<path d="M 617 345 Q 614 -18 632 -48 Q 647 -64 656 -42 Q 672 -2 673 352 L 673 398 Q 673 480 674 543 L 675 593 Q 676 734 699 770 Q 706 786 685 803 Q 660 822 615 834 Q 594 840 581 825 Q 571 816 584 804 Q 614 779 616 743 Q 617 679 617 577 L 617 530 Q 620 403 617 388 L 617 345 Z" fill="lightgray"></path>
</g>
		<text x="40" y="140" font-size="128" fill="#999999">2</text></g>
		<g id="id0:id2:id2" transform="matrix(1.0,0,0,1.0,2048,0.0)">			<g stroke="lightgray" stroke-width="4" transform="scale(4, 4)"> <rect x="0" y="0" width="256" height="256" fill="white" stroke-width="4"/></g>
			<g transform="scale(0.92, -0.92) translate(60, -920)">					<path d="M 272 555 Q 303 601 339 658 Q 366 707 389 730 Q 399 742 394 757 Q 390 770 357 795 Q 327 814 306 814 Q 285 813 295 788 Q 310 757 298 729 Q 264 638 209 552 Q 155 470 83 378 Q 73 366 70 360 Q 66 347 82 350 Q 121 360 242 514 L 272 555 Z" fill="black"></path>
				<path d="M 242 514 Q 270 450 251 257 Q 244 202 229 143 Q 214 94 251 46 Q 252 43 256 40 Q 275 24 287 52 Q 302 94 302 142 Q 301 416 310 477 Q 317 507 291 535 Q 285 541 272 555 C 251 577 232 542 242 514 Z" fill="black"></path>
				<path d="M 498 557 Q 514 587 531 611 Q 540 623 526 636 Q 486 666 462 660 Q 452 657 455 644 Q 470 572 401 485 Q 385 464 376 451 Q 369 438 383 442 Q 396 443 413 458 Q 458 495 486 537 L 498 557 Z" fill="red"></path>
				<path d="M 674 543 Q 821 577 827 583 Q 836 592 831 600 Q 824 612 794 619 Q 763 625 732 612 Q 704 602 675 593 L 617 577 Q 563 567 501 558 Q 498 558 498 557 C 469 551 465 550 486 537 Q 495 528 530 521 Q 558 517 591 525 Q 603 528 617 530 L 674 543 Z" fill="lightgray"></path>
				<path d="M 673 352 Q 761 362 887 365 Q 912 365 933 366 Q 955 366 961 376 Q 967 389 948 404 Q 884 449 828 430 Q 765 417 673 398 L 617 388 Q 490 369 341 345 Q 319 342 336 323 Q 352 308 372 303 Q 396 297 413 303 Q 557 345 617 345 L 673 352 Z" fill="lightgray"></path>
				<path d="M 617 345 Q 614 -18 632 -48 Q 647 -64 656 -42 Q 672 -2 673 352 L 673 398 Q 673 480 674 543 L 675 593 Q 676 734 699 770 Q 706 786 685 803 Q 660 822 615 834 Q 594 840 581 825 Q 571 816 584 804 Q 614 779 616 743 Q 617 679 617 577 L 617 530 Q 620 403 617 388 L 617 345 Z" fill="lightgray"></path>
</g>
		<text x="40" y="140" font-size="128" fill="#999999">3</text></g>
		<g id="id0:id3:id3" transform="matrix(1.0,0,0,1.0,3072,0.0)">			<g stroke="lightgray" stroke-width="4" transform="scale(4, 4)"> <rect x="0" y="0" width="256" height="256" fill="white" stroke-width="4"/></g>
			<g transform="scale(0.92, -0.92) translate(60, -920)">					<path d="M 272 555 Q 303 601 339 658 Q 366 707 389 730 Q 399 742 394 757 Q 390 770 357 795 Q 327 814 306 814 Q 285 813 295 788 Q 310 757 298 729 Q 264 638 209 552 Q 155 470 83 378 Q 73 366 70 360 Q 66 347 82 350 Q 121 360 242 514 L 272 555 Z" fill="black"></path>
				<path d="M 242 514 Q 270 450 251 257 Q 244 202 229 143 Q 214 94 251 46 Q 252 43 256 40 Q 275 24 287 52 Q 302 94 302 142 Q 301 416 310 477 Q 317 507 291 535 Q 285 541 272 555 C 251 577 232 542 242 514 Z" fill="black"></path>
				<path d="M 498 557 Q 514 587 531 611 Q 540 623 526 636 Q 486 666 462 660 Q 452 657 455 644 Q 470 572 401 485 Q 385 464 376 451 Q 369 438 383 442 Q 396 443 413 458 Q 458 495 486 537 L 498 557 Z" fill="black"></path>
				<path d="M 674 543 Q 821 577 827 583 Q 836 592 831 600 Q 824 612 794 619 Q 763 625 732 612 Q 704 602 675 593 L 617 577 Q 563 567 501 558 Q 498 558 498 557 C 469 551 465 550 486 537 Q 495 528 530 521 Q 558 517 591 525 Q 603 528 617 530 L 674 543 Z" fill="red"></path>
				<path d="M 673 352 Q 761 362 887 365 Q 912 365 933 366 Q 955 366 961 376 Q 967 389 948 404 Q 884 449 828 430 Q 765 417 673 398 L 617 388 Q 490 369 341 345 Q 319 342 336 323 Q 352 308 372 303 Q 396 297 413 303 Q 557 345 617 345 L 673 352 Z" fill="lightgray"></path>
				<path d="M 617 345 Q 614 -18 632 -48 Q 647 -64 656 -42 Q 672 -2 673 352 L 673 398 Q 673 480 674 543 L 675 593 Q 676 734 699 770 Q 706 786 685 803 Q 660 822 615 834 Q 594 840 581 825 Q 571 816 584 804 Q 614 779 616 743 Q 617 679 617 577 L 617 530 Q 620 403 617 388 L 617 345 Z" fill="lightgray"></path>
</g>
		<text x="40" y="140" font-size="128" fill="#999999">4</text></g>
		<g id="id0:id4:id4" transform="matrix(1.0,0,0,1.0,4096,0.0)">			<g stroke="lightgray" stroke-width="4" transform="scale(4, 4)"> <rect x="0" y="0" width="256" height="256" fill="white" stroke-width="4"/></g>
			<g transform="scale(0.92, -0.92) translate(60, -920)">					<path d="M 272 555 Q 303 601 339 658 Q 366 707 389 730 Q 399 742 394 757 Q 390 770 357 795 Q 327 814 306 814 Q 285 813 295 788 Q 310 757 298 729 Q 264 638 209 552 Q 155 470 83 378 Q 73 366 70 360 Q 66 347 82 350 Q 121 360 242 514 L 272 555 Z" fill="black"></path>
				<path d="M 242 514 Q 270 450 251 257 Q 244 202 229 143 Q 214 94 251 46 Q 252 43 256 40 Q 275 24 287 52 Q 302 94 302 142 Q 301 416 310 477 Q 317 507 291 535 Q 285 541 272 555 C 251 577 232 542 242 514 Z" fill="black"></path>
				<path d="M 498 557 Q 514 587 531 611 Q 540 623 526 636 Q 486 666 462 660 Q 452 657 455 644 Q 470 572 401 485 Q 385 464 376 451 Q 369 438 383 442 Q 396 443 413 458 Q 458 495 486 537 L 498 557 Z" fill="black"></path>
				<path d="M 674 543 Q 821 577 827 583 Q 836 592 831 600 Q 824 612 794 619 Q 763 625 732 612 Q 704 602 675 593 L 617 577 Q 563 567 501 558 Q 498 558 498 557 C 469 551 465 550 486 537 Q 495 528 530 521 Q 558 517 591 525 Q 603 528 617 530 L 674 543 Z" fill="black"></path>
				<path d="M 673 352 Q 761 362 887 365 Q 912 365 933 366 Q 955 366 961 376 Q 967 389 948 404 Q 884 449 828 430 Q 765 417 673 398 L 617 388 Q 490 369 341 345 Q 319 342 336 323 Q 352 308 372 303 Q 396 297 413 303 Q 557 345 617 345 L 673 352 Z" fill="red"></path>
				<path d="M 617 345 Q 614 -18 632 -48 Q 647 -64 656 -42 Q 672 -2 673 352 L 673 398 Q 673 480 674 543 L 675 593 Q 676 734 699 770 Q 706 786 685 803 Q 660 822 615 834 Q 594 840 581 825 Q 571 816 584 804 Q 614 779 616 743 Q 617 679 617 577 L 617 530 Q 620 403 617 388 L 617 345 Z" fill="lightgray"></path>
</g>
		<text x="40" y="140" font-size="128" fill="#999999">5</text></g>
</g>
	<g id="id1:id1" transform="translate(0.0,1024)">
		<g id="id1:id0:id0" transform="matrix(1.0,0,0,1.0,0,0.0)">			<g stroke="lightgray" stroke-width="4" transform="scale(4, 4)"> <rect x="0" y="0" width="256" height="256" fill="white" stroke-width="4"/></g>
			<g transform="scale(0.92, -0.92) translate(60, -920)">					<path d="M 272 555 Q 303 601 339 658 Q 366 707 389 730 Q 399 742 394 757 Q 390 770 357 795 Q 327 814 306 814 Q 285 813 295 788 Q 310 757 298 729 Q 264 638 209 552 Q 155 470 83 378 Q 73 366 70 360 Q 66 347 82 350 Q 121 360 242 514 L 272 555 Z" fill="black"></path>
				<path d="M 242 514 Q 270 450 251 257 Q 244 202 229 143 Q 214 94 251 46 Q 252 43 256 40 Q 275 24 287 52 Q 302 94 302 142 Q 301 416 310 477 Q 317 507 291 535 Q 285 541 272 555 C 251 577 232 542 242 514 Z" fill="black"></path>
				<path d="M 498 557 Q 514 587 531 611 Q 540 623 526 636 Q 486 666 462 660 Q 452 657 455 644 Q 470 572 401 485 Q 385 464 376 451 Q 369 438 383 442 Q 396 443 413 458 Q 458 495 486 537 L 498 557 Z" fill="black"></path>
				<path d="M 674 543 Q 821 577 827 583 Q 836 592 831 600 Q 824 612 794 619 Q 763 625 732 612 Q 704 602 675 593 L 617 577 Q 563 567 501 558 Q 498 558 498 557 C 469 551 465 550 486 537 Q 495 528 530 521 Q 558 517 591 525 Q 603 528 617 530 L 674 543 Z" fill="black"></path>
				<path d="M 673 352 Q 761 362 887 365 Q 912 365 933 366 Q 955 366 961 376 Q 967 389 948 404 Q 884 449 828 430 Q 765 417 673 398 L 617 388 Q 490 369 341 345 Q 319 342 336 323 Q 352 308 372 303 Q 396 297 413 303 Q 557 345 617 345 L 673 352 Z" fill="black"></path>
				<path d="M 617 345 Q 614 -18 632 -48 Q 647 -64 656 -42 Q 672 -2 673 352 L 673 398 Q 673 480 674 543 L 675 593 Q 676 734 699 770 Q 706 786 685 803 Q 660 822 615 834 Q 594 840 581 825 Q 571 816 584 804 Q 614 779 616 743 Q 617 679 617 577 L 617 530 Q 620 403 617 388 L 617 345 Z" fill="red"></path>
</g>
		<text x="40" y="140" font-size="128" fill="#999999">6</text></g>
		<g id="id1:id1:id1" transform="matrix(1.0,0,0,1.0,1024,0.0)">			<g stroke="white" stroke-width="4" transform="scale(4, 4)"> <rect x="1" y="1" width="255" height="255" fill="white" stroke-width="0"/></g>
</g>
		<g id="id1:id2:id2" transform="matrix(1.0,0,0,1.0,2048,0.0)">			<g stroke="white" stroke-width="4" transform="scale(4, 4)"> <rect x="1" y="1" width="255" height="255" fill="white" stroke-width="0"/></g>
</g>
		<g id="id1:id3:id3" transform="matrix(1.0,0,0,1.0,3072,0.0)">			<g stroke="white" stroke-width="4" transform="scale(4, 4)"> <rect x="1" y="1" width="255" height="255" fill="white" stroke-width="0"/></g>
</g>
		<g id="id1:id4:id4" transform="matrix(1.0,0,0,1.0,4096,0.0)">			<g stroke="white" stroke-width="4" transform="scale(4, 4)"> <rect x="1" y="1" width="255" height="255" fill="white" stroke-width="0"/></g>
</g>
</g>
</svg>
