<?xml version="1.0" standalone="no"?>
<!DOCTYPE svg PUBLIC "-//W3C//DTD SVG 1.1//EN"
 "http://www.w3.org/Graphics/SVG/1.1/DTD/svg11.dtd">
<!-- generate by Japanese dictionary app com.asnsami.kanjidictionary -->

<svg xmlns="http://www.w3.org/2000/svg" xmlns:sodipodi="http://sodipodi.sourceforge.net/DTD/sodipodi-0.dtd" version="1.1" width="640" height="256" viewBox="0 0 5120 2048">
	<g id="id0:id0" transform="translate(0.0,0)">
		<g id="id0:id0:id0" transform="matrix(1.0,0,0,1.0,0,0.0)">			<g stroke="lightgray" stroke-width="4" transform="scale(4, 4)"> <rect x="0" y="0" width="256" height="256" fill="white" stroke-width="4"/></g>
			<g transform="scale(0.92, -0.92) translate(60, -920)">					<path d="M 289 440 L 298 458 Q 311 478 332 515 Q 353 552 364 568 Q 374 584 376 591 Q 387 607 393 612 L 402 619 Q 404 625 404 627 Q 404 645 365 672 Q 345 687 336 684 Q 325 685 322 669 L 322 648 L 318 621 Q 308 580 290 548 L 263 498 Q 189 366 127 299 L 103 272 L 64 232 Q 57 226 58 220 Q 58 214 65 220 L 81 226 Q 94 228 159 284 Q 165 289 196 322 Q 226 355 233 366 Q 246 381 250 387 L 264 407 L 289 440 Z" fill="red"></path>
				<path d="M 264 130 L 260 62 L 247 -10 Q 246 -15 249 -30 L 254 -50 Q 269 -96 283 -96 Q 290 -96 300 -76 Q 319 -45 312 2 L 311 50 Q 309 90 311 98 L 313 260 L 315 309 Q 317 354 324 374 Q 330 393 330 395 Q 330 396 323 407 Q 316 417 308 424 Q 300 431 299 433 L 289 440 C 266 459 258 436 264 407 L 269 384 L 270 301 L 264 130 Z" fill="lightgray"></path>
				<path d="M 688 556 L 692 578 Q 697 632 645 655 Q 629 663 607 670 Q 585 677 585 678 Q 566 686 557 677 Q 556 677 557 669 Q 558 661 581 625 Q 603 589 623 568 L 642 548 C 663 526 683 526 688 556 Z" fill="lightgray"></path>
				<path d="M 761 524 L 819 534 L 840 540 Q 865 545 867 552 Q 867 570 841 578 Q 815 585 800 585 Q 791 583 765 574 Q 738 564 688 556 L 642 548 L 464 526 L 432 524 Q 415 525 417 509 Q 421 490 475 490 L 515 492 Q 529 493 713 516 L 761 524 Z" fill="lightgray"></path>
				<path d="M 510 438 L 497 440 Q 484 444 482 438 Q 475 436 482 428 L 489 415 Q 488 414 502 396 L 529 359 Q 562 316 588 335 Q 601 339 605 359 Q 617 412 542 431 Q 538 433 535 433 Q 531 433 510 438 Z" fill="lightgray"></path>
				<path d="M 797 467 L 806 482 Q 806 487 801 492 Q 790 512 761 524 C 734 536 706 545 713 516 L 717 500 Q 723 464 702 385 Q 680 305 676 305 C 661 279 694 287 710 312 Q 718 324 747 375 L 766 414 Q 786 447 788 454 Q 790 460 797 467 Z" fill="lightgray"></path>
				<path d="M 676 305 L 454 272 L 358 264 Q 335 262 344 250 Q 350 240 376 230 L 394 222 Q 403 219 414 222 L 523 243 Q 543 247 592 252 Q 641 257 658 260 L 742 270 L 933 282 L 976 286 Q 983 287 988 292 Q 993 297 982 308 Q 974 320 942 332 Q 909 344 888 340 L 873 336 Q 861 333 828 328 L 710 312 L 676 305 Z" fill="lightgray"></path>
				<path d="M 523 134 L 502 140 L 477 145 Q 467 146 461 142 Q 455 137 460 128 L 473 114 Q 481 100 481 90 L 488 62 L 505 -61 Q 506 -80 513 -90 Q 526 -106 538 -96 Q 550 -87 547 -58 L 545 -22 L 535 97 C 532 127 532 131 523 134 Z" fill="lightgray"></path>
				<path d="M 728 173 L 703 166 Q 688 161 671 160 L 523 134 C 493 129 506 89 535 97 L 553 102 Q 569 106 622 116 L 674 127 L 717 132 Q 740 136 749 122 Q 753 118 748 89 L 730 0 C 724 -29 777 -36 789 -8 Q 816 56 819 67 Q 822 78 839 95 L 853 108 Q 862 120 862 123 Q 864 132 851 143 Q 831 165 804 176 Q 776 187 766 186 L 750 181 Q 747 179 728 173 Z" fill="lightgray"></path>
				<path d="M 547 -58 L 793 -44 Q 806 -42 809 -35 Q 812 -29 802 -21 L 789 -8 C 776 5 760 4 730 0 L 545 -22 C 515 -26 517 -60 547 -58 Z" fill="lightgray"></path>
</g>
		<text x="40" y="140" font-size="128" fill="#999999">1</text></g>
		<g id="id0:id1:id1" transform="matrix(1.0,0,0,1.0,1024,0.0)">			<g stroke="lightgray" stroke-width="4" transform="scale(4, 4)"> <rect x="0" y="0" width="256" height="256" fill="white" stroke-width="4"/></g>
			<g transform="scale(0.92, -0.92) translate(60, -920)">					<path d="M 289 440 L 298 458 Q 311 478 332 515 Q 353 552 364 568 Q 374 584 376 591 Q 387 607 393 612 L 402 619 Q 404 625 404 627 Q 404 645 365 672 Q 345 687 336 684 Q 325 685 322 669 L 322 648 L 318 621 Q 308 580 290 548 L 263 498 Q 189 366 127 299 L 103 272 L 64 232 Q 57 226 58 220 Q 58 214 65 220 L 81 226 Q 94 228 159 284 Q 165 289 196 322 Q 226 355 233 366 Q 246 381 250 387 L 264 407 L 289 440 Z" fill="black"></path>
				<path d="M 264 130 L 260 62 L 247 -10 Q 246 -15 249 -30 L 254 -50 Q 269 -96 283 -96 Q 290 -96 300 -76 Q 319 -45 312 2 L 311 50 Q 309 90 311 98 L 313 260 L 315 309 Q 317 354 324 374 Q 330 393 330 395 Q 330 396 323 407 Q 316 417 308 424 Q 300 431 299 433 L 289 440 C 266 459 258 436 264 407 L 269 384 L 270 301 L 264 130 Z" fill="red"></path>
				<path d="M 688 556 L 692 578 Q 697 632 645 655 Q 629 663 607 670 Q 585 677 585 678 Q 566 686 557 677 Q 556 677 557 669 Q 558 661 581 625 Q 603 589 623 568 L 642 548 C 663 526 683 526 688 556 Z" fill="lightgray"></path>
				<path d="M 761 524 L 819 534 L 840 540 Q 865 545 867 552 Q 867 570 841 578 Q 815 585 800 585 Q 791 583 765 574 Q 738 564 688 556 L 642 548 L 464 526 L 432 524 Q 415 525 417 509 Q 421 490 475 490 L 515 492 Q 529 493 713 516 L 761 524 Z" fill="lightgray"></path>
				<path d="M 510 438 L 497 440 Q 484 444 482 438 Q 475 436 482 428 L 489 415 Q 488 414 502 396 L 529 359 Q 562 316 588 335 Q 601 339 605 359 Q 617 412 542 431 Q 538 433 535 433 Q 531 433 510 438 Z" fill="lightgray"></path>
				<path d="M 797 467 L 806 482 Q 806 487 801 492 Q 790 512 761 524 C 734 536 706 545 713 516 L 717 500 Q 723 464 702 385 Q 680 305 676 305 C 661 279 694 287 710 312 Q 718 324 747 375 L 766 414 Q 786 447 788 454 Q 790 460 797 467 Z" fill="lightgray"></path>
				<path d="M 676 305 L 454 272 L 358 264 Q 335 262 344 250 Q 350 240 376 230 L 394 222 Q 403 219 414 222 L 523 243 Q 543 247 592 252 Q 641 257 658 260 L 742 270 L 933 282 L 976 286 Q 983 287 988 292 Q 993 297 982 308 Q 974 320 942 332 Q 909 344 888 340 L 873 336 Q 861 333 828 328 L 710 312 L 676 305 Z" fill="lightgray"></path>
				<path d="M 523 134 L 502 140 L 477 145 Q 467 146 461 142 Q 455 137 460 128 L 473 114 Q 481 100 481 90 L 488 62 L 505 -61 Q 506 -80 513 -90 Q 526 -106 538 -96 Q 550 -87 547 -58 L 545 -22 L 535 97 C 532 127 532 131 523 134 Z" fill="lightgray"></path>
				<path d="M 728 173 L 703 166 Q 688 161 671 160 L 523 134 C 493 129 506 89 535 97 L 553 102 Q 569 106 622 116 L 674 127 L 717 132 Q 740 136 749 122 Q 753 118 748 89 L 730 0 C 724 -29 777 -36 789 -8 Q 816 56 819 67 Q 822 78 839 95 L 853 108 Q 862 120 862 123 Q 864 132 851 143 Q 831 165 804 176 Q 776 187 766 186 L 750 181 Q 747 179 728 173 Z" fill="lightgray"></path>
				<path d="M 547 -58 L 793 -44 Q 806 -42 809 -35 Q 812 -29 802 -21 L 789 -8 C 776 5 760 4 730 0 L 545 -22 C 515 -26 517 -60 547 -58 Z" fill="lightgray"></path>
</g>
		<text x="40" y="140" font-size="128" fill="#999999">2</text></g>
		<g id="id0:id2:id2" transform="matrix(1.0,0,0,1.0,2048,0.0)">			<g stroke="lightgray" stroke-width="4" transform="scale(4, 4)"> <rect x="0" y="0" width="256" height="256" fill="white" stroke-width="4"/></g>
			<g transform="scale(0.92, -0.92) translate(60, -920)">					<path d="M 289 440 L 298 458 Q 311 478 332 515 Q 353 552 364 568 Q 374 584 376 591 Q 387 607 393 612 L 402 619 Q 404 625 404 627 Q 404 645 365 672 Q 345 687 336 684 Q 325 685 322 669 L 322 648 L 318 621 Q 308 580 290 548 L 263 498 Q 189 366 127 299 L 103 272 L 64 232 Q 57 226 58 220 Q 58 214 65 220 L 81 226 Q 94 228 159 284 Q 165 289 196 322 Q 226 355 233 366 Q 246 381 250 387 L 264 407 L 289 440 Z" fill="black"></path>
				<path d="M 264 130 L 260 62 L 247 -10 Q 246 -15 249 -30 L 254 -50 Q 269 -96 283 -96 Q 290 -96 300 -76 Q 319 -45 312 2 L 311 50 Q 309 90 311 98 L 313 260 L 315 309 Q 317 354 324 374 Q 330 393 330 395 Q 330 396 323 407 Q 316 417 308 424 Q 300 431 299 433 L 289 440 C 266 459 258 436 264 407 L 269 384 L 270 301 L 264 130 Z" fill="black"></path>
				<path d="M 688 556 L 692 578 Q 697 632 645 655 Q 629 663 607 670 Q 585 677 585 678 Q 566 686 557 677 Q 556 677 557 669 Q 558 661 581 625 Q 603 589 623 568 L 642 548 C 663 526 683 526 688 556 Z" fill="red"></path>
				<path d="M 761 524 L 819 534 L 840 540 Q 865 545 867 552 Q 867 570 841 578 Q 815 585 800 585 Q 791 583 765 574 Q 738 564 688 556 L 642 548 L 464 526 L 432 524 Q 415 525 417 509 Q 421 490 475 490 L 515 492 Q 529 493 713 516 L 761 524 Z" fill="lightgray"></path>
				<path d="M 510 438 L 497 440 Q 484 444 482 438 Q 475 436 482 428 L 489 415 Q 488 414 502 396 L 529 359 Q 562 316 588 335 Q 601 339 605 359 Q 617 412 542 431 Q 538 433 535 433 Q 531 433 510 438 Z" fill="lightgray"></path>
				<path d="M 797 467 L 806 482 Q 806 487 801 492 Q 790 512 761 524 C 734 536 706 545 713 516 L 717 500 Q 723 464 702 385 Q 680 305 676 305 C 661 279 694 287 710 312 Q 718 324 747 375 L 766 414 Q 786 447 788 454 Q 790 460 797 467 Z" fill="lightgray"></path>
				<path d="M 676 305 L 454 272 L 358 264 Q 335 262 344 250 Q 350 240 376 230 L 394 222 Q 403 219 414 222 L 523 243 Q 543 247 592 252 Q 641 257 658 260 L 742 270 L 933 282 L 976 286 Q 983 287 988 292 Q 993 297 982 308 Q 974 320 942 332 Q 909 344 888 340 L 873 336 Q 861 333 828 328 L 710 312 L 676 305 Z" fill="lightgray"></path>
				<path d="M 523 134 L 502 140 L 477 145 Q 467 146 461 142 Q 455 137 460 128 L 473 114 Q 481 100 481 90 L 488 62 L 505 -61 Q 506 -80 513 -90 Q 526 -106 538 -96 Q 550 -87 547 -58 L 545 -22 L 535 97 C 532 127 532 131 523 134 Z" fill="lightgray"></path>
				<path d="M 728 173 L 703 166 Q 688 161 671 160 L 523 134 C 493 129 506 89 535 97 L 553 102 Q 569 106 622 116 L 674 127 L 717 132 Q 740 136 749 122 Q 753 118 748 89 L 730 0 C 724 -29 777 -36 789 -8 Q 816 56 819 67 Q 822 78 839 95 L 853 108 Q 862 120 862 123 Q 864 132 851 143 Q 831 165 804 176 Q 776 187 766 186 L 750 181 Q 747 179 728 173 Z" fill="lightgray"></path>
				<path d="M 547 -58 L 793 -44 Q 806 -42 809 -35 Q 812 -29 802 -21 L 789 -8 C 776 5 760 4 730 0 L 545 -22 C 515 -26 517 -60 547 -58 Z" fill="lightgray"></path>
</g>
		<text x="40" y="140" font-size="128" fill="#999999">3</text></g>
		<g id="id0:id3:id3" transform="matrix(1.0,0,0,1.0,3072,0.0)">			<g stroke="lightgray" stroke-width="4" transform="scale(4, 4)"> <rect x="0" y="0" width="256" height="256" fill="white" stroke-width="4"/></g>
			<g transform="scale(0.92, -0.92) translate(60, -920)">					<path d="M 289 440 L 298 458 Q 311 478 332 515 Q 353 552 364 568 Q 374 584 376 591 Q 387 607 393 612 L 402 619 Q 404 625 404 627 Q 404 645 365 672 Q 345 687 336 684 Q 325 685 322 669 L 322 648 L 318 621 Q 308 580 290 548 L 263 498 Q 189 366 127 299 L 103 272 L 64 232 Q 57 226 58 220 Q 58 214 65 220 L 81 226 Q 94 228 159 284 Q 165 289 196 322 Q 226 355 233 366 Q 246 381 250 387 L 264 407 L 289 440 Z" fill="black"></path>
				<path d="M 264 130 L 260 62 L 247 -10 Q 246 -15 249 -30 L 254 -50 Q 269 -96 283 -96 Q 290 -96 300 -76 Q 319 -45 312 2 L 311 50 Q 309 90 311 98 L 313 260 L 315 309 Q 317 354 324 374 Q 330 393 330 395 Q 330 396 323 407 Q 316 417 308 424 Q 300 431 299 433 L 289 440 C 266 459 258 436 264 407 L 269 384 L 270 301 L 264 130 Z" fill="black"></path>
				<path d="M 688 556 L 692 578 Q 697 632 645 655 Q 629 663 607 670 Q 585 677 585 678 Q 566 686 557 677 Q 556 677 557 669 Q 558 661 581 625 Q 603 589 623 568 L 642 548 C 663 526 683 526 688 556 Z" fill="black"></path>
				<path d="M 761 524 L 819 534 L 840 540 Q 865 545 867 552 Q 867 570 841 578 Q 815 585 800 585 Q 791 583 765 574 Q 738 564 688 556 L 642 548 L 464 526 L 432 524 Q 415 525 417 509 Q 421 490 475 490 L 515 492 Q 529 493 713 516 L 761 524 Z" fill="red"></path>
				<path d="M 510 438 L 497 440 Q 484 444 482 438 Q 475 436 482 428 L 489 415 Q 488 414 502 396 L 529 359 Q 562 316 588 335 Q 601 339 605 359 Q 617 412 542 431 Q 538 433 535 433 Q 531 433 510 438 Z" fill="lightgray"></path>
				<path d="M 797 467 L 806 482 Q 806 487 801 492 Q 790 512 761 524 C 734 536 706 545 713 516 L 717 500 Q 723 464 702 385 Q 680 305 676 305 C 661 279 694 287 710 312 Q 718 324 747 375 L 766 414 Q 786 447 788 454 Q 790 460 797 467 Z" fill="lightgray"></path>
				<path d="M 676 305 L 454 272 L 358 264 Q 335 262 344 250 Q 350 240 376 230 L 394 222 Q 403 219 414 222 L 523 243 Q 543 247 592 252 Q 641 257 658 260 L 742 270 L 933 282 L 976 286 Q 983 287 988 292 Q 993 297 982 308 Q 974 320 942 332 Q 909 344 888 340 L 873 336 Q 861 333 828 328 L 710 312 L 676 305 Z" fill="lightgray"></path>
				<path d="M 523 134 L 502 140 L 477 145 Q 467 146 461 142 Q 455 137 460 128 L 473 114 Q 481 100 481 90 L 488 62 L 505 -61 Q 506 -80 513 -90 Q 526 -106 538 -96 Q 550 -87 547 -58 L 545 -22 L 535 97 C 532 127 532 131 523 134 Z" fill="lightgray"></path>
				<path d="M 728 173 L 703 166 Q 688 161 671 160 L 523 134 C 493 129 506 89 535 97 L 553 102 Q 569 106 622 116 L 674 127 L 717 132 Q 740 136 749 122 Q 753 118 748 89 L 730 0 C 724 -29 777 -36 789 -8 Q 816 56 819 67 Q 822 78 839 95 L 853 108 Q 862 120 862 123 Q 864 132 851 143 Q 831 165 804 176 Q 776 187 766 186 L 750 181 Q 747 179 728 173 Z" fill="lightgray"></path>
				<path d="M 547 -58 L 793 -44 Q 806 -42 809 -35 Q 812 -29 802 -21 L 789 -8 C 776 5 760 4 730 0 L 545 -22 C 515 -26 517 -60 547 -58 Z" fill="lightgray"></path>
</g>
		<text x="40" y="140" font-size="128" fill="#999999">4</text></g>
		<g id="id0:id4:id4" transform="matrix(1.0,0,0,1.0,4096,0.0)">			<g stroke="lightgray" stroke-width="4" transform="scale(4, 4)"> <rect x="0" y="0" width="256" height="256" fill="white" stroke-width="4"/></g>
			<g transform="scale(0.92, -0.92) translate(60, -920)">					<path d="M 289 440 L 298 458 Q 311 478 332 515 Q 353 552 364 568 Q 374 584 376 591 Q 387 607 393 612 L 402 619 Q 404 625 404 627 Q 404 645 365 672 Q 345 687 336 684 Q 325 685 322 669 L 322 648 L 318 621 Q 308 580 290 548 L 263 498 Q 189 366 127 299 L 103 272 L 64 232 Q 57 226 58 220 Q 58 214 65 220 L 81 226 Q 94 228 159 284 Q 165 289 196 322 Q 226 355 233 366 Q 246 381 250 387 L 264 407 L 289 440 Z" fill="black"></path>
				<path d="M 264 130 L 260 62 L 247 -10 Q 246 -15 249 -30 L 254 -50 Q 269 -96 283 -96 Q 290 -96 300 -76 Q 319 -45 312 2 L 311 50 Q 309 90 311 98 L 313 260 L 315 309 Q 317 354 324 374 Q 330 393 330 395 Q 330 396 323 407 Q 316 417 308 424 Q 300 431 299 433 L 289 440 C 266 459 258 436 264 407 L 269 384 L 270 301 L 264 130 Z" fill="black"></path>
				<path d="M 688 556 L 692 578 Q 697 632 645 655 Q 629 663 607 670 Q 585 677 585 678 Q 566 686 557 677 Q 556 677 557 669 Q 558 661 581 625 Q 603 589 623 568 L 642 548 C 663 526 683 526 688 556 Z" fill="black"></path>
				<path d="M 761 524 L 819 534 L 840 540 Q 865 545 867 552 Q 867 570 841 578 Q 815 585 800 585 Q 791 583 765 574 Q 738 564 688 556 L 642 548 L 464 526 L 432 524 Q 415 525 417 509 Q 421 490 475 490 L 515 492 Q 529 493 713 516 L 761 524 Z" fill="black"></path>
				<path d="M 510 438 L 497 440 Q 484 444 482 438 Q 475 436 482 428 L 489 415 Q 488 414 502 396 L 529 359 Q 562 316 588 335 Q 601 339 605 359 Q 617 412 542 431 Q 538 433 535 433 Q 531 433 510 438 Z" fill="red"></path>
				<path d="M 797 467 L 806 482 Q 806 487 801 492 Q 790 512 761 524 C 734 536 706 545 713 516 L 717 500 Q 723 464 702 385 Q 680 305 676 305 C 661 279 694 287 710 312 Q 718 324 747 375 L 766 414 Q 786 447 788 454 Q 790 460 797 467 Z" fill="lightgray"></path>
				<path d="M 676 305 L 454 272 L 358 264 Q 335 262 344 250 Q 350 240 376 230 L 394 222 Q 403 219 414 222 L 523 243 Q 543 247 592 252 Q 641 257 658 260 L 742 270 L 933 282 L 976 286 Q 983 287 988 292 Q 993 297 982 308 Q 974 320 942 332 Q 909 344 888 340 L 873 336 Q 861 333 828 328 L 710 312 L 676 305 Z" fill="lightgray"></path>
				<path d="M 523 134 L 502 140 L 477 145 Q 467 146 461 142 Q 455 137 460 128 L 473 114 Q 481 100 481 90 L 488 62 L 505 -61 Q 506 -80 513 -90 Q 526 -106 538 -96 Q 550 -87 547 -58 L 545 -22 L 535 97 C 532 127 532 131 523 134 Z" fill="lightgray"></path>
				<path d="M 728 173 L 703 166 Q 688 161 671 160 L 523 134 C 493 129 506 89 535 97 L 553 102 Q 569 106 622 116 L 674 127 L 717 132 Q 740 136 749 122 Q 753 118 748 89 L 730 0 C 724 -29 777 -36 789 -8 Q 816 56 819 67 Q 822 78 839 95 L 853 108 Q 862 120 862 123 Q 864 132 851 143 Q 831 165 804 176 Q 776 187 766 186 L 750 181 Q 747 179 728 173 Z" fill="lightgray"></path>
				<path d="M 547 -58 L 793 -44 Q 806 -42 809 -35 Q 812 -29 802 -21 L 789 -8 C 776 5 760 4 730 0 L 545 -22 C 515 -26 517 -60 547 -58 Z" fill="lightgray"></path>
</g>
		<text x="40" y="140" font-size="128" fill="#999999">5</text></g>
</g>
	<g id="id1:id1" transform="translate(0.0,1024)">
		<g id="id1:id0:id0" transform="matrix(1.0,0,0,1.0,0,0.0)">			<g stroke="lightgray" stroke-width="4" transform="scale(4, 4)"> <rect x="0" y="0" width="256" height="256" fill="white" stroke-width="4"/></g>
			<g transform="scale(0.92, -0.92) translate(60, -920)">					<path d="M 289 440 L 298 458 Q 311 478 332 515 Q 353 552 364 568 Q 374 584 376 591 Q 387 607 393 612 L 402 619 Q 404 625 404 627 Q 404 645 365 672 Q 345 687 336 684 Q 325 685 322 669 L 322 648 L 318 621 Q 308 580 290 548 L 263 498 Q 189 366 127 299 L 103 272 L 64 232 Q 57 226 58 220 Q 58 214 65 220 L 81 226 Q 94 228 159 284 Q 165 289 196 322 Q 226 355 233 366 Q 246 381 250 387 L 264 407 L 289 440 Z" fill="black"></path>
				<path d="M 264 130 L 260 62 L 247 -10 Q 246 -15 249 -30 L 254 -50 Q 269 -96 283 -96 Q 290 -96 300 -76 Q 319 -45 312 2 L 311 50 Q 309 90 311 98 L 313 260 L 315 309 Q 317 354 324 374 Q 330 393 330 395 Q 330 396 323 407 Q 316 417 308 424 Q 300 431 299 433 L 289 440 C 266 459 258 436 264 407 L 269 384 L 270 301 L 264 130 Z" fill="black"></path>
				<path d="M 688 556 L 692 578 Q 697 632 645 655 Q 629 663 607 670 Q 585 677 585 678 Q 566 686 557 677 Q 556 677 557 669 Q 558 661 581 625 Q 603 589 623 568 L 642 548 C 663 526 683 526 688 556 Z" fill="black"></path>
				<path d="M 761 524 L 819 534 L 840 540 Q 865 545 867 552 Q 867 570 841 578 Q 815 585 800 585 Q 791 583 765 574 Q 738 564 688 556 L 642 548 L 464 526 L 432 524 Q 415 525 417 509 Q 421 490 475 490 L 515 492 Q 529 493 713 516 L 761 524 Z" fill="black"></path>
				<path d="M 510 438 L 497 440 Q 484 444 482 438 Q 475 436 482 428 L 489 415 Q 488 414 502 396 L 529 359 Q 562 316 588 335 Q 601 339 605 359 Q 617 412 542 431 Q 538 433 535 433 Q 531 433 510 438 Z" fill="black"></path>
				<path d="M 797 467 L 806 482 Q 806 487 801 492 Q 790 512 761 524 C 734 536 706 545 713 516 L 717 500 Q 723 464 702 385 Q 680 305 676 305 C 661 279 694 287 710 312 Q 718 324 747 375 L 766 414 Q 786 447 788 454 Q 790 460 797 467 Z" fill="red"></path>
				<path d="M 676 305 L 454 272 L 358 264 Q 335 262 344 250 Q 350 240 376 230 L 394 222 Q 403 219 414 222 L 523 243 Q 543 247 592 252 Q 641 257 658 260 L 742 270 L 933 282 L 976 286 Q 983 287 988 292 Q 993 297 982 308 Q 974 320 942 332 Q 909 344 888 340 L 873 336 Q 861 333 828 328 L 710 312 L 676 305 Z" fill="lightgray"></path>
				<path d="M 523 134 L 502 140 L 477 145 Q 467 146 461 142 Q 455 137 460 128 L 473 114 Q 481 100 481 90 L 488 62 L 505 -61 Q 506 -80 513 -90 Q 526 -106 538 -96 Q 550 -87 547 -58 L 545 -22 L 535 97 C 532 127 532 131 523 134 Z" fill="lightgray"></path>
				<path d="M 728 173 L 703 166 Q 688 161 671 160 L 523 134 C 493 129 506 89 535 97 L 553 102 Q 569 106 622 116 L 674 127 L 717 132 Q 740 136 749 122 Q 753 118 748 89 L 730 0 C 724 -29 777 -36 789 -8 Q 816 56 819 67 Q 822 78 839 95 L 853 108 Q 862 120 862 123 Q 864 132 851 143 Q 831 165 804 176 Q 776 187 766 186 L 750 181 Q 747 179 728 173 Z" fill="lightgray"></path>
				<path d="M 547 -58 L 793 -44 Q 806 -42 809 -35 Q 812 -29 802 -21 L 789 -8 C 776 5 760 4 730 0 L 545 -22 C 515 -26 517 -60 547 -58 Z" fill="lightgray"></path>
</g>
		<text x="40" y="140" font-size="128" fill="#999999">6</text></g>
		<g id="id1:id1:id1" transform="matrix(1.0,0,0,1.0,1024,0.0)">			<g stroke="lightgray" stroke-width="4" transform="scale(4, 4)"> <rect x="0" y="0" width="256" height="256" fill="white" stroke-width="4"/></g>
			<g transform="scale(0.92, -0.92) translate(60, -920)">					<path d="M 289 440 L 298 458 Q 311 478 332 515 Q 353 552 364 568 Q 374 584 376 591 Q 387 607 393 612 L 402 619 Q 404 625 404 627 Q 404 645 365 672 Q 345 687 336 684 Q 325 685 322 669 L 322 648 L 318 621 Q 308 580 290 548 L 263 498 Q 189 366 127 299 L 103 272 L 64 232 Q 57 226 58 220 Q 58 214 65 220 L 81 226 Q 94 228 159 284 Q 165 289 196 322 Q 226 355 233 366 Q 246 381 250 387 L 264 407 L 289 440 Z" fill="black"></path>
				<path d="M 264 130 L 260 62 L 247 -10 Q 246 -15 249 -30 L 254 -50 Q 269 -96 283 -96 Q 290 -96 300 -76 Q 319 -45 312 2 L 311 50 Q 309 90 311 98 L 313 260 L 315 309 Q 317 354 324 374 Q 330 393 330 395 Q 330 396 323 407 Q 316 417 308 424 Q 300 431 299 433 L 289 440 C 266 459 258 436 264 407 L 269 384 L 270 301 L 264 130 Z" fill="black"></path>
				<path d="M 688 556 L 692 578 Q 697 632 645 655 Q 629 663 607 670 Q 585 677 585 678 Q 566 686 557 677 Q 556 677 557 669 Q 558 661 581 625 Q 603 589 623 568 L 642 548 C 663 526 683 526 688 556 Z" fill="black"></path>
				<path d="M 761 524 L 819 534 L 840 540 Q 865 545 867 552 Q 867 570 841 578 Q 815 585 800 585 Q 791 583 765 574 Q 738 564 688 556 L 642 548 L 464 526 L 432 524 Q 415 525 417 509 Q 421 490 475 490 L 515 492 Q 529 493 713 516 L 761 524 Z" fill="black"></path>
				<path d="M 510 438 L 497 440 Q 484 444 482 438 Q 475 436 482 428 L 489 415 Q 488 414 502 396 L 529 359 Q 562 316 588 335 Q 601 339 605 359 Q 617 412 542 431 Q 538 433 535 433 Q 531 433 510 438 Z" fill="black"></path>
				<path d="M 797 467 L 806 482 Q 806 487 801 492 Q 790 512 761 524 C 734 536 706 545 713 516 L 717 500 Q 723 464 702 385 Q 680 305 676 305 C 661 279 694 287 710 312 Q 718 324 747 375 L 766 414 Q 786 447 788 454 Q 790 460 797 467 Z" fill="black"></path>
				<path d="M 676 305 L 454 272 L 358 264 Q 335 262 344 250 Q 350 240 376 230 L 394 222 Q 403 219 414 222 L 523 243 Q 543 247 592 252 Q 641 257 658 260 L 742 270 L 933 282 L 976 286 Q 983 287 988 292 Q 993 297 982 308 Q 974 320 942 332 Q 909 344 888 340 L 873 336 Q 861 333 828 328 L 710 312 L 676 305 Z" fill="red"></path>
				<path d="M 523 134 L 502 140 L 477 145 Q 467 146 461 142 Q 455 137 460 128 L 473 114 Q 481 100 481 90 L 488 62 L 505 -61 Q 506 -80 513 -90 Q 526 -106 538 -96 Q 550 -87 547 -58 L 545 -22 L 535 97 C 532 127 532 131 523 134 Z" fill="lightgray"></path>
				<path d="M 728 173 L 703 166 Q 688 161 671 160 L 523 134 C 493 129 506 89 535 97 L 553 102 Q 569 106 622 116 L 674 127 L 717 132 Q 740 136 749 122 Q 753 118 748 89 L 730 0 C 724 -29 777 -36 789 -8 Q 816 56 819 67 Q 822 78 839 95 L 853 108 Q 862 120 862 123 Q 864 132 851 143 Q 831 165 804 176 Q 776 187 766 186 L 750 181 Q 747 179 728 173 Z" fill="lightgray"></path>
				<path d="M 547 -58 L 793 -44 Q 806 -42 809 -35 Q 812 -29 802 -21 L 789 -8 C 776 5 760 4 730 0 L 545 -22 C 515 -26 517 -60 547 -58 Z" fill="lightgray"></path>
</g>
		<text x="40" y="140" font-size="128" fill="#999999">7</text></g>
		<g id="id1:id2:id2" transform="matrix(1.0,0,0,1.0,2048,0.0)">			<g stroke="lightgray" stroke-width="4" transform="scale(4, 4)"> <rect x="0" y="0" width="256" height="256" fill="white" stroke-width="4"/></g>
			<g transform="scale(0.92, -0.92) translate(60, -920)">					<path d="M 289 440 L 298 458 Q 311 478 332 515 Q 353 552 364 568 Q 374 584 376 591 Q 387 607 393 612 L 402 619 Q 404 625 404 627 Q 404 645 365 672 Q 345 687 336 684 Q 325 685 322 669 L 322 648 L 318 621 Q 308 580 290 548 L 263 498 Q 189 366 127 299 L 103 272 L 64 232 Q 57 226 58 220 Q 58 214 65 220 L 81 226 Q 94 228 159 284 Q 165 289 196 322 Q 226 355 233 366 Q 246 381 250 387 L 264 407 L 289 440 Z" fill="black"></path>
				<path d="M 264 130 L 260 62 L 247 -10 Q 246 -15 249 -30 L 254 -50 Q 269 -96 283 -96 Q 290 -96 300 -76 Q 319 -45 312 2 L 311 50 Q 309 90 311 98 L 313 260 L 315 309 Q 317 354 324 374 Q 330 393 330 395 Q 330 396 323 407 Q 316 417 308 424 Q 300 431 299 433 L 289 440 C 266 459 258 436 264 407 L 269 384 L 270 301 L 264 130 Z" fill="black"></path>
				<path d="M 688 556 L 692 578 Q 697 632 645 655 Q 629 663 607 670 Q 585 677 585 678 Q 566 686 557 677 Q 556 677 557 669 Q 558 661 581 625 Q 603 589 623 568 L 642 548 C 663 526 683 526 688 556 Z" fill="black"></path>
				<path d="M 761 524 L 819 534 L 840 540 Q 865 545 867 552 Q 867 570 841 578 Q 815 585 800 585 Q 791 583 765 574 Q 738 564 688 556 L 642 548 L 464 526 L 432 524 Q 415 525 417 509 Q 421 490 475 490 L 515 492 Q 529 493 713 516 L 761 524 Z" fill="black"></path>
				<path d="M 510 438 L 497 440 Q 484 444 482 438 Q 475 436 482 428 L 489 415 Q 488 414 502 396 L 529 359 Q 562 316 588 335 Q 601 339 605 359 Q 617 412 542 431 Q 538 433 535 433 Q 531 433 510 438 Z" fill="black"></path>
				<path d="M 797 467 L 806 482 Q 806 487 801 492 Q 790 512 761 524 C 734 536 706 545 713 516 L 717 500 Q 723 464 702 385 Q 680 305 676 305 C 661 279 694 287 710 312 Q 718 324 747 375 L 766 414 Q 786 447 788 454 Q 790 460 797 467 Z" fill="black"></path>
				<path d="M 676 305 L 454 272 L 358 264 Q 335 262 344 250 Q 350 240 376 230 L 394 222 Q 403 219 414 222 L 523 243 Q 543 247 592 252 Q 641 257 658 260 L 742 270 L 933 282 L 976 286 Q 983 287 988 292 Q 993 297 982 308 Q 974 320 942 332 Q 909 344 888 340 L 873 336 Q 861 333 828 328 L 710 312 L 676 305 Z" fill="black"></path>
				<path d="M 523 134 L 502 140 L 477 145 Q 467 146 461 142 Q 455 137 460 128 L 473 114 Q 481 100 481 90 L 488 62 L 505 -61 Q 506 -80 513 -90 Q 526 -106 538 -96 Q 550 -87 547 -58 L 545 -22 L 535 97 C 532 127 532 131 523 134 Z" fill="red"></path>
				<path d="M 728 173 L 703 166 Q 688 161 671 160 L 523 134 C 493 129 506 89 535 97 L 553 102 Q 569 106 622 116 L 674 127 L 717 132 Q 740 136 749 122 Q 753 118 748 89 L 730 0 C 724 -29 777 -36 789 -8 Q 816 56 819 67 Q 822 78 839 95 L 853 108 Q 862 120 862 123 Q 864 132 851 143 Q 831 165 804 176 Q 776 187 766 186 L 750 181 Q 747 179 728 173 Z" fill="lightgray"></path>
				<path d="M 547 -58 L 793 -44 Q 806 -42 809 -35 Q 812 -29 802 -21 L 789 -8 C 776 5 760 4 730 0 L 545 -22 C 515 -26 517 -60 547 -58 Z" fill="lightgray"></path>
</g>
		<text x="40" y="140" font-size="128" fill="#999999">8</text></g>
		<g id="id1:id3:id3" transform="matrix(1.0,0,0,1.0,3072,0.0)">			<g stroke="lightgray" stroke-width="4" transform="scale(4, 4)"> <rect x="0" y="0" width="256" height="256" fill="white" stroke-width="4"/></g>
			<g transform="scale(0.92, -0.92) translate(60, -920)">					<path d="M 289 440 L 298 458 Q 311 478 332 515 Q 353 552 364 568 Q 374 584 376 591 Q 387 607 393 612 L 402 619 Q 404 625 404 627 Q 404 645 365 672 Q 345 687 336 684 Q 325 685 322 669 L 322 648 L 318 621 Q 308 580 290 548 L 263 498 Q 189 366 127 299 L 103 272 L 64 232 Q 57 226 58 220 Q 58 214 65 220 L 81 226 Q 94 228 159 284 Q 165 289 196 322 Q 226 355 233 366 Q 246 381 250 387 L 264 407 L 289 440 Z" fill="black"></path>
				<path d="M 264 130 L 260 62 L 247 -10 Q 246 -15 249 -30 L 254 -50 Q 269 -96 283 -96 Q 290 -96 300 -76 Q 319 -45 312 2 L 311 50 Q 309 90 311 98 L 313 260 L 315 309 Q 317 354 324 374 Q 330 393 330 395 Q 330 396 323 407 Q 316 417 308 424 Q 300 431 299 433 L 289 440 C 266 459 258 436 264 407 L 269 384 L 270 301 L 264 130 Z" fill="black"></path>
				<path d="M 688 556 L 692 578 Q 697 632 645 655 Q 629 663 607 670 Q 585 677 585 678 Q 566 686 557 677 Q 556 677 557 669 Q 558 661 581 625 Q 603 589 623 568 L 642 548 C 663 526 683 526 688 556 Z" fill="black"></path>
				<path d="M 761 524 L 819 534 L 840 540 Q 865 545 867 552 Q 867 570 841 578 Q 815 585 800 585 Q 791 583 765 574 Q 738 564 688 556 L 642 548 L 464 526 L 432 524 Q 415 525 417 509 Q 421 490 475 490 L 515 492 Q 529 493 713 516 L 761 524 Z" fill="black"></path>
				<path d="M 510 438 L 497 440 Q 484 444 482 438 Q 475 436 482 428 L 489 415 Q 488 414 502 396 L 529 359 Q 562 316 588 335 Q 601 339 605 359 Q 617 412 542 431 Q 538 433 535 433 Q 531 433 510 438 Z" fill="black"></path>
				<path d="M 797 467 L 806 482 Q 806 487 801 492 Q 790 512 761 524 C 734 536 706 545 713 516 L 717 500 Q 723 464 702 385 Q 680 305 676 305 C 661 279 694 287 710 312 Q 718 324 747 375 L 766 414 Q 786 447 788 454 Q 790 460 797 467 Z" fill="black"></path>
				<path d="M 676 305 L 454 272 L 358 264 Q 335 262 344 250 Q 350 240 376 230 L 394 222 Q 403 219 414 222 L 523 243 Q 543 247 592 252 Q 641 257 658 260 L 742 270 L 933 282 L 976 286 Q 983 287 988 292 Q 993 297 982 308 Q 974 320 942 332 Q 909 344 888 340 L 873 336 Q 861 333 828 328 L 710 312 L 676 305 Z" fill="black"></path>
				<path d="M 523 134 L 502 140 L 477 145 Q 467 146 461 142 Q 455 137 460 128 L 473 114 Q 481 100 481 90 L 488 62 L 505 -61 Q 506 -80 513 -90 Q 526 -106 538 -96 Q 550 -87 547 -58 L 545 -22 L 535 97 C 532 127 532 131 523 134 Z" fill="black"></path>
				<path d="M 728 173 L 703 166 Q 688 161 671 160 L 523 134 C 493 129 506 89 535 97 L 553 102 Q 569 106 622 116 L 674 127 L 717 132 Q 740 136 749 122 Q 753 118 748 89 L 730 0 C 724 -29 777 -36 789 -8 Q 816 56 819 67 Q 822 78 839 95 L 853 108 Q 862 120 862 123 Q 864 132 851 143 Q 831 165 804 176 Q 776 187 766 186 L 750 181 Q 747 179 728 173 Z" fill="red"></path>
				<path d="M 547 -58 L 793 -44 Q 806 -42 809 -35 Q 812 -29 802 -21 L 789 -8 C 776 5 760 4 730 0 L 545 -22 C 515 -26 517 -60 547 -58 Z" fill="lightgray"></path>
</g>
		<text x="40" y="140" font-size="128" fill="#999999">9</text></g>
		<g id="id1:id4:id4" transform="matrix(1.0,0,0,1.0,4096,0.0)">			<g stroke="lightgray" stroke-width="4" transform="scale(4, 4)"> <rect x="0" y="0" width="256" height="256" fill="white" stroke-width="4"/></g>
			<g transform="scale(0.92, -0.92) translate(60, -920)">					<path d="M 289 440 L 298 458 Q 311 478 332 515 Q 353 552 364 568 Q 374 584 376 591 Q 387 607 393 612 L 402 619 Q 404 625 404 627 Q 404 645 365 672 Q 345 687 336 684 Q 325 685 322 669 L 322 648 L 318 621 Q 308 580 290 548 L 263 498 Q 189 366 127 299 L 103 272 L 64 232 Q 57 226 58 220 Q 58 214 65 220 L 81 226 Q 94 228 159 284 Q 165 289 196 322 Q 226 355 233 366 Q 246 381 250 387 L 264 407 L 289 440 Z" fill="black"></path>
				<path d="M 264 130 L 260 62 L 247 -10 Q 246 -15 249 -30 L 254 -50 Q 269 -96 283 -96 Q 290 -96 300 -76 Q 319 -45 312 2 L 311 50 Q 309 90 311 98 L 313 260 L 315 309 Q 317 354 324 374 Q 330 393 330 395 Q 330 396 323 407 Q 316 417 308 424 Q 300 431 299 433 L 289 440 C 266 459 258 436 264 407 L 269 384 L 270 301 L 264 130 Z" fill="black"></path>
				<path d="M 688 556 L 692 578 Q 697 632 645 655 Q 629 663 607 670 Q 585 677 585 678 Q 566 686 557 677 Q 556 677 557 669 Q 558 661 581 625 Q 603 589 623 568 L 642 548 C 663 526 683 526 688 556 Z" fill="black"></path>
				<path d="M 761 524 L 819 534 L 840 540 Q 865 545 867 552 Q 867 570 841 578 Q 815 585 800 585 Q 791 583 765 574 Q 738 564 688 556 L 642 548 L 464 526 L 432 524 Q 415 525 417 509 Q 421 490 475 490 L 515 492 Q 529 493 713 516 L 761 524 Z" fill="black"></path>
				<path d="M 510 438 L 497 440 Q 484 444 482 438 Q 475 436 482 428 L 489 415 Q 488 414 502 396 L 529 359 Q 562 316 588 335 Q 601 339 605 359 Q 617 412 542 431 Q 538 433 535 433 Q 531 433 510 438 Z" fill="black"></path>
				<path d="M 797 467 L 806 482 Q 806 487 801 492 Q 790 512 761 524 C 734 536 706 545 713 516 L 717 500 Q 723 464 702 385 Q 680 305 676 305 C 661 279 694 287 710 312 Q 718 324 747 375 L 766 414 Q 786 447 788 454 Q 790 460 797 467 Z" fill="black"></path>
				<path d="M 676 305 L 454 272 L 358 264 Q 335 262 344 250 Q 350 240 376 230 L 394 222 Q 403 219 414 222 L 523 243 Q 543 247 592 252 Q 641 257 658 260 L 742 270 L 933 282 L 976 286 Q 983 287 988 292 Q 993 297 982 308 Q 974 320 942 332 Q 909 344 888 340 L 873 336 Q 861 333 828 328 L 710 312 L 676 305 Z" fill="black"></path>
				<path d="M 523 134 L 502 140 L 477 145 Q 467 146 461 142 Q 455 137 460 128 L 473 114 Q 481 100 481 90 L 488 62 L 505 -61 Q 506 -80 513 -90 Q 526 -106 538 -96 Q 550 -87 547 -58 L 545 -22 L 535 97 C 532 127 532 131 523 134 Z" fill="black"></path>
				<path d="M 728 173 L 703 166 Q 688 161 671 160 L 523 134 C 493 129 506 89 535 97 L 553 102 Q 569 106 622 116 L 674 127 L 717 132 Q 740 136 749 122 Q 753 118 748 89 L 730 0 C 724 -29 777 -36 789 -8 Q 816 56 819 67 Q 822 78 839 95 L 853 108 Q 862 120 862 123 Q 864 132 851 143 Q 831 165 804 176 Q 776 187 766 186 L 750 181 Q 747 179 728 173 Z" fill="black"></path>
				<path d="M 547 -58 L 793 -44 Q 806 -42 809 -35 Q 812 -29 802 -21 L 789 -8 C 776 5 760 4 730 0 L 545 -22 C 515 -26 517 -60 547 -58 Z" fill="red"></path>
</g>
		<text x="40" y="140" font-size="128" fill="#999999">10</text></g>
</g>
</svg>
