<?xml version="1.0" standalone="no"?>
<!DOCTYPE svg PUBLIC "-//W3C//DTD SVG 1.1//EN"
 "http://www.w3.org/Graphics/SVG/1.1/DTD/svg11.dtd">
<!-- generate by Japanese dictionary app com.asnsami.kanjidictionary -->

<svg xmlns="http://www.w3.org/2000/svg" xmlns:sodipodi="http://sodipodi.sourceforge.net/DTD/sodipodi-0.dtd" version="1.1" width="640" height="384" viewBox="0 0 5120 3072">
	<g id="id0:id0" transform="translate(0.0,0)">
		<g id="id0:id0:id0" transform="matrix(1.0,0,0,1.0,0,0.0)">			<g stroke="lightgray" stroke-width="4" transform="scale(4, 4)"> <rect x="0" y="0" width="256" height="256" fill="white" stroke-width="4"/></g>
			<g transform="scale(0.92, -0.92) translate(60, -920)">					<path d="M 262 448 L 287 488 L 333 568 Q 356 607 369 625 Q 382 642 382 649 Q 382 655 376 664 Q 362 679 359 681 L 324 701 Q 309 707 307 701 Q 304 689 302 666 Q 300 642 286 606 Q 273 570 258 545 Q 198 423 171 389 Q 145 355 85 290 L 70 273 Q 65 267 67 263 Q 69 260 81 266 L 99 276 Q 132 296 161 325 Q 191 354 203 368 Q 216 382 236 410 L 262 448 Z" fill="red"></path>
				<path d="M 240 374 L 242 336 L 238 188 Q 238 94 216 -10 Q 204 -49 205 -62 Q 207 -75 216 -100 Q 228 -126 236 -135 Q 243 -146 248 -144 Q 251 -145 257 -139 Q 282 -106 284 -29 L 293 314 Q 294 333 299 357 Q 304 380 301 387 Q 299 394 294 404 Q 286 414 280 426 Q 263 448 262 448 C 243 471 233 440 236 410 L 240 374 Z" fill="lightgray"></path>
				<path d="M 646 606 L 760 624 Q 809 629 814 638 Q 829 655 781 667 Q 761 673 740 666 L 708 657 L 647 646 L 582 635 L 486 622 L 422 616 Q 418 613 415 609 Q 414 604 429 598 Q 445 591 447 591 L 464 589 Q 467 590 487 590 L 582 597 L 646 606 Z" fill="lightgray"></path>
				<path d="M 640 512 L 744 529 Q 769 532 773 536 Q 786 542 782 546 Q 768 558 739 564 Q 726 564 723 565 Q 720 566 704 564 L 678 557 L 641 550 L 580 538 L 510 529 Q 480 525 475 525 Q 462 526 462 516 Q 460 511 468 505 Q 477 499 489 495 Q 502 491 533 496 L 580 502 L 640 512 Z" fill="lightgray"></path>
				<path d="M 633 436 L 640 512 L 641 550 L 646 606 L 647 646 L 650 677 Q 653 700 656 707 Q 660 714 660 720 Q 660 725 655 732 Q 651 738 618 749 Q 585 760 574 757 Q 563 754 566 743 L 570 731 Q 574 727 577 708 Q 580 689 580 679 L 582 635 L 582 597 L 580 538 L 580 502 L 580 430 C 580 400 630 406 633 436 Z" fill="lightgray"></path>
				<path d="M 406 410 L 387 408 Q 383 407 378 407 L 340 405 Q 318 404 330 389 Q 335 382 346 376 L 366 367 Q 375 364 381 364 Q 387 364 408 370 Q 430 376 477 383 L 614 399 Q 665 403 725 409 Q 786 415 860 418 L 938 422 Q 952 422 953 427 Q 955 431 950 441 Q 948 445 932 454 Q 908 464 895 468 Q 882 471 854 464 L 765 451 L 633 436 L 580 430 L 508 420 L 431 412 Q 424 410 406 410 Z" fill="lightgray"></path>
				<path d="M 446 64 L 448 46 Q 457 25 462 17 L 468 6 Q 480 -6 488 6 Q 491 9 496 26 L 500 58 L 504 81 Q 504 107 505 123 L 508 142 L 512 214 L 512 236 L 514 304 C 515 330 515 330 509 332 L 486 341 Q 479 345 468 347 Q 458 349 452 343 Q 451 338 464 306 Q 470 272 470 249 L 466 162 Q 466 136 456 103 Q 446 69 446 64 Z" fill="lightgray"></path>
				<path d="M 728 46 L 740 14 Q 746 -2 763 -2 Q 768 -2 772 2 Q 780 7 787 29 Q 795 50 796 70 L 794 124 L 793 232 Q 791 260 795 273 L 806 306 L 813 322 Q 815 333 791 347 Q 767 361 749 366 Q 731 370 727 370 L 715 367 Q 707 364 641 352 L 509 332 C 479 328 484 300 514 304 L 673 328 Q 715 335 724 323 L 731 312 Q 732 311 732 296 L 732 254 L 732 241 L 731 158 L 732 151 L 730 75 L 728 46 Z" fill="lightgray"></path>
				<path d="M 512 214 L 544 213 Q 555 212 593 218 L 703 235 L 732 241 C 753 245 753 245 732 254 L 712 262 Q 702 265 690 265 Q 665 262 659 260 L 555 241 L 512 236 C 482 233 482 215 512 214 Z" fill="lightgray"></path>
				<path d="M 505 123 L 524 120 Q 527 119 554 122 L 603 127 L 662 137 Q 707 141 732 151 C 740 154 740 154 731 158 L 710 168 L 690 172 L 671 170 L 508 142 C 478 137 475 128 505 123 Z" fill="lightgray"></path>
				<path d="M 496 26 L 516 24 L 542 28 L 596 31 Q 607 31 652 36 L 728 46 C 758 50 760 73 730 75 L 690 78 L 549 60 L 500 58 C 470 57 466 29 496 26 Z" fill="lightgray"></path>
				<path d="M 516 24 L 512 0 Q 512 -7 466 -58 L 427 -97 L 370 -144 Q 355 -153 360 -158 Q 362 -163 374 -158 L 394 -149 Q 404 -147 428 -133 L 469 -108 Q 493 -94 514 -76 L 552 -46 Q 561 -38 578 -30 Q 595 -22 596 -19 L 599 -12 Q 599 -6 593 2 Q 588 10 579 13 Q 571 15 563 19 L 542 28 C 518 38 518 38 516 24 Z" fill="lightgray"></path>
				<path d="M 660 -8 L 703 -51 L 755 -117 Q 792 -166 811 -162 Q 836 -159 834 -119 Q 834 -94 817 -73 Q 800 -53 782 -44 Q 764 -36 734 -18 Q 707 -6 696 -2 L 669 6 Q 659 10 653 5 Q 648 -1 660 -8 Z" fill="lightgray"></path>
</g>
		<text x="40" y="140" font-size="128" fill="#999999">1</text></g>
		<g id="id0:id1:id1" transform="matrix(1.0,0,0,1.0,1024,0.0)">			<g stroke="lightgray" stroke-width="4" transform="scale(4, 4)"> <rect x="0" y="0" width="256" height="256" fill="white" stroke-width="4"/></g>
			<g transform="scale(0.92, -0.92) translate(60, -920)">					<path d="M 262 448 L 287 488 L 333 568 Q 356 607 369 625 Q 382 642 382 649 Q 382 655 376 664 Q 362 679 359 681 L 324 701 Q 309 707 307 701 Q 304 689 302 666 Q 300 642 286 606 Q 273 570 258 545 Q 198 423 171 389 Q 145 355 85 290 L 70 273 Q 65 267 67 263 Q 69 260 81 266 L 99 276 Q 132 296 161 325 Q 191 354 203 368 Q 216 382 236 410 L 262 448 Z" fill="black"></path>
				<path d="M 240 374 L 242 336 L 238 188 Q 238 94 216 -10 Q 204 -49 205 -62 Q 207 -75 216 -100 Q 228 -126 236 -135 Q 243 -146 248 -144 Q 251 -145 257 -139 Q 282 -106 284 -29 L 293 314 Q 294 333 299 357 Q 304 380 301 387 Q 299 394 294 404 Q 286 414 280 426 Q 263 448 262 448 C 243 471 233 440 236 410 L 240 374 Z" fill="red"></path>
				<path d="M 646 606 L 760 624 Q 809 629 814 638 Q 829 655 781 667 Q 761 673 740 666 L 708 657 L 647 646 L 582 635 L 486 622 L 422 616 Q 418 613 415 609 Q 414 604 429 598 Q 445 591 447 591 L 464 589 Q 467 590 487 590 L 582 597 L 646 606 Z" fill="lightgray"></path>
				<path d="M 640 512 L 744 529 Q 769 532 773 536 Q 786 542 782 546 Q 768 558 739 564 Q 726 564 723 565 Q 720 566 704 564 L 678 557 L 641 550 L 580 538 L 510 529 Q 480 525 475 525 Q 462 526 462 516 Q 460 511 468 505 Q 477 499 489 495 Q 502 491 533 496 L 580 502 L 640 512 Z" fill="lightgray"></path>
				<path d="M 633 436 L 640 512 L 641 550 L 646 606 L 647 646 L 650 677 Q 653 700 656 707 Q 660 714 660 720 Q 660 725 655 732 Q 651 738 618 749 Q 585 760 574 757 Q 563 754 566 743 L 570 731 Q 574 727 577 708 Q 580 689 580 679 L 582 635 L 582 597 L 580 538 L 580 502 L 580 430 C 580 400 630 406 633 436 Z" fill="lightgray"></path>
				<path d="M 406 410 L 387 408 Q 383 407 378 407 L 340 405 Q 318 404 330 389 Q 335 382 346 376 L 366 367 Q 375 364 381 364 Q 387 364 408 370 Q 430 376 477 383 L 614 399 Q 665 403 725 409 Q 786 415 860 418 L 938 422 Q 952 422 953 427 Q 955 431 950 441 Q 948 445 932 454 Q 908 464 895 468 Q 882 471 854 464 L 765 451 L 633 436 L 580 430 L 508 420 L 431 412 Q 424 410 406 410 Z" fill="lightgray"></path>
				<path d="M 446 64 L 448 46 Q 457 25 462 17 L 468 6 Q 480 -6 488 6 Q 491 9 496 26 L 500 58 L 504 81 Q 504 107 505 123 L 508 142 L 512 214 L 512 236 L 514 304 C 515 330 515 330 509 332 L 486 341 Q 479 345 468 347 Q 458 349 452 343 Q 451 338 464 306 Q 470 272 470 249 L 466 162 Q 466 136 456 103 Q 446 69 446 64 Z" fill="lightgray"></path>
				<path d="M 728 46 L 740 14 Q 746 -2 763 -2 Q 768 -2 772 2 Q 780 7 787 29 Q 795 50 796 70 L 794 124 L 793 232 Q 791 260 795 273 L 806 306 L 813 322 Q 815 333 791 347 Q 767 361 749 366 Q 731 370 727 370 L 715 367 Q 707 364 641 352 L 509 332 C 479 328 484 300 514 304 L 673 328 Q 715 335 724 323 L 731 312 Q 732 311 732 296 L 732 254 L 732 241 L 731 158 L 732 151 L 730 75 L 728 46 Z" fill="lightgray"></path>
				<path d="M 512 214 L 544 213 Q 555 212 593 218 L 703 235 L 732 241 C 753 245 753 245 732 254 L 712 262 Q 702 265 690 265 Q 665 262 659 260 L 555 241 L 512 236 C 482 233 482 215 512 214 Z" fill="lightgray"></path>
				<path d="M 505 123 L 524 120 Q 527 119 554 122 L 603 127 L 662 137 Q 707 141 732 151 C 740 154 740 154 731 158 L 710 168 L 690 172 L 671 170 L 508 142 C 478 137 475 128 505 123 Z" fill="lightgray"></path>
				<path d="M 496 26 L 516 24 L 542 28 L 596 31 Q 607 31 652 36 L 728 46 C 758 50 760 73 730 75 L 690 78 L 549 60 L 500 58 C 470 57 466 29 496 26 Z" fill="lightgray"></path>
				<path d="M 516 24 L 512 0 Q 512 -7 466 -58 L 427 -97 L 370 -144 Q 355 -153 360 -158 Q 362 -163 374 -158 L 394 -149 Q 404 -147 428 -133 L 469 -108 Q 493 -94 514 -76 L 552 -46 Q 561 -38 578 -30 Q 595 -22 596 -19 L 599 -12 Q 599 -6 593 2 Q 588 10 579 13 Q 571 15 563 19 L 542 28 C 518 38 518 38 516 24 Z" fill="lightgray"></path>
				<path d="M 660 -8 L 703 -51 L 755 -117 Q 792 -166 811 -162 Q 836 -159 834 -119 Q 834 -94 817 -73 Q 800 -53 782 -44 Q 764 -36 734 -18 Q 707 -6 696 -2 L 669 6 Q 659 10 653 5 Q 648 -1 660 -8 Z" fill="lightgray"></path>
</g>
		<text x="40" y="140" font-size="128" fill="#999999">2</text></g>
		<g id="id0:id2:id2" transform="matrix(1.0,0,0,1.0,2048,0.0)">			<g stroke="lightgray" stroke-width="4" transform="scale(4, 4)"> <rect x="0" y="0" width="256" height="256" fill="white" stroke-width="4"/></g>
			<g transform="scale(0.92, -0.92) translate(60, -920)">					<path d="M 262 448 L 287 488 L 333 568 Q 356 607 369 625 Q 382 642 382 649 Q 382 655 376 664 Q 362 679 359 681 L 324 701 Q 309 707 307 701 Q 304 689 302 666 Q 300 642 286 606 Q 273 570 258 545 Q 198 423 171 389 Q 145 355 85 290 L 70 273 Q 65 267 67 263 Q 69 260 81 266 L 99 276 Q 132 296 161 325 Q 191 354 203 368 Q 216 382 236 410 L 262 448 Z" fill="black"></path>
				<path d="M 240 374 L 242 336 L 238 188 Q 238 94 216 -10 Q 204 -49 205 -62 Q 207 -75 216 -100 Q 228 -126 236 -135 Q 243 -146 248 -144 Q 251 -145 257 -139 Q 282 -106 284 -29 L 293 314 Q 294 333 299 357 Q 304 380 301 387 Q 299 394 294 404 Q 286 414 280 426 Q 263 448 262 448 C 243 471 233 440 236 410 L 240 374 Z" fill="black"></path>
				<path d="M 646 606 L 760 624 Q 809 629 814 638 Q 829 655 781 667 Q 761 673 740 666 L 708 657 L 647 646 L 582 635 L 486 622 L 422 616 Q 418 613 415 609 Q 414 604 429 598 Q 445 591 447 591 L 464 589 Q 467 590 487 590 L 582 597 L 646 606 Z" fill="red"></path>
				<path d="M 640 512 L 744 529 Q 769 532 773 536 Q 786 542 782 546 Q 768 558 739 564 Q 726 564 723 565 Q 720 566 704 564 L 678 557 L 641 550 L 580 538 L 510 529 Q 480 525 475 525 Q 462 526 462 516 Q 460 511 468 505 Q 477 499 489 495 Q 502 491 533 496 L 580 502 L 640 512 Z" fill="lightgray"></path>
				<path d="M 633 436 L 640 512 L 641 550 L 646 606 L 647 646 L 650 677 Q 653 700 656 707 Q 660 714 660 720 Q 660 725 655 732 Q 651 738 618 749 Q 585 760 574 757 Q 563 754 566 743 L 570 731 Q 574 727 577 708 Q 580 689 580 679 L 582 635 L 582 597 L 580 538 L 580 502 L 580 430 C 580 400 630 406 633 436 Z" fill="lightgray"></path>
				<path d="M 406 410 L 387 408 Q 383 407 378 407 L 340 405 Q 318 404 330 389 Q 335 382 346 376 L 366 367 Q 375 364 381 364 Q 387 364 408 370 Q 430 376 477 383 L 614 399 Q 665 403 725 409 Q 786 415 860 418 L 938 422 Q 952 422 953 427 Q 955 431 950 441 Q 948 445 932 454 Q 908 464 895 468 Q 882 471 854 464 L 765 451 L 633 436 L 580 430 L 508 420 L 431 412 Q 424 410 406 410 Z" fill="lightgray"></path>
				<path d="M 446 64 L 448 46 Q 457 25 462 17 L 468 6 Q 480 -6 488 6 Q 491 9 496 26 L 500 58 L 504 81 Q 504 107 505 123 L 508 142 L 512 214 L 512 236 L 514 304 C 515 330 515 330 509 332 L 486 341 Q 479 345 468 347 Q 458 349 452 343 Q 451 338 464 306 Q 470 272 470 249 L 466 162 Q 466 136 456 103 Q 446 69 446 64 Z" fill="lightgray"></path>
				<path d="M 728 46 L 740 14 Q 746 -2 763 -2 Q 768 -2 772 2 Q 780 7 787 29 Q 795 50 796 70 L 794 124 L 793 232 Q 791 260 795 273 L 806 306 L 813 322 Q 815 333 791 347 Q 767 361 749 366 Q 731 370 727 370 L 715 367 Q 707 364 641 352 L 509 332 C 479 328 484 300 514 304 L 673 328 Q 715 335 724 323 L 731 312 Q 732 311 732 296 L 732 254 L 732 241 L 731 158 L 732 151 L 730 75 L 728 46 Z" fill="lightgray"></path>
				<path d="M 512 214 L 544 213 Q 555 212 593 218 L 703 235 L 732 241 C 753 245 753 245 732 254 L 712 262 Q 702 265 690 265 Q 665 262 659 260 L 555 241 L 512 236 C 482 233 482 215 512 214 Z" fill="lightgray"></path>
				<path d="M 505 123 L 524 120 Q 527 119 554 122 L 603 127 L 662 137 Q 707 141 732 151 C 740 154 740 154 731 158 L 710 168 L 690 172 L 671 170 L 508 142 C 478 137 475 128 505 123 Z" fill="lightgray"></path>
				<path d="M 496 26 L 516 24 L 542 28 L 596 31 Q 607 31 652 36 L 728 46 C 758 50 760 73 730 75 L 690 78 L 549 60 L 500 58 C 470 57 466 29 496 26 Z" fill="lightgray"></path>
				<path d="M 516 24 L 512 0 Q 512 -7 466 -58 L 427 -97 L 370 -144 Q 355 -153 360 -158 Q 362 -163 374 -158 L 394 -149 Q 404 -147 428 -133 L 469 -108 Q 493 -94 514 -76 L 552 -46 Q 561 -38 578 -30 Q 595 -22 596 -19 L 599 -12 Q 599 -6 593 2 Q 588 10 579 13 Q 571 15 563 19 L 542 28 C 518 38 518 38 516 24 Z" fill="lightgray"></path>
				<path d="M 660 -8 L 703 -51 L 755 -117 Q 792 -166 811 -162 Q 836 -159 834 -119 Q 834 -94 817 -73 Q 800 -53 782 -44 Q 764 -36 734 -18 Q 707 -6 696 -2 L 669 6 Q 659 10 653 5 Q 648 -1 660 -8 Z" fill="lightgray"></path>
</g>
		<text x="40" y="140" font-size="128" fill="#999999">3</text></g>
		<g id="id0:id3:id3" transform="matrix(1.0,0,0,1.0,3072,0.0)">			<g stroke="lightgray" stroke-width="4" transform="scale(4, 4)"> <rect x="0" y="0" width="256" height="256" fill="white" stroke-width="4"/></g>
			<g transform="scale(0.92, -0.92) translate(60, -920)">					<path d="M 262 448 L 287 488 L 333 568 Q 356 607 369 625 Q 382 642 382 649 Q 382 655 376 664 Q 362 679 359 681 L 324 701 Q 309 707 307 701 Q 304 689 302 666 Q 300 642 286 606 Q 273 570 258 545 Q 198 423 171 389 Q 145 355 85 290 L 70 273 Q 65 267 67 263 Q 69 260 81 266 L 99 276 Q 132 296 161 325 Q 191 354 203 368 Q 216 382 236 410 L 262 448 Z" fill="black"></path>
				<path d="M 240 374 L 242 336 L 238 188 Q 238 94 216 -10 Q 204 -49 205 -62 Q 207 -75 216 -100 Q 228 -126 236 -135 Q 243 -146 248 -144 Q 251 -145 257 -139 Q 282 -106 284 -29 L 293 314 Q 294 333 299 357 Q 304 380 301 387 Q 299 394 294 404 Q 286 414 280 426 Q 263 448 262 448 C 243 471 233 440 236 410 L 240 374 Z" fill="black"></path>
				<path d="M 646 606 L 760 624 Q 809 629 814 638 Q 829 655 781 667 Q 761 673 740 666 L 708 657 L 647 646 L 582 635 L 486 622 L 422 616 Q 418 613 415 609 Q 414 604 429 598 Q 445 591 447 591 L 464 589 Q 467 590 487 590 L 582 597 L 646 606 Z" fill="black"></path>
				<path d="M 640 512 L 744 529 Q 769 532 773 536 Q 786 542 782 546 Q 768 558 739 564 Q 726 564 723 565 Q 720 566 704 564 L 678 557 L 641 550 L 580 538 L 510 529 Q 480 525 475 525 Q 462 526 462 516 Q 460 511 468 505 Q 477 499 489 495 Q 502 491 533 496 L 580 502 L 640 512 Z" fill="red"></path>
				<path d="M 633 436 L 640 512 L 641 550 L 646 606 L 647 646 L 650 677 Q 653 700 656 707 Q 660 714 660 720 Q 660 725 655 732 Q 651 738 618 749 Q 585 760 574 757 Q 563 754 566 743 L 570 731 Q 574 727 577 708 Q 580 689 580 679 L 582 635 L 582 597 L 580 538 L 580 502 L 580 430 C 580 400 630 406 633 436 Z" fill="lightgray"></path>
				<path d="M 406 410 L 387 408 Q 383 407 378 407 L 340 405 Q 318 404 330 389 Q 335 382 346 376 L 366 367 Q 375 364 381 364 Q 387 364 408 370 Q 430 376 477 383 L 614 399 Q 665 403 725 409 Q 786 415 860 418 L 938 422 Q 952 422 953 427 Q 955 431 950 441 Q 948 445 932 454 Q 908 464 895 468 Q 882 471 854 464 L 765 451 L 633 436 L 580 430 L 508 420 L 431 412 Q 424 410 406 410 Z" fill="lightgray"></path>
				<path d="M 446 64 L 448 46 Q 457 25 462 17 L 468 6 Q 480 -6 488 6 Q 491 9 496 26 L 500 58 L 504 81 Q 504 107 505 123 L 508 142 L 512 214 L 512 236 L 514 304 C 515 330 515 330 509 332 L 486 341 Q 479 345 468 347 Q 458 349 452 343 Q 451 338 464 306 Q 470 272 470 249 L 466 162 Q 466 136 456 103 Q 446 69 446 64 Z" fill="lightgray"></path>
				<path d="M 728 46 L 740 14 Q 746 -2 763 -2 Q 768 -2 772 2 Q 780 7 787 29 Q 795 50 796 70 L 794 124 L 793 232 Q 791 260 795 273 L 806 306 L 813 322 Q 815 333 791 347 Q 767 361 749 366 Q 731 370 727 370 L 715 367 Q 707 364 641 352 L 509 332 C 479 328 484 300 514 304 L 673 328 Q 715 335 724 323 L 731 312 Q 732 311 732 296 L 732 254 L 732 241 L 731 158 L 732 151 L 730 75 L 728 46 Z" fill="lightgray"></path>
				<path d="M 512 214 L 544 213 Q 555 212 593 218 L 703 235 L 732 241 C 753 245 753 245 732 254 L 712 262 Q 702 265 690 265 Q 665 262 659 260 L 555 241 L 512 236 C 482 233 482 215 512 214 Z" fill="lightgray"></path>
				<path d="M 505 123 L 524 120 Q 527 119 554 122 L 603 127 L 662 137 Q 707 141 732 151 C 740 154 740 154 731 158 L 710 168 L 690 172 L 671 170 L 508 142 C 478 137 475 128 505 123 Z" fill="lightgray"></path>
				<path d="M 496 26 L 516 24 L 542 28 L 596 31 Q 607 31 652 36 L 728 46 C 758 50 760 73 730 75 L 690 78 L 549 60 L 500 58 C 470 57 466 29 496 26 Z" fill="lightgray"></path>
				<path d="M 516 24 L 512 0 Q 512 -7 466 -58 L 427 -97 L 370 -144 Q 355 -153 360 -158 Q 362 -163 374 -158 L 394 -149 Q 404 -147 428 -133 L 469 -108 Q 493 -94 514 -76 L 552 -46 Q 561 -38 578 -30 Q 595 -22 596 -19 L 599 -12 Q 599 -6 593 2 Q 588 10 579 13 Q 571 15 563 19 L 542 28 C 518 38 518 38 516 24 Z" fill="lightgray"></path>
				<path d="M 660 -8 L 703 -51 L 755 -117 Q 792 -166 811 -162 Q 836 -159 834 -119 Q 834 -94 817 -73 Q 800 -53 782 -44 Q 764 -36 734 -18 Q 707 -6 696 -2 L 669 6 Q 659 10 653 5 Q 648 -1 660 -8 Z" fill="lightgray"></path>
</g>
		<text x="40" y="140" font-size="128" fill="#999999">4</text></g>
		<g id="id0:id4:id4" transform="matrix(1.0,0,0,1.0,4096,0.0)">			<g stroke="lightgray" stroke-width="4" transform="scale(4, 4)"> <rect x="0" y="0" width="256" height="256" fill="white" stroke-width="4"/></g>
			<g transform="scale(0.92, -0.92) translate(60, -920)">					<path d="M 262 448 L 287 488 L 333 568 Q 356 607 369 625 Q 382 642 382 649 Q 382 655 376 664 Q 362 679 359 681 L 324 701 Q 309 707 307 701 Q 304 689 302 666 Q 300 642 286 606 Q 273 570 258 545 Q 198 423 171 389 Q 145 355 85 290 L 70 273 Q 65 267 67 263 Q 69 260 81 266 L 99 276 Q 132 296 161 325 Q 191 354 203 368 Q 216 382 236 410 L 262 448 Z" fill="black"></path>
				<path d="M 240 374 L 242 336 L 238 188 Q 238 94 216 -10 Q 204 -49 205 -62 Q 207 -75 216 -100 Q 228 -126 236 -135 Q 243 -146 248 -144 Q 251 -145 257 -139 Q 282 -106 284 -29 L 293 314 Q 294 333 299 357 Q 304 380 301 387 Q 299 394 294 404 Q 286 414 280 426 Q 263 448 262 448 C 243 471 233 440 236 410 L 240 374 Z" fill="black"></path>
				<path d="M 646 606 L 760 624 Q 809 629 814 638 Q 829 655 781 667 Q 761 673 740 666 L 708 657 L 647 646 L 582 635 L 486 622 L 422 616 Q 418 613 415 609 Q 414 604 429 598 Q 445 591 447 591 L 464 589 Q 467 590 487 590 L 582 597 L 646 606 Z" fill="black"></path>
				<path d="M 640 512 L 744 529 Q 769 532 773 536 Q 786 542 782 546 Q 768 558 739 564 Q 726 564 723 565 Q 720 566 704 564 L 678 557 L 641 550 L 580 538 L 510 529 Q 480 525 475 525 Q 462 526 462 516 Q 460 511 468 505 Q 477 499 489 495 Q 502 491 533 496 L 580 502 L 640 512 Z" fill="black"></path>
				<path d="M 633 436 L 640 512 L 641 550 L 646 606 L 647 646 L 650 677 Q 653 700 656 707 Q 660 714 660 720 Q 660 725 655 732 Q 651 738 618 749 Q 585 760 574 757 Q 563 754 566 743 L 570 731 Q 574 727 577 708 Q 580 689 580 679 L 582 635 L 582 597 L 580 538 L 580 502 L 580 430 C 580 400 630 406 633 436 Z" fill="red"></path>
				<path d="M 406 410 L 387 408 Q 383 407 378 407 L 340 405 Q 318 404 330 389 Q 335 382 346 376 L 366 367 Q 375 364 381 364 Q 387 364 408 370 Q 430 376 477 383 L 614 399 Q 665 403 725 409 Q 786 415 860 418 L 938 422 Q 952 422 953 427 Q 955 431 950 441 Q 948 445 932 454 Q 908 464 895 468 Q 882 471 854 464 L 765 451 L 633 436 L 580 430 L 508 420 L 431 412 Q 424 410 406 410 Z" fill="lightgray"></path>
				<path d="M 446 64 L 448 46 Q 457 25 462 17 L 468 6 Q 480 -6 488 6 Q 491 9 496 26 L 500 58 L 504 81 Q 504 107 505 123 L 508 142 L 512 214 L 512 236 L 514 304 C 515 330 515 330 509 332 L 486 341 Q 479 345 468 347 Q 458 349 452 343 Q 451 338 464 306 Q 470 272 470 249 L 466 162 Q 466 136 456 103 Q 446 69 446 64 Z" fill="lightgray"></path>
				<path d="M 728 46 L 740 14 Q 746 -2 763 -2 Q 768 -2 772 2 Q 780 7 787 29 Q 795 50 796 70 L 794 124 L 793 232 Q 791 260 795 273 L 806 306 L 813 322 Q 815 333 791 347 Q 767 361 749 366 Q 731 370 727 370 L 715 367 Q 707 364 641 352 L 509 332 C 479 328 484 300 514 304 L 673 328 Q 715 335 724 323 L 731 312 Q 732 311 732 296 L 732 254 L 732 241 L 731 158 L 732 151 L 730 75 L 728 46 Z" fill="lightgray"></path>
				<path d="M 512 214 L 544 213 Q 555 212 593 218 L 703 235 L 732 241 C 753 245 753 245 732 254 L 712 262 Q 702 265 690 265 Q 665 262 659 260 L 555 241 L 512 236 C 482 233 482 215 512 214 Z" fill="lightgray"></path>
				<path d="M 505 123 L 524 120 Q 527 119 554 122 L 603 127 L 662 137 Q 707 141 732 151 C 740 154 740 154 731 158 L 710 168 L 690 172 L 671 170 L 508 142 C 478 137 475 128 505 123 Z" fill="lightgray"></path>
				<path d="M 496 26 L 516 24 L 542 28 L 596 31 Q 607 31 652 36 L 728 46 C 758 50 760 73 730 75 L 690 78 L 549 60 L 500 58 C 470 57 466 29 496 26 Z" fill="lightgray"></path>
				<path d="M 516 24 L 512 0 Q 512 -7 466 -58 L 427 -97 L 370 -144 Q 355 -153 360 -158 Q 362 -163 374 -158 L 394 -149 Q 404 -147 428 -133 L 469 -108 Q 493 -94 514 -76 L 552 -46 Q 561 -38 578 -30 Q 595 -22 596 -19 L 599 -12 Q 599 -6 593 2 Q 588 10 579 13 Q 571 15 563 19 L 542 28 C 518 38 518 38 516 24 Z" fill="lightgray"></path>
				<path d="M 660 -8 L 703 -51 L 755 -117 Q 792 -166 811 -162 Q 836 -159 834 -119 Q 834 -94 817 -73 Q 800 -53 782 -44 Q 764 -36 734 -18 Q 707 -6 696 -2 L 669 6 Q 659 10 653 5 Q 648 -1 660 -8 Z" fill="lightgray"></path>
</g>
		<text x="40" y="140" font-size="128" fill="#999999">5</text></g>
</g>
	<g id="id1:id1" transform="translate(0.0,1024)">
		<g id="id1:id0:id0" transform="matrix(1.0,0,0,1.0,0,0.0)">			<g stroke="lightgray" stroke-width="4" transform="scale(4, 4)"> <rect x="0" y="0" width="256" height="256" fill="white" stroke-width="4"/></g>
			<g transform="scale(0.92, -0.92) translate(60, -920)">					<path d="M 262 448 L 287 488 L 333 568 Q 356 607 369 625 Q 382 642 382 649 Q 382 655 376 664 Q 362 679 359 681 L 324 701 Q 309 707 307 701 Q 304 689 302 666 Q 300 642 286 606 Q 273 570 258 545 Q 198 423 171 389 Q 145 355 85 290 L 70 273 Q 65 267 67 263 Q 69 260 81 266 L 99 276 Q 132 296 161 325 Q 191 354 203 368 Q 216 382 236 410 L 262 448 Z" fill="black"></path>
				<path d="M 240 374 L 242 336 L 238 188 Q 238 94 216 -10 Q 204 -49 205 -62 Q 207 -75 216 -100 Q 228 -126 236 -135 Q 243 -146 248 -144 Q 251 -145 257 -139 Q 282 -106 284 -29 L 293 314 Q 294 333 299 357 Q 304 380 301 387 Q 299 394 294 404 Q 286 414 280 426 Q 263 448 262 448 C 243 471 233 440 236 410 L 240 374 Z" fill="black"></path>
				<path d="M 646 606 L 760 624 Q 809 629 814 638 Q 829 655 781 667 Q 761 673 740 666 L 708 657 L 647 646 L 582 635 L 486 622 L 422 616 Q 418 613 415 609 Q 414 604 429 598 Q 445 591 447 591 L 464 589 Q 467 590 487 590 L 582 597 L 646 606 Z" fill="black"></path>
				<path d="M 640 512 L 744 529 Q 769 532 773 536 Q 786 542 782 546 Q 768 558 739 564 Q 726 564 723 565 Q 720 566 704 564 L 678 557 L 641 550 L 580 538 L 510 529 Q 480 525 475 525 Q 462 526 462 516 Q 460 511 468 505 Q 477 499 489 495 Q 502 491 533 496 L 580 502 L 640 512 Z" fill="black"></path>
				<path d="M 633 436 L 640 512 L 641 550 L 646 606 L 647 646 L 650 677 Q 653 700 656 707 Q 660 714 660 720 Q 660 725 655 732 Q 651 738 618 749 Q 585 760 574 757 Q 563 754 566 743 L 570 731 Q 574 727 577 708 Q 580 689 580 679 L 582 635 L 582 597 L 580 538 L 580 502 L 580 430 C 580 400 630 406 633 436 Z" fill="black"></path>
				<path d="M 406 410 L 387 408 Q 383 407 378 407 L 340 405 Q 318 404 330 389 Q 335 382 346 376 L 366 367 Q 375 364 381 364 Q 387 364 408 370 Q 430 376 477 383 L 614 399 Q 665 403 725 409 Q 786 415 860 418 L 938 422 Q 952 422 953 427 Q 955 431 950 441 Q 948 445 932 454 Q 908 464 895 468 Q 882 471 854 464 L 765 451 L 633 436 L 580 430 L 508 420 L 431 412 Q 424 410 406 410 Z" fill="red"></path>
				<path d="M 446 64 L 448 46 Q 457 25 462 17 L 468 6 Q 480 -6 488 6 Q 491 9 496 26 L 500 58 L 504 81 Q 504 107 505 123 L 508 142 L 512 214 L 512 236 L 514 304 C 515 330 515 330 509 332 L 486 341 Q 479 345 468 347 Q 458 349 452 343 Q 451 338 464 306 Q 470 272 470 249 L 466 162 Q 466 136 456 103 Q 446 69 446 64 Z" fill="lightgray"></path>
				<path d="M 728 46 L 740 14 Q 746 -2 763 -2 Q 768 -2 772 2 Q 780 7 787 29 Q 795 50 796 70 L 794 124 L 793 232 Q 791 260 795 273 L 806 306 L 813 322 Q 815 333 791 347 Q 767 361 749 366 Q 731 370 727 370 L 715 367 Q 707 364 641 352 L 509 332 C 479 328 484 300 514 304 L 673 328 Q 715 335 724 323 L 731 312 Q 732 311 732 296 L 732 254 L 732 241 L 731 158 L 732 151 L 730 75 L 728 46 Z" fill="lightgray"></path>
				<path d="M 512 214 L 544 213 Q 555 212 593 218 L 703 235 L 732 241 C 753 245 753 245 732 254 L 712 262 Q 702 265 690 265 Q 665 262 659 260 L 555 241 L 512 236 C 482 233 482 215 512 214 Z" fill="lightgray"></path>
				<path d="M 505 123 L 524 120 Q 527 119 554 122 L 603 127 L 662 137 Q 707 141 732 151 C 740 154 740 154 731 158 L 710 168 L 690 172 L 671 170 L 508 142 C 478 137 475 128 505 123 Z" fill="lightgray"></path>
				<path d="M 496 26 L 516 24 L 542 28 L 596 31 Q 607 31 652 36 L 728 46 C 758 50 760 73 730 75 L 690 78 L 549 60 L 500 58 C 470 57 466 29 496 26 Z" fill="lightgray"></path>
				<path d="M 516 24 L 512 0 Q 512 -7 466 -58 L 427 -97 L 370 -144 Q 355 -153 360 -158 Q 362 -163 374 -158 L 394 -149 Q 404 -147 428 -133 L 469 -108 Q 493 -94 514 -76 L 552 -46 Q 561 -38 578 -30 Q 595 -22 596 -19 L 599 -12 Q 599 -6 593 2 Q 588 10 579 13 Q 571 15 563 19 L 542 28 C 518 38 518 38 516 24 Z" fill="lightgray"></path>
				<path d="M 660 -8 L 703 -51 L 755 -117 Q 792 -166 811 -162 Q 836 -159 834 -119 Q 834 -94 817 -73 Q 800 -53 782 -44 Q 764 -36 734 -18 Q 707 -6 696 -2 L 669 6 Q 659 10 653 5 Q 648 -1 660 -8 Z" fill="lightgray"></path>
</g>
		<text x="40" y="140" font-size="128" fill="#999999">6</text></g>
		<g id="id1:id1:id1" transform="matrix(1.0,0,0,1.0,1024,0.0)">			<g stroke="lightgray" stroke-width="4" transform="scale(4, 4)"> <rect x="0" y="0" width="256" height="256" fill="white" stroke-width="4"/></g>
			<g transform="scale(0.92, -0.92) translate(60, -920)">					<path d="M 262 448 L 287 488 L 333 568 Q 356 607 369 625 Q 382 642 382 649 Q 382 655 376 664 Q 362 679 359 681 L 324 701 Q 309 707 307 701 Q 304 689 302 666 Q 300 642 286 606 Q 273 570 258 545 Q 198 423 171 389 Q 145 355 85 290 L 70 273 Q 65 267 67 263 Q 69 260 81 266 L 99 276 Q 132 296 161 325 Q 191 354 203 368 Q 216 382 236 410 L 262 448 Z" fill="black"></path>
				<path d="M 240 374 L 242 336 L 238 188 Q 238 94 216 -10 Q 204 -49 205 -62 Q 207 -75 216 -100 Q 228 -126 236 -135 Q 243 -146 248 -144 Q 251 -145 257 -139 Q 282 -106 284 -29 L 293 314 Q 294 333 299 357 Q 304 380 301 387 Q 299 394 294 404 Q 286 414 280 426 Q 263 448 262 448 C 243 471 233 440 236 410 L 240 374 Z" fill="black"></path>
				<path d="M 646 606 L 760 624 Q 809 629 814 638 Q 829 655 781 667 Q 761 673 740 666 L 708 657 L 647 646 L 582 635 L 486 622 L 422 616 Q 418 613 415 609 Q 414 604 429 598 Q 445 591 447 591 L 464 589 Q 467 590 487 590 L 582 597 L 646 606 Z" fill="black"></path>
				<path d="M 640 512 L 744 529 Q 769 532 773 536 Q 786 542 782 546 Q 768 558 739 564 Q 726 564 723 565 Q 720 566 704 564 L 678 557 L 641 550 L 580 538 L 510 529 Q 480 525 475 525 Q 462 526 462 516 Q 460 511 468 505 Q 477 499 489 495 Q 502 491 533 496 L 580 502 L 640 512 Z" fill="black"></path>
				<path d="M 633 436 L 640 512 L 641 550 L 646 606 L 647 646 L 650 677 Q 653 700 656 707 Q 660 714 660 720 Q 660 725 655 732 Q 651 738 618 749 Q 585 760 574 757 Q 563 754 566 743 L 570 731 Q 574 727 577 708 Q 580 689 580 679 L 582 635 L 582 597 L 580 538 L 580 502 L 580 430 C 580 400 630 406 633 436 Z" fill="black"></path>
				<path d="M 406 410 L 387 408 Q 383 407 378 407 L 340 405 Q 318 404 330 389 Q 335 382 346 376 L 366 367 Q 375 364 381 364 Q 387 364 408 370 Q 430 376 477 383 L 614 399 Q 665 403 725 409 Q 786 415 860 418 L 938 422 Q 952 422 953 427 Q 955 431 950 441 Q 948 445 932 454 Q 908 464 895 468 Q 882 471 854 464 L 765 451 L 633 436 L 580 430 L 508 420 L 431 412 Q 424 410 406 410 Z" fill="black"></path>
				<path d="M 446 64 L 448 46 Q 457 25 462 17 L 468 6 Q 480 -6 488 6 Q 491 9 496 26 L 500 58 L 504 81 Q 504 107 505 123 L 508 142 L 512 214 L 512 236 L 514 304 C 515 330 515 330 509 332 L 486 341 Q 479 345 468 347 Q 458 349 452 343 Q 451 338 464 306 Q 470 272 470 249 L 466 162 Q 466 136 456 103 Q 446 69 446 64 Z" fill="red"></path>
				<path d="M 728 46 L 740 14 Q 746 -2 763 -2 Q 768 -2 772 2 Q 780 7 787 29 Q 795 50 796 70 L 794 124 L 793 232 Q 791 260 795 273 L 806 306 L 813 322 Q 815 333 791 347 Q 767 361 749 366 Q 731 370 727 370 L 715 367 Q 707 364 641 352 L 509 332 C 479 328 484 300 514 304 L 673 328 Q 715 335 724 323 L 731 312 Q 732 311 732 296 L 732 254 L 732 241 L 731 158 L 732 151 L 730 75 L 728 46 Z" fill="lightgray"></path>
				<path d="M 512 214 L 544 213 Q 555 212 593 218 L 703 235 L 732 241 C 753 245 753 245 732 254 L 712 262 Q 702 265 690 265 Q 665 262 659 260 L 555 241 L 512 236 C 482 233 482 215 512 214 Z" fill="lightgray"></path>
				<path d="M 505 123 L 524 120 Q 527 119 554 122 L 603 127 L 662 137 Q 707 141 732 151 C 740 154 740 154 731 158 L 710 168 L 690 172 L 671 170 L 508 142 C 478 137 475 128 505 123 Z" fill="lightgray"></path>
				<path d="M 496 26 L 516 24 L 542 28 L 596 31 Q 607 31 652 36 L 728 46 C 758 50 760 73 730 75 L 690 78 L 549 60 L 500 58 C 470 57 466 29 496 26 Z" fill="lightgray"></path>
				<path d="M 516 24 L 512 0 Q 512 -7 466 -58 L 427 -97 L 370 -144 Q 355 -153 360 -158 Q 362 -163 374 -158 L 394 -149 Q 404 -147 428 -133 L 469 -108 Q 493 -94 514 -76 L 552 -46 Q 561 -38 578 -30 Q 595 -22 596 -19 L 599 -12 Q 599 -6 593 2 Q 588 10 579 13 Q 571 15 563 19 L 542 28 C 518 38 518 38 516 24 Z" fill="lightgray"></path>
				<path d="M 660 -8 L 703 -51 L 755 -117 Q 792 -166 811 -162 Q 836 -159 834 -119 Q 834 -94 817 -73 Q 800 -53 782 -44 Q 764 -36 734 -18 Q 707 -6 696 -2 L 669 6 Q 659 10 653 5 Q 648 -1 660 -8 Z" fill="lightgray"></path>
</g>
		<text x="40" y="140" font-size="128" fill="#999999">7</text></g>
		<g id="id1:id2:id2" transform="matrix(1.0,0,0,1.0,2048,0.0)">			<g stroke="lightgray" stroke-width="4" transform="scale(4, 4)"> <rect x="0" y="0" width="256" height="256" fill="white" stroke-width="4"/></g>
			<g transform="scale(0.92, -0.92) translate(60, -920)">					<path d="M 262 448 L 287 488 L 333 568 Q 356 607 369 625 Q 382 642 382 649 Q 382 655 376 664 Q 362 679 359 681 L 324 701 Q 309 707 307 701 Q 304 689 302 666 Q 300 642 286 606 Q 273 570 258 545 Q 198 423 171 389 Q 145 355 85 290 L 70 273 Q 65 267 67 263 Q 69 260 81 266 L 99 276 Q 132 296 161 325 Q 191 354 203 368 Q 216 382 236 410 L 262 448 Z" fill="black"></path>
				<path d="M 240 374 L 242 336 L 238 188 Q 238 94 216 -10 Q 204 -49 205 -62 Q 207 -75 216 -100 Q 228 -126 236 -135 Q 243 -146 248 -144 Q 251 -145 257 -139 Q 282 -106 284 -29 L 293 314 Q 294 333 299 357 Q 304 380 301 387 Q 299 394 294 404 Q 286 414 280 426 Q 263 448 262 448 C 243 471 233 440 236 410 L 240 374 Z" fill="black"></path>
				<path d="M 646 606 L 760 624 Q 809 629 814 638 Q 829 655 781 667 Q 761 673 740 666 L 708 657 L 647 646 L 582 635 L 486 622 L 422 616 Q 418 613 415 609 Q 414 604 429 598 Q 445 591 447 591 L 464 589 Q 467 590 487 590 L 582 597 L 646 606 Z" fill="black"></path>
				<path d="M 640 512 L 744 529 Q 769 532 773 536 Q 786 542 782 546 Q 768 558 739 564 Q 726 564 723 565 Q 720 566 704 564 L 678 557 L 641 550 L 580 538 L 510 529 Q 480 525 475 525 Q 462 526 462 516 Q 460 511 468 505 Q 477 499 489 495 Q 502 491 533 496 L 580 502 L 640 512 Z" fill="black"></path>
				<path d="M 633 436 L 640 512 L 641 550 L 646 606 L 647 646 L 650 677 Q 653 700 656 707 Q 660 714 660 720 Q 660 725 655 732 Q 651 738 618 749 Q 585 760 574 757 Q 563 754 566 743 L 570 731 Q 574 727 577 708 Q 580 689 580 679 L 582 635 L 582 597 L 580 538 L 580 502 L 580 430 C 580 400 630 406 633 436 Z" fill="black"></path>
				<path d="M 406 410 L 387 408 Q 383 407 378 407 L 340 405 Q 318 404 330 389 Q 335 382 346 376 L 366 367 Q 375 364 381 364 Q 387 364 408 370 Q 430 376 477 383 L 614 399 Q 665 403 725 409 Q 786 415 860 418 L 938 422 Q 952 422 953 427 Q 955 431 950 441 Q 948 445 932 454 Q 908 464 895 468 Q 882 471 854 464 L 765 451 L 633 436 L 580 430 L 508 420 L 431 412 Q 424 410 406 410 Z" fill="black"></path>
				<path d="M 446 64 L 448 46 Q 457 25 462 17 L 468 6 Q 480 -6 488 6 Q 491 9 496 26 L 500 58 L 504 81 Q 504 107 505 123 L 508 142 L 512 214 L 512 236 L 514 304 C 515 330 515 330 509 332 L 486 341 Q 479 345 468 347 Q 458 349 452 343 Q 451 338 464 306 Q 470 272 470 249 L 466 162 Q 466 136 456 103 Q 446 69 446 64 Z" fill="black"></path>
				<path d="M 728 46 L 740 14 Q 746 -2 763 -2 Q 768 -2 772 2 Q 780 7 787 29 Q 795 50 796 70 L 794 124 L 793 232 Q 791 260 795 273 L 806 306 L 813 322 Q 815 333 791 347 Q 767 361 749 366 Q 731 370 727 370 L 715 367 Q 707 364 641 352 L 509 332 C 479 328 484 300 514 304 L 673 328 Q 715 335 724 323 L 731 312 Q 732 311 732 296 L 732 254 L 732 241 L 731 158 L 732 151 L 730 75 L 728 46 Z" fill="red"></path>
				<path d="M 512 214 L 544 213 Q 555 212 593 218 L 703 235 L 732 241 C 753 245 753 245 732 254 L 712 262 Q 702 265 690 265 Q 665 262 659 260 L 555 241 L 512 236 C 482 233 482 215 512 214 Z" fill="lightgray"></path>
				<path d="M 505 123 L 524 120 Q 527 119 554 122 L 603 127 L 662 137 Q 707 141 732 151 C 740 154 740 154 731 158 L 710 168 L 690 172 L 671 170 L 508 142 C 478 137 475 128 505 123 Z" fill="lightgray"></path>
				<path d="M 496 26 L 516 24 L 542 28 L 596 31 Q 607 31 652 36 L 728 46 C 758 50 760 73 730 75 L 690 78 L 549 60 L 500 58 C 470 57 466 29 496 26 Z" fill="lightgray"></path>
				<path d="M 516 24 L 512 0 Q 512 -7 466 -58 L 427 -97 L 370 -144 Q 355 -153 360 -158 Q 362 -163 374 -158 L 394 -149 Q 404 -147 428 -133 L 469 -108 Q 493 -94 514 -76 L 552 -46 Q 561 -38 578 -30 Q 595 -22 596 -19 L 599 -12 Q 599 -6 593 2 Q 588 10 579 13 Q 571 15 563 19 L 542 28 C 518 38 518 38 516 24 Z" fill="lightgray"></path>
				<path d="M 660 -8 L 703 -51 L 755 -117 Q 792 -166 811 -162 Q 836 -159 834 -119 Q 834 -94 817 -73 Q 800 -53 782 -44 Q 764 -36 734 -18 Q 707 -6 696 -2 L 669 6 Q 659 10 653 5 Q 648 -1 660 -8 Z" fill="lightgray"></path>
</g>
		<text x="40" y="140" font-size="128" fill="#999999">8</text></g>
		<g id="id1:id3:id3" transform="matrix(1.0,0,0,1.0,3072,0.0)">			<g stroke="lightgray" stroke-width="4" transform="scale(4, 4)"> <rect x="0" y="0" width="256" height="256" fill="white" stroke-width="4"/></g>
			<g transform="scale(0.92, -0.92) translate(60, -920)">					<path d="M 262 448 L 287 488 L 333 568 Q 356 607 369 625 Q 382 642 382 649 Q 382 655 376 664 Q 362 679 359 681 L 324 701 Q 309 707 307 701 Q 304 689 302 666 Q 300 642 286 606 Q 273 570 258 545 Q 198 423 171 389 Q 145 355 85 290 L 70 273 Q 65 267 67 263 Q 69 260 81 266 L 99 276 Q 132 296 161 325 Q 191 354 203 368 Q 216 382 236 410 L 262 448 Z" fill="black"></path>
				<path d="M 240 374 L 242 336 L 238 188 Q 238 94 216 -10 Q 204 -49 205 -62 Q 207 -75 216 -100 Q 228 -126 236 -135 Q 243 -146 248 -144 Q 251 -145 257 -139 Q 282 -106 284 -29 L 293 314 Q 294 333 299 357 Q 304 380 301 387 Q 299 394 294 404 Q 286 414 280 426 Q 263 448 262 448 C 243 471 233 440 236 410 L 240 374 Z" fill="black"></path>
				<path d="M 646 606 L 760 624 Q 809 629 814 638 Q 829 655 781 667 Q 761 673 740 666 L 708 657 L 647 646 L 582 635 L 486 622 L 422 616 Q 418 613 415 609 Q 414 604 429 598 Q 445 591 447 591 L 464 589 Q 467 590 487 590 L 582 597 L 646 606 Z" fill="black"></path>
				<path d="M 640 512 L 744 529 Q 769 532 773 536 Q 786 542 782 546 Q 768 558 739 564 Q 726 564 723 565 Q 720 566 704 564 L 678 557 L 641 550 L 580 538 L 510 529 Q 480 525 475 525 Q 462 526 462 516 Q 460 511 468 505 Q 477 499 489 495 Q 502 491 533 496 L 580 502 L 640 512 Z" fill="black"></path>
				<path d="M 633 436 L 640 512 L 641 550 L 646 606 L 647 646 L 650 677 Q 653 700 656 707 Q 660 714 660 720 Q 660 725 655 732 Q 651 738 618 749 Q 585 760 574 757 Q 563 754 566 743 L 570 731 Q 574 727 577 708 Q 580 689 580 679 L 582 635 L 582 597 L 580 538 L 580 502 L 580 430 C 580 400 630 406 633 436 Z" fill="black"></path>
				<path d="M 406 410 L 387 408 Q 383 407 378 407 L 340 405 Q 318 404 330 389 Q 335 382 346 376 L 366 367 Q 375 364 381 364 Q 387 364 408 370 Q 430 376 477 383 L 614 399 Q 665 403 725 409 Q 786 415 860 418 L 938 422 Q 952 422 953 427 Q 955 431 950 441 Q 948 445 932 454 Q 908 464 895 468 Q 882 471 854 464 L 765 451 L 633 436 L 580 430 L 508 420 L 431 412 Q 424 410 406 410 Z" fill="black"></path>
				<path d="M 446 64 L 448 46 Q 457 25 462 17 L 468 6 Q 480 -6 488 6 Q 491 9 496 26 L 500 58 L 504 81 Q 504 107 505 123 L 508 142 L 512 214 L 512 236 L 514 304 C 515 330 515 330 509 332 L 486 341 Q 479 345 468 347 Q 458 349 452 343 Q 451 338 464 306 Q 470 272 470 249 L 466 162 Q 466 136 456 103 Q 446 69 446 64 Z" fill="black"></path>
				<path d="M 728 46 L 740 14 Q 746 -2 763 -2 Q 768 -2 772 2 Q 780 7 787 29 Q 795 50 796 70 L 794 124 L 793 232 Q 791 260 795 273 L 806 306 L 813 322 Q 815 333 791 347 Q 767 361 749 366 Q 731 370 727 370 L 715 367 Q 707 364 641 352 L 509 332 C 479 328 484 300 514 304 L 673 328 Q 715 335 724 323 L 731 312 Q 732 311 732 296 L 732 254 L 732 241 L 731 158 L 732 151 L 730 75 L 728 46 Z" fill="black"></path>
				<path d="M 512 214 L 544 213 Q 555 212 593 218 L 703 235 L 732 241 C 753 245 753 245 732 254 L 712 262 Q 702 265 690 265 Q 665 262 659 260 L 555 241 L 512 236 C 482 233 482 215 512 214 Z" fill="red"></path>
				<path d="M 505 123 L 524 120 Q 527 119 554 122 L 603 127 L 662 137 Q 707 141 732 151 C 740 154 740 154 731 158 L 710 168 L 690 172 L 671 170 L 508 142 C 478 137 475 128 505 123 Z" fill="lightgray"></path>
				<path d="M 496 26 L 516 24 L 542 28 L 596 31 Q 607 31 652 36 L 728 46 C 758 50 760 73 730 75 L 690 78 L 549 60 L 500 58 C 470 57 466 29 496 26 Z" fill="lightgray"></path>
				<path d="M 516 24 L 512 0 Q 512 -7 466 -58 L 427 -97 L 370 -144 Q 355 -153 360 -158 Q 362 -163 374 -158 L 394 -149 Q 404 -147 428 -133 L 469 -108 Q 493 -94 514 -76 L 552 -46 Q 561 -38 578 -30 Q 595 -22 596 -19 L 599 -12 Q 599 -6 593 2 Q 588 10 579 13 Q 571 15 563 19 L 542 28 C 518 38 518 38 516 24 Z" fill="lightgray"></path>
				<path d="M 660 -8 L 703 -51 L 755 -117 Q 792 -166 811 -162 Q 836 -159 834 -119 Q 834 -94 817 -73 Q 800 -53 782 -44 Q 764 -36 734 -18 Q 707 -6 696 -2 L 669 6 Q 659 10 653 5 Q 648 -1 660 -8 Z" fill="lightgray"></path>
</g>
		<text x="40" y="140" font-size="128" fill="#999999">9</text></g>
		<g id="id1:id4:id4" transform="matrix(1.0,0,0,1.0,4096,0.0)">			<g stroke="lightgray" stroke-width="4" transform="scale(4, 4)"> <rect x="0" y="0" width="256" height="256" fill="white" stroke-width="4"/></g>
			<g transform="scale(0.92, -0.92) translate(60, -920)">					<path d="M 262 448 L 287 488 L 333 568 Q 356 607 369 625 Q 382 642 382 649 Q 382 655 376 664 Q 362 679 359 681 L 324 701 Q 309 707 307 701 Q 304 689 302 666 Q 300 642 286 606 Q 273 570 258 545 Q 198 423 171 389 Q 145 355 85 290 L 70 273 Q 65 267 67 263 Q 69 260 81 266 L 99 276 Q 132 296 161 325 Q 191 354 203 368 Q 216 382 236 410 L 262 448 Z" fill="black"></path>
				<path d="M 240 374 L 242 336 L 238 188 Q 238 94 216 -10 Q 204 -49 205 -62 Q 207 -75 216 -100 Q 228 -126 236 -135 Q 243 -146 248 -144 Q 251 -145 257 -139 Q 282 -106 284 -29 L 293 314 Q 294 333 299 357 Q 304 380 301 387 Q 299 394 294 404 Q 286 414 280 426 Q 263 448 262 448 C 243 471 233 440 236 410 L 240 374 Z" fill="black"></path>
				<path d="M 646 606 L 760 624 Q 809 629 814 638 Q 829 655 781 667 Q 761 673 740 666 L 708 657 L 647 646 L 582 635 L 486 622 L 422 616 Q 418 613 415 609 Q 414 604 429 598 Q 445 591 447 591 L 464 589 Q 467 590 487 590 L 582 597 L 646 606 Z" fill="black"></path>
				<path d="M 640 512 L 744 529 Q 769 532 773 536 Q 786 542 782 546 Q 768 558 739 564 Q 726 564 723 565 Q 720 566 704 564 L 678 557 L 641 550 L 580 538 L 510 529 Q 480 525 475 525 Q 462 526 462 516 Q 460 511 468 505 Q 477 499 489 495 Q 502 491 533 496 L 580 502 L 640 512 Z" fill="black"></path>
				<path d="M 633 436 L 640 512 L 641 550 L 646 606 L 647 646 L 650 677 Q 653 700 656 707 Q 660 714 660 720 Q 660 725 655 732 Q 651 738 618 749 Q 585 760 574 757 Q 563 754 566 743 L 570 731 Q 574 727 577 708 Q 580 689 580 679 L 582 635 L 582 597 L 580 538 L 580 502 L 580 430 C 580 400 630 406 633 436 Z" fill="black"></path>
				<path d="M 406 410 L 387 408 Q 383 407 378 407 L 340 405 Q 318 404 330 389 Q 335 382 346 376 L 366 367 Q 375 364 381 364 Q 387 364 408 370 Q 430 376 477 383 L 614 399 Q 665 403 725 409 Q 786 415 860 418 L 938 422 Q 952 422 953 427 Q 955 431 950 441 Q 948 445 932 454 Q 908 464 895 468 Q 882 471 854 464 L 765 451 L 633 436 L 580 430 L 508 420 L 431 412 Q 424 410 406 410 Z" fill="black"></path>
				<path d="M 446 64 L 448 46 Q 457 25 462 17 L 468 6 Q 480 -6 488 6 Q 491 9 496 26 L 500 58 L 504 81 Q 504 107 505 123 L 508 142 L 512 214 L 512 236 L 514 304 C 515 330 515 330 509 332 L 486 341 Q 479 345 468 347 Q 458 349 452 343 Q 451 338 464 306 Q 470 272 470 249 L 466 162 Q 466 136 456 103 Q 446 69 446 64 Z" fill="black"></path>
				<path d="M 728 46 L 740 14 Q 746 -2 763 -2 Q 768 -2 772 2 Q 780 7 787 29 Q 795 50 796 70 L 794 124 L 793 232 Q 791 260 795 273 L 806 306 L 813 322 Q 815 333 791 347 Q 767 361 749 366 Q 731 370 727 370 L 715 367 Q 707 364 641 352 L 509 332 C 479 328 484 300 514 304 L 673 328 Q 715 335 724 323 L 731 312 Q 732 311 732 296 L 732 254 L 732 241 L 731 158 L 732 151 L 730 75 L 728 46 Z" fill="black"></path>
				<path d="M 512 214 L 544 213 Q 555 212 593 218 L 703 235 L 732 241 C 753 245 753 245 732 254 L 712 262 Q 702 265 690 265 Q 665 262 659 260 L 555 241 L 512 236 C 482 233 482 215 512 214 Z" fill="black"></path>
				<path d="M 505 123 L 524 120 Q 527 119 554 122 L 603 127 L 662 137 Q 707 141 732 151 C 740 154 740 154 731 158 L 710 168 L 690 172 L 671 170 L 508 142 C 478 137 475 128 505 123 Z" fill="red"></path>
				<path d="M 496 26 L 516 24 L 542 28 L 596 31 Q 607 31 652 36 L 728 46 C 758 50 760 73 730 75 L 690 78 L 549 60 L 500 58 C 470 57 466 29 496 26 Z" fill="lightgray"></path>
				<path d="M 516 24 L 512 0 Q 512 -7 466 -58 L 427 -97 L 370 -144 Q 355 -153 360 -158 Q 362 -163 374 -158 L 394 -149 Q 404 -147 428 -133 L 469 -108 Q 493 -94 514 -76 L 552 -46 Q 561 -38 578 -30 Q 595 -22 596 -19 L 599 -12 Q 599 -6 593 2 Q 588 10 579 13 Q 571 15 563 19 L 542 28 C 518 38 518 38 516 24 Z" fill="lightgray"></path>
				<path d="M 660 -8 L 703 -51 L 755 -117 Q 792 -166 811 -162 Q 836 -159 834 -119 Q 834 -94 817 -73 Q 800 -53 782 -44 Q 764 -36 734 -18 Q 707 -6 696 -2 L 669 6 Q 659 10 653 5 Q 648 -1 660 -8 Z" fill="lightgray"></path>
</g>
		<text x="40" y="140" font-size="128" fill="#999999">10</text></g>
</g>
	<g id="id2:id2" transform="translate(0.0,2048)">
		<g id="id2:id0:id0" transform="matrix(1.0,0,0,1.0,0,0.0)">			<g stroke="lightgray" stroke-width="4" transform="scale(4, 4)"> <rect x="0" y="0" width="256" height="256" fill="white" stroke-width="4"/></g>
			<g transform="scale(0.92, -0.92) translate(60, -920)">					<path d="M 262 448 L 287 488 L 333 568 Q 356 607 369 625 Q 382 642 382 649 Q 382 655 376 664 Q 362 679 359 681 L 324 701 Q 309 707 307 701 Q 304 689 302 666 Q 300 642 286 606 Q 273 570 258 545 Q 198 423 171 389 Q 145 355 85 290 L 70 273 Q 65 267 67 263 Q 69 260 81 266 L 99 276 Q 132 296 161 325 Q 191 354 203 368 Q 216 382 236 410 L 262 448 Z" fill="black"></path>
				<path d="M 240 374 L 242 336 L 238 188 Q 238 94 216 -10 Q 204 -49 205 -62 Q 207 -75 216 -100 Q 228 -126 236 -135 Q 243 -146 248 -144 Q 251 -145 257 -139 Q 282 -106 284 -29 L 293 314 Q 294 333 299 357 Q 304 380 301 387 Q 299 394 294 404 Q 286 414 280 426 Q 263 448 262 448 C 243 471 233 440 236 410 L 240 374 Z" fill="black"></path>
				<path d="M 646 606 L 760 624 Q 809 629 814 638 Q 829 655 781 667 Q 761 673 740 666 L 708 657 L 647 646 L 582 635 L 486 622 L 422 616 Q 418 613 415 609 Q 414 604 429 598 Q 445 591 447 591 L 464 589 Q 467 590 487 590 L 582 597 L 646 606 Z" fill="black"></path>
				<path d="M 640 512 L 744 529 Q 769 532 773 536 Q 786 542 782 546 Q 768 558 739 564 Q 726 564 723 565 Q 720 566 704 564 L 678 557 L 641 550 L 580 538 L 510 529 Q 480 525 475 525 Q 462 526 462 516 Q 460 511 468 505 Q 477 499 489 495 Q 502 491 533 496 L 580 502 L 640 512 Z" fill="black"></path>
				<path d="M 633 436 L 640 512 L 641 550 L 646 606 L 647 646 L 650 677 Q 653 700 656 707 Q 660 714 660 720 Q 660 725 655 732 Q 651 738 618 749 Q 585 760 574 757 Q 563 754 566 743 L 570 731 Q 574 727 577 708 Q 580 689 580 679 L 582 635 L 582 597 L 580 538 L 580 502 L 580 430 C 580 400 630 406 633 436 Z" fill="black"></path>
				<path d="M 406 410 L 387 408 Q 383 407 378 407 L 340 405 Q 318 404 330 389 Q 335 382 346 376 L 366 367 Q 375 364 381 364 Q 387 364 408 370 Q 430 376 477 383 L 614 399 Q 665 403 725 409 Q 786 415 860 418 L 938 422 Q 952 422 953 427 Q 955 431 950 441 Q 948 445 932 454 Q 908 464 895 468 Q 882 471 854 464 L 765 451 L 633 436 L 580 430 L 508 420 L 431 412 Q 424 410 406 410 Z" fill="black"></path>
				<path d="M 446 64 L 448 46 Q 457 25 462 17 L 468 6 Q 480 -6 488 6 Q 491 9 496 26 L 500 58 L 504 81 Q 504 107 505 123 L 508 142 L 512 214 L 512 236 L 514 304 C 515 330 515 330 509 332 L 486 341 Q 479 345 468 347 Q 458 349 452 343 Q 451 338 464 306 Q 470 272 470 249 L 466 162 Q 466 136 456 103 Q 446 69 446 64 Z" fill="black"></path>
				<path d="M 728 46 L 740 14 Q 746 -2 763 -2 Q 768 -2 772 2 Q 780 7 787 29 Q 795 50 796 70 L 794 124 L 793 232 Q 791 260 795 273 L 806 306 L 813 322 Q 815 333 791 347 Q 767 361 749 366 Q 731 370 727 370 L 715 367 Q 707 364 641 352 L 509 332 C 479 328 484 300 514 304 L 673 328 Q 715 335 724 323 L 731 312 Q 732 311 732 296 L 732 254 L 732 241 L 731 158 L 732 151 L 730 75 L 728 46 Z" fill="black"></path>
				<path d="M 512 214 L 544 213 Q 555 212 593 218 L 703 235 L 732 241 C 753 245 753 245 732 254 L 712 262 Q 702 265 690 265 Q 665 262 659 260 L 555 241 L 512 236 C 482 233 482 215 512 214 Z" fill="black"></path>
				<path d="M 505 123 L 524 120 Q 527 119 554 122 L 603 127 L 662 137 Q 707 141 732 151 C 740 154 740 154 731 158 L 710 168 L 690 172 L 671 170 L 508 142 C 478 137 475 128 505 123 Z" fill="black"></path>
				<path d="M 496 26 L 516 24 L 542 28 L 596 31 Q 607 31 652 36 L 728 46 C 758 50 760 73 730 75 L 690 78 L 549 60 L 500 58 C 470 57 466 29 496 26 Z" fill="red"></path>
				<path d="M 516 24 L 512 0 Q 512 -7 466 -58 L 427 -97 L 370 -144 Q 355 -153 360 -158 Q 362 -163 374 -158 L 394 -149 Q 404 -147 428 -133 L 469 -108 Q 493 -94 514 -76 L 552 -46 Q 561 -38 578 -30 Q 595 -22 596 -19 L 599 -12 Q 599 -6 593 2 Q 588 10 579 13 Q 571 15 563 19 L 542 28 C 518 38 518 38 516 24 Z" fill="lightgray"></path>
				<path d="M 660 -8 L 703 -51 L 755 -117 Q 792 -166 811 -162 Q 836 -159 834 -119 Q 834 -94 817 -73 Q 800 -53 782 -44 Q 764 -36 734 -18 Q 707 -6 696 -2 L 669 6 Q 659 10 653 5 Q 648 -1 660 -8 Z" fill="lightgray"></path>
</g>
		<text x="40" y="140" font-size="128" fill="#999999">11</text></g>
		<g id="id2:id1:id1" transform="matrix(1.0,0,0,1.0,1024,0.0)">			<g stroke="lightgray" stroke-width="4" transform="scale(4, 4)"> <rect x="0" y="0" width="256" height="256" fill="white" stroke-width="4"/></g>
			<g transform="scale(0.92, -0.92) translate(60, -920)">					<path d="M 262 448 L 287 488 L 333 568 Q 356 607 369 625 Q 382 642 382 649 Q 382 655 376 664 Q 362 679 359 681 L 324 701 Q 309 707 307 701 Q 304 689 302 666 Q 300 642 286 606 Q 273 570 258 545 Q 198 423 171 389 Q 145 355 85 290 L 70 273 Q 65 267 67 263 Q 69 260 81 266 L 99 276 Q 132 296 161 325 Q 191 354 203 368 Q 216 382 236 410 L 262 448 Z" fill="black"></path>
				<path d="M 240 374 L 242 336 L 238 188 Q 238 94 216 -10 Q 204 -49 205 -62 Q 207 -75 216 -100 Q 228 -126 236 -135 Q 243 -146 248 -144 Q 251 -145 257 -139 Q 282 -106 284 -29 L 293 314 Q 294 333 299 357 Q 304 380 301 387 Q 299 394 294 404 Q 286 414 280 426 Q 263 448 262 448 C 243 471 233 440 236 410 L 240 374 Z" fill="black"></path>
				<path d="M 646 606 L 760 624 Q 809 629 814 638 Q 829 655 781 667 Q 761 673 740 666 L 708 657 L 647 646 L 582 635 L 486 622 L 422 616 Q 418 613 415 609 Q 414 604 429 598 Q 445 591 447 591 L 464 589 Q 467 590 487 590 L 582 597 L 646 606 Z" fill="black"></path>
				<path d="M 640 512 L 744 529 Q 769 532 773 536 Q 786 542 782 546 Q 768 558 739 564 Q 726 564 723 565 Q 720 566 704 564 L 678 557 L 641 550 L 580 538 L 510 529 Q 480 525 475 525 Q 462 526 462 516 Q 460 511 468 505 Q 477 499 489 495 Q 502 491 533 496 L 580 502 L 640 512 Z" fill="black"></path>
				<path d="M 633 436 L 640 512 L 641 550 L 646 606 L 647 646 L 650 677 Q 653 700 656 707 Q 660 714 660 720 Q 660 725 655 732 Q 651 738 618 749 Q 585 760 574 757 Q 563 754 566 743 L 570 731 Q 574 727 577 708 Q 580 689 580 679 L 582 635 L 582 597 L 580 538 L 580 502 L 580 430 C 580 400 630 406 633 436 Z" fill="black"></path>
				<path d="M 406 410 L 387 408 Q 383 407 378 407 L 340 405 Q 318 404 330 389 Q 335 382 346 376 L 366 367 Q 375 364 381 364 Q 387 364 408 370 Q 430 376 477 383 L 614 399 Q 665 403 725 409 Q 786 415 860 418 L 938 422 Q 952 422 953 427 Q 955 431 950 441 Q 948 445 932 454 Q 908 464 895 468 Q 882 471 854 464 L 765 451 L 633 436 L 580 430 L 508 420 L 431 412 Q 424 410 406 410 Z" fill="black"></path>
				<path d="M 446 64 L 448 46 Q 457 25 462 17 L 468 6 Q 480 -6 488 6 Q 491 9 496 26 L 500 58 L 504 81 Q 504 107 505 123 L 508 142 L 512 214 L 512 236 L 514 304 C 515 330 515 330 509 332 L 486 341 Q 479 345 468 347 Q 458 349 452 343 Q 451 338 464 306 Q 470 272 470 249 L 466 162 Q 466 136 456 103 Q 446 69 446 64 Z" fill="black"></path>
				<path d="M 728 46 L 740 14 Q 746 -2 763 -2 Q 768 -2 772 2 Q 780 7 787 29 Q 795 50 796 70 L 794 124 L 793 232 Q 791 260 795 273 L 806 306 L 813 322 Q 815 333 791 347 Q 767 361 749 366 Q 731 370 727 370 L 715 367 Q 707 364 641 352 L 509 332 C 479 328 484 300 514 304 L 673 328 Q 715 335 724 323 L 731 312 Q 732 311 732 296 L 732 254 L 732 241 L 731 158 L 732 151 L 730 75 L 728 46 Z" fill="black"></path>
				<path d="M 512 214 L 544 213 Q 555 212 593 218 L 703 235 L 732 241 C 753 245 753 245 732 254 L 712 262 Q 702 265 690 265 Q 665 262 659 260 L 555 241 L 512 236 C 482 233 482 215 512 214 Z" fill="black"></path>
				<path d="M 505 123 L 524 120 Q 527 119 554 122 L 603 127 L 662 137 Q 707 141 732 151 C 740 154 740 154 731 158 L 710 168 L 690 172 L 671 170 L 508 142 C 478 137 475 128 505 123 Z" fill="black"></path>
				<path d="M 496 26 L 516 24 L 542 28 L 596 31 Q 607 31 652 36 L 728 46 C 758 50 760 73 730 75 L 690 78 L 549 60 L 500 58 C 470 57 466 29 496 26 Z" fill="black"></path>
				<path d="M 516 24 L 512 0 Q 512 -7 466 -58 L 427 -97 L 370 -144 Q 355 -153 360 -158 Q 362 -163 374 -158 L 394 -149 Q 404 -147 428 -133 L 469 -108 Q 493 -94 514 -76 L 552 -46 Q 561 -38 578 -30 Q 595 -22 596 -19 L 599 -12 Q 599 -6 593 2 Q 588 10 579 13 Q 571 15 563 19 L 542 28 C 518 38 518 38 516 24 Z" fill="red"></path>
				<path d="M 660 -8 L 703 -51 L 755 -117 Q 792 -166 811 -162 Q 836 -159 834 -119 Q 834 -94 817 -73 Q 800 -53 782 -44 Q 764 -36 734 -18 Q 707 -6 696 -2 L 669 6 Q 659 10 653 5 Q 648 -1 660 -8 Z" fill="lightgray"></path>
</g>
		<text x="40" y="140" font-size="128" fill="#999999">12</text></g>
		<g id="id2:id2:id2" transform="matrix(1.0,0,0,1.0,2048,0.0)">			<g stroke="lightgray" stroke-width="4" transform="scale(4, 4)"> <rect x="0" y="0" width="256" height="256" fill="white" stroke-width="4"/></g>
			<g transform="scale(0.92, -0.92) translate(60, -920)">					<path d="M 262 448 L 287 488 L 333 568 Q 356 607 369 625 Q 382 642 382 649 Q 382 655 376 664 Q 362 679 359 681 L 324 701 Q 309 707 307 701 Q 304 689 302 666 Q 300 642 286 606 Q 273 570 258 545 Q 198 423 171 389 Q 145 355 85 290 L 70 273 Q 65 267 67 263 Q 69 260 81 266 L 99 276 Q 132 296 161 325 Q 191 354 203 368 Q 216 382 236 410 L 262 448 Z" fill="black"></path>
				<path d="M 240 374 L 242 336 L 238 188 Q 238 94 216 -10 Q 204 -49 205 -62 Q 207 -75 216 -100 Q 228 -126 236 -135 Q 243 -146 248 -144 Q 251 -145 257 -139 Q 282 -106 284 -29 L 293 314 Q 294 333 299 357 Q 304 380 301 387 Q 299 394 294 404 Q 286 414 280 426 Q 263 448 262 448 C 243 471 233 440 236 410 L 240 374 Z" fill="black"></path>
				<path d="M 646 606 L 760 624 Q 809 629 814 638 Q 829 655 781 667 Q 761 673 740 666 L 708 657 L 647 646 L 582 635 L 486 622 L 422 616 Q 418 613 415 609 Q 414 604 429 598 Q 445 591 447 591 L 464 589 Q 467 590 487 590 L 582 597 L 646 606 Z" fill="black"></path>
				<path d="M 640 512 L 744 529 Q 769 532 773 536 Q 786 542 782 546 Q 768 558 739 564 Q 726 564 723 565 Q 720 566 704 564 L 678 557 L 641 550 L 580 538 L 510 529 Q 480 525 475 525 Q 462 526 462 516 Q 460 511 468 505 Q 477 499 489 495 Q 502 491 533 496 L 580 502 L 640 512 Z" fill="black"></path>
				<path d="M 633 436 L 640 512 L 641 550 L 646 606 L 647 646 L 650 677 Q 653 700 656 707 Q 660 714 660 720 Q 660 725 655 732 Q 651 738 618 749 Q 585 760 574 757 Q 563 754 566 743 L 570 731 Q 574 727 577 708 Q 580 689 580 679 L 582 635 L 582 597 L 580 538 L 580 502 L 580 430 C 580 400 630 406 633 436 Z" fill="black"></path>
				<path d="M 406 410 L 387 408 Q 383 407 378 407 L 340 405 Q 318 404 330 389 Q 335 382 346 376 L 366 367 Q 375 364 381 364 Q 387 364 408 370 Q 430 376 477 383 L 614 399 Q 665 403 725 409 Q 786 415 860 418 L 938 422 Q 952 422 953 427 Q 955 431 950 441 Q 948 445 932 454 Q 908 464 895 468 Q 882 471 854 464 L 765 451 L 633 436 L 580 430 L 508 420 L 431 412 Q 424 410 406 410 Z" fill="black"></path>
				<path d="M 446 64 L 448 46 Q 457 25 462 17 L 468 6 Q 480 -6 488 6 Q 491 9 496 26 L 500 58 L 504 81 Q 504 107 505 123 L 508 142 L 512 214 L 512 236 L 514 304 C 515 330 515 330 509 332 L 486 341 Q 479 345 468 347 Q 458 349 452 343 Q 451 338 464 306 Q 470 272 470 249 L 466 162 Q 466 136 456 103 Q 446 69 446 64 Z" fill="black"></path>
				<path d="M 728 46 L 740 14 Q 746 -2 763 -2 Q 768 -2 772 2 Q 780 7 787 29 Q 795 50 796 70 L 794 124 L 793 232 Q 791 260 795 273 L 806 306 L 813 322 Q 815 333 791 347 Q 767 361 749 366 Q 731 370 727 370 L 715 367 Q 707 364 641 352 L 509 332 C 479 328 484 300 514 304 L 673 328 Q 715 335 724 323 L 731 312 Q 732 311 732 296 L 732 254 L 732 241 L 731 158 L 732 151 L 730 75 L 728 46 Z" fill="black"></path>
				<path d="M 512 214 L 544 213 Q 555 212 593 218 L 703 235 L 732 241 C 753 245 753 245 732 254 L 712 262 Q 702 265 690 265 Q 665 262 659 260 L 555 241 L 512 236 C 482 233 482 215 512 214 Z" fill="black"></path>
				<path d="M 505 123 L 524 120 Q 527 119 554 122 L 603 127 L 662 137 Q 707 141 732 151 C 740 154 740 154 731 158 L 710 168 L 690 172 L 671 170 L 508 142 C 478 137 475 128 505 123 Z" fill="black"></path>
				<path d="M 496 26 L 516 24 L 542 28 L 596 31 Q 607 31 652 36 L 728 46 C 758 50 760 73 730 75 L 690 78 L 549 60 L 500 58 C 470 57 466 29 496 26 Z" fill="black"></path>
				<path d="M 516 24 L 512 0 Q 512 -7 466 -58 L 427 -97 L 370 -144 Q 355 -153 360 -158 Q 362 -163 374 -158 L 394 -149 Q 404 -147 428 -133 L 469 -108 Q 493 -94 514 -76 L 552 -46 Q 561 -38 578 -30 Q 595 -22 596 -19 L 599 -12 Q 599 -6 593 2 Q 588 10 579 13 Q 571 15 563 19 L 542 28 C 518 38 518 38 516 24 Z" fill="black"></path>
				<path d="M 660 -8 L 703 -51 L 755 -117 Q 792 -166 811 -162 Q 836 -159 834 -119 Q 834 -94 817 -73 Q 800 -53 782 -44 Q 764 -36 734 -18 Q 707 -6 696 -2 L 669 6 Q 659 10 653 5 Q 648 -1 660 -8 Z" fill="red"></path>
</g>
		<text x="40" y="140" font-size="128" fill="#999999">13</text></g>
		<g id="id2:id3:id3" transform="matrix(1.0,0,0,1.0,3072,0.0)">			<g stroke="white" stroke-width="4" transform="scale(4, 4)"> <rect x="1" y="1" width="255" height="255" fill="white" stroke-width="0"/></g>
</g>
		<g id="id2:id4:id4" transform="matrix(1.0,0,0,1.0,4096,0.0)">			<g stroke="white" stroke-width="4" transform="scale(4, 4)"> <rect x="1" y="1" width="255" height="255" fill="white" stroke-width="0"/></g>
</g>
</g>
</svg>
