<?xml version="1.0" standalone="no"?>
<!DOCTYPE svg PUBLIC "-//W3C//DTD SVG 1.1//EN"
 "http://www.w3.org/Graphics/SVG/1.1/DTD/svg11.dtd">
<!-- generate by Japanese dictionary app com.asnsami.kanjidictionary -->

<svg xmlns="http://www.w3.org/2000/svg" xmlns:sodipodi="http://sodipodi.sourceforge.net/DTD/sodipodi-0.dtd" version="1.1" width="640" height="256" viewBox="0 0 5120 2048">
	<g id="id0:id0" transform="translate(0.0,0)">
		<g id="id0:id0:id0" transform="matrix(1.0,0,0,1.0,0,0.0)">			<g stroke="lightgray" stroke-width="4" transform="scale(4, 4)"> <rect x="0" y="0" width="256" height="256" fill="white" stroke-width="4"/></g>
			<g transform="scale(0.92, -0.92) translate(60, -920)">					<path d="M 373 691 Q 415 718 469 757 Q 485 773 507 782 Q 526 792 516 808 Q 503 823 479 835 Q 457 847 446 844 Q 434 843 439 830 Q 442 806 360 699 C 342 675 348 675 373 691 Z" fill="red"></path>
				<path d="M 380 651 Q 387 651 395 656 Q 449 675 584 698 Q 596 699 604 693 Q 614 689 613 672 Q 610 633 593 565 Q 589 538 563 543 Q 535 544 513 548 Q 500 549 503 541 Q 504 532 531 515 Q 559 490 576 462 Q 583 453 593 456 Q 600 457 615 479 Q 630 500 646 560 Q 659 668 677 684 Q 687 694 681 705 Q 672 715 636 735 Q 623 741 564 726 Q 548 726 378 686 C 349 679 352 641 380 651 Z" fill="lightgray"></path>
				<path d="M 410 602 Q 452 556 469 553 Q 479 553 484 567 Q 485 577 477 593 Q 470 605 452 610 Q 425 622 414 623 Q 407 624 406 616 Q 405 609 410 602 Z" fill="lightgray"></path>
				<path d="M 357 370 Q 388 389 448 400 Q 575 425 708 428 Q 736 432 749 420 Q 759 410 750 371 Q 731 290 715 269 Q 705 257 680 262 Q 652 269 625 277 Q 610 281 611 275 Q 610 271 619 262 Q 665 213 682 180 Q 689 161 707 169 Q 759 193 771 234 Q 787 283 800 341 Q 809 377 827 406 Q 840 421 829 433 Q 813 452 778 475 Q 759 487 731 476 Q 673 454 621 451 Q 545 447 392 423 Q 367 419 366 440 Q 367 498 369 559 Q 369 617 380 651 C 386 680 386 680 378 686 Q 375 689 373 691 L 360 699 Q 351 706 338 711 Q 320 718 311 709 Q 305 705 313 692 Q 325 668 321 516 Q 321 459 308 410 Q 302 389 318 374 Q 337 356 357 370 Z" fill="lightgray"></path>
				<path d="M 362 303 Q 349 313 337 318 Q 315 331 298 324 Q 285 320 292 306 Q 316 266 291 157 Q 263 67 192 16 Q 177 6 163 -6 Q 151 -15 163 -17 Q 211 -17 269 36 Q 332 90 353 195 Q 359 249 371 271 C 380 291 380 291 362 303 Z" fill="lightgray"></path>
				<path d="M 371 271 Q 384 272 398 279 Q 434 289 472 297 Q 490 303 495 295 Q 501 291 497 270 Q 467 105 520 32 Q 574 -22 669 -35 Q 708 -38 757 -36 Q 842 -30 913 7 Q 935 20 924 46 Q 896 110 889 183 Q 885 192 879 192 Q 876 192 869 178 Q 845 73 822 52 Q 759 16 614 36 Q 583 43 565 62 Q 543 81 536 125 Q 524 191 552 245 Q 561 272 578 285 Q 612 310 534 342 Q 509 354 493 344 Q 456 323 362 303 C 333 296 342 263 371 271 Z" fill="lightgray"></path>
</g>
		<text x="40" y="140" font-size="128" fill="#999999">1</text></g>
		<g id="id0:id1:id1" transform="matrix(1.0,0,0,1.0,1024,0.0)">			<g stroke="lightgray" stroke-width="4" transform="scale(4, 4)"> <rect x="0" y="0" width="256" height="256" fill="white" stroke-width="4"/></g>
			<g transform="scale(0.92, -0.92) translate(60, -920)">					<path d="M 373 691 Q 415 718 469 757 Q 485 773 507 782 Q 526 792 516 808 Q 503 823 479 835 Q 457 847 446 844 Q 434 843 439 830 Q 442 806 360 699 C 342 675 348 675 373 691 Z" fill="black"></path>
				<path d="M 380 651 Q 387 651 395 656 Q 449 675 584 698 Q 596 699 604 693 Q 614 689 613 672 Q 610 633 593 565 Q 589 538 563 543 Q 535 544 513 548 Q 500 549 503 541 Q 504 532 531 515 Q 559 490 576 462 Q 583 453 593 456 Q 600 457 615 479 Q 630 500 646 560 Q 659 668 677 684 Q 687 694 681 705 Q 672 715 636 735 Q 623 741 564 726 Q 548 726 378 686 C 349 679 352 641 380 651 Z" fill="red"></path>
				<path d="M 410 602 Q 452 556 469 553 Q 479 553 484 567 Q 485 577 477 593 Q 470 605 452 610 Q 425 622 414 623 Q 407 624 406 616 Q 405 609 410 602 Z" fill="lightgray"></path>
				<path d="M 357 370 Q 388 389 448 400 Q 575 425 708 428 Q 736 432 749 420 Q 759 410 750 371 Q 731 290 715 269 Q 705 257 680 262 Q 652 269 625 277 Q 610 281 611 275 Q 610 271 619 262 Q 665 213 682 180 Q 689 161 707 169 Q 759 193 771 234 Q 787 283 800 341 Q 809 377 827 406 Q 840 421 829 433 Q 813 452 778 475 Q 759 487 731 476 Q 673 454 621 451 Q 545 447 392 423 Q 367 419 366 440 Q 367 498 369 559 Q 369 617 380 651 C 386 680 386 680 378 686 Q 375 689 373 691 L 360 699 Q 351 706 338 711 Q 320 718 311 709 Q 305 705 313 692 Q 325 668 321 516 Q 321 459 308 410 Q 302 389 318 374 Q 337 356 357 370 Z" fill="lightgray"></path>
				<path d="M 362 303 Q 349 313 337 318 Q 315 331 298 324 Q 285 320 292 306 Q 316 266 291 157 Q 263 67 192 16 Q 177 6 163 -6 Q 151 -15 163 -17 Q 211 -17 269 36 Q 332 90 353 195 Q 359 249 371 271 C 380 291 380 291 362 303 Z" fill="lightgray"></path>
				<path d="M 371 271 Q 384 272 398 279 Q 434 289 472 297 Q 490 303 495 295 Q 501 291 497 270 Q 467 105 520 32 Q 574 -22 669 -35 Q 708 -38 757 -36 Q 842 -30 913 7 Q 935 20 924 46 Q 896 110 889 183 Q 885 192 879 192 Q 876 192 869 178 Q 845 73 822 52 Q 759 16 614 36 Q 583 43 565 62 Q 543 81 536 125 Q 524 191 552 245 Q 561 272 578 285 Q 612 310 534 342 Q 509 354 493 344 Q 456 323 362 303 C 333 296 342 263 371 271 Z" fill="lightgray"></path>
</g>
		<text x="40" y="140" font-size="128" fill="#999999">2</text></g>
		<g id="id0:id2:id2" transform="matrix(1.0,0,0,1.0,2048,0.0)">			<g stroke="lightgray" stroke-width="4" transform="scale(4, 4)"> <rect x="0" y="0" width="256" height="256" fill="white" stroke-width="4"/></g>
			<g transform="scale(0.92, -0.92) translate(60, -920)">					<path d="M 373 691 Q 415 718 469 757 Q 485 773 507 782 Q 526 792 516 808 Q 503 823 479 835 Q 457 847 446 844 Q 434 843 439 830 Q 442 806 360 699 C 342 675 348 675 373 691 Z" fill="black"></path>
				<path d="M 380 651 Q 387 651 395 656 Q 449 675 584 698 Q 596 699 604 693 Q 614 689 613 672 Q 610 633 593 565 Q 589 538 563 543 Q 535 544 513 548 Q 500 549 503 541 Q 504 532 531 515 Q 559 490 576 462 Q 583 453 593 456 Q 600 457 615 479 Q 630 500 646 560 Q 659 668 677 684 Q 687 694 681 705 Q 672 715 636 735 Q 623 741 564 726 Q 548 726 378 686 C 349 679 352 641 380 651 Z" fill="black"></path>
				<path d="M 410 602 Q 452 556 469 553 Q 479 553 484 567 Q 485 577 477 593 Q 470 605 452 610 Q 425 622 414 623 Q 407 624 406 616 Q 405 609 410 602 Z" fill="red"></path>
				<path d="M 357 370 Q 388 389 448 400 Q 575 425 708 428 Q 736 432 749 420 Q 759 410 750 371 Q 731 290 715 269 Q 705 257 680 262 Q 652 269 625 277 Q 610 281 611 275 Q 610 271 619 262 Q 665 213 682 180 Q 689 161 707 169 Q 759 193 771 234 Q 787 283 800 341 Q 809 377 827 406 Q 840 421 829 433 Q 813 452 778 475 Q 759 487 731 476 Q 673 454 621 451 Q 545 447 392 423 Q 367 419 366 440 Q 367 498 369 559 Q 369 617 380 651 C 386 680 386 680 378 686 Q 375 689 373 691 L 360 699 Q 351 706 338 711 Q 320 718 311 709 Q 305 705 313 692 Q 325 668 321 516 Q 321 459 308 410 Q 302 389 318 374 Q 337 356 357 370 Z" fill="lightgray"></path>
				<path d="M 362 303 Q 349 313 337 318 Q 315 331 298 324 Q 285 320 292 306 Q 316 266 291 157 Q 263 67 192 16 Q 177 6 163 -6 Q 151 -15 163 -17 Q 211 -17 269 36 Q 332 90 353 195 Q 359 249 371 271 C 380 291 380 291 362 303 Z" fill="lightgray"></path>
				<path d="M 371 271 Q 384 272 398 279 Q 434 289 472 297 Q 490 303 495 295 Q 501 291 497 270 Q 467 105 520 32 Q 574 -22 669 -35 Q 708 -38 757 -36 Q 842 -30 913 7 Q 935 20 924 46 Q 896 110 889 183 Q 885 192 879 192 Q 876 192 869 178 Q 845 73 822 52 Q 759 16 614 36 Q 583 43 565 62 Q 543 81 536 125 Q 524 191 552 245 Q 561 272 578 285 Q 612 310 534 342 Q 509 354 493 344 Q 456 323 362 303 C 333 296 342 263 371 271 Z" fill="lightgray"></path>
</g>
		<text x="40" y="140" font-size="128" fill="#999999">3</text></g>
		<g id="id0:id3:id3" transform="matrix(1.0,0,0,1.0,3072,0.0)">			<g stroke="lightgray" stroke-width="4" transform="scale(4, 4)"> <rect x="0" y="0" width="256" height="256" fill="white" stroke-width="4"/></g>
			<g transform="scale(0.92, -0.92) translate(60, -920)">					<path d="M 373 691 Q 415 718 469 757 Q 485 773 507 782 Q 526 792 516 808 Q 503 823 479 835 Q 457 847 446 844 Q 434 843 439 830 Q 442 806 360 699 C 342 675 348 675 373 691 Z" fill="black"></path>
				<path d="M 380 651 Q 387 651 395 656 Q 449 675 584 698 Q 596 699 604 693 Q 614 689 613 672 Q 610 633 593 565 Q 589 538 563 543 Q 535 544 513 548 Q 500 549 503 541 Q 504 532 531 515 Q 559 490 576 462 Q 583 453 593 456 Q 600 457 615 479 Q 630 500 646 560 Q 659 668 677 684 Q 687 694 681 705 Q 672 715 636 735 Q 623 741 564 726 Q 548 726 378 686 C 349 679 352 641 380 651 Z" fill="black"></path>
				<path d="M 410 602 Q 452 556 469 553 Q 479 553 484 567 Q 485 577 477 593 Q 470 605 452 610 Q 425 622 414 623 Q 407 624 406 616 Q 405 609 410 602 Z" fill="black"></path>
				<path d="M 357 370 Q 388 389 448 400 Q 575 425 708 428 Q 736 432 749 420 Q 759 410 750 371 Q 731 290 715 269 Q 705 257 680 262 Q 652 269 625 277 Q 610 281 611 275 Q 610 271 619 262 Q 665 213 682 180 Q 689 161 707 169 Q 759 193 771 234 Q 787 283 800 341 Q 809 377 827 406 Q 840 421 829 433 Q 813 452 778 475 Q 759 487 731 476 Q 673 454 621 451 Q 545 447 392 423 Q 367 419 366 440 Q 367 498 369 559 Q 369 617 380 651 C 386 680 386 680 378 686 Q 375 689 373 691 L 360 699 Q 351 706 338 711 Q 320 718 311 709 Q 305 705 313 692 Q 325 668 321 516 Q 321 459 308 410 Q 302 389 318 374 Q 337 356 357 370 Z" fill="red"></path>
				<path d="M 362 303 Q 349 313 337 318 Q 315 331 298 324 Q 285 320 292 306 Q 316 266 291 157 Q 263 67 192 16 Q 177 6 163 -6 Q 151 -15 163 -17 Q 211 -17 269 36 Q 332 90 353 195 Q 359 249 371 271 C 380 291 380 291 362 303 Z" fill="lightgray"></path>
				<path d="M 371 271 Q 384 272 398 279 Q 434 289 472 297 Q 490 303 495 295 Q 501 291 497 270 Q 467 105 520 32 Q 574 -22 669 -35 Q 708 -38 757 -36 Q 842 -30 913 7 Q 935 20 924 46 Q 896 110 889 183 Q 885 192 879 192 Q 876 192 869 178 Q 845 73 822 52 Q 759 16 614 36 Q 583 43 565 62 Q 543 81 536 125 Q 524 191 552 245 Q 561 272 578 285 Q 612 310 534 342 Q 509 354 493 344 Q 456 323 362 303 C 333 296 342 263 371 271 Z" fill="lightgray"></path>
</g>
		<text x="40" y="140" font-size="128" fill="#999999">4</text></g>
		<g id="id0:id4:id4" transform="matrix(1.0,0,0,1.0,4096,0.0)">			<g stroke="lightgray" stroke-width="4" transform="scale(4, 4)"> <rect x="0" y="0" width="256" height="256" fill="white" stroke-width="4"/></g>
			<g transform="scale(0.92, -0.92) translate(60, -920)">					<path d="M 373 691 Q 415 718 469 757 Q 485 773 507 782 Q 526 792 516 808 Q 503 823 479 835 Q 457 847 446 844 Q 434 843 439 830 Q 442 806 360 699 C 342 675 348 675 373 691 Z" fill="black"></path>
				<path d="M 380 651 Q 387 651 395 656 Q 449 675 584 698 Q 596 699 604 693 Q 614 689 613 672 Q 610 633 593 565 Q 589 538 563 543 Q 535 544 513 548 Q 500 549 503 541 Q 504 532 531 515 Q 559 490 576 462 Q 583 453 593 456 Q 600 457 615 479 Q 630 500 646 560 Q 659 668 677 684 Q 687 694 681 705 Q 672 715 636 735 Q 623 741 564 726 Q 548 726 378 686 C 349 679 352 641 380 651 Z" fill="black"></path>
				<path d="M 410 602 Q 452 556 469 553 Q 479 553 484 567 Q 485 577 477 593 Q 470 605 452 610 Q 425 622 414 623 Q 407 624 406 616 Q 405 609 410 602 Z" fill="black"></path>
				<path d="M 357 370 Q 388 389 448 400 Q 575 425 708 428 Q 736 432 749 420 Q 759 410 750 371 Q 731 290 715 269 Q 705 257 680 262 Q 652 269 625 277 Q 610 281 611 275 Q 610 271 619 262 Q 665 213 682 180 Q 689 161 707 169 Q 759 193 771 234 Q 787 283 800 341 Q 809 377 827 406 Q 840 421 829 433 Q 813 452 778 475 Q 759 487 731 476 Q 673 454 621 451 Q 545 447 392 423 Q 367 419 366 440 Q 367 498 369 559 Q 369 617 380 651 C 386 680 386 680 378 686 Q 375 689 373 691 L 360 699 Q 351 706 338 711 Q 320 718 311 709 Q 305 705 313 692 Q 325 668 321 516 Q 321 459 308 410 Q 302 389 318 374 Q 337 356 357 370 Z" fill="black"></path>
				<path d="M 362 303 Q 349 313 337 318 Q 315 331 298 324 Q 285 320 292 306 Q 316 266 291 157 Q 263 67 192 16 Q 177 6 163 -6 Q 151 -15 163 -17 Q 211 -17 269 36 Q 332 90 353 195 Q 359 249 371 271 C 380 291 380 291 362 303 Z" fill="red"></path>
				<path d="M 371 271 Q 384 272 398 279 Q 434 289 472 297 Q 490 303 495 295 Q 501 291 497 270 Q 467 105 520 32 Q 574 -22 669 -35 Q 708 -38 757 -36 Q 842 -30 913 7 Q 935 20 924 46 Q 896 110 889 183 Q 885 192 879 192 Q 876 192 869 178 Q 845 73 822 52 Q 759 16 614 36 Q 583 43 565 62 Q 543 81 536 125 Q 524 191 552 245 Q 561 272 578 285 Q 612 310 534 342 Q 509 354 493 344 Q 456 323 362 303 C 333 296 342 263 371 271 Z" fill="lightgray"></path>
</g>
		<text x="40" y="140" font-size="128" fill="#999999">5</text></g>
</g>
	<g id="id1:id1" transform="translate(0.0,1024)">
		<g id="id1:id0:id0" transform="matrix(1.0,0,0,1.0,0,0.0)">			<g stroke="lightgray" stroke-width="4" transform="scale(4, 4)"> <rect x="0" y="0" width="256" height="256" fill="white" stroke-width="4"/></g>
			<g transform="scale(0.92, -0.92) translate(60, -920)">					<path d="M 373 691 Q 415 718 469 757 Q 485 773 507 782 Q 526 792 516 808 Q 503 823 479 835 Q 457 847 446 844 Q 434 843 439 830 Q 442 806 360 699 C 342 675 348 675 373 691 Z" fill="black"></path>
				<path d="M 380 651 Q 387 651 395 656 Q 449 675 584 698 Q 596 699 604 693 Q 614 689 613 672 Q 610 633 593 565 Q 589 538 563 543 Q 535 544 513 548 Q 500 549 503 541 Q 504 532 531 515 Q 559 490 576 462 Q 583 453 593 456 Q 600 457 615 479 Q 630 500 646 560 Q 659 668 677 684 Q 687 694 681 705 Q 672 715 636 735 Q 623 741 564 726 Q 548 726 378 686 C 349 679 352 641 380 651 Z" fill="black"></path>
				<path d="M 410 602 Q 452 556 469 553 Q 479 553 484 567 Q 485 577 477 593 Q 470 605 452 610 Q 425 622 414 623 Q 407 624 406 616 Q 405 609 410 602 Z" fill="black"></path>
				<path d="M 357 370 Q 388 389 448 400 Q 575 425 708 428 Q 736 432 749 420 Q 759 410 750 371 Q 731 290 715 269 Q 705 257 680 262 Q 652 269 625 277 Q 610 281 611 275 Q 610 271 619 262 Q 665 213 682 180 Q 689 161 707 169 Q 759 193 771 234 Q 787 283 800 341 Q 809 377 827 406 Q 840 421 829 433 Q 813 452 778 475 Q 759 487 731 476 Q 673 454 621 451 Q 545 447 392 423 Q 367 419 366 440 Q 367 498 369 559 Q 369 617 380 651 C 386 680 386 680 378 686 Q 375 689 373 691 L 360 699 Q 351 706 338 711 Q 320 718 311 709 Q 305 705 313 692 Q 325 668 321 516 Q 321 459 308 410 Q 302 389 318 374 Q 337 356 357 370 Z" fill="black"></path>
				<path d="M 362 303 Q 349 313 337 318 Q 315 331 298 324 Q 285 320 292 306 Q 316 266 291 157 Q 263 67 192 16 Q 177 6 163 -6 Q 151 -15 163 -17 Q 211 -17 269 36 Q 332 90 353 195 Q 359 249 371 271 C 380 291 380 291 362 303 Z" fill="black"></path>
				<path d="M 371 271 Q 384 272 398 279 Q 434 289 472 297 Q 490 303 495 295 Q 501 291 497 270 Q 467 105 520 32 Q 574 -22 669 -35 Q 708 -38 757 -36 Q 842 -30 913 7 Q 935 20 924 46 Q 896 110 889 183 Q 885 192 879 192 Q 876 192 869 178 Q 845 73 822 52 Q 759 16 614 36 Q 583 43 565 62 Q 543 81 536 125 Q 524 191 552 245 Q 561 272 578 285 Q 612 310 534 342 Q 509 354 493 344 Q 456 323 362 303 C 333 296 342 263 371 271 Z" fill="red"></path>
</g>
		<text x="40" y="140" font-size="128" fill="#999999">6</text></g>
		<g id="id1:id1:id1" transform="matrix(1.0,0,0,1.0,1024,0.0)">			<g stroke="white" stroke-width="4" transform="scale(4, 4)"> <rect x="1" y="1" width="255" height="255" fill="white" stroke-width="0"/></g>
</g>
		<g id="id1:id2:id2" transform="matrix(1.0,0,0,1.0,2048,0.0)">			<g stroke="white" stroke-width="4" transform="scale(4, 4)"> <rect x="1" y="1" width="255" height="255" fill="white" stroke-width="0"/></g>
</g>
		<g id="id1:id3:id3" transform="matrix(1.0,0,0,1.0,3072,0.0)">			<g stroke="white" stroke-width="4" transform="scale(4, 4)"> <rect x="1" y="1" width="255" height="255" fill="white" stroke-width="0"/></g>
</g>
		<g id="id1:id4:id4" transform="matrix(1.0,0,0,1.0,4096,0.0)">			<g stroke="white" stroke-width="4" transform="scale(4, 4)"> <rect x="1" y="1" width="255" height="255" fill="white" stroke-width="0"/></g>
</g>
</g>
</svg>
