<?xml version="1.0" standalone="no"?>
<!DOCTYPE svg PUBLIC "-//W3C//DTD SVG 1.1//EN"
 "http://www.w3.org/Graphics/SVG/1.1/DTD/svg11.dtd">
<!-- generate by Japanese dictionary app com.asnsami.kanjidictionary -->

<svg xmlns="http://www.w3.org/2000/svg" xmlns:sodipodi="http://sodipodi.sourceforge.net/DTD/sodipodi-0.dtd" version="1.1" width="640" height="256" viewBox="0 0 5120 2048">
	<g id="id0:id0" transform="translate(0.0,0)">
		<g id="id0:id0:id0" transform="matrix(1.0,0,0,1.0,0,0.0)">			<g stroke="lightgray" stroke-width="4" transform="scale(4, 4)"> <rect x="0" y="0" width="256" height="256" fill="white" stroke-width="4"/></g>
			<g transform="scale(0.92, -0.92) translate(60, -920)">					<path d="M 506 562 Q 512 622 519 677 L 522 711 Q 523 718 524 726 Q 528 759 537 779 Q 541 789 521 805 Q 487 824 464 828 Q 448 831 440 823 Q 433 816 440 801 Q 456 780 457 765 Q 464 669 464 556 C 464 526 503 532 506 562 Z" fill="red"></path>
				<path d="M 519 677 Q 556 671 589 681 Q 736 718 744 725 Q 753 732 748 741 Q 741 751 712 757 Q 688 760 614 734 Q 589 727 522 711 C 493 704 489 681 519 677 Z" fill="lightgray"></path>
				<path d="M 283 538 Q 256 560 235 553 Q 228 549 233 534 Q 251 462 252 451 Q 252 199 227 104 Q 209 46 248 -6 Q 260 -21 271 -7 Q 284 9 285 30 L 290 69 Q 290 94 296 202 L 296 226 Q 297 290 301 339 L 302 363 Q 306 471 309 482 Q 310 494 310 501 C 311 519 308 521 283 538 Z" fill="lightgray"></path>
				<path d="M 668 54 Q 696 17 718 -18 Q 728 -37 740 -37 Q 758 -36 775 1 Q 794 44 791 95 Q 781 228 775 473 Q 774 507 792 533 Q 802 548 792 559 Q 771 581 712 607 Q 693 617 675 607 Q 605 582 506 562 L 464 556 Q 340 540 283 538 C 253 536 280 497 310 501 Q 355 505 624 554 Q 673 561 698 543 Q 731 510 713 107 Q 712 103 712 98 Q 708 82 693 83 C 673 61 667 55 668 54 Z" fill="lightgray"></path>
				<path d="M 539 253 Q 563 325 592 345 Q 608 364 593 380 Q 577 392 528 415 Q 512 422 491 413 Q 416 380 302 363 C 272 358 272 347 301 339 Q 325 330 359 341 Q 495 368 503 362 Q 513 352 495 263 C 489 234 529 225 539 253 Z" fill="lightgray"></path>
				<path d="M 296 202 Q 308 190 331 195 Q 400 210 547 222 Q 557 223 559 232 Q 559 239 539 253 L 495 263 Q 489 263 483 261 Q 381 236 299 227 Q 295 227 296 226 C 270 221 272 220 296 202 Z" fill="lightgray"></path>
				<path d="M 285 30 Q 294 29 305 30 Q 422 49 668 54 C 698 55 715 63 693 83 Q 686 90 674 99 Q 656 111 622 105 Q 438 75 290 69 C 260 68 255 31 285 30 Z" fill="lightgray"></path>
</g>
		<text x="40" y="140" font-size="128" fill="#999999">1</text></g>
		<g id="id0:id1:id1" transform="matrix(1.0,0,0,1.0,1024,0.0)">			<g stroke="lightgray" stroke-width="4" transform="scale(4, 4)"> <rect x="0" y="0" width="256" height="256" fill="white" stroke-width="4"/></g>
			<g transform="scale(0.92, -0.92) translate(60, -920)">					<path d="M 506 562 Q 512 622 519 677 L 522 711 Q 523 718 524 726 Q 528 759 537 779 Q 541 789 521 805 Q 487 824 464 828 Q 448 831 440 823 Q 433 816 440 801 Q 456 780 457 765 Q 464 669 464 556 C 464 526 503 532 506 562 Z" fill="black"></path>
				<path d="M 519 677 Q 556 671 589 681 Q 736 718 744 725 Q 753 732 748 741 Q 741 751 712 757 Q 688 760 614 734 Q 589 727 522 711 C 493 704 489 681 519 677 Z" fill="red"></path>
				<path d="M 283 538 Q 256 560 235 553 Q 228 549 233 534 Q 251 462 252 451 Q 252 199 227 104 Q 209 46 248 -6 Q 260 -21 271 -7 Q 284 9 285 30 L 290 69 Q 290 94 296 202 L 296 226 Q 297 290 301 339 L 302 363 Q 306 471 309 482 Q 310 494 310 501 C 311 519 308 521 283 538 Z" fill="lightgray"></path>
				<path d="M 668 54 Q 696 17 718 -18 Q 728 -37 740 -37 Q 758 -36 775 1 Q 794 44 791 95 Q 781 228 775 473 Q 774 507 792 533 Q 802 548 792 559 Q 771 581 712 607 Q 693 617 675 607 Q 605 582 506 562 L 464 556 Q 340 540 283 538 C 253 536 280 497 310 501 Q 355 505 624 554 Q 673 561 698 543 Q 731 510 713 107 Q 712 103 712 98 Q 708 82 693 83 C 673 61 667 55 668 54 Z" fill="lightgray"></path>
				<path d="M 539 253 Q 563 325 592 345 Q 608 364 593 380 Q 577 392 528 415 Q 512 422 491 413 Q 416 380 302 363 C 272 358 272 347 301 339 Q 325 330 359 341 Q 495 368 503 362 Q 513 352 495 263 C 489 234 529 225 539 253 Z" fill="lightgray"></path>
				<path d="M 296 202 Q 308 190 331 195 Q 400 210 547 222 Q 557 223 559 232 Q 559 239 539 253 L 495 263 Q 489 263 483 261 Q 381 236 299 227 Q 295 227 296 226 C 270 221 272 220 296 202 Z" fill="lightgray"></path>
				<path d="M 285 30 Q 294 29 305 30 Q 422 49 668 54 C 698 55 715 63 693 83 Q 686 90 674 99 Q 656 111 622 105 Q 438 75 290 69 C 260 68 255 31 285 30 Z" fill="lightgray"></path>
</g>
		<text x="40" y="140" font-size="128" fill="#999999">2</text></g>
		<g id="id0:id2:id2" transform="matrix(1.0,0,0,1.0,2048,0.0)">			<g stroke="lightgray" stroke-width="4" transform="scale(4, 4)"> <rect x="0" y="0" width="256" height="256" fill="white" stroke-width="4"/></g>
			<g transform="scale(0.92, -0.92) translate(60, -920)">					<path d="M 506 562 Q 512 622 519 677 L 522 711 Q 523 718 524 726 Q 528 759 537 779 Q 541 789 521 805 Q 487 824 464 828 Q 448 831 440 823 Q 433 816 440 801 Q 456 780 457 765 Q 464 669 464 556 C 464 526 503 532 506 562 Z" fill="black"></path>
				<path d="M 519 677 Q 556 671 589 681 Q 736 718 744 725 Q 753 732 748 741 Q 741 751 712 757 Q 688 760 614 734 Q 589 727 522 711 C 493 704 489 681 519 677 Z" fill="black"></path>
				<path d="M 283 538 Q 256 560 235 553 Q 228 549 233 534 Q 251 462 252 451 Q 252 199 227 104 Q 209 46 248 -6 Q 260 -21 271 -7 Q 284 9 285 30 L 290 69 Q 290 94 296 202 L 296 226 Q 297 290 301 339 L 302 363 Q 306 471 309 482 Q 310 494 310 501 C 311 519 308 521 283 538 Z" fill="red"></path>
				<path d="M 668 54 Q 696 17 718 -18 Q 728 -37 740 -37 Q 758 -36 775 1 Q 794 44 791 95 Q 781 228 775 473 Q 774 507 792 533 Q 802 548 792 559 Q 771 581 712 607 Q 693 617 675 607 Q 605 582 506 562 L 464 556 Q 340 540 283 538 C 253 536 280 497 310 501 Q 355 505 624 554 Q 673 561 698 543 Q 731 510 713 107 Q 712 103 712 98 Q 708 82 693 83 C 673 61 667 55 668 54 Z" fill="lightgray"></path>
				<path d="M 539 253 Q 563 325 592 345 Q 608 364 593 380 Q 577 392 528 415 Q 512 422 491 413 Q 416 380 302 363 C 272 358 272 347 301 339 Q 325 330 359 341 Q 495 368 503 362 Q 513 352 495 263 C 489 234 529 225 539 253 Z" fill="lightgray"></path>
				<path d="M 296 202 Q 308 190 331 195 Q 400 210 547 222 Q 557 223 559 232 Q 559 239 539 253 L 495 263 Q 489 263 483 261 Q 381 236 299 227 Q 295 227 296 226 C 270 221 272 220 296 202 Z" fill="lightgray"></path>
				<path d="M 285 30 Q 294 29 305 30 Q 422 49 668 54 C 698 55 715 63 693 83 Q 686 90 674 99 Q 656 111 622 105 Q 438 75 290 69 C 260 68 255 31 285 30 Z" fill="lightgray"></path>
</g>
		<text x="40" y="140" font-size="128" fill="#999999">3</text></g>
		<g id="id0:id3:id3" transform="matrix(1.0,0,0,1.0,3072,0.0)">			<g stroke="lightgray" stroke-width="4" transform="scale(4, 4)"> <rect x="0" y="0" width="256" height="256" fill="white" stroke-width="4"/></g>
			<g transform="scale(0.92, -0.92) translate(60, -920)">					<path d="M 506 562 Q 512 622 519 677 L 522 711 Q 523 718 524 726 Q 528 759 537 779 Q 541 789 521 805 Q 487 824 464 828 Q 448 831 440 823 Q 433 816 440 801 Q 456 780 457 765 Q 464 669 464 556 C 464 526 503 532 506 562 Z" fill="black"></path>
				<path d="M 519 677 Q 556 671 589 681 Q 736 718 744 725 Q 753 732 748 741 Q 741 751 712 757 Q 688 760 614 734 Q 589 727 522 711 C 493 704 489 681 519 677 Z" fill="black"></path>
				<path d="M 283 538 Q 256 560 235 553 Q 228 549 233 534 Q 251 462 252 451 Q 252 199 227 104 Q 209 46 248 -6 Q 260 -21 271 -7 Q 284 9 285 30 L 290 69 Q 290 94 296 202 L 296 226 Q 297 290 301 339 L 302 363 Q 306 471 309 482 Q 310 494 310 501 C 311 519 308 521 283 538 Z" fill="black"></path>
				<path d="M 668 54 Q 696 17 718 -18 Q 728 -37 740 -37 Q 758 -36 775 1 Q 794 44 791 95 Q 781 228 775 473 Q 774 507 792 533 Q 802 548 792 559 Q 771 581 712 607 Q 693 617 675 607 Q 605 582 506 562 L 464 556 Q 340 540 283 538 C 253 536 280 497 310 501 Q 355 505 624 554 Q 673 561 698 543 Q 731 510 713 107 Q 712 103 712 98 Q 708 82 693 83 C 673 61 667 55 668 54 Z" fill="red"></path>
				<path d="M 539 253 Q 563 325 592 345 Q 608 364 593 380 Q 577 392 528 415 Q 512 422 491 413 Q 416 380 302 363 C 272 358 272 347 301 339 Q 325 330 359 341 Q 495 368 503 362 Q 513 352 495 263 C 489 234 529 225 539 253 Z" fill="lightgray"></path>
				<path d="M 296 202 Q 308 190 331 195 Q 400 210 547 222 Q 557 223 559 232 Q 559 239 539 253 L 495 263 Q 489 263 483 261 Q 381 236 299 227 Q 295 227 296 226 C 270 221 272 220 296 202 Z" fill="lightgray"></path>
				<path d="M 285 30 Q 294 29 305 30 Q 422 49 668 54 C 698 55 715 63 693 83 Q 686 90 674 99 Q 656 111 622 105 Q 438 75 290 69 C 260 68 255 31 285 30 Z" fill="lightgray"></path>
</g>
		<text x="40" y="140" font-size="128" fill="#999999">4</text></g>
		<g id="id0:id4:id4" transform="matrix(1.0,0,0,1.0,4096,0.0)">			<g stroke="lightgray" stroke-width="4" transform="scale(4, 4)"> <rect x="0" y="0" width="256" height="256" fill="white" stroke-width="4"/></g>
			<g transform="scale(0.92, -0.92) translate(60, -920)">					<path d="M 506 562 Q 512 622 519 677 L 522 711 Q 523 718 524 726 Q 528 759 537 779 Q 541 789 521 805 Q 487 824 464 828 Q 448 831 440 823 Q 433 816 440 801 Q 456 780 457 765 Q 464 669 464 556 C 464 526 503 532 506 562 Z" fill="black"></path>
				<path d="M 519 677 Q 556 671 589 681 Q 736 718 744 725 Q 753 732 748 741 Q 741 751 712 757 Q 688 760 614 734 Q 589 727 522 711 C 493 704 489 681 519 677 Z" fill="black"></path>
				<path d="M 283 538 Q 256 560 235 553 Q 228 549 233 534 Q 251 462 252 451 Q 252 199 227 104 Q 209 46 248 -6 Q 260 -21 271 -7 Q 284 9 285 30 L 290 69 Q 290 94 296 202 L 296 226 Q 297 290 301 339 L 302 363 Q 306 471 309 482 Q 310 494 310 501 C 311 519 308 521 283 538 Z" fill="black"></path>
				<path d="M 668 54 Q 696 17 718 -18 Q 728 -37 740 -37 Q 758 -36 775 1 Q 794 44 791 95 Q 781 228 775 473 Q 774 507 792 533 Q 802 548 792 559 Q 771 581 712 607 Q 693 617 675 607 Q 605 582 506 562 L 464 556 Q 340 540 283 538 C 253 536 280 497 310 501 Q 355 505 624 554 Q 673 561 698 543 Q 731 510 713 107 Q 712 103 712 98 Q 708 82 693 83 C 673 61 667 55 668 54 Z" fill="black"></path>
				<path d="M 539 253 Q 563 325 592 345 Q 608 364 593 380 Q 577 392 528 415 Q 512 422 491 413 Q 416 380 302 363 C 272 358 272 347 301 339 Q 325 330 359 341 Q 495 368 503 362 Q 513 352 495 263 C 489 234 529 225 539 253 Z" fill="red"></path>
				<path d="M 296 202 Q 308 190 331 195 Q 400 210 547 222 Q 557 223 559 232 Q 559 239 539 253 L 495 263 Q 489 263 483 261 Q 381 236 299 227 Q 295 227 296 226 C 270 221 272 220 296 202 Z" fill="lightgray"></path>
				<path d="M 285 30 Q 294 29 305 30 Q 422 49 668 54 C 698 55 715 63 693 83 Q 686 90 674 99 Q 656 111 622 105 Q 438 75 290 69 C 260 68 255 31 285 30 Z" fill="lightgray"></path>
</g>
		<text x="40" y="140" font-size="128" fill="#999999">5</text></g>
</g>
	<g id="id1:id1" transform="translate(0.0,1024)">
		<g id="id1:id0:id0" transform="matrix(1.0,0,0,1.0,0,0.0)">			<g stroke="lightgray" stroke-width="4" transform="scale(4, 4)"> <rect x="0" y="0" width="256" height="256" fill="white" stroke-width="4"/></g>
			<g transform="scale(0.92, -0.92) translate(60, -920)">					<path d="M 506 562 Q 512 622 519 677 L 522 711 Q 523 718 524 726 Q 528 759 537 779 Q 541 789 521 805 Q 487 824 464 828 Q 448 831 440 823 Q 433 816 440 801 Q 456 780 457 765 Q 464 669 464 556 C 464 526 503 532 506 562 Z" fill="black"></path>
				<path d="M 519 677 Q 556 671 589 681 Q 736 718 744 725 Q 753 732 748 741 Q 741 751 712 757 Q 688 760 614 734 Q 589 727 522 711 C 493 704 489 681 519 677 Z" fill="black"></path>
				<path d="M 283 538 Q 256 560 235 553 Q 228 549 233 534 Q 251 462 252 451 Q 252 199 227 104 Q 209 46 248 -6 Q 260 -21 271 -7 Q 284 9 285 30 L 290 69 Q 290 94 296 202 L 296 226 Q 297 290 301 339 L 302 363 Q 306 471 309 482 Q 310 494 310 501 C 311 519 308 521 283 538 Z" fill="black"></path>
				<path d="M 668 54 Q 696 17 718 -18 Q 728 -37 740 -37 Q 758 -36 775 1 Q 794 44 791 95 Q 781 228 775 473 Q 774 507 792 533 Q 802 548 792 559 Q 771 581 712 607 Q 693 617 675 607 Q 605 582 506 562 L 464 556 Q 340 540 283 538 C 253 536 280 497 310 501 Q 355 505 624 554 Q 673 561 698 543 Q 731 510 713 107 Q 712 103 712 98 Q 708 82 693 83 C 673 61 667 55 668 54 Z" fill="black"></path>
				<path d="M 539 253 Q 563 325 592 345 Q 608 364 593 380 Q 577 392 528 415 Q 512 422 491 413 Q 416 380 302 363 C 272 358 272 347 301 339 Q 325 330 359 341 Q 495 368 503 362 Q 513 352 495 263 C 489 234 529 225 539 253 Z" fill="black"></path>
				<path d="M 296 202 Q 308 190 331 195 Q 400 210 547 222 Q 557 223 559 232 Q 559 239 539 253 L 495 263 Q 489 263 483 261 Q 381 236 299 227 Q 295 227 296 226 C 270 221 272 220 296 202 Z" fill="red"></path>
				<path d="M 285 30 Q 294 29 305 30 Q 422 49 668 54 C 698 55 715 63 693 83 Q 686 90 674 99 Q 656 111 622 105 Q 438 75 290 69 C 260 68 255 31 285 30 Z" fill="lightgray"></path>
</g>
		<text x="40" y="140" font-size="128" fill="#999999">6</text></g>
		<g id="id1:id1:id1" transform="matrix(1.0,0,0,1.0,1024,0.0)">			<g stroke="lightgray" stroke-width="4" transform="scale(4, 4)"> <rect x="0" y="0" width="256" height="256" fill="white" stroke-width="4"/></g>
			<g transform="scale(0.92, -0.92) translate(60, -920)">					<path d="M 506 562 Q 512 622 519 677 L 522 711 Q 523 718 524 726 Q 528 759 537 779 Q 541 789 521 805 Q 487 824 464 828 Q 448 831 440 823 Q 433 816 440 801 Q 456 780 457 765 Q 464 669 464 556 C 464 526 503 532 506 562 Z" fill="black"></path>
				<path d="M 519 677 Q 556 671 589 681 Q 736 718 744 725 Q 753 732 748 741 Q 741 751 712 757 Q 688 760 614 734 Q 589 727 522 711 C 493 704 489 681 519 677 Z" fill="black"></path>
				<path d="M 283 538 Q 256 560 235 553 Q 228 549 233 534 Q 251 462 252 451 Q 252 199 227 104 Q 209 46 248 -6 Q 260 -21 271 -7 Q 284 9 285 30 L 290 69 Q 290 94 296 202 L 296 226 Q 297 290 301 339 L 302 363 Q 306 471 309 482 Q 310 494 310 501 C 311 519 308 521 283 538 Z" fill="black"></path>
				<path d="M 668 54 Q 696 17 718 -18 Q 728 -37 740 -37 Q 758 -36 775 1 Q 794 44 791 95 Q 781 228 775 473 Q 774 507 792 533 Q 802 548 792 559 Q 771 581 712 607 Q 693 617 675 607 Q 605 582 506 562 L 464 556 Q 340 540 283 538 C 253 536 280 497 310 501 Q 355 505 624 554 Q 673 561 698 543 Q 731 510 713 107 Q 712 103 712 98 Q 708 82 693 83 C 673 61 667 55 668 54 Z" fill="black"></path>
				<path d="M 539 253 Q 563 325 592 345 Q 608 364 593 380 Q 577 392 528 415 Q 512 422 491 413 Q 416 380 302 363 C 272 358 272 347 301 339 Q 325 330 359 341 Q 495 368 503 362 Q 513 352 495 263 C 489 234 529 225 539 253 Z" fill="black"></path>
				<path d="M 296 202 Q 308 190 331 195 Q 400 210 547 222 Q 557 223 559 232 Q 559 239 539 253 L 495 263 Q 489 263 483 261 Q 381 236 299 227 Q 295 227 296 226 C 270 221 272 220 296 202 Z" fill="black"></path>
				<path d="M 285 30 Q 294 29 305 30 Q 422 49 668 54 C 698 55 715 63 693 83 Q 686 90 674 99 Q 656 111 622 105 Q 438 75 290 69 C 260 68 255 31 285 30 Z" fill="red"></path>
</g>
		<text x="40" y="140" font-size="128" fill="#999999">7</text></g>
		<g id="id1:id2:id2" transform="matrix(1.0,0,0,1.0,2048,0.0)">			<g stroke="white" stroke-width="4" transform="scale(4, 4)"> <rect x="1" y="1" width="255" height="255" fill="white" stroke-width="0"/></g>
</g>
		<g id="id1:id3:id3" transform="matrix(1.0,0,0,1.0,3072,0.0)">			<g stroke="white" stroke-width="4" transform="scale(4, 4)"> <rect x="1" y="1" width="255" height="255" fill="white" stroke-width="0"/></g>
</g>
		<g id="id1:id4:id4" transform="matrix(1.0,0,0,1.0,4096,0.0)">			<g stroke="white" stroke-width="4" transform="scale(4, 4)"> <rect x="1" y="1" width="255" height="255" fill="white" stroke-width="0"/></g>
</g>
</g>
</svg>
