<?xml version="1.0" standalone="no"?>
<!DOCTYPE svg PUBLIC "-//W3C//DTD SVG 1.1//EN"
 "http://www.w3.org/Graphics/SVG/1.1/DTD/svg11.dtd">
<!-- generate by Japanese dictionary app com.asnsami.kanjidictionary -->

<svg xmlns="http://www.w3.org/2000/svg" xmlns:sodipodi="http://sodipodi.sourceforge.net/DTD/sodipodi-0.dtd" version="1.1" width="640" height="256" viewBox="0 0 5120 2048">
	<g id="id0:id0" transform="translate(0.0,0)">
		<g id="id0:id0:id0" transform="matrix(1.0,0,0,1.0,0,0.0)">			<g stroke="lightgray" stroke-width="4" transform="scale(4, 4)"> <rect x="0" y="0" width="256" height="256" fill="white" stroke-width="4"/></g>
			<g transform="scale(0.92, -0.92) translate(60, -920)">					<path d="M 246 453 L 277 485 Q 311 520 345 562 L 379 603 Q 386 615 400 623 Q 414 631 414 640 Q 414 654 381 668 Q 328 697 326 662 Q 326 644 321 631 Q 268 534 253 511 Q 239 487 210 445 C 193 420 225 431 246 453 Z" fill="red"></path>
				<path d="M 160 436 L 142 441 L 129 443 Q 119 444 110 444 Q 99 439 99 432 Q 101 427 109 419 Q 117 411 135 370 Q 140 360 151 296 Q 162 231 164 210 L 169 156 C 172 126 214 132 212 162 L 209 219 Q 208 223 204 265 L 191 348 Q 187 368 187 381 L 187 406 C 187 429 187 429 160 436 Z" fill="lightgray"></path>
				<path d="M 500 218 L 533 351 Q 543 397 558 416 Q 573 435 573 438 Q 573 466 515 491 Q 499 502 490 502 Q 481 501 465 495 Q 450 488 432 484 L 246 453 L 210 445 L 160 436 C 130 431 158 399 187 406 L 227 416 L 259 427 L 356 443 L 385 447 L 444 453 Q 478 454 478 434 Q 478 421 475 397 L 456 208 C 453 178 493 189 500 218 Z" fill="lightgray"></path>
				<path d="M 227 416 L 235 404 Q 240 399 247 385 L 254 362 L 275 172 C 278 142 312 148 310 178 L 299 357 L 299 368 L 302 396 Q 302 402 301 405 Q 300 410 285 416 L 259 427 C 231 439 210 441 227 416 Z" fill="lightgray"></path>
				<path d="M 356 443 L 362 410 L 360 188 C 360 158 391 164 394 194 L 414 389 L 421 412 Q 420 431 385 447 C 358 460 352 463 356 443 Z" fill="lightgray"></path>
				<path d="M 131 150 L 77 158 Q 65 158 63 156 Q 56 147 70 133 L 94 108 Q 132 71 160 89 L 176 97 Q 189 103 231 114 Q 273 125 289 131 L 358 148 Q 391 158 440 168 Q 489 177 506 182 L 576 197 Q 594 202 594 211 L 594 213 Q 590 225 576 226 Q 562 226 549 224 L 500 218 L 456 208 L 394 194 L 360 188 L 310 178 L 275 172 L 212 162 L 169 156 L 131 150 Z" fill="lightgray"></path>
				<path d="M 734 248 Q 734 246 738 243 L 767 213 Q 779 200 787 186 L 800 158 Q 822 118 855 157 Q 880 184 891 213 Q 898 234 912 307 L 930 449 Q 938 487 949 501 Q 960 514 960 517 Q 959 528 938 543 L 918 555 Q 896 568 882 568 Q 869 568 854 564 Q 840 560 783 549 L 693 534 L 577 518 Q 571 516 568 514 Q 565 511 581 501 Q 587 493 598 490 Q 619 488 637 490 L 708 500 L 781 512 Q 832 521 840 521 Q 871 520 869 484 L 869 453 L 851 317 L 842 262 Q 840 239 832 234 Q 817 224 787 235 L 744 251 Q 741 254 739 254 Q 734 254 734 248 Z" fill="lightgray"></path>
				<path d="M 637 490 Q 639 486 639 442 L 633 -70 L 635 -106 Q 635 -135 639 -149 Q 643 -178 650 -178 Q 667 -178 675 -136 Q 690 -47 693 54 L 700 441 L 708 500 C 712 530 635 520 637 490 Z" fill="lightgray"></path>
</g>
		<text x="40" y="140" font-size="128" fill="#999999">1</text></g>
		<g id="id0:id1:id1" transform="matrix(1.0,0,0,1.0,1024,0.0)">			<g stroke="lightgray" stroke-width="4" transform="scale(4, 4)"> <rect x="0" y="0" width="256" height="256" fill="white" stroke-width="4"/></g>
			<g transform="scale(0.92, -0.92) translate(60, -920)">					<path d="M 246 453 L 277 485 Q 311 520 345 562 L 379 603 Q 386 615 400 623 Q 414 631 414 640 Q 414 654 381 668 Q 328 697 326 662 Q 326 644 321 631 Q 268 534 253 511 Q 239 487 210 445 C 193 420 225 431 246 453 Z" fill="black"></path>
				<path d="M 160 436 L 142 441 L 129 443 Q 119 444 110 444 Q 99 439 99 432 Q 101 427 109 419 Q 117 411 135 370 Q 140 360 151 296 Q 162 231 164 210 L 169 156 C 172 126 214 132 212 162 L 209 219 Q 208 223 204 265 L 191 348 Q 187 368 187 381 L 187 406 C 187 429 187 429 160 436 Z" fill="red"></path>
				<path d="M 500 218 L 533 351 Q 543 397 558 416 Q 573 435 573 438 Q 573 466 515 491 Q 499 502 490 502 Q 481 501 465 495 Q 450 488 432 484 L 246 453 L 210 445 L 160 436 C 130 431 158 399 187 406 L 227 416 L 259 427 L 356 443 L 385 447 L 444 453 Q 478 454 478 434 Q 478 421 475 397 L 456 208 C 453 178 493 189 500 218 Z" fill="lightgray"></path>
				<path d="M 227 416 L 235 404 Q 240 399 247 385 L 254 362 L 275 172 C 278 142 312 148 310 178 L 299 357 L 299 368 L 302 396 Q 302 402 301 405 Q 300 410 285 416 L 259 427 C 231 439 210 441 227 416 Z" fill="lightgray"></path>
				<path d="M 356 443 L 362 410 L 360 188 C 360 158 391 164 394 194 L 414 389 L 421 412 Q 420 431 385 447 C 358 460 352 463 356 443 Z" fill="lightgray"></path>
				<path d="M 131 150 L 77 158 Q 65 158 63 156 Q 56 147 70 133 L 94 108 Q 132 71 160 89 L 176 97 Q 189 103 231 114 Q 273 125 289 131 L 358 148 Q 391 158 440 168 Q 489 177 506 182 L 576 197 Q 594 202 594 211 L 594 213 Q 590 225 576 226 Q 562 226 549 224 L 500 218 L 456 208 L 394 194 L 360 188 L 310 178 L 275 172 L 212 162 L 169 156 L 131 150 Z" fill="lightgray"></path>
				<path d="M 734 248 Q 734 246 738 243 L 767 213 Q 779 200 787 186 L 800 158 Q 822 118 855 157 Q 880 184 891 213 Q 898 234 912 307 L 930 449 Q 938 487 949 501 Q 960 514 960 517 Q 959 528 938 543 L 918 555 Q 896 568 882 568 Q 869 568 854 564 Q 840 560 783 549 L 693 534 L 577 518 Q 571 516 568 514 Q 565 511 581 501 Q 587 493 598 490 Q 619 488 637 490 L 708 500 L 781 512 Q 832 521 840 521 Q 871 520 869 484 L 869 453 L 851 317 L 842 262 Q 840 239 832 234 Q 817 224 787 235 L 744 251 Q 741 254 739 254 Q 734 254 734 248 Z" fill="lightgray"></path>
				<path d="M 637 490 Q 639 486 639 442 L 633 -70 L 635 -106 Q 635 -135 639 -149 Q 643 -178 650 -178 Q 667 -178 675 -136 Q 690 -47 693 54 L 700 441 L 708 500 C 712 530 635 520 637 490 Z" fill="lightgray"></path>
</g>
		<text x="40" y="140" font-size="128" fill="#999999">2</text></g>
		<g id="id0:id2:id2" transform="matrix(1.0,0,0,1.0,2048,0.0)">			<g stroke="lightgray" stroke-width="4" transform="scale(4, 4)"> <rect x="0" y="0" width="256" height="256" fill="white" stroke-width="4"/></g>
			<g transform="scale(0.92, -0.92) translate(60, -920)">					<path d="M 246 453 L 277 485 Q 311 520 345 562 L 379 603 Q 386 615 400 623 Q 414 631 414 640 Q 414 654 381 668 Q 328 697 326 662 Q 326 644 321 631 Q 268 534 253 511 Q 239 487 210 445 C 193 420 225 431 246 453 Z" fill="black"></path>
				<path d="M 160 436 L 142 441 L 129 443 Q 119 444 110 444 Q 99 439 99 432 Q 101 427 109 419 Q 117 411 135 370 Q 140 360 151 296 Q 162 231 164 210 L 169 156 C 172 126 214 132 212 162 L 209 219 Q 208 223 204 265 L 191 348 Q 187 368 187 381 L 187 406 C 187 429 187 429 160 436 Z" fill="black"></path>
				<path d="M 500 218 L 533 351 Q 543 397 558 416 Q 573 435 573 438 Q 573 466 515 491 Q 499 502 490 502 Q 481 501 465 495 Q 450 488 432 484 L 246 453 L 210 445 L 160 436 C 130 431 158 399 187 406 L 227 416 L 259 427 L 356 443 L 385 447 L 444 453 Q 478 454 478 434 Q 478 421 475 397 L 456 208 C 453 178 493 189 500 218 Z" fill="red"></path>
				<path d="M 227 416 L 235 404 Q 240 399 247 385 L 254 362 L 275 172 C 278 142 312 148 310 178 L 299 357 L 299 368 L 302 396 Q 302 402 301 405 Q 300 410 285 416 L 259 427 C 231 439 210 441 227 416 Z" fill="lightgray"></path>
				<path d="M 356 443 L 362 410 L 360 188 C 360 158 391 164 394 194 L 414 389 L 421 412 Q 420 431 385 447 C 358 460 352 463 356 443 Z" fill="lightgray"></path>
				<path d="M 131 150 L 77 158 Q 65 158 63 156 Q 56 147 70 133 L 94 108 Q 132 71 160 89 L 176 97 Q 189 103 231 114 Q 273 125 289 131 L 358 148 Q 391 158 440 168 Q 489 177 506 182 L 576 197 Q 594 202 594 211 L 594 213 Q 590 225 576 226 Q 562 226 549 224 L 500 218 L 456 208 L 394 194 L 360 188 L 310 178 L 275 172 L 212 162 L 169 156 L 131 150 Z" fill="lightgray"></path>
				<path d="M 734 248 Q 734 246 738 243 L 767 213 Q 779 200 787 186 L 800 158 Q 822 118 855 157 Q 880 184 891 213 Q 898 234 912 307 L 930 449 Q 938 487 949 501 Q 960 514 960 517 Q 959 528 938 543 L 918 555 Q 896 568 882 568 Q 869 568 854 564 Q 840 560 783 549 L 693 534 L 577 518 Q 571 516 568 514 Q 565 511 581 501 Q 587 493 598 490 Q 619 488 637 490 L 708 500 L 781 512 Q 832 521 840 521 Q 871 520 869 484 L 869 453 L 851 317 L 842 262 Q 840 239 832 234 Q 817 224 787 235 L 744 251 Q 741 254 739 254 Q 734 254 734 248 Z" fill="lightgray"></path>
				<path d="M 637 490 Q 639 486 639 442 L 633 -70 L 635 -106 Q 635 -135 639 -149 Q 643 -178 650 -178 Q 667 -178 675 -136 Q 690 -47 693 54 L 700 441 L 708 500 C 712 530 635 520 637 490 Z" fill="lightgray"></path>
</g>
		<text x="40" y="140" font-size="128" fill="#999999">3</text></g>
		<g id="id0:id3:id3" transform="matrix(1.0,0,0,1.0,3072,0.0)">			<g stroke="lightgray" stroke-width="4" transform="scale(4, 4)"> <rect x="0" y="0" width="256" height="256" fill="white" stroke-width="4"/></g>
			<g transform="scale(0.92, -0.92) translate(60, -920)">					<path d="M 246 453 L 277 485 Q 311 520 345 562 L 379 603 Q 386 615 400 623 Q 414 631 414 640 Q 414 654 381 668 Q 328 697 326 662 Q 326 644 321 631 Q 268 534 253 511 Q 239 487 210 445 C 193 420 225 431 246 453 Z" fill="black"></path>
				<path d="M 160 436 L 142 441 L 129 443 Q 119 444 110 444 Q 99 439 99 432 Q 101 427 109 419 Q 117 411 135 370 Q 140 360 151 296 Q 162 231 164 210 L 169 156 C 172 126 214 132 212 162 L 209 219 Q 208 223 204 265 L 191 348 Q 187 368 187 381 L 187 406 C 187 429 187 429 160 436 Z" fill="black"></path>
				<path d="M 500 218 L 533 351 Q 543 397 558 416 Q 573 435 573 438 Q 573 466 515 491 Q 499 502 490 502 Q 481 501 465 495 Q 450 488 432 484 L 246 453 L 210 445 L 160 436 C 130 431 158 399 187 406 L 227 416 L 259 427 L 356 443 L 385 447 L 444 453 Q 478 454 478 434 Q 478 421 475 397 L 456 208 C 453 178 493 189 500 218 Z" fill="black"></path>
				<path d="M 227 416 L 235 404 Q 240 399 247 385 L 254 362 L 275 172 C 278 142 312 148 310 178 L 299 357 L 299 368 L 302 396 Q 302 402 301 405 Q 300 410 285 416 L 259 427 C 231 439 210 441 227 416 Z" fill="red"></path>
				<path d="M 356 443 L 362 410 L 360 188 C 360 158 391 164 394 194 L 414 389 L 421 412 Q 420 431 385 447 C 358 460 352 463 356 443 Z" fill="lightgray"></path>
				<path d="M 131 150 L 77 158 Q 65 158 63 156 Q 56 147 70 133 L 94 108 Q 132 71 160 89 L 176 97 Q 189 103 231 114 Q 273 125 289 131 L 358 148 Q 391 158 440 168 Q 489 177 506 182 L 576 197 Q 594 202 594 211 L 594 213 Q 590 225 576 226 Q 562 226 549 224 L 500 218 L 456 208 L 394 194 L 360 188 L 310 178 L 275 172 L 212 162 L 169 156 L 131 150 Z" fill="lightgray"></path>
				<path d="M 734 248 Q 734 246 738 243 L 767 213 Q 779 200 787 186 L 800 158 Q 822 118 855 157 Q 880 184 891 213 Q 898 234 912 307 L 930 449 Q 938 487 949 501 Q 960 514 960 517 Q 959 528 938 543 L 918 555 Q 896 568 882 568 Q 869 568 854 564 Q 840 560 783 549 L 693 534 L 577 518 Q 571 516 568 514 Q 565 511 581 501 Q 587 493 598 490 Q 619 488 637 490 L 708 500 L 781 512 Q 832 521 840 521 Q 871 520 869 484 L 869 453 L 851 317 L 842 262 Q 840 239 832 234 Q 817 224 787 235 L 744 251 Q 741 254 739 254 Q 734 254 734 248 Z" fill="lightgray"></path>
				<path d="M 637 490 Q 639 486 639 442 L 633 -70 L 635 -106 Q 635 -135 639 -149 Q 643 -178 650 -178 Q 667 -178 675 -136 Q 690 -47 693 54 L 700 441 L 708 500 C 712 530 635 520 637 490 Z" fill="lightgray"></path>
</g>
		<text x="40" y="140" font-size="128" fill="#999999">4</text></g>
		<g id="id0:id4:id4" transform="matrix(1.0,0,0,1.0,4096,0.0)">			<g stroke="lightgray" stroke-width="4" transform="scale(4, 4)"> <rect x="0" y="0" width="256" height="256" fill="white" stroke-width="4"/></g>
			<g transform="scale(0.92, -0.92) translate(60, -920)">					<path d="M 246 453 L 277 485 Q 311 520 345 562 L 379 603 Q 386 615 400 623 Q 414 631 414 640 Q 414 654 381 668 Q 328 697 326 662 Q 326 644 321 631 Q 268 534 253 511 Q 239 487 210 445 C 193 420 225 431 246 453 Z" fill="black"></path>
				<path d="M 160 436 L 142 441 L 129 443 Q 119 444 110 444 Q 99 439 99 432 Q 101 427 109 419 Q 117 411 135 370 Q 140 360 151 296 Q 162 231 164 210 L 169 156 C 172 126 214 132 212 162 L 209 219 Q 208 223 204 265 L 191 348 Q 187 368 187 381 L 187 406 C 187 429 187 429 160 436 Z" fill="black"></path>
				<path d="M 500 218 L 533 351 Q 543 397 558 416 Q 573 435 573 438 Q 573 466 515 491 Q 499 502 490 502 Q 481 501 465 495 Q 450 488 432 484 L 246 453 L 210 445 L 160 436 C 130 431 158 399 187 406 L 227 416 L 259 427 L 356 443 L 385 447 L 444 453 Q 478 454 478 434 Q 478 421 475 397 L 456 208 C 453 178 493 189 500 218 Z" fill="black"></path>
				<path d="M 227 416 L 235 404 Q 240 399 247 385 L 254 362 L 275 172 C 278 142 312 148 310 178 L 299 357 L 299 368 L 302 396 Q 302 402 301 405 Q 300 410 285 416 L 259 427 C 231 439 210 441 227 416 Z" fill="black"></path>
				<path d="M 356 443 L 362 410 L 360 188 C 360 158 391 164 394 194 L 414 389 L 421 412 Q 420 431 385 447 C 358 460 352 463 356 443 Z" fill="red"></path>
				<path d="M 131 150 L 77 158 Q 65 158 63 156 Q 56 147 70 133 L 94 108 Q 132 71 160 89 L 176 97 Q 189 103 231 114 Q 273 125 289 131 L 358 148 Q 391 158 440 168 Q 489 177 506 182 L 576 197 Q 594 202 594 211 L 594 213 Q 590 225 576 226 Q 562 226 549 224 L 500 218 L 456 208 L 394 194 L 360 188 L 310 178 L 275 172 L 212 162 L 169 156 L 131 150 Z" fill="lightgray"></path>
				<path d="M 734 248 Q 734 246 738 243 L 767 213 Q 779 200 787 186 L 800 158 Q 822 118 855 157 Q 880 184 891 213 Q 898 234 912 307 L 930 449 Q 938 487 949 501 Q 960 514 960 517 Q 959 528 938 543 L 918 555 Q 896 568 882 568 Q 869 568 854 564 Q 840 560 783 549 L 693 534 L 577 518 Q 571 516 568 514 Q 565 511 581 501 Q 587 493 598 490 Q 619 488 637 490 L 708 500 L 781 512 Q 832 521 840 521 Q 871 520 869 484 L 869 453 L 851 317 L 842 262 Q 840 239 832 234 Q 817 224 787 235 L 744 251 Q 741 254 739 254 Q 734 254 734 248 Z" fill="lightgray"></path>
				<path d="M 637 490 Q 639 486 639 442 L 633 -70 L 635 -106 Q 635 -135 639 -149 Q 643 -178 650 -178 Q 667 -178 675 -136 Q 690 -47 693 54 L 700 441 L 708 500 C 712 530 635 520 637 490 Z" fill="lightgray"></path>
</g>
		<text x="40" y="140" font-size="128" fill="#999999">5</text></g>
</g>
	<g id="id1:id1" transform="translate(0.0,1024)">
		<g id="id1:id0:id0" transform="matrix(1.0,0,0,1.0,0,0.0)">			<g stroke="lightgray" stroke-width="4" transform="scale(4, 4)"> <rect x="0" y="0" width="256" height="256" fill="white" stroke-width="4"/></g>
			<g transform="scale(0.92, -0.92) translate(60, -920)">					<path d="M 246 453 L 277 485 Q 311 520 345 562 L 379 603 Q 386 615 400 623 Q 414 631 414 640 Q 414 654 381 668 Q 328 697 326 662 Q 326 644 321 631 Q 268 534 253 511 Q 239 487 210 445 C 193 420 225 431 246 453 Z" fill="black"></path>
				<path d="M 160 436 L 142 441 L 129 443 Q 119 444 110 444 Q 99 439 99 432 Q 101 427 109 419 Q 117 411 135 370 Q 140 360 151 296 Q 162 231 164 210 L 169 156 C 172 126 214 132 212 162 L 209 219 Q 208 223 204 265 L 191 348 Q 187 368 187 381 L 187 406 C 187 429 187 429 160 436 Z" fill="black"></path>
				<path d="M 500 218 L 533 351 Q 543 397 558 416 Q 573 435 573 438 Q 573 466 515 491 Q 499 502 490 502 Q 481 501 465 495 Q 450 488 432 484 L 246 453 L 210 445 L 160 436 C 130 431 158 399 187 406 L 227 416 L 259 427 L 356 443 L 385 447 L 444 453 Q 478 454 478 434 Q 478 421 475 397 L 456 208 C 453 178 493 189 500 218 Z" fill="black"></path>
				<path d="M 227 416 L 235 404 Q 240 399 247 385 L 254 362 L 275 172 C 278 142 312 148 310 178 L 299 357 L 299 368 L 302 396 Q 302 402 301 405 Q 300 410 285 416 L 259 427 C 231 439 210 441 227 416 Z" fill="black"></path>
				<path d="M 356 443 L 362 410 L 360 188 C 360 158 391 164 394 194 L 414 389 L 421 412 Q 420 431 385 447 C 358 460 352 463 356 443 Z" fill="black"></path>
				<path d="M 131 150 L 77 158 Q 65 158 63 156 Q 56 147 70 133 L 94 108 Q 132 71 160 89 L 176 97 Q 189 103 231 114 Q 273 125 289 131 L 358 148 Q 391 158 440 168 Q 489 177 506 182 L 576 197 Q 594 202 594 211 L 594 213 Q 590 225 576 226 Q 562 226 549 224 L 500 218 L 456 208 L 394 194 L 360 188 L 310 178 L 275 172 L 212 162 L 169 156 L 131 150 Z" fill="red"></path>
				<path d="M 734 248 Q 734 246 738 243 L 767 213 Q 779 200 787 186 L 800 158 Q 822 118 855 157 Q 880 184 891 213 Q 898 234 912 307 L 930 449 Q 938 487 949 501 Q 960 514 960 517 Q 959 528 938 543 L 918 555 Q 896 568 882 568 Q 869 568 854 564 Q 840 560 783 549 L 693 534 L 577 518 Q 571 516 568 514 Q 565 511 581 501 Q 587 493 598 490 Q 619 488 637 490 L 708 500 L 781 512 Q 832 521 840 521 Q 871 520 869 484 L 869 453 L 851 317 L 842 262 Q 840 239 832 234 Q 817 224 787 235 L 744 251 Q 741 254 739 254 Q 734 254 734 248 Z" fill="lightgray"></path>
				<path d="M 637 490 Q 639 486 639 442 L 633 -70 L 635 -106 Q 635 -135 639 -149 Q 643 -178 650 -178 Q 667 -178 675 -136 Q 690 -47 693 54 L 700 441 L 708 500 C 712 530 635 520 637 490 Z" fill="lightgray"></path>
</g>
		<text x="40" y="140" font-size="128" fill="#999999">6</text></g>
		<g id="id1:id1:id1" transform="matrix(1.0,0,0,1.0,1024,0.0)">			<g stroke="lightgray" stroke-width="4" transform="scale(4, 4)"> <rect x="0" y="0" width="256" height="256" fill="white" stroke-width="4"/></g>
			<g transform="scale(0.92, -0.92) translate(60, -920)">					<path d="M 246 453 L 277 485 Q 311 520 345 562 L 379 603 Q 386 615 400 623 Q 414 631 414 640 Q 414 654 381 668 Q 328 697 326 662 Q 326 644 321 631 Q 268 534 253 511 Q 239 487 210 445 C 193 420 225 431 246 453 Z" fill="black"></path>
				<path d="M 160 436 L 142 441 L 129 443 Q 119 444 110 444 Q 99 439 99 432 Q 101 427 109 419 Q 117 411 135 370 Q 140 360 151 296 Q 162 231 164 210 L 169 156 C 172 126 214 132 212 162 L 209 219 Q 208 223 204 265 L 191 348 Q 187 368 187 381 L 187 406 C 187 429 187 429 160 436 Z" fill="black"></path>
				<path d="M 500 218 L 533 351 Q 543 397 558 416 Q 573 435 573 438 Q 573 466 515 491 Q 499 502 490 502 Q 481 501 465 495 Q 450 488 432 484 L 246 453 L 210 445 L 160 436 C 130 431 158 399 187 406 L 227 416 L 259 427 L 356 443 L 385 447 L 444 453 Q 478 454 478 434 Q 478 421 475 397 L 456 208 C 453 178 493 189 500 218 Z" fill="black"></path>
				<path d="M 227 416 L 235 404 Q 240 399 247 385 L 254 362 L 275 172 C 278 142 312 148 310 178 L 299 357 L 299 368 L 302 396 Q 302 402 301 405 Q 300 410 285 416 L 259 427 C 231 439 210 441 227 416 Z" fill="black"></path>
				<path d="M 356 443 L 362 410 L 360 188 C 360 158 391 164 394 194 L 414 389 L 421 412 Q 420 431 385 447 C 358 460 352 463 356 443 Z" fill="black"></path>
				<path d="M 131 150 L 77 158 Q 65 158 63 156 Q 56 147 70 133 L 94 108 Q 132 71 160 89 L 176 97 Q 189 103 231 114 Q 273 125 289 131 L 358 148 Q 391 158 440 168 Q 489 177 506 182 L 576 197 Q 594 202 594 211 L 594 213 Q 590 225 576 226 Q 562 226 549 224 L 500 218 L 456 208 L 394 194 L 360 188 L 310 178 L 275 172 L 212 162 L 169 156 L 131 150 Z" fill="black"></path>
				<path d="M 734 248 Q 734 246 738 243 L 767 213 Q 779 200 787 186 L 800 158 Q 822 118 855 157 Q 880 184 891 213 Q 898 234 912 307 L 930 449 Q 938 487 949 501 Q 960 514 960 517 Q 959 528 938 543 L 918 555 Q 896 568 882 568 Q 869 568 854 564 Q 840 560 783 549 L 693 534 L 577 518 Q 571 516 568 514 Q 565 511 581 501 Q 587 493 598 490 Q 619 488 637 490 L 708 500 L 781 512 Q 832 521 840 521 Q 871 520 869 484 L 869 453 L 851 317 L 842 262 Q 840 239 832 234 Q 817 224 787 235 L 744 251 Q 741 254 739 254 Q 734 254 734 248 Z" fill="red"></path>
				<path d="M 637 490 Q 639 486 639 442 L 633 -70 L 635 -106 Q 635 -135 639 -149 Q 643 -178 650 -178 Q 667 -178 675 -136 Q 690 -47 693 54 L 700 441 L 708 500 C 712 530 635 520 637 490 Z" fill="lightgray"></path>
</g>
		<text x="40" y="140" font-size="128" fill="#999999">7</text></g>
		<g id="id1:id2:id2" transform="matrix(1.0,0,0,1.0,2048,0.0)">			<g stroke="lightgray" stroke-width="4" transform="scale(4, 4)"> <rect x="0" y="0" width="256" height="256" fill="white" stroke-width="4"/></g>
			<g transform="scale(0.92, -0.92) translate(60, -920)">					<path d="M 246 453 L 277 485 Q 311 520 345 562 L 379 603 Q 386 615 400 623 Q 414 631 414 640 Q 414 654 381 668 Q 328 697 326 662 Q 326 644 321 631 Q 268 534 253 511 Q 239 487 210 445 C 193 420 225 431 246 453 Z" fill="black"></path>
				<path d="M 160 436 L 142 441 L 129 443 Q 119 444 110 444 Q 99 439 99 432 Q 101 427 109 419 Q 117 411 135 370 Q 140 360 151 296 Q 162 231 164 210 L 169 156 C 172 126 214 132 212 162 L 209 219 Q 208 223 204 265 L 191 348 Q 187 368 187 381 L 187 406 C 187 429 187 429 160 436 Z" fill="black"></path>
				<path d="M 500 218 L 533 351 Q 543 397 558 416 Q 573 435 573 438 Q 573 466 515 491 Q 499 502 490 502 Q 481 501 465 495 Q 450 488 432 484 L 246 453 L 210 445 L 160 436 C 130 431 158 399 187 406 L 227 416 L 259 427 L 356 443 L 385 447 L 444 453 Q 478 454 478 434 Q 478 421 475 397 L 456 208 C 453 178 493 189 500 218 Z" fill="black"></path>
				<path d="M 227 416 L 235 404 Q 240 399 247 385 L 254 362 L 275 172 C 278 142 312 148 310 178 L 299 357 L 299 368 L 302 396 Q 302 402 301 405 Q 300 410 285 416 L 259 427 C 231 439 210 441 227 416 Z" fill="black"></path>
				<path d="M 356 443 L 362 410 L 360 188 C 360 158 391 164 394 194 L 414 389 L 421 412 Q 420 431 385 447 C 358 460 352 463 356 443 Z" fill="black"></path>
				<path d="M 131 150 L 77 158 Q 65 158 63 156 Q 56 147 70 133 L 94 108 Q 132 71 160 89 L 176 97 Q 189 103 231 114 Q 273 125 289 131 L 358 148 Q 391 158 440 168 Q 489 177 506 182 L 576 197 Q 594 202 594 211 L 594 213 Q 590 225 576 226 Q 562 226 549 224 L 500 218 L 456 208 L 394 194 L 360 188 L 310 178 L 275 172 L 212 162 L 169 156 L 131 150 Z" fill="black"></path>
				<path d="M 734 248 Q 734 246 738 243 L 767 213 Q 779 200 787 186 L 800 158 Q 822 118 855 157 Q 880 184 891 213 Q 898 234 912 307 L 930 449 Q 938 487 949 501 Q 960 514 960 517 Q 959 528 938 543 L 918 555 Q 896 568 882 568 Q 869 568 854 564 Q 840 560 783 549 L 693 534 L 577 518 Q 571 516 568 514 Q 565 511 581 501 Q 587 493 598 490 Q 619 488 637 490 L 708 500 L 781 512 Q 832 521 840 521 Q 871 520 869 484 L 869 453 L 851 317 L 842 262 Q 840 239 832 234 Q 817 224 787 235 L 744 251 Q 741 254 739 254 Q 734 254 734 248 Z" fill="black"></path>
				<path d="M 637 490 Q 639 486 639 442 L 633 -70 L 635 -106 Q 635 -135 639 -149 Q 643 -178 650 -178 Q 667 -178 675 -136 Q 690 -47 693 54 L 700 441 L 708 500 C 712 530 635 520 637 490 Z" fill="red"></path>
</g>
		<text x="40" y="140" font-size="128" fill="#999999">8</text></g>
		<g id="id1:id3:id3" transform="matrix(1.0,0,0,1.0,3072,0.0)">			<g stroke="white" stroke-width="4" transform="scale(4, 4)"> <rect x="1" y="1" width="255" height="255" fill="white" stroke-width="0"/></g>
</g>
		<g id="id1:id4:id4" transform="matrix(1.0,0,0,1.0,4096,0.0)">			<g stroke="white" stroke-width="4" transform="scale(4, 4)"> <rect x="1" y="1" width="255" height="255" fill="white" stroke-width="0"/></g>
</g>
</g>
</svg>
