<?xml version="1.0" standalone="no"?>
<!DOCTYPE svg PUBLIC "-//W3C//DTD SVG 1.1//EN"
 "http://www.w3.org/Graphics/SVG/1.1/DTD/svg11.dtd">
<!-- generate by Japanese dictionary app com.asnsami.kanjidictionary -->

<svg xmlns="http://www.w3.org/2000/svg" xmlns:sodipodi="http://sodipodi.sourceforge.net/DTD/sodipodi-0.dtd" version="1.1" width="640" height="384" viewBox="0 0 5120 3072">
	<g id="id0:id0" transform="translate(0.0,0)">
		<g id="id0:id0:id0" transform="matrix(1.0,0,0,1.0,0,0.0)">			<g stroke="lightgray" stroke-width="4" transform="scale(4, 4)"> <rect x="0" y="0" width="256" height="256" fill="white" stroke-width="4"/></g>
			<g transform="scale(0.92, -0.92) translate(60, -920)">					<path d="M 310 630 Q 346 615 414 624 Q 739 669 761 683 Q 771 690 766 700 Q 760 713 731 722 Q 700 729 595 700 Q 432 667 308 661 Q 304 661 303 660 C 273 657 282 639 310 630 Z" fill="red"></path>
				<path d="M 303 660 Q 287 675 258 687 Q 239 697 225 693 Q 212 686 219 671 Q 238 641 239 577 Q 221 352 192 246 L 180 209 Q 140 98 51 -44 Q 45 -51 44 -57 Q 41 -69 52 -66 Q 82 -62 163 61 Q 184 97 204 138 Q 276 307 296 551 Q 300 621 310 630 C 317 650 317 650 303 660 Z" fill="lightgray"></path>
				<path d="M 419 468 Q 503 501 527 506 Q 540 507 544 513 Q 547 523 537 532 Q 489 568 457 563 Q 451 560 451 551 Q 451 521 313 450 Q 309 443 313 440 Q 325 440 387 458 Q 388 459 392 459 L 419 468 Z" fill="lightgray"></path>
				<path d="M 442 332 Q 457 339 538 351 Q 548 350 554 361 Q 555 371 535 379 Q 501 397 445 373 L 404 361 Q 353 349 282 337 Q 258 333 278 319 Q 305 301 341 308 Q 360 314 388 319 L 442 332 Z" fill="lightgray"></path>
				<path d="M 399 233 Q 399 136 377 24 Q 361 -9 395 -61 Q 405 -79 411 -82 Q 421 -83 426 -72 Q 435 -51 435 68 Q 435 227 442 332 L 445 373 Q 448 410 452 429 Q 453 439 448 445 Q 432 460 419 468 C 395 485 383 488 392 459 Q 402 441 404 361 L 399 233 Z" fill="lightgray"></path>
				<path d="M 388 319 Q 349 201 214 3 Q 210 -6 220 -6 Q 224 -7 233 1 Q 336 100 399 233 C 453 346 398 347 388 319 Z" fill="lightgray"></path>
				<path d="M 466 222 Q 487 203 509 181 Q 518 171 530 171 Q 537 171 542 181 Q 545 191 540 213 Q 534 237 464 257 Q 452 260 448 258 Q 444 255 445 246 Q 446 239 466 222 Z" fill="lightgray"></path>
				<path d="M 688 495 Q 769 532 796 540 Q 812 541 814 548 Q 817 558 806 567 Q 757 601 721 597 Q 700 555 671 533 Q 665 530 659 525 Q 619 497 556 463 Q 552 454 557 452 Q 567 452 642 478 Q 649 481 656 483 L 688 495 Z" fill="lightgray"></path>
				<path d="M 711 331 Q 765 343 858 348 Q 897 348 901 357 Q 904 367 890 377 Q 842 405 795 388 L 712 367 L 670 357 Q 616 347 560 334 Q 544 331 557 319 Q 581 298 629 313 Q 641 317 655 319 L 711 331 Z" fill="lightgray"></path>
				<path d="M 711 295 L 711 331 L 712 367 Q 713 428 719 458 Q 720 470 714 475 Q 701 487 688 495 C 663 512 648 512 656 483 Q 665 465 670 357 L 669 245 Q 669 74 649 0 Q 639 -42 681 -100 Q 685 -107 692 -110 Q 702 -111 708 -99 Q 720 -68 716 -38 Q 710 119 710 252 L 711 295 Z" fill="lightgray"></path>
				<path d="M 655 319 Q 613 202 486 27 Q 482 18 492 18 Q 496 17 505 25 Q 613 125 669 245 C 716 342 665 347 655 319 Z" fill="lightgray"></path>
				<path d="M 710 252 Q 711 251 713 248 Q 833 49 857 43 Q 948 43 958 44 Q 970 45 974 50 Q 978 54 971 58 Q 857 118 797 186 Q 760 228 717 287 L 711 295 C 693 319 693 277 710 252 Z" fill="lightgray"></path>
</g>
		<text x="40" y="140" font-size="128" fill="#999999">1</text></g>
		<g id="id0:id1:id1" transform="matrix(1.0,0,0,1.0,1024,0.0)">			<g stroke="lightgray" stroke-width="4" transform="scale(4, 4)"> <rect x="0" y="0" width="256" height="256" fill="white" stroke-width="4"/></g>
			<g transform="scale(0.92, -0.92) translate(60, -920)">					<path d="M 310 630 Q 346 615 414 624 Q 739 669 761 683 Q 771 690 766 700 Q 760 713 731 722 Q 700 729 595 700 Q 432 667 308 661 Q 304 661 303 660 C 273 657 282 639 310 630 Z" fill="black"></path>
				<path d="M 303 660 Q 287 675 258 687 Q 239 697 225 693 Q 212 686 219 671 Q 238 641 239 577 Q 221 352 192 246 L 180 209 Q 140 98 51 -44 Q 45 -51 44 -57 Q 41 -69 52 -66 Q 82 -62 163 61 Q 184 97 204 138 Q 276 307 296 551 Q 300 621 310 630 C 317 650 317 650 303 660 Z" fill="red"></path>
				<path d="M 419 468 Q 503 501 527 506 Q 540 507 544 513 Q 547 523 537 532 Q 489 568 457 563 Q 451 560 451 551 Q 451 521 313 450 Q 309 443 313 440 Q 325 440 387 458 Q 388 459 392 459 L 419 468 Z" fill="lightgray"></path>
				<path d="M 442 332 Q 457 339 538 351 Q 548 350 554 361 Q 555 371 535 379 Q 501 397 445 373 L 404 361 Q 353 349 282 337 Q 258 333 278 319 Q 305 301 341 308 Q 360 314 388 319 L 442 332 Z" fill="lightgray"></path>
				<path d="M 399 233 Q 399 136 377 24 Q 361 -9 395 -61 Q 405 -79 411 -82 Q 421 -83 426 -72 Q 435 -51 435 68 Q 435 227 442 332 L 445 373 Q 448 410 452 429 Q 453 439 448 445 Q 432 460 419 468 C 395 485 383 488 392 459 Q 402 441 404 361 L 399 233 Z" fill="lightgray"></path>
				<path d="M 388 319 Q 349 201 214 3 Q 210 -6 220 -6 Q 224 -7 233 1 Q 336 100 399 233 C 453 346 398 347 388 319 Z" fill="lightgray"></path>
				<path d="M 466 222 Q 487 203 509 181 Q 518 171 530 171 Q 537 171 542 181 Q 545 191 540 213 Q 534 237 464 257 Q 452 260 448 258 Q 444 255 445 246 Q 446 239 466 222 Z" fill="lightgray"></path>
				<path d="M 688 495 Q 769 532 796 540 Q 812 541 814 548 Q 817 558 806 567 Q 757 601 721 597 Q 700 555 671 533 Q 665 530 659 525 Q 619 497 556 463 Q 552 454 557 452 Q 567 452 642 478 Q 649 481 656 483 L 688 495 Z" fill="lightgray"></path>
				<path d="M 711 331 Q 765 343 858 348 Q 897 348 901 357 Q 904 367 890 377 Q 842 405 795 388 L 712 367 L 670 357 Q 616 347 560 334 Q 544 331 557 319 Q 581 298 629 313 Q 641 317 655 319 L 711 331 Z" fill="lightgray"></path>
				<path d="M 711 295 L 711 331 L 712 367 Q 713 428 719 458 Q 720 470 714 475 Q 701 487 688 495 C 663 512 648 512 656 483 Q 665 465 670 357 L 669 245 Q 669 74 649 0 Q 639 -42 681 -100 Q 685 -107 692 -110 Q 702 -111 708 -99 Q 720 -68 716 -38 Q 710 119 710 252 L 711 295 Z" fill="lightgray"></path>
				<path d="M 655 319 Q 613 202 486 27 Q 482 18 492 18 Q 496 17 505 25 Q 613 125 669 245 C 716 342 665 347 655 319 Z" fill="lightgray"></path>
				<path d="M 710 252 Q 711 251 713 248 Q 833 49 857 43 Q 948 43 958 44 Q 970 45 974 50 Q 978 54 971 58 Q 857 118 797 186 Q 760 228 717 287 L 711 295 C 693 319 693 277 710 252 Z" fill="lightgray"></path>
</g>
		<text x="40" y="140" font-size="128" fill="#999999">2</text></g>
		<g id="id0:id2:id2" transform="matrix(1.0,0,0,1.0,2048,0.0)">			<g stroke="lightgray" stroke-width="4" transform="scale(4, 4)"> <rect x="0" y="0" width="256" height="256" fill="white" stroke-width="4"/></g>
			<g transform="scale(0.92, -0.92) translate(60, -920)">					<path d="M 310 630 Q 346 615 414 624 Q 739 669 761 683 Q 771 690 766 700 Q 760 713 731 722 Q 700 729 595 700 Q 432 667 308 661 Q 304 661 303 660 C 273 657 282 639 310 630 Z" fill="black"></path>
				<path d="M 303 660 Q 287 675 258 687 Q 239 697 225 693 Q 212 686 219 671 Q 238 641 239 577 Q 221 352 192 246 L 180 209 Q 140 98 51 -44 Q 45 -51 44 -57 Q 41 -69 52 -66 Q 82 -62 163 61 Q 184 97 204 138 Q 276 307 296 551 Q 300 621 310 630 C 317 650 317 650 303 660 Z" fill="black"></path>
				<path d="M 419 468 Q 503 501 527 506 Q 540 507 544 513 Q 547 523 537 532 Q 489 568 457 563 Q 451 560 451 551 Q 451 521 313 450 Q 309 443 313 440 Q 325 440 387 458 Q 388 459 392 459 L 419 468 Z" fill="red"></path>
				<path d="M 442 332 Q 457 339 538 351 Q 548 350 554 361 Q 555 371 535 379 Q 501 397 445 373 L 404 361 Q 353 349 282 337 Q 258 333 278 319 Q 305 301 341 308 Q 360 314 388 319 L 442 332 Z" fill="lightgray"></path>
				<path d="M 399 233 Q 399 136 377 24 Q 361 -9 395 -61 Q 405 -79 411 -82 Q 421 -83 426 -72 Q 435 -51 435 68 Q 435 227 442 332 L 445 373 Q 448 410 452 429 Q 453 439 448 445 Q 432 460 419 468 C 395 485 383 488 392 459 Q 402 441 404 361 L 399 233 Z" fill="lightgray"></path>
				<path d="M 388 319 Q 349 201 214 3 Q 210 -6 220 -6 Q 224 -7 233 1 Q 336 100 399 233 C 453 346 398 347 388 319 Z" fill="lightgray"></path>
				<path d="M 466 222 Q 487 203 509 181 Q 518 171 530 171 Q 537 171 542 181 Q 545 191 540 213 Q 534 237 464 257 Q 452 260 448 258 Q 444 255 445 246 Q 446 239 466 222 Z" fill="lightgray"></path>
				<path d="M 688 495 Q 769 532 796 540 Q 812 541 814 548 Q 817 558 806 567 Q 757 601 721 597 Q 700 555 671 533 Q 665 530 659 525 Q 619 497 556 463 Q 552 454 557 452 Q 567 452 642 478 Q 649 481 656 483 L 688 495 Z" fill="lightgray"></path>
				<path d="M 711 331 Q 765 343 858 348 Q 897 348 901 357 Q 904 367 890 377 Q 842 405 795 388 L 712 367 L 670 357 Q 616 347 560 334 Q 544 331 557 319 Q 581 298 629 313 Q 641 317 655 319 L 711 331 Z" fill="lightgray"></path>
				<path d="M 711 295 L 711 331 L 712 367 Q 713 428 719 458 Q 720 470 714 475 Q 701 487 688 495 C 663 512 648 512 656 483 Q 665 465 670 357 L 669 245 Q 669 74 649 0 Q 639 -42 681 -100 Q 685 -107 692 -110 Q 702 -111 708 -99 Q 720 -68 716 -38 Q 710 119 710 252 L 711 295 Z" fill="lightgray"></path>
				<path d="M 655 319 Q 613 202 486 27 Q 482 18 492 18 Q 496 17 505 25 Q 613 125 669 245 C 716 342 665 347 655 319 Z" fill="lightgray"></path>
				<path d="M 710 252 Q 711 251 713 248 Q 833 49 857 43 Q 948 43 958 44 Q 970 45 974 50 Q 978 54 971 58 Q 857 118 797 186 Q 760 228 717 287 L 711 295 C 693 319 693 277 710 252 Z" fill="lightgray"></path>
</g>
		<text x="40" y="140" font-size="128" fill="#999999">3</text></g>
		<g id="id0:id3:id3" transform="matrix(1.0,0,0,1.0,3072,0.0)">			<g stroke="lightgray" stroke-width="4" transform="scale(4, 4)"> <rect x="0" y="0" width="256" height="256" fill="white" stroke-width="4"/></g>
			<g transform="scale(0.92, -0.92) translate(60, -920)">					<path d="M 310 630 Q 346 615 414 624 Q 739 669 761 683 Q 771 690 766 700 Q 760 713 731 722 Q 700 729 595 700 Q 432 667 308 661 Q 304 661 303 660 C 273 657 282 639 310 630 Z" fill="black"></path>
				<path d="M 303 660 Q 287 675 258 687 Q 239 697 225 693 Q 212 686 219 671 Q 238 641 239 577 Q 221 352 192 246 L 180 209 Q 140 98 51 -44 Q 45 -51 44 -57 Q 41 -69 52 -66 Q 82 -62 163 61 Q 184 97 204 138 Q 276 307 296 551 Q 300 621 310 630 C 317 650 317 650 303 660 Z" fill="black"></path>
				<path d="M 419 468 Q 503 501 527 506 Q 540 507 544 513 Q 547 523 537 532 Q 489 568 457 563 Q 451 560 451 551 Q 451 521 313 450 Q 309 443 313 440 Q 325 440 387 458 Q 388 459 392 459 L 419 468 Z" fill="black"></path>
				<path d="M 442 332 Q 457 339 538 351 Q 548 350 554 361 Q 555 371 535 379 Q 501 397 445 373 L 404 361 Q 353 349 282 337 Q 258 333 278 319 Q 305 301 341 308 Q 360 314 388 319 L 442 332 Z" fill="red"></path>
				<path d="M 399 233 Q 399 136 377 24 Q 361 -9 395 -61 Q 405 -79 411 -82 Q 421 -83 426 -72 Q 435 -51 435 68 Q 435 227 442 332 L 445 373 Q 448 410 452 429 Q 453 439 448 445 Q 432 460 419 468 C 395 485 383 488 392 459 Q 402 441 404 361 L 399 233 Z" fill="lightgray"></path>
				<path d="M 388 319 Q 349 201 214 3 Q 210 -6 220 -6 Q 224 -7 233 1 Q 336 100 399 233 C 453 346 398 347 388 319 Z" fill="lightgray"></path>
				<path d="M 466 222 Q 487 203 509 181 Q 518 171 530 171 Q 537 171 542 181 Q 545 191 540 213 Q 534 237 464 257 Q 452 260 448 258 Q 444 255 445 246 Q 446 239 466 222 Z" fill="lightgray"></path>
				<path d="M 688 495 Q 769 532 796 540 Q 812 541 814 548 Q 817 558 806 567 Q 757 601 721 597 Q 700 555 671 533 Q 665 530 659 525 Q 619 497 556 463 Q 552 454 557 452 Q 567 452 642 478 Q 649 481 656 483 L 688 495 Z" fill="lightgray"></path>
				<path d="M 711 331 Q 765 343 858 348 Q 897 348 901 357 Q 904 367 890 377 Q 842 405 795 388 L 712 367 L 670 357 Q 616 347 560 334 Q 544 331 557 319 Q 581 298 629 313 Q 641 317 655 319 L 711 331 Z" fill="lightgray"></path>
				<path d="M 711 295 L 711 331 L 712 367 Q 713 428 719 458 Q 720 470 714 475 Q 701 487 688 495 C 663 512 648 512 656 483 Q 665 465 670 357 L 669 245 Q 669 74 649 0 Q 639 -42 681 -100 Q 685 -107 692 -110 Q 702 -111 708 -99 Q 720 -68 716 -38 Q 710 119 710 252 L 711 295 Z" fill="lightgray"></path>
				<path d="M 655 319 Q 613 202 486 27 Q 482 18 492 18 Q 496 17 505 25 Q 613 125 669 245 C 716 342 665 347 655 319 Z" fill="lightgray"></path>
				<path d="M 710 252 Q 711 251 713 248 Q 833 49 857 43 Q 948 43 958 44 Q 970 45 974 50 Q 978 54 971 58 Q 857 118 797 186 Q 760 228 717 287 L 711 295 C 693 319 693 277 710 252 Z" fill="lightgray"></path>
</g>
		<text x="40" y="140" font-size="128" fill="#999999">4</text></g>
		<g id="id0:id4:id4" transform="matrix(1.0,0,0,1.0,4096,0.0)">			<g stroke="lightgray" stroke-width="4" transform="scale(4, 4)"> <rect x="0" y="0" width="256" height="256" fill="white" stroke-width="4"/></g>
			<g transform="scale(0.92, -0.92) translate(60, -920)">					<path d="M 310 630 Q 346 615 414 624 Q 739 669 761 683 Q 771 690 766 700 Q 760 713 731 722 Q 700 729 595 700 Q 432 667 308 661 Q 304 661 303 660 C 273 657 282 639 310 630 Z" fill="black"></path>
				<path d="M 303 660 Q 287 675 258 687 Q 239 697 225 693 Q 212 686 219 671 Q 238 641 239 577 Q 221 352 192 246 L 180 209 Q 140 98 51 -44 Q 45 -51 44 -57 Q 41 -69 52 -66 Q 82 -62 163 61 Q 184 97 204 138 Q 276 307 296 551 Q 300 621 310 630 C 317 650 317 650 303 660 Z" fill="black"></path>
				<path d="M 419 468 Q 503 501 527 506 Q 540 507 544 513 Q 547 523 537 532 Q 489 568 457 563 Q 451 560 451 551 Q 451 521 313 450 Q 309 443 313 440 Q 325 440 387 458 Q 388 459 392 459 L 419 468 Z" fill="black"></path>
				<path d="M 442 332 Q 457 339 538 351 Q 548 350 554 361 Q 555 371 535 379 Q 501 397 445 373 L 404 361 Q 353 349 282 337 Q 258 333 278 319 Q 305 301 341 308 Q 360 314 388 319 L 442 332 Z" fill="black"></path>
				<path d="M 399 233 Q 399 136 377 24 Q 361 -9 395 -61 Q 405 -79 411 -82 Q 421 -83 426 -72 Q 435 -51 435 68 Q 435 227 442 332 L 445 373 Q 448 410 452 429 Q 453 439 448 445 Q 432 460 419 468 C 395 485 383 488 392 459 Q 402 441 404 361 L 399 233 Z" fill="red"></path>
				<path d="M 388 319 Q 349 201 214 3 Q 210 -6 220 -6 Q 224 -7 233 1 Q 336 100 399 233 C 453 346 398 347 388 319 Z" fill="lightgray"></path>
				<path d="M 466 222 Q 487 203 509 181 Q 518 171 530 171 Q 537 171 542 181 Q 545 191 540 213 Q 534 237 464 257 Q 452 260 448 258 Q 444 255 445 246 Q 446 239 466 222 Z" fill="lightgray"></path>
				<path d="M 688 495 Q 769 532 796 540 Q 812 541 814 548 Q 817 558 806 567 Q 757 601 721 597 Q 700 555 671 533 Q 665 530 659 525 Q 619 497 556 463 Q 552 454 557 452 Q 567 452 642 478 Q 649 481 656 483 L 688 495 Z" fill="lightgray"></path>
				<path d="M 711 331 Q 765 343 858 348 Q 897 348 901 357 Q 904 367 890 377 Q 842 405 795 388 L 712 367 L 670 357 Q 616 347 560 334 Q 544 331 557 319 Q 581 298 629 313 Q 641 317 655 319 L 711 331 Z" fill="lightgray"></path>
				<path d="M 711 295 L 711 331 L 712 367 Q 713 428 719 458 Q 720 470 714 475 Q 701 487 688 495 C 663 512 648 512 656 483 Q 665 465 670 357 L 669 245 Q 669 74 649 0 Q 639 -42 681 -100 Q 685 -107 692 -110 Q 702 -111 708 -99 Q 720 -68 716 -38 Q 710 119 710 252 L 711 295 Z" fill="lightgray"></path>
				<path d="M 655 319 Q 613 202 486 27 Q 482 18 492 18 Q 496 17 505 25 Q 613 125 669 245 C 716 342 665 347 655 319 Z" fill="lightgray"></path>
				<path d="M 710 252 Q 711 251 713 248 Q 833 49 857 43 Q 948 43 958 44 Q 970 45 974 50 Q 978 54 971 58 Q 857 118 797 186 Q 760 228 717 287 L 711 295 C 693 319 693 277 710 252 Z" fill="lightgray"></path>
</g>
		<text x="40" y="140" font-size="128" fill="#999999">5</text></g>
</g>
	<g id="id1:id1" transform="translate(0.0,1024)">
		<g id="id1:id0:id0" transform="matrix(1.0,0,0,1.0,0,0.0)">			<g stroke="lightgray" stroke-width="4" transform="scale(4, 4)"> <rect x="0" y="0" width="256" height="256" fill="white" stroke-width="4"/></g>
			<g transform="scale(0.92, -0.92) translate(60, -920)">					<path d="M 310 630 Q 346 615 414 624 Q 739 669 761 683 Q 771 690 766 700 Q 760 713 731 722 Q 700 729 595 700 Q 432 667 308 661 Q 304 661 303 660 C 273 657 282 639 310 630 Z" fill="black"></path>
				<path d="M 303 660 Q 287 675 258 687 Q 239 697 225 693 Q 212 686 219 671 Q 238 641 239 577 Q 221 352 192 246 L 180 209 Q 140 98 51 -44 Q 45 -51 44 -57 Q 41 -69 52 -66 Q 82 -62 163 61 Q 184 97 204 138 Q 276 307 296 551 Q 300 621 310 630 C 317 650 317 650 303 660 Z" fill="black"></path>
				<path d="M 419 468 Q 503 501 527 506 Q 540 507 544 513 Q 547 523 537 532 Q 489 568 457 563 Q 451 560 451 551 Q 451 521 313 450 Q 309 443 313 440 Q 325 440 387 458 Q 388 459 392 459 L 419 468 Z" fill="black"></path>
				<path d="M 442 332 Q 457 339 538 351 Q 548 350 554 361 Q 555 371 535 379 Q 501 397 445 373 L 404 361 Q 353 349 282 337 Q 258 333 278 319 Q 305 301 341 308 Q 360 314 388 319 L 442 332 Z" fill="black"></path>
				<path d="M 399 233 Q 399 136 377 24 Q 361 -9 395 -61 Q 405 -79 411 -82 Q 421 -83 426 -72 Q 435 -51 435 68 Q 435 227 442 332 L 445 373 Q 448 410 452 429 Q 453 439 448 445 Q 432 460 419 468 C 395 485 383 488 392 459 Q 402 441 404 361 L 399 233 Z" fill="black"></path>
				<path d="M 388 319 Q 349 201 214 3 Q 210 -6 220 -6 Q 224 -7 233 1 Q 336 100 399 233 C 453 346 398 347 388 319 Z" fill="red"></path>
				<path d="M 466 222 Q 487 203 509 181 Q 518 171 530 171 Q 537 171 542 181 Q 545 191 540 213 Q 534 237 464 257 Q 452 260 448 258 Q 444 255 445 246 Q 446 239 466 222 Z" fill="lightgray"></path>
				<path d="M 688 495 Q 769 532 796 540 Q 812 541 814 548 Q 817 558 806 567 Q 757 601 721 597 Q 700 555 671 533 Q 665 530 659 525 Q 619 497 556 463 Q 552 454 557 452 Q 567 452 642 478 Q 649 481 656 483 L 688 495 Z" fill="lightgray"></path>
				<path d="M 711 331 Q 765 343 858 348 Q 897 348 901 357 Q 904 367 890 377 Q 842 405 795 388 L 712 367 L 670 357 Q 616 347 560 334 Q 544 331 557 319 Q 581 298 629 313 Q 641 317 655 319 L 711 331 Z" fill="lightgray"></path>
				<path d="M 711 295 L 711 331 L 712 367 Q 713 428 719 458 Q 720 470 714 475 Q 701 487 688 495 C 663 512 648 512 656 483 Q 665 465 670 357 L 669 245 Q 669 74 649 0 Q 639 -42 681 -100 Q 685 -107 692 -110 Q 702 -111 708 -99 Q 720 -68 716 -38 Q 710 119 710 252 L 711 295 Z" fill="lightgray"></path>
				<path d="M 655 319 Q 613 202 486 27 Q 482 18 492 18 Q 496 17 505 25 Q 613 125 669 245 C 716 342 665 347 655 319 Z" fill="lightgray"></path>
				<path d="M 710 252 Q 711 251 713 248 Q 833 49 857 43 Q 948 43 958 44 Q 970 45 974 50 Q 978 54 971 58 Q 857 118 797 186 Q 760 228 717 287 L 711 295 C 693 319 693 277 710 252 Z" fill="lightgray"></path>
</g>
		<text x="40" y="140" font-size="128" fill="#999999">6</text></g>
		<g id="id1:id1:id1" transform="matrix(1.0,0,0,1.0,1024,0.0)">			<g stroke="lightgray" stroke-width="4" transform="scale(4, 4)"> <rect x="0" y="0" width="256" height="256" fill="white" stroke-width="4"/></g>
			<g transform="scale(0.92, -0.92) translate(60, -920)">					<path d="M 310 630 Q 346 615 414 624 Q 739 669 761 683 Q 771 690 766 700 Q 760 713 731 722 Q 700 729 595 700 Q 432 667 308 661 Q 304 661 303 660 C 273 657 282 639 310 630 Z" fill="black"></path>
				<path d="M 303 660 Q 287 675 258 687 Q 239 697 225 693 Q 212 686 219 671 Q 238 641 239 577 Q 221 352 192 246 L 180 209 Q 140 98 51 -44 Q 45 -51 44 -57 Q 41 -69 52 -66 Q 82 -62 163 61 Q 184 97 204 138 Q 276 307 296 551 Q 300 621 310 630 C 317 650 317 650 303 660 Z" fill="black"></path>
				<path d="M 419 468 Q 503 501 527 506 Q 540 507 544 513 Q 547 523 537 532 Q 489 568 457 563 Q 451 560 451 551 Q 451 521 313 450 Q 309 443 313 440 Q 325 440 387 458 Q 388 459 392 459 L 419 468 Z" fill="black"></path>
				<path d="M 442 332 Q 457 339 538 351 Q 548 350 554 361 Q 555 371 535 379 Q 501 397 445 373 L 404 361 Q 353 349 282 337 Q 258 333 278 319 Q 305 301 341 308 Q 360 314 388 319 L 442 332 Z" fill="black"></path>
				<path d="M 399 233 Q 399 136 377 24 Q 361 -9 395 -61 Q 405 -79 411 -82 Q 421 -83 426 -72 Q 435 -51 435 68 Q 435 227 442 332 L 445 373 Q 448 410 452 429 Q 453 439 448 445 Q 432 460 419 468 C 395 485 383 488 392 459 Q 402 441 404 361 L 399 233 Z" fill="black"></path>
				<path d="M 388 319 Q 349 201 214 3 Q 210 -6 220 -6 Q 224 -7 233 1 Q 336 100 399 233 C 453 346 398 347 388 319 Z" fill="black"></path>
				<path d="M 466 222 Q 487 203 509 181 Q 518 171 530 171 Q 537 171 542 181 Q 545 191 540 213 Q 534 237 464 257 Q 452 260 448 258 Q 444 255 445 246 Q 446 239 466 222 Z" fill="red"></path>
				<path d="M 688 495 Q 769 532 796 540 Q 812 541 814 548 Q 817 558 806 567 Q 757 601 721 597 Q 700 555 671 533 Q 665 530 659 525 Q 619 497 556 463 Q 552 454 557 452 Q 567 452 642 478 Q 649 481 656 483 L 688 495 Z" fill="lightgray"></path>
				<path d="M 711 331 Q 765 343 858 348 Q 897 348 901 357 Q 904 367 890 377 Q 842 405 795 388 L 712 367 L 670 357 Q 616 347 560 334 Q 544 331 557 319 Q 581 298 629 313 Q 641 317 655 319 L 711 331 Z" fill="lightgray"></path>
				<path d="M 711 295 L 711 331 L 712 367 Q 713 428 719 458 Q 720 470 714 475 Q 701 487 688 495 C 663 512 648 512 656 483 Q 665 465 670 357 L 669 245 Q 669 74 649 0 Q 639 -42 681 -100 Q 685 -107 692 -110 Q 702 -111 708 -99 Q 720 -68 716 -38 Q 710 119 710 252 L 711 295 Z" fill="lightgray"></path>
				<path d="M 655 319 Q 613 202 486 27 Q 482 18 492 18 Q 496 17 505 25 Q 613 125 669 245 C 716 342 665 347 655 319 Z" fill="lightgray"></path>
				<path d="M 710 252 Q 711 251 713 248 Q 833 49 857 43 Q 948 43 958 44 Q 970 45 974 50 Q 978 54 971 58 Q 857 118 797 186 Q 760 228 717 287 L 711 295 C 693 319 693 277 710 252 Z" fill="lightgray"></path>
</g>
		<text x="40" y="140" font-size="128" fill="#999999">7</text></g>
		<g id="id1:id2:id2" transform="matrix(1.0,0,0,1.0,2048,0.0)">			<g stroke="lightgray" stroke-width="4" transform="scale(4, 4)"> <rect x="0" y="0" width="256" height="256" fill="white" stroke-width="4"/></g>
			<g transform="scale(0.92, -0.92) translate(60, -920)">					<path d="M 310 630 Q 346 615 414 624 Q 739 669 761 683 Q 771 690 766 700 Q 760 713 731 722 Q 700 729 595 700 Q 432 667 308 661 Q 304 661 303 660 C 273 657 282 639 310 630 Z" fill="black"></path>
				<path d="M 303 660 Q 287 675 258 687 Q 239 697 225 693 Q 212 686 219 671 Q 238 641 239 577 Q 221 352 192 246 L 180 209 Q 140 98 51 -44 Q 45 -51 44 -57 Q 41 -69 52 -66 Q 82 -62 163 61 Q 184 97 204 138 Q 276 307 296 551 Q 300 621 310 630 C 317 650 317 650 303 660 Z" fill="black"></path>
				<path d="M 419 468 Q 503 501 527 506 Q 540 507 544 513 Q 547 523 537 532 Q 489 568 457 563 Q 451 560 451 551 Q 451 521 313 450 Q 309 443 313 440 Q 325 440 387 458 Q 388 459 392 459 L 419 468 Z" fill="black"></path>
				<path d="M 442 332 Q 457 339 538 351 Q 548 350 554 361 Q 555 371 535 379 Q 501 397 445 373 L 404 361 Q 353 349 282 337 Q 258 333 278 319 Q 305 301 341 308 Q 360 314 388 319 L 442 332 Z" fill="black"></path>
				<path d="M 399 233 Q 399 136 377 24 Q 361 -9 395 -61 Q 405 -79 411 -82 Q 421 -83 426 -72 Q 435 -51 435 68 Q 435 227 442 332 L 445 373 Q 448 410 452 429 Q 453 439 448 445 Q 432 460 419 468 C 395 485 383 488 392 459 Q 402 441 404 361 L 399 233 Z" fill="black"></path>
				<path d="M 388 319 Q 349 201 214 3 Q 210 -6 220 -6 Q 224 -7 233 1 Q 336 100 399 233 C 453 346 398 347 388 319 Z" fill="black"></path>
				<path d="M 466 222 Q 487 203 509 181 Q 518 171 530 171 Q 537 171 542 181 Q 545 191 540 213 Q 534 237 464 257 Q 452 260 448 258 Q 444 255 445 246 Q 446 239 466 222 Z" fill="black"></path>
				<path d="M 688 495 Q 769 532 796 540 Q 812 541 814 548 Q 817 558 806 567 Q 757 601 721 597 Q 700 555 671 533 Q 665 530 659 525 Q 619 497 556 463 Q 552 454 557 452 Q 567 452 642 478 Q 649 481 656 483 L 688 495 Z" fill="red"></path>
				<path d="M 711 331 Q 765 343 858 348 Q 897 348 901 357 Q 904 367 890 377 Q 842 405 795 388 L 712 367 L 670 357 Q 616 347 560 334 Q 544 331 557 319 Q 581 298 629 313 Q 641 317 655 319 L 711 331 Z" fill="lightgray"></path>
				<path d="M 711 295 L 711 331 L 712 367 Q 713 428 719 458 Q 720 470 714 475 Q 701 487 688 495 C 663 512 648 512 656 483 Q 665 465 670 357 L 669 245 Q 669 74 649 0 Q 639 -42 681 -100 Q 685 -107 692 -110 Q 702 -111 708 -99 Q 720 -68 716 -38 Q 710 119 710 252 L 711 295 Z" fill="lightgray"></path>
				<path d="M 655 319 Q 613 202 486 27 Q 482 18 492 18 Q 496 17 505 25 Q 613 125 669 245 C 716 342 665 347 655 319 Z" fill="lightgray"></path>
				<path d="M 710 252 Q 711 251 713 248 Q 833 49 857 43 Q 948 43 958 44 Q 970 45 974 50 Q 978 54 971 58 Q 857 118 797 186 Q 760 228 717 287 L 711 295 C 693 319 693 277 710 252 Z" fill="lightgray"></path>
</g>
		<text x="40" y="140" font-size="128" fill="#999999">8</text></g>
		<g id="id1:id3:id3" transform="matrix(1.0,0,0,1.0,3072,0.0)">			<g stroke="lightgray" stroke-width="4" transform="scale(4, 4)"> <rect x="0" y="0" width="256" height="256" fill="white" stroke-width="4"/></g>
			<g transform="scale(0.92, -0.92) translate(60, -920)">					<path d="M 310 630 Q 346 615 414 624 Q 739 669 761 683 Q 771 690 766 700 Q 760 713 731 722 Q 700 729 595 700 Q 432 667 308 661 Q 304 661 303 660 C 273 657 282 639 310 630 Z" fill="black"></path>
				<path d="M 303 660 Q 287 675 258 687 Q 239 697 225 693 Q 212 686 219 671 Q 238 641 239 577 Q 221 352 192 246 L 180 209 Q 140 98 51 -44 Q 45 -51 44 -57 Q 41 -69 52 -66 Q 82 -62 163 61 Q 184 97 204 138 Q 276 307 296 551 Q 300 621 310 630 C 317 650 317 650 303 660 Z" fill="black"></path>
				<path d="M 419 468 Q 503 501 527 506 Q 540 507 544 513 Q 547 523 537 532 Q 489 568 457 563 Q 451 560 451 551 Q 451 521 313 450 Q 309 443 313 440 Q 325 440 387 458 Q 388 459 392 459 L 419 468 Z" fill="black"></path>
				<path d="M 442 332 Q 457 339 538 351 Q 548 350 554 361 Q 555 371 535 379 Q 501 397 445 373 L 404 361 Q 353 349 282 337 Q 258 333 278 319 Q 305 301 341 308 Q 360 314 388 319 L 442 332 Z" fill="black"></path>
				<path d="M 399 233 Q 399 136 377 24 Q 361 -9 395 -61 Q 405 -79 411 -82 Q 421 -83 426 -72 Q 435 -51 435 68 Q 435 227 442 332 L 445 373 Q 448 410 452 429 Q 453 439 448 445 Q 432 460 419 468 C 395 485 383 488 392 459 Q 402 441 404 361 L 399 233 Z" fill="black"></path>
				<path d="M 388 319 Q 349 201 214 3 Q 210 -6 220 -6 Q 224 -7 233 1 Q 336 100 399 233 C 453 346 398 347 388 319 Z" fill="black"></path>
				<path d="M 466 222 Q 487 203 509 181 Q 518 171 530 171 Q 537 171 542 181 Q 545 191 540 213 Q 534 237 464 257 Q 452 260 448 258 Q 444 255 445 246 Q 446 239 466 222 Z" fill="black"></path>
				<path d="M 688 495 Q 769 532 796 540 Q 812 541 814 548 Q 817 558 806 567 Q 757 601 721 597 Q 700 555 671 533 Q 665 530 659 525 Q 619 497 556 463 Q 552 454 557 452 Q 567 452 642 478 Q 649 481 656 483 L 688 495 Z" fill="black"></path>
				<path d="M 711 331 Q 765 343 858 348 Q 897 348 901 357 Q 904 367 890 377 Q 842 405 795 388 L 712 367 L 670 357 Q 616 347 560 334 Q 544 331 557 319 Q 581 298 629 313 Q 641 317 655 319 L 711 331 Z" fill="red"></path>
				<path d="M 711 295 L 711 331 L 712 367 Q 713 428 719 458 Q 720 470 714 475 Q 701 487 688 495 C 663 512 648 512 656 483 Q 665 465 670 357 L 669 245 Q 669 74 649 0 Q 639 -42 681 -100 Q 685 -107 692 -110 Q 702 -111 708 -99 Q 720 -68 716 -38 Q 710 119 710 252 L 711 295 Z" fill="lightgray"></path>
				<path d="M 655 319 Q 613 202 486 27 Q 482 18 492 18 Q 496 17 505 25 Q 613 125 669 245 C 716 342 665 347 655 319 Z" fill="lightgray"></path>
				<path d="M 710 252 Q 711 251 713 248 Q 833 49 857 43 Q 948 43 958 44 Q 970 45 974 50 Q 978 54 971 58 Q 857 118 797 186 Q 760 228 717 287 L 711 295 C 693 319 693 277 710 252 Z" fill="lightgray"></path>
</g>
		<text x="40" y="140" font-size="128" fill="#999999">9</text></g>
		<g id="id1:id4:id4" transform="matrix(1.0,0,0,1.0,4096,0.0)">			<g stroke="lightgray" stroke-width="4" transform="scale(4, 4)"> <rect x="0" y="0" width="256" height="256" fill="white" stroke-width="4"/></g>
			<g transform="scale(0.92, -0.92) translate(60, -920)">					<path d="M 310 630 Q 346 615 414 624 Q 739 669 761 683 Q 771 690 766 700 Q 760 713 731 722 Q 700 729 595 700 Q 432 667 308 661 Q 304 661 303 660 C 273 657 282 639 310 630 Z" fill="black"></path>
				<path d="M 303 660 Q 287 675 258 687 Q 239 697 225 693 Q 212 686 219 671 Q 238 641 239 577 Q 221 352 192 246 L 180 209 Q 140 98 51 -44 Q 45 -51 44 -57 Q 41 -69 52 -66 Q 82 -62 163 61 Q 184 97 204 138 Q 276 307 296 551 Q 300 621 310 630 C 317 650 317 650 303 660 Z" fill="black"></path>
				<path d="M 419 468 Q 503 501 527 506 Q 540 507 544 513 Q 547 523 537 532 Q 489 568 457 563 Q 451 560 451 551 Q 451 521 313 450 Q 309 443 313 440 Q 325 440 387 458 Q 388 459 392 459 L 419 468 Z" fill="black"></path>
				<path d="M 442 332 Q 457 339 538 351 Q 548 350 554 361 Q 555 371 535 379 Q 501 397 445 373 L 404 361 Q 353 349 282 337 Q 258 333 278 319 Q 305 301 341 308 Q 360 314 388 319 L 442 332 Z" fill="black"></path>
				<path d="M 399 233 Q 399 136 377 24 Q 361 -9 395 -61 Q 405 -79 411 -82 Q 421 -83 426 -72 Q 435 -51 435 68 Q 435 227 442 332 L 445 373 Q 448 410 452 429 Q 453 439 448 445 Q 432 460 419 468 C 395 485 383 488 392 459 Q 402 441 404 361 L 399 233 Z" fill="black"></path>
				<path d="M 388 319 Q 349 201 214 3 Q 210 -6 220 -6 Q 224 -7 233 1 Q 336 100 399 233 C 453 346 398 347 388 319 Z" fill="black"></path>
				<path d="M 466 222 Q 487 203 509 181 Q 518 171 530 171 Q 537 171 542 181 Q 545 191 540 213 Q 534 237 464 257 Q 452 260 448 258 Q 444 255 445 246 Q 446 239 466 222 Z" fill="black"></path>
				<path d="M 688 495 Q 769 532 796 540 Q 812 541 814 548 Q 817 558 806 567 Q 757 601 721 597 Q 700 555 671 533 Q 665 530 659 525 Q 619 497 556 463 Q 552 454 557 452 Q 567 452 642 478 Q 649 481 656 483 L 688 495 Z" fill="black"></path>
				<path d="M 711 331 Q 765 343 858 348 Q 897 348 901 357 Q 904 367 890 377 Q 842 405 795 388 L 712 367 L 670 357 Q 616 347 560 334 Q 544 331 557 319 Q 581 298 629 313 Q 641 317 655 319 L 711 331 Z" fill="black"></path>
				<path d="M 711 295 L 711 331 L 712 367 Q 713 428 719 458 Q 720 470 714 475 Q 701 487 688 495 C 663 512 648 512 656 483 Q 665 465 670 357 L 669 245 Q 669 74 649 0 Q 639 -42 681 -100 Q 685 -107 692 -110 Q 702 -111 708 -99 Q 720 -68 716 -38 Q 710 119 710 252 L 711 295 Z" fill="red"></path>
				<path d="M 655 319 Q 613 202 486 27 Q 482 18 492 18 Q 496 17 505 25 Q 613 125 669 245 C 716 342 665 347 655 319 Z" fill="lightgray"></path>
				<path d="M 710 252 Q 711 251 713 248 Q 833 49 857 43 Q 948 43 958 44 Q 970 45 974 50 Q 978 54 971 58 Q 857 118 797 186 Q 760 228 717 287 L 711 295 C 693 319 693 277 710 252 Z" fill="lightgray"></path>
</g>
		<text x="40" y="140" font-size="128" fill="#999999">10</text></g>
</g>
	<g id="id2:id2" transform="translate(0.0,2048)">
		<g id="id2:id0:id0" transform="matrix(1.0,0,0,1.0,0,0.0)">			<g stroke="lightgray" stroke-width="4" transform="scale(4, 4)"> <rect x="0" y="0" width="256" height="256" fill="white" stroke-width="4"/></g>
			<g transform="scale(0.92, -0.92) translate(60, -920)">					<path d="M 310 630 Q 346 615 414 624 Q 739 669 761 683 Q 771 690 766 700 Q 760 713 731 722 Q 700 729 595 700 Q 432 667 308 661 Q 304 661 303 660 C 273 657 282 639 310 630 Z" fill="black"></path>
				<path d="M 303 660 Q 287 675 258 687 Q 239 697 225 693 Q 212 686 219 671 Q 238 641 239 577 Q 221 352 192 246 L 180 209 Q 140 98 51 -44 Q 45 -51 44 -57 Q 41 -69 52 -66 Q 82 -62 163 61 Q 184 97 204 138 Q 276 307 296 551 Q 300 621 310 630 C 317 650 317 650 303 660 Z" fill="black"></path>
				<path d="M 419 468 Q 503 501 527 506 Q 540 507 544 513 Q 547 523 537 532 Q 489 568 457 563 Q 451 560 451 551 Q 451 521 313 450 Q 309 443 313 440 Q 325 440 387 458 Q 388 459 392 459 L 419 468 Z" fill="black"></path>
				<path d="M 442 332 Q 457 339 538 351 Q 548 350 554 361 Q 555 371 535 379 Q 501 397 445 373 L 404 361 Q 353 349 282 337 Q 258 333 278 319 Q 305 301 341 308 Q 360 314 388 319 L 442 332 Z" fill="black"></path>
				<path d="M 399 233 Q 399 136 377 24 Q 361 -9 395 -61 Q 405 -79 411 -82 Q 421 -83 426 -72 Q 435 -51 435 68 Q 435 227 442 332 L 445 373 Q 448 410 452 429 Q 453 439 448 445 Q 432 460 419 468 C 395 485 383 488 392 459 Q 402 441 404 361 L 399 233 Z" fill="black"></path>
				<path d="M 388 319 Q 349 201 214 3 Q 210 -6 220 -6 Q 224 -7 233 1 Q 336 100 399 233 C 453 346 398 347 388 319 Z" fill="black"></path>
				<path d="M 466 222 Q 487 203 509 181 Q 518 171 530 171 Q 537 171 542 181 Q 545 191 540 213 Q 534 237 464 257 Q 452 260 448 258 Q 444 255 445 246 Q 446 239 466 222 Z" fill="black"></path>
				<path d="M 688 495 Q 769 532 796 540 Q 812 541 814 548 Q 817 558 806 567 Q 757 601 721 597 Q 700 555 671 533 Q 665 530 659 525 Q 619 497 556 463 Q 552 454 557 452 Q 567 452 642 478 Q 649 481 656 483 L 688 495 Z" fill="black"></path>
				<path d="M 711 331 Q 765 343 858 348 Q 897 348 901 357 Q 904 367 890 377 Q 842 405 795 388 L 712 367 L 670 357 Q 616 347 560 334 Q 544 331 557 319 Q 581 298 629 313 Q 641 317 655 319 L 711 331 Z" fill="black"></path>
				<path d="M 711 295 L 711 331 L 712 367 Q 713 428 719 458 Q 720 470 714 475 Q 701 487 688 495 C 663 512 648 512 656 483 Q 665 465 670 357 L 669 245 Q 669 74 649 0 Q 639 -42 681 -100 Q 685 -107 692 -110 Q 702 -111 708 -99 Q 720 -68 716 -38 Q 710 119 710 252 L 711 295 Z" fill="black"></path>
				<path d="M 655 319 Q 613 202 486 27 Q 482 18 492 18 Q 496 17 505 25 Q 613 125 669 245 C 716 342 665 347 655 319 Z" fill="red"></path>
				<path d="M 710 252 Q 711 251 713 248 Q 833 49 857 43 Q 948 43 958 44 Q 970 45 974 50 Q 978 54 971 58 Q 857 118 797 186 Q 760 228 717 287 L 711 295 C 693 319 693 277 710 252 Z" fill="lightgray"></path>
</g>
		<text x="40" y="140" font-size="128" fill="#999999">11</text></g>
		<g id="id2:id1:id1" transform="matrix(1.0,0,0,1.0,1024,0.0)">			<g stroke="lightgray" stroke-width="4" transform="scale(4, 4)"> <rect x="0" y="0" width="256" height="256" fill="white" stroke-width="4"/></g>
			<g transform="scale(0.92, -0.92) translate(60, -920)">					<path d="M 310 630 Q 346 615 414 624 Q 739 669 761 683 Q 771 690 766 700 Q 760 713 731 722 Q 700 729 595 700 Q 432 667 308 661 Q 304 661 303 660 C 273 657 282 639 310 630 Z" fill="black"></path>
				<path d="M 303 660 Q 287 675 258 687 Q 239 697 225 693 Q 212 686 219 671 Q 238 641 239 577 Q 221 352 192 246 L 180 209 Q 140 98 51 -44 Q 45 -51 44 -57 Q 41 -69 52 -66 Q 82 -62 163 61 Q 184 97 204 138 Q 276 307 296 551 Q 300 621 310 630 C 317 650 317 650 303 660 Z" fill="black"></path>
				<path d="M 419 468 Q 503 501 527 506 Q 540 507 544 513 Q 547 523 537 532 Q 489 568 457 563 Q 451 560 451 551 Q 451 521 313 450 Q 309 443 313 440 Q 325 440 387 458 Q 388 459 392 459 L 419 468 Z" fill="black"></path>
				<path d="M 442 332 Q 457 339 538 351 Q 548 350 554 361 Q 555 371 535 379 Q 501 397 445 373 L 404 361 Q 353 349 282 337 Q 258 333 278 319 Q 305 301 341 308 Q 360 314 388 319 L 442 332 Z" fill="black"></path>
				<path d="M 399 233 Q 399 136 377 24 Q 361 -9 395 -61 Q 405 -79 411 -82 Q 421 -83 426 -72 Q 435 -51 435 68 Q 435 227 442 332 L 445 373 Q 448 410 452 429 Q 453 439 448 445 Q 432 460 419 468 C 395 485 383 488 392 459 Q 402 441 404 361 L 399 233 Z" fill="black"></path>
				<path d="M 388 319 Q 349 201 214 3 Q 210 -6 220 -6 Q 224 -7 233 1 Q 336 100 399 233 C 453 346 398 347 388 319 Z" fill="black"></path>
				<path d="M 466 222 Q 487 203 509 181 Q 518 171 530 171 Q 537 171 542 181 Q 545 191 540 213 Q 534 237 464 257 Q 452 260 448 258 Q 444 255 445 246 Q 446 239 466 222 Z" fill="black"></path>
				<path d="M 688 495 Q 769 532 796 540 Q 812 541 814 548 Q 817 558 806 567 Q 757 601 721 597 Q 700 555 671 533 Q 665 530 659 525 Q 619 497 556 463 Q 552 454 557 452 Q 567 452 642 478 Q 649 481 656 483 L 688 495 Z" fill="black"></path>
				<path d="M 711 331 Q 765 343 858 348 Q 897 348 901 357 Q 904 367 890 377 Q 842 405 795 388 L 712 367 L 670 357 Q 616 347 560 334 Q 544 331 557 319 Q 581 298 629 313 Q 641 317 655 319 L 711 331 Z" fill="black"></path>
				<path d="M 711 295 L 711 331 L 712 367 Q 713 428 719 458 Q 720 470 714 475 Q 701 487 688 495 C 663 512 648 512 656 483 Q 665 465 670 357 L 669 245 Q 669 74 649 0 Q 639 -42 681 -100 Q 685 -107 692 -110 Q 702 -111 708 -99 Q 720 -68 716 -38 Q 710 119 710 252 L 711 295 Z" fill="black"></path>
				<path d="M 655 319 Q 613 202 486 27 Q 482 18 492 18 Q 496 17 505 25 Q 613 125 669 245 C 716 342 665 347 655 319 Z" fill="black"></path>
				<path d="M 710 252 Q 711 251 713 248 Q 833 49 857 43 Q 948 43 958 44 Q 970 45 974 50 Q 978 54 971 58 Q 857 118 797 186 Q 760 228 717 287 L 711 295 C 693 319 693 277 710 252 Z" fill="red"></path>
</g>
		<text x="40" y="140" font-size="128" fill="#999999">12</text></g>
		<g id="id2:id2:id2" transform="matrix(1.0,0,0,1.0,2048,0.0)">			<g stroke="white" stroke-width="4" transform="scale(4, 4)"> <rect x="1" y="1" width="255" height="255" fill="white" stroke-width="0"/></g>
</g>
		<g id="id2:id3:id3" transform="matrix(1.0,0,0,1.0,3072,0.0)">			<g stroke="white" stroke-width="4" transform="scale(4, 4)"> <rect x="1" y="1" width="255" height="255" fill="white" stroke-width="0"/></g>
</g>
		<g id="id2:id4:id4" transform="matrix(1.0,0,0,1.0,4096,0.0)">			<g stroke="white" stroke-width="4" transform="scale(4, 4)"> <rect x="1" y="1" width="255" height="255" fill="white" stroke-width="0"/></g>
</g>
</g>
</svg>
