<?xml version="1.0" standalone="no"?>
<!DOCTYPE svg PUBLIC "-//W3C//DTD SVG 1.1//EN"
 "http://www.w3.org/Graphics/SVG/1.1/DTD/svg11.dtd">
<!-- generate by Japanese dictionary app com.asnsami.kanjidictionary -->

<svg xmlns="http://www.w3.org/2000/svg" xmlns:sodipodi="http://sodipodi.sourceforge.net/DTD/sodipodi-0.dtd" version="1.1" width="640" height="256" viewBox="0 0 5120 2048">
	<g id="id0:id0" transform="translate(0.0,0)">
		<g id="id0:id0:id0" transform="matrix(1.0,0,0,1.0,0,0.0)">			<g stroke="lightgray" stroke-width="4" transform="scale(4, 4)"> <rect x="0" y="0" width="256" height="256" fill="white" stroke-width="4"/></g>
			<g transform="scale(0.92, -0.92) translate(60, -920)">					<path d="M 334 621 L 303 632 Q 296 636 280 637 Q 254 640 259 624 L 265 616 Q 281 601 288 587 Q 296 572 302 526 L 319 417 Q 321 396 328 379 Q 335 362 342 362 Q 350 362 351 363 L 357 369 Q 361 374 363 390 L 363 424 L 339 591 C 335 621 335 621 334 621 Z" fill="red"></path>
				<path d="M 663 446 L 695 534 L 710 571 Q 715 579 717 584 Q 719 588 732 600 Q 745 612 746 620 Q 747 641 699 667 Q 671 683 659 683 Q 635 681 610 668 L 493 643 Q 461 636 334 621 C 304 617 309 586 339 591 L 533 621 Q 593 629 598 629 Q 618 630 631 617 Q 631 615 634 604 Q 635 602 627 562 L 603 456 C 596 427 653 418 663 446 Z" fill="lightgray"></path>
				<path d="M 468 398 L 630 414 L 678 416 Q 681 419 681 422 Q 685 425 663 446 C 645 463 633 461 603 456 L 563 449 L 499 442 L 363 424 C 333 420 333 389 363 390 L 429 393 L 468 398 Z" fill="lightgray"></path>
				<path d="M 401 220 L 505 342 Q 526 360 501 378 Q 493 380 468 398 C 444 415 430 423 429 393 L 428 366 Q 421 315 389 263 L 376 238 Q 365 219 363 217 C 346 192 382 197 401 220 Z" fill="lightgray"></path>
				<path d="M 197 215 Q 197 208 201 204 L 221 186 Q 231 175 236 163 Q 241 150 248 104 L 273 -62 Q 277 -90 295 -101 Q 302 -107 306 -102 L 311 -100 Q 318 -94 320 -63 L 316 -21 L 289 175 C 285 205 285 206 271 210 L 241 219 L 218 222 Q 199 222 197 215 Z" fill="lightgray"></path>
				<path d="M 733 -12 L 761 90 Q 764 109 780 139 Q 796 169 809 182 Q 823 195 823 200 Q 827 216 782 245 Q 737 274 720 271 Q 715 271 694 265 Q 674 259 650 254 L 627 250 L 401 220 L 363 217 L 311 213 Q 305 212 271 210 C 241 208 259 172 289 175 L 547 204 Q 665 218 683 208 Q 691 206 694 203 Q 698 200 701 183 Q 701 172 697 155 L 659 2 C 652 -27 725 -41 733 -12 Z" fill="lightgray"></path>
				<path d="M 320 -63 L 350 -63 L 511 -54 L 745 -43 Q 752 -41 752 -39 Q 753 -38 753 -35 Q 753 -32 750 -29 L 747 -24 L 733 -12 C 714 4 689 3 659 2 L 556 -2 Q 545 0 316 -21 C 286 -24 290 -63 320 -63 Z" fill="lightgray"></path>
</g>
		<text x="40" y="140" font-size="128" fill="#999999">1</text></g>
		<g id="id0:id1:id1" transform="matrix(1.0,0,0,1.0,1024,0.0)">			<g stroke="lightgray" stroke-width="4" transform="scale(4, 4)"> <rect x="0" y="0" width="256" height="256" fill="white" stroke-width="4"/></g>
			<g transform="scale(0.92, -0.92) translate(60, -920)">					<path d="M 334 621 L 303 632 Q 296 636 280 637 Q 254 640 259 624 L 265 616 Q 281 601 288 587 Q 296 572 302 526 L 319 417 Q 321 396 328 379 Q 335 362 342 362 Q 350 362 351 363 L 357 369 Q 361 374 363 390 L 363 424 L 339 591 C 335 621 335 621 334 621 Z" fill="black"></path>
				<path d="M 663 446 L 695 534 L 710 571 Q 715 579 717 584 Q 719 588 732 600 Q 745 612 746 620 Q 747 641 699 667 Q 671 683 659 683 Q 635 681 610 668 L 493 643 Q 461 636 334 621 C 304 617 309 586 339 591 L 533 621 Q 593 629 598 629 Q 618 630 631 617 Q 631 615 634 604 Q 635 602 627 562 L 603 456 C 596 427 653 418 663 446 Z" fill="red"></path>
				<path d="M 468 398 L 630 414 L 678 416 Q 681 419 681 422 Q 685 425 663 446 C 645 463 633 461 603 456 L 563 449 L 499 442 L 363 424 C 333 420 333 389 363 390 L 429 393 L 468 398 Z" fill="lightgray"></path>
				<path d="M 401 220 L 505 342 Q 526 360 501 378 Q 493 380 468 398 C 444 415 430 423 429 393 L 428 366 Q 421 315 389 263 L 376 238 Q 365 219 363 217 C 346 192 382 197 401 220 Z" fill="lightgray"></path>
				<path d="M 197 215 Q 197 208 201 204 L 221 186 Q 231 175 236 163 Q 241 150 248 104 L 273 -62 Q 277 -90 295 -101 Q 302 -107 306 -102 L 311 -100 Q 318 -94 320 -63 L 316 -21 L 289 175 C 285 205 285 206 271 210 L 241 219 L 218 222 Q 199 222 197 215 Z" fill="lightgray"></path>
				<path d="M 733 -12 L 761 90 Q 764 109 780 139 Q 796 169 809 182 Q 823 195 823 200 Q 827 216 782 245 Q 737 274 720 271 Q 715 271 694 265 Q 674 259 650 254 L 627 250 L 401 220 L 363 217 L 311 213 Q 305 212 271 210 C 241 208 259 172 289 175 L 547 204 Q 665 218 683 208 Q 691 206 694 203 Q 698 200 701 183 Q 701 172 697 155 L 659 2 C 652 -27 725 -41 733 -12 Z" fill="lightgray"></path>
				<path d="M 320 -63 L 350 -63 L 511 -54 L 745 -43 Q 752 -41 752 -39 Q 753 -38 753 -35 Q 753 -32 750 -29 L 747 -24 L 733 -12 C 714 4 689 3 659 2 L 556 -2 Q 545 0 316 -21 C 286 -24 290 -63 320 -63 Z" fill="lightgray"></path>
</g>
		<text x="40" y="140" font-size="128" fill="#999999">2</text></g>
		<g id="id0:id2:id2" transform="matrix(1.0,0,0,1.0,2048,0.0)">			<g stroke="lightgray" stroke-width="4" transform="scale(4, 4)"> <rect x="0" y="0" width="256" height="256" fill="white" stroke-width="4"/></g>
			<g transform="scale(0.92, -0.92) translate(60, -920)">					<path d="M 334 621 L 303 632 Q 296 636 280 637 Q 254 640 259 624 L 265 616 Q 281 601 288 587 Q 296 572 302 526 L 319 417 Q 321 396 328 379 Q 335 362 342 362 Q 350 362 351 363 L 357 369 Q 361 374 363 390 L 363 424 L 339 591 C 335 621 335 621 334 621 Z" fill="black"></path>
				<path d="M 663 446 L 695 534 L 710 571 Q 715 579 717 584 Q 719 588 732 600 Q 745 612 746 620 Q 747 641 699 667 Q 671 683 659 683 Q 635 681 610 668 L 493 643 Q 461 636 334 621 C 304 617 309 586 339 591 L 533 621 Q 593 629 598 629 Q 618 630 631 617 Q 631 615 634 604 Q 635 602 627 562 L 603 456 C 596 427 653 418 663 446 Z" fill="black"></path>
				<path d="M 468 398 L 630 414 L 678 416 Q 681 419 681 422 Q 685 425 663 446 C 645 463 633 461 603 456 L 563 449 L 499 442 L 363 424 C 333 420 333 389 363 390 L 429 393 L 468 398 Z" fill="red"></path>
				<path d="M 401 220 L 505 342 Q 526 360 501 378 Q 493 380 468 398 C 444 415 430 423 429 393 L 428 366 Q 421 315 389 263 L 376 238 Q 365 219 363 217 C 346 192 382 197 401 220 Z" fill="lightgray"></path>
				<path d="M 197 215 Q 197 208 201 204 L 221 186 Q 231 175 236 163 Q 241 150 248 104 L 273 -62 Q 277 -90 295 -101 Q 302 -107 306 -102 L 311 -100 Q 318 -94 320 -63 L 316 -21 L 289 175 C 285 205 285 206 271 210 L 241 219 L 218 222 Q 199 222 197 215 Z" fill="lightgray"></path>
				<path d="M 733 -12 L 761 90 Q 764 109 780 139 Q 796 169 809 182 Q 823 195 823 200 Q 827 216 782 245 Q 737 274 720 271 Q 715 271 694 265 Q 674 259 650 254 L 627 250 L 401 220 L 363 217 L 311 213 Q 305 212 271 210 C 241 208 259 172 289 175 L 547 204 Q 665 218 683 208 Q 691 206 694 203 Q 698 200 701 183 Q 701 172 697 155 L 659 2 C 652 -27 725 -41 733 -12 Z" fill="lightgray"></path>
				<path d="M 320 -63 L 350 -63 L 511 -54 L 745 -43 Q 752 -41 752 -39 Q 753 -38 753 -35 Q 753 -32 750 -29 L 747 -24 L 733 -12 C 714 4 689 3 659 2 L 556 -2 Q 545 0 316 -21 C 286 -24 290 -63 320 -63 Z" fill="lightgray"></path>
</g>
		<text x="40" y="140" font-size="128" fill="#999999">3</text></g>
		<g id="id0:id3:id3" transform="matrix(1.0,0,0,1.0,3072,0.0)">			<g stroke="lightgray" stroke-width="4" transform="scale(4, 4)"> <rect x="0" y="0" width="256" height="256" fill="white" stroke-width="4"/></g>
			<g transform="scale(0.92, -0.92) translate(60, -920)">					<path d="M 334 621 L 303 632 Q 296 636 280 637 Q 254 640 259 624 L 265 616 Q 281 601 288 587 Q 296 572 302 526 L 319 417 Q 321 396 328 379 Q 335 362 342 362 Q 350 362 351 363 L 357 369 Q 361 374 363 390 L 363 424 L 339 591 C 335 621 335 621 334 621 Z" fill="black"></path>
				<path d="M 663 446 L 695 534 L 710 571 Q 715 579 717 584 Q 719 588 732 600 Q 745 612 746 620 Q 747 641 699 667 Q 671 683 659 683 Q 635 681 610 668 L 493 643 Q 461 636 334 621 C 304 617 309 586 339 591 L 533 621 Q 593 629 598 629 Q 618 630 631 617 Q 631 615 634 604 Q 635 602 627 562 L 603 456 C 596 427 653 418 663 446 Z" fill="black"></path>
				<path d="M 468 398 L 630 414 L 678 416 Q 681 419 681 422 Q 685 425 663 446 C 645 463 633 461 603 456 L 563 449 L 499 442 L 363 424 C 333 420 333 389 363 390 L 429 393 L 468 398 Z" fill="black"></path>
				<path d="M 401 220 L 505 342 Q 526 360 501 378 Q 493 380 468 398 C 444 415 430 423 429 393 L 428 366 Q 421 315 389 263 L 376 238 Q 365 219 363 217 C 346 192 382 197 401 220 Z" fill="red"></path>
				<path d="M 197 215 Q 197 208 201 204 L 221 186 Q 231 175 236 163 Q 241 150 248 104 L 273 -62 Q 277 -90 295 -101 Q 302 -107 306 -102 L 311 -100 Q 318 -94 320 -63 L 316 -21 L 289 175 C 285 205 285 206 271 210 L 241 219 L 218 222 Q 199 222 197 215 Z" fill="lightgray"></path>
				<path d="M 733 -12 L 761 90 Q 764 109 780 139 Q 796 169 809 182 Q 823 195 823 200 Q 827 216 782 245 Q 737 274 720 271 Q 715 271 694 265 Q 674 259 650 254 L 627 250 L 401 220 L 363 217 L 311 213 Q 305 212 271 210 C 241 208 259 172 289 175 L 547 204 Q 665 218 683 208 Q 691 206 694 203 Q 698 200 701 183 Q 701 172 697 155 L 659 2 C 652 -27 725 -41 733 -12 Z" fill="lightgray"></path>
				<path d="M 320 -63 L 350 -63 L 511 -54 L 745 -43 Q 752 -41 752 -39 Q 753 -38 753 -35 Q 753 -32 750 -29 L 747 -24 L 733 -12 C 714 4 689 3 659 2 L 556 -2 Q 545 0 316 -21 C 286 -24 290 -63 320 -63 Z" fill="lightgray"></path>
</g>
		<text x="40" y="140" font-size="128" fill="#999999">4</text></g>
		<g id="id0:id4:id4" transform="matrix(1.0,0,0,1.0,4096,0.0)">			<g stroke="lightgray" stroke-width="4" transform="scale(4, 4)"> <rect x="0" y="0" width="256" height="256" fill="white" stroke-width="4"/></g>
			<g transform="scale(0.92, -0.92) translate(60, -920)">					<path d="M 334 621 L 303 632 Q 296 636 280 637 Q 254 640 259 624 L 265 616 Q 281 601 288 587 Q 296 572 302 526 L 319 417 Q 321 396 328 379 Q 335 362 342 362 Q 350 362 351 363 L 357 369 Q 361 374 363 390 L 363 424 L 339 591 C 335 621 335 621 334 621 Z" fill="black"></path>
				<path d="M 663 446 L 695 534 L 710 571 Q 715 579 717 584 Q 719 588 732 600 Q 745 612 746 620 Q 747 641 699 667 Q 671 683 659 683 Q 635 681 610 668 L 493 643 Q 461 636 334 621 C 304 617 309 586 339 591 L 533 621 Q 593 629 598 629 Q 618 630 631 617 Q 631 615 634 604 Q 635 602 627 562 L 603 456 C 596 427 653 418 663 446 Z" fill="black"></path>
				<path d="M 468 398 L 630 414 L 678 416 Q 681 419 681 422 Q 685 425 663 446 C 645 463 633 461 603 456 L 563 449 L 499 442 L 363 424 C 333 420 333 389 363 390 L 429 393 L 468 398 Z" fill="black"></path>
				<path d="M 401 220 L 505 342 Q 526 360 501 378 Q 493 380 468 398 C 444 415 430 423 429 393 L 428 366 Q 421 315 389 263 L 376 238 Q 365 219 363 217 C 346 192 382 197 401 220 Z" fill="black"></path>
				<path d="M 197 215 Q 197 208 201 204 L 221 186 Q 231 175 236 163 Q 241 150 248 104 L 273 -62 Q 277 -90 295 -101 Q 302 -107 306 -102 L 311 -100 Q 318 -94 320 -63 L 316 -21 L 289 175 C 285 205 285 206 271 210 L 241 219 L 218 222 Q 199 222 197 215 Z" fill="red"></path>
				<path d="M 733 -12 L 761 90 Q 764 109 780 139 Q 796 169 809 182 Q 823 195 823 200 Q 827 216 782 245 Q 737 274 720 271 Q 715 271 694 265 Q 674 259 650 254 L 627 250 L 401 220 L 363 217 L 311 213 Q 305 212 271 210 C 241 208 259 172 289 175 L 547 204 Q 665 218 683 208 Q 691 206 694 203 Q 698 200 701 183 Q 701 172 697 155 L 659 2 C 652 -27 725 -41 733 -12 Z" fill="lightgray"></path>
				<path d="M 320 -63 L 350 -63 L 511 -54 L 745 -43 Q 752 -41 752 -39 Q 753 -38 753 -35 Q 753 -32 750 -29 L 747 -24 L 733 -12 C 714 4 689 3 659 2 L 556 -2 Q 545 0 316 -21 C 286 -24 290 -63 320 -63 Z" fill="lightgray"></path>
</g>
		<text x="40" y="140" font-size="128" fill="#999999">5</text></g>
</g>
	<g id="id1:id1" transform="translate(0.0,1024)">
		<g id="id1:id0:id0" transform="matrix(1.0,0,0,1.0,0,0.0)">			<g stroke="lightgray" stroke-width="4" transform="scale(4, 4)"> <rect x="0" y="0" width="256" height="256" fill="white" stroke-width="4"/></g>
			<g transform="scale(0.92, -0.92) translate(60, -920)">					<path d="M 334 621 L 303 632 Q 296 636 280 637 Q 254 640 259 624 L 265 616 Q 281 601 288 587 Q 296 572 302 526 L 319 417 Q 321 396 328 379 Q 335 362 342 362 Q 350 362 351 363 L 357 369 Q 361 374 363 390 L 363 424 L 339 591 C 335 621 335 621 334 621 Z" fill="black"></path>
				<path d="M 663 446 L 695 534 L 710 571 Q 715 579 717 584 Q 719 588 732 600 Q 745 612 746 620 Q 747 641 699 667 Q 671 683 659 683 Q 635 681 610 668 L 493 643 Q 461 636 334 621 C 304 617 309 586 339 591 L 533 621 Q 593 629 598 629 Q 618 630 631 617 Q 631 615 634 604 Q 635 602 627 562 L 603 456 C 596 427 653 418 663 446 Z" fill="black"></path>
				<path d="M 468 398 L 630 414 L 678 416 Q 681 419 681 422 Q 685 425 663 446 C 645 463 633 461 603 456 L 563 449 L 499 442 L 363 424 C 333 420 333 389 363 390 L 429 393 L 468 398 Z" fill="black"></path>
				<path d="M 401 220 L 505 342 Q 526 360 501 378 Q 493 380 468 398 C 444 415 430 423 429 393 L 428 366 Q 421 315 389 263 L 376 238 Q 365 219 363 217 C 346 192 382 197 401 220 Z" fill="black"></path>
				<path d="M 197 215 Q 197 208 201 204 L 221 186 Q 231 175 236 163 Q 241 150 248 104 L 273 -62 Q 277 -90 295 -101 Q 302 -107 306 -102 L 311 -100 Q 318 -94 320 -63 L 316 -21 L 289 175 C 285 205 285 206 271 210 L 241 219 L 218 222 Q 199 222 197 215 Z" fill="black"></path>
				<path d="M 733 -12 L 761 90 Q 764 109 780 139 Q 796 169 809 182 Q 823 195 823 200 Q 827 216 782 245 Q 737 274 720 271 Q 715 271 694 265 Q 674 259 650 254 L 627 250 L 401 220 L 363 217 L 311 213 Q 305 212 271 210 C 241 208 259 172 289 175 L 547 204 Q 665 218 683 208 Q 691 206 694 203 Q 698 200 701 183 Q 701 172 697 155 L 659 2 C 652 -27 725 -41 733 -12 Z" fill="red"></path>
				<path d="M 320 -63 L 350 -63 L 511 -54 L 745 -43 Q 752 -41 752 -39 Q 753 -38 753 -35 Q 753 -32 750 -29 L 747 -24 L 733 -12 C 714 4 689 3 659 2 L 556 -2 Q 545 0 316 -21 C 286 -24 290 -63 320 -63 Z" fill="lightgray"></path>
</g>
		<text x="40" y="140" font-size="128" fill="#999999">6</text></g>
		<g id="id1:id1:id1" transform="matrix(1.0,0,0,1.0,1024,0.0)">			<g stroke="lightgray" stroke-width="4" transform="scale(4, 4)"> <rect x="0" y="0" width="256" height="256" fill="white" stroke-width="4"/></g>
			<g transform="scale(0.92, -0.92) translate(60, -920)">					<path d="M 334 621 L 303 632 Q 296 636 280 637 Q 254 640 259 624 L 265 616 Q 281 601 288 587 Q 296 572 302 526 L 319 417 Q 321 396 328 379 Q 335 362 342 362 Q 350 362 351 363 L 357 369 Q 361 374 363 390 L 363 424 L 339 591 C 335 621 335 621 334 621 Z" fill="black"></path>
				<path d="M 663 446 L 695 534 L 710 571 Q 715 579 717 584 Q 719 588 732 600 Q 745 612 746 620 Q 747 641 699 667 Q 671 683 659 683 Q 635 681 610 668 L 493 643 Q 461 636 334 621 C 304 617 309 586 339 591 L 533 621 Q 593 629 598 629 Q 618 630 631 617 Q 631 615 634 604 Q 635 602 627 562 L 603 456 C 596 427 653 418 663 446 Z" fill="black"></path>
				<path d="M 468 398 L 630 414 L 678 416 Q 681 419 681 422 Q 685 425 663 446 C 645 463 633 461 603 456 L 563 449 L 499 442 L 363 424 C 333 420 333 389 363 390 L 429 393 L 468 398 Z" fill="black"></path>
				<path d="M 401 220 L 505 342 Q 526 360 501 378 Q 493 380 468 398 C 444 415 430 423 429 393 L 428 366 Q 421 315 389 263 L 376 238 Q 365 219 363 217 C 346 192 382 197 401 220 Z" fill="black"></path>
				<path d="M 197 215 Q 197 208 201 204 L 221 186 Q 231 175 236 163 Q 241 150 248 104 L 273 -62 Q 277 -90 295 -101 Q 302 -107 306 -102 L 311 -100 Q 318 -94 320 -63 L 316 -21 L 289 175 C 285 205 285 206 271 210 L 241 219 L 218 222 Q 199 222 197 215 Z" fill="black"></path>
				<path d="M 733 -12 L 761 90 Q 764 109 780 139 Q 796 169 809 182 Q 823 195 823 200 Q 827 216 782 245 Q 737 274 720 271 Q 715 271 694 265 Q 674 259 650 254 L 627 250 L 401 220 L 363 217 L 311 213 Q 305 212 271 210 C 241 208 259 172 289 175 L 547 204 Q 665 218 683 208 Q 691 206 694 203 Q 698 200 701 183 Q 701 172 697 155 L 659 2 C 652 -27 725 -41 733 -12 Z" fill="black"></path>
				<path d="M 320 -63 L 350 -63 L 511 -54 L 745 -43 Q 752 -41 752 -39 Q 753 -38 753 -35 Q 753 -32 750 -29 L 747 -24 L 733 -12 C 714 4 689 3 659 2 L 556 -2 Q 545 0 316 -21 C 286 -24 290 -63 320 -63 Z" fill="red"></path>
</g>
		<text x="40" y="140" font-size="128" fill="#999999">7</text></g>
		<g id="id1:id2:id2" transform="matrix(1.0,0,0,1.0,2048,0.0)">			<g stroke="white" stroke-width="4" transform="scale(4, 4)"> <rect x="1" y="1" width="255" height="255" fill="white" stroke-width="0"/></g>
</g>
		<g id="id1:id3:id3" transform="matrix(1.0,0,0,1.0,3072,0.0)">			<g stroke="white" stroke-width="4" transform="scale(4, 4)"> <rect x="1" y="1" width="255" height="255" fill="white" stroke-width="0"/></g>
</g>
		<g id="id1:id4:id4" transform="matrix(1.0,0,0,1.0,4096,0.0)">			<g stroke="white" stroke-width="4" transform="scale(4, 4)"> <rect x="1" y="1" width="255" height="255" fill="white" stroke-width="0"/></g>
</g>
</g>
</svg>
