<?xml version="1.0" standalone="no"?>
<!DOCTYPE svg PUBLIC "-//W3C//DTD SVG 1.1//EN"
 "http://www.w3.org/Graphics/SVG/1.1/DTD/svg11.dtd">
<!-- generate by Japanese dictionary app com.asnsami.kanjidictionary -->

<svg xmlns="http://www.w3.org/2000/svg" xmlns:sodipodi="http://sodipodi.sourceforge.net/DTD/sodipodi-0.dtd" version="1.1" width="640" height="384" viewBox="0 0 5120 3072">
	<g id="id0:id0" transform="translate(0.0,0)">
		<g id="id0:id0:id0" transform="matrix(1.0,0,0,1.0,0,0.0)">			<g stroke="lightgray" stroke-width="4" transform="scale(4, 4)"> <rect x="0" y="0" width="256" height="256" fill="white" stroke-width="4"/></g>
			<g transform="scale(0.92, -0.92) translate(60, -920)">					<path d="M 532 604 L 538 612 Q 541 614 546 633 Q 547 649 546 664 Q 536 694 488 714 Q 463 725 463 726 Q 430 736 423 730 Q 421 727 427 715 L 440 688 Q 447 672 458 654 L 480 617 L 496 602 C 516 583 516 583 532 604 Z" fill="red"></path>
				<path d="M 591 575 L 809 580 Q 862 580 878 579 Q 893 578 916 580 Q 924 582 927 586 Q 933 601 918 611 Q 903 621 900 622 Q 848 642 832 642 L 803 636 Q 756 625 714 621 L 532 604 L 496 602 L 437 595 Q 328 584 321 584 L 170 570 L 99 566 Q 91 563 91 558 Q 91 553 97 549 Q 102 544 129 530 Q 156 516 169 516 Q 181 515 203 523 L 239 532 L 332 550 L 356 555 L 414 562 L 504 568 L 572 574 L 591 575 Z" fill="lightgray"></path>
				<path d="M 332 550 L 378 442 Q 386 422 410 389 C 428 365 431 363 438 392 L 442 410 Q 445 431 442 452 L 431 485 Q 425 500 410 512 Q 393 528 386 532 L 356 555 C 332 573 320 578 332 550 Z" fill="lightgray"></path>
				<path d="M 548 404 L 569 429 L 622 498 L 634 511 Q 643 521 645 525 Q 646 529 638 542 Q 630 553 618 560 L 591 575 C 581 581 581 581 572 574 L 564 568 Q 562 569 562 562 L 566 540 Q 567 534 564 515 Q 559 498 549 477 L 532 436 Q 526 420 513 400 C 497 375 529 381 548 404 Z" fill="lightgray"></path>
				<path d="M 265 380 L 230 388 Q 218 392 210 390 L 202 383 Q 198 379 208 364 L 215 354 Q 234 331 223 199 Q 217 136 215 102 Q 212 68 184 -10 Q 182 -24 185 -40 Q 188 -56 208 -88 Q 219 -103 230 -93 Q 241 -83 245 -69 Q 249 -56 259 31 Q 268 117 278 338 C 279 368 280 377 265 380 Z" fill="lightgray"></path>
				<path d="M 526 369 L 650 377 L 694 378 Q 737 381 748 369 Q 752 364 753 343 Q 761 196 756 117 L 751 0 Q 750 -27 744 -46 Q 732 -72 714 -62 L 660 -42 L 639 -32 Q 634 -29 631 -33 Q 629 -38 633 -42 L 662 -74 Q 664 -77 670 -82 Q 675 -88 698 -122 Q 715 -153 719 -154 Q 723 -158 730 -158 Q 752 -164 784 -127 Q 816 -91 819 -24 Q 820 -2 818 98 L 816 232 Q 816 318 829 352 Q 840 370 840 378 Q 839 392 799 416 Q 758 437 741 435 L 725 432 Q 706 424 692 423 Q 677 422 673 420 L 548 404 L 513 400 L 438 392 L 410 389 L 265 380 C 235 378 248 337 278 338 L 290 336 Q 304 336 321 341 Q 338 345 391 354 L 406 355 L 508 369 L 526 369 Z" fill="lightgray"></path>
				<path d="M 391 354 L 389 326 Q 390 318 382 297 L 366 260 Q 363 255 347 235 Q 331 215 320 206 L 303 192 Q 296 185 297 180 Q 298 175 312 180 L 330 187 Q 359 198 380 219 Q 389 225 403 244 L 442 304 Q 453 313 442 328 L 406 355 C 392 366 392 366 391 354 Z" fill="lightgray"></path>
				<path d="M 508 369 L 509 320 Q 510 290 514 271 Q 527 215 631 223 L 657 225 Q 703 228 705 242 Q 708 250 696 260 Q 676 280 656 280 Q 635 272 591 268 Q 582 267 569 273 Q 556 278 553 291 Q 549 304 557 323 Q 565 341 564 346 Q 561 356 526 369 C 508 376 508 376 508 369 Z" fill="lightgray"></path>
				<path d="M 408 152 L 384 165 Q 366 173 356 167 Q 351 164 351 163 Q 350 161 359 149 Q 367 139 370 130 Q 381 68 382 36 Q 386 -5 398 -14 Q 410 -23 415 -22 Q 423 -18 423 12 L 422 40 L 416 124 C 414 149 414 149 408 152 Z" fill="lightgray"></path>
				<path d="M 586 42 L 599 88 Q 601 96 611 109 L 635 151 Q 635 158 618 170 Q 600 182 582 186 Q 564 190 561 190 L 544 184 Q 529 178 486 168 L 408 152 C 379 146 386 119 416 124 L 515 140 Q 535 145 540 130 Q 541 124 540 108 L 530 52 C 525 22 578 13 586 42 Z" fill="lightgray"></path>
				<path d="M 423 12 L 443 9 L 580 17 Q 595 17 596 24 Q 602 33 586 42 C 564 56 560 55 530 52 L 422 40 C 392 37 393 16 423 12 Z" fill="lightgray"></path>
</g>
		<text x="40" y="140" font-size="128" fill="#999999">1</text></g>
		<g id="id0:id1:id1" transform="matrix(1.0,0,0,1.0,1024,0.0)">			<g stroke="lightgray" stroke-width="4" transform="scale(4, 4)"> <rect x="0" y="0" width="256" height="256" fill="white" stroke-width="4"/></g>
			<g transform="scale(0.92, -0.92) translate(60, -920)">					<path d="M 532 604 L 538 612 Q 541 614 546 633 Q 547 649 546 664 Q 536 694 488 714 Q 463 725 463 726 Q 430 736 423 730 Q 421 727 427 715 L 440 688 Q 447 672 458 654 L 480 617 L 496 602 C 516 583 516 583 532 604 Z" fill="black"></path>
				<path d="M 591 575 L 809 580 Q 862 580 878 579 Q 893 578 916 580 Q 924 582 927 586 Q 933 601 918 611 Q 903 621 900 622 Q 848 642 832 642 L 803 636 Q 756 625 714 621 L 532 604 L 496 602 L 437 595 Q 328 584 321 584 L 170 570 L 99 566 Q 91 563 91 558 Q 91 553 97 549 Q 102 544 129 530 Q 156 516 169 516 Q 181 515 203 523 L 239 532 L 332 550 L 356 555 L 414 562 L 504 568 L 572 574 L 591 575 Z" fill="red"></path>
				<path d="M 332 550 L 378 442 Q 386 422 410 389 C 428 365 431 363 438 392 L 442 410 Q 445 431 442 452 L 431 485 Q 425 500 410 512 Q 393 528 386 532 L 356 555 C 332 573 320 578 332 550 Z" fill="lightgray"></path>
				<path d="M 548 404 L 569 429 L 622 498 L 634 511 Q 643 521 645 525 Q 646 529 638 542 Q 630 553 618 560 L 591 575 C 581 581 581 581 572 574 L 564 568 Q 562 569 562 562 L 566 540 Q 567 534 564 515 Q 559 498 549 477 L 532 436 Q 526 420 513 400 C 497 375 529 381 548 404 Z" fill="lightgray"></path>
				<path d="M 265 380 L 230 388 Q 218 392 210 390 L 202 383 Q 198 379 208 364 L 215 354 Q 234 331 223 199 Q 217 136 215 102 Q 212 68 184 -10 Q 182 -24 185 -40 Q 188 -56 208 -88 Q 219 -103 230 -93 Q 241 -83 245 -69 Q 249 -56 259 31 Q 268 117 278 338 C 279 368 280 377 265 380 Z" fill="lightgray"></path>
				<path d="M 526 369 L 650 377 L 694 378 Q 737 381 748 369 Q 752 364 753 343 Q 761 196 756 117 L 751 0 Q 750 -27 744 -46 Q 732 -72 714 -62 L 660 -42 L 639 -32 Q 634 -29 631 -33 Q 629 -38 633 -42 L 662 -74 Q 664 -77 670 -82 Q 675 -88 698 -122 Q 715 -153 719 -154 Q 723 -158 730 -158 Q 752 -164 784 -127 Q 816 -91 819 -24 Q 820 -2 818 98 L 816 232 Q 816 318 829 352 Q 840 370 840 378 Q 839 392 799 416 Q 758 437 741 435 L 725 432 Q 706 424 692 423 Q 677 422 673 420 L 548 404 L 513 400 L 438 392 L 410 389 L 265 380 C 235 378 248 337 278 338 L 290 336 Q 304 336 321 341 Q 338 345 391 354 L 406 355 L 508 369 L 526 369 Z" fill="lightgray"></path>
				<path d="M 391 354 L 389 326 Q 390 318 382 297 L 366 260 Q 363 255 347 235 Q 331 215 320 206 L 303 192 Q 296 185 297 180 Q 298 175 312 180 L 330 187 Q 359 198 380 219 Q 389 225 403 244 L 442 304 Q 453 313 442 328 L 406 355 C 392 366 392 366 391 354 Z" fill="lightgray"></path>
				<path d="M 508 369 L 509 320 Q 510 290 514 271 Q 527 215 631 223 L 657 225 Q 703 228 705 242 Q 708 250 696 260 Q 676 280 656 280 Q 635 272 591 268 Q 582 267 569 273 Q 556 278 553 291 Q 549 304 557 323 Q 565 341 564 346 Q 561 356 526 369 C 508 376 508 376 508 369 Z" fill="lightgray"></path>
				<path d="M 408 152 L 384 165 Q 366 173 356 167 Q 351 164 351 163 Q 350 161 359 149 Q 367 139 370 130 Q 381 68 382 36 Q 386 -5 398 -14 Q 410 -23 415 -22 Q 423 -18 423 12 L 422 40 L 416 124 C 414 149 414 149 408 152 Z" fill="lightgray"></path>
				<path d="M 586 42 L 599 88 Q 601 96 611 109 L 635 151 Q 635 158 618 170 Q 600 182 582 186 Q 564 190 561 190 L 544 184 Q 529 178 486 168 L 408 152 C 379 146 386 119 416 124 L 515 140 Q 535 145 540 130 Q 541 124 540 108 L 530 52 C 525 22 578 13 586 42 Z" fill="lightgray"></path>
				<path d="M 423 12 L 443 9 L 580 17 Q 595 17 596 24 Q 602 33 586 42 C 564 56 560 55 530 52 L 422 40 C 392 37 393 16 423 12 Z" fill="lightgray"></path>
</g>
		<text x="40" y="140" font-size="128" fill="#999999">2</text></g>
		<g id="id0:id2:id2" transform="matrix(1.0,0,0,1.0,2048,0.0)">			<g stroke="lightgray" stroke-width="4" transform="scale(4, 4)"> <rect x="0" y="0" width="256" height="256" fill="white" stroke-width="4"/></g>
			<g transform="scale(0.92, -0.92) translate(60, -920)">					<path d="M 532 604 L 538 612 Q 541 614 546 633 Q 547 649 546 664 Q 536 694 488 714 Q 463 725 463 726 Q 430 736 423 730 Q 421 727 427 715 L 440 688 Q 447 672 458 654 L 480 617 L 496 602 C 516 583 516 583 532 604 Z" fill="black"></path>
				<path d="M 591 575 L 809 580 Q 862 580 878 579 Q 893 578 916 580 Q 924 582 927 586 Q 933 601 918 611 Q 903 621 900 622 Q 848 642 832 642 L 803 636 Q 756 625 714 621 L 532 604 L 496 602 L 437 595 Q 328 584 321 584 L 170 570 L 99 566 Q 91 563 91 558 Q 91 553 97 549 Q 102 544 129 530 Q 156 516 169 516 Q 181 515 203 523 L 239 532 L 332 550 L 356 555 L 414 562 L 504 568 L 572 574 L 591 575 Z" fill="black"></path>
				<path d="M 332 550 L 378 442 Q 386 422 410 389 C 428 365 431 363 438 392 L 442 410 Q 445 431 442 452 L 431 485 Q 425 500 410 512 Q 393 528 386 532 L 356 555 C 332 573 320 578 332 550 Z" fill="red"></path>
				<path d="M 548 404 L 569 429 L 622 498 L 634 511 Q 643 521 645 525 Q 646 529 638 542 Q 630 553 618 560 L 591 575 C 581 581 581 581 572 574 L 564 568 Q 562 569 562 562 L 566 540 Q 567 534 564 515 Q 559 498 549 477 L 532 436 Q 526 420 513 400 C 497 375 529 381 548 404 Z" fill="lightgray"></path>
				<path d="M 265 380 L 230 388 Q 218 392 210 390 L 202 383 Q 198 379 208 364 L 215 354 Q 234 331 223 199 Q 217 136 215 102 Q 212 68 184 -10 Q 182 -24 185 -40 Q 188 -56 208 -88 Q 219 -103 230 -93 Q 241 -83 245 -69 Q 249 -56 259 31 Q 268 117 278 338 C 279 368 280 377 265 380 Z" fill="lightgray"></path>
				<path d="M 526 369 L 650 377 L 694 378 Q 737 381 748 369 Q 752 364 753 343 Q 761 196 756 117 L 751 0 Q 750 -27 744 -46 Q 732 -72 714 -62 L 660 -42 L 639 -32 Q 634 -29 631 -33 Q 629 -38 633 -42 L 662 -74 Q 664 -77 670 -82 Q 675 -88 698 -122 Q 715 -153 719 -154 Q 723 -158 730 -158 Q 752 -164 784 -127 Q 816 -91 819 -24 Q 820 -2 818 98 L 816 232 Q 816 318 829 352 Q 840 370 840 378 Q 839 392 799 416 Q 758 437 741 435 L 725 432 Q 706 424 692 423 Q 677 422 673 420 L 548 404 L 513 400 L 438 392 L 410 389 L 265 380 C 235 378 248 337 278 338 L 290 336 Q 304 336 321 341 Q 338 345 391 354 L 406 355 L 508 369 L 526 369 Z" fill="lightgray"></path>
				<path d="M 391 354 L 389 326 Q 390 318 382 297 L 366 260 Q 363 255 347 235 Q 331 215 320 206 L 303 192 Q 296 185 297 180 Q 298 175 312 180 L 330 187 Q 359 198 380 219 Q 389 225 403 244 L 442 304 Q 453 313 442 328 L 406 355 C 392 366 392 366 391 354 Z" fill="lightgray"></path>
				<path d="M 508 369 L 509 320 Q 510 290 514 271 Q 527 215 631 223 L 657 225 Q 703 228 705 242 Q 708 250 696 260 Q 676 280 656 280 Q 635 272 591 268 Q 582 267 569 273 Q 556 278 553 291 Q 549 304 557 323 Q 565 341 564 346 Q 561 356 526 369 C 508 376 508 376 508 369 Z" fill="lightgray"></path>
				<path d="M 408 152 L 384 165 Q 366 173 356 167 Q 351 164 351 163 Q 350 161 359 149 Q 367 139 370 130 Q 381 68 382 36 Q 386 -5 398 -14 Q 410 -23 415 -22 Q 423 -18 423 12 L 422 40 L 416 124 C 414 149 414 149 408 152 Z" fill="lightgray"></path>
				<path d="M 586 42 L 599 88 Q 601 96 611 109 L 635 151 Q 635 158 618 170 Q 600 182 582 186 Q 564 190 561 190 L 544 184 Q 529 178 486 168 L 408 152 C 379 146 386 119 416 124 L 515 140 Q 535 145 540 130 Q 541 124 540 108 L 530 52 C 525 22 578 13 586 42 Z" fill="lightgray"></path>
				<path d="M 423 12 L 443 9 L 580 17 Q 595 17 596 24 Q 602 33 586 42 C 564 56 560 55 530 52 L 422 40 C 392 37 393 16 423 12 Z" fill="lightgray"></path>
</g>
		<text x="40" y="140" font-size="128" fill="#999999">3</text></g>
		<g id="id0:id3:id3" transform="matrix(1.0,0,0,1.0,3072,0.0)">			<g stroke="lightgray" stroke-width="4" transform="scale(4, 4)"> <rect x="0" y="0" width="256" height="256" fill="white" stroke-width="4"/></g>
			<g transform="scale(0.92, -0.92) translate(60, -920)">					<path d="M 532 604 L 538 612 Q 541 614 546 633 Q 547 649 546 664 Q 536 694 488 714 Q 463 725 463 726 Q 430 736 423 730 Q 421 727 427 715 L 440 688 Q 447 672 458 654 L 480 617 L 496 602 C 516 583 516 583 532 604 Z" fill="black"></path>
				<path d="M 591 575 L 809 580 Q 862 580 878 579 Q 893 578 916 580 Q 924 582 927 586 Q 933 601 918 611 Q 903 621 900 622 Q 848 642 832 642 L 803 636 Q 756 625 714 621 L 532 604 L 496 602 L 437 595 Q 328 584 321 584 L 170 570 L 99 566 Q 91 563 91 558 Q 91 553 97 549 Q 102 544 129 530 Q 156 516 169 516 Q 181 515 203 523 L 239 532 L 332 550 L 356 555 L 414 562 L 504 568 L 572 574 L 591 575 Z" fill="black"></path>
				<path d="M 332 550 L 378 442 Q 386 422 410 389 C 428 365 431 363 438 392 L 442 410 Q 445 431 442 452 L 431 485 Q 425 500 410 512 Q 393 528 386 532 L 356 555 C 332 573 320 578 332 550 Z" fill="black"></path>
				<path d="M 548 404 L 569 429 L 622 498 L 634 511 Q 643 521 645 525 Q 646 529 638 542 Q 630 553 618 560 L 591 575 C 581 581 581 581 572 574 L 564 568 Q 562 569 562 562 L 566 540 Q 567 534 564 515 Q 559 498 549 477 L 532 436 Q 526 420 513 400 C 497 375 529 381 548 404 Z" fill="red"></path>
				<path d="M 265 380 L 230 388 Q 218 392 210 390 L 202 383 Q 198 379 208 364 L 215 354 Q 234 331 223 199 Q 217 136 215 102 Q 212 68 184 -10 Q 182 -24 185 -40 Q 188 -56 208 -88 Q 219 -103 230 -93 Q 241 -83 245 -69 Q 249 -56 259 31 Q 268 117 278 338 C 279 368 280 377 265 380 Z" fill="lightgray"></path>
				<path d="M 526 369 L 650 377 L 694 378 Q 737 381 748 369 Q 752 364 753 343 Q 761 196 756 117 L 751 0 Q 750 -27 744 -46 Q 732 -72 714 -62 L 660 -42 L 639 -32 Q 634 -29 631 -33 Q 629 -38 633 -42 L 662 -74 Q 664 -77 670 -82 Q 675 -88 698 -122 Q 715 -153 719 -154 Q 723 -158 730 -158 Q 752 -164 784 -127 Q 816 -91 819 -24 Q 820 -2 818 98 L 816 232 Q 816 318 829 352 Q 840 370 840 378 Q 839 392 799 416 Q 758 437 741 435 L 725 432 Q 706 424 692 423 Q 677 422 673 420 L 548 404 L 513 400 L 438 392 L 410 389 L 265 380 C 235 378 248 337 278 338 L 290 336 Q 304 336 321 341 Q 338 345 391 354 L 406 355 L 508 369 L 526 369 Z" fill="lightgray"></path>
				<path d="M 391 354 L 389 326 Q 390 318 382 297 L 366 260 Q 363 255 347 235 Q 331 215 320 206 L 303 192 Q 296 185 297 180 Q 298 175 312 180 L 330 187 Q 359 198 380 219 Q 389 225 403 244 L 442 304 Q 453 313 442 328 L 406 355 C 392 366 392 366 391 354 Z" fill="lightgray"></path>
				<path d="M 508 369 L 509 320 Q 510 290 514 271 Q 527 215 631 223 L 657 225 Q 703 228 705 242 Q 708 250 696 260 Q 676 280 656 280 Q 635 272 591 268 Q 582 267 569 273 Q 556 278 553 291 Q 549 304 557 323 Q 565 341 564 346 Q 561 356 526 369 C 508 376 508 376 508 369 Z" fill="lightgray"></path>
				<path d="M 408 152 L 384 165 Q 366 173 356 167 Q 351 164 351 163 Q 350 161 359 149 Q 367 139 370 130 Q 381 68 382 36 Q 386 -5 398 -14 Q 410 -23 415 -22 Q 423 -18 423 12 L 422 40 L 416 124 C 414 149 414 149 408 152 Z" fill="lightgray"></path>
				<path d="M 586 42 L 599 88 Q 601 96 611 109 L 635 151 Q 635 158 618 170 Q 600 182 582 186 Q 564 190 561 190 L 544 184 Q 529 178 486 168 L 408 152 C 379 146 386 119 416 124 L 515 140 Q 535 145 540 130 Q 541 124 540 108 L 530 52 C 525 22 578 13 586 42 Z" fill="lightgray"></path>
				<path d="M 423 12 L 443 9 L 580 17 Q 595 17 596 24 Q 602 33 586 42 C 564 56 560 55 530 52 L 422 40 C 392 37 393 16 423 12 Z" fill="lightgray"></path>
</g>
		<text x="40" y="140" font-size="128" fill="#999999">4</text></g>
		<g id="id0:id4:id4" transform="matrix(1.0,0,0,1.0,4096,0.0)">			<g stroke="lightgray" stroke-width="4" transform="scale(4, 4)"> <rect x="0" y="0" width="256" height="256" fill="white" stroke-width="4"/></g>
			<g transform="scale(0.92, -0.92) translate(60, -920)">					<path d="M 532 604 L 538 612 Q 541 614 546 633 Q 547 649 546 664 Q 536 694 488 714 Q 463 725 463 726 Q 430 736 423 730 Q 421 727 427 715 L 440 688 Q 447 672 458 654 L 480 617 L 496 602 C 516 583 516 583 532 604 Z" fill="black"></path>
				<path d="M 591 575 L 809 580 Q 862 580 878 579 Q 893 578 916 580 Q 924 582 927 586 Q 933 601 918 611 Q 903 621 900 622 Q 848 642 832 642 L 803 636 Q 756 625 714 621 L 532 604 L 496 602 L 437 595 Q 328 584 321 584 L 170 570 L 99 566 Q 91 563 91 558 Q 91 553 97 549 Q 102 544 129 530 Q 156 516 169 516 Q 181 515 203 523 L 239 532 L 332 550 L 356 555 L 414 562 L 504 568 L 572 574 L 591 575 Z" fill="black"></path>
				<path d="M 332 550 L 378 442 Q 386 422 410 389 C 428 365 431 363 438 392 L 442 410 Q 445 431 442 452 L 431 485 Q 425 500 410 512 Q 393 528 386 532 L 356 555 C 332 573 320 578 332 550 Z" fill="black"></path>
				<path d="M 548 404 L 569 429 L 622 498 L 634 511 Q 643 521 645 525 Q 646 529 638 542 Q 630 553 618 560 L 591 575 C 581 581 581 581 572 574 L 564 568 Q 562 569 562 562 L 566 540 Q 567 534 564 515 Q 559 498 549 477 L 532 436 Q 526 420 513 400 C 497 375 529 381 548 404 Z" fill="black"></path>
				<path d="M 265 380 L 230 388 Q 218 392 210 390 L 202 383 Q 198 379 208 364 L 215 354 Q 234 331 223 199 Q 217 136 215 102 Q 212 68 184 -10 Q 182 -24 185 -40 Q 188 -56 208 -88 Q 219 -103 230 -93 Q 241 -83 245 -69 Q 249 -56 259 31 Q 268 117 278 338 C 279 368 280 377 265 380 Z" fill="red"></path>
				<path d="M 526 369 L 650 377 L 694 378 Q 737 381 748 369 Q 752 364 753 343 Q 761 196 756 117 L 751 0 Q 750 -27 744 -46 Q 732 -72 714 -62 L 660 -42 L 639 -32 Q 634 -29 631 -33 Q 629 -38 633 -42 L 662 -74 Q 664 -77 670 -82 Q 675 -88 698 -122 Q 715 -153 719 -154 Q 723 -158 730 -158 Q 752 -164 784 -127 Q 816 -91 819 -24 Q 820 -2 818 98 L 816 232 Q 816 318 829 352 Q 840 370 840 378 Q 839 392 799 416 Q 758 437 741 435 L 725 432 Q 706 424 692 423 Q 677 422 673 420 L 548 404 L 513 400 L 438 392 L 410 389 L 265 380 C 235 378 248 337 278 338 L 290 336 Q 304 336 321 341 Q 338 345 391 354 L 406 355 L 508 369 L 526 369 Z" fill="lightgray"></path>
				<path d="M 391 354 L 389 326 Q 390 318 382 297 L 366 260 Q 363 255 347 235 Q 331 215 320 206 L 303 192 Q 296 185 297 180 Q 298 175 312 180 L 330 187 Q 359 198 380 219 Q 389 225 403 244 L 442 304 Q 453 313 442 328 L 406 355 C 392 366 392 366 391 354 Z" fill="lightgray"></path>
				<path d="M 508 369 L 509 320 Q 510 290 514 271 Q 527 215 631 223 L 657 225 Q 703 228 705 242 Q 708 250 696 260 Q 676 280 656 280 Q 635 272 591 268 Q 582 267 569 273 Q 556 278 553 291 Q 549 304 557 323 Q 565 341 564 346 Q 561 356 526 369 C 508 376 508 376 508 369 Z" fill="lightgray"></path>
				<path d="M 408 152 L 384 165 Q 366 173 356 167 Q 351 164 351 163 Q 350 161 359 149 Q 367 139 370 130 Q 381 68 382 36 Q 386 -5 398 -14 Q 410 -23 415 -22 Q 423 -18 423 12 L 422 40 L 416 124 C 414 149 414 149 408 152 Z" fill="lightgray"></path>
				<path d="M 586 42 L 599 88 Q 601 96 611 109 L 635 151 Q 635 158 618 170 Q 600 182 582 186 Q 564 190 561 190 L 544 184 Q 529 178 486 168 L 408 152 C 379 146 386 119 416 124 L 515 140 Q 535 145 540 130 Q 541 124 540 108 L 530 52 C 525 22 578 13 586 42 Z" fill="lightgray"></path>
				<path d="M 423 12 L 443 9 L 580 17 Q 595 17 596 24 Q 602 33 586 42 C 564 56 560 55 530 52 L 422 40 C 392 37 393 16 423 12 Z" fill="lightgray"></path>
</g>
		<text x="40" y="140" font-size="128" fill="#999999">5</text></g>
</g>
	<g id="id1:id1" transform="translate(0.0,1024)">
		<g id="id1:id0:id0" transform="matrix(1.0,0,0,1.0,0,0.0)">			<g stroke="lightgray" stroke-width="4" transform="scale(4, 4)"> <rect x="0" y="0" width="256" height="256" fill="white" stroke-width="4"/></g>
			<g transform="scale(0.92, -0.92) translate(60, -920)">					<path d="M 532 604 L 538 612 Q 541 614 546 633 Q 547 649 546 664 Q 536 694 488 714 Q 463 725 463 726 Q 430 736 423 730 Q 421 727 427 715 L 440 688 Q 447 672 458 654 L 480 617 L 496 602 C 516 583 516 583 532 604 Z" fill="black"></path>
				<path d="M 591 575 L 809 580 Q 862 580 878 579 Q 893 578 916 580 Q 924 582 927 586 Q 933 601 918 611 Q 903 621 900 622 Q 848 642 832 642 L 803 636 Q 756 625 714 621 L 532 604 L 496 602 L 437 595 Q 328 584 321 584 L 170 570 L 99 566 Q 91 563 91 558 Q 91 553 97 549 Q 102 544 129 530 Q 156 516 169 516 Q 181 515 203 523 L 239 532 L 332 550 L 356 555 L 414 562 L 504 568 L 572 574 L 591 575 Z" fill="black"></path>
				<path d="M 332 550 L 378 442 Q 386 422 410 389 C 428 365 431 363 438 392 L 442 410 Q 445 431 442 452 L 431 485 Q 425 500 410 512 Q 393 528 386 532 L 356 555 C 332 573 320 578 332 550 Z" fill="black"></path>
				<path d="M 548 404 L 569 429 L 622 498 L 634 511 Q 643 521 645 525 Q 646 529 638 542 Q 630 553 618 560 L 591 575 C 581 581 581 581 572 574 L 564 568 Q 562 569 562 562 L 566 540 Q 567 534 564 515 Q 559 498 549 477 L 532 436 Q 526 420 513 400 C 497 375 529 381 548 404 Z" fill="black"></path>
				<path d="M 265 380 L 230 388 Q 218 392 210 390 L 202 383 Q 198 379 208 364 L 215 354 Q 234 331 223 199 Q 217 136 215 102 Q 212 68 184 -10 Q 182 -24 185 -40 Q 188 -56 208 -88 Q 219 -103 230 -93 Q 241 -83 245 -69 Q 249 -56 259 31 Q 268 117 278 338 C 279 368 280 377 265 380 Z" fill="black"></path>
				<path d="M 526 369 L 650 377 L 694 378 Q 737 381 748 369 Q 752 364 753 343 Q 761 196 756 117 L 751 0 Q 750 -27 744 -46 Q 732 -72 714 -62 L 660 -42 L 639 -32 Q 634 -29 631 -33 Q 629 -38 633 -42 L 662 -74 Q 664 -77 670 -82 Q 675 -88 698 -122 Q 715 -153 719 -154 Q 723 -158 730 -158 Q 752 -164 784 -127 Q 816 -91 819 -24 Q 820 -2 818 98 L 816 232 Q 816 318 829 352 Q 840 370 840 378 Q 839 392 799 416 Q 758 437 741 435 L 725 432 Q 706 424 692 423 Q 677 422 673 420 L 548 404 L 513 400 L 438 392 L 410 389 L 265 380 C 235 378 248 337 278 338 L 290 336 Q 304 336 321 341 Q 338 345 391 354 L 406 355 L 508 369 L 526 369 Z" fill="red"></path>
				<path d="M 391 354 L 389 326 Q 390 318 382 297 L 366 260 Q 363 255 347 235 Q 331 215 320 206 L 303 192 Q 296 185 297 180 Q 298 175 312 180 L 330 187 Q 359 198 380 219 Q 389 225 403 244 L 442 304 Q 453 313 442 328 L 406 355 C 392 366 392 366 391 354 Z" fill="lightgray"></path>
				<path d="M 508 369 L 509 320 Q 510 290 514 271 Q 527 215 631 223 L 657 225 Q 703 228 705 242 Q 708 250 696 260 Q 676 280 656 280 Q 635 272 591 268 Q 582 267 569 273 Q 556 278 553 291 Q 549 304 557 323 Q 565 341 564 346 Q 561 356 526 369 C 508 376 508 376 508 369 Z" fill="lightgray"></path>
				<path d="M 408 152 L 384 165 Q 366 173 356 167 Q 351 164 351 163 Q 350 161 359 149 Q 367 139 370 130 Q 381 68 382 36 Q 386 -5 398 -14 Q 410 -23 415 -22 Q 423 -18 423 12 L 422 40 L 416 124 C 414 149 414 149 408 152 Z" fill="lightgray"></path>
				<path d="M 586 42 L 599 88 Q 601 96 611 109 L 635 151 Q 635 158 618 170 Q 600 182 582 186 Q 564 190 561 190 L 544 184 Q 529 178 486 168 L 408 152 C 379 146 386 119 416 124 L 515 140 Q 535 145 540 130 Q 541 124 540 108 L 530 52 C 525 22 578 13 586 42 Z" fill="lightgray"></path>
				<path d="M 423 12 L 443 9 L 580 17 Q 595 17 596 24 Q 602 33 586 42 C 564 56 560 55 530 52 L 422 40 C 392 37 393 16 423 12 Z" fill="lightgray"></path>
</g>
		<text x="40" y="140" font-size="128" fill="#999999">6</text></g>
		<g id="id1:id1:id1" transform="matrix(1.0,0,0,1.0,1024,0.0)">			<g stroke="lightgray" stroke-width="4" transform="scale(4, 4)"> <rect x="0" y="0" width="256" height="256" fill="white" stroke-width="4"/></g>
			<g transform="scale(0.92, -0.92) translate(60, -920)">					<path d="M 532 604 L 538 612 Q 541 614 546 633 Q 547 649 546 664 Q 536 694 488 714 Q 463 725 463 726 Q 430 736 423 730 Q 421 727 427 715 L 440 688 Q 447 672 458 654 L 480 617 L 496 602 C 516 583 516 583 532 604 Z" fill="black"></path>
				<path d="M 591 575 L 809 580 Q 862 580 878 579 Q 893 578 916 580 Q 924 582 927 586 Q 933 601 918 611 Q 903 621 900 622 Q 848 642 832 642 L 803 636 Q 756 625 714 621 L 532 604 L 496 602 L 437 595 Q 328 584 321 584 L 170 570 L 99 566 Q 91 563 91 558 Q 91 553 97 549 Q 102 544 129 530 Q 156 516 169 516 Q 181 515 203 523 L 239 532 L 332 550 L 356 555 L 414 562 L 504 568 L 572 574 L 591 575 Z" fill="black"></path>
				<path d="M 332 550 L 378 442 Q 386 422 410 389 C 428 365 431 363 438 392 L 442 410 Q 445 431 442 452 L 431 485 Q 425 500 410 512 Q 393 528 386 532 L 356 555 C 332 573 320 578 332 550 Z" fill="black"></path>
				<path d="M 548 404 L 569 429 L 622 498 L 634 511 Q 643 521 645 525 Q 646 529 638 542 Q 630 553 618 560 L 591 575 C 581 581 581 581 572 574 L 564 568 Q 562 569 562 562 L 566 540 Q 567 534 564 515 Q 559 498 549 477 L 532 436 Q 526 420 513 400 C 497 375 529 381 548 404 Z" fill="black"></path>
				<path d="M 265 380 L 230 388 Q 218 392 210 390 L 202 383 Q 198 379 208 364 L 215 354 Q 234 331 223 199 Q 217 136 215 102 Q 212 68 184 -10 Q 182 -24 185 -40 Q 188 -56 208 -88 Q 219 -103 230 -93 Q 241 -83 245 -69 Q 249 -56 259 31 Q 268 117 278 338 C 279 368 280 377 265 380 Z" fill="black"></path>
				<path d="M 526 369 L 650 377 L 694 378 Q 737 381 748 369 Q 752 364 753 343 Q 761 196 756 117 L 751 0 Q 750 -27 744 -46 Q 732 -72 714 -62 L 660 -42 L 639 -32 Q 634 -29 631 -33 Q 629 -38 633 -42 L 662 -74 Q 664 -77 670 -82 Q 675 -88 698 -122 Q 715 -153 719 -154 Q 723 -158 730 -158 Q 752 -164 784 -127 Q 816 -91 819 -24 Q 820 -2 818 98 L 816 232 Q 816 318 829 352 Q 840 370 840 378 Q 839 392 799 416 Q 758 437 741 435 L 725 432 Q 706 424 692 423 Q 677 422 673 420 L 548 404 L 513 400 L 438 392 L 410 389 L 265 380 C 235 378 248 337 278 338 L 290 336 Q 304 336 321 341 Q 338 345 391 354 L 406 355 L 508 369 L 526 369 Z" fill="black"></path>
				<path d="M 391 354 L 389 326 Q 390 318 382 297 L 366 260 Q 363 255 347 235 Q 331 215 320 206 L 303 192 Q 296 185 297 180 Q 298 175 312 180 L 330 187 Q 359 198 380 219 Q 389 225 403 244 L 442 304 Q 453 313 442 328 L 406 355 C 392 366 392 366 391 354 Z" fill="red"></path>
				<path d="M 508 369 L 509 320 Q 510 290 514 271 Q 527 215 631 223 L 657 225 Q 703 228 705 242 Q 708 250 696 260 Q 676 280 656 280 Q 635 272 591 268 Q 582 267 569 273 Q 556 278 553 291 Q 549 304 557 323 Q 565 341 564 346 Q 561 356 526 369 C 508 376 508 376 508 369 Z" fill="lightgray"></path>
				<path d="M 408 152 L 384 165 Q 366 173 356 167 Q 351 164 351 163 Q 350 161 359 149 Q 367 139 370 130 Q 381 68 382 36 Q 386 -5 398 -14 Q 410 -23 415 -22 Q 423 -18 423 12 L 422 40 L 416 124 C 414 149 414 149 408 152 Z" fill="lightgray"></path>
				<path d="M 586 42 L 599 88 Q 601 96 611 109 L 635 151 Q 635 158 618 170 Q 600 182 582 186 Q 564 190 561 190 L 544 184 Q 529 178 486 168 L 408 152 C 379 146 386 119 416 124 L 515 140 Q 535 145 540 130 Q 541 124 540 108 L 530 52 C 525 22 578 13 586 42 Z" fill="lightgray"></path>
				<path d="M 423 12 L 443 9 L 580 17 Q 595 17 596 24 Q 602 33 586 42 C 564 56 560 55 530 52 L 422 40 C 392 37 393 16 423 12 Z" fill="lightgray"></path>
</g>
		<text x="40" y="140" font-size="128" fill="#999999">7</text></g>
		<g id="id1:id2:id2" transform="matrix(1.0,0,0,1.0,2048,0.0)">			<g stroke="lightgray" stroke-width="4" transform="scale(4, 4)"> <rect x="0" y="0" width="256" height="256" fill="white" stroke-width="4"/></g>
			<g transform="scale(0.92, -0.92) translate(60, -920)">					<path d="M 532 604 L 538 612 Q 541 614 546 633 Q 547 649 546 664 Q 536 694 488 714 Q 463 725 463 726 Q 430 736 423 730 Q 421 727 427 715 L 440 688 Q 447 672 458 654 L 480 617 L 496 602 C 516 583 516 583 532 604 Z" fill="black"></path>
				<path d="M 591 575 L 809 580 Q 862 580 878 579 Q 893 578 916 580 Q 924 582 927 586 Q 933 601 918 611 Q 903 621 900 622 Q 848 642 832 642 L 803 636 Q 756 625 714 621 L 532 604 L 496 602 L 437 595 Q 328 584 321 584 L 170 570 L 99 566 Q 91 563 91 558 Q 91 553 97 549 Q 102 544 129 530 Q 156 516 169 516 Q 181 515 203 523 L 239 532 L 332 550 L 356 555 L 414 562 L 504 568 L 572 574 L 591 575 Z" fill="black"></path>
				<path d="M 332 550 L 378 442 Q 386 422 410 389 C 428 365 431 363 438 392 L 442 410 Q 445 431 442 452 L 431 485 Q 425 500 410 512 Q 393 528 386 532 L 356 555 C 332 573 320 578 332 550 Z" fill="black"></path>
				<path d="M 548 404 L 569 429 L 622 498 L 634 511 Q 643 521 645 525 Q 646 529 638 542 Q 630 553 618 560 L 591 575 C 581 581 581 581 572 574 L 564 568 Q 562 569 562 562 L 566 540 Q 567 534 564 515 Q 559 498 549 477 L 532 436 Q 526 420 513 400 C 497 375 529 381 548 404 Z" fill="black"></path>
				<path d="M 265 380 L 230 388 Q 218 392 210 390 L 202 383 Q 198 379 208 364 L 215 354 Q 234 331 223 199 Q 217 136 215 102 Q 212 68 184 -10 Q 182 -24 185 -40 Q 188 -56 208 -88 Q 219 -103 230 -93 Q 241 -83 245 -69 Q 249 -56 259 31 Q 268 117 278 338 C 279 368 280 377 265 380 Z" fill="black"></path>
				<path d="M 526 369 L 650 377 L 694 378 Q 737 381 748 369 Q 752 364 753 343 Q 761 196 756 117 L 751 0 Q 750 -27 744 -46 Q 732 -72 714 -62 L 660 -42 L 639 -32 Q 634 -29 631 -33 Q 629 -38 633 -42 L 662 -74 Q 664 -77 670 -82 Q 675 -88 698 -122 Q 715 -153 719 -154 Q 723 -158 730 -158 Q 752 -164 784 -127 Q 816 -91 819 -24 Q 820 -2 818 98 L 816 232 Q 816 318 829 352 Q 840 370 840 378 Q 839 392 799 416 Q 758 437 741 435 L 725 432 Q 706 424 692 423 Q 677 422 673 420 L 548 404 L 513 400 L 438 392 L 410 389 L 265 380 C 235 378 248 337 278 338 L 290 336 Q 304 336 321 341 Q 338 345 391 354 L 406 355 L 508 369 L 526 369 Z" fill="black"></path>
				<path d="M 391 354 L 389 326 Q 390 318 382 297 L 366 260 Q 363 255 347 235 Q 331 215 320 206 L 303 192 Q 296 185 297 180 Q 298 175 312 180 L 330 187 Q 359 198 380 219 Q 389 225 403 244 L 442 304 Q 453 313 442 328 L 406 355 C 392 366 392 366 391 354 Z" fill="black"></path>
				<path d="M 508 369 L 509 320 Q 510 290 514 271 Q 527 215 631 223 L 657 225 Q 703 228 705 242 Q 708 250 696 260 Q 676 280 656 280 Q 635 272 591 268 Q 582 267 569 273 Q 556 278 553 291 Q 549 304 557 323 Q 565 341 564 346 Q 561 356 526 369 C 508 376 508 376 508 369 Z" fill="red"></path>
				<path d="M 408 152 L 384 165 Q 366 173 356 167 Q 351 164 351 163 Q 350 161 359 149 Q 367 139 370 130 Q 381 68 382 36 Q 386 -5 398 -14 Q 410 -23 415 -22 Q 423 -18 423 12 L 422 40 L 416 124 C 414 149 414 149 408 152 Z" fill="lightgray"></path>
				<path d="M 586 42 L 599 88 Q 601 96 611 109 L 635 151 Q 635 158 618 170 Q 600 182 582 186 Q 564 190 561 190 L 544 184 Q 529 178 486 168 L 408 152 C 379 146 386 119 416 124 L 515 140 Q 535 145 540 130 Q 541 124 540 108 L 530 52 C 525 22 578 13 586 42 Z" fill="lightgray"></path>
				<path d="M 423 12 L 443 9 L 580 17 Q 595 17 596 24 Q 602 33 586 42 C 564 56 560 55 530 52 L 422 40 C 392 37 393 16 423 12 Z" fill="lightgray"></path>
</g>
		<text x="40" y="140" font-size="128" fill="#999999">8</text></g>
		<g id="id1:id3:id3" transform="matrix(1.0,0,0,1.0,3072,0.0)">			<g stroke="lightgray" stroke-width="4" transform="scale(4, 4)"> <rect x="0" y="0" width="256" height="256" fill="white" stroke-width="4"/></g>
			<g transform="scale(0.92, -0.92) translate(60, -920)">					<path d="M 532 604 L 538 612 Q 541 614 546 633 Q 547 649 546 664 Q 536 694 488 714 Q 463 725 463 726 Q 430 736 423 730 Q 421 727 427 715 L 440 688 Q 447 672 458 654 L 480 617 L 496 602 C 516 583 516 583 532 604 Z" fill="black"></path>
				<path d="M 591 575 L 809 580 Q 862 580 878 579 Q 893 578 916 580 Q 924 582 927 586 Q 933 601 918 611 Q 903 621 900 622 Q 848 642 832 642 L 803 636 Q 756 625 714 621 L 532 604 L 496 602 L 437 595 Q 328 584 321 584 L 170 570 L 99 566 Q 91 563 91 558 Q 91 553 97 549 Q 102 544 129 530 Q 156 516 169 516 Q 181 515 203 523 L 239 532 L 332 550 L 356 555 L 414 562 L 504 568 L 572 574 L 591 575 Z" fill="black"></path>
				<path d="M 332 550 L 378 442 Q 386 422 410 389 C 428 365 431 363 438 392 L 442 410 Q 445 431 442 452 L 431 485 Q 425 500 410 512 Q 393 528 386 532 L 356 555 C 332 573 320 578 332 550 Z" fill="black"></path>
				<path d="M 548 404 L 569 429 L 622 498 L 634 511 Q 643 521 645 525 Q 646 529 638 542 Q 630 553 618 560 L 591 575 C 581 581 581 581 572 574 L 564 568 Q 562 569 562 562 L 566 540 Q 567 534 564 515 Q 559 498 549 477 L 532 436 Q 526 420 513 400 C 497 375 529 381 548 404 Z" fill="black"></path>
				<path d="M 265 380 L 230 388 Q 218 392 210 390 L 202 383 Q 198 379 208 364 L 215 354 Q 234 331 223 199 Q 217 136 215 102 Q 212 68 184 -10 Q 182 -24 185 -40 Q 188 -56 208 -88 Q 219 -103 230 -93 Q 241 -83 245 -69 Q 249 -56 259 31 Q 268 117 278 338 C 279 368 280 377 265 380 Z" fill="black"></path>
				<path d="M 526 369 L 650 377 L 694 378 Q 737 381 748 369 Q 752 364 753 343 Q 761 196 756 117 L 751 0 Q 750 -27 744 -46 Q 732 -72 714 -62 L 660 -42 L 639 -32 Q 634 -29 631 -33 Q 629 -38 633 -42 L 662 -74 Q 664 -77 670 -82 Q 675 -88 698 -122 Q 715 -153 719 -154 Q 723 -158 730 -158 Q 752 -164 784 -127 Q 816 -91 819 -24 Q 820 -2 818 98 L 816 232 Q 816 318 829 352 Q 840 370 840 378 Q 839 392 799 416 Q 758 437 741 435 L 725 432 Q 706 424 692 423 Q 677 422 673 420 L 548 404 L 513 400 L 438 392 L 410 389 L 265 380 C 235 378 248 337 278 338 L 290 336 Q 304 336 321 341 Q 338 345 391 354 L 406 355 L 508 369 L 526 369 Z" fill="black"></path>
				<path d="M 391 354 L 389 326 Q 390 318 382 297 L 366 260 Q 363 255 347 235 Q 331 215 320 206 L 303 192 Q 296 185 297 180 Q 298 175 312 180 L 330 187 Q 359 198 380 219 Q 389 225 403 244 L 442 304 Q 453 313 442 328 L 406 355 C 392 366 392 366 391 354 Z" fill="black"></path>
				<path d="M 508 369 L 509 320 Q 510 290 514 271 Q 527 215 631 223 L 657 225 Q 703 228 705 242 Q 708 250 696 260 Q 676 280 656 280 Q 635 272 591 268 Q 582 267 569 273 Q 556 278 553 291 Q 549 304 557 323 Q 565 341 564 346 Q 561 356 526 369 C 508 376 508 376 508 369 Z" fill="black"></path>
				<path d="M 408 152 L 384 165 Q 366 173 356 167 Q 351 164 351 163 Q 350 161 359 149 Q 367 139 370 130 Q 381 68 382 36 Q 386 -5 398 -14 Q 410 -23 415 -22 Q 423 -18 423 12 L 422 40 L 416 124 C 414 149 414 149 408 152 Z" fill="red"></path>
				<path d="M 586 42 L 599 88 Q 601 96 611 109 L 635 151 Q 635 158 618 170 Q 600 182 582 186 Q 564 190 561 190 L 544 184 Q 529 178 486 168 L 408 152 C 379 146 386 119 416 124 L 515 140 Q 535 145 540 130 Q 541 124 540 108 L 530 52 C 525 22 578 13 586 42 Z" fill="lightgray"></path>
				<path d="M 423 12 L 443 9 L 580 17 Q 595 17 596 24 Q 602 33 586 42 C 564 56 560 55 530 52 L 422 40 C 392 37 393 16 423 12 Z" fill="lightgray"></path>
</g>
		<text x="40" y="140" font-size="128" fill="#999999">9</text></g>
		<g id="id1:id4:id4" transform="matrix(1.0,0,0,1.0,4096,0.0)">			<g stroke="lightgray" stroke-width="4" transform="scale(4, 4)"> <rect x="0" y="0" width="256" height="256" fill="white" stroke-width="4"/></g>
			<g transform="scale(0.92, -0.92) translate(60, -920)">					<path d="M 532 604 L 538 612 Q 541 614 546 633 Q 547 649 546 664 Q 536 694 488 714 Q 463 725 463 726 Q 430 736 423 730 Q 421 727 427 715 L 440 688 Q 447 672 458 654 L 480 617 L 496 602 C 516 583 516 583 532 604 Z" fill="black"></path>
				<path d="M 591 575 L 809 580 Q 862 580 878 579 Q 893 578 916 580 Q 924 582 927 586 Q 933 601 918 611 Q 903 621 900 622 Q 848 642 832 642 L 803 636 Q 756 625 714 621 L 532 604 L 496 602 L 437 595 Q 328 584 321 584 L 170 570 L 99 566 Q 91 563 91 558 Q 91 553 97 549 Q 102 544 129 530 Q 156 516 169 516 Q 181 515 203 523 L 239 532 L 332 550 L 356 555 L 414 562 L 504 568 L 572 574 L 591 575 Z" fill="black"></path>
				<path d="M 332 550 L 378 442 Q 386 422 410 389 C 428 365 431 363 438 392 L 442 410 Q 445 431 442 452 L 431 485 Q 425 500 410 512 Q 393 528 386 532 L 356 555 C 332 573 320 578 332 550 Z" fill="black"></path>
				<path d="M 548 404 L 569 429 L 622 498 L 634 511 Q 643 521 645 525 Q 646 529 638 542 Q 630 553 618 560 L 591 575 C 581 581 581 581 572 574 L 564 568 Q 562 569 562 562 L 566 540 Q 567 534 564 515 Q 559 498 549 477 L 532 436 Q 526 420 513 400 C 497 375 529 381 548 404 Z" fill="black"></path>
				<path d="M 265 380 L 230 388 Q 218 392 210 390 L 202 383 Q 198 379 208 364 L 215 354 Q 234 331 223 199 Q 217 136 215 102 Q 212 68 184 -10 Q 182 -24 185 -40 Q 188 -56 208 -88 Q 219 -103 230 -93 Q 241 -83 245 -69 Q 249 -56 259 31 Q 268 117 278 338 C 279 368 280 377 265 380 Z" fill="black"></path>
				<path d="M 526 369 L 650 377 L 694 378 Q 737 381 748 369 Q 752 364 753 343 Q 761 196 756 117 L 751 0 Q 750 -27 744 -46 Q 732 -72 714 -62 L 660 -42 L 639 -32 Q 634 -29 631 -33 Q 629 -38 633 -42 L 662 -74 Q 664 -77 670 -82 Q 675 -88 698 -122 Q 715 -153 719 -154 Q 723 -158 730 -158 Q 752 -164 784 -127 Q 816 -91 819 -24 Q 820 -2 818 98 L 816 232 Q 816 318 829 352 Q 840 370 840 378 Q 839 392 799 416 Q 758 437 741 435 L 725 432 Q 706 424 692 423 Q 677 422 673 420 L 548 404 L 513 400 L 438 392 L 410 389 L 265 380 C 235 378 248 337 278 338 L 290 336 Q 304 336 321 341 Q 338 345 391 354 L 406 355 L 508 369 L 526 369 Z" fill="black"></path>
				<path d="M 391 354 L 389 326 Q 390 318 382 297 L 366 260 Q 363 255 347 235 Q 331 215 320 206 L 303 192 Q 296 185 297 180 Q 298 175 312 180 L 330 187 Q 359 198 380 219 Q 389 225 403 244 L 442 304 Q 453 313 442 328 L 406 355 C 392 366 392 366 391 354 Z" fill="black"></path>
				<path d="M 508 369 L 509 320 Q 510 290 514 271 Q 527 215 631 223 L 657 225 Q 703 228 705 242 Q 708 250 696 260 Q 676 280 656 280 Q 635 272 591 268 Q 582 267 569 273 Q 556 278 553 291 Q 549 304 557 323 Q 565 341 564 346 Q 561 356 526 369 C 508 376 508 376 508 369 Z" fill="black"></path>
				<path d="M 408 152 L 384 165 Q 366 173 356 167 Q 351 164 351 163 Q 350 161 359 149 Q 367 139 370 130 Q 381 68 382 36 Q 386 -5 398 -14 Q 410 -23 415 -22 Q 423 -18 423 12 L 422 40 L 416 124 C 414 149 414 149 408 152 Z" fill="black"></path>
				<path d="M 586 42 L 599 88 Q 601 96 611 109 L 635 151 Q 635 158 618 170 Q 600 182 582 186 Q 564 190 561 190 L 544 184 Q 529 178 486 168 L 408 152 C 379 146 386 119 416 124 L 515 140 Q 535 145 540 130 Q 541 124 540 108 L 530 52 C 525 22 578 13 586 42 Z" fill="red"></path>
				<path d="M 423 12 L 443 9 L 580 17 Q 595 17 596 24 Q 602 33 586 42 C 564 56 560 55 530 52 L 422 40 C 392 37 393 16 423 12 Z" fill="lightgray"></path>
</g>
		<text x="40" y="140" font-size="128" fill="#999999">10</text></g>
</g>
	<g id="id2:id2" transform="translate(0.0,2048)">
		<g id="id2:id0:id0" transform="matrix(1.0,0,0,1.0,0,0.0)">			<g stroke="lightgray" stroke-width="4" transform="scale(4, 4)"> <rect x="0" y="0" width="256" height="256" fill="white" stroke-width="4"/></g>
			<g transform="scale(0.92, -0.92) translate(60, -920)">					<path d="M 532 604 L 538 612 Q 541 614 546 633 Q 547 649 546 664 Q 536 694 488 714 Q 463 725 463 726 Q 430 736 423 730 Q 421 727 427 715 L 440 688 Q 447 672 458 654 L 480 617 L 496 602 C 516 583 516 583 532 604 Z" fill="black"></path>
				<path d="M 591 575 L 809 580 Q 862 580 878 579 Q 893 578 916 580 Q 924 582 927 586 Q 933 601 918 611 Q 903 621 900 622 Q 848 642 832 642 L 803 636 Q 756 625 714 621 L 532 604 L 496 602 L 437 595 Q 328 584 321 584 L 170 570 L 99 566 Q 91 563 91 558 Q 91 553 97 549 Q 102 544 129 530 Q 156 516 169 516 Q 181 515 203 523 L 239 532 L 332 550 L 356 555 L 414 562 L 504 568 L 572 574 L 591 575 Z" fill="black"></path>
				<path d="M 332 550 L 378 442 Q 386 422 410 389 C 428 365 431 363 438 392 L 442 410 Q 445 431 442 452 L 431 485 Q 425 500 410 512 Q 393 528 386 532 L 356 555 C 332 573 320 578 332 550 Z" fill="black"></path>
				<path d="M 548 404 L 569 429 L 622 498 L 634 511 Q 643 521 645 525 Q 646 529 638 542 Q 630 553 618 560 L 591 575 C 581 581 581 581 572 574 L 564 568 Q 562 569 562 562 L 566 540 Q 567 534 564 515 Q 559 498 549 477 L 532 436 Q 526 420 513 400 C 497 375 529 381 548 404 Z" fill="black"></path>
				<path d="M 265 380 L 230 388 Q 218 392 210 390 L 202 383 Q 198 379 208 364 L 215 354 Q 234 331 223 199 Q 217 136 215 102 Q 212 68 184 -10 Q 182 -24 185 -40 Q 188 -56 208 -88 Q 219 -103 230 -93 Q 241 -83 245 -69 Q 249 -56 259 31 Q 268 117 278 338 C 279 368 280 377 265 380 Z" fill="black"></path>
				<path d="M 526 369 L 650 377 L 694 378 Q 737 381 748 369 Q 752 364 753 343 Q 761 196 756 117 L 751 0 Q 750 -27 744 -46 Q 732 -72 714 -62 L 660 -42 L 639 -32 Q 634 -29 631 -33 Q 629 -38 633 -42 L 662 -74 Q 664 -77 670 -82 Q 675 -88 698 -122 Q 715 -153 719 -154 Q 723 -158 730 -158 Q 752 -164 784 -127 Q 816 -91 819 -24 Q 820 -2 818 98 L 816 232 Q 816 318 829 352 Q 840 370 840 378 Q 839 392 799 416 Q 758 437 741 435 L 725 432 Q 706 424 692 423 Q 677 422 673 420 L 548 404 L 513 400 L 438 392 L 410 389 L 265 380 C 235 378 248 337 278 338 L 290 336 Q 304 336 321 341 Q 338 345 391 354 L 406 355 L 508 369 L 526 369 Z" fill="black"></path>
				<path d="M 391 354 L 389 326 Q 390 318 382 297 L 366 260 Q 363 255 347 235 Q 331 215 320 206 L 303 192 Q 296 185 297 180 Q 298 175 312 180 L 330 187 Q 359 198 380 219 Q 389 225 403 244 L 442 304 Q 453 313 442 328 L 406 355 C 392 366 392 366 391 354 Z" fill="black"></path>
				<path d="M 508 369 L 509 320 Q 510 290 514 271 Q 527 215 631 223 L 657 225 Q 703 228 705 242 Q 708 250 696 260 Q 676 280 656 280 Q 635 272 591 268 Q 582 267 569 273 Q 556 278 553 291 Q 549 304 557 323 Q 565 341 564 346 Q 561 356 526 369 C 508 376 508 376 508 369 Z" fill="black"></path>
				<path d="M 408 152 L 384 165 Q 366 173 356 167 Q 351 164 351 163 Q 350 161 359 149 Q 367 139 370 130 Q 381 68 382 36 Q 386 -5 398 -14 Q 410 -23 415 -22 Q 423 -18 423 12 L 422 40 L 416 124 C 414 149 414 149 408 152 Z" fill="black"></path>
				<path d="M 586 42 L 599 88 Q 601 96 611 109 L 635 151 Q 635 158 618 170 Q 600 182 582 186 Q 564 190 561 190 L 544 184 Q 529 178 486 168 L 408 152 C 379 146 386 119 416 124 L 515 140 Q 535 145 540 130 Q 541 124 540 108 L 530 52 C 525 22 578 13 586 42 Z" fill="black"></path>
				<path d="M 423 12 L 443 9 L 580 17 Q 595 17 596 24 Q 602 33 586 42 C 564 56 560 55 530 52 L 422 40 C 392 37 393 16 423 12 Z" fill="red"></path>
</g>
		<text x="40" y="140" font-size="128" fill="#999999">11</text></g>
		<g id="id2:id1:id1" transform="matrix(1.0,0,0,1.0,1024,0.0)">			<g stroke="white" stroke-width="4" transform="scale(4, 4)"> <rect x="1" y="1" width="255" height="255" fill="white" stroke-width="0"/></g>
</g>
		<g id="id2:id2:id2" transform="matrix(1.0,0,0,1.0,2048,0.0)">			<g stroke="white" stroke-width="4" transform="scale(4, 4)"> <rect x="1" y="1" width="255" height="255" fill="white" stroke-width="0"/></g>
</g>
		<g id="id2:id3:id3" transform="matrix(1.0,0,0,1.0,3072,0.0)">			<g stroke="white" stroke-width="4" transform="scale(4, 4)"> <rect x="1" y="1" width="255" height="255" fill="white" stroke-width="0"/></g>
</g>
		<g id="id2:id4:id4" transform="matrix(1.0,0,0,1.0,4096,0.0)">			<g stroke="white" stroke-width="4" transform="scale(4, 4)"> <rect x="1" y="1" width="255" height="255" fill="white" stroke-width="0"/></g>
</g>
</g>
</svg>
