<?xml version="1.0" standalone="no"?>
<!DOCTYPE svg PUBLIC "-//W3C//DTD SVG 1.1//EN"
 "http://www.w3.org/Graphics/SVG/1.1/DTD/svg11.dtd">
<!-- generate by Japanese dictionary app com.asnsami.kanjidictionary -->

<svg xmlns="http://www.w3.org/2000/svg" xmlns:sodipodi="http://sodipodi.sourceforge.net/DTD/sodipodi-0.dtd" version="1.1" width="640" height="512" viewBox="0 0 5120 4096">
	<g id="id0:id0" transform="translate(0.0,0)">
		<g id="id0:id0:id0" transform="matrix(1.0,0,0,1.0,0,0.0)">			<g stroke="lightgray" stroke-width="4" transform="scale(4, 4)"> <rect x="0" y="0" width="256" height="256" fill="white" stroke-width="4"/></g>
			<g transform="scale(0.92, -0.92) translate(60, -920)">					<path d="M 82 437 L 61 442 Q 37 452 33 438 Q 33 432 37 425 L 46 412 Q 55 395 65 349 L 74 268 Q 79 232 92 216 Q 95 211 101 213 Q 107 214 111 220 Q 114 227 115 236 L 112 270 L 94 411 C 91 435 91 435 82 437 Z" fill="red"></path>
				<path d="M 217 279 L 231 345 Q 243 399 252 415 Q 260 430 263 439 Q 263 444 261 448 Q 255 458 218 477 Q 202 482 197 481 Q 191 480 178 471 Q 153 452 110 442 L 82 437 C 52 432 65 403 94 411 L 164 430 Q 180 435 184 431 Q 188 427 185 403 Q 182 379 182 375 L 176 283 C 174 253 211 250 217 279 Z" fill="lightgray"></path>
				<path d="M 115 236 L 213 250 L 235 252 Q 239 252 235 258 L 219 273 Q 217 277 217 279 C 214 291 205 289 176 283 L 112 270 C 83 264 85 232 115 236 Z" fill="lightgray"></path>
				<path d="M 437 452 L 520 472 Q 536 475 537 479 Q 542 480 540 486 Q 538 491 533 495 Q 525 500 509 506 Q 492 512 489 512 Q 486 512 477 508 Q 467 503 440 497 L 387 483 L 300 468 Q 295 463 295 459 Q 295 455 314 445 Q 332 434 389 443 L 437 452 Z" fill="lightgray"></path>
				<path d="M 434 367 L 437 452 L 440 497 L 443 550 Q 444 559 444 576 L 447 601 Q 448 607 454 620 Q 460 633 458 638 Q 453 653 421 662 Q 388 670 377 669 Q 363 665 368 652 L 377 633 Q 383 619 384 604 Q 384 588 387 562 L 387 483 L 389 443 L 389 357 C 389 327 433 337 434 367 Z" fill="lightgray"></path>
				<path d="M 439 329 L 546 354 Q 577 361 557 374 Q 549 379 537 382 L 508 387 L 434 367 L 389 357 L 349 349 Q 310 341 300 340 L 266 334 Q 254 332 254 326 Q 254 320 264 314 Q 273 307 289 306 L 309 303 L 356 312 L 406 321 L 439 329 Z" fill="lightgray"></path>
				<path d="M 309 303 L 313 288 Q 316 275 316 257 L 314 215 Q 313 152 291 93 L 272 42 Q 268 32 264 19 Q 260 5 269 -27 Q 273 -61 289 -61 Q 301 -61 317 -19 L 321 -7 Q 338 44 359 188 L 362 235 L 368 265 Q 370 280 373 286 Q 375 291 371 300 L 356 312 C 333 331 301 332 309 303 Z" fill="lightgray"></path>
				<path d="M 397 -24 Q 380 -24 372 -23 L 348 -21 Q 340 -20 339 -23 Q 337 -26 342 -30 L 360 -43 L 384 -65 Q 404 -84 410 -94 Q 416 -104 420 -104 Q 427 -108 440 -92 Q 454 -79 458 -59 Q 468 -25 465 25 L 463 184 L 463 207 L 463 236 Q 462 237 464 261 Q 466 285 470 294 Q 473 303 473 310 Q 473 317 439 329 C 411 340 393 346 406 321 L 414 305 Q 423 265 423 145 L 422 38 L 420 6 Q 418 -26 397 -24 Z" fill="lightgray"></path>
				<path d="M 264 213 Q 260 214 256 209 Q 252 204 244 190 Q 235 175 208 146 Q 180 117 176 96 Q 172 74 190 72 Q 221 66 247 109 Q 262 139 265 157 Q 276 211 264 213 Z" fill="lightgray"></path>
				<path d="M 463 184 L 485 145 Q 490 135 498 130 Q 517 116 526 135 Q 529 144 529 155 Q 526 181 512 189 Q 497 197 463 207 C 447 212 448 210 463 184 Z" fill="lightgray"></path>
				<path d="M 766 472 L 798 479 Q 819 484 830 488 L 863 499 Q 875 503 875 509 Q 876 513 869 520 Q 862 527 848 532 Q 833 537 828 537 L 817 533 Q 810 529 766 518 L 708 503 L 637 490 L 610 487 Q 595 485 606 474 Q 615 459 654 459 L 707 463 L 766 472 Z" fill="lightgray"></path>
				<path d="M 760 375 L 766 472 L 766 518 L 770 594 Q 770 600 774 623 Q 777 645 784 659 Q 791 673 790 678 Q 785 697 744 707 L 718 713 Q 700 716 693 715 Q 676 713 686 694 L 696 675 Q 700 666 705 649 Q 709 632 709 571 L 708 503 L 707 463 L 705 362 C 704 332 758 345 760 375 Z" fill="lightgray"></path>
				<path d="M 776 342 L 852 350 L 930 354 Q 956 356 957 363 Q 964 370 945 383 Q 925 396 913 401 Q 901 405 886 401 Q 870 396 849 392 L 760 375 L 705 362 L 654 352 Q 606 342 597 341 L 563 336 Q 548 333 547 329 Q 545 325 565 311 Q 585 296 593 298 Q 601 299 609 303 Q 616 306 627 308 Q 638 310 644 312 L 675 322 L 748 336 L 776 342 Z" fill="lightgray"></path>
				<path d="M 644 312 L 654 300 Q 664 278 664 257 L 664 216 Q 664 150 643 98 Q 622 45 609 -6 Q 604 -20 613 -51 Q 617 -84 633 -84 Q 645 -84 661 -41 L 667 -22 Q 690 60 698 123 L 711 237 L 713 267 L 716 278 Q 721 305 720 307 L 675 322 C 647 331 625 335 644 312 Z" fill="lightgray"></path>
				<path d="M 819 259 L 824 303 Q 827 316 826 320 Q 826 329 776 342 C 747 350 739 352 748 336 L 760 314 Q 764 308 768 274 Q 772 239 772 193 L 772 59 L 770 -7 Q 770 -40 758 -50 Q 749 -56 704 -45 L 692 -41 Q 686 -41 682 -45 Q 681 -48 688 -55 L 703 -68 Q 727 -93 745 -119 Q 762 -145 772 -141 Q 788 -139 806 -115 Q 828 -81 828 -34 Q 828 13 824 62 L 821 117 L 819 259 Z" fill="lightgray"></path>
				<path d="M 615 211 Q 611 212 608 207 Q 604 202 596 188 Q 587 173 559 144 Q 531 115 528 94 Q 524 72 542 70 Q 573 64 599 107 Q 614 137 617 155 Q 627 209 615 211 Z" fill="lightgray"></path>
				<path d="M 945 68 Q 962 64 965 107 Q 968 130 956 152 Q 944 174 899 194 L 860 209 Q 850 212 843 211 Q 835 210 834 209 Q 833 200 863 156 L 899 104 Q 925 68 945 68 Z" fill="lightgray"></path>
</g>
		<text x="40" y="140" font-size="128" fill="#999999">1</text></g>
		<g id="id0:id1:id1" transform="matrix(1.0,0,0,1.0,1024,0.0)">			<g stroke="lightgray" stroke-width="4" transform="scale(4, 4)"> <rect x="0" y="0" width="256" height="256" fill="white" stroke-width="4"/></g>
			<g transform="scale(0.92, -0.92) translate(60, -920)">					<path d="M 82 437 L 61 442 Q 37 452 33 438 Q 33 432 37 425 L 46 412 Q 55 395 65 349 L 74 268 Q 79 232 92 216 Q 95 211 101 213 Q 107 214 111 220 Q 114 227 115 236 L 112 270 L 94 411 C 91 435 91 435 82 437 Z" fill="black"></path>
				<path d="M 217 279 L 231 345 Q 243 399 252 415 Q 260 430 263 439 Q 263 444 261 448 Q 255 458 218 477 Q 202 482 197 481 Q 191 480 178 471 Q 153 452 110 442 L 82 437 C 52 432 65 403 94 411 L 164 430 Q 180 435 184 431 Q 188 427 185 403 Q 182 379 182 375 L 176 283 C 174 253 211 250 217 279 Z" fill="red"></path>
				<path d="M 115 236 L 213 250 L 235 252 Q 239 252 235 258 L 219 273 Q 217 277 217 279 C 214 291 205 289 176 283 L 112 270 C 83 264 85 232 115 236 Z" fill="lightgray"></path>
				<path d="M 437 452 L 520 472 Q 536 475 537 479 Q 542 480 540 486 Q 538 491 533 495 Q 525 500 509 506 Q 492 512 489 512 Q 486 512 477 508 Q 467 503 440 497 L 387 483 L 300 468 Q 295 463 295 459 Q 295 455 314 445 Q 332 434 389 443 L 437 452 Z" fill="lightgray"></path>
				<path d="M 434 367 L 437 452 L 440 497 L 443 550 Q 444 559 444 576 L 447 601 Q 448 607 454 620 Q 460 633 458 638 Q 453 653 421 662 Q 388 670 377 669 Q 363 665 368 652 L 377 633 Q 383 619 384 604 Q 384 588 387 562 L 387 483 L 389 443 L 389 357 C 389 327 433 337 434 367 Z" fill="lightgray"></path>
				<path d="M 439 329 L 546 354 Q 577 361 557 374 Q 549 379 537 382 L 508 387 L 434 367 L 389 357 L 349 349 Q 310 341 300 340 L 266 334 Q 254 332 254 326 Q 254 320 264 314 Q 273 307 289 306 L 309 303 L 356 312 L 406 321 L 439 329 Z" fill="lightgray"></path>
				<path d="M 309 303 L 313 288 Q 316 275 316 257 L 314 215 Q 313 152 291 93 L 272 42 Q 268 32 264 19 Q 260 5 269 -27 Q 273 -61 289 -61 Q 301 -61 317 -19 L 321 -7 Q 338 44 359 188 L 362 235 L 368 265 Q 370 280 373 286 Q 375 291 371 300 L 356 312 C 333 331 301 332 309 303 Z" fill="lightgray"></path>
				<path d="M 397 -24 Q 380 -24 372 -23 L 348 -21 Q 340 -20 339 -23 Q 337 -26 342 -30 L 360 -43 L 384 -65 Q 404 -84 410 -94 Q 416 -104 420 -104 Q 427 -108 440 -92 Q 454 -79 458 -59 Q 468 -25 465 25 L 463 184 L 463 207 L 463 236 Q 462 237 464 261 Q 466 285 470 294 Q 473 303 473 310 Q 473 317 439 329 C 411 340 393 346 406 321 L 414 305 Q 423 265 423 145 L 422 38 L 420 6 Q 418 -26 397 -24 Z" fill="lightgray"></path>
				<path d="M 264 213 Q 260 214 256 209 Q 252 204 244 190 Q 235 175 208 146 Q 180 117 176 96 Q 172 74 190 72 Q 221 66 247 109 Q 262 139 265 157 Q 276 211 264 213 Z" fill="lightgray"></path>
				<path d="M 463 184 L 485 145 Q 490 135 498 130 Q 517 116 526 135 Q 529 144 529 155 Q 526 181 512 189 Q 497 197 463 207 C 447 212 448 210 463 184 Z" fill="lightgray"></path>
				<path d="M 766 472 L 798 479 Q 819 484 830 488 L 863 499 Q 875 503 875 509 Q 876 513 869 520 Q 862 527 848 532 Q 833 537 828 537 L 817 533 Q 810 529 766 518 L 708 503 L 637 490 L 610 487 Q 595 485 606 474 Q 615 459 654 459 L 707 463 L 766 472 Z" fill="lightgray"></path>
				<path d="M 760 375 L 766 472 L 766 518 L 770 594 Q 770 600 774 623 Q 777 645 784 659 Q 791 673 790 678 Q 785 697 744 707 L 718 713 Q 700 716 693 715 Q 676 713 686 694 L 696 675 Q 700 666 705 649 Q 709 632 709 571 L 708 503 L 707 463 L 705 362 C 704 332 758 345 760 375 Z" fill="lightgray"></path>
				<path d="M 776 342 L 852 350 L 930 354 Q 956 356 957 363 Q 964 370 945 383 Q 925 396 913 401 Q 901 405 886 401 Q 870 396 849 392 L 760 375 L 705 362 L 654 352 Q 606 342 597 341 L 563 336 Q 548 333 547 329 Q 545 325 565 311 Q 585 296 593 298 Q 601 299 609 303 Q 616 306 627 308 Q 638 310 644 312 L 675 322 L 748 336 L 776 342 Z" fill="lightgray"></path>
				<path d="M 644 312 L 654 300 Q 664 278 664 257 L 664 216 Q 664 150 643 98 Q 622 45 609 -6 Q 604 -20 613 -51 Q 617 -84 633 -84 Q 645 -84 661 -41 L 667 -22 Q 690 60 698 123 L 711 237 L 713 267 L 716 278 Q 721 305 720 307 L 675 322 C 647 331 625 335 644 312 Z" fill="lightgray"></path>
				<path d="M 819 259 L 824 303 Q 827 316 826 320 Q 826 329 776 342 C 747 350 739 352 748 336 L 760 314 Q 764 308 768 274 Q 772 239 772 193 L 772 59 L 770 -7 Q 770 -40 758 -50 Q 749 -56 704 -45 L 692 -41 Q 686 -41 682 -45 Q 681 -48 688 -55 L 703 -68 Q 727 -93 745 -119 Q 762 -145 772 -141 Q 788 -139 806 -115 Q 828 -81 828 -34 Q 828 13 824 62 L 821 117 L 819 259 Z" fill="lightgray"></path>
				<path d="M 615 211 Q 611 212 608 207 Q 604 202 596 188 Q 587 173 559 144 Q 531 115 528 94 Q 524 72 542 70 Q 573 64 599 107 Q 614 137 617 155 Q 627 209 615 211 Z" fill="lightgray"></path>
				<path d="M 945 68 Q 962 64 965 107 Q 968 130 956 152 Q 944 174 899 194 L 860 209 Q 850 212 843 211 Q 835 210 834 209 Q 833 200 863 156 L 899 104 Q 925 68 945 68 Z" fill="lightgray"></path>
</g>
		<text x="40" y="140" font-size="128" fill="#999999">2</text></g>
		<g id="id0:id2:id2" transform="matrix(1.0,0,0,1.0,2048,0.0)">			<g stroke="lightgray" stroke-width="4" transform="scale(4, 4)"> <rect x="0" y="0" width="256" height="256" fill="white" stroke-width="4"/></g>
			<g transform="scale(0.92, -0.92) translate(60, -920)">					<path d="M 82 437 L 61 442 Q 37 452 33 438 Q 33 432 37 425 L 46 412 Q 55 395 65 349 L 74 268 Q 79 232 92 216 Q 95 211 101 213 Q 107 214 111 220 Q 114 227 115 236 L 112 270 L 94 411 C 91 435 91 435 82 437 Z" fill="black"></path>
				<path d="M 217 279 L 231 345 Q 243 399 252 415 Q 260 430 263 439 Q 263 444 261 448 Q 255 458 218 477 Q 202 482 197 481 Q 191 480 178 471 Q 153 452 110 442 L 82 437 C 52 432 65 403 94 411 L 164 430 Q 180 435 184 431 Q 188 427 185 403 Q 182 379 182 375 L 176 283 C 174 253 211 250 217 279 Z" fill="black"></path>
				<path d="M 115 236 L 213 250 L 235 252 Q 239 252 235 258 L 219 273 Q 217 277 217 279 C 214 291 205 289 176 283 L 112 270 C 83 264 85 232 115 236 Z" fill="red"></path>
				<path d="M 437 452 L 520 472 Q 536 475 537 479 Q 542 480 540 486 Q 538 491 533 495 Q 525 500 509 506 Q 492 512 489 512 Q 486 512 477 508 Q 467 503 440 497 L 387 483 L 300 468 Q 295 463 295 459 Q 295 455 314 445 Q 332 434 389 443 L 437 452 Z" fill="lightgray"></path>
				<path d="M 434 367 L 437 452 L 440 497 L 443 550 Q 444 559 444 576 L 447 601 Q 448 607 454 620 Q 460 633 458 638 Q 453 653 421 662 Q 388 670 377 669 Q 363 665 368 652 L 377 633 Q 383 619 384 604 Q 384 588 387 562 L 387 483 L 389 443 L 389 357 C 389 327 433 337 434 367 Z" fill="lightgray"></path>
				<path d="M 439 329 L 546 354 Q 577 361 557 374 Q 549 379 537 382 L 508 387 L 434 367 L 389 357 L 349 349 Q 310 341 300 340 L 266 334 Q 254 332 254 326 Q 254 320 264 314 Q 273 307 289 306 L 309 303 L 356 312 L 406 321 L 439 329 Z" fill="lightgray"></path>
				<path d="M 309 303 L 313 288 Q 316 275 316 257 L 314 215 Q 313 152 291 93 L 272 42 Q 268 32 264 19 Q 260 5 269 -27 Q 273 -61 289 -61 Q 301 -61 317 -19 L 321 -7 Q 338 44 359 188 L 362 235 L 368 265 Q 370 280 373 286 Q 375 291 371 300 L 356 312 C 333 331 301 332 309 303 Z" fill="lightgray"></path>
				<path d="M 397 -24 Q 380 -24 372 -23 L 348 -21 Q 340 -20 339 -23 Q 337 -26 342 -30 L 360 -43 L 384 -65 Q 404 -84 410 -94 Q 416 -104 420 -104 Q 427 -108 440 -92 Q 454 -79 458 -59 Q 468 -25 465 25 L 463 184 L 463 207 L 463 236 Q 462 237 464 261 Q 466 285 470 294 Q 473 303 473 310 Q 473 317 439 329 C 411 340 393 346 406 321 L 414 305 Q 423 265 423 145 L 422 38 L 420 6 Q 418 -26 397 -24 Z" fill="lightgray"></path>
				<path d="M 264 213 Q 260 214 256 209 Q 252 204 244 190 Q 235 175 208 146 Q 180 117 176 96 Q 172 74 190 72 Q 221 66 247 109 Q 262 139 265 157 Q 276 211 264 213 Z" fill="lightgray"></path>
				<path d="M 463 184 L 485 145 Q 490 135 498 130 Q 517 116 526 135 Q 529 144 529 155 Q 526 181 512 189 Q 497 197 463 207 C 447 212 448 210 463 184 Z" fill="lightgray"></path>
				<path d="M 766 472 L 798 479 Q 819 484 830 488 L 863 499 Q 875 503 875 509 Q 876 513 869 520 Q 862 527 848 532 Q 833 537 828 537 L 817 533 Q 810 529 766 518 L 708 503 L 637 490 L 610 487 Q 595 485 606 474 Q 615 459 654 459 L 707 463 L 766 472 Z" fill="lightgray"></path>
				<path d="M 760 375 L 766 472 L 766 518 L 770 594 Q 770 600 774 623 Q 777 645 784 659 Q 791 673 790 678 Q 785 697 744 707 L 718 713 Q 700 716 693 715 Q 676 713 686 694 L 696 675 Q 700 666 705 649 Q 709 632 709 571 L 708 503 L 707 463 L 705 362 C 704 332 758 345 760 375 Z" fill="lightgray"></path>
				<path d="M 776 342 L 852 350 L 930 354 Q 956 356 957 363 Q 964 370 945 383 Q 925 396 913 401 Q 901 405 886 401 Q 870 396 849 392 L 760 375 L 705 362 L 654 352 Q 606 342 597 341 L 563 336 Q 548 333 547 329 Q 545 325 565 311 Q 585 296 593 298 Q 601 299 609 303 Q 616 306 627 308 Q 638 310 644 312 L 675 322 L 748 336 L 776 342 Z" fill="lightgray"></path>
				<path d="M 644 312 L 654 300 Q 664 278 664 257 L 664 216 Q 664 150 643 98 Q 622 45 609 -6 Q 604 -20 613 -51 Q 617 -84 633 -84 Q 645 -84 661 -41 L 667 -22 Q 690 60 698 123 L 711 237 L 713 267 L 716 278 Q 721 305 720 307 L 675 322 C 647 331 625 335 644 312 Z" fill="lightgray"></path>
				<path d="M 819 259 L 824 303 Q 827 316 826 320 Q 826 329 776 342 C 747 350 739 352 748 336 L 760 314 Q 764 308 768 274 Q 772 239 772 193 L 772 59 L 770 -7 Q 770 -40 758 -50 Q 749 -56 704 -45 L 692 -41 Q 686 -41 682 -45 Q 681 -48 688 -55 L 703 -68 Q 727 -93 745 -119 Q 762 -145 772 -141 Q 788 -139 806 -115 Q 828 -81 828 -34 Q 828 13 824 62 L 821 117 L 819 259 Z" fill="lightgray"></path>
				<path d="M 615 211 Q 611 212 608 207 Q 604 202 596 188 Q 587 173 559 144 Q 531 115 528 94 Q 524 72 542 70 Q 573 64 599 107 Q 614 137 617 155 Q 627 209 615 211 Z" fill="lightgray"></path>
				<path d="M 945 68 Q 962 64 965 107 Q 968 130 956 152 Q 944 174 899 194 L 860 209 Q 850 212 843 211 Q 835 210 834 209 Q 833 200 863 156 L 899 104 Q 925 68 945 68 Z" fill="lightgray"></path>
</g>
		<text x="40" y="140" font-size="128" fill="#999999">3</text></g>
		<g id="id0:id3:id3" transform="matrix(1.0,0,0,1.0,3072,0.0)">			<g stroke="lightgray" stroke-width="4" transform="scale(4, 4)"> <rect x="0" y="0" width="256" height="256" fill="white" stroke-width="4"/></g>
			<g transform="scale(0.92, -0.92) translate(60, -920)">					<path d="M 82 437 L 61 442 Q 37 452 33 438 Q 33 432 37 425 L 46 412 Q 55 395 65 349 L 74 268 Q 79 232 92 216 Q 95 211 101 213 Q 107 214 111 220 Q 114 227 115 236 L 112 270 L 94 411 C 91 435 91 435 82 437 Z" fill="black"></path>
				<path d="M 217 279 L 231 345 Q 243 399 252 415 Q 260 430 263 439 Q 263 444 261 448 Q 255 458 218 477 Q 202 482 197 481 Q 191 480 178 471 Q 153 452 110 442 L 82 437 C 52 432 65 403 94 411 L 164 430 Q 180 435 184 431 Q 188 427 185 403 Q 182 379 182 375 L 176 283 C 174 253 211 250 217 279 Z" fill="black"></path>
				<path d="M 115 236 L 213 250 L 235 252 Q 239 252 235 258 L 219 273 Q 217 277 217 279 C 214 291 205 289 176 283 L 112 270 C 83 264 85 232 115 236 Z" fill="black"></path>
				<path d="M 437 452 L 520 472 Q 536 475 537 479 Q 542 480 540 486 Q 538 491 533 495 Q 525 500 509 506 Q 492 512 489 512 Q 486 512 477 508 Q 467 503 440 497 L 387 483 L 300 468 Q 295 463 295 459 Q 295 455 314 445 Q 332 434 389 443 L 437 452 Z" fill="red"></path>
				<path d="M 434 367 L 437 452 L 440 497 L 443 550 Q 444 559 444 576 L 447 601 Q 448 607 454 620 Q 460 633 458 638 Q 453 653 421 662 Q 388 670 377 669 Q 363 665 368 652 L 377 633 Q 383 619 384 604 Q 384 588 387 562 L 387 483 L 389 443 L 389 357 C 389 327 433 337 434 367 Z" fill="lightgray"></path>
				<path d="M 439 329 L 546 354 Q 577 361 557 374 Q 549 379 537 382 L 508 387 L 434 367 L 389 357 L 349 349 Q 310 341 300 340 L 266 334 Q 254 332 254 326 Q 254 320 264 314 Q 273 307 289 306 L 309 303 L 356 312 L 406 321 L 439 329 Z" fill="lightgray"></path>
				<path d="M 309 303 L 313 288 Q 316 275 316 257 L 314 215 Q 313 152 291 93 L 272 42 Q 268 32 264 19 Q 260 5 269 -27 Q 273 -61 289 -61 Q 301 -61 317 -19 L 321 -7 Q 338 44 359 188 L 362 235 L 368 265 Q 370 280 373 286 Q 375 291 371 300 L 356 312 C 333 331 301 332 309 303 Z" fill="lightgray"></path>
				<path d="M 397 -24 Q 380 -24 372 -23 L 348 -21 Q 340 -20 339 -23 Q 337 -26 342 -30 L 360 -43 L 384 -65 Q 404 -84 410 -94 Q 416 -104 420 -104 Q 427 -108 440 -92 Q 454 -79 458 -59 Q 468 -25 465 25 L 463 184 L 463 207 L 463 236 Q 462 237 464 261 Q 466 285 470 294 Q 473 303 473 310 Q 473 317 439 329 C 411 340 393 346 406 321 L 414 305 Q 423 265 423 145 L 422 38 L 420 6 Q 418 -26 397 -24 Z" fill="lightgray"></path>
				<path d="M 264 213 Q 260 214 256 209 Q 252 204 244 190 Q 235 175 208 146 Q 180 117 176 96 Q 172 74 190 72 Q 221 66 247 109 Q 262 139 265 157 Q 276 211 264 213 Z" fill="lightgray"></path>
				<path d="M 463 184 L 485 145 Q 490 135 498 130 Q 517 116 526 135 Q 529 144 529 155 Q 526 181 512 189 Q 497 197 463 207 C 447 212 448 210 463 184 Z" fill="lightgray"></path>
				<path d="M 766 472 L 798 479 Q 819 484 830 488 L 863 499 Q 875 503 875 509 Q 876 513 869 520 Q 862 527 848 532 Q 833 537 828 537 L 817 533 Q 810 529 766 518 L 708 503 L 637 490 L 610 487 Q 595 485 606 474 Q 615 459 654 459 L 707 463 L 766 472 Z" fill="lightgray"></path>
				<path d="M 760 375 L 766 472 L 766 518 L 770 594 Q 770 600 774 623 Q 777 645 784 659 Q 791 673 790 678 Q 785 697 744 707 L 718 713 Q 700 716 693 715 Q 676 713 686 694 L 696 675 Q 700 666 705 649 Q 709 632 709 571 L 708 503 L 707 463 L 705 362 C 704 332 758 345 760 375 Z" fill="lightgray"></path>
				<path d="M 776 342 L 852 350 L 930 354 Q 956 356 957 363 Q 964 370 945 383 Q 925 396 913 401 Q 901 405 886 401 Q 870 396 849 392 L 760 375 L 705 362 L 654 352 Q 606 342 597 341 L 563 336 Q 548 333 547 329 Q 545 325 565 311 Q 585 296 593 298 Q 601 299 609 303 Q 616 306 627 308 Q 638 310 644 312 L 675 322 L 748 336 L 776 342 Z" fill="lightgray"></path>
				<path d="M 644 312 L 654 300 Q 664 278 664 257 L 664 216 Q 664 150 643 98 Q 622 45 609 -6 Q 604 -20 613 -51 Q 617 -84 633 -84 Q 645 -84 661 -41 L 667 -22 Q 690 60 698 123 L 711 237 L 713 267 L 716 278 Q 721 305 720 307 L 675 322 C 647 331 625 335 644 312 Z" fill="lightgray"></path>
				<path d="M 819 259 L 824 303 Q 827 316 826 320 Q 826 329 776 342 C 747 350 739 352 748 336 L 760 314 Q 764 308 768 274 Q 772 239 772 193 L 772 59 L 770 -7 Q 770 -40 758 -50 Q 749 -56 704 -45 L 692 -41 Q 686 -41 682 -45 Q 681 -48 688 -55 L 703 -68 Q 727 -93 745 -119 Q 762 -145 772 -141 Q 788 -139 806 -115 Q 828 -81 828 -34 Q 828 13 824 62 L 821 117 L 819 259 Z" fill="lightgray"></path>
				<path d="M 615 211 Q 611 212 608 207 Q 604 202 596 188 Q 587 173 559 144 Q 531 115 528 94 Q 524 72 542 70 Q 573 64 599 107 Q 614 137 617 155 Q 627 209 615 211 Z" fill="lightgray"></path>
				<path d="M 945 68 Q 962 64 965 107 Q 968 130 956 152 Q 944 174 899 194 L 860 209 Q 850 212 843 211 Q 835 210 834 209 Q 833 200 863 156 L 899 104 Q 925 68 945 68 Z" fill="lightgray"></path>
</g>
		<text x="40" y="140" font-size="128" fill="#999999">4</text></g>
		<g id="id0:id4:id4" transform="matrix(1.0,0,0,1.0,4096,0.0)">			<g stroke="lightgray" stroke-width="4" transform="scale(4, 4)"> <rect x="0" y="0" width="256" height="256" fill="white" stroke-width="4"/></g>
			<g transform="scale(0.92, -0.92) translate(60, -920)">					<path d="M 82 437 L 61 442 Q 37 452 33 438 Q 33 432 37 425 L 46 412 Q 55 395 65 349 L 74 268 Q 79 232 92 216 Q 95 211 101 213 Q 107 214 111 220 Q 114 227 115 236 L 112 270 L 94 411 C 91 435 91 435 82 437 Z" fill="black"></path>
				<path d="M 217 279 L 231 345 Q 243 399 252 415 Q 260 430 263 439 Q 263 444 261 448 Q 255 458 218 477 Q 202 482 197 481 Q 191 480 178 471 Q 153 452 110 442 L 82 437 C 52 432 65 403 94 411 L 164 430 Q 180 435 184 431 Q 188 427 185 403 Q 182 379 182 375 L 176 283 C 174 253 211 250 217 279 Z" fill="black"></path>
				<path d="M 115 236 L 213 250 L 235 252 Q 239 252 235 258 L 219 273 Q 217 277 217 279 C 214 291 205 289 176 283 L 112 270 C 83 264 85 232 115 236 Z" fill="black"></path>
				<path d="M 437 452 L 520 472 Q 536 475 537 479 Q 542 480 540 486 Q 538 491 533 495 Q 525 500 509 506 Q 492 512 489 512 Q 486 512 477 508 Q 467 503 440 497 L 387 483 L 300 468 Q 295 463 295 459 Q 295 455 314 445 Q 332 434 389 443 L 437 452 Z" fill="black"></path>
				<path d="M 434 367 L 437 452 L 440 497 L 443 550 Q 444 559 444 576 L 447 601 Q 448 607 454 620 Q 460 633 458 638 Q 453 653 421 662 Q 388 670 377 669 Q 363 665 368 652 L 377 633 Q 383 619 384 604 Q 384 588 387 562 L 387 483 L 389 443 L 389 357 C 389 327 433 337 434 367 Z" fill="red"></path>
				<path d="M 439 329 L 546 354 Q 577 361 557 374 Q 549 379 537 382 L 508 387 L 434 367 L 389 357 L 349 349 Q 310 341 300 340 L 266 334 Q 254 332 254 326 Q 254 320 264 314 Q 273 307 289 306 L 309 303 L 356 312 L 406 321 L 439 329 Z" fill="lightgray"></path>
				<path d="M 309 303 L 313 288 Q 316 275 316 257 L 314 215 Q 313 152 291 93 L 272 42 Q 268 32 264 19 Q 260 5 269 -27 Q 273 -61 289 -61 Q 301 -61 317 -19 L 321 -7 Q 338 44 359 188 L 362 235 L 368 265 Q 370 280 373 286 Q 375 291 371 300 L 356 312 C 333 331 301 332 309 303 Z" fill="lightgray"></path>
				<path d="M 397 -24 Q 380 -24 372 -23 L 348 -21 Q 340 -20 339 -23 Q 337 -26 342 -30 L 360 -43 L 384 -65 Q 404 -84 410 -94 Q 416 -104 420 -104 Q 427 -108 440 -92 Q 454 -79 458 -59 Q 468 -25 465 25 L 463 184 L 463 207 L 463 236 Q 462 237 464 261 Q 466 285 470 294 Q 473 303 473 310 Q 473 317 439 329 C 411 340 393 346 406 321 L 414 305 Q 423 265 423 145 L 422 38 L 420 6 Q 418 -26 397 -24 Z" fill="lightgray"></path>
				<path d="M 264 213 Q 260 214 256 209 Q 252 204 244 190 Q 235 175 208 146 Q 180 117 176 96 Q 172 74 190 72 Q 221 66 247 109 Q 262 139 265 157 Q 276 211 264 213 Z" fill="lightgray"></path>
				<path d="M 463 184 L 485 145 Q 490 135 498 130 Q 517 116 526 135 Q 529 144 529 155 Q 526 181 512 189 Q 497 197 463 207 C 447 212 448 210 463 184 Z" fill="lightgray"></path>
				<path d="M 766 472 L 798 479 Q 819 484 830 488 L 863 499 Q 875 503 875 509 Q 876 513 869 520 Q 862 527 848 532 Q 833 537 828 537 L 817 533 Q 810 529 766 518 L 708 503 L 637 490 L 610 487 Q 595 485 606 474 Q 615 459 654 459 L 707 463 L 766 472 Z" fill="lightgray"></path>
				<path d="M 760 375 L 766 472 L 766 518 L 770 594 Q 770 600 774 623 Q 777 645 784 659 Q 791 673 790 678 Q 785 697 744 707 L 718 713 Q 700 716 693 715 Q 676 713 686 694 L 696 675 Q 700 666 705 649 Q 709 632 709 571 L 708 503 L 707 463 L 705 362 C 704 332 758 345 760 375 Z" fill="lightgray"></path>
				<path d="M 776 342 L 852 350 L 930 354 Q 956 356 957 363 Q 964 370 945 383 Q 925 396 913 401 Q 901 405 886 401 Q 870 396 849 392 L 760 375 L 705 362 L 654 352 Q 606 342 597 341 L 563 336 Q 548 333 547 329 Q 545 325 565 311 Q 585 296 593 298 Q 601 299 609 303 Q 616 306 627 308 Q 638 310 644 312 L 675 322 L 748 336 L 776 342 Z" fill="lightgray"></path>
				<path d="M 644 312 L 654 300 Q 664 278 664 257 L 664 216 Q 664 150 643 98 Q 622 45 609 -6 Q 604 -20 613 -51 Q 617 -84 633 -84 Q 645 -84 661 -41 L 667 -22 Q 690 60 698 123 L 711 237 L 713 267 L 716 278 Q 721 305 720 307 L 675 322 C 647 331 625 335 644 312 Z" fill="lightgray"></path>
				<path d="M 819 259 L 824 303 Q 827 316 826 320 Q 826 329 776 342 C 747 350 739 352 748 336 L 760 314 Q 764 308 768 274 Q 772 239 772 193 L 772 59 L 770 -7 Q 770 -40 758 -50 Q 749 -56 704 -45 L 692 -41 Q 686 -41 682 -45 Q 681 -48 688 -55 L 703 -68 Q 727 -93 745 -119 Q 762 -145 772 -141 Q 788 -139 806 -115 Q 828 -81 828 -34 Q 828 13 824 62 L 821 117 L 819 259 Z" fill="lightgray"></path>
				<path d="M 615 211 Q 611 212 608 207 Q 604 202 596 188 Q 587 173 559 144 Q 531 115 528 94 Q 524 72 542 70 Q 573 64 599 107 Q 614 137 617 155 Q 627 209 615 211 Z" fill="lightgray"></path>
				<path d="M 945 68 Q 962 64 965 107 Q 968 130 956 152 Q 944 174 899 194 L 860 209 Q 850 212 843 211 Q 835 210 834 209 Q 833 200 863 156 L 899 104 Q 925 68 945 68 Z" fill="lightgray"></path>
</g>
		<text x="40" y="140" font-size="128" fill="#999999">5</text></g>
</g>
	<g id="id1:id1" transform="translate(0.0,1024)">
		<g id="id1:id0:id0" transform="matrix(1.0,0,0,1.0,0,0.0)">			<g stroke="lightgray" stroke-width="4" transform="scale(4, 4)"> <rect x="0" y="0" width="256" height="256" fill="white" stroke-width="4"/></g>
			<g transform="scale(0.92, -0.92) translate(60, -920)">					<path d="M 82 437 L 61 442 Q 37 452 33 438 Q 33 432 37 425 L 46 412 Q 55 395 65 349 L 74 268 Q 79 232 92 216 Q 95 211 101 213 Q 107 214 111 220 Q 114 227 115 236 L 112 270 L 94 411 C 91 435 91 435 82 437 Z" fill="black"></path>
				<path d="M 217 279 L 231 345 Q 243 399 252 415 Q 260 430 263 439 Q 263 444 261 448 Q 255 458 218 477 Q 202 482 197 481 Q 191 480 178 471 Q 153 452 110 442 L 82 437 C 52 432 65 403 94 411 L 164 430 Q 180 435 184 431 Q 188 427 185 403 Q 182 379 182 375 L 176 283 C 174 253 211 250 217 279 Z" fill="black"></path>
				<path d="M 115 236 L 213 250 L 235 252 Q 239 252 235 258 L 219 273 Q 217 277 217 279 C 214 291 205 289 176 283 L 112 270 C 83 264 85 232 115 236 Z" fill="black"></path>
				<path d="M 437 452 L 520 472 Q 536 475 537 479 Q 542 480 540 486 Q 538 491 533 495 Q 525 500 509 506 Q 492 512 489 512 Q 486 512 477 508 Q 467 503 440 497 L 387 483 L 300 468 Q 295 463 295 459 Q 295 455 314 445 Q 332 434 389 443 L 437 452 Z" fill="black"></path>
				<path d="M 434 367 L 437 452 L 440 497 L 443 550 Q 444 559 444 576 L 447 601 Q 448 607 454 620 Q 460 633 458 638 Q 453 653 421 662 Q 388 670 377 669 Q 363 665 368 652 L 377 633 Q 383 619 384 604 Q 384 588 387 562 L 387 483 L 389 443 L 389 357 C 389 327 433 337 434 367 Z" fill="black"></path>
				<path d="M 439 329 L 546 354 Q 577 361 557 374 Q 549 379 537 382 L 508 387 L 434 367 L 389 357 L 349 349 Q 310 341 300 340 L 266 334 Q 254 332 254 326 Q 254 320 264 314 Q 273 307 289 306 L 309 303 L 356 312 L 406 321 L 439 329 Z" fill="red"></path>
				<path d="M 309 303 L 313 288 Q 316 275 316 257 L 314 215 Q 313 152 291 93 L 272 42 Q 268 32 264 19 Q 260 5 269 -27 Q 273 -61 289 -61 Q 301 -61 317 -19 L 321 -7 Q 338 44 359 188 L 362 235 L 368 265 Q 370 280 373 286 Q 375 291 371 300 L 356 312 C 333 331 301 332 309 303 Z" fill="lightgray"></path>
				<path d="M 397 -24 Q 380 -24 372 -23 L 348 -21 Q 340 -20 339 -23 Q 337 -26 342 -30 L 360 -43 L 384 -65 Q 404 -84 410 -94 Q 416 -104 420 -104 Q 427 -108 440 -92 Q 454 -79 458 -59 Q 468 -25 465 25 L 463 184 L 463 207 L 463 236 Q 462 237 464 261 Q 466 285 470 294 Q 473 303 473 310 Q 473 317 439 329 C 411 340 393 346 406 321 L 414 305 Q 423 265 423 145 L 422 38 L 420 6 Q 418 -26 397 -24 Z" fill="lightgray"></path>
				<path d="M 264 213 Q 260 214 256 209 Q 252 204 244 190 Q 235 175 208 146 Q 180 117 176 96 Q 172 74 190 72 Q 221 66 247 109 Q 262 139 265 157 Q 276 211 264 213 Z" fill="lightgray"></path>
				<path d="M 463 184 L 485 145 Q 490 135 498 130 Q 517 116 526 135 Q 529 144 529 155 Q 526 181 512 189 Q 497 197 463 207 C 447 212 448 210 463 184 Z" fill="lightgray"></path>
				<path d="M 766 472 L 798 479 Q 819 484 830 488 L 863 499 Q 875 503 875 509 Q 876 513 869 520 Q 862 527 848 532 Q 833 537 828 537 L 817 533 Q 810 529 766 518 L 708 503 L 637 490 L 610 487 Q 595 485 606 474 Q 615 459 654 459 L 707 463 L 766 472 Z" fill="lightgray"></path>
				<path d="M 760 375 L 766 472 L 766 518 L 770 594 Q 770 600 774 623 Q 777 645 784 659 Q 791 673 790 678 Q 785 697 744 707 L 718 713 Q 700 716 693 715 Q 676 713 686 694 L 696 675 Q 700 666 705 649 Q 709 632 709 571 L 708 503 L 707 463 L 705 362 C 704 332 758 345 760 375 Z" fill="lightgray"></path>
				<path d="M 776 342 L 852 350 L 930 354 Q 956 356 957 363 Q 964 370 945 383 Q 925 396 913 401 Q 901 405 886 401 Q 870 396 849 392 L 760 375 L 705 362 L 654 352 Q 606 342 597 341 L 563 336 Q 548 333 547 329 Q 545 325 565 311 Q 585 296 593 298 Q 601 299 609 303 Q 616 306 627 308 Q 638 310 644 312 L 675 322 L 748 336 L 776 342 Z" fill="lightgray"></path>
				<path d="M 644 312 L 654 300 Q 664 278 664 257 L 664 216 Q 664 150 643 98 Q 622 45 609 -6 Q 604 -20 613 -51 Q 617 -84 633 -84 Q 645 -84 661 -41 L 667 -22 Q 690 60 698 123 L 711 237 L 713 267 L 716 278 Q 721 305 720 307 L 675 322 C 647 331 625 335 644 312 Z" fill="lightgray"></path>
				<path d="M 819 259 L 824 303 Q 827 316 826 320 Q 826 329 776 342 C 747 350 739 352 748 336 L 760 314 Q 764 308 768 274 Q 772 239 772 193 L 772 59 L 770 -7 Q 770 -40 758 -50 Q 749 -56 704 -45 L 692 -41 Q 686 -41 682 -45 Q 681 -48 688 -55 L 703 -68 Q 727 -93 745 -119 Q 762 -145 772 -141 Q 788 -139 806 -115 Q 828 -81 828 -34 Q 828 13 824 62 L 821 117 L 819 259 Z" fill="lightgray"></path>
				<path d="M 615 211 Q 611 212 608 207 Q 604 202 596 188 Q 587 173 559 144 Q 531 115 528 94 Q 524 72 542 70 Q 573 64 599 107 Q 614 137 617 155 Q 627 209 615 211 Z" fill="lightgray"></path>
				<path d="M 945 68 Q 962 64 965 107 Q 968 130 956 152 Q 944 174 899 194 L 860 209 Q 850 212 843 211 Q 835 210 834 209 Q 833 200 863 156 L 899 104 Q 925 68 945 68 Z" fill="lightgray"></path>
</g>
		<text x="40" y="140" font-size="128" fill="#999999">6</text></g>
		<g id="id1:id1:id1" transform="matrix(1.0,0,0,1.0,1024,0.0)">			<g stroke="lightgray" stroke-width="4" transform="scale(4, 4)"> <rect x="0" y="0" width="256" height="256" fill="white" stroke-width="4"/></g>
			<g transform="scale(0.92, -0.92) translate(60, -920)">					<path d="M 82 437 L 61 442 Q 37 452 33 438 Q 33 432 37 425 L 46 412 Q 55 395 65 349 L 74 268 Q 79 232 92 216 Q 95 211 101 213 Q 107 214 111 220 Q 114 227 115 236 L 112 270 L 94 411 C 91 435 91 435 82 437 Z" fill="black"></path>
				<path d="M 217 279 L 231 345 Q 243 399 252 415 Q 260 430 263 439 Q 263 444 261 448 Q 255 458 218 477 Q 202 482 197 481 Q 191 480 178 471 Q 153 452 110 442 L 82 437 C 52 432 65 403 94 411 L 164 430 Q 180 435 184 431 Q 188 427 185 403 Q 182 379 182 375 L 176 283 C 174 253 211 250 217 279 Z" fill="black"></path>
				<path d="M 115 236 L 213 250 L 235 252 Q 239 252 235 258 L 219 273 Q 217 277 217 279 C 214 291 205 289 176 283 L 112 270 C 83 264 85 232 115 236 Z" fill="black"></path>
				<path d="M 437 452 L 520 472 Q 536 475 537 479 Q 542 480 540 486 Q 538 491 533 495 Q 525 500 509 506 Q 492 512 489 512 Q 486 512 477 508 Q 467 503 440 497 L 387 483 L 300 468 Q 295 463 295 459 Q 295 455 314 445 Q 332 434 389 443 L 437 452 Z" fill="black"></path>
				<path d="M 434 367 L 437 452 L 440 497 L 443 550 Q 444 559 444 576 L 447 601 Q 448 607 454 620 Q 460 633 458 638 Q 453 653 421 662 Q 388 670 377 669 Q 363 665 368 652 L 377 633 Q 383 619 384 604 Q 384 588 387 562 L 387 483 L 389 443 L 389 357 C 389 327 433 337 434 367 Z" fill="black"></path>
				<path d="M 439 329 L 546 354 Q 577 361 557 374 Q 549 379 537 382 L 508 387 L 434 367 L 389 357 L 349 349 Q 310 341 300 340 L 266 334 Q 254 332 254 326 Q 254 320 264 314 Q 273 307 289 306 L 309 303 L 356 312 L 406 321 L 439 329 Z" fill="black"></path>
				<path d="M 309 303 L 313 288 Q 316 275 316 257 L 314 215 Q 313 152 291 93 L 272 42 Q 268 32 264 19 Q 260 5 269 -27 Q 273 -61 289 -61 Q 301 -61 317 -19 L 321 -7 Q 338 44 359 188 L 362 235 L 368 265 Q 370 280 373 286 Q 375 291 371 300 L 356 312 C 333 331 301 332 309 303 Z" fill="red"></path>
				<path d="M 397 -24 Q 380 -24 372 -23 L 348 -21 Q 340 -20 339 -23 Q 337 -26 342 -30 L 360 -43 L 384 -65 Q 404 -84 410 -94 Q 416 -104 420 -104 Q 427 -108 440 -92 Q 454 -79 458 -59 Q 468 -25 465 25 L 463 184 L 463 207 L 463 236 Q 462 237 464 261 Q 466 285 470 294 Q 473 303 473 310 Q 473 317 439 329 C 411 340 393 346 406 321 L 414 305 Q 423 265 423 145 L 422 38 L 420 6 Q 418 -26 397 -24 Z" fill="lightgray"></path>
				<path d="M 264 213 Q 260 214 256 209 Q 252 204 244 190 Q 235 175 208 146 Q 180 117 176 96 Q 172 74 190 72 Q 221 66 247 109 Q 262 139 265 157 Q 276 211 264 213 Z" fill="lightgray"></path>
				<path d="M 463 184 L 485 145 Q 490 135 498 130 Q 517 116 526 135 Q 529 144 529 155 Q 526 181 512 189 Q 497 197 463 207 C 447 212 448 210 463 184 Z" fill="lightgray"></path>
				<path d="M 766 472 L 798 479 Q 819 484 830 488 L 863 499 Q 875 503 875 509 Q 876 513 869 520 Q 862 527 848 532 Q 833 537 828 537 L 817 533 Q 810 529 766 518 L 708 503 L 637 490 L 610 487 Q 595 485 606 474 Q 615 459 654 459 L 707 463 L 766 472 Z" fill="lightgray"></path>
				<path d="M 760 375 L 766 472 L 766 518 L 770 594 Q 770 600 774 623 Q 777 645 784 659 Q 791 673 790 678 Q 785 697 744 707 L 718 713 Q 700 716 693 715 Q 676 713 686 694 L 696 675 Q 700 666 705 649 Q 709 632 709 571 L 708 503 L 707 463 L 705 362 C 704 332 758 345 760 375 Z" fill="lightgray"></path>
				<path d="M 776 342 L 852 350 L 930 354 Q 956 356 957 363 Q 964 370 945 383 Q 925 396 913 401 Q 901 405 886 401 Q 870 396 849 392 L 760 375 L 705 362 L 654 352 Q 606 342 597 341 L 563 336 Q 548 333 547 329 Q 545 325 565 311 Q 585 296 593 298 Q 601 299 609 303 Q 616 306 627 308 Q 638 310 644 312 L 675 322 L 748 336 L 776 342 Z" fill="lightgray"></path>
				<path d="M 644 312 L 654 300 Q 664 278 664 257 L 664 216 Q 664 150 643 98 Q 622 45 609 -6 Q 604 -20 613 -51 Q 617 -84 633 -84 Q 645 -84 661 -41 L 667 -22 Q 690 60 698 123 L 711 237 L 713 267 L 716 278 Q 721 305 720 307 L 675 322 C 647 331 625 335 644 312 Z" fill="lightgray"></path>
				<path d="M 819 259 L 824 303 Q 827 316 826 320 Q 826 329 776 342 C 747 350 739 352 748 336 L 760 314 Q 764 308 768 274 Q 772 239 772 193 L 772 59 L 770 -7 Q 770 -40 758 -50 Q 749 -56 704 -45 L 692 -41 Q 686 -41 682 -45 Q 681 -48 688 -55 L 703 -68 Q 727 -93 745 -119 Q 762 -145 772 -141 Q 788 -139 806 -115 Q 828 -81 828 -34 Q 828 13 824 62 L 821 117 L 819 259 Z" fill="lightgray"></path>
				<path d="M 615 211 Q 611 212 608 207 Q 604 202 596 188 Q 587 173 559 144 Q 531 115 528 94 Q 524 72 542 70 Q 573 64 599 107 Q 614 137 617 155 Q 627 209 615 211 Z" fill="lightgray"></path>
				<path d="M 945 68 Q 962 64 965 107 Q 968 130 956 152 Q 944 174 899 194 L 860 209 Q 850 212 843 211 Q 835 210 834 209 Q 833 200 863 156 L 899 104 Q 925 68 945 68 Z" fill="lightgray"></path>
</g>
		<text x="40" y="140" font-size="128" fill="#999999">7</text></g>
		<g id="id1:id2:id2" transform="matrix(1.0,0,0,1.0,2048,0.0)">			<g stroke="lightgray" stroke-width="4" transform="scale(4, 4)"> <rect x="0" y="0" width="256" height="256" fill="white" stroke-width="4"/></g>
			<g transform="scale(0.92, -0.92) translate(60, -920)">					<path d="M 82 437 L 61 442 Q 37 452 33 438 Q 33 432 37 425 L 46 412 Q 55 395 65 349 L 74 268 Q 79 232 92 216 Q 95 211 101 213 Q 107 214 111 220 Q 114 227 115 236 L 112 270 L 94 411 C 91 435 91 435 82 437 Z" fill="black"></path>
				<path d="M 217 279 L 231 345 Q 243 399 252 415 Q 260 430 263 439 Q 263 444 261 448 Q 255 458 218 477 Q 202 482 197 481 Q 191 480 178 471 Q 153 452 110 442 L 82 437 C 52 432 65 403 94 411 L 164 430 Q 180 435 184 431 Q 188 427 185 403 Q 182 379 182 375 L 176 283 C 174 253 211 250 217 279 Z" fill="black"></path>
				<path d="M 115 236 L 213 250 L 235 252 Q 239 252 235 258 L 219 273 Q 217 277 217 279 C 214 291 205 289 176 283 L 112 270 C 83 264 85 232 115 236 Z" fill="black"></path>
				<path d="M 437 452 L 520 472 Q 536 475 537 479 Q 542 480 540 486 Q 538 491 533 495 Q 525 500 509 506 Q 492 512 489 512 Q 486 512 477 508 Q 467 503 440 497 L 387 483 L 300 468 Q 295 463 295 459 Q 295 455 314 445 Q 332 434 389 443 L 437 452 Z" fill="black"></path>
				<path d="M 434 367 L 437 452 L 440 497 L 443 550 Q 444 559 444 576 L 447 601 Q 448 607 454 620 Q 460 633 458 638 Q 453 653 421 662 Q 388 670 377 669 Q 363 665 368 652 L 377 633 Q 383 619 384 604 Q 384 588 387 562 L 387 483 L 389 443 L 389 357 C 389 327 433 337 434 367 Z" fill="black"></path>
				<path d="M 439 329 L 546 354 Q 577 361 557 374 Q 549 379 537 382 L 508 387 L 434 367 L 389 357 L 349 349 Q 310 341 300 340 L 266 334 Q 254 332 254 326 Q 254 320 264 314 Q 273 307 289 306 L 309 303 L 356 312 L 406 321 L 439 329 Z" fill="black"></path>
				<path d="M 309 303 L 313 288 Q 316 275 316 257 L 314 215 Q 313 152 291 93 L 272 42 Q 268 32 264 19 Q 260 5 269 -27 Q 273 -61 289 -61 Q 301 -61 317 -19 L 321 -7 Q 338 44 359 188 L 362 235 L 368 265 Q 370 280 373 286 Q 375 291 371 300 L 356 312 C 333 331 301 332 309 303 Z" fill="black"></path>
				<path d="M 397 -24 Q 380 -24 372 -23 L 348 -21 Q 340 -20 339 -23 Q 337 -26 342 -30 L 360 -43 L 384 -65 Q 404 -84 410 -94 Q 416 -104 420 -104 Q 427 -108 440 -92 Q 454 -79 458 -59 Q 468 -25 465 25 L 463 184 L 463 207 L 463 236 Q 462 237 464 261 Q 466 285 470 294 Q 473 303 473 310 Q 473 317 439 329 C 411 340 393 346 406 321 L 414 305 Q 423 265 423 145 L 422 38 L 420 6 Q 418 -26 397 -24 Z" fill="red"></path>
				<path d="M 264 213 Q 260 214 256 209 Q 252 204 244 190 Q 235 175 208 146 Q 180 117 176 96 Q 172 74 190 72 Q 221 66 247 109 Q 262 139 265 157 Q 276 211 264 213 Z" fill="lightgray"></path>
				<path d="M 463 184 L 485 145 Q 490 135 498 130 Q 517 116 526 135 Q 529 144 529 155 Q 526 181 512 189 Q 497 197 463 207 C 447 212 448 210 463 184 Z" fill="lightgray"></path>
				<path d="M 766 472 L 798 479 Q 819 484 830 488 L 863 499 Q 875 503 875 509 Q 876 513 869 520 Q 862 527 848 532 Q 833 537 828 537 L 817 533 Q 810 529 766 518 L 708 503 L 637 490 L 610 487 Q 595 485 606 474 Q 615 459 654 459 L 707 463 L 766 472 Z" fill="lightgray"></path>
				<path d="M 760 375 L 766 472 L 766 518 L 770 594 Q 770 600 774 623 Q 777 645 784 659 Q 791 673 790 678 Q 785 697 744 707 L 718 713 Q 700 716 693 715 Q 676 713 686 694 L 696 675 Q 700 666 705 649 Q 709 632 709 571 L 708 503 L 707 463 L 705 362 C 704 332 758 345 760 375 Z" fill="lightgray"></path>
				<path d="M 776 342 L 852 350 L 930 354 Q 956 356 957 363 Q 964 370 945 383 Q 925 396 913 401 Q 901 405 886 401 Q 870 396 849 392 L 760 375 L 705 362 L 654 352 Q 606 342 597 341 L 563 336 Q 548 333 547 329 Q 545 325 565 311 Q 585 296 593 298 Q 601 299 609 303 Q 616 306 627 308 Q 638 310 644 312 L 675 322 L 748 336 L 776 342 Z" fill="lightgray"></path>
				<path d="M 644 312 L 654 300 Q 664 278 664 257 L 664 216 Q 664 150 643 98 Q 622 45 609 -6 Q 604 -20 613 -51 Q 617 -84 633 -84 Q 645 -84 661 -41 L 667 -22 Q 690 60 698 123 L 711 237 L 713 267 L 716 278 Q 721 305 720 307 L 675 322 C 647 331 625 335 644 312 Z" fill="lightgray"></path>
				<path d="M 819 259 L 824 303 Q 827 316 826 320 Q 826 329 776 342 C 747 350 739 352 748 336 L 760 314 Q 764 308 768 274 Q 772 239 772 193 L 772 59 L 770 -7 Q 770 -40 758 -50 Q 749 -56 704 -45 L 692 -41 Q 686 -41 682 -45 Q 681 -48 688 -55 L 703 -68 Q 727 -93 745 -119 Q 762 -145 772 -141 Q 788 -139 806 -115 Q 828 -81 828 -34 Q 828 13 824 62 L 821 117 L 819 259 Z" fill="lightgray"></path>
				<path d="M 615 211 Q 611 212 608 207 Q 604 202 596 188 Q 587 173 559 144 Q 531 115 528 94 Q 524 72 542 70 Q 573 64 599 107 Q 614 137 617 155 Q 627 209 615 211 Z" fill="lightgray"></path>
				<path d="M 945 68 Q 962 64 965 107 Q 968 130 956 152 Q 944 174 899 194 L 860 209 Q 850 212 843 211 Q 835 210 834 209 Q 833 200 863 156 L 899 104 Q 925 68 945 68 Z" fill="lightgray"></path>
</g>
		<text x="40" y="140" font-size="128" fill="#999999">8</text></g>
		<g id="id1:id3:id3" transform="matrix(1.0,0,0,1.0,3072,0.0)">			<g stroke="lightgray" stroke-width="4" transform="scale(4, 4)"> <rect x="0" y="0" width="256" height="256" fill="white" stroke-width="4"/></g>
			<g transform="scale(0.92, -0.92) translate(60, -920)">					<path d="M 82 437 L 61 442 Q 37 452 33 438 Q 33 432 37 425 L 46 412 Q 55 395 65 349 L 74 268 Q 79 232 92 216 Q 95 211 101 213 Q 107 214 111 220 Q 114 227 115 236 L 112 270 L 94 411 C 91 435 91 435 82 437 Z" fill="black"></path>
				<path d="M 217 279 L 231 345 Q 243 399 252 415 Q 260 430 263 439 Q 263 444 261 448 Q 255 458 218 477 Q 202 482 197 481 Q 191 480 178 471 Q 153 452 110 442 L 82 437 C 52 432 65 403 94 411 L 164 430 Q 180 435 184 431 Q 188 427 185 403 Q 182 379 182 375 L 176 283 C 174 253 211 250 217 279 Z" fill="black"></path>
				<path d="M 115 236 L 213 250 L 235 252 Q 239 252 235 258 L 219 273 Q 217 277 217 279 C 214 291 205 289 176 283 L 112 270 C 83 264 85 232 115 236 Z" fill="black"></path>
				<path d="M 437 452 L 520 472 Q 536 475 537 479 Q 542 480 540 486 Q 538 491 533 495 Q 525 500 509 506 Q 492 512 489 512 Q 486 512 477 508 Q 467 503 440 497 L 387 483 L 300 468 Q 295 463 295 459 Q 295 455 314 445 Q 332 434 389 443 L 437 452 Z" fill="black"></path>
				<path d="M 434 367 L 437 452 L 440 497 L 443 550 Q 444 559 444 576 L 447 601 Q 448 607 454 620 Q 460 633 458 638 Q 453 653 421 662 Q 388 670 377 669 Q 363 665 368 652 L 377 633 Q 383 619 384 604 Q 384 588 387 562 L 387 483 L 389 443 L 389 357 C 389 327 433 337 434 367 Z" fill="black"></path>
				<path d="M 439 329 L 546 354 Q 577 361 557 374 Q 549 379 537 382 L 508 387 L 434 367 L 389 357 L 349 349 Q 310 341 300 340 L 266 334 Q 254 332 254 326 Q 254 320 264 314 Q 273 307 289 306 L 309 303 L 356 312 L 406 321 L 439 329 Z" fill="black"></path>
				<path d="M 309 303 L 313 288 Q 316 275 316 257 L 314 215 Q 313 152 291 93 L 272 42 Q 268 32 264 19 Q 260 5 269 -27 Q 273 -61 289 -61 Q 301 -61 317 -19 L 321 -7 Q 338 44 359 188 L 362 235 L 368 265 Q 370 280 373 286 Q 375 291 371 300 L 356 312 C 333 331 301 332 309 303 Z" fill="black"></path>
				<path d="M 397 -24 Q 380 -24 372 -23 L 348 -21 Q 340 -20 339 -23 Q 337 -26 342 -30 L 360 -43 L 384 -65 Q 404 -84 410 -94 Q 416 -104 420 -104 Q 427 -108 440 -92 Q 454 -79 458 -59 Q 468 -25 465 25 L 463 184 L 463 207 L 463 236 Q 462 237 464 261 Q 466 285 470 294 Q 473 303 473 310 Q 473 317 439 329 C 411 340 393 346 406 321 L 414 305 Q 423 265 423 145 L 422 38 L 420 6 Q 418 -26 397 -24 Z" fill="black"></path>
				<path d="M 264 213 Q 260 214 256 209 Q 252 204 244 190 Q 235 175 208 146 Q 180 117 176 96 Q 172 74 190 72 Q 221 66 247 109 Q 262 139 265 157 Q 276 211 264 213 Z" fill="red"></path>
				<path d="M 463 184 L 485 145 Q 490 135 498 130 Q 517 116 526 135 Q 529 144 529 155 Q 526 181 512 189 Q 497 197 463 207 C 447 212 448 210 463 184 Z" fill="lightgray"></path>
				<path d="M 766 472 L 798 479 Q 819 484 830 488 L 863 499 Q 875 503 875 509 Q 876 513 869 520 Q 862 527 848 532 Q 833 537 828 537 L 817 533 Q 810 529 766 518 L 708 503 L 637 490 L 610 487 Q 595 485 606 474 Q 615 459 654 459 L 707 463 L 766 472 Z" fill="lightgray"></path>
				<path d="M 760 375 L 766 472 L 766 518 L 770 594 Q 770 600 774 623 Q 777 645 784 659 Q 791 673 790 678 Q 785 697 744 707 L 718 713 Q 700 716 693 715 Q 676 713 686 694 L 696 675 Q 700 666 705 649 Q 709 632 709 571 L 708 503 L 707 463 L 705 362 C 704 332 758 345 760 375 Z" fill="lightgray"></path>
				<path d="M 776 342 L 852 350 L 930 354 Q 956 356 957 363 Q 964 370 945 383 Q 925 396 913 401 Q 901 405 886 401 Q 870 396 849 392 L 760 375 L 705 362 L 654 352 Q 606 342 597 341 L 563 336 Q 548 333 547 329 Q 545 325 565 311 Q 585 296 593 298 Q 601 299 609 303 Q 616 306 627 308 Q 638 310 644 312 L 675 322 L 748 336 L 776 342 Z" fill="lightgray"></path>
				<path d="M 644 312 L 654 300 Q 664 278 664 257 L 664 216 Q 664 150 643 98 Q 622 45 609 -6 Q 604 -20 613 -51 Q 617 -84 633 -84 Q 645 -84 661 -41 L 667 -22 Q 690 60 698 123 L 711 237 L 713 267 L 716 278 Q 721 305 720 307 L 675 322 C 647 331 625 335 644 312 Z" fill="lightgray"></path>
				<path d="M 819 259 L 824 303 Q 827 316 826 320 Q 826 329 776 342 C 747 350 739 352 748 336 L 760 314 Q 764 308 768 274 Q 772 239 772 193 L 772 59 L 770 -7 Q 770 -40 758 -50 Q 749 -56 704 -45 L 692 -41 Q 686 -41 682 -45 Q 681 -48 688 -55 L 703 -68 Q 727 -93 745 -119 Q 762 -145 772 -141 Q 788 -139 806 -115 Q 828 -81 828 -34 Q 828 13 824 62 L 821 117 L 819 259 Z" fill="lightgray"></path>
				<path d="M 615 211 Q 611 212 608 207 Q 604 202 596 188 Q 587 173 559 144 Q 531 115 528 94 Q 524 72 542 70 Q 573 64 599 107 Q 614 137 617 155 Q 627 209 615 211 Z" fill="lightgray"></path>
				<path d="M 945 68 Q 962 64 965 107 Q 968 130 956 152 Q 944 174 899 194 L 860 209 Q 850 212 843 211 Q 835 210 834 209 Q 833 200 863 156 L 899 104 Q 925 68 945 68 Z" fill="lightgray"></path>
</g>
		<text x="40" y="140" font-size="128" fill="#999999">9</text></g>
		<g id="id1:id4:id4" transform="matrix(1.0,0,0,1.0,4096,0.0)">			<g stroke="lightgray" stroke-width="4" transform="scale(4, 4)"> <rect x="0" y="0" width="256" height="256" fill="white" stroke-width="4"/></g>
			<g transform="scale(0.92, -0.92) translate(60, -920)">					<path d="M 82 437 L 61 442 Q 37 452 33 438 Q 33 432 37 425 L 46 412 Q 55 395 65 349 L 74 268 Q 79 232 92 216 Q 95 211 101 213 Q 107 214 111 220 Q 114 227 115 236 L 112 270 L 94 411 C 91 435 91 435 82 437 Z" fill="black"></path>
				<path d="M 217 279 L 231 345 Q 243 399 252 415 Q 260 430 263 439 Q 263 444 261 448 Q 255 458 218 477 Q 202 482 197 481 Q 191 480 178 471 Q 153 452 110 442 L 82 437 C 52 432 65 403 94 411 L 164 430 Q 180 435 184 431 Q 188 427 185 403 Q 182 379 182 375 L 176 283 C 174 253 211 250 217 279 Z" fill="black"></path>
				<path d="M 115 236 L 213 250 L 235 252 Q 239 252 235 258 L 219 273 Q 217 277 217 279 C 214 291 205 289 176 283 L 112 270 C 83 264 85 232 115 236 Z" fill="black"></path>
				<path d="M 437 452 L 520 472 Q 536 475 537 479 Q 542 480 540 486 Q 538 491 533 495 Q 525 500 509 506 Q 492 512 489 512 Q 486 512 477 508 Q 467 503 440 497 L 387 483 L 300 468 Q 295 463 295 459 Q 295 455 314 445 Q 332 434 389 443 L 437 452 Z" fill="black"></path>
				<path d="M 434 367 L 437 452 L 440 497 L 443 550 Q 444 559 444 576 L 447 601 Q 448 607 454 620 Q 460 633 458 638 Q 453 653 421 662 Q 388 670 377 669 Q 363 665 368 652 L 377 633 Q 383 619 384 604 Q 384 588 387 562 L 387 483 L 389 443 L 389 357 C 389 327 433 337 434 367 Z" fill="black"></path>
				<path d="M 439 329 L 546 354 Q 577 361 557 374 Q 549 379 537 382 L 508 387 L 434 367 L 389 357 L 349 349 Q 310 341 300 340 L 266 334 Q 254 332 254 326 Q 254 320 264 314 Q 273 307 289 306 L 309 303 L 356 312 L 406 321 L 439 329 Z" fill="black"></path>
				<path d="M 309 303 L 313 288 Q 316 275 316 257 L 314 215 Q 313 152 291 93 L 272 42 Q 268 32 264 19 Q 260 5 269 -27 Q 273 -61 289 -61 Q 301 -61 317 -19 L 321 -7 Q 338 44 359 188 L 362 235 L 368 265 Q 370 280 373 286 Q 375 291 371 300 L 356 312 C 333 331 301 332 309 303 Z" fill="black"></path>
				<path d="M 397 -24 Q 380 -24 372 -23 L 348 -21 Q 340 -20 339 -23 Q 337 -26 342 -30 L 360 -43 L 384 -65 Q 404 -84 410 -94 Q 416 -104 420 -104 Q 427 -108 440 -92 Q 454 -79 458 -59 Q 468 -25 465 25 L 463 184 L 463 207 L 463 236 Q 462 237 464 261 Q 466 285 470 294 Q 473 303 473 310 Q 473 317 439 329 C 411 340 393 346 406 321 L 414 305 Q 423 265 423 145 L 422 38 L 420 6 Q 418 -26 397 -24 Z" fill="black"></path>
				<path d="M 264 213 Q 260 214 256 209 Q 252 204 244 190 Q 235 175 208 146 Q 180 117 176 96 Q 172 74 190 72 Q 221 66 247 109 Q 262 139 265 157 Q 276 211 264 213 Z" fill="black"></path>
				<path d="M 463 184 L 485 145 Q 490 135 498 130 Q 517 116 526 135 Q 529 144 529 155 Q 526 181 512 189 Q 497 197 463 207 C 447 212 448 210 463 184 Z" fill="red"></path>
				<path d="M 766 472 L 798 479 Q 819 484 830 488 L 863 499 Q 875 503 875 509 Q 876 513 869 520 Q 862 527 848 532 Q 833 537 828 537 L 817 533 Q 810 529 766 518 L 708 503 L 637 490 L 610 487 Q 595 485 606 474 Q 615 459 654 459 L 707 463 L 766 472 Z" fill="lightgray"></path>
				<path d="M 760 375 L 766 472 L 766 518 L 770 594 Q 770 600 774 623 Q 777 645 784 659 Q 791 673 790 678 Q 785 697 744 707 L 718 713 Q 700 716 693 715 Q 676 713 686 694 L 696 675 Q 700 666 705 649 Q 709 632 709 571 L 708 503 L 707 463 L 705 362 C 704 332 758 345 760 375 Z" fill="lightgray"></path>
				<path d="M 776 342 L 852 350 L 930 354 Q 956 356 957 363 Q 964 370 945 383 Q 925 396 913 401 Q 901 405 886 401 Q 870 396 849 392 L 760 375 L 705 362 L 654 352 Q 606 342 597 341 L 563 336 Q 548 333 547 329 Q 545 325 565 311 Q 585 296 593 298 Q 601 299 609 303 Q 616 306 627 308 Q 638 310 644 312 L 675 322 L 748 336 L 776 342 Z" fill="lightgray"></path>
				<path d="M 644 312 L 654 300 Q 664 278 664 257 L 664 216 Q 664 150 643 98 Q 622 45 609 -6 Q 604 -20 613 -51 Q 617 -84 633 -84 Q 645 -84 661 -41 L 667 -22 Q 690 60 698 123 L 711 237 L 713 267 L 716 278 Q 721 305 720 307 L 675 322 C 647 331 625 335 644 312 Z" fill="lightgray"></path>
				<path d="M 819 259 L 824 303 Q 827 316 826 320 Q 826 329 776 342 C 747 350 739 352 748 336 L 760 314 Q 764 308 768 274 Q 772 239 772 193 L 772 59 L 770 -7 Q 770 -40 758 -50 Q 749 -56 704 -45 L 692 -41 Q 686 -41 682 -45 Q 681 -48 688 -55 L 703 -68 Q 727 -93 745 -119 Q 762 -145 772 -141 Q 788 -139 806 -115 Q 828 -81 828 -34 Q 828 13 824 62 L 821 117 L 819 259 Z" fill="lightgray"></path>
				<path d="M 615 211 Q 611 212 608 207 Q 604 202 596 188 Q 587 173 559 144 Q 531 115 528 94 Q 524 72 542 70 Q 573 64 599 107 Q 614 137 617 155 Q 627 209 615 211 Z" fill="lightgray"></path>
				<path d="M 945 68 Q 962 64 965 107 Q 968 130 956 152 Q 944 174 899 194 L 860 209 Q 850 212 843 211 Q 835 210 834 209 Q 833 200 863 156 L 899 104 Q 925 68 945 68 Z" fill="lightgray"></path>
</g>
		<text x="40" y="140" font-size="128" fill="#999999">10</text></g>
</g>
	<g id="id2:id2" transform="translate(0.0,2048)">
		<g id="id2:id0:id0" transform="matrix(1.0,0,0,1.0,0,0.0)">			<g stroke="lightgray" stroke-width="4" transform="scale(4, 4)"> <rect x="0" y="0" width="256" height="256" fill="white" stroke-width="4"/></g>
			<g transform="scale(0.92, -0.92) translate(60, -920)">					<path d="M 82 437 L 61 442 Q 37 452 33 438 Q 33 432 37 425 L 46 412 Q 55 395 65 349 L 74 268 Q 79 232 92 216 Q 95 211 101 213 Q 107 214 111 220 Q 114 227 115 236 L 112 270 L 94 411 C 91 435 91 435 82 437 Z" fill="black"></path>
				<path d="M 217 279 L 231 345 Q 243 399 252 415 Q 260 430 263 439 Q 263 444 261 448 Q 255 458 218 477 Q 202 482 197 481 Q 191 480 178 471 Q 153 452 110 442 L 82 437 C 52 432 65 403 94 411 L 164 430 Q 180 435 184 431 Q 188 427 185 403 Q 182 379 182 375 L 176 283 C 174 253 211 250 217 279 Z" fill="black"></path>
				<path d="M 115 236 L 213 250 L 235 252 Q 239 252 235 258 L 219 273 Q 217 277 217 279 C 214 291 205 289 176 283 L 112 270 C 83 264 85 232 115 236 Z" fill="black"></path>
				<path d="M 437 452 L 520 472 Q 536 475 537 479 Q 542 480 540 486 Q 538 491 533 495 Q 525 500 509 506 Q 492 512 489 512 Q 486 512 477 508 Q 467 503 440 497 L 387 483 L 300 468 Q 295 463 295 459 Q 295 455 314 445 Q 332 434 389 443 L 437 452 Z" fill="black"></path>
				<path d="M 434 367 L 437 452 L 440 497 L 443 550 Q 444 559 444 576 L 447 601 Q 448 607 454 620 Q 460 633 458 638 Q 453 653 421 662 Q 388 670 377 669 Q 363 665 368 652 L 377 633 Q 383 619 384 604 Q 384 588 387 562 L 387 483 L 389 443 L 389 357 C 389 327 433 337 434 367 Z" fill="black"></path>
				<path d="M 439 329 L 546 354 Q 577 361 557 374 Q 549 379 537 382 L 508 387 L 434 367 L 389 357 L 349 349 Q 310 341 300 340 L 266 334 Q 254 332 254 326 Q 254 320 264 314 Q 273 307 289 306 L 309 303 L 356 312 L 406 321 L 439 329 Z" fill="black"></path>
				<path d="M 309 303 L 313 288 Q 316 275 316 257 L 314 215 Q 313 152 291 93 L 272 42 Q 268 32 264 19 Q 260 5 269 -27 Q 273 -61 289 -61 Q 301 -61 317 -19 L 321 -7 Q 338 44 359 188 L 362 235 L 368 265 Q 370 280 373 286 Q 375 291 371 300 L 356 312 C 333 331 301 332 309 303 Z" fill="black"></path>
				<path d="M 397 -24 Q 380 -24 372 -23 L 348 -21 Q 340 -20 339 -23 Q 337 -26 342 -30 L 360 -43 L 384 -65 Q 404 -84 410 -94 Q 416 -104 420 -104 Q 427 -108 440 -92 Q 454 -79 458 -59 Q 468 -25 465 25 L 463 184 L 463 207 L 463 236 Q 462 237 464 261 Q 466 285 470 294 Q 473 303 473 310 Q 473 317 439 329 C 411 340 393 346 406 321 L 414 305 Q 423 265 423 145 L 422 38 L 420 6 Q 418 -26 397 -24 Z" fill="black"></path>
				<path d="M 264 213 Q 260 214 256 209 Q 252 204 244 190 Q 235 175 208 146 Q 180 117 176 96 Q 172 74 190 72 Q 221 66 247 109 Q 262 139 265 157 Q 276 211 264 213 Z" fill="black"></path>
				<path d="M 463 184 L 485 145 Q 490 135 498 130 Q 517 116 526 135 Q 529 144 529 155 Q 526 181 512 189 Q 497 197 463 207 C 447 212 448 210 463 184 Z" fill="black"></path>
				<path d="M 766 472 L 798 479 Q 819 484 830 488 L 863 499 Q 875 503 875 509 Q 876 513 869 520 Q 862 527 848 532 Q 833 537 828 537 L 817 533 Q 810 529 766 518 L 708 503 L 637 490 L 610 487 Q 595 485 606 474 Q 615 459 654 459 L 707 463 L 766 472 Z" fill="red"></path>
				<path d="M 760 375 L 766 472 L 766 518 L 770 594 Q 770 600 774 623 Q 777 645 784 659 Q 791 673 790 678 Q 785 697 744 707 L 718 713 Q 700 716 693 715 Q 676 713 686 694 L 696 675 Q 700 666 705 649 Q 709 632 709 571 L 708 503 L 707 463 L 705 362 C 704 332 758 345 760 375 Z" fill="lightgray"></path>
				<path d="M 776 342 L 852 350 L 930 354 Q 956 356 957 363 Q 964 370 945 383 Q 925 396 913 401 Q 901 405 886 401 Q 870 396 849 392 L 760 375 L 705 362 L 654 352 Q 606 342 597 341 L 563 336 Q 548 333 547 329 Q 545 325 565 311 Q 585 296 593 298 Q 601 299 609 303 Q 616 306 627 308 Q 638 310 644 312 L 675 322 L 748 336 L 776 342 Z" fill="lightgray"></path>
				<path d="M 644 312 L 654 300 Q 664 278 664 257 L 664 216 Q 664 150 643 98 Q 622 45 609 -6 Q 604 -20 613 -51 Q 617 -84 633 -84 Q 645 -84 661 -41 L 667 -22 Q 690 60 698 123 L 711 237 L 713 267 L 716 278 Q 721 305 720 307 L 675 322 C 647 331 625 335 644 312 Z" fill="lightgray"></path>
				<path d="M 819 259 L 824 303 Q 827 316 826 320 Q 826 329 776 342 C 747 350 739 352 748 336 L 760 314 Q 764 308 768 274 Q 772 239 772 193 L 772 59 L 770 -7 Q 770 -40 758 -50 Q 749 -56 704 -45 L 692 -41 Q 686 -41 682 -45 Q 681 -48 688 -55 L 703 -68 Q 727 -93 745 -119 Q 762 -145 772 -141 Q 788 -139 806 -115 Q 828 -81 828 -34 Q 828 13 824 62 L 821 117 L 819 259 Z" fill="lightgray"></path>
				<path d="M 615 211 Q 611 212 608 207 Q 604 202 596 188 Q 587 173 559 144 Q 531 115 528 94 Q 524 72 542 70 Q 573 64 599 107 Q 614 137 617 155 Q 627 209 615 211 Z" fill="lightgray"></path>
				<path d="M 945 68 Q 962 64 965 107 Q 968 130 956 152 Q 944 174 899 194 L 860 209 Q 850 212 843 211 Q 835 210 834 209 Q 833 200 863 156 L 899 104 Q 925 68 945 68 Z" fill="lightgray"></path>
</g>
		<text x="40" y="140" font-size="128" fill="#999999">11</text></g>
		<g id="id2:id1:id1" transform="matrix(1.0,0,0,1.0,1024,0.0)">			<g stroke="lightgray" stroke-width="4" transform="scale(4, 4)"> <rect x="0" y="0" width="256" height="256" fill="white" stroke-width="4"/></g>
			<g transform="scale(0.92, -0.92) translate(60, -920)">					<path d="M 82 437 L 61 442 Q 37 452 33 438 Q 33 432 37 425 L 46 412 Q 55 395 65 349 L 74 268 Q 79 232 92 216 Q 95 211 101 213 Q 107 214 111 220 Q 114 227 115 236 L 112 270 L 94 411 C 91 435 91 435 82 437 Z" fill="black"></path>
				<path d="M 217 279 L 231 345 Q 243 399 252 415 Q 260 430 263 439 Q 263 444 261 448 Q 255 458 218 477 Q 202 482 197 481 Q 191 480 178 471 Q 153 452 110 442 L 82 437 C 52 432 65 403 94 411 L 164 430 Q 180 435 184 431 Q 188 427 185 403 Q 182 379 182 375 L 176 283 C 174 253 211 250 217 279 Z" fill="black"></path>
				<path d="M 115 236 L 213 250 L 235 252 Q 239 252 235 258 L 219 273 Q 217 277 217 279 C 214 291 205 289 176 283 L 112 270 C 83 264 85 232 115 236 Z" fill="black"></path>
				<path d="M 437 452 L 520 472 Q 536 475 537 479 Q 542 480 540 486 Q 538 491 533 495 Q 525 500 509 506 Q 492 512 489 512 Q 486 512 477 508 Q 467 503 440 497 L 387 483 L 300 468 Q 295 463 295 459 Q 295 455 314 445 Q 332 434 389 443 L 437 452 Z" fill="black"></path>
				<path d="M 434 367 L 437 452 L 440 497 L 443 550 Q 444 559 444 576 L 447 601 Q 448 607 454 620 Q 460 633 458 638 Q 453 653 421 662 Q 388 670 377 669 Q 363 665 368 652 L 377 633 Q 383 619 384 604 Q 384 588 387 562 L 387 483 L 389 443 L 389 357 C 389 327 433 337 434 367 Z" fill="black"></path>
				<path d="M 439 329 L 546 354 Q 577 361 557 374 Q 549 379 537 382 L 508 387 L 434 367 L 389 357 L 349 349 Q 310 341 300 340 L 266 334 Q 254 332 254 326 Q 254 320 264 314 Q 273 307 289 306 L 309 303 L 356 312 L 406 321 L 439 329 Z" fill="black"></path>
				<path d="M 309 303 L 313 288 Q 316 275 316 257 L 314 215 Q 313 152 291 93 L 272 42 Q 268 32 264 19 Q 260 5 269 -27 Q 273 -61 289 -61 Q 301 -61 317 -19 L 321 -7 Q 338 44 359 188 L 362 235 L 368 265 Q 370 280 373 286 Q 375 291 371 300 L 356 312 C 333 331 301 332 309 303 Z" fill="black"></path>
				<path d="M 397 -24 Q 380 -24 372 -23 L 348 -21 Q 340 -20 339 -23 Q 337 -26 342 -30 L 360 -43 L 384 -65 Q 404 -84 410 -94 Q 416 -104 420 -104 Q 427 -108 440 -92 Q 454 -79 458 -59 Q 468 -25 465 25 L 463 184 L 463 207 L 463 236 Q 462 237 464 261 Q 466 285 470 294 Q 473 303 473 310 Q 473 317 439 329 C 411 340 393 346 406 321 L 414 305 Q 423 265 423 145 L 422 38 L 420 6 Q 418 -26 397 -24 Z" fill="black"></path>
				<path d="M 264 213 Q 260 214 256 209 Q 252 204 244 190 Q 235 175 208 146 Q 180 117 176 96 Q 172 74 190 72 Q 221 66 247 109 Q 262 139 265 157 Q 276 211 264 213 Z" fill="black"></path>
				<path d="M 463 184 L 485 145 Q 490 135 498 130 Q 517 116 526 135 Q 529 144 529 155 Q 526 181 512 189 Q 497 197 463 207 C 447 212 448 210 463 184 Z" fill="black"></path>
				<path d="M 766 472 L 798 479 Q 819 484 830 488 L 863 499 Q 875 503 875 509 Q 876 513 869 520 Q 862 527 848 532 Q 833 537 828 537 L 817 533 Q 810 529 766 518 L 708 503 L 637 490 L 610 487 Q 595 485 606 474 Q 615 459 654 459 L 707 463 L 766 472 Z" fill="black"></path>
				<path d="M 760 375 L 766 472 L 766 518 L 770 594 Q 770 600 774 623 Q 777 645 784 659 Q 791 673 790 678 Q 785 697 744 707 L 718 713 Q 700 716 693 715 Q 676 713 686 694 L 696 675 Q 700 666 705 649 Q 709 632 709 571 L 708 503 L 707 463 L 705 362 C 704 332 758 345 760 375 Z" fill="red"></path>
				<path d="M 776 342 L 852 350 L 930 354 Q 956 356 957 363 Q 964 370 945 383 Q 925 396 913 401 Q 901 405 886 401 Q 870 396 849 392 L 760 375 L 705 362 L 654 352 Q 606 342 597 341 L 563 336 Q 548 333 547 329 Q 545 325 565 311 Q 585 296 593 298 Q 601 299 609 303 Q 616 306 627 308 Q 638 310 644 312 L 675 322 L 748 336 L 776 342 Z" fill="lightgray"></path>
				<path d="M 644 312 L 654 300 Q 664 278 664 257 L 664 216 Q 664 150 643 98 Q 622 45 609 -6 Q 604 -20 613 -51 Q 617 -84 633 -84 Q 645 -84 661 -41 L 667 -22 Q 690 60 698 123 L 711 237 L 713 267 L 716 278 Q 721 305 720 307 L 675 322 C 647 331 625 335 644 312 Z" fill="lightgray"></path>
				<path d="M 819 259 L 824 303 Q 827 316 826 320 Q 826 329 776 342 C 747 350 739 352 748 336 L 760 314 Q 764 308 768 274 Q 772 239 772 193 L 772 59 L 770 -7 Q 770 -40 758 -50 Q 749 -56 704 -45 L 692 -41 Q 686 -41 682 -45 Q 681 -48 688 -55 L 703 -68 Q 727 -93 745 -119 Q 762 -145 772 -141 Q 788 -139 806 -115 Q 828 -81 828 -34 Q 828 13 824 62 L 821 117 L 819 259 Z" fill="lightgray"></path>
				<path d="M 615 211 Q 611 212 608 207 Q 604 202 596 188 Q 587 173 559 144 Q 531 115 528 94 Q 524 72 542 70 Q 573 64 599 107 Q 614 137 617 155 Q 627 209 615 211 Z" fill="lightgray"></path>
				<path d="M 945 68 Q 962 64 965 107 Q 968 130 956 152 Q 944 174 899 194 L 860 209 Q 850 212 843 211 Q 835 210 834 209 Q 833 200 863 156 L 899 104 Q 925 68 945 68 Z" fill="lightgray"></path>
</g>
		<text x="40" y="140" font-size="128" fill="#999999">12</text></g>
		<g id="id2:id2:id2" transform="matrix(1.0,0,0,1.0,2048,0.0)">			<g stroke="lightgray" stroke-width="4" transform="scale(4, 4)"> <rect x="0" y="0" width="256" height="256" fill="white" stroke-width="4"/></g>
			<g transform="scale(0.92, -0.92) translate(60, -920)">					<path d="M 82 437 L 61 442 Q 37 452 33 438 Q 33 432 37 425 L 46 412 Q 55 395 65 349 L 74 268 Q 79 232 92 216 Q 95 211 101 213 Q 107 214 111 220 Q 114 227 115 236 L 112 270 L 94 411 C 91 435 91 435 82 437 Z" fill="black"></path>
				<path d="M 217 279 L 231 345 Q 243 399 252 415 Q 260 430 263 439 Q 263 444 261 448 Q 255 458 218 477 Q 202 482 197 481 Q 191 480 178 471 Q 153 452 110 442 L 82 437 C 52 432 65 403 94 411 L 164 430 Q 180 435 184 431 Q 188 427 185 403 Q 182 379 182 375 L 176 283 C 174 253 211 250 217 279 Z" fill="black"></path>
				<path d="M 115 236 L 213 250 L 235 252 Q 239 252 235 258 L 219 273 Q 217 277 217 279 C 214 291 205 289 176 283 L 112 270 C 83 264 85 232 115 236 Z" fill="black"></path>
				<path d="M 437 452 L 520 472 Q 536 475 537 479 Q 542 480 540 486 Q 538 491 533 495 Q 525 500 509 506 Q 492 512 489 512 Q 486 512 477 508 Q 467 503 440 497 L 387 483 L 300 468 Q 295 463 295 459 Q 295 455 314 445 Q 332 434 389 443 L 437 452 Z" fill="black"></path>
				<path d="M 434 367 L 437 452 L 440 497 L 443 550 Q 444 559 444 576 L 447 601 Q 448 607 454 620 Q 460 633 458 638 Q 453 653 421 662 Q 388 670 377 669 Q 363 665 368 652 L 377 633 Q 383 619 384 604 Q 384 588 387 562 L 387 483 L 389 443 L 389 357 C 389 327 433 337 434 367 Z" fill="black"></path>
				<path d="M 439 329 L 546 354 Q 577 361 557 374 Q 549 379 537 382 L 508 387 L 434 367 L 389 357 L 349 349 Q 310 341 300 340 L 266 334 Q 254 332 254 326 Q 254 320 264 314 Q 273 307 289 306 L 309 303 L 356 312 L 406 321 L 439 329 Z" fill="black"></path>
				<path d="M 309 303 L 313 288 Q 316 275 316 257 L 314 215 Q 313 152 291 93 L 272 42 Q 268 32 264 19 Q 260 5 269 -27 Q 273 -61 289 -61 Q 301 -61 317 -19 L 321 -7 Q 338 44 359 188 L 362 235 L 368 265 Q 370 280 373 286 Q 375 291 371 300 L 356 312 C 333 331 301 332 309 303 Z" fill="black"></path>
				<path d="M 397 -24 Q 380 -24 372 -23 L 348 -21 Q 340 -20 339 -23 Q 337 -26 342 -30 L 360 -43 L 384 -65 Q 404 -84 410 -94 Q 416 -104 420 -104 Q 427 -108 440 -92 Q 454 -79 458 -59 Q 468 -25 465 25 L 463 184 L 463 207 L 463 236 Q 462 237 464 261 Q 466 285 470 294 Q 473 303 473 310 Q 473 317 439 329 C 411 340 393 346 406 321 L 414 305 Q 423 265 423 145 L 422 38 L 420 6 Q 418 -26 397 -24 Z" fill="black"></path>
				<path d="M 264 213 Q 260 214 256 209 Q 252 204 244 190 Q 235 175 208 146 Q 180 117 176 96 Q 172 74 190 72 Q 221 66 247 109 Q 262 139 265 157 Q 276 211 264 213 Z" fill="black"></path>
				<path d="M 463 184 L 485 145 Q 490 135 498 130 Q 517 116 526 135 Q 529 144 529 155 Q 526 181 512 189 Q 497 197 463 207 C 447 212 448 210 463 184 Z" fill="black"></path>
				<path d="M 766 472 L 798 479 Q 819 484 830 488 L 863 499 Q 875 503 875 509 Q 876 513 869 520 Q 862 527 848 532 Q 833 537 828 537 L 817 533 Q 810 529 766 518 L 708 503 L 637 490 L 610 487 Q 595 485 606 474 Q 615 459 654 459 L 707 463 L 766 472 Z" fill="black"></path>
				<path d="M 760 375 L 766 472 L 766 518 L 770 594 Q 770 600 774 623 Q 777 645 784 659 Q 791 673 790 678 Q 785 697 744 707 L 718 713 Q 700 716 693 715 Q 676 713 686 694 L 696 675 Q 700 666 705 649 Q 709 632 709 571 L 708 503 L 707 463 L 705 362 C 704 332 758 345 760 375 Z" fill="black"></path>
				<path d="M 776 342 L 852 350 L 930 354 Q 956 356 957 363 Q 964 370 945 383 Q 925 396 913 401 Q 901 405 886 401 Q 870 396 849 392 L 760 375 L 705 362 L 654 352 Q 606 342 597 341 L 563 336 Q 548 333 547 329 Q 545 325 565 311 Q 585 296 593 298 Q 601 299 609 303 Q 616 306 627 308 Q 638 310 644 312 L 675 322 L 748 336 L 776 342 Z" fill="red"></path>
				<path d="M 644 312 L 654 300 Q 664 278 664 257 L 664 216 Q 664 150 643 98 Q 622 45 609 -6 Q 604 -20 613 -51 Q 617 -84 633 -84 Q 645 -84 661 -41 L 667 -22 Q 690 60 698 123 L 711 237 L 713 267 L 716 278 Q 721 305 720 307 L 675 322 C 647 331 625 335 644 312 Z" fill="lightgray"></path>
				<path d="M 819 259 L 824 303 Q 827 316 826 320 Q 826 329 776 342 C 747 350 739 352 748 336 L 760 314 Q 764 308 768 274 Q 772 239 772 193 L 772 59 L 770 -7 Q 770 -40 758 -50 Q 749 -56 704 -45 L 692 -41 Q 686 -41 682 -45 Q 681 -48 688 -55 L 703 -68 Q 727 -93 745 -119 Q 762 -145 772 -141 Q 788 -139 806 -115 Q 828 -81 828 -34 Q 828 13 824 62 L 821 117 L 819 259 Z" fill="lightgray"></path>
				<path d="M 615 211 Q 611 212 608 207 Q 604 202 596 188 Q 587 173 559 144 Q 531 115 528 94 Q 524 72 542 70 Q 573 64 599 107 Q 614 137 617 155 Q 627 209 615 211 Z" fill="lightgray"></path>
				<path d="M 945 68 Q 962 64 965 107 Q 968 130 956 152 Q 944 174 899 194 L 860 209 Q 850 212 843 211 Q 835 210 834 209 Q 833 200 863 156 L 899 104 Q 925 68 945 68 Z" fill="lightgray"></path>
</g>
		<text x="40" y="140" font-size="128" fill="#999999">13</text></g>
		<g id="id2:id3:id3" transform="matrix(1.0,0,0,1.0,3072,0.0)">			<g stroke="lightgray" stroke-width="4" transform="scale(4, 4)"> <rect x="0" y="0" width="256" height="256" fill="white" stroke-width="4"/></g>
			<g transform="scale(0.92, -0.92) translate(60, -920)">					<path d="M 82 437 L 61 442 Q 37 452 33 438 Q 33 432 37 425 L 46 412 Q 55 395 65 349 L 74 268 Q 79 232 92 216 Q 95 211 101 213 Q 107 214 111 220 Q 114 227 115 236 L 112 270 L 94 411 C 91 435 91 435 82 437 Z" fill="black"></path>
				<path d="M 217 279 L 231 345 Q 243 399 252 415 Q 260 430 263 439 Q 263 444 261 448 Q 255 458 218 477 Q 202 482 197 481 Q 191 480 178 471 Q 153 452 110 442 L 82 437 C 52 432 65 403 94 411 L 164 430 Q 180 435 184 431 Q 188 427 185 403 Q 182 379 182 375 L 176 283 C 174 253 211 250 217 279 Z" fill="black"></path>
				<path d="M 115 236 L 213 250 L 235 252 Q 239 252 235 258 L 219 273 Q 217 277 217 279 C 214 291 205 289 176 283 L 112 270 C 83 264 85 232 115 236 Z" fill="black"></path>
				<path d="M 437 452 L 520 472 Q 536 475 537 479 Q 542 480 540 486 Q 538 491 533 495 Q 525 500 509 506 Q 492 512 489 512 Q 486 512 477 508 Q 467 503 440 497 L 387 483 L 300 468 Q 295 463 295 459 Q 295 455 314 445 Q 332 434 389 443 L 437 452 Z" fill="black"></path>
				<path d="M 434 367 L 437 452 L 440 497 L 443 550 Q 444 559 444 576 L 447 601 Q 448 607 454 620 Q 460 633 458 638 Q 453 653 421 662 Q 388 670 377 669 Q 363 665 368 652 L 377 633 Q 383 619 384 604 Q 384 588 387 562 L 387 483 L 389 443 L 389 357 C 389 327 433 337 434 367 Z" fill="black"></path>
				<path d="M 439 329 L 546 354 Q 577 361 557 374 Q 549 379 537 382 L 508 387 L 434 367 L 389 357 L 349 349 Q 310 341 300 340 L 266 334 Q 254 332 254 326 Q 254 320 264 314 Q 273 307 289 306 L 309 303 L 356 312 L 406 321 L 439 329 Z" fill="black"></path>
				<path d="M 309 303 L 313 288 Q 316 275 316 257 L 314 215 Q 313 152 291 93 L 272 42 Q 268 32 264 19 Q 260 5 269 -27 Q 273 -61 289 -61 Q 301 -61 317 -19 L 321 -7 Q 338 44 359 188 L 362 235 L 368 265 Q 370 280 373 286 Q 375 291 371 300 L 356 312 C 333 331 301 332 309 303 Z" fill="black"></path>
				<path d="M 397 -24 Q 380 -24 372 -23 L 348 -21 Q 340 -20 339 -23 Q 337 -26 342 -30 L 360 -43 L 384 -65 Q 404 -84 410 -94 Q 416 -104 420 -104 Q 427 -108 440 -92 Q 454 -79 458 -59 Q 468 -25 465 25 L 463 184 L 463 207 L 463 236 Q 462 237 464 261 Q 466 285 470 294 Q 473 303 473 310 Q 473 317 439 329 C 411 340 393 346 406 321 L 414 305 Q 423 265 423 145 L 422 38 L 420 6 Q 418 -26 397 -24 Z" fill="black"></path>
				<path d="M 264 213 Q 260 214 256 209 Q 252 204 244 190 Q 235 175 208 146 Q 180 117 176 96 Q 172 74 190 72 Q 221 66 247 109 Q 262 139 265 157 Q 276 211 264 213 Z" fill="black"></path>
				<path d="M 463 184 L 485 145 Q 490 135 498 130 Q 517 116 526 135 Q 529 144 529 155 Q 526 181 512 189 Q 497 197 463 207 C 447 212 448 210 463 184 Z" fill="black"></path>
				<path d="M 766 472 L 798 479 Q 819 484 830 488 L 863 499 Q 875 503 875 509 Q 876 513 869 520 Q 862 527 848 532 Q 833 537 828 537 L 817 533 Q 810 529 766 518 L 708 503 L 637 490 L 610 487 Q 595 485 606 474 Q 615 459 654 459 L 707 463 L 766 472 Z" fill="black"></path>
				<path d="M 760 375 L 766 472 L 766 518 L 770 594 Q 770 600 774 623 Q 777 645 784 659 Q 791 673 790 678 Q 785 697 744 707 L 718 713 Q 700 716 693 715 Q 676 713 686 694 L 696 675 Q 700 666 705 649 Q 709 632 709 571 L 708 503 L 707 463 L 705 362 C 704 332 758 345 760 375 Z" fill="black"></path>
				<path d="M 776 342 L 852 350 L 930 354 Q 956 356 957 363 Q 964 370 945 383 Q 925 396 913 401 Q 901 405 886 401 Q 870 396 849 392 L 760 375 L 705 362 L 654 352 Q 606 342 597 341 L 563 336 Q 548 333 547 329 Q 545 325 565 311 Q 585 296 593 298 Q 601 299 609 303 Q 616 306 627 308 Q 638 310 644 312 L 675 322 L 748 336 L 776 342 Z" fill="black"></path>
				<path d="M 644 312 L 654 300 Q 664 278 664 257 L 664 216 Q 664 150 643 98 Q 622 45 609 -6 Q 604 -20 613 -51 Q 617 -84 633 -84 Q 645 -84 661 -41 L 667 -22 Q 690 60 698 123 L 711 237 L 713 267 L 716 278 Q 721 305 720 307 L 675 322 C 647 331 625 335 644 312 Z" fill="red"></path>
				<path d="M 819 259 L 824 303 Q 827 316 826 320 Q 826 329 776 342 C 747 350 739 352 748 336 L 760 314 Q 764 308 768 274 Q 772 239 772 193 L 772 59 L 770 -7 Q 770 -40 758 -50 Q 749 -56 704 -45 L 692 -41 Q 686 -41 682 -45 Q 681 -48 688 -55 L 703 -68 Q 727 -93 745 -119 Q 762 -145 772 -141 Q 788 -139 806 -115 Q 828 -81 828 -34 Q 828 13 824 62 L 821 117 L 819 259 Z" fill="lightgray"></path>
				<path d="M 615 211 Q 611 212 608 207 Q 604 202 596 188 Q 587 173 559 144 Q 531 115 528 94 Q 524 72 542 70 Q 573 64 599 107 Q 614 137 617 155 Q 627 209 615 211 Z" fill="lightgray"></path>
				<path d="M 945 68 Q 962 64 965 107 Q 968 130 956 152 Q 944 174 899 194 L 860 209 Q 850 212 843 211 Q 835 210 834 209 Q 833 200 863 156 L 899 104 Q 925 68 945 68 Z" fill="lightgray"></path>
</g>
		<text x="40" y="140" font-size="128" fill="#999999">14</text></g>
		<g id="id2:id4:id4" transform="matrix(1.0,0,0,1.0,4096,0.0)">			<g stroke="lightgray" stroke-width="4" transform="scale(4, 4)"> <rect x="0" y="0" width="256" height="256" fill="white" stroke-width="4"/></g>
			<g transform="scale(0.92, -0.92) translate(60, -920)">					<path d="M 82 437 L 61 442 Q 37 452 33 438 Q 33 432 37 425 L 46 412 Q 55 395 65 349 L 74 268 Q 79 232 92 216 Q 95 211 101 213 Q 107 214 111 220 Q 114 227 115 236 L 112 270 L 94 411 C 91 435 91 435 82 437 Z" fill="black"></path>
				<path d="M 217 279 L 231 345 Q 243 399 252 415 Q 260 430 263 439 Q 263 444 261 448 Q 255 458 218 477 Q 202 482 197 481 Q 191 480 178 471 Q 153 452 110 442 L 82 437 C 52 432 65 403 94 411 L 164 430 Q 180 435 184 431 Q 188 427 185 403 Q 182 379 182 375 L 176 283 C 174 253 211 250 217 279 Z" fill="black"></path>
				<path d="M 115 236 L 213 250 L 235 252 Q 239 252 235 258 L 219 273 Q 217 277 217 279 C 214 291 205 289 176 283 L 112 270 C 83 264 85 232 115 236 Z" fill="black"></path>
				<path d="M 437 452 L 520 472 Q 536 475 537 479 Q 542 480 540 486 Q 538 491 533 495 Q 525 500 509 506 Q 492 512 489 512 Q 486 512 477 508 Q 467 503 440 497 L 387 483 L 300 468 Q 295 463 295 459 Q 295 455 314 445 Q 332 434 389 443 L 437 452 Z" fill="black"></path>
				<path d="M 434 367 L 437 452 L 440 497 L 443 550 Q 444 559 444 576 L 447 601 Q 448 607 454 620 Q 460 633 458 638 Q 453 653 421 662 Q 388 670 377 669 Q 363 665 368 652 L 377 633 Q 383 619 384 604 Q 384 588 387 562 L 387 483 L 389 443 L 389 357 C 389 327 433 337 434 367 Z" fill="black"></path>
				<path d="M 439 329 L 546 354 Q 577 361 557 374 Q 549 379 537 382 L 508 387 L 434 367 L 389 357 L 349 349 Q 310 341 300 340 L 266 334 Q 254 332 254 326 Q 254 320 264 314 Q 273 307 289 306 L 309 303 L 356 312 L 406 321 L 439 329 Z" fill="black"></path>
				<path d="M 309 303 L 313 288 Q 316 275 316 257 L 314 215 Q 313 152 291 93 L 272 42 Q 268 32 264 19 Q 260 5 269 -27 Q 273 -61 289 -61 Q 301 -61 317 -19 L 321 -7 Q 338 44 359 188 L 362 235 L 368 265 Q 370 280 373 286 Q 375 291 371 300 L 356 312 C 333 331 301 332 309 303 Z" fill="black"></path>
				<path d="M 397 -24 Q 380 -24 372 -23 L 348 -21 Q 340 -20 339 -23 Q 337 -26 342 -30 L 360 -43 L 384 -65 Q 404 -84 410 -94 Q 416 -104 420 -104 Q 427 -108 440 -92 Q 454 -79 458 -59 Q 468 -25 465 25 L 463 184 L 463 207 L 463 236 Q 462 237 464 261 Q 466 285 470 294 Q 473 303 473 310 Q 473 317 439 329 C 411 340 393 346 406 321 L 414 305 Q 423 265 423 145 L 422 38 L 420 6 Q 418 -26 397 -24 Z" fill="black"></path>
				<path d="M 264 213 Q 260 214 256 209 Q 252 204 244 190 Q 235 175 208 146 Q 180 117 176 96 Q 172 74 190 72 Q 221 66 247 109 Q 262 139 265 157 Q 276 211 264 213 Z" fill="black"></path>
				<path d="M 463 184 L 485 145 Q 490 135 498 130 Q 517 116 526 135 Q 529 144 529 155 Q 526 181 512 189 Q 497 197 463 207 C 447 212 448 210 463 184 Z" fill="black"></path>
				<path d="M 766 472 L 798 479 Q 819 484 830 488 L 863 499 Q 875 503 875 509 Q 876 513 869 520 Q 862 527 848 532 Q 833 537 828 537 L 817 533 Q 810 529 766 518 L 708 503 L 637 490 L 610 487 Q 595 485 606 474 Q 615 459 654 459 L 707 463 L 766 472 Z" fill="black"></path>
				<path d="M 760 375 L 766 472 L 766 518 L 770 594 Q 770 600 774 623 Q 777 645 784 659 Q 791 673 790 678 Q 785 697 744 707 L 718 713 Q 700 716 693 715 Q 676 713 686 694 L 696 675 Q 700 666 705 649 Q 709 632 709 571 L 708 503 L 707 463 L 705 362 C 704 332 758 345 760 375 Z" fill="black"></path>
				<path d="M 776 342 L 852 350 L 930 354 Q 956 356 957 363 Q 964 370 945 383 Q 925 396 913 401 Q 901 405 886 401 Q 870 396 849 392 L 760 375 L 705 362 L 654 352 Q 606 342 597 341 L 563 336 Q 548 333 547 329 Q 545 325 565 311 Q 585 296 593 298 Q 601 299 609 303 Q 616 306 627 308 Q 638 310 644 312 L 675 322 L 748 336 L 776 342 Z" fill="black"></path>
				<path d="M 644 312 L 654 300 Q 664 278 664 257 L 664 216 Q 664 150 643 98 Q 622 45 609 -6 Q 604 -20 613 -51 Q 617 -84 633 -84 Q 645 -84 661 -41 L 667 -22 Q 690 60 698 123 L 711 237 L 713 267 L 716 278 Q 721 305 720 307 L 675 322 C 647 331 625 335 644 312 Z" fill="black"></path>
				<path d="M 819 259 L 824 303 Q 827 316 826 320 Q 826 329 776 342 C 747 350 739 352 748 336 L 760 314 Q 764 308 768 274 Q 772 239 772 193 L 772 59 L 770 -7 Q 770 -40 758 -50 Q 749 -56 704 -45 L 692 -41 Q 686 -41 682 -45 Q 681 -48 688 -55 L 703 -68 Q 727 -93 745 -119 Q 762 -145 772 -141 Q 788 -139 806 -115 Q 828 -81 828 -34 Q 828 13 824 62 L 821 117 L 819 259 Z" fill="red"></path>
				<path d="M 615 211 Q 611 212 608 207 Q 604 202 596 188 Q 587 173 559 144 Q 531 115 528 94 Q 524 72 542 70 Q 573 64 599 107 Q 614 137 617 155 Q 627 209 615 211 Z" fill="lightgray"></path>
				<path d="M 945 68 Q 962 64 965 107 Q 968 130 956 152 Q 944 174 899 194 L 860 209 Q 850 212 843 211 Q 835 210 834 209 Q 833 200 863 156 L 899 104 Q 925 68 945 68 Z" fill="lightgray"></path>
</g>
		<text x="40" y="140" font-size="128" fill="#999999">15</text></g>
</g>
	<g id="id3:id3" transform="translate(0.0,3072)">
		<g id="id3:id0:id0" transform="matrix(1.0,0,0,1.0,0,0.0)">			<g stroke="lightgray" stroke-width="4" transform="scale(4, 4)"> <rect x="0" y="0" width="256" height="256" fill="white" stroke-width="4"/></g>
			<g transform="scale(0.92, -0.92) translate(60, -920)">					<path d="M 82 437 L 61 442 Q 37 452 33 438 Q 33 432 37 425 L 46 412 Q 55 395 65 349 L 74 268 Q 79 232 92 216 Q 95 211 101 213 Q 107 214 111 220 Q 114 227 115 236 L 112 270 L 94 411 C 91 435 91 435 82 437 Z" fill="black"></path>
				<path d="M 217 279 L 231 345 Q 243 399 252 415 Q 260 430 263 439 Q 263 444 261 448 Q 255 458 218 477 Q 202 482 197 481 Q 191 480 178 471 Q 153 452 110 442 L 82 437 C 52 432 65 403 94 411 L 164 430 Q 180 435 184 431 Q 188 427 185 403 Q 182 379 182 375 L 176 283 C 174 253 211 250 217 279 Z" fill="black"></path>
				<path d="M 115 236 L 213 250 L 235 252 Q 239 252 235 258 L 219 273 Q 217 277 217 279 C 214 291 205 289 176 283 L 112 270 C 83 264 85 232 115 236 Z" fill="black"></path>
				<path d="M 437 452 L 520 472 Q 536 475 537 479 Q 542 480 540 486 Q 538 491 533 495 Q 525 500 509 506 Q 492 512 489 512 Q 486 512 477 508 Q 467 503 440 497 L 387 483 L 300 468 Q 295 463 295 459 Q 295 455 314 445 Q 332 434 389 443 L 437 452 Z" fill="black"></path>
				<path d="M 434 367 L 437 452 L 440 497 L 443 550 Q 444 559 444 576 L 447 601 Q 448 607 454 620 Q 460 633 458 638 Q 453 653 421 662 Q 388 670 377 669 Q 363 665 368 652 L 377 633 Q 383 619 384 604 Q 384 588 387 562 L 387 483 L 389 443 L 389 357 C 389 327 433 337 434 367 Z" fill="black"></path>
				<path d="M 439 329 L 546 354 Q 577 361 557 374 Q 549 379 537 382 L 508 387 L 434 367 L 389 357 L 349 349 Q 310 341 300 340 L 266 334 Q 254 332 254 326 Q 254 320 264 314 Q 273 307 289 306 L 309 303 L 356 312 L 406 321 L 439 329 Z" fill="black"></path>
				<path d="M 309 303 L 313 288 Q 316 275 316 257 L 314 215 Q 313 152 291 93 L 272 42 Q 268 32 264 19 Q 260 5 269 -27 Q 273 -61 289 -61 Q 301 -61 317 -19 L 321 -7 Q 338 44 359 188 L 362 235 L 368 265 Q 370 280 373 286 Q 375 291 371 300 L 356 312 C 333 331 301 332 309 303 Z" fill="black"></path>
				<path d="M 397 -24 Q 380 -24 372 -23 L 348 -21 Q 340 -20 339 -23 Q 337 -26 342 -30 L 360 -43 L 384 -65 Q 404 -84 410 -94 Q 416 -104 420 -104 Q 427 -108 440 -92 Q 454 -79 458 -59 Q 468 -25 465 25 L 463 184 L 463 207 L 463 236 Q 462 237 464 261 Q 466 285 470 294 Q 473 303 473 310 Q 473 317 439 329 C 411 340 393 346 406 321 L 414 305 Q 423 265 423 145 L 422 38 L 420 6 Q 418 -26 397 -24 Z" fill="black"></path>
				<path d="M 264 213 Q 260 214 256 209 Q 252 204 244 190 Q 235 175 208 146 Q 180 117 176 96 Q 172 74 190 72 Q 221 66 247 109 Q 262 139 265 157 Q 276 211 264 213 Z" fill="black"></path>
				<path d="M 463 184 L 485 145 Q 490 135 498 130 Q 517 116 526 135 Q 529 144 529 155 Q 526 181 512 189 Q 497 197 463 207 C 447 212 448 210 463 184 Z" fill="black"></path>
				<path d="M 766 472 L 798 479 Q 819 484 830 488 L 863 499 Q 875 503 875 509 Q 876 513 869 520 Q 862 527 848 532 Q 833 537 828 537 L 817 533 Q 810 529 766 518 L 708 503 L 637 490 L 610 487 Q 595 485 606 474 Q 615 459 654 459 L 707 463 L 766 472 Z" fill="black"></path>
				<path d="M 760 375 L 766 472 L 766 518 L 770 594 Q 770 600 774 623 Q 777 645 784 659 Q 791 673 790 678 Q 785 697 744 707 L 718 713 Q 700 716 693 715 Q 676 713 686 694 L 696 675 Q 700 666 705 649 Q 709 632 709 571 L 708 503 L 707 463 L 705 362 C 704 332 758 345 760 375 Z" fill="black"></path>
				<path d="M 776 342 L 852 350 L 930 354 Q 956 356 957 363 Q 964 370 945 383 Q 925 396 913 401 Q 901 405 886 401 Q 870 396 849 392 L 760 375 L 705 362 L 654 352 Q 606 342 597 341 L 563 336 Q 548 333 547 329 Q 545 325 565 311 Q 585 296 593 298 Q 601 299 609 303 Q 616 306 627 308 Q 638 310 644 312 L 675 322 L 748 336 L 776 342 Z" fill="black"></path>
				<path d="M 644 312 L 654 300 Q 664 278 664 257 L 664 216 Q 664 150 643 98 Q 622 45 609 -6 Q 604 -20 613 -51 Q 617 -84 633 -84 Q 645 -84 661 -41 L 667 -22 Q 690 60 698 123 L 711 237 L 713 267 L 716 278 Q 721 305 720 307 L 675 322 C 647 331 625 335 644 312 Z" fill="black"></path>
				<path d="M 819 259 L 824 303 Q 827 316 826 320 Q 826 329 776 342 C 747 350 739 352 748 336 L 760 314 Q 764 308 768 274 Q 772 239 772 193 L 772 59 L 770 -7 Q 770 -40 758 -50 Q 749 -56 704 -45 L 692 -41 Q 686 -41 682 -45 Q 681 -48 688 -55 L 703 -68 Q 727 -93 745 -119 Q 762 -145 772 -141 Q 788 -139 806 -115 Q 828 -81 828 -34 Q 828 13 824 62 L 821 117 L 819 259 Z" fill="black"></path>
				<path d="M 615 211 Q 611 212 608 207 Q 604 202 596 188 Q 587 173 559 144 Q 531 115 528 94 Q 524 72 542 70 Q 573 64 599 107 Q 614 137 617 155 Q 627 209 615 211 Z" fill="red"></path>
				<path d="M 945 68 Q 962 64 965 107 Q 968 130 956 152 Q 944 174 899 194 L 860 209 Q 850 212 843 211 Q 835 210 834 209 Q 833 200 863 156 L 899 104 Q 925 68 945 68 Z" fill="lightgray"></path>
</g>
		<text x="40" y="140" font-size="128" fill="#999999">16</text></g>
		<g id="id3:id1:id1" transform="matrix(1.0,0,0,1.0,1024,0.0)">			<g stroke="lightgray" stroke-width="4" transform="scale(4, 4)"> <rect x="0" y="0" width="256" height="256" fill="white" stroke-width="4"/></g>
			<g transform="scale(0.92, -0.92) translate(60, -920)">					<path d="M 82 437 L 61 442 Q 37 452 33 438 Q 33 432 37 425 L 46 412 Q 55 395 65 349 L 74 268 Q 79 232 92 216 Q 95 211 101 213 Q 107 214 111 220 Q 114 227 115 236 L 112 270 L 94 411 C 91 435 91 435 82 437 Z" fill="black"></path>
				<path d="M 217 279 L 231 345 Q 243 399 252 415 Q 260 430 263 439 Q 263 444 261 448 Q 255 458 218 477 Q 202 482 197 481 Q 191 480 178 471 Q 153 452 110 442 L 82 437 C 52 432 65 403 94 411 L 164 430 Q 180 435 184 431 Q 188 427 185 403 Q 182 379 182 375 L 176 283 C 174 253 211 250 217 279 Z" fill="black"></path>
				<path d="M 115 236 L 213 250 L 235 252 Q 239 252 235 258 L 219 273 Q 217 277 217 279 C 214 291 205 289 176 283 L 112 270 C 83 264 85 232 115 236 Z" fill="black"></path>
				<path d="M 437 452 L 520 472 Q 536 475 537 479 Q 542 480 540 486 Q 538 491 533 495 Q 525 500 509 506 Q 492 512 489 512 Q 486 512 477 508 Q 467 503 440 497 L 387 483 L 300 468 Q 295 463 295 459 Q 295 455 314 445 Q 332 434 389 443 L 437 452 Z" fill="black"></path>
				<path d="M 434 367 L 437 452 L 440 497 L 443 550 Q 444 559 444 576 L 447 601 Q 448 607 454 620 Q 460 633 458 638 Q 453 653 421 662 Q 388 670 377 669 Q 363 665 368 652 L 377 633 Q 383 619 384 604 Q 384 588 387 562 L 387 483 L 389 443 L 389 357 C 389 327 433 337 434 367 Z" fill="black"></path>
				<path d="M 439 329 L 546 354 Q 577 361 557 374 Q 549 379 537 382 L 508 387 L 434 367 L 389 357 L 349 349 Q 310 341 300 340 L 266 334 Q 254 332 254 326 Q 254 320 264 314 Q 273 307 289 306 L 309 303 L 356 312 L 406 321 L 439 329 Z" fill="black"></path>
				<path d="M 309 303 L 313 288 Q 316 275 316 257 L 314 215 Q 313 152 291 93 L 272 42 Q 268 32 264 19 Q 260 5 269 -27 Q 273 -61 289 -61 Q 301 -61 317 -19 L 321 -7 Q 338 44 359 188 L 362 235 L 368 265 Q 370 280 373 286 Q 375 291 371 300 L 356 312 C 333 331 301 332 309 303 Z" fill="black"></path>
				<path d="M 397 -24 Q 380 -24 372 -23 L 348 -21 Q 340 -20 339 -23 Q 337 -26 342 -30 L 360 -43 L 384 -65 Q 404 -84 410 -94 Q 416 -104 420 -104 Q 427 -108 440 -92 Q 454 -79 458 -59 Q 468 -25 465 25 L 463 184 L 463 207 L 463 236 Q 462 237 464 261 Q 466 285 470 294 Q 473 303 473 310 Q 473 317 439 329 C 411 340 393 346 406 321 L 414 305 Q 423 265 423 145 L 422 38 L 420 6 Q 418 -26 397 -24 Z" fill="black"></path>
				<path d="M 264 213 Q 260 214 256 209 Q 252 204 244 190 Q 235 175 208 146 Q 180 117 176 96 Q 172 74 190 72 Q 221 66 247 109 Q 262 139 265 157 Q 276 211 264 213 Z" fill="black"></path>
				<path d="M 463 184 L 485 145 Q 490 135 498 130 Q 517 116 526 135 Q 529 144 529 155 Q 526 181 512 189 Q 497 197 463 207 C 447 212 448 210 463 184 Z" fill="black"></path>
				<path d="M 766 472 L 798 479 Q 819 484 830 488 L 863 499 Q 875 503 875 509 Q 876 513 869 520 Q 862 527 848 532 Q 833 537 828 537 L 817 533 Q 810 529 766 518 L 708 503 L 637 490 L 610 487 Q 595 485 606 474 Q 615 459 654 459 L 707 463 L 766 472 Z" fill="black"></path>
				<path d="M 760 375 L 766 472 L 766 518 L 770 594 Q 770 600 774 623 Q 777 645 784 659 Q 791 673 790 678 Q 785 697 744 707 L 718 713 Q 700 716 693 715 Q 676 713 686 694 L 696 675 Q 700 666 705 649 Q 709 632 709 571 L 708 503 L 707 463 L 705 362 C 704 332 758 345 760 375 Z" fill="black"></path>
				<path d="M 776 342 L 852 350 L 930 354 Q 956 356 957 363 Q 964 370 945 383 Q 925 396 913 401 Q 901 405 886 401 Q 870 396 849 392 L 760 375 L 705 362 L 654 352 Q 606 342 597 341 L 563 336 Q 548 333 547 329 Q 545 325 565 311 Q 585 296 593 298 Q 601 299 609 303 Q 616 306 627 308 Q 638 310 644 312 L 675 322 L 748 336 L 776 342 Z" fill="black"></path>
				<path d="M 644 312 L 654 300 Q 664 278 664 257 L 664 216 Q 664 150 643 98 Q 622 45 609 -6 Q 604 -20 613 -51 Q 617 -84 633 -84 Q 645 -84 661 -41 L 667 -22 Q 690 60 698 123 L 711 237 L 713 267 L 716 278 Q 721 305 720 307 L 675 322 C 647 331 625 335 644 312 Z" fill="black"></path>
				<path d="M 819 259 L 824 303 Q 827 316 826 320 Q 826 329 776 342 C 747 350 739 352 748 336 L 760 314 Q 764 308 768 274 Q 772 239 772 193 L 772 59 L 770 -7 Q 770 -40 758 -50 Q 749 -56 704 -45 L 692 -41 Q 686 -41 682 -45 Q 681 -48 688 -55 L 703 -68 Q 727 -93 745 -119 Q 762 -145 772 -141 Q 788 -139 806 -115 Q 828 -81 828 -34 Q 828 13 824 62 L 821 117 L 819 259 Z" fill="black"></path>
				<path d="M 615 211 Q 611 212 608 207 Q 604 202 596 188 Q 587 173 559 144 Q 531 115 528 94 Q 524 72 542 70 Q 573 64 599 107 Q 614 137 617 155 Q 627 209 615 211 Z" fill="black"></path>
				<path d="M 945 68 Q 962 64 965 107 Q 968 130 956 152 Q 944 174 899 194 L 860 209 Q 850 212 843 211 Q 835 210 834 209 Q 833 200 863 156 L 899 104 Q 925 68 945 68 Z" fill="red"></path>
</g>
		<text x="40" y="140" font-size="128" fill="#999999">17</text></g>
		<g id="id3:id2:id2" transform="matrix(1.0,0,0,1.0,2048,0.0)">			<g stroke="white" stroke-width="4" transform="scale(4, 4)"> <rect x="1" y="1" width="255" height="255" fill="white" stroke-width="0"/></g>
</g>
		<g id="id3:id3:id3" transform="matrix(1.0,0,0,1.0,3072,0.0)">			<g stroke="white" stroke-width="4" transform="scale(4, 4)"> <rect x="1" y="1" width="255" height="255" fill="white" stroke-width="0"/></g>
</g>
		<g id="id3:id4:id4" transform="matrix(1.0,0,0,1.0,4096,0.0)">			<g stroke="white" stroke-width="4" transform="scale(4, 4)"> <rect x="1" y="1" width="255" height="255" fill="white" stroke-width="0"/></g>
</g>
</g>
</svg>
