<?xml version="1.0" standalone="no"?>
<!DOCTYPE svg PUBLIC "-//W3C//DTD SVG 1.1//EN"
 "http://www.w3.org/Graphics/SVG/1.1/DTD/svg11.dtd">
<!-- generate by Japanese dictionary app com.asnsami.kanjidictionary -->

<svg xmlns="http://www.w3.org/2000/svg" xmlns:sodipodi="http://sodipodi.sourceforge.net/DTD/sodipodi-0.dtd" version="1.1" width="640" height="384" viewBox="0 0 5120 3072">
	<g id="id0:id0" transform="translate(0.0,0)">
		<g id="id0:id0:id0" transform="matrix(1.0,0,0,1.0,0,0.0)">			<g stroke="lightgray" stroke-width="4" transform="scale(4, 4)"> <rect x="0" y="0" width="256" height="256" fill="white" stroke-width="4"/></g>
			<g transform="scale(0.92, -0.92) translate(60, -920)">					<path d="M 244 589 L 226 591 Q 208 589 214 573 L 223 554 Q 230 536 230 502 L 230 184 C 230 154 271 159 273 189 L 288 481 L 291 515 Q 296 534 300 545 Q 303 556 302 558 Q 300 569 280 576 Q 274 579 262 583 Q 249 587 244 589 Z" fill="red"></path>
				<path d="M 230 184 L 163 172 Q 136 163 135 182 L 134 207 L 145 264 L 151 287 Q 155 305 154 312 Q 152 318 148 322 Q 143 325 139 329 L 129 337 Q 122 342 107 346 Q 91 350 85 347 Q 72 341 83 326 Q 93 310 92 281 Q 95 231 89 210 L 80 180 Q 77 171 75 168 Q 66 158 66 153 Q 66 148 69 140 L 81 121 Q 94 104 101 102 L 106 102 Q 107 101 112 103 L 118 106 L 125 112 Q 130 117 141 123 Q 151 129 187 140 Q 222 150 251 154 L 349 164 C 379 167 380 200 350 197 L 273 189 L 230 184 Z" fill="lightgray"></path>
				<path d="M 349 164 L 348 142 Q 348 132 353 121 Q 358 110 366 110 Q 373 110 382 122 Q 390 134 394 167 L 411 297 Q 417 331 421 336 Q 427 350 426 355 Q 426 371 391 382 Q 356 393 346 387 Q 344 383 346 374 L 352 354 Q 356 332 354 301 L 350 197 L 349 164 Z" fill="lightgray"></path>
				<path d="M 508 585 L 594 588 Q 605 587 671 594 L 773 604 Q 828 608 842 611 L 887 618 Q 899 620 902 623 Q 905 625 905 635 Q 905 641 882 653 Q 859 664 840 664 Q 820 664 775 654 Q 729 643 556 625 L 428 616 Q 422 614 417 609 Q 411 604 424 597 Q 436 589 443 588 L 508 585 Z" fill="lightgray"></path>
				<path d="M 614 441 L 629 344 Q 630 332 634 326 L 643 317 Q 652 312 657 316 Q 661 320 667 339 L 665 368 L 653 469 C 650 494 650 494 641 496 L 611 504 Q 589 508 589 498 Q 585 495 598 480 Q 613 464 614 441 Z" fill="lightgray"></path>
				<path d="M 819 387 L 838 443 Q 844 464 857 479 Q 869 493 870 499 Q 870 504 859 511 Q 841 524 817 534 Q 798 538 795 537 Q 791 536 771 526 Q 743 511 680 502 L 641 496 C 611 491 623 468 653 469 L 674 470 Q 694 470 728 480 Q 762 490 773 488 Q 783 483 785 478 Q 786 473 783 454 L 772 395 C 767 366 809 359 819 387 Z" fill="lightgray"></path>
				<path d="M 667 339 L 738 351 Q 796 360 827 364 Q 847 369 831 378 Q 827 383 819 387 C 795 401 795 401 772 395 L 665 368 C 636 361 637 334 667 339 Z" fill="lightgray"></path>
				<path d="M 577 242 L 541 246 Q 527 246 530 233 Q 530 230 542 218 Q 554 206 558 182 L 572 92 Q 578 67 590 71 Q 596 72 607 93 C 607 94 607 92 603 119 L 589 219 C 586 241 586 241 577 242 Z" fill="lightgray"></path>
				<path d="M 689 136 L 697 194 Q 697 201 702 214 L 706 225 Q 709 232 709 235 Q 718 251 693 263 Q 667 274 661 274 Q 655 274 633 261 Q 611 248 577 242 C 548 236 561 209 589 219 Q 621 230 636 236 Q 649 236 651 234 Q 653 226 653 201 L 651 141 C 650 111 685 106 689 136 Z" fill="lightgray"></path>
				<path d="M 649 106 L 684 114 Q 701 116 701 120 Q 702 129 689 136 C 668 149 668 149 651 141 L 603 119 C 576 107 578 84 607 93 L 649 106 Z" fill="lightgray"></path>
				<path d="M 796 271 L 765 275 Q 750 276 747 274 Q 745 268 755 254 L 767 238 Q 771 233 774 202 L 781 127 Q 783 115 789 104 Q 794 92 802 92 Q 815 94 819 115 L 817 139 L 809 246 C 807 270 807 270 796 271 Z" fill="lightgray"></path>
				<path d="M 911 152 L 919 191 L 924 206 Q 930 229 940 247 Q 949 265 947 270 Q 947 276 935 284 L 910 296 Q 894 302 889 301 L 848 286 L 796 271 C 767 263 781 235 809 246 L 834 256 Q 873 265 876 261 Q 878 256 878 241 L 878 218 L 873 158 C 871 128 905 123 911 152 Z" fill="lightgray"></path>
				<path d="M 819 115 L 873 124 L 905 128 Q 942 131 911 152 C 892 165 892 165 873 158 L 855 151 Q 845 147 817 139 C 788 131 789 110 819 115 Z" fill="lightgray"></path>
				<path d="M 495 110 L 501 308 Q 502 363 507 402 L 516 499 Q 517 522 522 538 Q 527 553 527 560 Q 527 566 521 572 L 508 585 C 491 610 436 617 443 588 L 448 569 Q 449 567 452 547 Q 455 526 455 521 L 447 128 Q 445 4 516 -39 Q 567 -74 701 -69 L 739 -69 Q 755 -69 774 -67 L 801 -65 Q 809 -65 830 -63 L 858 -60 L 947 -46 Q 971 -42 977 -34 Q 983 -27 981 -18 Q 976 -1 920 12 Q 897 14 864 4 Q 830 -6 780 -12 Q 651 -25 581 -12 Q 536 -6 524 8 Q 511 21 503 39 Q 495 56 495 110 Z" fill="lightgray"></path>
</g>
		<text x="40" y="140" font-size="128" fill="#999999">1</text></g>
		<g id="id0:id1:id1" transform="matrix(1.0,0,0,1.0,1024,0.0)">			<g stroke="lightgray" stroke-width="4" transform="scale(4, 4)"> <rect x="0" y="0" width="256" height="256" fill="white" stroke-width="4"/></g>
			<g transform="scale(0.92, -0.92) translate(60, -920)">					<path d="M 244 589 L 226 591 Q 208 589 214 573 L 223 554 Q 230 536 230 502 L 230 184 C 230 154 271 159 273 189 L 288 481 L 291 515 Q 296 534 300 545 Q 303 556 302 558 Q 300 569 280 576 Q 274 579 262 583 Q 249 587 244 589 Z" fill="black"></path>
				<path d="M 230 184 L 163 172 Q 136 163 135 182 L 134 207 L 145 264 L 151 287 Q 155 305 154 312 Q 152 318 148 322 Q 143 325 139 329 L 129 337 Q 122 342 107 346 Q 91 350 85 347 Q 72 341 83 326 Q 93 310 92 281 Q 95 231 89 210 L 80 180 Q 77 171 75 168 Q 66 158 66 153 Q 66 148 69 140 L 81 121 Q 94 104 101 102 L 106 102 Q 107 101 112 103 L 118 106 L 125 112 Q 130 117 141 123 Q 151 129 187 140 Q 222 150 251 154 L 349 164 C 379 167 380 200 350 197 L 273 189 L 230 184 Z" fill="red"></path>
				<path d="M 349 164 L 348 142 Q 348 132 353 121 Q 358 110 366 110 Q 373 110 382 122 Q 390 134 394 167 L 411 297 Q 417 331 421 336 Q 427 350 426 355 Q 426 371 391 382 Q 356 393 346 387 Q 344 383 346 374 L 352 354 Q 356 332 354 301 L 350 197 L 349 164 Z" fill="lightgray"></path>
				<path d="M 508 585 L 594 588 Q 605 587 671 594 L 773 604 Q 828 608 842 611 L 887 618 Q 899 620 902 623 Q 905 625 905 635 Q 905 641 882 653 Q 859 664 840 664 Q 820 664 775 654 Q 729 643 556 625 L 428 616 Q 422 614 417 609 Q 411 604 424 597 Q 436 589 443 588 L 508 585 Z" fill="lightgray"></path>
				<path d="M 614 441 L 629 344 Q 630 332 634 326 L 643 317 Q 652 312 657 316 Q 661 320 667 339 L 665 368 L 653 469 C 650 494 650 494 641 496 L 611 504 Q 589 508 589 498 Q 585 495 598 480 Q 613 464 614 441 Z" fill="lightgray"></path>
				<path d="M 819 387 L 838 443 Q 844 464 857 479 Q 869 493 870 499 Q 870 504 859 511 Q 841 524 817 534 Q 798 538 795 537 Q 791 536 771 526 Q 743 511 680 502 L 641 496 C 611 491 623 468 653 469 L 674 470 Q 694 470 728 480 Q 762 490 773 488 Q 783 483 785 478 Q 786 473 783 454 L 772 395 C 767 366 809 359 819 387 Z" fill="lightgray"></path>
				<path d="M 667 339 L 738 351 Q 796 360 827 364 Q 847 369 831 378 Q 827 383 819 387 C 795 401 795 401 772 395 L 665 368 C 636 361 637 334 667 339 Z" fill="lightgray"></path>
				<path d="M 577 242 L 541 246 Q 527 246 530 233 Q 530 230 542 218 Q 554 206 558 182 L 572 92 Q 578 67 590 71 Q 596 72 607 93 C 607 94 607 92 603 119 L 589 219 C 586 241 586 241 577 242 Z" fill="lightgray"></path>
				<path d="M 689 136 L 697 194 Q 697 201 702 214 L 706 225 Q 709 232 709 235 Q 718 251 693 263 Q 667 274 661 274 Q 655 274 633 261 Q 611 248 577 242 C 548 236 561 209 589 219 Q 621 230 636 236 Q 649 236 651 234 Q 653 226 653 201 L 651 141 C 650 111 685 106 689 136 Z" fill="lightgray"></path>
				<path d="M 649 106 L 684 114 Q 701 116 701 120 Q 702 129 689 136 C 668 149 668 149 651 141 L 603 119 C 576 107 578 84 607 93 L 649 106 Z" fill="lightgray"></path>
				<path d="M 796 271 L 765 275 Q 750 276 747 274 Q 745 268 755 254 L 767 238 Q 771 233 774 202 L 781 127 Q 783 115 789 104 Q 794 92 802 92 Q 815 94 819 115 L 817 139 L 809 246 C 807 270 807 270 796 271 Z" fill="lightgray"></path>
				<path d="M 911 152 L 919 191 L 924 206 Q 930 229 940 247 Q 949 265 947 270 Q 947 276 935 284 L 910 296 Q 894 302 889 301 L 848 286 L 796 271 C 767 263 781 235 809 246 L 834 256 Q 873 265 876 261 Q 878 256 878 241 L 878 218 L 873 158 C 871 128 905 123 911 152 Z" fill="lightgray"></path>
				<path d="M 819 115 L 873 124 L 905 128 Q 942 131 911 152 C 892 165 892 165 873 158 L 855 151 Q 845 147 817 139 C 788 131 789 110 819 115 Z" fill="lightgray"></path>
				<path d="M 495 110 L 501 308 Q 502 363 507 402 L 516 499 Q 517 522 522 538 Q 527 553 527 560 Q 527 566 521 572 L 508 585 C 491 610 436 617 443 588 L 448 569 Q 449 567 452 547 Q 455 526 455 521 L 447 128 Q 445 4 516 -39 Q 567 -74 701 -69 L 739 -69 Q 755 -69 774 -67 L 801 -65 Q 809 -65 830 -63 L 858 -60 L 947 -46 Q 971 -42 977 -34 Q 983 -27 981 -18 Q 976 -1 920 12 Q 897 14 864 4 Q 830 -6 780 -12 Q 651 -25 581 -12 Q 536 -6 524 8 Q 511 21 503 39 Q 495 56 495 110 Z" fill="lightgray"></path>
</g>
		<text x="40" y="140" font-size="128" fill="#999999">2</text></g>
		<g id="id0:id2:id2" transform="matrix(1.0,0,0,1.0,2048,0.0)">			<g stroke="lightgray" stroke-width="4" transform="scale(4, 4)"> <rect x="0" y="0" width="256" height="256" fill="white" stroke-width="4"/></g>
			<g transform="scale(0.92, -0.92) translate(60, -920)">					<path d="M 244 589 L 226 591 Q 208 589 214 573 L 223 554 Q 230 536 230 502 L 230 184 C 230 154 271 159 273 189 L 288 481 L 291 515 Q 296 534 300 545 Q 303 556 302 558 Q 300 569 280 576 Q 274 579 262 583 Q 249 587 244 589 Z" fill="black"></path>
				<path d="M 230 184 L 163 172 Q 136 163 135 182 L 134 207 L 145 264 L 151 287 Q 155 305 154 312 Q 152 318 148 322 Q 143 325 139 329 L 129 337 Q 122 342 107 346 Q 91 350 85 347 Q 72 341 83 326 Q 93 310 92 281 Q 95 231 89 210 L 80 180 Q 77 171 75 168 Q 66 158 66 153 Q 66 148 69 140 L 81 121 Q 94 104 101 102 L 106 102 Q 107 101 112 103 L 118 106 L 125 112 Q 130 117 141 123 Q 151 129 187 140 Q 222 150 251 154 L 349 164 C 379 167 380 200 350 197 L 273 189 L 230 184 Z" fill="black"></path>
				<path d="M 349 164 L 348 142 Q 348 132 353 121 Q 358 110 366 110 Q 373 110 382 122 Q 390 134 394 167 L 411 297 Q 417 331 421 336 Q 427 350 426 355 Q 426 371 391 382 Q 356 393 346 387 Q 344 383 346 374 L 352 354 Q 356 332 354 301 L 350 197 L 349 164 Z" fill="red"></path>
				<path d="M 508 585 L 594 588 Q 605 587 671 594 L 773 604 Q 828 608 842 611 L 887 618 Q 899 620 902 623 Q 905 625 905 635 Q 905 641 882 653 Q 859 664 840 664 Q 820 664 775 654 Q 729 643 556 625 L 428 616 Q 422 614 417 609 Q 411 604 424 597 Q 436 589 443 588 L 508 585 Z" fill="lightgray"></path>
				<path d="M 614 441 L 629 344 Q 630 332 634 326 L 643 317 Q 652 312 657 316 Q 661 320 667 339 L 665 368 L 653 469 C 650 494 650 494 641 496 L 611 504 Q 589 508 589 498 Q 585 495 598 480 Q 613 464 614 441 Z" fill="lightgray"></path>
				<path d="M 819 387 L 838 443 Q 844 464 857 479 Q 869 493 870 499 Q 870 504 859 511 Q 841 524 817 534 Q 798 538 795 537 Q 791 536 771 526 Q 743 511 680 502 L 641 496 C 611 491 623 468 653 469 L 674 470 Q 694 470 728 480 Q 762 490 773 488 Q 783 483 785 478 Q 786 473 783 454 L 772 395 C 767 366 809 359 819 387 Z" fill="lightgray"></path>
				<path d="M 667 339 L 738 351 Q 796 360 827 364 Q 847 369 831 378 Q 827 383 819 387 C 795 401 795 401 772 395 L 665 368 C 636 361 637 334 667 339 Z" fill="lightgray"></path>
				<path d="M 577 242 L 541 246 Q 527 246 530 233 Q 530 230 542 218 Q 554 206 558 182 L 572 92 Q 578 67 590 71 Q 596 72 607 93 C 607 94 607 92 603 119 L 589 219 C 586 241 586 241 577 242 Z" fill="lightgray"></path>
				<path d="M 689 136 L 697 194 Q 697 201 702 214 L 706 225 Q 709 232 709 235 Q 718 251 693 263 Q 667 274 661 274 Q 655 274 633 261 Q 611 248 577 242 C 548 236 561 209 589 219 Q 621 230 636 236 Q 649 236 651 234 Q 653 226 653 201 L 651 141 C 650 111 685 106 689 136 Z" fill="lightgray"></path>
				<path d="M 649 106 L 684 114 Q 701 116 701 120 Q 702 129 689 136 C 668 149 668 149 651 141 L 603 119 C 576 107 578 84 607 93 L 649 106 Z" fill="lightgray"></path>
				<path d="M 796 271 L 765 275 Q 750 276 747 274 Q 745 268 755 254 L 767 238 Q 771 233 774 202 L 781 127 Q 783 115 789 104 Q 794 92 802 92 Q 815 94 819 115 L 817 139 L 809 246 C 807 270 807 270 796 271 Z" fill="lightgray"></path>
				<path d="M 911 152 L 919 191 L 924 206 Q 930 229 940 247 Q 949 265 947 270 Q 947 276 935 284 L 910 296 Q 894 302 889 301 L 848 286 L 796 271 C 767 263 781 235 809 246 L 834 256 Q 873 265 876 261 Q 878 256 878 241 L 878 218 L 873 158 C 871 128 905 123 911 152 Z" fill="lightgray"></path>
				<path d="M 819 115 L 873 124 L 905 128 Q 942 131 911 152 C 892 165 892 165 873 158 L 855 151 Q 845 147 817 139 C 788 131 789 110 819 115 Z" fill="lightgray"></path>
				<path d="M 495 110 L 501 308 Q 502 363 507 402 L 516 499 Q 517 522 522 538 Q 527 553 527 560 Q 527 566 521 572 L 508 585 C 491 610 436 617 443 588 L 448 569 Q 449 567 452 547 Q 455 526 455 521 L 447 128 Q 445 4 516 -39 Q 567 -74 701 -69 L 739 -69 Q 755 -69 774 -67 L 801 -65 Q 809 -65 830 -63 L 858 -60 L 947 -46 Q 971 -42 977 -34 Q 983 -27 981 -18 Q 976 -1 920 12 Q 897 14 864 4 Q 830 -6 780 -12 Q 651 -25 581 -12 Q 536 -6 524 8 Q 511 21 503 39 Q 495 56 495 110 Z" fill="lightgray"></path>
</g>
		<text x="40" y="140" font-size="128" fill="#999999">3</text></g>
		<g id="id0:id3:id3" transform="matrix(1.0,0,0,1.0,3072,0.0)">			<g stroke="lightgray" stroke-width="4" transform="scale(4, 4)"> <rect x="0" y="0" width="256" height="256" fill="white" stroke-width="4"/></g>
			<g transform="scale(0.92, -0.92) translate(60, -920)">					<path d="M 244 589 L 226 591 Q 208 589 214 573 L 223 554 Q 230 536 230 502 L 230 184 C 230 154 271 159 273 189 L 288 481 L 291 515 Q 296 534 300 545 Q 303 556 302 558 Q 300 569 280 576 Q 274 579 262 583 Q 249 587 244 589 Z" fill="black"></path>
				<path d="M 230 184 L 163 172 Q 136 163 135 182 L 134 207 L 145 264 L 151 287 Q 155 305 154 312 Q 152 318 148 322 Q 143 325 139 329 L 129 337 Q 122 342 107 346 Q 91 350 85 347 Q 72 341 83 326 Q 93 310 92 281 Q 95 231 89 210 L 80 180 Q 77 171 75 168 Q 66 158 66 153 Q 66 148 69 140 L 81 121 Q 94 104 101 102 L 106 102 Q 107 101 112 103 L 118 106 L 125 112 Q 130 117 141 123 Q 151 129 187 140 Q 222 150 251 154 L 349 164 C 379 167 380 200 350 197 L 273 189 L 230 184 Z" fill="black"></path>
				<path d="M 349 164 L 348 142 Q 348 132 353 121 Q 358 110 366 110 Q 373 110 382 122 Q 390 134 394 167 L 411 297 Q 417 331 421 336 Q 427 350 426 355 Q 426 371 391 382 Q 356 393 346 387 Q 344 383 346 374 L 352 354 Q 356 332 354 301 L 350 197 L 349 164 Z" fill="black"></path>
				<path d="M 508 585 L 594 588 Q 605 587 671 594 L 773 604 Q 828 608 842 611 L 887 618 Q 899 620 902 623 Q 905 625 905 635 Q 905 641 882 653 Q 859 664 840 664 Q 820 664 775 654 Q 729 643 556 625 L 428 616 Q 422 614 417 609 Q 411 604 424 597 Q 436 589 443 588 L 508 585 Z" fill="red"></path>
				<path d="M 614 441 L 629 344 Q 630 332 634 326 L 643 317 Q 652 312 657 316 Q 661 320 667 339 L 665 368 L 653 469 C 650 494 650 494 641 496 L 611 504 Q 589 508 589 498 Q 585 495 598 480 Q 613 464 614 441 Z" fill="lightgray"></path>
				<path d="M 819 387 L 838 443 Q 844 464 857 479 Q 869 493 870 499 Q 870 504 859 511 Q 841 524 817 534 Q 798 538 795 537 Q 791 536 771 526 Q 743 511 680 502 L 641 496 C 611 491 623 468 653 469 L 674 470 Q 694 470 728 480 Q 762 490 773 488 Q 783 483 785 478 Q 786 473 783 454 L 772 395 C 767 366 809 359 819 387 Z" fill="lightgray"></path>
				<path d="M 667 339 L 738 351 Q 796 360 827 364 Q 847 369 831 378 Q 827 383 819 387 C 795 401 795 401 772 395 L 665 368 C 636 361 637 334 667 339 Z" fill="lightgray"></path>
				<path d="M 577 242 L 541 246 Q 527 246 530 233 Q 530 230 542 218 Q 554 206 558 182 L 572 92 Q 578 67 590 71 Q 596 72 607 93 C 607 94 607 92 603 119 L 589 219 C 586 241 586 241 577 242 Z" fill="lightgray"></path>
				<path d="M 689 136 L 697 194 Q 697 201 702 214 L 706 225 Q 709 232 709 235 Q 718 251 693 263 Q 667 274 661 274 Q 655 274 633 261 Q 611 248 577 242 C 548 236 561 209 589 219 Q 621 230 636 236 Q 649 236 651 234 Q 653 226 653 201 L 651 141 C 650 111 685 106 689 136 Z" fill="lightgray"></path>
				<path d="M 649 106 L 684 114 Q 701 116 701 120 Q 702 129 689 136 C 668 149 668 149 651 141 L 603 119 C 576 107 578 84 607 93 L 649 106 Z" fill="lightgray"></path>
				<path d="M 796 271 L 765 275 Q 750 276 747 274 Q 745 268 755 254 L 767 238 Q 771 233 774 202 L 781 127 Q 783 115 789 104 Q 794 92 802 92 Q 815 94 819 115 L 817 139 L 809 246 C 807 270 807 270 796 271 Z" fill="lightgray"></path>
				<path d="M 911 152 L 919 191 L 924 206 Q 930 229 940 247 Q 949 265 947 270 Q 947 276 935 284 L 910 296 Q 894 302 889 301 L 848 286 L 796 271 C 767 263 781 235 809 246 L 834 256 Q 873 265 876 261 Q 878 256 878 241 L 878 218 L 873 158 C 871 128 905 123 911 152 Z" fill="lightgray"></path>
				<path d="M 819 115 L 873 124 L 905 128 Q 942 131 911 152 C 892 165 892 165 873 158 L 855 151 Q 845 147 817 139 C 788 131 789 110 819 115 Z" fill="lightgray"></path>
				<path d="M 495 110 L 501 308 Q 502 363 507 402 L 516 499 Q 517 522 522 538 Q 527 553 527 560 Q 527 566 521 572 L 508 585 C 491 610 436 617 443 588 L 448 569 Q 449 567 452 547 Q 455 526 455 521 L 447 128 Q 445 4 516 -39 Q 567 -74 701 -69 L 739 -69 Q 755 -69 774 -67 L 801 -65 Q 809 -65 830 -63 L 858 -60 L 947 -46 Q 971 -42 977 -34 Q 983 -27 981 -18 Q 976 -1 920 12 Q 897 14 864 4 Q 830 -6 780 -12 Q 651 -25 581 -12 Q 536 -6 524 8 Q 511 21 503 39 Q 495 56 495 110 Z" fill="lightgray"></path>
</g>
		<text x="40" y="140" font-size="128" fill="#999999">4</text></g>
		<g id="id0:id4:id4" transform="matrix(1.0,0,0,1.0,4096,0.0)">			<g stroke="lightgray" stroke-width="4" transform="scale(4, 4)"> <rect x="0" y="0" width="256" height="256" fill="white" stroke-width="4"/></g>
			<g transform="scale(0.92, -0.92) translate(60, -920)">					<path d="M 244 589 L 226 591 Q 208 589 214 573 L 223 554 Q 230 536 230 502 L 230 184 C 230 154 271 159 273 189 L 288 481 L 291 515 Q 296 534 300 545 Q 303 556 302 558 Q 300 569 280 576 Q 274 579 262 583 Q 249 587 244 589 Z" fill="black"></path>
				<path d="M 230 184 L 163 172 Q 136 163 135 182 L 134 207 L 145 264 L 151 287 Q 155 305 154 312 Q 152 318 148 322 Q 143 325 139 329 L 129 337 Q 122 342 107 346 Q 91 350 85 347 Q 72 341 83 326 Q 93 310 92 281 Q 95 231 89 210 L 80 180 Q 77 171 75 168 Q 66 158 66 153 Q 66 148 69 140 L 81 121 Q 94 104 101 102 L 106 102 Q 107 101 112 103 L 118 106 L 125 112 Q 130 117 141 123 Q 151 129 187 140 Q 222 150 251 154 L 349 164 C 379 167 380 200 350 197 L 273 189 L 230 184 Z" fill="black"></path>
				<path d="M 349 164 L 348 142 Q 348 132 353 121 Q 358 110 366 110 Q 373 110 382 122 Q 390 134 394 167 L 411 297 Q 417 331 421 336 Q 427 350 426 355 Q 426 371 391 382 Q 356 393 346 387 Q 344 383 346 374 L 352 354 Q 356 332 354 301 L 350 197 L 349 164 Z" fill="black"></path>
				<path d="M 508 585 L 594 588 Q 605 587 671 594 L 773 604 Q 828 608 842 611 L 887 618 Q 899 620 902 623 Q 905 625 905 635 Q 905 641 882 653 Q 859 664 840 664 Q 820 664 775 654 Q 729 643 556 625 L 428 616 Q 422 614 417 609 Q 411 604 424 597 Q 436 589 443 588 L 508 585 Z" fill="black"></path>
				<path d="M 614 441 L 629 344 Q 630 332 634 326 L 643 317 Q 652 312 657 316 Q 661 320 667 339 L 665 368 L 653 469 C 650 494 650 494 641 496 L 611 504 Q 589 508 589 498 Q 585 495 598 480 Q 613 464 614 441 Z" fill="red"></path>
				<path d="M 819 387 L 838 443 Q 844 464 857 479 Q 869 493 870 499 Q 870 504 859 511 Q 841 524 817 534 Q 798 538 795 537 Q 791 536 771 526 Q 743 511 680 502 L 641 496 C 611 491 623 468 653 469 L 674 470 Q 694 470 728 480 Q 762 490 773 488 Q 783 483 785 478 Q 786 473 783 454 L 772 395 C 767 366 809 359 819 387 Z" fill="lightgray"></path>
				<path d="M 667 339 L 738 351 Q 796 360 827 364 Q 847 369 831 378 Q 827 383 819 387 C 795 401 795 401 772 395 L 665 368 C 636 361 637 334 667 339 Z" fill="lightgray"></path>
				<path d="M 577 242 L 541 246 Q 527 246 530 233 Q 530 230 542 218 Q 554 206 558 182 L 572 92 Q 578 67 590 71 Q 596 72 607 93 C 607 94 607 92 603 119 L 589 219 C 586 241 586 241 577 242 Z" fill="lightgray"></path>
				<path d="M 689 136 L 697 194 Q 697 201 702 214 L 706 225 Q 709 232 709 235 Q 718 251 693 263 Q 667 274 661 274 Q 655 274 633 261 Q 611 248 577 242 C 548 236 561 209 589 219 Q 621 230 636 236 Q 649 236 651 234 Q 653 226 653 201 L 651 141 C 650 111 685 106 689 136 Z" fill="lightgray"></path>
				<path d="M 649 106 L 684 114 Q 701 116 701 120 Q 702 129 689 136 C 668 149 668 149 651 141 L 603 119 C 576 107 578 84 607 93 L 649 106 Z" fill="lightgray"></path>
				<path d="M 796 271 L 765 275 Q 750 276 747 274 Q 745 268 755 254 L 767 238 Q 771 233 774 202 L 781 127 Q 783 115 789 104 Q 794 92 802 92 Q 815 94 819 115 L 817 139 L 809 246 C 807 270 807 270 796 271 Z" fill="lightgray"></path>
				<path d="M 911 152 L 919 191 L 924 206 Q 930 229 940 247 Q 949 265 947 270 Q 947 276 935 284 L 910 296 Q 894 302 889 301 L 848 286 L 796 271 C 767 263 781 235 809 246 L 834 256 Q 873 265 876 261 Q 878 256 878 241 L 878 218 L 873 158 C 871 128 905 123 911 152 Z" fill="lightgray"></path>
				<path d="M 819 115 L 873 124 L 905 128 Q 942 131 911 152 C 892 165 892 165 873 158 L 855 151 Q 845 147 817 139 C 788 131 789 110 819 115 Z" fill="lightgray"></path>
				<path d="M 495 110 L 501 308 Q 502 363 507 402 L 516 499 Q 517 522 522 538 Q 527 553 527 560 Q 527 566 521 572 L 508 585 C 491 610 436 617 443 588 L 448 569 Q 449 567 452 547 Q 455 526 455 521 L 447 128 Q 445 4 516 -39 Q 567 -74 701 -69 L 739 -69 Q 755 -69 774 -67 L 801 -65 Q 809 -65 830 -63 L 858 -60 L 947 -46 Q 971 -42 977 -34 Q 983 -27 981 -18 Q 976 -1 920 12 Q 897 14 864 4 Q 830 -6 780 -12 Q 651 -25 581 -12 Q 536 -6 524 8 Q 511 21 503 39 Q 495 56 495 110 Z" fill="lightgray"></path>
</g>
		<text x="40" y="140" font-size="128" fill="#999999">5</text></g>
</g>
	<g id="id1:id1" transform="translate(0.0,1024)">
		<g id="id1:id0:id0" transform="matrix(1.0,0,0,1.0,0,0.0)">			<g stroke="lightgray" stroke-width="4" transform="scale(4, 4)"> <rect x="0" y="0" width="256" height="256" fill="white" stroke-width="4"/></g>
			<g transform="scale(0.92, -0.92) translate(60, -920)">					<path d="M 244 589 L 226 591 Q 208 589 214 573 L 223 554 Q 230 536 230 502 L 230 184 C 230 154 271 159 273 189 L 288 481 L 291 515 Q 296 534 300 545 Q 303 556 302 558 Q 300 569 280 576 Q 274 579 262 583 Q 249 587 244 589 Z" fill="black"></path>
				<path d="M 230 184 L 163 172 Q 136 163 135 182 L 134 207 L 145 264 L 151 287 Q 155 305 154 312 Q 152 318 148 322 Q 143 325 139 329 L 129 337 Q 122 342 107 346 Q 91 350 85 347 Q 72 341 83 326 Q 93 310 92 281 Q 95 231 89 210 L 80 180 Q 77 171 75 168 Q 66 158 66 153 Q 66 148 69 140 L 81 121 Q 94 104 101 102 L 106 102 Q 107 101 112 103 L 118 106 L 125 112 Q 130 117 141 123 Q 151 129 187 140 Q 222 150 251 154 L 349 164 C 379 167 380 200 350 197 L 273 189 L 230 184 Z" fill="black"></path>
				<path d="M 349 164 L 348 142 Q 348 132 353 121 Q 358 110 366 110 Q 373 110 382 122 Q 390 134 394 167 L 411 297 Q 417 331 421 336 Q 427 350 426 355 Q 426 371 391 382 Q 356 393 346 387 Q 344 383 346 374 L 352 354 Q 356 332 354 301 L 350 197 L 349 164 Z" fill="black"></path>
				<path d="M 508 585 L 594 588 Q 605 587 671 594 L 773 604 Q 828 608 842 611 L 887 618 Q 899 620 902 623 Q 905 625 905 635 Q 905 641 882 653 Q 859 664 840 664 Q 820 664 775 654 Q 729 643 556 625 L 428 616 Q 422 614 417 609 Q 411 604 424 597 Q 436 589 443 588 L 508 585 Z" fill="black"></path>
				<path d="M 614 441 L 629 344 Q 630 332 634 326 L 643 317 Q 652 312 657 316 Q 661 320 667 339 L 665 368 L 653 469 C 650 494 650 494 641 496 L 611 504 Q 589 508 589 498 Q 585 495 598 480 Q 613 464 614 441 Z" fill="black"></path>
				<path d="M 819 387 L 838 443 Q 844 464 857 479 Q 869 493 870 499 Q 870 504 859 511 Q 841 524 817 534 Q 798 538 795 537 Q 791 536 771 526 Q 743 511 680 502 L 641 496 C 611 491 623 468 653 469 L 674 470 Q 694 470 728 480 Q 762 490 773 488 Q 783 483 785 478 Q 786 473 783 454 L 772 395 C 767 366 809 359 819 387 Z" fill="red"></path>
				<path d="M 667 339 L 738 351 Q 796 360 827 364 Q 847 369 831 378 Q 827 383 819 387 C 795 401 795 401 772 395 L 665 368 C 636 361 637 334 667 339 Z" fill="lightgray"></path>
				<path d="M 577 242 L 541 246 Q 527 246 530 233 Q 530 230 542 218 Q 554 206 558 182 L 572 92 Q 578 67 590 71 Q 596 72 607 93 C 607 94 607 92 603 119 L 589 219 C 586 241 586 241 577 242 Z" fill="lightgray"></path>
				<path d="M 689 136 L 697 194 Q 697 201 702 214 L 706 225 Q 709 232 709 235 Q 718 251 693 263 Q 667 274 661 274 Q 655 274 633 261 Q 611 248 577 242 C 548 236 561 209 589 219 Q 621 230 636 236 Q 649 236 651 234 Q 653 226 653 201 L 651 141 C 650 111 685 106 689 136 Z" fill="lightgray"></path>
				<path d="M 649 106 L 684 114 Q 701 116 701 120 Q 702 129 689 136 C 668 149 668 149 651 141 L 603 119 C 576 107 578 84 607 93 L 649 106 Z" fill="lightgray"></path>
				<path d="M 796 271 L 765 275 Q 750 276 747 274 Q 745 268 755 254 L 767 238 Q 771 233 774 202 L 781 127 Q 783 115 789 104 Q 794 92 802 92 Q 815 94 819 115 L 817 139 L 809 246 C 807 270 807 270 796 271 Z" fill="lightgray"></path>
				<path d="M 911 152 L 919 191 L 924 206 Q 930 229 940 247 Q 949 265 947 270 Q 947 276 935 284 L 910 296 Q 894 302 889 301 L 848 286 L 796 271 C 767 263 781 235 809 246 L 834 256 Q 873 265 876 261 Q 878 256 878 241 L 878 218 L 873 158 C 871 128 905 123 911 152 Z" fill="lightgray"></path>
				<path d="M 819 115 L 873 124 L 905 128 Q 942 131 911 152 C 892 165 892 165 873 158 L 855 151 Q 845 147 817 139 C 788 131 789 110 819 115 Z" fill="lightgray"></path>
				<path d="M 495 110 L 501 308 Q 502 363 507 402 L 516 499 Q 517 522 522 538 Q 527 553 527 560 Q 527 566 521 572 L 508 585 C 491 610 436 617 443 588 L 448 569 Q 449 567 452 547 Q 455 526 455 521 L 447 128 Q 445 4 516 -39 Q 567 -74 701 -69 L 739 -69 Q 755 -69 774 -67 L 801 -65 Q 809 -65 830 -63 L 858 -60 L 947 -46 Q 971 -42 977 -34 Q 983 -27 981 -18 Q 976 -1 920 12 Q 897 14 864 4 Q 830 -6 780 -12 Q 651 -25 581 -12 Q 536 -6 524 8 Q 511 21 503 39 Q 495 56 495 110 Z" fill="lightgray"></path>
</g>
		<text x="40" y="140" font-size="128" fill="#999999">6</text></g>
		<g id="id1:id1:id1" transform="matrix(1.0,0,0,1.0,1024,0.0)">			<g stroke="lightgray" stroke-width="4" transform="scale(4, 4)"> <rect x="0" y="0" width="256" height="256" fill="white" stroke-width="4"/></g>
			<g transform="scale(0.92, -0.92) translate(60, -920)">					<path d="M 244 589 L 226 591 Q 208 589 214 573 L 223 554 Q 230 536 230 502 L 230 184 C 230 154 271 159 273 189 L 288 481 L 291 515 Q 296 534 300 545 Q 303 556 302 558 Q 300 569 280 576 Q 274 579 262 583 Q 249 587 244 589 Z" fill="black"></path>
				<path d="M 230 184 L 163 172 Q 136 163 135 182 L 134 207 L 145 264 L 151 287 Q 155 305 154 312 Q 152 318 148 322 Q 143 325 139 329 L 129 337 Q 122 342 107 346 Q 91 350 85 347 Q 72 341 83 326 Q 93 310 92 281 Q 95 231 89 210 L 80 180 Q 77 171 75 168 Q 66 158 66 153 Q 66 148 69 140 L 81 121 Q 94 104 101 102 L 106 102 Q 107 101 112 103 L 118 106 L 125 112 Q 130 117 141 123 Q 151 129 187 140 Q 222 150 251 154 L 349 164 C 379 167 380 200 350 197 L 273 189 L 230 184 Z" fill="black"></path>
				<path d="M 349 164 L 348 142 Q 348 132 353 121 Q 358 110 366 110 Q 373 110 382 122 Q 390 134 394 167 L 411 297 Q 417 331 421 336 Q 427 350 426 355 Q 426 371 391 382 Q 356 393 346 387 Q 344 383 346 374 L 352 354 Q 356 332 354 301 L 350 197 L 349 164 Z" fill="black"></path>
				<path d="M 508 585 L 594 588 Q 605 587 671 594 L 773 604 Q 828 608 842 611 L 887 618 Q 899 620 902 623 Q 905 625 905 635 Q 905 641 882 653 Q 859 664 840 664 Q 820 664 775 654 Q 729 643 556 625 L 428 616 Q 422 614 417 609 Q 411 604 424 597 Q 436 589 443 588 L 508 585 Z" fill="black"></path>
				<path d="M 614 441 L 629 344 Q 630 332 634 326 L 643 317 Q 652 312 657 316 Q 661 320 667 339 L 665 368 L 653 469 C 650 494 650 494 641 496 L 611 504 Q 589 508 589 498 Q 585 495 598 480 Q 613 464 614 441 Z" fill="black"></path>
				<path d="M 819 387 L 838 443 Q 844 464 857 479 Q 869 493 870 499 Q 870 504 859 511 Q 841 524 817 534 Q 798 538 795 537 Q 791 536 771 526 Q 743 511 680 502 L 641 496 C 611 491 623 468 653 469 L 674 470 Q 694 470 728 480 Q 762 490 773 488 Q 783 483 785 478 Q 786 473 783 454 L 772 395 C 767 366 809 359 819 387 Z" fill="black"></path>
				<path d="M 667 339 L 738 351 Q 796 360 827 364 Q 847 369 831 378 Q 827 383 819 387 C 795 401 795 401 772 395 L 665 368 C 636 361 637 334 667 339 Z" fill="red"></path>
				<path d="M 577 242 L 541 246 Q 527 246 530 233 Q 530 230 542 218 Q 554 206 558 182 L 572 92 Q 578 67 590 71 Q 596 72 607 93 C 607 94 607 92 603 119 L 589 219 C 586 241 586 241 577 242 Z" fill="lightgray"></path>
				<path d="M 689 136 L 697 194 Q 697 201 702 214 L 706 225 Q 709 232 709 235 Q 718 251 693 263 Q 667 274 661 274 Q 655 274 633 261 Q 611 248 577 242 C 548 236 561 209 589 219 Q 621 230 636 236 Q 649 236 651 234 Q 653 226 653 201 L 651 141 C 650 111 685 106 689 136 Z" fill="lightgray"></path>
				<path d="M 649 106 L 684 114 Q 701 116 701 120 Q 702 129 689 136 C 668 149 668 149 651 141 L 603 119 C 576 107 578 84 607 93 L 649 106 Z" fill="lightgray"></path>
				<path d="M 796 271 L 765 275 Q 750 276 747 274 Q 745 268 755 254 L 767 238 Q 771 233 774 202 L 781 127 Q 783 115 789 104 Q 794 92 802 92 Q 815 94 819 115 L 817 139 L 809 246 C 807 270 807 270 796 271 Z" fill="lightgray"></path>
				<path d="M 911 152 L 919 191 L 924 206 Q 930 229 940 247 Q 949 265 947 270 Q 947 276 935 284 L 910 296 Q 894 302 889 301 L 848 286 L 796 271 C 767 263 781 235 809 246 L 834 256 Q 873 265 876 261 Q 878 256 878 241 L 878 218 L 873 158 C 871 128 905 123 911 152 Z" fill="lightgray"></path>
				<path d="M 819 115 L 873 124 L 905 128 Q 942 131 911 152 C 892 165 892 165 873 158 L 855 151 Q 845 147 817 139 C 788 131 789 110 819 115 Z" fill="lightgray"></path>
				<path d="M 495 110 L 501 308 Q 502 363 507 402 L 516 499 Q 517 522 522 538 Q 527 553 527 560 Q 527 566 521 572 L 508 585 C 491 610 436 617 443 588 L 448 569 Q 449 567 452 547 Q 455 526 455 521 L 447 128 Q 445 4 516 -39 Q 567 -74 701 -69 L 739 -69 Q 755 -69 774 -67 L 801 -65 Q 809 -65 830 -63 L 858 -60 L 947 -46 Q 971 -42 977 -34 Q 983 -27 981 -18 Q 976 -1 920 12 Q 897 14 864 4 Q 830 -6 780 -12 Q 651 -25 581 -12 Q 536 -6 524 8 Q 511 21 503 39 Q 495 56 495 110 Z" fill="lightgray"></path>
</g>
		<text x="40" y="140" font-size="128" fill="#999999">7</text></g>
		<g id="id1:id2:id2" transform="matrix(1.0,0,0,1.0,2048,0.0)">			<g stroke="lightgray" stroke-width="4" transform="scale(4, 4)"> <rect x="0" y="0" width="256" height="256" fill="white" stroke-width="4"/></g>
			<g transform="scale(0.92, -0.92) translate(60, -920)">					<path d="M 244 589 L 226 591 Q 208 589 214 573 L 223 554 Q 230 536 230 502 L 230 184 C 230 154 271 159 273 189 L 288 481 L 291 515 Q 296 534 300 545 Q 303 556 302 558 Q 300 569 280 576 Q 274 579 262 583 Q 249 587 244 589 Z" fill="black"></path>
				<path d="M 230 184 L 163 172 Q 136 163 135 182 L 134 207 L 145 264 L 151 287 Q 155 305 154 312 Q 152 318 148 322 Q 143 325 139 329 L 129 337 Q 122 342 107 346 Q 91 350 85 347 Q 72 341 83 326 Q 93 310 92 281 Q 95 231 89 210 L 80 180 Q 77 171 75 168 Q 66 158 66 153 Q 66 148 69 140 L 81 121 Q 94 104 101 102 L 106 102 Q 107 101 112 103 L 118 106 L 125 112 Q 130 117 141 123 Q 151 129 187 140 Q 222 150 251 154 L 349 164 C 379 167 380 200 350 197 L 273 189 L 230 184 Z" fill="black"></path>
				<path d="M 349 164 L 348 142 Q 348 132 353 121 Q 358 110 366 110 Q 373 110 382 122 Q 390 134 394 167 L 411 297 Q 417 331 421 336 Q 427 350 426 355 Q 426 371 391 382 Q 356 393 346 387 Q 344 383 346 374 L 352 354 Q 356 332 354 301 L 350 197 L 349 164 Z" fill="black"></path>
				<path d="M 508 585 L 594 588 Q 605 587 671 594 L 773 604 Q 828 608 842 611 L 887 618 Q 899 620 902 623 Q 905 625 905 635 Q 905 641 882 653 Q 859 664 840 664 Q 820 664 775 654 Q 729 643 556 625 L 428 616 Q 422 614 417 609 Q 411 604 424 597 Q 436 589 443 588 L 508 585 Z" fill="black"></path>
				<path d="M 614 441 L 629 344 Q 630 332 634 326 L 643 317 Q 652 312 657 316 Q 661 320 667 339 L 665 368 L 653 469 C 650 494 650 494 641 496 L 611 504 Q 589 508 589 498 Q 585 495 598 480 Q 613 464 614 441 Z" fill="black"></path>
				<path d="M 819 387 L 838 443 Q 844 464 857 479 Q 869 493 870 499 Q 870 504 859 511 Q 841 524 817 534 Q 798 538 795 537 Q 791 536 771 526 Q 743 511 680 502 L 641 496 C 611 491 623 468 653 469 L 674 470 Q 694 470 728 480 Q 762 490 773 488 Q 783 483 785 478 Q 786 473 783 454 L 772 395 C 767 366 809 359 819 387 Z" fill="black"></path>
				<path d="M 667 339 L 738 351 Q 796 360 827 364 Q 847 369 831 378 Q 827 383 819 387 C 795 401 795 401 772 395 L 665 368 C 636 361 637 334 667 339 Z" fill="black"></path>
				<path d="M 577 242 L 541 246 Q 527 246 530 233 Q 530 230 542 218 Q 554 206 558 182 L 572 92 Q 578 67 590 71 Q 596 72 607 93 C 607 94 607 92 603 119 L 589 219 C 586 241 586 241 577 242 Z" fill="red"></path>
				<path d="M 689 136 L 697 194 Q 697 201 702 214 L 706 225 Q 709 232 709 235 Q 718 251 693 263 Q 667 274 661 274 Q 655 274 633 261 Q 611 248 577 242 C 548 236 561 209 589 219 Q 621 230 636 236 Q 649 236 651 234 Q 653 226 653 201 L 651 141 C 650 111 685 106 689 136 Z" fill="lightgray"></path>
				<path d="M 649 106 L 684 114 Q 701 116 701 120 Q 702 129 689 136 C 668 149 668 149 651 141 L 603 119 C 576 107 578 84 607 93 L 649 106 Z" fill="lightgray"></path>
				<path d="M 796 271 L 765 275 Q 750 276 747 274 Q 745 268 755 254 L 767 238 Q 771 233 774 202 L 781 127 Q 783 115 789 104 Q 794 92 802 92 Q 815 94 819 115 L 817 139 L 809 246 C 807 270 807 270 796 271 Z" fill="lightgray"></path>
				<path d="M 911 152 L 919 191 L 924 206 Q 930 229 940 247 Q 949 265 947 270 Q 947 276 935 284 L 910 296 Q 894 302 889 301 L 848 286 L 796 271 C 767 263 781 235 809 246 L 834 256 Q 873 265 876 261 Q 878 256 878 241 L 878 218 L 873 158 C 871 128 905 123 911 152 Z" fill="lightgray"></path>
				<path d="M 819 115 L 873 124 L 905 128 Q 942 131 911 152 C 892 165 892 165 873 158 L 855 151 Q 845 147 817 139 C 788 131 789 110 819 115 Z" fill="lightgray"></path>
				<path d="M 495 110 L 501 308 Q 502 363 507 402 L 516 499 Q 517 522 522 538 Q 527 553 527 560 Q 527 566 521 572 L 508 585 C 491 610 436 617 443 588 L 448 569 Q 449 567 452 547 Q 455 526 455 521 L 447 128 Q 445 4 516 -39 Q 567 -74 701 -69 L 739 -69 Q 755 -69 774 -67 L 801 -65 Q 809 -65 830 -63 L 858 -60 L 947 -46 Q 971 -42 977 -34 Q 983 -27 981 -18 Q 976 -1 920 12 Q 897 14 864 4 Q 830 -6 780 -12 Q 651 -25 581 -12 Q 536 -6 524 8 Q 511 21 503 39 Q 495 56 495 110 Z" fill="lightgray"></path>
</g>
		<text x="40" y="140" font-size="128" fill="#999999">8</text></g>
		<g id="id1:id3:id3" transform="matrix(1.0,0,0,1.0,3072,0.0)">			<g stroke="lightgray" stroke-width="4" transform="scale(4, 4)"> <rect x="0" y="0" width="256" height="256" fill="white" stroke-width="4"/></g>
			<g transform="scale(0.92, -0.92) translate(60, -920)">					<path d="M 244 589 L 226 591 Q 208 589 214 573 L 223 554 Q 230 536 230 502 L 230 184 C 230 154 271 159 273 189 L 288 481 L 291 515 Q 296 534 300 545 Q 303 556 302 558 Q 300 569 280 576 Q 274 579 262 583 Q 249 587 244 589 Z" fill="black"></path>
				<path d="M 230 184 L 163 172 Q 136 163 135 182 L 134 207 L 145 264 L 151 287 Q 155 305 154 312 Q 152 318 148 322 Q 143 325 139 329 L 129 337 Q 122 342 107 346 Q 91 350 85 347 Q 72 341 83 326 Q 93 310 92 281 Q 95 231 89 210 L 80 180 Q 77 171 75 168 Q 66 158 66 153 Q 66 148 69 140 L 81 121 Q 94 104 101 102 L 106 102 Q 107 101 112 103 L 118 106 L 125 112 Q 130 117 141 123 Q 151 129 187 140 Q 222 150 251 154 L 349 164 C 379 167 380 200 350 197 L 273 189 L 230 184 Z" fill="black"></path>
				<path d="M 349 164 L 348 142 Q 348 132 353 121 Q 358 110 366 110 Q 373 110 382 122 Q 390 134 394 167 L 411 297 Q 417 331 421 336 Q 427 350 426 355 Q 426 371 391 382 Q 356 393 346 387 Q 344 383 346 374 L 352 354 Q 356 332 354 301 L 350 197 L 349 164 Z" fill="black"></path>
				<path d="M 508 585 L 594 588 Q 605 587 671 594 L 773 604 Q 828 608 842 611 L 887 618 Q 899 620 902 623 Q 905 625 905 635 Q 905 641 882 653 Q 859 664 840 664 Q 820 664 775 654 Q 729 643 556 625 L 428 616 Q 422 614 417 609 Q 411 604 424 597 Q 436 589 443 588 L 508 585 Z" fill="black"></path>
				<path d="M 614 441 L 629 344 Q 630 332 634 326 L 643 317 Q 652 312 657 316 Q 661 320 667 339 L 665 368 L 653 469 C 650 494 650 494 641 496 L 611 504 Q 589 508 589 498 Q 585 495 598 480 Q 613 464 614 441 Z" fill="black"></path>
				<path d="M 819 387 L 838 443 Q 844 464 857 479 Q 869 493 870 499 Q 870 504 859 511 Q 841 524 817 534 Q 798 538 795 537 Q 791 536 771 526 Q 743 511 680 502 L 641 496 C 611 491 623 468 653 469 L 674 470 Q 694 470 728 480 Q 762 490 773 488 Q 783 483 785 478 Q 786 473 783 454 L 772 395 C 767 366 809 359 819 387 Z" fill="black"></path>
				<path d="M 667 339 L 738 351 Q 796 360 827 364 Q 847 369 831 378 Q 827 383 819 387 C 795 401 795 401 772 395 L 665 368 C 636 361 637 334 667 339 Z" fill="black"></path>
				<path d="M 577 242 L 541 246 Q 527 246 530 233 Q 530 230 542 218 Q 554 206 558 182 L 572 92 Q 578 67 590 71 Q 596 72 607 93 C 607 94 607 92 603 119 L 589 219 C 586 241 586 241 577 242 Z" fill="black"></path>
				<path d="M 689 136 L 697 194 Q 697 201 702 214 L 706 225 Q 709 232 709 235 Q 718 251 693 263 Q 667 274 661 274 Q 655 274 633 261 Q 611 248 577 242 C 548 236 561 209 589 219 Q 621 230 636 236 Q 649 236 651 234 Q 653 226 653 201 L 651 141 C 650 111 685 106 689 136 Z" fill="red"></path>
				<path d="M 649 106 L 684 114 Q 701 116 701 120 Q 702 129 689 136 C 668 149 668 149 651 141 L 603 119 C 576 107 578 84 607 93 L 649 106 Z" fill="lightgray"></path>
				<path d="M 796 271 L 765 275 Q 750 276 747 274 Q 745 268 755 254 L 767 238 Q 771 233 774 202 L 781 127 Q 783 115 789 104 Q 794 92 802 92 Q 815 94 819 115 L 817 139 L 809 246 C 807 270 807 270 796 271 Z" fill="lightgray"></path>
				<path d="M 911 152 L 919 191 L 924 206 Q 930 229 940 247 Q 949 265 947 270 Q 947 276 935 284 L 910 296 Q 894 302 889 301 L 848 286 L 796 271 C 767 263 781 235 809 246 L 834 256 Q 873 265 876 261 Q 878 256 878 241 L 878 218 L 873 158 C 871 128 905 123 911 152 Z" fill="lightgray"></path>
				<path d="M 819 115 L 873 124 L 905 128 Q 942 131 911 152 C 892 165 892 165 873 158 L 855 151 Q 845 147 817 139 C 788 131 789 110 819 115 Z" fill="lightgray"></path>
				<path d="M 495 110 L 501 308 Q 502 363 507 402 L 516 499 Q 517 522 522 538 Q 527 553 527 560 Q 527 566 521 572 L 508 585 C 491 610 436 617 443 588 L 448 569 Q 449 567 452 547 Q 455 526 455 521 L 447 128 Q 445 4 516 -39 Q 567 -74 701 -69 L 739 -69 Q 755 -69 774 -67 L 801 -65 Q 809 -65 830 -63 L 858 -60 L 947 -46 Q 971 -42 977 -34 Q 983 -27 981 -18 Q 976 -1 920 12 Q 897 14 864 4 Q 830 -6 780 -12 Q 651 -25 581 -12 Q 536 -6 524 8 Q 511 21 503 39 Q 495 56 495 110 Z" fill="lightgray"></path>
</g>
		<text x="40" y="140" font-size="128" fill="#999999">9</text></g>
		<g id="id1:id4:id4" transform="matrix(1.0,0,0,1.0,4096,0.0)">			<g stroke="lightgray" stroke-width="4" transform="scale(4, 4)"> <rect x="0" y="0" width="256" height="256" fill="white" stroke-width="4"/></g>
			<g transform="scale(0.92, -0.92) translate(60, -920)">					<path d="M 244 589 L 226 591 Q 208 589 214 573 L 223 554 Q 230 536 230 502 L 230 184 C 230 154 271 159 273 189 L 288 481 L 291 515 Q 296 534 300 545 Q 303 556 302 558 Q 300 569 280 576 Q 274 579 262 583 Q 249 587 244 589 Z" fill="black"></path>
				<path d="M 230 184 L 163 172 Q 136 163 135 182 L 134 207 L 145 264 L 151 287 Q 155 305 154 312 Q 152 318 148 322 Q 143 325 139 329 L 129 337 Q 122 342 107 346 Q 91 350 85 347 Q 72 341 83 326 Q 93 310 92 281 Q 95 231 89 210 L 80 180 Q 77 171 75 168 Q 66 158 66 153 Q 66 148 69 140 L 81 121 Q 94 104 101 102 L 106 102 Q 107 101 112 103 L 118 106 L 125 112 Q 130 117 141 123 Q 151 129 187 140 Q 222 150 251 154 L 349 164 C 379 167 380 200 350 197 L 273 189 L 230 184 Z" fill="black"></path>
				<path d="M 349 164 L 348 142 Q 348 132 353 121 Q 358 110 366 110 Q 373 110 382 122 Q 390 134 394 167 L 411 297 Q 417 331 421 336 Q 427 350 426 355 Q 426 371 391 382 Q 356 393 346 387 Q 344 383 346 374 L 352 354 Q 356 332 354 301 L 350 197 L 349 164 Z" fill="black"></path>
				<path d="M 508 585 L 594 588 Q 605 587 671 594 L 773 604 Q 828 608 842 611 L 887 618 Q 899 620 902 623 Q 905 625 905 635 Q 905 641 882 653 Q 859 664 840 664 Q 820 664 775 654 Q 729 643 556 625 L 428 616 Q 422 614 417 609 Q 411 604 424 597 Q 436 589 443 588 L 508 585 Z" fill="black"></path>
				<path d="M 614 441 L 629 344 Q 630 332 634 326 L 643 317 Q 652 312 657 316 Q 661 320 667 339 L 665 368 L 653 469 C 650 494 650 494 641 496 L 611 504 Q 589 508 589 498 Q 585 495 598 480 Q 613 464 614 441 Z" fill="black"></path>
				<path d="M 819 387 L 838 443 Q 844 464 857 479 Q 869 493 870 499 Q 870 504 859 511 Q 841 524 817 534 Q 798 538 795 537 Q 791 536 771 526 Q 743 511 680 502 L 641 496 C 611 491 623 468 653 469 L 674 470 Q 694 470 728 480 Q 762 490 773 488 Q 783 483 785 478 Q 786 473 783 454 L 772 395 C 767 366 809 359 819 387 Z" fill="black"></path>
				<path d="M 667 339 L 738 351 Q 796 360 827 364 Q 847 369 831 378 Q 827 383 819 387 C 795 401 795 401 772 395 L 665 368 C 636 361 637 334 667 339 Z" fill="black"></path>
				<path d="M 577 242 L 541 246 Q 527 246 530 233 Q 530 230 542 218 Q 554 206 558 182 L 572 92 Q 578 67 590 71 Q 596 72 607 93 C 607 94 607 92 603 119 L 589 219 C 586 241 586 241 577 242 Z" fill="black"></path>
				<path d="M 689 136 L 697 194 Q 697 201 702 214 L 706 225 Q 709 232 709 235 Q 718 251 693 263 Q 667 274 661 274 Q 655 274 633 261 Q 611 248 577 242 C 548 236 561 209 589 219 Q 621 230 636 236 Q 649 236 651 234 Q 653 226 653 201 L 651 141 C 650 111 685 106 689 136 Z" fill="black"></path>
				<path d="M 649 106 L 684 114 Q 701 116 701 120 Q 702 129 689 136 C 668 149 668 149 651 141 L 603 119 C 576 107 578 84 607 93 L 649 106 Z" fill="red"></path>
				<path d="M 796 271 L 765 275 Q 750 276 747 274 Q 745 268 755 254 L 767 238 Q 771 233 774 202 L 781 127 Q 783 115 789 104 Q 794 92 802 92 Q 815 94 819 115 L 817 139 L 809 246 C 807 270 807 270 796 271 Z" fill="lightgray"></path>
				<path d="M 911 152 L 919 191 L 924 206 Q 930 229 940 247 Q 949 265 947 270 Q 947 276 935 284 L 910 296 Q 894 302 889 301 L 848 286 L 796 271 C 767 263 781 235 809 246 L 834 256 Q 873 265 876 261 Q 878 256 878 241 L 878 218 L 873 158 C 871 128 905 123 911 152 Z" fill="lightgray"></path>
				<path d="M 819 115 L 873 124 L 905 128 Q 942 131 911 152 C 892 165 892 165 873 158 L 855 151 Q 845 147 817 139 C 788 131 789 110 819 115 Z" fill="lightgray"></path>
				<path d="M 495 110 L 501 308 Q 502 363 507 402 L 516 499 Q 517 522 522 538 Q 527 553 527 560 Q 527 566 521 572 L 508 585 C 491 610 436 617 443 588 L 448 569 Q 449 567 452 547 Q 455 526 455 521 L 447 128 Q 445 4 516 -39 Q 567 -74 701 -69 L 739 -69 Q 755 -69 774 -67 L 801 -65 Q 809 -65 830 -63 L 858 -60 L 947 -46 Q 971 -42 977 -34 Q 983 -27 981 -18 Q 976 -1 920 12 Q 897 14 864 4 Q 830 -6 780 -12 Q 651 -25 581 -12 Q 536 -6 524 8 Q 511 21 503 39 Q 495 56 495 110 Z" fill="lightgray"></path>
</g>
		<text x="40" y="140" font-size="128" fill="#999999">10</text></g>
</g>
	<g id="id2:id2" transform="translate(0.0,2048)">
		<g id="id2:id0:id0" transform="matrix(1.0,0,0,1.0,0,0.0)">			<g stroke="lightgray" stroke-width="4" transform="scale(4, 4)"> <rect x="0" y="0" width="256" height="256" fill="white" stroke-width="4"/></g>
			<g transform="scale(0.92, -0.92) translate(60, -920)">					<path d="M 244 589 L 226 591 Q 208 589 214 573 L 223 554 Q 230 536 230 502 L 230 184 C 230 154 271 159 273 189 L 288 481 L 291 515 Q 296 534 300 545 Q 303 556 302 558 Q 300 569 280 576 Q 274 579 262 583 Q 249 587 244 589 Z" fill="black"></path>
				<path d="M 230 184 L 163 172 Q 136 163 135 182 L 134 207 L 145 264 L 151 287 Q 155 305 154 312 Q 152 318 148 322 Q 143 325 139 329 L 129 337 Q 122 342 107 346 Q 91 350 85 347 Q 72 341 83 326 Q 93 310 92 281 Q 95 231 89 210 L 80 180 Q 77 171 75 168 Q 66 158 66 153 Q 66 148 69 140 L 81 121 Q 94 104 101 102 L 106 102 Q 107 101 112 103 L 118 106 L 125 112 Q 130 117 141 123 Q 151 129 187 140 Q 222 150 251 154 L 349 164 C 379 167 380 200 350 197 L 273 189 L 230 184 Z" fill="black"></path>
				<path d="M 349 164 L 348 142 Q 348 132 353 121 Q 358 110 366 110 Q 373 110 382 122 Q 390 134 394 167 L 411 297 Q 417 331 421 336 Q 427 350 426 355 Q 426 371 391 382 Q 356 393 346 387 Q 344 383 346 374 L 352 354 Q 356 332 354 301 L 350 197 L 349 164 Z" fill="black"></path>
				<path d="M 508 585 L 594 588 Q 605 587 671 594 L 773 604 Q 828 608 842 611 L 887 618 Q 899 620 902 623 Q 905 625 905 635 Q 905 641 882 653 Q 859 664 840 664 Q 820 664 775 654 Q 729 643 556 625 L 428 616 Q 422 614 417 609 Q 411 604 424 597 Q 436 589 443 588 L 508 585 Z" fill="black"></path>
				<path d="M 614 441 L 629 344 Q 630 332 634 326 L 643 317 Q 652 312 657 316 Q 661 320 667 339 L 665 368 L 653 469 C 650 494 650 494 641 496 L 611 504 Q 589 508 589 498 Q 585 495 598 480 Q 613 464 614 441 Z" fill="black"></path>
				<path d="M 819 387 L 838 443 Q 844 464 857 479 Q 869 493 870 499 Q 870 504 859 511 Q 841 524 817 534 Q 798 538 795 537 Q 791 536 771 526 Q 743 511 680 502 L 641 496 C 611 491 623 468 653 469 L 674 470 Q 694 470 728 480 Q 762 490 773 488 Q 783 483 785 478 Q 786 473 783 454 L 772 395 C 767 366 809 359 819 387 Z" fill="black"></path>
				<path d="M 667 339 L 738 351 Q 796 360 827 364 Q 847 369 831 378 Q 827 383 819 387 C 795 401 795 401 772 395 L 665 368 C 636 361 637 334 667 339 Z" fill="black"></path>
				<path d="M 577 242 L 541 246 Q 527 246 530 233 Q 530 230 542 218 Q 554 206 558 182 L 572 92 Q 578 67 590 71 Q 596 72 607 93 C 607 94 607 92 603 119 L 589 219 C 586 241 586 241 577 242 Z" fill="black"></path>
				<path d="M 689 136 L 697 194 Q 697 201 702 214 L 706 225 Q 709 232 709 235 Q 718 251 693 263 Q 667 274 661 274 Q 655 274 633 261 Q 611 248 577 242 C 548 236 561 209 589 219 Q 621 230 636 236 Q 649 236 651 234 Q 653 226 653 201 L 651 141 C 650 111 685 106 689 136 Z" fill="black"></path>
				<path d="M 649 106 L 684 114 Q 701 116 701 120 Q 702 129 689 136 C 668 149 668 149 651 141 L 603 119 C 576 107 578 84 607 93 L 649 106 Z" fill="black"></path>
				<path d="M 796 271 L 765 275 Q 750 276 747 274 Q 745 268 755 254 L 767 238 Q 771 233 774 202 L 781 127 Q 783 115 789 104 Q 794 92 802 92 Q 815 94 819 115 L 817 139 L 809 246 C 807 270 807 270 796 271 Z" fill="red"></path>
				<path d="M 911 152 L 919 191 L 924 206 Q 930 229 940 247 Q 949 265 947 270 Q 947 276 935 284 L 910 296 Q 894 302 889 301 L 848 286 L 796 271 C 767 263 781 235 809 246 L 834 256 Q 873 265 876 261 Q 878 256 878 241 L 878 218 L 873 158 C 871 128 905 123 911 152 Z" fill="lightgray"></path>
				<path d="M 819 115 L 873 124 L 905 128 Q 942 131 911 152 C 892 165 892 165 873 158 L 855 151 Q 845 147 817 139 C 788 131 789 110 819 115 Z" fill="lightgray"></path>
				<path d="M 495 110 L 501 308 Q 502 363 507 402 L 516 499 Q 517 522 522 538 Q 527 553 527 560 Q 527 566 521 572 L 508 585 C 491 610 436 617 443 588 L 448 569 Q 449 567 452 547 Q 455 526 455 521 L 447 128 Q 445 4 516 -39 Q 567 -74 701 -69 L 739 -69 Q 755 -69 774 -67 L 801 -65 Q 809 -65 830 -63 L 858 -60 L 947 -46 Q 971 -42 977 -34 Q 983 -27 981 -18 Q 976 -1 920 12 Q 897 14 864 4 Q 830 -6 780 -12 Q 651 -25 581 -12 Q 536 -6 524 8 Q 511 21 503 39 Q 495 56 495 110 Z" fill="lightgray"></path>
</g>
		<text x="40" y="140" font-size="128" fill="#999999">11</text></g>
		<g id="id2:id1:id1" transform="matrix(1.0,0,0,1.0,1024,0.0)">			<g stroke="lightgray" stroke-width="4" transform="scale(4, 4)"> <rect x="0" y="0" width="256" height="256" fill="white" stroke-width="4"/></g>
			<g transform="scale(0.92, -0.92) translate(60, -920)">					<path d="M 244 589 L 226 591 Q 208 589 214 573 L 223 554 Q 230 536 230 502 L 230 184 C 230 154 271 159 273 189 L 288 481 L 291 515 Q 296 534 300 545 Q 303 556 302 558 Q 300 569 280 576 Q 274 579 262 583 Q 249 587 244 589 Z" fill="black"></path>
				<path d="M 230 184 L 163 172 Q 136 163 135 182 L 134 207 L 145 264 L 151 287 Q 155 305 154 312 Q 152 318 148 322 Q 143 325 139 329 L 129 337 Q 122 342 107 346 Q 91 350 85 347 Q 72 341 83 326 Q 93 310 92 281 Q 95 231 89 210 L 80 180 Q 77 171 75 168 Q 66 158 66 153 Q 66 148 69 140 L 81 121 Q 94 104 101 102 L 106 102 Q 107 101 112 103 L 118 106 L 125 112 Q 130 117 141 123 Q 151 129 187 140 Q 222 150 251 154 L 349 164 C 379 167 380 200 350 197 L 273 189 L 230 184 Z" fill="black"></path>
				<path d="M 349 164 L 348 142 Q 348 132 353 121 Q 358 110 366 110 Q 373 110 382 122 Q 390 134 394 167 L 411 297 Q 417 331 421 336 Q 427 350 426 355 Q 426 371 391 382 Q 356 393 346 387 Q 344 383 346 374 L 352 354 Q 356 332 354 301 L 350 197 L 349 164 Z" fill="black"></path>
				<path d="M 508 585 L 594 588 Q 605 587 671 594 L 773 604 Q 828 608 842 611 L 887 618 Q 899 620 902 623 Q 905 625 905 635 Q 905 641 882 653 Q 859 664 840 664 Q 820 664 775 654 Q 729 643 556 625 L 428 616 Q 422 614 417 609 Q 411 604 424 597 Q 436 589 443 588 L 508 585 Z" fill="black"></path>
				<path d="M 614 441 L 629 344 Q 630 332 634 326 L 643 317 Q 652 312 657 316 Q 661 320 667 339 L 665 368 L 653 469 C 650 494 650 494 641 496 L 611 504 Q 589 508 589 498 Q 585 495 598 480 Q 613 464 614 441 Z" fill="black"></path>
				<path d="M 819 387 L 838 443 Q 844 464 857 479 Q 869 493 870 499 Q 870 504 859 511 Q 841 524 817 534 Q 798 538 795 537 Q 791 536 771 526 Q 743 511 680 502 L 641 496 C 611 491 623 468 653 469 L 674 470 Q 694 470 728 480 Q 762 490 773 488 Q 783 483 785 478 Q 786 473 783 454 L 772 395 C 767 366 809 359 819 387 Z" fill="black"></path>
				<path d="M 667 339 L 738 351 Q 796 360 827 364 Q 847 369 831 378 Q 827 383 819 387 C 795 401 795 401 772 395 L 665 368 C 636 361 637 334 667 339 Z" fill="black"></path>
				<path d="M 577 242 L 541 246 Q 527 246 530 233 Q 530 230 542 218 Q 554 206 558 182 L 572 92 Q 578 67 590 71 Q 596 72 607 93 C 607 94 607 92 603 119 L 589 219 C 586 241 586 241 577 242 Z" fill="black"></path>
				<path d="M 689 136 L 697 194 Q 697 201 702 214 L 706 225 Q 709 232 709 235 Q 718 251 693 263 Q 667 274 661 274 Q 655 274 633 261 Q 611 248 577 242 C 548 236 561 209 589 219 Q 621 230 636 236 Q 649 236 651 234 Q 653 226 653 201 L 651 141 C 650 111 685 106 689 136 Z" fill="black"></path>
				<path d="M 649 106 L 684 114 Q 701 116 701 120 Q 702 129 689 136 C 668 149 668 149 651 141 L 603 119 C 576 107 578 84 607 93 L 649 106 Z" fill="black"></path>
				<path d="M 796 271 L 765 275 Q 750 276 747 274 Q 745 268 755 254 L 767 238 Q 771 233 774 202 L 781 127 Q 783 115 789 104 Q 794 92 802 92 Q 815 94 819 115 L 817 139 L 809 246 C 807 270 807 270 796 271 Z" fill="black"></path>
				<path d="M 911 152 L 919 191 L 924 206 Q 930 229 940 247 Q 949 265 947 270 Q 947 276 935 284 L 910 296 Q 894 302 889 301 L 848 286 L 796 271 C 767 263 781 235 809 246 L 834 256 Q 873 265 876 261 Q 878 256 878 241 L 878 218 L 873 158 C 871 128 905 123 911 152 Z" fill="red"></path>
				<path d="M 819 115 L 873 124 L 905 128 Q 942 131 911 152 C 892 165 892 165 873 158 L 855 151 Q 845 147 817 139 C 788 131 789 110 819 115 Z" fill="lightgray"></path>
				<path d="M 495 110 L 501 308 Q 502 363 507 402 L 516 499 Q 517 522 522 538 Q 527 553 527 560 Q 527 566 521 572 L 508 585 C 491 610 436 617 443 588 L 448 569 Q 449 567 452 547 Q 455 526 455 521 L 447 128 Q 445 4 516 -39 Q 567 -74 701 -69 L 739 -69 Q 755 -69 774 -67 L 801 -65 Q 809 -65 830 -63 L 858 -60 L 947 -46 Q 971 -42 977 -34 Q 983 -27 981 -18 Q 976 -1 920 12 Q 897 14 864 4 Q 830 -6 780 -12 Q 651 -25 581 -12 Q 536 -6 524 8 Q 511 21 503 39 Q 495 56 495 110 Z" fill="lightgray"></path>
</g>
		<text x="40" y="140" font-size="128" fill="#999999">12</text></g>
		<g id="id2:id2:id2" transform="matrix(1.0,0,0,1.0,2048,0.0)">			<g stroke="lightgray" stroke-width="4" transform="scale(4, 4)"> <rect x="0" y="0" width="256" height="256" fill="white" stroke-width="4"/></g>
			<g transform="scale(0.92, -0.92) translate(60, -920)">					<path d="M 244 589 L 226 591 Q 208 589 214 573 L 223 554 Q 230 536 230 502 L 230 184 C 230 154 271 159 273 189 L 288 481 L 291 515 Q 296 534 300 545 Q 303 556 302 558 Q 300 569 280 576 Q 274 579 262 583 Q 249 587 244 589 Z" fill="black"></path>
				<path d="M 230 184 L 163 172 Q 136 163 135 182 L 134 207 L 145 264 L 151 287 Q 155 305 154 312 Q 152 318 148 322 Q 143 325 139 329 L 129 337 Q 122 342 107 346 Q 91 350 85 347 Q 72 341 83 326 Q 93 310 92 281 Q 95 231 89 210 L 80 180 Q 77 171 75 168 Q 66 158 66 153 Q 66 148 69 140 L 81 121 Q 94 104 101 102 L 106 102 Q 107 101 112 103 L 118 106 L 125 112 Q 130 117 141 123 Q 151 129 187 140 Q 222 150 251 154 L 349 164 C 379 167 380 200 350 197 L 273 189 L 230 184 Z" fill="black"></path>
				<path d="M 349 164 L 348 142 Q 348 132 353 121 Q 358 110 366 110 Q 373 110 382 122 Q 390 134 394 167 L 411 297 Q 417 331 421 336 Q 427 350 426 355 Q 426 371 391 382 Q 356 393 346 387 Q 344 383 346 374 L 352 354 Q 356 332 354 301 L 350 197 L 349 164 Z" fill="black"></path>
				<path d="M 508 585 L 594 588 Q 605 587 671 594 L 773 604 Q 828 608 842 611 L 887 618 Q 899 620 902 623 Q 905 625 905 635 Q 905 641 882 653 Q 859 664 840 664 Q 820 664 775 654 Q 729 643 556 625 L 428 616 Q 422 614 417 609 Q 411 604 424 597 Q 436 589 443 588 L 508 585 Z" fill="black"></path>
				<path d="M 614 441 L 629 344 Q 630 332 634 326 L 643 317 Q 652 312 657 316 Q 661 320 667 339 L 665 368 L 653 469 C 650 494 650 494 641 496 L 611 504 Q 589 508 589 498 Q 585 495 598 480 Q 613 464 614 441 Z" fill="black"></path>
				<path d="M 819 387 L 838 443 Q 844 464 857 479 Q 869 493 870 499 Q 870 504 859 511 Q 841 524 817 534 Q 798 538 795 537 Q 791 536 771 526 Q 743 511 680 502 L 641 496 C 611 491 623 468 653 469 L 674 470 Q 694 470 728 480 Q 762 490 773 488 Q 783 483 785 478 Q 786 473 783 454 L 772 395 C 767 366 809 359 819 387 Z" fill="black"></path>
				<path d="M 667 339 L 738 351 Q 796 360 827 364 Q 847 369 831 378 Q 827 383 819 387 C 795 401 795 401 772 395 L 665 368 C 636 361 637 334 667 339 Z" fill="black"></path>
				<path d="M 577 242 L 541 246 Q 527 246 530 233 Q 530 230 542 218 Q 554 206 558 182 L 572 92 Q 578 67 590 71 Q 596 72 607 93 C 607 94 607 92 603 119 L 589 219 C 586 241 586 241 577 242 Z" fill="black"></path>
				<path d="M 689 136 L 697 194 Q 697 201 702 214 L 706 225 Q 709 232 709 235 Q 718 251 693 263 Q 667 274 661 274 Q 655 274 633 261 Q 611 248 577 242 C 548 236 561 209 589 219 Q 621 230 636 236 Q 649 236 651 234 Q 653 226 653 201 L 651 141 C 650 111 685 106 689 136 Z" fill="black"></path>
				<path d="M 649 106 L 684 114 Q 701 116 701 120 Q 702 129 689 136 C 668 149 668 149 651 141 L 603 119 C 576 107 578 84 607 93 L 649 106 Z" fill="black"></path>
				<path d="M 796 271 L 765 275 Q 750 276 747 274 Q 745 268 755 254 L 767 238 Q 771 233 774 202 L 781 127 Q 783 115 789 104 Q 794 92 802 92 Q 815 94 819 115 L 817 139 L 809 246 C 807 270 807 270 796 271 Z" fill="black"></path>
				<path d="M 911 152 L 919 191 L 924 206 Q 930 229 940 247 Q 949 265 947 270 Q 947 276 935 284 L 910 296 Q 894 302 889 301 L 848 286 L 796 271 C 767 263 781 235 809 246 L 834 256 Q 873 265 876 261 Q 878 256 878 241 L 878 218 L 873 158 C 871 128 905 123 911 152 Z" fill="black"></path>
				<path d="M 819 115 L 873 124 L 905 128 Q 942 131 911 152 C 892 165 892 165 873 158 L 855 151 Q 845 147 817 139 C 788 131 789 110 819 115 Z" fill="red"></path>
				<path d="M 495 110 L 501 308 Q 502 363 507 402 L 516 499 Q 517 522 522 538 Q 527 553 527 560 Q 527 566 521 572 L 508 585 C 491 610 436 617 443 588 L 448 569 Q 449 567 452 547 Q 455 526 455 521 L 447 128 Q 445 4 516 -39 Q 567 -74 701 -69 L 739 -69 Q 755 -69 774 -67 L 801 -65 Q 809 -65 830 -63 L 858 -60 L 947 -46 Q 971 -42 977 -34 Q 983 -27 981 -18 Q 976 -1 920 12 Q 897 14 864 4 Q 830 -6 780 -12 Q 651 -25 581 -12 Q 536 -6 524 8 Q 511 21 503 39 Q 495 56 495 110 Z" fill="lightgray"></path>
</g>
		<text x="40" y="140" font-size="128" fill="#999999">13</text></g>
		<g id="id2:id3:id3" transform="matrix(1.0,0,0,1.0,3072,0.0)">			<g stroke="lightgray" stroke-width="4" transform="scale(4, 4)"> <rect x="0" y="0" width="256" height="256" fill="white" stroke-width="4"/></g>
			<g transform="scale(0.92, -0.92) translate(60, -920)">					<path d="M 244 589 L 226 591 Q 208 589 214 573 L 223 554 Q 230 536 230 502 L 230 184 C 230 154 271 159 273 189 L 288 481 L 291 515 Q 296 534 300 545 Q 303 556 302 558 Q 300 569 280 576 Q 274 579 262 583 Q 249 587 244 589 Z" fill="black"></path>
				<path d="M 230 184 L 163 172 Q 136 163 135 182 L 134 207 L 145 264 L 151 287 Q 155 305 154 312 Q 152 318 148 322 Q 143 325 139 329 L 129 337 Q 122 342 107 346 Q 91 350 85 347 Q 72 341 83 326 Q 93 310 92 281 Q 95 231 89 210 L 80 180 Q 77 171 75 168 Q 66 158 66 153 Q 66 148 69 140 L 81 121 Q 94 104 101 102 L 106 102 Q 107 101 112 103 L 118 106 L 125 112 Q 130 117 141 123 Q 151 129 187 140 Q 222 150 251 154 L 349 164 C 379 167 380 200 350 197 L 273 189 L 230 184 Z" fill="black"></path>
				<path d="M 349 164 L 348 142 Q 348 132 353 121 Q 358 110 366 110 Q 373 110 382 122 Q 390 134 394 167 L 411 297 Q 417 331 421 336 Q 427 350 426 355 Q 426 371 391 382 Q 356 393 346 387 Q 344 383 346 374 L 352 354 Q 356 332 354 301 L 350 197 L 349 164 Z" fill="black"></path>
				<path d="M 508 585 L 594 588 Q 605 587 671 594 L 773 604 Q 828 608 842 611 L 887 618 Q 899 620 902 623 Q 905 625 905 635 Q 905 641 882 653 Q 859 664 840 664 Q 820 664 775 654 Q 729 643 556 625 L 428 616 Q 422 614 417 609 Q 411 604 424 597 Q 436 589 443 588 L 508 585 Z" fill="black"></path>
				<path d="M 614 441 L 629 344 Q 630 332 634 326 L 643 317 Q 652 312 657 316 Q 661 320 667 339 L 665 368 L 653 469 C 650 494 650 494 641 496 L 611 504 Q 589 508 589 498 Q 585 495 598 480 Q 613 464 614 441 Z" fill="black"></path>
				<path d="M 819 387 L 838 443 Q 844 464 857 479 Q 869 493 870 499 Q 870 504 859 511 Q 841 524 817 534 Q 798 538 795 537 Q 791 536 771 526 Q 743 511 680 502 L 641 496 C 611 491 623 468 653 469 L 674 470 Q 694 470 728 480 Q 762 490 773 488 Q 783 483 785 478 Q 786 473 783 454 L 772 395 C 767 366 809 359 819 387 Z" fill="black"></path>
				<path d="M 667 339 L 738 351 Q 796 360 827 364 Q 847 369 831 378 Q 827 383 819 387 C 795 401 795 401 772 395 L 665 368 C 636 361 637 334 667 339 Z" fill="black"></path>
				<path d="M 577 242 L 541 246 Q 527 246 530 233 Q 530 230 542 218 Q 554 206 558 182 L 572 92 Q 578 67 590 71 Q 596 72 607 93 C 607 94 607 92 603 119 L 589 219 C 586 241 586 241 577 242 Z" fill="black"></path>
				<path d="M 689 136 L 697 194 Q 697 201 702 214 L 706 225 Q 709 232 709 235 Q 718 251 693 263 Q 667 274 661 274 Q 655 274 633 261 Q 611 248 577 242 C 548 236 561 209 589 219 Q 621 230 636 236 Q 649 236 651 234 Q 653 226 653 201 L 651 141 C 650 111 685 106 689 136 Z" fill="black"></path>
				<path d="M 649 106 L 684 114 Q 701 116 701 120 Q 702 129 689 136 C 668 149 668 149 651 141 L 603 119 C 576 107 578 84 607 93 L 649 106 Z" fill="black"></path>
				<path d="M 796 271 L 765 275 Q 750 276 747 274 Q 745 268 755 254 L 767 238 Q 771 233 774 202 L 781 127 Q 783 115 789 104 Q 794 92 802 92 Q 815 94 819 115 L 817 139 L 809 246 C 807 270 807 270 796 271 Z" fill="black"></path>
				<path d="M 911 152 L 919 191 L 924 206 Q 930 229 940 247 Q 949 265 947 270 Q 947 276 935 284 L 910 296 Q 894 302 889 301 L 848 286 L 796 271 C 767 263 781 235 809 246 L 834 256 Q 873 265 876 261 Q 878 256 878 241 L 878 218 L 873 158 C 871 128 905 123 911 152 Z" fill="black"></path>
				<path d="M 819 115 L 873 124 L 905 128 Q 942 131 911 152 C 892 165 892 165 873 158 L 855 151 Q 845 147 817 139 C 788 131 789 110 819 115 Z" fill="black"></path>
				<path d="M 495 110 L 501 308 Q 502 363 507 402 L 516 499 Q 517 522 522 538 Q 527 553 527 560 Q 527 566 521 572 L 508 585 C 491 610 436 617 443 588 L 448 569 Q 449 567 452 547 Q 455 526 455 521 L 447 128 Q 445 4 516 -39 Q 567 -74 701 -69 L 739 -69 Q 755 -69 774 -67 L 801 -65 Q 809 -65 830 -63 L 858 -60 L 947 -46 Q 971 -42 977 -34 Q 983 -27 981 -18 Q 976 -1 920 12 Q 897 14 864 4 Q 830 -6 780 -12 Q 651 -25 581 -12 Q 536 -6 524 8 Q 511 21 503 39 Q 495 56 495 110 Z" fill="red"></path>
</g>
		<text x="40" y="140" font-size="128" fill="#999999">14</text></g>
		<g id="id2:id4:id4" transform="matrix(1.0,0,0,1.0,4096,0.0)">			<g stroke="white" stroke-width="4" transform="scale(4, 4)"> <rect x="1" y="1" width="255" height="255" fill="white" stroke-width="0"/></g>
</g>
</g>
</svg>
