<?xml version="1.0" standalone="no"?>
<!DOCTYPE svg PUBLIC "-//W3C//DTD SVG 1.1//EN"
 "http://www.w3.org/Graphics/SVG/1.1/DTD/svg11.dtd">
<!-- generate by Japanese dictionary app com.asnsami.kanjidictionary -->

<svg xmlns="http://www.w3.org/2000/svg" xmlns:sodipodi="http://sodipodi.sourceforge.net/DTD/sodipodi-0.dtd" version="1.1" width="640" height="128" viewBox="0 0 5120 1024">
	<g id="id0:id0" transform="translate(0.0,0)">
		<g id="id0:id0:id0" transform="matrix(1.0,0,0,1.0,0,0.0)">			<g stroke="lightgray" stroke-width="4" transform="scale(4, 4)"> <rect x="0" y="0" width="256" height="256" fill="white" stroke-width="4"/></g>
			<g transform="scale(0.92, -0.92) translate(60, -920)">					<path d="M 507 626 Q 714 651 888 631 Q 913 628 919 637 Q 926 650 914 663 Q 883 691 838 712 Q 823 719 796 710 Q 756 697 698 690 Q 440 663 282 643 Q 188 630 118 630 Q 103 630 102 618 Q 102 605 121 590 Q 166 557 201 569 Q 279 602 437 618 L 507 626 Z" fill="red"></path>
				<path d="M 319 474 Q 298 495 263 491 Q 250 487 256 475 Q 292 403 263 294 Q 241 264 270 213 Q 273 207 279 200 Q 286 187 297 194 Q 325 212 326 324 Q 326 409 329 437 C 331 464 331 464 319 474 Z" fill="lightgray"></path>
				<path d="M 526 469 Q 602 482 645 485 Q 672 484 678 474 Q 693 464 692 423 Q 691 383 691 335 Q 692 301 680 285 Q 673 273 648 281 Q 632 282 612 286 Q 594 293 588 285 Q 582 281 600 267 Q 652 218 684 180 Q 697 165 718 172 Q 730 176 742 206 Q 764 251 762 307 Q 758 430 769 471 Q 778 487 770 498 Q 698 547 657 527 Q 612 512 534 499 Q 530 499 527 497 L 465 488 Q 401 481 319 474 C 289 471 299 432 329 437 L 465 459 L 526 469 Z" fill="lightgray"></path>
				<path d="M 465 459 Q 466 329 463 144 Q 460 -63 482 -93 Q 488 -100 496 -98 Q 505 -94 511 -77 Q 532 -26 526 146 Q 522 215 526 469 L 527 497 Q 527 536 538 584 Q 541 605 507 626 C 483 644 423 644 437 618 Q 441 606 450 595 Q 465 568 465 488 L 465 459 Z" fill="lightgray"></path>
</g>
		<text x="40" y="140" font-size="128" fill="#999999">1</text></g>
		<g id="id0:id1:id1" transform="matrix(1.0,0,0,1.0,1024,0.0)">			<g stroke="lightgray" stroke-width="4" transform="scale(4, 4)"> <rect x="0" y="0" width="256" height="256" fill="white" stroke-width="4"/></g>
			<g transform="scale(0.92, -0.92) translate(60, -920)">					<path d="M 507 626 Q 714 651 888 631 Q 913 628 919 637 Q 926 650 914 663 Q 883 691 838 712 Q 823 719 796 710 Q 756 697 698 690 Q 440 663 282 643 Q 188 630 118 630 Q 103 630 102 618 Q 102 605 121 590 Q 166 557 201 569 Q 279 602 437 618 L 507 626 Z" fill="black"></path>
				<path d="M 319 474 Q 298 495 263 491 Q 250 487 256 475 Q 292 403 263 294 Q 241 264 270 213 Q 273 207 279 200 Q 286 187 297 194 Q 325 212 326 324 Q 326 409 329 437 C 331 464 331 464 319 474 Z" fill="red"></path>
				<path d="M 526 469 Q 602 482 645 485 Q 672 484 678 474 Q 693 464 692 423 Q 691 383 691 335 Q 692 301 680 285 Q 673 273 648 281 Q 632 282 612 286 Q 594 293 588 285 Q 582 281 600 267 Q 652 218 684 180 Q 697 165 718 172 Q 730 176 742 206 Q 764 251 762 307 Q 758 430 769 471 Q 778 487 770 498 Q 698 547 657 527 Q 612 512 534 499 Q 530 499 527 497 L 465 488 Q 401 481 319 474 C 289 471 299 432 329 437 L 465 459 L 526 469 Z" fill="lightgray"></path>
				<path d="M 465 459 Q 466 329 463 144 Q 460 -63 482 -93 Q 488 -100 496 -98 Q 505 -94 511 -77 Q 532 -26 526 146 Q 522 215 526 469 L 527 497 Q 527 536 538 584 Q 541 605 507 626 C 483 644 423 644 437 618 Q 441 606 450 595 Q 465 568 465 488 L 465 459 Z" fill="lightgray"></path>
</g>
		<text x="40" y="140" font-size="128" fill="#999999">2</text></g>
		<g id="id0:id2:id2" transform="matrix(1.0,0,0,1.0,2048,0.0)">			<g stroke="lightgray" stroke-width="4" transform="scale(4, 4)"> <rect x="0" y="0" width="256" height="256" fill="white" stroke-width="4"/></g>
			<g transform="scale(0.92, -0.92) translate(60, -920)">					<path d="M 507 626 Q 714 651 888 631 Q 913 628 919 637 Q 926 650 914 663 Q 883 691 838 712 Q 823 719 796 710 Q 756 697 698 690 Q 440 663 282 643 Q 188 630 118 630 Q 103 630 102 618 Q 102 605 121 590 Q 166 557 201 569 Q 279 602 437 618 L 507 626 Z" fill="black"></path>
				<path d="M 319 474 Q 298 495 263 491 Q 250 487 256 475 Q 292 403 263 294 Q 241 264 270 213 Q 273 207 279 200 Q 286 187 297 194 Q 325 212 326 324 Q 326 409 329 437 C 331 464 331 464 319 474 Z" fill="black"></path>
				<path d="M 526 469 Q 602 482 645 485 Q 672 484 678 474 Q 693 464 692 423 Q 691 383 691 335 Q 692 301 680 285 Q 673 273 648 281 Q 632 282 612 286 Q 594 293 588 285 Q 582 281 600 267 Q 652 218 684 180 Q 697 165 718 172 Q 730 176 742 206 Q 764 251 762 307 Q 758 430 769 471 Q 778 487 770 498 Q 698 547 657 527 Q 612 512 534 499 Q 530 499 527 497 L 465 488 Q 401 481 319 474 C 289 471 299 432 329 437 L 465 459 L 526 469 Z" fill="red"></path>
				<path d="M 465 459 Q 466 329 463 144 Q 460 -63 482 -93 Q 488 -100 496 -98 Q 505 -94 511 -77 Q 532 -26 526 146 Q 522 215 526 469 L 527 497 Q 527 536 538 584 Q 541 605 507 626 C 483 644 423 644 437 618 Q 441 606 450 595 Q 465 568 465 488 L 465 459 Z" fill="lightgray"></path>
</g>
		<text x="40" y="140" font-size="128" fill="#999999">3</text></g>
		<g id="id0:id3:id3" transform="matrix(1.0,0,0,1.0,3072,0.0)">			<g stroke="lightgray" stroke-width="4" transform="scale(4, 4)"> <rect x="0" y="0" width="256" height="256" fill="white" stroke-width="4"/></g>
			<g transform="scale(0.92, -0.92) translate(60, -920)">					<path d="M 507 626 Q 714 651 888 631 Q 913 628 919 637 Q 926 650 914 663 Q 883 691 838 712 Q 823 719 796 710 Q 756 697 698 690 Q 440 663 282 643 Q 188 630 118 630 Q 103 630 102 618 Q 102 605 121 590 Q 166 557 201 569 Q 279 602 437 618 L 507 626 Z" fill="black"></path>
				<path d="M 319 474 Q 298 495 263 491 Q 250 487 256 475 Q 292 403 263 294 Q 241 264 270 213 Q 273 207 279 200 Q 286 187 297 194 Q 325 212 326 324 Q 326 409 329 437 C 331 464 331 464 319 474 Z" fill="black"></path>
				<path d="M 526 469 Q 602 482 645 485 Q 672 484 678 474 Q 693 464 692 423 Q 691 383 691 335 Q 692 301 680 285 Q 673 273 648 281 Q 632 282 612 286 Q 594 293 588 285 Q 582 281 600 267 Q 652 218 684 180 Q 697 165 718 172 Q 730 176 742 206 Q 764 251 762 307 Q 758 430 769 471 Q 778 487 770 498 Q 698 547 657 527 Q 612 512 534 499 Q 530 499 527 497 L 465 488 Q 401 481 319 474 C 289 471 299 432 329 437 L 465 459 L 526 469 Z" fill="black"></path>
				<path d="M 465 459 Q 466 329 463 144 Q 460 -63 482 -93 Q 488 -100 496 -98 Q 505 -94 511 -77 Q 532 -26 526 146 Q 522 215 526 469 L 527 497 Q 527 536 538 584 Q 541 605 507 626 C 483 644 423 644 437 618 Q 441 606 450 595 Q 465 568 465 488 L 465 459 Z" fill="red"></path>
</g>
		<text x="40" y="140" font-size="128" fill="#999999">4</text></g>
		<g id="id0:id4:id4" transform="matrix(1.0,0,0,1.0,4096,0.0)">			<g stroke="white" stroke-width="4" transform="scale(4, 4)"> <rect x="1" y="1" width="255" height="255" fill="white" stroke-width="0"/></g>
</g>
</g>
</svg>
