<?xml version="1.0" standalone="no"?>
<!DOCTYPE svg PUBLIC "-//W3C//DTD SVG 1.1//EN"
 "http://www.w3.org/Graphics/SVG/1.1/DTD/svg11.dtd">
<!-- generate by Japanese dictionary app com.asnsami.kanjidictionary -->

<svg xmlns="http://www.w3.org/2000/svg" xmlns:sodipodi="http://sodipodi.sourceforge.net/DTD/sodipodi-0.dtd" version="1.1" width="640" height="384" viewBox="0 0 5120 3072">
	<g id="id0:id0" transform="translate(0.0,0)">
		<g id="id0:id0:id0" transform="matrix(1.0,0,0,1.0,0,0.0)">			<g stroke="lightgray" stroke-width="4" transform="scale(4, 4)"> <rect x="0" y="0" width="256" height="256" fill="white" stroke-width="4"/></g>
			<g transform="scale(0.92, -0.92) translate(60, -920)">					<path d="M 171 419 L 137 426 Q 123 430 119 420 Q 119 410 125 388 Q 131 365 131 340 L 133 290 L 133 256 Q 133 246 129 228 Q 129 212 127 206 Q 127 195 135 182 Q 147 158 165 179 Q 173 190 177 222 L 181 393 C 182 417 182 417 171 419 Z" fill="red"></path>
				<path d="M 253 432 L 171 419 C 141 414 151 389 181 393 L 257 404 L 299 410 L 348 415 Q 378 418 386 408 Q 388 404 388 376 L 386 300 L 383 265 L 381 257 Q 381 244 373 242 Q 369 239 357 243 L 331 253 Q 325 254 322 251 Q 319 248 325 242 L 354 210 L 377 174 Q 383 163 397 171 Q 417 188 423 197 Q 437 218 441 279 L 443 359 L 445 371 Q 445 383 452 400 Q 459 416 457 422 Q 455 428 439 442 Q 423 456 407 460 L 392 462 Q 381 462 364 456 Q 347 450 299 442 L 253 432 Z" fill="lightgray"></path>
				<path d="M 257 404 L 243 130 Q 243 95 237 65 L 231 17 Q 224 -27 224 -37 Q 225 -67 237 -88 Q 247 -114 257 -114 Q 263 -114 273 -101 Q 283 -89 287 -75 Q 299 -37 299 -11 L 295 73 Q 291 156 299 410 L 299 442 L 304 528 Q 304 547 309 579 Q 313 611 319 625 Q 325 638 325 647 Q 325 649 319 660 Q 310 669 305 671 Q 299 672 277 681 Q 255 689 247 686 Q 233 682 240 665 Q 247 648 249 640 L 253 613 Q 255 583 255 532 L 253 432 L 257 404 Z" fill="lightgray"></path>
				<path d="M 691 466 L 695 556 L 695 586 L 697 626 Q 697 651 703 669 Q 707 689 705 693 Q 696 709 672 714 L 651 719 Q 631 724 621 722 L 613 718 Q 609 713 615 701 L 625 680 L 629 656 L 638 457 C 639 427 690 436 691 466 Z" fill="lightgray"></path>
				<path d="M 695 556 L 754 564 Q 775 565 815 572 Q 865 578 870 589 Q 875 599 857 606 L 836 614 Q 819 620 811 619 Q 802 618 783 610 Q 763 601 739 596 L 695 586 C 666 579 665 552 695 556 Z" fill="lightgray"></path>
				<path d="M 563 446 L 531 458 Q 505 467 503 456 Q 500 452 508 436 L 520 410 Q 523 398 521 371 L 520 248 Q 518 241 516 218 L 499 116 L 499 104 Q 499 97 505 85 Q 510 73 514 66 Q 517 58 525 54 Q 529 50 535 52 Q 541 53 543 62 Q 548 73 548 82 L 552 120 L 558 203 L 558 230 L 563 301 L 565 326 L 567 419 C 568 444 568 444 563 446 Z" fill="lightgray"></path>
				<path d="M 638 457 L 563 446 C 533 442 537 420 567 419 L 587 418 L 770 446 L 787 446 Q 800 447 809 441 Q 817 435 818 408 L 821 348 L 821 333 L 823 242 L 823 227 L 819 125 L 817 100 L 823 75 Q 823 58 841 52 Q 859 45 871 74 Q 878 91 878 100 Q 882 110 882 143 L 882 250 Q 880 301 882 322 L 884 364 Q 884 390 888 400 L 899 429 L 901 444 Q 901 454 870 474 Q 838 494 828 494 Q 818 494 796 489 L 771 481 Q 767 483 691 466 L 638 457 Z" fill="lightgray"></path>
				<path d="M 563 301 L 579 298 Q 597 293 647 302 L 821 333 C 850 338 849 338 821 348 L 777 363 Q 774 364 758 363 L 705 350 L 565 326 C 535 321 534 307 563 301 Z" fill="lightgray"></path>
				<path d="M 558 203 L 604 200 Q 623 198 665 205 L 823 227 C 850 231 850 231 823 242 L 796 253 Q 789 256 771 256 L 745 254 L 630 237 L 558 230 C 528 227 528 205 558 203 Z" fill="lightgray"></path>
				<path d="M 548 82 L 577 81 L 600 84 L 817 100 C 847 102 847 113 819 125 L 800 133 L 772 142 Q 765 143 705 137 L 552 120 C 522 117 518 83 548 82 Z" fill="lightgray"></path>
				<path d="M 577 81 L 575 59 Q 569 16 449 -102 L 425 -126 Q 417 -130 422 -135 Q 426 -140 436 -135 L 508 -94 Q 531 -79 563 -54 Q 595 -29 615 -9 L 623 0 Q 626 4 640 16 L 661 30 Q 671 39 671 42 L 667 50 Q 665 57 647 64 L 600 84 C 578 93 578 93 577 81 Z" fill="lightgray"></path>
				<path d="M 766 -12 L 821 -98 Q 833 -119 838 -122 Q 850 -136 863 -135 Q 876 -135 886 -119 Q 894 -102 888 -82 Q 882 -62 867 -36 Q 852 -11 806 15 L 766 35 Q 751 43 740 47 Q 728 50 726 49 Q 724 47 726 38 L 741 20 Q 748 10 766 -12 Z" fill="lightgray"></path>
</g>
		<text x="40" y="140" font-size="128" fill="#999999">1</text></g>
		<g id="id0:id1:id1" transform="matrix(1.0,0,0,1.0,1024,0.0)">			<g stroke="lightgray" stroke-width="4" transform="scale(4, 4)"> <rect x="0" y="0" width="256" height="256" fill="white" stroke-width="4"/></g>
			<g transform="scale(0.92, -0.92) translate(60, -920)">					<path d="M 171 419 L 137 426 Q 123 430 119 420 Q 119 410 125 388 Q 131 365 131 340 L 133 290 L 133 256 Q 133 246 129 228 Q 129 212 127 206 Q 127 195 135 182 Q 147 158 165 179 Q 173 190 177 222 L 181 393 C 182 417 182 417 171 419 Z" fill="black"></path>
				<path d="M 253 432 L 171 419 C 141 414 151 389 181 393 L 257 404 L 299 410 L 348 415 Q 378 418 386 408 Q 388 404 388 376 L 386 300 L 383 265 L 381 257 Q 381 244 373 242 Q 369 239 357 243 L 331 253 Q 325 254 322 251 Q 319 248 325 242 L 354 210 L 377 174 Q 383 163 397 171 Q 417 188 423 197 Q 437 218 441 279 L 443 359 L 445 371 Q 445 383 452 400 Q 459 416 457 422 Q 455 428 439 442 Q 423 456 407 460 L 392 462 Q 381 462 364 456 Q 347 450 299 442 L 253 432 Z" fill="red"></path>
				<path d="M 257 404 L 243 130 Q 243 95 237 65 L 231 17 Q 224 -27 224 -37 Q 225 -67 237 -88 Q 247 -114 257 -114 Q 263 -114 273 -101 Q 283 -89 287 -75 Q 299 -37 299 -11 L 295 73 Q 291 156 299 410 L 299 442 L 304 528 Q 304 547 309 579 Q 313 611 319 625 Q 325 638 325 647 Q 325 649 319 660 Q 310 669 305 671 Q 299 672 277 681 Q 255 689 247 686 Q 233 682 240 665 Q 247 648 249 640 L 253 613 Q 255 583 255 532 L 253 432 L 257 404 Z" fill="lightgray"></path>
				<path d="M 691 466 L 695 556 L 695 586 L 697 626 Q 697 651 703 669 Q 707 689 705 693 Q 696 709 672 714 L 651 719 Q 631 724 621 722 L 613 718 Q 609 713 615 701 L 625 680 L 629 656 L 638 457 C 639 427 690 436 691 466 Z" fill="lightgray"></path>
				<path d="M 695 556 L 754 564 Q 775 565 815 572 Q 865 578 870 589 Q 875 599 857 606 L 836 614 Q 819 620 811 619 Q 802 618 783 610 Q 763 601 739 596 L 695 586 C 666 579 665 552 695 556 Z" fill="lightgray"></path>
				<path d="M 563 446 L 531 458 Q 505 467 503 456 Q 500 452 508 436 L 520 410 Q 523 398 521 371 L 520 248 Q 518 241 516 218 L 499 116 L 499 104 Q 499 97 505 85 Q 510 73 514 66 Q 517 58 525 54 Q 529 50 535 52 Q 541 53 543 62 Q 548 73 548 82 L 552 120 L 558 203 L 558 230 L 563 301 L 565 326 L 567 419 C 568 444 568 444 563 446 Z" fill="lightgray"></path>
				<path d="M 638 457 L 563 446 C 533 442 537 420 567 419 L 587 418 L 770 446 L 787 446 Q 800 447 809 441 Q 817 435 818 408 L 821 348 L 821 333 L 823 242 L 823 227 L 819 125 L 817 100 L 823 75 Q 823 58 841 52 Q 859 45 871 74 Q 878 91 878 100 Q 882 110 882 143 L 882 250 Q 880 301 882 322 L 884 364 Q 884 390 888 400 L 899 429 L 901 444 Q 901 454 870 474 Q 838 494 828 494 Q 818 494 796 489 L 771 481 Q 767 483 691 466 L 638 457 Z" fill="lightgray"></path>
				<path d="M 563 301 L 579 298 Q 597 293 647 302 L 821 333 C 850 338 849 338 821 348 L 777 363 Q 774 364 758 363 L 705 350 L 565 326 C 535 321 534 307 563 301 Z" fill="lightgray"></path>
				<path d="M 558 203 L 604 200 Q 623 198 665 205 L 823 227 C 850 231 850 231 823 242 L 796 253 Q 789 256 771 256 L 745 254 L 630 237 L 558 230 C 528 227 528 205 558 203 Z" fill="lightgray"></path>
				<path d="M 548 82 L 577 81 L 600 84 L 817 100 C 847 102 847 113 819 125 L 800 133 L 772 142 Q 765 143 705 137 L 552 120 C 522 117 518 83 548 82 Z" fill="lightgray"></path>
				<path d="M 577 81 L 575 59 Q 569 16 449 -102 L 425 -126 Q 417 -130 422 -135 Q 426 -140 436 -135 L 508 -94 Q 531 -79 563 -54 Q 595 -29 615 -9 L 623 0 Q 626 4 640 16 L 661 30 Q 671 39 671 42 L 667 50 Q 665 57 647 64 L 600 84 C 578 93 578 93 577 81 Z" fill="lightgray"></path>
				<path d="M 766 -12 L 821 -98 Q 833 -119 838 -122 Q 850 -136 863 -135 Q 876 -135 886 -119 Q 894 -102 888 -82 Q 882 -62 867 -36 Q 852 -11 806 15 L 766 35 Q 751 43 740 47 Q 728 50 726 49 Q 724 47 726 38 L 741 20 Q 748 10 766 -12 Z" fill="lightgray"></path>
</g>
		<text x="40" y="140" font-size="128" fill="#999999">2</text></g>
		<g id="id0:id2:id2" transform="matrix(1.0,0,0,1.0,2048,0.0)">			<g stroke="lightgray" stroke-width="4" transform="scale(4, 4)"> <rect x="0" y="0" width="256" height="256" fill="white" stroke-width="4"/></g>
			<g transform="scale(0.92, -0.92) translate(60, -920)">					<path d="M 171 419 L 137 426 Q 123 430 119 420 Q 119 410 125 388 Q 131 365 131 340 L 133 290 L 133 256 Q 133 246 129 228 Q 129 212 127 206 Q 127 195 135 182 Q 147 158 165 179 Q 173 190 177 222 L 181 393 C 182 417 182 417 171 419 Z" fill="black"></path>
				<path d="M 253 432 L 171 419 C 141 414 151 389 181 393 L 257 404 L 299 410 L 348 415 Q 378 418 386 408 Q 388 404 388 376 L 386 300 L 383 265 L 381 257 Q 381 244 373 242 Q 369 239 357 243 L 331 253 Q 325 254 322 251 Q 319 248 325 242 L 354 210 L 377 174 Q 383 163 397 171 Q 417 188 423 197 Q 437 218 441 279 L 443 359 L 445 371 Q 445 383 452 400 Q 459 416 457 422 Q 455 428 439 442 Q 423 456 407 460 L 392 462 Q 381 462 364 456 Q 347 450 299 442 L 253 432 Z" fill="black"></path>
				<path d="M 257 404 L 243 130 Q 243 95 237 65 L 231 17 Q 224 -27 224 -37 Q 225 -67 237 -88 Q 247 -114 257 -114 Q 263 -114 273 -101 Q 283 -89 287 -75 Q 299 -37 299 -11 L 295 73 Q 291 156 299 410 L 299 442 L 304 528 Q 304 547 309 579 Q 313 611 319 625 Q 325 638 325 647 Q 325 649 319 660 Q 310 669 305 671 Q 299 672 277 681 Q 255 689 247 686 Q 233 682 240 665 Q 247 648 249 640 L 253 613 Q 255 583 255 532 L 253 432 L 257 404 Z" fill="red"></path>
				<path d="M 691 466 L 695 556 L 695 586 L 697 626 Q 697 651 703 669 Q 707 689 705 693 Q 696 709 672 714 L 651 719 Q 631 724 621 722 L 613 718 Q 609 713 615 701 L 625 680 L 629 656 L 638 457 C 639 427 690 436 691 466 Z" fill="lightgray"></path>
				<path d="M 695 556 L 754 564 Q 775 565 815 572 Q 865 578 870 589 Q 875 599 857 606 L 836 614 Q 819 620 811 619 Q 802 618 783 610 Q 763 601 739 596 L 695 586 C 666 579 665 552 695 556 Z" fill="lightgray"></path>
				<path d="M 563 446 L 531 458 Q 505 467 503 456 Q 500 452 508 436 L 520 410 Q 523 398 521 371 L 520 248 Q 518 241 516 218 L 499 116 L 499 104 Q 499 97 505 85 Q 510 73 514 66 Q 517 58 525 54 Q 529 50 535 52 Q 541 53 543 62 Q 548 73 548 82 L 552 120 L 558 203 L 558 230 L 563 301 L 565 326 L 567 419 C 568 444 568 444 563 446 Z" fill="lightgray"></path>
				<path d="M 638 457 L 563 446 C 533 442 537 420 567 419 L 587 418 L 770 446 L 787 446 Q 800 447 809 441 Q 817 435 818 408 L 821 348 L 821 333 L 823 242 L 823 227 L 819 125 L 817 100 L 823 75 Q 823 58 841 52 Q 859 45 871 74 Q 878 91 878 100 Q 882 110 882 143 L 882 250 Q 880 301 882 322 L 884 364 Q 884 390 888 400 L 899 429 L 901 444 Q 901 454 870 474 Q 838 494 828 494 Q 818 494 796 489 L 771 481 Q 767 483 691 466 L 638 457 Z" fill="lightgray"></path>
				<path d="M 563 301 L 579 298 Q 597 293 647 302 L 821 333 C 850 338 849 338 821 348 L 777 363 Q 774 364 758 363 L 705 350 L 565 326 C 535 321 534 307 563 301 Z" fill="lightgray"></path>
				<path d="M 558 203 L 604 200 Q 623 198 665 205 L 823 227 C 850 231 850 231 823 242 L 796 253 Q 789 256 771 256 L 745 254 L 630 237 L 558 230 C 528 227 528 205 558 203 Z" fill="lightgray"></path>
				<path d="M 548 82 L 577 81 L 600 84 L 817 100 C 847 102 847 113 819 125 L 800 133 L 772 142 Q 765 143 705 137 L 552 120 C 522 117 518 83 548 82 Z" fill="lightgray"></path>
				<path d="M 577 81 L 575 59 Q 569 16 449 -102 L 425 -126 Q 417 -130 422 -135 Q 426 -140 436 -135 L 508 -94 Q 531 -79 563 -54 Q 595 -29 615 -9 L 623 0 Q 626 4 640 16 L 661 30 Q 671 39 671 42 L 667 50 Q 665 57 647 64 L 600 84 C 578 93 578 93 577 81 Z" fill="lightgray"></path>
				<path d="M 766 -12 L 821 -98 Q 833 -119 838 -122 Q 850 -136 863 -135 Q 876 -135 886 -119 Q 894 -102 888 -82 Q 882 -62 867 -36 Q 852 -11 806 15 L 766 35 Q 751 43 740 47 Q 728 50 726 49 Q 724 47 726 38 L 741 20 Q 748 10 766 -12 Z" fill="lightgray"></path>
</g>
		<text x="40" y="140" font-size="128" fill="#999999">3</text></g>
		<g id="id0:id3:id3" transform="matrix(1.0,0,0,1.0,3072,0.0)">			<g stroke="lightgray" stroke-width="4" transform="scale(4, 4)"> <rect x="0" y="0" width="256" height="256" fill="white" stroke-width="4"/></g>
			<g transform="scale(0.92, -0.92) translate(60, -920)">					<path d="M 171 419 L 137 426 Q 123 430 119 420 Q 119 410 125 388 Q 131 365 131 340 L 133 290 L 133 256 Q 133 246 129 228 Q 129 212 127 206 Q 127 195 135 182 Q 147 158 165 179 Q 173 190 177 222 L 181 393 C 182 417 182 417 171 419 Z" fill="black"></path>
				<path d="M 253 432 L 171 419 C 141 414 151 389 181 393 L 257 404 L 299 410 L 348 415 Q 378 418 386 408 Q 388 404 388 376 L 386 300 L 383 265 L 381 257 Q 381 244 373 242 Q 369 239 357 243 L 331 253 Q 325 254 322 251 Q 319 248 325 242 L 354 210 L 377 174 Q 383 163 397 171 Q 417 188 423 197 Q 437 218 441 279 L 443 359 L 445 371 Q 445 383 452 400 Q 459 416 457 422 Q 455 428 439 442 Q 423 456 407 460 L 392 462 Q 381 462 364 456 Q 347 450 299 442 L 253 432 Z" fill="black"></path>
				<path d="M 257 404 L 243 130 Q 243 95 237 65 L 231 17 Q 224 -27 224 -37 Q 225 -67 237 -88 Q 247 -114 257 -114 Q 263 -114 273 -101 Q 283 -89 287 -75 Q 299 -37 299 -11 L 295 73 Q 291 156 299 410 L 299 442 L 304 528 Q 304 547 309 579 Q 313 611 319 625 Q 325 638 325 647 Q 325 649 319 660 Q 310 669 305 671 Q 299 672 277 681 Q 255 689 247 686 Q 233 682 240 665 Q 247 648 249 640 L 253 613 Q 255 583 255 532 L 253 432 L 257 404 Z" fill="black"></path>
				<path d="M 691 466 L 695 556 L 695 586 L 697 626 Q 697 651 703 669 Q 707 689 705 693 Q 696 709 672 714 L 651 719 Q 631 724 621 722 L 613 718 Q 609 713 615 701 L 625 680 L 629 656 L 638 457 C 639 427 690 436 691 466 Z" fill="red"></path>
				<path d="M 695 556 L 754 564 Q 775 565 815 572 Q 865 578 870 589 Q 875 599 857 606 L 836 614 Q 819 620 811 619 Q 802 618 783 610 Q 763 601 739 596 L 695 586 C 666 579 665 552 695 556 Z" fill="lightgray"></path>
				<path d="M 563 446 L 531 458 Q 505 467 503 456 Q 500 452 508 436 L 520 410 Q 523 398 521 371 L 520 248 Q 518 241 516 218 L 499 116 L 499 104 Q 499 97 505 85 Q 510 73 514 66 Q 517 58 525 54 Q 529 50 535 52 Q 541 53 543 62 Q 548 73 548 82 L 552 120 L 558 203 L 558 230 L 563 301 L 565 326 L 567 419 C 568 444 568 444 563 446 Z" fill="lightgray"></path>
				<path d="M 638 457 L 563 446 C 533 442 537 420 567 419 L 587 418 L 770 446 L 787 446 Q 800 447 809 441 Q 817 435 818 408 L 821 348 L 821 333 L 823 242 L 823 227 L 819 125 L 817 100 L 823 75 Q 823 58 841 52 Q 859 45 871 74 Q 878 91 878 100 Q 882 110 882 143 L 882 250 Q 880 301 882 322 L 884 364 Q 884 390 888 400 L 899 429 L 901 444 Q 901 454 870 474 Q 838 494 828 494 Q 818 494 796 489 L 771 481 Q 767 483 691 466 L 638 457 Z" fill="lightgray"></path>
				<path d="M 563 301 L 579 298 Q 597 293 647 302 L 821 333 C 850 338 849 338 821 348 L 777 363 Q 774 364 758 363 L 705 350 L 565 326 C 535 321 534 307 563 301 Z" fill="lightgray"></path>
				<path d="M 558 203 L 604 200 Q 623 198 665 205 L 823 227 C 850 231 850 231 823 242 L 796 253 Q 789 256 771 256 L 745 254 L 630 237 L 558 230 C 528 227 528 205 558 203 Z" fill="lightgray"></path>
				<path d="M 548 82 L 577 81 L 600 84 L 817 100 C 847 102 847 113 819 125 L 800 133 L 772 142 Q 765 143 705 137 L 552 120 C 522 117 518 83 548 82 Z" fill="lightgray"></path>
				<path d="M 577 81 L 575 59 Q 569 16 449 -102 L 425 -126 Q 417 -130 422 -135 Q 426 -140 436 -135 L 508 -94 Q 531 -79 563 -54 Q 595 -29 615 -9 L 623 0 Q 626 4 640 16 L 661 30 Q 671 39 671 42 L 667 50 Q 665 57 647 64 L 600 84 C 578 93 578 93 577 81 Z" fill="lightgray"></path>
				<path d="M 766 -12 L 821 -98 Q 833 -119 838 -122 Q 850 -136 863 -135 Q 876 -135 886 -119 Q 894 -102 888 -82 Q 882 -62 867 -36 Q 852 -11 806 15 L 766 35 Q 751 43 740 47 Q 728 50 726 49 Q 724 47 726 38 L 741 20 Q 748 10 766 -12 Z" fill="lightgray"></path>
</g>
		<text x="40" y="140" font-size="128" fill="#999999">4</text></g>
		<g id="id0:id4:id4" transform="matrix(1.0,0,0,1.0,4096,0.0)">			<g stroke="lightgray" stroke-width="4" transform="scale(4, 4)"> <rect x="0" y="0" width="256" height="256" fill="white" stroke-width="4"/></g>
			<g transform="scale(0.92, -0.92) translate(60, -920)">					<path d="M 171 419 L 137 426 Q 123 430 119 420 Q 119 410 125 388 Q 131 365 131 340 L 133 290 L 133 256 Q 133 246 129 228 Q 129 212 127 206 Q 127 195 135 182 Q 147 158 165 179 Q 173 190 177 222 L 181 393 C 182 417 182 417 171 419 Z" fill="black"></path>
				<path d="M 253 432 L 171 419 C 141 414 151 389 181 393 L 257 404 L 299 410 L 348 415 Q 378 418 386 408 Q 388 404 388 376 L 386 300 L 383 265 L 381 257 Q 381 244 373 242 Q 369 239 357 243 L 331 253 Q 325 254 322 251 Q 319 248 325 242 L 354 210 L 377 174 Q 383 163 397 171 Q 417 188 423 197 Q 437 218 441 279 L 443 359 L 445 371 Q 445 383 452 400 Q 459 416 457 422 Q 455 428 439 442 Q 423 456 407 460 L 392 462 Q 381 462 364 456 Q 347 450 299 442 L 253 432 Z" fill="black"></path>
				<path d="M 257 404 L 243 130 Q 243 95 237 65 L 231 17 Q 224 -27 224 -37 Q 225 -67 237 -88 Q 247 -114 257 -114 Q 263 -114 273 -101 Q 283 -89 287 -75 Q 299 -37 299 -11 L 295 73 Q 291 156 299 410 L 299 442 L 304 528 Q 304 547 309 579 Q 313 611 319 625 Q 325 638 325 647 Q 325 649 319 660 Q 310 669 305 671 Q 299 672 277 681 Q 255 689 247 686 Q 233 682 240 665 Q 247 648 249 640 L 253 613 Q 255 583 255 532 L 253 432 L 257 404 Z" fill="black"></path>
				<path d="M 691 466 L 695 556 L 695 586 L 697 626 Q 697 651 703 669 Q 707 689 705 693 Q 696 709 672 714 L 651 719 Q 631 724 621 722 L 613 718 Q 609 713 615 701 L 625 680 L 629 656 L 638 457 C 639 427 690 436 691 466 Z" fill="black"></path>
				<path d="M 695 556 L 754 564 Q 775 565 815 572 Q 865 578 870 589 Q 875 599 857 606 L 836 614 Q 819 620 811 619 Q 802 618 783 610 Q 763 601 739 596 L 695 586 C 666 579 665 552 695 556 Z" fill="red"></path>
				<path d="M 563 446 L 531 458 Q 505 467 503 456 Q 500 452 508 436 L 520 410 Q 523 398 521 371 L 520 248 Q 518 241 516 218 L 499 116 L 499 104 Q 499 97 505 85 Q 510 73 514 66 Q 517 58 525 54 Q 529 50 535 52 Q 541 53 543 62 Q 548 73 548 82 L 552 120 L 558 203 L 558 230 L 563 301 L 565 326 L 567 419 C 568 444 568 444 563 446 Z" fill="lightgray"></path>
				<path d="M 638 457 L 563 446 C 533 442 537 420 567 419 L 587 418 L 770 446 L 787 446 Q 800 447 809 441 Q 817 435 818 408 L 821 348 L 821 333 L 823 242 L 823 227 L 819 125 L 817 100 L 823 75 Q 823 58 841 52 Q 859 45 871 74 Q 878 91 878 100 Q 882 110 882 143 L 882 250 Q 880 301 882 322 L 884 364 Q 884 390 888 400 L 899 429 L 901 444 Q 901 454 870 474 Q 838 494 828 494 Q 818 494 796 489 L 771 481 Q 767 483 691 466 L 638 457 Z" fill="lightgray"></path>
				<path d="M 563 301 L 579 298 Q 597 293 647 302 L 821 333 C 850 338 849 338 821 348 L 777 363 Q 774 364 758 363 L 705 350 L 565 326 C 535 321 534 307 563 301 Z" fill="lightgray"></path>
				<path d="M 558 203 L 604 200 Q 623 198 665 205 L 823 227 C 850 231 850 231 823 242 L 796 253 Q 789 256 771 256 L 745 254 L 630 237 L 558 230 C 528 227 528 205 558 203 Z" fill="lightgray"></path>
				<path d="M 548 82 L 577 81 L 600 84 L 817 100 C 847 102 847 113 819 125 L 800 133 L 772 142 Q 765 143 705 137 L 552 120 C 522 117 518 83 548 82 Z" fill="lightgray"></path>
				<path d="M 577 81 L 575 59 Q 569 16 449 -102 L 425 -126 Q 417 -130 422 -135 Q 426 -140 436 -135 L 508 -94 Q 531 -79 563 -54 Q 595 -29 615 -9 L 623 0 Q 626 4 640 16 L 661 30 Q 671 39 671 42 L 667 50 Q 665 57 647 64 L 600 84 C 578 93 578 93 577 81 Z" fill="lightgray"></path>
				<path d="M 766 -12 L 821 -98 Q 833 -119 838 -122 Q 850 -136 863 -135 Q 876 -135 886 -119 Q 894 -102 888 -82 Q 882 -62 867 -36 Q 852 -11 806 15 L 766 35 Q 751 43 740 47 Q 728 50 726 49 Q 724 47 726 38 L 741 20 Q 748 10 766 -12 Z" fill="lightgray"></path>
</g>
		<text x="40" y="140" font-size="128" fill="#999999">5</text></g>
</g>
	<g id="id1:id1" transform="translate(0.0,1024)">
		<g id="id1:id0:id0" transform="matrix(1.0,0,0,1.0,0,0.0)">			<g stroke="lightgray" stroke-width="4" transform="scale(4, 4)"> <rect x="0" y="0" width="256" height="256" fill="white" stroke-width="4"/></g>
			<g transform="scale(0.92, -0.92) translate(60, -920)">					<path d="M 171 419 L 137 426 Q 123 430 119 420 Q 119 410 125 388 Q 131 365 131 340 L 133 290 L 133 256 Q 133 246 129 228 Q 129 212 127 206 Q 127 195 135 182 Q 147 158 165 179 Q 173 190 177 222 L 181 393 C 182 417 182 417 171 419 Z" fill="black"></path>
				<path d="M 253 432 L 171 419 C 141 414 151 389 181 393 L 257 404 L 299 410 L 348 415 Q 378 418 386 408 Q 388 404 388 376 L 386 300 L 383 265 L 381 257 Q 381 244 373 242 Q 369 239 357 243 L 331 253 Q 325 254 322 251 Q 319 248 325 242 L 354 210 L 377 174 Q 383 163 397 171 Q 417 188 423 197 Q 437 218 441 279 L 443 359 L 445 371 Q 445 383 452 400 Q 459 416 457 422 Q 455 428 439 442 Q 423 456 407 460 L 392 462 Q 381 462 364 456 Q 347 450 299 442 L 253 432 Z" fill="black"></path>
				<path d="M 257 404 L 243 130 Q 243 95 237 65 L 231 17 Q 224 -27 224 -37 Q 225 -67 237 -88 Q 247 -114 257 -114 Q 263 -114 273 -101 Q 283 -89 287 -75 Q 299 -37 299 -11 L 295 73 Q 291 156 299 410 L 299 442 L 304 528 Q 304 547 309 579 Q 313 611 319 625 Q 325 638 325 647 Q 325 649 319 660 Q 310 669 305 671 Q 299 672 277 681 Q 255 689 247 686 Q 233 682 240 665 Q 247 648 249 640 L 253 613 Q 255 583 255 532 L 253 432 L 257 404 Z" fill="black"></path>
				<path d="M 691 466 L 695 556 L 695 586 L 697 626 Q 697 651 703 669 Q 707 689 705 693 Q 696 709 672 714 L 651 719 Q 631 724 621 722 L 613 718 Q 609 713 615 701 L 625 680 L 629 656 L 638 457 C 639 427 690 436 691 466 Z" fill="black"></path>
				<path d="M 695 556 L 754 564 Q 775 565 815 572 Q 865 578 870 589 Q 875 599 857 606 L 836 614 Q 819 620 811 619 Q 802 618 783 610 Q 763 601 739 596 L 695 586 C 666 579 665 552 695 556 Z" fill="black"></path>
				<path d="M 563 446 L 531 458 Q 505 467 503 456 Q 500 452 508 436 L 520 410 Q 523 398 521 371 L 520 248 Q 518 241 516 218 L 499 116 L 499 104 Q 499 97 505 85 Q 510 73 514 66 Q 517 58 525 54 Q 529 50 535 52 Q 541 53 543 62 Q 548 73 548 82 L 552 120 L 558 203 L 558 230 L 563 301 L 565 326 L 567 419 C 568 444 568 444 563 446 Z" fill="red"></path>
				<path d="M 638 457 L 563 446 C 533 442 537 420 567 419 L 587 418 L 770 446 L 787 446 Q 800 447 809 441 Q 817 435 818 408 L 821 348 L 821 333 L 823 242 L 823 227 L 819 125 L 817 100 L 823 75 Q 823 58 841 52 Q 859 45 871 74 Q 878 91 878 100 Q 882 110 882 143 L 882 250 Q 880 301 882 322 L 884 364 Q 884 390 888 400 L 899 429 L 901 444 Q 901 454 870 474 Q 838 494 828 494 Q 818 494 796 489 L 771 481 Q 767 483 691 466 L 638 457 Z" fill="lightgray"></path>
				<path d="M 563 301 L 579 298 Q 597 293 647 302 L 821 333 C 850 338 849 338 821 348 L 777 363 Q 774 364 758 363 L 705 350 L 565 326 C 535 321 534 307 563 301 Z" fill="lightgray"></path>
				<path d="M 558 203 L 604 200 Q 623 198 665 205 L 823 227 C 850 231 850 231 823 242 L 796 253 Q 789 256 771 256 L 745 254 L 630 237 L 558 230 C 528 227 528 205 558 203 Z" fill="lightgray"></path>
				<path d="M 548 82 L 577 81 L 600 84 L 817 100 C 847 102 847 113 819 125 L 800 133 L 772 142 Q 765 143 705 137 L 552 120 C 522 117 518 83 548 82 Z" fill="lightgray"></path>
				<path d="M 577 81 L 575 59 Q 569 16 449 -102 L 425 -126 Q 417 -130 422 -135 Q 426 -140 436 -135 L 508 -94 Q 531 -79 563 -54 Q 595 -29 615 -9 L 623 0 Q 626 4 640 16 L 661 30 Q 671 39 671 42 L 667 50 Q 665 57 647 64 L 600 84 C 578 93 578 93 577 81 Z" fill="lightgray"></path>
				<path d="M 766 -12 L 821 -98 Q 833 -119 838 -122 Q 850 -136 863 -135 Q 876 -135 886 -119 Q 894 -102 888 -82 Q 882 -62 867 -36 Q 852 -11 806 15 L 766 35 Q 751 43 740 47 Q 728 50 726 49 Q 724 47 726 38 L 741 20 Q 748 10 766 -12 Z" fill="lightgray"></path>
</g>
		<text x="40" y="140" font-size="128" fill="#999999">6</text></g>
		<g id="id1:id1:id1" transform="matrix(1.0,0,0,1.0,1024,0.0)">			<g stroke="lightgray" stroke-width="4" transform="scale(4, 4)"> <rect x="0" y="0" width="256" height="256" fill="white" stroke-width="4"/></g>
			<g transform="scale(0.92, -0.92) translate(60, -920)">					<path d="M 171 419 L 137 426 Q 123 430 119 420 Q 119 410 125 388 Q 131 365 131 340 L 133 290 L 133 256 Q 133 246 129 228 Q 129 212 127 206 Q 127 195 135 182 Q 147 158 165 179 Q 173 190 177 222 L 181 393 C 182 417 182 417 171 419 Z" fill="black"></path>
				<path d="M 253 432 L 171 419 C 141 414 151 389 181 393 L 257 404 L 299 410 L 348 415 Q 378 418 386 408 Q 388 404 388 376 L 386 300 L 383 265 L 381 257 Q 381 244 373 242 Q 369 239 357 243 L 331 253 Q 325 254 322 251 Q 319 248 325 242 L 354 210 L 377 174 Q 383 163 397 171 Q 417 188 423 197 Q 437 218 441 279 L 443 359 L 445 371 Q 445 383 452 400 Q 459 416 457 422 Q 455 428 439 442 Q 423 456 407 460 L 392 462 Q 381 462 364 456 Q 347 450 299 442 L 253 432 Z" fill="black"></path>
				<path d="M 257 404 L 243 130 Q 243 95 237 65 L 231 17 Q 224 -27 224 -37 Q 225 -67 237 -88 Q 247 -114 257 -114 Q 263 -114 273 -101 Q 283 -89 287 -75 Q 299 -37 299 -11 L 295 73 Q 291 156 299 410 L 299 442 L 304 528 Q 304 547 309 579 Q 313 611 319 625 Q 325 638 325 647 Q 325 649 319 660 Q 310 669 305 671 Q 299 672 277 681 Q 255 689 247 686 Q 233 682 240 665 Q 247 648 249 640 L 253 613 Q 255 583 255 532 L 253 432 L 257 404 Z" fill="black"></path>
				<path d="M 691 466 L 695 556 L 695 586 L 697 626 Q 697 651 703 669 Q 707 689 705 693 Q 696 709 672 714 L 651 719 Q 631 724 621 722 L 613 718 Q 609 713 615 701 L 625 680 L 629 656 L 638 457 C 639 427 690 436 691 466 Z" fill="black"></path>
				<path d="M 695 556 L 754 564 Q 775 565 815 572 Q 865 578 870 589 Q 875 599 857 606 L 836 614 Q 819 620 811 619 Q 802 618 783 610 Q 763 601 739 596 L 695 586 C 666 579 665 552 695 556 Z" fill="black"></path>
				<path d="M 563 446 L 531 458 Q 505 467 503 456 Q 500 452 508 436 L 520 410 Q 523 398 521 371 L 520 248 Q 518 241 516 218 L 499 116 L 499 104 Q 499 97 505 85 Q 510 73 514 66 Q 517 58 525 54 Q 529 50 535 52 Q 541 53 543 62 Q 548 73 548 82 L 552 120 L 558 203 L 558 230 L 563 301 L 565 326 L 567 419 C 568 444 568 444 563 446 Z" fill="black"></path>
				<path d="M 638 457 L 563 446 C 533 442 537 420 567 419 L 587 418 L 770 446 L 787 446 Q 800 447 809 441 Q 817 435 818 408 L 821 348 L 821 333 L 823 242 L 823 227 L 819 125 L 817 100 L 823 75 Q 823 58 841 52 Q 859 45 871 74 Q 878 91 878 100 Q 882 110 882 143 L 882 250 Q 880 301 882 322 L 884 364 Q 884 390 888 400 L 899 429 L 901 444 Q 901 454 870 474 Q 838 494 828 494 Q 818 494 796 489 L 771 481 Q 767 483 691 466 L 638 457 Z" fill="red"></path>
				<path d="M 563 301 L 579 298 Q 597 293 647 302 L 821 333 C 850 338 849 338 821 348 L 777 363 Q 774 364 758 363 L 705 350 L 565 326 C 535 321 534 307 563 301 Z" fill="lightgray"></path>
				<path d="M 558 203 L 604 200 Q 623 198 665 205 L 823 227 C 850 231 850 231 823 242 L 796 253 Q 789 256 771 256 L 745 254 L 630 237 L 558 230 C 528 227 528 205 558 203 Z" fill="lightgray"></path>
				<path d="M 548 82 L 577 81 L 600 84 L 817 100 C 847 102 847 113 819 125 L 800 133 L 772 142 Q 765 143 705 137 L 552 120 C 522 117 518 83 548 82 Z" fill="lightgray"></path>
				<path d="M 577 81 L 575 59 Q 569 16 449 -102 L 425 -126 Q 417 -130 422 -135 Q 426 -140 436 -135 L 508 -94 Q 531 -79 563 -54 Q 595 -29 615 -9 L 623 0 Q 626 4 640 16 L 661 30 Q 671 39 671 42 L 667 50 Q 665 57 647 64 L 600 84 C 578 93 578 93 577 81 Z" fill="lightgray"></path>
				<path d="M 766 -12 L 821 -98 Q 833 -119 838 -122 Q 850 -136 863 -135 Q 876 -135 886 -119 Q 894 -102 888 -82 Q 882 -62 867 -36 Q 852 -11 806 15 L 766 35 Q 751 43 740 47 Q 728 50 726 49 Q 724 47 726 38 L 741 20 Q 748 10 766 -12 Z" fill="lightgray"></path>
</g>
		<text x="40" y="140" font-size="128" fill="#999999">7</text></g>
		<g id="id1:id2:id2" transform="matrix(1.0,0,0,1.0,2048,0.0)">			<g stroke="lightgray" stroke-width="4" transform="scale(4, 4)"> <rect x="0" y="0" width="256" height="256" fill="white" stroke-width="4"/></g>
			<g transform="scale(0.92, -0.92) translate(60, -920)">					<path d="M 171 419 L 137 426 Q 123 430 119 420 Q 119 410 125 388 Q 131 365 131 340 L 133 290 L 133 256 Q 133 246 129 228 Q 129 212 127 206 Q 127 195 135 182 Q 147 158 165 179 Q 173 190 177 222 L 181 393 C 182 417 182 417 171 419 Z" fill="black"></path>
				<path d="M 253 432 L 171 419 C 141 414 151 389 181 393 L 257 404 L 299 410 L 348 415 Q 378 418 386 408 Q 388 404 388 376 L 386 300 L 383 265 L 381 257 Q 381 244 373 242 Q 369 239 357 243 L 331 253 Q 325 254 322 251 Q 319 248 325 242 L 354 210 L 377 174 Q 383 163 397 171 Q 417 188 423 197 Q 437 218 441 279 L 443 359 L 445 371 Q 445 383 452 400 Q 459 416 457 422 Q 455 428 439 442 Q 423 456 407 460 L 392 462 Q 381 462 364 456 Q 347 450 299 442 L 253 432 Z" fill="black"></path>
				<path d="M 257 404 L 243 130 Q 243 95 237 65 L 231 17 Q 224 -27 224 -37 Q 225 -67 237 -88 Q 247 -114 257 -114 Q 263 -114 273 -101 Q 283 -89 287 -75 Q 299 -37 299 -11 L 295 73 Q 291 156 299 410 L 299 442 L 304 528 Q 304 547 309 579 Q 313 611 319 625 Q 325 638 325 647 Q 325 649 319 660 Q 310 669 305 671 Q 299 672 277 681 Q 255 689 247 686 Q 233 682 240 665 Q 247 648 249 640 L 253 613 Q 255 583 255 532 L 253 432 L 257 404 Z" fill="black"></path>
				<path d="M 691 466 L 695 556 L 695 586 L 697 626 Q 697 651 703 669 Q 707 689 705 693 Q 696 709 672 714 L 651 719 Q 631 724 621 722 L 613 718 Q 609 713 615 701 L 625 680 L 629 656 L 638 457 C 639 427 690 436 691 466 Z" fill="black"></path>
				<path d="M 695 556 L 754 564 Q 775 565 815 572 Q 865 578 870 589 Q 875 599 857 606 L 836 614 Q 819 620 811 619 Q 802 618 783 610 Q 763 601 739 596 L 695 586 C 666 579 665 552 695 556 Z" fill="black"></path>
				<path d="M 563 446 L 531 458 Q 505 467 503 456 Q 500 452 508 436 L 520 410 Q 523 398 521 371 L 520 248 Q 518 241 516 218 L 499 116 L 499 104 Q 499 97 505 85 Q 510 73 514 66 Q 517 58 525 54 Q 529 50 535 52 Q 541 53 543 62 Q 548 73 548 82 L 552 120 L 558 203 L 558 230 L 563 301 L 565 326 L 567 419 C 568 444 568 444 563 446 Z" fill="black"></path>
				<path d="M 638 457 L 563 446 C 533 442 537 420 567 419 L 587 418 L 770 446 L 787 446 Q 800 447 809 441 Q 817 435 818 408 L 821 348 L 821 333 L 823 242 L 823 227 L 819 125 L 817 100 L 823 75 Q 823 58 841 52 Q 859 45 871 74 Q 878 91 878 100 Q 882 110 882 143 L 882 250 Q 880 301 882 322 L 884 364 Q 884 390 888 400 L 899 429 L 901 444 Q 901 454 870 474 Q 838 494 828 494 Q 818 494 796 489 L 771 481 Q 767 483 691 466 L 638 457 Z" fill="black"></path>
				<path d="M 563 301 L 579 298 Q 597 293 647 302 L 821 333 C 850 338 849 338 821 348 L 777 363 Q 774 364 758 363 L 705 350 L 565 326 C 535 321 534 307 563 301 Z" fill="red"></path>
				<path d="M 558 203 L 604 200 Q 623 198 665 205 L 823 227 C 850 231 850 231 823 242 L 796 253 Q 789 256 771 256 L 745 254 L 630 237 L 558 230 C 528 227 528 205 558 203 Z" fill="lightgray"></path>
				<path d="M 548 82 L 577 81 L 600 84 L 817 100 C 847 102 847 113 819 125 L 800 133 L 772 142 Q 765 143 705 137 L 552 120 C 522 117 518 83 548 82 Z" fill="lightgray"></path>
				<path d="M 577 81 L 575 59 Q 569 16 449 -102 L 425 -126 Q 417 -130 422 -135 Q 426 -140 436 -135 L 508 -94 Q 531 -79 563 -54 Q 595 -29 615 -9 L 623 0 Q 626 4 640 16 L 661 30 Q 671 39 671 42 L 667 50 Q 665 57 647 64 L 600 84 C 578 93 578 93 577 81 Z" fill="lightgray"></path>
				<path d="M 766 -12 L 821 -98 Q 833 -119 838 -122 Q 850 -136 863 -135 Q 876 -135 886 -119 Q 894 -102 888 -82 Q 882 -62 867 -36 Q 852 -11 806 15 L 766 35 Q 751 43 740 47 Q 728 50 726 49 Q 724 47 726 38 L 741 20 Q 748 10 766 -12 Z" fill="lightgray"></path>
</g>
		<text x="40" y="140" font-size="128" fill="#999999">8</text></g>
		<g id="id1:id3:id3" transform="matrix(1.0,0,0,1.0,3072,0.0)">			<g stroke="lightgray" stroke-width="4" transform="scale(4, 4)"> <rect x="0" y="0" width="256" height="256" fill="white" stroke-width="4"/></g>
			<g transform="scale(0.92, -0.92) translate(60, -920)">					<path d="M 171 419 L 137 426 Q 123 430 119 420 Q 119 410 125 388 Q 131 365 131 340 L 133 290 L 133 256 Q 133 246 129 228 Q 129 212 127 206 Q 127 195 135 182 Q 147 158 165 179 Q 173 190 177 222 L 181 393 C 182 417 182 417 171 419 Z" fill="black"></path>
				<path d="M 253 432 L 171 419 C 141 414 151 389 181 393 L 257 404 L 299 410 L 348 415 Q 378 418 386 408 Q 388 404 388 376 L 386 300 L 383 265 L 381 257 Q 381 244 373 242 Q 369 239 357 243 L 331 253 Q 325 254 322 251 Q 319 248 325 242 L 354 210 L 377 174 Q 383 163 397 171 Q 417 188 423 197 Q 437 218 441 279 L 443 359 L 445 371 Q 445 383 452 400 Q 459 416 457 422 Q 455 428 439 442 Q 423 456 407 460 L 392 462 Q 381 462 364 456 Q 347 450 299 442 L 253 432 Z" fill="black"></path>
				<path d="M 257 404 L 243 130 Q 243 95 237 65 L 231 17 Q 224 -27 224 -37 Q 225 -67 237 -88 Q 247 -114 257 -114 Q 263 -114 273 -101 Q 283 -89 287 -75 Q 299 -37 299 -11 L 295 73 Q 291 156 299 410 L 299 442 L 304 528 Q 304 547 309 579 Q 313 611 319 625 Q 325 638 325 647 Q 325 649 319 660 Q 310 669 305 671 Q 299 672 277 681 Q 255 689 247 686 Q 233 682 240 665 Q 247 648 249 640 L 253 613 Q 255 583 255 532 L 253 432 L 257 404 Z" fill="black"></path>
				<path d="M 691 466 L 695 556 L 695 586 L 697 626 Q 697 651 703 669 Q 707 689 705 693 Q 696 709 672 714 L 651 719 Q 631 724 621 722 L 613 718 Q 609 713 615 701 L 625 680 L 629 656 L 638 457 C 639 427 690 436 691 466 Z" fill="black"></path>
				<path d="M 695 556 L 754 564 Q 775 565 815 572 Q 865 578 870 589 Q 875 599 857 606 L 836 614 Q 819 620 811 619 Q 802 618 783 610 Q 763 601 739 596 L 695 586 C 666 579 665 552 695 556 Z" fill="black"></path>
				<path d="M 563 446 L 531 458 Q 505 467 503 456 Q 500 452 508 436 L 520 410 Q 523 398 521 371 L 520 248 Q 518 241 516 218 L 499 116 L 499 104 Q 499 97 505 85 Q 510 73 514 66 Q 517 58 525 54 Q 529 50 535 52 Q 541 53 543 62 Q 548 73 548 82 L 552 120 L 558 203 L 558 230 L 563 301 L 565 326 L 567 419 C 568 444 568 444 563 446 Z" fill="black"></path>
				<path d="M 638 457 L 563 446 C 533 442 537 420 567 419 L 587 418 L 770 446 L 787 446 Q 800 447 809 441 Q 817 435 818 408 L 821 348 L 821 333 L 823 242 L 823 227 L 819 125 L 817 100 L 823 75 Q 823 58 841 52 Q 859 45 871 74 Q 878 91 878 100 Q 882 110 882 143 L 882 250 Q 880 301 882 322 L 884 364 Q 884 390 888 400 L 899 429 L 901 444 Q 901 454 870 474 Q 838 494 828 494 Q 818 494 796 489 L 771 481 Q 767 483 691 466 L 638 457 Z" fill="black"></path>
				<path d="M 563 301 L 579 298 Q 597 293 647 302 L 821 333 C 850 338 849 338 821 348 L 777 363 Q 774 364 758 363 L 705 350 L 565 326 C 535 321 534 307 563 301 Z" fill="black"></path>
				<path d="M 558 203 L 604 200 Q 623 198 665 205 L 823 227 C 850 231 850 231 823 242 L 796 253 Q 789 256 771 256 L 745 254 L 630 237 L 558 230 C 528 227 528 205 558 203 Z" fill="red"></path>
				<path d="M 548 82 L 577 81 L 600 84 L 817 100 C 847 102 847 113 819 125 L 800 133 L 772 142 Q 765 143 705 137 L 552 120 C 522 117 518 83 548 82 Z" fill="lightgray"></path>
				<path d="M 577 81 L 575 59 Q 569 16 449 -102 L 425 -126 Q 417 -130 422 -135 Q 426 -140 436 -135 L 508 -94 Q 531 -79 563 -54 Q 595 -29 615 -9 L 623 0 Q 626 4 640 16 L 661 30 Q 671 39 671 42 L 667 50 Q 665 57 647 64 L 600 84 C 578 93 578 93 577 81 Z" fill="lightgray"></path>
				<path d="M 766 -12 L 821 -98 Q 833 -119 838 -122 Q 850 -136 863 -135 Q 876 -135 886 -119 Q 894 -102 888 -82 Q 882 -62 867 -36 Q 852 -11 806 15 L 766 35 Q 751 43 740 47 Q 728 50 726 49 Q 724 47 726 38 L 741 20 Q 748 10 766 -12 Z" fill="lightgray"></path>
</g>
		<text x="40" y="140" font-size="128" fill="#999999">9</text></g>
		<g id="id1:id4:id4" transform="matrix(1.0,0,0,1.0,4096,0.0)">			<g stroke="lightgray" stroke-width="4" transform="scale(4, 4)"> <rect x="0" y="0" width="256" height="256" fill="white" stroke-width="4"/></g>
			<g transform="scale(0.92, -0.92) translate(60, -920)">					<path d="M 171 419 L 137 426 Q 123 430 119 420 Q 119 410 125 388 Q 131 365 131 340 L 133 290 L 133 256 Q 133 246 129 228 Q 129 212 127 206 Q 127 195 135 182 Q 147 158 165 179 Q 173 190 177 222 L 181 393 C 182 417 182 417 171 419 Z" fill="black"></path>
				<path d="M 253 432 L 171 419 C 141 414 151 389 181 393 L 257 404 L 299 410 L 348 415 Q 378 418 386 408 Q 388 404 388 376 L 386 300 L 383 265 L 381 257 Q 381 244 373 242 Q 369 239 357 243 L 331 253 Q 325 254 322 251 Q 319 248 325 242 L 354 210 L 377 174 Q 383 163 397 171 Q 417 188 423 197 Q 437 218 441 279 L 443 359 L 445 371 Q 445 383 452 400 Q 459 416 457 422 Q 455 428 439 442 Q 423 456 407 460 L 392 462 Q 381 462 364 456 Q 347 450 299 442 L 253 432 Z" fill="black"></path>
				<path d="M 257 404 L 243 130 Q 243 95 237 65 L 231 17 Q 224 -27 224 -37 Q 225 -67 237 -88 Q 247 -114 257 -114 Q 263 -114 273 -101 Q 283 -89 287 -75 Q 299 -37 299 -11 L 295 73 Q 291 156 299 410 L 299 442 L 304 528 Q 304 547 309 579 Q 313 611 319 625 Q 325 638 325 647 Q 325 649 319 660 Q 310 669 305 671 Q 299 672 277 681 Q 255 689 247 686 Q 233 682 240 665 Q 247 648 249 640 L 253 613 Q 255 583 255 532 L 253 432 L 257 404 Z" fill="black"></path>
				<path d="M 691 466 L 695 556 L 695 586 L 697 626 Q 697 651 703 669 Q 707 689 705 693 Q 696 709 672 714 L 651 719 Q 631 724 621 722 L 613 718 Q 609 713 615 701 L 625 680 L 629 656 L 638 457 C 639 427 690 436 691 466 Z" fill="black"></path>
				<path d="M 695 556 L 754 564 Q 775 565 815 572 Q 865 578 870 589 Q 875 599 857 606 L 836 614 Q 819 620 811 619 Q 802 618 783 610 Q 763 601 739 596 L 695 586 C 666 579 665 552 695 556 Z" fill="black"></path>
				<path d="M 563 446 L 531 458 Q 505 467 503 456 Q 500 452 508 436 L 520 410 Q 523 398 521 371 L 520 248 Q 518 241 516 218 L 499 116 L 499 104 Q 499 97 505 85 Q 510 73 514 66 Q 517 58 525 54 Q 529 50 535 52 Q 541 53 543 62 Q 548 73 548 82 L 552 120 L 558 203 L 558 230 L 563 301 L 565 326 L 567 419 C 568 444 568 444 563 446 Z" fill="black"></path>
				<path d="M 638 457 L 563 446 C 533 442 537 420 567 419 L 587 418 L 770 446 L 787 446 Q 800 447 809 441 Q 817 435 818 408 L 821 348 L 821 333 L 823 242 L 823 227 L 819 125 L 817 100 L 823 75 Q 823 58 841 52 Q 859 45 871 74 Q 878 91 878 100 Q 882 110 882 143 L 882 250 Q 880 301 882 322 L 884 364 Q 884 390 888 400 L 899 429 L 901 444 Q 901 454 870 474 Q 838 494 828 494 Q 818 494 796 489 L 771 481 Q 767 483 691 466 L 638 457 Z" fill="black"></path>
				<path d="M 563 301 L 579 298 Q 597 293 647 302 L 821 333 C 850 338 849 338 821 348 L 777 363 Q 774 364 758 363 L 705 350 L 565 326 C 535 321 534 307 563 301 Z" fill="black"></path>
				<path d="M 558 203 L 604 200 Q 623 198 665 205 L 823 227 C 850 231 850 231 823 242 L 796 253 Q 789 256 771 256 L 745 254 L 630 237 L 558 230 C 528 227 528 205 558 203 Z" fill="black"></path>
				<path d="M 548 82 L 577 81 L 600 84 L 817 100 C 847 102 847 113 819 125 L 800 133 L 772 142 Q 765 143 705 137 L 552 120 C 522 117 518 83 548 82 Z" fill="red"></path>
				<path d="M 577 81 L 575 59 Q 569 16 449 -102 L 425 -126 Q 417 -130 422 -135 Q 426 -140 436 -135 L 508 -94 Q 531 -79 563 -54 Q 595 -29 615 -9 L 623 0 Q 626 4 640 16 L 661 30 Q 671 39 671 42 L 667 50 Q 665 57 647 64 L 600 84 C 578 93 578 93 577 81 Z" fill="lightgray"></path>
				<path d="M 766 -12 L 821 -98 Q 833 -119 838 -122 Q 850 -136 863 -135 Q 876 -135 886 -119 Q 894 -102 888 -82 Q 882 -62 867 -36 Q 852 -11 806 15 L 766 35 Q 751 43 740 47 Q 728 50 726 49 Q 724 47 726 38 L 741 20 Q 748 10 766 -12 Z" fill="lightgray"></path>
</g>
		<text x="40" y="140" font-size="128" fill="#999999">10</text></g>
</g>
	<g id="id2:id2" transform="translate(0.0,2048)">
		<g id="id2:id0:id0" transform="matrix(1.0,0,0,1.0,0,0.0)">			<g stroke="lightgray" stroke-width="4" transform="scale(4, 4)"> <rect x="0" y="0" width="256" height="256" fill="white" stroke-width="4"/></g>
			<g transform="scale(0.92, -0.92) translate(60, -920)">					<path d="M 171 419 L 137 426 Q 123 430 119 420 Q 119 410 125 388 Q 131 365 131 340 L 133 290 L 133 256 Q 133 246 129 228 Q 129 212 127 206 Q 127 195 135 182 Q 147 158 165 179 Q 173 190 177 222 L 181 393 C 182 417 182 417 171 419 Z" fill="black"></path>
				<path d="M 253 432 L 171 419 C 141 414 151 389 181 393 L 257 404 L 299 410 L 348 415 Q 378 418 386 408 Q 388 404 388 376 L 386 300 L 383 265 L 381 257 Q 381 244 373 242 Q 369 239 357 243 L 331 253 Q 325 254 322 251 Q 319 248 325 242 L 354 210 L 377 174 Q 383 163 397 171 Q 417 188 423 197 Q 437 218 441 279 L 443 359 L 445 371 Q 445 383 452 400 Q 459 416 457 422 Q 455 428 439 442 Q 423 456 407 460 L 392 462 Q 381 462 364 456 Q 347 450 299 442 L 253 432 Z" fill="black"></path>
				<path d="M 257 404 L 243 130 Q 243 95 237 65 L 231 17 Q 224 -27 224 -37 Q 225 -67 237 -88 Q 247 -114 257 -114 Q 263 -114 273 -101 Q 283 -89 287 -75 Q 299 -37 299 -11 L 295 73 Q 291 156 299 410 L 299 442 L 304 528 Q 304 547 309 579 Q 313 611 319 625 Q 325 638 325 647 Q 325 649 319 660 Q 310 669 305 671 Q 299 672 277 681 Q 255 689 247 686 Q 233 682 240 665 Q 247 648 249 640 L 253 613 Q 255 583 255 532 L 253 432 L 257 404 Z" fill="black"></path>
				<path d="M 691 466 L 695 556 L 695 586 L 697 626 Q 697 651 703 669 Q 707 689 705 693 Q 696 709 672 714 L 651 719 Q 631 724 621 722 L 613 718 Q 609 713 615 701 L 625 680 L 629 656 L 638 457 C 639 427 690 436 691 466 Z" fill="black"></path>
				<path d="M 695 556 L 754 564 Q 775 565 815 572 Q 865 578 870 589 Q 875 599 857 606 L 836 614 Q 819 620 811 619 Q 802 618 783 610 Q 763 601 739 596 L 695 586 C 666 579 665 552 695 556 Z" fill="black"></path>
				<path d="M 563 446 L 531 458 Q 505 467 503 456 Q 500 452 508 436 L 520 410 Q 523 398 521 371 L 520 248 Q 518 241 516 218 L 499 116 L 499 104 Q 499 97 505 85 Q 510 73 514 66 Q 517 58 525 54 Q 529 50 535 52 Q 541 53 543 62 Q 548 73 548 82 L 552 120 L 558 203 L 558 230 L 563 301 L 565 326 L 567 419 C 568 444 568 444 563 446 Z" fill="black"></path>
				<path d="M 638 457 L 563 446 C 533 442 537 420 567 419 L 587 418 L 770 446 L 787 446 Q 800 447 809 441 Q 817 435 818 408 L 821 348 L 821 333 L 823 242 L 823 227 L 819 125 L 817 100 L 823 75 Q 823 58 841 52 Q 859 45 871 74 Q 878 91 878 100 Q 882 110 882 143 L 882 250 Q 880 301 882 322 L 884 364 Q 884 390 888 400 L 899 429 L 901 444 Q 901 454 870 474 Q 838 494 828 494 Q 818 494 796 489 L 771 481 Q 767 483 691 466 L 638 457 Z" fill="black"></path>
				<path d="M 563 301 L 579 298 Q 597 293 647 302 L 821 333 C 850 338 849 338 821 348 L 777 363 Q 774 364 758 363 L 705 350 L 565 326 C 535 321 534 307 563 301 Z" fill="black"></path>
				<path d="M 558 203 L 604 200 Q 623 198 665 205 L 823 227 C 850 231 850 231 823 242 L 796 253 Q 789 256 771 256 L 745 254 L 630 237 L 558 230 C 528 227 528 205 558 203 Z" fill="black"></path>
				<path d="M 548 82 L 577 81 L 600 84 L 817 100 C 847 102 847 113 819 125 L 800 133 L 772 142 Q 765 143 705 137 L 552 120 C 522 117 518 83 548 82 Z" fill="black"></path>
				<path d="M 577 81 L 575 59 Q 569 16 449 -102 L 425 -126 Q 417 -130 422 -135 Q 426 -140 436 -135 L 508 -94 Q 531 -79 563 -54 Q 595 -29 615 -9 L 623 0 Q 626 4 640 16 L 661 30 Q 671 39 671 42 L 667 50 Q 665 57 647 64 L 600 84 C 578 93 578 93 577 81 Z" fill="red"></path>
				<path d="M 766 -12 L 821 -98 Q 833 -119 838 -122 Q 850 -136 863 -135 Q 876 -135 886 -119 Q 894 -102 888 -82 Q 882 -62 867 -36 Q 852 -11 806 15 L 766 35 Q 751 43 740 47 Q 728 50 726 49 Q 724 47 726 38 L 741 20 Q 748 10 766 -12 Z" fill="lightgray"></path>
</g>
		<text x="40" y="140" font-size="128" fill="#999999">11</text></g>
		<g id="id2:id1:id1" transform="matrix(1.0,0,0,1.0,1024,0.0)">			<g stroke="lightgray" stroke-width="4" transform="scale(4, 4)"> <rect x="0" y="0" width="256" height="256" fill="white" stroke-width="4"/></g>
			<g transform="scale(0.92, -0.92) translate(60, -920)">					<path d="M 171 419 L 137 426 Q 123 430 119 420 Q 119 410 125 388 Q 131 365 131 340 L 133 290 L 133 256 Q 133 246 129 228 Q 129 212 127 206 Q 127 195 135 182 Q 147 158 165 179 Q 173 190 177 222 L 181 393 C 182 417 182 417 171 419 Z" fill="black"></path>
				<path d="M 253 432 L 171 419 C 141 414 151 389 181 393 L 257 404 L 299 410 L 348 415 Q 378 418 386 408 Q 388 404 388 376 L 386 300 L 383 265 L 381 257 Q 381 244 373 242 Q 369 239 357 243 L 331 253 Q 325 254 322 251 Q 319 248 325 242 L 354 210 L 377 174 Q 383 163 397 171 Q 417 188 423 197 Q 437 218 441 279 L 443 359 L 445 371 Q 445 383 452 400 Q 459 416 457 422 Q 455 428 439 442 Q 423 456 407 460 L 392 462 Q 381 462 364 456 Q 347 450 299 442 L 253 432 Z" fill="black"></path>
				<path d="M 257 404 L 243 130 Q 243 95 237 65 L 231 17 Q 224 -27 224 -37 Q 225 -67 237 -88 Q 247 -114 257 -114 Q 263 -114 273 -101 Q 283 -89 287 -75 Q 299 -37 299 -11 L 295 73 Q 291 156 299 410 L 299 442 L 304 528 Q 304 547 309 579 Q 313 611 319 625 Q 325 638 325 647 Q 325 649 319 660 Q 310 669 305 671 Q 299 672 277 681 Q 255 689 247 686 Q 233 682 240 665 Q 247 648 249 640 L 253 613 Q 255 583 255 532 L 253 432 L 257 404 Z" fill="black"></path>
				<path d="M 691 466 L 695 556 L 695 586 L 697 626 Q 697 651 703 669 Q 707 689 705 693 Q 696 709 672 714 L 651 719 Q 631 724 621 722 L 613 718 Q 609 713 615 701 L 625 680 L 629 656 L 638 457 C 639 427 690 436 691 466 Z" fill="black"></path>
				<path d="M 695 556 L 754 564 Q 775 565 815 572 Q 865 578 870 589 Q 875 599 857 606 L 836 614 Q 819 620 811 619 Q 802 618 783 610 Q 763 601 739 596 L 695 586 C 666 579 665 552 695 556 Z" fill="black"></path>
				<path d="M 563 446 L 531 458 Q 505 467 503 456 Q 500 452 508 436 L 520 410 Q 523 398 521 371 L 520 248 Q 518 241 516 218 L 499 116 L 499 104 Q 499 97 505 85 Q 510 73 514 66 Q 517 58 525 54 Q 529 50 535 52 Q 541 53 543 62 Q 548 73 548 82 L 552 120 L 558 203 L 558 230 L 563 301 L 565 326 L 567 419 C 568 444 568 444 563 446 Z" fill="black"></path>
				<path d="M 638 457 L 563 446 C 533 442 537 420 567 419 L 587 418 L 770 446 L 787 446 Q 800 447 809 441 Q 817 435 818 408 L 821 348 L 821 333 L 823 242 L 823 227 L 819 125 L 817 100 L 823 75 Q 823 58 841 52 Q 859 45 871 74 Q 878 91 878 100 Q 882 110 882 143 L 882 250 Q 880 301 882 322 L 884 364 Q 884 390 888 400 L 899 429 L 901 444 Q 901 454 870 474 Q 838 494 828 494 Q 818 494 796 489 L 771 481 Q 767 483 691 466 L 638 457 Z" fill="black"></path>
				<path d="M 563 301 L 579 298 Q 597 293 647 302 L 821 333 C 850 338 849 338 821 348 L 777 363 Q 774 364 758 363 L 705 350 L 565 326 C 535 321 534 307 563 301 Z" fill="black"></path>
				<path d="M 558 203 L 604 200 Q 623 198 665 205 L 823 227 C 850 231 850 231 823 242 L 796 253 Q 789 256 771 256 L 745 254 L 630 237 L 558 230 C 528 227 528 205 558 203 Z" fill="black"></path>
				<path d="M 548 82 L 577 81 L 600 84 L 817 100 C 847 102 847 113 819 125 L 800 133 L 772 142 Q 765 143 705 137 L 552 120 C 522 117 518 83 548 82 Z" fill="black"></path>
				<path d="M 577 81 L 575 59 Q 569 16 449 -102 L 425 -126 Q 417 -130 422 -135 Q 426 -140 436 -135 L 508 -94 Q 531 -79 563 -54 Q 595 -29 615 -9 L 623 0 Q 626 4 640 16 L 661 30 Q 671 39 671 42 L 667 50 Q 665 57 647 64 L 600 84 C 578 93 578 93 577 81 Z" fill="black"></path>
				<path d="M 766 -12 L 821 -98 Q 833 -119 838 -122 Q 850 -136 863 -135 Q 876 -135 886 -119 Q 894 -102 888 -82 Q 882 -62 867 -36 Q 852 -11 806 15 L 766 35 Q 751 43 740 47 Q 728 50 726 49 Q 724 47 726 38 L 741 20 Q 748 10 766 -12 Z" fill="red"></path>
</g>
		<text x="40" y="140" font-size="128" fill="#999999">12</text></g>
		<g id="id2:id2:id2" transform="matrix(1.0,0,0,1.0,2048,0.0)">			<g stroke="white" stroke-width="4" transform="scale(4, 4)"> <rect x="1" y="1" width="255" height="255" fill="white" stroke-width="0"/></g>
</g>
		<g id="id2:id3:id3" transform="matrix(1.0,0,0,1.0,3072,0.0)">			<g stroke="white" stroke-width="4" transform="scale(4, 4)"> <rect x="1" y="1" width="255" height="255" fill="white" stroke-width="0"/></g>
</g>
		<g id="id2:id4:id4" transform="matrix(1.0,0,0,1.0,4096,0.0)">			<g stroke="white" stroke-width="4" transform="scale(4, 4)"> <rect x="1" y="1" width="255" height="255" fill="white" stroke-width="0"/></g>
</g>
</g>
</svg>
