<?xml version="1.0" standalone="no"?>
<!DOCTYPE svg PUBLIC "-//W3C//DTD SVG 1.1//EN"
 "http://www.w3.org/Graphics/SVG/1.1/DTD/svg11.dtd">
<!-- generate by Japanese dictionary app com.asnsami.kanjidictionary -->

<svg xmlns="http://www.w3.org/2000/svg" xmlns:sodipodi="http://sodipodi.sourceforge.net/DTD/sodipodi-0.dtd" version="1.1" width="640" height="384" viewBox="0 0 5120 3072">
	<g id="id0:id0" transform="translate(0.0,0)">
		<g id="id0:id0:id0" transform="matrix(1.0,0,0,1.0,0,0.0)">			<g stroke="lightgray" stroke-width="4" transform="scale(4, 4)"> <rect x="0" y="0" width="256" height="256" fill="white" stroke-width="4"/></g>
			<g transform="scale(0.92, -0.92) translate(60, -920)">					<path d="M 226 406 L 165 395 Q 127 387 113 387 L 94 386 Q 85 384 81 382 Q 78 379 79 372 Q 81 363 99 359 Q 117 354 134 354 Q 149 351 182 358 L 225 366 L 269 373 L 291 378 Q 316 384 323 385 Q 356 392 356 405 Q 354 415 336 423 Q 319 431 304 431 Q 301 431 273 419 L 226 406 Z" fill="red"></path>
				<path d="M 223 660 Q 200 660 213 621 Q 227 582 227 513 L 226 406 L 225 366 L 222 255 L 218 203 L 210 49 Q 210 6 200 -9 Q 191 -24 160 -14 L 121 -3 Q 116 -2 112 -5 Q 109 -8 116 -15 L 132 -27 Q 168 -61 184 -87 Q 201 -113 208 -115 Q 215 -118 235 -103 Q 260 -81 265 -7 L 263 47 Q 262 93 263 102 L 264 244 L 266 283 L 269 373 L 273 419 L 277 480 Q 277 490 281 512 Q 284 561 299 585 L 305 593 Q 307 598 307 605 Q 307 624 278 642 Q 266 647 260 651 Q 255 655 250 656 L 240 659 Q 235 660 223 660 Z" fill="lightgray"></path>
				<path d="M 222 255 Q 96 178 83 171 Q 71 163 43 153 Q 22 150 29 137 Q 36 123 59 104 Q 93 78 111 104 L 137 132 Q 157 151 160 153 L 218 203 L 264 244 L 323 300 Q 335 311 330 317 Q 325 322 316 316 L 266 283 L 222 255 Z" fill="lightgray"></path>
				<path d="M 415 440 L 471 453 L 532 466 L 573 472 L 615 478 L 761 487 Q 767 487 769 492 Q 776 506 749 519 Q 722 531 711 531 L 687 528 L 546 502 L 487 492 L 368 474 Q 363 473 360 469 Q 354 464 374 452 Q 395 440 415 440 Z" fill="lightgray"></path>
				<path d="M 471 453 L 456 424 Q 446 400 425 369 Q 369 282 304 222 L 287 207 Q 274 194 277 188 Q 280 182 289 188 L 305 197 Q 348 224 377 248 Q 450 307 506 418 L 532 466 L 546 502 L 560 537 Q 569 557 578 587 Q 587 616 595 628 Q 604 640 598 647 Q 593 654 575 665 Q 514 698 514 672 Q 523 631 517 594 Q 512 556 487 492 L 471 453 Z" fill="lightgray"></path>
				<path d="M 573 472 L 601 446 Q 615 432 633 412 L 671 367 Q 722 302 769 247 Q 784 231 796 224 Q 819 212 863 221 L 943 236 Q 950 238 949 246 Q 949 254 941 256 L 915 265 Q 800 309 720 379 L 615 478 C 593 499 551 492 573 472 Z" fill="lightgray"></path>
				<path d="M 449 52 L 439 214 C 438 231 438 231 425 234 L 408 238 L 391 240 Q 375 239 383 228 L 389 215 Q 400 197 403 169 L 416 31 Q 419 -1 438 -1 Q 445 0 447 8 L 450 22 L 449 52 Z" fill="lightgray"></path>
				<path d="M 575 229 L 641 239 Q 662 242 668 234 Q 675 225 673 204 L 672 168 L 657 108 L 642 57 C 634 31 634 33 634 32 L 642 18 Q 647 6 657 4 Q 669 4 679 16 Q 686 25 699 64 L 725 164 Q 732 197 744 212 L 753 227 Q 756 232 755 236 Q 748 250 721 263 L 690 275 Q 672 282 642 274 Q 612 266 607 265 L 575 258 L 526 246 L 470 238 Q 464 236 425 234 C 395 232 409 211 439 214 L 526 222 L 575 229 Z" fill="lightgray"></path>
				<path d="M 570 128 L 639 137 Q 644 136 647 151 Q 650 167 628 167 Q 606 166 589 163 Q 573 159 571 159 L 526 151 L 468 143 Q 459 141 460 132 Q 462 115 477 118 L 504 121 Q 515 121 526 123 L 570 128 Z" fill="lightgray"></path>
				<path d="M 642 57 L 630 62 Q 627 64 616 66 Q 591 66 569 62 L 526 59 L 449 52 C 419 49 420 23 450 22 L 479 21 Q 481 20 494 22 Q 507 24 526 24 L 566 26 L 634 32 C 664 35 670 45 642 57 Z" fill="lightgray"></path>
				<path d="M 569 62 L 569 126 L 570 128 L 571 159 L 575 229 L 575 258 L 578 276 Q 580 292 584 303 Q 589 313 589 319 Q 590 324 581 332 Q 558 354 529 354 Q 520 355 514 353 Q 509 350 517 332 Q 526 298 526 277 L 526 246 L 526 222 L 526 151 L 526 123 L 526 59 L 526 24 L 526 -20 Q 525 -58 542 -88 Q 566 -136 680 -136 Q 749 -136 820 -116 L 830 -113 Q 840 -110 848 -104 Q 856 -99 848 -86 Q 841 -73 822 -63 Q 803 -54 781 -63 L 764 -70 Q 705 -90 645 -90 Q 584 -93 572 -61 Q 566 -43 566 -9 L 566 26 L 569 62 Z" fill="lightgray"></path>
</g>
		<text x="40" y="140" font-size="128" fill="#999999">1</text></g>
		<g id="id0:id1:id1" transform="matrix(1.0,0,0,1.0,1024,0.0)">			<g stroke="lightgray" stroke-width="4" transform="scale(4, 4)"> <rect x="0" y="0" width="256" height="256" fill="white" stroke-width="4"/></g>
			<g transform="scale(0.92, -0.92) translate(60, -920)">					<path d="M 226 406 L 165 395 Q 127 387 113 387 L 94 386 Q 85 384 81 382 Q 78 379 79 372 Q 81 363 99 359 Q 117 354 134 354 Q 149 351 182 358 L 225 366 L 269 373 L 291 378 Q 316 384 323 385 Q 356 392 356 405 Q 354 415 336 423 Q 319 431 304 431 Q 301 431 273 419 L 226 406 Z" fill="black"></path>
				<path d="M 223 660 Q 200 660 213 621 Q 227 582 227 513 L 226 406 L 225 366 L 222 255 L 218 203 L 210 49 Q 210 6 200 -9 Q 191 -24 160 -14 L 121 -3 Q 116 -2 112 -5 Q 109 -8 116 -15 L 132 -27 Q 168 -61 184 -87 Q 201 -113 208 -115 Q 215 -118 235 -103 Q 260 -81 265 -7 L 263 47 Q 262 93 263 102 L 264 244 L 266 283 L 269 373 L 273 419 L 277 480 Q 277 490 281 512 Q 284 561 299 585 L 305 593 Q 307 598 307 605 Q 307 624 278 642 Q 266 647 260 651 Q 255 655 250 656 L 240 659 Q 235 660 223 660 Z" fill="red"></path>
				<path d="M 222 255 Q 96 178 83 171 Q 71 163 43 153 Q 22 150 29 137 Q 36 123 59 104 Q 93 78 111 104 L 137 132 Q 157 151 160 153 L 218 203 L 264 244 L 323 300 Q 335 311 330 317 Q 325 322 316 316 L 266 283 L 222 255 Z" fill="lightgray"></path>
				<path d="M 415 440 L 471 453 L 532 466 L 573 472 L 615 478 L 761 487 Q 767 487 769 492 Q 776 506 749 519 Q 722 531 711 531 L 687 528 L 546 502 L 487 492 L 368 474 Q 363 473 360 469 Q 354 464 374 452 Q 395 440 415 440 Z" fill="lightgray"></path>
				<path d="M 471 453 L 456 424 Q 446 400 425 369 Q 369 282 304 222 L 287 207 Q 274 194 277 188 Q 280 182 289 188 L 305 197 Q 348 224 377 248 Q 450 307 506 418 L 532 466 L 546 502 L 560 537 Q 569 557 578 587 Q 587 616 595 628 Q 604 640 598 647 Q 593 654 575 665 Q 514 698 514 672 Q 523 631 517 594 Q 512 556 487 492 L 471 453 Z" fill="lightgray"></path>
				<path d="M 573 472 L 601 446 Q 615 432 633 412 L 671 367 Q 722 302 769 247 Q 784 231 796 224 Q 819 212 863 221 L 943 236 Q 950 238 949 246 Q 949 254 941 256 L 915 265 Q 800 309 720 379 L 615 478 C 593 499 551 492 573 472 Z" fill="lightgray"></path>
				<path d="M 449 52 L 439 214 C 438 231 438 231 425 234 L 408 238 L 391 240 Q 375 239 383 228 L 389 215 Q 400 197 403 169 L 416 31 Q 419 -1 438 -1 Q 445 0 447 8 L 450 22 L 449 52 Z" fill="lightgray"></path>
				<path d="M 575 229 L 641 239 Q 662 242 668 234 Q 675 225 673 204 L 672 168 L 657 108 L 642 57 C 634 31 634 33 634 32 L 642 18 Q 647 6 657 4 Q 669 4 679 16 Q 686 25 699 64 L 725 164 Q 732 197 744 212 L 753 227 Q 756 232 755 236 Q 748 250 721 263 L 690 275 Q 672 282 642 274 Q 612 266 607 265 L 575 258 L 526 246 L 470 238 Q 464 236 425 234 C 395 232 409 211 439 214 L 526 222 L 575 229 Z" fill="lightgray"></path>
				<path d="M 570 128 L 639 137 Q 644 136 647 151 Q 650 167 628 167 Q 606 166 589 163 Q 573 159 571 159 L 526 151 L 468 143 Q 459 141 460 132 Q 462 115 477 118 L 504 121 Q 515 121 526 123 L 570 128 Z" fill="lightgray"></path>
				<path d="M 642 57 L 630 62 Q 627 64 616 66 Q 591 66 569 62 L 526 59 L 449 52 C 419 49 420 23 450 22 L 479 21 Q 481 20 494 22 Q 507 24 526 24 L 566 26 L 634 32 C 664 35 670 45 642 57 Z" fill="lightgray"></path>
				<path d="M 569 62 L 569 126 L 570 128 L 571 159 L 575 229 L 575 258 L 578 276 Q 580 292 584 303 Q 589 313 589 319 Q 590 324 581 332 Q 558 354 529 354 Q 520 355 514 353 Q 509 350 517 332 Q 526 298 526 277 L 526 246 L 526 222 L 526 151 L 526 123 L 526 59 L 526 24 L 526 -20 Q 525 -58 542 -88 Q 566 -136 680 -136 Q 749 -136 820 -116 L 830 -113 Q 840 -110 848 -104 Q 856 -99 848 -86 Q 841 -73 822 -63 Q 803 -54 781 -63 L 764 -70 Q 705 -90 645 -90 Q 584 -93 572 -61 Q 566 -43 566 -9 L 566 26 L 569 62 Z" fill="lightgray"></path>
</g>
		<text x="40" y="140" font-size="128" fill="#999999">2</text></g>
		<g id="id0:id2:id2" transform="matrix(1.0,0,0,1.0,2048,0.0)">			<g stroke="lightgray" stroke-width="4" transform="scale(4, 4)"> <rect x="0" y="0" width="256" height="256" fill="white" stroke-width="4"/></g>
			<g transform="scale(0.92, -0.92) translate(60, -920)">					<path d="M 226 406 L 165 395 Q 127 387 113 387 L 94 386 Q 85 384 81 382 Q 78 379 79 372 Q 81 363 99 359 Q 117 354 134 354 Q 149 351 182 358 L 225 366 L 269 373 L 291 378 Q 316 384 323 385 Q 356 392 356 405 Q 354 415 336 423 Q 319 431 304 431 Q 301 431 273 419 L 226 406 Z" fill="black"></path>
				<path d="M 223 660 Q 200 660 213 621 Q 227 582 227 513 L 226 406 L 225 366 L 222 255 L 218 203 L 210 49 Q 210 6 200 -9 Q 191 -24 160 -14 L 121 -3 Q 116 -2 112 -5 Q 109 -8 116 -15 L 132 -27 Q 168 -61 184 -87 Q 201 -113 208 -115 Q 215 -118 235 -103 Q 260 -81 265 -7 L 263 47 Q 262 93 263 102 L 264 244 L 266 283 L 269 373 L 273 419 L 277 480 Q 277 490 281 512 Q 284 561 299 585 L 305 593 Q 307 598 307 605 Q 307 624 278 642 Q 266 647 260 651 Q 255 655 250 656 L 240 659 Q 235 660 223 660 Z" fill="black"></path>
				<path d="M 222 255 Q 96 178 83 171 Q 71 163 43 153 Q 22 150 29 137 Q 36 123 59 104 Q 93 78 111 104 L 137 132 Q 157 151 160 153 L 218 203 L 264 244 L 323 300 Q 335 311 330 317 Q 325 322 316 316 L 266 283 L 222 255 Z" fill="red"></path>
				<path d="M 415 440 L 471 453 L 532 466 L 573 472 L 615 478 L 761 487 Q 767 487 769 492 Q 776 506 749 519 Q 722 531 711 531 L 687 528 L 546 502 L 487 492 L 368 474 Q 363 473 360 469 Q 354 464 374 452 Q 395 440 415 440 Z" fill="lightgray"></path>
				<path d="M 471 453 L 456 424 Q 446 400 425 369 Q 369 282 304 222 L 287 207 Q 274 194 277 188 Q 280 182 289 188 L 305 197 Q 348 224 377 248 Q 450 307 506 418 L 532 466 L 546 502 L 560 537 Q 569 557 578 587 Q 587 616 595 628 Q 604 640 598 647 Q 593 654 575 665 Q 514 698 514 672 Q 523 631 517 594 Q 512 556 487 492 L 471 453 Z" fill="lightgray"></path>
				<path d="M 573 472 L 601 446 Q 615 432 633 412 L 671 367 Q 722 302 769 247 Q 784 231 796 224 Q 819 212 863 221 L 943 236 Q 950 238 949 246 Q 949 254 941 256 L 915 265 Q 800 309 720 379 L 615 478 C 593 499 551 492 573 472 Z" fill="lightgray"></path>
				<path d="M 449 52 L 439 214 C 438 231 438 231 425 234 L 408 238 L 391 240 Q 375 239 383 228 L 389 215 Q 400 197 403 169 L 416 31 Q 419 -1 438 -1 Q 445 0 447 8 L 450 22 L 449 52 Z" fill="lightgray"></path>
				<path d="M 575 229 L 641 239 Q 662 242 668 234 Q 675 225 673 204 L 672 168 L 657 108 L 642 57 C 634 31 634 33 634 32 L 642 18 Q 647 6 657 4 Q 669 4 679 16 Q 686 25 699 64 L 725 164 Q 732 197 744 212 L 753 227 Q 756 232 755 236 Q 748 250 721 263 L 690 275 Q 672 282 642 274 Q 612 266 607 265 L 575 258 L 526 246 L 470 238 Q 464 236 425 234 C 395 232 409 211 439 214 L 526 222 L 575 229 Z" fill="lightgray"></path>
				<path d="M 570 128 L 639 137 Q 644 136 647 151 Q 650 167 628 167 Q 606 166 589 163 Q 573 159 571 159 L 526 151 L 468 143 Q 459 141 460 132 Q 462 115 477 118 L 504 121 Q 515 121 526 123 L 570 128 Z" fill="lightgray"></path>
				<path d="M 642 57 L 630 62 Q 627 64 616 66 Q 591 66 569 62 L 526 59 L 449 52 C 419 49 420 23 450 22 L 479 21 Q 481 20 494 22 Q 507 24 526 24 L 566 26 L 634 32 C 664 35 670 45 642 57 Z" fill="lightgray"></path>
				<path d="M 569 62 L 569 126 L 570 128 L 571 159 L 575 229 L 575 258 L 578 276 Q 580 292 584 303 Q 589 313 589 319 Q 590 324 581 332 Q 558 354 529 354 Q 520 355 514 353 Q 509 350 517 332 Q 526 298 526 277 L 526 246 L 526 222 L 526 151 L 526 123 L 526 59 L 526 24 L 526 -20 Q 525 -58 542 -88 Q 566 -136 680 -136 Q 749 -136 820 -116 L 830 -113 Q 840 -110 848 -104 Q 856 -99 848 -86 Q 841 -73 822 -63 Q 803 -54 781 -63 L 764 -70 Q 705 -90 645 -90 Q 584 -93 572 -61 Q 566 -43 566 -9 L 566 26 L 569 62 Z" fill="lightgray"></path>
</g>
		<text x="40" y="140" font-size="128" fill="#999999">3</text></g>
		<g id="id0:id3:id3" transform="matrix(1.0,0,0,1.0,3072,0.0)">			<g stroke="lightgray" stroke-width="4" transform="scale(4, 4)"> <rect x="0" y="0" width="256" height="256" fill="white" stroke-width="4"/></g>
			<g transform="scale(0.92, -0.92) translate(60, -920)">					<path d="M 226 406 L 165 395 Q 127 387 113 387 L 94 386 Q 85 384 81 382 Q 78 379 79 372 Q 81 363 99 359 Q 117 354 134 354 Q 149 351 182 358 L 225 366 L 269 373 L 291 378 Q 316 384 323 385 Q 356 392 356 405 Q 354 415 336 423 Q 319 431 304 431 Q 301 431 273 419 L 226 406 Z" fill="black"></path>
				<path d="M 223 660 Q 200 660 213 621 Q 227 582 227 513 L 226 406 L 225 366 L 222 255 L 218 203 L 210 49 Q 210 6 200 -9 Q 191 -24 160 -14 L 121 -3 Q 116 -2 112 -5 Q 109 -8 116 -15 L 132 -27 Q 168 -61 184 -87 Q 201 -113 208 -115 Q 215 -118 235 -103 Q 260 -81 265 -7 L 263 47 Q 262 93 263 102 L 264 244 L 266 283 L 269 373 L 273 419 L 277 480 Q 277 490 281 512 Q 284 561 299 585 L 305 593 Q 307 598 307 605 Q 307 624 278 642 Q 266 647 260 651 Q 255 655 250 656 L 240 659 Q 235 660 223 660 Z" fill="black"></path>
				<path d="M 222 255 Q 96 178 83 171 Q 71 163 43 153 Q 22 150 29 137 Q 36 123 59 104 Q 93 78 111 104 L 137 132 Q 157 151 160 153 L 218 203 L 264 244 L 323 300 Q 335 311 330 317 Q 325 322 316 316 L 266 283 L 222 255 Z" fill="black"></path>
				<path d="M 415 440 L 471 453 L 532 466 L 573 472 L 615 478 L 761 487 Q 767 487 769 492 Q 776 506 749 519 Q 722 531 711 531 L 687 528 L 546 502 L 487 492 L 368 474 Q 363 473 360 469 Q 354 464 374 452 Q 395 440 415 440 Z" fill="red"></path>
				<path d="M 471 453 L 456 424 Q 446 400 425 369 Q 369 282 304 222 L 287 207 Q 274 194 277 188 Q 280 182 289 188 L 305 197 Q 348 224 377 248 Q 450 307 506 418 L 532 466 L 546 502 L 560 537 Q 569 557 578 587 Q 587 616 595 628 Q 604 640 598 647 Q 593 654 575 665 Q 514 698 514 672 Q 523 631 517 594 Q 512 556 487 492 L 471 453 Z" fill="lightgray"></path>
				<path d="M 573 472 L 601 446 Q 615 432 633 412 L 671 367 Q 722 302 769 247 Q 784 231 796 224 Q 819 212 863 221 L 943 236 Q 950 238 949 246 Q 949 254 941 256 L 915 265 Q 800 309 720 379 L 615 478 C 593 499 551 492 573 472 Z" fill="lightgray"></path>
				<path d="M 449 52 L 439 214 C 438 231 438 231 425 234 L 408 238 L 391 240 Q 375 239 383 228 L 389 215 Q 400 197 403 169 L 416 31 Q 419 -1 438 -1 Q 445 0 447 8 L 450 22 L 449 52 Z" fill="lightgray"></path>
				<path d="M 575 229 L 641 239 Q 662 242 668 234 Q 675 225 673 204 L 672 168 L 657 108 L 642 57 C 634 31 634 33 634 32 L 642 18 Q 647 6 657 4 Q 669 4 679 16 Q 686 25 699 64 L 725 164 Q 732 197 744 212 L 753 227 Q 756 232 755 236 Q 748 250 721 263 L 690 275 Q 672 282 642 274 Q 612 266 607 265 L 575 258 L 526 246 L 470 238 Q 464 236 425 234 C 395 232 409 211 439 214 L 526 222 L 575 229 Z" fill="lightgray"></path>
				<path d="M 570 128 L 639 137 Q 644 136 647 151 Q 650 167 628 167 Q 606 166 589 163 Q 573 159 571 159 L 526 151 L 468 143 Q 459 141 460 132 Q 462 115 477 118 L 504 121 Q 515 121 526 123 L 570 128 Z" fill="lightgray"></path>
				<path d="M 642 57 L 630 62 Q 627 64 616 66 Q 591 66 569 62 L 526 59 L 449 52 C 419 49 420 23 450 22 L 479 21 Q 481 20 494 22 Q 507 24 526 24 L 566 26 L 634 32 C 664 35 670 45 642 57 Z" fill="lightgray"></path>
				<path d="M 569 62 L 569 126 L 570 128 L 571 159 L 575 229 L 575 258 L 578 276 Q 580 292 584 303 Q 589 313 589 319 Q 590 324 581 332 Q 558 354 529 354 Q 520 355 514 353 Q 509 350 517 332 Q 526 298 526 277 L 526 246 L 526 222 L 526 151 L 526 123 L 526 59 L 526 24 L 526 -20 Q 525 -58 542 -88 Q 566 -136 680 -136 Q 749 -136 820 -116 L 830 -113 Q 840 -110 848 -104 Q 856 -99 848 -86 Q 841 -73 822 -63 Q 803 -54 781 -63 L 764 -70 Q 705 -90 645 -90 Q 584 -93 572 -61 Q 566 -43 566 -9 L 566 26 L 569 62 Z" fill="lightgray"></path>
</g>
		<text x="40" y="140" font-size="128" fill="#999999">4</text></g>
		<g id="id0:id4:id4" transform="matrix(1.0,0,0,1.0,4096,0.0)">			<g stroke="lightgray" stroke-width="4" transform="scale(4, 4)"> <rect x="0" y="0" width="256" height="256" fill="white" stroke-width="4"/></g>
			<g transform="scale(0.92, -0.92) translate(60, -920)">					<path d="M 226 406 L 165 395 Q 127 387 113 387 L 94 386 Q 85 384 81 382 Q 78 379 79 372 Q 81 363 99 359 Q 117 354 134 354 Q 149 351 182 358 L 225 366 L 269 373 L 291 378 Q 316 384 323 385 Q 356 392 356 405 Q 354 415 336 423 Q 319 431 304 431 Q 301 431 273 419 L 226 406 Z" fill="black"></path>
				<path d="M 223 660 Q 200 660 213 621 Q 227 582 227 513 L 226 406 L 225 366 L 222 255 L 218 203 L 210 49 Q 210 6 200 -9 Q 191 -24 160 -14 L 121 -3 Q 116 -2 112 -5 Q 109 -8 116 -15 L 132 -27 Q 168 -61 184 -87 Q 201 -113 208 -115 Q 215 -118 235 -103 Q 260 -81 265 -7 L 263 47 Q 262 93 263 102 L 264 244 L 266 283 L 269 373 L 273 419 L 277 480 Q 277 490 281 512 Q 284 561 299 585 L 305 593 Q 307 598 307 605 Q 307 624 278 642 Q 266 647 260 651 Q 255 655 250 656 L 240 659 Q 235 660 223 660 Z" fill="black"></path>
				<path d="M 222 255 Q 96 178 83 171 Q 71 163 43 153 Q 22 150 29 137 Q 36 123 59 104 Q 93 78 111 104 L 137 132 Q 157 151 160 153 L 218 203 L 264 244 L 323 300 Q 335 311 330 317 Q 325 322 316 316 L 266 283 L 222 255 Z" fill="black"></path>
				<path d="M 415 440 L 471 453 L 532 466 L 573 472 L 615 478 L 761 487 Q 767 487 769 492 Q 776 506 749 519 Q 722 531 711 531 L 687 528 L 546 502 L 487 492 L 368 474 Q 363 473 360 469 Q 354 464 374 452 Q 395 440 415 440 Z" fill="black"></path>
				<path d="M 471 453 L 456 424 Q 446 400 425 369 Q 369 282 304 222 L 287 207 Q 274 194 277 188 Q 280 182 289 188 L 305 197 Q 348 224 377 248 Q 450 307 506 418 L 532 466 L 546 502 L 560 537 Q 569 557 578 587 Q 587 616 595 628 Q 604 640 598 647 Q 593 654 575 665 Q 514 698 514 672 Q 523 631 517 594 Q 512 556 487 492 L 471 453 Z" fill="red"></path>
				<path d="M 573 472 L 601 446 Q 615 432 633 412 L 671 367 Q 722 302 769 247 Q 784 231 796 224 Q 819 212 863 221 L 943 236 Q 950 238 949 246 Q 949 254 941 256 L 915 265 Q 800 309 720 379 L 615 478 C 593 499 551 492 573 472 Z" fill="lightgray"></path>
				<path d="M 449 52 L 439 214 C 438 231 438 231 425 234 L 408 238 L 391 240 Q 375 239 383 228 L 389 215 Q 400 197 403 169 L 416 31 Q 419 -1 438 -1 Q 445 0 447 8 L 450 22 L 449 52 Z" fill="lightgray"></path>
				<path d="M 575 229 L 641 239 Q 662 242 668 234 Q 675 225 673 204 L 672 168 L 657 108 L 642 57 C 634 31 634 33 634 32 L 642 18 Q 647 6 657 4 Q 669 4 679 16 Q 686 25 699 64 L 725 164 Q 732 197 744 212 L 753 227 Q 756 232 755 236 Q 748 250 721 263 L 690 275 Q 672 282 642 274 Q 612 266 607 265 L 575 258 L 526 246 L 470 238 Q 464 236 425 234 C 395 232 409 211 439 214 L 526 222 L 575 229 Z" fill="lightgray"></path>
				<path d="M 570 128 L 639 137 Q 644 136 647 151 Q 650 167 628 167 Q 606 166 589 163 Q 573 159 571 159 L 526 151 L 468 143 Q 459 141 460 132 Q 462 115 477 118 L 504 121 Q 515 121 526 123 L 570 128 Z" fill="lightgray"></path>
				<path d="M 642 57 L 630 62 Q 627 64 616 66 Q 591 66 569 62 L 526 59 L 449 52 C 419 49 420 23 450 22 L 479 21 Q 481 20 494 22 Q 507 24 526 24 L 566 26 L 634 32 C 664 35 670 45 642 57 Z" fill="lightgray"></path>
				<path d="M 569 62 L 569 126 L 570 128 L 571 159 L 575 229 L 575 258 L 578 276 Q 580 292 584 303 Q 589 313 589 319 Q 590 324 581 332 Q 558 354 529 354 Q 520 355 514 353 Q 509 350 517 332 Q 526 298 526 277 L 526 246 L 526 222 L 526 151 L 526 123 L 526 59 L 526 24 L 526 -20 Q 525 -58 542 -88 Q 566 -136 680 -136 Q 749 -136 820 -116 L 830 -113 Q 840 -110 848 -104 Q 856 -99 848 -86 Q 841 -73 822 -63 Q 803 -54 781 -63 L 764 -70 Q 705 -90 645 -90 Q 584 -93 572 -61 Q 566 -43 566 -9 L 566 26 L 569 62 Z" fill="lightgray"></path>
</g>
		<text x="40" y="140" font-size="128" fill="#999999">5</text></g>
</g>
	<g id="id1:id1" transform="translate(0.0,1024)">
		<g id="id1:id0:id0" transform="matrix(1.0,0,0,1.0,0,0.0)">			<g stroke="lightgray" stroke-width="4" transform="scale(4, 4)"> <rect x="0" y="0" width="256" height="256" fill="white" stroke-width="4"/></g>
			<g transform="scale(0.92, -0.92) translate(60, -920)">					<path d="M 226 406 L 165 395 Q 127 387 113 387 L 94 386 Q 85 384 81 382 Q 78 379 79 372 Q 81 363 99 359 Q 117 354 134 354 Q 149 351 182 358 L 225 366 L 269 373 L 291 378 Q 316 384 323 385 Q 356 392 356 405 Q 354 415 336 423 Q 319 431 304 431 Q 301 431 273 419 L 226 406 Z" fill="black"></path>
				<path d="M 223 660 Q 200 660 213 621 Q 227 582 227 513 L 226 406 L 225 366 L 222 255 L 218 203 L 210 49 Q 210 6 200 -9 Q 191 -24 160 -14 L 121 -3 Q 116 -2 112 -5 Q 109 -8 116 -15 L 132 -27 Q 168 -61 184 -87 Q 201 -113 208 -115 Q 215 -118 235 -103 Q 260 -81 265 -7 L 263 47 Q 262 93 263 102 L 264 244 L 266 283 L 269 373 L 273 419 L 277 480 Q 277 490 281 512 Q 284 561 299 585 L 305 593 Q 307 598 307 605 Q 307 624 278 642 Q 266 647 260 651 Q 255 655 250 656 L 240 659 Q 235 660 223 660 Z" fill="black"></path>
				<path d="M 222 255 Q 96 178 83 171 Q 71 163 43 153 Q 22 150 29 137 Q 36 123 59 104 Q 93 78 111 104 L 137 132 Q 157 151 160 153 L 218 203 L 264 244 L 323 300 Q 335 311 330 317 Q 325 322 316 316 L 266 283 L 222 255 Z" fill="black"></path>
				<path d="M 415 440 L 471 453 L 532 466 L 573 472 L 615 478 L 761 487 Q 767 487 769 492 Q 776 506 749 519 Q 722 531 711 531 L 687 528 L 546 502 L 487 492 L 368 474 Q 363 473 360 469 Q 354 464 374 452 Q 395 440 415 440 Z" fill="black"></path>
				<path d="M 471 453 L 456 424 Q 446 400 425 369 Q 369 282 304 222 L 287 207 Q 274 194 277 188 Q 280 182 289 188 L 305 197 Q 348 224 377 248 Q 450 307 506 418 L 532 466 L 546 502 L 560 537 Q 569 557 578 587 Q 587 616 595 628 Q 604 640 598 647 Q 593 654 575 665 Q 514 698 514 672 Q 523 631 517 594 Q 512 556 487 492 L 471 453 Z" fill="black"></path>
				<path d="M 573 472 L 601 446 Q 615 432 633 412 L 671 367 Q 722 302 769 247 Q 784 231 796 224 Q 819 212 863 221 L 943 236 Q 950 238 949 246 Q 949 254 941 256 L 915 265 Q 800 309 720 379 L 615 478 C 593 499 551 492 573 472 Z" fill="red"></path>
				<path d="M 449 52 L 439 214 C 438 231 438 231 425 234 L 408 238 L 391 240 Q 375 239 383 228 L 389 215 Q 400 197 403 169 L 416 31 Q 419 -1 438 -1 Q 445 0 447 8 L 450 22 L 449 52 Z" fill="lightgray"></path>
				<path d="M 575 229 L 641 239 Q 662 242 668 234 Q 675 225 673 204 L 672 168 L 657 108 L 642 57 C 634 31 634 33 634 32 L 642 18 Q 647 6 657 4 Q 669 4 679 16 Q 686 25 699 64 L 725 164 Q 732 197 744 212 L 753 227 Q 756 232 755 236 Q 748 250 721 263 L 690 275 Q 672 282 642 274 Q 612 266 607 265 L 575 258 L 526 246 L 470 238 Q 464 236 425 234 C 395 232 409 211 439 214 L 526 222 L 575 229 Z" fill="lightgray"></path>
				<path d="M 570 128 L 639 137 Q 644 136 647 151 Q 650 167 628 167 Q 606 166 589 163 Q 573 159 571 159 L 526 151 L 468 143 Q 459 141 460 132 Q 462 115 477 118 L 504 121 Q 515 121 526 123 L 570 128 Z" fill="lightgray"></path>
				<path d="M 642 57 L 630 62 Q 627 64 616 66 Q 591 66 569 62 L 526 59 L 449 52 C 419 49 420 23 450 22 L 479 21 Q 481 20 494 22 Q 507 24 526 24 L 566 26 L 634 32 C 664 35 670 45 642 57 Z" fill="lightgray"></path>
				<path d="M 569 62 L 569 126 L 570 128 L 571 159 L 575 229 L 575 258 L 578 276 Q 580 292 584 303 Q 589 313 589 319 Q 590 324 581 332 Q 558 354 529 354 Q 520 355 514 353 Q 509 350 517 332 Q 526 298 526 277 L 526 246 L 526 222 L 526 151 L 526 123 L 526 59 L 526 24 L 526 -20 Q 525 -58 542 -88 Q 566 -136 680 -136 Q 749 -136 820 -116 L 830 -113 Q 840 -110 848 -104 Q 856 -99 848 -86 Q 841 -73 822 -63 Q 803 -54 781 -63 L 764 -70 Q 705 -90 645 -90 Q 584 -93 572 -61 Q 566 -43 566 -9 L 566 26 L 569 62 Z" fill="lightgray"></path>
</g>
		<text x="40" y="140" font-size="128" fill="#999999">6</text></g>
		<g id="id1:id1:id1" transform="matrix(1.0,0,0,1.0,1024,0.0)">			<g stroke="lightgray" stroke-width="4" transform="scale(4, 4)"> <rect x="0" y="0" width="256" height="256" fill="white" stroke-width="4"/></g>
			<g transform="scale(0.92, -0.92) translate(60, -920)">					<path d="M 226 406 L 165 395 Q 127 387 113 387 L 94 386 Q 85 384 81 382 Q 78 379 79 372 Q 81 363 99 359 Q 117 354 134 354 Q 149 351 182 358 L 225 366 L 269 373 L 291 378 Q 316 384 323 385 Q 356 392 356 405 Q 354 415 336 423 Q 319 431 304 431 Q 301 431 273 419 L 226 406 Z" fill="black"></path>
				<path d="M 223 660 Q 200 660 213 621 Q 227 582 227 513 L 226 406 L 225 366 L 222 255 L 218 203 L 210 49 Q 210 6 200 -9 Q 191 -24 160 -14 L 121 -3 Q 116 -2 112 -5 Q 109 -8 116 -15 L 132 -27 Q 168 -61 184 -87 Q 201 -113 208 -115 Q 215 -118 235 -103 Q 260 -81 265 -7 L 263 47 Q 262 93 263 102 L 264 244 L 266 283 L 269 373 L 273 419 L 277 480 Q 277 490 281 512 Q 284 561 299 585 L 305 593 Q 307 598 307 605 Q 307 624 278 642 Q 266 647 260 651 Q 255 655 250 656 L 240 659 Q 235 660 223 660 Z" fill="black"></path>
				<path d="M 222 255 Q 96 178 83 171 Q 71 163 43 153 Q 22 150 29 137 Q 36 123 59 104 Q 93 78 111 104 L 137 132 Q 157 151 160 153 L 218 203 L 264 244 L 323 300 Q 335 311 330 317 Q 325 322 316 316 L 266 283 L 222 255 Z" fill="black"></path>
				<path d="M 415 440 L 471 453 L 532 466 L 573 472 L 615 478 L 761 487 Q 767 487 769 492 Q 776 506 749 519 Q 722 531 711 531 L 687 528 L 546 502 L 487 492 L 368 474 Q 363 473 360 469 Q 354 464 374 452 Q 395 440 415 440 Z" fill="black"></path>
				<path d="M 471 453 L 456 424 Q 446 400 425 369 Q 369 282 304 222 L 287 207 Q 274 194 277 188 Q 280 182 289 188 L 305 197 Q 348 224 377 248 Q 450 307 506 418 L 532 466 L 546 502 L 560 537 Q 569 557 578 587 Q 587 616 595 628 Q 604 640 598 647 Q 593 654 575 665 Q 514 698 514 672 Q 523 631 517 594 Q 512 556 487 492 L 471 453 Z" fill="black"></path>
				<path d="M 573 472 L 601 446 Q 615 432 633 412 L 671 367 Q 722 302 769 247 Q 784 231 796 224 Q 819 212 863 221 L 943 236 Q 950 238 949 246 Q 949 254 941 256 L 915 265 Q 800 309 720 379 L 615 478 C 593 499 551 492 573 472 Z" fill="black"></path>
				<path d="M 449 52 L 439 214 C 438 231 438 231 425 234 L 408 238 L 391 240 Q 375 239 383 228 L 389 215 Q 400 197 403 169 L 416 31 Q 419 -1 438 -1 Q 445 0 447 8 L 450 22 L 449 52 Z" fill="red"></path>
				<path d="M 575 229 L 641 239 Q 662 242 668 234 Q 675 225 673 204 L 672 168 L 657 108 L 642 57 C 634 31 634 33 634 32 L 642 18 Q 647 6 657 4 Q 669 4 679 16 Q 686 25 699 64 L 725 164 Q 732 197 744 212 L 753 227 Q 756 232 755 236 Q 748 250 721 263 L 690 275 Q 672 282 642 274 Q 612 266 607 265 L 575 258 L 526 246 L 470 238 Q 464 236 425 234 C 395 232 409 211 439 214 L 526 222 L 575 229 Z" fill="lightgray"></path>
				<path d="M 570 128 L 639 137 Q 644 136 647 151 Q 650 167 628 167 Q 606 166 589 163 Q 573 159 571 159 L 526 151 L 468 143 Q 459 141 460 132 Q 462 115 477 118 L 504 121 Q 515 121 526 123 L 570 128 Z" fill="lightgray"></path>
				<path d="M 642 57 L 630 62 Q 627 64 616 66 Q 591 66 569 62 L 526 59 L 449 52 C 419 49 420 23 450 22 L 479 21 Q 481 20 494 22 Q 507 24 526 24 L 566 26 L 634 32 C 664 35 670 45 642 57 Z" fill="lightgray"></path>
				<path d="M 569 62 L 569 126 L 570 128 L 571 159 L 575 229 L 575 258 L 578 276 Q 580 292 584 303 Q 589 313 589 319 Q 590 324 581 332 Q 558 354 529 354 Q 520 355 514 353 Q 509 350 517 332 Q 526 298 526 277 L 526 246 L 526 222 L 526 151 L 526 123 L 526 59 L 526 24 L 526 -20 Q 525 -58 542 -88 Q 566 -136 680 -136 Q 749 -136 820 -116 L 830 -113 Q 840 -110 848 -104 Q 856 -99 848 -86 Q 841 -73 822 -63 Q 803 -54 781 -63 L 764 -70 Q 705 -90 645 -90 Q 584 -93 572 -61 Q 566 -43 566 -9 L 566 26 L 569 62 Z" fill="lightgray"></path>
</g>
		<text x="40" y="140" font-size="128" fill="#999999">7</text></g>
		<g id="id1:id2:id2" transform="matrix(1.0,0,0,1.0,2048,0.0)">			<g stroke="lightgray" stroke-width="4" transform="scale(4, 4)"> <rect x="0" y="0" width="256" height="256" fill="white" stroke-width="4"/></g>
			<g transform="scale(0.92, -0.92) translate(60, -920)">					<path d="M 226 406 L 165 395 Q 127 387 113 387 L 94 386 Q 85 384 81 382 Q 78 379 79 372 Q 81 363 99 359 Q 117 354 134 354 Q 149 351 182 358 L 225 366 L 269 373 L 291 378 Q 316 384 323 385 Q 356 392 356 405 Q 354 415 336 423 Q 319 431 304 431 Q 301 431 273 419 L 226 406 Z" fill="black"></path>
				<path d="M 223 660 Q 200 660 213 621 Q 227 582 227 513 L 226 406 L 225 366 L 222 255 L 218 203 L 210 49 Q 210 6 200 -9 Q 191 -24 160 -14 L 121 -3 Q 116 -2 112 -5 Q 109 -8 116 -15 L 132 -27 Q 168 -61 184 -87 Q 201 -113 208 -115 Q 215 -118 235 -103 Q 260 -81 265 -7 L 263 47 Q 262 93 263 102 L 264 244 L 266 283 L 269 373 L 273 419 L 277 480 Q 277 490 281 512 Q 284 561 299 585 L 305 593 Q 307 598 307 605 Q 307 624 278 642 Q 266 647 260 651 Q 255 655 250 656 L 240 659 Q 235 660 223 660 Z" fill="black"></path>
				<path d="M 222 255 Q 96 178 83 171 Q 71 163 43 153 Q 22 150 29 137 Q 36 123 59 104 Q 93 78 111 104 L 137 132 Q 157 151 160 153 L 218 203 L 264 244 L 323 300 Q 335 311 330 317 Q 325 322 316 316 L 266 283 L 222 255 Z" fill="black"></path>
				<path d="M 415 440 L 471 453 L 532 466 L 573 472 L 615 478 L 761 487 Q 767 487 769 492 Q 776 506 749 519 Q 722 531 711 531 L 687 528 L 546 502 L 487 492 L 368 474 Q 363 473 360 469 Q 354 464 374 452 Q 395 440 415 440 Z" fill="black"></path>
				<path d="M 471 453 L 456 424 Q 446 400 425 369 Q 369 282 304 222 L 287 207 Q 274 194 277 188 Q 280 182 289 188 L 305 197 Q 348 224 377 248 Q 450 307 506 418 L 532 466 L 546 502 L 560 537 Q 569 557 578 587 Q 587 616 595 628 Q 604 640 598 647 Q 593 654 575 665 Q 514 698 514 672 Q 523 631 517 594 Q 512 556 487 492 L 471 453 Z" fill="black"></path>
				<path d="M 573 472 L 601 446 Q 615 432 633 412 L 671 367 Q 722 302 769 247 Q 784 231 796 224 Q 819 212 863 221 L 943 236 Q 950 238 949 246 Q 949 254 941 256 L 915 265 Q 800 309 720 379 L 615 478 C 593 499 551 492 573 472 Z" fill="black"></path>
				<path d="M 449 52 L 439 214 C 438 231 438 231 425 234 L 408 238 L 391 240 Q 375 239 383 228 L 389 215 Q 400 197 403 169 L 416 31 Q 419 -1 438 -1 Q 445 0 447 8 L 450 22 L 449 52 Z" fill="black"></path>
				<path d="M 575 229 L 641 239 Q 662 242 668 234 Q 675 225 673 204 L 672 168 L 657 108 L 642 57 C 634 31 634 33 634 32 L 642 18 Q 647 6 657 4 Q 669 4 679 16 Q 686 25 699 64 L 725 164 Q 732 197 744 212 L 753 227 Q 756 232 755 236 Q 748 250 721 263 L 690 275 Q 672 282 642 274 Q 612 266 607 265 L 575 258 L 526 246 L 470 238 Q 464 236 425 234 C 395 232 409 211 439 214 L 526 222 L 575 229 Z" fill="red"></path>
				<path d="M 570 128 L 639 137 Q 644 136 647 151 Q 650 167 628 167 Q 606 166 589 163 Q 573 159 571 159 L 526 151 L 468 143 Q 459 141 460 132 Q 462 115 477 118 L 504 121 Q 515 121 526 123 L 570 128 Z" fill="lightgray"></path>
				<path d="M 642 57 L 630 62 Q 627 64 616 66 Q 591 66 569 62 L 526 59 L 449 52 C 419 49 420 23 450 22 L 479 21 Q 481 20 494 22 Q 507 24 526 24 L 566 26 L 634 32 C 664 35 670 45 642 57 Z" fill="lightgray"></path>
				<path d="M 569 62 L 569 126 L 570 128 L 571 159 L 575 229 L 575 258 L 578 276 Q 580 292 584 303 Q 589 313 589 319 Q 590 324 581 332 Q 558 354 529 354 Q 520 355 514 353 Q 509 350 517 332 Q 526 298 526 277 L 526 246 L 526 222 L 526 151 L 526 123 L 526 59 L 526 24 L 526 -20 Q 525 -58 542 -88 Q 566 -136 680 -136 Q 749 -136 820 -116 L 830 -113 Q 840 -110 848 -104 Q 856 -99 848 -86 Q 841 -73 822 -63 Q 803 -54 781 -63 L 764 -70 Q 705 -90 645 -90 Q 584 -93 572 -61 Q 566 -43 566 -9 L 566 26 L 569 62 Z" fill="lightgray"></path>
</g>
		<text x="40" y="140" font-size="128" fill="#999999">8</text></g>
		<g id="id1:id3:id3" transform="matrix(1.0,0,0,1.0,3072,0.0)">			<g stroke="lightgray" stroke-width="4" transform="scale(4, 4)"> <rect x="0" y="0" width="256" height="256" fill="white" stroke-width="4"/></g>
			<g transform="scale(0.92, -0.92) translate(60, -920)">					<path d="M 226 406 L 165 395 Q 127 387 113 387 L 94 386 Q 85 384 81 382 Q 78 379 79 372 Q 81 363 99 359 Q 117 354 134 354 Q 149 351 182 358 L 225 366 L 269 373 L 291 378 Q 316 384 323 385 Q 356 392 356 405 Q 354 415 336 423 Q 319 431 304 431 Q 301 431 273 419 L 226 406 Z" fill="black"></path>
				<path d="M 223 660 Q 200 660 213 621 Q 227 582 227 513 L 226 406 L 225 366 L 222 255 L 218 203 L 210 49 Q 210 6 200 -9 Q 191 -24 160 -14 L 121 -3 Q 116 -2 112 -5 Q 109 -8 116 -15 L 132 -27 Q 168 -61 184 -87 Q 201 -113 208 -115 Q 215 -118 235 -103 Q 260 -81 265 -7 L 263 47 Q 262 93 263 102 L 264 244 L 266 283 L 269 373 L 273 419 L 277 480 Q 277 490 281 512 Q 284 561 299 585 L 305 593 Q 307 598 307 605 Q 307 624 278 642 Q 266 647 260 651 Q 255 655 250 656 L 240 659 Q 235 660 223 660 Z" fill="black"></path>
				<path d="M 222 255 Q 96 178 83 171 Q 71 163 43 153 Q 22 150 29 137 Q 36 123 59 104 Q 93 78 111 104 L 137 132 Q 157 151 160 153 L 218 203 L 264 244 L 323 300 Q 335 311 330 317 Q 325 322 316 316 L 266 283 L 222 255 Z" fill="black"></path>
				<path d="M 415 440 L 471 453 L 532 466 L 573 472 L 615 478 L 761 487 Q 767 487 769 492 Q 776 506 749 519 Q 722 531 711 531 L 687 528 L 546 502 L 487 492 L 368 474 Q 363 473 360 469 Q 354 464 374 452 Q 395 440 415 440 Z" fill="black"></path>
				<path d="M 471 453 L 456 424 Q 446 400 425 369 Q 369 282 304 222 L 287 207 Q 274 194 277 188 Q 280 182 289 188 L 305 197 Q 348 224 377 248 Q 450 307 506 418 L 532 466 L 546 502 L 560 537 Q 569 557 578 587 Q 587 616 595 628 Q 604 640 598 647 Q 593 654 575 665 Q 514 698 514 672 Q 523 631 517 594 Q 512 556 487 492 L 471 453 Z" fill="black"></path>
				<path d="M 573 472 L 601 446 Q 615 432 633 412 L 671 367 Q 722 302 769 247 Q 784 231 796 224 Q 819 212 863 221 L 943 236 Q 950 238 949 246 Q 949 254 941 256 L 915 265 Q 800 309 720 379 L 615 478 C 593 499 551 492 573 472 Z" fill="black"></path>
				<path d="M 449 52 L 439 214 C 438 231 438 231 425 234 L 408 238 L 391 240 Q 375 239 383 228 L 389 215 Q 400 197 403 169 L 416 31 Q 419 -1 438 -1 Q 445 0 447 8 L 450 22 L 449 52 Z" fill="black"></path>
				<path d="M 575 229 L 641 239 Q 662 242 668 234 Q 675 225 673 204 L 672 168 L 657 108 L 642 57 C 634 31 634 33 634 32 L 642 18 Q 647 6 657 4 Q 669 4 679 16 Q 686 25 699 64 L 725 164 Q 732 197 744 212 L 753 227 Q 756 232 755 236 Q 748 250 721 263 L 690 275 Q 672 282 642 274 Q 612 266 607 265 L 575 258 L 526 246 L 470 238 Q 464 236 425 234 C 395 232 409 211 439 214 L 526 222 L 575 229 Z" fill="black"></path>
				<path d="M 570 128 L 639 137 Q 644 136 647 151 Q 650 167 628 167 Q 606 166 589 163 Q 573 159 571 159 L 526 151 L 468 143 Q 459 141 460 132 Q 462 115 477 118 L 504 121 Q 515 121 526 123 L 570 128 Z" fill="red"></path>
				<path d="M 642 57 L 630 62 Q 627 64 616 66 Q 591 66 569 62 L 526 59 L 449 52 C 419 49 420 23 450 22 L 479 21 Q 481 20 494 22 Q 507 24 526 24 L 566 26 L 634 32 C 664 35 670 45 642 57 Z" fill="lightgray"></path>
				<path d="M 569 62 L 569 126 L 570 128 L 571 159 L 575 229 L 575 258 L 578 276 Q 580 292 584 303 Q 589 313 589 319 Q 590 324 581 332 Q 558 354 529 354 Q 520 355 514 353 Q 509 350 517 332 Q 526 298 526 277 L 526 246 L 526 222 L 526 151 L 526 123 L 526 59 L 526 24 L 526 -20 Q 525 -58 542 -88 Q 566 -136 680 -136 Q 749 -136 820 -116 L 830 -113 Q 840 -110 848 -104 Q 856 -99 848 -86 Q 841 -73 822 -63 Q 803 -54 781 -63 L 764 -70 Q 705 -90 645 -90 Q 584 -93 572 -61 Q 566 -43 566 -9 L 566 26 L 569 62 Z" fill="lightgray"></path>
</g>
		<text x="40" y="140" font-size="128" fill="#999999">9</text></g>
		<g id="id1:id4:id4" transform="matrix(1.0,0,0,1.0,4096,0.0)">			<g stroke="lightgray" stroke-width="4" transform="scale(4, 4)"> <rect x="0" y="0" width="256" height="256" fill="white" stroke-width="4"/></g>
			<g transform="scale(0.92, -0.92) translate(60, -920)">					<path d="M 226 406 L 165 395 Q 127 387 113 387 L 94 386 Q 85 384 81 382 Q 78 379 79 372 Q 81 363 99 359 Q 117 354 134 354 Q 149 351 182 358 L 225 366 L 269 373 L 291 378 Q 316 384 323 385 Q 356 392 356 405 Q 354 415 336 423 Q 319 431 304 431 Q 301 431 273 419 L 226 406 Z" fill="black"></path>
				<path d="M 223 660 Q 200 660 213 621 Q 227 582 227 513 L 226 406 L 225 366 L 222 255 L 218 203 L 210 49 Q 210 6 200 -9 Q 191 -24 160 -14 L 121 -3 Q 116 -2 112 -5 Q 109 -8 116 -15 L 132 -27 Q 168 -61 184 -87 Q 201 -113 208 -115 Q 215 -118 235 -103 Q 260 -81 265 -7 L 263 47 Q 262 93 263 102 L 264 244 L 266 283 L 269 373 L 273 419 L 277 480 Q 277 490 281 512 Q 284 561 299 585 L 305 593 Q 307 598 307 605 Q 307 624 278 642 Q 266 647 260 651 Q 255 655 250 656 L 240 659 Q 235 660 223 660 Z" fill="black"></path>
				<path d="M 222 255 Q 96 178 83 171 Q 71 163 43 153 Q 22 150 29 137 Q 36 123 59 104 Q 93 78 111 104 L 137 132 Q 157 151 160 153 L 218 203 L 264 244 L 323 300 Q 335 311 330 317 Q 325 322 316 316 L 266 283 L 222 255 Z" fill="black"></path>
				<path d="M 415 440 L 471 453 L 532 466 L 573 472 L 615 478 L 761 487 Q 767 487 769 492 Q 776 506 749 519 Q 722 531 711 531 L 687 528 L 546 502 L 487 492 L 368 474 Q 363 473 360 469 Q 354 464 374 452 Q 395 440 415 440 Z" fill="black"></path>
				<path d="M 471 453 L 456 424 Q 446 400 425 369 Q 369 282 304 222 L 287 207 Q 274 194 277 188 Q 280 182 289 188 L 305 197 Q 348 224 377 248 Q 450 307 506 418 L 532 466 L 546 502 L 560 537 Q 569 557 578 587 Q 587 616 595 628 Q 604 640 598 647 Q 593 654 575 665 Q 514 698 514 672 Q 523 631 517 594 Q 512 556 487 492 L 471 453 Z" fill="black"></path>
				<path d="M 573 472 L 601 446 Q 615 432 633 412 L 671 367 Q 722 302 769 247 Q 784 231 796 224 Q 819 212 863 221 L 943 236 Q 950 238 949 246 Q 949 254 941 256 L 915 265 Q 800 309 720 379 L 615 478 C 593 499 551 492 573 472 Z" fill="black"></path>
				<path d="M 449 52 L 439 214 C 438 231 438 231 425 234 L 408 238 L 391 240 Q 375 239 383 228 L 389 215 Q 400 197 403 169 L 416 31 Q 419 -1 438 -1 Q 445 0 447 8 L 450 22 L 449 52 Z" fill="black"></path>
				<path d="M 575 229 L 641 239 Q 662 242 668 234 Q 675 225 673 204 L 672 168 L 657 108 L 642 57 C 634 31 634 33 634 32 L 642 18 Q 647 6 657 4 Q 669 4 679 16 Q 686 25 699 64 L 725 164 Q 732 197 744 212 L 753 227 Q 756 232 755 236 Q 748 250 721 263 L 690 275 Q 672 282 642 274 Q 612 266 607 265 L 575 258 L 526 246 L 470 238 Q 464 236 425 234 C 395 232 409 211 439 214 L 526 222 L 575 229 Z" fill="black"></path>
				<path d="M 570 128 L 639 137 Q 644 136 647 151 Q 650 167 628 167 Q 606 166 589 163 Q 573 159 571 159 L 526 151 L 468 143 Q 459 141 460 132 Q 462 115 477 118 L 504 121 Q 515 121 526 123 L 570 128 Z" fill="black"></path>
				<path d="M 642 57 L 630 62 Q 627 64 616 66 Q 591 66 569 62 L 526 59 L 449 52 C 419 49 420 23 450 22 L 479 21 Q 481 20 494 22 Q 507 24 526 24 L 566 26 L 634 32 C 664 35 670 45 642 57 Z" fill="red"></path>
				<path d="M 569 62 L 569 126 L 570 128 L 571 159 L 575 229 L 575 258 L 578 276 Q 580 292 584 303 Q 589 313 589 319 Q 590 324 581 332 Q 558 354 529 354 Q 520 355 514 353 Q 509 350 517 332 Q 526 298 526 277 L 526 246 L 526 222 L 526 151 L 526 123 L 526 59 L 526 24 L 526 -20 Q 525 -58 542 -88 Q 566 -136 680 -136 Q 749 -136 820 -116 L 830 -113 Q 840 -110 848 -104 Q 856 -99 848 -86 Q 841 -73 822 -63 Q 803 -54 781 -63 L 764 -70 Q 705 -90 645 -90 Q 584 -93 572 -61 Q 566 -43 566 -9 L 566 26 L 569 62 Z" fill="lightgray"></path>
</g>
		<text x="40" y="140" font-size="128" fill="#999999">10</text></g>
</g>
	<g id="id2:id2" transform="translate(0.0,2048)">
		<g id="id2:id0:id0" transform="matrix(1.0,0,0,1.0,0,0.0)">			<g stroke="lightgray" stroke-width="4" transform="scale(4, 4)"> <rect x="0" y="0" width="256" height="256" fill="white" stroke-width="4"/></g>
			<g transform="scale(0.92, -0.92) translate(60, -920)">					<path d="M 226 406 L 165 395 Q 127 387 113 387 L 94 386 Q 85 384 81 382 Q 78 379 79 372 Q 81 363 99 359 Q 117 354 134 354 Q 149 351 182 358 L 225 366 L 269 373 L 291 378 Q 316 384 323 385 Q 356 392 356 405 Q 354 415 336 423 Q 319 431 304 431 Q 301 431 273 419 L 226 406 Z" fill="black"></path>
				<path d="M 223 660 Q 200 660 213 621 Q 227 582 227 513 L 226 406 L 225 366 L 222 255 L 218 203 L 210 49 Q 210 6 200 -9 Q 191 -24 160 -14 L 121 -3 Q 116 -2 112 -5 Q 109 -8 116 -15 L 132 -27 Q 168 -61 184 -87 Q 201 -113 208 -115 Q 215 -118 235 -103 Q 260 -81 265 -7 L 263 47 Q 262 93 263 102 L 264 244 L 266 283 L 269 373 L 273 419 L 277 480 Q 277 490 281 512 Q 284 561 299 585 L 305 593 Q 307 598 307 605 Q 307 624 278 642 Q 266 647 260 651 Q 255 655 250 656 L 240 659 Q 235 660 223 660 Z" fill="black"></path>
				<path d="M 222 255 Q 96 178 83 171 Q 71 163 43 153 Q 22 150 29 137 Q 36 123 59 104 Q 93 78 111 104 L 137 132 Q 157 151 160 153 L 218 203 L 264 244 L 323 300 Q 335 311 330 317 Q 325 322 316 316 L 266 283 L 222 255 Z" fill="black"></path>
				<path d="M 415 440 L 471 453 L 532 466 L 573 472 L 615 478 L 761 487 Q 767 487 769 492 Q 776 506 749 519 Q 722 531 711 531 L 687 528 L 546 502 L 487 492 L 368 474 Q 363 473 360 469 Q 354 464 374 452 Q 395 440 415 440 Z" fill="black"></path>
				<path d="M 471 453 L 456 424 Q 446 400 425 369 Q 369 282 304 222 L 287 207 Q 274 194 277 188 Q 280 182 289 188 L 305 197 Q 348 224 377 248 Q 450 307 506 418 L 532 466 L 546 502 L 560 537 Q 569 557 578 587 Q 587 616 595 628 Q 604 640 598 647 Q 593 654 575 665 Q 514 698 514 672 Q 523 631 517 594 Q 512 556 487 492 L 471 453 Z" fill="black"></path>
				<path d="M 573 472 L 601 446 Q 615 432 633 412 L 671 367 Q 722 302 769 247 Q 784 231 796 224 Q 819 212 863 221 L 943 236 Q 950 238 949 246 Q 949 254 941 256 L 915 265 Q 800 309 720 379 L 615 478 C 593 499 551 492 573 472 Z" fill="black"></path>
				<path d="M 449 52 L 439 214 C 438 231 438 231 425 234 L 408 238 L 391 240 Q 375 239 383 228 L 389 215 Q 400 197 403 169 L 416 31 Q 419 -1 438 -1 Q 445 0 447 8 L 450 22 L 449 52 Z" fill="black"></path>
				<path d="M 575 229 L 641 239 Q 662 242 668 234 Q 675 225 673 204 L 672 168 L 657 108 L 642 57 C 634 31 634 33 634 32 L 642 18 Q 647 6 657 4 Q 669 4 679 16 Q 686 25 699 64 L 725 164 Q 732 197 744 212 L 753 227 Q 756 232 755 236 Q 748 250 721 263 L 690 275 Q 672 282 642 274 Q 612 266 607 265 L 575 258 L 526 246 L 470 238 Q 464 236 425 234 C 395 232 409 211 439 214 L 526 222 L 575 229 Z" fill="black"></path>
				<path d="M 570 128 L 639 137 Q 644 136 647 151 Q 650 167 628 167 Q 606 166 589 163 Q 573 159 571 159 L 526 151 L 468 143 Q 459 141 460 132 Q 462 115 477 118 L 504 121 Q 515 121 526 123 L 570 128 Z" fill="black"></path>
				<path d="M 642 57 L 630 62 Q 627 64 616 66 Q 591 66 569 62 L 526 59 L 449 52 C 419 49 420 23 450 22 L 479 21 Q 481 20 494 22 Q 507 24 526 24 L 566 26 L 634 32 C 664 35 670 45 642 57 Z" fill="black"></path>
				<path d="M 569 62 L 569 126 L 570 128 L 571 159 L 575 229 L 575 258 L 578 276 Q 580 292 584 303 Q 589 313 589 319 Q 590 324 581 332 Q 558 354 529 354 Q 520 355 514 353 Q 509 350 517 332 Q 526 298 526 277 L 526 246 L 526 222 L 526 151 L 526 123 L 526 59 L 526 24 L 526 -20 Q 525 -58 542 -88 Q 566 -136 680 -136 Q 749 -136 820 -116 L 830 -113 Q 840 -110 848 -104 Q 856 -99 848 -86 Q 841 -73 822 -63 Q 803 -54 781 -63 L 764 -70 Q 705 -90 645 -90 Q 584 -93 572 -61 Q 566 -43 566 -9 L 566 26 L 569 62 Z" fill="red"></path>
</g>
		<text x="40" y="140" font-size="128" fill="#999999">11</text></g>
		<g id="id2:id1:id1" transform="matrix(1.0,0,0,1.0,1024,0.0)">			<g stroke="white" stroke-width="4" transform="scale(4, 4)"> <rect x="1" y="1" width="255" height="255" fill="white" stroke-width="0"/></g>
</g>
		<g id="id2:id2:id2" transform="matrix(1.0,0,0,1.0,2048,0.0)">			<g stroke="white" stroke-width="4" transform="scale(4, 4)"> <rect x="1" y="1" width="255" height="255" fill="white" stroke-width="0"/></g>
</g>
		<g id="id2:id3:id3" transform="matrix(1.0,0,0,1.0,3072,0.0)">			<g stroke="white" stroke-width="4" transform="scale(4, 4)"> <rect x="1" y="1" width="255" height="255" fill="white" stroke-width="0"/></g>
</g>
		<g id="id2:id4:id4" transform="matrix(1.0,0,0,1.0,4096,0.0)">			<g stroke="white" stroke-width="4" transform="scale(4, 4)"> <rect x="1" y="1" width="255" height="255" fill="white" stroke-width="0"/></g>
</g>
</g>
</svg>
