<?xml version="1.0" standalone="no"?>
<!DOCTYPE svg PUBLIC "-//W3C//DTD SVG 1.1//EN"
 "http://www.w3.org/Graphics/SVG/1.1/DTD/svg11.dtd">
<!-- generate by Japanese dictionary app com.asnsami.kanjidictionary -->

<svg xmlns="http://www.w3.org/2000/svg" xmlns:sodipodi="http://sodipodi.sourceforge.net/DTD/sodipodi-0.dtd" version="1.1" width="640" height="384" viewBox="0 0 5120 3072">
	<g id="id0:id0" transform="translate(0.0,0)">
		<g id="id0:id0:id0" transform="matrix(1.0,0,0,1.0,0,0.0)">			<g stroke="lightgray" stroke-width="4" transform="scale(4, 4)"> <rect x="0" y="0" width="256" height="256" fill="white" stroke-width="4"/></g>
			<g transform="scale(0.92, -0.92) translate(60, -920)">					<path d="M 328 453 L 308 443 L 264 435 L 226 426 L 102 406 Q 91 405 87 399 Q 83 385 107 378 L 130 376 Q 140 374 171 376 L 253 388 L 307 398 L 372 412 Q 389 416 398 422 Q 415 428 401 443 Q 395 450 374 455 Q 353 460 346 459 Q 340 457 328 453 Z" fill="red"></path>
				<path d="M 308 443 L 317 562 Q 320 602 327 621 Q 335 640 334 644 Q 332 657 303 676 Q 274 694 259 694 Q 244 694 243 690 Q 238 687 243 673 L 250 654 L 255 630 Q 260 612 261 592 L 264 549 L 264 435 L 258 279 L 250 156 Q 245 100 243 91 L 236 44 Q 234 26 229 8 Q 225 -11 225 -20 Q 225 -29 235 -57 Q 245 -86 252 -93 Q 259 -100 262 -99 Q 266 -99 272 -93 Q 279 -87 283 -76 L 293 -48 Q 297 -39 297 8 L 301 307 L 304 329 L 307 398 L 308 443 Z" fill="lightgray"></path>
				<path d="M 253 388 L 245 367 Q 235 338 215 302 Q 162 205 98 132 L 58 88 Q 53 82 56 78 Q 58 74 67 79 L 83 88 Q 164 141 219 219 Q 253 267 258 279 C 331 416 264 416 253 388 Z" fill="lightgray"></path>
				<path d="M 301 307 L 333 264 Q 341 250 355 242 Q 376 234 382 260 Q 386 274 381 288 Q 374 298 363 307 Q 338 319 334 320 L 304 329 C 279 336 283 331 301 307 Z" fill="lightgray"></path>
				<path d="M 559 530 L 565 542 Q 568 546 568 567 Q 566 609 533 630 L 509 644 L 493 649 Q 478 653 476 650 Q 475 646 477 637 L 483 622 Q 486 610 496 589 L 512 554 Q 516 547 525 537 L 537 523 C 549 509 549 509 559 530 Z" fill="lightgray"></path>
				<path d="M 575 290 L 600 276 Q 606 276 608 277 Q 622 281 633 328 L 655 420 Q 664 458 674 476 Q 685 494 685 499 Q 681 519 630 540 Q 611 548 604 548 L 559 530 L 537 523 L 482 507 C 453 499 458 475 487 481 L 573 500 Q 597 507 606 496 Q 609 491 606 470 L 600 425 L 597 393 L 581 321 C 574 292 574 290 575 290 Z" fill="lightgray"></path>
				<path d="M 479 379 L 597 393 C 627 397 629 419 600 425 L 585 428 Q 567 430 565 429 L 536 421 L 480 409 C 451 403 449 375 479 379 Z" fill="lightgray"></path>
				<path d="M 468 280 L 575 290 C 605 293 611 316 581 321 L 559 325 L 514 318 L 471 314 C 441 311 438 277 468 280 Z" fill="lightgray"></path>
				<path d="M 405 517 Q 405 509 409 503 L 418 482 Q 423 473 424 462 L 428 430 Q 431 404 431 398 L 427 290 L 419 176 Q 417 143 411 123 Q 406 103 391 88 Q 387 82 390 76 L 400 52 Q 406 37 413 30 Q 424 16 429 17 Q 435 18 449 36 L 482 72 L 584 166 C 606 186 604 195 578 180 L 491 130 Q 461 112 459 114 Q 457 116 457 120 L 468 280 L 471 314 L 474 346 Q 477 362 479 379 L 480 409 L 487 481 C 489 504 489 504 482 507 L 454 518 Q 408 540 405 517 Z" fill="lightgray"></path>
				<path d="M 584 166 L 604 135 Q 617 114 622 109 Q 627 104 635 104 Q 651 103 653 119 Q 657 126 655 147 Q 652 187 619 214 Q 599 230 581 234 Q 561 241 557 240 Q 546 241 557 220 L 578 180 L 584 166 Z" fill="lightgray"></path>
				<path d="M 783 495 L 857 512 Q 865 514 869 511 Q 878 504 863 466 L 825 378 Q 817 356 818 352 Q 819 347 833 336 C 840 330 826 342 841 362 L 911 457 Q 919 467 940 488 L 957 506 Q 964 512 966 518 Q 966 533 928 549 Q 891 565 887 564 L 836 542 L 801 530 L 765 521 C 736 514 754 488 783 495 Z" fill="lightgray"></path>
				<path d="M 833 336 Q 869 306 881 261 Q 890 234 893 211 Q 896 187 879 176 Q 869 174 845 179 Q 821 183 819 184 L 810 188 Q 798 191 797 187 Q 796 183 801 179 L 845 144 Q 859 132 870 121 L 891 97 Q 905 82 910 81 Q 915 80 927 96 Q 939 111 948 132 Q 963 168 950 226 Q 938 283 892 324 Q 871 343 862 349 L 841 362 C 815 378 811 356 833 336 Z" fill="lightgray"></path>
				<path d="M 768 414 L 770 441 Q 773 467 777 478 L 783 495 C 789 513 789 513 765 521 L 745 528 Q 711 540 704 535 Q 698 529 698 524 L 707 492 Q 711 426 711 418 L 705 -80 Q 704 -82 705 -108 Q 707 -135 711 -150 Q 715 -166 722 -166 Q 729 -166 732 -157 Q 736 -148 743 -122 Q 750 -96 752 -78 L 765 379 Q 767 393 768 414 Z" fill="lightgray"></path>
</g>
		<text x="40" y="140" font-size="128" fill="#999999">1</text></g>
		<g id="id0:id1:id1" transform="matrix(1.0,0,0,1.0,1024,0.0)">			<g stroke="lightgray" stroke-width="4" transform="scale(4, 4)"> <rect x="0" y="0" width="256" height="256" fill="white" stroke-width="4"/></g>
			<g transform="scale(0.92, -0.92) translate(60, -920)">					<path d="M 328 453 L 308 443 L 264 435 L 226 426 L 102 406 Q 91 405 87 399 Q 83 385 107 378 L 130 376 Q 140 374 171 376 L 253 388 L 307 398 L 372 412 Q 389 416 398 422 Q 415 428 401 443 Q 395 450 374 455 Q 353 460 346 459 Q 340 457 328 453 Z" fill="black"></path>
				<path d="M 308 443 L 317 562 Q 320 602 327 621 Q 335 640 334 644 Q 332 657 303 676 Q 274 694 259 694 Q 244 694 243 690 Q 238 687 243 673 L 250 654 L 255 630 Q 260 612 261 592 L 264 549 L 264 435 L 258 279 L 250 156 Q 245 100 243 91 L 236 44 Q 234 26 229 8 Q 225 -11 225 -20 Q 225 -29 235 -57 Q 245 -86 252 -93 Q 259 -100 262 -99 Q 266 -99 272 -93 Q 279 -87 283 -76 L 293 -48 Q 297 -39 297 8 L 301 307 L 304 329 L 307 398 L 308 443 Z" fill="red"></path>
				<path d="M 253 388 L 245 367 Q 235 338 215 302 Q 162 205 98 132 L 58 88 Q 53 82 56 78 Q 58 74 67 79 L 83 88 Q 164 141 219 219 Q 253 267 258 279 C 331 416 264 416 253 388 Z" fill="lightgray"></path>
				<path d="M 301 307 L 333 264 Q 341 250 355 242 Q 376 234 382 260 Q 386 274 381 288 Q 374 298 363 307 Q 338 319 334 320 L 304 329 C 279 336 283 331 301 307 Z" fill="lightgray"></path>
				<path d="M 559 530 L 565 542 Q 568 546 568 567 Q 566 609 533 630 L 509 644 L 493 649 Q 478 653 476 650 Q 475 646 477 637 L 483 622 Q 486 610 496 589 L 512 554 Q 516 547 525 537 L 537 523 C 549 509 549 509 559 530 Z" fill="lightgray"></path>
				<path d="M 575 290 L 600 276 Q 606 276 608 277 Q 622 281 633 328 L 655 420 Q 664 458 674 476 Q 685 494 685 499 Q 681 519 630 540 Q 611 548 604 548 L 559 530 L 537 523 L 482 507 C 453 499 458 475 487 481 L 573 500 Q 597 507 606 496 Q 609 491 606 470 L 600 425 L 597 393 L 581 321 C 574 292 574 290 575 290 Z" fill="lightgray"></path>
				<path d="M 479 379 L 597 393 C 627 397 629 419 600 425 L 585 428 Q 567 430 565 429 L 536 421 L 480 409 C 451 403 449 375 479 379 Z" fill="lightgray"></path>
				<path d="M 468 280 L 575 290 C 605 293 611 316 581 321 L 559 325 L 514 318 L 471 314 C 441 311 438 277 468 280 Z" fill="lightgray"></path>
				<path d="M 405 517 Q 405 509 409 503 L 418 482 Q 423 473 424 462 L 428 430 Q 431 404 431 398 L 427 290 L 419 176 Q 417 143 411 123 Q 406 103 391 88 Q 387 82 390 76 L 400 52 Q 406 37 413 30 Q 424 16 429 17 Q 435 18 449 36 L 482 72 L 584 166 C 606 186 604 195 578 180 L 491 130 Q 461 112 459 114 Q 457 116 457 120 L 468 280 L 471 314 L 474 346 Q 477 362 479 379 L 480 409 L 487 481 C 489 504 489 504 482 507 L 454 518 Q 408 540 405 517 Z" fill="lightgray"></path>
				<path d="M 584 166 L 604 135 Q 617 114 622 109 Q 627 104 635 104 Q 651 103 653 119 Q 657 126 655 147 Q 652 187 619 214 Q 599 230 581 234 Q 561 241 557 240 Q 546 241 557 220 L 578 180 L 584 166 Z" fill="lightgray"></path>
				<path d="M 783 495 L 857 512 Q 865 514 869 511 Q 878 504 863 466 L 825 378 Q 817 356 818 352 Q 819 347 833 336 C 840 330 826 342 841 362 L 911 457 Q 919 467 940 488 L 957 506 Q 964 512 966 518 Q 966 533 928 549 Q 891 565 887 564 L 836 542 L 801 530 L 765 521 C 736 514 754 488 783 495 Z" fill="lightgray"></path>
				<path d="M 833 336 Q 869 306 881 261 Q 890 234 893 211 Q 896 187 879 176 Q 869 174 845 179 Q 821 183 819 184 L 810 188 Q 798 191 797 187 Q 796 183 801 179 L 845 144 Q 859 132 870 121 L 891 97 Q 905 82 910 81 Q 915 80 927 96 Q 939 111 948 132 Q 963 168 950 226 Q 938 283 892 324 Q 871 343 862 349 L 841 362 C 815 378 811 356 833 336 Z" fill="lightgray"></path>
				<path d="M 768 414 L 770 441 Q 773 467 777 478 L 783 495 C 789 513 789 513 765 521 L 745 528 Q 711 540 704 535 Q 698 529 698 524 L 707 492 Q 711 426 711 418 L 705 -80 Q 704 -82 705 -108 Q 707 -135 711 -150 Q 715 -166 722 -166 Q 729 -166 732 -157 Q 736 -148 743 -122 Q 750 -96 752 -78 L 765 379 Q 767 393 768 414 Z" fill="lightgray"></path>
</g>
		<text x="40" y="140" font-size="128" fill="#999999">2</text></g>
		<g id="id0:id2:id2" transform="matrix(1.0,0,0,1.0,2048,0.0)">			<g stroke="lightgray" stroke-width="4" transform="scale(4, 4)"> <rect x="0" y="0" width="256" height="256" fill="white" stroke-width="4"/></g>
			<g transform="scale(0.92, -0.92) translate(60, -920)">					<path d="M 328 453 L 308 443 L 264 435 L 226 426 L 102 406 Q 91 405 87 399 Q 83 385 107 378 L 130 376 Q 140 374 171 376 L 253 388 L 307 398 L 372 412 Q 389 416 398 422 Q 415 428 401 443 Q 395 450 374 455 Q 353 460 346 459 Q 340 457 328 453 Z" fill="black"></path>
				<path d="M 308 443 L 317 562 Q 320 602 327 621 Q 335 640 334 644 Q 332 657 303 676 Q 274 694 259 694 Q 244 694 243 690 Q 238 687 243 673 L 250 654 L 255 630 Q 260 612 261 592 L 264 549 L 264 435 L 258 279 L 250 156 Q 245 100 243 91 L 236 44 Q 234 26 229 8 Q 225 -11 225 -20 Q 225 -29 235 -57 Q 245 -86 252 -93 Q 259 -100 262 -99 Q 266 -99 272 -93 Q 279 -87 283 -76 L 293 -48 Q 297 -39 297 8 L 301 307 L 304 329 L 307 398 L 308 443 Z" fill="black"></path>
				<path d="M 253 388 L 245 367 Q 235 338 215 302 Q 162 205 98 132 L 58 88 Q 53 82 56 78 Q 58 74 67 79 L 83 88 Q 164 141 219 219 Q 253 267 258 279 C 331 416 264 416 253 388 Z" fill="red"></path>
				<path d="M 301 307 L 333 264 Q 341 250 355 242 Q 376 234 382 260 Q 386 274 381 288 Q 374 298 363 307 Q 338 319 334 320 L 304 329 C 279 336 283 331 301 307 Z" fill="lightgray"></path>
				<path d="M 559 530 L 565 542 Q 568 546 568 567 Q 566 609 533 630 L 509 644 L 493 649 Q 478 653 476 650 Q 475 646 477 637 L 483 622 Q 486 610 496 589 L 512 554 Q 516 547 525 537 L 537 523 C 549 509 549 509 559 530 Z" fill="lightgray"></path>
				<path d="M 575 290 L 600 276 Q 606 276 608 277 Q 622 281 633 328 L 655 420 Q 664 458 674 476 Q 685 494 685 499 Q 681 519 630 540 Q 611 548 604 548 L 559 530 L 537 523 L 482 507 C 453 499 458 475 487 481 L 573 500 Q 597 507 606 496 Q 609 491 606 470 L 600 425 L 597 393 L 581 321 C 574 292 574 290 575 290 Z" fill="lightgray"></path>
				<path d="M 479 379 L 597 393 C 627 397 629 419 600 425 L 585 428 Q 567 430 565 429 L 536 421 L 480 409 C 451 403 449 375 479 379 Z" fill="lightgray"></path>
				<path d="M 468 280 L 575 290 C 605 293 611 316 581 321 L 559 325 L 514 318 L 471 314 C 441 311 438 277 468 280 Z" fill="lightgray"></path>
				<path d="M 405 517 Q 405 509 409 503 L 418 482 Q 423 473 424 462 L 428 430 Q 431 404 431 398 L 427 290 L 419 176 Q 417 143 411 123 Q 406 103 391 88 Q 387 82 390 76 L 400 52 Q 406 37 413 30 Q 424 16 429 17 Q 435 18 449 36 L 482 72 L 584 166 C 606 186 604 195 578 180 L 491 130 Q 461 112 459 114 Q 457 116 457 120 L 468 280 L 471 314 L 474 346 Q 477 362 479 379 L 480 409 L 487 481 C 489 504 489 504 482 507 L 454 518 Q 408 540 405 517 Z" fill="lightgray"></path>
				<path d="M 584 166 L 604 135 Q 617 114 622 109 Q 627 104 635 104 Q 651 103 653 119 Q 657 126 655 147 Q 652 187 619 214 Q 599 230 581 234 Q 561 241 557 240 Q 546 241 557 220 L 578 180 L 584 166 Z" fill="lightgray"></path>
				<path d="M 783 495 L 857 512 Q 865 514 869 511 Q 878 504 863 466 L 825 378 Q 817 356 818 352 Q 819 347 833 336 C 840 330 826 342 841 362 L 911 457 Q 919 467 940 488 L 957 506 Q 964 512 966 518 Q 966 533 928 549 Q 891 565 887 564 L 836 542 L 801 530 L 765 521 C 736 514 754 488 783 495 Z" fill="lightgray"></path>
				<path d="M 833 336 Q 869 306 881 261 Q 890 234 893 211 Q 896 187 879 176 Q 869 174 845 179 Q 821 183 819 184 L 810 188 Q 798 191 797 187 Q 796 183 801 179 L 845 144 Q 859 132 870 121 L 891 97 Q 905 82 910 81 Q 915 80 927 96 Q 939 111 948 132 Q 963 168 950 226 Q 938 283 892 324 Q 871 343 862 349 L 841 362 C 815 378 811 356 833 336 Z" fill="lightgray"></path>
				<path d="M 768 414 L 770 441 Q 773 467 777 478 L 783 495 C 789 513 789 513 765 521 L 745 528 Q 711 540 704 535 Q 698 529 698 524 L 707 492 Q 711 426 711 418 L 705 -80 Q 704 -82 705 -108 Q 707 -135 711 -150 Q 715 -166 722 -166 Q 729 -166 732 -157 Q 736 -148 743 -122 Q 750 -96 752 -78 L 765 379 Q 767 393 768 414 Z" fill="lightgray"></path>
</g>
		<text x="40" y="140" font-size="128" fill="#999999">3</text></g>
		<g id="id0:id3:id3" transform="matrix(1.0,0,0,1.0,3072,0.0)">			<g stroke="lightgray" stroke-width="4" transform="scale(4, 4)"> <rect x="0" y="0" width="256" height="256" fill="white" stroke-width="4"/></g>
			<g transform="scale(0.92, -0.92) translate(60, -920)">					<path d="M 328 453 L 308 443 L 264 435 L 226 426 L 102 406 Q 91 405 87 399 Q 83 385 107 378 L 130 376 Q 140 374 171 376 L 253 388 L 307 398 L 372 412 Q 389 416 398 422 Q 415 428 401 443 Q 395 450 374 455 Q 353 460 346 459 Q 340 457 328 453 Z" fill="black"></path>
				<path d="M 308 443 L 317 562 Q 320 602 327 621 Q 335 640 334 644 Q 332 657 303 676 Q 274 694 259 694 Q 244 694 243 690 Q 238 687 243 673 L 250 654 L 255 630 Q 260 612 261 592 L 264 549 L 264 435 L 258 279 L 250 156 Q 245 100 243 91 L 236 44 Q 234 26 229 8 Q 225 -11 225 -20 Q 225 -29 235 -57 Q 245 -86 252 -93 Q 259 -100 262 -99 Q 266 -99 272 -93 Q 279 -87 283 -76 L 293 -48 Q 297 -39 297 8 L 301 307 L 304 329 L 307 398 L 308 443 Z" fill="black"></path>
				<path d="M 253 388 L 245 367 Q 235 338 215 302 Q 162 205 98 132 L 58 88 Q 53 82 56 78 Q 58 74 67 79 L 83 88 Q 164 141 219 219 Q 253 267 258 279 C 331 416 264 416 253 388 Z" fill="black"></path>
				<path d="M 301 307 L 333 264 Q 341 250 355 242 Q 376 234 382 260 Q 386 274 381 288 Q 374 298 363 307 Q 338 319 334 320 L 304 329 C 279 336 283 331 301 307 Z" fill="red"></path>
				<path d="M 559 530 L 565 542 Q 568 546 568 567 Q 566 609 533 630 L 509 644 L 493 649 Q 478 653 476 650 Q 475 646 477 637 L 483 622 Q 486 610 496 589 L 512 554 Q 516 547 525 537 L 537 523 C 549 509 549 509 559 530 Z" fill="lightgray"></path>
				<path d="M 575 290 L 600 276 Q 606 276 608 277 Q 622 281 633 328 L 655 420 Q 664 458 674 476 Q 685 494 685 499 Q 681 519 630 540 Q 611 548 604 548 L 559 530 L 537 523 L 482 507 C 453 499 458 475 487 481 L 573 500 Q 597 507 606 496 Q 609 491 606 470 L 600 425 L 597 393 L 581 321 C 574 292 574 290 575 290 Z" fill="lightgray"></path>
				<path d="M 479 379 L 597 393 C 627 397 629 419 600 425 L 585 428 Q 567 430 565 429 L 536 421 L 480 409 C 451 403 449 375 479 379 Z" fill="lightgray"></path>
				<path d="M 468 280 L 575 290 C 605 293 611 316 581 321 L 559 325 L 514 318 L 471 314 C 441 311 438 277 468 280 Z" fill="lightgray"></path>
				<path d="M 405 517 Q 405 509 409 503 L 418 482 Q 423 473 424 462 L 428 430 Q 431 404 431 398 L 427 290 L 419 176 Q 417 143 411 123 Q 406 103 391 88 Q 387 82 390 76 L 400 52 Q 406 37 413 30 Q 424 16 429 17 Q 435 18 449 36 L 482 72 L 584 166 C 606 186 604 195 578 180 L 491 130 Q 461 112 459 114 Q 457 116 457 120 L 468 280 L 471 314 L 474 346 Q 477 362 479 379 L 480 409 L 487 481 C 489 504 489 504 482 507 L 454 518 Q 408 540 405 517 Z" fill="lightgray"></path>
				<path d="M 584 166 L 604 135 Q 617 114 622 109 Q 627 104 635 104 Q 651 103 653 119 Q 657 126 655 147 Q 652 187 619 214 Q 599 230 581 234 Q 561 241 557 240 Q 546 241 557 220 L 578 180 L 584 166 Z" fill="lightgray"></path>
				<path d="M 783 495 L 857 512 Q 865 514 869 511 Q 878 504 863 466 L 825 378 Q 817 356 818 352 Q 819 347 833 336 C 840 330 826 342 841 362 L 911 457 Q 919 467 940 488 L 957 506 Q 964 512 966 518 Q 966 533 928 549 Q 891 565 887 564 L 836 542 L 801 530 L 765 521 C 736 514 754 488 783 495 Z" fill="lightgray"></path>
				<path d="M 833 336 Q 869 306 881 261 Q 890 234 893 211 Q 896 187 879 176 Q 869 174 845 179 Q 821 183 819 184 L 810 188 Q 798 191 797 187 Q 796 183 801 179 L 845 144 Q 859 132 870 121 L 891 97 Q 905 82 910 81 Q 915 80 927 96 Q 939 111 948 132 Q 963 168 950 226 Q 938 283 892 324 Q 871 343 862 349 L 841 362 C 815 378 811 356 833 336 Z" fill="lightgray"></path>
				<path d="M 768 414 L 770 441 Q 773 467 777 478 L 783 495 C 789 513 789 513 765 521 L 745 528 Q 711 540 704 535 Q 698 529 698 524 L 707 492 Q 711 426 711 418 L 705 -80 Q 704 -82 705 -108 Q 707 -135 711 -150 Q 715 -166 722 -166 Q 729 -166 732 -157 Q 736 -148 743 -122 Q 750 -96 752 -78 L 765 379 Q 767 393 768 414 Z" fill="lightgray"></path>
</g>
		<text x="40" y="140" font-size="128" fill="#999999">4</text></g>
		<g id="id0:id4:id4" transform="matrix(1.0,0,0,1.0,4096,0.0)">			<g stroke="lightgray" stroke-width="4" transform="scale(4, 4)"> <rect x="0" y="0" width="256" height="256" fill="white" stroke-width="4"/></g>
			<g transform="scale(0.92, -0.92) translate(60, -920)">					<path d="M 328 453 L 308 443 L 264 435 L 226 426 L 102 406 Q 91 405 87 399 Q 83 385 107 378 L 130 376 Q 140 374 171 376 L 253 388 L 307 398 L 372 412 Q 389 416 398 422 Q 415 428 401 443 Q 395 450 374 455 Q 353 460 346 459 Q 340 457 328 453 Z" fill="black"></path>
				<path d="M 308 443 L 317 562 Q 320 602 327 621 Q 335 640 334 644 Q 332 657 303 676 Q 274 694 259 694 Q 244 694 243 690 Q 238 687 243 673 L 250 654 L 255 630 Q 260 612 261 592 L 264 549 L 264 435 L 258 279 L 250 156 Q 245 100 243 91 L 236 44 Q 234 26 229 8 Q 225 -11 225 -20 Q 225 -29 235 -57 Q 245 -86 252 -93 Q 259 -100 262 -99 Q 266 -99 272 -93 Q 279 -87 283 -76 L 293 -48 Q 297 -39 297 8 L 301 307 L 304 329 L 307 398 L 308 443 Z" fill="black"></path>
				<path d="M 253 388 L 245 367 Q 235 338 215 302 Q 162 205 98 132 L 58 88 Q 53 82 56 78 Q 58 74 67 79 L 83 88 Q 164 141 219 219 Q 253 267 258 279 C 331 416 264 416 253 388 Z" fill="black"></path>
				<path d="M 301 307 L 333 264 Q 341 250 355 242 Q 376 234 382 260 Q 386 274 381 288 Q 374 298 363 307 Q 338 319 334 320 L 304 329 C 279 336 283 331 301 307 Z" fill="black"></path>
				<path d="M 559 530 L 565 542 Q 568 546 568 567 Q 566 609 533 630 L 509 644 L 493 649 Q 478 653 476 650 Q 475 646 477 637 L 483 622 Q 486 610 496 589 L 512 554 Q 516 547 525 537 L 537 523 C 549 509 549 509 559 530 Z" fill="red"></path>
				<path d="M 575 290 L 600 276 Q 606 276 608 277 Q 622 281 633 328 L 655 420 Q 664 458 674 476 Q 685 494 685 499 Q 681 519 630 540 Q 611 548 604 548 L 559 530 L 537 523 L 482 507 C 453 499 458 475 487 481 L 573 500 Q 597 507 606 496 Q 609 491 606 470 L 600 425 L 597 393 L 581 321 C 574 292 574 290 575 290 Z" fill="lightgray"></path>
				<path d="M 479 379 L 597 393 C 627 397 629 419 600 425 L 585 428 Q 567 430 565 429 L 536 421 L 480 409 C 451 403 449 375 479 379 Z" fill="lightgray"></path>
				<path d="M 468 280 L 575 290 C 605 293 611 316 581 321 L 559 325 L 514 318 L 471 314 C 441 311 438 277 468 280 Z" fill="lightgray"></path>
				<path d="M 405 517 Q 405 509 409 503 L 418 482 Q 423 473 424 462 L 428 430 Q 431 404 431 398 L 427 290 L 419 176 Q 417 143 411 123 Q 406 103 391 88 Q 387 82 390 76 L 400 52 Q 406 37 413 30 Q 424 16 429 17 Q 435 18 449 36 L 482 72 L 584 166 C 606 186 604 195 578 180 L 491 130 Q 461 112 459 114 Q 457 116 457 120 L 468 280 L 471 314 L 474 346 Q 477 362 479 379 L 480 409 L 487 481 C 489 504 489 504 482 507 L 454 518 Q 408 540 405 517 Z" fill="lightgray"></path>
				<path d="M 584 166 L 604 135 Q 617 114 622 109 Q 627 104 635 104 Q 651 103 653 119 Q 657 126 655 147 Q 652 187 619 214 Q 599 230 581 234 Q 561 241 557 240 Q 546 241 557 220 L 578 180 L 584 166 Z" fill="lightgray"></path>
				<path d="M 783 495 L 857 512 Q 865 514 869 511 Q 878 504 863 466 L 825 378 Q 817 356 818 352 Q 819 347 833 336 C 840 330 826 342 841 362 L 911 457 Q 919 467 940 488 L 957 506 Q 964 512 966 518 Q 966 533 928 549 Q 891 565 887 564 L 836 542 L 801 530 L 765 521 C 736 514 754 488 783 495 Z" fill="lightgray"></path>
				<path d="M 833 336 Q 869 306 881 261 Q 890 234 893 211 Q 896 187 879 176 Q 869 174 845 179 Q 821 183 819 184 L 810 188 Q 798 191 797 187 Q 796 183 801 179 L 845 144 Q 859 132 870 121 L 891 97 Q 905 82 910 81 Q 915 80 927 96 Q 939 111 948 132 Q 963 168 950 226 Q 938 283 892 324 Q 871 343 862 349 L 841 362 C 815 378 811 356 833 336 Z" fill="lightgray"></path>
				<path d="M 768 414 L 770 441 Q 773 467 777 478 L 783 495 C 789 513 789 513 765 521 L 745 528 Q 711 540 704 535 Q 698 529 698 524 L 707 492 Q 711 426 711 418 L 705 -80 Q 704 -82 705 -108 Q 707 -135 711 -150 Q 715 -166 722 -166 Q 729 -166 732 -157 Q 736 -148 743 -122 Q 750 -96 752 -78 L 765 379 Q 767 393 768 414 Z" fill="lightgray"></path>
</g>
		<text x="40" y="140" font-size="128" fill="#999999">5</text></g>
</g>
	<g id="id1:id1" transform="translate(0.0,1024)">
		<g id="id1:id0:id0" transform="matrix(1.0,0,0,1.0,0,0.0)">			<g stroke="lightgray" stroke-width="4" transform="scale(4, 4)"> <rect x="0" y="0" width="256" height="256" fill="white" stroke-width="4"/></g>
			<g transform="scale(0.92, -0.92) translate(60, -920)">					<path d="M 328 453 L 308 443 L 264 435 L 226 426 L 102 406 Q 91 405 87 399 Q 83 385 107 378 L 130 376 Q 140 374 171 376 L 253 388 L 307 398 L 372 412 Q 389 416 398 422 Q 415 428 401 443 Q 395 450 374 455 Q 353 460 346 459 Q 340 457 328 453 Z" fill="black"></path>
				<path d="M 308 443 L 317 562 Q 320 602 327 621 Q 335 640 334 644 Q 332 657 303 676 Q 274 694 259 694 Q 244 694 243 690 Q 238 687 243 673 L 250 654 L 255 630 Q 260 612 261 592 L 264 549 L 264 435 L 258 279 L 250 156 Q 245 100 243 91 L 236 44 Q 234 26 229 8 Q 225 -11 225 -20 Q 225 -29 235 -57 Q 245 -86 252 -93 Q 259 -100 262 -99 Q 266 -99 272 -93 Q 279 -87 283 -76 L 293 -48 Q 297 -39 297 8 L 301 307 L 304 329 L 307 398 L 308 443 Z" fill="black"></path>
				<path d="M 253 388 L 245 367 Q 235 338 215 302 Q 162 205 98 132 L 58 88 Q 53 82 56 78 Q 58 74 67 79 L 83 88 Q 164 141 219 219 Q 253 267 258 279 C 331 416 264 416 253 388 Z" fill="black"></path>
				<path d="M 301 307 L 333 264 Q 341 250 355 242 Q 376 234 382 260 Q 386 274 381 288 Q 374 298 363 307 Q 338 319 334 320 L 304 329 C 279 336 283 331 301 307 Z" fill="black"></path>
				<path d="M 559 530 L 565 542 Q 568 546 568 567 Q 566 609 533 630 L 509 644 L 493 649 Q 478 653 476 650 Q 475 646 477 637 L 483 622 Q 486 610 496 589 L 512 554 Q 516 547 525 537 L 537 523 C 549 509 549 509 559 530 Z" fill="black"></path>
				<path d="M 575 290 L 600 276 Q 606 276 608 277 Q 622 281 633 328 L 655 420 Q 664 458 674 476 Q 685 494 685 499 Q 681 519 630 540 Q 611 548 604 548 L 559 530 L 537 523 L 482 507 C 453 499 458 475 487 481 L 573 500 Q 597 507 606 496 Q 609 491 606 470 L 600 425 L 597 393 L 581 321 C 574 292 574 290 575 290 Z" fill="red"></path>
				<path d="M 479 379 L 597 393 C 627 397 629 419 600 425 L 585 428 Q 567 430 565 429 L 536 421 L 480 409 C 451 403 449 375 479 379 Z" fill="lightgray"></path>
				<path d="M 468 280 L 575 290 C 605 293 611 316 581 321 L 559 325 L 514 318 L 471 314 C 441 311 438 277 468 280 Z" fill="lightgray"></path>
				<path d="M 405 517 Q 405 509 409 503 L 418 482 Q 423 473 424 462 L 428 430 Q 431 404 431 398 L 427 290 L 419 176 Q 417 143 411 123 Q 406 103 391 88 Q 387 82 390 76 L 400 52 Q 406 37 413 30 Q 424 16 429 17 Q 435 18 449 36 L 482 72 L 584 166 C 606 186 604 195 578 180 L 491 130 Q 461 112 459 114 Q 457 116 457 120 L 468 280 L 471 314 L 474 346 Q 477 362 479 379 L 480 409 L 487 481 C 489 504 489 504 482 507 L 454 518 Q 408 540 405 517 Z" fill="lightgray"></path>
				<path d="M 584 166 L 604 135 Q 617 114 622 109 Q 627 104 635 104 Q 651 103 653 119 Q 657 126 655 147 Q 652 187 619 214 Q 599 230 581 234 Q 561 241 557 240 Q 546 241 557 220 L 578 180 L 584 166 Z" fill="lightgray"></path>
				<path d="M 783 495 L 857 512 Q 865 514 869 511 Q 878 504 863 466 L 825 378 Q 817 356 818 352 Q 819 347 833 336 C 840 330 826 342 841 362 L 911 457 Q 919 467 940 488 L 957 506 Q 964 512 966 518 Q 966 533 928 549 Q 891 565 887 564 L 836 542 L 801 530 L 765 521 C 736 514 754 488 783 495 Z" fill="lightgray"></path>
				<path d="M 833 336 Q 869 306 881 261 Q 890 234 893 211 Q 896 187 879 176 Q 869 174 845 179 Q 821 183 819 184 L 810 188 Q 798 191 797 187 Q 796 183 801 179 L 845 144 Q 859 132 870 121 L 891 97 Q 905 82 910 81 Q 915 80 927 96 Q 939 111 948 132 Q 963 168 950 226 Q 938 283 892 324 Q 871 343 862 349 L 841 362 C 815 378 811 356 833 336 Z" fill="lightgray"></path>
				<path d="M 768 414 L 770 441 Q 773 467 777 478 L 783 495 C 789 513 789 513 765 521 L 745 528 Q 711 540 704 535 Q 698 529 698 524 L 707 492 Q 711 426 711 418 L 705 -80 Q 704 -82 705 -108 Q 707 -135 711 -150 Q 715 -166 722 -166 Q 729 -166 732 -157 Q 736 -148 743 -122 Q 750 -96 752 -78 L 765 379 Q 767 393 768 414 Z" fill="lightgray"></path>
</g>
		<text x="40" y="140" font-size="128" fill="#999999">6</text></g>
		<g id="id1:id1:id1" transform="matrix(1.0,0,0,1.0,1024,0.0)">			<g stroke="lightgray" stroke-width="4" transform="scale(4, 4)"> <rect x="0" y="0" width="256" height="256" fill="white" stroke-width="4"/></g>
			<g transform="scale(0.92, -0.92) translate(60, -920)">					<path d="M 328 453 L 308 443 L 264 435 L 226 426 L 102 406 Q 91 405 87 399 Q 83 385 107 378 L 130 376 Q 140 374 171 376 L 253 388 L 307 398 L 372 412 Q 389 416 398 422 Q 415 428 401 443 Q 395 450 374 455 Q 353 460 346 459 Q 340 457 328 453 Z" fill="black"></path>
				<path d="M 308 443 L 317 562 Q 320 602 327 621 Q 335 640 334 644 Q 332 657 303 676 Q 274 694 259 694 Q 244 694 243 690 Q 238 687 243 673 L 250 654 L 255 630 Q 260 612 261 592 L 264 549 L 264 435 L 258 279 L 250 156 Q 245 100 243 91 L 236 44 Q 234 26 229 8 Q 225 -11 225 -20 Q 225 -29 235 -57 Q 245 -86 252 -93 Q 259 -100 262 -99 Q 266 -99 272 -93 Q 279 -87 283 -76 L 293 -48 Q 297 -39 297 8 L 301 307 L 304 329 L 307 398 L 308 443 Z" fill="black"></path>
				<path d="M 253 388 L 245 367 Q 235 338 215 302 Q 162 205 98 132 L 58 88 Q 53 82 56 78 Q 58 74 67 79 L 83 88 Q 164 141 219 219 Q 253 267 258 279 C 331 416 264 416 253 388 Z" fill="black"></path>
				<path d="M 301 307 L 333 264 Q 341 250 355 242 Q 376 234 382 260 Q 386 274 381 288 Q 374 298 363 307 Q 338 319 334 320 L 304 329 C 279 336 283 331 301 307 Z" fill="black"></path>
				<path d="M 559 530 L 565 542 Q 568 546 568 567 Q 566 609 533 630 L 509 644 L 493 649 Q 478 653 476 650 Q 475 646 477 637 L 483 622 Q 486 610 496 589 L 512 554 Q 516 547 525 537 L 537 523 C 549 509 549 509 559 530 Z" fill="black"></path>
				<path d="M 575 290 L 600 276 Q 606 276 608 277 Q 622 281 633 328 L 655 420 Q 664 458 674 476 Q 685 494 685 499 Q 681 519 630 540 Q 611 548 604 548 L 559 530 L 537 523 L 482 507 C 453 499 458 475 487 481 L 573 500 Q 597 507 606 496 Q 609 491 606 470 L 600 425 L 597 393 L 581 321 C 574 292 574 290 575 290 Z" fill="black"></path>
				<path d="M 479 379 L 597 393 C 627 397 629 419 600 425 L 585 428 Q 567 430 565 429 L 536 421 L 480 409 C 451 403 449 375 479 379 Z" fill="red"></path>
				<path d="M 468 280 L 575 290 C 605 293 611 316 581 321 L 559 325 L 514 318 L 471 314 C 441 311 438 277 468 280 Z" fill="lightgray"></path>
				<path d="M 405 517 Q 405 509 409 503 L 418 482 Q 423 473 424 462 L 428 430 Q 431 404 431 398 L 427 290 L 419 176 Q 417 143 411 123 Q 406 103 391 88 Q 387 82 390 76 L 400 52 Q 406 37 413 30 Q 424 16 429 17 Q 435 18 449 36 L 482 72 L 584 166 C 606 186 604 195 578 180 L 491 130 Q 461 112 459 114 Q 457 116 457 120 L 468 280 L 471 314 L 474 346 Q 477 362 479 379 L 480 409 L 487 481 C 489 504 489 504 482 507 L 454 518 Q 408 540 405 517 Z" fill="lightgray"></path>
				<path d="M 584 166 L 604 135 Q 617 114 622 109 Q 627 104 635 104 Q 651 103 653 119 Q 657 126 655 147 Q 652 187 619 214 Q 599 230 581 234 Q 561 241 557 240 Q 546 241 557 220 L 578 180 L 584 166 Z" fill="lightgray"></path>
				<path d="M 783 495 L 857 512 Q 865 514 869 511 Q 878 504 863 466 L 825 378 Q 817 356 818 352 Q 819 347 833 336 C 840 330 826 342 841 362 L 911 457 Q 919 467 940 488 L 957 506 Q 964 512 966 518 Q 966 533 928 549 Q 891 565 887 564 L 836 542 L 801 530 L 765 521 C 736 514 754 488 783 495 Z" fill="lightgray"></path>
				<path d="M 833 336 Q 869 306 881 261 Q 890 234 893 211 Q 896 187 879 176 Q 869 174 845 179 Q 821 183 819 184 L 810 188 Q 798 191 797 187 Q 796 183 801 179 L 845 144 Q 859 132 870 121 L 891 97 Q 905 82 910 81 Q 915 80 927 96 Q 939 111 948 132 Q 963 168 950 226 Q 938 283 892 324 Q 871 343 862 349 L 841 362 C 815 378 811 356 833 336 Z" fill="lightgray"></path>
				<path d="M 768 414 L 770 441 Q 773 467 777 478 L 783 495 C 789 513 789 513 765 521 L 745 528 Q 711 540 704 535 Q 698 529 698 524 L 707 492 Q 711 426 711 418 L 705 -80 Q 704 -82 705 -108 Q 707 -135 711 -150 Q 715 -166 722 -166 Q 729 -166 732 -157 Q 736 -148 743 -122 Q 750 -96 752 -78 L 765 379 Q 767 393 768 414 Z" fill="lightgray"></path>
</g>
		<text x="40" y="140" font-size="128" fill="#999999">7</text></g>
		<g id="id1:id2:id2" transform="matrix(1.0,0,0,1.0,2048,0.0)">			<g stroke="lightgray" stroke-width="4" transform="scale(4, 4)"> <rect x="0" y="0" width="256" height="256" fill="white" stroke-width="4"/></g>
			<g transform="scale(0.92, -0.92) translate(60, -920)">					<path d="M 328 453 L 308 443 L 264 435 L 226 426 L 102 406 Q 91 405 87 399 Q 83 385 107 378 L 130 376 Q 140 374 171 376 L 253 388 L 307 398 L 372 412 Q 389 416 398 422 Q 415 428 401 443 Q 395 450 374 455 Q 353 460 346 459 Q 340 457 328 453 Z" fill="black"></path>
				<path d="M 308 443 L 317 562 Q 320 602 327 621 Q 335 640 334 644 Q 332 657 303 676 Q 274 694 259 694 Q 244 694 243 690 Q 238 687 243 673 L 250 654 L 255 630 Q 260 612 261 592 L 264 549 L 264 435 L 258 279 L 250 156 Q 245 100 243 91 L 236 44 Q 234 26 229 8 Q 225 -11 225 -20 Q 225 -29 235 -57 Q 245 -86 252 -93 Q 259 -100 262 -99 Q 266 -99 272 -93 Q 279 -87 283 -76 L 293 -48 Q 297 -39 297 8 L 301 307 L 304 329 L 307 398 L 308 443 Z" fill="black"></path>
				<path d="M 253 388 L 245 367 Q 235 338 215 302 Q 162 205 98 132 L 58 88 Q 53 82 56 78 Q 58 74 67 79 L 83 88 Q 164 141 219 219 Q 253 267 258 279 C 331 416 264 416 253 388 Z" fill="black"></path>
				<path d="M 301 307 L 333 264 Q 341 250 355 242 Q 376 234 382 260 Q 386 274 381 288 Q 374 298 363 307 Q 338 319 334 320 L 304 329 C 279 336 283 331 301 307 Z" fill="black"></path>
				<path d="M 559 530 L 565 542 Q 568 546 568 567 Q 566 609 533 630 L 509 644 L 493 649 Q 478 653 476 650 Q 475 646 477 637 L 483 622 Q 486 610 496 589 L 512 554 Q 516 547 525 537 L 537 523 C 549 509 549 509 559 530 Z" fill="black"></path>
				<path d="M 575 290 L 600 276 Q 606 276 608 277 Q 622 281 633 328 L 655 420 Q 664 458 674 476 Q 685 494 685 499 Q 681 519 630 540 Q 611 548 604 548 L 559 530 L 537 523 L 482 507 C 453 499 458 475 487 481 L 573 500 Q 597 507 606 496 Q 609 491 606 470 L 600 425 L 597 393 L 581 321 C 574 292 574 290 575 290 Z" fill="black"></path>
				<path d="M 479 379 L 597 393 C 627 397 629 419 600 425 L 585 428 Q 567 430 565 429 L 536 421 L 480 409 C 451 403 449 375 479 379 Z" fill="black"></path>
				<path d="M 468 280 L 575 290 C 605 293 611 316 581 321 L 559 325 L 514 318 L 471 314 C 441 311 438 277 468 280 Z" fill="red"></path>
				<path d="M 405 517 Q 405 509 409 503 L 418 482 Q 423 473 424 462 L 428 430 Q 431 404 431 398 L 427 290 L 419 176 Q 417 143 411 123 Q 406 103 391 88 Q 387 82 390 76 L 400 52 Q 406 37 413 30 Q 424 16 429 17 Q 435 18 449 36 L 482 72 L 584 166 C 606 186 604 195 578 180 L 491 130 Q 461 112 459 114 Q 457 116 457 120 L 468 280 L 471 314 L 474 346 Q 477 362 479 379 L 480 409 L 487 481 C 489 504 489 504 482 507 L 454 518 Q 408 540 405 517 Z" fill="lightgray"></path>
				<path d="M 584 166 L 604 135 Q 617 114 622 109 Q 627 104 635 104 Q 651 103 653 119 Q 657 126 655 147 Q 652 187 619 214 Q 599 230 581 234 Q 561 241 557 240 Q 546 241 557 220 L 578 180 L 584 166 Z" fill="lightgray"></path>
				<path d="M 783 495 L 857 512 Q 865 514 869 511 Q 878 504 863 466 L 825 378 Q 817 356 818 352 Q 819 347 833 336 C 840 330 826 342 841 362 L 911 457 Q 919 467 940 488 L 957 506 Q 964 512 966 518 Q 966 533 928 549 Q 891 565 887 564 L 836 542 L 801 530 L 765 521 C 736 514 754 488 783 495 Z" fill="lightgray"></path>
				<path d="M 833 336 Q 869 306 881 261 Q 890 234 893 211 Q 896 187 879 176 Q 869 174 845 179 Q 821 183 819 184 L 810 188 Q 798 191 797 187 Q 796 183 801 179 L 845 144 Q 859 132 870 121 L 891 97 Q 905 82 910 81 Q 915 80 927 96 Q 939 111 948 132 Q 963 168 950 226 Q 938 283 892 324 Q 871 343 862 349 L 841 362 C 815 378 811 356 833 336 Z" fill="lightgray"></path>
				<path d="M 768 414 L 770 441 Q 773 467 777 478 L 783 495 C 789 513 789 513 765 521 L 745 528 Q 711 540 704 535 Q 698 529 698 524 L 707 492 Q 711 426 711 418 L 705 -80 Q 704 -82 705 -108 Q 707 -135 711 -150 Q 715 -166 722 -166 Q 729 -166 732 -157 Q 736 -148 743 -122 Q 750 -96 752 -78 L 765 379 Q 767 393 768 414 Z" fill="lightgray"></path>
</g>
		<text x="40" y="140" font-size="128" fill="#999999">8</text></g>
		<g id="id1:id3:id3" transform="matrix(1.0,0,0,1.0,3072,0.0)">			<g stroke="lightgray" stroke-width="4" transform="scale(4, 4)"> <rect x="0" y="0" width="256" height="256" fill="white" stroke-width="4"/></g>
			<g transform="scale(0.92, -0.92) translate(60, -920)">					<path d="M 328 453 L 308 443 L 264 435 L 226 426 L 102 406 Q 91 405 87 399 Q 83 385 107 378 L 130 376 Q 140 374 171 376 L 253 388 L 307 398 L 372 412 Q 389 416 398 422 Q 415 428 401 443 Q 395 450 374 455 Q 353 460 346 459 Q 340 457 328 453 Z" fill="black"></path>
				<path d="M 308 443 L 317 562 Q 320 602 327 621 Q 335 640 334 644 Q 332 657 303 676 Q 274 694 259 694 Q 244 694 243 690 Q 238 687 243 673 L 250 654 L 255 630 Q 260 612 261 592 L 264 549 L 264 435 L 258 279 L 250 156 Q 245 100 243 91 L 236 44 Q 234 26 229 8 Q 225 -11 225 -20 Q 225 -29 235 -57 Q 245 -86 252 -93 Q 259 -100 262 -99 Q 266 -99 272 -93 Q 279 -87 283 -76 L 293 -48 Q 297 -39 297 8 L 301 307 L 304 329 L 307 398 L 308 443 Z" fill="black"></path>
				<path d="M 253 388 L 245 367 Q 235 338 215 302 Q 162 205 98 132 L 58 88 Q 53 82 56 78 Q 58 74 67 79 L 83 88 Q 164 141 219 219 Q 253 267 258 279 C 331 416 264 416 253 388 Z" fill="black"></path>
				<path d="M 301 307 L 333 264 Q 341 250 355 242 Q 376 234 382 260 Q 386 274 381 288 Q 374 298 363 307 Q 338 319 334 320 L 304 329 C 279 336 283 331 301 307 Z" fill="black"></path>
				<path d="M 559 530 L 565 542 Q 568 546 568 567 Q 566 609 533 630 L 509 644 L 493 649 Q 478 653 476 650 Q 475 646 477 637 L 483 622 Q 486 610 496 589 L 512 554 Q 516 547 525 537 L 537 523 C 549 509 549 509 559 530 Z" fill="black"></path>
				<path d="M 575 290 L 600 276 Q 606 276 608 277 Q 622 281 633 328 L 655 420 Q 664 458 674 476 Q 685 494 685 499 Q 681 519 630 540 Q 611 548 604 548 L 559 530 L 537 523 L 482 507 C 453 499 458 475 487 481 L 573 500 Q 597 507 606 496 Q 609 491 606 470 L 600 425 L 597 393 L 581 321 C 574 292 574 290 575 290 Z" fill="black"></path>
				<path d="M 479 379 L 597 393 C 627 397 629 419 600 425 L 585 428 Q 567 430 565 429 L 536 421 L 480 409 C 451 403 449 375 479 379 Z" fill="black"></path>
				<path d="M 468 280 L 575 290 C 605 293 611 316 581 321 L 559 325 L 514 318 L 471 314 C 441 311 438 277 468 280 Z" fill="black"></path>
				<path d="M 405 517 Q 405 509 409 503 L 418 482 Q 423 473 424 462 L 428 430 Q 431 404 431 398 L 427 290 L 419 176 Q 417 143 411 123 Q 406 103 391 88 Q 387 82 390 76 L 400 52 Q 406 37 413 30 Q 424 16 429 17 Q 435 18 449 36 L 482 72 L 584 166 C 606 186 604 195 578 180 L 491 130 Q 461 112 459 114 Q 457 116 457 120 L 468 280 L 471 314 L 474 346 Q 477 362 479 379 L 480 409 L 487 481 C 489 504 489 504 482 507 L 454 518 Q 408 540 405 517 Z" fill="red"></path>
				<path d="M 584 166 L 604 135 Q 617 114 622 109 Q 627 104 635 104 Q 651 103 653 119 Q 657 126 655 147 Q 652 187 619 214 Q 599 230 581 234 Q 561 241 557 240 Q 546 241 557 220 L 578 180 L 584 166 Z" fill="lightgray"></path>
				<path d="M 783 495 L 857 512 Q 865 514 869 511 Q 878 504 863 466 L 825 378 Q 817 356 818 352 Q 819 347 833 336 C 840 330 826 342 841 362 L 911 457 Q 919 467 940 488 L 957 506 Q 964 512 966 518 Q 966 533 928 549 Q 891 565 887 564 L 836 542 L 801 530 L 765 521 C 736 514 754 488 783 495 Z" fill="lightgray"></path>
				<path d="M 833 336 Q 869 306 881 261 Q 890 234 893 211 Q 896 187 879 176 Q 869 174 845 179 Q 821 183 819 184 L 810 188 Q 798 191 797 187 Q 796 183 801 179 L 845 144 Q 859 132 870 121 L 891 97 Q 905 82 910 81 Q 915 80 927 96 Q 939 111 948 132 Q 963 168 950 226 Q 938 283 892 324 Q 871 343 862 349 L 841 362 C 815 378 811 356 833 336 Z" fill="lightgray"></path>
				<path d="M 768 414 L 770 441 Q 773 467 777 478 L 783 495 C 789 513 789 513 765 521 L 745 528 Q 711 540 704 535 Q 698 529 698 524 L 707 492 Q 711 426 711 418 L 705 -80 Q 704 -82 705 -108 Q 707 -135 711 -150 Q 715 -166 722 -166 Q 729 -166 732 -157 Q 736 -148 743 -122 Q 750 -96 752 -78 L 765 379 Q 767 393 768 414 Z" fill="lightgray"></path>
</g>
		<text x="40" y="140" font-size="128" fill="#999999">9</text></g>
		<g id="id1:id4:id4" transform="matrix(1.0,0,0,1.0,4096,0.0)">			<g stroke="lightgray" stroke-width="4" transform="scale(4, 4)"> <rect x="0" y="0" width="256" height="256" fill="white" stroke-width="4"/></g>
			<g transform="scale(0.92, -0.92) translate(60, -920)">					<path d="M 328 453 L 308 443 L 264 435 L 226 426 L 102 406 Q 91 405 87 399 Q 83 385 107 378 L 130 376 Q 140 374 171 376 L 253 388 L 307 398 L 372 412 Q 389 416 398 422 Q 415 428 401 443 Q 395 450 374 455 Q 353 460 346 459 Q 340 457 328 453 Z" fill="black"></path>
				<path d="M 308 443 L 317 562 Q 320 602 327 621 Q 335 640 334 644 Q 332 657 303 676 Q 274 694 259 694 Q 244 694 243 690 Q 238 687 243 673 L 250 654 L 255 630 Q 260 612 261 592 L 264 549 L 264 435 L 258 279 L 250 156 Q 245 100 243 91 L 236 44 Q 234 26 229 8 Q 225 -11 225 -20 Q 225 -29 235 -57 Q 245 -86 252 -93 Q 259 -100 262 -99 Q 266 -99 272 -93 Q 279 -87 283 -76 L 293 -48 Q 297 -39 297 8 L 301 307 L 304 329 L 307 398 L 308 443 Z" fill="black"></path>
				<path d="M 253 388 L 245 367 Q 235 338 215 302 Q 162 205 98 132 L 58 88 Q 53 82 56 78 Q 58 74 67 79 L 83 88 Q 164 141 219 219 Q 253 267 258 279 C 331 416 264 416 253 388 Z" fill="black"></path>
				<path d="M 301 307 L 333 264 Q 341 250 355 242 Q 376 234 382 260 Q 386 274 381 288 Q 374 298 363 307 Q 338 319 334 320 L 304 329 C 279 336 283 331 301 307 Z" fill="black"></path>
				<path d="M 559 530 L 565 542 Q 568 546 568 567 Q 566 609 533 630 L 509 644 L 493 649 Q 478 653 476 650 Q 475 646 477 637 L 483 622 Q 486 610 496 589 L 512 554 Q 516 547 525 537 L 537 523 C 549 509 549 509 559 530 Z" fill="black"></path>
				<path d="M 575 290 L 600 276 Q 606 276 608 277 Q 622 281 633 328 L 655 420 Q 664 458 674 476 Q 685 494 685 499 Q 681 519 630 540 Q 611 548 604 548 L 559 530 L 537 523 L 482 507 C 453 499 458 475 487 481 L 573 500 Q 597 507 606 496 Q 609 491 606 470 L 600 425 L 597 393 L 581 321 C 574 292 574 290 575 290 Z" fill="black"></path>
				<path d="M 479 379 L 597 393 C 627 397 629 419 600 425 L 585 428 Q 567 430 565 429 L 536 421 L 480 409 C 451 403 449 375 479 379 Z" fill="black"></path>
				<path d="M 468 280 L 575 290 C 605 293 611 316 581 321 L 559 325 L 514 318 L 471 314 C 441 311 438 277 468 280 Z" fill="black"></path>
				<path d="M 405 517 Q 405 509 409 503 L 418 482 Q 423 473 424 462 L 428 430 Q 431 404 431 398 L 427 290 L 419 176 Q 417 143 411 123 Q 406 103 391 88 Q 387 82 390 76 L 400 52 Q 406 37 413 30 Q 424 16 429 17 Q 435 18 449 36 L 482 72 L 584 166 C 606 186 604 195 578 180 L 491 130 Q 461 112 459 114 Q 457 116 457 120 L 468 280 L 471 314 L 474 346 Q 477 362 479 379 L 480 409 L 487 481 C 489 504 489 504 482 507 L 454 518 Q 408 540 405 517 Z" fill="black"></path>
				<path d="M 584 166 L 604 135 Q 617 114 622 109 Q 627 104 635 104 Q 651 103 653 119 Q 657 126 655 147 Q 652 187 619 214 Q 599 230 581 234 Q 561 241 557 240 Q 546 241 557 220 L 578 180 L 584 166 Z" fill="red"></path>
				<path d="M 783 495 L 857 512 Q 865 514 869 511 Q 878 504 863 466 L 825 378 Q 817 356 818 352 Q 819 347 833 336 C 840 330 826 342 841 362 L 911 457 Q 919 467 940 488 L 957 506 Q 964 512 966 518 Q 966 533 928 549 Q 891 565 887 564 L 836 542 L 801 530 L 765 521 C 736 514 754 488 783 495 Z" fill="lightgray"></path>
				<path d="M 833 336 Q 869 306 881 261 Q 890 234 893 211 Q 896 187 879 176 Q 869 174 845 179 Q 821 183 819 184 L 810 188 Q 798 191 797 187 Q 796 183 801 179 L 845 144 Q 859 132 870 121 L 891 97 Q 905 82 910 81 Q 915 80 927 96 Q 939 111 948 132 Q 963 168 950 226 Q 938 283 892 324 Q 871 343 862 349 L 841 362 C 815 378 811 356 833 336 Z" fill="lightgray"></path>
				<path d="M 768 414 L 770 441 Q 773 467 777 478 L 783 495 C 789 513 789 513 765 521 L 745 528 Q 711 540 704 535 Q 698 529 698 524 L 707 492 Q 711 426 711 418 L 705 -80 Q 704 -82 705 -108 Q 707 -135 711 -150 Q 715 -166 722 -166 Q 729 -166 732 -157 Q 736 -148 743 -122 Q 750 -96 752 -78 L 765 379 Q 767 393 768 414 Z" fill="lightgray"></path>
</g>
		<text x="40" y="140" font-size="128" fill="#999999">10</text></g>
</g>
	<g id="id2:id2" transform="translate(0.0,2048)">
		<g id="id2:id0:id0" transform="matrix(1.0,0,0,1.0,0,0.0)">			<g stroke="lightgray" stroke-width="4" transform="scale(4, 4)"> <rect x="0" y="0" width="256" height="256" fill="white" stroke-width="4"/></g>
			<g transform="scale(0.92, -0.92) translate(60, -920)">					<path d="M 328 453 L 308 443 L 264 435 L 226 426 L 102 406 Q 91 405 87 399 Q 83 385 107 378 L 130 376 Q 140 374 171 376 L 253 388 L 307 398 L 372 412 Q 389 416 398 422 Q 415 428 401 443 Q 395 450 374 455 Q 353 460 346 459 Q 340 457 328 453 Z" fill="black"></path>
				<path d="M 308 443 L 317 562 Q 320 602 327 621 Q 335 640 334 644 Q 332 657 303 676 Q 274 694 259 694 Q 244 694 243 690 Q 238 687 243 673 L 250 654 L 255 630 Q 260 612 261 592 L 264 549 L 264 435 L 258 279 L 250 156 Q 245 100 243 91 L 236 44 Q 234 26 229 8 Q 225 -11 225 -20 Q 225 -29 235 -57 Q 245 -86 252 -93 Q 259 -100 262 -99 Q 266 -99 272 -93 Q 279 -87 283 -76 L 293 -48 Q 297 -39 297 8 L 301 307 L 304 329 L 307 398 L 308 443 Z" fill="black"></path>
				<path d="M 253 388 L 245 367 Q 235 338 215 302 Q 162 205 98 132 L 58 88 Q 53 82 56 78 Q 58 74 67 79 L 83 88 Q 164 141 219 219 Q 253 267 258 279 C 331 416 264 416 253 388 Z" fill="black"></path>
				<path d="M 301 307 L 333 264 Q 341 250 355 242 Q 376 234 382 260 Q 386 274 381 288 Q 374 298 363 307 Q 338 319 334 320 L 304 329 C 279 336 283 331 301 307 Z" fill="black"></path>
				<path d="M 559 530 L 565 542 Q 568 546 568 567 Q 566 609 533 630 L 509 644 L 493 649 Q 478 653 476 650 Q 475 646 477 637 L 483 622 Q 486 610 496 589 L 512 554 Q 516 547 525 537 L 537 523 C 549 509 549 509 559 530 Z" fill="black"></path>
				<path d="M 575 290 L 600 276 Q 606 276 608 277 Q 622 281 633 328 L 655 420 Q 664 458 674 476 Q 685 494 685 499 Q 681 519 630 540 Q 611 548 604 548 L 559 530 L 537 523 L 482 507 C 453 499 458 475 487 481 L 573 500 Q 597 507 606 496 Q 609 491 606 470 L 600 425 L 597 393 L 581 321 C 574 292 574 290 575 290 Z" fill="black"></path>
				<path d="M 479 379 L 597 393 C 627 397 629 419 600 425 L 585 428 Q 567 430 565 429 L 536 421 L 480 409 C 451 403 449 375 479 379 Z" fill="black"></path>
				<path d="M 468 280 L 575 290 C 605 293 611 316 581 321 L 559 325 L 514 318 L 471 314 C 441 311 438 277 468 280 Z" fill="black"></path>
				<path d="M 405 517 Q 405 509 409 503 L 418 482 Q 423 473 424 462 L 428 430 Q 431 404 431 398 L 427 290 L 419 176 Q 417 143 411 123 Q 406 103 391 88 Q 387 82 390 76 L 400 52 Q 406 37 413 30 Q 424 16 429 17 Q 435 18 449 36 L 482 72 L 584 166 C 606 186 604 195 578 180 L 491 130 Q 461 112 459 114 Q 457 116 457 120 L 468 280 L 471 314 L 474 346 Q 477 362 479 379 L 480 409 L 487 481 C 489 504 489 504 482 507 L 454 518 Q 408 540 405 517 Z" fill="black"></path>
				<path d="M 584 166 L 604 135 Q 617 114 622 109 Q 627 104 635 104 Q 651 103 653 119 Q 657 126 655 147 Q 652 187 619 214 Q 599 230 581 234 Q 561 241 557 240 Q 546 241 557 220 L 578 180 L 584 166 Z" fill="black"></path>
				<path d="M 783 495 L 857 512 Q 865 514 869 511 Q 878 504 863 466 L 825 378 Q 817 356 818 352 Q 819 347 833 336 C 840 330 826 342 841 362 L 911 457 Q 919 467 940 488 L 957 506 Q 964 512 966 518 Q 966 533 928 549 Q 891 565 887 564 L 836 542 L 801 530 L 765 521 C 736 514 754 488 783 495 Z" fill="red"></path>
				<path d="M 833 336 Q 869 306 881 261 Q 890 234 893 211 Q 896 187 879 176 Q 869 174 845 179 Q 821 183 819 184 L 810 188 Q 798 191 797 187 Q 796 183 801 179 L 845 144 Q 859 132 870 121 L 891 97 Q 905 82 910 81 Q 915 80 927 96 Q 939 111 948 132 Q 963 168 950 226 Q 938 283 892 324 Q 871 343 862 349 L 841 362 C 815 378 811 356 833 336 Z" fill="lightgray"></path>
				<path d="M 768 414 L 770 441 Q 773 467 777 478 L 783 495 C 789 513 789 513 765 521 L 745 528 Q 711 540 704 535 Q 698 529 698 524 L 707 492 Q 711 426 711 418 L 705 -80 Q 704 -82 705 -108 Q 707 -135 711 -150 Q 715 -166 722 -166 Q 729 -166 732 -157 Q 736 -148 743 -122 Q 750 -96 752 -78 L 765 379 Q 767 393 768 414 Z" fill="lightgray"></path>
</g>
		<text x="40" y="140" font-size="128" fill="#999999">11</text></g>
		<g id="id2:id1:id1" transform="matrix(1.0,0,0,1.0,1024,0.0)">			<g stroke="lightgray" stroke-width="4" transform="scale(4, 4)"> <rect x="0" y="0" width="256" height="256" fill="white" stroke-width="4"/></g>
			<g transform="scale(0.92, -0.92) translate(60, -920)">					<path d="M 328 453 L 308 443 L 264 435 L 226 426 L 102 406 Q 91 405 87 399 Q 83 385 107 378 L 130 376 Q 140 374 171 376 L 253 388 L 307 398 L 372 412 Q 389 416 398 422 Q 415 428 401 443 Q 395 450 374 455 Q 353 460 346 459 Q 340 457 328 453 Z" fill="black"></path>
				<path d="M 308 443 L 317 562 Q 320 602 327 621 Q 335 640 334 644 Q 332 657 303 676 Q 274 694 259 694 Q 244 694 243 690 Q 238 687 243 673 L 250 654 L 255 630 Q 260 612 261 592 L 264 549 L 264 435 L 258 279 L 250 156 Q 245 100 243 91 L 236 44 Q 234 26 229 8 Q 225 -11 225 -20 Q 225 -29 235 -57 Q 245 -86 252 -93 Q 259 -100 262 -99 Q 266 -99 272 -93 Q 279 -87 283 -76 L 293 -48 Q 297 -39 297 8 L 301 307 L 304 329 L 307 398 L 308 443 Z" fill="black"></path>
				<path d="M 253 388 L 245 367 Q 235 338 215 302 Q 162 205 98 132 L 58 88 Q 53 82 56 78 Q 58 74 67 79 L 83 88 Q 164 141 219 219 Q 253 267 258 279 C 331 416 264 416 253 388 Z" fill="black"></path>
				<path d="M 301 307 L 333 264 Q 341 250 355 242 Q 376 234 382 260 Q 386 274 381 288 Q 374 298 363 307 Q 338 319 334 320 L 304 329 C 279 336 283 331 301 307 Z" fill="black"></path>
				<path d="M 559 530 L 565 542 Q 568 546 568 567 Q 566 609 533 630 L 509 644 L 493 649 Q 478 653 476 650 Q 475 646 477 637 L 483 622 Q 486 610 496 589 L 512 554 Q 516 547 525 537 L 537 523 C 549 509 549 509 559 530 Z" fill="black"></path>
				<path d="M 575 290 L 600 276 Q 606 276 608 277 Q 622 281 633 328 L 655 420 Q 664 458 674 476 Q 685 494 685 499 Q 681 519 630 540 Q 611 548 604 548 L 559 530 L 537 523 L 482 507 C 453 499 458 475 487 481 L 573 500 Q 597 507 606 496 Q 609 491 606 470 L 600 425 L 597 393 L 581 321 C 574 292 574 290 575 290 Z" fill="black"></path>
				<path d="M 479 379 L 597 393 C 627 397 629 419 600 425 L 585 428 Q 567 430 565 429 L 536 421 L 480 409 C 451 403 449 375 479 379 Z" fill="black"></path>
				<path d="M 468 280 L 575 290 C 605 293 611 316 581 321 L 559 325 L 514 318 L 471 314 C 441 311 438 277 468 280 Z" fill="black"></path>
				<path d="M 405 517 Q 405 509 409 503 L 418 482 Q 423 473 424 462 L 428 430 Q 431 404 431 398 L 427 290 L 419 176 Q 417 143 411 123 Q 406 103 391 88 Q 387 82 390 76 L 400 52 Q 406 37 413 30 Q 424 16 429 17 Q 435 18 449 36 L 482 72 L 584 166 C 606 186 604 195 578 180 L 491 130 Q 461 112 459 114 Q 457 116 457 120 L 468 280 L 471 314 L 474 346 Q 477 362 479 379 L 480 409 L 487 481 C 489 504 489 504 482 507 L 454 518 Q 408 540 405 517 Z" fill="black"></path>
				<path d="M 584 166 L 604 135 Q 617 114 622 109 Q 627 104 635 104 Q 651 103 653 119 Q 657 126 655 147 Q 652 187 619 214 Q 599 230 581 234 Q 561 241 557 240 Q 546 241 557 220 L 578 180 L 584 166 Z" fill="black"></path>
				<path d="M 783 495 L 857 512 Q 865 514 869 511 Q 878 504 863 466 L 825 378 Q 817 356 818 352 Q 819 347 833 336 C 840 330 826 342 841 362 L 911 457 Q 919 467 940 488 L 957 506 Q 964 512 966 518 Q 966 533 928 549 Q 891 565 887 564 L 836 542 L 801 530 L 765 521 C 736 514 754 488 783 495 Z" fill="black"></path>
				<path d="M 833 336 Q 869 306 881 261 Q 890 234 893 211 Q 896 187 879 176 Q 869 174 845 179 Q 821 183 819 184 L 810 188 Q 798 191 797 187 Q 796 183 801 179 L 845 144 Q 859 132 870 121 L 891 97 Q 905 82 910 81 Q 915 80 927 96 Q 939 111 948 132 Q 963 168 950 226 Q 938 283 892 324 Q 871 343 862 349 L 841 362 C 815 378 811 356 833 336 Z" fill="red"></path>
				<path d="M 768 414 L 770 441 Q 773 467 777 478 L 783 495 C 789 513 789 513 765 521 L 745 528 Q 711 540 704 535 Q 698 529 698 524 L 707 492 Q 711 426 711 418 L 705 -80 Q 704 -82 705 -108 Q 707 -135 711 -150 Q 715 -166 722 -166 Q 729 -166 732 -157 Q 736 -148 743 -122 Q 750 -96 752 -78 L 765 379 Q 767 393 768 414 Z" fill="lightgray"></path>
</g>
		<text x="40" y="140" font-size="128" fill="#999999">12</text></g>
		<g id="id2:id2:id2" transform="matrix(1.0,0,0,1.0,2048,0.0)">			<g stroke="lightgray" stroke-width="4" transform="scale(4, 4)"> <rect x="0" y="0" width="256" height="256" fill="white" stroke-width="4"/></g>
			<g transform="scale(0.92, -0.92) translate(60, -920)">					<path d="M 328 453 L 308 443 L 264 435 L 226 426 L 102 406 Q 91 405 87 399 Q 83 385 107 378 L 130 376 Q 140 374 171 376 L 253 388 L 307 398 L 372 412 Q 389 416 398 422 Q 415 428 401 443 Q 395 450 374 455 Q 353 460 346 459 Q 340 457 328 453 Z" fill="black"></path>
				<path d="M 308 443 L 317 562 Q 320 602 327 621 Q 335 640 334 644 Q 332 657 303 676 Q 274 694 259 694 Q 244 694 243 690 Q 238 687 243 673 L 250 654 L 255 630 Q 260 612 261 592 L 264 549 L 264 435 L 258 279 L 250 156 Q 245 100 243 91 L 236 44 Q 234 26 229 8 Q 225 -11 225 -20 Q 225 -29 235 -57 Q 245 -86 252 -93 Q 259 -100 262 -99 Q 266 -99 272 -93 Q 279 -87 283 -76 L 293 -48 Q 297 -39 297 8 L 301 307 L 304 329 L 307 398 L 308 443 Z" fill="black"></path>
				<path d="M 253 388 L 245 367 Q 235 338 215 302 Q 162 205 98 132 L 58 88 Q 53 82 56 78 Q 58 74 67 79 L 83 88 Q 164 141 219 219 Q 253 267 258 279 C 331 416 264 416 253 388 Z" fill="black"></path>
				<path d="M 301 307 L 333 264 Q 341 250 355 242 Q 376 234 382 260 Q 386 274 381 288 Q 374 298 363 307 Q 338 319 334 320 L 304 329 C 279 336 283 331 301 307 Z" fill="black"></path>
				<path d="M 559 530 L 565 542 Q 568 546 568 567 Q 566 609 533 630 L 509 644 L 493 649 Q 478 653 476 650 Q 475 646 477 637 L 483 622 Q 486 610 496 589 L 512 554 Q 516 547 525 537 L 537 523 C 549 509 549 509 559 530 Z" fill="black"></path>
				<path d="M 575 290 L 600 276 Q 606 276 608 277 Q 622 281 633 328 L 655 420 Q 664 458 674 476 Q 685 494 685 499 Q 681 519 630 540 Q 611 548 604 548 L 559 530 L 537 523 L 482 507 C 453 499 458 475 487 481 L 573 500 Q 597 507 606 496 Q 609 491 606 470 L 600 425 L 597 393 L 581 321 C 574 292 574 290 575 290 Z" fill="black"></path>
				<path d="M 479 379 L 597 393 C 627 397 629 419 600 425 L 585 428 Q 567 430 565 429 L 536 421 L 480 409 C 451 403 449 375 479 379 Z" fill="black"></path>
				<path d="M 468 280 L 575 290 C 605 293 611 316 581 321 L 559 325 L 514 318 L 471 314 C 441 311 438 277 468 280 Z" fill="black"></path>
				<path d="M 405 517 Q 405 509 409 503 L 418 482 Q 423 473 424 462 L 428 430 Q 431 404 431 398 L 427 290 L 419 176 Q 417 143 411 123 Q 406 103 391 88 Q 387 82 390 76 L 400 52 Q 406 37 413 30 Q 424 16 429 17 Q 435 18 449 36 L 482 72 L 584 166 C 606 186 604 195 578 180 L 491 130 Q 461 112 459 114 Q 457 116 457 120 L 468 280 L 471 314 L 474 346 Q 477 362 479 379 L 480 409 L 487 481 C 489 504 489 504 482 507 L 454 518 Q 408 540 405 517 Z" fill="black"></path>
				<path d="M 584 166 L 604 135 Q 617 114 622 109 Q 627 104 635 104 Q 651 103 653 119 Q 657 126 655 147 Q 652 187 619 214 Q 599 230 581 234 Q 561 241 557 240 Q 546 241 557 220 L 578 180 L 584 166 Z" fill="black"></path>
				<path d="M 783 495 L 857 512 Q 865 514 869 511 Q 878 504 863 466 L 825 378 Q 817 356 818 352 Q 819 347 833 336 C 840 330 826 342 841 362 L 911 457 Q 919 467 940 488 L 957 506 Q 964 512 966 518 Q 966 533 928 549 Q 891 565 887 564 L 836 542 L 801 530 L 765 521 C 736 514 754 488 783 495 Z" fill="black"></path>
				<path d="M 833 336 Q 869 306 881 261 Q 890 234 893 211 Q 896 187 879 176 Q 869 174 845 179 Q 821 183 819 184 L 810 188 Q 798 191 797 187 Q 796 183 801 179 L 845 144 Q 859 132 870 121 L 891 97 Q 905 82 910 81 Q 915 80 927 96 Q 939 111 948 132 Q 963 168 950 226 Q 938 283 892 324 Q 871 343 862 349 L 841 362 C 815 378 811 356 833 336 Z" fill="black"></path>
				<path d="M 768 414 L 770 441 Q 773 467 777 478 L 783 495 C 789 513 789 513 765 521 L 745 528 Q 711 540 704 535 Q 698 529 698 524 L 707 492 Q 711 426 711 418 L 705 -80 Q 704 -82 705 -108 Q 707 -135 711 -150 Q 715 -166 722 -166 Q 729 -166 732 -157 Q 736 -148 743 -122 Q 750 -96 752 -78 L 765 379 Q 767 393 768 414 Z" fill="red"></path>
</g>
		<text x="40" y="140" font-size="128" fill="#999999">13</text></g>
		<g id="id2:id3:id3" transform="matrix(1.0,0,0,1.0,3072,0.0)">			<g stroke="white" stroke-width="4" transform="scale(4, 4)"> <rect x="1" y="1" width="255" height="255" fill="white" stroke-width="0"/></g>
</g>
		<g id="id2:id4:id4" transform="matrix(1.0,0,0,1.0,4096,0.0)">			<g stroke="white" stroke-width="4" transform="scale(4, 4)"> <rect x="1" y="1" width="255" height="255" fill="white" stroke-width="0"/></g>
</g>
</g>
</svg>
