<?xml version="1.0" standalone="no"?>
<!DOCTYPE svg PUBLIC "-//W3C//DTD SVG 1.1//EN"
 "http://www.w3.org/Graphics/SVG/1.1/DTD/svg11.dtd">
<!-- generate by Japanese dictionary app com.asnsami.kanjidictionary -->

<svg xmlns="http://www.w3.org/2000/svg" xmlns:sodipodi="http://sodipodi.sourceforge.net/DTD/sodipodi-0.dtd" version="1.1" width="640" height="256" viewBox="0 0 5120 2048">
	<g id="id0:id0" transform="translate(0.0,0)">
		<g id="id0:id0:id0" transform="matrix(1.0,0,0,1.0,0,0.0)">			<g stroke="lightgray" stroke-width="4" transform="scale(4, 4)"> <rect x="0" y="0" width="256" height="256" fill="white" stroke-width="4"/></g>
			<g transform="scale(0.92, -0.92) translate(60, -920)">					<path d="M 42 407 Q 42 402 47 395 Q 70 351 73 286 L 92 42 Q 92 17 108 12 Q 123 1 132 30 L 131 64 Q 124 163 112 378 C 111 403 111 403 108 404 L 84 414 L 62 416 Q 42 420 42 407 Z" fill="red"></path>
				<path d="M 218 395 L 252 400 Q 273 403 288 404 Q 303 404 308 398 Q 314 392 314 372 L 304 254 L 280 79 L 276 54 L 284 32 Q 284 31 294 26 Q 304 21 315 31 Q 327 40 336 98 L 367 293 Q 374 339 378 352 L 392 383 Q 401 401 388 410 L 344 436 Q 321 448 312 448 Q 303 448 288 442 Q 273 436 252 431 L 212 423 Q 161 412 108 404 C 78 399 82 373 112 378 L 168 387 L 218 395 Z" fill="lightgray"></path>
				<path d="M 225 224 Q 250 223 275 232 Q 285 235 286 247 Q 284 259 249 265 L 227 260 L 180 251 L 144 249 Q 112 247 145 226 Q 162 215 181 218 L 225 224 Z" fill="lightgray"></path>
				<path d="M 222 80 Q 222 125 225 224 L 227 260 L 230 351 L 233 373 Q 235 384 221 393 L 218 395 C 194 413 157 415 168 387 L 172 377 Q 179 360 179 330 L 180 251 L 181 218 L 184 72 C 185 42 222 50 222 80 Z" fill="lightgray"></path>
				<path d="M 280 79 L 256 86 Q 254 88 222 80 L 184 72 L 131 64 C 101 60 102 25 132 30 L 276 54 C 306 59 309 71 280 79 Z" fill="lightgray"></path>
				<path d="M 469 305 L 490 306 Q 505 305 528 312 L 574 325 Q 595 329 595 341 Q 596 345 588 350 Q 573 363 555 363 Q 528 358 471 334 C 443 322 439 304 469 305 Z" fill="lightgray"></path>
				<path d="M 471 334 L 477 415 Q 477 427 481 453 Q 485 478 490 492 Q 496 505 495 510 Q 494 515 481 527 Q 468 538 433 550 Q 399 561 399 543 L 403 532 L 412 517 Q 419 500 422 463 L 418 114 Q 415 65 406 49 Q 397 32 396 29 Q 395 25 396 20 L 397 13 L 401 4 Q 404 -3 408 -8 Q 412 -14 422 -24 Q 439 -43 450 -29 L 488 21 L 582 131 Q 590 142 585 148 Q 581 153 568 143 L 456 61 L 469 305 L 471 334 Z" fill="lightgray"></path>
				<path d="M 746 372 L 678 347 C 650 337 647 319 677 316 L 697 314 Q 707 312 820 342 Q 853 350 856 360 Q 859 369 850 377 Q 841 385 832 388 Q 823 391 811 394 Q 800 396 785 389 Q 771 381 746 372 Z" fill="lightgray"></path>
				<path d="M 678 347 L 690 542 Q 693 580 702 598 Q 711 616 709 625 Q 708 633 680 647 Q 653 661 625 664 Q 600 666 612 646 L 622 628 Q 630 598 630 534 L 624 176 L 626 100 Q 626 40 634 12 Q 642 -17 675 -38 Q 709 -60 770 -56 Q 852 -54 900 -31 Q 935 -13 935 13 Q 935 21 918 51 Q 901 80 894 114 L 887 152 Q 885 160 880 160 Q 876 160 875 153 L 870 132 L 864 95 Q 847 33 820 18 Q 804 10 759 9 Q 715 8 699 19 Q 683 30 677 44 Q 672 57 670 88 Q 669 118 671 120 L 677 316 L 678 347 Z" fill="lightgray"></path>
</g>
		<text x="40" y="140" font-size="128" fill="#999999">1</text></g>
		<g id="id0:id1:id1" transform="matrix(1.0,0,0,1.0,1024,0.0)">			<g stroke="lightgray" stroke-width="4" transform="scale(4, 4)"> <rect x="0" y="0" width="256" height="256" fill="white" stroke-width="4"/></g>
			<g transform="scale(0.92, -0.92) translate(60, -920)">					<path d="M 42 407 Q 42 402 47 395 Q 70 351 73 286 L 92 42 Q 92 17 108 12 Q 123 1 132 30 L 131 64 Q 124 163 112 378 C 111 403 111 403 108 404 L 84 414 L 62 416 Q 42 420 42 407 Z" fill="black"></path>
				<path d="M 218 395 L 252 400 Q 273 403 288 404 Q 303 404 308 398 Q 314 392 314 372 L 304 254 L 280 79 L 276 54 L 284 32 Q 284 31 294 26 Q 304 21 315 31 Q 327 40 336 98 L 367 293 Q 374 339 378 352 L 392 383 Q 401 401 388 410 L 344 436 Q 321 448 312 448 Q 303 448 288 442 Q 273 436 252 431 L 212 423 Q 161 412 108 404 C 78 399 82 373 112 378 L 168 387 L 218 395 Z" fill="red"></path>
				<path d="M 225 224 Q 250 223 275 232 Q 285 235 286 247 Q 284 259 249 265 L 227 260 L 180 251 L 144 249 Q 112 247 145 226 Q 162 215 181 218 L 225 224 Z" fill="lightgray"></path>
				<path d="M 222 80 Q 222 125 225 224 L 227 260 L 230 351 L 233 373 Q 235 384 221 393 L 218 395 C 194 413 157 415 168 387 L 172 377 Q 179 360 179 330 L 180 251 L 181 218 L 184 72 C 185 42 222 50 222 80 Z" fill="lightgray"></path>
				<path d="M 280 79 L 256 86 Q 254 88 222 80 L 184 72 L 131 64 C 101 60 102 25 132 30 L 276 54 C 306 59 309 71 280 79 Z" fill="lightgray"></path>
				<path d="M 469 305 L 490 306 Q 505 305 528 312 L 574 325 Q 595 329 595 341 Q 596 345 588 350 Q 573 363 555 363 Q 528 358 471 334 C 443 322 439 304 469 305 Z" fill="lightgray"></path>
				<path d="M 471 334 L 477 415 Q 477 427 481 453 Q 485 478 490 492 Q 496 505 495 510 Q 494 515 481 527 Q 468 538 433 550 Q 399 561 399 543 L 403 532 L 412 517 Q 419 500 422 463 L 418 114 Q 415 65 406 49 Q 397 32 396 29 Q 395 25 396 20 L 397 13 L 401 4 Q 404 -3 408 -8 Q 412 -14 422 -24 Q 439 -43 450 -29 L 488 21 L 582 131 Q 590 142 585 148 Q 581 153 568 143 L 456 61 L 469 305 L 471 334 Z" fill="lightgray"></path>
				<path d="M 746 372 L 678 347 C 650 337 647 319 677 316 L 697 314 Q 707 312 820 342 Q 853 350 856 360 Q 859 369 850 377 Q 841 385 832 388 Q 823 391 811 394 Q 800 396 785 389 Q 771 381 746 372 Z" fill="lightgray"></path>
				<path d="M 678 347 L 690 542 Q 693 580 702 598 Q 711 616 709 625 Q 708 633 680 647 Q 653 661 625 664 Q 600 666 612 646 L 622 628 Q 630 598 630 534 L 624 176 L 626 100 Q 626 40 634 12 Q 642 -17 675 -38 Q 709 -60 770 -56 Q 852 -54 900 -31 Q 935 -13 935 13 Q 935 21 918 51 Q 901 80 894 114 L 887 152 Q 885 160 880 160 Q 876 160 875 153 L 870 132 L 864 95 Q 847 33 820 18 Q 804 10 759 9 Q 715 8 699 19 Q 683 30 677 44 Q 672 57 670 88 Q 669 118 671 120 L 677 316 L 678 347 Z" fill="lightgray"></path>
</g>
		<text x="40" y="140" font-size="128" fill="#999999">2</text></g>
		<g id="id0:id2:id2" transform="matrix(1.0,0,0,1.0,2048,0.0)">			<g stroke="lightgray" stroke-width="4" transform="scale(4, 4)"> <rect x="0" y="0" width="256" height="256" fill="white" stroke-width="4"/></g>
			<g transform="scale(0.92, -0.92) translate(60, -920)">					<path d="M 42 407 Q 42 402 47 395 Q 70 351 73 286 L 92 42 Q 92 17 108 12 Q 123 1 132 30 L 131 64 Q 124 163 112 378 C 111 403 111 403 108 404 L 84 414 L 62 416 Q 42 420 42 407 Z" fill="black"></path>
				<path d="M 218 395 L 252 400 Q 273 403 288 404 Q 303 404 308 398 Q 314 392 314 372 L 304 254 L 280 79 L 276 54 L 284 32 Q 284 31 294 26 Q 304 21 315 31 Q 327 40 336 98 L 367 293 Q 374 339 378 352 L 392 383 Q 401 401 388 410 L 344 436 Q 321 448 312 448 Q 303 448 288 442 Q 273 436 252 431 L 212 423 Q 161 412 108 404 C 78 399 82 373 112 378 L 168 387 L 218 395 Z" fill="black"></path>
				<path d="M 225 224 Q 250 223 275 232 Q 285 235 286 247 Q 284 259 249 265 L 227 260 L 180 251 L 144 249 Q 112 247 145 226 Q 162 215 181 218 L 225 224 Z" fill="red"></path>
				<path d="M 222 80 Q 222 125 225 224 L 227 260 L 230 351 L 233 373 Q 235 384 221 393 L 218 395 C 194 413 157 415 168 387 L 172 377 Q 179 360 179 330 L 180 251 L 181 218 L 184 72 C 185 42 222 50 222 80 Z" fill="lightgray"></path>
				<path d="M 280 79 L 256 86 Q 254 88 222 80 L 184 72 L 131 64 C 101 60 102 25 132 30 L 276 54 C 306 59 309 71 280 79 Z" fill="lightgray"></path>
				<path d="M 469 305 L 490 306 Q 505 305 528 312 L 574 325 Q 595 329 595 341 Q 596 345 588 350 Q 573 363 555 363 Q 528 358 471 334 C 443 322 439 304 469 305 Z" fill="lightgray"></path>
				<path d="M 471 334 L 477 415 Q 477 427 481 453 Q 485 478 490 492 Q 496 505 495 510 Q 494 515 481 527 Q 468 538 433 550 Q 399 561 399 543 L 403 532 L 412 517 Q 419 500 422 463 L 418 114 Q 415 65 406 49 Q 397 32 396 29 Q 395 25 396 20 L 397 13 L 401 4 Q 404 -3 408 -8 Q 412 -14 422 -24 Q 439 -43 450 -29 L 488 21 L 582 131 Q 590 142 585 148 Q 581 153 568 143 L 456 61 L 469 305 L 471 334 Z" fill="lightgray"></path>
				<path d="M 746 372 L 678 347 C 650 337 647 319 677 316 L 697 314 Q 707 312 820 342 Q 853 350 856 360 Q 859 369 850 377 Q 841 385 832 388 Q 823 391 811 394 Q 800 396 785 389 Q 771 381 746 372 Z" fill="lightgray"></path>
				<path d="M 678 347 L 690 542 Q 693 580 702 598 Q 711 616 709 625 Q 708 633 680 647 Q 653 661 625 664 Q 600 666 612 646 L 622 628 Q 630 598 630 534 L 624 176 L 626 100 Q 626 40 634 12 Q 642 -17 675 -38 Q 709 -60 770 -56 Q 852 -54 900 -31 Q 935 -13 935 13 Q 935 21 918 51 Q 901 80 894 114 L 887 152 Q 885 160 880 160 Q 876 160 875 153 L 870 132 L 864 95 Q 847 33 820 18 Q 804 10 759 9 Q 715 8 699 19 Q 683 30 677 44 Q 672 57 670 88 Q 669 118 671 120 L 677 316 L 678 347 Z" fill="lightgray"></path>
</g>
		<text x="40" y="140" font-size="128" fill="#999999">3</text></g>
		<g id="id0:id3:id3" transform="matrix(1.0,0,0,1.0,3072,0.0)">			<g stroke="lightgray" stroke-width="4" transform="scale(4, 4)"> <rect x="0" y="0" width="256" height="256" fill="white" stroke-width="4"/></g>
			<g transform="scale(0.92, -0.92) translate(60, -920)">					<path d="M 42 407 Q 42 402 47 395 Q 70 351 73 286 L 92 42 Q 92 17 108 12 Q 123 1 132 30 L 131 64 Q 124 163 112 378 C 111 403 111 403 108 404 L 84 414 L 62 416 Q 42 420 42 407 Z" fill="black"></path>
				<path d="M 218 395 L 252 400 Q 273 403 288 404 Q 303 404 308 398 Q 314 392 314 372 L 304 254 L 280 79 L 276 54 L 284 32 Q 284 31 294 26 Q 304 21 315 31 Q 327 40 336 98 L 367 293 Q 374 339 378 352 L 392 383 Q 401 401 388 410 L 344 436 Q 321 448 312 448 Q 303 448 288 442 Q 273 436 252 431 L 212 423 Q 161 412 108 404 C 78 399 82 373 112 378 L 168 387 L 218 395 Z" fill="black"></path>
				<path d="M 225 224 Q 250 223 275 232 Q 285 235 286 247 Q 284 259 249 265 L 227 260 L 180 251 L 144 249 Q 112 247 145 226 Q 162 215 181 218 L 225 224 Z" fill="black"></path>
				<path d="M 222 80 Q 222 125 225 224 L 227 260 L 230 351 L 233 373 Q 235 384 221 393 L 218 395 C 194 413 157 415 168 387 L 172 377 Q 179 360 179 330 L 180 251 L 181 218 L 184 72 C 185 42 222 50 222 80 Z" fill="red"></path>
				<path d="M 280 79 L 256 86 Q 254 88 222 80 L 184 72 L 131 64 C 101 60 102 25 132 30 L 276 54 C 306 59 309 71 280 79 Z" fill="lightgray"></path>
				<path d="M 469 305 L 490 306 Q 505 305 528 312 L 574 325 Q 595 329 595 341 Q 596 345 588 350 Q 573 363 555 363 Q 528 358 471 334 C 443 322 439 304 469 305 Z" fill="lightgray"></path>
				<path d="M 471 334 L 477 415 Q 477 427 481 453 Q 485 478 490 492 Q 496 505 495 510 Q 494 515 481 527 Q 468 538 433 550 Q 399 561 399 543 L 403 532 L 412 517 Q 419 500 422 463 L 418 114 Q 415 65 406 49 Q 397 32 396 29 Q 395 25 396 20 L 397 13 L 401 4 Q 404 -3 408 -8 Q 412 -14 422 -24 Q 439 -43 450 -29 L 488 21 L 582 131 Q 590 142 585 148 Q 581 153 568 143 L 456 61 L 469 305 L 471 334 Z" fill="lightgray"></path>
				<path d="M 746 372 L 678 347 C 650 337 647 319 677 316 L 697 314 Q 707 312 820 342 Q 853 350 856 360 Q 859 369 850 377 Q 841 385 832 388 Q 823 391 811 394 Q 800 396 785 389 Q 771 381 746 372 Z" fill="lightgray"></path>
				<path d="M 678 347 L 690 542 Q 693 580 702 598 Q 711 616 709 625 Q 708 633 680 647 Q 653 661 625 664 Q 600 666 612 646 L 622 628 Q 630 598 630 534 L 624 176 L 626 100 Q 626 40 634 12 Q 642 -17 675 -38 Q 709 -60 770 -56 Q 852 -54 900 -31 Q 935 -13 935 13 Q 935 21 918 51 Q 901 80 894 114 L 887 152 Q 885 160 880 160 Q 876 160 875 153 L 870 132 L 864 95 Q 847 33 820 18 Q 804 10 759 9 Q 715 8 699 19 Q 683 30 677 44 Q 672 57 670 88 Q 669 118 671 120 L 677 316 L 678 347 Z" fill="lightgray"></path>
</g>
		<text x="40" y="140" font-size="128" fill="#999999">4</text></g>
		<g id="id0:id4:id4" transform="matrix(1.0,0,0,1.0,4096,0.0)">			<g stroke="lightgray" stroke-width="4" transform="scale(4, 4)"> <rect x="0" y="0" width="256" height="256" fill="white" stroke-width="4"/></g>
			<g transform="scale(0.92, -0.92) translate(60, -920)">					<path d="M 42 407 Q 42 402 47 395 Q 70 351 73 286 L 92 42 Q 92 17 108 12 Q 123 1 132 30 L 131 64 Q 124 163 112 378 C 111 403 111 403 108 404 L 84 414 L 62 416 Q 42 420 42 407 Z" fill="black"></path>
				<path d="M 218 395 L 252 400 Q 273 403 288 404 Q 303 404 308 398 Q 314 392 314 372 L 304 254 L 280 79 L 276 54 L 284 32 Q 284 31 294 26 Q 304 21 315 31 Q 327 40 336 98 L 367 293 Q 374 339 378 352 L 392 383 Q 401 401 388 410 L 344 436 Q 321 448 312 448 Q 303 448 288 442 Q 273 436 252 431 L 212 423 Q 161 412 108 404 C 78 399 82 373 112 378 L 168 387 L 218 395 Z" fill="black"></path>
				<path d="M 225 224 Q 250 223 275 232 Q 285 235 286 247 Q 284 259 249 265 L 227 260 L 180 251 L 144 249 Q 112 247 145 226 Q 162 215 181 218 L 225 224 Z" fill="black"></path>
				<path d="M 222 80 Q 222 125 225 224 L 227 260 L 230 351 L 233 373 Q 235 384 221 393 L 218 395 C 194 413 157 415 168 387 L 172 377 Q 179 360 179 330 L 180 251 L 181 218 L 184 72 C 185 42 222 50 222 80 Z" fill="black"></path>
				<path d="M 280 79 L 256 86 Q 254 88 222 80 L 184 72 L 131 64 C 101 60 102 25 132 30 L 276 54 C 306 59 309 71 280 79 Z" fill="red"></path>
				<path d="M 469 305 L 490 306 Q 505 305 528 312 L 574 325 Q 595 329 595 341 Q 596 345 588 350 Q 573 363 555 363 Q 528 358 471 334 C 443 322 439 304 469 305 Z" fill="lightgray"></path>
				<path d="M 471 334 L 477 415 Q 477 427 481 453 Q 485 478 490 492 Q 496 505 495 510 Q 494 515 481 527 Q 468 538 433 550 Q 399 561 399 543 L 403 532 L 412 517 Q 419 500 422 463 L 418 114 Q 415 65 406 49 Q 397 32 396 29 Q 395 25 396 20 L 397 13 L 401 4 Q 404 -3 408 -8 Q 412 -14 422 -24 Q 439 -43 450 -29 L 488 21 L 582 131 Q 590 142 585 148 Q 581 153 568 143 L 456 61 L 469 305 L 471 334 Z" fill="lightgray"></path>
				<path d="M 746 372 L 678 347 C 650 337 647 319 677 316 L 697 314 Q 707 312 820 342 Q 853 350 856 360 Q 859 369 850 377 Q 841 385 832 388 Q 823 391 811 394 Q 800 396 785 389 Q 771 381 746 372 Z" fill="lightgray"></path>
				<path d="M 678 347 L 690 542 Q 693 580 702 598 Q 711 616 709 625 Q 708 633 680 647 Q 653 661 625 664 Q 600 666 612 646 L 622 628 Q 630 598 630 534 L 624 176 L 626 100 Q 626 40 634 12 Q 642 -17 675 -38 Q 709 -60 770 -56 Q 852 -54 900 -31 Q 935 -13 935 13 Q 935 21 918 51 Q 901 80 894 114 L 887 152 Q 885 160 880 160 Q 876 160 875 153 L 870 132 L 864 95 Q 847 33 820 18 Q 804 10 759 9 Q 715 8 699 19 Q 683 30 677 44 Q 672 57 670 88 Q 669 118 671 120 L 677 316 L 678 347 Z" fill="lightgray"></path>
</g>
		<text x="40" y="140" font-size="128" fill="#999999">5</text></g>
</g>
	<g id="id1:id1" transform="translate(0.0,1024)">
		<g id="id1:id0:id0" transform="matrix(1.0,0,0,1.0,0,0.0)">			<g stroke="lightgray" stroke-width="4" transform="scale(4, 4)"> <rect x="0" y="0" width="256" height="256" fill="white" stroke-width="4"/></g>
			<g transform="scale(0.92, -0.92) translate(60, -920)">					<path d="M 42 407 Q 42 402 47 395 Q 70 351 73 286 L 92 42 Q 92 17 108 12 Q 123 1 132 30 L 131 64 Q 124 163 112 378 C 111 403 111 403 108 404 L 84 414 L 62 416 Q 42 420 42 407 Z" fill="black"></path>
				<path d="M 218 395 L 252 400 Q 273 403 288 404 Q 303 404 308 398 Q 314 392 314 372 L 304 254 L 280 79 L 276 54 L 284 32 Q 284 31 294 26 Q 304 21 315 31 Q 327 40 336 98 L 367 293 Q 374 339 378 352 L 392 383 Q 401 401 388 410 L 344 436 Q 321 448 312 448 Q 303 448 288 442 Q 273 436 252 431 L 212 423 Q 161 412 108 404 C 78 399 82 373 112 378 L 168 387 L 218 395 Z" fill="black"></path>
				<path d="M 225 224 Q 250 223 275 232 Q 285 235 286 247 Q 284 259 249 265 L 227 260 L 180 251 L 144 249 Q 112 247 145 226 Q 162 215 181 218 L 225 224 Z" fill="black"></path>
				<path d="M 222 80 Q 222 125 225 224 L 227 260 L 230 351 L 233 373 Q 235 384 221 393 L 218 395 C 194 413 157 415 168 387 L 172 377 Q 179 360 179 330 L 180 251 L 181 218 L 184 72 C 185 42 222 50 222 80 Z" fill="black"></path>
				<path d="M 280 79 L 256 86 Q 254 88 222 80 L 184 72 L 131 64 C 101 60 102 25 132 30 L 276 54 C 306 59 309 71 280 79 Z" fill="black"></path>
				<path d="M 469 305 L 490 306 Q 505 305 528 312 L 574 325 Q 595 329 595 341 Q 596 345 588 350 Q 573 363 555 363 Q 528 358 471 334 C 443 322 439 304 469 305 Z" fill="red"></path>
				<path d="M 471 334 L 477 415 Q 477 427 481 453 Q 485 478 490 492 Q 496 505 495 510 Q 494 515 481 527 Q 468 538 433 550 Q 399 561 399 543 L 403 532 L 412 517 Q 419 500 422 463 L 418 114 Q 415 65 406 49 Q 397 32 396 29 Q 395 25 396 20 L 397 13 L 401 4 Q 404 -3 408 -8 Q 412 -14 422 -24 Q 439 -43 450 -29 L 488 21 L 582 131 Q 590 142 585 148 Q 581 153 568 143 L 456 61 L 469 305 L 471 334 Z" fill="lightgray"></path>
				<path d="M 746 372 L 678 347 C 650 337 647 319 677 316 L 697 314 Q 707 312 820 342 Q 853 350 856 360 Q 859 369 850 377 Q 841 385 832 388 Q 823 391 811 394 Q 800 396 785 389 Q 771 381 746 372 Z" fill="lightgray"></path>
				<path d="M 678 347 L 690 542 Q 693 580 702 598 Q 711 616 709 625 Q 708 633 680 647 Q 653 661 625 664 Q 600 666 612 646 L 622 628 Q 630 598 630 534 L 624 176 L 626 100 Q 626 40 634 12 Q 642 -17 675 -38 Q 709 -60 770 -56 Q 852 -54 900 -31 Q 935 -13 935 13 Q 935 21 918 51 Q 901 80 894 114 L 887 152 Q 885 160 880 160 Q 876 160 875 153 L 870 132 L 864 95 Q 847 33 820 18 Q 804 10 759 9 Q 715 8 699 19 Q 683 30 677 44 Q 672 57 670 88 Q 669 118 671 120 L 677 316 L 678 347 Z" fill="lightgray"></path>
</g>
		<text x="40" y="140" font-size="128" fill="#999999">6</text></g>
		<g id="id1:id1:id1" transform="matrix(1.0,0,0,1.0,1024,0.0)">			<g stroke="lightgray" stroke-width="4" transform="scale(4, 4)"> <rect x="0" y="0" width="256" height="256" fill="white" stroke-width="4"/></g>
			<g transform="scale(0.92, -0.92) translate(60, -920)">					<path d="M 42 407 Q 42 402 47 395 Q 70 351 73 286 L 92 42 Q 92 17 108 12 Q 123 1 132 30 L 131 64 Q 124 163 112 378 C 111 403 111 403 108 404 L 84 414 L 62 416 Q 42 420 42 407 Z" fill="black"></path>
				<path d="M 218 395 L 252 400 Q 273 403 288 404 Q 303 404 308 398 Q 314 392 314 372 L 304 254 L 280 79 L 276 54 L 284 32 Q 284 31 294 26 Q 304 21 315 31 Q 327 40 336 98 L 367 293 Q 374 339 378 352 L 392 383 Q 401 401 388 410 L 344 436 Q 321 448 312 448 Q 303 448 288 442 Q 273 436 252 431 L 212 423 Q 161 412 108 404 C 78 399 82 373 112 378 L 168 387 L 218 395 Z" fill="black"></path>
				<path d="M 225 224 Q 250 223 275 232 Q 285 235 286 247 Q 284 259 249 265 L 227 260 L 180 251 L 144 249 Q 112 247 145 226 Q 162 215 181 218 L 225 224 Z" fill="black"></path>
				<path d="M 222 80 Q 222 125 225 224 L 227 260 L 230 351 L 233 373 Q 235 384 221 393 L 218 395 C 194 413 157 415 168 387 L 172 377 Q 179 360 179 330 L 180 251 L 181 218 L 184 72 C 185 42 222 50 222 80 Z" fill="black"></path>
				<path d="M 280 79 L 256 86 Q 254 88 222 80 L 184 72 L 131 64 C 101 60 102 25 132 30 L 276 54 C 306 59 309 71 280 79 Z" fill="black"></path>
				<path d="M 469 305 L 490 306 Q 505 305 528 312 L 574 325 Q 595 329 595 341 Q 596 345 588 350 Q 573 363 555 363 Q 528 358 471 334 C 443 322 439 304 469 305 Z" fill="black"></path>
				<path d="M 471 334 L 477 415 Q 477 427 481 453 Q 485 478 490 492 Q 496 505 495 510 Q 494 515 481 527 Q 468 538 433 550 Q 399 561 399 543 L 403 532 L 412 517 Q 419 500 422 463 L 418 114 Q 415 65 406 49 Q 397 32 396 29 Q 395 25 396 20 L 397 13 L 401 4 Q 404 -3 408 -8 Q 412 -14 422 -24 Q 439 -43 450 -29 L 488 21 L 582 131 Q 590 142 585 148 Q 581 153 568 143 L 456 61 L 469 305 L 471 334 Z" fill="red"></path>
				<path d="M 746 372 L 678 347 C 650 337 647 319 677 316 L 697 314 Q 707 312 820 342 Q 853 350 856 360 Q 859 369 850 377 Q 841 385 832 388 Q 823 391 811 394 Q 800 396 785 389 Q 771 381 746 372 Z" fill="lightgray"></path>
				<path d="M 678 347 L 690 542 Q 693 580 702 598 Q 711 616 709 625 Q 708 633 680 647 Q 653 661 625 664 Q 600 666 612 646 L 622 628 Q 630 598 630 534 L 624 176 L 626 100 Q 626 40 634 12 Q 642 -17 675 -38 Q 709 -60 770 -56 Q 852 -54 900 -31 Q 935 -13 935 13 Q 935 21 918 51 Q 901 80 894 114 L 887 152 Q 885 160 880 160 Q 876 160 875 153 L 870 132 L 864 95 Q 847 33 820 18 Q 804 10 759 9 Q 715 8 699 19 Q 683 30 677 44 Q 672 57 670 88 Q 669 118 671 120 L 677 316 L 678 347 Z" fill="lightgray"></path>
</g>
		<text x="40" y="140" font-size="128" fill="#999999">7</text></g>
		<g id="id1:id2:id2" transform="matrix(1.0,0,0,1.0,2048,0.0)">			<g stroke="lightgray" stroke-width="4" transform="scale(4, 4)"> <rect x="0" y="0" width="256" height="256" fill="white" stroke-width="4"/></g>
			<g transform="scale(0.92, -0.92) translate(60, -920)">					<path d="M 42 407 Q 42 402 47 395 Q 70 351 73 286 L 92 42 Q 92 17 108 12 Q 123 1 132 30 L 131 64 Q 124 163 112 378 C 111 403 111 403 108 404 L 84 414 L 62 416 Q 42 420 42 407 Z" fill="black"></path>
				<path d="M 218 395 L 252 400 Q 273 403 288 404 Q 303 404 308 398 Q 314 392 314 372 L 304 254 L 280 79 L 276 54 L 284 32 Q 284 31 294 26 Q 304 21 315 31 Q 327 40 336 98 L 367 293 Q 374 339 378 352 L 392 383 Q 401 401 388 410 L 344 436 Q 321 448 312 448 Q 303 448 288 442 Q 273 436 252 431 L 212 423 Q 161 412 108 404 C 78 399 82 373 112 378 L 168 387 L 218 395 Z" fill="black"></path>
				<path d="M 225 224 Q 250 223 275 232 Q 285 235 286 247 Q 284 259 249 265 L 227 260 L 180 251 L 144 249 Q 112 247 145 226 Q 162 215 181 218 L 225 224 Z" fill="black"></path>
				<path d="M 222 80 Q 222 125 225 224 L 227 260 L 230 351 L 233 373 Q 235 384 221 393 L 218 395 C 194 413 157 415 168 387 L 172 377 Q 179 360 179 330 L 180 251 L 181 218 L 184 72 C 185 42 222 50 222 80 Z" fill="black"></path>
				<path d="M 280 79 L 256 86 Q 254 88 222 80 L 184 72 L 131 64 C 101 60 102 25 132 30 L 276 54 C 306 59 309 71 280 79 Z" fill="black"></path>
				<path d="M 469 305 L 490 306 Q 505 305 528 312 L 574 325 Q 595 329 595 341 Q 596 345 588 350 Q 573 363 555 363 Q 528 358 471 334 C 443 322 439 304 469 305 Z" fill="black"></path>
				<path d="M 471 334 L 477 415 Q 477 427 481 453 Q 485 478 490 492 Q 496 505 495 510 Q 494 515 481 527 Q 468 538 433 550 Q 399 561 399 543 L 403 532 L 412 517 Q 419 500 422 463 L 418 114 Q 415 65 406 49 Q 397 32 396 29 Q 395 25 396 20 L 397 13 L 401 4 Q 404 -3 408 -8 Q 412 -14 422 -24 Q 439 -43 450 -29 L 488 21 L 582 131 Q 590 142 585 148 Q 581 153 568 143 L 456 61 L 469 305 L 471 334 Z" fill="black"></path>
				<path d="M 746 372 L 678 347 C 650 337 647 319 677 316 L 697 314 Q 707 312 820 342 Q 853 350 856 360 Q 859 369 850 377 Q 841 385 832 388 Q 823 391 811 394 Q 800 396 785 389 Q 771 381 746 372 Z" fill="red"></path>
				<path d="M 678 347 L 690 542 Q 693 580 702 598 Q 711 616 709 625 Q 708 633 680 647 Q 653 661 625 664 Q 600 666 612 646 L 622 628 Q 630 598 630 534 L 624 176 L 626 100 Q 626 40 634 12 Q 642 -17 675 -38 Q 709 -60 770 -56 Q 852 -54 900 -31 Q 935 -13 935 13 Q 935 21 918 51 Q 901 80 894 114 L 887 152 Q 885 160 880 160 Q 876 160 875 153 L 870 132 L 864 95 Q 847 33 820 18 Q 804 10 759 9 Q 715 8 699 19 Q 683 30 677 44 Q 672 57 670 88 Q 669 118 671 120 L 677 316 L 678 347 Z" fill="lightgray"></path>
</g>
		<text x="40" y="140" font-size="128" fill="#999999">8</text></g>
		<g id="id1:id3:id3" transform="matrix(1.0,0,0,1.0,3072,0.0)">			<g stroke="lightgray" stroke-width="4" transform="scale(4, 4)"> <rect x="0" y="0" width="256" height="256" fill="white" stroke-width="4"/></g>
			<g transform="scale(0.92, -0.92) translate(60, -920)">					<path d="M 42 407 Q 42 402 47 395 Q 70 351 73 286 L 92 42 Q 92 17 108 12 Q 123 1 132 30 L 131 64 Q 124 163 112 378 C 111 403 111 403 108 404 L 84 414 L 62 416 Q 42 420 42 407 Z" fill="black"></path>
				<path d="M 218 395 L 252 400 Q 273 403 288 404 Q 303 404 308 398 Q 314 392 314 372 L 304 254 L 280 79 L 276 54 L 284 32 Q 284 31 294 26 Q 304 21 315 31 Q 327 40 336 98 L 367 293 Q 374 339 378 352 L 392 383 Q 401 401 388 410 L 344 436 Q 321 448 312 448 Q 303 448 288 442 Q 273 436 252 431 L 212 423 Q 161 412 108 404 C 78 399 82 373 112 378 L 168 387 L 218 395 Z" fill="black"></path>
				<path d="M 225 224 Q 250 223 275 232 Q 285 235 286 247 Q 284 259 249 265 L 227 260 L 180 251 L 144 249 Q 112 247 145 226 Q 162 215 181 218 L 225 224 Z" fill="black"></path>
				<path d="M 222 80 Q 222 125 225 224 L 227 260 L 230 351 L 233 373 Q 235 384 221 393 L 218 395 C 194 413 157 415 168 387 L 172 377 Q 179 360 179 330 L 180 251 L 181 218 L 184 72 C 185 42 222 50 222 80 Z" fill="black"></path>
				<path d="M 280 79 L 256 86 Q 254 88 222 80 L 184 72 L 131 64 C 101 60 102 25 132 30 L 276 54 C 306 59 309 71 280 79 Z" fill="black"></path>
				<path d="M 469 305 L 490 306 Q 505 305 528 312 L 574 325 Q 595 329 595 341 Q 596 345 588 350 Q 573 363 555 363 Q 528 358 471 334 C 443 322 439 304 469 305 Z" fill="black"></path>
				<path d="M 471 334 L 477 415 Q 477 427 481 453 Q 485 478 490 492 Q 496 505 495 510 Q 494 515 481 527 Q 468 538 433 550 Q 399 561 399 543 L 403 532 L 412 517 Q 419 500 422 463 L 418 114 Q 415 65 406 49 Q 397 32 396 29 Q 395 25 396 20 L 397 13 L 401 4 Q 404 -3 408 -8 Q 412 -14 422 -24 Q 439 -43 450 -29 L 488 21 L 582 131 Q 590 142 585 148 Q 581 153 568 143 L 456 61 L 469 305 L 471 334 Z" fill="black"></path>
				<path d="M 746 372 L 678 347 C 650 337 647 319 677 316 L 697 314 Q 707 312 820 342 Q 853 350 856 360 Q 859 369 850 377 Q 841 385 832 388 Q 823 391 811 394 Q 800 396 785 389 Q 771 381 746 372 Z" fill="black"></path>
				<path d="M 678 347 L 690 542 Q 693 580 702 598 Q 711 616 709 625 Q 708 633 680 647 Q 653 661 625 664 Q 600 666 612 646 L 622 628 Q 630 598 630 534 L 624 176 L 626 100 Q 626 40 634 12 Q 642 -17 675 -38 Q 709 -60 770 -56 Q 852 -54 900 -31 Q 935 -13 935 13 Q 935 21 918 51 Q 901 80 894 114 L 887 152 Q 885 160 880 160 Q 876 160 875 153 L 870 132 L 864 95 Q 847 33 820 18 Q 804 10 759 9 Q 715 8 699 19 Q 683 30 677 44 Q 672 57 670 88 Q 669 118 671 120 L 677 316 L 678 347 Z" fill="red"></path>
</g>
		<text x="40" y="140" font-size="128" fill="#999999">9</text></g>
		<g id="id1:id4:id4" transform="matrix(1.0,0,0,1.0,4096,0.0)">			<g stroke="white" stroke-width="4" transform="scale(4, 4)"> <rect x="1" y="1" width="255" height="255" fill="white" stroke-width="0"/></g>
</g>
</g>
</svg>
