<?xml version="1.0" standalone="no"?>
<!DOCTYPE svg PUBLIC "-//W3C//DTD SVG 1.1//EN"
 "http://www.w3.org/Graphics/SVG/1.1/DTD/svg11.dtd">
<!-- generate by Japanese dictionary app com.asnsami.kanjidictionary -->

<svg xmlns="http://www.w3.org/2000/svg" xmlns:sodipodi="http://sodipodi.sourceforge.net/DTD/sodipodi-0.dtd" version="1.1" width="640" height="256" viewBox="0 0 5120 2048">
	<g id="id0:id0" transform="translate(0.0,0)">
		<g id="id0:id0:id0" transform="matrix(1.0,0,0,1.0,0,0.0)">			<g stroke="lightgray" stroke-width="4" transform="scale(4, 4)"> <rect x="0" y="0" width="256" height="256" fill="white" stroke-width="4"/></g>
			<g transform="scale(0.92, -0.92) translate(60, -920)">					<path d="M 261 690 Q 292 662 325 626 Q 338 611 355 611 Q 367 611 373 625 Q 379 640 371 672 Q 362 708 259 741 Q 243 745 236 743 Q 230 739 231 726 Q 235 714 261 690 Z" fill="red"></path>
				<path d="M 151 482 Q 196 425 228 411 Q 244 407 255 421 Q 262 434 259 452 Q 253 477 235 492 Q 184 526 146 527 Q 142 527 138 525 Q 131 524 133 510 Q 134 497 151 482 Z" fill="lightgray"></path>
				<path d="M 140 130 Q 128 126 131 109 Q 147 36 184 17 Q 191 11 201 14 Q 208 15 209 41 Q 215 96 290 324 Q 297 340 295 346 Q 294 356 285 349 Q 273 342 175 169 Q 165 150 140 130 Z" fill="lightgray"></path>
				<path d="M 622 461 Q 733 476 907 477 Q 928 478 932 487 Q 938 499 920 513 Q 866 552 826 543 Q 751 525 627 503 L 568 493 Q 462 477 340 459 Q 318 456 335 439 Q 368 411 428 426 Q 491 444 565 453 L 622 461 Z" fill="lightgray"></path>
				<path d="M 599 296 Q 609 381 622 461 L 627 503 Q 648 674 674 745 Q 678 758 656 777 Q 616 802 587 810 Q 568 816 558 806 Q 548 799 556 779 Q 581 736 580 707 Q 577 604 568 493 L 565 453 Q 558 374 547 287 C 543 257 595 266 599 296 Z" fill="lightgray"></path>
				<path d="M 462 276 Q 449 283 416 289 Q 403 293 399 288 Q 392 281 401 264 Q 431 195 446 85 Q 449 51 467 29 Q 486 5 491 21 Q 497 37 496 63 L 492 98 Q 476 206 472 242 C 469 272 468 273 462 276 Z" fill="lightgray"></path>
				<path d="M 547 287 Q 504 281 462 276 C 432 272 442 238 472 242 Q 589 258 706 276 Q 712 275 716 270 Q 726 260 723 239 Q 710 179 694 132 C 685 103 739 98 750 126 Q 786 219 820 241 Q 839 260 824 281 Q 806 297 750 326 Q 731 336 706 327 Q 649 308 599 296 L 547 287 Z" fill="lightgray"></path>
				<path d="M 496 63 Q 511 59 525 61 Q 601 76 765 86 Q 777 87 779 97 Q 779 106 750 126 C 731 140 723 138 694 132 Q 582 108 492 98 C 462 95 467 69 496 63 Z" fill="lightgray"></path>
</g>
		<text x="40" y="140" font-size="128" fill="#999999">1</text></g>
		<g id="id0:id1:id1" transform="matrix(1.0,0,0,1.0,1024,0.0)">			<g stroke="lightgray" stroke-width="4" transform="scale(4, 4)"> <rect x="0" y="0" width="256" height="256" fill="white" stroke-width="4"/></g>
			<g transform="scale(0.92, -0.92) translate(60, -920)">					<path d="M 261 690 Q 292 662 325 626 Q 338 611 355 611 Q 367 611 373 625 Q 379 640 371 672 Q 362 708 259 741 Q 243 745 236 743 Q 230 739 231 726 Q 235 714 261 690 Z" fill="black"></path>
				<path d="M 151 482 Q 196 425 228 411 Q 244 407 255 421 Q 262 434 259 452 Q 253 477 235 492 Q 184 526 146 527 Q 142 527 138 525 Q 131 524 133 510 Q 134 497 151 482 Z" fill="red"></path>
				<path d="M 140 130 Q 128 126 131 109 Q 147 36 184 17 Q 191 11 201 14 Q 208 15 209 41 Q 215 96 290 324 Q 297 340 295 346 Q 294 356 285 349 Q 273 342 175 169 Q 165 150 140 130 Z" fill="lightgray"></path>
				<path d="M 622 461 Q 733 476 907 477 Q 928 478 932 487 Q 938 499 920 513 Q 866 552 826 543 Q 751 525 627 503 L 568 493 Q 462 477 340 459 Q 318 456 335 439 Q 368 411 428 426 Q 491 444 565 453 L 622 461 Z" fill="lightgray"></path>
				<path d="M 599 296 Q 609 381 622 461 L 627 503 Q 648 674 674 745 Q 678 758 656 777 Q 616 802 587 810 Q 568 816 558 806 Q 548 799 556 779 Q 581 736 580 707 Q 577 604 568 493 L 565 453 Q 558 374 547 287 C 543 257 595 266 599 296 Z" fill="lightgray"></path>
				<path d="M 462 276 Q 449 283 416 289 Q 403 293 399 288 Q 392 281 401 264 Q 431 195 446 85 Q 449 51 467 29 Q 486 5 491 21 Q 497 37 496 63 L 492 98 Q 476 206 472 242 C 469 272 468 273 462 276 Z" fill="lightgray"></path>
				<path d="M 547 287 Q 504 281 462 276 C 432 272 442 238 472 242 Q 589 258 706 276 Q 712 275 716 270 Q 726 260 723 239 Q 710 179 694 132 C 685 103 739 98 750 126 Q 786 219 820 241 Q 839 260 824 281 Q 806 297 750 326 Q 731 336 706 327 Q 649 308 599 296 L 547 287 Z" fill="lightgray"></path>
				<path d="M 496 63 Q 511 59 525 61 Q 601 76 765 86 Q 777 87 779 97 Q 779 106 750 126 C 731 140 723 138 694 132 Q 582 108 492 98 C 462 95 467 69 496 63 Z" fill="lightgray"></path>
</g>
		<text x="40" y="140" font-size="128" fill="#999999">2</text></g>
		<g id="id0:id2:id2" transform="matrix(1.0,0,0,1.0,2048,0.0)">			<g stroke="lightgray" stroke-width="4" transform="scale(4, 4)"> <rect x="0" y="0" width="256" height="256" fill="white" stroke-width="4"/></g>
			<g transform="scale(0.92, -0.92) translate(60, -920)">					<path d="M 261 690 Q 292 662 325 626 Q 338 611 355 611 Q 367 611 373 625 Q 379 640 371 672 Q 362 708 259 741 Q 243 745 236 743 Q 230 739 231 726 Q 235 714 261 690 Z" fill="black"></path>
				<path d="M 151 482 Q 196 425 228 411 Q 244 407 255 421 Q 262 434 259 452 Q 253 477 235 492 Q 184 526 146 527 Q 142 527 138 525 Q 131 524 133 510 Q 134 497 151 482 Z" fill="black"></path>
				<path d="M 140 130 Q 128 126 131 109 Q 147 36 184 17 Q 191 11 201 14 Q 208 15 209 41 Q 215 96 290 324 Q 297 340 295 346 Q 294 356 285 349 Q 273 342 175 169 Q 165 150 140 130 Z" fill="red"></path>
				<path d="M 622 461 Q 733 476 907 477 Q 928 478 932 487 Q 938 499 920 513 Q 866 552 826 543 Q 751 525 627 503 L 568 493 Q 462 477 340 459 Q 318 456 335 439 Q 368 411 428 426 Q 491 444 565 453 L 622 461 Z" fill="lightgray"></path>
				<path d="M 599 296 Q 609 381 622 461 L 627 503 Q 648 674 674 745 Q 678 758 656 777 Q 616 802 587 810 Q 568 816 558 806 Q 548 799 556 779 Q 581 736 580 707 Q 577 604 568 493 L 565 453 Q 558 374 547 287 C 543 257 595 266 599 296 Z" fill="lightgray"></path>
				<path d="M 462 276 Q 449 283 416 289 Q 403 293 399 288 Q 392 281 401 264 Q 431 195 446 85 Q 449 51 467 29 Q 486 5 491 21 Q 497 37 496 63 L 492 98 Q 476 206 472 242 C 469 272 468 273 462 276 Z" fill="lightgray"></path>
				<path d="M 547 287 Q 504 281 462 276 C 432 272 442 238 472 242 Q 589 258 706 276 Q 712 275 716 270 Q 726 260 723 239 Q 710 179 694 132 C 685 103 739 98 750 126 Q 786 219 820 241 Q 839 260 824 281 Q 806 297 750 326 Q 731 336 706 327 Q 649 308 599 296 L 547 287 Z" fill="lightgray"></path>
				<path d="M 496 63 Q 511 59 525 61 Q 601 76 765 86 Q 777 87 779 97 Q 779 106 750 126 C 731 140 723 138 694 132 Q 582 108 492 98 C 462 95 467 69 496 63 Z" fill="lightgray"></path>
</g>
		<text x="40" y="140" font-size="128" fill="#999999">3</text></g>
		<g id="id0:id3:id3" transform="matrix(1.0,0,0,1.0,3072,0.0)">			<g stroke="lightgray" stroke-width="4" transform="scale(4, 4)"> <rect x="0" y="0" width="256" height="256" fill="white" stroke-width="4"/></g>
			<g transform="scale(0.92, -0.92) translate(60, -920)">					<path d="M 261 690 Q 292 662 325 626 Q 338 611 355 611 Q 367 611 373 625 Q 379 640 371 672 Q 362 708 259 741 Q 243 745 236 743 Q 230 739 231 726 Q 235 714 261 690 Z" fill="black"></path>
				<path d="M 151 482 Q 196 425 228 411 Q 244 407 255 421 Q 262 434 259 452 Q 253 477 235 492 Q 184 526 146 527 Q 142 527 138 525 Q 131 524 133 510 Q 134 497 151 482 Z" fill="black"></path>
				<path d="M 140 130 Q 128 126 131 109 Q 147 36 184 17 Q 191 11 201 14 Q 208 15 209 41 Q 215 96 290 324 Q 297 340 295 346 Q 294 356 285 349 Q 273 342 175 169 Q 165 150 140 130 Z" fill="black"></path>
				<path d="M 622 461 Q 733 476 907 477 Q 928 478 932 487 Q 938 499 920 513 Q 866 552 826 543 Q 751 525 627 503 L 568 493 Q 462 477 340 459 Q 318 456 335 439 Q 368 411 428 426 Q 491 444 565 453 L 622 461 Z" fill="red"></path>
				<path d="M 599 296 Q 609 381 622 461 L 627 503 Q 648 674 674 745 Q 678 758 656 777 Q 616 802 587 810 Q 568 816 558 806 Q 548 799 556 779 Q 581 736 580 707 Q 577 604 568 493 L 565 453 Q 558 374 547 287 C 543 257 595 266 599 296 Z" fill="lightgray"></path>
				<path d="M 462 276 Q 449 283 416 289 Q 403 293 399 288 Q 392 281 401 264 Q 431 195 446 85 Q 449 51 467 29 Q 486 5 491 21 Q 497 37 496 63 L 492 98 Q 476 206 472 242 C 469 272 468 273 462 276 Z" fill="lightgray"></path>
				<path d="M 547 287 Q 504 281 462 276 C 432 272 442 238 472 242 Q 589 258 706 276 Q 712 275 716 270 Q 726 260 723 239 Q 710 179 694 132 C 685 103 739 98 750 126 Q 786 219 820 241 Q 839 260 824 281 Q 806 297 750 326 Q 731 336 706 327 Q 649 308 599 296 L 547 287 Z" fill="lightgray"></path>
				<path d="M 496 63 Q 511 59 525 61 Q 601 76 765 86 Q 777 87 779 97 Q 779 106 750 126 C 731 140 723 138 694 132 Q 582 108 492 98 C 462 95 467 69 496 63 Z" fill="lightgray"></path>
</g>
		<text x="40" y="140" font-size="128" fill="#999999">4</text></g>
		<g id="id0:id4:id4" transform="matrix(1.0,0,0,1.0,4096,0.0)">			<g stroke="lightgray" stroke-width="4" transform="scale(4, 4)"> <rect x="0" y="0" width="256" height="256" fill="white" stroke-width="4"/></g>
			<g transform="scale(0.92, -0.92) translate(60, -920)">					<path d="M 261 690 Q 292 662 325 626 Q 338 611 355 611 Q 367 611 373 625 Q 379 640 371 672 Q 362 708 259 741 Q 243 745 236 743 Q 230 739 231 726 Q 235 714 261 690 Z" fill="black"></path>
				<path d="M 151 482 Q 196 425 228 411 Q 244 407 255 421 Q 262 434 259 452 Q 253 477 235 492 Q 184 526 146 527 Q 142 527 138 525 Q 131 524 133 510 Q 134 497 151 482 Z" fill="black"></path>
				<path d="M 140 130 Q 128 126 131 109 Q 147 36 184 17 Q 191 11 201 14 Q 208 15 209 41 Q 215 96 290 324 Q 297 340 295 346 Q 294 356 285 349 Q 273 342 175 169 Q 165 150 140 130 Z" fill="black"></path>
				<path d="M 622 461 Q 733 476 907 477 Q 928 478 932 487 Q 938 499 920 513 Q 866 552 826 543 Q 751 525 627 503 L 568 493 Q 462 477 340 459 Q 318 456 335 439 Q 368 411 428 426 Q 491 444 565 453 L 622 461 Z" fill="black"></path>
				<path d="M 599 296 Q 609 381 622 461 L 627 503 Q 648 674 674 745 Q 678 758 656 777 Q 616 802 587 810 Q 568 816 558 806 Q 548 799 556 779 Q 581 736 580 707 Q 577 604 568 493 L 565 453 Q 558 374 547 287 C 543 257 595 266 599 296 Z" fill="red"></path>
				<path d="M 462 276 Q 449 283 416 289 Q 403 293 399 288 Q 392 281 401 264 Q 431 195 446 85 Q 449 51 467 29 Q 486 5 491 21 Q 497 37 496 63 L 492 98 Q 476 206 472 242 C 469 272 468 273 462 276 Z" fill="lightgray"></path>
				<path d="M 547 287 Q 504 281 462 276 C 432 272 442 238 472 242 Q 589 258 706 276 Q 712 275 716 270 Q 726 260 723 239 Q 710 179 694 132 C 685 103 739 98 750 126 Q 786 219 820 241 Q 839 260 824 281 Q 806 297 750 326 Q 731 336 706 327 Q 649 308 599 296 L 547 287 Z" fill="lightgray"></path>
				<path d="M 496 63 Q 511 59 525 61 Q 601 76 765 86 Q 777 87 779 97 Q 779 106 750 126 C 731 140 723 138 694 132 Q 582 108 492 98 C 462 95 467 69 496 63 Z" fill="lightgray"></path>
</g>
		<text x="40" y="140" font-size="128" fill="#999999">5</text></g>
</g>
	<g id="id1:id1" transform="translate(0.0,1024)">
		<g id="id1:id0:id0" transform="matrix(1.0,0,0,1.0,0,0.0)">			<g stroke="lightgray" stroke-width="4" transform="scale(4, 4)"> <rect x="0" y="0" width="256" height="256" fill="white" stroke-width="4"/></g>
			<g transform="scale(0.92, -0.92) translate(60, -920)">					<path d="M 261 690 Q 292 662 325 626 Q 338 611 355 611 Q 367 611 373 625 Q 379 640 371 672 Q 362 708 259 741 Q 243 745 236 743 Q 230 739 231 726 Q 235 714 261 690 Z" fill="black"></path>
				<path d="M 151 482 Q 196 425 228 411 Q 244 407 255 421 Q 262 434 259 452 Q 253 477 235 492 Q 184 526 146 527 Q 142 527 138 525 Q 131 524 133 510 Q 134 497 151 482 Z" fill="black"></path>
				<path d="M 140 130 Q 128 126 131 109 Q 147 36 184 17 Q 191 11 201 14 Q 208 15 209 41 Q 215 96 290 324 Q 297 340 295 346 Q 294 356 285 349 Q 273 342 175 169 Q 165 150 140 130 Z" fill="black"></path>
				<path d="M 622 461 Q 733 476 907 477 Q 928 478 932 487 Q 938 499 920 513 Q 866 552 826 543 Q 751 525 627 503 L 568 493 Q 462 477 340 459 Q 318 456 335 439 Q 368 411 428 426 Q 491 444 565 453 L 622 461 Z" fill="black"></path>
				<path d="M 599 296 Q 609 381 622 461 L 627 503 Q 648 674 674 745 Q 678 758 656 777 Q 616 802 587 810 Q 568 816 558 806 Q 548 799 556 779 Q 581 736 580 707 Q 577 604 568 493 L 565 453 Q 558 374 547 287 C 543 257 595 266 599 296 Z" fill="black"></path>
				<path d="M 462 276 Q 449 283 416 289 Q 403 293 399 288 Q 392 281 401 264 Q 431 195 446 85 Q 449 51 467 29 Q 486 5 491 21 Q 497 37 496 63 L 492 98 Q 476 206 472 242 C 469 272 468 273 462 276 Z" fill="red"></path>
				<path d="M 547 287 Q 504 281 462 276 C 432 272 442 238 472 242 Q 589 258 706 276 Q 712 275 716 270 Q 726 260 723 239 Q 710 179 694 132 C 685 103 739 98 750 126 Q 786 219 820 241 Q 839 260 824 281 Q 806 297 750 326 Q 731 336 706 327 Q 649 308 599 296 L 547 287 Z" fill="lightgray"></path>
				<path d="M 496 63 Q 511 59 525 61 Q 601 76 765 86 Q 777 87 779 97 Q 779 106 750 126 C 731 140 723 138 694 132 Q 582 108 492 98 C 462 95 467 69 496 63 Z" fill="lightgray"></path>
</g>
		<text x="40" y="140" font-size="128" fill="#999999">6</text></g>
		<g id="id1:id1:id1" transform="matrix(1.0,0,0,1.0,1024,0.0)">			<g stroke="lightgray" stroke-width="4" transform="scale(4, 4)"> <rect x="0" y="0" width="256" height="256" fill="white" stroke-width="4"/></g>
			<g transform="scale(0.92, -0.92) translate(60, -920)">					<path d="M 261 690 Q 292 662 325 626 Q 338 611 355 611 Q 367 611 373 625 Q 379 640 371 672 Q 362 708 259 741 Q 243 745 236 743 Q 230 739 231 726 Q 235 714 261 690 Z" fill="black"></path>
				<path d="M 151 482 Q 196 425 228 411 Q 244 407 255 421 Q 262 434 259 452 Q 253 477 235 492 Q 184 526 146 527 Q 142 527 138 525 Q 131 524 133 510 Q 134 497 151 482 Z" fill="black"></path>
				<path d="M 140 130 Q 128 126 131 109 Q 147 36 184 17 Q 191 11 201 14 Q 208 15 209 41 Q 215 96 290 324 Q 297 340 295 346 Q 294 356 285 349 Q 273 342 175 169 Q 165 150 140 130 Z" fill="black"></path>
				<path d="M 622 461 Q 733 476 907 477 Q 928 478 932 487 Q 938 499 920 513 Q 866 552 826 543 Q 751 525 627 503 L 568 493 Q 462 477 340 459 Q 318 456 335 439 Q 368 411 428 426 Q 491 444 565 453 L 622 461 Z" fill="black"></path>
				<path d="M 599 296 Q 609 381 622 461 L 627 503 Q 648 674 674 745 Q 678 758 656 777 Q 616 802 587 810 Q 568 816 558 806 Q 548 799 556 779 Q 581 736 580 707 Q 577 604 568 493 L 565 453 Q 558 374 547 287 C 543 257 595 266 599 296 Z" fill="black"></path>
				<path d="M 462 276 Q 449 283 416 289 Q 403 293 399 288 Q 392 281 401 264 Q 431 195 446 85 Q 449 51 467 29 Q 486 5 491 21 Q 497 37 496 63 L 492 98 Q 476 206 472 242 C 469 272 468 273 462 276 Z" fill="black"></path>
				<path d="M 547 287 Q 504 281 462 276 C 432 272 442 238 472 242 Q 589 258 706 276 Q 712 275 716 270 Q 726 260 723 239 Q 710 179 694 132 C 685 103 739 98 750 126 Q 786 219 820 241 Q 839 260 824 281 Q 806 297 750 326 Q 731 336 706 327 Q 649 308 599 296 L 547 287 Z" fill="red"></path>
				<path d="M 496 63 Q 511 59 525 61 Q 601 76 765 86 Q 777 87 779 97 Q 779 106 750 126 C 731 140 723 138 694 132 Q 582 108 492 98 C 462 95 467 69 496 63 Z" fill="lightgray"></path>
</g>
		<text x="40" y="140" font-size="128" fill="#999999">7</text></g>
		<g id="id1:id2:id2" transform="matrix(1.0,0,0,1.0,2048,0.0)">			<g stroke="lightgray" stroke-width="4" transform="scale(4, 4)"> <rect x="0" y="0" width="256" height="256" fill="white" stroke-width="4"/></g>
			<g transform="scale(0.92, -0.92) translate(60, -920)">					<path d="M 261 690 Q 292 662 325 626 Q 338 611 355 611 Q 367 611 373 625 Q 379 640 371 672 Q 362 708 259 741 Q 243 745 236 743 Q 230 739 231 726 Q 235 714 261 690 Z" fill="black"></path>
				<path d="M 151 482 Q 196 425 228 411 Q 244 407 255 421 Q 262 434 259 452 Q 253 477 235 492 Q 184 526 146 527 Q 142 527 138 525 Q 131 524 133 510 Q 134 497 151 482 Z" fill="black"></path>
				<path d="M 140 130 Q 128 126 131 109 Q 147 36 184 17 Q 191 11 201 14 Q 208 15 209 41 Q 215 96 290 324 Q 297 340 295 346 Q 294 356 285 349 Q 273 342 175 169 Q 165 150 140 130 Z" fill="black"></path>
				<path d="M 622 461 Q 733 476 907 477 Q 928 478 932 487 Q 938 499 920 513 Q 866 552 826 543 Q 751 525 627 503 L 568 493 Q 462 477 340 459 Q 318 456 335 439 Q 368 411 428 426 Q 491 444 565 453 L 622 461 Z" fill="black"></path>
				<path d="M 599 296 Q 609 381 622 461 L 627 503 Q 648 674 674 745 Q 678 758 656 777 Q 616 802 587 810 Q 568 816 558 806 Q 548 799 556 779 Q 581 736 580 707 Q 577 604 568 493 L 565 453 Q 558 374 547 287 C 543 257 595 266 599 296 Z" fill="black"></path>
				<path d="M 462 276 Q 449 283 416 289 Q 403 293 399 288 Q 392 281 401 264 Q 431 195 446 85 Q 449 51 467 29 Q 486 5 491 21 Q 497 37 496 63 L 492 98 Q 476 206 472 242 C 469 272 468 273 462 276 Z" fill="black"></path>
				<path d="M 547 287 Q 504 281 462 276 C 432 272 442 238 472 242 Q 589 258 706 276 Q 712 275 716 270 Q 726 260 723 239 Q 710 179 694 132 C 685 103 739 98 750 126 Q 786 219 820 241 Q 839 260 824 281 Q 806 297 750 326 Q 731 336 706 327 Q 649 308 599 296 L 547 287 Z" fill="black"></path>
				<path d="M 496 63 Q 511 59 525 61 Q 601 76 765 86 Q 777 87 779 97 Q 779 106 750 126 C 731 140 723 138 694 132 Q 582 108 492 98 C 462 95 467 69 496 63 Z" fill="red"></path>
</g>
		<text x="40" y="140" font-size="128" fill="#999999">8</text></g>
		<g id="id1:id3:id3" transform="matrix(1.0,0,0,1.0,3072,0.0)">			<g stroke="white" stroke-width="4" transform="scale(4, 4)"> <rect x="1" y="1" width="255" height="255" fill="white" stroke-width="0"/></g>
</g>
		<g id="id1:id4:id4" transform="matrix(1.0,0,0,1.0,4096,0.0)">			<g stroke="white" stroke-width="4" transform="scale(4, 4)"> <rect x="1" y="1" width="255" height="255" fill="white" stroke-width="0"/></g>
</g>
</g>
</svg>
