<?xml version="1.0" standalone="no"?>
<!DOCTYPE svg PUBLIC "-//W3C//DTD SVG 1.1//EN"
 "http://www.w3.org/Graphics/SVG/1.1/DTD/svg11.dtd">
<!-- generate by Japanese dictionary app com.asnsami.kanjidictionary -->

<svg xmlns="http://www.w3.org/2000/svg" xmlns:sodipodi="http://sodipodi.sourceforge.net/DTD/sodipodi-0.dtd" version="1.1" width="640" height="384" viewBox="0 0 5120 3072">
	<g id="id0:id0" transform="translate(0.0,0)">
		<g id="id0:id0:id0" transform="matrix(1.0,0,0,1.0,0,0.0)">			<g stroke="lightgray" stroke-width="4" transform="scale(4, 4)"> <rect x="0" y="0" width="256" height="256" fill="white" stroke-width="4"/></g>
			<g transform="scale(0.92, -0.92) translate(60, -920)">					<path d="M 232 685 Q 225 687 222 681.5 Q 219 676 221 675 L 232 657 Q 238 648 261 620 Q 287 587 302.5 580.5 Q 318 574 324 573 Q 330 572 341 575 Q 356 581 354.5 604 Q 353 627 348.5 634 Q 344 641 329 652.5 Q 314 664 257 680 L 232 685 Z" fill="red"></path>
				<path d="M 145 485 Q 134 487 130 484 Q 126 481 131 473 L 142 456 Q 150 444 155 439 L 187 402 Q 198 386 208 382 Q 230 369 244 383 Q 258 393 256 414.5 Q 254 436 246.5 447 Q 239 458 208 469 Q 177 480 166 482 L 145 485 Z" fill="lightgray"></path>
				<path d="M 284 293 Q 245 223 230 200 L 191 148 Q 169 117 147.5 101.5 Q 126 86 120.5 80 Q 115 74 113.5 61.5 Q 112 49 118 35 L 133 -3 Q 141 -25 151 -31 Q 157 -37 161.5 -36.5 Q 166 -36 175 -26 Q 183 -11 190 3 Q 207 52 210 59 L 229 106 L 307 279 L 319 315 Q 322 324 315.5 331 Q 309 338 303 326 L 284 293 Z" fill="lightgray"></path>
				<path d="M 696 680 L 745 686 Q 757 688 768 690 L 785 692 Q 791 693 793 693 L 811 697 Q 817 699 822 704 Q 824 710 820 716.5 Q 816 723 796 730 Q 776 737 769 737 L 691 722 Q 686 718 654 714 L 509 695 Q 483 691 465 691 L 430 691 Q 422 689 418 687 Q 417 683 425 675 Q 433 667 445 662 Q 468 656 492 656 L 552 664 L 577 666 Q 594 666 650 672 L 696 680 Z" fill="lightgray"></path>
				<path d="M 432 560 L 407 565 Q 391 569 379 566 Q 366 563 366 562 L 368 556 L 388 537 L 400 518 Q 408 484 409 482 L 424 407 Q 427 394 433 382 Q 442 372 447 371 Q 448 370 454 371 Q 460 372 465 390 L 465 422 L 446 524 C 441 553 440 558 432 560 Z" fill="lightgray"></path>
				<path d="M 450 562 Q 445 560 432 560 C 402 557 416 520 446 524 L 517 534 L 563 542 L 658 548 L 712 552 L 747 554 L 768 554 Q 781 552 786 546 Q 791 537 784 511 L 767 441 C 760 412 755 417 757 412 L 759 402 Q 759 394 770 391 Q 783 387 805 403 Q 810 406 824 432 L 856 490 Q 863 505 887 528 L 901 542 Q 901 554 873 571 L 847 586 Q 838 592 827 596 L 807 603 L 758 593 L 756 592 L 744 591 Q 727 591 721 589 L 664 581 L 563 575 L 513 569 L 450 562 Z" fill="lightgray"></path>
				<path d="M 492 656 L 500 637 Q 508 616 509 606 L 513 569 L 517 534 L 521 504 Q 521 502 523 489 L 525 479 L 530 429 C 533 399 568 402 567 432 L 563 542 L 563 575 L 563 614 Q 573 642 570 648 Q 566 654 552 664 C 528 682 480 684 492 656 Z" fill="lightgray"></path>
				<path d="M 721 589 L 725 603 Q 729 620 735 631 Q 741 641 741 645 L 739 651 Q 739 652 734 658 Q 729 667 696 680 C 668 691 633 697 650 672 L 662 654 Q 666 644 666 605 Q 664 599 664 581 L 658 548 L 641 437 C 636 407 682 414 688 443 L 712 552 L 721 589 Z" fill="lightgray"></path>
				<path d="M 465 390 L 531 394 L 636 404 L 704 407 Q 716 408 729 409 L 757 412 C 787 415 795 432 767 441 L 755 445 Q 751 447 740 446 Q 729 444 712 444 L 688 443 L 641 437 L 567 432 L 530 429 L 465 422 C 435 419 435 388 465 390 Z" fill="lightgray"></path>
				<path d="M 578 293 Q 600 293 611 294 L 670 301 L 708 308 Q 731 311 740 313 L 763 317 Q 778 322 778.5 324 Q 779 326 777 334 Q 775 338 758.5 345.5 Q 742 353 723 353 Q 704 353 688.5 348 Q 673 343 669 342 L 652 339 Q 647 339 594 331 Q 541 323 514 323 L 479 320 L 460 315 Q 455 307 469 299 Q 483 291 518.5 291 Q 554 291 560 293 L 578 293 Z" fill="lightgray"></path>
				<path d="M 730 197 L 830 195 Q 898 195 905 194 L 930 193 Q 955 191 960 203.5 Q 965 216 949 225 Q 933 234 913 240 L 884 249 Q 870 253 860 253 L 748 240 L 524 220 L 457 212 L 374 204 L 347 202 Q 309 201 309 197 Q 308 197 309.5 190.5 Q 311 184 320 180 Q 357 157 378 157 Q 390 155 398.5 157.5 Q 407 160 414 161 L 498 176 L 584 189 L 641 194 L 681 195 L 730 197 Z" fill="lightgray"></path>
				<path d="M 584 189 L 592 161 Q 596 152 597 113 Q 598 73 597 55 L 594 -5 Q 592 -31 584 -36 Q 576 -41 562 -39 L 524 -31 L 497 -25 Q 491 -25 489 -29 Q 488 -33 495 -38 L 510 -48 Q 557 -95 568 -114 Q 578 -133 586 -135 Q 592 -138 603 -136 Q 622 -128 640 -93 Q 651 -74 651 -15 L 647 55 Q 650 137 658 148 Q 665 167 665 170 Q 664 172 661 176 L 653 185 Q 648 189 641 194 C 617 212 576 218 584 189 Z" fill="lightgray"></path>
				<path d="M 315 -55 L 345 -44 Q 378 -35 431 17 Q 450 37 464 46 Q 477 55 480 58.5 Q 483 62 483 70 Q 483 78 473.5 89.5 Q 464 101 448.5 112 Q 433 123 423 114 Q 419 110 417 97 Q 413 71 380 29 L 353 -2 Q 340 -16 332 -24 L 311 -42 Q 304 -48 304 -53 Q 304 -58 315 -55 Z" fill="lightgray"></path>
				<path d="M 770 86 Q 778 75 802 38 L 833 -13 Q 868 -70 884 -67 Q 895 -66 904 -52 Q 923 -21 902 21 Q 878 60 845 78 L 809 100 Q 808 100 799 104 L 778 115 L 758 123 Q 751 126 747 121 Q 743 117 750 109 L 770 86 Z" fill="lightgray"></path>
</g>
		<text x="40" y="140" font-size="128" fill="#999999">1</text></g>
		<g id="id0:id1:id1" transform="matrix(1.0,0,0,1.0,1024,0.0)">			<g stroke="lightgray" stroke-width="4" transform="scale(4, 4)"> <rect x="0" y="0" width="256" height="256" fill="white" stroke-width="4"/></g>
			<g transform="scale(0.92, -0.92) translate(60, -920)">					<path d="M 232 685 Q 225 687 222 681.5 Q 219 676 221 675 L 232 657 Q 238 648 261 620 Q 287 587 302.5 580.5 Q 318 574 324 573 Q 330 572 341 575 Q 356 581 354.5 604 Q 353 627 348.5 634 Q 344 641 329 652.5 Q 314 664 257 680 L 232 685 Z" fill="black"></path>
				<path d="M 145 485 Q 134 487 130 484 Q 126 481 131 473 L 142 456 Q 150 444 155 439 L 187 402 Q 198 386 208 382 Q 230 369 244 383 Q 258 393 256 414.5 Q 254 436 246.5 447 Q 239 458 208 469 Q 177 480 166 482 L 145 485 Z" fill="red"></path>
				<path d="M 284 293 Q 245 223 230 200 L 191 148 Q 169 117 147.5 101.5 Q 126 86 120.5 80 Q 115 74 113.5 61.5 Q 112 49 118 35 L 133 -3 Q 141 -25 151 -31 Q 157 -37 161.5 -36.5 Q 166 -36 175 -26 Q 183 -11 190 3 Q 207 52 210 59 L 229 106 L 307 279 L 319 315 Q 322 324 315.5 331 Q 309 338 303 326 L 284 293 Z" fill="lightgray"></path>
				<path d="M 696 680 L 745 686 Q 757 688 768 690 L 785 692 Q 791 693 793 693 L 811 697 Q 817 699 822 704 Q 824 710 820 716.5 Q 816 723 796 730 Q 776 737 769 737 L 691 722 Q 686 718 654 714 L 509 695 Q 483 691 465 691 L 430 691 Q 422 689 418 687 Q 417 683 425 675 Q 433 667 445 662 Q 468 656 492 656 L 552 664 L 577 666 Q 594 666 650 672 L 696 680 Z" fill="lightgray"></path>
				<path d="M 432 560 L 407 565 Q 391 569 379 566 Q 366 563 366 562 L 368 556 L 388 537 L 400 518 Q 408 484 409 482 L 424 407 Q 427 394 433 382 Q 442 372 447 371 Q 448 370 454 371 Q 460 372 465 390 L 465 422 L 446 524 C 441 553 440 558 432 560 Z" fill="lightgray"></path>
				<path d="M 450 562 Q 445 560 432 560 C 402 557 416 520 446 524 L 517 534 L 563 542 L 658 548 L 712 552 L 747 554 L 768 554 Q 781 552 786 546 Q 791 537 784 511 L 767 441 C 760 412 755 417 757 412 L 759 402 Q 759 394 770 391 Q 783 387 805 403 Q 810 406 824 432 L 856 490 Q 863 505 887 528 L 901 542 Q 901 554 873 571 L 847 586 Q 838 592 827 596 L 807 603 L 758 593 L 756 592 L 744 591 Q 727 591 721 589 L 664 581 L 563 575 L 513 569 L 450 562 Z" fill="lightgray"></path>
				<path d="M 492 656 L 500 637 Q 508 616 509 606 L 513 569 L 517 534 L 521 504 Q 521 502 523 489 L 525 479 L 530 429 C 533 399 568 402 567 432 L 563 542 L 563 575 L 563 614 Q 573 642 570 648 Q 566 654 552 664 C 528 682 480 684 492 656 Z" fill="lightgray"></path>
				<path d="M 721 589 L 725 603 Q 729 620 735 631 Q 741 641 741 645 L 739 651 Q 739 652 734 658 Q 729 667 696 680 C 668 691 633 697 650 672 L 662 654 Q 666 644 666 605 Q 664 599 664 581 L 658 548 L 641 437 C 636 407 682 414 688 443 L 712 552 L 721 589 Z" fill="lightgray"></path>
				<path d="M 465 390 L 531 394 L 636 404 L 704 407 Q 716 408 729 409 L 757 412 C 787 415 795 432 767 441 L 755 445 Q 751 447 740 446 Q 729 444 712 444 L 688 443 L 641 437 L 567 432 L 530 429 L 465 422 C 435 419 435 388 465 390 Z" fill="lightgray"></path>
				<path d="M 578 293 Q 600 293 611 294 L 670 301 L 708 308 Q 731 311 740 313 L 763 317 Q 778 322 778.5 324 Q 779 326 777 334 Q 775 338 758.5 345.5 Q 742 353 723 353 Q 704 353 688.5 348 Q 673 343 669 342 L 652 339 Q 647 339 594 331 Q 541 323 514 323 L 479 320 L 460 315 Q 455 307 469 299 Q 483 291 518.5 291 Q 554 291 560 293 L 578 293 Z" fill="lightgray"></path>
				<path d="M 730 197 L 830 195 Q 898 195 905 194 L 930 193 Q 955 191 960 203.5 Q 965 216 949 225 Q 933 234 913 240 L 884 249 Q 870 253 860 253 L 748 240 L 524 220 L 457 212 L 374 204 L 347 202 Q 309 201 309 197 Q 308 197 309.5 190.5 Q 311 184 320 180 Q 357 157 378 157 Q 390 155 398.5 157.5 Q 407 160 414 161 L 498 176 L 584 189 L 641 194 L 681 195 L 730 197 Z" fill="lightgray"></path>
				<path d="M 584 189 L 592 161 Q 596 152 597 113 Q 598 73 597 55 L 594 -5 Q 592 -31 584 -36 Q 576 -41 562 -39 L 524 -31 L 497 -25 Q 491 -25 489 -29 Q 488 -33 495 -38 L 510 -48 Q 557 -95 568 -114 Q 578 -133 586 -135 Q 592 -138 603 -136 Q 622 -128 640 -93 Q 651 -74 651 -15 L 647 55 Q 650 137 658 148 Q 665 167 665 170 Q 664 172 661 176 L 653 185 Q 648 189 641 194 C 617 212 576 218 584 189 Z" fill="lightgray"></path>
				<path d="M 315 -55 L 345 -44 Q 378 -35 431 17 Q 450 37 464 46 Q 477 55 480 58.5 Q 483 62 483 70 Q 483 78 473.5 89.5 Q 464 101 448.5 112 Q 433 123 423 114 Q 419 110 417 97 Q 413 71 380 29 L 353 -2 Q 340 -16 332 -24 L 311 -42 Q 304 -48 304 -53 Q 304 -58 315 -55 Z" fill="lightgray"></path>
				<path d="M 770 86 Q 778 75 802 38 L 833 -13 Q 868 -70 884 -67 Q 895 -66 904 -52 Q 923 -21 902 21 Q 878 60 845 78 L 809 100 Q 808 100 799 104 L 778 115 L 758 123 Q 751 126 747 121 Q 743 117 750 109 L 770 86 Z" fill="lightgray"></path>
</g>
		<text x="40" y="140" font-size="128" fill="#999999">2</text></g>
		<g id="id0:id2:id2" transform="matrix(1.0,0,0,1.0,2048,0.0)">			<g stroke="lightgray" stroke-width="4" transform="scale(4, 4)"> <rect x="0" y="0" width="256" height="256" fill="white" stroke-width="4"/></g>
			<g transform="scale(0.92, -0.92) translate(60, -920)">					<path d="M 232 685 Q 225 687 222 681.5 Q 219 676 221 675 L 232 657 Q 238 648 261 620 Q 287 587 302.5 580.5 Q 318 574 324 573 Q 330 572 341 575 Q 356 581 354.5 604 Q 353 627 348.5 634 Q 344 641 329 652.5 Q 314 664 257 680 L 232 685 Z" fill="black"></path>
				<path d="M 145 485 Q 134 487 130 484 Q 126 481 131 473 L 142 456 Q 150 444 155 439 L 187 402 Q 198 386 208 382 Q 230 369 244 383 Q 258 393 256 414.5 Q 254 436 246.5 447 Q 239 458 208 469 Q 177 480 166 482 L 145 485 Z" fill="black"></path>
				<path d="M 284 293 Q 245 223 230 200 L 191 148 Q 169 117 147.5 101.5 Q 126 86 120.5 80 Q 115 74 113.5 61.5 Q 112 49 118 35 L 133 -3 Q 141 -25 151 -31 Q 157 -37 161.5 -36.5 Q 166 -36 175 -26 Q 183 -11 190 3 Q 207 52 210 59 L 229 106 L 307 279 L 319 315 Q 322 324 315.5 331 Q 309 338 303 326 L 284 293 Z" fill="red"></path>
				<path d="M 696 680 L 745 686 Q 757 688 768 690 L 785 692 Q 791 693 793 693 L 811 697 Q 817 699 822 704 Q 824 710 820 716.5 Q 816 723 796 730 Q 776 737 769 737 L 691 722 Q 686 718 654 714 L 509 695 Q 483 691 465 691 L 430 691 Q 422 689 418 687 Q 417 683 425 675 Q 433 667 445 662 Q 468 656 492 656 L 552 664 L 577 666 Q 594 666 650 672 L 696 680 Z" fill="lightgray"></path>
				<path d="M 432 560 L 407 565 Q 391 569 379 566 Q 366 563 366 562 L 368 556 L 388 537 L 400 518 Q 408 484 409 482 L 424 407 Q 427 394 433 382 Q 442 372 447 371 Q 448 370 454 371 Q 460 372 465 390 L 465 422 L 446 524 C 441 553 440 558 432 560 Z" fill="lightgray"></path>
				<path d="M 450 562 Q 445 560 432 560 C 402 557 416 520 446 524 L 517 534 L 563 542 L 658 548 L 712 552 L 747 554 L 768 554 Q 781 552 786 546 Q 791 537 784 511 L 767 441 C 760 412 755 417 757 412 L 759 402 Q 759 394 770 391 Q 783 387 805 403 Q 810 406 824 432 L 856 490 Q 863 505 887 528 L 901 542 Q 901 554 873 571 L 847 586 Q 838 592 827 596 L 807 603 L 758 593 L 756 592 L 744 591 Q 727 591 721 589 L 664 581 L 563 575 L 513 569 L 450 562 Z" fill="lightgray"></path>
				<path d="M 492 656 L 500 637 Q 508 616 509 606 L 513 569 L 517 534 L 521 504 Q 521 502 523 489 L 525 479 L 530 429 C 533 399 568 402 567 432 L 563 542 L 563 575 L 563 614 Q 573 642 570 648 Q 566 654 552 664 C 528 682 480 684 492 656 Z" fill="lightgray"></path>
				<path d="M 721 589 L 725 603 Q 729 620 735 631 Q 741 641 741 645 L 739 651 Q 739 652 734 658 Q 729 667 696 680 C 668 691 633 697 650 672 L 662 654 Q 666 644 666 605 Q 664 599 664 581 L 658 548 L 641 437 C 636 407 682 414 688 443 L 712 552 L 721 589 Z" fill="lightgray"></path>
				<path d="M 465 390 L 531 394 L 636 404 L 704 407 Q 716 408 729 409 L 757 412 C 787 415 795 432 767 441 L 755 445 Q 751 447 740 446 Q 729 444 712 444 L 688 443 L 641 437 L 567 432 L 530 429 L 465 422 C 435 419 435 388 465 390 Z" fill="lightgray"></path>
				<path d="M 578 293 Q 600 293 611 294 L 670 301 L 708 308 Q 731 311 740 313 L 763 317 Q 778 322 778.5 324 Q 779 326 777 334 Q 775 338 758.5 345.5 Q 742 353 723 353 Q 704 353 688.5 348 Q 673 343 669 342 L 652 339 Q 647 339 594 331 Q 541 323 514 323 L 479 320 L 460 315 Q 455 307 469 299 Q 483 291 518.5 291 Q 554 291 560 293 L 578 293 Z" fill="lightgray"></path>
				<path d="M 730 197 L 830 195 Q 898 195 905 194 L 930 193 Q 955 191 960 203.5 Q 965 216 949 225 Q 933 234 913 240 L 884 249 Q 870 253 860 253 L 748 240 L 524 220 L 457 212 L 374 204 L 347 202 Q 309 201 309 197 Q 308 197 309.5 190.5 Q 311 184 320 180 Q 357 157 378 157 Q 390 155 398.5 157.5 Q 407 160 414 161 L 498 176 L 584 189 L 641 194 L 681 195 L 730 197 Z" fill="lightgray"></path>
				<path d="M 584 189 L 592 161 Q 596 152 597 113 Q 598 73 597 55 L 594 -5 Q 592 -31 584 -36 Q 576 -41 562 -39 L 524 -31 L 497 -25 Q 491 -25 489 -29 Q 488 -33 495 -38 L 510 -48 Q 557 -95 568 -114 Q 578 -133 586 -135 Q 592 -138 603 -136 Q 622 -128 640 -93 Q 651 -74 651 -15 L 647 55 Q 650 137 658 148 Q 665 167 665 170 Q 664 172 661 176 L 653 185 Q 648 189 641 194 C 617 212 576 218 584 189 Z" fill="lightgray"></path>
				<path d="M 315 -55 L 345 -44 Q 378 -35 431 17 Q 450 37 464 46 Q 477 55 480 58.5 Q 483 62 483 70 Q 483 78 473.5 89.5 Q 464 101 448.5 112 Q 433 123 423 114 Q 419 110 417 97 Q 413 71 380 29 L 353 -2 Q 340 -16 332 -24 L 311 -42 Q 304 -48 304 -53 Q 304 -58 315 -55 Z" fill="lightgray"></path>
				<path d="M 770 86 Q 778 75 802 38 L 833 -13 Q 868 -70 884 -67 Q 895 -66 904 -52 Q 923 -21 902 21 Q 878 60 845 78 L 809 100 Q 808 100 799 104 L 778 115 L 758 123 Q 751 126 747 121 Q 743 117 750 109 L 770 86 Z" fill="lightgray"></path>
</g>
		<text x="40" y="140" font-size="128" fill="#999999">3</text></g>
		<g id="id0:id3:id3" transform="matrix(1.0,0,0,1.0,3072,0.0)">			<g stroke="lightgray" stroke-width="4" transform="scale(4, 4)"> <rect x="0" y="0" width="256" height="256" fill="white" stroke-width="4"/></g>
			<g transform="scale(0.92, -0.92) translate(60, -920)">					<path d="M 232 685 Q 225 687 222 681.5 Q 219 676 221 675 L 232 657 Q 238 648 261 620 Q 287 587 302.5 580.5 Q 318 574 324 573 Q 330 572 341 575 Q 356 581 354.5 604 Q 353 627 348.5 634 Q 344 641 329 652.5 Q 314 664 257 680 L 232 685 Z" fill="black"></path>
				<path d="M 145 485 Q 134 487 130 484 Q 126 481 131 473 L 142 456 Q 150 444 155 439 L 187 402 Q 198 386 208 382 Q 230 369 244 383 Q 258 393 256 414.5 Q 254 436 246.5 447 Q 239 458 208 469 Q 177 480 166 482 L 145 485 Z" fill="black"></path>
				<path d="M 284 293 Q 245 223 230 200 L 191 148 Q 169 117 147.5 101.5 Q 126 86 120.5 80 Q 115 74 113.5 61.5 Q 112 49 118 35 L 133 -3 Q 141 -25 151 -31 Q 157 -37 161.5 -36.5 Q 166 -36 175 -26 Q 183 -11 190 3 Q 207 52 210 59 L 229 106 L 307 279 L 319 315 Q 322 324 315.5 331 Q 309 338 303 326 L 284 293 Z" fill="black"></path>
				<path d="M 696 680 L 745 686 Q 757 688 768 690 L 785 692 Q 791 693 793 693 L 811 697 Q 817 699 822 704 Q 824 710 820 716.5 Q 816 723 796 730 Q 776 737 769 737 L 691 722 Q 686 718 654 714 L 509 695 Q 483 691 465 691 L 430 691 Q 422 689 418 687 Q 417 683 425 675 Q 433 667 445 662 Q 468 656 492 656 L 552 664 L 577 666 Q 594 666 650 672 L 696 680 Z" fill="red"></path>
				<path d="M 432 560 L 407 565 Q 391 569 379 566 Q 366 563 366 562 L 368 556 L 388 537 L 400 518 Q 408 484 409 482 L 424 407 Q 427 394 433 382 Q 442 372 447 371 Q 448 370 454 371 Q 460 372 465 390 L 465 422 L 446 524 C 441 553 440 558 432 560 Z" fill="lightgray"></path>
				<path d="M 450 562 Q 445 560 432 560 C 402 557 416 520 446 524 L 517 534 L 563 542 L 658 548 L 712 552 L 747 554 L 768 554 Q 781 552 786 546 Q 791 537 784 511 L 767 441 C 760 412 755 417 757 412 L 759 402 Q 759 394 770 391 Q 783 387 805 403 Q 810 406 824 432 L 856 490 Q 863 505 887 528 L 901 542 Q 901 554 873 571 L 847 586 Q 838 592 827 596 L 807 603 L 758 593 L 756 592 L 744 591 Q 727 591 721 589 L 664 581 L 563 575 L 513 569 L 450 562 Z" fill="lightgray"></path>
				<path d="M 492 656 L 500 637 Q 508 616 509 606 L 513 569 L 517 534 L 521 504 Q 521 502 523 489 L 525 479 L 530 429 C 533 399 568 402 567 432 L 563 542 L 563 575 L 563 614 Q 573 642 570 648 Q 566 654 552 664 C 528 682 480 684 492 656 Z" fill="lightgray"></path>
				<path d="M 721 589 L 725 603 Q 729 620 735 631 Q 741 641 741 645 L 739 651 Q 739 652 734 658 Q 729 667 696 680 C 668 691 633 697 650 672 L 662 654 Q 666 644 666 605 Q 664 599 664 581 L 658 548 L 641 437 C 636 407 682 414 688 443 L 712 552 L 721 589 Z" fill="lightgray"></path>
				<path d="M 465 390 L 531 394 L 636 404 L 704 407 Q 716 408 729 409 L 757 412 C 787 415 795 432 767 441 L 755 445 Q 751 447 740 446 Q 729 444 712 444 L 688 443 L 641 437 L 567 432 L 530 429 L 465 422 C 435 419 435 388 465 390 Z" fill="lightgray"></path>
				<path d="M 578 293 Q 600 293 611 294 L 670 301 L 708 308 Q 731 311 740 313 L 763 317 Q 778 322 778.5 324 Q 779 326 777 334 Q 775 338 758.5 345.5 Q 742 353 723 353 Q 704 353 688.5 348 Q 673 343 669 342 L 652 339 Q 647 339 594 331 Q 541 323 514 323 L 479 320 L 460 315 Q 455 307 469 299 Q 483 291 518.5 291 Q 554 291 560 293 L 578 293 Z" fill="lightgray"></path>
				<path d="M 730 197 L 830 195 Q 898 195 905 194 L 930 193 Q 955 191 960 203.5 Q 965 216 949 225 Q 933 234 913 240 L 884 249 Q 870 253 860 253 L 748 240 L 524 220 L 457 212 L 374 204 L 347 202 Q 309 201 309 197 Q 308 197 309.5 190.5 Q 311 184 320 180 Q 357 157 378 157 Q 390 155 398.5 157.5 Q 407 160 414 161 L 498 176 L 584 189 L 641 194 L 681 195 L 730 197 Z" fill="lightgray"></path>
				<path d="M 584 189 L 592 161 Q 596 152 597 113 Q 598 73 597 55 L 594 -5 Q 592 -31 584 -36 Q 576 -41 562 -39 L 524 -31 L 497 -25 Q 491 -25 489 -29 Q 488 -33 495 -38 L 510 -48 Q 557 -95 568 -114 Q 578 -133 586 -135 Q 592 -138 603 -136 Q 622 -128 640 -93 Q 651 -74 651 -15 L 647 55 Q 650 137 658 148 Q 665 167 665 170 Q 664 172 661 176 L 653 185 Q 648 189 641 194 C 617 212 576 218 584 189 Z" fill="lightgray"></path>
				<path d="M 315 -55 L 345 -44 Q 378 -35 431 17 Q 450 37 464 46 Q 477 55 480 58.5 Q 483 62 483 70 Q 483 78 473.5 89.5 Q 464 101 448.5 112 Q 433 123 423 114 Q 419 110 417 97 Q 413 71 380 29 L 353 -2 Q 340 -16 332 -24 L 311 -42 Q 304 -48 304 -53 Q 304 -58 315 -55 Z" fill="lightgray"></path>
				<path d="M 770 86 Q 778 75 802 38 L 833 -13 Q 868 -70 884 -67 Q 895 -66 904 -52 Q 923 -21 902 21 Q 878 60 845 78 L 809 100 Q 808 100 799 104 L 778 115 L 758 123 Q 751 126 747 121 Q 743 117 750 109 L 770 86 Z" fill="lightgray"></path>
</g>
		<text x="40" y="140" font-size="128" fill="#999999">4</text></g>
		<g id="id0:id4:id4" transform="matrix(1.0,0,0,1.0,4096,0.0)">			<g stroke="lightgray" stroke-width="4" transform="scale(4, 4)"> <rect x="0" y="0" width="256" height="256" fill="white" stroke-width="4"/></g>
			<g transform="scale(0.92, -0.92) translate(60, -920)">					<path d="M 232 685 Q 225 687 222 681.5 Q 219 676 221 675 L 232 657 Q 238 648 261 620 Q 287 587 302.5 580.5 Q 318 574 324 573 Q 330 572 341 575 Q 356 581 354.5 604 Q 353 627 348.5 634 Q 344 641 329 652.5 Q 314 664 257 680 L 232 685 Z" fill="black"></path>
				<path d="M 145 485 Q 134 487 130 484 Q 126 481 131 473 L 142 456 Q 150 444 155 439 L 187 402 Q 198 386 208 382 Q 230 369 244 383 Q 258 393 256 414.5 Q 254 436 246.5 447 Q 239 458 208 469 Q 177 480 166 482 L 145 485 Z" fill="black"></path>
				<path d="M 284 293 Q 245 223 230 200 L 191 148 Q 169 117 147.5 101.5 Q 126 86 120.5 80 Q 115 74 113.5 61.5 Q 112 49 118 35 L 133 -3 Q 141 -25 151 -31 Q 157 -37 161.5 -36.5 Q 166 -36 175 -26 Q 183 -11 190 3 Q 207 52 210 59 L 229 106 L 307 279 L 319 315 Q 322 324 315.5 331 Q 309 338 303 326 L 284 293 Z" fill="black"></path>
				<path d="M 696 680 L 745 686 Q 757 688 768 690 L 785 692 Q 791 693 793 693 L 811 697 Q 817 699 822 704 Q 824 710 820 716.5 Q 816 723 796 730 Q 776 737 769 737 L 691 722 Q 686 718 654 714 L 509 695 Q 483 691 465 691 L 430 691 Q 422 689 418 687 Q 417 683 425 675 Q 433 667 445 662 Q 468 656 492 656 L 552 664 L 577 666 Q 594 666 650 672 L 696 680 Z" fill="black"></path>
				<path d="M 432 560 L 407 565 Q 391 569 379 566 Q 366 563 366 562 L 368 556 L 388 537 L 400 518 Q 408 484 409 482 L 424 407 Q 427 394 433 382 Q 442 372 447 371 Q 448 370 454 371 Q 460 372 465 390 L 465 422 L 446 524 C 441 553 440 558 432 560 Z" fill="red"></path>
				<path d="M 450 562 Q 445 560 432 560 C 402 557 416 520 446 524 L 517 534 L 563 542 L 658 548 L 712 552 L 747 554 L 768 554 Q 781 552 786 546 Q 791 537 784 511 L 767 441 C 760 412 755 417 757 412 L 759 402 Q 759 394 770 391 Q 783 387 805 403 Q 810 406 824 432 L 856 490 Q 863 505 887 528 L 901 542 Q 901 554 873 571 L 847 586 Q 838 592 827 596 L 807 603 L 758 593 L 756 592 L 744 591 Q 727 591 721 589 L 664 581 L 563 575 L 513 569 L 450 562 Z" fill="lightgray"></path>
				<path d="M 492 656 L 500 637 Q 508 616 509 606 L 513 569 L 517 534 L 521 504 Q 521 502 523 489 L 525 479 L 530 429 C 533 399 568 402 567 432 L 563 542 L 563 575 L 563 614 Q 573 642 570 648 Q 566 654 552 664 C 528 682 480 684 492 656 Z" fill="lightgray"></path>
				<path d="M 721 589 L 725 603 Q 729 620 735 631 Q 741 641 741 645 L 739 651 Q 739 652 734 658 Q 729 667 696 680 C 668 691 633 697 650 672 L 662 654 Q 666 644 666 605 Q 664 599 664 581 L 658 548 L 641 437 C 636 407 682 414 688 443 L 712 552 L 721 589 Z" fill="lightgray"></path>
				<path d="M 465 390 L 531 394 L 636 404 L 704 407 Q 716 408 729 409 L 757 412 C 787 415 795 432 767 441 L 755 445 Q 751 447 740 446 Q 729 444 712 444 L 688 443 L 641 437 L 567 432 L 530 429 L 465 422 C 435 419 435 388 465 390 Z" fill="lightgray"></path>
				<path d="M 578 293 Q 600 293 611 294 L 670 301 L 708 308 Q 731 311 740 313 L 763 317 Q 778 322 778.5 324 Q 779 326 777 334 Q 775 338 758.5 345.5 Q 742 353 723 353 Q 704 353 688.5 348 Q 673 343 669 342 L 652 339 Q 647 339 594 331 Q 541 323 514 323 L 479 320 L 460 315 Q 455 307 469 299 Q 483 291 518.5 291 Q 554 291 560 293 L 578 293 Z" fill="lightgray"></path>
				<path d="M 730 197 L 830 195 Q 898 195 905 194 L 930 193 Q 955 191 960 203.5 Q 965 216 949 225 Q 933 234 913 240 L 884 249 Q 870 253 860 253 L 748 240 L 524 220 L 457 212 L 374 204 L 347 202 Q 309 201 309 197 Q 308 197 309.5 190.5 Q 311 184 320 180 Q 357 157 378 157 Q 390 155 398.5 157.5 Q 407 160 414 161 L 498 176 L 584 189 L 641 194 L 681 195 L 730 197 Z" fill="lightgray"></path>
				<path d="M 584 189 L 592 161 Q 596 152 597 113 Q 598 73 597 55 L 594 -5 Q 592 -31 584 -36 Q 576 -41 562 -39 L 524 -31 L 497 -25 Q 491 -25 489 -29 Q 488 -33 495 -38 L 510 -48 Q 557 -95 568 -114 Q 578 -133 586 -135 Q 592 -138 603 -136 Q 622 -128 640 -93 Q 651 -74 651 -15 L 647 55 Q 650 137 658 148 Q 665 167 665 170 Q 664 172 661 176 L 653 185 Q 648 189 641 194 C 617 212 576 218 584 189 Z" fill="lightgray"></path>
				<path d="M 315 -55 L 345 -44 Q 378 -35 431 17 Q 450 37 464 46 Q 477 55 480 58.5 Q 483 62 483 70 Q 483 78 473.5 89.5 Q 464 101 448.5 112 Q 433 123 423 114 Q 419 110 417 97 Q 413 71 380 29 L 353 -2 Q 340 -16 332 -24 L 311 -42 Q 304 -48 304 -53 Q 304 -58 315 -55 Z" fill="lightgray"></path>
				<path d="M 770 86 Q 778 75 802 38 L 833 -13 Q 868 -70 884 -67 Q 895 -66 904 -52 Q 923 -21 902 21 Q 878 60 845 78 L 809 100 Q 808 100 799 104 L 778 115 L 758 123 Q 751 126 747 121 Q 743 117 750 109 L 770 86 Z" fill="lightgray"></path>
</g>
		<text x="40" y="140" font-size="128" fill="#999999">5</text></g>
</g>
	<g id="id1:id1" transform="translate(0.0,1024)">
		<g id="id1:id0:id0" transform="matrix(1.0,0,0,1.0,0,0.0)">			<g stroke="lightgray" stroke-width="4" transform="scale(4, 4)"> <rect x="0" y="0" width="256" height="256" fill="white" stroke-width="4"/></g>
			<g transform="scale(0.92, -0.92) translate(60, -920)">					<path d="M 232 685 Q 225 687 222 681.5 Q 219 676 221 675 L 232 657 Q 238 648 261 620 Q 287 587 302.5 580.5 Q 318 574 324 573 Q 330 572 341 575 Q 356 581 354.5 604 Q 353 627 348.5 634 Q 344 641 329 652.5 Q 314 664 257 680 L 232 685 Z" fill="black"></path>
				<path d="M 145 485 Q 134 487 130 484 Q 126 481 131 473 L 142 456 Q 150 444 155 439 L 187 402 Q 198 386 208 382 Q 230 369 244 383 Q 258 393 256 414.5 Q 254 436 246.5 447 Q 239 458 208 469 Q 177 480 166 482 L 145 485 Z" fill="black"></path>
				<path d="M 284 293 Q 245 223 230 200 L 191 148 Q 169 117 147.5 101.5 Q 126 86 120.5 80 Q 115 74 113.5 61.5 Q 112 49 118 35 L 133 -3 Q 141 -25 151 -31 Q 157 -37 161.5 -36.5 Q 166 -36 175 -26 Q 183 -11 190 3 Q 207 52 210 59 L 229 106 L 307 279 L 319 315 Q 322 324 315.5 331 Q 309 338 303 326 L 284 293 Z" fill="black"></path>
				<path d="M 696 680 L 745 686 Q 757 688 768 690 L 785 692 Q 791 693 793 693 L 811 697 Q 817 699 822 704 Q 824 710 820 716.5 Q 816 723 796 730 Q 776 737 769 737 L 691 722 Q 686 718 654 714 L 509 695 Q 483 691 465 691 L 430 691 Q 422 689 418 687 Q 417 683 425 675 Q 433 667 445 662 Q 468 656 492 656 L 552 664 L 577 666 Q 594 666 650 672 L 696 680 Z" fill="black"></path>
				<path d="M 432 560 L 407 565 Q 391 569 379 566 Q 366 563 366 562 L 368 556 L 388 537 L 400 518 Q 408 484 409 482 L 424 407 Q 427 394 433 382 Q 442 372 447 371 Q 448 370 454 371 Q 460 372 465 390 L 465 422 L 446 524 C 441 553 440 558 432 560 Z" fill="black"></path>
				<path d="M 450 562 Q 445 560 432 560 C 402 557 416 520 446 524 L 517 534 L 563 542 L 658 548 L 712 552 L 747 554 L 768 554 Q 781 552 786 546 Q 791 537 784 511 L 767 441 C 760 412 755 417 757 412 L 759 402 Q 759 394 770 391 Q 783 387 805 403 Q 810 406 824 432 L 856 490 Q 863 505 887 528 L 901 542 Q 901 554 873 571 L 847 586 Q 838 592 827 596 L 807 603 L 758 593 L 756 592 L 744 591 Q 727 591 721 589 L 664 581 L 563 575 L 513 569 L 450 562 Z" fill="red"></path>
				<path d="M 492 656 L 500 637 Q 508 616 509 606 L 513 569 L 517 534 L 521 504 Q 521 502 523 489 L 525 479 L 530 429 C 533 399 568 402 567 432 L 563 542 L 563 575 L 563 614 Q 573 642 570 648 Q 566 654 552 664 C 528 682 480 684 492 656 Z" fill="lightgray"></path>
				<path d="M 721 589 L 725 603 Q 729 620 735 631 Q 741 641 741 645 L 739 651 Q 739 652 734 658 Q 729 667 696 680 C 668 691 633 697 650 672 L 662 654 Q 666 644 666 605 Q 664 599 664 581 L 658 548 L 641 437 C 636 407 682 414 688 443 L 712 552 L 721 589 Z" fill="lightgray"></path>
				<path d="M 465 390 L 531 394 L 636 404 L 704 407 Q 716 408 729 409 L 757 412 C 787 415 795 432 767 441 L 755 445 Q 751 447 740 446 Q 729 444 712 444 L 688 443 L 641 437 L 567 432 L 530 429 L 465 422 C 435 419 435 388 465 390 Z" fill="lightgray"></path>
				<path d="M 578 293 Q 600 293 611 294 L 670 301 L 708 308 Q 731 311 740 313 L 763 317 Q 778 322 778.5 324 Q 779 326 777 334 Q 775 338 758.5 345.5 Q 742 353 723 353 Q 704 353 688.5 348 Q 673 343 669 342 L 652 339 Q 647 339 594 331 Q 541 323 514 323 L 479 320 L 460 315 Q 455 307 469 299 Q 483 291 518.5 291 Q 554 291 560 293 L 578 293 Z" fill="lightgray"></path>
				<path d="M 730 197 L 830 195 Q 898 195 905 194 L 930 193 Q 955 191 960 203.5 Q 965 216 949 225 Q 933 234 913 240 L 884 249 Q 870 253 860 253 L 748 240 L 524 220 L 457 212 L 374 204 L 347 202 Q 309 201 309 197 Q 308 197 309.5 190.5 Q 311 184 320 180 Q 357 157 378 157 Q 390 155 398.5 157.5 Q 407 160 414 161 L 498 176 L 584 189 L 641 194 L 681 195 L 730 197 Z" fill="lightgray"></path>
				<path d="M 584 189 L 592 161 Q 596 152 597 113 Q 598 73 597 55 L 594 -5 Q 592 -31 584 -36 Q 576 -41 562 -39 L 524 -31 L 497 -25 Q 491 -25 489 -29 Q 488 -33 495 -38 L 510 -48 Q 557 -95 568 -114 Q 578 -133 586 -135 Q 592 -138 603 -136 Q 622 -128 640 -93 Q 651 -74 651 -15 L 647 55 Q 650 137 658 148 Q 665 167 665 170 Q 664 172 661 176 L 653 185 Q 648 189 641 194 C 617 212 576 218 584 189 Z" fill="lightgray"></path>
				<path d="M 315 -55 L 345 -44 Q 378 -35 431 17 Q 450 37 464 46 Q 477 55 480 58.5 Q 483 62 483 70 Q 483 78 473.5 89.5 Q 464 101 448.5 112 Q 433 123 423 114 Q 419 110 417 97 Q 413 71 380 29 L 353 -2 Q 340 -16 332 -24 L 311 -42 Q 304 -48 304 -53 Q 304 -58 315 -55 Z" fill="lightgray"></path>
				<path d="M 770 86 Q 778 75 802 38 L 833 -13 Q 868 -70 884 -67 Q 895 -66 904 -52 Q 923 -21 902 21 Q 878 60 845 78 L 809 100 Q 808 100 799 104 L 778 115 L 758 123 Q 751 126 747 121 Q 743 117 750 109 L 770 86 Z" fill="lightgray"></path>
</g>
		<text x="40" y="140" font-size="128" fill="#999999">6</text></g>
		<g id="id1:id1:id1" transform="matrix(1.0,0,0,1.0,1024,0.0)">			<g stroke="lightgray" stroke-width="4" transform="scale(4, 4)"> <rect x="0" y="0" width="256" height="256" fill="white" stroke-width="4"/></g>
			<g transform="scale(0.92, -0.92) translate(60, -920)">					<path d="M 232 685 Q 225 687 222 681.5 Q 219 676 221 675 L 232 657 Q 238 648 261 620 Q 287 587 302.5 580.5 Q 318 574 324 573 Q 330 572 341 575 Q 356 581 354.5 604 Q 353 627 348.5 634 Q 344 641 329 652.5 Q 314 664 257 680 L 232 685 Z" fill="black"></path>
				<path d="M 145 485 Q 134 487 130 484 Q 126 481 131 473 L 142 456 Q 150 444 155 439 L 187 402 Q 198 386 208 382 Q 230 369 244 383 Q 258 393 256 414.5 Q 254 436 246.5 447 Q 239 458 208 469 Q 177 480 166 482 L 145 485 Z" fill="black"></path>
				<path d="M 284 293 Q 245 223 230 200 L 191 148 Q 169 117 147.5 101.5 Q 126 86 120.5 80 Q 115 74 113.5 61.5 Q 112 49 118 35 L 133 -3 Q 141 -25 151 -31 Q 157 -37 161.5 -36.5 Q 166 -36 175 -26 Q 183 -11 190 3 Q 207 52 210 59 L 229 106 L 307 279 L 319 315 Q 322 324 315.5 331 Q 309 338 303 326 L 284 293 Z" fill="black"></path>
				<path d="M 696 680 L 745 686 Q 757 688 768 690 L 785 692 Q 791 693 793 693 L 811 697 Q 817 699 822 704 Q 824 710 820 716.5 Q 816 723 796 730 Q 776 737 769 737 L 691 722 Q 686 718 654 714 L 509 695 Q 483 691 465 691 L 430 691 Q 422 689 418 687 Q 417 683 425 675 Q 433 667 445 662 Q 468 656 492 656 L 552 664 L 577 666 Q 594 666 650 672 L 696 680 Z" fill="black"></path>
				<path d="M 432 560 L 407 565 Q 391 569 379 566 Q 366 563 366 562 L 368 556 L 388 537 L 400 518 Q 408 484 409 482 L 424 407 Q 427 394 433 382 Q 442 372 447 371 Q 448 370 454 371 Q 460 372 465 390 L 465 422 L 446 524 C 441 553 440 558 432 560 Z" fill="black"></path>
				<path d="M 450 562 Q 445 560 432 560 C 402 557 416 520 446 524 L 517 534 L 563 542 L 658 548 L 712 552 L 747 554 L 768 554 Q 781 552 786 546 Q 791 537 784 511 L 767 441 C 760 412 755 417 757 412 L 759 402 Q 759 394 770 391 Q 783 387 805 403 Q 810 406 824 432 L 856 490 Q 863 505 887 528 L 901 542 Q 901 554 873 571 L 847 586 Q 838 592 827 596 L 807 603 L 758 593 L 756 592 L 744 591 Q 727 591 721 589 L 664 581 L 563 575 L 513 569 L 450 562 Z" fill="black"></path>
				<path d="M 492 656 L 500 637 Q 508 616 509 606 L 513 569 L 517 534 L 521 504 Q 521 502 523 489 L 525 479 L 530 429 C 533 399 568 402 567 432 L 563 542 L 563 575 L 563 614 Q 573 642 570 648 Q 566 654 552 664 C 528 682 480 684 492 656 Z" fill="red"></path>
				<path d="M 721 589 L 725 603 Q 729 620 735 631 Q 741 641 741 645 L 739 651 Q 739 652 734 658 Q 729 667 696 680 C 668 691 633 697 650 672 L 662 654 Q 666 644 666 605 Q 664 599 664 581 L 658 548 L 641 437 C 636 407 682 414 688 443 L 712 552 L 721 589 Z" fill="lightgray"></path>
				<path d="M 465 390 L 531 394 L 636 404 L 704 407 Q 716 408 729 409 L 757 412 C 787 415 795 432 767 441 L 755 445 Q 751 447 740 446 Q 729 444 712 444 L 688 443 L 641 437 L 567 432 L 530 429 L 465 422 C 435 419 435 388 465 390 Z" fill="lightgray"></path>
				<path d="M 578 293 Q 600 293 611 294 L 670 301 L 708 308 Q 731 311 740 313 L 763 317 Q 778 322 778.5 324 Q 779 326 777 334 Q 775 338 758.5 345.5 Q 742 353 723 353 Q 704 353 688.5 348 Q 673 343 669 342 L 652 339 Q 647 339 594 331 Q 541 323 514 323 L 479 320 L 460 315 Q 455 307 469 299 Q 483 291 518.5 291 Q 554 291 560 293 L 578 293 Z" fill="lightgray"></path>
				<path d="M 730 197 L 830 195 Q 898 195 905 194 L 930 193 Q 955 191 960 203.5 Q 965 216 949 225 Q 933 234 913 240 L 884 249 Q 870 253 860 253 L 748 240 L 524 220 L 457 212 L 374 204 L 347 202 Q 309 201 309 197 Q 308 197 309.5 190.5 Q 311 184 320 180 Q 357 157 378 157 Q 390 155 398.5 157.5 Q 407 160 414 161 L 498 176 L 584 189 L 641 194 L 681 195 L 730 197 Z" fill="lightgray"></path>
				<path d="M 584 189 L 592 161 Q 596 152 597 113 Q 598 73 597 55 L 594 -5 Q 592 -31 584 -36 Q 576 -41 562 -39 L 524 -31 L 497 -25 Q 491 -25 489 -29 Q 488 -33 495 -38 L 510 -48 Q 557 -95 568 -114 Q 578 -133 586 -135 Q 592 -138 603 -136 Q 622 -128 640 -93 Q 651 -74 651 -15 L 647 55 Q 650 137 658 148 Q 665 167 665 170 Q 664 172 661 176 L 653 185 Q 648 189 641 194 C 617 212 576 218 584 189 Z" fill="lightgray"></path>
				<path d="M 315 -55 L 345 -44 Q 378 -35 431 17 Q 450 37 464 46 Q 477 55 480 58.5 Q 483 62 483 70 Q 483 78 473.5 89.5 Q 464 101 448.5 112 Q 433 123 423 114 Q 419 110 417 97 Q 413 71 380 29 L 353 -2 Q 340 -16 332 -24 L 311 -42 Q 304 -48 304 -53 Q 304 -58 315 -55 Z" fill="lightgray"></path>
				<path d="M 770 86 Q 778 75 802 38 L 833 -13 Q 868 -70 884 -67 Q 895 -66 904 -52 Q 923 -21 902 21 Q 878 60 845 78 L 809 100 Q 808 100 799 104 L 778 115 L 758 123 Q 751 126 747 121 Q 743 117 750 109 L 770 86 Z" fill="lightgray"></path>
</g>
		<text x="40" y="140" font-size="128" fill="#999999">7</text></g>
		<g id="id1:id2:id2" transform="matrix(1.0,0,0,1.0,2048,0.0)">			<g stroke="lightgray" stroke-width="4" transform="scale(4, 4)"> <rect x="0" y="0" width="256" height="256" fill="white" stroke-width="4"/></g>
			<g transform="scale(0.92, -0.92) translate(60, -920)">					<path d="M 232 685 Q 225 687 222 681.5 Q 219 676 221 675 L 232 657 Q 238 648 261 620 Q 287 587 302.5 580.5 Q 318 574 324 573 Q 330 572 341 575 Q 356 581 354.5 604 Q 353 627 348.5 634 Q 344 641 329 652.5 Q 314 664 257 680 L 232 685 Z" fill="black"></path>
				<path d="M 145 485 Q 134 487 130 484 Q 126 481 131 473 L 142 456 Q 150 444 155 439 L 187 402 Q 198 386 208 382 Q 230 369 244 383 Q 258 393 256 414.5 Q 254 436 246.5 447 Q 239 458 208 469 Q 177 480 166 482 L 145 485 Z" fill="black"></path>
				<path d="M 284 293 Q 245 223 230 200 L 191 148 Q 169 117 147.5 101.5 Q 126 86 120.5 80 Q 115 74 113.5 61.5 Q 112 49 118 35 L 133 -3 Q 141 -25 151 -31 Q 157 -37 161.5 -36.5 Q 166 -36 175 -26 Q 183 -11 190 3 Q 207 52 210 59 L 229 106 L 307 279 L 319 315 Q 322 324 315.5 331 Q 309 338 303 326 L 284 293 Z" fill="black"></path>
				<path d="M 696 680 L 745 686 Q 757 688 768 690 L 785 692 Q 791 693 793 693 L 811 697 Q 817 699 822 704 Q 824 710 820 716.5 Q 816 723 796 730 Q 776 737 769 737 L 691 722 Q 686 718 654 714 L 509 695 Q 483 691 465 691 L 430 691 Q 422 689 418 687 Q 417 683 425 675 Q 433 667 445 662 Q 468 656 492 656 L 552 664 L 577 666 Q 594 666 650 672 L 696 680 Z" fill="black"></path>
				<path d="M 432 560 L 407 565 Q 391 569 379 566 Q 366 563 366 562 L 368 556 L 388 537 L 400 518 Q 408 484 409 482 L 424 407 Q 427 394 433 382 Q 442 372 447 371 Q 448 370 454 371 Q 460 372 465 390 L 465 422 L 446 524 C 441 553 440 558 432 560 Z" fill="black"></path>
				<path d="M 450 562 Q 445 560 432 560 C 402 557 416 520 446 524 L 517 534 L 563 542 L 658 548 L 712 552 L 747 554 L 768 554 Q 781 552 786 546 Q 791 537 784 511 L 767 441 C 760 412 755 417 757 412 L 759 402 Q 759 394 770 391 Q 783 387 805 403 Q 810 406 824 432 L 856 490 Q 863 505 887 528 L 901 542 Q 901 554 873 571 L 847 586 Q 838 592 827 596 L 807 603 L 758 593 L 756 592 L 744 591 Q 727 591 721 589 L 664 581 L 563 575 L 513 569 L 450 562 Z" fill="black"></path>
				<path d="M 492 656 L 500 637 Q 508 616 509 606 L 513 569 L 517 534 L 521 504 Q 521 502 523 489 L 525 479 L 530 429 C 533 399 568 402 567 432 L 563 542 L 563 575 L 563 614 Q 573 642 570 648 Q 566 654 552 664 C 528 682 480 684 492 656 Z" fill="black"></path>
				<path d="M 721 589 L 725 603 Q 729 620 735 631 Q 741 641 741 645 L 739 651 Q 739 652 734 658 Q 729 667 696 680 C 668 691 633 697 650 672 L 662 654 Q 666 644 666 605 Q 664 599 664 581 L 658 548 L 641 437 C 636 407 682 414 688 443 L 712 552 L 721 589 Z" fill="red"></path>
				<path d="M 465 390 L 531 394 L 636 404 L 704 407 Q 716 408 729 409 L 757 412 C 787 415 795 432 767 441 L 755 445 Q 751 447 740 446 Q 729 444 712 444 L 688 443 L 641 437 L 567 432 L 530 429 L 465 422 C 435 419 435 388 465 390 Z" fill="lightgray"></path>
				<path d="M 578 293 Q 600 293 611 294 L 670 301 L 708 308 Q 731 311 740 313 L 763 317 Q 778 322 778.5 324 Q 779 326 777 334 Q 775 338 758.5 345.5 Q 742 353 723 353 Q 704 353 688.5 348 Q 673 343 669 342 L 652 339 Q 647 339 594 331 Q 541 323 514 323 L 479 320 L 460 315 Q 455 307 469 299 Q 483 291 518.5 291 Q 554 291 560 293 L 578 293 Z" fill="lightgray"></path>
				<path d="M 730 197 L 830 195 Q 898 195 905 194 L 930 193 Q 955 191 960 203.5 Q 965 216 949 225 Q 933 234 913 240 L 884 249 Q 870 253 860 253 L 748 240 L 524 220 L 457 212 L 374 204 L 347 202 Q 309 201 309 197 Q 308 197 309.5 190.5 Q 311 184 320 180 Q 357 157 378 157 Q 390 155 398.5 157.5 Q 407 160 414 161 L 498 176 L 584 189 L 641 194 L 681 195 L 730 197 Z" fill="lightgray"></path>
				<path d="M 584 189 L 592 161 Q 596 152 597 113 Q 598 73 597 55 L 594 -5 Q 592 -31 584 -36 Q 576 -41 562 -39 L 524 -31 L 497 -25 Q 491 -25 489 -29 Q 488 -33 495 -38 L 510 -48 Q 557 -95 568 -114 Q 578 -133 586 -135 Q 592 -138 603 -136 Q 622 -128 640 -93 Q 651 -74 651 -15 L 647 55 Q 650 137 658 148 Q 665 167 665 170 Q 664 172 661 176 L 653 185 Q 648 189 641 194 C 617 212 576 218 584 189 Z" fill="lightgray"></path>
				<path d="M 315 -55 L 345 -44 Q 378 -35 431 17 Q 450 37 464 46 Q 477 55 480 58.5 Q 483 62 483 70 Q 483 78 473.5 89.5 Q 464 101 448.5 112 Q 433 123 423 114 Q 419 110 417 97 Q 413 71 380 29 L 353 -2 Q 340 -16 332 -24 L 311 -42 Q 304 -48 304 -53 Q 304 -58 315 -55 Z" fill="lightgray"></path>
				<path d="M 770 86 Q 778 75 802 38 L 833 -13 Q 868 -70 884 -67 Q 895 -66 904 -52 Q 923 -21 902 21 Q 878 60 845 78 L 809 100 Q 808 100 799 104 L 778 115 L 758 123 Q 751 126 747 121 Q 743 117 750 109 L 770 86 Z" fill="lightgray"></path>
</g>
		<text x="40" y="140" font-size="128" fill="#999999">8</text></g>
		<g id="id1:id3:id3" transform="matrix(1.0,0,0,1.0,3072,0.0)">			<g stroke="lightgray" stroke-width="4" transform="scale(4, 4)"> <rect x="0" y="0" width="256" height="256" fill="white" stroke-width="4"/></g>
			<g transform="scale(0.92, -0.92) translate(60, -920)">					<path d="M 232 685 Q 225 687 222 681.5 Q 219 676 221 675 L 232 657 Q 238 648 261 620 Q 287 587 302.5 580.5 Q 318 574 324 573 Q 330 572 341 575 Q 356 581 354.5 604 Q 353 627 348.5 634 Q 344 641 329 652.5 Q 314 664 257 680 L 232 685 Z" fill="black"></path>
				<path d="M 145 485 Q 134 487 130 484 Q 126 481 131 473 L 142 456 Q 150 444 155 439 L 187 402 Q 198 386 208 382 Q 230 369 244 383 Q 258 393 256 414.5 Q 254 436 246.5 447 Q 239 458 208 469 Q 177 480 166 482 L 145 485 Z" fill="black"></path>
				<path d="M 284 293 Q 245 223 230 200 L 191 148 Q 169 117 147.5 101.5 Q 126 86 120.5 80 Q 115 74 113.5 61.5 Q 112 49 118 35 L 133 -3 Q 141 -25 151 -31 Q 157 -37 161.5 -36.5 Q 166 -36 175 -26 Q 183 -11 190 3 Q 207 52 210 59 L 229 106 L 307 279 L 319 315 Q 322 324 315.5 331 Q 309 338 303 326 L 284 293 Z" fill="black"></path>
				<path d="M 696 680 L 745 686 Q 757 688 768 690 L 785 692 Q 791 693 793 693 L 811 697 Q 817 699 822 704 Q 824 710 820 716.5 Q 816 723 796 730 Q 776 737 769 737 L 691 722 Q 686 718 654 714 L 509 695 Q 483 691 465 691 L 430 691 Q 422 689 418 687 Q 417 683 425 675 Q 433 667 445 662 Q 468 656 492 656 L 552 664 L 577 666 Q 594 666 650 672 L 696 680 Z" fill="black"></path>
				<path d="M 432 560 L 407 565 Q 391 569 379 566 Q 366 563 366 562 L 368 556 L 388 537 L 400 518 Q 408 484 409 482 L 424 407 Q 427 394 433 382 Q 442 372 447 371 Q 448 370 454 371 Q 460 372 465 390 L 465 422 L 446 524 C 441 553 440 558 432 560 Z" fill="black"></path>
				<path d="M 450 562 Q 445 560 432 560 C 402 557 416 520 446 524 L 517 534 L 563 542 L 658 548 L 712 552 L 747 554 L 768 554 Q 781 552 786 546 Q 791 537 784 511 L 767 441 C 760 412 755 417 757 412 L 759 402 Q 759 394 770 391 Q 783 387 805 403 Q 810 406 824 432 L 856 490 Q 863 505 887 528 L 901 542 Q 901 554 873 571 L 847 586 Q 838 592 827 596 L 807 603 L 758 593 L 756 592 L 744 591 Q 727 591 721 589 L 664 581 L 563 575 L 513 569 L 450 562 Z" fill="black"></path>
				<path d="M 492 656 L 500 637 Q 508 616 509 606 L 513 569 L 517 534 L 521 504 Q 521 502 523 489 L 525 479 L 530 429 C 533 399 568 402 567 432 L 563 542 L 563 575 L 563 614 Q 573 642 570 648 Q 566 654 552 664 C 528 682 480 684 492 656 Z" fill="black"></path>
				<path d="M 721 589 L 725 603 Q 729 620 735 631 Q 741 641 741 645 L 739 651 Q 739 652 734 658 Q 729 667 696 680 C 668 691 633 697 650 672 L 662 654 Q 666 644 666 605 Q 664 599 664 581 L 658 548 L 641 437 C 636 407 682 414 688 443 L 712 552 L 721 589 Z" fill="black"></path>
				<path d="M 465 390 L 531 394 L 636 404 L 704 407 Q 716 408 729 409 L 757 412 C 787 415 795 432 767 441 L 755 445 Q 751 447 740 446 Q 729 444 712 444 L 688 443 L 641 437 L 567 432 L 530 429 L 465 422 C 435 419 435 388 465 390 Z" fill="red"></path>
				<path d="M 578 293 Q 600 293 611 294 L 670 301 L 708 308 Q 731 311 740 313 L 763 317 Q 778 322 778.5 324 Q 779 326 777 334 Q 775 338 758.5 345.5 Q 742 353 723 353 Q 704 353 688.5 348 Q 673 343 669 342 L 652 339 Q 647 339 594 331 Q 541 323 514 323 L 479 320 L 460 315 Q 455 307 469 299 Q 483 291 518.5 291 Q 554 291 560 293 L 578 293 Z" fill="lightgray"></path>
				<path d="M 730 197 L 830 195 Q 898 195 905 194 L 930 193 Q 955 191 960 203.5 Q 965 216 949 225 Q 933 234 913 240 L 884 249 Q 870 253 860 253 L 748 240 L 524 220 L 457 212 L 374 204 L 347 202 Q 309 201 309 197 Q 308 197 309.5 190.5 Q 311 184 320 180 Q 357 157 378 157 Q 390 155 398.5 157.5 Q 407 160 414 161 L 498 176 L 584 189 L 641 194 L 681 195 L 730 197 Z" fill="lightgray"></path>
				<path d="M 584 189 L 592 161 Q 596 152 597 113 Q 598 73 597 55 L 594 -5 Q 592 -31 584 -36 Q 576 -41 562 -39 L 524 -31 L 497 -25 Q 491 -25 489 -29 Q 488 -33 495 -38 L 510 -48 Q 557 -95 568 -114 Q 578 -133 586 -135 Q 592 -138 603 -136 Q 622 -128 640 -93 Q 651 -74 651 -15 L 647 55 Q 650 137 658 148 Q 665 167 665 170 Q 664 172 661 176 L 653 185 Q 648 189 641 194 C 617 212 576 218 584 189 Z" fill="lightgray"></path>
				<path d="M 315 -55 L 345 -44 Q 378 -35 431 17 Q 450 37 464 46 Q 477 55 480 58.5 Q 483 62 483 70 Q 483 78 473.5 89.5 Q 464 101 448.5 112 Q 433 123 423 114 Q 419 110 417 97 Q 413 71 380 29 L 353 -2 Q 340 -16 332 -24 L 311 -42 Q 304 -48 304 -53 Q 304 -58 315 -55 Z" fill="lightgray"></path>
				<path d="M 770 86 Q 778 75 802 38 L 833 -13 Q 868 -70 884 -67 Q 895 -66 904 -52 Q 923 -21 902 21 Q 878 60 845 78 L 809 100 Q 808 100 799 104 L 778 115 L 758 123 Q 751 126 747 121 Q 743 117 750 109 L 770 86 Z" fill="lightgray"></path>
</g>
		<text x="40" y="140" font-size="128" fill="#999999">9</text></g>
		<g id="id1:id4:id4" transform="matrix(1.0,0,0,1.0,4096,0.0)">			<g stroke="lightgray" stroke-width="4" transform="scale(4, 4)"> <rect x="0" y="0" width="256" height="256" fill="white" stroke-width="4"/></g>
			<g transform="scale(0.92, -0.92) translate(60, -920)">					<path d="M 232 685 Q 225 687 222 681.5 Q 219 676 221 675 L 232 657 Q 238 648 261 620 Q 287 587 302.5 580.5 Q 318 574 324 573 Q 330 572 341 575 Q 356 581 354.5 604 Q 353 627 348.5 634 Q 344 641 329 652.5 Q 314 664 257 680 L 232 685 Z" fill="black"></path>
				<path d="M 145 485 Q 134 487 130 484 Q 126 481 131 473 L 142 456 Q 150 444 155 439 L 187 402 Q 198 386 208 382 Q 230 369 244 383 Q 258 393 256 414.5 Q 254 436 246.5 447 Q 239 458 208 469 Q 177 480 166 482 L 145 485 Z" fill="black"></path>
				<path d="M 284 293 Q 245 223 230 200 L 191 148 Q 169 117 147.5 101.5 Q 126 86 120.5 80 Q 115 74 113.5 61.5 Q 112 49 118 35 L 133 -3 Q 141 -25 151 -31 Q 157 -37 161.5 -36.5 Q 166 -36 175 -26 Q 183 -11 190 3 Q 207 52 210 59 L 229 106 L 307 279 L 319 315 Q 322 324 315.5 331 Q 309 338 303 326 L 284 293 Z" fill="black"></path>
				<path d="M 696 680 L 745 686 Q 757 688 768 690 L 785 692 Q 791 693 793 693 L 811 697 Q 817 699 822 704 Q 824 710 820 716.5 Q 816 723 796 730 Q 776 737 769 737 L 691 722 Q 686 718 654 714 L 509 695 Q 483 691 465 691 L 430 691 Q 422 689 418 687 Q 417 683 425 675 Q 433 667 445 662 Q 468 656 492 656 L 552 664 L 577 666 Q 594 666 650 672 L 696 680 Z" fill="black"></path>
				<path d="M 432 560 L 407 565 Q 391 569 379 566 Q 366 563 366 562 L 368 556 L 388 537 L 400 518 Q 408 484 409 482 L 424 407 Q 427 394 433 382 Q 442 372 447 371 Q 448 370 454 371 Q 460 372 465 390 L 465 422 L 446 524 C 441 553 440 558 432 560 Z" fill="black"></path>
				<path d="M 450 562 Q 445 560 432 560 C 402 557 416 520 446 524 L 517 534 L 563 542 L 658 548 L 712 552 L 747 554 L 768 554 Q 781 552 786 546 Q 791 537 784 511 L 767 441 C 760 412 755 417 757 412 L 759 402 Q 759 394 770 391 Q 783 387 805 403 Q 810 406 824 432 L 856 490 Q 863 505 887 528 L 901 542 Q 901 554 873 571 L 847 586 Q 838 592 827 596 L 807 603 L 758 593 L 756 592 L 744 591 Q 727 591 721 589 L 664 581 L 563 575 L 513 569 L 450 562 Z" fill="black"></path>
				<path d="M 492 656 L 500 637 Q 508 616 509 606 L 513 569 L 517 534 L 521 504 Q 521 502 523 489 L 525 479 L 530 429 C 533 399 568 402 567 432 L 563 542 L 563 575 L 563 614 Q 573 642 570 648 Q 566 654 552 664 C 528 682 480 684 492 656 Z" fill="black"></path>
				<path d="M 721 589 L 725 603 Q 729 620 735 631 Q 741 641 741 645 L 739 651 Q 739 652 734 658 Q 729 667 696 680 C 668 691 633 697 650 672 L 662 654 Q 666 644 666 605 Q 664 599 664 581 L 658 548 L 641 437 C 636 407 682 414 688 443 L 712 552 L 721 589 Z" fill="black"></path>
				<path d="M 465 390 L 531 394 L 636 404 L 704 407 Q 716 408 729 409 L 757 412 C 787 415 795 432 767 441 L 755 445 Q 751 447 740 446 Q 729 444 712 444 L 688 443 L 641 437 L 567 432 L 530 429 L 465 422 C 435 419 435 388 465 390 Z" fill="black"></path>
				<path d="M 578 293 Q 600 293 611 294 L 670 301 L 708 308 Q 731 311 740 313 L 763 317 Q 778 322 778.5 324 Q 779 326 777 334 Q 775 338 758.5 345.5 Q 742 353 723 353 Q 704 353 688.5 348 Q 673 343 669 342 L 652 339 Q 647 339 594 331 Q 541 323 514 323 L 479 320 L 460 315 Q 455 307 469 299 Q 483 291 518.5 291 Q 554 291 560 293 L 578 293 Z" fill="red"></path>
				<path d="M 730 197 L 830 195 Q 898 195 905 194 L 930 193 Q 955 191 960 203.5 Q 965 216 949 225 Q 933 234 913 240 L 884 249 Q 870 253 860 253 L 748 240 L 524 220 L 457 212 L 374 204 L 347 202 Q 309 201 309 197 Q 308 197 309.5 190.5 Q 311 184 320 180 Q 357 157 378 157 Q 390 155 398.5 157.5 Q 407 160 414 161 L 498 176 L 584 189 L 641 194 L 681 195 L 730 197 Z" fill="lightgray"></path>
				<path d="M 584 189 L 592 161 Q 596 152 597 113 Q 598 73 597 55 L 594 -5 Q 592 -31 584 -36 Q 576 -41 562 -39 L 524 -31 L 497 -25 Q 491 -25 489 -29 Q 488 -33 495 -38 L 510 -48 Q 557 -95 568 -114 Q 578 -133 586 -135 Q 592 -138 603 -136 Q 622 -128 640 -93 Q 651 -74 651 -15 L 647 55 Q 650 137 658 148 Q 665 167 665 170 Q 664 172 661 176 L 653 185 Q 648 189 641 194 C 617 212 576 218 584 189 Z" fill="lightgray"></path>
				<path d="M 315 -55 L 345 -44 Q 378 -35 431 17 Q 450 37 464 46 Q 477 55 480 58.5 Q 483 62 483 70 Q 483 78 473.5 89.5 Q 464 101 448.5 112 Q 433 123 423 114 Q 419 110 417 97 Q 413 71 380 29 L 353 -2 Q 340 -16 332 -24 L 311 -42 Q 304 -48 304 -53 Q 304 -58 315 -55 Z" fill="lightgray"></path>
				<path d="M 770 86 Q 778 75 802 38 L 833 -13 Q 868 -70 884 -67 Q 895 -66 904 -52 Q 923 -21 902 21 Q 878 60 845 78 L 809 100 Q 808 100 799 104 L 778 115 L 758 123 Q 751 126 747 121 Q 743 117 750 109 L 770 86 Z" fill="lightgray"></path>
</g>
		<text x="40" y="140" font-size="128" fill="#999999">10</text></g>
</g>
	<g id="id2:id2" transform="translate(0.0,2048)">
		<g id="id2:id0:id0" transform="matrix(1.0,0,0,1.0,0,0.0)">			<g stroke="lightgray" stroke-width="4" transform="scale(4, 4)"> <rect x="0" y="0" width="256" height="256" fill="white" stroke-width="4"/></g>
			<g transform="scale(0.92, -0.92) translate(60, -920)">					<path d="M 232 685 Q 225 687 222 681.5 Q 219 676 221 675 L 232 657 Q 238 648 261 620 Q 287 587 302.5 580.5 Q 318 574 324 573 Q 330 572 341 575 Q 356 581 354.5 604 Q 353 627 348.5 634 Q 344 641 329 652.5 Q 314 664 257 680 L 232 685 Z" fill="black"></path>
				<path d="M 145 485 Q 134 487 130 484 Q 126 481 131 473 L 142 456 Q 150 444 155 439 L 187 402 Q 198 386 208 382 Q 230 369 244 383 Q 258 393 256 414.5 Q 254 436 246.5 447 Q 239 458 208 469 Q 177 480 166 482 L 145 485 Z" fill="black"></path>
				<path d="M 284 293 Q 245 223 230 200 L 191 148 Q 169 117 147.5 101.5 Q 126 86 120.5 80 Q 115 74 113.5 61.5 Q 112 49 118 35 L 133 -3 Q 141 -25 151 -31 Q 157 -37 161.5 -36.5 Q 166 -36 175 -26 Q 183 -11 190 3 Q 207 52 210 59 L 229 106 L 307 279 L 319 315 Q 322 324 315.5 331 Q 309 338 303 326 L 284 293 Z" fill="black"></path>
				<path d="M 696 680 L 745 686 Q 757 688 768 690 L 785 692 Q 791 693 793 693 L 811 697 Q 817 699 822 704 Q 824 710 820 716.5 Q 816 723 796 730 Q 776 737 769 737 L 691 722 Q 686 718 654 714 L 509 695 Q 483 691 465 691 L 430 691 Q 422 689 418 687 Q 417 683 425 675 Q 433 667 445 662 Q 468 656 492 656 L 552 664 L 577 666 Q 594 666 650 672 L 696 680 Z" fill="black"></path>
				<path d="M 432 560 L 407 565 Q 391 569 379 566 Q 366 563 366 562 L 368 556 L 388 537 L 400 518 Q 408 484 409 482 L 424 407 Q 427 394 433 382 Q 442 372 447 371 Q 448 370 454 371 Q 460 372 465 390 L 465 422 L 446 524 C 441 553 440 558 432 560 Z" fill="black"></path>
				<path d="M 450 562 Q 445 560 432 560 C 402 557 416 520 446 524 L 517 534 L 563 542 L 658 548 L 712 552 L 747 554 L 768 554 Q 781 552 786 546 Q 791 537 784 511 L 767 441 C 760 412 755 417 757 412 L 759 402 Q 759 394 770 391 Q 783 387 805 403 Q 810 406 824 432 L 856 490 Q 863 505 887 528 L 901 542 Q 901 554 873 571 L 847 586 Q 838 592 827 596 L 807 603 L 758 593 L 756 592 L 744 591 Q 727 591 721 589 L 664 581 L 563 575 L 513 569 L 450 562 Z" fill="black"></path>
				<path d="M 492 656 L 500 637 Q 508 616 509 606 L 513 569 L 517 534 L 521 504 Q 521 502 523 489 L 525 479 L 530 429 C 533 399 568 402 567 432 L 563 542 L 563 575 L 563 614 Q 573 642 570 648 Q 566 654 552 664 C 528 682 480 684 492 656 Z" fill="black"></path>
				<path d="M 721 589 L 725 603 Q 729 620 735 631 Q 741 641 741 645 L 739 651 Q 739 652 734 658 Q 729 667 696 680 C 668 691 633 697 650 672 L 662 654 Q 666 644 666 605 Q 664 599 664 581 L 658 548 L 641 437 C 636 407 682 414 688 443 L 712 552 L 721 589 Z" fill="black"></path>
				<path d="M 465 390 L 531 394 L 636 404 L 704 407 Q 716 408 729 409 L 757 412 C 787 415 795 432 767 441 L 755 445 Q 751 447 740 446 Q 729 444 712 444 L 688 443 L 641 437 L 567 432 L 530 429 L 465 422 C 435 419 435 388 465 390 Z" fill="black"></path>
				<path d="M 578 293 Q 600 293 611 294 L 670 301 L 708 308 Q 731 311 740 313 L 763 317 Q 778 322 778.5 324 Q 779 326 777 334 Q 775 338 758.5 345.5 Q 742 353 723 353 Q 704 353 688.5 348 Q 673 343 669 342 L 652 339 Q 647 339 594 331 Q 541 323 514 323 L 479 320 L 460 315 Q 455 307 469 299 Q 483 291 518.5 291 Q 554 291 560 293 L 578 293 Z" fill="black"></path>
				<path d="M 730 197 L 830 195 Q 898 195 905 194 L 930 193 Q 955 191 960 203.5 Q 965 216 949 225 Q 933 234 913 240 L 884 249 Q 870 253 860 253 L 748 240 L 524 220 L 457 212 L 374 204 L 347 202 Q 309 201 309 197 Q 308 197 309.5 190.5 Q 311 184 320 180 Q 357 157 378 157 Q 390 155 398.5 157.5 Q 407 160 414 161 L 498 176 L 584 189 L 641 194 L 681 195 L 730 197 Z" fill="red"></path>
				<path d="M 584 189 L 592 161 Q 596 152 597 113 Q 598 73 597 55 L 594 -5 Q 592 -31 584 -36 Q 576 -41 562 -39 L 524 -31 L 497 -25 Q 491 -25 489 -29 Q 488 -33 495 -38 L 510 -48 Q 557 -95 568 -114 Q 578 -133 586 -135 Q 592 -138 603 -136 Q 622 -128 640 -93 Q 651 -74 651 -15 L 647 55 Q 650 137 658 148 Q 665 167 665 170 Q 664 172 661 176 L 653 185 Q 648 189 641 194 C 617 212 576 218 584 189 Z" fill="lightgray"></path>
				<path d="M 315 -55 L 345 -44 Q 378 -35 431 17 Q 450 37 464 46 Q 477 55 480 58.5 Q 483 62 483 70 Q 483 78 473.5 89.5 Q 464 101 448.5 112 Q 433 123 423 114 Q 419 110 417 97 Q 413 71 380 29 L 353 -2 Q 340 -16 332 -24 L 311 -42 Q 304 -48 304 -53 Q 304 -58 315 -55 Z" fill="lightgray"></path>
				<path d="M 770 86 Q 778 75 802 38 L 833 -13 Q 868 -70 884 -67 Q 895 -66 904 -52 Q 923 -21 902 21 Q 878 60 845 78 L 809 100 Q 808 100 799 104 L 778 115 L 758 123 Q 751 126 747 121 Q 743 117 750 109 L 770 86 Z" fill="lightgray"></path>
</g>
		<text x="40" y="140" font-size="128" fill="#999999">11</text></g>
		<g id="id2:id1:id1" transform="matrix(1.0,0,0,1.0,1024,0.0)">			<g stroke="lightgray" stroke-width="4" transform="scale(4, 4)"> <rect x="0" y="0" width="256" height="256" fill="white" stroke-width="4"/></g>
			<g transform="scale(0.92, -0.92) translate(60, -920)">					<path d="M 232 685 Q 225 687 222 681.5 Q 219 676 221 675 L 232 657 Q 238 648 261 620 Q 287 587 302.5 580.5 Q 318 574 324 573 Q 330 572 341 575 Q 356 581 354.5 604 Q 353 627 348.5 634 Q 344 641 329 652.5 Q 314 664 257 680 L 232 685 Z" fill="black"></path>
				<path d="M 145 485 Q 134 487 130 484 Q 126 481 131 473 L 142 456 Q 150 444 155 439 L 187 402 Q 198 386 208 382 Q 230 369 244 383 Q 258 393 256 414.5 Q 254 436 246.5 447 Q 239 458 208 469 Q 177 480 166 482 L 145 485 Z" fill="black"></path>
				<path d="M 284 293 Q 245 223 230 200 L 191 148 Q 169 117 147.5 101.5 Q 126 86 120.5 80 Q 115 74 113.5 61.5 Q 112 49 118 35 L 133 -3 Q 141 -25 151 -31 Q 157 -37 161.5 -36.5 Q 166 -36 175 -26 Q 183 -11 190 3 Q 207 52 210 59 L 229 106 L 307 279 L 319 315 Q 322 324 315.5 331 Q 309 338 303 326 L 284 293 Z" fill="black"></path>
				<path d="M 696 680 L 745 686 Q 757 688 768 690 L 785 692 Q 791 693 793 693 L 811 697 Q 817 699 822 704 Q 824 710 820 716.5 Q 816 723 796 730 Q 776 737 769 737 L 691 722 Q 686 718 654 714 L 509 695 Q 483 691 465 691 L 430 691 Q 422 689 418 687 Q 417 683 425 675 Q 433 667 445 662 Q 468 656 492 656 L 552 664 L 577 666 Q 594 666 650 672 L 696 680 Z" fill="black"></path>
				<path d="M 432 560 L 407 565 Q 391 569 379 566 Q 366 563 366 562 L 368 556 L 388 537 L 400 518 Q 408 484 409 482 L 424 407 Q 427 394 433 382 Q 442 372 447 371 Q 448 370 454 371 Q 460 372 465 390 L 465 422 L 446 524 C 441 553 440 558 432 560 Z" fill="black"></path>
				<path d="M 450 562 Q 445 560 432 560 C 402 557 416 520 446 524 L 517 534 L 563 542 L 658 548 L 712 552 L 747 554 L 768 554 Q 781 552 786 546 Q 791 537 784 511 L 767 441 C 760 412 755 417 757 412 L 759 402 Q 759 394 770 391 Q 783 387 805 403 Q 810 406 824 432 L 856 490 Q 863 505 887 528 L 901 542 Q 901 554 873 571 L 847 586 Q 838 592 827 596 L 807 603 L 758 593 L 756 592 L 744 591 Q 727 591 721 589 L 664 581 L 563 575 L 513 569 L 450 562 Z" fill="black"></path>
				<path d="M 492 656 L 500 637 Q 508 616 509 606 L 513 569 L 517 534 L 521 504 Q 521 502 523 489 L 525 479 L 530 429 C 533 399 568 402 567 432 L 563 542 L 563 575 L 563 614 Q 573 642 570 648 Q 566 654 552 664 C 528 682 480 684 492 656 Z" fill="black"></path>
				<path d="M 721 589 L 725 603 Q 729 620 735 631 Q 741 641 741 645 L 739 651 Q 739 652 734 658 Q 729 667 696 680 C 668 691 633 697 650 672 L 662 654 Q 666 644 666 605 Q 664 599 664 581 L 658 548 L 641 437 C 636 407 682 414 688 443 L 712 552 L 721 589 Z" fill="black"></path>
				<path d="M 465 390 L 531 394 L 636 404 L 704 407 Q 716 408 729 409 L 757 412 C 787 415 795 432 767 441 L 755 445 Q 751 447 740 446 Q 729 444 712 444 L 688 443 L 641 437 L 567 432 L 530 429 L 465 422 C 435 419 435 388 465 390 Z" fill="black"></path>
				<path d="M 578 293 Q 600 293 611 294 L 670 301 L 708 308 Q 731 311 740 313 L 763 317 Q 778 322 778.5 324 Q 779 326 777 334 Q 775 338 758.5 345.5 Q 742 353 723 353 Q 704 353 688.5 348 Q 673 343 669 342 L 652 339 Q 647 339 594 331 Q 541 323 514 323 L 479 320 L 460 315 Q 455 307 469 299 Q 483 291 518.5 291 Q 554 291 560 293 L 578 293 Z" fill="black"></path>
				<path d="M 730 197 L 830 195 Q 898 195 905 194 L 930 193 Q 955 191 960 203.5 Q 965 216 949 225 Q 933 234 913 240 L 884 249 Q 870 253 860 253 L 748 240 L 524 220 L 457 212 L 374 204 L 347 202 Q 309 201 309 197 Q 308 197 309.5 190.5 Q 311 184 320 180 Q 357 157 378 157 Q 390 155 398.5 157.5 Q 407 160 414 161 L 498 176 L 584 189 L 641 194 L 681 195 L 730 197 Z" fill="black"></path>
				<path d="M 584 189 L 592 161 Q 596 152 597 113 Q 598 73 597 55 L 594 -5 Q 592 -31 584 -36 Q 576 -41 562 -39 L 524 -31 L 497 -25 Q 491 -25 489 -29 Q 488 -33 495 -38 L 510 -48 Q 557 -95 568 -114 Q 578 -133 586 -135 Q 592 -138 603 -136 Q 622 -128 640 -93 Q 651 -74 651 -15 L 647 55 Q 650 137 658 148 Q 665 167 665 170 Q 664 172 661 176 L 653 185 Q 648 189 641 194 C 617 212 576 218 584 189 Z" fill="red"></path>
				<path d="M 315 -55 L 345 -44 Q 378 -35 431 17 Q 450 37 464 46 Q 477 55 480 58.5 Q 483 62 483 70 Q 483 78 473.5 89.5 Q 464 101 448.5 112 Q 433 123 423 114 Q 419 110 417 97 Q 413 71 380 29 L 353 -2 Q 340 -16 332 -24 L 311 -42 Q 304 -48 304 -53 Q 304 -58 315 -55 Z" fill="lightgray"></path>
				<path d="M 770 86 Q 778 75 802 38 L 833 -13 Q 868 -70 884 -67 Q 895 -66 904 -52 Q 923 -21 902 21 Q 878 60 845 78 L 809 100 Q 808 100 799 104 L 778 115 L 758 123 Q 751 126 747 121 Q 743 117 750 109 L 770 86 Z" fill="lightgray"></path>
</g>
		<text x="40" y="140" font-size="128" fill="#999999">12</text></g>
		<g id="id2:id2:id2" transform="matrix(1.0,0,0,1.0,2048,0.0)">			<g stroke="lightgray" stroke-width="4" transform="scale(4, 4)"> <rect x="0" y="0" width="256" height="256" fill="white" stroke-width="4"/></g>
			<g transform="scale(0.92, -0.92) translate(60, -920)">					<path d="M 232 685 Q 225 687 222 681.5 Q 219 676 221 675 L 232 657 Q 238 648 261 620 Q 287 587 302.5 580.5 Q 318 574 324 573 Q 330 572 341 575 Q 356 581 354.5 604 Q 353 627 348.5 634 Q 344 641 329 652.5 Q 314 664 257 680 L 232 685 Z" fill="black"></path>
				<path d="M 145 485 Q 134 487 130 484 Q 126 481 131 473 L 142 456 Q 150 444 155 439 L 187 402 Q 198 386 208 382 Q 230 369 244 383 Q 258 393 256 414.5 Q 254 436 246.5 447 Q 239 458 208 469 Q 177 480 166 482 L 145 485 Z" fill="black"></path>
				<path d="M 284 293 Q 245 223 230 200 L 191 148 Q 169 117 147.5 101.5 Q 126 86 120.5 80 Q 115 74 113.5 61.5 Q 112 49 118 35 L 133 -3 Q 141 -25 151 -31 Q 157 -37 161.5 -36.5 Q 166 -36 175 -26 Q 183 -11 190 3 Q 207 52 210 59 L 229 106 L 307 279 L 319 315 Q 322 324 315.5 331 Q 309 338 303 326 L 284 293 Z" fill="black"></path>
				<path d="M 696 680 L 745 686 Q 757 688 768 690 L 785 692 Q 791 693 793 693 L 811 697 Q 817 699 822 704 Q 824 710 820 716.5 Q 816 723 796 730 Q 776 737 769 737 L 691 722 Q 686 718 654 714 L 509 695 Q 483 691 465 691 L 430 691 Q 422 689 418 687 Q 417 683 425 675 Q 433 667 445 662 Q 468 656 492 656 L 552 664 L 577 666 Q 594 666 650 672 L 696 680 Z" fill="black"></path>
				<path d="M 432 560 L 407 565 Q 391 569 379 566 Q 366 563 366 562 L 368 556 L 388 537 L 400 518 Q 408 484 409 482 L 424 407 Q 427 394 433 382 Q 442 372 447 371 Q 448 370 454 371 Q 460 372 465 390 L 465 422 L 446 524 C 441 553 440 558 432 560 Z" fill="black"></path>
				<path d="M 450 562 Q 445 560 432 560 C 402 557 416 520 446 524 L 517 534 L 563 542 L 658 548 L 712 552 L 747 554 L 768 554 Q 781 552 786 546 Q 791 537 784 511 L 767 441 C 760 412 755 417 757 412 L 759 402 Q 759 394 770 391 Q 783 387 805 403 Q 810 406 824 432 L 856 490 Q 863 505 887 528 L 901 542 Q 901 554 873 571 L 847 586 Q 838 592 827 596 L 807 603 L 758 593 L 756 592 L 744 591 Q 727 591 721 589 L 664 581 L 563 575 L 513 569 L 450 562 Z" fill="black"></path>
				<path d="M 492 656 L 500 637 Q 508 616 509 606 L 513 569 L 517 534 L 521 504 Q 521 502 523 489 L 525 479 L 530 429 C 533 399 568 402 567 432 L 563 542 L 563 575 L 563 614 Q 573 642 570 648 Q 566 654 552 664 C 528 682 480 684 492 656 Z" fill="black"></path>
				<path d="M 721 589 L 725 603 Q 729 620 735 631 Q 741 641 741 645 L 739 651 Q 739 652 734 658 Q 729 667 696 680 C 668 691 633 697 650 672 L 662 654 Q 666 644 666 605 Q 664 599 664 581 L 658 548 L 641 437 C 636 407 682 414 688 443 L 712 552 L 721 589 Z" fill="black"></path>
				<path d="M 465 390 L 531 394 L 636 404 L 704 407 Q 716 408 729 409 L 757 412 C 787 415 795 432 767 441 L 755 445 Q 751 447 740 446 Q 729 444 712 444 L 688 443 L 641 437 L 567 432 L 530 429 L 465 422 C 435 419 435 388 465 390 Z" fill="black"></path>
				<path d="M 578 293 Q 600 293 611 294 L 670 301 L 708 308 Q 731 311 740 313 L 763 317 Q 778 322 778.5 324 Q 779 326 777 334 Q 775 338 758.5 345.5 Q 742 353 723 353 Q 704 353 688.5 348 Q 673 343 669 342 L 652 339 Q 647 339 594 331 Q 541 323 514 323 L 479 320 L 460 315 Q 455 307 469 299 Q 483 291 518.5 291 Q 554 291 560 293 L 578 293 Z" fill="black"></path>
				<path d="M 730 197 L 830 195 Q 898 195 905 194 L 930 193 Q 955 191 960 203.5 Q 965 216 949 225 Q 933 234 913 240 L 884 249 Q 870 253 860 253 L 748 240 L 524 220 L 457 212 L 374 204 L 347 202 Q 309 201 309 197 Q 308 197 309.5 190.5 Q 311 184 320 180 Q 357 157 378 157 Q 390 155 398.5 157.5 Q 407 160 414 161 L 498 176 L 584 189 L 641 194 L 681 195 L 730 197 Z" fill="black"></path>
				<path d="M 584 189 L 592 161 Q 596 152 597 113 Q 598 73 597 55 L 594 -5 Q 592 -31 584 -36 Q 576 -41 562 -39 L 524 -31 L 497 -25 Q 491 -25 489 -29 Q 488 -33 495 -38 L 510 -48 Q 557 -95 568 -114 Q 578 -133 586 -135 Q 592 -138 603 -136 Q 622 -128 640 -93 Q 651 -74 651 -15 L 647 55 Q 650 137 658 148 Q 665 167 665 170 Q 664 172 661 176 L 653 185 Q 648 189 641 194 C 617 212 576 218 584 189 Z" fill="black"></path>
				<path d="M 315 -55 L 345 -44 Q 378 -35 431 17 Q 450 37 464 46 Q 477 55 480 58.5 Q 483 62 483 70 Q 483 78 473.5 89.5 Q 464 101 448.5 112 Q 433 123 423 114 Q 419 110 417 97 Q 413 71 380 29 L 353 -2 Q 340 -16 332 -24 L 311 -42 Q 304 -48 304 -53 Q 304 -58 315 -55 Z" fill="red"></path>
				<path d="M 770 86 Q 778 75 802 38 L 833 -13 Q 868 -70 884 -67 Q 895 -66 904 -52 Q 923 -21 902 21 Q 878 60 845 78 L 809 100 Q 808 100 799 104 L 778 115 L 758 123 Q 751 126 747 121 Q 743 117 750 109 L 770 86 Z" fill="lightgray"></path>
</g>
		<text x="40" y="140" font-size="128" fill="#999999">13</text></g>
		<g id="id2:id3:id3" transform="matrix(1.0,0,0,1.0,3072,0.0)">			<g stroke="lightgray" stroke-width="4" transform="scale(4, 4)"> <rect x="0" y="0" width="256" height="256" fill="white" stroke-width="4"/></g>
			<g transform="scale(0.92, -0.92) translate(60, -920)">					<path d="M 232 685 Q 225 687 222 681.5 Q 219 676 221 675 L 232 657 Q 238 648 261 620 Q 287 587 302.5 580.5 Q 318 574 324 573 Q 330 572 341 575 Q 356 581 354.5 604 Q 353 627 348.5 634 Q 344 641 329 652.5 Q 314 664 257 680 L 232 685 Z" fill="black"></path>
				<path d="M 145 485 Q 134 487 130 484 Q 126 481 131 473 L 142 456 Q 150 444 155 439 L 187 402 Q 198 386 208 382 Q 230 369 244 383 Q 258 393 256 414.5 Q 254 436 246.5 447 Q 239 458 208 469 Q 177 480 166 482 L 145 485 Z" fill="black"></path>
				<path d="M 284 293 Q 245 223 230 200 L 191 148 Q 169 117 147.5 101.5 Q 126 86 120.5 80 Q 115 74 113.5 61.5 Q 112 49 118 35 L 133 -3 Q 141 -25 151 -31 Q 157 -37 161.5 -36.5 Q 166 -36 175 -26 Q 183 -11 190 3 Q 207 52 210 59 L 229 106 L 307 279 L 319 315 Q 322 324 315.5 331 Q 309 338 303 326 L 284 293 Z" fill="black"></path>
				<path d="M 696 680 L 745 686 Q 757 688 768 690 L 785 692 Q 791 693 793 693 L 811 697 Q 817 699 822 704 Q 824 710 820 716.5 Q 816 723 796 730 Q 776 737 769 737 L 691 722 Q 686 718 654 714 L 509 695 Q 483 691 465 691 L 430 691 Q 422 689 418 687 Q 417 683 425 675 Q 433 667 445 662 Q 468 656 492 656 L 552 664 L 577 666 Q 594 666 650 672 L 696 680 Z" fill="black"></path>
				<path d="M 432 560 L 407 565 Q 391 569 379 566 Q 366 563 366 562 L 368 556 L 388 537 L 400 518 Q 408 484 409 482 L 424 407 Q 427 394 433 382 Q 442 372 447 371 Q 448 370 454 371 Q 460 372 465 390 L 465 422 L 446 524 C 441 553 440 558 432 560 Z" fill="black"></path>
				<path d="M 450 562 Q 445 560 432 560 C 402 557 416 520 446 524 L 517 534 L 563 542 L 658 548 L 712 552 L 747 554 L 768 554 Q 781 552 786 546 Q 791 537 784 511 L 767 441 C 760 412 755 417 757 412 L 759 402 Q 759 394 770 391 Q 783 387 805 403 Q 810 406 824 432 L 856 490 Q 863 505 887 528 L 901 542 Q 901 554 873 571 L 847 586 Q 838 592 827 596 L 807 603 L 758 593 L 756 592 L 744 591 Q 727 591 721 589 L 664 581 L 563 575 L 513 569 L 450 562 Z" fill="black"></path>
				<path d="M 492 656 L 500 637 Q 508 616 509 606 L 513 569 L 517 534 L 521 504 Q 521 502 523 489 L 525 479 L 530 429 C 533 399 568 402 567 432 L 563 542 L 563 575 L 563 614 Q 573 642 570 648 Q 566 654 552 664 C 528 682 480 684 492 656 Z" fill="black"></path>
				<path d="M 721 589 L 725 603 Q 729 620 735 631 Q 741 641 741 645 L 739 651 Q 739 652 734 658 Q 729 667 696 680 C 668 691 633 697 650 672 L 662 654 Q 666 644 666 605 Q 664 599 664 581 L 658 548 L 641 437 C 636 407 682 414 688 443 L 712 552 L 721 589 Z" fill="black"></path>
				<path d="M 465 390 L 531 394 L 636 404 L 704 407 Q 716 408 729 409 L 757 412 C 787 415 795 432 767 441 L 755 445 Q 751 447 740 446 Q 729 444 712 444 L 688 443 L 641 437 L 567 432 L 530 429 L 465 422 C 435 419 435 388 465 390 Z" fill="black"></path>
				<path d="M 578 293 Q 600 293 611 294 L 670 301 L 708 308 Q 731 311 740 313 L 763 317 Q 778 322 778.5 324 Q 779 326 777 334 Q 775 338 758.5 345.5 Q 742 353 723 353 Q 704 353 688.5 348 Q 673 343 669 342 L 652 339 Q 647 339 594 331 Q 541 323 514 323 L 479 320 L 460 315 Q 455 307 469 299 Q 483 291 518.5 291 Q 554 291 560 293 L 578 293 Z" fill="black"></path>
				<path d="M 730 197 L 830 195 Q 898 195 905 194 L 930 193 Q 955 191 960 203.5 Q 965 216 949 225 Q 933 234 913 240 L 884 249 Q 870 253 860 253 L 748 240 L 524 220 L 457 212 L 374 204 L 347 202 Q 309 201 309 197 Q 308 197 309.5 190.5 Q 311 184 320 180 Q 357 157 378 157 Q 390 155 398.5 157.5 Q 407 160 414 161 L 498 176 L 584 189 L 641 194 L 681 195 L 730 197 Z" fill="black"></path>
				<path d="M 584 189 L 592 161 Q 596 152 597 113 Q 598 73 597 55 L 594 -5 Q 592 -31 584 -36 Q 576 -41 562 -39 L 524 -31 L 497 -25 Q 491 -25 489 -29 Q 488 -33 495 -38 L 510 -48 Q 557 -95 568 -114 Q 578 -133 586 -135 Q 592 -138 603 -136 Q 622 -128 640 -93 Q 651 -74 651 -15 L 647 55 Q 650 137 658 148 Q 665 167 665 170 Q 664 172 661 176 L 653 185 Q 648 189 641 194 C 617 212 576 218 584 189 Z" fill="black"></path>
				<path d="M 315 -55 L 345 -44 Q 378 -35 431 17 Q 450 37 464 46 Q 477 55 480 58.5 Q 483 62 483 70 Q 483 78 473.5 89.5 Q 464 101 448.5 112 Q 433 123 423 114 Q 419 110 417 97 Q 413 71 380 29 L 353 -2 Q 340 -16 332 -24 L 311 -42 Q 304 -48 304 -53 Q 304 -58 315 -55 Z" fill="black"></path>
				<path d="M 770 86 Q 778 75 802 38 L 833 -13 Q 868 -70 884 -67 Q 895 -66 904 -52 Q 923 -21 902 21 Q 878 60 845 78 L 809 100 Q 808 100 799 104 L 778 115 L 758 123 Q 751 126 747 121 Q 743 117 750 109 L 770 86 Z" fill="red"></path>
</g>
		<text x="40" y="140" font-size="128" fill="#999999">14</text></g>
		<g id="id2:id4:id4" transform="matrix(1.0,0,0,1.0,4096,0.0)">			<g stroke="white" stroke-width="4" transform="scale(4, 4)"> <rect x="1" y="1" width="255" height="255" fill="white" stroke-width="0"/></g>
</g>
</g>
</svg>
