<?xml version="1.0" standalone="no"?>
<!DOCTYPE svg PUBLIC "-//W3C//DTD SVG 1.1//EN"
 "http://www.w3.org/Graphics/SVG/1.1/DTD/svg11.dtd">
<!-- generate by Japanese dictionary app com.asnsami.kanjidictionary -->

<svg xmlns="http://www.w3.org/2000/svg" xmlns:sodipodi="http://sodipodi.sourceforge.net/DTD/sodipodi-0.dtd" version="1.1" width="640" height="512" viewBox="0 0 5120 4096">
	<g id="id0:id0" transform="translate(0.0,0)">
		<g id="id0:id0:id0" transform="matrix(1.0,0,0,1.0,0,0.0)">			<g stroke="lightgray" stroke-width="4" transform="scale(4, 4)"> <rect x="0" y="0" width="256" height="256" fill="white" stroke-width="4"/></g>
			<g transform="scale(0.92, -0.92) translate(60, -920)">					<path d="M 221 682 Q 212 684 208 678.5 Q 204 673 212 665 L 222 652 Q 222 650 237 635 L 256 612 Q 258 610 272.5 593.5 Q 287 577 299 568 Q 326 553 341 570 Q 348 578 350 596 Q 355 649 283 668 L 243 679 L 221 682 Z" fill="red"></path>
				<path d="M 141 457 Q 131 458 129 455 Q 128 452 130 446 L 137 433 Q 137 430 140 427 Q 143 424 155 408 L 178 378 Q 199 357 210.5 348.5 Q 222 340 236.5 338.5 Q 251 337 258.5 347.5 Q 266 358 266 373 Q 266 407 249 418 Q 235 432 203 441 L 160 453 L 141 457 Z" fill="lightgray"></path>
				<path d="M 298 257 L 254 178 Q 232 142 212 118 L 171 72 Q 151 50 136 39 Q 132 35 120 20 Q 116 10 116 3 Q 116 -4 122 -28 Q 128 -52 133.5 -65.5 Q 139 -79 143.5 -86.5 Q 148 -94 158 -94 Q 166 -96 174 -88.5 Q 182 -81 187 -64.5 Q 192 -48 210 -6 L 230 47 L 258 105 Q 274 135 288 169 L 332 278 Q 336 292 327 296 Q 318 300 312 286 L 298 257 Z" fill="lightgray"></path>
				<path d="M 679 658 L 686 673 Q 691 692 688 715 Q 684 738 649 754 L 623 766 L 602 770 Q 592 772 587 770 Q 579 762 587 749 L 613 697 Q 633 662 650 652 C 670 639 670 639 679 658 Z" fill="lightgray"></path>
				<path d="M 474 629 L 466 655 Q 461 672 451 669 Q 446 669 443 658 L 438 641 Q 432 614 409 578 L 398 559 Q 388 542 389 524.5 Q 390 507 396 496 Q 410 474 435 495 Q 448 508 452 521 Q 456 534 460 542.5 Q 464 551 476 594 L 474 629 Z" fill="lightgray"></path>
				<path d="M 844 691 L 832 688 Q 830 688 828 687 L 794 680 L 761 671 L 679 658 L 650 652 L 597 644 Q 544 634 523 633 L 474 629 C 444 627 446 591 476 594 L 495 596 Q 503 599 543 605 L 761 638 L 814 644 Q 843 646 846 641 Q 855 632 832 599 L 811 569 Q 807 564 809 561 Q 810 558 818 563 L 828 568 L 862 587 Q 866 590 884 598 Q 902 606 906 606 L 938 615 Q 952 619 955 626 Q 957 633 948 647 Q 939 658 912 671 L 875 687 Q 861 691 844 691 Z" fill="lightgray"></path>
				<path d="M 783 550 Q 781 562 756 567 L 726 572 Q 722 572 713 569 L 673 559 Q 656 554 631 550 L 532 530 L 511 527 L 500 526 L 488 522 Q 487 516 495 508 Q 503 500 524.5 499 Q 546 498 552 500 L 557 500 L 578 504 L 600 507 L 640 514 L 738 530 Q 757 535 760 535 Q 783 539 783 550 Z" fill="lightgray"></path>
				<path d="M 600 507 L 606 489 L 606 488 Q 607 486 608 478 L 608 442 L 604 409 Q 605 396 608 391 Q 611 386 623 374 C 644 353 647 356 648 386 L 650 436 L 652 469 Q 652 472 654 484 Q 656 495 654 500 Q 653 506 640 514 C 615 530 591 535 600 507 Z" fill="lightgray"></path>
				<path d="M 386 350 Q 382 349 383.5 344 Q 385 339 400 345 Q 417 349 439.5 362.5 Q 462 376 474 388 L 506 414 L 514 423 L 526 429 Q 529 437 520.5 444 Q 512 451 497 457 Q 489 462 480 464 Q 472 468 466 466 Q 463 464 460.5 453.5 Q 458 443 455 433 L 428 394 Q 423 387 410 374 Q 402 364 394 358 L 386 350 Z" fill="lightgray"></path>
				<path d="M 606 315 L 690 360 L 786 422 L 841 451 Q 850 453 852 455.5 Q 854 458 856 466 Q 856 484 849 491 L 831 512 Q 803 540 794 518 Q 792 511 792 509 Q 787 485 752 454 Q 744 447 717 430 L 648 386 L 623 374 L 572 344 Q 562 339 528 325 Q 472 298 434.5 286.5 Q 397 275 377 268 L 350 262 Q 344 261 342 253 Q 342 246 354 248 L 382 251 Q 446 257 504 274 L 606 315 Z" fill="lightgray"></path>
				<path d="M 504 274 L 507 250 Q 508 235 510 203 L 510 165 Q 505 87 493 59 Q 491 56 499 30 L 510 9 Q 518 -10 527 -10 Q 540 -10 546 26 L 548 56 L 552 116 L 552 136 L 552 202 L 554 223 L 556 260 Q 556 272 557 280 C 559 310 500 304 504 274 Z" fill="lightgray"></path>
				<path d="M 805 34 L 813 18 Q 825 -9 841 -6 Q 850 -4 858 8 Q 865 20 869 72 L 868 104 L 869 234 Q 869 266 879 290 L 884 305 Q 884 317 871 325 Q 867 328 843 343 Q 819 357 809 357 Q 799 356 784 351 Q 768 345 732 337 Q 696 328 682 327 L 606 315 C 454 291 482 277 557 280 L 579 281 Q 580 280 598 283 L 713 305 L 749 309 Q 758 310 779 310 Q 791 308 797 304 Q 805 296 808 285 Q 810 268 811 250 L 810 222 L 812 166 L 812 136 L 812 88 L 810 62 C 808 32 803 39 805 34 Z" fill="lightgray"></path>
				<path d="M 552 202 L 570 198 Q 588 192 605 196 L 810 222 C 840 226 840 241 811 250 L 798 254 Q 774 261 750 258 L 732 254 L 694 244 L 562 224 Q 556 224 554 223 C 524 219 523 209 552 202 Z" fill="lightgray"></path>
				<path d="M 552 116 L 563 112 Q 578 109 583 109 Q 588 109 640 116 L 812 136 C 842 139 842 161 812 166 L 784 171 Q 770 174 766 173 Q 762 171 749 170 L 732 166 L 688 157 Q 652 151 646 150 L 602 143 L 552 136 C 522 132 524 126 552 116 Z" fill="lightgray"></path>
				<path d="M 546 26 L 568 25 L 595 25 L 640 27 Q 644 28 658 28 L 676 29 L 764 35 L 786 35 Q 789 34 805 34 C 835 34 838 50 810 62 L 791 70 Q 772 74 767 76 Q 755 76 740 73 Q 725 69 679 65 L 604 58 L 548 56 C 518 55 516 27 546 26 Z" fill="lightgray"></path>
				<path d="M 568 25 L 566 13 Q 566 12 558 -4 Q 550 -20 520 -48 Q 490 -76 478 -86 L 434 -120 L 400 -143 Q 396 -146 396 -151 Q 397 -154 405 -152 L 416 -148 Q 429 -146 460 -133 Q 490 -119 499 -114 Q 507 -109 543 -86 L 612 -37 Q 616 -34 628 -28 L 642 -20 Q 657 -5 621 13 L 610 18 Q 597 24 595 25 C 570 37 570 37 568 25 Z" fill="lightgray"></path>
				<path d="M 778 -54 L 844 -131 Q 859 -146 868 -151 Q 884 -163 895 -162 Q 921 -158 919 -121 Q 916 -64 819 -23 Q 784 -8 767 -4 L 742 2 Q 734 5 729 0.5 Q 724 -4 732 -9 L 778 -54 Z" fill="lightgray"></path>
</g>
		<text x="40" y="140" font-size="128" fill="#999999">1</text></g>
		<g id="id0:id1:id1" transform="matrix(1.0,0,0,1.0,1024,0.0)">			<g stroke="lightgray" stroke-width="4" transform="scale(4, 4)"> <rect x="0" y="0" width="256" height="256" fill="white" stroke-width="4"/></g>
			<g transform="scale(0.92, -0.92) translate(60, -920)">					<path d="M 221 682 Q 212 684 208 678.5 Q 204 673 212 665 L 222 652 Q 222 650 237 635 L 256 612 Q 258 610 272.5 593.5 Q 287 577 299 568 Q 326 553 341 570 Q 348 578 350 596 Q 355 649 283 668 L 243 679 L 221 682 Z" fill="black"></path>
				<path d="M 141 457 Q 131 458 129 455 Q 128 452 130 446 L 137 433 Q 137 430 140 427 Q 143 424 155 408 L 178 378 Q 199 357 210.5 348.5 Q 222 340 236.5 338.5 Q 251 337 258.5 347.5 Q 266 358 266 373 Q 266 407 249 418 Q 235 432 203 441 L 160 453 L 141 457 Z" fill="red"></path>
				<path d="M 298 257 L 254 178 Q 232 142 212 118 L 171 72 Q 151 50 136 39 Q 132 35 120 20 Q 116 10 116 3 Q 116 -4 122 -28 Q 128 -52 133.5 -65.5 Q 139 -79 143.5 -86.5 Q 148 -94 158 -94 Q 166 -96 174 -88.5 Q 182 -81 187 -64.5 Q 192 -48 210 -6 L 230 47 L 258 105 Q 274 135 288 169 L 332 278 Q 336 292 327 296 Q 318 300 312 286 L 298 257 Z" fill="lightgray"></path>
				<path d="M 679 658 L 686 673 Q 691 692 688 715 Q 684 738 649 754 L 623 766 L 602 770 Q 592 772 587 770 Q 579 762 587 749 L 613 697 Q 633 662 650 652 C 670 639 670 639 679 658 Z" fill="lightgray"></path>
				<path d="M 474 629 L 466 655 Q 461 672 451 669 Q 446 669 443 658 L 438 641 Q 432 614 409 578 L 398 559 Q 388 542 389 524.5 Q 390 507 396 496 Q 410 474 435 495 Q 448 508 452 521 Q 456 534 460 542.5 Q 464 551 476 594 L 474 629 Z" fill="lightgray"></path>
				<path d="M 844 691 L 832 688 Q 830 688 828 687 L 794 680 L 761 671 L 679 658 L 650 652 L 597 644 Q 544 634 523 633 L 474 629 C 444 627 446 591 476 594 L 495 596 Q 503 599 543 605 L 761 638 L 814 644 Q 843 646 846 641 Q 855 632 832 599 L 811 569 Q 807 564 809 561 Q 810 558 818 563 L 828 568 L 862 587 Q 866 590 884 598 Q 902 606 906 606 L 938 615 Q 952 619 955 626 Q 957 633 948 647 Q 939 658 912 671 L 875 687 Q 861 691 844 691 Z" fill="lightgray"></path>
				<path d="M 783 550 Q 781 562 756 567 L 726 572 Q 722 572 713 569 L 673 559 Q 656 554 631 550 L 532 530 L 511 527 L 500 526 L 488 522 Q 487 516 495 508 Q 503 500 524.5 499 Q 546 498 552 500 L 557 500 L 578 504 L 600 507 L 640 514 L 738 530 Q 757 535 760 535 Q 783 539 783 550 Z" fill="lightgray"></path>
				<path d="M 600 507 L 606 489 L 606 488 Q 607 486 608 478 L 608 442 L 604 409 Q 605 396 608 391 Q 611 386 623 374 C 644 353 647 356 648 386 L 650 436 L 652 469 Q 652 472 654 484 Q 656 495 654 500 Q 653 506 640 514 C 615 530 591 535 600 507 Z" fill="lightgray"></path>
				<path d="M 386 350 Q 382 349 383.5 344 Q 385 339 400 345 Q 417 349 439.5 362.5 Q 462 376 474 388 L 506 414 L 514 423 L 526 429 Q 529 437 520.5 444 Q 512 451 497 457 Q 489 462 480 464 Q 472 468 466 466 Q 463 464 460.5 453.5 Q 458 443 455 433 L 428 394 Q 423 387 410 374 Q 402 364 394 358 L 386 350 Z" fill="lightgray"></path>
				<path d="M 606 315 L 690 360 L 786 422 L 841 451 Q 850 453 852 455.5 Q 854 458 856 466 Q 856 484 849 491 L 831 512 Q 803 540 794 518 Q 792 511 792 509 Q 787 485 752 454 Q 744 447 717 430 L 648 386 L 623 374 L 572 344 Q 562 339 528 325 Q 472 298 434.5 286.5 Q 397 275 377 268 L 350 262 Q 344 261 342 253 Q 342 246 354 248 L 382 251 Q 446 257 504 274 L 606 315 Z" fill="lightgray"></path>
				<path d="M 504 274 L 507 250 Q 508 235 510 203 L 510 165 Q 505 87 493 59 Q 491 56 499 30 L 510 9 Q 518 -10 527 -10 Q 540 -10 546 26 L 548 56 L 552 116 L 552 136 L 552 202 L 554 223 L 556 260 Q 556 272 557 280 C 559 310 500 304 504 274 Z" fill="lightgray"></path>
				<path d="M 805 34 L 813 18 Q 825 -9 841 -6 Q 850 -4 858 8 Q 865 20 869 72 L 868 104 L 869 234 Q 869 266 879 290 L 884 305 Q 884 317 871 325 Q 867 328 843 343 Q 819 357 809 357 Q 799 356 784 351 Q 768 345 732 337 Q 696 328 682 327 L 606 315 C 454 291 482 277 557 280 L 579 281 Q 580 280 598 283 L 713 305 L 749 309 Q 758 310 779 310 Q 791 308 797 304 Q 805 296 808 285 Q 810 268 811 250 L 810 222 L 812 166 L 812 136 L 812 88 L 810 62 C 808 32 803 39 805 34 Z" fill="lightgray"></path>
				<path d="M 552 202 L 570 198 Q 588 192 605 196 L 810 222 C 840 226 840 241 811 250 L 798 254 Q 774 261 750 258 L 732 254 L 694 244 L 562 224 Q 556 224 554 223 C 524 219 523 209 552 202 Z" fill="lightgray"></path>
				<path d="M 552 116 L 563 112 Q 578 109 583 109 Q 588 109 640 116 L 812 136 C 842 139 842 161 812 166 L 784 171 Q 770 174 766 173 Q 762 171 749 170 L 732 166 L 688 157 Q 652 151 646 150 L 602 143 L 552 136 C 522 132 524 126 552 116 Z" fill="lightgray"></path>
				<path d="M 546 26 L 568 25 L 595 25 L 640 27 Q 644 28 658 28 L 676 29 L 764 35 L 786 35 Q 789 34 805 34 C 835 34 838 50 810 62 L 791 70 Q 772 74 767 76 Q 755 76 740 73 Q 725 69 679 65 L 604 58 L 548 56 C 518 55 516 27 546 26 Z" fill="lightgray"></path>
				<path d="M 568 25 L 566 13 Q 566 12 558 -4 Q 550 -20 520 -48 Q 490 -76 478 -86 L 434 -120 L 400 -143 Q 396 -146 396 -151 Q 397 -154 405 -152 L 416 -148 Q 429 -146 460 -133 Q 490 -119 499 -114 Q 507 -109 543 -86 L 612 -37 Q 616 -34 628 -28 L 642 -20 Q 657 -5 621 13 L 610 18 Q 597 24 595 25 C 570 37 570 37 568 25 Z" fill="lightgray"></path>
				<path d="M 778 -54 L 844 -131 Q 859 -146 868 -151 Q 884 -163 895 -162 Q 921 -158 919 -121 Q 916 -64 819 -23 Q 784 -8 767 -4 L 742 2 Q 734 5 729 0.5 Q 724 -4 732 -9 L 778 -54 Z" fill="lightgray"></path>
</g>
		<text x="40" y="140" font-size="128" fill="#999999">2</text></g>
		<g id="id0:id2:id2" transform="matrix(1.0,0,0,1.0,2048,0.0)">			<g stroke="lightgray" stroke-width="4" transform="scale(4, 4)"> <rect x="0" y="0" width="256" height="256" fill="white" stroke-width="4"/></g>
			<g transform="scale(0.92, -0.92) translate(60, -920)">					<path d="M 221 682 Q 212 684 208 678.5 Q 204 673 212 665 L 222 652 Q 222 650 237 635 L 256 612 Q 258 610 272.5 593.5 Q 287 577 299 568 Q 326 553 341 570 Q 348 578 350 596 Q 355 649 283 668 L 243 679 L 221 682 Z" fill="black"></path>
				<path d="M 141 457 Q 131 458 129 455 Q 128 452 130 446 L 137 433 Q 137 430 140 427 Q 143 424 155 408 L 178 378 Q 199 357 210.5 348.5 Q 222 340 236.5 338.5 Q 251 337 258.5 347.5 Q 266 358 266 373 Q 266 407 249 418 Q 235 432 203 441 L 160 453 L 141 457 Z" fill="black"></path>
				<path d="M 298 257 L 254 178 Q 232 142 212 118 L 171 72 Q 151 50 136 39 Q 132 35 120 20 Q 116 10 116 3 Q 116 -4 122 -28 Q 128 -52 133.5 -65.5 Q 139 -79 143.5 -86.5 Q 148 -94 158 -94 Q 166 -96 174 -88.5 Q 182 -81 187 -64.5 Q 192 -48 210 -6 L 230 47 L 258 105 Q 274 135 288 169 L 332 278 Q 336 292 327 296 Q 318 300 312 286 L 298 257 Z" fill="red"></path>
				<path d="M 679 658 L 686 673 Q 691 692 688 715 Q 684 738 649 754 L 623 766 L 602 770 Q 592 772 587 770 Q 579 762 587 749 L 613 697 Q 633 662 650 652 C 670 639 670 639 679 658 Z" fill="lightgray"></path>
				<path d="M 474 629 L 466 655 Q 461 672 451 669 Q 446 669 443 658 L 438 641 Q 432 614 409 578 L 398 559 Q 388 542 389 524.5 Q 390 507 396 496 Q 410 474 435 495 Q 448 508 452 521 Q 456 534 460 542.5 Q 464 551 476 594 L 474 629 Z" fill="lightgray"></path>
				<path d="M 844 691 L 832 688 Q 830 688 828 687 L 794 680 L 761 671 L 679 658 L 650 652 L 597 644 Q 544 634 523 633 L 474 629 C 444 627 446 591 476 594 L 495 596 Q 503 599 543 605 L 761 638 L 814 644 Q 843 646 846 641 Q 855 632 832 599 L 811 569 Q 807 564 809 561 Q 810 558 818 563 L 828 568 L 862 587 Q 866 590 884 598 Q 902 606 906 606 L 938 615 Q 952 619 955 626 Q 957 633 948 647 Q 939 658 912 671 L 875 687 Q 861 691 844 691 Z" fill="lightgray"></path>
				<path d="M 783 550 Q 781 562 756 567 L 726 572 Q 722 572 713 569 L 673 559 Q 656 554 631 550 L 532 530 L 511 527 L 500 526 L 488 522 Q 487 516 495 508 Q 503 500 524.5 499 Q 546 498 552 500 L 557 500 L 578 504 L 600 507 L 640 514 L 738 530 Q 757 535 760 535 Q 783 539 783 550 Z" fill="lightgray"></path>
				<path d="M 600 507 L 606 489 L 606 488 Q 607 486 608 478 L 608 442 L 604 409 Q 605 396 608 391 Q 611 386 623 374 C 644 353 647 356 648 386 L 650 436 L 652 469 Q 652 472 654 484 Q 656 495 654 500 Q 653 506 640 514 C 615 530 591 535 600 507 Z" fill="lightgray"></path>
				<path d="M 386 350 Q 382 349 383.5 344 Q 385 339 400 345 Q 417 349 439.5 362.5 Q 462 376 474 388 L 506 414 L 514 423 L 526 429 Q 529 437 520.5 444 Q 512 451 497 457 Q 489 462 480 464 Q 472 468 466 466 Q 463 464 460.5 453.5 Q 458 443 455 433 L 428 394 Q 423 387 410 374 Q 402 364 394 358 L 386 350 Z" fill="lightgray"></path>
				<path d="M 606 315 L 690 360 L 786 422 L 841 451 Q 850 453 852 455.5 Q 854 458 856 466 Q 856 484 849 491 L 831 512 Q 803 540 794 518 Q 792 511 792 509 Q 787 485 752 454 Q 744 447 717 430 L 648 386 L 623 374 L 572 344 Q 562 339 528 325 Q 472 298 434.5 286.5 Q 397 275 377 268 L 350 262 Q 344 261 342 253 Q 342 246 354 248 L 382 251 Q 446 257 504 274 L 606 315 Z" fill="lightgray"></path>
				<path d="M 504 274 L 507 250 Q 508 235 510 203 L 510 165 Q 505 87 493 59 Q 491 56 499 30 L 510 9 Q 518 -10 527 -10 Q 540 -10 546 26 L 548 56 L 552 116 L 552 136 L 552 202 L 554 223 L 556 260 Q 556 272 557 280 C 559 310 500 304 504 274 Z" fill="lightgray"></path>
				<path d="M 805 34 L 813 18 Q 825 -9 841 -6 Q 850 -4 858 8 Q 865 20 869 72 L 868 104 L 869 234 Q 869 266 879 290 L 884 305 Q 884 317 871 325 Q 867 328 843 343 Q 819 357 809 357 Q 799 356 784 351 Q 768 345 732 337 Q 696 328 682 327 L 606 315 C 454 291 482 277 557 280 L 579 281 Q 580 280 598 283 L 713 305 L 749 309 Q 758 310 779 310 Q 791 308 797 304 Q 805 296 808 285 Q 810 268 811 250 L 810 222 L 812 166 L 812 136 L 812 88 L 810 62 C 808 32 803 39 805 34 Z" fill="lightgray"></path>
				<path d="M 552 202 L 570 198 Q 588 192 605 196 L 810 222 C 840 226 840 241 811 250 L 798 254 Q 774 261 750 258 L 732 254 L 694 244 L 562 224 Q 556 224 554 223 C 524 219 523 209 552 202 Z" fill="lightgray"></path>
				<path d="M 552 116 L 563 112 Q 578 109 583 109 Q 588 109 640 116 L 812 136 C 842 139 842 161 812 166 L 784 171 Q 770 174 766 173 Q 762 171 749 170 L 732 166 L 688 157 Q 652 151 646 150 L 602 143 L 552 136 C 522 132 524 126 552 116 Z" fill="lightgray"></path>
				<path d="M 546 26 L 568 25 L 595 25 L 640 27 Q 644 28 658 28 L 676 29 L 764 35 L 786 35 Q 789 34 805 34 C 835 34 838 50 810 62 L 791 70 Q 772 74 767 76 Q 755 76 740 73 Q 725 69 679 65 L 604 58 L 548 56 C 518 55 516 27 546 26 Z" fill="lightgray"></path>
				<path d="M 568 25 L 566 13 Q 566 12 558 -4 Q 550 -20 520 -48 Q 490 -76 478 -86 L 434 -120 L 400 -143 Q 396 -146 396 -151 Q 397 -154 405 -152 L 416 -148 Q 429 -146 460 -133 Q 490 -119 499 -114 Q 507 -109 543 -86 L 612 -37 Q 616 -34 628 -28 L 642 -20 Q 657 -5 621 13 L 610 18 Q 597 24 595 25 C 570 37 570 37 568 25 Z" fill="lightgray"></path>
				<path d="M 778 -54 L 844 -131 Q 859 -146 868 -151 Q 884 -163 895 -162 Q 921 -158 919 -121 Q 916 -64 819 -23 Q 784 -8 767 -4 L 742 2 Q 734 5 729 0.5 Q 724 -4 732 -9 L 778 -54 Z" fill="lightgray"></path>
</g>
		<text x="40" y="140" font-size="128" fill="#999999">3</text></g>
		<g id="id0:id3:id3" transform="matrix(1.0,0,0,1.0,3072,0.0)">			<g stroke="lightgray" stroke-width="4" transform="scale(4, 4)"> <rect x="0" y="0" width="256" height="256" fill="white" stroke-width="4"/></g>
			<g transform="scale(0.92, -0.92) translate(60, -920)">					<path d="M 221 682 Q 212 684 208 678.5 Q 204 673 212 665 L 222 652 Q 222 650 237 635 L 256 612 Q 258 610 272.5 593.5 Q 287 577 299 568 Q 326 553 341 570 Q 348 578 350 596 Q 355 649 283 668 L 243 679 L 221 682 Z" fill="black"></path>
				<path d="M 141 457 Q 131 458 129 455 Q 128 452 130 446 L 137 433 Q 137 430 140 427 Q 143 424 155 408 L 178 378 Q 199 357 210.5 348.5 Q 222 340 236.5 338.5 Q 251 337 258.5 347.5 Q 266 358 266 373 Q 266 407 249 418 Q 235 432 203 441 L 160 453 L 141 457 Z" fill="black"></path>
				<path d="M 298 257 L 254 178 Q 232 142 212 118 L 171 72 Q 151 50 136 39 Q 132 35 120 20 Q 116 10 116 3 Q 116 -4 122 -28 Q 128 -52 133.5 -65.5 Q 139 -79 143.5 -86.5 Q 148 -94 158 -94 Q 166 -96 174 -88.5 Q 182 -81 187 -64.5 Q 192 -48 210 -6 L 230 47 L 258 105 Q 274 135 288 169 L 332 278 Q 336 292 327 296 Q 318 300 312 286 L 298 257 Z" fill="black"></path>
				<path d="M 679 658 L 686 673 Q 691 692 688 715 Q 684 738 649 754 L 623 766 L 602 770 Q 592 772 587 770 Q 579 762 587 749 L 613 697 Q 633 662 650 652 C 670 639 670 639 679 658 Z" fill="red"></path>
				<path d="M 474 629 L 466 655 Q 461 672 451 669 Q 446 669 443 658 L 438 641 Q 432 614 409 578 L 398 559 Q 388 542 389 524.5 Q 390 507 396 496 Q 410 474 435 495 Q 448 508 452 521 Q 456 534 460 542.5 Q 464 551 476 594 L 474 629 Z" fill="lightgray"></path>
				<path d="M 844 691 L 832 688 Q 830 688 828 687 L 794 680 L 761 671 L 679 658 L 650 652 L 597 644 Q 544 634 523 633 L 474 629 C 444 627 446 591 476 594 L 495 596 Q 503 599 543 605 L 761 638 L 814 644 Q 843 646 846 641 Q 855 632 832 599 L 811 569 Q 807 564 809 561 Q 810 558 818 563 L 828 568 L 862 587 Q 866 590 884 598 Q 902 606 906 606 L 938 615 Q 952 619 955 626 Q 957 633 948 647 Q 939 658 912 671 L 875 687 Q 861 691 844 691 Z" fill="lightgray"></path>
				<path d="M 783 550 Q 781 562 756 567 L 726 572 Q 722 572 713 569 L 673 559 Q 656 554 631 550 L 532 530 L 511 527 L 500 526 L 488 522 Q 487 516 495 508 Q 503 500 524.5 499 Q 546 498 552 500 L 557 500 L 578 504 L 600 507 L 640 514 L 738 530 Q 757 535 760 535 Q 783 539 783 550 Z" fill="lightgray"></path>
				<path d="M 600 507 L 606 489 L 606 488 Q 607 486 608 478 L 608 442 L 604 409 Q 605 396 608 391 Q 611 386 623 374 C 644 353 647 356 648 386 L 650 436 L 652 469 Q 652 472 654 484 Q 656 495 654 500 Q 653 506 640 514 C 615 530 591 535 600 507 Z" fill="lightgray"></path>
				<path d="M 386 350 Q 382 349 383.5 344 Q 385 339 400 345 Q 417 349 439.5 362.5 Q 462 376 474 388 L 506 414 L 514 423 L 526 429 Q 529 437 520.5 444 Q 512 451 497 457 Q 489 462 480 464 Q 472 468 466 466 Q 463 464 460.5 453.5 Q 458 443 455 433 L 428 394 Q 423 387 410 374 Q 402 364 394 358 L 386 350 Z" fill="lightgray"></path>
				<path d="M 606 315 L 690 360 L 786 422 L 841 451 Q 850 453 852 455.5 Q 854 458 856 466 Q 856 484 849 491 L 831 512 Q 803 540 794 518 Q 792 511 792 509 Q 787 485 752 454 Q 744 447 717 430 L 648 386 L 623 374 L 572 344 Q 562 339 528 325 Q 472 298 434.5 286.5 Q 397 275 377 268 L 350 262 Q 344 261 342 253 Q 342 246 354 248 L 382 251 Q 446 257 504 274 L 606 315 Z" fill="lightgray"></path>
				<path d="M 504 274 L 507 250 Q 508 235 510 203 L 510 165 Q 505 87 493 59 Q 491 56 499 30 L 510 9 Q 518 -10 527 -10 Q 540 -10 546 26 L 548 56 L 552 116 L 552 136 L 552 202 L 554 223 L 556 260 Q 556 272 557 280 C 559 310 500 304 504 274 Z" fill="lightgray"></path>
				<path d="M 805 34 L 813 18 Q 825 -9 841 -6 Q 850 -4 858 8 Q 865 20 869 72 L 868 104 L 869 234 Q 869 266 879 290 L 884 305 Q 884 317 871 325 Q 867 328 843 343 Q 819 357 809 357 Q 799 356 784 351 Q 768 345 732 337 Q 696 328 682 327 L 606 315 C 454 291 482 277 557 280 L 579 281 Q 580 280 598 283 L 713 305 L 749 309 Q 758 310 779 310 Q 791 308 797 304 Q 805 296 808 285 Q 810 268 811 250 L 810 222 L 812 166 L 812 136 L 812 88 L 810 62 C 808 32 803 39 805 34 Z" fill="lightgray"></path>
				<path d="M 552 202 L 570 198 Q 588 192 605 196 L 810 222 C 840 226 840 241 811 250 L 798 254 Q 774 261 750 258 L 732 254 L 694 244 L 562 224 Q 556 224 554 223 C 524 219 523 209 552 202 Z" fill="lightgray"></path>
				<path d="M 552 116 L 563 112 Q 578 109 583 109 Q 588 109 640 116 L 812 136 C 842 139 842 161 812 166 L 784 171 Q 770 174 766 173 Q 762 171 749 170 L 732 166 L 688 157 Q 652 151 646 150 L 602 143 L 552 136 C 522 132 524 126 552 116 Z" fill="lightgray"></path>
				<path d="M 546 26 L 568 25 L 595 25 L 640 27 Q 644 28 658 28 L 676 29 L 764 35 L 786 35 Q 789 34 805 34 C 835 34 838 50 810 62 L 791 70 Q 772 74 767 76 Q 755 76 740 73 Q 725 69 679 65 L 604 58 L 548 56 C 518 55 516 27 546 26 Z" fill="lightgray"></path>
				<path d="M 568 25 L 566 13 Q 566 12 558 -4 Q 550 -20 520 -48 Q 490 -76 478 -86 L 434 -120 L 400 -143 Q 396 -146 396 -151 Q 397 -154 405 -152 L 416 -148 Q 429 -146 460 -133 Q 490 -119 499 -114 Q 507 -109 543 -86 L 612 -37 Q 616 -34 628 -28 L 642 -20 Q 657 -5 621 13 L 610 18 Q 597 24 595 25 C 570 37 570 37 568 25 Z" fill="lightgray"></path>
				<path d="M 778 -54 L 844 -131 Q 859 -146 868 -151 Q 884 -163 895 -162 Q 921 -158 919 -121 Q 916 -64 819 -23 Q 784 -8 767 -4 L 742 2 Q 734 5 729 0.5 Q 724 -4 732 -9 L 778 -54 Z" fill="lightgray"></path>
</g>
		<text x="40" y="140" font-size="128" fill="#999999">4</text></g>
		<g id="id0:id4:id4" transform="matrix(1.0,0,0,1.0,4096,0.0)">			<g stroke="lightgray" stroke-width="4" transform="scale(4, 4)"> <rect x="0" y="0" width="256" height="256" fill="white" stroke-width="4"/></g>
			<g transform="scale(0.92, -0.92) translate(60, -920)">					<path d="M 221 682 Q 212 684 208 678.5 Q 204 673 212 665 L 222 652 Q 222 650 237 635 L 256 612 Q 258 610 272.5 593.5 Q 287 577 299 568 Q 326 553 341 570 Q 348 578 350 596 Q 355 649 283 668 L 243 679 L 221 682 Z" fill="black"></path>
				<path d="M 141 457 Q 131 458 129 455 Q 128 452 130 446 L 137 433 Q 137 430 140 427 Q 143 424 155 408 L 178 378 Q 199 357 210.5 348.5 Q 222 340 236.5 338.5 Q 251 337 258.5 347.5 Q 266 358 266 373 Q 266 407 249 418 Q 235 432 203 441 L 160 453 L 141 457 Z" fill="black"></path>
				<path d="M 298 257 L 254 178 Q 232 142 212 118 L 171 72 Q 151 50 136 39 Q 132 35 120 20 Q 116 10 116 3 Q 116 -4 122 -28 Q 128 -52 133.5 -65.5 Q 139 -79 143.5 -86.5 Q 148 -94 158 -94 Q 166 -96 174 -88.5 Q 182 -81 187 -64.5 Q 192 -48 210 -6 L 230 47 L 258 105 Q 274 135 288 169 L 332 278 Q 336 292 327 296 Q 318 300 312 286 L 298 257 Z" fill="black"></path>
				<path d="M 679 658 L 686 673 Q 691 692 688 715 Q 684 738 649 754 L 623 766 L 602 770 Q 592 772 587 770 Q 579 762 587 749 L 613 697 Q 633 662 650 652 C 670 639 670 639 679 658 Z" fill="black"></path>
				<path d="M 474 629 L 466 655 Q 461 672 451 669 Q 446 669 443 658 L 438 641 Q 432 614 409 578 L 398 559 Q 388 542 389 524.5 Q 390 507 396 496 Q 410 474 435 495 Q 448 508 452 521 Q 456 534 460 542.5 Q 464 551 476 594 L 474 629 Z" fill="red"></path>
				<path d="M 844 691 L 832 688 Q 830 688 828 687 L 794 680 L 761 671 L 679 658 L 650 652 L 597 644 Q 544 634 523 633 L 474 629 C 444 627 446 591 476 594 L 495 596 Q 503 599 543 605 L 761 638 L 814 644 Q 843 646 846 641 Q 855 632 832 599 L 811 569 Q 807 564 809 561 Q 810 558 818 563 L 828 568 L 862 587 Q 866 590 884 598 Q 902 606 906 606 L 938 615 Q 952 619 955 626 Q 957 633 948 647 Q 939 658 912 671 L 875 687 Q 861 691 844 691 Z" fill="lightgray"></path>
				<path d="M 783 550 Q 781 562 756 567 L 726 572 Q 722 572 713 569 L 673 559 Q 656 554 631 550 L 532 530 L 511 527 L 500 526 L 488 522 Q 487 516 495 508 Q 503 500 524.5 499 Q 546 498 552 500 L 557 500 L 578 504 L 600 507 L 640 514 L 738 530 Q 757 535 760 535 Q 783 539 783 550 Z" fill="lightgray"></path>
				<path d="M 600 507 L 606 489 L 606 488 Q 607 486 608 478 L 608 442 L 604 409 Q 605 396 608 391 Q 611 386 623 374 C 644 353 647 356 648 386 L 650 436 L 652 469 Q 652 472 654 484 Q 656 495 654 500 Q 653 506 640 514 C 615 530 591 535 600 507 Z" fill="lightgray"></path>
				<path d="M 386 350 Q 382 349 383.5 344 Q 385 339 400 345 Q 417 349 439.5 362.5 Q 462 376 474 388 L 506 414 L 514 423 L 526 429 Q 529 437 520.5 444 Q 512 451 497 457 Q 489 462 480 464 Q 472 468 466 466 Q 463 464 460.5 453.5 Q 458 443 455 433 L 428 394 Q 423 387 410 374 Q 402 364 394 358 L 386 350 Z" fill="lightgray"></path>
				<path d="M 606 315 L 690 360 L 786 422 L 841 451 Q 850 453 852 455.5 Q 854 458 856 466 Q 856 484 849 491 L 831 512 Q 803 540 794 518 Q 792 511 792 509 Q 787 485 752 454 Q 744 447 717 430 L 648 386 L 623 374 L 572 344 Q 562 339 528 325 Q 472 298 434.5 286.5 Q 397 275 377 268 L 350 262 Q 344 261 342 253 Q 342 246 354 248 L 382 251 Q 446 257 504 274 L 606 315 Z" fill="lightgray"></path>
				<path d="M 504 274 L 507 250 Q 508 235 510 203 L 510 165 Q 505 87 493 59 Q 491 56 499 30 L 510 9 Q 518 -10 527 -10 Q 540 -10 546 26 L 548 56 L 552 116 L 552 136 L 552 202 L 554 223 L 556 260 Q 556 272 557 280 C 559 310 500 304 504 274 Z" fill="lightgray"></path>
				<path d="M 805 34 L 813 18 Q 825 -9 841 -6 Q 850 -4 858 8 Q 865 20 869 72 L 868 104 L 869 234 Q 869 266 879 290 L 884 305 Q 884 317 871 325 Q 867 328 843 343 Q 819 357 809 357 Q 799 356 784 351 Q 768 345 732 337 Q 696 328 682 327 L 606 315 C 454 291 482 277 557 280 L 579 281 Q 580 280 598 283 L 713 305 L 749 309 Q 758 310 779 310 Q 791 308 797 304 Q 805 296 808 285 Q 810 268 811 250 L 810 222 L 812 166 L 812 136 L 812 88 L 810 62 C 808 32 803 39 805 34 Z" fill="lightgray"></path>
				<path d="M 552 202 L 570 198 Q 588 192 605 196 L 810 222 C 840 226 840 241 811 250 L 798 254 Q 774 261 750 258 L 732 254 L 694 244 L 562 224 Q 556 224 554 223 C 524 219 523 209 552 202 Z" fill="lightgray"></path>
				<path d="M 552 116 L 563 112 Q 578 109 583 109 Q 588 109 640 116 L 812 136 C 842 139 842 161 812 166 L 784 171 Q 770 174 766 173 Q 762 171 749 170 L 732 166 L 688 157 Q 652 151 646 150 L 602 143 L 552 136 C 522 132 524 126 552 116 Z" fill="lightgray"></path>
				<path d="M 546 26 L 568 25 L 595 25 L 640 27 Q 644 28 658 28 L 676 29 L 764 35 L 786 35 Q 789 34 805 34 C 835 34 838 50 810 62 L 791 70 Q 772 74 767 76 Q 755 76 740 73 Q 725 69 679 65 L 604 58 L 548 56 C 518 55 516 27 546 26 Z" fill="lightgray"></path>
				<path d="M 568 25 L 566 13 Q 566 12 558 -4 Q 550 -20 520 -48 Q 490 -76 478 -86 L 434 -120 L 400 -143 Q 396 -146 396 -151 Q 397 -154 405 -152 L 416 -148 Q 429 -146 460 -133 Q 490 -119 499 -114 Q 507 -109 543 -86 L 612 -37 Q 616 -34 628 -28 L 642 -20 Q 657 -5 621 13 L 610 18 Q 597 24 595 25 C 570 37 570 37 568 25 Z" fill="lightgray"></path>
				<path d="M 778 -54 L 844 -131 Q 859 -146 868 -151 Q 884 -163 895 -162 Q 921 -158 919 -121 Q 916 -64 819 -23 Q 784 -8 767 -4 L 742 2 Q 734 5 729 0.5 Q 724 -4 732 -9 L 778 -54 Z" fill="lightgray"></path>
</g>
		<text x="40" y="140" font-size="128" fill="#999999">5</text></g>
</g>
	<g id="id1:id1" transform="translate(0.0,1024)">
		<g id="id1:id0:id0" transform="matrix(1.0,0,0,1.0,0,0.0)">			<g stroke="lightgray" stroke-width="4" transform="scale(4, 4)"> <rect x="0" y="0" width="256" height="256" fill="white" stroke-width="4"/></g>
			<g transform="scale(0.92, -0.92) translate(60, -920)">					<path d="M 221 682 Q 212 684 208 678.5 Q 204 673 212 665 L 222 652 Q 222 650 237 635 L 256 612 Q 258 610 272.5 593.5 Q 287 577 299 568 Q 326 553 341 570 Q 348 578 350 596 Q 355 649 283 668 L 243 679 L 221 682 Z" fill="black"></path>
				<path d="M 141 457 Q 131 458 129 455 Q 128 452 130 446 L 137 433 Q 137 430 140 427 Q 143 424 155 408 L 178 378 Q 199 357 210.5 348.5 Q 222 340 236.5 338.5 Q 251 337 258.5 347.5 Q 266 358 266 373 Q 266 407 249 418 Q 235 432 203 441 L 160 453 L 141 457 Z" fill="black"></path>
				<path d="M 298 257 L 254 178 Q 232 142 212 118 L 171 72 Q 151 50 136 39 Q 132 35 120 20 Q 116 10 116 3 Q 116 -4 122 -28 Q 128 -52 133.5 -65.5 Q 139 -79 143.5 -86.5 Q 148 -94 158 -94 Q 166 -96 174 -88.5 Q 182 -81 187 -64.5 Q 192 -48 210 -6 L 230 47 L 258 105 Q 274 135 288 169 L 332 278 Q 336 292 327 296 Q 318 300 312 286 L 298 257 Z" fill="black"></path>
				<path d="M 679 658 L 686 673 Q 691 692 688 715 Q 684 738 649 754 L 623 766 L 602 770 Q 592 772 587 770 Q 579 762 587 749 L 613 697 Q 633 662 650 652 C 670 639 670 639 679 658 Z" fill="black"></path>
				<path d="M 474 629 L 466 655 Q 461 672 451 669 Q 446 669 443 658 L 438 641 Q 432 614 409 578 L 398 559 Q 388 542 389 524.5 Q 390 507 396 496 Q 410 474 435 495 Q 448 508 452 521 Q 456 534 460 542.5 Q 464 551 476 594 L 474 629 Z" fill="black"></path>
				<path d="M 844 691 L 832 688 Q 830 688 828 687 L 794 680 L 761 671 L 679 658 L 650 652 L 597 644 Q 544 634 523 633 L 474 629 C 444 627 446 591 476 594 L 495 596 Q 503 599 543 605 L 761 638 L 814 644 Q 843 646 846 641 Q 855 632 832 599 L 811 569 Q 807 564 809 561 Q 810 558 818 563 L 828 568 L 862 587 Q 866 590 884 598 Q 902 606 906 606 L 938 615 Q 952 619 955 626 Q 957 633 948 647 Q 939 658 912 671 L 875 687 Q 861 691 844 691 Z" fill="red"></path>
				<path d="M 783 550 Q 781 562 756 567 L 726 572 Q 722 572 713 569 L 673 559 Q 656 554 631 550 L 532 530 L 511 527 L 500 526 L 488 522 Q 487 516 495 508 Q 503 500 524.5 499 Q 546 498 552 500 L 557 500 L 578 504 L 600 507 L 640 514 L 738 530 Q 757 535 760 535 Q 783 539 783 550 Z" fill="lightgray"></path>
				<path d="M 600 507 L 606 489 L 606 488 Q 607 486 608 478 L 608 442 L 604 409 Q 605 396 608 391 Q 611 386 623 374 C 644 353 647 356 648 386 L 650 436 L 652 469 Q 652 472 654 484 Q 656 495 654 500 Q 653 506 640 514 C 615 530 591 535 600 507 Z" fill="lightgray"></path>
				<path d="M 386 350 Q 382 349 383.5 344 Q 385 339 400 345 Q 417 349 439.5 362.5 Q 462 376 474 388 L 506 414 L 514 423 L 526 429 Q 529 437 520.5 444 Q 512 451 497 457 Q 489 462 480 464 Q 472 468 466 466 Q 463 464 460.5 453.5 Q 458 443 455 433 L 428 394 Q 423 387 410 374 Q 402 364 394 358 L 386 350 Z" fill="lightgray"></path>
				<path d="M 606 315 L 690 360 L 786 422 L 841 451 Q 850 453 852 455.5 Q 854 458 856 466 Q 856 484 849 491 L 831 512 Q 803 540 794 518 Q 792 511 792 509 Q 787 485 752 454 Q 744 447 717 430 L 648 386 L 623 374 L 572 344 Q 562 339 528 325 Q 472 298 434.5 286.5 Q 397 275 377 268 L 350 262 Q 344 261 342 253 Q 342 246 354 248 L 382 251 Q 446 257 504 274 L 606 315 Z" fill="lightgray"></path>
				<path d="M 504 274 L 507 250 Q 508 235 510 203 L 510 165 Q 505 87 493 59 Q 491 56 499 30 L 510 9 Q 518 -10 527 -10 Q 540 -10 546 26 L 548 56 L 552 116 L 552 136 L 552 202 L 554 223 L 556 260 Q 556 272 557 280 C 559 310 500 304 504 274 Z" fill="lightgray"></path>
				<path d="M 805 34 L 813 18 Q 825 -9 841 -6 Q 850 -4 858 8 Q 865 20 869 72 L 868 104 L 869 234 Q 869 266 879 290 L 884 305 Q 884 317 871 325 Q 867 328 843 343 Q 819 357 809 357 Q 799 356 784 351 Q 768 345 732 337 Q 696 328 682 327 L 606 315 C 454 291 482 277 557 280 L 579 281 Q 580 280 598 283 L 713 305 L 749 309 Q 758 310 779 310 Q 791 308 797 304 Q 805 296 808 285 Q 810 268 811 250 L 810 222 L 812 166 L 812 136 L 812 88 L 810 62 C 808 32 803 39 805 34 Z" fill="lightgray"></path>
				<path d="M 552 202 L 570 198 Q 588 192 605 196 L 810 222 C 840 226 840 241 811 250 L 798 254 Q 774 261 750 258 L 732 254 L 694 244 L 562 224 Q 556 224 554 223 C 524 219 523 209 552 202 Z" fill="lightgray"></path>
				<path d="M 552 116 L 563 112 Q 578 109 583 109 Q 588 109 640 116 L 812 136 C 842 139 842 161 812 166 L 784 171 Q 770 174 766 173 Q 762 171 749 170 L 732 166 L 688 157 Q 652 151 646 150 L 602 143 L 552 136 C 522 132 524 126 552 116 Z" fill="lightgray"></path>
				<path d="M 546 26 L 568 25 L 595 25 L 640 27 Q 644 28 658 28 L 676 29 L 764 35 L 786 35 Q 789 34 805 34 C 835 34 838 50 810 62 L 791 70 Q 772 74 767 76 Q 755 76 740 73 Q 725 69 679 65 L 604 58 L 548 56 C 518 55 516 27 546 26 Z" fill="lightgray"></path>
				<path d="M 568 25 L 566 13 Q 566 12 558 -4 Q 550 -20 520 -48 Q 490 -76 478 -86 L 434 -120 L 400 -143 Q 396 -146 396 -151 Q 397 -154 405 -152 L 416 -148 Q 429 -146 460 -133 Q 490 -119 499 -114 Q 507 -109 543 -86 L 612 -37 Q 616 -34 628 -28 L 642 -20 Q 657 -5 621 13 L 610 18 Q 597 24 595 25 C 570 37 570 37 568 25 Z" fill="lightgray"></path>
				<path d="M 778 -54 L 844 -131 Q 859 -146 868 -151 Q 884 -163 895 -162 Q 921 -158 919 -121 Q 916 -64 819 -23 Q 784 -8 767 -4 L 742 2 Q 734 5 729 0.5 Q 724 -4 732 -9 L 778 -54 Z" fill="lightgray"></path>
</g>
		<text x="40" y="140" font-size="128" fill="#999999">6</text></g>
		<g id="id1:id1:id1" transform="matrix(1.0,0,0,1.0,1024,0.0)">			<g stroke="lightgray" stroke-width="4" transform="scale(4, 4)"> <rect x="0" y="0" width="256" height="256" fill="white" stroke-width="4"/></g>
			<g transform="scale(0.92, -0.92) translate(60, -920)">					<path d="M 221 682 Q 212 684 208 678.5 Q 204 673 212 665 L 222 652 Q 222 650 237 635 L 256 612 Q 258 610 272.5 593.5 Q 287 577 299 568 Q 326 553 341 570 Q 348 578 350 596 Q 355 649 283 668 L 243 679 L 221 682 Z" fill="black"></path>
				<path d="M 141 457 Q 131 458 129 455 Q 128 452 130 446 L 137 433 Q 137 430 140 427 Q 143 424 155 408 L 178 378 Q 199 357 210.5 348.5 Q 222 340 236.5 338.5 Q 251 337 258.5 347.5 Q 266 358 266 373 Q 266 407 249 418 Q 235 432 203 441 L 160 453 L 141 457 Z" fill="black"></path>
				<path d="M 298 257 L 254 178 Q 232 142 212 118 L 171 72 Q 151 50 136 39 Q 132 35 120 20 Q 116 10 116 3 Q 116 -4 122 -28 Q 128 -52 133.5 -65.5 Q 139 -79 143.5 -86.5 Q 148 -94 158 -94 Q 166 -96 174 -88.5 Q 182 -81 187 -64.5 Q 192 -48 210 -6 L 230 47 L 258 105 Q 274 135 288 169 L 332 278 Q 336 292 327 296 Q 318 300 312 286 L 298 257 Z" fill="black"></path>
				<path d="M 679 658 L 686 673 Q 691 692 688 715 Q 684 738 649 754 L 623 766 L 602 770 Q 592 772 587 770 Q 579 762 587 749 L 613 697 Q 633 662 650 652 C 670 639 670 639 679 658 Z" fill="black"></path>
				<path d="M 474 629 L 466 655 Q 461 672 451 669 Q 446 669 443 658 L 438 641 Q 432 614 409 578 L 398 559 Q 388 542 389 524.5 Q 390 507 396 496 Q 410 474 435 495 Q 448 508 452 521 Q 456 534 460 542.5 Q 464 551 476 594 L 474 629 Z" fill="black"></path>
				<path d="M 844 691 L 832 688 Q 830 688 828 687 L 794 680 L 761 671 L 679 658 L 650 652 L 597 644 Q 544 634 523 633 L 474 629 C 444 627 446 591 476 594 L 495 596 Q 503 599 543 605 L 761 638 L 814 644 Q 843 646 846 641 Q 855 632 832 599 L 811 569 Q 807 564 809 561 Q 810 558 818 563 L 828 568 L 862 587 Q 866 590 884 598 Q 902 606 906 606 L 938 615 Q 952 619 955 626 Q 957 633 948 647 Q 939 658 912 671 L 875 687 Q 861 691 844 691 Z" fill="black"></path>
				<path d="M 783 550 Q 781 562 756 567 L 726 572 Q 722 572 713 569 L 673 559 Q 656 554 631 550 L 532 530 L 511 527 L 500 526 L 488 522 Q 487 516 495 508 Q 503 500 524.5 499 Q 546 498 552 500 L 557 500 L 578 504 L 600 507 L 640 514 L 738 530 Q 757 535 760 535 Q 783 539 783 550 Z" fill="red"></path>
				<path d="M 600 507 L 606 489 L 606 488 Q 607 486 608 478 L 608 442 L 604 409 Q 605 396 608 391 Q 611 386 623 374 C 644 353 647 356 648 386 L 650 436 L 652 469 Q 652 472 654 484 Q 656 495 654 500 Q 653 506 640 514 C 615 530 591 535 600 507 Z" fill="lightgray"></path>
				<path d="M 386 350 Q 382 349 383.5 344 Q 385 339 400 345 Q 417 349 439.5 362.5 Q 462 376 474 388 L 506 414 L 514 423 L 526 429 Q 529 437 520.5 444 Q 512 451 497 457 Q 489 462 480 464 Q 472 468 466 466 Q 463 464 460.5 453.5 Q 458 443 455 433 L 428 394 Q 423 387 410 374 Q 402 364 394 358 L 386 350 Z" fill="lightgray"></path>
				<path d="M 606 315 L 690 360 L 786 422 L 841 451 Q 850 453 852 455.5 Q 854 458 856 466 Q 856 484 849 491 L 831 512 Q 803 540 794 518 Q 792 511 792 509 Q 787 485 752 454 Q 744 447 717 430 L 648 386 L 623 374 L 572 344 Q 562 339 528 325 Q 472 298 434.5 286.5 Q 397 275 377 268 L 350 262 Q 344 261 342 253 Q 342 246 354 248 L 382 251 Q 446 257 504 274 L 606 315 Z" fill="lightgray"></path>
				<path d="M 504 274 L 507 250 Q 508 235 510 203 L 510 165 Q 505 87 493 59 Q 491 56 499 30 L 510 9 Q 518 -10 527 -10 Q 540 -10 546 26 L 548 56 L 552 116 L 552 136 L 552 202 L 554 223 L 556 260 Q 556 272 557 280 C 559 310 500 304 504 274 Z" fill="lightgray"></path>
				<path d="M 805 34 L 813 18 Q 825 -9 841 -6 Q 850 -4 858 8 Q 865 20 869 72 L 868 104 L 869 234 Q 869 266 879 290 L 884 305 Q 884 317 871 325 Q 867 328 843 343 Q 819 357 809 357 Q 799 356 784 351 Q 768 345 732 337 Q 696 328 682 327 L 606 315 C 454 291 482 277 557 280 L 579 281 Q 580 280 598 283 L 713 305 L 749 309 Q 758 310 779 310 Q 791 308 797 304 Q 805 296 808 285 Q 810 268 811 250 L 810 222 L 812 166 L 812 136 L 812 88 L 810 62 C 808 32 803 39 805 34 Z" fill="lightgray"></path>
				<path d="M 552 202 L 570 198 Q 588 192 605 196 L 810 222 C 840 226 840 241 811 250 L 798 254 Q 774 261 750 258 L 732 254 L 694 244 L 562 224 Q 556 224 554 223 C 524 219 523 209 552 202 Z" fill="lightgray"></path>
				<path d="M 552 116 L 563 112 Q 578 109 583 109 Q 588 109 640 116 L 812 136 C 842 139 842 161 812 166 L 784 171 Q 770 174 766 173 Q 762 171 749 170 L 732 166 L 688 157 Q 652 151 646 150 L 602 143 L 552 136 C 522 132 524 126 552 116 Z" fill="lightgray"></path>
				<path d="M 546 26 L 568 25 L 595 25 L 640 27 Q 644 28 658 28 L 676 29 L 764 35 L 786 35 Q 789 34 805 34 C 835 34 838 50 810 62 L 791 70 Q 772 74 767 76 Q 755 76 740 73 Q 725 69 679 65 L 604 58 L 548 56 C 518 55 516 27 546 26 Z" fill="lightgray"></path>
				<path d="M 568 25 L 566 13 Q 566 12 558 -4 Q 550 -20 520 -48 Q 490 -76 478 -86 L 434 -120 L 400 -143 Q 396 -146 396 -151 Q 397 -154 405 -152 L 416 -148 Q 429 -146 460 -133 Q 490 -119 499 -114 Q 507 -109 543 -86 L 612 -37 Q 616 -34 628 -28 L 642 -20 Q 657 -5 621 13 L 610 18 Q 597 24 595 25 C 570 37 570 37 568 25 Z" fill="lightgray"></path>
				<path d="M 778 -54 L 844 -131 Q 859 -146 868 -151 Q 884 -163 895 -162 Q 921 -158 919 -121 Q 916 -64 819 -23 Q 784 -8 767 -4 L 742 2 Q 734 5 729 0.5 Q 724 -4 732 -9 L 778 -54 Z" fill="lightgray"></path>
</g>
		<text x="40" y="140" font-size="128" fill="#999999">7</text></g>
		<g id="id1:id2:id2" transform="matrix(1.0,0,0,1.0,2048,0.0)">			<g stroke="lightgray" stroke-width="4" transform="scale(4, 4)"> <rect x="0" y="0" width="256" height="256" fill="white" stroke-width="4"/></g>
			<g transform="scale(0.92, -0.92) translate(60, -920)">					<path d="M 221 682 Q 212 684 208 678.5 Q 204 673 212 665 L 222 652 Q 222 650 237 635 L 256 612 Q 258 610 272.5 593.5 Q 287 577 299 568 Q 326 553 341 570 Q 348 578 350 596 Q 355 649 283 668 L 243 679 L 221 682 Z" fill="black"></path>
				<path d="M 141 457 Q 131 458 129 455 Q 128 452 130 446 L 137 433 Q 137 430 140 427 Q 143 424 155 408 L 178 378 Q 199 357 210.5 348.5 Q 222 340 236.5 338.5 Q 251 337 258.5 347.5 Q 266 358 266 373 Q 266 407 249 418 Q 235 432 203 441 L 160 453 L 141 457 Z" fill="black"></path>
				<path d="M 298 257 L 254 178 Q 232 142 212 118 L 171 72 Q 151 50 136 39 Q 132 35 120 20 Q 116 10 116 3 Q 116 -4 122 -28 Q 128 -52 133.5 -65.5 Q 139 -79 143.5 -86.5 Q 148 -94 158 -94 Q 166 -96 174 -88.5 Q 182 -81 187 -64.5 Q 192 -48 210 -6 L 230 47 L 258 105 Q 274 135 288 169 L 332 278 Q 336 292 327 296 Q 318 300 312 286 L 298 257 Z" fill="black"></path>
				<path d="M 679 658 L 686 673 Q 691 692 688 715 Q 684 738 649 754 L 623 766 L 602 770 Q 592 772 587 770 Q 579 762 587 749 L 613 697 Q 633 662 650 652 C 670 639 670 639 679 658 Z" fill="black"></path>
				<path d="M 474 629 L 466 655 Q 461 672 451 669 Q 446 669 443 658 L 438 641 Q 432 614 409 578 L 398 559 Q 388 542 389 524.5 Q 390 507 396 496 Q 410 474 435 495 Q 448 508 452 521 Q 456 534 460 542.5 Q 464 551 476 594 L 474 629 Z" fill="black"></path>
				<path d="M 844 691 L 832 688 Q 830 688 828 687 L 794 680 L 761 671 L 679 658 L 650 652 L 597 644 Q 544 634 523 633 L 474 629 C 444 627 446 591 476 594 L 495 596 Q 503 599 543 605 L 761 638 L 814 644 Q 843 646 846 641 Q 855 632 832 599 L 811 569 Q 807 564 809 561 Q 810 558 818 563 L 828 568 L 862 587 Q 866 590 884 598 Q 902 606 906 606 L 938 615 Q 952 619 955 626 Q 957 633 948 647 Q 939 658 912 671 L 875 687 Q 861 691 844 691 Z" fill="black"></path>
				<path d="M 783 550 Q 781 562 756 567 L 726 572 Q 722 572 713 569 L 673 559 Q 656 554 631 550 L 532 530 L 511 527 L 500 526 L 488 522 Q 487 516 495 508 Q 503 500 524.5 499 Q 546 498 552 500 L 557 500 L 578 504 L 600 507 L 640 514 L 738 530 Q 757 535 760 535 Q 783 539 783 550 Z" fill="black"></path>
				<path d="M 600 507 L 606 489 L 606 488 Q 607 486 608 478 L 608 442 L 604 409 Q 605 396 608 391 Q 611 386 623 374 C 644 353 647 356 648 386 L 650 436 L 652 469 Q 652 472 654 484 Q 656 495 654 500 Q 653 506 640 514 C 615 530 591 535 600 507 Z" fill="red"></path>
				<path d="M 386 350 Q 382 349 383.5 344 Q 385 339 400 345 Q 417 349 439.5 362.5 Q 462 376 474 388 L 506 414 L 514 423 L 526 429 Q 529 437 520.5 444 Q 512 451 497 457 Q 489 462 480 464 Q 472 468 466 466 Q 463 464 460.5 453.5 Q 458 443 455 433 L 428 394 Q 423 387 410 374 Q 402 364 394 358 L 386 350 Z" fill="lightgray"></path>
				<path d="M 606 315 L 690 360 L 786 422 L 841 451 Q 850 453 852 455.5 Q 854 458 856 466 Q 856 484 849 491 L 831 512 Q 803 540 794 518 Q 792 511 792 509 Q 787 485 752 454 Q 744 447 717 430 L 648 386 L 623 374 L 572 344 Q 562 339 528 325 Q 472 298 434.5 286.5 Q 397 275 377 268 L 350 262 Q 344 261 342 253 Q 342 246 354 248 L 382 251 Q 446 257 504 274 L 606 315 Z" fill="lightgray"></path>
				<path d="M 504 274 L 507 250 Q 508 235 510 203 L 510 165 Q 505 87 493 59 Q 491 56 499 30 L 510 9 Q 518 -10 527 -10 Q 540 -10 546 26 L 548 56 L 552 116 L 552 136 L 552 202 L 554 223 L 556 260 Q 556 272 557 280 C 559 310 500 304 504 274 Z" fill="lightgray"></path>
				<path d="M 805 34 L 813 18 Q 825 -9 841 -6 Q 850 -4 858 8 Q 865 20 869 72 L 868 104 L 869 234 Q 869 266 879 290 L 884 305 Q 884 317 871 325 Q 867 328 843 343 Q 819 357 809 357 Q 799 356 784 351 Q 768 345 732 337 Q 696 328 682 327 L 606 315 C 454 291 482 277 557 280 L 579 281 Q 580 280 598 283 L 713 305 L 749 309 Q 758 310 779 310 Q 791 308 797 304 Q 805 296 808 285 Q 810 268 811 250 L 810 222 L 812 166 L 812 136 L 812 88 L 810 62 C 808 32 803 39 805 34 Z" fill="lightgray"></path>
				<path d="M 552 202 L 570 198 Q 588 192 605 196 L 810 222 C 840 226 840 241 811 250 L 798 254 Q 774 261 750 258 L 732 254 L 694 244 L 562 224 Q 556 224 554 223 C 524 219 523 209 552 202 Z" fill="lightgray"></path>
				<path d="M 552 116 L 563 112 Q 578 109 583 109 Q 588 109 640 116 L 812 136 C 842 139 842 161 812 166 L 784 171 Q 770 174 766 173 Q 762 171 749 170 L 732 166 L 688 157 Q 652 151 646 150 L 602 143 L 552 136 C 522 132 524 126 552 116 Z" fill="lightgray"></path>
				<path d="M 546 26 L 568 25 L 595 25 L 640 27 Q 644 28 658 28 L 676 29 L 764 35 L 786 35 Q 789 34 805 34 C 835 34 838 50 810 62 L 791 70 Q 772 74 767 76 Q 755 76 740 73 Q 725 69 679 65 L 604 58 L 548 56 C 518 55 516 27 546 26 Z" fill="lightgray"></path>
				<path d="M 568 25 L 566 13 Q 566 12 558 -4 Q 550 -20 520 -48 Q 490 -76 478 -86 L 434 -120 L 400 -143 Q 396 -146 396 -151 Q 397 -154 405 -152 L 416 -148 Q 429 -146 460 -133 Q 490 -119 499 -114 Q 507 -109 543 -86 L 612 -37 Q 616 -34 628 -28 L 642 -20 Q 657 -5 621 13 L 610 18 Q 597 24 595 25 C 570 37 570 37 568 25 Z" fill="lightgray"></path>
				<path d="M 778 -54 L 844 -131 Q 859 -146 868 -151 Q 884 -163 895 -162 Q 921 -158 919 -121 Q 916 -64 819 -23 Q 784 -8 767 -4 L 742 2 Q 734 5 729 0.5 Q 724 -4 732 -9 L 778 -54 Z" fill="lightgray"></path>
</g>
		<text x="40" y="140" font-size="128" fill="#999999">8</text></g>
		<g id="id1:id3:id3" transform="matrix(1.0,0,0,1.0,3072,0.0)">			<g stroke="lightgray" stroke-width="4" transform="scale(4, 4)"> <rect x="0" y="0" width="256" height="256" fill="white" stroke-width="4"/></g>
			<g transform="scale(0.92, -0.92) translate(60, -920)">					<path d="M 221 682 Q 212 684 208 678.5 Q 204 673 212 665 L 222 652 Q 222 650 237 635 L 256 612 Q 258 610 272.5 593.5 Q 287 577 299 568 Q 326 553 341 570 Q 348 578 350 596 Q 355 649 283 668 L 243 679 L 221 682 Z" fill="black"></path>
				<path d="M 141 457 Q 131 458 129 455 Q 128 452 130 446 L 137 433 Q 137 430 140 427 Q 143 424 155 408 L 178 378 Q 199 357 210.5 348.5 Q 222 340 236.5 338.5 Q 251 337 258.5 347.5 Q 266 358 266 373 Q 266 407 249 418 Q 235 432 203 441 L 160 453 L 141 457 Z" fill="black"></path>
				<path d="M 298 257 L 254 178 Q 232 142 212 118 L 171 72 Q 151 50 136 39 Q 132 35 120 20 Q 116 10 116 3 Q 116 -4 122 -28 Q 128 -52 133.5 -65.5 Q 139 -79 143.5 -86.5 Q 148 -94 158 -94 Q 166 -96 174 -88.5 Q 182 -81 187 -64.5 Q 192 -48 210 -6 L 230 47 L 258 105 Q 274 135 288 169 L 332 278 Q 336 292 327 296 Q 318 300 312 286 L 298 257 Z" fill="black"></path>
				<path d="M 679 658 L 686 673 Q 691 692 688 715 Q 684 738 649 754 L 623 766 L 602 770 Q 592 772 587 770 Q 579 762 587 749 L 613 697 Q 633 662 650 652 C 670 639 670 639 679 658 Z" fill="black"></path>
				<path d="M 474 629 L 466 655 Q 461 672 451 669 Q 446 669 443 658 L 438 641 Q 432 614 409 578 L 398 559 Q 388 542 389 524.5 Q 390 507 396 496 Q 410 474 435 495 Q 448 508 452 521 Q 456 534 460 542.5 Q 464 551 476 594 L 474 629 Z" fill="black"></path>
				<path d="M 844 691 L 832 688 Q 830 688 828 687 L 794 680 L 761 671 L 679 658 L 650 652 L 597 644 Q 544 634 523 633 L 474 629 C 444 627 446 591 476 594 L 495 596 Q 503 599 543 605 L 761 638 L 814 644 Q 843 646 846 641 Q 855 632 832 599 L 811 569 Q 807 564 809 561 Q 810 558 818 563 L 828 568 L 862 587 Q 866 590 884 598 Q 902 606 906 606 L 938 615 Q 952 619 955 626 Q 957 633 948 647 Q 939 658 912 671 L 875 687 Q 861 691 844 691 Z" fill="black"></path>
				<path d="M 783 550 Q 781 562 756 567 L 726 572 Q 722 572 713 569 L 673 559 Q 656 554 631 550 L 532 530 L 511 527 L 500 526 L 488 522 Q 487 516 495 508 Q 503 500 524.5 499 Q 546 498 552 500 L 557 500 L 578 504 L 600 507 L 640 514 L 738 530 Q 757 535 760 535 Q 783 539 783 550 Z" fill="black"></path>
				<path d="M 600 507 L 606 489 L 606 488 Q 607 486 608 478 L 608 442 L 604 409 Q 605 396 608 391 Q 611 386 623 374 C 644 353 647 356 648 386 L 650 436 L 652 469 Q 652 472 654 484 Q 656 495 654 500 Q 653 506 640 514 C 615 530 591 535 600 507 Z" fill="black"></path>
				<path d="M 386 350 Q 382 349 383.5 344 Q 385 339 400 345 Q 417 349 439.5 362.5 Q 462 376 474 388 L 506 414 L 514 423 L 526 429 Q 529 437 520.5 444 Q 512 451 497 457 Q 489 462 480 464 Q 472 468 466 466 Q 463 464 460.5 453.5 Q 458 443 455 433 L 428 394 Q 423 387 410 374 Q 402 364 394 358 L 386 350 Z" fill="red"></path>
				<path d="M 606 315 L 690 360 L 786 422 L 841 451 Q 850 453 852 455.5 Q 854 458 856 466 Q 856 484 849 491 L 831 512 Q 803 540 794 518 Q 792 511 792 509 Q 787 485 752 454 Q 744 447 717 430 L 648 386 L 623 374 L 572 344 Q 562 339 528 325 Q 472 298 434.5 286.5 Q 397 275 377 268 L 350 262 Q 344 261 342 253 Q 342 246 354 248 L 382 251 Q 446 257 504 274 L 606 315 Z" fill="lightgray"></path>
				<path d="M 504 274 L 507 250 Q 508 235 510 203 L 510 165 Q 505 87 493 59 Q 491 56 499 30 L 510 9 Q 518 -10 527 -10 Q 540 -10 546 26 L 548 56 L 552 116 L 552 136 L 552 202 L 554 223 L 556 260 Q 556 272 557 280 C 559 310 500 304 504 274 Z" fill="lightgray"></path>
				<path d="M 805 34 L 813 18 Q 825 -9 841 -6 Q 850 -4 858 8 Q 865 20 869 72 L 868 104 L 869 234 Q 869 266 879 290 L 884 305 Q 884 317 871 325 Q 867 328 843 343 Q 819 357 809 357 Q 799 356 784 351 Q 768 345 732 337 Q 696 328 682 327 L 606 315 C 454 291 482 277 557 280 L 579 281 Q 580 280 598 283 L 713 305 L 749 309 Q 758 310 779 310 Q 791 308 797 304 Q 805 296 808 285 Q 810 268 811 250 L 810 222 L 812 166 L 812 136 L 812 88 L 810 62 C 808 32 803 39 805 34 Z" fill="lightgray"></path>
				<path d="M 552 202 L 570 198 Q 588 192 605 196 L 810 222 C 840 226 840 241 811 250 L 798 254 Q 774 261 750 258 L 732 254 L 694 244 L 562 224 Q 556 224 554 223 C 524 219 523 209 552 202 Z" fill="lightgray"></path>
				<path d="M 552 116 L 563 112 Q 578 109 583 109 Q 588 109 640 116 L 812 136 C 842 139 842 161 812 166 L 784 171 Q 770 174 766 173 Q 762 171 749 170 L 732 166 L 688 157 Q 652 151 646 150 L 602 143 L 552 136 C 522 132 524 126 552 116 Z" fill="lightgray"></path>
				<path d="M 546 26 L 568 25 L 595 25 L 640 27 Q 644 28 658 28 L 676 29 L 764 35 L 786 35 Q 789 34 805 34 C 835 34 838 50 810 62 L 791 70 Q 772 74 767 76 Q 755 76 740 73 Q 725 69 679 65 L 604 58 L 548 56 C 518 55 516 27 546 26 Z" fill="lightgray"></path>
				<path d="M 568 25 L 566 13 Q 566 12 558 -4 Q 550 -20 520 -48 Q 490 -76 478 -86 L 434 -120 L 400 -143 Q 396 -146 396 -151 Q 397 -154 405 -152 L 416 -148 Q 429 -146 460 -133 Q 490 -119 499 -114 Q 507 -109 543 -86 L 612 -37 Q 616 -34 628 -28 L 642 -20 Q 657 -5 621 13 L 610 18 Q 597 24 595 25 C 570 37 570 37 568 25 Z" fill="lightgray"></path>
				<path d="M 778 -54 L 844 -131 Q 859 -146 868 -151 Q 884 -163 895 -162 Q 921 -158 919 -121 Q 916 -64 819 -23 Q 784 -8 767 -4 L 742 2 Q 734 5 729 0.5 Q 724 -4 732 -9 L 778 -54 Z" fill="lightgray"></path>
</g>
		<text x="40" y="140" font-size="128" fill="#999999">9</text></g>
		<g id="id1:id4:id4" transform="matrix(1.0,0,0,1.0,4096,0.0)">			<g stroke="lightgray" stroke-width="4" transform="scale(4, 4)"> <rect x="0" y="0" width="256" height="256" fill="white" stroke-width="4"/></g>
			<g transform="scale(0.92, -0.92) translate(60, -920)">					<path d="M 221 682 Q 212 684 208 678.5 Q 204 673 212 665 L 222 652 Q 222 650 237 635 L 256 612 Q 258 610 272.5 593.5 Q 287 577 299 568 Q 326 553 341 570 Q 348 578 350 596 Q 355 649 283 668 L 243 679 L 221 682 Z" fill="black"></path>
				<path d="M 141 457 Q 131 458 129 455 Q 128 452 130 446 L 137 433 Q 137 430 140 427 Q 143 424 155 408 L 178 378 Q 199 357 210.5 348.5 Q 222 340 236.5 338.5 Q 251 337 258.5 347.5 Q 266 358 266 373 Q 266 407 249 418 Q 235 432 203 441 L 160 453 L 141 457 Z" fill="black"></path>
				<path d="M 298 257 L 254 178 Q 232 142 212 118 L 171 72 Q 151 50 136 39 Q 132 35 120 20 Q 116 10 116 3 Q 116 -4 122 -28 Q 128 -52 133.5 -65.5 Q 139 -79 143.5 -86.5 Q 148 -94 158 -94 Q 166 -96 174 -88.5 Q 182 -81 187 -64.5 Q 192 -48 210 -6 L 230 47 L 258 105 Q 274 135 288 169 L 332 278 Q 336 292 327 296 Q 318 300 312 286 L 298 257 Z" fill="black"></path>
				<path d="M 679 658 L 686 673 Q 691 692 688 715 Q 684 738 649 754 L 623 766 L 602 770 Q 592 772 587 770 Q 579 762 587 749 L 613 697 Q 633 662 650 652 C 670 639 670 639 679 658 Z" fill="black"></path>
				<path d="M 474 629 L 466 655 Q 461 672 451 669 Q 446 669 443 658 L 438 641 Q 432 614 409 578 L 398 559 Q 388 542 389 524.5 Q 390 507 396 496 Q 410 474 435 495 Q 448 508 452 521 Q 456 534 460 542.5 Q 464 551 476 594 L 474 629 Z" fill="black"></path>
				<path d="M 844 691 L 832 688 Q 830 688 828 687 L 794 680 L 761 671 L 679 658 L 650 652 L 597 644 Q 544 634 523 633 L 474 629 C 444 627 446 591 476 594 L 495 596 Q 503 599 543 605 L 761 638 L 814 644 Q 843 646 846 641 Q 855 632 832 599 L 811 569 Q 807 564 809 561 Q 810 558 818 563 L 828 568 L 862 587 Q 866 590 884 598 Q 902 606 906 606 L 938 615 Q 952 619 955 626 Q 957 633 948 647 Q 939 658 912 671 L 875 687 Q 861 691 844 691 Z" fill="black"></path>
				<path d="M 783 550 Q 781 562 756 567 L 726 572 Q 722 572 713 569 L 673 559 Q 656 554 631 550 L 532 530 L 511 527 L 500 526 L 488 522 Q 487 516 495 508 Q 503 500 524.5 499 Q 546 498 552 500 L 557 500 L 578 504 L 600 507 L 640 514 L 738 530 Q 757 535 760 535 Q 783 539 783 550 Z" fill="black"></path>
				<path d="M 600 507 L 606 489 L 606 488 Q 607 486 608 478 L 608 442 L 604 409 Q 605 396 608 391 Q 611 386 623 374 C 644 353 647 356 648 386 L 650 436 L 652 469 Q 652 472 654 484 Q 656 495 654 500 Q 653 506 640 514 C 615 530 591 535 600 507 Z" fill="black"></path>
				<path d="M 386 350 Q 382 349 383.5 344 Q 385 339 400 345 Q 417 349 439.5 362.5 Q 462 376 474 388 L 506 414 L 514 423 L 526 429 Q 529 437 520.5 444 Q 512 451 497 457 Q 489 462 480 464 Q 472 468 466 466 Q 463 464 460.5 453.5 Q 458 443 455 433 L 428 394 Q 423 387 410 374 Q 402 364 394 358 L 386 350 Z" fill="black"></path>
				<path d="M 606 315 L 690 360 L 786 422 L 841 451 Q 850 453 852 455.5 Q 854 458 856 466 Q 856 484 849 491 L 831 512 Q 803 540 794 518 Q 792 511 792 509 Q 787 485 752 454 Q 744 447 717 430 L 648 386 L 623 374 L 572 344 Q 562 339 528 325 Q 472 298 434.5 286.5 Q 397 275 377 268 L 350 262 Q 344 261 342 253 Q 342 246 354 248 L 382 251 Q 446 257 504 274 L 606 315 Z" fill="red"></path>
				<path d="M 504 274 L 507 250 Q 508 235 510 203 L 510 165 Q 505 87 493 59 Q 491 56 499 30 L 510 9 Q 518 -10 527 -10 Q 540 -10 546 26 L 548 56 L 552 116 L 552 136 L 552 202 L 554 223 L 556 260 Q 556 272 557 280 C 559 310 500 304 504 274 Z" fill="lightgray"></path>
				<path d="M 805 34 L 813 18 Q 825 -9 841 -6 Q 850 -4 858 8 Q 865 20 869 72 L 868 104 L 869 234 Q 869 266 879 290 L 884 305 Q 884 317 871 325 Q 867 328 843 343 Q 819 357 809 357 Q 799 356 784 351 Q 768 345 732 337 Q 696 328 682 327 L 606 315 C 454 291 482 277 557 280 L 579 281 Q 580 280 598 283 L 713 305 L 749 309 Q 758 310 779 310 Q 791 308 797 304 Q 805 296 808 285 Q 810 268 811 250 L 810 222 L 812 166 L 812 136 L 812 88 L 810 62 C 808 32 803 39 805 34 Z" fill="lightgray"></path>
				<path d="M 552 202 L 570 198 Q 588 192 605 196 L 810 222 C 840 226 840 241 811 250 L 798 254 Q 774 261 750 258 L 732 254 L 694 244 L 562 224 Q 556 224 554 223 C 524 219 523 209 552 202 Z" fill="lightgray"></path>
				<path d="M 552 116 L 563 112 Q 578 109 583 109 Q 588 109 640 116 L 812 136 C 842 139 842 161 812 166 L 784 171 Q 770 174 766 173 Q 762 171 749 170 L 732 166 L 688 157 Q 652 151 646 150 L 602 143 L 552 136 C 522 132 524 126 552 116 Z" fill="lightgray"></path>
				<path d="M 546 26 L 568 25 L 595 25 L 640 27 Q 644 28 658 28 L 676 29 L 764 35 L 786 35 Q 789 34 805 34 C 835 34 838 50 810 62 L 791 70 Q 772 74 767 76 Q 755 76 740 73 Q 725 69 679 65 L 604 58 L 548 56 C 518 55 516 27 546 26 Z" fill="lightgray"></path>
				<path d="M 568 25 L 566 13 Q 566 12 558 -4 Q 550 -20 520 -48 Q 490 -76 478 -86 L 434 -120 L 400 -143 Q 396 -146 396 -151 Q 397 -154 405 -152 L 416 -148 Q 429 -146 460 -133 Q 490 -119 499 -114 Q 507 -109 543 -86 L 612 -37 Q 616 -34 628 -28 L 642 -20 Q 657 -5 621 13 L 610 18 Q 597 24 595 25 C 570 37 570 37 568 25 Z" fill="lightgray"></path>
				<path d="M 778 -54 L 844 -131 Q 859 -146 868 -151 Q 884 -163 895 -162 Q 921 -158 919 -121 Q 916 -64 819 -23 Q 784 -8 767 -4 L 742 2 Q 734 5 729 0.5 Q 724 -4 732 -9 L 778 -54 Z" fill="lightgray"></path>
</g>
		<text x="40" y="140" font-size="128" fill="#999999">10</text></g>
</g>
	<g id="id2:id2" transform="translate(0.0,2048)">
		<g id="id2:id0:id0" transform="matrix(1.0,0,0,1.0,0,0.0)">			<g stroke="lightgray" stroke-width="4" transform="scale(4, 4)"> <rect x="0" y="0" width="256" height="256" fill="white" stroke-width="4"/></g>
			<g transform="scale(0.92, -0.92) translate(60, -920)">					<path d="M 221 682 Q 212 684 208 678.5 Q 204 673 212 665 L 222 652 Q 222 650 237 635 L 256 612 Q 258 610 272.5 593.5 Q 287 577 299 568 Q 326 553 341 570 Q 348 578 350 596 Q 355 649 283 668 L 243 679 L 221 682 Z" fill="black"></path>
				<path d="M 141 457 Q 131 458 129 455 Q 128 452 130 446 L 137 433 Q 137 430 140 427 Q 143 424 155 408 L 178 378 Q 199 357 210.5 348.5 Q 222 340 236.5 338.5 Q 251 337 258.5 347.5 Q 266 358 266 373 Q 266 407 249 418 Q 235 432 203 441 L 160 453 L 141 457 Z" fill="black"></path>
				<path d="M 298 257 L 254 178 Q 232 142 212 118 L 171 72 Q 151 50 136 39 Q 132 35 120 20 Q 116 10 116 3 Q 116 -4 122 -28 Q 128 -52 133.5 -65.5 Q 139 -79 143.5 -86.5 Q 148 -94 158 -94 Q 166 -96 174 -88.5 Q 182 -81 187 -64.5 Q 192 -48 210 -6 L 230 47 L 258 105 Q 274 135 288 169 L 332 278 Q 336 292 327 296 Q 318 300 312 286 L 298 257 Z" fill="black"></path>
				<path d="M 679 658 L 686 673 Q 691 692 688 715 Q 684 738 649 754 L 623 766 L 602 770 Q 592 772 587 770 Q 579 762 587 749 L 613 697 Q 633 662 650 652 C 670 639 670 639 679 658 Z" fill="black"></path>
				<path d="M 474 629 L 466 655 Q 461 672 451 669 Q 446 669 443 658 L 438 641 Q 432 614 409 578 L 398 559 Q 388 542 389 524.5 Q 390 507 396 496 Q 410 474 435 495 Q 448 508 452 521 Q 456 534 460 542.5 Q 464 551 476 594 L 474 629 Z" fill="black"></path>
				<path d="M 844 691 L 832 688 Q 830 688 828 687 L 794 680 L 761 671 L 679 658 L 650 652 L 597 644 Q 544 634 523 633 L 474 629 C 444 627 446 591 476 594 L 495 596 Q 503 599 543 605 L 761 638 L 814 644 Q 843 646 846 641 Q 855 632 832 599 L 811 569 Q 807 564 809 561 Q 810 558 818 563 L 828 568 L 862 587 Q 866 590 884 598 Q 902 606 906 606 L 938 615 Q 952 619 955 626 Q 957 633 948 647 Q 939 658 912 671 L 875 687 Q 861 691 844 691 Z" fill="black"></path>
				<path d="M 783 550 Q 781 562 756 567 L 726 572 Q 722 572 713 569 L 673 559 Q 656 554 631 550 L 532 530 L 511 527 L 500 526 L 488 522 Q 487 516 495 508 Q 503 500 524.5 499 Q 546 498 552 500 L 557 500 L 578 504 L 600 507 L 640 514 L 738 530 Q 757 535 760 535 Q 783 539 783 550 Z" fill="black"></path>
				<path d="M 600 507 L 606 489 L 606 488 Q 607 486 608 478 L 608 442 L 604 409 Q 605 396 608 391 Q 611 386 623 374 C 644 353 647 356 648 386 L 650 436 L 652 469 Q 652 472 654 484 Q 656 495 654 500 Q 653 506 640 514 C 615 530 591 535 600 507 Z" fill="black"></path>
				<path d="M 386 350 Q 382 349 383.5 344 Q 385 339 400 345 Q 417 349 439.5 362.5 Q 462 376 474 388 L 506 414 L 514 423 L 526 429 Q 529 437 520.5 444 Q 512 451 497 457 Q 489 462 480 464 Q 472 468 466 466 Q 463 464 460.5 453.5 Q 458 443 455 433 L 428 394 Q 423 387 410 374 Q 402 364 394 358 L 386 350 Z" fill="black"></path>
				<path d="M 606 315 L 690 360 L 786 422 L 841 451 Q 850 453 852 455.5 Q 854 458 856 466 Q 856 484 849 491 L 831 512 Q 803 540 794 518 Q 792 511 792 509 Q 787 485 752 454 Q 744 447 717 430 L 648 386 L 623 374 L 572 344 Q 562 339 528 325 Q 472 298 434.5 286.5 Q 397 275 377 268 L 350 262 Q 344 261 342 253 Q 342 246 354 248 L 382 251 Q 446 257 504 274 L 606 315 Z" fill="black"></path>
				<path d="M 504 274 L 507 250 Q 508 235 510 203 L 510 165 Q 505 87 493 59 Q 491 56 499 30 L 510 9 Q 518 -10 527 -10 Q 540 -10 546 26 L 548 56 L 552 116 L 552 136 L 552 202 L 554 223 L 556 260 Q 556 272 557 280 C 559 310 500 304 504 274 Z" fill="red"></path>
				<path d="M 805 34 L 813 18 Q 825 -9 841 -6 Q 850 -4 858 8 Q 865 20 869 72 L 868 104 L 869 234 Q 869 266 879 290 L 884 305 Q 884 317 871 325 Q 867 328 843 343 Q 819 357 809 357 Q 799 356 784 351 Q 768 345 732 337 Q 696 328 682 327 L 606 315 C 454 291 482 277 557 280 L 579 281 Q 580 280 598 283 L 713 305 L 749 309 Q 758 310 779 310 Q 791 308 797 304 Q 805 296 808 285 Q 810 268 811 250 L 810 222 L 812 166 L 812 136 L 812 88 L 810 62 C 808 32 803 39 805 34 Z" fill="lightgray"></path>
				<path d="M 552 202 L 570 198 Q 588 192 605 196 L 810 222 C 840 226 840 241 811 250 L 798 254 Q 774 261 750 258 L 732 254 L 694 244 L 562 224 Q 556 224 554 223 C 524 219 523 209 552 202 Z" fill="lightgray"></path>
				<path d="M 552 116 L 563 112 Q 578 109 583 109 Q 588 109 640 116 L 812 136 C 842 139 842 161 812 166 L 784 171 Q 770 174 766 173 Q 762 171 749 170 L 732 166 L 688 157 Q 652 151 646 150 L 602 143 L 552 136 C 522 132 524 126 552 116 Z" fill="lightgray"></path>
				<path d="M 546 26 L 568 25 L 595 25 L 640 27 Q 644 28 658 28 L 676 29 L 764 35 L 786 35 Q 789 34 805 34 C 835 34 838 50 810 62 L 791 70 Q 772 74 767 76 Q 755 76 740 73 Q 725 69 679 65 L 604 58 L 548 56 C 518 55 516 27 546 26 Z" fill="lightgray"></path>
				<path d="M 568 25 L 566 13 Q 566 12 558 -4 Q 550 -20 520 -48 Q 490 -76 478 -86 L 434 -120 L 400 -143 Q 396 -146 396 -151 Q 397 -154 405 -152 L 416 -148 Q 429 -146 460 -133 Q 490 -119 499 -114 Q 507 -109 543 -86 L 612 -37 Q 616 -34 628 -28 L 642 -20 Q 657 -5 621 13 L 610 18 Q 597 24 595 25 C 570 37 570 37 568 25 Z" fill="lightgray"></path>
				<path d="M 778 -54 L 844 -131 Q 859 -146 868 -151 Q 884 -163 895 -162 Q 921 -158 919 -121 Q 916 -64 819 -23 Q 784 -8 767 -4 L 742 2 Q 734 5 729 0.5 Q 724 -4 732 -9 L 778 -54 Z" fill="lightgray"></path>
</g>
		<text x="40" y="140" font-size="128" fill="#999999">11</text></g>
		<g id="id2:id1:id1" transform="matrix(1.0,0,0,1.0,1024,0.0)">			<g stroke="lightgray" stroke-width="4" transform="scale(4, 4)"> <rect x="0" y="0" width="256" height="256" fill="white" stroke-width="4"/></g>
			<g transform="scale(0.92, -0.92) translate(60, -920)">					<path d="M 221 682 Q 212 684 208 678.5 Q 204 673 212 665 L 222 652 Q 222 650 237 635 L 256 612 Q 258 610 272.5 593.5 Q 287 577 299 568 Q 326 553 341 570 Q 348 578 350 596 Q 355 649 283 668 L 243 679 L 221 682 Z" fill="black"></path>
				<path d="M 141 457 Q 131 458 129 455 Q 128 452 130 446 L 137 433 Q 137 430 140 427 Q 143 424 155 408 L 178 378 Q 199 357 210.5 348.5 Q 222 340 236.5 338.5 Q 251 337 258.5 347.5 Q 266 358 266 373 Q 266 407 249 418 Q 235 432 203 441 L 160 453 L 141 457 Z" fill="black"></path>
				<path d="M 298 257 L 254 178 Q 232 142 212 118 L 171 72 Q 151 50 136 39 Q 132 35 120 20 Q 116 10 116 3 Q 116 -4 122 -28 Q 128 -52 133.5 -65.5 Q 139 -79 143.5 -86.5 Q 148 -94 158 -94 Q 166 -96 174 -88.5 Q 182 -81 187 -64.5 Q 192 -48 210 -6 L 230 47 L 258 105 Q 274 135 288 169 L 332 278 Q 336 292 327 296 Q 318 300 312 286 L 298 257 Z" fill="black"></path>
				<path d="M 679 658 L 686 673 Q 691 692 688 715 Q 684 738 649 754 L 623 766 L 602 770 Q 592 772 587 770 Q 579 762 587 749 L 613 697 Q 633 662 650 652 C 670 639 670 639 679 658 Z" fill="black"></path>
				<path d="M 474 629 L 466 655 Q 461 672 451 669 Q 446 669 443 658 L 438 641 Q 432 614 409 578 L 398 559 Q 388 542 389 524.5 Q 390 507 396 496 Q 410 474 435 495 Q 448 508 452 521 Q 456 534 460 542.5 Q 464 551 476 594 L 474 629 Z" fill="black"></path>
				<path d="M 844 691 L 832 688 Q 830 688 828 687 L 794 680 L 761 671 L 679 658 L 650 652 L 597 644 Q 544 634 523 633 L 474 629 C 444 627 446 591 476 594 L 495 596 Q 503 599 543 605 L 761 638 L 814 644 Q 843 646 846 641 Q 855 632 832 599 L 811 569 Q 807 564 809 561 Q 810 558 818 563 L 828 568 L 862 587 Q 866 590 884 598 Q 902 606 906 606 L 938 615 Q 952 619 955 626 Q 957 633 948 647 Q 939 658 912 671 L 875 687 Q 861 691 844 691 Z" fill="black"></path>
				<path d="M 783 550 Q 781 562 756 567 L 726 572 Q 722 572 713 569 L 673 559 Q 656 554 631 550 L 532 530 L 511 527 L 500 526 L 488 522 Q 487 516 495 508 Q 503 500 524.5 499 Q 546 498 552 500 L 557 500 L 578 504 L 600 507 L 640 514 L 738 530 Q 757 535 760 535 Q 783 539 783 550 Z" fill="black"></path>
				<path d="M 600 507 L 606 489 L 606 488 Q 607 486 608 478 L 608 442 L 604 409 Q 605 396 608 391 Q 611 386 623 374 C 644 353 647 356 648 386 L 650 436 L 652 469 Q 652 472 654 484 Q 656 495 654 500 Q 653 506 640 514 C 615 530 591 535 600 507 Z" fill="black"></path>
				<path d="M 386 350 Q 382 349 383.5 344 Q 385 339 400 345 Q 417 349 439.5 362.5 Q 462 376 474 388 L 506 414 L 514 423 L 526 429 Q 529 437 520.5 444 Q 512 451 497 457 Q 489 462 480 464 Q 472 468 466 466 Q 463 464 460.5 453.5 Q 458 443 455 433 L 428 394 Q 423 387 410 374 Q 402 364 394 358 L 386 350 Z" fill="black"></path>
				<path d="M 606 315 L 690 360 L 786 422 L 841 451 Q 850 453 852 455.5 Q 854 458 856 466 Q 856 484 849 491 L 831 512 Q 803 540 794 518 Q 792 511 792 509 Q 787 485 752 454 Q 744 447 717 430 L 648 386 L 623 374 L 572 344 Q 562 339 528 325 Q 472 298 434.5 286.5 Q 397 275 377 268 L 350 262 Q 344 261 342 253 Q 342 246 354 248 L 382 251 Q 446 257 504 274 L 606 315 Z" fill="black"></path>
				<path d="M 504 274 L 507 250 Q 508 235 510 203 L 510 165 Q 505 87 493 59 Q 491 56 499 30 L 510 9 Q 518 -10 527 -10 Q 540 -10 546 26 L 548 56 L 552 116 L 552 136 L 552 202 L 554 223 L 556 260 Q 556 272 557 280 C 559 310 500 304 504 274 Z" fill="black"></path>
				<path d="M 805 34 L 813 18 Q 825 -9 841 -6 Q 850 -4 858 8 Q 865 20 869 72 L 868 104 L 869 234 Q 869 266 879 290 L 884 305 Q 884 317 871 325 Q 867 328 843 343 Q 819 357 809 357 Q 799 356 784 351 Q 768 345 732 337 Q 696 328 682 327 L 606 315 C 454 291 482 277 557 280 L 579 281 Q 580 280 598 283 L 713 305 L 749 309 Q 758 310 779 310 Q 791 308 797 304 Q 805 296 808 285 Q 810 268 811 250 L 810 222 L 812 166 L 812 136 L 812 88 L 810 62 C 808 32 803 39 805 34 Z" fill="red"></path>
				<path d="M 552 202 L 570 198 Q 588 192 605 196 L 810 222 C 840 226 840 241 811 250 L 798 254 Q 774 261 750 258 L 732 254 L 694 244 L 562 224 Q 556 224 554 223 C 524 219 523 209 552 202 Z" fill="lightgray"></path>
				<path d="M 552 116 L 563 112 Q 578 109 583 109 Q 588 109 640 116 L 812 136 C 842 139 842 161 812 166 L 784 171 Q 770 174 766 173 Q 762 171 749 170 L 732 166 L 688 157 Q 652 151 646 150 L 602 143 L 552 136 C 522 132 524 126 552 116 Z" fill="lightgray"></path>
				<path d="M 546 26 L 568 25 L 595 25 L 640 27 Q 644 28 658 28 L 676 29 L 764 35 L 786 35 Q 789 34 805 34 C 835 34 838 50 810 62 L 791 70 Q 772 74 767 76 Q 755 76 740 73 Q 725 69 679 65 L 604 58 L 548 56 C 518 55 516 27 546 26 Z" fill="lightgray"></path>
				<path d="M 568 25 L 566 13 Q 566 12 558 -4 Q 550 -20 520 -48 Q 490 -76 478 -86 L 434 -120 L 400 -143 Q 396 -146 396 -151 Q 397 -154 405 -152 L 416 -148 Q 429 -146 460 -133 Q 490 -119 499 -114 Q 507 -109 543 -86 L 612 -37 Q 616 -34 628 -28 L 642 -20 Q 657 -5 621 13 L 610 18 Q 597 24 595 25 C 570 37 570 37 568 25 Z" fill="lightgray"></path>
				<path d="M 778 -54 L 844 -131 Q 859 -146 868 -151 Q 884 -163 895 -162 Q 921 -158 919 -121 Q 916 -64 819 -23 Q 784 -8 767 -4 L 742 2 Q 734 5 729 0.5 Q 724 -4 732 -9 L 778 -54 Z" fill="lightgray"></path>
</g>
		<text x="40" y="140" font-size="128" fill="#999999">12</text></g>
		<g id="id2:id2:id2" transform="matrix(1.0,0,0,1.0,2048,0.0)">			<g stroke="lightgray" stroke-width="4" transform="scale(4, 4)"> <rect x="0" y="0" width="256" height="256" fill="white" stroke-width="4"/></g>
			<g transform="scale(0.92, -0.92) translate(60, -920)">					<path d="M 221 682 Q 212 684 208 678.5 Q 204 673 212 665 L 222 652 Q 222 650 237 635 L 256 612 Q 258 610 272.5 593.5 Q 287 577 299 568 Q 326 553 341 570 Q 348 578 350 596 Q 355 649 283 668 L 243 679 L 221 682 Z" fill="black"></path>
				<path d="M 141 457 Q 131 458 129 455 Q 128 452 130 446 L 137 433 Q 137 430 140 427 Q 143 424 155 408 L 178 378 Q 199 357 210.5 348.5 Q 222 340 236.5 338.5 Q 251 337 258.5 347.5 Q 266 358 266 373 Q 266 407 249 418 Q 235 432 203 441 L 160 453 L 141 457 Z" fill="black"></path>
				<path d="M 298 257 L 254 178 Q 232 142 212 118 L 171 72 Q 151 50 136 39 Q 132 35 120 20 Q 116 10 116 3 Q 116 -4 122 -28 Q 128 -52 133.5 -65.5 Q 139 -79 143.5 -86.5 Q 148 -94 158 -94 Q 166 -96 174 -88.5 Q 182 -81 187 -64.5 Q 192 -48 210 -6 L 230 47 L 258 105 Q 274 135 288 169 L 332 278 Q 336 292 327 296 Q 318 300 312 286 L 298 257 Z" fill="black"></path>
				<path d="M 679 658 L 686 673 Q 691 692 688 715 Q 684 738 649 754 L 623 766 L 602 770 Q 592 772 587 770 Q 579 762 587 749 L 613 697 Q 633 662 650 652 C 670 639 670 639 679 658 Z" fill="black"></path>
				<path d="M 474 629 L 466 655 Q 461 672 451 669 Q 446 669 443 658 L 438 641 Q 432 614 409 578 L 398 559 Q 388 542 389 524.5 Q 390 507 396 496 Q 410 474 435 495 Q 448 508 452 521 Q 456 534 460 542.5 Q 464 551 476 594 L 474 629 Z" fill="black"></path>
				<path d="M 844 691 L 832 688 Q 830 688 828 687 L 794 680 L 761 671 L 679 658 L 650 652 L 597 644 Q 544 634 523 633 L 474 629 C 444 627 446 591 476 594 L 495 596 Q 503 599 543 605 L 761 638 L 814 644 Q 843 646 846 641 Q 855 632 832 599 L 811 569 Q 807 564 809 561 Q 810 558 818 563 L 828 568 L 862 587 Q 866 590 884 598 Q 902 606 906 606 L 938 615 Q 952 619 955 626 Q 957 633 948 647 Q 939 658 912 671 L 875 687 Q 861 691 844 691 Z" fill="black"></path>
				<path d="M 783 550 Q 781 562 756 567 L 726 572 Q 722 572 713 569 L 673 559 Q 656 554 631 550 L 532 530 L 511 527 L 500 526 L 488 522 Q 487 516 495 508 Q 503 500 524.5 499 Q 546 498 552 500 L 557 500 L 578 504 L 600 507 L 640 514 L 738 530 Q 757 535 760 535 Q 783 539 783 550 Z" fill="black"></path>
				<path d="M 600 507 L 606 489 L 606 488 Q 607 486 608 478 L 608 442 L 604 409 Q 605 396 608 391 Q 611 386 623 374 C 644 353 647 356 648 386 L 650 436 L 652 469 Q 652 472 654 484 Q 656 495 654 500 Q 653 506 640 514 C 615 530 591 535 600 507 Z" fill="black"></path>
				<path d="M 386 350 Q 382 349 383.5 344 Q 385 339 400 345 Q 417 349 439.5 362.5 Q 462 376 474 388 L 506 414 L 514 423 L 526 429 Q 529 437 520.5 444 Q 512 451 497 457 Q 489 462 480 464 Q 472 468 466 466 Q 463 464 460.5 453.5 Q 458 443 455 433 L 428 394 Q 423 387 410 374 Q 402 364 394 358 L 386 350 Z" fill="black"></path>
				<path d="M 606 315 L 690 360 L 786 422 L 841 451 Q 850 453 852 455.5 Q 854 458 856 466 Q 856 484 849 491 L 831 512 Q 803 540 794 518 Q 792 511 792 509 Q 787 485 752 454 Q 744 447 717 430 L 648 386 L 623 374 L 572 344 Q 562 339 528 325 Q 472 298 434.5 286.5 Q 397 275 377 268 L 350 262 Q 344 261 342 253 Q 342 246 354 248 L 382 251 Q 446 257 504 274 L 606 315 Z" fill="black"></path>
				<path d="M 504 274 L 507 250 Q 508 235 510 203 L 510 165 Q 505 87 493 59 Q 491 56 499 30 L 510 9 Q 518 -10 527 -10 Q 540 -10 546 26 L 548 56 L 552 116 L 552 136 L 552 202 L 554 223 L 556 260 Q 556 272 557 280 C 559 310 500 304 504 274 Z" fill="black"></path>
				<path d="M 805 34 L 813 18 Q 825 -9 841 -6 Q 850 -4 858 8 Q 865 20 869 72 L 868 104 L 869 234 Q 869 266 879 290 L 884 305 Q 884 317 871 325 Q 867 328 843 343 Q 819 357 809 357 Q 799 356 784 351 Q 768 345 732 337 Q 696 328 682 327 L 606 315 C 454 291 482 277 557 280 L 579 281 Q 580 280 598 283 L 713 305 L 749 309 Q 758 310 779 310 Q 791 308 797 304 Q 805 296 808 285 Q 810 268 811 250 L 810 222 L 812 166 L 812 136 L 812 88 L 810 62 C 808 32 803 39 805 34 Z" fill="black"></path>
				<path d="M 552 202 L 570 198 Q 588 192 605 196 L 810 222 C 840 226 840 241 811 250 L 798 254 Q 774 261 750 258 L 732 254 L 694 244 L 562 224 Q 556 224 554 223 C 524 219 523 209 552 202 Z" fill="red"></path>
				<path d="M 552 116 L 563 112 Q 578 109 583 109 Q 588 109 640 116 L 812 136 C 842 139 842 161 812 166 L 784 171 Q 770 174 766 173 Q 762 171 749 170 L 732 166 L 688 157 Q 652 151 646 150 L 602 143 L 552 136 C 522 132 524 126 552 116 Z" fill="lightgray"></path>
				<path d="M 546 26 L 568 25 L 595 25 L 640 27 Q 644 28 658 28 L 676 29 L 764 35 L 786 35 Q 789 34 805 34 C 835 34 838 50 810 62 L 791 70 Q 772 74 767 76 Q 755 76 740 73 Q 725 69 679 65 L 604 58 L 548 56 C 518 55 516 27 546 26 Z" fill="lightgray"></path>
				<path d="M 568 25 L 566 13 Q 566 12 558 -4 Q 550 -20 520 -48 Q 490 -76 478 -86 L 434 -120 L 400 -143 Q 396 -146 396 -151 Q 397 -154 405 -152 L 416 -148 Q 429 -146 460 -133 Q 490 -119 499 -114 Q 507 -109 543 -86 L 612 -37 Q 616 -34 628 -28 L 642 -20 Q 657 -5 621 13 L 610 18 Q 597 24 595 25 C 570 37 570 37 568 25 Z" fill="lightgray"></path>
				<path d="M 778 -54 L 844 -131 Q 859 -146 868 -151 Q 884 -163 895 -162 Q 921 -158 919 -121 Q 916 -64 819 -23 Q 784 -8 767 -4 L 742 2 Q 734 5 729 0.5 Q 724 -4 732 -9 L 778 -54 Z" fill="lightgray"></path>
</g>
		<text x="40" y="140" font-size="128" fill="#999999">13</text></g>
		<g id="id2:id3:id3" transform="matrix(1.0,0,0,1.0,3072,0.0)">			<g stroke="lightgray" stroke-width="4" transform="scale(4, 4)"> <rect x="0" y="0" width="256" height="256" fill="white" stroke-width="4"/></g>
			<g transform="scale(0.92, -0.92) translate(60, -920)">					<path d="M 221 682 Q 212 684 208 678.5 Q 204 673 212 665 L 222 652 Q 222 650 237 635 L 256 612 Q 258 610 272.5 593.5 Q 287 577 299 568 Q 326 553 341 570 Q 348 578 350 596 Q 355 649 283 668 L 243 679 L 221 682 Z" fill="black"></path>
				<path d="M 141 457 Q 131 458 129 455 Q 128 452 130 446 L 137 433 Q 137 430 140 427 Q 143 424 155 408 L 178 378 Q 199 357 210.5 348.5 Q 222 340 236.5 338.5 Q 251 337 258.5 347.5 Q 266 358 266 373 Q 266 407 249 418 Q 235 432 203 441 L 160 453 L 141 457 Z" fill="black"></path>
				<path d="M 298 257 L 254 178 Q 232 142 212 118 L 171 72 Q 151 50 136 39 Q 132 35 120 20 Q 116 10 116 3 Q 116 -4 122 -28 Q 128 -52 133.5 -65.5 Q 139 -79 143.5 -86.5 Q 148 -94 158 -94 Q 166 -96 174 -88.5 Q 182 -81 187 -64.5 Q 192 -48 210 -6 L 230 47 L 258 105 Q 274 135 288 169 L 332 278 Q 336 292 327 296 Q 318 300 312 286 L 298 257 Z" fill="black"></path>
				<path d="M 679 658 L 686 673 Q 691 692 688 715 Q 684 738 649 754 L 623 766 L 602 770 Q 592 772 587 770 Q 579 762 587 749 L 613 697 Q 633 662 650 652 C 670 639 670 639 679 658 Z" fill="black"></path>
				<path d="M 474 629 L 466 655 Q 461 672 451 669 Q 446 669 443 658 L 438 641 Q 432 614 409 578 L 398 559 Q 388 542 389 524.5 Q 390 507 396 496 Q 410 474 435 495 Q 448 508 452 521 Q 456 534 460 542.5 Q 464 551 476 594 L 474 629 Z" fill="black"></path>
				<path d="M 844 691 L 832 688 Q 830 688 828 687 L 794 680 L 761 671 L 679 658 L 650 652 L 597 644 Q 544 634 523 633 L 474 629 C 444 627 446 591 476 594 L 495 596 Q 503 599 543 605 L 761 638 L 814 644 Q 843 646 846 641 Q 855 632 832 599 L 811 569 Q 807 564 809 561 Q 810 558 818 563 L 828 568 L 862 587 Q 866 590 884 598 Q 902 606 906 606 L 938 615 Q 952 619 955 626 Q 957 633 948 647 Q 939 658 912 671 L 875 687 Q 861 691 844 691 Z" fill="black"></path>
				<path d="M 783 550 Q 781 562 756 567 L 726 572 Q 722 572 713 569 L 673 559 Q 656 554 631 550 L 532 530 L 511 527 L 500 526 L 488 522 Q 487 516 495 508 Q 503 500 524.5 499 Q 546 498 552 500 L 557 500 L 578 504 L 600 507 L 640 514 L 738 530 Q 757 535 760 535 Q 783 539 783 550 Z" fill="black"></path>
				<path d="M 600 507 L 606 489 L 606 488 Q 607 486 608 478 L 608 442 L 604 409 Q 605 396 608 391 Q 611 386 623 374 C 644 353 647 356 648 386 L 650 436 L 652 469 Q 652 472 654 484 Q 656 495 654 500 Q 653 506 640 514 C 615 530 591 535 600 507 Z" fill="black"></path>
				<path d="M 386 350 Q 382 349 383.5 344 Q 385 339 400 345 Q 417 349 439.5 362.5 Q 462 376 474 388 L 506 414 L 514 423 L 526 429 Q 529 437 520.5 444 Q 512 451 497 457 Q 489 462 480 464 Q 472 468 466 466 Q 463 464 460.5 453.5 Q 458 443 455 433 L 428 394 Q 423 387 410 374 Q 402 364 394 358 L 386 350 Z" fill="black"></path>
				<path d="M 606 315 L 690 360 L 786 422 L 841 451 Q 850 453 852 455.5 Q 854 458 856 466 Q 856 484 849 491 L 831 512 Q 803 540 794 518 Q 792 511 792 509 Q 787 485 752 454 Q 744 447 717 430 L 648 386 L 623 374 L 572 344 Q 562 339 528 325 Q 472 298 434.5 286.5 Q 397 275 377 268 L 350 262 Q 344 261 342 253 Q 342 246 354 248 L 382 251 Q 446 257 504 274 L 606 315 Z" fill="black"></path>
				<path d="M 504 274 L 507 250 Q 508 235 510 203 L 510 165 Q 505 87 493 59 Q 491 56 499 30 L 510 9 Q 518 -10 527 -10 Q 540 -10 546 26 L 548 56 L 552 116 L 552 136 L 552 202 L 554 223 L 556 260 Q 556 272 557 280 C 559 310 500 304 504 274 Z" fill="black"></path>
				<path d="M 805 34 L 813 18 Q 825 -9 841 -6 Q 850 -4 858 8 Q 865 20 869 72 L 868 104 L 869 234 Q 869 266 879 290 L 884 305 Q 884 317 871 325 Q 867 328 843 343 Q 819 357 809 357 Q 799 356 784 351 Q 768 345 732 337 Q 696 328 682 327 L 606 315 C 454 291 482 277 557 280 L 579 281 Q 580 280 598 283 L 713 305 L 749 309 Q 758 310 779 310 Q 791 308 797 304 Q 805 296 808 285 Q 810 268 811 250 L 810 222 L 812 166 L 812 136 L 812 88 L 810 62 C 808 32 803 39 805 34 Z" fill="black"></path>
				<path d="M 552 202 L 570 198 Q 588 192 605 196 L 810 222 C 840 226 840 241 811 250 L 798 254 Q 774 261 750 258 L 732 254 L 694 244 L 562 224 Q 556 224 554 223 C 524 219 523 209 552 202 Z" fill="black"></path>
				<path d="M 552 116 L 563 112 Q 578 109 583 109 Q 588 109 640 116 L 812 136 C 842 139 842 161 812 166 L 784 171 Q 770 174 766 173 Q 762 171 749 170 L 732 166 L 688 157 Q 652 151 646 150 L 602 143 L 552 136 C 522 132 524 126 552 116 Z" fill="red"></path>
				<path d="M 546 26 L 568 25 L 595 25 L 640 27 Q 644 28 658 28 L 676 29 L 764 35 L 786 35 Q 789 34 805 34 C 835 34 838 50 810 62 L 791 70 Q 772 74 767 76 Q 755 76 740 73 Q 725 69 679 65 L 604 58 L 548 56 C 518 55 516 27 546 26 Z" fill="lightgray"></path>
				<path d="M 568 25 L 566 13 Q 566 12 558 -4 Q 550 -20 520 -48 Q 490 -76 478 -86 L 434 -120 L 400 -143 Q 396 -146 396 -151 Q 397 -154 405 -152 L 416 -148 Q 429 -146 460 -133 Q 490 -119 499 -114 Q 507 -109 543 -86 L 612 -37 Q 616 -34 628 -28 L 642 -20 Q 657 -5 621 13 L 610 18 Q 597 24 595 25 C 570 37 570 37 568 25 Z" fill="lightgray"></path>
				<path d="M 778 -54 L 844 -131 Q 859 -146 868 -151 Q 884 -163 895 -162 Q 921 -158 919 -121 Q 916 -64 819 -23 Q 784 -8 767 -4 L 742 2 Q 734 5 729 0.5 Q 724 -4 732 -9 L 778 -54 Z" fill="lightgray"></path>
</g>
		<text x="40" y="140" font-size="128" fill="#999999">14</text></g>
		<g id="id2:id4:id4" transform="matrix(1.0,0,0,1.0,4096,0.0)">			<g stroke="lightgray" stroke-width="4" transform="scale(4, 4)"> <rect x="0" y="0" width="256" height="256" fill="white" stroke-width="4"/></g>
			<g transform="scale(0.92, -0.92) translate(60, -920)">					<path d="M 221 682 Q 212 684 208 678.5 Q 204 673 212 665 L 222 652 Q 222 650 237 635 L 256 612 Q 258 610 272.5 593.5 Q 287 577 299 568 Q 326 553 341 570 Q 348 578 350 596 Q 355 649 283 668 L 243 679 L 221 682 Z" fill="black"></path>
				<path d="M 141 457 Q 131 458 129 455 Q 128 452 130 446 L 137 433 Q 137 430 140 427 Q 143 424 155 408 L 178 378 Q 199 357 210.5 348.5 Q 222 340 236.5 338.5 Q 251 337 258.5 347.5 Q 266 358 266 373 Q 266 407 249 418 Q 235 432 203 441 L 160 453 L 141 457 Z" fill="black"></path>
				<path d="M 298 257 L 254 178 Q 232 142 212 118 L 171 72 Q 151 50 136 39 Q 132 35 120 20 Q 116 10 116 3 Q 116 -4 122 -28 Q 128 -52 133.5 -65.5 Q 139 -79 143.5 -86.5 Q 148 -94 158 -94 Q 166 -96 174 -88.5 Q 182 -81 187 -64.5 Q 192 -48 210 -6 L 230 47 L 258 105 Q 274 135 288 169 L 332 278 Q 336 292 327 296 Q 318 300 312 286 L 298 257 Z" fill="black"></path>
				<path d="M 679 658 L 686 673 Q 691 692 688 715 Q 684 738 649 754 L 623 766 L 602 770 Q 592 772 587 770 Q 579 762 587 749 L 613 697 Q 633 662 650 652 C 670 639 670 639 679 658 Z" fill="black"></path>
				<path d="M 474 629 L 466 655 Q 461 672 451 669 Q 446 669 443 658 L 438 641 Q 432 614 409 578 L 398 559 Q 388 542 389 524.5 Q 390 507 396 496 Q 410 474 435 495 Q 448 508 452 521 Q 456 534 460 542.5 Q 464 551 476 594 L 474 629 Z" fill="black"></path>
				<path d="M 844 691 L 832 688 Q 830 688 828 687 L 794 680 L 761 671 L 679 658 L 650 652 L 597 644 Q 544 634 523 633 L 474 629 C 444 627 446 591 476 594 L 495 596 Q 503 599 543 605 L 761 638 L 814 644 Q 843 646 846 641 Q 855 632 832 599 L 811 569 Q 807 564 809 561 Q 810 558 818 563 L 828 568 L 862 587 Q 866 590 884 598 Q 902 606 906 606 L 938 615 Q 952 619 955 626 Q 957 633 948 647 Q 939 658 912 671 L 875 687 Q 861 691 844 691 Z" fill="black"></path>
				<path d="M 783 550 Q 781 562 756 567 L 726 572 Q 722 572 713 569 L 673 559 Q 656 554 631 550 L 532 530 L 511 527 L 500 526 L 488 522 Q 487 516 495 508 Q 503 500 524.5 499 Q 546 498 552 500 L 557 500 L 578 504 L 600 507 L 640 514 L 738 530 Q 757 535 760 535 Q 783 539 783 550 Z" fill="black"></path>
				<path d="M 600 507 L 606 489 L 606 488 Q 607 486 608 478 L 608 442 L 604 409 Q 605 396 608 391 Q 611 386 623 374 C 644 353 647 356 648 386 L 650 436 L 652 469 Q 652 472 654 484 Q 656 495 654 500 Q 653 506 640 514 C 615 530 591 535 600 507 Z" fill="black"></path>
				<path d="M 386 350 Q 382 349 383.5 344 Q 385 339 400 345 Q 417 349 439.5 362.5 Q 462 376 474 388 L 506 414 L 514 423 L 526 429 Q 529 437 520.5 444 Q 512 451 497 457 Q 489 462 480 464 Q 472 468 466 466 Q 463 464 460.5 453.5 Q 458 443 455 433 L 428 394 Q 423 387 410 374 Q 402 364 394 358 L 386 350 Z" fill="black"></path>
				<path d="M 606 315 L 690 360 L 786 422 L 841 451 Q 850 453 852 455.5 Q 854 458 856 466 Q 856 484 849 491 L 831 512 Q 803 540 794 518 Q 792 511 792 509 Q 787 485 752 454 Q 744 447 717 430 L 648 386 L 623 374 L 572 344 Q 562 339 528 325 Q 472 298 434.5 286.5 Q 397 275 377 268 L 350 262 Q 344 261 342 253 Q 342 246 354 248 L 382 251 Q 446 257 504 274 L 606 315 Z" fill="black"></path>
				<path d="M 504 274 L 507 250 Q 508 235 510 203 L 510 165 Q 505 87 493 59 Q 491 56 499 30 L 510 9 Q 518 -10 527 -10 Q 540 -10 546 26 L 548 56 L 552 116 L 552 136 L 552 202 L 554 223 L 556 260 Q 556 272 557 280 C 559 310 500 304 504 274 Z" fill="black"></path>
				<path d="M 805 34 L 813 18 Q 825 -9 841 -6 Q 850 -4 858 8 Q 865 20 869 72 L 868 104 L 869 234 Q 869 266 879 290 L 884 305 Q 884 317 871 325 Q 867 328 843 343 Q 819 357 809 357 Q 799 356 784 351 Q 768 345 732 337 Q 696 328 682 327 L 606 315 C 454 291 482 277 557 280 L 579 281 Q 580 280 598 283 L 713 305 L 749 309 Q 758 310 779 310 Q 791 308 797 304 Q 805 296 808 285 Q 810 268 811 250 L 810 222 L 812 166 L 812 136 L 812 88 L 810 62 C 808 32 803 39 805 34 Z" fill="black"></path>
				<path d="M 552 202 L 570 198 Q 588 192 605 196 L 810 222 C 840 226 840 241 811 250 L 798 254 Q 774 261 750 258 L 732 254 L 694 244 L 562 224 Q 556 224 554 223 C 524 219 523 209 552 202 Z" fill="black"></path>
				<path d="M 552 116 L 563 112 Q 578 109 583 109 Q 588 109 640 116 L 812 136 C 842 139 842 161 812 166 L 784 171 Q 770 174 766 173 Q 762 171 749 170 L 732 166 L 688 157 Q 652 151 646 150 L 602 143 L 552 136 C 522 132 524 126 552 116 Z" fill="black"></path>
				<path d="M 546 26 L 568 25 L 595 25 L 640 27 Q 644 28 658 28 L 676 29 L 764 35 L 786 35 Q 789 34 805 34 C 835 34 838 50 810 62 L 791 70 Q 772 74 767 76 Q 755 76 740 73 Q 725 69 679 65 L 604 58 L 548 56 C 518 55 516 27 546 26 Z" fill="red"></path>
				<path d="M 568 25 L 566 13 Q 566 12 558 -4 Q 550 -20 520 -48 Q 490 -76 478 -86 L 434 -120 L 400 -143 Q 396 -146 396 -151 Q 397 -154 405 -152 L 416 -148 Q 429 -146 460 -133 Q 490 -119 499 -114 Q 507 -109 543 -86 L 612 -37 Q 616 -34 628 -28 L 642 -20 Q 657 -5 621 13 L 610 18 Q 597 24 595 25 C 570 37 570 37 568 25 Z" fill="lightgray"></path>
				<path d="M 778 -54 L 844 -131 Q 859 -146 868 -151 Q 884 -163 895 -162 Q 921 -158 919 -121 Q 916 -64 819 -23 Q 784 -8 767 -4 L 742 2 Q 734 5 729 0.5 Q 724 -4 732 -9 L 778 -54 Z" fill="lightgray"></path>
</g>
		<text x="40" y="140" font-size="128" fill="#999999">15</text></g>
</g>
	<g id="id3:id3" transform="translate(0.0,3072)">
		<g id="id3:id0:id0" transform="matrix(1.0,0,0,1.0,0,0.0)">			<g stroke="lightgray" stroke-width="4" transform="scale(4, 4)"> <rect x="0" y="0" width="256" height="256" fill="white" stroke-width="4"/></g>
			<g transform="scale(0.92, -0.92) translate(60, -920)">					<path d="M 221 682 Q 212 684 208 678.5 Q 204 673 212 665 L 222 652 Q 222 650 237 635 L 256 612 Q 258 610 272.5 593.5 Q 287 577 299 568 Q 326 553 341 570 Q 348 578 350 596 Q 355 649 283 668 L 243 679 L 221 682 Z" fill="black"></path>
				<path d="M 141 457 Q 131 458 129 455 Q 128 452 130 446 L 137 433 Q 137 430 140 427 Q 143 424 155 408 L 178 378 Q 199 357 210.5 348.5 Q 222 340 236.5 338.5 Q 251 337 258.5 347.5 Q 266 358 266 373 Q 266 407 249 418 Q 235 432 203 441 L 160 453 L 141 457 Z" fill="black"></path>
				<path d="M 298 257 L 254 178 Q 232 142 212 118 L 171 72 Q 151 50 136 39 Q 132 35 120 20 Q 116 10 116 3 Q 116 -4 122 -28 Q 128 -52 133.5 -65.5 Q 139 -79 143.5 -86.5 Q 148 -94 158 -94 Q 166 -96 174 -88.5 Q 182 -81 187 -64.5 Q 192 -48 210 -6 L 230 47 L 258 105 Q 274 135 288 169 L 332 278 Q 336 292 327 296 Q 318 300 312 286 L 298 257 Z" fill="black"></path>
				<path d="M 679 658 L 686 673 Q 691 692 688 715 Q 684 738 649 754 L 623 766 L 602 770 Q 592 772 587 770 Q 579 762 587 749 L 613 697 Q 633 662 650 652 C 670 639 670 639 679 658 Z" fill="black"></path>
				<path d="M 474 629 L 466 655 Q 461 672 451 669 Q 446 669 443 658 L 438 641 Q 432 614 409 578 L 398 559 Q 388 542 389 524.5 Q 390 507 396 496 Q 410 474 435 495 Q 448 508 452 521 Q 456 534 460 542.5 Q 464 551 476 594 L 474 629 Z" fill="black"></path>
				<path d="M 844 691 L 832 688 Q 830 688 828 687 L 794 680 L 761 671 L 679 658 L 650 652 L 597 644 Q 544 634 523 633 L 474 629 C 444 627 446 591 476 594 L 495 596 Q 503 599 543 605 L 761 638 L 814 644 Q 843 646 846 641 Q 855 632 832 599 L 811 569 Q 807 564 809 561 Q 810 558 818 563 L 828 568 L 862 587 Q 866 590 884 598 Q 902 606 906 606 L 938 615 Q 952 619 955 626 Q 957 633 948 647 Q 939 658 912 671 L 875 687 Q 861 691 844 691 Z" fill="black"></path>
				<path d="M 783 550 Q 781 562 756 567 L 726 572 Q 722 572 713 569 L 673 559 Q 656 554 631 550 L 532 530 L 511 527 L 500 526 L 488 522 Q 487 516 495 508 Q 503 500 524.5 499 Q 546 498 552 500 L 557 500 L 578 504 L 600 507 L 640 514 L 738 530 Q 757 535 760 535 Q 783 539 783 550 Z" fill="black"></path>
				<path d="M 600 507 L 606 489 L 606 488 Q 607 486 608 478 L 608 442 L 604 409 Q 605 396 608 391 Q 611 386 623 374 C 644 353 647 356 648 386 L 650 436 L 652 469 Q 652 472 654 484 Q 656 495 654 500 Q 653 506 640 514 C 615 530 591 535 600 507 Z" fill="black"></path>
				<path d="M 386 350 Q 382 349 383.5 344 Q 385 339 400 345 Q 417 349 439.5 362.5 Q 462 376 474 388 L 506 414 L 514 423 L 526 429 Q 529 437 520.5 444 Q 512 451 497 457 Q 489 462 480 464 Q 472 468 466 466 Q 463 464 460.5 453.5 Q 458 443 455 433 L 428 394 Q 423 387 410 374 Q 402 364 394 358 L 386 350 Z" fill="black"></path>
				<path d="M 606 315 L 690 360 L 786 422 L 841 451 Q 850 453 852 455.5 Q 854 458 856 466 Q 856 484 849 491 L 831 512 Q 803 540 794 518 Q 792 511 792 509 Q 787 485 752 454 Q 744 447 717 430 L 648 386 L 623 374 L 572 344 Q 562 339 528 325 Q 472 298 434.5 286.5 Q 397 275 377 268 L 350 262 Q 344 261 342 253 Q 342 246 354 248 L 382 251 Q 446 257 504 274 L 606 315 Z" fill="black"></path>
				<path d="M 504 274 L 507 250 Q 508 235 510 203 L 510 165 Q 505 87 493 59 Q 491 56 499 30 L 510 9 Q 518 -10 527 -10 Q 540 -10 546 26 L 548 56 L 552 116 L 552 136 L 552 202 L 554 223 L 556 260 Q 556 272 557 280 C 559 310 500 304 504 274 Z" fill="black"></path>
				<path d="M 805 34 L 813 18 Q 825 -9 841 -6 Q 850 -4 858 8 Q 865 20 869 72 L 868 104 L 869 234 Q 869 266 879 290 L 884 305 Q 884 317 871 325 Q 867 328 843 343 Q 819 357 809 357 Q 799 356 784 351 Q 768 345 732 337 Q 696 328 682 327 L 606 315 C 454 291 482 277 557 280 L 579 281 Q 580 280 598 283 L 713 305 L 749 309 Q 758 310 779 310 Q 791 308 797 304 Q 805 296 808 285 Q 810 268 811 250 L 810 222 L 812 166 L 812 136 L 812 88 L 810 62 C 808 32 803 39 805 34 Z" fill="black"></path>
				<path d="M 552 202 L 570 198 Q 588 192 605 196 L 810 222 C 840 226 840 241 811 250 L 798 254 Q 774 261 750 258 L 732 254 L 694 244 L 562 224 Q 556 224 554 223 C 524 219 523 209 552 202 Z" fill="black"></path>
				<path d="M 552 116 L 563 112 Q 578 109 583 109 Q 588 109 640 116 L 812 136 C 842 139 842 161 812 166 L 784 171 Q 770 174 766 173 Q 762 171 749 170 L 732 166 L 688 157 Q 652 151 646 150 L 602 143 L 552 136 C 522 132 524 126 552 116 Z" fill="black"></path>
				<path d="M 546 26 L 568 25 L 595 25 L 640 27 Q 644 28 658 28 L 676 29 L 764 35 L 786 35 Q 789 34 805 34 C 835 34 838 50 810 62 L 791 70 Q 772 74 767 76 Q 755 76 740 73 Q 725 69 679 65 L 604 58 L 548 56 C 518 55 516 27 546 26 Z" fill="black"></path>
				<path d="M 568 25 L 566 13 Q 566 12 558 -4 Q 550 -20 520 -48 Q 490 -76 478 -86 L 434 -120 L 400 -143 Q 396 -146 396 -151 Q 397 -154 405 -152 L 416 -148 Q 429 -146 460 -133 Q 490 -119 499 -114 Q 507 -109 543 -86 L 612 -37 Q 616 -34 628 -28 L 642 -20 Q 657 -5 621 13 L 610 18 Q 597 24 595 25 C 570 37 570 37 568 25 Z" fill="red"></path>
				<path d="M 778 -54 L 844 -131 Q 859 -146 868 -151 Q 884 -163 895 -162 Q 921 -158 919 -121 Q 916 -64 819 -23 Q 784 -8 767 -4 L 742 2 Q 734 5 729 0.5 Q 724 -4 732 -9 L 778 -54 Z" fill="lightgray"></path>
</g>
		<text x="40" y="140" font-size="128" fill="#999999">16</text></g>
		<g id="id3:id1:id1" transform="matrix(1.0,0,0,1.0,1024,0.0)">			<g stroke="lightgray" stroke-width="4" transform="scale(4, 4)"> <rect x="0" y="0" width="256" height="256" fill="white" stroke-width="4"/></g>
			<g transform="scale(0.92, -0.92) translate(60, -920)">					<path d="M 221 682 Q 212 684 208 678.5 Q 204 673 212 665 L 222 652 Q 222 650 237 635 L 256 612 Q 258 610 272.5 593.5 Q 287 577 299 568 Q 326 553 341 570 Q 348 578 350 596 Q 355 649 283 668 L 243 679 L 221 682 Z" fill="black"></path>
				<path d="M 141 457 Q 131 458 129 455 Q 128 452 130 446 L 137 433 Q 137 430 140 427 Q 143 424 155 408 L 178 378 Q 199 357 210.5 348.5 Q 222 340 236.5 338.5 Q 251 337 258.5 347.5 Q 266 358 266 373 Q 266 407 249 418 Q 235 432 203 441 L 160 453 L 141 457 Z" fill="black"></path>
				<path d="M 298 257 L 254 178 Q 232 142 212 118 L 171 72 Q 151 50 136 39 Q 132 35 120 20 Q 116 10 116 3 Q 116 -4 122 -28 Q 128 -52 133.5 -65.5 Q 139 -79 143.5 -86.5 Q 148 -94 158 -94 Q 166 -96 174 -88.5 Q 182 -81 187 -64.5 Q 192 -48 210 -6 L 230 47 L 258 105 Q 274 135 288 169 L 332 278 Q 336 292 327 296 Q 318 300 312 286 L 298 257 Z" fill="black"></path>
				<path d="M 679 658 L 686 673 Q 691 692 688 715 Q 684 738 649 754 L 623 766 L 602 770 Q 592 772 587 770 Q 579 762 587 749 L 613 697 Q 633 662 650 652 C 670 639 670 639 679 658 Z" fill="black"></path>
				<path d="M 474 629 L 466 655 Q 461 672 451 669 Q 446 669 443 658 L 438 641 Q 432 614 409 578 L 398 559 Q 388 542 389 524.5 Q 390 507 396 496 Q 410 474 435 495 Q 448 508 452 521 Q 456 534 460 542.5 Q 464 551 476 594 L 474 629 Z" fill="black"></path>
				<path d="M 844 691 L 832 688 Q 830 688 828 687 L 794 680 L 761 671 L 679 658 L 650 652 L 597 644 Q 544 634 523 633 L 474 629 C 444 627 446 591 476 594 L 495 596 Q 503 599 543 605 L 761 638 L 814 644 Q 843 646 846 641 Q 855 632 832 599 L 811 569 Q 807 564 809 561 Q 810 558 818 563 L 828 568 L 862 587 Q 866 590 884 598 Q 902 606 906 606 L 938 615 Q 952 619 955 626 Q 957 633 948 647 Q 939 658 912 671 L 875 687 Q 861 691 844 691 Z" fill="black"></path>
				<path d="M 783 550 Q 781 562 756 567 L 726 572 Q 722 572 713 569 L 673 559 Q 656 554 631 550 L 532 530 L 511 527 L 500 526 L 488 522 Q 487 516 495 508 Q 503 500 524.5 499 Q 546 498 552 500 L 557 500 L 578 504 L 600 507 L 640 514 L 738 530 Q 757 535 760 535 Q 783 539 783 550 Z" fill="black"></path>
				<path d="M 600 507 L 606 489 L 606 488 Q 607 486 608 478 L 608 442 L 604 409 Q 605 396 608 391 Q 611 386 623 374 C 644 353 647 356 648 386 L 650 436 L 652 469 Q 652 472 654 484 Q 656 495 654 500 Q 653 506 640 514 C 615 530 591 535 600 507 Z" fill="black"></path>
				<path d="M 386 350 Q 382 349 383.5 344 Q 385 339 400 345 Q 417 349 439.5 362.5 Q 462 376 474 388 L 506 414 L 514 423 L 526 429 Q 529 437 520.5 444 Q 512 451 497 457 Q 489 462 480 464 Q 472 468 466 466 Q 463 464 460.5 453.5 Q 458 443 455 433 L 428 394 Q 423 387 410 374 Q 402 364 394 358 L 386 350 Z" fill="black"></path>
				<path d="M 606 315 L 690 360 L 786 422 L 841 451 Q 850 453 852 455.5 Q 854 458 856 466 Q 856 484 849 491 L 831 512 Q 803 540 794 518 Q 792 511 792 509 Q 787 485 752 454 Q 744 447 717 430 L 648 386 L 623 374 L 572 344 Q 562 339 528 325 Q 472 298 434.5 286.5 Q 397 275 377 268 L 350 262 Q 344 261 342 253 Q 342 246 354 248 L 382 251 Q 446 257 504 274 L 606 315 Z" fill="black"></path>
				<path d="M 504 274 L 507 250 Q 508 235 510 203 L 510 165 Q 505 87 493 59 Q 491 56 499 30 L 510 9 Q 518 -10 527 -10 Q 540 -10 546 26 L 548 56 L 552 116 L 552 136 L 552 202 L 554 223 L 556 260 Q 556 272 557 280 C 559 310 500 304 504 274 Z" fill="black"></path>
				<path d="M 805 34 L 813 18 Q 825 -9 841 -6 Q 850 -4 858 8 Q 865 20 869 72 L 868 104 L 869 234 Q 869 266 879 290 L 884 305 Q 884 317 871 325 Q 867 328 843 343 Q 819 357 809 357 Q 799 356 784 351 Q 768 345 732 337 Q 696 328 682 327 L 606 315 C 454 291 482 277 557 280 L 579 281 Q 580 280 598 283 L 713 305 L 749 309 Q 758 310 779 310 Q 791 308 797 304 Q 805 296 808 285 Q 810 268 811 250 L 810 222 L 812 166 L 812 136 L 812 88 L 810 62 C 808 32 803 39 805 34 Z" fill="black"></path>
				<path d="M 552 202 L 570 198 Q 588 192 605 196 L 810 222 C 840 226 840 241 811 250 L 798 254 Q 774 261 750 258 L 732 254 L 694 244 L 562 224 Q 556 224 554 223 C 524 219 523 209 552 202 Z" fill="black"></path>
				<path d="M 552 116 L 563 112 Q 578 109 583 109 Q 588 109 640 116 L 812 136 C 842 139 842 161 812 166 L 784 171 Q 770 174 766 173 Q 762 171 749 170 L 732 166 L 688 157 Q 652 151 646 150 L 602 143 L 552 136 C 522 132 524 126 552 116 Z" fill="black"></path>
				<path d="M 546 26 L 568 25 L 595 25 L 640 27 Q 644 28 658 28 L 676 29 L 764 35 L 786 35 Q 789 34 805 34 C 835 34 838 50 810 62 L 791 70 Q 772 74 767 76 Q 755 76 740 73 Q 725 69 679 65 L 604 58 L 548 56 C 518 55 516 27 546 26 Z" fill="black"></path>
				<path d="M 568 25 L 566 13 Q 566 12 558 -4 Q 550 -20 520 -48 Q 490 -76 478 -86 L 434 -120 L 400 -143 Q 396 -146 396 -151 Q 397 -154 405 -152 L 416 -148 Q 429 -146 460 -133 Q 490 -119 499 -114 Q 507 -109 543 -86 L 612 -37 Q 616 -34 628 -28 L 642 -20 Q 657 -5 621 13 L 610 18 Q 597 24 595 25 C 570 37 570 37 568 25 Z" fill="black"></path>
				<path d="M 778 -54 L 844 -131 Q 859 -146 868 -151 Q 884 -163 895 -162 Q 921 -158 919 -121 Q 916 -64 819 -23 Q 784 -8 767 -4 L 742 2 Q 734 5 729 0.5 Q 724 -4 732 -9 L 778 -54 Z" fill="red"></path>
</g>
		<text x="40" y="140" font-size="128" fill="#999999">17</text></g>
		<g id="id3:id2:id2" transform="matrix(1.0,0,0,1.0,2048,0.0)">			<g stroke="white" stroke-width="4" transform="scale(4, 4)"> <rect x="1" y="1" width="255" height="255" fill="white" stroke-width="0"/></g>
</g>
		<g id="id3:id3:id3" transform="matrix(1.0,0,0,1.0,3072,0.0)">			<g stroke="white" stroke-width="4" transform="scale(4, 4)"> <rect x="1" y="1" width="255" height="255" fill="white" stroke-width="0"/></g>
</g>
		<g id="id3:id4:id4" transform="matrix(1.0,0,0,1.0,4096,0.0)">			<g stroke="white" stroke-width="4" transform="scale(4, 4)"> <rect x="1" y="1" width="255" height="255" fill="white" stroke-width="0"/></g>
</g>
</g>
</svg>
