<?xml version="1.0" standalone="no"?>
<!DOCTYPE svg PUBLIC "-//W3C//DTD SVG 1.1//EN"
 "http://www.w3.org/Graphics/SVG/1.1/DTD/svg11.dtd">
<!-- generate by Japanese dictionary app com.asnsami.kanjidictionary -->

<svg xmlns="http://www.w3.org/2000/svg" xmlns:sodipodi="http://sodipodi.sourceforge.net/DTD/sodipodi-0.dtd" version="1.1" width="640" height="512" viewBox="0 0 5120 4096">
	<g id="id0:id0" transform="translate(0.0,0)">
		<g id="id0:id0:id0" transform="matrix(1.0,0,0,1.0,0,0.0)">			<g stroke="lightgray" stroke-width="4" transform="scale(4, 4)"> <rect x="0" y="0" width="256" height="256" fill="white" stroke-width="4"/></g>
			<g transform="scale(0.92, -0.92) translate(60, -920)">					<path d="M 99 374 L 123 319 L 137 292 Q 159 263 176 284.5 Q 193 306 184 340.5 Q 175 375 141 390 L 107 403 Q 97 406 93 404 Q 87 398 99 374 Z" fill="red"></path>
				<path d="M 285 384 L 369 438 Q 381 445 392 450 Q 403 454 405 459 Q 407 464 400 476 Q 393 488 371 500 Q 349 512 347 508 Q 343 505 341 500 L 333 479 Q 327 464 319 451 L 285 403 C 268 379 260 368 285 384 Z" fill="lightgray"></path>
				<path d="M 285 403 L 293 566 Q 293 574 297 598 Q 298 620 303.5 632 Q 309 644 309 650 Q 309 661 277 674 L 251 681 Q 214 691 221 664 L 227 642 Q 232 630 233 592 Q 237 554 237 549 L 235 425 Q 232 317 215 216 Q 191 69 97 -32 L 73 -60 Q 67 -67 70 -72 Q 73 -77 83 -71 L 103 -59 Q 121 -48 145 -24 Q 195 24 213.5 58.5 Q 232 93 257 164 L 261 185 L 271 233 Q 274 254 279 298 L 285 384 L 285 403 Z" fill="lightgray"></path>
				<path d="M 257 164 L 303 96 Q 331 56 344 56 Q 357 56 365 67 Q 371 78 367 96 Q 365 115 355 128 Q 340 149 293 170 L 261 185 C 234 197 240 189 257 164 Z" fill="lightgray"></path>
				<path d="M 591 604 Q 604 617 561 640 Q 545 648 538 648 Q 531 648 516 639 Q 501 630 491 628 L 455 620 Q 446 618 430.5 616 Q 415 614 413 611 Q 413 607 419 601 Q 439 583 491 602 Q 513 606 515 602 Q 521 591 481 498 L 465 467 L 449 439 Q 441 424 421 397 L 385 349 Q 367 328 355 317 L 333 295 Q 327 290 327 286 Q 329 283 341 288 L 359 298 Q 382 311 401 326 Q 470 381 533 500 L 555 551 Q 572 586 584 598 L 591 604 Z" fill="lightgray"></path>
				<path d="M 481 498 L 471 514 Q 461 534 428 543 Q 394 552 385 545 Q 383 541 387 532 Q 388 522 406 501 Q 423 480 429 475 Q 448 459 465 467 C 493 478 493 478 481 498 Z" fill="lightgray"></path>
				<path d="M 647 576 L 679 590 L 705 604 Q 725 614 733 617 Q 765 627 718 665 Q 697 682 692 678 Q 687 673 683 660 Q 679 647 671 633 L 639 587 C 624 566 624 566 647 576 Z" fill="lightgray"></path>
				<path d="M 639 587 L 625 599 Q 623 602 612 605 Q 600 607 591 604 C 582 603 582 603 584 598 Q 581 591 591 582 L 607 571 Q 630 555 651 524 L 673 488 L 697 444 L 773 317 Q 783 302 797 292 Q 811 280 824 278 Q 837 276 863 278 L 899 282 Q 904 283 912 286 Q 920 289 935 288 L 947 292 Q 955 294 955 300 Q 955 306 943 312 L 885 338 Q 860 352 830 373 Q 799 393 765 432 L 723 486 L 709 500 L 683 537 Q 673 551 663 560 L 647 576 L 639 587 Z" fill="lightgray"></path>
				<path d="M 723 486 L 803 517 Q 828 527 842 530 Q 856 532 861 537 Q 868 550 842 576 Q 829 589 817 596 Q 805 602 801 600 Q 797 598 788 579 Q 778 559 737 521 L 709 500 C 685 482 695 475 723 486 Z" fill="lightgray"></path>
				<path d="M 512 355 Q 526 354 550 357 L 634 371 L 670 380 Q 692 382 696 388 Q 700 394 699 400 Q 698 406 680 413.5 Q 662 421 648 419 L 588 402 L 502 384 Q 488 382 482 380 Q 469 376 474.5 368 Q 480 360 494 358 L 512 355 Z" fill="lightgray"></path>
				<path d="M 472 262 L 446 268 Q 428 270 424 268 Q 414 258 429 247 Q 443 235 448 208 L 468 122 Q 469 117 474 106 L 500 116 C 508 119 508 120 504 150 L 492 239 C 489 258 489 258 472 262 Z" fill="lightgray"></path>
				<path d="M 704 152 L 732 212 Q 744 233 756 242 Q 764 250 766 253 Q 767 260 759 270 Q 750 280 738 286 L 716 298 Q 704 303 698 303 Q 692 302 666 294 Q 640 286 602 281 L 472 262 C 442 258 462 235 492 239 L 608 254 L 652 258 Q 675 262 680 257 Q 684 252 683 243 L 680 216 L 670 166 C 664 137 691 125 704 152 Z" fill="lightgray"></path>
				<path d="M 688 134 Q 717 140 712 144 L 704 152 C 690 166 690 166 670 166 L 646 166 L 598 160 Q 558 154 504 150 C 474 148 470 113 500 116 L 568 122 Q 617 126 636 127 Q 654 127 688 134 Z" fill="lightgray"></path>
				<path d="M 501 84 Q 488 87 485 83 Q 482 79 486 72 L 524 9 Q 545 -23 566 -25 Q 589 -24 591.5 3.5 Q 594 31 579.5 46.5 Q 565 62 522 77 L 501 84 Z" fill="lightgray"></path>
				<path d="M 652 118 L 662 92 Q 664 87 662 73 L 660 47 L 638 -42 C 631 -71 652 -67 666 -40 L 704 34 Q 705 35 717 56 Q 729 77 729 80 Q 736 85 717 101 Q 683 130 652 118 Z" fill="lightgray"></path>
				<path d="M 638 -42 L 548 -49 L 382 -66 Q 358 -68 341 -68 Q 324 -68 322 -73 Q 320 -78 324 -84 Q 330 -91 347.5 -101.5 Q 365 -112 385.5 -114.5 Q 406 -117 443 -108 Q 480 -99 496 -97 L 562 -90 L 672 -82 L 792 -79 L 846 -80 Q 872 -81 883 -82.5 Q 894 -84 904 -79 Q 914 -75 913 -68.5 Q 912 -62 900 -50 Q 888 -38 858 -28 Q 841 -20 831.5 -19 Q 822 -18 799 -23 Q 776 -28 756 -30 L 722 -34 L 666 -40 L 638 -42 Z" fill="lightgray"></path>
</g>
		<text x="40" y="140" font-size="128" fill="#999999">1</text></g>
		<g id="id0:id1:id1" transform="matrix(1.0,0,0,1.0,1024,0.0)">			<g stroke="lightgray" stroke-width="4" transform="scale(4, 4)"> <rect x="0" y="0" width="256" height="256" fill="white" stroke-width="4"/></g>
			<g transform="scale(0.92, -0.92) translate(60, -920)">					<path d="M 99 374 L 123 319 L 137 292 Q 159 263 176 284.5 Q 193 306 184 340.5 Q 175 375 141 390 L 107 403 Q 97 406 93 404 Q 87 398 99 374 Z" fill="black"></path>
				<path d="M 285 384 L 369 438 Q 381 445 392 450 Q 403 454 405 459 Q 407 464 400 476 Q 393 488 371 500 Q 349 512 347 508 Q 343 505 341 500 L 333 479 Q 327 464 319 451 L 285 403 C 268 379 260 368 285 384 Z" fill="red"></path>
				<path d="M 285 403 L 293 566 Q 293 574 297 598 Q 298 620 303.5 632 Q 309 644 309 650 Q 309 661 277 674 L 251 681 Q 214 691 221 664 L 227 642 Q 232 630 233 592 Q 237 554 237 549 L 235 425 Q 232 317 215 216 Q 191 69 97 -32 L 73 -60 Q 67 -67 70 -72 Q 73 -77 83 -71 L 103 -59 Q 121 -48 145 -24 Q 195 24 213.5 58.5 Q 232 93 257 164 L 261 185 L 271 233 Q 274 254 279 298 L 285 384 L 285 403 Z" fill="lightgray"></path>
				<path d="M 257 164 L 303 96 Q 331 56 344 56 Q 357 56 365 67 Q 371 78 367 96 Q 365 115 355 128 Q 340 149 293 170 L 261 185 C 234 197 240 189 257 164 Z" fill="lightgray"></path>
				<path d="M 591 604 Q 604 617 561 640 Q 545 648 538 648 Q 531 648 516 639 Q 501 630 491 628 L 455 620 Q 446 618 430.5 616 Q 415 614 413 611 Q 413 607 419 601 Q 439 583 491 602 Q 513 606 515 602 Q 521 591 481 498 L 465 467 L 449 439 Q 441 424 421 397 L 385 349 Q 367 328 355 317 L 333 295 Q 327 290 327 286 Q 329 283 341 288 L 359 298 Q 382 311 401 326 Q 470 381 533 500 L 555 551 Q 572 586 584 598 L 591 604 Z" fill="lightgray"></path>
				<path d="M 481 498 L 471 514 Q 461 534 428 543 Q 394 552 385 545 Q 383 541 387 532 Q 388 522 406 501 Q 423 480 429 475 Q 448 459 465 467 C 493 478 493 478 481 498 Z" fill="lightgray"></path>
				<path d="M 647 576 L 679 590 L 705 604 Q 725 614 733 617 Q 765 627 718 665 Q 697 682 692 678 Q 687 673 683 660 Q 679 647 671 633 L 639 587 C 624 566 624 566 647 576 Z" fill="lightgray"></path>
				<path d="M 639 587 L 625 599 Q 623 602 612 605 Q 600 607 591 604 C 582 603 582 603 584 598 Q 581 591 591 582 L 607 571 Q 630 555 651 524 L 673 488 L 697 444 L 773 317 Q 783 302 797 292 Q 811 280 824 278 Q 837 276 863 278 L 899 282 Q 904 283 912 286 Q 920 289 935 288 L 947 292 Q 955 294 955 300 Q 955 306 943 312 L 885 338 Q 860 352 830 373 Q 799 393 765 432 L 723 486 L 709 500 L 683 537 Q 673 551 663 560 L 647 576 L 639 587 Z" fill="lightgray"></path>
				<path d="M 723 486 L 803 517 Q 828 527 842 530 Q 856 532 861 537 Q 868 550 842 576 Q 829 589 817 596 Q 805 602 801 600 Q 797 598 788 579 Q 778 559 737 521 L 709 500 C 685 482 695 475 723 486 Z" fill="lightgray"></path>
				<path d="M 512 355 Q 526 354 550 357 L 634 371 L 670 380 Q 692 382 696 388 Q 700 394 699 400 Q 698 406 680 413.5 Q 662 421 648 419 L 588 402 L 502 384 Q 488 382 482 380 Q 469 376 474.5 368 Q 480 360 494 358 L 512 355 Z" fill="lightgray"></path>
				<path d="M 472 262 L 446 268 Q 428 270 424 268 Q 414 258 429 247 Q 443 235 448 208 L 468 122 Q 469 117 474 106 L 500 116 C 508 119 508 120 504 150 L 492 239 C 489 258 489 258 472 262 Z" fill="lightgray"></path>
				<path d="M 704 152 L 732 212 Q 744 233 756 242 Q 764 250 766 253 Q 767 260 759 270 Q 750 280 738 286 L 716 298 Q 704 303 698 303 Q 692 302 666 294 Q 640 286 602 281 L 472 262 C 442 258 462 235 492 239 L 608 254 L 652 258 Q 675 262 680 257 Q 684 252 683 243 L 680 216 L 670 166 C 664 137 691 125 704 152 Z" fill="lightgray"></path>
				<path d="M 688 134 Q 717 140 712 144 L 704 152 C 690 166 690 166 670 166 L 646 166 L 598 160 Q 558 154 504 150 C 474 148 470 113 500 116 L 568 122 Q 617 126 636 127 Q 654 127 688 134 Z" fill="lightgray"></path>
				<path d="M 501 84 Q 488 87 485 83 Q 482 79 486 72 L 524 9 Q 545 -23 566 -25 Q 589 -24 591.5 3.5 Q 594 31 579.5 46.5 Q 565 62 522 77 L 501 84 Z" fill="lightgray"></path>
				<path d="M 652 118 L 662 92 Q 664 87 662 73 L 660 47 L 638 -42 C 631 -71 652 -67 666 -40 L 704 34 Q 705 35 717 56 Q 729 77 729 80 Q 736 85 717 101 Q 683 130 652 118 Z" fill="lightgray"></path>
				<path d="M 638 -42 L 548 -49 L 382 -66 Q 358 -68 341 -68 Q 324 -68 322 -73 Q 320 -78 324 -84 Q 330 -91 347.5 -101.5 Q 365 -112 385.5 -114.5 Q 406 -117 443 -108 Q 480 -99 496 -97 L 562 -90 L 672 -82 L 792 -79 L 846 -80 Q 872 -81 883 -82.5 Q 894 -84 904 -79 Q 914 -75 913 -68.5 Q 912 -62 900 -50 Q 888 -38 858 -28 Q 841 -20 831.5 -19 Q 822 -18 799 -23 Q 776 -28 756 -30 L 722 -34 L 666 -40 L 638 -42 Z" fill="lightgray"></path>
</g>
		<text x="40" y="140" font-size="128" fill="#999999">2</text></g>
		<g id="id0:id2:id2" transform="matrix(1.0,0,0,1.0,2048,0.0)">			<g stroke="lightgray" stroke-width="4" transform="scale(4, 4)"> <rect x="0" y="0" width="256" height="256" fill="white" stroke-width="4"/></g>
			<g transform="scale(0.92, -0.92) translate(60, -920)">					<path d="M 99 374 L 123 319 L 137 292 Q 159 263 176 284.5 Q 193 306 184 340.5 Q 175 375 141 390 L 107 403 Q 97 406 93 404 Q 87 398 99 374 Z" fill="black"></path>
				<path d="M 285 384 L 369 438 Q 381 445 392 450 Q 403 454 405 459 Q 407 464 400 476 Q 393 488 371 500 Q 349 512 347 508 Q 343 505 341 500 L 333 479 Q 327 464 319 451 L 285 403 C 268 379 260 368 285 384 Z" fill="black"></path>
				<path d="M 285 403 L 293 566 Q 293 574 297 598 Q 298 620 303.5 632 Q 309 644 309 650 Q 309 661 277 674 L 251 681 Q 214 691 221 664 L 227 642 Q 232 630 233 592 Q 237 554 237 549 L 235 425 Q 232 317 215 216 Q 191 69 97 -32 L 73 -60 Q 67 -67 70 -72 Q 73 -77 83 -71 L 103 -59 Q 121 -48 145 -24 Q 195 24 213.5 58.5 Q 232 93 257 164 L 261 185 L 271 233 Q 274 254 279 298 L 285 384 L 285 403 Z" fill="red"></path>
				<path d="M 257 164 L 303 96 Q 331 56 344 56 Q 357 56 365 67 Q 371 78 367 96 Q 365 115 355 128 Q 340 149 293 170 L 261 185 C 234 197 240 189 257 164 Z" fill="lightgray"></path>
				<path d="M 591 604 Q 604 617 561 640 Q 545 648 538 648 Q 531 648 516 639 Q 501 630 491 628 L 455 620 Q 446 618 430.5 616 Q 415 614 413 611 Q 413 607 419 601 Q 439 583 491 602 Q 513 606 515 602 Q 521 591 481 498 L 465 467 L 449 439 Q 441 424 421 397 L 385 349 Q 367 328 355 317 L 333 295 Q 327 290 327 286 Q 329 283 341 288 L 359 298 Q 382 311 401 326 Q 470 381 533 500 L 555 551 Q 572 586 584 598 L 591 604 Z" fill="lightgray"></path>
				<path d="M 481 498 L 471 514 Q 461 534 428 543 Q 394 552 385 545 Q 383 541 387 532 Q 388 522 406 501 Q 423 480 429 475 Q 448 459 465 467 C 493 478 493 478 481 498 Z" fill="lightgray"></path>
				<path d="M 647 576 L 679 590 L 705 604 Q 725 614 733 617 Q 765 627 718 665 Q 697 682 692 678 Q 687 673 683 660 Q 679 647 671 633 L 639 587 C 624 566 624 566 647 576 Z" fill="lightgray"></path>
				<path d="M 639 587 L 625 599 Q 623 602 612 605 Q 600 607 591 604 C 582 603 582 603 584 598 Q 581 591 591 582 L 607 571 Q 630 555 651 524 L 673 488 L 697 444 L 773 317 Q 783 302 797 292 Q 811 280 824 278 Q 837 276 863 278 L 899 282 Q 904 283 912 286 Q 920 289 935 288 L 947 292 Q 955 294 955 300 Q 955 306 943 312 L 885 338 Q 860 352 830 373 Q 799 393 765 432 L 723 486 L 709 500 L 683 537 Q 673 551 663 560 L 647 576 L 639 587 Z" fill="lightgray"></path>
				<path d="M 723 486 L 803 517 Q 828 527 842 530 Q 856 532 861 537 Q 868 550 842 576 Q 829 589 817 596 Q 805 602 801 600 Q 797 598 788 579 Q 778 559 737 521 L 709 500 C 685 482 695 475 723 486 Z" fill="lightgray"></path>
				<path d="M 512 355 Q 526 354 550 357 L 634 371 L 670 380 Q 692 382 696 388 Q 700 394 699 400 Q 698 406 680 413.5 Q 662 421 648 419 L 588 402 L 502 384 Q 488 382 482 380 Q 469 376 474.5 368 Q 480 360 494 358 L 512 355 Z" fill="lightgray"></path>
				<path d="M 472 262 L 446 268 Q 428 270 424 268 Q 414 258 429 247 Q 443 235 448 208 L 468 122 Q 469 117 474 106 L 500 116 C 508 119 508 120 504 150 L 492 239 C 489 258 489 258 472 262 Z" fill="lightgray"></path>
				<path d="M 704 152 L 732 212 Q 744 233 756 242 Q 764 250 766 253 Q 767 260 759 270 Q 750 280 738 286 L 716 298 Q 704 303 698 303 Q 692 302 666 294 Q 640 286 602 281 L 472 262 C 442 258 462 235 492 239 L 608 254 L 652 258 Q 675 262 680 257 Q 684 252 683 243 L 680 216 L 670 166 C 664 137 691 125 704 152 Z" fill="lightgray"></path>
				<path d="M 688 134 Q 717 140 712 144 L 704 152 C 690 166 690 166 670 166 L 646 166 L 598 160 Q 558 154 504 150 C 474 148 470 113 500 116 L 568 122 Q 617 126 636 127 Q 654 127 688 134 Z" fill="lightgray"></path>
				<path d="M 501 84 Q 488 87 485 83 Q 482 79 486 72 L 524 9 Q 545 -23 566 -25 Q 589 -24 591.5 3.5 Q 594 31 579.5 46.5 Q 565 62 522 77 L 501 84 Z" fill="lightgray"></path>
				<path d="M 652 118 L 662 92 Q 664 87 662 73 L 660 47 L 638 -42 C 631 -71 652 -67 666 -40 L 704 34 Q 705 35 717 56 Q 729 77 729 80 Q 736 85 717 101 Q 683 130 652 118 Z" fill="lightgray"></path>
				<path d="M 638 -42 L 548 -49 L 382 -66 Q 358 -68 341 -68 Q 324 -68 322 -73 Q 320 -78 324 -84 Q 330 -91 347.5 -101.5 Q 365 -112 385.5 -114.5 Q 406 -117 443 -108 Q 480 -99 496 -97 L 562 -90 L 672 -82 L 792 -79 L 846 -80 Q 872 -81 883 -82.5 Q 894 -84 904 -79 Q 914 -75 913 -68.5 Q 912 -62 900 -50 Q 888 -38 858 -28 Q 841 -20 831.5 -19 Q 822 -18 799 -23 Q 776 -28 756 -30 L 722 -34 L 666 -40 L 638 -42 Z" fill="lightgray"></path>
</g>
		<text x="40" y="140" font-size="128" fill="#999999">3</text></g>
		<g id="id0:id3:id3" transform="matrix(1.0,0,0,1.0,3072,0.0)">			<g stroke="lightgray" stroke-width="4" transform="scale(4, 4)"> <rect x="0" y="0" width="256" height="256" fill="white" stroke-width="4"/></g>
			<g transform="scale(0.92, -0.92) translate(60, -920)">					<path d="M 99 374 L 123 319 L 137 292 Q 159 263 176 284.5 Q 193 306 184 340.5 Q 175 375 141 390 L 107 403 Q 97 406 93 404 Q 87 398 99 374 Z" fill="black"></path>
				<path d="M 285 384 L 369 438 Q 381 445 392 450 Q 403 454 405 459 Q 407 464 400 476 Q 393 488 371 500 Q 349 512 347 508 Q 343 505 341 500 L 333 479 Q 327 464 319 451 L 285 403 C 268 379 260 368 285 384 Z" fill="black"></path>
				<path d="M 285 403 L 293 566 Q 293 574 297 598 Q 298 620 303.5 632 Q 309 644 309 650 Q 309 661 277 674 L 251 681 Q 214 691 221 664 L 227 642 Q 232 630 233 592 Q 237 554 237 549 L 235 425 Q 232 317 215 216 Q 191 69 97 -32 L 73 -60 Q 67 -67 70 -72 Q 73 -77 83 -71 L 103 -59 Q 121 -48 145 -24 Q 195 24 213.5 58.5 Q 232 93 257 164 L 261 185 L 271 233 Q 274 254 279 298 L 285 384 L 285 403 Z" fill="black"></path>
				<path d="M 257 164 L 303 96 Q 331 56 344 56 Q 357 56 365 67 Q 371 78 367 96 Q 365 115 355 128 Q 340 149 293 170 L 261 185 C 234 197 240 189 257 164 Z" fill="red"></path>
				<path d="M 591 604 Q 604 617 561 640 Q 545 648 538 648 Q 531 648 516 639 Q 501 630 491 628 L 455 620 Q 446 618 430.5 616 Q 415 614 413 611 Q 413 607 419 601 Q 439 583 491 602 Q 513 606 515 602 Q 521 591 481 498 L 465 467 L 449 439 Q 441 424 421 397 L 385 349 Q 367 328 355 317 L 333 295 Q 327 290 327 286 Q 329 283 341 288 L 359 298 Q 382 311 401 326 Q 470 381 533 500 L 555 551 Q 572 586 584 598 L 591 604 Z" fill="lightgray"></path>
				<path d="M 481 498 L 471 514 Q 461 534 428 543 Q 394 552 385 545 Q 383 541 387 532 Q 388 522 406 501 Q 423 480 429 475 Q 448 459 465 467 C 493 478 493 478 481 498 Z" fill="lightgray"></path>
				<path d="M 647 576 L 679 590 L 705 604 Q 725 614 733 617 Q 765 627 718 665 Q 697 682 692 678 Q 687 673 683 660 Q 679 647 671 633 L 639 587 C 624 566 624 566 647 576 Z" fill="lightgray"></path>
				<path d="M 639 587 L 625 599 Q 623 602 612 605 Q 600 607 591 604 C 582 603 582 603 584 598 Q 581 591 591 582 L 607 571 Q 630 555 651 524 L 673 488 L 697 444 L 773 317 Q 783 302 797 292 Q 811 280 824 278 Q 837 276 863 278 L 899 282 Q 904 283 912 286 Q 920 289 935 288 L 947 292 Q 955 294 955 300 Q 955 306 943 312 L 885 338 Q 860 352 830 373 Q 799 393 765 432 L 723 486 L 709 500 L 683 537 Q 673 551 663 560 L 647 576 L 639 587 Z" fill="lightgray"></path>
				<path d="M 723 486 L 803 517 Q 828 527 842 530 Q 856 532 861 537 Q 868 550 842 576 Q 829 589 817 596 Q 805 602 801 600 Q 797 598 788 579 Q 778 559 737 521 L 709 500 C 685 482 695 475 723 486 Z" fill="lightgray"></path>
				<path d="M 512 355 Q 526 354 550 357 L 634 371 L 670 380 Q 692 382 696 388 Q 700 394 699 400 Q 698 406 680 413.5 Q 662 421 648 419 L 588 402 L 502 384 Q 488 382 482 380 Q 469 376 474.5 368 Q 480 360 494 358 L 512 355 Z" fill="lightgray"></path>
				<path d="M 472 262 L 446 268 Q 428 270 424 268 Q 414 258 429 247 Q 443 235 448 208 L 468 122 Q 469 117 474 106 L 500 116 C 508 119 508 120 504 150 L 492 239 C 489 258 489 258 472 262 Z" fill="lightgray"></path>
				<path d="M 704 152 L 732 212 Q 744 233 756 242 Q 764 250 766 253 Q 767 260 759 270 Q 750 280 738 286 L 716 298 Q 704 303 698 303 Q 692 302 666 294 Q 640 286 602 281 L 472 262 C 442 258 462 235 492 239 L 608 254 L 652 258 Q 675 262 680 257 Q 684 252 683 243 L 680 216 L 670 166 C 664 137 691 125 704 152 Z" fill="lightgray"></path>
				<path d="M 688 134 Q 717 140 712 144 L 704 152 C 690 166 690 166 670 166 L 646 166 L 598 160 Q 558 154 504 150 C 474 148 470 113 500 116 L 568 122 Q 617 126 636 127 Q 654 127 688 134 Z" fill="lightgray"></path>
				<path d="M 501 84 Q 488 87 485 83 Q 482 79 486 72 L 524 9 Q 545 -23 566 -25 Q 589 -24 591.5 3.5 Q 594 31 579.5 46.5 Q 565 62 522 77 L 501 84 Z" fill="lightgray"></path>
				<path d="M 652 118 L 662 92 Q 664 87 662 73 L 660 47 L 638 -42 C 631 -71 652 -67 666 -40 L 704 34 Q 705 35 717 56 Q 729 77 729 80 Q 736 85 717 101 Q 683 130 652 118 Z" fill="lightgray"></path>
				<path d="M 638 -42 L 548 -49 L 382 -66 Q 358 -68 341 -68 Q 324 -68 322 -73 Q 320 -78 324 -84 Q 330 -91 347.5 -101.5 Q 365 -112 385.5 -114.5 Q 406 -117 443 -108 Q 480 -99 496 -97 L 562 -90 L 672 -82 L 792 -79 L 846 -80 Q 872 -81 883 -82.5 Q 894 -84 904 -79 Q 914 -75 913 -68.5 Q 912 -62 900 -50 Q 888 -38 858 -28 Q 841 -20 831.5 -19 Q 822 -18 799 -23 Q 776 -28 756 -30 L 722 -34 L 666 -40 L 638 -42 Z" fill="lightgray"></path>
</g>
		<text x="40" y="140" font-size="128" fill="#999999">4</text></g>
		<g id="id0:id4:id4" transform="matrix(1.0,0,0,1.0,4096,0.0)">			<g stroke="lightgray" stroke-width="4" transform="scale(4, 4)"> <rect x="0" y="0" width="256" height="256" fill="white" stroke-width="4"/></g>
			<g transform="scale(0.92, -0.92) translate(60, -920)">					<path d="M 99 374 L 123 319 L 137 292 Q 159 263 176 284.5 Q 193 306 184 340.5 Q 175 375 141 390 L 107 403 Q 97 406 93 404 Q 87 398 99 374 Z" fill="black"></path>
				<path d="M 285 384 L 369 438 Q 381 445 392 450 Q 403 454 405 459 Q 407 464 400 476 Q 393 488 371 500 Q 349 512 347 508 Q 343 505 341 500 L 333 479 Q 327 464 319 451 L 285 403 C 268 379 260 368 285 384 Z" fill="black"></path>
				<path d="M 285 403 L 293 566 Q 293 574 297 598 Q 298 620 303.5 632 Q 309 644 309 650 Q 309 661 277 674 L 251 681 Q 214 691 221 664 L 227 642 Q 232 630 233 592 Q 237 554 237 549 L 235 425 Q 232 317 215 216 Q 191 69 97 -32 L 73 -60 Q 67 -67 70 -72 Q 73 -77 83 -71 L 103 -59 Q 121 -48 145 -24 Q 195 24 213.5 58.5 Q 232 93 257 164 L 261 185 L 271 233 Q 274 254 279 298 L 285 384 L 285 403 Z" fill="black"></path>
				<path d="M 257 164 L 303 96 Q 331 56 344 56 Q 357 56 365 67 Q 371 78 367 96 Q 365 115 355 128 Q 340 149 293 170 L 261 185 C 234 197 240 189 257 164 Z" fill="black"></path>
				<path d="M 591 604 Q 604 617 561 640 Q 545 648 538 648 Q 531 648 516 639 Q 501 630 491 628 L 455 620 Q 446 618 430.5 616 Q 415 614 413 611 Q 413 607 419 601 Q 439 583 491 602 Q 513 606 515 602 Q 521 591 481 498 L 465 467 L 449 439 Q 441 424 421 397 L 385 349 Q 367 328 355 317 L 333 295 Q 327 290 327 286 Q 329 283 341 288 L 359 298 Q 382 311 401 326 Q 470 381 533 500 L 555 551 Q 572 586 584 598 L 591 604 Z" fill="red"></path>
				<path d="M 481 498 L 471 514 Q 461 534 428 543 Q 394 552 385 545 Q 383 541 387 532 Q 388 522 406 501 Q 423 480 429 475 Q 448 459 465 467 C 493 478 493 478 481 498 Z" fill="lightgray"></path>
				<path d="M 647 576 L 679 590 L 705 604 Q 725 614 733 617 Q 765 627 718 665 Q 697 682 692 678 Q 687 673 683 660 Q 679 647 671 633 L 639 587 C 624 566 624 566 647 576 Z" fill="lightgray"></path>
				<path d="M 639 587 L 625 599 Q 623 602 612 605 Q 600 607 591 604 C 582 603 582 603 584 598 Q 581 591 591 582 L 607 571 Q 630 555 651 524 L 673 488 L 697 444 L 773 317 Q 783 302 797 292 Q 811 280 824 278 Q 837 276 863 278 L 899 282 Q 904 283 912 286 Q 920 289 935 288 L 947 292 Q 955 294 955 300 Q 955 306 943 312 L 885 338 Q 860 352 830 373 Q 799 393 765 432 L 723 486 L 709 500 L 683 537 Q 673 551 663 560 L 647 576 L 639 587 Z" fill="lightgray"></path>
				<path d="M 723 486 L 803 517 Q 828 527 842 530 Q 856 532 861 537 Q 868 550 842 576 Q 829 589 817 596 Q 805 602 801 600 Q 797 598 788 579 Q 778 559 737 521 L 709 500 C 685 482 695 475 723 486 Z" fill="lightgray"></path>
				<path d="M 512 355 Q 526 354 550 357 L 634 371 L 670 380 Q 692 382 696 388 Q 700 394 699 400 Q 698 406 680 413.5 Q 662 421 648 419 L 588 402 L 502 384 Q 488 382 482 380 Q 469 376 474.5 368 Q 480 360 494 358 L 512 355 Z" fill="lightgray"></path>
				<path d="M 472 262 L 446 268 Q 428 270 424 268 Q 414 258 429 247 Q 443 235 448 208 L 468 122 Q 469 117 474 106 L 500 116 C 508 119 508 120 504 150 L 492 239 C 489 258 489 258 472 262 Z" fill="lightgray"></path>
				<path d="M 704 152 L 732 212 Q 744 233 756 242 Q 764 250 766 253 Q 767 260 759 270 Q 750 280 738 286 L 716 298 Q 704 303 698 303 Q 692 302 666 294 Q 640 286 602 281 L 472 262 C 442 258 462 235 492 239 L 608 254 L 652 258 Q 675 262 680 257 Q 684 252 683 243 L 680 216 L 670 166 C 664 137 691 125 704 152 Z" fill="lightgray"></path>
				<path d="M 688 134 Q 717 140 712 144 L 704 152 C 690 166 690 166 670 166 L 646 166 L 598 160 Q 558 154 504 150 C 474 148 470 113 500 116 L 568 122 Q 617 126 636 127 Q 654 127 688 134 Z" fill="lightgray"></path>
				<path d="M 501 84 Q 488 87 485 83 Q 482 79 486 72 L 524 9 Q 545 -23 566 -25 Q 589 -24 591.5 3.5 Q 594 31 579.5 46.5 Q 565 62 522 77 L 501 84 Z" fill="lightgray"></path>
				<path d="M 652 118 L 662 92 Q 664 87 662 73 L 660 47 L 638 -42 C 631 -71 652 -67 666 -40 L 704 34 Q 705 35 717 56 Q 729 77 729 80 Q 736 85 717 101 Q 683 130 652 118 Z" fill="lightgray"></path>
				<path d="M 638 -42 L 548 -49 L 382 -66 Q 358 -68 341 -68 Q 324 -68 322 -73 Q 320 -78 324 -84 Q 330 -91 347.5 -101.5 Q 365 -112 385.5 -114.5 Q 406 -117 443 -108 Q 480 -99 496 -97 L 562 -90 L 672 -82 L 792 -79 L 846 -80 Q 872 -81 883 -82.5 Q 894 -84 904 -79 Q 914 -75 913 -68.5 Q 912 -62 900 -50 Q 888 -38 858 -28 Q 841 -20 831.5 -19 Q 822 -18 799 -23 Q 776 -28 756 -30 L 722 -34 L 666 -40 L 638 -42 Z" fill="lightgray"></path>
</g>
		<text x="40" y="140" font-size="128" fill="#999999">5</text></g>
</g>
	<g id="id1:id1" transform="translate(0.0,1024)">
		<g id="id1:id0:id0" transform="matrix(1.0,0,0,1.0,0,0.0)">			<g stroke="lightgray" stroke-width="4" transform="scale(4, 4)"> <rect x="0" y="0" width="256" height="256" fill="white" stroke-width="4"/></g>
			<g transform="scale(0.92, -0.92) translate(60, -920)">					<path d="M 99 374 L 123 319 L 137 292 Q 159 263 176 284.5 Q 193 306 184 340.5 Q 175 375 141 390 L 107 403 Q 97 406 93 404 Q 87 398 99 374 Z" fill="black"></path>
				<path d="M 285 384 L 369 438 Q 381 445 392 450 Q 403 454 405 459 Q 407 464 400 476 Q 393 488 371 500 Q 349 512 347 508 Q 343 505 341 500 L 333 479 Q 327 464 319 451 L 285 403 C 268 379 260 368 285 384 Z" fill="black"></path>
				<path d="M 285 403 L 293 566 Q 293 574 297 598 Q 298 620 303.5 632 Q 309 644 309 650 Q 309 661 277 674 L 251 681 Q 214 691 221 664 L 227 642 Q 232 630 233 592 Q 237 554 237 549 L 235 425 Q 232 317 215 216 Q 191 69 97 -32 L 73 -60 Q 67 -67 70 -72 Q 73 -77 83 -71 L 103 -59 Q 121 -48 145 -24 Q 195 24 213.5 58.5 Q 232 93 257 164 L 261 185 L 271 233 Q 274 254 279 298 L 285 384 L 285 403 Z" fill="black"></path>
				<path d="M 257 164 L 303 96 Q 331 56 344 56 Q 357 56 365 67 Q 371 78 367 96 Q 365 115 355 128 Q 340 149 293 170 L 261 185 C 234 197 240 189 257 164 Z" fill="black"></path>
				<path d="M 591 604 Q 604 617 561 640 Q 545 648 538 648 Q 531 648 516 639 Q 501 630 491 628 L 455 620 Q 446 618 430.5 616 Q 415 614 413 611 Q 413 607 419 601 Q 439 583 491 602 Q 513 606 515 602 Q 521 591 481 498 L 465 467 L 449 439 Q 441 424 421 397 L 385 349 Q 367 328 355 317 L 333 295 Q 327 290 327 286 Q 329 283 341 288 L 359 298 Q 382 311 401 326 Q 470 381 533 500 L 555 551 Q 572 586 584 598 L 591 604 Z" fill="black"></path>
				<path d="M 481 498 L 471 514 Q 461 534 428 543 Q 394 552 385 545 Q 383 541 387 532 Q 388 522 406 501 Q 423 480 429 475 Q 448 459 465 467 C 493 478 493 478 481 498 Z" fill="red"></path>
				<path d="M 647 576 L 679 590 L 705 604 Q 725 614 733 617 Q 765 627 718 665 Q 697 682 692 678 Q 687 673 683 660 Q 679 647 671 633 L 639 587 C 624 566 624 566 647 576 Z" fill="lightgray"></path>
				<path d="M 639 587 L 625 599 Q 623 602 612 605 Q 600 607 591 604 C 582 603 582 603 584 598 Q 581 591 591 582 L 607 571 Q 630 555 651 524 L 673 488 L 697 444 L 773 317 Q 783 302 797 292 Q 811 280 824 278 Q 837 276 863 278 L 899 282 Q 904 283 912 286 Q 920 289 935 288 L 947 292 Q 955 294 955 300 Q 955 306 943 312 L 885 338 Q 860 352 830 373 Q 799 393 765 432 L 723 486 L 709 500 L 683 537 Q 673 551 663 560 L 647 576 L 639 587 Z" fill="lightgray"></path>
				<path d="M 723 486 L 803 517 Q 828 527 842 530 Q 856 532 861 537 Q 868 550 842 576 Q 829 589 817 596 Q 805 602 801 600 Q 797 598 788 579 Q 778 559 737 521 L 709 500 C 685 482 695 475 723 486 Z" fill="lightgray"></path>
				<path d="M 512 355 Q 526 354 550 357 L 634 371 L 670 380 Q 692 382 696 388 Q 700 394 699 400 Q 698 406 680 413.5 Q 662 421 648 419 L 588 402 L 502 384 Q 488 382 482 380 Q 469 376 474.5 368 Q 480 360 494 358 L 512 355 Z" fill="lightgray"></path>
				<path d="M 472 262 L 446 268 Q 428 270 424 268 Q 414 258 429 247 Q 443 235 448 208 L 468 122 Q 469 117 474 106 L 500 116 C 508 119 508 120 504 150 L 492 239 C 489 258 489 258 472 262 Z" fill="lightgray"></path>
				<path d="M 704 152 L 732 212 Q 744 233 756 242 Q 764 250 766 253 Q 767 260 759 270 Q 750 280 738 286 L 716 298 Q 704 303 698 303 Q 692 302 666 294 Q 640 286 602 281 L 472 262 C 442 258 462 235 492 239 L 608 254 L 652 258 Q 675 262 680 257 Q 684 252 683 243 L 680 216 L 670 166 C 664 137 691 125 704 152 Z" fill="lightgray"></path>
				<path d="M 688 134 Q 717 140 712 144 L 704 152 C 690 166 690 166 670 166 L 646 166 L 598 160 Q 558 154 504 150 C 474 148 470 113 500 116 L 568 122 Q 617 126 636 127 Q 654 127 688 134 Z" fill="lightgray"></path>
				<path d="M 501 84 Q 488 87 485 83 Q 482 79 486 72 L 524 9 Q 545 -23 566 -25 Q 589 -24 591.5 3.5 Q 594 31 579.5 46.5 Q 565 62 522 77 L 501 84 Z" fill="lightgray"></path>
				<path d="M 652 118 L 662 92 Q 664 87 662 73 L 660 47 L 638 -42 C 631 -71 652 -67 666 -40 L 704 34 Q 705 35 717 56 Q 729 77 729 80 Q 736 85 717 101 Q 683 130 652 118 Z" fill="lightgray"></path>
				<path d="M 638 -42 L 548 -49 L 382 -66 Q 358 -68 341 -68 Q 324 -68 322 -73 Q 320 -78 324 -84 Q 330 -91 347.5 -101.5 Q 365 -112 385.5 -114.5 Q 406 -117 443 -108 Q 480 -99 496 -97 L 562 -90 L 672 -82 L 792 -79 L 846 -80 Q 872 -81 883 -82.5 Q 894 -84 904 -79 Q 914 -75 913 -68.5 Q 912 -62 900 -50 Q 888 -38 858 -28 Q 841 -20 831.5 -19 Q 822 -18 799 -23 Q 776 -28 756 -30 L 722 -34 L 666 -40 L 638 -42 Z" fill="lightgray"></path>
</g>
		<text x="40" y="140" font-size="128" fill="#999999">6</text></g>
		<g id="id1:id1:id1" transform="matrix(1.0,0,0,1.0,1024,0.0)">			<g stroke="lightgray" stroke-width="4" transform="scale(4, 4)"> <rect x="0" y="0" width="256" height="256" fill="white" stroke-width="4"/></g>
			<g transform="scale(0.92, -0.92) translate(60, -920)">					<path d="M 99 374 L 123 319 L 137 292 Q 159 263 176 284.5 Q 193 306 184 340.5 Q 175 375 141 390 L 107 403 Q 97 406 93 404 Q 87 398 99 374 Z" fill="black"></path>
				<path d="M 285 384 L 369 438 Q 381 445 392 450 Q 403 454 405 459 Q 407 464 400 476 Q 393 488 371 500 Q 349 512 347 508 Q 343 505 341 500 L 333 479 Q 327 464 319 451 L 285 403 C 268 379 260 368 285 384 Z" fill="black"></path>
				<path d="M 285 403 L 293 566 Q 293 574 297 598 Q 298 620 303.5 632 Q 309 644 309 650 Q 309 661 277 674 L 251 681 Q 214 691 221 664 L 227 642 Q 232 630 233 592 Q 237 554 237 549 L 235 425 Q 232 317 215 216 Q 191 69 97 -32 L 73 -60 Q 67 -67 70 -72 Q 73 -77 83 -71 L 103 -59 Q 121 -48 145 -24 Q 195 24 213.5 58.5 Q 232 93 257 164 L 261 185 L 271 233 Q 274 254 279 298 L 285 384 L 285 403 Z" fill="black"></path>
				<path d="M 257 164 L 303 96 Q 331 56 344 56 Q 357 56 365 67 Q 371 78 367 96 Q 365 115 355 128 Q 340 149 293 170 L 261 185 C 234 197 240 189 257 164 Z" fill="black"></path>
				<path d="M 591 604 Q 604 617 561 640 Q 545 648 538 648 Q 531 648 516 639 Q 501 630 491 628 L 455 620 Q 446 618 430.5 616 Q 415 614 413 611 Q 413 607 419 601 Q 439 583 491 602 Q 513 606 515 602 Q 521 591 481 498 L 465 467 L 449 439 Q 441 424 421 397 L 385 349 Q 367 328 355 317 L 333 295 Q 327 290 327 286 Q 329 283 341 288 L 359 298 Q 382 311 401 326 Q 470 381 533 500 L 555 551 Q 572 586 584 598 L 591 604 Z" fill="black"></path>
				<path d="M 481 498 L 471 514 Q 461 534 428 543 Q 394 552 385 545 Q 383 541 387 532 Q 388 522 406 501 Q 423 480 429 475 Q 448 459 465 467 C 493 478 493 478 481 498 Z" fill="black"></path>
				<path d="M 647 576 L 679 590 L 705 604 Q 725 614 733 617 Q 765 627 718 665 Q 697 682 692 678 Q 687 673 683 660 Q 679 647 671 633 L 639 587 C 624 566 624 566 647 576 Z" fill="red"></path>
				<path d="M 639 587 L 625 599 Q 623 602 612 605 Q 600 607 591 604 C 582 603 582 603 584 598 Q 581 591 591 582 L 607 571 Q 630 555 651 524 L 673 488 L 697 444 L 773 317 Q 783 302 797 292 Q 811 280 824 278 Q 837 276 863 278 L 899 282 Q 904 283 912 286 Q 920 289 935 288 L 947 292 Q 955 294 955 300 Q 955 306 943 312 L 885 338 Q 860 352 830 373 Q 799 393 765 432 L 723 486 L 709 500 L 683 537 Q 673 551 663 560 L 647 576 L 639 587 Z" fill="lightgray"></path>
				<path d="M 723 486 L 803 517 Q 828 527 842 530 Q 856 532 861 537 Q 868 550 842 576 Q 829 589 817 596 Q 805 602 801 600 Q 797 598 788 579 Q 778 559 737 521 L 709 500 C 685 482 695 475 723 486 Z" fill="lightgray"></path>
				<path d="M 512 355 Q 526 354 550 357 L 634 371 L 670 380 Q 692 382 696 388 Q 700 394 699 400 Q 698 406 680 413.5 Q 662 421 648 419 L 588 402 L 502 384 Q 488 382 482 380 Q 469 376 474.5 368 Q 480 360 494 358 L 512 355 Z" fill="lightgray"></path>
				<path d="M 472 262 L 446 268 Q 428 270 424 268 Q 414 258 429 247 Q 443 235 448 208 L 468 122 Q 469 117 474 106 L 500 116 C 508 119 508 120 504 150 L 492 239 C 489 258 489 258 472 262 Z" fill="lightgray"></path>
				<path d="M 704 152 L 732 212 Q 744 233 756 242 Q 764 250 766 253 Q 767 260 759 270 Q 750 280 738 286 L 716 298 Q 704 303 698 303 Q 692 302 666 294 Q 640 286 602 281 L 472 262 C 442 258 462 235 492 239 L 608 254 L 652 258 Q 675 262 680 257 Q 684 252 683 243 L 680 216 L 670 166 C 664 137 691 125 704 152 Z" fill="lightgray"></path>
				<path d="M 688 134 Q 717 140 712 144 L 704 152 C 690 166 690 166 670 166 L 646 166 L 598 160 Q 558 154 504 150 C 474 148 470 113 500 116 L 568 122 Q 617 126 636 127 Q 654 127 688 134 Z" fill="lightgray"></path>
				<path d="M 501 84 Q 488 87 485 83 Q 482 79 486 72 L 524 9 Q 545 -23 566 -25 Q 589 -24 591.5 3.5 Q 594 31 579.5 46.5 Q 565 62 522 77 L 501 84 Z" fill="lightgray"></path>
				<path d="M 652 118 L 662 92 Q 664 87 662 73 L 660 47 L 638 -42 C 631 -71 652 -67 666 -40 L 704 34 Q 705 35 717 56 Q 729 77 729 80 Q 736 85 717 101 Q 683 130 652 118 Z" fill="lightgray"></path>
				<path d="M 638 -42 L 548 -49 L 382 -66 Q 358 -68 341 -68 Q 324 -68 322 -73 Q 320 -78 324 -84 Q 330 -91 347.5 -101.5 Q 365 -112 385.5 -114.5 Q 406 -117 443 -108 Q 480 -99 496 -97 L 562 -90 L 672 -82 L 792 -79 L 846 -80 Q 872 -81 883 -82.5 Q 894 -84 904 -79 Q 914 -75 913 -68.5 Q 912 -62 900 -50 Q 888 -38 858 -28 Q 841 -20 831.5 -19 Q 822 -18 799 -23 Q 776 -28 756 -30 L 722 -34 L 666 -40 L 638 -42 Z" fill="lightgray"></path>
</g>
		<text x="40" y="140" font-size="128" fill="#999999">7</text></g>
		<g id="id1:id2:id2" transform="matrix(1.0,0,0,1.0,2048,0.0)">			<g stroke="lightgray" stroke-width="4" transform="scale(4, 4)"> <rect x="0" y="0" width="256" height="256" fill="white" stroke-width="4"/></g>
			<g transform="scale(0.92, -0.92) translate(60, -920)">					<path d="M 99 374 L 123 319 L 137 292 Q 159 263 176 284.5 Q 193 306 184 340.5 Q 175 375 141 390 L 107 403 Q 97 406 93 404 Q 87 398 99 374 Z" fill="black"></path>
				<path d="M 285 384 L 369 438 Q 381 445 392 450 Q 403 454 405 459 Q 407 464 400 476 Q 393 488 371 500 Q 349 512 347 508 Q 343 505 341 500 L 333 479 Q 327 464 319 451 L 285 403 C 268 379 260 368 285 384 Z" fill="black"></path>
				<path d="M 285 403 L 293 566 Q 293 574 297 598 Q 298 620 303.5 632 Q 309 644 309 650 Q 309 661 277 674 L 251 681 Q 214 691 221 664 L 227 642 Q 232 630 233 592 Q 237 554 237 549 L 235 425 Q 232 317 215 216 Q 191 69 97 -32 L 73 -60 Q 67 -67 70 -72 Q 73 -77 83 -71 L 103 -59 Q 121 -48 145 -24 Q 195 24 213.5 58.5 Q 232 93 257 164 L 261 185 L 271 233 Q 274 254 279 298 L 285 384 L 285 403 Z" fill="black"></path>
				<path d="M 257 164 L 303 96 Q 331 56 344 56 Q 357 56 365 67 Q 371 78 367 96 Q 365 115 355 128 Q 340 149 293 170 L 261 185 C 234 197 240 189 257 164 Z" fill="black"></path>
				<path d="M 591 604 Q 604 617 561 640 Q 545 648 538 648 Q 531 648 516 639 Q 501 630 491 628 L 455 620 Q 446 618 430.5 616 Q 415 614 413 611 Q 413 607 419 601 Q 439 583 491 602 Q 513 606 515 602 Q 521 591 481 498 L 465 467 L 449 439 Q 441 424 421 397 L 385 349 Q 367 328 355 317 L 333 295 Q 327 290 327 286 Q 329 283 341 288 L 359 298 Q 382 311 401 326 Q 470 381 533 500 L 555 551 Q 572 586 584 598 L 591 604 Z" fill="black"></path>
				<path d="M 481 498 L 471 514 Q 461 534 428 543 Q 394 552 385 545 Q 383 541 387 532 Q 388 522 406 501 Q 423 480 429 475 Q 448 459 465 467 C 493 478 493 478 481 498 Z" fill="black"></path>
				<path d="M 647 576 L 679 590 L 705 604 Q 725 614 733 617 Q 765 627 718 665 Q 697 682 692 678 Q 687 673 683 660 Q 679 647 671 633 L 639 587 C 624 566 624 566 647 576 Z" fill="black"></path>
				<path d="M 639 587 L 625 599 Q 623 602 612 605 Q 600 607 591 604 C 582 603 582 603 584 598 Q 581 591 591 582 L 607 571 Q 630 555 651 524 L 673 488 L 697 444 L 773 317 Q 783 302 797 292 Q 811 280 824 278 Q 837 276 863 278 L 899 282 Q 904 283 912 286 Q 920 289 935 288 L 947 292 Q 955 294 955 300 Q 955 306 943 312 L 885 338 Q 860 352 830 373 Q 799 393 765 432 L 723 486 L 709 500 L 683 537 Q 673 551 663 560 L 647 576 L 639 587 Z" fill="red"></path>
				<path d="M 723 486 L 803 517 Q 828 527 842 530 Q 856 532 861 537 Q 868 550 842 576 Q 829 589 817 596 Q 805 602 801 600 Q 797 598 788 579 Q 778 559 737 521 L 709 500 C 685 482 695 475 723 486 Z" fill="lightgray"></path>
				<path d="M 512 355 Q 526 354 550 357 L 634 371 L 670 380 Q 692 382 696 388 Q 700 394 699 400 Q 698 406 680 413.5 Q 662 421 648 419 L 588 402 L 502 384 Q 488 382 482 380 Q 469 376 474.5 368 Q 480 360 494 358 L 512 355 Z" fill="lightgray"></path>
				<path d="M 472 262 L 446 268 Q 428 270 424 268 Q 414 258 429 247 Q 443 235 448 208 L 468 122 Q 469 117 474 106 L 500 116 C 508 119 508 120 504 150 L 492 239 C 489 258 489 258 472 262 Z" fill="lightgray"></path>
				<path d="M 704 152 L 732 212 Q 744 233 756 242 Q 764 250 766 253 Q 767 260 759 270 Q 750 280 738 286 L 716 298 Q 704 303 698 303 Q 692 302 666 294 Q 640 286 602 281 L 472 262 C 442 258 462 235 492 239 L 608 254 L 652 258 Q 675 262 680 257 Q 684 252 683 243 L 680 216 L 670 166 C 664 137 691 125 704 152 Z" fill="lightgray"></path>
				<path d="M 688 134 Q 717 140 712 144 L 704 152 C 690 166 690 166 670 166 L 646 166 L 598 160 Q 558 154 504 150 C 474 148 470 113 500 116 L 568 122 Q 617 126 636 127 Q 654 127 688 134 Z" fill="lightgray"></path>
				<path d="M 501 84 Q 488 87 485 83 Q 482 79 486 72 L 524 9 Q 545 -23 566 -25 Q 589 -24 591.5 3.5 Q 594 31 579.5 46.5 Q 565 62 522 77 L 501 84 Z" fill="lightgray"></path>
				<path d="M 652 118 L 662 92 Q 664 87 662 73 L 660 47 L 638 -42 C 631 -71 652 -67 666 -40 L 704 34 Q 705 35 717 56 Q 729 77 729 80 Q 736 85 717 101 Q 683 130 652 118 Z" fill="lightgray"></path>
				<path d="M 638 -42 L 548 -49 L 382 -66 Q 358 -68 341 -68 Q 324 -68 322 -73 Q 320 -78 324 -84 Q 330 -91 347.5 -101.5 Q 365 -112 385.5 -114.5 Q 406 -117 443 -108 Q 480 -99 496 -97 L 562 -90 L 672 -82 L 792 -79 L 846 -80 Q 872 -81 883 -82.5 Q 894 -84 904 -79 Q 914 -75 913 -68.5 Q 912 -62 900 -50 Q 888 -38 858 -28 Q 841 -20 831.5 -19 Q 822 -18 799 -23 Q 776 -28 756 -30 L 722 -34 L 666 -40 L 638 -42 Z" fill="lightgray"></path>
</g>
		<text x="40" y="140" font-size="128" fill="#999999">8</text></g>
		<g id="id1:id3:id3" transform="matrix(1.0,0,0,1.0,3072,0.0)">			<g stroke="lightgray" stroke-width="4" transform="scale(4, 4)"> <rect x="0" y="0" width="256" height="256" fill="white" stroke-width="4"/></g>
			<g transform="scale(0.92, -0.92) translate(60, -920)">					<path d="M 99 374 L 123 319 L 137 292 Q 159 263 176 284.5 Q 193 306 184 340.5 Q 175 375 141 390 L 107 403 Q 97 406 93 404 Q 87 398 99 374 Z" fill="black"></path>
				<path d="M 285 384 L 369 438 Q 381 445 392 450 Q 403 454 405 459 Q 407 464 400 476 Q 393 488 371 500 Q 349 512 347 508 Q 343 505 341 500 L 333 479 Q 327 464 319 451 L 285 403 C 268 379 260 368 285 384 Z" fill="black"></path>
				<path d="M 285 403 L 293 566 Q 293 574 297 598 Q 298 620 303.5 632 Q 309 644 309 650 Q 309 661 277 674 L 251 681 Q 214 691 221 664 L 227 642 Q 232 630 233 592 Q 237 554 237 549 L 235 425 Q 232 317 215 216 Q 191 69 97 -32 L 73 -60 Q 67 -67 70 -72 Q 73 -77 83 -71 L 103 -59 Q 121 -48 145 -24 Q 195 24 213.5 58.5 Q 232 93 257 164 L 261 185 L 271 233 Q 274 254 279 298 L 285 384 L 285 403 Z" fill="black"></path>
				<path d="M 257 164 L 303 96 Q 331 56 344 56 Q 357 56 365 67 Q 371 78 367 96 Q 365 115 355 128 Q 340 149 293 170 L 261 185 C 234 197 240 189 257 164 Z" fill="black"></path>
				<path d="M 591 604 Q 604 617 561 640 Q 545 648 538 648 Q 531 648 516 639 Q 501 630 491 628 L 455 620 Q 446 618 430.5 616 Q 415 614 413 611 Q 413 607 419 601 Q 439 583 491 602 Q 513 606 515 602 Q 521 591 481 498 L 465 467 L 449 439 Q 441 424 421 397 L 385 349 Q 367 328 355 317 L 333 295 Q 327 290 327 286 Q 329 283 341 288 L 359 298 Q 382 311 401 326 Q 470 381 533 500 L 555 551 Q 572 586 584 598 L 591 604 Z" fill="black"></path>
				<path d="M 481 498 L 471 514 Q 461 534 428 543 Q 394 552 385 545 Q 383 541 387 532 Q 388 522 406 501 Q 423 480 429 475 Q 448 459 465 467 C 493 478 493 478 481 498 Z" fill="black"></path>
				<path d="M 647 576 L 679 590 L 705 604 Q 725 614 733 617 Q 765 627 718 665 Q 697 682 692 678 Q 687 673 683 660 Q 679 647 671 633 L 639 587 C 624 566 624 566 647 576 Z" fill="black"></path>
				<path d="M 639 587 L 625 599 Q 623 602 612 605 Q 600 607 591 604 C 582 603 582 603 584 598 Q 581 591 591 582 L 607 571 Q 630 555 651 524 L 673 488 L 697 444 L 773 317 Q 783 302 797 292 Q 811 280 824 278 Q 837 276 863 278 L 899 282 Q 904 283 912 286 Q 920 289 935 288 L 947 292 Q 955 294 955 300 Q 955 306 943 312 L 885 338 Q 860 352 830 373 Q 799 393 765 432 L 723 486 L 709 500 L 683 537 Q 673 551 663 560 L 647 576 L 639 587 Z" fill="black"></path>
				<path d="M 723 486 L 803 517 Q 828 527 842 530 Q 856 532 861 537 Q 868 550 842 576 Q 829 589 817 596 Q 805 602 801 600 Q 797 598 788 579 Q 778 559 737 521 L 709 500 C 685 482 695 475 723 486 Z" fill="red"></path>
				<path d="M 512 355 Q 526 354 550 357 L 634 371 L 670 380 Q 692 382 696 388 Q 700 394 699 400 Q 698 406 680 413.5 Q 662 421 648 419 L 588 402 L 502 384 Q 488 382 482 380 Q 469 376 474.5 368 Q 480 360 494 358 L 512 355 Z" fill="lightgray"></path>
				<path d="M 472 262 L 446 268 Q 428 270 424 268 Q 414 258 429 247 Q 443 235 448 208 L 468 122 Q 469 117 474 106 L 500 116 C 508 119 508 120 504 150 L 492 239 C 489 258 489 258 472 262 Z" fill="lightgray"></path>
				<path d="M 704 152 L 732 212 Q 744 233 756 242 Q 764 250 766 253 Q 767 260 759 270 Q 750 280 738 286 L 716 298 Q 704 303 698 303 Q 692 302 666 294 Q 640 286 602 281 L 472 262 C 442 258 462 235 492 239 L 608 254 L 652 258 Q 675 262 680 257 Q 684 252 683 243 L 680 216 L 670 166 C 664 137 691 125 704 152 Z" fill="lightgray"></path>
				<path d="M 688 134 Q 717 140 712 144 L 704 152 C 690 166 690 166 670 166 L 646 166 L 598 160 Q 558 154 504 150 C 474 148 470 113 500 116 L 568 122 Q 617 126 636 127 Q 654 127 688 134 Z" fill="lightgray"></path>
				<path d="M 501 84 Q 488 87 485 83 Q 482 79 486 72 L 524 9 Q 545 -23 566 -25 Q 589 -24 591.5 3.5 Q 594 31 579.5 46.5 Q 565 62 522 77 L 501 84 Z" fill="lightgray"></path>
				<path d="M 652 118 L 662 92 Q 664 87 662 73 L 660 47 L 638 -42 C 631 -71 652 -67 666 -40 L 704 34 Q 705 35 717 56 Q 729 77 729 80 Q 736 85 717 101 Q 683 130 652 118 Z" fill="lightgray"></path>
				<path d="M 638 -42 L 548 -49 L 382 -66 Q 358 -68 341 -68 Q 324 -68 322 -73 Q 320 -78 324 -84 Q 330 -91 347.5 -101.5 Q 365 -112 385.5 -114.5 Q 406 -117 443 -108 Q 480 -99 496 -97 L 562 -90 L 672 -82 L 792 -79 L 846 -80 Q 872 -81 883 -82.5 Q 894 -84 904 -79 Q 914 -75 913 -68.5 Q 912 -62 900 -50 Q 888 -38 858 -28 Q 841 -20 831.5 -19 Q 822 -18 799 -23 Q 776 -28 756 -30 L 722 -34 L 666 -40 L 638 -42 Z" fill="lightgray"></path>
</g>
		<text x="40" y="140" font-size="128" fill="#999999">9</text></g>
		<g id="id1:id4:id4" transform="matrix(1.0,0,0,1.0,4096,0.0)">			<g stroke="lightgray" stroke-width="4" transform="scale(4, 4)"> <rect x="0" y="0" width="256" height="256" fill="white" stroke-width="4"/></g>
			<g transform="scale(0.92, -0.92) translate(60, -920)">					<path d="M 99 374 L 123 319 L 137 292 Q 159 263 176 284.5 Q 193 306 184 340.5 Q 175 375 141 390 L 107 403 Q 97 406 93 404 Q 87 398 99 374 Z" fill="black"></path>
				<path d="M 285 384 L 369 438 Q 381 445 392 450 Q 403 454 405 459 Q 407 464 400 476 Q 393 488 371 500 Q 349 512 347 508 Q 343 505 341 500 L 333 479 Q 327 464 319 451 L 285 403 C 268 379 260 368 285 384 Z" fill="black"></path>
				<path d="M 285 403 L 293 566 Q 293 574 297 598 Q 298 620 303.5 632 Q 309 644 309 650 Q 309 661 277 674 L 251 681 Q 214 691 221 664 L 227 642 Q 232 630 233 592 Q 237 554 237 549 L 235 425 Q 232 317 215 216 Q 191 69 97 -32 L 73 -60 Q 67 -67 70 -72 Q 73 -77 83 -71 L 103 -59 Q 121 -48 145 -24 Q 195 24 213.5 58.5 Q 232 93 257 164 L 261 185 L 271 233 Q 274 254 279 298 L 285 384 L 285 403 Z" fill="black"></path>
				<path d="M 257 164 L 303 96 Q 331 56 344 56 Q 357 56 365 67 Q 371 78 367 96 Q 365 115 355 128 Q 340 149 293 170 L 261 185 C 234 197 240 189 257 164 Z" fill="black"></path>
				<path d="M 591 604 Q 604 617 561 640 Q 545 648 538 648 Q 531 648 516 639 Q 501 630 491 628 L 455 620 Q 446 618 430.5 616 Q 415 614 413 611 Q 413 607 419 601 Q 439 583 491 602 Q 513 606 515 602 Q 521 591 481 498 L 465 467 L 449 439 Q 441 424 421 397 L 385 349 Q 367 328 355 317 L 333 295 Q 327 290 327 286 Q 329 283 341 288 L 359 298 Q 382 311 401 326 Q 470 381 533 500 L 555 551 Q 572 586 584 598 L 591 604 Z" fill="black"></path>
				<path d="M 481 498 L 471 514 Q 461 534 428 543 Q 394 552 385 545 Q 383 541 387 532 Q 388 522 406 501 Q 423 480 429 475 Q 448 459 465 467 C 493 478 493 478 481 498 Z" fill="black"></path>
				<path d="M 647 576 L 679 590 L 705 604 Q 725 614 733 617 Q 765 627 718 665 Q 697 682 692 678 Q 687 673 683 660 Q 679 647 671 633 L 639 587 C 624 566 624 566 647 576 Z" fill="black"></path>
				<path d="M 639 587 L 625 599 Q 623 602 612 605 Q 600 607 591 604 C 582 603 582 603 584 598 Q 581 591 591 582 L 607 571 Q 630 555 651 524 L 673 488 L 697 444 L 773 317 Q 783 302 797 292 Q 811 280 824 278 Q 837 276 863 278 L 899 282 Q 904 283 912 286 Q 920 289 935 288 L 947 292 Q 955 294 955 300 Q 955 306 943 312 L 885 338 Q 860 352 830 373 Q 799 393 765 432 L 723 486 L 709 500 L 683 537 Q 673 551 663 560 L 647 576 L 639 587 Z" fill="black"></path>
				<path d="M 723 486 L 803 517 Q 828 527 842 530 Q 856 532 861 537 Q 868 550 842 576 Q 829 589 817 596 Q 805 602 801 600 Q 797 598 788 579 Q 778 559 737 521 L 709 500 C 685 482 695 475 723 486 Z" fill="black"></path>
				<path d="M 512 355 Q 526 354 550 357 L 634 371 L 670 380 Q 692 382 696 388 Q 700 394 699 400 Q 698 406 680 413.5 Q 662 421 648 419 L 588 402 L 502 384 Q 488 382 482 380 Q 469 376 474.5 368 Q 480 360 494 358 L 512 355 Z" fill="red"></path>
				<path d="M 472 262 L 446 268 Q 428 270 424 268 Q 414 258 429 247 Q 443 235 448 208 L 468 122 Q 469 117 474 106 L 500 116 C 508 119 508 120 504 150 L 492 239 C 489 258 489 258 472 262 Z" fill="lightgray"></path>
				<path d="M 704 152 L 732 212 Q 744 233 756 242 Q 764 250 766 253 Q 767 260 759 270 Q 750 280 738 286 L 716 298 Q 704 303 698 303 Q 692 302 666 294 Q 640 286 602 281 L 472 262 C 442 258 462 235 492 239 L 608 254 L 652 258 Q 675 262 680 257 Q 684 252 683 243 L 680 216 L 670 166 C 664 137 691 125 704 152 Z" fill="lightgray"></path>
				<path d="M 688 134 Q 717 140 712 144 L 704 152 C 690 166 690 166 670 166 L 646 166 L 598 160 Q 558 154 504 150 C 474 148 470 113 500 116 L 568 122 Q 617 126 636 127 Q 654 127 688 134 Z" fill="lightgray"></path>
				<path d="M 501 84 Q 488 87 485 83 Q 482 79 486 72 L 524 9 Q 545 -23 566 -25 Q 589 -24 591.5 3.5 Q 594 31 579.5 46.5 Q 565 62 522 77 L 501 84 Z" fill="lightgray"></path>
				<path d="M 652 118 L 662 92 Q 664 87 662 73 L 660 47 L 638 -42 C 631 -71 652 -67 666 -40 L 704 34 Q 705 35 717 56 Q 729 77 729 80 Q 736 85 717 101 Q 683 130 652 118 Z" fill="lightgray"></path>
				<path d="M 638 -42 L 548 -49 L 382 -66 Q 358 -68 341 -68 Q 324 -68 322 -73 Q 320 -78 324 -84 Q 330 -91 347.5 -101.5 Q 365 -112 385.5 -114.5 Q 406 -117 443 -108 Q 480 -99 496 -97 L 562 -90 L 672 -82 L 792 -79 L 846 -80 Q 872 -81 883 -82.5 Q 894 -84 904 -79 Q 914 -75 913 -68.5 Q 912 -62 900 -50 Q 888 -38 858 -28 Q 841 -20 831.5 -19 Q 822 -18 799 -23 Q 776 -28 756 -30 L 722 -34 L 666 -40 L 638 -42 Z" fill="lightgray"></path>
</g>
		<text x="40" y="140" font-size="128" fill="#999999">10</text></g>
</g>
	<g id="id2:id2" transform="translate(0.0,2048)">
		<g id="id2:id0:id0" transform="matrix(1.0,0,0,1.0,0,0.0)">			<g stroke="lightgray" stroke-width="4" transform="scale(4, 4)"> <rect x="0" y="0" width="256" height="256" fill="white" stroke-width="4"/></g>
			<g transform="scale(0.92, -0.92) translate(60, -920)">					<path d="M 99 374 L 123 319 L 137 292 Q 159 263 176 284.5 Q 193 306 184 340.5 Q 175 375 141 390 L 107 403 Q 97 406 93 404 Q 87 398 99 374 Z" fill="black"></path>
				<path d="M 285 384 L 369 438 Q 381 445 392 450 Q 403 454 405 459 Q 407 464 400 476 Q 393 488 371 500 Q 349 512 347 508 Q 343 505 341 500 L 333 479 Q 327 464 319 451 L 285 403 C 268 379 260 368 285 384 Z" fill="black"></path>
				<path d="M 285 403 L 293 566 Q 293 574 297 598 Q 298 620 303.5 632 Q 309 644 309 650 Q 309 661 277 674 L 251 681 Q 214 691 221 664 L 227 642 Q 232 630 233 592 Q 237 554 237 549 L 235 425 Q 232 317 215 216 Q 191 69 97 -32 L 73 -60 Q 67 -67 70 -72 Q 73 -77 83 -71 L 103 -59 Q 121 -48 145 -24 Q 195 24 213.5 58.5 Q 232 93 257 164 L 261 185 L 271 233 Q 274 254 279 298 L 285 384 L 285 403 Z" fill="black"></path>
				<path d="M 257 164 L 303 96 Q 331 56 344 56 Q 357 56 365 67 Q 371 78 367 96 Q 365 115 355 128 Q 340 149 293 170 L 261 185 C 234 197 240 189 257 164 Z" fill="black"></path>
				<path d="M 591 604 Q 604 617 561 640 Q 545 648 538 648 Q 531 648 516 639 Q 501 630 491 628 L 455 620 Q 446 618 430.5 616 Q 415 614 413 611 Q 413 607 419 601 Q 439 583 491 602 Q 513 606 515 602 Q 521 591 481 498 L 465 467 L 449 439 Q 441 424 421 397 L 385 349 Q 367 328 355 317 L 333 295 Q 327 290 327 286 Q 329 283 341 288 L 359 298 Q 382 311 401 326 Q 470 381 533 500 L 555 551 Q 572 586 584 598 L 591 604 Z" fill="black"></path>
				<path d="M 481 498 L 471 514 Q 461 534 428 543 Q 394 552 385 545 Q 383 541 387 532 Q 388 522 406 501 Q 423 480 429 475 Q 448 459 465 467 C 493 478 493 478 481 498 Z" fill="black"></path>
				<path d="M 647 576 L 679 590 L 705 604 Q 725 614 733 617 Q 765 627 718 665 Q 697 682 692 678 Q 687 673 683 660 Q 679 647 671 633 L 639 587 C 624 566 624 566 647 576 Z" fill="black"></path>
				<path d="M 639 587 L 625 599 Q 623 602 612 605 Q 600 607 591 604 C 582 603 582 603 584 598 Q 581 591 591 582 L 607 571 Q 630 555 651 524 L 673 488 L 697 444 L 773 317 Q 783 302 797 292 Q 811 280 824 278 Q 837 276 863 278 L 899 282 Q 904 283 912 286 Q 920 289 935 288 L 947 292 Q 955 294 955 300 Q 955 306 943 312 L 885 338 Q 860 352 830 373 Q 799 393 765 432 L 723 486 L 709 500 L 683 537 Q 673 551 663 560 L 647 576 L 639 587 Z" fill="black"></path>
				<path d="M 723 486 L 803 517 Q 828 527 842 530 Q 856 532 861 537 Q 868 550 842 576 Q 829 589 817 596 Q 805 602 801 600 Q 797 598 788 579 Q 778 559 737 521 L 709 500 C 685 482 695 475 723 486 Z" fill="black"></path>
				<path d="M 512 355 Q 526 354 550 357 L 634 371 L 670 380 Q 692 382 696 388 Q 700 394 699 400 Q 698 406 680 413.5 Q 662 421 648 419 L 588 402 L 502 384 Q 488 382 482 380 Q 469 376 474.5 368 Q 480 360 494 358 L 512 355 Z" fill="black"></path>
				<path d="M 472 262 L 446 268 Q 428 270 424 268 Q 414 258 429 247 Q 443 235 448 208 L 468 122 Q 469 117 474 106 L 500 116 C 508 119 508 120 504 150 L 492 239 C 489 258 489 258 472 262 Z" fill="red"></path>
				<path d="M 704 152 L 732 212 Q 744 233 756 242 Q 764 250 766 253 Q 767 260 759 270 Q 750 280 738 286 L 716 298 Q 704 303 698 303 Q 692 302 666 294 Q 640 286 602 281 L 472 262 C 442 258 462 235 492 239 L 608 254 L 652 258 Q 675 262 680 257 Q 684 252 683 243 L 680 216 L 670 166 C 664 137 691 125 704 152 Z" fill="lightgray"></path>
				<path d="M 688 134 Q 717 140 712 144 L 704 152 C 690 166 690 166 670 166 L 646 166 L 598 160 Q 558 154 504 150 C 474 148 470 113 500 116 L 568 122 Q 617 126 636 127 Q 654 127 688 134 Z" fill="lightgray"></path>
				<path d="M 501 84 Q 488 87 485 83 Q 482 79 486 72 L 524 9 Q 545 -23 566 -25 Q 589 -24 591.5 3.5 Q 594 31 579.5 46.5 Q 565 62 522 77 L 501 84 Z" fill="lightgray"></path>
				<path d="M 652 118 L 662 92 Q 664 87 662 73 L 660 47 L 638 -42 C 631 -71 652 -67 666 -40 L 704 34 Q 705 35 717 56 Q 729 77 729 80 Q 736 85 717 101 Q 683 130 652 118 Z" fill="lightgray"></path>
				<path d="M 638 -42 L 548 -49 L 382 -66 Q 358 -68 341 -68 Q 324 -68 322 -73 Q 320 -78 324 -84 Q 330 -91 347.5 -101.5 Q 365 -112 385.5 -114.5 Q 406 -117 443 -108 Q 480 -99 496 -97 L 562 -90 L 672 -82 L 792 -79 L 846 -80 Q 872 -81 883 -82.5 Q 894 -84 904 -79 Q 914 -75 913 -68.5 Q 912 -62 900 -50 Q 888 -38 858 -28 Q 841 -20 831.5 -19 Q 822 -18 799 -23 Q 776 -28 756 -30 L 722 -34 L 666 -40 L 638 -42 Z" fill="lightgray"></path>
</g>
		<text x="40" y="140" font-size="128" fill="#999999">11</text></g>
		<g id="id2:id1:id1" transform="matrix(1.0,0,0,1.0,1024,0.0)">			<g stroke="lightgray" stroke-width="4" transform="scale(4, 4)"> <rect x="0" y="0" width="256" height="256" fill="white" stroke-width="4"/></g>
			<g transform="scale(0.92, -0.92) translate(60, -920)">					<path d="M 99 374 L 123 319 L 137 292 Q 159 263 176 284.5 Q 193 306 184 340.5 Q 175 375 141 390 L 107 403 Q 97 406 93 404 Q 87 398 99 374 Z" fill="black"></path>
				<path d="M 285 384 L 369 438 Q 381 445 392 450 Q 403 454 405 459 Q 407 464 400 476 Q 393 488 371 500 Q 349 512 347 508 Q 343 505 341 500 L 333 479 Q 327 464 319 451 L 285 403 C 268 379 260 368 285 384 Z" fill="black"></path>
				<path d="M 285 403 L 293 566 Q 293 574 297 598 Q 298 620 303.5 632 Q 309 644 309 650 Q 309 661 277 674 L 251 681 Q 214 691 221 664 L 227 642 Q 232 630 233 592 Q 237 554 237 549 L 235 425 Q 232 317 215 216 Q 191 69 97 -32 L 73 -60 Q 67 -67 70 -72 Q 73 -77 83 -71 L 103 -59 Q 121 -48 145 -24 Q 195 24 213.5 58.5 Q 232 93 257 164 L 261 185 L 271 233 Q 274 254 279 298 L 285 384 L 285 403 Z" fill="black"></path>
				<path d="M 257 164 L 303 96 Q 331 56 344 56 Q 357 56 365 67 Q 371 78 367 96 Q 365 115 355 128 Q 340 149 293 170 L 261 185 C 234 197 240 189 257 164 Z" fill="black"></path>
				<path d="M 591 604 Q 604 617 561 640 Q 545 648 538 648 Q 531 648 516 639 Q 501 630 491 628 L 455 620 Q 446 618 430.5 616 Q 415 614 413 611 Q 413 607 419 601 Q 439 583 491 602 Q 513 606 515 602 Q 521 591 481 498 L 465 467 L 449 439 Q 441 424 421 397 L 385 349 Q 367 328 355 317 L 333 295 Q 327 290 327 286 Q 329 283 341 288 L 359 298 Q 382 311 401 326 Q 470 381 533 500 L 555 551 Q 572 586 584 598 L 591 604 Z" fill="black"></path>
				<path d="M 481 498 L 471 514 Q 461 534 428 543 Q 394 552 385 545 Q 383 541 387 532 Q 388 522 406 501 Q 423 480 429 475 Q 448 459 465 467 C 493 478 493 478 481 498 Z" fill="black"></path>
				<path d="M 647 576 L 679 590 L 705 604 Q 725 614 733 617 Q 765 627 718 665 Q 697 682 692 678 Q 687 673 683 660 Q 679 647 671 633 L 639 587 C 624 566 624 566 647 576 Z" fill="black"></path>
				<path d="M 639 587 L 625 599 Q 623 602 612 605 Q 600 607 591 604 C 582 603 582 603 584 598 Q 581 591 591 582 L 607 571 Q 630 555 651 524 L 673 488 L 697 444 L 773 317 Q 783 302 797 292 Q 811 280 824 278 Q 837 276 863 278 L 899 282 Q 904 283 912 286 Q 920 289 935 288 L 947 292 Q 955 294 955 300 Q 955 306 943 312 L 885 338 Q 860 352 830 373 Q 799 393 765 432 L 723 486 L 709 500 L 683 537 Q 673 551 663 560 L 647 576 L 639 587 Z" fill="black"></path>
				<path d="M 723 486 L 803 517 Q 828 527 842 530 Q 856 532 861 537 Q 868 550 842 576 Q 829 589 817 596 Q 805 602 801 600 Q 797 598 788 579 Q 778 559 737 521 L 709 500 C 685 482 695 475 723 486 Z" fill="black"></path>
				<path d="M 512 355 Q 526 354 550 357 L 634 371 L 670 380 Q 692 382 696 388 Q 700 394 699 400 Q 698 406 680 413.5 Q 662 421 648 419 L 588 402 L 502 384 Q 488 382 482 380 Q 469 376 474.5 368 Q 480 360 494 358 L 512 355 Z" fill="black"></path>
				<path d="M 472 262 L 446 268 Q 428 270 424 268 Q 414 258 429 247 Q 443 235 448 208 L 468 122 Q 469 117 474 106 L 500 116 C 508 119 508 120 504 150 L 492 239 C 489 258 489 258 472 262 Z" fill="black"></path>
				<path d="M 704 152 L 732 212 Q 744 233 756 242 Q 764 250 766 253 Q 767 260 759 270 Q 750 280 738 286 L 716 298 Q 704 303 698 303 Q 692 302 666 294 Q 640 286 602 281 L 472 262 C 442 258 462 235 492 239 L 608 254 L 652 258 Q 675 262 680 257 Q 684 252 683 243 L 680 216 L 670 166 C 664 137 691 125 704 152 Z" fill="red"></path>
				<path d="M 688 134 Q 717 140 712 144 L 704 152 C 690 166 690 166 670 166 L 646 166 L 598 160 Q 558 154 504 150 C 474 148 470 113 500 116 L 568 122 Q 617 126 636 127 Q 654 127 688 134 Z" fill="lightgray"></path>
				<path d="M 501 84 Q 488 87 485 83 Q 482 79 486 72 L 524 9 Q 545 -23 566 -25 Q 589 -24 591.5 3.5 Q 594 31 579.5 46.5 Q 565 62 522 77 L 501 84 Z" fill="lightgray"></path>
				<path d="M 652 118 L 662 92 Q 664 87 662 73 L 660 47 L 638 -42 C 631 -71 652 -67 666 -40 L 704 34 Q 705 35 717 56 Q 729 77 729 80 Q 736 85 717 101 Q 683 130 652 118 Z" fill="lightgray"></path>
				<path d="M 638 -42 L 548 -49 L 382 -66 Q 358 -68 341 -68 Q 324 -68 322 -73 Q 320 -78 324 -84 Q 330 -91 347.5 -101.5 Q 365 -112 385.5 -114.5 Q 406 -117 443 -108 Q 480 -99 496 -97 L 562 -90 L 672 -82 L 792 -79 L 846 -80 Q 872 -81 883 -82.5 Q 894 -84 904 -79 Q 914 -75 913 -68.5 Q 912 -62 900 -50 Q 888 -38 858 -28 Q 841 -20 831.5 -19 Q 822 -18 799 -23 Q 776 -28 756 -30 L 722 -34 L 666 -40 L 638 -42 Z" fill="lightgray"></path>
</g>
		<text x="40" y="140" font-size="128" fill="#999999">12</text></g>
		<g id="id2:id2:id2" transform="matrix(1.0,0,0,1.0,2048,0.0)">			<g stroke="lightgray" stroke-width="4" transform="scale(4, 4)"> <rect x="0" y="0" width="256" height="256" fill="white" stroke-width="4"/></g>
			<g transform="scale(0.92, -0.92) translate(60, -920)">					<path d="M 99 374 L 123 319 L 137 292 Q 159 263 176 284.5 Q 193 306 184 340.5 Q 175 375 141 390 L 107 403 Q 97 406 93 404 Q 87 398 99 374 Z" fill="black"></path>
				<path d="M 285 384 L 369 438 Q 381 445 392 450 Q 403 454 405 459 Q 407 464 400 476 Q 393 488 371 500 Q 349 512 347 508 Q 343 505 341 500 L 333 479 Q 327 464 319 451 L 285 403 C 268 379 260 368 285 384 Z" fill="black"></path>
				<path d="M 285 403 L 293 566 Q 293 574 297 598 Q 298 620 303.5 632 Q 309 644 309 650 Q 309 661 277 674 L 251 681 Q 214 691 221 664 L 227 642 Q 232 630 233 592 Q 237 554 237 549 L 235 425 Q 232 317 215 216 Q 191 69 97 -32 L 73 -60 Q 67 -67 70 -72 Q 73 -77 83 -71 L 103 -59 Q 121 -48 145 -24 Q 195 24 213.5 58.5 Q 232 93 257 164 L 261 185 L 271 233 Q 274 254 279 298 L 285 384 L 285 403 Z" fill="black"></path>
				<path d="M 257 164 L 303 96 Q 331 56 344 56 Q 357 56 365 67 Q 371 78 367 96 Q 365 115 355 128 Q 340 149 293 170 L 261 185 C 234 197 240 189 257 164 Z" fill="black"></path>
				<path d="M 591 604 Q 604 617 561 640 Q 545 648 538 648 Q 531 648 516 639 Q 501 630 491 628 L 455 620 Q 446 618 430.5 616 Q 415 614 413 611 Q 413 607 419 601 Q 439 583 491 602 Q 513 606 515 602 Q 521 591 481 498 L 465 467 L 449 439 Q 441 424 421 397 L 385 349 Q 367 328 355 317 L 333 295 Q 327 290 327 286 Q 329 283 341 288 L 359 298 Q 382 311 401 326 Q 470 381 533 500 L 555 551 Q 572 586 584 598 L 591 604 Z" fill="black"></path>
				<path d="M 481 498 L 471 514 Q 461 534 428 543 Q 394 552 385 545 Q 383 541 387 532 Q 388 522 406 501 Q 423 480 429 475 Q 448 459 465 467 C 493 478 493 478 481 498 Z" fill="black"></path>
				<path d="M 647 576 L 679 590 L 705 604 Q 725 614 733 617 Q 765 627 718 665 Q 697 682 692 678 Q 687 673 683 660 Q 679 647 671 633 L 639 587 C 624 566 624 566 647 576 Z" fill="black"></path>
				<path d="M 639 587 L 625 599 Q 623 602 612 605 Q 600 607 591 604 C 582 603 582 603 584 598 Q 581 591 591 582 L 607 571 Q 630 555 651 524 L 673 488 L 697 444 L 773 317 Q 783 302 797 292 Q 811 280 824 278 Q 837 276 863 278 L 899 282 Q 904 283 912 286 Q 920 289 935 288 L 947 292 Q 955 294 955 300 Q 955 306 943 312 L 885 338 Q 860 352 830 373 Q 799 393 765 432 L 723 486 L 709 500 L 683 537 Q 673 551 663 560 L 647 576 L 639 587 Z" fill="black"></path>
				<path d="M 723 486 L 803 517 Q 828 527 842 530 Q 856 532 861 537 Q 868 550 842 576 Q 829 589 817 596 Q 805 602 801 600 Q 797 598 788 579 Q 778 559 737 521 L 709 500 C 685 482 695 475 723 486 Z" fill="black"></path>
				<path d="M 512 355 Q 526 354 550 357 L 634 371 L 670 380 Q 692 382 696 388 Q 700 394 699 400 Q 698 406 680 413.5 Q 662 421 648 419 L 588 402 L 502 384 Q 488 382 482 380 Q 469 376 474.5 368 Q 480 360 494 358 L 512 355 Z" fill="black"></path>
				<path d="M 472 262 L 446 268 Q 428 270 424 268 Q 414 258 429 247 Q 443 235 448 208 L 468 122 Q 469 117 474 106 L 500 116 C 508 119 508 120 504 150 L 492 239 C 489 258 489 258 472 262 Z" fill="black"></path>
				<path d="M 704 152 L 732 212 Q 744 233 756 242 Q 764 250 766 253 Q 767 260 759 270 Q 750 280 738 286 L 716 298 Q 704 303 698 303 Q 692 302 666 294 Q 640 286 602 281 L 472 262 C 442 258 462 235 492 239 L 608 254 L 652 258 Q 675 262 680 257 Q 684 252 683 243 L 680 216 L 670 166 C 664 137 691 125 704 152 Z" fill="black"></path>
				<path d="M 688 134 Q 717 140 712 144 L 704 152 C 690 166 690 166 670 166 L 646 166 L 598 160 Q 558 154 504 150 C 474 148 470 113 500 116 L 568 122 Q 617 126 636 127 Q 654 127 688 134 Z" fill="red"></path>
				<path d="M 501 84 Q 488 87 485 83 Q 482 79 486 72 L 524 9 Q 545 -23 566 -25 Q 589 -24 591.5 3.5 Q 594 31 579.5 46.5 Q 565 62 522 77 L 501 84 Z" fill="lightgray"></path>
				<path d="M 652 118 L 662 92 Q 664 87 662 73 L 660 47 L 638 -42 C 631 -71 652 -67 666 -40 L 704 34 Q 705 35 717 56 Q 729 77 729 80 Q 736 85 717 101 Q 683 130 652 118 Z" fill="lightgray"></path>
				<path d="M 638 -42 L 548 -49 L 382 -66 Q 358 -68 341 -68 Q 324 -68 322 -73 Q 320 -78 324 -84 Q 330 -91 347.5 -101.5 Q 365 -112 385.5 -114.5 Q 406 -117 443 -108 Q 480 -99 496 -97 L 562 -90 L 672 -82 L 792 -79 L 846 -80 Q 872 -81 883 -82.5 Q 894 -84 904 -79 Q 914 -75 913 -68.5 Q 912 -62 900 -50 Q 888 -38 858 -28 Q 841 -20 831.5 -19 Q 822 -18 799 -23 Q 776 -28 756 -30 L 722 -34 L 666 -40 L 638 -42 Z" fill="lightgray"></path>
</g>
		<text x="40" y="140" font-size="128" fill="#999999">13</text></g>
		<g id="id2:id3:id3" transform="matrix(1.0,0,0,1.0,3072,0.0)">			<g stroke="lightgray" stroke-width="4" transform="scale(4, 4)"> <rect x="0" y="0" width="256" height="256" fill="white" stroke-width="4"/></g>
			<g transform="scale(0.92, -0.92) translate(60, -920)">					<path d="M 99 374 L 123 319 L 137 292 Q 159 263 176 284.5 Q 193 306 184 340.5 Q 175 375 141 390 L 107 403 Q 97 406 93 404 Q 87 398 99 374 Z" fill="black"></path>
				<path d="M 285 384 L 369 438 Q 381 445 392 450 Q 403 454 405 459 Q 407 464 400 476 Q 393 488 371 500 Q 349 512 347 508 Q 343 505 341 500 L 333 479 Q 327 464 319 451 L 285 403 C 268 379 260 368 285 384 Z" fill="black"></path>
				<path d="M 285 403 L 293 566 Q 293 574 297 598 Q 298 620 303.5 632 Q 309 644 309 650 Q 309 661 277 674 L 251 681 Q 214 691 221 664 L 227 642 Q 232 630 233 592 Q 237 554 237 549 L 235 425 Q 232 317 215 216 Q 191 69 97 -32 L 73 -60 Q 67 -67 70 -72 Q 73 -77 83 -71 L 103 -59 Q 121 -48 145 -24 Q 195 24 213.5 58.5 Q 232 93 257 164 L 261 185 L 271 233 Q 274 254 279 298 L 285 384 L 285 403 Z" fill="black"></path>
				<path d="M 257 164 L 303 96 Q 331 56 344 56 Q 357 56 365 67 Q 371 78 367 96 Q 365 115 355 128 Q 340 149 293 170 L 261 185 C 234 197 240 189 257 164 Z" fill="black"></path>
				<path d="M 591 604 Q 604 617 561 640 Q 545 648 538 648 Q 531 648 516 639 Q 501 630 491 628 L 455 620 Q 446 618 430.5 616 Q 415 614 413 611 Q 413 607 419 601 Q 439 583 491 602 Q 513 606 515 602 Q 521 591 481 498 L 465 467 L 449 439 Q 441 424 421 397 L 385 349 Q 367 328 355 317 L 333 295 Q 327 290 327 286 Q 329 283 341 288 L 359 298 Q 382 311 401 326 Q 470 381 533 500 L 555 551 Q 572 586 584 598 L 591 604 Z" fill="black"></path>
				<path d="M 481 498 L 471 514 Q 461 534 428 543 Q 394 552 385 545 Q 383 541 387 532 Q 388 522 406 501 Q 423 480 429 475 Q 448 459 465 467 C 493 478 493 478 481 498 Z" fill="black"></path>
				<path d="M 647 576 L 679 590 L 705 604 Q 725 614 733 617 Q 765 627 718 665 Q 697 682 692 678 Q 687 673 683 660 Q 679 647 671 633 L 639 587 C 624 566 624 566 647 576 Z" fill="black"></path>
				<path d="M 639 587 L 625 599 Q 623 602 612 605 Q 600 607 591 604 C 582 603 582 603 584 598 Q 581 591 591 582 L 607 571 Q 630 555 651 524 L 673 488 L 697 444 L 773 317 Q 783 302 797 292 Q 811 280 824 278 Q 837 276 863 278 L 899 282 Q 904 283 912 286 Q 920 289 935 288 L 947 292 Q 955 294 955 300 Q 955 306 943 312 L 885 338 Q 860 352 830 373 Q 799 393 765 432 L 723 486 L 709 500 L 683 537 Q 673 551 663 560 L 647 576 L 639 587 Z" fill="black"></path>
				<path d="M 723 486 L 803 517 Q 828 527 842 530 Q 856 532 861 537 Q 868 550 842 576 Q 829 589 817 596 Q 805 602 801 600 Q 797 598 788 579 Q 778 559 737 521 L 709 500 C 685 482 695 475 723 486 Z" fill="black"></path>
				<path d="M 512 355 Q 526 354 550 357 L 634 371 L 670 380 Q 692 382 696 388 Q 700 394 699 400 Q 698 406 680 413.5 Q 662 421 648 419 L 588 402 L 502 384 Q 488 382 482 380 Q 469 376 474.5 368 Q 480 360 494 358 L 512 355 Z" fill="black"></path>
				<path d="M 472 262 L 446 268 Q 428 270 424 268 Q 414 258 429 247 Q 443 235 448 208 L 468 122 Q 469 117 474 106 L 500 116 C 508 119 508 120 504 150 L 492 239 C 489 258 489 258 472 262 Z" fill="black"></path>
				<path d="M 704 152 L 732 212 Q 744 233 756 242 Q 764 250 766 253 Q 767 260 759 270 Q 750 280 738 286 L 716 298 Q 704 303 698 303 Q 692 302 666 294 Q 640 286 602 281 L 472 262 C 442 258 462 235 492 239 L 608 254 L 652 258 Q 675 262 680 257 Q 684 252 683 243 L 680 216 L 670 166 C 664 137 691 125 704 152 Z" fill="black"></path>
				<path d="M 688 134 Q 717 140 712 144 L 704 152 C 690 166 690 166 670 166 L 646 166 L 598 160 Q 558 154 504 150 C 474 148 470 113 500 116 L 568 122 Q 617 126 636 127 Q 654 127 688 134 Z" fill="black"></path>
				<path d="M 501 84 Q 488 87 485 83 Q 482 79 486 72 L 524 9 Q 545 -23 566 -25 Q 589 -24 591.5 3.5 Q 594 31 579.5 46.5 Q 565 62 522 77 L 501 84 Z" fill="red"></path>
				<path d="M 652 118 L 662 92 Q 664 87 662 73 L 660 47 L 638 -42 C 631 -71 652 -67 666 -40 L 704 34 Q 705 35 717 56 Q 729 77 729 80 Q 736 85 717 101 Q 683 130 652 118 Z" fill="lightgray"></path>
				<path d="M 638 -42 L 548 -49 L 382 -66 Q 358 -68 341 -68 Q 324 -68 322 -73 Q 320 -78 324 -84 Q 330 -91 347.5 -101.5 Q 365 -112 385.5 -114.5 Q 406 -117 443 -108 Q 480 -99 496 -97 L 562 -90 L 672 -82 L 792 -79 L 846 -80 Q 872 -81 883 -82.5 Q 894 -84 904 -79 Q 914 -75 913 -68.5 Q 912 -62 900 -50 Q 888 -38 858 -28 Q 841 -20 831.5 -19 Q 822 -18 799 -23 Q 776 -28 756 -30 L 722 -34 L 666 -40 L 638 -42 Z" fill="lightgray"></path>
</g>
		<text x="40" y="140" font-size="128" fill="#999999">14</text></g>
		<g id="id2:id4:id4" transform="matrix(1.0,0,0,1.0,4096,0.0)">			<g stroke="lightgray" stroke-width="4" transform="scale(4, 4)"> <rect x="0" y="0" width="256" height="256" fill="white" stroke-width="4"/></g>
			<g transform="scale(0.92, -0.92) translate(60, -920)">					<path d="M 99 374 L 123 319 L 137 292 Q 159 263 176 284.5 Q 193 306 184 340.5 Q 175 375 141 390 L 107 403 Q 97 406 93 404 Q 87 398 99 374 Z" fill="black"></path>
				<path d="M 285 384 L 369 438 Q 381 445 392 450 Q 403 454 405 459 Q 407 464 400 476 Q 393 488 371 500 Q 349 512 347 508 Q 343 505 341 500 L 333 479 Q 327 464 319 451 L 285 403 C 268 379 260 368 285 384 Z" fill="black"></path>
				<path d="M 285 403 L 293 566 Q 293 574 297 598 Q 298 620 303.5 632 Q 309 644 309 650 Q 309 661 277 674 L 251 681 Q 214 691 221 664 L 227 642 Q 232 630 233 592 Q 237 554 237 549 L 235 425 Q 232 317 215 216 Q 191 69 97 -32 L 73 -60 Q 67 -67 70 -72 Q 73 -77 83 -71 L 103 -59 Q 121 -48 145 -24 Q 195 24 213.5 58.5 Q 232 93 257 164 L 261 185 L 271 233 Q 274 254 279 298 L 285 384 L 285 403 Z" fill="black"></path>
				<path d="M 257 164 L 303 96 Q 331 56 344 56 Q 357 56 365 67 Q 371 78 367 96 Q 365 115 355 128 Q 340 149 293 170 L 261 185 C 234 197 240 189 257 164 Z" fill="black"></path>
				<path d="M 591 604 Q 604 617 561 640 Q 545 648 538 648 Q 531 648 516 639 Q 501 630 491 628 L 455 620 Q 446 618 430.5 616 Q 415 614 413 611 Q 413 607 419 601 Q 439 583 491 602 Q 513 606 515 602 Q 521 591 481 498 L 465 467 L 449 439 Q 441 424 421 397 L 385 349 Q 367 328 355 317 L 333 295 Q 327 290 327 286 Q 329 283 341 288 L 359 298 Q 382 311 401 326 Q 470 381 533 500 L 555 551 Q 572 586 584 598 L 591 604 Z" fill="black"></path>
				<path d="M 481 498 L 471 514 Q 461 534 428 543 Q 394 552 385 545 Q 383 541 387 532 Q 388 522 406 501 Q 423 480 429 475 Q 448 459 465 467 C 493 478 493 478 481 498 Z" fill="black"></path>
				<path d="M 647 576 L 679 590 L 705 604 Q 725 614 733 617 Q 765 627 718 665 Q 697 682 692 678 Q 687 673 683 660 Q 679 647 671 633 L 639 587 C 624 566 624 566 647 576 Z" fill="black"></path>
				<path d="M 639 587 L 625 599 Q 623 602 612 605 Q 600 607 591 604 C 582 603 582 603 584 598 Q 581 591 591 582 L 607 571 Q 630 555 651 524 L 673 488 L 697 444 L 773 317 Q 783 302 797 292 Q 811 280 824 278 Q 837 276 863 278 L 899 282 Q 904 283 912 286 Q 920 289 935 288 L 947 292 Q 955 294 955 300 Q 955 306 943 312 L 885 338 Q 860 352 830 373 Q 799 393 765 432 L 723 486 L 709 500 L 683 537 Q 673 551 663 560 L 647 576 L 639 587 Z" fill="black"></path>
				<path d="M 723 486 L 803 517 Q 828 527 842 530 Q 856 532 861 537 Q 868 550 842 576 Q 829 589 817 596 Q 805 602 801 600 Q 797 598 788 579 Q 778 559 737 521 L 709 500 C 685 482 695 475 723 486 Z" fill="black"></path>
				<path d="M 512 355 Q 526 354 550 357 L 634 371 L 670 380 Q 692 382 696 388 Q 700 394 699 400 Q 698 406 680 413.5 Q 662 421 648 419 L 588 402 L 502 384 Q 488 382 482 380 Q 469 376 474.5 368 Q 480 360 494 358 L 512 355 Z" fill="black"></path>
				<path d="M 472 262 L 446 268 Q 428 270 424 268 Q 414 258 429 247 Q 443 235 448 208 L 468 122 Q 469 117 474 106 L 500 116 C 508 119 508 120 504 150 L 492 239 C 489 258 489 258 472 262 Z" fill="black"></path>
				<path d="M 704 152 L 732 212 Q 744 233 756 242 Q 764 250 766 253 Q 767 260 759 270 Q 750 280 738 286 L 716 298 Q 704 303 698 303 Q 692 302 666 294 Q 640 286 602 281 L 472 262 C 442 258 462 235 492 239 L 608 254 L 652 258 Q 675 262 680 257 Q 684 252 683 243 L 680 216 L 670 166 C 664 137 691 125 704 152 Z" fill="black"></path>
				<path d="M 688 134 Q 717 140 712 144 L 704 152 C 690 166 690 166 670 166 L 646 166 L 598 160 Q 558 154 504 150 C 474 148 470 113 500 116 L 568 122 Q 617 126 636 127 Q 654 127 688 134 Z" fill="black"></path>
				<path d="M 501 84 Q 488 87 485 83 Q 482 79 486 72 L 524 9 Q 545 -23 566 -25 Q 589 -24 591.5 3.5 Q 594 31 579.5 46.5 Q 565 62 522 77 L 501 84 Z" fill="black"></path>
				<path d="M 652 118 L 662 92 Q 664 87 662 73 L 660 47 L 638 -42 C 631 -71 652 -67 666 -40 L 704 34 Q 705 35 717 56 Q 729 77 729 80 Q 736 85 717 101 Q 683 130 652 118 Z" fill="red"></path>
				<path d="M 638 -42 L 548 -49 L 382 -66 Q 358 -68 341 -68 Q 324 -68 322 -73 Q 320 -78 324 -84 Q 330 -91 347.5 -101.5 Q 365 -112 385.5 -114.5 Q 406 -117 443 -108 Q 480 -99 496 -97 L 562 -90 L 672 -82 L 792 -79 L 846 -80 Q 872 -81 883 -82.5 Q 894 -84 904 -79 Q 914 -75 913 -68.5 Q 912 -62 900 -50 Q 888 -38 858 -28 Q 841 -20 831.5 -19 Q 822 -18 799 -23 Q 776 -28 756 -30 L 722 -34 L 666 -40 L 638 -42 Z" fill="lightgray"></path>
</g>
		<text x="40" y="140" font-size="128" fill="#999999">15</text></g>
</g>
	<g id="id3:id3" transform="translate(0.0,3072)">
		<g id="id3:id0:id0" transform="matrix(1.0,0,0,1.0,0,0.0)">			<g stroke="lightgray" stroke-width="4" transform="scale(4, 4)"> <rect x="0" y="0" width="256" height="256" fill="white" stroke-width="4"/></g>
			<g transform="scale(0.92, -0.92) translate(60, -920)">					<path d="M 99 374 L 123 319 L 137 292 Q 159 263 176 284.5 Q 193 306 184 340.5 Q 175 375 141 390 L 107 403 Q 97 406 93 404 Q 87 398 99 374 Z" fill="black"></path>
				<path d="M 285 384 L 369 438 Q 381 445 392 450 Q 403 454 405 459 Q 407 464 400 476 Q 393 488 371 500 Q 349 512 347 508 Q 343 505 341 500 L 333 479 Q 327 464 319 451 L 285 403 C 268 379 260 368 285 384 Z" fill="black"></path>
				<path d="M 285 403 L 293 566 Q 293 574 297 598 Q 298 620 303.5 632 Q 309 644 309 650 Q 309 661 277 674 L 251 681 Q 214 691 221 664 L 227 642 Q 232 630 233 592 Q 237 554 237 549 L 235 425 Q 232 317 215 216 Q 191 69 97 -32 L 73 -60 Q 67 -67 70 -72 Q 73 -77 83 -71 L 103 -59 Q 121 -48 145 -24 Q 195 24 213.5 58.5 Q 232 93 257 164 L 261 185 L 271 233 Q 274 254 279 298 L 285 384 L 285 403 Z" fill="black"></path>
				<path d="M 257 164 L 303 96 Q 331 56 344 56 Q 357 56 365 67 Q 371 78 367 96 Q 365 115 355 128 Q 340 149 293 170 L 261 185 C 234 197 240 189 257 164 Z" fill="black"></path>
				<path d="M 591 604 Q 604 617 561 640 Q 545 648 538 648 Q 531 648 516 639 Q 501 630 491 628 L 455 620 Q 446 618 430.5 616 Q 415 614 413 611 Q 413 607 419 601 Q 439 583 491 602 Q 513 606 515 602 Q 521 591 481 498 L 465 467 L 449 439 Q 441 424 421 397 L 385 349 Q 367 328 355 317 L 333 295 Q 327 290 327 286 Q 329 283 341 288 L 359 298 Q 382 311 401 326 Q 470 381 533 500 L 555 551 Q 572 586 584 598 L 591 604 Z" fill="black"></path>
				<path d="M 481 498 L 471 514 Q 461 534 428 543 Q 394 552 385 545 Q 383 541 387 532 Q 388 522 406 501 Q 423 480 429 475 Q 448 459 465 467 C 493 478 493 478 481 498 Z" fill="black"></path>
				<path d="M 647 576 L 679 590 L 705 604 Q 725 614 733 617 Q 765 627 718 665 Q 697 682 692 678 Q 687 673 683 660 Q 679 647 671 633 L 639 587 C 624 566 624 566 647 576 Z" fill="black"></path>
				<path d="M 639 587 L 625 599 Q 623 602 612 605 Q 600 607 591 604 C 582 603 582 603 584 598 Q 581 591 591 582 L 607 571 Q 630 555 651 524 L 673 488 L 697 444 L 773 317 Q 783 302 797 292 Q 811 280 824 278 Q 837 276 863 278 L 899 282 Q 904 283 912 286 Q 920 289 935 288 L 947 292 Q 955 294 955 300 Q 955 306 943 312 L 885 338 Q 860 352 830 373 Q 799 393 765 432 L 723 486 L 709 500 L 683 537 Q 673 551 663 560 L 647 576 L 639 587 Z" fill="black"></path>
				<path d="M 723 486 L 803 517 Q 828 527 842 530 Q 856 532 861 537 Q 868 550 842 576 Q 829 589 817 596 Q 805 602 801 600 Q 797 598 788 579 Q 778 559 737 521 L 709 500 C 685 482 695 475 723 486 Z" fill="black"></path>
				<path d="M 512 355 Q 526 354 550 357 L 634 371 L 670 380 Q 692 382 696 388 Q 700 394 699 400 Q 698 406 680 413.5 Q 662 421 648 419 L 588 402 L 502 384 Q 488 382 482 380 Q 469 376 474.5 368 Q 480 360 494 358 L 512 355 Z" fill="black"></path>
				<path d="M 472 262 L 446 268 Q 428 270 424 268 Q 414 258 429 247 Q 443 235 448 208 L 468 122 Q 469 117 474 106 L 500 116 C 508 119 508 120 504 150 L 492 239 C 489 258 489 258 472 262 Z" fill="black"></path>
				<path d="M 704 152 L 732 212 Q 744 233 756 242 Q 764 250 766 253 Q 767 260 759 270 Q 750 280 738 286 L 716 298 Q 704 303 698 303 Q 692 302 666 294 Q 640 286 602 281 L 472 262 C 442 258 462 235 492 239 L 608 254 L 652 258 Q 675 262 680 257 Q 684 252 683 243 L 680 216 L 670 166 C 664 137 691 125 704 152 Z" fill="black"></path>
				<path d="M 688 134 Q 717 140 712 144 L 704 152 C 690 166 690 166 670 166 L 646 166 L 598 160 Q 558 154 504 150 C 474 148 470 113 500 116 L 568 122 Q 617 126 636 127 Q 654 127 688 134 Z" fill="black"></path>
				<path d="M 501 84 Q 488 87 485 83 Q 482 79 486 72 L 524 9 Q 545 -23 566 -25 Q 589 -24 591.5 3.5 Q 594 31 579.5 46.5 Q 565 62 522 77 L 501 84 Z" fill="black"></path>
				<path d="M 652 118 L 662 92 Q 664 87 662 73 L 660 47 L 638 -42 C 631 -71 652 -67 666 -40 L 704 34 Q 705 35 717 56 Q 729 77 729 80 Q 736 85 717 101 Q 683 130 652 118 Z" fill="black"></path>
				<path d="M 638 -42 L 548 -49 L 382 -66 Q 358 -68 341 -68 Q 324 -68 322 -73 Q 320 -78 324 -84 Q 330 -91 347.5 -101.5 Q 365 -112 385.5 -114.5 Q 406 -117 443 -108 Q 480 -99 496 -97 L 562 -90 L 672 -82 L 792 -79 L 846 -80 Q 872 -81 883 -82.5 Q 894 -84 904 -79 Q 914 -75 913 -68.5 Q 912 -62 900 -50 Q 888 -38 858 -28 Q 841 -20 831.5 -19 Q 822 -18 799 -23 Q 776 -28 756 -30 L 722 -34 L 666 -40 L 638 -42 Z" fill="red"></path>
</g>
		<text x="40" y="140" font-size="128" fill="#999999">16</text></g>
		<g id="id3:id1:id1" transform="matrix(1.0,0,0,1.0,1024,0.0)">			<g stroke="white" stroke-width="4" transform="scale(4, 4)"> <rect x="1" y="1" width="255" height="255" fill="white" stroke-width="0"/></g>
</g>
		<g id="id3:id2:id2" transform="matrix(1.0,0,0,1.0,2048,0.0)">			<g stroke="white" stroke-width="4" transform="scale(4, 4)"> <rect x="1" y="1" width="255" height="255" fill="white" stroke-width="0"/></g>
</g>
		<g id="id3:id3:id3" transform="matrix(1.0,0,0,1.0,3072,0.0)">			<g stroke="white" stroke-width="4" transform="scale(4, 4)"> <rect x="1" y="1" width="255" height="255" fill="white" stroke-width="0"/></g>
</g>
		<g id="id3:id4:id4" transform="matrix(1.0,0,0,1.0,4096,0.0)">			<g stroke="white" stroke-width="4" transform="scale(4, 4)"> <rect x="1" y="1" width="255" height="255" fill="white" stroke-width="0"/></g>
</g>
</g>
</svg>
