<?xml version="1.0" standalone="no"?>
<!DOCTYPE svg PUBLIC "-//W3C//DTD SVG 1.1//EN"
 "http://www.w3.org/Graphics/SVG/1.1/DTD/svg11.dtd">
<!-- generate by Japanese dictionary app com.asnsami.kanjidictionary -->

<svg xmlns="http://www.w3.org/2000/svg" xmlns:sodipodi="http://sodipodi.sourceforge.net/DTD/sodipodi-0.dtd" version="1.1" width="640" height="512" viewBox="0 0 5120 4096">
	<g id="id0:id0" transform="translate(0.0,0)">
		<g id="id0:id0:id0" transform="matrix(1.0,0,0,1.0,0,0.0)">			<g stroke="lightgray" stroke-width="4" transform="scale(4, 4)"> <rect x="0" y="0" width="256" height="256" fill="white" stroke-width="4"/></g>
			<g transform="scale(0.92, -0.92) translate(60, -920)">					<path d="M 568 581 L 426 567 L 378 561 L 230 542 L 170 537 Q 163 535 161 532 Q 157 520 178 508 Q 212 490 220 490 Q 228 490 243 496 Q 338 520 380 525 L 428 530 L 564 544 L 618 544 L 710 546 L 813 544 Q 834 544 839 550 Q 844 555 842 562 Q 841 569 823 580 Q 805 590 786 596 Q 767 602 761 602 L 696 592 L 625 585 L 568 581 Z" fill="red"></path>
				<path d="M 426 567 L 420 630 L 423 676 L 424 678 Q 422 683 416 688 Q 410 692 397 694 L 375 697 Q 360 700 353 698 Q 345 693 344 691 Q 344 688 354 672 Q 363 656 369 626 L 378 561 L 380 525 L 392 414 Q 392 405 403 390 Q 410 374 418 376 Q 432 379 433 398 L 437 431 L 428 530 L 426 567 Z" fill="lightgray"></path>
				<path d="M 634 713 L 609 724 L 582 732 Q 573 733 568 730 Q 564 727 564 723 Q 563 718 569 699 Q 574 676 573 656 L 568 581 L 564 544 L 548 450 C 543 420 589 418 596 447 L 618 544 L 625 585 L 639 646 Q 640 658 649 669 Q 658 680 660 686 Q 661 692 652 701 Q 643 709 634 713 Z" fill="lightgray"></path>
				<path d="M 433 398 L 576 416 L 605 417 Q 617 418 619 424 Q 620 430 610 438 Q 600 446 596 447 L 548 450 L 437 431 C 407 426 403 394 433 398 Z" fill="lightgray"></path>
				<path d="M 426 299 L 399 307 Q 381 312 376 308 Q 367 303 373 295 Q 378 287 381 284 Q 383 280 387 277 Q 391 273 394 258 L 410 151 Q 411 143 415 130 Q 419 116 428 116 Q 436 114 441 121 Q 445 128 445 136 L 445 168 L 433 274 C 430 298 430 298 426 299 Z" fill="lightgray"></path>
				<path d="M 584 184 L 596 233 Q 604 262 622 284 Q 625 288 625 295 Q 624 301 615 307 Q 579 331 562 331 Q 556 325 511 316 L 426 299 C 397 293 403 269 433 274 L 516 289 Q 547 293 553 287 Q 558 281 553 250 L 542 184 C 537 154 577 155 584 184 Z" fill="lightgray"></path>
				<path d="M 445 136 L 571 153 L 596 154 Q 605 156 607 162 Q 609 168 597 175 L 584 184 C 576 190 572 189 542 184 L 445 168 C 415 163 415 132 445 136 Z" fill="lightgray"></path>
				<path d="M 318 182 L 321 306 Q 321 333 326 352 Q 330 370 330 373 Q 329 376 319 385 Q 308 394 283 401 Q 257 407 249 396 Q 245 393 250 382 L 259 362 Q 263 350 264 333 L 266 305 L 266 270 L 272 168 C 274 138 317 152 318 182 Z" fill="lightgray"></path>
				<path d="M 266 305 L 151 294 Q 126 291 124 289 Q 122 286 125 280 Q 126 273 143 264 Q 160 254 174 256 L 205 262 L 266 270 C 296 274 296 308 266 305 Z" fill="lightgray"></path>
				<path d="M 204 150 L 149 144 L 117 145 Q 108 145 106 140 Q 103 128 119 113 Q 135 97 145 92 Q 161 80 169 82 Q 177 83 191 93 L 214 108 L 332 164 Q 346 168 345 177 Q 343 186 333 184 L 318 182 L 272 168 L 204 150 Z" fill="lightgray"></path>
				<path d="M 699 288 L 715 284 Q 718 283 745 288 L 781 294 Q 806 299 828 305 L 855 312 Q 867 315 869 320 Q 870 324 864 331 Q 857 338 846 341 Q 835 344 832 344 L 818 346 Q 807 346 792 343 L 733 330 Q 713 324 701 322 C 672 316 670 295 699 288 Z" fill="lightgray"></path>
				<path d="M 658 368 L 659 366 L 655 204 Q 650 127 708 116 Q 766 110 825 118 Q 858 118 902 132 Q 931 142 912 160 Q 903 169 886 177 Q 868 184 863 183 Q 858 182 844 176 Q 815 158 745 158 Q 720 158 710 164 Q 693 176 696 214 L 699 288 L 701 322 L 706 364 Q 707 379 718 396 Q 728 412 711 421 L 689 430 Q 657 438 650 429 Q 648 424 653 410 Q 658 395 658 368 Z" fill="lightgray"></path>
				<path d="M 175 50 L 170 42 L 156 8 Q 147 -9 134 -25 L 116 -50 Q 97 -83 100 -98 Q 100 -109 107 -123 Q 110 -137 122 -138 Q 129 -140 144 -132 Q 155 -125 174 -91 Q 193 -57 194 -14 L 192 16 Q 190 29 185 40 Q 179 50 175 50 Z" fill="lightgray"></path>
				<path d="M 418 -23 Q 410 -4 399 6 Q 385 22 367 33 Q 349 44 346 39 Q 342 34 342 28 Q 342 22 348 -2 Q 348 -7 353 -22 L 361 -50 Q 366 -80 378 -95 Q 389 -111 402 -111 Q 414 -112 422 -92 Q 437 -55 418 -23 Z" fill="lightgray"></path>
				<path d="M 540 44 Q 538 42 542 30 L 553 3 Q 554 -4 568 -31 L 585 -70 Q 591 -86 603 -95 Q 627 -111 638 -84 Q 644 -69 645 -55 Q 646 -42 637 -18 Q 628 6 597 26 Q 566 46 554 46 Q 542 46 540 44 Z" fill="lightgray"></path>
				<path d="M 842 12 Q 812 34 781 44 Q 727 59 758 28 L 804 -32 L 838 -85 L 849 -99 Q 854 -107 863 -113 Q 873 -123 882 -122 Q 890 -122 903 -113 Q 912 -104 910 -77 Q 907 -51 901 -40 Q 881 -9 842 12 Z" fill="lightgray"></path>
</g>
		<text x="40" y="140" font-size="128" fill="#999999">1</text></g>
		<g id="id0:id1:id1" transform="matrix(1.0,0,0,1.0,1024,0.0)">			<g stroke="lightgray" stroke-width="4" transform="scale(4, 4)"> <rect x="0" y="0" width="256" height="256" fill="white" stroke-width="4"/></g>
			<g transform="scale(0.92, -0.92) translate(60, -920)">					<path d="M 568 581 L 426 567 L 378 561 L 230 542 L 170 537 Q 163 535 161 532 Q 157 520 178 508 Q 212 490 220 490 Q 228 490 243 496 Q 338 520 380 525 L 428 530 L 564 544 L 618 544 L 710 546 L 813 544 Q 834 544 839 550 Q 844 555 842 562 Q 841 569 823 580 Q 805 590 786 596 Q 767 602 761 602 L 696 592 L 625 585 L 568 581 Z" fill="black"></path>
				<path d="M 426 567 L 420 630 L 423 676 L 424 678 Q 422 683 416 688 Q 410 692 397 694 L 375 697 Q 360 700 353 698 Q 345 693 344 691 Q 344 688 354 672 Q 363 656 369 626 L 378 561 L 380 525 L 392 414 Q 392 405 403 390 Q 410 374 418 376 Q 432 379 433 398 L 437 431 L 428 530 L 426 567 Z" fill="red"></path>
				<path d="M 634 713 L 609 724 L 582 732 Q 573 733 568 730 Q 564 727 564 723 Q 563 718 569 699 Q 574 676 573 656 L 568 581 L 564 544 L 548 450 C 543 420 589 418 596 447 L 618 544 L 625 585 L 639 646 Q 640 658 649 669 Q 658 680 660 686 Q 661 692 652 701 Q 643 709 634 713 Z" fill="lightgray"></path>
				<path d="M 433 398 L 576 416 L 605 417 Q 617 418 619 424 Q 620 430 610 438 Q 600 446 596 447 L 548 450 L 437 431 C 407 426 403 394 433 398 Z" fill="lightgray"></path>
				<path d="M 426 299 L 399 307 Q 381 312 376 308 Q 367 303 373 295 Q 378 287 381 284 Q 383 280 387 277 Q 391 273 394 258 L 410 151 Q 411 143 415 130 Q 419 116 428 116 Q 436 114 441 121 Q 445 128 445 136 L 445 168 L 433 274 C 430 298 430 298 426 299 Z" fill="lightgray"></path>
				<path d="M 584 184 L 596 233 Q 604 262 622 284 Q 625 288 625 295 Q 624 301 615 307 Q 579 331 562 331 Q 556 325 511 316 L 426 299 C 397 293 403 269 433 274 L 516 289 Q 547 293 553 287 Q 558 281 553 250 L 542 184 C 537 154 577 155 584 184 Z" fill="lightgray"></path>
				<path d="M 445 136 L 571 153 L 596 154 Q 605 156 607 162 Q 609 168 597 175 L 584 184 C 576 190 572 189 542 184 L 445 168 C 415 163 415 132 445 136 Z" fill="lightgray"></path>
				<path d="M 318 182 L 321 306 Q 321 333 326 352 Q 330 370 330 373 Q 329 376 319 385 Q 308 394 283 401 Q 257 407 249 396 Q 245 393 250 382 L 259 362 Q 263 350 264 333 L 266 305 L 266 270 L 272 168 C 274 138 317 152 318 182 Z" fill="lightgray"></path>
				<path d="M 266 305 L 151 294 Q 126 291 124 289 Q 122 286 125 280 Q 126 273 143 264 Q 160 254 174 256 L 205 262 L 266 270 C 296 274 296 308 266 305 Z" fill="lightgray"></path>
				<path d="M 204 150 L 149 144 L 117 145 Q 108 145 106 140 Q 103 128 119 113 Q 135 97 145 92 Q 161 80 169 82 Q 177 83 191 93 L 214 108 L 332 164 Q 346 168 345 177 Q 343 186 333 184 L 318 182 L 272 168 L 204 150 Z" fill="lightgray"></path>
				<path d="M 699 288 L 715 284 Q 718 283 745 288 L 781 294 Q 806 299 828 305 L 855 312 Q 867 315 869 320 Q 870 324 864 331 Q 857 338 846 341 Q 835 344 832 344 L 818 346 Q 807 346 792 343 L 733 330 Q 713 324 701 322 C 672 316 670 295 699 288 Z" fill="lightgray"></path>
				<path d="M 658 368 L 659 366 L 655 204 Q 650 127 708 116 Q 766 110 825 118 Q 858 118 902 132 Q 931 142 912 160 Q 903 169 886 177 Q 868 184 863 183 Q 858 182 844 176 Q 815 158 745 158 Q 720 158 710 164 Q 693 176 696 214 L 699 288 L 701 322 L 706 364 Q 707 379 718 396 Q 728 412 711 421 L 689 430 Q 657 438 650 429 Q 648 424 653 410 Q 658 395 658 368 Z" fill="lightgray"></path>
				<path d="M 175 50 L 170 42 L 156 8 Q 147 -9 134 -25 L 116 -50 Q 97 -83 100 -98 Q 100 -109 107 -123 Q 110 -137 122 -138 Q 129 -140 144 -132 Q 155 -125 174 -91 Q 193 -57 194 -14 L 192 16 Q 190 29 185 40 Q 179 50 175 50 Z" fill="lightgray"></path>
				<path d="M 418 -23 Q 410 -4 399 6 Q 385 22 367 33 Q 349 44 346 39 Q 342 34 342 28 Q 342 22 348 -2 Q 348 -7 353 -22 L 361 -50 Q 366 -80 378 -95 Q 389 -111 402 -111 Q 414 -112 422 -92 Q 437 -55 418 -23 Z" fill="lightgray"></path>
				<path d="M 540 44 Q 538 42 542 30 L 553 3 Q 554 -4 568 -31 L 585 -70 Q 591 -86 603 -95 Q 627 -111 638 -84 Q 644 -69 645 -55 Q 646 -42 637 -18 Q 628 6 597 26 Q 566 46 554 46 Q 542 46 540 44 Z" fill="lightgray"></path>
				<path d="M 842 12 Q 812 34 781 44 Q 727 59 758 28 L 804 -32 L 838 -85 L 849 -99 Q 854 -107 863 -113 Q 873 -123 882 -122 Q 890 -122 903 -113 Q 912 -104 910 -77 Q 907 -51 901 -40 Q 881 -9 842 12 Z" fill="lightgray"></path>
</g>
		<text x="40" y="140" font-size="128" fill="#999999">2</text></g>
		<g id="id0:id2:id2" transform="matrix(1.0,0,0,1.0,2048,0.0)">			<g stroke="lightgray" stroke-width="4" transform="scale(4, 4)"> <rect x="0" y="0" width="256" height="256" fill="white" stroke-width="4"/></g>
			<g transform="scale(0.92, -0.92) translate(60, -920)">					<path d="M 568 581 L 426 567 L 378 561 L 230 542 L 170 537 Q 163 535 161 532 Q 157 520 178 508 Q 212 490 220 490 Q 228 490 243 496 Q 338 520 380 525 L 428 530 L 564 544 L 618 544 L 710 546 L 813 544 Q 834 544 839 550 Q 844 555 842 562 Q 841 569 823 580 Q 805 590 786 596 Q 767 602 761 602 L 696 592 L 625 585 L 568 581 Z" fill="black"></path>
				<path d="M 426 567 L 420 630 L 423 676 L 424 678 Q 422 683 416 688 Q 410 692 397 694 L 375 697 Q 360 700 353 698 Q 345 693 344 691 Q 344 688 354 672 Q 363 656 369 626 L 378 561 L 380 525 L 392 414 Q 392 405 403 390 Q 410 374 418 376 Q 432 379 433 398 L 437 431 L 428 530 L 426 567 Z" fill="black"></path>
				<path d="M 634 713 L 609 724 L 582 732 Q 573 733 568 730 Q 564 727 564 723 Q 563 718 569 699 Q 574 676 573 656 L 568 581 L 564 544 L 548 450 C 543 420 589 418 596 447 L 618 544 L 625 585 L 639 646 Q 640 658 649 669 Q 658 680 660 686 Q 661 692 652 701 Q 643 709 634 713 Z" fill="red"></path>
				<path d="M 433 398 L 576 416 L 605 417 Q 617 418 619 424 Q 620 430 610 438 Q 600 446 596 447 L 548 450 L 437 431 C 407 426 403 394 433 398 Z" fill="lightgray"></path>
				<path d="M 426 299 L 399 307 Q 381 312 376 308 Q 367 303 373 295 Q 378 287 381 284 Q 383 280 387 277 Q 391 273 394 258 L 410 151 Q 411 143 415 130 Q 419 116 428 116 Q 436 114 441 121 Q 445 128 445 136 L 445 168 L 433 274 C 430 298 430 298 426 299 Z" fill="lightgray"></path>
				<path d="M 584 184 L 596 233 Q 604 262 622 284 Q 625 288 625 295 Q 624 301 615 307 Q 579 331 562 331 Q 556 325 511 316 L 426 299 C 397 293 403 269 433 274 L 516 289 Q 547 293 553 287 Q 558 281 553 250 L 542 184 C 537 154 577 155 584 184 Z" fill="lightgray"></path>
				<path d="M 445 136 L 571 153 L 596 154 Q 605 156 607 162 Q 609 168 597 175 L 584 184 C 576 190 572 189 542 184 L 445 168 C 415 163 415 132 445 136 Z" fill="lightgray"></path>
				<path d="M 318 182 L 321 306 Q 321 333 326 352 Q 330 370 330 373 Q 329 376 319 385 Q 308 394 283 401 Q 257 407 249 396 Q 245 393 250 382 L 259 362 Q 263 350 264 333 L 266 305 L 266 270 L 272 168 C 274 138 317 152 318 182 Z" fill="lightgray"></path>
				<path d="M 266 305 L 151 294 Q 126 291 124 289 Q 122 286 125 280 Q 126 273 143 264 Q 160 254 174 256 L 205 262 L 266 270 C 296 274 296 308 266 305 Z" fill="lightgray"></path>
				<path d="M 204 150 L 149 144 L 117 145 Q 108 145 106 140 Q 103 128 119 113 Q 135 97 145 92 Q 161 80 169 82 Q 177 83 191 93 L 214 108 L 332 164 Q 346 168 345 177 Q 343 186 333 184 L 318 182 L 272 168 L 204 150 Z" fill="lightgray"></path>
				<path d="M 699 288 L 715 284 Q 718 283 745 288 L 781 294 Q 806 299 828 305 L 855 312 Q 867 315 869 320 Q 870 324 864 331 Q 857 338 846 341 Q 835 344 832 344 L 818 346 Q 807 346 792 343 L 733 330 Q 713 324 701 322 C 672 316 670 295 699 288 Z" fill="lightgray"></path>
				<path d="M 658 368 L 659 366 L 655 204 Q 650 127 708 116 Q 766 110 825 118 Q 858 118 902 132 Q 931 142 912 160 Q 903 169 886 177 Q 868 184 863 183 Q 858 182 844 176 Q 815 158 745 158 Q 720 158 710 164 Q 693 176 696 214 L 699 288 L 701 322 L 706 364 Q 707 379 718 396 Q 728 412 711 421 L 689 430 Q 657 438 650 429 Q 648 424 653 410 Q 658 395 658 368 Z" fill="lightgray"></path>
				<path d="M 175 50 L 170 42 L 156 8 Q 147 -9 134 -25 L 116 -50 Q 97 -83 100 -98 Q 100 -109 107 -123 Q 110 -137 122 -138 Q 129 -140 144 -132 Q 155 -125 174 -91 Q 193 -57 194 -14 L 192 16 Q 190 29 185 40 Q 179 50 175 50 Z" fill="lightgray"></path>
				<path d="M 418 -23 Q 410 -4 399 6 Q 385 22 367 33 Q 349 44 346 39 Q 342 34 342 28 Q 342 22 348 -2 Q 348 -7 353 -22 L 361 -50 Q 366 -80 378 -95 Q 389 -111 402 -111 Q 414 -112 422 -92 Q 437 -55 418 -23 Z" fill="lightgray"></path>
				<path d="M 540 44 Q 538 42 542 30 L 553 3 Q 554 -4 568 -31 L 585 -70 Q 591 -86 603 -95 Q 627 -111 638 -84 Q 644 -69 645 -55 Q 646 -42 637 -18 Q 628 6 597 26 Q 566 46 554 46 Q 542 46 540 44 Z" fill="lightgray"></path>
				<path d="M 842 12 Q 812 34 781 44 Q 727 59 758 28 L 804 -32 L 838 -85 L 849 -99 Q 854 -107 863 -113 Q 873 -123 882 -122 Q 890 -122 903 -113 Q 912 -104 910 -77 Q 907 -51 901 -40 Q 881 -9 842 12 Z" fill="lightgray"></path>
</g>
		<text x="40" y="140" font-size="128" fill="#999999">3</text></g>
		<g id="id0:id3:id3" transform="matrix(1.0,0,0,1.0,3072,0.0)">			<g stroke="lightgray" stroke-width="4" transform="scale(4, 4)"> <rect x="0" y="0" width="256" height="256" fill="white" stroke-width="4"/></g>
			<g transform="scale(0.92, -0.92) translate(60, -920)">					<path d="M 568 581 L 426 567 L 378 561 L 230 542 L 170 537 Q 163 535 161 532 Q 157 520 178 508 Q 212 490 220 490 Q 228 490 243 496 Q 338 520 380 525 L 428 530 L 564 544 L 618 544 L 710 546 L 813 544 Q 834 544 839 550 Q 844 555 842 562 Q 841 569 823 580 Q 805 590 786 596 Q 767 602 761 602 L 696 592 L 625 585 L 568 581 Z" fill="black"></path>
				<path d="M 426 567 L 420 630 L 423 676 L 424 678 Q 422 683 416 688 Q 410 692 397 694 L 375 697 Q 360 700 353 698 Q 345 693 344 691 Q 344 688 354 672 Q 363 656 369 626 L 378 561 L 380 525 L 392 414 Q 392 405 403 390 Q 410 374 418 376 Q 432 379 433 398 L 437 431 L 428 530 L 426 567 Z" fill="black"></path>
				<path d="M 634 713 L 609 724 L 582 732 Q 573 733 568 730 Q 564 727 564 723 Q 563 718 569 699 Q 574 676 573 656 L 568 581 L 564 544 L 548 450 C 543 420 589 418 596 447 L 618 544 L 625 585 L 639 646 Q 640 658 649 669 Q 658 680 660 686 Q 661 692 652 701 Q 643 709 634 713 Z" fill="black"></path>
				<path d="M 433 398 L 576 416 L 605 417 Q 617 418 619 424 Q 620 430 610 438 Q 600 446 596 447 L 548 450 L 437 431 C 407 426 403 394 433 398 Z" fill="red"></path>
				<path d="M 426 299 L 399 307 Q 381 312 376 308 Q 367 303 373 295 Q 378 287 381 284 Q 383 280 387 277 Q 391 273 394 258 L 410 151 Q 411 143 415 130 Q 419 116 428 116 Q 436 114 441 121 Q 445 128 445 136 L 445 168 L 433 274 C 430 298 430 298 426 299 Z" fill="lightgray"></path>
				<path d="M 584 184 L 596 233 Q 604 262 622 284 Q 625 288 625 295 Q 624 301 615 307 Q 579 331 562 331 Q 556 325 511 316 L 426 299 C 397 293 403 269 433 274 L 516 289 Q 547 293 553 287 Q 558 281 553 250 L 542 184 C 537 154 577 155 584 184 Z" fill="lightgray"></path>
				<path d="M 445 136 L 571 153 L 596 154 Q 605 156 607 162 Q 609 168 597 175 L 584 184 C 576 190 572 189 542 184 L 445 168 C 415 163 415 132 445 136 Z" fill="lightgray"></path>
				<path d="M 318 182 L 321 306 Q 321 333 326 352 Q 330 370 330 373 Q 329 376 319 385 Q 308 394 283 401 Q 257 407 249 396 Q 245 393 250 382 L 259 362 Q 263 350 264 333 L 266 305 L 266 270 L 272 168 C 274 138 317 152 318 182 Z" fill="lightgray"></path>
				<path d="M 266 305 L 151 294 Q 126 291 124 289 Q 122 286 125 280 Q 126 273 143 264 Q 160 254 174 256 L 205 262 L 266 270 C 296 274 296 308 266 305 Z" fill="lightgray"></path>
				<path d="M 204 150 L 149 144 L 117 145 Q 108 145 106 140 Q 103 128 119 113 Q 135 97 145 92 Q 161 80 169 82 Q 177 83 191 93 L 214 108 L 332 164 Q 346 168 345 177 Q 343 186 333 184 L 318 182 L 272 168 L 204 150 Z" fill="lightgray"></path>
				<path d="M 699 288 L 715 284 Q 718 283 745 288 L 781 294 Q 806 299 828 305 L 855 312 Q 867 315 869 320 Q 870 324 864 331 Q 857 338 846 341 Q 835 344 832 344 L 818 346 Q 807 346 792 343 L 733 330 Q 713 324 701 322 C 672 316 670 295 699 288 Z" fill="lightgray"></path>
				<path d="M 658 368 L 659 366 L 655 204 Q 650 127 708 116 Q 766 110 825 118 Q 858 118 902 132 Q 931 142 912 160 Q 903 169 886 177 Q 868 184 863 183 Q 858 182 844 176 Q 815 158 745 158 Q 720 158 710 164 Q 693 176 696 214 L 699 288 L 701 322 L 706 364 Q 707 379 718 396 Q 728 412 711 421 L 689 430 Q 657 438 650 429 Q 648 424 653 410 Q 658 395 658 368 Z" fill="lightgray"></path>
				<path d="M 175 50 L 170 42 L 156 8 Q 147 -9 134 -25 L 116 -50 Q 97 -83 100 -98 Q 100 -109 107 -123 Q 110 -137 122 -138 Q 129 -140 144 -132 Q 155 -125 174 -91 Q 193 -57 194 -14 L 192 16 Q 190 29 185 40 Q 179 50 175 50 Z" fill="lightgray"></path>
				<path d="M 418 -23 Q 410 -4 399 6 Q 385 22 367 33 Q 349 44 346 39 Q 342 34 342 28 Q 342 22 348 -2 Q 348 -7 353 -22 L 361 -50 Q 366 -80 378 -95 Q 389 -111 402 -111 Q 414 -112 422 -92 Q 437 -55 418 -23 Z" fill="lightgray"></path>
				<path d="M 540 44 Q 538 42 542 30 L 553 3 Q 554 -4 568 -31 L 585 -70 Q 591 -86 603 -95 Q 627 -111 638 -84 Q 644 -69 645 -55 Q 646 -42 637 -18 Q 628 6 597 26 Q 566 46 554 46 Q 542 46 540 44 Z" fill="lightgray"></path>
				<path d="M 842 12 Q 812 34 781 44 Q 727 59 758 28 L 804 -32 L 838 -85 L 849 -99 Q 854 -107 863 -113 Q 873 -123 882 -122 Q 890 -122 903 -113 Q 912 -104 910 -77 Q 907 -51 901 -40 Q 881 -9 842 12 Z" fill="lightgray"></path>
</g>
		<text x="40" y="140" font-size="128" fill="#999999">4</text></g>
		<g id="id0:id4:id4" transform="matrix(1.0,0,0,1.0,4096,0.0)">			<g stroke="lightgray" stroke-width="4" transform="scale(4, 4)"> <rect x="0" y="0" width="256" height="256" fill="white" stroke-width="4"/></g>
			<g transform="scale(0.92, -0.92) translate(60, -920)">					<path d="M 568 581 L 426 567 L 378 561 L 230 542 L 170 537 Q 163 535 161 532 Q 157 520 178 508 Q 212 490 220 490 Q 228 490 243 496 Q 338 520 380 525 L 428 530 L 564 544 L 618 544 L 710 546 L 813 544 Q 834 544 839 550 Q 844 555 842 562 Q 841 569 823 580 Q 805 590 786 596 Q 767 602 761 602 L 696 592 L 625 585 L 568 581 Z" fill="black"></path>
				<path d="M 426 567 L 420 630 L 423 676 L 424 678 Q 422 683 416 688 Q 410 692 397 694 L 375 697 Q 360 700 353 698 Q 345 693 344 691 Q 344 688 354 672 Q 363 656 369 626 L 378 561 L 380 525 L 392 414 Q 392 405 403 390 Q 410 374 418 376 Q 432 379 433 398 L 437 431 L 428 530 L 426 567 Z" fill="black"></path>
				<path d="M 634 713 L 609 724 L 582 732 Q 573 733 568 730 Q 564 727 564 723 Q 563 718 569 699 Q 574 676 573 656 L 568 581 L 564 544 L 548 450 C 543 420 589 418 596 447 L 618 544 L 625 585 L 639 646 Q 640 658 649 669 Q 658 680 660 686 Q 661 692 652 701 Q 643 709 634 713 Z" fill="black"></path>
				<path d="M 433 398 L 576 416 L 605 417 Q 617 418 619 424 Q 620 430 610 438 Q 600 446 596 447 L 548 450 L 437 431 C 407 426 403 394 433 398 Z" fill="black"></path>
				<path d="M 426 299 L 399 307 Q 381 312 376 308 Q 367 303 373 295 Q 378 287 381 284 Q 383 280 387 277 Q 391 273 394 258 L 410 151 Q 411 143 415 130 Q 419 116 428 116 Q 436 114 441 121 Q 445 128 445 136 L 445 168 L 433 274 C 430 298 430 298 426 299 Z" fill="red"></path>
				<path d="M 584 184 L 596 233 Q 604 262 622 284 Q 625 288 625 295 Q 624 301 615 307 Q 579 331 562 331 Q 556 325 511 316 L 426 299 C 397 293 403 269 433 274 L 516 289 Q 547 293 553 287 Q 558 281 553 250 L 542 184 C 537 154 577 155 584 184 Z" fill="lightgray"></path>
				<path d="M 445 136 L 571 153 L 596 154 Q 605 156 607 162 Q 609 168 597 175 L 584 184 C 576 190 572 189 542 184 L 445 168 C 415 163 415 132 445 136 Z" fill="lightgray"></path>
				<path d="M 318 182 L 321 306 Q 321 333 326 352 Q 330 370 330 373 Q 329 376 319 385 Q 308 394 283 401 Q 257 407 249 396 Q 245 393 250 382 L 259 362 Q 263 350 264 333 L 266 305 L 266 270 L 272 168 C 274 138 317 152 318 182 Z" fill="lightgray"></path>
				<path d="M 266 305 L 151 294 Q 126 291 124 289 Q 122 286 125 280 Q 126 273 143 264 Q 160 254 174 256 L 205 262 L 266 270 C 296 274 296 308 266 305 Z" fill="lightgray"></path>
				<path d="M 204 150 L 149 144 L 117 145 Q 108 145 106 140 Q 103 128 119 113 Q 135 97 145 92 Q 161 80 169 82 Q 177 83 191 93 L 214 108 L 332 164 Q 346 168 345 177 Q 343 186 333 184 L 318 182 L 272 168 L 204 150 Z" fill="lightgray"></path>
				<path d="M 699 288 L 715 284 Q 718 283 745 288 L 781 294 Q 806 299 828 305 L 855 312 Q 867 315 869 320 Q 870 324 864 331 Q 857 338 846 341 Q 835 344 832 344 L 818 346 Q 807 346 792 343 L 733 330 Q 713 324 701 322 C 672 316 670 295 699 288 Z" fill="lightgray"></path>
				<path d="M 658 368 L 659 366 L 655 204 Q 650 127 708 116 Q 766 110 825 118 Q 858 118 902 132 Q 931 142 912 160 Q 903 169 886 177 Q 868 184 863 183 Q 858 182 844 176 Q 815 158 745 158 Q 720 158 710 164 Q 693 176 696 214 L 699 288 L 701 322 L 706 364 Q 707 379 718 396 Q 728 412 711 421 L 689 430 Q 657 438 650 429 Q 648 424 653 410 Q 658 395 658 368 Z" fill="lightgray"></path>
				<path d="M 175 50 L 170 42 L 156 8 Q 147 -9 134 -25 L 116 -50 Q 97 -83 100 -98 Q 100 -109 107 -123 Q 110 -137 122 -138 Q 129 -140 144 -132 Q 155 -125 174 -91 Q 193 -57 194 -14 L 192 16 Q 190 29 185 40 Q 179 50 175 50 Z" fill="lightgray"></path>
				<path d="M 418 -23 Q 410 -4 399 6 Q 385 22 367 33 Q 349 44 346 39 Q 342 34 342 28 Q 342 22 348 -2 Q 348 -7 353 -22 L 361 -50 Q 366 -80 378 -95 Q 389 -111 402 -111 Q 414 -112 422 -92 Q 437 -55 418 -23 Z" fill="lightgray"></path>
				<path d="M 540 44 Q 538 42 542 30 L 553 3 Q 554 -4 568 -31 L 585 -70 Q 591 -86 603 -95 Q 627 -111 638 -84 Q 644 -69 645 -55 Q 646 -42 637 -18 Q 628 6 597 26 Q 566 46 554 46 Q 542 46 540 44 Z" fill="lightgray"></path>
				<path d="M 842 12 Q 812 34 781 44 Q 727 59 758 28 L 804 -32 L 838 -85 L 849 -99 Q 854 -107 863 -113 Q 873 -123 882 -122 Q 890 -122 903 -113 Q 912 -104 910 -77 Q 907 -51 901 -40 Q 881 -9 842 12 Z" fill="lightgray"></path>
</g>
		<text x="40" y="140" font-size="128" fill="#999999">5</text></g>
</g>
	<g id="id1:id1" transform="translate(0.0,1024)">
		<g id="id1:id0:id0" transform="matrix(1.0,0,0,1.0,0,0.0)">			<g stroke="lightgray" stroke-width="4" transform="scale(4, 4)"> <rect x="0" y="0" width="256" height="256" fill="white" stroke-width="4"/></g>
			<g transform="scale(0.92, -0.92) translate(60, -920)">					<path d="M 568 581 L 426 567 L 378 561 L 230 542 L 170 537 Q 163 535 161 532 Q 157 520 178 508 Q 212 490 220 490 Q 228 490 243 496 Q 338 520 380 525 L 428 530 L 564 544 L 618 544 L 710 546 L 813 544 Q 834 544 839 550 Q 844 555 842 562 Q 841 569 823 580 Q 805 590 786 596 Q 767 602 761 602 L 696 592 L 625 585 L 568 581 Z" fill="black"></path>
				<path d="M 426 567 L 420 630 L 423 676 L 424 678 Q 422 683 416 688 Q 410 692 397 694 L 375 697 Q 360 700 353 698 Q 345 693 344 691 Q 344 688 354 672 Q 363 656 369 626 L 378 561 L 380 525 L 392 414 Q 392 405 403 390 Q 410 374 418 376 Q 432 379 433 398 L 437 431 L 428 530 L 426 567 Z" fill="black"></path>
				<path d="M 634 713 L 609 724 L 582 732 Q 573 733 568 730 Q 564 727 564 723 Q 563 718 569 699 Q 574 676 573 656 L 568 581 L 564 544 L 548 450 C 543 420 589 418 596 447 L 618 544 L 625 585 L 639 646 Q 640 658 649 669 Q 658 680 660 686 Q 661 692 652 701 Q 643 709 634 713 Z" fill="black"></path>
				<path d="M 433 398 L 576 416 L 605 417 Q 617 418 619 424 Q 620 430 610 438 Q 600 446 596 447 L 548 450 L 437 431 C 407 426 403 394 433 398 Z" fill="black"></path>
				<path d="M 426 299 L 399 307 Q 381 312 376 308 Q 367 303 373 295 Q 378 287 381 284 Q 383 280 387 277 Q 391 273 394 258 L 410 151 Q 411 143 415 130 Q 419 116 428 116 Q 436 114 441 121 Q 445 128 445 136 L 445 168 L 433 274 C 430 298 430 298 426 299 Z" fill="black"></path>
				<path d="M 584 184 L 596 233 Q 604 262 622 284 Q 625 288 625 295 Q 624 301 615 307 Q 579 331 562 331 Q 556 325 511 316 L 426 299 C 397 293 403 269 433 274 L 516 289 Q 547 293 553 287 Q 558 281 553 250 L 542 184 C 537 154 577 155 584 184 Z" fill="red"></path>
				<path d="M 445 136 L 571 153 L 596 154 Q 605 156 607 162 Q 609 168 597 175 L 584 184 C 576 190 572 189 542 184 L 445 168 C 415 163 415 132 445 136 Z" fill="lightgray"></path>
				<path d="M 318 182 L 321 306 Q 321 333 326 352 Q 330 370 330 373 Q 329 376 319 385 Q 308 394 283 401 Q 257 407 249 396 Q 245 393 250 382 L 259 362 Q 263 350 264 333 L 266 305 L 266 270 L 272 168 C 274 138 317 152 318 182 Z" fill="lightgray"></path>
				<path d="M 266 305 L 151 294 Q 126 291 124 289 Q 122 286 125 280 Q 126 273 143 264 Q 160 254 174 256 L 205 262 L 266 270 C 296 274 296 308 266 305 Z" fill="lightgray"></path>
				<path d="M 204 150 L 149 144 L 117 145 Q 108 145 106 140 Q 103 128 119 113 Q 135 97 145 92 Q 161 80 169 82 Q 177 83 191 93 L 214 108 L 332 164 Q 346 168 345 177 Q 343 186 333 184 L 318 182 L 272 168 L 204 150 Z" fill="lightgray"></path>
				<path d="M 699 288 L 715 284 Q 718 283 745 288 L 781 294 Q 806 299 828 305 L 855 312 Q 867 315 869 320 Q 870 324 864 331 Q 857 338 846 341 Q 835 344 832 344 L 818 346 Q 807 346 792 343 L 733 330 Q 713 324 701 322 C 672 316 670 295 699 288 Z" fill="lightgray"></path>
				<path d="M 658 368 L 659 366 L 655 204 Q 650 127 708 116 Q 766 110 825 118 Q 858 118 902 132 Q 931 142 912 160 Q 903 169 886 177 Q 868 184 863 183 Q 858 182 844 176 Q 815 158 745 158 Q 720 158 710 164 Q 693 176 696 214 L 699 288 L 701 322 L 706 364 Q 707 379 718 396 Q 728 412 711 421 L 689 430 Q 657 438 650 429 Q 648 424 653 410 Q 658 395 658 368 Z" fill="lightgray"></path>
				<path d="M 175 50 L 170 42 L 156 8 Q 147 -9 134 -25 L 116 -50 Q 97 -83 100 -98 Q 100 -109 107 -123 Q 110 -137 122 -138 Q 129 -140 144 -132 Q 155 -125 174 -91 Q 193 -57 194 -14 L 192 16 Q 190 29 185 40 Q 179 50 175 50 Z" fill="lightgray"></path>
				<path d="M 418 -23 Q 410 -4 399 6 Q 385 22 367 33 Q 349 44 346 39 Q 342 34 342 28 Q 342 22 348 -2 Q 348 -7 353 -22 L 361 -50 Q 366 -80 378 -95 Q 389 -111 402 -111 Q 414 -112 422 -92 Q 437 -55 418 -23 Z" fill="lightgray"></path>
				<path d="M 540 44 Q 538 42 542 30 L 553 3 Q 554 -4 568 -31 L 585 -70 Q 591 -86 603 -95 Q 627 -111 638 -84 Q 644 -69 645 -55 Q 646 -42 637 -18 Q 628 6 597 26 Q 566 46 554 46 Q 542 46 540 44 Z" fill="lightgray"></path>
				<path d="M 842 12 Q 812 34 781 44 Q 727 59 758 28 L 804 -32 L 838 -85 L 849 -99 Q 854 -107 863 -113 Q 873 -123 882 -122 Q 890 -122 903 -113 Q 912 -104 910 -77 Q 907 -51 901 -40 Q 881 -9 842 12 Z" fill="lightgray"></path>
</g>
		<text x="40" y="140" font-size="128" fill="#999999">6</text></g>
		<g id="id1:id1:id1" transform="matrix(1.0,0,0,1.0,1024,0.0)">			<g stroke="lightgray" stroke-width="4" transform="scale(4, 4)"> <rect x="0" y="0" width="256" height="256" fill="white" stroke-width="4"/></g>
			<g transform="scale(0.92, -0.92) translate(60, -920)">					<path d="M 568 581 L 426 567 L 378 561 L 230 542 L 170 537 Q 163 535 161 532 Q 157 520 178 508 Q 212 490 220 490 Q 228 490 243 496 Q 338 520 380 525 L 428 530 L 564 544 L 618 544 L 710 546 L 813 544 Q 834 544 839 550 Q 844 555 842 562 Q 841 569 823 580 Q 805 590 786 596 Q 767 602 761 602 L 696 592 L 625 585 L 568 581 Z" fill="black"></path>
				<path d="M 426 567 L 420 630 L 423 676 L 424 678 Q 422 683 416 688 Q 410 692 397 694 L 375 697 Q 360 700 353 698 Q 345 693 344 691 Q 344 688 354 672 Q 363 656 369 626 L 378 561 L 380 525 L 392 414 Q 392 405 403 390 Q 410 374 418 376 Q 432 379 433 398 L 437 431 L 428 530 L 426 567 Z" fill="black"></path>
				<path d="M 634 713 L 609 724 L 582 732 Q 573 733 568 730 Q 564 727 564 723 Q 563 718 569 699 Q 574 676 573 656 L 568 581 L 564 544 L 548 450 C 543 420 589 418 596 447 L 618 544 L 625 585 L 639 646 Q 640 658 649 669 Q 658 680 660 686 Q 661 692 652 701 Q 643 709 634 713 Z" fill="black"></path>
				<path d="M 433 398 L 576 416 L 605 417 Q 617 418 619 424 Q 620 430 610 438 Q 600 446 596 447 L 548 450 L 437 431 C 407 426 403 394 433 398 Z" fill="black"></path>
				<path d="M 426 299 L 399 307 Q 381 312 376 308 Q 367 303 373 295 Q 378 287 381 284 Q 383 280 387 277 Q 391 273 394 258 L 410 151 Q 411 143 415 130 Q 419 116 428 116 Q 436 114 441 121 Q 445 128 445 136 L 445 168 L 433 274 C 430 298 430 298 426 299 Z" fill="black"></path>
				<path d="M 584 184 L 596 233 Q 604 262 622 284 Q 625 288 625 295 Q 624 301 615 307 Q 579 331 562 331 Q 556 325 511 316 L 426 299 C 397 293 403 269 433 274 L 516 289 Q 547 293 553 287 Q 558 281 553 250 L 542 184 C 537 154 577 155 584 184 Z" fill="black"></path>
				<path d="M 445 136 L 571 153 L 596 154 Q 605 156 607 162 Q 609 168 597 175 L 584 184 C 576 190 572 189 542 184 L 445 168 C 415 163 415 132 445 136 Z" fill="red"></path>
				<path d="M 318 182 L 321 306 Q 321 333 326 352 Q 330 370 330 373 Q 329 376 319 385 Q 308 394 283 401 Q 257 407 249 396 Q 245 393 250 382 L 259 362 Q 263 350 264 333 L 266 305 L 266 270 L 272 168 C 274 138 317 152 318 182 Z" fill="lightgray"></path>
				<path d="M 266 305 L 151 294 Q 126 291 124 289 Q 122 286 125 280 Q 126 273 143 264 Q 160 254 174 256 L 205 262 L 266 270 C 296 274 296 308 266 305 Z" fill="lightgray"></path>
				<path d="M 204 150 L 149 144 L 117 145 Q 108 145 106 140 Q 103 128 119 113 Q 135 97 145 92 Q 161 80 169 82 Q 177 83 191 93 L 214 108 L 332 164 Q 346 168 345 177 Q 343 186 333 184 L 318 182 L 272 168 L 204 150 Z" fill="lightgray"></path>
				<path d="M 699 288 L 715 284 Q 718 283 745 288 L 781 294 Q 806 299 828 305 L 855 312 Q 867 315 869 320 Q 870 324 864 331 Q 857 338 846 341 Q 835 344 832 344 L 818 346 Q 807 346 792 343 L 733 330 Q 713 324 701 322 C 672 316 670 295 699 288 Z" fill="lightgray"></path>
				<path d="M 658 368 L 659 366 L 655 204 Q 650 127 708 116 Q 766 110 825 118 Q 858 118 902 132 Q 931 142 912 160 Q 903 169 886 177 Q 868 184 863 183 Q 858 182 844 176 Q 815 158 745 158 Q 720 158 710 164 Q 693 176 696 214 L 699 288 L 701 322 L 706 364 Q 707 379 718 396 Q 728 412 711 421 L 689 430 Q 657 438 650 429 Q 648 424 653 410 Q 658 395 658 368 Z" fill="lightgray"></path>
				<path d="M 175 50 L 170 42 L 156 8 Q 147 -9 134 -25 L 116 -50 Q 97 -83 100 -98 Q 100 -109 107 -123 Q 110 -137 122 -138 Q 129 -140 144 -132 Q 155 -125 174 -91 Q 193 -57 194 -14 L 192 16 Q 190 29 185 40 Q 179 50 175 50 Z" fill="lightgray"></path>
				<path d="M 418 -23 Q 410 -4 399 6 Q 385 22 367 33 Q 349 44 346 39 Q 342 34 342 28 Q 342 22 348 -2 Q 348 -7 353 -22 L 361 -50 Q 366 -80 378 -95 Q 389 -111 402 -111 Q 414 -112 422 -92 Q 437 -55 418 -23 Z" fill="lightgray"></path>
				<path d="M 540 44 Q 538 42 542 30 L 553 3 Q 554 -4 568 -31 L 585 -70 Q 591 -86 603 -95 Q 627 -111 638 -84 Q 644 -69 645 -55 Q 646 -42 637 -18 Q 628 6 597 26 Q 566 46 554 46 Q 542 46 540 44 Z" fill="lightgray"></path>
				<path d="M 842 12 Q 812 34 781 44 Q 727 59 758 28 L 804 -32 L 838 -85 L 849 -99 Q 854 -107 863 -113 Q 873 -123 882 -122 Q 890 -122 903 -113 Q 912 -104 910 -77 Q 907 -51 901 -40 Q 881 -9 842 12 Z" fill="lightgray"></path>
</g>
		<text x="40" y="140" font-size="128" fill="#999999">7</text></g>
		<g id="id1:id2:id2" transform="matrix(1.0,0,0,1.0,2048,0.0)">			<g stroke="lightgray" stroke-width="4" transform="scale(4, 4)"> <rect x="0" y="0" width="256" height="256" fill="white" stroke-width="4"/></g>
			<g transform="scale(0.92, -0.92) translate(60, -920)">					<path d="M 568 581 L 426 567 L 378 561 L 230 542 L 170 537 Q 163 535 161 532 Q 157 520 178 508 Q 212 490 220 490 Q 228 490 243 496 Q 338 520 380 525 L 428 530 L 564 544 L 618 544 L 710 546 L 813 544 Q 834 544 839 550 Q 844 555 842 562 Q 841 569 823 580 Q 805 590 786 596 Q 767 602 761 602 L 696 592 L 625 585 L 568 581 Z" fill="black"></path>
				<path d="M 426 567 L 420 630 L 423 676 L 424 678 Q 422 683 416 688 Q 410 692 397 694 L 375 697 Q 360 700 353 698 Q 345 693 344 691 Q 344 688 354 672 Q 363 656 369 626 L 378 561 L 380 525 L 392 414 Q 392 405 403 390 Q 410 374 418 376 Q 432 379 433 398 L 437 431 L 428 530 L 426 567 Z" fill="black"></path>
				<path d="M 634 713 L 609 724 L 582 732 Q 573 733 568 730 Q 564 727 564 723 Q 563 718 569 699 Q 574 676 573 656 L 568 581 L 564 544 L 548 450 C 543 420 589 418 596 447 L 618 544 L 625 585 L 639 646 Q 640 658 649 669 Q 658 680 660 686 Q 661 692 652 701 Q 643 709 634 713 Z" fill="black"></path>
				<path d="M 433 398 L 576 416 L 605 417 Q 617 418 619 424 Q 620 430 610 438 Q 600 446 596 447 L 548 450 L 437 431 C 407 426 403 394 433 398 Z" fill="black"></path>
				<path d="M 426 299 L 399 307 Q 381 312 376 308 Q 367 303 373 295 Q 378 287 381 284 Q 383 280 387 277 Q 391 273 394 258 L 410 151 Q 411 143 415 130 Q 419 116 428 116 Q 436 114 441 121 Q 445 128 445 136 L 445 168 L 433 274 C 430 298 430 298 426 299 Z" fill="black"></path>
				<path d="M 584 184 L 596 233 Q 604 262 622 284 Q 625 288 625 295 Q 624 301 615 307 Q 579 331 562 331 Q 556 325 511 316 L 426 299 C 397 293 403 269 433 274 L 516 289 Q 547 293 553 287 Q 558 281 553 250 L 542 184 C 537 154 577 155 584 184 Z" fill="black"></path>
				<path d="M 445 136 L 571 153 L 596 154 Q 605 156 607 162 Q 609 168 597 175 L 584 184 C 576 190 572 189 542 184 L 445 168 C 415 163 415 132 445 136 Z" fill="black"></path>
				<path d="M 318 182 L 321 306 Q 321 333 326 352 Q 330 370 330 373 Q 329 376 319 385 Q 308 394 283 401 Q 257 407 249 396 Q 245 393 250 382 L 259 362 Q 263 350 264 333 L 266 305 L 266 270 L 272 168 C 274 138 317 152 318 182 Z" fill="red"></path>
				<path d="M 266 305 L 151 294 Q 126 291 124 289 Q 122 286 125 280 Q 126 273 143 264 Q 160 254 174 256 L 205 262 L 266 270 C 296 274 296 308 266 305 Z" fill="lightgray"></path>
				<path d="M 204 150 L 149 144 L 117 145 Q 108 145 106 140 Q 103 128 119 113 Q 135 97 145 92 Q 161 80 169 82 Q 177 83 191 93 L 214 108 L 332 164 Q 346 168 345 177 Q 343 186 333 184 L 318 182 L 272 168 L 204 150 Z" fill="lightgray"></path>
				<path d="M 699 288 L 715 284 Q 718 283 745 288 L 781 294 Q 806 299 828 305 L 855 312 Q 867 315 869 320 Q 870 324 864 331 Q 857 338 846 341 Q 835 344 832 344 L 818 346 Q 807 346 792 343 L 733 330 Q 713 324 701 322 C 672 316 670 295 699 288 Z" fill="lightgray"></path>
				<path d="M 658 368 L 659 366 L 655 204 Q 650 127 708 116 Q 766 110 825 118 Q 858 118 902 132 Q 931 142 912 160 Q 903 169 886 177 Q 868 184 863 183 Q 858 182 844 176 Q 815 158 745 158 Q 720 158 710 164 Q 693 176 696 214 L 699 288 L 701 322 L 706 364 Q 707 379 718 396 Q 728 412 711 421 L 689 430 Q 657 438 650 429 Q 648 424 653 410 Q 658 395 658 368 Z" fill="lightgray"></path>
				<path d="M 175 50 L 170 42 L 156 8 Q 147 -9 134 -25 L 116 -50 Q 97 -83 100 -98 Q 100 -109 107 -123 Q 110 -137 122 -138 Q 129 -140 144 -132 Q 155 -125 174 -91 Q 193 -57 194 -14 L 192 16 Q 190 29 185 40 Q 179 50 175 50 Z" fill="lightgray"></path>
				<path d="M 418 -23 Q 410 -4 399 6 Q 385 22 367 33 Q 349 44 346 39 Q 342 34 342 28 Q 342 22 348 -2 Q 348 -7 353 -22 L 361 -50 Q 366 -80 378 -95 Q 389 -111 402 -111 Q 414 -112 422 -92 Q 437 -55 418 -23 Z" fill="lightgray"></path>
				<path d="M 540 44 Q 538 42 542 30 L 553 3 Q 554 -4 568 -31 L 585 -70 Q 591 -86 603 -95 Q 627 -111 638 -84 Q 644 -69 645 -55 Q 646 -42 637 -18 Q 628 6 597 26 Q 566 46 554 46 Q 542 46 540 44 Z" fill="lightgray"></path>
				<path d="M 842 12 Q 812 34 781 44 Q 727 59 758 28 L 804 -32 L 838 -85 L 849 -99 Q 854 -107 863 -113 Q 873 -123 882 -122 Q 890 -122 903 -113 Q 912 -104 910 -77 Q 907 -51 901 -40 Q 881 -9 842 12 Z" fill="lightgray"></path>
</g>
		<text x="40" y="140" font-size="128" fill="#999999">8</text></g>
		<g id="id1:id3:id3" transform="matrix(1.0,0,0,1.0,3072,0.0)">			<g stroke="lightgray" stroke-width="4" transform="scale(4, 4)"> <rect x="0" y="0" width="256" height="256" fill="white" stroke-width="4"/></g>
			<g transform="scale(0.92, -0.92) translate(60, -920)">					<path d="M 568 581 L 426 567 L 378 561 L 230 542 L 170 537 Q 163 535 161 532 Q 157 520 178 508 Q 212 490 220 490 Q 228 490 243 496 Q 338 520 380 525 L 428 530 L 564 544 L 618 544 L 710 546 L 813 544 Q 834 544 839 550 Q 844 555 842 562 Q 841 569 823 580 Q 805 590 786 596 Q 767 602 761 602 L 696 592 L 625 585 L 568 581 Z" fill="black"></path>
				<path d="M 426 567 L 420 630 L 423 676 L 424 678 Q 422 683 416 688 Q 410 692 397 694 L 375 697 Q 360 700 353 698 Q 345 693 344 691 Q 344 688 354 672 Q 363 656 369 626 L 378 561 L 380 525 L 392 414 Q 392 405 403 390 Q 410 374 418 376 Q 432 379 433 398 L 437 431 L 428 530 L 426 567 Z" fill="black"></path>
				<path d="M 634 713 L 609 724 L 582 732 Q 573 733 568 730 Q 564 727 564 723 Q 563 718 569 699 Q 574 676 573 656 L 568 581 L 564 544 L 548 450 C 543 420 589 418 596 447 L 618 544 L 625 585 L 639 646 Q 640 658 649 669 Q 658 680 660 686 Q 661 692 652 701 Q 643 709 634 713 Z" fill="black"></path>
				<path d="M 433 398 L 576 416 L 605 417 Q 617 418 619 424 Q 620 430 610 438 Q 600 446 596 447 L 548 450 L 437 431 C 407 426 403 394 433 398 Z" fill="black"></path>
				<path d="M 426 299 L 399 307 Q 381 312 376 308 Q 367 303 373 295 Q 378 287 381 284 Q 383 280 387 277 Q 391 273 394 258 L 410 151 Q 411 143 415 130 Q 419 116 428 116 Q 436 114 441 121 Q 445 128 445 136 L 445 168 L 433 274 C 430 298 430 298 426 299 Z" fill="black"></path>
				<path d="M 584 184 L 596 233 Q 604 262 622 284 Q 625 288 625 295 Q 624 301 615 307 Q 579 331 562 331 Q 556 325 511 316 L 426 299 C 397 293 403 269 433 274 L 516 289 Q 547 293 553 287 Q 558 281 553 250 L 542 184 C 537 154 577 155 584 184 Z" fill="black"></path>
				<path d="M 445 136 L 571 153 L 596 154 Q 605 156 607 162 Q 609 168 597 175 L 584 184 C 576 190 572 189 542 184 L 445 168 C 415 163 415 132 445 136 Z" fill="black"></path>
				<path d="M 318 182 L 321 306 Q 321 333 326 352 Q 330 370 330 373 Q 329 376 319 385 Q 308 394 283 401 Q 257 407 249 396 Q 245 393 250 382 L 259 362 Q 263 350 264 333 L 266 305 L 266 270 L 272 168 C 274 138 317 152 318 182 Z" fill="black"></path>
				<path d="M 266 305 L 151 294 Q 126 291 124 289 Q 122 286 125 280 Q 126 273 143 264 Q 160 254 174 256 L 205 262 L 266 270 C 296 274 296 308 266 305 Z" fill="red"></path>
				<path d="M 204 150 L 149 144 L 117 145 Q 108 145 106 140 Q 103 128 119 113 Q 135 97 145 92 Q 161 80 169 82 Q 177 83 191 93 L 214 108 L 332 164 Q 346 168 345 177 Q 343 186 333 184 L 318 182 L 272 168 L 204 150 Z" fill="lightgray"></path>
				<path d="M 699 288 L 715 284 Q 718 283 745 288 L 781 294 Q 806 299 828 305 L 855 312 Q 867 315 869 320 Q 870 324 864 331 Q 857 338 846 341 Q 835 344 832 344 L 818 346 Q 807 346 792 343 L 733 330 Q 713 324 701 322 C 672 316 670 295 699 288 Z" fill="lightgray"></path>
				<path d="M 658 368 L 659 366 L 655 204 Q 650 127 708 116 Q 766 110 825 118 Q 858 118 902 132 Q 931 142 912 160 Q 903 169 886 177 Q 868 184 863 183 Q 858 182 844 176 Q 815 158 745 158 Q 720 158 710 164 Q 693 176 696 214 L 699 288 L 701 322 L 706 364 Q 707 379 718 396 Q 728 412 711 421 L 689 430 Q 657 438 650 429 Q 648 424 653 410 Q 658 395 658 368 Z" fill="lightgray"></path>
				<path d="M 175 50 L 170 42 L 156 8 Q 147 -9 134 -25 L 116 -50 Q 97 -83 100 -98 Q 100 -109 107 -123 Q 110 -137 122 -138 Q 129 -140 144 -132 Q 155 -125 174 -91 Q 193 -57 194 -14 L 192 16 Q 190 29 185 40 Q 179 50 175 50 Z" fill="lightgray"></path>
				<path d="M 418 -23 Q 410 -4 399 6 Q 385 22 367 33 Q 349 44 346 39 Q 342 34 342 28 Q 342 22 348 -2 Q 348 -7 353 -22 L 361 -50 Q 366 -80 378 -95 Q 389 -111 402 -111 Q 414 -112 422 -92 Q 437 -55 418 -23 Z" fill="lightgray"></path>
				<path d="M 540 44 Q 538 42 542 30 L 553 3 Q 554 -4 568 -31 L 585 -70 Q 591 -86 603 -95 Q 627 -111 638 -84 Q 644 -69 645 -55 Q 646 -42 637 -18 Q 628 6 597 26 Q 566 46 554 46 Q 542 46 540 44 Z" fill="lightgray"></path>
				<path d="M 842 12 Q 812 34 781 44 Q 727 59 758 28 L 804 -32 L 838 -85 L 849 -99 Q 854 -107 863 -113 Q 873 -123 882 -122 Q 890 -122 903 -113 Q 912 -104 910 -77 Q 907 -51 901 -40 Q 881 -9 842 12 Z" fill="lightgray"></path>
</g>
		<text x="40" y="140" font-size="128" fill="#999999">9</text></g>
		<g id="id1:id4:id4" transform="matrix(1.0,0,0,1.0,4096,0.0)">			<g stroke="lightgray" stroke-width="4" transform="scale(4, 4)"> <rect x="0" y="0" width="256" height="256" fill="white" stroke-width="4"/></g>
			<g transform="scale(0.92, -0.92) translate(60, -920)">					<path d="M 568 581 L 426 567 L 378 561 L 230 542 L 170 537 Q 163 535 161 532 Q 157 520 178 508 Q 212 490 220 490 Q 228 490 243 496 Q 338 520 380 525 L 428 530 L 564 544 L 618 544 L 710 546 L 813 544 Q 834 544 839 550 Q 844 555 842 562 Q 841 569 823 580 Q 805 590 786 596 Q 767 602 761 602 L 696 592 L 625 585 L 568 581 Z" fill="black"></path>
				<path d="M 426 567 L 420 630 L 423 676 L 424 678 Q 422 683 416 688 Q 410 692 397 694 L 375 697 Q 360 700 353 698 Q 345 693 344 691 Q 344 688 354 672 Q 363 656 369 626 L 378 561 L 380 525 L 392 414 Q 392 405 403 390 Q 410 374 418 376 Q 432 379 433 398 L 437 431 L 428 530 L 426 567 Z" fill="black"></path>
				<path d="M 634 713 L 609 724 L 582 732 Q 573 733 568 730 Q 564 727 564 723 Q 563 718 569 699 Q 574 676 573 656 L 568 581 L 564 544 L 548 450 C 543 420 589 418 596 447 L 618 544 L 625 585 L 639 646 Q 640 658 649 669 Q 658 680 660 686 Q 661 692 652 701 Q 643 709 634 713 Z" fill="black"></path>
				<path d="M 433 398 L 576 416 L 605 417 Q 617 418 619 424 Q 620 430 610 438 Q 600 446 596 447 L 548 450 L 437 431 C 407 426 403 394 433 398 Z" fill="black"></path>
				<path d="M 426 299 L 399 307 Q 381 312 376 308 Q 367 303 373 295 Q 378 287 381 284 Q 383 280 387 277 Q 391 273 394 258 L 410 151 Q 411 143 415 130 Q 419 116 428 116 Q 436 114 441 121 Q 445 128 445 136 L 445 168 L 433 274 C 430 298 430 298 426 299 Z" fill="black"></path>
				<path d="M 584 184 L 596 233 Q 604 262 622 284 Q 625 288 625 295 Q 624 301 615 307 Q 579 331 562 331 Q 556 325 511 316 L 426 299 C 397 293 403 269 433 274 L 516 289 Q 547 293 553 287 Q 558 281 553 250 L 542 184 C 537 154 577 155 584 184 Z" fill="black"></path>
				<path d="M 445 136 L 571 153 L 596 154 Q 605 156 607 162 Q 609 168 597 175 L 584 184 C 576 190 572 189 542 184 L 445 168 C 415 163 415 132 445 136 Z" fill="black"></path>
				<path d="M 318 182 L 321 306 Q 321 333 326 352 Q 330 370 330 373 Q 329 376 319 385 Q 308 394 283 401 Q 257 407 249 396 Q 245 393 250 382 L 259 362 Q 263 350 264 333 L 266 305 L 266 270 L 272 168 C 274 138 317 152 318 182 Z" fill="black"></path>
				<path d="M 266 305 L 151 294 Q 126 291 124 289 Q 122 286 125 280 Q 126 273 143 264 Q 160 254 174 256 L 205 262 L 266 270 C 296 274 296 308 266 305 Z" fill="black"></path>
				<path d="M 204 150 L 149 144 L 117 145 Q 108 145 106 140 Q 103 128 119 113 Q 135 97 145 92 Q 161 80 169 82 Q 177 83 191 93 L 214 108 L 332 164 Q 346 168 345 177 Q 343 186 333 184 L 318 182 L 272 168 L 204 150 Z" fill="red"></path>
				<path d="M 699 288 L 715 284 Q 718 283 745 288 L 781 294 Q 806 299 828 305 L 855 312 Q 867 315 869 320 Q 870 324 864 331 Q 857 338 846 341 Q 835 344 832 344 L 818 346 Q 807 346 792 343 L 733 330 Q 713 324 701 322 C 672 316 670 295 699 288 Z" fill="lightgray"></path>
				<path d="M 658 368 L 659 366 L 655 204 Q 650 127 708 116 Q 766 110 825 118 Q 858 118 902 132 Q 931 142 912 160 Q 903 169 886 177 Q 868 184 863 183 Q 858 182 844 176 Q 815 158 745 158 Q 720 158 710 164 Q 693 176 696 214 L 699 288 L 701 322 L 706 364 Q 707 379 718 396 Q 728 412 711 421 L 689 430 Q 657 438 650 429 Q 648 424 653 410 Q 658 395 658 368 Z" fill="lightgray"></path>
				<path d="M 175 50 L 170 42 L 156 8 Q 147 -9 134 -25 L 116 -50 Q 97 -83 100 -98 Q 100 -109 107 -123 Q 110 -137 122 -138 Q 129 -140 144 -132 Q 155 -125 174 -91 Q 193 -57 194 -14 L 192 16 Q 190 29 185 40 Q 179 50 175 50 Z" fill="lightgray"></path>
				<path d="M 418 -23 Q 410 -4 399 6 Q 385 22 367 33 Q 349 44 346 39 Q 342 34 342 28 Q 342 22 348 -2 Q 348 -7 353 -22 L 361 -50 Q 366 -80 378 -95 Q 389 -111 402 -111 Q 414 -112 422 -92 Q 437 -55 418 -23 Z" fill="lightgray"></path>
				<path d="M 540 44 Q 538 42 542 30 L 553 3 Q 554 -4 568 -31 L 585 -70 Q 591 -86 603 -95 Q 627 -111 638 -84 Q 644 -69 645 -55 Q 646 -42 637 -18 Q 628 6 597 26 Q 566 46 554 46 Q 542 46 540 44 Z" fill="lightgray"></path>
				<path d="M 842 12 Q 812 34 781 44 Q 727 59 758 28 L 804 -32 L 838 -85 L 849 -99 Q 854 -107 863 -113 Q 873 -123 882 -122 Q 890 -122 903 -113 Q 912 -104 910 -77 Q 907 -51 901 -40 Q 881 -9 842 12 Z" fill="lightgray"></path>
</g>
		<text x="40" y="140" font-size="128" fill="#999999">10</text></g>
</g>
	<g id="id2:id2" transform="translate(0.0,2048)">
		<g id="id2:id0:id0" transform="matrix(1.0,0,0,1.0,0,0.0)">			<g stroke="lightgray" stroke-width="4" transform="scale(4, 4)"> <rect x="0" y="0" width="256" height="256" fill="white" stroke-width="4"/></g>
			<g transform="scale(0.92, -0.92) translate(60, -920)">					<path d="M 568 581 L 426 567 L 378 561 L 230 542 L 170 537 Q 163 535 161 532 Q 157 520 178 508 Q 212 490 220 490 Q 228 490 243 496 Q 338 520 380 525 L 428 530 L 564 544 L 618 544 L 710 546 L 813 544 Q 834 544 839 550 Q 844 555 842 562 Q 841 569 823 580 Q 805 590 786 596 Q 767 602 761 602 L 696 592 L 625 585 L 568 581 Z" fill="black"></path>
				<path d="M 426 567 L 420 630 L 423 676 L 424 678 Q 422 683 416 688 Q 410 692 397 694 L 375 697 Q 360 700 353 698 Q 345 693 344 691 Q 344 688 354 672 Q 363 656 369 626 L 378 561 L 380 525 L 392 414 Q 392 405 403 390 Q 410 374 418 376 Q 432 379 433 398 L 437 431 L 428 530 L 426 567 Z" fill="black"></path>
				<path d="M 634 713 L 609 724 L 582 732 Q 573 733 568 730 Q 564 727 564 723 Q 563 718 569 699 Q 574 676 573 656 L 568 581 L 564 544 L 548 450 C 543 420 589 418 596 447 L 618 544 L 625 585 L 639 646 Q 640 658 649 669 Q 658 680 660 686 Q 661 692 652 701 Q 643 709 634 713 Z" fill="black"></path>
				<path d="M 433 398 L 576 416 L 605 417 Q 617 418 619 424 Q 620 430 610 438 Q 600 446 596 447 L 548 450 L 437 431 C 407 426 403 394 433 398 Z" fill="black"></path>
				<path d="M 426 299 L 399 307 Q 381 312 376 308 Q 367 303 373 295 Q 378 287 381 284 Q 383 280 387 277 Q 391 273 394 258 L 410 151 Q 411 143 415 130 Q 419 116 428 116 Q 436 114 441 121 Q 445 128 445 136 L 445 168 L 433 274 C 430 298 430 298 426 299 Z" fill="black"></path>
				<path d="M 584 184 L 596 233 Q 604 262 622 284 Q 625 288 625 295 Q 624 301 615 307 Q 579 331 562 331 Q 556 325 511 316 L 426 299 C 397 293 403 269 433 274 L 516 289 Q 547 293 553 287 Q 558 281 553 250 L 542 184 C 537 154 577 155 584 184 Z" fill="black"></path>
				<path d="M 445 136 L 571 153 L 596 154 Q 605 156 607 162 Q 609 168 597 175 L 584 184 C 576 190 572 189 542 184 L 445 168 C 415 163 415 132 445 136 Z" fill="black"></path>
				<path d="M 318 182 L 321 306 Q 321 333 326 352 Q 330 370 330 373 Q 329 376 319 385 Q 308 394 283 401 Q 257 407 249 396 Q 245 393 250 382 L 259 362 Q 263 350 264 333 L 266 305 L 266 270 L 272 168 C 274 138 317 152 318 182 Z" fill="black"></path>
				<path d="M 266 305 L 151 294 Q 126 291 124 289 Q 122 286 125 280 Q 126 273 143 264 Q 160 254 174 256 L 205 262 L 266 270 C 296 274 296 308 266 305 Z" fill="black"></path>
				<path d="M 204 150 L 149 144 L 117 145 Q 108 145 106 140 Q 103 128 119 113 Q 135 97 145 92 Q 161 80 169 82 Q 177 83 191 93 L 214 108 L 332 164 Q 346 168 345 177 Q 343 186 333 184 L 318 182 L 272 168 L 204 150 Z" fill="black"></path>
				<path d="M 699 288 L 715 284 Q 718 283 745 288 L 781 294 Q 806 299 828 305 L 855 312 Q 867 315 869 320 Q 870 324 864 331 Q 857 338 846 341 Q 835 344 832 344 L 818 346 Q 807 346 792 343 L 733 330 Q 713 324 701 322 C 672 316 670 295 699 288 Z" fill="red"></path>
				<path d="M 658 368 L 659 366 L 655 204 Q 650 127 708 116 Q 766 110 825 118 Q 858 118 902 132 Q 931 142 912 160 Q 903 169 886 177 Q 868 184 863 183 Q 858 182 844 176 Q 815 158 745 158 Q 720 158 710 164 Q 693 176 696 214 L 699 288 L 701 322 L 706 364 Q 707 379 718 396 Q 728 412 711 421 L 689 430 Q 657 438 650 429 Q 648 424 653 410 Q 658 395 658 368 Z" fill="lightgray"></path>
				<path d="M 175 50 L 170 42 L 156 8 Q 147 -9 134 -25 L 116 -50 Q 97 -83 100 -98 Q 100 -109 107 -123 Q 110 -137 122 -138 Q 129 -140 144 -132 Q 155 -125 174 -91 Q 193 -57 194 -14 L 192 16 Q 190 29 185 40 Q 179 50 175 50 Z" fill="lightgray"></path>
				<path d="M 418 -23 Q 410 -4 399 6 Q 385 22 367 33 Q 349 44 346 39 Q 342 34 342 28 Q 342 22 348 -2 Q 348 -7 353 -22 L 361 -50 Q 366 -80 378 -95 Q 389 -111 402 -111 Q 414 -112 422 -92 Q 437 -55 418 -23 Z" fill="lightgray"></path>
				<path d="M 540 44 Q 538 42 542 30 L 553 3 Q 554 -4 568 -31 L 585 -70 Q 591 -86 603 -95 Q 627 -111 638 -84 Q 644 -69 645 -55 Q 646 -42 637 -18 Q 628 6 597 26 Q 566 46 554 46 Q 542 46 540 44 Z" fill="lightgray"></path>
				<path d="M 842 12 Q 812 34 781 44 Q 727 59 758 28 L 804 -32 L 838 -85 L 849 -99 Q 854 -107 863 -113 Q 873 -123 882 -122 Q 890 -122 903 -113 Q 912 -104 910 -77 Q 907 -51 901 -40 Q 881 -9 842 12 Z" fill="lightgray"></path>
</g>
		<text x="40" y="140" font-size="128" fill="#999999">11</text></g>
		<g id="id2:id1:id1" transform="matrix(1.0,0,0,1.0,1024,0.0)">			<g stroke="lightgray" stroke-width="4" transform="scale(4, 4)"> <rect x="0" y="0" width="256" height="256" fill="white" stroke-width="4"/></g>
			<g transform="scale(0.92, -0.92) translate(60, -920)">					<path d="M 568 581 L 426 567 L 378 561 L 230 542 L 170 537 Q 163 535 161 532 Q 157 520 178 508 Q 212 490 220 490 Q 228 490 243 496 Q 338 520 380 525 L 428 530 L 564 544 L 618 544 L 710 546 L 813 544 Q 834 544 839 550 Q 844 555 842 562 Q 841 569 823 580 Q 805 590 786 596 Q 767 602 761 602 L 696 592 L 625 585 L 568 581 Z" fill="black"></path>
				<path d="M 426 567 L 420 630 L 423 676 L 424 678 Q 422 683 416 688 Q 410 692 397 694 L 375 697 Q 360 700 353 698 Q 345 693 344 691 Q 344 688 354 672 Q 363 656 369 626 L 378 561 L 380 525 L 392 414 Q 392 405 403 390 Q 410 374 418 376 Q 432 379 433 398 L 437 431 L 428 530 L 426 567 Z" fill="black"></path>
				<path d="M 634 713 L 609 724 L 582 732 Q 573 733 568 730 Q 564 727 564 723 Q 563 718 569 699 Q 574 676 573 656 L 568 581 L 564 544 L 548 450 C 543 420 589 418 596 447 L 618 544 L 625 585 L 639 646 Q 640 658 649 669 Q 658 680 660 686 Q 661 692 652 701 Q 643 709 634 713 Z" fill="black"></path>
				<path d="M 433 398 L 576 416 L 605 417 Q 617 418 619 424 Q 620 430 610 438 Q 600 446 596 447 L 548 450 L 437 431 C 407 426 403 394 433 398 Z" fill="black"></path>
				<path d="M 426 299 L 399 307 Q 381 312 376 308 Q 367 303 373 295 Q 378 287 381 284 Q 383 280 387 277 Q 391 273 394 258 L 410 151 Q 411 143 415 130 Q 419 116 428 116 Q 436 114 441 121 Q 445 128 445 136 L 445 168 L 433 274 C 430 298 430 298 426 299 Z" fill="black"></path>
				<path d="M 584 184 L 596 233 Q 604 262 622 284 Q 625 288 625 295 Q 624 301 615 307 Q 579 331 562 331 Q 556 325 511 316 L 426 299 C 397 293 403 269 433 274 L 516 289 Q 547 293 553 287 Q 558 281 553 250 L 542 184 C 537 154 577 155 584 184 Z" fill="black"></path>
				<path d="M 445 136 L 571 153 L 596 154 Q 605 156 607 162 Q 609 168 597 175 L 584 184 C 576 190 572 189 542 184 L 445 168 C 415 163 415 132 445 136 Z" fill="black"></path>
				<path d="M 318 182 L 321 306 Q 321 333 326 352 Q 330 370 330 373 Q 329 376 319 385 Q 308 394 283 401 Q 257 407 249 396 Q 245 393 250 382 L 259 362 Q 263 350 264 333 L 266 305 L 266 270 L 272 168 C 274 138 317 152 318 182 Z" fill="black"></path>
				<path d="M 266 305 L 151 294 Q 126 291 124 289 Q 122 286 125 280 Q 126 273 143 264 Q 160 254 174 256 L 205 262 L 266 270 C 296 274 296 308 266 305 Z" fill="black"></path>
				<path d="M 204 150 L 149 144 L 117 145 Q 108 145 106 140 Q 103 128 119 113 Q 135 97 145 92 Q 161 80 169 82 Q 177 83 191 93 L 214 108 L 332 164 Q 346 168 345 177 Q 343 186 333 184 L 318 182 L 272 168 L 204 150 Z" fill="black"></path>
				<path d="M 699 288 L 715 284 Q 718 283 745 288 L 781 294 Q 806 299 828 305 L 855 312 Q 867 315 869 320 Q 870 324 864 331 Q 857 338 846 341 Q 835 344 832 344 L 818 346 Q 807 346 792 343 L 733 330 Q 713 324 701 322 C 672 316 670 295 699 288 Z" fill="black"></path>
				<path d="M 658 368 L 659 366 L 655 204 Q 650 127 708 116 Q 766 110 825 118 Q 858 118 902 132 Q 931 142 912 160 Q 903 169 886 177 Q 868 184 863 183 Q 858 182 844 176 Q 815 158 745 158 Q 720 158 710 164 Q 693 176 696 214 L 699 288 L 701 322 L 706 364 Q 707 379 718 396 Q 728 412 711 421 L 689 430 Q 657 438 650 429 Q 648 424 653 410 Q 658 395 658 368 Z" fill="red"></path>
				<path d="M 175 50 L 170 42 L 156 8 Q 147 -9 134 -25 L 116 -50 Q 97 -83 100 -98 Q 100 -109 107 -123 Q 110 -137 122 -138 Q 129 -140 144 -132 Q 155 -125 174 -91 Q 193 -57 194 -14 L 192 16 Q 190 29 185 40 Q 179 50 175 50 Z" fill="lightgray"></path>
				<path d="M 418 -23 Q 410 -4 399 6 Q 385 22 367 33 Q 349 44 346 39 Q 342 34 342 28 Q 342 22 348 -2 Q 348 -7 353 -22 L 361 -50 Q 366 -80 378 -95 Q 389 -111 402 -111 Q 414 -112 422 -92 Q 437 -55 418 -23 Z" fill="lightgray"></path>
				<path d="M 540 44 Q 538 42 542 30 L 553 3 Q 554 -4 568 -31 L 585 -70 Q 591 -86 603 -95 Q 627 -111 638 -84 Q 644 -69 645 -55 Q 646 -42 637 -18 Q 628 6 597 26 Q 566 46 554 46 Q 542 46 540 44 Z" fill="lightgray"></path>
				<path d="M 842 12 Q 812 34 781 44 Q 727 59 758 28 L 804 -32 L 838 -85 L 849 -99 Q 854 -107 863 -113 Q 873 -123 882 -122 Q 890 -122 903 -113 Q 912 -104 910 -77 Q 907 -51 901 -40 Q 881 -9 842 12 Z" fill="lightgray"></path>
</g>
		<text x="40" y="140" font-size="128" fill="#999999">12</text></g>
		<g id="id2:id2:id2" transform="matrix(1.0,0,0,1.0,2048,0.0)">			<g stroke="lightgray" stroke-width="4" transform="scale(4, 4)"> <rect x="0" y="0" width="256" height="256" fill="white" stroke-width="4"/></g>
			<g transform="scale(0.92, -0.92) translate(60, -920)">					<path d="M 568 581 L 426 567 L 378 561 L 230 542 L 170 537 Q 163 535 161 532 Q 157 520 178 508 Q 212 490 220 490 Q 228 490 243 496 Q 338 520 380 525 L 428 530 L 564 544 L 618 544 L 710 546 L 813 544 Q 834 544 839 550 Q 844 555 842 562 Q 841 569 823 580 Q 805 590 786 596 Q 767 602 761 602 L 696 592 L 625 585 L 568 581 Z" fill="black"></path>
				<path d="M 426 567 L 420 630 L 423 676 L 424 678 Q 422 683 416 688 Q 410 692 397 694 L 375 697 Q 360 700 353 698 Q 345 693 344 691 Q 344 688 354 672 Q 363 656 369 626 L 378 561 L 380 525 L 392 414 Q 392 405 403 390 Q 410 374 418 376 Q 432 379 433 398 L 437 431 L 428 530 L 426 567 Z" fill="black"></path>
				<path d="M 634 713 L 609 724 L 582 732 Q 573 733 568 730 Q 564 727 564 723 Q 563 718 569 699 Q 574 676 573 656 L 568 581 L 564 544 L 548 450 C 543 420 589 418 596 447 L 618 544 L 625 585 L 639 646 Q 640 658 649 669 Q 658 680 660 686 Q 661 692 652 701 Q 643 709 634 713 Z" fill="black"></path>
				<path d="M 433 398 L 576 416 L 605 417 Q 617 418 619 424 Q 620 430 610 438 Q 600 446 596 447 L 548 450 L 437 431 C 407 426 403 394 433 398 Z" fill="black"></path>
				<path d="M 426 299 L 399 307 Q 381 312 376 308 Q 367 303 373 295 Q 378 287 381 284 Q 383 280 387 277 Q 391 273 394 258 L 410 151 Q 411 143 415 130 Q 419 116 428 116 Q 436 114 441 121 Q 445 128 445 136 L 445 168 L 433 274 C 430 298 430 298 426 299 Z" fill="black"></path>
				<path d="M 584 184 L 596 233 Q 604 262 622 284 Q 625 288 625 295 Q 624 301 615 307 Q 579 331 562 331 Q 556 325 511 316 L 426 299 C 397 293 403 269 433 274 L 516 289 Q 547 293 553 287 Q 558 281 553 250 L 542 184 C 537 154 577 155 584 184 Z" fill="black"></path>
				<path d="M 445 136 L 571 153 L 596 154 Q 605 156 607 162 Q 609 168 597 175 L 584 184 C 576 190 572 189 542 184 L 445 168 C 415 163 415 132 445 136 Z" fill="black"></path>
				<path d="M 318 182 L 321 306 Q 321 333 326 352 Q 330 370 330 373 Q 329 376 319 385 Q 308 394 283 401 Q 257 407 249 396 Q 245 393 250 382 L 259 362 Q 263 350 264 333 L 266 305 L 266 270 L 272 168 C 274 138 317 152 318 182 Z" fill="black"></path>
				<path d="M 266 305 L 151 294 Q 126 291 124 289 Q 122 286 125 280 Q 126 273 143 264 Q 160 254 174 256 L 205 262 L 266 270 C 296 274 296 308 266 305 Z" fill="black"></path>
				<path d="M 204 150 L 149 144 L 117 145 Q 108 145 106 140 Q 103 128 119 113 Q 135 97 145 92 Q 161 80 169 82 Q 177 83 191 93 L 214 108 L 332 164 Q 346 168 345 177 Q 343 186 333 184 L 318 182 L 272 168 L 204 150 Z" fill="black"></path>
				<path d="M 699 288 L 715 284 Q 718 283 745 288 L 781 294 Q 806 299 828 305 L 855 312 Q 867 315 869 320 Q 870 324 864 331 Q 857 338 846 341 Q 835 344 832 344 L 818 346 Q 807 346 792 343 L 733 330 Q 713 324 701 322 C 672 316 670 295 699 288 Z" fill="black"></path>
				<path d="M 658 368 L 659 366 L 655 204 Q 650 127 708 116 Q 766 110 825 118 Q 858 118 902 132 Q 931 142 912 160 Q 903 169 886 177 Q 868 184 863 183 Q 858 182 844 176 Q 815 158 745 158 Q 720 158 710 164 Q 693 176 696 214 L 699 288 L 701 322 L 706 364 Q 707 379 718 396 Q 728 412 711 421 L 689 430 Q 657 438 650 429 Q 648 424 653 410 Q 658 395 658 368 Z" fill="black"></path>
				<path d="M 175 50 L 170 42 L 156 8 Q 147 -9 134 -25 L 116 -50 Q 97 -83 100 -98 Q 100 -109 107 -123 Q 110 -137 122 -138 Q 129 -140 144 -132 Q 155 -125 174 -91 Q 193 -57 194 -14 L 192 16 Q 190 29 185 40 Q 179 50 175 50 Z" fill="red"></path>
				<path d="M 418 -23 Q 410 -4 399 6 Q 385 22 367 33 Q 349 44 346 39 Q 342 34 342 28 Q 342 22 348 -2 Q 348 -7 353 -22 L 361 -50 Q 366 -80 378 -95 Q 389 -111 402 -111 Q 414 -112 422 -92 Q 437 -55 418 -23 Z" fill="lightgray"></path>
				<path d="M 540 44 Q 538 42 542 30 L 553 3 Q 554 -4 568 -31 L 585 -70 Q 591 -86 603 -95 Q 627 -111 638 -84 Q 644 -69 645 -55 Q 646 -42 637 -18 Q 628 6 597 26 Q 566 46 554 46 Q 542 46 540 44 Z" fill="lightgray"></path>
				<path d="M 842 12 Q 812 34 781 44 Q 727 59 758 28 L 804 -32 L 838 -85 L 849 -99 Q 854 -107 863 -113 Q 873 -123 882 -122 Q 890 -122 903 -113 Q 912 -104 910 -77 Q 907 -51 901 -40 Q 881 -9 842 12 Z" fill="lightgray"></path>
</g>
		<text x="40" y="140" font-size="128" fill="#999999">13</text></g>
		<g id="id2:id3:id3" transform="matrix(1.0,0,0,1.0,3072,0.0)">			<g stroke="lightgray" stroke-width="4" transform="scale(4, 4)"> <rect x="0" y="0" width="256" height="256" fill="white" stroke-width="4"/></g>
			<g transform="scale(0.92, -0.92) translate(60, -920)">					<path d="M 568 581 L 426 567 L 378 561 L 230 542 L 170 537 Q 163 535 161 532 Q 157 520 178 508 Q 212 490 220 490 Q 228 490 243 496 Q 338 520 380 525 L 428 530 L 564 544 L 618 544 L 710 546 L 813 544 Q 834 544 839 550 Q 844 555 842 562 Q 841 569 823 580 Q 805 590 786 596 Q 767 602 761 602 L 696 592 L 625 585 L 568 581 Z" fill="black"></path>
				<path d="M 426 567 L 420 630 L 423 676 L 424 678 Q 422 683 416 688 Q 410 692 397 694 L 375 697 Q 360 700 353 698 Q 345 693 344 691 Q 344 688 354 672 Q 363 656 369 626 L 378 561 L 380 525 L 392 414 Q 392 405 403 390 Q 410 374 418 376 Q 432 379 433 398 L 437 431 L 428 530 L 426 567 Z" fill="black"></path>
				<path d="M 634 713 L 609 724 L 582 732 Q 573 733 568 730 Q 564 727 564 723 Q 563 718 569 699 Q 574 676 573 656 L 568 581 L 564 544 L 548 450 C 543 420 589 418 596 447 L 618 544 L 625 585 L 639 646 Q 640 658 649 669 Q 658 680 660 686 Q 661 692 652 701 Q 643 709 634 713 Z" fill="black"></path>
				<path d="M 433 398 L 576 416 L 605 417 Q 617 418 619 424 Q 620 430 610 438 Q 600 446 596 447 L 548 450 L 437 431 C 407 426 403 394 433 398 Z" fill="black"></path>
				<path d="M 426 299 L 399 307 Q 381 312 376 308 Q 367 303 373 295 Q 378 287 381 284 Q 383 280 387 277 Q 391 273 394 258 L 410 151 Q 411 143 415 130 Q 419 116 428 116 Q 436 114 441 121 Q 445 128 445 136 L 445 168 L 433 274 C 430 298 430 298 426 299 Z" fill="black"></path>
				<path d="M 584 184 L 596 233 Q 604 262 622 284 Q 625 288 625 295 Q 624 301 615 307 Q 579 331 562 331 Q 556 325 511 316 L 426 299 C 397 293 403 269 433 274 L 516 289 Q 547 293 553 287 Q 558 281 553 250 L 542 184 C 537 154 577 155 584 184 Z" fill="black"></path>
				<path d="M 445 136 L 571 153 L 596 154 Q 605 156 607 162 Q 609 168 597 175 L 584 184 C 576 190 572 189 542 184 L 445 168 C 415 163 415 132 445 136 Z" fill="black"></path>
				<path d="M 318 182 L 321 306 Q 321 333 326 352 Q 330 370 330 373 Q 329 376 319 385 Q 308 394 283 401 Q 257 407 249 396 Q 245 393 250 382 L 259 362 Q 263 350 264 333 L 266 305 L 266 270 L 272 168 C 274 138 317 152 318 182 Z" fill="black"></path>
				<path d="M 266 305 L 151 294 Q 126 291 124 289 Q 122 286 125 280 Q 126 273 143 264 Q 160 254 174 256 L 205 262 L 266 270 C 296 274 296 308 266 305 Z" fill="black"></path>
				<path d="M 204 150 L 149 144 L 117 145 Q 108 145 106 140 Q 103 128 119 113 Q 135 97 145 92 Q 161 80 169 82 Q 177 83 191 93 L 214 108 L 332 164 Q 346 168 345 177 Q 343 186 333 184 L 318 182 L 272 168 L 204 150 Z" fill="black"></path>
				<path d="M 699 288 L 715 284 Q 718 283 745 288 L 781 294 Q 806 299 828 305 L 855 312 Q 867 315 869 320 Q 870 324 864 331 Q 857 338 846 341 Q 835 344 832 344 L 818 346 Q 807 346 792 343 L 733 330 Q 713 324 701 322 C 672 316 670 295 699 288 Z" fill="black"></path>
				<path d="M 658 368 L 659 366 L 655 204 Q 650 127 708 116 Q 766 110 825 118 Q 858 118 902 132 Q 931 142 912 160 Q 903 169 886 177 Q 868 184 863 183 Q 858 182 844 176 Q 815 158 745 158 Q 720 158 710 164 Q 693 176 696 214 L 699 288 L 701 322 L 706 364 Q 707 379 718 396 Q 728 412 711 421 L 689 430 Q 657 438 650 429 Q 648 424 653 410 Q 658 395 658 368 Z" fill="black"></path>
				<path d="M 175 50 L 170 42 L 156 8 Q 147 -9 134 -25 L 116 -50 Q 97 -83 100 -98 Q 100 -109 107 -123 Q 110 -137 122 -138 Q 129 -140 144 -132 Q 155 -125 174 -91 Q 193 -57 194 -14 L 192 16 Q 190 29 185 40 Q 179 50 175 50 Z" fill="black"></path>
				<path d="M 418 -23 Q 410 -4 399 6 Q 385 22 367 33 Q 349 44 346 39 Q 342 34 342 28 Q 342 22 348 -2 Q 348 -7 353 -22 L 361 -50 Q 366 -80 378 -95 Q 389 -111 402 -111 Q 414 -112 422 -92 Q 437 -55 418 -23 Z" fill="red"></path>
				<path d="M 540 44 Q 538 42 542 30 L 553 3 Q 554 -4 568 -31 L 585 -70 Q 591 -86 603 -95 Q 627 -111 638 -84 Q 644 -69 645 -55 Q 646 -42 637 -18 Q 628 6 597 26 Q 566 46 554 46 Q 542 46 540 44 Z" fill="lightgray"></path>
				<path d="M 842 12 Q 812 34 781 44 Q 727 59 758 28 L 804 -32 L 838 -85 L 849 -99 Q 854 -107 863 -113 Q 873 -123 882 -122 Q 890 -122 903 -113 Q 912 -104 910 -77 Q 907 -51 901 -40 Q 881 -9 842 12 Z" fill="lightgray"></path>
</g>
		<text x="40" y="140" font-size="128" fill="#999999">14</text></g>
		<g id="id2:id4:id4" transform="matrix(1.0,0,0,1.0,4096,0.0)">			<g stroke="lightgray" stroke-width="4" transform="scale(4, 4)"> <rect x="0" y="0" width="256" height="256" fill="white" stroke-width="4"/></g>
			<g transform="scale(0.92, -0.92) translate(60, -920)">					<path d="M 568 581 L 426 567 L 378 561 L 230 542 L 170 537 Q 163 535 161 532 Q 157 520 178 508 Q 212 490 220 490 Q 228 490 243 496 Q 338 520 380 525 L 428 530 L 564 544 L 618 544 L 710 546 L 813 544 Q 834 544 839 550 Q 844 555 842 562 Q 841 569 823 580 Q 805 590 786 596 Q 767 602 761 602 L 696 592 L 625 585 L 568 581 Z" fill="black"></path>
				<path d="M 426 567 L 420 630 L 423 676 L 424 678 Q 422 683 416 688 Q 410 692 397 694 L 375 697 Q 360 700 353 698 Q 345 693 344 691 Q 344 688 354 672 Q 363 656 369 626 L 378 561 L 380 525 L 392 414 Q 392 405 403 390 Q 410 374 418 376 Q 432 379 433 398 L 437 431 L 428 530 L 426 567 Z" fill="black"></path>
				<path d="M 634 713 L 609 724 L 582 732 Q 573 733 568 730 Q 564 727 564 723 Q 563 718 569 699 Q 574 676 573 656 L 568 581 L 564 544 L 548 450 C 543 420 589 418 596 447 L 618 544 L 625 585 L 639 646 Q 640 658 649 669 Q 658 680 660 686 Q 661 692 652 701 Q 643 709 634 713 Z" fill="black"></path>
				<path d="M 433 398 L 576 416 L 605 417 Q 617 418 619 424 Q 620 430 610 438 Q 600 446 596 447 L 548 450 L 437 431 C 407 426 403 394 433 398 Z" fill="black"></path>
				<path d="M 426 299 L 399 307 Q 381 312 376 308 Q 367 303 373 295 Q 378 287 381 284 Q 383 280 387 277 Q 391 273 394 258 L 410 151 Q 411 143 415 130 Q 419 116 428 116 Q 436 114 441 121 Q 445 128 445 136 L 445 168 L 433 274 C 430 298 430 298 426 299 Z" fill="black"></path>
				<path d="M 584 184 L 596 233 Q 604 262 622 284 Q 625 288 625 295 Q 624 301 615 307 Q 579 331 562 331 Q 556 325 511 316 L 426 299 C 397 293 403 269 433 274 L 516 289 Q 547 293 553 287 Q 558 281 553 250 L 542 184 C 537 154 577 155 584 184 Z" fill="black"></path>
				<path d="M 445 136 L 571 153 L 596 154 Q 605 156 607 162 Q 609 168 597 175 L 584 184 C 576 190 572 189 542 184 L 445 168 C 415 163 415 132 445 136 Z" fill="black"></path>
				<path d="M 318 182 L 321 306 Q 321 333 326 352 Q 330 370 330 373 Q 329 376 319 385 Q 308 394 283 401 Q 257 407 249 396 Q 245 393 250 382 L 259 362 Q 263 350 264 333 L 266 305 L 266 270 L 272 168 C 274 138 317 152 318 182 Z" fill="black"></path>
				<path d="M 266 305 L 151 294 Q 126 291 124 289 Q 122 286 125 280 Q 126 273 143 264 Q 160 254 174 256 L 205 262 L 266 270 C 296 274 296 308 266 305 Z" fill="black"></path>
				<path d="M 204 150 L 149 144 L 117 145 Q 108 145 106 140 Q 103 128 119 113 Q 135 97 145 92 Q 161 80 169 82 Q 177 83 191 93 L 214 108 L 332 164 Q 346 168 345 177 Q 343 186 333 184 L 318 182 L 272 168 L 204 150 Z" fill="black"></path>
				<path d="M 699 288 L 715 284 Q 718 283 745 288 L 781 294 Q 806 299 828 305 L 855 312 Q 867 315 869 320 Q 870 324 864 331 Q 857 338 846 341 Q 835 344 832 344 L 818 346 Q 807 346 792 343 L 733 330 Q 713 324 701 322 C 672 316 670 295 699 288 Z" fill="black"></path>
				<path d="M 658 368 L 659 366 L 655 204 Q 650 127 708 116 Q 766 110 825 118 Q 858 118 902 132 Q 931 142 912 160 Q 903 169 886 177 Q 868 184 863 183 Q 858 182 844 176 Q 815 158 745 158 Q 720 158 710 164 Q 693 176 696 214 L 699 288 L 701 322 L 706 364 Q 707 379 718 396 Q 728 412 711 421 L 689 430 Q 657 438 650 429 Q 648 424 653 410 Q 658 395 658 368 Z" fill="black"></path>
				<path d="M 175 50 L 170 42 L 156 8 Q 147 -9 134 -25 L 116 -50 Q 97 -83 100 -98 Q 100 -109 107 -123 Q 110 -137 122 -138 Q 129 -140 144 -132 Q 155 -125 174 -91 Q 193 -57 194 -14 L 192 16 Q 190 29 185 40 Q 179 50 175 50 Z" fill="black"></path>
				<path d="M 418 -23 Q 410 -4 399 6 Q 385 22 367 33 Q 349 44 346 39 Q 342 34 342 28 Q 342 22 348 -2 Q 348 -7 353 -22 L 361 -50 Q 366 -80 378 -95 Q 389 -111 402 -111 Q 414 -112 422 -92 Q 437 -55 418 -23 Z" fill="black"></path>
				<path d="M 540 44 Q 538 42 542 30 L 553 3 Q 554 -4 568 -31 L 585 -70 Q 591 -86 603 -95 Q 627 -111 638 -84 Q 644 -69 645 -55 Q 646 -42 637 -18 Q 628 6 597 26 Q 566 46 554 46 Q 542 46 540 44 Z" fill="red"></path>
				<path d="M 842 12 Q 812 34 781 44 Q 727 59 758 28 L 804 -32 L 838 -85 L 849 -99 Q 854 -107 863 -113 Q 873 -123 882 -122 Q 890 -122 903 -113 Q 912 -104 910 -77 Q 907 -51 901 -40 Q 881 -9 842 12 Z" fill="lightgray"></path>
</g>
		<text x="40" y="140" font-size="128" fill="#999999">15</text></g>
</g>
	<g id="id3:id3" transform="translate(0.0,3072)">
		<g id="id3:id0:id0" transform="matrix(1.0,0,0,1.0,0,0.0)">			<g stroke="lightgray" stroke-width="4" transform="scale(4, 4)"> <rect x="0" y="0" width="256" height="256" fill="white" stroke-width="4"/></g>
			<g transform="scale(0.92, -0.92) translate(60, -920)">					<path d="M 568 581 L 426 567 L 378 561 L 230 542 L 170 537 Q 163 535 161 532 Q 157 520 178 508 Q 212 490 220 490 Q 228 490 243 496 Q 338 520 380 525 L 428 530 L 564 544 L 618 544 L 710 546 L 813 544 Q 834 544 839 550 Q 844 555 842 562 Q 841 569 823 580 Q 805 590 786 596 Q 767 602 761 602 L 696 592 L 625 585 L 568 581 Z" fill="black"></path>
				<path d="M 426 567 L 420 630 L 423 676 L 424 678 Q 422 683 416 688 Q 410 692 397 694 L 375 697 Q 360 700 353 698 Q 345 693 344 691 Q 344 688 354 672 Q 363 656 369 626 L 378 561 L 380 525 L 392 414 Q 392 405 403 390 Q 410 374 418 376 Q 432 379 433 398 L 437 431 L 428 530 L 426 567 Z" fill="black"></path>
				<path d="M 634 713 L 609 724 L 582 732 Q 573 733 568 730 Q 564 727 564 723 Q 563 718 569 699 Q 574 676 573 656 L 568 581 L 564 544 L 548 450 C 543 420 589 418 596 447 L 618 544 L 625 585 L 639 646 Q 640 658 649 669 Q 658 680 660 686 Q 661 692 652 701 Q 643 709 634 713 Z" fill="black"></path>
				<path d="M 433 398 L 576 416 L 605 417 Q 617 418 619 424 Q 620 430 610 438 Q 600 446 596 447 L 548 450 L 437 431 C 407 426 403 394 433 398 Z" fill="black"></path>
				<path d="M 426 299 L 399 307 Q 381 312 376 308 Q 367 303 373 295 Q 378 287 381 284 Q 383 280 387 277 Q 391 273 394 258 L 410 151 Q 411 143 415 130 Q 419 116 428 116 Q 436 114 441 121 Q 445 128 445 136 L 445 168 L 433 274 C 430 298 430 298 426 299 Z" fill="black"></path>
				<path d="M 584 184 L 596 233 Q 604 262 622 284 Q 625 288 625 295 Q 624 301 615 307 Q 579 331 562 331 Q 556 325 511 316 L 426 299 C 397 293 403 269 433 274 L 516 289 Q 547 293 553 287 Q 558 281 553 250 L 542 184 C 537 154 577 155 584 184 Z" fill="black"></path>
				<path d="M 445 136 L 571 153 L 596 154 Q 605 156 607 162 Q 609 168 597 175 L 584 184 C 576 190 572 189 542 184 L 445 168 C 415 163 415 132 445 136 Z" fill="black"></path>
				<path d="M 318 182 L 321 306 Q 321 333 326 352 Q 330 370 330 373 Q 329 376 319 385 Q 308 394 283 401 Q 257 407 249 396 Q 245 393 250 382 L 259 362 Q 263 350 264 333 L 266 305 L 266 270 L 272 168 C 274 138 317 152 318 182 Z" fill="black"></path>
				<path d="M 266 305 L 151 294 Q 126 291 124 289 Q 122 286 125 280 Q 126 273 143 264 Q 160 254 174 256 L 205 262 L 266 270 C 296 274 296 308 266 305 Z" fill="black"></path>
				<path d="M 204 150 L 149 144 L 117 145 Q 108 145 106 140 Q 103 128 119 113 Q 135 97 145 92 Q 161 80 169 82 Q 177 83 191 93 L 214 108 L 332 164 Q 346 168 345 177 Q 343 186 333 184 L 318 182 L 272 168 L 204 150 Z" fill="black"></path>
				<path d="M 699 288 L 715 284 Q 718 283 745 288 L 781 294 Q 806 299 828 305 L 855 312 Q 867 315 869 320 Q 870 324 864 331 Q 857 338 846 341 Q 835 344 832 344 L 818 346 Q 807 346 792 343 L 733 330 Q 713 324 701 322 C 672 316 670 295 699 288 Z" fill="black"></path>
				<path d="M 658 368 L 659 366 L 655 204 Q 650 127 708 116 Q 766 110 825 118 Q 858 118 902 132 Q 931 142 912 160 Q 903 169 886 177 Q 868 184 863 183 Q 858 182 844 176 Q 815 158 745 158 Q 720 158 710 164 Q 693 176 696 214 L 699 288 L 701 322 L 706 364 Q 707 379 718 396 Q 728 412 711 421 L 689 430 Q 657 438 650 429 Q 648 424 653 410 Q 658 395 658 368 Z" fill="black"></path>
				<path d="M 175 50 L 170 42 L 156 8 Q 147 -9 134 -25 L 116 -50 Q 97 -83 100 -98 Q 100 -109 107 -123 Q 110 -137 122 -138 Q 129 -140 144 -132 Q 155 -125 174 -91 Q 193 -57 194 -14 L 192 16 Q 190 29 185 40 Q 179 50 175 50 Z" fill="black"></path>
				<path d="M 418 -23 Q 410 -4 399 6 Q 385 22 367 33 Q 349 44 346 39 Q 342 34 342 28 Q 342 22 348 -2 Q 348 -7 353 -22 L 361 -50 Q 366 -80 378 -95 Q 389 -111 402 -111 Q 414 -112 422 -92 Q 437 -55 418 -23 Z" fill="black"></path>
				<path d="M 540 44 Q 538 42 542 30 L 553 3 Q 554 -4 568 -31 L 585 -70 Q 591 -86 603 -95 Q 627 -111 638 -84 Q 644 -69 645 -55 Q 646 -42 637 -18 Q 628 6 597 26 Q 566 46 554 46 Q 542 46 540 44 Z" fill="black"></path>
				<path d="M 842 12 Q 812 34 781 44 Q 727 59 758 28 L 804 -32 L 838 -85 L 849 -99 Q 854 -107 863 -113 Q 873 -123 882 -122 Q 890 -122 903 -113 Q 912 -104 910 -77 Q 907 -51 901 -40 Q 881 -9 842 12 Z" fill="red"></path>
</g>
		<text x="40" y="140" font-size="128" fill="#999999">16</text></g>
		<g id="id3:id1:id1" transform="matrix(1.0,0,0,1.0,1024,0.0)">			<g stroke="white" stroke-width="4" transform="scale(4, 4)"> <rect x="1" y="1" width="255" height="255" fill="white" stroke-width="0"/></g>
</g>
		<g id="id3:id2:id2" transform="matrix(1.0,0,0,1.0,2048,0.0)">			<g stroke="white" stroke-width="4" transform="scale(4, 4)"> <rect x="1" y="1" width="255" height="255" fill="white" stroke-width="0"/></g>
</g>
		<g id="id3:id3:id3" transform="matrix(1.0,0,0,1.0,3072,0.0)">			<g stroke="white" stroke-width="4" transform="scale(4, 4)"> <rect x="1" y="1" width="255" height="255" fill="white" stroke-width="0"/></g>
</g>
		<g id="id3:id4:id4" transform="matrix(1.0,0,0,1.0,4096,0.0)">			<g stroke="white" stroke-width="4" transform="scale(4, 4)"> <rect x="1" y="1" width="255" height="255" fill="white" stroke-width="0"/></g>
</g>
</g>
</svg>
