<?xml version="1.0" standalone="no"?>
<!DOCTYPE svg PUBLIC "-//W3C//DTD SVG 1.1//EN"
 "http://www.w3.org/Graphics/SVG/1.1/DTD/svg11.dtd">
<!-- generate by Japanese dictionary app com.asnsami.kanjidictionary -->

<svg xmlns="http://www.w3.org/2000/svg" xmlns:sodipodi="http://sodipodi.sourceforge.net/DTD/sodipodi-0.dtd" version="1.1" width="640" height="256" viewBox="0 0 5120 2048">
	<g id="id0:id0" transform="translate(0.0,0)">
		<g id="id0:id0:id0" transform="matrix(1.0,0,0,1.0,0,0.0)">			<g stroke="lightgray" stroke-width="4" transform="scale(4, 4)"> <rect x="0" y="0" width="256" height="256" fill="white" stroke-width="4"/></g>
			<g transform="scale(0.92, -0.92) translate(60, -920)">					<path d="M 277 640 Q 404 674 408 677 Q 415 684 411 693 Q 404 703 376 710 Q 346 714 318 702 Q 282 689 244 678 Q 201 668 152 660 Q 116 653 142 638 Q 184 620 234 629 L 277 640 Z" fill="red"></path>
				<path d="M 300 445 Q 385 470 388 472 Q 395 479 391 486 Q 384 496 359 501 Q 332 505 302 491 L 250 473 Q 243 472 238 470 Q 198 460 150 452 Q 119 446 142 432 Q 172 417 251 433 L 300 445 Z" fill="lightgray"></path>
				<path d="M 295 281 Q 298 369 300 445 L 302 491 Q 302 554 306 590 Q 315 615 277 640 C 253 658 223 657 234 629 Q 246 610 250 510 Q 250 495 250 473 L 251 433 Q 251 366 251 262 C 251 232 294 251 295 281 Z" fill="lightgray"></path>
				<path d="M 251 262 Q 119 208 92 203 Q 77 210 73 189 Q 73 174 84 167 Q 111 152 148 137 Q 160 136 171 146 Q 204 176 376 283 Q 401 296 417 314 Q 430 324 429 333 Q 423 339 410 334 Q 355 309 295 281 L 251 262 Z" fill="lightgray"></path>
				<path d="M 678 652 Q 759 664 919 665 Q 940 666 944 675 Q 950 687 932 701 Q 871 743 820 726 Q 679 696 448 659 Q 426 656 443 639 Q 477 611 516 620 Q 568 636 630 645 L 678 652 Z" fill="lightgray"></path>
				<path d="M 611 119 Q 580 132 542 144 Q 529 148 529 140 Q 529 131 540 121 Q 615 57 662 6 Q 675 -4 691 13 Q 736 76 730 158 Q 712 425 720 581 Q 726 612 719 622 Q 709 635 678 652 C 652 668 617 672 630 645 Q 631 638 639 627 Q 652 600 652 556 Q 656 438 662 165 Q 661 131 650 118 Q 640 111 611 119 Z" fill="lightgray"></path>
</g>
		<text x="40" y="140" font-size="128" fill="#999999">1</text></g>
		<g id="id0:id1:id1" transform="matrix(1.0,0,0,1.0,1024,0.0)">			<g stroke="lightgray" stroke-width="4" transform="scale(4, 4)"> <rect x="0" y="0" width="256" height="256" fill="white" stroke-width="4"/></g>
			<g transform="scale(0.92, -0.92) translate(60, -920)">					<path d="M 277 640 Q 404 674 408 677 Q 415 684 411 693 Q 404 703 376 710 Q 346 714 318 702 Q 282 689 244 678 Q 201 668 152 660 Q 116 653 142 638 Q 184 620 234 629 L 277 640 Z" fill="black"></path>
				<path d="M 300 445 Q 385 470 388 472 Q 395 479 391 486 Q 384 496 359 501 Q 332 505 302 491 L 250 473 Q 243 472 238 470 Q 198 460 150 452 Q 119 446 142 432 Q 172 417 251 433 L 300 445 Z" fill="red"></path>
				<path d="M 295 281 Q 298 369 300 445 L 302 491 Q 302 554 306 590 Q 315 615 277 640 C 253 658 223 657 234 629 Q 246 610 250 510 Q 250 495 250 473 L 251 433 Q 251 366 251 262 C 251 232 294 251 295 281 Z" fill="lightgray"></path>
				<path d="M 251 262 Q 119 208 92 203 Q 77 210 73 189 Q 73 174 84 167 Q 111 152 148 137 Q 160 136 171 146 Q 204 176 376 283 Q 401 296 417 314 Q 430 324 429 333 Q 423 339 410 334 Q 355 309 295 281 L 251 262 Z" fill="lightgray"></path>
				<path d="M 678 652 Q 759 664 919 665 Q 940 666 944 675 Q 950 687 932 701 Q 871 743 820 726 Q 679 696 448 659 Q 426 656 443 639 Q 477 611 516 620 Q 568 636 630 645 L 678 652 Z" fill="lightgray"></path>
				<path d="M 611 119 Q 580 132 542 144 Q 529 148 529 140 Q 529 131 540 121 Q 615 57 662 6 Q 675 -4 691 13 Q 736 76 730 158 Q 712 425 720 581 Q 726 612 719 622 Q 709 635 678 652 C 652 668 617 672 630 645 Q 631 638 639 627 Q 652 600 652 556 Q 656 438 662 165 Q 661 131 650 118 Q 640 111 611 119 Z" fill="lightgray"></path>
</g>
		<text x="40" y="140" font-size="128" fill="#999999">2</text></g>
		<g id="id0:id2:id2" transform="matrix(1.0,0,0,1.0,2048,0.0)">			<g stroke="lightgray" stroke-width="4" transform="scale(4, 4)"> <rect x="0" y="0" width="256" height="256" fill="white" stroke-width="4"/></g>
			<g transform="scale(0.92, -0.92) translate(60, -920)">					<path d="M 277 640 Q 404 674 408 677 Q 415 684 411 693 Q 404 703 376 710 Q 346 714 318 702 Q 282 689 244 678 Q 201 668 152 660 Q 116 653 142 638 Q 184 620 234 629 L 277 640 Z" fill="black"></path>
				<path d="M 300 445 Q 385 470 388 472 Q 395 479 391 486 Q 384 496 359 501 Q 332 505 302 491 L 250 473 Q 243 472 238 470 Q 198 460 150 452 Q 119 446 142 432 Q 172 417 251 433 L 300 445 Z" fill="black"></path>
				<path d="M 295 281 Q 298 369 300 445 L 302 491 Q 302 554 306 590 Q 315 615 277 640 C 253 658 223 657 234 629 Q 246 610 250 510 Q 250 495 250 473 L 251 433 Q 251 366 251 262 C 251 232 294 251 295 281 Z" fill="red"></path>
				<path d="M 251 262 Q 119 208 92 203 Q 77 210 73 189 Q 73 174 84 167 Q 111 152 148 137 Q 160 136 171 146 Q 204 176 376 283 Q 401 296 417 314 Q 430 324 429 333 Q 423 339 410 334 Q 355 309 295 281 L 251 262 Z" fill="lightgray"></path>
				<path d="M 678 652 Q 759 664 919 665 Q 940 666 944 675 Q 950 687 932 701 Q 871 743 820 726 Q 679 696 448 659 Q 426 656 443 639 Q 477 611 516 620 Q 568 636 630 645 L 678 652 Z" fill="lightgray"></path>
				<path d="M 611 119 Q 580 132 542 144 Q 529 148 529 140 Q 529 131 540 121 Q 615 57 662 6 Q 675 -4 691 13 Q 736 76 730 158 Q 712 425 720 581 Q 726 612 719 622 Q 709 635 678 652 C 652 668 617 672 630 645 Q 631 638 639 627 Q 652 600 652 556 Q 656 438 662 165 Q 661 131 650 118 Q 640 111 611 119 Z" fill="lightgray"></path>
</g>
		<text x="40" y="140" font-size="128" fill="#999999">3</text></g>
		<g id="id0:id3:id3" transform="matrix(1.0,0,0,1.0,3072,0.0)">			<g stroke="lightgray" stroke-width="4" transform="scale(4, 4)"> <rect x="0" y="0" width="256" height="256" fill="white" stroke-width="4"/></g>
			<g transform="scale(0.92, -0.92) translate(60, -920)">					<path d="M 277 640 Q 404 674 408 677 Q 415 684 411 693 Q 404 703 376 710 Q 346 714 318 702 Q 282 689 244 678 Q 201 668 152 660 Q 116 653 142 638 Q 184 620 234 629 L 277 640 Z" fill="black"></path>
				<path d="M 300 445 Q 385 470 388 472 Q 395 479 391 486 Q 384 496 359 501 Q 332 505 302 491 L 250 473 Q 243 472 238 470 Q 198 460 150 452 Q 119 446 142 432 Q 172 417 251 433 L 300 445 Z" fill="black"></path>
				<path d="M 295 281 Q 298 369 300 445 L 302 491 Q 302 554 306 590 Q 315 615 277 640 C 253 658 223 657 234 629 Q 246 610 250 510 Q 250 495 250 473 L 251 433 Q 251 366 251 262 C 251 232 294 251 295 281 Z" fill="black"></path>
				<path d="M 251 262 Q 119 208 92 203 Q 77 210 73 189 Q 73 174 84 167 Q 111 152 148 137 Q 160 136 171 146 Q 204 176 376 283 Q 401 296 417 314 Q 430 324 429 333 Q 423 339 410 334 Q 355 309 295 281 L 251 262 Z" fill="red"></path>
				<path d="M 678 652 Q 759 664 919 665 Q 940 666 944 675 Q 950 687 932 701 Q 871 743 820 726 Q 679 696 448 659 Q 426 656 443 639 Q 477 611 516 620 Q 568 636 630 645 L 678 652 Z" fill="lightgray"></path>
				<path d="M 611 119 Q 580 132 542 144 Q 529 148 529 140 Q 529 131 540 121 Q 615 57 662 6 Q 675 -4 691 13 Q 736 76 730 158 Q 712 425 720 581 Q 726 612 719 622 Q 709 635 678 652 C 652 668 617 672 630 645 Q 631 638 639 627 Q 652 600 652 556 Q 656 438 662 165 Q 661 131 650 118 Q 640 111 611 119 Z" fill="lightgray"></path>
</g>
		<text x="40" y="140" font-size="128" fill="#999999">4</text></g>
		<g id="id0:id4:id4" transform="matrix(1.0,0,0,1.0,4096,0.0)">			<g stroke="lightgray" stroke-width="4" transform="scale(4, 4)"> <rect x="0" y="0" width="256" height="256" fill="white" stroke-width="4"/></g>
			<g transform="scale(0.92, -0.92) translate(60, -920)">					<path d="M 277 640 Q 404 674 408 677 Q 415 684 411 693 Q 404 703 376 710 Q 346 714 318 702 Q 282 689 244 678 Q 201 668 152 660 Q 116 653 142 638 Q 184 620 234 629 L 277 640 Z" fill="black"></path>
				<path d="M 300 445 Q 385 470 388 472 Q 395 479 391 486 Q 384 496 359 501 Q 332 505 302 491 L 250 473 Q 243 472 238 470 Q 198 460 150 452 Q 119 446 142 432 Q 172 417 251 433 L 300 445 Z" fill="black"></path>
				<path d="M 295 281 Q 298 369 300 445 L 302 491 Q 302 554 306 590 Q 315 615 277 640 C 253 658 223 657 234 629 Q 246 610 250 510 Q 250 495 250 473 L 251 433 Q 251 366 251 262 C 251 232 294 251 295 281 Z" fill="black"></path>
				<path d="M 251 262 Q 119 208 92 203 Q 77 210 73 189 Q 73 174 84 167 Q 111 152 148 137 Q 160 136 171 146 Q 204 176 376 283 Q 401 296 417 314 Q 430 324 429 333 Q 423 339 410 334 Q 355 309 295 281 L 251 262 Z" fill="black"></path>
				<path d="M 678 652 Q 759 664 919 665 Q 940 666 944 675 Q 950 687 932 701 Q 871 743 820 726 Q 679 696 448 659 Q 426 656 443 639 Q 477 611 516 620 Q 568 636 630 645 L 678 652 Z" fill="red"></path>
				<path d="M 611 119 Q 580 132 542 144 Q 529 148 529 140 Q 529 131 540 121 Q 615 57 662 6 Q 675 -4 691 13 Q 736 76 730 158 Q 712 425 720 581 Q 726 612 719 622 Q 709 635 678 652 C 652 668 617 672 630 645 Q 631 638 639 627 Q 652 600 652 556 Q 656 438 662 165 Q 661 131 650 118 Q 640 111 611 119 Z" fill="lightgray"></path>
</g>
		<text x="40" y="140" font-size="128" fill="#999999">5</text></g>
</g>
	<g id="id1:id1" transform="translate(0.0,1024)">
		<g id="id1:id0:id0" transform="matrix(1.0,0,0,1.0,0,0.0)">			<g stroke="lightgray" stroke-width="4" transform="scale(4, 4)"> <rect x="0" y="0" width="256" height="256" fill="white" stroke-width="4"/></g>
			<g transform="scale(0.92, -0.92) translate(60, -920)">					<path d="M 277 640 Q 404 674 408 677 Q 415 684 411 693 Q 404 703 376 710 Q 346 714 318 702 Q 282 689 244 678 Q 201 668 152 660 Q 116 653 142 638 Q 184 620 234 629 L 277 640 Z" fill="black"></path>
				<path d="M 300 445 Q 385 470 388 472 Q 395 479 391 486 Q 384 496 359 501 Q 332 505 302 491 L 250 473 Q 243 472 238 470 Q 198 460 150 452 Q 119 446 142 432 Q 172 417 251 433 L 300 445 Z" fill="black"></path>
				<path d="M 295 281 Q 298 369 300 445 L 302 491 Q 302 554 306 590 Q 315 615 277 640 C 253 658 223 657 234 629 Q 246 610 250 510 Q 250 495 250 473 L 251 433 Q 251 366 251 262 C 251 232 294 251 295 281 Z" fill="black"></path>
				<path d="M 251 262 Q 119 208 92 203 Q 77 210 73 189 Q 73 174 84 167 Q 111 152 148 137 Q 160 136 171 146 Q 204 176 376 283 Q 401 296 417 314 Q 430 324 429 333 Q 423 339 410 334 Q 355 309 295 281 L 251 262 Z" fill="black"></path>
				<path d="M 678 652 Q 759 664 919 665 Q 940 666 944 675 Q 950 687 932 701 Q 871 743 820 726 Q 679 696 448 659 Q 426 656 443 639 Q 477 611 516 620 Q 568 636 630 645 L 678 652 Z" fill="black"></path>
				<path d="M 611 119 Q 580 132 542 144 Q 529 148 529 140 Q 529 131 540 121 Q 615 57 662 6 Q 675 -4 691 13 Q 736 76 730 158 Q 712 425 720 581 Q 726 612 719 622 Q 709 635 678 652 C 652 668 617 672 630 645 Q 631 638 639 627 Q 652 600 652 556 Q 656 438 662 165 Q 661 131 650 118 Q 640 111 611 119 Z" fill="red"></path>
</g>
		<text x="40" y="140" font-size="128" fill="#999999">6</text></g>
		<g id="id1:id1:id1" transform="matrix(1.0,0,0,1.0,1024,0.0)">			<g stroke="white" stroke-width="4" transform="scale(4, 4)"> <rect x="1" y="1" width="255" height="255" fill="white" stroke-width="0"/></g>
</g>
		<g id="id1:id2:id2" transform="matrix(1.0,0,0,1.0,2048,0.0)">			<g stroke="white" stroke-width="4" transform="scale(4, 4)"> <rect x="1" y="1" width="255" height="255" fill="white" stroke-width="0"/></g>
</g>
		<g id="id1:id3:id3" transform="matrix(1.0,0,0,1.0,3072,0.0)">			<g stroke="white" stroke-width="4" transform="scale(4, 4)"> <rect x="1" y="1" width="255" height="255" fill="white" stroke-width="0"/></g>
</g>
		<g id="id1:id4:id4" transform="matrix(1.0,0,0,1.0,4096,0.0)">			<g stroke="white" stroke-width="4" transform="scale(4, 4)"> <rect x="1" y="1" width="255" height="255" fill="white" stroke-width="0"/></g>
</g>
</g>
</svg>
