<?xml version="1.0" standalone="no"?>
<!DOCTYPE svg PUBLIC "-//W3C//DTD SVG 1.1//EN"
 "http://www.w3.org/Graphics/SVG/1.1/DTD/svg11.dtd">
<!-- generate by Japanese dictionary app com.asnsami.kanjidictionary -->

<svg xmlns="http://www.w3.org/2000/svg" xmlns:sodipodi="http://sodipodi.sourceforge.net/DTD/sodipodi-0.dtd" version="1.1" width="640" height="256" viewBox="0 0 5120 2048">
	<g id="id0:id0" transform="translate(0.0,0)">
		<g id="id0:id0:id0" transform="matrix(1.0,0,0,1.0,0,0.0)">			<g stroke="lightgray" stroke-width="4" transform="scale(4, 4)"> <rect x="0" y="0" width="256" height="256" fill="white" stroke-width="4"/></g>
			<g transform="scale(0.92, -0.92) translate(60, -920)">					<path d="M 341 639 L 299 630 L 253 622 Q 249 620 248 615 Q 246 609 251 604 Q 256 599 278 598 Q 300 597 327 605 L 357 614 Q 372 618 375 615 Q 382 609 361 561 L 339 517 Q 319 474 289 429 L 271 402 L 245 368 Q 237 356 197 313 Q 132 243 102 222 Q 77 201 62 192 L 43 179 Q 36 172 37 167 Q 39 162 47 165 L 70 172 Q 76 172 113 190 Q 144 207 168 225 Q 192 243 230 278 Q 255 304 285 338 Q 315 372 377 474 L 409 526 Q 418 547 441 575 L 458 595 Q 470 608 471 612 Q 472 615 462 628 Q 453 636 433 649 Q 405 665 383 656 L 356 644 L 341 639 Z" fill="red"></path>
				<path d="M 289 429 L 285 448 Q 276 483 206 495 L 188 499 Q 173 501 172 497 Q 170 492 175 488 L 190 470 L 205 448 Q 210 441 224 427 Q 238 412 247 408 Q 255 404 271 402 C 295 399 295 400 289 429 Z" fill="lightgray"></path>
				<path d="M 551 568 L 597 601 Q 603 604 624 624 L 659 651 L 688 669 Q 694 673 696 677 Q 700 688 668 712 Q 636 735 628 730 Q 625 730 621 720 L 609 692 Q 606 681 585 648 L 560 608 L 538 578 C 520 554 527 551 551 568 Z" fill="lightgray"></path>
				<path d="M 538 578 L 515 589 Q 504 593 493 592 Q 482 591 479 585 Q 476 578 477 574 Q 478 569 491 565 Q 546 538 606 456 L 705 327 Q 766 250 791 239 Q 828 225 861 234 Q 873 235 905 242 L 975 256 Q 983 258 983 264 Q 982 271 965 277 L 929 290 Q 899 300 882 307 Q 865 314 816 343 Q 766 371 735 399 Q 711 418 694 434 L 648 476 L 637 487 Q 558 564 551 568 L 538 578 Z" fill="lightgray"></path>
				<path d="M 648 476 L 732 522 L 785 549 L 805 557 Q 815 560 817 566 Q 825 582 794 609 Q 782 622 771 628 Q 760 631 756 630 Q 752 628 745 609 Q 737 590 716 566 L 637 487 C 616 466 622 462 648 476 Z" fill="lightgray"></path>
				<path d="M 486 308 L 578 323 Q 655 337 587 362 Q 567 367 566 366 Q 565 365 553 365 L 522 357 Q 497 351 447 342 Q 397 333 367 331 L 341 328 Q 321 329 340 312 Q 349 304 357 303 Q 395 298 407 299 L 437 301 L 486 308 Z" fill="lightgray"></path>
				<path d="M 307 118 L 423 134 L 491 142 L 537 146 L 626 151 L 705 152 Q 725 152 734 153 Q 765 155 765 168 Q 765 174 759 180 Q 722 201 711 204 Q 679 210 607 197 L 502 183 L 437 173 L 331 162 L 275 154 Q 237 151 235 150 L 216 148 Q 207 147 205 141 Q 202 135 228 122 Q 254 108 260 109 L 307 118 Z" fill="lightgray"></path>
				<path d="M 423 134 L 415 112 Q 365 -5 217 -79 L 199 -88 Q 189 -92 191 -97 Q 191 -101 201 -100 L 225 -99 Q 296 -93 380 -31 Q 439 18 475 106 L 491 142 L 502 183 L 509 216 Q 515 243 519 250 L 529 269 Q 537 278 523 291 Q 502 304 486 308 C 458 318 434 327 437 301 L 444 246 Q 445 211 437 173 L 423 134 Z" fill="lightgray"></path>
				<path d="M 537 64 L 578 27 L 673 -80 Q 693 -104 705 -110 Q 730 -127 747 -106 Q 754 -97 753 -75 Q 752 -53 747 -41 Q 742 -29 723 -8 Q 704 13 691 21 Q 677 28 637 46 Q 597 64 579 70 L 550 78 Q 534 81 531 76 Q 530 72 537 64 Z" fill="lightgray"></path>
</g>
		<text x="40" y="140" font-size="128" fill="#999999">1</text></g>
		<g id="id0:id1:id1" transform="matrix(1.0,0,0,1.0,1024,0.0)">			<g stroke="lightgray" stroke-width="4" transform="scale(4, 4)"> <rect x="0" y="0" width="256" height="256" fill="white" stroke-width="4"/></g>
			<g transform="scale(0.92, -0.92) translate(60, -920)">					<path d="M 341 639 L 299 630 L 253 622 Q 249 620 248 615 Q 246 609 251 604 Q 256 599 278 598 Q 300 597 327 605 L 357 614 Q 372 618 375 615 Q 382 609 361 561 L 339 517 Q 319 474 289 429 L 271 402 L 245 368 Q 237 356 197 313 Q 132 243 102 222 Q 77 201 62 192 L 43 179 Q 36 172 37 167 Q 39 162 47 165 L 70 172 Q 76 172 113 190 Q 144 207 168 225 Q 192 243 230 278 Q 255 304 285 338 Q 315 372 377 474 L 409 526 Q 418 547 441 575 L 458 595 Q 470 608 471 612 Q 472 615 462 628 Q 453 636 433 649 Q 405 665 383 656 L 356 644 L 341 639 Z" fill="black"></path>
				<path d="M 289 429 L 285 448 Q 276 483 206 495 L 188 499 Q 173 501 172 497 Q 170 492 175 488 L 190 470 L 205 448 Q 210 441 224 427 Q 238 412 247 408 Q 255 404 271 402 C 295 399 295 400 289 429 Z" fill="red"></path>
				<path d="M 551 568 L 597 601 Q 603 604 624 624 L 659 651 L 688 669 Q 694 673 696 677 Q 700 688 668 712 Q 636 735 628 730 Q 625 730 621 720 L 609 692 Q 606 681 585 648 L 560 608 L 538 578 C 520 554 527 551 551 568 Z" fill="lightgray"></path>
				<path d="M 538 578 L 515 589 Q 504 593 493 592 Q 482 591 479 585 Q 476 578 477 574 Q 478 569 491 565 Q 546 538 606 456 L 705 327 Q 766 250 791 239 Q 828 225 861 234 Q 873 235 905 242 L 975 256 Q 983 258 983 264 Q 982 271 965 277 L 929 290 Q 899 300 882 307 Q 865 314 816 343 Q 766 371 735 399 Q 711 418 694 434 L 648 476 L 637 487 Q 558 564 551 568 L 538 578 Z" fill="lightgray"></path>
				<path d="M 648 476 L 732 522 L 785 549 L 805 557 Q 815 560 817 566 Q 825 582 794 609 Q 782 622 771 628 Q 760 631 756 630 Q 752 628 745 609 Q 737 590 716 566 L 637 487 C 616 466 622 462 648 476 Z" fill="lightgray"></path>
				<path d="M 486 308 L 578 323 Q 655 337 587 362 Q 567 367 566 366 Q 565 365 553 365 L 522 357 Q 497 351 447 342 Q 397 333 367 331 L 341 328 Q 321 329 340 312 Q 349 304 357 303 Q 395 298 407 299 L 437 301 L 486 308 Z" fill="lightgray"></path>
				<path d="M 307 118 L 423 134 L 491 142 L 537 146 L 626 151 L 705 152 Q 725 152 734 153 Q 765 155 765 168 Q 765 174 759 180 Q 722 201 711 204 Q 679 210 607 197 L 502 183 L 437 173 L 331 162 L 275 154 Q 237 151 235 150 L 216 148 Q 207 147 205 141 Q 202 135 228 122 Q 254 108 260 109 L 307 118 Z" fill="lightgray"></path>
				<path d="M 423 134 L 415 112 Q 365 -5 217 -79 L 199 -88 Q 189 -92 191 -97 Q 191 -101 201 -100 L 225 -99 Q 296 -93 380 -31 Q 439 18 475 106 L 491 142 L 502 183 L 509 216 Q 515 243 519 250 L 529 269 Q 537 278 523 291 Q 502 304 486 308 C 458 318 434 327 437 301 L 444 246 Q 445 211 437 173 L 423 134 Z" fill="lightgray"></path>
				<path d="M 537 64 L 578 27 L 673 -80 Q 693 -104 705 -110 Q 730 -127 747 -106 Q 754 -97 753 -75 Q 752 -53 747 -41 Q 742 -29 723 -8 Q 704 13 691 21 Q 677 28 637 46 Q 597 64 579 70 L 550 78 Q 534 81 531 76 Q 530 72 537 64 Z" fill="lightgray"></path>
</g>
		<text x="40" y="140" font-size="128" fill="#999999">2</text></g>
		<g id="id0:id2:id2" transform="matrix(1.0,0,0,1.0,2048,0.0)">			<g stroke="lightgray" stroke-width="4" transform="scale(4, 4)"> <rect x="0" y="0" width="256" height="256" fill="white" stroke-width="4"/></g>
			<g transform="scale(0.92, -0.92) translate(60, -920)">					<path d="M 341 639 L 299 630 L 253 622 Q 249 620 248 615 Q 246 609 251 604 Q 256 599 278 598 Q 300 597 327 605 L 357 614 Q 372 618 375 615 Q 382 609 361 561 L 339 517 Q 319 474 289 429 L 271 402 L 245 368 Q 237 356 197 313 Q 132 243 102 222 Q 77 201 62 192 L 43 179 Q 36 172 37 167 Q 39 162 47 165 L 70 172 Q 76 172 113 190 Q 144 207 168 225 Q 192 243 230 278 Q 255 304 285 338 Q 315 372 377 474 L 409 526 Q 418 547 441 575 L 458 595 Q 470 608 471 612 Q 472 615 462 628 Q 453 636 433 649 Q 405 665 383 656 L 356 644 L 341 639 Z" fill="black"></path>
				<path d="M 289 429 L 285 448 Q 276 483 206 495 L 188 499 Q 173 501 172 497 Q 170 492 175 488 L 190 470 L 205 448 Q 210 441 224 427 Q 238 412 247 408 Q 255 404 271 402 C 295 399 295 400 289 429 Z" fill="black"></path>
				<path d="M 551 568 L 597 601 Q 603 604 624 624 L 659 651 L 688 669 Q 694 673 696 677 Q 700 688 668 712 Q 636 735 628 730 Q 625 730 621 720 L 609 692 Q 606 681 585 648 L 560 608 L 538 578 C 520 554 527 551 551 568 Z" fill="red"></path>
				<path d="M 538 578 L 515 589 Q 504 593 493 592 Q 482 591 479 585 Q 476 578 477 574 Q 478 569 491 565 Q 546 538 606 456 L 705 327 Q 766 250 791 239 Q 828 225 861 234 Q 873 235 905 242 L 975 256 Q 983 258 983 264 Q 982 271 965 277 L 929 290 Q 899 300 882 307 Q 865 314 816 343 Q 766 371 735 399 Q 711 418 694 434 L 648 476 L 637 487 Q 558 564 551 568 L 538 578 Z" fill="lightgray"></path>
				<path d="M 648 476 L 732 522 L 785 549 L 805 557 Q 815 560 817 566 Q 825 582 794 609 Q 782 622 771 628 Q 760 631 756 630 Q 752 628 745 609 Q 737 590 716 566 L 637 487 C 616 466 622 462 648 476 Z" fill="lightgray"></path>
				<path d="M 486 308 L 578 323 Q 655 337 587 362 Q 567 367 566 366 Q 565 365 553 365 L 522 357 Q 497 351 447 342 Q 397 333 367 331 L 341 328 Q 321 329 340 312 Q 349 304 357 303 Q 395 298 407 299 L 437 301 L 486 308 Z" fill="lightgray"></path>
				<path d="M 307 118 L 423 134 L 491 142 L 537 146 L 626 151 L 705 152 Q 725 152 734 153 Q 765 155 765 168 Q 765 174 759 180 Q 722 201 711 204 Q 679 210 607 197 L 502 183 L 437 173 L 331 162 L 275 154 Q 237 151 235 150 L 216 148 Q 207 147 205 141 Q 202 135 228 122 Q 254 108 260 109 L 307 118 Z" fill="lightgray"></path>
				<path d="M 423 134 L 415 112 Q 365 -5 217 -79 L 199 -88 Q 189 -92 191 -97 Q 191 -101 201 -100 L 225 -99 Q 296 -93 380 -31 Q 439 18 475 106 L 491 142 L 502 183 L 509 216 Q 515 243 519 250 L 529 269 Q 537 278 523 291 Q 502 304 486 308 C 458 318 434 327 437 301 L 444 246 Q 445 211 437 173 L 423 134 Z" fill="lightgray"></path>
				<path d="M 537 64 L 578 27 L 673 -80 Q 693 -104 705 -110 Q 730 -127 747 -106 Q 754 -97 753 -75 Q 752 -53 747 -41 Q 742 -29 723 -8 Q 704 13 691 21 Q 677 28 637 46 Q 597 64 579 70 L 550 78 Q 534 81 531 76 Q 530 72 537 64 Z" fill="lightgray"></path>
</g>
		<text x="40" y="140" font-size="128" fill="#999999">3</text></g>
		<g id="id0:id3:id3" transform="matrix(1.0,0,0,1.0,3072,0.0)">			<g stroke="lightgray" stroke-width="4" transform="scale(4, 4)"> <rect x="0" y="0" width="256" height="256" fill="white" stroke-width="4"/></g>
			<g transform="scale(0.92, -0.92) translate(60, -920)">					<path d="M 341 639 L 299 630 L 253 622 Q 249 620 248 615 Q 246 609 251 604 Q 256 599 278 598 Q 300 597 327 605 L 357 614 Q 372 618 375 615 Q 382 609 361 561 L 339 517 Q 319 474 289 429 L 271 402 L 245 368 Q 237 356 197 313 Q 132 243 102 222 Q 77 201 62 192 L 43 179 Q 36 172 37 167 Q 39 162 47 165 L 70 172 Q 76 172 113 190 Q 144 207 168 225 Q 192 243 230 278 Q 255 304 285 338 Q 315 372 377 474 L 409 526 Q 418 547 441 575 L 458 595 Q 470 608 471 612 Q 472 615 462 628 Q 453 636 433 649 Q 405 665 383 656 L 356 644 L 341 639 Z" fill="black"></path>
				<path d="M 289 429 L 285 448 Q 276 483 206 495 L 188 499 Q 173 501 172 497 Q 170 492 175 488 L 190 470 L 205 448 Q 210 441 224 427 Q 238 412 247 408 Q 255 404 271 402 C 295 399 295 400 289 429 Z" fill="black"></path>
				<path d="M 551 568 L 597 601 Q 603 604 624 624 L 659 651 L 688 669 Q 694 673 696 677 Q 700 688 668 712 Q 636 735 628 730 Q 625 730 621 720 L 609 692 Q 606 681 585 648 L 560 608 L 538 578 C 520 554 527 551 551 568 Z" fill="black"></path>
				<path d="M 538 578 L 515 589 Q 504 593 493 592 Q 482 591 479 585 Q 476 578 477 574 Q 478 569 491 565 Q 546 538 606 456 L 705 327 Q 766 250 791 239 Q 828 225 861 234 Q 873 235 905 242 L 975 256 Q 983 258 983 264 Q 982 271 965 277 L 929 290 Q 899 300 882 307 Q 865 314 816 343 Q 766 371 735 399 Q 711 418 694 434 L 648 476 L 637 487 Q 558 564 551 568 L 538 578 Z" fill="red"></path>
				<path d="M 648 476 L 732 522 L 785 549 L 805 557 Q 815 560 817 566 Q 825 582 794 609 Q 782 622 771 628 Q 760 631 756 630 Q 752 628 745 609 Q 737 590 716 566 L 637 487 C 616 466 622 462 648 476 Z" fill="lightgray"></path>
				<path d="M 486 308 L 578 323 Q 655 337 587 362 Q 567 367 566 366 Q 565 365 553 365 L 522 357 Q 497 351 447 342 Q 397 333 367 331 L 341 328 Q 321 329 340 312 Q 349 304 357 303 Q 395 298 407 299 L 437 301 L 486 308 Z" fill="lightgray"></path>
				<path d="M 307 118 L 423 134 L 491 142 L 537 146 L 626 151 L 705 152 Q 725 152 734 153 Q 765 155 765 168 Q 765 174 759 180 Q 722 201 711 204 Q 679 210 607 197 L 502 183 L 437 173 L 331 162 L 275 154 Q 237 151 235 150 L 216 148 Q 207 147 205 141 Q 202 135 228 122 Q 254 108 260 109 L 307 118 Z" fill="lightgray"></path>
				<path d="M 423 134 L 415 112 Q 365 -5 217 -79 L 199 -88 Q 189 -92 191 -97 Q 191 -101 201 -100 L 225 -99 Q 296 -93 380 -31 Q 439 18 475 106 L 491 142 L 502 183 L 509 216 Q 515 243 519 250 L 529 269 Q 537 278 523 291 Q 502 304 486 308 C 458 318 434 327 437 301 L 444 246 Q 445 211 437 173 L 423 134 Z" fill="lightgray"></path>
				<path d="M 537 64 L 578 27 L 673 -80 Q 693 -104 705 -110 Q 730 -127 747 -106 Q 754 -97 753 -75 Q 752 -53 747 -41 Q 742 -29 723 -8 Q 704 13 691 21 Q 677 28 637 46 Q 597 64 579 70 L 550 78 Q 534 81 531 76 Q 530 72 537 64 Z" fill="lightgray"></path>
</g>
		<text x="40" y="140" font-size="128" fill="#999999">4</text></g>
		<g id="id0:id4:id4" transform="matrix(1.0,0,0,1.0,4096,0.0)">			<g stroke="lightgray" stroke-width="4" transform="scale(4, 4)"> <rect x="0" y="0" width="256" height="256" fill="white" stroke-width="4"/></g>
			<g transform="scale(0.92, -0.92) translate(60, -920)">					<path d="M 341 639 L 299 630 L 253 622 Q 249 620 248 615 Q 246 609 251 604 Q 256 599 278 598 Q 300 597 327 605 L 357 614 Q 372 618 375 615 Q 382 609 361 561 L 339 517 Q 319 474 289 429 L 271 402 L 245 368 Q 237 356 197 313 Q 132 243 102 222 Q 77 201 62 192 L 43 179 Q 36 172 37 167 Q 39 162 47 165 L 70 172 Q 76 172 113 190 Q 144 207 168 225 Q 192 243 230 278 Q 255 304 285 338 Q 315 372 377 474 L 409 526 Q 418 547 441 575 L 458 595 Q 470 608 471 612 Q 472 615 462 628 Q 453 636 433 649 Q 405 665 383 656 L 356 644 L 341 639 Z" fill="black"></path>
				<path d="M 289 429 L 285 448 Q 276 483 206 495 L 188 499 Q 173 501 172 497 Q 170 492 175 488 L 190 470 L 205 448 Q 210 441 224 427 Q 238 412 247 408 Q 255 404 271 402 C 295 399 295 400 289 429 Z" fill="black"></path>
				<path d="M 551 568 L 597 601 Q 603 604 624 624 L 659 651 L 688 669 Q 694 673 696 677 Q 700 688 668 712 Q 636 735 628 730 Q 625 730 621 720 L 609 692 Q 606 681 585 648 L 560 608 L 538 578 C 520 554 527 551 551 568 Z" fill="black"></path>
				<path d="M 538 578 L 515 589 Q 504 593 493 592 Q 482 591 479 585 Q 476 578 477 574 Q 478 569 491 565 Q 546 538 606 456 L 705 327 Q 766 250 791 239 Q 828 225 861 234 Q 873 235 905 242 L 975 256 Q 983 258 983 264 Q 982 271 965 277 L 929 290 Q 899 300 882 307 Q 865 314 816 343 Q 766 371 735 399 Q 711 418 694 434 L 648 476 L 637 487 Q 558 564 551 568 L 538 578 Z" fill="black"></path>
				<path d="M 648 476 L 732 522 L 785 549 L 805 557 Q 815 560 817 566 Q 825 582 794 609 Q 782 622 771 628 Q 760 631 756 630 Q 752 628 745 609 Q 737 590 716 566 L 637 487 C 616 466 622 462 648 476 Z" fill="red"></path>
				<path d="M 486 308 L 578 323 Q 655 337 587 362 Q 567 367 566 366 Q 565 365 553 365 L 522 357 Q 497 351 447 342 Q 397 333 367 331 L 341 328 Q 321 329 340 312 Q 349 304 357 303 Q 395 298 407 299 L 437 301 L 486 308 Z" fill="lightgray"></path>
				<path d="M 307 118 L 423 134 L 491 142 L 537 146 L 626 151 L 705 152 Q 725 152 734 153 Q 765 155 765 168 Q 765 174 759 180 Q 722 201 711 204 Q 679 210 607 197 L 502 183 L 437 173 L 331 162 L 275 154 Q 237 151 235 150 L 216 148 Q 207 147 205 141 Q 202 135 228 122 Q 254 108 260 109 L 307 118 Z" fill="lightgray"></path>
				<path d="M 423 134 L 415 112 Q 365 -5 217 -79 L 199 -88 Q 189 -92 191 -97 Q 191 -101 201 -100 L 225 -99 Q 296 -93 380 -31 Q 439 18 475 106 L 491 142 L 502 183 L 509 216 Q 515 243 519 250 L 529 269 Q 537 278 523 291 Q 502 304 486 308 C 458 318 434 327 437 301 L 444 246 Q 445 211 437 173 L 423 134 Z" fill="lightgray"></path>
				<path d="M 537 64 L 578 27 L 673 -80 Q 693 -104 705 -110 Q 730 -127 747 -106 Q 754 -97 753 -75 Q 752 -53 747 -41 Q 742 -29 723 -8 Q 704 13 691 21 Q 677 28 637 46 Q 597 64 579 70 L 550 78 Q 534 81 531 76 Q 530 72 537 64 Z" fill="lightgray"></path>
</g>
		<text x="40" y="140" font-size="128" fill="#999999">5</text></g>
</g>
	<g id="id1:id1" transform="translate(0.0,1024)">
		<g id="id1:id0:id0" transform="matrix(1.0,0,0,1.0,0,0.0)">			<g stroke="lightgray" stroke-width="4" transform="scale(4, 4)"> <rect x="0" y="0" width="256" height="256" fill="white" stroke-width="4"/></g>
			<g transform="scale(0.92, -0.92) translate(60, -920)">					<path d="M 341 639 L 299 630 L 253 622 Q 249 620 248 615 Q 246 609 251 604 Q 256 599 278 598 Q 300 597 327 605 L 357 614 Q 372 618 375 615 Q 382 609 361 561 L 339 517 Q 319 474 289 429 L 271 402 L 245 368 Q 237 356 197 313 Q 132 243 102 222 Q 77 201 62 192 L 43 179 Q 36 172 37 167 Q 39 162 47 165 L 70 172 Q 76 172 113 190 Q 144 207 168 225 Q 192 243 230 278 Q 255 304 285 338 Q 315 372 377 474 L 409 526 Q 418 547 441 575 L 458 595 Q 470 608 471 612 Q 472 615 462 628 Q 453 636 433 649 Q 405 665 383 656 L 356 644 L 341 639 Z" fill="black"></path>
				<path d="M 289 429 L 285 448 Q 276 483 206 495 L 188 499 Q 173 501 172 497 Q 170 492 175 488 L 190 470 L 205 448 Q 210 441 224 427 Q 238 412 247 408 Q 255 404 271 402 C 295 399 295 400 289 429 Z" fill="black"></path>
				<path d="M 551 568 L 597 601 Q 603 604 624 624 L 659 651 L 688 669 Q 694 673 696 677 Q 700 688 668 712 Q 636 735 628 730 Q 625 730 621 720 L 609 692 Q 606 681 585 648 L 560 608 L 538 578 C 520 554 527 551 551 568 Z" fill="black"></path>
				<path d="M 538 578 L 515 589 Q 504 593 493 592 Q 482 591 479 585 Q 476 578 477 574 Q 478 569 491 565 Q 546 538 606 456 L 705 327 Q 766 250 791 239 Q 828 225 861 234 Q 873 235 905 242 L 975 256 Q 983 258 983 264 Q 982 271 965 277 L 929 290 Q 899 300 882 307 Q 865 314 816 343 Q 766 371 735 399 Q 711 418 694 434 L 648 476 L 637 487 Q 558 564 551 568 L 538 578 Z" fill="black"></path>
				<path d="M 648 476 L 732 522 L 785 549 L 805 557 Q 815 560 817 566 Q 825 582 794 609 Q 782 622 771 628 Q 760 631 756 630 Q 752 628 745 609 Q 737 590 716 566 L 637 487 C 616 466 622 462 648 476 Z" fill="black"></path>
				<path d="M 486 308 L 578 323 Q 655 337 587 362 Q 567 367 566 366 Q 565 365 553 365 L 522 357 Q 497 351 447 342 Q 397 333 367 331 L 341 328 Q 321 329 340 312 Q 349 304 357 303 Q 395 298 407 299 L 437 301 L 486 308 Z" fill="red"></path>
				<path d="M 307 118 L 423 134 L 491 142 L 537 146 L 626 151 L 705 152 Q 725 152 734 153 Q 765 155 765 168 Q 765 174 759 180 Q 722 201 711 204 Q 679 210 607 197 L 502 183 L 437 173 L 331 162 L 275 154 Q 237 151 235 150 L 216 148 Q 207 147 205 141 Q 202 135 228 122 Q 254 108 260 109 L 307 118 Z" fill="lightgray"></path>
				<path d="M 423 134 L 415 112 Q 365 -5 217 -79 L 199 -88 Q 189 -92 191 -97 Q 191 -101 201 -100 L 225 -99 Q 296 -93 380 -31 Q 439 18 475 106 L 491 142 L 502 183 L 509 216 Q 515 243 519 250 L 529 269 Q 537 278 523 291 Q 502 304 486 308 C 458 318 434 327 437 301 L 444 246 Q 445 211 437 173 L 423 134 Z" fill="lightgray"></path>
				<path d="M 537 64 L 578 27 L 673 -80 Q 693 -104 705 -110 Q 730 -127 747 -106 Q 754 -97 753 -75 Q 752 -53 747 -41 Q 742 -29 723 -8 Q 704 13 691 21 Q 677 28 637 46 Q 597 64 579 70 L 550 78 Q 534 81 531 76 Q 530 72 537 64 Z" fill="lightgray"></path>
</g>
		<text x="40" y="140" font-size="128" fill="#999999">6</text></g>
		<g id="id1:id1:id1" transform="matrix(1.0,0,0,1.0,1024,0.0)">			<g stroke="lightgray" stroke-width="4" transform="scale(4, 4)"> <rect x="0" y="0" width="256" height="256" fill="white" stroke-width="4"/></g>
			<g transform="scale(0.92, -0.92) translate(60, -920)">					<path d="M 341 639 L 299 630 L 253 622 Q 249 620 248 615 Q 246 609 251 604 Q 256 599 278 598 Q 300 597 327 605 L 357 614 Q 372 618 375 615 Q 382 609 361 561 L 339 517 Q 319 474 289 429 L 271 402 L 245 368 Q 237 356 197 313 Q 132 243 102 222 Q 77 201 62 192 L 43 179 Q 36 172 37 167 Q 39 162 47 165 L 70 172 Q 76 172 113 190 Q 144 207 168 225 Q 192 243 230 278 Q 255 304 285 338 Q 315 372 377 474 L 409 526 Q 418 547 441 575 L 458 595 Q 470 608 471 612 Q 472 615 462 628 Q 453 636 433 649 Q 405 665 383 656 L 356 644 L 341 639 Z" fill="black"></path>
				<path d="M 289 429 L 285 448 Q 276 483 206 495 L 188 499 Q 173 501 172 497 Q 170 492 175 488 L 190 470 L 205 448 Q 210 441 224 427 Q 238 412 247 408 Q 255 404 271 402 C 295 399 295 400 289 429 Z" fill="black"></path>
				<path d="M 551 568 L 597 601 Q 603 604 624 624 L 659 651 L 688 669 Q 694 673 696 677 Q 700 688 668 712 Q 636 735 628 730 Q 625 730 621 720 L 609 692 Q 606 681 585 648 L 560 608 L 538 578 C 520 554 527 551 551 568 Z" fill="black"></path>
				<path d="M 538 578 L 515 589 Q 504 593 493 592 Q 482 591 479 585 Q 476 578 477 574 Q 478 569 491 565 Q 546 538 606 456 L 705 327 Q 766 250 791 239 Q 828 225 861 234 Q 873 235 905 242 L 975 256 Q 983 258 983 264 Q 982 271 965 277 L 929 290 Q 899 300 882 307 Q 865 314 816 343 Q 766 371 735 399 Q 711 418 694 434 L 648 476 L 637 487 Q 558 564 551 568 L 538 578 Z" fill="black"></path>
				<path d="M 648 476 L 732 522 L 785 549 L 805 557 Q 815 560 817 566 Q 825 582 794 609 Q 782 622 771 628 Q 760 631 756 630 Q 752 628 745 609 Q 737 590 716 566 L 637 487 C 616 466 622 462 648 476 Z" fill="black"></path>
				<path d="M 486 308 L 578 323 Q 655 337 587 362 Q 567 367 566 366 Q 565 365 553 365 L 522 357 Q 497 351 447 342 Q 397 333 367 331 L 341 328 Q 321 329 340 312 Q 349 304 357 303 Q 395 298 407 299 L 437 301 L 486 308 Z" fill="black"></path>
				<path d="M 307 118 L 423 134 L 491 142 L 537 146 L 626 151 L 705 152 Q 725 152 734 153 Q 765 155 765 168 Q 765 174 759 180 Q 722 201 711 204 Q 679 210 607 197 L 502 183 L 437 173 L 331 162 L 275 154 Q 237 151 235 150 L 216 148 Q 207 147 205 141 Q 202 135 228 122 Q 254 108 260 109 L 307 118 Z" fill="red"></path>
				<path d="M 423 134 L 415 112 Q 365 -5 217 -79 L 199 -88 Q 189 -92 191 -97 Q 191 -101 201 -100 L 225 -99 Q 296 -93 380 -31 Q 439 18 475 106 L 491 142 L 502 183 L 509 216 Q 515 243 519 250 L 529 269 Q 537 278 523 291 Q 502 304 486 308 C 458 318 434 327 437 301 L 444 246 Q 445 211 437 173 L 423 134 Z" fill="lightgray"></path>
				<path d="M 537 64 L 578 27 L 673 -80 Q 693 -104 705 -110 Q 730 -127 747 -106 Q 754 -97 753 -75 Q 752 -53 747 -41 Q 742 -29 723 -8 Q 704 13 691 21 Q 677 28 637 46 Q 597 64 579 70 L 550 78 Q 534 81 531 76 Q 530 72 537 64 Z" fill="lightgray"></path>
</g>
		<text x="40" y="140" font-size="128" fill="#999999">7</text></g>
		<g id="id1:id2:id2" transform="matrix(1.0,0,0,1.0,2048,0.0)">			<g stroke="lightgray" stroke-width="4" transform="scale(4, 4)"> <rect x="0" y="0" width="256" height="256" fill="white" stroke-width="4"/></g>
			<g transform="scale(0.92, -0.92) translate(60, -920)">					<path d="M 341 639 L 299 630 L 253 622 Q 249 620 248 615 Q 246 609 251 604 Q 256 599 278 598 Q 300 597 327 605 L 357 614 Q 372 618 375 615 Q 382 609 361 561 L 339 517 Q 319 474 289 429 L 271 402 L 245 368 Q 237 356 197 313 Q 132 243 102 222 Q 77 201 62 192 L 43 179 Q 36 172 37 167 Q 39 162 47 165 L 70 172 Q 76 172 113 190 Q 144 207 168 225 Q 192 243 230 278 Q 255 304 285 338 Q 315 372 377 474 L 409 526 Q 418 547 441 575 L 458 595 Q 470 608 471 612 Q 472 615 462 628 Q 453 636 433 649 Q 405 665 383 656 L 356 644 L 341 639 Z" fill="black"></path>
				<path d="M 289 429 L 285 448 Q 276 483 206 495 L 188 499 Q 173 501 172 497 Q 170 492 175 488 L 190 470 L 205 448 Q 210 441 224 427 Q 238 412 247 408 Q 255 404 271 402 C 295 399 295 400 289 429 Z" fill="black"></path>
				<path d="M 551 568 L 597 601 Q 603 604 624 624 L 659 651 L 688 669 Q 694 673 696 677 Q 700 688 668 712 Q 636 735 628 730 Q 625 730 621 720 L 609 692 Q 606 681 585 648 L 560 608 L 538 578 C 520 554 527 551 551 568 Z" fill="black"></path>
				<path d="M 538 578 L 515 589 Q 504 593 493 592 Q 482 591 479 585 Q 476 578 477 574 Q 478 569 491 565 Q 546 538 606 456 L 705 327 Q 766 250 791 239 Q 828 225 861 234 Q 873 235 905 242 L 975 256 Q 983 258 983 264 Q 982 271 965 277 L 929 290 Q 899 300 882 307 Q 865 314 816 343 Q 766 371 735 399 Q 711 418 694 434 L 648 476 L 637 487 Q 558 564 551 568 L 538 578 Z" fill="black"></path>
				<path d="M 648 476 L 732 522 L 785 549 L 805 557 Q 815 560 817 566 Q 825 582 794 609 Q 782 622 771 628 Q 760 631 756 630 Q 752 628 745 609 Q 737 590 716 566 L 637 487 C 616 466 622 462 648 476 Z" fill="black"></path>
				<path d="M 486 308 L 578 323 Q 655 337 587 362 Q 567 367 566 366 Q 565 365 553 365 L 522 357 Q 497 351 447 342 Q 397 333 367 331 L 341 328 Q 321 329 340 312 Q 349 304 357 303 Q 395 298 407 299 L 437 301 L 486 308 Z" fill="black"></path>
				<path d="M 307 118 L 423 134 L 491 142 L 537 146 L 626 151 L 705 152 Q 725 152 734 153 Q 765 155 765 168 Q 765 174 759 180 Q 722 201 711 204 Q 679 210 607 197 L 502 183 L 437 173 L 331 162 L 275 154 Q 237 151 235 150 L 216 148 Q 207 147 205 141 Q 202 135 228 122 Q 254 108 260 109 L 307 118 Z" fill="black"></path>
				<path d="M 423 134 L 415 112 Q 365 -5 217 -79 L 199 -88 Q 189 -92 191 -97 Q 191 -101 201 -100 L 225 -99 Q 296 -93 380 -31 Q 439 18 475 106 L 491 142 L 502 183 L 509 216 Q 515 243 519 250 L 529 269 Q 537 278 523 291 Q 502 304 486 308 C 458 318 434 327 437 301 L 444 246 Q 445 211 437 173 L 423 134 Z" fill="red"></path>
				<path d="M 537 64 L 578 27 L 673 -80 Q 693 -104 705 -110 Q 730 -127 747 -106 Q 754 -97 753 -75 Q 752 -53 747 -41 Q 742 -29 723 -8 Q 704 13 691 21 Q 677 28 637 46 Q 597 64 579 70 L 550 78 Q 534 81 531 76 Q 530 72 537 64 Z" fill="lightgray"></path>
</g>
		<text x="40" y="140" font-size="128" fill="#999999">8</text></g>
		<g id="id1:id3:id3" transform="matrix(1.0,0,0,1.0,3072,0.0)">			<g stroke="lightgray" stroke-width="4" transform="scale(4, 4)"> <rect x="0" y="0" width="256" height="256" fill="white" stroke-width="4"/></g>
			<g transform="scale(0.92, -0.92) translate(60, -920)">					<path d="M 341 639 L 299 630 L 253 622 Q 249 620 248 615 Q 246 609 251 604 Q 256 599 278 598 Q 300 597 327 605 L 357 614 Q 372 618 375 615 Q 382 609 361 561 L 339 517 Q 319 474 289 429 L 271 402 L 245 368 Q 237 356 197 313 Q 132 243 102 222 Q 77 201 62 192 L 43 179 Q 36 172 37 167 Q 39 162 47 165 L 70 172 Q 76 172 113 190 Q 144 207 168 225 Q 192 243 230 278 Q 255 304 285 338 Q 315 372 377 474 L 409 526 Q 418 547 441 575 L 458 595 Q 470 608 471 612 Q 472 615 462 628 Q 453 636 433 649 Q 405 665 383 656 L 356 644 L 341 639 Z" fill="black"></path>
				<path d="M 289 429 L 285 448 Q 276 483 206 495 L 188 499 Q 173 501 172 497 Q 170 492 175 488 L 190 470 L 205 448 Q 210 441 224 427 Q 238 412 247 408 Q 255 404 271 402 C 295 399 295 400 289 429 Z" fill="black"></path>
				<path d="M 551 568 L 597 601 Q 603 604 624 624 L 659 651 L 688 669 Q 694 673 696 677 Q 700 688 668 712 Q 636 735 628 730 Q 625 730 621 720 L 609 692 Q 606 681 585 648 L 560 608 L 538 578 C 520 554 527 551 551 568 Z" fill="black"></path>
				<path d="M 538 578 L 515 589 Q 504 593 493 592 Q 482 591 479 585 Q 476 578 477 574 Q 478 569 491 565 Q 546 538 606 456 L 705 327 Q 766 250 791 239 Q 828 225 861 234 Q 873 235 905 242 L 975 256 Q 983 258 983 264 Q 982 271 965 277 L 929 290 Q 899 300 882 307 Q 865 314 816 343 Q 766 371 735 399 Q 711 418 694 434 L 648 476 L 637 487 Q 558 564 551 568 L 538 578 Z" fill="black"></path>
				<path d="M 648 476 L 732 522 L 785 549 L 805 557 Q 815 560 817 566 Q 825 582 794 609 Q 782 622 771 628 Q 760 631 756 630 Q 752 628 745 609 Q 737 590 716 566 L 637 487 C 616 466 622 462 648 476 Z" fill="black"></path>
				<path d="M 486 308 L 578 323 Q 655 337 587 362 Q 567 367 566 366 Q 565 365 553 365 L 522 357 Q 497 351 447 342 Q 397 333 367 331 L 341 328 Q 321 329 340 312 Q 349 304 357 303 Q 395 298 407 299 L 437 301 L 486 308 Z" fill="black"></path>
				<path d="M 307 118 L 423 134 L 491 142 L 537 146 L 626 151 L 705 152 Q 725 152 734 153 Q 765 155 765 168 Q 765 174 759 180 Q 722 201 711 204 Q 679 210 607 197 L 502 183 L 437 173 L 331 162 L 275 154 Q 237 151 235 150 L 216 148 Q 207 147 205 141 Q 202 135 228 122 Q 254 108 260 109 L 307 118 Z" fill="black"></path>
				<path d="M 423 134 L 415 112 Q 365 -5 217 -79 L 199 -88 Q 189 -92 191 -97 Q 191 -101 201 -100 L 225 -99 Q 296 -93 380 -31 Q 439 18 475 106 L 491 142 L 502 183 L 509 216 Q 515 243 519 250 L 529 269 Q 537 278 523 291 Q 502 304 486 308 C 458 318 434 327 437 301 L 444 246 Q 445 211 437 173 L 423 134 Z" fill="black"></path>
				<path d="M 537 64 L 578 27 L 673 -80 Q 693 -104 705 -110 Q 730 -127 747 -106 Q 754 -97 753 -75 Q 752 -53 747 -41 Q 742 -29 723 -8 Q 704 13 691 21 Q 677 28 637 46 Q 597 64 579 70 L 550 78 Q 534 81 531 76 Q 530 72 537 64 Z" fill="red"></path>
</g>
		<text x="40" y="140" font-size="128" fill="#999999">9</text></g>
		<g id="id1:id4:id4" transform="matrix(1.0,0,0,1.0,4096,0.0)">			<g stroke="white" stroke-width="4" transform="scale(4, 4)"> <rect x="1" y="1" width="255" height="255" fill="white" stroke-width="0"/></g>
</g>
</g>
</svg>
