<?xml version="1.0" standalone="no"?>
<!DOCTYPE svg PUBLIC "-//W3C//DTD SVG 1.1//EN"
 "http://www.w3.org/Graphics/SVG/1.1/DTD/svg11.dtd">
<!-- generate by Japanese dictionary app com.asnsami.kanjidictionary -->

<svg xmlns="http://www.w3.org/2000/svg" xmlns:sodipodi="http://sodipodi.sourceforge.net/DTD/sodipodi-0.dtd" version="1.1" width="640" height="384" viewBox="0 0 5120 3072">
	<g id="id0:id0" transform="translate(0.0,0)">
		<g id="id0:id0:id0" transform="matrix(1.0,0,0,1.0,0,0.0)">			<g stroke="lightgray" stroke-width="4" transform="scale(4, 4)"> <rect x="0" y="0" width="256" height="256" fill="white" stroke-width="4"/></g>
			<g transform="scale(0.92, -0.92) translate(60, -920)">					<path d="M 344 579 L 389 600 L 467 630 Q 476 633 485 642 Q 488 651 480 660 Q 478 665 449.5 687.5 Q 421 710 416 708 Q 411 706 407 700 L 365 658 L 316 620 Q 228 558 184 540 L 165 531 Q 158 529 155.5 526.5 Q 153 524 155 522 Q 157 513 169 516 L 194 521 Q 204 523 238 534 Q 256 538 276 548 L 300 560 L 344 579 Z" fill="red"></path>
				<path d="M 366 382 L 479 400 Q 483 400 486 404 Q 494 412 477 427 Q 453 442 438.5 441.5 Q 424 441 408 436 L 368 428 L 316 416 L 89 367 L 86 364 Q 85 362 85 361 Q 85 348 104 339.5 Q 123 331 135 327 L 160 325 L 308 370 L 366 382 Z" fill="lightgray"></path>
				<path d="M 282 -56 L 281 -58 Q 280 -80 296 -116 Q 311 -151 317 -151 Q 334 -151 345 -120 Q 355 -88 356 -73 Q 357 -57 357 -18 L 357 173 L 359 222 Q 361 269 362 298 L 363 326 L 366 382 L 368 428 L 372 453 Q 372 456 377 494 L 388 535 L 385 547 Q 383 550 373 560 Q 362 568 344 579 C 319 595 294 589 300 560 L 307 526 Q 311 508 313 473 Q 314 438 316 416 L 312 244 L 301 65 Q 299 46 292 7 Q 285 -32 282 -56 Z" fill="lightgray"></path>
				<path d="M 308 370 L 299 342 Q 293 323 260 269 Q 226 214 195 173 Q 163 131 97 70 L 75 49 Q 65 42 67 38 Q 68 33 75 34 L 101 44 Q 118 50 154 73 Q 189 95 220 126 Q 252 153 274 186 L 312 244 C 410 393 317 399 308 370 Z" fill="lightgray"></path>
				<path d="M 362 298 L 377 282 L 399 254 Q 407 242 419 234 Q 434 221 437 222 Q 440 223 442 224 Q 452 225 459 240 Q 466 255 457 278 Q 448 301 409 313 L 363 326 C 334 334 341 320 362 298 Z" fill="lightgray"></path>
				<path d="M 726 603 L 733 614 Q 746 642 725 675 Q 715 691 668 707 Q 643 713 639 717 Q 629 721 622 719 Q 615 717 615 714 Q 612 708 620 698 Q 627 687 635 675 L 656 640 Q 678 607 695 597 C 714 584 714 584 726 603 Z" fill="lightgray"></path>
				<path d="M 695 597 L 486 558 L 484 556 Q 484 544 498 538 L 530 526 Q 545 522 553.5 521 Q 562 520 578 526 L 642 542 Q 685 553 749 562 Q 803 572 872 575 L 914 578 Q 926 580 930 586.5 Q 934 593 906.5 614.5 Q 879 636 857 632 L 813 623 L 726 603 L 695 597 Z" fill="lightgray"></path>
				<path d="M 594 447 L 559 455 Q 552 455 546 457 Q 540 458 535 453 Q 525 443 541 435 Q 556 426 564 394 L 581 323 Q 586 304 593 294 Q 600 283 603 283 Q 605 281 610 285 L 626 296 C 628 297 627 302 625 332 L 618 416 C 616 442 616 442 594 447 Z" fill="lightgray"></path>
				<path d="M 825 349 L 854 392 Q 869 414 874 419 Q 879 423 886 430 Q 890 441 886 448 Q 882 454 865 465 Q 847 476 832 483 Q 816 490 812 490 Q 807 490 789 484 Q 771 478 737 474 L 594 447 C 565 441 588 411 618 416 L 708 431 L 748 436 Q 767 440 780 440 Q 796 440 792 418 L 789 392 L 782 367 Q 781 361 781 360 C 775 331 808 324 825 349 Z" fill="lightgray"></path>
				<path d="M 626 296 L 772 316 Q 808 318 824 319 Q 840 320 842 324 Q 844 328 842 332 Q 842 341 825 349 L 781 360 L 761 358 L 699 345 L 625 332 C 595 327 596 292 626 296 Z" fill="lightgray"></path>
				<path d="M 496 216 L 459 221 Q 450 223 450 221 Q 449 219 445 215 L 445 204 L 462 163 Q 472 141 475 88 L 477 19 L 473 -50 Q 473 -62 475 -67 Q 476 -71 486 -86 Q 495 -101 500 -103 Q 510 -112 514 -111 Q 518 -110 521 -104 Q 524 -98 530 -74 Q 536 -50 536 -47 L 530 45 L 526 126 Q 525 134 525 174 C 525 204 525 212 496 216 Z" fill="lightgray"></path>
				<path d="M 988 244 Q 987 244 964 262 Q 940 280 926 282 L 924 283 Q 917 283 898 276 Q 878 268 862 266 L 520 215 L 496 216 C 466 216 496 167 525 174 L 583 188 Q 613 196 664 202 L 766 216 Q 856 227 901 222 Q 915 218 920 202 Q 924 186 922 132 L 920 92 Q 919 50 913 16 Q 906 -19 898 -31 Q 890 -43 882 -45 Q 874 -46 857 -41 L 826 -34 L 800 -26 Q 794 -25 793 -30 Q 792 -34 795 -37 L 810 -54 Q 828 -76 846 -105 Q 863 -133 868 -139 Q 872 -144 884 -144 Q 901 -148 931 -118 Q 945 -104 957 -71 Q 968 -37 971 -14 Q 973 10 979 81 Q 984 152 988 170 Q 992 187 999 202 Q 1005 217 1005 219 Q 1005 221 988 244 Z" fill="lightgray"></path>
				<path d="M 571 128 Q 570 124 573 121 L 589 109 Q 596 102 601 88 L 621 8 Q 627 -14 636 -16 Q 638 -16 650 -12 L 652 -10 L 660 -1 C 662 1 661 2 657 32 L 647 100 C 643 128 643 128 628 130 L 593 134 Q 588 136 582 134 Q 571 134 571 128 Z" fill="lightgray"></path>
				<path d="M 802 48 L 803 50 L 815 71 Q 827 92 840 99 Q 852 106 854 113 Q 857 123 826 142 Q 820 146 817 148 L 800 159 Q 788 168 770 160 Q 751 152 738 150 L 628 130 C 598 125 617 95 647 100 L 751 116 Q 760 117 765 112 Q 770 106 765 80 Q 759 54 756 54 C 742 27 787 22 802 48 Z" fill="lightgray"></path>
				<path d="M 660 -1 L 812 20 Q 815 20 819 24 L 819 31 Q 819 37 802 48 C 784 60 784 60 756 54 L 657 32 C 628 25 630 -5 660 -1 Z" fill="lightgray"></path>
</g>
		<text x="40" y="140" font-size="128" fill="#999999">1</text></g>
		<g id="id0:id1:id1" transform="matrix(1.0,0,0,1.0,1024,0.0)">			<g stroke="lightgray" stroke-width="4" transform="scale(4, 4)"> <rect x="0" y="0" width="256" height="256" fill="white" stroke-width="4"/></g>
			<g transform="scale(0.92, -0.92) translate(60, -920)">					<path d="M 344 579 L 389 600 L 467 630 Q 476 633 485 642 Q 488 651 480 660 Q 478 665 449.5 687.5 Q 421 710 416 708 Q 411 706 407 700 L 365 658 L 316 620 Q 228 558 184 540 L 165 531 Q 158 529 155.5 526.5 Q 153 524 155 522 Q 157 513 169 516 L 194 521 Q 204 523 238 534 Q 256 538 276 548 L 300 560 L 344 579 Z" fill="black"></path>
				<path d="M 366 382 L 479 400 Q 483 400 486 404 Q 494 412 477 427 Q 453 442 438.5 441.5 Q 424 441 408 436 L 368 428 L 316 416 L 89 367 L 86 364 Q 85 362 85 361 Q 85 348 104 339.5 Q 123 331 135 327 L 160 325 L 308 370 L 366 382 Z" fill="red"></path>
				<path d="M 282 -56 L 281 -58 Q 280 -80 296 -116 Q 311 -151 317 -151 Q 334 -151 345 -120 Q 355 -88 356 -73 Q 357 -57 357 -18 L 357 173 L 359 222 Q 361 269 362 298 L 363 326 L 366 382 L 368 428 L 372 453 Q 372 456 377 494 L 388 535 L 385 547 Q 383 550 373 560 Q 362 568 344 579 C 319 595 294 589 300 560 L 307 526 Q 311 508 313 473 Q 314 438 316 416 L 312 244 L 301 65 Q 299 46 292 7 Q 285 -32 282 -56 Z" fill="lightgray"></path>
				<path d="M 308 370 L 299 342 Q 293 323 260 269 Q 226 214 195 173 Q 163 131 97 70 L 75 49 Q 65 42 67 38 Q 68 33 75 34 L 101 44 Q 118 50 154 73 Q 189 95 220 126 Q 252 153 274 186 L 312 244 C 410 393 317 399 308 370 Z" fill="lightgray"></path>
				<path d="M 362 298 L 377 282 L 399 254 Q 407 242 419 234 Q 434 221 437 222 Q 440 223 442 224 Q 452 225 459 240 Q 466 255 457 278 Q 448 301 409 313 L 363 326 C 334 334 341 320 362 298 Z" fill="lightgray"></path>
				<path d="M 726 603 L 733 614 Q 746 642 725 675 Q 715 691 668 707 Q 643 713 639 717 Q 629 721 622 719 Q 615 717 615 714 Q 612 708 620 698 Q 627 687 635 675 L 656 640 Q 678 607 695 597 C 714 584 714 584 726 603 Z" fill="lightgray"></path>
				<path d="M 695 597 L 486 558 L 484 556 Q 484 544 498 538 L 530 526 Q 545 522 553.5 521 Q 562 520 578 526 L 642 542 Q 685 553 749 562 Q 803 572 872 575 L 914 578 Q 926 580 930 586.5 Q 934 593 906.5 614.5 Q 879 636 857 632 L 813 623 L 726 603 L 695 597 Z" fill="lightgray"></path>
				<path d="M 594 447 L 559 455 Q 552 455 546 457 Q 540 458 535 453 Q 525 443 541 435 Q 556 426 564 394 L 581 323 Q 586 304 593 294 Q 600 283 603 283 Q 605 281 610 285 L 626 296 C 628 297 627 302 625 332 L 618 416 C 616 442 616 442 594 447 Z" fill="lightgray"></path>
				<path d="M 825 349 L 854 392 Q 869 414 874 419 Q 879 423 886 430 Q 890 441 886 448 Q 882 454 865 465 Q 847 476 832 483 Q 816 490 812 490 Q 807 490 789 484 Q 771 478 737 474 L 594 447 C 565 441 588 411 618 416 L 708 431 L 748 436 Q 767 440 780 440 Q 796 440 792 418 L 789 392 L 782 367 Q 781 361 781 360 C 775 331 808 324 825 349 Z" fill="lightgray"></path>
				<path d="M 626 296 L 772 316 Q 808 318 824 319 Q 840 320 842 324 Q 844 328 842 332 Q 842 341 825 349 L 781 360 L 761 358 L 699 345 L 625 332 C 595 327 596 292 626 296 Z" fill="lightgray"></path>
				<path d="M 496 216 L 459 221 Q 450 223 450 221 Q 449 219 445 215 L 445 204 L 462 163 Q 472 141 475 88 L 477 19 L 473 -50 Q 473 -62 475 -67 Q 476 -71 486 -86 Q 495 -101 500 -103 Q 510 -112 514 -111 Q 518 -110 521 -104 Q 524 -98 530 -74 Q 536 -50 536 -47 L 530 45 L 526 126 Q 525 134 525 174 C 525 204 525 212 496 216 Z" fill="lightgray"></path>
				<path d="M 988 244 Q 987 244 964 262 Q 940 280 926 282 L 924 283 Q 917 283 898 276 Q 878 268 862 266 L 520 215 L 496 216 C 466 216 496 167 525 174 L 583 188 Q 613 196 664 202 L 766 216 Q 856 227 901 222 Q 915 218 920 202 Q 924 186 922 132 L 920 92 Q 919 50 913 16 Q 906 -19 898 -31 Q 890 -43 882 -45 Q 874 -46 857 -41 L 826 -34 L 800 -26 Q 794 -25 793 -30 Q 792 -34 795 -37 L 810 -54 Q 828 -76 846 -105 Q 863 -133 868 -139 Q 872 -144 884 -144 Q 901 -148 931 -118 Q 945 -104 957 -71 Q 968 -37 971 -14 Q 973 10 979 81 Q 984 152 988 170 Q 992 187 999 202 Q 1005 217 1005 219 Q 1005 221 988 244 Z" fill="lightgray"></path>
				<path d="M 571 128 Q 570 124 573 121 L 589 109 Q 596 102 601 88 L 621 8 Q 627 -14 636 -16 Q 638 -16 650 -12 L 652 -10 L 660 -1 C 662 1 661 2 657 32 L 647 100 C 643 128 643 128 628 130 L 593 134 Q 588 136 582 134 Q 571 134 571 128 Z" fill="lightgray"></path>
				<path d="M 802 48 L 803 50 L 815 71 Q 827 92 840 99 Q 852 106 854 113 Q 857 123 826 142 Q 820 146 817 148 L 800 159 Q 788 168 770 160 Q 751 152 738 150 L 628 130 C 598 125 617 95 647 100 L 751 116 Q 760 117 765 112 Q 770 106 765 80 Q 759 54 756 54 C 742 27 787 22 802 48 Z" fill="lightgray"></path>
				<path d="M 660 -1 L 812 20 Q 815 20 819 24 L 819 31 Q 819 37 802 48 C 784 60 784 60 756 54 L 657 32 C 628 25 630 -5 660 -1 Z" fill="lightgray"></path>
</g>
		<text x="40" y="140" font-size="128" fill="#999999">2</text></g>
		<g id="id0:id2:id2" transform="matrix(1.0,0,0,1.0,2048,0.0)">			<g stroke="lightgray" stroke-width="4" transform="scale(4, 4)"> <rect x="0" y="0" width="256" height="256" fill="white" stroke-width="4"/></g>
			<g transform="scale(0.92, -0.92) translate(60, -920)">					<path d="M 344 579 L 389 600 L 467 630 Q 476 633 485 642 Q 488 651 480 660 Q 478 665 449.5 687.5 Q 421 710 416 708 Q 411 706 407 700 L 365 658 L 316 620 Q 228 558 184 540 L 165 531 Q 158 529 155.5 526.5 Q 153 524 155 522 Q 157 513 169 516 L 194 521 Q 204 523 238 534 Q 256 538 276 548 L 300 560 L 344 579 Z" fill="black"></path>
				<path d="M 366 382 L 479 400 Q 483 400 486 404 Q 494 412 477 427 Q 453 442 438.5 441.5 Q 424 441 408 436 L 368 428 L 316 416 L 89 367 L 86 364 Q 85 362 85 361 Q 85 348 104 339.5 Q 123 331 135 327 L 160 325 L 308 370 L 366 382 Z" fill="black"></path>
				<path d="M 282 -56 L 281 -58 Q 280 -80 296 -116 Q 311 -151 317 -151 Q 334 -151 345 -120 Q 355 -88 356 -73 Q 357 -57 357 -18 L 357 173 L 359 222 Q 361 269 362 298 L 363 326 L 366 382 L 368 428 L 372 453 Q 372 456 377 494 L 388 535 L 385 547 Q 383 550 373 560 Q 362 568 344 579 C 319 595 294 589 300 560 L 307 526 Q 311 508 313 473 Q 314 438 316 416 L 312 244 L 301 65 Q 299 46 292 7 Q 285 -32 282 -56 Z" fill="red"></path>
				<path d="M 308 370 L 299 342 Q 293 323 260 269 Q 226 214 195 173 Q 163 131 97 70 L 75 49 Q 65 42 67 38 Q 68 33 75 34 L 101 44 Q 118 50 154 73 Q 189 95 220 126 Q 252 153 274 186 L 312 244 C 410 393 317 399 308 370 Z" fill="lightgray"></path>
				<path d="M 362 298 L 377 282 L 399 254 Q 407 242 419 234 Q 434 221 437 222 Q 440 223 442 224 Q 452 225 459 240 Q 466 255 457 278 Q 448 301 409 313 L 363 326 C 334 334 341 320 362 298 Z" fill="lightgray"></path>
				<path d="M 726 603 L 733 614 Q 746 642 725 675 Q 715 691 668 707 Q 643 713 639 717 Q 629 721 622 719 Q 615 717 615 714 Q 612 708 620 698 Q 627 687 635 675 L 656 640 Q 678 607 695 597 C 714 584 714 584 726 603 Z" fill="lightgray"></path>
				<path d="M 695 597 L 486 558 L 484 556 Q 484 544 498 538 L 530 526 Q 545 522 553.5 521 Q 562 520 578 526 L 642 542 Q 685 553 749 562 Q 803 572 872 575 L 914 578 Q 926 580 930 586.5 Q 934 593 906.5 614.5 Q 879 636 857 632 L 813 623 L 726 603 L 695 597 Z" fill="lightgray"></path>
				<path d="M 594 447 L 559 455 Q 552 455 546 457 Q 540 458 535 453 Q 525 443 541 435 Q 556 426 564 394 L 581 323 Q 586 304 593 294 Q 600 283 603 283 Q 605 281 610 285 L 626 296 C 628 297 627 302 625 332 L 618 416 C 616 442 616 442 594 447 Z" fill="lightgray"></path>
				<path d="M 825 349 L 854 392 Q 869 414 874 419 Q 879 423 886 430 Q 890 441 886 448 Q 882 454 865 465 Q 847 476 832 483 Q 816 490 812 490 Q 807 490 789 484 Q 771 478 737 474 L 594 447 C 565 441 588 411 618 416 L 708 431 L 748 436 Q 767 440 780 440 Q 796 440 792 418 L 789 392 L 782 367 Q 781 361 781 360 C 775 331 808 324 825 349 Z" fill="lightgray"></path>
				<path d="M 626 296 L 772 316 Q 808 318 824 319 Q 840 320 842 324 Q 844 328 842 332 Q 842 341 825 349 L 781 360 L 761 358 L 699 345 L 625 332 C 595 327 596 292 626 296 Z" fill="lightgray"></path>
				<path d="M 496 216 L 459 221 Q 450 223 450 221 Q 449 219 445 215 L 445 204 L 462 163 Q 472 141 475 88 L 477 19 L 473 -50 Q 473 -62 475 -67 Q 476 -71 486 -86 Q 495 -101 500 -103 Q 510 -112 514 -111 Q 518 -110 521 -104 Q 524 -98 530 -74 Q 536 -50 536 -47 L 530 45 L 526 126 Q 525 134 525 174 C 525 204 525 212 496 216 Z" fill="lightgray"></path>
				<path d="M 988 244 Q 987 244 964 262 Q 940 280 926 282 L 924 283 Q 917 283 898 276 Q 878 268 862 266 L 520 215 L 496 216 C 466 216 496 167 525 174 L 583 188 Q 613 196 664 202 L 766 216 Q 856 227 901 222 Q 915 218 920 202 Q 924 186 922 132 L 920 92 Q 919 50 913 16 Q 906 -19 898 -31 Q 890 -43 882 -45 Q 874 -46 857 -41 L 826 -34 L 800 -26 Q 794 -25 793 -30 Q 792 -34 795 -37 L 810 -54 Q 828 -76 846 -105 Q 863 -133 868 -139 Q 872 -144 884 -144 Q 901 -148 931 -118 Q 945 -104 957 -71 Q 968 -37 971 -14 Q 973 10 979 81 Q 984 152 988 170 Q 992 187 999 202 Q 1005 217 1005 219 Q 1005 221 988 244 Z" fill="lightgray"></path>
				<path d="M 571 128 Q 570 124 573 121 L 589 109 Q 596 102 601 88 L 621 8 Q 627 -14 636 -16 Q 638 -16 650 -12 L 652 -10 L 660 -1 C 662 1 661 2 657 32 L 647 100 C 643 128 643 128 628 130 L 593 134 Q 588 136 582 134 Q 571 134 571 128 Z" fill="lightgray"></path>
				<path d="M 802 48 L 803 50 L 815 71 Q 827 92 840 99 Q 852 106 854 113 Q 857 123 826 142 Q 820 146 817 148 L 800 159 Q 788 168 770 160 Q 751 152 738 150 L 628 130 C 598 125 617 95 647 100 L 751 116 Q 760 117 765 112 Q 770 106 765 80 Q 759 54 756 54 C 742 27 787 22 802 48 Z" fill="lightgray"></path>
				<path d="M 660 -1 L 812 20 Q 815 20 819 24 L 819 31 Q 819 37 802 48 C 784 60 784 60 756 54 L 657 32 C 628 25 630 -5 660 -1 Z" fill="lightgray"></path>
</g>
		<text x="40" y="140" font-size="128" fill="#999999">3</text></g>
		<g id="id0:id3:id3" transform="matrix(1.0,0,0,1.0,3072,0.0)">			<g stroke="lightgray" stroke-width="4" transform="scale(4, 4)"> <rect x="0" y="0" width="256" height="256" fill="white" stroke-width="4"/></g>
			<g transform="scale(0.92, -0.92) translate(60, -920)">					<path d="M 344 579 L 389 600 L 467 630 Q 476 633 485 642 Q 488 651 480 660 Q 478 665 449.5 687.5 Q 421 710 416 708 Q 411 706 407 700 L 365 658 L 316 620 Q 228 558 184 540 L 165 531 Q 158 529 155.5 526.5 Q 153 524 155 522 Q 157 513 169 516 L 194 521 Q 204 523 238 534 Q 256 538 276 548 L 300 560 L 344 579 Z" fill="black"></path>
				<path d="M 366 382 L 479 400 Q 483 400 486 404 Q 494 412 477 427 Q 453 442 438.5 441.5 Q 424 441 408 436 L 368 428 L 316 416 L 89 367 L 86 364 Q 85 362 85 361 Q 85 348 104 339.5 Q 123 331 135 327 L 160 325 L 308 370 L 366 382 Z" fill="black"></path>
				<path d="M 282 -56 L 281 -58 Q 280 -80 296 -116 Q 311 -151 317 -151 Q 334 -151 345 -120 Q 355 -88 356 -73 Q 357 -57 357 -18 L 357 173 L 359 222 Q 361 269 362 298 L 363 326 L 366 382 L 368 428 L 372 453 Q 372 456 377 494 L 388 535 L 385 547 Q 383 550 373 560 Q 362 568 344 579 C 319 595 294 589 300 560 L 307 526 Q 311 508 313 473 Q 314 438 316 416 L 312 244 L 301 65 Q 299 46 292 7 Q 285 -32 282 -56 Z" fill="black"></path>
				<path d="M 308 370 L 299 342 Q 293 323 260 269 Q 226 214 195 173 Q 163 131 97 70 L 75 49 Q 65 42 67 38 Q 68 33 75 34 L 101 44 Q 118 50 154 73 Q 189 95 220 126 Q 252 153 274 186 L 312 244 C 410 393 317 399 308 370 Z" fill="red"></path>
				<path d="M 362 298 L 377 282 L 399 254 Q 407 242 419 234 Q 434 221 437 222 Q 440 223 442 224 Q 452 225 459 240 Q 466 255 457 278 Q 448 301 409 313 L 363 326 C 334 334 341 320 362 298 Z" fill="lightgray"></path>
				<path d="M 726 603 L 733 614 Q 746 642 725 675 Q 715 691 668 707 Q 643 713 639 717 Q 629 721 622 719 Q 615 717 615 714 Q 612 708 620 698 Q 627 687 635 675 L 656 640 Q 678 607 695 597 C 714 584 714 584 726 603 Z" fill="lightgray"></path>
				<path d="M 695 597 L 486 558 L 484 556 Q 484 544 498 538 L 530 526 Q 545 522 553.5 521 Q 562 520 578 526 L 642 542 Q 685 553 749 562 Q 803 572 872 575 L 914 578 Q 926 580 930 586.5 Q 934 593 906.5 614.5 Q 879 636 857 632 L 813 623 L 726 603 L 695 597 Z" fill="lightgray"></path>
				<path d="M 594 447 L 559 455 Q 552 455 546 457 Q 540 458 535 453 Q 525 443 541 435 Q 556 426 564 394 L 581 323 Q 586 304 593 294 Q 600 283 603 283 Q 605 281 610 285 L 626 296 C 628 297 627 302 625 332 L 618 416 C 616 442 616 442 594 447 Z" fill="lightgray"></path>
				<path d="M 825 349 L 854 392 Q 869 414 874 419 Q 879 423 886 430 Q 890 441 886 448 Q 882 454 865 465 Q 847 476 832 483 Q 816 490 812 490 Q 807 490 789 484 Q 771 478 737 474 L 594 447 C 565 441 588 411 618 416 L 708 431 L 748 436 Q 767 440 780 440 Q 796 440 792 418 L 789 392 L 782 367 Q 781 361 781 360 C 775 331 808 324 825 349 Z" fill="lightgray"></path>
				<path d="M 626 296 L 772 316 Q 808 318 824 319 Q 840 320 842 324 Q 844 328 842 332 Q 842 341 825 349 L 781 360 L 761 358 L 699 345 L 625 332 C 595 327 596 292 626 296 Z" fill="lightgray"></path>
				<path d="M 496 216 L 459 221 Q 450 223 450 221 Q 449 219 445 215 L 445 204 L 462 163 Q 472 141 475 88 L 477 19 L 473 -50 Q 473 -62 475 -67 Q 476 -71 486 -86 Q 495 -101 500 -103 Q 510 -112 514 -111 Q 518 -110 521 -104 Q 524 -98 530 -74 Q 536 -50 536 -47 L 530 45 L 526 126 Q 525 134 525 174 C 525 204 525 212 496 216 Z" fill="lightgray"></path>
				<path d="M 988 244 Q 987 244 964 262 Q 940 280 926 282 L 924 283 Q 917 283 898 276 Q 878 268 862 266 L 520 215 L 496 216 C 466 216 496 167 525 174 L 583 188 Q 613 196 664 202 L 766 216 Q 856 227 901 222 Q 915 218 920 202 Q 924 186 922 132 L 920 92 Q 919 50 913 16 Q 906 -19 898 -31 Q 890 -43 882 -45 Q 874 -46 857 -41 L 826 -34 L 800 -26 Q 794 -25 793 -30 Q 792 -34 795 -37 L 810 -54 Q 828 -76 846 -105 Q 863 -133 868 -139 Q 872 -144 884 -144 Q 901 -148 931 -118 Q 945 -104 957 -71 Q 968 -37 971 -14 Q 973 10 979 81 Q 984 152 988 170 Q 992 187 999 202 Q 1005 217 1005 219 Q 1005 221 988 244 Z" fill="lightgray"></path>
				<path d="M 571 128 Q 570 124 573 121 L 589 109 Q 596 102 601 88 L 621 8 Q 627 -14 636 -16 Q 638 -16 650 -12 L 652 -10 L 660 -1 C 662 1 661 2 657 32 L 647 100 C 643 128 643 128 628 130 L 593 134 Q 588 136 582 134 Q 571 134 571 128 Z" fill="lightgray"></path>
				<path d="M 802 48 L 803 50 L 815 71 Q 827 92 840 99 Q 852 106 854 113 Q 857 123 826 142 Q 820 146 817 148 L 800 159 Q 788 168 770 160 Q 751 152 738 150 L 628 130 C 598 125 617 95 647 100 L 751 116 Q 760 117 765 112 Q 770 106 765 80 Q 759 54 756 54 C 742 27 787 22 802 48 Z" fill="lightgray"></path>
				<path d="M 660 -1 L 812 20 Q 815 20 819 24 L 819 31 Q 819 37 802 48 C 784 60 784 60 756 54 L 657 32 C 628 25 630 -5 660 -1 Z" fill="lightgray"></path>
</g>
		<text x="40" y="140" font-size="128" fill="#999999">4</text></g>
		<g id="id0:id4:id4" transform="matrix(1.0,0,0,1.0,4096,0.0)">			<g stroke="lightgray" stroke-width="4" transform="scale(4, 4)"> <rect x="0" y="0" width="256" height="256" fill="white" stroke-width="4"/></g>
			<g transform="scale(0.92, -0.92) translate(60, -920)">					<path d="M 344 579 L 389 600 L 467 630 Q 476 633 485 642 Q 488 651 480 660 Q 478 665 449.5 687.5 Q 421 710 416 708 Q 411 706 407 700 L 365 658 L 316 620 Q 228 558 184 540 L 165 531 Q 158 529 155.5 526.5 Q 153 524 155 522 Q 157 513 169 516 L 194 521 Q 204 523 238 534 Q 256 538 276 548 L 300 560 L 344 579 Z" fill="black"></path>
				<path d="M 366 382 L 479 400 Q 483 400 486 404 Q 494 412 477 427 Q 453 442 438.5 441.5 Q 424 441 408 436 L 368 428 L 316 416 L 89 367 L 86 364 Q 85 362 85 361 Q 85 348 104 339.5 Q 123 331 135 327 L 160 325 L 308 370 L 366 382 Z" fill="black"></path>
				<path d="M 282 -56 L 281 -58 Q 280 -80 296 -116 Q 311 -151 317 -151 Q 334 -151 345 -120 Q 355 -88 356 -73 Q 357 -57 357 -18 L 357 173 L 359 222 Q 361 269 362 298 L 363 326 L 366 382 L 368 428 L 372 453 Q 372 456 377 494 L 388 535 L 385 547 Q 383 550 373 560 Q 362 568 344 579 C 319 595 294 589 300 560 L 307 526 Q 311 508 313 473 Q 314 438 316 416 L 312 244 L 301 65 Q 299 46 292 7 Q 285 -32 282 -56 Z" fill="black"></path>
				<path d="M 308 370 L 299 342 Q 293 323 260 269 Q 226 214 195 173 Q 163 131 97 70 L 75 49 Q 65 42 67 38 Q 68 33 75 34 L 101 44 Q 118 50 154 73 Q 189 95 220 126 Q 252 153 274 186 L 312 244 C 410 393 317 399 308 370 Z" fill="black"></path>
				<path d="M 362 298 L 377 282 L 399 254 Q 407 242 419 234 Q 434 221 437 222 Q 440 223 442 224 Q 452 225 459 240 Q 466 255 457 278 Q 448 301 409 313 L 363 326 C 334 334 341 320 362 298 Z" fill="red"></path>
				<path d="M 726 603 L 733 614 Q 746 642 725 675 Q 715 691 668 707 Q 643 713 639 717 Q 629 721 622 719 Q 615 717 615 714 Q 612 708 620 698 Q 627 687 635 675 L 656 640 Q 678 607 695 597 C 714 584 714 584 726 603 Z" fill="lightgray"></path>
				<path d="M 695 597 L 486 558 L 484 556 Q 484 544 498 538 L 530 526 Q 545 522 553.5 521 Q 562 520 578 526 L 642 542 Q 685 553 749 562 Q 803 572 872 575 L 914 578 Q 926 580 930 586.5 Q 934 593 906.5 614.5 Q 879 636 857 632 L 813 623 L 726 603 L 695 597 Z" fill="lightgray"></path>
				<path d="M 594 447 L 559 455 Q 552 455 546 457 Q 540 458 535 453 Q 525 443 541 435 Q 556 426 564 394 L 581 323 Q 586 304 593 294 Q 600 283 603 283 Q 605 281 610 285 L 626 296 C 628 297 627 302 625 332 L 618 416 C 616 442 616 442 594 447 Z" fill="lightgray"></path>
				<path d="M 825 349 L 854 392 Q 869 414 874 419 Q 879 423 886 430 Q 890 441 886 448 Q 882 454 865 465 Q 847 476 832 483 Q 816 490 812 490 Q 807 490 789 484 Q 771 478 737 474 L 594 447 C 565 441 588 411 618 416 L 708 431 L 748 436 Q 767 440 780 440 Q 796 440 792 418 L 789 392 L 782 367 Q 781 361 781 360 C 775 331 808 324 825 349 Z" fill="lightgray"></path>
				<path d="M 626 296 L 772 316 Q 808 318 824 319 Q 840 320 842 324 Q 844 328 842 332 Q 842 341 825 349 L 781 360 L 761 358 L 699 345 L 625 332 C 595 327 596 292 626 296 Z" fill="lightgray"></path>
				<path d="M 496 216 L 459 221 Q 450 223 450 221 Q 449 219 445 215 L 445 204 L 462 163 Q 472 141 475 88 L 477 19 L 473 -50 Q 473 -62 475 -67 Q 476 -71 486 -86 Q 495 -101 500 -103 Q 510 -112 514 -111 Q 518 -110 521 -104 Q 524 -98 530 -74 Q 536 -50 536 -47 L 530 45 L 526 126 Q 525 134 525 174 C 525 204 525 212 496 216 Z" fill="lightgray"></path>
				<path d="M 988 244 Q 987 244 964 262 Q 940 280 926 282 L 924 283 Q 917 283 898 276 Q 878 268 862 266 L 520 215 L 496 216 C 466 216 496 167 525 174 L 583 188 Q 613 196 664 202 L 766 216 Q 856 227 901 222 Q 915 218 920 202 Q 924 186 922 132 L 920 92 Q 919 50 913 16 Q 906 -19 898 -31 Q 890 -43 882 -45 Q 874 -46 857 -41 L 826 -34 L 800 -26 Q 794 -25 793 -30 Q 792 -34 795 -37 L 810 -54 Q 828 -76 846 -105 Q 863 -133 868 -139 Q 872 -144 884 -144 Q 901 -148 931 -118 Q 945 -104 957 -71 Q 968 -37 971 -14 Q 973 10 979 81 Q 984 152 988 170 Q 992 187 999 202 Q 1005 217 1005 219 Q 1005 221 988 244 Z" fill="lightgray"></path>
				<path d="M 571 128 Q 570 124 573 121 L 589 109 Q 596 102 601 88 L 621 8 Q 627 -14 636 -16 Q 638 -16 650 -12 L 652 -10 L 660 -1 C 662 1 661 2 657 32 L 647 100 C 643 128 643 128 628 130 L 593 134 Q 588 136 582 134 Q 571 134 571 128 Z" fill="lightgray"></path>
				<path d="M 802 48 L 803 50 L 815 71 Q 827 92 840 99 Q 852 106 854 113 Q 857 123 826 142 Q 820 146 817 148 L 800 159 Q 788 168 770 160 Q 751 152 738 150 L 628 130 C 598 125 617 95 647 100 L 751 116 Q 760 117 765 112 Q 770 106 765 80 Q 759 54 756 54 C 742 27 787 22 802 48 Z" fill="lightgray"></path>
				<path d="M 660 -1 L 812 20 Q 815 20 819 24 L 819 31 Q 819 37 802 48 C 784 60 784 60 756 54 L 657 32 C 628 25 630 -5 660 -1 Z" fill="lightgray"></path>
</g>
		<text x="40" y="140" font-size="128" fill="#999999">5</text></g>
</g>
	<g id="id1:id1" transform="translate(0.0,1024)">
		<g id="id1:id0:id0" transform="matrix(1.0,0,0,1.0,0,0.0)">			<g stroke="lightgray" stroke-width="4" transform="scale(4, 4)"> <rect x="0" y="0" width="256" height="256" fill="white" stroke-width="4"/></g>
			<g transform="scale(0.92, -0.92) translate(60, -920)">					<path d="M 344 579 L 389 600 L 467 630 Q 476 633 485 642 Q 488 651 480 660 Q 478 665 449.5 687.5 Q 421 710 416 708 Q 411 706 407 700 L 365 658 L 316 620 Q 228 558 184 540 L 165 531 Q 158 529 155.5 526.5 Q 153 524 155 522 Q 157 513 169 516 L 194 521 Q 204 523 238 534 Q 256 538 276 548 L 300 560 L 344 579 Z" fill="black"></path>
				<path d="M 366 382 L 479 400 Q 483 400 486 404 Q 494 412 477 427 Q 453 442 438.5 441.5 Q 424 441 408 436 L 368 428 L 316 416 L 89 367 L 86 364 Q 85 362 85 361 Q 85 348 104 339.5 Q 123 331 135 327 L 160 325 L 308 370 L 366 382 Z" fill="black"></path>
				<path d="M 282 -56 L 281 -58 Q 280 -80 296 -116 Q 311 -151 317 -151 Q 334 -151 345 -120 Q 355 -88 356 -73 Q 357 -57 357 -18 L 357 173 L 359 222 Q 361 269 362 298 L 363 326 L 366 382 L 368 428 L 372 453 Q 372 456 377 494 L 388 535 L 385 547 Q 383 550 373 560 Q 362 568 344 579 C 319 595 294 589 300 560 L 307 526 Q 311 508 313 473 Q 314 438 316 416 L 312 244 L 301 65 Q 299 46 292 7 Q 285 -32 282 -56 Z" fill="black"></path>
				<path d="M 308 370 L 299 342 Q 293 323 260 269 Q 226 214 195 173 Q 163 131 97 70 L 75 49 Q 65 42 67 38 Q 68 33 75 34 L 101 44 Q 118 50 154 73 Q 189 95 220 126 Q 252 153 274 186 L 312 244 C 410 393 317 399 308 370 Z" fill="black"></path>
				<path d="M 362 298 L 377 282 L 399 254 Q 407 242 419 234 Q 434 221 437 222 Q 440 223 442 224 Q 452 225 459 240 Q 466 255 457 278 Q 448 301 409 313 L 363 326 C 334 334 341 320 362 298 Z" fill="black"></path>
				<path d="M 726 603 L 733 614 Q 746 642 725 675 Q 715 691 668 707 Q 643 713 639 717 Q 629 721 622 719 Q 615 717 615 714 Q 612 708 620 698 Q 627 687 635 675 L 656 640 Q 678 607 695 597 C 714 584 714 584 726 603 Z" fill="red"></path>
				<path d="M 695 597 L 486 558 L 484 556 Q 484 544 498 538 L 530 526 Q 545 522 553.5 521 Q 562 520 578 526 L 642 542 Q 685 553 749 562 Q 803 572 872 575 L 914 578 Q 926 580 930 586.5 Q 934 593 906.5 614.5 Q 879 636 857 632 L 813 623 L 726 603 L 695 597 Z" fill="lightgray"></path>
				<path d="M 594 447 L 559 455 Q 552 455 546 457 Q 540 458 535 453 Q 525 443 541 435 Q 556 426 564 394 L 581 323 Q 586 304 593 294 Q 600 283 603 283 Q 605 281 610 285 L 626 296 C 628 297 627 302 625 332 L 618 416 C 616 442 616 442 594 447 Z" fill="lightgray"></path>
				<path d="M 825 349 L 854 392 Q 869 414 874 419 Q 879 423 886 430 Q 890 441 886 448 Q 882 454 865 465 Q 847 476 832 483 Q 816 490 812 490 Q 807 490 789 484 Q 771 478 737 474 L 594 447 C 565 441 588 411 618 416 L 708 431 L 748 436 Q 767 440 780 440 Q 796 440 792 418 L 789 392 L 782 367 Q 781 361 781 360 C 775 331 808 324 825 349 Z" fill="lightgray"></path>
				<path d="M 626 296 L 772 316 Q 808 318 824 319 Q 840 320 842 324 Q 844 328 842 332 Q 842 341 825 349 L 781 360 L 761 358 L 699 345 L 625 332 C 595 327 596 292 626 296 Z" fill="lightgray"></path>
				<path d="M 496 216 L 459 221 Q 450 223 450 221 Q 449 219 445 215 L 445 204 L 462 163 Q 472 141 475 88 L 477 19 L 473 -50 Q 473 -62 475 -67 Q 476 -71 486 -86 Q 495 -101 500 -103 Q 510 -112 514 -111 Q 518 -110 521 -104 Q 524 -98 530 -74 Q 536 -50 536 -47 L 530 45 L 526 126 Q 525 134 525 174 C 525 204 525 212 496 216 Z" fill="lightgray"></path>
				<path d="M 988 244 Q 987 244 964 262 Q 940 280 926 282 L 924 283 Q 917 283 898 276 Q 878 268 862 266 L 520 215 L 496 216 C 466 216 496 167 525 174 L 583 188 Q 613 196 664 202 L 766 216 Q 856 227 901 222 Q 915 218 920 202 Q 924 186 922 132 L 920 92 Q 919 50 913 16 Q 906 -19 898 -31 Q 890 -43 882 -45 Q 874 -46 857 -41 L 826 -34 L 800 -26 Q 794 -25 793 -30 Q 792 -34 795 -37 L 810 -54 Q 828 -76 846 -105 Q 863 -133 868 -139 Q 872 -144 884 -144 Q 901 -148 931 -118 Q 945 -104 957 -71 Q 968 -37 971 -14 Q 973 10 979 81 Q 984 152 988 170 Q 992 187 999 202 Q 1005 217 1005 219 Q 1005 221 988 244 Z" fill="lightgray"></path>
				<path d="M 571 128 Q 570 124 573 121 L 589 109 Q 596 102 601 88 L 621 8 Q 627 -14 636 -16 Q 638 -16 650 -12 L 652 -10 L 660 -1 C 662 1 661 2 657 32 L 647 100 C 643 128 643 128 628 130 L 593 134 Q 588 136 582 134 Q 571 134 571 128 Z" fill="lightgray"></path>
				<path d="M 802 48 L 803 50 L 815 71 Q 827 92 840 99 Q 852 106 854 113 Q 857 123 826 142 Q 820 146 817 148 L 800 159 Q 788 168 770 160 Q 751 152 738 150 L 628 130 C 598 125 617 95 647 100 L 751 116 Q 760 117 765 112 Q 770 106 765 80 Q 759 54 756 54 C 742 27 787 22 802 48 Z" fill="lightgray"></path>
				<path d="M 660 -1 L 812 20 Q 815 20 819 24 L 819 31 Q 819 37 802 48 C 784 60 784 60 756 54 L 657 32 C 628 25 630 -5 660 -1 Z" fill="lightgray"></path>
</g>
		<text x="40" y="140" font-size="128" fill="#999999">6</text></g>
		<g id="id1:id1:id1" transform="matrix(1.0,0,0,1.0,1024,0.0)">			<g stroke="lightgray" stroke-width="4" transform="scale(4, 4)"> <rect x="0" y="0" width="256" height="256" fill="white" stroke-width="4"/></g>
			<g transform="scale(0.92, -0.92) translate(60, -920)">					<path d="M 344 579 L 389 600 L 467 630 Q 476 633 485 642 Q 488 651 480 660 Q 478 665 449.5 687.5 Q 421 710 416 708 Q 411 706 407 700 L 365 658 L 316 620 Q 228 558 184 540 L 165 531 Q 158 529 155.5 526.5 Q 153 524 155 522 Q 157 513 169 516 L 194 521 Q 204 523 238 534 Q 256 538 276 548 L 300 560 L 344 579 Z" fill="black"></path>
				<path d="M 366 382 L 479 400 Q 483 400 486 404 Q 494 412 477 427 Q 453 442 438.5 441.5 Q 424 441 408 436 L 368 428 L 316 416 L 89 367 L 86 364 Q 85 362 85 361 Q 85 348 104 339.5 Q 123 331 135 327 L 160 325 L 308 370 L 366 382 Z" fill="black"></path>
				<path d="M 282 -56 L 281 -58 Q 280 -80 296 -116 Q 311 -151 317 -151 Q 334 -151 345 -120 Q 355 -88 356 -73 Q 357 -57 357 -18 L 357 173 L 359 222 Q 361 269 362 298 L 363 326 L 366 382 L 368 428 L 372 453 Q 372 456 377 494 L 388 535 L 385 547 Q 383 550 373 560 Q 362 568 344 579 C 319 595 294 589 300 560 L 307 526 Q 311 508 313 473 Q 314 438 316 416 L 312 244 L 301 65 Q 299 46 292 7 Q 285 -32 282 -56 Z" fill="black"></path>
				<path d="M 308 370 L 299 342 Q 293 323 260 269 Q 226 214 195 173 Q 163 131 97 70 L 75 49 Q 65 42 67 38 Q 68 33 75 34 L 101 44 Q 118 50 154 73 Q 189 95 220 126 Q 252 153 274 186 L 312 244 C 410 393 317 399 308 370 Z" fill="black"></path>
				<path d="M 362 298 L 377 282 L 399 254 Q 407 242 419 234 Q 434 221 437 222 Q 440 223 442 224 Q 452 225 459 240 Q 466 255 457 278 Q 448 301 409 313 L 363 326 C 334 334 341 320 362 298 Z" fill="black"></path>
				<path d="M 726 603 L 733 614 Q 746 642 725 675 Q 715 691 668 707 Q 643 713 639 717 Q 629 721 622 719 Q 615 717 615 714 Q 612 708 620 698 Q 627 687 635 675 L 656 640 Q 678 607 695 597 C 714 584 714 584 726 603 Z" fill="black"></path>
				<path d="M 695 597 L 486 558 L 484 556 Q 484 544 498 538 L 530 526 Q 545 522 553.5 521 Q 562 520 578 526 L 642 542 Q 685 553 749 562 Q 803 572 872 575 L 914 578 Q 926 580 930 586.5 Q 934 593 906.5 614.5 Q 879 636 857 632 L 813 623 L 726 603 L 695 597 Z" fill="red"></path>
				<path d="M 594 447 L 559 455 Q 552 455 546 457 Q 540 458 535 453 Q 525 443 541 435 Q 556 426 564 394 L 581 323 Q 586 304 593 294 Q 600 283 603 283 Q 605 281 610 285 L 626 296 C 628 297 627 302 625 332 L 618 416 C 616 442 616 442 594 447 Z" fill="lightgray"></path>
				<path d="M 825 349 L 854 392 Q 869 414 874 419 Q 879 423 886 430 Q 890 441 886 448 Q 882 454 865 465 Q 847 476 832 483 Q 816 490 812 490 Q 807 490 789 484 Q 771 478 737 474 L 594 447 C 565 441 588 411 618 416 L 708 431 L 748 436 Q 767 440 780 440 Q 796 440 792 418 L 789 392 L 782 367 Q 781 361 781 360 C 775 331 808 324 825 349 Z" fill="lightgray"></path>
				<path d="M 626 296 L 772 316 Q 808 318 824 319 Q 840 320 842 324 Q 844 328 842 332 Q 842 341 825 349 L 781 360 L 761 358 L 699 345 L 625 332 C 595 327 596 292 626 296 Z" fill="lightgray"></path>
				<path d="M 496 216 L 459 221 Q 450 223 450 221 Q 449 219 445 215 L 445 204 L 462 163 Q 472 141 475 88 L 477 19 L 473 -50 Q 473 -62 475 -67 Q 476 -71 486 -86 Q 495 -101 500 -103 Q 510 -112 514 -111 Q 518 -110 521 -104 Q 524 -98 530 -74 Q 536 -50 536 -47 L 530 45 L 526 126 Q 525 134 525 174 C 525 204 525 212 496 216 Z" fill="lightgray"></path>
				<path d="M 988 244 Q 987 244 964 262 Q 940 280 926 282 L 924 283 Q 917 283 898 276 Q 878 268 862 266 L 520 215 L 496 216 C 466 216 496 167 525 174 L 583 188 Q 613 196 664 202 L 766 216 Q 856 227 901 222 Q 915 218 920 202 Q 924 186 922 132 L 920 92 Q 919 50 913 16 Q 906 -19 898 -31 Q 890 -43 882 -45 Q 874 -46 857 -41 L 826 -34 L 800 -26 Q 794 -25 793 -30 Q 792 -34 795 -37 L 810 -54 Q 828 -76 846 -105 Q 863 -133 868 -139 Q 872 -144 884 -144 Q 901 -148 931 -118 Q 945 -104 957 -71 Q 968 -37 971 -14 Q 973 10 979 81 Q 984 152 988 170 Q 992 187 999 202 Q 1005 217 1005 219 Q 1005 221 988 244 Z" fill="lightgray"></path>
				<path d="M 571 128 Q 570 124 573 121 L 589 109 Q 596 102 601 88 L 621 8 Q 627 -14 636 -16 Q 638 -16 650 -12 L 652 -10 L 660 -1 C 662 1 661 2 657 32 L 647 100 C 643 128 643 128 628 130 L 593 134 Q 588 136 582 134 Q 571 134 571 128 Z" fill="lightgray"></path>
				<path d="M 802 48 L 803 50 L 815 71 Q 827 92 840 99 Q 852 106 854 113 Q 857 123 826 142 Q 820 146 817 148 L 800 159 Q 788 168 770 160 Q 751 152 738 150 L 628 130 C 598 125 617 95 647 100 L 751 116 Q 760 117 765 112 Q 770 106 765 80 Q 759 54 756 54 C 742 27 787 22 802 48 Z" fill="lightgray"></path>
				<path d="M 660 -1 L 812 20 Q 815 20 819 24 L 819 31 Q 819 37 802 48 C 784 60 784 60 756 54 L 657 32 C 628 25 630 -5 660 -1 Z" fill="lightgray"></path>
</g>
		<text x="40" y="140" font-size="128" fill="#999999">7</text></g>
		<g id="id1:id2:id2" transform="matrix(1.0,0,0,1.0,2048,0.0)">			<g stroke="lightgray" stroke-width="4" transform="scale(4, 4)"> <rect x="0" y="0" width="256" height="256" fill="white" stroke-width="4"/></g>
			<g transform="scale(0.92, -0.92) translate(60, -920)">					<path d="M 344 579 L 389 600 L 467 630 Q 476 633 485 642 Q 488 651 480 660 Q 478 665 449.5 687.5 Q 421 710 416 708 Q 411 706 407 700 L 365 658 L 316 620 Q 228 558 184 540 L 165 531 Q 158 529 155.5 526.5 Q 153 524 155 522 Q 157 513 169 516 L 194 521 Q 204 523 238 534 Q 256 538 276 548 L 300 560 L 344 579 Z" fill="black"></path>
				<path d="M 366 382 L 479 400 Q 483 400 486 404 Q 494 412 477 427 Q 453 442 438.5 441.5 Q 424 441 408 436 L 368 428 L 316 416 L 89 367 L 86 364 Q 85 362 85 361 Q 85 348 104 339.5 Q 123 331 135 327 L 160 325 L 308 370 L 366 382 Z" fill="black"></path>
				<path d="M 282 -56 L 281 -58 Q 280 -80 296 -116 Q 311 -151 317 -151 Q 334 -151 345 -120 Q 355 -88 356 -73 Q 357 -57 357 -18 L 357 173 L 359 222 Q 361 269 362 298 L 363 326 L 366 382 L 368 428 L 372 453 Q 372 456 377 494 L 388 535 L 385 547 Q 383 550 373 560 Q 362 568 344 579 C 319 595 294 589 300 560 L 307 526 Q 311 508 313 473 Q 314 438 316 416 L 312 244 L 301 65 Q 299 46 292 7 Q 285 -32 282 -56 Z" fill="black"></path>
				<path d="M 308 370 L 299 342 Q 293 323 260 269 Q 226 214 195 173 Q 163 131 97 70 L 75 49 Q 65 42 67 38 Q 68 33 75 34 L 101 44 Q 118 50 154 73 Q 189 95 220 126 Q 252 153 274 186 L 312 244 C 410 393 317 399 308 370 Z" fill="black"></path>
				<path d="M 362 298 L 377 282 L 399 254 Q 407 242 419 234 Q 434 221 437 222 Q 440 223 442 224 Q 452 225 459 240 Q 466 255 457 278 Q 448 301 409 313 L 363 326 C 334 334 341 320 362 298 Z" fill="black"></path>
				<path d="M 726 603 L 733 614 Q 746 642 725 675 Q 715 691 668 707 Q 643 713 639 717 Q 629 721 622 719 Q 615 717 615 714 Q 612 708 620 698 Q 627 687 635 675 L 656 640 Q 678 607 695 597 C 714 584 714 584 726 603 Z" fill="black"></path>
				<path d="M 695 597 L 486 558 L 484 556 Q 484 544 498 538 L 530 526 Q 545 522 553.5 521 Q 562 520 578 526 L 642 542 Q 685 553 749 562 Q 803 572 872 575 L 914 578 Q 926 580 930 586.5 Q 934 593 906.5 614.5 Q 879 636 857 632 L 813 623 L 726 603 L 695 597 Z" fill="black"></path>
				<path d="M 594 447 L 559 455 Q 552 455 546 457 Q 540 458 535 453 Q 525 443 541 435 Q 556 426 564 394 L 581 323 Q 586 304 593 294 Q 600 283 603 283 Q 605 281 610 285 L 626 296 C 628 297 627 302 625 332 L 618 416 C 616 442 616 442 594 447 Z" fill="red"></path>
				<path d="M 825 349 L 854 392 Q 869 414 874 419 Q 879 423 886 430 Q 890 441 886 448 Q 882 454 865 465 Q 847 476 832 483 Q 816 490 812 490 Q 807 490 789 484 Q 771 478 737 474 L 594 447 C 565 441 588 411 618 416 L 708 431 L 748 436 Q 767 440 780 440 Q 796 440 792 418 L 789 392 L 782 367 Q 781 361 781 360 C 775 331 808 324 825 349 Z" fill="lightgray"></path>
				<path d="M 626 296 L 772 316 Q 808 318 824 319 Q 840 320 842 324 Q 844 328 842 332 Q 842 341 825 349 L 781 360 L 761 358 L 699 345 L 625 332 C 595 327 596 292 626 296 Z" fill="lightgray"></path>
				<path d="M 496 216 L 459 221 Q 450 223 450 221 Q 449 219 445 215 L 445 204 L 462 163 Q 472 141 475 88 L 477 19 L 473 -50 Q 473 -62 475 -67 Q 476 -71 486 -86 Q 495 -101 500 -103 Q 510 -112 514 -111 Q 518 -110 521 -104 Q 524 -98 530 -74 Q 536 -50 536 -47 L 530 45 L 526 126 Q 525 134 525 174 C 525 204 525 212 496 216 Z" fill="lightgray"></path>
				<path d="M 988 244 Q 987 244 964 262 Q 940 280 926 282 L 924 283 Q 917 283 898 276 Q 878 268 862 266 L 520 215 L 496 216 C 466 216 496 167 525 174 L 583 188 Q 613 196 664 202 L 766 216 Q 856 227 901 222 Q 915 218 920 202 Q 924 186 922 132 L 920 92 Q 919 50 913 16 Q 906 -19 898 -31 Q 890 -43 882 -45 Q 874 -46 857 -41 L 826 -34 L 800 -26 Q 794 -25 793 -30 Q 792 -34 795 -37 L 810 -54 Q 828 -76 846 -105 Q 863 -133 868 -139 Q 872 -144 884 -144 Q 901 -148 931 -118 Q 945 -104 957 -71 Q 968 -37 971 -14 Q 973 10 979 81 Q 984 152 988 170 Q 992 187 999 202 Q 1005 217 1005 219 Q 1005 221 988 244 Z" fill="lightgray"></path>
				<path d="M 571 128 Q 570 124 573 121 L 589 109 Q 596 102 601 88 L 621 8 Q 627 -14 636 -16 Q 638 -16 650 -12 L 652 -10 L 660 -1 C 662 1 661 2 657 32 L 647 100 C 643 128 643 128 628 130 L 593 134 Q 588 136 582 134 Q 571 134 571 128 Z" fill="lightgray"></path>
				<path d="M 802 48 L 803 50 L 815 71 Q 827 92 840 99 Q 852 106 854 113 Q 857 123 826 142 Q 820 146 817 148 L 800 159 Q 788 168 770 160 Q 751 152 738 150 L 628 130 C 598 125 617 95 647 100 L 751 116 Q 760 117 765 112 Q 770 106 765 80 Q 759 54 756 54 C 742 27 787 22 802 48 Z" fill="lightgray"></path>
				<path d="M 660 -1 L 812 20 Q 815 20 819 24 L 819 31 Q 819 37 802 48 C 784 60 784 60 756 54 L 657 32 C 628 25 630 -5 660 -1 Z" fill="lightgray"></path>
</g>
		<text x="40" y="140" font-size="128" fill="#999999">8</text></g>
		<g id="id1:id3:id3" transform="matrix(1.0,0,0,1.0,3072,0.0)">			<g stroke="lightgray" stroke-width="4" transform="scale(4, 4)"> <rect x="0" y="0" width="256" height="256" fill="white" stroke-width="4"/></g>
			<g transform="scale(0.92, -0.92) translate(60, -920)">					<path d="M 344 579 L 389 600 L 467 630 Q 476 633 485 642 Q 488 651 480 660 Q 478 665 449.5 687.5 Q 421 710 416 708 Q 411 706 407 700 L 365 658 L 316 620 Q 228 558 184 540 L 165 531 Q 158 529 155.5 526.5 Q 153 524 155 522 Q 157 513 169 516 L 194 521 Q 204 523 238 534 Q 256 538 276 548 L 300 560 L 344 579 Z" fill="black"></path>
				<path d="M 366 382 L 479 400 Q 483 400 486 404 Q 494 412 477 427 Q 453 442 438.5 441.5 Q 424 441 408 436 L 368 428 L 316 416 L 89 367 L 86 364 Q 85 362 85 361 Q 85 348 104 339.5 Q 123 331 135 327 L 160 325 L 308 370 L 366 382 Z" fill="black"></path>
				<path d="M 282 -56 L 281 -58 Q 280 -80 296 -116 Q 311 -151 317 -151 Q 334 -151 345 -120 Q 355 -88 356 -73 Q 357 -57 357 -18 L 357 173 L 359 222 Q 361 269 362 298 L 363 326 L 366 382 L 368 428 L 372 453 Q 372 456 377 494 L 388 535 L 385 547 Q 383 550 373 560 Q 362 568 344 579 C 319 595 294 589 300 560 L 307 526 Q 311 508 313 473 Q 314 438 316 416 L 312 244 L 301 65 Q 299 46 292 7 Q 285 -32 282 -56 Z" fill="black"></path>
				<path d="M 308 370 L 299 342 Q 293 323 260 269 Q 226 214 195 173 Q 163 131 97 70 L 75 49 Q 65 42 67 38 Q 68 33 75 34 L 101 44 Q 118 50 154 73 Q 189 95 220 126 Q 252 153 274 186 L 312 244 C 410 393 317 399 308 370 Z" fill="black"></path>
				<path d="M 362 298 L 377 282 L 399 254 Q 407 242 419 234 Q 434 221 437 222 Q 440 223 442 224 Q 452 225 459 240 Q 466 255 457 278 Q 448 301 409 313 L 363 326 C 334 334 341 320 362 298 Z" fill="black"></path>
				<path d="M 726 603 L 733 614 Q 746 642 725 675 Q 715 691 668 707 Q 643 713 639 717 Q 629 721 622 719 Q 615 717 615 714 Q 612 708 620 698 Q 627 687 635 675 L 656 640 Q 678 607 695 597 C 714 584 714 584 726 603 Z" fill="black"></path>
				<path d="M 695 597 L 486 558 L 484 556 Q 484 544 498 538 L 530 526 Q 545 522 553.5 521 Q 562 520 578 526 L 642 542 Q 685 553 749 562 Q 803 572 872 575 L 914 578 Q 926 580 930 586.5 Q 934 593 906.5 614.5 Q 879 636 857 632 L 813 623 L 726 603 L 695 597 Z" fill="black"></path>
				<path d="M 594 447 L 559 455 Q 552 455 546 457 Q 540 458 535 453 Q 525 443 541 435 Q 556 426 564 394 L 581 323 Q 586 304 593 294 Q 600 283 603 283 Q 605 281 610 285 L 626 296 C 628 297 627 302 625 332 L 618 416 C 616 442 616 442 594 447 Z" fill="black"></path>
				<path d="M 825 349 L 854 392 Q 869 414 874 419 Q 879 423 886 430 Q 890 441 886 448 Q 882 454 865 465 Q 847 476 832 483 Q 816 490 812 490 Q 807 490 789 484 Q 771 478 737 474 L 594 447 C 565 441 588 411 618 416 L 708 431 L 748 436 Q 767 440 780 440 Q 796 440 792 418 L 789 392 L 782 367 Q 781 361 781 360 C 775 331 808 324 825 349 Z" fill="red"></path>
				<path d="M 626 296 L 772 316 Q 808 318 824 319 Q 840 320 842 324 Q 844 328 842 332 Q 842 341 825 349 L 781 360 L 761 358 L 699 345 L 625 332 C 595 327 596 292 626 296 Z" fill="lightgray"></path>
				<path d="M 496 216 L 459 221 Q 450 223 450 221 Q 449 219 445 215 L 445 204 L 462 163 Q 472 141 475 88 L 477 19 L 473 -50 Q 473 -62 475 -67 Q 476 -71 486 -86 Q 495 -101 500 -103 Q 510 -112 514 -111 Q 518 -110 521 -104 Q 524 -98 530 -74 Q 536 -50 536 -47 L 530 45 L 526 126 Q 525 134 525 174 C 525 204 525 212 496 216 Z" fill="lightgray"></path>
				<path d="M 988 244 Q 987 244 964 262 Q 940 280 926 282 L 924 283 Q 917 283 898 276 Q 878 268 862 266 L 520 215 L 496 216 C 466 216 496 167 525 174 L 583 188 Q 613 196 664 202 L 766 216 Q 856 227 901 222 Q 915 218 920 202 Q 924 186 922 132 L 920 92 Q 919 50 913 16 Q 906 -19 898 -31 Q 890 -43 882 -45 Q 874 -46 857 -41 L 826 -34 L 800 -26 Q 794 -25 793 -30 Q 792 -34 795 -37 L 810 -54 Q 828 -76 846 -105 Q 863 -133 868 -139 Q 872 -144 884 -144 Q 901 -148 931 -118 Q 945 -104 957 -71 Q 968 -37 971 -14 Q 973 10 979 81 Q 984 152 988 170 Q 992 187 999 202 Q 1005 217 1005 219 Q 1005 221 988 244 Z" fill="lightgray"></path>
				<path d="M 571 128 Q 570 124 573 121 L 589 109 Q 596 102 601 88 L 621 8 Q 627 -14 636 -16 Q 638 -16 650 -12 L 652 -10 L 660 -1 C 662 1 661 2 657 32 L 647 100 C 643 128 643 128 628 130 L 593 134 Q 588 136 582 134 Q 571 134 571 128 Z" fill="lightgray"></path>
				<path d="M 802 48 L 803 50 L 815 71 Q 827 92 840 99 Q 852 106 854 113 Q 857 123 826 142 Q 820 146 817 148 L 800 159 Q 788 168 770 160 Q 751 152 738 150 L 628 130 C 598 125 617 95 647 100 L 751 116 Q 760 117 765 112 Q 770 106 765 80 Q 759 54 756 54 C 742 27 787 22 802 48 Z" fill="lightgray"></path>
				<path d="M 660 -1 L 812 20 Q 815 20 819 24 L 819 31 Q 819 37 802 48 C 784 60 784 60 756 54 L 657 32 C 628 25 630 -5 660 -1 Z" fill="lightgray"></path>
</g>
		<text x="40" y="140" font-size="128" fill="#999999">9</text></g>
		<g id="id1:id4:id4" transform="matrix(1.0,0,0,1.0,4096,0.0)">			<g stroke="lightgray" stroke-width="4" transform="scale(4, 4)"> <rect x="0" y="0" width="256" height="256" fill="white" stroke-width="4"/></g>
			<g transform="scale(0.92, -0.92) translate(60, -920)">					<path d="M 344 579 L 389 600 L 467 630 Q 476 633 485 642 Q 488 651 480 660 Q 478 665 449.5 687.5 Q 421 710 416 708 Q 411 706 407 700 L 365 658 L 316 620 Q 228 558 184 540 L 165 531 Q 158 529 155.5 526.5 Q 153 524 155 522 Q 157 513 169 516 L 194 521 Q 204 523 238 534 Q 256 538 276 548 L 300 560 L 344 579 Z" fill="black"></path>
				<path d="M 366 382 L 479 400 Q 483 400 486 404 Q 494 412 477 427 Q 453 442 438.5 441.5 Q 424 441 408 436 L 368 428 L 316 416 L 89 367 L 86 364 Q 85 362 85 361 Q 85 348 104 339.5 Q 123 331 135 327 L 160 325 L 308 370 L 366 382 Z" fill="black"></path>
				<path d="M 282 -56 L 281 -58 Q 280 -80 296 -116 Q 311 -151 317 -151 Q 334 -151 345 -120 Q 355 -88 356 -73 Q 357 -57 357 -18 L 357 173 L 359 222 Q 361 269 362 298 L 363 326 L 366 382 L 368 428 L 372 453 Q 372 456 377 494 L 388 535 L 385 547 Q 383 550 373 560 Q 362 568 344 579 C 319 595 294 589 300 560 L 307 526 Q 311 508 313 473 Q 314 438 316 416 L 312 244 L 301 65 Q 299 46 292 7 Q 285 -32 282 -56 Z" fill="black"></path>
				<path d="M 308 370 L 299 342 Q 293 323 260 269 Q 226 214 195 173 Q 163 131 97 70 L 75 49 Q 65 42 67 38 Q 68 33 75 34 L 101 44 Q 118 50 154 73 Q 189 95 220 126 Q 252 153 274 186 L 312 244 C 410 393 317 399 308 370 Z" fill="black"></path>
				<path d="M 362 298 L 377 282 L 399 254 Q 407 242 419 234 Q 434 221 437 222 Q 440 223 442 224 Q 452 225 459 240 Q 466 255 457 278 Q 448 301 409 313 L 363 326 C 334 334 341 320 362 298 Z" fill="black"></path>
				<path d="M 726 603 L 733 614 Q 746 642 725 675 Q 715 691 668 707 Q 643 713 639 717 Q 629 721 622 719 Q 615 717 615 714 Q 612 708 620 698 Q 627 687 635 675 L 656 640 Q 678 607 695 597 C 714 584 714 584 726 603 Z" fill="black"></path>
				<path d="M 695 597 L 486 558 L 484 556 Q 484 544 498 538 L 530 526 Q 545 522 553.5 521 Q 562 520 578 526 L 642 542 Q 685 553 749 562 Q 803 572 872 575 L 914 578 Q 926 580 930 586.5 Q 934 593 906.5 614.5 Q 879 636 857 632 L 813 623 L 726 603 L 695 597 Z" fill="black"></path>
				<path d="M 594 447 L 559 455 Q 552 455 546 457 Q 540 458 535 453 Q 525 443 541 435 Q 556 426 564 394 L 581 323 Q 586 304 593 294 Q 600 283 603 283 Q 605 281 610 285 L 626 296 C 628 297 627 302 625 332 L 618 416 C 616 442 616 442 594 447 Z" fill="black"></path>
				<path d="M 825 349 L 854 392 Q 869 414 874 419 Q 879 423 886 430 Q 890 441 886 448 Q 882 454 865 465 Q 847 476 832 483 Q 816 490 812 490 Q 807 490 789 484 Q 771 478 737 474 L 594 447 C 565 441 588 411 618 416 L 708 431 L 748 436 Q 767 440 780 440 Q 796 440 792 418 L 789 392 L 782 367 Q 781 361 781 360 C 775 331 808 324 825 349 Z" fill="black"></path>
				<path d="M 626 296 L 772 316 Q 808 318 824 319 Q 840 320 842 324 Q 844 328 842 332 Q 842 341 825 349 L 781 360 L 761 358 L 699 345 L 625 332 C 595 327 596 292 626 296 Z" fill="red"></path>
				<path d="M 496 216 L 459 221 Q 450 223 450 221 Q 449 219 445 215 L 445 204 L 462 163 Q 472 141 475 88 L 477 19 L 473 -50 Q 473 -62 475 -67 Q 476 -71 486 -86 Q 495 -101 500 -103 Q 510 -112 514 -111 Q 518 -110 521 -104 Q 524 -98 530 -74 Q 536 -50 536 -47 L 530 45 L 526 126 Q 525 134 525 174 C 525 204 525 212 496 216 Z" fill="lightgray"></path>
				<path d="M 988 244 Q 987 244 964 262 Q 940 280 926 282 L 924 283 Q 917 283 898 276 Q 878 268 862 266 L 520 215 L 496 216 C 466 216 496 167 525 174 L 583 188 Q 613 196 664 202 L 766 216 Q 856 227 901 222 Q 915 218 920 202 Q 924 186 922 132 L 920 92 Q 919 50 913 16 Q 906 -19 898 -31 Q 890 -43 882 -45 Q 874 -46 857 -41 L 826 -34 L 800 -26 Q 794 -25 793 -30 Q 792 -34 795 -37 L 810 -54 Q 828 -76 846 -105 Q 863 -133 868 -139 Q 872 -144 884 -144 Q 901 -148 931 -118 Q 945 -104 957 -71 Q 968 -37 971 -14 Q 973 10 979 81 Q 984 152 988 170 Q 992 187 999 202 Q 1005 217 1005 219 Q 1005 221 988 244 Z" fill="lightgray"></path>
				<path d="M 571 128 Q 570 124 573 121 L 589 109 Q 596 102 601 88 L 621 8 Q 627 -14 636 -16 Q 638 -16 650 -12 L 652 -10 L 660 -1 C 662 1 661 2 657 32 L 647 100 C 643 128 643 128 628 130 L 593 134 Q 588 136 582 134 Q 571 134 571 128 Z" fill="lightgray"></path>
				<path d="M 802 48 L 803 50 L 815 71 Q 827 92 840 99 Q 852 106 854 113 Q 857 123 826 142 Q 820 146 817 148 L 800 159 Q 788 168 770 160 Q 751 152 738 150 L 628 130 C 598 125 617 95 647 100 L 751 116 Q 760 117 765 112 Q 770 106 765 80 Q 759 54 756 54 C 742 27 787 22 802 48 Z" fill="lightgray"></path>
				<path d="M 660 -1 L 812 20 Q 815 20 819 24 L 819 31 Q 819 37 802 48 C 784 60 784 60 756 54 L 657 32 C 628 25 630 -5 660 -1 Z" fill="lightgray"></path>
</g>
		<text x="40" y="140" font-size="128" fill="#999999">10</text></g>
</g>
	<g id="id2:id2" transform="translate(0.0,2048)">
		<g id="id2:id0:id0" transform="matrix(1.0,0,0,1.0,0,0.0)">			<g stroke="lightgray" stroke-width="4" transform="scale(4, 4)"> <rect x="0" y="0" width="256" height="256" fill="white" stroke-width="4"/></g>
			<g transform="scale(0.92, -0.92) translate(60, -920)">					<path d="M 344 579 L 389 600 L 467 630 Q 476 633 485 642 Q 488 651 480 660 Q 478 665 449.5 687.5 Q 421 710 416 708 Q 411 706 407 700 L 365 658 L 316 620 Q 228 558 184 540 L 165 531 Q 158 529 155.5 526.5 Q 153 524 155 522 Q 157 513 169 516 L 194 521 Q 204 523 238 534 Q 256 538 276 548 L 300 560 L 344 579 Z" fill="black"></path>
				<path d="M 366 382 L 479 400 Q 483 400 486 404 Q 494 412 477 427 Q 453 442 438.5 441.5 Q 424 441 408 436 L 368 428 L 316 416 L 89 367 L 86 364 Q 85 362 85 361 Q 85 348 104 339.5 Q 123 331 135 327 L 160 325 L 308 370 L 366 382 Z" fill="black"></path>
				<path d="M 282 -56 L 281 -58 Q 280 -80 296 -116 Q 311 -151 317 -151 Q 334 -151 345 -120 Q 355 -88 356 -73 Q 357 -57 357 -18 L 357 173 L 359 222 Q 361 269 362 298 L 363 326 L 366 382 L 368 428 L 372 453 Q 372 456 377 494 L 388 535 L 385 547 Q 383 550 373 560 Q 362 568 344 579 C 319 595 294 589 300 560 L 307 526 Q 311 508 313 473 Q 314 438 316 416 L 312 244 L 301 65 Q 299 46 292 7 Q 285 -32 282 -56 Z" fill="black"></path>
				<path d="M 308 370 L 299 342 Q 293 323 260 269 Q 226 214 195 173 Q 163 131 97 70 L 75 49 Q 65 42 67 38 Q 68 33 75 34 L 101 44 Q 118 50 154 73 Q 189 95 220 126 Q 252 153 274 186 L 312 244 C 410 393 317 399 308 370 Z" fill="black"></path>
				<path d="M 362 298 L 377 282 L 399 254 Q 407 242 419 234 Q 434 221 437 222 Q 440 223 442 224 Q 452 225 459 240 Q 466 255 457 278 Q 448 301 409 313 L 363 326 C 334 334 341 320 362 298 Z" fill="black"></path>
				<path d="M 726 603 L 733 614 Q 746 642 725 675 Q 715 691 668 707 Q 643 713 639 717 Q 629 721 622 719 Q 615 717 615 714 Q 612 708 620 698 Q 627 687 635 675 L 656 640 Q 678 607 695 597 C 714 584 714 584 726 603 Z" fill="black"></path>
				<path d="M 695 597 L 486 558 L 484 556 Q 484 544 498 538 L 530 526 Q 545 522 553.5 521 Q 562 520 578 526 L 642 542 Q 685 553 749 562 Q 803 572 872 575 L 914 578 Q 926 580 930 586.5 Q 934 593 906.5 614.5 Q 879 636 857 632 L 813 623 L 726 603 L 695 597 Z" fill="black"></path>
				<path d="M 594 447 L 559 455 Q 552 455 546 457 Q 540 458 535 453 Q 525 443 541 435 Q 556 426 564 394 L 581 323 Q 586 304 593 294 Q 600 283 603 283 Q 605 281 610 285 L 626 296 C 628 297 627 302 625 332 L 618 416 C 616 442 616 442 594 447 Z" fill="black"></path>
				<path d="M 825 349 L 854 392 Q 869 414 874 419 Q 879 423 886 430 Q 890 441 886 448 Q 882 454 865 465 Q 847 476 832 483 Q 816 490 812 490 Q 807 490 789 484 Q 771 478 737 474 L 594 447 C 565 441 588 411 618 416 L 708 431 L 748 436 Q 767 440 780 440 Q 796 440 792 418 L 789 392 L 782 367 Q 781 361 781 360 C 775 331 808 324 825 349 Z" fill="black"></path>
				<path d="M 626 296 L 772 316 Q 808 318 824 319 Q 840 320 842 324 Q 844 328 842 332 Q 842 341 825 349 L 781 360 L 761 358 L 699 345 L 625 332 C 595 327 596 292 626 296 Z" fill="black"></path>
				<path d="M 496 216 L 459 221 Q 450 223 450 221 Q 449 219 445 215 L 445 204 L 462 163 Q 472 141 475 88 L 477 19 L 473 -50 Q 473 -62 475 -67 Q 476 -71 486 -86 Q 495 -101 500 -103 Q 510 -112 514 -111 Q 518 -110 521 -104 Q 524 -98 530 -74 Q 536 -50 536 -47 L 530 45 L 526 126 Q 525 134 525 174 C 525 204 525 212 496 216 Z" fill="red"></path>
				<path d="M 988 244 Q 987 244 964 262 Q 940 280 926 282 L 924 283 Q 917 283 898 276 Q 878 268 862 266 L 520 215 L 496 216 C 466 216 496 167 525 174 L 583 188 Q 613 196 664 202 L 766 216 Q 856 227 901 222 Q 915 218 920 202 Q 924 186 922 132 L 920 92 Q 919 50 913 16 Q 906 -19 898 -31 Q 890 -43 882 -45 Q 874 -46 857 -41 L 826 -34 L 800 -26 Q 794 -25 793 -30 Q 792 -34 795 -37 L 810 -54 Q 828 -76 846 -105 Q 863 -133 868 -139 Q 872 -144 884 -144 Q 901 -148 931 -118 Q 945 -104 957 -71 Q 968 -37 971 -14 Q 973 10 979 81 Q 984 152 988 170 Q 992 187 999 202 Q 1005 217 1005 219 Q 1005 221 988 244 Z" fill="lightgray"></path>
				<path d="M 571 128 Q 570 124 573 121 L 589 109 Q 596 102 601 88 L 621 8 Q 627 -14 636 -16 Q 638 -16 650 -12 L 652 -10 L 660 -1 C 662 1 661 2 657 32 L 647 100 C 643 128 643 128 628 130 L 593 134 Q 588 136 582 134 Q 571 134 571 128 Z" fill="lightgray"></path>
				<path d="M 802 48 L 803 50 L 815 71 Q 827 92 840 99 Q 852 106 854 113 Q 857 123 826 142 Q 820 146 817 148 L 800 159 Q 788 168 770 160 Q 751 152 738 150 L 628 130 C 598 125 617 95 647 100 L 751 116 Q 760 117 765 112 Q 770 106 765 80 Q 759 54 756 54 C 742 27 787 22 802 48 Z" fill="lightgray"></path>
				<path d="M 660 -1 L 812 20 Q 815 20 819 24 L 819 31 Q 819 37 802 48 C 784 60 784 60 756 54 L 657 32 C 628 25 630 -5 660 -1 Z" fill="lightgray"></path>
</g>
		<text x="40" y="140" font-size="128" fill="#999999">11</text></g>
		<g id="id2:id1:id1" transform="matrix(1.0,0,0,1.0,1024,0.0)">			<g stroke="lightgray" stroke-width="4" transform="scale(4, 4)"> <rect x="0" y="0" width="256" height="256" fill="white" stroke-width="4"/></g>
			<g transform="scale(0.92, -0.92) translate(60, -920)">					<path d="M 344 579 L 389 600 L 467 630 Q 476 633 485 642 Q 488 651 480 660 Q 478 665 449.5 687.5 Q 421 710 416 708 Q 411 706 407 700 L 365 658 L 316 620 Q 228 558 184 540 L 165 531 Q 158 529 155.5 526.5 Q 153 524 155 522 Q 157 513 169 516 L 194 521 Q 204 523 238 534 Q 256 538 276 548 L 300 560 L 344 579 Z" fill="black"></path>
				<path d="M 366 382 L 479 400 Q 483 400 486 404 Q 494 412 477 427 Q 453 442 438.5 441.5 Q 424 441 408 436 L 368 428 L 316 416 L 89 367 L 86 364 Q 85 362 85 361 Q 85 348 104 339.5 Q 123 331 135 327 L 160 325 L 308 370 L 366 382 Z" fill="black"></path>
				<path d="M 282 -56 L 281 -58 Q 280 -80 296 -116 Q 311 -151 317 -151 Q 334 -151 345 -120 Q 355 -88 356 -73 Q 357 -57 357 -18 L 357 173 L 359 222 Q 361 269 362 298 L 363 326 L 366 382 L 368 428 L 372 453 Q 372 456 377 494 L 388 535 L 385 547 Q 383 550 373 560 Q 362 568 344 579 C 319 595 294 589 300 560 L 307 526 Q 311 508 313 473 Q 314 438 316 416 L 312 244 L 301 65 Q 299 46 292 7 Q 285 -32 282 -56 Z" fill="black"></path>
				<path d="M 308 370 L 299 342 Q 293 323 260 269 Q 226 214 195 173 Q 163 131 97 70 L 75 49 Q 65 42 67 38 Q 68 33 75 34 L 101 44 Q 118 50 154 73 Q 189 95 220 126 Q 252 153 274 186 L 312 244 C 410 393 317 399 308 370 Z" fill="black"></path>
				<path d="M 362 298 L 377 282 L 399 254 Q 407 242 419 234 Q 434 221 437 222 Q 440 223 442 224 Q 452 225 459 240 Q 466 255 457 278 Q 448 301 409 313 L 363 326 C 334 334 341 320 362 298 Z" fill="black"></path>
				<path d="M 726 603 L 733 614 Q 746 642 725 675 Q 715 691 668 707 Q 643 713 639 717 Q 629 721 622 719 Q 615 717 615 714 Q 612 708 620 698 Q 627 687 635 675 L 656 640 Q 678 607 695 597 C 714 584 714 584 726 603 Z" fill="black"></path>
				<path d="M 695 597 L 486 558 L 484 556 Q 484 544 498 538 L 530 526 Q 545 522 553.5 521 Q 562 520 578 526 L 642 542 Q 685 553 749 562 Q 803 572 872 575 L 914 578 Q 926 580 930 586.5 Q 934 593 906.5 614.5 Q 879 636 857 632 L 813 623 L 726 603 L 695 597 Z" fill="black"></path>
				<path d="M 594 447 L 559 455 Q 552 455 546 457 Q 540 458 535 453 Q 525 443 541 435 Q 556 426 564 394 L 581 323 Q 586 304 593 294 Q 600 283 603 283 Q 605 281 610 285 L 626 296 C 628 297 627 302 625 332 L 618 416 C 616 442 616 442 594 447 Z" fill="black"></path>
				<path d="M 825 349 L 854 392 Q 869 414 874 419 Q 879 423 886 430 Q 890 441 886 448 Q 882 454 865 465 Q 847 476 832 483 Q 816 490 812 490 Q 807 490 789 484 Q 771 478 737 474 L 594 447 C 565 441 588 411 618 416 L 708 431 L 748 436 Q 767 440 780 440 Q 796 440 792 418 L 789 392 L 782 367 Q 781 361 781 360 C 775 331 808 324 825 349 Z" fill="black"></path>
				<path d="M 626 296 L 772 316 Q 808 318 824 319 Q 840 320 842 324 Q 844 328 842 332 Q 842 341 825 349 L 781 360 L 761 358 L 699 345 L 625 332 C 595 327 596 292 626 296 Z" fill="black"></path>
				<path d="M 496 216 L 459 221 Q 450 223 450 221 Q 449 219 445 215 L 445 204 L 462 163 Q 472 141 475 88 L 477 19 L 473 -50 Q 473 -62 475 -67 Q 476 -71 486 -86 Q 495 -101 500 -103 Q 510 -112 514 -111 Q 518 -110 521 -104 Q 524 -98 530 -74 Q 536 -50 536 -47 L 530 45 L 526 126 Q 525 134 525 174 C 525 204 525 212 496 216 Z" fill="black"></path>
				<path d="M 988 244 Q 987 244 964 262 Q 940 280 926 282 L 924 283 Q 917 283 898 276 Q 878 268 862 266 L 520 215 L 496 216 C 466 216 496 167 525 174 L 583 188 Q 613 196 664 202 L 766 216 Q 856 227 901 222 Q 915 218 920 202 Q 924 186 922 132 L 920 92 Q 919 50 913 16 Q 906 -19 898 -31 Q 890 -43 882 -45 Q 874 -46 857 -41 L 826 -34 L 800 -26 Q 794 -25 793 -30 Q 792 -34 795 -37 L 810 -54 Q 828 -76 846 -105 Q 863 -133 868 -139 Q 872 -144 884 -144 Q 901 -148 931 -118 Q 945 -104 957 -71 Q 968 -37 971 -14 Q 973 10 979 81 Q 984 152 988 170 Q 992 187 999 202 Q 1005 217 1005 219 Q 1005 221 988 244 Z" fill="red"></path>
				<path d="M 571 128 Q 570 124 573 121 L 589 109 Q 596 102 601 88 L 621 8 Q 627 -14 636 -16 Q 638 -16 650 -12 L 652 -10 L 660 -1 C 662 1 661 2 657 32 L 647 100 C 643 128 643 128 628 130 L 593 134 Q 588 136 582 134 Q 571 134 571 128 Z" fill="lightgray"></path>
				<path d="M 802 48 L 803 50 L 815 71 Q 827 92 840 99 Q 852 106 854 113 Q 857 123 826 142 Q 820 146 817 148 L 800 159 Q 788 168 770 160 Q 751 152 738 150 L 628 130 C 598 125 617 95 647 100 L 751 116 Q 760 117 765 112 Q 770 106 765 80 Q 759 54 756 54 C 742 27 787 22 802 48 Z" fill="lightgray"></path>
				<path d="M 660 -1 L 812 20 Q 815 20 819 24 L 819 31 Q 819 37 802 48 C 784 60 784 60 756 54 L 657 32 C 628 25 630 -5 660 -1 Z" fill="lightgray"></path>
</g>
		<text x="40" y="140" font-size="128" fill="#999999">12</text></g>
		<g id="id2:id2:id2" transform="matrix(1.0,0,0,1.0,2048,0.0)">			<g stroke="lightgray" stroke-width="4" transform="scale(4, 4)"> <rect x="0" y="0" width="256" height="256" fill="white" stroke-width="4"/></g>
			<g transform="scale(0.92, -0.92) translate(60, -920)">					<path d="M 344 579 L 389 600 L 467 630 Q 476 633 485 642 Q 488 651 480 660 Q 478 665 449.5 687.5 Q 421 710 416 708 Q 411 706 407 700 L 365 658 L 316 620 Q 228 558 184 540 L 165 531 Q 158 529 155.5 526.5 Q 153 524 155 522 Q 157 513 169 516 L 194 521 Q 204 523 238 534 Q 256 538 276 548 L 300 560 L 344 579 Z" fill="black"></path>
				<path d="M 366 382 L 479 400 Q 483 400 486 404 Q 494 412 477 427 Q 453 442 438.5 441.5 Q 424 441 408 436 L 368 428 L 316 416 L 89 367 L 86 364 Q 85 362 85 361 Q 85 348 104 339.5 Q 123 331 135 327 L 160 325 L 308 370 L 366 382 Z" fill="black"></path>
				<path d="M 282 -56 L 281 -58 Q 280 -80 296 -116 Q 311 -151 317 -151 Q 334 -151 345 -120 Q 355 -88 356 -73 Q 357 -57 357 -18 L 357 173 L 359 222 Q 361 269 362 298 L 363 326 L 366 382 L 368 428 L 372 453 Q 372 456 377 494 L 388 535 L 385 547 Q 383 550 373 560 Q 362 568 344 579 C 319 595 294 589 300 560 L 307 526 Q 311 508 313 473 Q 314 438 316 416 L 312 244 L 301 65 Q 299 46 292 7 Q 285 -32 282 -56 Z" fill="black"></path>
				<path d="M 308 370 L 299 342 Q 293 323 260 269 Q 226 214 195 173 Q 163 131 97 70 L 75 49 Q 65 42 67 38 Q 68 33 75 34 L 101 44 Q 118 50 154 73 Q 189 95 220 126 Q 252 153 274 186 L 312 244 C 410 393 317 399 308 370 Z" fill="black"></path>
				<path d="M 362 298 L 377 282 L 399 254 Q 407 242 419 234 Q 434 221 437 222 Q 440 223 442 224 Q 452 225 459 240 Q 466 255 457 278 Q 448 301 409 313 L 363 326 C 334 334 341 320 362 298 Z" fill="black"></path>
				<path d="M 726 603 L 733 614 Q 746 642 725 675 Q 715 691 668 707 Q 643 713 639 717 Q 629 721 622 719 Q 615 717 615 714 Q 612 708 620 698 Q 627 687 635 675 L 656 640 Q 678 607 695 597 C 714 584 714 584 726 603 Z" fill="black"></path>
				<path d="M 695 597 L 486 558 L 484 556 Q 484 544 498 538 L 530 526 Q 545 522 553.5 521 Q 562 520 578 526 L 642 542 Q 685 553 749 562 Q 803 572 872 575 L 914 578 Q 926 580 930 586.5 Q 934 593 906.5 614.5 Q 879 636 857 632 L 813 623 L 726 603 L 695 597 Z" fill="black"></path>
				<path d="M 594 447 L 559 455 Q 552 455 546 457 Q 540 458 535 453 Q 525 443 541 435 Q 556 426 564 394 L 581 323 Q 586 304 593 294 Q 600 283 603 283 Q 605 281 610 285 L 626 296 C 628 297 627 302 625 332 L 618 416 C 616 442 616 442 594 447 Z" fill="black"></path>
				<path d="M 825 349 L 854 392 Q 869 414 874 419 Q 879 423 886 430 Q 890 441 886 448 Q 882 454 865 465 Q 847 476 832 483 Q 816 490 812 490 Q 807 490 789 484 Q 771 478 737 474 L 594 447 C 565 441 588 411 618 416 L 708 431 L 748 436 Q 767 440 780 440 Q 796 440 792 418 L 789 392 L 782 367 Q 781 361 781 360 C 775 331 808 324 825 349 Z" fill="black"></path>
				<path d="M 626 296 L 772 316 Q 808 318 824 319 Q 840 320 842 324 Q 844 328 842 332 Q 842 341 825 349 L 781 360 L 761 358 L 699 345 L 625 332 C 595 327 596 292 626 296 Z" fill="black"></path>
				<path d="M 496 216 L 459 221 Q 450 223 450 221 Q 449 219 445 215 L 445 204 L 462 163 Q 472 141 475 88 L 477 19 L 473 -50 Q 473 -62 475 -67 Q 476 -71 486 -86 Q 495 -101 500 -103 Q 510 -112 514 -111 Q 518 -110 521 -104 Q 524 -98 530 -74 Q 536 -50 536 -47 L 530 45 L 526 126 Q 525 134 525 174 C 525 204 525 212 496 216 Z" fill="black"></path>
				<path d="M 988 244 Q 987 244 964 262 Q 940 280 926 282 L 924 283 Q 917 283 898 276 Q 878 268 862 266 L 520 215 L 496 216 C 466 216 496 167 525 174 L 583 188 Q 613 196 664 202 L 766 216 Q 856 227 901 222 Q 915 218 920 202 Q 924 186 922 132 L 920 92 Q 919 50 913 16 Q 906 -19 898 -31 Q 890 -43 882 -45 Q 874 -46 857 -41 L 826 -34 L 800 -26 Q 794 -25 793 -30 Q 792 -34 795 -37 L 810 -54 Q 828 -76 846 -105 Q 863 -133 868 -139 Q 872 -144 884 -144 Q 901 -148 931 -118 Q 945 -104 957 -71 Q 968 -37 971 -14 Q 973 10 979 81 Q 984 152 988 170 Q 992 187 999 202 Q 1005 217 1005 219 Q 1005 221 988 244 Z" fill="black"></path>
				<path d="M 571 128 Q 570 124 573 121 L 589 109 Q 596 102 601 88 L 621 8 Q 627 -14 636 -16 Q 638 -16 650 -12 L 652 -10 L 660 -1 C 662 1 661 2 657 32 L 647 100 C 643 128 643 128 628 130 L 593 134 Q 588 136 582 134 Q 571 134 571 128 Z" fill="red"></path>
				<path d="M 802 48 L 803 50 L 815 71 Q 827 92 840 99 Q 852 106 854 113 Q 857 123 826 142 Q 820 146 817 148 L 800 159 Q 788 168 770 160 Q 751 152 738 150 L 628 130 C 598 125 617 95 647 100 L 751 116 Q 760 117 765 112 Q 770 106 765 80 Q 759 54 756 54 C 742 27 787 22 802 48 Z" fill="lightgray"></path>
				<path d="M 660 -1 L 812 20 Q 815 20 819 24 L 819 31 Q 819 37 802 48 C 784 60 784 60 756 54 L 657 32 C 628 25 630 -5 660 -1 Z" fill="lightgray"></path>
</g>
		<text x="40" y="140" font-size="128" fill="#999999">13</text></g>
		<g id="id2:id3:id3" transform="matrix(1.0,0,0,1.0,3072,0.0)">			<g stroke="lightgray" stroke-width="4" transform="scale(4, 4)"> <rect x="0" y="0" width="256" height="256" fill="white" stroke-width="4"/></g>
			<g transform="scale(0.92, -0.92) translate(60, -920)">					<path d="M 344 579 L 389 600 L 467 630 Q 476 633 485 642 Q 488 651 480 660 Q 478 665 449.5 687.5 Q 421 710 416 708 Q 411 706 407 700 L 365 658 L 316 620 Q 228 558 184 540 L 165 531 Q 158 529 155.5 526.5 Q 153 524 155 522 Q 157 513 169 516 L 194 521 Q 204 523 238 534 Q 256 538 276 548 L 300 560 L 344 579 Z" fill="black"></path>
				<path d="M 366 382 L 479 400 Q 483 400 486 404 Q 494 412 477 427 Q 453 442 438.5 441.5 Q 424 441 408 436 L 368 428 L 316 416 L 89 367 L 86 364 Q 85 362 85 361 Q 85 348 104 339.5 Q 123 331 135 327 L 160 325 L 308 370 L 366 382 Z" fill="black"></path>
				<path d="M 282 -56 L 281 -58 Q 280 -80 296 -116 Q 311 -151 317 -151 Q 334 -151 345 -120 Q 355 -88 356 -73 Q 357 -57 357 -18 L 357 173 L 359 222 Q 361 269 362 298 L 363 326 L 366 382 L 368 428 L 372 453 Q 372 456 377 494 L 388 535 L 385 547 Q 383 550 373 560 Q 362 568 344 579 C 319 595 294 589 300 560 L 307 526 Q 311 508 313 473 Q 314 438 316 416 L 312 244 L 301 65 Q 299 46 292 7 Q 285 -32 282 -56 Z" fill="black"></path>
				<path d="M 308 370 L 299 342 Q 293 323 260 269 Q 226 214 195 173 Q 163 131 97 70 L 75 49 Q 65 42 67 38 Q 68 33 75 34 L 101 44 Q 118 50 154 73 Q 189 95 220 126 Q 252 153 274 186 L 312 244 C 410 393 317 399 308 370 Z" fill="black"></path>
				<path d="M 362 298 L 377 282 L 399 254 Q 407 242 419 234 Q 434 221 437 222 Q 440 223 442 224 Q 452 225 459 240 Q 466 255 457 278 Q 448 301 409 313 L 363 326 C 334 334 341 320 362 298 Z" fill="black"></path>
				<path d="M 726 603 L 733 614 Q 746 642 725 675 Q 715 691 668 707 Q 643 713 639 717 Q 629 721 622 719 Q 615 717 615 714 Q 612 708 620 698 Q 627 687 635 675 L 656 640 Q 678 607 695 597 C 714 584 714 584 726 603 Z" fill="black"></path>
				<path d="M 695 597 L 486 558 L 484 556 Q 484 544 498 538 L 530 526 Q 545 522 553.5 521 Q 562 520 578 526 L 642 542 Q 685 553 749 562 Q 803 572 872 575 L 914 578 Q 926 580 930 586.5 Q 934 593 906.5 614.5 Q 879 636 857 632 L 813 623 L 726 603 L 695 597 Z" fill="black"></path>
				<path d="M 594 447 L 559 455 Q 552 455 546 457 Q 540 458 535 453 Q 525 443 541 435 Q 556 426 564 394 L 581 323 Q 586 304 593 294 Q 600 283 603 283 Q 605 281 610 285 L 626 296 C 628 297 627 302 625 332 L 618 416 C 616 442 616 442 594 447 Z" fill="black"></path>
				<path d="M 825 349 L 854 392 Q 869 414 874 419 Q 879 423 886 430 Q 890 441 886 448 Q 882 454 865 465 Q 847 476 832 483 Q 816 490 812 490 Q 807 490 789 484 Q 771 478 737 474 L 594 447 C 565 441 588 411 618 416 L 708 431 L 748 436 Q 767 440 780 440 Q 796 440 792 418 L 789 392 L 782 367 Q 781 361 781 360 C 775 331 808 324 825 349 Z" fill="black"></path>
				<path d="M 626 296 L 772 316 Q 808 318 824 319 Q 840 320 842 324 Q 844 328 842 332 Q 842 341 825 349 L 781 360 L 761 358 L 699 345 L 625 332 C 595 327 596 292 626 296 Z" fill="black"></path>
				<path d="M 496 216 L 459 221 Q 450 223 450 221 Q 449 219 445 215 L 445 204 L 462 163 Q 472 141 475 88 L 477 19 L 473 -50 Q 473 -62 475 -67 Q 476 -71 486 -86 Q 495 -101 500 -103 Q 510 -112 514 -111 Q 518 -110 521 -104 Q 524 -98 530 -74 Q 536 -50 536 -47 L 530 45 L 526 126 Q 525 134 525 174 C 525 204 525 212 496 216 Z" fill="black"></path>
				<path d="M 988 244 Q 987 244 964 262 Q 940 280 926 282 L 924 283 Q 917 283 898 276 Q 878 268 862 266 L 520 215 L 496 216 C 466 216 496 167 525 174 L 583 188 Q 613 196 664 202 L 766 216 Q 856 227 901 222 Q 915 218 920 202 Q 924 186 922 132 L 920 92 Q 919 50 913 16 Q 906 -19 898 -31 Q 890 -43 882 -45 Q 874 -46 857 -41 L 826 -34 L 800 -26 Q 794 -25 793 -30 Q 792 -34 795 -37 L 810 -54 Q 828 -76 846 -105 Q 863 -133 868 -139 Q 872 -144 884 -144 Q 901 -148 931 -118 Q 945 -104 957 -71 Q 968 -37 971 -14 Q 973 10 979 81 Q 984 152 988 170 Q 992 187 999 202 Q 1005 217 1005 219 Q 1005 221 988 244 Z" fill="black"></path>
				<path d="M 571 128 Q 570 124 573 121 L 589 109 Q 596 102 601 88 L 621 8 Q 627 -14 636 -16 Q 638 -16 650 -12 L 652 -10 L 660 -1 C 662 1 661 2 657 32 L 647 100 C 643 128 643 128 628 130 L 593 134 Q 588 136 582 134 Q 571 134 571 128 Z" fill="black"></path>
				<path d="M 802 48 L 803 50 L 815 71 Q 827 92 840 99 Q 852 106 854 113 Q 857 123 826 142 Q 820 146 817 148 L 800 159 Q 788 168 770 160 Q 751 152 738 150 L 628 130 C 598 125 617 95 647 100 L 751 116 Q 760 117 765 112 Q 770 106 765 80 Q 759 54 756 54 C 742 27 787 22 802 48 Z" fill="red"></path>
				<path d="M 660 -1 L 812 20 Q 815 20 819 24 L 819 31 Q 819 37 802 48 C 784 60 784 60 756 54 L 657 32 C 628 25 630 -5 660 -1 Z" fill="lightgray"></path>
</g>
		<text x="40" y="140" font-size="128" fill="#999999">14</text></g>
		<g id="id2:id4:id4" transform="matrix(1.0,0,0,1.0,4096,0.0)">			<g stroke="lightgray" stroke-width="4" transform="scale(4, 4)"> <rect x="0" y="0" width="256" height="256" fill="white" stroke-width="4"/></g>
			<g transform="scale(0.92, -0.92) translate(60, -920)">					<path d="M 344 579 L 389 600 L 467 630 Q 476 633 485 642 Q 488 651 480 660 Q 478 665 449.5 687.5 Q 421 710 416 708 Q 411 706 407 700 L 365 658 L 316 620 Q 228 558 184 540 L 165 531 Q 158 529 155.5 526.5 Q 153 524 155 522 Q 157 513 169 516 L 194 521 Q 204 523 238 534 Q 256 538 276 548 L 300 560 L 344 579 Z" fill="black"></path>
				<path d="M 366 382 L 479 400 Q 483 400 486 404 Q 494 412 477 427 Q 453 442 438.5 441.5 Q 424 441 408 436 L 368 428 L 316 416 L 89 367 L 86 364 Q 85 362 85 361 Q 85 348 104 339.5 Q 123 331 135 327 L 160 325 L 308 370 L 366 382 Z" fill="black"></path>
				<path d="M 282 -56 L 281 -58 Q 280 -80 296 -116 Q 311 -151 317 -151 Q 334 -151 345 -120 Q 355 -88 356 -73 Q 357 -57 357 -18 L 357 173 L 359 222 Q 361 269 362 298 L 363 326 L 366 382 L 368 428 L 372 453 Q 372 456 377 494 L 388 535 L 385 547 Q 383 550 373 560 Q 362 568 344 579 C 319 595 294 589 300 560 L 307 526 Q 311 508 313 473 Q 314 438 316 416 L 312 244 L 301 65 Q 299 46 292 7 Q 285 -32 282 -56 Z" fill="black"></path>
				<path d="M 308 370 L 299 342 Q 293 323 260 269 Q 226 214 195 173 Q 163 131 97 70 L 75 49 Q 65 42 67 38 Q 68 33 75 34 L 101 44 Q 118 50 154 73 Q 189 95 220 126 Q 252 153 274 186 L 312 244 C 410 393 317 399 308 370 Z" fill="black"></path>
				<path d="M 362 298 L 377 282 L 399 254 Q 407 242 419 234 Q 434 221 437 222 Q 440 223 442 224 Q 452 225 459 240 Q 466 255 457 278 Q 448 301 409 313 L 363 326 C 334 334 341 320 362 298 Z" fill="black"></path>
				<path d="M 726 603 L 733 614 Q 746 642 725 675 Q 715 691 668 707 Q 643 713 639 717 Q 629 721 622 719 Q 615 717 615 714 Q 612 708 620 698 Q 627 687 635 675 L 656 640 Q 678 607 695 597 C 714 584 714 584 726 603 Z" fill="black"></path>
				<path d="M 695 597 L 486 558 L 484 556 Q 484 544 498 538 L 530 526 Q 545 522 553.5 521 Q 562 520 578 526 L 642 542 Q 685 553 749 562 Q 803 572 872 575 L 914 578 Q 926 580 930 586.5 Q 934 593 906.5 614.5 Q 879 636 857 632 L 813 623 L 726 603 L 695 597 Z" fill="black"></path>
				<path d="M 594 447 L 559 455 Q 552 455 546 457 Q 540 458 535 453 Q 525 443 541 435 Q 556 426 564 394 L 581 323 Q 586 304 593 294 Q 600 283 603 283 Q 605 281 610 285 L 626 296 C 628 297 627 302 625 332 L 618 416 C 616 442 616 442 594 447 Z" fill="black"></path>
				<path d="M 825 349 L 854 392 Q 869 414 874 419 Q 879 423 886 430 Q 890 441 886 448 Q 882 454 865 465 Q 847 476 832 483 Q 816 490 812 490 Q 807 490 789 484 Q 771 478 737 474 L 594 447 C 565 441 588 411 618 416 L 708 431 L 748 436 Q 767 440 780 440 Q 796 440 792 418 L 789 392 L 782 367 Q 781 361 781 360 C 775 331 808 324 825 349 Z" fill="black"></path>
				<path d="M 626 296 L 772 316 Q 808 318 824 319 Q 840 320 842 324 Q 844 328 842 332 Q 842 341 825 349 L 781 360 L 761 358 L 699 345 L 625 332 C 595 327 596 292 626 296 Z" fill="black"></path>
				<path d="M 496 216 L 459 221 Q 450 223 450 221 Q 449 219 445 215 L 445 204 L 462 163 Q 472 141 475 88 L 477 19 L 473 -50 Q 473 -62 475 -67 Q 476 -71 486 -86 Q 495 -101 500 -103 Q 510 -112 514 -111 Q 518 -110 521 -104 Q 524 -98 530 -74 Q 536 -50 536 -47 L 530 45 L 526 126 Q 525 134 525 174 C 525 204 525 212 496 216 Z" fill="black"></path>
				<path d="M 988 244 Q 987 244 964 262 Q 940 280 926 282 L 924 283 Q 917 283 898 276 Q 878 268 862 266 L 520 215 L 496 216 C 466 216 496 167 525 174 L 583 188 Q 613 196 664 202 L 766 216 Q 856 227 901 222 Q 915 218 920 202 Q 924 186 922 132 L 920 92 Q 919 50 913 16 Q 906 -19 898 -31 Q 890 -43 882 -45 Q 874 -46 857 -41 L 826 -34 L 800 -26 Q 794 -25 793 -30 Q 792 -34 795 -37 L 810 -54 Q 828 -76 846 -105 Q 863 -133 868 -139 Q 872 -144 884 -144 Q 901 -148 931 -118 Q 945 -104 957 -71 Q 968 -37 971 -14 Q 973 10 979 81 Q 984 152 988 170 Q 992 187 999 202 Q 1005 217 1005 219 Q 1005 221 988 244 Z" fill="black"></path>
				<path d="M 571 128 Q 570 124 573 121 L 589 109 Q 596 102 601 88 L 621 8 Q 627 -14 636 -16 Q 638 -16 650 -12 L 652 -10 L 660 -1 C 662 1 661 2 657 32 L 647 100 C 643 128 643 128 628 130 L 593 134 Q 588 136 582 134 Q 571 134 571 128 Z" fill="black"></path>
				<path d="M 802 48 L 803 50 L 815 71 Q 827 92 840 99 Q 852 106 854 113 Q 857 123 826 142 Q 820 146 817 148 L 800 159 Q 788 168 770 160 Q 751 152 738 150 L 628 130 C 598 125 617 95 647 100 L 751 116 Q 760 117 765 112 Q 770 106 765 80 Q 759 54 756 54 C 742 27 787 22 802 48 Z" fill="black"></path>
				<path d="M 660 -1 L 812 20 Q 815 20 819 24 L 819 31 Q 819 37 802 48 C 784 60 784 60 756 54 L 657 32 C 628 25 630 -5 660 -1 Z" fill="red"></path>
</g>
		<text x="40" y="140" font-size="128" fill="#999999">15</text></g>
</g>
</svg>
