<?xml version="1.0" standalone="no"?>
<!DOCTYPE svg PUBLIC "-//W3C//DTD SVG 1.1//EN"
 "http://www.w3.org/Graphics/SVG/1.1/DTD/svg11.dtd">
<!-- generate by Japanese dictionary app com.asnsami.kanjidictionary -->

<svg xmlns="http://www.w3.org/2000/svg" xmlns:sodipodi="http://sodipodi.sourceforge.net/DTD/sodipodi-0.dtd" version="1.1" width="640" height="512" viewBox="0 0 5120 4096">
	<g id="id0:id0" transform="translate(0.0,0)">
		<g id="id0:id0:id0" transform="matrix(1.0,0,0,1.0,0,0.0)">			<g stroke="lightgray" stroke-width="4" transform="scale(4, 4)"> <rect x="0" y="0" width="256" height="256" fill="white" stroke-width="4"/></g>
			<g transform="scale(0.92, -0.92) translate(60, -920)">					<path d="M 334 566 L 387 586 Q 413 597 439.5 603.5 Q 466 610 469 612 Q 480 615 480 624 Q 480 628 472 641 Q 463 651 447 665 Q 417 686 402 680 Q 397 678 392 669 Q 383 658 359 642 L 323 615 L 266 583 Q 224 561 206 554 L 158 532 Q 149 527 150 522.5 Q 151 518 164 519 L 186 522 Q 206 524 225 530 L 296 552 L 334 566 Z" fill="red"></path>
				<path d="M 363 375 L 419 382 L 459 385 Q 470 387 481.5 388.5 Q 493 390 493 394.5 Q 493 399 486.5 407.5 Q 480 416 459 424.5 Q 438 433 417 426 Q 404 424 393 422 L 367 416 L 312 407 L 258 396 L 86 369 Q 77 367 75 362 Q 74 356 80 350 Q 86 344 93 341 L 115 332 Q 131 325 138.5 325.5 Q 146 326 178 334 L 296 362 L 363 375 Z" fill="lightgray"></path>
				<path d="M 309 265 L 302 147 Q 295 58 285 1 L 271 -62 Q 269 -90 298 -140 Q 305 -149 308 -150 Q 313 -152 328 -129 Q 343 -106 348 -68 L 348 -4 L 356 281 L 358 303 L 363 375 L 367 416 L 374 476 Q 375 495 379 508 L 384 528 Q 386 533 384 538 Q 382 546 371 550 Q 362 555 334 566 C 306 577 289 581 296 552 L 300 535 Q 308 507 312 407 L 309 265 Z" fill="lightgray"></path>
				<path d="M 296 362 L 288 340 Q 279 317 266 296 L 228 236 Q 209 208 188 179 Q 122 103 98 83 L 68 55 Q 63 50 65 45 Q 66 39 76 44 L 106 58 Q 160 85 210 135 Q 237 164 257 188 Q 276 212 309 265 C 383 384 306 390 296 362 Z" fill="lightgray"></path>
				<path d="M 356 281 L 392 242 L 404 225 L 436 188 Q 458 176 465 183 Q 480 194 480 213 Q 480 232 476 241 Q 471 249 450 266 Q 429 282 390 295 L 358 303 C 329 310 336 303 356 281 Z" fill="lightgray"></path>
				<path d="M 734 549 L 862 566 Q 894 569 900 584 Q 901 594 882 601.5 Q 863 609 849 609 Q 802 607 738 588 L 671 579 L 534 562 L 508 557 Q 504 554 504 552 Q 501 549 509 543 Q 521 536 535.5 531.5 Q 550 527 671 541 L 734 549 Z" fill="lightgray"></path>
				<path d="M 775 504 L 732 495 L 669 486 L 555 471 Q 548 470 548 466 Q 546 461 555 449 Q 564 440 612 440 L 669 446 L 730 455 L 784 464 L 831 470 Q 859 472 862 484 Q 862 496 834.5 501 Q 807 506 799 506 L 775 504 Z" fill="lightgray"></path>
				<path d="M 732 495 L 734 549 L 738 588 L 743 654 L 753 692 L 751 702 Q 749 708 738 713 Q 732 719 712 724 Q 692 728 676 728 L 665 728 Q 658 728 654 724 Q 652 715 653 713 Q 654 711 663 697 Q 671 682 670 648 Q 669 614 671 608 L 671 579 L 671 541 L 669 486 L 669 446 L 669 388 C 669 358 721 366 724 396 L 730 455 L 732 495 Z" fill="lightgray"></path>
				<path d="M 669 388 L 476 365 Q 447 361 444.5 358.5 Q 442 356 442 352 Q 442 348 457.5 339.5 Q 473 331 485 327 Q 504 324 513 325 L 532 330 Q 554 338 700 357 L 786 367 Q 829 372 869 374 L 954 378 Q 1004 382 1005.5 385 Q 1007 388 1007 392 Q 1007 396 996.5 406.5 Q 986 417 964.5 422.5 Q 943 428 928 428 L 893 422 L 724 396 L 669 388 Z" fill="lightgray"></path>
				<path d="M 605 294 L 587 300 L 575 306 Q 544 315 540 311 Q 536 307 543 286 Q 549 265 553 209 Q 553 113 536 85 Q 528 77 528 74 Q 526 72 526 65 Q 524 41 537 22 Q 549 2 556 -3 Q 566 -6 573 1 Q 582 17 583 18 L 590 51 L 593 68 L 594 72 L 595 102 L 598 130 L 598 183 L 600 209 L 602 263 C 603 293 607 293 605 294 Z" fill="lightgray"></path>
				<path d="M 815 37 L 825 19 Q 826 18 837 7 Q 848 -5 857 1 Q 876 11 879 68 L 880 96 L 881 100 L 880 171 Q 876 238 887 263 Q 898 287 895 294 Q 892 301 875 311 L 846 327 L 825 334 Q 822 335 818 335 Q 813 335 794 329 Q 775 322 758 320 L 721 312 L 605 294 C 575 289 572 262 602 263 L 623 264 Q 631 264 658 270 L 724 286 Q 772 295 795 291 Q 809 286 813 268 L 815 246 Q 815 229 816 224 L 817 212 L 816 148 L 818 126 L 812 68 L 815 37 Z" fill="lightgray"></path>
				<path d="M 598 183 L 615 180 L 665 185 L 738 195 Q 789 200 798 204 Q 807 207 817 212 C 828 217 828 217 816 224 L 798 234 Q 786 240 771 239 Q 756 238 715 230 L 600 209 C 570 204 568 188 598 183 Z" fill="lightgray"></path>
				<path d="M 595 102 L 614 99 Q 615 98 636 100 L 690 109 L 818 126 C 848 130 843 135 816 148 L 795 158 Q 788 159 775 161 Q 758 161 755 160 L 598 130 C 569 124 565 107 595 102 Z" fill="lightgray"></path>
				<path d="M 627 19 L 724 30 Q 756 33 815 37 C 845 39 841 60 812 68 L 786 75 L 590 51 C 560 47 553 22 583 18 L 598 16 L 627 19 Z" fill="lightgray"></path>
				<path d="M 569 -40 L 535 -75 Q 500 -106 496 -111 L 440 -151 Q 432 -157 434 -162 Q 435 -167 447 -163 L 484 -147 Q 550 -121 591 -89 L 641 -50 L 657 -40 Q 664 -35 673 -30 Q 681 -25 686 -16 Q 686 -4 670 2 Q 653 7 627 19 C 601 31 601 31 598 16 L 595 2 Q 595 -5 569 -40 Z" fill="lightgray"></path>
				<path d="M 740 -16 L 757 -31 L 789 -63 L 839 -121 Q 852 -137 867.5 -149 Q 883 -161 889 -159 Q 898 -159 900.5 -157 Q 903 -155 910 -145.5 Q 917 -136 917 -118.5 Q 917 -101 910.5 -86.5 Q 904 -72 889 -62 Q 874 -52 841 -34 Q 799 -15 797 -15 L 761 -5 Q 749 -3 740 0 L 738 0 Q 725 -7 740 -16 Z" fill="lightgray"></path>
</g>
		<text x="40" y="140" font-size="128" fill="#999999">1</text></g>
		<g id="id0:id1:id1" transform="matrix(1.0,0,0,1.0,1024,0.0)">			<g stroke="lightgray" stroke-width="4" transform="scale(4, 4)"> <rect x="0" y="0" width="256" height="256" fill="white" stroke-width="4"/></g>
			<g transform="scale(0.92, -0.92) translate(60, -920)">					<path d="M 334 566 L 387 586 Q 413 597 439.5 603.5 Q 466 610 469 612 Q 480 615 480 624 Q 480 628 472 641 Q 463 651 447 665 Q 417 686 402 680 Q 397 678 392 669 Q 383 658 359 642 L 323 615 L 266 583 Q 224 561 206 554 L 158 532 Q 149 527 150 522.5 Q 151 518 164 519 L 186 522 Q 206 524 225 530 L 296 552 L 334 566 Z" fill="black"></path>
				<path d="M 363 375 L 419 382 L 459 385 Q 470 387 481.5 388.5 Q 493 390 493 394.5 Q 493 399 486.5 407.5 Q 480 416 459 424.5 Q 438 433 417 426 Q 404 424 393 422 L 367 416 L 312 407 L 258 396 L 86 369 Q 77 367 75 362 Q 74 356 80 350 Q 86 344 93 341 L 115 332 Q 131 325 138.5 325.5 Q 146 326 178 334 L 296 362 L 363 375 Z" fill="red"></path>
				<path d="M 309 265 L 302 147 Q 295 58 285 1 L 271 -62 Q 269 -90 298 -140 Q 305 -149 308 -150 Q 313 -152 328 -129 Q 343 -106 348 -68 L 348 -4 L 356 281 L 358 303 L 363 375 L 367 416 L 374 476 Q 375 495 379 508 L 384 528 Q 386 533 384 538 Q 382 546 371 550 Q 362 555 334 566 C 306 577 289 581 296 552 L 300 535 Q 308 507 312 407 L 309 265 Z" fill="lightgray"></path>
				<path d="M 296 362 L 288 340 Q 279 317 266 296 L 228 236 Q 209 208 188 179 Q 122 103 98 83 L 68 55 Q 63 50 65 45 Q 66 39 76 44 L 106 58 Q 160 85 210 135 Q 237 164 257 188 Q 276 212 309 265 C 383 384 306 390 296 362 Z" fill="lightgray"></path>
				<path d="M 356 281 L 392 242 L 404 225 L 436 188 Q 458 176 465 183 Q 480 194 480 213 Q 480 232 476 241 Q 471 249 450 266 Q 429 282 390 295 L 358 303 C 329 310 336 303 356 281 Z" fill="lightgray"></path>
				<path d="M 734 549 L 862 566 Q 894 569 900 584 Q 901 594 882 601.5 Q 863 609 849 609 Q 802 607 738 588 L 671 579 L 534 562 L 508 557 Q 504 554 504 552 Q 501 549 509 543 Q 521 536 535.5 531.5 Q 550 527 671 541 L 734 549 Z" fill="lightgray"></path>
				<path d="M 775 504 L 732 495 L 669 486 L 555 471 Q 548 470 548 466 Q 546 461 555 449 Q 564 440 612 440 L 669 446 L 730 455 L 784 464 L 831 470 Q 859 472 862 484 Q 862 496 834.5 501 Q 807 506 799 506 L 775 504 Z" fill="lightgray"></path>
				<path d="M 732 495 L 734 549 L 738 588 L 743 654 L 753 692 L 751 702 Q 749 708 738 713 Q 732 719 712 724 Q 692 728 676 728 L 665 728 Q 658 728 654 724 Q 652 715 653 713 Q 654 711 663 697 Q 671 682 670 648 Q 669 614 671 608 L 671 579 L 671 541 L 669 486 L 669 446 L 669 388 C 669 358 721 366 724 396 L 730 455 L 732 495 Z" fill="lightgray"></path>
				<path d="M 669 388 L 476 365 Q 447 361 444.5 358.5 Q 442 356 442 352 Q 442 348 457.5 339.5 Q 473 331 485 327 Q 504 324 513 325 L 532 330 Q 554 338 700 357 L 786 367 Q 829 372 869 374 L 954 378 Q 1004 382 1005.5 385 Q 1007 388 1007 392 Q 1007 396 996.5 406.5 Q 986 417 964.5 422.5 Q 943 428 928 428 L 893 422 L 724 396 L 669 388 Z" fill="lightgray"></path>
				<path d="M 605 294 L 587 300 L 575 306 Q 544 315 540 311 Q 536 307 543 286 Q 549 265 553 209 Q 553 113 536 85 Q 528 77 528 74 Q 526 72 526 65 Q 524 41 537 22 Q 549 2 556 -3 Q 566 -6 573 1 Q 582 17 583 18 L 590 51 L 593 68 L 594 72 L 595 102 L 598 130 L 598 183 L 600 209 L 602 263 C 603 293 607 293 605 294 Z" fill="lightgray"></path>
				<path d="M 815 37 L 825 19 Q 826 18 837 7 Q 848 -5 857 1 Q 876 11 879 68 L 880 96 L 881 100 L 880 171 Q 876 238 887 263 Q 898 287 895 294 Q 892 301 875 311 L 846 327 L 825 334 Q 822 335 818 335 Q 813 335 794 329 Q 775 322 758 320 L 721 312 L 605 294 C 575 289 572 262 602 263 L 623 264 Q 631 264 658 270 L 724 286 Q 772 295 795 291 Q 809 286 813 268 L 815 246 Q 815 229 816 224 L 817 212 L 816 148 L 818 126 L 812 68 L 815 37 Z" fill="lightgray"></path>
				<path d="M 598 183 L 615 180 L 665 185 L 738 195 Q 789 200 798 204 Q 807 207 817 212 C 828 217 828 217 816 224 L 798 234 Q 786 240 771 239 Q 756 238 715 230 L 600 209 C 570 204 568 188 598 183 Z" fill="lightgray"></path>
				<path d="M 595 102 L 614 99 Q 615 98 636 100 L 690 109 L 818 126 C 848 130 843 135 816 148 L 795 158 Q 788 159 775 161 Q 758 161 755 160 L 598 130 C 569 124 565 107 595 102 Z" fill="lightgray"></path>
				<path d="M 627 19 L 724 30 Q 756 33 815 37 C 845 39 841 60 812 68 L 786 75 L 590 51 C 560 47 553 22 583 18 L 598 16 L 627 19 Z" fill="lightgray"></path>
				<path d="M 569 -40 L 535 -75 Q 500 -106 496 -111 L 440 -151 Q 432 -157 434 -162 Q 435 -167 447 -163 L 484 -147 Q 550 -121 591 -89 L 641 -50 L 657 -40 Q 664 -35 673 -30 Q 681 -25 686 -16 Q 686 -4 670 2 Q 653 7 627 19 C 601 31 601 31 598 16 L 595 2 Q 595 -5 569 -40 Z" fill="lightgray"></path>
				<path d="M 740 -16 L 757 -31 L 789 -63 L 839 -121 Q 852 -137 867.5 -149 Q 883 -161 889 -159 Q 898 -159 900.5 -157 Q 903 -155 910 -145.5 Q 917 -136 917 -118.5 Q 917 -101 910.5 -86.5 Q 904 -72 889 -62 Q 874 -52 841 -34 Q 799 -15 797 -15 L 761 -5 Q 749 -3 740 0 L 738 0 Q 725 -7 740 -16 Z" fill="lightgray"></path>
</g>
		<text x="40" y="140" font-size="128" fill="#999999">2</text></g>
		<g id="id0:id2:id2" transform="matrix(1.0,0,0,1.0,2048,0.0)">			<g stroke="lightgray" stroke-width="4" transform="scale(4, 4)"> <rect x="0" y="0" width="256" height="256" fill="white" stroke-width="4"/></g>
			<g transform="scale(0.92, -0.92) translate(60, -920)">					<path d="M 334 566 L 387 586 Q 413 597 439.5 603.5 Q 466 610 469 612 Q 480 615 480 624 Q 480 628 472 641 Q 463 651 447 665 Q 417 686 402 680 Q 397 678 392 669 Q 383 658 359 642 L 323 615 L 266 583 Q 224 561 206 554 L 158 532 Q 149 527 150 522.5 Q 151 518 164 519 L 186 522 Q 206 524 225 530 L 296 552 L 334 566 Z" fill="black"></path>
				<path d="M 363 375 L 419 382 L 459 385 Q 470 387 481.5 388.5 Q 493 390 493 394.5 Q 493 399 486.5 407.5 Q 480 416 459 424.5 Q 438 433 417 426 Q 404 424 393 422 L 367 416 L 312 407 L 258 396 L 86 369 Q 77 367 75 362 Q 74 356 80 350 Q 86 344 93 341 L 115 332 Q 131 325 138.5 325.5 Q 146 326 178 334 L 296 362 L 363 375 Z" fill="black"></path>
				<path d="M 309 265 L 302 147 Q 295 58 285 1 L 271 -62 Q 269 -90 298 -140 Q 305 -149 308 -150 Q 313 -152 328 -129 Q 343 -106 348 -68 L 348 -4 L 356 281 L 358 303 L 363 375 L 367 416 L 374 476 Q 375 495 379 508 L 384 528 Q 386 533 384 538 Q 382 546 371 550 Q 362 555 334 566 C 306 577 289 581 296 552 L 300 535 Q 308 507 312 407 L 309 265 Z" fill="red"></path>
				<path d="M 296 362 L 288 340 Q 279 317 266 296 L 228 236 Q 209 208 188 179 Q 122 103 98 83 L 68 55 Q 63 50 65 45 Q 66 39 76 44 L 106 58 Q 160 85 210 135 Q 237 164 257 188 Q 276 212 309 265 C 383 384 306 390 296 362 Z" fill="lightgray"></path>
				<path d="M 356 281 L 392 242 L 404 225 L 436 188 Q 458 176 465 183 Q 480 194 480 213 Q 480 232 476 241 Q 471 249 450 266 Q 429 282 390 295 L 358 303 C 329 310 336 303 356 281 Z" fill="lightgray"></path>
				<path d="M 734 549 L 862 566 Q 894 569 900 584 Q 901 594 882 601.5 Q 863 609 849 609 Q 802 607 738 588 L 671 579 L 534 562 L 508 557 Q 504 554 504 552 Q 501 549 509 543 Q 521 536 535.5 531.5 Q 550 527 671 541 L 734 549 Z" fill="lightgray"></path>
				<path d="M 775 504 L 732 495 L 669 486 L 555 471 Q 548 470 548 466 Q 546 461 555 449 Q 564 440 612 440 L 669 446 L 730 455 L 784 464 L 831 470 Q 859 472 862 484 Q 862 496 834.5 501 Q 807 506 799 506 L 775 504 Z" fill="lightgray"></path>
				<path d="M 732 495 L 734 549 L 738 588 L 743 654 L 753 692 L 751 702 Q 749 708 738 713 Q 732 719 712 724 Q 692 728 676 728 L 665 728 Q 658 728 654 724 Q 652 715 653 713 Q 654 711 663 697 Q 671 682 670 648 Q 669 614 671 608 L 671 579 L 671 541 L 669 486 L 669 446 L 669 388 C 669 358 721 366 724 396 L 730 455 L 732 495 Z" fill="lightgray"></path>
				<path d="M 669 388 L 476 365 Q 447 361 444.5 358.5 Q 442 356 442 352 Q 442 348 457.5 339.5 Q 473 331 485 327 Q 504 324 513 325 L 532 330 Q 554 338 700 357 L 786 367 Q 829 372 869 374 L 954 378 Q 1004 382 1005.5 385 Q 1007 388 1007 392 Q 1007 396 996.5 406.5 Q 986 417 964.5 422.5 Q 943 428 928 428 L 893 422 L 724 396 L 669 388 Z" fill="lightgray"></path>
				<path d="M 605 294 L 587 300 L 575 306 Q 544 315 540 311 Q 536 307 543 286 Q 549 265 553 209 Q 553 113 536 85 Q 528 77 528 74 Q 526 72 526 65 Q 524 41 537 22 Q 549 2 556 -3 Q 566 -6 573 1 Q 582 17 583 18 L 590 51 L 593 68 L 594 72 L 595 102 L 598 130 L 598 183 L 600 209 L 602 263 C 603 293 607 293 605 294 Z" fill="lightgray"></path>
				<path d="M 815 37 L 825 19 Q 826 18 837 7 Q 848 -5 857 1 Q 876 11 879 68 L 880 96 L 881 100 L 880 171 Q 876 238 887 263 Q 898 287 895 294 Q 892 301 875 311 L 846 327 L 825 334 Q 822 335 818 335 Q 813 335 794 329 Q 775 322 758 320 L 721 312 L 605 294 C 575 289 572 262 602 263 L 623 264 Q 631 264 658 270 L 724 286 Q 772 295 795 291 Q 809 286 813 268 L 815 246 Q 815 229 816 224 L 817 212 L 816 148 L 818 126 L 812 68 L 815 37 Z" fill="lightgray"></path>
				<path d="M 598 183 L 615 180 L 665 185 L 738 195 Q 789 200 798 204 Q 807 207 817 212 C 828 217 828 217 816 224 L 798 234 Q 786 240 771 239 Q 756 238 715 230 L 600 209 C 570 204 568 188 598 183 Z" fill="lightgray"></path>
				<path d="M 595 102 L 614 99 Q 615 98 636 100 L 690 109 L 818 126 C 848 130 843 135 816 148 L 795 158 Q 788 159 775 161 Q 758 161 755 160 L 598 130 C 569 124 565 107 595 102 Z" fill="lightgray"></path>
				<path d="M 627 19 L 724 30 Q 756 33 815 37 C 845 39 841 60 812 68 L 786 75 L 590 51 C 560 47 553 22 583 18 L 598 16 L 627 19 Z" fill="lightgray"></path>
				<path d="M 569 -40 L 535 -75 Q 500 -106 496 -111 L 440 -151 Q 432 -157 434 -162 Q 435 -167 447 -163 L 484 -147 Q 550 -121 591 -89 L 641 -50 L 657 -40 Q 664 -35 673 -30 Q 681 -25 686 -16 Q 686 -4 670 2 Q 653 7 627 19 C 601 31 601 31 598 16 L 595 2 Q 595 -5 569 -40 Z" fill="lightgray"></path>
				<path d="M 740 -16 L 757 -31 L 789 -63 L 839 -121 Q 852 -137 867.5 -149 Q 883 -161 889 -159 Q 898 -159 900.5 -157 Q 903 -155 910 -145.5 Q 917 -136 917 -118.5 Q 917 -101 910.5 -86.5 Q 904 -72 889 -62 Q 874 -52 841 -34 Q 799 -15 797 -15 L 761 -5 Q 749 -3 740 0 L 738 0 Q 725 -7 740 -16 Z" fill="lightgray"></path>
</g>
		<text x="40" y="140" font-size="128" fill="#999999">3</text></g>
		<g id="id0:id3:id3" transform="matrix(1.0,0,0,1.0,3072,0.0)">			<g stroke="lightgray" stroke-width="4" transform="scale(4, 4)"> <rect x="0" y="0" width="256" height="256" fill="white" stroke-width="4"/></g>
			<g transform="scale(0.92, -0.92) translate(60, -920)">					<path d="M 334 566 L 387 586 Q 413 597 439.5 603.5 Q 466 610 469 612 Q 480 615 480 624 Q 480 628 472 641 Q 463 651 447 665 Q 417 686 402 680 Q 397 678 392 669 Q 383 658 359 642 L 323 615 L 266 583 Q 224 561 206 554 L 158 532 Q 149 527 150 522.5 Q 151 518 164 519 L 186 522 Q 206 524 225 530 L 296 552 L 334 566 Z" fill="black"></path>
				<path d="M 363 375 L 419 382 L 459 385 Q 470 387 481.5 388.5 Q 493 390 493 394.5 Q 493 399 486.5 407.5 Q 480 416 459 424.5 Q 438 433 417 426 Q 404 424 393 422 L 367 416 L 312 407 L 258 396 L 86 369 Q 77 367 75 362 Q 74 356 80 350 Q 86 344 93 341 L 115 332 Q 131 325 138.5 325.5 Q 146 326 178 334 L 296 362 L 363 375 Z" fill="black"></path>
				<path d="M 309 265 L 302 147 Q 295 58 285 1 L 271 -62 Q 269 -90 298 -140 Q 305 -149 308 -150 Q 313 -152 328 -129 Q 343 -106 348 -68 L 348 -4 L 356 281 L 358 303 L 363 375 L 367 416 L 374 476 Q 375 495 379 508 L 384 528 Q 386 533 384 538 Q 382 546 371 550 Q 362 555 334 566 C 306 577 289 581 296 552 L 300 535 Q 308 507 312 407 L 309 265 Z" fill="black"></path>
				<path d="M 296 362 L 288 340 Q 279 317 266 296 L 228 236 Q 209 208 188 179 Q 122 103 98 83 L 68 55 Q 63 50 65 45 Q 66 39 76 44 L 106 58 Q 160 85 210 135 Q 237 164 257 188 Q 276 212 309 265 C 383 384 306 390 296 362 Z" fill="red"></path>
				<path d="M 356 281 L 392 242 L 404 225 L 436 188 Q 458 176 465 183 Q 480 194 480 213 Q 480 232 476 241 Q 471 249 450 266 Q 429 282 390 295 L 358 303 C 329 310 336 303 356 281 Z" fill="lightgray"></path>
				<path d="M 734 549 L 862 566 Q 894 569 900 584 Q 901 594 882 601.5 Q 863 609 849 609 Q 802 607 738 588 L 671 579 L 534 562 L 508 557 Q 504 554 504 552 Q 501 549 509 543 Q 521 536 535.5 531.5 Q 550 527 671 541 L 734 549 Z" fill="lightgray"></path>
				<path d="M 775 504 L 732 495 L 669 486 L 555 471 Q 548 470 548 466 Q 546 461 555 449 Q 564 440 612 440 L 669 446 L 730 455 L 784 464 L 831 470 Q 859 472 862 484 Q 862 496 834.5 501 Q 807 506 799 506 L 775 504 Z" fill="lightgray"></path>
				<path d="M 732 495 L 734 549 L 738 588 L 743 654 L 753 692 L 751 702 Q 749 708 738 713 Q 732 719 712 724 Q 692 728 676 728 L 665 728 Q 658 728 654 724 Q 652 715 653 713 Q 654 711 663 697 Q 671 682 670 648 Q 669 614 671 608 L 671 579 L 671 541 L 669 486 L 669 446 L 669 388 C 669 358 721 366 724 396 L 730 455 L 732 495 Z" fill="lightgray"></path>
				<path d="M 669 388 L 476 365 Q 447 361 444.5 358.5 Q 442 356 442 352 Q 442 348 457.5 339.5 Q 473 331 485 327 Q 504 324 513 325 L 532 330 Q 554 338 700 357 L 786 367 Q 829 372 869 374 L 954 378 Q 1004 382 1005.5 385 Q 1007 388 1007 392 Q 1007 396 996.5 406.5 Q 986 417 964.5 422.5 Q 943 428 928 428 L 893 422 L 724 396 L 669 388 Z" fill="lightgray"></path>
				<path d="M 605 294 L 587 300 L 575 306 Q 544 315 540 311 Q 536 307 543 286 Q 549 265 553 209 Q 553 113 536 85 Q 528 77 528 74 Q 526 72 526 65 Q 524 41 537 22 Q 549 2 556 -3 Q 566 -6 573 1 Q 582 17 583 18 L 590 51 L 593 68 L 594 72 L 595 102 L 598 130 L 598 183 L 600 209 L 602 263 C 603 293 607 293 605 294 Z" fill="lightgray"></path>
				<path d="M 815 37 L 825 19 Q 826 18 837 7 Q 848 -5 857 1 Q 876 11 879 68 L 880 96 L 881 100 L 880 171 Q 876 238 887 263 Q 898 287 895 294 Q 892 301 875 311 L 846 327 L 825 334 Q 822 335 818 335 Q 813 335 794 329 Q 775 322 758 320 L 721 312 L 605 294 C 575 289 572 262 602 263 L 623 264 Q 631 264 658 270 L 724 286 Q 772 295 795 291 Q 809 286 813 268 L 815 246 Q 815 229 816 224 L 817 212 L 816 148 L 818 126 L 812 68 L 815 37 Z" fill="lightgray"></path>
				<path d="M 598 183 L 615 180 L 665 185 L 738 195 Q 789 200 798 204 Q 807 207 817 212 C 828 217 828 217 816 224 L 798 234 Q 786 240 771 239 Q 756 238 715 230 L 600 209 C 570 204 568 188 598 183 Z" fill="lightgray"></path>
				<path d="M 595 102 L 614 99 Q 615 98 636 100 L 690 109 L 818 126 C 848 130 843 135 816 148 L 795 158 Q 788 159 775 161 Q 758 161 755 160 L 598 130 C 569 124 565 107 595 102 Z" fill="lightgray"></path>
				<path d="M 627 19 L 724 30 Q 756 33 815 37 C 845 39 841 60 812 68 L 786 75 L 590 51 C 560 47 553 22 583 18 L 598 16 L 627 19 Z" fill="lightgray"></path>
				<path d="M 569 -40 L 535 -75 Q 500 -106 496 -111 L 440 -151 Q 432 -157 434 -162 Q 435 -167 447 -163 L 484 -147 Q 550 -121 591 -89 L 641 -50 L 657 -40 Q 664 -35 673 -30 Q 681 -25 686 -16 Q 686 -4 670 2 Q 653 7 627 19 C 601 31 601 31 598 16 L 595 2 Q 595 -5 569 -40 Z" fill="lightgray"></path>
				<path d="M 740 -16 L 757 -31 L 789 -63 L 839 -121 Q 852 -137 867.5 -149 Q 883 -161 889 -159 Q 898 -159 900.5 -157 Q 903 -155 910 -145.5 Q 917 -136 917 -118.5 Q 917 -101 910.5 -86.5 Q 904 -72 889 -62 Q 874 -52 841 -34 Q 799 -15 797 -15 L 761 -5 Q 749 -3 740 0 L 738 0 Q 725 -7 740 -16 Z" fill="lightgray"></path>
</g>
		<text x="40" y="140" font-size="128" fill="#999999">4</text></g>
		<g id="id0:id4:id4" transform="matrix(1.0,0,0,1.0,4096,0.0)">			<g stroke="lightgray" stroke-width="4" transform="scale(4, 4)"> <rect x="0" y="0" width="256" height="256" fill="white" stroke-width="4"/></g>
			<g transform="scale(0.92, -0.92) translate(60, -920)">					<path d="M 334 566 L 387 586 Q 413 597 439.5 603.5 Q 466 610 469 612 Q 480 615 480 624 Q 480 628 472 641 Q 463 651 447 665 Q 417 686 402 680 Q 397 678 392 669 Q 383 658 359 642 L 323 615 L 266 583 Q 224 561 206 554 L 158 532 Q 149 527 150 522.5 Q 151 518 164 519 L 186 522 Q 206 524 225 530 L 296 552 L 334 566 Z" fill="black"></path>
				<path d="M 363 375 L 419 382 L 459 385 Q 470 387 481.5 388.5 Q 493 390 493 394.5 Q 493 399 486.5 407.5 Q 480 416 459 424.5 Q 438 433 417 426 Q 404 424 393 422 L 367 416 L 312 407 L 258 396 L 86 369 Q 77 367 75 362 Q 74 356 80 350 Q 86 344 93 341 L 115 332 Q 131 325 138.5 325.5 Q 146 326 178 334 L 296 362 L 363 375 Z" fill="black"></path>
				<path d="M 309 265 L 302 147 Q 295 58 285 1 L 271 -62 Q 269 -90 298 -140 Q 305 -149 308 -150 Q 313 -152 328 -129 Q 343 -106 348 -68 L 348 -4 L 356 281 L 358 303 L 363 375 L 367 416 L 374 476 Q 375 495 379 508 L 384 528 Q 386 533 384 538 Q 382 546 371 550 Q 362 555 334 566 C 306 577 289 581 296 552 L 300 535 Q 308 507 312 407 L 309 265 Z" fill="black"></path>
				<path d="M 296 362 L 288 340 Q 279 317 266 296 L 228 236 Q 209 208 188 179 Q 122 103 98 83 L 68 55 Q 63 50 65 45 Q 66 39 76 44 L 106 58 Q 160 85 210 135 Q 237 164 257 188 Q 276 212 309 265 C 383 384 306 390 296 362 Z" fill="black"></path>
				<path d="M 356 281 L 392 242 L 404 225 L 436 188 Q 458 176 465 183 Q 480 194 480 213 Q 480 232 476 241 Q 471 249 450 266 Q 429 282 390 295 L 358 303 C 329 310 336 303 356 281 Z" fill="red"></path>
				<path d="M 734 549 L 862 566 Q 894 569 900 584 Q 901 594 882 601.5 Q 863 609 849 609 Q 802 607 738 588 L 671 579 L 534 562 L 508 557 Q 504 554 504 552 Q 501 549 509 543 Q 521 536 535.5 531.5 Q 550 527 671 541 L 734 549 Z" fill="lightgray"></path>
				<path d="M 775 504 L 732 495 L 669 486 L 555 471 Q 548 470 548 466 Q 546 461 555 449 Q 564 440 612 440 L 669 446 L 730 455 L 784 464 L 831 470 Q 859 472 862 484 Q 862 496 834.5 501 Q 807 506 799 506 L 775 504 Z" fill="lightgray"></path>
				<path d="M 732 495 L 734 549 L 738 588 L 743 654 L 753 692 L 751 702 Q 749 708 738 713 Q 732 719 712 724 Q 692 728 676 728 L 665 728 Q 658 728 654 724 Q 652 715 653 713 Q 654 711 663 697 Q 671 682 670 648 Q 669 614 671 608 L 671 579 L 671 541 L 669 486 L 669 446 L 669 388 C 669 358 721 366 724 396 L 730 455 L 732 495 Z" fill="lightgray"></path>
				<path d="M 669 388 L 476 365 Q 447 361 444.5 358.5 Q 442 356 442 352 Q 442 348 457.5 339.5 Q 473 331 485 327 Q 504 324 513 325 L 532 330 Q 554 338 700 357 L 786 367 Q 829 372 869 374 L 954 378 Q 1004 382 1005.5 385 Q 1007 388 1007 392 Q 1007 396 996.5 406.5 Q 986 417 964.5 422.5 Q 943 428 928 428 L 893 422 L 724 396 L 669 388 Z" fill="lightgray"></path>
				<path d="M 605 294 L 587 300 L 575 306 Q 544 315 540 311 Q 536 307 543 286 Q 549 265 553 209 Q 553 113 536 85 Q 528 77 528 74 Q 526 72 526 65 Q 524 41 537 22 Q 549 2 556 -3 Q 566 -6 573 1 Q 582 17 583 18 L 590 51 L 593 68 L 594 72 L 595 102 L 598 130 L 598 183 L 600 209 L 602 263 C 603 293 607 293 605 294 Z" fill="lightgray"></path>
				<path d="M 815 37 L 825 19 Q 826 18 837 7 Q 848 -5 857 1 Q 876 11 879 68 L 880 96 L 881 100 L 880 171 Q 876 238 887 263 Q 898 287 895 294 Q 892 301 875 311 L 846 327 L 825 334 Q 822 335 818 335 Q 813 335 794 329 Q 775 322 758 320 L 721 312 L 605 294 C 575 289 572 262 602 263 L 623 264 Q 631 264 658 270 L 724 286 Q 772 295 795 291 Q 809 286 813 268 L 815 246 Q 815 229 816 224 L 817 212 L 816 148 L 818 126 L 812 68 L 815 37 Z" fill="lightgray"></path>
				<path d="M 598 183 L 615 180 L 665 185 L 738 195 Q 789 200 798 204 Q 807 207 817 212 C 828 217 828 217 816 224 L 798 234 Q 786 240 771 239 Q 756 238 715 230 L 600 209 C 570 204 568 188 598 183 Z" fill="lightgray"></path>
				<path d="M 595 102 L 614 99 Q 615 98 636 100 L 690 109 L 818 126 C 848 130 843 135 816 148 L 795 158 Q 788 159 775 161 Q 758 161 755 160 L 598 130 C 569 124 565 107 595 102 Z" fill="lightgray"></path>
				<path d="M 627 19 L 724 30 Q 756 33 815 37 C 845 39 841 60 812 68 L 786 75 L 590 51 C 560 47 553 22 583 18 L 598 16 L 627 19 Z" fill="lightgray"></path>
				<path d="M 569 -40 L 535 -75 Q 500 -106 496 -111 L 440 -151 Q 432 -157 434 -162 Q 435 -167 447 -163 L 484 -147 Q 550 -121 591 -89 L 641 -50 L 657 -40 Q 664 -35 673 -30 Q 681 -25 686 -16 Q 686 -4 670 2 Q 653 7 627 19 C 601 31 601 31 598 16 L 595 2 Q 595 -5 569 -40 Z" fill="lightgray"></path>
				<path d="M 740 -16 L 757 -31 L 789 -63 L 839 -121 Q 852 -137 867.5 -149 Q 883 -161 889 -159 Q 898 -159 900.5 -157 Q 903 -155 910 -145.5 Q 917 -136 917 -118.5 Q 917 -101 910.5 -86.5 Q 904 -72 889 -62 Q 874 -52 841 -34 Q 799 -15 797 -15 L 761 -5 Q 749 -3 740 0 L 738 0 Q 725 -7 740 -16 Z" fill="lightgray"></path>
</g>
		<text x="40" y="140" font-size="128" fill="#999999">5</text></g>
</g>
	<g id="id1:id1" transform="translate(0.0,1024)">
		<g id="id1:id0:id0" transform="matrix(1.0,0,0,1.0,0,0.0)">			<g stroke="lightgray" stroke-width="4" transform="scale(4, 4)"> <rect x="0" y="0" width="256" height="256" fill="white" stroke-width="4"/></g>
			<g transform="scale(0.92, -0.92) translate(60, -920)">					<path d="M 334 566 L 387 586 Q 413 597 439.5 603.5 Q 466 610 469 612 Q 480 615 480 624 Q 480 628 472 641 Q 463 651 447 665 Q 417 686 402 680 Q 397 678 392 669 Q 383 658 359 642 L 323 615 L 266 583 Q 224 561 206 554 L 158 532 Q 149 527 150 522.5 Q 151 518 164 519 L 186 522 Q 206 524 225 530 L 296 552 L 334 566 Z" fill="black"></path>
				<path d="M 363 375 L 419 382 L 459 385 Q 470 387 481.5 388.5 Q 493 390 493 394.5 Q 493 399 486.5 407.5 Q 480 416 459 424.5 Q 438 433 417 426 Q 404 424 393 422 L 367 416 L 312 407 L 258 396 L 86 369 Q 77 367 75 362 Q 74 356 80 350 Q 86 344 93 341 L 115 332 Q 131 325 138.5 325.5 Q 146 326 178 334 L 296 362 L 363 375 Z" fill="black"></path>
				<path d="M 309 265 L 302 147 Q 295 58 285 1 L 271 -62 Q 269 -90 298 -140 Q 305 -149 308 -150 Q 313 -152 328 -129 Q 343 -106 348 -68 L 348 -4 L 356 281 L 358 303 L 363 375 L 367 416 L 374 476 Q 375 495 379 508 L 384 528 Q 386 533 384 538 Q 382 546 371 550 Q 362 555 334 566 C 306 577 289 581 296 552 L 300 535 Q 308 507 312 407 L 309 265 Z" fill="black"></path>
				<path d="M 296 362 L 288 340 Q 279 317 266 296 L 228 236 Q 209 208 188 179 Q 122 103 98 83 L 68 55 Q 63 50 65 45 Q 66 39 76 44 L 106 58 Q 160 85 210 135 Q 237 164 257 188 Q 276 212 309 265 C 383 384 306 390 296 362 Z" fill="black"></path>
				<path d="M 356 281 L 392 242 L 404 225 L 436 188 Q 458 176 465 183 Q 480 194 480 213 Q 480 232 476 241 Q 471 249 450 266 Q 429 282 390 295 L 358 303 C 329 310 336 303 356 281 Z" fill="black"></path>
				<path d="M 734 549 L 862 566 Q 894 569 900 584 Q 901 594 882 601.5 Q 863 609 849 609 Q 802 607 738 588 L 671 579 L 534 562 L 508 557 Q 504 554 504 552 Q 501 549 509 543 Q 521 536 535.5 531.5 Q 550 527 671 541 L 734 549 Z" fill="red"></path>
				<path d="M 775 504 L 732 495 L 669 486 L 555 471 Q 548 470 548 466 Q 546 461 555 449 Q 564 440 612 440 L 669 446 L 730 455 L 784 464 L 831 470 Q 859 472 862 484 Q 862 496 834.5 501 Q 807 506 799 506 L 775 504 Z" fill="lightgray"></path>
				<path d="M 732 495 L 734 549 L 738 588 L 743 654 L 753 692 L 751 702 Q 749 708 738 713 Q 732 719 712 724 Q 692 728 676 728 L 665 728 Q 658 728 654 724 Q 652 715 653 713 Q 654 711 663 697 Q 671 682 670 648 Q 669 614 671 608 L 671 579 L 671 541 L 669 486 L 669 446 L 669 388 C 669 358 721 366 724 396 L 730 455 L 732 495 Z" fill="lightgray"></path>
				<path d="M 669 388 L 476 365 Q 447 361 444.5 358.5 Q 442 356 442 352 Q 442 348 457.5 339.5 Q 473 331 485 327 Q 504 324 513 325 L 532 330 Q 554 338 700 357 L 786 367 Q 829 372 869 374 L 954 378 Q 1004 382 1005.5 385 Q 1007 388 1007 392 Q 1007 396 996.5 406.5 Q 986 417 964.5 422.5 Q 943 428 928 428 L 893 422 L 724 396 L 669 388 Z" fill="lightgray"></path>
				<path d="M 605 294 L 587 300 L 575 306 Q 544 315 540 311 Q 536 307 543 286 Q 549 265 553 209 Q 553 113 536 85 Q 528 77 528 74 Q 526 72 526 65 Q 524 41 537 22 Q 549 2 556 -3 Q 566 -6 573 1 Q 582 17 583 18 L 590 51 L 593 68 L 594 72 L 595 102 L 598 130 L 598 183 L 600 209 L 602 263 C 603 293 607 293 605 294 Z" fill="lightgray"></path>
				<path d="M 815 37 L 825 19 Q 826 18 837 7 Q 848 -5 857 1 Q 876 11 879 68 L 880 96 L 881 100 L 880 171 Q 876 238 887 263 Q 898 287 895 294 Q 892 301 875 311 L 846 327 L 825 334 Q 822 335 818 335 Q 813 335 794 329 Q 775 322 758 320 L 721 312 L 605 294 C 575 289 572 262 602 263 L 623 264 Q 631 264 658 270 L 724 286 Q 772 295 795 291 Q 809 286 813 268 L 815 246 Q 815 229 816 224 L 817 212 L 816 148 L 818 126 L 812 68 L 815 37 Z" fill="lightgray"></path>
				<path d="M 598 183 L 615 180 L 665 185 L 738 195 Q 789 200 798 204 Q 807 207 817 212 C 828 217 828 217 816 224 L 798 234 Q 786 240 771 239 Q 756 238 715 230 L 600 209 C 570 204 568 188 598 183 Z" fill="lightgray"></path>
				<path d="M 595 102 L 614 99 Q 615 98 636 100 L 690 109 L 818 126 C 848 130 843 135 816 148 L 795 158 Q 788 159 775 161 Q 758 161 755 160 L 598 130 C 569 124 565 107 595 102 Z" fill="lightgray"></path>
				<path d="M 627 19 L 724 30 Q 756 33 815 37 C 845 39 841 60 812 68 L 786 75 L 590 51 C 560 47 553 22 583 18 L 598 16 L 627 19 Z" fill="lightgray"></path>
				<path d="M 569 -40 L 535 -75 Q 500 -106 496 -111 L 440 -151 Q 432 -157 434 -162 Q 435 -167 447 -163 L 484 -147 Q 550 -121 591 -89 L 641 -50 L 657 -40 Q 664 -35 673 -30 Q 681 -25 686 -16 Q 686 -4 670 2 Q 653 7 627 19 C 601 31 601 31 598 16 L 595 2 Q 595 -5 569 -40 Z" fill="lightgray"></path>
				<path d="M 740 -16 L 757 -31 L 789 -63 L 839 -121 Q 852 -137 867.5 -149 Q 883 -161 889 -159 Q 898 -159 900.5 -157 Q 903 -155 910 -145.5 Q 917 -136 917 -118.5 Q 917 -101 910.5 -86.5 Q 904 -72 889 -62 Q 874 -52 841 -34 Q 799 -15 797 -15 L 761 -5 Q 749 -3 740 0 L 738 0 Q 725 -7 740 -16 Z" fill="lightgray"></path>
</g>
		<text x="40" y="140" font-size="128" fill="#999999">6</text></g>
		<g id="id1:id1:id1" transform="matrix(1.0,0,0,1.0,1024,0.0)">			<g stroke="lightgray" stroke-width="4" transform="scale(4, 4)"> <rect x="0" y="0" width="256" height="256" fill="white" stroke-width="4"/></g>
			<g transform="scale(0.92, -0.92) translate(60, -920)">					<path d="M 334 566 L 387 586 Q 413 597 439.5 603.5 Q 466 610 469 612 Q 480 615 480 624 Q 480 628 472 641 Q 463 651 447 665 Q 417 686 402 680 Q 397 678 392 669 Q 383 658 359 642 L 323 615 L 266 583 Q 224 561 206 554 L 158 532 Q 149 527 150 522.5 Q 151 518 164 519 L 186 522 Q 206 524 225 530 L 296 552 L 334 566 Z" fill="black"></path>
				<path d="M 363 375 L 419 382 L 459 385 Q 470 387 481.5 388.5 Q 493 390 493 394.5 Q 493 399 486.5 407.5 Q 480 416 459 424.5 Q 438 433 417 426 Q 404 424 393 422 L 367 416 L 312 407 L 258 396 L 86 369 Q 77 367 75 362 Q 74 356 80 350 Q 86 344 93 341 L 115 332 Q 131 325 138.5 325.5 Q 146 326 178 334 L 296 362 L 363 375 Z" fill="black"></path>
				<path d="M 309 265 L 302 147 Q 295 58 285 1 L 271 -62 Q 269 -90 298 -140 Q 305 -149 308 -150 Q 313 -152 328 -129 Q 343 -106 348 -68 L 348 -4 L 356 281 L 358 303 L 363 375 L 367 416 L 374 476 Q 375 495 379 508 L 384 528 Q 386 533 384 538 Q 382 546 371 550 Q 362 555 334 566 C 306 577 289 581 296 552 L 300 535 Q 308 507 312 407 L 309 265 Z" fill="black"></path>
				<path d="M 296 362 L 288 340 Q 279 317 266 296 L 228 236 Q 209 208 188 179 Q 122 103 98 83 L 68 55 Q 63 50 65 45 Q 66 39 76 44 L 106 58 Q 160 85 210 135 Q 237 164 257 188 Q 276 212 309 265 C 383 384 306 390 296 362 Z" fill="black"></path>
				<path d="M 356 281 L 392 242 L 404 225 L 436 188 Q 458 176 465 183 Q 480 194 480 213 Q 480 232 476 241 Q 471 249 450 266 Q 429 282 390 295 L 358 303 C 329 310 336 303 356 281 Z" fill="black"></path>
				<path d="M 734 549 L 862 566 Q 894 569 900 584 Q 901 594 882 601.5 Q 863 609 849 609 Q 802 607 738 588 L 671 579 L 534 562 L 508 557 Q 504 554 504 552 Q 501 549 509 543 Q 521 536 535.5 531.5 Q 550 527 671 541 L 734 549 Z" fill="black"></path>
				<path d="M 775 504 L 732 495 L 669 486 L 555 471 Q 548 470 548 466 Q 546 461 555 449 Q 564 440 612 440 L 669 446 L 730 455 L 784 464 L 831 470 Q 859 472 862 484 Q 862 496 834.5 501 Q 807 506 799 506 L 775 504 Z" fill="red"></path>
				<path d="M 732 495 L 734 549 L 738 588 L 743 654 L 753 692 L 751 702 Q 749 708 738 713 Q 732 719 712 724 Q 692 728 676 728 L 665 728 Q 658 728 654 724 Q 652 715 653 713 Q 654 711 663 697 Q 671 682 670 648 Q 669 614 671 608 L 671 579 L 671 541 L 669 486 L 669 446 L 669 388 C 669 358 721 366 724 396 L 730 455 L 732 495 Z" fill="lightgray"></path>
				<path d="M 669 388 L 476 365 Q 447 361 444.5 358.5 Q 442 356 442 352 Q 442 348 457.5 339.5 Q 473 331 485 327 Q 504 324 513 325 L 532 330 Q 554 338 700 357 L 786 367 Q 829 372 869 374 L 954 378 Q 1004 382 1005.5 385 Q 1007 388 1007 392 Q 1007 396 996.5 406.5 Q 986 417 964.5 422.5 Q 943 428 928 428 L 893 422 L 724 396 L 669 388 Z" fill="lightgray"></path>
				<path d="M 605 294 L 587 300 L 575 306 Q 544 315 540 311 Q 536 307 543 286 Q 549 265 553 209 Q 553 113 536 85 Q 528 77 528 74 Q 526 72 526 65 Q 524 41 537 22 Q 549 2 556 -3 Q 566 -6 573 1 Q 582 17 583 18 L 590 51 L 593 68 L 594 72 L 595 102 L 598 130 L 598 183 L 600 209 L 602 263 C 603 293 607 293 605 294 Z" fill="lightgray"></path>
				<path d="M 815 37 L 825 19 Q 826 18 837 7 Q 848 -5 857 1 Q 876 11 879 68 L 880 96 L 881 100 L 880 171 Q 876 238 887 263 Q 898 287 895 294 Q 892 301 875 311 L 846 327 L 825 334 Q 822 335 818 335 Q 813 335 794 329 Q 775 322 758 320 L 721 312 L 605 294 C 575 289 572 262 602 263 L 623 264 Q 631 264 658 270 L 724 286 Q 772 295 795 291 Q 809 286 813 268 L 815 246 Q 815 229 816 224 L 817 212 L 816 148 L 818 126 L 812 68 L 815 37 Z" fill="lightgray"></path>
				<path d="M 598 183 L 615 180 L 665 185 L 738 195 Q 789 200 798 204 Q 807 207 817 212 C 828 217 828 217 816 224 L 798 234 Q 786 240 771 239 Q 756 238 715 230 L 600 209 C 570 204 568 188 598 183 Z" fill="lightgray"></path>
				<path d="M 595 102 L 614 99 Q 615 98 636 100 L 690 109 L 818 126 C 848 130 843 135 816 148 L 795 158 Q 788 159 775 161 Q 758 161 755 160 L 598 130 C 569 124 565 107 595 102 Z" fill="lightgray"></path>
				<path d="M 627 19 L 724 30 Q 756 33 815 37 C 845 39 841 60 812 68 L 786 75 L 590 51 C 560 47 553 22 583 18 L 598 16 L 627 19 Z" fill="lightgray"></path>
				<path d="M 569 -40 L 535 -75 Q 500 -106 496 -111 L 440 -151 Q 432 -157 434 -162 Q 435 -167 447 -163 L 484 -147 Q 550 -121 591 -89 L 641 -50 L 657 -40 Q 664 -35 673 -30 Q 681 -25 686 -16 Q 686 -4 670 2 Q 653 7 627 19 C 601 31 601 31 598 16 L 595 2 Q 595 -5 569 -40 Z" fill="lightgray"></path>
				<path d="M 740 -16 L 757 -31 L 789 -63 L 839 -121 Q 852 -137 867.5 -149 Q 883 -161 889 -159 Q 898 -159 900.5 -157 Q 903 -155 910 -145.5 Q 917 -136 917 -118.5 Q 917 -101 910.5 -86.5 Q 904 -72 889 -62 Q 874 -52 841 -34 Q 799 -15 797 -15 L 761 -5 Q 749 -3 740 0 L 738 0 Q 725 -7 740 -16 Z" fill="lightgray"></path>
</g>
		<text x="40" y="140" font-size="128" fill="#999999">7</text></g>
		<g id="id1:id2:id2" transform="matrix(1.0,0,0,1.0,2048,0.0)">			<g stroke="lightgray" stroke-width="4" transform="scale(4, 4)"> <rect x="0" y="0" width="256" height="256" fill="white" stroke-width="4"/></g>
			<g transform="scale(0.92, -0.92) translate(60, -920)">					<path d="M 334 566 L 387 586 Q 413 597 439.5 603.5 Q 466 610 469 612 Q 480 615 480 624 Q 480 628 472 641 Q 463 651 447 665 Q 417 686 402 680 Q 397 678 392 669 Q 383 658 359 642 L 323 615 L 266 583 Q 224 561 206 554 L 158 532 Q 149 527 150 522.5 Q 151 518 164 519 L 186 522 Q 206 524 225 530 L 296 552 L 334 566 Z" fill="black"></path>
				<path d="M 363 375 L 419 382 L 459 385 Q 470 387 481.5 388.5 Q 493 390 493 394.5 Q 493 399 486.5 407.5 Q 480 416 459 424.5 Q 438 433 417 426 Q 404 424 393 422 L 367 416 L 312 407 L 258 396 L 86 369 Q 77 367 75 362 Q 74 356 80 350 Q 86 344 93 341 L 115 332 Q 131 325 138.5 325.5 Q 146 326 178 334 L 296 362 L 363 375 Z" fill="black"></path>
				<path d="M 309 265 L 302 147 Q 295 58 285 1 L 271 -62 Q 269 -90 298 -140 Q 305 -149 308 -150 Q 313 -152 328 -129 Q 343 -106 348 -68 L 348 -4 L 356 281 L 358 303 L 363 375 L 367 416 L 374 476 Q 375 495 379 508 L 384 528 Q 386 533 384 538 Q 382 546 371 550 Q 362 555 334 566 C 306 577 289 581 296 552 L 300 535 Q 308 507 312 407 L 309 265 Z" fill="black"></path>
				<path d="M 296 362 L 288 340 Q 279 317 266 296 L 228 236 Q 209 208 188 179 Q 122 103 98 83 L 68 55 Q 63 50 65 45 Q 66 39 76 44 L 106 58 Q 160 85 210 135 Q 237 164 257 188 Q 276 212 309 265 C 383 384 306 390 296 362 Z" fill="black"></path>
				<path d="M 356 281 L 392 242 L 404 225 L 436 188 Q 458 176 465 183 Q 480 194 480 213 Q 480 232 476 241 Q 471 249 450 266 Q 429 282 390 295 L 358 303 C 329 310 336 303 356 281 Z" fill="black"></path>
				<path d="M 734 549 L 862 566 Q 894 569 900 584 Q 901 594 882 601.5 Q 863 609 849 609 Q 802 607 738 588 L 671 579 L 534 562 L 508 557 Q 504 554 504 552 Q 501 549 509 543 Q 521 536 535.5 531.5 Q 550 527 671 541 L 734 549 Z" fill="black"></path>
				<path d="M 775 504 L 732 495 L 669 486 L 555 471 Q 548 470 548 466 Q 546 461 555 449 Q 564 440 612 440 L 669 446 L 730 455 L 784 464 L 831 470 Q 859 472 862 484 Q 862 496 834.5 501 Q 807 506 799 506 L 775 504 Z" fill="black"></path>
				<path d="M 732 495 L 734 549 L 738 588 L 743 654 L 753 692 L 751 702 Q 749 708 738 713 Q 732 719 712 724 Q 692 728 676 728 L 665 728 Q 658 728 654 724 Q 652 715 653 713 Q 654 711 663 697 Q 671 682 670 648 Q 669 614 671 608 L 671 579 L 671 541 L 669 486 L 669 446 L 669 388 C 669 358 721 366 724 396 L 730 455 L 732 495 Z" fill="red"></path>
				<path d="M 669 388 L 476 365 Q 447 361 444.5 358.5 Q 442 356 442 352 Q 442 348 457.5 339.5 Q 473 331 485 327 Q 504 324 513 325 L 532 330 Q 554 338 700 357 L 786 367 Q 829 372 869 374 L 954 378 Q 1004 382 1005.5 385 Q 1007 388 1007 392 Q 1007 396 996.5 406.5 Q 986 417 964.5 422.5 Q 943 428 928 428 L 893 422 L 724 396 L 669 388 Z" fill="lightgray"></path>
				<path d="M 605 294 L 587 300 L 575 306 Q 544 315 540 311 Q 536 307 543 286 Q 549 265 553 209 Q 553 113 536 85 Q 528 77 528 74 Q 526 72 526 65 Q 524 41 537 22 Q 549 2 556 -3 Q 566 -6 573 1 Q 582 17 583 18 L 590 51 L 593 68 L 594 72 L 595 102 L 598 130 L 598 183 L 600 209 L 602 263 C 603 293 607 293 605 294 Z" fill="lightgray"></path>
				<path d="M 815 37 L 825 19 Q 826 18 837 7 Q 848 -5 857 1 Q 876 11 879 68 L 880 96 L 881 100 L 880 171 Q 876 238 887 263 Q 898 287 895 294 Q 892 301 875 311 L 846 327 L 825 334 Q 822 335 818 335 Q 813 335 794 329 Q 775 322 758 320 L 721 312 L 605 294 C 575 289 572 262 602 263 L 623 264 Q 631 264 658 270 L 724 286 Q 772 295 795 291 Q 809 286 813 268 L 815 246 Q 815 229 816 224 L 817 212 L 816 148 L 818 126 L 812 68 L 815 37 Z" fill="lightgray"></path>
				<path d="M 598 183 L 615 180 L 665 185 L 738 195 Q 789 200 798 204 Q 807 207 817 212 C 828 217 828 217 816 224 L 798 234 Q 786 240 771 239 Q 756 238 715 230 L 600 209 C 570 204 568 188 598 183 Z" fill="lightgray"></path>
				<path d="M 595 102 L 614 99 Q 615 98 636 100 L 690 109 L 818 126 C 848 130 843 135 816 148 L 795 158 Q 788 159 775 161 Q 758 161 755 160 L 598 130 C 569 124 565 107 595 102 Z" fill="lightgray"></path>
				<path d="M 627 19 L 724 30 Q 756 33 815 37 C 845 39 841 60 812 68 L 786 75 L 590 51 C 560 47 553 22 583 18 L 598 16 L 627 19 Z" fill="lightgray"></path>
				<path d="M 569 -40 L 535 -75 Q 500 -106 496 -111 L 440 -151 Q 432 -157 434 -162 Q 435 -167 447 -163 L 484 -147 Q 550 -121 591 -89 L 641 -50 L 657 -40 Q 664 -35 673 -30 Q 681 -25 686 -16 Q 686 -4 670 2 Q 653 7 627 19 C 601 31 601 31 598 16 L 595 2 Q 595 -5 569 -40 Z" fill="lightgray"></path>
				<path d="M 740 -16 L 757 -31 L 789 -63 L 839 -121 Q 852 -137 867.5 -149 Q 883 -161 889 -159 Q 898 -159 900.5 -157 Q 903 -155 910 -145.5 Q 917 -136 917 -118.5 Q 917 -101 910.5 -86.5 Q 904 -72 889 -62 Q 874 -52 841 -34 Q 799 -15 797 -15 L 761 -5 Q 749 -3 740 0 L 738 0 Q 725 -7 740 -16 Z" fill="lightgray"></path>
</g>
		<text x="40" y="140" font-size="128" fill="#999999">8</text></g>
		<g id="id1:id3:id3" transform="matrix(1.0,0,0,1.0,3072,0.0)">			<g stroke="lightgray" stroke-width="4" transform="scale(4, 4)"> <rect x="0" y="0" width="256" height="256" fill="white" stroke-width="4"/></g>
			<g transform="scale(0.92, -0.92) translate(60, -920)">					<path d="M 334 566 L 387 586 Q 413 597 439.5 603.5 Q 466 610 469 612 Q 480 615 480 624 Q 480 628 472 641 Q 463 651 447 665 Q 417 686 402 680 Q 397 678 392 669 Q 383 658 359 642 L 323 615 L 266 583 Q 224 561 206 554 L 158 532 Q 149 527 150 522.5 Q 151 518 164 519 L 186 522 Q 206 524 225 530 L 296 552 L 334 566 Z" fill="black"></path>
				<path d="M 363 375 L 419 382 L 459 385 Q 470 387 481.5 388.5 Q 493 390 493 394.5 Q 493 399 486.5 407.5 Q 480 416 459 424.5 Q 438 433 417 426 Q 404 424 393 422 L 367 416 L 312 407 L 258 396 L 86 369 Q 77 367 75 362 Q 74 356 80 350 Q 86 344 93 341 L 115 332 Q 131 325 138.5 325.5 Q 146 326 178 334 L 296 362 L 363 375 Z" fill="black"></path>
				<path d="M 309 265 L 302 147 Q 295 58 285 1 L 271 -62 Q 269 -90 298 -140 Q 305 -149 308 -150 Q 313 -152 328 -129 Q 343 -106 348 -68 L 348 -4 L 356 281 L 358 303 L 363 375 L 367 416 L 374 476 Q 375 495 379 508 L 384 528 Q 386 533 384 538 Q 382 546 371 550 Q 362 555 334 566 C 306 577 289 581 296 552 L 300 535 Q 308 507 312 407 L 309 265 Z" fill="black"></path>
				<path d="M 296 362 L 288 340 Q 279 317 266 296 L 228 236 Q 209 208 188 179 Q 122 103 98 83 L 68 55 Q 63 50 65 45 Q 66 39 76 44 L 106 58 Q 160 85 210 135 Q 237 164 257 188 Q 276 212 309 265 C 383 384 306 390 296 362 Z" fill="black"></path>
				<path d="M 356 281 L 392 242 L 404 225 L 436 188 Q 458 176 465 183 Q 480 194 480 213 Q 480 232 476 241 Q 471 249 450 266 Q 429 282 390 295 L 358 303 C 329 310 336 303 356 281 Z" fill="black"></path>
				<path d="M 734 549 L 862 566 Q 894 569 900 584 Q 901 594 882 601.5 Q 863 609 849 609 Q 802 607 738 588 L 671 579 L 534 562 L 508 557 Q 504 554 504 552 Q 501 549 509 543 Q 521 536 535.5 531.5 Q 550 527 671 541 L 734 549 Z" fill="black"></path>
				<path d="M 775 504 L 732 495 L 669 486 L 555 471 Q 548 470 548 466 Q 546 461 555 449 Q 564 440 612 440 L 669 446 L 730 455 L 784 464 L 831 470 Q 859 472 862 484 Q 862 496 834.5 501 Q 807 506 799 506 L 775 504 Z" fill="black"></path>
				<path d="M 732 495 L 734 549 L 738 588 L 743 654 L 753 692 L 751 702 Q 749 708 738 713 Q 732 719 712 724 Q 692 728 676 728 L 665 728 Q 658 728 654 724 Q 652 715 653 713 Q 654 711 663 697 Q 671 682 670 648 Q 669 614 671 608 L 671 579 L 671 541 L 669 486 L 669 446 L 669 388 C 669 358 721 366 724 396 L 730 455 L 732 495 Z" fill="black"></path>
				<path d="M 669 388 L 476 365 Q 447 361 444.5 358.5 Q 442 356 442 352 Q 442 348 457.5 339.5 Q 473 331 485 327 Q 504 324 513 325 L 532 330 Q 554 338 700 357 L 786 367 Q 829 372 869 374 L 954 378 Q 1004 382 1005.5 385 Q 1007 388 1007 392 Q 1007 396 996.5 406.5 Q 986 417 964.5 422.5 Q 943 428 928 428 L 893 422 L 724 396 L 669 388 Z" fill="red"></path>
				<path d="M 605 294 L 587 300 L 575 306 Q 544 315 540 311 Q 536 307 543 286 Q 549 265 553 209 Q 553 113 536 85 Q 528 77 528 74 Q 526 72 526 65 Q 524 41 537 22 Q 549 2 556 -3 Q 566 -6 573 1 Q 582 17 583 18 L 590 51 L 593 68 L 594 72 L 595 102 L 598 130 L 598 183 L 600 209 L 602 263 C 603 293 607 293 605 294 Z" fill="lightgray"></path>
				<path d="M 815 37 L 825 19 Q 826 18 837 7 Q 848 -5 857 1 Q 876 11 879 68 L 880 96 L 881 100 L 880 171 Q 876 238 887 263 Q 898 287 895 294 Q 892 301 875 311 L 846 327 L 825 334 Q 822 335 818 335 Q 813 335 794 329 Q 775 322 758 320 L 721 312 L 605 294 C 575 289 572 262 602 263 L 623 264 Q 631 264 658 270 L 724 286 Q 772 295 795 291 Q 809 286 813 268 L 815 246 Q 815 229 816 224 L 817 212 L 816 148 L 818 126 L 812 68 L 815 37 Z" fill="lightgray"></path>
				<path d="M 598 183 L 615 180 L 665 185 L 738 195 Q 789 200 798 204 Q 807 207 817 212 C 828 217 828 217 816 224 L 798 234 Q 786 240 771 239 Q 756 238 715 230 L 600 209 C 570 204 568 188 598 183 Z" fill="lightgray"></path>
				<path d="M 595 102 L 614 99 Q 615 98 636 100 L 690 109 L 818 126 C 848 130 843 135 816 148 L 795 158 Q 788 159 775 161 Q 758 161 755 160 L 598 130 C 569 124 565 107 595 102 Z" fill="lightgray"></path>
				<path d="M 627 19 L 724 30 Q 756 33 815 37 C 845 39 841 60 812 68 L 786 75 L 590 51 C 560 47 553 22 583 18 L 598 16 L 627 19 Z" fill="lightgray"></path>
				<path d="M 569 -40 L 535 -75 Q 500 -106 496 -111 L 440 -151 Q 432 -157 434 -162 Q 435 -167 447 -163 L 484 -147 Q 550 -121 591 -89 L 641 -50 L 657 -40 Q 664 -35 673 -30 Q 681 -25 686 -16 Q 686 -4 670 2 Q 653 7 627 19 C 601 31 601 31 598 16 L 595 2 Q 595 -5 569 -40 Z" fill="lightgray"></path>
				<path d="M 740 -16 L 757 -31 L 789 -63 L 839 -121 Q 852 -137 867.5 -149 Q 883 -161 889 -159 Q 898 -159 900.5 -157 Q 903 -155 910 -145.5 Q 917 -136 917 -118.5 Q 917 -101 910.5 -86.5 Q 904 -72 889 -62 Q 874 -52 841 -34 Q 799 -15 797 -15 L 761 -5 Q 749 -3 740 0 L 738 0 Q 725 -7 740 -16 Z" fill="lightgray"></path>
</g>
		<text x="40" y="140" font-size="128" fill="#999999">9</text></g>
		<g id="id1:id4:id4" transform="matrix(1.0,0,0,1.0,4096,0.0)">			<g stroke="lightgray" stroke-width="4" transform="scale(4, 4)"> <rect x="0" y="0" width="256" height="256" fill="white" stroke-width="4"/></g>
			<g transform="scale(0.92, -0.92) translate(60, -920)">					<path d="M 334 566 L 387 586 Q 413 597 439.5 603.5 Q 466 610 469 612 Q 480 615 480 624 Q 480 628 472 641 Q 463 651 447 665 Q 417 686 402 680 Q 397 678 392 669 Q 383 658 359 642 L 323 615 L 266 583 Q 224 561 206 554 L 158 532 Q 149 527 150 522.5 Q 151 518 164 519 L 186 522 Q 206 524 225 530 L 296 552 L 334 566 Z" fill="black"></path>
				<path d="M 363 375 L 419 382 L 459 385 Q 470 387 481.5 388.5 Q 493 390 493 394.5 Q 493 399 486.5 407.5 Q 480 416 459 424.5 Q 438 433 417 426 Q 404 424 393 422 L 367 416 L 312 407 L 258 396 L 86 369 Q 77 367 75 362 Q 74 356 80 350 Q 86 344 93 341 L 115 332 Q 131 325 138.5 325.5 Q 146 326 178 334 L 296 362 L 363 375 Z" fill="black"></path>
				<path d="M 309 265 L 302 147 Q 295 58 285 1 L 271 -62 Q 269 -90 298 -140 Q 305 -149 308 -150 Q 313 -152 328 -129 Q 343 -106 348 -68 L 348 -4 L 356 281 L 358 303 L 363 375 L 367 416 L 374 476 Q 375 495 379 508 L 384 528 Q 386 533 384 538 Q 382 546 371 550 Q 362 555 334 566 C 306 577 289 581 296 552 L 300 535 Q 308 507 312 407 L 309 265 Z" fill="black"></path>
				<path d="M 296 362 L 288 340 Q 279 317 266 296 L 228 236 Q 209 208 188 179 Q 122 103 98 83 L 68 55 Q 63 50 65 45 Q 66 39 76 44 L 106 58 Q 160 85 210 135 Q 237 164 257 188 Q 276 212 309 265 C 383 384 306 390 296 362 Z" fill="black"></path>
				<path d="M 356 281 L 392 242 L 404 225 L 436 188 Q 458 176 465 183 Q 480 194 480 213 Q 480 232 476 241 Q 471 249 450 266 Q 429 282 390 295 L 358 303 C 329 310 336 303 356 281 Z" fill="black"></path>
				<path d="M 734 549 L 862 566 Q 894 569 900 584 Q 901 594 882 601.5 Q 863 609 849 609 Q 802 607 738 588 L 671 579 L 534 562 L 508 557 Q 504 554 504 552 Q 501 549 509 543 Q 521 536 535.5 531.5 Q 550 527 671 541 L 734 549 Z" fill="black"></path>
				<path d="M 775 504 L 732 495 L 669 486 L 555 471 Q 548 470 548 466 Q 546 461 555 449 Q 564 440 612 440 L 669 446 L 730 455 L 784 464 L 831 470 Q 859 472 862 484 Q 862 496 834.5 501 Q 807 506 799 506 L 775 504 Z" fill="black"></path>
				<path d="M 732 495 L 734 549 L 738 588 L 743 654 L 753 692 L 751 702 Q 749 708 738 713 Q 732 719 712 724 Q 692 728 676 728 L 665 728 Q 658 728 654 724 Q 652 715 653 713 Q 654 711 663 697 Q 671 682 670 648 Q 669 614 671 608 L 671 579 L 671 541 L 669 486 L 669 446 L 669 388 C 669 358 721 366 724 396 L 730 455 L 732 495 Z" fill="black"></path>
				<path d="M 669 388 L 476 365 Q 447 361 444.5 358.5 Q 442 356 442 352 Q 442 348 457.5 339.5 Q 473 331 485 327 Q 504 324 513 325 L 532 330 Q 554 338 700 357 L 786 367 Q 829 372 869 374 L 954 378 Q 1004 382 1005.5 385 Q 1007 388 1007 392 Q 1007 396 996.5 406.5 Q 986 417 964.5 422.5 Q 943 428 928 428 L 893 422 L 724 396 L 669 388 Z" fill="black"></path>
				<path d="M 605 294 L 587 300 L 575 306 Q 544 315 540 311 Q 536 307 543 286 Q 549 265 553 209 Q 553 113 536 85 Q 528 77 528 74 Q 526 72 526 65 Q 524 41 537 22 Q 549 2 556 -3 Q 566 -6 573 1 Q 582 17 583 18 L 590 51 L 593 68 L 594 72 L 595 102 L 598 130 L 598 183 L 600 209 L 602 263 C 603 293 607 293 605 294 Z" fill="red"></path>
				<path d="M 815 37 L 825 19 Q 826 18 837 7 Q 848 -5 857 1 Q 876 11 879 68 L 880 96 L 881 100 L 880 171 Q 876 238 887 263 Q 898 287 895 294 Q 892 301 875 311 L 846 327 L 825 334 Q 822 335 818 335 Q 813 335 794 329 Q 775 322 758 320 L 721 312 L 605 294 C 575 289 572 262 602 263 L 623 264 Q 631 264 658 270 L 724 286 Q 772 295 795 291 Q 809 286 813 268 L 815 246 Q 815 229 816 224 L 817 212 L 816 148 L 818 126 L 812 68 L 815 37 Z" fill="lightgray"></path>
				<path d="M 598 183 L 615 180 L 665 185 L 738 195 Q 789 200 798 204 Q 807 207 817 212 C 828 217 828 217 816 224 L 798 234 Q 786 240 771 239 Q 756 238 715 230 L 600 209 C 570 204 568 188 598 183 Z" fill="lightgray"></path>
				<path d="M 595 102 L 614 99 Q 615 98 636 100 L 690 109 L 818 126 C 848 130 843 135 816 148 L 795 158 Q 788 159 775 161 Q 758 161 755 160 L 598 130 C 569 124 565 107 595 102 Z" fill="lightgray"></path>
				<path d="M 627 19 L 724 30 Q 756 33 815 37 C 845 39 841 60 812 68 L 786 75 L 590 51 C 560 47 553 22 583 18 L 598 16 L 627 19 Z" fill="lightgray"></path>
				<path d="M 569 -40 L 535 -75 Q 500 -106 496 -111 L 440 -151 Q 432 -157 434 -162 Q 435 -167 447 -163 L 484 -147 Q 550 -121 591 -89 L 641 -50 L 657 -40 Q 664 -35 673 -30 Q 681 -25 686 -16 Q 686 -4 670 2 Q 653 7 627 19 C 601 31 601 31 598 16 L 595 2 Q 595 -5 569 -40 Z" fill="lightgray"></path>
				<path d="M 740 -16 L 757 -31 L 789 -63 L 839 -121 Q 852 -137 867.5 -149 Q 883 -161 889 -159 Q 898 -159 900.5 -157 Q 903 -155 910 -145.5 Q 917 -136 917 -118.5 Q 917 -101 910.5 -86.5 Q 904 -72 889 -62 Q 874 -52 841 -34 Q 799 -15 797 -15 L 761 -5 Q 749 -3 740 0 L 738 0 Q 725 -7 740 -16 Z" fill="lightgray"></path>
</g>
		<text x="40" y="140" font-size="128" fill="#999999">10</text></g>
</g>
	<g id="id2:id2" transform="translate(0.0,2048)">
		<g id="id2:id0:id0" transform="matrix(1.0,0,0,1.0,0,0.0)">			<g stroke="lightgray" stroke-width="4" transform="scale(4, 4)"> <rect x="0" y="0" width="256" height="256" fill="white" stroke-width="4"/></g>
			<g transform="scale(0.92, -0.92) translate(60, -920)">					<path d="M 334 566 L 387 586 Q 413 597 439.5 603.5 Q 466 610 469 612 Q 480 615 480 624 Q 480 628 472 641 Q 463 651 447 665 Q 417 686 402 680 Q 397 678 392 669 Q 383 658 359 642 L 323 615 L 266 583 Q 224 561 206 554 L 158 532 Q 149 527 150 522.5 Q 151 518 164 519 L 186 522 Q 206 524 225 530 L 296 552 L 334 566 Z" fill="black"></path>
				<path d="M 363 375 L 419 382 L 459 385 Q 470 387 481.5 388.5 Q 493 390 493 394.5 Q 493 399 486.5 407.5 Q 480 416 459 424.5 Q 438 433 417 426 Q 404 424 393 422 L 367 416 L 312 407 L 258 396 L 86 369 Q 77 367 75 362 Q 74 356 80 350 Q 86 344 93 341 L 115 332 Q 131 325 138.5 325.5 Q 146 326 178 334 L 296 362 L 363 375 Z" fill="black"></path>
				<path d="M 309 265 L 302 147 Q 295 58 285 1 L 271 -62 Q 269 -90 298 -140 Q 305 -149 308 -150 Q 313 -152 328 -129 Q 343 -106 348 -68 L 348 -4 L 356 281 L 358 303 L 363 375 L 367 416 L 374 476 Q 375 495 379 508 L 384 528 Q 386 533 384 538 Q 382 546 371 550 Q 362 555 334 566 C 306 577 289 581 296 552 L 300 535 Q 308 507 312 407 L 309 265 Z" fill="black"></path>
				<path d="M 296 362 L 288 340 Q 279 317 266 296 L 228 236 Q 209 208 188 179 Q 122 103 98 83 L 68 55 Q 63 50 65 45 Q 66 39 76 44 L 106 58 Q 160 85 210 135 Q 237 164 257 188 Q 276 212 309 265 C 383 384 306 390 296 362 Z" fill="black"></path>
				<path d="M 356 281 L 392 242 L 404 225 L 436 188 Q 458 176 465 183 Q 480 194 480 213 Q 480 232 476 241 Q 471 249 450 266 Q 429 282 390 295 L 358 303 C 329 310 336 303 356 281 Z" fill="black"></path>
				<path d="M 734 549 L 862 566 Q 894 569 900 584 Q 901 594 882 601.5 Q 863 609 849 609 Q 802 607 738 588 L 671 579 L 534 562 L 508 557 Q 504 554 504 552 Q 501 549 509 543 Q 521 536 535.5 531.5 Q 550 527 671 541 L 734 549 Z" fill="black"></path>
				<path d="M 775 504 L 732 495 L 669 486 L 555 471 Q 548 470 548 466 Q 546 461 555 449 Q 564 440 612 440 L 669 446 L 730 455 L 784 464 L 831 470 Q 859 472 862 484 Q 862 496 834.5 501 Q 807 506 799 506 L 775 504 Z" fill="black"></path>
				<path d="M 732 495 L 734 549 L 738 588 L 743 654 L 753 692 L 751 702 Q 749 708 738 713 Q 732 719 712 724 Q 692 728 676 728 L 665 728 Q 658 728 654 724 Q 652 715 653 713 Q 654 711 663 697 Q 671 682 670 648 Q 669 614 671 608 L 671 579 L 671 541 L 669 486 L 669 446 L 669 388 C 669 358 721 366 724 396 L 730 455 L 732 495 Z" fill="black"></path>
				<path d="M 669 388 L 476 365 Q 447 361 444.5 358.5 Q 442 356 442 352 Q 442 348 457.5 339.5 Q 473 331 485 327 Q 504 324 513 325 L 532 330 Q 554 338 700 357 L 786 367 Q 829 372 869 374 L 954 378 Q 1004 382 1005.5 385 Q 1007 388 1007 392 Q 1007 396 996.5 406.5 Q 986 417 964.5 422.5 Q 943 428 928 428 L 893 422 L 724 396 L 669 388 Z" fill="black"></path>
				<path d="M 605 294 L 587 300 L 575 306 Q 544 315 540 311 Q 536 307 543 286 Q 549 265 553 209 Q 553 113 536 85 Q 528 77 528 74 Q 526 72 526 65 Q 524 41 537 22 Q 549 2 556 -3 Q 566 -6 573 1 Q 582 17 583 18 L 590 51 L 593 68 L 594 72 L 595 102 L 598 130 L 598 183 L 600 209 L 602 263 C 603 293 607 293 605 294 Z" fill="black"></path>
				<path d="M 815 37 L 825 19 Q 826 18 837 7 Q 848 -5 857 1 Q 876 11 879 68 L 880 96 L 881 100 L 880 171 Q 876 238 887 263 Q 898 287 895 294 Q 892 301 875 311 L 846 327 L 825 334 Q 822 335 818 335 Q 813 335 794 329 Q 775 322 758 320 L 721 312 L 605 294 C 575 289 572 262 602 263 L 623 264 Q 631 264 658 270 L 724 286 Q 772 295 795 291 Q 809 286 813 268 L 815 246 Q 815 229 816 224 L 817 212 L 816 148 L 818 126 L 812 68 L 815 37 Z" fill="red"></path>
				<path d="M 598 183 L 615 180 L 665 185 L 738 195 Q 789 200 798 204 Q 807 207 817 212 C 828 217 828 217 816 224 L 798 234 Q 786 240 771 239 Q 756 238 715 230 L 600 209 C 570 204 568 188 598 183 Z" fill="lightgray"></path>
				<path d="M 595 102 L 614 99 Q 615 98 636 100 L 690 109 L 818 126 C 848 130 843 135 816 148 L 795 158 Q 788 159 775 161 Q 758 161 755 160 L 598 130 C 569 124 565 107 595 102 Z" fill="lightgray"></path>
				<path d="M 627 19 L 724 30 Q 756 33 815 37 C 845 39 841 60 812 68 L 786 75 L 590 51 C 560 47 553 22 583 18 L 598 16 L 627 19 Z" fill="lightgray"></path>
				<path d="M 569 -40 L 535 -75 Q 500 -106 496 -111 L 440 -151 Q 432 -157 434 -162 Q 435 -167 447 -163 L 484 -147 Q 550 -121 591 -89 L 641 -50 L 657 -40 Q 664 -35 673 -30 Q 681 -25 686 -16 Q 686 -4 670 2 Q 653 7 627 19 C 601 31 601 31 598 16 L 595 2 Q 595 -5 569 -40 Z" fill="lightgray"></path>
				<path d="M 740 -16 L 757 -31 L 789 -63 L 839 -121 Q 852 -137 867.5 -149 Q 883 -161 889 -159 Q 898 -159 900.5 -157 Q 903 -155 910 -145.5 Q 917 -136 917 -118.5 Q 917 -101 910.5 -86.5 Q 904 -72 889 -62 Q 874 -52 841 -34 Q 799 -15 797 -15 L 761 -5 Q 749 -3 740 0 L 738 0 Q 725 -7 740 -16 Z" fill="lightgray"></path>
</g>
		<text x="40" y="140" font-size="128" fill="#999999">11</text></g>
		<g id="id2:id1:id1" transform="matrix(1.0,0,0,1.0,1024,0.0)">			<g stroke="lightgray" stroke-width="4" transform="scale(4, 4)"> <rect x="0" y="0" width="256" height="256" fill="white" stroke-width="4"/></g>
			<g transform="scale(0.92, -0.92) translate(60, -920)">					<path d="M 334 566 L 387 586 Q 413 597 439.5 603.5 Q 466 610 469 612 Q 480 615 480 624 Q 480 628 472 641 Q 463 651 447 665 Q 417 686 402 680 Q 397 678 392 669 Q 383 658 359 642 L 323 615 L 266 583 Q 224 561 206 554 L 158 532 Q 149 527 150 522.5 Q 151 518 164 519 L 186 522 Q 206 524 225 530 L 296 552 L 334 566 Z" fill="black"></path>
				<path d="M 363 375 L 419 382 L 459 385 Q 470 387 481.5 388.5 Q 493 390 493 394.5 Q 493 399 486.5 407.5 Q 480 416 459 424.5 Q 438 433 417 426 Q 404 424 393 422 L 367 416 L 312 407 L 258 396 L 86 369 Q 77 367 75 362 Q 74 356 80 350 Q 86 344 93 341 L 115 332 Q 131 325 138.5 325.5 Q 146 326 178 334 L 296 362 L 363 375 Z" fill="black"></path>
				<path d="M 309 265 L 302 147 Q 295 58 285 1 L 271 -62 Q 269 -90 298 -140 Q 305 -149 308 -150 Q 313 -152 328 -129 Q 343 -106 348 -68 L 348 -4 L 356 281 L 358 303 L 363 375 L 367 416 L 374 476 Q 375 495 379 508 L 384 528 Q 386 533 384 538 Q 382 546 371 550 Q 362 555 334 566 C 306 577 289 581 296 552 L 300 535 Q 308 507 312 407 L 309 265 Z" fill="black"></path>
				<path d="M 296 362 L 288 340 Q 279 317 266 296 L 228 236 Q 209 208 188 179 Q 122 103 98 83 L 68 55 Q 63 50 65 45 Q 66 39 76 44 L 106 58 Q 160 85 210 135 Q 237 164 257 188 Q 276 212 309 265 C 383 384 306 390 296 362 Z" fill="black"></path>
				<path d="M 356 281 L 392 242 L 404 225 L 436 188 Q 458 176 465 183 Q 480 194 480 213 Q 480 232 476 241 Q 471 249 450 266 Q 429 282 390 295 L 358 303 C 329 310 336 303 356 281 Z" fill="black"></path>
				<path d="M 734 549 L 862 566 Q 894 569 900 584 Q 901 594 882 601.5 Q 863 609 849 609 Q 802 607 738 588 L 671 579 L 534 562 L 508 557 Q 504 554 504 552 Q 501 549 509 543 Q 521 536 535.5 531.5 Q 550 527 671 541 L 734 549 Z" fill="black"></path>
				<path d="M 775 504 L 732 495 L 669 486 L 555 471 Q 548 470 548 466 Q 546 461 555 449 Q 564 440 612 440 L 669 446 L 730 455 L 784 464 L 831 470 Q 859 472 862 484 Q 862 496 834.5 501 Q 807 506 799 506 L 775 504 Z" fill="black"></path>
				<path d="M 732 495 L 734 549 L 738 588 L 743 654 L 753 692 L 751 702 Q 749 708 738 713 Q 732 719 712 724 Q 692 728 676 728 L 665 728 Q 658 728 654 724 Q 652 715 653 713 Q 654 711 663 697 Q 671 682 670 648 Q 669 614 671 608 L 671 579 L 671 541 L 669 486 L 669 446 L 669 388 C 669 358 721 366 724 396 L 730 455 L 732 495 Z" fill="black"></path>
				<path d="M 669 388 L 476 365 Q 447 361 444.5 358.5 Q 442 356 442 352 Q 442 348 457.5 339.5 Q 473 331 485 327 Q 504 324 513 325 L 532 330 Q 554 338 700 357 L 786 367 Q 829 372 869 374 L 954 378 Q 1004 382 1005.5 385 Q 1007 388 1007 392 Q 1007 396 996.5 406.5 Q 986 417 964.5 422.5 Q 943 428 928 428 L 893 422 L 724 396 L 669 388 Z" fill="black"></path>
				<path d="M 605 294 L 587 300 L 575 306 Q 544 315 540 311 Q 536 307 543 286 Q 549 265 553 209 Q 553 113 536 85 Q 528 77 528 74 Q 526 72 526 65 Q 524 41 537 22 Q 549 2 556 -3 Q 566 -6 573 1 Q 582 17 583 18 L 590 51 L 593 68 L 594 72 L 595 102 L 598 130 L 598 183 L 600 209 L 602 263 C 603 293 607 293 605 294 Z" fill="black"></path>
				<path d="M 815 37 L 825 19 Q 826 18 837 7 Q 848 -5 857 1 Q 876 11 879 68 L 880 96 L 881 100 L 880 171 Q 876 238 887 263 Q 898 287 895 294 Q 892 301 875 311 L 846 327 L 825 334 Q 822 335 818 335 Q 813 335 794 329 Q 775 322 758 320 L 721 312 L 605 294 C 575 289 572 262 602 263 L 623 264 Q 631 264 658 270 L 724 286 Q 772 295 795 291 Q 809 286 813 268 L 815 246 Q 815 229 816 224 L 817 212 L 816 148 L 818 126 L 812 68 L 815 37 Z" fill="black"></path>
				<path d="M 598 183 L 615 180 L 665 185 L 738 195 Q 789 200 798 204 Q 807 207 817 212 C 828 217 828 217 816 224 L 798 234 Q 786 240 771 239 Q 756 238 715 230 L 600 209 C 570 204 568 188 598 183 Z" fill="red"></path>
				<path d="M 595 102 L 614 99 Q 615 98 636 100 L 690 109 L 818 126 C 848 130 843 135 816 148 L 795 158 Q 788 159 775 161 Q 758 161 755 160 L 598 130 C 569 124 565 107 595 102 Z" fill="lightgray"></path>
				<path d="M 627 19 L 724 30 Q 756 33 815 37 C 845 39 841 60 812 68 L 786 75 L 590 51 C 560 47 553 22 583 18 L 598 16 L 627 19 Z" fill="lightgray"></path>
				<path d="M 569 -40 L 535 -75 Q 500 -106 496 -111 L 440 -151 Q 432 -157 434 -162 Q 435 -167 447 -163 L 484 -147 Q 550 -121 591 -89 L 641 -50 L 657 -40 Q 664 -35 673 -30 Q 681 -25 686 -16 Q 686 -4 670 2 Q 653 7 627 19 C 601 31 601 31 598 16 L 595 2 Q 595 -5 569 -40 Z" fill="lightgray"></path>
				<path d="M 740 -16 L 757 -31 L 789 -63 L 839 -121 Q 852 -137 867.5 -149 Q 883 -161 889 -159 Q 898 -159 900.5 -157 Q 903 -155 910 -145.5 Q 917 -136 917 -118.5 Q 917 -101 910.5 -86.5 Q 904 -72 889 -62 Q 874 -52 841 -34 Q 799 -15 797 -15 L 761 -5 Q 749 -3 740 0 L 738 0 Q 725 -7 740 -16 Z" fill="lightgray"></path>
</g>
		<text x="40" y="140" font-size="128" fill="#999999">12</text></g>
		<g id="id2:id2:id2" transform="matrix(1.0,0,0,1.0,2048,0.0)">			<g stroke="lightgray" stroke-width="4" transform="scale(4, 4)"> <rect x="0" y="0" width="256" height="256" fill="white" stroke-width="4"/></g>
			<g transform="scale(0.92, -0.92) translate(60, -920)">					<path d="M 334 566 L 387 586 Q 413 597 439.5 603.5 Q 466 610 469 612 Q 480 615 480 624 Q 480 628 472 641 Q 463 651 447 665 Q 417 686 402 680 Q 397 678 392 669 Q 383 658 359 642 L 323 615 L 266 583 Q 224 561 206 554 L 158 532 Q 149 527 150 522.5 Q 151 518 164 519 L 186 522 Q 206 524 225 530 L 296 552 L 334 566 Z" fill="black"></path>
				<path d="M 363 375 L 419 382 L 459 385 Q 470 387 481.5 388.5 Q 493 390 493 394.5 Q 493 399 486.5 407.5 Q 480 416 459 424.5 Q 438 433 417 426 Q 404 424 393 422 L 367 416 L 312 407 L 258 396 L 86 369 Q 77 367 75 362 Q 74 356 80 350 Q 86 344 93 341 L 115 332 Q 131 325 138.5 325.5 Q 146 326 178 334 L 296 362 L 363 375 Z" fill="black"></path>
				<path d="M 309 265 L 302 147 Q 295 58 285 1 L 271 -62 Q 269 -90 298 -140 Q 305 -149 308 -150 Q 313 -152 328 -129 Q 343 -106 348 -68 L 348 -4 L 356 281 L 358 303 L 363 375 L 367 416 L 374 476 Q 375 495 379 508 L 384 528 Q 386 533 384 538 Q 382 546 371 550 Q 362 555 334 566 C 306 577 289 581 296 552 L 300 535 Q 308 507 312 407 L 309 265 Z" fill="black"></path>
				<path d="M 296 362 L 288 340 Q 279 317 266 296 L 228 236 Q 209 208 188 179 Q 122 103 98 83 L 68 55 Q 63 50 65 45 Q 66 39 76 44 L 106 58 Q 160 85 210 135 Q 237 164 257 188 Q 276 212 309 265 C 383 384 306 390 296 362 Z" fill="black"></path>
				<path d="M 356 281 L 392 242 L 404 225 L 436 188 Q 458 176 465 183 Q 480 194 480 213 Q 480 232 476 241 Q 471 249 450 266 Q 429 282 390 295 L 358 303 C 329 310 336 303 356 281 Z" fill="black"></path>
				<path d="M 734 549 L 862 566 Q 894 569 900 584 Q 901 594 882 601.5 Q 863 609 849 609 Q 802 607 738 588 L 671 579 L 534 562 L 508 557 Q 504 554 504 552 Q 501 549 509 543 Q 521 536 535.5 531.5 Q 550 527 671 541 L 734 549 Z" fill="black"></path>
				<path d="M 775 504 L 732 495 L 669 486 L 555 471 Q 548 470 548 466 Q 546 461 555 449 Q 564 440 612 440 L 669 446 L 730 455 L 784 464 L 831 470 Q 859 472 862 484 Q 862 496 834.5 501 Q 807 506 799 506 L 775 504 Z" fill="black"></path>
				<path d="M 732 495 L 734 549 L 738 588 L 743 654 L 753 692 L 751 702 Q 749 708 738 713 Q 732 719 712 724 Q 692 728 676 728 L 665 728 Q 658 728 654 724 Q 652 715 653 713 Q 654 711 663 697 Q 671 682 670 648 Q 669 614 671 608 L 671 579 L 671 541 L 669 486 L 669 446 L 669 388 C 669 358 721 366 724 396 L 730 455 L 732 495 Z" fill="black"></path>
				<path d="M 669 388 L 476 365 Q 447 361 444.5 358.5 Q 442 356 442 352 Q 442 348 457.5 339.5 Q 473 331 485 327 Q 504 324 513 325 L 532 330 Q 554 338 700 357 L 786 367 Q 829 372 869 374 L 954 378 Q 1004 382 1005.5 385 Q 1007 388 1007 392 Q 1007 396 996.5 406.5 Q 986 417 964.5 422.5 Q 943 428 928 428 L 893 422 L 724 396 L 669 388 Z" fill="black"></path>
				<path d="M 605 294 L 587 300 L 575 306 Q 544 315 540 311 Q 536 307 543 286 Q 549 265 553 209 Q 553 113 536 85 Q 528 77 528 74 Q 526 72 526 65 Q 524 41 537 22 Q 549 2 556 -3 Q 566 -6 573 1 Q 582 17 583 18 L 590 51 L 593 68 L 594 72 L 595 102 L 598 130 L 598 183 L 600 209 L 602 263 C 603 293 607 293 605 294 Z" fill="black"></path>
				<path d="M 815 37 L 825 19 Q 826 18 837 7 Q 848 -5 857 1 Q 876 11 879 68 L 880 96 L 881 100 L 880 171 Q 876 238 887 263 Q 898 287 895 294 Q 892 301 875 311 L 846 327 L 825 334 Q 822 335 818 335 Q 813 335 794 329 Q 775 322 758 320 L 721 312 L 605 294 C 575 289 572 262 602 263 L 623 264 Q 631 264 658 270 L 724 286 Q 772 295 795 291 Q 809 286 813 268 L 815 246 Q 815 229 816 224 L 817 212 L 816 148 L 818 126 L 812 68 L 815 37 Z" fill="black"></path>
				<path d="M 598 183 L 615 180 L 665 185 L 738 195 Q 789 200 798 204 Q 807 207 817 212 C 828 217 828 217 816 224 L 798 234 Q 786 240 771 239 Q 756 238 715 230 L 600 209 C 570 204 568 188 598 183 Z" fill="black"></path>
				<path d="M 595 102 L 614 99 Q 615 98 636 100 L 690 109 L 818 126 C 848 130 843 135 816 148 L 795 158 Q 788 159 775 161 Q 758 161 755 160 L 598 130 C 569 124 565 107 595 102 Z" fill="red"></path>
				<path d="M 627 19 L 724 30 Q 756 33 815 37 C 845 39 841 60 812 68 L 786 75 L 590 51 C 560 47 553 22 583 18 L 598 16 L 627 19 Z" fill="lightgray"></path>
				<path d="M 569 -40 L 535 -75 Q 500 -106 496 -111 L 440 -151 Q 432 -157 434 -162 Q 435 -167 447 -163 L 484 -147 Q 550 -121 591 -89 L 641 -50 L 657 -40 Q 664 -35 673 -30 Q 681 -25 686 -16 Q 686 -4 670 2 Q 653 7 627 19 C 601 31 601 31 598 16 L 595 2 Q 595 -5 569 -40 Z" fill="lightgray"></path>
				<path d="M 740 -16 L 757 -31 L 789 -63 L 839 -121 Q 852 -137 867.5 -149 Q 883 -161 889 -159 Q 898 -159 900.5 -157 Q 903 -155 910 -145.5 Q 917 -136 917 -118.5 Q 917 -101 910.5 -86.5 Q 904 -72 889 -62 Q 874 -52 841 -34 Q 799 -15 797 -15 L 761 -5 Q 749 -3 740 0 L 738 0 Q 725 -7 740 -16 Z" fill="lightgray"></path>
</g>
		<text x="40" y="140" font-size="128" fill="#999999">13</text></g>
		<g id="id2:id3:id3" transform="matrix(1.0,0,0,1.0,3072,0.0)">			<g stroke="lightgray" stroke-width="4" transform="scale(4, 4)"> <rect x="0" y="0" width="256" height="256" fill="white" stroke-width="4"/></g>
			<g transform="scale(0.92, -0.92) translate(60, -920)">					<path d="M 334 566 L 387 586 Q 413 597 439.5 603.5 Q 466 610 469 612 Q 480 615 480 624 Q 480 628 472 641 Q 463 651 447 665 Q 417 686 402 680 Q 397 678 392 669 Q 383 658 359 642 L 323 615 L 266 583 Q 224 561 206 554 L 158 532 Q 149 527 150 522.5 Q 151 518 164 519 L 186 522 Q 206 524 225 530 L 296 552 L 334 566 Z" fill="black"></path>
				<path d="M 363 375 L 419 382 L 459 385 Q 470 387 481.5 388.5 Q 493 390 493 394.5 Q 493 399 486.5 407.5 Q 480 416 459 424.5 Q 438 433 417 426 Q 404 424 393 422 L 367 416 L 312 407 L 258 396 L 86 369 Q 77 367 75 362 Q 74 356 80 350 Q 86 344 93 341 L 115 332 Q 131 325 138.5 325.5 Q 146 326 178 334 L 296 362 L 363 375 Z" fill="black"></path>
				<path d="M 309 265 L 302 147 Q 295 58 285 1 L 271 -62 Q 269 -90 298 -140 Q 305 -149 308 -150 Q 313 -152 328 -129 Q 343 -106 348 -68 L 348 -4 L 356 281 L 358 303 L 363 375 L 367 416 L 374 476 Q 375 495 379 508 L 384 528 Q 386 533 384 538 Q 382 546 371 550 Q 362 555 334 566 C 306 577 289 581 296 552 L 300 535 Q 308 507 312 407 L 309 265 Z" fill="black"></path>
				<path d="M 296 362 L 288 340 Q 279 317 266 296 L 228 236 Q 209 208 188 179 Q 122 103 98 83 L 68 55 Q 63 50 65 45 Q 66 39 76 44 L 106 58 Q 160 85 210 135 Q 237 164 257 188 Q 276 212 309 265 C 383 384 306 390 296 362 Z" fill="black"></path>
				<path d="M 356 281 L 392 242 L 404 225 L 436 188 Q 458 176 465 183 Q 480 194 480 213 Q 480 232 476 241 Q 471 249 450 266 Q 429 282 390 295 L 358 303 C 329 310 336 303 356 281 Z" fill="black"></path>
				<path d="M 734 549 L 862 566 Q 894 569 900 584 Q 901 594 882 601.5 Q 863 609 849 609 Q 802 607 738 588 L 671 579 L 534 562 L 508 557 Q 504 554 504 552 Q 501 549 509 543 Q 521 536 535.5 531.5 Q 550 527 671 541 L 734 549 Z" fill="black"></path>
				<path d="M 775 504 L 732 495 L 669 486 L 555 471 Q 548 470 548 466 Q 546 461 555 449 Q 564 440 612 440 L 669 446 L 730 455 L 784 464 L 831 470 Q 859 472 862 484 Q 862 496 834.5 501 Q 807 506 799 506 L 775 504 Z" fill="black"></path>
				<path d="M 732 495 L 734 549 L 738 588 L 743 654 L 753 692 L 751 702 Q 749 708 738 713 Q 732 719 712 724 Q 692 728 676 728 L 665 728 Q 658 728 654 724 Q 652 715 653 713 Q 654 711 663 697 Q 671 682 670 648 Q 669 614 671 608 L 671 579 L 671 541 L 669 486 L 669 446 L 669 388 C 669 358 721 366 724 396 L 730 455 L 732 495 Z" fill="black"></path>
				<path d="M 669 388 L 476 365 Q 447 361 444.5 358.5 Q 442 356 442 352 Q 442 348 457.5 339.5 Q 473 331 485 327 Q 504 324 513 325 L 532 330 Q 554 338 700 357 L 786 367 Q 829 372 869 374 L 954 378 Q 1004 382 1005.5 385 Q 1007 388 1007 392 Q 1007 396 996.5 406.5 Q 986 417 964.5 422.5 Q 943 428 928 428 L 893 422 L 724 396 L 669 388 Z" fill="black"></path>
				<path d="M 605 294 L 587 300 L 575 306 Q 544 315 540 311 Q 536 307 543 286 Q 549 265 553 209 Q 553 113 536 85 Q 528 77 528 74 Q 526 72 526 65 Q 524 41 537 22 Q 549 2 556 -3 Q 566 -6 573 1 Q 582 17 583 18 L 590 51 L 593 68 L 594 72 L 595 102 L 598 130 L 598 183 L 600 209 L 602 263 C 603 293 607 293 605 294 Z" fill="black"></path>
				<path d="M 815 37 L 825 19 Q 826 18 837 7 Q 848 -5 857 1 Q 876 11 879 68 L 880 96 L 881 100 L 880 171 Q 876 238 887 263 Q 898 287 895 294 Q 892 301 875 311 L 846 327 L 825 334 Q 822 335 818 335 Q 813 335 794 329 Q 775 322 758 320 L 721 312 L 605 294 C 575 289 572 262 602 263 L 623 264 Q 631 264 658 270 L 724 286 Q 772 295 795 291 Q 809 286 813 268 L 815 246 Q 815 229 816 224 L 817 212 L 816 148 L 818 126 L 812 68 L 815 37 Z" fill="black"></path>
				<path d="M 598 183 L 615 180 L 665 185 L 738 195 Q 789 200 798 204 Q 807 207 817 212 C 828 217 828 217 816 224 L 798 234 Q 786 240 771 239 Q 756 238 715 230 L 600 209 C 570 204 568 188 598 183 Z" fill="black"></path>
				<path d="M 595 102 L 614 99 Q 615 98 636 100 L 690 109 L 818 126 C 848 130 843 135 816 148 L 795 158 Q 788 159 775 161 Q 758 161 755 160 L 598 130 C 569 124 565 107 595 102 Z" fill="black"></path>
				<path d="M 627 19 L 724 30 Q 756 33 815 37 C 845 39 841 60 812 68 L 786 75 L 590 51 C 560 47 553 22 583 18 L 598 16 L 627 19 Z" fill="red"></path>
				<path d="M 569 -40 L 535 -75 Q 500 -106 496 -111 L 440 -151 Q 432 -157 434 -162 Q 435 -167 447 -163 L 484 -147 Q 550 -121 591 -89 L 641 -50 L 657 -40 Q 664 -35 673 -30 Q 681 -25 686 -16 Q 686 -4 670 2 Q 653 7 627 19 C 601 31 601 31 598 16 L 595 2 Q 595 -5 569 -40 Z" fill="lightgray"></path>
				<path d="M 740 -16 L 757 -31 L 789 -63 L 839 -121 Q 852 -137 867.5 -149 Q 883 -161 889 -159 Q 898 -159 900.5 -157 Q 903 -155 910 -145.5 Q 917 -136 917 -118.5 Q 917 -101 910.5 -86.5 Q 904 -72 889 -62 Q 874 -52 841 -34 Q 799 -15 797 -15 L 761 -5 Q 749 -3 740 0 L 738 0 Q 725 -7 740 -16 Z" fill="lightgray"></path>
</g>
		<text x="40" y="140" font-size="128" fill="#999999">14</text></g>
		<g id="id2:id4:id4" transform="matrix(1.0,0,0,1.0,4096,0.0)">			<g stroke="lightgray" stroke-width="4" transform="scale(4, 4)"> <rect x="0" y="0" width="256" height="256" fill="white" stroke-width="4"/></g>
			<g transform="scale(0.92, -0.92) translate(60, -920)">					<path d="M 334 566 L 387 586 Q 413 597 439.5 603.5 Q 466 610 469 612 Q 480 615 480 624 Q 480 628 472 641 Q 463 651 447 665 Q 417 686 402 680 Q 397 678 392 669 Q 383 658 359 642 L 323 615 L 266 583 Q 224 561 206 554 L 158 532 Q 149 527 150 522.5 Q 151 518 164 519 L 186 522 Q 206 524 225 530 L 296 552 L 334 566 Z" fill="black"></path>
				<path d="M 363 375 L 419 382 L 459 385 Q 470 387 481.5 388.5 Q 493 390 493 394.5 Q 493 399 486.5 407.5 Q 480 416 459 424.5 Q 438 433 417 426 Q 404 424 393 422 L 367 416 L 312 407 L 258 396 L 86 369 Q 77 367 75 362 Q 74 356 80 350 Q 86 344 93 341 L 115 332 Q 131 325 138.5 325.5 Q 146 326 178 334 L 296 362 L 363 375 Z" fill="black"></path>
				<path d="M 309 265 L 302 147 Q 295 58 285 1 L 271 -62 Q 269 -90 298 -140 Q 305 -149 308 -150 Q 313 -152 328 -129 Q 343 -106 348 -68 L 348 -4 L 356 281 L 358 303 L 363 375 L 367 416 L 374 476 Q 375 495 379 508 L 384 528 Q 386 533 384 538 Q 382 546 371 550 Q 362 555 334 566 C 306 577 289 581 296 552 L 300 535 Q 308 507 312 407 L 309 265 Z" fill="black"></path>
				<path d="M 296 362 L 288 340 Q 279 317 266 296 L 228 236 Q 209 208 188 179 Q 122 103 98 83 L 68 55 Q 63 50 65 45 Q 66 39 76 44 L 106 58 Q 160 85 210 135 Q 237 164 257 188 Q 276 212 309 265 C 383 384 306 390 296 362 Z" fill="black"></path>
				<path d="M 356 281 L 392 242 L 404 225 L 436 188 Q 458 176 465 183 Q 480 194 480 213 Q 480 232 476 241 Q 471 249 450 266 Q 429 282 390 295 L 358 303 C 329 310 336 303 356 281 Z" fill="black"></path>
				<path d="M 734 549 L 862 566 Q 894 569 900 584 Q 901 594 882 601.5 Q 863 609 849 609 Q 802 607 738 588 L 671 579 L 534 562 L 508 557 Q 504 554 504 552 Q 501 549 509 543 Q 521 536 535.5 531.5 Q 550 527 671 541 L 734 549 Z" fill="black"></path>
				<path d="M 775 504 L 732 495 L 669 486 L 555 471 Q 548 470 548 466 Q 546 461 555 449 Q 564 440 612 440 L 669 446 L 730 455 L 784 464 L 831 470 Q 859 472 862 484 Q 862 496 834.5 501 Q 807 506 799 506 L 775 504 Z" fill="black"></path>
				<path d="M 732 495 L 734 549 L 738 588 L 743 654 L 753 692 L 751 702 Q 749 708 738 713 Q 732 719 712 724 Q 692 728 676 728 L 665 728 Q 658 728 654 724 Q 652 715 653 713 Q 654 711 663 697 Q 671 682 670 648 Q 669 614 671 608 L 671 579 L 671 541 L 669 486 L 669 446 L 669 388 C 669 358 721 366 724 396 L 730 455 L 732 495 Z" fill="black"></path>
				<path d="M 669 388 L 476 365 Q 447 361 444.5 358.5 Q 442 356 442 352 Q 442 348 457.5 339.5 Q 473 331 485 327 Q 504 324 513 325 L 532 330 Q 554 338 700 357 L 786 367 Q 829 372 869 374 L 954 378 Q 1004 382 1005.5 385 Q 1007 388 1007 392 Q 1007 396 996.5 406.5 Q 986 417 964.5 422.5 Q 943 428 928 428 L 893 422 L 724 396 L 669 388 Z" fill="black"></path>
				<path d="M 605 294 L 587 300 L 575 306 Q 544 315 540 311 Q 536 307 543 286 Q 549 265 553 209 Q 553 113 536 85 Q 528 77 528 74 Q 526 72 526 65 Q 524 41 537 22 Q 549 2 556 -3 Q 566 -6 573 1 Q 582 17 583 18 L 590 51 L 593 68 L 594 72 L 595 102 L 598 130 L 598 183 L 600 209 L 602 263 C 603 293 607 293 605 294 Z" fill="black"></path>
				<path d="M 815 37 L 825 19 Q 826 18 837 7 Q 848 -5 857 1 Q 876 11 879 68 L 880 96 L 881 100 L 880 171 Q 876 238 887 263 Q 898 287 895 294 Q 892 301 875 311 L 846 327 L 825 334 Q 822 335 818 335 Q 813 335 794 329 Q 775 322 758 320 L 721 312 L 605 294 C 575 289 572 262 602 263 L 623 264 Q 631 264 658 270 L 724 286 Q 772 295 795 291 Q 809 286 813 268 L 815 246 Q 815 229 816 224 L 817 212 L 816 148 L 818 126 L 812 68 L 815 37 Z" fill="black"></path>
				<path d="M 598 183 L 615 180 L 665 185 L 738 195 Q 789 200 798 204 Q 807 207 817 212 C 828 217 828 217 816 224 L 798 234 Q 786 240 771 239 Q 756 238 715 230 L 600 209 C 570 204 568 188 598 183 Z" fill="black"></path>
				<path d="M 595 102 L 614 99 Q 615 98 636 100 L 690 109 L 818 126 C 848 130 843 135 816 148 L 795 158 Q 788 159 775 161 Q 758 161 755 160 L 598 130 C 569 124 565 107 595 102 Z" fill="black"></path>
				<path d="M 627 19 L 724 30 Q 756 33 815 37 C 845 39 841 60 812 68 L 786 75 L 590 51 C 560 47 553 22 583 18 L 598 16 L 627 19 Z" fill="black"></path>
				<path d="M 569 -40 L 535 -75 Q 500 -106 496 -111 L 440 -151 Q 432 -157 434 -162 Q 435 -167 447 -163 L 484 -147 Q 550 -121 591 -89 L 641 -50 L 657 -40 Q 664 -35 673 -30 Q 681 -25 686 -16 Q 686 -4 670 2 Q 653 7 627 19 C 601 31 601 31 598 16 L 595 2 Q 595 -5 569 -40 Z" fill="red"></path>
				<path d="M 740 -16 L 757 -31 L 789 -63 L 839 -121 Q 852 -137 867.5 -149 Q 883 -161 889 -159 Q 898 -159 900.5 -157 Q 903 -155 910 -145.5 Q 917 -136 917 -118.5 Q 917 -101 910.5 -86.5 Q 904 -72 889 -62 Q 874 -52 841 -34 Q 799 -15 797 -15 L 761 -5 Q 749 -3 740 0 L 738 0 Q 725 -7 740 -16 Z" fill="lightgray"></path>
</g>
		<text x="40" y="140" font-size="128" fill="#999999">15</text></g>
</g>
	<g id="id3:id3" transform="translate(0.0,3072)">
		<g id="id3:id0:id0" transform="matrix(1.0,0,0,1.0,0,0.0)">			<g stroke="lightgray" stroke-width="4" transform="scale(4, 4)"> <rect x="0" y="0" width="256" height="256" fill="white" stroke-width="4"/></g>
			<g transform="scale(0.92, -0.92) translate(60, -920)">					<path d="M 334 566 L 387 586 Q 413 597 439.5 603.5 Q 466 610 469 612 Q 480 615 480 624 Q 480 628 472 641 Q 463 651 447 665 Q 417 686 402 680 Q 397 678 392 669 Q 383 658 359 642 L 323 615 L 266 583 Q 224 561 206 554 L 158 532 Q 149 527 150 522.5 Q 151 518 164 519 L 186 522 Q 206 524 225 530 L 296 552 L 334 566 Z" fill="black"></path>
				<path d="M 363 375 L 419 382 L 459 385 Q 470 387 481.5 388.5 Q 493 390 493 394.5 Q 493 399 486.5 407.5 Q 480 416 459 424.5 Q 438 433 417 426 Q 404 424 393 422 L 367 416 L 312 407 L 258 396 L 86 369 Q 77 367 75 362 Q 74 356 80 350 Q 86 344 93 341 L 115 332 Q 131 325 138.5 325.5 Q 146 326 178 334 L 296 362 L 363 375 Z" fill="black"></path>
				<path d="M 309 265 L 302 147 Q 295 58 285 1 L 271 -62 Q 269 -90 298 -140 Q 305 -149 308 -150 Q 313 -152 328 -129 Q 343 -106 348 -68 L 348 -4 L 356 281 L 358 303 L 363 375 L 367 416 L 374 476 Q 375 495 379 508 L 384 528 Q 386 533 384 538 Q 382 546 371 550 Q 362 555 334 566 C 306 577 289 581 296 552 L 300 535 Q 308 507 312 407 L 309 265 Z" fill="black"></path>
				<path d="M 296 362 L 288 340 Q 279 317 266 296 L 228 236 Q 209 208 188 179 Q 122 103 98 83 L 68 55 Q 63 50 65 45 Q 66 39 76 44 L 106 58 Q 160 85 210 135 Q 237 164 257 188 Q 276 212 309 265 C 383 384 306 390 296 362 Z" fill="black"></path>
				<path d="M 356 281 L 392 242 L 404 225 L 436 188 Q 458 176 465 183 Q 480 194 480 213 Q 480 232 476 241 Q 471 249 450 266 Q 429 282 390 295 L 358 303 C 329 310 336 303 356 281 Z" fill="black"></path>
				<path d="M 734 549 L 862 566 Q 894 569 900 584 Q 901 594 882 601.5 Q 863 609 849 609 Q 802 607 738 588 L 671 579 L 534 562 L 508 557 Q 504 554 504 552 Q 501 549 509 543 Q 521 536 535.5 531.5 Q 550 527 671 541 L 734 549 Z" fill="black"></path>
				<path d="M 775 504 L 732 495 L 669 486 L 555 471 Q 548 470 548 466 Q 546 461 555 449 Q 564 440 612 440 L 669 446 L 730 455 L 784 464 L 831 470 Q 859 472 862 484 Q 862 496 834.5 501 Q 807 506 799 506 L 775 504 Z" fill="black"></path>
				<path d="M 732 495 L 734 549 L 738 588 L 743 654 L 753 692 L 751 702 Q 749 708 738 713 Q 732 719 712 724 Q 692 728 676 728 L 665 728 Q 658 728 654 724 Q 652 715 653 713 Q 654 711 663 697 Q 671 682 670 648 Q 669 614 671 608 L 671 579 L 671 541 L 669 486 L 669 446 L 669 388 C 669 358 721 366 724 396 L 730 455 L 732 495 Z" fill="black"></path>
				<path d="M 669 388 L 476 365 Q 447 361 444.5 358.5 Q 442 356 442 352 Q 442 348 457.5 339.5 Q 473 331 485 327 Q 504 324 513 325 L 532 330 Q 554 338 700 357 L 786 367 Q 829 372 869 374 L 954 378 Q 1004 382 1005.5 385 Q 1007 388 1007 392 Q 1007 396 996.5 406.5 Q 986 417 964.5 422.5 Q 943 428 928 428 L 893 422 L 724 396 L 669 388 Z" fill="black"></path>
				<path d="M 605 294 L 587 300 L 575 306 Q 544 315 540 311 Q 536 307 543 286 Q 549 265 553 209 Q 553 113 536 85 Q 528 77 528 74 Q 526 72 526 65 Q 524 41 537 22 Q 549 2 556 -3 Q 566 -6 573 1 Q 582 17 583 18 L 590 51 L 593 68 L 594 72 L 595 102 L 598 130 L 598 183 L 600 209 L 602 263 C 603 293 607 293 605 294 Z" fill="black"></path>
				<path d="M 815 37 L 825 19 Q 826 18 837 7 Q 848 -5 857 1 Q 876 11 879 68 L 880 96 L 881 100 L 880 171 Q 876 238 887 263 Q 898 287 895 294 Q 892 301 875 311 L 846 327 L 825 334 Q 822 335 818 335 Q 813 335 794 329 Q 775 322 758 320 L 721 312 L 605 294 C 575 289 572 262 602 263 L 623 264 Q 631 264 658 270 L 724 286 Q 772 295 795 291 Q 809 286 813 268 L 815 246 Q 815 229 816 224 L 817 212 L 816 148 L 818 126 L 812 68 L 815 37 Z" fill="black"></path>
				<path d="M 598 183 L 615 180 L 665 185 L 738 195 Q 789 200 798 204 Q 807 207 817 212 C 828 217 828 217 816 224 L 798 234 Q 786 240 771 239 Q 756 238 715 230 L 600 209 C 570 204 568 188 598 183 Z" fill="black"></path>
				<path d="M 595 102 L 614 99 Q 615 98 636 100 L 690 109 L 818 126 C 848 130 843 135 816 148 L 795 158 Q 788 159 775 161 Q 758 161 755 160 L 598 130 C 569 124 565 107 595 102 Z" fill="black"></path>
				<path d="M 627 19 L 724 30 Q 756 33 815 37 C 845 39 841 60 812 68 L 786 75 L 590 51 C 560 47 553 22 583 18 L 598 16 L 627 19 Z" fill="black"></path>
				<path d="M 569 -40 L 535 -75 Q 500 -106 496 -111 L 440 -151 Q 432 -157 434 -162 Q 435 -167 447 -163 L 484 -147 Q 550 -121 591 -89 L 641 -50 L 657 -40 Q 664 -35 673 -30 Q 681 -25 686 -16 Q 686 -4 670 2 Q 653 7 627 19 C 601 31 601 31 598 16 L 595 2 Q 595 -5 569 -40 Z" fill="black"></path>
				<path d="M 740 -16 L 757 -31 L 789 -63 L 839 -121 Q 852 -137 867.5 -149 Q 883 -161 889 -159 Q 898 -159 900.5 -157 Q 903 -155 910 -145.5 Q 917 -136 917 -118.5 Q 917 -101 910.5 -86.5 Q 904 -72 889 -62 Q 874 -52 841 -34 Q 799 -15 797 -15 L 761 -5 Q 749 -3 740 0 L 738 0 Q 725 -7 740 -16 Z" fill="red"></path>
</g>
		<text x="40" y="140" font-size="128" fill="#999999">16</text></g>
		<g id="id3:id1:id1" transform="matrix(1.0,0,0,1.0,1024,0.0)">			<g stroke="white" stroke-width="4" transform="scale(4, 4)"> <rect x="1" y="1" width="255" height="255" fill="white" stroke-width="0"/></g>
</g>
		<g id="id3:id2:id2" transform="matrix(1.0,0,0,1.0,2048,0.0)">			<g stroke="white" stroke-width="4" transform="scale(4, 4)"> <rect x="1" y="1" width="255" height="255" fill="white" stroke-width="0"/></g>
</g>
		<g id="id3:id3:id3" transform="matrix(1.0,0,0,1.0,3072,0.0)">			<g stroke="white" stroke-width="4" transform="scale(4, 4)"> <rect x="1" y="1" width="255" height="255" fill="white" stroke-width="0"/></g>
</g>
		<g id="id3:id4:id4" transform="matrix(1.0,0,0,1.0,4096,0.0)">			<g stroke="white" stroke-width="4" transform="scale(4, 4)"> <rect x="1" y="1" width="255" height="255" fill="white" stroke-width="0"/></g>
</g>
</g>
</svg>
