<?xml version="1.0" standalone="no"?>
<!DOCTYPE svg PUBLIC "-//W3C//DTD SVG 1.1//EN"
 "http://www.w3.org/Graphics/SVG/1.1/DTD/svg11.dtd">
<!-- generate by Japanese dictionary app com.asnsami.kanjidictionary -->

<svg xmlns="http://www.w3.org/2000/svg" xmlns:sodipodi="http://sodipodi.sourceforge.net/DTD/sodipodi-0.dtd" version="1.1" width="640" height="384" viewBox="0 0 5120 3072">
	<g id="id0:id0" transform="translate(0.0,0)">
		<g id="id0:id0:id0" transform="matrix(1.0,0,0,1.0,0,0.0)">			<g stroke="lightgray" stroke-width="4" transform="scale(4, 4)"> <rect x="0" y="0" width="256" height="256" fill="white" stroke-width="4"/></g>
			<g transform="scale(0.92, -0.92) translate(60, -920)">					<path d="M 348 618 L 376 665 L 396 694 Q 401 699 394 710.5 Q 387 722 378 728 L 349 745 Q 332 755 322 755 Q 314 752 314 730 Q 314 708 301 676 L 285 631 Q 279 613 253.5 568.5 Q 228 524 177 462 L 154 432 Q 145 422 148 417.5 Q 151 413 161 420 L 186 438 Q 187 438 201.5 450.5 Q 216 463 238.5 481.5 Q 261 500 300 547 L 309 560 L 328 586 L 348 618 Z" fill="red"></path>
				<path d="M 556 628 L 554 631 L 552 636 Q 548 643 526 651 Q 504 662 493 657 L 348 618 C 319 610 298 590 328 586 L 352 583 Q 366 581 386 584 L 425 592 L 486 601 L 527 610 Q 544 613 548 616 Q 551 618 556 628 Z" fill="lightgray"></path>
				<path d="M 300 547 Q 308 541 335 524 Q 362 506 389 481 Q 415 455 427 455 Q 441 452 454 462 Q 462 470 464 483 Q 465 495 455 506 Q 446 519 406 534 Q 366 549 309 560 C 280 566 276 564 300 547 Z" fill="lightgray"></path>
				<path d="M 644 579 L 661 601 L 681 639 L 707 685 L 720 702 Q 726 708 728 716 Q 730 724 729.5 726.5 Q 729 729 723 738.5 Q 717 748 708 754 L 683 772 Q 667 780 658.5 780 Q 650 780 649 777 Q 646 776 646 764.5 Q 646 753 645 750 L 643 738 Q 636 702 623 665 Q 606 621 600 609 Q 594 597 561 539 Q 534 495 524 482 L 508 463 Q 500 456 504 451.5 Q 508 447 518 453 L 539 469 Q 566 489 592 516 Q 618 543 627 556 L 634 566 L 644 579 Z" fill="lightgray"></path>
				<path d="M 661 601 L 684 598 L 713 601 Q 727 602 764 608 L 847 626 Q 875 631 889 640 Q 903 648 904 654 Q 904 662 884 674 Q 863 686 849 686 Q 835 686 833 684 L 805 674 Q 767 661 755 658 L 681 639 C 652 632 631 605 661 601 Z" fill="lightgray"></path>
				<path d="M 634 566 Q 641 561 664 548 Q 686 534 704 520 Q 751 488 771 465 Q 787 452 802 452 Q 817 452 826 462 Q 835 471 830 490 Q 824 505 806 521 Q 788 536 737 558 Q 686 579 644 579 C 614 580 614 580 634 566 Z" fill="lightgray"></path>
				<path d="M 314 228 L 405 340 L 422 356 Q 426 360 428 367 Q 428 384 398 402 Q 368 420 359 422 Q 340 426 337.5 423.5 Q 335 421 334.5 408.5 Q 334 396 328 370 Q 297 306 256 253 Q 236 224 184 174 Q 127 117 117 109 L 86 85 Q 82 82 85 78 Q 90 76 91 77 L 113 86 Q 124 91 163.5 112.5 Q 203 134 218.5 144.5 Q 234 155 284 201 L 314 228 Z" fill="lightgray"></path>
				<path d="M 350 200 Q 347 204 338 212 L 314 228 C 289 245 277 230 284 201 L 288 185 Q 290 160 289 138 Q 287 116 286 67 L 280 26 Q 279 13 272 -7 Q 264 -26 263 -33 Q 262 -40 268 -64 Q 274 -88 290 -106 Q 305 -124 311 -123 Q 316 -121 322 -111 Q 328 -101 334 -79 Q 340 -56 340 -54 L 338 27 L 342 151 Q 342 165 347 174 Q 351 183 352 186 Q 352 189 350 200 Z" fill="lightgray"></path>
				<path d="M 709 315 L 656 306 Q 558 287 516 282 L 411 267 Q 395 264 394 261 Q 387 250 410 238 Q 433 229 445.5 223.5 Q 458 218 471 220 L 508 230 Q 545 241 575 246 L 711 270 L 771 278 L 929 287 Q 971 288 977 293 Q 985 296 987 302 Q 990 319 964 330 L 940 341 Q 907 354 867 347 L 771 330 L 709 315 Z" fill="lightgray"></path>
				<path d="M 711 270 L 711 121 Q 711 110 709 36 Q 703 -33 690 -42 Q 684 -44 663 -40 L 625 -32 L 583 -18 Q 573 -15 570 -18 Q 567 -28 573 -34 L 596 -50 Q 631 -76 654 -104 L 687 -146 Q 692 -154 696 -155 Q 700 -156 712.5 -154 Q 725 -152 743.5 -127 Q 762 -102 768 -72 Q 774 -42 774 34 L 771 278 L 771 330 L 776 374 L 780 396 L 782 412 L 782 424 Q 781 429 747.5 444 Q 714 459 689 451 Q 686 448 687 440 L 692 420 Q 699 402 706 353 L 709 315 L 711 270 Z" fill="lightgray"></path>
				<path d="M 455 186 L 466 171 Q 472 163 493.5 124 Q 515 85 531 77.5 Q 547 70 555.5 70.5 Q 564 71 573.5 83.5 Q 583 96 582.5 117.5 Q 582 139 575 150 Q 557 179 480 198 Q 469 198 465 198 Q 455 200 455 186 Z" fill="lightgray"></path>
</g>
		<text x="40" y="140" font-size="128" fill="#999999">1</text></g>
		<g id="id0:id1:id1" transform="matrix(1.0,0,0,1.0,1024,0.0)">			<g stroke="lightgray" stroke-width="4" transform="scale(4, 4)"> <rect x="0" y="0" width="256" height="256" fill="white" stroke-width="4"/></g>
			<g transform="scale(0.92, -0.92) translate(60, -920)">					<path d="M 348 618 L 376 665 L 396 694 Q 401 699 394 710.5 Q 387 722 378 728 L 349 745 Q 332 755 322 755 Q 314 752 314 730 Q 314 708 301 676 L 285 631 Q 279 613 253.5 568.5 Q 228 524 177 462 L 154 432 Q 145 422 148 417.5 Q 151 413 161 420 L 186 438 Q 187 438 201.5 450.5 Q 216 463 238.5 481.5 Q 261 500 300 547 L 309 560 L 328 586 L 348 618 Z" fill="black"></path>
				<path d="M 556 628 L 554 631 L 552 636 Q 548 643 526 651 Q 504 662 493 657 L 348 618 C 319 610 298 590 328 586 L 352 583 Q 366 581 386 584 L 425 592 L 486 601 L 527 610 Q 544 613 548 616 Q 551 618 556 628 Z" fill="red"></path>
				<path d="M 300 547 Q 308 541 335 524 Q 362 506 389 481 Q 415 455 427 455 Q 441 452 454 462 Q 462 470 464 483 Q 465 495 455 506 Q 446 519 406 534 Q 366 549 309 560 C 280 566 276 564 300 547 Z" fill="lightgray"></path>
				<path d="M 644 579 L 661 601 L 681 639 L 707 685 L 720 702 Q 726 708 728 716 Q 730 724 729.5 726.5 Q 729 729 723 738.5 Q 717 748 708 754 L 683 772 Q 667 780 658.5 780 Q 650 780 649 777 Q 646 776 646 764.5 Q 646 753 645 750 L 643 738 Q 636 702 623 665 Q 606 621 600 609 Q 594 597 561 539 Q 534 495 524 482 L 508 463 Q 500 456 504 451.5 Q 508 447 518 453 L 539 469 Q 566 489 592 516 Q 618 543 627 556 L 634 566 L 644 579 Z" fill="lightgray"></path>
				<path d="M 661 601 L 684 598 L 713 601 Q 727 602 764 608 L 847 626 Q 875 631 889 640 Q 903 648 904 654 Q 904 662 884 674 Q 863 686 849 686 Q 835 686 833 684 L 805 674 Q 767 661 755 658 L 681 639 C 652 632 631 605 661 601 Z" fill="lightgray"></path>
				<path d="M 634 566 Q 641 561 664 548 Q 686 534 704 520 Q 751 488 771 465 Q 787 452 802 452 Q 817 452 826 462 Q 835 471 830 490 Q 824 505 806 521 Q 788 536 737 558 Q 686 579 644 579 C 614 580 614 580 634 566 Z" fill="lightgray"></path>
				<path d="M 314 228 L 405 340 L 422 356 Q 426 360 428 367 Q 428 384 398 402 Q 368 420 359 422 Q 340 426 337.5 423.5 Q 335 421 334.5 408.5 Q 334 396 328 370 Q 297 306 256 253 Q 236 224 184 174 Q 127 117 117 109 L 86 85 Q 82 82 85 78 Q 90 76 91 77 L 113 86 Q 124 91 163.5 112.5 Q 203 134 218.5 144.5 Q 234 155 284 201 L 314 228 Z" fill="lightgray"></path>
				<path d="M 350 200 Q 347 204 338 212 L 314 228 C 289 245 277 230 284 201 L 288 185 Q 290 160 289 138 Q 287 116 286 67 L 280 26 Q 279 13 272 -7 Q 264 -26 263 -33 Q 262 -40 268 -64 Q 274 -88 290 -106 Q 305 -124 311 -123 Q 316 -121 322 -111 Q 328 -101 334 -79 Q 340 -56 340 -54 L 338 27 L 342 151 Q 342 165 347 174 Q 351 183 352 186 Q 352 189 350 200 Z" fill="lightgray"></path>
				<path d="M 709 315 L 656 306 Q 558 287 516 282 L 411 267 Q 395 264 394 261 Q 387 250 410 238 Q 433 229 445.5 223.5 Q 458 218 471 220 L 508 230 Q 545 241 575 246 L 711 270 L 771 278 L 929 287 Q 971 288 977 293 Q 985 296 987 302 Q 990 319 964 330 L 940 341 Q 907 354 867 347 L 771 330 L 709 315 Z" fill="lightgray"></path>
				<path d="M 711 270 L 711 121 Q 711 110 709 36 Q 703 -33 690 -42 Q 684 -44 663 -40 L 625 -32 L 583 -18 Q 573 -15 570 -18 Q 567 -28 573 -34 L 596 -50 Q 631 -76 654 -104 L 687 -146 Q 692 -154 696 -155 Q 700 -156 712.5 -154 Q 725 -152 743.5 -127 Q 762 -102 768 -72 Q 774 -42 774 34 L 771 278 L 771 330 L 776 374 L 780 396 L 782 412 L 782 424 Q 781 429 747.5 444 Q 714 459 689 451 Q 686 448 687 440 L 692 420 Q 699 402 706 353 L 709 315 L 711 270 Z" fill="lightgray"></path>
				<path d="M 455 186 L 466 171 Q 472 163 493.5 124 Q 515 85 531 77.5 Q 547 70 555.5 70.5 Q 564 71 573.5 83.5 Q 583 96 582.5 117.5 Q 582 139 575 150 Q 557 179 480 198 Q 469 198 465 198 Q 455 200 455 186 Z" fill="lightgray"></path>
</g>
		<text x="40" y="140" font-size="128" fill="#999999">2</text></g>
		<g id="id0:id2:id2" transform="matrix(1.0,0,0,1.0,2048,0.0)">			<g stroke="lightgray" stroke-width="4" transform="scale(4, 4)"> <rect x="0" y="0" width="256" height="256" fill="white" stroke-width="4"/></g>
			<g transform="scale(0.92, -0.92) translate(60, -920)">					<path d="M 348 618 L 376 665 L 396 694 Q 401 699 394 710.5 Q 387 722 378 728 L 349 745 Q 332 755 322 755 Q 314 752 314 730 Q 314 708 301 676 L 285 631 Q 279 613 253.5 568.5 Q 228 524 177 462 L 154 432 Q 145 422 148 417.5 Q 151 413 161 420 L 186 438 Q 187 438 201.5 450.5 Q 216 463 238.5 481.5 Q 261 500 300 547 L 309 560 L 328 586 L 348 618 Z" fill="black"></path>
				<path d="M 556 628 L 554 631 L 552 636 Q 548 643 526 651 Q 504 662 493 657 L 348 618 C 319 610 298 590 328 586 L 352 583 Q 366 581 386 584 L 425 592 L 486 601 L 527 610 Q 544 613 548 616 Q 551 618 556 628 Z" fill="black"></path>
				<path d="M 300 547 Q 308 541 335 524 Q 362 506 389 481 Q 415 455 427 455 Q 441 452 454 462 Q 462 470 464 483 Q 465 495 455 506 Q 446 519 406 534 Q 366 549 309 560 C 280 566 276 564 300 547 Z" fill="red"></path>
				<path d="M 644 579 L 661 601 L 681 639 L 707 685 L 720 702 Q 726 708 728 716 Q 730 724 729.5 726.5 Q 729 729 723 738.5 Q 717 748 708 754 L 683 772 Q 667 780 658.5 780 Q 650 780 649 777 Q 646 776 646 764.5 Q 646 753 645 750 L 643 738 Q 636 702 623 665 Q 606 621 600 609 Q 594 597 561 539 Q 534 495 524 482 L 508 463 Q 500 456 504 451.5 Q 508 447 518 453 L 539 469 Q 566 489 592 516 Q 618 543 627 556 L 634 566 L 644 579 Z" fill="lightgray"></path>
				<path d="M 661 601 L 684 598 L 713 601 Q 727 602 764 608 L 847 626 Q 875 631 889 640 Q 903 648 904 654 Q 904 662 884 674 Q 863 686 849 686 Q 835 686 833 684 L 805 674 Q 767 661 755 658 L 681 639 C 652 632 631 605 661 601 Z" fill="lightgray"></path>
				<path d="M 634 566 Q 641 561 664 548 Q 686 534 704 520 Q 751 488 771 465 Q 787 452 802 452 Q 817 452 826 462 Q 835 471 830 490 Q 824 505 806 521 Q 788 536 737 558 Q 686 579 644 579 C 614 580 614 580 634 566 Z" fill="lightgray"></path>
				<path d="M 314 228 L 405 340 L 422 356 Q 426 360 428 367 Q 428 384 398 402 Q 368 420 359 422 Q 340 426 337.5 423.5 Q 335 421 334.5 408.5 Q 334 396 328 370 Q 297 306 256 253 Q 236 224 184 174 Q 127 117 117 109 L 86 85 Q 82 82 85 78 Q 90 76 91 77 L 113 86 Q 124 91 163.5 112.5 Q 203 134 218.5 144.5 Q 234 155 284 201 L 314 228 Z" fill="lightgray"></path>
				<path d="M 350 200 Q 347 204 338 212 L 314 228 C 289 245 277 230 284 201 L 288 185 Q 290 160 289 138 Q 287 116 286 67 L 280 26 Q 279 13 272 -7 Q 264 -26 263 -33 Q 262 -40 268 -64 Q 274 -88 290 -106 Q 305 -124 311 -123 Q 316 -121 322 -111 Q 328 -101 334 -79 Q 340 -56 340 -54 L 338 27 L 342 151 Q 342 165 347 174 Q 351 183 352 186 Q 352 189 350 200 Z" fill="lightgray"></path>
				<path d="M 709 315 L 656 306 Q 558 287 516 282 L 411 267 Q 395 264 394 261 Q 387 250 410 238 Q 433 229 445.5 223.5 Q 458 218 471 220 L 508 230 Q 545 241 575 246 L 711 270 L 771 278 L 929 287 Q 971 288 977 293 Q 985 296 987 302 Q 990 319 964 330 L 940 341 Q 907 354 867 347 L 771 330 L 709 315 Z" fill="lightgray"></path>
				<path d="M 711 270 L 711 121 Q 711 110 709 36 Q 703 -33 690 -42 Q 684 -44 663 -40 L 625 -32 L 583 -18 Q 573 -15 570 -18 Q 567 -28 573 -34 L 596 -50 Q 631 -76 654 -104 L 687 -146 Q 692 -154 696 -155 Q 700 -156 712.5 -154 Q 725 -152 743.5 -127 Q 762 -102 768 -72 Q 774 -42 774 34 L 771 278 L 771 330 L 776 374 L 780 396 L 782 412 L 782 424 Q 781 429 747.5 444 Q 714 459 689 451 Q 686 448 687 440 L 692 420 Q 699 402 706 353 L 709 315 L 711 270 Z" fill="lightgray"></path>
				<path d="M 455 186 L 466 171 Q 472 163 493.5 124 Q 515 85 531 77.5 Q 547 70 555.5 70.5 Q 564 71 573.5 83.5 Q 583 96 582.5 117.5 Q 582 139 575 150 Q 557 179 480 198 Q 469 198 465 198 Q 455 200 455 186 Z" fill="lightgray"></path>
</g>
		<text x="40" y="140" font-size="128" fill="#999999">3</text></g>
		<g id="id0:id3:id3" transform="matrix(1.0,0,0,1.0,3072,0.0)">			<g stroke="lightgray" stroke-width="4" transform="scale(4, 4)"> <rect x="0" y="0" width="256" height="256" fill="white" stroke-width="4"/></g>
			<g transform="scale(0.92, -0.92) translate(60, -920)">					<path d="M 348 618 L 376 665 L 396 694 Q 401 699 394 710.5 Q 387 722 378 728 L 349 745 Q 332 755 322 755 Q 314 752 314 730 Q 314 708 301 676 L 285 631 Q 279 613 253.5 568.5 Q 228 524 177 462 L 154 432 Q 145 422 148 417.5 Q 151 413 161 420 L 186 438 Q 187 438 201.5 450.5 Q 216 463 238.5 481.5 Q 261 500 300 547 L 309 560 L 328 586 L 348 618 Z" fill="black"></path>
				<path d="M 556 628 L 554 631 L 552 636 Q 548 643 526 651 Q 504 662 493 657 L 348 618 C 319 610 298 590 328 586 L 352 583 Q 366 581 386 584 L 425 592 L 486 601 L 527 610 Q 544 613 548 616 Q 551 618 556 628 Z" fill="black"></path>
				<path d="M 300 547 Q 308 541 335 524 Q 362 506 389 481 Q 415 455 427 455 Q 441 452 454 462 Q 462 470 464 483 Q 465 495 455 506 Q 446 519 406 534 Q 366 549 309 560 C 280 566 276 564 300 547 Z" fill="black"></path>
				<path d="M 644 579 L 661 601 L 681 639 L 707 685 L 720 702 Q 726 708 728 716 Q 730 724 729.5 726.5 Q 729 729 723 738.5 Q 717 748 708 754 L 683 772 Q 667 780 658.5 780 Q 650 780 649 777 Q 646 776 646 764.5 Q 646 753 645 750 L 643 738 Q 636 702 623 665 Q 606 621 600 609 Q 594 597 561 539 Q 534 495 524 482 L 508 463 Q 500 456 504 451.5 Q 508 447 518 453 L 539 469 Q 566 489 592 516 Q 618 543 627 556 L 634 566 L 644 579 Z" fill="red"></path>
				<path d="M 661 601 L 684 598 L 713 601 Q 727 602 764 608 L 847 626 Q 875 631 889 640 Q 903 648 904 654 Q 904 662 884 674 Q 863 686 849 686 Q 835 686 833 684 L 805 674 Q 767 661 755 658 L 681 639 C 652 632 631 605 661 601 Z" fill="lightgray"></path>
				<path d="M 634 566 Q 641 561 664 548 Q 686 534 704 520 Q 751 488 771 465 Q 787 452 802 452 Q 817 452 826 462 Q 835 471 830 490 Q 824 505 806 521 Q 788 536 737 558 Q 686 579 644 579 C 614 580 614 580 634 566 Z" fill="lightgray"></path>
				<path d="M 314 228 L 405 340 L 422 356 Q 426 360 428 367 Q 428 384 398 402 Q 368 420 359 422 Q 340 426 337.5 423.5 Q 335 421 334.5 408.5 Q 334 396 328 370 Q 297 306 256 253 Q 236 224 184 174 Q 127 117 117 109 L 86 85 Q 82 82 85 78 Q 90 76 91 77 L 113 86 Q 124 91 163.5 112.5 Q 203 134 218.5 144.5 Q 234 155 284 201 L 314 228 Z" fill="lightgray"></path>
				<path d="M 350 200 Q 347 204 338 212 L 314 228 C 289 245 277 230 284 201 L 288 185 Q 290 160 289 138 Q 287 116 286 67 L 280 26 Q 279 13 272 -7 Q 264 -26 263 -33 Q 262 -40 268 -64 Q 274 -88 290 -106 Q 305 -124 311 -123 Q 316 -121 322 -111 Q 328 -101 334 -79 Q 340 -56 340 -54 L 338 27 L 342 151 Q 342 165 347 174 Q 351 183 352 186 Q 352 189 350 200 Z" fill="lightgray"></path>
				<path d="M 709 315 L 656 306 Q 558 287 516 282 L 411 267 Q 395 264 394 261 Q 387 250 410 238 Q 433 229 445.5 223.5 Q 458 218 471 220 L 508 230 Q 545 241 575 246 L 711 270 L 771 278 L 929 287 Q 971 288 977 293 Q 985 296 987 302 Q 990 319 964 330 L 940 341 Q 907 354 867 347 L 771 330 L 709 315 Z" fill="lightgray"></path>
				<path d="M 711 270 L 711 121 Q 711 110 709 36 Q 703 -33 690 -42 Q 684 -44 663 -40 L 625 -32 L 583 -18 Q 573 -15 570 -18 Q 567 -28 573 -34 L 596 -50 Q 631 -76 654 -104 L 687 -146 Q 692 -154 696 -155 Q 700 -156 712.5 -154 Q 725 -152 743.5 -127 Q 762 -102 768 -72 Q 774 -42 774 34 L 771 278 L 771 330 L 776 374 L 780 396 L 782 412 L 782 424 Q 781 429 747.5 444 Q 714 459 689 451 Q 686 448 687 440 L 692 420 Q 699 402 706 353 L 709 315 L 711 270 Z" fill="lightgray"></path>
				<path d="M 455 186 L 466 171 Q 472 163 493.5 124 Q 515 85 531 77.5 Q 547 70 555.5 70.5 Q 564 71 573.5 83.5 Q 583 96 582.5 117.5 Q 582 139 575 150 Q 557 179 480 198 Q 469 198 465 198 Q 455 200 455 186 Z" fill="lightgray"></path>
</g>
		<text x="40" y="140" font-size="128" fill="#999999">4</text></g>
		<g id="id0:id4:id4" transform="matrix(1.0,0,0,1.0,4096,0.0)">			<g stroke="lightgray" stroke-width="4" transform="scale(4, 4)"> <rect x="0" y="0" width="256" height="256" fill="white" stroke-width="4"/></g>
			<g transform="scale(0.92, -0.92) translate(60, -920)">					<path d="M 348 618 L 376 665 L 396 694 Q 401 699 394 710.5 Q 387 722 378 728 L 349 745 Q 332 755 322 755 Q 314 752 314 730 Q 314 708 301 676 L 285 631 Q 279 613 253.5 568.5 Q 228 524 177 462 L 154 432 Q 145 422 148 417.5 Q 151 413 161 420 L 186 438 Q 187 438 201.5 450.5 Q 216 463 238.5 481.5 Q 261 500 300 547 L 309 560 L 328 586 L 348 618 Z" fill="black"></path>
				<path d="M 556 628 L 554 631 L 552 636 Q 548 643 526 651 Q 504 662 493 657 L 348 618 C 319 610 298 590 328 586 L 352 583 Q 366 581 386 584 L 425 592 L 486 601 L 527 610 Q 544 613 548 616 Q 551 618 556 628 Z" fill="black"></path>
				<path d="M 300 547 Q 308 541 335 524 Q 362 506 389 481 Q 415 455 427 455 Q 441 452 454 462 Q 462 470 464 483 Q 465 495 455 506 Q 446 519 406 534 Q 366 549 309 560 C 280 566 276 564 300 547 Z" fill="black"></path>
				<path d="M 644 579 L 661 601 L 681 639 L 707 685 L 720 702 Q 726 708 728 716 Q 730 724 729.5 726.5 Q 729 729 723 738.5 Q 717 748 708 754 L 683 772 Q 667 780 658.5 780 Q 650 780 649 777 Q 646 776 646 764.5 Q 646 753 645 750 L 643 738 Q 636 702 623 665 Q 606 621 600 609 Q 594 597 561 539 Q 534 495 524 482 L 508 463 Q 500 456 504 451.5 Q 508 447 518 453 L 539 469 Q 566 489 592 516 Q 618 543 627 556 L 634 566 L 644 579 Z" fill="black"></path>
				<path d="M 661 601 L 684 598 L 713 601 Q 727 602 764 608 L 847 626 Q 875 631 889 640 Q 903 648 904 654 Q 904 662 884 674 Q 863 686 849 686 Q 835 686 833 684 L 805 674 Q 767 661 755 658 L 681 639 C 652 632 631 605 661 601 Z" fill="red"></path>
				<path d="M 634 566 Q 641 561 664 548 Q 686 534 704 520 Q 751 488 771 465 Q 787 452 802 452 Q 817 452 826 462 Q 835 471 830 490 Q 824 505 806 521 Q 788 536 737 558 Q 686 579 644 579 C 614 580 614 580 634 566 Z" fill="lightgray"></path>
				<path d="M 314 228 L 405 340 L 422 356 Q 426 360 428 367 Q 428 384 398 402 Q 368 420 359 422 Q 340 426 337.5 423.5 Q 335 421 334.5 408.5 Q 334 396 328 370 Q 297 306 256 253 Q 236 224 184 174 Q 127 117 117 109 L 86 85 Q 82 82 85 78 Q 90 76 91 77 L 113 86 Q 124 91 163.5 112.5 Q 203 134 218.5 144.5 Q 234 155 284 201 L 314 228 Z" fill="lightgray"></path>
				<path d="M 350 200 Q 347 204 338 212 L 314 228 C 289 245 277 230 284 201 L 288 185 Q 290 160 289 138 Q 287 116 286 67 L 280 26 Q 279 13 272 -7 Q 264 -26 263 -33 Q 262 -40 268 -64 Q 274 -88 290 -106 Q 305 -124 311 -123 Q 316 -121 322 -111 Q 328 -101 334 -79 Q 340 -56 340 -54 L 338 27 L 342 151 Q 342 165 347 174 Q 351 183 352 186 Q 352 189 350 200 Z" fill="lightgray"></path>
				<path d="M 709 315 L 656 306 Q 558 287 516 282 L 411 267 Q 395 264 394 261 Q 387 250 410 238 Q 433 229 445.5 223.5 Q 458 218 471 220 L 508 230 Q 545 241 575 246 L 711 270 L 771 278 L 929 287 Q 971 288 977 293 Q 985 296 987 302 Q 990 319 964 330 L 940 341 Q 907 354 867 347 L 771 330 L 709 315 Z" fill="lightgray"></path>
				<path d="M 711 270 L 711 121 Q 711 110 709 36 Q 703 -33 690 -42 Q 684 -44 663 -40 L 625 -32 L 583 -18 Q 573 -15 570 -18 Q 567 -28 573 -34 L 596 -50 Q 631 -76 654 -104 L 687 -146 Q 692 -154 696 -155 Q 700 -156 712.5 -154 Q 725 -152 743.5 -127 Q 762 -102 768 -72 Q 774 -42 774 34 L 771 278 L 771 330 L 776 374 L 780 396 L 782 412 L 782 424 Q 781 429 747.5 444 Q 714 459 689 451 Q 686 448 687 440 L 692 420 Q 699 402 706 353 L 709 315 L 711 270 Z" fill="lightgray"></path>
				<path d="M 455 186 L 466 171 Q 472 163 493.5 124 Q 515 85 531 77.5 Q 547 70 555.5 70.5 Q 564 71 573.5 83.5 Q 583 96 582.5 117.5 Q 582 139 575 150 Q 557 179 480 198 Q 469 198 465 198 Q 455 200 455 186 Z" fill="lightgray"></path>
</g>
		<text x="40" y="140" font-size="128" fill="#999999">5</text></g>
</g>
	<g id="id1:id1" transform="translate(0.0,1024)">
		<g id="id1:id0:id0" transform="matrix(1.0,0,0,1.0,0,0.0)">			<g stroke="lightgray" stroke-width="4" transform="scale(4, 4)"> <rect x="0" y="0" width="256" height="256" fill="white" stroke-width="4"/></g>
			<g transform="scale(0.92, -0.92) translate(60, -920)">					<path d="M 348 618 L 376 665 L 396 694 Q 401 699 394 710.5 Q 387 722 378 728 L 349 745 Q 332 755 322 755 Q 314 752 314 730 Q 314 708 301 676 L 285 631 Q 279 613 253.5 568.5 Q 228 524 177 462 L 154 432 Q 145 422 148 417.5 Q 151 413 161 420 L 186 438 Q 187 438 201.5 450.5 Q 216 463 238.5 481.5 Q 261 500 300 547 L 309 560 L 328 586 L 348 618 Z" fill="black"></path>
				<path d="M 556 628 L 554 631 L 552 636 Q 548 643 526 651 Q 504 662 493 657 L 348 618 C 319 610 298 590 328 586 L 352 583 Q 366 581 386 584 L 425 592 L 486 601 L 527 610 Q 544 613 548 616 Q 551 618 556 628 Z" fill="black"></path>
				<path d="M 300 547 Q 308 541 335 524 Q 362 506 389 481 Q 415 455 427 455 Q 441 452 454 462 Q 462 470 464 483 Q 465 495 455 506 Q 446 519 406 534 Q 366 549 309 560 C 280 566 276 564 300 547 Z" fill="black"></path>
				<path d="M 644 579 L 661 601 L 681 639 L 707 685 L 720 702 Q 726 708 728 716 Q 730 724 729.5 726.5 Q 729 729 723 738.5 Q 717 748 708 754 L 683 772 Q 667 780 658.5 780 Q 650 780 649 777 Q 646 776 646 764.5 Q 646 753 645 750 L 643 738 Q 636 702 623 665 Q 606 621 600 609 Q 594 597 561 539 Q 534 495 524 482 L 508 463 Q 500 456 504 451.5 Q 508 447 518 453 L 539 469 Q 566 489 592 516 Q 618 543 627 556 L 634 566 L 644 579 Z" fill="black"></path>
				<path d="M 661 601 L 684 598 L 713 601 Q 727 602 764 608 L 847 626 Q 875 631 889 640 Q 903 648 904 654 Q 904 662 884 674 Q 863 686 849 686 Q 835 686 833 684 L 805 674 Q 767 661 755 658 L 681 639 C 652 632 631 605 661 601 Z" fill="black"></path>
				<path d="M 634 566 Q 641 561 664 548 Q 686 534 704 520 Q 751 488 771 465 Q 787 452 802 452 Q 817 452 826 462 Q 835 471 830 490 Q 824 505 806 521 Q 788 536 737 558 Q 686 579 644 579 C 614 580 614 580 634 566 Z" fill="red"></path>
				<path d="M 314 228 L 405 340 L 422 356 Q 426 360 428 367 Q 428 384 398 402 Q 368 420 359 422 Q 340 426 337.5 423.5 Q 335 421 334.5 408.5 Q 334 396 328 370 Q 297 306 256 253 Q 236 224 184 174 Q 127 117 117 109 L 86 85 Q 82 82 85 78 Q 90 76 91 77 L 113 86 Q 124 91 163.5 112.5 Q 203 134 218.5 144.5 Q 234 155 284 201 L 314 228 Z" fill="lightgray"></path>
				<path d="M 350 200 Q 347 204 338 212 L 314 228 C 289 245 277 230 284 201 L 288 185 Q 290 160 289 138 Q 287 116 286 67 L 280 26 Q 279 13 272 -7 Q 264 -26 263 -33 Q 262 -40 268 -64 Q 274 -88 290 -106 Q 305 -124 311 -123 Q 316 -121 322 -111 Q 328 -101 334 -79 Q 340 -56 340 -54 L 338 27 L 342 151 Q 342 165 347 174 Q 351 183 352 186 Q 352 189 350 200 Z" fill="lightgray"></path>
				<path d="M 709 315 L 656 306 Q 558 287 516 282 L 411 267 Q 395 264 394 261 Q 387 250 410 238 Q 433 229 445.5 223.5 Q 458 218 471 220 L 508 230 Q 545 241 575 246 L 711 270 L 771 278 L 929 287 Q 971 288 977 293 Q 985 296 987 302 Q 990 319 964 330 L 940 341 Q 907 354 867 347 L 771 330 L 709 315 Z" fill="lightgray"></path>
				<path d="M 711 270 L 711 121 Q 711 110 709 36 Q 703 -33 690 -42 Q 684 -44 663 -40 L 625 -32 L 583 -18 Q 573 -15 570 -18 Q 567 -28 573 -34 L 596 -50 Q 631 -76 654 -104 L 687 -146 Q 692 -154 696 -155 Q 700 -156 712.5 -154 Q 725 -152 743.5 -127 Q 762 -102 768 -72 Q 774 -42 774 34 L 771 278 L 771 330 L 776 374 L 780 396 L 782 412 L 782 424 Q 781 429 747.5 444 Q 714 459 689 451 Q 686 448 687 440 L 692 420 Q 699 402 706 353 L 709 315 L 711 270 Z" fill="lightgray"></path>
				<path d="M 455 186 L 466 171 Q 472 163 493.5 124 Q 515 85 531 77.5 Q 547 70 555.5 70.5 Q 564 71 573.5 83.5 Q 583 96 582.5 117.5 Q 582 139 575 150 Q 557 179 480 198 Q 469 198 465 198 Q 455 200 455 186 Z" fill="lightgray"></path>
</g>
		<text x="40" y="140" font-size="128" fill="#999999">6</text></g>
		<g id="id1:id1:id1" transform="matrix(1.0,0,0,1.0,1024,0.0)">			<g stroke="lightgray" stroke-width="4" transform="scale(4, 4)"> <rect x="0" y="0" width="256" height="256" fill="white" stroke-width="4"/></g>
			<g transform="scale(0.92, -0.92) translate(60, -920)">					<path d="M 348 618 L 376 665 L 396 694 Q 401 699 394 710.5 Q 387 722 378 728 L 349 745 Q 332 755 322 755 Q 314 752 314 730 Q 314 708 301 676 L 285 631 Q 279 613 253.5 568.5 Q 228 524 177 462 L 154 432 Q 145 422 148 417.5 Q 151 413 161 420 L 186 438 Q 187 438 201.5 450.5 Q 216 463 238.5 481.5 Q 261 500 300 547 L 309 560 L 328 586 L 348 618 Z" fill="black"></path>
				<path d="M 556 628 L 554 631 L 552 636 Q 548 643 526 651 Q 504 662 493 657 L 348 618 C 319 610 298 590 328 586 L 352 583 Q 366 581 386 584 L 425 592 L 486 601 L 527 610 Q 544 613 548 616 Q 551 618 556 628 Z" fill="black"></path>
				<path d="M 300 547 Q 308 541 335 524 Q 362 506 389 481 Q 415 455 427 455 Q 441 452 454 462 Q 462 470 464 483 Q 465 495 455 506 Q 446 519 406 534 Q 366 549 309 560 C 280 566 276 564 300 547 Z" fill="black"></path>
				<path d="M 644 579 L 661 601 L 681 639 L 707 685 L 720 702 Q 726 708 728 716 Q 730 724 729.5 726.5 Q 729 729 723 738.5 Q 717 748 708 754 L 683 772 Q 667 780 658.5 780 Q 650 780 649 777 Q 646 776 646 764.5 Q 646 753 645 750 L 643 738 Q 636 702 623 665 Q 606 621 600 609 Q 594 597 561 539 Q 534 495 524 482 L 508 463 Q 500 456 504 451.5 Q 508 447 518 453 L 539 469 Q 566 489 592 516 Q 618 543 627 556 L 634 566 L 644 579 Z" fill="black"></path>
				<path d="M 661 601 L 684 598 L 713 601 Q 727 602 764 608 L 847 626 Q 875 631 889 640 Q 903 648 904 654 Q 904 662 884 674 Q 863 686 849 686 Q 835 686 833 684 L 805 674 Q 767 661 755 658 L 681 639 C 652 632 631 605 661 601 Z" fill="black"></path>
				<path d="M 634 566 Q 641 561 664 548 Q 686 534 704 520 Q 751 488 771 465 Q 787 452 802 452 Q 817 452 826 462 Q 835 471 830 490 Q 824 505 806 521 Q 788 536 737 558 Q 686 579 644 579 C 614 580 614 580 634 566 Z" fill="black"></path>
				<path d="M 314 228 L 405 340 L 422 356 Q 426 360 428 367 Q 428 384 398 402 Q 368 420 359 422 Q 340 426 337.5 423.5 Q 335 421 334.5 408.5 Q 334 396 328 370 Q 297 306 256 253 Q 236 224 184 174 Q 127 117 117 109 L 86 85 Q 82 82 85 78 Q 90 76 91 77 L 113 86 Q 124 91 163.5 112.5 Q 203 134 218.5 144.5 Q 234 155 284 201 L 314 228 Z" fill="red"></path>
				<path d="M 350 200 Q 347 204 338 212 L 314 228 C 289 245 277 230 284 201 L 288 185 Q 290 160 289 138 Q 287 116 286 67 L 280 26 Q 279 13 272 -7 Q 264 -26 263 -33 Q 262 -40 268 -64 Q 274 -88 290 -106 Q 305 -124 311 -123 Q 316 -121 322 -111 Q 328 -101 334 -79 Q 340 -56 340 -54 L 338 27 L 342 151 Q 342 165 347 174 Q 351 183 352 186 Q 352 189 350 200 Z" fill="lightgray"></path>
				<path d="M 709 315 L 656 306 Q 558 287 516 282 L 411 267 Q 395 264 394 261 Q 387 250 410 238 Q 433 229 445.5 223.5 Q 458 218 471 220 L 508 230 Q 545 241 575 246 L 711 270 L 771 278 L 929 287 Q 971 288 977 293 Q 985 296 987 302 Q 990 319 964 330 L 940 341 Q 907 354 867 347 L 771 330 L 709 315 Z" fill="lightgray"></path>
				<path d="M 711 270 L 711 121 Q 711 110 709 36 Q 703 -33 690 -42 Q 684 -44 663 -40 L 625 -32 L 583 -18 Q 573 -15 570 -18 Q 567 -28 573 -34 L 596 -50 Q 631 -76 654 -104 L 687 -146 Q 692 -154 696 -155 Q 700 -156 712.5 -154 Q 725 -152 743.5 -127 Q 762 -102 768 -72 Q 774 -42 774 34 L 771 278 L 771 330 L 776 374 L 780 396 L 782 412 L 782 424 Q 781 429 747.5 444 Q 714 459 689 451 Q 686 448 687 440 L 692 420 Q 699 402 706 353 L 709 315 L 711 270 Z" fill="lightgray"></path>
				<path d="M 455 186 L 466 171 Q 472 163 493.5 124 Q 515 85 531 77.5 Q 547 70 555.5 70.5 Q 564 71 573.5 83.5 Q 583 96 582.5 117.5 Q 582 139 575 150 Q 557 179 480 198 Q 469 198 465 198 Q 455 200 455 186 Z" fill="lightgray"></path>
</g>
		<text x="40" y="140" font-size="128" fill="#999999">7</text></g>
		<g id="id1:id2:id2" transform="matrix(1.0,0,0,1.0,2048,0.0)">			<g stroke="lightgray" stroke-width="4" transform="scale(4, 4)"> <rect x="0" y="0" width="256" height="256" fill="white" stroke-width="4"/></g>
			<g transform="scale(0.92, -0.92) translate(60, -920)">					<path d="M 348 618 L 376 665 L 396 694 Q 401 699 394 710.5 Q 387 722 378 728 L 349 745 Q 332 755 322 755 Q 314 752 314 730 Q 314 708 301 676 L 285 631 Q 279 613 253.5 568.5 Q 228 524 177 462 L 154 432 Q 145 422 148 417.5 Q 151 413 161 420 L 186 438 Q 187 438 201.5 450.5 Q 216 463 238.5 481.5 Q 261 500 300 547 L 309 560 L 328 586 L 348 618 Z" fill="black"></path>
				<path d="M 556 628 L 554 631 L 552 636 Q 548 643 526 651 Q 504 662 493 657 L 348 618 C 319 610 298 590 328 586 L 352 583 Q 366 581 386 584 L 425 592 L 486 601 L 527 610 Q 544 613 548 616 Q 551 618 556 628 Z" fill="black"></path>
				<path d="M 300 547 Q 308 541 335 524 Q 362 506 389 481 Q 415 455 427 455 Q 441 452 454 462 Q 462 470 464 483 Q 465 495 455 506 Q 446 519 406 534 Q 366 549 309 560 C 280 566 276 564 300 547 Z" fill="black"></path>
				<path d="M 644 579 L 661 601 L 681 639 L 707 685 L 720 702 Q 726 708 728 716 Q 730 724 729.5 726.5 Q 729 729 723 738.5 Q 717 748 708 754 L 683 772 Q 667 780 658.5 780 Q 650 780 649 777 Q 646 776 646 764.5 Q 646 753 645 750 L 643 738 Q 636 702 623 665 Q 606 621 600 609 Q 594 597 561 539 Q 534 495 524 482 L 508 463 Q 500 456 504 451.5 Q 508 447 518 453 L 539 469 Q 566 489 592 516 Q 618 543 627 556 L 634 566 L 644 579 Z" fill="black"></path>
				<path d="M 661 601 L 684 598 L 713 601 Q 727 602 764 608 L 847 626 Q 875 631 889 640 Q 903 648 904 654 Q 904 662 884 674 Q 863 686 849 686 Q 835 686 833 684 L 805 674 Q 767 661 755 658 L 681 639 C 652 632 631 605 661 601 Z" fill="black"></path>
				<path d="M 634 566 Q 641 561 664 548 Q 686 534 704 520 Q 751 488 771 465 Q 787 452 802 452 Q 817 452 826 462 Q 835 471 830 490 Q 824 505 806 521 Q 788 536 737 558 Q 686 579 644 579 C 614 580 614 580 634 566 Z" fill="black"></path>
				<path d="M 314 228 L 405 340 L 422 356 Q 426 360 428 367 Q 428 384 398 402 Q 368 420 359 422 Q 340 426 337.5 423.5 Q 335 421 334.5 408.5 Q 334 396 328 370 Q 297 306 256 253 Q 236 224 184 174 Q 127 117 117 109 L 86 85 Q 82 82 85 78 Q 90 76 91 77 L 113 86 Q 124 91 163.5 112.5 Q 203 134 218.5 144.5 Q 234 155 284 201 L 314 228 Z" fill="black"></path>
				<path d="M 350 200 Q 347 204 338 212 L 314 228 C 289 245 277 230 284 201 L 288 185 Q 290 160 289 138 Q 287 116 286 67 L 280 26 Q 279 13 272 -7 Q 264 -26 263 -33 Q 262 -40 268 -64 Q 274 -88 290 -106 Q 305 -124 311 -123 Q 316 -121 322 -111 Q 328 -101 334 -79 Q 340 -56 340 -54 L 338 27 L 342 151 Q 342 165 347 174 Q 351 183 352 186 Q 352 189 350 200 Z" fill="red"></path>
				<path d="M 709 315 L 656 306 Q 558 287 516 282 L 411 267 Q 395 264 394 261 Q 387 250 410 238 Q 433 229 445.5 223.5 Q 458 218 471 220 L 508 230 Q 545 241 575 246 L 711 270 L 771 278 L 929 287 Q 971 288 977 293 Q 985 296 987 302 Q 990 319 964 330 L 940 341 Q 907 354 867 347 L 771 330 L 709 315 Z" fill="lightgray"></path>
				<path d="M 711 270 L 711 121 Q 711 110 709 36 Q 703 -33 690 -42 Q 684 -44 663 -40 L 625 -32 L 583 -18 Q 573 -15 570 -18 Q 567 -28 573 -34 L 596 -50 Q 631 -76 654 -104 L 687 -146 Q 692 -154 696 -155 Q 700 -156 712.5 -154 Q 725 -152 743.5 -127 Q 762 -102 768 -72 Q 774 -42 774 34 L 771 278 L 771 330 L 776 374 L 780 396 L 782 412 L 782 424 Q 781 429 747.5 444 Q 714 459 689 451 Q 686 448 687 440 L 692 420 Q 699 402 706 353 L 709 315 L 711 270 Z" fill="lightgray"></path>
				<path d="M 455 186 L 466 171 Q 472 163 493.5 124 Q 515 85 531 77.5 Q 547 70 555.5 70.5 Q 564 71 573.5 83.5 Q 583 96 582.5 117.5 Q 582 139 575 150 Q 557 179 480 198 Q 469 198 465 198 Q 455 200 455 186 Z" fill="lightgray"></path>
</g>
		<text x="40" y="140" font-size="128" fill="#999999">8</text></g>
		<g id="id1:id3:id3" transform="matrix(1.0,0,0,1.0,3072,0.0)">			<g stroke="lightgray" stroke-width="4" transform="scale(4, 4)"> <rect x="0" y="0" width="256" height="256" fill="white" stroke-width="4"/></g>
			<g transform="scale(0.92, -0.92) translate(60, -920)">					<path d="M 348 618 L 376 665 L 396 694 Q 401 699 394 710.5 Q 387 722 378 728 L 349 745 Q 332 755 322 755 Q 314 752 314 730 Q 314 708 301 676 L 285 631 Q 279 613 253.5 568.5 Q 228 524 177 462 L 154 432 Q 145 422 148 417.5 Q 151 413 161 420 L 186 438 Q 187 438 201.5 450.5 Q 216 463 238.5 481.5 Q 261 500 300 547 L 309 560 L 328 586 L 348 618 Z" fill="black"></path>
				<path d="M 556 628 L 554 631 L 552 636 Q 548 643 526 651 Q 504 662 493 657 L 348 618 C 319 610 298 590 328 586 L 352 583 Q 366 581 386 584 L 425 592 L 486 601 L 527 610 Q 544 613 548 616 Q 551 618 556 628 Z" fill="black"></path>
				<path d="M 300 547 Q 308 541 335 524 Q 362 506 389 481 Q 415 455 427 455 Q 441 452 454 462 Q 462 470 464 483 Q 465 495 455 506 Q 446 519 406 534 Q 366 549 309 560 C 280 566 276 564 300 547 Z" fill="black"></path>
				<path d="M 644 579 L 661 601 L 681 639 L 707 685 L 720 702 Q 726 708 728 716 Q 730 724 729.5 726.5 Q 729 729 723 738.5 Q 717 748 708 754 L 683 772 Q 667 780 658.5 780 Q 650 780 649 777 Q 646 776 646 764.5 Q 646 753 645 750 L 643 738 Q 636 702 623 665 Q 606 621 600 609 Q 594 597 561 539 Q 534 495 524 482 L 508 463 Q 500 456 504 451.5 Q 508 447 518 453 L 539 469 Q 566 489 592 516 Q 618 543 627 556 L 634 566 L 644 579 Z" fill="black"></path>
				<path d="M 661 601 L 684 598 L 713 601 Q 727 602 764 608 L 847 626 Q 875 631 889 640 Q 903 648 904 654 Q 904 662 884 674 Q 863 686 849 686 Q 835 686 833 684 L 805 674 Q 767 661 755 658 L 681 639 C 652 632 631 605 661 601 Z" fill="black"></path>
				<path d="M 634 566 Q 641 561 664 548 Q 686 534 704 520 Q 751 488 771 465 Q 787 452 802 452 Q 817 452 826 462 Q 835 471 830 490 Q 824 505 806 521 Q 788 536 737 558 Q 686 579 644 579 C 614 580 614 580 634 566 Z" fill="black"></path>
				<path d="M 314 228 L 405 340 L 422 356 Q 426 360 428 367 Q 428 384 398 402 Q 368 420 359 422 Q 340 426 337.5 423.5 Q 335 421 334.5 408.5 Q 334 396 328 370 Q 297 306 256 253 Q 236 224 184 174 Q 127 117 117 109 L 86 85 Q 82 82 85 78 Q 90 76 91 77 L 113 86 Q 124 91 163.5 112.5 Q 203 134 218.5 144.5 Q 234 155 284 201 L 314 228 Z" fill="black"></path>
				<path d="M 350 200 Q 347 204 338 212 L 314 228 C 289 245 277 230 284 201 L 288 185 Q 290 160 289 138 Q 287 116 286 67 L 280 26 Q 279 13 272 -7 Q 264 -26 263 -33 Q 262 -40 268 -64 Q 274 -88 290 -106 Q 305 -124 311 -123 Q 316 -121 322 -111 Q 328 -101 334 -79 Q 340 -56 340 -54 L 338 27 L 342 151 Q 342 165 347 174 Q 351 183 352 186 Q 352 189 350 200 Z" fill="black"></path>
				<path d="M 709 315 L 656 306 Q 558 287 516 282 L 411 267 Q 395 264 394 261 Q 387 250 410 238 Q 433 229 445.5 223.5 Q 458 218 471 220 L 508 230 Q 545 241 575 246 L 711 270 L 771 278 L 929 287 Q 971 288 977 293 Q 985 296 987 302 Q 990 319 964 330 L 940 341 Q 907 354 867 347 L 771 330 L 709 315 Z" fill="red"></path>
				<path d="M 711 270 L 711 121 Q 711 110 709 36 Q 703 -33 690 -42 Q 684 -44 663 -40 L 625 -32 L 583 -18 Q 573 -15 570 -18 Q 567 -28 573 -34 L 596 -50 Q 631 -76 654 -104 L 687 -146 Q 692 -154 696 -155 Q 700 -156 712.5 -154 Q 725 -152 743.5 -127 Q 762 -102 768 -72 Q 774 -42 774 34 L 771 278 L 771 330 L 776 374 L 780 396 L 782 412 L 782 424 Q 781 429 747.5 444 Q 714 459 689 451 Q 686 448 687 440 L 692 420 Q 699 402 706 353 L 709 315 L 711 270 Z" fill="lightgray"></path>
				<path d="M 455 186 L 466 171 Q 472 163 493.5 124 Q 515 85 531 77.5 Q 547 70 555.5 70.5 Q 564 71 573.5 83.5 Q 583 96 582.5 117.5 Q 582 139 575 150 Q 557 179 480 198 Q 469 198 465 198 Q 455 200 455 186 Z" fill="lightgray"></path>
</g>
		<text x="40" y="140" font-size="128" fill="#999999">9</text></g>
		<g id="id1:id4:id4" transform="matrix(1.0,0,0,1.0,4096,0.0)">			<g stroke="lightgray" stroke-width="4" transform="scale(4, 4)"> <rect x="0" y="0" width="256" height="256" fill="white" stroke-width="4"/></g>
			<g transform="scale(0.92, -0.92) translate(60, -920)">					<path d="M 348 618 L 376 665 L 396 694 Q 401 699 394 710.5 Q 387 722 378 728 L 349 745 Q 332 755 322 755 Q 314 752 314 730 Q 314 708 301 676 L 285 631 Q 279 613 253.5 568.5 Q 228 524 177 462 L 154 432 Q 145 422 148 417.5 Q 151 413 161 420 L 186 438 Q 187 438 201.5 450.5 Q 216 463 238.5 481.5 Q 261 500 300 547 L 309 560 L 328 586 L 348 618 Z" fill="black"></path>
				<path d="M 556 628 L 554 631 L 552 636 Q 548 643 526 651 Q 504 662 493 657 L 348 618 C 319 610 298 590 328 586 L 352 583 Q 366 581 386 584 L 425 592 L 486 601 L 527 610 Q 544 613 548 616 Q 551 618 556 628 Z" fill="black"></path>
				<path d="M 300 547 Q 308 541 335 524 Q 362 506 389 481 Q 415 455 427 455 Q 441 452 454 462 Q 462 470 464 483 Q 465 495 455 506 Q 446 519 406 534 Q 366 549 309 560 C 280 566 276 564 300 547 Z" fill="black"></path>
				<path d="M 644 579 L 661 601 L 681 639 L 707 685 L 720 702 Q 726 708 728 716 Q 730 724 729.5 726.5 Q 729 729 723 738.5 Q 717 748 708 754 L 683 772 Q 667 780 658.5 780 Q 650 780 649 777 Q 646 776 646 764.5 Q 646 753 645 750 L 643 738 Q 636 702 623 665 Q 606 621 600 609 Q 594 597 561 539 Q 534 495 524 482 L 508 463 Q 500 456 504 451.5 Q 508 447 518 453 L 539 469 Q 566 489 592 516 Q 618 543 627 556 L 634 566 L 644 579 Z" fill="black"></path>
				<path d="M 661 601 L 684 598 L 713 601 Q 727 602 764 608 L 847 626 Q 875 631 889 640 Q 903 648 904 654 Q 904 662 884 674 Q 863 686 849 686 Q 835 686 833 684 L 805 674 Q 767 661 755 658 L 681 639 C 652 632 631 605 661 601 Z" fill="black"></path>
				<path d="M 634 566 Q 641 561 664 548 Q 686 534 704 520 Q 751 488 771 465 Q 787 452 802 452 Q 817 452 826 462 Q 835 471 830 490 Q 824 505 806 521 Q 788 536 737 558 Q 686 579 644 579 C 614 580 614 580 634 566 Z" fill="black"></path>
				<path d="M 314 228 L 405 340 L 422 356 Q 426 360 428 367 Q 428 384 398 402 Q 368 420 359 422 Q 340 426 337.5 423.5 Q 335 421 334.5 408.5 Q 334 396 328 370 Q 297 306 256 253 Q 236 224 184 174 Q 127 117 117 109 L 86 85 Q 82 82 85 78 Q 90 76 91 77 L 113 86 Q 124 91 163.5 112.5 Q 203 134 218.5 144.5 Q 234 155 284 201 L 314 228 Z" fill="black"></path>
				<path d="M 350 200 Q 347 204 338 212 L 314 228 C 289 245 277 230 284 201 L 288 185 Q 290 160 289 138 Q 287 116 286 67 L 280 26 Q 279 13 272 -7 Q 264 -26 263 -33 Q 262 -40 268 -64 Q 274 -88 290 -106 Q 305 -124 311 -123 Q 316 -121 322 -111 Q 328 -101 334 -79 Q 340 -56 340 -54 L 338 27 L 342 151 Q 342 165 347 174 Q 351 183 352 186 Q 352 189 350 200 Z" fill="black"></path>
				<path d="M 709 315 L 656 306 Q 558 287 516 282 L 411 267 Q 395 264 394 261 Q 387 250 410 238 Q 433 229 445.5 223.5 Q 458 218 471 220 L 508 230 Q 545 241 575 246 L 711 270 L 771 278 L 929 287 Q 971 288 977 293 Q 985 296 987 302 Q 990 319 964 330 L 940 341 Q 907 354 867 347 L 771 330 L 709 315 Z" fill="black"></path>
				<path d="M 711 270 L 711 121 Q 711 110 709 36 Q 703 -33 690 -42 Q 684 -44 663 -40 L 625 -32 L 583 -18 Q 573 -15 570 -18 Q 567 -28 573 -34 L 596 -50 Q 631 -76 654 -104 L 687 -146 Q 692 -154 696 -155 Q 700 -156 712.5 -154 Q 725 -152 743.5 -127 Q 762 -102 768 -72 Q 774 -42 774 34 L 771 278 L 771 330 L 776 374 L 780 396 L 782 412 L 782 424 Q 781 429 747.5 444 Q 714 459 689 451 Q 686 448 687 440 L 692 420 Q 699 402 706 353 L 709 315 L 711 270 Z" fill="red"></path>
				<path d="M 455 186 L 466 171 Q 472 163 493.5 124 Q 515 85 531 77.5 Q 547 70 555.5 70.5 Q 564 71 573.5 83.5 Q 583 96 582.5 117.5 Q 582 139 575 150 Q 557 179 480 198 Q 469 198 465 198 Q 455 200 455 186 Z" fill="lightgray"></path>
</g>
		<text x="40" y="140" font-size="128" fill="#999999">10</text></g>
</g>
	<g id="id2:id2" transform="translate(0.0,2048)">
		<g id="id2:id0:id0" transform="matrix(1.0,0,0,1.0,0,0.0)">			<g stroke="lightgray" stroke-width="4" transform="scale(4, 4)"> <rect x="0" y="0" width="256" height="256" fill="white" stroke-width="4"/></g>
			<g transform="scale(0.92, -0.92) translate(60, -920)">					<path d="M 348 618 L 376 665 L 396 694 Q 401 699 394 710.5 Q 387 722 378 728 L 349 745 Q 332 755 322 755 Q 314 752 314 730 Q 314 708 301 676 L 285 631 Q 279 613 253.5 568.5 Q 228 524 177 462 L 154 432 Q 145 422 148 417.5 Q 151 413 161 420 L 186 438 Q 187 438 201.5 450.5 Q 216 463 238.5 481.5 Q 261 500 300 547 L 309 560 L 328 586 L 348 618 Z" fill="black"></path>
				<path d="M 556 628 L 554 631 L 552 636 Q 548 643 526 651 Q 504 662 493 657 L 348 618 C 319 610 298 590 328 586 L 352 583 Q 366 581 386 584 L 425 592 L 486 601 L 527 610 Q 544 613 548 616 Q 551 618 556 628 Z" fill="black"></path>
				<path d="M 300 547 Q 308 541 335 524 Q 362 506 389 481 Q 415 455 427 455 Q 441 452 454 462 Q 462 470 464 483 Q 465 495 455 506 Q 446 519 406 534 Q 366 549 309 560 C 280 566 276 564 300 547 Z" fill="black"></path>
				<path d="M 644 579 L 661 601 L 681 639 L 707 685 L 720 702 Q 726 708 728 716 Q 730 724 729.5 726.5 Q 729 729 723 738.5 Q 717 748 708 754 L 683 772 Q 667 780 658.5 780 Q 650 780 649 777 Q 646 776 646 764.5 Q 646 753 645 750 L 643 738 Q 636 702 623 665 Q 606 621 600 609 Q 594 597 561 539 Q 534 495 524 482 L 508 463 Q 500 456 504 451.5 Q 508 447 518 453 L 539 469 Q 566 489 592 516 Q 618 543 627 556 L 634 566 L 644 579 Z" fill="black"></path>
				<path d="M 661 601 L 684 598 L 713 601 Q 727 602 764 608 L 847 626 Q 875 631 889 640 Q 903 648 904 654 Q 904 662 884 674 Q 863 686 849 686 Q 835 686 833 684 L 805 674 Q 767 661 755 658 L 681 639 C 652 632 631 605 661 601 Z" fill="black"></path>
				<path d="M 634 566 Q 641 561 664 548 Q 686 534 704 520 Q 751 488 771 465 Q 787 452 802 452 Q 817 452 826 462 Q 835 471 830 490 Q 824 505 806 521 Q 788 536 737 558 Q 686 579 644 579 C 614 580 614 580 634 566 Z" fill="black"></path>
				<path d="M 314 228 L 405 340 L 422 356 Q 426 360 428 367 Q 428 384 398 402 Q 368 420 359 422 Q 340 426 337.5 423.5 Q 335 421 334.5 408.5 Q 334 396 328 370 Q 297 306 256 253 Q 236 224 184 174 Q 127 117 117 109 L 86 85 Q 82 82 85 78 Q 90 76 91 77 L 113 86 Q 124 91 163.5 112.5 Q 203 134 218.5 144.5 Q 234 155 284 201 L 314 228 Z" fill="black"></path>
				<path d="M 350 200 Q 347 204 338 212 L 314 228 C 289 245 277 230 284 201 L 288 185 Q 290 160 289 138 Q 287 116 286 67 L 280 26 Q 279 13 272 -7 Q 264 -26 263 -33 Q 262 -40 268 -64 Q 274 -88 290 -106 Q 305 -124 311 -123 Q 316 -121 322 -111 Q 328 -101 334 -79 Q 340 -56 340 -54 L 338 27 L 342 151 Q 342 165 347 174 Q 351 183 352 186 Q 352 189 350 200 Z" fill="black"></path>
				<path d="M 709 315 L 656 306 Q 558 287 516 282 L 411 267 Q 395 264 394 261 Q 387 250 410 238 Q 433 229 445.5 223.5 Q 458 218 471 220 L 508 230 Q 545 241 575 246 L 711 270 L 771 278 L 929 287 Q 971 288 977 293 Q 985 296 987 302 Q 990 319 964 330 L 940 341 Q 907 354 867 347 L 771 330 L 709 315 Z" fill="black"></path>
				<path d="M 711 270 L 711 121 Q 711 110 709 36 Q 703 -33 690 -42 Q 684 -44 663 -40 L 625 -32 L 583 -18 Q 573 -15 570 -18 Q 567 -28 573 -34 L 596 -50 Q 631 -76 654 -104 L 687 -146 Q 692 -154 696 -155 Q 700 -156 712.5 -154 Q 725 -152 743.5 -127 Q 762 -102 768 -72 Q 774 -42 774 34 L 771 278 L 771 330 L 776 374 L 780 396 L 782 412 L 782 424 Q 781 429 747.5 444 Q 714 459 689 451 Q 686 448 687 440 L 692 420 Q 699 402 706 353 L 709 315 L 711 270 Z" fill="black"></path>
				<path d="M 455 186 L 466 171 Q 472 163 493.5 124 Q 515 85 531 77.5 Q 547 70 555.5 70.5 Q 564 71 573.5 83.5 Q 583 96 582.5 117.5 Q 582 139 575 150 Q 557 179 480 198 Q 469 198 465 198 Q 455 200 455 186 Z" fill="red"></path>
</g>
		<text x="40" y="140" font-size="128" fill="#999999">11</text></g>
		<g id="id2:id1:id1" transform="matrix(1.0,0,0,1.0,1024,0.0)">			<g stroke="white" stroke-width="4" transform="scale(4, 4)"> <rect x="1" y="1" width="255" height="255" fill="white" stroke-width="0"/></g>
</g>
		<g id="id2:id2:id2" transform="matrix(1.0,0,0,1.0,2048,0.0)">			<g stroke="white" stroke-width="4" transform="scale(4, 4)"> <rect x="1" y="1" width="255" height="255" fill="white" stroke-width="0"/></g>
</g>
		<g id="id2:id3:id3" transform="matrix(1.0,0,0,1.0,3072,0.0)">			<g stroke="white" stroke-width="4" transform="scale(4, 4)"> <rect x="1" y="1" width="255" height="255" fill="white" stroke-width="0"/></g>
</g>
		<g id="id2:id4:id4" transform="matrix(1.0,0,0,1.0,4096,0.0)">			<g stroke="white" stroke-width="4" transform="scale(4, 4)"> <rect x="1" y="1" width="255" height="255" fill="white" stroke-width="0"/></g>
</g>
</g>
</svg>
