<?xml version="1.0" standalone="no"?>
<!DOCTYPE svg PUBLIC "-//W3C//DTD SVG 1.1//EN"
 "http://www.w3.org/Graphics/SVG/1.1/DTD/svg11.dtd">
<!-- generate by Japanese dictionary app com.asnsami.kanjidictionary -->

<svg xmlns="http://www.w3.org/2000/svg" xmlns:sodipodi="http://sodipodi.sourceforge.net/DTD/sodipodi-0.dtd" version="1.1" width="640" height="384" viewBox="0 0 5120 3072">
	<g id="id0:id0" transform="translate(0.0,0)">
		<g id="id0:id0:id0" transform="matrix(1.0,0,0,1.0,0,0.0)">			<g stroke="lightgray" stroke-width="4" transform="scale(4, 4)"> <rect x="0" y="0" width="256" height="256" fill="white" stroke-width="4"/></g>
			<g transform="scale(0.92, -0.92) translate(60, -920)">					<path d="M 284 416 Q 231 410 180 402 Q 218 464 234 499 Q 257 542 289 591 Q 299 605 299 614 Q 299 632 272 657 Q 244 683 227 683 Q 219 683 219 675 Q 219 632 206 575 Q 194 518 170 471 Q 154 428 124 406 Q 106 397 103 379 Q 109 332 135 331 Q 139 331 152 340 Q 182 363 210 371 Q 231 378 265 383 C 295 388 314 419 284 416 Z" fill="red"></path>
				<path d="M 319 519 Q 307 518 307 503 Q 307 459 284 416 L 265 383 Q 229 322 179 256 Q 146 214 108 198 Q 92 197 91 194 Q 91 178 104 162 Q 122 135 143 135 Q 154 135 171 148 Q 224 189 368 247 Q 376 250 376 259 Q 376 266 355 266 Q 348 264 208 225 Q 335 401 367 438 Q 378 448 380 459 Q 378 474 356 494 Q 332 518 319 519 Z" fill="lightgray"></path>
				<path d="M 376 142 Q 371 142 315 113 Q 138 30 81 21 Q 55 18 55 7 Q 55 -3 81 -27 Q 113 -53 135 -53 Q 139 -53 166 -25 Q 212 14 347 96 Q 387 121 387 135 Q 387 142 376 142 Z" fill="lightgray"></path>
				<path d="M 420 662 Q 408 662 408 650 Q 409 648 417 637 Q 434 618 472 460 Q 482 423 496 423 Q 508 423 508 446 L 506 461 L 503 492 L 492 606 Q 490 612 488 619 L 469 650 L 468 651 Q 446 661 420 662 Z" fill="lightgray"></path>
				<path d="M 744 518 Q 778 603 806 622 Q 819 630 819 639 Q 819 658 786 682 Q 754 702 731 702 Q 724 702 707 695 Q 678 685 589 668 Q 504 652 471 650 L 469 650 C 439 648 458 620 488 619 Q 492 618 496 618 Q 510 618 588 636 Q 663 650 695 650 Q 720 650 720 631 Q 710 555 703 536 Q 702 530 701 525 C 695 496 733 490 744 518 Z" fill="lightgray"></path>
				<path d="M 506 461 Q 511 459 519 459 L 583 467 L 620 471 Q 682 479 748 486 Q 760 492 760 499 Q 760 508 744 518 C 729 529 729 529 701 525 Q 673 522 503 492 C 473 487 477 467 506 461 Z" fill="lightgray"></path>
				<path d="M 446 359 Q 441 363 433 365 Q 418 371 391 371 Q 376 371 376 362 Q 376 356 385 343 Q 401 322 410 283 Q 426 233 434 106 Q 437 56 464 54 Q 472 54 476 85 L 479 117 L 479 123 Q 479 158 473 216 L 471 239 Q 467 278 460 326 C 456 354 456 354 446 359 Z" fill="lightgray"></path>
				<path d="M 592 380 L 446 359 C 416 355 430 324 460 326 L 468 326 Q 480 326 592 346 L 645 353 Q 731 362 768 362 Q 792 362 792 335 Q 792 310 787 276 L 784 250 Q 780 216 772 176 Q 770 162 767 148 L 765 108 Q 767 103 769 95 Q 776 83 787 83 Q 803 83 843 248 Q 860 328 876 341 Q 892 358 892 366 Q 892 378 852 401 Q 819 419 796 419 Q 787 419 766 411 Q 732 399 695 395 L 648 388 L 592 380 Z" fill="lightgray"></path>
				<path d="M 473 216 Q 490 211 508 211 Q 525 211 592 220 L 641 226 Q 697 234 779 247 Q 781 248 784 250 C 808 259 808 259 787 276 Q 780 286 756 287 Q 734 287 707 280 Q 674 273 642 268 L 592 259 Q 525 247 471 239 C 441 235 444 223 473 216 Z" fill="lightgray"></path>
				<path d="M 476 85 Q 486 79 500 79 Q 545 84 592 89 L 640 94 Q 700 101 765 108 C 795 111 795 138 767 148 Q 754 154 735 154 Q 728 154 640 141 L 592 134 Q 544 127 479 117 C 449 112 449 97 476 85 Z" fill="lightgray"></path>
				<path d="M 583 467 Q 592 434 592 423 L 592 380 L 592 346 L 592 259 L 592 220 L 592 134 L 592 89 L 592 50 Q 592 -34 624 -68 Q 671 -118 757 -118 Q 856 -118 922 -88 Q 972 -68 972 -41 Q 972 -32 961 -9 Q 947 37 936 107 Q 926 163 920 163 Q 915 163 913 137 Q 902 36 886 -2 Q 878 -25 851 -40 Q 816 -62 757 -62 Q 697 -62 667 -35 Q 640 -6 640 50 L 640 94 L 640 141 Q 641 186 641 226 L 642 268 Q 643 314 645 353 L 648 388 Q 651 424 651 434 Q 651 449 628 466 Q 625 468 620 471 C 597 490 576 496 583 467 Z" fill="lightgray"></path>
</g>
		<text x="40" y="140" font-size="128" fill="#999999">1</text></g>
		<g id="id0:id1:id1" transform="matrix(1.0,0,0,1.0,1024,0.0)">			<g stroke="lightgray" stroke-width="4" transform="scale(4, 4)"> <rect x="0" y="0" width="256" height="256" fill="white" stroke-width="4"/></g>
			<g transform="scale(0.92, -0.92) translate(60, -920)">					<path d="M 284 416 Q 231 410 180 402 Q 218 464 234 499 Q 257 542 289 591 Q 299 605 299 614 Q 299 632 272 657 Q 244 683 227 683 Q 219 683 219 675 Q 219 632 206 575 Q 194 518 170 471 Q 154 428 124 406 Q 106 397 103 379 Q 109 332 135 331 Q 139 331 152 340 Q 182 363 210 371 Q 231 378 265 383 C 295 388 314 419 284 416 Z" fill="black"></path>
				<path d="M 319 519 Q 307 518 307 503 Q 307 459 284 416 L 265 383 Q 229 322 179 256 Q 146 214 108 198 Q 92 197 91 194 Q 91 178 104 162 Q 122 135 143 135 Q 154 135 171 148 Q 224 189 368 247 Q 376 250 376 259 Q 376 266 355 266 Q 348 264 208 225 Q 335 401 367 438 Q 378 448 380 459 Q 378 474 356 494 Q 332 518 319 519 Z" fill="red"></path>
				<path d="M 376 142 Q 371 142 315 113 Q 138 30 81 21 Q 55 18 55 7 Q 55 -3 81 -27 Q 113 -53 135 -53 Q 139 -53 166 -25 Q 212 14 347 96 Q 387 121 387 135 Q 387 142 376 142 Z" fill="lightgray"></path>
				<path d="M 420 662 Q 408 662 408 650 Q 409 648 417 637 Q 434 618 472 460 Q 482 423 496 423 Q 508 423 508 446 L 506 461 L 503 492 L 492 606 Q 490 612 488 619 L 469 650 L 468 651 Q 446 661 420 662 Z" fill="lightgray"></path>
				<path d="M 744 518 Q 778 603 806 622 Q 819 630 819 639 Q 819 658 786 682 Q 754 702 731 702 Q 724 702 707 695 Q 678 685 589 668 Q 504 652 471 650 L 469 650 C 439 648 458 620 488 619 Q 492 618 496 618 Q 510 618 588 636 Q 663 650 695 650 Q 720 650 720 631 Q 710 555 703 536 Q 702 530 701 525 C 695 496 733 490 744 518 Z" fill="lightgray"></path>
				<path d="M 506 461 Q 511 459 519 459 L 583 467 L 620 471 Q 682 479 748 486 Q 760 492 760 499 Q 760 508 744 518 C 729 529 729 529 701 525 Q 673 522 503 492 C 473 487 477 467 506 461 Z" fill="lightgray"></path>
				<path d="M 446 359 Q 441 363 433 365 Q 418 371 391 371 Q 376 371 376 362 Q 376 356 385 343 Q 401 322 410 283 Q 426 233 434 106 Q 437 56 464 54 Q 472 54 476 85 L 479 117 L 479 123 Q 479 158 473 216 L 471 239 Q 467 278 460 326 C 456 354 456 354 446 359 Z" fill="lightgray"></path>
				<path d="M 592 380 L 446 359 C 416 355 430 324 460 326 L 468 326 Q 480 326 592 346 L 645 353 Q 731 362 768 362 Q 792 362 792 335 Q 792 310 787 276 L 784 250 Q 780 216 772 176 Q 770 162 767 148 L 765 108 Q 767 103 769 95 Q 776 83 787 83 Q 803 83 843 248 Q 860 328 876 341 Q 892 358 892 366 Q 892 378 852 401 Q 819 419 796 419 Q 787 419 766 411 Q 732 399 695 395 L 648 388 L 592 380 Z" fill="lightgray"></path>
				<path d="M 473 216 Q 490 211 508 211 Q 525 211 592 220 L 641 226 Q 697 234 779 247 Q 781 248 784 250 C 808 259 808 259 787 276 Q 780 286 756 287 Q 734 287 707 280 Q 674 273 642 268 L 592 259 Q 525 247 471 239 C 441 235 444 223 473 216 Z" fill="lightgray"></path>
				<path d="M 476 85 Q 486 79 500 79 Q 545 84 592 89 L 640 94 Q 700 101 765 108 C 795 111 795 138 767 148 Q 754 154 735 154 Q 728 154 640 141 L 592 134 Q 544 127 479 117 C 449 112 449 97 476 85 Z" fill="lightgray"></path>
				<path d="M 583 467 Q 592 434 592 423 L 592 380 L 592 346 L 592 259 L 592 220 L 592 134 L 592 89 L 592 50 Q 592 -34 624 -68 Q 671 -118 757 -118 Q 856 -118 922 -88 Q 972 -68 972 -41 Q 972 -32 961 -9 Q 947 37 936 107 Q 926 163 920 163 Q 915 163 913 137 Q 902 36 886 -2 Q 878 -25 851 -40 Q 816 -62 757 -62 Q 697 -62 667 -35 Q 640 -6 640 50 L 640 94 L 640 141 Q 641 186 641 226 L 642 268 Q 643 314 645 353 L 648 388 Q 651 424 651 434 Q 651 449 628 466 Q 625 468 620 471 C 597 490 576 496 583 467 Z" fill="lightgray"></path>
</g>
		<text x="40" y="140" font-size="128" fill="#999999">2</text></g>
		<g id="id0:id2:id2" transform="matrix(1.0,0,0,1.0,2048,0.0)">			<g stroke="lightgray" stroke-width="4" transform="scale(4, 4)"> <rect x="0" y="0" width="256" height="256" fill="white" stroke-width="4"/></g>
			<g transform="scale(0.92, -0.92) translate(60, -920)">					<path d="M 284 416 Q 231 410 180 402 Q 218 464 234 499 Q 257 542 289 591 Q 299 605 299 614 Q 299 632 272 657 Q 244 683 227 683 Q 219 683 219 675 Q 219 632 206 575 Q 194 518 170 471 Q 154 428 124 406 Q 106 397 103 379 Q 109 332 135 331 Q 139 331 152 340 Q 182 363 210 371 Q 231 378 265 383 C 295 388 314 419 284 416 Z" fill="black"></path>
				<path d="M 319 519 Q 307 518 307 503 Q 307 459 284 416 L 265 383 Q 229 322 179 256 Q 146 214 108 198 Q 92 197 91 194 Q 91 178 104 162 Q 122 135 143 135 Q 154 135 171 148 Q 224 189 368 247 Q 376 250 376 259 Q 376 266 355 266 Q 348 264 208 225 Q 335 401 367 438 Q 378 448 380 459 Q 378 474 356 494 Q 332 518 319 519 Z" fill="black"></path>
				<path d="M 376 142 Q 371 142 315 113 Q 138 30 81 21 Q 55 18 55 7 Q 55 -3 81 -27 Q 113 -53 135 -53 Q 139 -53 166 -25 Q 212 14 347 96 Q 387 121 387 135 Q 387 142 376 142 Z" fill="red"></path>
				<path d="M 420 662 Q 408 662 408 650 Q 409 648 417 637 Q 434 618 472 460 Q 482 423 496 423 Q 508 423 508 446 L 506 461 L 503 492 L 492 606 Q 490 612 488 619 L 469 650 L 468 651 Q 446 661 420 662 Z" fill="lightgray"></path>
				<path d="M 744 518 Q 778 603 806 622 Q 819 630 819 639 Q 819 658 786 682 Q 754 702 731 702 Q 724 702 707 695 Q 678 685 589 668 Q 504 652 471 650 L 469 650 C 439 648 458 620 488 619 Q 492 618 496 618 Q 510 618 588 636 Q 663 650 695 650 Q 720 650 720 631 Q 710 555 703 536 Q 702 530 701 525 C 695 496 733 490 744 518 Z" fill="lightgray"></path>
				<path d="M 506 461 Q 511 459 519 459 L 583 467 L 620 471 Q 682 479 748 486 Q 760 492 760 499 Q 760 508 744 518 C 729 529 729 529 701 525 Q 673 522 503 492 C 473 487 477 467 506 461 Z" fill="lightgray"></path>
				<path d="M 446 359 Q 441 363 433 365 Q 418 371 391 371 Q 376 371 376 362 Q 376 356 385 343 Q 401 322 410 283 Q 426 233 434 106 Q 437 56 464 54 Q 472 54 476 85 L 479 117 L 479 123 Q 479 158 473 216 L 471 239 Q 467 278 460 326 C 456 354 456 354 446 359 Z" fill="lightgray"></path>
				<path d="M 592 380 L 446 359 C 416 355 430 324 460 326 L 468 326 Q 480 326 592 346 L 645 353 Q 731 362 768 362 Q 792 362 792 335 Q 792 310 787 276 L 784 250 Q 780 216 772 176 Q 770 162 767 148 L 765 108 Q 767 103 769 95 Q 776 83 787 83 Q 803 83 843 248 Q 860 328 876 341 Q 892 358 892 366 Q 892 378 852 401 Q 819 419 796 419 Q 787 419 766 411 Q 732 399 695 395 L 648 388 L 592 380 Z" fill="lightgray"></path>
				<path d="M 473 216 Q 490 211 508 211 Q 525 211 592 220 L 641 226 Q 697 234 779 247 Q 781 248 784 250 C 808 259 808 259 787 276 Q 780 286 756 287 Q 734 287 707 280 Q 674 273 642 268 L 592 259 Q 525 247 471 239 C 441 235 444 223 473 216 Z" fill="lightgray"></path>
				<path d="M 476 85 Q 486 79 500 79 Q 545 84 592 89 L 640 94 Q 700 101 765 108 C 795 111 795 138 767 148 Q 754 154 735 154 Q 728 154 640 141 L 592 134 Q 544 127 479 117 C 449 112 449 97 476 85 Z" fill="lightgray"></path>
				<path d="M 583 467 Q 592 434 592 423 L 592 380 L 592 346 L 592 259 L 592 220 L 592 134 L 592 89 L 592 50 Q 592 -34 624 -68 Q 671 -118 757 -118 Q 856 -118 922 -88 Q 972 -68 972 -41 Q 972 -32 961 -9 Q 947 37 936 107 Q 926 163 920 163 Q 915 163 913 137 Q 902 36 886 -2 Q 878 -25 851 -40 Q 816 -62 757 -62 Q 697 -62 667 -35 Q 640 -6 640 50 L 640 94 L 640 141 Q 641 186 641 226 L 642 268 Q 643 314 645 353 L 648 388 Q 651 424 651 434 Q 651 449 628 466 Q 625 468 620 471 C 597 490 576 496 583 467 Z" fill="lightgray"></path>
</g>
		<text x="40" y="140" font-size="128" fill="#999999">3</text></g>
		<g id="id0:id3:id3" transform="matrix(1.0,0,0,1.0,3072,0.0)">			<g stroke="lightgray" stroke-width="4" transform="scale(4, 4)"> <rect x="0" y="0" width="256" height="256" fill="white" stroke-width="4"/></g>
			<g transform="scale(0.92, -0.92) translate(60, -920)">					<path d="M 284 416 Q 231 410 180 402 Q 218 464 234 499 Q 257 542 289 591 Q 299 605 299 614 Q 299 632 272 657 Q 244 683 227 683 Q 219 683 219 675 Q 219 632 206 575 Q 194 518 170 471 Q 154 428 124 406 Q 106 397 103 379 Q 109 332 135 331 Q 139 331 152 340 Q 182 363 210 371 Q 231 378 265 383 C 295 388 314 419 284 416 Z" fill="black"></path>
				<path d="M 319 519 Q 307 518 307 503 Q 307 459 284 416 L 265 383 Q 229 322 179 256 Q 146 214 108 198 Q 92 197 91 194 Q 91 178 104 162 Q 122 135 143 135 Q 154 135 171 148 Q 224 189 368 247 Q 376 250 376 259 Q 376 266 355 266 Q 348 264 208 225 Q 335 401 367 438 Q 378 448 380 459 Q 378 474 356 494 Q 332 518 319 519 Z" fill="black"></path>
				<path d="M 376 142 Q 371 142 315 113 Q 138 30 81 21 Q 55 18 55 7 Q 55 -3 81 -27 Q 113 -53 135 -53 Q 139 -53 166 -25 Q 212 14 347 96 Q 387 121 387 135 Q 387 142 376 142 Z" fill="black"></path>
				<path d="M 420 662 Q 408 662 408 650 Q 409 648 417 637 Q 434 618 472 460 Q 482 423 496 423 Q 508 423 508 446 L 506 461 L 503 492 L 492 606 Q 490 612 488 619 L 469 650 L 468 651 Q 446 661 420 662 Z" fill="red"></path>
				<path d="M 744 518 Q 778 603 806 622 Q 819 630 819 639 Q 819 658 786 682 Q 754 702 731 702 Q 724 702 707 695 Q 678 685 589 668 Q 504 652 471 650 L 469 650 C 439 648 458 620 488 619 Q 492 618 496 618 Q 510 618 588 636 Q 663 650 695 650 Q 720 650 720 631 Q 710 555 703 536 Q 702 530 701 525 C 695 496 733 490 744 518 Z" fill="lightgray"></path>
				<path d="M 506 461 Q 511 459 519 459 L 583 467 L 620 471 Q 682 479 748 486 Q 760 492 760 499 Q 760 508 744 518 C 729 529 729 529 701 525 Q 673 522 503 492 C 473 487 477 467 506 461 Z" fill="lightgray"></path>
				<path d="M 446 359 Q 441 363 433 365 Q 418 371 391 371 Q 376 371 376 362 Q 376 356 385 343 Q 401 322 410 283 Q 426 233 434 106 Q 437 56 464 54 Q 472 54 476 85 L 479 117 L 479 123 Q 479 158 473 216 L 471 239 Q 467 278 460 326 C 456 354 456 354 446 359 Z" fill="lightgray"></path>
				<path d="M 592 380 L 446 359 C 416 355 430 324 460 326 L 468 326 Q 480 326 592 346 L 645 353 Q 731 362 768 362 Q 792 362 792 335 Q 792 310 787 276 L 784 250 Q 780 216 772 176 Q 770 162 767 148 L 765 108 Q 767 103 769 95 Q 776 83 787 83 Q 803 83 843 248 Q 860 328 876 341 Q 892 358 892 366 Q 892 378 852 401 Q 819 419 796 419 Q 787 419 766 411 Q 732 399 695 395 L 648 388 L 592 380 Z" fill="lightgray"></path>
				<path d="M 473 216 Q 490 211 508 211 Q 525 211 592 220 L 641 226 Q 697 234 779 247 Q 781 248 784 250 C 808 259 808 259 787 276 Q 780 286 756 287 Q 734 287 707 280 Q 674 273 642 268 L 592 259 Q 525 247 471 239 C 441 235 444 223 473 216 Z" fill="lightgray"></path>
				<path d="M 476 85 Q 486 79 500 79 Q 545 84 592 89 L 640 94 Q 700 101 765 108 C 795 111 795 138 767 148 Q 754 154 735 154 Q 728 154 640 141 L 592 134 Q 544 127 479 117 C 449 112 449 97 476 85 Z" fill="lightgray"></path>
				<path d="M 583 467 Q 592 434 592 423 L 592 380 L 592 346 L 592 259 L 592 220 L 592 134 L 592 89 L 592 50 Q 592 -34 624 -68 Q 671 -118 757 -118 Q 856 -118 922 -88 Q 972 -68 972 -41 Q 972 -32 961 -9 Q 947 37 936 107 Q 926 163 920 163 Q 915 163 913 137 Q 902 36 886 -2 Q 878 -25 851 -40 Q 816 -62 757 -62 Q 697 -62 667 -35 Q 640 -6 640 50 L 640 94 L 640 141 Q 641 186 641 226 L 642 268 Q 643 314 645 353 L 648 388 Q 651 424 651 434 Q 651 449 628 466 Q 625 468 620 471 C 597 490 576 496 583 467 Z" fill="lightgray"></path>
</g>
		<text x="40" y="140" font-size="128" fill="#999999">4</text></g>
		<g id="id0:id4:id4" transform="matrix(1.0,0,0,1.0,4096,0.0)">			<g stroke="lightgray" stroke-width="4" transform="scale(4, 4)"> <rect x="0" y="0" width="256" height="256" fill="white" stroke-width="4"/></g>
			<g transform="scale(0.92, -0.92) translate(60, -920)">					<path d="M 284 416 Q 231 410 180 402 Q 218 464 234 499 Q 257 542 289 591 Q 299 605 299 614 Q 299 632 272 657 Q 244 683 227 683 Q 219 683 219 675 Q 219 632 206 575 Q 194 518 170 471 Q 154 428 124 406 Q 106 397 103 379 Q 109 332 135 331 Q 139 331 152 340 Q 182 363 210 371 Q 231 378 265 383 C 295 388 314 419 284 416 Z" fill="black"></path>
				<path d="M 319 519 Q 307 518 307 503 Q 307 459 284 416 L 265 383 Q 229 322 179 256 Q 146 214 108 198 Q 92 197 91 194 Q 91 178 104 162 Q 122 135 143 135 Q 154 135 171 148 Q 224 189 368 247 Q 376 250 376 259 Q 376 266 355 266 Q 348 264 208 225 Q 335 401 367 438 Q 378 448 380 459 Q 378 474 356 494 Q 332 518 319 519 Z" fill="black"></path>
				<path d="M 376 142 Q 371 142 315 113 Q 138 30 81 21 Q 55 18 55 7 Q 55 -3 81 -27 Q 113 -53 135 -53 Q 139 -53 166 -25 Q 212 14 347 96 Q 387 121 387 135 Q 387 142 376 142 Z" fill="black"></path>
				<path d="M 420 662 Q 408 662 408 650 Q 409 648 417 637 Q 434 618 472 460 Q 482 423 496 423 Q 508 423 508 446 L 506 461 L 503 492 L 492 606 Q 490 612 488 619 L 469 650 L 468 651 Q 446 661 420 662 Z" fill="black"></path>
				<path d="M 744 518 Q 778 603 806 622 Q 819 630 819 639 Q 819 658 786 682 Q 754 702 731 702 Q 724 702 707 695 Q 678 685 589 668 Q 504 652 471 650 L 469 650 C 439 648 458 620 488 619 Q 492 618 496 618 Q 510 618 588 636 Q 663 650 695 650 Q 720 650 720 631 Q 710 555 703 536 Q 702 530 701 525 C 695 496 733 490 744 518 Z" fill="red"></path>
				<path d="M 506 461 Q 511 459 519 459 L 583 467 L 620 471 Q 682 479 748 486 Q 760 492 760 499 Q 760 508 744 518 C 729 529 729 529 701 525 Q 673 522 503 492 C 473 487 477 467 506 461 Z" fill="lightgray"></path>
				<path d="M 446 359 Q 441 363 433 365 Q 418 371 391 371 Q 376 371 376 362 Q 376 356 385 343 Q 401 322 410 283 Q 426 233 434 106 Q 437 56 464 54 Q 472 54 476 85 L 479 117 L 479 123 Q 479 158 473 216 L 471 239 Q 467 278 460 326 C 456 354 456 354 446 359 Z" fill="lightgray"></path>
				<path d="M 592 380 L 446 359 C 416 355 430 324 460 326 L 468 326 Q 480 326 592 346 L 645 353 Q 731 362 768 362 Q 792 362 792 335 Q 792 310 787 276 L 784 250 Q 780 216 772 176 Q 770 162 767 148 L 765 108 Q 767 103 769 95 Q 776 83 787 83 Q 803 83 843 248 Q 860 328 876 341 Q 892 358 892 366 Q 892 378 852 401 Q 819 419 796 419 Q 787 419 766 411 Q 732 399 695 395 L 648 388 L 592 380 Z" fill="lightgray"></path>
				<path d="M 473 216 Q 490 211 508 211 Q 525 211 592 220 L 641 226 Q 697 234 779 247 Q 781 248 784 250 C 808 259 808 259 787 276 Q 780 286 756 287 Q 734 287 707 280 Q 674 273 642 268 L 592 259 Q 525 247 471 239 C 441 235 444 223 473 216 Z" fill="lightgray"></path>
				<path d="M 476 85 Q 486 79 500 79 Q 545 84 592 89 L 640 94 Q 700 101 765 108 C 795 111 795 138 767 148 Q 754 154 735 154 Q 728 154 640 141 L 592 134 Q 544 127 479 117 C 449 112 449 97 476 85 Z" fill="lightgray"></path>
				<path d="M 583 467 Q 592 434 592 423 L 592 380 L 592 346 L 592 259 L 592 220 L 592 134 L 592 89 L 592 50 Q 592 -34 624 -68 Q 671 -118 757 -118 Q 856 -118 922 -88 Q 972 -68 972 -41 Q 972 -32 961 -9 Q 947 37 936 107 Q 926 163 920 163 Q 915 163 913 137 Q 902 36 886 -2 Q 878 -25 851 -40 Q 816 -62 757 -62 Q 697 -62 667 -35 Q 640 -6 640 50 L 640 94 L 640 141 Q 641 186 641 226 L 642 268 Q 643 314 645 353 L 648 388 Q 651 424 651 434 Q 651 449 628 466 Q 625 468 620 471 C 597 490 576 496 583 467 Z" fill="lightgray"></path>
</g>
		<text x="40" y="140" font-size="128" fill="#999999">5</text></g>
</g>
	<g id="id1:id1" transform="translate(0.0,1024)">
		<g id="id1:id0:id0" transform="matrix(1.0,0,0,1.0,0,0.0)">			<g stroke="lightgray" stroke-width="4" transform="scale(4, 4)"> <rect x="0" y="0" width="256" height="256" fill="white" stroke-width="4"/></g>
			<g transform="scale(0.92, -0.92) translate(60, -920)">					<path d="M 284 416 Q 231 410 180 402 Q 218 464 234 499 Q 257 542 289 591 Q 299 605 299 614 Q 299 632 272 657 Q 244 683 227 683 Q 219 683 219 675 Q 219 632 206 575 Q 194 518 170 471 Q 154 428 124 406 Q 106 397 103 379 Q 109 332 135 331 Q 139 331 152 340 Q 182 363 210 371 Q 231 378 265 383 C 295 388 314 419 284 416 Z" fill="black"></path>
				<path d="M 319 519 Q 307 518 307 503 Q 307 459 284 416 L 265 383 Q 229 322 179 256 Q 146 214 108 198 Q 92 197 91 194 Q 91 178 104 162 Q 122 135 143 135 Q 154 135 171 148 Q 224 189 368 247 Q 376 250 376 259 Q 376 266 355 266 Q 348 264 208 225 Q 335 401 367 438 Q 378 448 380 459 Q 378 474 356 494 Q 332 518 319 519 Z" fill="black"></path>
				<path d="M 376 142 Q 371 142 315 113 Q 138 30 81 21 Q 55 18 55 7 Q 55 -3 81 -27 Q 113 -53 135 -53 Q 139 -53 166 -25 Q 212 14 347 96 Q 387 121 387 135 Q 387 142 376 142 Z" fill="black"></path>
				<path d="M 420 662 Q 408 662 408 650 Q 409 648 417 637 Q 434 618 472 460 Q 482 423 496 423 Q 508 423 508 446 L 506 461 L 503 492 L 492 606 Q 490 612 488 619 L 469 650 L 468 651 Q 446 661 420 662 Z" fill="black"></path>
				<path d="M 744 518 Q 778 603 806 622 Q 819 630 819 639 Q 819 658 786 682 Q 754 702 731 702 Q 724 702 707 695 Q 678 685 589 668 Q 504 652 471 650 L 469 650 C 439 648 458 620 488 619 Q 492 618 496 618 Q 510 618 588 636 Q 663 650 695 650 Q 720 650 720 631 Q 710 555 703 536 Q 702 530 701 525 C 695 496 733 490 744 518 Z" fill="black"></path>
				<path d="M 506 461 Q 511 459 519 459 L 583 467 L 620 471 Q 682 479 748 486 Q 760 492 760 499 Q 760 508 744 518 C 729 529 729 529 701 525 Q 673 522 503 492 C 473 487 477 467 506 461 Z" fill="red"></path>
				<path d="M 446 359 Q 441 363 433 365 Q 418 371 391 371 Q 376 371 376 362 Q 376 356 385 343 Q 401 322 410 283 Q 426 233 434 106 Q 437 56 464 54 Q 472 54 476 85 L 479 117 L 479 123 Q 479 158 473 216 L 471 239 Q 467 278 460 326 C 456 354 456 354 446 359 Z" fill="lightgray"></path>
				<path d="M 592 380 L 446 359 C 416 355 430 324 460 326 L 468 326 Q 480 326 592 346 L 645 353 Q 731 362 768 362 Q 792 362 792 335 Q 792 310 787 276 L 784 250 Q 780 216 772 176 Q 770 162 767 148 L 765 108 Q 767 103 769 95 Q 776 83 787 83 Q 803 83 843 248 Q 860 328 876 341 Q 892 358 892 366 Q 892 378 852 401 Q 819 419 796 419 Q 787 419 766 411 Q 732 399 695 395 L 648 388 L 592 380 Z" fill="lightgray"></path>
				<path d="M 473 216 Q 490 211 508 211 Q 525 211 592 220 L 641 226 Q 697 234 779 247 Q 781 248 784 250 C 808 259 808 259 787 276 Q 780 286 756 287 Q 734 287 707 280 Q 674 273 642 268 L 592 259 Q 525 247 471 239 C 441 235 444 223 473 216 Z" fill="lightgray"></path>
				<path d="M 476 85 Q 486 79 500 79 Q 545 84 592 89 L 640 94 Q 700 101 765 108 C 795 111 795 138 767 148 Q 754 154 735 154 Q 728 154 640 141 L 592 134 Q 544 127 479 117 C 449 112 449 97 476 85 Z" fill="lightgray"></path>
				<path d="M 583 467 Q 592 434 592 423 L 592 380 L 592 346 L 592 259 L 592 220 L 592 134 L 592 89 L 592 50 Q 592 -34 624 -68 Q 671 -118 757 -118 Q 856 -118 922 -88 Q 972 -68 972 -41 Q 972 -32 961 -9 Q 947 37 936 107 Q 926 163 920 163 Q 915 163 913 137 Q 902 36 886 -2 Q 878 -25 851 -40 Q 816 -62 757 -62 Q 697 -62 667 -35 Q 640 -6 640 50 L 640 94 L 640 141 Q 641 186 641 226 L 642 268 Q 643 314 645 353 L 648 388 Q 651 424 651 434 Q 651 449 628 466 Q 625 468 620 471 C 597 490 576 496 583 467 Z" fill="lightgray"></path>
</g>
		<text x="40" y="140" font-size="128" fill="#999999">6</text></g>
		<g id="id1:id1:id1" transform="matrix(1.0,0,0,1.0,1024,0.0)">			<g stroke="lightgray" stroke-width="4" transform="scale(4, 4)"> <rect x="0" y="0" width="256" height="256" fill="white" stroke-width="4"/></g>
			<g transform="scale(0.92, -0.92) translate(60, -920)">					<path d="M 284 416 Q 231 410 180 402 Q 218 464 234 499 Q 257 542 289 591 Q 299 605 299 614 Q 299 632 272 657 Q 244 683 227 683 Q 219 683 219 675 Q 219 632 206 575 Q 194 518 170 471 Q 154 428 124 406 Q 106 397 103 379 Q 109 332 135 331 Q 139 331 152 340 Q 182 363 210 371 Q 231 378 265 383 C 295 388 314 419 284 416 Z" fill="black"></path>
				<path d="M 319 519 Q 307 518 307 503 Q 307 459 284 416 L 265 383 Q 229 322 179 256 Q 146 214 108 198 Q 92 197 91 194 Q 91 178 104 162 Q 122 135 143 135 Q 154 135 171 148 Q 224 189 368 247 Q 376 250 376 259 Q 376 266 355 266 Q 348 264 208 225 Q 335 401 367 438 Q 378 448 380 459 Q 378 474 356 494 Q 332 518 319 519 Z" fill="black"></path>
				<path d="M 376 142 Q 371 142 315 113 Q 138 30 81 21 Q 55 18 55 7 Q 55 -3 81 -27 Q 113 -53 135 -53 Q 139 -53 166 -25 Q 212 14 347 96 Q 387 121 387 135 Q 387 142 376 142 Z" fill="black"></path>
				<path d="M 420 662 Q 408 662 408 650 Q 409 648 417 637 Q 434 618 472 460 Q 482 423 496 423 Q 508 423 508 446 L 506 461 L 503 492 L 492 606 Q 490 612 488 619 L 469 650 L 468 651 Q 446 661 420 662 Z" fill="black"></path>
				<path d="M 744 518 Q 778 603 806 622 Q 819 630 819 639 Q 819 658 786 682 Q 754 702 731 702 Q 724 702 707 695 Q 678 685 589 668 Q 504 652 471 650 L 469 650 C 439 648 458 620 488 619 Q 492 618 496 618 Q 510 618 588 636 Q 663 650 695 650 Q 720 650 720 631 Q 710 555 703 536 Q 702 530 701 525 C 695 496 733 490 744 518 Z" fill="black"></path>
				<path d="M 506 461 Q 511 459 519 459 L 583 467 L 620 471 Q 682 479 748 486 Q 760 492 760 499 Q 760 508 744 518 C 729 529 729 529 701 525 Q 673 522 503 492 C 473 487 477 467 506 461 Z" fill="black"></path>
				<path d="M 446 359 Q 441 363 433 365 Q 418 371 391 371 Q 376 371 376 362 Q 376 356 385 343 Q 401 322 410 283 Q 426 233 434 106 Q 437 56 464 54 Q 472 54 476 85 L 479 117 L 479 123 Q 479 158 473 216 L 471 239 Q 467 278 460 326 C 456 354 456 354 446 359 Z" fill="red"></path>
				<path d="M 592 380 L 446 359 C 416 355 430 324 460 326 L 468 326 Q 480 326 592 346 L 645 353 Q 731 362 768 362 Q 792 362 792 335 Q 792 310 787 276 L 784 250 Q 780 216 772 176 Q 770 162 767 148 L 765 108 Q 767 103 769 95 Q 776 83 787 83 Q 803 83 843 248 Q 860 328 876 341 Q 892 358 892 366 Q 892 378 852 401 Q 819 419 796 419 Q 787 419 766 411 Q 732 399 695 395 L 648 388 L 592 380 Z" fill="lightgray"></path>
				<path d="M 473 216 Q 490 211 508 211 Q 525 211 592 220 L 641 226 Q 697 234 779 247 Q 781 248 784 250 C 808 259 808 259 787 276 Q 780 286 756 287 Q 734 287 707 280 Q 674 273 642 268 L 592 259 Q 525 247 471 239 C 441 235 444 223 473 216 Z" fill="lightgray"></path>
				<path d="M 476 85 Q 486 79 500 79 Q 545 84 592 89 L 640 94 Q 700 101 765 108 C 795 111 795 138 767 148 Q 754 154 735 154 Q 728 154 640 141 L 592 134 Q 544 127 479 117 C 449 112 449 97 476 85 Z" fill="lightgray"></path>
				<path d="M 583 467 Q 592 434 592 423 L 592 380 L 592 346 L 592 259 L 592 220 L 592 134 L 592 89 L 592 50 Q 592 -34 624 -68 Q 671 -118 757 -118 Q 856 -118 922 -88 Q 972 -68 972 -41 Q 972 -32 961 -9 Q 947 37 936 107 Q 926 163 920 163 Q 915 163 913 137 Q 902 36 886 -2 Q 878 -25 851 -40 Q 816 -62 757 -62 Q 697 -62 667 -35 Q 640 -6 640 50 L 640 94 L 640 141 Q 641 186 641 226 L 642 268 Q 643 314 645 353 L 648 388 Q 651 424 651 434 Q 651 449 628 466 Q 625 468 620 471 C 597 490 576 496 583 467 Z" fill="lightgray"></path>
</g>
		<text x="40" y="140" font-size="128" fill="#999999">7</text></g>
		<g id="id1:id2:id2" transform="matrix(1.0,0,0,1.0,2048,0.0)">			<g stroke="lightgray" stroke-width="4" transform="scale(4, 4)"> <rect x="0" y="0" width="256" height="256" fill="white" stroke-width="4"/></g>
			<g transform="scale(0.92, -0.92) translate(60, -920)">					<path d="M 284 416 Q 231 410 180 402 Q 218 464 234 499 Q 257 542 289 591 Q 299 605 299 614 Q 299 632 272 657 Q 244 683 227 683 Q 219 683 219 675 Q 219 632 206 575 Q 194 518 170 471 Q 154 428 124 406 Q 106 397 103 379 Q 109 332 135 331 Q 139 331 152 340 Q 182 363 210 371 Q 231 378 265 383 C 295 388 314 419 284 416 Z" fill="black"></path>
				<path d="M 319 519 Q 307 518 307 503 Q 307 459 284 416 L 265 383 Q 229 322 179 256 Q 146 214 108 198 Q 92 197 91 194 Q 91 178 104 162 Q 122 135 143 135 Q 154 135 171 148 Q 224 189 368 247 Q 376 250 376 259 Q 376 266 355 266 Q 348 264 208 225 Q 335 401 367 438 Q 378 448 380 459 Q 378 474 356 494 Q 332 518 319 519 Z" fill="black"></path>
				<path d="M 376 142 Q 371 142 315 113 Q 138 30 81 21 Q 55 18 55 7 Q 55 -3 81 -27 Q 113 -53 135 -53 Q 139 -53 166 -25 Q 212 14 347 96 Q 387 121 387 135 Q 387 142 376 142 Z" fill="black"></path>
				<path d="M 420 662 Q 408 662 408 650 Q 409 648 417 637 Q 434 618 472 460 Q 482 423 496 423 Q 508 423 508 446 L 506 461 L 503 492 L 492 606 Q 490 612 488 619 L 469 650 L 468 651 Q 446 661 420 662 Z" fill="black"></path>
				<path d="M 744 518 Q 778 603 806 622 Q 819 630 819 639 Q 819 658 786 682 Q 754 702 731 702 Q 724 702 707 695 Q 678 685 589 668 Q 504 652 471 650 L 469 650 C 439 648 458 620 488 619 Q 492 618 496 618 Q 510 618 588 636 Q 663 650 695 650 Q 720 650 720 631 Q 710 555 703 536 Q 702 530 701 525 C 695 496 733 490 744 518 Z" fill="black"></path>
				<path d="M 506 461 Q 511 459 519 459 L 583 467 L 620 471 Q 682 479 748 486 Q 760 492 760 499 Q 760 508 744 518 C 729 529 729 529 701 525 Q 673 522 503 492 C 473 487 477 467 506 461 Z" fill="black"></path>
				<path d="M 446 359 Q 441 363 433 365 Q 418 371 391 371 Q 376 371 376 362 Q 376 356 385 343 Q 401 322 410 283 Q 426 233 434 106 Q 437 56 464 54 Q 472 54 476 85 L 479 117 L 479 123 Q 479 158 473 216 L 471 239 Q 467 278 460 326 C 456 354 456 354 446 359 Z" fill="black"></path>
				<path d="M 592 380 L 446 359 C 416 355 430 324 460 326 L 468 326 Q 480 326 592 346 L 645 353 Q 731 362 768 362 Q 792 362 792 335 Q 792 310 787 276 L 784 250 Q 780 216 772 176 Q 770 162 767 148 L 765 108 Q 767 103 769 95 Q 776 83 787 83 Q 803 83 843 248 Q 860 328 876 341 Q 892 358 892 366 Q 892 378 852 401 Q 819 419 796 419 Q 787 419 766 411 Q 732 399 695 395 L 648 388 L 592 380 Z" fill="red"></path>
				<path d="M 473 216 Q 490 211 508 211 Q 525 211 592 220 L 641 226 Q 697 234 779 247 Q 781 248 784 250 C 808 259 808 259 787 276 Q 780 286 756 287 Q 734 287 707 280 Q 674 273 642 268 L 592 259 Q 525 247 471 239 C 441 235 444 223 473 216 Z" fill="lightgray"></path>
				<path d="M 476 85 Q 486 79 500 79 Q 545 84 592 89 L 640 94 Q 700 101 765 108 C 795 111 795 138 767 148 Q 754 154 735 154 Q 728 154 640 141 L 592 134 Q 544 127 479 117 C 449 112 449 97 476 85 Z" fill="lightgray"></path>
				<path d="M 583 467 Q 592 434 592 423 L 592 380 L 592 346 L 592 259 L 592 220 L 592 134 L 592 89 L 592 50 Q 592 -34 624 -68 Q 671 -118 757 -118 Q 856 -118 922 -88 Q 972 -68 972 -41 Q 972 -32 961 -9 Q 947 37 936 107 Q 926 163 920 163 Q 915 163 913 137 Q 902 36 886 -2 Q 878 -25 851 -40 Q 816 -62 757 -62 Q 697 -62 667 -35 Q 640 -6 640 50 L 640 94 L 640 141 Q 641 186 641 226 L 642 268 Q 643 314 645 353 L 648 388 Q 651 424 651 434 Q 651 449 628 466 Q 625 468 620 471 C 597 490 576 496 583 467 Z" fill="lightgray"></path>
</g>
		<text x="40" y="140" font-size="128" fill="#999999">8</text></g>
		<g id="id1:id3:id3" transform="matrix(1.0,0,0,1.0,3072,0.0)">			<g stroke="lightgray" stroke-width="4" transform="scale(4, 4)"> <rect x="0" y="0" width="256" height="256" fill="white" stroke-width="4"/></g>
			<g transform="scale(0.92, -0.92) translate(60, -920)">					<path d="M 284 416 Q 231 410 180 402 Q 218 464 234 499 Q 257 542 289 591 Q 299 605 299 614 Q 299 632 272 657 Q 244 683 227 683 Q 219 683 219 675 Q 219 632 206 575 Q 194 518 170 471 Q 154 428 124 406 Q 106 397 103 379 Q 109 332 135 331 Q 139 331 152 340 Q 182 363 210 371 Q 231 378 265 383 C 295 388 314 419 284 416 Z" fill="black"></path>
				<path d="M 319 519 Q 307 518 307 503 Q 307 459 284 416 L 265 383 Q 229 322 179 256 Q 146 214 108 198 Q 92 197 91 194 Q 91 178 104 162 Q 122 135 143 135 Q 154 135 171 148 Q 224 189 368 247 Q 376 250 376 259 Q 376 266 355 266 Q 348 264 208 225 Q 335 401 367 438 Q 378 448 380 459 Q 378 474 356 494 Q 332 518 319 519 Z" fill="black"></path>
				<path d="M 376 142 Q 371 142 315 113 Q 138 30 81 21 Q 55 18 55 7 Q 55 -3 81 -27 Q 113 -53 135 -53 Q 139 -53 166 -25 Q 212 14 347 96 Q 387 121 387 135 Q 387 142 376 142 Z" fill="black"></path>
				<path d="M 420 662 Q 408 662 408 650 Q 409 648 417 637 Q 434 618 472 460 Q 482 423 496 423 Q 508 423 508 446 L 506 461 L 503 492 L 492 606 Q 490 612 488 619 L 469 650 L 468 651 Q 446 661 420 662 Z" fill="black"></path>
				<path d="M 744 518 Q 778 603 806 622 Q 819 630 819 639 Q 819 658 786 682 Q 754 702 731 702 Q 724 702 707 695 Q 678 685 589 668 Q 504 652 471 650 L 469 650 C 439 648 458 620 488 619 Q 492 618 496 618 Q 510 618 588 636 Q 663 650 695 650 Q 720 650 720 631 Q 710 555 703 536 Q 702 530 701 525 C 695 496 733 490 744 518 Z" fill="black"></path>
				<path d="M 506 461 Q 511 459 519 459 L 583 467 L 620 471 Q 682 479 748 486 Q 760 492 760 499 Q 760 508 744 518 C 729 529 729 529 701 525 Q 673 522 503 492 C 473 487 477 467 506 461 Z" fill="black"></path>
				<path d="M 446 359 Q 441 363 433 365 Q 418 371 391 371 Q 376 371 376 362 Q 376 356 385 343 Q 401 322 410 283 Q 426 233 434 106 Q 437 56 464 54 Q 472 54 476 85 L 479 117 L 479 123 Q 479 158 473 216 L 471 239 Q 467 278 460 326 C 456 354 456 354 446 359 Z" fill="black"></path>
				<path d="M 592 380 L 446 359 C 416 355 430 324 460 326 L 468 326 Q 480 326 592 346 L 645 353 Q 731 362 768 362 Q 792 362 792 335 Q 792 310 787 276 L 784 250 Q 780 216 772 176 Q 770 162 767 148 L 765 108 Q 767 103 769 95 Q 776 83 787 83 Q 803 83 843 248 Q 860 328 876 341 Q 892 358 892 366 Q 892 378 852 401 Q 819 419 796 419 Q 787 419 766 411 Q 732 399 695 395 L 648 388 L 592 380 Z" fill="black"></path>
				<path d="M 473 216 Q 490 211 508 211 Q 525 211 592 220 L 641 226 Q 697 234 779 247 Q 781 248 784 250 C 808 259 808 259 787 276 Q 780 286 756 287 Q 734 287 707 280 Q 674 273 642 268 L 592 259 Q 525 247 471 239 C 441 235 444 223 473 216 Z" fill="red"></path>
				<path d="M 476 85 Q 486 79 500 79 Q 545 84 592 89 L 640 94 Q 700 101 765 108 C 795 111 795 138 767 148 Q 754 154 735 154 Q 728 154 640 141 L 592 134 Q 544 127 479 117 C 449 112 449 97 476 85 Z" fill="lightgray"></path>
				<path d="M 583 467 Q 592 434 592 423 L 592 380 L 592 346 L 592 259 L 592 220 L 592 134 L 592 89 L 592 50 Q 592 -34 624 -68 Q 671 -118 757 -118 Q 856 -118 922 -88 Q 972 -68 972 -41 Q 972 -32 961 -9 Q 947 37 936 107 Q 926 163 920 163 Q 915 163 913 137 Q 902 36 886 -2 Q 878 -25 851 -40 Q 816 -62 757 -62 Q 697 -62 667 -35 Q 640 -6 640 50 L 640 94 L 640 141 Q 641 186 641 226 L 642 268 Q 643 314 645 353 L 648 388 Q 651 424 651 434 Q 651 449 628 466 Q 625 468 620 471 C 597 490 576 496 583 467 Z" fill="lightgray"></path>
</g>
		<text x="40" y="140" font-size="128" fill="#999999">9</text></g>
		<g id="id1:id4:id4" transform="matrix(1.0,0,0,1.0,4096,0.0)">			<g stroke="lightgray" stroke-width="4" transform="scale(4, 4)"> <rect x="0" y="0" width="256" height="256" fill="white" stroke-width="4"/></g>
			<g transform="scale(0.92, -0.92) translate(60, -920)">					<path d="M 284 416 Q 231 410 180 402 Q 218 464 234 499 Q 257 542 289 591 Q 299 605 299 614 Q 299 632 272 657 Q 244 683 227 683 Q 219 683 219 675 Q 219 632 206 575 Q 194 518 170 471 Q 154 428 124 406 Q 106 397 103 379 Q 109 332 135 331 Q 139 331 152 340 Q 182 363 210 371 Q 231 378 265 383 C 295 388 314 419 284 416 Z" fill="black"></path>
				<path d="M 319 519 Q 307 518 307 503 Q 307 459 284 416 L 265 383 Q 229 322 179 256 Q 146 214 108 198 Q 92 197 91 194 Q 91 178 104 162 Q 122 135 143 135 Q 154 135 171 148 Q 224 189 368 247 Q 376 250 376 259 Q 376 266 355 266 Q 348 264 208 225 Q 335 401 367 438 Q 378 448 380 459 Q 378 474 356 494 Q 332 518 319 519 Z" fill="black"></path>
				<path d="M 376 142 Q 371 142 315 113 Q 138 30 81 21 Q 55 18 55 7 Q 55 -3 81 -27 Q 113 -53 135 -53 Q 139 -53 166 -25 Q 212 14 347 96 Q 387 121 387 135 Q 387 142 376 142 Z" fill="black"></path>
				<path d="M 420 662 Q 408 662 408 650 Q 409 648 417 637 Q 434 618 472 460 Q 482 423 496 423 Q 508 423 508 446 L 506 461 L 503 492 L 492 606 Q 490 612 488 619 L 469 650 L 468 651 Q 446 661 420 662 Z" fill="black"></path>
				<path d="M 744 518 Q 778 603 806 622 Q 819 630 819 639 Q 819 658 786 682 Q 754 702 731 702 Q 724 702 707 695 Q 678 685 589 668 Q 504 652 471 650 L 469 650 C 439 648 458 620 488 619 Q 492 618 496 618 Q 510 618 588 636 Q 663 650 695 650 Q 720 650 720 631 Q 710 555 703 536 Q 702 530 701 525 C 695 496 733 490 744 518 Z" fill="black"></path>
				<path d="M 506 461 Q 511 459 519 459 L 583 467 L 620 471 Q 682 479 748 486 Q 760 492 760 499 Q 760 508 744 518 C 729 529 729 529 701 525 Q 673 522 503 492 C 473 487 477 467 506 461 Z" fill="black"></path>
				<path d="M 446 359 Q 441 363 433 365 Q 418 371 391 371 Q 376 371 376 362 Q 376 356 385 343 Q 401 322 410 283 Q 426 233 434 106 Q 437 56 464 54 Q 472 54 476 85 L 479 117 L 479 123 Q 479 158 473 216 L 471 239 Q 467 278 460 326 C 456 354 456 354 446 359 Z" fill="black"></path>
				<path d="M 592 380 L 446 359 C 416 355 430 324 460 326 L 468 326 Q 480 326 592 346 L 645 353 Q 731 362 768 362 Q 792 362 792 335 Q 792 310 787 276 L 784 250 Q 780 216 772 176 Q 770 162 767 148 L 765 108 Q 767 103 769 95 Q 776 83 787 83 Q 803 83 843 248 Q 860 328 876 341 Q 892 358 892 366 Q 892 378 852 401 Q 819 419 796 419 Q 787 419 766 411 Q 732 399 695 395 L 648 388 L 592 380 Z" fill="black"></path>
				<path d="M 473 216 Q 490 211 508 211 Q 525 211 592 220 L 641 226 Q 697 234 779 247 Q 781 248 784 250 C 808 259 808 259 787 276 Q 780 286 756 287 Q 734 287 707 280 Q 674 273 642 268 L 592 259 Q 525 247 471 239 C 441 235 444 223 473 216 Z" fill="black"></path>
				<path d="M 476 85 Q 486 79 500 79 Q 545 84 592 89 L 640 94 Q 700 101 765 108 C 795 111 795 138 767 148 Q 754 154 735 154 Q 728 154 640 141 L 592 134 Q 544 127 479 117 C 449 112 449 97 476 85 Z" fill="red"></path>
				<path d="M 583 467 Q 592 434 592 423 L 592 380 L 592 346 L 592 259 L 592 220 L 592 134 L 592 89 L 592 50 Q 592 -34 624 -68 Q 671 -118 757 -118 Q 856 -118 922 -88 Q 972 -68 972 -41 Q 972 -32 961 -9 Q 947 37 936 107 Q 926 163 920 163 Q 915 163 913 137 Q 902 36 886 -2 Q 878 -25 851 -40 Q 816 -62 757 -62 Q 697 -62 667 -35 Q 640 -6 640 50 L 640 94 L 640 141 Q 641 186 641 226 L 642 268 Q 643 314 645 353 L 648 388 Q 651 424 651 434 Q 651 449 628 466 Q 625 468 620 471 C 597 490 576 496 583 467 Z" fill="lightgray"></path>
</g>
		<text x="40" y="140" font-size="128" fill="#999999">10</text></g>
</g>
	<g id="id2:id2" transform="translate(0.0,2048)">
		<g id="id2:id0:id0" transform="matrix(1.0,0,0,1.0,0,0.0)">			<g stroke="lightgray" stroke-width="4" transform="scale(4, 4)"> <rect x="0" y="0" width="256" height="256" fill="white" stroke-width="4"/></g>
			<g transform="scale(0.92, -0.92) translate(60, -920)">					<path d="M 284 416 Q 231 410 180 402 Q 218 464 234 499 Q 257 542 289 591 Q 299 605 299 614 Q 299 632 272 657 Q 244 683 227 683 Q 219 683 219 675 Q 219 632 206 575 Q 194 518 170 471 Q 154 428 124 406 Q 106 397 103 379 Q 109 332 135 331 Q 139 331 152 340 Q 182 363 210 371 Q 231 378 265 383 C 295 388 314 419 284 416 Z" fill="black"></path>
				<path d="M 319 519 Q 307 518 307 503 Q 307 459 284 416 L 265 383 Q 229 322 179 256 Q 146 214 108 198 Q 92 197 91 194 Q 91 178 104 162 Q 122 135 143 135 Q 154 135 171 148 Q 224 189 368 247 Q 376 250 376 259 Q 376 266 355 266 Q 348 264 208 225 Q 335 401 367 438 Q 378 448 380 459 Q 378 474 356 494 Q 332 518 319 519 Z" fill="black"></path>
				<path d="M 376 142 Q 371 142 315 113 Q 138 30 81 21 Q 55 18 55 7 Q 55 -3 81 -27 Q 113 -53 135 -53 Q 139 -53 166 -25 Q 212 14 347 96 Q 387 121 387 135 Q 387 142 376 142 Z" fill="black"></path>
				<path d="M 420 662 Q 408 662 408 650 Q 409 648 417 637 Q 434 618 472 460 Q 482 423 496 423 Q 508 423 508 446 L 506 461 L 503 492 L 492 606 Q 490 612 488 619 L 469 650 L 468 651 Q 446 661 420 662 Z" fill="black"></path>
				<path d="M 744 518 Q 778 603 806 622 Q 819 630 819 639 Q 819 658 786 682 Q 754 702 731 702 Q 724 702 707 695 Q 678 685 589 668 Q 504 652 471 650 L 469 650 C 439 648 458 620 488 619 Q 492 618 496 618 Q 510 618 588 636 Q 663 650 695 650 Q 720 650 720 631 Q 710 555 703 536 Q 702 530 701 525 C 695 496 733 490 744 518 Z" fill="black"></path>
				<path d="M 506 461 Q 511 459 519 459 L 583 467 L 620 471 Q 682 479 748 486 Q 760 492 760 499 Q 760 508 744 518 C 729 529 729 529 701 525 Q 673 522 503 492 C 473 487 477 467 506 461 Z" fill="black"></path>
				<path d="M 446 359 Q 441 363 433 365 Q 418 371 391 371 Q 376 371 376 362 Q 376 356 385 343 Q 401 322 410 283 Q 426 233 434 106 Q 437 56 464 54 Q 472 54 476 85 L 479 117 L 479 123 Q 479 158 473 216 L 471 239 Q 467 278 460 326 C 456 354 456 354 446 359 Z" fill="black"></path>
				<path d="M 592 380 L 446 359 C 416 355 430 324 460 326 L 468 326 Q 480 326 592 346 L 645 353 Q 731 362 768 362 Q 792 362 792 335 Q 792 310 787 276 L 784 250 Q 780 216 772 176 Q 770 162 767 148 L 765 108 Q 767 103 769 95 Q 776 83 787 83 Q 803 83 843 248 Q 860 328 876 341 Q 892 358 892 366 Q 892 378 852 401 Q 819 419 796 419 Q 787 419 766 411 Q 732 399 695 395 L 648 388 L 592 380 Z" fill="black"></path>
				<path d="M 473 216 Q 490 211 508 211 Q 525 211 592 220 L 641 226 Q 697 234 779 247 Q 781 248 784 250 C 808 259 808 259 787 276 Q 780 286 756 287 Q 734 287 707 280 Q 674 273 642 268 L 592 259 Q 525 247 471 239 C 441 235 444 223 473 216 Z" fill="black"></path>
				<path d="M 476 85 Q 486 79 500 79 Q 545 84 592 89 L 640 94 Q 700 101 765 108 C 795 111 795 138 767 148 Q 754 154 735 154 Q 728 154 640 141 L 592 134 Q 544 127 479 117 C 449 112 449 97 476 85 Z" fill="black"></path>
				<path d="M 583 467 Q 592 434 592 423 L 592 380 L 592 346 L 592 259 L 592 220 L 592 134 L 592 89 L 592 50 Q 592 -34 624 -68 Q 671 -118 757 -118 Q 856 -118 922 -88 Q 972 -68 972 -41 Q 972 -32 961 -9 Q 947 37 936 107 Q 926 163 920 163 Q 915 163 913 137 Q 902 36 886 -2 Q 878 -25 851 -40 Q 816 -62 757 -62 Q 697 -62 667 -35 Q 640 -6 640 50 L 640 94 L 640 141 Q 641 186 641 226 L 642 268 Q 643 314 645 353 L 648 388 Q 651 424 651 434 Q 651 449 628 466 Q 625 468 620 471 C 597 490 576 496 583 467 Z" fill="red"></path>
</g>
		<text x="40" y="140" font-size="128" fill="#999999">11</text></g>
		<g id="id2:id1:id1" transform="matrix(1.0,0,0,1.0,1024,0.0)">			<g stroke="white" stroke-width="4" transform="scale(4, 4)"> <rect x="1" y="1" width="255" height="255" fill="white" stroke-width="0"/></g>
</g>
		<g id="id2:id2:id2" transform="matrix(1.0,0,0,1.0,2048,0.0)">			<g stroke="white" stroke-width="4" transform="scale(4, 4)"> <rect x="1" y="1" width="255" height="255" fill="white" stroke-width="0"/></g>
</g>
		<g id="id2:id3:id3" transform="matrix(1.0,0,0,1.0,3072,0.0)">			<g stroke="white" stroke-width="4" transform="scale(4, 4)"> <rect x="1" y="1" width="255" height="255" fill="white" stroke-width="0"/></g>
</g>
		<g id="id2:id4:id4" transform="matrix(1.0,0,0,1.0,4096,0.0)">			<g stroke="white" stroke-width="4" transform="scale(4, 4)"> <rect x="1" y="1" width="255" height="255" fill="white" stroke-width="0"/></g>
</g>
</g>
</svg>
