<?xml version="1.0" standalone="no"?>
<!DOCTYPE svg PUBLIC "-//W3C//DTD SVG 1.1//EN"
 "http://www.w3.org/Graphics/SVG/1.1/DTD/svg11.dtd">
<!-- generate by Japanese dictionary app com.asnsami.kanjidictionary -->

<svg xmlns="http://www.w3.org/2000/svg" xmlns:sodipodi="http://sodipodi.sourceforge.net/DTD/sodipodi-0.dtd" version="1.1" width="640" height="384" viewBox="0 0 5120 3072">
	<g id="id0:id0" transform="translate(0.0,0)">
		<g id="id0:id0:id0" transform="matrix(1.0,0,0,1.0,0,0.0)">			<g stroke="lightgray" stroke-width="4" transform="scale(4, 4)"> <rect x="0" y="0" width="256" height="256" fill="white" stroke-width="4"/></g>
			<g transform="scale(0.92, -0.92) translate(60, -920)">					<path d="M 296 487 Q 241 488 197 487 Q 163 487 181 507 Q 251 625 320 713 Q 335 729 332 737 Q 329 752 291 783 Q 275 796 256 793 Q 246 790 251 775 Q 269 735 177 569 Q 158 532 116 495 Q 97 482 99 469 Q 103 450 117 432 Q 127 422 140 429 Q 168 444 259 461 Q 269 462 280 463 C 310 466 326 487 296 487 Z" fill="red"></path>
				<path d="M 280 463 Q 181 330 159 318 Q 146 308 148 294 Q 149 281 177 261 Q 187 249 203 262 Q 264 308 345 338 Q 364 344 367 353 Q 370 363 349 359 Q 303 352 248 335 Q 221 325 238 347 Q 275 399 364 503 Q 392 542 418 563 Q 431 573 425 584 Q 415 603 380 623 Q 364 633 354 630 Q 344 626 346 610 Q 347 573 296 487 L 280 463 Z" fill="lightgray"></path>
				<path d="M 102 143 Q 90 139 90 129 Q 89 116 100 109 Q 125 97 160 83 Q 170 82 181 92 Q 208 120 339 208 Q 358 221 370 234 Q 382 244 381 253 Q 374 257 260 204 Q 125 147 102 143 Z" fill="lightgray"></path>
				<path d="M 653 489 Q 669 720 682 760 Q 685 770 666 785 Q 632 803 608 807 Q 592 811 584 802 Q 577 795 585 780 Q 604 755 604 736 Q 614 619 612 482 C 612 452 651 459 653 489 Z" fill="lightgray"></path>
				<path d="M 463 603 Q 485 575 506 541 Q 516 526 531 524 Q 541 523 549 533 Q 556 546 554 576 Q 553 595 527 616 Q 464 658 448 655 Q 444 652 442 640 Q 443 628 463 603 Z" fill="lightgray"></path>
				<path d="M 775 682 Q 757 648 702 578 Q 693 562 709 565 Q 754 593 779 613 Q 830 658 856 669 Q 875 679 865 695 Q 852 711 827 723 Q 803 735 792 732 Q 779 731 784 718 Q 788 700 775 682 Z" fill="lightgray"></path>
				<path d="M 462 450 Q 458 457 449 460 Q 419 473 402 471 Q 389 467 395 454 Q 449 355 413 172 Q 395 120 400 104 Q 404 74 422 56 Q 429 43 440 50 Q 473 78 471 189 Q 467 363 469 413 L 462 450 Z" fill="lightgray"></path>
				<path d="M 469 413 Q 487 435 806 464 Q 818 464 821 459 Q 831 453 833 410 Q 846 232 828 130 Q 824 99 796 101 Q 756 111 719 119 Q 706 123 706 117 Q 705 111 716 100 Q 795 42 818 10 Q 828 -5 839 -1 Q 854 2 865 29 Q 884 69 890 115 Q 900 176 894 395 Q 893 435 903 456 Q 919 478 906 483 Q 890 498 853 512 Q 835 522 777 508 Q 671 493 653 489 L 612 482 Q 599 482 462 450 C 433 443 441 402 469 413 Z" fill="lightgray"></path>
				<path d="M 570 338 Q 560 344 535 349 Q 525 353 521 348 Q 514 344 522 328 Q 541 282 552 205 Q 553 183 566 167 Q 581 146 586 160 Q 590 170 591 185 L 589 215 Q 582 290 582 312 C 582 332 582 332 570 338 Z" fill="lightgray"></path>
				<path d="M 724 243 Q 736 301 753 320 Q 772 345 751 357 Q 732 367 706 382 Q 687 391 670 379 Q 649 364 570 338 C 542 329 553 303 582 312 Q 582 313 655 332 Q 674 336 679 329 Q 686 325 682 296 Q 678 269 674 237 C 670 207 718 214 724 243 Z" fill="lightgray"></path>
				<path d="M 591 185 Q 601 184 612 186 Q 655 196 746 207 Q 756 208 757 217 Q 757 224 727 242 Q 726 243 724 243 L 674 237 Q 626 224 589 215 C 560 208 561 187 591 185 Z" fill="lightgray"></path>
</g>
		<text x="40" y="140" font-size="128" fill="#999999">1</text></g>
		<g id="id0:id1:id1" transform="matrix(1.0,0,0,1.0,1024,0.0)">			<g stroke="lightgray" stroke-width="4" transform="scale(4, 4)"> <rect x="0" y="0" width="256" height="256" fill="white" stroke-width="4"/></g>
			<g transform="scale(0.92, -0.92) translate(60, -920)">					<path d="M 296 487 Q 241 488 197 487 Q 163 487 181 507 Q 251 625 320 713 Q 335 729 332 737 Q 329 752 291 783 Q 275 796 256 793 Q 246 790 251 775 Q 269 735 177 569 Q 158 532 116 495 Q 97 482 99 469 Q 103 450 117 432 Q 127 422 140 429 Q 168 444 259 461 Q 269 462 280 463 C 310 466 326 487 296 487 Z" fill="black"></path>
				<path d="M 280 463 Q 181 330 159 318 Q 146 308 148 294 Q 149 281 177 261 Q 187 249 203 262 Q 264 308 345 338 Q 364 344 367 353 Q 370 363 349 359 Q 303 352 248 335 Q 221 325 238 347 Q 275 399 364 503 Q 392 542 418 563 Q 431 573 425 584 Q 415 603 380 623 Q 364 633 354 630 Q 344 626 346 610 Q 347 573 296 487 L 280 463 Z" fill="red"></path>
				<path d="M 102 143 Q 90 139 90 129 Q 89 116 100 109 Q 125 97 160 83 Q 170 82 181 92 Q 208 120 339 208 Q 358 221 370 234 Q 382 244 381 253 Q 374 257 260 204 Q 125 147 102 143 Z" fill="lightgray"></path>
				<path d="M 653 489 Q 669 720 682 760 Q 685 770 666 785 Q 632 803 608 807 Q 592 811 584 802 Q 577 795 585 780 Q 604 755 604 736 Q 614 619 612 482 C 612 452 651 459 653 489 Z" fill="lightgray"></path>
				<path d="M 463 603 Q 485 575 506 541 Q 516 526 531 524 Q 541 523 549 533 Q 556 546 554 576 Q 553 595 527 616 Q 464 658 448 655 Q 444 652 442 640 Q 443 628 463 603 Z" fill="lightgray"></path>
				<path d="M 775 682 Q 757 648 702 578 Q 693 562 709 565 Q 754 593 779 613 Q 830 658 856 669 Q 875 679 865 695 Q 852 711 827 723 Q 803 735 792 732 Q 779 731 784 718 Q 788 700 775 682 Z" fill="lightgray"></path>
				<path d="M 462 450 Q 458 457 449 460 Q 419 473 402 471 Q 389 467 395 454 Q 449 355 413 172 Q 395 120 400 104 Q 404 74 422 56 Q 429 43 440 50 Q 473 78 471 189 Q 467 363 469 413 L 462 450 Z" fill="lightgray"></path>
				<path d="M 469 413 Q 487 435 806 464 Q 818 464 821 459 Q 831 453 833 410 Q 846 232 828 130 Q 824 99 796 101 Q 756 111 719 119 Q 706 123 706 117 Q 705 111 716 100 Q 795 42 818 10 Q 828 -5 839 -1 Q 854 2 865 29 Q 884 69 890 115 Q 900 176 894 395 Q 893 435 903 456 Q 919 478 906 483 Q 890 498 853 512 Q 835 522 777 508 Q 671 493 653 489 L 612 482 Q 599 482 462 450 C 433 443 441 402 469 413 Z" fill="lightgray"></path>
				<path d="M 570 338 Q 560 344 535 349 Q 525 353 521 348 Q 514 344 522 328 Q 541 282 552 205 Q 553 183 566 167 Q 581 146 586 160 Q 590 170 591 185 L 589 215 Q 582 290 582 312 C 582 332 582 332 570 338 Z" fill="lightgray"></path>
				<path d="M 724 243 Q 736 301 753 320 Q 772 345 751 357 Q 732 367 706 382 Q 687 391 670 379 Q 649 364 570 338 C 542 329 553 303 582 312 Q 582 313 655 332 Q 674 336 679 329 Q 686 325 682 296 Q 678 269 674 237 C 670 207 718 214 724 243 Z" fill="lightgray"></path>
				<path d="M 591 185 Q 601 184 612 186 Q 655 196 746 207 Q 756 208 757 217 Q 757 224 727 242 Q 726 243 724 243 L 674 237 Q 626 224 589 215 C 560 208 561 187 591 185 Z" fill="lightgray"></path>
</g>
		<text x="40" y="140" font-size="128" fill="#999999">2</text></g>
		<g id="id0:id2:id2" transform="matrix(1.0,0,0,1.0,2048,0.0)">			<g stroke="lightgray" stroke-width="4" transform="scale(4, 4)"> <rect x="0" y="0" width="256" height="256" fill="white" stroke-width="4"/></g>
			<g transform="scale(0.92, -0.92) translate(60, -920)">					<path d="M 296 487 Q 241 488 197 487 Q 163 487 181 507 Q 251 625 320 713 Q 335 729 332 737 Q 329 752 291 783 Q 275 796 256 793 Q 246 790 251 775 Q 269 735 177 569 Q 158 532 116 495 Q 97 482 99 469 Q 103 450 117 432 Q 127 422 140 429 Q 168 444 259 461 Q 269 462 280 463 C 310 466 326 487 296 487 Z" fill="black"></path>
				<path d="M 280 463 Q 181 330 159 318 Q 146 308 148 294 Q 149 281 177 261 Q 187 249 203 262 Q 264 308 345 338 Q 364 344 367 353 Q 370 363 349 359 Q 303 352 248 335 Q 221 325 238 347 Q 275 399 364 503 Q 392 542 418 563 Q 431 573 425 584 Q 415 603 380 623 Q 364 633 354 630 Q 344 626 346 610 Q 347 573 296 487 L 280 463 Z" fill="black"></path>
				<path d="M 102 143 Q 90 139 90 129 Q 89 116 100 109 Q 125 97 160 83 Q 170 82 181 92 Q 208 120 339 208 Q 358 221 370 234 Q 382 244 381 253 Q 374 257 260 204 Q 125 147 102 143 Z" fill="red"></path>
				<path d="M 653 489 Q 669 720 682 760 Q 685 770 666 785 Q 632 803 608 807 Q 592 811 584 802 Q 577 795 585 780 Q 604 755 604 736 Q 614 619 612 482 C 612 452 651 459 653 489 Z" fill="lightgray"></path>
				<path d="M 463 603 Q 485 575 506 541 Q 516 526 531 524 Q 541 523 549 533 Q 556 546 554 576 Q 553 595 527 616 Q 464 658 448 655 Q 444 652 442 640 Q 443 628 463 603 Z" fill="lightgray"></path>
				<path d="M 775 682 Q 757 648 702 578 Q 693 562 709 565 Q 754 593 779 613 Q 830 658 856 669 Q 875 679 865 695 Q 852 711 827 723 Q 803 735 792 732 Q 779 731 784 718 Q 788 700 775 682 Z" fill="lightgray"></path>
				<path d="M 462 450 Q 458 457 449 460 Q 419 473 402 471 Q 389 467 395 454 Q 449 355 413 172 Q 395 120 400 104 Q 404 74 422 56 Q 429 43 440 50 Q 473 78 471 189 Q 467 363 469 413 L 462 450 Z" fill="lightgray"></path>
				<path d="M 469 413 Q 487 435 806 464 Q 818 464 821 459 Q 831 453 833 410 Q 846 232 828 130 Q 824 99 796 101 Q 756 111 719 119 Q 706 123 706 117 Q 705 111 716 100 Q 795 42 818 10 Q 828 -5 839 -1 Q 854 2 865 29 Q 884 69 890 115 Q 900 176 894 395 Q 893 435 903 456 Q 919 478 906 483 Q 890 498 853 512 Q 835 522 777 508 Q 671 493 653 489 L 612 482 Q 599 482 462 450 C 433 443 441 402 469 413 Z" fill="lightgray"></path>
				<path d="M 570 338 Q 560 344 535 349 Q 525 353 521 348 Q 514 344 522 328 Q 541 282 552 205 Q 553 183 566 167 Q 581 146 586 160 Q 590 170 591 185 L 589 215 Q 582 290 582 312 C 582 332 582 332 570 338 Z" fill="lightgray"></path>
				<path d="M 724 243 Q 736 301 753 320 Q 772 345 751 357 Q 732 367 706 382 Q 687 391 670 379 Q 649 364 570 338 C 542 329 553 303 582 312 Q 582 313 655 332 Q 674 336 679 329 Q 686 325 682 296 Q 678 269 674 237 C 670 207 718 214 724 243 Z" fill="lightgray"></path>
				<path d="M 591 185 Q 601 184 612 186 Q 655 196 746 207 Q 756 208 757 217 Q 757 224 727 242 Q 726 243 724 243 L 674 237 Q 626 224 589 215 C 560 208 561 187 591 185 Z" fill="lightgray"></path>
</g>
		<text x="40" y="140" font-size="128" fill="#999999">3</text></g>
		<g id="id0:id3:id3" transform="matrix(1.0,0,0,1.0,3072,0.0)">			<g stroke="lightgray" stroke-width="4" transform="scale(4, 4)"> <rect x="0" y="0" width="256" height="256" fill="white" stroke-width="4"/></g>
			<g transform="scale(0.92, -0.92) translate(60, -920)">					<path d="M 296 487 Q 241 488 197 487 Q 163 487 181 507 Q 251 625 320 713 Q 335 729 332 737 Q 329 752 291 783 Q 275 796 256 793 Q 246 790 251 775 Q 269 735 177 569 Q 158 532 116 495 Q 97 482 99 469 Q 103 450 117 432 Q 127 422 140 429 Q 168 444 259 461 Q 269 462 280 463 C 310 466 326 487 296 487 Z" fill="black"></path>
				<path d="M 280 463 Q 181 330 159 318 Q 146 308 148 294 Q 149 281 177 261 Q 187 249 203 262 Q 264 308 345 338 Q 364 344 367 353 Q 370 363 349 359 Q 303 352 248 335 Q 221 325 238 347 Q 275 399 364 503 Q 392 542 418 563 Q 431 573 425 584 Q 415 603 380 623 Q 364 633 354 630 Q 344 626 346 610 Q 347 573 296 487 L 280 463 Z" fill="black"></path>
				<path d="M 102 143 Q 90 139 90 129 Q 89 116 100 109 Q 125 97 160 83 Q 170 82 181 92 Q 208 120 339 208 Q 358 221 370 234 Q 382 244 381 253 Q 374 257 260 204 Q 125 147 102 143 Z" fill="black"></path>
				<path d="M 653 489 Q 669 720 682 760 Q 685 770 666 785 Q 632 803 608 807 Q 592 811 584 802 Q 577 795 585 780 Q 604 755 604 736 Q 614 619 612 482 C 612 452 651 459 653 489 Z" fill="red"></path>
				<path d="M 463 603 Q 485 575 506 541 Q 516 526 531 524 Q 541 523 549 533 Q 556 546 554 576 Q 553 595 527 616 Q 464 658 448 655 Q 444 652 442 640 Q 443 628 463 603 Z" fill="lightgray"></path>
				<path d="M 775 682 Q 757 648 702 578 Q 693 562 709 565 Q 754 593 779 613 Q 830 658 856 669 Q 875 679 865 695 Q 852 711 827 723 Q 803 735 792 732 Q 779 731 784 718 Q 788 700 775 682 Z" fill="lightgray"></path>
				<path d="M 462 450 Q 458 457 449 460 Q 419 473 402 471 Q 389 467 395 454 Q 449 355 413 172 Q 395 120 400 104 Q 404 74 422 56 Q 429 43 440 50 Q 473 78 471 189 Q 467 363 469 413 L 462 450 Z" fill="lightgray"></path>
				<path d="M 469 413 Q 487 435 806 464 Q 818 464 821 459 Q 831 453 833 410 Q 846 232 828 130 Q 824 99 796 101 Q 756 111 719 119 Q 706 123 706 117 Q 705 111 716 100 Q 795 42 818 10 Q 828 -5 839 -1 Q 854 2 865 29 Q 884 69 890 115 Q 900 176 894 395 Q 893 435 903 456 Q 919 478 906 483 Q 890 498 853 512 Q 835 522 777 508 Q 671 493 653 489 L 612 482 Q 599 482 462 450 C 433 443 441 402 469 413 Z" fill="lightgray"></path>
				<path d="M 570 338 Q 560 344 535 349 Q 525 353 521 348 Q 514 344 522 328 Q 541 282 552 205 Q 553 183 566 167 Q 581 146 586 160 Q 590 170 591 185 L 589 215 Q 582 290 582 312 C 582 332 582 332 570 338 Z" fill="lightgray"></path>
				<path d="M 724 243 Q 736 301 753 320 Q 772 345 751 357 Q 732 367 706 382 Q 687 391 670 379 Q 649 364 570 338 C 542 329 553 303 582 312 Q 582 313 655 332 Q 674 336 679 329 Q 686 325 682 296 Q 678 269 674 237 C 670 207 718 214 724 243 Z" fill="lightgray"></path>
				<path d="M 591 185 Q 601 184 612 186 Q 655 196 746 207 Q 756 208 757 217 Q 757 224 727 242 Q 726 243 724 243 L 674 237 Q 626 224 589 215 C 560 208 561 187 591 185 Z" fill="lightgray"></path>
</g>
		<text x="40" y="140" font-size="128" fill="#999999">4</text></g>
		<g id="id0:id4:id4" transform="matrix(1.0,0,0,1.0,4096,0.0)">			<g stroke="lightgray" stroke-width="4" transform="scale(4, 4)"> <rect x="0" y="0" width="256" height="256" fill="white" stroke-width="4"/></g>
			<g transform="scale(0.92, -0.92) translate(60, -920)">					<path d="M 296 487 Q 241 488 197 487 Q 163 487 181 507 Q 251 625 320 713 Q 335 729 332 737 Q 329 752 291 783 Q 275 796 256 793 Q 246 790 251 775 Q 269 735 177 569 Q 158 532 116 495 Q 97 482 99 469 Q 103 450 117 432 Q 127 422 140 429 Q 168 444 259 461 Q 269 462 280 463 C 310 466 326 487 296 487 Z" fill="black"></path>
				<path d="M 280 463 Q 181 330 159 318 Q 146 308 148 294 Q 149 281 177 261 Q 187 249 203 262 Q 264 308 345 338 Q 364 344 367 353 Q 370 363 349 359 Q 303 352 248 335 Q 221 325 238 347 Q 275 399 364 503 Q 392 542 418 563 Q 431 573 425 584 Q 415 603 380 623 Q 364 633 354 630 Q 344 626 346 610 Q 347 573 296 487 L 280 463 Z" fill="black"></path>
				<path d="M 102 143 Q 90 139 90 129 Q 89 116 100 109 Q 125 97 160 83 Q 170 82 181 92 Q 208 120 339 208 Q 358 221 370 234 Q 382 244 381 253 Q 374 257 260 204 Q 125 147 102 143 Z" fill="black"></path>
				<path d="M 653 489 Q 669 720 682 760 Q 685 770 666 785 Q 632 803 608 807 Q 592 811 584 802 Q 577 795 585 780 Q 604 755 604 736 Q 614 619 612 482 C 612 452 651 459 653 489 Z" fill="black"></path>
				<path d="M 463 603 Q 485 575 506 541 Q 516 526 531 524 Q 541 523 549 533 Q 556 546 554 576 Q 553 595 527 616 Q 464 658 448 655 Q 444 652 442 640 Q 443 628 463 603 Z" fill="red"></path>
				<path d="M 775 682 Q 757 648 702 578 Q 693 562 709 565 Q 754 593 779 613 Q 830 658 856 669 Q 875 679 865 695 Q 852 711 827 723 Q 803 735 792 732 Q 779 731 784 718 Q 788 700 775 682 Z" fill="lightgray"></path>
				<path d="M 462 450 Q 458 457 449 460 Q 419 473 402 471 Q 389 467 395 454 Q 449 355 413 172 Q 395 120 400 104 Q 404 74 422 56 Q 429 43 440 50 Q 473 78 471 189 Q 467 363 469 413 L 462 450 Z" fill="lightgray"></path>
				<path d="M 469 413 Q 487 435 806 464 Q 818 464 821 459 Q 831 453 833 410 Q 846 232 828 130 Q 824 99 796 101 Q 756 111 719 119 Q 706 123 706 117 Q 705 111 716 100 Q 795 42 818 10 Q 828 -5 839 -1 Q 854 2 865 29 Q 884 69 890 115 Q 900 176 894 395 Q 893 435 903 456 Q 919 478 906 483 Q 890 498 853 512 Q 835 522 777 508 Q 671 493 653 489 L 612 482 Q 599 482 462 450 C 433 443 441 402 469 413 Z" fill="lightgray"></path>
				<path d="M 570 338 Q 560 344 535 349 Q 525 353 521 348 Q 514 344 522 328 Q 541 282 552 205 Q 553 183 566 167 Q 581 146 586 160 Q 590 170 591 185 L 589 215 Q 582 290 582 312 C 582 332 582 332 570 338 Z" fill="lightgray"></path>
				<path d="M 724 243 Q 736 301 753 320 Q 772 345 751 357 Q 732 367 706 382 Q 687 391 670 379 Q 649 364 570 338 C 542 329 553 303 582 312 Q 582 313 655 332 Q 674 336 679 329 Q 686 325 682 296 Q 678 269 674 237 C 670 207 718 214 724 243 Z" fill="lightgray"></path>
				<path d="M 591 185 Q 601 184 612 186 Q 655 196 746 207 Q 756 208 757 217 Q 757 224 727 242 Q 726 243 724 243 L 674 237 Q 626 224 589 215 C 560 208 561 187 591 185 Z" fill="lightgray"></path>
</g>
		<text x="40" y="140" font-size="128" fill="#999999">5</text></g>
</g>
	<g id="id1:id1" transform="translate(0.0,1024)">
		<g id="id1:id0:id0" transform="matrix(1.0,0,0,1.0,0,0.0)">			<g stroke="lightgray" stroke-width="4" transform="scale(4, 4)"> <rect x="0" y="0" width="256" height="256" fill="white" stroke-width="4"/></g>
			<g transform="scale(0.92, -0.92) translate(60, -920)">					<path d="M 296 487 Q 241 488 197 487 Q 163 487 181 507 Q 251 625 320 713 Q 335 729 332 737 Q 329 752 291 783 Q 275 796 256 793 Q 246 790 251 775 Q 269 735 177 569 Q 158 532 116 495 Q 97 482 99 469 Q 103 450 117 432 Q 127 422 140 429 Q 168 444 259 461 Q 269 462 280 463 C 310 466 326 487 296 487 Z" fill="black"></path>
				<path d="M 280 463 Q 181 330 159 318 Q 146 308 148 294 Q 149 281 177 261 Q 187 249 203 262 Q 264 308 345 338 Q 364 344 367 353 Q 370 363 349 359 Q 303 352 248 335 Q 221 325 238 347 Q 275 399 364 503 Q 392 542 418 563 Q 431 573 425 584 Q 415 603 380 623 Q 364 633 354 630 Q 344 626 346 610 Q 347 573 296 487 L 280 463 Z" fill="black"></path>
				<path d="M 102 143 Q 90 139 90 129 Q 89 116 100 109 Q 125 97 160 83 Q 170 82 181 92 Q 208 120 339 208 Q 358 221 370 234 Q 382 244 381 253 Q 374 257 260 204 Q 125 147 102 143 Z" fill="black"></path>
				<path d="M 653 489 Q 669 720 682 760 Q 685 770 666 785 Q 632 803 608 807 Q 592 811 584 802 Q 577 795 585 780 Q 604 755 604 736 Q 614 619 612 482 C 612 452 651 459 653 489 Z" fill="black"></path>
				<path d="M 463 603 Q 485 575 506 541 Q 516 526 531 524 Q 541 523 549 533 Q 556 546 554 576 Q 553 595 527 616 Q 464 658 448 655 Q 444 652 442 640 Q 443 628 463 603 Z" fill="black"></path>
				<path d="M 775 682 Q 757 648 702 578 Q 693 562 709 565 Q 754 593 779 613 Q 830 658 856 669 Q 875 679 865 695 Q 852 711 827 723 Q 803 735 792 732 Q 779 731 784 718 Q 788 700 775 682 Z" fill="red"></path>
				<path d="M 462 450 Q 458 457 449 460 Q 419 473 402 471 Q 389 467 395 454 Q 449 355 413 172 Q 395 120 400 104 Q 404 74 422 56 Q 429 43 440 50 Q 473 78 471 189 Q 467 363 469 413 L 462 450 Z" fill="lightgray"></path>
				<path d="M 469 413 Q 487 435 806 464 Q 818 464 821 459 Q 831 453 833 410 Q 846 232 828 130 Q 824 99 796 101 Q 756 111 719 119 Q 706 123 706 117 Q 705 111 716 100 Q 795 42 818 10 Q 828 -5 839 -1 Q 854 2 865 29 Q 884 69 890 115 Q 900 176 894 395 Q 893 435 903 456 Q 919 478 906 483 Q 890 498 853 512 Q 835 522 777 508 Q 671 493 653 489 L 612 482 Q 599 482 462 450 C 433 443 441 402 469 413 Z" fill="lightgray"></path>
				<path d="M 570 338 Q 560 344 535 349 Q 525 353 521 348 Q 514 344 522 328 Q 541 282 552 205 Q 553 183 566 167 Q 581 146 586 160 Q 590 170 591 185 L 589 215 Q 582 290 582 312 C 582 332 582 332 570 338 Z" fill="lightgray"></path>
				<path d="M 724 243 Q 736 301 753 320 Q 772 345 751 357 Q 732 367 706 382 Q 687 391 670 379 Q 649 364 570 338 C 542 329 553 303 582 312 Q 582 313 655 332 Q 674 336 679 329 Q 686 325 682 296 Q 678 269 674 237 C 670 207 718 214 724 243 Z" fill="lightgray"></path>
				<path d="M 591 185 Q 601 184 612 186 Q 655 196 746 207 Q 756 208 757 217 Q 757 224 727 242 Q 726 243 724 243 L 674 237 Q 626 224 589 215 C 560 208 561 187 591 185 Z" fill="lightgray"></path>
</g>
		<text x="40" y="140" font-size="128" fill="#999999">6</text></g>
		<g id="id1:id1:id1" transform="matrix(1.0,0,0,1.0,1024,0.0)">			<g stroke="lightgray" stroke-width="4" transform="scale(4, 4)"> <rect x="0" y="0" width="256" height="256" fill="white" stroke-width="4"/></g>
			<g transform="scale(0.92, -0.92) translate(60, -920)">					<path d="M 296 487 Q 241 488 197 487 Q 163 487 181 507 Q 251 625 320 713 Q 335 729 332 737 Q 329 752 291 783 Q 275 796 256 793 Q 246 790 251 775 Q 269 735 177 569 Q 158 532 116 495 Q 97 482 99 469 Q 103 450 117 432 Q 127 422 140 429 Q 168 444 259 461 Q 269 462 280 463 C 310 466 326 487 296 487 Z" fill="black"></path>
				<path d="M 280 463 Q 181 330 159 318 Q 146 308 148 294 Q 149 281 177 261 Q 187 249 203 262 Q 264 308 345 338 Q 364 344 367 353 Q 370 363 349 359 Q 303 352 248 335 Q 221 325 238 347 Q 275 399 364 503 Q 392 542 418 563 Q 431 573 425 584 Q 415 603 380 623 Q 364 633 354 630 Q 344 626 346 610 Q 347 573 296 487 L 280 463 Z" fill="black"></path>
				<path d="M 102 143 Q 90 139 90 129 Q 89 116 100 109 Q 125 97 160 83 Q 170 82 181 92 Q 208 120 339 208 Q 358 221 370 234 Q 382 244 381 253 Q 374 257 260 204 Q 125 147 102 143 Z" fill="black"></path>
				<path d="M 653 489 Q 669 720 682 760 Q 685 770 666 785 Q 632 803 608 807 Q 592 811 584 802 Q 577 795 585 780 Q 604 755 604 736 Q 614 619 612 482 C 612 452 651 459 653 489 Z" fill="black"></path>
				<path d="M 463 603 Q 485 575 506 541 Q 516 526 531 524 Q 541 523 549 533 Q 556 546 554 576 Q 553 595 527 616 Q 464 658 448 655 Q 444 652 442 640 Q 443 628 463 603 Z" fill="black"></path>
				<path d="M 775 682 Q 757 648 702 578 Q 693 562 709 565 Q 754 593 779 613 Q 830 658 856 669 Q 875 679 865 695 Q 852 711 827 723 Q 803 735 792 732 Q 779 731 784 718 Q 788 700 775 682 Z" fill="black"></path>
				<path d="M 462 450 Q 458 457 449 460 Q 419 473 402 471 Q 389 467 395 454 Q 449 355 413 172 Q 395 120 400 104 Q 404 74 422 56 Q 429 43 440 50 Q 473 78 471 189 Q 467 363 469 413 L 462 450 Z" fill="red"></path>
				<path d="M 469 413 Q 487 435 806 464 Q 818 464 821 459 Q 831 453 833 410 Q 846 232 828 130 Q 824 99 796 101 Q 756 111 719 119 Q 706 123 706 117 Q 705 111 716 100 Q 795 42 818 10 Q 828 -5 839 -1 Q 854 2 865 29 Q 884 69 890 115 Q 900 176 894 395 Q 893 435 903 456 Q 919 478 906 483 Q 890 498 853 512 Q 835 522 777 508 Q 671 493 653 489 L 612 482 Q 599 482 462 450 C 433 443 441 402 469 413 Z" fill="lightgray"></path>
				<path d="M 570 338 Q 560 344 535 349 Q 525 353 521 348 Q 514 344 522 328 Q 541 282 552 205 Q 553 183 566 167 Q 581 146 586 160 Q 590 170 591 185 L 589 215 Q 582 290 582 312 C 582 332 582 332 570 338 Z" fill="lightgray"></path>
				<path d="M 724 243 Q 736 301 753 320 Q 772 345 751 357 Q 732 367 706 382 Q 687 391 670 379 Q 649 364 570 338 C 542 329 553 303 582 312 Q 582 313 655 332 Q 674 336 679 329 Q 686 325 682 296 Q 678 269 674 237 C 670 207 718 214 724 243 Z" fill="lightgray"></path>
				<path d="M 591 185 Q 601 184 612 186 Q 655 196 746 207 Q 756 208 757 217 Q 757 224 727 242 Q 726 243 724 243 L 674 237 Q 626 224 589 215 C 560 208 561 187 591 185 Z" fill="lightgray"></path>
</g>
		<text x="40" y="140" font-size="128" fill="#999999">7</text></g>
		<g id="id1:id2:id2" transform="matrix(1.0,0,0,1.0,2048,0.0)">			<g stroke="lightgray" stroke-width="4" transform="scale(4, 4)"> <rect x="0" y="0" width="256" height="256" fill="white" stroke-width="4"/></g>
			<g transform="scale(0.92, -0.92) translate(60, -920)">					<path d="M 296 487 Q 241 488 197 487 Q 163 487 181 507 Q 251 625 320 713 Q 335 729 332 737 Q 329 752 291 783 Q 275 796 256 793 Q 246 790 251 775 Q 269 735 177 569 Q 158 532 116 495 Q 97 482 99 469 Q 103 450 117 432 Q 127 422 140 429 Q 168 444 259 461 Q 269 462 280 463 C 310 466 326 487 296 487 Z" fill="black"></path>
				<path d="M 280 463 Q 181 330 159 318 Q 146 308 148 294 Q 149 281 177 261 Q 187 249 203 262 Q 264 308 345 338 Q 364 344 367 353 Q 370 363 349 359 Q 303 352 248 335 Q 221 325 238 347 Q 275 399 364 503 Q 392 542 418 563 Q 431 573 425 584 Q 415 603 380 623 Q 364 633 354 630 Q 344 626 346 610 Q 347 573 296 487 L 280 463 Z" fill="black"></path>
				<path d="M 102 143 Q 90 139 90 129 Q 89 116 100 109 Q 125 97 160 83 Q 170 82 181 92 Q 208 120 339 208 Q 358 221 370 234 Q 382 244 381 253 Q 374 257 260 204 Q 125 147 102 143 Z" fill="black"></path>
				<path d="M 653 489 Q 669 720 682 760 Q 685 770 666 785 Q 632 803 608 807 Q 592 811 584 802 Q 577 795 585 780 Q 604 755 604 736 Q 614 619 612 482 C 612 452 651 459 653 489 Z" fill="black"></path>
				<path d="M 463 603 Q 485 575 506 541 Q 516 526 531 524 Q 541 523 549 533 Q 556 546 554 576 Q 553 595 527 616 Q 464 658 448 655 Q 444 652 442 640 Q 443 628 463 603 Z" fill="black"></path>
				<path d="M 775 682 Q 757 648 702 578 Q 693 562 709 565 Q 754 593 779 613 Q 830 658 856 669 Q 875 679 865 695 Q 852 711 827 723 Q 803 735 792 732 Q 779 731 784 718 Q 788 700 775 682 Z" fill="black"></path>
				<path d="M 462 450 Q 458 457 449 460 Q 419 473 402 471 Q 389 467 395 454 Q 449 355 413 172 Q 395 120 400 104 Q 404 74 422 56 Q 429 43 440 50 Q 473 78 471 189 Q 467 363 469 413 L 462 450 Z" fill="black"></path>
				<path d="M 469 413 Q 487 435 806 464 Q 818 464 821 459 Q 831 453 833 410 Q 846 232 828 130 Q 824 99 796 101 Q 756 111 719 119 Q 706 123 706 117 Q 705 111 716 100 Q 795 42 818 10 Q 828 -5 839 -1 Q 854 2 865 29 Q 884 69 890 115 Q 900 176 894 395 Q 893 435 903 456 Q 919 478 906 483 Q 890 498 853 512 Q 835 522 777 508 Q 671 493 653 489 L 612 482 Q 599 482 462 450 C 433 443 441 402 469 413 Z" fill="red"></path>
				<path d="M 570 338 Q 560 344 535 349 Q 525 353 521 348 Q 514 344 522 328 Q 541 282 552 205 Q 553 183 566 167 Q 581 146 586 160 Q 590 170 591 185 L 589 215 Q 582 290 582 312 C 582 332 582 332 570 338 Z" fill="lightgray"></path>
				<path d="M 724 243 Q 736 301 753 320 Q 772 345 751 357 Q 732 367 706 382 Q 687 391 670 379 Q 649 364 570 338 C 542 329 553 303 582 312 Q 582 313 655 332 Q 674 336 679 329 Q 686 325 682 296 Q 678 269 674 237 C 670 207 718 214 724 243 Z" fill="lightgray"></path>
				<path d="M 591 185 Q 601 184 612 186 Q 655 196 746 207 Q 756 208 757 217 Q 757 224 727 242 Q 726 243 724 243 L 674 237 Q 626 224 589 215 C 560 208 561 187 591 185 Z" fill="lightgray"></path>
</g>
		<text x="40" y="140" font-size="128" fill="#999999">8</text></g>
		<g id="id1:id3:id3" transform="matrix(1.0,0,0,1.0,3072,0.0)">			<g stroke="lightgray" stroke-width="4" transform="scale(4, 4)"> <rect x="0" y="0" width="256" height="256" fill="white" stroke-width="4"/></g>
			<g transform="scale(0.92, -0.92) translate(60, -920)">					<path d="M 296 487 Q 241 488 197 487 Q 163 487 181 507 Q 251 625 320 713 Q 335 729 332 737 Q 329 752 291 783 Q 275 796 256 793 Q 246 790 251 775 Q 269 735 177 569 Q 158 532 116 495 Q 97 482 99 469 Q 103 450 117 432 Q 127 422 140 429 Q 168 444 259 461 Q 269 462 280 463 C 310 466 326 487 296 487 Z" fill="black"></path>
				<path d="M 280 463 Q 181 330 159 318 Q 146 308 148 294 Q 149 281 177 261 Q 187 249 203 262 Q 264 308 345 338 Q 364 344 367 353 Q 370 363 349 359 Q 303 352 248 335 Q 221 325 238 347 Q 275 399 364 503 Q 392 542 418 563 Q 431 573 425 584 Q 415 603 380 623 Q 364 633 354 630 Q 344 626 346 610 Q 347 573 296 487 L 280 463 Z" fill="black"></path>
				<path d="M 102 143 Q 90 139 90 129 Q 89 116 100 109 Q 125 97 160 83 Q 170 82 181 92 Q 208 120 339 208 Q 358 221 370 234 Q 382 244 381 253 Q 374 257 260 204 Q 125 147 102 143 Z" fill="black"></path>
				<path d="M 653 489 Q 669 720 682 760 Q 685 770 666 785 Q 632 803 608 807 Q 592 811 584 802 Q 577 795 585 780 Q 604 755 604 736 Q 614 619 612 482 C 612 452 651 459 653 489 Z" fill="black"></path>
				<path d="M 463 603 Q 485 575 506 541 Q 516 526 531 524 Q 541 523 549 533 Q 556 546 554 576 Q 553 595 527 616 Q 464 658 448 655 Q 444 652 442 640 Q 443 628 463 603 Z" fill="black"></path>
				<path d="M 775 682 Q 757 648 702 578 Q 693 562 709 565 Q 754 593 779 613 Q 830 658 856 669 Q 875 679 865 695 Q 852 711 827 723 Q 803 735 792 732 Q 779 731 784 718 Q 788 700 775 682 Z" fill="black"></path>
				<path d="M 462 450 Q 458 457 449 460 Q 419 473 402 471 Q 389 467 395 454 Q 449 355 413 172 Q 395 120 400 104 Q 404 74 422 56 Q 429 43 440 50 Q 473 78 471 189 Q 467 363 469 413 L 462 450 Z" fill="black"></path>
				<path d="M 469 413 Q 487 435 806 464 Q 818 464 821 459 Q 831 453 833 410 Q 846 232 828 130 Q 824 99 796 101 Q 756 111 719 119 Q 706 123 706 117 Q 705 111 716 100 Q 795 42 818 10 Q 828 -5 839 -1 Q 854 2 865 29 Q 884 69 890 115 Q 900 176 894 395 Q 893 435 903 456 Q 919 478 906 483 Q 890 498 853 512 Q 835 522 777 508 Q 671 493 653 489 L 612 482 Q 599 482 462 450 C 433 443 441 402 469 413 Z" fill="black"></path>
				<path d="M 570 338 Q 560 344 535 349 Q 525 353 521 348 Q 514 344 522 328 Q 541 282 552 205 Q 553 183 566 167 Q 581 146 586 160 Q 590 170 591 185 L 589 215 Q 582 290 582 312 C 582 332 582 332 570 338 Z" fill="red"></path>
				<path d="M 724 243 Q 736 301 753 320 Q 772 345 751 357 Q 732 367 706 382 Q 687 391 670 379 Q 649 364 570 338 C 542 329 553 303 582 312 Q 582 313 655 332 Q 674 336 679 329 Q 686 325 682 296 Q 678 269 674 237 C 670 207 718 214 724 243 Z" fill="lightgray"></path>
				<path d="M 591 185 Q 601 184 612 186 Q 655 196 746 207 Q 756 208 757 217 Q 757 224 727 242 Q 726 243 724 243 L 674 237 Q 626 224 589 215 C 560 208 561 187 591 185 Z" fill="lightgray"></path>
</g>
		<text x="40" y="140" font-size="128" fill="#999999">9</text></g>
		<g id="id1:id4:id4" transform="matrix(1.0,0,0,1.0,4096,0.0)">			<g stroke="lightgray" stroke-width="4" transform="scale(4, 4)"> <rect x="0" y="0" width="256" height="256" fill="white" stroke-width="4"/></g>
			<g transform="scale(0.92, -0.92) translate(60, -920)">					<path d="M 296 487 Q 241 488 197 487 Q 163 487 181 507 Q 251 625 320 713 Q 335 729 332 737 Q 329 752 291 783 Q 275 796 256 793 Q 246 790 251 775 Q 269 735 177 569 Q 158 532 116 495 Q 97 482 99 469 Q 103 450 117 432 Q 127 422 140 429 Q 168 444 259 461 Q 269 462 280 463 C 310 466 326 487 296 487 Z" fill="black"></path>
				<path d="M 280 463 Q 181 330 159 318 Q 146 308 148 294 Q 149 281 177 261 Q 187 249 203 262 Q 264 308 345 338 Q 364 344 367 353 Q 370 363 349 359 Q 303 352 248 335 Q 221 325 238 347 Q 275 399 364 503 Q 392 542 418 563 Q 431 573 425 584 Q 415 603 380 623 Q 364 633 354 630 Q 344 626 346 610 Q 347 573 296 487 L 280 463 Z" fill="black"></path>
				<path d="M 102 143 Q 90 139 90 129 Q 89 116 100 109 Q 125 97 160 83 Q 170 82 181 92 Q 208 120 339 208 Q 358 221 370 234 Q 382 244 381 253 Q 374 257 260 204 Q 125 147 102 143 Z" fill="black"></path>
				<path d="M 653 489 Q 669 720 682 760 Q 685 770 666 785 Q 632 803 608 807 Q 592 811 584 802 Q 577 795 585 780 Q 604 755 604 736 Q 614 619 612 482 C 612 452 651 459 653 489 Z" fill="black"></path>
				<path d="M 463 603 Q 485 575 506 541 Q 516 526 531 524 Q 541 523 549 533 Q 556 546 554 576 Q 553 595 527 616 Q 464 658 448 655 Q 444 652 442 640 Q 443 628 463 603 Z" fill="black"></path>
				<path d="M 775 682 Q 757 648 702 578 Q 693 562 709 565 Q 754 593 779 613 Q 830 658 856 669 Q 875 679 865 695 Q 852 711 827 723 Q 803 735 792 732 Q 779 731 784 718 Q 788 700 775 682 Z" fill="black"></path>
				<path d="M 462 450 Q 458 457 449 460 Q 419 473 402 471 Q 389 467 395 454 Q 449 355 413 172 Q 395 120 400 104 Q 404 74 422 56 Q 429 43 440 50 Q 473 78 471 189 Q 467 363 469 413 L 462 450 Z" fill="black"></path>
				<path d="M 469 413 Q 487 435 806 464 Q 818 464 821 459 Q 831 453 833 410 Q 846 232 828 130 Q 824 99 796 101 Q 756 111 719 119 Q 706 123 706 117 Q 705 111 716 100 Q 795 42 818 10 Q 828 -5 839 -1 Q 854 2 865 29 Q 884 69 890 115 Q 900 176 894 395 Q 893 435 903 456 Q 919 478 906 483 Q 890 498 853 512 Q 835 522 777 508 Q 671 493 653 489 L 612 482 Q 599 482 462 450 C 433 443 441 402 469 413 Z" fill="black"></path>
				<path d="M 570 338 Q 560 344 535 349 Q 525 353 521 348 Q 514 344 522 328 Q 541 282 552 205 Q 553 183 566 167 Q 581 146 586 160 Q 590 170 591 185 L 589 215 Q 582 290 582 312 C 582 332 582 332 570 338 Z" fill="black"></path>
				<path d="M 724 243 Q 736 301 753 320 Q 772 345 751 357 Q 732 367 706 382 Q 687 391 670 379 Q 649 364 570 338 C 542 329 553 303 582 312 Q 582 313 655 332 Q 674 336 679 329 Q 686 325 682 296 Q 678 269 674 237 C 670 207 718 214 724 243 Z" fill="red"></path>
				<path d="M 591 185 Q 601 184 612 186 Q 655 196 746 207 Q 756 208 757 217 Q 757 224 727 242 Q 726 243 724 243 L 674 237 Q 626 224 589 215 C 560 208 561 187 591 185 Z" fill="lightgray"></path>
</g>
		<text x="40" y="140" font-size="128" fill="#999999">10</text></g>
</g>
	<g id="id2:id2" transform="translate(0.0,2048)">
		<g id="id2:id0:id0" transform="matrix(1.0,0,0,1.0,0,0.0)">			<g stroke="lightgray" stroke-width="4" transform="scale(4, 4)"> <rect x="0" y="0" width="256" height="256" fill="white" stroke-width="4"/></g>
			<g transform="scale(0.92, -0.92) translate(60, -920)">					<path d="M 296 487 Q 241 488 197 487 Q 163 487 181 507 Q 251 625 320 713 Q 335 729 332 737 Q 329 752 291 783 Q 275 796 256 793 Q 246 790 251 775 Q 269 735 177 569 Q 158 532 116 495 Q 97 482 99 469 Q 103 450 117 432 Q 127 422 140 429 Q 168 444 259 461 Q 269 462 280 463 C 310 466 326 487 296 487 Z" fill="black"></path>
				<path d="M 280 463 Q 181 330 159 318 Q 146 308 148 294 Q 149 281 177 261 Q 187 249 203 262 Q 264 308 345 338 Q 364 344 367 353 Q 370 363 349 359 Q 303 352 248 335 Q 221 325 238 347 Q 275 399 364 503 Q 392 542 418 563 Q 431 573 425 584 Q 415 603 380 623 Q 364 633 354 630 Q 344 626 346 610 Q 347 573 296 487 L 280 463 Z" fill="black"></path>
				<path d="M 102 143 Q 90 139 90 129 Q 89 116 100 109 Q 125 97 160 83 Q 170 82 181 92 Q 208 120 339 208 Q 358 221 370 234 Q 382 244 381 253 Q 374 257 260 204 Q 125 147 102 143 Z" fill="black"></path>
				<path d="M 653 489 Q 669 720 682 760 Q 685 770 666 785 Q 632 803 608 807 Q 592 811 584 802 Q 577 795 585 780 Q 604 755 604 736 Q 614 619 612 482 C 612 452 651 459 653 489 Z" fill="black"></path>
				<path d="M 463 603 Q 485 575 506 541 Q 516 526 531 524 Q 541 523 549 533 Q 556 546 554 576 Q 553 595 527 616 Q 464 658 448 655 Q 444 652 442 640 Q 443 628 463 603 Z" fill="black"></path>
				<path d="M 775 682 Q 757 648 702 578 Q 693 562 709 565 Q 754 593 779 613 Q 830 658 856 669 Q 875 679 865 695 Q 852 711 827 723 Q 803 735 792 732 Q 779 731 784 718 Q 788 700 775 682 Z" fill="black"></path>
				<path d="M 462 450 Q 458 457 449 460 Q 419 473 402 471 Q 389 467 395 454 Q 449 355 413 172 Q 395 120 400 104 Q 404 74 422 56 Q 429 43 440 50 Q 473 78 471 189 Q 467 363 469 413 L 462 450 Z" fill="black"></path>
				<path d="M 469 413 Q 487 435 806 464 Q 818 464 821 459 Q 831 453 833 410 Q 846 232 828 130 Q 824 99 796 101 Q 756 111 719 119 Q 706 123 706 117 Q 705 111 716 100 Q 795 42 818 10 Q 828 -5 839 -1 Q 854 2 865 29 Q 884 69 890 115 Q 900 176 894 395 Q 893 435 903 456 Q 919 478 906 483 Q 890 498 853 512 Q 835 522 777 508 Q 671 493 653 489 L 612 482 Q 599 482 462 450 C 433 443 441 402 469 413 Z" fill="black"></path>
				<path d="M 570 338 Q 560 344 535 349 Q 525 353 521 348 Q 514 344 522 328 Q 541 282 552 205 Q 553 183 566 167 Q 581 146 586 160 Q 590 170 591 185 L 589 215 Q 582 290 582 312 C 582 332 582 332 570 338 Z" fill="black"></path>
				<path d="M 724 243 Q 736 301 753 320 Q 772 345 751 357 Q 732 367 706 382 Q 687 391 670 379 Q 649 364 570 338 C 542 329 553 303 582 312 Q 582 313 655 332 Q 674 336 679 329 Q 686 325 682 296 Q 678 269 674 237 C 670 207 718 214 724 243 Z" fill="black"></path>
				<path d="M 591 185 Q 601 184 612 186 Q 655 196 746 207 Q 756 208 757 217 Q 757 224 727 242 Q 726 243 724 243 L 674 237 Q 626 224 589 215 C 560 208 561 187 591 185 Z" fill="red"></path>
</g>
		<text x="40" y="140" font-size="128" fill="#999999">11</text></g>
		<g id="id2:id1:id1" transform="matrix(1.0,0,0,1.0,1024,0.0)">			<g stroke="white" stroke-width="4" transform="scale(4, 4)"> <rect x="1" y="1" width="255" height="255" fill="white" stroke-width="0"/></g>
</g>
		<g id="id2:id2:id2" transform="matrix(1.0,0,0,1.0,2048,0.0)">			<g stroke="white" stroke-width="4" transform="scale(4, 4)"> <rect x="1" y="1" width="255" height="255" fill="white" stroke-width="0"/></g>
</g>
		<g id="id2:id3:id3" transform="matrix(1.0,0,0,1.0,3072,0.0)">			<g stroke="white" stroke-width="4" transform="scale(4, 4)"> <rect x="1" y="1" width="255" height="255" fill="white" stroke-width="0"/></g>
</g>
		<g id="id2:id4:id4" transform="matrix(1.0,0,0,1.0,4096,0.0)">			<g stroke="white" stroke-width="4" transform="scale(4, 4)"> <rect x="1" y="1" width="255" height="255" fill="white" stroke-width="0"/></g>
</g>
</g>
</svg>
