<?xml version="1.0" standalone="no"?>
<!DOCTYPE svg PUBLIC "-//W3C//DTD SVG 1.1//EN"
 "http://www.w3.org/Graphics/SVG/1.1/DTD/svg11.dtd">
<!-- generate by Japanese dictionary app com.asnsami.kanjidictionary -->

<svg xmlns="http://www.w3.org/2000/svg" xmlns:sodipodi="http://sodipodi.sourceforge.net/DTD/sodipodi-0.dtd" version="1.1" width="640" height="384" viewBox="0 0 5120 3072">
	<g id="id0:id0" transform="translate(0.0,0)">
		<g id="id0:id0:id0" transform="matrix(1.0,0,0,1.0,0,0.0)">			<g stroke="lightgray" stroke-width="4" transform="scale(4, 4)"> <rect x="0" y="0" width="256" height="256" fill="white" stroke-width="4"/></g>
			<g transform="scale(0.92, -0.92) translate(60, -920)">					<path d="M 300 501 Q 299 502 297 501 Q 252 501 215 501 Q 181 500 199 521 Q 263 624 324 702 Q 340 721 337 728 Q 334 743 294 776 Q 278 789 258 786 Q 246 783 253 767 Q 269 725 186 575 Q 168 541 131 509 Q 112 493 114 481 Q 118 462 133 443 Q 142 434 173 447 Q 224 468 282 475 C 312 479 330 501 300 501 Z" fill="red"></path>
				<path d="M 282 475 Q 192 349 167 337 Q 154 328 157 315 Q 158 302 184 282 Q 194 270 209 283 Q 272 326 362 356 Q 381 360 383 369 Q 386 379 366 376 Q 317 369 254 351 Q 224 341 244 365 Q 280 416 366 519 Q 394 556 418 577 Q 430 587 424 597 Q 414 616 380 634 Q 364 643 355 641 Q 345 637 348 622 Q 349 588 300 501 L 282 475 Z" fill="lightgray"></path>
				<path d="M 106 175 Q 93 171 93 161 Q 93 148 104 141 Q 129 129 164 116 Q 174 115 185 124 Q 210 152 239 172 Q 285 203 329 234 Q 347 246 358 258 Q 370 268 369 277 Q 360 283 254 232 Q 128 178 106 175 Z" fill="lightgray"></path>
				<path d="M 464 682 Q 483 661 503 636 Q 512 626 524 624 Q 531 623 537 633 Q 543 643 539 667 Q 535 691 465 720 Q 453 724 448 722 Q 444 721 444 710 Q 445 701 464 682 Z" fill="lightgray"></path>
				<path d="M 718 729 Q 702 704 668 664 Q 662 658 667 651 Q 674 650 681 653 Q 751 692 786 706 Q 802 710 800 720 Q 796 736 778 754 Q 762 772 740 775 Q 727 775 726 757 Q 727 744 718 729 Z" fill="lightgray"></path>
				<path d="M 611 547 Q 665 560 722 570 Q 761 579 767 585 Q 776 592 771 601 Q 764 611 736 619 Q 714 623 619 595 L 568 582 Q 520 573 469 568 Q 433 562 459 546 Q 501 522 553 536 Q 554 537 560 537 L 611 547 Z" fill="lightgray"></path>
				<path d="M 580 430 Q 595 436 670 442 L 700 444 Q 748 450 849 450 Q 868 451 872 459 Q 876 471 861 483 Q 804 519 750 501 Q 692 489 605 472 Q 598 471 592 469 L 541 460 Q 471 450 395 437 Q 376 434 390 419 Q 403 406 421 402 Q 440 398 455 403 Q 489 413 529 421 L 580 430 Z" fill="lightgray"></path>
				<path d="M 526 309 Q 526 310 527 310 Q 557 355 580 430 L 592 469 Q 602 508 611 547 L 619 595 Q 620 617 624 638 Q 639 744 654 783 Q 660 793 652 801 Q 636 817 604 833 Q 585 843 569 838 Q 550 832 564 816 Q 589 788 587 759 Q 581 660 568 582 L 560 537 Q 554 510 541 460 L 529 421 Q 484 301 375 211 Q 327 181 317 170 Q 313 164 328 163 Q 382 157 492 266 Q 492 267 494 268 L 526 309 Z" fill="lightgray"></path>
				<path d="M 670 442 Q 799 244 837 231 Q 918 231 967 239 Q 974 240 976 245 Q 977 249 966 256 Q 843 305 764 380 Q 733 410 700 444 C 679 465 654 467 670 442 Z" fill="lightgray"></path>
				<path d="M 546 271 Q 609 290 655 299 Q 665 300 667 297 Q 671 291 671 274 Q 671 225 661 203 Q 648 179 627 183 Q 606 190 588 200 Q 569 207 581 187 Q 615 148 631 120 Q 641 107 653 116 Q 695 138 719 255 Q 725 283 737 297 Q 747 307 741 315 Q 734 324 693 342 Q 677 349 662 338 Q 641 323 538 301 C 509 295 517 262 546 271 Z" fill="lightgray"></path>
				<path d="M 850 76 Q 837 101 813 179 Q 812 194 805 198 Q 799 201 796 184 Q 778 99 763 71 Q 738 37 642 42 Q 605 43 577 56 Q 552 69 544 85 Q 523 130 546 271 C 550 299 550 299 538 301 Q 534 305 526 309 C 506 331 490 298 494 268 Q 498 249 497 229 Q 488 66 522 30 Q 540 12 586 -4 Q 737 -41 847 34 Q 866 50 850 76 Z" fill="lightgray"></path>
</g>
		<text x="40" y="140" font-size="128" fill="#999999">1</text></g>
		<g id="id0:id1:id1" transform="matrix(1.0,0,0,1.0,1024,0.0)">			<g stroke="lightgray" stroke-width="4" transform="scale(4, 4)"> <rect x="0" y="0" width="256" height="256" fill="white" stroke-width="4"/></g>
			<g transform="scale(0.92, -0.92) translate(60, -920)">					<path d="M 300 501 Q 299 502 297 501 Q 252 501 215 501 Q 181 500 199 521 Q 263 624 324 702 Q 340 721 337 728 Q 334 743 294 776 Q 278 789 258 786 Q 246 783 253 767 Q 269 725 186 575 Q 168 541 131 509 Q 112 493 114 481 Q 118 462 133 443 Q 142 434 173 447 Q 224 468 282 475 C 312 479 330 501 300 501 Z" fill="black"></path>
				<path d="M 282 475 Q 192 349 167 337 Q 154 328 157 315 Q 158 302 184 282 Q 194 270 209 283 Q 272 326 362 356 Q 381 360 383 369 Q 386 379 366 376 Q 317 369 254 351 Q 224 341 244 365 Q 280 416 366 519 Q 394 556 418 577 Q 430 587 424 597 Q 414 616 380 634 Q 364 643 355 641 Q 345 637 348 622 Q 349 588 300 501 L 282 475 Z" fill="red"></path>
				<path d="M 106 175 Q 93 171 93 161 Q 93 148 104 141 Q 129 129 164 116 Q 174 115 185 124 Q 210 152 239 172 Q 285 203 329 234 Q 347 246 358 258 Q 370 268 369 277 Q 360 283 254 232 Q 128 178 106 175 Z" fill="lightgray"></path>
				<path d="M 464 682 Q 483 661 503 636 Q 512 626 524 624 Q 531 623 537 633 Q 543 643 539 667 Q 535 691 465 720 Q 453 724 448 722 Q 444 721 444 710 Q 445 701 464 682 Z" fill="lightgray"></path>
				<path d="M 718 729 Q 702 704 668 664 Q 662 658 667 651 Q 674 650 681 653 Q 751 692 786 706 Q 802 710 800 720 Q 796 736 778 754 Q 762 772 740 775 Q 727 775 726 757 Q 727 744 718 729 Z" fill="lightgray"></path>
				<path d="M 611 547 Q 665 560 722 570 Q 761 579 767 585 Q 776 592 771 601 Q 764 611 736 619 Q 714 623 619 595 L 568 582 Q 520 573 469 568 Q 433 562 459 546 Q 501 522 553 536 Q 554 537 560 537 L 611 547 Z" fill="lightgray"></path>
				<path d="M 580 430 Q 595 436 670 442 L 700 444 Q 748 450 849 450 Q 868 451 872 459 Q 876 471 861 483 Q 804 519 750 501 Q 692 489 605 472 Q 598 471 592 469 L 541 460 Q 471 450 395 437 Q 376 434 390 419 Q 403 406 421 402 Q 440 398 455 403 Q 489 413 529 421 L 580 430 Z" fill="lightgray"></path>
				<path d="M 526 309 Q 526 310 527 310 Q 557 355 580 430 L 592 469 Q 602 508 611 547 L 619 595 Q 620 617 624 638 Q 639 744 654 783 Q 660 793 652 801 Q 636 817 604 833 Q 585 843 569 838 Q 550 832 564 816 Q 589 788 587 759 Q 581 660 568 582 L 560 537 Q 554 510 541 460 L 529 421 Q 484 301 375 211 Q 327 181 317 170 Q 313 164 328 163 Q 382 157 492 266 Q 492 267 494 268 L 526 309 Z" fill="lightgray"></path>
				<path d="M 670 442 Q 799 244 837 231 Q 918 231 967 239 Q 974 240 976 245 Q 977 249 966 256 Q 843 305 764 380 Q 733 410 700 444 C 679 465 654 467 670 442 Z" fill="lightgray"></path>
				<path d="M 546 271 Q 609 290 655 299 Q 665 300 667 297 Q 671 291 671 274 Q 671 225 661 203 Q 648 179 627 183 Q 606 190 588 200 Q 569 207 581 187 Q 615 148 631 120 Q 641 107 653 116 Q 695 138 719 255 Q 725 283 737 297 Q 747 307 741 315 Q 734 324 693 342 Q 677 349 662 338 Q 641 323 538 301 C 509 295 517 262 546 271 Z" fill="lightgray"></path>
				<path d="M 850 76 Q 837 101 813 179 Q 812 194 805 198 Q 799 201 796 184 Q 778 99 763 71 Q 738 37 642 42 Q 605 43 577 56 Q 552 69 544 85 Q 523 130 546 271 C 550 299 550 299 538 301 Q 534 305 526 309 C 506 331 490 298 494 268 Q 498 249 497 229 Q 488 66 522 30 Q 540 12 586 -4 Q 737 -41 847 34 Q 866 50 850 76 Z" fill="lightgray"></path>
</g>
		<text x="40" y="140" font-size="128" fill="#999999">2</text></g>
		<g id="id0:id2:id2" transform="matrix(1.0,0,0,1.0,2048,0.0)">			<g stroke="lightgray" stroke-width="4" transform="scale(4, 4)"> <rect x="0" y="0" width="256" height="256" fill="white" stroke-width="4"/></g>
			<g transform="scale(0.92, -0.92) translate(60, -920)">					<path d="M 300 501 Q 299 502 297 501 Q 252 501 215 501 Q 181 500 199 521 Q 263 624 324 702 Q 340 721 337 728 Q 334 743 294 776 Q 278 789 258 786 Q 246 783 253 767 Q 269 725 186 575 Q 168 541 131 509 Q 112 493 114 481 Q 118 462 133 443 Q 142 434 173 447 Q 224 468 282 475 C 312 479 330 501 300 501 Z" fill="black"></path>
				<path d="M 282 475 Q 192 349 167 337 Q 154 328 157 315 Q 158 302 184 282 Q 194 270 209 283 Q 272 326 362 356 Q 381 360 383 369 Q 386 379 366 376 Q 317 369 254 351 Q 224 341 244 365 Q 280 416 366 519 Q 394 556 418 577 Q 430 587 424 597 Q 414 616 380 634 Q 364 643 355 641 Q 345 637 348 622 Q 349 588 300 501 L 282 475 Z" fill="black"></path>
				<path d="M 106 175 Q 93 171 93 161 Q 93 148 104 141 Q 129 129 164 116 Q 174 115 185 124 Q 210 152 239 172 Q 285 203 329 234 Q 347 246 358 258 Q 370 268 369 277 Q 360 283 254 232 Q 128 178 106 175 Z" fill="red"></path>
				<path d="M 464 682 Q 483 661 503 636 Q 512 626 524 624 Q 531 623 537 633 Q 543 643 539 667 Q 535 691 465 720 Q 453 724 448 722 Q 444 721 444 710 Q 445 701 464 682 Z" fill="lightgray"></path>
				<path d="M 718 729 Q 702 704 668 664 Q 662 658 667 651 Q 674 650 681 653 Q 751 692 786 706 Q 802 710 800 720 Q 796 736 778 754 Q 762 772 740 775 Q 727 775 726 757 Q 727 744 718 729 Z" fill="lightgray"></path>
				<path d="M 611 547 Q 665 560 722 570 Q 761 579 767 585 Q 776 592 771 601 Q 764 611 736 619 Q 714 623 619 595 L 568 582 Q 520 573 469 568 Q 433 562 459 546 Q 501 522 553 536 Q 554 537 560 537 L 611 547 Z" fill="lightgray"></path>
				<path d="M 580 430 Q 595 436 670 442 L 700 444 Q 748 450 849 450 Q 868 451 872 459 Q 876 471 861 483 Q 804 519 750 501 Q 692 489 605 472 Q 598 471 592 469 L 541 460 Q 471 450 395 437 Q 376 434 390 419 Q 403 406 421 402 Q 440 398 455 403 Q 489 413 529 421 L 580 430 Z" fill="lightgray"></path>
				<path d="M 526 309 Q 526 310 527 310 Q 557 355 580 430 L 592 469 Q 602 508 611 547 L 619 595 Q 620 617 624 638 Q 639 744 654 783 Q 660 793 652 801 Q 636 817 604 833 Q 585 843 569 838 Q 550 832 564 816 Q 589 788 587 759 Q 581 660 568 582 L 560 537 Q 554 510 541 460 L 529 421 Q 484 301 375 211 Q 327 181 317 170 Q 313 164 328 163 Q 382 157 492 266 Q 492 267 494 268 L 526 309 Z" fill="lightgray"></path>
				<path d="M 670 442 Q 799 244 837 231 Q 918 231 967 239 Q 974 240 976 245 Q 977 249 966 256 Q 843 305 764 380 Q 733 410 700 444 C 679 465 654 467 670 442 Z" fill="lightgray"></path>
				<path d="M 546 271 Q 609 290 655 299 Q 665 300 667 297 Q 671 291 671 274 Q 671 225 661 203 Q 648 179 627 183 Q 606 190 588 200 Q 569 207 581 187 Q 615 148 631 120 Q 641 107 653 116 Q 695 138 719 255 Q 725 283 737 297 Q 747 307 741 315 Q 734 324 693 342 Q 677 349 662 338 Q 641 323 538 301 C 509 295 517 262 546 271 Z" fill="lightgray"></path>
				<path d="M 850 76 Q 837 101 813 179 Q 812 194 805 198 Q 799 201 796 184 Q 778 99 763 71 Q 738 37 642 42 Q 605 43 577 56 Q 552 69 544 85 Q 523 130 546 271 C 550 299 550 299 538 301 Q 534 305 526 309 C 506 331 490 298 494 268 Q 498 249 497 229 Q 488 66 522 30 Q 540 12 586 -4 Q 737 -41 847 34 Q 866 50 850 76 Z" fill="lightgray"></path>
</g>
		<text x="40" y="140" font-size="128" fill="#999999">3</text></g>
		<g id="id0:id3:id3" transform="matrix(1.0,0,0,1.0,3072,0.0)">			<g stroke="lightgray" stroke-width="4" transform="scale(4, 4)"> <rect x="0" y="0" width="256" height="256" fill="white" stroke-width="4"/></g>
			<g transform="scale(0.92, -0.92) translate(60, -920)">					<path d="M 300 501 Q 299 502 297 501 Q 252 501 215 501 Q 181 500 199 521 Q 263 624 324 702 Q 340 721 337 728 Q 334 743 294 776 Q 278 789 258 786 Q 246 783 253 767 Q 269 725 186 575 Q 168 541 131 509 Q 112 493 114 481 Q 118 462 133 443 Q 142 434 173 447 Q 224 468 282 475 C 312 479 330 501 300 501 Z" fill="black"></path>
				<path d="M 282 475 Q 192 349 167 337 Q 154 328 157 315 Q 158 302 184 282 Q 194 270 209 283 Q 272 326 362 356 Q 381 360 383 369 Q 386 379 366 376 Q 317 369 254 351 Q 224 341 244 365 Q 280 416 366 519 Q 394 556 418 577 Q 430 587 424 597 Q 414 616 380 634 Q 364 643 355 641 Q 345 637 348 622 Q 349 588 300 501 L 282 475 Z" fill="black"></path>
				<path d="M 106 175 Q 93 171 93 161 Q 93 148 104 141 Q 129 129 164 116 Q 174 115 185 124 Q 210 152 239 172 Q 285 203 329 234 Q 347 246 358 258 Q 370 268 369 277 Q 360 283 254 232 Q 128 178 106 175 Z" fill="black"></path>
				<path d="M 464 682 Q 483 661 503 636 Q 512 626 524 624 Q 531 623 537 633 Q 543 643 539 667 Q 535 691 465 720 Q 453 724 448 722 Q 444 721 444 710 Q 445 701 464 682 Z" fill="red"></path>
				<path d="M 718 729 Q 702 704 668 664 Q 662 658 667 651 Q 674 650 681 653 Q 751 692 786 706 Q 802 710 800 720 Q 796 736 778 754 Q 762 772 740 775 Q 727 775 726 757 Q 727 744 718 729 Z" fill="lightgray"></path>
				<path d="M 611 547 Q 665 560 722 570 Q 761 579 767 585 Q 776 592 771 601 Q 764 611 736 619 Q 714 623 619 595 L 568 582 Q 520 573 469 568 Q 433 562 459 546 Q 501 522 553 536 Q 554 537 560 537 L 611 547 Z" fill="lightgray"></path>
				<path d="M 580 430 Q 595 436 670 442 L 700 444 Q 748 450 849 450 Q 868 451 872 459 Q 876 471 861 483 Q 804 519 750 501 Q 692 489 605 472 Q 598 471 592 469 L 541 460 Q 471 450 395 437 Q 376 434 390 419 Q 403 406 421 402 Q 440 398 455 403 Q 489 413 529 421 L 580 430 Z" fill="lightgray"></path>
				<path d="M 526 309 Q 526 310 527 310 Q 557 355 580 430 L 592 469 Q 602 508 611 547 L 619 595 Q 620 617 624 638 Q 639 744 654 783 Q 660 793 652 801 Q 636 817 604 833 Q 585 843 569 838 Q 550 832 564 816 Q 589 788 587 759 Q 581 660 568 582 L 560 537 Q 554 510 541 460 L 529 421 Q 484 301 375 211 Q 327 181 317 170 Q 313 164 328 163 Q 382 157 492 266 Q 492 267 494 268 L 526 309 Z" fill="lightgray"></path>
				<path d="M 670 442 Q 799 244 837 231 Q 918 231 967 239 Q 974 240 976 245 Q 977 249 966 256 Q 843 305 764 380 Q 733 410 700 444 C 679 465 654 467 670 442 Z" fill="lightgray"></path>
				<path d="M 546 271 Q 609 290 655 299 Q 665 300 667 297 Q 671 291 671 274 Q 671 225 661 203 Q 648 179 627 183 Q 606 190 588 200 Q 569 207 581 187 Q 615 148 631 120 Q 641 107 653 116 Q 695 138 719 255 Q 725 283 737 297 Q 747 307 741 315 Q 734 324 693 342 Q 677 349 662 338 Q 641 323 538 301 C 509 295 517 262 546 271 Z" fill="lightgray"></path>
				<path d="M 850 76 Q 837 101 813 179 Q 812 194 805 198 Q 799 201 796 184 Q 778 99 763 71 Q 738 37 642 42 Q 605 43 577 56 Q 552 69 544 85 Q 523 130 546 271 C 550 299 550 299 538 301 Q 534 305 526 309 C 506 331 490 298 494 268 Q 498 249 497 229 Q 488 66 522 30 Q 540 12 586 -4 Q 737 -41 847 34 Q 866 50 850 76 Z" fill="lightgray"></path>
</g>
		<text x="40" y="140" font-size="128" fill="#999999">4</text></g>
		<g id="id0:id4:id4" transform="matrix(1.0,0,0,1.0,4096,0.0)">			<g stroke="lightgray" stroke-width="4" transform="scale(4, 4)"> <rect x="0" y="0" width="256" height="256" fill="white" stroke-width="4"/></g>
			<g transform="scale(0.92, -0.92) translate(60, -920)">					<path d="M 300 501 Q 299 502 297 501 Q 252 501 215 501 Q 181 500 199 521 Q 263 624 324 702 Q 340 721 337 728 Q 334 743 294 776 Q 278 789 258 786 Q 246 783 253 767 Q 269 725 186 575 Q 168 541 131 509 Q 112 493 114 481 Q 118 462 133 443 Q 142 434 173 447 Q 224 468 282 475 C 312 479 330 501 300 501 Z" fill="black"></path>
				<path d="M 282 475 Q 192 349 167 337 Q 154 328 157 315 Q 158 302 184 282 Q 194 270 209 283 Q 272 326 362 356 Q 381 360 383 369 Q 386 379 366 376 Q 317 369 254 351 Q 224 341 244 365 Q 280 416 366 519 Q 394 556 418 577 Q 430 587 424 597 Q 414 616 380 634 Q 364 643 355 641 Q 345 637 348 622 Q 349 588 300 501 L 282 475 Z" fill="black"></path>
				<path d="M 106 175 Q 93 171 93 161 Q 93 148 104 141 Q 129 129 164 116 Q 174 115 185 124 Q 210 152 239 172 Q 285 203 329 234 Q 347 246 358 258 Q 370 268 369 277 Q 360 283 254 232 Q 128 178 106 175 Z" fill="black"></path>
				<path d="M 464 682 Q 483 661 503 636 Q 512 626 524 624 Q 531 623 537 633 Q 543 643 539 667 Q 535 691 465 720 Q 453 724 448 722 Q 444 721 444 710 Q 445 701 464 682 Z" fill="black"></path>
				<path d="M 718 729 Q 702 704 668 664 Q 662 658 667 651 Q 674 650 681 653 Q 751 692 786 706 Q 802 710 800 720 Q 796 736 778 754 Q 762 772 740 775 Q 727 775 726 757 Q 727 744 718 729 Z" fill="red"></path>
				<path d="M 611 547 Q 665 560 722 570 Q 761 579 767 585 Q 776 592 771 601 Q 764 611 736 619 Q 714 623 619 595 L 568 582 Q 520 573 469 568 Q 433 562 459 546 Q 501 522 553 536 Q 554 537 560 537 L 611 547 Z" fill="lightgray"></path>
				<path d="M 580 430 Q 595 436 670 442 L 700 444 Q 748 450 849 450 Q 868 451 872 459 Q 876 471 861 483 Q 804 519 750 501 Q 692 489 605 472 Q 598 471 592 469 L 541 460 Q 471 450 395 437 Q 376 434 390 419 Q 403 406 421 402 Q 440 398 455 403 Q 489 413 529 421 L 580 430 Z" fill="lightgray"></path>
				<path d="M 526 309 Q 526 310 527 310 Q 557 355 580 430 L 592 469 Q 602 508 611 547 L 619 595 Q 620 617 624 638 Q 639 744 654 783 Q 660 793 652 801 Q 636 817 604 833 Q 585 843 569 838 Q 550 832 564 816 Q 589 788 587 759 Q 581 660 568 582 L 560 537 Q 554 510 541 460 L 529 421 Q 484 301 375 211 Q 327 181 317 170 Q 313 164 328 163 Q 382 157 492 266 Q 492 267 494 268 L 526 309 Z" fill="lightgray"></path>
				<path d="M 670 442 Q 799 244 837 231 Q 918 231 967 239 Q 974 240 976 245 Q 977 249 966 256 Q 843 305 764 380 Q 733 410 700 444 C 679 465 654 467 670 442 Z" fill="lightgray"></path>
				<path d="M 546 271 Q 609 290 655 299 Q 665 300 667 297 Q 671 291 671 274 Q 671 225 661 203 Q 648 179 627 183 Q 606 190 588 200 Q 569 207 581 187 Q 615 148 631 120 Q 641 107 653 116 Q 695 138 719 255 Q 725 283 737 297 Q 747 307 741 315 Q 734 324 693 342 Q 677 349 662 338 Q 641 323 538 301 C 509 295 517 262 546 271 Z" fill="lightgray"></path>
				<path d="M 850 76 Q 837 101 813 179 Q 812 194 805 198 Q 799 201 796 184 Q 778 99 763 71 Q 738 37 642 42 Q 605 43 577 56 Q 552 69 544 85 Q 523 130 546 271 C 550 299 550 299 538 301 Q 534 305 526 309 C 506 331 490 298 494 268 Q 498 249 497 229 Q 488 66 522 30 Q 540 12 586 -4 Q 737 -41 847 34 Q 866 50 850 76 Z" fill="lightgray"></path>
</g>
		<text x="40" y="140" font-size="128" fill="#999999">5</text></g>
</g>
	<g id="id1:id1" transform="translate(0.0,1024)">
		<g id="id1:id0:id0" transform="matrix(1.0,0,0,1.0,0,0.0)">			<g stroke="lightgray" stroke-width="4" transform="scale(4, 4)"> <rect x="0" y="0" width="256" height="256" fill="white" stroke-width="4"/></g>
			<g transform="scale(0.92, -0.92) translate(60, -920)">					<path d="M 300 501 Q 299 502 297 501 Q 252 501 215 501 Q 181 500 199 521 Q 263 624 324 702 Q 340 721 337 728 Q 334 743 294 776 Q 278 789 258 786 Q 246 783 253 767 Q 269 725 186 575 Q 168 541 131 509 Q 112 493 114 481 Q 118 462 133 443 Q 142 434 173 447 Q 224 468 282 475 C 312 479 330 501 300 501 Z" fill="black"></path>
				<path d="M 282 475 Q 192 349 167 337 Q 154 328 157 315 Q 158 302 184 282 Q 194 270 209 283 Q 272 326 362 356 Q 381 360 383 369 Q 386 379 366 376 Q 317 369 254 351 Q 224 341 244 365 Q 280 416 366 519 Q 394 556 418 577 Q 430 587 424 597 Q 414 616 380 634 Q 364 643 355 641 Q 345 637 348 622 Q 349 588 300 501 L 282 475 Z" fill="black"></path>
				<path d="M 106 175 Q 93 171 93 161 Q 93 148 104 141 Q 129 129 164 116 Q 174 115 185 124 Q 210 152 239 172 Q 285 203 329 234 Q 347 246 358 258 Q 370 268 369 277 Q 360 283 254 232 Q 128 178 106 175 Z" fill="black"></path>
				<path d="M 464 682 Q 483 661 503 636 Q 512 626 524 624 Q 531 623 537 633 Q 543 643 539 667 Q 535 691 465 720 Q 453 724 448 722 Q 444 721 444 710 Q 445 701 464 682 Z" fill="black"></path>
				<path d="M 718 729 Q 702 704 668 664 Q 662 658 667 651 Q 674 650 681 653 Q 751 692 786 706 Q 802 710 800 720 Q 796 736 778 754 Q 762 772 740 775 Q 727 775 726 757 Q 727 744 718 729 Z" fill="black"></path>
				<path d="M 611 547 Q 665 560 722 570 Q 761 579 767 585 Q 776 592 771 601 Q 764 611 736 619 Q 714 623 619 595 L 568 582 Q 520 573 469 568 Q 433 562 459 546 Q 501 522 553 536 Q 554 537 560 537 L 611 547 Z" fill="red"></path>
				<path d="M 580 430 Q 595 436 670 442 L 700 444 Q 748 450 849 450 Q 868 451 872 459 Q 876 471 861 483 Q 804 519 750 501 Q 692 489 605 472 Q 598 471 592 469 L 541 460 Q 471 450 395 437 Q 376 434 390 419 Q 403 406 421 402 Q 440 398 455 403 Q 489 413 529 421 L 580 430 Z" fill="lightgray"></path>
				<path d="M 526 309 Q 526 310 527 310 Q 557 355 580 430 L 592 469 Q 602 508 611 547 L 619 595 Q 620 617 624 638 Q 639 744 654 783 Q 660 793 652 801 Q 636 817 604 833 Q 585 843 569 838 Q 550 832 564 816 Q 589 788 587 759 Q 581 660 568 582 L 560 537 Q 554 510 541 460 L 529 421 Q 484 301 375 211 Q 327 181 317 170 Q 313 164 328 163 Q 382 157 492 266 Q 492 267 494 268 L 526 309 Z" fill="lightgray"></path>
				<path d="M 670 442 Q 799 244 837 231 Q 918 231 967 239 Q 974 240 976 245 Q 977 249 966 256 Q 843 305 764 380 Q 733 410 700 444 C 679 465 654 467 670 442 Z" fill="lightgray"></path>
				<path d="M 546 271 Q 609 290 655 299 Q 665 300 667 297 Q 671 291 671 274 Q 671 225 661 203 Q 648 179 627 183 Q 606 190 588 200 Q 569 207 581 187 Q 615 148 631 120 Q 641 107 653 116 Q 695 138 719 255 Q 725 283 737 297 Q 747 307 741 315 Q 734 324 693 342 Q 677 349 662 338 Q 641 323 538 301 C 509 295 517 262 546 271 Z" fill="lightgray"></path>
				<path d="M 850 76 Q 837 101 813 179 Q 812 194 805 198 Q 799 201 796 184 Q 778 99 763 71 Q 738 37 642 42 Q 605 43 577 56 Q 552 69 544 85 Q 523 130 546 271 C 550 299 550 299 538 301 Q 534 305 526 309 C 506 331 490 298 494 268 Q 498 249 497 229 Q 488 66 522 30 Q 540 12 586 -4 Q 737 -41 847 34 Q 866 50 850 76 Z" fill="lightgray"></path>
</g>
		<text x="40" y="140" font-size="128" fill="#999999">6</text></g>
		<g id="id1:id1:id1" transform="matrix(1.0,0,0,1.0,1024,0.0)">			<g stroke="lightgray" stroke-width="4" transform="scale(4, 4)"> <rect x="0" y="0" width="256" height="256" fill="white" stroke-width="4"/></g>
			<g transform="scale(0.92, -0.92) translate(60, -920)">					<path d="M 300 501 Q 299 502 297 501 Q 252 501 215 501 Q 181 500 199 521 Q 263 624 324 702 Q 340 721 337 728 Q 334 743 294 776 Q 278 789 258 786 Q 246 783 253 767 Q 269 725 186 575 Q 168 541 131 509 Q 112 493 114 481 Q 118 462 133 443 Q 142 434 173 447 Q 224 468 282 475 C 312 479 330 501 300 501 Z" fill="black"></path>
				<path d="M 282 475 Q 192 349 167 337 Q 154 328 157 315 Q 158 302 184 282 Q 194 270 209 283 Q 272 326 362 356 Q 381 360 383 369 Q 386 379 366 376 Q 317 369 254 351 Q 224 341 244 365 Q 280 416 366 519 Q 394 556 418 577 Q 430 587 424 597 Q 414 616 380 634 Q 364 643 355 641 Q 345 637 348 622 Q 349 588 300 501 L 282 475 Z" fill="black"></path>
				<path d="M 106 175 Q 93 171 93 161 Q 93 148 104 141 Q 129 129 164 116 Q 174 115 185 124 Q 210 152 239 172 Q 285 203 329 234 Q 347 246 358 258 Q 370 268 369 277 Q 360 283 254 232 Q 128 178 106 175 Z" fill="black"></path>
				<path d="M 464 682 Q 483 661 503 636 Q 512 626 524 624 Q 531 623 537 633 Q 543 643 539 667 Q 535 691 465 720 Q 453 724 448 722 Q 444 721 444 710 Q 445 701 464 682 Z" fill="black"></path>
				<path d="M 718 729 Q 702 704 668 664 Q 662 658 667 651 Q 674 650 681 653 Q 751 692 786 706 Q 802 710 800 720 Q 796 736 778 754 Q 762 772 740 775 Q 727 775 726 757 Q 727 744 718 729 Z" fill="black"></path>
				<path d="M 611 547 Q 665 560 722 570 Q 761 579 767 585 Q 776 592 771 601 Q 764 611 736 619 Q 714 623 619 595 L 568 582 Q 520 573 469 568 Q 433 562 459 546 Q 501 522 553 536 Q 554 537 560 537 L 611 547 Z" fill="black"></path>
				<path d="M 580 430 Q 595 436 670 442 L 700 444 Q 748 450 849 450 Q 868 451 872 459 Q 876 471 861 483 Q 804 519 750 501 Q 692 489 605 472 Q 598 471 592 469 L 541 460 Q 471 450 395 437 Q 376 434 390 419 Q 403 406 421 402 Q 440 398 455 403 Q 489 413 529 421 L 580 430 Z" fill="red"></path>
				<path d="M 526 309 Q 526 310 527 310 Q 557 355 580 430 L 592 469 Q 602 508 611 547 L 619 595 Q 620 617 624 638 Q 639 744 654 783 Q 660 793 652 801 Q 636 817 604 833 Q 585 843 569 838 Q 550 832 564 816 Q 589 788 587 759 Q 581 660 568 582 L 560 537 Q 554 510 541 460 L 529 421 Q 484 301 375 211 Q 327 181 317 170 Q 313 164 328 163 Q 382 157 492 266 Q 492 267 494 268 L 526 309 Z" fill="lightgray"></path>
				<path d="M 670 442 Q 799 244 837 231 Q 918 231 967 239 Q 974 240 976 245 Q 977 249 966 256 Q 843 305 764 380 Q 733 410 700 444 C 679 465 654 467 670 442 Z" fill="lightgray"></path>
				<path d="M 546 271 Q 609 290 655 299 Q 665 300 667 297 Q 671 291 671 274 Q 671 225 661 203 Q 648 179 627 183 Q 606 190 588 200 Q 569 207 581 187 Q 615 148 631 120 Q 641 107 653 116 Q 695 138 719 255 Q 725 283 737 297 Q 747 307 741 315 Q 734 324 693 342 Q 677 349 662 338 Q 641 323 538 301 C 509 295 517 262 546 271 Z" fill="lightgray"></path>
				<path d="M 850 76 Q 837 101 813 179 Q 812 194 805 198 Q 799 201 796 184 Q 778 99 763 71 Q 738 37 642 42 Q 605 43 577 56 Q 552 69 544 85 Q 523 130 546 271 C 550 299 550 299 538 301 Q 534 305 526 309 C 506 331 490 298 494 268 Q 498 249 497 229 Q 488 66 522 30 Q 540 12 586 -4 Q 737 -41 847 34 Q 866 50 850 76 Z" fill="lightgray"></path>
</g>
		<text x="40" y="140" font-size="128" fill="#999999">7</text></g>
		<g id="id1:id2:id2" transform="matrix(1.0,0,0,1.0,2048,0.0)">			<g stroke="lightgray" stroke-width="4" transform="scale(4, 4)"> <rect x="0" y="0" width="256" height="256" fill="white" stroke-width="4"/></g>
			<g transform="scale(0.92, -0.92) translate(60, -920)">					<path d="M 300 501 Q 299 502 297 501 Q 252 501 215 501 Q 181 500 199 521 Q 263 624 324 702 Q 340 721 337 728 Q 334 743 294 776 Q 278 789 258 786 Q 246 783 253 767 Q 269 725 186 575 Q 168 541 131 509 Q 112 493 114 481 Q 118 462 133 443 Q 142 434 173 447 Q 224 468 282 475 C 312 479 330 501 300 501 Z" fill="black"></path>
				<path d="M 282 475 Q 192 349 167 337 Q 154 328 157 315 Q 158 302 184 282 Q 194 270 209 283 Q 272 326 362 356 Q 381 360 383 369 Q 386 379 366 376 Q 317 369 254 351 Q 224 341 244 365 Q 280 416 366 519 Q 394 556 418 577 Q 430 587 424 597 Q 414 616 380 634 Q 364 643 355 641 Q 345 637 348 622 Q 349 588 300 501 L 282 475 Z" fill="black"></path>
				<path d="M 106 175 Q 93 171 93 161 Q 93 148 104 141 Q 129 129 164 116 Q 174 115 185 124 Q 210 152 239 172 Q 285 203 329 234 Q 347 246 358 258 Q 370 268 369 277 Q 360 283 254 232 Q 128 178 106 175 Z" fill="black"></path>
				<path d="M 464 682 Q 483 661 503 636 Q 512 626 524 624 Q 531 623 537 633 Q 543 643 539 667 Q 535 691 465 720 Q 453 724 448 722 Q 444 721 444 710 Q 445 701 464 682 Z" fill="black"></path>
				<path d="M 718 729 Q 702 704 668 664 Q 662 658 667 651 Q 674 650 681 653 Q 751 692 786 706 Q 802 710 800 720 Q 796 736 778 754 Q 762 772 740 775 Q 727 775 726 757 Q 727 744 718 729 Z" fill="black"></path>
				<path d="M 611 547 Q 665 560 722 570 Q 761 579 767 585 Q 776 592 771 601 Q 764 611 736 619 Q 714 623 619 595 L 568 582 Q 520 573 469 568 Q 433 562 459 546 Q 501 522 553 536 Q 554 537 560 537 L 611 547 Z" fill="black"></path>
				<path d="M 580 430 Q 595 436 670 442 L 700 444 Q 748 450 849 450 Q 868 451 872 459 Q 876 471 861 483 Q 804 519 750 501 Q 692 489 605 472 Q 598 471 592 469 L 541 460 Q 471 450 395 437 Q 376 434 390 419 Q 403 406 421 402 Q 440 398 455 403 Q 489 413 529 421 L 580 430 Z" fill="black"></path>
				<path d="M 526 309 Q 526 310 527 310 Q 557 355 580 430 L 592 469 Q 602 508 611 547 L 619 595 Q 620 617 624 638 Q 639 744 654 783 Q 660 793 652 801 Q 636 817 604 833 Q 585 843 569 838 Q 550 832 564 816 Q 589 788 587 759 Q 581 660 568 582 L 560 537 Q 554 510 541 460 L 529 421 Q 484 301 375 211 Q 327 181 317 170 Q 313 164 328 163 Q 382 157 492 266 Q 492 267 494 268 L 526 309 Z" fill="red"></path>
				<path d="M 670 442 Q 799 244 837 231 Q 918 231 967 239 Q 974 240 976 245 Q 977 249 966 256 Q 843 305 764 380 Q 733 410 700 444 C 679 465 654 467 670 442 Z" fill="lightgray"></path>
				<path d="M 546 271 Q 609 290 655 299 Q 665 300 667 297 Q 671 291 671 274 Q 671 225 661 203 Q 648 179 627 183 Q 606 190 588 200 Q 569 207 581 187 Q 615 148 631 120 Q 641 107 653 116 Q 695 138 719 255 Q 725 283 737 297 Q 747 307 741 315 Q 734 324 693 342 Q 677 349 662 338 Q 641 323 538 301 C 509 295 517 262 546 271 Z" fill="lightgray"></path>
				<path d="M 850 76 Q 837 101 813 179 Q 812 194 805 198 Q 799 201 796 184 Q 778 99 763 71 Q 738 37 642 42 Q 605 43 577 56 Q 552 69 544 85 Q 523 130 546 271 C 550 299 550 299 538 301 Q 534 305 526 309 C 506 331 490 298 494 268 Q 498 249 497 229 Q 488 66 522 30 Q 540 12 586 -4 Q 737 -41 847 34 Q 866 50 850 76 Z" fill="lightgray"></path>
</g>
		<text x="40" y="140" font-size="128" fill="#999999">8</text></g>
		<g id="id1:id3:id3" transform="matrix(1.0,0,0,1.0,3072,0.0)">			<g stroke="lightgray" stroke-width="4" transform="scale(4, 4)"> <rect x="0" y="0" width="256" height="256" fill="white" stroke-width="4"/></g>
			<g transform="scale(0.92, -0.92) translate(60, -920)">					<path d="M 300 501 Q 299 502 297 501 Q 252 501 215 501 Q 181 500 199 521 Q 263 624 324 702 Q 340 721 337 728 Q 334 743 294 776 Q 278 789 258 786 Q 246 783 253 767 Q 269 725 186 575 Q 168 541 131 509 Q 112 493 114 481 Q 118 462 133 443 Q 142 434 173 447 Q 224 468 282 475 C 312 479 330 501 300 501 Z" fill="black"></path>
				<path d="M 282 475 Q 192 349 167 337 Q 154 328 157 315 Q 158 302 184 282 Q 194 270 209 283 Q 272 326 362 356 Q 381 360 383 369 Q 386 379 366 376 Q 317 369 254 351 Q 224 341 244 365 Q 280 416 366 519 Q 394 556 418 577 Q 430 587 424 597 Q 414 616 380 634 Q 364 643 355 641 Q 345 637 348 622 Q 349 588 300 501 L 282 475 Z" fill="black"></path>
				<path d="M 106 175 Q 93 171 93 161 Q 93 148 104 141 Q 129 129 164 116 Q 174 115 185 124 Q 210 152 239 172 Q 285 203 329 234 Q 347 246 358 258 Q 370 268 369 277 Q 360 283 254 232 Q 128 178 106 175 Z" fill="black"></path>
				<path d="M 464 682 Q 483 661 503 636 Q 512 626 524 624 Q 531 623 537 633 Q 543 643 539 667 Q 535 691 465 720 Q 453 724 448 722 Q 444 721 444 710 Q 445 701 464 682 Z" fill="black"></path>
				<path d="M 718 729 Q 702 704 668 664 Q 662 658 667 651 Q 674 650 681 653 Q 751 692 786 706 Q 802 710 800 720 Q 796 736 778 754 Q 762 772 740 775 Q 727 775 726 757 Q 727 744 718 729 Z" fill="black"></path>
				<path d="M 611 547 Q 665 560 722 570 Q 761 579 767 585 Q 776 592 771 601 Q 764 611 736 619 Q 714 623 619 595 L 568 582 Q 520 573 469 568 Q 433 562 459 546 Q 501 522 553 536 Q 554 537 560 537 L 611 547 Z" fill="black"></path>
				<path d="M 580 430 Q 595 436 670 442 L 700 444 Q 748 450 849 450 Q 868 451 872 459 Q 876 471 861 483 Q 804 519 750 501 Q 692 489 605 472 Q 598 471 592 469 L 541 460 Q 471 450 395 437 Q 376 434 390 419 Q 403 406 421 402 Q 440 398 455 403 Q 489 413 529 421 L 580 430 Z" fill="black"></path>
				<path d="M 526 309 Q 526 310 527 310 Q 557 355 580 430 L 592 469 Q 602 508 611 547 L 619 595 Q 620 617 624 638 Q 639 744 654 783 Q 660 793 652 801 Q 636 817 604 833 Q 585 843 569 838 Q 550 832 564 816 Q 589 788 587 759 Q 581 660 568 582 L 560 537 Q 554 510 541 460 L 529 421 Q 484 301 375 211 Q 327 181 317 170 Q 313 164 328 163 Q 382 157 492 266 Q 492 267 494 268 L 526 309 Z" fill="black"></path>
				<path d="M 670 442 Q 799 244 837 231 Q 918 231 967 239 Q 974 240 976 245 Q 977 249 966 256 Q 843 305 764 380 Q 733 410 700 444 C 679 465 654 467 670 442 Z" fill="red"></path>
				<path d="M 546 271 Q 609 290 655 299 Q 665 300 667 297 Q 671 291 671 274 Q 671 225 661 203 Q 648 179 627 183 Q 606 190 588 200 Q 569 207 581 187 Q 615 148 631 120 Q 641 107 653 116 Q 695 138 719 255 Q 725 283 737 297 Q 747 307 741 315 Q 734 324 693 342 Q 677 349 662 338 Q 641 323 538 301 C 509 295 517 262 546 271 Z" fill="lightgray"></path>
				<path d="M 850 76 Q 837 101 813 179 Q 812 194 805 198 Q 799 201 796 184 Q 778 99 763 71 Q 738 37 642 42 Q 605 43 577 56 Q 552 69 544 85 Q 523 130 546 271 C 550 299 550 299 538 301 Q 534 305 526 309 C 506 331 490 298 494 268 Q 498 249 497 229 Q 488 66 522 30 Q 540 12 586 -4 Q 737 -41 847 34 Q 866 50 850 76 Z" fill="lightgray"></path>
</g>
		<text x="40" y="140" font-size="128" fill="#999999">9</text></g>
		<g id="id1:id4:id4" transform="matrix(1.0,0,0,1.0,4096,0.0)">			<g stroke="lightgray" stroke-width="4" transform="scale(4, 4)"> <rect x="0" y="0" width="256" height="256" fill="white" stroke-width="4"/></g>
			<g transform="scale(0.92, -0.92) translate(60, -920)">					<path d="M 300 501 Q 299 502 297 501 Q 252 501 215 501 Q 181 500 199 521 Q 263 624 324 702 Q 340 721 337 728 Q 334 743 294 776 Q 278 789 258 786 Q 246 783 253 767 Q 269 725 186 575 Q 168 541 131 509 Q 112 493 114 481 Q 118 462 133 443 Q 142 434 173 447 Q 224 468 282 475 C 312 479 330 501 300 501 Z" fill="black"></path>
				<path d="M 282 475 Q 192 349 167 337 Q 154 328 157 315 Q 158 302 184 282 Q 194 270 209 283 Q 272 326 362 356 Q 381 360 383 369 Q 386 379 366 376 Q 317 369 254 351 Q 224 341 244 365 Q 280 416 366 519 Q 394 556 418 577 Q 430 587 424 597 Q 414 616 380 634 Q 364 643 355 641 Q 345 637 348 622 Q 349 588 300 501 L 282 475 Z" fill="black"></path>
				<path d="M 106 175 Q 93 171 93 161 Q 93 148 104 141 Q 129 129 164 116 Q 174 115 185 124 Q 210 152 239 172 Q 285 203 329 234 Q 347 246 358 258 Q 370 268 369 277 Q 360 283 254 232 Q 128 178 106 175 Z" fill="black"></path>
				<path d="M 464 682 Q 483 661 503 636 Q 512 626 524 624 Q 531 623 537 633 Q 543 643 539 667 Q 535 691 465 720 Q 453 724 448 722 Q 444 721 444 710 Q 445 701 464 682 Z" fill="black"></path>
				<path d="M 718 729 Q 702 704 668 664 Q 662 658 667 651 Q 674 650 681 653 Q 751 692 786 706 Q 802 710 800 720 Q 796 736 778 754 Q 762 772 740 775 Q 727 775 726 757 Q 727 744 718 729 Z" fill="black"></path>
				<path d="M 611 547 Q 665 560 722 570 Q 761 579 767 585 Q 776 592 771 601 Q 764 611 736 619 Q 714 623 619 595 L 568 582 Q 520 573 469 568 Q 433 562 459 546 Q 501 522 553 536 Q 554 537 560 537 L 611 547 Z" fill="black"></path>
				<path d="M 580 430 Q 595 436 670 442 L 700 444 Q 748 450 849 450 Q 868 451 872 459 Q 876 471 861 483 Q 804 519 750 501 Q 692 489 605 472 Q 598 471 592 469 L 541 460 Q 471 450 395 437 Q 376 434 390 419 Q 403 406 421 402 Q 440 398 455 403 Q 489 413 529 421 L 580 430 Z" fill="black"></path>
				<path d="M 526 309 Q 526 310 527 310 Q 557 355 580 430 L 592 469 Q 602 508 611 547 L 619 595 Q 620 617 624 638 Q 639 744 654 783 Q 660 793 652 801 Q 636 817 604 833 Q 585 843 569 838 Q 550 832 564 816 Q 589 788 587 759 Q 581 660 568 582 L 560 537 Q 554 510 541 460 L 529 421 Q 484 301 375 211 Q 327 181 317 170 Q 313 164 328 163 Q 382 157 492 266 Q 492 267 494 268 L 526 309 Z" fill="black"></path>
				<path d="M 670 442 Q 799 244 837 231 Q 918 231 967 239 Q 974 240 976 245 Q 977 249 966 256 Q 843 305 764 380 Q 733 410 700 444 C 679 465 654 467 670 442 Z" fill="black"></path>
				<path d="M 546 271 Q 609 290 655 299 Q 665 300 667 297 Q 671 291 671 274 Q 671 225 661 203 Q 648 179 627 183 Q 606 190 588 200 Q 569 207 581 187 Q 615 148 631 120 Q 641 107 653 116 Q 695 138 719 255 Q 725 283 737 297 Q 747 307 741 315 Q 734 324 693 342 Q 677 349 662 338 Q 641 323 538 301 C 509 295 517 262 546 271 Z" fill="red"></path>
				<path d="M 850 76 Q 837 101 813 179 Q 812 194 805 198 Q 799 201 796 184 Q 778 99 763 71 Q 738 37 642 42 Q 605 43 577 56 Q 552 69 544 85 Q 523 130 546 271 C 550 299 550 299 538 301 Q 534 305 526 309 C 506 331 490 298 494 268 Q 498 249 497 229 Q 488 66 522 30 Q 540 12 586 -4 Q 737 -41 847 34 Q 866 50 850 76 Z" fill="lightgray"></path>
</g>
		<text x="40" y="140" font-size="128" fill="#999999">10</text></g>
</g>
	<g id="id2:id2" transform="translate(0.0,2048)">
		<g id="id2:id0:id0" transform="matrix(1.0,0,0,1.0,0,0.0)">			<g stroke="lightgray" stroke-width="4" transform="scale(4, 4)"> <rect x="0" y="0" width="256" height="256" fill="white" stroke-width="4"/></g>
			<g transform="scale(0.92, -0.92) translate(60, -920)">					<path d="M 300 501 Q 299 502 297 501 Q 252 501 215 501 Q 181 500 199 521 Q 263 624 324 702 Q 340 721 337 728 Q 334 743 294 776 Q 278 789 258 786 Q 246 783 253 767 Q 269 725 186 575 Q 168 541 131 509 Q 112 493 114 481 Q 118 462 133 443 Q 142 434 173 447 Q 224 468 282 475 C 312 479 330 501 300 501 Z" fill="black"></path>
				<path d="M 282 475 Q 192 349 167 337 Q 154 328 157 315 Q 158 302 184 282 Q 194 270 209 283 Q 272 326 362 356 Q 381 360 383 369 Q 386 379 366 376 Q 317 369 254 351 Q 224 341 244 365 Q 280 416 366 519 Q 394 556 418 577 Q 430 587 424 597 Q 414 616 380 634 Q 364 643 355 641 Q 345 637 348 622 Q 349 588 300 501 L 282 475 Z" fill="black"></path>
				<path d="M 106 175 Q 93 171 93 161 Q 93 148 104 141 Q 129 129 164 116 Q 174 115 185 124 Q 210 152 239 172 Q 285 203 329 234 Q 347 246 358 258 Q 370 268 369 277 Q 360 283 254 232 Q 128 178 106 175 Z" fill="black"></path>
				<path d="M 464 682 Q 483 661 503 636 Q 512 626 524 624 Q 531 623 537 633 Q 543 643 539 667 Q 535 691 465 720 Q 453 724 448 722 Q 444 721 444 710 Q 445 701 464 682 Z" fill="black"></path>
				<path d="M 718 729 Q 702 704 668 664 Q 662 658 667 651 Q 674 650 681 653 Q 751 692 786 706 Q 802 710 800 720 Q 796 736 778 754 Q 762 772 740 775 Q 727 775 726 757 Q 727 744 718 729 Z" fill="black"></path>
				<path d="M 611 547 Q 665 560 722 570 Q 761 579 767 585 Q 776 592 771 601 Q 764 611 736 619 Q 714 623 619 595 L 568 582 Q 520 573 469 568 Q 433 562 459 546 Q 501 522 553 536 Q 554 537 560 537 L 611 547 Z" fill="black"></path>
				<path d="M 580 430 Q 595 436 670 442 L 700 444 Q 748 450 849 450 Q 868 451 872 459 Q 876 471 861 483 Q 804 519 750 501 Q 692 489 605 472 Q 598 471 592 469 L 541 460 Q 471 450 395 437 Q 376 434 390 419 Q 403 406 421 402 Q 440 398 455 403 Q 489 413 529 421 L 580 430 Z" fill="black"></path>
				<path d="M 526 309 Q 526 310 527 310 Q 557 355 580 430 L 592 469 Q 602 508 611 547 L 619 595 Q 620 617 624 638 Q 639 744 654 783 Q 660 793 652 801 Q 636 817 604 833 Q 585 843 569 838 Q 550 832 564 816 Q 589 788 587 759 Q 581 660 568 582 L 560 537 Q 554 510 541 460 L 529 421 Q 484 301 375 211 Q 327 181 317 170 Q 313 164 328 163 Q 382 157 492 266 Q 492 267 494 268 L 526 309 Z" fill="black"></path>
				<path d="M 670 442 Q 799 244 837 231 Q 918 231 967 239 Q 974 240 976 245 Q 977 249 966 256 Q 843 305 764 380 Q 733 410 700 444 C 679 465 654 467 670 442 Z" fill="black"></path>
				<path d="M 546 271 Q 609 290 655 299 Q 665 300 667 297 Q 671 291 671 274 Q 671 225 661 203 Q 648 179 627 183 Q 606 190 588 200 Q 569 207 581 187 Q 615 148 631 120 Q 641 107 653 116 Q 695 138 719 255 Q 725 283 737 297 Q 747 307 741 315 Q 734 324 693 342 Q 677 349 662 338 Q 641 323 538 301 C 509 295 517 262 546 271 Z" fill="black"></path>
				<path d="M 850 76 Q 837 101 813 179 Q 812 194 805 198 Q 799 201 796 184 Q 778 99 763 71 Q 738 37 642 42 Q 605 43 577 56 Q 552 69 544 85 Q 523 130 546 271 C 550 299 550 299 538 301 Q 534 305 526 309 C 506 331 490 298 494 268 Q 498 249 497 229 Q 488 66 522 30 Q 540 12 586 -4 Q 737 -41 847 34 Q 866 50 850 76 Z" fill="red"></path>
</g>
		<text x="40" y="140" font-size="128" fill="#999999">11</text></g>
		<g id="id2:id1:id1" transform="matrix(1.0,0,0,1.0,1024,0.0)">			<g stroke="white" stroke-width="4" transform="scale(4, 4)"> <rect x="1" y="1" width="255" height="255" fill="white" stroke-width="0"/></g>
</g>
		<g id="id2:id2:id2" transform="matrix(1.0,0,0,1.0,2048,0.0)">			<g stroke="white" stroke-width="4" transform="scale(4, 4)"> <rect x="1" y="1" width="255" height="255" fill="white" stroke-width="0"/></g>
</g>
		<g id="id2:id3:id3" transform="matrix(1.0,0,0,1.0,3072,0.0)">			<g stroke="white" stroke-width="4" transform="scale(4, 4)"> <rect x="1" y="1" width="255" height="255" fill="white" stroke-width="0"/></g>
</g>
		<g id="id2:id4:id4" transform="matrix(1.0,0,0,1.0,4096,0.0)">			<g stroke="white" stroke-width="4" transform="scale(4, 4)"> <rect x="1" y="1" width="255" height="255" fill="white" stroke-width="0"/></g>
</g>
</g>
</svg>
