<?xml version="1.0" standalone="no"?>
<!DOCTYPE svg PUBLIC "-//W3C//DTD SVG 1.1//EN"
 "http://www.w3.org/Graphics/SVG/1.1/DTD/svg11.dtd">
<!-- generate by Japanese dictionary app com.asnsami.kanjidictionary -->

<svg xmlns="http://www.w3.org/2000/svg" xmlns:sodipodi="http://sodipodi.sourceforge.net/DTD/sodipodi-0.dtd" version="1.1" width="640" height="384" viewBox="0 0 5120 3072">
	<g id="id0:id0" transform="translate(0.0,0)">
		<g id="id0:id0:id0" transform="matrix(1.0,0,0,1.0,0,0.0)">			<g stroke="lightgray" stroke-width="4" transform="scale(4, 4)"> <rect x="0" y="0" width="256" height="256" fill="white" stroke-width="4"/></g>
			<g transform="scale(0.92, -0.92) translate(60, -920)">					<path d="M 299 690 L 278 694 L 255 700 Q 245 700 241 702 Q 228 702 227 698 Q 225 693 229 689 L 231 688 Q 232 686 240 680 Q 248 674 255 660 Q 261 651 264 636 L 280 558 Q 285 531 289 514 Q 293 496 301 489 Q 308 482 312 483 Q 317 485 322 493 L 328 505 L 339 539 L 335 578 L 335 580 Q 333 582 333 590 L 321 660 C 316 687 316 687 299 690 Z" fill="red"></path>
				<path d="M 701 534 L 714 522 Q 721 512 734 520 Q 746 528 752 544 L 786 617 Q 796 638 818 663 Q 840 687 839 693 Q 838 699 824 711 Q 808 721 781 731 Q 754 741 745 741 L 621 725 Q 526 712 517 712 L 412 700 L 299 690 C 269 687 291 656 321 660 L 358 665 Q 367 666 403 671 L 436 678 L 515 683 Q 521 685 533 685 L 553 685 L 582 689 L 685 694 Q 696 694 712 692 Q 728 688 728 669 L 726 657 Q 726 647 724 643 L 712 583 L 706 564 C 698 537 698 537 701 534 Z" fill="lightgray"></path>
				<path d="M 403 671 L 412 663 Q 420 655 425 640 L 434 604 Q 438 571 445 548 C 453 519 475 520 475 550 L 475 589 L 477 618 Q 477 635 479 641 L 479 644 Q 481 658 470 664 L 436 678 C 408 689 381 691 403 671 Z" fill="lightgray"></path>
				<path d="M 553 685 L 555 673 Q 558 651 551 614 L 547 585 L 540 560 C 532 531 551 539 567 564 L 578 581 L 599 621 L 614 645 Q 620 654 620 658 Q 620 662 610 672 Q 599 682 582 689 C 555 701 550 703 553 685 Z" fill="lightgray"></path>
				<path d="M 498 519 L 521 521 L 584 526 Q 661 533 675 533 L 701 534 C 731 535 733 552 706 564 L 690 571 Q 675 577 630 571 L 597 567 L 567 564 L 540 560 L 475 550 L 445 548 L 339 539 C 309 536 298 505 328 505 L 343 505 Q 348 504 375 507 L 450 514 L 475 517 L 498 519 Z" fill="lightgray"></path>
				<path d="M 521 400 L 535 402 L 641 413 L 730 420 Q 742 422 771 422 L 802 424 Q 827 424 830 425 L 861 429 Q 871 430 872.5 433 Q 874 436 869 445 Q 864 454 840 462 L 819 471 Q 804 476 784 474 L 763 470 L 614 446 Q 605 445 597 445 L 569 442 Q 557 440 540 439 L 473 431 L 441 428 L 428 426 Q 416 426 410 424 L 243 404 Q 219 400 206 399 Q 193 398 191 395.5 Q 189 393 194 387 Q 199 381 222 371 Q 245 361 267 362 L 284 365 L 321 374 L 370 382 Q 430 391 469 394 L 521 400 Z" fill="lightgray"></path>
				<path d="M 471 310 L 515 387 Q 518 393 521 400 L 540 439 L 556 462 Q 561 470 561 475 Q 561 480 553 488 Q 544 500 534 504 Q 527 510 517 514 Q 506 517 504 517 L 498 519 C 475 526 475 526 475 517 L 475 476 L 473 431 L 469 394 L 465 374 Q 461 353 456 335 L 445 306 C 434 278 456 284 471 310 Z" fill="lightgray"></path>
				<path d="M 395 300 L 347 317 Q 334 322 325 318 Q 316 314 315 311 Q 314 308 321 292 Q 328 275 329 246 L 333 202 L 343 -68 C 344 -98 387 -93 387 -63 L 387 -4 L 387 12 L 389 92 L 389 109 L 389 184 L 390 204 L 391 273 C 391 301 399 299 395 300 Z" fill="lightgray"></path>
				<path d="M 679 -43 L 697 224 Q 698 251 708 269 Q 717 286 718 294 Q 718 301 707 311 Q 687 331 646 343 L 634 346 Q 630 347 625 347 L 534 323 L 483 312 Q 483 313 471 310 L 445 306 L 421 303 Q 417 302 395 300 C 365 297 361 271 391 273 L 418 275 Q 440 275 558 296 Q 611 308 626 291 Q 632 284 632 253 L 628 115 L 628 113 L 626 23 L 626 12 L 624 -47 C 623 -77 677 -73 679 -43 Z" fill="lightgray"></path>
				<path d="M 389 184 L 399 178 L 425 172 Q 435 170 442 170 Q 449 170 492 178 L 549 186 L 591 193 L 620 199 Q 628 201 628 207 Q 628 212 622 217 Q 582 242 540 228 L 512 220 Q 469 213 464 212 L 452 210 Q 429 205 405 204 L 390 204 C 360 204 363 199 389 184 Z" fill="lightgray"></path>
				<path d="M 389 92 L 399 86 Q 403 82 421 80 Q 437 76 448 77 Q 458 77 492 84 L 549 92 L 591 100 L 620 104 L 628 113 L 628 115 L 622 124 Q 612 134 588 137 Q 564 140 552 137 Q 494 122 469 120 L 437 115 Q 418 111 405 111 L 391 109 L 389 109 C 365 106 365 106 389 92 Z" fill="lightgray"></path>
				<path d="M 387 -4 L 397 -10 Q 401 -13 420 -16 Q 439 -19 447 -19 Q 455 -18 489 -11 L 547 -3 L 617 8 L 626 12 C 635 16 635 16 626 23 Q 617 32 596 40 Q 575 47 559 43 L 538 38 Q 532 36 473 24 L 435 16 Q 414 13 403 13 L 390 12 L 387 12 C 362 11 362 11 387 -4 Z" fill="lightgray"></path>
				<path d="M 316 -69 L 304 -70 L 212 -76 L 155 -78 L 135 -78 Q 111 -80 121 -95 Q 126 -107 139 -114 L 163 -126 L 173 -130 Q 192 -138 199.5 -138.5 Q 207 -139 226 -134 Q 255 -124 412 -102 Q 427 -100 527 -96 Q 627 -92 718 -92 L 787 -92 Q 838 -92 848 -93 L 886 -94 Q 931 -96 941 -90 Q 951 -86 953 -77.5 Q 955 -69 942 -60 Q 914 -38 890 -32 Q 882 -28 871.5 -27.5 Q 861 -27 823 -30 L 792 -34 L 706 -42 Q 687 -42 679 -43 L 624 -47 L 578 -50 L 538 -54 L 387 -63 L 343 -68 Q 323 -68 316 -69 Z" fill="lightgray"></path>
</g>
		<text x="40" y="140" font-size="128" fill="#999999">1</text></g>
		<g id="id0:id1:id1" transform="matrix(1.0,0,0,1.0,1024,0.0)">			<g stroke="lightgray" stroke-width="4" transform="scale(4, 4)"> <rect x="0" y="0" width="256" height="256" fill="white" stroke-width="4"/></g>
			<g transform="scale(0.92, -0.92) translate(60, -920)">					<path d="M 299 690 L 278 694 L 255 700 Q 245 700 241 702 Q 228 702 227 698 Q 225 693 229 689 L 231 688 Q 232 686 240 680 Q 248 674 255 660 Q 261 651 264 636 L 280 558 Q 285 531 289 514 Q 293 496 301 489 Q 308 482 312 483 Q 317 485 322 493 L 328 505 L 339 539 L 335 578 L 335 580 Q 333 582 333 590 L 321 660 C 316 687 316 687 299 690 Z" fill="black"></path>
				<path d="M 701 534 L 714 522 Q 721 512 734 520 Q 746 528 752 544 L 786 617 Q 796 638 818 663 Q 840 687 839 693 Q 838 699 824 711 Q 808 721 781 731 Q 754 741 745 741 L 621 725 Q 526 712 517 712 L 412 700 L 299 690 C 269 687 291 656 321 660 L 358 665 Q 367 666 403 671 L 436 678 L 515 683 Q 521 685 533 685 L 553 685 L 582 689 L 685 694 Q 696 694 712 692 Q 728 688 728 669 L 726 657 Q 726 647 724 643 L 712 583 L 706 564 C 698 537 698 537 701 534 Z" fill="red"></path>
				<path d="M 403 671 L 412 663 Q 420 655 425 640 L 434 604 Q 438 571 445 548 C 453 519 475 520 475 550 L 475 589 L 477 618 Q 477 635 479 641 L 479 644 Q 481 658 470 664 L 436 678 C 408 689 381 691 403 671 Z" fill="lightgray"></path>
				<path d="M 553 685 L 555 673 Q 558 651 551 614 L 547 585 L 540 560 C 532 531 551 539 567 564 L 578 581 L 599 621 L 614 645 Q 620 654 620 658 Q 620 662 610 672 Q 599 682 582 689 C 555 701 550 703 553 685 Z" fill="lightgray"></path>
				<path d="M 498 519 L 521 521 L 584 526 Q 661 533 675 533 L 701 534 C 731 535 733 552 706 564 L 690 571 Q 675 577 630 571 L 597 567 L 567 564 L 540 560 L 475 550 L 445 548 L 339 539 C 309 536 298 505 328 505 L 343 505 Q 348 504 375 507 L 450 514 L 475 517 L 498 519 Z" fill="lightgray"></path>
				<path d="M 521 400 L 535 402 L 641 413 L 730 420 Q 742 422 771 422 L 802 424 Q 827 424 830 425 L 861 429 Q 871 430 872.5 433 Q 874 436 869 445 Q 864 454 840 462 L 819 471 Q 804 476 784 474 L 763 470 L 614 446 Q 605 445 597 445 L 569 442 Q 557 440 540 439 L 473 431 L 441 428 L 428 426 Q 416 426 410 424 L 243 404 Q 219 400 206 399 Q 193 398 191 395.5 Q 189 393 194 387 Q 199 381 222 371 Q 245 361 267 362 L 284 365 L 321 374 L 370 382 Q 430 391 469 394 L 521 400 Z" fill="lightgray"></path>
				<path d="M 471 310 L 515 387 Q 518 393 521 400 L 540 439 L 556 462 Q 561 470 561 475 Q 561 480 553 488 Q 544 500 534 504 Q 527 510 517 514 Q 506 517 504 517 L 498 519 C 475 526 475 526 475 517 L 475 476 L 473 431 L 469 394 L 465 374 Q 461 353 456 335 L 445 306 C 434 278 456 284 471 310 Z" fill="lightgray"></path>
				<path d="M 395 300 L 347 317 Q 334 322 325 318 Q 316 314 315 311 Q 314 308 321 292 Q 328 275 329 246 L 333 202 L 343 -68 C 344 -98 387 -93 387 -63 L 387 -4 L 387 12 L 389 92 L 389 109 L 389 184 L 390 204 L 391 273 C 391 301 399 299 395 300 Z" fill="lightgray"></path>
				<path d="M 679 -43 L 697 224 Q 698 251 708 269 Q 717 286 718 294 Q 718 301 707 311 Q 687 331 646 343 L 634 346 Q 630 347 625 347 L 534 323 L 483 312 Q 483 313 471 310 L 445 306 L 421 303 Q 417 302 395 300 C 365 297 361 271 391 273 L 418 275 Q 440 275 558 296 Q 611 308 626 291 Q 632 284 632 253 L 628 115 L 628 113 L 626 23 L 626 12 L 624 -47 C 623 -77 677 -73 679 -43 Z" fill="lightgray"></path>
				<path d="M 389 184 L 399 178 L 425 172 Q 435 170 442 170 Q 449 170 492 178 L 549 186 L 591 193 L 620 199 Q 628 201 628 207 Q 628 212 622 217 Q 582 242 540 228 L 512 220 Q 469 213 464 212 L 452 210 Q 429 205 405 204 L 390 204 C 360 204 363 199 389 184 Z" fill="lightgray"></path>
				<path d="M 389 92 L 399 86 Q 403 82 421 80 Q 437 76 448 77 Q 458 77 492 84 L 549 92 L 591 100 L 620 104 L 628 113 L 628 115 L 622 124 Q 612 134 588 137 Q 564 140 552 137 Q 494 122 469 120 L 437 115 Q 418 111 405 111 L 391 109 L 389 109 C 365 106 365 106 389 92 Z" fill="lightgray"></path>
				<path d="M 387 -4 L 397 -10 Q 401 -13 420 -16 Q 439 -19 447 -19 Q 455 -18 489 -11 L 547 -3 L 617 8 L 626 12 C 635 16 635 16 626 23 Q 617 32 596 40 Q 575 47 559 43 L 538 38 Q 532 36 473 24 L 435 16 Q 414 13 403 13 L 390 12 L 387 12 C 362 11 362 11 387 -4 Z" fill="lightgray"></path>
				<path d="M 316 -69 L 304 -70 L 212 -76 L 155 -78 L 135 -78 Q 111 -80 121 -95 Q 126 -107 139 -114 L 163 -126 L 173 -130 Q 192 -138 199.5 -138.5 Q 207 -139 226 -134 Q 255 -124 412 -102 Q 427 -100 527 -96 Q 627 -92 718 -92 L 787 -92 Q 838 -92 848 -93 L 886 -94 Q 931 -96 941 -90 Q 951 -86 953 -77.5 Q 955 -69 942 -60 Q 914 -38 890 -32 Q 882 -28 871.5 -27.5 Q 861 -27 823 -30 L 792 -34 L 706 -42 Q 687 -42 679 -43 L 624 -47 L 578 -50 L 538 -54 L 387 -63 L 343 -68 Q 323 -68 316 -69 Z" fill="lightgray"></path>
</g>
		<text x="40" y="140" font-size="128" fill="#999999">2</text></g>
		<g id="id0:id2:id2" transform="matrix(1.0,0,0,1.0,2048,0.0)">			<g stroke="lightgray" stroke-width="4" transform="scale(4, 4)"> <rect x="0" y="0" width="256" height="256" fill="white" stroke-width="4"/></g>
			<g transform="scale(0.92, -0.92) translate(60, -920)">					<path d="M 299 690 L 278 694 L 255 700 Q 245 700 241 702 Q 228 702 227 698 Q 225 693 229 689 L 231 688 Q 232 686 240 680 Q 248 674 255 660 Q 261 651 264 636 L 280 558 Q 285 531 289 514 Q 293 496 301 489 Q 308 482 312 483 Q 317 485 322 493 L 328 505 L 339 539 L 335 578 L 335 580 Q 333 582 333 590 L 321 660 C 316 687 316 687 299 690 Z" fill="black"></path>
				<path d="M 701 534 L 714 522 Q 721 512 734 520 Q 746 528 752 544 L 786 617 Q 796 638 818 663 Q 840 687 839 693 Q 838 699 824 711 Q 808 721 781 731 Q 754 741 745 741 L 621 725 Q 526 712 517 712 L 412 700 L 299 690 C 269 687 291 656 321 660 L 358 665 Q 367 666 403 671 L 436 678 L 515 683 Q 521 685 533 685 L 553 685 L 582 689 L 685 694 Q 696 694 712 692 Q 728 688 728 669 L 726 657 Q 726 647 724 643 L 712 583 L 706 564 C 698 537 698 537 701 534 Z" fill="black"></path>
				<path d="M 403 671 L 412 663 Q 420 655 425 640 L 434 604 Q 438 571 445 548 C 453 519 475 520 475 550 L 475 589 L 477 618 Q 477 635 479 641 L 479 644 Q 481 658 470 664 L 436 678 C 408 689 381 691 403 671 Z" fill="red"></path>
				<path d="M 553 685 L 555 673 Q 558 651 551 614 L 547 585 L 540 560 C 532 531 551 539 567 564 L 578 581 L 599 621 L 614 645 Q 620 654 620 658 Q 620 662 610 672 Q 599 682 582 689 C 555 701 550 703 553 685 Z" fill="lightgray"></path>
				<path d="M 498 519 L 521 521 L 584 526 Q 661 533 675 533 L 701 534 C 731 535 733 552 706 564 L 690 571 Q 675 577 630 571 L 597 567 L 567 564 L 540 560 L 475 550 L 445 548 L 339 539 C 309 536 298 505 328 505 L 343 505 Q 348 504 375 507 L 450 514 L 475 517 L 498 519 Z" fill="lightgray"></path>
				<path d="M 521 400 L 535 402 L 641 413 L 730 420 Q 742 422 771 422 L 802 424 Q 827 424 830 425 L 861 429 Q 871 430 872.5 433 Q 874 436 869 445 Q 864 454 840 462 L 819 471 Q 804 476 784 474 L 763 470 L 614 446 Q 605 445 597 445 L 569 442 Q 557 440 540 439 L 473 431 L 441 428 L 428 426 Q 416 426 410 424 L 243 404 Q 219 400 206 399 Q 193 398 191 395.5 Q 189 393 194 387 Q 199 381 222 371 Q 245 361 267 362 L 284 365 L 321 374 L 370 382 Q 430 391 469 394 L 521 400 Z" fill="lightgray"></path>
				<path d="M 471 310 L 515 387 Q 518 393 521 400 L 540 439 L 556 462 Q 561 470 561 475 Q 561 480 553 488 Q 544 500 534 504 Q 527 510 517 514 Q 506 517 504 517 L 498 519 C 475 526 475 526 475 517 L 475 476 L 473 431 L 469 394 L 465 374 Q 461 353 456 335 L 445 306 C 434 278 456 284 471 310 Z" fill="lightgray"></path>
				<path d="M 395 300 L 347 317 Q 334 322 325 318 Q 316 314 315 311 Q 314 308 321 292 Q 328 275 329 246 L 333 202 L 343 -68 C 344 -98 387 -93 387 -63 L 387 -4 L 387 12 L 389 92 L 389 109 L 389 184 L 390 204 L 391 273 C 391 301 399 299 395 300 Z" fill="lightgray"></path>
				<path d="M 679 -43 L 697 224 Q 698 251 708 269 Q 717 286 718 294 Q 718 301 707 311 Q 687 331 646 343 L 634 346 Q 630 347 625 347 L 534 323 L 483 312 Q 483 313 471 310 L 445 306 L 421 303 Q 417 302 395 300 C 365 297 361 271 391 273 L 418 275 Q 440 275 558 296 Q 611 308 626 291 Q 632 284 632 253 L 628 115 L 628 113 L 626 23 L 626 12 L 624 -47 C 623 -77 677 -73 679 -43 Z" fill="lightgray"></path>
				<path d="M 389 184 L 399 178 L 425 172 Q 435 170 442 170 Q 449 170 492 178 L 549 186 L 591 193 L 620 199 Q 628 201 628 207 Q 628 212 622 217 Q 582 242 540 228 L 512 220 Q 469 213 464 212 L 452 210 Q 429 205 405 204 L 390 204 C 360 204 363 199 389 184 Z" fill="lightgray"></path>
				<path d="M 389 92 L 399 86 Q 403 82 421 80 Q 437 76 448 77 Q 458 77 492 84 L 549 92 L 591 100 L 620 104 L 628 113 L 628 115 L 622 124 Q 612 134 588 137 Q 564 140 552 137 Q 494 122 469 120 L 437 115 Q 418 111 405 111 L 391 109 L 389 109 C 365 106 365 106 389 92 Z" fill="lightgray"></path>
				<path d="M 387 -4 L 397 -10 Q 401 -13 420 -16 Q 439 -19 447 -19 Q 455 -18 489 -11 L 547 -3 L 617 8 L 626 12 C 635 16 635 16 626 23 Q 617 32 596 40 Q 575 47 559 43 L 538 38 Q 532 36 473 24 L 435 16 Q 414 13 403 13 L 390 12 L 387 12 C 362 11 362 11 387 -4 Z" fill="lightgray"></path>
				<path d="M 316 -69 L 304 -70 L 212 -76 L 155 -78 L 135 -78 Q 111 -80 121 -95 Q 126 -107 139 -114 L 163 -126 L 173 -130 Q 192 -138 199.5 -138.5 Q 207 -139 226 -134 Q 255 -124 412 -102 Q 427 -100 527 -96 Q 627 -92 718 -92 L 787 -92 Q 838 -92 848 -93 L 886 -94 Q 931 -96 941 -90 Q 951 -86 953 -77.5 Q 955 -69 942 -60 Q 914 -38 890 -32 Q 882 -28 871.5 -27.5 Q 861 -27 823 -30 L 792 -34 L 706 -42 Q 687 -42 679 -43 L 624 -47 L 578 -50 L 538 -54 L 387 -63 L 343 -68 Q 323 -68 316 -69 Z" fill="lightgray"></path>
</g>
		<text x="40" y="140" font-size="128" fill="#999999">3</text></g>
		<g id="id0:id3:id3" transform="matrix(1.0,0,0,1.0,3072,0.0)">			<g stroke="lightgray" stroke-width="4" transform="scale(4, 4)"> <rect x="0" y="0" width="256" height="256" fill="white" stroke-width="4"/></g>
			<g transform="scale(0.92, -0.92) translate(60, -920)">					<path d="M 299 690 L 278 694 L 255 700 Q 245 700 241 702 Q 228 702 227 698 Q 225 693 229 689 L 231 688 Q 232 686 240 680 Q 248 674 255 660 Q 261 651 264 636 L 280 558 Q 285 531 289 514 Q 293 496 301 489 Q 308 482 312 483 Q 317 485 322 493 L 328 505 L 339 539 L 335 578 L 335 580 Q 333 582 333 590 L 321 660 C 316 687 316 687 299 690 Z" fill="black"></path>
				<path d="M 701 534 L 714 522 Q 721 512 734 520 Q 746 528 752 544 L 786 617 Q 796 638 818 663 Q 840 687 839 693 Q 838 699 824 711 Q 808 721 781 731 Q 754 741 745 741 L 621 725 Q 526 712 517 712 L 412 700 L 299 690 C 269 687 291 656 321 660 L 358 665 Q 367 666 403 671 L 436 678 L 515 683 Q 521 685 533 685 L 553 685 L 582 689 L 685 694 Q 696 694 712 692 Q 728 688 728 669 L 726 657 Q 726 647 724 643 L 712 583 L 706 564 C 698 537 698 537 701 534 Z" fill="black"></path>
				<path d="M 403 671 L 412 663 Q 420 655 425 640 L 434 604 Q 438 571 445 548 C 453 519 475 520 475 550 L 475 589 L 477 618 Q 477 635 479 641 L 479 644 Q 481 658 470 664 L 436 678 C 408 689 381 691 403 671 Z" fill="black"></path>
				<path d="M 553 685 L 555 673 Q 558 651 551 614 L 547 585 L 540 560 C 532 531 551 539 567 564 L 578 581 L 599 621 L 614 645 Q 620 654 620 658 Q 620 662 610 672 Q 599 682 582 689 C 555 701 550 703 553 685 Z" fill="red"></path>
				<path d="M 498 519 L 521 521 L 584 526 Q 661 533 675 533 L 701 534 C 731 535 733 552 706 564 L 690 571 Q 675 577 630 571 L 597 567 L 567 564 L 540 560 L 475 550 L 445 548 L 339 539 C 309 536 298 505 328 505 L 343 505 Q 348 504 375 507 L 450 514 L 475 517 L 498 519 Z" fill="lightgray"></path>
				<path d="M 521 400 L 535 402 L 641 413 L 730 420 Q 742 422 771 422 L 802 424 Q 827 424 830 425 L 861 429 Q 871 430 872.5 433 Q 874 436 869 445 Q 864 454 840 462 L 819 471 Q 804 476 784 474 L 763 470 L 614 446 Q 605 445 597 445 L 569 442 Q 557 440 540 439 L 473 431 L 441 428 L 428 426 Q 416 426 410 424 L 243 404 Q 219 400 206 399 Q 193 398 191 395.5 Q 189 393 194 387 Q 199 381 222 371 Q 245 361 267 362 L 284 365 L 321 374 L 370 382 Q 430 391 469 394 L 521 400 Z" fill="lightgray"></path>
				<path d="M 471 310 L 515 387 Q 518 393 521 400 L 540 439 L 556 462 Q 561 470 561 475 Q 561 480 553 488 Q 544 500 534 504 Q 527 510 517 514 Q 506 517 504 517 L 498 519 C 475 526 475 526 475 517 L 475 476 L 473 431 L 469 394 L 465 374 Q 461 353 456 335 L 445 306 C 434 278 456 284 471 310 Z" fill="lightgray"></path>
				<path d="M 395 300 L 347 317 Q 334 322 325 318 Q 316 314 315 311 Q 314 308 321 292 Q 328 275 329 246 L 333 202 L 343 -68 C 344 -98 387 -93 387 -63 L 387 -4 L 387 12 L 389 92 L 389 109 L 389 184 L 390 204 L 391 273 C 391 301 399 299 395 300 Z" fill="lightgray"></path>
				<path d="M 679 -43 L 697 224 Q 698 251 708 269 Q 717 286 718 294 Q 718 301 707 311 Q 687 331 646 343 L 634 346 Q 630 347 625 347 L 534 323 L 483 312 Q 483 313 471 310 L 445 306 L 421 303 Q 417 302 395 300 C 365 297 361 271 391 273 L 418 275 Q 440 275 558 296 Q 611 308 626 291 Q 632 284 632 253 L 628 115 L 628 113 L 626 23 L 626 12 L 624 -47 C 623 -77 677 -73 679 -43 Z" fill="lightgray"></path>
				<path d="M 389 184 L 399 178 L 425 172 Q 435 170 442 170 Q 449 170 492 178 L 549 186 L 591 193 L 620 199 Q 628 201 628 207 Q 628 212 622 217 Q 582 242 540 228 L 512 220 Q 469 213 464 212 L 452 210 Q 429 205 405 204 L 390 204 C 360 204 363 199 389 184 Z" fill="lightgray"></path>
				<path d="M 389 92 L 399 86 Q 403 82 421 80 Q 437 76 448 77 Q 458 77 492 84 L 549 92 L 591 100 L 620 104 L 628 113 L 628 115 L 622 124 Q 612 134 588 137 Q 564 140 552 137 Q 494 122 469 120 L 437 115 Q 418 111 405 111 L 391 109 L 389 109 C 365 106 365 106 389 92 Z" fill="lightgray"></path>
				<path d="M 387 -4 L 397 -10 Q 401 -13 420 -16 Q 439 -19 447 -19 Q 455 -18 489 -11 L 547 -3 L 617 8 L 626 12 C 635 16 635 16 626 23 Q 617 32 596 40 Q 575 47 559 43 L 538 38 Q 532 36 473 24 L 435 16 Q 414 13 403 13 L 390 12 L 387 12 C 362 11 362 11 387 -4 Z" fill="lightgray"></path>
				<path d="M 316 -69 L 304 -70 L 212 -76 L 155 -78 L 135 -78 Q 111 -80 121 -95 Q 126 -107 139 -114 L 163 -126 L 173 -130 Q 192 -138 199.5 -138.5 Q 207 -139 226 -134 Q 255 -124 412 -102 Q 427 -100 527 -96 Q 627 -92 718 -92 L 787 -92 Q 838 -92 848 -93 L 886 -94 Q 931 -96 941 -90 Q 951 -86 953 -77.5 Q 955 -69 942 -60 Q 914 -38 890 -32 Q 882 -28 871.5 -27.5 Q 861 -27 823 -30 L 792 -34 L 706 -42 Q 687 -42 679 -43 L 624 -47 L 578 -50 L 538 -54 L 387 -63 L 343 -68 Q 323 -68 316 -69 Z" fill="lightgray"></path>
</g>
		<text x="40" y="140" font-size="128" fill="#999999">4</text></g>
		<g id="id0:id4:id4" transform="matrix(1.0,0,0,1.0,4096,0.0)">			<g stroke="lightgray" stroke-width="4" transform="scale(4, 4)"> <rect x="0" y="0" width="256" height="256" fill="white" stroke-width="4"/></g>
			<g transform="scale(0.92, -0.92) translate(60, -920)">					<path d="M 299 690 L 278 694 L 255 700 Q 245 700 241 702 Q 228 702 227 698 Q 225 693 229 689 L 231 688 Q 232 686 240 680 Q 248 674 255 660 Q 261 651 264 636 L 280 558 Q 285 531 289 514 Q 293 496 301 489 Q 308 482 312 483 Q 317 485 322 493 L 328 505 L 339 539 L 335 578 L 335 580 Q 333 582 333 590 L 321 660 C 316 687 316 687 299 690 Z" fill="black"></path>
				<path d="M 701 534 L 714 522 Q 721 512 734 520 Q 746 528 752 544 L 786 617 Q 796 638 818 663 Q 840 687 839 693 Q 838 699 824 711 Q 808 721 781 731 Q 754 741 745 741 L 621 725 Q 526 712 517 712 L 412 700 L 299 690 C 269 687 291 656 321 660 L 358 665 Q 367 666 403 671 L 436 678 L 515 683 Q 521 685 533 685 L 553 685 L 582 689 L 685 694 Q 696 694 712 692 Q 728 688 728 669 L 726 657 Q 726 647 724 643 L 712 583 L 706 564 C 698 537 698 537 701 534 Z" fill="black"></path>
				<path d="M 403 671 L 412 663 Q 420 655 425 640 L 434 604 Q 438 571 445 548 C 453 519 475 520 475 550 L 475 589 L 477 618 Q 477 635 479 641 L 479 644 Q 481 658 470 664 L 436 678 C 408 689 381 691 403 671 Z" fill="black"></path>
				<path d="M 553 685 L 555 673 Q 558 651 551 614 L 547 585 L 540 560 C 532 531 551 539 567 564 L 578 581 L 599 621 L 614 645 Q 620 654 620 658 Q 620 662 610 672 Q 599 682 582 689 C 555 701 550 703 553 685 Z" fill="black"></path>
				<path d="M 498 519 L 521 521 L 584 526 Q 661 533 675 533 L 701 534 C 731 535 733 552 706 564 L 690 571 Q 675 577 630 571 L 597 567 L 567 564 L 540 560 L 475 550 L 445 548 L 339 539 C 309 536 298 505 328 505 L 343 505 Q 348 504 375 507 L 450 514 L 475 517 L 498 519 Z" fill="red"></path>
				<path d="M 521 400 L 535 402 L 641 413 L 730 420 Q 742 422 771 422 L 802 424 Q 827 424 830 425 L 861 429 Q 871 430 872.5 433 Q 874 436 869 445 Q 864 454 840 462 L 819 471 Q 804 476 784 474 L 763 470 L 614 446 Q 605 445 597 445 L 569 442 Q 557 440 540 439 L 473 431 L 441 428 L 428 426 Q 416 426 410 424 L 243 404 Q 219 400 206 399 Q 193 398 191 395.5 Q 189 393 194 387 Q 199 381 222 371 Q 245 361 267 362 L 284 365 L 321 374 L 370 382 Q 430 391 469 394 L 521 400 Z" fill="lightgray"></path>
				<path d="M 471 310 L 515 387 Q 518 393 521 400 L 540 439 L 556 462 Q 561 470 561 475 Q 561 480 553 488 Q 544 500 534 504 Q 527 510 517 514 Q 506 517 504 517 L 498 519 C 475 526 475 526 475 517 L 475 476 L 473 431 L 469 394 L 465 374 Q 461 353 456 335 L 445 306 C 434 278 456 284 471 310 Z" fill="lightgray"></path>
				<path d="M 395 300 L 347 317 Q 334 322 325 318 Q 316 314 315 311 Q 314 308 321 292 Q 328 275 329 246 L 333 202 L 343 -68 C 344 -98 387 -93 387 -63 L 387 -4 L 387 12 L 389 92 L 389 109 L 389 184 L 390 204 L 391 273 C 391 301 399 299 395 300 Z" fill="lightgray"></path>
				<path d="M 679 -43 L 697 224 Q 698 251 708 269 Q 717 286 718 294 Q 718 301 707 311 Q 687 331 646 343 L 634 346 Q 630 347 625 347 L 534 323 L 483 312 Q 483 313 471 310 L 445 306 L 421 303 Q 417 302 395 300 C 365 297 361 271 391 273 L 418 275 Q 440 275 558 296 Q 611 308 626 291 Q 632 284 632 253 L 628 115 L 628 113 L 626 23 L 626 12 L 624 -47 C 623 -77 677 -73 679 -43 Z" fill="lightgray"></path>
				<path d="M 389 184 L 399 178 L 425 172 Q 435 170 442 170 Q 449 170 492 178 L 549 186 L 591 193 L 620 199 Q 628 201 628 207 Q 628 212 622 217 Q 582 242 540 228 L 512 220 Q 469 213 464 212 L 452 210 Q 429 205 405 204 L 390 204 C 360 204 363 199 389 184 Z" fill="lightgray"></path>
				<path d="M 389 92 L 399 86 Q 403 82 421 80 Q 437 76 448 77 Q 458 77 492 84 L 549 92 L 591 100 L 620 104 L 628 113 L 628 115 L 622 124 Q 612 134 588 137 Q 564 140 552 137 Q 494 122 469 120 L 437 115 Q 418 111 405 111 L 391 109 L 389 109 C 365 106 365 106 389 92 Z" fill="lightgray"></path>
				<path d="M 387 -4 L 397 -10 Q 401 -13 420 -16 Q 439 -19 447 -19 Q 455 -18 489 -11 L 547 -3 L 617 8 L 626 12 C 635 16 635 16 626 23 Q 617 32 596 40 Q 575 47 559 43 L 538 38 Q 532 36 473 24 L 435 16 Q 414 13 403 13 L 390 12 L 387 12 C 362 11 362 11 387 -4 Z" fill="lightgray"></path>
				<path d="M 316 -69 L 304 -70 L 212 -76 L 155 -78 L 135 -78 Q 111 -80 121 -95 Q 126 -107 139 -114 L 163 -126 L 173 -130 Q 192 -138 199.5 -138.5 Q 207 -139 226 -134 Q 255 -124 412 -102 Q 427 -100 527 -96 Q 627 -92 718 -92 L 787 -92 Q 838 -92 848 -93 L 886 -94 Q 931 -96 941 -90 Q 951 -86 953 -77.5 Q 955 -69 942 -60 Q 914 -38 890 -32 Q 882 -28 871.5 -27.5 Q 861 -27 823 -30 L 792 -34 L 706 -42 Q 687 -42 679 -43 L 624 -47 L 578 -50 L 538 -54 L 387 -63 L 343 -68 Q 323 -68 316 -69 Z" fill="lightgray"></path>
</g>
		<text x="40" y="140" font-size="128" fill="#999999">5</text></g>
</g>
	<g id="id1:id1" transform="translate(0.0,1024)">
		<g id="id1:id0:id0" transform="matrix(1.0,0,0,1.0,0,0.0)">			<g stroke="lightgray" stroke-width="4" transform="scale(4, 4)"> <rect x="0" y="0" width="256" height="256" fill="white" stroke-width="4"/></g>
			<g transform="scale(0.92, -0.92) translate(60, -920)">					<path d="M 299 690 L 278 694 L 255 700 Q 245 700 241 702 Q 228 702 227 698 Q 225 693 229 689 L 231 688 Q 232 686 240 680 Q 248 674 255 660 Q 261 651 264 636 L 280 558 Q 285 531 289 514 Q 293 496 301 489 Q 308 482 312 483 Q 317 485 322 493 L 328 505 L 339 539 L 335 578 L 335 580 Q 333 582 333 590 L 321 660 C 316 687 316 687 299 690 Z" fill="black"></path>
				<path d="M 701 534 L 714 522 Q 721 512 734 520 Q 746 528 752 544 L 786 617 Q 796 638 818 663 Q 840 687 839 693 Q 838 699 824 711 Q 808 721 781 731 Q 754 741 745 741 L 621 725 Q 526 712 517 712 L 412 700 L 299 690 C 269 687 291 656 321 660 L 358 665 Q 367 666 403 671 L 436 678 L 515 683 Q 521 685 533 685 L 553 685 L 582 689 L 685 694 Q 696 694 712 692 Q 728 688 728 669 L 726 657 Q 726 647 724 643 L 712 583 L 706 564 C 698 537 698 537 701 534 Z" fill="black"></path>
				<path d="M 403 671 L 412 663 Q 420 655 425 640 L 434 604 Q 438 571 445 548 C 453 519 475 520 475 550 L 475 589 L 477 618 Q 477 635 479 641 L 479 644 Q 481 658 470 664 L 436 678 C 408 689 381 691 403 671 Z" fill="black"></path>
				<path d="M 553 685 L 555 673 Q 558 651 551 614 L 547 585 L 540 560 C 532 531 551 539 567 564 L 578 581 L 599 621 L 614 645 Q 620 654 620 658 Q 620 662 610 672 Q 599 682 582 689 C 555 701 550 703 553 685 Z" fill="black"></path>
				<path d="M 498 519 L 521 521 L 584 526 Q 661 533 675 533 L 701 534 C 731 535 733 552 706 564 L 690 571 Q 675 577 630 571 L 597 567 L 567 564 L 540 560 L 475 550 L 445 548 L 339 539 C 309 536 298 505 328 505 L 343 505 Q 348 504 375 507 L 450 514 L 475 517 L 498 519 Z" fill="black"></path>
				<path d="M 521 400 L 535 402 L 641 413 L 730 420 Q 742 422 771 422 L 802 424 Q 827 424 830 425 L 861 429 Q 871 430 872.5 433 Q 874 436 869 445 Q 864 454 840 462 L 819 471 Q 804 476 784 474 L 763 470 L 614 446 Q 605 445 597 445 L 569 442 Q 557 440 540 439 L 473 431 L 441 428 L 428 426 Q 416 426 410 424 L 243 404 Q 219 400 206 399 Q 193 398 191 395.5 Q 189 393 194 387 Q 199 381 222 371 Q 245 361 267 362 L 284 365 L 321 374 L 370 382 Q 430 391 469 394 L 521 400 Z" fill="red"></path>
				<path d="M 471 310 L 515 387 Q 518 393 521 400 L 540 439 L 556 462 Q 561 470 561 475 Q 561 480 553 488 Q 544 500 534 504 Q 527 510 517 514 Q 506 517 504 517 L 498 519 C 475 526 475 526 475 517 L 475 476 L 473 431 L 469 394 L 465 374 Q 461 353 456 335 L 445 306 C 434 278 456 284 471 310 Z" fill="lightgray"></path>
				<path d="M 395 300 L 347 317 Q 334 322 325 318 Q 316 314 315 311 Q 314 308 321 292 Q 328 275 329 246 L 333 202 L 343 -68 C 344 -98 387 -93 387 -63 L 387 -4 L 387 12 L 389 92 L 389 109 L 389 184 L 390 204 L 391 273 C 391 301 399 299 395 300 Z" fill="lightgray"></path>
				<path d="M 679 -43 L 697 224 Q 698 251 708 269 Q 717 286 718 294 Q 718 301 707 311 Q 687 331 646 343 L 634 346 Q 630 347 625 347 L 534 323 L 483 312 Q 483 313 471 310 L 445 306 L 421 303 Q 417 302 395 300 C 365 297 361 271 391 273 L 418 275 Q 440 275 558 296 Q 611 308 626 291 Q 632 284 632 253 L 628 115 L 628 113 L 626 23 L 626 12 L 624 -47 C 623 -77 677 -73 679 -43 Z" fill="lightgray"></path>
				<path d="M 389 184 L 399 178 L 425 172 Q 435 170 442 170 Q 449 170 492 178 L 549 186 L 591 193 L 620 199 Q 628 201 628 207 Q 628 212 622 217 Q 582 242 540 228 L 512 220 Q 469 213 464 212 L 452 210 Q 429 205 405 204 L 390 204 C 360 204 363 199 389 184 Z" fill="lightgray"></path>
				<path d="M 389 92 L 399 86 Q 403 82 421 80 Q 437 76 448 77 Q 458 77 492 84 L 549 92 L 591 100 L 620 104 L 628 113 L 628 115 L 622 124 Q 612 134 588 137 Q 564 140 552 137 Q 494 122 469 120 L 437 115 Q 418 111 405 111 L 391 109 L 389 109 C 365 106 365 106 389 92 Z" fill="lightgray"></path>
				<path d="M 387 -4 L 397 -10 Q 401 -13 420 -16 Q 439 -19 447 -19 Q 455 -18 489 -11 L 547 -3 L 617 8 L 626 12 C 635 16 635 16 626 23 Q 617 32 596 40 Q 575 47 559 43 L 538 38 Q 532 36 473 24 L 435 16 Q 414 13 403 13 L 390 12 L 387 12 C 362 11 362 11 387 -4 Z" fill="lightgray"></path>
				<path d="M 316 -69 L 304 -70 L 212 -76 L 155 -78 L 135 -78 Q 111 -80 121 -95 Q 126 -107 139 -114 L 163 -126 L 173 -130 Q 192 -138 199.5 -138.5 Q 207 -139 226 -134 Q 255 -124 412 -102 Q 427 -100 527 -96 Q 627 -92 718 -92 L 787 -92 Q 838 -92 848 -93 L 886 -94 Q 931 -96 941 -90 Q 951 -86 953 -77.5 Q 955 -69 942 -60 Q 914 -38 890 -32 Q 882 -28 871.5 -27.5 Q 861 -27 823 -30 L 792 -34 L 706 -42 Q 687 -42 679 -43 L 624 -47 L 578 -50 L 538 -54 L 387 -63 L 343 -68 Q 323 -68 316 -69 Z" fill="lightgray"></path>
</g>
		<text x="40" y="140" font-size="128" fill="#999999">6</text></g>
		<g id="id1:id1:id1" transform="matrix(1.0,0,0,1.0,1024,0.0)">			<g stroke="lightgray" stroke-width="4" transform="scale(4, 4)"> <rect x="0" y="0" width="256" height="256" fill="white" stroke-width="4"/></g>
			<g transform="scale(0.92, -0.92) translate(60, -920)">					<path d="M 299 690 L 278 694 L 255 700 Q 245 700 241 702 Q 228 702 227 698 Q 225 693 229 689 L 231 688 Q 232 686 240 680 Q 248 674 255 660 Q 261 651 264 636 L 280 558 Q 285 531 289 514 Q 293 496 301 489 Q 308 482 312 483 Q 317 485 322 493 L 328 505 L 339 539 L 335 578 L 335 580 Q 333 582 333 590 L 321 660 C 316 687 316 687 299 690 Z" fill="black"></path>
				<path d="M 701 534 L 714 522 Q 721 512 734 520 Q 746 528 752 544 L 786 617 Q 796 638 818 663 Q 840 687 839 693 Q 838 699 824 711 Q 808 721 781 731 Q 754 741 745 741 L 621 725 Q 526 712 517 712 L 412 700 L 299 690 C 269 687 291 656 321 660 L 358 665 Q 367 666 403 671 L 436 678 L 515 683 Q 521 685 533 685 L 553 685 L 582 689 L 685 694 Q 696 694 712 692 Q 728 688 728 669 L 726 657 Q 726 647 724 643 L 712 583 L 706 564 C 698 537 698 537 701 534 Z" fill="black"></path>
				<path d="M 403 671 L 412 663 Q 420 655 425 640 L 434 604 Q 438 571 445 548 C 453 519 475 520 475 550 L 475 589 L 477 618 Q 477 635 479 641 L 479 644 Q 481 658 470 664 L 436 678 C 408 689 381 691 403 671 Z" fill="black"></path>
				<path d="M 553 685 L 555 673 Q 558 651 551 614 L 547 585 L 540 560 C 532 531 551 539 567 564 L 578 581 L 599 621 L 614 645 Q 620 654 620 658 Q 620 662 610 672 Q 599 682 582 689 C 555 701 550 703 553 685 Z" fill="black"></path>
				<path d="M 498 519 L 521 521 L 584 526 Q 661 533 675 533 L 701 534 C 731 535 733 552 706 564 L 690 571 Q 675 577 630 571 L 597 567 L 567 564 L 540 560 L 475 550 L 445 548 L 339 539 C 309 536 298 505 328 505 L 343 505 Q 348 504 375 507 L 450 514 L 475 517 L 498 519 Z" fill="black"></path>
				<path d="M 521 400 L 535 402 L 641 413 L 730 420 Q 742 422 771 422 L 802 424 Q 827 424 830 425 L 861 429 Q 871 430 872.5 433 Q 874 436 869 445 Q 864 454 840 462 L 819 471 Q 804 476 784 474 L 763 470 L 614 446 Q 605 445 597 445 L 569 442 Q 557 440 540 439 L 473 431 L 441 428 L 428 426 Q 416 426 410 424 L 243 404 Q 219 400 206 399 Q 193 398 191 395.5 Q 189 393 194 387 Q 199 381 222 371 Q 245 361 267 362 L 284 365 L 321 374 L 370 382 Q 430 391 469 394 L 521 400 Z" fill="black"></path>
				<path d="M 471 310 L 515 387 Q 518 393 521 400 L 540 439 L 556 462 Q 561 470 561 475 Q 561 480 553 488 Q 544 500 534 504 Q 527 510 517 514 Q 506 517 504 517 L 498 519 C 475 526 475 526 475 517 L 475 476 L 473 431 L 469 394 L 465 374 Q 461 353 456 335 L 445 306 C 434 278 456 284 471 310 Z" fill="red"></path>
				<path d="M 395 300 L 347 317 Q 334 322 325 318 Q 316 314 315 311 Q 314 308 321 292 Q 328 275 329 246 L 333 202 L 343 -68 C 344 -98 387 -93 387 -63 L 387 -4 L 387 12 L 389 92 L 389 109 L 389 184 L 390 204 L 391 273 C 391 301 399 299 395 300 Z" fill="lightgray"></path>
				<path d="M 679 -43 L 697 224 Q 698 251 708 269 Q 717 286 718 294 Q 718 301 707 311 Q 687 331 646 343 L 634 346 Q 630 347 625 347 L 534 323 L 483 312 Q 483 313 471 310 L 445 306 L 421 303 Q 417 302 395 300 C 365 297 361 271 391 273 L 418 275 Q 440 275 558 296 Q 611 308 626 291 Q 632 284 632 253 L 628 115 L 628 113 L 626 23 L 626 12 L 624 -47 C 623 -77 677 -73 679 -43 Z" fill="lightgray"></path>
				<path d="M 389 184 L 399 178 L 425 172 Q 435 170 442 170 Q 449 170 492 178 L 549 186 L 591 193 L 620 199 Q 628 201 628 207 Q 628 212 622 217 Q 582 242 540 228 L 512 220 Q 469 213 464 212 L 452 210 Q 429 205 405 204 L 390 204 C 360 204 363 199 389 184 Z" fill="lightgray"></path>
				<path d="M 389 92 L 399 86 Q 403 82 421 80 Q 437 76 448 77 Q 458 77 492 84 L 549 92 L 591 100 L 620 104 L 628 113 L 628 115 L 622 124 Q 612 134 588 137 Q 564 140 552 137 Q 494 122 469 120 L 437 115 Q 418 111 405 111 L 391 109 L 389 109 C 365 106 365 106 389 92 Z" fill="lightgray"></path>
				<path d="M 387 -4 L 397 -10 Q 401 -13 420 -16 Q 439 -19 447 -19 Q 455 -18 489 -11 L 547 -3 L 617 8 L 626 12 C 635 16 635 16 626 23 Q 617 32 596 40 Q 575 47 559 43 L 538 38 Q 532 36 473 24 L 435 16 Q 414 13 403 13 L 390 12 L 387 12 C 362 11 362 11 387 -4 Z" fill="lightgray"></path>
				<path d="M 316 -69 L 304 -70 L 212 -76 L 155 -78 L 135 -78 Q 111 -80 121 -95 Q 126 -107 139 -114 L 163 -126 L 173 -130 Q 192 -138 199.5 -138.5 Q 207 -139 226 -134 Q 255 -124 412 -102 Q 427 -100 527 -96 Q 627 -92 718 -92 L 787 -92 Q 838 -92 848 -93 L 886 -94 Q 931 -96 941 -90 Q 951 -86 953 -77.5 Q 955 -69 942 -60 Q 914 -38 890 -32 Q 882 -28 871.5 -27.5 Q 861 -27 823 -30 L 792 -34 L 706 -42 Q 687 -42 679 -43 L 624 -47 L 578 -50 L 538 -54 L 387 -63 L 343 -68 Q 323 -68 316 -69 Z" fill="lightgray"></path>
</g>
		<text x="40" y="140" font-size="128" fill="#999999">7</text></g>
		<g id="id1:id2:id2" transform="matrix(1.0,0,0,1.0,2048,0.0)">			<g stroke="lightgray" stroke-width="4" transform="scale(4, 4)"> <rect x="0" y="0" width="256" height="256" fill="white" stroke-width="4"/></g>
			<g transform="scale(0.92, -0.92) translate(60, -920)">					<path d="M 299 690 L 278 694 L 255 700 Q 245 700 241 702 Q 228 702 227 698 Q 225 693 229 689 L 231 688 Q 232 686 240 680 Q 248 674 255 660 Q 261 651 264 636 L 280 558 Q 285 531 289 514 Q 293 496 301 489 Q 308 482 312 483 Q 317 485 322 493 L 328 505 L 339 539 L 335 578 L 335 580 Q 333 582 333 590 L 321 660 C 316 687 316 687 299 690 Z" fill="black"></path>
				<path d="M 701 534 L 714 522 Q 721 512 734 520 Q 746 528 752 544 L 786 617 Q 796 638 818 663 Q 840 687 839 693 Q 838 699 824 711 Q 808 721 781 731 Q 754 741 745 741 L 621 725 Q 526 712 517 712 L 412 700 L 299 690 C 269 687 291 656 321 660 L 358 665 Q 367 666 403 671 L 436 678 L 515 683 Q 521 685 533 685 L 553 685 L 582 689 L 685 694 Q 696 694 712 692 Q 728 688 728 669 L 726 657 Q 726 647 724 643 L 712 583 L 706 564 C 698 537 698 537 701 534 Z" fill="black"></path>
				<path d="M 403 671 L 412 663 Q 420 655 425 640 L 434 604 Q 438 571 445 548 C 453 519 475 520 475 550 L 475 589 L 477 618 Q 477 635 479 641 L 479 644 Q 481 658 470 664 L 436 678 C 408 689 381 691 403 671 Z" fill="black"></path>
				<path d="M 553 685 L 555 673 Q 558 651 551 614 L 547 585 L 540 560 C 532 531 551 539 567 564 L 578 581 L 599 621 L 614 645 Q 620 654 620 658 Q 620 662 610 672 Q 599 682 582 689 C 555 701 550 703 553 685 Z" fill="black"></path>
				<path d="M 498 519 L 521 521 L 584 526 Q 661 533 675 533 L 701 534 C 731 535 733 552 706 564 L 690 571 Q 675 577 630 571 L 597 567 L 567 564 L 540 560 L 475 550 L 445 548 L 339 539 C 309 536 298 505 328 505 L 343 505 Q 348 504 375 507 L 450 514 L 475 517 L 498 519 Z" fill="black"></path>
				<path d="M 521 400 L 535 402 L 641 413 L 730 420 Q 742 422 771 422 L 802 424 Q 827 424 830 425 L 861 429 Q 871 430 872.5 433 Q 874 436 869 445 Q 864 454 840 462 L 819 471 Q 804 476 784 474 L 763 470 L 614 446 Q 605 445 597 445 L 569 442 Q 557 440 540 439 L 473 431 L 441 428 L 428 426 Q 416 426 410 424 L 243 404 Q 219 400 206 399 Q 193 398 191 395.5 Q 189 393 194 387 Q 199 381 222 371 Q 245 361 267 362 L 284 365 L 321 374 L 370 382 Q 430 391 469 394 L 521 400 Z" fill="black"></path>
				<path d="M 471 310 L 515 387 Q 518 393 521 400 L 540 439 L 556 462 Q 561 470 561 475 Q 561 480 553 488 Q 544 500 534 504 Q 527 510 517 514 Q 506 517 504 517 L 498 519 C 475 526 475 526 475 517 L 475 476 L 473 431 L 469 394 L 465 374 Q 461 353 456 335 L 445 306 C 434 278 456 284 471 310 Z" fill="black"></path>
				<path d="M 395 300 L 347 317 Q 334 322 325 318 Q 316 314 315 311 Q 314 308 321 292 Q 328 275 329 246 L 333 202 L 343 -68 C 344 -98 387 -93 387 -63 L 387 -4 L 387 12 L 389 92 L 389 109 L 389 184 L 390 204 L 391 273 C 391 301 399 299 395 300 Z" fill="red"></path>
				<path d="M 679 -43 L 697 224 Q 698 251 708 269 Q 717 286 718 294 Q 718 301 707 311 Q 687 331 646 343 L 634 346 Q 630 347 625 347 L 534 323 L 483 312 Q 483 313 471 310 L 445 306 L 421 303 Q 417 302 395 300 C 365 297 361 271 391 273 L 418 275 Q 440 275 558 296 Q 611 308 626 291 Q 632 284 632 253 L 628 115 L 628 113 L 626 23 L 626 12 L 624 -47 C 623 -77 677 -73 679 -43 Z" fill="lightgray"></path>
				<path d="M 389 184 L 399 178 L 425 172 Q 435 170 442 170 Q 449 170 492 178 L 549 186 L 591 193 L 620 199 Q 628 201 628 207 Q 628 212 622 217 Q 582 242 540 228 L 512 220 Q 469 213 464 212 L 452 210 Q 429 205 405 204 L 390 204 C 360 204 363 199 389 184 Z" fill="lightgray"></path>
				<path d="M 389 92 L 399 86 Q 403 82 421 80 Q 437 76 448 77 Q 458 77 492 84 L 549 92 L 591 100 L 620 104 L 628 113 L 628 115 L 622 124 Q 612 134 588 137 Q 564 140 552 137 Q 494 122 469 120 L 437 115 Q 418 111 405 111 L 391 109 L 389 109 C 365 106 365 106 389 92 Z" fill="lightgray"></path>
				<path d="M 387 -4 L 397 -10 Q 401 -13 420 -16 Q 439 -19 447 -19 Q 455 -18 489 -11 L 547 -3 L 617 8 L 626 12 C 635 16 635 16 626 23 Q 617 32 596 40 Q 575 47 559 43 L 538 38 Q 532 36 473 24 L 435 16 Q 414 13 403 13 L 390 12 L 387 12 C 362 11 362 11 387 -4 Z" fill="lightgray"></path>
				<path d="M 316 -69 L 304 -70 L 212 -76 L 155 -78 L 135 -78 Q 111 -80 121 -95 Q 126 -107 139 -114 L 163 -126 L 173 -130 Q 192 -138 199.5 -138.5 Q 207 -139 226 -134 Q 255 -124 412 -102 Q 427 -100 527 -96 Q 627 -92 718 -92 L 787 -92 Q 838 -92 848 -93 L 886 -94 Q 931 -96 941 -90 Q 951 -86 953 -77.5 Q 955 -69 942 -60 Q 914 -38 890 -32 Q 882 -28 871.5 -27.5 Q 861 -27 823 -30 L 792 -34 L 706 -42 Q 687 -42 679 -43 L 624 -47 L 578 -50 L 538 -54 L 387 -63 L 343 -68 Q 323 -68 316 -69 Z" fill="lightgray"></path>
</g>
		<text x="40" y="140" font-size="128" fill="#999999">8</text></g>
		<g id="id1:id3:id3" transform="matrix(1.0,0,0,1.0,3072,0.0)">			<g stroke="lightgray" stroke-width="4" transform="scale(4, 4)"> <rect x="0" y="0" width="256" height="256" fill="white" stroke-width="4"/></g>
			<g transform="scale(0.92, -0.92) translate(60, -920)">					<path d="M 299 690 L 278 694 L 255 700 Q 245 700 241 702 Q 228 702 227 698 Q 225 693 229 689 L 231 688 Q 232 686 240 680 Q 248 674 255 660 Q 261 651 264 636 L 280 558 Q 285 531 289 514 Q 293 496 301 489 Q 308 482 312 483 Q 317 485 322 493 L 328 505 L 339 539 L 335 578 L 335 580 Q 333 582 333 590 L 321 660 C 316 687 316 687 299 690 Z" fill="black"></path>
				<path d="M 701 534 L 714 522 Q 721 512 734 520 Q 746 528 752 544 L 786 617 Q 796 638 818 663 Q 840 687 839 693 Q 838 699 824 711 Q 808 721 781 731 Q 754 741 745 741 L 621 725 Q 526 712 517 712 L 412 700 L 299 690 C 269 687 291 656 321 660 L 358 665 Q 367 666 403 671 L 436 678 L 515 683 Q 521 685 533 685 L 553 685 L 582 689 L 685 694 Q 696 694 712 692 Q 728 688 728 669 L 726 657 Q 726 647 724 643 L 712 583 L 706 564 C 698 537 698 537 701 534 Z" fill="black"></path>
				<path d="M 403 671 L 412 663 Q 420 655 425 640 L 434 604 Q 438 571 445 548 C 453 519 475 520 475 550 L 475 589 L 477 618 Q 477 635 479 641 L 479 644 Q 481 658 470 664 L 436 678 C 408 689 381 691 403 671 Z" fill="black"></path>
				<path d="M 553 685 L 555 673 Q 558 651 551 614 L 547 585 L 540 560 C 532 531 551 539 567 564 L 578 581 L 599 621 L 614 645 Q 620 654 620 658 Q 620 662 610 672 Q 599 682 582 689 C 555 701 550 703 553 685 Z" fill="black"></path>
				<path d="M 498 519 L 521 521 L 584 526 Q 661 533 675 533 L 701 534 C 731 535 733 552 706 564 L 690 571 Q 675 577 630 571 L 597 567 L 567 564 L 540 560 L 475 550 L 445 548 L 339 539 C 309 536 298 505 328 505 L 343 505 Q 348 504 375 507 L 450 514 L 475 517 L 498 519 Z" fill="black"></path>
				<path d="M 521 400 L 535 402 L 641 413 L 730 420 Q 742 422 771 422 L 802 424 Q 827 424 830 425 L 861 429 Q 871 430 872.5 433 Q 874 436 869 445 Q 864 454 840 462 L 819 471 Q 804 476 784 474 L 763 470 L 614 446 Q 605 445 597 445 L 569 442 Q 557 440 540 439 L 473 431 L 441 428 L 428 426 Q 416 426 410 424 L 243 404 Q 219 400 206 399 Q 193 398 191 395.5 Q 189 393 194 387 Q 199 381 222 371 Q 245 361 267 362 L 284 365 L 321 374 L 370 382 Q 430 391 469 394 L 521 400 Z" fill="black"></path>
				<path d="M 471 310 L 515 387 Q 518 393 521 400 L 540 439 L 556 462 Q 561 470 561 475 Q 561 480 553 488 Q 544 500 534 504 Q 527 510 517 514 Q 506 517 504 517 L 498 519 C 475 526 475 526 475 517 L 475 476 L 473 431 L 469 394 L 465 374 Q 461 353 456 335 L 445 306 C 434 278 456 284 471 310 Z" fill="black"></path>
				<path d="M 395 300 L 347 317 Q 334 322 325 318 Q 316 314 315 311 Q 314 308 321 292 Q 328 275 329 246 L 333 202 L 343 -68 C 344 -98 387 -93 387 -63 L 387 -4 L 387 12 L 389 92 L 389 109 L 389 184 L 390 204 L 391 273 C 391 301 399 299 395 300 Z" fill="black"></path>
				<path d="M 679 -43 L 697 224 Q 698 251 708 269 Q 717 286 718 294 Q 718 301 707 311 Q 687 331 646 343 L 634 346 Q 630 347 625 347 L 534 323 L 483 312 Q 483 313 471 310 L 445 306 L 421 303 Q 417 302 395 300 C 365 297 361 271 391 273 L 418 275 Q 440 275 558 296 Q 611 308 626 291 Q 632 284 632 253 L 628 115 L 628 113 L 626 23 L 626 12 L 624 -47 C 623 -77 677 -73 679 -43 Z" fill="red"></path>
				<path d="M 389 184 L 399 178 L 425 172 Q 435 170 442 170 Q 449 170 492 178 L 549 186 L 591 193 L 620 199 Q 628 201 628 207 Q 628 212 622 217 Q 582 242 540 228 L 512 220 Q 469 213 464 212 L 452 210 Q 429 205 405 204 L 390 204 C 360 204 363 199 389 184 Z" fill="lightgray"></path>
				<path d="M 389 92 L 399 86 Q 403 82 421 80 Q 437 76 448 77 Q 458 77 492 84 L 549 92 L 591 100 L 620 104 L 628 113 L 628 115 L 622 124 Q 612 134 588 137 Q 564 140 552 137 Q 494 122 469 120 L 437 115 Q 418 111 405 111 L 391 109 L 389 109 C 365 106 365 106 389 92 Z" fill="lightgray"></path>
				<path d="M 387 -4 L 397 -10 Q 401 -13 420 -16 Q 439 -19 447 -19 Q 455 -18 489 -11 L 547 -3 L 617 8 L 626 12 C 635 16 635 16 626 23 Q 617 32 596 40 Q 575 47 559 43 L 538 38 Q 532 36 473 24 L 435 16 Q 414 13 403 13 L 390 12 L 387 12 C 362 11 362 11 387 -4 Z" fill="lightgray"></path>
				<path d="M 316 -69 L 304 -70 L 212 -76 L 155 -78 L 135 -78 Q 111 -80 121 -95 Q 126 -107 139 -114 L 163 -126 L 173 -130 Q 192 -138 199.5 -138.5 Q 207 -139 226 -134 Q 255 -124 412 -102 Q 427 -100 527 -96 Q 627 -92 718 -92 L 787 -92 Q 838 -92 848 -93 L 886 -94 Q 931 -96 941 -90 Q 951 -86 953 -77.5 Q 955 -69 942 -60 Q 914 -38 890 -32 Q 882 -28 871.5 -27.5 Q 861 -27 823 -30 L 792 -34 L 706 -42 Q 687 -42 679 -43 L 624 -47 L 578 -50 L 538 -54 L 387 -63 L 343 -68 Q 323 -68 316 -69 Z" fill="lightgray"></path>
</g>
		<text x="40" y="140" font-size="128" fill="#999999">9</text></g>
		<g id="id1:id4:id4" transform="matrix(1.0,0,0,1.0,4096,0.0)">			<g stroke="lightgray" stroke-width="4" transform="scale(4, 4)"> <rect x="0" y="0" width="256" height="256" fill="white" stroke-width="4"/></g>
			<g transform="scale(0.92, -0.92) translate(60, -920)">					<path d="M 299 690 L 278 694 L 255 700 Q 245 700 241 702 Q 228 702 227 698 Q 225 693 229 689 L 231 688 Q 232 686 240 680 Q 248 674 255 660 Q 261 651 264 636 L 280 558 Q 285 531 289 514 Q 293 496 301 489 Q 308 482 312 483 Q 317 485 322 493 L 328 505 L 339 539 L 335 578 L 335 580 Q 333 582 333 590 L 321 660 C 316 687 316 687 299 690 Z" fill="black"></path>
				<path d="M 701 534 L 714 522 Q 721 512 734 520 Q 746 528 752 544 L 786 617 Q 796 638 818 663 Q 840 687 839 693 Q 838 699 824 711 Q 808 721 781 731 Q 754 741 745 741 L 621 725 Q 526 712 517 712 L 412 700 L 299 690 C 269 687 291 656 321 660 L 358 665 Q 367 666 403 671 L 436 678 L 515 683 Q 521 685 533 685 L 553 685 L 582 689 L 685 694 Q 696 694 712 692 Q 728 688 728 669 L 726 657 Q 726 647 724 643 L 712 583 L 706 564 C 698 537 698 537 701 534 Z" fill="black"></path>
				<path d="M 403 671 L 412 663 Q 420 655 425 640 L 434 604 Q 438 571 445 548 C 453 519 475 520 475 550 L 475 589 L 477 618 Q 477 635 479 641 L 479 644 Q 481 658 470 664 L 436 678 C 408 689 381 691 403 671 Z" fill="black"></path>
				<path d="M 553 685 L 555 673 Q 558 651 551 614 L 547 585 L 540 560 C 532 531 551 539 567 564 L 578 581 L 599 621 L 614 645 Q 620 654 620 658 Q 620 662 610 672 Q 599 682 582 689 C 555 701 550 703 553 685 Z" fill="black"></path>
				<path d="M 498 519 L 521 521 L 584 526 Q 661 533 675 533 L 701 534 C 731 535 733 552 706 564 L 690 571 Q 675 577 630 571 L 597 567 L 567 564 L 540 560 L 475 550 L 445 548 L 339 539 C 309 536 298 505 328 505 L 343 505 Q 348 504 375 507 L 450 514 L 475 517 L 498 519 Z" fill="black"></path>
				<path d="M 521 400 L 535 402 L 641 413 L 730 420 Q 742 422 771 422 L 802 424 Q 827 424 830 425 L 861 429 Q 871 430 872.5 433 Q 874 436 869 445 Q 864 454 840 462 L 819 471 Q 804 476 784 474 L 763 470 L 614 446 Q 605 445 597 445 L 569 442 Q 557 440 540 439 L 473 431 L 441 428 L 428 426 Q 416 426 410 424 L 243 404 Q 219 400 206 399 Q 193 398 191 395.5 Q 189 393 194 387 Q 199 381 222 371 Q 245 361 267 362 L 284 365 L 321 374 L 370 382 Q 430 391 469 394 L 521 400 Z" fill="black"></path>
				<path d="M 471 310 L 515 387 Q 518 393 521 400 L 540 439 L 556 462 Q 561 470 561 475 Q 561 480 553 488 Q 544 500 534 504 Q 527 510 517 514 Q 506 517 504 517 L 498 519 C 475 526 475 526 475 517 L 475 476 L 473 431 L 469 394 L 465 374 Q 461 353 456 335 L 445 306 C 434 278 456 284 471 310 Z" fill="black"></path>
				<path d="M 395 300 L 347 317 Q 334 322 325 318 Q 316 314 315 311 Q 314 308 321 292 Q 328 275 329 246 L 333 202 L 343 -68 C 344 -98 387 -93 387 -63 L 387 -4 L 387 12 L 389 92 L 389 109 L 389 184 L 390 204 L 391 273 C 391 301 399 299 395 300 Z" fill="black"></path>
				<path d="M 679 -43 L 697 224 Q 698 251 708 269 Q 717 286 718 294 Q 718 301 707 311 Q 687 331 646 343 L 634 346 Q 630 347 625 347 L 534 323 L 483 312 Q 483 313 471 310 L 445 306 L 421 303 Q 417 302 395 300 C 365 297 361 271 391 273 L 418 275 Q 440 275 558 296 Q 611 308 626 291 Q 632 284 632 253 L 628 115 L 628 113 L 626 23 L 626 12 L 624 -47 C 623 -77 677 -73 679 -43 Z" fill="black"></path>
				<path d="M 389 184 L 399 178 L 425 172 Q 435 170 442 170 Q 449 170 492 178 L 549 186 L 591 193 L 620 199 Q 628 201 628 207 Q 628 212 622 217 Q 582 242 540 228 L 512 220 Q 469 213 464 212 L 452 210 Q 429 205 405 204 L 390 204 C 360 204 363 199 389 184 Z" fill="red"></path>
				<path d="M 389 92 L 399 86 Q 403 82 421 80 Q 437 76 448 77 Q 458 77 492 84 L 549 92 L 591 100 L 620 104 L 628 113 L 628 115 L 622 124 Q 612 134 588 137 Q 564 140 552 137 Q 494 122 469 120 L 437 115 Q 418 111 405 111 L 391 109 L 389 109 C 365 106 365 106 389 92 Z" fill="lightgray"></path>
				<path d="M 387 -4 L 397 -10 Q 401 -13 420 -16 Q 439 -19 447 -19 Q 455 -18 489 -11 L 547 -3 L 617 8 L 626 12 C 635 16 635 16 626 23 Q 617 32 596 40 Q 575 47 559 43 L 538 38 Q 532 36 473 24 L 435 16 Q 414 13 403 13 L 390 12 L 387 12 C 362 11 362 11 387 -4 Z" fill="lightgray"></path>
				<path d="M 316 -69 L 304 -70 L 212 -76 L 155 -78 L 135 -78 Q 111 -80 121 -95 Q 126 -107 139 -114 L 163 -126 L 173 -130 Q 192 -138 199.5 -138.5 Q 207 -139 226 -134 Q 255 -124 412 -102 Q 427 -100 527 -96 Q 627 -92 718 -92 L 787 -92 Q 838 -92 848 -93 L 886 -94 Q 931 -96 941 -90 Q 951 -86 953 -77.5 Q 955 -69 942 -60 Q 914 -38 890 -32 Q 882 -28 871.5 -27.5 Q 861 -27 823 -30 L 792 -34 L 706 -42 Q 687 -42 679 -43 L 624 -47 L 578 -50 L 538 -54 L 387 -63 L 343 -68 Q 323 -68 316 -69 Z" fill="lightgray"></path>
</g>
		<text x="40" y="140" font-size="128" fill="#999999">10</text></g>
</g>
	<g id="id2:id2" transform="translate(0.0,2048)">
		<g id="id2:id0:id0" transform="matrix(1.0,0,0,1.0,0,0.0)">			<g stroke="lightgray" stroke-width="4" transform="scale(4, 4)"> <rect x="0" y="0" width="256" height="256" fill="white" stroke-width="4"/></g>
			<g transform="scale(0.92, -0.92) translate(60, -920)">					<path d="M 299 690 L 278 694 L 255 700 Q 245 700 241 702 Q 228 702 227 698 Q 225 693 229 689 L 231 688 Q 232 686 240 680 Q 248 674 255 660 Q 261 651 264 636 L 280 558 Q 285 531 289 514 Q 293 496 301 489 Q 308 482 312 483 Q 317 485 322 493 L 328 505 L 339 539 L 335 578 L 335 580 Q 333 582 333 590 L 321 660 C 316 687 316 687 299 690 Z" fill="black"></path>
				<path d="M 701 534 L 714 522 Q 721 512 734 520 Q 746 528 752 544 L 786 617 Q 796 638 818 663 Q 840 687 839 693 Q 838 699 824 711 Q 808 721 781 731 Q 754 741 745 741 L 621 725 Q 526 712 517 712 L 412 700 L 299 690 C 269 687 291 656 321 660 L 358 665 Q 367 666 403 671 L 436 678 L 515 683 Q 521 685 533 685 L 553 685 L 582 689 L 685 694 Q 696 694 712 692 Q 728 688 728 669 L 726 657 Q 726 647 724 643 L 712 583 L 706 564 C 698 537 698 537 701 534 Z" fill="black"></path>
				<path d="M 403 671 L 412 663 Q 420 655 425 640 L 434 604 Q 438 571 445 548 C 453 519 475 520 475 550 L 475 589 L 477 618 Q 477 635 479 641 L 479 644 Q 481 658 470 664 L 436 678 C 408 689 381 691 403 671 Z" fill="black"></path>
				<path d="M 553 685 L 555 673 Q 558 651 551 614 L 547 585 L 540 560 C 532 531 551 539 567 564 L 578 581 L 599 621 L 614 645 Q 620 654 620 658 Q 620 662 610 672 Q 599 682 582 689 C 555 701 550 703 553 685 Z" fill="black"></path>
				<path d="M 498 519 L 521 521 L 584 526 Q 661 533 675 533 L 701 534 C 731 535 733 552 706 564 L 690 571 Q 675 577 630 571 L 597 567 L 567 564 L 540 560 L 475 550 L 445 548 L 339 539 C 309 536 298 505 328 505 L 343 505 Q 348 504 375 507 L 450 514 L 475 517 L 498 519 Z" fill="black"></path>
				<path d="M 521 400 L 535 402 L 641 413 L 730 420 Q 742 422 771 422 L 802 424 Q 827 424 830 425 L 861 429 Q 871 430 872.5 433 Q 874 436 869 445 Q 864 454 840 462 L 819 471 Q 804 476 784 474 L 763 470 L 614 446 Q 605 445 597 445 L 569 442 Q 557 440 540 439 L 473 431 L 441 428 L 428 426 Q 416 426 410 424 L 243 404 Q 219 400 206 399 Q 193 398 191 395.5 Q 189 393 194 387 Q 199 381 222 371 Q 245 361 267 362 L 284 365 L 321 374 L 370 382 Q 430 391 469 394 L 521 400 Z" fill="black"></path>
				<path d="M 471 310 L 515 387 Q 518 393 521 400 L 540 439 L 556 462 Q 561 470 561 475 Q 561 480 553 488 Q 544 500 534 504 Q 527 510 517 514 Q 506 517 504 517 L 498 519 C 475 526 475 526 475 517 L 475 476 L 473 431 L 469 394 L 465 374 Q 461 353 456 335 L 445 306 C 434 278 456 284 471 310 Z" fill="black"></path>
				<path d="M 395 300 L 347 317 Q 334 322 325 318 Q 316 314 315 311 Q 314 308 321 292 Q 328 275 329 246 L 333 202 L 343 -68 C 344 -98 387 -93 387 -63 L 387 -4 L 387 12 L 389 92 L 389 109 L 389 184 L 390 204 L 391 273 C 391 301 399 299 395 300 Z" fill="black"></path>
				<path d="M 679 -43 L 697 224 Q 698 251 708 269 Q 717 286 718 294 Q 718 301 707 311 Q 687 331 646 343 L 634 346 Q 630 347 625 347 L 534 323 L 483 312 Q 483 313 471 310 L 445 306 L 421 303 Q 417 302 395 300 C 365 297 361 271 391 273 L 418 275 Q 440 275 558 296 Q 611 308 626 291 Q 632 284 632 253 L 628 115 L 628 113 L 626 23 L 626 12 L 624 -47 C 623 -77 677 -73 679 -43 Z" fill="black"></path>
				<path d="M 389 184 L 399 178 L 425 172 Q 435 170 442 170 Q 449 170 492 178 L 549 186 L 591 193 L 620 199 Q 628 201 628 207 Q 628 212 622 217 Q 582 242 540 228 L 512 220 Q 469 213 464 212 L 452 210 Q 429 205 405 204 L 390 204 C 360 204 363 199 389 184 Z" fill="black"></path>
				<path d="M 389 92 L 399 86 Q 403 82 421 80 Q 437 76 448 77 Q 458 77 492 84 L 549 92 L 591 100 L 620 104 L 628 113 L 628 115 L 622 124 Q 612 134 588 137 Q 564 140 552 137 Q 494 122 469 120 L 437 115 Q 418 111 405 111 L 391 109 L 389 109 C 365 106 365 106 389 92 Z" fill="red"></path>
				<path d="M 387 -4 L 397 -10 Q 401 -13 420 -16 Q 439 -19 447 -19 Q 455 -18 489 -11 L 547 -3 L 617 8 L 626 12 C 635 16 635 16 626 23 Q 617 32 596 40 Q 575 47 559 43 L 538 38 Q 532 36 473 24 L 435 16 Q 414 13 403 13 L 390 12 L 387 12 C 362 11 362 11 387 -4 Z" fill="lightgray"></path>
				<path d="M 316 -69 L 304 -70 L 212 -76 L 155 -78 L 135 -78 Q 111 -80 121 -95 Q 126 -107 139 -114 L 163 -126 L 173 -130 Q 192 -138 199.5 -138.5 Q 207 -139 226 -134 Q 255 -124 412 -102 Q 427 -100 527 -96 Q 627 -92 718 -92 L 787 -92 Q 838 -92 848 -93 L 886 -94 Q 931 -96 941 -90 Q 951 -86 953 -77.5 Q 955 -69 942 -60 Q 914 -38 890 -32 Q 882 -28 871.5 -27.5 Q 861 -27 823 -30 L 792 -34 L 706 -42 Q 687 -42 679 -43 L 624 -47 L 578 -50 L 538 -54 L 387 -63 L 343 -68 Q 323 -68 316 -69 Z" fill="lightgray"></path>
</g>
		<text x="40" y="140" font-size="128" fill="#999999">11</text></g>
		<g id="id2:id1:id1" transform="matrix(1.0,0,0,1.0,1024,0.0)">			<g stroke="lightgray" stroke-width="4" transform="scale(4, 4)"> <rect x="0" y="0" width="256" height="256" fill="white" stroke-width="4"/></g>
			<g transform="scale(0.92, -0.92) translate(60, -920)">					<path d="M 299 690 L 278 694 L 255 700 Q 245 700 241 702 Q 228 702 227 698 Q 225 693 229 689 L 231 688 Q 232 686 240 680 Q 248 674 255 660 Q 261 651 264 636 L 280 558 Q 285 531 289 514 Q 293 496 301 489 Q 308 482 312 483 Q 317 485 322 493 L 328 505 L 339 539 L 335 578 L 335 580 Q 333 582 333 590 L 321 660 C 316 687 316 687 299 690 Z" fill="black"></path>
				<path d="M 701 534 L 714 522 Q 721 512 734 520 Q 746 528 752 544 L 786 617 Q 796 638 818 663 Q 840 687 839 693 Q 838 699 824 711 Q 808 721 781 731 Q 754 741 745 741 L 621 725 Q 526 712 517 712 L 412 700 L 299 690 C 269 687 291 656 321 660 L 358 665 Q 367 666 403 671 L 436 678 L 515 683 Q 521 685 533 685 L 553 685 L 582 689 L 685 694 Q 696 694 712 692 Q 728 688 728 669 L 726 657 Q 726 647 724 643 L 712 583 L 706 564 C 698 537 698 537 701 534 Z" fill="black"></path>
				<path d="M 403 671 L 412 663 Q 420 655 425 640 L 434 604 Q 438 571 445 548 C 453 519 475 520 475 550 L 475 589 L 477 618 Q 477 635 479 641 L 479 644 Q 481 658 470 664 L 436 678 C 408 689 381 691 403 671 Z" fill="black"></path>
				<path d="M 553 685 L 555 673 Q 558 651 551 614 L 547 585 L 540 560 C 532 531 551 539 567 564 L 578 581 L 599 621 L 614 645 Q 620 654 620 658 Q 620 662 610 672 Q 599 682 582 689 C 555 701 550 703 553 685 Z" fill="black"></path>
				<path d="M 498 519 L 521 521 L 584 526 Q 661 533 675 533 L 701 534 C 731 535 733 552 706 564 L 690 571 Q 675 577 630 571 L 597 567 L 567 564 L 540 560 L 475 550 L 445 548 L 339 539 C 309 536 298 505 328 505 L 343 505 Q 348 504 375 507 L 450 514 L 475 517 L 498 519 Z" fill="black"></path>
				<path d="M 521 400 L 535 402 L 641 413 L 730 420 Q 742 422 771 422 L 802 424 Q 827 424 830 425 L 861 429 Q 871 430 872.5 433 Q 874 436 869 445 Q 864 454 840 462 L 819 471 Q 804 476 784 474 L 763 470 L 614 446 Q 605 445 597 445 L 569 442 Q 557 440 540 439 L 473 431 L 441 428 L 428 426 Q 416 426 410 424 L 243 404 Q 219 400 206 399 Q 193 398 191 395.5 Q 189 393 194 387 Q 199 381 222 371 Q 245 361 267 362 L 284 365 L 321 374 L 370 382 Q 430 391 469 394 L 521 400 Z" fill="black"></path>
				<path d="M 471 310 L 515 387 Q 518 393 521 400 L 540 439 L 556 462 Q 561 470 561 475 Q 561 480 553 488 Q 544 500 534 504 Q 527 510 517 514 Q 506 517 504 517 L 498 519 C 475 526 475 526 475 517 L 475 476 L 473 431 L 469 394 L 465 374 Q 461 353 456 335 L 445 306 C 434 278 456 284 471 310 Z" fill="black"></path>
				<path d="M 395 300 L 347 317 Q 334 322 325 318 Q 316 314 315 311 Q 314 308 321 292 Q 328 275 329 246 L 333 202 L 343 -68 C 344 -98 387 -93 387 -63 L 387 -4 L 387 12 L 389 92 L 389 109 L 389 184 L 390 204 L 391 273 C 391 301 399 299 395 300 Z" fill="black"></path>
				<path d="M 679 -43 L 697 224 Q 698 251 708 269 Q 717 286 718 294 Q 718 301 707 311 Q 687 331 646 343 L 634 346 Q 630 347 625 347 L 534 323 L 483 312 Q 483 313 471 310 L 445 306 L 421 303 Q 417 302 395 300 C 365 297 361 271 391 273 L 418 275 Q 440 275 558 296 Q 611 308 626 291 Q 632 284 632 253 L 628 115 L 628 113 L 626 23 L 626 12 L 624 -47 C 623 -77 677 -73 679 -43 Z" fill="black"></path>
				<path d="M 389 184 L 399 178 L 425 172 Q 435 170 442 170 Q 449 170 492 178 L 549 186 L 591 193 L 620 199 Q 628 201 628 207 Q 628 212 622 217 Q 582 242 540 228 L 512 220 Q 469 213 464 212 L 452 210 Q 429 205 405 204 L 390 204 C 360 204 363 199 389 184 Z" fill="black"></path>
				<path d="M 389 92 L 399 86 Q 403 82 421 80 Q 437 76 448 77 Q 458 77 492 84 L 549 92 L 591 100 L 620 104 L 628 113 L 628 115 L 622 124 Q 612 134 588 137 Q 564 140 552 137 Q 494 122 469 120 L 437 115 Q 418 111 405 111 L 391 109 L 389 109 C 365 106 365 106 389 92 Z" fill="black"></path>
				<path d="M 387 -4 L 397 -10 Q 401 -13 420 -16 Q 439 -19 447 -19 Q 455 -18 489 -11 L 547 -3 L 617 8 L 626 12 C 635 16 635 16 626 23 Q 617 32 596 40 Q 575 47 559 43 L 538 38 Q 532 36 473 24 L 435 16 Q 414 13 403 13 L 390 12 L 387 12 C 362 11 362 11 387 -4 Z" fill="red"></path>
				<path d="M 316 -69 L 304 -70 L 212 -76 L 155 -78 L 135 -78 Q 111 -80 121 -95 Q 126 -107 139 -114 L 163 -126 L 173 -130 Q 192 -138 199.5 -138.5 Q 207 -139 226 -134 Q 255 -124 412 -102 Q 427 -100 527 -96 Q 627 -92 718 -92 L 787 -92 Q 838 -92 848 -93 L 886 -94 Q 931 -96 941 -90 Q 951 -86 953 -77.5 Q 955 -69 942 -60 Q 914 -38 890 -32 Q 882 -28 871.5 -27.5 Q 861 -27 823 -30 L 792 -34 L 706 -42 Q 687 -42 679 -43 L 624 -47 L 578 -50 L 538 -54 L 387 -63 L 343 -68 Q 323 -68 316 -69 Z" fill="lightgray"></path>
</g>
		<text x="40" y="140" font-size="128" fill="#999999">12</text></g>
		<g id="id2:id2:id2" transform="matrix(1.0,0,0,1.0,2048,0.0)">			<g stroke="lightgray" stroke-width="4" transform="scale(4, 4)"> <rect x="0" y="0" width="256" height="256" fill="white" stroke-width="4"/></g>
			<g transform="scale(0.92, -0.92) translate(60, -920)">					<path d="M 299 690 L 278 694 L 255 700 Q 245 700 241 702 Q 228 702 227 698 Q 225 693 229 689 L 231 688 Q 232 686 240 680 Q 248 674 255 660 Q 261 651 264 636 L 280 558 Q 285 531 289 514 Q 293 496 301 489 Q 308 482 312 483 Q 317 485 322 493 L 328 505 L 339 539 L 335 578 L 335 580 Q 333 582 333 590 L 321 660 C 316 687 316 687 299 690 Z" fill="black"></path>
				<path d="M 701 534 L 714 522 Q 721 512 734 520 Q 746 528 752 544 L 786 617 Q 796 638 818 663 Q 840 687 839 693 Q 838 699 824 711 Q 808 721 781 731 Q 754 741 745 741 L 621 725 Q 526 712 517 712 L 412 700 L 299 690 C 269 687 291 656 321 660 L 358 665 Q 367 666 403 671 L 436 678 L 515 683 Q 521 685 533 685 L 553 685 L 582 689 L 685 694 Q 696 694 712 692 Q 728 688 728 669 L 726 657 Q 726 647 724 643 L 712 583 L 706 564 C 698 537 698 537 701 534 Z" fill="black"></path>
				<path d="M 403 671 L 412 663 Q 420 655 425 640 L 434 604 Q 438 571 445 548 C 453 519 475 520 475 550 L 475 589 L 477 618 Q 477 635 479 641 L 479 644 Q 481 658 470 664 L 436 678 C 408 689 381 691 403 671 Z" fill="black"></path>
				<path d="M 553 685 L 555 673 Q 558 651 551 614 L 547 585 L 540 560 C 532 531 551 539 567 564 L 578 581 L 599 621 L 614 645 Q 620 654 620 658 Q 620 662 610 672 Q 599 682 582 689 C 555 701 550 703 553 685 Z" fill="black"></path>
				<path d="M 498 519 L 521 521 L 584 526 Q 661 533 675 533 L 701 534 C 731 535 733 552 706 564 L 690 571 Q 675 577 630 571 L 597 567 L 567 564 L 540 560 L 475 550 L 445 548 L 339 539 C 309 536 298 505 328 505 L 343 505 Q 348 504 375 507 L 450 514 L 475 517 L 498 519 Z" fill="black"></path>
				<path d="M 521 400 L 535 402 L 641 413 L 730 420 Q 742 422 771 422 L 802 424 Q 827 424 830 425 L 861 429 Q 871 430 872.5 433 Q 874 436 869 445 Q 864 454 840 462 L 819 471 Q 804 476 784 474 L 763 470 L 614 446 Q 605 445 597 445 L 569 442 Q 557 440 540 439 L 473 431 L 441 428 L 428 426 Q 416 426 410 424 L 243 404 Q 219 400 206 399 Q 193 398 191 395.5 Q 189 393 194 387 Q 199 381 222 371 Q 245 361 267 362 L 284 365 L 321 374 L 370 382 Q 430 391 469 394 L 521 400 Z" fill="black"></path>
				<path d="M 471 310 L 515 387 Q 518 393 521 400 L 540 439 L 556 462 Q 561 470 561 475 Q 561 480 553 488 Q 544 500 534 504 Q 527 510 517 514 Q 506 517 504 517 L 498 519 C 475 526 475 526 475 517 L 475 476 L 473 431 L 469 394 L 465 374 Q 461 353 456 335 L 445 306 C 434 278 456 284 471 310 Z" fill="black"></path>
				<path d="M 395 300 L 347 317 Q 334 322 325 318 Q 316 314 315 311 Q 314 308 321 292 Q 328 275 329 246 L 333 202 L 343 -68 C 344 -98 387 -93 387 -63 L 387 -4 L 387 12 L 389 92 L 389 109 L 389 184 L 390 204 L 391 273 C 391 301 399 299 395 300 Z" fill="black"></path>
				<path d="M 679 -43 L 697 224 Q 698 251 708 269 Q 717 286 718 294 Q 718 301 707 311 Q 687 331 646 343 L 634 346 Q 630 347 625 347 L 534 323 L 483 312 Q 483 313 471 310 L 445 306 L 421 303 Q 417 302 395 300 C 365 297 361 271 391 273 L 418 275 Q 440 275 558 296 Q 611 308 626 291 Q 632 284 632 253 L 628 115 L 628 113 L 626 23 L 626 12 L 624 -47 C 623 -77 677 -73 679 -43 Z" fill="black"></path>
				<path d="M 389 184 L 399 178 L 425 172 Q 435 170 442 170 Q 449 170 492 178 L 549 186 L 591 193 L 620 199 Q 628 201 628 207 Q 628 212 622 217 Q 582 242 540 228 L 512 220 Q 469 213 464 212 L 452 210 Q 429 205 405 204 L 390 204 C 360 204 363 199 389 184 Z" fill="black"></path>
				<path d="M 389 92 L 399 86 Q 403 82 421 80 Q 437 76 448 77 Q 458 77 492 84 L 549 92 L 591 100 L 620 104 L 628 113 L 628 115 L 622 124 Q 612 134 588 137 Q 564 140 552 137 Q 494 122 469 120 L 437 115 Q 418 111 405 111 L 391 109 L 389 109 C 365 106 365 106 389 92 Z" fill="black"></path>
				<path d="M 387 -4 L 397 -10 Q 401 -13 420 -16 Q 439 -19 447 -19 Q 455 -18 489 -11 L 547 -3 L 617 8 L 626 12 C 635 16 635 16 626 23 Q 617 32 596 40 Q 575 47 559 43 L 538 38 Q 532 36 473 24 L 435 16 Q 414 13 403 13 L 390 12 L 387 12 C 362 11 362 11 387 -4 Z" fill="black"></path>
				<path d="M 316 -69 L 304 -70 L 212 -76 L 155 -78 L 135 -78 Q 111 -80 121 -95 Q 126 -107 139 -114 L 163 -126 L 173 -130 Q 192 -138 199.5 -138.5 Q 207 -139 226 -134 Q 255 -124 412 -102 Q 427 -100 527 -96 Q 627 -92 718 -92 L 787 -92 Q 838 -92 848 -93 L 886 -94 Q 931 -96 941 -90 Q 951 -86 953 -77.5 Q 955 -69 942 -60 Q 914 -38 890 -32 Q 882 -28 871.5 -27.5 Q 861 -27 823 -30 L 792 -34 L 706 -42 Q 687 -42 679 -43 L 624 -47 L 578 -50 L 538 -54 L 387 -63 L 343 -68 Q 323 -68 316 -69 Z" fill="red"></path>
</g>
		<text x="40" y="140" font-size="128" fill="#999999">13</text></g>
		<g id="id2:id3:id3" transform="matrix(1.0,0,0,1.0,3072,0.0)">			<g stroke="white" stroke-width="4" transform="scale(4, 4)"> <rect x="1" y="1" width="255" height="255" fill="white" stroke-width="0"/></g>
</g>
		<g id="id2:id4:id4" transform="matrix(1.0,0,0,1.0,4096,0.0)">			<g stroke="white" stroke-width="4" transform="scale(4, 4)"> <rect x="1" y="1" width="255" height="255" fill="white" stroke-width="0"/></g>
</g>
</g>
</svg>
