<?xml version="1.0" standalone="no"?>
<!DOCTYPE svg PUBLIC "-//W3C//DTD SVG 1.1//EN"
 "http://www.w3.org/Graphics/SVG/1.1/DTD/svg11.dtd">
<!-- generate by Japanese dictionary app com.asnsami.kanjidictionary -->

<svg xmlns="http://www.w3.org/2000/svg" xmlns:sodipodi="http://sodipodi.sourceforge.net/DTD/sodipodi-0.dtd" version="1.1" width="640" height="384" viewBox="0 0 5120 3072">
	<g id="id0:id0" transform="translate(0.0,0)">
		<g id="id0:id0:id0" transform="matrix(1.0,0,0,1.0,0,0.0)">			<g stroke="lightgray" stroke-width="4" transform="scale(4, 4)"> <rect x="0" y="0" width="256" height="256" fill="white" stroke-width="4"/></g>
			<g transform="scale(0.92, -0.92) translate(60, -920)">					<path d="M 202 584 L 179 591 Q 151 599 145 592 Q 140 590 143 580 L 151 563 Q 156 545 156 538 L 161 502 L 164 436 Q 164 198 132 95 Q 112 17 73 -48 L 59 -68 Q 54 -77 57 -80 Q 61 -84 69 -76 L 119 -27 Q 136 -7 147 13 Q 158 32 175 88 Q 192 143 195 161 L 199 184 L 201 200 L 207 287 Q 209 292 209 306 L 212 390 L 212 410 L 212 457 Q 212 480 213 488 L 219 552 C 221 575 221 575 214 578 L 202 584 Z" fill="red"></path>
				<path d="M 321 248 L 316 111 Q 316 92 315 87 L 310 42 Q 307 6 292 -2 Q 287 -6 268 0 L 224 16 Q 216 17 214 15 Q 212 12 215 9 L 234 -8 L 253 -30 Q 258 -38 273 -54 L 288 -75 Q 299 -91 310 -94 Q 325 -94 339 -75 Q 354 -56 360 -43 Q 372 -21 372 54 L 371 214 Q 369 239 371 296 L 371 392 Q 370 469 372 479 Q 374 489 374 499 L 374 516 L 378 540 Q 380 542 385 554 Q 390 566 390 570 Q 391 573 384 582 Q 372 593 353 604 Q 334 615 326 614 Q 318 612 302 606 L 277 594 L 214 578 C 185 571 190 546 219 552 L 261 561 Q 306 569 310 565 Q 317 561 317 532 L 319 372 L 319 361 L 321 272 L 321 248 Z" fill="lightgray"></path>
				<path d="M 212 390 L 260 348 Q 272 336 279 332 Q 286 328 295 332 Q 310 335 319 361 C 322 369 322 369 319 372 L 310 382 Q 305 387 295 393 Q 276 401 266 403 L 224 410 L 212 410 C 189 410 189 410 212 390 Z" fill="lightgray"></path>
				<path d="M 199 184 L 207 170 L 235 144 L 245 141 Q 247 141 254 150 L 258 161 Q 258 163 261 166 L 321 248 C 339 272 344 291 321 272 L 269 230 Q 260 224 248 220 Q 235 211 228 209 Q 222 207 201 200 C 192 197 192 197 199 184 Z" fill="lightgray"></path>
				<path d="M 671 451 L 674 585 L 677 624 Q 678 631 678 645 Q 678 658 685 671 Q 693 684 693 690 Q 693 695 683 702 Q 673 708 650 718 Q 627 727 611 725 Q 596 722 594 716 Q 592 709 596 703 L 604 691 Q 612 671 614 630 L 618 446 C 619 416 670 421 671 451 Z" fill="lightgray"></path>
				<path d="M 473 558 L 505 509 Q 509 500 521 494 Q 542 480 552 496 Q 558 501 561 517 Q 570 559 509 578 Q 479 588 470 590 Q 461 591 458 587 Q 456 582 473 558 Z" fill="lightgray"></path>
				<path d="M 720 508 L 748 520 Q 752 520 768 529 Q 785 537 815 548 L 836 554 Q 847 559 857 560 L 869 564 L 872 572 Q 872 578 865 591 Q 858 603 849 609 Q 811 639 799 637 Q 795 637 792 634 L 776 595 L 755 564 L 734 540 L 712 520 Q 705 511 707 507 Q 709 503 720 508 Z" fill="lightgray"></path>
				<path d="M 455 433 L 450 446 Q 447 454 441 458 Q 429 469 422 445 L 408 388 L 393 351 L 389 329 Q 386 309 408 294 Q 420 289 425 291 Q 431 292 439 304 Q 447 320 451 332 Q 461 376 460 383 L 460 403 L 455 433 Z" fill="lightgray"></path>
				<path d="M 727 457 L 671 451 L 618 446 L 582 442 Q 581 441 538 438 L 490 435 Q 484 433 472 433 L 455 433 C 425 433 430 407 460 403 L 485 400 Q 489 398 516 403 L 640 421 L 811 438 Q 832 440 841 440 L 857 440 Q 877 441 845 388 L 827 356 Q 822 349 825 344 Q 828 341 836 346 L 857 357 Q 859 359 862 359 L 910 378 Q 916 380 932 381 Q 949 382 955 388 Q 959 388 964 396 Q 967 414 941 440 Q 910 466 891 475 Q 881 478 875 478 L 765 461 Q 763 460 727 457 Z" fill="lightgray"></path>
				<path d="M 535 332 L 522 336 L 506 339 Q 487 342 481 336 Q 475 330 479 327 L 492 316 Q 496 311 508 289 L 525 211 Q 528 189 539 180 Q 553 172 559 181 L 567 192 C 571 197 571 197 567 223 L 554 310 C 551 327 551 327 535 332 Z" fill="lightgray"></path>
				<path d="M 749 234 L 760 256 Q 777 292 789 304 L 803 317 Q 822 328 792 347 Q 763 366 748 366 L 703 357 L 535 332 C 505 328 524 306 554 310 L 656 322 Q 699 326 705 328 Q 723 328 726 322 Q 728 317 725 300 L 719 272 Q 720 270 710 241 C 700 213 736 207 749 234 Z" fill="lightgray"></path>
				<path d="M 667 198 L 749 206 Q 765 206 770 211 Q 771 214 763 222 L 749 234 C 739 243 739 243 710 241 L 693 240 Q 681 240 652 234 L 567 223 C 537 219 537 191 567 192 L 590 193 Q 599 193 602 192 L 667 198 Z" fill="lightgray"></path>
				<path d="M 681 80 L 713 84 L 782 97 Q 804 100 804 112 Q 804 116 796 122 Q 788 128 773 133 Q 758 137 752 137 L 706 126 Q 694 126 682 122 L 619 111 L 594 106 L 558 102 L 545 102 Q 540 102 536 100 L 502 97 Q 476 95 496 74 Q 507 64 544 64 L 621 72 L 681 80 Z" fill="lightgray"></path>
				<path d="M 677 -18 L 681 80 L 682 122 L 685 140 Q 685 142 689 151 L 693 164 Q 696 183 675 193 L 667 198 C 642 214 589 219 602 192 L 609 178 Q 614 170 616 141 L 619 111 L 621 72 L 622 -22 C 622 -52 676 -48 677 -18 Z" fill="lightgray"></path>
				<path d="M 411 -71 L 422 -78 L 442 -84 Q 459 -91 476 -84 Q 494 -78 525 -75 L 578 -68 L 739 -57 Q 787 -54 847 -57 Q 907 -60 913 -59 L 945 -57 Q 947 -57 956 -53 Q 966 -50 956 -36 Q 947 -23 917 -10 Q 888 2 881 2 Q 874 2 809 -6 L 714 -16 Q 710 -18 697 -18 L 677 -18 L 622 -22 L 592 -26 Q 555 -32 493 -36 L 403 -40 Q 389 -41 386 -44 Q 383 -48 388 -55 Q 393 -62 404 -68 Q 408 -68 411 -71 Z" fill="lightgray"></path>
</g>
		<text x="40" y="140" font-size="128" fill="#999999">1</text></g>
		<g id="id0:id1:id1" transform="matrix(1.0,0,0,1.0,1024,0.0)">			<g stroke="lightgray" stroke-width="4" transform="scale(4, 4)"> <rect x="0" y="0" width="256" height="256" fill="white" stroke-width="4"/></g>
			<g transform="scale(0.92, -0.92) translate(60, -920)">					<path d="M 202 584 L 179 591 Q 151 599 145 592 Q 140 590 143 580 L 151 563 Q 156 545 156 538 L 161 502 L 164 436 Q 164 198 132 95 Q 112 17 73 -48 L 59 -68 Q 54 -77 57 -80 Q 61 -84 69 -76 L 119 -27 Q 136 -7 147 13 Q 158 32 175 88 Q 192 143 195 161 L 199 184 L 201 200 L 207 287 Q 209 292 209 306 L 212 390 L 212 410 L 212 457 Q 212 480 213 488 L 219 552 C 221 575 221 575 214 578 L 202 584 Z" fill="black"></path>
				<path d="M 321 248 L 316 111 Q 316 92 315 87 L 310 42 Q 307 6 292 -2 Q 287 -6 268 0 L 224 16 Q 216 17 214 15 Q 212 12 215 9 L 234 -8 L 253 -30 Q 258 -38 273 -54 L 288 -75 Q 299 -91 310 -94 Q 325 -94 339 -75 Q 354 -56 360 -43 Q 372 -21 372 54 L 371 214 Q 369 239 371 296 L 371 392 Q 370 469 372 479 Q 374 489 374 499 L 374 516 L 378 540 Q 380 542 385 554 Q 390 566 390 570 Q 391 573 384 582 Q 372 593 353 604 Q 334 615 326 614 Q 318 612 302 606 L 277 594 L 214 578 C 185 571 190 546 219 552 L 261 561 Q 306 569 310 565 Q 317 561 317 532 L 319 372 L 319 361 L 321 272 L 321 248 Z" fill="red"></path>
				<path d="M 212 390 L 260 348 Q 272 336 279 332 Q 286 328 295 332 Q 310 335 319 361 C 322 369 322 369 319 372 L 310 382 Q 305 387 295 393 Q 276 401 266 403 L 224 410 L 212 410 C 189 410 189 410 212 390 Z" fill="lightgray"></path>
				<path d="M 199 184 L 207 170 L 235 144 L 245 141 Q 247 141 254 150 L 258 161 Q 258 163 261 166 L 321 248 C 339 272 344 291 321 272 L 269 230 Q 260 224 248 220 Q 235 211 228 209 Q 222 207 201 200 C 192 197 192 197 199 184 Z" fill="lightgray"></path>
				<path d="M 671 451 L 674 585 L 677 624 Q 678 631 678 645 Q 678 658 685 671 Q 693 684 693 690 Q 693 695 683 702 Q 673 708 650 718 Q 627 727 611 725 Q 596 722 594 716 Q 592 709 596 703 L 604 691 Q 612 671 614 630 L 618 446 C 619 416 670 421 671 451 Z" fill="lightgray"></path>
				<path d="M 473 558 L 505 509 Q 509 500 521 494 Q 542 480 552 496 Q 558 501 561 517 Q 570 559 509 578 Q 479 588 470 590 Q 461 591 458 587 Q 456 582 473 558 Z" fill="lightgray"></path>
				<path d="M 720 508 L 748 520 Q 752 520 768 529 Q 785 537 815 548 L 836 554 Q 847 559 857 560 L 869 564 L 872 572 Q 872 578 865 591 Q 858 603 849 609 Q 811 639 799 637 Q 795 637 792 634 L 776 595 L 755 564 L 734 540 L 712 520 Q 705 511 707 507 Q 709 503 720 508 Z" fill="lightgray"></path>
				<path d="M 455 433 L 450 446 Q 447 454 441 458 Q 429 469 422 445 L 408 388 L 393 351 L 389 329 Q 386 309 408 294 Q 420 289 425 291 Q 431 292 439 304 Q 447 320 451 332 Q 461 376 460 383 L 460 403 L 455 433 Z" fill="lightgray"></path>
				<path d="M 727 457 L 671 451 L 618 446 L 582 442 Q 581 441 538 438 L 490 435 Q 484 433 472 433 L 455 433 C 425 433 430 407 460 403 L 485 400 Q 489 398 516 403 L 640 421 L 811 438 Q 832 440 841 440 L 857 440 Q 877 441 845 388 L 827 356 Q 822 349 825 344 Q 828 341 836 346 L 857 357 Q 859 359 862 359 L 910 378 Q 916 380 932 381 Q 949 382 955 388 Q 959 388 964 396 Q 967 414 941 440 Q 910 466 891 475 Q 881 478 875 478 L 765 461 Q 763 460 727 457 Z" fill="lightgray"></path>
				<path d="M 535 332 L 522 336 L 506 339 Q 487 342 481 336 Q 475 330 479 327 L 492 316 Q 496 311 508 289 L 525 211 Q 528 189 539 180 Q 553 172 559 181 L 567 192 C 571 197 571 197 567 223 L 554 310 C 551 327 551 327 535 332 Z" fill="lightgray"></path>
				<path d="M 749 234 L 760 256 Q 777 292 789 304 L 803 317 Q 822 328 792 347 Q 763 366 748 366 L 703 357 L 535 332 C 505 328 524 306 554 310 L 656 322 Q 699 326 705 328 Q 723 328 726 322 Q 728 317 725 300 L 719 272 Q 720 270 710 241 C 700 213 736 207 749 234 Z" fill="lightgray"></path>
				<path d="M 667 198 L 749 206 Q 765 206 770 211 Q 771 214 763 222 L 749 234 C 739 243 739 243 710 241 L 693 240 Q 681 240 652 234 L 567 223 C 537 219 537 191 567 192 L 590 193 Q 599 193 602 192 L 667 198 Z" fill="lightgray"></path>
				<path d="M 681 80 L 713 84 L 782 97 Q 804 100 804 112 Q 804 116 796 122 Q 788 128 773 133 Q 758 137 752 137 L 706 126 Q 694 126 682 122 L 619 111 L 594 106 L 558 102 L 545 102 Q 540 102 536 100 L 502 97 Q 476 95 496 74 Q 507 64 544 64 L 621 72 L 681 80 Z" fill="lightgray"></path>
				<path d="M 677 -18 L 681 80 L 682 122 L 685 140 Q 685 142 689 151 L 693 164 Q 696 183 675 193 L 667 198 C 642 214 589 219 602 192 L 609 178 Q 614 170 616 141 L 619 111 L 621 72 L 622 -22 C 622 -52 676 -48 677 -18 Z" fill="lightgray"></path>
				<path d="M 411 -71 L 422 -78 L 442 -84 Q 459 -91 476 -84 Q 494 -78 525 -75 L 578 -68 L 739 -57 Q 787 -54 847 -57 Q 907 -60 913 -59 L 945 -57 Q 947 -57 956 -53 Q 966 -50 956 -36 Q 947 -23 917 -10 Q 888 2 881 2 Q 874 2 809 -6 L 714 -16 Q 710 -18 697 -18 L 677 -18 L 622 -22 L 592 -26 Q 555 -32 493 -36 L 403 -40 Q 389 -41 386 -44 Q 383 -48 388 -55 Q 393 -62 404 -68 Q 408 -68 411 -71 Z" fill="lightgray"></path>
</g>
		<text x="40" y="140" font-size="128" fill="#999999">2</text></g>
		<g id="id0:id2:id2" transform="matrix(1.0,0,0,1.0,2048,0.0)">			<g stroke="lightgray" stroke-width="4" transform="scale(4, 4)"> <rect x="0" y="0" width="256" height="256" fill="white" stroke-width="4"/></g>
			<g transform="scale(0.92, -0.92) translate(60, -920)">					<path d="M 202 584 L 179 591 Q 151 599 145 592 Q 140 590 143 580 L 151 563 Q 156 545 156 538 L 161 502 L 164 436 Q 164 198 132 95 Q 112 17 73 -48 L 59 -68 Q 54 -77 57 -80 Q 61 -84 69 -76 L 119 -27 Q 136 -7 147 13 Q 158 32 175 88 Q 192 143 195 161 L 199 184 L 201 200 L 207 287 Q 209 292 209 306 L 212 390 L 212 410 L 212 457 Q 212 480 213 488 L 219 552 C 221 575 221 575 214 578 L 202 584 Z" fill="black"></path>
				<path d="M 321 248 L 316 111 Q 316 92 315 87 L 310 42 Q 307 6 292 -2 Q 287 -6 268 0 L 224 16 Q 216 17 214 15 Q 212 12 215 9 L 234 -8 L 253 -30 Q 258 -38 273 -54 L 288 -75 Q 299 -91 310 -94 Q 325 -94 339 -75 Q 354 -56 360 -43 Q 372 -21 372 54 L 371 214 Q 369 239 371 296 L 371 392 Q 370 469 372 479 Q 374 489 374 499 L 374 516 L 378 540 Q 380 542 385 554 Q 390 566 390 570 Q 391 573 384 582 Q 372 593 353 604 Q 334 615 326 614 Q 318 612 302 606 L 277 594 L 214 578 C 185 571 190 546 219 552 L 261 561 Q 306 569 310 565 Q 317 561 317 532 L 319 372 L 319 361 L 321 272 L 321 248 Z" fill="black"></path>
				<path d="M 212 390 L 260 348 Q 272 336 279 332 Q 286 328 295 332 Q 310 335 319 361 C 322 369 322 369 319 372 L 310 382 Q 305 387 295 393 Q 276 401 266 403 L 224 410 L 212 410 C 189 410 189 410 212 390 Z" fill="red"></path>
				<path d="M 199 184 L 207 170 L 235 144 L 245 141 Q 247 141 254 150 L 258 161 Q 258 163 261 166 L 321 248 C 339 272 344 291 321 272 L 269 230 Q 260 224 248 220 Q 235 211 228 209 Q 222 207 201 200 C 192 197 192 197 199 184 Z" fill="lightgray"></path>
				<path d="M 671 451 L 674 585 L 677 624 Q 678 631 678 645 Q 678 658 685 671 Q 693 684 693 690 Q 693 695 683 702 Q 673 708 650 718 Q 627 727 611 725 Q 596 722 594 716 Q 592 709 596 703 L 604 691 Q 612 671 614 630 L 618 446 C 619 416 670 421 671 451 Z" fill="lightgray"></path>
				<path d="M 473 558 L 505 509 Q 509 500 521 494 Q 542 480 552 496 Q 558 501 561 517 Q 570 559 509 578 Q 479 588 470 590 Q 461 591 458 587 Q 456 582 473 558 Z" fill="lightgray"></path>
				<path d="M 720 508 L 748 520 Q 752 520 768 529 Q 785 537 815 548 L 836 554 Q 847 559 857 560 L 869 564 L 872 572 Q 872 578 865 591 Q 858 603 849 609 Q 811 639 799 637 Q 795 637 792 634 L 776 595 L 755 564 L 734 540 L 712 520 Q 705 511 707 507 Q 709 503 720 508 Z" fill="lightgray"></path>
				<path d="M 455 433 L 450 446 Q 447 454 441 458 Q 429 469 422 445 L 408 388 L 393 351 L 389 329 Q 386 309 408 294 Q 420 289 425 291 Q 431 292 439 304 Q 447 320 451 332 Q 461 376 460 383 L 460 403 L 455 433 Z" fill="lightgray"></path>
				<path d="M 727 457 L 671 451 L 618 446 L 582 442 Q 581 441 538 438 L 490 435 Q 484 433 472 433 L 455 433 C 425 433 430 407 460 403 L 485 400 Q 489 398 516 403 L 640 421 L 811 438 Q 832 440 841 440 L 857 440 Q 877 441 845 388 L 827 356 Q 822 349 825 344 Q 828 341 836 346 L 857 357 Q 859 359 862 359 L 910 378 Q 916 380 932 381 Q 949 382 955 388 Q 959 388 964 396 Q 967 414 941 440 Q 910 466 891 475 Q 881 478 875 478 L 765 461 Q 763 460 727 457 Z" fill="lightgray"></path>
				<path d="M 535 332 L 522 336 L 506 339 Q 487 342 481 336 Q 475 330 479 327 L 492 316 Q 496 311 508 289 L 525 211 Q 528 189 539 180 Q 553 172 559 181 L 567 192 C 571 197 571 197 567 223 L 554 310 C 551 327 551 327 535 332 Z" fill="lightgray"></path>
				<path d="M 749 234 L 760 256 Q 777 292 789 304 L 803 317 Q 822 328 792 347 Q 763 366 748 366 L 703 357 L 535 332 C 505 328 524 306 554 310 L 656 322 Q 699 326 705 328 Q 723 328 726 322 Q 728 317 725 300 L 719 272 Q 720 270 710 241 C 700 213 736 207 749 234 Z" fill="lightgray"></path>
				<path d="M 667 198 L 749 206 Q 765 206 770 211 Q 771 214 763 222 L 749 234 C 739 243 739 243 710 241 L 693 240 Q 681 240 652 234 L 567 223 C 537 219 537 191 567 192 L 590 193 Q 599 193 602 192 L 667 198 Z" fill="lightgray"></path>
				<path d="M 681 80 L 713 84 L 782 97 Q 804 100 804 112 Q 804 116 796 122 Q 788 128 773 133 Q 758 137 752 137 L 706 126 Q 694 126 682 122 L 619 111 L 594 106 L 558 102 L 545 102 Q 540 102 536 100 L 502 97 Q 476 95 496 74 Q 507 64 544 64 L 621 72 L 681 80 Z" fill="lightgray"></path>
				<path d="M 677 -18 L 681 80 L 682 122 L 685 140 Q 685 142 689 151 L 693 164 Q 696 183 675 193 L 667 198 C 642 214 589 219 602 192 L 609 178 Q 614 170 616 141 L 619 111 L 621 72 L 622 -22 C 622 -52 676 -48 677 -18 Z" fill="lightgray"></path>
				<path d="M 411 -71 L 422 -78 L 442 -84 Q 459 -91 476 -84 Q 494 -78 525 -75 L 578 -68 L 739 -57 Q 787 -54 847 -57 Q 907 -60 913 -59 L 945 -57 Q 947 -57 956 -53 Q 966 -50 956 -36 Q 947 -23 917 -10 Q 888 2 881 2 Q 874 2 809 -6 L 714 -16 Q 710 -18 697 -18 L 677 -18 L 622 -22 L 592 -26 Q 555 -32 493 -36 L 403 -40 Q 389 -41 386 -44 Q 383 -48 388 -55 Q 393 -62 404 -68 Q 408 -68 411 -71 Z" fill="lightgray"></path>
</g>
		<text x="40" y="140" font-size="128" fill="#999999">3</text></g>
		<g id="id0:id3:id3" transform="matrix(1.0,0,0,1.0,3072,0.0)">			<g stroke="lightgray" stroke-width="4" transform="scale(4, 4)"> <rect x="0" y="0" width="256" height="256" fill="white" stroke-width="4"/></g>
			<g transform="scale(0.92, -0.92) translate(60, -920)">					<path d="M 202 584 L 179 591 Q 151 599 145 592 Q 140 590 143 580 L 151 563 Q 156 545 156 538 L 161 502 L 164 436 Q 164 198 132 95 Q 112 17 73 -48 L 59 -68 Q 54 -77 57 -80 Q 61 -84 69 -76 L 119 -27 Q 136 -7 147 13 Q 158 32 175 88 Q 192 143 195 161 L 199 184 L 201 200 L 207 287 Q 209 292 209 306 L 212 390 L 212 410 L 212 457 Q 212 480 213 488 L 219 552 C 221 575 221 575 214 578 L 202 584 Z" fill="black"></path>
				<path d="M 321 248 L 316 111 Q 316 92 315 87 L 310 42 Q 307 6 292 -2 Q 287 -6 268 0 L 224 16 Q 216 17 214 15 Q 212 12 215 9 L 234 -8 L 253 -30 Q 258 -38 273 -54 L 288 -75 Q 299 -91 310 -94 Q 325 -94 339 -75 Q 354 -56 360 -43 Q 372 -21 372 54 L 371 214 Q 369 239 371 296 L 371 392 Q 370 469 372 479 Q 374 489 374 499 L 374 516 L 378 540 Q 380 542 385 554 Q 390 566 390 570 Q 391 573 384 582 Q 372 593 353 604 Q 334 615 326 614 Q 318 612 302 606 L 277 594 L 214 578 C 185 571 190 546 219 552 L 261 561 Q 306 569 310 565 Q 317 561 317 532 L 319 372 L 319 361 L 321 272 L 321 248 Z" fill="black"></path>
				<path d="M 212 390 L 260 348 Q 272 336 279 332 Q 286 328 295 332 Q 310 335 319 361 C 322 369 322 369 319 372 L 310 382 Q 305 387 295 393 Q 276 401 266 403 L 224 410 L 212 410 C 189 410 189 410 212 390 Z" fill="black"></path>
				<path d="M 199 184 L 207 170 L 235 144 L 245 141 Q 247 141 254 150 L 258 161 Q 258 163 261 166 L 321 248 C 339 272 344 291 321 272 L 269 230 Q 260 224 248 220 Q 235 211 228 209 Q 222 207 201 200 C 192 197 192 197 199 184 Z" fill="red"></path>
				<path d="M 671 451 L 674 585 L 677 624 Q 678 631 678 645 Q 678 658 685 671 Q 693 684 693 690 Q 693 695 683 702 Q 673 708 650 718 Q 627 727 611 725 Q 596 722 594 716 Q 592 709 596 703 L 604 691 Q 612 671 614 630 L 618 446 C 619 416 670 421 671 451 Z" fill="lightgray"></path>
				<path d="M 473 558 L 505 509 Q 509 500 521 494 Q 542 480 552 496 Q 558 501 561 517 Q 570 559 509 578 Q 479 588 470 590 Q 461 591 458 587 Q 456 582 473 558 Z" fill="lightgray"></path>
				<path d="M 720 508 L 748 520 Q 752 520 768 529 Q 785 537 815 548 L 836 554 Q 847 559 857 560 L 869 564 L 872 572 Q 872 578 865 591 Q 858 603 849 609 Q 811 639 799 637 Q 795 637 792 634 L 776 595 L 755 564 L 734 540 L 712 520 Q 705 511 707 507 Q 709 503 720 508 Z" fill="lightgray"></path>
				<path d="M 455 433 L 450 446 Q 447 454 441 458 Q 429 469 422 445 L 408 388 L 393 351 L 389 329 Q 386 309 408 294 Q 420 289 425 291 Q 431 292 439 304 Q 447 320 451 332 Q 461 376 460 383 L 460 403 L 455 433 Z" fill="lightgray"></path>
				<path d="M 727 457 L 671 451 L 618 446 L 582 442 Q 581 441 538 438 L 490 435 Q 484 433 472 433 L 455 433 C 425 433 430 407 460 403 L 485 400 Q 489 398 516 403 L 640 421 L 811 438 Q 832 440 841 440 L 857 440 Q 877 441 845 388 L 827 356 Q 822 349 825 344 Q 828 341 836 346 L 857 357 Q 859 359 862 359 L 910 378 Q 916 380 932 381 Q 949 382 955 388 Q 959 388 964 396 Q 967 414 941 440 Q 910 466 891 475 Q 881 478 875 478 L 765 461 Q 763 460 727 457 Z" fill="lightgray"></path>
				<path d="M 535 332 L 522 336 L 506 339 Q 487 342 481 336 Q 475 330 479 327 L 492 316 Q 496 311 508 289 L 525 211 Q 528 189 539 180 Q 553 172 559 181 L 567 192 C 571 197 571 197 567 223 L 554 310 C 551 327 551 327 535 332 Z" fill="lightgray"></path>
				<path d="M 749 234 L 760 256 Q 777 292 789 304 L 803 317 Q 822 328 792 347 Q 763 366 748 366 L 703 357 L 535 332 C 505 328 524 306 554 310 L 656 322 Q 699 326 705 328 Q 723 328 726 322 Q 728 317 725 300 L 719 272 Q 720 270 710 241 C 700 213 736 207 749 234 Z" fill="lightgray"></path>
				<path d="M 667 198 L 749 206 Q 765 206 770 211 Q 771 214 763 222 L 749 234 C 739 243 739 243 710 241 L 693 240 Q 681 240 652 234 L 567 223 C 537 219 537 191 567 192 L 590 193 Q 599 193 602 192 L 667 198 Z" fill="lightgray"></path>
				<path d="M 681 80 L 713 84 L 782 97 Q 804 100 804 112 Q 804 116 796 122 Q 788 128 773 133 Q 758 137 752 137 L 706 126 Q 694 126 682 122 L 619 111 L 594 106 L 558 102 L 545 102 Q 540 102 536 100 L 502 97 Q 476 95 496 74 Q 507 64 544 64 L 621 72 L 681 80 Z" fill="lightgray"></path>
				<path d="M 677 -18 L 681 80 L 682 122 L 685 140 Q 685 142 689 151 L 693 164 Q 696 183 675 193 L 667 198 C 642 214 589 219 602 192 L 609 178 Q 614 170 616 141 L 619 111 L 621 72 L 622 -22 C 622 -52 676 -48 677 -18 Z" fill="lightgray"></path>
				<path d="M 411 -71 L 422 -78 L 442 -84 Q 459 -91 476 -84 Q 494 -78 525 -75 L 578 -68 L 739 -57 Q 787 -54 847 -57 Q 907 -60 913 -59 L 945 -57 Q 947 -57 956 -53 Q 966 -50 956 -36 Q 947 -23 917 -10 Q 888 2 881 2 Q 874 2 809 -6 L 714 -16 Q 710 -18 697 -18 L 677 -18 L 622 -22 L 592 -26 Q 555 -32 493 -36 L 403 -40 Q 389 -41 386 -44 Q 383 -48 388 -55 Q 393 -62 404 -68 Q 408 -68 411 -71 Z" fill="lightgray"></path>
</g>
		<text x="40" y="140" font-size="128" fill="#999999">4</text></g>
		<g id="id0:id4:id4" transform="matrix(1.0,0,0,1.0,4096,0.0)">			<g stroke="lightgray" stroke-width="4" transform="scale(4, 4)"> <rect x="0" y="0" width="256" height="256" fill="white" stroke-width="4"/></g>
			<g transform="scale(0.92, -0.92) translate(60, -920)">					<path d="M 202 584 L 179 591 Q 151 599 145 592 Q 140 590 143 580 L 151 563 Q 156 545 156 538 L 161 502 L 164 436 Q 164 198 132 95 Q 112 17 73 -48 L 59 -68 Q 54 -77 57 -80 Q 61 -84 69 -76 L 119 -27 Q 136 -7 147 13 Q 158 32 175 88 Q 192 143 195 161 L 199 184 L 201 200 L 207 287 Q 209 292 209 306 L 212 390 L 212 410 L 212 457 Q 212 480 213 488 L 219 552 C 221 575 221 575 214 578 L 202 584 Z" fill="black"></path>
				<path d="M 321 248 L 316 111 Q 316 92 315 87 L 310 42 Q 307 6 292 -2 Q 287 -6 268 0 L 224 16 Q 216 17 214 15 Q 212 12 215 9 L 234 -8 L 253 -30 Q 258 -38 273 -54 L 288 -75 Q 299 -91 310 -94 Q 325 -94 339 -75 Q 354 -56 360 -43 Q 372 -21 372 54 L 371 214 Q 369 239 371 296 L 371 392 Q 370 469 372 479 Q 374 489 374 499 L 374 516 L 378 540 Q 380 542 385 554 Q 390 566 390 570 Q 391 573 384 582 Q 372 593 353 604 Q 334 615 326 614 Q 318 612 302 606 L 277 594 L 214 578 C 185 571 190 546 219 552 L 261 561 Q 306 569 310 565 Q 317 561 317 532 L 319 372 L 319 361 L 321 272 L 321 248 Z" fill="black"></path>
				<path d="M 212 390 L 260 348 Q 272 336 279 332 Q 286 328 295 332 Q 310 335 319 361 C 322 369 322 369 319 372 L 310 382 Q 305 387 295 393 Q 276 401 266 403 L 224 410 L 212 410 C 189 410 189 410 212 390 Z" fill="black"></path>
				<path d="M 199 184 L 207 170 L 235 144 L 245 141 Q 247 141 254 150 L 258 161 Q 258 163 261 166 L 321 248 C 339 272 344 291 321 272 L 269 230 Q 260 224 248 220 Q 235 211 228 209 Q 222 207 201 200 C 192 197 192 197 199 184 Z" fill="black"></path>
				<path d="M 671 451 L 674 585 L 677 624 Q 678 631 678 645 Q 678 658 685 671 Q 693 684 693 690 Q 693 695 683 702 Q 673 708 650 718 Q 627 727 611 725 Q 596 722 594 716 Q 592 709 596 703 L 604 691 Q 612 671 614 630 L 618 446 C 619 416 670 421 671 451 Z" fill="red"></path>
				<path d="M 473 558 L 505 509 Q 509 500 521 494 Q 542 480 552 496 Q 558 501 561 517 Q 570 559 509 578 Q 479 588 470 590 Q 461 591 458 587 Q 456 582 473 558 Z" fill="lightgray"></path>
				<path d="M 720 508 L 748 520 Q 752 520 768 529 Q 785 537 815 548 L 836 554 Q 847 559 857 560 L 869 564 L 872 572 Q 872 578 865 591 Q 858 603 849 609 Q 811 639 799 637 Q 795 637 792 634 L 776 595 L 755 564 L 734 540 L 712 520 Q 705 511 707 507 Q 709 503 720 508 Z" fill="lightgray"></path>
				<path d="M 455 433 L 450 446 Q 447 454 441 458 Q 429 469 422 445 L 408 388 L 393 351 L 389 329 Q 386 309 408 294 Q 420 289 425 291 Q 431 292 439 304 Q 447 320 451 332 Q 461 376 460 383 L 460 403 L 455 433 Z" fill="lightgray"></path>
				<path d="M 727 457 L 671 451 L 618 446 L 582 442 Q 581 441 538 438 L 490 435 Q 484 433 472 433 L 455 433 C 425 433 430 407 460 403 L 485 400 Q 489 398 516 403 L 640 421 L 811 438 Q 832 440 841 440 L 857 440 Q 877 441 845 388 L 827 356 Q 822 349 825 344 Q 828 341 836 346 L 857 357 Q 859 359 862 359 L 910 378 Q 916 380 932 381 Q 949 382 955 388 Q 959 388 964 396 Q 967 414 941 440 Q 910 466 891 475 Q 881 478 875 478 L 765 461 Q 763 460 727 457 Z" fill="lightgray"></path>
				<path d="M 535 332 L 522 336 L 506 339 Q 487 342 481 336 Q 475 330 479 327 L 492 316 Q 496 311 508 289 L 525 211 Q 528 189 539 180 Q 553 172 559 181 L 567 192 C 571 197 571 197 567 223 L 554 310 C 551 327 551 327 535 332 Z" fill="lightgray"></path>
				<path d="M 749 234 L 760 256 Q 777 292 789 304 L 803 317 Q 822 328 792 347 Q 763 366 748 366 L 703 357 L 535 332 C 505 328 524 306 554 310 L 656 322 Q 699 326 705 328 Q 723 328 726 322 Q 728 317 725 300 L 719 272 Q 720 270 710 241 C 700 213 736 207 749 234 Z" fill="lightgray"></path>
				<path d="M 667 198 L 749 206 Q 765 206 770 211 Q 771 214 763 222 L 749 234 C 739 243 739 243 710 241 L 693 240 Q 681 240 652 234 L 567 223 C 537 219 537 191 567 192 L 590 193 Q 599 193 602 192 L 667 198 Z" fill="lightgray"></path>
				<path d="M 681 80 L 713 84 L 782 97 Q 804 100 804 112 Q 804 116 796 122 Q 788 128 773 133 Q 758 137 752 137 L 706 126 Q 694 126 682 122 L 619 111 L 594 106 L 558 102 L 545 102 Q 540 102 536 100 L 502 97 Q 476 95 496 74 Q 507 64 544 64 L 621 72 L 681 80 Z" fill="lightgray"></path>
				<path d="M 677 -18 L 681 80 L 682 122 L 685 140 Q 685 142 689 151 L 693 164 Q 696 183 675 193 L 667 198 C 642 214 589 219 602 192 L 609 178 Q 614 170 616 141 L 619 111 L 621 72 L 622 -22 C 622 -52 676 -48 677 -18 Z" fill="lightgray"></path>
				<path d="M 411 -71 L 422 -78 L 442 -84 Q 459 -91 476 -84 Q 494 -78 525 -75 L 578 -68 L 739 -57 Q 787 -54 847 -57 Q 907 -60 913 -59 L 945 -57 Q 947 -57 956 -53 Q 966 -50 956 -36 Q 947 -23 917 -10 Q 888 2 881 2 Q 874 2 809 -6 L 714 -16 Q 710 -18 697 -18 L 677 -18 L 622 -22 L 592 -26 Q 555 -32 493 -36 L 403 -40 Q 389 -41 386 -44 Q 383 -48 388 -55 Q 393 -62 404 -68 Q 408 -68 411 -71 Z" fill="lightgray"></path>
</g>
		<text x="40" y="140" font-size="128" fill="#999999">5</text></g>
</g>
	<g id="id1:id1" transform="translate(0.0,1024)">
		<g id="id1:id0:id0" transform="matrix(1.0,0,0,1.0,0,0.0)">			<g stroke="lightgray" stroke-width="4" transform="scale(4, 4)"> <rect x="0" y="0" width="256" height="256" fill="white" stroke-width="4"/></g>
			<g transform="scale(0.92, -0.92) translate(60, -920)">					<path d="M 202 584 L 179 591 Q 151 599 145 592 Q 140 590 143 580 L 151 563 Q 156 545 156 538 L 161 502 L 164 436 Q 164 198 132 95 Q 112 17 73 -48 L 59 -68 Q 54 -77 57 -80 Q 61 -84 69 -76 L 119 -27 Q 136 -7 147 13 Q 158 32 175 88 Q 192 143 195 161 L 199 184 L 201 200 L 207 287 Q 209 292 209 306 L 212 390 L 212 410 L 212 457 Q 212 480 213 488 L 219 552 C 221 575 221 575 214 578 L 202 584 Z" fill="black"></path>
				<path d="M 321 248 L 316 111 Q 316 92 315 87 L 310 42 Q 307 6 292 -2 Q 287 -6 268 0 L 224 16 Q 216 17 214 15 Q 212 12 215 9 L 234 -8 L 253 -30 Q 258 -38 273 -54 L 288 -75 Q 299 -91 310 -94 Q 325 -94 339 -75 Q 354 -56 360 -43 Q 372 -21 372 54 L 371 214 Q 369 239 371 296 L 371 392 Q 370 469 372 479 Q 374 489 374 499 L 374 516 L 378 540 Q 380 542 385 554 Q 390 566 390 570 Q 391 573 384 582 Q 372 593 353 604 Q 334 615 326 614 Q 318 612 302 606 L 277 594 L 214 578 C 185 571 190 546 219 552 L 261 561 Q 306 569 310 565 Q 317 561 317 532 L 319 372 L 319 361 L 321 272 L 321 248 Z" fill="black"></path>
				<path d="M 212 390 L 260 348 Q 272 336 279 332 Q 286 328 295 332 Q 310 335 319 361 C 322 369 322 369 319 372 L 310 382 Q 305 387 295 393 Q 276 401 266 403 L 224 410 L 212 410 C 189 410 189 410 212 390 Z" fill="black"></path>
				<path d="M 199 184 L 207 170 L 235 144 L 245 141 Q 247 141 254 150 L 258 161 Q 258 163 261 166 L 321 248 C 339 272 344 291 321 272 L 269 230 Q 260 224 248 220 Q 235 211 228 209 Q 222 207 201 200 C 192 197 192 197 199 184 Z" fill="black"></path>
				<path d="M 671 451 L 674 585 L 677 624 Q 678 631 678 645 Q 678 658 685 671 Q 693 684 693 690 Q 693 695 683 702 Q 673 708 650 718 Q 627 727 611 725 Q 596 722 594 716 Q 592 709 596 703 L 604 691 Q 612 671 614 630 L 618 446 C 619 416 670 421 671 451 Z" fill="black"></path>
				<path d="M 473 558 L 505 509 Q 509 500 521 494 Q 542 480 552 496 Q 558 501 561 517 Q 570 559 509 578 Q 479 588 470 590 Q 461 591 458 587 Q 456 582 473 558 Z" fill="red"></path>
				<path d="M 720 508 L 748 520 Q 752 520 768 529 Q 785 537 815 548 L 836 554 Q 847 559 857 560 L 869 564 L 872 572 Q 872 578 865 591 Q 858 603 849 609 Q 811 639 799 637 Q 795 637 792 634 L 776 595 L 755 564 L 734 540 L 712 520 Q 705 511 707 507 Q 709 503 720 508 Z" fill="lightgray"></path>
				<path d="M 455 433 L 450 446 Q 447 454 441 458 Q 429 469 422 445 L 408 388 L 393 351 L 389 329 Q 386 309 408 294 Q 420 289 425 291 Q 431 292 439 304 Q 447 320 451 332 Q 461 376 460 383 L 460 403 L 455 433 Z" fill="lightgray"></path>
				<path d="M 727 457 L 671 451 L 618 446 L 582 442 Q 581 441 538 438 L 490 435 Q 484 433 472 433 L 455 433 C 425 433 430 407 460 403 L 485 400 Q 489 398 516 403 L 640 421 L 811 438 Q 832 440 841 440 L 857 440 Q 877 441 845 388 L 827 356 Q 822 349 825 344 Q 828 341 836 346 L 857 357 Q 859 359 862 359 L 910 378 Q 916 380 932 381 Q 949 382 955 388 Q 959 388 964 396 Q 967 414 941 440 Q 910 466 891 475 Q 881 478 875 478 L 765 461 Q 763 460 727 457 Z" fill="lightgray"></path>
				<path d="M 535 332 L 522 336 L 506 339 Q 487 342 481 336 Q 475 330 479 327 L 492 316 Q 496 311 508 289 L 525 211 Q 528 189 539 180 Q 553 172 559 181 L 567 192 C 571 197 571 197 567 223 L 554 310 C 551 327 551 327 535 332 Z" fill="lightgray"></path>
				<path d="M 749 234 L 760 256 Q 777 292 789 304 L 803 317 Q 822 328 792 347 Q 763 366 748 366 L 703 357 L 535 332 C 505 328 524 306 554 310 L 656 322 Q 699 326 705 328 Q 723 328 726 322 Q 728 317 725 300 L 719 272 Q 720 270 710 241 C 700 213 736 207 749 234 Z" fill="lightgray"></path>
				<path d="M 667 198 L 749 206 Q 765 206 770 211 Q 771 214 763 222 L 749 234 C 739 243 739 243 710 241 L 693 240 Q 681 240 652 234 L 567 223 C 537 219 537 191 567 192 L 590 193 Q 599 193 602 192 L 667 198 Z" fill="lightgray"></path>
				<path d="M 681 80 L 713 84 L 782 97 Q 804 100 804 112 Q 804 116 796 122 Q 788 128 773 133 Q 758 137 752 137 L 706 126 Q 694 126 682 122 L 619 111 L 594 106 L 558 102 L 545 102 Q 540 102 536 100 L 502 97 Q 476 95 496 74 Q 507 64 544 64 L 621 72 L 681 80 Z" fill="lightgray"></path>
				<path d="M 677 -18 L 681 80 L 682 122 L 685 140 Q 685 142 689 151 L 693 164 Q 696 183 675 193 L 667 198 C 642 214 589 219 602 192 L 609 178 Q 614 170 616 141 L 619 111 L 621 72 L 622 -22 C 622 -52 676 -48 677 -18 Z" fill="lightgray"></path>
				<path d="M 411 -71 L 422 -78 L 442 -84 Q 459 -91 476 -84 Q 494 -78 525 -75 L 578 -68 L 739 -57 Q 787 -54 847 -57 Q 907 -60 913 -59 L 945 -57 Q 947 -57 956 -53 Q 966 -50 956 -36 Q 947 -23 917 -10 Q 888 2 881 2 Q 874 2 809 -6 L 714 -16 Q 710 -18 697 -18 L 677 -18 L 622 -22 L 592 -26 Q 555 -32 493 -36 L 403 -40 Q 389 -41 386 -44 Q 383 -48 388 -55 Q 393 -62 404 -68 Q 408 -68 411 -71 Z" fill="lightgray"></path>
</g>
		<text x="40" y="140" font-size="128" fill="#999999">6</text></g>
		<g id="id1:id1:id1" transform="matrix(1.0,0,0,1.0,1024,0.0)">			<g stroke="lightgray" stroke-width="4" transform="scale(4, 4)"> <rect x="0" y="0" width="256" height="256" fill="white" stroke-width="4"/></g>
			<g transform="scale(0.92, -0.92) translate(60, -920)">					<path d="M 202 584 L 179 591 Q 151 599 145 592 Q 140 590 143 580 L 151 563 Q 156 545 156 538 L 161 502 L 164 436 Q 164 198 132 95 Q 112 17 73 -48 L 59 -68 Q 54 -77 57 -80 Q 61 -84 69 -76 L 119 -27 Q 136 -7 147 13 Q 158 32 175 88 Q 192 143 195 161 L 199 184 L 201 200 L 207 287 Q 209 292 209 306 L 212 390 L 212 410 L 212 457 Q 212 480 213 488 L 219 552 C 221 575 221 575 214 578 L 202 584 Z" fill="black"></path>
				<path d="M 321 248 L 316 111 Q 316 92 315 87 L 310 42 Q 307 6 292 -2 Q 287 -6 268 0 L 224 16 Q 216 17 214 15 Q 212 12 215 9 L 234 -8 L 253 -30 Q 258 -38 273 -54 L 288 -75 Q 299 -91 310 -94 Q 325 -94 339 -75 Q 354 -56 360 -43 Q 372 -21 372 54 L 371 214 Q 369 239 371 296 L 371 392 Q 370 469 372 479 Q 374 489 374 499 L 374 516 L 378 540 Q 380 542 385 554 Q 390 566 390 570 Q 391 573 384 582 Q 372 593 353 604 Q 334 615 326 614 Q 318 612 302 606 L 277 594 L 214 578 C 185 571 190 546 219 552 L 261 561 Q 306 569 310 565 Q 317 561 317 532 L 319 372 L 319 361 L 321 272 L 321 248 Z" fill="black"></path>
				<path d="M 212 390 L 260 348 Q 272 336 279 332 Q 286 328 295 332 Q 310 335 319 361 C 322 369 322 369 319 372 L 310 382 Q 305 387 295 393 Q 276 401 266 403 L 224 410 L 212 410 C 189 410 189 410 212 390 Z" fill="black"></path>
				<path d="M 199 184 L 207 170 L 235 144 L 245 141 Q 247 141 254 150 L 258 161 Q 258 163 261 166 L 321 248 C 339 272 344 291 321 272 L 269 230 Q 260 224 248 220 Q 235 211 228 209 Q 222 207 201 200 C 192 197 192 197 199 184 Z" fill="black"></path>
				<path d="M 671 451 L 674 585 L 677 624 Q 678 631 678 645 Q 678 658 685 671 Q 693 684 693 690 Q 693 695 683 702 Q 673 708 650 718 Q 627 727 611 725 Q 596 722 594 716 Q 592 709 596 703 L 604 691 Q 612 671 614 630 L 618 446 C 619 416 670 421 671 451 Z" fill="black"></path>
				<path d="M 473 558 L 505 509 Q 509 500 521 494 Q 542 480 552 496 Q 558 501 561 517 Q 570 559 509 578 Q 479 588 470 590 Q 461 591 458 587 Q 456 582 473 558 Z" fill="black"></path>
				<path d="M 720 508 L 748 520 Q 752 520 768 529 Q 785 537 815 548 L 836 554 Q 847 559 857 560 L 869 564 L 872 572 Q 872 578 865 591 Q 858 603 849 609 Q 811 639 799 637 Q 795 637 792 634 L 776 595 L 755 564 L 734 540 L 712 520 Q 705 511 707 507 Q 709 503 720 508 Z" fill="red"></path>
				<path d="M 455 433 L 450 446 Q 447 454 441 458 Q 429 469 422 445 L 408 388 L 393 351 L 389 329 Q 386 309 408 294 Q 420 289 425 291 Q 431 292 439 304 Q 447 320 451 332 Q 461 376 460 383 L 460 403 L 455 433 Z" fill="lightgray"></path>
				<path d="M 727 457 L 671 451 L 618 446 L 582 442 Q 581 441 538 438 L 490 435 Q 484 433 472 433 L 455 433 C 425 433 430 407 460 403 L 485 400 Q 489 398 516 403 L 640 421 L 811 438 Q 832 440 841 440 L 857 440 Q 877 441 845 388 L 827 356 Q 822 349 825 344 Q 828 341 836 346 L 857 357 Q 859 359 862 359 L 910 378 Q 916 380 932 381 Q 949 382 955 388 Q 959 388 964 396 Q 967 414 941 440 Q 910 466 891 475 Q 881 478 875 478 L 765 461 Q 763 460 727 457 Z" fill="lightgray"></path>
				<path d="M 535 332 L 522 336 L 506 339 Q 487 342 481 336 Q 475 330 479 327 L 492 316 Q 496 311 508 289 L 525 211 Q 528 189 539 180 Q 553 172 559 181 L 567 192 C 571 197 571 197 567 223 L 554 310 C 551 327 551 327 535 332 Z" fill="lightgray"></path>
				<path d="M 749 234 L 760 256 Q 777 292 789 304 L 803 317 Q 822 328 792 347 Q 763 366 748 366 L 703 357 L 535 332 C 505 328 524 306 554 310 L 656 322 Q 699 326 705 328 Q 723 328 726 322 Q 728 317 725 300 L 719 272 Q 720 270 710 241 C 700 213 736 207 749 234 Z" fill="lightgray"></path>
				<path d="M 667 198 L 749 206 Q 765 206 770 211 Q 771 214 763 222 L 749 234 C 739 243 739 243 710 241 L 693 240 Q 681 240 652 234 L 567 223 C 537 219 537 191 567 192 L 590 193 Q 599 193 602 192 L 667 198 Z" fill="lightgray"></path>
				<path d="M 681 80 L 713 84 L 782 97 Q 804 100 804 112 Q 804 116 796 122 Q 788 128 773 133 Q 758 137 752 137 L 706 126 Q 694 126 682 122 L 619 111 L 594 106 L 558 102 L 545 102 Q 540 102 536 100 L 502 97 Q 476 95 496 74 Q 507 64 544 64 L 621 72 L 681 80 Z" fill="lightgray"></path>
				<path d="M 677 -18 L 681 80 L 682 122 L 685 140 Q 685 142 689 151 L 693 164 Q 696 183 675 193 L 667 198 C 642 214 589 219 602 192 L 609 178 Q 614 170 616 141 L 619 111 L 621 72 L 622 -22 C 622 -52 676 -48 677 -18 Z" fill="lightgray"></path>
				<path d="M 411 -71 L 422 -78 L 442 -84 Q 459 -91 476 -84 Q 494 -78 525 -75 L 578 -68 L 739 -57 Q 787 -54 847 -57 Q 907 -60 913 -59 L 945 -57 Q 947 -57 956 -53 Q 966 -50 956 -36 Q 947 -23 917 -10 Q 888 2 881 2 Q 874 2 809 -6 L 714 -16 Q 710 -18 697 -18 L 677 -18 L 622 -22 L 592 -26 Q 555 -32 493 -36 L 403 -40 Q 389 -41 386 -44 Q 383 -48 388 -55 Q 393 -62 404 -68 Q 408 -68 411 -71 Z" fill="lightgray"></path>
</g>
		<text x="40" y="140" font-size="128" fill="#999999">7</text></g>
		<g id="id1:id2:id2" transform="matrix(1.0,0,0,1.0,2048,0.0)">			<g stroke="lightgray" stroke-width="4" transform="scale(4, 4)"> <rect x="0" y="0" width="256" height="256" fill="white" stroke-width="4"/></g>
			<g transform="scale(0.92, -0.92) translate(60, -920)">					<path d="M 202 584 L 179 591 Q 151 599 145 592 Q 140 590 143 580 L 151 563 Q 156 545 156 538 L 161 502 L 164 436 Q 164 198 132 95 Q 112 17 73 -48 L 59 -68 Q 54 -77 57 -80 Q 61 -84 69 -76 L 119 -27 Q 136 -7 147 13 Q 158 32 175 88 Q 192 143 195 161 L 199 184 L 201 200 L 207 287 Q 209 292 209 306 L 212 390 L 212 410 L 212 457 Q 212 480 213 488 L 219 552 C 221 575 221 575 214 578 L 202 584 Z" fill="black"></path>
				<path d="M 321 248 L 316 111 Q 316 92 315 87 L 310 42 Q 307 6 292 -2 Q 287 -6 268 0 L 224 16 Q 216 17 214 15 Q 212 12 215 9 L 234 -8 L 253 -30 Q 258 -38 273 -54 L 288 -75 Q 299 -91 310 -94 Q 325 -94 339 -75 Q 354 -56 360 -43 Q 372 -21 372 54 L 371 214 Q 369 239 371 296 L 371 392 Q 370 469 372 479 Q 374 489 374 499 L 374 516 L 378 540 Q 380 542 385 554 Q 390 566 390 570 Q 391 573 384 582 Q 372 593 353 604 Q 334 615 326 614 Q 318 612 302 606 L 277 594 L 214 578 C 185 571 190 546 219 552 L 261 561 Q 306 569 310 565 Q 317 561 317 532 L 319 372 L 319 361 L 321 272 L 321 248 Z" fill="black"></path>
				<path d="M 212 390 L 260 348 Q 272 336 279 332 Q 286 328 295 332 Q 310 335 319 361 C 322 369 322 369 319 372 L 310 382 Q 305 387 295 393 Q 276 401 266 403 L 224 410 L 212 410 C 189 410 189 410 212 390 Z" fill="black"></path>
				<path d="M 199 184 L 207 170 L 235 144 L 245 141 Q 247 141 254 150 L 258 161 Q 258 163 261 166 L 321 248 C 339 272 344 291 321 272 L 269 230 Q 260 224 248 220 Q 235 211 228 209 Q 222 207 201 200 C 192 197 192 197 199 184 Z" fill="black"></path>
				<path d="M 671 451 L 674 585 L 677 624 Q 678 631 678 645 Q 678 658 685 671 Q 693 684 693 690 Q 693 695 683 702 Q 673 708 650 718 Q 627 727 611 725 Q 596 722 594 716 Q 592 709 596 703 L 604 691 Q 612 671 614 630 L 618 446 C 619 416 670 421 671 451 Z" fill="black"></path>
				<path d="M 473 558 L 505 509 Q 509 500 521 494 Q 542 480 552 496 Q 558 501 561 517 Q 570 559 509 578 Q 479 588 470 590 Q 461 591 458 587 Q 456 582 473 558 Z" fill="black"></path>
				<path d="M 720 508 L 748 520 Q 752 520 768 529 Q 785 537 815 548 L 836 554 Q 847 559 857 560 L 869 564 L 872 572 Q 872 578 865 591 Q 858 603 849 609 Q 811 639 799 637 Q 795 637 792 634 L 776 595 L 755 564 L 734 540 L 712 520 Q 705 511 707 507 Q 709 503 720 508 Z" fill="black"></path>
				<path d="M 455 433 L 450 446 Q 447 454 441 458 Q 429 469 422 445 L 408 388 L 393 351 L 389 329 Q 386 309 408 294 Q 420 289 425 291 Q 431 292 439 304 Q 447 320 451 332 Q 461 376 460 383 L 460 403 L 455 433 Z" fill="red"></path>
				<path d="M 727 457 L 671 451 L 618 446 L 582 442 Q 581 441 538 438 L 490 435 Q 484 433 472 433 L 455 433 C 425 433 430 407 460 403 L 485 400 Q 489 398 516 403 L 640 421 L 811 438 Q 832 440 841 440 L 857 440 Q 877 441 845 388 L 827 356 Q 822 349 825 344 Q 828 341 836 346 L 857 357 Q 859 359 862 359 L 910 378 Q 916 380 932 381 Q 949 382 955 388 Q 959 388 964 396 Q 967 414 941 440 Q 910 466 891 475 Q 881 478 875 478 L 765 461 Q 763 460 727 457 Z" fill="lightgray"></path>
				<path d="M 535 332 L 522 336 L 506 339 Q 487 342 481 336 Q 475 330 479 327 L 492 316 Q 496 311 508 289 L 525 211 Q 528 189 539 180 Q 553 172 559 181 L 567 192 C 571 197 571 197 567 223 L 554 310 C 551 327 551 327 535 332 Z" fill="lightgray"></path>
				<path d="M 749 234 L 760 256 Q 777 292 789 304 L 803 317 Q 822 328 792 347 Q 763 366 748 366 L 703 357 L 535 332 C 505 328 524 306 554 310 L 656 322 Q 699 326 705 328 Q 723 328 726 322 Q 728 317 725 300 L 719 272 Q 720 270 710 241 C 700 213 736 207 749 234 Z" fill="lightgray"></path>
				<path d="M 667 198 L 749 206 Q 765 206 770 211 Q 771 214 763 222 L 749 234 C 739 243 739 243 710 241 L 693 240 Q 681 240 652 234 L 567 223 C 537 219 537 191 567 192 L 590 193 Q 599 193 602 192 L 667 198 Z" fill="lightgray"></path>
				<path d="M 681 80 L 713 84 L 782 97 Q 804 100 804 112 Q 804 116 796 122 Q 788 128 773 133 Q 758 137 752 137 L 706 126 Q 694 126 682 122 L 619 111 L 594 106 L 558 102 L 545 102 Q 540 102 536 100 L 502 97 Q 476 95 496 74 Q 507 64 544 64 L 621 72 L 681 80 Z" fill="lightgray"></path>
				<path d="M 677 -18 L 681 80 L 682 122 L 685 140 Q 685 142 689 151 L 693 164 Q 696 183 675 193 L 667 198 C 642 214 589 219 602 192 L 609 178 Q 614 170 616 141 L 619 111 L 621 72 L 622 -22 C 622 -52 676 -48 677 -18 Z" fill="lightgray"></path>
				<path d="M 411 -71 L 422 -78 L 442 -84 Q 459 -91 476 -84 Q 494 -78 525 -75 L 578 -68 L 739 -57 Q 787 -54 847 -57 Q 907 -60 913 -59 L 945 -57 Q 947 -57 956 -53 Q 966 -50 956 -36 Q 947 -23 917 -10 Q 888 2 881 2 Q 874 2 809 -6 L 714 -16 Q 710 -18 697 -18 L 677 -18 L 622 -22 L 592 -26 Q 555 -32 493 -36 L 403 -40 Q 389 -41 386 -44 Q 383 -48 388 -55 Q 393 -62 404 -68 Q 408 -68 411 -71 Z" fill="lightgray"></path>
</g>
		<text x="40" y="140" font-size="128" fill="#999999">8</text></g>
		<g id="id1:id3:id3" transform="matrix(1.0,0,0,1.0,3072,0.0)">			<g stroke="lightgray" stroke-width="4" transform="scale(4, 4)"> <rect x="0" y="0" width="256" height="256" fill="white" stroke-width="4"/></g>
			<g transform="scale(0.92, -0.92) translate(60, -920)">					<path d="M 202 584 L 179 591 Q 151 599 145 592 Q 140 590 143 580 L 151 563 Q 156 545 156 538 L 161 502 L 164 436 Q 164 198 132 95 Q 112 17 73 -48 L 59 -68 Q 54 -77 57 -80 Q 61 -84 69 -76 L 119 -27 Q 136 -7 147 13 Q 158 32 175 88 Q 192 143 195 161 L 199 184 L 201 200 L 207 287 Q 209 292 209 306 L 212 390 L 212 410 L 212 457 Q 212 480 213 488 L 219 552 C 221 575 221 575 214 578 L 202 584 Z" fill="black"></path>
				<path d="M 321 248 L 316 111 Q 316 92 315 87 L 310 42 Q 307 6 292 -2 Q 287 -6 268 0 L 224 16 Q 216 17 214 15 Q 212 12 215 9 L 234 -8 L 253 -30 Q 258 -38 273 -54 L 288 -75 Q 299 -91 310 -94 Q 325 -94 339 -75 Q 354 -56 360 -43 Q 372 -21 372 54 L 371 214 Q 369 239 371 296 L 371 392 Q 370 469 372 479 Q 374 489 374 499 L 374 516 L 378 540 Q 380 542 385 554 Q 390 566 390 570 Q 391 573 384 582 Q 372 593 353 604 Q 334 615 326 614 Q 318 612 302 606 L 277 594 L 214 578 C 185 571 190 546 219 552 L 261 561 Q 306 569 310 565 Q 317 561 317 532 L 319 372 L 319 361 L 321 272 L 321 248 Z" fill="black"></path>
				<path d="M 212 390 L 260 348 Q 272 336 279 332 Q 286 328 295 332 Q 310 335 319 361 C 322 369 322 369 319 372 L 310 382 Q 305 387 295 393 Q 276 401 266 403 L 224 410 L 212 410 C 189 410 189 410 212 390 Z" fill="black"></path>
				<path d="M 199 184 L 207 170 L 235 144 L 245 141 Q 247 141 254 150 L 258 161 Q 258 163 261 166 L 321 248 C 339 272 344 291 321 272 L 269 230 Q 260 224 248 220 Q 235 211 228 209 Q 222 207 201 200 C 192 197 192 197 199 184 Z" fill="black"></path>
				<path d="M 671 451 L 674 585 L 677 624 Q 678 631 678 645 Q 678 658 685 671 Q 693 684 693 690 Q 693 695 683 702 Q 673 708 650 718 Q 627 727 611 725 Q 596 722 594 716 Q 592 709 596 703 L 604 691 Q 612 671 614 630 L 618 446 C 619 416 670 421 671 451 Z" fill="black"></path>
				<path d="M 473 558 L 505 509 Q 509 500 521 494 Q 542 480 552 496 Q 558 501 561 517 Q 570 559 509 578 Q 479 588 470 590 Q 461 591 458 587 Q 456 582 473 558 Z" fill="black"></path>
				<path d="M 720 508 L 748 520 Q 752 520 768 529 Q 785 537 815 548 L 836 554 Q 847 559 857 560 L 869 564 L 872 572 Q 872 578 865 591 Q 858 603 849 609 Q 811 639 799 637 Q 795 637 792 634 L 776 595 L 755 564 L 734 540 L 712 520 Q 705 511 707 507 Q 709 503 720 508 Z" fill="black"></path>
				<path d="M 455 433 L 450 446 Q 447 454 441 458 Q 429 469 422 445 L 408 388 L 393 351 L 389 329 Q 386 309 408 294 Q 420 289 425 291 Q 431 292 439 304 Q 447 320 451 332 Q 461 376 460 383 L 460 403 L 455 433 Z" fill="black"></path>
				<path d="M 727 457 L 671 451 L 618 446 L 582 442 Q 581 441 538 438 L 490 435 Q 484 433 472 433 L 455 433 C 425 433 430 407 460 403 L 485 400 Q 489 398 516 403 L 640 421 L 811 438 Q 832 440 841 440 L 857 440 Q 877 441 845 388 L 827 356 Q 822 349 825 344 Q 828 341 836 346 L 857 357 Q 859 359 862 359 L 910 378 Q 916 380 932 381 Q 949 382 955 388 Q 959 388 964 396 Q 967 414 941 440 Q 910 466 891 475 Q 881 478 875 478 L 765 461 Q 763 460 727 457 Z" fill="red"></path>
				<path d="M 535 332 L 522 336 L 506 339 Q 487 342 481 336 Q 475 330 479 327 L 492 316 Q 496 311 508 289 L 525 211 Q 528 189 539 180 Q 553 172 559 181 L 567 192 C 571 197 571 197 567 223 L 554 310 C 551 327 551 327 535 332 Z" fill="lightgray"></path>
				<path d="M 749 234 L 760 256 Q 777 292 789 304 L 803 317 Q 822 328 792 347 Q 763 366 748 366 L 703 357 L 535 332 C 505 328 524 306 554 310 L 656 322 Q 699 326 705 328 Q 723 328 726 322 Q 728 317 725 300 L 719 272 Q 720 270 710 241 C 700 213 736 207 749 234 Z" fill="lightgray"></path>
				<path d="M 667 198 L 749 206 Q 765 206 770 211 Q 771 214 763 222 L 749 234 C 739 243 739 243 710 241 L 693 240 Q 681 240 652 234 L 567 223 C 537 219 537 191 567 192 L 590 193 Q 599 193 602 192 L 667 198 Z" fill="lightgray"></path>
				<path d="M 681 80 L 713 84 L 782 97 Q 804 100 804 112 Q 804 116 796 122 Q 788 128 773 133 Q 758 137 752 137 L 706 126 Q 694 126 682 122 L 619 111 L 594 106 L 558 102 L 545 102 Q 540 102 536 100 L 502 97 Q 476 95 496 74 Q 507 64 544 64 L 621 72 L 681 80 Z" fill="lightgray"></path>
				<path d="M 677 -18 L 681 80 L 682 122 L 685 140 Q 685 142 689 151 L 693 164 Q 696 183 675 193 L 667 198 C 642 214 589 219 602 192 L 609 178 Q 614 170 616 141 L 619 111 L 621 72 L 622 -22 C 622 -52 676 -48 677 -18 Z" fill="lightgray"></path>
				<path d="M 411 -71 L 422 -78 L 442 -84 Q 459 -91 476 -84 Q 494 -78 525 -75 L 578 -68 L 739 -57 Q 787 -54 847 -57 Q 907 -60 913 -59 L 945 -57 Q 947 -57 956 -53 Q 966 -50 956 -36 Q 947 -23 917 -10 Q 888 2 881 2 Q 874 2 809 -6 L 714 -16 Q 710 -18 697 -18 L 677 -18 L 622 -22 L 592 -26 Q 555 -32 493 -36 L 403 -40 Q 389 -41 386 -44 Q 383 -48 388 -55 Q 393 -62 404 -68 Q 408 -68 411 -71 Z" fill="lightgray"></path>
</g>
		<text x="40" y="140" font-size="128" fill="#999999">9</text></g>
		<g id="id1:id4:id4" transform="matrix(1.0,0,0,1.0,4096,0.0)">			<g stroke="lightgray" stroke-width="4" transform="scale(4, 4)"> <rect x="0" y="0" width="256" height="256" fill="white" stroke-width="4"/></g>
			<g transform="scale(0.92, -0.92) translate(60, -920)">					<path d="M 202 584 L 179 591 Q 151 599 145 592 Q 140 590 143 580 L 151 563 Q 156 545 156 538 L 161 502 L 164 436 Q 164 198 132 95 Q 112 17 73 -48 L 59 -68 Q 54 -77 57 -80 Q 61 -84 69 -76 L 119 -27 Q 136 -7 147 13 Q 158 32 175 88 Q 192 143 195 161 L 199 184 L 201 200 L 207 287 Q 209 292 209 306 L 212 390 L 212 410 L 212 457 Q 212 480 213 488 L 219 552 C 221 575 221 575 214 578 L 202 584 Z" fill="black"></path>
				<path d="M 321 248 L 316 111 Q 316 92 315 87 L 310 42 Q 307 6 292 -2 Q 287 -6 268 0 L 224 16 Q 216 17 214 15 Q 212 12 215 9 L 234 -8 L 253 -30 Q 258 -38 273 -54 L 288 -75 Q 299 -91 310 -94 Q 325 -94 339 -75 Q 354 -56 360 -43 Q 372 -21 372 54 L 371 214 Q 369 239 371 296 L 371 392 Q 370 469 372 479 Q 374 489 374 499 L 374 516 L 378 540 Q 380 542 385 554 Q 390 566 390 570 Q 391 573 384 582 Q 372 593 353 604 Q 334 615 326 614 Q 318 612 302 606 L 277 594 L 214 578 C 185 571 190 546 219 552 L 261 561 Q 306 569 310 565 Q 317 561 317 532 L 319 372 L 319 361 L 321 272 L 321 248 Z" fill="black"></path>
				<path d="M 212 390 L 260 348 Q 272 336 279 332 Q 286 328 295 332 Q 310 335 319 361 C 322 369 322 369 319 372 L 310 382 Q 305 387 295 393 Q 276 401 266 403 L 224 410 L 212 410 C 189 410 189 410 212 390 Z" fill="black"></path>
				<path d="M 199 184 L 207 170 L 235 144 L 245 141 Q 247 141 254 150 L 258 161 Q 258 163 261 166 L 321 248 C 339 272 344 291 321 272 L 269 230 Q 260 224 248 220 Q 235 211 228 209 Q 222 207 201 200 C 192 197 192 197 199 184 Z" fill="black"></path>
				<path d="M 671 451 L 674 585 L 677 624 Q 678 631 678 645 Q 678 658 685 671 Q 693 684 693 690 Q 693 695 683 702 Q 673 708 650 718 Q 627 727 611 725 Q 596 722 594 716 Q 592 709 596 703 L 604 691 Q 612 671 614 630 L 618 446 C 619 416 670 421 671 451 Z" fill="black"></path>
				<path d="M 473 558 L 505 509 Q 509 500 521 494 Q 542 480 552 496 Q 558 501 561 517 Q 570 559 509 578 Q 479 588 470 590 Q 461 591 458 587 Q 456 582 473 558 Z" fill="black"></path>
				<path d="M 720 508 L 748 520 Q 752 520 768 529 Q 785 537 815 548 L 836 554 Q 847 559 857 560 L 869 564 L 872 572 Q 872 578 865 591 Q 858 603 849 609 Q 811 639 799 637 Q 795 637 792 634 L 776 595 L 755 564 L 734 540 L 712 520 Q 705 511 707 507 Q 709 503 720 508 Z" fill="black"></path>
				<path d="M 455 433 L 450 446 Q 447 454 441 458 Q 429 469 422 445 L 408 388 L 393 351 L 389 329 Q 386 309 408 294 Q 420 289 425 291 Q 431 292 439 304 Q 447 320 451 332 Q 461 376 460 383 L 460 403 L 455 433 Z" fill="black"></path>
				<path d="M 727 457 L 671 451 L 618 446 L 582 442 Q 581 441 538 438 L 490 435 Q 484 433 472 433 L 455 433 C 425 433 430 407 460 403 L 485 400 Q 489 398 516 403 L 640 421 L 811 438 Q 832 440 841 440 L 857 440 Q 877 441 845 388 L 827 356 Q 822 349 825 344 Q 828 341 836 346 L 857 357 Q 859 359 862 359 L 910 378 Q 916 380 932 381 Q 949 382 955 388 Q 959 388 964 396 Q 967 414 941 440 Q 910 466 891 475 Q 881 478 875 478 L 765 461 Q 763 460 727 457 Z" fill="black"></path>
				<path d="M 535 332 L 522 336 L 506 339 Q 487 342 481 336 Q 475 330 479 327 L 492 316 Q 496 311 508 289 L 525 211 Q 528 189 539 180 Q 553 172 559 181 L 567 192 C 571 197 571 197 567 223 L 554 310 C 551 327 551 327 535 332 Z" fill="red"></path>
				<path d="M 749 234 L 760 256 Q 777 292 789 304 L 803 317 Q 822 328 792 347 Q 763 366 748 366 L 703 357 L 535 332 C 505 328 524 306 554 310 L 656 322 Q 699 326 705 328 Q 723 328 726 322 Q 728 317 725 300 L 719 272 Q 720 270 710 241 C 700 213 736 207 749 234 Z" fill="lightgray"></path>
				<path d="M 667 198 L 749 206 Q 765 206 770 211 Q 771 214 763 222 L 749 234 C 739 243 739 243 710 241 L 693 240 Q 681 240 652 234 L 567 223 C 537 219 537 191 567 192 L 590 193 Q 599 193 602 192 L 667 198 Z" fill="lightgray"></path>
				<path d="M 681 80 L 713 84 L 782 97 Q 804 100 804 112 Q 804 116 796 122 Q 788 128 773 133 Q 758 137 752 137 L 706 126 Q 694 126 682 122 L 619 111 L 594 106 L 558 102 L 545 102 Q 540 102 536 100 L 502 97 Q 476 95 496 74 Q 507 64 544 64 L 621 72 L 681 80 Z" fill="lightgray"></path>
				<path d="M 677 -18 L 681 80 L 682 122 L 685 140 Q 685 142 689 151 L 693 164 Q 696 183 675 193 L 667 198 C 642 214 589 219 602 192 L 609 178 Q 614 170 616 141 L 619 111 L 621 72 L 622 -22 C 622 -52 676 -48 677 -18 Z" fill="lightgray"></path>
				<path d="M 411 -71 L 422 -78 L 442 -84 Q 459 -91 476 -84 Q 494 -78 525 -75 L 578 -68 L 739 -57 Q 787 -54 847 -57 Q 907 -60 913 -59 L 945 -57 Q 947 -57 956 -53 Q 966 -50 956 -36 Q 947 -23 917 -10 Q 888 2 881 2 Q 874 2 809 -6 L 714 -16 Q 710 -18 697 -18 L 677 -18 L 622 -22 L 592 -26 Q 555 -32 493 -36 L 403 -40 Q 389 -41 386 -44 Q 383 -48 388 -55 Q 393 -62 404 -68 Q 408 -68 411 -71 Z" fill="lightgray"></path>
</g>
		<text x="40" y="140" font-size="128" fill="#999999">10</text></g>
</g>
	<g id="id2:id2" transform="translate(0.0,2048)">
		<g id="id2:id0:id0" transform="matrix(1.0,0,0,1.0,0,0.0)">			<g stroke="lightgray" stroke-width="4" transform="scale(4, 4)"> <rect x="0" y="0" width="256" height="256" fill="white" stroke-width="4"/></g>
			<g transform="scale(0.92, -0.92) translate(60, -920)">					<path d="M 202 584 L 179 591 Q 151 599 145 592 Q 140 590 143 580 L 151 563 Q 156 545 156 538 L 161 502 L 164 436 Q 164 198 132 95 Q 112 17 73 -48 L 59 -68 Q 54 -77 57 -80 Q 61 -84 69 -76 L 119 -27 Q 136 -7 147 13 Q 158 32 175 88 Q 192 143 195 161 L 199 184 L 201 200 L 207 287 Q 209 292 209 306 L 212 390 L 212 410 L 212 457 Q 212 480 213 488 L 219 552 C 221 575 221 575 214 578 L 202 584 Z" fill="black"></path>
				<path d="M 321 248 L 316 111 Q 316 92 315 87 L 310 42 Q 307 6 292 -2 Q 287 -6 268 0 L 224 16 Q 216 17 214 15 Q 212 12 215 9 L 234 -8 L 253 -30 Q 258 -38 273 -54 L 288 -75 Q 299 -91 310 -94 Q 325 -94 339 -75 Q 354 -56 360 -43 Q 372 -21 372 54 L 371 214 Q 369 239 371 296 L 371 392 Q 370 469 372 479 Q 374 489 374 499 L 374 516 L 378 540 Q 380 542 385 554 Q 390 566 390 570 Q 391 573 384 582 Q 372 593 353 604 Q 334 615 326 614 Q 318 612 302 606 L 277 594 L 214 578 C 185 571 190 546 219 552 L 261 561 Q 306 569 310 565 Q 317 561 317 532 L 319 372 L 319 361 L 321 272 L 321 248 Z" fill="black"></path>
				<path d="M 212 390 L 260 348 Q 272 336 279 332 Q 286 328 295 332 Q 310 335 319 361 C 322 369 322 369 319 372 L 310 382 Q 305 387 295 393 Q 276 401 266 403 L 224 410 L 212 410 C 189 410 189 410 212 390 Z" fill="black"></path>
				<path d="M 199 184 L 207 170 L 235 144 L 245 141 Q 247 141 254 150 L 258 161 Q 258 163 261 166 L 321 248 C 339 272 344 291 321 272 L 269 230 Q 260 224 248 220 Q 235 211 228 209 Q 222 207 201 200 C 192 197 192 197 199 184 Z" fill="black"></path>
				<path d="M 671 451 L 674 585 L 677 624 Q 678 631 678 645 Q 678 658 685 671 Q 693 684 693 690 Q 693 695 683 702 Q 673 708 650 718 Q 627 727 611 725 Q 596 722 594 716 Q 592 709 596 703 L 604 691 Q 612 671 614 630 L 618 446 C 619 416 670 421 671 451 Z" fill="black"></path>
				<path d="M 473 558 L 505 509 Q 509 500 521 494 Q 542 480 552 496 Q 558 501 561 517 Q 570 559 509 578 Q 479 588 470 590 Q 461 591 458 587 Q 456 582 473 558 Z" fill="black"></path>
				<path d="M 720 508 L 748 520 Q 752 520 768 529 Q 785 537 815 548 L 836 554 Q 847 559 857 560 L 869 564 L 872 572 Q 872 578 865 591 Q 858 603 849 609 Q 811 639 799 637 Q 795 637 792 634 L 776 595 L 755 564 L 734 540 L 712 520 Q 705 511 707 507 Q 709 503 720 508 Z" fill="black"></path>
				<path d="M 455 433 L 450 446 Q 447 454 441 458 Q 429 469 422 445 L 408 388 L 393 351 L 389 329 Q 386 309 408 294 Q 420 289 425 291 Q 431 292 439 304 Q 447 320 451 332 Q 461 376 460 383 L 460 403 L 455 433 Z" fill="black"></path>
				<path d="M 727 457 L 671 451 L 618 446 L 582 442 Q 581 441 538 438 L 490 435 Q 484 433 472 433 L 455 433 C 425 433 430 407 460 403 L 485 400 Q 489 398 516 403 L 640 421 L 811 438 Q 832 440 841 440 L 857 440 Q 877 441 845 388 L 827 356 Q 822 349 825 344 Q 828 341 836 346 L 857 357 Q 859 359 862 359 L 910 378 Q 916 380 932 381 Q 949 382 955 388 Q 959 388 964 396 Q 967 414 941 440 Q 910 466 891 475 Q 881 478 875 478 L 765 461 Q 763 460 727 457 Z" fill="black"></path>
				<path d="M 535 332 L 522 336 L 506 339 Q 487 342 481 336 Q 475 330 479 327 L 492 316 Q 496 311 508 289 L 525 211 Q 528 189 539 180 Q 553 172 559 181 L 567 192 C 571 197 571 197 567 223 L 554 310 C 551 327 551 327 535 332 Z" fill="black"></path>
				<path d="M 749 234 L 760 256 Q 777 292 789 304 L 803 317 Q 822 328 792 347 Q 763 366 748 366 L 703 357 L 535 332 C 505 328 524 306 554 310 L 656 322 Q 699 326 705 328 Q 723 328 726 322 Q 728 317 725 300 L 719 272 Q 720 270 710 241 C 700 213 736 207 749 234 Z" fill="red"></path>
				<path d="M 667 198 L 749 206 Q 765 206 770 211 Q 771 214 763 222 L 749 234 C 739 243 739 243 710 241 L 693 240 Q 681 240 652 234 L 567 223 C 537 219 537 191 567 192 L 590 193 Q 599 193 602 192 L 667 198 Z" fill="lightgray"></path>
				<path d="M 681 80 L 713 84 L 782 97 Q 804 100 804 112 Q 804 116 796 122 Q 788 128 773 133 Q 758 137 752 137 L 706 126 Q 694 126 682 122 L 619 111 L 594 106 L 558 102 L 545 102 Q 540 102 536 100 L 502 97 Q 476 95 496 74 Q 507 64 544 64 L 621 72 L 681 80 Z" fill="lightgray"></path>
				<path d="M 677 -18 L 681 80 L 682 122 L 685 140 Q 685 142 689 151 L 693 164 Q 696 183 675 193 L 667 198 C 642 214 589 219 602 192 L 609 178 Q 614 170 616 141 L 619 111 L 621 72 L 622 -22 C 622 -52 676 -48 677 -18 Z" fill="lightgray"></path>
				<path d="M 411 -71 L 422 -78 L 442 -84 Q 459 -91 476 -84 Q 494 -78 525 -75 L 578 -68 L 739 -57 Q 787 -54 847 -57 Q 907 -60 913 -59 L 945 -57 Q 947 -57 956 -53 Q 966 -50 956 -36 Q 947 -23 917 -10 Q 888 2 881 2 Q 874 2 809 -6 L 714 -16 Q 710 -18 697 -18 L 677 -18 L 622 -22 L 592 -26 Q 555 -32 493 -36 L 403 -40 Q 389 -41 386 -44 Q 383 -48 388 -55 Q 393 -62 404 -68 Q 408 -68 411 -71 Z" fill="lightgray"></path>
</g>
		<text x="40" y="140" font-size="128" fill="#999999">11</text></g>
		<g id="id2:id1:id1" transform="matrix(1.0,0,0,1.0,1024,0.0)">			<g stroke="lightgray" stroke-width="4" transform="scale(4, 4)"> <rect x="0" y="0" width="256" height="256" fill="white" stroke-width="4"/></g>
			<g transform="scale(0.92, -0.92) translate(60, -920)">					<path d="M 202 584 L 179 591 Q 151 599 145 592 Q 140 590 143 580 L 151 563 Q 156 545 156 538 L 161 502 L 164 436 Q 164 198 132 95 Q 112 17 73 -48 L 59 -68 Q 54 -77 57 -80 Q 61 -84 69 -76 L 119 -27 Q 136 -7 147 13 Q 158 32 175 88 Q 192 143 195 161 L 199 184 L 201 200 L 207 287 Q 209 292 209 306 L 212 390 L 212 410 L 212 457 Q 212 480 213 488 L 219 552 C 221 575 221 575 214 578 L 202 584 Z" fill="black"></path>
				<path d="M 321 248 L 316 111 Q 316 92 315 87 L 310 42 Q 307 6 292 -2 Q 287 -6 268 0 L 224 16 Q 216 17 214 15 Q 212 12 215 9 L 234 -8 L 253 -30 Q 258 -38 273 -54 L 288 -75 Q 299 -91 310 -94 Q 325 -94 339 -75 Q 354 -56 360 -43 Q 372 -21 372 54 L 371 214 Q 369 239 371 296 L 371 392 Q 370 469 372 479 Q 374 489 374 499 L 374 516 L 378 540 Q 380 542 385 554 Q 390 566 390 570 Q 391 573 384 582 Q 372 593 353 604 Q 334 615 326 614 Q 318 612 302 606 L 277 594 L 214 578 C 185 571 190 546 219 552 L 261 561 Q 306 569 310 565 Q 317 561 317 532 L 319 372 L 319 361 L 321 272 L 321 248 Z" fill="black"></path>
				<path d="M 212 390 L 260 348 Q 272 336 279 332 Q 286 328 295 332 Q 310 335 319 361 C 322 369 322 369 319 372 L 310 382 Q 305 387 295 393 Q 276 401 266 403 L 224 410 L 212 410 C 189 410 189 410 212 390 Z" fill="black"></path>
				<path d="M 199 184 L 207 170 L 235 144 L 245 141 Q 247 141 254 150 L 258 161 Q 258 163 261 166 L 321 248 C 339 272 344 291 321 272 L 269 230 Q 260 224 248 220 Q 235 211 228 209 Q 222 207 201 200 C 192 197 192 197 199 184 Z" fill="black"></path>
				<path d="M 671 451 L 674 585 L 677 624 Q 678 631 678 645 Q 678 658 685 671 Q 693 684 693 690 Q 693 695 683 702 Q 673 708 650 718 Q 627 727 611 725 Q 596 722 594 716 Q 592 709 596 703 L 604 691 Q 612 671 614 630 L 618 446 C 619 416 670 421 671 451 Z" fill="black"></path>
				<path d="M 473 558 L 505 509 Q 509 500 521 494 Q 542 480 552 496 Q 558 501 561 517 Q 570 559 509 578 Q 479 588 470 590 Q 461 591 458 587 Q 456 582 473 558 Z" fill="black"></path>
				<path d="M 720 508 L 748 520 Q 752 520 768 529 Q 785 537 815 548 L 836 554 Q 847 559 857 560 L 869 564 L 872 572 Q 872 578 865 591 Q 858 603 849 609 Q 811 639 799 637 Q 795 637 792 634 L 776 595 L 755 564 L 734 540 L 712 520 Q 705 511 707 507 Q 709 503 720 508 Z" fill="black"></path>
				<path d="M 455 433 L 450 446 Q 447 454 441 458 Q 429 469 422 445 L 408 388 L 393 351 L 389 329 Q 386 309 408 294 Q 420 289 425 291 Q 431 292 439 304 Q 447 320 451 332 Q 461 376 460 383 L 460 403 L 455 433 Z" fill="black"></path>
				<path d="M 727 457 L 671 451 L 618 446 L 582 442 Q 581 441 538 438 L 490 435 Q 484 433 472 433 L 455 433 C 425 433 430 407 460 403 L 485 400 Q 489 398 516 403 L 640 421 L 811 438 Q 832 440 841 440 L 857 440 Q 877 441 845 388 L 827 356 Q 822 349 825 344 Q 828 341 836 346 L 857 357 Q 859 359 862 359 L 910 378 Q 916 380 932 381 Q 949 382 955 388 Q 959 388 964 396 Q 967 414 941 440 Q 910 466 891 475 Q 881 478 875 478 L 765 461 Q 763 460 727 457 Z" fill="black"></path>
				<path d="M 535 332 L 522 336 L 506 339 Q 487 342 481 336 Q 475 330 479 327 L 492 316 Q 496 311 508 289 L 525 211 Q 528 189 539 180 Q 553 172 559 181 L 567 192 C 571 197 571 197 567 223 L 554 310 C 551 327 551 327 535 332 Z" fill="black"></path>
				<path d="M 749 234 L 760 256 Q 777 292 789 304 L 803 317 Q 822 328 792 347 Q 763 366 748 366 L 703 357 L 535 332 C 505 328 524 306 554 310 L 656 322 Q 699 326 705 328 Q 723 328 726 322 Q 728 317 725 300 L 719 272 Q 720 270 710 241 C 700 213 736 207 749 234 Z" fill="black"></path>
				<path d="M 667 198 L 749 206 Q 765 206 770 211 Q 771 214 763 222 L 749 234 C 739 243 739 243 710 241 L 693 240 Q 681 240 652 234 L 567 223 C 537 219 537 191 567 192 L 590 193 Q 599 193 602 192 L 667 198 Z" fill="red"></path>
				<path d="M 681 80 L 713 84 L 782 97 Q 804 100 804 112 Q 804 116 796 122 Q 788 128 773 133 Q 758 137 752 137 L 706 126 Q 694 126 682 122 L 619 111 L 594 106 L 558 102 L 545 102 Q 540 102 536 100 L 502 97 Q 476 95 496 74 Q 507 64 544 64 L 621 72 L 681 80 Z" fill="lightgray"></path>
				<path d="M 677 -18 L 681 80 L 682 122 L 685 140 Q 685 142 689 151 L 693 164 Q 696 183 675 193 L 667 198 C 642 214 589 219 602 192 L 609 178 Q 614 170 616 141 L 619 111 L 621 72 L 622 -22 C 622 -52 676 -48 677 -18 Z" fill="lightgray"></path>
				<path d="M 411 -71 L 422 -78 L 442 -84 Q 459 -91 476 -84 Q 494 -78 525 -75 L 578 -68 L 739 -57 Q 787 -54 847 -57 Q 907 -60 913 -59 L 945 -57 Q 947 -57 956 -53 Q 966 -50 956 -36 Q 947 -23 917 -10 Q 888 2 881 2 Q 874 2 809 -6 L 714 -16 Q 710 -18 697 -18 L 677 -18 L 622 -22 L 592 -26 Q 555 -32 493 -36 L 403 -40 Q 389 -41 386 -44 Q 383 -48 388 -55 Q 393 -62 404 -68 Q 408 -68 411 -71 Z" fill="lightgray"></path>
</g>
		<text x="40" y="140" font-size="128" fill="#999999">12</text></g>
		<g id="id2:id2:id2" transform="matrix(1.0,0,0,1.0,2048,0.0)">			<g stroke="lightgray" stroke-width="4" transform="scale(4, 4)"> <rect x="0" y="0" width="256" height="256" fill="white" stroke-width="4"/></g>
			<g transform="scale(0.92, -0.92) translate(60, -920)">					<path d="M 202 584 L 179 591 Q 151 599 145 592 Q 140 590 143 580 L 151 563 Q 156 545 156 538 L 161 502 L 164 436 Q 164 198 132 95 Q 112 17 73 -48 L 59 -68 Q 54 -77 57 -80 Q 61 -84 69 -76 L 119 -27 Q 136 -7 147 13 Q 158 32 175 88 Q 192 143 195 161 L 199 184 L 201 200 L 207 287 Q 209 292 209 306 L 212 390 L 212 410 L 212 457 Q 212 480 213 488 L 219 552 C 221 575 221 575 214 578 L 202 584 Z" fill="black"></path>
				<path d="M 321 248 L 316 111 Q 316 92 315 87 L 310 42 Q 307 6 292 -2 Q 287 -6 268 0 L 224 16 Q 216 17 214 15 Q 212 12 215 9 L 234 -8 L 253 -30 Q 258 -38 273 -54 L 288 -75 Q 299 -91 310 -94 Q 325 -94 339 -75 Q 354 -56 360 -43 Q 372 -21 372 54 L 371 214 Q 369 239 371 296 L 371 392 Q 370 469 372 479 Q 374 489 374 499 L 374 516 L 378 540 Q 380 542 385 554 Q 390 566 390 570 Q 391 573 384 582 Q 372 593 353 604 Q 334 615 326 614 Q 318 612 302 606 L 277 594 L 214 578 C 185 571 190 546 219 552 L 261 561 Q 306 569 310 565 Q 317 561 317 532 L 319 372 L 319 361 L 321 272 L 321 248 Z" fill="black"></path>
				<path d="M 212 390 L 260 348 Q 272 336 279 332 Q 286 328 295 332 Q 310 335 319 361 C 322 369 322 369 319 372 L 310 382 Q 305 387 295 393 Q 276 401 266 403 L 224 410 L 212 410 C 189 410 189 410 212 390 Z" fill="black"></path>
				<path d="M 199 184 L 207 170 L 235 144 L 245 141 Q 247 141 254 150 L 258 161 Q 258 163 261 166 L 321 248 C 339 272 344 291 321 272 L 269 230 Q 260 224 248 220 Q 235 211 228 209 Q 222 207 201 200 C 192 197 192 197 199 184 Z" fill="black"></path>
				<path d="M 671 451 L 674 585 L 677 624 Q 678 631 678 645 Q 678 658 685 671 Q 693 684 693 690 Q 693 695 683 702 Q 673 708 650 718 Q 627 727 611 725 Q 596 722 594 716 Q 592 709 596 703 L 604 691 Q 612 671 614 630 L 618 446 C 619 416 670 421 671 451 Z" fill="black"></path>
				<path d="M 473 558 L 505 509 Q 509 500 521 494 Q 542 480 552 496 Q 558 501 561 517 Q 570 559 509 578 Q 479 588 470 590 Q 461 591 458 587 Q 456 582 473 558 Z" fill="black"></path>
				<path d="M 720 508 L 748 520 Q 752 520 768 529 Q 785 537 815 548 L 836 554 Q 847 559 857 560 L 869 564 L 872 572 Q 872 578 865 591 Q 858 603 849 609 Q 811 639 799 637 Q 795 637 792 634 L 776 595 L 755 564 L 734 540 L 712 520 Q 705 511 707 507 Q 709 503 720 508 Z" fill="black"></path>
				<path d="M 455 433 L 450 446 Q 447 454 441 458 Q 429 469 422 445 L 408 388 L 393 351 L 389 329 Q 386 309 408 294 Q 420 289 425 291 Q 431 292 439 304 Q 447 320 451 332 Q 461 376 460 383 L 460 403 L 455 433 Z" fill="black"></path>
				<path d="M 727 457 L 671 451 L 618 446 L 582 442 Q 581 441 538 438 L 490 435 Q 484 433 472 433 L 455 433 C 425 433 430 407 460 403 L 485 400 Q 489 398 516 403 L 640 421 L 811 438 Q 832 440 841 440 L 857 440 Q 877 441 845 388 L 827 356 Q 822 349 825 344 Q 828 341 836 346 L 857 357 Q 859 359 862 359 L 910 378 Q 916 380 932 381 Q 949 382 955 388 Q 959 388 964 396 Q 967 414 941 440 Q 910 466 891 475 Q 881 478 875 478 L 765 461 Q 763 460 727 457 Z" fill="black"></path>
				<path d="M 535 332 L 522 336 L 506 339 Q 487 342 481 336 Q 475 330 479 327 L 492 316 Q 496 311 508 289 L 525 211 Q 528 189 539 180 Q 553 172 559 181 L 567 192 C 571 197 571 197 567 223 L 554 310 C 551 327 551 327 535 332 Z" fill="black"></path>
				<path d="M 749 234 L 760 256 Q 777 292 789 304 L 803 317 Q 822 328 792 347 Q 763 366 748 366 L 703 357 L 535 332 C 505 328 524 306 554 310 L 656 322 Q 699 326 705 328 Q 723 328 726 322 Q 728 317 725 300 L 719 272 Q 720 270 710 241 C 700 213 736 207 749 234 Z" fill="black"></path>
				<path d="M 667 198 L 749 206 Q 765 206 770 211 Q 771 214 763 222 L 749 234 C 739 243 739 243 710 241 L 693 240 Q 681 240 652 234 L 567 223 C 537 219 537 191 567 192 L 590 193 Q 599 193 602 192 L 667 198 Z" fill="black"></path>
				<path d="M 681 80 L 713 84 L 782 97 Q 804 100 804 112 Q 804 116 796 122 Q 788 128 773 133 Q 758 137 752 137 L 706 126 Q 694 126 682 122 L 619 111 L 594 106 L 558 102 L 545 102 Q 540 102 536 100 L 502 97 Q 476 95 496 74 Q 507 64 544 64 L 621 72 L 681 80 Z" fill="red"></path>
				<path d="M 677 -18 L 681 80 L 682 122 L 685 140 Q 685 142 689 151 L 693 164 Q 696 183 675 193 L 667 198 C 642 214 589 219 602 192 L 609 178 Q 614 170 616 141 L 619 111 L 621 72 L 622 -22 C 622 -52 676 -48 677 -18 Z" fill="lightgray"></path>
				<path d="M 411 -71 L 422 -78 L 442 -84 Q 459 -91 476 -84 Q 494 -78 525 -75 L 578 -68 L 739 -57 Q 787 -54 847 -57 Q 907 -60 913 -59 L 945 -57 Q 947 -57 956 -53 Q 966 -50 956 -36 Q 947 -23 917 -10 Q 888 2 881 2 Q 874 2 809 -6 L 714 -16 Q 710 -18 697 -18 L 677 -18 L 622 -22 L 592 -26 Q 555 -32 493 -36 L 403 -40 Q 389 -41 386 -44 Q 383 -48 388 -55 Q 393 -62 404 -68 Q 408 -68 411 -71 Z" fill="lightgray"></path>
</g>
		<text x="40" y="140" font-size="128" fill="#999999">13</text></g>
		<g id="id2:id3:id3" transform="matrix(1.0,0,0,1.0,3072,0.0)">			<g stroke="lightgray" stroke-width="4" transform="scale(4, 4)"> <rect x="0" y="0" width="256" height="256" fill="white" stroke-width="4"/></g>
			<g transform="scale(0.92, -0.92) translate(60, -920)">					<path d="M 202 584 L 179 591 Q 151 599 145 592 Q 140 590 143 580 L 151 563 Q 156 545 156 538 L 161 502 L 164 436 Q 164 198 132 95 Q 112 17 73 -48 L 59 -68 Q 54 -77 57 -80 Q 61 -84 69 -76 L 119 -27 Q 136 -7 147 13 Q 158 32 175 88 Q 192 143 195 161 L 199 184 L 201 200 L 207 287 Q 209 292 209 306 L 212 390 L 212 410 L 212 457 Q 212 480 213 488 L 219 552 C 221 575 221 575 214 578 L 202 584 Z" fill="black"></path>
				<path d="M 321 248 L 316 111 Q 316 92 315 87 L 310 42 Q 307 6 292 -2 Q 287 -6 268 0 L 224 16 Q 216 17 214 15 Q 212 12 215 9 L 234 -8 L 253 -30 Q 258 -38 273 -54 L 288 -75 Q 299 -91 310 -94 Q 325 -94 339 -75 Q 354 -56 360 -43 Q 372 -21 372 54 L 371 214 Q 369 239 371 296 L 371 392 Q 370 469 372 479 Q 374 489 374 499 L 374 516 L 378 540 Q 380 542 385 554 Q 390 566 390 570 Q 391 573 384 582 Q 372 593 353 604 Q 334 615 326 614 Q 318 612 302 606 L 277 594 L 214 578 C 185 571 190 546 219 552 L 261 561 Q 306 569 310 565 Q 317 561 317 532 L 319 372 L 319 361 L 321 272 L 321 248 Z" fill="black"></path>
				<path d="M 212 390 L 260 348 Q 272 336 279 332 Q 286 328 295 332 Q 310 335 319 361 C 322 369 322 369 319 372 L 310 382 Q 305 387 295 393 Q 276 401 266 403 L 224 410 L 212 410 C 189 410 189 410 212 390 Z" fill="black"></path>
				<path d="M 199 184 L 207 170 L 235 144 L 245 141 Q 247 141 254 150 L 258 161 Q 258 163 261 166 L 321 248 C 339 272 344 291 321 272 L 269 230 Q 260 224 248 220 Q 235 211 228 209 Q 222 207 201 200 C 192 197 192 197 199 184 Z" fill="black"></path>
				<path d="M 671 451 L 674 585 L 677 624 Q 678 631 678 645 Q 678 658 685 671 Q 693 684 693 690 Q 693 695 683 702 Q 673 708 650 718 Q 627 727 611 725 Q 596 722 594 716 Q 592 709 596 703 L 604 691 Q 612 671 614 630 L 618 446 C 619 416 670 421 671 451 Z" fill="black"></path>
				<path d="M 473 558 L 505 509 Q 509 500 521 494 Q 542 480 552 496 Q 558 501 561 517 Q 570 559 509 578 Q 479 588 470 590 Q 461 591 458 587 Q 456 582 473 558 Z" fill="black"></path>
				<path d="M 720 508 L 748 520 Q 752 520 768 529 Q 785 537 815 548 L 836 554 Q 847 559 857 560 L 869 564 L 872 572 Q 872 578 865 591 Q 858 603 849 609 Q 811 639 799 637 Q 795 637 792 634 L 776 595 L 755 564 L 734 540 L 712 520 Q 705 511 707 507 Q 709 503 720 508 Z" fill="black"></path>
				<path d="M 455 433 L 450 446 Q 447 454 441 458 Q 429 469 422 445 L 408 388 L 393 351 L 389 329 Q 386 309 408 294 Q 420 289 425 291 Q 431 292 439 304 Q 447 320 451 332 Q 461 376 460 383 L 460 403 L 455 433 Z" fill="black"></path>
				<path d="M 727 457 L 671 451 L 618 446 L 582 442 Q 581 441 538 438 L 490 435 Q 484 433 472 433 L 455 433 C 425 433 430 407 460 403 L 485 400 Q 489 398 516 403 L 640 421 L 811 438 Q 832 440 841 440 L 857 440 Q 877 441 845 388 L 827 356 Q 822 349 825 344 Q 828 341 836 346 L 857 357 Q 859 359 862 359 L 910 378 Q 916 380 932 381 Q 949 382 955 388 Q 959 388 964 396 Q 967 414 941 440 Q 910 466 891 475 Q 881 478 875 478 L 765 461 Q 763 460 727 457 Z" fill="black"></path>
				<path d="M 535 332 L 522 336 L 506 339 Q 487 342 481 336 Q 475 330 479 327 L 492 316 Q 496 311 508 289 L 525 211 Q 528 189 539 180 Q 553 172 559 181 L 567 192 C 571 197 571 197 567 223 L 554 310 C 551 327 551 327 535 332 Z" fill="black"></path>
				<path d="M 749 234 L 760 256 Q 777 292 789 304 L 803 317 Q 822 328 792 347 Q 763 366 748 366 L 703 357 L 535 332 C 505 328 524 306 554 310 L 656 322 Q 699 326 705 328 Q 723 328 726 322 Q 728 317 725 300 L 719 272 Q 720 270 710 241 C 700 213 736 207 749 234 Z" fill="black"></path>
				<path d="M 667 198 L 749 206 Q 765 206 770 211 Q 771 214 763 222 L 749 234 C 739 243 739 243 710 241 L 693 240 Q 681 240 652 234 L 567 223 C 537 219 537 191 567 192 L 590 193 Q 599 193 602 192 L 667 198 Z" fill="black"></path>
				<path d="M 681 80 L 713 84 L 782 97 Q 804 100 804 112 Q 804 116 796 122 Q 788 128 773 133 Q 758 137 752 137 L 706 126 Q 694 126 682 122 L 619 111 L 594 106 L 558 102 L 545 102 Q 540 102 536 100 L 502 97 Q 476 95 496 74 Q 507 64 544 64 L 621 72 L 681 80 Z" fill="black"></path>
				<path d="M 677 -18 L 681 80 L 682 122 L 685 140 Q 685 142 689 151 L 693 164 Q 696 183 675 193 L 667 198 C 642 214 589 219 602 192 L 609 178 Q 614 170 616 141 L 619 111 L 621 72 L 622 -22 C 622 -52 676 -48 677 -18 Z" fill="red"></path>
				<path d="M 411 -71 L 422 -78 L 442 -84 Q 459 -91 476 -84 Q 494 -78 525 -75 L 578 -68 L 739 -57 Q 787 -54 847 -57 Q 907 -60 913 -59 L 945 -57 Q 947 -57 956 -53 Q 966 -50 956 -36 Q 947 -23 917 -10 Q 888 2 881 2 Q 874 2 809 -6 L 714 -16 Q 710 -18 697 -18 L 677 -18 L 622 -22 L 592 -26 Q 555 -32 493 -36 L 403 -40 Q 389 -41 386 -44 Q 383 -48 388 -55 Q 393 -62 404 -68 Q 408 -68 411 -71 Z" fill="lightgray"></path>
</g>
		<text x="40" y="140" font-size="128" fill="#999999">14</text></g>
		<g id="id2:id4:id4" transform="matrix(1.0,0,0,1.0,4096,0.0)">			<g stroke="lightgray" stroke-width="4" transform="scale(4, 4)"> <rect x="0" y="0" width="256" height="256" fill="white" stroke-width="4"/></g>
			<g transform="scale(0.92, -0.92) translate(60, -920)">					<path d="M 202 584 L 179 591 Q 151 599 145 592 Q 140 590 143 580 L 151 563 Q 156 545 156 538 L 161 502 L 164 436 Q 164 198 132 95 Q 112 17 73 -48 L 59 -68 Q 54 -77 57 -80 Q 61 -84 69 -76 L 119 -27 Q 136 -7 147 13 Q 158 32 175 88 Q 192 143 195 161 L 199 184 L 201 200 L 207 287 Q 209 292 209 306 L 212 390 L 212 410 L 212 457 Q 212 480 213 488 L 219 552 C 221 575 221 575 214 578 L 202 584 Z" fill="black"></path>
				<path d="M 321 248 L 316 111 Q 316 92 315 87 L 310 42 Q 307 6 292 -2 Q 287 -6 268 0 L 224 16 Q 216 17 214 15 Q 212 12 215 9 L 234 -8 L 253 -30 Q 258 -38 273 -54 L 288 -75 Q 299 -91 310 -94 Q 325 -94 339 -75 Q 354 -56 360 -43 Q 372 -21 372 54 L 371 214 Q 369 239 371 296 L 371 392 Q 370 469 372 479 Q 374 489 374 499 L 374 516 L 378 540 Q 380 542 385 554 Q 390 566 390 570 Q 391 573 384 582 Q 372 593 353 604 Q 334 615 326 614 Q 318 612 302 606 L 277 594 L 214 578 C 185 571 190 546 219 552 L 261 561 Q 306 569 310 565 Q 317 561 317 532 L 319 372 L 319 361 L 321 272 L 321 248 Z" fill="black"></path>
				<path d="M 212 390 L 260 348 Q 272 336 279 332 Q 286 328 295 332 Q 310 335 319 361 C 322 369 322 369 319 372 L 310 382 Q 305 387 295 393 Q 276 401 266 403 L 224 410 L 212 410 C 189 410 189 410 212 390 Z" fill="black"></path>
				<path d="M 199 184 L 207 170 L 235 144 L 245 141 Q 247 141 254 150 L 258 161 Q 258 163 261 166 L 321 248 C 339 272 344 291 321 272 L 269 230 Q 260 224 248 220 Q 235 211 228 209 Q 222 207 201 200 C 192 197 192 197 199 184 Z" fill="black"></path>
				<path d="M 671 451 L 674 585 L 677 624 Q 678 631 678 645 Q 678 658 685 671 Q 693 684 693 690 Q 693 695 683 702 Q 673 708 650 718 Q 627 727 611 725 Q 596 722 594 716 Q 592 709 596 703 L 604 691 Q 612 671 614 630 L 618 446 C 619 416 670 421 671 451 Z" fill="black"></path>
				<path d="M 473 558 L 505 509 Q 509 500 521 494 Q 542 480 552 496 Q 558 501 561 517 Q 570 559 509 578 Q 479 588 470 590 Q 461 591 458 587 Q 456 582 473 558 Z" fill="black"></path>
				<path d="M 720 508 L 748 520 Q 752 520 768 529 Q 785 537 815 548 L 836 554 Q 847 559 857 560 L 869 564 L 872 572 Q 872 578 865 591 Q 858 603 849 609 Q 811 639 799 637 Q 795 637 792 634 L 776 595 L 755 564 L 734 540 L 712 520 Q 705 511 707 507 Q 709 503 720 508 Z" fill="black"></path>
				<path d="M 455 433 L 450 446 Q 447 454 441 458 Q 429 469 422 445 L 408 388 L 393 351 L 389 329 Q 386 309 408 294 Q 420 289 425 291 Q 431 292 439 304 Q 447 320 451 332 Q 461 376 460 383 L 460 403 L 455 433 Z" fill="black"></path>
				<path d="M 727 457 L 671 451 L 618 446 L 582 442 Q 581 441 538 438 L 490 435 Q 484 433 472 433 L 455 433 C 425 433 430 407 460 403 L 485 400 Q 489 398 516 403 L 640 421 L 811 438 Q 832 440 841 440 L 857 440 Q 877 441 845 388 L 827 356 Q 822 349 825 344 Q 828 341 836 346 L 857 357 Q 859 359 862 359 L 910 378 Q 916 380 932 381 Q 949 382 955 388 Q 959 388 964 396 Q 967 414 941 440 Q 910 466 891 475 Q 881 478 875 478 L 765 461 Q 763 460 727 457 Z" fill="black"></path>
				<path d="M 535 332 L 522 336 L 506 339 Q 487 342 481 336 Q 475 330 479 327 L 492 316 Q 496 311 508 289 L 525 211 Q 528 189 539 180 Q 553 172 559 181 L 567 192 C 571 197 571 197 567 223 L 554 310 C 551 327 551 327 535 332 Z" fill="black"></path>
				<path d="M 749 234 L 760 256 Q 777 292 789 304 L 803 317 Q 822 328 792 347 Q 763 366 748 366 L 703 357 L 535 332 C 505 328 524 306 554 310 L 656 322 Q 699 326 705 328 Q 723 328 726 322 Q 728 317 725 300 L 719 272 Q 720 270 710 241 C 700 213 736 207 749 234 Z" fill="black"></path>
				<path d="M 667 198 L 749 206 Q 765 206 770 211 Q 771 214 763 222 L 749 234 C 739 243 739 243 710 241 L 693 240 Q 681 240 652 234 L 567 223 C 537 219 537 191 567 192 L 590 193 Q 599 193 602 192 L 667 198 Z" fill="black"></path>
				<path d="M 681 80 L 713 84 L 782 97 Q 804 100 804 112 Q 804 116 796 122 Q 788 128 773 133 Q 758 137 752 137 L 706 126 Q 694 126 682 122 L 619 111 L 594 106 L 558 102 L 545 102 Q 540 102 536 100 L 502 97 Q 476 95 496 74 Q 507 64 544 64 L 621 72 L 681 80 Z" fill="black"></path>
				<path d="M 677 -18 L 681 80 L 682 122 L 685 140 Q 685 142 689 151 L 693 164 Q 696 183 675 193 L 667 198 C 642 214 589 219 602 192 L 609 178 Q 614 170 616 141 L 619 111 L 621 72 L 622 -22 C 622 -52 676 -48 677 -18 Z" fill="black"></path>
				<path d="M 411 -71 L 422 -78 L 442 -84 Q 459 -91 476 -84 Q 494 -78 525 -75 L 578 -68 L 739 -57 Q 787 -54 847 -57 Q 907 -60 913 -59 L 945 -57 Q 947 -57 956 -53 Q 966 -50 956 -36 Q 947 -23 917 -10 Q 888 2 881 2 Q 874 2 809 -6 L 714 -16 Q 710 -18 697 -18 L 677 -18 L 622 -22 L 592 -26 Q 555 -32 493 -36 L 403 -40 Q 389 -41 386 -44 Q 383 -48 388 -55 Q 393 -62 404 -68 Q 408 -68 411 -71 Z" fill="red"></path>
</g>
		<text x="40" y="140" font-size="128" fill="#999999">15</text></g>
</g>
</svg>
