<?xml version="1.0" standalone="no"?>
<!DOCTYPE svg PUBLIC "-//W3C//DTD SVG 1.1//EN"
 "http://www.w3.org/Graphics/SVG/1.1/DTD/svg11.dtd">
<!-- generate by Japanese dictionary app com.asnsami.kanjidictionary -->

<svg xmlns="http://www.w3.org/2000/svg" xmlns:sodipodi="http://sodipodi.sourceforge.net/DTD/sodipodi-0.dtd" version="1.1" width="640" height="256" viewBox="0 0 5120 2048">
	<g id="id0:id0" transform="translate(0.0,0)">
		<g id="id0:id0:id0" transform="matrix(1.0,0,0,1.0,0,0.0)">			<g stroke="lightgray" stroke-width="4" transform="scale(4, 4)"> <rect x="0" y="0" width="256" height="256" fill="white" stroke-width="4"/></g>
			<g transform="scale(0.92, -0.92) translate(60, -920)">					<path d="M 636 686 Q 714 695 824 685 Q 840 684 846 694 Q 852 706 838 721 Q 784 767 700 745 Q 679 742 659 738 L 601 729 Q 522 719 436 707 L 385 702 Q 295 693 193 683 Q 162 680 183 663 Q 229 633 287 644 Q 341 657 394 665 L 438 671 Q 508 681 590 684 L 636 686 Z" fill="red"></path>
				<path d="M 436 707 Q 435 734 434 755 Q 435 774 416 781 Q 377 802 355 794 Q 336 787 351 766 Q 375 736 385 702 L 394 665 Q 406 602 420 588 Q 433 578 437 589 Q 443 604 438 671 L 436 707 Z" fill="lightgray"></path>
				<path d="M 659 738 Q 666 754 680 774 Q 693 787 684 798 Q 672 814 639 832 Q 623 842 607 833 Q 597 827 604 817 Q 613 790 601 729 L 590 684 Q 574 626 575 615 Q 576 602 591 612 Q 607 625 636 686 L 659 738 Z" fill="lightgray"></path>
				<path d="M 578 342 Q 591 323 605 317 Q 615 310 630 331 Q 642 350 668 455 Q 677 485 699 510 Q 712 522 700 536 Q 685 552 643 577 Q 625 586 557 567 L 372 525 C 343 518 373 486 402 495 Q 463 514 573 534 Q 598 538 607 530 Q 617 518 615 506 Q 597 394 582 378 C 569 354 569 354 578 342 Z" fill="lightgray"></path>
				<path d="M 396 404 Q 421 410 536 429 Q 558 433 549 445 Q 539 458 515 462 Q 479 465 395 430 C 367 419 367 397 396 404 Z" fill="lightgray"></path>
				<path d="M 479 328 Q 516 335 578 342 C 608 345 610 368 582 378 Q 567 385 541 377 Q 462 355 396 341 C 367 335 366 314 396 313 Q 403 312 413 314 Q 420 317 433 319 L 479 328 Z" fill="lightgray"></path>
				<path d="M 372 525 Q 360 534 348 539 Q 329 546 320 540 Q 310 534 319 518 Q 367 422 339 148 Q 335 99 293 49 Q 280 33 287 10 Q 297 -18 310 -30 Q 323 -39 336 -21 Q 355 7 525 121 Q 546 133 551 142 Q 557 152 546 153 Q 531 153 405 97 Q 386 90 386 107 Q 393 219 396 313 L 396 341 Q 396 374 396 404 L 395 430 Q 396 458 401 481 Q 404 488 402 495 C 403 506 398 509 372 525 Z" fill="lightgray"></path>
				<path d="M 608 206 Q 608 207 612 208 Q 724 268 779 289 Q 800 290 796 304 Q 792 323 774 346 Q 755 370 731 375 Q 715 376 712 355 Q 713 328 597 223 Q 596 222 593 219 C 571 198 581 192 608 206 Z" fill="lightgray"></path>
				<path d="M 593 219 Q 548 259 500 311 Q 490 321 479 328 C 455 346 409 336 433 319 Q 484 286 576 176 Q 631 109 736 23 Q 767 -1 814 9 Q 925 28 946 37 Q 953 46 940 53 Q 924 62 794 95 Q 712 117 608 206 L 593 219 Z" fill="lightgray"></path>
</g>
		<text x="40" y="140" font-size="128" fill="#999999">1</text></g>
		<g id="id0:id1:id1" transform="matrix(1.0,0,0,1.0,1024,0.0)">			<g stroke="lightgray" stroke-width="4" transform="scale(4, 4)"> <rect x="0" y="0" width="256" height="256" fill="white" stroke-width="4"/></g>
			<g transform="scale(0.92, -0.92) translate(60, -920)">					<path d="M 636 686 Q 714 695 824 685 Q 840 684 846 694 Q 852 706 838 721 Q 784 767 700 745 Q 679 742 659 738 L 601 729 Q 522 719 436 707 L 385 702 Q 295 693 193 683 Q 162 680 183 663 Q 229 633 287 644 Q 341 657 394 665 L 438 671 Q 508 681 590 684 L 636 686 Z" fill="black"></path>
				<path d="M 436 707 Q 435 734 434 755 Q 435 774 416 781 Q 377 802 355 794 Q 336 787 351 766 Q 375 736 385 702 L 394 665 Q 406 602 420 588 Q 433 578 437 589 Q 443 604 438 671 L 436 707 Z" fill="red"></path>
				<path d="M 659 738 Q 666 754 680 774 Q 693 787 684 798 Q 672 814 639 832 Q 623 842 607 833 Q 597 827 604 817 Q 613 790 601 729 L 590 684 Q 574 626 575 615 Q 576 602 591 612 Q 607 625 636 686 L 659 738 Z" fill="lightgray"></path>
				<path d="M 578 342 Q 591 323 605 317 Q 615 310 630 331 Q 642 350 668 455 Q 677 485 699 510 Q 712 522 700 536 Q 685 552 643 577 Q 625 586 557 567 L 372 525 C 343 518 373 486 402 495 Q 463 514 573 534 Q 598 538 607 530 Q 617 518 615 506 Q 597 394 582 378 C 569 354 569 354 578 342 Z" fill="lightgray"></path>
				<path d="M 396 404 Q 421 410 536 429 Q 558 433 549 445 Q 539 458 515 462 Q 479 465 395 430 C 367 419 367 397 396 404 Z" fill="lightgray"></path>
				<path d="M 479 328 Q 516 335 578 342 C 608 345 610 368 582 378 Q 567 385 541 377 Q 462 355 396 341 C 367 335 366 314 396 313 Q 403 312 413 314 Q 420 317 433 319 L 479 328 Z" fill="lightgray"></path>
				<path d="M 372 525 Q 360 534 348 539 Q 329 546 320 540 Q 310 534 319 518 Q 367 422 339 148 Q 335 99 293 49 Q 280 33 287 10 Q 297 -18 310 -30 Q 323 -39 336 -21 Q 355 7 525 121 Q 546 133 551 142 Q 557 152 546 153 Q 531 153 405 97 Q 386 90 386 107 Q 393 219 396 313 L 396 341 Q 396 374 396 404 L 395 430 Q 396 458 401 481 Q 404 488 402 495 C 403 506 398 509 372 525 Z" fill="lightgray"></path>
				<path d="M 608 206 Q 608 207 612 208 Q 724 268 779 289 Q 800 290 796 304 Q 792 323 774 346 Q 755 370 731 375 Q 715 376 712 355 Q 713 328 597 223 Q 596 222 593 219 C 571 198 581 192 608 206 Z" fill="lightgray"></path>
				<path d="M 593 219 Q 548 259 500 311 Q 490 321 479 328 C 455 346 409 336 433 319 Q 484 286 576 176 Q 631 109 736 23 Q 767 -1 814 9 Q 925 28 946 37 Q 953 46 940 53 Q 924 62 794 95 Q 712 117 608 206 L 593 219 Z" fill="lightgray"></path>
</g>
		<text x="40" y="140" font-size="128" fill="#999999">2</text></g>
		<g id="id0:id2:id2" transform="matrix(1.0,0,0,1.0,2048,0.0)">			<g stroke="lightgray" stroke-width="4" transform="scale(4, 4)"> <rect x="0" y="0" width="256" height="256" fill="white" stroke-width="4"/></g>
			<g transform="scale(0.92, -0.92) translate(60, -920)">					<path d="M 636 686 Q 714 695 824 685 Q 840 684 846 694 Q 852 706 838 721 Q 784 767 700 745 Q 679 742 659 738 L 601 729 Q 522 719 436 707 L 385 702 Q 295 693 193 683 Q 162 680 183 663 Q 229 633 287 644 Q 341 657 394 665 L 438 671 Q 508 681 590 684 L 636 686 Z" fill="black"></path>
				<path d="M 436 707 Q 435 734 434 755 Q 435 774 416 781 Q 377 802 355 794 Q 336 787 351 766 Q 375 736 385 702 L 394 665 Q 406 602 420 588 Q 433 578 437 589 Q 443 604 438 671 L 436 707 Z" fill="black"></path>
				<path d="M 659 738 Q 666 754 680 774 Q 693 787 684 798 Q 672 814 639 832 Q 623 842 607 833 Q 597 827 604 817 Q 613 790 601 729 L 590 684 Q 574 626 575 615 Q 576 602 591 612 Q 607 625 636 686 L 659 738 Z" fill="red"></path>
				<path d="M 578 342 Q 591 323 605 317 Q 615 310 630 331 Q 642 350 668 455 Q 677 485 699 510 Q 712 522 700 536 Q 685 552 643 577 Q 625 586 557 567 L 372 525 C 343 518 373 486 402 495 Q 463 514 573 534 Q 598 538 607 530 Q 617 518 615 506 Q 597 394 582 378 C 569 354 569 354 578 342 Z" fill="lightgray"></path>
				<path d="M 396 404 Q 421 410 536 429 Q 558 433 549 445 Q 539 458 515 462 Q 479 465 395 430 C 367 419 367 397 396 404 Z" fill="lightgray"></path>
				<path d="M 479 328 Q 516 335 578 342 C 608 345 610 368 582 378 Q 567 385 541 377 Q 462 355 396 341 C 367 335 366 314 396 313 Q 403 312 413 314 Q 420 317 433 319 L 479 328 Z" fill="lightgray"></path>
				<path d="M 372 525 Q 360 534 348 539 Q 329 546 320 540 Q 310 534 319 518 Q 367 422 339 148 Q 335 99 293 49 Q 280 33 287 10 Q 297 -18 310 -30 Q 323 -39 336 -21 Q 355 7 525 121 Q 546 133 551 142 Q 557 152 546 153 Q 531 153 405 97 Q 386 90 386 107 Q 393 219 396 313 L 396 341 Q 396 374 396 404 L 395 430 Q 396 458 401 481 Q 404 488 402 495 C 403 506 398 509 372 525 Z" fill="lightgray"></path>
				<path d="M 608 206 Q 608 207 612 208 Q 724 268 779 289 Q 800 290 796 304 Q 792 323 774 346 Q 755 370 731 375 Q 715 376 712 355 Q 713 328 597 223 Q 596 222 593 219 C 571 198 581 192 608 206 Z" fill="lightgray"></path>
				<path d="M 593 219 Q 548 259 500 311 Q 490 321 479 328 C 455 346 409 336 433 319 Q 484 286 576 176 Q 631 109 736 23 Q 767 -1 814 9 Q 925 28 946 37 Q 953 46 940 53 Q 924 62 794 95 Q 712 117 608 206 L 593 219 Z" fill="lightgray"></path>
</g>
		<text x="40" y="140" font-size="128" fill="#999999">3</text></g>
		<g id="id0:id3:id3" transform="matrix(1.0,0,0,1.0,3072,0.0)">			<g stroke="lightgray" stroke-width="4" transform="scale(4, 4)"> <rect x="0" y="0" width="256" height="256" fill="white" stroke-width="4"/></g>
			<g transform="scale(0.92, -0.92) translate(60, -920)">					<path d="M 636 686 Q 714 695 824 685 Q 840 684 846 694 Q 852 706 838 721 Q 784 767 700 745 Q 679 742 659 738 L 601 729 Q 522 719 436 707 L 385 702 Q 295 693 193 683 Q 162 680 183 663 Q 229 633 287 644 Q 341 657 394 665 L 438 671 Q 508 681 590 684 L 636 686 Z" fill="black"></path>
				<path d="M 436 707 Q 435 734 434 755 Q 435 774 416 781 Q 377 802 355 794 Q 336 787 351 766 Q 375 736 385 702 L 394 665 Q 406 602 420 588 Q 433 578 437 589 Q 443 604 438 671 L 436 707 Z" fill="black"></path>
				<path d="M 659 738 Q 666 754 680 774 Q 693 787 684 798 Q 672 814 639 832 Q 623 842 607 833 Q 597 827 604 817 Q 613 790 601 729 L 590 684 Q 574 626 575 615 Q 576 602 591 612 Q 607 625 636 686 L 659 738 Z" fill="black"></path>
				<path d="M 578 342 Q 591 323 605 317 Q 615 310 630 331 Q 642 350 668 455 Q 677 485 699 510 Q 712 522 700 536 Q 685 552 643 577 Q 625 586 557 567 L 372 525 C 343 518 373 486 402 495 Q 463 514 573 534 Q 598 538 607 530 Q 617 518 615 506 Q 597 394 582 378 C 569 354 569 354 578 342 Z" fill="red"></path>
				<path d="M 396 404 Q 421 410 536 429 Q 558 433 549 445 Q 539 458 515 462 Q 479 465 395 430 C 367 419 367 397 396 404 Z" fill="lightgray"></path>
				<path d="M 479 328 Q 516 335 578 342 C 608 345 610 368 582 378 Q 567 385 541 377 Q 462 355 396 341 C 367 335 366 314 396 313 Q 403 312 413 314 Q 420 317 433 319 L 479 328 Z" fill="lightgray"></path>
				<path d="M 372 525 Q 360 534 348 539 Q 329 546 320 540 Q 310 534 319 518 Q 367 422 339 148 Q 335 99 293 49 Q 280 33 287 10 Q 297 -18 310 -30 Q 323 -39 336 -21 Q 355 7 525 121 Q 546 133 551 142 Q 557 152 546 153 Q 531 153 405 97 Q 386 90 386 107 Q 393 219 396 313 L 396 341 Q 396 374 396 404 L 395 430 Q 396 458 401 481 Q 404 488 402 495 C 403 506 398 509 372 525 Z" fill="lightgray"></path>
				<path d="M 608 206 Q 608 207 612 208 Q 724 268 779 289 Q 800 290 796 304 Q 792 323 774 346 Q 755 370 731 375 Q 715 376 712 355 Q 713 328 597 223 Q 596 222 593 219 C 571 198 581 192 608 206 Z" fill="lightgray"></path>
				<path d="M 593 219 Q 548 259 500 311 Q 490 321 479 328 C 455 346 409 336 433 319 Q 484 286 576 176 Q 631 109 736 23 Q 767 -1 814 9 Q 925 28 946 37 Q 953 46 940 53 Q 924 62 794 95 Q 712 117 608 206 L 593 219 Z" fill="lightgray"></path>
</g>
		<text x="40" y="140" font-size="128" fill="#999999">4</text></g>
		<g id="id0:id4:id4" transform="matrix(1.0,0,0,1.0,4096,0.0)">			<g stroke="lightgray" stroke-width="4" transform="scale(4, 4)"> <rect x="0" y="0" width="256" height="256" fill="white" stroke-width="4"/></g>
			<g transform="scale(0.92, -0.92) translate(60, -920)">					<path d="M 636 686 Q 714 695 824 685 Q 840 684 846 694 Q 852 706 838 721 Q 784 767 700 745 Q 679 742 659 738 L 601 729 Q 522 719 436 707 L 385 702 Q 295 693 193 683 Q 162 680 183 663 Q 229 633 287 644 Q 341 657 394 665 L 438 671 Q 508 681 590 684 L 636 686 Z" fill="black"></path>
				<path d="M 436 707 Q 435 734 434 755 Q 435 774 416 781 Q 377 802 355 794 Q 336 787 351 766 Q 375 736 385 702 L 394 665 Q 406 602 420 588 Q 433 578 437 589 Q 443 604 438 671 L 436 707 Z" fill="black"></path>
				<path d="M 659 738 Q 666 754 680 774 Q 693 787 684 798 Q 672 814 639 832 Q 623 842 607 833 Q 597 827 604 817 Q 613 790 601 729 L 590 684 Q 574 626 575 615 Q 576 602 591 612 Q 607 625 636 686 L 659 738 Z" fill="black"></path>
				<path d="M 578 342 Q 591 323 605 317 Q 615 310 630 331 Q 642 350 668 455 Q 677 485 699 510 Q 712 522 700 536 Q 685 552 643 577 Q 625 586 557 567 L 372 525 C 343 518 373 486 402 495 Q 463 514 573 534 Q 598 538 607 530 Q 617 518 615 506 Q 597 394 582 378 C 569 354 569 354 578 342 Z" fill="black"></path>
				<path d="M 396 404 Q 421 410 536 429 Q 558 433 549 445 Q 539 458 515 462 Q 479 465 395 430 C 367 419 367 397 396 404 Z" fill="red"></path>
				<path d="M 479 328 Q 516 335 578 342 C 608 345 610 368 582 378 Q 567 385 541 377 Q 462 355 396 341 C 367 335 366 314 396 313 Q 403 312 413 314 Q 420 317 433 319 L 479 328 Z" fill="lightgray"></path>
				<path d="M 372 525 Q 360 534 348 539 Q 329 546 320 540 Q 310 534 319 518 Q 367 422 339 148 Q 335 99 293 49 Q 280 33 287 10 Q 297 -18 310 -30 Q 323 -39 336 -21 Q 355 7 525 121 Q 546 133 551 142 Q 557 152 546 153 Q 531 153 405 97 Q 386 90 386 107 Q 393 219 396 313 L 396 341 Q 396 374 396 404 L 395 430 Q 396 458 401 481 Q 404 488 402 495 C 403 506 398 509 372 525 Z" fill="lightgray"></path>
				<path d="M 608 206 Q 608 207 612 208 Q 724 268 779 289 Q 800 290 796 304 Q 792 323 774 346 Q 755 370 731 375 Q 715 376 712 355 Q 713 328 597 223 Q 596 222 593 219 C 571 198 581 192 608 206 Z" fill="lightgray"></path>
				<path d="M 593 219 Q 548 259 500 311 Q 490 321 479 328 C 455 346 409 336 433 319 Q 484 286 576 176 Q 631 109 736 23 Q 767 -1 814 9 Q 925 28 946 37 Q 953 46 940 53 Q 924 62 794 95 Q 712 117 608 206 L 593 219 Z" fill="lightgray"></path>
</g>
		<text x="40" y="140" font-size="128" fill="#999999">5</text></g>
</g>
	<g id="id1:id1" transform="translate(0.0,1024)">
		<g id="id1:id0:id0" transform="matrix(1.0,0,0,1.0,0,0.0)">			<g stroke="lightgray" stroke-width="4" transform="scale(4, 4)"> <rect x="0" y="0" width="256" height="256" fill="white" stroke-width="4"/></g>
			<g transform="scale(0.92, -0.92) translate(60, -920)">					<path d="M 636 686 Q 714 695 824 685 Q 840 684 846 694 Q 852 706 838 721 Q 784 767 700 745 Q 679 742 659 738 L 601 729 Q 522 719 436 707 L 385 702 Q 295 693 193 683 Q 162 680 183 663 Q 229 633 287 644 Q 341 657 394 665 L 438 671 Q 508 681 590 684 L 636 686 Z" fill="black"></path>
				<path d="M 436 707 Q 435 734 434 755 Q 435 774 416 781 Q 377 802 355 794 Q 336 787 351 766 Q 375 736 385 702 L 394 665 Q 406 602 420 588 Q 433 578 437 589 Q 443 604 438 671 L 436 707 Z" fill="black"></path>
				<path d="M 659 738 Q 666 754 680 774 Q 693 787 684 798 Q 672 814 639 832 Q 623 842 607 833 Q 597 827 604 817 Q 613 790 601 729 L 590 684 Q 574 626 575 615 Q 576 602 591 612 Q 607 625 636 686 L 659 738 Z" fill="black"></path>
				<path d="M 578 342 Q 591 323 605 317 Q 615 310 630 331 Q 642 350 668 455 Q 677 485 699 510 Q 712 522 700 536 Q 685 552 643 577 Q 625 586 557 567 L 372 525 C 343 518 373 486 402 495 Q 463 514 573 534 Q 598 538 607 530 Q 617 518 615 506 Q 597 394 582 378 C 569 354 569 354 578 342 Z" fill="black"></path>
				<path d="M 396 404 Q 421 410 536 429 Q 558 433 549 445 Q 539 458 515 462 Q 479 465 395 430 C 367 419 367 397 396 404 Z" fill="black"></path>
				<path d="M 479 328 Q 516 335 578 342 C 608 345 610 368 582 378 Q 567 385 541 377 Q 462 355 396 341 C 367 335 366 314 396 313 Q 403 312 413 314 Q 420 317 433 319 L 479 328 Z" fill="red"></path>
				<path d="M 372 525 Q 360 534 348 539 Q 329 546 320 540 Q 310 534 319 518 Q 367 422 339 148 Q 335 99 293 49 Q 280 33 287 10 Q 297 -18 310 -30 Q 323 -39 336 -21 Q 355 7 525 121 Q 546 133 551 142 Q 557 152 546 153 Q 531 153 405 97 Q 386 90 386 107 Q 393 219 396 313 L 396 341 Q 396 374 396 404 L 395 430 Q 396 458 401 481 Q 404 488 402 495 C 403 506 398 509 372 525 Z" fill="lightgray"></path>
				<path d="M 608 206 Q 608 207 612 208 Q 724 268 779 289 Q 800 290 796 304 Q 792 323 774 346 Q 755 370 731 375 Q 715 376 712 355 Q 713 328 597 223 Q 596 222 593 219 C 571 198 581 192 608 206 Z" fill="lightgray"></path>
				<path d="M 593 219 Q 548 259 500 311 Q 490 321 479 328 C 455 346 409 336 433 319 Q 484 286 576 176 Q 631 109 736 23 Q 767 -1 814 9 Q 925 28 946 37 Q 953 46 940 53 Q 924 62 794 95 Q 712 117 608 206 L 593 219 Z" fill="lightgray"></path>
</g>
		<text x="40" y="140" font-size="128" fill="#999999">6</text></g>
		<g id="id1:id1:id1" transform="matrix(1.0,0,0,1.0,1024,0.0)">			<g stroke="lightgray" stroke-width="4" transform="scale(4, 4)"> <rect x="0" y="0" width="256" height="256" fill="white" stroke-width="4"/></g>
			<g transform="scale(0.92, -0.92) translate(60, -920)">					<path d="M 636 686 Q 714 695 824 685 Q 840 684 846 694 Q 852 706 838 721 Q 784 767 700 745 Q 679 742 659 738 L 601 729 Q 522 719 436 707 L 385 702 Q 295 693 193 683 Q 162 680 183 663 Q 229 633 287 644 Q 341 657 394 665 L 438 671 Q 508 681 590 684 L 636 686 Z" fill="black"></path>
				<path d="M 436 707 Q 435 734 434 755 Q 435 774 416 781 Q 377 802 355 794 Q 336 787 351 766 Q 375 736 385 702 L 394 665 Q 406 602 420 588 Q 433 578 437 589 Q 443 604 438 671 L 436 707 Z" fill="black"></path>
				<path d="M 659 738 Q 666 754 680 774 Q 693 787 684 798 Q 672 814 639 832 Q 623 842 607 833 Q 597 827 604 817 Q 613 790 601 729 L 590 684 Q 574 626 575 615 Q 576 602 591 612 Q 607 625 636 686 L 659 738 Z" fill="black"></path>
				<path d="M 578 342 Q 591 323 605 317 Q 615 310 630 331 Q 642 350 668 455 Q 677 485 699 510 Q 712 522 700 536 Q 685 552 643 577 Q 625 586 557 567 L 372 525 C 343 518 373 486 402 495 Q 463 514 573 534 Q 598 538 607 530 Q 617 518 615 506 Q 597 394 582 378 C 569 354 569 354 578 342 Z" fill="black"></path>
				<path d="M 396 404 Q 421 410 536 429 Q 558 433 549 445 Q 539 458 515 462 Q 479 465 395 430 C 367 419 367 397 396 404 Z" fill="black"></path>
				<path d="M 479 328 Q 516 335 578 342 C 608 345 610 368 582 378 Q 567 385 541 377 Q 462 355 396 341 C 367 335 366 314 396 313 Q 403 312 413 314 Q 420 317 433 319 L 479 328 Z" fill="black"></path>
				<path d="M 372 525 Q 360 534 348 539 Q 329 546 320 540 Q 310 534 319 518 Q 367 422 339 148 Q 335 99 293 49 Q 280 33 287 10 Q 297 -18 310 -30 Q 323 -39 336 -21 Q 355 7 525 121 Q 546 133 551 142 Q 557 152 546 153 Q 531 153 405 97 Q 386 90 386 107 Q 393 219 396 313 L 396 341 Q 396 374 396 404 L 395 430 Q 396 458 401 481 Q 404 488 402 495 C 403 506 398 509 372 525 Z" fill="red"></path>
				<path d="M 608 206 Q 608 207 612 208 Q 724 268 779 289 Q 800 290 796 304 Q 792 323 774 346 Q 755 370 731 375 Q 715 376 712 355 Q 713 328 597 223 Q 596 222 593 219 C 571 198 581 192 608 206 Z" fill="lightgray"></path>
				<path d="M 593 219 Q 548 259 500 311 Q 490 321 479 328 C 455 346 409 336 433 319 Q 484 286 576 176 Q 631 109 736 23 Q 767 -1 814 9 Q 925 28 946 37 Q 953 46 940 53 Q 924 62 794 95 Q 712 117 608 206 L 593 219 Z" fill="lightgray"></path>
</g>
		<text x="40" y="140" font-size="128" fill="#999999">7</text></g>
		<g id="id1:id2:id2" transform="matrix(1.0,0,0,1.0,2048,0.0)">			<g stroke="lightgray" stroke-width="4" transform="scale(4, 4)"> <rect x="0" y="0" width="256" height="256" fill="white" stroke-width="4"/></g>
			<g transform="scale(0.92, -0.92) translate(60, -920)">					<path d="M 636 686 Q 714 695 824 685 Q 840 684 846 694 Q 852 706 838 721 Q 784 767 700 745 Q 679 742 659 738 L 601 729 Q 522 719 436 707 L 385 702 Q 295 693 193 683 Q 162 680 183 663 Q 229 633 287 644 Q 341 657 394 665 L 438 671 Q 508 681 590 684 L 636 686 Z" fill="black"></path>
				<path d="M 436 707 Q 435 734 434 755 Q 435 774 416 781 Q 377 802 355 794 Q 336 787 351 766 Q 375 736 385 702 L 394 665 Q 406 602 420 588 Q 433 578 437 589 Q 443 604 438 671 L 436 707 Z" fill="black"></path>
				<path d="M 659 738 Q 666 754 680 774 Q 693 787 684 798 Q 672 814 639 832 Q 623 842 607 833 Q 597 827 604 817 Q 613 790 601 729 L 590 684 Q 574 626 575 615 Q 576 602 591 612 Q 607 625 636 686 L 659 738 Z" fill="black"></path>
				<path d="M 578 342 Q 591 323 605 317 Q 615 310 630 331 Q 642 350 668 455 Q 677 485 699 510 Q 712 522 700 536 Q 685 552 643 577 Q 625 586 557 567 L 372 525 C 343 518 373 486 402 495 Q 463 514 573 534 Q 598 538 607 530 Q 617 518 615 506 Q 597 394 582 378 C 569 354 569 354 578 342 Z" fill="black"></path>
				<path d="M 396 404 Q 421 410 536 429 Q 558 433 549 445 Q 539 458 515 462 Q 479 465 395 430 C 367 419 367 397 396 404 Z" fill="black"></path>
				<path d="M 479 328 Q 516 335 578 342 C 608 345 610 368 582 378 Q 567 385 541 377 Q 462 355 396 341 C 367 335 366 314 396 313 Q 403 312 413 314 Q 420 317 433 319 L 479 328 Z" fill="black"></path>
				<path d="M 372 525 Q 360 534 348 539 Q 329 546 320 540 Q 310 534 319 518 Q 367 422 339 148 Q 335 99 293 49 Q 280 33 287 10 Q 297 -18 310 -30 Q 323 -39 336 -21 Q 355 7 525 121 Q 546 133 551 142 Q 557 152 546 153 Q 531 153 405 97 Q 386 90 386 107 Q 393 219 396 313 L 396 341 Q 396 374 396 404 L 395 430 Q 396 458 401 481 Q 404 488 402 495 C 403 506 398 509 372 525 Z" fill="black"></path>
				<path d="M 608 206 Q 608 207 612 208 Q 724 268 779 289 Q 800 290 796 304 Q 792 323 774 346 Q 755 370 731 375 Q 715 376 712 355 Q 713 328 597 223 Q 596 222 593 219 C 571 198 581 192 608 206 Z" fill="red"></path>
				<path d="M 593 219 Q 548 259 500 311 Q 490 321 479 328 C 455 346 409 336 433 319 Q 484 286 576 176 Q 631 109 736 23 Q 767 -1 814 9 Q 925 28 946 37 Q 953 46 940 53 Q 924 62 794 95 Q 712 117 608 206 L 593 219 Z" fill="lightgray"></path>
</g>
		<text x="40" y="140" font-size="128" fill="#999999">8</text></g>
		<g id="id1:id3:id3" transform="matrix(1.0,0,0,1.0,3072,0.0)">			<g stroke="lightgray" stroke-width="4" transform="scale(4, 4)"> <rect x="0" y="0" width="256" height="256" fill="white" stroke-width="4"/></g>
			<g transform="scale(0.92, -0.92) translate(60, -920)">					<path d="M 636 686 Q 714 695 824 685 Q 840 684 846 694 Q 852 706 838 721 Q 784 767 700 745 Q 679 742 659 738 L 601 729 Q 522 719 436 707 L 385 702 Q 295 693 193 683 Q 162 680 183 663 Q 229 633 287 644 Q 341 657 394 665 L 438 671 Q 508 681 590 684 L 636 686 Z" fill="black"></path>
				<path d="M 436 707 Q 435 734 434 755 Q 435 774 416 781 Q 377 802 355 794 Q 336 787 351 766 Q 375 736 385 702 L 394 665 Q 406 602 420 588 Q 433 578 437 589 Q 443 604 438 671 L 436 707 Z" fill="black"></path>
				<path d="M 659 738 Q 666 754 680 774 Q 693 787 684 798 Q 672 814 639 832 Q 623 842 607 833 Q 597 827 604 817 Q 613 790 601 729 L 590 684 Q 574 626 575 615 Q 576 602 591 612 Q 607 625 636 686 L 659 738 Z" fill="black"></path>
				<path d="M 578 342 Q 591 323 605 317 Q 615 310 630 331 Q 642 350 668 455 Q 677 485 699 510 Q 712 522 700 536 Q 685 552 643 577 Q 625 586 557 567 L 372 525 C 343 518 373 486 402 495 Q 463 514 573 534 Q 598 538 607 530 Q 617 518 615 506 Q 597 394 582 378 C 569 354 569 354 578 342 Z" fill="black"></path>
				<path d="M 396 404 Q 421 410 536 429 Q 558 433 549 445 Q 539 458 515 462 Q 479 465 395 430 C 367 419 367 397 396 404 Z" fill="black"></path>
				<path d="M 479 328 Q 516 335 578 342 C 608 345 610 368 582 378 Q 567 385 541 377 Q 462 355 396 341 C 367 335 366 314 396 313 Q 403 312 413 314 Q 420 317 433 319 L 479 328 Z" fill="black"></path>
				<path d="M 372 525 Q 360 534 348 539 Q 329 546 320 540 Q 310 534 319 518 Q 367 422 339 148 Q 335 99 293 49 Q 280 33 287 10 Q 297 -18 310 -30 Q 323 -39 336 -21 Q 355 7 525 121 Q 546 133 551 142 Q 557 152 546 153 Q 531 153 405 97 Q 386 90 386 107 Q 393 219 396 313 L 396 341 Q 396 374 396 404 L 395 430 Q 396 458 401 481 Q 404 488 402 495 C 403 506 398 509 372 525 Z" fill="black"></path>
				<path d="M 608 206 Q 608 207 612 208 Q 724 268 779 289 Q 800 290 796 304 Q 792 323 774 346 Q 755 370 731 375 Q 715 376 712 355 Q 713 328 597 223 Q 596 222 593 219 C 571 198 581 192 608 206 Z" fill="black"></path>
				<path d="M 593 219 Q 548 259 500 311 Q 490 321 479 328 C 455 346 409 336 433 319 Q 484 286 576 176 Q 631 109 736 23 Q 767 -1 814 9 Q 925 28 946 37 Q 953 46 940 53 Q 924 62 794 95 Q 712 117 608 206 L 593 219 Z" fill="red"></path>
</g>
		<text x="40" y="140" font-size="128" fill="#999999">9</text></g>
		<g id="id1:id4:id4" transform="matrix(1.0,0,0,1.0,4096,0.0)">			<g stroke="white" stroke-width="4" transform="scale(4, 4)"> <rect x="1" y="1" width="255" height="255" fill="white" stroke-width="0"/></g>
</g>
</g>
</svg>
