<?xml version="1.0" standalone="no"?>
<!DOCTYPE svg PUBLIC "-//W3C//DTD SVG 1.1//EN"
 "http://www.w3.org/Graphics/SVG/1.1/DTD/svg11.dtd">
<!-- generate by Japanese dictionary app com.asnsami.kanjidictionary -->

<svg xmlns="http://www.w3.org/2000/svg" xmlns:sodipodi="http://sodipodi.sourceforge.net/DTD/sodipodi-0.dtd" version="1.1" width="640" height="384" viewBox="0 0 5120 3072">
	<g id="id0:id0" transform="translate(0.0,0)">
		<g id="id0:id0:id0" transform="matrix(1.0,0,0,1.0,0,0.0)">			<g stroke="lightgray" stroke-width="4" transform="scale(4, 4)"> <rect x="0" y="0" width="256" height="256" fill="white" stroke-width="4"/></g>
			<g transform="scale(0.92, -0.92) translate(60, -920)">					<path d="M 785 672 Q 741 672 695 662 Q 676 658 658 655 L 592 643 Q 486 624 395 610 L 345 603 Q 331 601 316 599 Q 243 589 164 586 Q 138 586 136 570 Q 138 565 153 559 Q 180 548 207 547 Q 230 547 286 558 Q 318 563 355 569 L 399 575 Q 480 587 581 599 L 630 604 Q 720 611 824 613 Q 851 613 851 633 Q 851 648 831 660 Q 810 672 785 672 Z" fill="red"></path>
				<path d="M 395 610 L 390 660 Q 383 696 364 706 Q 341 717 312 718 Q 300 718 300 707 Q 301 704 311 693 Q 323 680 345 603 L 355 569 Q 361 545 369 514 Q 380 476 394 476 Q 406 476 406 504 L 399 575 L 395 610 Z" fill="lightgray"></path>
				<path d="M 658 655 Q 687 696 687 703 Q 687 723 645 742 Q 611 758 593 758 Q 578 758 578 746 Q 591 720 597 691 Q 597 668 592 643 L 581 599 Q 570 567 551 534 Q 535 503 535 496 Q 535 488 539 488 Q 568 488 604 550 Q 613 570 630 604 L 658 655 Z" fill="lightgray"></path>
				<path d="M 214 457 Q 203 457 203 453 Q 203 448 235 398 Q 274 343 300 343 Q 312 343 312 359 Q 312 380 304 401 Q 291 431 263 444 Q 241 455 214 457 Z" fill="lightgray"></path>
				<path d="M 97 340 L 89 340 Q 89 335 125 285 Q 166 230 195 230 Q 207 230 207 242 Q 207 263 198 283 Q 183 314 152 327 Q 127 338 97 340 Z" fill="lightgray"></path>
				<path d="M 296 269 Q 293 269 213 137 Q 174 72 136 54 Q 121 48 121 35 Q 121 15 140 -16 Q 158 -47 171 -47 Q 180 -47 183 -28 Q 190 2 250 128 Q 304 250 304 265 Q 304 269 296 269 Z" fill="lightgray"></path>
				<path d="M 667 500 Q 658 500 634 492 Q 577 474 417 457 Q 406 455 406 449 Q 406 442 427 434 Q 452 425 472 425 Q 486 425 511 429 Q 513 429 518 430 L 574 437 Q 610 442 667 449 Q 690 452 716 462 Q 729 468 730 480 Q 727 499 667 500 Z" fill="lightgray"></path>
				<path d="M 382 371 L 367 371 Q 367 367 395 315 Q 431 258 453 258 Q 468 258 468 273 Q 468 308 459 330 Q 447 353 427 363 Q 404 371 382 371 Z" fill="lightgray"></path>
				<path d="M 718 418 Q 713 418 709 413 Q 707 408 707 402 Q 707 389 690 362 Q 667 325 638 296 Q 621 281 617 273 Q 621 269 628 269 Q 681 288 721 320 Q 752 346 777 364 Q 789 371 789 375 Q 789 387 753 405 Q 729 418 718 418 Z" fill="lightgray"></path>
				<path d="M 539 223 Q 512 219 480 215 Q 362 197 296 191 Q 285 188 285 179 Q 286 175 310 160 Q 329 148 343 148 Q 354 148 389 157 Q 457 171 539 181 L 597 187 Q 704 199 792 199 L 835 197 Q 887 191 910 191 Q 943 192 945 211 Q 942 228 913 245 Q 885 261 863 261 Q 849 261 827 258 Q 790 254 750 250 Q 714 247 597 231 L 539 223 Z" fill="lightgray"></path>
				<path d="M 518 430 Q 518 428 520 425 Q 535 392 539 340 L 539 223 L 539 181 L 539 -117 Q 543 -168 558 -168 Q 571 -168 586 -123 Q 597 -66 597 41 L 597 187 L 597 231 L 597 355 Q 597 365 605 402 Q 605 413 574 437 C 551 456 507 458 518 430 Z" fill="lightgray"></path>
</g>
		<text x="40" y="140" font-size="128" fill="#999999">1</text></g>
		<g id="id0:id1:id1" transform="matrix(1.0,0,0,1.0,1024,0.0)">			<g stroke="lightgray" stroke-width="4" transform="scale(4, 4)"> <rect x="0" y="0" width="256" height="256" fill="white" stroke-width="4"/></g>
			<g transform="scale(0.92, -0.92) translate(60, -920)">					<path d="M 785 672 Q 741 672 695 662 Q 676 658 658 655 L 592 643 Q 486 624 395 610 L 345 603 Q 331 601 316 599 Q 243 589 164 586 Q 138 586 136 570 Q 138 565 153 559 Q 180 548 207 547 Q 230 547 286 558 Q 318 563 355 569 L 399 575 Q 480 587 581 599 L 630 604 Q 720 611 824 613 Q 851 613 851 633 Q 851 648 831 660 Q 810 672 785 672 Z" fill="black"></path>
				<path d="M 395 610 L 390 660 Q 383 696 364 706 Q 341 717 312 718 Q 300 718 300 707 Q 301 704 311 693 Q 323 680 345 603 L 355 569 Q 361 545 369 514 Q 380 476 394 476 Q 406 476 406 504 L 399 575 L 395 610 Z" fill="red"></path>
				<path d="M 658 655 Q 687 696 687 703 Q 687 723 645 742 Q 611 758 593 758 Q 578 758 578 746 Q 591 720 597 691 Q 597 668 592 643 L 581 599 Q 570 567 551 534 Q 535 503 535 496 Q 535 488 539 488 Q 568 488 604 550 Q 613 570 630 604 L 658 655 Z" fill="lightgray"></path>
				<path d="M 214 457 Q 203 457 203 453 Q 203 448 235 398 Q 274 343 300 343 Q 312 343 312 359 Q 312 380 304 401 Q 291 431 263 444 Q 241 455 214 457 Z" fill="lightgray"></path>
				<path d="M 97 340 L 89 340 Q 89 335 125 285 Q 166 230 195 230 Q 207 230 207 242 Q 207 263 198 283 Q 183 314 152 327 Q 127 338 97 340 Z" fill="lightgray"></path>
				<path d="M 296 269 Q 293 269 213 137 Q 174 72 136 54 Q 121 48 121 35 Q 121 15 140 -16 Q 158 -47 171 -47 Q 180 -47 183 -28 Q 190 2 250 128 Q 304 250 304 265 Q 304 269 296 269 Z" fill="lightgray"></path>
				<path d="M 667 500 Q 658 500 634 492 Q 577 474 417 457 Q 406 455 406 449 Q 406 442 427 434 Q 452 425 472 425 Q 486 425 511 429 Q 513 429 518 430 L 574 437 Q 610 442 667 449 Q 690 452 716 462 Q 729 468 730 480 Q 727 499 667 500 Z" fill="lightgray"></path>
				<path d="M 382 371 L 367 371 Q 367 367 395 315 Q 431 258 453 258 Q 468 258 468 273 Q 468 308 459 330 Q 447 353 427 363 Q 404 371 382 371 Z" fill="lightgray"></path>
				<path d="M 718 418 Q 713 418 709 413 Q 707 408 707 402 Q 707 389 690 362 Q 667 325 638 296 Q 621 281 617 273 Q 621 269 628 269 Q 681 288 721 320 Q 752 346 777 364 Q 789 371 789 375 Q 789 387 753 405 Q 729 418 718 418 Z" fill="lightgray"></path>
				<path d="M 539 223 Q 512 219 480 215 Q 362 197 296 191 Q 285 188 285 179 Q 286 175 310 160 Q 329 148 343 148 Q 354 148 389 157 Q 457 171 539 181 L 597 187 Q 704 199 792 199 L 835 197 Q 887 191 910 191 Q 943 192 945 211 Q 942 228 913 245 Q 885 261 863 261 Q 849 261 827 258 Q 790 254 750 250 Q 714 247 597 231 L 539 223 Z" fill="lightgray"></path>
				<path d="M 518 430 Q 518 428 520 425 Q 535 392 539 340 L 539 223 L 539 181 L 539 -117 Q 543 -168 558 -168 Q 571 -168 586 -123 Q 597 -66 597 41 L 597 187 L 597 231 L 597 355 Q 597 365 605 402 Q 605 413 574 437 C 551 456 507 458 518 430 Z" fill="lightgray"></path>
</g>
		<text x="40" y="140" font-size="128" fill="#999999">2</text></g>
		<g id="id0:id2:id2" transform="matrix(1.0,0,0,1.0,2048,0.0)">			<g stroke="lightgray" stroke-width="4" transform="scale(4, 4)"> <rect x="0" y="0" width="256" height="256" fill="white" stroke-width="4"/></g>
			<g transform="scale(0.92, -0.92) translate(60, -920)">					<path d="M 785 672 Q 741 672 695 662 Q 676 658 658 655 L 592 643 Q 486 624 395 610 L 345 603 Q 331 601 316 599 Q 243 589 164 586 Q 138 586 136 570 Q 138 565 153 559 Q 180 548 207 547 Q 230 547 286 558 Q 318 563 355 569 L 399 575 Q 480 587 581 599 L 630 604 Q 720 611 824 613 Q 851 613 851 633 Q 851 648 831 660 Q 810 672 785 672 Z" fill="black"></path>
				<path d="M 395 610 L 390 660 Q 383 696 364 706 Q 341 717 312 718 Q 300 718 300 707 Q 301 704 311 693 Q 323 680 345 603 L 355 569 Q 361 545 369 514 Q 380 476 394 476 Q 406 476 406 504 L 399 575 L 395 610 Z" fill="black"></path>
				<path d="M 658 655 Q 687 696 687 703 Q 687 723 645 742 Q 611 758 593 758 Q 578 758 578 746 Q 591 720 597 691 Q 597 668 592 643 L 581 599 Q 570 567 551 534 Q 535 503 535 496 Q 535 488 539 488 Q 568 488 604 550 Q 613 570 630 604 L 658 655 Z" fill="red"></path>
				<path d="M 214 457 Q 203 457 203 453 Q 203 448 235 398 Q 274 343 300 343 Q 312 343 312 359 Q 312 380 304 401 Q 291 431 263 444 Q 241 455 214 457 Z" fill="lightgray"></path>
				<path d="M 97 340 L 89 340 Q 89 335 125 285 Q 166 230 195 230 Q 207 230 207 242 Q 207 263 198 283 Q 183 314 152 327 Q 127 338 97 340 Z" fill="lightgray"></path>
				<path d="M 296 269 Q 293 269 213 137 Q 174 72 136 54 Q 121 48 121 35 Q 121 15 140 -16 Q 158 -47 171 -47 Q 180 -47 183 -28 Q 190 2 250 128 Q 304 250 304 265 Q 304 269 296 269 Z" fill="lightgray"></path>
				<path d="M 667 500 Q 658 500 634 492 Q 577 474 417 457 Q 406 455 406 449 Q 406 442 427 434 Q 452 425 472 425 Q 486 425 511 429 Q 513 429 518 430 L 574 437 Q 610 442 667 449 Q 690 452 716 462 Q 729 468 730 480 Q 727 499 667 500 Z" fill="lightgray"></path>
				<path d="M 382 371 L 367 371 Q 367 367 395 315 Q 431 258 453 258 Q 468 258 468 273 Q 468 308 459 330 Q 447 353 427 363 Q 404 371 382 371 Z" fill="lightgray"></path>
				<path d="M 718 418 Q 713 418 709 413 Q 707 408 707 402 Q 707 389 690 362 Q 667 325 638 296 Q 621 281 617 273 Q 621 269 628 269 Q 681 288 721 320 Q 752 346 777 364 Q 789 371 789 375 Q 789 387 753 405 Q 729 418 718 418 Z" fill="lightgray"></path>
				<path d="M 539 223 Q 512 219 480 215 Q 362 197 296 191 Q 285 188 285 179 Q 286 175 310 160 Q 329 148 343 148 Q 354 148 389 157 Q 457 171 539 181 L 597 187 Q 704 199 792 199 L 835 197 Q 887 191 910 191 Q 943 192 945 211 Q 942 228 913 245 Q 885 261 863 261 Q 849 261 827 258 Q 790 254 750 250 Q 714 247 597 231 L 539 223 Z" fill="lightgray"></path>
				<path d="M 518 430 Q 518 428 520 425 Q 535 392 539 340 L 539 223 L 539 181 L 539 -117 Q 543 -168 558 -168 Q 571 -168 586 -123 Q 597 -66 597 41 L 597 187 L 597 231 L 597 355 Q 597 365 605 402 Q 605 413 574 437 C 551 456 507 458 518 430 Z" fill="lightgray"></path>
</g>
		<text x="40" y="140" font-size="128" fill="#999999">3</text></g>
		<g id="id0:id3:id3" transform="matrix(1.0,0,0,1.0,3072,0.0)">			<g stroke="lightgray" stroke-width="4" transform="scale(4, 4)"> <rect x="0" y="0" width="256" height="256" fill="white" stroke-width="4"/></g>
			<g transform="scale(0.92, -0.92) translate(60, -920)">					<path d="M 785 672 Q 741 672 695 662 Q 676 658 658 655 L 592 643 Q 486 624 395 610 L 345 603 Q 331 601 316 599 Q 243 589 164 586 Q 138 586 136 570 Q 138 565 153 559 Q 180 548 207 547 Q 230 547 286 558 Q 318 563 355 569 L 399 575 Q 480 587 581 599 L 630 604 Q 720 611 824 613 Q 851 613 851 633 Q 851 648 831 660 Q 810 672 785 672 Z" fill="black"></path>
				<path d="M 395 610 L 390 660 Q 383 696 364 706 Q 341 717 312 718 Q 300 718 300 707 Q 301 704 311 693 Q 323 680 345 603 L 355 569 Q 361 545 369 514 Q 380 476 394 476 Q 406 476 406 504 L 399 575 L 395 610 Z" fill="black"></path>
				<path d="M 658 655 Q 687 696 687 703 Q 687 723 645 742 Q 611 758 593 758 Q 578 758 578 746 Q 591 720 597 691 Q 597 668 592 643 L 581 599 Q 570 567 551 534 Q 535 503 535 496 Q 535 488 539 488 Q 568 488 604 550 Q 613 570 630 604 L 658 655 Z" fill="black"></path>
				<path d="M 214 457 Q 203 457 203 453 Q 203 448 235 398 Q 274 343 300 343 Q 312 343 312 359 Q 312 380 304 401 Q 291 431 263 444 Q 241 455 214 457 Z" fill="red"></path>
				<path d="M 97 340 L 89 340 Q 89 335 125 285 Q 166 230 195 230 Q 207 230 207 242 Q 207 263 198 283 Q 183 314 152 327 Q 127 338 97 340 Z" fill="lightgray"></path>
				<path d="M 296 269 Q 293 269 213 137 Q 174 72 136 54 Q 121 48 121 35 Q 121 15 140 -16 Q 158 -47 171 -47 Q 180 -47 183 -28 Q 190 2 250 128 Q 304 250 304 265 Q 304 269 296 269 Z" fill="lightgray"></path>
				<path d="M 667 500 Q 658 500 634 492 Q 577 474 417 457 Q 406 455 406 449 Q 406 442 427 434 Q 452 425 472 425 Q 486 425 511 429 Q 513 429 518 430 L 574 437 Q 610 442 667 449 Q 690 452 716 462 Q 729 468 730 480 Q 727 499 667 500 Z" fill="lightgray"></path>
				<path d="M 382 371 L 367 371 Q 367 367 395 315 Q 431 258 453 258 Q 468 258 468 273 Q 468 308 459 330 Q 447 353 427 363 Q 404 371 382 371 Z" fill="lightgray"></path>
				<path d="M 718 418 Q 713 418 709 413 Q 707 408 707 402 Q 707 389 690 362 Q 667 325 638 296 Q 621 281 617 273 Q 621 269 628 269 Q 681 288 721 320 Q 752 346 777 364 Q 789 371 789 375 Q 789 387 753 405 Q 729 418 718 418 Z" fill="lightgray"></path>
				<path d="M 539 223 Q 512 219 480 215 Q 362 197 296 191 Q 285 188 285 179 Q 286 175 310 160 Q 329 148 343 148 Q 354 148 389 157 Q 457 171 539 181 L 597 187 Q 704 199 792 199 L 835 197 Q 887 191 910 191 Q 943 192 945 211 Q 942 228 913 245 Q 885 261 863 261 Q 849 261 827 258 Q 790 254 750 250 Q 714 247 597 231 L 539 223 Z" fill="lightgray"></path>
				<path d="M 518 430 Q 518 428 520 425 Q 535 392 539 340 L 539 223 L 539 181 L 539 -117 Q 543 -168 558 -168 Q 571 -168 586 -123 Q 597 -66 597 41 L 597 187 L 597 231 L 597 355 Q 597 365 605 402 Q 605 413 574 437 C 551 456 507 458 518 430 Z" fill="lightgray"></path>
</g>
		<text x="40" y="140" font-size="128" fill="#999999">4</text></g>
		<g id="id0:id4:id4" transform="matrix(1.0,0,0,1.0,4096,0.0)">			<g stroke="lightgray" stroke-width="4" transform="scale(4, 4)"> <rect x="0" y="0" width="256" height="256" fill="white" stroke-width="4"/></g>
			<g transform="scale(0.92, -0.92) translate(60, -920)">					<path d="M 785 672 Q 741 672 695 662 Q 676 658 658 655 L 592 643 Q 486 624 395 610 L 345 603 Q 331 601 316 599 Q 243 589 164 586 Q 138 586 136 570 Q 138 565 153 559 Q 180 548 207 547 Q 230 547 286 558 Q 318 563 355 569 L 399 575 Q 480 587 581 599 L 630 604 Q 720 611 824 613 Q 851 613 851 633 Q 851 648 831 660 Q 810 672 785 672 Z" fill="black"></path>
				<path d="M 395 610 L 390 660 Q 383 696 364 706 Q 341 717 312 718 Q 300 718 300 707 Q 301 704 311 693 Q 323 680 345 603 L 355 569 Q 361 545 369 514 Q 380 476 394 476 Q 406 476 406 504 L 399 575 L 395 610 Z" fill="black"></path>
				<path d="M 658 655 Q 687 696 687 703 Q 687 723 645 742 Q 611 758 593 758 Q 578 758 578 746 Q 591 720 597 691 Q 597 668 592 643 L 581 599 Q 570 567 551 534 Q 535 503 535 496 Q 535 488 539 488 Q 568 488 604 550 Q 613 570 630 604 L 658 655 Z" fill="black"></path>
				<path d="M 214 457 Q 203 457 203 453 Q 203 448 235 398 Q 274 343 300 343 Q 312 343 312 359 Q 312 380 304 401 Q 291 431 263 444 Q 241 455 214 457 Z" fill="black"></path>
				<path d="M 97 340 L 89 340 Q 89 335 125 285 Q 166 230 195 230 Q 207 230 207 242 Q 207 263 198 283 Q 183 314 152 327 Q 127 338 97 340 Z" fill="red"></path>
				<path d="M 296 269 Q 293 269 213 137 Q 174 72 136 54 Q 121 48 121 35 Q 121 15 140 -16 Q 158 -47 171 -47 Q 180 -47 183 -28 Q 190 2 250 128 Q 304 250 304 265 Q 304 269 296 269 Z" fill="lightgray"></path>
				<path d="M 667 500 Q 658 500 634 492 Q 577 474 417 457 Q 406 455 406 449 Q 406 442 427 434 Q 452 425 472 425 Q 486 425 511 429 Q 513 429 518 430 L 574 437 Q 610 442 667 449 Q 690 452 716 462 Q 729 468 730 480 Q 727 499 667 500 Z" fill="lightgray"></path>
				<path d="M 382 371 L 367 371 Q 367 367 395 315 Q 431 258 453 258 Q 468 258 468 273 Q 468 308 459 330 Q 447 353 427 363 Q 404 371 382 371 Z" fill="lightgray"></path>
				<path d="M 718 418 Q 713 418 709 413 Q 707 408 707 402 Q 707 389 690 362 Q 667 325 638 296 Q 621 281 617 273 Q 621 269 628 269 Q 681 288 721 320 Q 752 346 777 364 Q 789 371 789 375 Q 789 387 753 405 Q 729 418 718 418 Z" fill="lightgray"></path>
				<path d="M 539 223 Q 512 219 480 215 Q 362 197 296 191 Q 285 188 285 179 Q 286 175 310 160 Q 329 148 343 148 Q 354 148 389 157 Q 457 171 539 181 L 597 187 Q 704 199 792 199 L 835 197 Q 887 191 910 191 Q 943 192 945 211 Q 942 228 913 245 Q 885 261 863 261 Q 849 261 827 258 Q 790 254 750 250 Q 714 247 597 231 L 539 223 Z" fill="lightgray"></path>
				<path d="M 518 430 Q 518 428 520 425 Q 535 392 539 340 L 539 223 L 539 181 L 539 -117 Q 543 -168 558 -168 Q 571 -168 586 -123 Q 597 -66 597 41 L 597 187 L 597 231 L 597 355 Q 597 365 605 402 Q 605 413 574 437 C 551 456 507 458 518 430 Z" fill="lightgray"></path>
</g>
		<text x="40" y="140" font-size="128" fill="#999999">5</text></g>
</g>
	<g id="id1:id1" transform="translate(0.0,1024)">
		<g id="id1:id0:id0" transform="matrix(1.0,0,0,1.0,0,0.0)">			<g stroke="lightgray" stroke-width="4" transform="scale(4, 4)"> <rect x="0" y="0" width="256" height="256" fill="white" stroke-width="4"/></g>
			<g transform="scale(0.92, -0.92) translate(60, -920)">					<path d="M 785 672 Q 741 672 695 662 Q 676 658 658 655 L 592 643 Q 486 624 395 610 L 345 603 Q 331 601 316 599 Q 243 589 164 586 Q 138 586 136 570 Q 138 565 153 559 Q 180 548 207 547 Q 230 547 286 558 Q 318 563 355 569 L 399 575 Q 480 587 581 599 L 630 604 Q 720 611 824 613 Q 851 613 851 633 Q 851 648 831 660 Q 810 672 785 672 Z" fill="black"></path>
				<path d="M 395 610 L 390 660 Q 383 696 364 706 Q 341 717 312 718 Q 300 718 300 707 Q 301 704 311 693 Q 323 680 345 603 L 355 569 Q 361 545 369 514 Q 380 476 394 476 Q 406 476 406 504 L 399 575 L 395 610 Z" fill="black"></path>
				<path d="M 658 655 Q 687 696 687 703 Q 687 723 645 742 Q 611 758 593 758 Q 578 758 578 746 Q 591 720 597 691 Q 597 668 592 643 L 581 599 Q 570 567 551 534 Q 535 503 535 496 Q 535 488 539 488 Q 568 488 604 550 Q 613 570 630 604 L 658 655 Z" fill="black"></path>
				<path d="M 214 457 Q 203 457 203 453 Q 203 448 235 398 Q 274 343 300 343 Q 312 343 312 359 Q 312 380 304 401 Q 291 431 263 444 Q 241 455 214 457 Z" fill="black"></path>
				<path d="M 97 340 L 89 340 Q 89 335 125 285 Q 166 230 195 230 Q 207 230 207 242 Q 207 263 198 283 Q 183 314 152 327 Q 127 338 97 340 Z" fill="black"></path>
				<path d="M 296 269 Q 293 269 213 137 Q 174 72 136 54 Q 121 48 121 35 Q 121 15 140 -16 Q 158 -47 171 -47 Q 180 -47 183 -28 Q 190 2 250 128 Q 304 250 304 265 Q 304 269 296 269 Z" fill="red"></path>
				<path d="M 667 500 Q 658 500 634 492 Q 577 474 417 457 Q 406 455 406 449 Q 406 442 427 434 Q 452 425 472 425 Q 486 425 511 429 Q 513 429 518 430 L 574 437 Q 610 442 667 449 Q 690 452 716 462 Q 729 468 730 480 Q 727 499 667 500 Z" fill="lightgray"></path>
				<path d="M 382 371 L 367 371 Q 367 367 395 315 Q 431 258 453 258 Q 468 258 468 273 Q 468 308 459 330 Q 447 353 427 363 Q 404 371 382 371 Z" fill="lightgray"></path>
				<path d="M 718 418 Q 713 418 709 413 Q 707 408 707 402 Q 707 389 690 362 Q 667 325 638 296 Q 621 281 617 273 Q 621 269 628 269 Q 681 288 721 320 Q 752 346 777 364 Q 789 371 789 375 Q 789 387 753 405 Q 729 418 718 418 Z" fill="lightgray"></path>
				<path d="M 539 223 Q 512 219 480 215 Q 362 197 296 191 Q 285 188 285 179 Q 286 175 310 160 Q 329 148 343 148 Q 354 148 389 157 Q 457 171 539 181 L 597 187 Q 704 199 792 199 L 835 197 Q 887 191 910 191 Q 943 192 945 211 Q 942 228 913 245 Q 885 261 863 261 Q 849 261 827 258 Q 790 254 750 250 Q 714 247 597 231 L 539 223 Z" fill="lightgray"></path>
				<path d="M 518 430 Q 518 428 520 425 Q 535 392 539 340 L 539 223 L 539 181 L 539 -117 Q 543 -168 558 -168 Q 571 -168 586 -123 Q 597 -66 597 41 L 597 187 L 597 231 L 597 355 Q 597 365 605 402 Q 605 413 574 437 C 551 456 507 458 518 430 Z" fill="lightgray"></path>
</g>
		<text x="40" y="140" font-size="128" fill="#999999">6</text></g>
		<g id="id1:id1:id1" transform="matrix(1.0,0,0,1.0,1024,0.0)">			<g stroke="lightgray" stroke-width="4" transform="scale(4, 4)"> <rect x="0" y="0" width="256" height="256" fill="white" stroke-width="4"/></g>
			<g transform="scale(0.92, -0.92) translate(60, -920)">					<path d="M 785 672 Q 741 672 695 662 Q 676 658 658 655 L 592 643 Q 486 624 395 610 L 345 603 Q 331 601 316 599 Q 243 589 164 586 Q 138 586 136 570 Q 138 565 153 559 Q 180 548 207 547 Q 230 547 286 558 Q 318 563 355 569 L 399 575 Q 480 587 581 599 L 630 604 Q 720 611 824 613 Q 851 613 851 633 Q 851 648 831 660 Q 810 672 785 672 Z" fill="black"></path>
				<path d="M 395 610 L 390 660 Q 383 696 364 706 Q 341 717 312 718 Q 300 718 300 707 Q 301 704 311 693 Q 323 680 345 603 L 355 569 Q 361 545 369 514 Q 380 476 394 476 Q 406 476 406 504 L 399 575 L 395 610 Z" fill="black"></path>
				<path d="M 658 655 Q 687 696 687 703 Q 687 723 645 742 Q 611 758 593 758 Q 578 758 578 746 Q 591 720 597 691 Q 597 668 592 643 L 581 599 Q 570 567 551 534 Q 535 503 535 496 Q 535 488 539 488 Q 568 488 604 550 Q 613 570 630 604 L 658 655 Z" fill="black"></path>
				<path d="M 214 457 Q 203 457 203 453 Q 203 448 235 398 Q 274 343 300 343 Q 312 343 312 359 Q 312 380 304 401 Q 291 431 263 444 Q 241 455 214 457 Z" fill="black"></path>
				<path d="M 97 340 L 89 340 Q 89 335 125 285 Q 166 230 195 230 Q 207 230 207 242 Q 207 263 198 283 Q 183 314 152 327 Q 127 338 97 340 Z" fill="black"></path>
				<path d="M 296 269 Q 293 269 213 137 Q 174 72 136 54 Q 121 48 121 35 Q 121 15 140 -16 Q 158 -47 171 -47 Q 180 -47 183 -28 Q 190 2 250 128 Q 304 250 304 265 Q 304 269 296 269 Z" fill="black"></path>
				<path d="M 667 500 Q 658 500 634 492 Q 577 474 417 457 Q 406 455 406 449 Q 406 442 427 434 Q 452 425 472 425 Q 486 425 511 429 Q 513 429 518 430 L 574 437 Q 610 442 667 449 Q 690 452 716 462 Q 729 468 730 480 Q 727 499 667 500 Z" fill="red"></path>
				<path d="M 382 371 L 367 371 Q 367 367 395 315 Q 431 258 453 258 Q 468 258 468 273 Q 468 308 459 330 Q 447 353 427 363 Q 404 371 382 371 Z" fill="lightgray"></path>
				<path d="M 718 418 Q 713 418 709 413 Q 707 408 707 402 Q 707 389 690 362 Q 667 325 638 296 Q 621 281 617 273 Q 621 269 628 269 Q 681 288 721 320 Q 752 346 777 364 Q 789 371 789 375 Q 789 387 753 405 Q 729 418 718 418 Z" fill="lightgray"></path>
				<path d="M 539 223 Q 512 219 480 215 Q 362 197 296 191 Q 285 188 285 179 Q 286 175 310 160 Q 329 148 343 148 Q 354 148 389 157 Q 457 171 539 181 L 597 187 Q 704 199 792 199 L 835 197 Q 887 191 910 191 Q 943 192 945 211 Q 942 228 913 245 Q 885 261 863 261 Q 849 261 827 258 Q 790 254 750 250 Q 714 247 597 231 L 539 223 Z" fill="lightgray"></path>
				<path d="M 518 430 Q 518 428 520 425 Q 535 392 539 340 L 539 223 L 539 181 L 539 -117 Q 543 -168 558 -168 Q 571 -168 586 -123 Q 597 -66 597 41 L 597 187 L 597 231 L 597 355 Q 597 365 605 402 Q 605 413 574 437 C 551 456 507 458 518 430 Z" fill="lightgray"></path>
</g>
		<text x="40" y="140" font-size="128" fill="#999999">7</text></g>
		<g id="id1:id2:id2" transform="matrix(1.0,0,0,1.0,2048,0.0)">			<g stroke="lightgray" stroke-width="4" transform="scale(4, 4)"> <rect x="0" y="0" width="256" height="256" fill="white" stroke-width="4"/></g>
			<g transform="scale(0.92, -0.92) translate(60, -920)">					<path d="M 785 672 Q 741 672 695 662 Q 676 658 658 655 L 592 643 Q 486 624 395 610 L 345 603 Q 331 601 316 599 Q 243 589 164 586 Q 138 586 136 570 Q 138 565 153 559 Q 180 548 207 547 Q 230 547 286 558 Q 318 563 355 569 L 399 575 Q 480 587 581 599 L 630 604 Q 720 611 824 613 Q 851 613 851 633 Q 851 648 831 660 Q 810 672 785 672 Z" fill="black"></path>
				<path d="M 395 610 L 390 660 Q 383 696 364 706 Q 341 717 312 718 Q 300 718 300 707 Q 301 704 311 693 Q 323 680 345 603 L 355 569 Q 361 545 369 514 Q 380 476 394 476 Q 406 476 406 504 L 399 575 L 395 610 Z" fill="black"></path>
				<path d="M 658 655 Q 687 696 687 703 Q 687 723 645 742 Q 611 758 593 758 Q 578 758 578 746 Q 591 720 597 691 Q 597 668 592 643 L 581 599 Q 570 567 551 534 Q 535 503 535 496 Q 535 488 539 488 Q 568 488 604 550 Q 613 570 630 604 L 658 655 Z" fill="black"></path>
				<path d="M 214 457 Q 203 457 203 453 Q 203 448 235 398 Q 274 343 300 343 Q 312 343 312 359 Q 312 380 304 401 Q 291 431 263 444 Q 241 455 214 457 Z" fill="black"></path>
				<path d="M 97 340 L 89 340 Q 89 335 125 285 Q 166 230 195 230 Q 207 230 207 242 Q 207 263 198 283 Q 183 314 152 327 Q 127 338 97 340 Z" fill="black"></path>
				<path d="M 296 269 Q 293 269 213 137 Q 174 72 136 54 Q 121 48 121 35 Q 121 15 140 -16 Q 158 -47 171 -47 Q 180 -47 183 -28 Q 190 2 250 128 Q 304 250 304 265 Q 304 269 296 269 Z" fill="black"></path>
				<path d="M 667 500 Q 658 500 634 492 Q 577 474 417 457 Q 406 455 406 449 Q 406 442 427 434 Q 452 425 472 425 Q 486 425 511 429 Q 513 429 518 430 L 574 437 Q 610 442 667 449 Q 690 452 716 462 Q 729 468 730 480 Q 727 499 667 500 Z" fill="black"></path>
				<path d="M 382 371 L 367 371 Q 367 367 395 315 Q 431 258 453 258 Q 468 258 468 273 Q 468 308 459 330 Q 447 353 427 363 Q 404 371 382 371 Z" fill="red"></path>
				<path d="M 718 418 Q 713 418 709 413 Q 707 408 707 402 Q 707 389 690 362 Q 667 325 638 296 Q 621 281 617 273 Q 621 269 628 269 Q 681 288 721 320 Q 752 346 777 364 Q 789 371 789 375 Q 789 387 753 405 Q 729 418 718 418 Z" fill="lightgray"></path>
				<path d="M 539 223 Q 512 219 480 215 Q 362 197 296 191 Q 285 188 285 179 Q 286 175 310 160 Q 329 148 343 148 Q 354 148 389 157 Q 457 171 539 181 L 597 187 Q 704 199 792 199 L 835 197 Q 887 191 910 191 Q 943 192 945 211 Q 942 228 913 245 Q 885 261 863 261 Q 849 261 827 258 Q 790 254 750 250 Q 714 247 597 231 L 539 223 Z" fill="lightgray"></path>
				<path d="M 518 430 Q 518 428 520 425 Q 535 392 539 340 L 539 223 L 539 181 L 539 -117 Q 543 -168 558 -168 Q 571 -168 586 -123 Q 597 -66 597 41 L 597 187 L 597 231 L 597 355 Q 597 365 605 402 Q 605 413 574 437 C 551 456 507 458 518 430 Z" fill="lightgray"></path>
</g>
		<text x="40" y="140" font-size="128" fill="#999999">8</text></g>
		<g id="id1:id3:id3" transform="matrix(1.0,0,0,1.0,3072,0.0)">			<g stroke="lightgray" stroke-width="4" transform="scale(4, 4)"> <rect x="0" y="0" width="256" height="256" fill="white" stroke-width="4"/></g>
			<g transform="scale(0.92, -0.92) translate(60, -920)">					<path d="M 785 672 Q 741 672 695 662 Q 676 658 658 655 L 592 643 Q 486 624 395 610 L 345 603 Q 331 601 316 599 Q 243 589 164 586 Q 138 586 136 570 Q 138 565 153 559 Q 180 548 207 547 Q 230 547 286 558 Q 318 563 355 569 L 399 575 Q 480 587 581 599 L 630 604 Q 720 611 824 613 Q 851 613 851 633 Q 851 648 831 660 Q 810 672 785 672 Z" fill="black"></path>
				<path d="M 395 610 L 390 660 Q 383 696 364 706 Q 341 717 312 718 Q 300 718 300 707 Q 301 704 311 693 Q 323 680 345 603 L 355 569 Q 361 545 369 514 Q 380 476 394 476 Q 406 476 406 504 L 399 575 L 395 610 Z" fill="black"></path>
				<path d="M 658 655 Q 687 696 687 703 Q 687 723 645 742 Q 611 758 593 758 Q 578 758 578 746 Q 591 720 597 691 Q 597 668 592 643 L 581 599 Q 570 567 551 534 Q 535 503 535 496 Q 535 488 539 488 Q 568 488 604 550 Q 613 570 630 604 L 658 655 Z" fill="black"></path>
				<path d="M 214 457 Q 203 457 203 453 Q 203 448 235 398 Q 274 343 300 343 Q 312 343 312 359 Q 312 380 304 401 Q 291 431 263 444 Q 241 455 214 457 Z" fill="black"></path>
				<path d="M 97 340 L 89 340 Q 89 335 125 285 Q 166 230 195 230 Q 207 230 207 242 Q 207 263 198 283 Q 183 314 152 327 Q 127 338 97 340 Z" fill="black"></path>
				<path d="M 296 269 Q 293 269 213 137 Q 174 72 136 54 Q 121 48 121 35 Q 121 15 140 -16 Q 158 -47 171 -47 Q 180 -47 183 -28 Q 190 2 250 128 Q 304 250 304 265 Q 304 269 296 269 Z" fill="black"></path>
				<path d="M 667 500 Q 658 500 634 492 Q 577 474 417 457 Q 406 455 406 449 Q 406 442 427 434 Q 452 425 472 425 Q 486 425 511 429 Q 513 429 518 430 L 574 437 Q 610 442 667 449 Q 690 452 716 462 Q 729 468 730 480 Q 727 499 667 500 Z" fill="black"></path>
				<path d="M 382 371 L 367 371 Q 367 367 395 315 Q 431 258 453 258 Q 468 258 468 273 Q 468 308 459 330 Q 447 353 427 363 Q 404 371 382 371 Z" fill="black"></path>
				<path d="M 718 418 Q 713 418 709 413 Q 707 408 707 402 Q 707 389 690 362 Q 667 325 638 296 Q 621 281 617 273 Q 621 269 628 269 Q 681 288 721 320 Q 752 346 777 364 Q 789 371 789 375 Q 789 387 753 405 Q 729 418 718 418 Z" fill="red"></path>
				<path d="M 539 223 Q 512 219 480 215 Q 362 197 296 191 Q 285 188 285 179 Q 286 175 310 160 Q 329 148 343 148 Q 354 148 389 157 Q 457 171 539 181 L 597 187 Q 704 199 792 199 L 835 197 Q 887 191 910 191 Q 943 192 945 211 Q 942 228 913 245 Q 885 261 863 261 Q 849 261 827 258 Q 790 254 750 250 Q 714 247 597 231 L 539 223 Z" fill="lightgray"></path>
				<path d="M 518 430 Q 518 428 520 425 Q 535 392 539 340 L 539 223 L 539 181 L 539 -117 Q 543 -168 558 -168 Q 571 -168 586 -123 Q 597 -66 597 41 L 597 187 L 597 231 L 597 355 Q 597 365 605 402 Q 605 413 574 437 C 551 456 507 458 518 430 Z" fill="lightgray"></path>
</g>
		<text x="40" y="140" font-size="128" fill="#999999">9</text></g>
		<g id="id1:id4:id4" transform="matrix(1.0,0,0,1.0,4096,0.0)">			<g stroke="lightgray" stroke-width="4" transform="scale(4, 4)"> <rect x="0" y="0" width="256" height="256" fill="white" stroke-width="4"/></g>
			<g transform="scale(0.92, -0.92) translate(60, -920)">					<path d="M 785 672 Q 741 672 695 662 Q 676 658 658 655 L 592 643 Q 486 624 395 610 L 345 603 Q 331 601 316 599 Q 243 589 164 586 Q 138 586 136 570 Q 138 565 153 559 Q 180 548 207 547 Q 230 547 286 558 Q 318 563 355 569 L 399 575 Q 480 587 581 599 L 630 604 Q 720 611 824 613 Q 851 613 851 633 Q 851 648 831 660 Q 810 672 785 672 Z" fill="black"></path>
				<path d="M 395 610 L 390 660 Q 383 696 364 706 Q 341 717 312 718 Q 300 718 300 707 Q 301 704 311 693 Q 323 680 345 603 L 355 569 Q 361 545 369 514 Q 380 476 394 476 Q 406 476 406 504 L 399 575 L 395 610 Z" fill="black"></path>
				<path d="M 658 655 Q 687 696 687 703 Q 687 723 645 742 Q 611 758 593 758 Q 578 758 578 746 Q 591 720 597 691 Q 597 668 592 643 L 581 599 Q 570 567 551 534 Q 535 503 535 496 Q 535 488 539 488 Q 568 488 604 550 Q 613 570 630 604 L 658 655 Z" fill="black"></path>
				<path d="M 214 457 Q 203 457 203 453 Q 203 448 235 398 Q 274 343 300 343 Q 312 343 312 359 Q 312 380 304 401 Q 291 431 263 444 Q 241 455 214 457 Z" fill="black"></path>
				<path d="M 97 340 L 89 340 Q 89 335 125 285 Q 166 230 195 230 Q 207 230 207 242 Q 207 263 198 283 Q 183 314 152 327 Q 127 338 97 340 Z" fill="black"></path>
				<path d="M 296 269 Q 293 269 213 137 Q 174 72 136 54 Q 121 48 121 35 Q 121 15 140 -16 Q 158 -47 171 -47 Q 180 -47 183 -28 Q 190 2 250 128 Q 304 250 304 265 Q 304 269 296 269 Z" fill="black"></path>
				<path d="M 667 500 Q 658 500 634 492 Q 577 474 417 457 Q 406 455 406 449 Q 406 442 427 434 Q 452 425 472 425 Q 486 425 511 429 Q 513 429 518 430 L 574 437 Q 610 442 667 449 Q 690 452 716 462 Q 729 468 730 480 Q 727 499 667 500 Z" fill="black"></path>
				<path d="M 382 371 L 367 371 Q 367 367 395 315 Q 431 258 453 258 Q 468 258 468 273 Q 468 308 459 330 Q 447 353 427 363 Q 404 371 382 371 Z" fill="black"></path>
				<path d="M 718 418 Q 713 418 709 413 Q 707 408 707 402 Q 707 389 690 362 Q 667 325 638 296 Q 621 281 617 273 Q 621 269 628 269 Q 681 288 721 320 Q 752 346 777 364 Q 789 371 789 375 Q 789 387 753 405 Q 729 418 718 418 Z" fill="black"></path>
				<path d="M 539 223 Q 512 219 480 215 Q 362 197 296 191 Q 285 188 285 179 Q 286 175 310 160 Q 329 148 343 148 Q 354 148 389 157 Q 457 171 539 181 L 597 187 Q 704 199 792 199 L 835 197 Q 887 191 910 191 Q 943 192 945 211 Q 942 228 913 245 Q 885 261 863 261 Q 849 261 827 258 Q 790 254 750 250 Q 714 247 597 231 L 539 223 Z" fill="red"></path>
				<path d="M 518 430 Q 518 428 520 425 Q 535 392 539 340 L 539 223 L 539 181 L 539 -117 Q 543 -168 558 -168 Q 571 -168 586 -123 Q 597 -66 597 41 L 597 187 L 597 231 L 597 355 Q 597 365 605 402 Q 605 413 574 437 C 551 456 507 458 518 430 Z" fill="lightgray"></path>
</g>
		<text x="40" y="140" font-size="128" fill="#999999">10</text></g>
</g>
	<g id="id2:id2" transform="translate(0.0,2048)">
		<g id="id2:id0:id0" transform="matrix(1.0,0,0,1.0,0,0.0)">			<g stroke="lightgray" stroke-width="4" transform="scale(4, 4)"> <rect x="0" y="0" width="256" height="256" fill="white" stroke-width="4"/></g>
			<g transform="scale(0.92, -0.92) translate(60, -920)">					<path d="M 785 672 Q 741 672 695 662 Q 676 658 658 655 L 592 643 Q 486 624 395 610 L 345 603 Q 331 601 316 599 Q 243 589 164 586 Q 138 586 136 570 Q 138 565 153 559 Q 180 548 207 547 Q 230 547 286 558 Q 318 563 355 569 L 399 575 Q 480 587 581 599 L 630 604 Q 720 611 824 613 Q 851 613 851 633 Q 851 648 831 660 Q 810 672 785 672 Z" fill="black"></path>
				<path d="M 395 610 L 390 660 Q 383 696 364 706 Q 341 717 312 718 Q 300 718 300 707 Q 301 704 311 693 Q 323 680 345 603 L 355 569 Q 361 545 369 514 Q 380 476 394 476 Q 406 476 406 504 L 399 575 L 395 610 Z" fill="black"></path>
				<path d="M 658 655 Q 687 696 687 703 Q 687 723 645 742 Q 611 758 593 758 Q 578 758 578 746 Q 591 720 597 691 Q 597 668 592 643 L 581 599 Q 570 567 551 534 Q 535 503 535 496 Q 535 488 539 488 Q 568 488 604 550 Q 613 570 630 604 L 658 655 Z" fill="black"></path>
				<path d="M 214 457 Q 203 457 203 453 Q 203 448 235 398 Q 274 343 300 343 Q 312 343 312 359 Q 312 380 304 401 Q 291 431 263 444 Q 241 455 214 457 Z" fill="black"></path>
				<path d="M 97 340 L 89 340 Q 89 335 125 285 Q 166 230 195 230 Q 207 230 207 242 Q 207 263 198 283 Q 183 314 152 327 Q 127 338 97 340 Z" fill="black"></path>
				<path d="M 296 269 Q 293 269 213 137 Q 174 72 136 54 Q 121 48 121 35 Q 121 15 140 -16 Q 158 -47 171 -47 Q 180 -47 183 -28 Q 190 2 250 128 Q 304 250 304 265 Q 304 269 296 269 Z" fill="black"></path>
				<path d="M 667 500 Q 658 500 634 492 Q 577 474 417 457 Q 406 455 406 449 Q 406 442 427 434 Q 452 425 472 425 Q 486 425 511 429 Q 513 429 518 430 L 574 437 Q 610 442 667 449 Q 690 452 716 462 Q 729 468 730 480 Q 727 499 667 500 Z" fill="black"></path>
				<path d="M 382 371 L 367 371 Q 367 367 395 315 Q 431 258 453 258 Q 468 258 468 273 Q 468 308 459 330 Q 447 353 427 363 Q 404 371 382 371 Z" fill="black"></path>
				<path d="M 718 418 Q 713 418 709 413 Q 707 408 707 402 Q 707 389 690 362 Q 667 325 638 296 Q 621 281 617 273 Q 621 269 628 269 Q 681 288 721 320 Q 752 346 777 364 Q 789 371 789 375 Q 789 387 753 405 Q 729 418 718 418 Z" fill="black"></path>
				<path d="M 539 223 Q 512 219 480 215 Q 362 197 296 191 Q 285 188 285 179 Q 286 175 310 160 Q 329 148 343 148 Q 354 148 389 157 Q 457 171 539 181 L 597 187 Q 704 199 792 199 L 835 197 Q 887 191 910 191 Q 943 192 945 211 Q 942 228 913 245 Q 885 261 863 261 Q 849 261 827 258 Q 790 254 750 250 Q 714 247 597 231 L 539 223 Z" fill="black"></path>
				<path d="M 518 430 Q 518 428 520 425 Q 535 392 539 340 L 539 223 L 539 181 L 539 -117 Q 543 -168 558 -168 Q 571 -168 586 -123 Q 597 -66 597 41 L 597 187 L 597 231 L 597 355 Q 597 365 605 402 Q 605 413 574 437 C 551 456 507 458 518 430 Z" fill="red"></path>
</g>
		<text x="40" y="140" font-size="128" fill="#999999">11</text></g>
		<g id="id2:id1:id1" transform="matrix(1.0,0,0,1.0,1024,0.0)">			<g stroke="white" stroke-width="4" transform="scale(4, 4)"> <rect x="1" y="1" width="255" height="255" fill="white" stroke-width="0"/></g>
</g>
		<g id="id2:id2:id2" transform="matrix(1.0,0,0,1.0,2048,0.0)">			<g stroke="white" stroke-width="4" transform="scale(4, 4)"> <rect x="1" y="1" width="255" height="255" fill="white" stroke-width="0"/></g>
</g>
		<g id="id2:id3:id3" transform="matrix(1.0,0,0,1.0,3072,0.0)">			<g stroke="white" stroke-width="4" transform="scale(4, 4)"> <rect x="1" y="1" width="255" height="255" fill="white" stroke-width="0"/></g>
</g>
		<g id="id2:id4:id4" transform="matrix(1.0,0,0,1.0,4096,0.0)">			<g stroke="white" stroke-width="4" transform="scale(4, 4)"> <rect x="1" y="1" width="255" height="255" fill="white" stroke-width="0"/></g>
</g>
</g>
</svg>
