<?xml version="1.0" standalone="no"?>
<!DOCTYPE svg PUBLIC "-//W3C//DTD SVG 1.1//EN"
 "http://www.w3.org/Graphics/SVG/1.1/DTD/svg11.dtd">
<!-- generate by Japanese dictionary app com.asnsami.kanjidictionary -->

<svg xmlns="http://www.w3.org/2000/svg" xmlns:sodipodi="http://sodipodi.sourceforge.net/DTD/sodipodi-0.dtd" version="1.1" width="640" height="384" viewBox="0 0 5120 3072">
	<g id="id0:id0" transform="translate(0.0,0)">
		<g id="id0:id0:id0" transform="matrix(1.0,0,0,1.0,0,0.0)">			<g stroke="lightgray" stroke-width="4" transform="scale(4, 4)"> <rect x="0" y="0" width="256" height="256" fill="white" stroke-width="4"/></g>
			<g transform="scale(0.92, -0.92) translate(60, -920)">					<path d="M 266 556 L 293 568 Q 296 570 321 578 L 373 593 L 415 602 L 491 622 Q 501 626 499 635 Q 497 644 485 642 L 411 634 L 363 626 L 291 618 Q 249 615 240 617 L 215 621 Q 205 623 205 615 Q 202 608 218 587 L 237 569 Q 247 556 266 556 Z" fill="red"></path>
				<path d="M 373 593 L 384 547 Q 386 539 392 530 Q 399 521 409 522 Q 417 526 417 551 L 415 602 L 411 634 L 409 686 L 413 703 L 409 711 Q 404 715 399 718 Q 331 742 327 724 Q 322 718 335 697 L 355 652 L 363 626 L 373 593 Z" fill="lightgray"></path>
				<path d="M 623 647 L 527 638 Q 518 637 516 633 Q 514 627 520 622 Q 526 617 531 616 Q 535 612 541 609 L 552 604 Q 562 602 565 602 L 589 608 L 613 612 L 659 618 L 709 624 L 797 630 Q 806 630 818 634 Q 831 637 831 644 Q 831 650 825 656 Q 820 661 800 669 Q 780 676 768 676 L 676 657 L 623 647 Z" fill="lightgray"></path>
				<path d="M 631 757 L 634 716 Q 623 654 623 647 L 613 612 L 607 588 Q 607 584 596 560 L 591 540 Q 588 533 593 527 Q 599 521 607 533 L 621 549 Q 655 606 659 618 L 676 657 L 691 684 Q 698 697 701 700 L 709 713 Q 720 722 708 734 Q 697 745 683 751 L 649 766 L 640 766 Q 636 766 631 757 Z" fill="lightgray"></path>
				<path d="M 365 468 L 377 480 L 390 488 L 395 494 Q 401 507 361 528 Q 346 537 337 534 Q 326 535 329 520 Q 327 510 323 499 L 316 485 Q 309 471 285 442 Q 261 412 247 398 L 207 358 Q 201 353 201 347 Q 201 340 211 346 L 229 354 Q 235 355 247 364 L 279 386 Q 289 391 310 412 L 342 444 L 365 468 Z" fill="lightgray"></path>
				<path d="M 660 512 L 613 501 L 545 488 Q 541 488 520 483 Q 499 478 432 473 L 365 468 C 335 466 312 445 342 444 L 388 443 Q 398 442 441 445 Q 484 448 539 457 Q 594 466 605 466 L 661 470 Q 695 476 715 471 Q 735 465 739 440 L 741 410 L 737 127 Q 737 70 726 8 Q 725 -20 716 -36 Q 710 -51 700 -53 Q 691 -56 672 -50 L 660 -47 Q 658 -45 647 -42 L 625 -32 Q 607 -25 607 -36 Q 607 -39 613 -45 L 629 -64 Q 646 -83 649 -88 L 672 -122 Q 676 -128 677 -132 Q 679 -136 683 -141 L 690 -150 L 697 -156 Q 701 -160 706 -161 Q 711 -162 724 -151 Q 739 -143 754 -116 Q 770 -89 778 -65 Q 787 -42 791 4 Q 798 53 799 102 L 802 360 L 804 400 Q 808 433 823 448 Q 829 456 829 461 Q 829 466 820 479 Q 811 491 787 506 Q 756 530 735 530 Q 728 530 697 522 Q 666 513 660 512 Z" fill="lightgray"></path>
				<path d="M 512 408 Q 498 408 494 410 L 491 410 Q 480 410 454 404 Q 428 397 397 393 L 310 380 Q 297 378 297 374 Q 296 366 317 357 L 329 352 Q 335 346 354 350 Q 374 354 411 360 L 455 366 L 514 372 L 547 380 Q 550 384 550 389 Q 551 393 539 400 Q 535 400 524 404 Q 513 407 512 408 Z" fill="lightgray"></path>
				<path d="M 302 308 L 289 310 L 275 314 Q 259 317 254 311 Q 250 304 259 298 L 272 289 Q 275 286 277 280 Q 281 277 283 269 L 297 212 Q 300 204 300 198 Q 304 192 311 190 Q 318 187 323 194 L 327 204 L 327 232 L 317 285 C 313 306 313 306 302 308 Z" fill="lightgray"></path>
				<path d="M 518 238 L 554 288 Q 566 296 569 299 L 569 303 Q 561 315 549 322 L 529 334 Q 518 343 501 338 Q 484 332 463 330 L 411 322 L 357 316 Q 324 311 302 308 C 272 304 287 282 317 285 L 487 303 Q 493 303 493 300 Q 495 298 495 293 L 487 251 C 481 222 500 214 518 238 Z" fill="lightgray"></path>
				<path d="M 327 204 L 342 203 Q 351 201 377 206 L 442 212 Q 468 214 483 217 Q 498 220 509 218 Q 521 216 525 218 Q 530 218 531 222 Q 531 226 527 230 L 518 238 C 503 252 503 252 487 251 L 461 250 L 428 246 Q 386 238 378 238 Q 371 238 365 236 L 327 232 C 297 229 297 206 327 204 Z" fill="lightgray"></path>
				<path d="M 260 140 L 226 148 Q 195 160 190 146 Q 188 140 196 132 Q 204 124 205 122 Q 215 116 224 78 L 245 -44 Q 247 -58 249 -65 Q 251 -73 261 -79 Q 271 -86 275 -71 L 279 -59 L 281 -28 L 273 54 L 263 120 C 260 140 260 140 260 140 Z" fill="lightgray"></path>
				<path d="M 533 144 L 543 142 Q 547 140 549 138 L 550 126 L 549 92 L 543 54 L 533 17 L 525 -7 L 518 -23 C 510 -40 510 -40 514 -46 L 523 -59 Q 524 -64 531 -66 Q 546 -77 559 -56 L 571 -32 Q 597 48 615 98 L 623 112 Q 624 119 629 122 L 636 128 L 638 136 Q 638 149 602 167 Q 566 184 554 185 Q 542 185 527 180 L 476 169 Q 390 154 369 152 L 308 145 Q 281 140 260 140 C 230 139 233 119 263 120 L 295 121 L 371 128 L 427 134 L 470 139 Q 480 139 483 140 L 512 142 L 533 144 Z" fill="lightgray"></path>
				<path d="M 423 42 L 486 48 L 505 51 Q 529 56 530 62 Q 532 71 519 76 Q 506 80 493 80 L 425 70 L 379 64 L 355 62 Q 347 62 336 60 Q 325 58 313 57 Q 276 55 294 40 Q 306 29 324 30 L 379 37 L 423 42 Z" fill="lightgray"></path>
				<path d="M 417 -18 L 423 42 L 425 70 L 425 84 L 432 128 L 427 134 C 408 157 360 156 371 128 L 376 115 L 379 64 L 379 37 L 381 -21 C 382 -51 414 -48 417 -18 Z" fill="lightgray"></path>
				<path d="M 518 -23 L 508 -18 L 479 -14 L 460 -14 L 417 -18 L 381 -21 L 281 -28 C 251 -30 249 -59 279 -59 L 306 -59 Q 309 -60 337 -58 L 395 -53 Q 434 -51 455 -48 Q 479 -48 489 -46 L 514 -46 C 544 -46 545 -36 518 -23 Z" fill="lightgray"></path>
</g>
		<text x="40" y="140" font-size="128" fill="#999999">1</text></g>
		<g id="id0:id1:id1" transform="matrix(1.0,0,0,1.0,1024,0.0)">			<g stroke="lightgray" stroke-width="4" transform="scale(4, 4)"> <rect x="0" y="0" width="256" height="256" fill="white" stroke-width="4"/></g>
			<g transform="scale(0.92, -0.92) translate(60, -920)">					<path d="M 266 556 L 293 568 Q 296 570 321 578 L 373 593 L 415 602 L 491 622 Q 501 626 499 635 Q 497 644 485 642 L 411 634 L 363 626 L 291 618 Q 249 615 240 617 L 215 621 Q 205 623 205 615 Q 202 608 218 587 L 237 569 Q 247 556 266 556 Z" fill="black"></path>
				<path d="M 373 593 L 384 547 Q 386 539 392 530 Q 399 521 409 522 Q 417 526 417 551 L 415 602 L 411 634 L 409 686 L 413 703 L 409 711 Q 404 715 399 718 Q 331 742 327 724 Q 322 718 335 697 L 355 652 L 363 626 L 373 593 Z" fill="red"></path>
				<path d="M 623 647 L 527 638 Q 518 637 516 633 Q 514 627 520 622 Q 526 617 531 616 Q 535 612 541 609 L 552 604 Q 562 602 565 602 L 589 608 L 613 612 L 659 618 L 709 624 L 797 630 Q 806 630 818 634 Q 831 637 831 644 Q 831 650 825 656 Q 820 661 800 669 Q 780 676 768 676 L 676 657 L 623 647 Z" fill="lightgray"></path>
				<path d="M 631 757 L 634 716 Q 623 654 623 647 L 613 612 L 607 588 Q 607 584 596 560 L 591 540 Q 588 533 593 527 Q 599 521 607 533 L 621 549 Q 655 606 659 618 L 676 657 L 691 684 Q 698 697 701 700 L 709 713 Q 720 722 708 734 Q 697 745 683 751 L 649 766 L 640 766 Q 636 766 631 757 Z" fill="lightgray"></path>
				<path d="M 365 468 L 377 480 L 390 488 L 395 494 Q 401 507 361 528 Q 346 537 337 534 Q 326 535 329 520 Q 327 510 323 499 L 316 485 Q 309 471 285 442 Q 261 412 247 398 L 207 358 Q 201 353 201 347 Q 201 340 211 346 L 229 354 Q 235 355 247 364 L 279 386 Q 289 391 310 412 L 342 444 L 365 468 Z" fill="lightgray"></path>
				<path d="M 660 512 L 613 501 L 545 488 Q 541 488 520 483 Q 499 478 432 473 L 365 468 C 335 466 312 445 342 444 L 388 443 Q 398 442 441 445 Q 484 448 539 457 Q 594 466 605 466 L 661 470 Q 695 476 715 471 Q 735 465 739 440 L 741 410 L 737 127 Q 737 70 726 8 Q 725 -20 716 -36 Q 710 -51 700 -53 Q 691 -56 672 -50 L 660 -47 Q 658 -45 647 -42 L 625 -32 Q 607 -25 607 -36 Q 607 -39 613 -45 L 629 -64 Q 646 -83 649 -88 L 672 -122 Q 676 -128 677 -132 Q 679 -136 683 -141 L 690 -150 L 697 -156 Q 701 -160 706 -161 Q 711 -162 724 -151 Q 739 -143 754 -116 Q 770 -89 778 -65 Q 787 -42 791 4 Q 798 53 799 102 L 802 360 L 804 400 Q 808 433 823 448 Q 829 456 829 461 Q 829 466 820 479 Q 811 491 787 506 Q 756 530 735 530 Q 728 530 697 522 Q 666 513 660 512 Z" fill="lightgray"></path>
				<path d="M 512 408 Q 498 408 494 410 L 491 410 Q 480 410 454 404 Q 428 397 397 393 L 310 380 Q 297 378 297 374 Q 296 366 317 357 L 329 352 Q 335 346 354 350 Q 374 354 411 360 L 455 366 L 514 372 L 547 380 Q 550 384 550 389 Q 551 393 539 400 Q 535 400 524 404 Q 513 407 512 408 Z" fill="lightgray"></path>
				<path d="M 302 308 L 289 310 L 275 314 Q 259 317 254 311 Q 250 304 259 298 L 272 289 Q 275 286 277 280 Q 281 277 283 269 L 297 212 Q 300 204 300 198 Q 304 192 311 190 Q 318 187 323 194 L 327 204 L 327 232 L 317 285 C 313 306 313 306 302 308 Z" fill="lightgray"></path>
				<path d="M 518 238 L 554 288 Q 566 296 569 299 L 569 303 Q 561 315 549 322 L 529 334 Q 518 343 501 338 Q 484 332 463 330 L 411 322 L 357 316 Q 324 311 302 308 C 272 304 287 282 317 285 L 487 303 Q 493 303 493 300 Q 495 298 495 293 L 487 251 C 481 222 500 214 518 238 Z" fill="lightgray"></path>
				<path d="M 327 204 L 342 203 Q 351 201 377 206 L 442 212 Q 468 214 483 217 Q 498 220 509 218 Q 521 216 525 218 Q 530 218 531 222 Q 531 226 527 230 L 518 238 C 503 252 503 252 487 251 L 461 250 L 428 246 Q 386 238 378 238 Q 371 238 365 236 L 327 232 C 297 229 297 206 327 204 Z" fill="lightgray"></path>
				<path d="M 260 140 L 226 148 Q 195 160 190 146 Q 188 140 196 132 Q 204 124 205 122 Q 215 116 224 78 L 245 -44 Q 247 -58 249 -65 Q 251 -73 261 -79 Q 271 -86 275 -71 L 279 -59 L 281 -28 L 273 54 L 263 120 C 260 140 260 140 260 140 Z" fill="lightgray"></path>
				<path d="M 533 144 L 543 142 Q 547 140 549 138 L 550 126 L 549 92 L 543 54 L 533 17 L 525 -7 L 518 -23 C 510 -40 510 -40 514 -46 L 523 -59 Q 524 -64 531 -66 Q 546 -77 559 -56 L 571 -32 Q 597 48 615 98 L 623 112 Q 624 119 629 122 L 636 128 L 638 136 Q 638 149 602 167 Q 566 184 554 185 Q 542 185 527 180 L 476 169 Q 390 154 369 152 L 308 145 Q 281 140 260 140 C 230 139 233 119 263 120 L 295 121 L 371 128 L 427 134 L 470 139 Q 480 139 483 140 L 512 142 L 533 144 Z" fill="lightgray"></path>
				<path d="M 423 42 L 486 48 L 505 51 Q 529 56 530 62 Q 532 71 519 76 Q 506 80 493 80 L 425 70 L 379 64 L 355 62 Q 347 62 336 60 Q 325 58 313 57 Q 276 55 294 40 Q 306 29 324 30 L 379 37 L 423 42 Z" fill="lightgray"></path>
				<path d="M 417 -18 L 423 42 L 425 70 L 425 84 L 432 128 L 427 134 C 408 157 360 156 371 128 L 376 115 L 379 64 L 379 37 L 381 -21 C 382 -51 414 -48 417 -18 Z" fill="lightgray"></path>
				<path d="M 518 -23 L 508 -18 L 479 -14 L 460 -14 L 417 -18 L 381 -21 L 281 -28 C 251 -30 249 -59 279 -59 L 306 -59 Q 309 -60 337 -58 L 395 -53 Q 434 -51 455 -48 Q 479 -48 489 -46 L 514 -46 C 544 -46 545 -36 518 -23 Z" fill="lightgray"></path>
</g>
		<text x="40" y="140" font-size="128" fill="#999999">2</text></g>
		<g id="id0:id2:id2" transform="matrix(1.0,0,0,1.0,2048,0.0)">			<g stroke="lightgray" stroke-width="4" transform="scale(4, 4)"> <rect x="0" y="0" width="256" height="256" fill="white" stroke-width="4"/></g>
			<g transform="scale(0.92, -0.92) translate(60, -920)">					<path d="M 266 556 L 293 568 Q 296 570 321 578 L 373 593 L 415 602 L 491 622 Q 501 626 499 635 Q 497 644 485 642 L 411 634 L 363 626 L 291 618 Q 249 615 240 617 L 215 621 Q 205 623 205 615 Q 202 608 218 587 L 237 569 Q 247 556 266 556 Z" fill="black"></path>
				<path d="M 373 593 L 384 547 Q 386 539 392 530 Q 399 521 409 522 Q 417 526 417 551 L 415 602 L 411 634 L 409 686 L 413 703 L 409 711 Q 404 715 399 718 Q 331 742 327 724 Q 322 718 335 697 L 355 652 L 363 626 L 373 593 Z" fill="black"></path>
				<path d="M 623 647 L 527 638 Q 518 637 516 633 Q 514 627 520 622 Q 526 617 531 616 Q 535 612 541 609 L 552 604 Q 562 602 565 602 L 589 608 L 613 612 L 659 618 L 709 624 L 797 630 Q 806 630 818 634 Q 831 637 831 644 Q 831 650 825 656 Q 820 661 800 669 Q 780 676 768 676 L 676 657 L 623 647 Z" fill="red"></path>
				<path d="M 631 757 L 634 716 Q 623 654 623 647 L 613 612 L 607 588 Q 607 584 596 560 L 591 540 Q 588 533 593 527 Q 599 521 607 533 L 621 549 Q 655 606 659 618 L 676 657 L 691 684 Q 698 697 701 700 L 709 713 Q 720 722 708 734 Q 697 745 683 751 L 649 766 L 640 766 Q 636 766 631 757 Z" fill="lightgray"></path>
				<path d="M 365 468 L 377 480 L 390 488 L 395 494 Q 401 507 361 528 Q 346 537 337 534 Q 326 535 329 520 Q 327 510 323 499 L 316 485 Q 309 471 285 442 Q 261 412 247 398 L 207 358 Q 201 353 201 347 Q 201 340 211 346 L 229 354 Q 235 355 247 364 L 279 386 Q 289 391 310 412 L 342 444 L 365 468 Z" fill="lightgray"></path>
				<path d="M 660 512 L 613 501 L 545 488 Q 541 488 520 483 Q 499 478 432 473 L 365 468 C 335 466 312 445 342 444 L 388 443 Q 398 442 441 445 Q 484 448 539 457 Q 594 466 605 466 L 661 470 Q 695 476 715 471 Q 735 465 739 440 L 741 410 L 737 127 Q 737 70 726 8 Q 725 -20 716 -36 Q 710 -51 700 -53 Q 691 -56 672 -50 L 660 -47 Q 658 -45 647 -42 L 625 -32 Q 607 -25 607 -36 Q 607 -39 613 -45 L 629 -64 Q 646 -83 649 -88 L 672 -122 Q 676 -128 677 -132 Q 679 -136 683 -141 L 690 -150 L 697 -156 Q 701 -160 706 -161 Q 711 -162 724 -151 Q 739 -143 754 -116 Q 770 -89 778 -65 Q 787 -42 791 4 Q 798 53 799 102 L 802 360 L 804 400 Q 808 433 823 448 Q 829 456 829 461 Q 829 466 820 479 Q 811 491 787 506 Q 756 530 735 530 Q 728 530 697 522 Q 666 513 660 512 Z" fill="lightgray"></path>
				<path d="M 512 408 Q 498 408 494 410 L 491 410 Q 480 410 454 404 Q 428 397 397 393 L 310 380 Q 297 378 297 374 Q 296 366 317 357 L 329 352 Q 335 346 354 350 Q 374 354 411 360 L 455 366 L 514 372 L 547 380 Q 550 384 550 389 Q 551 393 539 400 Q 535 400 524 404 Q 513 407 512 408 Z" fill="lightgray"></path>
				<path d="M 302 308 L 289 310 L 275 314 Q 259 317 254 311 Q 250 304 259 298 L 272 289 Q 275 286 277 280 Q 281 277 283 269 L 297 212 Q 300 204 300 198 Q 304 192 311 190 Q 318 187 323 194 L 327 204 L 327 232 L 317 285 C 313 306 313 306 302 308 Z" fill="lightgray"></path>
				<path d="M 518 238 L 554 288 Q 566 296 569 299 L 569 303 Q 561 315 549 322 L 529 334 Q 518 343 501 338 Q 484 332 463 330 L 411 322 L 357 316 Q 324 311 302 308 C 272 304 287 282 317 285 L 487 303 Q 493 303 493 300 Q 495 298 495 293 L 487 251 C 481 222 500 214 518 238 Z" fill="lightgray"></path>
				<path d="M 327 204 L 342 203 Q 351 201 377 206 L 442 212 Q 468 214 483 217 Q 498 220 509 218 Q 521 216 525 218 Q 530 218 531 222 Q 531 226 527 230 L 518 238 C 503 252 503 252 487 251 L 461 250 L 428 246 Q 386 238 378 238 Q 371 238 365 236 L 327 232 C 297 229 297 206 327 204 Z" fill="lightgray"></path>
				<path d="M 260 140 L 226 148 Q 195 160 190 146 Q 188 140 196 132 Q 204 124 205 122 Q 215 116 224 78 L 245 -44 Q 247 -58 249 -65 Q 251 -73 261 -79 Q 271 -86 275 -71 L 279 -59 L 281 -28 L 273 54 L 263 120 C 260 140 260 140 260 140 Z" fill="lightgray"></path>
				<path d="M 533 144 L 543 142 Q 547 140 549 138 L 550 126 L 549 92 L 543 54 L 533 17 L 525 -7 L 518 -23 C 510 -40 510 -40 514 -46 L 523 -59 Q 524 -64 531 -66 Q 546 -77 559 -56 L 571 -32 Q 597 48 615 98 L 623 112 Q 624 119 629 122 L 636 128 L 638 136 Q 638 149 602 167 Q 566 184 554 185 Q 542 185 527 180 L 476 169 Q 390 154 369 152 L 308 145 Q 281 140 260 140 C 230 139 233 119 263 120 L 295 121 L 371 128 L 427 134 L 470 139 Q 480 139 483 140 L 512 142 L 533 144 Z" fill="lightgray"></path>
				<path d="M 423 42 L 486 48 L 505 51 Q 529 56 530 62 Q 532 71 519 76 Q 506 80 493 80 L 425 70 L 379 64 L 355 62 Q 347 62 336 60 Q 325 58 313 57 Q 276 55 294 40 Q 306 29 324 30 L 379 37 L 423 42 Z" fill="lightgray"></path>
				<path d="M 417 -18 L 423 42 L 425 70 L 425 84 L 432 128 L 427 134 C 408 157 360 156 371 128 L 376 115 L 379 64 L 379 37 L 381 -21 C 382 -51 414 -48 417 -18 Z" fill="lightgray"></path>
				<path d="M 518 -23 L 508 -18 L 479 -14 L 460 -14 L 417 -18 L 381 -21 L 281 -28 C 251 -30 249 -59 279 -59 L 306 -59 Q 309 -60 337 -58 L 395 -53 Q 434 -51 455 -48 Q 479 -48 489 -46 L 514 -46 C 544 -46 545 -36 518 -23 Z" fill="lightgray"></path>
</g>
		<text x="40" y="140" font-size="128" fill="#999999">3</text></g>
		<g id="id0:id3:id3" transform="matrix(1.0,0,0,1.0,3072,0.0)">			<g stroke="lightgray" stroke-width="4" transform="scale(4, 4)"> <rect x="0" y="0" width="256" height="256" fill="white" stroke-width="4"/></g>
			<g transform="scale(0.92, -0.92) translate(60, -920)">					<path d="M 266 556 L 293 568 Q 296 570 321 578 L 373 593 L 415 602 L 491 622 Q 501 626 499 635 Q 497 644 485 642 L 411 634 L 363 626 L 291 618 Q 249 615 240 617 L 215 621 Q 205 623 205 615 Q 202 608 218 587 L 237 569 Q 247 556 266 556 Z" fill="black"></path>
				<path d="M 373 593 L 384 547 Q 386 539 392 530 Q 399 521 409 522 Q 417 526 417 551 L 415 602 L 411 634 L 409 686 L 413 703 L 409 711 Q 404 715 399 718 Q 331 742 327 724 Q 322 718 335 697 L 355 652 L 363 626 L 373 593 Z" fill="black"></path>
				<path d="M 623 647 L 527 638 Q 518 637 516 633 Q 514 627 520 622 Q 526 617 531 616 Q 535 612 541 609 L 552 604 Q 562 602 565 602 L 589 608 L 613 612 L 659 618 L 709 624 L 797 630 Q 806 630 818 634 Q 831 637 831 644 Q 831 650 825 656 Q 820 661 800 669 Q 780 676 768 676 L 676 657 L 623 647 Z" fill="black"></path>
				<path d="M 631 757 L 634 716 Q 623 654 623 647 L 613 612 L 607 588 Q 607 584 596 560 L 591 540 Q 588 533 593 527 Q 599 521 607 533 L 621 549 Q 655 606 659 618 L 676 657 L 691 684 Q 698 697 701 700 L 709 713 Q 720 722 708 734 Q 697 745 683 751 L 649 766 L 640 766 Q 636 766 631 757 Z" fill="red"></path>
				<path d="M 365 468 L 377 480 L 390 488 L 395 494 Q 401 507 361 528 Q 346 537 337 534 Q 326 535 329 520 Q 327 510 323 499 L 316 485 Q 309 471 285 442 Q 261 412 247 398 L 207 358 Q 201 353 201 347 Q 201 340 211 346 L 229 354 Q 235 355 247 364 L 279 386 Q 289 391 310 412 L 342 444 L 365 468 Z" fill="lightgray"></path>
				<path d="M 660 512 L 613 501 L 545 488 Q 541 488 520 483 Q 499 478 432 473 L 365 468 C 335 466 312 445 342 444 L 388 443 Q 398 442 441 445 Q 484 448 539 457 Q 594 466 605 466 L 661 470 Q 695 476 715 471 Q 735 465 739 440 L 741 410 L 737 127 Q 737 70 726 8 Q 725 -20 716 -36 Q 710 -51 700 -53 Q 691 -56 672 -50 L 660 -47 Q 658 -45 647 -42 L 625 -32 Q 607 -25 607 -36 Q 607 -39 613 -45 L 629 -64 Q 646 -83 649 -88 L 672 -122 Q 676 -128 677 -132 Q 679 -136 683 -141 L 690 -150 L 697 -156 Q 701 -160 706 -161 Q 711 -162 724 -151 Q 739 -143 754 -116 Q 770 -89 778 -65 Q 787 -42 791 4 Q 798 53 799 102 L 802 360 L 804 400 Q 808 433 823 448 Q 829 456 829 461 Q 829 466 820 479 Q 811 491 787 506 Q 756 530 735 530 Q 728 530 697 522 Q 666 513 660 512 Z" fill="lightgray"></path>
				<path d="M 512 408 Q 498 408 494 410 L 491 410 Q 480 410 454 404 Q 428 397 397 393 L 310 380 Q 297 378 297 374 Q 296 366 317 357 L 329 352 Q 335 346 354 350 Q 374 354 411 360 L 455 366 L 514 372 L 547 380 Q 550 384 550 389 Q 551 393 539 400 Q 535 400 524 404 Q 513 407 512 408 Z" fill="lightgray"></path>
				<path d="M 302 308 L 289 310 L 275 314 Q 259 317 254 311 Q 250 304 259 298 L 272 289 Q 275 286 277 280 Q 281 277 283 269 L 297 212 Q 300 204 300 198 Q 304 192 311 190 Q 318 187 323 194 L 327 204 L 327 232 L 317 285 C 313 306 313 306 302 308 Z" fill="lightgray"></path>
				<path d="M 518 238 L 554 288 Q 566 296 569 299 L 569 303 Q 561 315 549 322 L 529 334 Q 518 343 501 338 Q 484 332 463 330 L 411 322 L 357 316 Q 324 311 302 308 C 272 304 287 282 317 285 L 487 303 Q 493 303 493 300 Q 495 298 495 293 L 487 251 C 481 222 500 214 518 238 Z" fill="lightgray"></path>
				<path d="M 327 204 L 342 203 Q 351 201 377 206 L 442 212 Q 468 214 483 217 Q 498 220 509 218 Q 521 216 525 218 Q 530 218 531 222 Q 531 226 527 230 L 518 238 C 503 252 503 252 487 251 L 461 250 L 428 246 Q 386 238 378 238 Q 371 238 365 236 L 327 232 C 297 229 297 206 327 204 Z" fill="lightgray"></path>
				<path d="M 260 140 L 226 148 Q 195 160 190 146 Q 188 140 196 132 Q 204 124 205 122 Q 215 116 224 78 L 245 -44 Q 247 -58 249 -65 Q 251 -73 261 -79 Q 271 -86 275 -71 L 279 -59 L 281 -28 L 273 54 L 263 120 C 260 140 260 140 260 140 Z" fill="lightgray"></path>
				<path d="M 533 144 L 543 142 Q 547 140 549 138 L 550 126 L 549 92 L 543 54 L 533 17 L 525 -7 L 518 -23 C 510 -40 510 -40 514 -46 L 523 -59 Q 524 -64 531 -66 Q 546 -77 559 -56 L 571 -32 Q 597 48 615 98 L 623 112 Q 624 119 629 122 L 636 128 L 638 136 Q 638 149 602 167 Q 566 184 554 185 Q 542 185 527 180 L 476 169 Q 390 154 369 152 L 308 145 Q 281 140 260 140 C 230 139 233 119 263 120 L 295 121 L 371 128 L 427 134 L 470 139 Q 480 139 483 140 L 512 142 L 533 144 Z" fill="lightgray"></path>
				<path d="M 423 42 L 486 48 L 505 51 Q 529 56 530 62 Q 532 71 519 76 Q 506 80 493 80 L 425 70 L 379 64 L 355 62 Q 347 62 336 60 Q 325 58 313 57 Q 276 55 294 40 Q 306 29 324 30 L 379 37 L 423 42 Z" fill="lightgray"></path>
				<path d="M 417 -18 L 423 42 L 425 70 L 425 84 L 432 128 L 427 134 C 408 157 360 156 371 128 L 376 115 L 379 64 L 379 37 L 381 -21 C 382 -51 414 -48 417 -18 Z" fill="lightgray"></path>
				<path d="M 518 -23 L 508 -18 L 479 -14 L 460 -14 L 417 -18 L 381 -21 L 281 -28 C 251 -30 249 -59 279 -59 L 306 -59 Q 309 -60 337 -58 L 395 -53 Q 434 -51 455 -48 Q 479 -48 489 -46 L 514 -46 C 544 -46 545 -36 518 -23 Z" fill="lightgray"></path>
</g>
		<text x="40" y="140" font-size="128" fill="#999999">4</text></g>
		<g id="id0:id4:id4" transform="matrix(1.0,0,0,1.0,4096,0.0)">			<g stroke="lightgray" stroke-width="4" transform="scale(4, 4)"> <rect x="0" y="0" width="256" height="256" fill="white" stroke-width="4"/></g>
			<g transform="scale(0.92, -0.92) translate(60, -920)">					<path d="M 266 556 L 293 568 Q 296 570 321 578 L 373 593 L 415 602 L 491 622 Q 501 626 499 635 Q 497 644 485 642 L 411 634 L 363 626 L 291 618 Q 249 615 240 617 L 215 621 Q 205 623 205 615 Q 202 608 218 587 L 237 569 Q 247 556 266 556 Z" fill="black"></path>
				<path d="M 373 593 L 384 547 Q 386 539 392 530 Q 399 521 409 522 Q 417 526 417 551 L 415 602 L 411 634 L 409 686 L 413 703 L 409 711 Q 404 715 399 718 Q 331 742 327 724 Q 322 718 335 697 L 355 652 L 363 626 L 373 593 Z" fill="black"></path>
				<path d="M 623 647 L 527 638 Q 518 637 516 633 Q 514 627 520 622 Q 526 617 531 616 Q 535 612 541 609 L 552 604 Q 562 602 565 602 L 589 608 L 613 612 L 659 618 L 709 624 L 797 630 Q 806 630 818 634 Q 831 637 831 644 Q 831 650 825 656 Q 820 661 800 669 Q 780 676 768 676 L 676 657 L 623 647 Z" fill="black"></path>
				<path d="M 631 757 L 634 716 Q 623 654 623 647 L 613 612 L 607 588 Q 607 584 596 560 L 591 540 Q 588 533 593 527 Q 599 521 607 533 L 621 549 Q 655 606 659 618 L 676 657 L 691 684 Q 698 697 701 700 L 709 713 Q 720 722 708 734 Q 697 745 683 751 L 649 766 L 640 766 Q 636 766 631 757 Z" fill="black"></path>
				<path d="M 365 468 L 377 480 L 390 488 L 395 494 Q 401 507 361 528 Q 346 537 337 534 Q 326 535 329 520 Q 327 510 323 499 L 316 485 Q 309 471 285 442 Q 261 412 247 398 L 207 358 Q 201 353 201 347 Q 201 340 211 346 L 229 354 Q 235 355 247 364 L 279 386 Q 289 391 310 412 L 342 444 L 365 468 Z" fill="red"></path>
				<path d="M 660 512 L 613 501 L 545 488 Q 541 488 520 483 Q 499 478 432 473 L 365 468 C 335 466 312 445 342 444 L 388 443 Q 398 442 441 445 Q 484 448 539 457 Q 594 466 605 466 L 661 470 Q 695 476 715 471 Q 735 465 739 440 L 741 410 L 737 127 Q 737 70 726 8 Q 725 -20 716 -36 Q 710 -51 700 -53 Q 691 -56 672 -50 L 660 -47 Q 658 -45 647 -42 L 625 -32 Q 607 -25 607 -36 Q 607 -39 613 -45 L 629 -64 Q 646 -83 649 -88 L 672 -122 Q 676 -128 677 -132 Q 679 -136 683 -141 L 690 -150 L 697 -156 Q 701 -160 706 -161 Q 711 -162 724 -151 Q 739 -143 754 -116 Q 770 -89 778 -65 Q 787 -42 791 4 Q 798 53 799 102 L 802 360 L 804 400 Q 808 433 823 448 Q 829 456 829 461 Q 829 466 820 479 Q 811 491 787 506 Q 756 530 735 530 Q 728 530 697 522 Q 666 513 660 512 Z" fill="lightgray"></path>
				<path d="M 512 408 Q 498 408 494 410 L 491 410 Q 480 410 454 404 Q 428 397 397 393 L 310 380 Q 297 378 297 374 Q 296 366 317 357 L 329 352 Q 335 346 354 350 Q 374 354 411 360 L 455 366 L 514 372 L 547 380 Q 550 384 550 389 Q 551 393 539 400 Q 535 400 524 404 Q 513 407 512 408 Z" fill="lightgray"></path>
				<path d="M 302 308 L 289 310 L 275 314 Q 259 317 254 311 Q 250 304 259 298 L 272 289 Q 275 286 277 280 Q 281 277 283 269 L 297 212 Q 300 204 300 198 Q 304 192 311 190 Q 318 187 323 194 L 327 204 L 327 232 L 317 285 C 313 306 313 306 302 308 Z" fill="lightgray"></path>
				<path d="M 518 238 L 554 288 Q 566 296 569 299 L 569 303 Q 561 315 549 322 L 529 334 Q 518 343 501 338 Q 484 332 463 330 L 411 322 L 357 316 Q 324 311 302 308 C 272 304 287 282 317 285 L 487 303 Q 493 303 493 300 Q 495 298 495 293 L 487 251 C 481 222 500 214 518 238 Z" fill="lightgray"></path>
				<path d="M 327 204 L 342 203 Q 351 201 377 206 L 442 212 Q 468 214 483 217 Q 498 220 509 218 Q 521 216 525 218 Q 530 218 531 222 Q 531 226 527 230 L 518 238 C 503 252 503 252 487 251 L 461 250 L 428 246 Q 386 238 378 238 Q 371 238 365 236 L 327 232 C 297 229 297 206 327 204 Z" fill="lightgray"></path>
				<path d="M 260 140 L 226 148 Q 195 160 190 146 Q 188 140 196 132 Q 204 124 205 122 Q 215 116 224 78 L 245 -44 Q 247 -58 249 -65 Q 251 -73 261 -79 Q 271 -86 275 -71 L 279 -59 L 281 -28 L 273 54 L 263 120 C 260 140 260 140 260 140 Z" fill="lightgray"></path>
				<path d="M 533 144 L 543 142 Q 547 140 549 138 L 550 126 L 549 92 L 543 54 L 533 17 L 525 -7 L 518 -23 C 510 -40 510 -40 514 -46 L 523 -59 Q 524 -64 531 -66 Q 546 -77 559 -56 L 571 -32 Q 597 48 615 98 L 623 112 Q 624 119 629 122 L 636 128 L 638 136 Q 638 149 602 167 Q 566 184 554 185 Q 542 185 527 180 L 476 169 Q 390 154 369 152 L 308 145 Q 281 140 260 140 C 230 139 233 119 263 120 L 295 121 L 371 128 L 427 134 L 470 139 Q 480 139 483 140 L 512 142 L 533 144 Z" fill="lightgray"></path>
				<path d="M 423 42 L 486 48 L 505 51 Q 529 56 530 62 Q 532 71 519 76 Q 506 80 493 80 L 425 70 L 379 64 L 355 62 Q 347 62 336 60 Q 325 58 313 57 Q 276 55 294 40 Q 306 29 324 30 L 379 37 L 423 42 Z" fill="lightgray"></path>
				<path d="M 417 -18 L 423 42 L 425 70 L 425 84 L 432 128 L 427 134 C 408 157 360 156 371 128 L 376 115 L 379 64 L 379 37 L 381 -21 C 382 -51 414 -48 417 -18 Z" fill="lightgray"></path>
				<path d="M 518 -23 L 508 -18 L 479 -14 L 460 -14 L 417 -18 L 381 -21 L 281 -28 C 251 -30 249 -59 279 -59 L 306 -59 Q 309 -60 337 -58 L 395 -53 Q 434 -51 455 -48 Q 479 -48 489 -46 L 514 -46 C 544 -46 545 -36 518 -23 Z" fill="lightgray"></path>
</g>
		<text x="40" y="140" font-size="128" fill="#999999">5</text></g>
</g>
	<g id="id1:id1" transform="translate(0.0,1024)">
		<g id="id1:id0:id0" transform="matrix(1.0,0,0,1.0,0,0.0)">			<g stroke="lightgray" stroke-width="4" transform="scale(4, 4)"> <rect x="0" y="0" width="256" height="256" fill="white" stroke-width="4"/></g>
			<g transform="scale(0.92, -0.92) translate(60, -920)">					<path d="M 266 556 L 293 568 Q 296 570 321 578 L 373 593 L 415 602 L 491 622 Q 501 626 499 635 Q 497 644 485 642 L 411 634 L 363 626 L 291 618 Q 249 615 240 617 L 215 621 Q 205 623 205 615 Q 202 608 218 587 L 237 569 Q 247 556 266 556 Z" fill="black"></path>
				<path d="M 373 593 L 384 547 Q 386 539 392 530 Q 399 521 409 522 Q 417 526 417 551 L 415 602 L 411 634 L 409 686 L 413 703 L 409 711 Q 404 715 399 718 Q 331 742 327 724 Q 322 718 335 697 L 355 652 L 363 626 L 373 593 Z" fill="black"></path>
				<path d="M 623 647 L 527 638 Q 518 637 516 633 Q 514 627 520 622 Q 526 617 531 616 Q 535 612 541 609 L 552 604 Q 562 602 565 602 L 589 608 L 613 612 L 659 618 L 709 624 L 797 630 Q 806 630 818 634 Q 831 637 831 644 Q 831 650 825 656 Q 820 661 800 669 Q 780 676 768 676 L 676 657 L 623 647 Z" fill="black"></path>
				<path d="M 631 757 L 634 716 Q 623 654 623 647 L 613 612 L 607 588 Q 607 584 596 560 L 591 540 Q 588 533 593 527 Q 599 521 607 533 L 621 549 Q 655 606 659 618 L 676 657 L 691 684 Q 698 697 701 700 L 709 713 Q 720 722 708 734 Q 697 745 683 751 L 649 766 L 640 766 Q 636 766 631 757 Z" fill="black"></path>
				<path d="M 365 468 L 377 480 L 390 488 L 395 494 Q 401 507 361 528 Q 346 537 337 534 Q 326 535 329 520 Q 327 510 323 499 L 316 485 Q 309 471 285 442 Q 261 412 247 398 L 207 358 Q 201 353 201 347 Q 201 340 211 346 L 229 354 Q 235 355 247 364 L 279 386 Q 289 391 310 412 L 342 444 L 365 468 Z" fill="black"></path>
				<path d="M 660 512 L 613 501 L 545 488 Q 541 488 520 483 Q 499 478 432 473 L 365 468 C 335 466 312 445 342 444 L 388 443 Q 398 442 441 445 Q 484 448 539 457 Q 594 466 605 466 L 661 470 Q 695 476 715 471 Q 735 465 739 440 L 741 410 L 737 127 Q 737 70 726 8 Q 725 -20 716 -36 Q 710 -51 700 -53 Q 691 -56 672 -50 L 660 -47 Q 658 -45 647 -42 L 625 -32 Q 607 -25 607 -36 Q 607 -39 613 -45 L 629 -64 Q 646 -83 649 -88 L 672 -122 Q 676 -128 677 -132 Q 679 -136 683 -141 L 690 -150 L 697 -156 Q 701 -160 706 -161 Q 711 -162 724 -151 Q 739 -143 754 -116 Q 770 -89 778 -65 Q 787 -42 791 4 Q 798 53 799 102 L 802 360 L 804 400 Q 808 433 823 448 Q 829 456 829 461 Q 829 466 820 479 Q 811 491 787 506 Q 756 530 735 530 Q 728 530 697 522 Q 666 513 660 512 Z" fill="red"></path>
				<path d="M 512 408 Q 498 408 494 410 L 491 410 Q 480 410 454 404 Q 428 397 397 393 L 310 380 Q 297 378 297 374 Q 296 366 317 357 L 329 352 Q 335 346 354 350 Q 374 354 411 360 L 455 366 L 514 372 L 547 380 Q 550 384 550 389 Q 551 393 539 400 Q 535 400 524 404 Q 513 407 512 408 Z" fill="lightgray"></path>
				<path d="M 302 308 L 289 310 L 275 314 Q 259 317 254 311 Q 250 304 259 298 L 272 289 Q 275 286 277 280 Q 281 277 283 269 L 297 212 Q 300 204 300 198 Q 304 192 311 190 Q 318 187 323 194 L 327 204 L 327 232 L 317 285 C 313 306 313 306 302 308 Z" fill="lightgray"></path>
				<path d="M 518 238 L 554 288 Q 566 296 569 299 L 569 303 Q 561 315 549 322 L 529 334 Q 518 343 501 338 Q 484 332 463 330 L 411 322 L 357 316 Q 324 311 302 308 C 272 304 287 282 317 285 L 487 303 Q 493 303 493 300 Q 495 298 495 293 L 487 251 C 481 222 500 214 518 238 Z" fill="lightgray"></path>
				<path d="M 327 204 L 342 203 Q 351 201 377 206 L 442 212 Q 468 214 483 217 Q 498 220 509 218 Q 521 216 525 218 Q 530 218 531 222 Q 531 226 527 230 L 518 238 C 503 252 503 252 487 251 L 461 250 L 428 246 Q 386 238 378 238 Q 371 238 365 236 L 327 232 C 297 229 297 206 327 204 Z" fill="lightgray"></path>
				<path d="M 260 140 L 226 148 Q 195 160 190 146 Q 188 140 196 132 Q 204 124 205 122 Q 215 116 224 78 L 245 -44 Q 247 -58 249 -65 Q 251 -73 261 -79 Q 271 -86 275 -71 L 279 -59 L 281 -28 L 273 54 L 263 120 C 260 140 260 140 260 140 Z" fill="lightgray"></path>
				<path d="M 533 144 L 543 142 Q 547 140 549 138 L 550 126 L 549 92 L 543 54 L 533 17 L 525 -7 L 518 -23 C 510 -40 510 -40 514 -46 L 523 -59 Q 524 -64 531 -66 Q 546 -77 559 -56 L 571 -32 Q 597 48 615 98 L 623 112 Q 624 119 629 122 L 636 128 L 638 136 Q 638 149 602 167 Q 566 184 554 185 Q 542 185 527 180 L 476 169 Q 390 154 369 152 L 308 145 Q 281 140 260 140 C 230 139 233 119 263 120 L 295 121 L 371 128 L 427 134 L 470 139 Q 480 139 483 140 L 512 142 L 533 144 Z" fill="lightgray"></path>
				<path d="M 423 42 L 486 48 L 505 51 Q 529 56 530 62 Q 532 71 519 76 Q 506 80 493 80 L 425 70 L 379 64 L 355 62 Q 347 62 336 60 Q 325 58 313 57 Q 276 55 294 40 Q 306 29 324 30 L 379 37 L 423 42 Z" fill="lightgray"></path>
				<path d="M 417 -18 L 423 42 L 425 70 L 425 84 L 432 128 L 427 134 C 408 157 360 156 371 128 L 376 115 L 379 64 L 379 37 L 381 -21 C 382 -51 414 -48 417 -18 Z" fill="lightgray"></path>
				<path d="M 518 -23 L 508 -18 L 479 -14 L 460 -14 L 417 -18 L 381 -21 L 281 -28 C 251 -30 249 -59 279 -59 L 306 -59 Q 309 -60 337 -58 L 395 -53 Q 434 -51 455 -48 Q 479 -48 489 -46 L 514 -46 C 544 -46 545 -36 518 -23 Z" fill="lightgray"></path>
</g>
		<text x="40" y="140" font-size="128" fill="#999999">6</text></g>
		<g id="id1:id1:id1" transform="matrix(1.0,0,0,1.0,1024,0.0)">			<g stroke="lightgray" stroke-width="4" transform="scale(4, 4)"> <rect x="0" y="0" width="256" height="256" fill="white" stroke-width="4"/></g>
			<g transform="scale(0.92, -0.92) translate(60, -920)">					<path d="M 266 556 L 293 568 Q 296 570 321 578 L 373 593 L 415 602 L 491 622 Q 501 626 499 635 Q 497 644 485 642 L 411 634 L 363 626 L 291 618 Q 249 615 240 617 L 215 621 Q 205 623 205 615 Q 202 608 218 587 L 237 569 Q 247 556 266 556 Z" fill="black"></path>
				<path d="M 373 593 L 384 547 Q 386 539 392 530 Q 399 521 409 522 Q 417 526 417 551 L 415 602 L 411 634 L 409 686 L 413 703 L 409 711 Q 404 715 399 718 Q 331 742 327 724 Q 322 718 335 697 L 355 652 L 363 626 L 373 593 Z" fill="black"></path>
				<path d="M 623 647 L 527 638 Q 518 637 516 633 Q 514 627 520 622 Q 526 617 531 616 Q 535 612 541 609 L 552 604 Q 562 602 565 602 L 589 608 L 613 612 L 659 618 L 709 624 L 797 630 Q 806 630 818 634 Q 831 637 831 644 Q 831 650 825 656 Q 820 661 800 669 Q 780 676 768 676 L 676 657 L 623 647 Z" fill="black"></path>
				<path d="M 631 757 L 634 716 Q 623 654 623 647 L 613 612 L 607 588 Q 607 584 596 560 L 591 540 Q 588 533 593 527 Q 599 521 607 533 L 621 549 Q 655 606 659 618 L 676 657 L 691 684 Q 698 697 701 700 L 709 713 Q 720 722 708 734 Q 697 745 683 751 L 649 766 L 640 766 Q 636 766 631 757 Z" fill="black"></path>
				<path d="M 365 468 L 377 480 L 390 488 L 395 494 Q 401 507 361 528 Q 346 537 337 534 Q 326 535 329 520 Q 327 510 323 499 L 316 485 Q 309 471 285 442 Q 261 412 247 398 L 207 358 Q 201 353 201 347 Q 201 340 211 346 L 229 354 Q 235 355 247 364 L 279 386 Q 289 391 310 412 L 342 444 L 365 468 Z" fill="black"></path>
				<path d="M 660 512 L 613 501 L 545 488 Q 541 488 520 483 Q 499 478 432 473 L 365 468 C 335 466 312 445 342 444 L 388 443 Q 398 442 441 445 Q 484 448 539 457 Q 594 466 605 466 L 661 470 Q 695 476 715 471 Q 735 465 739 440 L 741 410 L 737 127 Q 737 70 726 8 Q 725 -20 716 -36 Q 710 -51 700 -53 Q 691 -56 672 -50 L 660 -47 Q 658 -45 647 -42 L 625 -32 Q 607 -25 607 -36 Q 607 -39 613 -45 L 629 -64 Q 646 -83 649 -88 L 672 -122 Q 676 -128 677 -132 Q 679 -136 683 -141 L 690 -150 L 697 -156 Q 701 -160 706 -161 Q 711 -162 724 -151 Q 739 -143 754 -116 Q 770 -89 778 -65 Q 787 -42 791 4 Q 798 53 799 102 L 802 360 L 804 400 Q 808 433 823 448 Q 829 456 829 461 Q 829 466 820 479 Q 811 491 787 506 Q 756 530 735 530 Q 728 530 697 522 Q 666 513 660 512 Z" fill="black"></path>
				<path d="M 512 408 Q 498 408 494 410 L 491 410 Q 480 410 454 404 Q 428 397 397 393 L 310 380 Q 297 378 297 374 Q 296 366 317 357 L 329 352 Q 335 346 354 350 Q 374 354 411 360 L 455 366 L 514 372 L 547 380 Q 550 384 550 389 Q 551 393 539 400 Q 535 400 524 404 Q 513 407 512 408 Z" fill="red"></path>
				<path d="M 302 308 L 289 310 L 275 314 Q 259 317 254 311 Q 250 304 259 298 L 272 289 Q 275 286 277 280 Q 281 277 283 269 L 297 212 Q 300 204 300 198 Q 304 192 311 190 Q 318 187 323 194 L 327 204 L 327 232 L 317 285 C 313 306 313 306 302 308 Z" fill="lightgray"></path>
				<path d="M 518 238 L 554 288 Q 566 296 569 299 L 569 303 Q 561 315 549 322 L 529 334 Q 518 343 501 338 Q 484 332 463 330 L 411 322 L 357 316 Q 324 311 302 308 C 272 304 287 282 317 285 L 487 303 Q 493 303 493 300 Q 495 298 495 293 L 487 251 C 481 222 500 214 518 238 Z" fill="lightgray"></path>
				<path d="M 327 204 L 342 203 Q 351 201 377 206 L 442 212 Q 468 214 483 217 Q 498 220 509 218 Q 521 216 525 218 Q 530 218 531 222 Q 531 226 527 230 L 518 238 C 503 252 503 252 487 251 L 461 250 L 428 246 Q 386 238 378 238 Q 371 238 365 236 L 327 232 C 297 229 297 206 327 204 Z" fill="lightgray"></path>
				<path d="M 260 140 L 226 148 Q 195 160 190 146 Q 188 140 196 132 Q 204 124 205 122 Q 215 116 224 78 L 245 -44 Q 247 -58 249 -65 Q 251 -73 261 -79 Q 271 -86 275 -71 L 279 -59 L 281 -28 L 273 54 L 263 120 C 260 140 260 140 260 140 Z" fill="lightgray"></path>
				<path d="M 533 144 L 543 142 Q 547 140 549 138 L 550 126 L 549 92 L 543 54 L 533 17 L 525 -7 L 518 -23 C 510 -40 510 -40 514 -46 L 523 -59 Q 524 -64 531 -66 Q 546 -77 559 -56 L 571 -32 Q 597 48 615 98 L 623 112 Q 624 119 629 122 L 636 128 L 638 136 Q 638 149 602 167 Q 566 184 554 185 Q 542 185 527 180 L 476 169 Q 390 154 369 152 L 308 145 Q 281 140 260 140 C 230 139 233 119 263 120 L 295 121 L 371 128 L 427 134 L 470 139 Q 480 139 483 140 L 512 142 L 533 144 Z" fill="lightgray"></path>
				<path d="M 423 42 L 486 48 L 505 51 Q 529 56 530 62 Q 532 71 519 76 Q 506 80 493 80 L 425 70 L 379 64 L 355 62 Q 347 62 336 60 Q 325 58 313 57 Q 276 55 294 40 Q 306 29 324 30 L 379 37 L 423 42 Z" fill="lightgray"></path>
				<path d="M 417 -18 L 423 42 L 425 70 L 425 84 L 432 128 L 427 134 C 408 157 360 156 371 128 L 376 115 L 379 64 L 379 37 L 381 -21 C 382 -51 414 -48 417 -18 Z" fill="lightgray"></path>
				<path d="M 518 -23 L 508 -18 L 479 -14 L 460 -14 L 417 -18 L 381 -21 L 281 -28 C 251 -30 249 -59 279 -59 L 306 -59 Q 309 -60 337 -58 L 395 -53 Q 434 -51 455 -48 Q 479 -48 489 -46 L 514 -46 C 544 -46 545 -36 518 -23 Z" fill="lightgray"></path>
</g>
		<text x="40" y="140" font-size="128" fill="#999999">7</text></g>
		<g id="id1:id2:id2" transform="matrix(1.0,0,0,1.0,2048,0.0)">			<g stroke="lightgray" stroke-width="4" transform="scale(4, 4)"> <rect x="0" y="0" width="256" height="256" fill="white" stroke-width="4"/></g>
			<g transform="scale(0.92, -0.92) translate(60, -920)">					<path d="M 266 556 L 293 568 Q 296 570 321 578 L 373 593 L 415 602 L 491 622 Q 501 626 499 635 Q 497 644 485 642 L 411 634 L 363 626 L 291 618 Q 249 615 240 617 L 215 621 Q 205 623 205 615 Q 202 608 218 587 L 237 569 Q 247 556 266 556 Z" fill="black"></path>
				<path d="M 373 593 L 384 547 Q 386 539 392 530 Q 399 521 409 522 Q 417 526 417 551 L 415 602 L 411 634 L 409 686 L 413 703 L 409 711 Q 404 715 399 718 Q 331 742 327 724 Q 322 718 335 697 L 355 652 L 363 626 L 373 593 Z" fill="black"></path>
				<path d="M 623 647 L 527 638 Q 518 637 516 633 Q 514 627 520 622 Q 526 617 531 616 Q 535 612 541 609 L 552 604 Q 562 602 565 602 L 589 608 L 613 612 L 659 618 L 709 624 L 797 630 Q 806 630 818 634 Q 831 637 831 644 Q 831 650 825 656 Q 820 661 800 669 Q 780 676 768 676 L 676 657 L 623 647 Z" fill="black"></path>
				<path d="M 631 757 L 634 716 Q 623 654 623 647 L 613 612 L 607 588 Q 607 584 596 560 L 591 540 Q 588 533 593 527 Q 599 521 607 533 L 621 549 Q 655 606 659 618 L 676 657 L 691 684 Q 698 697 701 700 L 709 713 Q 720 722 708 734 Q 697 745 683 751 L 649 766 L 640 766 Q 636 766 631 757 Z" fill="black"></path>
				<path d="M 365 468 L 377 480 L 390 488 L 395 494 Q 401 507 361 528 Q 346 537 337 534 Q 326 535 329 520 Q 327 510 323 499 L 316 485 Q 309 471 285 442 Q 261 412 247 398 L 207 358 Q 201 353 201 347 Q 201 340 211 346 L 229 354 Q 235 355 247 364 L 279 386 Q 289 391 310 412 L 342 444 L 365 468 Z" fill="black"></path>
				<path d="M 660 512 L 613 501 L 545 488 Q 541 488 520 483 Q 499 478 432 473 L 365 468 C 335 466 312 445 342 444 L 388 443 Q 398 442 441 445 Q 484 448 539 457 Q 594 466 605 466 L 661 470 Q 695 476 715 471 Q 735 465 739 440 L 741 410 L 737 127 Q 737 70 726 8 Q 725 -20 716 -36 Q 710 -51 700 -53 Q 691 -56 672 -50 L 660 -47 Q 658 -45 647 -42 L 625 -32 Q 607 -25 607 -36 Q 607 -39 613 -45 L 629 -64 Q 646 -83 649 -88 L 672 -122 Q 676 -128 677 -132 Q 679 -136 683 -141 L 690 -150 L 697 -156 Q 701 -160 706 -161 Q 711 -162 724 -151 Q 739 -143 754 -116 Q 770 -89 778 -65 Q 787 -42 791 4 Q 798 53 799 102 L 802 360 L 804 400 Q 808 433 823 448 Q 829 456 829 461 Q 829 466 820 479 Q 811 491 787 506 Q 756 530 735 530 Q 728 530 697 522 Q 666 513 660 512 Z" fill="black"></path>
				<path d="M 512 408 Q 498 408 494 410 L 491 410 Q 480 410 454 404 Q 428 397 397 393 L 310 380 Q 297 378 297 374 Q 296 366 317 357 L 329 352 Q 335 346 354 350 Q 374 354 411 360 L 455 366 L 514 372 L 547 380 Q 550 384 550 389 Q 551 393 539 400 Q 535 400 524 404 Q 513 407 512 408 Z" fill="black"></path>
				<path d="M 302 308 L 289 310 L 275 314 Q 259 317 254 311 Q 250 304 259 298 L 272 289 Q 275 286 277 280 Q 281 277 283 269 L 297 212 Q 300 204 300 198 Q 304 192 311 190 Q 318 187 323 194 L 327 204 L 327 232 L 317 285 C 313 306 313 306 302 308 Z" fill="red"></path>
				<path d="M 518 238 L 554 288 Q 566 296 569 299 L 569 303 Q 561 315 549 322 L 529 334 Q 518 343 501 338 Q 484 332 463 330 L 411 322 L 357 316 Q 324 311 302 308 C 272 304 287 282 317 285 L 487 303 Q 493 303 493 300 Q 495 298 495 293 L 487 251 C 481 222 500 214 518 238 Z" fill="lightgray"></path>
				<path d="M 327 204 L 342 203 Q 351 201 377 206 L 442 212 Q 468 214 483 217 Q 498 220 509 218 Q 521 216 525 218 Q 530 218 531 222 Q 531 226 527 230 L 518 238 C 503 252 503 252 487 251 L 461 250 L 428 246 Q 386 238 378 238 Q 371 238 365 236 L 327 232 C 297 229 297 206 327 204 Z" fill="lightgray"></path>
				<path d="M 260 140 L 226 148 Q 195 160 190 146 Q 188 140 196 132 Q 204 124 205 122 Q 215 116 224 78 L 245 -44 Q 247 -58 249 -65 Q 251 -73 261 -79 Q 271 -86 275 -71 L 279 -59 L 281 -28 L 273 54 L 263 120 C 260 140 260 140 260 140 Z" fill="lightgray"></path>
				<path d="M 533 144 L 543 142 Q 547 140 549 138 L 550 126 L 549 92 L 543 54 L 533 17 L 525 -7 L 518 -23 C 510 -40 510 -40 514 -46 L 523 -59 Q 524 -64 531 -66 Q 546 -77 559 -56 L 571 -32 Q 597 48 615 98 L 623 112 Q 624 119 629 122 L 636 128 L 638 136 Q 638 149 602 167 Q 566 184 554 185 Q 542 185 527 180 L 476 169 Q 390 154 369 152 L 308 145 Q 281 140 260 140 C 230 139 233 119 263 120 L 295 121 L 371 128 L 427 134 L 470 139 Q 480 139 483 140 L 512 142 L 533 144 Z" fill="lightgray"></path>
				<path d="M 423 42 L 486 48 L 505 51 Q 529 56 530 62 Q 532 71 519 76 Q 506 80 493 80 L 425 70 L 379 64 L 355 62 Q 347 62 336 60 Q 325 58 313 57 Q 276 55 294 40 Q 306 29 324 30 L 379 37 L 423 42 Z" fill="lightgray"></path>
				<path d="M 417 -18 L 423 42 L 425 70 L 425 84 L 432 128 L 427 134 C 408 157 360 156 371 128 L 376 115 L 379 64 L 379 37 L 381 -21 C 382 -51 414 -48 417 -18 Z" fill="lightgray"></path>
				<path d="M 518 -23 L 508 -18 L 479 -14 L 460 -14 L 417 -18 L 381 -21 L 281 -28 C 251 -30 249 -59 279 -59 L 306 -59 Q 309 -60 337 -58 L 395 -53 Q 434 -51 455 -48 Q 479 -48 489 -46 L 514 -46 C 544 -46 545 -36 518 -23 Z" fill="lightgray"></path>
</g>
		<text x="40" y="140" font-size="128" fill="#999999">8</text></g>
		<g id="id1:id3:id3" transform="matrix(1.0,0,0,1.0,3072,0.0)">			<g stroke="lightgray" stroke-width="4" transform="scale(4, 4)"> <rect x="0" y="0" width="256" height="256" fill="white" stroke-width="4"/></g>
			<g transform="scale(0.92, -0.92) translate(60, -920)">					<path d="M 266 556 L 293 568 Q 296 570 321 578 L 373 593 L 415 602 L 491 622 Q 501 626 499 635 Q 497 644 485 642 L 411 634 L 363 626 L 291 618 Q 249 615 240 617 L 215 621 Q 205 623 205 615 Q 202 608 218 587 L 237 569 Q 247 556 266 556 Z" fill="black"></path>
				<path d="M 373 593 L 384 547 Q 386 539 392 530 Q 399 521 409 522 Q 417 526 417 551 L 415 602 L 411 634 L 409 686 L 413 703 L 409 711 Q 404 715 399 718 Q 331 742 327 724 Q 322 718 335 697 L 355 652 L 363 626 L 373 593 Z" fill="black"></path>
				<path d="M 623 647 L 527 638 Q 518 637 516 633 Q 514 627 520 622 Q 526 617 531 616 Q 535 612 541 609 L 552 604 Q 562 602 565 602 L 589 608 L 613 612 L 659 618 L 709 624 L 797 630 Q 806 630 818 634 Q 831 637 831 644 Q 831 650 825 656 Q 820 661 800 669 Q 780 676 768 676 L 676 657 L 623 647 Z" fill="black"></path>
				<path d="M 631 757 L 634 716 Q 623 654 623 647 L 613 612 L 607 588 Q 607 584 596 560 L 591 540 Q 588 533 593 527 Q 599 521 607 533 L 621 549 Q 655 606 659 618 L 676 657 L 691 684 Q 698 697 701 700 L 709 713 Q 720 722 708 734 Q 697 745 683 751 L 649 766 L 640 766 Q 636 766 631 757 Z" fill="black"></path>
				<path d="M 365 468 L 377 480 L 390 488 L 395 494 Q 401 507 361 528 Q 346 537 337 534 Q 326 535 329 520 Q 327 510 323 499 L 316 485 Q 309 471 285 442 Q 261 412 247 398 L 207 358 Q 201 353 201 347 Q 201 340 211 346 L 229 354 Q 235 355 247 364 L 279 386 Q 289 391 310 412 L 342 444 L 365 468 Z" fill="black"></path>
				<path d="M 660 512 L 613 501 L 545 488 Q 541 488 520 483 Q 499 478 432 473 L 365 468 C 335 466 312 445 342 444 L 388 443 Q 398 442 441 445 Q 484 448 539 457 Q 594 466 605 466 L 661 470 Q 695 476 715 471 Q 735 465 739 440 L 741 410 L 737 127 Q 737 70 726 8 Q 725 -20 716 -36 Q 710 -51 700 -53 Q 691 -56 672 -50 L 660 -47 Q 658 -45 647 -42 L 625 -32 Q 607 -25 607 -36 Q 607 -39 613 -45 L 629 -64 Q 646 -83 649 -88 L 672 -122 Q 676 -128 677 -132 Q 679 -136 683 -141 L 690 -150 L 697 -156 Q 701 -160 706 -161 Q 711 -162 724 -151 Q 739 -143 754 -116 Q 770 -89 778 -65 Q 787 -42 791 4 Q 798 53 799 102 L 802 360 L 804 400 Q 808 433 823 448 Q 829 456 829 461 Q 829 466 820 479 Q 811 491 787 506 Q 756 530 735 530 Q 728 530 697 522 Q 666 513 660 512 Z" fill="black"></path>
				<path d="M 512 408 Q 498 408 494 410 L 491 410 Q 480 410 454 404 Q 428 397 397 393 L 310 380 Q 297 378 297 374 Q 296 366 317 357 L 329 352 Q 335 346 354 350 Q 374 354 411 360 L 455 366 L 514 372 L 547 380 Q 550 384 550 389 Q 551 393 539 400 Q 535 400 524 404 Q 513 407 512 408 Z" fill="black"></path>
				<path d="M 302 308 L 289 310 L 275 314 Q 259 317 254 311 Q 250 304 259 298 L 272 289 Q 275 286 277 280 Q 281 277 283 269 L 297 212 Q 300 204 300 198 Q 304 192 311 190 Q 318 187 323 194 L 327 204 L 327 232 L 317 285 C 313 306 313 306 302 308 Z" fill="black"></path>
				<path d="M 518 238 L 554 288 Q 566 296 569 299 L 569 303 Q 561 315 549 322 L 529 334 Q 518 343 501 338 Q 484 332 463 330 L 411 322 L 357 316 Q 324 311 302 308 C 272 304 287 282 317 285 L 487 303 Q 493 303 493 300 Q 495 298 495 293 L 487 251 C 481 222 500 214 518 238 Z" fill="red"></path>
				<path d="M 327 204 L 342 203 Q 351 201 377 206 L 442 212 Q 468 214 483 217 Q 498 220 509 218 Q 521 216 525 218 Q 530 218 531 222 Q 531 226 527 230 L 518 238 C 503 252 503 252 487 251 L 461 250 L 428 246 Q 386 238 378 238 Q 371 238 365 236 L 327 232 C 297 229 297 206 327 204 Z" fill="lightgray"></path>
				<path d="M 260 140 L 226 148 Q 195 160 190 146 Q 188 140 196 132 Q 204 124 205 122 Q 215 116 224 78 L 245 -44 Q 247 -58 249 -65 Q 251 -73 261 -79 Q 271 -86 275 -71 L 279 -59 L 281 -28 L 273 54 L 263 120 C 260 140 260 140 260 140 Z" fill="lightgray"></path>
				<path d="M 533 144 L 543 142 Q 547 140 549 138 L 550 126 L 549 92 L 543 54 L 533 17 L 525 -7 L 518 -23 C 510 -40 510 -40 514 -46 L 523 -59 Q 524 -64 531 -66 Q 546 -77 559 -56 L 571 -32 Q 597 48 615 98 L 623 112 Q 624 119 629 122 L 636 128 L 638 136 Q 638 149 602 167 Q 566 184 554 185 Q 542 185 527 180 L 476 169 Q 390 154 369 152 L 308 145 Q 281 140 260 140 C 230 139 233 119 263 120 L 295 121 L 371 128 L 427 134 L 470 139 Q 480 139 483 140 L 512 142 L 533 144 Z" fill="lightgray"></path>
				<path d="M 423 42 L 486 48 L 505 51 Q 529 56 530 62 Q 532 71 519 76 Q 506 80 493 80 L 425 70 L 379 64 L 355 62 Q 347 62 336 60 Q 325 58 313 57 Q 276 55 294 40 Q 306 29 324 30 L 379 37 L 423 42 Z" fill="lightgray"></path>
				<path d="M 417 -18 L 423 42 L 425 70 L 425 84 L 432 128 L 427 134 C 408 157 360 156 371 128 L 376 115 L 379 64 L 379 37 L 381 -21 C 382 -51 414 -48 417 -18 Z" fill="lightgray"></path>
				<path d="M 518 -23 L 508 -18 L 479 -14 L 460 -14 L 417 -18 L 381 -21 L 281 -28 C 251 -30 249 -59 279 -59 L 306 -59 Q 309 -60 337 -58 L 395 -53 Q 434 -51 455 -48 Q 479 -48 489 -46 L 514 -46 C 544 -46 545 -36 518 -23 Z" fill="lightgray"></path>
</g>
		<text x="40" y="140" font-size="128" fill="#999999">9</text></g>
		<g id="id1:id4:id4" transform="matrix(1.0,0,0,1.0,4096,0.0)">			<g stroke="lightgray" stroke-width="4" transform="scale(4, 4)"> <rect x="0" y="0" width="256" height="256" fill="white" stroke-width="4"/></g>
			<g transform="scale(0.92, -0.92) translate(60, -920)">					<path d="M 266 556 L 293 568 Q 296 570 321 578 L 373 593 L 415 602 L 491 622 Q 501 626 499 635 Q 497 644 485 642 L 411 634 L 363 626 L 291 618 Q 249 615 240 617 L 215 621 Q 205 623 205 615 Q 202 608 218 587 L 237 569 Q 247 556 266 556 Z" fill="black"></path>
				<path d="M 373 593 L 384 547 Q 386 539 392 530 Q 399 521 409 522 Q 417 526 417 551 L 415 602 L 411 634 L 409 686 L 413 703 L 409 711 Q 404 715 399 718 Q 331 742 327 724 Q 322 718 335 697 L 355 652 L 363 626 L 373 593 Z" fill="black"></path>
				<path d="M 623 647 L 527 638 Q 518 637 516 633 Q 514 627 520 622 Q 526 617 531 616 Q 535 612 541 609 L 552 604 Q 562 602 565 602 L 589 608 L 613 612 L 659 618 L 709 624 L 797 630 Q 806 630 818 634 Q 831 637 831 644 Q 831 650 825 656 Q 820 661 800 669 Q 780 676 768 676 L 676 657 L 623 647 Z" fill="black"></path>
				<path d="M 631 757 L 634 716 Q 623 654 623 647 L 613 612 L 607 588 Q 607 584 596 560 L 591 540 Q 588 533 593 527 Q 599 521 607 533 L 621 549 Q 655 606 659 618 L 676 657 L 691 684 Q 698 697 701 700 L 709 713 Q 720 722 708 734 Q 697 745 683 751 L 649 766 L 640 766 Q 636 766 631 757 Z" fill="black"></path>
				<path d="M 365 468 L 377 480 L 390 488 L 395 494 Q 401 507 361 528 Q 346 537 337 534 Q 326 535 329 520 Q 327 510 323 499 L 316 485 Q 309 471 285 442 Q 261 412 247 398 L 207 358 Q 201 353 201 347 Q 201 340 211 346 L 229 354 Q 235 355 247 364 L 279 386 Q 289 391 310 412 L 342 444 L 365 468 Z" fill="black"></path>
				<path d="M 660 512 L 613 501 L 545 488 Q 541 488 520 483 Q 499 478 432 473 L 365 468 C 335 466 312 445 342 444 L 388 443 Q 398 442 441 445 Q 484 448 539 457 Q 594 466 605 466 L 661 470 Q 695 476 715 471 Q 735 465 739 440 L 741 410 L 737 127 Q 737 70 726 8 Q 725 -20 716 -36 Q 710 -51 700 -53 Q 691 -56 672 -50 L 660 -47 Q 658 -45 647 -42 L 625 -32 Q 607 -25 607 -36 Q 607 -39 613 -45 L 629 -64 Q 646 -83 649 -88 L 672 -122 Q 676 -128 677 -132 Q 679 -136 683 -141 L 690 -150 L 697 -156 Q 701 -160 706 -161 Q 711 -162 724 -151 Q 739 -143 754 -116 Q 770 -89 778 -65 Q 787 -42 791 4 Q 798 53 799 102 L 802 360 L 804 400 Q 808 433 823 448 Q 829 456 829 461 Q 829 466 820 479 Q 811 491 787 506 Q 756 530 735 530 Q 728 530 697 522 Q 666 513 660 512 Z" fill="black"></path>
				<path d="M 512 408 Q 498 408 494 410 L 491 410 Q 480 410 454 404 Q 428 397 397 393 L 310 380 Q 297 378 297 374 Q 296 366 317 357 L 329 352 Q 335 346 354 350 Q 374 354 411 360 L 455 366 L 514 372 L 547 380 Q 550 384 550 389 Q 551 393 539 400 Q 535 400 524 404 Q 513 407 512 408 Z" fill="black"></path>
				<path d="M 302 308 L 289 310 L 275 314 Q 259 317 254 311 Q 250 304 259 298 L 272 289 Q 275 286 277 280 Q 281 277 283 269 L 297 212 Q 300 204 300 198 Q 304 192 311 190 Q 318 187 323 194 L 327 204 L 327 232 L 317 285 C 313 306 313 306 302 308 Z" fill="black"></path>
				<path d="M 518 238 L 554 288 Q 566 296 569 299 L 569 303 Q 561 315 549 322 L 529 334 Q 518 343 501 338 Q 484 332 463 330 L 411 322 L 357 316 Q 324 311 302 308 C 272 304 287 282 317 285 L 487 303 Q 493 303 493 300 Q 495 298 495 293 L 487 251 C 481 222 500 214 518 238 Z" fill="black"></path>
				<path d="M 327 204 L 342 203 Q 351 201 377 206 L 442 212 Q 468 214 483 217 Q 498 220 509 218 Q 521 216 525 218 Q 530 218 531 222 Q 531 226 527 230 L 518 238 C 503 252 503 252 487 251 L 461 250 L 428 246 Q 386 238 378 238 Q 371 238 365 236 L 327 232 C 297 229 297 206 327 204 Z" fill="red"></path>
				<path d="M 260 140 L 226 148 Q 195 160 190 146 Q 188 140 196 132 Q 204 124 205 122 Q 215 116 224 78 L 245 -44 Q 247 -58 249 -65 Q 251 -73 261 -79 Q 271 -86 275 -71 L 279 -59 L 281 -28 L 273 54 L 263 120 C 260 140 260 140 260 140 Z" fill="lightgray"></path>
				<path d="M 533 144 L 543 142 Q 547 140 549 138 L 550 126 L 549 92 L 543 54 L 533 17 L 525 -7 L 518 -23 C 510 -40 510 -40 514 -46 L 523 -59 Q 524 -64 531 -66 Q 546 -77 559 -56 L 571 -32 Q 597 48 615 98 L 623 112 Q 624 119 629 122 L 636 128 L 638 136 Q 638 149 602 167 Q 566 184 554 185 Q 542 185 527 180 L 476 169 Q 390 154 369 152 L 308 145 Q 281 140 260 140 C 230 139 233 119 263 120 L 295 121 L 371 128 L 427 134 L 470 139 Q 480 139 483 140 L 512 142 L 533 144 Z" fill="lightgray"></path>
				<path d="M 423 42 L 486 48 L 505 51 Q 529 56 530 62 Q 532 71 519 76 Q 506 80 493 80 L 425 70 L 379 64 L 355 62 Q 347 62 336 60 Q 325 58 313 57 Q 276 55 294 40 Q 306 29 324 30 L 379 37 L 423 42 Z" fill="lightgray"></path>
				<path d="M 417 -18 L 423 42 L 425 70 L 425 84 L 432 128 L 427 134 C 408 157 360 156 371 128 L 376 115 L 379 64 L 379 37 L 381 -21 C 382 -51 414 -48 417 -18 Z" fill="lightgray"></path>
				<path d="M 518 -23 L 508 -18 L 479 -14 L 460 -14 L 417 -18 L 381 -21 L 281 -28 C 251 -30 249 -59 279 -59 L 306 -59 Q 309 -60 337 -58 L 395 -53 Q 434 -51 455 -48 Q 479 -48 489 -46 L 514 -46 C 544 -46 545 -36 518 -23 Z" fill="lightgray"></path>
</g>
		<text x="40" y="140" font-size="128" fill="#999999">10</text></g>
</g>
	<g id="id2:id2" transform="translate(0.0,2048)">
		<g id="id2:id0:id0" transform="matrix(1.0,0,0,1.0,0,0.0)">			<g stroke="lightgray" stroke-width="4" transform="scale(4, 4)"> <rect x="0" y="0" width="256" height="256" fill="white" stroke-width="4"/></g>
			<g transform="scale(0.92, -0.92) translate(60, -920)">					<path d="M 266 556 L 293 568 Q 296 570 321 578 L 373 593 L 415 602 L 491 622 Q 501 626 499 635 Q 497 644 485 642 L 411 634 L 363 626 L 291 618 Q 249 615 240 617 L 215 621 Q 205 623 205 615 Q 202 608 218 587 L 237 569 Q 247 556 266 556 Z" fill="black"></path>
				<path d="M 373 593 L 384 547 Q 386 539 392 530 Q 399 521 409 522 Q 417 526 417 551 L 415 602 L 411 634 L 409 686 L 413 703 L 409 711 Q 404 715 399 718 Q 331 742 327 724 Q 322 718 335 697 L 355 652 L 363 626 L 373 593 Z" fill="black"></path>
				<path d="M 623 647 L 527 638 Q 518 637 516 633 Q 514 627 520 622 Q 526 617 531 616 Q 535 612 541 609 L 552 604 Q 562 602 565 602 L 589 608 L 613 612 L 659 618 L 709 624 L 797 630 Q 806 630 818 634 Q 831 637 831 644 Q 831 650 825 656 Q 820 661 800 669 Q 780 676 768 676 L 676 657 L 623 647 Z" fill="black"></path>
				<path d="M 631 757 L 634 716 Q 623 654 623 647 L 613 612 L 607 588 Q 607 584 596 560 L 591 540 Q 588 533 593 527 Q 599 521 607 533 L 621 549 Q 655 606 659 618 L 676 657 L 691 684 Q 698 697 701 700 L 709 713 Q 720 722 708 734 Q 697 745 683 751 L 649 766 L 640 766 Q 636 766 631 757 Z" fill="black"></path>
				<path d="M 365 468 L 377 480 L 390 488 L 395 494 Q 401 507 361 528 Q 346 537 337 534 Q 326 535 329 520 Q 327 510 323 499 L 316 485 Q 309 471 285 442 Q 261 412 247 398 L 207 358 Q 201 353 201 347 Q 201 340 211 346 L 229 354 Q 235 355 247 364 L 279 386 Q 289 391 310 412 L 342 444 L 365 468 Z" fill="black"></path>
				<path d="M 660 512 L 613 501 L 545 488 Q 541 488 520 483 Q 499 478 432 473 L 365 468 C 335 466 312 445 342 444 L 388 443 Q 398 442 441 445 Q 484 448 539 457 Q 594 466 605 466 L 661 470 Q 695 476 715 471 Q 735 465 739 440 L 741 410 L 737 127 Q 737 70 726 8 Q 725 -20 716 -36 Q 710 -51 700 -53 Q 691 -56 672 -50 L 660 -47 Q 658 -45 647 -42 L 625 -32 Q 607 -25 607 -36 Q 607 -39 613 -45 L 629 -64 Q 646 -83 649 -88 L 672 -122 Q 676 -128 677 -132 Q 679 -136 683 -141 L 690 -150 L 697 -156 Q 701 -160 706 -161 Q 711 -162 724 -151 Q 739 -143 754 -116 Q 770 -89 778 -65 Q 787 -42 791 4 Q 798 53 799 102 L 802 360 L 804 400 Q 808 433 823 448 Q 829 456 829 461 Q 829 466 820 479 Q 811 491 787 506 Q 756 530 735 530 Q 728 530 697 522 Q 666 513 660 512 Z" fill="black"></path>
				<path d="M 512 408 Q 498 408 494 410 L 491 410 Q 480 410 454 404 Q 428 397 397 393 L 310 380 Q 297 378 297 374 Q 296 366 317 357 L 329 352 Q 335 346 354 350 Q 374 354 411 360 L 455 366 L 514 372 L 547 380 Q 550 384 550 389 Q 551 393 539 400 Q 535 400 524 404 Q 513 407 512 408 Z" fill="black"></path>
				<path d="M 302 308 L 289 310 L 275 314 Q 259 317 254 311 Q 250 304 259 298 L 272 289 Q 275 286 277 280 Q 281 277 283 269 L 297 212 Q 300 204 300 198 Q 304 192 311 190 Q 318 187 323 194 L 327 204 L 327 232 L 317 285 C 313 306 313 306 302 308 Z" fill="black"></path>
				<path d="M 518 238 L 554 288 Q 566 296 569 299 L 569 303 Q 561 315 549 322 L 529 334 Q 518 343 501 338 Q 484 332 463 330 L 411 322 L 357 316 Q 324 311 302 308 C 272 304 287 282 317 285 L 487 303 Q 493 303 493 300 Q 495 298 495 293 L 487 251 C 481 222 500 214 518 238 Z" fill="black"></path>
				<path d="M 327 204 L 342 203 Q 351 201 377 206 L 442 212 Q 468 214 483 217 Q 498 220 509 218 Q 521 216 525 218 Q 530 218 531 222 Q 531 226 527 230 L 518 238 C 503 252 503 252 487 251 L 461 250 L 428 246 Q 386 238 378 238 Q 371 238 365 236 L 327 232 C 297 229 297 206 327 204 Z" fill="black"></path>
				<path d="M 260 140 L 226 148 Q 195 160 190 146 Q 188 140 196 132 Q 204 124 205 122 Q 215 116 224 78 L 245 -44 Q 247 -58 249 -65 Q 251 -73 261 -79 Q 271 -86 275 -71 L 279 -59 L 281 -28 L 273 54 L 263 120 C 260 140 260 140 260 140 Z" fill="red"></path>
				<path d="M 533 144 L 543 142 Q 547 140 549 138 L 550 126 L 549 92 L 543 54 L 533 17 L 525 -7 L 518 -23 C 510 -40 510 -40 514 -46 L 523 -59 Q 524 -64 531 -66 Q 546 -77 559 -56 L 571 -32 Q 597 48 615 98 L 623 112 Q 624 119 629 122 L 636 128 L 638 136 Q 638 149 602 167 Q 566 184 554 185 Q 542 185 527 180 L 476 169 Q 390 154 369 152 L 308 145 Q 281 140 260 140 C 230 139 233 119 263 120 L 295 121 L 371 128 L 427 134 L 470 139 Q 480 139 483 140 L 512 142 L 533 144 Z" fill="lightgray"></path>
				<path d="M 423 42 L 486 48 L 505 51 Q 529 56 530 62 Q 532 71 519 76 Q 506 80 493 80 L 425 70 L 379 64 L 355 62 Q 347 62 336 60 Q 325 58 313 57 Q 276 55 294 40 Q 306 29 324 30 L 379 37 L 423 42 Z" fill="lightgray"></path>
				<path d="M 417 -18 L 423 42 L 425 70 L 425 84 L 432 128 L 427 134 C 408 157 360 156 371 128 L 376 115 L 379 64 L 379 37 L 381 -21 C 382 -51 414 -48 417 -18 Z" fill="lightgray"></path>
				<path d="M 518 -23 L 508 -18 L 479 -14 L 460 -14 L 417 -18 L 381 -21 L 281 -28 C 251 -30 249 -59 279 -59 L 306 -59 Q 309 -60 337 -58 L 395 -53 Q 434 -51 455 -48 Q 479 -48 489 -46 L 514 -46 C 544 -46 545 -36 518 -23 Z" fill="lightgray"></path>
</g>
		<text x="40" y="140" font-size="128" fill="#999999">11</text></g>
		<g id="id2:id1:id1" transform="matrix(1.0,0,0,1.0,1024,0.0)">			<g stroke="lightgray" stroke-width="4" transform="scale(4, 4)"> <rect x="0" y="0" width="256" height="256" fill="white" stroke-width="4"/></g>
			<g transform="scale(0.92, -0.92) translate(60, -920)">					<path d="M 266 556 L 293 568 Q 296 570 321 578 L 373 593 L 415 602 L 491 622 Q 501 626 499 635 Q 497 644 485 642 L 411 634 L 363 626 L 291 618 Q 249 615 240 617 L 215 621 Q 205 623 205 615 Q 202 608 218 587 L 237 569 Q 247 556 266 556 Z" fill="black"></path>
				<path d="M 373 593 L 384 547 Q 386 539 392 530 Q 399 521 409 522 Q 417 526 417 551 L 415 602 L 411 634 L 409 686 L 413 703 L 409 711 Q 404 715 399 718 Q 331 742 327 724 Q 322 718 335 697 L 355 652 L 363 626 L 373 593 Z" fill="black"></path>
				<path d="M 623 647 L 527 638 Q 518 637 516 633 Q 514 627 520 622 Q 526 617 531 616 Q 535 612 541 609 L 552 604 Q 562 602 565 602 L 589 608 L 613 612 L 659 618 L 709 624 L 797 630 Q 806 630 818 634 Q 831 637 831 644 Q 831 650 825 656 Q 820 661 800 669 Q 780 676 768 676 L 676 657 L 623 647 Z" fill="black"></path>
				<path d="M 631 757 L 634 716 Q 623 654 623 647 L 613 612 L 607 588 Q 607 584 596 560 L 591 540 Q 588 533 593 527 Q 599 521 607 533 L 621 549 Q 655 606 659 618 L 676 657 L 691 684 Q 698 697 701 700 L 709 713 Q 720 722 708 734 Q 697 745 683 751 L 649 766 L 640 766 Q 636 766 631 757 Z" fill="black"></path>
				<path d="M 365 468 L 377 480 L 390 488 L 395 494 Q 401 507 361 528 Q 346 537 337 534 Q 326 535 329 520 Q 327 510 323 499 L 316 485 Q 309 471 285 442 Q 261 412 247 398 L 207 358 Q 201 353 201 347 Q 201 340 211 346 L 229 354 Q 235 355 247 364 L 279 386 Q 289 391 310 412 L 342 444 L 365 468 Z" fill="black"></path>
				<path d="M 660 512 L 613 501 L 545 488 Q 541 488 520 483 Q 499 478 432 473 L 365 468 C 335 466 312 445 342 444 L 388 443 Q 398 442 441 445 Q 484 448 539 457 Q 594 466 605 466 L 661 470 Q 695 476 715 471 Q 735 465 739 440 L 741 410 L 737 127 Q 737 70 726 8 Q 725 -20 716 -36 Q 710 -51 700 -53 Q 691 -56 672 -50 L 660 -47 Q 658 -45 647 -42 L 625 -32 Q 607 -25 607 -36 Q 607 -39 613 -45 L 629 -64 Q 646 -83 649 -88 L 672 -122 Q 676 -128 677 -132 Q 679 -136 683 -141 L 690 -150 L 697 -156 Q 701 -160 706 -161 Q 711 -162 724 -151 Q 739 -143 754 -116 Q 770 -89 778 -65 Q 787 -42 791 4 Q 798 53 799 102 L 802 360 L 804 400 Q 808 433 823 448 Q 829 456 829 461 Q 829 466 820 479 Q 811 491 787 506 Q 756 530 735 530 Q 728 530 697 522 Q 666 513 660 512 Z" fill="black"></path>
				<path d="M 512 408 Q 498 408 494 410 L 491 410 Q 480 410 454 404 Q 428 397 397 393 L 310 380 Q 297 378 297 374 Q 296 366 317 357 L 329 352 Q 335 346 354 350 Q 374 354 411 360 L 455 366 L 514 372 L 547 380 Q 550 384 550 389 Q 551 393 539 400 Q 535 400 524 404 Q 513 407 512 408 Z" fill="black"></path>
				<path d="M 302 308 L 289 310 L 275 314 Q 259 317 254 311 Q 250 304 259 298 L 272 289 Q 275 286 277 280 Q 281 277 283 269 L 297 212 Q 300 204 300 198 Q 304 192 311 190 Q 318 187 323 194 L 327 204 L 327 232 L 317 285 C 313 306 313 306 302 308 Z" fill="black"></path>
				<path d="M 518 238 L 554 288 Q 566 296 569 299 L 569 303 Q 561 315 549 322 L 529 334 Q 518 343 501 338 Q 484 332 463 330 L 411 322 L 357 316 Q 324 311 302 308 C 272 304 287 282 317 285 L 487 303 Q 493 303 493 300 Q 495 298 495 293 L 487 251 C 481 222 500 214 518 238 Z" fill="black"></path>
				<path d="M 327 204 L 342 203 Q 351 201 377 206 L 442 212 Q 468 214 483 217 Q 498 220 509 218 Q 521 216 525 218 Q 530 218 531 222 Q 531 226 527 230 L 518 238 C 503 252 503 252 487 251 L 461 250 L 428 246 Q 386 238 378 238 Q 371 238 365 236 L 327 232 C 297 229 297 206 327 204 Z" fill="black"></path>
				<path d="M 260 140 L 226 148 Q 195 160 190 146 Q 188 140 196 132 Q 204 124 205 122 Q 215 116 224 78 L 245 -44 Q 247 -58 249 -65 Q 251 -73 261 -79 Q 271 -86 275 -71 L 279 -59 L 281 -28 L 273 54 L 263 120 C 260 140 260 140 260 140 Z" fill="black"></path>
				<path d="M 533 144 L 543 142 Q 547 140 549 138 L 550 126 L 549 92 L 543 54 L 533 17 L 525 -7 L 518 -23 C 510 -40 510 -40 514 -46 L 523 -59 Q 524 -64 531 -66 Q 546 -77 559 -56 L 571 -32 Q 597 48 615 98 L 623 112 Q 624 119 629 122 L 636 128 L 638 136 Q 638 149 602 167 Q 566 184 554 185 Q 542 185 527 180 L 476 169 Q 390 154 369 152 L 308 145 Q 281 140 260 140 C 230 139 233 119 263 120 L 295 121 L 371 128 L 427 134 L 470 139 Q 480 139 483 140 L 512 142 L 533 144 Z" fill="red"></path>
				<path d="M 423 42 L 486 48 L 505 51 Q 529 56 530 62 Q 532 71 519 76 Q 506 80 493 80 L 425 70 L 379 64 L 355 62 Q 347 62 336 60 Q 325 58 313 57 Q 276 55 294 40 Q 306 29 324 30 L 379 37 L 423 42 Z" fill="lightgray"></path>
				<path d="M 417 -18 L 423 42 L 425 70 L 425 84 L 432 128 L 427 134 C 408 157 360 156 371 128 L 376 115 L 379 64 L 379 37 L 381 -21 C 382 -51 414 -48 417 -18 Z" fill="lightgray"></path>
				<path d="M 518 -23 L 508 -18 L 479 -14 L 460 -14 L 417 -18 L 381 -21 L 281 -28 C 251 -30 249 -59 279 -59 L 306 -59 Q 309 -60 337 -58 L 395 -53 Q 434 -51 455 -48 Q 479 -48 489 -46 L 514 -46 C 544 -46 545 -36 518 -23 Z" fill="lightgray"></path>
</g>
		<text x="40" y="140" font-size="128" fill="#999999">12</text></g>
		<g id="id2:id2:id2" transform="matrix(1.0,0,0,1.0,2048,0.0)">			<g stroke="lightgray" stroke-width="4" transform="scale(4, 4)"> <rect x="0" y="0" width="256" height="256" fill="white" stroke-width="4"/></g>
			<g transform="scale(0.92, -0.92) translate(60, -920)">					<path d="M 266 556 L 293 568 Q 296 570 321 578 L 373 593 L 415 602 L 491 622 Q 501 626 499 635 Q 497 644 485 642 L 411 634 L 363 626 L 291 618 Q 249 615 240 617 L 215 621 Q 205 623 205 615 Q 202 608 218 587 L 237 569 Q 247 556 266 556 Z" fill="black"></path>
				<path d="M 373 593 L 384 547 Q 386 539 392 530 Q 399 521 409 522 Q 417 526 417 551 L 415 602 L 411 634 L 409 686 L 413 703 L 409 711 Q 404 715 399 718 Q 331 742 327 724 Q 322 718 335 697 L 355 652 L 363 626 L 373 593 Z" fill="black"></path>
				<path d="M 623 647 L 527 638 Q 518 637 516 633 Q 514 627 520 622 Q 526 617 531 616 Q 535 612 541 609 L 552 604 Q 562 602 565 602 L 589 608 L 613 612 L 659 618 L 709 624 L 797 630 Q 806 630 818 634 Q 831 637 831 644 Q 831 650 825 656 Q 820 661 800 669 Q 780 676 768 676 L 676 657 L 623 647 Z" fill="black"></path>
				<path d="M 631 757 L 634 716 Q 623 654 623 647 L 613 612 L 607 588 Q 607 584 596 560 L 591 540 Q 588 533 593 527 Q 599 521 607 533 L 621 549 Q 655 606 659 618 L 676 657 L 691 684 Q 698 697 701 700 L 709 713 Q 720 722 708 734 Q 697 745 683 751 L 649 766 L 640 766 Q 636 766 631 757 Z" fill="black"></path>
				<path d="M 365 468 L 377 480 L 390 488 L 395 494 Q 401 507 361 528 Q 346 537 337 534 Q 326 535 329 520 Q 327 510 323 499 L 316 485 Q 309 471 285 442 Q 261 412 247 398 L 207 358 Q 201 353 201 347 Q 201 340 211 346 L 229 354 Q 235 355 247 364 L 279 386 Q 289 391 310 412 L 342 444 L 365 468 Z" fill="black"></path>
				<path d="M 660 512 L 613 501 L 545 488 Q 541 488 520 483 Q 499 478 432 473 L 365 468 C 335 466 312 445 342 444 L 388 443 Q 398 442 441 445 Q 484 448 539 457 Q 594 466 605 466 L 661 470 Q 695 476 715 471 Q 735 465 739 440 L 741 410 L 737 127 Q 737 70 726 8 Q 725 -20 716 -36 Q 710 -51 700 -53 Q 691 -56 672 -50 L 660 -47 Q 658 -45 647 -42 L 625 -32 Q 607 -25 607 -36 Q 607 -39 613 -45 L 629 -64 Q 646 -83 649 -88 L 672 -122 Q 676 -128 677 -132 Q 679 -136 683 -141 L 690 -150 L 697 -156 Q 701 -160 706 -161 Q 711 -162 724 -151 Q 739 -143 754 -116 Q 770 -89 778 -65 Q 787 -42 791 4 Q 798 53 799 102 L 802 360 L 804 400 Q 808 433 823 448 Q 829 456 829 461 Q 829 466 820 479 Q 811 491 787 506 Q 756 530 735 530 Q 728 530 697 522 Q 666 513 660 512 Z" fill="black"></path>
				<path d="M 512 408 Q 498 408 494 410 L 491 410 Q 480 410 454 404 Q 428 397 397 393 L 310 380 Q 297 378 297 374 Q 296 366 317 357 L 329 352 Q 335 346 354 350 Q 374 354 411 360 L 455 366 L 514 372 L 547 380 Q 550 384 550 389 Q 551 393 539 400 Q 535 400 524 404 Q 513 407 512 408 Z" fill="black"></path>
				<path d="M 302 308 L 289 310 L 275 314 Q 259 317 254 311 Q 250 304 259 298 L 272 289 Q 275 286 277 280 Q 281 277 283 269 L 297 212 Q 300 204 300 198 Q 304 192 311 190 Q 318 187 323 194 L 327 204 L 327 232 L 317 285 C 313 306 313 306 302 308 Z" fill="black"></path>
				<path d="M 518 238 L 554 288 Q 566 296 569 299 L 569 303 Q 561 315 549 322 L 529 334 Q 518 343 501 338 Q 484 332 463 330 L 411 322 L 357 316 Q 324 311 302 308 C 272 304 287 282 317 285 L 487 303 Q 493 303 493 300 Q 495 298 495 293 L 487 251 C 481 222 500 214 518 238 Z" fill="black"></path>
				<path d="M 327 204 L 342 203 Q 351 201 377 206 L 442 212 Q 468 214 483 217 Q 498 220 509 218 Q 521 216 525 218 Q 530 218 531 222 Q 531 226 527 230 L 518 238 C 503 252 503 252 487 251 L 461 250 L 428 246 Q 386 238 378 238 Q 371 238 365 236 L 327 232 C 297 229 297 206 327 204 Z" fill="black"></path>
				<path d="M 260 140 L 226 148 Q 195 160 190 146 Q 188 140 196 132 Q 204 124 205 122 Q 215 116 224 78 L 245 -44 Q 247 -58 249 -65 Q 251 -73 261 -79 Q 271 -86 275 -71 L 279 -59 L 281 -28 L 273 54 L 263 120 C 260 140 260 140 260 140 Z" fill="black"></path>
				<path d="M 533 144 L 543 142 Q 547 140 549 138 L 550 126 L 549 92 L 543 54 L 533 17 L 525 -7 L 518 -23 C 510 -40 510 -40 514 -46 L 523 -59 Q 524 -64 531 -66 Q 546 -77 559 -56 L 571 -32 Q 597 48 615 98 L 623 112 Q 624 119 629 122 L 636 128 L 638 136 Q 638 149 602 167 Q 566 184 554 185 Q 542 185 527 180 L 476 169 Q 390 154 369 152 L 308 145 Q 281 140 260 140 C 230 139 233 119 263 120 L 295 121 L 371 128 L 427 134 L 470 139 Q 480 139 483 140 L 512 142 L 533 144 Z" fill="black"></path>
				<path d="M 423 42 L 486 48 L 505 51 Q 529 56 530 62 Q 532 71 519 76 Q 506 80 493 80 L 425 70 L 379 64 L 355 62 Q 347 62 336 60 Q 325 58 313 57 Q 276 55 294 40 Q 306 29 324 30 L 379 37 L 423 42 Z" fill="red"></path>
				<path d="M 417 -18 L 423 42 L 425 70 L 425 84 L 432 128 L 427 134 C 408 157 360 156 371 128 L 376 115 L 379 64 L 379 37 L 381 -21 C 382 -51 414 -48 417 -18 Z" fill="lightgray"></path>
				<path d="M 518 -23 L 508 -18 L 479 -14 L 460 -14 L 417 -18 L 381 -21 L 281 -28 C 251 -30 249 -59 279 -59 L 306 -59 Q 309 -60 337 -58 L 395 -53 Q 434 -51 455 -48 Q 479 -48 489 -46 L 514 -46 C 544 -46 545 -36 518 -23 Z" fill="lightgray"></path>
</g>
		<text x="40" y="140" font-size="128" fill="#999999">13</text></g>
		<g id="id2:id3:id3" transform="matrix(1.0,0,0,1.0,3072,0.0)">			<g stroke="lightgray" stroke-width="4" transform="scale(4, 4)"> <rect x="0" y="0" width="256" height="256" fill="white" stroke-width="4"/></g>
			<g transform="scale(0.92, -0.92) translate(60, -920)">					<path d="M 266 556 L 293 568 Q 296 570 321 578 L 373 593 L 415 602 L 491 622 Q 501 626 499 635 Q 497 644 485 642 L 411 634 L 363 626 L 291 618 Q 249 615 240 617 L 215 621 Q 205 623 205 615 Q 202 608 218 587 L 237 569 Q 247 556 266 556 Z" fill="black"></path>
				<path d="M 373 593 L 384 547 Q 386 539 392 530 Q 399 521 409 522 Q 417 526 417 551 L 415 602 L 411 634 L 409 686 L 413 703 L 409 711 Q 404 715 399 718 Q 331 742 327 724 Q 322 718 335 697 L 355 652 L 363 626 L 373 593 Z" fill="black"></path>
				<path d="M 623 647 L 527 638 Q 518 637 516 633 Q 514 627 520 622 Q 526 617 531 616 Q 535 612 541 609 L 552 604 Q 562 602 565 602 L 589 608 L 613 612 L 659 618 L 709 624 L 797 630 Q 806 630 818 634 Q 831 637 831 644 Q 831 650 825 656 Q 820 661 800 669 Q 780 676 768 676 L 676 657 L 623 647 Z" fill="black"></path>
				<path d="M 631 757 L 634 716 Q 623 654 623 647 L 613 612 L 607 588 Q 607 584 596 560 L 591 540 Q 588 533 593 527 Q 599 521 607 533 L 621 549 Q 655 606 659 618 L 676 657 L 691 684 Q 698 697 701 700 L 709 713 Q 720 722 708 734 Q 697 745 683 751 L 649 766 L 640 766 Q 636 766 631 757 Z" fill="black"></path>
				<path d="M 365 468 L 377 480 L 390 488 L 395 494 Q 401 507 361 528 Q 346 537 337 534 Q 326 535 329 520 Q 327 510 323 499 L 316 485 Q 309 471 285 442 Q 261 412 247 398 L 207 358 Q 201 353 201 347 Q 201 340 211 346 L 229 354 Q 235 355 247 364 L 279 386 Q 289 391 310 412 L 342 444 L 365 468 Z" fill="black"></path>
				<path d="M 660 512 L 613 501 L 545 488 Q 541 488 520 483 Q 499 478 432 473 L 365 468 C 335 466 312 445 342 444 L 388 443 Q 398 442 441 445 Q 484 448 539 457 Q 594 466 605 466 L 661 470 Q 695 476 715 471 Q 735 465 739 440 L 741 410 L 737 127 Q 737 70 726 8 Q 725 -20 716 -36 Q 710 -51 700 -53 Q 691 -56 672 -50 L 660 -47 Q 658 -45 647 -42 L 625 -32 Q 607 -25 607 -36 Q 607 -39 613 -45 L 629 -64 Q 646 -83 649 -88 L 672 -122 Q 676 -128 677 -132 Q 679 -136 683 -141 L 690 -150 L 697 -156 Q 701 -160 706 -161 Q 711 -162 724 -151 Q 739 -143 754 -116 Q 770 -89 778 -65 Q 787 -42 791 4 Q 798 53 799 102 L 802 360 L 804 400 Q 808 433 823 448 Q 829 456 829 461 Q 829 466 820 479 Q 811 491 787 506 Q 756 530 735 530 Q 728 530 697 522 Q 666 513 660 512 Z" fill="black"></path>
				<path d="M 512 408 Q 498 408 494 410 L 491 410 Q 480 410 454 404 Q 428 397 397 393 L 310 380 Q 297 378 297 374 Q 296 366 317 357 L 329 352 Q 335 346 354 350 Q 374 354 411 360 L 455 366 L 514 372 L 547 380 Q 550 384 550 389 Q 551 393 539 400 Q 535 400 524 404 Q 513 407 512 408 Z" fill="black"></path>
				<path d="M 302 308 L 289 310 L 275 314 Q 259 317 254 311 Q 250 304 259 298 L 272 289 Q 275 286 277 280 Q 281 277 283 269 L 297 212 Q 300 204 300 198 Q 304 192 311 190 Q 318 187 323 194 L 327 204 L 327 232 L 317 285 C 313 306 313 306 302 308 Z" fill="black"></path>
				<path d="M 518 238 L 554 288 Q 566 296 569 299 L 569 303 Q 561 315 549 322 L 529 334 Q 518 343 501 338 Q 484 332 463 330 L 411 322 L 357 316 Q 324 311 302 308 C 272 304 287 282 317 285 L 487 303 Q 493 303 493 300 Q 495 298 495 293 L 487 251 C 481 222 500 214 518 238 Z" fill="black"></path>
				<path d="M 327 204 L 342 203 Q 351 201 377 206 L 442 212 Q 468 214 483 217 Q 498 220 509 218 Q 521 216 525 218 Q 530 218 531 222 Q 531 226 527 230 L 518 238 C 503 252 503 252 487 251 L 461 250 L 428 246 Q 386 238 378 238 Q 371 238 365 236 L 327 232 C 297 229 297 206 327 204 Z" fill="black"></path>
				<path d="M 260 140 L 226 148 Q 195 160 190 146 Q 188 140 196 132 Q 204 124 205 122 Q 215 116 224 78 L 245 -44 Q 247 -58 249 -65 Q 251 -73 261 -79 Q 271 -86 275 -71 L 279 -59 L 281 -28 L 273 54 L 263 120 C 260 140 260 140 260 140 Z" fill="black"></path>
				<path d="M 533 144 L 543 142 Q 547 140 549 138 L 550 126 L 549 92 L 543 54 L 533 17 L 525 -7 L 518 -23 C 510 -40 510 -40 514 -46 L 523 -59 Q 524 -64 531 -66 Q 546 -77 559 -56 L 571 -32 Q 597 48 615 98 L 623 112 Q 624 119 629 122 L 636 128 L 638 136 Q 638 149 602 167 Q 566 184 554 185 Q 542 185 527 180 L 476 169 Q 390 154 369 152 L 308 145 Q 281 140 260 140 C 230 139 233 119 263 120 L 295 121 L 371 128 L 427 134 L 470 139 Q 480 139 483 140 L 512 142 L 533 144 Z" fill="black"></path>
				<path d="M 423 42 L 486 48 L 505 51 Q 529 56 530 62 Q 532 71 519 76 Q 506 80 493 80 L 425 70 L 379 64 L 355 62 Q 347 62 336 60 Q 325 58 313 57 Q 276 55 294 40 Q 306 29 324 30 L 379 37 L 423 42 Z" fill="black"></path>
				<path d="M 417 -18 L 423 42 L 425 70 L 425 84 L 432 128 L 427 134 C 408 157 360 156 371 128 L 376 115 L 379 64 L 379 37 L 381 -21 C 382 -51 414 -48 417 -18 Z" fill="red"></path>
				<path d="M 518 -23 L 508 -18 L 479 -14 L 460 -14 L 417 -18 L 381 -21 L 281 -28 C 251 -30 249 -59 279 -59 L 306 -59 Q 309 -60 337 -58 L 395 -53 Q 434 -51 455 -48 Q 479 -48 489 -46 L 514 -46 C 544 -46 545 -36 518 -23 Z" fill="lightgray"></path>
</g>
		<text x="40" y="140" font-size="128" fill="#999999">14</text></g>
		<g id="id2:id4:id4" transform="matrix(1.0,0,0,1.0,4096,0.0)">			<g stroke="lightgray" stroke-width="4" transform="scale(4, 4)"> <rect x="0" y="0" width="256" height="256" fill="white" stroke-width="4"/></g>
			<g transform="scale(0.92, -0.92) translate(60, -920)">					<path d="M 266 556 L 293 568 Q 296 570 321 578 L 373 593 L 415 602 L 491 622 Q 501 626 499 635 Q 497 644 485 642 L 411 634 L 363 626 L 291 618 Q 249 615 240 617 L 215 621 Q 205 623 205 615 Q 202 608 218 587 L 237 569 Q 247 556 266 556 Z" fill="black"></path>
				<path d="M 373 593 L 384 547 Q 386 539 392 530 Q 399 521 409 522 Q 417 526 417 551 L 415 602 L 411 634 L 409 686 L 413 703 L 409 711 Q 404 715 399 718 Q 331 742 327 724 Q 322 718 335 697 L 355 652 L 363 626 L 373 593 Z" fill="black"></path>
				<path d="M 623 647 L 527 638 Q 518 637 516 633 Q 514 627 520 622 Q 526 617 531 616 Q 535 612 541 609 L 552 604 Q 562 602 565 602 L 589 608 L 613 612 L 659 618 L 709 624 L 797 630 Q 806 630 818 634 Q 831 637 831 644 Q 831 650 825 656 Q 820 661 800 669 Q 780 676 768 676 L 676 657 L 623 647 Z" fill="black"></path>
				<path d="M 631 757 L 634 716 Q 623 654 623 647 L 613 612 L 607 588 Q 607 584 596 560 L 591 540 Q 588 533 593 527 Q 599 521 607 533 L 621 549 Q 655 606 659 618 L 676 657 L 691 684 Q 698 697 701 700 L 709 713 Q 720 722 708 734 Q 697 745 683 751 L 649 766 L 640 766 Q 636 766 631 757 Z" fill="black"></path>
				<path d="M 365 468 L 377 480 L 390 488 L 395 494 Q 401 507 361 528 Q 346 537 337 534 Q 326 535 329 520 Q 327 510 323 499 L 316 485 Q 309 471 285 442 Q 261 412 247 398 L 207 358 Q 201 353 201 347 Q 201 340 211 346 L 229 354 Q 235 355 247 364 L 279 386 Q 289 391 310 412 L 342 444 L 365 468 Z" fill="black"></path>
				<path d="M 660 512 L 613 501 L 545 488 Q 541 488 520 483 Q 499 478 432 473 L 365 468 C 335 466 312 445 342 444 L 388 443 Q 398 442 441 445 Q 484 448 539 457 Q 594 466 605 466 L 661 470 Q 695 476 715 471 Q 735 465 739 440 L 741 410 L 737 127 Q 737 70 726 8 Q 725 -20 716 -36 Q 710 -51 700 -53 Q 691 -56 672 -50 L 660 -47 Q 658 -45 647 -42 L 625 -32 Q 607 -25 607 -36 Q 607 -39 613 -45 L 629 -64 Q 646 -83 649 -88 L 672 -122 Q 676 -128 677 -132 Q 679 -136 683 -141 L 690 -150 L 697 -156 Q 701 -160 706 -161 Q 711 -162 724 -151 Q 739 -143 754 -116 Q 770 -89 778 -65 Q 787 -42 791 4 Q 798 53 799 102 L 802 360 L 804 400 Q 808 433 823 448 Q 829 456 829 461 Q 829 466 820 479 Q 811 491 787 506 Q 756 530 735 530 Q 728 530 697 522 Q 666 513 660 512 Z" fill="black"></path>
				<path d="M 512 408 Q 498 408 494 410 L 491 410 Q 480 410 454 404 Q 428 397 397 393 L 310 380 Q 297 378 297 374 Q 296 366 317 357 L 329 352 Q 335 346 354 350 Q 374 354 411 360 L 455 366 L 514 372 L 547 380 Q 550 384 550 389 Q 551 393 539 400 Q 535 400 524 404 Q 513 407 512 408 Z" fill="black"></path>
				<path d="M 302 308 L 289 310 L 275 314 Q 259 317 254 311 Q 250 304 259 298 L 272 289 Q 275 286 277 280 Q 281 277 283 269 L 297 212 Q 300 204 300 198 Q 304 192 311 190 Q 318 187 323 194 L 327 204 L 327 232 L 317 285 C 313 306 313 306 302 308 Z" fill="black"></path>
				<path d="M 518 238 L 554 288 Q 566 296 569 299 L 569 303 Q 561 315 549 322 L 529 334 Q 518 343 501 338 Q 484 332 463 330 L 411 322 L 357 316 Q 324 311 302 308 C 272 304 287 282 317 285 L 487 303 Q 493 303 493 300 Q 495 298 495 293 L 487 251 C 481 222 500 214 518 238 Z" fill="black"></path>
				<path d="M 327 204 L 342 203 Q 351 201 377 206 L 442 212 Q 468 214 483 217 Q 498 220 509 218 Q 521 216 525 218 Q 530 218 531 222 Q 531 226 527 230 L 518 238 C 503 252 503 252 487 251 L 461 250 L 428 246 Q 386 238 378 238 Q 371 238 365 236 L 327 232 C 297 229 297 206 327 204 Z" fill="black"></path>
				<path d="M 260 140 L 226 148 Q 195 160 190 146 Q 188 140 196 132 Q 204 124 205 122 Q 215 116 224 78 L 245 -44 Q 247 -58 249 -65 Q 251 -73 261 -79 Q 271 -86 275 -71 L 279 -59 L 281 -28 L 273 54 L 263 120 C 260 140 260 140 260 140 Z" fill="black"></path>
				<path d="M 533 144 L 543 142 Q 547 140 549 138 L 550 126 L 549 92 L 543 54 L 533 17 L 525 -7 L 518 -23 C 510 -40 510 -40 514 -46 L 523 -59 Q 524 -64 531 -66 Q 546 -77 559 -56 L 571 -32 Q 597 48 615 98 L 623 112 Q 624 119 629 122 L 636 128 L 638 136 Q 638 149 602 167 Q 566 184 554 185 Q 542 185 527 180 L 476 169 Q 390 154 369 152 L 308 145 Q 281 140 260 140 C 230 139 233 119 263 120 L 295 121 L 371 128 L 427 134 L 470 139 Q 480 139 483 140 L 512 142 L 533 144 Z" fill="black"></path>
				<path d="M 423 42 L 486 48 L 505 51 Q 529 56 530 62 Q 532 71 519 76 Q 506 80 493 80 L 425 70 L 379 64 L 355 62 Q 347 62 336 60 Q 325 58 313 57 Q 276 55 294 40 Q 306 29 324 30 L 379 37 L 423 42 Z" fill="black"></path>
				<path d="M 417 -18 L 423 42 L 425 70 L 425 84 L 432 128 L 427 134 C 408 157 360 156 371 128 L 376 115 L 379 64 L 379 37 L 381 -21 C 382 -51 414 -48 417 -18 Z" fill="black"></path>
				<path d="M 518 -23 L 508 -18 L 479 -14 L 460 -14 L 417 -18 L 381 -21 L 281 -28 C 251 -30 249 -59 279 -59 L 306 -59 Q 309 -60 337 -58 L 395 -53 Q 434 -51 455 -48 Q 479 -48 489 -46 L 514 -46 C 544 -46 545 -36 518 -23 Z" fill="red"></path>
</g>
		<text x="40" y="140" font-size="128" fill="#999999">15</text></g>
</g>
</svg>
