<?xml version="1.0" standalone="no"?>
<!DOCTYPE svg PUBLIC "-//W3C//DTD SVG 1.1//EN"
 "http://www.w3.org/Graphics/SVG/1.1/DTD/svg11.dtd">
<!-- generate by Japanese dictionary app com.asnsami.kanjidictionary -->

<svg xmlns="http://www.w3.org/2000/svg" xmlns:sodipodi="http://sodipodi.sourceforge.net/DTD/sodipodi-0.dtd" version="1.1" width="640" height="384" viewBox="0 0 5120 3072">
	<g id="id0:id0" transform="translate(0.0,0)">
		<g id="id0:id0:id0" transform="matrix(1.0,0,0,1.0,0,0.0)">			<g stroke="lightgray" stroke-width="4" transform="scale(4, 4)"> <rect x="0" y="0" width="256" height="256" fill="white" stroke-width="4"/></g>
			<g transform="scale(0.92, -0.92) translate(60, -920)">					<path d="M 613 634 Q 739 646 849 635 Q 865 634 870 643 Q 876 655 862 670 Q 811 715 730 693 Q 682 687 632 678 L 579 671 L 421 652 L 375 647 Q 281 640 176 630 Q 146 627 167 611 Q 209 584 283 595 Q 332 608 382 614 L 423 620 Q 492 627 570 632 L 613 634 Z" fill="red"></path>
				<path d="M 421 652 Q 420 682 420 705 Q 421 724 403 730 Q 361 749 344 743 Q 326 736 341 716 Q 366 686 374 652 Q 374 651 375 647 L 382 614 Q 394 571 404 559 Q 417 549 421 560 Q 422 566 423 620 L 421 652 Z" fill="lightgray"></path>
				<path d="M 632 678 Q 633 679 634 682 Q 641 701 656 724 Q 669 737 660 748 Q 648 764 616 780 Q 601 789 585 780 Q 575 774 582 764 Q 594 737 579 671 L 570 632 Q 557 593 559 571 Q 560 558 575 568 Q 587 578 613 634 L 632 678 Z" fill="lightgray"></path>
				<path d="M 315 492 Q 336 473 358 451 Q 370 441 383 441 Q 393 441 397 453 Q 401 466 394 491 Q 385 515 311 534 Q 298 537 292 535 Q 288 531 289 520 Q 292 510 315 492 Z" fill="lightgray"></path>
				<path d="M 209 445 Q 230 394 228 338 Q 229 122 192 10 Q 174 -42 208 -87 Q 220 -102 230 -87 Q 264 -50 266 83 Q 272 333 286 411 Q 289 430 273 440 Q 249 459 222 469 Q 212 472 205 463 Q 201 456 209 445 Z" fill="lightgray"></path>
				<path d="M 506 527 Q 490 528 494 517 Q 501 504 525 493 Q 537 484 596 498 Q 722 537 742 506 Q 769 439 761 61 L 759 -2 Q 759 -38 746 -47 Q 730 -57 653 -38 Q 637 -35 638 -45 Q 639 -52 652 -58 Q 721 -104 756 -141 Q 778 -160 790 -157 Q 803 -154 813 -125 Q 829 -80 827 -14 Q 799 454 821 495 Q 833 517 822 529 Q 812 545 763 569 Q 744 578 724 573 Q 696 563 636 549 Q 573 536 506 527 Z" fill="lightgray"></path>
				<path d="M 380 266 Q 407 296 438 337 Q 453 359 466 371 Q 473 378 470 387 Q 467 396 449 412 Q 431 425 419 426 Q 406 425 411 410 Q 430 365 293 209 Q 286 202 285 198 Q 282 191 291 192 Q 310 195 361 246 L 380 266 Z" fill="lightgray"></path>
				<path d="M 411 53 Q 412 174 417 203 Q 426 236 382 265 Q 381 266 380 266 C 355 282 349 273 361 246 Q 397 174 360 24 Q 350 -6 375 -42 Q 376 -43 379 -47 Q 392 -59 401 -39 Q 410 -12 411 34 L 411 53 Z" fill="lightgray"></path>
				<path d="M 506 410 Q 548 364 565 361 Q 575 361 580 375 Q 581 385 573 401 Q 566 413 548 418 Q 521 430 510 431 Q 503 432 502 424 Q 501 417 506 410 Z" fill="lightgray"></path>
				<path d="M 561 296 Q 598 305 641 312 Q 666 318 671 321 Q 678 328 674 335 Q 668 344 645 350 Q 621 354 597 345 Q 567 336 536 328 Q 500 321 459 318 Q 429 314 450 299 Q 480 283 525 290 L 561 296 Z" fill="lightgray"></path>
				<path d="M 581 209 Q 600 215 620 218 Q 639 222 643 226 Q 649 230 646 237 Q 642 244 622 249 Q 603 252 584 244 Q 583 244 583 243 C 577 240 565 237 536 230 Q 508 223 476 220 Q 452 216 470 205 Q 500 193 532 199 Q 533 200 536 199 L 581 209 Z" fill="lightgray"></path>
				<path d="M 577 130 Q 644 145 647 146 Q 653 150 650 157 Q 646 164 627 169 Q 609 173 579 163 L 536 151 Q 506 147 473 144 Q 449 140 466 129 Q 493 114 531 122 L 537 122 L 577 130 Z" fill="lightgray"></path>
				<path d="M 575 71 Q 576 102 577 130 L 579 163 Q 579 188 581 209 L 583 243 Q 587 271 582 278 Q 572 288 561 296 C 537 314 514 318 525 290 Q 531 281 536 230 L 536 199 L 536 151 L 537 122 Q 537 97 538 64 C 539 34 574 41 575 71 Z" fill="lightgray"></path>
				<path d="M 538 64 Q 412 55 411 53 C 389 49 389 49 411 34 Q 436 13 483 19 Q 567 31 694 43 Q 704 42 712 52 Q 713 62 693 73 Q 671 95 584 73 Q 580 73 575 71 L 538 64 Z" fill="lightgray"></path>
</g>
		<text x="40" y="140" font-size="128" fill="#999999">1</text></g>
		<g id="id0:id1:id1" transform="matrix(1.0,0,0,1.0,1024,0.0)">			<g stroke="lightgray" stroke-width="4" transform="scale(4, 4)"> <rect x="0" y="0" width="256" height="256" fill="white" stroke-width="4"/></g>
			<g transform="scale(0.92, -0.92) translate(60, -920)">					<path d="M 613 634 Q 739 646 849 635 Q 865 634 870 643 Q 876 655 862 670 Q 811 715 730 693 Q 682 687 632 678 L 579 671 L 421 652 L 375 647 Q 281 640 176 630 Q 146 627 167 611 Q 209 584 283 595 Q 332 608 382 614 L 423 620 Q 492 627 570 632 L 613 634 Z" fill="black"></path>
				<path d="M 421 652 Q 420 682 420 705 Q 421 724 403 730 Q 361 749 344 743 Q 326 736 341 716 Q 366 686 374 652 Q 374 651 375 647 L 382 614 Q 394 571 404 559 Q 417 549 421 560 Q 422 566 423 620 L 421 652 Z" fill="red"></path>
				<path d="M 632 678 Q 633 679 634 682 Q 641 701 656 724 Q 669 737 660 748 Q 648 764 616 780 Q 601 789 585 780 Q 575 774 582 764 Q 594 737 579 671 L 570 632 Q 557 593 559 571 Q 560 558 575 568 Q 587 578 613 634 L 632 678 Z" fill="lightgray"></path>
				<path d="M 315 492 Q 336 473 358 451 Q 370 441 383 441 Q 393 441 397 453 Q 401 466 394 491 Q 385 515 311 534 Q 298 537 292 535 Q 288 531 289 520 Q 292 510 315 492 Z" fill="lightgray"></path>
				<path d="M 209 445 Q 230 394 228 338 Q 229 122 192 10 Q 174 -42 208 -87 Q 220 -102 230 -87 Q 264 -50 266 83 Q 272 333 286 411 Q 289 430 273 440 Q 249 459 222 469 Q 212 472 205 463 Q 201 456 209 445 Z" fill="lightgray"></path>
				<path d="M 506 527 Q 490 528 494 517 Q 501 504 525 493 Q 537 484 596 498 Q 722 537 742 506 Q 769 439 761 61 L 759 -2 Q 759 -38 746 -47 Q 730 -57 653 -38 Q 637 -35 638 -45 Q 639 -52 652 -58 Q 721 -104 756 -141 Q 778 -160 790 -157 Q 803 -154 813 -125 Q 829 -80 827 -14 Q 799 454 821 495 Q 833 517 822 529 Q 812 545 763 569 Q 744 578 724 573 Q 696 563 636 549 Q 573 536 506 527 Z" fill="lightgray"></path>
				<path d="M 380 266 Q 407 296 438 337 Q 453 359 466 371 Q 473 378 470 387 Q 467 396 449 412 Q 431 425 419 426 Q 406 425 411 410 Q 430 365 293 209 Q 286 202 285 198 Q 282 191 291 192 Q 310 195 361 246 L 380 266 Z" fill="lightgray"></path>
				<path d="M 411 53 Q 412 174 417 203 Q 426 236 382 265 Q 381 266 380 266 C 355 282 349 273 361 246 Q 397 174 360 24 Q 350 -6 375 -42 Q 376 -43 379 -47 Q 392 -59 401 -39 Q 410 -12 411 34 L 411 53 Z" fill="lightgray"></path>
				<path d="M 506 410 Q 548 364 565 361 Q 575 361 580 375 Q 581 385 573 401 Q 566 413 548 418 Q 521 430 510 431 Q 503 432 502 424 Q 501 417 506 410 Z" fill="lightgray"></path>
				<path d="M 561 296 Q 598 305 641 312 Q 666 318 671 321 Q 678 328 674 335 Q 668 344 645 350 Q 621 354 597 345 Q 567 336 536 328 Q 500 321 459 318 Q 429 314 450 299 Q 480 283 525 290 L 561 296 Z" fill="lightgray"></path>
				<path d="M 581 209 Q 600 215 620 218 Q 639 222 643 226 Q 649 230 646 237 Q 642 244 622 249 Q 603 252 584 244 Q 583 244 583 243 C 577 240 565 237 536 230 Q 508 223 476 220 Q 452 216 470 205 Q 500 193 532 199 Q 533 200 536 199 L 581 209 Z" fill="lightgray"></path>
				<path d="M 577 130 Q 644 145 647 146 Q 653 150 650 157 Q 646 164 627 169 Q 609 173 579 163 L 536 151 Q 506 147 473 144 Q 449 140 466 129 Q 493 114 531 122 L 537 122 L 577 130 Z" fill="lightgray"></path>
				<path d="M 575 71 Q 576 102 577 130 L 579 163 Q 579 188 581 209 L 583 243 Q 587 271 582 278 Q 572 288 561 296 C 537 314 514 318 525 290 Q 531 281 536 230 L 536 199 L 536 151 L 537 122 Q 537 97 538 64 C 539 34 574 41 575 71 Z" fill="lightgray"></path>
				<path d="M 538 64 Q 412 55 411 53 C 389 49 389 49 411 34 Q 436 13 483 19 Q 567 31 694 43 Q 704 42 712 52 Q 713 62 693 73 Q 671 95 584 73 Q 580 73 575 71 L 538 64 Z" fill="lightgray"></path>
</g>
		<text x="40" y="140" font-size="128" fill="#999999">2</text></g>
		<g id="id0:id2:id2" transform="matrix(1.0,0,0,1.0,2048,0.0)">			<g stroke="lightgray" stroke-width="4" transform="scale(4, 4)"> <rect x="0" y="0" width="256" height="256" fill="white" stroke-width="4"/></g>
			<g transform="scale(0.92, -0.92) translate(60, -920)">					<path d="M 613 634 Q 739 646 849 635 Q 865 634 870 643 Q 876 655 862 670 Q 811 715 730 693 Q 682 687 632 678 L 579 671 L 421 652 L 375 647 Q 281 640 176 630 Q 146 627 167 611 Q 209 584 283 595 Q 332 608 382 614 L 423 620 Q 492 627 570 632 L 613 634 Z" fill="black"></path>
				<path d="M 421 652 Q 420 682 420 705 Q 421 724 403 730 Q 361 749 344 743 Q 326 736 341 716 Q 366 686 374 652 Q 374 651 375 647 L 382 614 Q 394 571 404 559 Q 417 549 421 560 Q 422 566 423 620 L 421 652 Z" fill="black"></path>
				<path d="M 632 678 Q 633 679 634 682 Q 641 701 656 724 Q 669 737 660 748 Q 648 764 616 780 Q 601 789 585 780 Q 575 774 582 764 Q 594 737 579 671 L 570 632 Q 557 593 559 571 Q 560 558 575 568 Q 587 578 613 634 L 632 678 Z" fill="red"></path>
				<path d="M 315 492 Q 336 473 358 451 Q 370 441 383 441 Q 393 441 397 453 Q 401 466 394 491 Q 385 515 311 534 Q 298 537 292 535 Q 288 531 289 520 Q 292 510 315 492 Z" fill="lightgray"></path>
				<path d="M 209 445 Q 230 394 228 338 Q 229 122 192 10 Q 174 -42 208 -87 Q 220 -102 230 -87 Q 264 -50 266 83 Q 272 333 286 411 Q 289 430 273 440 Q 249 459 222 469 Q 212 472 205 463 Q 201 456 209 445 Z" fill="lightgray"></path>
				<path d="M 506 527 Q 490 528 494 517 Q 501 504 525 493 Q 537 484 596 498 Q 722 537 742 506 Q 769 439 761 61 L 759 -2 Q 759 -38 746 -47 Q 730 -57 653 -38 Q 637 -35 638 -45 Q 639 -52 652 -58 Q 721 -104 756 -141 Q 778 -160 790 -157 Q 803 -154 813 -125 Q 829 -80 827 -14 Q 799 454 821 495 Q 833 517 822 529 Q 812 545 763 569 Q 744 578 724 573 Q 696 563 636 549 Q 573 536 506 527 Z" fill="lightgray"></path>
				<path d="M 380 266 Q 407 296 438 337 Q 453 359 466 371 Q 473 378 470 387 Q 467 396 449 412 Q 431 425 419 426 Q 406 425 411 410 Q 430 365 293 209 Q 286 202 285 198 Q 282 191 291 192 Q 310 195 361 246 L 380 266 Z" fill="lightgray"></path>
				<path d="M 411 53 Q 412 174 417 203 Q 426 236 382 265 Q 381 266 380 266 C 355 282 349 273 361 246 Q 397 174 360 24 Q 350 -6 375 -42 Q 376 -43 379 -47 Q 392 -59 401 -39 Q 410 -12 411 34 L 411 53 Z" fill="lightgray"></path>
				<path d="M 506 410 Q 548 364 565 361 Q 575 361 580 375 Q 581 385 573 401 Q 566 413 548 418 Q 521 430 510 431 Q 503 432 502 424 Q 501 417 506 410 Z" fill="lightgray"></path>
				<path d="M 561 296 Q 598 305 641 312 Q 666 318 671 321 Q 678 328 674 335 Q 668 344 645 350 Q 621 354 597 345 Q 567 336 536 328 Q 500 321 459 318 Q 429 314 450 299 Q 480 283 525 290 L 561 296 Z" fill="lightgray"></path>
				<path d="M 581 209 Q 600 215 620 218 Q 639 222 643 226 Q 649 230 646 237 Q 642 244 622 249 Q 603 252 584 244 Q 583 244 583 243 C 577 240 565 237 536 230 Q 508 223 476 220 Q 452 216 470 205 Q 500 193 532 199 Q 533 200 536 199 L 581 209 Z" fill="lightgray"></path>
				<path d="M 577 130 Q 644 145 647 146 Q 653 150 650 157 Q 646 164 627 169 Q 609 173 579 163 L 536 151 Q 506 147 473 144 Q 449 140 466 129 Q 493 114 531 122 L 537 122 L 577 130 Z" fill="lightgray"></path>
				<path d="M 575 71 Q 576 102 577 130 L 579 163 Q 579 188 581 209 L 583 243 Q 587 271 582 278 Q 572 288 561 296 C 537 314 514 318 525 290 Q 531 281 536 230 L 536 199 L 536 151 L 537 122 Q 537 97 538 64 C 539 34 574 41 575 71 Z" fill="lightgray"></path>
				<path d="M 538 64 Q 412 55 411 53 C 389 49 389 49 411 34 Q 436 13 483 19 Q 567 31 694 43 Q 704 42 712 52 Q 713 62 693 73 Q 671 95 584 73 Q 580 73 575 71 L 538 64 Z" fill="lightgray"></path>
</g>
		<text x="40" y="140" font-size="128" fill="#999999">3</text></g>
		<g id="id0:id3:id3" transform="matrix(1.0,0,0,1.0,3072,0.0)">			<g stroke="lightgray" stroke-width="4" transform="scale(4, 4)"> <rect x="0" y="0" width="256" height="256" fill="white" stroke-width="4"/></g>
			<g transform="scale(0.92, -0.92) translate(60, -920)">					<path d="M 613 634 Q 739 646 849 635 Q 865 634 870 643 Q 876 655 862 670 Q 811 715 730 693 Q 682 687 632 678 L 579 671 L 421 652 L 375 647 Q 281 640 176 630 Q 146 627 167 611 Q 209 584 283 595 Q 332 608 382 614 L 423 620 Q 492 627 570 632 L 613 634 Z" fill="black"></path>
				<path d="M 421 652 Q 420 682 420 705 Q 421 724 403 730 Q 361 749 344 743 Q 326 736 341 716 Q 366 686 374 652 Q 374 651 375 647 L 382 614 Q 394 571 404 559 Q 417 549 421 560 Q 422 566 423 620 L 421 652 Z" fill="black"></path>
				<path d="M 632 678 Q 633 679 634 682 Q 641 701 656 724 Q 669 737 660 748 Q 648 764 616 780 Q 601 789 585 780 Q 575 774 582 764 Q 594 737 579 671 L 570 632 Q 557 593 559 571 Q 560 558 575 568 Q 587 578 613 634 L 632 678 Z" fill="black"></path>
				<path d="M 315 492 Q 336 473 358 451 Q 370 441 383 441 Q 393 441 397 453 Q 401 466 394 491 Q 385 515 311 534 Q 298 537 292 535 Q 288 531 289 520 Q 292 510 315 492 Z" fill="red"></path>
				<path d="M 209 445 Q 230 394 228 338 Q 229 122 192 10 Q 174 -42 208 -87 Q 220 -102 230 -87 Q 264 -50 266 83 Q 272 333 286 411 Q 289 430 273 440 Q 249 459 222 469 Q 212 472 205 463 Q 201 456 209 445 Z" fill="lightgray"></path>
				<path d="M 506 527 Q 490 528 494 517 Q 501 504 525 493 Q 537 484 596 498 Q 722 537 742 506 Q 769 439 761 61 L 759 -2 Q 759 -38 746 -47 Q 730 -57 653 -38 Q 637 -35 638 -45 Q 639 -52 652 -58 Q 721 -104 756 -141 Q 778 -160 790 -157 Q 803 -154 813 -125 Q 829 -80 827 -14 Q 799 454 821 495 Q 833 517 822 529 Q 812 545 763 569 Q 744 578 724 573 Q 696 563 636 549 Q 573 536 506 527 Z" fill="lightgray"></path>
				<path d="M 380 266 Q 407 296 438 337 Q 453 359 466 371 Q 473 378 470 387 Q 467 396 449 412 Q 431 425 419 426 Q 406 425 411 410 Q 430 365 293 209 Q 286 202 285 198 Q 282 191 291 192 Q 310 195 361 246 L 380 266 Z" fill="lightgray"></path>
				<path d="M 411 53 Q 412 174 417 203 Q 426 236 382 265 Q 381 266 380 266 C 355 282 349 273 361 246 Q 397 174 360 24 Q 350 -6 375 -42 Q 376 -43 379 -47 Q 392 -59 401 -39 Q 410 -12 411 34 L 411 53 Z" fill="lightgray"></path>
				<path d="M 506 410 Q 548 364 565 361 Q 575 361 580 375 Q 581 385 573 401 Q 566 413 548 418 Q 521 430 510 431 Q 503 432 502 424 Q 501 417 506 410 Z" fill="lightgray"></path>
				<path d="M 561 296 Q 598 305 641 312 Q 666 318 671 321 Q 678 328 674 335 Q 668 344 645 350 Q 621 354 597 345 Q 567 336 536 328 Q 500 321 459 318 Q 429 314 450 299 Q 480 283 525 290 L 561 296 Z" fill="lightgray"></path>
				<path d="M 581 209 Q 600 215 620 218 Q 639 222 643 226 Q 649 230 646 237 Q 642 244 622 249 Q 603 252 584 244 Q 583 244 583 243 C 577 240 565 237 536 230 Q 508 223 476 220 Q 452 216 470 205 Q 500 193 532 199 Q 533 200 536 199 L 581 209 Z" fill="lightgray"></path>
				<path d="M 577 130 Q 644 145 647 146 Q 653 150 650 157 Q 646 164 627 169 Q 609 173 579 163 L 536 151 Q 506 147 473 144 Q 449 140 466 129 Q 493 114 531 122 L 537 122 L 577 130 Z" fill="lightgray"></path>
				<path d="M 575 71 Q 576 102 577 130 L 579 163 Q 579 188 581 209 L 583 243 Q 587 271 582 278 Q 572 288 561 296 C 537 314 514 318 525 290 Q 531 281 536 230 L 536 199 L 536 151 L 537 122 Q 537 97 538 64 C 539 34 574 41 575 71 Z" fill="lightgray"></path>
				<path d="M 538 64 Q 412 55 411 53 C 389 49 389 49 411 34 Q 436 13 483 19 Q 567 31 694 43 Q 704 42 712 52 Q 713 62 693 73 Q 671 95 584 73 Q 580 73 575 71 L 538 64 Z" fill="lightgray"></path>
</g>
		<text x="40" y="140" font-size="128" fill="#999999">4</text></g>
		<g id="id0:id4:id4" transform="matrix(1.0,0,0,1.0,4096,0.0)">			<g stroke="lightgray" stroke-width="4" transform="scale(4, 4)"> <rect x="0" y="0" width="256" height="256" fill="white" stroke-width="4"/></g>
			<g transform="scale(0.92, -0.92) translate(60, -920)">					<path d="M 613 634 Q 739 646 849 635 Q 865 634 870 643 Q 876 655 862 670 Q 811 715 730 693 Q 682 687 632 678 L 579 671 L 421 652 L 375 647 Q 281 640 176 630 Q 146 627 167 611 Q 209 584 283 595 Q 332 608 382 614 L 423 620 Q 492 627 570 632 L 613 634 Z" fill="black"></path>
				<path d="M 421 652 Q 420 682 420 705 Q 421 724 403 730 Q 361 749 344 743 Q 326 736 341 716 Q 366 686 374 652 Q 374 651 375 647 L 382 614 Q 394 571 404 559 Q 417 549 421 560 Q 422 566 423 620 L 421 652 Z" fill="black"></path>
				<path d="M 632 678 Q 633 679 634 682 Q 641 701 656 724 Q 669 737 660 748 Q 648 764 616 780 Q 601 789 585 780 Q 575 774 582 764 Q 594 737 579 671 L 570 632 Q 557 593 559 571 Q 560 558 575 568 Q 587 578 613 634 L 632 678 Z" fill="black"></path>
				<path d="M 315 492 Q 336 473 358 451 Q 370 441 383 441 Q 393 441 397 453 Q 401 466 394 491 Q 385 515 311 534 Q 298 537 292 535 Q 288 531 289 520 Q 292 510 315 492 Z" fill="black"></path>
				<path d="M 209 445 Q 230 394 228 338 Q 229 122 192 10 Q 174 -42 208 -87 Q 220 -102 230 -87 Q 264 -50 266 83 Q 272 333 286 411 Q 289 430 273 440 Q 249 459 222 469 Q 212 472 205 463 Q 201 456 209 445 Z" fill="red"></path>
				<path d="M 506 527 Q 490 528 494 517 Q 501 504 525 493 Q 537 484 596 498 Q 722 537 742 506 Q 769 439 761 61 L 759 -2 Q 759 -38 746 -47 Q 730 -57 653 -38 Q 637 -35 638 -45 Q 639 -52 652 -58 Q 721 -104 756 -141 Q 778 -160 790 -157 Q 803 -154 813 -125 Q 829 -80 827 -14 Q 799 454 821 495 Q 833 517 822 529 Q 812 545 763 569 Q 744 578 724 573 Q 696 563 636 549 Q 573 536 506 527 Z" fill="lightgray"></path>
				<path d="M 380 266 Q 407 296 438 337 Q 453 359 466 371 Q 473 378 470 387 Q 467 396 449 412 Q 431 425 419 426 Q 406 425 411 410 Q 430 365 293 209 Q 286 202 285 198 Q 282 191 291 192 Q 310 195 361 246 L 380 266 Z" fill="lightgray"></path>
				<path d="M 411 53 Q 412 174 417 203 Q 426 236 382 265 Q 381 266 380 266 C 355 282 349 273 361 246 Q 397 174 360 24 Q 350 -6 375 -42 Q 376 -43 379 -47 Q 392 -59 401 -39 Q 410 -12 411 34 L 411 53 Z" fill="lightgray"></path>
				<path d="M 506 410 Q 548 364 565 361 Q 575 361 580 375 Q 581 385 573 401 Q 566 413 548 418 Q 521 430 510 431 Q 503 432 502 424 Q 501 417 506 410 Z" fill="lightgray"></path>
				<path d="M 561 296 Q 598 305 641 312 Q 666 318 671 321 Q 678 328 674 335 Q 668 344 645 350 Q 621 354 597 345 Q 567 336 536 328 Q 500 321 459 318 Q 429 314 450 299 Q 480 283 525 290 L 561 296 Z" fill="lightgray"></path>
				<path d="M 581 209 Q 600 215 620 218 Q 639 222 643 226 Q 649 230 646 237 Q 642 244 622 249 Q 603 252 584 244 Q 583 244 583 243 C 577 240 565 237 536 230 Q 508 223 476 220 Q 452 216 470 205 Q 500 193 532 199 Q 533 200 536 199 L 581 209 Z" fill="lightgray"></path>
				<path d="M 577 130 Q 644 145 647 146 Q 653 150 650 157 Q 646 164 627 169 Q 609 173 579 163 L 536 151 Q 506 147 473 144 Q 449 140 466 129 Q 493 114 531 122 L 537 122 L 577 130 Z" fill="lightgray"></path>
				<path d="M 575 71 Q 576 102 577 130 L 579 163 Q 579 188 581 209 L 583 243 Q 587 271 582 278 Q 572 288 561 296 C 537 314 514 318 525 290 Q 531 281 536 230 L 536 199 L 536 151 L 537 122 Q 537 97 538 64 C 539 34 574 41 575 71 Z" fill="lightgray"></path>
				<path d="M 538 64 Q 412 55 411 53 C 389 49 389 49 411 34 Q 436 13 483 19 Q 567 31 694 43 Q 704 42 712 52 Q 713 62 693 73 Q 671 95 584 73 Q 580 73 575 71 L 538 64 Z" fill="lightgray"></path>
</g>
		<text x="40" y="140" font-size="128" fill="#999999">5</text></g>
</g>
	<g id="id1:id1" transform="translate(0.0,1024)">
		<g id="id1:id0:id0" transform="matrix(1.0,0,0,1.0,0,0.0)">			<g stroke="lightgray" stroke-width="4" transform="scale(4, 4)"> <rect x="0" y="0" width="256" height="256" fill="white" stroke-width="4"/></g>
			<g transform="scale(0.92, -0.92) translate(60, -920)">					<path d="M 613 634 Q 739 646 849 635 Q 865 634 870 643 Q 876 655 862 670 Q 811 715 730 693 Q 682 687 632 678 L 579 671 L 421 652 L 375 647 Q 281 640 176 630 Q 146 627 167 611 Q 209 584 283 595 Q 332 608 382 614 L 423 620 Q 492 627 570 632 L 613 634 Z" fill="black"></path>
				<path d="M 421 652 Q 420 682 420 705 Q 421 724 403 730 Q 361 749 344 743 Q 326 736 341 716 Q 366 686 374 652 Q 374 651 375 647 L 382 614 Q 394 571 404 559 Q 417 549 421 560 Q 422 566 423 620 L 421 652 Z" fill="black"></path>
				<path d="M 632 678 Q 633 679 634 682 Q 641 701 656 724 Q 669 737 660 748 Q 648 764 616 780 Q 601 789 585 780 Q 575 774 582 764 Q 594 737 579 671 L 570 632 Q 557 593 559 571 Q 560 558 575 568 Q 587 578 613 634 L 632 678 Z" fill="black"></path>
				<path d="M 315 492 Q 336 473 358 451 Q 370 441 383 441 Q 393 441 397 453 Q 401 466 394 491 Q 385 515 311 534 Q 298 537 292 535 Q 288 531 289 520 Q 292 510 315 492 Z" fill="black"></path>
				<path d="M 209 445 Q 230 394 228 338 Q 229 122 192 10 Q 174 -42 208 -87 Q 220 -102 230 -87 Q 264 -50 266 83 Q 272 333 286 411 Q 289 430 273 440 Q 249 459 222 469 Q 212 472 205 463 Q 201 456 209 445 Z" fill="black"></path>
				<path d="M 506 527 Q 490 528 494 517 Q 501 504 525 493 Q 537 484 596 498 Q 722 537 742 506 Q 769 439 761 61 L 759 -2 Q 759 -38 746 -47 Q 730 -57 653 -38 Q 637 -35 638 -45 Q 639 -52 652 -58 Q 721 -104 756 -141 Q 778 -160 790 -157 Q 803 -154 813 -125 Q 829 -80 827 -14 Q 799 454 821 495 Q 833 517 822 529 Q 812 545 763 569 Q 744 578 724 573 Q 696 563 636 549 Q 573 536 506 527 Z" fill="red"></path>
				<path d="M 380 266 Q 407 296 438 337 Q 453 359 466 371 Q 473 378 470 387 Q 467 396 449 412 Q 431 425 419 426 Q 406 425 411 410 Q 430 365 293 209 Q 286 202 285 198 Q 282 191 291 192 Q 310 195 361 246 L 380 266 Z" fill="lightgray"></path>
				<path d="M 411 53 Q 412 174 417 203 Q 426 236 382 265 Q 381 266 380 266 C 355 282 349 273 361 246 Q 397 174 360 24 Q 350 -6 375 -42 Q 376 -43 379 -47 Q 392 -59 401 -39 Q 410 -12 411 34 L 411 53 Z" fill="lightgray"></path>
				<path d="M 506 410 Q 548 364 565 361 Q 575 361 580 375 Q 581 385 573 401 Q 566 413 548 418 Q 521 430 510 431 Q 503 432 502 424 Q 501 417 506 410 Z" fill="lightgray"></path>
				<path d="M 561 296 Q 598 305 641 312 Q 666 318 671 321 Q 678 328 674 335 Q 668 344 645 350 Q 621 354 597 345 Q 567 336 536 328 Q 500 321 459 318 Q 429 314 450 299 Q 480 283 525 290 L 561 296 Z" fill="lightgray"></path>
				<path d="M 581 209 Q 600 215 620 218 Q 639 222 643 226 Q 649 230 646 237 Q 642 244 622 249 Q 603 252 584 244 Q 583 244 583 243 C 577 240 565 237 536 230 Q 508 223 476 220 Q 452 216 470 205 Q 500 193 532 199 Q 533 200 536 199 L 581 209 Z" fill="lightgray"></path>
				<path d="M 577 130 Q 644 145 647 146 Q 653 150 650 157 Q 646 164 627 169 Q 609 173 579 163 L 536 151 Q 506 147 473 144 Q 449 140 466 129 Q 493 114 531 122 L 537 122 L 577 130 Z" fill="lightgray"></path>
				<path d="M 575 71 Q 576 102 577 130 L 579 163 Q 579 188 581 209 L 583 243 Q 587 271 582 278 Q 572 288 561 296 C 537 314 514 318 525 290 Q 531 281 536 230 L 536 199 L 536 151 L 537 122 Q 537 97 538 64 C 539 34 574 41 575 71 Z" fill="lightgray"></path>
				<path d="M 538 64 Q 412 55 411 53 C 389 49 389 49 411 34 Q 436 13 483 19 Q 567 31 694 43 Q 704 42 712 52 Q 713 62 693 73 Q 671 95 584 73 Q 580 73 575 71 L 538 64 Z" fill="lightgray"></path>
</g>
		<text x="40" y="140" font-size="128" fill="#999999">6</text></g>
		<g id="id1:id1:id1" transform="matrix(1.0,0,0,1.0,1024,0.0)">			<g stroke="lightgray" stroke-width="4" transform="scale(4, 4)"> <rect x="0" y="0" width="256" height="256" fill="white" stroke-width="4"/></g>
			<g transform="scale(0.92, -0.92) translate(60, -920)">					<path d="M 613 634 Q 739 646 849 635 Q 865 634 870 643 Q 876 655 862 670 Q 811 715 730 693 Q 682 687 632 678 L 579 671 L 421 652 L 375 647 Q 281 640 176 630 Q 146 627 167 611 Q 209 584 283 595 Q 332 608 382 614 L 423 620 Q 492 627 570 632 L 613 634 Z" fill="black"></path>
				<path d="M 421 652 Q 420 682 420 705 Q 421 724 403 730 Q 361 749 344 743 Q 326 736 341 716 Q 366 686 374 652 Q 374 651 375 647 L 382 614 Q 394 571 404 559 Q 417 549 421 560 Q 422 566 423 620 L 421 652 Z" fill="black"></path>
				<path d="M 632 678 Q 633 679 634 682 Q 641 701 656 724 Q 669 737 660 748 Q 648 764 616 780 Q 601 789 585 780 Q 575 774 582 764 Q 594 737 579 671 L 570 632 Q 557 593 559 571 Q 560 558 575 568 Q 587 578 613 634 L 632 678 Z" fill="black"></path>
				<path d="M 315 492 Q 336 473 358 451 Q 370 441 383 441 Q 393 441 397 453 Q 401 466 394 491 Q 385 515 311 534 Q 298 537 292 535 Q 288 531 289 520 Q 292 510 315 492 Z" fill="black"></path>
				<path d="M 209 445 Q 230 394 228 338 Q 229 122 192 10 Q 174 -42 208 -87 Q 220 -102 230 -87 Q 264 -50 266 83 Q 272 333 286 411 Q 289 430 273 440 Q 249 459 222 469 Q 212 472 205 463 Q 201 456 209 445 Z" fill="black"></path>
				<path d="M 506 527 Q 490 528 494 517 Q 501 504 525 493 Q 537 484 596 498 Q 722 537 742 506 Q 769 439 761 61 L 759 -2 Q 759 -38 746 -47 Q 730 -57 653 -38 Q 637 -35 638 -45 Q 639 -52 652 -58 Q 721 -104 756 -141 Q 778 -160 790 -157 Q 803 -154 813 -125 Q 829 -80 827 -14 Q 799 454 821 495 Q 833 517 822 529 Q 812 545 763 569 Q 744 578 724 573 Q 696 563 636 549 Q 573 536 506 527 Z" fill="black"></path>
				<path d="M 380 266 Q 407 296 438 337 Q 453 359 466 371 Q 473 378 470 387 Q 467 396 449 412 Q 431 425 419 426 Q 406 425 411 410 Q 430 365 293 209 Q 286 202 285 198 Q 282 191 291 192 Q 310 195 361 246 L 380 266 Z" fill="red"></path>
				<path d="M 411 53 Q 412 174 417 203 Q 426 236 382 265 Q 381 266 380 266 C 355 282 349 273 361 246 Q 397 174 360 24 Q 350 -6 375 -42 Q 376 -43 379 -47 Q 392 -59 401 -39 Q 410 -12 411 34 L 411 53 Z" fill="lightgray"></path>
				<path d="M 506 410 Q 548 364 565 361 Q 575 361 580 375 Q 581 385 573 401 Q 566 413 548 418 Q 521 430 510 431 Q 503 432 502 424 Q 501 417 506 410 Z" fill="lightgray"></path>
				<path d="M 561 296 Q 598 305 641 312 Q 666 318 671 321 Q 678 328 674 335 Q 668 344 645 350 Q 621 354 597 345 Q 567 336 536 328 Q 500 321 459 318 Q 429 314 450 299 Q 480 283 525 290 L 561 296 Z" fill="lightgray"></path>
				<path d="M 581 209 Q 600 215 620 218 Q 639 222 643 226 Q 649 230 646 237 Q 642 244 622 249 Q 603 252 584 244 Q 583 244 583 243 C 577 240 565 237 536 230 Q 508 223 476 220 Q 452 216 470 205 Q 500 193 532 199 Q 533 200 536 199 L 581 209 Z" fill="lightgray"></path>
				<path d="M 577 130 Q 644 145 647 146 Q 653 150 650 157 Q 646 164 627 169 Q 609 173 579 163 L 536 151 Q 506 147 473 144 Q 449 140 466 129 Q 493 114 531 122 L 537 122 L 577 130 Z" fill="lightgray"></path>
				<path d="M 575 71 Q 576 102 577 130 L 579 163 Q 579 188 581 209 L 583 243 Q 587 271 582 278 Q 572 288 561 296 C 537 314 514 318 525 290 Q 531 281 536 230 L 536 199 L 536 151 L 537 122 Q 537 97 538 64 C 539 34 574 41 575 71 Z" fill="lightgray"></path>
				<path d="M 538 64 Q 412 55 411 53 C 389 49 389 49 411 34 Q 436 13 483 19 Q 567 31 694 43 Q 704 42 712 52 Q 713 62 693 73 Q 671 95 584 73 Q 580 73 575 71 L 538 64 Z" fill="lightgray"></path>
</g>
		<text x="40" y="140" font-size="128" fill="#999999">7</text></g>
		<g id="id1:id2:id2" transform="matrix(1.0,0,0,1.0,2048,0.0)">			<g stroke="lightgray" stroke-width="4" transform="scale(4, 4)"> <rect x="0" y="0" width="256" height="256" fill="white" stroke-width="4"/></g>
			<g transform="scale(0.92, -0.92) translate(60, -920)">					<path d="M 613 634 Q 739 646 849 635 Q 865 634 870 643 Q 876 655 862 670 Q 811 715 730 693 Q 682 687 632 678 L 579 671 L 421 652 L 375 647 Q 281 640 176 630 Q 146 627 167 611 Q 209 584 283 595 Q 332 608 382 614 L 423 620 Q 492 627 570 632 L 613 634 Z" fill="black"></path>
				<path d="M 421 652 Q 420 682 420 705 Q 421 724 403 730 Q 361 749 344 743 Q 326 736 341 716 Q 366 686 374 652 Q 374 651 375 647 L 382 614 Q 394 571 404 559 Q 417 549 421 560 Q 422 566 423 620 L 421 652 Z" fill="black"></path>
				<path d="M 632 678 Q 633 679 634 682 Q 641 701 656 724 Q 669 737 660 748 Q 648 764 616 780 Q 601 789 585 780 Q 575 774 582 764 Q 594 737 579 671 L 570 632 Q 557 593 559 571 Q 560 558 575 568 Q 587 578 613 634 L 632 678 Z" fill="black"></path>
				<path d="M 315 492 Q 336 473 358 451 Q 370 441 383 441 Q 393 441 397 453 Q 401 466 394 491 Q 385 515 311 534 Q 298 537 292 535 Q 288 531 289 520 Q 292 510 315 492 Z" fill="black"></path>
				<path d="M 209 445 Q 230 394 228 338 Q 229 122 192 10 Q 174 -42 208 -87 Q 220 -102 230 -87 Q 264 -50 266 83 Q 272 333 286 411 Q 289 430 273 440 Q 249 459 222 469 Q 212 472 205 463 Q 201 456 209 445 Z" fill="black"></path>
				<path d="M 506 527 Q 490 528 494 517 Q 501 504 525 493 Q 537 484 596 498 Q 722 537 742 506 Q 769 439 761 61 L 759 -2 Q 759 -38 746 -47 Q 730 -57 653 -38 Q 637 -35 638 -45 Q 639 -52 652 -58 Q 721 -104 756 -141 Q 778 -160 790 -157 Q 803 -154 813 -125 Q 829 -80 827 -14 Q 799 454 821 495 Q 833 517 822 529 Q 812 545 763 569 Q 744 578 724 573 Q 696 563 636 549 Q 573 536 506 527 Z" fill="black"></path>
				<path d="M 380 266 Q 407 296 438 337 Q 453 359 466 371 Q 473 378 470 387 Q 467 396 449 412 Q 431 425 419 426 Q 406 425 411 410 Q 430 365 293 209 Q 286 202 285 198 Q 282 191 291 192 Q 310 195 361 246 L 380 266 Z" fill="black"></path>
				<path d="M 411 53 Q 412 174 417 203 Q 426 236 382 265 Q 381 266 380 266 C 355 282 349 273 361 246 Q 397 174 360 24 Q 350 -6 375 -42 Q 376 -43 379 -47 Q 392 -59 401 -39 Q 410 -12 411 34 L 411 53 Z" fill="red"></path>
				<path d="M 506 410 Q 548 364 565 361 Q 575 361 580 375 Q 581 385 573 401 Q 566 413 548 418 Q 521 430 510 431 Q 503 432 502 424 Q 501 417 506 410 Z" fill="lightgray"></path>
				<path d="M 561 296 Q 598 305 641 312 Q 666 318 671 321 Q 678 328 674 335 Q 668 344 645 350 Q 621 354 597 345 Q 567 336 536 328 Q 500 321 459 318 Q 429 314 450 299 Q 480 283 525 290 L 561 296 Z" fill="lightgray"></path>
				<path d="M 581 209 Q 600 215 620 218 Q 639 222 643 226 Q 649 230 646 237 Q 642 244 622 249 Q 603 252 584 244 Q 583 244 583 243 C 577 240 565 237 536 230 Q 508 223 476 220 Q 452 216 470 205 Q 500 193 532 199 Q 533 200 536 199 L 581 209 Z" fill="lightgray"></path>
				<path d="M 577 130 Q 644 145 647 146 Q 653 150 650 157 Q 646 164 627 169 Q 609 173 579 163 L 536 151 Q 506 147 473 144 Q 449 140 466 129 Q 493 114 531 122 L 537 122 L 577 130 Z" fill="lightgray"></path>
				<path d="M 575 71 Q 576 102 577 130 L 579 163 Q 579 188 581 209 L 583 243 Q 587 271 582 278 Q 572 288 561 296 C 537 314 514 318 525 290 Q 531 281 536 230 L 536 199 L 536 151 L 537 122 Q 537 97 538 64 C 539 34 574 41 575 71 Z" fill="lightgray"></path>
				<path d="M 538 64 Q 412 55 411 53 C 389 49 389 49 411 34 Q 436 13 483 19 Q 567 31 694 43 Q 704 42 712 52 Q 713 62 693 73 Q 671 95 584 73 Q 580 73 575 71 L 538 64 Z" fill="lightgray"></path>
</g>
		<text x="40" y="140" font-size="128" fill="#999999">8</text></g>
		<g id="id1:id3:id3" transform="matrix(1.0,0,0,1.0,3072,0.0)">			<g stroke="lightgray" stroke-width="4" transform="scale(4, 4)"> <rect x="0" y="0" width="256" height="256" fill="white" stroke-width="4"/></g>
			<g transform="scale(0.92, -0.92) translate(60, -920)">					<path d="M 613 634 Q 739 646 849 635 Q 865 634 870 643 Q 876 655 862 670 Q 811 715 730 693 Q 682 687 632 678 L 579 671 L 421 652 L 375 647 Q 281 640 176 630 Q 146 627 167 611 Q 209 584 283 595 Q 332 608 382 614 L 423 620 Q 492 627 570 632 L 613 634 Z" fill="black"></path>
				<path d="M 421 652 Q 420 682 420 705 Q 421 724 403 730 Q 361 749 344 743 Q 326 736 341 716 Q 366 686 374 652 Q 374 651 375 647 L 382 614 Q 394 571 404 559 Q 417 549 421 560 Q 422 566 423 620 L 421 652 Z" fill="black"></path>
				<path d="M 632 678 Q 633 679 634 682 Q 641 701 656 724 Q 669 737 660 748 Q 648 764 616 780 Q 601 789 585 780 Q 575 774 582 764 Q 594 737 579 671 L 570 632 Q 557 593 559 571 Q 560 558 575 568 Q 587 578 613 634 L 632 678 Z" fill="black"></path>
				<path d="M 315 492 Q 336 473 358 451 Q 370 441 383 441 Q 393 441 397 453 Q 401 466 394 491 Q 385 515 311 534 Q 298 537 292 535 Q 288 531 289 520 Q 292 510 315 492 Z" fill="black"></path>
				<path d="M 209 445 Q 230 394 228 338 Q 229 122 192 10 Q 174 -42 208 -87 Q 220 -102 230 -87 Q 264 -50 266 83 Q 272 333 286 411 Q 289 430 273 440 Q 249 459 222 469 Q 212 472 205 463 Q 201 456 209 445 Z" fill="black"></path>
				<path d="M 506 527 Q 490 528 494 517 Q 501 504 525 493 Q 537 484 596 498 Q 722 537 742 506 Q 769 439 761 61 L 759 -2 Q 759 -38 746 -47 Q 730 -57 653 -38 Q 637 -35 638 -45 Q 639 -52 652 -58 Q 721 -104 756 -141 Q 778 -160 790 -157 Q 803 -154 813 -125 Q 829 -80 827 -14 Q 799 454 821 495 Q 833 517 822 529 Q 812 545 763 569 Q 744 578 724 573 Q 696 563 636 549 Q 573 536 506 527 Z" fill="black"></path>
				<path d="M 380 266 Q 407 296 438 337 Q 453 359 466 371 Q 473 378 470 387 Q 467 396 449 412 Q 431 425 419 426 Q 406 425 411 410 Q 430 365 293 209 Q 286 202 285 198 Q 282 191 291 192 Q 310 195 361 246 L 380 266 Z" fill="black"></path>
				<path d="M 411 53 Q 412 174 417 203 Q 426 236 382 265 Q 381 266 380 266 C 355 282 349 273 361 246 Q 397 174 360 24 Q 350 -6 375 -42 Q 376 -43 379 -47 Q 392 -59 401 -39 Q 410 -12 411 34 L 411 53 Z" fill="black"></path>
				<path d="M 506 410 Q 548 364 565 361 Q 575 361 580 375 Q 581 385 573 401 Q 566 413 548 418 Q 521 430 510 431 Q 503 432 502 424 Q 501 417 506 410 Z" fill="red"></path>
				<path d="M 561 296 Q 598 305 641 312 Q 666 318 671 321 Q 678 328 674 335 Q 668 344 645 350 Q 621 354 597 345 Q 567 336 536 328 Q 500 321 459 318 Q 429 314 450 299 Q 480 283 525 290 L 561 296 Z" fill="lightgray"></path>
				<path d="M 581 209 Q 600 215 620 218 Q 639 222 643 226 Q 649 230 646 237 Q 642 244 622 249 Q 603 252 584 244 Q 583 244 583 243 C 577 240 565 237 536 230 Q 508 223 476 220 Q 452 216 470 205 Q 500 193 532 199 Q 533 200 536 199 L 581 209 Z" fill="lightgray"></path>
				<path d="M 577 130 Q 644 145 647 146 Q 653 150 650 157 Q 646 164 627 169 Q 609 173 579 163 L 536 151 Q 506 147 473 144 Q 449 140 466 129 Q 493 114 531 122 L 537 122 L 577 130 Z" fill="lightgray"></path>
				<path d="M 575 71 Q 576 102 577 130 L 579 163 Q 579 188 581 209 L 583 243 Q 587 271 582 278 Q 572 288 561 296 C 537 314 514 318 525 290 Q 531 281 536 230 L 536 199 L 536 151 L 537 122 Q 537 97 538 64 C 539 34 574 41 575 71 Z" fill="lightgray"></path>
				<path d="M 538 64 Q 412 55 411 53 C 389 49 389 49 411 34 Q 436 13 483 19 Q 567 31 694 43 Q 704 42 712 52 Q 713 62 693 73 Q 671 95 584 73 Q 580 73 575 71 L 538 64 Z" fill="lightgray"></path>
</g>
		<text x="40" y="140" font-size="128" fill="#999999">9</text></g>
		<g id="id1:id4:id4" transform="matrix(1.0,0,0,1.0,4096,0.0)">			<g stroke="lightgray" stroke-width="4" transform="scale(4, 4)"> <rect x="0" y="0" width="256" height="256" fill="white" stroke-width="4"/></g>
			<g transform="scale(0.92, -0.92) translate(60, -920)">					<path d="M 613 634 Q 739 646 849 635 Q 865 634 870 643 Q 876 655 862 670 Q 811 715 730 693 Q 682 687 632 678 L 579 671 L 421 652 L 375 647 Q 281 640 176 630 Q 146 627 167 611 Q 209 584 283 595 Q 332 608 382 614 L 423 620 Q 492 627 570 632 L 613 634 Z" fill="black"></path>
				<path d="M 421 652 Q 420 682 420 705 Q 421 724 403 730 Q 361 749 344 743 Q 326 736 341 716 Q 366 686 374 652 Q 374 651 375 647 L 382 614 Q 394 571 404 559 Q 417 549 421 560 Q 422 566 423 620 L 421 652 Z" fill="black"></path>
				<path d="M 632 678 Q 633 679 634 682 Q 641 701 656 724 Q 669 737 660 748 Q 648 764 616 780 Q 601 789 585 780 Q 575 774 582 764 Q 594 737 579 671 L 570 632 Q 557 593 559 571 Q 560 558 575 568 Q 587 578 613 634 L 632 678 Z" fill="black"></path>
				<path d="M 315 492 Q 336 473 358 451 Q 370 441 383 441 Q 393 441 397 453 Q 401 466 394 491 Q 385 515 311 534 Q 298 537 292 535 Q 288 531 289 520 Q 292 510 315 492 Z" fill="black"></path>
				<path d="M 209 445 Q 230 394 228 338 Q 229 122 192 10 Q 174 -42 208 -87 Q 220 -102 230 -87 Q 264 -50 266 83 Q 272 333 286 411 Q 289 430 273 440 Q 249 459 222 469 Q 212 472 205 463 Q 201 456 209 445 Z" fill="black"></path>
				<path d="M 506 527 Q 490 528 494 517 Q 501 504 525 493 Q 537 484 596 498 Q 722 537 742 506 Q 769 439 761 61 L 759 -2 Q 759 -38 746 -47 Q 730 -57 653 -38 Q 637 -35 638 -45 Q 639 -52 652 -58 Q 721 -104 756 -141 Q 778 -160 790 -157 Q 803 -154 813 -125 Q 829 -80 827 -14 Q 799 454 821 495 Q 833 517 822 529 Q 812 545 763 569 Q 744 578 724 573 Q 696 563 636 549 Q 573 536 506 527 Z" fill="black"></path>
				<path d="M 380 266 Q 407 296 438 337 Q 453 359 466 371 Q 473 378 470 387 Q 467 396 449 412 Q 431 425 419 426 Q 406 425 411 410 Q 430 365 293 209 Q 286 202 285 198 Q 282 191 291 192 Q 310 195 361 246 L 380 266 Z" fill="black"></path>
				<path d="M 411 53 Q 412 174 417 203 Q 426 236 382 265 Q 381 266 380 266 C 355 282 349 273 361 246 Q 397 174 360 24 Q 350 -6 375 -42 Q 376 -43 379 -47 Q 392 -59 401 -39 Q 410 -12 411 34 L 411 53 Z" fill="black"></path>
				<path d="M 506 410 Q 548 364 565 361 Q 575 361 580 375 Q 581 385 573 401 Q 566 413 548 418 Q 521 430 510 431 Q 503 432 502 424 Q 501 417 506 410 Z" fill="black"></path>
				<path d="M 561 296 Q 598 305 641 312 Q 666 318 671 321 Q 678 328 674 335 Q 668 344 645 350 Q 621 354 597 345 Q 567 336 536 328 Q 500 321 459 318 Q 429 314 450 299 Q 480 283 525 290 L 561 296 Z" fill="red"></path>
				<path d="M 581 209 Q 600 215 620 218 Q 639 222 643 226 Q 649 230 646 237 Q 642 244 622 249 Q 603 252 584 244 Q 583 244 583 243 C 577 240 565 237 536 230 Q 508 223 476 220 Q 452 216 470 205 Q 500 193 532 199 Q 533 200 536 199 L 581 209 Z" fill="lightgray"></path>
				<path d="M 577 130 Q 644 145 647 146 Q 653 150 650 157 Q 646 164 627 169 Q 609 173 579 163 L 536 151 Q 506 147 473 144 Q 449 140 466 129 Q 493 114 531 122 L 537 122 L 577 130 Z" fill="lightgray"></path>
				<path d="M 575 71 Q 576 102 577 130 L 579 163 Q 579 188 581 209 L 583 243 Q 587 271 582 278 Q 572 288 561 296 C 537 314 514 318 525 290 Q 531 281 536 230 L 536 199 L 536 151 L 537 122 Q 537 97 538 64 C 539 34 574 41 575 71 Z" fill="lightgray"></path>
				<path d="M 538 64 Q 412 55 411 53 C 389 49 389 49 411 34 Q 436 13 483 19 Q 567 31 694 43 Q 704 42 712 52 Q 713 62 693 73 Q 671 95 584 73 Q 580 73 575 71 L 538 64 Z" fill="lightgray"></path>
</g>
		<text x="40" y="140" font-size="128" fill="#999999">10</text></g>
</g>
	<g id="id2:id2" transform="translate(0.0,2048)">
		<g id="id2:id0:id0" transform="matrix(1.0,0,0,1.0,0,0.0)">			<g stroke="lightgray" stroke-width="4" transform="scale(4, 4)"> <rect x="0" y="0" width="256" height="256" fill="white" stroke-width="4"/></g>
			<g transform="scale(0.92, -0.92) translate(60, -920)">					<path d="M 613 634 Q 739 646 849 635 Q 865 634 870 643 Q 876 655 862 670 Q 811 715 730 693 Q 682 687 632 678 L 579 671 L 421 652 L 375 647 Q 281 640 176 630 Q 146 627 167 611 Q 209 584 283 595 Q 332 608 382 614 L 423 620 Q 492 627 570 632 L 613 634 Z" fill="black"></path>
				<path d="M 421 652 Q 420 682 420 705 Q 421 724 403 730 Q 361 749 344 743 Q 326 736 341 716 Q 366 686 374 652 Q 374 651 375 647 L 382 614 Q 394 571 404 559 Q 417 549 421 560 Q 422 566 423 620 L 421 652 Z" fill="black"></path>
				<path d="M 632 678 Q 633 679 634 682 Q 641 701 656 724 Q 669 737 660 748 Q 648 764 616 780 Q 601 789 585 780 Q 575 774 582 764 Q 594 737 579 671 L 570 632 Q 557 593 559 571 Q 560 558 575 568 Q 587 578 613 634 L 632 678 Z" fill="black"></path>
				<path d="M 315 492 Q 336 473 358 451 Q 370 441 383 441 Q 393 441 397 453 Q 401 466 394 491 Q 385 515 311 534 Q 298 537 292 535 Q 288 531 289 520 Q 292 510 315 492 Z" fill="black"></path>
				<path d="M 209 445 Q 230 394 228 338 Q 229 122 192 10 Q 174 -42 208 -87 Q 220 -102 230 -87 Q 264 -50 266 83 Q 272 333 286 411 Q 289 430 273 440 Q 249 459 222 469 Q 212 472 205 463 Q 201 456 209 445 Z" fill="black"></path>
				<path d="M 506 527 Q 490 528 494 517 Q 501 504 525 493 Q 537 484 596 498 Q 722 537 742 506 Q 769 439 761 61 L 759 -2 Q 759 -38 746 -47 Q 730 -57 653 -38 Q 637 -35 638 -45 Q 639 -52 652 -58 Q 721 -104 756 -141 Q 778 -160 790 -157 Q 803 -154 813 -125 Q 829 -80 827 -14 Q 799 454 821 495 Q 833 517 822 529 Q 812 545 763 569 Q 744 578 724 573 Q 696 563 636 549 Q 573 536 506 527 Z" fill="black"></path>
				<path d="M 380 266 Q 407 296 438 337 Q 453 359 466 371 Q 473 378 470 387 Q 467 396 449 412 Q 431 425 419 426 Q 406 425 411 410 Q 430 365 293 209 Q 286 202 285 198 Q 282 191 291 192 Q 310 195 361 246 L 380 266 Z" fill="black"></path>
				<path d="M 411 53 Q 412 174 417 203 Q 426 236 382 265 Q 381 266 380 266 C 355 282 349 273 361 246 Q 397 174 360 24 Q 350 -6 375 -42 Q 376 -43 379 -47 Q 392 -59 401 -39 Q 410 -12 411 34 L 411 53 Z" fill="black"></path>
				<path d="M 506 410 Q 548 364 565 361 Q 575 361 580 375 Q 581 385 573 401 Q 566 413 548 418 Q 521 430 510 431 Q 503 432 502 424 Q 501 417 506 410 Z" fill="black"></path>
				<path d="M 561 296 Q 598 305 641 312 Q 666 318 671 321 Q 678 328 674 335 Q 668 344 645 350 Q 621 354 597 345 Q 567 336 536 328 Q 500 321 459 318 Q 429 314 450 299 Q 480 283 525 290 L 561 296 Z" fill="black"></path>
				<path d="M 581 209 Q 600 215 620 218 Q 639 222 643 226 Q 649 230 646 237 Q 642 244 622 249 Q 603 252 584 244 Q 583 244 583 243 C 577 240 565 237 536 230 Q 508 223 476 220 Q 452 216 470 205 Q 500 193 532 199 Q 533 200 536 199 L 581 209 Z" fill="red"></path>
				<path d="M 577 130 Q 644 145 647 146 Q 653 150 650 157 Q 646 164 627 169 Q 609 173 579 163 L 536 151 Q 506 147 473 144 Q 449 140 466 129 Q 493 114 531 122 L 537 122 L 577 130 Z" fill="lightgray"></path>
				<path d="M 575 71 Q 576 102 577 130 L 579 163 Q 579 188 581 209 L 583 243 Q 587 271 582 278 Q 572 288 561 296 C 537 314 514 318 525 290 Q 531 281 536 230 L 536 199 L 536 151 L 537 122 Q 537 97 538 64 C 539 34 574 41 575 71 Z" fill="lightgray"></path>
				<path d="M 538 64 Q 412 55 411 53 C 389 49 389 49 411 34 Q 436 13 483 19 Q 567 31 694 43 Q 704 42 712 52 Q 713 62 693 73 Q 671 95 584 73 Q 580 73 575 71 L 538 64 Z" fill="lightgray"></path>
</g>
		<text x="40" y="140" font-size="128" fill="#999999">11</text></g>
		<g id="id2:id1:id1" transform="matrix(1.0,0,0,1.0,1024,0.0)">			<g stroke="lightgray" stroke-width="4" transform="scale(4, 4)"> <rect x="0" y="0" width="256" height="256" fill="white" stroke-width="4"/></g>
			<g transform="scale(0.92, -0.92) translate(60, -920)">					<path d="M 613 634 Q 739 646 849 635 Q 865 634 870 643 Q 876 655 862 670 Q 811 715 730 693 Q 682 687 632 678 L 579 671 L 421 652 L 375 647 Q 281 640 176 630 Q 146 627 167 611 Q 209 584 283 595 Q 332 608 382 614 L 423 620 Q 492 627 570 632 L 613 634 Z" fill="black"></path>
				<path d="M 421 652 Q 420 682 420 705 Q 421 724 403 730 Q 361 749 344 743 Q 326 736 341 716 Q 366 686 374 652 Q 374 651 375 647 L 382 614 Q 394 571 404 559 Q 417 549 421 560 Q 422 566 423 620 L 421 652 Z" fill="black"></path>
				<path d="M 632 678 Q 633 679 634 682 Q 641 701 656 724 Q 669 737 660 748 Q 648 764 616 780 Q 601 789 585 780 Q 575 774 582 764 Q 594 737 579 671 L 570 632 Q 557 593 559 571 Q 560 558 575 568 Q 587 578 613 634 L 632 678 Z" fill="black"></path>
				<path d="M 315 492 Q 336 473 358 451 Q 370 441 383 441 Q 393 441 397 453 Q 401 466 394 491 Q 385 515 311 534 Q 298 537 292 535 Q 288 531 289 520 Q 292 510 315 492 Z" fill="black"></path>
				<path d="M 209 445 Q 230 394 228 338 Q 229 122 192 10 Q 174 -42 208 -87 Q 220 -102 230 -87 Q 264 -50 266 83 Q 272 333 286 411 Q 289 430 273 440 Q 249 459 222 469 Q 212 472 205 463 Q 201 456 209 445 Z" fill="black"></path>
				<path d="M 506 527 Q 490 528 494 517 Q 501 504 525 493 Q 537 484 596 498 Q 722 537 742 506 Q 769 439 761 61 L 759 -2 Q 759 -38 746 -47 Q 730 -57 653 -38 Q 637 -35 638 -45 Q 639 -52 652 -58 Q 721 -104 756 -141 Q 778 -160 790 -157 Q 803 -154 813 -125 Q 829 -80 827 -14 Q 799 454 821 495 Q 833 517 822 529 Q 812 545 763 569 Q 744 578 724 573 Q 696 563 636 549 Q 573 536 506 527 Z" fill="black"></path>
				<path d="M 380 266 Q 407 296 438 337 Q 453 359 466 371 Q 473 378 470 387 Q 467 396 449 412 Q 431 425 419 426 Q 406 425 411 410 Q 430 365 293 209 Q 286 202 285 198 Q 282 191 291 192 Q 310 195 361 246 L 380 266 Z" fill="black"></path>
				<path d="M 411 53 Q 412 174 417 203 Q 426 236 382 265 Q 381 266 380 266 C 355 282 349 273 361 246 Q 397 174 360 24 Q 350 -6 375 -42 Q 376 -43 379 -47 Q 392 -59 401 -39 Q 410 -12 411 34 L 411 53 Z" fill="black"></path>
				<path d="M 506 410 Q 548 364 565 361 Q 575 361 580 375 Q 581 385 573 401 Q 566 413 548 418 Q 521 430 510 431 Q 503 432 502 424 Q 501 417 506 410 Z" fill="black"></path>
				<path d="M 561 296 Q 598 305 641 312 Q 666 318 671 321 Q 678 328 674 335 Q 668 344 645 350 Q 621 354 597 345 Q 567 336 536 328 Q 500 321 459 318 Q 429 314 450 299 Q 480 283 525 290 L 561 296 Z" fill="black"></path>
				<path d="M 581 209 Q 600 215 620 218 Q 639 222 643 226 Q 649 230 646 237 Q 642 244 622 249 Q 603 252 584 244 Q 583 244 583 243 C 577 240 565 237 536 230 Q 508 223 476 220 Q 452 216 470 205 Q 500 193 532 199 Q 533 200 536 199 L 581 209 Z" fill="black"></path>
				<path d="M 577 130 Q 644 145 647 146 Q 653 150 650 157 Q 646 164 627 169 Q 609 173 579 163 L 536 151 Q 506 147 473 144 Q 449 140 466 129 Q 493 114 531 122 L 537 122 L 577 130 Z" fill="red"></path>
				<path d="M 575 71 Q 576 102 577 130 L 579 163 Q 579 188 581 209 L 583 243 Q 587 271 582 278 Q 572 288 561 296 C 537 314 514 318 525 290 Q 531 281 536 230 L 536 199 L 536 151 L 537 122 Q 537 97 538 64 C 539 34 574 41 575 71 Z" fill="lightgray"></path>
				<path d="M 538 64 Q 412 55 411 53 C 389 49 389 49 411 34 Q 436 13 483 19 Q 567 31 694 43 Q 704 42 712 52 Q 713 62 693 73 Q 671 95 584 73 Q 580 73 575 71 L 538 64 Z" fill="lightgray"></path>
</g>
		<text x="40" y="140" font-size="128" fill="#999999">12</text></g>
		<g id="id2:id2:id2" transform="matrix(1.0,0,0,1.0,2048,0.0)">			<g stroke="lightgray" stroke-width="4" transform="scale(4, 4)"> <rect x="0" y="0" width="256" height="256" fill="white" stroke-width="4"/></g>
			<g transform="scale(0.92, -0.92) translate(60, -920)">					<path d="M 613 634 Q 739 646 849 635 Q 865 634 870 643 Q 876 655 862 670 Q 811 715 730 693 Q 682 687 632 678 L 579 671 L 421 652 L 375 647 Q 281 640 176 630 Q 146 627 167 611 Q 209 584 283 595 Q 332 608 382 614 L 423 620 Q 492 627 570 632 L 613 634 Z" fill="black"></path>
				<path d="M 421 652 Q 420 682 420 705 Q 421 724 403 730 Q 361 749 344 743 Q 326 736 341 716 Q 366 686 374 652 Q 374 651 375 647 L 382 614 Q 394 571 404 559 Q 417 549 421 560 Q 422 566 423 620 L 421 652 Z" fill="black"></path>
				<path d="M 632 678 Q 633 679 634 682 Q 641 701 656 724 Q 669 737 660 748 Q 648 764 616 780 Q 601 789 585 780 Q 575 774 582 764 Q 594 737 579 671 L 570 632 Q 557 593 559 571 Q 560 558 575 568 Q 587 578 613 634 L 632 678 Z" fill="black"></path>
				<path d="M 315 492 Q 336 473 358 451 Q 370 441 383 441 Q 393 441 397 453 Q 401 466 394 491 Q 385 515 311 534 Q 298 537 292 535 Q 288 531 289 520 Q 292 510 315 492 Z" fill="black"></path>
				<path d="M 209 445 Q 230 394 228 338 Q 229 122 192 10 Q 174 -42 208 -87 Q 220 -102 230 -87 Q 264 -50 266 83 Q 272 333 286 411 Q 289 430 273 440 Q 249 459 222 469 Q 212 472 205 463 Q 201 456 209 445 Z" fill="black"></path>
				<path d="M 506 527 Q 490 528 494 517 Q 501 504 525 493 Q 537 484 596 498 Q 722 537 742 506 Q 769 439 761 61 L 759 -2 Q 759 -38 746 -47 Q 730 -57 653 -38 Q 637 -35 638 -45 Q 639 -52 652 -58 Q 721 -104 756 -141 Q 778 -160 790 -157 Q 803 -154 813 -125 Q 829 -80 827 -14 Q 799 454 821 495 Q 833 517 822 529 Q 812 545 763 569 Q 744 578 724 573 Q 696 563 636 549 Q 573 536 506 527 Z" fill="black"></path>
				<path d="M 380 266 Q 407 296 438 337 Q 453 359 466 371 Q 473 378 470 387 Q 467 396 449 412 Q 431 425 419 426 Q 406 425 411 410 Q 430 365 293 209 Q 286 202 285 198 Q 282 191 291 192 Q 310 195 361 246 L 380 266 Z" fill="black"></path>
				<path d="M 411 53 Q 412 174 417 203 Q 426 236 382 265 Q 381 266 380 266 C 355 282 349 273 361 246 Q 397 174 360 24 Q 350 -6 375 -42 Q 376 -43 379 -47 Q 392 -59 401 -39 Q 410 -12 411 34 L 411 53 Z" fill="black"></path>
				<path d="M 506 410 Q 548 364 565 361 Q 575 361 580 375 Q 581 385 573 401 Q 566 413 548 418 Q 521 430 510 431 Q 503 432 502 424 Q 501 417 506 410 Z" fill="black"></path>
				<path d="M 561 296 Q 598 305 641 312 Q 666 318 671 321 Q 678 328 674 335 Q 668 344 645 350 Q 621 354 597 345 Q 567 336 536 328 Q 500 321 459 318 Q 429 314 450 299 Q 480 283 525 290 L 561 296 Z" fill="black"></path>
				<path d="M 581 209 Q 600 215 620 218 Q 639 222 643 226 Q 649 230 646 237 Q 642 244 622 249 Q 603 252 584 244 Q 583 244 583 243 C 577 240 565 237 536 230 Q 508 223 476 220 Q 452 216 470 205 Q 500 193 532 199 Q 533 200 536 199 L 581 209 Z" fill="black"></path>
				<path d="M 577 130 Q 644 145 647 146 Q 653 150 650 157 Q 646 164 627 169 Q 609 173 579 163 L 536 151 Q 506 147 473 144 Q 449 140 466 129 Q 493 114 531 122 L 537 122 L 577 130 Z" fill="black"></path>
				<path d="M 575 71 Q 576 102 577 130 L 579 163 Q 579 188 581 209 L 583 243 Q 587 271 582 278 Q 572 288 561 296 C 537 314 514 318 525 290 Q 531 281 536 230 L 536 199 L 536 151 L 537 122 Q 537 97 538 64 C 539 34 574 41 575 71 Z" fill="red"></path>
				<path d="M 538 64 Q 412 55 411 53 C 389 49 389 49 411 34 Q 436 13 483 19 Q 567 31 694 43 Q 704 42 712 52 Q 713 62 693 73 Q 671 95 584 73 Q 580 73 575 71 L 538 64 Z" fill="lightgray"></path>
</g>
		<text x="40" y="140" font-size="128" fill="#999999">13</text></g>
		<g id="id2:id3:id3" transform="matrix(1.0,0,0,1.0,3072,0.0)">			<g stroke="lightgray" stroke-width="4" transform="scale(4, 4)"> <rect x="0" y="0" width="256" height="256" fill="white" stroke-width="4"/></g>
			<g transform="scale(0.92, -0.92) translate(60, -920)">					<path d="M 613 634 Q 739 646 849 635 Q 865 634 870 643 Q 876 655 862 670 Q 811 715 730 693 Q 682 687 632 678 L 579 671 L 421 652 L 375 647 Q 281 640 176 630 Q 146 627 167 611 Q 209 584 283 595 Q 332 608 382 614 L 423 620 Q 492 627 570 632 L 613 634 Z" fill="black"></path>
				<path d="M 421 652 Q 420 682 420 705 Q 421 724 403 730 Q 361 749 344 743 Q 326 736 341 716 Q 366 686 374 652 Q 374 651 375 647 L 382 614 Q 394 571 404 559 Q 417 549 421 560 Q 422 566 423 620 L 421 652 Z" fill="black"></path>
				<path d="M 632 678 Q 633 679 634 682 Q 641 701 656 724 Q 669 737 660 748 Q 648 764 616 780 Q 601 789 585 780 Q 575 774 582 764 Q 594 737 579 671 L 570 632 Q 557 593 559 571 Q 560 558 575 568 Q 587 578 613 634 L 632 678 Z" fill="black"></path>
				<path d="M 315 492 Q 336 473 358 451 Q 370 441 383 441 Q 393 441 397 453 Q 401 466 394 491 Q 385 515 311 534 Q 298 537 292 535 Q 288 531 289 520 Q 292 510 315 492 Z" fill="black"></path>
				<path d="M 209 445 Q 230 394 228 338 Q 229 122 192 10 Q 174 -42 208 -87 Q 220 -102 230 -87 Q 264 -50 266 83 Q 272 333 286 411 Q 289 430 273 440 Q 249 459 222 469 Q 212 472 205 463 Q 201 456 209 445 Z" fill="black"></path>
				<path d="M 506 527 Q 490 528 494 517 Q 501 504 525 493 Q 537 484 596 498 Q 722 537 742 506 Q 769 439 761 61 L 759 -2 Q 759 -38 746 -47 Q 730 -57 653 -38 Q 637 -35 638 -45 Q 639 -52 652 -58 Q 721 -104 756 -141 Q 778 -160 790 -157 Q 803 -154 813 -125 Q 829 -80 827 -14 Q 799 454 821 495 Q 833 517 822 529 Q 812 545 763 569 Q 744 578 724 573 Q 696 563 636 549 Q 573 536 506 527 Z" fill="black"></path>
				<path d="M 380 266 Q 407 296 438 337 Q 453 359 466 371 Q 473 378 470 387 Q 467 396 449 412 Q 431 425 419 426 Q 406 425 411 410 Q 430 365 293 209 Q 286 202 285 198 Q 282 191 291 192 Q 310 195 361 246 L 380 266 Z" fill="black"></path>
				<path d="M 411 53 Q 412 174 417 203 Q 426 236 382 265 Q 381 266 380 266 C 355 282 349 273 361 246 Q 397 174 360 24 Q 350 -6 375 -42 Q 376 -43 379 -47 Q 392 -59 401 -39 Q 410 -12 411 34 L 411 53 Z" fill="black"></path>
				<path d="M 506 410 Q 548 364 565 361 Q 575 361 580 375 Q 581 385 573 401 Q 566 413 548 418 Q 521 430 510 431 Q 503 432 502 424 Q 501 417 506 410 Z" fill="black"></path>
				<path d="M 561 296 Q 598 305 641 312 Q 666 318 671 321 Q 678 328 674 335 Q 668 344 645 350 Q 621 354 597 345 Q 567 336 536 328 Q 500 321 459 318 Q 429 314 450 299 Q 480 283 525 290 L 561 296 Z" fill="black"></path>
				<path d="M 581 209 Q 600 215 620 218 Q 639 222 643 226 Q 649 230 646 237 Q 642 244 622 249 Q 603 252 584 244 Q 583 244 583 243 C 577 240 565 237 536 230 Q 508 223 476 220 Q 452 216 470 205 Q 500 193 532 199 Q 533 200 536 199 L 581 209 Z" fill="black"></path>
				<path d="M 577 130 Q 644 145 647 146 Q 653 150 650 157 Q 646 164 627 169 Q 609 173 579 163 L 536 151 Q 506 147 473 144 Q 449 140 466 129 Q 493 114 531 122 L 537 122 L 577 130 Z" fill="black"></path>
				<path d="M 575 71 Q 576 102 577 130 L 579 163 Q 579 188 581 209 L 583 243 Q 587 271 582 278 Q 572 288 561 296 C 537 314 514 318 525 290 Q 531 281 536 230 L 536 199 L 536 151 L 537 122 Q 537 97 538 64 C 539 34 574 41 575 71 Z" fill="black"></path>
				<path d="M 538 64 Q 412 55 411 53 C 389 49 389 49 411 34 Q 436 13 483 19 Q 567 31 694 43 Q 704 42 712 52 Q 713 62 693 73 Q 671 95 584 73 Q 580 73 575 71 L 538 64 Z" fill="red"></path>
</g>
		<text x="40" y="140" font-size="128" fill="#999999">14</text></g>
		<g id="id2:id4:id4" transform="matrix(1.0,0,0,1.0,4096,0.0)">			<g stroke="white" stroke-width="4" transform="scale(4, 4)"> <rect x="1" y="1" width="255" height="255" fill="white" stroke-width="0"/></g>
</g>
</g>
</svg>
