<?xml version="1.0" standalone="no"?>
<!DOCTYPE svg PUBLIC "-//W3C//DTD SVG 1.1//EN"
 "http://www.w3.org/Graphics/SVG/1.1/DTD/svg11.dtd">
<!-- generate by Japanese dictionary app com.asnsami.kanjidictionary -->

<svg xmlns="http://www.w3.org/2000/svg" xmlns:sodipodi="http://sodipodi.sourceforge.net/DTD/sodipodi-0.dtd" version="1.1" width="640" height="512" viewBox="0 0 5120 4096">
	<g id="id0:id0" transform="translate(0.0,0)">
		<g id="id0:id0:id0" transform="matrix(1.0,0,0,1.0,0,0.0)">			<g stroke="lightgray" stroke-width="4" transform="scale(4, 4)"> <rect x="0" y="0" width="256" height="256" fill="white" stroke-width="4"/></g>
			<g transform="scale(0.92, -0.92) translate(60, -920)">					<path d="M 134 516 Q 107 515 80 519 Q 53 522 62 504 Q 99 425 116 346 Q 137 302 146 340 L 146 356 L 144 382 Q 140 437 140 486 C 140 516 140 516 134 516 Z" fill="red"></path>
				<path d="M 210 526 Q 170 518 134 516 C 104 514 110 481 140 486 Q 181 493 210 498 L 254 506 Q 283 511 312 516 Q 329 510 324 470 Q 319 430 312 422 C 299 395 384 394 370 420 Q 354 442 373 466 Q 392 489 416 508 Q 420 527 383 549 Q 346 571 322 558 Q 292 543 254 532 L 210 526 Z" fill="lightgray"></path>
				<path d="M 146 356 Q 165 356 214 362 L 254 366 Q 303 375 345 383 Q 386 390 370 420 C 361 441 340 433 312 422 Q 268 405 254 404 L 212 396 Q 184 386 144 382 C 114 379 116 355 146 356 Z" fill="lightgray"></path>
				<path d="M 254 532 Q 250 603 274 674 Q 285 724 206 732 Q 166 736 178 716 Q 191 683 202 656 Q 212 606 210 526 L 210 498 Q 212 444 212 396 L 214 362 L 214 240 C 214 210 254 224 254 254 L 254 366 L 254 404 Q 254 471 254 506 L 254 532 Z" fill="lightgray"></path>
				<path d="M 214 240 Q 118 205 34 204 Q 12 199 38 165 Q 64 130 102 142 Q 157 174 208 198 Q 259 222 330 250 C 358 261 345 289 318 276 Q 283 259 254 254 L 214 240 Z" fill="lightgray"></path>
				<path d="M 330 250 Q 334 233 342 228 Q 370 202 382.5 231 Q 395 260 388 286 Q 366 316 328.5 333.5 Q 291 351 304 316 Q 311 299 318 276 L 330 250 Z" fill="lightgray"></path>
				<path d="M 446 578 Q 478 582 538 596 L 574 602 Q 624 610 684 616 L 726 618 Q 795 625 870 624 Q 904 627 870 658 Q 836 679 800 668 Q 770 663 740 658 L 696 648 Q 627 638 574 632 L 530 624 Q 468 617 400 614 Q 379 610 400 595 Q 421 580 446 578 Z" fill="lightgray"></path>
				<path d="M 538 596 Q 550 567 560 536 Q 569 506 575.5 531.5 Q 582 557 574 602 L 574 632 Q 572 672 574 698 Q 568 729 496 728 Q 472 720 484 706 Q 517 669 530 624 L 538 596 Z" fill="lightgray"></path>
				<path d="M 684 616 Q 672 585 658 552 Q 649 522 686 562 Q 709 600 726 618 L 740 658 Q 757 689 784 720 Q 796 737 773 756.5 Q 750 776 718 784 Q 708 784 704 776 Q 713 694 696 648 L 684 616 Z" fill="lightgray"></path>
				<path d="M 508 488 Q 482 488 458 493 Q 434 497 434 484 Q 461 433 474 370 Q 486 306 514 276 Q 534 272 534 296 C 536 319 536 319 534 324 Q 532 324 518 382 L 512 408 Q 509 427 504 462 C 500 488 516 488 508 488 Z" fill="lightgray"></path>
				<path d="M 684 320 Q 693 291 703 292 Q 713 293 724 306 Q 742 339 762 385 Q 782 430 830 464 Q 850 483 806 512 Q 762 540 738 536 Q 679 515 616 503 Q 553 491 508 488 C 478 486 474 463 504 462 Q 542 459 609 472 Q 676 484 724 492 Q 742 490 736 464 Q 719 390 696 350 C 682 324 682 324 684 320 Z" fill="lightgray"></path>
				<path d="M 518 382 Q 555 381 597 386 Q 639 390 662 404 Q 686 416 663 428 Q 640 440 600 430 Q 560 417 512 408 C 483 402 488 383 518 382 Z" fill="lightgray"></path>
				<path d="M 612 312 Q 646 313 684 320 C 714 325 726 347 696 350 Q 668 353 632 344 Q 595 335 534 324 C 504 319 505 289 534 296 Q 561 303 580 304 L 612 312 Z" fill="lightgray"></path>
				<path d="M 636 198 Q 771 217 930 228 Q 973 236 930 268 Q 881 285 844 272 Q 807 262 746 249 Q 685 236 644 230 L 588 226 Q 535 216 446 205 Q 357 194 322 192 Q 306 187 329 169 Q 352 151 386 152 Q 480 174 578 190 L 636 198 Z" fill="lightgray"></path>
				<path d="M 632 176 Q 634 191 636 198 L 644 230 Q 656 254 662 272 Q 667 286 649 296 Q 631 306 612 312 C 584 322 567 328 580 304 Q 600 277 588 226 L 578 190 Q 558 124 502 71 Q 445 17 370 -15 Q 358 -27 382 -25 Q 474 0 532 50 Q 590 99 616 144 L 632 176 Z" fill="lightgray"></path>
				<path d="M 616 144 Q 692 62 760 2 Q 796 -24 842 -23 Q 910 -21 976 -17 Q 983 -11 978 -3 Q 862 25 781 71 Q 699 117 632 176 C 609 196 596 166 616 144 Z" fill="lightgray"></path>
</g>
		<text x="40" y="140" font-size="128" fill="#999999">1</text></g>
		<g id="id0:id1:id1" transform="matrix(1.0,0,0,1.0,1024,0.0)">			<g stroke="lightgray" stroke-width="4" transform="scale(4, 4)"> <rect x="0" y="0" width="256" height="256" fill="white" stroke-width="4"/></g>
			<g transform="scale(0.92, -0.92) translate(60, -920)">					<path d="M 134 516 Q 107 515 80 519 Q 53 522 62 504 Q 99 425 116 346 Q 137 302 146 340 L 146 356 L 144 382 Q 140 437 140 486 C 140 516 140 516 134 516 Z" fill="black"></path>
				<path d="M 210 526 Q 170 518 134 516 C 104 514 110 481 140 486 Q 181 493 210 498 L 254 506 Q 283 511 312 516 Q 329 510 324 470 Q 319 430 312 422 C 299 395 384 394 370 420 Q 354 442 373 466 Q 392 489 416 508 Q 420 527 383 549 Q 346 571 322 558 Q 292 543 254 532 L 210 526 Z" fill="red"></path>
				<path d="M 146 356 Q 165 356 214 362 L 254 366 Q 303 375 345 383 Q 386 390 370 420 C 361 441 340 433 312 422 Q 268 405 254 404 L 212 396 Q 184 386 144 382 C 114 379 116 355 146 356 Z" fill="lightgray"></path>
				<path d="M 254 532 Q 250 603 274 674 Q 285 724 206 732 Q 166 736 178 716 Q 191 683 202 656 Q 212 606 210 526 L 210 498 Q 212 444 212 396 L 214 362 L 214 240 C 214 210 254 224 254 254 L 254 366 L 254 404 Q 254 471 254 506 L 254 532 Z" fill="lightgray"></path>
				<path d="M 214 240 Q 118 205 34 204 Q 12 199 38 165 Q 64 130 102 142 Q 157 174 208 198 Q 259 222 330 250 C 358 261 345 289 318 276 Q 283 259 254 254 L 214 240 Z" fill="lightgray"></path>
				<path d="M 330 250 Q 334 233 342 228 Q 370 202 382.5 231 Q 395 260 388 286 Q 366 316 328.5 333.5 Q 291 351 304 316 Q 311 299 318 276 L 330 250 Z" fill="lightgray"></path>
				<path d="M 446 578 Q 478 582 538 596 L 574 602 Q 624 610 684 616 L 726 618 Q 795 625 870 624 Q 904 627 870 658 Q 836 679 800 668 Q 770 663 740 658 L 696 648 Q 627 638 574 632 L 530 624 Q 468 617 400 614 Q 379 610 400 595 Q 421 580 446 578 Z" fill="lightgray"></path>
				<path d="M 538 596 Q 550 567 560 536 Q 569 506 575.5 531.5 Q 582 557 574 602 L 574 632 Q 572 672 574 698 Q 568 729 496 728 Q 472 720 484 706 Q 517 669 530 624 L 538 596 Z" fill="lightgray"></path>
				<path d="M 684 616 Q 672 585 658 552 Q 649 522 686 562 Q 709 600 726 618 L 740 658 Q 757 689 784 720 Q 796 737 773 756.5 Q 750 776 718 784 Q 708 784 704 776 Q 713 694 696 648 L 684 616 Z" fill="lightgray"></path>
				<path d="M 508 488 Q 482 488 458 493 Q 434 497 434 484 Q 461 433 474 370 Q 486 306 514 276 Q 534 272 534 296 C 536 319 536 319 534 324 Q 532 324 518 382 L 512 408 Q 509 427 504 462 C 500 488 516 488 508 488 Z" fill="lightgray"></path>
				<path d="M 684 320 Q 693 291 703 292 Q 713 293 724 306 Q 742 339 762 385 Q 782 430 830 464 Q 850 483 806 512 Q 762 540 738 536 Q 679 515 616 503 Q 553 491 508 488 C 478 486 474 463 504 462 Q 542 459 609 472 Q 676 484 724 492 Q 742 490 736 464 Q 719 390 696 350 C 682 324 682 324 684 320 Z" fill="lightgray"></path>
				<path d="M 518 382 Q 555 381 597 386 Q 639 390 662 404 Q 686 416 663 428 Q 640 440 600 430 Q 560 417 512 408 C 483 402 488 383 518 382 Z" fill="lightgray"></path>
				<path d="M 612 312 Q 646 313 684 320 C 714 325 726 347 696 350 Q 668 353 632 344 Q 595 335 534 324 C 504 319 505 289 534 296 Q 561 303 580 304 L 612 312 Z" fill="lightgray"></path>
				<path d="M 636 198 Q 771 217 930 228 Q 973 236 930 268 Q 881 285 844 272 Q 807 262 746 249 Q 685 236 644 230 L 588 226 Q 535 216 446 205 Q 357 194 322 192 Q 306 187 329 169 Q 352 151 386 152 Q 480 174 578 190 L 636 198 Z" fill="lightgray"></path>
				<path d="M 632 176 Q 634 191 636 198 L 644 230 Q 656 254 662 272 Q 667 286 649 296 Q 631 306 612 312 C 584 322 567 328 580 304 Q 600 277 588 226 L 578 190 Q 558 124 502 71 Q 445 17 370 -15 Q 358 -27 382 -25 Q 474 0 532 50 Q 590 99 616 144 L 632 176 Z" fill="lightgray"></path>
				<path d="M 616 144 Q 692 62 760 2 Q 796 -24 842 -23 Q 910 -21 976 -17 Q 983 -11 978 -3 Q 862 25 781 71 Q 699 117 632 176 C 609 196 596 166 616 144 Z" fill="lightgray"></path>
</g>
		<text x="40" y="140" font-size="128" fill="#999999">2</text></g>
		<g id="id0:id2:id2" transform="matrix(1.0,0,0,1.0,2048,0.0)">			<g stroke="lightgray" stroke-width="4" transform="scale(4, 4)"> <rect x="0" y="0" width="256" height="256" fill="white" stroke-width="4"/></g>
			<g transform="scale(0.92, -0.92) translate(60, -920)">					<path d="M 134 516 Q 107 515 80 519 Q 53 522 62 504 Q 99 425 116 346 Q 137 302 146 340 L 146 356 L 144 382 Q 140 437 140 486 C 140 516 140 516 134 516 Z" fill="black"></path>
				<path d="M 210 526 Q 170 518 134 516 C 104 514 110 481 140 486 Q 181 493 210 498 L 254 506 Q 283 511 312 516 Q 329 510 324 470 Q 319 430 312 422 C 299 395 384 394 370 420 Q 354 442 373 466 Q 392 489 416 508 Q 420 527 383 549 Q 346 571 322 558 Q 292 543 254 532 L 210 526 Z" fill="black"></path>
				<path d="M 146 356 Q 165 356 214 362 L 254 366 Q 303 375 345 383 Q 386 390 370 420 C 361 441 340 433 312 422 Q 268 405 254 404 L 212 396 Q 184 386 144 382 C 114 379 116 355 146 356 Z" fill="red"></path>
				<path d="M 254 532 Q 250 603 274 674 Q 285 724 206 732 Q 166 736 178 716 Q 191 683 202 656 Q 212 606 210 526 L 210 498 Q 212 444 212 396 L 214 362 L 214 240 C 214 210 254 224 254 254 L 254 366 L 254 404 Q 254 471 254 506 L 254 532 Z" fill="lightgray"></path>
				<path d="M 214 240 Q 118 205 34 204 Q 12 199 38 165 Q 64 130 102 142 Q 157 174 208 198 Q 259 222 330 250 C 358 261 345 289 318 276 Q 283 259 254 254 L 214 240 Z" fill="lightgray"></path>
				<path d="M 330 250 Q 334 233 342 228 Q 370 202 382.5 231 Q 395 260 388 286 Q 366 316 328.5 333.5 Q 291 351 304 316 Q 311 299 318 276 L 330 250 Z" fill="lightgray"></path>
				<path d="M 446 578 Q 478 582 538 596 L 574 602 Q 624 610 684 616 L 726 618 Q 795 625 870 624 Q 904 627 870 658 Q 836 679 800 668 Q 770 663 740 658 L 696 648 Q 627 638 574 632 L 530 624 Q 468 617 400 614 Q 379 610 400 595 Q 421 580 446 578 Z" fill="lightgray"></path>
				<path d="M 538 596 Q 550 567 560 536 Q 569 506 575.5 531.5 Q 582 557 574 602 L 574 632 Q 572 672 574 698 Q 568 729 496 728 Q 472 720 484 706 Q 517 669 530 624 L 538 596 Z" fill="lightgray"></path>
				<path d="M 684 616 Q 672 585 658 552 Q 649 522 686 562 Q 709 600 726 618 L 740 658 Q 757 689 784 720 Q 796 737 773 756.5 Q 750 776 718 784 Q 708 784 704 776 Q 713 694 696 648 L 684 616 Z" fill="lightgray"></path>
				<path d="M 508 488 Q 482 488 458 493 Q 434 497 434 484 Q 461 433 474 370 Q 486 306 514 276 Q 534 272 534 296 C 536 319 536 319 534 324 Q 532 324 518 382 L 512 408 Q 509 427 504 462 C 500 488 516 488 508 488 Z" fill="lightgray"></path>
				<path d="M 684 320 Q 693 291 703 292 Q 713 293 724 306 Q 742 339 762 385 Q 782 430 830 464 Q 850 483 806 512 Q 762 540 738 536 Q 679 515 616 503 Q 553 491 508 488 C 478 486 474 463 504 462 Q 542 459 609 472 Q 676 484 724 492 Q 742 490 736 464 Q 719 390 696 350 C 682 324 682 324 684 320 Z" fill="lightgray"></path>
				<path d="M 518 382 Q 555 381 597 386 Q 639 390 662 404 Q 686 416 663 428 Q 640 440 600 430 Q 560 417 512 408 C 483 402 488 383 518 382 Z" fill="lightgray"></path>
				<path d="M 612 312 Q 646 313 684 320 C 714 325 726 347 696 350 Q 668 353 632 344 Q 595 335 534 324 C 504 319 505 289 534 296 Q 561 303 580 304 L 612 312 Z" fill="lightgray"></path>
				<path d="M 636 198 Q 771 217 930 228 Q 973 236 930 268 Q 881 285 844 272 Q 807 262 746 249 Q 685 236 644 230 L 588 226 Q 535 216 446 205 Q 357 194 322 192 Q 306 187 329 169 Q 352 151 386 152 Q 480 174 578 190 L 636 198 Z" fill="lightgray"></path>
				<path d="M 632 176 Q 634 191 636 198 L 644 230 Q 656 254 662 272 Q 667 286 649 296 Q 631 306 612 312 C 584 322 567 328 580 304 Q 600 277 588 226 L 578 190 Q 558 124 502 71 Q 445 17 370 -15 Q 358 -27 382 -25 Q 474 0 532 50 Q 590 99 616 144 L 632 176 Z" fill="lightgray"></path>
				<path d="M 616 144 Q 692 62 760 2 Q 796 -24 842 -23 Q 910 -21 976 -17 Q 983 -11 978 -3 Q 862 25 781 71 Q 699 117 632 176 C 609 196 596 166 616 144 Z" fill="lightgray"></path>
</g>
		<text x="40" y="140" font-size="128" fill="#999999">3</text></g>
		<g id="id0:id3:id3" transform="matrix(1.0,0,0,1.0,3072,0.0)">			<g stroke="lightgray" stroke-width="4" transform="scale(4, 4)"> <rect x="0" y="0" width="256" height="256" fill="white" stroke-width="4"/></g>
			<g transform="scale(0.92, -0.92) translate(60, -920)">					<path d="M 134 516 Q 107 515 80 519 Q 53 522 62 504 Q 99 425 116 346 Q 137 302 146 340 L 146 356 L 144 382 Q 140 437 140 486 C 140 516 140 516 134 516 Z" fill="black"></path>
				<path d="M 210 526 Q 170 518 134 516 C 104 514 110 481 140 486 Q 181 493 210 498 L 254 506 Q 283 511 312 516 Q 329 510 324 470 Q 319 430 312 422 C 299 395 384 394 370 420 Q 354 442 373 466 Q 392 489 416 508 Q 420 527 383 549 Q 346 571 322 558 Q 292 543 254 532 L 210 526 Z" fill="black"></path>
				<path d="M 146 356 Q 165 356 214 362 L 254 366 Q 303 375 345 383 Q 386 390 370 420 C 361 441 340 433 312 422 Q 268 405 254 404 L 212 396 Q 184 386 144 382 C 114 379 116 355 146 356 Z" fill="black"></path>
				<path d="M 254 532 Q 250 603 274 674 Q 285 724 206 732 Q 166 736 178 716 Q 191 683 202 656 Q 212 606 210 526 L 210 498 Q 212 444 212 396 L 214 362 L 214 240 C 214 210 254 224 254 254 L 254 366 L 254 404 Q 254 471 254 506 L 254 532 Z" fill="red"></path>
				<path d="M 214 240 Q 118 205 34 204 Q 12 199 38 165 Q 64 130 102 142 Q 157 174 208 198 Q 259 222 330 250 C 358 261 345 289 318 276 Q 283 259 254 254 L 214 240 Z" fill="lightgray"></path>
				<path d="M 330 250 Q 334 233 342 228 Q 370 202 382.5 231 Q 395 260 388 286 Q 366 316 328.5 333.5 Q 291 351 304 316 Q 311 299 318 276 L 330 250 Z" fill="lightgray"></path>
				<path d="M 446 578 Q 478 582 538 596 L 574 602 Q 624 610 684 616 L 726 618 Q 795 625 870 624 Q 904 627 870 658 Q 836 679 800 668 Q 770 663 740 658 L 696 648 Q 627 638 574 632 L 530 624 Q 468 617 400 614 Q 379 610 400 595 Q 421 580 446 578 Z" fill="lightgray"></path>
				<path d="M 538 596 Q 550 567 560 536 Q 569 506 575.5 531.5 Q 582 557 574 602 L 574 632 Q 572 672 574 698 Q 568 729 496 728 Q 472 720 484 706 Q 517 669 530 624 L 538 596 Z" fill="lightgray"></path>
				<path d="M 684 616 Q 672 585 658 552 Q 649 522 686 562 Q 709 600 726 618 L 740 658 Q 757 689 784 720 Q 796 737 773 756.5 Q 750 776 718 784 Q 708 784 704 776 Q 713 694 696 648 L 684 616 Z" fill="lightgray"></path>
				<path d="M 508 488 Q 482 488 458 493 Q 434 497 434 484 Q 461 433 474 370 Q 486 306 514 276 Q 534 272 534 296 C 536 319 536 319 534 324 Q 532 324 518 382 L 512 408 Q 509 427 504 462 C 500 488 516 488 508 488 Z" fill="lightgray"></path>
				<path d="M 684 320 Q 693 291 703 292 Q 713 293 724 306 Q 742 339 762 385 Q 782 430 830 464 Q 850 483 806 512 Q 762 540 738 536 Q 679 515 616 503 Q 553 491 508 488 C 478 486 474 463 504 462 Q 542 459 609 472 Q 676 484 724 492 Q 742 490 736 464 Q 719 390 696 350 C 682 324 682 324 684 320 Z" fill="lightgray"></path>
				<path d="M 518 382 Q 555 381 597 386 Q 639 390 662 404 Q 686 416 663 428 Q 640 440 600 430 Q 560 417 512 408 C 483 402 488 383 518 382 Z" fill="lightgray"></path>
				<path d="M 612 312 Q 646 313 684 320 C 714 325 726 347 696 350 Q 668 353 632 344 Q 595 335 534 324 C 504 319 505 289 534 296 Q 561 303 580 304 L 612 312 Z" fill="lightgray"></path>
				<path d="M 636 198 Q 771 217 930 228 Q 973 236 930 268 Q 881 285 844 272 Q 807 262 746 249 Q 685 236 644 230 L 588 226 Q 535 216 446 205 Q 357 194 322 192 Q 306 187 329 169 Q 352 151 386 152 Q 480 174 578 190 L 636 198 Z" fill="lightgray"></path>
				<path d="M 632 176 Q 634 191 636 198 L 644 230 Q 656 254 662 272 Q 667 286 649 296 Q 631 306 612 312 C 584 322 567 328 580 304 Q 600 277 588 226 L 578 190 Q 558 124 502 71 Q 445 17 370 -15 Q 358 -27 382 -25 Q 474 0 532 50 Q 590 99 616 144 L 632 176 Z" fill="lightgray"></path>
				<path d="M 616 144 Q 692 62 760 2 Q 796 -24 842 -23 Q 910 -21 976 -17 Q 983 -11 978 -3 Q 862 25 781 71 Q 699 117 632 176 C 609 196 596 166 616 144 Z" fill="lightgray"></path>
</g>
		<text x="40" y="140" font-size="128" fill="#999999">4</text></g>
		<g id="id0:id4:id4" transform="matrix(1.0,0,0,1.0,4096,0.0)">			<g stroke="lightgray" stroke-width="4" transform="scale(4, 4)"> <rect x="0" y="0" width="256" height="256" fill="white" stroke-width="4"/></g>
			<g transform="scale(0.92, -0.92) translate(60, -920)">					<path d="M 134 516 Q 107 515 80 519 Q 53 522 62 504 Q 99 425 116 346 Q 137 302 146 340 L 146 356 L 144 382 Q 140 437 140 486 C 140 516 140 516 134 516 Z" fill="black"></path>
				<path d="M 210 526 Q 170 518 134 516 C 104 514 110 481 140 486 Q 181 493 210 498 L 254 506 Q 283 511 312 516 Q 329 510 324 470 Q 319 430 312 422 C 299 395 384 394 370 420 Q 354 442 373 466 Q 392 489 416 508 Q 420 527 383 549 Q 346 571 322 558 Q 292 543 254 532 L 210 526 Z" fill="black"></path>
				<path d="M 146 356 Q 165 356 214 362 L 254 366 Q 303 375 345 383 Q 386 390 370 420 C 361 441 340 433 312 422 Q 268 405 254 404 L 212 396 Q 184 386 144 382 C 114 379 116 355 146 356 Z" fill="black"></path>
				<path d="M 254 532 Q 250 603 274 674 Q 285 724 206 732 Q 166 736 178 716 Q 191 683 202 656 Q 212 606 210 526 L 210 498 Q 212 444 212 396 L 214 362 L 214 240 C 214 210 254 224 254 254 L 254 366 L 254 404 Q 254 471 254 506 L 254 532 Z" fill="black"></path>
				<path d="M 214 240 Q 118 205 34 204 Q 12 199 38 165 Q 64 130 102 142 Q 157 174 208 198 Q 259 222 330 250 C 358 261 345 289 318 276 Q 283 259 254 254 L 214 240 Z" fill="red"></path>
				<path d="M 330 250 Q 334 233 342 228 Q 370 202 382.5 231 Q 395 260 388 286 Q 366 316 328.5 333.5 Q 291 351 304 316 Q 311 299 318 276 L 330 250 Z" fill="lightgray"></path>
				<path d="M 446 578 Q 478 582 538 596 L 574 602 Q 624 610 684 616 L 726 618 Q 795 625 870 624 Q 904 627 870 658 Q 836 679 800 668 Q 770 663 740 658 L 696 648 Q 627 638 574 632 L 530 624 Q 468 617 400 614 Q 379 610 400 595 Q 421 580 446 578 Z" fill="lightgray"></path>
				<path d="M 538 596 Q 550 567 560 536 Q 569 506 575.5 531.5 Q 582 557 574 602 L 574 632 Q 572 672 574 698 Q 568 729 496 728 Q 472 720 484 706 Q 517 669 530 624 L 538 596 Z" fill="lightgray"></path>
				<path d="M 684 616 Q 672 585 658 552 Q 649 522 686 562 Q 709 600 726 618 L 740 658 Q 757 689 784 720 Q 796 737 773 756.5 Q 750 776 718 784 Q 708 784 704 776 Q 713 694 696 648 L 684 616 Z" fill="lightgray"></path>
				<path d="M 508 488 Q 482 488 458 493 Q 434 497 434 484 Q 461 433 474 370 Q 486 306 514 276 Q 534 272 534 296 C 536 319 536 319 534 324 Q 532 324 518 382 L 512 408 Q 509 427 504 462 C 500 488 516 488 508 488 Z" fill="lightgray"></path>
				<path d="M 684 320 Q 693 291 703 292 Q 713 293 724 306 Q 742 339 762 385 Q 782 430 830 464 Q 850 483 806 512 Q 762 540 738 536 Q 679 515 616 503 Q 553 491 508 488 C 478 486 474 463 504 462 Q 542 459 609 472 Q 676 484 724 492 Q 742 490 736 464 Q 719 390 696 350 C 682 324 682 324 684 320 Z" fill="lightgray"></path>
				<path d="M 518 382 Q 555 381 597 386 Q 639 390 662 404 Q 686 416 663 428 Q 640 440 600 430 Q 560 417 512 408 C 483 402 488 383 518 382 Z" fill="lightgray"></path>
				<path d="M 612 312 Q 646 313 684 320 C 714 325 726 347 696 350 Q 668 353 632 344 Q 595 335 534 324 C 504 319 505 289 534 296 Q 561 303 580 304 L 612 312 Z" fill="lightgray"></path>
				<path d="M 636 198 Q 771 217 930 228 Q 973 236 930 268 Q 881 285 844 272 Q 807 262 746 249 Q 685 236 644 230 L 588 226 Q 535 216 446 205 Q 357 194 322 192 Q 306 187 329 169 Q 352 151 386 152 Q 480 174 578 190 L 636 198 Z" fill="lightgray"></path>
				<path d="M 632 176 Q 634 191 636 198 L 644 230 Q 656 254 662 272 Q 667 286 649 296 Q 631 306 612 312 C 584 322 567 328 580 304 Q 600 277 588 226 L 578 190 Q 558 124 502 71 Q 445 17 370 -15 Q 358 -27 382 -25 Q 474 0 532 50 Q 590 99 616 144 L 632 176 Z" fill="lightgray"></path>
				<path d="M 616 144 Q 692 62 760 2 Q 796 -24 842 -23 Q 910 -21 976 -17 Q 983 -11 978 -3 Q 862 25 781 71 Q 699 117 632 176 C 609 196 596 166 616 144 Z" fill="lightgray"></path>
</g>
		<text x="40" y="140" font-size="128" fill="#999999">5</text></g>
</g>
	<g id="id1:id1" transform="translate(0.0,1024)">
		<g id="id1:id0:id0" transform="matrix(1.0,0,0,1.0,0,0.0)">			<g stroke="lightgray" stroke-width="4" transform="scale(4, 4)"> <rect x="0" y="0" width="256" height="256" fill="white" stroke-width="4"/></g>
			<g transform="scale(0.92, -0.92) translate(60, -920)">					<path d="M 134 516 Q 107 515 80 519 Q 53 522 62 504 Q 99 425 116 346 Q 137 302 146 340 L 146 356 L 144 382 Q 140 437 140 486 C 140 516 140 516 134 516 Z" fill="black"></path>
				<path d="M 210 526 Q 170 518 134 516 C 104 514 110 481 140 486 Q 181 493 210 498 L 254 506 Q 283 511 312 516 Q 329 510 324 470 Q 319 430 312 422 C 299 395 384 394 370 420 Q 354 442 373 466 Q 392 489 416 508 Q 420 527 383 549 Q 346 571 322 558 Q 292 543 254 532 L 210 526 Z" fill="black"></path>
				<path d="M 146 356 Q 165 356 214 362 L 254 366 Q 303 375 345 383 Q 386 390 370 420 C 361 441 340 433 312 422 Q 268 405 254 404 L 212 396 Q 184 386 144 382 C 114 379 116 355 146 356 Z" fill="black"></path>
				<path d="M 254 532 Q 250 603 274 674 Q 285 724 206 732 Q 166 736 178 716 Q 191 683 202 656 Q 212 606 210 526 L 210 498 Q 212 444 212 396 L 214 362 L 214 240 C 214 210 254 224 254 254 L 254 366 L 254 404 Q 254 471 254 506 L 254 532 Z" fill="black"></path>
				<path d="M 214 240 Q 118 205 34 204 Q 12 199 38 165 Q 64 130 102 142 Q 157 174 208 198 Q 259 222 330 250 C 358 261 345 289 318 276 Q 283 259 254 254 L 214 240 Z" fill="black"></path>
				<path d="M 330 250 Q 334 233 342 228 Q 370 202 382.5 231 Q 395 260 388 286 Q 366 316 328.5 333.5 Q 291 351 304 316 Q 311 299 318 276 L 330 250 Z" fill="red"></path>
				<path d="M 446 578 Q 478 582 538 596 L 574 602 Q 624 610 684 616 L 726 618 Q 795 625 870 624 Q 904 627 870 658 Q 836 679 800 668 Q 770 663 740 658 L 696 648 Q 627 638 574 632 L 530 624 Q 468 617 400 614 Q 379 610 400 595 Q 421 580 446 578 Z" fill="lightgray"></path>
				<path d="M 538 596 Q 550 567 560 536 Q 569 506 575.5 531.5 Q 582 557 574 602 L 574 632 Q 572 672 574 698 Q 568 729 496 728 Q 472 720 484 706 Q 517 669 530 624 L 538 596 Z" fill="lightgray"></path>
				<path d="M 684 616 Q 672 585 658 552 Q 649 522 686 562 Q 709 600 726 618 L 740 658 Q 757 689 784 720 Q 796 737 773 756.5 Q 750 776 718 784 Q 708 784 704 776 Q 713 694 696 648 L 684 616 Z" fill="lightgray"></path>
				<path d="M 508 488 Q 482 488 458 493 Q 434 497 434 484 Q 461 433 474 370 Q 486 306 514 276 Q 534 272 534 296 C 536 319 536 319 534 324 Q 532 324 518 382 L 512 408 Q 509 427 504 462 C 500 488 516 488 508 488 Z" fill="lightgray"></path>
				<path d="M 684 320 Q 693 291 703 292 Q 713 293 724 306 Q 742 339 762 385 Q 782 430 830 464 Q 850 483 806 512 Q 762 540 738 536 Q 679 515 616 503 Q 553 491 508 488 C 478 486 474 463 504 462 Q 542 459 609 472 Q 676 484 724 492 Q 742 490 736 464 Q 719 390 696 350 C 682 324 682 324 684 320 Z" fill="lightgray"></path>
				<path d="M 518 382 Q 555 381 597 386 Q 639 390 662 404 Q 686 416 663 428 Q 640 440 600 430 Q 560 417 512 408 C 483 402 488 383 518 382 Z" fill="lightgray"></path>
				<path d="M 612 312 Q 646 313 684 320 C 714 325 726 347 696 350 Q 668 353 632 344 Q 595 335 534 324 C 504 319 505 289 534 296 Q 561 303 580 304 L 612 312 Z" fill="lightgray"></path>
				<path d="M 636 198 Q 771 217 930 228 Q 973 236 930 268 Q 881 285 844 272 Q 807 262 746 249 Q 685 236 644 230 L 588 226 Q 535 216 446 205 Q 357 194 322 192 Q 306 187 329 169 Q 352 151 386 152 Q 480 174 578 190 L 636 198 Z" fill="lightgray"></path>
				<path d="M 632 176 Q 634 191 636 198 L 644 230 Q 656 254 662 272 Q 667 286 649 296 Q 631 306 612 312 C 584 322 567 328 580 304 Q 600 277 588 226 L 578 190 Q 558 124 502 71 Q 445 17 370 -15 Q 358 -27 382 -25 Q 474 0 532 50 Q 590 99 616 144 L 632 176 Z" fill="lightgray"></path>
				<path d="M 616 144 Q 692 62 760 2 Q 796 -24 842 -23 Q 910 -21 976 -17 Q 983 -11 978 -3 Q 862 25 781 71 Q 699 117 632 176 C 609 196 596 166 616 144 Z" fill="lightgray"></path>
</g>
		<text x="40" y="140" font-size="128" fill="#999999">6</text></g>
		<g id="id1:id1:id1" transform="matrix(1.0,0,0,1.0,1024,0.0)">			<g stroke="lightgray" stroke-width="4" transform="scale(4, 4)"> <rect x="0" y="0" width="256" height="256" fill="white" stroke-width="4"/></g>
			<g transform="scale(0.92, -0.92) translate(60, -920)">					<path d="M 134 516 Q 107 515 80 519 Q 53 522 62 504 Q 99 425 116 346 Q 137 302 146 340 L 146 356 L 144 382 Q 140 437 140 486 C 140 516 140 516 134 516 Z" fill="black"></path>
				<path d="M 210 526 Q 170 518 134 516 C 104 514 110 481 140 486 Q 181 493 210 498 L 254 506 Q 283 511 312 516 Q 329 510 324 470 Q 319 430 312 422 C 299 395 384 394 370 420 Q 354 442 373 466 Q 392 489 416 508 Q 420 527 383 549 Q 346 571 322 558 Q 292 543 254 532 L 210 526 Z" fill="black"></path>
				<path d="M 146 356 Q 165 356 214 362 L 254 366 Q 303 375 345 383 Q 386 390 370 420 C 361 441 340 433 312 422 Q 268 405 254 404 L 212 396 Q 184 386 144 382 C 114 379 116 355 146 356 Z" fill="black"></path>
				<path d="M 254 532 Q 250 603 274 674 Q 285 724 206 732 Q 166 736 178 716 Q 191 683 202 656 Q 212 606 210 526 L 210 498 Q 212 444 212 396 L 214 362 L 214 240 C 214 210 254 224 254 254 L 254 366 L 254 404 Q 254 471 254 506 L 254 532 Z" fill="black"></path>
				<path d="M 214 240 Q 118 205 34 204 Q 12 199 38 165 Q 64 130 102 142 Q 157 174 208 198 Q 259 222 330 250 C 358 261 345 289 318 276 Q 283 259 254 254 L 214 240 Z" fill="black"></path>
				<path d="M 330 250 Q 334 233 342 228 Q 370 202 382.5 231 Q 395 260 388 286 Q 366 316 328.5 333.5 Q 291 351 304 316 Q 311 299 318 276 L 330 250 Z" fill="black"></path>
				<path d="M 446 578 Q 478 582 538 596 L 574 602 Q 624 610 684 616 L 726 618 Q 795 625 870 624 Q 904 627 870 658 Q 836 679 800 668 Q 770 663 740 658 L 696 648 Q 627 638 574 632 L 530 624 Q 468 617 400 614 Q 379 610 400 595 Q 421 580 446 578 Z" fill="red"></path>
				<path d="M 538 596 Q 550 567 560 536 Q 569 506 575.5 531.5 Q 582 557 574 602 L 574 632 Q 572 672 574 698 Q 568 729 496 728 Q 472 720 484 706 Q 517 669 530 624 L 538 596 Z" fill="lightgray"></path>
				<path d="M 684 616 Q 672 585 658 552 Q 649 522 686 562 Q 709 600 726 618 L 740 658 Q 757 689 784 720 Q 796 737 773 756.5 Q 750 776 718 784 Q 708 784 704 776 Q 713 694 696 648 L 684 616 Z" fill="lightgray"></path>
				<path d="M 508 488 Q 482 488 458 493 Q 434 497 434 484 Q 461 433 474 370 Q 486 306 514 276 Q 534 272 534 296 C 536 319 536 319 534 324 Q 532 324 518 382 L 512 408 Q 509 427 504 462 C 500 488 516 488 508 488 Z" fill="lightgray"></path>
				<path d="M 684 320 Q 693 291 703 292 Q 713 293 724 306 Q 742 339 762 385 Q 782 430 830 464 Q 850 483 806 512 Q 762 540 738 536 Q 679 515 616 503 Q 553 491 508 488 C 478 486 474 463 504 462 Q 542 459 609 472 Q 676 484 724 492 Q 742 490 736 464 Q 719 390 696 350 C 682 324 682 324 684 320 Z" fill="lightgray"></path>
				<path d="M 518 382 Q 555 381 597 386 Q 639 390 662 404 Q 686 416 663 428 Q 640 440 600 430 Q 560 417 512 408 C 483 402 488 383 518 382 Z" fill="lightgray"></path>
				<path d="M 612 312 Q 646 313 684 320 C 714 325 726 347 696 350 Q 668 353 632 344 Q 595 335 534 324 C 504 319 505 289 534 296 Q 561 303 580 304 L 612 312 Z" fill="lightgray"></path>
				<path d="M 636 198 Q 771 217 930 228 Q 973 236 930 268 Q 881 285 844 272 Q 807 262 746 249 Q 685 236 644 230 L 588 226 Q 535 216 446 205 Q 357 194 322 192 Q 306 187 329 169 Q 352 151 386 152 Q 480 174 578 190 L 636 198 Z" fill="lightgray"></path>
				<path d="M 632 176 Q 634 191 636 198 L 644 230 Q 656 254 662 272 Q 667 286 649 296 Q 631 306 612 312 C 584 322 567 328 580 304 Q 600 277 588 226 L 578 190 Q 558 124 502 71 Q 445 17 370 -15 Q 358 -27 382 -25 Q 474 0 532 50 Q 590 99 616 144 L 632 176 Z" fill="lightgray"></path>
				<path d="M 616 144 Q 692 62 760 2 Q 796 -24 842 -23 Q 910 -21 976 -17 Q 983 -11 978 -3 Q 862 25 781 71 Q 699 117 632 176 C 609 196 596 166 616 144 Z" fill="lightgray"></path>
</g>
		<text x="40" y="140" font-size="128" fill="#999999">7</text></g>
		<g id="id1:id2:id2" transform="matrix(1.0,0,0,1.0,2048,0.0)">			<g stroke="lightgray" stroke-width="4" transform="scale(4, 4)"> <rect x="0" y="0" width="256" height="256" fill="white" stroke-width="4"/></g>
			<g transform="scale(0.92, -0.92) translate(60, -920)">					<path d="M 134 516 Q 107 515 80 519 Q 53 522 62 504 Q 99 425 116 346 Q 137 302 146 340 L 146 356 L 144 382 Q 140 437 140 486 C 140 516 140 516 134 516 Z" fill="black"></path>
				<path d="M 210 526 Q 170 518 134 516 C 104 514 110 481 140 486 Q 181 493 210 498 L 254 506 Q 283 511 312 516 Q 329 510 324 470 Q 319 430 312 422 C 299 395 384 394 370 420 Q 354 442 373 466 Q 392 489 416 508 Q 420 527 383 549 Q 346 571 322 558 Q 292 543 254 532 L 210 526 Z" fill="black"></path>
				<path d="M 146 356 Q 165 356 214 362 L 254 366 Q 303 375 345 383 Q 386 390 370 420 C 361 441 340 433 312 422 Q 268 405 254 404 L 212 396 Q 184 386 144 382 C 114 379 116 355 146 356 Z" fill="black"></path>
				<path d="M 254 532 Q 250 603 274 674 Q 285 724 206 732 Q 166 736 178 716 Q 191 683 202 656 Q 212 606 210 526 L 210 498 Q 212 444 212 396 L 214 362 L 214 240 C 214 210 254 224 254 254 L 254 366 L 254 404 Q 254 471 254 506 L 254 532 Z" fill="black"></path>
				<path d="M 214 240 Q 118 205 34 204 Q 12 199 38 165 Q 64 130 102 142 Q 157 174 208 198 Q 259 222 330 250 C 358 261 345 289 318 276 Q 283 259 254 254 L 214 240 Z" fill="black"></path>
				<path d="M 330 250 Q 334 233 342 228 Q 370 202 382.5 231 Q 395 260 388 286 Q 366 316 328.5 333.5 Q 291 351 304 316 Q 311 299 318 276 L 330 250 Z" fill="black"></path>
				<path d="M 446 578 Q 478 582 538 596 L 574 602 Q 624 610 684 616 L 726 618 Q 795 625 870 624 Q 904 627 870 658 Q 836 679 800 668 Q 770 663 740 658 L 696 648 Q 627 638 574 632 L 530 624 Q 468 617 400 614 Q 379 610 400 595 Q 421 580 446 578 Z" fill="black"></path>
				<path d="M 538 596 Q 550 567 560 536 Q 569 506 575.5 531.5 Q 582 557 574 602 L 574 632 Q 572 672 574 698 Q 568 729 496 728 Q 472 720 484 706 Q 517 669 530 624 L 538 596 Z" fill="red"></path>
				<path d="M 684 616 Q 672 585 658 552 Q 649 522 686 562 Q 709 600 726 618 L 740 658 Q 757 689 784 720 Q 796 737 773 756.5 Q 750 776 718 784 Q 708 784 704 776 Q 713 694 696 648 L 684 616 Z" fill="lightgray"></path>
				<path d="M 508 488 Q 482 488 458 493 Q 434 497 434 484 Q 461 433 474 370 Q 486 306 514 276 Q 534 272 534 296 C 536 319 536 319 534 324 Q 532 324 518 382 L 512 408 Q 509 427 504 462 C 500 488 516 488 508 488 Z" fill="lightgray"></path>
				<path d="M 684 320 Q 693 291 703 292 Q 713 293 724 306 Q 742 339 762 385 Q 782 430 830 464 Q 850 483 806 512 Q 762 540 738 536 Q 679 515 616 503 Q 553 491 508 488 C 478 486 474 463 504 462 Q 542 459 609 472 Q 676 484 724 492 Q 742 490 736 464 Q 719 390 696 350 C 682 324 682 324 684 320 Z" fill="lightgray"></path>
				<path d="M 518 382 Q 555 381 597 386 Q 639 390 662 404 Q 686 416 663 428 Q 640 440 600 430 Q 560 417 512 408 C 483 402 488 383 518 382 Z" fill="lightgray"></path>
				<path d="M 612 312 Q 646 313 684 320 C 714 325 726 347 696 350 Q 668 353 632 344 Q 595 335 534 324 C 504 319 505 289 534 296 Q 561 303 580 304 L 612 312 Z" fill="lightgray"></path>
				<path d="M 636 198 Q 771 217 930 228 Q 973 236 930 268 Q 881 285 844 272 Q 807 262 746 249 Q 685 236 644 230 L 588 226 Q 535 216 446 205 Q 357 194 322 192 Q 306 187 329 169 Q 352 151 386 152 Q 480 174 578 190 L 636 198 Z" fill="lightgray"></path>
				<path d="M 632 176 Q 634 191 636 198 L 644 230 Q 656 254 662 272 Q 667 286 649 296 Q 631 306 612 312 C 584 322 567 328 580 304 Q 600 277 588 226 L 578 190 Q 558 124 502 71 Q 445 17 370 -15 Q 358 -27 382 -25 Q 474 0 532 50 Q 590 99 616 144 L 632 176 Z" fill="lightgray"></path>
				<path d="M 616 144 Q 692 62 760 2 Q 796 -24 842 -23 Q 910 -21 976 -17 Q 983 -11 978 -3 Q 862 25 781 71 Q 699 117 632 176 C 609 196 596 166 616 144 Z" fill="lightgray"></path>
</g>
		<text x="40" y="140" font-size="128" fill="#999999">8</text></g>
		<g id="id1:id3:id3" transform="matrix(1.0,0,0,1.0,3072,0.0)">			<g stroke="lightgray" stroke-width="4" transform="scale(4, 4)"> <rect x="0" y="0" width="256" height="256" fill="white" stroke-width="4"/></g>
			<g transform="scale(0.92, -0.92) translate(60, -920)">					<path d="M 134 516 Q 107 515 80 519 Q 53 522 62 504 Q 99 425 116 346 Q 137 302 146 340 L 146 356 L 144 382 Q 140 437 140 486 C 140 516 140 516 134 516 Z" fill="black"></path>
				<path d="M 210 526 Q 170 518 134 516 C 104 514 110 481 140 486 Q 181 493 210 498 L 254 506 Q 283 511 312 516 Q 329 510 324 470 Q 319 430 312 422 C 299 395 384 394 370 420 Q 354 442 373 466 Q 392 489 416 508 Q 420 527 383 549 Q 346 571 322 558 Q 292 543 254 532 L 210 526 Z" fill="black"></path>
				<path d="M 146 356 Q 165 356 214 362 L 254 366 Q 303 375 345 383 Q 386 390 370 420 C 361 441 340 433 312 422 Q 268 405 254 404 L 212 396 Q 184 386 144 382 C 114 379 116 355 146 356 Z" fill="black"></path>
				<path d="M 254 532 Q 250 603 274 674 Q 285 724 206 732 Q 166 736 178 716 Q 191 683 202 656 Q 212 606 210 526 L 210 498 Q 212 444 212 396 L 214 362 L 214 240 C 214 210 254 224 254 254 L 254 366 L 254 404 Q 254 471 254 506 L 254 532 Z" fill="black"></path>
				<path d="M 214 240 Q 118 205 34 204 Q 12 199 38 165 Q 64 130 102 142 Q 157 174 208 198 Q 259 222 330 250 C 358 261 345 289 318 276 Q 283 259 254 254 L 214 240 Z" fill="black"></path>
				<path d="M 330 250 Q 334 233 342 228 Q 370 202 382.5 231 Q 395 260 388 286 Q 366 316 328.5 333.5 Q 291 351 304 316 Q 311 299 318 276 L 330 250 Z" fill="black"></path>
				<path d="M 446 578 Q 478 582 538 596 L 574 602 Q 624 610 684 616 L 726 618 Q 795 625 870 624 Q 904 627 870 658 Q 836 679 800 668 Q 770 663 740 658 L 696 648 Q 627 638 574 632 L 530 624 Q 468 617 400 614 Q 379 610 400 595 Q 421 580 446 578 Z" fill="black"></path>
				<path d="M 538 596 Q 550 567 560 536 Q 569 506 575.5 531.5 Q 582 557 574 602 L 574 632 Q 572 672 574 698 Q 568 729 496 728 Q 472 720 484 706 Q 517 669 530 624 L 538 596 Z" fill="black"></path>
				<path d="M 684 616 Q 672 585 658 552 Q 649 522 686 562 Q 709 600 726 618 L 740 658 Q 757 689 784 720 Q 796 737 773 756.5 Q 750 776 718 784 Q 708 784 704 776 Q 713 694 696 648 L 684 616 Z" fill="red"></path>
				<path d="M 508 488 Q 482 488 458 493 Q 434 497 434 484 Q 461 433 474 370 Q 486 306 514 276 Q 534 272 534 296 C 536 319 536 319 534 324 Q 532 324 518 382 L 512 408 Q 509 427 504 462 C 500 488 516 488 508 488 Z" fill="lightgray"></path>
				<path d="M 684 320 Q 693 291 703 292 Q 713 293 724 306 Q 742 339 762 385 Q 782 430 830 464 Q 850 483 806 512 Q 762 540 738 536 Q 679 515 616 503 Q 553 491 508 488 C 478 486 474 463 504 462 Q 542 459 609 472 Q 676 484 724 492 Q 742 490 736 464 Q 719 390 696 350 C 682 324 682 324 684 320 Z" fill="lightgray"></path>
				<path d="M 518 382 Q 555 381 597 386 Q 639 390 662 404 Q 686 416 663 428 Q 640 440 600 430 Q 560 417 512 408 C 483 402 488 383 518 382 Z" fill="lightgray"></path>
				<path d="M 612 312 Q 646 313 684 320 C 714 325 726 347 696 350 Q 668 353 632 344 Q 595 335 534 324 C 504 319 505 289 534 296 Q 561 303 580 304 L 612 312 Z" fill="lightgray"></path>
				<path d="M 636 198 Q 771 217 930 228 Q 973 236 930 268 Q 881 285 844 272 Q 807 262 746 249 Q 685 236 644 230 L 588 226 Q 535 216 446 205 Q 357 194 322 192 Q 306 187 329 169 Q 352 151 386 152 Q 480 174 578 190 L 636 198 Z" fill="lightgray"></path>
				<path d="M 632 176 Q 634 191 636 198 L 644 230 Q 656 254 662 272 Q 667 286 649 296 Q 631 306 612 312 C 584 322 567 328 580 304 Q 600 277 588 226 L 578 190 Q 558 124 502 71 Q 445 17 370 -15 Q 358 -27 382 -25 Q 474 0 532 50 Q 590 99 616 144 L 632 176 Z" fill="lightgray"></path>
				<path d="M 616 144 Q 692 62 760 2 Q 796 -24 842 -23 Q 910 -21 976 -17 Q 983 -11 978 -3 Q 862 25 781 71 Q 699 117 632 176 C 609 196 596 166 616 144 Z" fill="lightgray"></path>
</g>
		<text x="40" y="140" font-size="128" fill="#999999">9</text></g>
		<g id="id1:id4:id4" transform="matrix(1.0,0,0,1.0,4096,0.0)">			<g stroke="lightgray" stroke-width="4" transform="scale(4, 4)"> <rect x="0" y="0" width="256" height="256" fill="white" stroke-width="4"/></g>
			<g transform="scale(0.92, -0.92) translate(60, -920)">					<path d="M 134 516 Q 107 515 80 519 Q 53 522 62 504 Q 99 425 116 346 Q 137 302 146 340 L 146 356 L 144 382 Q 140 437 140 486 C 140 516 140 516 134 516 Z" fill="black"></path>
				<path d="M 210 526 Q 170 518 134 516 C 104 514 110 481 140 486 Q 181 493 210 498 L 254 506 Q 283 511 312 516 Q 329 510 324 470 Q 319 430 312 422 C 299 395 384 394 370 420 Q 354 442 373 466 Q 392 489 416 508 Q 420 527 383 549 Q 346 571 322 558 Q 292 543 254 532 L 210 526 Z" fill="black"></path>
				<path d="M 146 356 Q 165 356 214 362 L 254 366 Q 303 375 345 383 Q 386 390 370 420 C 361 441 340 433 312 422 Q 268 405 254 404 L 212 396 Q 184 386 144 382 C 114 379 116 355 146 356 Z" fill="black"></path>
				<path d="M 254 532 Q 250 603 274 674 Q 285 724 206 732 Q 166 736 178 716 Q 191 683 202 656 Q 212 606 210 526 L 210 498 Q 212 444 212 396 L 214 362 L 214 240 C 214 210 254 224 254 254 L 254 366 L 254 404 Q 254 471 254 506 L 254 532 Z" fill="black"></path>
				<path d="M 214 240 Q 118 205 34 204 Q 12 199 38 165 Q 64 130 102 142 Q 157 174 208 198 Q 259 222 330 250 C 358 261 345 289 318 276 Q 283 259 254 254 L 214 240 Z" fill="black"></path>
				<path d="M 330 250 Q 334 233 342 228 Q 370 202 382.5 231 Q 395 260 388 286 Q 366 316 328.5 333.5 Q 291 351 304 316 Q 311 299 318 276 L 330 250 Z" fill="black"></path>
				<path d="M 446 578 Q 478 582 538 596 L 574 602 Q 624 610 684 616 L 726 618 Q 795 625 870 624 Q 904 627 870 658 Q 836 679 800 668 Q 770 663 740 658 L 696 648 Q 627 638 574 632 L 530 624 Q 468 617 400 614 Q 379 610 400 595 Q 421 580 446 578 Z" fill="black"></path>
				<path d="M 538 596 Q 550 567 560 536 Q 569 506 575.5 531.5 Q 582 557 574 602 L 574 632 Q 572 672 574 698 Q 568 729 496 728 Q 472 720 484 706 Q 517 669 530 624 L 538 596 Z" fill="black"></path>
				<path d="M 684 616 Q 672 585 658 552 Q 649 522 686 562 Q 709 600 726 618 L 740 658 Q 757 689 784 720 Q 796 737 773 756.5 Q 750 776 718 784 Q 708 784 704 776 Q 713 694 696 648 L 684 616 Z" fill="black"></path>
				<path d="M 508 488 Q 482 488 458 493 Q 434 497 434 484 Q 461 433 474 370 Q 486 306 514 276 Q 534 272 534 296 C 536 319 536 319 534 324 Q 532 324 518 382 L 512 408 Q 509 427 504 462 C 500 488 516 488 508 488 Z" fill="red"></path>
				<path d="M 684 320 Q 693 291 703 292 Q 713 293 724 306 Q 742 339 762 385 Q 782 430 830 464 Q 850 483 806 512 Q 762 540 738 536 Q 679 515 616 503 Q 553 491 508 488 C 478 486 474 463 504 462 Q 542 459 609 472 Q 676 484 724 492 Q 742 490 736 464 Q 719 390 696 350 C 682 324 682 324 684 320 Z" fill="lightgray"></path>
				<path d="M 518 382 Q 555 381 597 386 Q 639 390 662 404 Q 686 416 663 428 Q 640 440 600 430 Q 560 417 512 408 C 483 402 488 383 518 382 Z" fill="lightgray"></path>
				<path d="M 612 312 Q 646 313 684 320 C 714 325 726 347 696 350 Q 668 353 632 344 Q 595 335 534 324 C 504 319 505 289 534 296 Q 561 303 580 304 L 612 312 Z" fill="lightgray"></path>
				<path d="M 636 198 Q 771 217 930 228 Q 973 236 930 268 Q 881 285 844 272 Q 807 262 746 249 Q 685 236 644 230 L 588 226 Q 535 216 446 205 Q 357 194 322 192 Q 306 187 329 169 Q 352 151 386 152 Q 480 174 578 190 L 636 198 Z" fill="lightgray"></path>
				<path d="M 632 176 Q 634 191 636 198 L 644 230 Q 656 254 662 272 Q 667 286 649 296 Q 631 306 612 312 C 584 322 567 328 580 304 Q 600 277 588 226 L 578 190 Q 558 124 502 71 Q 445 17 370 -15 Q 358 -27 382 -25 Q 474 0 532 50 Q 590 99 616 144 L 632 176 Z" fill="lightgray"></path>
				<path d="M 616 144 Q 692 62 760 2 Q 796 -24 842 -23 Q 910 -21 976 -17 Q 983 -11 978 -3 Q 862 25 781 71 Q 699 117 632 176 C 609 196 596 166 616 144 Z" fill="lightgray"></path>
</g>
		<text x="40" y="140" font-size="128" fill="#999999">10</text></g>
</g>
	<g id="id2:id2" transform="translate(0.0,2048)">
		<g id="id2:id0:id0" transform="matrix(1.0,0,0,1.0,0,0.0)">			<g stroke="lightgray" stroke-width="4" transform="scale(4, 4)"> <rect x="0" y="0" width="256" height="256" fill="white" stroke-width="4"/></g>
			<g transform="scale(0.92, -0.92) translate(60, -920)">					<path d="M 134 516 Q 107 515 80 519 Q 53 522 62 504 Q 99 425 116 346 Q 137 302 146 340 L 146 356 L 144 382 Q 140 437 140 486 C 140 516 140 516 134 516 Z" fill="black"></path>
				<path d="M 210 526 Q 170 518 134 516 C 104 514 110 481 140 486 Q 181 493 210 498 L 254 506 Q 283 511 312 516 Q 329 510 324 470 Q 319 430 312 422 C 299 395 384 394 370 420 Q 354 442 373 466 Q 392 489 416 508 Q 420 527 383 549 Q 346 571 322 558 Q 292 543 254 532 L 210 526 Z" fill="black"></path>
				<path d="M 146 356 Q 165 356 214 362 L 254 366 Q 303 375 345 383 Q 386 390 370 420 C 361 441 340 433 312 422 Q 268 405 254 404 L 212 396 Q 184 386 144 382 C 114 379 116 355 146 356 Z" fill="black"></path>
				<path d="M 254 532 Q 250 603 274 674 Q 285 724 206 732 Q 166 736 178 716 Q 191 683 202 656 Q 212 606 210 526 L 210 498 Q 212 444 212 396 L 214 362 L 214 240 C 214 210 254 224 254 254 L 254 366 L 254 404 Q 254 471 254 506 L 254 532 Z" fill="black"></path>
				<path d="M 214 240 Q 118 205 34 204 Q 12 199 38 165 Q 64 130 102 142 Q 157 174 208 198 Q 259 222 330 250 C 358 261 345 289 318 276 Q 283 259 254 254 L 214 240 Z" fill="black"></path>
				<path d="M 330 250 Q 334 233 342 228 Q 370 202 382.5 231 Q 395 260 388 286 Q 366 316 328.5 333.5 Q 291 351 304 316 Q 311 299 318 276 L 330 250 Z" fill="black"></path>
				<path d="M 446 578 Q 478 582 538 596 L 574 602 Q 624 610 684 616 L 726 618 Q 795 625 870 624 Q 904 627 870 658 Q 836 679 800 668 Q 770 663 740 658 L 696 648 Q 627 638 574 632 L 530 624 Q 468 617 400 614 Q 379 610 400 595 Q 421 580 446 578 Z" fill="black"></path>
				<path d="M 538 596 Q 550 567 560 536 Q 569 506 575.5 531.5 Q 582 557 574 602 L 574 632 Q 572 672 574 698 Q 568 729 496 728 Q 472 720 484 706 Q 517 669 530 624 L 538 596 Z" fill="black"></path>
				<path d="M 684 616 Q 672 585 658 552 Q 649 522 686 562 Q 709 600 726 618 L 740 658 Q 757 689 784 720 Q 796 737 773 756.5 Q 750 776 718 784 Q 708 784 704 776 Q 713 694 696 648 L 684 616 Z" fill="black"></path>
				<path d="M 508 488 Q 482 488 458 493 Q 434 497 434 484 Q 461 433 474 370 Q 486 306 514 276 Q 534 272 534 296 C 536 319 536 319 534 324 Q 532 324 518 382 L 512 408 Q 509 427 504 462 C 500 488 516 488 508 488 Z" fill="black"></path>
				<path d="M 684 320 Q 693 291 703 292 Q 713 293 724 306 Q 742 339 762 385 Q 782 430 830 464 Q 850 483 806 512 Q 762 540 738 536 Q 679 515 616 503 Q 553 491 508 488 C 478 486 474 463 504 462 Q 542 459 609 472 Q 676 484 724 492 Q 742 490 736 464 Q 719 390 696 350 C 682 324 682 324 684 320 Z" fill="red"></path>
				<path d="M 518 382 Q 555 381 597 386 Q 639 390 662 404 Q 686 416 663 428 Q 640 440 600 430 Q 560 417 512 408 C 483 402 488 383 518 382 Z" fill="lightgray"></path>
				<path d="M 612 312 Q 646 313 684 320 C 714 325 726 347 696 350 Q 668 353 632 344 Q 595 335 534 324 C 504 319 505 289 534 296 Q 561 303 580 304 L 612 312 Z" fill="lightgray"></path>
				<path d="M 636 198 Q 771 217 930 228 Q 973 236 930 268 Q 881 285 844 272 Q 807 262 746 249 Q 685 236 644 230 L 588 226 Q 535 216 446 205 Q 357 194 322 192 Q 306 187 329 169 Q 352 151 386 152 Q 480 174 578 190 L 636 198 Z" fill="lightgray"></path>
				<path d="M 632 176 Q 634 191 636 198 L 644 230 Q 656 254 662 272 Q 667 286 649 296 Q 631 306 612 312 C 584 322 567 328 580 304 Q 600 277 588 226 L 578 190 Q 558 124 502 71 Q 445 17 370 -15 Q 358 -27 382 -25 Q 474 0 532 50 Q 590 99 616 144 L 632 176 Z" fill="lightgray"></path>
				<path d="M 616 144 Q 692 62 760 2 Q 796 -24 842 -23 Q 910 -21 976 -17 Q 983 -11 978 -3 Q 862 25 781 71 Q 699 117 632 176 C 609 196 596 166 616 144 Z" fill="lightgray"></path>
</g>
		<text x="40" y="140" font-size="128" fill="#999999">11</text></g>
		<g id="id2:id1:id1" transform="matrix(1.0,0,0,1.0,1024,0.0)">			<g stroke="lightgray" stroke-width="4" transform="scale(4, 4)"> <rect x="0" y="0" width="256" height="256" fill="white" stroke-width="4"/></g>
			<g transform="scale(0.92, -0.92) translate(60, -920)">					<path d="M 134 516 Q 107 515 80 519 Q 53 522 62 504 Q 99 425 116 346 Q 137 302 146 340 L 146 356 L 144 382 Q 140 437 140 486 C 140 516 140 516 134 516 Z" fill="black"></path>
				<path d="M 210 526 Q 170 518 134 516 C 104 514 110 481 140 486 Q 181 493 210 498 L 254 506 Q 283 511 312 516 Q 329 510 324 470 Q 319 430 312 422 C 299 395 384 394 370 420 Q 354 442 373 466 Q 392 489 416 508 Q 420 527 383 549 Q 346 571 322 558 Q 292 543 254 532 L 210 526 Z" fill="black"></path>
				<path d="M 146 356 Q 165 356 214 362 L 254 366 Q 303 375 345 383 Q 386 390 370 420 C 361 441 340 433 312 422 Q 268 405 254 404 L 212 396 Q 184 386 144 382 C 114 379 116 355 146 356 Z" fill="black"></path>
				<path d="M 254 532 Q 250 603 274 674 Q 285 724 206 732 Q 166 736 178 716 Q 191 683 202 656 Q 212 606 210 526 L 210 498 Q 212 444 212 396 L 214 362 L 214 240 C 214 210 254 224 254 254 L 254 366 L 254 404 Q 254 471 254 506 L 254 532 Z" fill="black"></path>
				<path d="M 214 240 Q 118 205 34 204 Q 12 199 38 165 Q 64 130 102 142 Q 157 174 208 198 Q 259 222 330 250 C 358 261 345 289 318 276 Q 283 259 254 254 L 214 240 Z" fill="black"></path>
				<path d="M 330 250 Q 334 233 342 228 Q 370 202 382.5 231 Q 395 260 388 286 Q 366 316 328.5 333.5 Q 291 351 304 316 Q 311 299 318 276 L 330 250 Z" fill="black"></path>
				<path d="M 446 578 Q 478 582 538 596 L 574 602 Q 624 610 684 616 L 726 618 Q 795 625 870 624 Q 904 627 870 658 Q 836 679 800 668 Q 770 663 740 658 L 696 648 Q 627 638 574 632 L 530 624 Q 468 617 400 614 Q 379 610 400 595 Q 421 580 446 578 Z" fill="black"></path>
				<path d="M 538 596 Q 550 567 560 536 Q 569 506 575.5 531.5 Q 582 557 574 602 L 574 632 Q 572 672 574 698 Q 568 729 496 728 Q 472 720 484 706 Q 517 669 530 624 L 538 596 Z" fill="black"></path>
				<path d="M 684 616 Q 672 585 658 552 Q 649 522 686 562 Q 709 600 726 618 L 740 658 Q 757 689 784 720 Q 796 737 773 756.5 Q 750 776 718 784 Q 708 784 704 776 Q 713 694 696 648 L 684 616 Z" fill="black"></path>
				<path d="M 508 488 Q 482 488 458 493 Q 434 497 434 484 Q 461 433 474 370 Q 486 306 514 276 Q 534 272 534 296 C 536 319 536 319 534 324 Q 532 324 518 382 L 512 408 Q 509 427 504 462 C 500 488 516 488 508 488 Z" fill="black"></path>
				<path d="M 684 320 Q 693 291 703 292 Q 713 293 724 306 Q 742 339 762 385 Q 782 430 830 464 Q 850 483 806 512 Q 762 540 738 536 Q 679 515 616 503 Q 553 491 508 488 C 478 486 474 463 504 462 Q 542 459 609 472 Q 676 484 724 492 Q 742 490 736 464 Q 719 390 696 350 C 682 324 682 324 684 320 Z" fill="black"></path>
				<path d="M 518 382 Q 555 381 597 386 Q 639 390 662 404 Q 686 416 663 428 Q 640 440 600 430 Q 560 417 512 408 C 483 402 488 383 518 382 Z" fill="red"></path>
				<path d="M 612 312 Q 646 313 684 320 C 714 325 726 347 696 350 Q 668 353 632 344 Q 595 335 534 324 C 504 319 505 289 534 296 Q 561 303 580 304 L 612 312 Z" fill="lightgray"></path>
				<path d="M 636 198 Q 771 217 930 228 Q 973 236 930 268 Q 881 285 844 272 Q 807 262 746 249 Q 685 236 644 230 L 588 226 Q 535 216 446 205 Q 357 194 322 192 Q 306 187 329 169 Q 352 151 386 152 Q 480 174 578 190 L 636 198 Z" fill="lightgray"></path>
				<path d="M 632 176 Q 634 191 636 198 L 644 230 Q 656 254 662 272 Q 667 286 649 296 Q 631 306 612 312 C 584 322 567 328 580 304 Q 600 277 588 226 L 578 190 Q 558 124 502 71 Q 445 17 370 -15 Q 358 -27 382 -25 Q 474 0 532 50 Q 590 99 616 144 L 632 176 Z" fill="lightgray"></path>
				<path d="M 616 144 Q 692 62 760 2 Q 796 -24 842 -23 Q 910 -21 976 -17 Q 983 -11 978 -3 Q 862 25 781 71 Q 699 117 632 176 C 609 196 596 166 616 144 Z" fill="lightgray"></path>
</g>
		<text x="40" y="140" font-size="128" fill="#999999">12</text></g>
		<g id="id2:id2:id2" transform="matrix(1.0,0,0,1.0,2048,0.0)">			<g stroke="lightgray" stroke-width="4" transform="scale(4, 4)"> <rect x="0" y="0" width="256" height="256" fill="white" stroke-width="4"/></g>
			<g transform="scale(0.92, -0.92) translate(60, -920)">					<path d="M 134 516 Q 107 515 80 519 Q 53 522 62 504 Q 99 425 116 346 Q 137 302 146 340 L 146 356 L 144 382 Q 140 437 140 486 C 140 516 140 516 134 516 Z" fill="black"></path>
				<path d="M 210 526 Q 170 518 134 516 C 104 514 110 481 140 486 Q 181 493 210 498 L 254 506 Q 283 511 312 516 Q 329 510 324 470 Q 319 430 312 422 C 299 395 384 394 370 420 Q 354 442 373 466 Q 392 489 416 508 Q 420 527 383 549 Q 346 571 322 558 Q 292 543 254 532 L 210 526 Z" fill="black"></path>
				<path d="M 146 356 Q 165 356 214 362 L 254 366 Q 303 375 345 383 Q 386 390 370 420 C 361 441 340 433 312 422 Q 268 405 254 404 L 212 396 Q 184 386 144 382 C 114 379 116 355 146 356 Z" fill="black"></path>
				<path d="M 254 532 Q 250 603 274 674 Q 285 724 206 732 Q 166 736 178 716 Q 191 683 202 656 Q 212 606 210 526 L 210 498 Q 212 444 212 396 L 214 362 L 214 240 C 214 210 254 224 254 254 L 254 366 L 254 404 Q 254 471 254 506 L 254 532 Z" fill="black"></path>
				<path d="M 214 240 Q 118 205 34 204 Q 12 199 38 165 Q 64 130 102 142 Q 157 174 208 198 Q 259 222 330 250 C 358 261 345 289 318 276 Q 283 259 254 254 L 214 240 Z" fill="black"></path>
				<path d="M 330 250 Q 334 233 342 228 Q 370 202 382.5 231 Q 395 260 388 286 Q 366 316 328.5 333.5 Q 291 351 304 316 Q 311 299 318 276 L 330 250 Z" fill="black"></path>
				<path d="M 446 578 Q 478 582 538 596 L 574 602 Q 624 610 684 616 L 726 618 Q 795 625 870 624 Q 904 627 870 658 Q 836 679 800 668 Q 770 663 740 658 L 696 648 Q 627 638 574 632 L 530 624 Q 468 617 400 614 Q 379 610 400 595 Q 421 580 446 578 Z" fill="black"></path>
				<path d="M 538 596 Q 550 567 560 536 Q 569 506 575.5 531.5 Q 582 557 574 602 L 574 632 Q 572 672 574 698 Q 568 729 496 728 Q 472 720 484 706 Q 517 669 530 624 L 538 596 Z" fill="black"></path>
				<path d="M 684 616 Q 672 585 658 552 Q 649 522 686 562 Q 709 600 726 618 L 740 658 Q 757 689 784 720 Q 796 737 773 756.5 Q 750 776 718 784 Q 708 784 704 776 Q 713 694 696 648 L 684 616 Z" fill="black"></path>
				<path d="M 508 488 Q 482 488 458 493 Q 434 497 434 484 Q 461 433 474 370 Q 486 306 514 276 Q 534 272 534 296 C 536 319 536 319 534 324 Q 532 324 518 382 L 512 408 Q 509 427 504 462 C 500 488 516 488 508 488 Z" fill="black"></path>
				<path d="M 684 320 Q 693 291 703 292 Q 713 293 724 306 Q 742 339 762 385 Q 782 430 830 464 Q 850 483 806 512 Q 762 540 738 536 Q 679 515 616 503 Q 553 491 508 488 C 478 486 474 463 504 462 Q 542 459 609 472 Q 676 484 724 492 Q 742 490 736 464 Q 719 390 696 350 C 682 324 682 324 684 320 Z" fill="black"></path>
				<path d="M 518 382 Q 555 381 597 386 Q 639 390 662 404 Q 686 416 663 428 Q 640 440 600 430 Q 560 417 512 408 C 483 402 488 383 518 382 Z" fill="black"></path>
				<path d="M 612 312 Q 646 313 684 320 C 714 325 726 347 696 350 Q 668 353 632 344 Q 595 335 534 324 C 504 319 505 289 534 296 Q 561 303 580 304 L 612 312 Z" fill="red"></path>
				<path d="M 636 198 Q 771 217 930 228 Q 973 236 930 268 Q 881 285 844 272 Q 807 262 746 249 Q 685 236 644 230 L 588 226 Q 535 216 446 205 Q 357 194 322 192 Q 306 187 329 169 Q 352 151 386 152 Q 480 174 578 190 L 636 198 Z" fill="lightgray"></path>
				<path d="M 632 176 Q 634 191 636 198 L 644 230 Q 656 254 662 272 Q 667 286 649 296 Q 631 306 612 312 C 584 322 567 328 580 304 Q 600 277 588 226 L 578 190 Q 558 124 502 71 Q 445 17 370 -15 Q 358 -27 382 -25 Q 474 0 532 50 Q 590 99 616 144 L 632 176 Z" fill="lightgray"></path>
				<path d="M 616 144 Q 692 62 760 2 Q 796 -24 842 -23 Q 910 -21 976 -17 Q 983 -11 978 -3 Q 862 25 781 71 Q 699 117 632 176 C 609 196 596 166 616 144 Z" fill="lightgray"></path>
</g>
		<text x="40" y="140" font-size="128" fill="#999999">13</text></g>
		<g id="id2:id3:id3" transform="matrix(1.0,0,0,1.0,3072,0.0)">			<g stroke="lightgray" stroke-width="4" transform="scale(4, 4)"> <rect x="0" y="0" width="256" height="256" fill="white" stroke-width="4"/></g>
			<g transform="scale(0.92, -0.92) translate(60, -920)">					<path d="M 134 516 Q 107 515 80 519 Q 53 522 62 504 Q 99 425 116 346 Q 137 302 146 340 L 146 356 L 144 382 Q 140 437 140 486 C 140 516 140 516 134 516 Z" fill="black"></path>
				<path d="M 210 526 Q 170 518 134 516 C 104 514 110 481 140 486 Q 181 493 210 498 L 254 506 Q 283 511 312 516 Q 329 510 324 470 Q 319 430 312 422 C 299 395 384 394 370 420 Q 354 442 373 466 Q 392 489 416 508 Q 420 527 383 549 Q 346 571 322 558 Q 292 543 254 532 L 210 526 Z" fill="black"></path>
				<path d="M 146 356 Q 165 356 214 362 L 254 366 Q 303 375 345 383 Q 386 390 370 420 C 361 441 340 433 312 422 Q 268 405 254 404 L 212 396 Q 184 386 144 382 C 114 379 116 355 146 356 Z" fill="black"></path>
				<path d="M 254 532 Q 250 603 274 674 Q 285 724 206 732 Q 166 736 178 716 Q 191 683 202 656 Q 212 606 210 526 L 210 498 Q 212 444 212 396 L 214 362 L 214 240 C 214 210 254 224 254 254 L 254 366 L 254 404 Q 254 471 254 506 L 254 532 Z" fill="black"></path>
				<path d="M 214 240 Q 118 205 34 204 Q 12 199 38 165 Q 64 130 102 142 Q 157 174 208 198 Q 259 222 330 250 C 358 261 345 289 318 276 Q 283 259 254 254 L 214 240 Z" fill="black"></path>
				<path d="M 330 250 Q 334 233 342 228 Q 370 202 382.5 231 Q 395 260 388 286 Q 366 316 328.5 333.5 Q 291 351 304 316 Q 311 299 318 276 L 330 250 Z" fill="black"></path>
				<path d="M 446 578 Q 478 582 538 596 L 574 602 Q 624 610 684 616 L 726 618 Q 795 625 870 624 Q 904 627 870 658 Q 836 679 800 668 Q 770 663 740 658 L 696 648 Q 627 638 574 632 L 530 624 Q 468 617 400 614 Q 379 610 400 595 Q 421 580 446 578 Z" fill="black"></path>
				<path d="M 538 596 Q 550 567 560 536 Q 569 506 575.5 531.5 Q 582 557 574 602 L 574 632 Q 572 672 574 698 Q 568 729 496 728 Q 472 720 484 706 Q 517 669 530 624 L 538 596 Z" fill="black"></path>
				<path d="M 684 616 Q 672 585 658 552 Q 649 522 686 562 Q 709 600 726 618 L 740 658 Q 757 689 784 720 Q 796 737 773 756.5 Q 750 776 718 784 Q 708 784 704 776 Q 713 694 696 648 L 684 616 Z" fill="black"></path>
				<path d="M 508 488 Q 482 488 458 493 Q 434 497 434 484 Q 461 433 474 370 Q 486 306 514 276 Q 534 272 534 296 C 536 319 536 319 534 324 Q 532 324 518 382 L 512 408 Q 509 427 504 462 C 500 488 516 488 508 488 Z" fill="black"></path>
				<path d="M 684 320 Q 693 291 703 292 Q 713 293 724 306 Q 742 339 762 385 Q 782 430 830 464 Q 850 483 806 512 Q 762 540 738 536 Q 679 515 616 503 Q 553 491 508 488 C 478 486 474 463 504 462 Q 542 459 609 472 Q 676 484 724 492 Q 742 490 736 464 Q 719 390 696 350 C 682 324 682 324 684 320 Z" fill="black"></path>
				<path d="M 518 382 Q 555 381 597 386 Q 639 390 662 404 Q 686 416 663 428 Q 640 440 600 430 Q 560 417 512 408 C 483 402 488 383 518 382 Z" fill="black"></path>
				<path d="M 612 312 Q 646 313 684 320 C 714 325 726 347 696 350 Q 668 353 632 344 Q 595 335 534 324 C 504 319 505 289 534 296 Q 561 303 580 304 L 612 312 Z" fill="black"></path>
				<path d="M 636 198 Q 771 217 930 228 Q 973 236 930 268 Q 881 285 844 272 Q 807 262 746 249 Q 685 236 644 230 L 588 226 Q 535 216 446 205 Q 357 194 322 192 Q 306 187 329 169 Q 352 151 386 152 Q 480 174 578 190 L 636 198 Z" fill="red"></path>
				<path d="M 632 176 Q 634 191 636 198 L 644 230 Q 656 254 662 272 Q 667 286 649 296 Q 631 306 612 312 C 584 322 567 328 580 304 Q 600 277 588 226 L 578 190 Q 558 124 502 71 Q 445 17 370 -15 Q 358 -27 382 -25 Q 474 0 532 50 Q 590 99 616 144 L 632 176 Z" fill="lightgray"></path>
				<path d="M 616 144 Q 692 62 760 2 Q 796 -24 842 -23 Q 910 -21 976 -17 Q 983 -11 978 -3 Q 862 25 781 71 Q 699 117 632 176 C 609 196 596 166 616 144 Z" fill="lightgray"></path>
</g>
		<text x="40" y="140" font-size="128" fill="#999999">14</text></g>
		<g id="id2:id4:id4" transform="matrix(1.0,0,0,1.0,4096,0.0)">			<g stroke="lightgray" stroke-width="4" transform="scale(4, 4)"> <rect x="0" y="0" width="256" height="256" fill="white" stroke-width="4"/></g>
			<g transform="scale(0.92, -0.92) translate(60, -920)">					<path d="M 134 516 Q 107 515 80 519 Q 53 522 62 504 Q 99 425 116 346 Q 137 302 146 340 L 146 356 L 144 382 Q 140 437 140 486 C 140 516 140 516 134 516 Z" fill="black"></path>
				<path d="M 210 526 Q 170 518 134 516 C 104 514 110 481 140 486 Q 181 493 210 498 L 254 506 Q 283 511 312 516 Q 329 510 324 470 Q 319 430 312 422 C 299 395 384 394 370 420 Q 354 442 373 466 Q 392 489 416 508 Q 420 527 383 549 Q 346 571 322 558 Q 292 543 254 532 L 210 526 Z" fill="black"></path>
				<path d="M 146 356 Q 165 356 214 362 L 254 366 Q 303 375 345 383 Q 386 390 370 420 C 361 441 340 433 312 422 Q 268 405 254 404 L 212 396 Q 184 386 144 382 C 114 379 116 355 146 356 Z" fill="black"></path>
				<path d="M 254 532 Q 250 603 274 674 Q 285 724 206 732 Q 166 736 178 716 Q 191 683 202 656 Q 212 606 210 526 L 210 498 Q 212 444 212 396 L 214 362 L 214 240 C 214 210 254 224 254 254 L 254 366 L 254 404 Q 254 471 254 506 L 254 532 Z" fill="black"></path>
				<path d="M 214 240 Q 118 205 34 204 Q 12 199 38 165 Q 64 130 102 142 Q 157 174 208 198 Q 259 222 330 250 C 358 261 345 289 318 276 Q 283 259 254 254 L 214 240 Z" fill="black"></path>
				<path d="M 330 250 Q 334 233 342 228 Q 370 202 382.5 231 Q 395 260 388 286 Q 366 316 328.5 333.5 Q 291 351 304 316 Q 311 299 318 276 L 330 250 Z" fill="black"></path>
				<path d="M 446 578 Q 478 582 538 596 L 574 602 Q 624 610 684 616 L 726 618 Q 795 625 870 624 Q 904 627 870 658 Q 836 679 800 668 Q 770 663 740 658 L 696 648 Q 627 638 574 632 L 530 624 Q 468 617 400 614 Q 379 610 400 595 Q 421 580 446 578 Z" fill="black"></path>
				<path d="M 538 596 Q 550 567 560 536 Q 569 506 575.5 531.5 Q 582 557 574 602 L 574 632 Q 572 672 574 698 Q 568 729 496 728 Q 472 720 484 706 Q 517 669 530 624 L 538 596 Z" fill="black"></path>
				<path d="M 684 616 Q 672 585 658 552 Q 649 522 686 562 Q 709 600 726 618 L 740 658 Q 757 689 784 720 Q 796 737 773 756.5 Q 750 776 718 784 Q 708 784 704 776 Q 713 694 696 648 L 684 616 Z" fill="black"></path>
				<path d="M 508 488 Q 482 488 458 493 Q 434 497 434 484 Q 461 433 474 370 Q 486 306 514 276 Q 534 272 534 296 C 536 319 536 319 534 324 Q 532 324 518 382 L 512 408 Q 509 427 504 462 C 500 488 516 488 508 488 Z" fill="black"></path>
				<path d="M 684 320 Q 693 291 703 292 Q 713 293 724 306 Q 742 339 762 385 Q 782 430 830 464 Q 850 483 806 512 Q 762 540 738 536 Q 679 515 616 503 Q 553 491 508 488 C 478 486 474 463 504 462 Q 542 459 609 472 Q 676 484 724 492 Q 742 490 736 464 Q 719 390 696 350 C 682 324 682 324 684 320 Z" fill="black"></path>
				<path d="M 518 382 Q 555 381 597 386 Q 639 390 662 404 Q 686 416 663 428 Q 640 440 600 430 Q 560 417 512 408 C 483 402 488 383 518 382 Z" fill="black"></path>
				<path d="M 612 312 Q 646 313 684 320 C 714 325 726 347 696 350 Q 668 353 632 344 Q 595 335 534 324 C 504 319 505 289 534 296 Q 561 303 580 304 L 612 312 Z" fill="black"></path>
				<path d="M 636 198 Q 771 217 930 228 Q 973 236 930 268 Q 881 285 844 272 Q 807 262 746 249 Q 685 236 644 230 L 588 226 Q 535 216 446 205 Q 357 194 322 192 Q 306 187 329 169 Q 352 151 386 152 Q 480 174 578 190 L 636 198 Z" fill="black"></path>
				<path d="M 632 176 Q 634 191 636 198 L 644 230 Q 656 254 662 272 Q 667 286 649 296 Q 631 306 612 312 C 584 322 567 328 580 304 Q 600 277 588 226 L 578 190 Q 558 124 502 71 Q 445 17 370 -15 Q 358 -27 382 -25 Q 474 0 532 50 Q 590 99 616 144 L 632 176 Z" fill="red"></path>
				<path d="M 616 144 Q 692 62 760 2 Q 796 -24 842 -23 Q 910 -21 976 -17 Q 983 -11 978 -3 Q 862 25 781 71 Q 699 117 632 176 C 609 196 596 166 616 144 Z" fill="lightgray"></path>
</g>
		<text x="40" y="140" font-size="128" fill="#999999">15</text></g>
</g>
	<g id="id3:id3" transform="translate(0.0,3072)">
		<g id="id3:id0:id0" transform="matrix(1.0,0,0,1.0,0,0.0)">			<g stroke="lightgray" stroke-width="4" transform="scale(4, 4)"> <rect x="0" y="0" width="256" height="256" fill="white" stroke-width="4"/></g>
			<g transform="scale(0.92, -0.92) translate(60, -920)">					<path d="M 134 516 Q 107 515 80 519 Q 53 522 62 504 Q 99 425 116 346 Q 137 302 146 340 L 146 356 L 144 382 Q 140 437 140 486 C 140 516 140 516 134 516 Z" fill="black"></path>
				<path d="M 210 526 Q 170 518 134 516 C 104 514 110 481 140 486 Q 181 493 210 498 L 254 506 Q 283 511 312 516 Q 329 510 324 470 Q 319 430 312 422 C 299 395 384 394 370 420 Q 354 442 373 466 Q 392 489 416 508 Q 420 527 383 549 Q 346 571 322 558 Q 292 543 254 532 L 210 526 Z" fill="black"></path>
				<path d="M 146 356 Q 165 356 214 362 L 254 366 Q 303 375 345 383 Q 386 390 370 420 C 361 441 340 433 312 422 Q 268 405 254 404 L 212 396 Q 184 386 144 382 C 114 379 116 355 146 356 Z" fill="black"></path>
				<path d="M 254 532 Q 250 603 274 674 Q 285 724 206 732 Q 166 736 178 716 Q 191 683 202 656 Q 212 606 210 526 L 210 498 Q 212 444 212 396 L 214 362 L 214 240 C 214 210 254 224 254 254 L 254 366 L 254 404 Q 254 471 254 506 L 254 532 Z" fill="black"></path>
				<path d="M 214 240 Q 118 205 34 204 Q 12 199 38 165 Q 64 130 102 142 Q 157 174 208 198 Q 259 222 330 250 C 358 261 345 289 318 276 Q 283 259 254 254 L 214 240 Z" fill="black"></path>
				<path d="M 330 250 Q 334 233 342 228 Q 370 202 382.5 231 Q 395 260 388 286 Q 366 316 328.5 333.5 Q 291 351 304 316 Q 311 299 318 276 L 330 250 Z" fill="black"></path>
				<path d="M 446 578 Q 478 582 538 596 L 574 602 Q 624 610 684 616 L 726 618 Q 795 625 870 624 Q 904 627 870 658 Q 836 679 800 668 Q 770 663 740 658 L 696 648 Q 627 638 574 632 L 530 624 Q 468 617 400 614 Q 379 610 400 595 Q 421 580 446 578 Z" fill="black"></path>
				<path d="M 538 596 Q 550 567 560 536 Q 569 506 575.5 531.5 Q 582 557 574 602 L 574 632 Q 572 672 574 698 Q 568 729 496 728 Q 472 720 484 706 Q 517 669 530 624 L 538 596 Z" fill="black"></path>
				<path d="M 684 616 Q 672 585 658 552 Q 649 522 686 562 Q 709 600 726 618 L 740 658 Q 757 689 784 720 Q 796 737 773 756.5 Q 750 776 718 784 Q 708 784 704 776 Q 713 694 696 648 L 684 616 Z" fill="black"></path>
				<path d="M 508 488 Q 482 488 458 493 Q 434 497 434 484 Q 461 433 474 370 Q 486 306 514 276 Q 534 272 534 296 C 536 319 536 319 534 324 Q 532 324 518 382 L 512 408 Q 509 427 504 462 C 500 488 516 488 508 488 Z" fill="black"></path>
				<path d="M 684 320 Q 693 291 703 292 Q 713 293 724 306 Q 742 339 762 385 Q 782 430 830 464 Q 850 483 806 512 Q 762 540 738 536 Q 679 515 616 503 Q 553 491 508 488 C 478 486 474 463 504 462 Q 542 459 609 472 Q 676 484 724 492 Q 742 490 736 464 Q 719 390 696 350 C 682 324 682 324 684 320 Z" fill="black"></path>
				<path d="M 518 382 Q 555 381 597 386 Q 639 390 662 404 Q 686 416 663 428 Q 640 440 600 430 Q 560 417 512 408 C 483 402 488 383 518 382 Z" fill="black"></path>
				<path d="M 612 312 Q 646 313 684 320 C 714 325 726 347 696 350 Q 668 353 632 344 Q 595 335 534 324 C 504 319 505 289 534 296 Q 561 303 580 304 L 612 312 Z" fill="black"></path>
				<path d="M 636 198 Q 771 217 930 228 Q 973 236 930 268 Q 881 285 844 272 Q 807 262 746 249 Q 685 236 644 230 L 588 226 Q 535 216 446 205 Q 357 194 322 192 Q 306 187 329 169 Q 352 151 386 152 Q 480 174 578 190 L 636 198 Z" fill="black"></path>
				<path d="M 632 176 Q 634 191 636 198 L 644 230 Q 656 254 662 272 Q 667 286 649 296 Q 631 306 612 312 C 584 322 567 328 580 304 Q 600 277 588 226 L 578 190 Q 558 124 502 71 Q 445 17 370 -15 Q 358 -27 382 -25 Q 474 0 532 50 Q 590 99 616 144 L 632 176 Z" fill="black"></path>
				<path d="M 616 144 Q 692 62 760 2 Q 796 -24 842 -23 Q 910 -21 976 -17 Q 983 -11 978 -3 Q 862 25 781 71 Q 699 117 632 176 C 609 196 596 166 616 144 Z" fill="red"></path>
</g>
		<text x="40" y="140" font-size="128" fill="#999999">16</text></g>
		<g id="id3:id1:id1" transform="matrix(1.0,0,0,1.0,1024,0.0)">			<g stroke="white" stroke-width="4" transform="scale(4, 4)"> <rect x="1" y="1" width="255" height="255" fill="white" stroke-width="0"/></g>
</g>
		<g id="id3:id2:id2" transform="matrix(1.0,0,0,1.0,2048,0.0)">			<g stroke="white" stroke-width="4" transform="scale(4, 4)"> <rect x="1" y="1" width="255" height="255" fill="white" stroke-width="0"/></g>
</g>
		<g id="id3:id3:id3" transform="matrix(1.0,0,0,1.0,3072,0.0)">			<g stroke="white" stroke-width="4" transform="scale(4, 4)"> <rect x="1" y="1" width="255" height="255" fill="white" stroke-width="0"/></g>
</g>
		<g id="id3:id4:id4" transform="matrix(1.0,0,0,1.0,4096,0.0)">			<g stroke="white" stroke-width="4" transform="scale(4, 4)"> <rect x="1" y="1" width="255" height="255" fill="white" stroke-width="0"/></g>
</g>
</g>
</svg>
