<?xml version="1.0" standalone="no"?>
<!DOCTYPE svg PUBLIC "-//W3C//DTD SVG 1.1//EN"
 "http://www.w3.org/Graphics/SVG/1.1/DTD/svg11.dtd">
<!-- generate by Japanese dictionary app com.asnsami.kanjidictionary -->

<svg xmlns="http://www.w3.org/2000/svg" xmlns:sodipodi="http://sodipodi.sourceforge.net/DTD/sodipodi-0.dtd" version="1.1" width="640" height="256" viewBox="0 0 5120 2048">
	<g id="id0:id0" transform="translate(0.0,0)">
		<g id="id0:id0:id0" transform="matrix(1.0,0,0,1.0,0,0.0)">			<g stroke="lightgray" stroke-width="4" transform="scale(4, 4)"> <rect x="0" y="0" width="256" height="256" fill="white" stroke-width="4"/></g>
			<g transform="scale(0.92, -0.92) translate(60, -920)">					<path d="M 536 704 Q 554 728 576 750 Q 589 767 564 783.5 Q 539 800 514 810 Q 497 814 496 794 Q 501 740 457 678.5 Q 413 617 374 590 Q 353 563 404 588 Q 439 608 468 634 L 480 640 L 518 678 L 536 704 Z" fill="red"></path>
				<path d="M 634 570 Q 682 627 760 664 Q 787 679 743 706 Q 698 732 672 726 Q 601 697 536 704 C 506 706 491 691 518 678 Q 550 661 562 666 Q 585 670 626 677 Q 667 684 654 664 Q 623 624 586 596 L 556 568 Q 451 469 326 422 Q 293 409 308 409 Q 323 408 346 414 Q 438 435 495 468 Q 551 501 596 540 L 634 570 Z" fill="lightgray"></path>
				<path d="M 970 448 Q 980 456 970 464 Q 779 487 634 570 L 586 596 Q 547 619 508 640 Q 498 644 480 640 C 463 638 463 638 468 634 Q 510 601 556 568 L 596 540 Q 670 491 744 440 Q 780 416 828 422 Q 905 432 970 448 Z" fill="lightgray"></path>
				<path d="M 614 386 Q 678 398 710 404 Q 727 410 710.5 425.5 Q 694 441 666 438 Q 637 430 612 426 L 566 418 Q 511 406 454 400 Q 425 391 455 382.5 Q 485 374 496 374 Q 535 376 566 378 L 614 386 Z" fill="lightgray"></path>
				<path d="M 614 304 Q 655 313 700 322 Q 718 331 698.5 342.5 Q 679 354 650 350 L 614 344 L 566 336 Q 524 327 492 324 Q 443 313 502 300 Q 538 296 566 298 L 614 304 Z" fill="lightgray"></path>
				<path d="M 612 228 Q 715 236 812 242 Q 835 246 828 260 Q 821 274 808 280 Q 774 295 746 286 Q 719 281 678.5 274.5 Q 638 268 614 262 L 566 256 Q 454 238 360 232 Q 321 229 351.5 210.5 Q 382 192 418 194 Q 493 208 566 220 L 612 228 Z" fill="lightgray"></path>
				<path d="M 612 158 Q 613 193 612 228 L 614 262 L 614 304 L 614 344 Q 615 363 614 386 L 612 426 Q 611 445 614 452 Q 617 470 597 479.5 Q 577 489 566 490 Q 538 490 546 476 Q 565 439 566 418 L 566 378 Q 566 355 566 336 L 566 298 Q 566 277 566 256 L 566 220 Q 561 153 572 98 Q 586 52 598.5 82.5 Q 611 113 612 158 Z" fill="lightgray"></path>
				<path d="M 260 560 Q 287 556 293 579.5 Q 299 603 294 618 Q 275 653 243 663.5 Q 211 674 184 680 Q 144 687 164 664 Q 183 632 210 600 Q 237 568 260 560 Z" fill="lightgray"></path>
				<path d="M 236 156 Q 242 177 228 220 Q 211 251 199 266 Q 187 281 192 294 Q 212 341 274 392 Q 297 415 257 438 Q 216 460 190 450 Q 161 430 121 419 Q 80 407 46 404 Q 24 398 42 385 Q 60 371 84 374 Q 159 389 178 396 Q 190 395 182 368 Q 173 341 160 300 Q 147 278 164 262 Q 199 221 204 156 C 207 126 232 126 236 156 Z" fill="lightgray"></path>
				<path d="M 204 156 Q 181 155 135 142 Q 89 129 52 108 Q 41 100 62.5 90 Q 84 80 104 86 Q 120 96 152.5 110.5 Q 185 125 232 120 Q 266 113 336.5 90.5 Q 407 68 491 40 Q 575 12 649 -10.5 Q 723 -33 766 -43 Q 818 -49 898.5 -19 Q 979 11 1000 28 Q 1012 40 994 40 Q 916 35 830 35.5 Q 744 36 686 44 Q 547 66 422.5 104.5 Q 298 143 236 156 L 204 156 Z" fill="lightgray"></path>
</g>
		<text x="40" y="140" font-size="128" fill="#999999">1</text></g>
		<g id="id0:id1:id1" transform="matrix(1.0,0,0,1.0,1024,0.0)">			<g stroke="lightgray" stroke-width="4" transform="scale(4, 4)"> <rect x="0" y="0" width="256" height="256" fill="white" stroke-width="4"/></g>
			<g transform="scale(0.92, -0.92) translate(60, -920)">					<path d="M 536 704 Q 554 728 576 750 Q 589 767 564 783.5 Q 539 800 514 810 Q 497 814 496 794 Q 501 740 457 678.5 Q 413 617 374 590 Q 353 563 404 588 Q 439 608 468 634 L 480 640 L 518 678 L 536 704 Z" fill="black"></path>
				<path d="M 634 570 Q 682 627 760 664 Q 787 679 743 706 Q 698 732 672 726 Q 601 697 536 704 C 506 706 491 691 518 678 Q 550 661 562 666 Q 585 670 626 677 Q 667 684 654 664 Q 623 624 586 596 L 556 568 Q 451 469 326 422 Q 293 409 308 409 Q 323 408 346 414 Q 438 435 495 468 Q 551 501 596 540 L 634 570 Z" fill="red"></path>
				<path d="M 970 448 Q 980 456 970 464 Q 779 487 634 570 L 586 596 Q 547 619 508 640 Q 498 644 480 640 C 463 638 463 638 468 634 Q 510 601 556 568 L 596 540 Q 670 491 744 440 Q 780 416 828 422 Q 905 432 970 448 Z" fill="lightgray"></path>
				<path d="M 614 386 Q 678 398 710 404 Q 727 410 710.5 425.5 Q 694 441 666 438 Q 637 430 612 426 L 566 418 Q 511 406 454 400 Q 425 391 455 382.5 Q 485 374 496 374 Q 535 376 566 378 L 614 386 Z" fill="lightgray"></path>
				<path d="M 614 304 Q 655 313 700 322 Q 718 331 698.5 342.5 Q 679 354 650 350 L 614 344 L 566 336 Q 524 327 492 324 Q 443 313 502 300 Q 538 296 566 298 L 614 304 Z" fill="lightgray"></path>
				<path d="M 612 228 Q 715 236 812 242 Q 835 246 828 260 Q 821 274 808 280 Q 774 295 746 286 Q 719 281 678.5 274.5 Q 638 268 614 262 L 566 256 Q 454 238 360 232 Q 321 229 351.5 210.5 Q 382 192 418 194 Q 493 208 566 220 L 612 228 Z" fill="lightgray"></path>
				<path d="M 612 158 Q 613 193 612 228 L 614 262 L 614 304 L 614 344 Q 615 363 614 386 L 612 426 Q 611 445 614 452 Q 617 470 597 479.5 Q 577 489 566 490 Q 538 490 546 476 Q 565 439 566 418 L 566 378 Q 566 355 566 336 L 566 298 Q 566 277 566 256 L 566 220 Q 561 153 572 98 Q 586 52 598.5 82.5 Q 611 113 612 158 Z" fill="lightgray"></path>
				<path d="M 260 560 Q 287 556 293 579.5 Q 299 603 294 618 Q 275 653 243 663.5 Q 211 674 184 680 Q 144 687 164 664 Q 183 632 210 600 Q 237 568 260 560 Z" fill="lightgray"></path>
				<path d="M 236 156 Q 242 177 228 220 Q 211 251 199 266 Q 187 281 192 294 Q 212 341 274 392 Q 297 415 257 438 Q 216 460 190 450 Q 161 430 121 419 Q 80 407 46 404 Q 24 398 42 385 Q 60 371 84 374 Q 159 389 178 396 Q 190 395 182 368 Q 173 341 160 300 Q 147 278 164 262 Q 199 221 204 156 C 207 126 232 126 236 156 Z" fill="lightgray"></path>
				<path d="M 204 156 Q 181 155 135 142 Q 89 129 52 108 Q 41 100 62.5 90 Q 84 80 104 86 Q 120 96 152.5 110.5 Q 185 125 232 120 Q 266 113 336.5 90.5 Q 407 68 491 40 Q 575 12 649 -10.5 Q 723 -33 766 -43 Q 818 -49 898.5 -19 Q 979 11 1000 28 Q 1012 40 994 40 Q 916 35 830 35.5 Q 744 36 686 44 Q 547 66 422.5 104.5 Q 298 143 236 156 L 204 156 Z" fill="lightgray"></path>
</g>
		<text x="40" y="140" font-size="128" fill="#999999">2</text></g>
		<g id="id0:id2:id2" transform="matrix(1.0,0,0,1.0,2048,0.0)">			<g stroke="lightgray" stroke-width="4" transform="scale(4, 4)"> <rect x="0" y="0" width="256" height="256" fill="white" stroke-width="4"/></g>
			<g transform="scale(0.92, -0.92) translate(60, -920)">					<path d="M 536 704 Q 554 728 576 750 Q 589 767 564 783.5 Q 539 800 514 810 Q 497 814 496 794 Q 501 740 457 678.5 Q 413 617 374 590 Q 353 563 404 588 Q 439 608 468 634 L 480 640 L 518 678 L 536 704 Z" fill="black"></path>
				<path d="M 634 570 Q 682 627 760 664 Q 787 679 743 706 Q 698 732 672 726 Q 601 697 536 704 C 506 706 491 691 518 678 Q 550 661 562 666 Q 585 670 626 677 Q 667 684 654 664 Q 623 624 586 596 L 556 568 Q 451 469 326 422 Q 293 409 308 409 Q 323 408 346 414 Q 438 435 495 468 Q 551 501 596 540 L 634 570 Z" fill="black"></path>
				<path d="M 970 448 Q 980 456 970 464 Q 779 487 634 570 L 586 596 Q 547 619 508 640 Q 498 644 480 640 C 463 638 463 638 468 634 Q 510 601 556 568 L 596 540 Q 670 491 744 440 Q 780 416 828 422 Q 905 432 970 448 Z" fill="red"></path>
				<path d="M 614 386 Q 678 398 710 404 Q 727 410 710.5 425.5 Q 694 441 666 438 Q 637 430 612 426 L 566 418 Q 511 406 454 400 Q 425 391 455 382.5 Q 485 374 496 374 Q 535 376 566 378 L 614 386 Z" fill="lightgray"></path>
				<path d="M 614 304 Q 655 313 700 322 Q 718 331 698.5 342.5 Q 679 354 650 350 L 614 344 L 566 336 Q 524 327 492 324 Q 443 313 502 300 Q 538 296 566 298 L 614 304 Z" fill="lightgray"></path>
				<path d="M 612 228 Q 715 236 812 242 Q 835 246 828 260 Q 821 274 808 280 Q 774 295 746 286 Q 719 281 678.5 274.5 Q 638 268 614 262 L 566 256 Q 454 238 360 232 Q 321 229 351.5 210.5 Q 382 192 418 194 Q 493 208 566 220 L 612 228 Z" fill="lightgray"></path>
				<path d="M 612 158 Q 613 193 612 228 L 614 262 L 614 304 L 614 344 Q 615 363 614 386 L 612 426 Q 611 445 614 452 Q 617 470 597 479.5 Q 577 489 566 490 Q 538 490 546 476 Q 565 439 566 418 L 566 378 Q 566 355 566 336 L 566 298 Q 566 277 566 256 L 566 220 Q 561 153 572 98 Q 586 52 598.5 82.5 Q 611 113 612 158 Z" fill="lightgray"></path>
				<path d="M 260 560 Q 287 556 293 579.5 Q 299 603 294 618 Q 275 653 243 663.5 Q 211 674 184 680 Q 144 687 164 664 Q 183 632 210 600 Q 237 568 260 560 Z" fill="lightgray"></path>
				<path d="M 236 156 Q 242 177 228 220 Q 211 251 199 266 Q 187 281 192 294 Q 212 341 274 392 Q 297 415 257 438 Q 216 460 190 450 Q 161 430 121 419 Q 80 407 46 404 Q 24 398 42 385 Q 60 371 84 374 Q 159 389 178 396 Q 190 395 182 368 Q 173 341 160 300 Q 147 278 164 262 Q 199 221 204 156 C 207 126 232 126 236 156 Z" fill="lightgray"></path>
				<path d="M 204 156 Q 181 155 135 142 Q 89 129 52 108 Q 41 100 62.5 90 Q 84 80 104 86 Q 120 96 152.5 110.5 Q 185 125 232 120 Q 266 113 336.5 90.5 Q 407 68 491 40 Q 575 12 649 -10.5 Q 723 -33 766 -43 Q 818 -49 898.5 -19 Q 979 11 1000 28 Q 1012 40 994 40 Q 916 35 830 35.5 Q 744 36 686 44 Q 547 66 422.5 104.5 Q 298 143 236 156 L 204 156 Z" fill="lightgray"></path>
</g>
		<text x="40" y="140" font-size="128" fill="#999999">3</text></g>
		<g id="id0:id3:id3" transform="matrix(1.0,0,0,1.0,3072,0.0)">			<g stroke="lightgray" stroke-width="4" transform="scale(4, 4)"> <rect x="0" y="0" width="256" height="256" fill="white" stroke-width="4"/></g>
			<g transform="scale(0.92, -0.92) translate(60, -920)">					<path d="M 536 704 Q 554 728 576 750 Q 589 767 564 783.5 Q 539 800 514 810 Q 497 814 496 794 Q 501 740 457 678.5 Q 413 617 374 590 Q 353 563 404 588 Q 439 608 468 634 L 480 640 L 518 678 L 536 704 Z" fill="black"></path>
				<path d="M 634 570 Q 682 627 760 664 Q 787 679 743 706 Q 698 732 672 726 Q 601 697 536 704 C 506 706 491 691 518 678 Q 550 661 562 666 Q 585 670 626 677 Q 667 684 654 664 Q 623 624 586 596 L 556 568 Q 451 469 326 422 Q 293 409 308 409 Q 323 408 346 414 Q 438 435 495 468 Q 551 501 596 540 L 634 570 Z" fill="black"></path>
				<path d="M 970 448 Q 980 456 970 464 Q 779 487 634 570 L 586 596 Q 547 619 508 640 Q 498 644 480 640 C 463 638 463 638 468 634 Q 510 601 556 568 L 596 540 Q 670 491 744 440 Q 780 416 828 422 Q 905 432 970 448 Z" fill="black"></path>
				<path d="M 614 386 Q 678 398 710 404 Q 727 410 710.5 425.5 Q 694 441 666 438 Q 637 430 612 426 L 566 418 Q 511 406 454 400 Q 425 391 455 382.5 Q 485 374 496 374 Q 535 376 566 378 L 614 386 Z" fill="red"></path>
				<path d="M 614 304 Q 655 313 700 322 Q 718 331 698.5 342.5 Q 679 354 650 350 L 614 344 L 566 336 Q 524 327 492 324 Q 443 313 502 300 Q 538 296 566 298 L 614 304 Z" fill="lightgray"></path>
				<path d="M 612 228 Q 715 236 812 242 Q 835 246 828 260 Q 821 274 808 280 Q 774 295 746 286 Q 719 281 678.5 274.5 Q 638 268 614 262 L 566 256 Q 454 238 360 232 Q 321 229 351.5 210.5 Q 382 192 418 194 Q 493 208 566 220 L 612 228 Z" fill="lightgray"></path>
				<path d="M 612 158 Q 613 193 612 228 L 614 262 L 614 304 L 614 344 Q 615 363 614 386 L 612 426 Q 611 445 614 452 Q 617 470 597 479.5 Q 577 489 566 490 Q 538 490 546 476 Q 565 439 566 418 L 566 378 Q 566 355 566 336 L 566 298 Q 566 277 566 256 L 566 220 Q 561 153 572 98 Q 586 52 598.5 82.5 Q 611 113 612 158 Z" fill="lightgray"></path>
				<path d="M 260 560 Q 287 556 293 579.5 Q 299 603 294 618 Q 275 653 243 663.5 Q 211 674 184 680 Q 144 687 164 664 Q 183 632 210 600 Q 237 568 260 560 Z" fill="lightgray"></path>
				<path d="M 236 156 Q 242 177 228 220 Q 211 251 199 266 Q 187 281 192 294 Q 212 341 274 392 Q 297 415 257 438 Q 216 460 190 450 Q 161 430 121 419 Q 80 407 46 404 Q 24 398 42 385 Q 60 371 84 374 Q 159 389 178 396 Q 190 395 182 368 Q 173 341 160 300 Q 147 278 164 262 Q 199 221 204 156 C 207 126 232 126 236 156 Z" fill="lightgray"></path>
				<path d="M 204 156 Q 181 155 135 142 Q 89 129 52 108 Q 41 100 62.5 90 Q 84 80 104 86 Q 120 96 152.5 110.5 Q 185 125 232 120 Q 266 113 336.5 90.5 Q 407 68 491 40 Q 575 12 649 -10.5 Q 723 -33 766 -43 Q 818 -49 898.5 -19 Q 979 11 1000 28 Q 1012 40 994 40 Q 916 35 830 35.5 Q 744 36 686 44 Q 547 66 422.5 104.5 Q 298 143 236 156 L 204 156 Z" fill="lightgray"></path>
</g>
		<text x="40" y="140" font-size="128" fill="#999999">4</text></g>
		<g id="id0:id4:id4" transform="matrix(1.0,0,0,1.0,4096,0.0)">			<g stroke="lightgray" stroke-width="4" transform="scale(4, 4)"> <rect x="0" y="0" width="256" height="256" fill="white" stroke-width="4"/></g>
			<g transform="scale(0.92, -0.92) translate(60, -920)">					<path d="M 536 704 Q 554 728 576 750 Q 589 767 564 783.5 Q 539 800 514 810 Q 497 814 496 794 Q 501 740 457 678.5 Q 413 617 374 590 Q 353 563 404 588 Q 439 608 468 634 L 480 640 L 518 678 L 536 704 Z" fill="black"></path>
				<path d="M 634 570 Q 682 627 760 664 Q 787 679 743 706 Q 698 732 672 726 Q 601 697 536 704 C 506 706 491 691 518 678 Q 550 661 562 666 Q 585 670 626 677 Q 667 684 654 664 Q 623 624 586 596 L 556 568 Q 451 469 326 422 Q 293 409 308 409 Q 323 408 346 414 Q 438 435 495 468 Q 551 501 596 540 L 634 570 Z" fill="black"></path>
				<path d="M 970 448 Q 980 456 970 464 Q 779 487 634 570 L 586 596 Q 547 619 508 640 Q 498 644 480 640 C 463 638 463 638 468 634 Q 510 601 556 568 L 596 540 Q 670 491 744 440 Q 780 416 828 422 Q 905 432 970 448 Z" fill="black"></path>
				<path d="M 614 386 Q 678 398 710 404 Q 727 410 710.5 425.5 Q 694 441 666 438 Q 637 430 612 426 L 566 418 Q 511 406 454 400 Q 425 391 455 382.5 Q 485 374 496 374 Q 535 376 566 378 L 614 386 Z" fill="black"></path>
				<path d="M 614 304 Q 655 313 700 322 Q 718 331 698.5 342.5 Q 679 354 650 350 L 614 344 L 566 336 Q 524 327 492 324 Q 443 313 502 300 Q 538 296 566 298 L 614 304 Z" fill="red"></path>
				<path d="M 612 228 Q 715 236 812 242 Q 835 246 828 260 Q 821 274 808 280 Q 774 295 746 286 Q 719 281 678.5 274.5 Q 638 268 614 262 L 566 256 Q 454 238 360 232 Q 321 229 351.5 210.5 Q 382 192 418 194 Q 493 208 566 220 L 612 228 Z" fill="lightgray"></path>
				<path d="M 612 158 Q 613 193 612 228 L 614 262 L 614 304 L 614 344 Q 615 363 614 386 L 612 426 Q 611 445 614 452 Q 617 470 597 479.5 Q 577 489 566 490 Q 538 490 546 476 Q 565 439 566 418 L 566 378 Q 566 355 566 336 L 566 298 Q 566 277 566 256 L 566 220 Q 561 153 572 98 Q 586 52 598.5 82.5 Q 611 113 612 158 Z" fill="lightgray"></path>
				<path d="M 260 560 Q 287 556 293 579.5 Q 299 603 294 618 Q 275 653 243 663.5 Q 211 674 184 680 Q 144 687 164 664 Q 183 632 210 600 Q 237 568 260 560 Z" fill="lightgray"></path>
				<path d="M 236 156 Q 242 177 228 220 Q 211 251 199 266 Q 187 281 192 294 Q 212 341 274 392 Q 297 415 257 438 Q 216 460 190 450 Q 161 430 121 419 Q 80 407 46 404 Q 24 398 42 385 Q 60 371 84 374 Q 159 389 178 396 Q 190 395 182 368 Q 173 341 160 300 Q 147 278 164 262 Q 199 221 204 156 C 207 126 232 126 236 156 Z" fill="lightgray"></path>
				<path d="M 204 156 Q 181 155 135 142 Q 89 129 52 108 Q 41 100 62.5 90 Q 84 80 104 86 Q 120 96 152.5 110.5 Q 185 125 232 120 Q 266 113 336.5 90.5 Q 407 68 491 40 Q 575 12 649 -10.5 Q 723 -33 766 -43 Q 818 -49 898.5 -19 Q 979 11 1000 28 Q 1012 40 994 40 Q 916 35 830 35.5 Q 744 36 686 44 Q 547 66 422.5 104.5 Q 298 143 236 156 L 204 156 Z" fill="lightgray"></path>
</g>
		<text x="40" y="140" font-size="128" fill="#999999">5</text></g>
</g>
	<g id="id1:id1" transform="translate(0.0,1024)">
		<g id="id1:id0:id0" transform="matrix(1.0,0,0,1.0,0,0.0)">			<g stroke="lightgray" stroke-width="4" transform="scale(4, 4)"> <rect x="0" y="0" width="256" height="256" fill="white" stroke-width="4"/></g>
			<g transform="scale(0.92, -0.92) translate(60, -920)">					<path d="M 536 704 Q 554 728 576 750 Q 589 767 564 783.5 Q 539 800 514 810 Q 497 814 496 794 Q 501 740 457 678.5 Q 413 617 374 590 Q 353 563 404 588 Q 439 608 468 634 L 480 640 L 518 678 L 536 704 Z" fill="black"></path>
				<path d="M 634 570 Q 682 627 760 664 Q 787 679 743 706 Q 698 732 672 726 Q 601 697 536 704 C 506 706 491 691 518 678 Q 550 661 562 666 Q 585 670 626 677 Q 667 684 654 664 Q 623 624 586 596 L 556 568 Q 451 469 326 422 Q 293 409 308 409 Q 323 408 346 414 Q 438 435 495 468 Q 551 501 596 540 L 634 570 Z" fill="black"></path>
				<path d="M 970 448 Q 980 456 970 464 Q 779 487 634 570 L 586 596 Q 547 619 508 640 Q 498 644 480 640 C 463 638 463 638 468 634 Q 510 601 556 568 L 596 540 Q 670 491 744 440 Q 780 416 828 422 Q 905 432 970 448 Z" fill="black"></path>
				<path d="M 614 386 Q 678 398 710 404 Q 727 410 710.5 425.5 Q 694 441 666 438 Q 637 430 612 426 L 566 418 Q 511 406 454 400 Q 425 391 455 382.5 Q 485 374 496 374 Q 535 376 566 378 L 614 386 Z" fill="black"></path>
				<path d="M 614 304 Q 655 313 700 322 Q 718 331 698.5 342.5 Q 679 354 650 350 L 614 344 L 566 336 Q 524 327 492 324 Q 443 313 502 300 Q 538 296 566 298 L 614 304 Z" fill="black"></path>
				<path d="M 612 228 Q 715 236 812 242 Q 835 246 828 260 Q 821 274 808 280 Q 774 295 746 286 Q 719 281 678.5 274.5 Q 638 268 614 262 L 566 256 Q 454 238 360 232 Q 321 229 351.5 210.5 Q 382 192 418 194 Q 493 208 566 220 L 612 228 Z" fill="red"></path>
				<path d="M 612 158 Q 613 193 612 228 L 614 262 L 614 304 L 614 344 Q 615 363 614 386 L 612 426 Q 611 445 614 452 Q 617 470 597 479.5 Q 577 489 566 490 Q 538 490 546 476 Q 565 439 566 418 L 566 378 Q 566 355 566 336 L 566 298 Q 566 277 566 256 L 566 220 Q 561 153 572 98 Q 586 52 598.5 82.5 Q 611 113 612 158 Z" fill="lightgray"></path>
				<path d="M 260 560 Q 287 556 293 579.5 Q 299 603 294 618 Q 275 653 243 663.5 Q 211 674 184 680 Q 144 687 164 664 Q 183 632 210 600 Q 237 568 260 560 Z" fill="lightgray"></path>
				<path d="M 236 156 Q 242 177 228 220 Q 211 251 199 266 Q 187 281 192 294 Q 212 341 274 392 Q 297 415 257 438 Q 216 460 190 450 Q 161 430 121 419 Q 80 407 46 404 Q 24 398 42 385 Q 60 371 84 374 Q 159 389 178 396 Q 190 395 182 368 Q 173 341 160 300 Q 147 278 164 262 Q 199 221 204 156 C 207 126 232 126 236 156 Z" fill="lightgray"></path>
				<path d="M 204 156 Q 181 155 135 142 Q 89 129 52 108 Q 41 100 62.5 90 Q 84 80 104 86 Q 120 96 152.5 110.5 Q 185 125 232 120 Q 266 113 336.5 90.5 Q 407 68 491 40 Q 575 12 649 -10.5 Q 723 -33 766 -43 Q 818 -49 898.5 -19 Q 979 11 1000 28 Q 1012 40 994 40 Q 916 35 830 35.5 Q 744 36 686 44 Q 547 66 422.5 104.5 Q 298 143 236 156 L 204 156 Z" fill="lightgray"></path>
</g>
		<text x="40" y="140" font-size="128" fill="#999999">6</text></g>
		<g id="id1:id1:id1" transform="matrix(1.0,0,0,1.0,1024,0.0)">			<g stroke="lightgray" stroke-width="4" transform="scale(4, 4)"> <rect x="0" y="0" width="256" height="256" fill="white" stroke-width="4"/></g>
			<g transform="scale(0.92, -0.92) translate(60, -920)">					<path d="M 536 704 Q 554 728 576 750 Q 589 767 564 783.5 Q 539 800 514 810 Q 497 814 496 794 Q 501 740 457 678.5 Q 413 617 374 590 Q 353 563 404 588 Q 439 608 468 634 L 480 640 L 518 678 L 536 704 Z" fill="black"></path>
				<path d="M 634 570 Q 682 627 760 664 Q 787 679 743 706 Q 698 732 672 726 Q 601 697 536 704 C 506 706 491 691 518 678 Q 550 661 562 666 Q 585 670 626 677 Q 667 684 654 664 Q 623 624 586 596 L 556 568 Q 451 469 326 422 Q 293 409 308 409 Q 323 408 346 414 Q 438 435 495 468 Q 551 501 596 540 L 634 570 Z" fill="black"></path>
				<path d="M 970 448 Q 980 456 970 464 Q 779 487 634 570 L 586 596 Q 547 619 508 640 Q 498 644 480 640 C 463 638 463 638 468 634 Q 510 601 556 568 L 596 540 Q 670 491 744 440 Q 780 416 828 422 Q 905 432 970 448 Z" fill="black"></path>
				<path d="M 614 386 Q 678 398 710 404 Q 727 410 710.5 425.5 Q 694 441 666 438 Q 637 430 612 426 L 566 418 Q 511 406 454 400 Q 425 391 455 382.5 Q 485 374 496 374 Q 535 376 566 378 L 614 386 Z" fill="black"></path>
				<path d="M 614 304 Q 655 313 700 322 Q 718 331 698.5 342.5 Q 679 354 650 350 L 614 344 L 566 336 Q 524 327 492 324 Q 443 313 502 300 Q 538 296 566 298 L 614 304 Z" fill="black"></path>
				<path d="M 612 228 Q 715 236 812 242 Q 835 246 828 260 Q 821 274 808 280 Q 774 295 746 286 Q 719 281 678.5 274.5 Q 638 268 614 262 L 566 256 Q 454 238 360 232 Q 321 229 351.5 210.5 Q 382 192 418 194 Q 493 208 566 220 L 612 228 Z" fill="black"></path>
				<path d="M 612 158 Q 613 193 612 228 L 614 262 L 614 304 L 614 344 Q 615 363 614 386 L 612 426 Q 611 445 614 452 Q 617 470 597 479.5 Q 577 489 566 490 Q 538 490 546 476 Q 565 439 566 418 L 566 378 Q 566 355 566 336 L 566 298 Q 566 277 566 256 L 566 220 Q 561 153 572 98 Q 586 52 598.5 82.5 Q 611 113 612 158 Z" fill="red"></path>
				<path d="M 260 560 Q 287 556 293 579.5 Q 299 603 294 618 Q 275 653 243 663.5 Q 211 674 184 680 Q 144 687 164 664 Q 183 632 210 600 Q 237 568 260 560 Z" fill="lightgray"></path>
				<path d="M 236 156 Q 242 177 228 220 Q 211 251 199 266 Q 187 281 192 294 Q 212 341 274 392 Q 297 415 257 438 Q 216 460 190 450 Q 161 430 121 419 Q 80 407 46 404 Q 24 398 42 385 Q 60 371 84 374 Q 159 389 178 396 Q 190 395 182 368 Q 173 341 160 300 Q 147 278 164 262 Q 199 221 204 156 C 207 126 232 126 236 156 Z" fill="lightgray"></path>
				<path d="M 204 156 Q 181 155 135 142 Q 89 129 52 108 Q 41 100 62.5 90 Q 84 80 104 86 Q 120 96 152.5 110.5 Q 185 125 232 120 Q 266 113 336.5 90.5 Q 407 68 491 40 Q 575 12 649 -10.5 Q 723 -33 766 -43 Q 818 -49 898.5 -19 Q 979 11 1000 28 Q 1012 40 994 40 Q 916 35 830 35.5 Q 744 36 686 44 Q 547 66 422.5 104.5 Q 298 143 236 156 L 204 156 Z" fill="lightgray"></path>
</g>
		<text x="40" y="140" font-size="128" fill="#999999">7</text></g>
		<g id="id1:id2:id2" transform="matrix(1.0,0,0,1.0,2048,0.0)">			<g stroke="lightgray" stroke-width="4" transform="scale(4, 4)"> <rect x="0" y="0" width="256" height="256" fill="white" stroke-width="4"/></g>
			<g transform="scale(0.92, -0.92) translate(60, -920)">					<path d="M 536 704 Q 554 728 576 750 Q 589 767 564 783.5 Q 539 800 514 810 Q 497 814 496 794 Q 501 740 457 678.5 Q 413 617 374 590 Q 353 563 404 588 Q 439 608 468 634 L 480 640 L 518 678 L 536 704 Z" fill="black"></path>
				<path d="M 634 570 Q 682 627 760 664 Q 787 679 743 706 Q 698 732 672 726 Q 601 697 536 704 C 506 706 491 691 518 678 Q 550 661 562 666 Q 585 670 626 677 Q 667 684 654 664 Q 623 624 586 596 L 556 568 Q 451 469 326 422 Q 293 409 308 409 Q 323 408 346 414 Q 438 435 495 468 Q 551 501 596 540 L 634 570 Z" fill="black"></path>
				<path d="M 970 448 Q 980 456 970 464 Q 779 487 634 570 L 586 596 Q 547 619 508 640 Q 498 644 480 640 C 463 638 463 638 468 634 Q 510 601 556 568 L 596 540 Q 670 491 744 440 Q 780 416 828 422 Q 905 432 970 448 Z" fill="black"></path>
				<path d="M 614 386 Q 678 398 710 404 Q 727 410 710.5 425.5 Q 694 441 666 438 Q 637 430 612 426 L 566 418 Q 511 406 454 400 Q 425 391 455 382.5 Q 485 374 496 374 Q 535 376 566 378 L 614 386 Z" fill="black"></path>
				<path d="M 614 304 Q 655 313 700 322 Q 718 331 698.5 342.5 Q 679 354 650 350 L 614 344 L 566 336 Q 524 327 492 324 Q 443 313 502 300 Q 538 296 566 298 L 614 304 Z" fill="black"></path>
				<path d="M 612 228 Q 715 236 812 242 Q 835 246 828 260 Q 821 274 808 280 Q 774 295 746 286 Q 719 281 678.5 274.5 Q 638 268 614 262 L 566 256 Q 454 238 360 232 Q 321 229 351.5 210.5 Q 382 192 418 194 Q 493 208 566 220 L 612 228 Z" fill="black"></path>
				<path d="M 612 158 Q 613 193 612 228 L 614 262 L 614 304 L 614 344 Q 615 363 614 386 L 612 426 Q 611 445 614 452 Q 617 470 597 479.5 Q 577 489 566 490 Q 538 490 546 476 Q 565 439 566 418 L 566 378 Q 566 355 566 336 L 566 298 Q 566 277 566 256 L 566 220 Q 561 153 572 98 Q 586 52 598.5 82.5 Q 611 113 612 158 Z" fill="black"></path>
				<path d="M 260 560 Q 287 556 293 579.5 Q 299 603 294 618 Q 275 653 243 663.5 Q 211 674 184 680 Q 144 687 164 664 Q 183 632 210 600 Q 237 568 260 560 Z" fill="red"></path>
				<path d="M 236 156 Q 242 177 228 220 Q 211 251 199 266 Q 187 281 192 294 Q 212 341 274 392 Q 297 415 257 438 Q 216 460 190 450 Q 161 430 121 419 Q 80 407 46 404 Q 24 398 42 385 Q 60 371 84 374 Q 159 389 178 396 Q 190 395 182 368 Q 173 341 160 300 Q 147 278 164 262 Q 199 221 204 156 C 207 126 232 126 236 156 Z" fill="lightgray"></path>
				<path d="M 204 156 Q 181 155 135 142 Q 89 129 52 108 Q 41 100 62.5 90 Q 84 80 104 86 Q 120 96 152.5 110.5 Q 185 125 232 120 Q 266 113 336.5 90.5 Q 407 68 491 40 Q 575 12 649 -10.5 Q 723 -33 766 -43 Q 818 -49 898.5 -19 Q 979 11 1000 28 Q 1012 40 994 40 Q 916 35 830 35.5 Q 744 36 686 44 Q 547 66 422.5 104.5 Q 298 143 236 156 L 204 156 Z" fill="lightgray"></path>
</g>
		<text x="40" y="140" font-size="128" fill="#999999">8</text></g>
		<g id="id1:id3:id3" transform="matrix(1.0,0,0,1.0,3072,0.0)">			<g stroke="lightgray" stroke-width="4" transform="scale(4, 4)"> <rect x="0" y="0" width="256" height="256" fill="white" stroke-width="4"/></g>
			<g transform="scale(0.92, -0.92) translate(60, -920)">					<path d="M 536 704 Q 554 728 576 750 Q 589 767 564 783.5 Q 539 800 514 810 Q 497 814 496 794 Q 501 740 457 678.5 Q 413 617 374 590 Q 353 563 404 588 Q 439 608 468 634 L 480 640 L 518 678 L 536 704 Z" fill="black"></path>
				<path d="M 634 570 Q 682 627 760 664 Q 787 679 743 706 Q 698 732 672 726 Q 601 697 536 704 C 506 706 491 691 518 678 Q 550 661 562 666 Q 585 670 626 677 Q 667 684 654 664 Q 623 624 586 596 L 556 568 Q 451 469 326 422 Q 293 409 308 409 Q 323 408 346 414 Q 438 435 495 468 Q 551 501 596 540 L 634 570 Z" fill="black"></path>
				<path d="M 970 448 Q 980 456 970 464 Q 779 487 634 570 L 586 596 Q 547 619 508 640 Q 498 644 480 640 C 463 638 463 638 468 634 Q 510 601 556 568 L 596 540 Q 670 491 744 440 Q 780 416 828 422 Q 905 432 970 448 Z" fill="black"></path>
				<path d="M 614 386 Q 678 398 710 404 Q 727 410 710.5 425.5 Q 694 441 666 438 Q 637 430 612 426 L 566 418 Q 511 406 454 400 Q 425 391 455 382.5 Q 485 374 496 374 Q 535 376 566 378 L 614 386 Z" fill="black"></path>
				<path d="M 614 304 Q 655 313 700 322 Q 718 331 698.5 342.5 Q 679 354 650 350 L 614 344 L 566 336 Q 524 327 492 324 Q 443 313 502 300 Q 538 296 566 298 L 614 304 Z" fill="black"></path>
				<path d="M 612 228 Q 715 236 812 242 Q 835 246 828 260 Q 821 274 808 280 Q 774 295 746 286 Q 719 281 678.5 274.5 Q 638 268 614 262 L 566 256 Q 454 238 360 232 Q 321 229 351.5 210.5 Q 382 192 418 194 Q 493 208 566 220 L 612 228 Z" fill="black"></path>
				<path d="M 612 158 Q 613 193 612 228 L 614 262 L 614 304 L 614 344 Q 615 363 614 386 L 612 426 Q 611 445 614 452 Q 617 470 597 479.5 Q 577 489 566 490 Q 538 490 546 476 Q 565 439 566 418 L 566 378 Q 566 355 566 336 L 566 298 Q 566 277 566 256 L 566 220 Q 561 153 572 98 Q 586 52 598.5 82.5 Q 611 113 612 158 Z" fill="black"></path>
				<path d="M 260 560 Q 287 556 293 579.5 Q 299 603 294 618 Q 275 653 243 663.5 Q 211 674 184 680 Q 144 687 164 664 Q 183 632 210 600 Q 237 568 260 560 Z" fill="black"></path>
				<path d="M 236 156 Q 242 177 228 220 Q 211 251 199 266 Q 187 281 192 294 Q 212 341 274 392 Q 297 415 257 438 Q 216 460 190 450 Q 161 430 121 419 Q 80 407 46 404 Q 24 398 42 385 Q 60 371 84 374 Q 159 389 178 396 Q 190 395 182 368 Q 173 341 160 300 Q 147 278 164 262 Q 199 221 204 156 C 207 126 232 126 236 156 Z" fill="red"></path>
				<path d="M 204 156 Q 181 155 135 142 Q 89 129 52 108 Q 41 100 62.5 90 Q 84 80 104 86 Q 120 96 152.5 110.5 Q 185 125 232 120 Q 266 113 336.5 90.5 Q 407 68 491 40 Q 575 12 649 -10.5 Q 723 -33 766 -43 Q 818 -49 898.5 -19 Q 979 11 1000 28 Q 1012 40 994 40 Q 916 35 830 35.5 Q 744 36 686 44 Q 547 66 422.5 104.5 Q 298 143 236 156 L 204 156 Z" fill="lightgray"></path>
</g>
		<text x="40" y="140" font-size="128" fill="#999999">9</text></g>
		<g id="id1:id4:id4" transform="matrix(1.0,0,0,1.0,4096,0.0)">			<g stroke="lightgray" stroke-width="4" transform="scale(4, 4)"> <rect x="0" y="0" width="256" height="256" fill="white" stroke-width="4"/></g>
			<g transform="scale(0.92, -0.92) translate(60, -920)">					<path d="M 536 704 Q 554 728 576 750 Q 589 767 564 783.5 Q 539 800 514 810 Q 497 814 496 794 Q 501 740 457 678.5 Q 413 617 374 590 Q 353 563 404 588 Q 439 608 468 634 L 480 640 L 518 678 L 536 704 Z" fill="black"></path>
				<path d="M 634 570 Q 682 627 760 664 Q 787 679 743 706 Q 698 732 672 726 Q 601 697 536 704 C 506 706 491 691 518 678 Q 550 661 562 666 Q 585 670 626 677 Q 667 684 654 664 Q 623 624 586 596 L 556 568 Q 451 469 326 422 Q 293 409 308 409 Q 323 408 346 414 Q 438 435 495 468 Q 551 501 596 540 L 634 570 Z" fill="black"></path>
				<path d="M 970 448 Q 980 456 970 464 Q 779 487 634 570 L 586 596 Q 547 619 508 640 Q 498 644 480 640 C 463 638 463 638 468 634 Q 510 601 556 568 L 596 540 Q 670 491 744 440 Q 780 416 828 422 Q 905 432 970 448 Z" fill="black"></path>
				<path d="M 614 386 Q 678 398 710 404 Q 727 410 710.5 425.5 Q 694 441 666 438 Q 637 430 612 426 L 566 418 Q 511 406 454 400 Q 425 391 455 382.5 Q 485 374 496 374 Q 535 376 566 378 L 614 386 Z" fill="black"></path>
				<path d="M 614 304 Q 655 313 700 322 Q 718 331 698.5 342.5 Q 679 354 650 350 L 614 344 L 566 336 Q 524 327 492 324 Q 443 313 502 300 Q 538 296 566 298 L 614 304 Z" fill="black"></path>
				<path d="M 612 228 Q 715 236 812 242 Q 835 246 828 260 Q 821 274 808 280 Q 774 295 746 286 Q 719 281 678.5 274.5 Q 638 268 614 262 L 566 256 Q 454 238 360 232 Q 321 229 351.5 210.5 Q 382 192 418 194 Q 493 208 566 220 L 612 228 Z" fill="black"></path>
				<path d="M 612 158 Q 613 193 612 228 L 614 262 L 614 304 L 614 344 Q 615 363 614 386 L 612 426 Q 611 445 614 452 Q 617 470 597 479.5 Q 577 489 566 490 Q 538 490 546 476 Q 565 439 566 418 L 566 378 Q 566 355 566 336 L 566 298 Q 566 277 566 256 L 566 220 Q 561 153 572 98 Q 586 52 598.5 82.5 Q 611 113 612 158 Z" fill="black"></path>
				<path d="M 260 560 Q 287 556 293 579.5 Q 299 603 294 618 Q 275 653 243 663.5 Q 211 674 184 680 Q 144 687 164 664 Q 183 632 210 600 Q 237 568 260 560 Z" fill="black"></path>
				<path d="M 236 156 Q 242 177 228 220 Q 211 251 199 266 Q 187 281 192 294 Q 212 341 274 392 Q 297 415 257 438 Q 216 460 190 450 Q 161 430 121 419 Q 80 407 46 404 Q 24 398 42 385 Q 60 371 84 374 Q 159 389 178 396 Q 190 395 182 368 Q 173 341 160 300 Q 147 278 164 262 Q 199 221 204 156 C 207 126 232 126 236 156 Z" fill="black"></path>
				<path d="M 204 156 Q 181 155 135 142 Q 89 129 52 108 Q 41 100 62.5 90 Q 84 80 104 86 Q 120 96 152.5 110.5 Q 185 125 232 120 Q 266 113 336.5 90.5 Q 407 68 491 40 Q 575 12 649 -10.5 Q 723 -33 766 -43 Q 818 -49 898.5 -19 Q 979 11 1000 28 Q 1012 40 994 40 Q 916 35 830 35.5 Q 744 36 686 44 Q 547 66 422.5 104.5 Q 298 143 236 156 L 204 156 Z" fill="red"></path>
</g>
		<text x="40" y="140" font-size="128" fill="#999999">10</text></g>
</g>
</svg>
