<?xml version="1.0" standalone="no"?>
<!DOCTYPE svg PUBLIC "-//W3C//DTD SVG 1.1//EN"
 "http://www.w3.org/Graphics/SVG/1.1/DTD/svg11.dtd">
<!-- generate by Japanese dictionary app com.asnsami.kanjidictionary -->

<svg xmlns="http://www.w3.org/2000/svg" xmlns:sodipodi="http://sodipodi.sourceforge.net/DTD/sodipodi-0.dtd" version="1.1" width="640" height="384" viewBox="0 0 5120 3072">
	<g id="id0:id0" transform="translate(0.0,0)">
		<g id="id0:id0:id0" transform="matrix(1.0,0,0,1.0,0,0.0)">			<g stroke="lightgray" stroke-width="4" transform="scale(4, 4)"> <rect x="0" y="0" width="256" height="256" fill="white" stroke-width="4"/></g>
			<g transform="scale(0.92, -0.92) translate(60, -920)">					<path d="M 247 760 Q 237 766 202 772 Q 192 775 188 770 Q 184 764 191 750 Q 213 708 229 640 Q 233 619 245 606 Q 261 587 266 601 Q 267 608 268 617 L 266 645 Q 257 706 253 732 C 249 759 249 759 247 760 Z" fill="red"></path>
				<path d="M 451 676 Q 475 727 499 741 Q 514 757 502 772 Q 489 784 445 805 Q 430 812 348 783 Q 287 768 247 760 C 218 754 224 723 253 732 Q 256 735 397 764 Q 415 768 422 762 Q 431 752 405 676 C 395 648 438 649 451 676 Z" fill="lightgray"></path>
				<path d="M 268 617 Q 275 616 285 618 Q 342 631 466 646 Q 475 647 476 654 Q 476 661 451 676 C 438 684 434 683 405 676 Q 329 657 266 645 C 237 639 238 618 268 617 Z" fill="lightgray"></path>
				<path d="M 239 544 Q 230 554 204 565 Q 195 569 185 565 Q 179 561 184 550 Q 185 543 189 537 Q 208 492 198 327 Q 185 249 200 220 Q 204 213 211 205 Q 221 193 230 204 Q 240 217 240 234 L 242 266 Q 242 272 243 326 L 243 352 Q 243 383 243 408 L 244 435 Q 244 474 246 515 C 247 537 247 537 239 544 Z" fill="lightgray"></path>
				<path d="M 425 247 Q 426 238 433 228 Q 446 201 454 202 Q 467 203 481 233 Q 494 257 493 276 Q 466 465 502 523 Q 512 538 504 547 Q 479 569 433 588 Q 418 594 397 585 Q 352 564 239 544 C 209 539 216 512 246 515 Q 253 514 262 516 Q 337 535 392 545 Q 411 549 417 539 Q 430 523 431 464 Q 435 308 427 272 L 425 247 Z" fill="lightgray"></path>
				<path d="M 243 408 Q 244 408 248 408 Q 320 421 372 429 Q 394 433 385 445 Q 375 458 351 462 Q 312 465 244 435 C 216 423 213 408 243 408 Z" fill="lightgray"></path>
				<path d="M 243 326 Q 247 326 252 326 Q 325 333 378 338 Q 400 341 393 353 Q 383 366 359 372 Q 331 378 243 352 C 214 344 213 326 243 326 Z" fill="lightgray"></path>
				<path d="M 240 234 Q 246 233 256 234 Q 308 244 425 247 C 454 248 449 252 427 272 Q 421 278 412 284 Q 397 293 368 287 Q 298 274 242 266 C 212 262 210 236 240 234 Z" fill="lightgray"></path>
				<path d="M 237 173 Q 228 125 113 31 Q 92 18 118 20 Q 175 20 264 103 Q 264 106 302 138 Q 312 148 311 157 Q 308 170 285 178 Q 258 188 247 186 Q 240 185 237 173 Z" fill="lightgray"></path>
				<path d="M 396 149 Q 430 112 466 66 Q 476 53 490 51 Q 499 50 505 61 Q 511 73 508 100 Q 507 125 473 150 Q 398 199 380 195 Q 376 192 375 181 Q 376 171 396 149 Z" fill="lightgray"></path>
				<path d="M 641 608 Q 650 611 662 617 Q 702 633 736 646 Q 740 649 752 643 Q 762 636 755 615 Q 730 539 715 512 Q 709 502 710 494 Q 710 481 730 470 Q 818 425 842 334 Q 848 297 832 275 Q 819 265 792 270 Q 752 279 718 283 Q 711 284 711 277 Q 714 270 728 260 Q 806 218 821 192 Q 828 179 842 177 Q 852 176 868 188 Q 905 234 907 296 Q 907 381 781 475 Q 736 503 779 554 Q 791 573 802 586 Q 821 614 845 627 Q 873 645 847 663 Q 808 693 785 702 Q 769 708 754 699 Q 724 672 625 638 C 597 628 613 596 641 608 Z" fill="lightgray"></path>
				<path d="M 625 638 Q 595 656 582 657 Q 569 661 554 653 Q 545 644 553 635 Q 577 578 579 570 Q 579 564 580 557 Q 584 412 583 183 Q 583 -18 602 -41 Q 608 -48 615 -46 Q 630 -37 634 22 Q 641 104 638 184 Q 632 275 632 540 Q 632 549 641 608 C 644 628 644 628 625 638 Z" fill="lightgray"></path>
</g>
		<text x="40" y="140" font-size="128" fill="#999999">1</text></g>
		<g id="id0:id1:id1" transform="matrix(1.0,0,0,1.0,1024,0.0)">			<g stroke="lightgray" stroke-width="4" transform="scale(4, 4)"> <rect x="0" y="0" width="256" height="256" fill="white" stroke-width="4"/></g>
			<g transform="scale(0.92, -0.92) translate(60, -920)">					<path d="M 247 760 Q 237 766 202 772 Q 192 775 188 770 Q 184 764 191 750 Q 213 708 229 640 Q 233 619 245 606 Q 261 587 266 601 Q 267 608 268 617 L 266 645 Q 257 706 253 732 C 249 759 249 759 247 760 Z" fill="black"></path>
				<path d="M 451 676 Q 475 727 499 741 Q 514 757 502 772 Q 489 784 445 805 Q 430 812 348 783 Q 287 768 247 760 C 218 754 224 723 253 732 Q 256 735 397 764 Q 415 768 422 762 Q 431 752 405 676 C 395 648 438 649 451 676 Z" fill="red"></path>
				<path d="M 268 617 Q 275 616 285 618 Q 342 631 466 646 Q 475 647 476 654 Q 476 661 451 676 C 438 684 434 683 405 676 Q 329 657 266 645 C 237 639 238 618 268 617 Z" fill="lightgray"></path>
				<path d="M 239 544 Q 230 554 204 565 Q 195 569 185 565 Q 179 561 184 550 Q 185 543 189 537 Q 208 492 198 327 Q 185 249 200 220 Q 204 213 211 205 Q 221 193 230 204 Q 240 217 240 234 L 242 266 Q 242 272 243 326 L 243 352 Q 243 383 243 408 L 244 435 Q 244 474 246 515 C 247 537 247 537 239 544 Z" fill="lightgray"></path>
				<path d="M 425 247 Q 426 238 433 228 Q 446 201 454 202 Q 467 203 481 233 Q 494 257 493 276 Q 466 465 502 523 Q 512 538 504 547 Q 479 569 433 588 Q 418 594 397 585 Q 352 564 239 544 C 209 539 216 512 246 515 Q 253 514 262 516 Q 337 535 392 545 Q 411 549 417 539 Q 430 523 431 464 Q 435 308 427 272 L 425 247 Z" fill="lightgray"></path>
				<path d="M 243 408 Q 244 408 248 408 Q 320 421 372 429 Q 394 433 385 445 Q 375 458 351 462 Q 312 465 244 435 C 216 423 213 408 243 408 Z" fill="lightgray"></path>
				<path d="M 243 326 Q 247 326 252 326 Q 325 333 378 338 Q 400 341 393 353 Q 383 366 359 372 Q 331 378 243 352 C 214 344 213 326 243 326 Z" fill="lightgray"></path>
				<path d="M 240 234 Q 246 233 256 234 Q 308 244 425 247 C 454 248 449 252 427 272 Q 421 278 412 284 Q 397 293 368 287 Q 298 274 242 266 C 212 262 210 236 240 234 Z" fill="lightgray"></path>
				<path d="M 237 173 Q 228 125 113 31 Q 92 18 118 20 Q 175 20 264 103 Q 264 106 302 138 Q 312 148 311 157 Q 308 170 285 178 Q 258 188 247 186 Q 240 185 237 173 Z" fill="lightgray"></path>
				<path d="M 396 149 Q 430 112 466 66 Q 476 53 490 51 Q 499 50 505 61 Q 511 73 508 100 Q 507 125 473 150 Q 398 199 380 195 Q 376 192 375 181 Q 376 171 396 149 Z" fill="lightgray"></path>
				<path d="M 641 608 Q 650 611 662 617 Q 702 633 736 646 Q 740 649 752 643 Q 762 636 755 615 Q 730 539 715 512 Q 709 502 710 494 Q 710 481 730 470 Q 818 425 842 334 Q 848 297 832 275 Q 819 265 792 270 Q 752 279 718 283 Q 711 284 711 277 Q 714 270 728 260 Q 806 218 821 192 Q 828 179 842 177 Q 852 176 868 188 Q 905 234 907 296 Q 907 381 781 475 Q 736 503 779 554 Q 791 573 802 586 Q 821 614 845 627 Q 873 645 847 663 Q 808 693 785 702 Q 769 708 754 699 Q 724 672 625 638 C 597 628 613 596 641 608 Z" fill="lightgray"></path>
				<path d="M 625 638 Q 595 656 582 657 Q 569 661 554 653 Q 545 644 553 635 Q 577 578 579 570 Q 579 564 580 557 Q 584 412 583 183 Q 583 -18 602 -41 Q 608 -48 615 -46 Q 630 -37 634 22 Q 641 104 638 184 Q 632 275 632 540 Q 632 549 641 608 C 644 628 644 628 625 638 Z" fill="lightgray"></path>
</g>
		<text x="40" y="140" font-size="128" fill="#999999">2</text></g>
		<g id="id0:id2:id2" transform="matrix(1.0,0,0,1.0,2048,0.0)">			<g stroke="lightgray" stroke-width="4" transform="scale(4, 4)"> <rect x="0" y="0" width="256" height="256" fill="white" stroke-width="4"/></g>
			<g transform="scale(0.92, -0.92) translate(60, -920)">					<path d="M 247 760 Q 237 766 202 772 Q 192 775 188 770 Q 184 764 191 750 Q 213 708 229 640 Q 233 619 245 606 Q 261 587 266 601 Q 267 608 268 617 L 266 645 Q 257 706 253 732 C 249 759 249 759 247 760 Z" fill="black"></path>
				<path d="M 451 676 Q 475 727 499 741 Q 514 757 502 772 Q 489 784 445 805 Q 430 812 348 783 Q 287 768 247 760 C 218 754 224 723 253 732 Q 256 735 397 764 Q 415 768 422 762 Q 431 752 405 676 C 395 648 438 649 451 676 Z" fill="black"></path>
				<path d="M 268 617 Q 275 616 285 618 Q 342 631 466 646 Q 475 647 476 654 Q 476 661 451 676 C 438 684 434 683 405 676 Q 329 657 266 645 C 237 639 238 618 268 617 Z" fill="red"></path>
				<path d="M 239 544 Q 230 554 204 565 Q 195 569 185 565 Q 179 561 184 550 Q 185 543 189 537 Q 208 492 198 327 Q 185 249 200 220 Q 204 213 211 205 Q 221 193 230 204 Q 240 217 240 234 L 242 266 Q 242 272 243 326 L 243 352 Q 243 383 243 408 L 244 435 Q 244 474 246 515 C 247 537 247 537 239 544 Z" fill="lightgray"></path>
				<path d="M 425 247 Q 426 238 433 228 Q 446 201 454 202 Q 467 203 481 233 Q 494 257 493 276 Q 466 465 502 523 Q 512 538 504 547 Q 479 569 433 588 Q 418 594 397 585 Q 352 564 239 544 C 209 539 216 512 246 515 Q 253 514 262 516 Q 337 535 392 545 Q 411 549 417 539 Q 430 523 431 464 Q 435 308 427 272 L 425 247 Z" fill="lightgray"></path>
				<path d="M 243 408 Q 244 408 248 408 Q 320 421 372 429 Q 394 433 385 445 Q 375 458 351 462 Q 312 465 244 435 C 216 423 213 408 243 408 Z" fill="lightgray"></path>
				<path d="M 243 326 Q 247 326 252 326 Q 325 333 378 338 Q 400 341 393 353 Q 383 366 359 372 Q 331 378 243 352 C 214 344 213 326 243 326 Z" fill="lightgray"></path>
				<path d="M 240 234 Q 246 233 256 234 Q 308 244 425 247 C 454 248 449 252 427 272 Q 421 278 412 284 Q 397 293 368 287 Q 298 274 242 266 C 212 262 210 236 240 234 Z" fill="lightgray"></path>
				<path d="M 237 173 Q 228 125 113 31 Q 92 18 118 20 Q 175 20 264 103 Q 264 106 302 138 Q 312 148 311 157 Q 308 170 285 178 Q 258 188 247 186 Q 240 185 237 173 Z" fill="lightgray"></path>
				<path d="M 396 149 Q 430 112 466 66 Q 476 53 490 51 Q 499 50 505 61 Q 511 73 508 100 Q 507 125 473 150 Q 398 199 380 195 Q 376 192 375 181 Q 376 171 396 149 Z" fill="lightgray"></path>
				<path d="M 641 608 Q 650 611 662 617 Q 702 633 736 646 Q 740 649 752 643 Q 762 636 755 615 Q 730 539 715 512 Q 709 502 710 494 Q 710 481 730 470 Q 818 425 842 334 Q 848 297 832 275 Q 819 265 792 270 Q 752 279 718 283 Q 711 284 711 277 Q 714 270 728 260 Q 806 218 821 192 Q 828 179 842 177 Q 852 176 868 188 Q 905 234 907 296 Q 907 381 781 475 Q 736 503 779 554 Q 791 573 802 586 Q 821 614 845 627 Q 873 645 847 663 Q 808 693 785 702 Q 769 708 754 699 Q 724 672 625 638 C 597 628 613 596 641 608 Z" fill="lightgray"></path>
				<path d="M 625 638 Q 595 656 582 657 Q 569 661 554 653 Q 545 644 553 635 Q 577 578 579 570 Q 579 564 580 557 Q 584 412 583 183 Q 583 -18 602 -41 Q 608 -48 615 -46 Q 630 -37 634 22 Q 641 104 638 184 Q 632 275 632 540 Q 632 549 641 608 C 644 628 644 628 625 638 Z" fill="lightgray"></path>
</g>
		<text x="40" y="140" font-size="128" fill="#999999">3</text></g>
		<g id="id0:id3:id3" transform="matrix(1.0,0,0,1.0,3072,0.0)">			<g stroke="lightgray" stroke-width="4" transform="scale(4, 4)"> <rect x="0" y="0" width="256" height="256" fill="white" stroke-width="4"/></g>
			<g transform="scale(0.92, -0.92) translate(60, -920)">					<path d="M 247 760 Q 237 766 202 772 Q 192 775 188 770 Q 184 764 191 750 Q 213 708 229 640 Q 233 619 245 606 Q 261 587 266 601 Q 267 608 268 617 L 266 645 Q 257 706 253 732 C 249 759 249 759 247 760 Z" fill="black"></path>
				<path d="M 451 676 Q 475 727 499 741 Q 514 757 502 772 Q 489 784 445 805 Q 430 812 348 783 Q 287 768 247 760 C 218 754 224 723 253 732 Q 256 735 397 764 Q 415 768 422 762 Q 431 752 405 676 C 395 648 438 649 451 676 Z" fill="black"></path>
				<path d="M 268 617 Q 275 616 285 618 Q 342 631 466 646 Q 475 647 476 654 Q 476 661 451 676 C 438 684 434 683 405 676 Q 329 657 266 645 C 237 639 238 618 268 617 Z" fill="black"></path>
				<path d="M 239 544 Q 230 554 204 565 Q 195 569 185 565 Q 179 561 184 550 Q 185 543 189 537 Q 208 492 198 327 Q 185 249 200 220 Q 204 213 211 205 Q 221 193 230 204 Q 240 217 240 234 L 242 266 Q 242 272 243 326 L 243 352 Q 243 383 243 408 L 244 435 Q 244 474 246 515 C 247 537 247 537 239 544 Z" fill="red"></path>
				<path d="M 425 247 Q 426 238 433 228 Q 446 201 454 202 Q 467 203 481 233 Q 494 257 493 276 Q 466 465 502 523 Q 512 538 504 547 Q 479 569 433 588 Q 418 594 397 585 Q 352 564 239 544 C 209 539 216 512 246 515 Q 253 514 262 516 Q 337 535 392 545 Q 411 549 417 539 Q 430 523 431 464 Q 435 308 427 272 L 425 247 Z" fill="lightgray"></path>
				<path d="M 243 408 Q 244 408 248 408 Q 320 421 372 429 Q 394 433 385 445 Q 375 458 351 462 Q 312 465 244 435 C 216 423 213 408 243 408 Z" fill="lightgray"></path>
				<path d="M 243 326 Q 247 326 252 326 Q 325 333 378 338 Q 400 341 393 353 Q 383 366 359 372 Q 331 378 243 352 C 214 344 213 326 243 326 Z" fill="lightgray"></path>
				<path d="M 240 234 Q 246 233 256 234 Q 308 244 425 247 C 454 248 449 252 427 272 Q 421 278 412 284 Q 397 293 368 287 Q 298 274 242 266 C 212 262 210 236 240 234 Z" fill="lightgray"></path>
				<path d="M 237 173 Q 228 125 113 31 Q 92 18 118 20 Q 175 20 264 103 Q 264 106 302 138 Q 312 148 311 157 Q 308 170 285 178 Q 258 188 247 186 Q 240 185 237 173 Z" fill="lightgray"></path>
				<path d="M 396 149 Q 430 112 466 66 Q 476 53 490 51 Q 499 50 505 61 Q 511 73 508 100 Q 507 125 473 150 Q 398 199 380 195 Q 376 192 375 181 Q 376 171 396 149 Z" fill="lightgray"></path>
				<path d="M 641 608 Q 650 611 662 617 Q 702 633 736 646 Q 740 649 752 643 Q 762 636 755 615 Q 730 539 715 512 Q 709 502 710 494 Q 710 481 730 470 Q 818 425 842 334 Q 848 297 832 275 Q 819 265 792 270 Q 752 279 718 283 Q 711 284 711 277 Q 714 270 728 260 Q 806 218 821 192 Q 828 179 842 177 Q 852 176 868 188 Q 905 234 907 296 Q 907 381 781 475 Q 736 503 779 554 Q 791 573 802 586 Q 821 614 845 627 Q 873 645 847 663 Q 808 693 785 702 Q 769 708 754 699 Q 724 672 625 638 C 597 628 613 596 641 608 Z" fill="lightgray"></path>
				<path d="M 625 638 Q 595 656 582 657 Q 569 661 554 653 Q 545 644 553 635 Q 577 578 579 570 Q 579 564 580 557 Q 584 412 583 183 Q 583 -18 602 -41 Q 608 -48 615 -46 Q 630 -37 634 22 Q 641 104 638 184 Q 632 275 632 540 Q 632 549 641 608 C 644 628 644 628 625 638 Z" fill="lightgray"></path>
</g>
		<text x="40" y="140" font-size="128" fill="#999999">4</text></g>
		<g id="id0:id4:id4" transform="matrix(1.0,0,0,1.0,4096,0.0)">			<g stroke="lightgray" stroke-width="4" transform="scale(4, 4)"> <rect x="0" y="0" width="256" height="256" fill="white" stroke-width="4"/></g>
			<g transform="scale(0.92, -0.92) translate(60, -920)">					<path d="M 247 760 Q 237 766 202 772 Q 192 775 188 770 Q 184 764 191 750 Q 213 708 229 640 Q 233 619 245 606 Q 261 587 266 601 Q 267 608 268 617 L 266 645 Q 257 706 253 732 C 249 759 249 759 247 760 Z" fill="black"></path>
				<path d="M 451 676 Q 475 727 499 741 Q 514 757 502 772 Q 489 784 445 805 Q 430 812 348 783 Q 287 768 247 760 C 218 754 224 723 253 732 Q 256 735 397 764 Q 415 768 422 762 Q 431 752 405 676 C 395 648 438 649 451 676 Z" fill="black"></path>
				<path d="M 268 617 Q 275 616 285 618 Q 342 631 466 646 Q 475 647 476 654 Q 476 661 451 676 C 438 684 434 683 405 676 Q 329 657 266 645 C 237 639 238 618 268 617 Z" fill="black"></path>
				<path d="M 239 544 Q 230 554 204 565 Q 195 569 185 565 Q 179 561 184 550 Q 185 543 189 537 Q 208 492 198 327 Q 185 249 200 220 Q 204 213 211 205 Q 221 193 230 204 Q 240 217 240 234 L 242 266 Q 242 272 243 326 L 243 352 Q 243 383 243 408 L 244 435 Q 244 474 246 515 C 247 537 247 537 239 544 Z" fill="black"></path>
				<path d="M 425 247 Q 426 238 433 228 Q 446 201 454 202 Q 467 203 481 233 Q 494 257 493 276 Q 466 465 502 523 Q 512 538 504 547 Q 479 569 433 588 Q 418 594 397 585 Q 352 564 239 544 C 209 539 216 512 246 515 Q 253 514 262 516 Q 337 535 392 545 Q 411 549 417 539 Q 430 523 431 464 Q 435 308 427 272 L 425 247 Z" fill="red"></path>
				<path d="M 243 408 Q 244 408 248 408 Q 320 421 372 429 Q 394 433 385 445 Q 375 458 351 462 Q 312 465 244 435 C 216 423 213 408 243 408 Z" fill="lightgray"></path>
				<path d="M 243 326 Q 247 326 252 326 Q 325 333 378 338 Q 400 341 393 353 Q 383 366 359 372 Q 331 378 243 352 C 214 344 213 326 243 326 Z" fill="lightgray"></path>
				<path d="M 240 234 Q 246 233 256 234 Q 308 244 425 247 C 454 248 449 252 427 272 Q 421 278 412 284 Q 397 293 368 287 Q 298 274 242 266 C 212 262 210 236 240 234 Z" fill="lightgray"></path>
				<path d="M 237 173 Q 228 125 113 31 Q 92 18 118 20 Q 175 20 264 103 Q 264 106 302 138 Q 312 148 311 157 Q 308 170 285 178 Q 258 188 247 186 Q 240 185 237 173 Z" fill="lightgray"></path>
				<path d="M 396 149 Q 430 112 466 66 Q 476 53 490 51 Q 499 50 505 61 Q 511 73 508 100 Q 507 125 473 150 Q 398 199 380 195 Q 376 192 375 181 Q 376 171 396 149 Z" fill="lightgray"></path>
				<path d="M 641 608 Q 650 611 662 617 Q 702 633 736 646 Q 740 649 752 643 Q 762 636 755 615 Q 730 539 715 512 Q 709 502 710 494 Q 710 481 730 470 Q 818 425 842 334 Q 848 297 832 275 Q 819 265 792 270 Q 752 279 718 283 Q 711 284 711 277 Q 714 270 728 260 Q 806 218 821 192 Q 828 179 842 177 Q 852 176 868 188 Q 905 234 907 296 Q 907 381 781 475 Q 736 503 779 554 Q 791 573 802 586 Q 821 614 845 627 Q 873 645 847 663 Q 808 693 785 702 Q 769 708 754 699 Q 724 672 625 638 C 597 628 613 596 641 608 Z" fill="lightgray"></path>
				<path d="M 625 638 Q 595 656 582 657 Q 569 661 554 653 Q 545 644 553 635 Q 577 578 579 570 Q 579 564 580 557 Q 584 412 583 183 Q 583 -18 602 -41 Q 608 -48 615 -46 Q 630 -37 634 22 Q 641 104 638 184 Q 632 275 632 540 Q 632 549 641 608 C 644 628 644 628 625 638 Z" fill="lightgray"></path>
</g>
		<text x="40" y="140" font-size="128" fill="#999999">5</text></g>
</g>
	<g id="id1:id1" transform="translate(0.0,1024)">
		<g id="id1:id0:id0" transform="matrix(1.0,0,0,1.0,0,0.0)">			<g stroke="lightgray" stroke-width="4" transform="scale(4, 4)"> <rect x="0" y="0" width="256" height="256" fill="white" stroke-width="4"/></g>
			<g transform="scale(0.92, -0.92) translate(60, -920)">					<path d="M 247 760 Q 237 766 202 772 Q 192 775 188 770 Q 184 764 191 750 Q 213 708 229 640 Q 233 619 245 606 Q 261 587 266 601 Q 267 608 268 617 L 266 645 Q 257 706 253 732 C 249 759 249 759 247 760 Z" fill="black"></path>
				<path d="M 451 676 Q 475 727 499 741 Q 514 757 502 772 Q 489 784 445 805 Q 430 812 348 783 Q 287 768 247 760 C 218 754 224 723 253 732 Q 256 735 397 764 Q 415 768 422 762 Q 431 752 405 676 C 395 648 438 649 451 676 Z" fill="black"></path>
				<path d="M 268 617 Q 275 616 285 618 Q 342 631 466 646 Q 475 647 476 654 Q 476 661 451 676 C 438 684 434 683 405 676 Q 329 657 266 645 C 237 639 238 618 268 617 Z" fill="black"></path>
				<path d="M 239 544 Q 230 554 204 565 Q 195 569 185 565 Q 179 561 184 550 Q 185 543 189 537 Q 208 492 198 327 Q 185 249 200 220 Q 204 213 211 205 Q 221 193 230 204 Q 240 217 240 234 L 242 266 Q 242 272 243 326 L 243 352 Q 243 383 243 408 L 244 435 Q 244 474 246 515 C 247 537 247 537 239 544 Z" fill="black"></path>
				<path d="M 425 247 Q 426 238 433 228 Q 446 201 454 202 Q 467 203 481 233 Q 494 257 493 276 Q 466 465 502 523 Q 512 538 504 547 Q 479 569 433 588 Q 418 594 397 585 Q 352 564 239 544 C 209 539 216 512 246 515 Q 253 514 262 516 Q 337 535 392 545 Q 411 549 417 539 Q 430 523 431 464 Q 435 308 427 272 L 425 247 Z" fill="black"></path>
				<path d="M 243 408 Q 244 408 248 408 Q 320 421 372 429 Q 394 433 385 445 Q 375 458 351 462 Q 312 465 244 435 C 216 423 213 408 243 408 Z" fill="red"></path>
				<path d="M 243 326 Q 247 326 252 326 Q 325 333 378 338 Q 400 341 393 353 Q 383 366 359 372 Q 331 378 243 352 C 214 344 213 326 243 326 Z" fill="lightgray"></path>
				<path d="M 240 234 Q 246 233 256 234 Q 308 244 425 247 C 454 248 449 252 427 272 Q 421 278 412 284 Q 397 293 368 287 Q 298 274 242 266 C 212 262 210 236 240 234 Z" fill="lightgray"></path>
				<path d="M 237 173 Q 228 125 113 31 Q 92 18 118 20 Q 175 20 264 103 Q 264 106 302 138 Q 312 148 311 157 Q 308 170 285 178 Q 258 188 247 186 Q 240 185 237 173 Z" fill="lightgray"></path>
				<path d="M 396 149 Q 430 112 466 66 Q 476 53 490 51 Q 499 50 505 61 Q 511 73 508 100 Q 507 125 473 150 Q 398 199 380 195 Q 376 192 375 181 Q 376 171 396 149 Z" fill="lightgray"></path>
				<path d="M 641 608 Q 650 611 662 617 Q 702 633 736 646 Q 740 649 752 643 Q 762 636 755 615 Q 730 539 715 512 Q 709 502 710 494 Q 710 481 730 470 Q 818 425 842 334 Q 848 297 832 275 Q 819 265 792 270 Q 752 279 718 283 Q 711 284 711 277 Q 714 270 728 260 Q 806 218 821 192 Q 828 179 842 177 Q 852 176 868 188 Q 905 234 907 296 Q 907 381 781 475 Q 736 503 779 554 Q 791 573 802 586 Q 821 614 845 627 Q 873 645 847 663 Q 808 693 785 702 Q 769 708 754 699 Q 724 672 625 638 C 597 628 613 596 641 608 Z" fill="lightgray"></path>
				<path d="M 625 638 Q 595 656 582 657 Q 569 661 554 653 Q 545 644 553 635 Q 577 578 579 570 Q 579 564 580 557 Q 584 412 583 183 Q 583 -18 602 -41 Q 608 -48 615 -46 Q 630 -37 634 22 Q 641 104 638 184 Q 632 275 632 540 Q 632 549 641 608 C 644 628 644 628 625 638 Z" fill="lightgray"></path>
</g>
		<text x="40" y="140" font-size="128" fill="#999999">6</text></g>
		<g id="id1:id1:id1" transform="matrix(1.0,0,0,1.0,1024,0.0)">			<g stroke="lightgray" stroke-width="4" transform="scale(4, 4)"> <rect x="0" y="0" width="256" height="256" fill="white" stroke-width="4"/></g>
			<g transform="scale(0.92, -0.92) translate(60, -920)">					<path d="M 247 760 Q 237 766 202 772 Q 192 775 188 770 Q 184 764 191 750 Q 213 708 229 640 Q 233 619 245 606 Q 261 587 266 601 Q 267 608 268 617 L 266 645 Q 257 706 253 732 C 249 759 249 759 247 760 Z" fill="black"></path>
				<path d="M 451 676 Q 475 727 499 741 Q 514 757 502 772 Q 489 784 445 805 Q 430 812 348 783 Q 287 768 247 760 C 218 754 224 723 253 732 Q 256 735 397 764 Q 415 768 422 762 Q 431 752 405 676 C 395 648 438 649 451 676 Z" fill="black"></path>
				<path d="M 268 617 Q 275 616 285 618 Q 342 631 466 646 Q 475 647 476 654 Q 476 661 451 676 C 438 684 434 683 405 676 Q 329 657 266 645 C 237 639 238 618 268 617 Z" fill="black"></path>
				<path d="M 239 544 Q 230 554 204 565 Q 195 569 185 565 Q 179 561 184 550 Q 185 543 189 537 Q 208 492 198 327 Q 185 249 200 220 Q 204 213 211 205 Q 221 193 230 204 Q 240 217 240 234 L 242 266 Q 242 272 243 326 L 243 352 Q 243 383 243 408 L 244 435 Q 244 474 246 515 C 247 537 247 537 239 544 Z" fill="black"></path>
				<path d="M 425 247 Q 426 238 433 228 Q 446 201 454 202 Q 467 203 481 233 Q 494 257 493 276 Q 466 465 502 523 Q 512 538 504 547 Q 479 569 433 588 Q 418 594 397 585 Q 352 564 239 544 C 209 539 216 512 246 515 Q 253 514 262 516 Q 337 535 392 545 Q 411 549 417 539 Q 430 523 431 464 Q 435 308 427 272 L 425 247 Z" fill="black"></path>
				<path d="M 243 408 Q 244 408 248 408 Q 320 421 372 429 Q 394 433 385 445 Q 375 458 351 462 Q 312 465 244 435 C 216 423 213 408 243 408 Z" fill="black"></path>
				<path d="M 243 326 Q 247 326 252 326 Q 325 333 378 338 Q 400 341 393 353 Q 383 366 359 372 Q 331 378 243 352 C 214 344 213 326 243 326 Z" fill="red"></path>
				<path d="M 240 234 Q 246 233 256 234 Q 308 244 425 247 C 454 248 449 252 427 272 Q 421 278 412 284 Q 397 293 368 287 Q 298 274 242 266 C 212 262 210 236 240 234 Z" fill="lightgray"></path>
				<path d="M 237 173 Q 228 125 113 31 Q 92 18 118 20 Q 175 20 264 103 Q 264 106 302 138 Q 312 148 311 157 Q 308 170 285 178 Q 258 188 247 186 Q 240 185 237 173 Z" fill="lightgray"></path>
				<path d="M 396 149 Q 430 112 466 66 Q 476 53 490 51 Q 499 50 505 61 Q 511 73 508 100 Q 507 125 473 150 Q 398 199 380 195 Q 376 192 375 181 Q 376 171 396 149 Z" fill="lightgray"></path>
				<path d="M 641 608 Q 650 611 662 617 Q 702 633 736 646 Q 740 649 752 643 Q 762 636 755 615 Q 730 539 715 512 Q 709 502 710 494 Q 710 481 730 470 Q 818 425 842 334 Q 848 297 832 275 Q 819 265 792 270 Q 752 279 718 283 Q 711 284 711 277 Q 714 270 728 260 Q 806 218 821 192 Q 828 179 842 177 Q 852 176 868 188 Q 905 234 907 296 Q 907 381 781 475 Q 736 503 779 554 Q 791 573 802 586 Q 821 614 845 627 Q 873 645 847 663 Q 808 693 785 702 Q 769 708 754 699 Q 724 672 625 638 C 597 628 613 596 641 608 Z" fill="lightgray"></path>
				<path d="M 625 638 Q 595 656 582 657 Q 569 661 554 653 Q 545 644 553 635 Q 577 578 579 570 Q 579 564 580 557 Q 584 412 583 183 Q 583 -18 602 -41 Q 608 -48 615 -46 Q 630 -37 634 22 Q 641 104 638 184 Q 632 275 632 540 Q 632 549 641 608 C 644 628 644 628 625 638 Z" fill="lightgray"></path>
</g>
		<text x="40" y="140" font-size="128" fill="#999999">7</text></g>
		<g id="id1:id2:id2" transform="matrix(1.0,0,0,1.0,2048,0.0)">			<g stroke="lightgray" stroke-width="4" transform="scale(4, 4)"> <rect x="0" y="0" width="256" height="256" fill="white" stroke-width="4"/></g>
			<g transform="scale(0.92, -0.92) translate(60, -920)">					<path d="M 247 760 Q 237 766 202 772 Q 192 775 188 770 Q 184 764 191 750 Q 213 708 229 640 Q 233 619 245 606 Q 261 587 266 601 Q 267 608 268 617 L 266 645 Q 257 706 253 732 C 249 759 249 759 247 760 Z" fill="black"></path>
				<path d="M 451 676 Q 475 727 499 741 Q 514 757 502 772 Q 489 784 445 805 Q 430 812 348 783 Q 287 768 247 760 C 218 754 224 723 253 732 Q 256 735 397 764 Q 415 768 422 762 Q 431 752 405 676 C 395 648 438 649 451 676 Z" fill="black"></path>
				<path d="M 268 617 Q 275 616 285 618 Q 342 631 466 646 Q 475 647 476 654 Q 476 661 451 676 C 438 684 434 683 405 676 Q 329 657 266 645 C 237 639 238 618 268 617 Z" fill="black"></path>
				<path d="M 239 544 Q 230 554 204 565 Q 195 569 185 565 Q 179 561 184 550 Q 185 543 189 537 Q 208 492 198 327 Q 185 249 200 220 Q 204 213 211 205 Q 221 193 230 204 Q 240 217 240 234 L 242 266 Q 242 272 243 326 L 243 352 Q 243 383 243 408 L 244 435 Q 244 474 246 515 C 247 537 247 537 239 544 Z" fill="black"></path>
				<path d="M 425 247 Q 426 238 433 228 Q 446 201 454 202 Q 467 203 481 233 Q 494 257 493 276 Q 466 465 502 523 Q 512 538 504 547 Q 479 569 433 588 Q 418 594 397 585 Q 352 564 239 544 C 209 539 216 512 246 515 Q 253 514 262 516 Q 337 535 392 545 Q 411 549 417 539 Q 430 523 431 464 Q 435 308 427 272 L 425 247 Z" fill="black"></path>
				<path d="M 243 408 Q 244 408 248 408 Q 320 421 372 429 Q 394 433 385 445 Q 375 458 351 462 Q 312 465 244 435 C 216 423 213 408 243 408 Z" fill="black"></path>
				<path d="M 243 326 Q 247 326 252 326 Q 325 333 378 338 Q 400 341 393 353 Q 383 366 359 372 Q 331 378 243 352 C 214 344 213 326 243 326 Z" fill="black"></path>
				<path d="M 240 234 Q 246 233 256 234 Q 308 244 425 247 C 454 248 449 252 427 272 Q 421 278 412 284 Q 397 293 368 287 Q 298 274 242 266 C 212 262 210 236 240 234 Z" fill="red"></path>
				<path d="M 237 173 Q 228 125 113 31 Q 92 18 118 20 Q 175 20 264 103 Q 264 106 302 138 Q 312 148 311 157 Q 308 170 285 178 Q 258 188 247 186 Q 240 185 237 173 Z" fill="lightgray"></path>
				<path d="M 396 149 Q 430 112 466 66 Q 476 53 490 51 Q 499 50 505 61 Q 511 73 508 100 Q 507 125 473 150 Q 398 199 380 195 Q 376 192 375 181 Q 376 171 396 149 Z" fill="lightgray"></path>
				<path d="M 641 608 Q 650 611 662 617 Q 702 633 736 646 Q 740 649 752 643 Q 762 636 755 615 Q 730 539 715 512 Q 709 502 710 494 Q 710 481 730 470 Q 818 425 842 334 Q 848 297 832 275 Q 819 265 792 270 Q 752 279 718 283 Q 711 284 711 277 Q 714 270 728 260 Q 806 218 821 192 Q 828 179 842 177 Q 852 176 868 188 Q 905 234 907 296 Q 907 381 781 475 Q 736 503 779 554 Q 791 573 802 586 Q 821 614 845 627 Q 873 645 847 663 Q 808 693 785 702 Q 769 708 754 699 Q 724 672 625 638 C 597 628 613 596 641 608 Z" fill="lightgray"></path>
				<path d="M 625 638 Q 595 656 582 657 Q 569 661 554 653 Q 545 644 553 635 Q 577 578 579 570 Q 579 564 580 557 Q 584 412 583 183 Q 583 -18 602 -41 Q 608 -48 615 -46 Q 630 -37 634 22 Q 641 104 638 184 Q 632 275 632 540 Q 632 549 641 608 C 644 628 644 628 625 638 Z" fill="lightgray"></path>
</g>
		<text x="40" y="140" font-size="128" fill="#999999">8</text></g>
		<g id="id1:id3:id3" transform="matrix(1.0,0,0,1.0,3072,0.0)">			<g stroke="lightgray" stroke-width="4" transform="scale(4, 4)"> <rect x="0" y="0" width="256" height="256" fill="white" stroke-width="4"/></g>
			<g transform="scale(0.92, -0.92) translate(60, -920)">					<path d="M 247 760 Q 237 766 202 772 Q 192 775 188 770 Q 184 764 191 750 Q 213 708 229 640 Q 233 619 245 606 Q 261 587 266 601 Q 267 608 268 617 L 266 645 Q 257 706 253 732 C 249 759 249 759 247 760 Z" fill="black"></path>
				<path d="M 451 676 Q 475 727 499 741 Q 514 757 502 772 Q 489 784 445 805 Q 430 812 348 783 Q 287 768 247 760 C 218 754 224 723 253 732 Q 256 735 397 764 Q 415 768 422 762 Q 431 752 405 676 C 395 648 438 649 451 676 Z" fill="black"></path>
				<path d="M 268 617 Q 275 616 285 618 Q 342 631 466 646 Q 475 647 476 654 Q 476 661 451 676 C 438 684 434 683 405 676 Q 329 657 266 645 C 237 639 238 618 268 617 Z" fill="black"></path>
				<path d="M 239 544 Q 230 554 204 565 Q 195 569 185 565 Q 179 561 184 550 Q 185 543 189 537 Q 208 492 198 327 Q 185 249 200 220 Q 204 213 211 205 Q 221 193 230 204 Q 240 217 240 234 L 242 266 Q 242 272 243 326 L 243 352 Q 243 383 243 408 L 244 435 Q 244 474 246 515 C 247 537 247 537 239 544 Z" fill="black"></path>
				<path d="M 425 247 Q 426 238 433 228 Q 446 201 454 202 Q 467 203 481 233 Q 494 257 493 276 Q 466 465 502 523 Q 512 538 504 547 Q 479 569 433 588 Q 418 594 397 585 Q 352 564 239 544 C 209 539 216 512 246 515 Q 253 514 262 516 Q 337 535 392 545 Q 411 549 417 539 Q 430 523 431 464 Q 435 308 427 272 L 425 247 Z" fill="black"></path>
				<path d="M 243 408 Q 244 408 248 408 Q 320 421 372 429 Q 394 433 385 445 Q 375 458 351 462 Q 312 465 244 435 C 216 423 213 408 243 408 Z" fill="black"></path>
				<path d="M 243 326 Q 247 326 252 326 Q 325 333 378 338 Q 400 341 393 353 Q 383 366 359 372 Q 331 378 243 352 C 214 344 213 326 243 326 Z" fill="black"></path>
				<path d="M 240 234 Q 246 233 256 234 Q 308 244 425 247 C 454 248 449 252 427 272 Q 421 278 412 284 Q 397 293 368 287 Q 298 274 242 266 C 212 262 210 236 240 234 Z" fill="black"></path>
				<path d="M 237 173 Q 228 125 113 31 Q 92 18 118 20 Q 175 20 264 103 Q 264 106 302 138 Q 312 148 311 157 Q 308 170 285 178 Q 258 188 247 186 Q 240 185 237 173 Z" fill="red"></path>
				<path d="M 396 149 Q 430 112 466 66 Q 476 53 490 51 Q 499 50 505 61 Q 511 73 508 100 Q 507 125 473 150 Q 398 199 380 195 Q 376 192 375 181 Q 376 171 396 149 Z" fill="lightgray"></path>
				<path d="M 641 608 Q 650 611 662 617 Q 702 633 736 646 Q 740 649 752 643 Q 762 636 755 615 Q 730 539 715 512 Q 709 502 710 494 Q 710 481 730 470 Q 818 425 842 334 Q 848 297 832 275 Q 819 265 792 270 Q 752 279 718 283 Q 711 284 711 277 Q 714 270 728 260 Q 806 218 821 192 Q 828 179 842 177 Q 852 176 868 188 Q 905 234 907 296 Q 907 381 781 475 Q 736 503 779 554 Q 791 573 802 586 Q 821 614 845 627 Q 873 645 847 663 Q 808 693 785 702 Q 769 708 754 699 Q 724 672 625 638 C 597 628 613 596 641 608 Z" fill="lightgray"></path>
				<path d="M 625 638 Q 595 656 582 657 Q 569 661 554 653 Q 545 644 553 635 Q 577 578 579 570 Q 579 564 580 557 Q 584 412 583 183 Q 583 -18 602 -41 Q 608 -48 615 -46 Q 630 -37 634 22 Q 641 104 638 184 Q 632 275 632 540 Q 632 549 641 608 C 644 628 644 628 625 638 Z" fill="lightgray"></path>
</g>
		<text x="40" y="140" font-size="128" fill="#999999">9</text></g>
		<g id="id1:id4:id4" transform="matrix(1.0,0,0,1.0,4096,0.0)">			<g stroke="lightgray" stroke-width="4" transform="scale(4, 4)"> <rect x="0" y="0" width="256" height="256" fill="white" stroke-width="4"/></g>
			<g transform="scale(0.92, -0.92) translate(60, -920)">					<path d="M 247 760 Q 237 766 202 772 Q 192 775 188 770 Q 184 764 191 750 Q 213 708 229 640 Q 233 619 245 606 Q 261 587 266 601 Q 267 608 268 617 L 266 645 Q 257 706 253 732 C 249 759 249 759 247 760 Z" fill="black"></path>
				<path d="M 451 676 Q 475 727 499 741 Q 514 757 502 772 Q 489 784 445 805 Q 430 812 348 783 Q 287 768 247 760 C 218 754 224 723 253 732 Q 256 735 397 764 Q 415 768 422 762 Q 431 752 405 676 C 395 648 438 649 451 676 Z" fill="black"></path>
				<path d="M 268 617 Q 275 616 285 618 Q 342 631 466 646 Q 475 647 476 654 Q 476 661 451 676 C 438 684 434 683 405 676 Q 329 657 266 645 C 237 639 238 618 268 617 Z" fill="black"></path>
				<path d="M 239 544 Q 230 554 204 565 Q 195 569 185 565 Q 179 561 184 550 Q 185 543 189 537 Q 208 492 198 327 Q 185 249 200 220 Q 204 213 211 205 Q 221 193 230 204 Q 240 217 240 234 L 242 266 Q 242 272 243 326 L 243 352 Q 243 383 243 408 L 244 435 Q 244 474 246 515 C 247 537 247 537 239 544 Z" fill="black"></path>
				<path d="M 425 247 Q 426 238 433 228 Q 446 201 454 202 Q 467 203 481 233 Q 494 257 493 276 Q 466 465 502 523 Q 512 538 504 547 Q 479 569 433 588 Q 418 594 397 585 Q 352 564 239 544 C 209 539 216 512 246 515 Q 253 514 262 516 Q 337 535 392 545 Q 411 549 417 539 Q 430 523 431 464 Q 435 308 427 272 L 425 247 Z" fill="black"></path>
				<path d="M 243 408 Q 244 408 248 408 Q 320 421 372 429 Q 394 433 385 445 Q 375 458 351 462 Q 312 465 244 435 C 216 423 213 408 243 408 Z" fill="black"></path>
				<path d="M 243 326 Q 247 326 252 326 Q 325 333 378 338 Q 400 341 393 353 Q 383 366 359 372 Q 331 378 243 352 C 214 344 213 326 243 326 Z" fill="black"></path>
				<path d="M 240 234 Q 246 233 256 234 Q 308 244 425 247 C 454 248 449 252 427 272 Q 421 278 412 284 Q 397 293 368 287 Q 298 274 242 266 C 212 262 210 236 240 234 Z" fill="black"></path>
				<path d="M 237 173 Q 228 125 113 31 Q 92 18 118 20 Q 175 20 264 103 Q 264 106 302 138 Q 312 148 311 157 Q 308 170 285 178 Q 258 188 247 186 Q 240 185 237 173 Z" fill="black"></path>
				<path d="M 396 149 Q 430 112 466 66 Q 476 53 490 51 Q 499 50 505 61 Q 511 73 508 100 Q 507 125 473 150 Q 398 199 380 195 Q 376 192 375 181 Q 376 171 396 149 Z" fill="red"></path>
				<path d="M 641 608 Q 650 611 662 617 Q 702 633 736 646 Q 740 649 752 643 Q 762 636 755 615 Q 730 539 715 512 Q 709 502 710 494 Q 710 481 730 470 Q 818 425 842 334 Q 848 297 832 275 Q 819 265 792 270 Q 752 279 718 283 Q 711 284 711 277 Q 714 270 728 260 Q 806 218 821 192 Q 828 179 842 177 Q 852 176 868 188 Q 905 234 907 296 Q 907 381 781 475 Q 736 503 779 554 Q 791 573 802 586 Q 821 614 845 627 Q 873 645 847 663 Q 808 693 785 702 Q 769 708 754 699 Q 724 672 625 638 C 597 628 613 596 641 608 Z" fill="lightgray"></path>
				<path d="M 625 638 Q 595 656 582 657 Q 569 661 554 653 Q 545 644 553 635 Q 577 578 579 570 Q 579 564 580 557 Q 584 412 583 183 Q 583 -18 602 -41 Q 608 -48 615 -46 Q 630 -37 634 22 Q 641 104 638 184 Q 632 275 632 540 Q 632 549 641 608 C 644 628 644 628 625 638 Z" fill="lightgray"></path>
</g>
		<text x="40" y="140" font-size="128" fill="#999999">10</text></g>
</g>
	<g id="id2:id2" transform="translate(0.0,2048)">
		<g id="id2:id0:id0" transform="matrix(1.0,0,0,1.0,0,0.0)">			<g stroke="lightgray" stroke-width="4" transform="scale(4, 4)"> <rect x="0" y="0" width="256" height="256" fill="white" stroke-width="4"/></g>
			<g transform="scale(0.92, -0.92) translate(60, -920)">					<path d="M 247 760 Q 237 766 202 772 Q 192 775 188 770 Q 184 764 191 750 Q 213 708 229 640 Q 233 619 245 606 Q 261 587 266 601 Q 267 608 268 617 L 266 645 Q 257 706 253 732 C 249 759 249 759 247 760 Z" fill="black"></path>
				<path d="M 451 676 Q 475 727 499 741 Q 514 757 502 772 Q 489 784 445 805 Q 430 812 348 783 Q 287 768 247 760 C 218 754 224 723 253 732 Q 256 735 397 764 Q 415 768 422 762 Q 431 752 405 676 C 395 648 438 649 451 676 Z" fill="black"></path>
				<path d="M 268 617 Q 275 616 285 618 Q 342 631 466 646 Q 475 647 476 654 Q 476 661 451 676 C 438 684 434 683 405 676 Q 329 657 266 645 C 237 639 238 618 268 617 Z" fill="black"></path>
				<path d="M 239 544 Q 230 554 204 565 Q 195 569 185 565 Q 179 561 184 550 Q 185 543 189 537 Q 208 492 198 327 Q 185 249 200 220 Q 204 213 211 205 Q 221 193 230 204 Q 240 217 240 234 L 242 266 Q 242 272 243 326 L 243 352 Q 243 383 243 408 L 244 435 Q 244 474 246 515 C 247 537 247 537 239 544 Z" fill="black"></path>
				<path d="M 425 247 Q 426 238 433 228 Q 446 201 454 202 Q 467 203 481 233 Q 494 257 493 276 Q 466 465 502 523 Q 512 538 504 547 Q 479 569 433 588 Q 418 594 397 585 Q 352 564 239 544 C 209 539 216 512 246 515 Q 253 514 262 516 Q 337 535 392 545 Q 411 549 417 539 Q 430 523 431 464 Q 435 308 427 272 L 425 247 Z" fill="black"></path>
				<path d="M 243 408 Q 244 408 248 408 Q 320 421 372 429 Q 394 433 385 445 Q 375 458 351 462 Q 312 465 244 435 C 216 423 213 408 243 408 Z" fill="black"></path>
				<path d="M 243 326 Q 247 326 252 326 Q 325 333 378 338 Q 400 341 393 353 Q 383 366 359 372 Q 331 378 243 352 C 214 344 213 326 243 326 Z" fill="black"></path>
				<path d="M 240 234 Q 246 233 256 234 Q 308 244 425 247 C 454 248 449 252 427 272 Q 421 278 412 284 Q 397 293 368 287 Q 298 274 242 266 C 212 262 210 236 240 234 Z" fill="black"></path>
				<path d="M 237 173 Q 228 125 113 31 Q 92 18 118 20 Q 175 20 264 103 Q 264 106 302 138 Q 312 148 311 157 Q 308 170 285 178 Q 258 188 247 186 Q 240 185 237 173 Z" fill="black"></path>
				<path d="M 396 149 Q 430 112 466 66 Q 476 53 490 51 Q 499 50 505 61 Q 511 73 508 100 Q 507 125 473 150 Q 398 199 380 195 Q 376 192 375 181 Q 376 171 396 149 Z" fill="black"></path>
				<path d="M 641 608 Q 650 611 662 617 Q 702 633 736 646 Q 740 649 752 643 Q 762 636 755 615 Q 730 539 715 512 Q 709 502 710 494 Q 710 481 730 470 Q 818 425 842 334 Q 848 297 832 275 Q 819 265 792 270 Q 752 279 718 283 Q 711 284 711 277 Q 714 270 728 260 Q 806 218 821 192 Q 828 179 842 177 Q 852 176 868 188 Q 905 234 907 296 Q 907 381 781 475 Q 736 503 779 554 Q 791 573 802 586 Q 821 614 845 627 Q 873 645 847 663 Q 808 693 785 702 Q 769 708 754 699 Q 724 672 625 638 C 597 628 613 596 641 608 Z" fill="red"></path>
				<path d="M 625 638 Q 595 656 582 657 Q 569 661 554 653 Q 545 644 553 635 Q 577 578 579 570 Q 579 564 580 557 Q 584 412 583 183 Q 583 -18 602 -41 Q 608 -48 615 -46 Q 630 -37 634 22 Q 641 104 638 184 Q 632 275 632 540 Q 632 549 641 608 C 644 628 644 628 625 638 Z" fill="lightgray"></path>
</g>
		<text x="40" y="140" font-size="128" fill="#999999">11</text></g>
		<g id="id2:id1:id1" transform="matrix(1.0,0,0,1.0,1024,0.0)">			<g stroke="lightgray" stroke-width="4" transform="scale(4, 4)"> <rect x="0" y="0" width="256" height="256" fill="white" stroke-width="4"/></g>
			<g transform="scale(0.92, -0.92) translate(60, -920)">					<path d="M 247 760 Q 237 766 202 772 Q 192 775 188 770 Q 184 764 191 750 Q 213 708 229 640 Q 233 619 245 606 Q 261 587 266 601 Q 267 608 268 617 L 266 645 Q 257 706 253 732 C 249 759 249 759 247 760 Z" fill="black"></path>
				<path d="M 451 676 Q 475 727 499 741 Q 514 757 502 772 Q 489 784 445 805 Q 430 812 348 783 Q 287 768 247 760 C 218 754 224 723 253 732 Q 256 735 397 764 Q 415 768 422 762 Q 431 752 405 676 C 395 648 438 649 451 676 Z" fill="black"></path>
				<path d="M 268 617 Q 275 616 285 618 Q 342 631 466 646 Q 475 647 476 654 Q 476 661 451 676 C 438 684 434 683 405 676 Q 329 657 266 645 C 237 639 238 618 268 617 Z" fill="black"></path>
				<path d="M 239 544 Q 230 554 204 565 Q 195 569 185 565 Q 179 561 184 550 Q 185 543 189 537 Q 208 492 198 327 Q 185 249 200 220 Q 204 213 211 205 Q 221 193 230 204 Q 240 217 240 234 L 242 266 Q 242 272 243 326 L 243 352 Q 243 383 243 408 L 244 435 Q 244 474 246 515 C 247 537 247 537 239 544 Z" fill="black"></path>
				<path d="M 425 247 Q 426 238 433 228 Q 446 201 454 202 Q 467 203 481 233 Q 494 257 493 276 Q 466 465 502 523 Q 512 538 504 547 Q 479 569 433 588 Q 418 594 397 585 Q 352 564 239 544 C 209 539 216 512 246 515 Q 253 514 262 516 Q 337 535 392 545 Q 411 549 417 539 Q 430 523 431 464 Q 435 308 427 272 L 425 247 Z" fill="black"></path>
				<path d="M 243 408 Q 244 408 248 408 Q 320 421 372 429 Q 394 433 385 445 Q 375 458 351 462 Q 312 465 244 435 C 216 423 213 408 243 408 Z" fill="black"></path>
				<path d="M 243 326 Q 247 326 252 326 Q 325 333 378 338 Q 400 341 393 353 Q 383 366 359 372 Q 331 378 243 352 C 214 344 213 326 243 326 Z" fill="black"></path>
				<path d="M 240 234 Q 246 233 256 234 Q 308 244 425 247 C 454 248 449 252 427 272 Q 421 278 412 284 Q 397 293 368 287 Q 298 274 242 266 C 212 262 210 236 240 234 Z" fill="black"></path>
				<path d="M 237 173 Q 228 125 113 31 Q 92 18 118 20 Q 175 20 264 103 Q 264 106 302 138 Q 312 148 311 157 Q 308 170 285 178 Q 258 188 247 186 Q 240 185 237 173 Z" fill="black"></path>
				<path d="M 396 149 Q 430 112 466 66 Q 476 53 490 51 Q 499 50 505 61 Q 511 73 508 100 Q 507 125 473 150 Q 398 199 380 195 Q 376 192 375 181 Q 376 171 396 149 Z" fill="black"></path>
				<path d="M 641 608 Q 650 611 662 617 Q 702 633 736 646 Q 740 649 752 643 Q 762 636 755 615 Q 730 539 715 512 Q 709 502 710 494 Q 710 481 730 470 Q 818 425 842 334 Q 848 297 832 275 Q 819 265 792 270 Q 752 279 718 283 Q 711 284 711 277 Q 714 270 728 260 Q 806 218 821 192 Q 828 179 842 177 Q 852 176 868 188 Q 905 234 907 296 Q 907 381 781 475 Q 736 503 779 554 Q 791 573 802 586 Q 821 614 845 627 Q 873 645 847 663 Q 808 693 785 702 Q 769 708 754 699 Q 724 672 625 638 C 597 628 613 596 641 608 Z" fill="black"></path>
				<path d="M 625 638 Q 595 656 582 657 Q 569 661 554 653 Q 545 644 553 635 Q 577 578 579 570 Q 579 564 580 557 Q 584 412 583 183 Q 583 -18 602 -41 Q 608 -48 615 -46 Q 630 -37 634 22 Q 641 104 638 184 Q 632 275 632 540 Q 632 549 641 608 C 644 628 644 628 625 638 Z" fill="red"></path>
</g>
		<text x="40" y="140" font-size="128" fill="#999999">12</text></g>
		<g id="id2:id2:id2" transform="matrix(1.0,0,0,1.0,2048,0.0)">			<g stroke="white" stroke-width="4" transform="scale(4, 4)"> <rect x="1" y="1" width="255" height="255" fill="white" stroke-width="0"/></g>
</g>
		<g id="id2:id3:id3" transform="matrix(1.0,0,0,1.0,3072,0.0)">			<g stroke="white" stroke-width="4" transform="scale(4, 4)"> <rect x="1" y="1" width="255" height="255" fill="white" stroke-width="0"/></g>
</g>
		<g id="id2:id4:id4" transform="matrix(1.0,0,0,1.0,4096,0.0)">			<g stroke="white" stroke-width="4" transform="scale(4, 4)"> <rect x="1" y="1" width="255" height="255" fill="white" stroke-width="0"/></g>
</g>
</g>
</svg>
