<?xml version="1.0" standalone="no"?>
<!DOCTYPE svg PUBLIC "-//W3C//DTD SVG 1.1//EN"
 "http://www.w3.org/Graphics/SVG/1.1/DTD/svg11.dtd">
<!-- generate by Japanese dictionary app com.asnsami.kanjidictionary -->

<svg xmlns="http://www.w3.org/2000/svg" xmlns:sodipodi="http://sodipodi.sourceforge.net/DTD/sodipodi-0.dtd" version="1.1" width="640" height="256" viewBox="0 0 5120 2048">
	<g id="id0:id0" transform="translate(0.0,0)">
		<g id="id0:id0:id0" transform="matrix(1.0,0,0,1.0,0,0.0)">			<g stroke="lightgray" stroke-width="4" transform="scale(4, 4)"> <rect x="0" y="0" width="256" height="256" fill="white" stroke-width="4"/></g>
			<g transform="scale(0.92, -0.92) translate(60, -920)">					<path d="M 287 624 Q 344 720 366 740 Q 375 750 370 764 Q 366 777 338 800 Q 311 818 293 818 Q 274 817 282 794 Q 297 763 284 736 Q 221 585 63 394 Q 53 384 50 378 Q 47 368 61 370 Q 73 371 97 394 Q 142 431 195 500 Q 232 543 271 600 L 287 624 Z" fill="red"></path>
				<path d="M 271 600 Q 305 588 381 605 Q 409 612 443 621 Q 462 627 465 630 Q 472 637 468 646 Q 461 656 433 660 Q 412 663 337 635 Q 313 629 287 624 C 258 618 242 609 271 600 Z" fill="lightgray"></path>
				<path d="M 303 455 Q 349 471 400 486 Q 422 495 426 498 Q 433 507 428 514 Q 421 524 393 527 Q 365 528 339 515 Q 314 503 285 493 Q 254 483 216 475 Q 183 465 209 453 Q 230 446 253 445 L 303 455 Z" fill="lightgray"></path>
				<path d="M 323 318 Q 351 328 383 336 Q 417 348 421 353 Q 430 360 424 369 Q 417 379 387 384 Q 342 388 323 369 L 276 351 Q 207 330 150 317 Q 116 308 142 294 Q 184 276 237 293 Q 256 299 278 305 L 323 318 Z" fill="lightgray"></path>
				<path d="M 278 305 Q 278 176 242 122 Q 206 86 250 40 L 252 39 Q 265 32 275 47 Q 290 75 426 189 Q 444 202 448 210 Q 452 220 442 220 Q 432 220 327 161 Q 317 155 315 165 Q 322 249 323 318 L 323 369 Q 322 396 326 416 Q 332 435 303 455 C 280 474 241 472 253 445 Q 274 402 276 351 L 278 305 Z" fill="lightgray"></path>
				<path d="M 668 633 Q 762 690 811 706 Q 829 710 832 718 Q 835 730 821 740 Q 751 777 716 770 Q 709 764 709 753 Q 710 705 479 565 Q 475 555 482 552 Q 503 552 605 603 Q 615 607 628 613 L 668 633 Z" fill="lightgray"></path>
				<path d="M 708 404 Q 780 414 888 418 Q 942 418 949 428 Q 953 441 937 453 Q 874 495 814 472 Q 768 463 708 448 L 654 437 Q 563 422 456 403 Q 434 399 451 383 Q 482 355 529 369 Q 587 387 655 395 L 708 404 Z" fill="lightgray"></path>
				<path d="M 661 2 Q 667 -23 674 -33 Q 680 -40 687 -38 Q 702 -29 708 32 Q 715 108 712 185 Q 708 237 708 404 L 708 448 Q 708 526 718 586 Q 721 604 706 614 Q 682 629 668 633 C 640 645 617 641 628 613 Q 646 573 653 514 Q 653 480 654 437 L 655 395 Q 655 49 661 2 Z" fill="lightgray"></path>
</g>
		<text x="40" y="140" font-size="128" fill="#999999">1</text></g>
		<g id="id0:id1:id1" transform="matrix(1.0,0,0,1.0,1024,0.0)">			<g stroke="lightgray" stroke-width="4" transform="scale(4, 4)"> <rect x="0" y="0" width="256" height="256" fill="white" stroke-width="4"/></g>
			<g transform="scale(0.92, -0.92) translate(60, -920)">					<path d="M 287 624 Q 344 720 366 740 Q 375 750 370 764 Q 366 777 338 800 Q 311 818 293 818 Q 274 817 282 794 Q 297 763 284 736 Q 221 585 63 394 Q 53 384 50 378 Q 47 368 61 370 Q 73 371 97 394 Q 142 431 195 500 Q 232 543 271 600 L 287 624 Z" fill="black"></path>
				<path d="M 271 600 Q 305 588 381 605 Q 409 612 443 621 Q 462 627 465 630 Q 472 637 468 646 Q 461 656 433 660 Q 412 663 337 635 Q 313 629 287 624 C 258 618 242 609 271 600 Z" fill="red"></path>
				<path d="M 303 455 Q 349 471 400 486 Q 422 495 426 498 Q 433 507 428 514 Q 421 524 393 527 Q 365 528 339 515 Q 314 503 285 493 Q 254 483 216 475 Q 183 465 209 453 Q 230 446 253 445 L 303 455 Z" fill="lightgray"></path>
				<path d="M 323 318 Q 351 328 383 336 Q 417 348 421 353 Q 430 360 424 369 Q 417 379 387 384 Q 342 388 323 369 L 276 351 Q 207 330 150 317 Q 116 308 142 294 Q 184 276 237 293 Q 256 299 278 305 L 323 318 Z" fill="lightgray"></path>
				<path d="M 278 305 Q 278 176 242 122 Q 206 86 250 40 L 252 39 Q 265 32 275 47 Q 290 75 426 189 Q 444 202 448 210 Q 452 220 442 220 Q 432 220 327 161 Q 317 155 315 165 Q 322 249 323 318 L 323 369 Q 322 396 326 416 Q 332 435 303 455 C 280 474 241 472 253 445 Q 274 402 276 351 L 278 305 Z" fill="lightgray"></path>
				<path d="M 668 633 Q 762 690 811 706 Q 829 710 832 718 Q 835 730 821 740 Q 751 777 716 770 Q 709 764 709 753 Q 710 705 479 565 Q 475 555 482 552 Q 503 552 605 603 Q 615 607 628 613 L 668 633 Z" fill="lightgray"></path>
				<path d="M 708 404 Q 780 414 888 418 Q 942 418 949 428 Q 953 441 937 453 Q 874 495 814 472 Q 768 463 708 448 L 654 437 Q 563 422 456 403 Q 434 399 451 383 Q 482 355 529 369 Q 587 387 655 395 L 708 404 Z" fill="lightgray"></path>
				<path d="M 661 2 Q 667 -23 674 -33 Q 680 -40 687 -38 Q 702 -29 708 32 Q 715 108 712 185 Q 708 237 708 404 L 708 448 Q 708 526 718 586 Q 721 604 706 614 Q 682 629 668 633 C 640 645 617 641 628 613 Q 646 573 653 514 Q 653 480 654 437 L 655 395 Q 655 49 661 2 Z" fill="lightgray"></path>
</g>
		<text x="40" y="140" font-size="128" fill="#999999">2</text></g>
		<g id="id0:id2:id2" transform="matrix(1.0,0,0,1.0,2048,0.0)">			<g stroke="lightgray" stroke-width="4" transform="scale(4, 4)"> <rect x="0" y="0" width="256" height="256" fill="white" stroke-width="4"/></g>
			<g transform="scale(0.92, -0.92) translate(60, -920)">					<path d="M 287 624 Q 344 720 366 740 Q 375 750 370 764 Q 366 777 338 800 Q 311 818 293 818 Q 274 817 282 794 Q 297 763 284 736 Q 221 585 63 394 Q 53 384 50 378 Q 47 368 61 370 Q 73 371 97 394 Q 142 431 195 500 Q 232 543 271 600 L 287 624 Z" fill="black"></path>
				<path d="M 271 600 Q 305 588 381 605 Q 409 612 443 621 Q 462 627 465 630 Q 472 637 468 646 Q 461 656 433 660 Q 412 663 337 635 Q 313 629 287 624 C 258 618 242 609 271 600 Z" fill="black"></path>
				<path d="M 303 455 Q 349 471 400 486 Q 422 495 426 498 Q 433 507 428 514 Q 421 524 393 527 Q 365 528 339 515 Q 314 503 285 493 Q 254 483 216 475 Q 183 465 209 453 Q 230 446 253 445 L 303 455 Z" fill="red"></path>
				<path d="M 323 318 Q 351 328 383 336 Q 417 348 421 353 Q 430 360 424 369 Q 417 379 387 384 Q 342 388 323 369 L 276 351 Q 207 330 150 317 Q 116 308 142 294 Q 184 276 237 293 Q 256 299 278 305 L 323 318 Z" fill="lightgray"></path>
				<path d="M 278 305 Q 278 176 242 122 Q 206 86 250 40 L 252 39 Q 265 32 275 47 Q 290 75 426 189 Q 444 202 448 210 Q 452 220 442 220 Q 432 220 327 161 Q 317 155 315 165 Q 322 249 323 318 L 323 369 Q 322 396 326 416 Q 332 435 303 455 C 280 474 241 472 253 445 Q 274 402 276 351 L 278 305 Z" fill="lightgray"></path>
				<path d="M 668 633 Q 762 690 811 706 Q 829 710 832 718 Q 835 730 821 740 Q 751 777 716 770 Q 709 764 709 753 Q 710 705 479 565 Q 475 555 482 552 Q 503 552 605 603 Q 615 607 628 613 L 668 633 Z" fill="lightgray"></path>
				<path d="M 708 404 Q 780 414 888 418 Q 942 418 949 428 Q 953 441 937 453 Q 874 495 814 472 Q 768 463 708 448 L 654 437 Q 563 422 456 403 Q 434 399 451 383 Q 482 355 529 369 Q 587 387 655 395 L 708 404 Z" fill="lightgray"></path>
				<path d="M 661 2 Q 667 -23 674 -33 Q 680 -40 687 -38 Q 702 -29 708 32 Q 715 108 712 185 Q 708 237 708 404 L 708 448 Q 708 526 718 586 Q 721 604 706 614 Q 682 629 668 633 C 640 645 617 641 628 613 Q 646 573 653 514 Q 653 480 654 437 L 655 395 Q 655 49 661 2 Z" fill="lightgray"></path>
</g>
		<text x="40" y="140" font-size="128" fill="#999999">3</text></g>
		<g id="id0:id3:id3" transform="matrix(1.0,0,0,1.0,3072,0.0)">			<g stroke="lightgray" stroke-width="4" transform="scale(4, 4)"> <rect x="0" y="0" width="256" height="256" fill="white" stroke-width="4"/></g>
			<g transform="scale(0.92, -0.92) translate(60, -920)">					<path d="M 287 624 Q 344 720 366 740 Q 375 750 370 764 Q 366 777 338 800 Q 311 818 293 818 Q 274 817 282 794 Q 297 763 284 736 Q 221 585 63 394 Q 53 384 50 378 Q 47 368 61 370 Q 73 371 97 394 Q 142 431 195 500 Q 232 543 271 600 L 287 624 Z" fill="black"></path>
				<path d="M 271 600 Q 305 588 381 605 Q 409 612 443 621 Q 462 627 465 630 Q 472 637 468 646 Q 461 656 433 660 Q 412 663 337 635 Q 313 629 287 624 C 258 618 242 609 271 600 Z" fill="black"></path>
				<path d="M 303 455 Q 349 471 400 486 Q 422 495 426 498 Q 433 507 428 514 Q 421 524 393 527 Q 365 528 339 515 Q 314 503 285 493 Q 254 483 216 475 Q 183 465 209 453 Q 230 446 253 445 L 303 455 Z" fill="black"></path>
				<path d="M 323 318 Q 351 328 383 336 Q 417 348 421 353 Q 430 360 424 369 Q 417 379 387 384 Q 342 388 323 369 L 276 351 Q 207 330 150 317 Q 116 308 142 294 Q 184 276 237 293 Q 256 299 278 305 L 323 318 Z" fill="red"></path>
				<path d="M 278 305 Q 278 176 242 122 Q 206 86 250 40 L 252 39 Q 265 32 275 47 Q 290 75 426 189 Q 444 202 448 210 Q 452 220 442 220 Q 432 220 327 161 Q 317 155 315 165 Q 322 249 323 318 L 323 369 Q 322 396 326 416 Q 332 435 303 455 C 280 474 241 472 253 445 Q 274 402 276 351 L 278 305 Z" fill="lightgray"></path>
				<path d="M 668 633 Q 762 690 811 706 Q 829 710 832 718 Q 835 730 821 740 Q 751 777 716 770 Q 709 764 709 753 Q 710 705 479 565 Q 475 555 482 552 Q 503 552 605 603 Q 615 607 628 613 L 668 633 Z" fill="lightgray"></path>
				<path d="M 708 404 Q 780 414 888 418 Q 942 418 949 428 Q 953 441 937 453 Q 874 495 814 472 Q 768 463 708 448 L 654 437 Q 563 422 456 403 Q 434 399 451 383 Q 482 355 529 369 Q 587 387 655 395 L 708 404 Z" fill="lightgray"></path>
				<path d="M 661 2 Q 667 -23 674 -33 Q 680 -40 687 -38 Q 702 -29 708 32 Q 715 108 712 185 Q 708 237 708 404 L 708 448 Q 708 526 718 586 Q 721 604 706 614 Q 682 629 668 633 C 640 645 617 641 628 613 Q 646 573 653 514 Q 653 480 654 437 L 655 395 Q 655 49 661 2 Z" fill="lightgray"></path>
</g>
		<text x="40" y="140" font-size="128" fill="#999999">4</text></g>
		<g id="id0:id4:id4" transform="matrix(1.0,0,0,1.0,4096,0.0)">			<g stroke="lightgray" stroke-width="4" transform="scale(4, 4)"> <rect x="0" y="0" width="256" height="256" fill="white" stroke-width="4"/></g>
			<g transform="scale(0.92, -0.92) translate(60, -920)">					<path d="M 287 624 Q 344 720 366 740 Q 375 750 370 764 Q 366 777 338 800 Q 311 818 293 818 Q 274 817 282 794 Q 297 763 284 736 Q 221 585 63 394 Q 53 384 50 378 Q 47 368 61 370 Q 73 371 97 394 Q 142 431 195 500 Q 232 543 271 600 L 287 624 Z" fill="black"></path>
				<path d="M 271 600 Q 305 588 381 605 Q 409 612 443 621 Q 462 627 465 630 Q 472 637 468 646 Q 461 656 433 660 Q 412 663 337 635 Q 313 629 287 624 C 258 618 242 609 271 600 Z" fill="black"></path>
				<path d="M 303 455 Q 349 471 400 486 Q 422 495 426 498 Q 433 507 428 514 Q 421 524 393 527 Q 365 528 339 515 Q 314 503 285 493 Q 254 483 216 475 Q 183 465 209 453 Q 230 446 253 445 L 303 455 Z" fill="black"></path>
				<path d="M 323 318 Q 351 328 383 336 Q 417 348 421 353 Q 430 360 424 369 Q 417 379 387 384 Q 342 388 323 369 L 276 351 Q 207 330 150 317 Q 116 308 142 294 Q 184 276 237 293 Q 256 299 278 305 L 323 318 Z" fill="black"></path>
				<path d="M 278 305 Q 278 176 242 122 Q 206 86 250 40 L 252 39 Q 265 32 275 47 Q 290 75 426 189 Q 444 202 448 210 Q 452 220 442 220 Q 432 220 327 161 Q 317 155 315 165 Q 322 249 323 318 L 323 369 Q 322 396 326 416 Q 332 435 303 455 C 280 474 241 472 253 445 Q 274 402 276 351 L 278 305 Z" fill="red"></path>
				<path d="M 668 633 Q 762 690 811 706 Q 829 710 832 718 Q 835 730 821 740 Q 751 777 716 770 Q 709 764 709 753 Q 710 705 479 565 Q 475 555 482 552 Q 503 552 605 603 Q 615 607 628 613 L 668 633 Z" fill="lightgray"></path>
				<path d="M 708 404 Q 780 414 888 418 Q 942 418 949 428 Q 953 441 937 453 Q 874 495 814 472 Q 768 463 708 448 L 654 437 Q 563 422 456 403 Q 434 399 451 383 Q 482 355 529 369 Q 587 387 655 395 L 708 404 Z" fill="lightgray"></path>
				<path d="M 661 2 Q 667 -23 674 -33 Q 680 -40 687 -38 Q 702 -29 708 32 Q 715 108 712 185 Q 708 237 708 404 L 708 448 Q 708 526 718 586 Q 721 604 706 614 Q 682 629 668 633 C 640 645 617 641 628 613 Q 646 573 653 514 Q 653 480 654 437 L 655 395 Q 655 49 661 2 Z" fill="lightgray"></path>
</g>
		<text x="40" y="140" font-size="128" fill="#999999">5</text></g>
</g>
	<g id="id1:id1" transform="translate(0.0,1024)">
		<g id="id1:id0:id0" transform="matrix(1.0,0,0,1.0,0,0.0)">			<g stroke="lightgray" stroke-width="4" transform="scale(4, 4)"> <rect x="0" y="0" width="256" height="256" fill="white" stroke-width="4"/></g>
			<g transform="scale(0.92, -0.92) translate(60, -920)">					<path d="M 287 624 Q 344 720 366 740 Q 375 750 370 764 Q 366 777 338 800 Q 311 818 293 818 Q 274 817 282 794 Q 297 763 284 736 Q 221 585 63 394 Q 53 384 50 378 Q 47 368 61 370 Q 73 371 97 394 Q 142 431 195 500 Q 232 543 271 600 L 287 624 Z" fill="black"></path>
				<path d="M 271 600 Q 305 588 381 605 Q 409 612 443 621 Q 462 627 465 630 Q 472 637 468 646 Q 461 656 433 660 Q 412 663 337 635 Q 313 629 287 624 C 258 618 242 609 271 600 Z" fill="black"></path>
				<path d="M 303 455 Q 349 471 400 486 Q 422 495 426 498 Q 433 507 428 514 Q 421 524 393 527 Q 365 528 339 515 Q 314 503 285 493 Q 254 483 216 475 Q 183 465 209 453 Q 230 446 253 445 L 303 455 Z" fill="black"></path>
				<path d="M 323 318 Q 351 328 383 336 Q 417 348 421 353 Q 430 360 424 369 Q 417 379 387 384 Q 342 388 323 369 L 276 351 Q 207 330 150 317 Q 116 308 142 294 Q 184 276 237 293 Q 256 299 278 305 L 323 318 Z" fill="black"></path>
				<path d="M 278 305 Q 278 176 242 122 Q 206 86 250 40 L 252 39 Q 265 32 275 47 Q 290 75 426 189 Q 444 202 448 210 Q 452 220 442 220 Q 432 220 327 161 Q 317 155 315 165 Q 322 249 323 318 L 323 369 Q 322 396 326 416 Q 332 435 303 455 C 280 474 241 472 253 445 Q 274 402 276 351 L 278 305 Z" fill="black"></path>
				<path d="M 668 633 Q 762 690 811 706 Q 829 710 832 718 Q 835 730 821 740 Q 751 777 716 770 Q 709 764 709 753 Q 710 705 479 565 Q 475 555 482 552 Q 503 552 605 603 Q 615 607 628 613 L 668 633 Z" fill="red"></path>
				<path d="M 708 404 Q 780 414 888 418 Q 942 418 949 428 Q 953 441 937 453 Q 874 495 814 472 Q 768 463 708 448 L 654 437 Q 563 422 456 403 Q 434 399 451 383 Q 482 355 529 369 Q 587 387 655 395 L 708 404 Z" fill="lightgray"></path>
				<path d="M 661 2 Q 667 -23 674 -33 Q 680 -40 687 -38 Q 702 -29 708 32 Q 715 108 712 185 Q 708 237 708 404 L 708 448 Q 708 526 718 586 Q 721 604 706 614 Q 682 629 668 633 C 640 645 617 641 628 613 Q 646 573 653 514 Q 653 480 654 437 L 655 395 Q 655 49 661 2 Z" fill="lightgray"></path>
</g>
		<text x="40" y="140" font-size="128" fill="#999999">6</text></g>
		<g id="id1:id1:id1" transform="matrix(1.0,0,0,1.0,1024,0.0)">			<g stroke="lightgray" stroke-width="4" transform="scale(4, 4)"> <rect x="0" y="0" width="256" height="256" fill="white" stroke-width="4"/></g>
			<g transform="scale(0.92, -0.92) translate(60, -920)">					<path d="M 287 624 Q 344 720 366 740 Q 375 750 370 764 Q 366 777 338 800 Q 311 818 293 818 Q 274 817 282 794 Q 297 763 284 736 Q 221 585 63 394 Q 53 384 50 378 Q 47 368 61 370 Q 73 371 97 394 Q 142 431 195 500 Q 232 543 271 600 L 287 624 Z" fill="black"></path>
				<path d="M 271 600 Q 305 588 381 605 Q 409 612 443 621 Q 462 627 465 630 Q 472 637 468 646 Q 461 656 433 660 Q 412 663 337 635 Q 313 629 287 624 C 258 618 242 609 271 600 Z" fill="black"></path>
				<path d="M 303 455 Q 349 471 400 486 Q 422 495 426 498 Q 433 507 428 514 Q 421 524 393 527 Q 365 528 339 515 Q 314 503 285 493 Q 254 483 216 475 Q 183 465 209 453 Q 230 446 253 445 L 303 455 Z" fill="black"></path>
				<path d="M 323 318 Q 351 328 383 336 Q 417 348 421 353 Q 430 360 424 369 Q 417 379 387 384 Q 342 388 323 369 L 276 351 Q 207 330 150 317 Q 116 308 142 294 Q 184 276 237 293 Q 256 299 278 305 L 323 318 Z" fill="black"></path>
				<path d="M 278 305 Q 278 176 242 122 Q 206 86 250 40 L 252 39 Q 265 32 275 47 Q 290 75 426 189 Q 444 202 448 210 Q 452 220 442 220 Q 432 220 327 161 Q 317 155 315 165 Q 322 249 323 318 L 323 369 Q 322 396 326 416 Q 332 435 303 455 C 280 474 241 472 253 445 Q 274 402 276 351 L 278 305 Z" fill="black"></path>
				<path d="M 668 633 Q 762 690 811 706 Q 829 710 832 718 Q 835 730 821 740 Q 751 777 716 770 Q 709 764 709 753 Q 710 705 479 565 Q 475 555 482 552 Q 503 552 605 603 Q 615 607 628 613 L 668 633 Z" fill="black"></path>
				<path d="M 708 404 Q 780 414 888 418 Q 942 418 949 428 Q 953 441 937 453 Q 874 495 814 472 Q 768 463 708 448 L 654 437 Q 563 422 456 403 Q 434 399 451 383 Q 482 355 529 369 Q 587 387 655 395 L 708 404 Z" fill="red"></path>
				<path d="M 661 2 Q 667 -23 674 -33 Q 680 -40 687 -38 Q 702 -29 708 32 Q 715 108 712 185 Q 708 237 708 404 L 708 448 Q 708 526 718 586 Q 721 604 706 614 Q 682 629 668 633 C 640 645 617 641 628 613 Q 646 573 653 514 Q 653 480 654 437 L 655 395 Q 655 49 661 2 Z" fill="lightgray"></path>
</g>
		<text x="40" y="140" font-size="128" fill="#999999">7</text></g>
		<g id="id1:id2:id2" transform="matrix(1.0,0,0,1.0,2048,0.0)">			<g stroke="lightgray" stroke-width="4" transform="scale(4, 4)"> <rect x="0" y="0" width="256" height="256" fill="white" stroke-width="4"/></g>
			<g transform="scale(0.92, -0.92) translate(60, -920)">					<path d="M 287 624 Q 344 720 366 740 Q 375 750 370 764 Q 366 777 338 800 Q 311 818 293 818 Q 274 817 282 794 Q 297 763 284 736 Q 221 585 63 394 Q 53 384 50 378 Q 47 368 61 370 Q 73 371 97 394 Q 142 431 195 500 Q 232 543 271 600 L 287 624 Z" fill="black"></path>
				<path d="M 271 600 Q 305 588 381 605 Q 409 612 443 621 Q 462 627 465 630 Q 472 637 468 646 Q 461 656 433 660 Q 412 663 337 635 Q 313 629 287 624 C 258 618 242 609 271 600 Z" fill="black"></path>
				<path d="M 303 455 Q 349 471 400 486 Q 422 495 426 498 Q 433 507 428 514 Q 421 524 393 527 Q 365 528 339 515 Q 314 503 285 493 Q 254 483 216 475 Q 183 465 209 453 Q 230 446 253 445 L 303 455 Z" fill="black"></path>
				<path d="M 323 318 Q 351 328 383 336 Q 417 348 421 353 Q 430 360 424 369 Q 417 379 387 384 Q 342 388 323 369 L 276 351 Q 207 330 150 317 Q 116 308 142 294 Q 184 276 237 293 Q 256 299 278 305 L 323 318 Z" fill="black"></path>
				<path d="M 278 305 Q 278 176 242 122 Q 206 86 250 40 L 252 39 Q 265 32 275 47 Q 290 75 426 189 Q 444 202 448 210 Q 452 220 442 220 Q 432 220 327 161 Q 317 155 315 165 Q 322 249 323 318 L 323 369 Q 322 396 326 416 Q 332 435 303 455 C 280 474 241 472 253 445 Q 274 402 276 351 L 278 305 Z" fill="black"></path>
				<path d="M 668 633 Q 762 690 811 706 Q 829 710 832 718 Q 835 730 821 740 Q 751 777 716 770 Q 709 764 709 753 Q 710 705 479 565 Q 475 555 482 552 Q 503 552 605 603 Q 615 607 628 613 L 668 633 Z" fill="black"></path>
				<path d="M 708 404 Q 780 414 888 418 Q 942 418 949 428 Q 953 441 937 453 Q 874 495 814 472 Q 768 463 708 448 L 654 437 Q 563 422 456 403 Q 434 399 451 383 Q 482 355 529 369 Q 587 387 655 395 L 708 404 Z" fill="black"></path>
				<path d="M 661 2 Q 667 -23 674 -33 Q 680 -40 687 -38 Q 702 -29 708 32 Q 715 108 712 185 Q 708 237 708 404 L 708 448 Q 708 526 718 586 Q 721 604 706 614 Q 682 629 668 633 C 640 645 617 641 628 613 Q 646 573 653 514 Q 653 480 654 437 L 655 395 Q 655 49 661 2 Z" fill="red"></path>
</g>
		<text x="40" y="140" font-size="128" fill="#999999">8</text></g>
		<g id="id1:id3:id3" transform="matrix(1.0,0,0,1.0,3072,0.0)">			<g stroke="white" stroke-width="4" transform="scale(4, 4)"> <rect x="1" y="1" width="255" height="255" fill="white" stroke-width="0"/></g>
</g>
		<g id="id1:id4:id4" transform="matrix(1.0,0,0,1.0,4096,0.0)">			<g stroke="white" stroke-width="4" transform="scale(4, 4)"> <rect x="1" y="1" width="255" height="255" fill="white" stroke-width="0"/></g>
</g>
</g>
</svg>
