<?xml version="1.0" standalone="no"?>
<!DOCTYPE svg PUBLIC "-//W3C//DTD SVG 1.1//EN"
 "http://www.w3.org/Graphics/SVG/1.1/DTD/svg11.dtd">
<!-- generate by Japanese dictionary app com.asnsami.kanjidictionary -->

<svg xmlns="http://www.w3.org/2000/svg" xmlns:sodipodi="http://sodipodi.sourceforge.net/DTD/sodipodi-0.dtd" version="1.1" width="640" height="256" viewBox="0 0 5120 2048">
	<g id="id0:id0" transform="translate(0.0,0)">
		<g id="id0:id0:id0" transform="matrix(1.0,0,0,1.0,0,0.0)">			<g stroke="lightgray" stroke-width="4" transform="scale(4, 4)"> <rect x="0" y="0" width="256" height="256" fill="white" stroke-width="4"/></g>
			<g transform="scale(0.92, -0.92) translate(60, -920)">					<path d="M 692 696 L 672 694 L 643 687 L 569 673 L 486 660 L 362 644 C 332 640 340 619 370 617 L 389 616 Q 402 615 425 616 L 471 619 L 544 628 L 610 637 Q 652 646 692 650 L 708 652 L 725 656 Q 745 661 744 671 Q 743 674 733 681 Q 723 688 708 692 Q 693 696 692 696 Z" fill="red"></path>
				<path d="M 362 644 L 333 656 Q 299 669 288 660 Q 284 657 288 644 L 298 628 Q 306 600 306 591 L 308 572 Q 309 561 309 541 Q 309 521 305 465 Q 302 409 298 362 Q 294 314 282 293 Q 272 279 272 273 C 261 245 347 249 341 278 Q 337 280 339 306 L 343 376 L 345 405 L 351 489 L 354 518 L 360 574 Q 363 602 370 617 C 377 638 377 638 362 644 Z" fill="lightgray"></path>
				<path d="M 549 500 L 678 516 L 701 520 Q 711 521 714 524 Q 726 532 718 540 Q 710 548 698 552 L 678 557 Q 655 562 650 562 L 548 541 L 486 533 L 354 518 C 324 515 322 495 351 489 L 374 484 L 487 490 L 549 500 Z" fill="lightgray"></path>
				<path d="M 542 385 L 694 403 L 715 409 Q 729 414 730 418 Q 731 426 710 436 L 683 444 Q 670 447 658 447 L 546 429 L 487 421 L 345 405 C 315 402 314 384 343 376 L 358 372 Q 369 368 375 368 Q 381 367 418 370 L 487 377 L 542 385 Z" fill="lightgray"></path>
				<path d="M 540 306 L 542 385 L 546 429 L 549 500 L 548 541 L 551 572 Q 551 575 556 592 Q 561 608 559 613 Q 560 619 544 628 C 519 645 458 646 471 619 L 477 607 Q 481 604 484 588 L 486 561 L 486 533 L 487 490 L 487 421 L 487 377 L 486 298 C 486 268 539 276 540 306 Z" fill="lightgray"></path>
				<path d="M 272 273 Q 272 267 277 257 L 285 242 Q 299 214 312 217 Q 317 218 324 222 L 343 230 Q 355 236 374 240 Q 401 250 490 263 Q 579 276 692 280 L 765 282 Q 795 280 801 273 Q 806 262 805 240 L 805 208 L 792 97 L 785 63 Q 781 42 770 13 Q 759 -17 747 -28 Q 735 -40 727 -41 Q 719 -42 702 -36 L 641 -14 Q 635 -11 630 -14 Q 625 -17 632 -25 L 646 -39 L 667 -69 Q 672 -77 681 -88 Q 690 -100 690 -101 Q 690 -103 698 -121 Q 707 -139 710 -142 Q 732 -157 794 -92 Q 821 -61 842 12 Q 852 56 854 76 L 865 179 Q 870 229 882 249 Q 895 269 896 276 Q 898 282 889 292 Q 881 302 862 310 L 830 326 Q 810 336 800 336 Q 791 336 773 330 Q 755 324 694 320 L 540 306 L 486 298 L 366 279 Q 346 276 341 278 C 311 276 272 273 272 273 Z" fill="lightgray"></path>
				<path d="M 151 -20 Q 162 -21 172 -8 Q 183 4 197 40 Q 212 76 212 116 Q 212 155 204 174 L 198 186 Q 195 193 189 192 Q 183 192 181 182 L 175 162 L 172 142 Q 168 137 162 120 L 148 94 L 134 72 Q 124 58 124 37 Q 124 -20 151 -20 Z" fill="lightgray"></path>
				<path d="M 292 154 L 298 139 L 314 114 L 330 84 Q 349 51 370 52 Q 378 53 383 65 Q 389 76 389 92 Q 388 122 366 137 Q 335 159 314 162 L 301 165 Q 293 167 291 165 Q 289 163 292 154 Z" fill="lightgray"></path>
				<path d="M 444 168 L 452 150 Q 455 141 464 132 L 481 107 Q 497 84 504 80 Q 521 61 540 81 Q 548 92 547 113 Q 547 134 538 144 Q 530 154 506 166 L 473 177 L 452 181 Q 446 182 442 178 Q 439 173 444 168 Z" fill="lightgray"></path>
				<path d="M 636 191 L 591 202 Q 585 202 584 198 Q 581 194 586 189 L 597 173 Q 599 170 620 146 L 646 117 Q 672 83 690 86 Q 708 88 715 116 Q 723 144 705 162 Q 697 170 670 181 Q 644 191 636 191 Z" fill="lightgray"></path>
</g>
		<text x="40" y="140" font-size="128" fill="#999999">1</text></g>
		<g id="id0:id1:id1" transform="matrix(1.0,0,0,1.0,1024,0.0)">			<g stroke="lightgray" stroke-width="4" transform="scale(4, 4)"> <rect x="0" y="0" width="256" height="256" fill="white" stroke-width="4"/></g>
			<g transform="scale(0.92, -0.92) translate(60, -920)">					<path d="M 692 696 L 672 694 L 643 687 L 569 673 L 486 660 L 362 644 C 332 640 340 619 370 617 L 389 616 Q 402 615 425 616 L 471 619 L 544 628 L 610 637 Q 652 646 692 650 L 708 652 L 725 656 Q 745 661 744 671 Q 743 674 733 681 Q 723 688 708 692 Q 693 696 692 696 Z" fill="black"></path>
				<path d="M 362 644 L 333 656 Q 299 669 288 660 Q 284 657 288 644 L 298 628 Q 306 600 306 591 L 308 572 Q 309 561 309 541 Q 309 521 305 465 Q 302 409 298 362 Q 294 314 282 293 Q 272 279 272 273 C 261 245 347 249 341 278 Q 337 280 339 306 L 343 376 L 345 405 L 351 489 L 354 518 L 360 574 Q 363 602 370 617 C 377 638 377 638 362 644 Z" fill="red"></path>
				<path d="M 549 500 L 678 516 L 701 520 Q 711 521 714 524 Q 726 532 718 540 Q 710 548 698 552 L 678 557 Q 655 562 650 562 L 548 541 L 486 533 L 354 518 C 324 515 322 495 351 489 L 374 484 L 487 490 L 549 500 Z" fill="lightgray"></path>
				<path d="M 542 385 L 694 403 L 715 409 Q 729 414 730 418 Q 731 426 710 436 L 683 444 Q 670 447 658 447 L 546 429 L 487 421 L 345 405 C 315 402 314 384 343 376 L 358 372 Q 369 368 375 368 Q 381 367 418 370 L 487 377 L 542 385 Z" fill="lightgray"></path>
				<path d="M 540 306 L 542 385 L 546 429 L 549 500 L 548 541 L 551 572 Q 551 575 556 592 Q 561 608 559 613 Q 560 619 544 628 C 519 645 458 646 471 619 L 477 607 Q 481 604 484 588 L 486 561 L 486 533 L 487 490 L 487 421 L 487 377 L 486 298 C 486 268 539 276 540 306 Z" fill="lightgray"></path>
				<path d="M 272 273 Q 272 267 277 257 L 285 242 Q 299 214 312 217 Q 317 218 324 222 L 343 230 Q 355 236 374 240 Q 401 250 490 263 Q 579 276 692 280 L 765 282 Q 795 280 801 273 Q 806 262 805 240 L 805 208 L 792 97 L 785 63 Q 781 42 770 13 Q 759 -17 747 -28 Q 735 -40 727 -41 Q 719 -42 702 -36 L 641 -14 Q 635 -11 630 -14 Q 625 -17 632 -25 L 646 -39 L 667 -69 Q 672 -77 681 -88 Q 690 -100 690 -101 Q 690 -103 698 -121 Q 707 -139 710 -142 Q 732 -157 794 -92 Q 821 -61 842 12 Q 852 56 854 76 L 865 179 Q 870 229 882 249 Q 895 269 896 276 Q 898 282 889 292 Q 881 302 862 310 L 830 326 Q 810 336 800 336 Q 791 336 773 330 Q 755 324 694 320 L 540 306 L 486 298 L 366 279 Q 346 276 341 278 C 311 276 272 273 272 273 Z" fill="lightgray"></path>
				<path d="M 151 -20 Q 162 -21 172 -8 Q 183 4 197 40 Q 212 76 212 116 Q 212 155 204 174 L 198 186 Q 195 193 189 192 Q 183 192 181 182 L 175 162 L 172 142 Q 168 137 162 120 L 148 94 L 134 72 Q 124 58 124 37 Q 124 -20 151 -20 Z" fill="lightgray"></path>
				<path d="M 292 154 L 298 139 L 314 114 L 330 84 Q 349 51 370 52 Q 378 53 383 65 Q 389 76 389 92 Q 388 122 366 137 Q 335 159 314 162 L 301 165 Q 293 167 291 165 Q 289 163 292 154 Z" fill="lightgray"></path>
				<path d="M 444 168 L 452 150 Q 455 141 464 132 L 481 107 Q 497 84 504 80 Q 521 61 540 81 Q 548 92 547 113 Q 547 134 538 144 Q 530 154 506 166 L 473 177 L 452 181 Q 446 182 442 178 Q 439 173 444 168 Z" fill="lightgray"></path>
				<path d="M 636 191 L 591 202 Q 585 202 584 198 Q 581 194 586 189 L 597 173 Q 599 170 620 146 L 646 117 Q 672 83 690 86 Q 708 88 715 116 Q 723 144 705 162 Q 697 170 670 181 Q 644 191 636 191 Z" fill="lightgray"></path>
</g>
		<text x="40" y="140" font-size="128" fill="#999999">2</text></g>
		<g id="id0:id2:id2" transform="matrix(1.0,0,0,1.0,2048,0.0)">			<g stroke="lightgray" stroke-width="4" transform="scale(4, 4)"> <rect x="0" y="0" width="256" height="256" fill="white" stroke-width="4"/></g>
			<g transform="scale(0.92, -0.92) translate(60, -920)">					<path d="M 692 696 L 672 694 L 643 687 L 569 673 L 486 660 L 362 644 C 332 640 340 619 370 617 L 389 616 Q 402 615 425 616 L 471 619 L 544 628 L 610 637 Q 652 646 692 650 L 708 652 L 725 656 Q 745 661 744 671 Q 743 674 733 681 Q 723 688 708 692 Q 693 696 692 696 Z" fill="black"></path>
				<path d="M 362 644 L 333 656 Q 299 669 288 660 Q 284 657 288 644 L 298 628 Q 306 600 306 591 L 308 572 Q 309 561 309 541 Q 309 521 305 465 Q 302 409 298 362 Q 294 314 282 293 Q 272 279 272 273 C 261 245 347 249 341 278 Q 337 280 339 306 L 343 376 L 345 405 L 351 489 L 354 518 L 360 574 Q 363 602 370 617 C 377 638 377 638 362 644 Z" fill="black"></path>
				<path d="M 549 500 L 678 516 L 701 520 Q 711 521 714 524 Q 726 532 718 540 Q 710 548 698 552 L 678 557 Q 655 562 650 562 L 548 541 L 486 533 L 354 518 C 324 515 322 495 351 489 L 374 484 L 487 490 L 549 500 Z" fill="red"></path>
				<path d="M 542 385 L 694 403 L 715 409 Q 729 414 730 418 Q 731 426 710 436 L 683 444 Q 670 447 658 447 L 546 429 L 487 421 L 345 405 C 315 402 314 384 343 376 L 358 372 Q 369 368 375 368 Q 381 367 418 370 L 487 377 L 542 385 Z" fill="lightgray"></path>
				<path d="M 540 306 L 542 385 L 546 429 L 549 500 L 548 541 L 551 572 Q 551 575 556 592 Q 561 608 559 613 Q 560 619 544 628 C 519 645 458 646 471 619 L 477 607 Q 481 604 484 588 L 486 561 L 486 533 L 487 490 L 487 421 L 487 377 L 486 298 C 486 268 539 276 540 306 Z" fill="lightgray"></path>
				<path d="M 272 273 Q 272 267 277 257 L 285 242 Q 299 214 312 217 Q 317 218 324 222 L 343 230 Q 355 236 374 240 Q 401 250 490 263 Q 579 276 692 280 L 765 282 Q 795 280 801 273 Q 806 262 805 240 L 805 208 L 792 97 L 785 63 Q 781 42 770 13 Q 759 -17 747 -28 Q 735 -40 727 -41 Q 719 -42 702 -36 L 641 -14 Q 635 -11 630 -14 Q 625 -17 632 -25 L 646 -39 L 667 -69 Q 672 -77 681 -88 Q 690 -100 690 -101 Q 690 -103 698 -121 Q 707 -139 710 -142 Q 732 -157 794 -92 Q 821 -61 842 12 Q 852 56 854 76 L 865 179 Q 870 229 882 249 Q 895 269 896 276 Q 898 282 889 292 Q 881 302 862 310 L 830 326 Q 810 336 800 336 Q 791 336 773 330 Q 755 324 694 320 L 540 306 L 486 298 L 366 279 Q 346 276 341 278 C 311 276 272 273 272 273 Z" fill="lightgray"></path>
				<path d="M 151 -20 Q 162 -21 172 -8 Q 183 4 197 40 Q 212 76 212 116 Q 212 155 204 174 L 198 186 Q 195 193 189 192 Q 183 192 181 182 L 175 162 L 172 142 Q 168 137 162 120 L 148 94 L 134 72 Q 124 58 124 37 Q 124 -20 151 -20 Z" fill="lightgray"></path>
				<path d="M 292 154 L 298 139 L 314 114 L 330 84 Q 349 51 370 52 Q 378 53 383 65 Q 389 76 389 92 Q 388 122 366 137 Q 335 159 314 162 L 301 165 Q 293 167 291 165 Q 289 163 292 154 Z" fill="lightgray"></path>
				<path d="M 444 168 L 452 150 Q 455 141 464 132 L 481 107 Q 497 84 504 80 Q 521 61 540 81 Q 548 92 547 113 Q 547 134 538 144 Q 530 154 506 166 L 473 177 L 452 181 Q 446 182 442 178 Q 439 173 444 168 Z" fill="lightgray"></path>
				<path d="M 636 191 L 591 202 Q 585 202 584 198 Q 581 194 586 189 L 597 173 Q 599 170 620 146 L 646 117 Q 672 83 690 86 Q 708 88 715 116 Q 723 144 705 162 Q 697 170 670 181 Q 644 191 636 191 Z" fill="lightgray"></path>
</g>
		<text x="40" y="140" font-size="128" fill="#999999">3</text></g>
		<g id="id0:id3:id3" transform="matrix(1.0,0,0,1.0,3072,0.0)">			<g stroke="lightgray" stroke-width="4" transform="scale(4, 4)"> <rect x="0" y="0" width="256" height="256" fill="white" stroke-width="4"/></g>
			<g transform="scale(0.92, -0.92) translate(60, -920)">					<path d="M 692 696 L 672 694 L 643 687 L 569 673 L 486 660 L 362 644 C 332 640 340 619 370 617 L 389 616 Q 402 615 425 616 L 471 619 L 544 628 L 610 637 Q 652 646 692 650 L 708 652 L 725 656 Q 745 661 744 671 Q 743 674 733 681 Q 723 688 708 692 Q 693 696 692 696 Z" fill="black"></path>
				<path d="M 362 644 L 333 656 Q 299 669 288 660 Q 284 657 288 644 L 298 628 Q 306 600 306 591 L 308 572 Q 309 561 309 541 Q 309 521 305 465 Q 302 409 298 362 Q 294 314 282 293 Q 272 279 272 273 C 261 245 347 249 341 278 Q 337 280 339 306 L 343 376 L 345 405 L 351 489 L 354 518 L 360 574 Q 363 602 370 617 C 377 638 377 638 362 644 Z" fill="black"></path>
				<path d="M 549 500 L 678 516 L 701 520 Q 711 521 714 524 Q 726 532 718 540 Q 710 548 698 552 L 678 557 Q 655 562 650 562 L 548 541 L 486 533 L 354 518 C 324 515 322 495 351 489 L 374 484 L 487 490 L 549 500 Z" fill="black"></path>
				<path d="M 542 385 L 694 403 L 715 409 Q 729 414 730 418 Q 731 426 710 436 L 683 444 Q 670 447 658 447 L 546 429 L 487 421 L 345 405 C 315 402 314 384 343 376 L 358 372 Q 369 368 375 368 Q 381 367 418 370 L 487 377 L 542 385 Z" fill="red"></path>
				<path d="M 540 306 L 542 385 L 546 429 L 549 500 L 548 541 L 551 572 Q 551 575 556 592 Q 561 608 559 613 Q 560 619 544 628 C 519 645 458 646 471 619 L 477 607 Q 481 604 484 588 L 486 561 L 486 533 L 487 490 L 487 421 L 487 377 L 486 298 C 486 268 539 276 540 306 Z" fill="lightgray"></path>
				<path d="M 272 273 Q 272 267 277 257 L 285 242 Q 299 214 312 217 Q 317 218 324 222 L 343 230 Q 355 236 374 240 Q 401 250 490 263 Q 579 276 692 280 L 765 282 Q 795 280 801 273 Q 806 262 805 240 L 805 208 L 792 97 L 785 63 Q 781 42 770 13 Q 759 -17 747 -28 Q 735 -40 727 -41 Q 719 -42 702 -36 L 641 -14 Q 635 -11 630 -14 Q 625 -17 632 -25 L 646 -39 L 667 -69 Q 672 -77 681 -88 Q 690 -100 690 -101 Q 690 -103 698 -121 Q 707 -139 710 -142 Q 732 -157 794 -92 Q 821 -61 842 12 Q 852 56 854 76 L 865 179 Q 870 229 882 249 Q 895 269 896 276 Q 898 282 889 292 Q 881 302 862 310 L 830 326 Q 810 336 800 336 Q 791 336 773 330 Q 755 324 694 320 L 540 306 L 486 298 L 366 279 Q 346 276 341 278 C 311 276 272 273 272 273 Z" fill="lightgray"></path>
				<path d="M 151 -20 Q 162 -21 172 -8 Q 183 4 197 40 Q 212 76 212 116 Q 212 155 204 174 L 198 186 Q 195 193 189 192 Q 183 192 181 182 L 175 162 L 172 142 Q 168 137 162 120 L 148 94 L 134 72 Q 124 58 124 37 Q 124 -20 151 -20 Z" fill="lightgray"></path>
				<path d="M 292 154 L 298 139 L 314 114 L 330 84 Q 349 51 370 52 Q 378 53 383 65 Q 389 76 389 92 Q 388 122 366 137 Q 335 159 314 162 L 301 165 Q 293 167 291 165 Q 289 163 292 154 Z" fill="lightgray"></path>
				<path d="M 444 168 L 452 150 Q 455 141 464 132 L 481 107 Q 497 84 504 80 Q 521 61 540 81 Q 548 92 547 113 Q 547 134 538 144 Q 530 154 506 166 L 473 177 L 452 181 Q 446 182 442 178 Q 439 173 444 168 Z" fill="lightgray"></path>
				<path d="M 636 191 L 591 202 Q 585 202 584 198 Q 581 194 586 189 L 597 173 Q 599 170 620 146 L 646 117 Q 672 83 690 86 Q 708 88 715 116 Q 723 144 705 162 Q 697 170 670 181 Q 644 191 636 191 Z" fill="lightgray"></path>
</g>
		<text x="40" y="140" font-size="128" fill="#999999">4</text></g>
		<g id="id0:id4:id4" transform="matrix(1.0,0,0,1.0,4096,0.0)">			<g stroke="lightgray" stroke-width="4" transform="scale(4, 4)"> <rect x="0" y="0" width="256" height="256" fill="white" stroke-width="4"/></g>
			<g transform="scale(0.92, -0.92) translate(60, -920)">					<path d="M 692 696 L 672 694 L 643 687 L 569 673 L 486 660 L 362 644 C 332 640 340 619 370 617 L 389 616 Q 402 615 425 616 L 471 619 L 544 628 L 610 637 Q 652 646 692 650 L 708 652 L 725 656 Q 745 661 744 671 Q 743 674 733 681 Q 723 688 708 692 Q 693 696 692 696 Z" fill="black"></path>
				<path d="M 362 644 L 333 656 Q 299 669 288 660 Q 284 657 288 644 L 298 628 Q 306 600 306 591 L 308 572 Q 309 561 309 541 Q 309 521 305 465 Q 302 409 298 362 Q 294 314 282 293 Q 272 279 272 273 C 261 245 347 249 341 278 Q 337 280 339 306 L 343 376 L 345 405 L 351 489 L 354 518 L 360 574 Q 363 602 370 617 C 377 638 377 638 362 644 Z" fill="black"></path>
				<path d="M 549 500 L 678 516 L 701 520 Q 711 521 714 524 Q 726 532 718 540 Q 710 548 698 552 L 678 557 Q 655 562 650 562 L 548 541 L 486 533 L 354 518 C 324 515 322 495 351 489 L 374 484 L 487 490 L 549 500 Z" fill="black"></path>
				<path d="M 542 385 L 694 403 L 715 409 Q 729 414 730 418 Q 731 426 710 436 L 683 444 Q 670 447 658 447 L 546 429 L 487 421 L 345 405 C 315 402 314 384 343 376 L 358 372 Q 369 368 375 368 Q 381 367 418 370 L 487 377 L 542 385 Z" fill="black"></path>
				<path d="M 540 306 L 542 385 L 546 429 L 549 500 L 548 541 L 551 572 Q 551 575 556 592 Q 561 608 559 613 Q 560 619 544 628 C 519 645 458 646 471 619 L 477 607 Q 481 604 484 588 L 486 561 L 486 533 L 487 490 L 487 421 L 487 377 L 486 298 C 486 268 539 276 540 306 Z" fill="red"></path>
				<path d="M 272 273 Q 272 267 277 257 L 285 242 Q 299 214 312 217 Q 317 218 324 222 L 343 230 Q 355 236 374 240 Q 401 250 490 263 Q 579 276 692 280 L 765 282 Q 795 280 801 273 Q 806 262 805 240 L 805 208 L 792 97 L 785 63 Q 781 42 770 13 Q 759 -17 747 -28 Q 735 -40 727 -41 Q 719 -42 702 -36 L 641 -14 Q 635 -11 630 -14 Q 625 -17 632 -25 L 646 -39 L 667 -69 Q 672 -77 681 -88 Q 690 -100 690 -101 Q 690 -103 698 -121 Q 707 -139 710 -142 Q 732 -157 794 -92 Q 821 -61 842 12 Q 852 56 854 76 L 865 179 Q 870 229 882 249 Q 895 269 896 276 Q 898 282 889 292 Q 881 302 862 310 L 830 326 Q 810 336 800 336 Q 791 336 773 330 Q 755 324 694 320 L 540 306 L 486 298 L 366 279 Q 346 276 341 278 C 311 276 272 273 272 273 Z" fill="lightgray"></path>
				<path d="M 151 -20 Q 162 -21 172 -8 Q 183 4 197 40 Q 212 76 212 116 Q 212 155 204 174 L 198 186 Q 195 193 189 192 Q 183 192 181 182 L 175 162 L 172 142 Q 168 137 162 120 L 148 94 L 134 72 Q 124 58 124 37 Q 124 -20 151 -20 Z" fill="lightgray"></path>
				<path d="M 292 154 L 298 139 L 314 114 L 330 84 Q 349 51 370 52 Q 378 53 383 65 Q 389 76 389 92 Q 388 122 366 137 Q 335 159 314 162 L 301 165 Q 293 167 291 165 Q 289 163 292 154 Z" fill="lightgray"></path>
				<path d="M 444 168 L 452 150 Q 455 141 464 132 L 481 107 Q 497 84 504 80 Q 521 61 540 81 Q 548 92 547 113 Q 547 134 538 144 Q 530 154 506 166 L 473 177 L 452 181 Q 446 182 442 178 Q 439 173 444 168 Z" fill="lightgray"></path>
				<path d="M 636 191 L 591 202 Q 585 202 584 198 Q 581 194 586 189 L 597 173 Q 599 170 620 146 L 646 117 Q 672 83 690 86 Q 708 88 715 116 Q 723 144 705 162 Q 697 170 670 181 Q 644 191 636 191 Z" fill="lightgray"></path>
</g>
		<text x="40" y="140" font-size="128" fill="#999999">5</text></g>
</g>
	<g id="id1:id1" transform="translate(0.0,1024)">
		<g id="id1:id0:id0" transform="matrix(1.0,0,0,1.0,0,0.0)">			<g stroke="lightgray" stroke-width="4" transform="scale(4, 4)"> <rect x="0" y="0" width="256" height="256" fill="white" stroke-width="4"/></g>
			<g transform="scale(0.92, -0.92) translate(60, -920)">					<path d="M 692 696 L 672 694 L 643 687 L 569 673 L 486 660 L 362 644 C 332 640 340 619 370 617 L 389 616 Q 402 615 425 616 L 471 619 L 544 628 L 610 637 Q 652 646 692 650 L 708 652 L 725 656 Q 745 661 744 671 Q 743 674 733 681 Q 723 688 708 692 Q 693 696 692 696 Z" fill="black"></path>
				<path d="M 362 644 L 333 656 Q 299 669 288 660 Q 284 657 288 644 L 298 628 Q 306 600 306 591 L 308 572 Q 309 561 309 541 Q 309 521 305 465 Q 302 409 298 362 Q 294 314 282 293 Q 272 279 272 273 C 261 245 347 249 341 278 Q 337 280 339 306 L 343 376 L 345 405 L 351 489 L 354 518 L 360 574 Q 363 602 370 617 C 377 638 377 638 362 644 Z" fill="black"></path>
				<path d="M 549 500 L 678 516 L 701 520 Q 711 521 714 524 Q 726 532 718 540 Q 710 548 698 552 L 678 557 Q 655 562 650 562 L 548 541 L 486 533 L 354 518 C 324 515 322 495 351 489 L 374 484 L 487 490 L 549 500 Z" fill="black"></path>
				<path d="M 542 385 L 694 403 L 715 409 Q 729 414 730 418 Q 731 426 710 436 L 683 444 Q 670 447 658 447 L 546 429 L 487 421 L 345 405 C 315 402 314 384 343 376 L 358 372 Q 369 368 375 368 Q 381 367 418 370 L 487 377 L 542 385 Z" fill="black"></path>
				<path d="M 540 306 L 542 385 L 546 429 L 549 500 L 548 541 L 551 572 Q 551 575 556 592 Q 561 608 559 613 Q 560 619 544 628 C 519 645 458 646 471 619 L 477 607 Q 481 604 484 588 L 486 561 L 486 533 L 487 490 L 487 421 L 487 377 L 486 298 C 486 268 539 276 540 306 Z" fill="black"></path>
				<path d="M 272 273 Q 272 267 277 257 L 285 242 Q 299 214 312 217 Q 317 218 324 222 L 343 230 Q 355 236 374 240 Q 401 250 490 263 Q 579 276 692 280 L 765 282 Q 795 280 801 273 Q 806 262 805 240 L 805 208 L 792 97 L 785 63 Q 781 42 770 13 Q 759 -17 747 -28 Q 735 -40 727 -41 Q 719 -42 702 -36 L 641 -14 Q 635 -11 630 -14 Q 625 -17 632 -25 L 646 -39 L 667 -69 Q 672 -77 681 -88 Q 690 -100 690 -101 Q 690 -103 698 -121 Q 707 -139 710 -142 Q 732 -157 794 -92 Q 821 -61 842 12 Q 852 56 854 76 L 865 179 Q 870 229 882 249 Q 895 269 896 276 Q 898 282 889 292 Q 881 302 862 310 L 830 326 Q 810 336 800 336 Q 791 336 773 330 Q 755 324 694 320 L 540 306 L 486 298 L 366 279 Q 346 276 341 278 C 311 276 272 273 272 273 Z" fill="red"></path>
				<path d="M 151 -20 Q 162 -21 172 -8 Q 183 4 197 40 Q 212 76 212 116 Q 212 155 204 174 L 198 186 Q 195 193 189 192 Q 183 192 181 182 L 175 162 L 172 142 Q 168 137 162 120 L 148 94 L 134 72 Q 124 58 124 37 Q 124 -20 151 -20 Z" fill="lightgray"></path>
				<path d="M 292 154 L 298 139 L 314 114 L 330 84 Q 349 51 370 52 Q 378 53 383 65 Q 389 76 389 92 Q 388 122 366 137 Q 335 159 314 162 L 301 165 Q 293 167 291 165 Q 289 163 292 154 Z" fill="lightgray"></path>
				<path d="M 444 168 L 452 150 Q 455 141 464 132 L 481 107 Q 497 84 504 80 Q 521 61 540 81 Q 548 92 547 113 Q 547 134 538 144 Q 530 154 506 166 L 473 177 L 452 181 Q 446 182 442 178 Q 439 173 444 168 Z" fill="lightgray"></path>
				<path d="M 636 191 L 591 202 Q 585 202 584 198 Q 581 194 586 189 L 597 173 Q 599 170 620 146 L 646 117 Q 672 83 690 86 Q 708 88 715 116 Q 723 144 705 162 Q 697 170 670 181 Q 644 191 636 191 Z" fill="lightgray"></path>
</g>
		<text x="40" y="140" font-size="128" fill="#999999">6</text></g>
		<g id="id1:id1:id1" transform="matrix(1.0,0,0,1.0,1024,0.0)">			<g stroke="lightgray" stroke-width="4" transform="scale(4, 4)"> <rect x="0" y="0" width="256" height="256" fill="white" stroke-width="4"/></g>
			<g transform="scale(0.92, -0.92) translate(60, -920)">					<path d="M 692 696 L 672 694 L 643 687 L 569 673 L 486 660 L 362 644 C 332 640 340 619 370 617 L 389 616 Q 402 615 425 616 L 471 619 L 544 628 L 610 637 Q 652 646 692 650 L 708 652 L 725 656 Q 745 661 744 671 Q 743 674 733 681 Q 723 688 708 692 Q 693 696 692 696 Z" fill="black"></path>
				<path d="M 362 644 L 333 656 Q 299 669 288 660 Q 284 657 288 644 L 298 628 Q 306 600 306 591 L 308 572 Q 309 561 309 541 Q 309 521 305 465 Q 302 409 298 362 Q 294 314 282 293 Q 272 279 272 273 C 261 245 347 249 341 278 Q 337 280 339 306 L 343 376 L 345 405 L 351 489 L 354 518 L 360 574 Q 363 602 370 617 C 377 638 377 638 362 644 Z" fill="black"></path>
				<path d="M 549 500 L 678 516 L 701 520 Q 711 521 714 524 Q 726 532 718 540 Q 710 548 698 552 L 678 557 Q 655 562 650 562 L 548 541 L 486 533 L 354 518 C 324 515 322 495 351 489 L 374 484 L 487 490 L 549 500 Z" fill="black"></path>
				<path d="M 542 385 L 694 403 L 715 409 Q 729 414 730 418 Q 731 426 710 436 L 683 444 Q 670 447 658 447 L 546 429 L 487 421 L 345 405 C 315 402 314 384 343 376 L 358 372 Q 369 368 375 368 Q 381 367 418 370 L 487 377 L 542 385 Z" fill="black"></path>
				<path d="M 540 306 L 542 385 L 546 429 L 549 500 L 548 541 L 551 572 Q 551 575 556 592 Q 561 608 559 613 Q 560 619 544 628 C 519 645 458 646 471 619 L 477 607 Q 481 604 484 588 L 486 561 L 486 533 L 487 490 L 487 421 L 487 377 L 486 298 C 486 268 539 276 540 306 Z" fill="black"></path>
				<path d="M 272 273 Q 272 267 277 257 L 285 242 Q 299 214 312 217 Q 317 218 324 222 L 343 230 Q 355 236 374 240 Q 401 250 490 263 Q 579 276 692 280 L 765 282 Q 795 280 801 273 Q 806 262 805 240 L 805 208 L 792 97 L 785 63 Q 781 42 770 13 Q 759 -17 747 -28 Q 735 -40 727 -41 Q 719 -42 702 -36 L 641 -14 Q 635 -11 630 -14 Q 625 -17 632 -25 L 646 -39 L 667 -69 Q 672 -77 681 -88 Q 690 -100 690 -101 Q 690 -103 698 -121 Q 707 -139 710 -142 Q 732 -157 794 -92 Q 821 -61 842 12 Q 852 56 854 76 L 865 179 Q 870 229 882 249 Q 895 269 896 276 Q 898 282 889 292 Q 881 302 862 310 L 830 326 Q 810 336 800 336 Q 791 336 773 330 Q 755 324 694 320 L 540 306 L 486 298 L 366 279 Q 346 276 341 278 C 311 276 272 273 272 273 Z" fill="black"></path>
				<path d="M 151 -20 Q 162 -21 172 -8 Q 183 4 197 40 Q 212 76 212 116 Q 212 155 204 174 L 198 186 Q 195 193 189 192 Q 183 192 181 182 L 175 162 L 172 142 Q 168 137 162 120 L 148 94 L 134 72 Q 124 58 124 37 Q 124 -20 151 -20 Z" fill="red"></path>
				<path d="M 292 154 L 298 139 L 314 114 L 330 84 Q 349 51 370 52 Q 378 53 383 65 Q 389 76 389 92 Q 388 122 366 137 Q 335 159 314 162 L 301 165 Q 293 167 291 165 Q 289 163 292 154 Z" fill="lightgray"></path>
				<path d="M 444 168 L 452 150 Q 455 141 464 132 L 481 107 Q 497 84 504 80 Q 521 61 540 81 Q 548 92 547 113 Q 547 134 538 144 Q 530 154 506 166 L 473 177 L 452 181 Q 446 182 442 178 Q 439 173 444 168 Z" fill="lightgray"></path>
				<path d="M 636 191 L 591 202 Q 585 202 584 198 Q 581 194 586 189 L 597 173 Q 599 170 620 146 L 646 117 Q 672 83 690 86 Q 708 88 715 116 Q 723 144 705 162 Q 697 170 670 181 Q 644 191 636 191 Z" fill="lightgray"></path>
</g>
		<text x="40" y="140" font-size="128" fill="#999999">7</text></g>
		<g id="id1:id2:id2" transform="matrix(1.0,0,0,1.0,2048,0.0)">			<g stroke="lightgray" stroke-width="4" transform="scale(4, 4)"> <rect x="0" y="0" width="256" height="256" fill="white" stroke-width="4"/></g>
			<g transform="scale(0.92, -0.92) translate(60, -920)">					<path d="M 692 696 L 672 694 L 643 687 L 569 673 L 486 660 L 362 644 C 332 640 340 619 370 617 L 389 616 Q 402 615 425 616 L 471 619 L 544 628 L 610 637 Q 652 646 692 650 L 708 652 L 725 656 Q 745 661 744 671 Q 743 674 733 681 Q 723 688 708 692 Q 693 696 692 696 Z" fill="black"></path>
				<path d="M 362 644 L 333 656 Q 299 669 288 660 Q 284 657 288 644 L 298 628 Q 306 600 306 591 L 308 572 Q 309 561 309 541 Q 309 521 305 465 Q 302 409 298 362 Q 294 314 282 293 Q 272 279 272 273 C 261 245 347 249 341 278 Q 337 280 339 306 L 343 376 L 345 405 L 351 489 L 354 518 L 360 574 Q 363 602 370 617 C 377 638 377 638 362 644 Z" fill="black"></path>
				<path d="M 549 500 L 678 516 L 701 520 Q 711 521 714 524 Q 726 532 718 540 Q 710 548 698 552 L 678 557 Q 655 562 650 562 L 548 541 L 486 533 L 354 518 C 324 515 322 495 351 489 L 374 484 L 487 490 L 549 500 Z" fill="black"></path>
				<path d="M 542 385 L 694 403 L 715 409 Q 729 414 730 418 Q 731 426 710 436 L 683 444 Q 670 447 658 447 L 546 429 L 487 421 L 345 405 C 315 402 314 384 343 376 L 358 372 Q 369 368 375 368 Q 381 367 418 370 L 487 377 L 542 385 Z" fill="black"></path>
				<path d="M 540 306 L 542 385 L 546 429 L 549 500 L 548 541 L 551 572 Q 551 575 556 592 Q 561 608 559 613 Q 560 619 544 628 C 519 645 458 646 471 619 L 477 607 Q 481 604 484 588 L 486 561 L 486 533 L 487 490 L 487 421 L 487 377 L 486 298 C 486 268 539 276 540 306 Z" fill="black"></path>
				<path d="M 272 273 Q 272 267 277 257 L 285 242 Q 299 214 312 217 Q 317 218 324 222 L 343 230 Q 355 236 374 240 Q 401 250 490 263 Q 579 276 692 280 L 765 282 Q 795 280 801 273 Q 806 262 805 240 L 805 208 L 792 97 L 785 63 Q 781 42 770 13 Q 759 -17 747 -28 Q 735 -40 727 -41 Q 719 -42 702 -36 L 641 -14 Q 635 -11 630 -14 Q 625 -17 632 -25 L 646 -39 L 667 -69 Q 672 -77 681 -88 Q 690 -100 690 -101 Q 690 -103 698 -121 Q 707 -139 710 -142 Q 732 -157 794 -92 Q 821 -61 842 12 Q 852 56 854 76 L 865 179 Q 870 229 882 249 Q 895 269 896 276 Q 898 282 889 292 Q 881 302 862 310 L 830 326 Q 810 336 800 336 Q 791 336 773 330 Q 755 324 694 320 L 540 306 L 486 298 L 366 279 Q 346 276 341 278 C 311 276 272 273 272 273 Z" fill="black"></path>
				<path d="M 151 -20 Q 162 -21 172 -8 Q 183 4 197 40 Q 212 76 212 116 Q 212 155 204 174 L 198 186 Q 195 193 189 192 Q 183 192 181 182 L 175 162 L 172 142 Q 168 137 162 120 L 148 94 L 134 72 Q 124 58 124 37 Q 124 -20 151 -20 Z" fill="black"></path>
				<path d="M 292 154 L 298 139 L 314 114 L 330 84 Q 349 51 370 52 Q 378 53 383 65 Q 389 76 389 92 Q 388 122 366 137 Q 335 159 314 162 L 301 165 Q 293 167 291 165 Q 289 163 292 154 Z" fill="red"></path>
				<path d="M 444 168 L 452 150 Q 455 141 464 132 L 481 107 Q 497 84 504 80 Q 521 61 540 81 Q 548 92 547 113 Q 547 134 538 144 Q 530 154 506 166 L 473 177 L 452 181 Q 446 182 442 178 Q 439 173 444 168 Z" fill="lightgray"></path>
				<path d="M 636 191 L 591 202 Q 585 202 584 198 Q 581 194 586 189 L 597 173 Q 599 170 620 146 L 646 117 Q 672 83 690 86 Q 708 88 715 116 Q 723 144 705 162 Q 697 170 670 181 Q 644 191 636 191 Z" fill="lightgray"></path>
</g>
		<text x="40" y="140" font-size="128" fill="#999999">8</text></g>
		<g id="id1:id3:id3" transform="matrix(1.0,0,0,1.0,3072,0.0)">			<g stroke="lightgray" stroke-width="4" transform="scale(4, 4)"> <rect x="0" y="0" width="256" height="256" fill="white" stroke-width="4"/></g>
			<g transform="scale(0.92, -0.92) translate(60, -920)">					<path d="M 692 696 L 672 694 L 643 687 L 569 673 L 486 660 L 362 644 C 332 640 340 619 370 617 L 389 616 Q 402 615 425 616 L 471 619 L 544 628 L 610 637 Q 652 646 692 650 L 708 652 L 725 656 Q 745 661 744 671 Q 743 674 733 681 Q 723 688 708 692 Q 693 696 692 696 Z" fill="black"></path>
				<path d="M 362 644 L 333 656 Q 299 669 288 660 Q 284 657 288 644 L 298 628 Q 306 600 306 591 L 308 572 Q 309 561 309 541 Q 309 521 305 465 Q 302 409 298 362 Q 294 314 282 293 Q 272 279 272 273 C 261 245 347 249 341 278 Q 337 280 339 306 L 343 376 L 345 405 L 351 489 L 354 518 L 360 574 Q 363 602 370 617 C 377 638 377 638 362 644 Z" fill="black"></path>
				<path d="M 549 500 L 678 516 L 701 520 Q 711 521 714 524 Q 726 532 718 540 Q 710 548 698 552 L 678 557 Q 655 562 650 562 L 548 541 L 486 533 L 354 518 C 324 515 322 495 351 489 L 374 484 L 487 490 L 549 500 Z" fill="black"></path>
				<path d="M 542 385 L 694 403 L 715 409 Q 729 414 730 418 Q 731 426 710 436 L 683 444 Q 670 447 658 447 L 546 429 L 487 421 L 345 405 C 315 402 314 384 343 376 L 358 372 Q 369 368 375 368 Q 381 367 418 370 L 487 377 L 542 385 Z" fill="black"></path>
				<path d="M 540 306 L 542 385 L 546 429 L 549 500 L 548 541 L 551 572 Q 551 575 556 592 Q 561 608 559 613 Q 560 619 544 628 C 519 645 458 646 471 619 L 477 607 Q 481 604 484 588 L 486 561 L 486 533 L 487 490 L 487 421 L 487 377 L 486 298 C 486 268 539 276 540 306 Z" fill="black"></path>
				<path d="M 272 273 Q 272 267 277 257 L 285 242 Q 299 214 312 217 Q 317 218 324 222 L 343 230 Q 355 236 374 240 Q 401 250 490 263 Q 579 276 692 280 L 765 282 Q 795 280 801 273 Q 806 262 805 240 L 805 208 L 792 97 L 785 63 Q 781 42 770 13 Q 759 -17 747 -28 Q 735 -40 727 -41 Q 719 -42 702 -36 L 641 -14 Q 635 -11 630 -14 Q 625 -17 632 -25 L 646 -39 L 667 -69 Q 672 -77 681 -88 Q 690 -100 690 -101 Q 690 -103 698 -121 Q 707 -139 710 -142 Q 732 -157 794 -92 Q 821 -61 842 12 Q 852 56 854 76 L 865 179 Q 870 229 882 249 Q 895 269 896 276 Q 898 282 889 292 Q 881 302 862 310 L 830 326 Q 810 336 800 336 Q 791 336 773 330 Q 755 324 694 320 L 540 306 L 486 298 L 366 279 Q 346 276 341 278 C 311 276 272 273 272 273 Z" fill="black"></path>
				<path d="M 151 -20 Q 162 -21 172 -8 Q 183 4 197 40 Q 212 76 212 116 Q 212 155 204 174 L 198 186 Q 195 193 189 192 Q 183 192 181 182 L 175 162 L 172 142 Q 168 137 162 120 L 148 94 L 134 72 Q 124 58 124 37 Q 124 -20 151 -20 Z" fill="black"></path>
				<path d="M 292 154 L 298 139 L 314 114 L 330 84 Q 349 51 370 52 Q 378 53 383 65 Q 389 76 389 92 Q 388 122 366 137 Q 335 159 314 162 L 301 165 Q 293 167 291 165 Q 289 163 292 154 Z" fill="black"></path>
				<path d="M 444 168 L 452 150 Q 455 141 464 132 L 481 107 Q 497 84 504 80 Q 521 61 540 81 Q 548 92 547 113 Q 547 134 538 144 Q 530 154 506 166 L 473 177 L 452 181 Q 446 182 442 178 Q 439 173 444 168 Z" fill="red"></path>
				<path d="M 636 191 L 591 202 Q 585 202 584 198 Q 581 194 586 189 L 597 173 Q 599 170 620 146 L 646 117 Q 672 83 690 86 Q 708 88 715 116 Q 723 144 705 162 Q 697 170 670 181 Q 644 191 636 191 Z" fill="lightgray"></path>
</g>
		<text x="40" y="140" font-size="128" fill="#999999">9</text></g>
		<g id="id1:id4:id4" transform="matrix(1.0,0,0,1.0,4096,0.0)">			<g stroke="lightgray" stroke-width="4" transform="scale(4, 4)"> <rect x="0" y="0" width="256" height="256" fill="white" stroke-width="4"/></g>
			<g transform="scale(0.92, -0.92) translate(60, -920)">					<path d="M 692 696 L 672 694 L 643 687 L 569 673 L 486 660 L 362 644 C 332 640 340 619 370 617 L 389 616 Q 402 615 425 616 L 471 619 L 544 628 L 610 637 Q 652 646 692 650 L 708 652 L 725 656 Q 745 661 744 671 Q 743 674 733 681 Q 723 688 708 692 Q 693 696 692 696 Z" fill="black"></path>
				<path d="M 362 644 L 333 656 Q 299 669 288 660 Q 284 657 288 644 L 298 628 Q 306 600 306 591 L 308 572 Q 309 561 309 541 Q 309 521 305 465 Q 302 409 298 362 Q 294 314 282 293 Q 272 279 272 273 C 261 245 347 249 341 278 Q 337 280 339 306 L 343 376 L 345 405 L 351 489 L 354 518 L 360 574 Q 363 602 370 617 C 377 638 377 638 362 644 Z" fill="black"></path>
				<path d="M 549 500 L 678 516 L 701 520 Q 711 521 714 524 Q 726 532 718 540 Q 710 548 698 552 L 678 557 Q 655 562 650 562 L 548 541 L 486 533 L 354 518 C 324 515 322 495 351 489 L 374 484 L 487 490 L 549 500 Z" fill="black"></path>
				<path d="M 542 385 L 694 403 L 715 409 Q 729 414 730 418 Q 731 426 710 436 L 683 444 Q 670 447 658 447 L 546 429 L 487 421 L 345 405 C 315 402 314 384 343 376 L 358 372 Q 369 368 375 368 Q 381 367 418 370 L 487 377 L 542 385 Z" fill="black"></path>
				<path d="M 540 306 L 542 385 L 546 429 L 549 500 L 548 541 L 551 572 Q 551 575 556 592 Q 561 608 559 613 Q 560 619 544 628 C 519 645 458 646 471 619 L 477 607 Q 481 604 484 588 L 486 561 L 486 533 L 487 490 L 487 421 L 487 377 L 486 298 C 486 268 539 276 540 306 Z" fill="black"></path>
				<path d="M 272 273 Q 272 267 277 257 L 285 242 Q 299 214 312 217 Q 317 218 324 222 L 343 230 Q 355 236 374 240 Q 401 250 490 263 Q 579 276 692 280 L 765 282 Q 795 280 801 273 Q 806 262 805 240 L 805 208 L 792 97 L 785 63 Q 781 42 770 13 Q 759 -17 747 -28 Q 735 -40 727 -41 Q 719 -42 702 -36 L 641 -14 Q 635 -11 630 -14 Q 625 -17 632 -25 L 646 -39 L 667 -69 Q 672 -77 681 -88 Q 690 -100 690 -101 Q 690 -103 698 -121 Q 707 -139 710 -142 Q 732 -157 794 -92 Q 821 -61 842 12 Q 852 56 854 76 L 865 179 Q 870 229 882 249 Q 895 269 896 276 Q 898 282 889 292 Q 881 302 862 310 L 830 326 Q 810 336 800 336 Q 791 336 773 330 Q 755 324 694 320 L 540 306 L 486 298 L 366 279 Q 346 276 341 278 C 311 276 272 273 272 273 Z" fill="black"></path>
				<path d="M 151 -20 Q 162 -21 172 -8 Q 183 4 197 40 Q 212 76 212 116 Q 212 155 204 174 L 198 186 Q 195 193 189 192 Q 183 192 181 182 L 175 162 L 172 142 Q 168 137 162 120 L 148 94 L 134 72 Q 124 58 124 37 Q 124 -20 151 -20 Z" fill="black"></path>
				<path d="M 292 154 L 298 139 L 314 114 L 330 84 Q 349 51 370 52 Q 378 53 383 65 Q 389 76 389 92 Q 388 122 366 137 Q 335 159 314 162 L 301 165 Q 293 167 291 165 Q 289 163 292 154 Z" fill="black"></path>
				<path d="M 444 168 L 452 150 Q 455 141 464 132 L 481 107 Q 497 84 504 80 Q 521 61 540 81 Q 548 92 547 113 Q 547 134 538 144 Q 530 154 506 166 L 473 177 L 452 181 Q 446 182 442 178 Q 439 173 444 168 Z" fill="black"></path>
				<path d="M 636 191 L 591 202 Q 585 202 584 198 Q 581 194 586 189 L 597 173 Q 599 170 620 146 L 646 117 Q 672 83 690 86 Q 708 88 715 116 Q 723 144 705 162 Q 697 170 670 181 Q 644 191 636 191 Z" fill="red"></path>
</g>
		<text x="40" y="140" font-size="128" fill="#999999">10</text></g>
</g>
</svg>
