<?xml version="1.0" standalone="no"?>
<!DOCTYPE svg PUBLIC "-//W3C//DTD SVG 1.1//EN"
 "http://www.w3.org/Graphics/SVG/1.1/DTD/svg11.dtd">
<!-- generate by Japanese dictionary app com.asnsami.kanjidictionary -->

<svg xmlns="http://www.w3.org/2000/svg" xmlns:sodipodi="http://sodipodi.sourceforge.net/DTD/sodipodi-0.dtd" version="1.1" width="640" height="512" viewBox="0 0 5120 4096">
	<g id="id0:id0" transform="translate(0.0,0)">
		<g id="id0:id0:id0" transform="matrix(1.0,0,0,1.0,0,0.0)">			<g stroke="lightgray" stroke-width="4" transform="scale(4, 4)"> <rect x="0" y="0" width="256" height="256" fill="white" stroke-width="4"/></g>
			<g transform="scale(0.92, -0.92) translate(60, -920)">					<path d="M 278 684 Q 320 742 333 752 Q 342 761 338 773 Q 334 783 311 804 Q 289 820 273 821 Q 257 820 264 801 Q 283 752 143 578 Q 134 569 132 564 Q 128 555 140 557 Q 165 560 261 663 L 278 684 Z" fill="red"></path>
				<path d="M 306 514 Q 328 536 370 583 Q 412 632 453 658 Q 471 668 459 681 Q 446 694 411 715 Q 399 721 344 701 Q 292 688 278 684 C 249 676 232 671 261 663 Q 276 654 349 666 Q 356 667 358 665 Q 362 662 357 651 Q 315 567 290 528 Q 283 516 280 509 C 267 482 285 493 306 514 Z" fill="lightgray"></path>
				<path d="M 174 486 Q 164 492 134 496 Q 124 499 120 494 Q 116 488 123 474 Q 154 410 172 306 Q 175 275 193 254 Q 209 235 214 249 Q 215 258 217 268 L 216 289 Q 215 302 212 318 Q 190 421 185 456 C 181 483 181 483 174 486 Z" fill="lightgray"></path>
				<path d="M 369 295 Q 385 270 401 262 Q 411 255 424 274 Q 437 298 462 424 Q 469 452 490 474 Q 500 484 491 497 Q 478 512 439 534 Q 424 540 353 524 L 306 514 L 280 509 Q 249 505 174 486 C 145 479 157 446 185 456 Q 188 460 264 476 L 300 483 Q 388 504 407 492 Q 420 482 417 463 Q 396 333 381 317 C 369 295 369 295 369 295 Z" fill="lightgray"></path>
				<path d="M 317 386 Q 342 392 366 395 Q 385 399 377 410 Q 367 422 346 424 Q 334 425 318 421 L 274 406 Q 249 399 229 391 Q 216 387 233 375 Q 240 371 253 374 Q 263 377 275 377 L 317 386 Z" fill="lightgray"></path>
				<path d="M 314 318 Q 315 355 317 386 L 318 421 Q 318 437 320 446 Q 324 462 300 483 C 278 503 251 503 264 476 Q 270 470 274 406 L 275 377 Q 275 349 278 307 C 280 277 313 288 314 318 Z" fill="lightgray"></path>
				<path d="M 217 268 Q 221 268 227 269 Q 306 285 369 295 C 399 300 405 301 381 317 Q 374 323 361 325 Q 342 326 314 318 L 278 307 Q 245 300 216 289 C 188 279 187 266 217 268 Z" fill="lightgray"></path>
				<path d="M 135 187 Q 116 144 97 100 Q 84 78 92 51 Q 96 36 108 23 Q 117 14 129 17 Q 136 18 143 31 Q 164 79 164 187 Q 161 197 160 202 Q 156 206 149 206 Q 145 203 135 187 Z" fill="lightgray"></path>
				<path d="M 221 169 Q 230 118 247 89 Q 254 82 265 86 Q 272 90 278 102 Q 284 132 242 186 Q 235 195 227 196 Q 223 197 220 190 Q 217 183 221 169 Z" fill="lightgray"></path>
				<path d="M 305 189 Q 321 140 339 122 Q 348 116 357 122 Q 364 128 367 139 Q 368 167 336 198 Q 312 216 307 217 Q 303 217 301 209 Q 300 202 305 189 Z" fill="lightgray"></path>
				<path d="M 393 197 Q 435 143 443 141 Q 452 140 457 149 Q 463 159 461 183 Q 458 205 397 234 Q 385 240 380 238 Q 376 237 375 226 Q 376 217 393 197 Z" fill="lightgray"></path>
				<path d="M 664 624 Q 709 648 921 648 Q 940 648 944 657 Q 948 667 933 679 Q 882 715 826 696 Q 769 684 684 665 Q 681 665 680 664 L 621 653 Q 552 643 478 628 Q 459 625 474 611 Q 487 599 503 595 Q 522 591 537 596 Q 570 606 608 614 L 664 624 Z" fill="lightgray"></path>
				<path d="M 590 468 Q 627 535 664 624 L 680 664 Q 689 718 722 763 Q 731 781 725 792 Q 719 805 686 822 Q 656 835 637 831 Q 618 827 631 806 Q 653 773 645 741 Q 635 698 621 653 L 608 614 Q 562 487 465 316 Q 458 304 456 297 Q 455 285 468 291 Q 499 304 569 428 L 590 468 Z" fill="lightgray"></path>
				<path d="M 609 244 Q 610 287 614 321 L 617 352 Q 620 406 623 425 Q 624 431 623 435 C 624 452 624 452 607 460 Q 600 464 590 468 C 563 480 562 457 569 428 Q 599 316 550 143 Q 514 79 548 37 Q 555 24 564 29 Q 594 48 608 215 L 609 244 Z" fill="lightgray"></path>
				<path d="M 623 435 Q 752 468 766 462 Q 776 456 776 430 Q 794 240 784 91 Q 783 61 765 55 Q 755 52 698 65 Q 685 69 686 60 Q 687 53 702 43 Q 739 12 766 -22 Q 781 -38 797 -37 Q 815 -33 836 19 Q 863 71 857 125 Q 847 252 835 370 Q 831 416 850 454 Q 860 470 847 483 Q 828 499 790 511 Q 768 521 751 509 Q 736 502 709 491 Q 640 469 607 460 C 578 452 594 428 623 435 Z" fill="lightgray"></path>
				<path d="M 614 321 Q 675 333 720 340 Q 742 344 733 357 Q 723 370 698 373 Q 664 376 617 352 C 590 339 585 315 614 321 Z" fill="lightgray"></path>
				<path d="M 608 215 Q 675 224 727 229 Q 749 233 741 245 Q 731 258 707 263 Q 677 269 609 244 C 581 234 578 211 608 215 Z" fill="lightgray"></path>
</g>
		<text x="40" y="140" font-size="128" fill="#999999">1</text></g>
		<g id="id0:id1:id1" transform="matrix(1.0,0,0,1.0,1024,0.0)">			<g stroke="lightgray" stroke-width="4" transform="scale(4, 4)"> <rect x="0" y="0" width="256" height="256" fill="white" stroke-width="4"/></g>
			<g transform="scale(0.92, -0.92) translate(60, -920)">					<path d="M 278 684 Q 320 742 333 752 Q 342 761 338 773 Q 334 783 311 804 Q 289 820 273 821 Q 257 820 264 801 Q 283 752 143 578 Q 134 569 132 564 Q 128 555 140 557 Q 165 560 261 663 L 278 684 Z" fill="black"></path>
				<path d="M 306 514 Q 328 536 370 583 Q 412 632 453 658 Q 471 668 459 681 Q 446 694 411 715 Q 399 721 344 701 Q 292 688 278 684 C 249 676 232 671 261 663 Q 276 654 349 666 Q 356 667 358 665 Q 362 662 357 651 Q 315 567 290 528 Q 283 516 280 509 C 267 482 285 493 306 514 Z" fill="red"></path>
				<path d="M 174 486 Q 164 492 134 496 Q 124 499 120 494 Q 116 488 123 474 Q 154 410 172 306 Q 175 275 193 254 Q 209 235 214 249 Q 215 258 217 268 L 216 289 Q 215 302 212 318 Q 190 421 185 456 C 181 483 181 483 174 486 Z" fill="lightgray"></path>
				<path d="M 369 295 Q 385 270 401 262 Q 411 255 424 274 Q 437 298 462 424 Q 469 452 490 474 Q 500 484 491 497 Q 478 512 439 534 Q 424 540 353 524 L 306 514 L 280 509 Q 249 505 174 486 C 145 479 157 446 185 456 Q 188 460 264 476 L 300 483 Q 388 504 407 492 Q 420 482 417 463 Q 396 333 381 317 C 369 295 369 295 369 295 Z" fill="lightgray"></path>
				<path d="M 317 386 Q 342 392 366 395 Q 385 399 377 410 Q 367 422 346 424 Q 334 425 318 421 L 274 406 Q 249 399 229 391 Q 216 387 233 375 Q 240 371 253 374 Q 263 377 275 377 L 317 386 Z" fill="lightgray"></path>
				<path d="M 314 318 Q 315 355 317 386 L 318 421 Q 318 437 320 446 Q 324 462 300 483 C 278 503 251 503 264 476 Q 270 470 274 406 L 275 377 Q 275 349 278 307 C 280 277 313 288 314 318 Z" fill="lightgray"></path>
				<path d="M 217 268 Q 221 268 227 269 Q 306 285 369 295 C 399 300 405 301 381 317 Q 374 323 361 325 Q 342 326 314 318 L 278 307 Q 245 300 216 289 C 188 279 187 266 217 268 Z" fill="lightgray"></path>
				<path d="M 135 187 Q 116 144 97 100 Q 84 78 92 51 Q 96 36 108 23 Q 117 14 129 17 Q 136 18 143 31 Q 164 79 164 187 Q 161 197 160 202 Q 156 206 149 206 Q 145 203 135 187 Z" fill="lightgray"></path>
				<path d="M 221 169 Q 230 118 247 89 Q 254 82 265 86 Q 272 90 278 102 Q 284 132 242 186 Q 235 195 227 196 Q 223 197 220 190 Q 217 183 221 169 Z" fill="lightgray"></path>
				<path d="M 305 189 Q 321 140 339 122 Q 348 116 357 122 Q 364 128 367 139 Q 368 167 336 198 Q 312 216 307 217 Q 303 217 301 209 Q 300 202 305 189 Z" fill="lightgray"></path>
				<path d="M 393 197 Q 435 143 443 141 Q 452 140 457 149 Q 463 159 461 183 Q 458 205 397 234 Q 385 240 380 238 Q 376 237 375 226 Q 376 217 393 197 Z" fill="lightgray"></path>
				<path d="M 664 624 Q 709 648 921 648 Q 940 648 944 657 Q 948 667 933 679 Q 882 715 826 696 Q 769 684 684 665 Q 681 665 680 664 L 621 653 Q 552 643 478 628 Q 459 625 474 611 Q 487 599 503 595 Q 522 591 537 596 Q 570 606 608 614 L 664 624 Z" fill="lightgray"></path>
				<path d="M 590 468 Q 627 535 664 624 L 680 664 Q 689 718 722 763 Q 731 781 725 792 Q 719 805 686 822 Q 656 835 637 831 Q 618 827 631 806 Q 653 773 645 741 Q 635 698 621 653 L 608 614 Q 562 487 465 316 Q 458 304 456 297 Q 455 285 468 291 Q 499 304 569 428 L 590 468 Z" fill="lightgray"></path>
				<path d="M 609 244 Q 610 287 614 321 L 617 352 Q 620 406 623 425 Q 624 431 623 435 C 624 452 624 452 607 460 Q 600 464 590 468 C 563 480 562 457 569 428 Q 599 316 550 143 Q 514 79 548 37 Q 555 24 564 29 Q 594 48 608 215 L 609 244 Z" fill="lightgray"></path>
				<path d="M 623 435 Q 752 468 766 462 Q 776 456 776 430 Q 794 240 784 91 Q 783 61 765 55 Q 755 52 698 65 Q 685 69 686 60 Q 687 53 702 43 Q 739 12 766 -22 Q 781 -38 797 -37 Q 815 -33 836 19 Q 863 71 857 125 Q 847 252 835 370 Q 831 416 850 454 Q 860 470 847 483 Q 828 499 790 511 Q 768 521 751 509 Q 736 502 709 491 Q 640 469 607 460 C 578 452 594 428 623 435 Z" fill="lightgray"></path>
				<path d="M 614 321 Q 675 333 720 340 Q 742 344 733 357 Q 723 370 698 373 Q 664 376 617 352 C 590 339 585 315 614 321 Z" fill="lightgray"></path>
				<path d="M 608 215 Q 675 224 727 229 Q 749 233 741 245 Q 731 258 707 263 Q 677 269 609 244 C 581 234 578 211 608 215 Z" fill="lightgray"></path>
</g>
		<text x="40" y="140" font-size="128" fill="#999999">2</text></g>
		<g id="id0:id2:id2" transform="matrix(1.0,0,0,1.0,2048,0.0)">			<g stroke="lightgray" stroke-width="4" transform="scale(4, 4)"> <rect x="0" y="0" width="256" height="256" fill="white" stroke-width="4"/></g>
			<g transform="scale(0.92, -0.92) translate(60, -920)">					<path d="M 278 684 Q 320 742 333 752 Q 342 761 338 773 Q 334 783 311 804 Q 289 820 273 821 Q 257 820 264 801 Q 283 752 143 578 Q 134 569 132 564 Q 128 555 140 557 Q 165 560 261 663 L 278 684 Z" fill="black"></path>
				<path d="M 306 514 Q 328 536 370 583 Q 412 632 453 658 Q 471 668 459 681 Q 446 694 411 715 Q 399 721 344 701 Q 292 688 278 684 C 249 676 232 671 261 663 Q 276 654 349 666 Q 356 667 358 665 Q 362 662 357 651 Q 315 567 290 528 Q 283 516 280 509 C 267 482 285 493 306 514 Z" fill="black"></path>
				<path d="M 174 486 Q 164 492 134 496 Q 124 499 120 494 Q 116 488 123 474 Q 154 410 172 306 Q 175 275 193 254 Q 209 235 214 249 Q 215 258 217 268 L 216 289 Q 215 302 212 318 Q 190 421 185 456 C 181 483 181 483 174 486 Z" fill="red"></path>
				<path d="M 369 295 Q 385 270 401 262 Q 411 255 424 274 Q 437 298 462 424 Q 469 452 490 474 Q 500 484 491 497 Q 478 512 439 534 Q 424 540 353 524 L 306 514 L 280 509 Q 249 505 174 486 C 145 479 157 446 185 456 Q 188 460 264 476 L 300 483 Q 388 504 407 492 Q 420 482 417 463 Q 396 333 381 317 C 369 295 369 295 369 295 Z" fill="lightgray"></path>
				<path d="M 317 386 Q 342 392 366 395 Q 385 399 377 410 Q 367 422 346 424 Q 334 425 318 421 L 274 406 Q 249 399 229 391 Q 216 387 233 375 Q 240 371 253 374 Q 263 377 275 377 L 317 386 Z" fill="lightgray"></path>
				<path d="M 314 318 Q 315 355 317 386 L 318 421 Q 318 437 320 446 Q 324 462 300 483 C 278 503 251 503 264 476 Q 270 470 274 406 L 275 377 Q 275 349 278 307 C 280 277 313 288 314 318 Z" fill="lightgray"></path>
				<path d="M 217 268 Q 221 268 227 269 Q 306 285 369 295 C 399 300 405 301 381 317 Q 374 323 361 325 Q 342 326 314 318 L 278 307 Q 245 300 216 289 C 188 279 187 266 217 268 Z" fill="lightgray"></path>
				<path d="M 135 187 Q 116 144 97 100 Q 84 78 92 51 Q 96 36 108 23 Q 117 14 129 17 Q 136 18 143 31 Q 164 79 164 187 Q 161 197 160 202 Q 156 206 149 206 Q 145 203 135 187 Z" fill="lightgray"></path>
				<path d="M 221 169 Q 230 118 247 89 Q 254 82 265 86 Q 272 90 278 102 Q 284 132 242 186 Q 235 195 227 196 Q 223 197 220 190 Q 217 183 221 169 Z" fill="lightgray"></path>
				<path d="M 305 189 Q 321 140 339 122 Q 348 116 357 122 Q 364 128 367 139 Q 368 167 336 198 Q 312 216 307 217 Q 303 217 301 209 Q 300 202 305 189 Z" fill="lightgray"></path>
				<path d="M 393 197 Q 435 143 443 141 Q 452 140 457 149 Q 463 159 461 183 Q 458 205 397 234 Q 385 240 380 238 Q 376 237 375 226 Q 376 217 393 197 Z" fill="lightgray"></path>
				<path d="M 664 624 Q 709 648 921 648 Q 940 648 944 657 Q 948 667 933 679 Q 882 715 826 696 Q 769 684 684 665 Q 681 665 680 664 L 621 653 Q 552 643 478 628 Q 459 625 474 611 Q 487 599 503 595 Q 522 591 537 596 Q 570 606 608 614 L 664 624 Z" fill="lightgray"></path>
				<path d="M 590 468 Q 627 535 664 624 L 680 664 Q 689 718 722 763 Q 731 781 725 792 Q 719 805 686 822 Q 656 835 637 831 Q 618 827 631 806 Q 653 773 645 741 Q 635 698 621 653 L 608 614 Q 562 487 465 316 Q 458 304 456 297 Q 455 285 468 291 Q 499 304 569 428 L 590 468 Z" fill="lightgray"></path>
				<path d="M 609 244 Q 610 287 614 321 L 617 352 Q 620 406 623 425 Q 624 431 623 435 C 624 452 624 452 607 460 Q 600 464 590 468 C 563 480 562 457 569 428 Q 599 316 550 143 Q 514 79 548 37 Q 555 24 564 29 Q 594 48 608 215 L 609 244 Z" fill="lightgray"></path>
				<path d="M 623 435 Q 752 468 766 462 Q 776 456 776 430 Q 794 240 784 91 Q 783 61 765 55 Q 755 52 698 65 Q 685 69 686 60 Q 687 53 702 43 Q 739 12 766 -22 Q 781 -38 797 -37 Q 815 -33 836 19 Q 863 71 857 125 Q 847 252 835 370 Q 831 416 850 454 Q 860 470 847 483 Q 828 499 790 511 Q 768 521 751 509 Q 736 502 709 491 Q 640 469 607 460 C 578 452 594 428 623 435 Z" fill="lightgray"></path>
				<path d="M 614 321 Q 675 333 720 340 Q 742 344 733 357 Q 723 370 698 373 Q 664 376 617 352 C 590 339 585 315 614 321 Z" fill="lightgray"></path>
				<path d="M 608 215 Q 675 224 727 229 Q 749 233 741 245 Q 731 258 707 263 Q 677 269 609 244 C 581 234 578 211 608 215 Z" fill="lightgray"></path>
</g>
		<text x="40" y="140" font-size="128" fill="#999999">3</text></g>
		<g id="id0:id3:id3" transform="matrix(1.0,0,0,1.0,3072,0.0)">			<g stroke="lightgray" stroke-width="4" transform="scale(4, 4)"> <rect x="0" y="0" width="256" height="256" fill="white" stroke-width="4"/></g>
			<g transform="scale(0.92, -0.92) translate(60, -920)">					<path d="M 278 684 Q 320 742 333 752 Q 342 761 338 773 Q 334 783 311 804 Q 289 820 273 821 Q 257 820 264 801 Q 283 752 143 578 Q 134 569 132 564 Q 128 555 140 557 Q 165 560 261 663 L 278 684 Z" fill="black"></path>
				<path d="M 306 514 Q 328 536 370 583 Q 412 632 453 658 Q 471 668 459 681 Q 446 694 411 715 Q 399 721 344 701 Q 292 688 278 684 C 249 676 232 671 261 663 Q 276 654 349 666 Q 356 667 358 665 Q 362 662 357 651 Q 315 567 290 528 Q 283 516 280 509 C 267 482 285 493 306 514 Z" fill="black"></path>
				<path d="M 174 486 Q 164 492 134 496 Q 124 499 120 494 Q 116 488 123 474 Q 154 410 172 306 Q 175 275 193 254 Q 209 235 214 249 Q 215 258 217 268 L 216 289 Q 215 302 212 318 Q 190 421 185 456 C 181 483 181 483 174 486 Z" fill="black"></path>
				<path d="M 369 295 Q 385 270 401 262 Q 411 255 424 274 Q 437 298 462 424 Q 469 452 490 474 Q 500 484 491 497 Q 478 512 439 534 Q 424 540 353 524 L 306 514 L 280 509 Q 249 505 174 486 C 145 479 157 446 185 456 Q 188 460 264 476 L 300 483 Q 388 504 407 492 Q 420 482 417 463 Q 396 333 381 317 C 369 295 369 295 369 295 Z" fill="red"></path>
				<path d="M 317 386 Q 342 392 366 395 Q 385 399 377 410 Q 367 422 346 424 Q 334 425 318 421 L 274 406 Q 249 399 229 391 Q 216 387 233 375 Q 240 371 253 374 Q 263 377 275 377 L 317 386 Z" fill="lightgray"></path>
				<path d="M 314 318 Q 315 355 317 386 L 318 421 Q 318 437 320 446 Q 324 462 300 483 C 278 503 251 503 264 476 Q 270 470 274 406 L 275 377 Q 275 349 278 307 C 280 277 313 288 314 318 Z" fill="lightgray"></path>
				<path d="M 217 268 Q 221 268 227 269 Q 306 285 369 295 C 399 300 405 301 381 317 Q 374 323 361 325 Q 342 326 314 318 L 278 307 Q 245 300 216 289 C 188 279 187 266 217 268 Z" fill="lightgray"></path>
				<path d="M 135 187 Q 116 144 97 100 Q 84 78 92 51 Q 96 36 108 23 Q 117 14 129 17 Q 136 18 143 31 Q 164 79 164 187 Q 161 197 160 202 Q 156 206 149 206 Q 145 203 135 187 Z" fill="lightgray"></path>
				<path d="M 221 169 Q 230 118 247 89 Q 254 82 265 86 Q 272 90 278 102 Q 284 132 242 186 Q 235 195 227 196 Q 223 197 220 190 Q 217 183 221 169 Z" fill="lightgray"></path>
				<path d="M 305 189 Q 321 140 339 122 Q 348 116 357 122 Q 364 128 367 139 Q 368 167 336 198 Q 312 216 307 217 Q 303 217 301 209 Q 300 202 305 189 Z" fill="lightgray"></path>
				<path d="M 393 197 Q 435 143 443 141 Q 452 140 457 149 Q 463 159 461 183 Q 458 205 397 234 Q 385 240 380 238 Q 376 237 375 226 Q 376 217 393 197 Z" fill="lightgray"></path>
				<path d="M 664 624 Q 709 648 921 648 Q 940 648 944 657 Q 948 667 933 679 Q 882 715 826 696 Q 769 684 684 665 Q 681 665 680 664 L 621 653 Q 552 643 478 628 Q 459 625 474 611 Q 487 599 503 595 Q 522 591 537 596 Q 570 606 608 614 L 664 624 Z" fill="lightgray"></path>
				<path d="M 590 468 Q 627 535 664 624 L 680 664 Q 689 718 722 763 Q 731 781 725 792 Q 719 805 686 822 Q 656 835 637 831 Q 618 827 631 806 Q 653 773 645 741 Q 635 698 621 653 L 608 614 Q 562 487 465 316 Q 458 304 456 297 Q 455 285 468 291 Q 499 304 569 428 L 590 468 Z" fill="lightgray"></path>
				<path d="M 609 244 Q 610 287 614 321 L 617 352 Q 620 406 623 425 Q 624 431 623 435 C 624 452 624 452 607 460 Q 600 464 590 468 C 563 480 562 457 569 428 Q 599 316 550 143 Q 514 79 548 37 Q 555 24 564 29 Q 594 48 608 215 L 609 244 Z" fill="lightgray"></path>
				<path d="M 623 435 Q 752 468 766 462 Q 776 456 776 430 Q 794 240 784 91 Q 783 61 765 55 Q 755 52 698 65 Q 685 69 686 60 Q 687 53 702 43 Q 739 12 766 -22 Q 781 -38 797 -37 Q 815 -33 836 19 Q 863 71 857 125 Q 847 252 835 370 Q 831 416 850 454 Q 860 470 847 483 Q 828 499 790 511 Q 768 521 751 509 Q 736 502 709 491 Q 640 469 607 460 C 578 452 594 428 623 435 Z" fill="lightgray"></path>
				<path d="M 614 321 Q 675 333 720 340 Q 742 344 733 357 Q 723 370 698 373 Q 664 376 617 352 C 590 339 585 315 614 321 Z" fill="lightgray"></path>
				<path d="M 608 215 Q 675 224 727 229 Q 749 233 741 245 Q 731 258 707 263 Q 677 269 609 244 C 581 234 578 211 608 215 Z" fill="lightgray"></path>
</g>
		<text x="40" y="140" font-size="128" fill="#999999">4</text></g>
		<g id="id0:id4:id4" transform="matrix(1.0,0,0,1.0,4096,0.0)">			<g stroke="lightgray" stroke-width="4" transform="scale(4, 4)"> <rect x="0" y="0" width="256" height="256" fill="white" stroke-width="4"/></g>
			<g transform="scale(0.92, -0.92) translate(60, -920)">					<path d="M 278 684 Q 320 742 333 752 Q 342 761 338 773 Q 334 783 311 804 Q 289 820 273 821 Q 257 820 264 801 Q 283 752 143 578 Q 134 569 132 564 Q 128 555 140 557 Q 165 560 261 663 L 278 684 Z" fill="black"></path>
				<path d="M 306 514 Q 328 536 370 583 Q 412 632 453 658 Q 471 668 459 681 Q 446 694 411 715 Q 399 721 344 701 Q 292 688 278 684 C 249 676 232 671 261 663 Q 276 654 349 666 Q 356 667 358 665 Q 362 662 357 651 Q 315 567 290 528 Q 283 516 280 509 C 267 482 285 493 306 514 Z" fill="black"></path>
				<path d="M 174 486 Q 164 492 134 496 Q 124 499 120 494 Q 116 488 123 474 Q 154 410 172 306 Q 175 275 193 254 Q 209 235 214 249 Q 215 258 217 268 L 216 289 Q 215 302 212 318 Q 190 421 185 456 C 181 483 181 483 174 486 Z" fill="black"></path>
				<path d="M 369 295 Q 385 270 401 262 Q 411 255 424 274 Q 437 298 462 424 Q 469 452 490 474 Q 500 484 491 497 Q 478 512 439 534 Q 424 540 353 524 L 306 514 L 280 509 Q 249 505 174 486 C 145 479 157 446 185 456 Q 188 460 264 476 L 300 483 Q 388 504 407 492 Q 420 482 417 463 Q 396 333 381 317 C 369 295 369 295 369 295 Z" fill="black"></path>
				<path d="M 317 386 Q 342 392 366 395 Q 385 399 377 410 Q 367 422 346 424 Q 334 425 318 421 L 274 406 Q 249 399 229 391 Q 216 387 233 375 Q 240 371 253 374 Q 263 377 275 377 L 317 386 Z" fill="red"></path>
				<path d="M 314 318 Q 315 355 317 386 L 318 421 Q 318 437 320 446 Q 324 462 300 483 C 278 503 251 503 264 476 Q 270 470 274 406 L 275 377 Q 275 349 278 307 C 280 277 313 288 314 318 Z" fill="lightgray"></path>
				<path d="M 217 268 Q 221 268 227 269 Q 306 285 369 295 C 399 300 405 301 381 317 Q 374 323 361 325 Q 342 326 314 318 L 278 307 Q 245 300 216 289 C 188 279 187 266 217 268 Z" fill="lightgray"></path>
				<path d="M 135 187 Q 116 144 97 100 Q 84 78 92 51 Q 96 36 108 23 Q 117 14 129 17 Q 136 18 143 31 Q 164 79 164 187 Q 161 197 160 202 Q 156 206 149 206 Q 145 203 135 187 Z" fill="lightgray"></path>
				<path d="M 221 169 Q 230 118 247 89 Q 254 82 265 86 Q 272 90 278 102 Q 284 132 242 186 Q 235 195 227 196 Q 223 197 220 190 Q 217 183 221 169 Z" fill="lightgray"></path>
				<path d="M 305 189 Q 321 140 339 122 Q 348 116 357 122 Q 364 128 367 139 Q 368 167 336 198 Q 312 216 307 217 Q 303 217 301 209 Q 300 202 305 189 Z" fill="lightgray"></path>
				<path d="M 393 197 Q 435 143 443 141 Q 452 140 457 149 Q 463 159 461 183 Q 458 205 397 234 Q 385 240 380 238 Q 376 237 375 226 Q 376 217 393 197 Z" fill="lightgray"></path>
				<path d="M 664 624 Q 709 648 921 648 Q 940 648 944 657 Q 948 667 933 679 Q 882 715 826 696 Q 769 684 684 665 Q 681 665 680 664 L 621 653 Q 552 643 478 628 Q 459 625 474 611 Q 487 599 503 595 Q 522 591 537 596 Q 570 606 608 614 L 664 624 Z" fill="lightgray"></path>
				<path d="M 590 468 Q 627 535 664 624 L 680 664 Q 689 718 722 763 Q 731 781 725 792 Q 719 805 686 822 Q 656 835 637 831 Q 618 827 631 806 Q 653 773 645 741 Q 635 698 621 653 L 608 614 Q 562 487 465 316 Q 458 304 456 297 Q 455 285 468 291 Q 499 304 569 428 L 590 468 Z" fill="lightgray"></path>
				<path d="M 609 244 Q 610 287 614 321 L 617 352 Q 620 406 623 425 Q 624 431 623 435 C 624 452 624 452 607 460 Q 600 464 590 468 C 563 480 562 457 569 428 Q 599 316 550 143 Q 514 79 548 37 Q 555 24 564 29 Q 594 48 608 215 L 609 244 Z" fill="lightgray"></path>
				<path d="M 623 435 Q 752 468 766 462 Q 776 456 776 430 Q 794 240 784 91 Q 783 61 765 55 Q 755 52 698 65 Q 685 69 686 60 Q 687 53 702 43 Q 739 12 766 -22 Q 781 -38 797 -37 Q 815 -33 836 19 Q 863 71 857 125 Q 847 252 835 370 Q 831 416 850 454 Q 860 470 847 483 Q 828 499 790 511 Q 768 521 751 509 Q 736 502 709 491 Q 640 469 607 460 C 578 452 594 428 623 435 Z" fill="lightgray"></path>
				<path d="M 614 321 Q 675 333 720 340 Q 742 344 733 357 Q 723 370 698 373 Q 664 376 617 352 C 590 339 585 315 614 321 Z" fill="lightgray"></path>
				<path d="M 608 215 Q 675 224 727 229 Q 749 233 741 245 Q 731 258 707 263 Q 677 269 609 244 C 581 234 578 211 608 215 Z" fill="lightgray"></path>
</g>
		<text x="40" y="140" font-size="128" fill="#999999">5</text></g>
</g>
	<g id="id1:id1" transform="translate(0.0,1024)">
		<g id="id1:id0:id0" transform="matrix(1.0,0,0,1.0,0,0.0)">			<g stroke="lightgray" stroke-width="4" transform="scale(4, 4)"> <rect x="0" y="0" width="256" height="256" fill="white" stroke-width="4"/></g>
			<g transform="scale(0.92, -0.92) translate(60, -920)">					<path d="M 278 684 Q 320 742 333 752 Q 342 761 338 773 Q 334 783 311 804 Q 289 820 273 821 Q 257 820 264 801 Q 283 752 143 578 Q 134 569 132 564 Q 128 555 140 557 Q 165 560 261 663 L 278 684 Z" fill="black"></path>
				<path d="M 306 514 Q 328 536 370 583 Q 412 632 453 658 Q 471 668 459 681 Q 446 694 411 715 Q 399 721 344 701 Q 292 688 278 684 C 249 676 232 671 261 663 Q 276 654 349 666 Q 356 667 358 665 Q 362 662 357 651 Q 315 567 290 528 Q 283 516 280 509 C 267 482 285 493 306 514 Z" fill="black"></path>
				<path d="M 174 486 Q 164 492 134 496 Q 124 499 120 494 Q 116 488 123 474 Q 154 410 172 306 Q 175 275 193 254 Q 209 235 214 249 Q 215 258 217 268 L 216 289 Q 215 302 212 318 Q 190 421 185 456 C 181 483 181 483 174 486 Z" fill="black"></path>
				<path d="M 369 295 Q 385 270 401 262 Q 411 255 424 274 Q 437 298 462 424 Q 469 452 490 474 Q 500 484 491 497 Q 478 512 439 534 Q 424 540 353 524 L 306 514 L 280 509 Q 249 505 174 486 C 145 479 157 446 185 456 Q 188 460 264 476 L 300 483 Q 388 504 407 492 Q 420 482 417 463 Q 396 333 381 317 C 369 295 369 295 369 295 Z" fill="black"></path>
				<path d="M 317 386 Q 342 392 366 395 Q 385 399 377 410 Q 367 422 346 424 Q 334 425 318 421 L 274 406 Q 249 399 229 391 Q 216 387 233 375 Q 240 371 253 374 Q 263 377 275 377 L 317 386 Z" fill="black"></path>
				<path d="M 314 318 Q 315 355 317 386 L 318 421 Q 318 437 320 446 Q 324 462 300 483 C 278 503 251 503 264 476 Q 270 470 274 406 L 275 377 Q 275 349 278 307 C 280 277 313 288 314 318 Z" fill="red"></path>
				<path d="M 217 268 Q 221 268 227 269 Q 306 285 369 295 C 399 300 405 301 381 317 Q 374 323 361 325 Q 342 326 314 318 L 278 307 Q 245 300 216 289 C 188 279 187 266 217 268 Z" fill="lightgray"></path>
				<path d="M 135 187 Q 116 144 97 100 Q 84 78 92 51 Q 96 36 108 23 Q 117 14 129 17 Q 136 18 143 31 Q 164 79 164 187 Q 161 197 160 202 Q 156 206 149 206 Q 145 203 135 187 Z" fill="lightgray"></path>
				<path d="M 221 169 Q 230 118 247 89 Q 254 82 265 86 Q 272 90 278 102 Q 284 132 242 186 Q 235 195 227 196 Q 223 197 220 190 Q 217 183 221 169 Z" fill="lightgray"></path>
				<path d="M 305 189 Q 321 140 339 122 Q 348 116 357 122 Q 364 128 367 139 Q 368 167 336 198 Q 312 216 307 217 Q 303 217 301 209 Q 300 202 305 189 Z" fill="lightgray"></path>
				<path d="M 393 197 Q 435 143 443 141 Q 452 140 457 149 Q 463 159 461 183 Q 458 205 397 234 Q 385 240 380 238 Q 376 237 375 226 Q 376 217 393 197 Z" fill="lightgray"></path>
				<path d="M 664 624 Q 709 648 921 648 Q 940 648 944 657 Q 948 667 933 679 Q 882 715 826 696 Q 769 684 684 665 Q 681 665 680 664 L 621 653 Q 552 643 478 628 Q 459 625 474 611 Q 487 599 503 595 Q 522 591 537 596 Q 570 606 608 614 L 664 624 Z" fill="lightgray"></path>
				<path d="M 590 468 Q 627 535 664 624 L 680 664 Q 689 718 722 763 Q 731 781 725 792 Q 719 805 686 822 Q 656 835 637 831 Q 618 827 631 806 Q 653 773 645 741 Q 635 698 621 653 L 608 614 Q 562 487 465 316 Q 458 304 456 297 Q 455 285 468 291 Q 499 304 569 428 L 590 468 Z" fill="lightgray"></path>
				<path d="M 609 244 Q 610 287 614 321 L 617 352 Q 620 406 623 425 Q 624 431 623 435 C 624 452 624 452 607 460 Q 600 464 590 468 C 563 480 562 457 569 428 Q 599 316 550 143 Q 514 79 548 37 Q 555 24 564 29 Q 594 48 608 215 L 609 244 Z" fill="lightgray"></path>
				<path d="M 623 435 Q 752 468 766 462 Q 776 456 776 430 Q 794 240 784 91 Q 783 61 765 55 Q 755 52 698 65 Q 685 69 686 60 Q 687 53 702 43 Q 739 12 766 -22 Q 781 -38 797 -37 Q 815 -33 836 19 Q 863 71 857 125 Q 847 252 835 370 Q 831 416 850 454 Q 860 470 847 483 Q 828 499 790 511 Q 768 521 751 509 Q 736 502 709 491 Q 640 469 607 460 C 578 452 594 428 623 435 Z" fill="lightgray"></path>
				<path d="M 614 321 Q 675 333 720 340 Q 742 344 733 357 Q 723 370 698 373 Q 664 376 617 352 C 590 339 585 315 614 321 Z" fill="lightgray"></path>
				<path d="M 608 215 Q 675 224 727 229 Q 749 233 741 245 Q 731 258 707 263 Q 677 269 609 244 C 581 234 578 211 608 215 Z" fill="lightgray"></path>
</g>
		<text x="40" y="140" font-size="128" fill="#999999">6</text></g>
		<g id="id1:id1:id1" transform="matrix(1.0,0,0,1.0,1024,0.0)">			<g stroke="lightgray" stroke-width="4" transform="scale(4, 4)"> <rect x="0" y="0" width="256" height="256" fill="white" stroke-width="4"/></g>
			<g transform="scale(0.92, -0.92) translate(60, -920)">					<path d="M 278 684 Q 320 742 333 752 Q 342 761 338 773 Q 334 783 311 804 Q 289 820 273 821 Q 257 820 264 801 Q 283 752 143 578 Q 134 569 132 564 Q 128 555 140 557 Q 165 560 261 663 L 278 684 Z" fill="black"></path>
				<path d="M 306 514 Q 328 536 370 583 Q 412 632 453 658 Q 471 668 459 681 Q 446 694 411 715 Q 399 721 344 701 Q 292 688 278 684 C 249 676 232 671 261 663 Q 276 654 349 666 Q 356 667 358 665 Q 362 662 357 651 Q 315 567 290 528 Q 283 516 280 509 C 267 482 285 493 306 514 Z" fill="black"></path>
				<path d="M 174 486 Q 164 492 134 496 Q 124 499 120 494 Q 116 488 123 474 Q 154 410 172 306 Q 175 275 193 254 Q 209 235 214 249 Q 215 258 217 268 L 216 289 Q 215 302 212 318 Q 190 421 185 456 C 181 483 181 483 174 486 Z" fill="black"></path>
				<path d="M 369 295 Q 385 270 401 262 Q 411 255 424 274 Q 437 298 462 424 Q 469 452 490 474 Q 500 484 491 497 Q 478 512 439 534 Q 424 540 353 524 L 306 514 L 280 509 Q 249 505 174 486 C 145 479 157 446 185 456 Q 188 460 264 476 L 300 483 Q 388 504 407 492 Q 420 482 417 463 Q 396 333 381 317 C 369 295 369 295 369 295 Z" fill="black"></path>
				<path d="M 317 386 Q 342 392 366 395 Q 385 399 377 410 Q 367 422 346 424 Q 334 425 318 421 L 274 406 Q 249 399 229 391 Q 216 387 233 375 Q 240 371 253 374 Q 263 377 275 377 L 317 386 Z" fill="black"></path>
				<path d="M 314 318 Q 315 355 317 386 L 318 421 Q 318 437 320 446 Q 324 462 300 483 C 278 503 251 503 264 476 Q 270 470 274 406 L 275 377 Q 275 349 278 307 C 280 277 313 288 314 318 Z" fill="black"></path>
				<path d="M 217 268 Q 221 268 227 269 Q 306 285 369 295 C 399 300 405 301 381 317 Q 374 323 361 325 Q 342 326 314 318 L 278 307 Q 245 300 216 289 C 188 279 187 266 217 268 Z" fill="red"></path>
				<path d="M 135 187 Q 116 144 97 100 Q 84 78 92 51 Q 96 36 108 23 Q 117 14 129 17 Q 136 18 143 31 Q 164 79 164 187 Q 161 197 160 202 Q 156 206 149 206 Q 145 203 135 187 Z" fill="lightgray"></path>
				<path d="M 221 169 Q 230 118 247 89 Q 254 82 265 86 Q 272 90 278 102 Q 284 132 242 186 Q 235 195 227 196 Q 223 197 220 190 Q 217 183 221 169 Z" fill="lightgray"></path>
				<path d="M 305 189 Q 321 140 339 122 Q 348 116 357 122 Q 364 128 367 139 Q 368 167 336 198 Q 312 216 307 217 Q 303 217 301 209 Q 300 202 305 189 Z" fill="lightgray"></path>
				<path d="M 393 197 Q 435 143 443 141 Q 452 140 457 149 Q 463 159 461 183 Q 458 205 397 234 Q 385 240 380 238 Q 376 237 375 226 Q 376 217 393 197 Z" fill="lightgray"></path>
				<path d="M 664 624 Q 709 648 921 648 Q 940 648 944 657 Q 948 667 933 679 Q 882 715 826 696 Q 769 684 684 665 Q 681 665 680 664 L 621 653 Q 552 643 478 628 Q 459 625 474 611 Q 487 599 503 595 Q 522 591 537 596 Q 570 606 608 614 L 664 624 Z" fill="lightgray"></path>
				<path d="M 590 468 Q 627 535 664 624 L 680 664 Q 689 718 722 763 Q 731 781 725 792 Q 719 805 686 822 Q 656 835 637 831 Q 618 827 631 806 Q 653 773 645 741 Q 635 698 621 653 L 608 614 Q 562 487 465 316 Q 458 304 456 297 Q 455 285 468 291 Q 499 304 569 428 L 590 468 Z" fill="lightgray"></path>
				<path d="M 609 244 Q 610 287 614 321 L 617 352 Q 620 406 623 425 Q 624 431 623 435 C 624 452 624 452 607 460 Q 600 464 590 468 C 563 480 562 457 569 428 Q 599 316 550 143 Q 514 79 548 37 Q 555 24 564 29 Q 594 48 608 215 L 609 244 Z" fill="lightgray"></path>
				<path d="M 623 435 Q 752 468 766 462 Q 776 456 776 430 Q 794 240 784 91 Q 783 61 765 55 Q 755 52 698 65 Q 685 69 686 60 Q 687 53 702 43 Q 739 12 766 -22 Q 781 -38 797 -37 Q 815 -33 836 19 Q 863 71 857 125 Q 847 252 835 370 Q 831 416 850 454 Q 860 470 847 483 Q 828 499 790 511 Q 768 521 751 509 Q 736 502 709 491 Q 640 469 607 460 C 578 452 594 428 623 435 Z" fill="lightgray"></path>
				<path d="M 614 321 Q 675 333 720 340 Q 742 344 733 357 Q 723 370 698 373 Q 664 376 617 352 C 590 339 585 315 614 321 Z" fill="lightgray"></path>
				<path d="M 608 215 Q 675 224 727 229 Q 749 233 741 245 Q 731 258 707 263 Q 677 269 609 244 C 581 234 578 211 608 215 Z" fill="lightgray"></path>
</g>
		<text x="40" y="140" font-size="128" fill="#999999">7</text></g>
		<g id="id1:id2:id2" transform="matrix(1.0,0,0,1.0,2048,0.0)">			<g stroke="lightgray" stroke-width="4" transform="scale(4, 4)"> <rect x="0" y="0" width="256" height="256" fill="white" stroke-width="4"/></g>
			<g transform="scale(0.92, -0.92) translate(60, -920)">					<path d="M 278 684 Q 320 742 333 752 Q 342 761 338 773 Q 334 783 311 804 Q 289 820 273 821 Q 257 820 264 801 Q 283 752 143 578 Q 134 569 132 564 Q 128 555 140 557 Q 165 560 261 663 L 278 684 Z" fill="black"></path>
				<path d="M 306 514 Q 328 536 370 583 Q 412 632 453 658 Q 471 668 459 681 Q 446 694 411 715 Q 399 721 344 701 Q 292 688 278 684 C 249 676 232 671 261 663 Q 276 654 349 666 Q 356 667 358 665 Q 362 662 357 651 Q 315 567 290 528 Q 283 516 280 509 C 267 482 285 493 306 514 Z" fill="black"></path>
				<path d="M 174 486 Q 164 492 134 496 Q 124 499 120 494 Q 116 488 123 474 Q 154 410 172 306 Q 175 275 193 254 Q 209 235 214 249 Q 215 258 217 268 L 216 289 Q 215 302 212 318 Q 190 421 185 456 C 181 483 181 483 174 486 Z" fill="black"></path>
				<path d="M 369 295 Q 385 270 401 262 Q 411 255 424 274 Q 437 298 462 424 Q 469 452 490 474 Q 500 484 491 497 Q 478 512 439 534 Q 424 540 353 524 L 306 514 L 280 509 Q 249 505 174 486 C 145 479 157 446 185 456 Q 188 460 264 476 L 300 483 Q 388 504 407 492 Q 420 482 417 463 Q 396 333 381 317 C 369 295 369 295 369 295 Z" fill="black"></path>
				<path d="M 317 386 Q 342 392 366 395 Q 385 399 377 410 Q 367 422 346 424 Q 334 425 318 421 L 274 406 Q 249 399 229 391 Q 216 387 233 375 Q 240 371 253 374 Q 263 377 275 377 L 317 386 Z" fill="black"></path>
				<path d="M 314 318 Q 315 355 317 386 L 318 421 Q 318 437 320 446 Q 324 462 300 483 C 278 503 251 503 264 476 Q 270 470 274 406 L 275 377 Q 275 349 278 307 C 280 277 313 288 314 318 Z" fill="black"></path>
				<path d="M 217 268 Q 221 268 227 269 Q 306 285 369 295 C 399 300 405 301 381 317 Q 374 323 361 325 Q 342 326 314 318 L 278 307 Q 245 300 216 289 C 188 279 187 266 217 268 Z" fill="black"></path>
				<path d="M 135 187 Q 116 144 97 100 Q 84 78 92 51 Q 96 36 108 23 Q 117 14 129 17 Q 136 18 143 31 Q 164 79 164 187 Q 161 197 160 202 Q 156 206 149 206 Q 145 203 135 187 Z" fill="red"></path>
				<path d="M 221 169 Q 230 118 247 89 Q 254 82 265 86 Q 272 90 278 102 Q 284 132 242 186 Q 235 195 227 196 Q 223 197 220 190 Q 217 183 221 169 Z" fill="lightgray"></path>
				<path d="M 305 189 Q 321 140 339 122 Q 348 116 357 122 Q 364 128 367 139 Q 368 167 336 198 Q 312 216 307 217 Q 303 217 301 209 Q 300 202 305 189 Z" fill="lightgray"></path>
				<path d="M 393 197 Q 435 143 443 141 Q 452 140 457 149 Q 463 159 461 183 Q 458 205 397 234 Q 385 240 380 238 Q 376 237 375 226 Q 376 217 393 197 Z" fill="lightgray"></path>
				<path d="M 664 624 Q 709 648 921 648 Q 940 648 944 657 Q 948 667 933 679 Q 882 715 826 696 Q 769 684 684 665 Q 681 665 680 664 L 621 653 Q 552 643 478 628 Q 459 625 474 611 Q 487 599 503 595 Q 522 591 537 596 Q 570 606 608 614 L 664 624 Z" fill="lightgray"></path>
				<path d="M 590 468 Q 627 535 664 624 L 680 664 Q 689 718 722 763 Q 731 781 725 792 Q 719 805 686 822 Q 656 835 637 831 Q 618 827 631 806 Q 653 773 645 741 Q 635 698 621 653 L 608 614 Q 562 487 465 316 Q 458 304 456 297 Q 455 285 468 291 Q 499 304 569 428 L 590 468 Z" fill="lightgray"></path>
				<path d="M 609 244 Q 610 287 614 321 L 617 352 Q 620 406 623 425 Q 624 431 623 435 C 624 452 624 452 607 460 Q 600 464 590 468 C 563 480 562 457 569 428 Q 599 316 550 143 Q 514 79 548 37 Q 555 24 564 29 Q 594 48 608 215 L 609 244 Z" fill="lightgray"></path>
				<path d="M 623 435 Q 752 468 766 462 Q 776 456 776 430 Q 794 240 784 91 Q 783 61 765 55 Q 755 52 698 65 Q 685 69 686 60 Q 687 53 702 43 Q 739 12 766 -22 Q 781 -38 797 -37 Q 815 -33 836 19 Q 863 71 857 125 Q 847 252 835 370 Q 831 416 850 454 Q 860 470 847 483 Q 828 499 790 511 Q 768 521 751 509 Q 736 502 709 491 Q 640 469 607 460 C 578 452 594 428 623 435 Z" fill="lightgray"></path>
				<path d="M 614 321 Q 675 333 720 340 Q 742 344 733 357 Q 723 370 698 373 Q 664 376 617 352 C 590 339 585 315 614 321 Z" fill="lightgray"></path>
				<path d="M 608 215 Q 675 224 727 229 Q 749 233 741 245 Q 731 258 707 263 Q 677 269 609 244 C 581 234 578 211 608 215 Z" fill="lightgray"></path>
</g>
		<text x="40" y="140" font-size="128" fill="#999999">8</text></g>
		<g id="id1:id3:id3" transform="matrix(1.0,0,0,1.0,3072,0.0)">			<g stroke="lightgray" stroke-width="4" transform="scale(4, 4)"> <rect x="0" y="0" width="256" height="256" fill="white" stroke-width="4"/></g>
			<g transform="scale(0.92, -0.92) translate(60, -920)">					<path d="M 278 684 Q 320 742 333 752 Q 342 761 338 773 Q 334 783 311 804 Q 289 820 273 821 Q 257 820 264 801 Q 283 752 143 578 Q 134 569 132 564 Q 128 555 140 557 Q 165 560 261 663 L 278 684 Z" fill="black"></path>
				<path d="M 306 514 Q 328 536 370 583 Q 412 632 453 658 Q 471 668 459 681 Q 446 694 411 715 Q 399 721 344 701 Q 292 688 278 684 C 249 676 232 671 261 663 Q 276 654 349 666 Q 356 667 358 665 Q 362 662 357 651 Q 315 567 290 528 Q 283 516 280 509 C 267 482 285 493 306 514 Z" fill="black"></path>
				<path d="M 174 486 Q 164 492 134 496 Q 124 499 120 494 Q 116 488 123 474 Q 154 410 172 306 Q 175 275 193 254 Q 209 235 214 249 Q 215 258 217 268 L 216 289 Q 215 302 212 318 Q 190 421 185 456 C 181 483 181 483 174 486 Z" fill="black"></path>
				<path d="M 369 295 Q 385 270 401 262 Q 411 255 424 274 Q 437 298 462 424 Q 469 452 490 474 Q 500 484 491 497 Q 478 512 439 534 Q 424 540 353 524 L 306 514 L 280 509 Q 249 505 174 486 C 145 479 157 446 185 456 Q 188 460 264 476 L 300 483 Q 388 504 407 492 Q 420 482 417 463 Q 396 333 381 317 C 369 295 369 295 369 295 Z" fill="black"></path>
				<path d="M 317 386 Q 342 392 366 395 Q 385 399 377 410 Q 367 422 346 424 Q 334 425 318 421 L 274 406 Q 249 399 229 391 Q 216 387 233 375 Q 240 371 253 374 Q 263 377 275 377 L 317 386 Z" fill="black"></path>
				<path d="M 314 318 Q 315 355 317 386 L 318 421 Q 318 437 320 446 Q 324 462 300 483 C 278 503 251 503 264 476 Q 270 470 274 406 L 275 377 Q 275 349 278 307 C 280 277 313 288 314 318 Z" fill="black"></path>
				<path d="M 217 268 Q 221 268 227 269 Q 306 285 369 295 C 399 300 405 301 381 317 Q 374 323 361 325 Q 342 326 314 318 L 278 307 Q 245 300 216 289 C 188 279 187 266 217 268 Z" fill="black"></path>
				<path d="M 135 187 Q 116 144 97 100 Q 84 78 92 51 Q 96 36 108 23 Q 117 14 129 17 Q 136 18 143 31 Q 164 79 164 187 Q 161 197 160 202 Q 156 206 149 206 Q 145 203 135 187 Z" fill="black"></path>
				<path d="M 221 169 Q 230 118 247 89 Q 254 82 265 86 Q 272 90 278 102 Q 284 132 242 186 Q 235 195 227 196 Q 223 197 220 190 Q 217 183 221 169 Z" fill="red"></path>
				<path d="M 305 189 Q 321 140 339 122 Q 348 116 357 122 Q 364 128 367 139 Q 368 167 336 198 Q 312 216 307 217 Q 303 217 301 209 Q 300 202 305 189 Z" fill="lightgray"></path>
				<path d="M 393 197 Q 435 143 443 141 Q 452 140 457 149 Q 463 159 461 183 Q 458 205 397 234 Q 385 240 380 238 Q 376 237 375 226 Q 376 217 393 197 Z" fill="lightgray"></path>
				<path d="M 664 624 Q 709 648 921 648 Q 940 648 944 657 Q 948 667 933 679 Q 882 715 826 696 Q 769 684 684 665 Q 681 665 680 664 L 621 653 Q 552 643 478 628 Q 459 625 474 611 Q 487 599 503 595 Q 522 591 537 596 Q 570 606 608 614 L 664 624 Z" fill="lightgray"></path>
				<path d="M 590 468 Q 627 535 664 624 L 680 664 Q 689 718 722 763 Q 731 781 725 792 Q 719 805 686 822 Q 656 835 637 831 Q 618 827 631 806 Q 653 773 645 741 Q 635 698 621 653 L 608 614 Q 562 487 465 316 Q 458 304 456 297 Q 455 285 468 291 Q 499 304 569 428 L 590 468 Z" fill="lightgray"></path>
				<path d="M 609 244 Q 610 287 614 321 L 617 352 Q 620 406 623 425 Q 624 431 623 435 C 624 452 624 452 607 460 Q 600 464 590 468 C 563 480 562 457 569 428 Q 599 316 550 143 Q 514 79 548 37 Q 555 24 564 29 Q 594 48 608 215 L 609 244 Z" fill="lightgray"></path>
				<path d="M 623 435 Q 752 468 766 462 Q 776 456 776 430 Q 794 240 784 91 Q 783 61 765 55 Q 755 52 698 65 Q 685 69 686 60 Q 687 53 702 43 Q 739 12 766 -22 Q 781 -38 797 -37 Q 815 -33 836 19 Q 863 71 857 125 Q 847 252 835 370 Q 831 416 850 454 Q 860 470 847 483 Q 828 499 790 511 Q 768 521 751 509 Q 736 502 709 491 Q 640 469 607 460 C 578 452 594 428 623 435 Z" fill="lightgray"></path>
				<path d="M 614 321 Q 675 333 720 340 Q 742 344 733 357 Q 723 370 698 373 Q 664 376 617 352 C 590 339 585 315 614 321 Z" fill="lightgray"></path>
				<path d="M 608 215 Q 675 224 727 229 Q 749 233 741 245 Q 731 258 707 263 Q 677 269 609 244 C 581 234 578 211 608 215 Z" fill="lightgray"></path>
</g>
		<text x="40" y="140" font-size="128" fill="#999999">9</text></g>
		<g id="id1:id4:id4" transform="matrix(1.0,0,0,1.0,4096,0.0)">			<g stroke="lightgray" stroke-width="4" transform="scale(4, 4)"> <rect x="0" y="0" width="256" height="256" fill="white" stroke-width="4"/></g>
			<g transform="scale(0.92, -0.92) translate(60, -920)">					<path d="M 278 684 Q 320 742 333 752 Q 342 761 338 773 Q 334 783 311 804 Q 289 820 273 821 Q 257 820 264 801 Q 283 752 143 578 Q 134 569 132 564 Q 128 555 140 557 Q 165 560 261 663 L 278 684 Z" fill="black"></path>
				<path d="M 306 514 Q 328 536 370 583 Q 412 632 453 658 Q 471 668 459 681 Q 446 694 411 715 Q 399 721 344 701 Q 292 688 278 684 C 249 676 232 671 261 663 Q 276 654 349 666 Q 356 667 358 665 Q 362 662 357 651 Q 315 567 290 528 Q 283 516 280 509 C 267 482 285 493 306 514 Z" fill="black"></path>
				<path d="M 174 486 Q 164 492 134 496 Q 124 499 120 494 Q 116 488 123 474 Q 154 410 172 306 Q 175 275 193 254 Q 209 235 214 249 Q 215 258 217 268 L 216 289 Q 215 302 212 318 Q 190 421 185 456 C 181 483 181 483 174 486 Z" fill="black"></path>
				<path d="M 369 295 Q 385 270 401 262 Q 411 255 424 274 Q 437 298 462 424 Q 469 452 490 474 Q 500 484 491 497 Q 478 512 439 534 Q 424 540 353 524 L 306 514 L 280 509 Q 249 505 174 486 C 145 479 157 446 185 456 Q 188 460 264 476 L 300 483 Q 388 504 407 492 Q 420 482 417 463 Q 396 333 381 317 C 369 295 369 295 369 295 Z" fill="black"></path>
				<path d="M 317 386 Q 342 392 366 395 Q 385 399 377 410 Q 367 422 346 424 Q 334 425 318 421 L 274 406 Q 249 399 229 391 Q 216 387 233 375 Q 240 371 253 374 Q 263 377 275 377 L 317 386 Z" fill="black"></path>
				<path d="M 314 318 Q 315 355 317 386 L 318 421 Q 318 437 320 446 Q 324 462 300 483 C 278 503 251 503 264 476 Q 270 470 274 406 L 275 377 Q 275 349 278 307 C 280 277 313 288 314 318 Z" fill="black"></path>
				<path d="M 217 268 Q 221 268 227 269 Q 306 285 369 295 C 399 300 405 301 381 317 Q 374 323 361 325 Q 342 326 314 318 L 278 307 Q 245 300 216 289 C 188 279 187 266 217 268 Z" fill="black"></path>
				<path d="M 135 187 Q 116 144 97 100 Q 84 78 92 51 Q 96 36 108 23 Q 117 14 129 17 Q 136 18 143 31 Q 164 79 164 187 Q 161 197 160 202 Q 156 206 149 206 Q 145 203 135 187 Z" fill="black"></path>
				<path d="M 221 169 Q 230 118 247 89 Q 254 82 265 86 Q 272 90 278 102 Q 284 132 242 186 Q 235 195 227 196 Q 223 197 220 190 Q 217 183 221 169 Z" fill="black"></path>
				<path d="M 305 189 Q 321 140 339 122 Q 348 116 357 122 Q 364 128 367 139 Q 368 167 336 198 Q 312 216 307 217 Q 303 217 301 209 Q 300 202 305 189 Z" fill="red"></path>
				<path d="M 393 197 Q 435 143 443 141 Q 452 140 457 149 Q 463 159 461 183 Q 458 205 397 234 Q 385 240 380 238 Q 376 237 375 226 Q 376 217 393 197 Z" fill="lightgray"></path>
				<path d="M 664 624 Q 709 648 921 648 Q 940 648 944 657 Q 948 667 933 679 Q 882 715 826 696 Q 769 684 684 665 Q 681 665 680 664 L 621 653 Q 552 643 478 628 Q 459 625 474 611 Q 487 599 503 595 Q 522 591 537 596 Q 570 606 608 614 L 664 624 Z" fill="lightgray"></path>
				<path d="M 590 468 Q 627 535 664 624 L 680 664 Q 689 718 722 763 Q 731 781 725 792 Q 719 805 686 822 Q 656 835 637 831 Q 618 827 631 806 Q 653 773 645 741 Q 635 698 621 653 L 608 614 Q 562 487 465 316 Q 458 304 456 297 Q 455 285 468 291 Q 499 304 569 428 L 590 468 Z" fill="lightgray"></path>
				<path d="M 609 244 Q 610 287 614 321 L 617 352 Q 620 406 623 425 Q 624 431 623 435 C 624 452 624 452 607 460 Q 600 464 590 468 C 563 480 562 457 569 428 Q 599 316 550 143 Q 514 79 548 37 Q 555 24 564 29 Q 594 48 608 215 L 609 244 Z" fill="lightgray"></path>
				<path d="M 623 435 Q 752 468 766 462 Q 776 456 776 430 Q 794 240 784 91 Q 783 61 765 55 Q 755 52 698 65 Q 685 69 686 60 Q 687 53 702 43 Q 739 12 766 -22 Q 781 -38 797 -37 Q 815 -33 836 19 Q 863 71 857 125 Q 847 252 835 370 Q 831 416 850 454 Q 860 470 847 483 Q 828 499 790 511 Q 768 521 751 509 Q 736 502 709 491 Q 640 469 607 460 C 578 452 594 428 623 435 Z" fill="lightgray"></path>
				<path d="M 614 321 Q 675 333 720 340 Q 742 344 733 357 Q 723 370 698 373 Q 664 376 617 352 C 590 339 585 315 614 321 Z" fill="lightgray"></path>
				<path d="M 608 215 Q 675 224 727 229 Q 749 233 741 245 Q 731 258 707 263 Q 677 269 609 244 C 581 234 578 211 608 215 Z" fill="lightgray"></path>
</g>
		<text x="40" y="140" font-size="128" fill="#999999">10</text></g>
</g>
	<g id="id2:id2" transform="translate(0.0,2048)">
		<g id="id2:id0:id0" transform="matrix(1.0,0,0,1.0,0,0.0)">			<g stroke="lightgray" stroke-width="4" transform="scale(4, 4)"> <rect x="0" y="0" width="256" height="256" fill="white" stroke-width="4"/></g>
			<g transform="scale(0.92, -0.92) translate(60, -920)">					<path d="M 278 684 Q 320 742 333 752 Q 342 761 338 773 Q 334 783 311 804 Q 289 820 273 821 Q 257 820 264 801 Q 283 752 143 578 Q 134 569 132 564 Q 128 555 140 557 Q 165 560 261 663 L 278 684 Z" fill="black"></path>
				<path d="M 306 514 Q 328 536 370 583 Q 412 632 453 658 Q 471 668 459 681 Q 446 694 411 715 Q 399 721 344 701 Q 292 688 278 684 C 249 676 232 671 261 663 Q 276 654 349 666 Q 356 667 358 665 Q 362 662 357 651 Q 315 567 290 528 Q 283 516 280 509 C 267 482 285 493 306 514 Z" fill="black"></path>
				<path d="M 174 486 Q 164 492 134 496 Q 124 499 120 494 Q 116 488 123 474 Q 154 410 172 306 Q 175 275 193 254 Q 209 235 214 249 Q 215 258 217 268 L 216 289 Q 215 302 212 318 Q 190 421 185 456 C 181 483 181 483 174 486 Z" fill="black"></path>
				<path d="M 369 295 Q 385 270 401 262 Q 411 255 424 274 Q 437 298 462 424 Q 469 452 490 474 Q 500 484 491 497 Q 478 512 439 534 Q 424 540 353 524 L 306 514 L 280 509 Q 249 505 174 486 C 145 479 157 446 185 456 Q 188 460 264 476 L 300 483 Q 388 504 407 492 Q 420 482 417 463 Q 396 333 381 317 C 369 295 369 295 369 295 Z" fill="black"></path>
				<path d="M 317 386 Q 342 392 366 395 Q 385 399 377 410 Q 367 422 346 424 Q 334 425 318 421 L 274 406 Q 249 399 229 391 Q 216 387 233 375 Q 240 371 253 374 Q 263 377 275 377 L 317 386 Z" fill="black"></path>
				<path d="M 314 318 Q 315 355 317 386 L 318 421 Q 318 437 320 446 Q 324 462 300 483 C 278 503 251 503 264 476 Q 270 470 274 406 L 275 377 Q 275 349 278 307 C 280 277 313 288 314 318 Z" fill="black"></path>
				<path d="M 217 268 Q 221 268 227 269 Q 306 285 369 295 C 399 300 405 301 381 317 Q 374 323 361 325 Q 342 326 314 318 L 278 307 Q 245 300 216 289 C 188 279 187 266 217 268 Z" fill="black"></path>
				<path d="M 135 187 Q 116 144 97 100 Q 84 78 92 51 Q 96 36 108 23 Q 117 14 129 17 Q 136 18 143 31 Q 164 79 164 187 Q 161 197 160 202 Q 156 206 149 206 Q 145 203 135 187 Z" fill="black"></path>
				<path d="M 221 169 Q 230 118 247 89 Q 254 82 265 86 Q 272 90 278 102 Q 284 132 242 186 Q 235 195 227 196 Q 223 197 220 190 Q 217 183 221 169 Z" fill="black"></path>
				<path d="M 305 189 Q 321 140 339 122 Q 348 116 357 122 Q 364 128 367 139 Q 368 167 336 198 Q 312 216 307 217 Q 303 217 301 209 Q 300 202 305 189 Z" fill="black"></path>
				<path d="M 393 197 Q 435 143 443 141 Q 452 140 457 149 Q 463 159 461 183 Q 458 205 397 234 Q 385 240 380 238 Q 376 237 375 226 Q 376 217 393 197 Z" fill="red"></path>
				<path d="M 664 624 Q 709 648 921 648 Q 940 648 944 657 Q 948 667 933 679 Q 882 715 826 696 Q 769 684 684 665 Q 681 665 680 664 L 621 653 Q 552 643 478 628 Q 459 625 474 611 Q 487 599 503 595 Q 522 591 537 596 Q 570 606 608 614 L 664 624 Z" fill="lightgray"></path>
				<path d="M 590 468 Q 627 535 664 624 L 680 664 Q 689 718 722 763 Q 731 781 725 792 Q 719 805 686 822 Q 656 835 637 831 Q 618 827 631 806 Q 653 773 645 741 Q 635 698 621 653 L 608 614 Q 562 487 465 316 Q 458 304 456 297 Q 455 285 468 291 Q 499 304 569 428 L 590 468 Z" fill="lightgray"></path>
				<path d="M 609 244 Q 610 287 614 321 L 617 352 Q 620 406 623 425 Q 624 431 623 435 C 624 452 624 452 607 460 Q 600 464 590 468 C 563 480 562 457 569 428 Q 599 316 550 143 Q 514 79 548 37 Q 555 24 564 29 Q 594 48 608 215 L 609 244 Z" fill="lightgray"></path>
				<path d="M 623 435 Q 752 468 766 462 Q 776 456 776 430 Q 794 240 784 91 Q 783 61 765 55 Q 755 52 698 65 Q 685 69 686 60 Q 687 53 702 43 Q 739 12 766 -22 Q 781 -38 797 -37 Q 815 -33 836 19 Q 863 71 857 125 Q 847 252 835 370 Q 831 416 850 454 Q 860 470 847 483 Q 828 499 790 511 Q 768 521 751 509 Q 736 502 709 491 Q 640 469 607 460 C 578 452 594 428 623 435 Z" fill="lightgray"></path>
				<path d="M 614 321 Q 675 333 720 340 Q 742 344 733 357 Q 723 370 698 373 Q 664 376 617 352 C 590 339 585 315 614 321 Z" fill="lightgray"></path>
				<path d="M 608 215 Q 675 224 727 229 Q 749 233 741 245 Q 731 258 707 263 Q 677 269 609 244 C 581 234 578 211 608 215 Z" fill="lightgray"></path>
</g>
		<text x="40" y="140" font-size="128" fill="#999999">11</text></g>
		<g id="id2:id1:id1" transform="matrix(1.0,0,0,1.0,1024,0.0)">			<g stroke="lightgray" stroke-width="4" transform="scale(4, 4)"> <rect x="0" y="0" width="256" height="256" fill="white" stroke-width="4"/></g>
			<g transform="scale(0.92, -0.92) translate(60, -920)">					<path d="M 278 684 Q 320 742 333 752 Q 342 761 338 773 Q 334 783 311 804 Q 289 820 273 821 Q 257 820 264 801 Q 283 752 143 578 Q 134 569 132 564 Q 128 555 140 557 Q 165 560 261 663 L 278 684 Z" fill="black"></path>
				<path d="M 306 514 Q 328 536 370 583 Q 412 632 453 658 Q 471 668 459 681 Q 446 694 411 715 Q 399 721 344 701 Q 292 688 278 684 C 249 676 232 671 261 663 Q 276 654 349 666 Q 356 667 358 665 Q 362 662 357 651 Q 315 567 290 528 Q 283 516 280 509 C 267 482 285 493 306 514 Z" fill="black"></path>
				<path d="M 174 486 Q 164 492 134 496 Q 124 499 120 494 Q 116 488 123 474 Q 154 410 172 306 Q 175 275 193 254 Q 209 235 214 249 Q 215 258 217 268 L 216 289 Q 215 302 212 318 Q 190 421 185 456 C 181 483 181 483 174 486 Z" fill="black"></path>
				<path d="M 369 295 Q 385 270 401 262 Q 411 255 424 274 Q 437 298 462 424 Q 469 452 490 474 Q 500 484 491 497 Q 478 512 439 534 Q 424 540 353 524 L 306 514 L 280 509 Q 249 505 174 486 C 145 479 157 446 185 456 Q 188 460 264 476 L 300 483 Q 388 504 407 492 Q 420 482 417 463 Q 396 333 381 317 C 369 295 369 295 369 295 Z" fill="black"></path>
				<path d="M 317 386 Q 342 392 366 395 Q 385 399 377 410 Q 367 422 346 424 Q 334 425 318 421 L 274 406 Q 249 399 229 391 Q 216 387 233 375 Q 240 371 253 374 Q 263 377 275 377 L 317 386 Z" fill="black"></path>
				<path d="M 314 318 Q 315 355 317 386 L 318 421 Q 318 437 320 446 Q 324 462 300 483 C 278 503 251 503 264 476 Q 270 470 274 406 L 275 377 Q 275 349 278 307 C 280 277 313 288 314 318 Z" fill="black"></path>
				<path d="M 217 268 Q 221 268 227 269 Q 306 285 369 295 C 399 300 405 301 381 317 Q 374 323 361 325 Q 342 326 314 318 L 278 307 Q 245 300 216 289 C 188 279 187 266 217 268 Z" fill="black"></path>
				<path d="M 135 187 Q 116 144 97 100 Q 84 78 92 51 Q 96 36 108 23 Q 117 14 129 17 Q 136 18 143 31 Q 164 79 164 187 Q 161 197 160 202 Q 156 206 149 206 Q 145 203 135 187 Z" fill="black"></path>
				<path d="M 221 169 Q 230 118 247 89 Q 254 82 265 86 Q 272 90 278 102 Q 284 132 242 186 Q 235 195 227 196 Q 223 197 220 190 Q 217 183 221 169 Z" fill="black"></path>
				<path d="M 305 189 Q 321 140 339 122 Q 348 116 357 122 Q 364 128 367 139 Q 368 167 336 198 Q 312 216 307 217 Q 303 217 301 209 Q 300 202 305 189 Z" fill="black"></path>
				<path d="M 393 197 Q 435 143 443 141 Q 452 140 457 149 Q 463 159 461 183 Q 458 205 397 234 Q 385 240 380 238 Q 376 237 375 226 Q 376 217 393 197 Z" fill="black"></path>
				<path d="M 664 624 Q 709 648 921 648 Q 940 648 944 657 Q 948 667 933 679 Q 882 715 826 696 Q 769 684 684 665 Q 681 665 680 664 L 621 653 Q 552 643 478 628 Q 459 625 474 611 Q 487 599 503 595 Q 522 591 537 596 Q 570 606 608 614 L 664 624 Z" fill="red"></path>
				<path d="M 590 468 Q 627 535 664 624 L 680 664 Q 689 718 722 763 Q 731 781 725 792 Q 719 805 686 822 Q 656 835 637 831 Q 618 827 631 806 Q 653 773 645 741 Q 635 698 621 653 L 608 614 Q 562 487 465 316 Q 458 304 456 297 Q 455 285 468 291 Q 499 304 569 428 L 590 468 Z" fill="lightgray"></path>
				<path d="M 609 244 Q 610 287 614 321 L 617 352 Q 620 406 623 425 Q 624 431 623 435 C 624 452 624 452 607 460 Q 600 464 590 468 C 563 480 562 457 569 428 Q 599 316 550 143 Q 514 79 548 37 Q 555 24 564 29 Q 594 48 608 215 L 609 244 Z" fill="lightgray"></path>
				<path d="M 623 435 Q 752 468 766 462 Q 776 456 776 430 Q 794 240 784 91 Q 783 61 765 55 Q 755 52 698 65 Q 685 69 686 60 Q 687 53 702 43 Q 739 12 766 -22 Q 781 -38 797 -37 Q 815 -33 836 19 Q 863 71 857 125 Q 847 252 835 370 Q 831 416 850 454 Q 860 470 847 483 Q 828 499 790 511 Q 768 521 751 509 Q 736 502 709 491 Q 640 469 607 460 C 578 452 594 428 623 435 Z" fill="lightgray"></path>
				<path d="M 614 321 Q 675 333 720 340 Q 742 344 733 357 Q 723 370 698 373 Q 664 376 617 352 C 590 339 585 315 614 321 Z" fill="lightgray"></path>
				<path d="M 608 215 Q 675 224 727 229 Q 749 233 741 245 Q 731 258 707 263 Q 677 269 609 244 C 581 234 578 211 608 215 Z" fill="lightgray"></path>
</g>
		<text x="40" y="140" font-size="128" fill="#999999">12</text></g>
		<g id="id2:id2:id2" transform="matrix(1.0,0,0,1.0,2048,0.0)">			<g stroke="lightgray" stroke-width="4" transform="scale(4, 4)"> <rect x="0" y="0" width="256" height="256" fill="white" stroke-width="4"/></g>
			<g transform="scale(0.92, -0.92) translate(60, -920)">					<path d="M 278 684 Q 320 742 333 752 Q 342 761 338 773 Q 334 783 311 804 Q 289 820 273 821 Q 257 820 264 801 Q 283 752 143 578 Q 134 569 132 564 Q 128 555 140 557 Q 165 560 261 663 L 278 684 Z" fill="black"></path>
				<path d="M 306 514 Q 328 536 370 583 Q 412 632 453 658 Q 471 668 459 681 Q 446 694 411 715 Q 399 721 344 701 Q 292 688 278 684 C 249 676 232 671 261 663 Q 276 654 349 666 Q 356 667 358 665 Q 362 662 357 651 Q 315 567 290 528 Q 283 516 280 509 C 267 482 285 493 306 514 Z" fill="black"></path>
				<path d="M 174 486 Q 164 492 134 496 Q 124 499 120 494 Q 116 488 123 474 Q 154 410 172 306 Q 175 275 193 254 Q 209 235 214 249 Q 215 258 217 268 L 216 289 Q 215 302 212 318 Q 190 421 185 456 C 181 483 181 483 174 486 Z" fill="black"></path>
				<path d="M 369 295 Q 385 270 401 262 Q 411 255 424 274 Q 437 298 462 424 Q 469 452 490 474 Q 500 484 491 497 Q 478 512 439 534 Q 424 540 353 524 L 306 514 L 280 509 Q 249 505 174 486 C 145 479 157 446 185 456 Q 188 460 264 476 L 300 483 Q 388 504 407 492 Q 420 482 417 463 Q 396 333 381 317 C 369 295 369 295 369 295 Z" fill="black"></path>
				<path d="M 317 386 Q 342 392 366 395 Q 385 399 377 410 Q 367 422 346 424 Q 334 425 318 421 L 274 406 Q 249 399 229 391 Q 216 387 233 375 Q 240 371 253 374 Q 263 377 275 377 L 317 386 Z" fill="black"></path>
				<path d="M 314 318 Q 315 355 317 386 L 318 421 Q 318 437 320 446 Q 324 462 300 483 C 278 503 251 503 264 476 Q 270 470 274 406 L 275 377 Q 275 349 278 307 C 280 277 313 288 314 318 Z" fill="black"></path>
				<path d="M 217 268 Q 221 268 227 269 Q 306 285 369 295 C 399 300 405 301 381 317 Q 374 323 361 325 Q 342 326 314 318 L 278 307 Q 245 300 216 289 C 188 279 187 266 217 268 Z" fill="black"></path>
				<path d="M 135 187 Q 116 144 97 100 Q 84 78 92 51 Q 96 36 108 23 Q 117 14 129 17 Q 136 18 143 31 Q 164 79 164 187 Q 161 197 160 202 Q 156 206 149 206 Q 145 203 135 187 Z" fill="black"></path>
				<path d="M 221 169 Q 230 118 247 89 Q 254 82 265 86 Q 272 90 278 102 Q 284 132 242 186 Q 235 195 227 196 Q 223 197 220 190 Q 217 183 221 169 Z" fill="black"></path>
				<path d="M 305 189 Q 321 140 339 122 Q 348 116 357 122 Q 364 128 367 139 Q 368 167 336 198 Q 312 216 307 217 Q 303 217 301 209 Q 300 202 305 189 Z" fill="black"></path>
				<path d="M 393 197 Q 435 143 443 141 Q 452 140 457 149 Q 463 159 461 183 Q 458 205 397 234 Q 385 240 380 238 Q 376 237 375 226 Q 376 217 393 197 Z" fill="black"></path>
				<path d="M 664 624 Q 709 648 921 648 Q 940 648 944 657 Q 948 667 933 679 Q 882 715 826 696 Q 769 684 684 665 Q 681 665 680 664 L 621 653 Q 552 643 478 628 Q 459 625 474 611 Q 487 599 503 595 Q 522 591 537 596 Q 570 606 608 614 L 664 624 Z" fill="black"></path>
				<path d="M 590 468 Q 627 535 664 624 L 680 664 Q 689 718 722 763 Q 731 781 725 792 Q 719 805 686 822 Q 656 835 637 831 Q 618 827 631 806 Q 653 773 645 741 Q 635 698 621 653 L 608 614 Q 562 487 465 316 Q 458 304 456 297 Q 455 285 468 291 Q 499 304 569 428 L 590 468 Z" fill="red"></path>
				<path d="M 609 244 Q 610 287 614 321 L 617 352 Q 620 406 623 425 Q 624 431 623 435 C 624 452 624 452 607 460 Q 600 464 590 468 C 563 480 562 457 569 428 Q 599 316 550 143 Q 514 79 548 37 Q 555 24 564 29 Q 594 48 608 215 L 609 244 Z" fill="lightgray"></path>
				<path d="M 623 435 Q 752 468 766 462 Q 776 456 776 430 Q 794 240 784 91 Q 783 61 765 55 Q 755 52 698 65 Q 685 69 686 60 Q 687 53 702 43 Q 739 12 766 -22 Q 781 -38 797 -37 Q 815 -33 836 19 Q 863 71 857 125 Q 847 252 835 370 Q 831 416 850 454 Q 860 470 847 483 Q 828 499 790 511 Q 768 521 751 509 Q 736 502 709 491 Q 640 469 607 460 C 578 452 594 428 623 435 Z" fill="lightgray"></path>
				<path d="M 614 321 Q 675 333 720 340 Q 742 344 733 357 Q 723 370 698 373 Q 664 376 617 352 C 590 339 585 315 614 321 Z" fill="lightgray"></path>
				<path d="M 608 215 Q 675 224 727 229 Q 749 233 741 245 Q 731 258 707 263 Q 677 269 609 244 C 581 234 578 211 608 215 Z" fill="lightgray"></path>
</g>
		<text x="40" y="140" font-size="128" fill="#999999">13</text></g>
		<g id="id2:id3:id3" transform="matrix(1.0,0,0,1.0,3072,0.0)">			<g stroke="lightgray" stroke-width="4" transform="scale(4, 4)"> <rect x="0" y="0" width="256" height="256" fill="white" stroke-width="4"/></g>
			<g transform="scale(0.92, -0.92) translate(60, -920)">					<path d="M 278 684 Q 320 742 333 752 Q 342 761 338 773 Q 334 783 311 804 Q 289 820 273 821 Q 257 820 264 801 Q 283 752 143 578 Q 134 569 132 564 Q 128 555 140 557 Q 165 560 261 663 L 278 684 Z" fill="black"></path>
				<path d="M 306 514 Q 328 536 370 583 Q 412 632 453 658 Q 471 668 459 681 Q 446 694 411 715 Q 399 721 344 701 Q 292 688 278 684 C 249 676 232 671 261 663 Q 276 654 349 666 Q 356 667 358 665 Q 362 662 357 651 Q 315 567 290 528 Q 283 516 280 509 C 267 482 285 493 306 514 Z" fill="black"></path>
				<path d="M 174 486 Q 164 492 134 496 Q 124 499 120 494 Q 116 488 123 474 Q 154 410 172 306 Q 175 275 193 254 Q 209 235 214 249 Q 215 258 217 268 L 216 289 Q 215 302 212 318 Q 190 421 185 456 C 181 483 181 483 174 486 Z" fill="black"></path>
				<path d="M 369 295 Q 385 270 401 262 Q 411 255 424 274 Q 437 298 462 424 Q 469 452 490 474 Q 500 484 491 497 Q 478 512 439 534 Q 424 540 353 524 L 306 514 L 280 509 Q 249 505 174 486 C 145 479 157 446 185 456 Q 188 460 264 476 L 300 483 Q 388 504 407 492 Q 420 482 417 463 Q 396 333 381 317 C 369 295 369 295 369 295 Z" fill="black"></path>
				<path d="M 317 386 Q 342 392 366 395 Q 385 399 377 410 Q 367 422 346 424 Q 334 425 318 421 L 274 406 Q 249 399 229 391 Q 216 387 233 375 Q 240 371 253 374 Q 263 377 275 377 L 317 386 Z" fill="black"></path>
				<path d="M 314 318 Q 315 355 317 386 L 318 421 Q 318 437 320 446 Q 324 462 300 483 C 278 503 251 503 264 476 Q 270 470 274 406 L 275 377 Q 275 349 278 307 C 280 277 313 288 314 318 Z" fill="black"></path>
				<path d="M 217 268 Q 221 268 227 269 Q 306 285 369 295 C 399 300 405 301 381 317 Q 374 323 361 325 Q 342 326 314 318 L 278 307 Q 245 300 216 289 C 188 279 187 266 217 268 Z" fill="black"></path>
				<path d="M 135 187 Q 116 144 97 100 Q 84 78 92 51 Q 96 36 108 23 Q 117 14 129 17 Q 136 18 143 31 Q 164 79 164 187 Q 161 197 160 202 Q 156 206 149 206 Q 145 203 135 187 Z" fill="black"></path>
				<path d="M 221 169 Q 230 118 247 89 Q 254 82 265 86 Q 272 90 278 102 Q 284 132 242 186 Q 235 195 227 196 Q 223 197 220 190 Q 217 183 221 169 Z" fill="black"></path>
				<path d="M 305 189 Q 321 140 339 122 Q 348 116 357 122 Q 364 128 367 139 Q 368 167 336 198 Q 312 216 307 217 Q 303 217 301 209 Q 300 202 305 189 Z" fill="black"></path>
				<path d="M 393 197 Q 435 143 443 141 Q 452 140 457 149 Q 463 159 461 183 Q 458 205 397 234 Q 385 240 380 238 Q 376 237 375 226 Q 376 217 393 197 Z" fill="black"></path>
				<path d="M 664 624 Q 709 648 921 648 Q 940 648 944 657 Q 948 667 933 679 Q 882 715 826 696 Q 769 684 684 665 Q 681 665 680 664 L 621 653 Q 552 643 478 628 Q 459 625 474 611 Q 487 599 503 595 Q 522 591 537 596 Q 570 606 608 614 L 664 624 Z" fill="black"></path>
				<path d="M 590 468 Q 627 535 664 624 L 680 664 Q 689 718 722 763 Q 731 781 725 792 Q 719 805 686 822 Q 656 835 637 831 Q 618 827 631 806 Q 653 773 645 741 Q 635 698 621 653 L 608 614 Q 562 487 465 316 Q 458 304 456 297 Q 455 285 468 291 Q 499 304 569 428 L 590 468 Z" fill="black"></path>
				<path d="M 609 244 Q 610 287 614 321 L 617 352 Q 620 406 623 425 Q 624 431 623 435 C 624 452 624 452 607 460 Q 600 464 590 468 C 563 480 562 457 569 428 Q 599 316 550 143 Q 514 79 548 37 Q 555 24 564 29 Q 594 48 608 215 L 609 244 Z" fill="red"></path>
				<path d="M 623 435 Q 752 468 766 462 Q 776 456 776 430 Q 794 240 784 91 Q 783 61 765 55 Q 755 52 698 65 Q 685 69 686 60 Q 687 53 702 43 Q 739 12 766 -22 Q 781 -38 797 -37 Q 815 -33 836 19 Q 863 71 857 125 Q 847 252 835 370 Q 831 416 850 454 Q 860 470 847 483 Q 828 499 790 511 Q 768 521 751 509 Q 736 502 709 491 Q 640 469 607 460 C 578 452 594 428 623 435 Z" fill="lightgray"></path>
				<path d="M 614 321 Q 675 333 720 340 Q 742 344 733 357 Q 723 370 698 373 Q 664 376 617 352 C 590 339 585 315 614 321 Z" fill="lightgray"></path>
				<path d="M 608 215 Q 675 224 727 229 Q 749 233 741 245 Q 731 258 707 263 Q 677 269 609 244 C 581 234 578 211 608 215 Z" fill="lightgray"></path>
</g>
		<text x="40" y="140" font-size="128" fill="#999999">14</text></g>
		<g id="id2:id4:id4" transform="matrix(1.0,0,0,1.0,4096,0.0)">			<g stroke="lightgray" stroke-width="4" transform="scale(4, 4)"> <rect x="0" y="0" width="256" height="256" fill="white" stroke-width="4"/></g>
			<g transform="scale(0.92, -0.92) translate(60, -920)">					<path d="M 278 684 Q 320 742 333 752 Q 342 761 338 773 Q 334 783 311 804 Q 289 820 273 821 Q 257 820 264 801 Q 283 752 143 578 Q 134 569 132 564 Q 128 555 140 557 Q 165 560 261 663 L 278 684 Z" fill="black"></path>
				<path d="M 306 514 Q 328 536 370 583 Q 412 632 453 658 Q 471 668 459 681 Q 446 694 411 715 Q 399 721 344 701 Q 292 688 278 684 C 249 676 232 671 261 663 Q 276 654 349 666 Q 356 667 358 665 Q 362 662 357 651 Q 315 567 290 528 Q 283 516 280 509 C 267 482 285 493 306 514 Z" fill="black"></path>
				<path d="M 174 486 Q 164 492 134 496 Q 124 499 120 494 Q 116 488 123 474 Q 154 410 172 306 Q 175 275 193 254 Q 209 235 214 249 Q 215 258 217 268 L 216 289 Q 215 302 212 318 Q 190 421 185 456 C 181 483 181 483 174 486 Z" fill="black"></path>
				<path d="M 369 295 Q 385 270 401 262 Q 411 255 424 274 Q 437 298 462 424 Q 469 452 490 474 Q 500 484 491 497 Q 478 512 439 534 Q 424 540 353 524 L 306 514 L 280 509 Q 249 505 174 486 C 145 479 157 446 185 456 Q 188 460 264 476 L 300 483 Q 388 504 407 492 Q 420 482 417 463 Q 396 333 381 317 C 369 295 369 295 369 295 Z" fill="black"></path>
				<path d="M 317 386 Q 342 392 366 395 Q 385 399 377 410 Q 367 422 346 424 Q 334 425 318 421 L 274 406 Q 249 399 229 391 Q 216 387 233 375 Q 240 371 253 374 Q 263 377 275 377 L 317 386 Z" fill="black"></path>
				<path d="M 314 318 Q 315 355 317 386 L 318 421 Q 318 437 320 446 Q 324 462 300 483 C 278 503 251 503 264 476 Q 270 470 274 406 L 275 377 Q 275 349 278 307 C 280 277 313 288 314 318 Z" fill="black"></path>
				<path d="M 217 268 Q 221 268 227 269 Q 306 285 369 295 C 399 300 405 301 381 317 Q 374 323 361 325 Q 342 326 314 318 L 278 307 Q 245 300 216 289 C 188 279 187 266 217 268 Z" fill="black"></path>
				<path d="M 135 187 Q 116 144 97 100 Q 84 78 92 51 Q 96 36 108 23 Q 117 14 129 17 Q 136 18 143 31 Q 164 79 164 187 Q 161 197 160 202 Q 156 206 149 206 Q 145 203 135 187 Z" fill="black"></path>
				<path d="M 221 169 Q 230 118 247 89 Q 254 82 265 86 Q 272 90 278 102 Q 284 132 242 186 Q 235 195 227 196 Q 223 197 220 190 Q 217 183 221 169 Z" fill="black"></path>
				<path d="M 305 189 Q 321 140 339 122 Q 348 116 357 122 Q 364 128 367 139 Q 368 167 336 198 Q 312 216 307 217 Q 303 217 301 209 Q 300 202 305 189 Z" fill="black"></path>
				<path d="M 393 197 Q 435 143 443 141 Q 452 140 457 149 Q 463 159 461 183 Q 458 205 397 234 Q 385 240 380 238 Q 376 237 375 226 Q 376 217 393 197 Z" fill="black"></path>
				<path d="M 664 624 Q 709 648 921 648 Q 940 648 944 657 Q 948 667 933 679 Q 882 715 826 696 Q 769 684 684 665 Q 681 665 680 664 L 621 653 Q 552 643 478 628 Q 459 625 474 611 Q 487 599 503 595 Q 522 591 537 596 Q 570 606 608 614 L 664 624 Z" fill="black"></path>
				<path d="M 590 468 Q 627 535 664 624 L 680 664 Q 689 718 722 763 Q 731 781 725 792 Q 719 805 686 822 Q 656 835 637 831 Q 618 827 631 806 Q 653 773 645 741 Q 635 698 621 653 L 608 614 Q 562 487 465 316 Q 458 304 456 297 Q 455 285 468 291 Q 499 304 569 428 L 590 468 Z" fill="black"></path>
				<path d="M 609 244 Q 610 287 614 321 L 617 352 Q 620 406 623 425 Q 624 431 623 435 C 624 452 624 452 607 460 Q 600 464 590 468 C 563 480 562 457 569 428 Q 599 316 550 143 Q 514 79 548 37 Q 555 24 564 29 Q 594 48 608 215 L 609 244 Z" fill="black"></path>
				<path d="M 623 435 Q 752 468 766 462 Q 776 456 776 430 Q 794 240 784 91 Q 783 61 765 55 Q 755 52 698 65 Q 685 69 686 60 Q 687 53 702 43 Q 739 12 766 -22 Q 781 -38 797 -37 Q 815 -33 836 19 Q 863 71 857 125 Q 847 252 835 370 Q 831 416 850 454 Q 860 470 847 483 Q 828 499 790 511 Q 768 521 751 509 Q 736 502 709 491 Q 640 469 607 460 C 578 452 594 428 623 435 Z" fill="red"></path>
				<path d="M 614 321 Q 675 333 720 340 Q 742 344 733 357 Q 723 370 698 373 Q 664 376 617 352 C 590 339 585 315 614 321 Z" fill="lightgray"></path>
				<path d="M 608 215 Q 675 224 727 229 Q 749 233 741 245 Q 731 258 707 263 Q 677 269 609 244 C 581 234 578 211 608 215 Z" fill="lightgray"></path>
</g>
		<text x="40" y="140" font-size="128" fill="#999999">15</text></g>
</g>
	<g id="id3:id3" transform="translate(0.0,3072)">
		<g id="id3:id0:id0" transform="matrix(1.0,0,0,1.0,0,0.0)">			<g stroke="lightgray" stroke-width="4" transform="scale(4, 4)"> <rect x="0" y="0" width="256" height="256" fill="white" stroke-width="4"/></g>
			<g transform="scale(0.92, -0.92) translate(60, -920)">					<path d="M 278 684 Q 320 742 333 752 Q 342 761 338 773 Q 334 783 311 804 Q 289 820 273 821 Q 257 820 264 801 Q 283 752 143 578 Q 134 569 132 564 Q 128 555 140 557 Q 165 560 261 663 L 278 684 Z" fill="black"></path>
				<path d="M 306 514 Q 328 536 370 583 Q 412 632 453 658 Q 471 668 459 681 Q 446 694 411 715 Q 399 721 344 701 Q 292 688 278 684 C 249 676 232 671 261 663 Q 276 654 349 666 Q 356 667 358 665 Q 362 662 357 651 Q 315 567 290 528 Q 283 516 280 509 C 267 482 285 493 306 514 Z" fill="black"></path>
				<path d="M 174 486 Q 164 492 134 496 Q 124 499 120 494 Q 116 488 123 474 Q 154 410 172 306 Q 175 275 193 254 Q 209 235 214 249 Q 215 258 217 268 L 216 289 Q 215 302 212 318 Q 190 421 185 456 C 181 483 181 483 174 486 Z" fill="black"></path>
				<path d="M 369 295 Q 385 270 401 262 Q 411 255 424 274 Q 437 298 462 424 Q 469 452 490 474 Q 500 484 491 497 Q 478 512 439 534 Q 424 540 353 524 L 306 514 L 280 509 Q 249 505 174 486 C 145 479 157 446 185 456 Q 188 460 264 476 L 300 483 Q 388 504 407 492 Q 420 482 417 463 Q 396 333 381 317 C 369 295 369 295 369 295 Z" fill="black"></path>
				<path d="M 317 386 Q 342 392 366 395 Q 385 399 377 410 Q 367 422 346 424 Q 334 425 318 421 L 274 406 Q 249 399 229 391 Q 216 387 233 375 Q 240 371 253 374 Q 263 377 275 377 L 317 386 Z" fill="black"></path>
				<path d="M 314 318 Q 315 355 317 386 L 318 421 Q 318 437 320 446 Q 324 462 300 483 C 278 503 251 503 264 476 Q 270 470 274 406 L 275 377 Q 275 349 278 307 C 280 277 313 288 314 318 Z" fill="black"></path>
				<path d="M 217 268 Q 221 268 227 269 Q 306 285 369 295 C 399 300 405 301 381 317 Q 374 323 361 325 Q 342 326 314 318 L 278 307 Q 245 300 216 289 C 188 279 187 266 217 268 Z" fill="black"></path>
				<path d="M 135 187 Q 116 144 97 100 Q 84 78 92 51 Q 96 36 108 23 Q 117 14 129 17 Q 136 18 143 31 Q 164 79 164 187 Q 161 197 160 202 Q 156 206 149 206 Q 145 203 135 187 Z" fill="black"></path>
				<path d="M 221 169 Q 230 118 247 89 Q 254 82 265 86 Q 272 90 278 102 Q 284 132 242 186 Q 235 195 227 196 Q 223 197 220 190 Q 217 183 221 169 Z" fill="black"></path>
				<path d="M 305 189 Q 321 140 339 122 Q 348 116 357 122 Q 364 128 367 139 Q 368 167 336 198 Q 312 216 307 217 Q 303 217 301 209 Q 300 202 305 189 Z" fill="black"></path>
				<path d="M 393 197 Q 435 143 443 141 Q 452 140 457 149 Q 463 159 461 183 Q 458 205 397 234 Q 385 240 380 238 Q 376 237 375 226 Q 376 217 393 197 Z" fill="black"></path>
				<path d="M 664 624 Q 709 648 921 648 Q 940 648 944 657 Q 948 667 933 679 Q 882 715 826 696 Q 769 684 684 665 Q 681 665 680 664 L 621 653 Q 552 643 478 628 Q 459 625 474 611 Q 487 599 503 595 Q 522 591 537 596 Q 570 606 608 614 L 664 624 Z" fill="black"></path>
				<path d="M 590 468 Q 627 535 664 624 L 680 664 Q 689 718 722 763 Q 731 781 725 792 Q 719 805 686 822 Q 656 835 637 831 Q 618 827 631 806 Q 653 773 645 741 Q 635 698 621 653 L 608 614 Q 562 487 465 316 Q 458 304 456 297 Q 455 285 468 291 Q 499 304 569 428 L 590 468 Z" fill="black"></path>
				<path d="M 609 244 Q 610 287 614 321 L 617 352 Q 620 406 623 425 Q 624 431 623 435 C 624 452 624 452 607 460 Q 600 464 590 468 C 563 480 562 457 569 428 Q 599 316 550 143 Q 514 79 548 37 Q 555 24 564 29 Q 594 48 608 215 L 609 244 Z" fill="black"></path>
				<path d="M 623 435 Q 752 468 766 462 Q 776 456 776 430 Q 794 240 784 91 Q 783 61 765 55 Q 755 52 698 65 Q 685 69 686 60 Q 687 53 702 43 Q 739 12 766 -22 Q 781 -38 797 -37 Q 815 -33 836 19 Q 863 71 857 125 Q 847 252 835 370 Q 831 416 850 454 Q 860 470 847 483 Q 828 499 790 511 Q 768 521 751 509 Q 736 502 709 491 Q 640 469 607 460 C 578 452 594 428 623 435 Z" fill="black"></path>
				<path d="M 614 321 Q 675 333 720 340 Q 742 344 733 357 Q 723 370 698 373 Q 664 376 617 352 C 590 339 585 315 614 321 Z" fill="red"></path>
				<path d="M 608 215 Q 675 224 727 229 Q 749 233 741 245 Q 731 258 707 263 Q 677 269 609 244 C 581 234 578 211 608 215 Z" fill="lightgray"></path>
</g>
		<text x="40" y="140" font-size="128" fill="#999999">16</text></g>
		<g id="id3:id1:id1" transform="matrix(1.0,0,0,1.0,1024,0.0)">			<g stroke="lightgray" stroke-width="4" transform="scale(4, 4)"> <rect x="0" y="0" width="256" height="256" fill="white" stroke-width="4"/></g>
			<g transform="scale(0.92, -0.92) translate(60, -920)">					<path d="M 278 684 Q 320 742 333 752 Q 342 761 338 773 Q 334 783 311 804 Q 289 820 273 821 Q 257 820 264 801 Q 283 752 143 578 Q 134 569 132 564 Q 128 555 140 557 Q 165 560 261 663 L 278 684 Z" fill="black"></path>
				<path d="M 306 514 Q 328 536 370 583 Q 412 632 453 658 Q 471 668 459 681 Q 446 694 411 715 Q 399 721 344 701 Q 292 688 278 684 C 249 676 232 671 261 663 Q 276 654 349 666 Q 356 667 358 665 Q 362 662 357 651 Q 315 567 290 528 Q 283 516 280 509 C 267 482 285 493 306 514 Z" fill="black"></path>
				<path d="M 174 486 Q 164 492 134 496 Q 124 499 120 494 Q 116 488 123 474 Q 154 410 172 306 Q 175 275 193 254 Q 209 235 214 249 Q 215 258 217 268 L 216 289 Q 215 302 212 318 Q 190 421 185 456 C 181 483 181 483 174 486 Z" fill="black"></path>
				<path d="M 369 295 Q 385 270 401 262 Q 411 255 424 274 Q 437 298 462 424 Q 469 452 490 474 Q 500 484 491 497 Q 478 512 439 534 Q 424 540 353 524 L 306 514 L 280 509 Q 249 505 174 486 C 145 479 157 446 185 456 Q 188 460 264 476 L 300 483 Q 388 504 407 492 Q 420 482 417 463 Q 396 333 381 317 C 369 295 369 295 369 295 Z" fill="black"></path>
				<path d="M 317 386 Q 342 392 366 395 Q 385 399 377 410 Q 367 422 346 424 Q 334 425 318 421 L 274 406 Q 249 399 229 391 Q 216 387 233 375 Q 240 371 253 374 Q 263 377 275 377 L 317 386 Z" fill="black"></path>
				<path d="M 314 318 Q 315 355 317 386 L 318 421 Q 318 437 320 446 Q 324 462 300 483 C 278 503 251 503 264 476 Q 270 470 274 406 L 275 377 Q 275 349 278 307 C 280 277 313 288 314 318 Z" fill="black"></path>
				<path d="M 217 268 Q 221 268 227 269 Q 306 285 369 295 C 399 300 405 301 381 317 Q 374 323 361 325 Q 342 326 314 318 L 278 307 Q 245 300 216 289 C 188 279 187 266 217 268 Z" fill="black"></path>
				<path d="M 135 187 Q 116 144 97 100 Q 84 78 92 51 Q 96 36 108 23 Q 117 14 129 17 Q 136 18 143 31 Q 164 79 164 187 Q 161 197 160 202 Q 156 206 149 206 Q 145 203 135 187 Z" fill="black"></path>
				<path d="M 221 169 Q 230 118 247 89 Q 254 82 265 86 Q 272 90 278 102 Q 284 132 242 186 Q 235 195 227 196 Q 223 197 220 190 Q 217 183 221 169 Z" fill="black"></path>
				<path d="M 305 189 Q 321 140 339 122 Q 348 116 357 122 Q 364 128 367 139 Q 368 167 336 198 Q 312 216 307 217 Q 303 217 301 209 Q 300 202 305 189 Z" fill="black"></path>
				<path d="M 393 197 Q 435 143 443 141 Q 452 140 457 149 Q 463 159 461 183 Q 458 205 397 234 Q 385 240 380 238 Q 376 237 375 226 Q 376 217 393 197 Z" fill="black"></path>
				<path d="M 664 624 Q 709 648 921 648 Q 940 648 944 657 Q 948 667 933 679 Q 882 715 826 696 Q 769 684 684 665 Q 681 665 680 664 L 621 653 Q 552 643 478 628 Q 459 625 474 611 Q 487 599 503 595 Q 522 591 537 596 Q 570 606 608 614 L 664 624 Z" fill="black"></path>
				<path d="M 590 468 Q 627 535 664 624 L 680 664 Q 689 718 722 763 Q 731 781 725 792 Q 719 805 686 822 Q 656 835 637 831 Q 618 827 631 806 Q 653 773 645 741 Q 635 698 621 653 L 608 614 Q 562 487 465 316 Q 458 304 456 297 Q 455 285 468 291 Q 499 304 569 428 L 590 468 Z" fill="black"></path>
				<path d="M 609 244 Q 610 287 614 321 L 617 352 Q 620 406 623 425 Q 624 431 623 435 C 624 452 624 452 607 460 Q 600 464 590 468 C 563 480 562 457 569 428 Q 599 316 550 143 Q 514 79 548 37 Q 555 24 564 29 Q 594 48 608 215 L 609 244 Z" fill="black"></path>
				<path d="M 623 435 Q 752 468 766 462 Q 776 456 776 430 Q 794 240 784 91 Q 783 61 765 55 Q 755 52 698 65 Q 685 69 686 60 Q 687 53 702 43 Q 739 12 766 -22 Q 781 -38 797 -37 Q 815 -33 836 19 Q 863 71 857 125 Q 847 252 835 370 Q 831 416 850 454 Q 860 470 847 483 Q 828 499 790 511 Q 768 521 751 509 Q 736 502 709 491 Q 640 469 607 460 C 578 452 594 428 623 435 Z" fill="black"></path>
				<path d="M 614 321 Q 675 333 720 340 Q 742 344 733 357 Q 723 370 698 373 Q 664 376 617 352 C 590 339 585 315 614 321 Z" fill="black"></path>
				<path d="M 608 215 Q 675 224 727 229 Q 749 233 741 245 Q 731 258 707 263 Q 677 269 609 244 C 581 234 578 211 608 215 Z" fill="red"></path>
</g>
		<text x="40" y="140" font-size="128" fill="#999999">17</text></g>
		<g id="id3:id2:id2" transform="matrix(1.0,0,0,1.0,2048,0.0)">			<g stroke="white" stroke-width="4" transform="scale(4, 4)"> <rect x="1" y="1" width="255" height="255" fill="white" stroke-width="0"/></g>
</g>
		<g id="id3:id3:id3" transform="matrix(1.0,0,0,1.0,3072,0.0)">			<g stroke="white" stroke-width="4" transform="scale(4, 4)"> <rect x="1" y="1" width="255" height="255" fill="white" stroke-width="0"/></g>
</g>
		<g id="id3:id4:id4" transform="matrix(1.0,0,0,1.0,4096,0.0)">			<g stroke="white" stroke-width="4" transform="scale(4, 4)"> <rect x="1" y="1" width="255" height="255" fill="white" stroke-width="0"/></g>
</g>
</g>
</svg>
