<?xml version="1.0" standalone="no"?>
<!DOCTYPE svg PUBLIC "-//W3C//DTD SVG 1.1//EN"
 "http://www.w3.org/Graphics/SVG/1.1/DTD/svg11.dtd">
<!-- generate by Japanese dictionary app com.asnsami.kanjidictionary -->

<svg xmlns="http://www.w3.org/2000/svg" xmlns:sodipodi="http://sodipodi.sourceforge.net/DTD/sodipodi-0.dtd" version="1.1" width="640" height="512" viewBox="0 0 5120 4096">
	<g id="id0:id0" transform="translate(0.0,0)">
		<g id="id0:id0:id0" transform="matrix(1.0,0,0,1.0,0,0.0)">			<g stroke="lightgray" stroke-width="4" transform="scale(4, 4)"> <rect x="0" y="0" width="256" height="256" fill="white" stroke-width="4"/></g>
			<g transform="scale(0.92, -0.92) translate(60, -920)">					<path d="M 207 622 Q 194 631 173 638 Q 154 645 143 640 Q 133 633 140 620 Q 192 568 159 293 Q 155 265 148 236 Q 124 140 63 17 Q 59 10 58 5 Q 57 -5 67 -2 Q 79 1 111 49 Q 217 200 218 514 Q 218 566 220 586 C 222 614 222 614 207 622 Z" fill="red"></path>
				<path d="M 220 586 Q 409 634 421 629 Q 422 628 427 624 Q 439 617 442 563 Q 454 379 442 171 Q 441 140 430 132 Q 417 123 356 137 Q 340 140 342 131 Q 343 124 354 119 Q 409 79 438 47 Q 457 29 469 32 Q 479 35 490 60 Q 505 100 504 161 Q 485 569 503 605 Q 513 624 504 634 Q 495 647 453 669 Q 431 678 376 659 Q 282 637 207 622 C 178 616 191 579 220 586 Z" fill="lightgray"></path>
				<path d="M 343 466 L 344 466 L 390 477 Q 401 478 402.5 479 Q 404 480 408 484 Q 412 488 412 490 L 411 495 Q 408 500 400 501 L 379 509 L 369 509 L 342 500 L 307 491 L 252 478 Q 241 476 246 469 Q 251 462 263.5 457 Q 276 452 290 456 L 307 459 L 343 466 Z" fill="lightgray"></path>
				<path d="M 339 381 L 398 393 Q 409 395 413 399.5 Q 417 404 416 407 Q 415 410 408.5 414.5 Q 402 419 388 420 Q 374 424 371 423.5 Q 368 423 342 414 L 309 407 L 250 394 Q 236 392 245 380 Q 255 369 279 371 L 310 376 L 339 381 Z" fill="lightgray"></path>
				<path d="M 323 321 Q 337 336 339 365 L 339 381 L 342 414 L 343 466 L 342 500 L 342 522 Q 342 536 346 546 Q 350 556 350 564 Q 348 570 342 575 Q 337 579 325 583 L 305 588 L 294 585 L 299 568 L 305 520 L 307 491 L 307 459 L 307 458 L 309 407 L 310 376 L 310 361 L 313 337 Q 314 328 323 321 Z" fill="lightgray"></path>
				<path d="M 273 293 Q 266 297 237 304 Q 227 307 224 303 Q 220 299 225 286 Q 244 246 254 179 Q 255 160 267 146 Q 280 128 285 140 Q 289 150 289 170 L 286 196 Q 279 251 279 271 C 279 291 279 291 273 293 Z" fill="lightgray"></path>
				<path d="M 391 208 Q 404 257 421 272 Q 437 293 420 304 Q 404 311 383 326 Q 368 333 354 325 Q 338 313 317 306 Q 298 299 273 293 C 244 286 249 266 279 271 Q 303 275 343 285 Q 358 288 361 282 Q 362 281 351 213 C 346 183 383 179 391 208 Z" fill="lightgray"></path>
				<path d="M 289 170 Q 296 169 306 171 Q 334 178 399 184 Q 408 185 408 192 Q 408 196 391 208 L 351 213 Q 347 213 346 212 Q 312 202 286 196 C 257 189 259 172 289 170 Z" fill="lightgray"></path>
				<path d="M 607 577 Q 631 598 697 663 Q 710 682 731 695 Q 749 708 736 723 Q 720 736 694 745 Q 669 752 658 748 Q 646 744 653 733 Q 659 711 596 586 Q 595 586 595 585 C 580 559 585 557 607 577 Z" fill="lightgray"></path>
				<path d="M 600 322 L 600 377 L 600 406 Q 600 449 601 465 L 604 491 Q 607 522 615 544 C 622 566 622 566 609 575 L 607 577 L 595 585 Q 585 594 570 599 Q 551 605 543 596 Q 537 592 545 580 Q 561 546 560 477 Q 559 422 558 352 Q 558 285 544 229 Q 540 210 554 195 C 571 170 602 230 601 260 Q 600 279 600 297 L 600 322 Z" fill="lightgray"></path>
				<path d="M 744 401 Q 757 385 769 378 Q 779 371 792 390 Q 802 409 826 508 Q 833 536 853 558 Q 863 568 854 581 Q 841 596 802 617 Q 780 626 609 575 C 580 566 587 534 615 544 Q 748 592 771 575 Q 781 568 779 553 Q 763 448 749 433 C 736 410 736 410 744 401 Z" fill="lightgray"></path>
				<path d="M 601 465 Q 665 477 713 484 Q 732 487 725 498 Q 716 510 695 513 Q 659 516 604 491 C 577 479 572 459 601 465 Z" fill="lightgray"></path>
				<path d="M 600 377 Q 607 386 744 401 C 774 404 776 420 749 433 Q 739 440 714 433 Q 650 417 600 406 C 571 400 574 362 600 377 Z" fill="lightgray"></path>
				<path d="M 600 297 Q 607 296 619 297 Q 716 310 786 318 Q 808 321 801 333 Q 791 346 767 352 Q 754 355 600 322 C 571 316 570 299 600 297 Z" fill="lightgray"></path>
				<path d="M 554 195 Q 572 180 595 195 Q 631 219 749 237 Q 867 256 885 235 Q 897 225 882 184 Q 876 127 867 67 Q 860 21 840 -9 Q 831 -19 811 -15 Q 783 -6 758 1 Q 743 5 743 -1 Q 742 -7 750 -15 Q 796 -67 811 -101 Q 820 -122 838 -112 Q 902 -82 911 -18 Q 927 66 938 158 Q 945 194 963 224 Q 975 240 964 252 Q 948 271 911 291 Q 892 303 864 291 Q 824 275 785 270 Q 733 263 623 243 Q 601 240 601 260 C 582 283 525 203 554 195 Z" fill="lightgray"></path>
				<path d="M 538 130 Q 522 79 495 33 Q 482 2 497 -25 Q 504 -41 523 -28 Q 541 -13 551 16 Q 564 50 564 81 Q 567 111 559 132 Q 555 139 549 139 Q 542 138 538 130 Z" fill="lightgray"></path>
				<path d="M 597 120 Q 618 36 636 25 Q 646 19 657 30 Q 664 39 664 58 Q 661 98 610 138 Q 604 142 599 135 Q 595 129 597 120 Z" fill="lightgray"></path>
				<path d="M 665 132 Q 701 60 720 53 Q 730 49 739 63 Q 743 73 740 91 Q 736 109 716 122 Q 688 146 675 153 Q 668 156 664 147 Q 661 140 665 132 Z" fill="lightgray"></path>
				<path d="M 757 139 Q 799 73 808 71 Q 815 70 822 77 Q 828 87 828 109 Q 828 125 808 143 Q 759 182 748 178 Q 744 177 742 167 Q 743 158 757 139 Z" fill="lightgray"></path>
</g>
		<text x="40" y="140" font-size="128" fill="#999999">1</text></g>
		<g id="id0:id1:id1" transform="matrix(1.0,0,0,1.0,1024,0.0)">			<g stroke="lightgray" stroke-width="4" transform="scale(4, 4)"> <rect x="0" y="0" width="256" height="256" fill="white" stroke-width="4"/></g>
			<g transform="scale(0.92, -0.92) translate(60, -920)">					<path d="M 207 622 Q 194 631 173 638 Q 154 645 143 640 Q 133 633 140 620 Q 192 568 159 293 Q 155 265 148 236 Q 124 140 63 17 Q 59 10 58 5 Q 57 -5 67 -2 Q 79 1 111 49 Q 217 200 218 514 Q 218 566 220 586 C 222 614 222 614 207 622 Z" fill="black"></path>
				<path d="M 220 586 Q 409 634 421 629 Q 422 628 427 624 Q 439 617 442 563 Q 454 379 442 171 Q 441 140 430 132 Q 417 123 356 137 Q 340 140 342 131 Q 343 124 354 119 Q 409 79 438 47 Q 457 29 469 32 Q 479 35 490 60 Q 505 100 504 161 Q 485 569 503 605 Q 513 624 504 634 Q 495 647 453 669 Q 431 678 376 659 Q 282 637 207 622 C 178 616 191 579 220 586 Z" fill="red"></path>
				<path d="M 343 466 L 344 466 L 390 477 Q 401 478 402.5 479 Q 404 480 408 484 Q 412 488 412 490 L 411 495 Q 408 500 400 501 L 379 509 L 369 509 L 342 500 L 307 491 L 252 478 Q 241 476 246 469 Q 251 462 263.5 457 Q 276 452 290 456 L 307 459 L 343 466 Z" fill="lightgray"></path>
				<path d="M 339 381 L 398 393 Q 409 395 413 399.5 Q 417 404 416 407 Q 415 410 408.5 414.5 Q 402 419 388 420 Q 374 424 371 423.5 Q 368 423 342 414 L 309 407 L 250 394 Q 236 392 245 380 Q 255 369 279 371 L 310 376 L 339 381 Z" fill="lightgray"></path>
				<path d="M 323 321 Q 337 336 339 365 L 339 381 L 342 414 L 343 466 L 342 500 L 342 522 Q 342 536 346 546 Q 350 556 350 564 Q 348 570 342 575 Q 337 579 325 583 L 305 588 L 294 585 L 299 568 L 305 520 L 307 491 L 307 459 L 307 458 L 309 407 L 310 376 L 310 361 L 313 337 Q 314 328 323 321 Z" fill="lightgray"></path>
				<path d="M 273 293 Q 266 297 237 304 Q 227 307 224 303 Q 220 299 225 286 Q 244 246 254 179 Q 255 160 267 146 Q 280 128 285 140 Q 289 150 289 170 L 286 196 Q 279 251 279 271 C 279 291 279 291 273 293 Z" fill="lightgray"></path>
				<path d="M 391 208 Q 404 257 421 272 Q 437 293 420 304 Q 404 311 383 326 Q 368 333 354 325 Q 338 313 317 306 Q 298 299 273 293 C 244 286 249 266 279 271 Q 303 275 343 285 Q 358 288 361 282 Q 362 281 351 213 C 346 183 383 179 391 208 Z" fill="lightgray"></path>
				<path d="M 289 170 Q 296 169 306 171 Q 334 178 399 184 Q 408 185 408 192 Q 408 196 391 208 L 351 213 Q 347 213 346 212 Q 312 202 286 196 C 257 189 259 172 289 170 Z" fill="lightgray"></path>
				<path d="M 607 577 Q 631 598 697 663 Q 710 682 731 695 Q 749 708 736 723 Q 720 736 694 745 Q 669 752 658 748 Q 646 744 653 733 Q 659 711 596 586 Q 595 586 595 585 C 580 559 585 557 607 577 Z" fill="lightgray"></path>
				<path d="M 600 322 L 600 377 L 600 406 Q 600 449 601 465 L 604 491 Q 607 522 615 544 C 622 566 622 566 609 575 L 607 577 L 595 585 Q 585 594 570 599 Q 551 605 543 596 Q 537 592 545 580 Q 561 546 560 477 Q 559 422 558 352 Q 558 285 544 229 Q 540 210 554 195 C 571 170 602 230 601 260 Q 600 279 600 297 L 600 322 Z" fill="lightgray"></path>
				<path d="M 744 401 Q 757 385 769 378 Q 779 371 792 390 Q 802 409 826 508 Q 833 536 853 558 Q 863 568 854 581 Q 841 596 802 617 Q 780 626 609 575 C 580 566 587 534 615 544 Q 748 592 771 575 Q 781 568 779 553 Q 763 448 749 433 C 736 410 736 410 744 401 Z" fill="lightgray"></path>
				<path d="M 601 465 Q 665 477 713 484 Q 732 487 725 498 Q 716 510 695 513 Q 659 516 604 491 C 577 479 572 459 601 465 Z" fill="lightgray"></path>
				<path d="M 600 377 Q 607 386 744 401 C 774 404 776 420 749 433 Q 739 440 714 433 Q 650 417 600 406 C 571 400 574 362 600 377 Z" fill="lightgray"></path>
				<path d="M 600 297 Q 607 296 619 297 Q 716 310 786 318 Q 808 321 801 333 Q 791 346 767 352 Q 754 355 600 322 C 571 316 570 299 600 297 Z" fill="lightgray"></path>
				<path d="M 554 195 Q 572 180 595 195 Q 631 219 749 237 Q 867 256 885 235 Q 897 225 882 184 Q 876 127 867 67 Q 860 21 840 -9 Q 831 -19 811 -15 Q 783 -6 758 1 Q 743 5 743 -1 Q 742 -7 750 -15 Q 796 -67 811 -101 Q 820 -122 838 -112 Q 902 -82 911 -18 Q 927 66 938 158 Q 945 194 963 224 Q 975 240 964 252 Q 948 271 911 291 Q 892 303 864 291 Q 824 275 785 270 Q 733 263 623 243 Q 601 240 601 260 C 582 283 525 203 554 195 Z" fill="lightgray"></path>
				<path d="M 538 130 Q 522 79 495 33 Q 482 2 497 -25 Q 504 -41 523 -28 Q 541 -13 551 16 Q 564 50 564 81 Q 567 111 559 132 Q 555 139 549 139 Q 542 138 538 130 Z" fill="lightgray"></path>
				<path d="M 597 120 Q 618 36 636 25 Q 646 19 657 30 Q 664 39 664 58 Q 661 98 610 138 Q 604 142 599 135 Q 595 129 597 120 Z" fill="lightgray"></path>
				<path d="M 665 132 Q 701 60 720 53 Q 730 49 739 63 Q 743 73 740 91 Q 736 109 716 122 Q 688 146 675 153 Q 668 156 664 147 Q 661 140 665 132 Z" fill="lightgray"></path>
				<path d="M 757 139 Q 799 73 808 71 Q 815 70 822 77 Q 828 87 828 109 Q 828 125 808 143 Q 759 182 748 178 Q 744 177 742 167 Q 743 158 757 139 Z" fill="lightgray"></path>
</g>
		<text x="40" y="140" font-size="128" fill="#999999">2</text></g>
		<g id="id0:id2:id2" transform="matrix(1.0,0,0,1.0,2048,0.0)">			<g stroke="lightgray" stroke-width="4" transform="scale(4, 4)"> <rect x="0" y="0" width="256" height="256" fill="white" stroke-width="4"/></g>
			<g transform="scale(0.92, -0.92) translate(60, -920)">					<path d="M 207 622 Q 194 631 173 638 Q 154 645 143 640 Q 133 633 140 620 Q 192 568 159 293 Q 155 265 148 236 Q 124 140 63 17 Q 59 10 58 5 Q 57 -5 67 -2 Q 79 1 111 49 Q 217 200 218 514 Q 218 566 220 586 C 222 614 222 614 207 622 Z" fill="black"></path>
				<path d="M 220 586 Q 409 634 421 629 Q 422 628 427 624 Q 439 617 442 563 Q 454 379 442 171 Q 441 140 430 132 Q 417 123 356 137 Q 340 140 342 131 Q 343 124 354 119 Q 409 79 438 47 Q 457 29 469 32 Q 479 35 490 60 Q 505 100 504 161 Q 485 569 503 605 Q 513 624 504 634 Q 495 647 453 669 Q 431 678 376 659 Q 282 637 207 622 C 178 616 191 579 220 586 Z" fill="black"></path>
				<path d="M 343 466 L 344 466 L 390 477 Q 401 478 402.5 479 Q 404 480 408 484 Q 412 488 412 490 L 411 495 Q 408 500 400 501 L 379 509 L 369 509 L 342 500 L 307 491 L 252 478 Q 241 476 246 469 Q 251 462 263.5 457 Q 276 452 290 456 L 307 459 L 343 466 Z" fill="red"></path>
				<path d="M 339 381 L 398 393 Q 409 395 413 399.5 Q 417 404 416 407 Q 415 410 408.5 414.5 Q 402 419 388 420 Q 374 424 371 423.5 Q 368 423 342 414 L 309 407 L 250 394 Q 236 392 245 380 Q 255 369 279 371 L 310 376 L 339 381 Z" fill="lightgray"></path>
				<path d="M 323 321 Q 337 336 339 365 L 339 381 L 342 414 L 343 466 L 342 500 L 342 522 Q 342 536 346 546 Q 350 556 350 564 Q 348 570 342 575 Q 337 579 325 583 L 305 588 L 294 585 L 299 568 L 305 520 L 307 491 L 307 459 L 307 458 L 309 407 L 310 376 L 310 361 L 313 337 Q 314 328 323 321 Z" fill="lightgray"></path>
				<path d="M 273 293 Q 266 297 237 304 Q 227 307 224 303 Q 220 299 225 286 Q 244 246 254 179 Q 255 160 267 146 Q 280 128 285 140 Q 289 150 289 170 L 286 196 Q 279 251 279 271 C 279 291 279 291 273 293 Z" fill="lightgray"></path>
				<path d="M 391 208 Q 404 257 421 272 Q 437 293 420 304 Q 404 311 383 326 Q 368 333 354 325 Q 338 313 317 306 Q 298 299 273 293 C 244 286 249 266 279 271 Q 303 275 343 285 Q 358 288 361 282 Q 362 281 351 213 C 346 183 383 179 391 208 Z" fill="lightgray"></path>
				<path d="M 289 170 Q 296 169 306 171 Q 334 178 399 184 Q 408 185 408 192 Q 408 196 391 208 L 351 213 Q 347 213 346 212 Q 312 202 286 196 C 257 189 259 172 289 170 Z" fill="lightgray"></path>
				<path d="M 607 577 Q 631 598 697 663 Q 710 682 731 695 Q 749 708 736 723 Q 720 736 694 745 Q 669 752 658 748 Q 646 744 653 733 Q 659 711 596 586 Q 595 586 595 585 C 580 559 585 557 607 577 Z" fill="lightgray"></path>
				<path d="M 600 322 L 600 377 L 600 406 Q 600 449 601 465 L 604 491 Q 607 522 615 544 C 622 566 622 566 609 575 L 607 577 L 595 585 Q 585 594 570 599 Q 551 605 543 596 Q 537 592 545 580 Q 561 546 560 477 Q 559 422 558 352 Q 558 285 544 229 Q 540 210 554 195 C 571 170 602 230 601 260 Q 600 279 600 297 L 600 322 Z" fill="lightgray"></path>
				<path d="M 744 401 Q 757 385 769 378 Q 779 371 792 390 Q 802 409 826 508 Q 833 536 853 558 Q 863 568 854 581 Q 841 596 802 617 Q 780 626 609 575 C 580 566 587 534 615 544 Q 748 592 771 575 Q 781 568 779 553 Q 763 448 749 433 C 736 410 736 410 744 401 Z" fill="lightgray"></path>
				<path d="M 601 465 Q 665 477 713 484 Q 732 487 725 498 Q 716 510 695 513 Q 659 516 604 491 C 577 479 572 459 601 465 Z" fill="lightgray"></path>
				<path d="M 600 377 Q 607 386 744 401 C 774 404 776 420 749 433 Q 739 440 714 433 Q 650 417 600 406 C 571 400 574 362 600 377 Z" fill="lightgray"></path>
				<path d="M 600 297 Q 607 296 619 297 Q 716 310 786 318 Q 808 321 801 333 Q 791 346 767 352 Q 754 355 600 322 C 571 316 570 299 600 297 Z" fill="lightgray"></path>
				<path d="M 554 195 Q 572 180 595 195 Q 631 219 749 237 Q 867 256 885 235 Q 897 225 882 184 Q 876 127 867 67 Q 860 21 840 -9 Q 831 -19 811 -15 Q 783 -6 758 1 Q 743 5 743 -1 Q 742 -7 750 -15 Q 796 -67 811 -101 Q 820 -122 838 -112 Q 902 -82 911 -18 Q 927 66 938 158 Q 945 194 963 224 Q 975 240 964 252 Q 948 271 911 291 Q 892 303 864 291 Q 824 275 785 270 Q 733 263 623 243 Q 601 240 601 260 C 582 283 525 203 554 195 Z" fill="lightgray"></path>
				<path d="M 538 130 Q 522 79 495 33 Q 482 2 497 -25 Q 504 -41 523 -28 Q 541 -13 551 16 Q 564 50 564 81 Q 567 111 559 132 Q 555 139 549 139 Q 542 138 538 130 Z" fill="lightgray"></path>
				<path d="M 597 120 Q 618 36 636 25 Q 646 19 657 30 Q 664 39 664 58 Q 661 98 610 138 Q 604 142 599 135 Q 595 129 597 120 Z" fill="lightgray"></path>
				<path d="M 665 132 Q 701 60 720 53 Q 730 49 739 63 Q 743 73 740 91 Q 736 109 716 122 Q 688 146 675 153 Q 668 156 664 147 Q 661 140 665 132 Z" fill="lightgray"></path>
				<path d="M 757 139 Q 799 73 808 71 Q 815 70 822 77 Q 828 87 828 109 Q 828 125 808 143 Q 759 182 748 178 Q 744 177 742 167 Q 743 158 757 139 Z" fill="lightgray"></path>
</g>
		<text x="40" y="140" font-size="128" fill="#999999">3</text></g>
		<g id="id0:id3:id3" transform="matrix(1.0,0,0,1.0,3072,0.0)">			<g stroke="lightgray" stroke-width="4" transform="scale(4, 4)"> <rect x="0" y="0" width="256" height="256" fill="white" stroke-width="4"/></g>
			<g transform="scale(0.92, -0.92) translate(60, -920)">					<path d="M 207 622 Q 194 631 173 638 Q 154 645 143 640 Q 133 633 140 620 Q 192 568 159 293 Q 155 265 148 236 Q 124 140 63 17 Q 59 10 58 5 Q 57 -5 67 -2 Q 79 1 111 49 Q 217 200 218 514 Q 218 566 220 586 C 222 614 222 614 207 622 Z" fill="black"></path>
				<path d="M 220 586 Q 409 634 421 629 Q 422 628 427 624 Q 439 617 442 563 Q 454 379 442 171 Q 441 140 430 132 Q 417 123 356 137 Q 340 140 342 131 Q 343 124 354 119 Q 409 79 438 47 Q 457 29 469 32 Q 479 35 490 60 Q 505 100 504 161 Q 485 569 503 605 Q 513 624 504 634 Q 495 647 453 669 Q 431 678 376 659 Q 282 637 207 622 C 178 616 191 579 220 586 Z" fill="black"></path>
				<path d="M 343 466 L 344 466 L 390 477 Q 401 478 402.5 479 Q 404 480 408 484 Q 412 488 412 490 L 411 495 Q 408 500 400 501 L 379 509 L 369 509 L 342 500 L 307 491 L 252 478 Q 241 476 246 469 Q 251 462 263.5 457 Q 276 452 290 456 L 307 459 L 343 466 Z" fill="black"></path>
				<path d="M 339 381 L 398 393 Q 409 395 413 399.5 Q 417 404 416 407 Q 415 410 408.5 414.5 Q 402 419 388 420 Q 374 424 371 423.5 Q 368 423 342 414 L 309 407 L 250 394 Q 236 392 245 380 Q 255 369 279 371 L 310 376 L 339 381 Z" fill="red"></path>
				<path d="M 323 321 Q 337 336 339 365 L 339 381 L 342 414 L 343 466 L 342 500 L 342 522 Q 342 536 346 546 Q 350 556 350 564 Q 348 570 342 575 Q 337 579 325 583 L 305 588 L 294 585 L 299 568 L 305 520 L 307 491 L 307 459 L 307 458 L 309 407 L 310 376 L 310 361 L 313 337 Q 314 328 323 321 Z" fill="lightgray"></path>
				<path d="M 273 293 Q 266 297 237 304 Q 227 307 224 303 Q 220 299 225 286 Q 244 246 254 179 Q 255 160 267 146 Q 280 128 285 140 Q 289 150 289 170 L 286 196 Q 279 251 279 271 C 279 291 279 291 273 293 Z" fill="lightgray"></path>
				<path d="M 391 208 Q 404 257 421 272 Q 437 293 420 304 Q 404 311 383 326 Q 368 333 354 325 Q 338 313 317 306 Q 298 299 273 293 C 244 286 249 266 279 271 Q 303 275 343 285 Q 358 288 361 282 Q 362 281 351 213 C 346 183 383 179 391 208 Z" fill="lightgray"></path>
				<path d="M 289 170 Q 296 169 306 171 Q 334 178 399 184 Q 408 185 408 192 Q 408 196 391 208 L 351 213 Q 347 213 346 212 Q 312 202 286 196 C 257 189 259 172 289 170 Z" fill="lightgray"></path>
				<path d="M 607 577 Q 631 598 697 663 Q 710 682 731 695 Q 749 708 736 723 Q 720 736 694 745 Q 669 752 658 748 Q 646 744 653 733 Q 659 711 596 586 Q 595 586 595 585 C 580 559 585 557 607 577 Z" fill="lightgray"></path>
				<path d="M 600 322 L 600 377 L 600 406 Q 600 449 601 465 L 604 491 Q 607 522 615 544 C 622 566 622 566 609 575 L 607 577 L 595 585 Q 585 594 570 599 Q 551 605 543 596 Q 537 592 545 580 Q 561 546 560 477 Q 559 422 558 352 Q 558 285 544 229 Q 540 210 554 195 C 571 170 602 230 601 260 Q 600 279 600 297 L 600 322 Z" fill="lightgray"></path>
				<path d="M 744 401 Q 757 385 769 378 Q 779 371 792 390 Q 802 409 826 508 Q 833 536 853 558 Q 863 568 854 581 Q 841 596 802 617 Q 780 626 609 575 C 580 566 587 534 615 544 Q 748 592 771 575 Q 781 568 779 553 Q 763 448 749 433 C 736 410 736 410 744 401 Z" fill="lightgray"></path>
				<path d="M 601 465 Q 665 477 713 484 Q 732 487 725 498 Q 716 510 695 513 Q 659 516 604 491 C 577 479 572 459 601 465 Z" fill="lightgray"></path>
				<path d="M 600 377 Q 607 386 744 401 C 774 404 776 420 749 433 Q 739 440 714 433 Q 650 417 600 406 C 571 400 574 362 600 377 Z" fill="lightgray"></path>
				<path d="M 600 297 Q 607 296 619 297 Q 716 310 786 318 Q 808 321 801 333 Q 791 346 767 352 Q 754 355 600 322 C 571 316 570 299 600 297 Z" fill="lightgray"></path>
				<path d="M 554 195 Q 572 180 595 195 Q 631 219 749 237 Q 867 256 885 235 Q 897 225 882 184 Q 876 127 867 67 Q 860 21 840 -9 Q 831 -19 811 -15 Q 783 -6 758 1 Q 743 5 743 -1 Q 742 -7 750 -15 Q 796 -67 811 -101 Q 820 -122 838 -112 Q 902 -82 911 -18 Q 927 66 938 158 Q 945 194 963 224 Q 975 240 964 252 Q 948 271 911 291 Q 892 303 864 291 Q 824 275 785 270 Q 733 263 623 243 Q 601 240 601 260 C 582 283 525 203 554 195 Z" fill="lightgray"></path>
				<path d="M 538 130 Q 522 79 495 33 Q 482 2 497 -25 Q 504 -41 523 -28 Q 541 -13 551 16 Q 564 50 564 81 Q 567 111 559 132 Q 555 139 549 139 Q 542 138 538 130 Z" fill="lightgray"></path>
				<path d="M 597 120 Q 618 36 636 25 Q 646 19 657 30 Q 664 39 664 58 Q 661 98 610 138 Q 604 142 599 135 Q 595 129 597 120 Z" fill="lightgray"></path>
				<path d="M 665 132 Q 701 60 720 53 Q 730 49 739 63 Q 743 73 740 91 Q 736 109 716 122 Q 688 146 675 153 Q 668 156 664 147 Q 661 140 665 132 Z" fill="lightgray"></path>
				<path d="M 757 139 Q 799 73 808 71 Q 815 70 822 77 Q 828 87 828 109 Q 828 125 808 143 Q 759 182 748 178 Q 744 177 742 167 Q 743 158 757 139 Z" fill="lightgray"></path>
</g>
		<text x="40" y="140" font-size="128" fill="#999999">4</text></g>
		<g id="id0:id4:id4" transform="matrix(1.0,0,0,1.0,4096,0.0)">			<g stroke="lightgray" stroke-width="4" transform="scale(4, 4)"> <rect x="0" y="0" width="256" height="256" fill="white" stroke-width="4"/></g>
			<g transform="scale(0.92, -0.92) translate(60, -920)">					<path d="M 207 622 Q 194 631 173 638 Q 154 645 143 640 Q 133 633 140 620 Q 192 568 159 293 Q 155 265 148 236 Q 124 140 63 17 Q 59 10 58 5 Q 57 -5 67 -2 Q 79 1 111 49 Q 217 200 218 514 Q 218 566 220 586 C 222 614 222 614 207 622 Z" fill="black"></path>
				<path d="M 220 586 Q 409 634 421 629 Q 422 628 427 624 Q 439 617 442 563 Q 454 379 442 171 Q 441 140 430 132 Q 417 123 356 137 Q 340 140 342 131 Q 343 124 354 119 Q 409 79 438 47 Q 457 29 469 32 Q 479 35 490 60 Q 505 100 504 161 Q 485 569 503 605 Q 513 624 504 634 Q 495 647 453 669 Q 431 678 376 659 Q 282 637 207 622 C 178 616 191 579 220 586 Z" fill="black"></path>
				<path d="M 343 466 L 344 466 L 390 477 Q 401 478 402.5 479 Q 404 480 408 484 Q 412 488 412 490 L 411 495 Q 408 500 400 501 L 379 509 L 369 509 L 342 500 L 307 491 L 252 478 Q 241 476 246 469 Q 251 462 263.5 457 Q 276 452 290 456 L 307 459 L 343 466 Z" fill="black"></path>
				<path d="M 339 381 L 398 393 Q 409 395 413 399.5 Q 417 404 416 407 Q 415 410 408.5 414.5 Q 402 419 388 420 Q 374 424 371 423.5 Q 368 423 342 414 L 309 407 L 250 394 Q 236 392 245 380 Q 255 369 279 371 L 310 376 L 339 381 Z" fill="black"></path>
				<path d="M 323 321 Q 337 336 339 365 L 339 381 L 342 414 L 343 466 L 342 500 L 342 522 Q 342 536 346 546 Q 350 556 350 564 Q 348 570 342 575 Q 337 579 325 583 L 305 588 L 294 585 L 299 568 L 305 520 L 307 491 L 307 459 L 307 458 L 309 407 L 310 376 L 310 361 L 313 337 Q 314 328 323 321 Z" fill="red"></path>
				<path d="M 273 293 Q 266 297 237 304 Q 227 307 224 303 Q 220 299 225 286 Q 244 246 254 179 Q 255 160 267 146 Q 280 128 285 140 Q 289 150 289 170 L 286 196 Q 279 251 279 271 C 279 291 279 291 273 293 Z" fill="lightgray"></path>
				<path d="M 391 208 Q 404 257 421 272 Q 437 293 420 304 Q 404 311 383 326 Q 368 333 354 325 Q 338 313 317 306 Q 298 299 273 293 C 244 286 249 266 279 271 Q 303 275 343 285 Q 358 288 361 282 Q 362 281 351 213 C 346 183 383 179 391 208 Z" fill="lightgray"></path>
				<path d="M 289 170 Q 296 169 306 171 Q 334 178 399 184 Q 408 185 408 192 Q 408 196 391 208 L 351 213 Q 347 213 346 212 Q 312 202 286 196 C 257 189 259 172 289 170 Z" fill="lightgray"></path>
				<path d="M 607 577 Q 631 598 697 663 Q 710 682 731 695 Q 749 708 736 723 Q 720 736 694 745 Q 669 752 658 748 Q 646 744 653 733 Q 659 711 596 586 Q 595 586 595 585 C 580 559 585 557 607 577 Z" fill="lightgray"></path>
				<path d="M 600 322 L 600 377 L 600 406 Q 600 449 601 465 L 604 491 Q 607 522 615 544 C 622 566 622 566 609 575 L 607 577 L 595 585 Q 585 594 570 599 Q 551 605 543 596 Q 537 592 545 580 Q 561 546 560 477 Q 559 422 558 352 Q 558 285 544 229 Q 540 210 554 195 C 571 170 602 230 601 260 Q 600 279 600 297 L 600 322 Z" fill="lightgray"></path>
				<path d="M 744 401 Q 757 385 769 378 Q 779 371 792 390 Q 802 409 826 508 Q 833 536 853 558 Q 863 568 854 581 Q 841 596 802 617 Q 780 626 609 575 C 580 566 587 534 615 544 Q 748 592 771 575 Q 781 568 779 553 Q 763 448 749 433 C 736 410 736 410 744 401 Z" fill="lightgray"></path>
				<path d="M 601 465 Q 665 477 713 484 Q 732 487 725 498 Q 716 510 695 513 Q 659 516 604 491 C 577 479 572 459 601 465 Z" fill="lightgray"></path>
				<path d="M 600 377 Q 607 386 744 401 C 774 404 776 420 749 433 Q 739 440 714 433 Q 650 417 600 406 C 571 400 574 362 600 377 Z" fill="lightgray"></path>
				<path d="M 600 297 Q 607 296 619 297 Q 716 310 786 318 Q 808 321 801 333 Q 791 346 767 352 Q 754 355 600 322 C 571 316 570 299 600 297 Z" fill="lightgray"></path>
				<path d="M 554 195 Q 572 180 595 195 Q 631 219 749 237 Q 867 256 885 235 Q 897 225 882 184 Q 876 127 867 67 Q 860 21 840 -9 Q 831 -19 811 -15 Q 783 -6 758 1 Q 743 5 743 -1 Q 742 -7 750 -15 Q 796 -67 811 -101 Q 820 -122 838 -112 Q 902 -82 911 -18 Q 927 66 938 158 Q 945 194 963 224 Q 975 240 964 252 Q 948 271 911 291 Q 892 303 864 291 Q 824 275 785 270 Q 733 263 623 243 Q 601 240 601 260 C 582 283 525 203 554 195 Z" fill="lightgray"></path>
				<path d="M 538 130 Q 522 79 495 33 Q 482 2 497 -25 Q 504 -41 523 -28 Q 541 -13 551 16 Q 564 50 564 81 Q 567 111 559 132 Q 555 139 549 139 Q 542 138 538 130 Z" fill="lightgray"></path>
				<path d="M 597 120 Q 618 36 636 25 Q 646 19 657 30 Q 664 39 664 58 Q 661 98 610 138 Q 604 142 599 135 Q 595 129 597 120 Z" fill="lightgray"></path>
				<path d="M 665 132 Q 701 60 720 53 Q 730 49 739 63 Q 743 73 740 91 Q 736 109 716 122 Q 688 146 675 153 Q 668 156 664 147 Q 661 140 665 132 Z" fill="lightgray"></path>
				<path d="M 757 139 Q 799 73 808 71 Q 815 70 822 77 Q 828 87 828 109 Q 828 125 808 143 Q 759 182 748 178 Q 744 177 742 167 Q 743 158 757 139 Z" fill="lightgray"></path>
</g>
		<text x="40" y="140" font-size="128" fill="#999999">5</text></g>
</g>
	<g id="id1:id1" transform="translate(0.0,1024)">
		<g id="id1:id0:id0" transform="matrix(1.0,0,0,1.0,0,0.0)">			<g stroke="lightgray" stroke-width="4" transform="scale(4, 4)"> <rect x="0" y="0" width="256" height="256" fill="white" stroke-width="4"/></g>
			<g transform="scale(0.92, -0.92) translate(60, -920)">					<path d="M 207 622 Q 194 631 173 638 Q 154 645 143 640 Q 133 633 140 620 Q 192 568 159 293 Q 155 265 148 236 Q 124 140 63 17 Q 59 10 58 5 Q 57 -5 67 -2 Q 79 1 111 49 Q 217 200 218 514 Q 218 566 220 586 C 222 614 222 614 207 622 Z" fill="black"></path>
				<path d="M 220 586 Q 409 634 421 629 Q 422 628 427 624 Q 439 617 442 563 Q 454 379 442 171 Q 441 140 430 132 Q 417 123 356 137 Q 340 140 342 131 Q 343 124 354 119 Q 409 79 438 47 Q 457 29 469 32 Q 479 35 490 60 Q 505 100 504 161 Q 485 569 503 605 Q 513 624 504 634 Q 495 647 453 669 Q 431 678 376 659 Q 282 637 207 622 C 178 616 191 579 220 586 Z" fill="black"></path>
				<path d="M 343 466 L 344 466 L 390 477 Q 401 478 402.5 479 Q 404 480 408 484 Q 412 488 412 490 L 411 495 Q 408 500 400 501 L 379 509 L 369 509 L 342 500 L 307 491 L 252 478 Q 241 476 246 469 Q 251 462 263.5 457 Q 276 452 290 456 L 307 459 L 343 466 Z" fill="black"></path>
				<path d="M 339 381 L 398 393 Q 409 395 413 399.5 Q 417 404 416 407 Q 415 410 408.5 414.5 Q 402 419 388 420 Q 374 424 371 423.5 Q 368 423 342 414 L 309 407 L 250 394 Q 236 392 245 380 Q 255 369 279 371 L 310 376 L 339 381 Z" fill="black"></path>
				<path d="M 323 321 Q 337 336 339 365 L 339 381 L 342 414 L 343 466 L 342 500 L 342 522 Q 342 536 346 546 Q 350 556 350 564 Q 348 570 342 575 Q 337 579 325 583 L 305 588 L 294 585 L 299 568 L 305 520 L 307 491 L 307 459 L 307 458 L 309 407 L 310 376 L 310 361 L 313 337 Q 314 328 323 321 Z" fill="black"></path>
				<path d="M 273 293 Q 266 297 237 304 Q 227 307 224 303 Q 220 299 225 286 Q 244 246 254 179 Q 255 160 267 146 Q 280 128 285 140 Q 289 150 289 170 L 286 196 Q 279 251 279 271 C 279 291 279 291 273 293 Z" fill="red"></path>
				<path d="M 391 208 Q 404 257 421 272 Q 437 293 420 304 Q 404 311 383 326 Q 368 333 354 325 Q 338 313 317 306 Q 298 299 273 293 C 244 286 249 266 279 271 Q 303 275 343 285 Q 358 288 361 282 Q 362 281 351 213 C 346 183 383 179 391 208 Z" fill="lightgray"></path>
				<path d="M 289 170 Q 296 169 306 171 Q 334 178 399 184 Q 408 185 408 192 Q 408 196 391 208 L 351 213 Q 347 213 346 212 Q 312 202 286 196 C 257 189 259 172 289 170 Z" fill="lightgray"></path>
				<path d="M 607 577 Q 631 598 697 663 Q 710 682 731 695 Q 749 708 736 723 Q 720 736 694 745 Q 669 752 658 748 Q 646 744 653 733 Q 659 711 596 586 Q 595 586 595 585 C 580 559 585 557 607 577 Z" fill="lightgray"></path>
				<path d="M 600 322 L 600 377 L 600 406 Q 600 449 601 465 L 604 491 Q 607 522 615 544 C 622 566 622 566 609 575 L 607 577 L 595 585 Q 585 594 570 599 Q 551 605 543 596 Q 537 592 545 580 Q 561 546 560 477 Q 559 422 558 352 Q 558 285 544 229 Q 540 210 554 195 C 571 170 602 230 601 260 Q 600 279 600 297 L 600 322 Z" fill="lightgray"></path>
				<path d="M 744 401 Q 757 385 769 378 Q 779 371 792 390 Q 802 409 826 508 Q 833 536 853 558 Q 863 568 854 581 Q 841 596 802 617 Q 780 626 609 575 C 580 566 587 534 615 544 Q 748 592 771 575 Q 781 568 779 553 Q 763 448 749 433 C 736 410 736 410 744 401 Z" fill="lightgray"></path>
				<path d="M 601 465 Q 665 477 713 484 Q 732 487 725 498 Q 716 510 695 513 Q 659 516 604 491 C 577 479 572 459 601 465 Z" fill="lightgray"></path>
				<path d="M 600 377 Q 607 386 744 401 C 774 404 776 420 749 433 Q 739 440 714 433 Q 650 417 600 406 C 571 400 574 362 600 377 Z" fill="lightgray"></path>
				<path d="M 600 297 Q 607 296 619 297 Q 716 310 786 318 Q 808 321 801 333 Q 791 346 767 352 Q 754 355 600 322 C 571 316 570 299 600 297 Z" fill="lightgray"></path>
				<path d="M 554 195 Q 572 180 595 195 Q 631 219 749 237 Q 867 256 885 235 Q 897 225 882 184 Q 876 127 867 67 Q 860 21 840 -9 Q 831 -19 811 -15 Q 783 -6 758 1 Q 743 5 743 -1 Q 742 -7 750 -15 Q 796 -67 811 -101 Q 820 -122 838 -112 Q 902 -82 911 -18 Q 927 66 938 158 Q 945 194 963 224 Q 975 240 964 252 Q 948 271 911 291 Q 892 303 864 291 Q 824 275 785 270 Q 733 263 623 243 Q 601 240 601 260 C 582 283 525 203 554 195 Z" fill="lightgray"></path>
				<path d="M 538 130 Q 522 79 495 33 Q 482 2 497 -25 Q 504 -41 523 -28 Q 541 -13 551 16 Q 564 50 564 81 Q 567 111 559 132 Q 555 139 549 139 Q 542 138 538 130 Z" fill="lightgray"></path>
				<path d="M 597 120 Q 618 36 636 25 Q 646 19 657 30 Q 664 39 664 58 Q 661 98 610 138 Q 604 142 599 135 Q 595 129 597 120 Z" fill="lightgray"></path>
				<path d="M 665 132 Q 701 60 720 53 Q 730 49 739 63 Q 743 73 740 91 Q 736 109 716 122 Q 688 146 675 153 Q 668 156 664 147 Q 661 140 665 132 Z" fill="lightgray"></path>
				<path d="M 757 139 Q 799 73 808 71 Q 815 70 822 77 Q 828 87 828 109 Q 828 125 808 143 Q 759 182 748 178 Q 744 177 742 167 Q 743 158 757 139 Z" fill="lightgray"></path>
</g>
		<text x="40" y="140" font-size="128" fill="#999999">6</text></g>
		<g id="id1:id1:id1" transform="matrix(1.0,0,0,1.0,1024,0.0)">			<g stroke="lightgray" stroke-width="4" transform="scale(4, 4)"> <rect x="0" y="0" width="256" height="256" fill="white" stroke-width="4"/></g>
			<g transform="scale(0.92, -0.92) translate(60, -920)">					<path d="M 207 622 Q 194 631 173 638 Q 154 645 143 640 Q 133 633 140 620 Q 192 568 159 293 Q 155 265 148 236 Q 124 140 63 17 Q 59 10 58 5 Q 57 -5 67 -2 Q 79 1 111 49 Q 217 200 218 514 Q 218 566 220 586 C 222 614 222 614 207 622 Z" fill="black"></path>
				<path d="M 220 586 Q 409 634 421 629 Q 422 628 427 624 Q 439 617 442 563 Q 454 379 442 171 Q 441 140 430 132 Q 417 123 356 137 Q 340 140 342 131 Q 343 124 354 119 Q 409 79 438 47 Q 457 29 469 32 Q 479 35 490 60 Q 505 100 504 161 Q 485 569 503 605 Q 513 624 504 634 Q 495 647 453 669 Q 431 678 376 659 Q 282 637 207 622 C 178 616 191 579 220 586 Z" fill="black"></path>
				<path d="M 343 466 L 344 466 L 390 477 Q 401 478 402.5 479 Q 404 480 408 484 Q 412 488 412 490 L 411 495 Q 408 500 400 501 L 379 509 L 369 509 L 342 500 L 307 491 L 252 478 Q 241 476 246 469 Q 251 462 263.5 457 Q 276 452 290 456 L 307 459 L 343 466 Z" fill="black"></path>
				<path d="M 339 381 L 398 393 Q 409 395 413 399.5 Q 417 404 416 407 Q 415 410 408.5 414.5 Q 402 419 388 420 Q 374 424 371 423.5 Q 368 423 342 414 L 309 407 L 250 394 Q 236 392 245 380 Q 255 369 279 371 L 310 376 L 339 381 Z" fill="black"></path>
				<path d="M 323 321 Q 337 336 339 365 L 339 381 L 342 414 L 343 466 L 342 500 L 342 522 Q 342 536 346 546 Q 350 556 350 564 Q 348 570 342 575 Q 337 579 325 583 L 305 588 L 294 585 L 299 568 L 305 520 L 307 491 L 307 459 L 307 458 L 309 407 L 310 376 L 310 361 L 313 337 Q 314 328 323 321 Z" fill="black"></path>
				<path d="M 273 293 Q 266 297 237 304 Q 227 307 224 303 Q 220 299 225 286 Q 244 246 254 179 Q 255 160 267 146 Q 280 128 285 140 Q 289 150 289 170 L 286 196 Q 279 251 279 271 C 279 291 279 291 273 293 Z" fill="black"></path>
				<path d="M 391 208 Q 404 257 421 272 Q 437 293 420 304 Q 404 311 383 326 Q 368 333 354 325 Q 338 313 317 306 Q 298 299 273 293 C 244 286 249 266 279 271 Q 303 275 343 285 Q 358 288 361 282 Q 362 281 351 213 C 346 183 383 179 391 208 Z" fill="red"></path>
				<path d="M 289 170 Q 296 169 306 171 Q 334 178 399 184 Q 408 185 408 192 Q 408 196 391 208 L 351 213 Q 347 213 346 212 Q 312 202 286 196 C 257 189 259 172 289 170 Z" fill="lightgray"></path>
				<path d="M 607 577 Q 631 598 697 663 Q 710 682 731 695 Q 749 708 736 723 Q 720 736 694 745 Q 669 752 658 748 Q 646 744 653 733 Q 659 711 596 586 Q 595 586 595 585 C 580 559 585 557 607 577 Z" fill="lightgray"></path>
				<path d="M 600 322 L 600 377 L 600 406 Q 600 449 601 465 L 604 491 Q 607 522 615 544 C 622 566 622 566 609 575 L 607 577 L 595 585 Q 585 594 570 599 Q 551 605 543 596 Q 537 592 545 580 Q 561 546 560 477 Q 559 422 558 352 Q 558 285 544 229 Q 540 210 554 195 C 571 170 602 230 601 260 Q 600 279 600 297 L 600 322 Z" fill="lightgray"></path>
				<path d="M 744 401 Q 757 385 769 378 Q 779 371 792 390 Q 802 409 826 508 Q 833 536 853 558 Q 863 568 854 581 Q 841 596 802 617 Q 780 626 609 575 C 580 566 587 534 615 544 Q 748 592 771 575 Q 781 568 779 553 Q 763 448 749 433 C 736 410 736 410 744 401 Z" fill="lightgray"></path>
				<path d="M 601 465 Q 665 477 713 484 Q 732 487 725 498 Q 716 510 695 513 Q 659 516 604 491 C 577 479 572 459 601 465 Z" fill="lightgray"></path>
				<path d="M 600 377 Q 607 386 744 401 C 774 404 776 420 749 433 Q 739 440 714 433 Q 650 417 600 406 C 571 400 574 362 600 377 Z" fill="lightgray"></path>
				<path d="M 600 297 Q 607 296 619 297 Q 716 310 786 318 Q 808 321 801 333 Q 791 346 767 352 Q 754 355 600 322 C 571 316 570 299 600 297 Z" fill="lightgray"></path>
				<path d="M 554 195 Q 572 180 595 195 Q 631 219 749 237 Q 867 256 885 235 Q 897 225 882 184 Q 876 127 867 67 Q 860 21 840 -9 Q 831 -19 811 -15 Q 783 -6 758 1 Q 743 5 743 -1 Q 742 -7 750 -15 Q 796 -67 811 -101 Q 820 -122 838 -112 Q 902 -82 911 -18 Q 927 66 938 158 Q 945 194 963 224 Q 975 240 964 252 Q 948 271 911 291 Q 892 303 864 291 Q 824 275 785 270 Q 733 263 623 243 Q 601 240 601 260 C 582 283 525 203 554 195 Z" fill="lightgray"></path>
				<path d="M 538 130 Q 522 79 495 33 Q 482 2 497 -25 Q 504 -41 523 -28 Q 541 -13 551 16 Q 564 50 564 81 Q 567 111 559 132 Q 555 139 549 139 Q 542 138 538 130 Z" fill="lightgray"></path>
				<path d="M 597 120 Q 618 36 636 25 Q 646 19 657 30 Q 664 39 664 58 Q 661 98 610 138 Q 604 142 599 135 Q 595 129 597 120 Z" fill="lightgray"></path>
				<path d="M 665 132 Q 701 60 720 53 Q 730 49 739 63 Q 743 73 740 91 Q 736 109 716 122 Q 688 146 675 153 Q 668 156 664 147 Q 661 140 665 132 Z" fill="lightgray"></path>
				<path d="M 757 139 Q 799 73 808 71 Q 815 70 822 77 Q 828 87 828 109 Q 828 125 808 143 Q 759 182 748 178 Q 744 177 742 167 Q 743 158 757 139 Z" fill="lightgray"></path>
</g>
		<text x="40" y="140" font-size="128" fill="#999999">7</text></g>
		<g id="id1:id2:id2" transform="matrix(1.0,0,0,1.0,2048,0.0)">			<g stroke="lightgray" stroke-width="4" transform="scale(4, 4)"> <rect x="0" y="0" width="256" height="256" fill="white" stroke-width="4"/></g>
			<g transform="scale(0.92, -0.92) translate(60, -920)">					<path d="M 207 622 Q 194 631 173 638 Q 154 645 143 640 Q 133 633 140 620 Q 192 568 159 293 Q 155 265 148 236 Q 124 140 63 17 Q 59 10 58 5 Q 57 -5 67 -2 Q 79 1 111 49 Q 217 200 218 514 Q 218 566 220 586 C 222 614 222 614 207 622 Z" fill="black"></path>
				<path d="M 220 586 Q 409 634 421 629 Q 422 628 427 624 Q 439 617 442 563 Q 454 379 442 171 Q 441 140 430 132 Q 417 123 356 137 Q 340 140 342 131 Q 343 124 354 119 Q 409 79 438 47 Q 457 29 469 32 Q 479 35 490 60 Q 505 100 504 161 Q 485 569 503 605 Q 513 624 504 634 Q 495 647 453 669 Q 431 678 376 659 Q 282 637 207 622 C 178 616 191 579 220 586 Z" fill="black"></path>
				<path d="M 343 466 L 344 466 L 390 477 Q 401 478 402.5 479 Q 404 480 408 484 Q 412 488 412 490 L 411 495 Q 408 500 400 501 L 379 509 L 369 509 L 342 500 L 307 491 L 252 478 Q 241 476 246 469 Q 251 462 263.5 457 Q 276 452 290 456 L 307 459 L 343 466 Z" fill="black"></path>
				<path d="M 339 381 L 398 393 Q 409 395 413 399.5 Q 417 404 416 407 Q 415 410 408.5 414.5 Q 402 419 388 420 Q 374 424 371 423.5 Q 368 423 342 414 L 309 407 L 250 394 Q 236 392 245 380 Q 255 369 279 371 L 310 376 L 339 381 Z" fill="black"></path>
				<path d="M 323 321 Q 337 336 339 365 L 339 381 L 342 414 L 343 466 L 342 500 L 342 522 Q 342 536 346 546 Q 350 556 350 564 Q 348 570 342 575 Q 337 579 325 583 L 305 588 L 294 585 L 299 568 L 305 520 L 307 491 L 307 459 L 307 458 L 309 407 L 310 376 L 310 361 L 313 337 Q 314 328 323 321 Z" fill="black"></path>
				<path d="M 273 293 Q 266 297 237 304 Q 227 307 224 303 Q 220 299 225 286 Q 244 246 254 179 Q 255 160 267 146 Q 280 128 285 140 Q 289 150 289 170 L 286 196 Q 279 251 279 271 C 279 291 279 291 273 293 Z" fill="black"></path>
				<path d="M 391 208 Q 404 257 421 272 Q 437 293 420 304 Q 404 311 383 326 Q 368 333 354 325 Q 338 313 317 306 Q 298 299 273 293 C 244 286 249 266 279 271 Q 303 275 343 285 Q 358 288 361 282 Q 362 281 351 213 C 346 183 383 179 391 208 Z" fill="black"></path>
				<path d="M 289 170 Q 296 169 306 171 Q 334 178 399 184 Q 408 185 408 192 Q 408 196 391 208 L 351 213 Q 347 213 346 212 Q 312 202 286 196 C 257 189 259 172 289 170 Z" fill="red"></path>
				<path d="M 607 577 Q 631 598 697 663 Q 710 682 731 695 Q 749 708 736 723 Q 720 736 694 745 Q 669 752 658 748 Q 646 744 653 733 Q 659 711 596 586 Q 595 586 595 585 C 580 559 585 557 607 577 Z" fill="lightgray"></path>
				<path d="M 600 322 L 600 377 L 600 406 Q 600 449 601 465 L 604 491 Q 607 522 615 544 C 622 566 622 566 609 575 L 607 577 L 595 585 Q 585 594 570 599 Q 551 605 543 596 Q 537 592 545 580 Q 561 546 560 477 Q 559 422 558 352 Q 558 285 544 229 Q 540 210 554 195 C 571 170 602 230 601 260 Q 600 279 600 297 L 600 322 Z" fill="lightgray"></path>
				<path d="M 744 401 Q 757 385 769 378 Q 779 371 792 390 Q 802 409 826 508 Q 833 536 853 558 Q 863 568 854 581 Q 841 596 802 617 Q 780 626 609 575 C 580 566 587 534 615 544 Q 748 592 771 575 Q 781 568 779 553 Q 763 448 749 433 C 736 410 736 410 744 401 Z" fill="lightgray"></path>
				<path d="M 601 465 Q 665 477 713 484 Q 732 487 725 498 Q 716 510 695 513 Q 659 516 604 491 C 577 479 572 459 601 465 Z" fill="lightgray"></path>
				<path d="M 600 377 Q 607 386 744 401 C 774 404 776 420 749 433 Q 739 440 714 433 Q 650 417 600 406 C 571 400 574 362 600 377 Z" fill="lightgray"></path>
				<path d="M 600 297 Q 607 296 619 297 Q 716 310 786 318 Q 808 321 801 333 Q 791 346 767 352 Q 754 355 600 322 C 571 316 570 299 600 297 Z" fill="lightgray"></path>
				<path d="M 554 195 Q 572 180 595 195 Q 631 219 749 237 Q 867 256 885 235 Q 897 225 882 184 Q 876 127 867 67 Q 860 21 840 -9 Q 831 -19 811 -15 Q 783 -6 758 1 Q 743 5 743 -1 Q 742 -7 750 -15 Q 796 -67 811 -101 Q 820 -122 838 -112 Q 902 -82 911 -18 Q 927 66 938 158 Q 945 194 963 224 Q 975 240 964 252 Q 948 271 911 291 Q 892 303 864 291 Q 824 275 785 270 Q 733 263 623 243 Q 601 240 601 260 C 582 283 525 203 554 195 Z" fill="lightgray"></path>
				<path d="M 538 130 Q 522 79 495 33 Q 482 2 497 -25 Q 504 -41 523 -28 Q 541 -13 551 16 Q 564 50 564 81 Q 567 111 559 132 Q 555 139 549 139 Q 542 138 538 130 Z" fill="lightgray"></path>
				<path d="M 597 120 Q 618 36 636 25 Q 646 19 657 30 Q 664 39 664 58 Q 661 98 610 138 Q 604 142 599 135 Q 595 129 597 120 Z" fill="lightgray"></path>
				<path d="M 665 132 Q 701 60 720 53 Q 730 49 739 63 Q 743 73 740 91 Q 736 109 716 122 Q 688 146 675 153 Q 668 156 664 147 Q 661 140 665 132 Z" fill="lightgray"></path>
				<path d="M 757 139 Q 799 73 808 71 Q 815 70 822 77 Q 828 87 828 109 Q 828 125 808 143 Q 759 182 748 178 Q 744 177 742 167 Q 743 158 757 139 Z" fill="lightgray"></path>
</g>
		<text x="40" y="140" font-size="128" fill="#999999">8</text></g>
		<g id="id1:id3:id3" transform="matrix(1.0,0,0,1.0,3072,0.0)">			<g stroke="lightgray" stroke-width="4" transform="scale(4, 4)"> <rect x="0" y="0" width="256" height="256" fill="white" stroke-width="4"/></g>
			<g transform="scale(0.92, -0.92) translate(60, -920)">					<path d="M 207 622 Q 194 631 173 638 Q 154 645 143 640 Q 133 633 140 620 Q 192 568 159 293 Q 155 265 148 236 Q 124 140 63 17 Q 59 10 58 5 Q 57 -5 67 -2 Q 79 1 111 49 Q 217 200 218 514 Q 218 566 220 586 C 222 614 222 614 207 622 Z" fill="black"></path>
				<path d="M 220 586 Q 409 634 421 629 Q 422 628 427 624 Q 439 617 442 563 Q 454 379 442 171 Q 441 140 430 132 Q 417 123 356 137 Q 340 140 342 131 Q 343 124 354 119 Q 409 79 438 47 Q 457 29 469 32 Q 479 35 490 60 Q 505 100 504 161 Q 485 569 503 605 Q 513 624 504 634 Q 495 647 453 669 Q 431 678 376 659 Q 282 637 207 622 C 178 616 191 579 220 586 Z" fill="black"></path>
				<path d="M 343 466 L 344 466 L 390 477 Q 401 478 402.5 479 Q 404 480 408 484 Q 412 488 412 490 L 411 495 Q 408 500 400 501 L 379 509 L 369 509 L 342 500 L 307 491 L 252 478 Q 241 476 246 469 Q 251 462 263.5 457 Q 276 452 290 456 L 307 459 L 343 466 Z" fill="black"></path>
				<path d="M 339 381 L 398 393 Q 409 395 413 399.5 Q 417 404 416 407 Q 415 410 408.5 414.5 Q 402 419 388 420 Q 374 424 371 423.5 Q 368 423 342 414 L 309 407 L 250 394 Q 236 392 245 380 Q 255 369 279 371 L 310 376 L 339 381 Z" fill="black"></path>
				<path d="M 323 321 Q 337 336 339 365 L 339 381 L 342 414 L 343 466 L 342 500 L 342 522 Q 342 536 346 546 Q 350 556 350 564 Q 348 570 342 575 Q 337 579 325 583 L 305 588 L 294 585 L 299 568 L 305 520 L 307 491 L 307 459 L 307 458 L 309 407 L 310 376 L 310 361 L 313 337 Q 314 328 323 321 Z" fill="black"></path>
				<path d="M 273 293 Q 266 297 237 304 Q 227 307 224 303 Q 220 299 225 286 Q 244 246 254 179 Q 255 160 267 146 Q 280 128 285 140 Q 289 150 289 170 L 286 196 Q 279 251 279 271 C 279 291 279 291 273 293 Z" fill="black"></path>
				<path d="M 391 208 Q 404 257 421 272 Q 437 293 420 304 Q 404 311 383 326 Q 368 333 354 325 Q 338 313 317 306 Q 298 299 273 293 C 244 286 249 266 279 271 Q 303 275 343 285 Q 358 288 361 282 Q 362 281 351 213 C 346 183 383 179 391 208 Z" fill="black"></path>
				<path d="M 289 170 Q 296 169 306 171 Q 334 178 399 184 Q 408 185 408 192 Q 408 196 391 208 L 351 213 Q 347 213 346 212 Q 312 202 286 196 C 257 189 259 172 289 170 Z" fill="black"></path>
				<path d="M 607 577 Q 631 598 697 663 Q 710 682 731 695 Q 749 708 736 723 Q 720 736 694 745 Q 669 752 658 748 Q 646 744 653 733 Q 659 711 596 586 Q 595 586 595 585 C 580 559 585 557 607 577 Z" fill="red"></path>
				<path d="M 600 322 L 600 377 L 600 406 Q 600 449 601 465 L 604 491 Q 607 522 615 544 C 622 566 622 566 609 575 L 607 577 L 595 585 Q 585 594 570 599 Q 551 605 543 596 Q 537 592 545 580 Q 561 546 560 477 Q 559 422 558 352 Q 558 285 544 229 Q 540 210 554 195 C 571 170 602 230 601 260 Q 600 279 600 297 L 600 322 Z" fill="lightgray"></path>
				<path d="M 744 401 Q 757 385 769 378 Q 779 371 792 390 Q 802 409 826 508 Q 833 536 853 558 Q 863 568 854 581 Q 841 596 802 617 Q 780 626 609 575 C 580 566 587 534 615 544 Q 748 592 771 575 Q 781 568 779 553 Q 763 448 749 433 C 736 410 736 410 744 401 Z" fill="lightgray"></path>
				<path d="M 601 465 Q 665 477 713 484 Q 732 487 725 498 Q 716 510 695 513 Q 659 516 604 491 C 577 479 572 459 601 465 Z" fill="lightgray"></path>
				<path d="M 600 377 Q 607 386 744 401 C 774 404 776 420 749 433 Q 739 440 714 433 Q 650 417 600 406 C 571 400 574 362 600 377 Z" fill="lightgray"></path>
				<path d="M 600 297 Q 607 296 619 297 Q 716 310 786 318 Q 808 321 801 333 Q 791 346 767 352 Q 754 355 600 322 C 571 316 570 299 600 297 Z" fill="lightgray"></path>
				<path d="M 554 195 Q 572 180 595 195 Q 631 219 749 237 Q 867 256 885 235 Q 897 225 882 184 Q 876 127 867 67 Q 860 21 840 -9 Q 831 -19 811 -15 Q 783 -6 758 1 Q 743 5 743 -1 Q 742 -7 750 -15 Q 796 -67 811 -101 Q 820 -122 838 -112 Q 902 -82 911 -18 Q 927 66 938 158 Q 945 194 963 224 Q 975 240 964 252 Q 948 271 911 291 Q 892 303 864 291 Q 824 275 785 270 Q 733 263 623 243 Q 601 240 601 260 C 582 283 525 203 554 195 Z" fill="lightgray"></path>
				<path d="M 538 130 Q 522 79 495 33 Q 482 2 497 -25 Q 504 -41 523 -28 Q 541 -13 551 16 Q 564 50 564 81 Q 567 111 559 132 Q 555 139 549 139 Q 542 138 538 130 Z" fill="lightgray"></path>
				<path d="M 597 120 Q 618 36 636 25 Q 646 19 657 30 Q 664 39 664 58 Q 661 98 610 138 Q 604 142 599 135 Q 595 129 597 120 Z" fill="lightgray"></path>
				<path d="M 665 132 Q 701 60 720 53 Q 730 49 739 63 Q 743 73 740 91 Q 736 109 716 122 Q 688 146 675 153 Q 668 156 664 147 Q 661 140 665 132 Z" fill="lightgray"></path>
				<path d="M 757 139 Q 799 73 808 71 Q 815 70 822 77 Q 828 87 828 109 Q 828 125 808 143 Q 759 182 748 178 Q 744 177 742 167 Q 743 158 757 139 Z" fill="lightgray"></path>
</g>
		<text x="40" y="140" font-size="128" fill="#999999">9</text></g>
		<g id="id1:id4:id4" transform="matrix(1.0,0,0,1.0,4096,0.0)">			<g stroke="lightgray" stroke-width="4" transform="scale(4, 4)"> <rect x="0" y="0" width="256" height="256" fill="white" stroke-width="4"/></g>
			<g transform="scale(0.92, -0.92) translate(60, -920)">					<path d="M 207 622 Q 194 631 173 638 Q 154 645 143 640 Q 133 633 140 620 Q 192 568 159 293 Q 155 265 148 236 Q 124 140 63 17 Q 59 10 58 5 Q 57 -5 67 -2 Q 79 1 111 49 Q 217 200 218 514 Q 218 566 220 586 C 222 614 222 614 207 622 Z" fill="black"></path>
				<path d="M 220 586 Q 409 634 421 629 Q 422 628 427 624 Q 439 617 442 563 Q 454 379 442 171 Q 441 140 430 132 Q 417 123 356 137 Q 340 140 342 131 Q 343 124 354 119 Q 409 79 438 47 Q 457 29 469 32 Q 479 35 490 60 Q 505 100 504 161 Q 485 569 503 605 Q 513 624 504 634 Q 495 647 453 669 Q 431 678 376 659 Q 282 637 207 622 C 178 616 191 579 220 586 Z" fill="black"></path>
				<path d="M 343 466 L 344 466 L 390 477 Q 401 478 402.5 479 Q 404 480 408 484 Q 412 488 412 490 L 411 495 Q 408 500 400 501 L 379 509 L 369 509 L 342 500 L 307 491 L 252 478 Q 241 476 246 469 Q 251 462 263.5 457 Q 276 452 290 456 L 307 459 L 343 466 Z" fill="black"></path>
				<path d="M 339 381 L 398 393 Q 409 395 413 399.5 Q 417 404 416 407 Q 415 410 408.5 414.5 Q 402 419 388 420 Q 374 424 371 423.5 Q 368 423 342 414 L 309 407 L 250 394 Q 236 392 245 380 Q 255 369 279 371 L 310 376 L 339 381 Z" fill="black"></path>
				<path d="M 323 321 Q 337 336 339 365 L 339 381 L 342 414 L 343 466 L 342 500 L 342 522 Q 342 536 346 546 Q 350 556 350 564 Q 348 570 342 575 Q 337 579 325 583 L 305 588 L 294 585 L 299 568 L 305 520 L 307 491 L 307 459 L 307 458 L 309 407 L 310 376 L 310 361 L 313 337 Q 314 328 323 321 Z" fill="black"></path>
				<path d="M 273 293 Q 266 297 237 304 Q 227 307 224 303 Q 220 299 225 286 Q 244 246 254 179 Q 255 160 267 146 Q 280 128 285 140 Q 289 150 289 170 L 286 196 Q 279 251 279 271 C 279 291 279 291 273 293 Z" fill="black"></path>
				<path d="M 391 208 Q 404 257 421 272 Q 437 293 420 304 Q 404 311 383 326 Q 368 333 354 325 Q 338 313 317 306 Q 298 299 273 293 C 244 286 249 266 279 271 Q 303 275 343 285 Q 358 288 361 282 Q 362 281 351 213 C 346 183 383 179 391 208 Z" fill="black"></path>
				<path d="M 289 170 Q 296 169 306 171 Q 334 178 399 184 Q 408 185 408 192 Q 408 196 391 208 L 351 213 Q 347 213 346 212 Q 312 202 286 196 C 257 189 259 172 289 170 Z" fill="black"></path>
				<path d="M 607 577 Q 631 598 697 663 Q 710 682 731 695 Q 749 708 736 723 Q 720 736 694 745 Q 669 752 658 748 Q 646 744 653 733 Q 659 711 596 586 Q 595 586 595 585 C 580 559 585 557 607 577 Z" fill="black"></path>
				<path d="M 600 322 L 600 377 L 600 406 Q 600 449 601 465 L 604 491 Q 607 522 615 544 C 622 566 622 566 609 575 L 607 577 L 595 585 Q 585 594 570 599 Q 551 605 543 596 Q 537 592 545 580 Q 561 546 560 477 Q 559 422 558 352 Q 558 285 544 229 Q 540 210 554 195 C 571 170 602 230 601 260 Q 600 279 600 297 L 600 322 Z" fill="red"></path>
				<path d="M 744 401 Q 757 385 769 378 Q 779 371 792 390 Q 802 409 826 508 Q 833 536 853 558 Q 863 568 854 581 Q 841 596 802 617 Q 780 626 609 575 C 580 566 587 534 615 544 Q 748 592 771 575 Q 781 568 779 553 Q 763 448 749 433 C 736 410 736 410 744 401 Z" fill="lightgray"></path>
				<path d="M 601 465 Q 665 477 713 484 Q 732 487 725 498 Q 716 510 695 513 Q 659 516 604 491 C 577 479 572 459 601 465 Z" fill="lightgray"></path>
				<path d="M 600 377 Q 607 386 744 401 C 774 404 776 420 749 433 Q 739 440 714 433 Q 650 417 600 406 C 571 400 574 362 600 377 Z" fill="lightgray"></path>
				<path d="M 600 297 Q 607 296 619 297 Q 716 310 786 318 Q 808 321 801 333 Q 791 346 767 352 Q 754 355 600 322 C 571 316 570 299 600 297 Z" fill="lightgray"></path>
				<path d="M 554 195 Q 572 180 595 195 Q 631 219 749 237 Q 867 256 885 235 Q 897 225 882 184 Q 876 127 867 67 Q 860 21 840 -9 Q 831 -19 811 -15 Q 783 -6 758 1 Q 743 5 743 -1 Q 742 -7 750 -15 Q 796 -67 811 -101 Q 820 -122 838 -112 Q 902 -82 911 -18 Q 927 66 938 158 Q 945 194 963 224 Q 975 240 964 252 Q 948 271 911 291 Q 892 303 864 291 Q 824 275 785 270 Q 733 263 623 243 Q 601 240 601 260 C 582 283 525 203 554 195 Z" fill="lightgray"></path>
				<path d="M 538 130 Q 522 79 495 33 Q 482 2 497 -25 Q 504 -41 523 -28 Q 541 -13 551 16 Q 564 50 564 81 Q 567 111 559 132 Q 555 139 549 139 Q 542 138 538 130 Z" fill="lightgray"></path>
				<path d="M 597 120 Q 618 36 636 25 Q 646 19 657 30 Q 664 39 664 58 Q 661 98 610 138 Q 604 142 599 135 Q 595 129 597 120 Z" fill="lightgray"></path>
				<path d="M 665 132 Q 701 60 720 53 Q 730 49 739 63 Q 743 73 740 91 Q 736 109 716 122 Q 688 146 675 153 Q 668 156 664 147 Q 661 140 665 132 Z" fill="lightgray"></path>
				<path d="M 757 139 Q 799 73 808 71 Q 815 70 822 77 Q 828 87 828 109 Q 828 125 808 143 Q 759 182 748 178 Q 744 177 742 167 Q 743 158 757 139 Z" fill="lightgray"></path>
</g>
		<text x="40" y="140" font-size="128" fill="#999999">10</text></g>
</g>
	<g id="id2:id2" transform="translate(0.0,2048)">
		<g id="id2:id0:id0" transform="matrix(1.0,0,0,1.0,0,0.0)">			<g stroke="lightgray" stroke-width="4" transform="scale(4, 4)"> <rect x="0" y="0" width="256" height="256" fill="white" stroke-width="4"/></g>
			<g transform="scale(0.92, -0.92) translate(60, -920)">					<path d="M 207 622 Q 194 631 173 638 Q 154 645 143 640 Q 133 633 140 620 Q 192 568 159 293 Q 155 265 148 236 Q 124 140 63 17 Q 59 10 58 5 Q 57 -5 67 -2 Q 79 1 111 49 Q 217 200 218 514 Q 218 566 220 586 C 222 614 222 614 207 622 Z" fill="black"></path>
				<path d="M 220 586 Q 409 634 421 629 Q 422 628 427 624 Q 439 617 442 563 Q 454 379 442 171 Q 441 140 430 132 Q 417 123 356 137 Q 340 140 342 131 Q 343 124 354 119 Q 409 79 438 47 Q 457 29 469 32 Q 479 35 490 60 Q 505 100 504 161 Q 485 569 503 605 Q 513 624 504 634 Q 495 647 453 669 Q 431 678 376 659 Q 282 637 207 622 C 178 616 191 579 220 586 Z" fill="black"></path>
				<path d="M 343 466 L 344 466 L 390 477 Q 401 478 402.5 479 Q 404 480 408 484 Q 412 488 412 490 L 411 495 Q 408 500 400 501 L 379 509 L 369 509 L 342 500 L 307 491 L 252 478 Q 241 476 246 469 Q 251 462 263.5 457 Q 276 452 290 456 L 307 459 L 343 466 Z" fill="black"></path>
				<path d="M 339 381 L 398 393 Q 409 395 413 399.5 Q 417 404 416 407 Q 415 410 408.5 414.5 Q 402 419 388 420 Q 374 424 371 423.5 Q 368 423 342 414 L 309 407 L 250 394 Q 236 392 245 380 Q 255 369 279 371 L 310 376 L 339 381 Z" fill="black"></path>
				<path d="M 323 321 Q 337 336 339 365 L 339 381 L 342 414 L 343 466 L 342 500 L 342 522 Q 342 536 346 546 Q 350 556 350 564 Q 348 570 342 575 Q 337 579 325 583 L 305 588 L 294 585 L 299 568 L 305 520 L 307 491 L 307 459 L 307 458 L 309 407 L 310 376 L 310 361 L 313 337 Q 314 328 323 321 Z" fill="black"></path>
				<path d="M 273 293 Q 266 297 237 304 Q 227 307 224 303 Q 220 299 225 286 Q 244 246 254 179 Q 255 160 267 146 Q 280 128 285 140 Q 289 150 289 170 L 286 196 Q 279 251 279 271 C 279 291 279 291 273 293 Z" fill="black"></path>
				<path d="M 391 208 Q 404 257 421 272 Q 437 293 420 304 Q 404 311 383 326 Q 368 333 354 325 Q 338 313 317 306 Q 298 299 273 293 C 244 286 249 266 279 271 Q 303 275 343 285 Q 358 288 361 282 Q 362 281 351 213 C 346 183 383 179 391 208 Z" fill="black"></path>
				<path d="M 289 170 Q 296 169 306 171 Q 334 178 399 184 Q 408 185 408 192 Q 408 196 391 208 L 351 213 Q 347 213 346 212 Q 312 202 286 196 C 257 189 259 172 289 170 Z" fill="black"></path>
				<path d="M 607 577 Q 631 598 697 663 Q 710 682 731 695 Q 749 708 736 723 Q 720 736 694 745 Q 669 752 658 748 Q 646 744 653 733 Q 659 711 596 586 Q 595 586 595 585 C 580 559 585 557 607 577 Z" fill="black"></path>
				<path d="M 600 322 L 600 377 L 600 406 Q 600 449 601 465 L 604 491 Q 607 522 615 544 C 622 566 622 566 609 575 L 607 577 L 595 585 Q 585 594 570 599 Q 551 605 543 596 Q 537 592 545 580 Q 561 546 560 477 Q 559 422 558 352 Q 558 285 544 229 Q 540 210 554 195 C 571 170 602 230 601 260 Q 600 279 600 297 L 600 322 Z" fill="black"></path>
				<path d="M 744 401 Q 757 385 769 378 Q 779 371 792 390 Q 802 409 826 508 Q 833 536 853 558 Q 863 568 854 581 Q 841 596 802 617 Q 780 626 609 575 C 580 566 587 534 615 544 Q 748 592 771 575 Q 781 568 779 553 Q 763 448 749 433 C 736 410 736 410 744 401 Z" fill="red"></path>
				<path d="M 601 465 Q 665 477 713 484 Q 732 487 725 498 Q 716 510 695 513 Q 659 516 604 491 C 577 479 572 459 601 465 Z" fill="lightgray"></path>
				<path d="M 600 377 Q 607 386 744 401 C 774 404 776 420 749 433 Q 739 440 714 433 Q 650 417 600 406 C 571 400 574 362 600 377 Z" fill="lightgray"></path>
				<path d="M 600 297 Q 607 296 619 297 Q 716 310 786 318 Q 808 321 801 333 Q 791 346 767 352 Q 754 355 600 322 C 571 316 570 299 600 297 Z" fill="lightgray"></path>
				<path d="M 554 195 Q 572 180 595 195 Q 631 219 749 237 Q 867 256 885 235 Q 897 225 882 184 Q 876 127 867 67 Q 860 21 840 -9 Q 831 -19 811 -15 Q 783 -6 758 1 Q 743 5 743 -1 Q 742 -7 750 -15 Q 796 -67 811 -101 Q 820 -122 838 -112 Q 902 -82 911 -18 Q 927 66 938 158 Q 945 194 963 224 Q 975 240 964 252 Q 948 271 911 291 Q 892 303 864 291 Q 824 275 785 270 Q 733 263 623 243 Q 601 240 601 260 C 582 283 525 203 554 195 Z" fill="lightgray"></path>
				<path d="M 538 130 Q 522 79 495 33 Q 482 2 497 -25 Q 504 -41 523 -28 Q 541 -13 551 16 Q 564 50 564 81 Q 567 111 559 132 Q 555 139 549 139 Q 542 138 538 130 Z" fill="lightgray"></path>
				<path d="M 597 120 Q 618 36 636 25 Q 646 19 657 30 Q 664 39 664 58 Q 661 98 610 138 Q 604 142 599 135 Q 595 129 597 120 Z" fill="lightgray"></path>
				<path d="M 665 132 Q 701 60 720 53 Q 730 49 739 63 Q 743 73 740 91 Q 736 109 716 122 Q 688 146 675 153 Q 668 156 664 147 Q 661 140 665 132 Z" fill="lightgray"></path>
				<path d="M 757 139 Q 799 73 808 71 Q 815 70 822 77 Q 828 87 828 109 Q 828 125 808 143 Q 759 182 748 178 Q 744 177 742 167 Q 743 158 757 139 Z" fill="lightgray"></path>
</g>
		<text x="40" y="140" font-size="128" fill="#999999">11</text></g>
		<g id="id2:id1:id1" transform="matrix(1.0,0,0,1.0,1024,0.0)">			<g stroke="lightgray" stroke-width="4" transform="scale(4, 4)"> <rect x="0" y="0" width="256" height="256" fill="white" stroke-width="4"/></g>
			<g transform="scale(0.92, -0.92) translate(60, -920)">					<path d="M 207 622 Q 194 631 173 638 Q 154 645 143 640 Q 133 633 140 620 Q 192 568 159 293 Q 155 265 148 236 Q 124 140 63 17 Q 59 10 58 5 Q 57 -5 67 -2 Q 79 1 111 49 Q 217 200 218 514 Q 218 566 220 586 C 222 614 222 614 207 622 Z" fill="black"></path>
				<path d="M 220 586 Q 409 634 421 629 Q 422 628 427 624 Q 439 617 442 563 Q 454 379 442 171 Q 441 140 430 132 Q 417 123 356 137 Q 340 140 342 131 Q 343 124 354 119 Q 409 79 438 47 Q 457 29 469 32 Q 479 35 490 60 Q 505 100 504 161 Q 485 569 503 605 Q 513 624 504 634 Q 495 647 453 669 Q 431 678 376 659 Q 282 637 207 622 C 178 616 191 579 220 586 Z" fill="black"></path>
				<path d="M 343 466 L 344 466 L 390 477 Q 401 478 402.5 479 Q 404 480 408 484 Q 412 488 412 490 L 411 495 Q 408 500 400 501 L 379 509 L 369 509 L 342 500 L 307 491 L 252 478 Q 241 476 246 469 Q 251 462 263.5 457 Q 276 452 290 456 L 307 459 L 343 466 Z" fill="black"></path>
				<path d="M 339 381 L 398 393 Q 409 395 413 399.5 Q 417 404 416 407 Q 415 410 408.5 414.5 Q 402 419 388 420 Q 374 424 371 423.5 Q 368 423 342 414 L 309 407 L 250 394 Q 236 392 245 380 Q 255 369 279 371 L 310 376 L 339 381 Z" fill="black"></path>
				<path d="M 323 321 Q 337 336 339 365 L 339 381 L 342 414 L 343 466 L 342 500 L 342 522 Q 342 536 346 546 Q 350 556 350 564 Q 348 570 342 575 Q 337 579 325 583 L 305 588 L 294 585 L 299 568 L 305 520 L 307 491 L 307 459 L 307 458 L 309 407 L 310 376 L 310 361 L 313 337 Q 314 328 323 321 Z" fill="black"></path>
				<path d="M 273 293 Q 266 297 237 304 Q 227 307 224 303 Q 220 299 225 286 Q 244 246 254 179 Q 255 160 267 146 Q 280 128 285 140 Q 289 150 289 170 L 286 196 Q 279 251 279 271 C 279 291 279 291 273 293 Z" fill="black"></path>
				<path d="M 391 208 Q 404 257 421 272 Q 437 293 420 304 Q 404 311 383 326 Q 368 333 354 325 Q 338 313 317 306 Q 298 299 273 293 C 244 286 249 266 279 271 Q 303 275 343 285 Q 358 288 361 282 Q 362 281 351 213 C 346 183 383 179 391 208 Z" fill="black"></path>
				<path d="M 289 170 Q 296 169 306 171 Q 334 178 399 184 Q 408 185 408 192 Q 408 196 391 208 L 351 213 Q 347 213 346 212 Q 312 202 286 196 C 257 189 259 172 289 170 Z" fill="black"></path>
				<path d="M 607 577 Q 631 598 697 663 Q 710 682 731 695 Q 749 708 736 723 Q 720 736 694 745 Q 669 752 658 748 Q 646 744 653 733 Q 659 711 596 586 Q 595 586 595 585 C 580 559 585 557 607 577 Z" fill="black"></path>
				<path d="M 600 322 L 600 377 L 600 406 Q 600 449 601 465 L 604 491 Q 607 522 615 544 C 622 566 622 566 609 575 L 607 577 L 595 585 Q 585 594 570 599 Q 551 605 543 596 Q 537 592 545 580 Q 561 546 560 477 Q 559 422 558 352 Q 558 285 544 229 Q 540 210 554 195 C 571 170 602 230 601 260 Q 600 279 600 297 L 600 322 Z" fill="black"></path>
				<path d="M 744 401 Q 757 385 769 378 Q 779 371 792 390 Q 802 409 826 508 Q 833 536 853 558 Q 863 568 854 581 Q 841 596 802 617 Q 780 626 609 575 C 580 566 587 534 615 544 Q 748 592 771 575 Q 781 568 779 553 Q 763 448 749 433 C 736 410 736 410 744 401 Z" fill="black"></path>
				<path d="M 601 465 Q 665 477 713 484 Q 732 487 725 498 Q 716 510 695 513 Q 659 516 604 491 C 577 479 572 459 601 465 Z" fill="red"></path>
				<path d="M 600 377 Q 607 386 744 401 C 774 404 776 420 749 433 Q 739 440 714 433 Q 650 417 600 406 C 571 400 574 362 600 377 Z" fill="lightgray"></path>
				<path d="M 600 297 Q 607 296 619 297 Q 716 310 786 318 Q 808 321 801 333 Q 791 346 767 352 Q 754 355 600 322 C 571 316 570 299 600 297 Z" fill="lightgray"></path>
				<path d="M 554 195 Q 572 180 595 195 Q 631 219 749 237 Q 867 256 885 235 Q 897 225 882 184 Q 876 127 867 67 Q 860 21 840 -9 Q 831 -19 811 -15 Q 783 -6 758 1 Q 743 5 743 -1 Q 742 -7 750 -15 Q 796 -67 811 -101 Q 820 -122 838 -112 Q 902 -82 911 -18 Q 927 66 938 158 Q 945 194 963 224 Q 975 240 964 252 Q 948 271 911 291 Q 892 303 864 291 Q 824 275 785 270 Q 733 263 623 243 Q 601 240 601 260 C 582 283 525 203 554 195 Z" fill="lightgray"></path>
				<path d="M 538 130 Q 522 79 495 33 Q 482 2 497 -25 Q 504 -41 523 -28 Q 541 -13 551 16 Q 564 50 564 81 Q 567 111 559 132 Q 555 139 549 139 Q 542 138 538 130 Z" fill="lightgray"></path>
				<path d="M 597 120 Q 618 36 636 25 Q 646 19 657 30 Q 664 39 664 58 Q 661 98 610 138 Q 604 142 599 135 Q 595 129 597 120 Z" fill="lightgray"></path>
				<path d="M 665 132 Q 701 60 720 53 Q 730 49 739 63 Q 743 73 740 91 Q 736 109 716 122 Q 688 146 675 153 Q 668 156 664 147 Q 661 140 665 132 Z" fill="lightgray"></path>
				<path d="M 757 139 Q 799 73 808 71 Q 815 70 822 77 Q 828 87 828 109 Q 828 125 808 143 Q 759 182 748 178 Q 744 177 742 167 Q 743 158 757 139 Z" fill="lightgray"></path>
</g>
		<text x="40" y="140" font-size="128" fill="#999999">12</text></g>
		<g id="id2:id2:id2" transform="matrix(1.0,0,0,1.0,2048,0.0)">			<g stroke="lightgray" stroke-width="4" transform="scale(4, 4)"> <rect x="0" y="0" width="256" height="256" fill="white" stroke-width="4"/></g>
			<g transform="scale(0.92, -0.92) translate(60, -920)">					<path d="M 207 622 Q 194 631 173 638 Q 154 645 143 640 Q 133 633 140 620 Q 192 568 159 293 Q 155 265 148 236 Q 124 140 63 17 Q 59 10 58 5 Q 57 -5 67 -2 Q 79 1 111 49 Q 217 200 218 514 Q 218 566 220 586 C 222 614 222 614 207 622 Z" fill="black"></path>
				<path d="M 220 586 Q 409 634 421 629 Q 422 628 427 624 Q 439 617 442 563 Q 454 379 442 171 Q 441 140 430 132 Q 417 123 356 137 Q 340 140 342 131 Q 343 124 354 119 Q 409 79 438 47 Q 457 29 469 32 Q 479 35 490 60 Q 505 100 504 161 Q 485 569 503 605 Q 513 624 504 634 Q 495 647 453 669 Q 431 678 376 659 Q 282 637 207 622 C 178 616 191 579 220 586 Z" fill="black"></path>
				<path d="M 343 466 L 344 466 L 390 477 Q 401 478 402.5 479 Q 404 480 408 484 Q 412 488 412 490 L 411 495 Q 408 500 400 501 L 379 509 L 369 509 L 342 500 L 307 491 L 252 478 Q 241 476 246 469 Q 251 462 263.5 457 Q 276 452 290 456 L 307 459 L 343 466 Z" fill="black"></path>
				<path d="M 339 381 L 398 393 Q 409 395 413 399.5 Q 417 404 416 407 Q 415 410 408.5 414.5 Q 402 419 388 420 Q 374 424 371 423.5 Q 368 423 342 414 L 309 407 L 250 394 Q 236 392 245 380 Q 255 369 279 371 L 310 376 L 339 381 Z" fill="black"></path>
				<path d="M 323 321 Q 337 336 339 365 L 339 381 L 342 414 L 343 466 L 342 500 L 342 522 Q 342 536 346 546 Q 350 556 350 564 Q 348 570 342 575 Q 337 579 325 583 L 305 588 L 294 585 L 299 568 L 305 520 L 307 491 L 307 459 L 307 458 L 309 407 L 310 376 L 310 361 L 313 337 Q 314 328 323 321 Z" fill="black"></path>
				<path d="M 273 293 Q 266 297 237 304 Q 227 307 224 303 Q 220 299 225 286 Q 244 246 254 179 Q 255 160 267 146 Q 280 128 285 140 Q 289 150 289 170 L 286 196 Q 279 251 279 271 C 279 291 279 291 273 293 Z" fill="black"></path>
				<path d="M 391 208 Q 404 257 421 272 Q 437 293 420 304 Q 404 311 383 326 Q 368 333 354 325 Q 338 313 317 306 Q 298 299 273 293 C 244 286 249 266 279 271 Q 303 275 343 285 Q 358 288 361 282 Q 362 281 351 213 C 346 183 383 179 391 208 Z" fill="black"></path>
				<path d="M 289 170 Q 296 169 306 171 Q 334 178 399 184 Q 408 185 408 192 Q 408 196 391 208 L 351 213 Q 347 213 346 212 Q 312 202 286 196 C 257 189 259 172 289 170 Z" fill="black"></path>
				<path d="M 607 577 Q 631 598 697 663 Q 710 682 731 695 Q 749 708 736 723 Q 720 736 694 745 Q 669 752 658 748 Q 646 744 653 733 Q 659 711 596 586 Q 595 586 595 585 C 580 559 585 557 607 577 Z" fill="black"></path>
				<path d="M 600 322 L 600 377 L 600 406 Q 600 449 601 465 L 604 491 Q 607 522 615 544 C 622 566 622 566 609 575 L 607 577 L 595 585 Q 585 594 570 599 Q 551 605 543 596 Q 537 592 545 580 Q 561 546 560 477 Q 559 422 558 352 Q 558 285 544 229 Q 540 210 554 195 C 571 170 602 230 601 260 Q 600 279 600 297 L 600 322 Z" fill="black"></path>
				<path d="M 744 401 Q 757 385 769 378 Q 779 371 792 390 Q 802 409 826 508 Q 833 536 853 558 Q 863 568 854 581 Q 841 596 802 617 Q 780 626 609 575 C 580 566 587 534 615 544 Q 748 592 771 575 Q 781 568 779 553 Q 763 448 749 433 C 736 410 736 410 744 401 Z" fill="black"></path>
				<path d="M 601 465 Q 665 477 713 484 Q 732 487 725 498 Q 716 510 695 513 Q 659 516 604 491 C 577 479 572 459 601 465 Z" fill="black"></path>
				<path d="M 600 377 Q 607 386 744 401 C 774 404 776 420 749 433 Q 739 440 714 433 Q 650 417 600 406 C 571 400 574 362 600 377 Z" fill="red"></path>
				<path d="M 600 297 Q 607 296 619 297 Q 716 310 786 318 Q 808 321 801 333 Q 791 346 767 352 Q 754 355 600 322 C 571 316 570 299 600 297 Z" fill="lightgray"></path>
				<path d="M 554 195 Q 572 180 595 195 Q 631 219 749 237 Q 867 256 885 235 Q 897 225 882 184 Q 876 127 867 67 Q 860 21 840 -9 Q 831 -19 811 -15 Q 783 -6 758 1 Q 743 5 743 -1 Q 742 -7 750 -15 Q 796 -67 811 -101 Q 820 -122 838 -112 Q 902 -82 911 -18 Q 927 66 938 158 Q 945 194 963 224 Q 975 240 964 252 Q 948 271 911 291 Q 892 303 864 291 Q 824 275 785 270 Q 733 263 623 243 Q 601 240 601 260 C 582 283 525 203 554 195 Z" fill="lightgray"></path>
				<path d="M 538 130 Q 522 79 495 33 Q 482 2 497 -25 Q 504 -41 523 -28 Q 541 -13 551 16 Q 564 50 564 81 Q 567 111 559 132 Q 555 139 549 139 Q 542 138 538 130 Z" fill="lightgray"></path>
				<path d="M 597 120 Q 618 36 636 25 Q 646 19 657 30 Q 664 39 664 58 Q 661 98 610 138 Q 604 142 599 135 Q 595 129 597 120 Z" fill="lightgray"></path>
				<path d="M 665 132 Q 701 60 720 53 Q 730 49 739 63 Q 743 73 740 91 Q 736 109 716 122 Q 688 146 675 153 Q 668 156 664 147 Q 661 140 665 132 Z" fill="lightgray"></path>
				<path d="M 757 139 Q 799 73 808 71 Q 815 70 822 77 Q 828 87 828 109 Q 828 125 808 143 Q 759 182 748 178 Q 744 177 742 167 Q 743 158 757 139 Z" fill="lightgray"></path>
</g>
		<text x="40" y="140" font-size="128" fill="#999999">13</text></g>
		<g id="id2:id3:id3" transform="matrix(1.0,0,0,1.0,3072,0.0)">			<g stroke="lightgray" stroke-width="4" transform="scale(4, 4)"> <rect x="0" y="0" width="256" height="256" fill="white" stroke-width="4"/></g>
			<g transform="scale(0.92, -0.92) translate(60, -920)">					<path d="M 207 622 Q 194 631 173 638 Q 154 645 143 640 Q 133 633 140 620 Q 192 568 159 293 Q 155 265 148 236 Q 124 140 63 17 Q 59 10 58 5 Q 57 -5 67 -2 Q 79 1 111 49 Q 217 200 218 514 Q 218 566 220 586 C 222 614 222 614 207 622 Z" fill="black"></path>
				<path d="M 220 586 Q 409 634 421 629 Q 422 628 427 624 Q 439 617 442 563 Q 454 379 442 171 Q 441 140 430 132 Q 417 123 356 137 Q 340 140 342 131 Q 343 124 354 119 Q 409 79 438 47 Q 457 29 469 32 Q 479 35 490 60 Q 505 100 504 161 Q 485 569 503 605 Q 513 624 504 634 Q 495 647 453 669 Q 431 678 376 659 Q 282 637 207 622 C 178 616 191 579 220 586 Z" fill="black"></path>
				<path d="M 343 466 L 344 466 L 390 477 Q 401 478 402.5 479 Q 404 480 408 484 Q 412 488 412 490 L 411 495 Q 408 500 400 501 L 379 509 L 369 509 L 342 500 L 307 491 L 252 478 Q 241 476 246 469 Q 251 462 263.5 457 Q 276 452 290 456 L 307 459 L 343 466 Z" fill="black"></path>
				<path d="M 339 381 L 398 393 Q 409 395 413 399.5 Q 417 404 416 407 Q 415 410 408.5 414.5 Q 402 419 388 420 Q 374 424 371 423.5 Q 368 423 342 414 L 309 407 L 250 394 Q 236 392 245 380 Q 255 369 279 371 L 310 376 L 339 381 Z" fill="black"></path>
				<path d="M 323 321 Q 337 336 339 365 L 339 381 L 342 414 L 343 466 L 342 500 L 342 522 Q 342 536 346 546 Q 350 556 350 564 Q 348 570 342 575 Q 337 579 325 583 L 305 588 L 294 585 L 299 568 L 305 520 L 307 491 L 307 459 L 307 458 L 309 407 L 310 376 L 310 361 L 313 337 Q 314 328 323 321 Z" fill="black"></path>
				<path d="M 273 293 Q 266 297 237 304 Q 227 307 224 303 Q 220 299 225 286 Q 244 246 254 179 Q 255 160 267 146 Q 280 128 285 140 Q 289 150 289 170 L 286 196 Q 279 251 279 271 C 279 291 279 291 273 293 Z" fill="black"></path>
				<path d="M 391 208 Q 404 257 421 272 Q 437 293 420 304 Q 404 311 383 326 Q 368 333 354 325 Q 338 313 317 306 Q 298 299 273 293 C 244 286 249 266 279 271 Q 303 275 343 285 Q 358 288 361 282 Q 362 281 351 213 C 346 183 383 179 391 208 Z" fill="black"></path>
				<path d="M 289 170 Q 296 169 306 171 Q 334 178 399 184 Q 408 185 408 192 Q 408 196 391 208 L 351 213 Q 347 213 346 212 Q 312 202 286 196 C 257 189 259 172 289 170 Z" fill="black"></path>
				<path d="M 607 577 Q 631 598 697 663 Q 710 682 731 695 Q 749 708 736 723 Q 720 736 694 745 Q 669 752 658 748 Q 646 744 653 733 Q 659 711 596 586 Q 595 586 595 585 C 580 559 585 557 607 577 Z" fill="black"></path>
				<path d="M 600 322 L 600 377 L 600 406 Q 600 449 601 465 L 604 491 Q 607 522 615 544 C 622 566 622 566 609 575 L 607 577 L 595 585 Q 585 594 570 599 Q 551 605 543 596 Q 537 592 545 580 Q 561 546 560 477 Q 559 422 558 352 Q 558 285 544 229 Q 540 210 554 195 C 571 170 602 230 601 260 Q 600 279 600 297 L 600 322 Z" fill="black"></path>
				<path d="M 744 401 Q 757 385 769 378 Q 779 371 792 390 Q 802 409 826 508 Q 833 536 853 558 Q 863 568 854 581 Q 841 596 802 617 Q 780 626 609 575 C 580 566 587 534 615 544 Q 748 592 771 575 Q 781 568 779 553 Q 763 448 749 433 C 736 410 736 410 744 401 Z" fill="black"></path>
				<path d="M 601 465 Q 665 477 713 484 Q 732 487 725 498 Q 716 510 695 513 Q 659 516 604 491 C 577 479 572 459 601 465 Z" fill="black"></path>
				<path d="M 600 377 Q 607 386 744 401 C 774 404 776 420 749 433 Q 739 440 714 433 Q 650 417 600 406 C 571 400 574 362 600 377 Z" fill="black"></path>
				<path d="M 600 297 Q 607 296 619 297 Q 716 310 786 318 Q 808 321 801 333 Q 791 346 767 352 Q 754 355 600 322 C 571 316 570 299 600 297 Z" fill="red"></path>
				<path d="M 554 195 Q 572 180 595 195 Q 631 219 749 237 Q 867 256 885 235 Q 897 225 882 184 Q 876 127 867 67 Q 860 21 840 -9 Q 831 -19 811 -15 Q 783 -6 758 1 Q 743 5 743 -1 Q 742 -7 750 -15 Q 796 -67 811 -101 Q 820 -122 838 -112 Q 902 -82 911 -18 Q 927 66 938 158 Q 945 194 963 224 Q 975 240 964 252 Q 948 271 911 291 Q 892 303 864 291 Q 824 275 785 270 Q 733 263 623 243 Q 601 240 601 260 C 582 283 525 203 554 195 Z" fill="lightgray"></path>
				<path d="M 538 130 Q 522 79 495 33 Q 482 2 497 -25 Q 504 -41 523 -28 Q 541 -13 551 16 Q 564 50 564 81 Q 567 111 559 132 Q 555 139 549 139 Q 542 138 538 130 Z" fill="lightgray"></path>
				<path d="M 597 120 Q 618 36 636 25 Q 646 19 657 30 Q 664 39 664 58 Q 661 98 610 138 Q 604 142 599 135 Q 595 129 597 120 Z" fill="lightgray"></path>
				<path d="M 665 132 Q 701 60 720 53 Q 730 49 739 63 Q 743 73 740 91 Q 736 109 716 122 Q 688 146 675 153 Q 668 156 664 147 Q 661 140 665 132 Z" fill="lightgray"></path>
				<path d="M 757 139 Q 799 73 808 71 Q 815 70 822 77 Q 828 87 828 109 Q 828 125 808 143 Q 759 182 748 178 Q 744 177 742 167 Q 743 158 757 139 Z" fill="lightgray"></path>
</g>
		<text x="40" y="140" font-size="128" fill="#999999">14</text></g>
		<g id="id2:id4:id4" transform="matrix(1.0,0,0,1.0,4096,0.0)">			<g stroke="lightgray" stroke-width="4" transform="scale(4, 4)"> <rect x="0" y="0" width="256" height="256" fill="white" stroke-width="4"/></g>
			<g transform="scale(0.92, -0.92) translate(60, -920)">					<path d="M 207 622 Q 194 631 173 638 Q 154 645 143 640 Q 133 633 140 620 Q 192 568 159 293 Q 155 265 148 236 Q 124 140 63 17 Q 59 10 58 5 Q 57 -5 67 -2 Q 79 1 111 49 Q 217 200 218 514 Q 218 566 220 586 C 222 614 222 614 207 622 Z" fill="black"></path>
				<path d="M 220 586 Q 409 634 421 629 Q 422 628 427 624 Q 439 617 442 563 Q 454 379 442 171 Q 441 140 430 132 Q 417 123 356 137 Q 340 140 342 131 Q 343 124 354 119 Q 409 79 438 47 Q 457 29 469 32 Q 479 35 490 60 Q 505 100 504 161 Q 485 569 503 605 Q 513 624 504 634 Q 495 647 453 669 Q 431 678 376 659 Q 282 637 207 622 C 178 616 191 579 220 586 Z" fill="black"></path>
				<path d="M 343 466 L 344 466 L 390 477 Q 401 478 402.5 479 Q 404 480 408 484 Q 412 488 412 490 L 411 495 Q 408 500 400 501 L 379 509 L 369 509 L 342 500 L 307 491 L 252 478 Q 241 476 246 469 Q 251 462 263.5 457 Q 276 452 290 456 L 307 459 L 343 466 Z" fill="black"></path>
				<path d="M 339 381 L 398 393 Q 409 395 413 399.5 Q 417 404 416 407 Q 415 410 408.5 414.5 Q 402 419 388 420 Q 374 424 371 423.5 Q 368 423 342 414 L 309 407 L 250 394 Q 236 392 245 380 Q 255 369 279 371 L 310 376 L 339 381 Z" fill="black"></path>
				<path d="M 323 321 Q 337 336 339 365 L 339 381 L 342 414 L 343 466 L 342 500 L 342 522 Q 342 536 346 546 Q 350 556 350 564 Q 348 570 342 575 Q 337 579 325 583 L 305 588 L 294 585 L 299 568 L 305 520 L 307 491 L 307 459 L 307 458 L 309 407 L 310 376 L 310 361 L 313 337 Q 314 328 323 321 Z" fill="black"></path>
				<path d="M 273 293 Q 266 297 237 304 Q 227 307 224 303 Q 220 299 225 286 Q 244 246 254 179 Q 255 160 267 146 Q 280 128 285 140 Q 289 150 289 170 L 286 196 Q 279 251 279 271 C 279 291 279 291 273 293 Z" fill="black"></path>
				<path d="M 391 208 Q 404 257 421 272 Q 437 293 420 304 Q 404 311 383 326 Q 368 333 354 325 Q 338 313 317 306 Q 298 299 273 293 C 244 286 249 266 279 271 Q 303 275 343 285 Q 358 288 361 282 Q 362 281 351 213 C 346 183 383 179 391 208 Z" fill="black"></path>
				<path d="M 289 170 Q 296 169 306 171 Q 334 178 399 184 Q 408 185 408 192 Q 408 196 391 208 L 351 213 Q 347 213 346 212 Q 312 202 286 196 C 257 189 259 172 289 170 Z" fill="black"></path>
				<path d="M 607 577 Q 631 598 697 663 Q 710 682 731 695 Q 749 708 736 723 Q 720 736 694 745 Q 669 752 658 748 Q 646 744 653 733 Q 659 711 596 586 Q 595 586 595 585 C 580 559 585 557 607 577 Z" fill="black"></path>
				<path d="M 600 322 L 600 377 L 600 406 Q 600 449 601 465 L 604 491 Q 607 522 615 544 C 622 566 622 566 609 575 L 607 577 L 595 585 Q 585 594 570 599 Q 551 605 543 596 Q 537 592 545 580 Q 561 546 560 477 Q 559 422 558 352 Q 558 285 544 229 Q 540 210 554 195 C 571 170 602 230 601 260 Q 600 279 600 297 L 600 322 Z" fill="black"></path>
				<path d="M 744 401 Q 757 385 769 378 Q 779 371 792 390 Q 802 409 826 508 Q 833 536 853 558 Q 863 568 854 581 Q 841 596 802 617 Q 780 626 609 575 C 580 566 587 534 615 544 Q 748 592 771 575 Q 781 568 779 553 Q 763 448 749 433 C 736 410 736 410 744 401 Z" fill="black"></path>
				<path d="M 601 465 Q 665 477 713 484 Q 732 487 725 498 Q 716 510 695 513 Q 659 516 604 491 C 577 479 572 459 601 465 Z" fill="black"></path>
				<path d="M 600 377 Q 607 386 744 401 C 774 404 776 420 749 433 Q 739 440 714 433 Q 650 417 600 406 C 571 400 574 362 600 377 Z" fill="black"></path>
				<path d="M 600 297 Q 607 296 619 297 Q 716 310 786 318 Q 808 321 801 333 Q 791 346 767 352 Q 754 355 600 322 C 571 316 570 299 600 297 Z" fill="black"></path>
				<path d="M 554 195 Q 572 180 595 195 Q 631 219 749 237 Q 867 256 885 235 Q 897 225 882 184 Q 876 127 867 67 Q 860 21 840 -9 Q 831 -19 811 -15 Q 783 -6 758 1 Q 743 5 743 -1 Q 742 -7 750 -15 Q 796 -67 811 -101 Q 820 -122 838 -112 Q 902 -82 911 -18 Q 927 66 938 158 Q 945 194 963 224 Q 975 240 964 252 Q 948 271 911 291 Q 892 303 864 291 Q 824 275 785 270 Q 733 263 623 243 Q 601 240 601 260 C 582 283 525 203 554 195 Z" fill="red"></path>
				<path d="M 538 130 Q 522 79 495 33 Q 482 2 497 -25 Q 504 -41 523 -28 Q 541 -13 551 16 Q 564 50 564 81 Q 567 111 559 132 Q 555 139 549 139 Q 542 138 538 130 Z" fill="lightgray"></path>
				<path d="M 597 120 Q 618 36 636 25 Q 646 19 657 30 Q 664 39 664 58 Q 661 98 610 138 Q 604 142 599 135 Q 595 129 597 120 Z" fill="lightgray"></path>
				<path d="M 665 132 Q 701 60 720 53 Q 730 49 739 63 Q 743 73 740 91 Q 736 109 716 122 Q 688 146 675 153 Q 668 156 664 147 Q 661 140 665 132 Z" fill="lightgray"></path>
				<path d="M 757 139 Q 799 73 808 71 Q 815 70 822 77 Q 828 87 828 109 Q 828 125 808 143 Q 759 182 748 178 Q 744 177 742 167 Q 743 158 757 139 Z" fill="lightgray"></path>
</g>
		<text x="40" y="140" font-size="128" fill="#999999">15</text></g>
</g>
	<g id="id3:id3" transform="translate(0.0,3072)">
		<g id="id3:id0:id0" transform="matrix(1.0,0,0,1.0,0,0.0)">			<g stroke="lightgray" stroke-width="4" transform="scale(4, 4)"> <rect x="0" y="0" width="256" height="256" fill="white" stroke-width="4"/></g>
			<g transform="scale(0.92, -0.92) translate(60, -920)">					<path d="M 207 622 Q 194 631 173 638 Q 154 645 143 640 Q 133 633 140 620 Q 192 568 159 293 Q 155 265 148 236 Q 124 140 63 17 Q 59 10 58 5 Q 57 -5 67 -2 Q 79 1 111 49 Q 217 200 218 514 Q 218 566 220 586 C 222 614 222 614 207 622 Z" fill="black"></path>
				<path d="M 220 586 Q 409 634 421 629 Q 422 628 427 624 Q 439 617 442 563 Q 454 379 442 171 Q 441 140 430 132 Q 417 123 356 137 Q 340 140 342 131 Q 343 124 354 119 Q 409 79 438 47 Q 457 29 469 32 Q 479 35 490 60 Q 505 100 504 161 Q 485 569 503 605 Q 513 624 504 634 Q 495 647 453 669 Q 431 678 376 659 Q 282 637 207 622 C 178 616 191 579 220 586 Z" fill="black"></path>
				<path d="M 343 466 L 344 466 L 390 477 Q 401 478 402.5 479 Q 404 480 408 484 Q 412 488 412 490 L 411 495 Q 408 500 400 501 L 379 509 L 369 509 L 342 500 L 307 491 L 252 478 Q 241 476 246 469 Q 251 462 263.5 457 Q 276 452 290 456 L 307 459 L 343 466 Z" fill="black"></path>
				<path d="M 339 381 L 398 393 Q 409 395 413 399.5 Q 417 404 416 407 Q 415 410 408.5 414.5 Q 402 419 388 420 Q 374 424 371 423.5 Q 368 423 342 414 L 309 407 L 250 394 Q 236 392 245 380 Q 255 369 279 371 L 310 376 L 339 381 Z" fill="black"></path>
				<path d="M 323 321 Q 337 336 339 365 L 339 381 L 342 414 L 343 466 L 342 500 L 342 522 Q 342 536 346 546 Q 350 556 350 564 Q 348 570 342 575 Q 337 579 325 583 L 305 588 L 294 585 L 299 568 L 305 520 L 307 491 L 307 459 L 307 458 L 309 407 L 310 376 L 310 361 L 313 337 Q 314 328 323 321 Z" fill="black"></path>
				<path d="M 273 293 Q 266 297 237 304 Q 227 307 224 303 Q 220 299 225 286 Q 244 246 254 179 Q 255 160 267 146 Q 280 128 285 140 Q 289 150 289 170 L 286 196 Q 279 251 279 271 C 279 291 279 291 273 293 Z" fill="black"></path>
				<path d="M 391 208 Q 404 257 421 272 Q 437 293 420 304 Q 404 311 383 326 Q 368 333 354 325 Q 338 313 317 306 Q 298 299 273 293 C 244 286 249 266 279 271 Q 303 275 343 285 Q 358 288 361 282 Q 362 281 351 213 C 346 183 383 179 391 208 Z" fill="black"></path>
				<path d="M 289 170 Q 296 169 306 171 Q 334 178 399 184 Q 408 185 408 192 Q 408 196 391 208 L 351 213 Q 347 213 346 212 Q 312 202 286 196 C 257 189 259 172 289 170 Z" fill="black"></path>
				<path d="M 607 577 Q 631 598 697 663 Q 710 682 731 695 Q 749 708 736 723 Q 720 736 694 745 Q 669 752 658 748 Q 646 744 653 733 Q 659 711 596 586 Q 595 586 595 585 C 580 559 585 557 607 577 Z" fill="black"></path>
				<path d="M 600 322 L 600 377 L 600 406 Q 600 449 601 465 L 604 491 Q 607 522 615 544 C 622 566 622 566 609 575 L 607 577 L 595 585 Q 585 594 570 599 Q 551 605 543 596 Q 537 592 545 580 Q 561 546 560 477 Q 559 422 558 352 Q 558 285 544 229 Q 540 210 554 195 C 571 170 602 230 601 260 Q 600 279 600 297 L 600 322 Z" fill="black"></path>
				<path d="M 744 401 Q 757 385 769 378 Q 779 371 792 390 Q 802 409 826 508 Q 833 536 853 558 Q 863 568 854 581 Q 841 596 802 617 Q 780 626 609 575 C 580 566 587 534 615 544 Q 748 592 771 575 Q 781 568 779 553 Q 763 448 749 433 C 736 410 736 410 744 401 Z" fill="black"></path>
				<path d="M 601 465 Q 665 477 713 484 Q 732 487 725 498 Q 716 510 695 513 Q 659 516 604 491 C 577 479 572 459 601 465 Z" fill="black"></path>
				<path d="M 600 377 Q 607 386 744 401 C 774 404 776 420 749 433 Q 739 440 714 433 Q 650 417 600 406 C 571 400 574 362 600 377 Z" fill="black"></path>
				<path d="M 600 297 Q 607 296 619 297 Q 716 310 786 318 Q 808 321 801 333 Q 791 346 767 352 Q 754 355 600 322 C 571 316 570 299 600 297 Z" fill="black"></path>
				<path d="M 554 195 Q 572 180 595 195 Q 631 219 749 237 Q 867 256 885 235 Q 897 225 882 184 Q 876 127 867 67 Q 860 21 840 -9 Q 831 -19 811 -15 Q 783 -6 758 1 Q 743 5 743 -1 Q 742 -7 750 -15 Q 796 -67 811 -101 Q 820 -122 838 -112 Q 902 -82 911 -18 Q 927 66 938 158 Q 945 194 963 224 Q 975 240 964 252 Q 948 271 911 291 Q 892 303 864 291 Q 824 275 785 270 Q 733 263 623 243 Q 601 240 601 260 C 582 283 525 203 554 195 Z" fill="black"></path>
				<path d="M 538 130 Q 522 79 495 33 Q 482 2 497 -25 Q 504 -41 523 -28 Q 541 -13 551 16 Q 564 50 564 81 Q 567 111 559 132 Q 555 139 549 139 Q 542 138 538 130 Z" fill="red"></path>
				<path d="M 597 120 Q 618 36 636 25 Q 646 19 657 30 Q 664 39 664 58 Q 661 98 610 138 Q 604 142 599 135 Q 595 129 597 120 Z" fill="lightgray"></path>
				<path d="M 665 132 Q 701 60 720 53 Q 730 49 739 63 Q 743 73 740 91 Q 736 109 716 122 Q 688 146 675 153 Q 668 156 664 147 Q 661 140 665 132 Z" fill="lightgray"></path>
				<path d="M 757 139 Q 799 73 808 71 Q 815 70 822 77 Q 828 87 828 109 Q 828 125 808 143 Q 759 182 748 178 Q 744 177 742 167 Q 743 158 757 139 Z" fill="lightgray"></path>
</g>
		<text x="40" y="140" font-size="128" fill="#999999">16</text></g>
		<g id="id3:id1:id1" transform="matrix(1.0,0,0,1.0,1024,0.0)">			<g stroke="lightgray" stroke-width="4" transform="scale(4, 4)"> <rect x="0" y="0" width="256" height="256" fill="white" stroke-width="4"/></g>
			<g transform="scale(0.92, -0.92) translate(60, -920)">					<path d="M 207 622 Q 194 631 173 638 Q 154 645 143 640 Q 133 633 140 620 Q 192 568 159 293 Q 155 265 148 236 Q 124 140 63 17 Q 59 10 58 5 Q 57 -5 67 -2 Q 79 1 111 49 Q 217 200 218 514 Q 218 566 220 586 C 222 614 222 614 207 622 Z" fill="black"></path>
				<path d="M 220 586 Q 409 634 421 629 Q 422 628 427 624 Q 439 617 442 563 Q 454 379 442 171 Q 441 140 430 132 Q 417 123 356 137 Q 340 140 342 131 Q 343 124 354 119 Q 409 79 438 47 Q 457 29 469 32 Q 479 35 490 60 Q 505 100 504 161 Q 485 569 503 605 Q 513 624 504 634 Q 495 647 453 669 Q 431 678 376 659 Q 282 637 207 622 C 178 616 191 579 220 586 Z" fill="black"></path>
				<path d="M 343 466 L 344 466 L 390 477 Q 401 478 402.5 479 Q 404 480 408 484 Q 412 488 412 490 L 411 495 Q 408 500 400 501 L 379 509 L 369 509 L 342 500 L 307 491 L 252 478 Q 241 476 246 469 Q 251 462 263.5 457 Q 276 452 290 456 L 307 459 L 343 466 Z" fill="black"></path>
				<path d="M 339 381 L 398 393 Q 409 395 413 399.5 Q 417 404 416 407 Q 415 410 408.5 414.5 Q 402 419 388 420 Q 374 424 371 423.5 Q 368 423 342 414 L 309 407 L 250 394 Q 236 392 245 380 Q 255 369 279 371 L 310 376 L 339 381 Z" fill="black"></path>
				<path d="M 323 321 Q 337 336 339 365 L 339 381 L 342 414 L 343 466 L 342 500 L 342 522 Q 342 536 346 546 Q 350 556 350 564 Q 348 570 342 575 Q 337 579 325 583 L 305 588 L 294 585 L 299 568 L 305 520 L 307 491 L 307 459 L 307 458 L 309 407 L 310 376 L 310 361 L 313 337 Q 314 328 323 321 Z" fill="black"></path>
				<path d="M 273 293 Q 266 297 237 304 Q 227 307 224 303 Q 220 299 225 286 Q 244 246 254 179 Q 255 160 267 146 Q 280 128 285 140 Q 289 150 289 170 L 286 196 Q 279 251 279 271 C 279 291 279 291 273 293 Z" fill="black"></path>
				<path d="M 391 208 Q 404 257 421 272 Q 437 293 420 304 Q 404 311 383 326 Q 368 333 354 325 Q 338 313 317 306 Q 298 299 273 293 C 244 286 249 266 279 271 Q 303 275 343 285 Q 358 288 361 282 Q 362 281 351 213 C 346 183 383 179 391 208 Z" fill="black"></path>
				<path d="M 289 170 Q 296 169 306 171 Q 334 178 399 184 Q 408 185 408 192 Q 408 196 391 208 L 351 213 Q 347 213 346 212 Q 312 202 286 196 C 257 189 259 172 289 170 Z" fill="black"></path>
				<path d="M 607 577 Q 631 598 697 663 Q 710 682 731 695 Q 749 708 736 723 Q 720 736 694 745 Q 669 752 658 748 Q 646 744 653 733 Q 659 711 596 586 Q 595 586 595 585 C 580 559 585 557 607 577 Z" fill="black"></path>
				<path d="M 600 322 L 600 377 L 600 406 Q 600 449 601 465 L 604 491 Q 607 522 615 544 C 622 566 622 566 609 575 L 607 577 L 595 585 Q 585 594 570 599 Q 551 605 543 596 Q 537 592 545 580 Q 561 546 560 477 Q 559 422 558 352 Q 558 285 544 229 Q 540 210 554 195 C 571 170 602 230 601 260 Q 600 279 600 297 L 600 322 Z" fill="black"></path>
				<path d="M 744 401 Q 757 385 769 378 Q 779 371 792 390 Q 802 409 826 508 Q 833 536 853 558 Q 863 568 854 581 Q 841 596 802 617 Q 780 626 609 575 C 580 566 587 534 615 544 Q 748 592 771 575 Q 781 568 779 553 Q 763 448 749 433 C 736 410 736 410 744 401 Z" fill="black"></path>
				<path d="M 601 465 Q 665 477 713 484 Q 732 487 725 498 Q 716 510 695 513 Q 659 516 604 491 C 577 479 572 459 601 465 Z" fill="black"></path>
				<path d="M 600 377 Q 607 386 744 401 C 774 404 776 420 749 433 Q 739 440 714 433 Q 650 417 600 406 C 571 400 574 362 600 377 Z" fill="black"></path>
				<path d="M 600 297 Q 607 296 619 297 Q 716 310 786 318 Q 808 321 801 333 Q 791 346 767 352 Q 754 355 600 322 C 571 316 570 299 600 297 Z" fill="black"></path>
				<path d="M 554 195 Q 572 180 595 195 Q 631 219 749 237 Q 867 256 885 235 Q 897 225 882 184 Q 876 127 867 67 Q 860 21 840 -9 Q 831 -19 811 -15 Q 783 -6 758 1 Q 743 5 743 -1 Q 742 -7 750 -15 Q 796 -67 811 -101 Q 820 -122 838 -112 Q 902 -82 911 -18 Q 927 66 938 158 Q 945 194 963 224 Q 975 240 964 252 Q 948 271 911 291 Q 892 303 864 291 Q 824 275 785 270 Q 733 263 623 243 Q 601 240 601 260 C 582 283 525 203 554 195 Z" fill="black"></path>
				<path d="M 538 130 Q 522 79 495 33 Q 482 2 497 -25 Q 504 -41 523 -28 Q 541 -13 551 16 Q 564 50 564 81 Q 567 111 559 132 Q 555 139 549 139 Q 542 138 538 130 Z" fill="black"></path>
				<path d="M 597 120 Q 618 36 636 25 Q 646 19 657 30 Q 664 39 664 58 Q 661 98 610 138 Q 604 142 599 135 Q 595 129 597 120 Z" fill="red"></path>
				<path d="M 665 132 Q 701 60 720 53 Q 730 49 739 63 Q 743 73 740 91 Q 736 109 716 122 Q 688 146 675 153 Q 668 156 664 147 Q 661 140 665 132 Z" fill="lightgray"></path>
				<path d="M 757 139 Q 799 73 808 71 Q 815 70 822 77 Q 828 87 828 109 Q 828 125 808 143 Q 759 182 748 178 Q 744 177 742 167 Q 743 158 757 139 Z" fill="lightgray"></path>
</g>
		<text x="40" y="140" font-size="128" fill="#999999">17</text></g>
		<g id="id3:id2:id2" transform="matrix(1.0,0,0,1.0,2048,0.0)">			<g stroke="lightgray" stroke-width="4" transform="scale(4, 4)"> <rect x="0" y="0" width="256" height="256" fill="white" stroke-width="4"/></g>
			<g transform="scale(0.92, -0.92) translate(60, -920)">					<path d="M 207 622 Q 194 631 173 638 Q 154 645 143 640 Q 133 633 140 620 Q 192 568 159 293 Q 155 265 148 236 Q 124 140 63 17 Q 59 10 58 5 Q 57 -5 67 -2 Q 79 1 111 49 Q 217 200 218 514 Q 218 566 220 586 C 222 614 222 614 207 622 Z" fill="black"></path>
				<path d="M 220 586 Q 409 634 421 629 Q 422 628 427 624 Q 439 617 442 563 Q 454 379 442 171 Q 441 140 430 132 Q 417 123 356 137 Q 340 140 342 131 Q 343 124 354 119 Q 409 79 438 47 Q 457 29 469 32 Q 479 35 490 60 Q 505 100 504 161 Q 485 569 503 605 Q 513 624 504 634 Q 495 647 453 669 Q 431 678 376 659 Q 282 637 207 622 C 178 616 191 579 220 586 Z" fill="black"></path>
				<path d="M 343 466 L 344 466 L 390 477 Q 401 478 402.5 479 Q 404 480 408 484 Q 412 488 412 490 L 411 495 Q 408 500 400 501 L 379 509 L 369 509 L 342 500 L 307 491 L 252 478 Q 241 476 246 469 Q 251 462 263.5 457 Q 276 452 290 456 L 307 459 L 343 466 Z" fill="black"></path>
				<path d="M 339 381 L 398 393 Q 409 395 413 399.5 Q 417 404 416 407 Q 415 410 408.5 414.5 Q 402 419 388 420 Q 374 424 371 423.5 Q 368 423 342 414 L 309 407 L 250 394 Q 236 392 245 380 Q 255 369 279 371 L 310 376 L 339 381 Z" fill="black"></path>
				<path d="M 323 321 Q 337 336 339 365 L 339 381 L 342 414 L 343 466 L 342 500 L 342 522 Q 342 536 346 546 Q 350 556 350 564 Q 348 570 342 575 Q 337 579 325 583 L 305 588 L 294 585 L 299 568 L 305 520 L 307 491 L 307 459 L 307 458 L 309 407 L 310 376 L 310 361 L 313 337 Q 314 328 323 321 Z" fill="black"></path>
				<path d="M 273 293 Q 266 297 237 304 Q 227 307 224 303 Q 220 299 225 286 Q 244 246 254 179 Q 255 160 267 146 Q 280 128 285 140 Q 289 150 289 170 L 286 196 Q 279 251 279 271 C 279 291 279 291 273 293 Z" fill="black"></path>
				<path d="M 391 208 Q 404 257 421 272 Q 437 293 420 304 Q 404 311 383 326 Q 368 333 354 325 Q 338 313 317 306 Q 298 299 273 293 C 244 286 249 266 279 271 Q 303 275 343 285 Q 358 288 361 282 Q 362 281 351 213 C 346 183 383 179 391 208 Z" fill="black"></path>
				<path d="M 289 170 Q 296 169 306 171 Q 334 178 399 184 Q 408 185 408 192 Q 408 196 391 208 L 351 213 Q 347 213 346 212 Q 312 202 286 196 C 257 189 259 172 289 170 Z" fill="black"></path>
				<path d="M 607 577 Q 631 598 697 663 Q 710 682 731 695 Q 749 708 736 723 Q 720 736 694 745 Q 669 752 658 748 Q 646 744 653 733 Q 659 711 596 586 Q 595 586 595 585 C 580 559 585 557 607 577 Z" fill="black"></path>
				<path d="M 600 322 L 600 377 L 600 406 Q 600 449 601 465 L 604 491 Q 607 522 615 544 C 622 566 622 566 609 575 L 607 577 L 595 585 Q 585 594 570 599 Q 551 605 543 596 Q 537 592 545 580 Q 561 546 560 477 Q 559 422 558 352 Q 558 285 544 229 Q 540 210 554 195 C 571 170 602 230 601 260 Q 600 279 600 297 L 600 322 Z" fill="black"></path>
				<path d="M 744 401 Q 757 385 769 378 Q 779 371 792 390 Q 802 409 826 508 Q 833 536 853 558 Q 863 568 854 581 Q 841 596 802 617 Q 780 626 609 575 C 580 566 587 534 615 544 Q 748 592 771 575 Q 781 568 779 553 Q 763 448 749 433 C 736 410 736 410 744 401 Z" fill="black"></path>
				<path d="M 601 465 Q 665 477 713 484 Q 732 487 725 498 Q 716 510 695 513 Q 659 516 604 491 C 577 479 572 459 601 465 Z" fill="black"></path>
				<path d="M 600 377 Q 607 386 744 401 C 774 404 776 420 749 433 Q 739 440 714 433 Q 650 417 600 406 C 571 400 574 362 600 377 Z" fill="black"></path>
				<path d="M 600 297 Q 607 296 619 297 Q 716 310 786 318 Q 808 321 801 333 Q 791 346 767 352 Q 754 355 600 322 C 571 316 570 299 600 297 Z" fill="black"></path>
				<path d="M 554 195 Q 572 180 595 195 Q 631 219 749 237 Q 867 256 885 235 Q 897 225 882 184 Q 876 127 867 67 Q 860 21 840 -9 Q 831 -19 811 -15 Q 783 -6 758 1 Q 743 5 743 -1 Q 742 -7 750 -15 Q 796 -67 811 -101 Q 820 -122 838 -112 Q 902 -82 911 -18 Q 927 66 938 158 Q 945 194 963 224 Q 975 240 964 252 Q 948 271 911 291 Q 892 303 864 291 Q 824 275 785 270 Q 733 263 623 243 Q 601 240 601 260 C 582 283 525 203 554 195 Z" fill="black"></path>
				<path d="M 538 130 Q 522 79 495 33 Q 482 2 497 -25 Q 504 -41 523 -28 Q 541 -13 551 16 Q 564 50 564 81 Q 567 111 559 132 Q 555 139 549 139 Q 542 138 538 130 Z" fill="black"></path>
				<path d="M 597 120 Q 618 36 636 25 Q 646 19 657 30 Q 664 39 664 58 Q 661 98 610 138 Q 604 142 599 135 Q 595 129 597 120 Z" fill="black"></path>
				<path d="M 665 132 Q 701 60 720 53 Q 730 49 739 63 Q 743 73 740 91 Q 736 109 716 122 Q 688 146 675 153 Q 668 156 664 147 Q 661 140 665 132 Z" fill="red"></path>
				<path d="M 757 139 Q 799 73 808 71 Q 815 70 822 77 Q 828 87 828 109 Q 828 125 808 143 Q 759 182 748 178 Q 744 177 742 167 Q 743 158 757 139 Z" fill="lightgray"></path>
</g>
		<text x="40" y="140" font-size="128" fill="#999999">18</text></g>
		<g id="id3:id3:id3" transform="matrix(1.0,0,0,1.0,3072,0.0)">			<g stroke="lightgray" stroke-width="4" transform="scale(4, 4)"> <rect x="0" y="0" width="256" height="256" fill="white" stroke-width="4"/></g>
			<g transform="scale(0.92, -0.92) translate(60, -920)">					<path d="M 207 622 Q 194 631 173 638 Q 154 645 143 640 Q 133 633 140 620 Q 192 568 159 293 Q 155 265 148 236 Q 124 140 63 17 Q 59 10 58 5 Q 57 -5 67 -2 Q 79 1 111 49 Q 217 200 218 514 Q 218 566 220 586 C 222 614 222 614 207 622 Z" fill="black"></path>
				<path d="M 220 586 Q 409 634 421 629 Q 422 628 427 624 Q 439 617 442 563 Q 454 379 442 171 Q 441 140 430 132 Q 417 123 356 137 Q 340 140 342 131 Q 343 124 354 119 Q 409 79 438 47 Q 457 29 469 32 Q 479 35 490 60 Q 505 100 504 161 Q 485 569 503 605 Q 513 624 504 634 Q 495 647 453 669 Q 431 678 376 659 Q 282 637 207 622 C 178 616 191 579 220 586 Z" fill="black"></path>
				<path d="M 343 466 L 344 466 L 390 477 Q 401 478 402.5 479 Q 404 480 408 484 Q 412 488 412 490 L 411 495 Q 408 500 400 501 L 379 509 L 369 509 L 342 500 L 307 491 L 252 478 Q 241 476 246 469 Q 251 462 263.5 457 Q 276 452 290 456 L 307 459 L 343 466 Z" fill="black"></path>
				<path d="M 339 381 L 398 393 Q 409 395 413 399.5 Q 417 404 416 407 Q 415 410 408.5 414.5 Q 402 419 388 420 Q 374 424 371 423.5 Q 368 423 342 414 L 309 407 L 250 394 Q 236 392 245 380 Q 255 369 279 371 L 310 376 L 339 381 Z" fill="black"></path>
				<path d="M 323 321 Q 337 336 339 365 L 339 381 L 342 414 L 343 466 L 342 500 L 342 522 Q 342 536 346 546 Q 350 556 350 564 Q 348 570 342 575 Q 337 579 325 583 L 305 588 L 294 585 L 299 568 L 305 520 L 307 491 L 307 459 L 307 458 L 309 407 L 310 376 L 310 361 L 313 337 Q 314 328 323 321 Z" fill="black"></path>
				<path d="M 273 293 Q 266 297 237 304 Q 227 307 224 303 Q 220 299 225 286 Q 244 246 254 179 Q 255 160 267 146 Q 280 128 285 140 Q 289 150 289 170 L 286 196 Q 279 251 279 271 C 279 291 279 291 273 293 Z" fill="black"></path>
				<path d="M 391 208 Q 404 257 421 272 Q 437 293 420 304 Q 404 311 383 326 Q 368 333 354 325 Q 338 313 317 306 Q 298 299 273 293 C 244 286 249 266 279 271 Q 303 275 343 285 Q 358 288 361 282 Q 362 281 351 213 C 346 183 383 179 391 208 Z" fill="black"></path>
				<path d="M 289 170 Q 296 169 306 171 Q 334 178 399 184 Q 408 185 408 192 Q 408 196 391 208 L 351 213 Q 347 213 346 212 Q 312 202 286 196 C 257 189 259 172 289 170 Z" fill="black"></path>
				<path d="M 607 577 Q 631 598 697 663 Q 710 682 731 695 Q 749 708 736 723 Q 720 736 694 745 Q 669 752 658 748 Q 646 744 653 733 Q 659 711 596 586 Q 595 586 595 585 C 580 559 585 557 607 577 Z" fill="black"></path>
				<path d="M 600 322 L 600 377 L 600 406 Q 600 449 601 465 L 604 491 Q 607 522 615 544 C 622 566 622 566 609 575 L 607 577 L 595 585 Q 585 594 570 599 Q 551 605 543 596 Q 537 592 545 580 Q 561 546 560 477 Q 559 422 558 352 Q 558 285 544 229 Q 540 210 554 195 C 571 170 602 230 601 260 Q 600 279 600 297 L 600 322 Z" fill="black"></path>
				<path d="M 744 401 Q 757 385 769 378 Q 779 371 792 390 Q 802 409 826 508 Q 833 536 853 558 Q 863 568 854 581 Q 841 596 802 617 Q 780 626 609 575 C 580 566 587 534 615 544 Q 748 592 771 575 Q 781 568 779 553 Q 763 448 749 433 C 736 410 736 410 744 401 Z" fill="black"></path>
				<path d="M 601 465 Q 665 477 713 484 Q 732 487 725 498 Q 716 510 695 513 Q 659 516 604 491 C 577 479 572 459 601 465 Z" fill="black"></path>
				<path d="M 600 377 Q 607 386 744 401 C 774 404 776 420 749 433 Q 739 440 714 433 Q 650 417 600 406 C 571 400 574 362 600 377 Z" fill="black"></path>
				<path d="M 600 297 Q 607 296 619 297 Q 716 310 786 318 Q 808 321 801 333 Q 791 346 767 352 Q 754 355 600 322 C 571 316 570 299 600 297 Z" fill="black"></path>
				<path d="M 554 195 Q 572 180 595 195 Q 631 219 749 237 Q 867 256 885 235 Q 897 225 882 184 Q 876 127 867 67 Q 860 21 840 -9 Q 831 -19 811 -15 Q 783 -6 758 1 Q 743 5 743 -1 Q 742 -7 750 -15 Q 796 -67 811 -101 Q 820 -122 838 -112 Q 902 -82 911 -18 Q 927 66 938 158 Q 945 194 963 224 Q 975 240 964 252 Q 948 271 911 291 Q 892 303 864 291 Q 824 275 785 270 Q 733 263 623 243 Q 601 240 601 260 C 582 283 525 203 554 195 Z" fill="black"></path>
				<path d="M 538 130 Q 522 79 495 33 Q 482 2 497 -25 Q 504 -41 523 -28 Q 541 -13 551 16 Q 564 50 564 81 Q 567 111 559 132 Q 555 139 549 139 Q 542 138 538 130 Z" fill="black"></path>
				<path d="M 597 120 Q 618 36 636 25 Q 646 19 657 30 Q 664 39 664 58 Q 661 98 610 138 Q 604 142 599 135 Q 595 129 597 120 Z" fill="black"></path>
				<path d="M 665 132 Q 701 60 720 53 Q 730 49 739 63 Q 743 73 740 91 Q 736 109 716 122 Q 688 146 675 153 Q 668 156 664 147 Q 661 140 665 132 Z" fill="black"></path>
				<path d="M 757 139 Q 799 73 808 71 Q 815 70 822 77 Q 828 87 828 109 Q 828 125 808 143 Q 759 182 748 178 Q 744 177 742 167 Q 743 158 757 139 Z" fill="red"></path>
</g>
		<text x="40" y="140" font-size="128" fill="#999999">19</text></g>
		<g id="id3:id4:id4" transform="matrix(1.0,0,0,1.0,4096,0.0)">			<g stroke="white" stroke-width="4" transform="scale(4, 4)"> <rect x="1" y="1" width="255" height="255" fill="white" stroke-width="0"/></g>
</g>
</g>
</svg>
