<?xml version="1.0" standalone="no"?>
<!DOCTYPE svg PUBLIC "-//W3C//DTD SVG 1.1//EN"
 "http://www.w3.org/Graphics/SVG/1.1/DTD/svg11.dtd">
<!-- generate by Japanese dictionary app com.asnsami.kanjidictionary -->

<svg xmlns="http://www.w3.org/2000/svg" xmlns:sodipodi="http://sodipodi.sourceforge.net/DTD/sodipodi-0.dtd" version="1.1" width="640" height="384" viewBox="0 0 5120 3072">
	<g id="id0:id0" transform="translate(0.0,0)">
		<g id="id0:id0:id0" transform="matrix(1.0,0,0,1.0,0,0.0)">			<g stroke="lightgray" stroke-width="4" transform="scale(4, 4)"> <rect x="0" y="0" width="256" height="256" fill="white" stroke-width="4"/></g>
			<g transform="scale(0.92, -0.92) translate(60, -920)">					<path d="M 550 622 L 558 641 Q 567 666 560 682 Q 558 699 485 730 L 459 738 Q 447 743 445 738 Q 443 733 447 729 L 459 713 L 476 682 L 514 618 C 529 592 538 594 550 622 Z" fill="red"></path>
				<path d="M 275 541 L 329 550 L 476 567 L 539 576 L 625 584 Q 643 585 681 589 L 782 594 L 823 598 Q 831 599 832 603 Q 833 606 820 622 Q 808 637 751 651 L 672 637 Q 637 632 627 632 L 550 622 L 514 618 L 275 586 Q 250 582 235 582 L 203 577 Q 177 574 192 561 Q 200 555 207 548 C 225 533 245 536 275 541 Z" fill="lightgray"></path>
				<path d="M 215 500 L 213 446 Q 202 293 183 212 Q 164 130 141 73 Q 119 15 107 -6 L 60 -82 Q 52 -95 56 -97 Q 59 -100 67 -92 L 92 -70 Q 143 -26 178 48 Q 198 94 218 157 Q 246 266 261 376 L 271 448 Q 275 496 283 510 L 288 522 Q 288 528 275 541 C 257 565 199 577 207 548 L 213 530 Q 213 523 215 500 Z" fill="lightgray"></path>
				<path d="M 513 370 L 491 378 Q 470 383 455 375 L 428 366 L 379 353 L 333 345 Q 313 341 299 341 L 289 339 Q 279 339 277 337 Q 269 330 281 323 Q 287 317 296 315 Q 307 309 335 309 Q 341 307 348 309 L 367 311 L 427 321 L 485 332 L 525 342 Q 535 342 535 350 Q 537 362 513 370 Z" fill="lightgray"></path>
				<path d="M 428 366 L 430 385 Q 432 404 437 425 Q 440 445 447 459 Q 453 474 451 482 Q 447 501 405 516 Q 363 530 361 516 Q 358 513 363 501 L 373 475 L 377 451 L 379 419 Q 380 412 380 391 L 379 353 L 375 214 L 370 127 Q 365 62 355 29 L 345 -8 L 347 -29 L 357 -56 Q 371 -93 383 -93 Q 391 -93 398 -83 Q 417 -53 417 -43 L 419 13 L 422 235 L 424 274 L 427 321 L 428 366 Z" fill="lightgray"></path>
				<path d="M 367 311 L 352 275 Q 345 253 330 225 Q 287 149 266 118 L 237 81 Q 218 57 210 51 L 187 31 Q 179 25 183 20 Q 184 16 196 20 L 222 33 Q 250 45 296 94 Q 311 112 341 159 Q 371 206 375 214 C 444 334 379 339 367 311 Z" fill="lightgray"></path>
				<path d="M 422 235 L 447 212 Q 458 195 479 174 Q 496 160 511 176 Q 518 181 516 201 Q 514 233 491 243 L 454 259 L 424 274 C 397 287 400 255 422 235 Z" fill="lightgray"></path>
				<path d="M 702 345 L 750 352 L 797 356 L 826 356 Q 851 356 854 365 Q 855 368 846 377 Q 819 399 808 403 Q 797 406 783 406 L 761 399 Q 761 398 748 395 L 714 387 L 705 382 L 656 373 L 632 370 Q 628 369 605 367 L 591 367 L 582 365 L 560 363 Q 553 362 550 360 Q 547 357 549 354 Q 552 345 577 334 Q 603 323 614 324 L 627 326 L 648 334 L 702 345 Z" fill="lightgray"></path>
				<path d="M 698 -104 L 705 -77 L 701 48 L 701 235 L 701 289 L 702 345 L 705 382 L 705 406 Q 708 418 710 436 L 713 464 Q 714 475 720 496 Q 730 520 722 526 L 693 544 Q 644 566 637 551 Q 630 549 639 532 Q 649 515 652 475 Q 656 434 656 424 L 656 373 L 657 230 L 653 124 Q 651 100 645 52 Q 640 4 639 2 Q 639 -1 636 -13 L 629 -44 Q 626 -62 632 -88 Q 638 -115 655 -132 Q 666 -151 684 -131 Q 695 -116 698 -104 Z" fill="lightgray"></path>
				<path d="M 648 334 L 638 312 L 632 292 Q 600 215 573 167 Q 544 109 505 70 L 461 22 Q 454 17 458 12 Q 458 7 468 12 L 496 24 Q 516 34 529 46 Q 572 86 594 118 Q 616 149 632 183 Q 649 216 657 230 C 729 359 660 361 648 334 Z" fill="lightgray"></path>
				<path d="M 701 235 L 713 216 L 765 124 L 804 48 Q 820 21 836 19 Q 842 16 863 18 L 905 20 Q 925 22 943 25 L 957 28 Q 964 30 965 36 Q 967 42 957 46 L 940 53 Q 926 57 922 60 L 887 80 L 851 103 Q 839 110 813 137 Q 787 163 766 192 L 722 256 L 701 289 C 685 314 685 260 701 235 Z" fill="lightgray"></path>
</g>
		<text x="40" y="140" font-size="128" fill="#999999">1</text></g>
		<g id="id0:id1:id1" transform="matrix(1.0,0,0,1.0,1024,0.0)">			<g stroke="lightgray" stroke-width="4" transform="scale(4, 4)"> <rect x="0" y="0" width="256" height="256" fill="white" stroke-width="4"/></g>
			<g transform="scale(0.92, -0.92) translate(60, -920)">					<path d="M 550 622 L 558 641 Q 567 666 560 682 Q 558 699 485 730 L 459 738 Q 447 743 445 738 Q 443 733 447 729 L 459 713 L 476 682 L 514 618 C 529 592 538 594 550 622 Z" fill="black"></path>
				<path d="M 275 541 L 329 550 L 476 567 L 539 576 L 625 584 Q 643 585 681 589 L 782 594 L 823 598 Q 831 599 832 603 Q 833 606 820 622 Q 808 637 751 651 L 672 637 Q 637 632 627 632 L 550 622 L 514 618 L 275 586 Q 250 582 235 582 L 203 577 Q 177 574 192 561 Q 200 555 207 548 C 225 533 245 536 275 541 Z" fill="red"></path>
				<path d="M 215 500 L 213 446 Q 202 293 183 212 Q 164 130 141 73 Q 119 15 107 -6 L 60 -82 Q 52 -95 56 -97 Q 59 -100 67 -92 L 92 -70 Q 143 -26 178 48 Q 198 94 218 157 Q 246 266 261 376 L 271 448 Q 275 496 283 510 L 288 522 Q 288 528 275 541 C 257 565 199 577 207 548 L 213 530 Q 213 523 215 500 Z" fill="lightgray"></path>
				<path d="M 513 370 L 491 378 Q 470 383 455 375 L 428 366 L 379 353 L 333 345 Q 313 341 299 341 L 289 339 Q 279 339 277 337 Q 269 330 281 323 Q 287 317 296 315 Q 307 309 335 309 Q 341 307 348 309 L 367 311 L 427 321 L 485 332 L 525 342 Q 535 342 535 350 Q 537 362 513 370 Z" fill="lightgray"></path>
				<path d="M 428 366 L 430 385 Q 432 404 437 425 Q 440 445 447 459 Q 453 474 451 482 Q 447 501 405 516 Q 363 530 361 516 Q 358 513 363 501 L 373 475 L 377 451 L 379 419 Q 380 412 380 391 L 379 353 L 375 214 L 370 127 Q 365 62 355 29 L 345 -8 L 347 -29 L 357 -56 Q 371 -93 383 -93 Q 391 -93 398 -83 Q 417 -53 417 -43 L 419 13 L 422 235 L 424 274 L 427 321 L 428 366 Z" fill="lightgray"></path>
				<path d="M 367 311 L 352 275 Q 345 253 330 225 Q 287 149 266 118 L 237 81 Q 218 57 210 51 L 187 31 Q 179 25 183 20 Q 184 16 196 20 L 222 33 Q 250 45 296 94 Q 311 112 341 159 Q 371 206 375 214 C 444 334 379 339 367 311 Z" fill="lightgray"></path>
				<path d="M 422 235 L 447 212 Q 458 195 479 174 Q 496 160 511 176 Q 518 181 516 201 Q 514 233 491 243 L 454 259 L 424 274 C 397 287 400 255 422 235 Z" fill="lightgray"></path>
				<path d="M 702 345 L 750 352 L 797 356 L 826 356 Q 851 356 854 365 Q 855 368 846 377 Q 819 399 808 403 Q 797 406 783 406 L 761 399 Q 761 398 748 395 L 714 387 L 705 382 L 656 373 L 632 370 Q 628 369 605 367 L 591 367 L 582 365 L 560 363 Q 553 362 550 360 Q 547 357 549 354 Q 552 345 577 334 Q 603 323 614 324 L 627 326 L 648 334 L 702 345 Z" fill="lightgray"></path>
				<path d="M 698 -104 L 705 -77 L 701 48 L 701 235 L 701 289 L 702 345 L 705 382 L 705 406 Q 708 418 710 436 L 713 464 Q 714 475 720 496 Q 730 520 722 526 L 693 544 Q 644 566 637 551 Q 630 549 639 532 Q 649 515 652 475 Q 656 434 656 424 L 656 373 L 657 230 L 653 124 Q 651 100 645 52 Q 640 4 639 2 Q 639 -1 636 -13 L 629 -44 Q 626 -62 632 -88 Q 638 -115 655 -132 Q 666 -151 684 -131 Q 695 -116 698 -104 Z" fill="lightgray"></path>
				<path d="M 648 334 L 638 312 L 632 292 Q 600 215 573 167 Q 544 109 505 70 L 461 22 Q 454 17 458 12 Q 458 7 468 12 L 496 24 Q 516 34 529 46 Q 572 86 594 118 Q 616 149 632 183 Q 649 216 657 230 C 729 359 660 361 648 334 Z" fill="lightgray"></path>
				<path d="M 701 235 L 713 216 L 765 124 L 804 48 Q 820 21 836 19 Q 842 16 863 18 L 905 20 Q 925 22 943 25 L 957 28 Q 964 30 965 36 Q 967 42 957 46 L 940 53 Q 926 57 922 60 L 887 80 L 851 103 Q 839 110 813 137 Q 787 163 766 192 L 722 256 L 701 289 C 685 314 685 260 701 235 Z" fill="lightgray"></path>
</g>
		<text x="40" y="140" font-size="128" fill="#999999">2</text></g>
		<g id="id0:id2:id2" transform="matrix(1.0,0,0,1.0,2048,0.0)">			<g stroke="lightgray" stroke-width="4" transform="scale(4, 4)"> <rect x="0" y="0" width="256" height="256" fill="white" stroke-width="4"/></g>
			<g transform="scale(0.92, -0.92) translate(60, -920)">					<path d="M 550 622 L 558 641 Q 567 666 560 682 Q 558 699 485 730 L 459 738 Q 447 743 445 738 Q 443 733 447 729 L 459 713 L 476 682 L 514 618 C 529 592 538 594 550 622 Z" fill="black"></path>
				<path d="M 275 541 L 329 550 L 476 567 L 539 576 L 625 584 Q 643 585 681 589 L 782 594 L 823 598 Q 831 599 832 603 Q 833 606 820 622 Q 808 637 751 651 L 672 637 Q 637 632 627 632 L 550 622 L 514 618 L 275 586 Q 250 582 235 582 L 203 577 Q 177 574 192 561 Q 200 555 207 548 C 225 533 245 536 275 541 Z" fill="black"></path>
				<path d="M 215 500 L 213 446 Q 202 293 183 212 Q 164 130 141 73 Q 119 15 107 -6 L 60 -82 Q 52 -95 56 -97 Q 59 -100 67 -92 L 92 -70 Q 143 -26 178 48 Q 198 94 218 157 Q 246 266 261 376 L 271 448 Q 275 496 283 510 L 288 522 Q 288 528 275 541 C 257 565 199 577 207 548 L 213 530 Q 213 523 215 500 Z" fill="red"></path>
				<path d="M 513 370 L 491 378 Q 470 383 455 375 L 428 366 L 379 353 L 333 345 Q 313 341 299 341 L 289 339 Q 279 339 277 337 Q 269 330 281 323 Q 287 317 296 315 Q 307 309 335 309 Q 341 307 348 309 L 367 311 L 427 321 L 485 332 L 525 342 Q 535 342 535 350 Q 537 362 513 370 Z" fill="lightgray"></path>
				<path d="M 428 366 L 430 385 Q 432 404 437 425 Q 440 445 447 459 Q 453 474 451 482 Q 447 501 405 516 Q 363 530 361 516 Q 358 513 363 501 L 373 475 L 377 451 L 379 419 Q 380 412 380 391 L 379 353 L 375 214 L 370 127 Q 365 62 355 29 L 345 -8 L 347 -29 L 357 -56 Q 371 -93 383 -93 Q 391 -93 398 -83 Q 417 -53 417 -43 L 419 13 L 422 235 L 424 274 L 427 321 L 428 366 Z" fill="lightgray"></path>
				<path d="M 367 311 L 352 275 Q 345 253 330 225 Q 287 149 266 118 L 237 81 Q 218 57 210 51 L 187 31 Q 179 25 183 20 Q 184 16 196 20 L 222 33 Q 250 45 296 94 Q 311 112 341 159 Q 371 206 375 214 C 444 334 379 339 367 311 Z" fill="lightgray"></path>
				<path d="M 422 235 L 447 212 Q 458 195 479 174 Q 496 160 511 176 Q 518 181 516 201 Q 514 233 491 243 L 454 259 L 424 274 C 397 287 400 255 422 235 Z" fill="lightgray"></path>
				<path d="M 702 345 L 750 352 L 797 356 L 826 356 Q 851 356 854 365 Q 855 368 846 377 Q 819 399 808 403 Q 797 406 783 406 L 761 399 Q 761 398 748 395 L 714 387 L 705 382 L 656 373 L 632 370 Q 628 369 605 367 L 591 367 L 582 365 L 560 363 Q 553 362 550 360 Q 547 357 549 354 Q 552 345 577 334 Q 603 323 614 324 L 627 326 L 648 334 L 702 345 Z" fill="lightgray"></path>
				<path d="M 698 -104 L 705 -77 L 701 48 L 701 235 L 701 289 L 702 345 L 705 382 L 705 406 Q 708 418 710 436 L 713 464 Q 714 475 720 496 Q 730 520 722 526 L 693 544 Q 644 566 637 551 Q 630 549 639 532 Q 649 515 652 475 Q 656 434 656 424 L 656 373 L 657 230 L 653 124 Q 651 100 645 52 Q 640 4 639 2 Q 639 -1 636 -13 L 629 -44 Q 626 -62 632 -88 Q 638 -115 655 -132 Q 666 -151 684 -131 Q 695 -116 698 -104 Z" fill="lightgray"></path>
				<path d="M 648 334 L 638 312 L 632 292 Q 600 215 573 167 Q 544 109 505 70 L 461 22 Q 454 17 458 12 Q 458 7 468 12 L 496 24 Q 516 34 529 46 Q 572 86 594 118 Q 616 149 632 183 Q 649 216 657 230 C 729 359 660 361 648 334 Z" fill="lightgray"></path>
				<path d="M 701 235 L 713 216 L 765 124 L 804 48 Q 820 21 836 19 Q 842 16 863 18 L 905 20 Q 925 22 943 25 L 957 28 Q 964 30 965 36 Q 967 42 957 46 L 940 53 Q 926 57 922 60 L 887 80 L 851 103 Q 839 110 813 137 Q 787 163 766 192 L 722 256 L 701 289 C 685 314 685 260 701 235 Z" fill="lightgray"></path>
</g>
		<text x="40" y="140" font-size="128" fill="#999999">3</text></g>
		<g id="id0:id3:id3" transform="matrix(1.0,0,0,1.0,3072,0.0)">			<g stroke="lightgray" stroke-width="4" transform="scale(4, 4)"> <rect x="0" y="0" width="256" height="256" fill="white" stroke-width="4"/></g>
			<g transform="scale(0.92, -0.92) translate(60, -920)">					<path d="M 550 622 L 558 641 Q 567 666 560 682 Q 558 699 485 730 L 459 738 Q 447 743 445 738 Q 443 733 447 729 L 459 713 L 476 682 L 514 618 C 529 592 538 594 550 622 Z" fill="black"></path>
				<path d="M 275 541 L 329 550 L 476 567 L 539 576 L 625 584 Q 643 585 681 589 L 782 594 L 823 598 Q 831 599 832 603 Q 833 606 820 622 Q 808 637 751 651 L 672 637 Q 637 632 627 632 L 550 622 L 514 618 L 275 586 Q 250 582 235 582 L 203 577 Q 177 574 192 561 Q 200 555 207 548 C 225 533 245 536 275 541 Z" fill="black"></path>
				<path d="M 215 500 L 213 446 Q 202 293 183 212 Q 164 130 141 73 Q 119 15 107 -6 L 60 -82 Q 52 -95 56 -97 Q 59 -100 67 -92 L 92 -70 Q 143 -26 178 48 Q 198 94 218 157 Q 246 266 261 376 L 271 448 Q 275 496 283 510 L 288 522 Q 288 528 275 541 C 257 565 199 577 207 548 L 213 530 Q 213 523 215 500 Z" fill="black"></path>
				<path d="M 513 370 L 491 378 Q 470 383 455 375 L 428 366 L 379 353 L 333 345 Q 313 341 299 341 L 289 339 Q 279 339 277 337 Q 269 330 281 323 Q 287 317 296 315 Q 307 309 335 309 Q 341 307 348 309 L 367 311 L 427 321 L 485 332 L 525 342 Q 535 342 535 350 Q 537 362 513 370 Z" fill="red"></path>
				<path d="M 428 366 L 430 385 Q 432 404 437 425 Q 440 445 447 459 Q 453 474 451 482 Q 447 501 405 516 Q 363 530 361 516 Q 358 513 363 501 L 373 475 L 377 451 L 379 419 Q 380 412 380 391 L 379 353 L 375 214 L 370 127 Q 365 62 355 29 L 345 -8 L 347 -29 L 357 -56 Q 371 -93 383 -93 Q 391 -93 398 -83 Q 417 -53 417 -43 L 419 13 L 422 235 L 424 274 L 427 321 L 428 366 Z" fill="lightgray"></path>
				<path d="M 367 311 L 352 275 Q 345 253 330 225 Q 287 149 266 118 L 237 81 Q 218 57 210 51 L 187 31 Q 179 25 183 20 Q 184 16 196 20 L 222 33 Q 250 45 296 94 Q 311 112 341 159 Q 371 206 375 214 C 444 334 379 339 367 311 Z" fill="lightgray"></path>
				<path d="M 422 235 L 447 212 Q 458 195 479 174 Q 496 160 511 176 Q 518 181 516 201 Q 514 233 491 243 L 454 259 L 424 274 C 397 287 400 255 422 235 Z" fill="lightgray"></path>
				<path d="M 702 345 L 750 352 L 797 356 L 826 356 Q 851 356 854 365 Q 855 368 846 377 Q 819 399 808 403 Q 797 406 783 406 L 761 399 Q 761 398 748 395 L 714 387 L 705 382 L 656 373 L 632 370 Q 628 369 605 367 L 591 367 L 582 365 L 560 363 Q 553 362 550 360 Q 547 357 549 354 Q 552 345 577 334 Q 603 323 614 324 L 627 326 L 648 334 L 702 345 Z" fill="lightgray"></path>
				<path d="M 698 -104 L 705 -77 L 701 48 L 701 235 L 701 289 L 702 345 L 705 382 L 705 406 Q 708 418 710 436 L 713 464 Q 714 475 720 496 Q 730 520 722 526 L 693 544 Q 644 566 637 551 Q 630 549 639 532 Q 649 515 652 475 Q 656 434 656 424 L 656 373 L 657 230 L 653 124 Q 651 100 645 52 Q 640 4 639 2 Q 639 -1 636 -13 L 629 -44 Q 626 -62 632 -88 Q 638 -115 655 -132 Q 666 -151 684 -131 Q 695 -116 698 -104 Z" fill="lightgray"></path>
				<path d="M 648 334 L 638 312 L 632 292 Q 600 215 573 167 Q 544 109 505 70 L 461 22 Q 454 17 458 12 Q 458 7 468 12 L 496 24 Q 516 34 529 46 Q 572 86 594 118 Q 616 149 632 183 Q 649 216 657 230 C 729 359 660 361 648 334 Z" fill="lightgray"></path>
				<path d="M 701 235 L 713 216 L 765 124 L 804 48 Q 820 21 836 19 Q 842 16 863 18 L 905 20 Q 925 22 943 25 L 957 28 Q 964 30 965 36 Q 967 42 957 46 L 940 53 Q 926 57 922 60 L 887 80 L 851 103 Q 839 110 813 137 Q 787 163 766 192 L 722 256 L 701 289 C 685 314 685 260 701 235 Z" fill="lightgray"></path>
</g>
		<text x="40" y="140" font-size="128" fill="#999999">4</text></g>
		<g id="id0:id4:id4" transform="matrix(1.0,0,0,1.0,4096,0.0)">			<g stroke="lightgray" stroke-width="4" transform="scale(4, 4)"> <rect x="0" y="0" width="256" height="256" fill="white" stroke-width="4"/></g>
			<g transform="scale(0.92, -0.92) translate(60, -920)">					<path d="M 550 622 L 558 641 Q 567 666 560 682 Q 558 699 485 730 L 459 738 Q 447 743 445 738 Q 443 733 447 729 L 459 713 L 476 682 L 514 618 C 529 592 538 594 550 622 Z" fill="black"></path>
				<path d="M 275 541 L 329 550 L 476 567 L 539 576 L 625 584 Q 643 585 681 589 L 782 594 L 823 598 Q 831 599 832 603 Q 833 606 820 622 Q 808 637 751 651 L 672 637 Q 637 632 627 632 L 550 622 L 514 618 L 275 586 Q 250 582 235 582 L 203 577 Q 177 574 192 561 Q 200 555 207 548 C 225 533 245 536 275 541 Z" fill="black"></path>
				<path d="M 215 500 L 213 446 Q 202 293 183 212 Q 164 130 141 73 Q 119 15 107 -6 L 60 -82 Q 52 -95 56 -97 Q 59 -100 67 -92 L 92 -70 Q 143 -26 178 48 Q 198 94 218 157 Q 246 266 261 376 L 271 448 Q 275 496 283 510 L 288 522 Q 288 528 275 541 C 257 565 199 577 207 548 L 213 530 Q 213 523 215 500 Z" fill="black"></path>
				<path d="M 513 370 L 491 378 Q 470 383 455 375 L 428 366 L 379 353 L 333 345 Q 313 341 299 341 L 289 339 Q 279 339 277 337 Q 269 330 281 323 Q 287 317 296 315 Q 307 309 335 309 Q 341 307 348 309 L 367 311 L 427 321 L 485 332 L 525 342 Q 535 342 535 350 Q 537 362 513 370 Z" fill="black"></path>
				<path d="M 428 366 L 430 385 Q 432 404 437 425 Q 440 445 447 459 Q 453 474 451 482 Q 447 501 405 516 Q 363 530 361 516 Q 358 513 363 501 L 373 475 L 377 451 L 379 419 Q 380 412 380 391 L 379 353 L 375 214 L 370 127 Q 365 62 355 29 L 345 -8 L 347 -29 L 357 -56 Q 371 -93 383 -93 Q 391 -93 398 -83 Q 417 -53 417 -43 L 419 13 L 422 235 L 424 274 L 427 321 L 428 366 Z" fill="red"></path>
				<path d="M 367 311 L 352 275 Q 345 253 330 225 Q 287 149 266 118 L 237 81 Q 218 57 210 51 L 187 31 Q 179 25 183 20 Q 184 16 196 20 L 222 33 Q 250 45 296 94 Q 311 112 341 159 Q 371 206 375 214 C 444 334 379 339 367 311 Z" fill="lightgray"></path>
				<path d="M 422 235 L 447 212 Q 458 195 479 174 Q 496 160 511 176 Q 518 181 516 201 Q 514 233 491 243 L 454 259 L 424 274 C 397 287 400 255 422 235 Z" fill="lightgray"></path>
				<path d="M 702 345 L 750 352 L 797 356 L 826 356 Q 851 356 854 365 Q 855 368 846 377 Q 819 399 808 403 Q 797 406 783 406 L 761 399 Q 761 398 748 395 L 714 387 L 705 382 L 656 373 L 632 370 Q 628 369 605 367 L 591 367 L 582 365 L 560 363 Q 553 362 550 360 Q 547 357 549 354 Q 552 345 577 334 Q 603 323 614 324 L 627 326 L 648 334 L 702 345 Z" fill="lightgray"></path>
				<path d="M 698 -104 L 705 -77 L 701 48 L 701 235 L 701 289 L 702 345 L 705 382 L 705 406 Q 708 418 710 436 L 713 464 Q 714 475 720 496 Q 730 520 722 526 L 693 544 Q 644 566 637 551 Q 630 549 639 532 Q 649 515 652 475 Q 656 434 656 424 L 656 373 L 657 230 L 653 124 Q 651 100 645 52 Q 640 4 639 2 Q 639 -1 636 -13 L 629 -44 Q 626 -62 632 -88 Q 638 -115 655 -132 Q 666 -151 684 -131 Q 695 -116 698 -104 Z" fill="lightgray"></path>
				<path d="M 648 334 L 638 312 L 632 292 Q 600 215 573 167 Q 544 109 505 70 L 461 22 Q 454 17 458 12 Q 458 7 468 12 L 496 24 Q 516 34 529 46 Q 572 86 594 118 Q 616 149 632 183 Q 649 216 657 230 C 729 359 660 361 648 334 Z" fill="lightgray"></path>
				<path d="M 701 235 L 713 216 L 765 124 L 804 48 Q 820 21 836 19 Q 842 16 863 18 L 905 20 Q 925 22 943 25 L 957 28 Q 964 30 965 36 Q 967 42 957 46 L 940 53 Q 926 57 922 60 L 887 80 L 851 103 Q 839 110 813 137 Q 787 163 766 192 L 722 256 L 701 289 C 685 314 685 260 701 235 Z" fill="lightgray"></path>
</g>
		<text x="40" y="140" font-size="128" fill="#999999">5</text></g>
</g>
	<g id="id1:id1" transform="translate(0.0,1024)">
		<g id="id1:id0:id0" transform="matrix(1.0,0,0,1.0,0,0.0)">			<g stroke="lightgray" stroke-width="4" transform="scale(4, 4)"> <rect x="0" y="0" width="256" height="256" fill="white" stroke-width="4"/></g>
			<g transform="scale(0.92, -0.92) translate(60, -920)">					<path d="M 550 622 L 558 641 Q 567 666 560 682 Q 558 699 485 730 L 459 738 Q 447 743 445 738 Q 443 733 447 729 L 459 713 L 476 682 L 514 618 C 529 592 538 594 550 622 Z" fill="black"></path>
				<path d="M 275 541 L 329 550 L 476 567 L 539 576 L 625 584 Q 643 585 681 589 L 782 594 L 823 598 Q 831 599 832 603 Q 833 606 820 622 Q 808 637 751 651 L 672 637 Q 637 632 627 632 L 550 622 L 514 618 L 275 586 Q 250 582 235 582 L 203 577 Q 177 574 192 561 Q 200 555 207 548 C 225 533 245 536 275 541 Z" fill="black"></path>
				<path d="M 215 500 L 213 446 Q 202 293 183 212 Q 164 130 141 73 Q 119 15 107 -6 L 60 -82 Q 52 -95 56 -97 Q 59 -100 67 -92 L 92 -70 Q 143 -26 178 48 Q 198 94 218 157 Q 246 266 261 376 L 271 448 Q 275 496 283 510 L 288 522 Q 288 528 275 541 C 257 565 199 577 207 548 L 213 530 Q 213 523 215 500 Z" fill="black"></path>
				<path d="M 513 370 L 491 378 Q 470 383 455 375 L 428 366 L 379 353 L 333 345 Q 313 341 299 341 L 289 339 Q 279 339 277 337 Q 269 330 281 323 Q 287 317 296 315 Q 307 309 335 309 Q 341 307 348 309 L 367 311 L 427 321 L 485 332 L 525 342 Q 535 342 535 350 Q 537 362 513 370 Z" fill="black"></path>
				<path d="M 428 366 L 430 385 Q 432 404 437 425 Q 440 445 447 459 Q 453 474 451 482 Q 447 501 405 516 Q 363 530 361 516 Q 358 513 363 501 L 373 475 L 377 451 L 379 419 Q 380 412 380 391 L 379 353 L 375 214 L 370 127 Q 365 62 355 29 L 345 -8 L 347 -29 L 357 -56 Q 371 -93 383 -93 Q 391 -93 398 -83 Q 417 -53 417 -43 L 419 13 L 422 235 L 424 274 L 427 321 L 428 366 Z" fill="black"></path>
				<path d="M 367 311 L 352 275 Q 345 253 330 225 Q 287 149 266 118 L 237 81 Q 218 57 210 51 L 187 31 Q 179 25 183 20 Q 184 16 196 20 L 222 33 Q 250 45 296 94 Q 311 112 341 159 Q 371 206 375 214 C 444 334 379 339 367 311 Z" fill="red"></path>
				<path d="M 422 235 L 447 212 Q 458 195 479 174 Q 496 160 511 176 Q 518 181 516 201 Q 514 233 491 243 L 454 259 L 424 274 C 397 287 400 255 422 235 Z" fill="lightgray"></path>
				<path d="M 702 345 L 750 352 L 797 356 L 826 356 Q 851 356 854 365 Q 855 368 846 377 Q 819 399 808 403 Q 797 406 783 406 L 761 399 Q 761 398 748 395 L 714 387 L 705 382 L 656 373 L 632 370 Q 628 369 605 367 L 591 367 L 582 365 L 560 363 Q 553 362 550 360 Q 547 357 549 354 Q 552 345 577 334 Q 603 323 614 324 L 627 326 L 648 334 L 702 345 Z" fill="lightgray"></path>
				<path d="M 698 -104 L 705 -77 L 701 48 L 701 235 L 701 289 L 702 345 L 705 382 L 705 406 Q 708 418 710 436 L 713 464 Q 714 475 720 496 Q 730 520 722 526 L 693 544 Q 644 566 637 551 Q 630 549 639 532 Q 649 515 652 475 Q 656 434 656 424 L 656 373 L 657 230 L 653 124 Q 651 100 645 52 Q 640 4 639 2 Q 639 -1 636 -13 L 629 -44 Q 626 -62 632 -88 Q 638 -115 655 -132 Q 666 -151 684 -131 Q 695 -116 698 -104 Z" fill="lightgray"></path>
				<path d="M 648 334 L 638 312 L 632 292 Q 600 215 573 167 Q 544 109 505 70 L 461 22 Q 454 17 458 12 Q 458 7 468 12 L 496 24 Q 516 34 529 46 Q 572 86 594 118 Q 616 149 632 183 Q 649 216 657 230 C 729 359 660 361 648 334 Z" fill="lightgray"></path>
				<path d="M 701 235 L 713 216 L 765 124 L 804 48 Q 820 21 836 19 Q 842 16 863 18 L 905 20 Q 925 22 943 25 L 957 28 Q 964 30 965 36 Q 967 42 957 46 L 940 53 Q 926 57 922 60 L 887 80 L 851 103 Q 839 110 813 137 Q 787 163 766 192 L 722 256 L 701 289 C 685 314 685 260 701 235 Z" fill="lightgray"></path>
</g>
		<text x="40" y="140" font-size="128" fill="#999999">6</text></g>
		<g id="id1:id1:id1" transform="matrix(1.0,0,0,1.0,1024,0.0)">			<g stroke="lightgray" stroke-width="4" transform="scale(4, 4)"> <rect x="0" y="0" width="256" height="256" fill="white" stroke-width="4"/></g>
			<g transform="scale(0.92, -0.92) translate(60, -920)">					<path d="M 550 622 L 558 641 Q 567 666 560 682 Q 558 699 485 730 L 459 738 Q 447 743 445 738 Q 443 733 447 729 L 459 713 L 476 682 L 514 618 C 529 592 538 594 550 622 Z" fill="black"></path>
				<path d="M 275 541 L 329 550 L 476 567 L 539 576 L 625 584 Q 643 585 681 589 L 782 594 L 823 598 Q 831 599 832 603 Q 833 606 820 622 Q 808 637 751 651 L 672 637 Q 637 632 627 632 L 550 622 L 514 618 L 275 586 Q 250 582 235 582 L 203 577 Q 177 574 192 561 Q 200 555 207 548 C 225 533 245 536 275 541 Z" fill="black"></path>
				<path d="M 215 500 L 213 446 Q 202 293 183 212 Q 164 130 141 73 Q 119 15 107 -6 L 60 -82 Q 52 -95 56 -97 Q 59 -100 67 -92 L 92 -70 Q 143 -26 178 48 Q 198 94 218 157 Q 246 266 261 376 L 271 448 Q 275 496 283 510 L 288 522 Q 288 528 275 541 C 257 565 199 577 207 548 L 213 530 Q 213 523 215 500 Z" fill="black"></path>
				<path d="M 513 370 L 491 378 Q 470 383 455 375 L 428 366 L 379 353 L 333 345 Q 313 341 299 341 L 289 339 Q 279 339 277 337 Q 269 330 281 323 Q 287 317 296 315 Q 307 309 335 309 Q 341 307 348 309 L 367 311 L 427 321 L 485 332 L 525 342 Q 535 342 535 350 Q 537 362 513 370 Z" fill="black"></path>
				<path d="M 428 366 L 430 385 Q 432 404 437 425 Q 440 445 447 459 Q 453 474 451 482 Q 447 501 405 516 Q 363 530 361 516 Q 358 513 363 501 L 373 475 L 377 451 L 379 419 Q 380 412 380 391 L 379 353 L 375 214 L 370 127 Q 365 62 355 29 L 345 -8 L 347 -29 L 357 -56 Q 371 -93 383 -93 Q 391 -93 398 -83 Q 417 -53 417 -43 L 419 13 L 422 235 L 424 274 L 427 321 L 428 366 Z" fill="black"></path>
				<path d="M 367 311 L 352 275 Q 345 253 330 225 Q 287 149 266 118 L 237 81 Q 218 57 210 51 L 187 31 Q 179 25 183 20 Q 184 16 196 20 L 222 33 Q 250 45 296 94 Q 311 112 341 159 Q 371 206 375 214 C 444 334 379 339 367 311 Z" fill="black"></path>
				<path d="M 422 235 L 447 212 Q 458 195 479 174 Q 496 160 511 176 Q 518 181 516 201 Q 514 233 491 243 L 454 259 L 424 274 C 397 287 400 255 422 235 Z" fill="red"></path>
				<path d="M 702 345 L 750 352 L 797 356 L 826 356 Q 851 356 854 365 Q 855 368 846 377 Q 819 399 808 403 Q 797 406 783 406 L 761 399 Q 761 398 748 395 L 714 387 L 705 382 L 656 373 L 632 370 Q 628 369 605 367 L 591 367 L 582 365 L 560 363 Q 553 362 550 360 Q 547 357 549 354 Q 552 345 577 334 Q 603 323 614 324 L 627 326 L 648 334 L 702 345 Z" fill="lightgray"></path>
				<path d="M 698 -104 L 705 -77 L 701 48 L 701 235 L 701 289 L 702 345 L 705 382 L 705 406 Q 708 418 710 436 L 713 464 Q 714 475 720 496 Q 730 520 722 526 L 693 544 Q 644 566 637 551 Q 630 549 639 532 Q 649 515 652 475 Q 656 434 656 424 L 656 373 L 657 230 L 653 124 Q 651 100 645 52 Q 640 4 639 2 Q 639 -1 636 -13 L 629 -44 Q 626 -62 632 -88 Q 638 -115 655 -132 Q 666 -151 684 -131 Q 695 -116 698 -104 Z" fill="lightgray"></path>
				<path d="M 648 334 L 638 312 L 632 292 Q 600 215 573 167 Q 544 109 505 70 L 461 22 Q 454 17 458 12 Q 458 7 468 12 L 496 24 Q 516 34 529 46 Q 572 86 594 118 Q 616 149 632 183 Q 649 216 657 230 C 729 359 660 361 648 334 Z" fill="lightgray"></path>
				<path d="M 701 235 L 713 216 L 765 124 L 804 48 Q 820 21 836 19 Q 842 16 863 18 L 905 20 Q 925 22 943 25 L 957 28 Q 964 30 965 36 Q 967 42 957 46 L 940 53 Q 926 57 922 60 L 887 80 L 851 103 Q 839 110 813 137 Q 787 163 766 192 L 722 256 L 701 289 C 685 314 685 260 701 235 Z" fill="lightgray"></path>
</g>
		<text x="40" y="140" font-size="128" fill="#999999">7</text></g>
		<g id="id1:id2:id2" transform="matrix(1.0,0,0,1.0,2048,0.0)">			<g stroke="lightgray" stroke-width="4" transform="scale(4, 4)"> <rect x="0" y="0" width="256" height="256" fill="white" stroke-width="4"/></g>
			<g transform="scale(0.92, -0.92) translate(60, -920)">					<path d="M 550 622 L 558 641 Q 567 666 560 682 Q 558 699 485 730 L 459 738 Q 447 743 445 738 Q 443 733 447 729 L 459 713 L 476 682 L 514 618 C 529 592 538 594 550 622 Z" fill="black"></path>
				<path d="M 275 541 L 329 550 L 476 567 L 539 576 L 625 584 Q 643 585 681 589 L 782 594 L 823 598 Q 831 599 832 603 Q 833 606 820 622 Q 808 637 751 651 L 672 637 Q 637 632 627 632 L 550 622 L 514 618 L 275 586 Q 250 582 235 582 L 203 577 Q 177 574 192 561 Q 200 555 207 548 C 225 533 245 536 275 541 Z" fill="black"></path>
				<path d="M 215 500 L 213 446 Q 202 293 183 212 Q 164 130 141 73 Q 119 15 107 -6 L 60 -82 Q 52 -95 56 -97 Q 59 -100 67 -92 L 92 -70 Q 143 -26 178 48 Q 198 94 218 157 Q 246 266 261 376 L 271 448 Q 275 496 283 510 L 288 522 Q 288 528 275 541 C 257 565 199 577 207 548 L 213 530 Q 213 523 215 500 Z" fill="black"></path>
				<path d="M 513 370 L 491 378 Q 470 383 455 375 L 428 366 L 379 353 L 333 345 Q 313 341 299 341 L 289 339 Q 279 339 277 337 Q 269 330 281 323 Q 287 317 296 315 Q 307 309 335 309 Q 341 307 348 309 L 367 311 L 427 321 L 485 332 L 525 342 Q 535 342 535 350 Q 537 362 513 370 Z" fill="black"></path>
				<path d="M 428 366 L 430 385 Q 432 404 437 425 Q 440 445 447 459 Q 453 474 451 482 Q 447 501 405 516 Q 363 530 361 516 Q 358 513 363 501 L 373 475 L 377 451 L 379 419 Q 380 412 380 391 L 379 353 L 375 214 L 370 127 Q 365 62 355 29 L 345 -8 L 347 -29 L 357 -56 Q 371 -93 383 -93 Q 391 -93 398 -83 Q 417 -53 417 -43 L 419 13 L 422 235 L 424 274 L 427 321 L 428 366 Z" fill="black"></path>
				<path d="M 367 311 L 352 275 Q 345 253 330 225 Q 287 149 266 118 L 237 81 Q 218 57 210 51 L 187 31 Q 179 25 183 20 Q 184 16 196 20 L 222 33 Q 250 45 296 94 Q 311 112 341 159 Q 371 206 375 214 C 444 334 379 339 367 311 Z" fill="black"></path>
				<path d="M 422 235 L 447 212 Q 458 195 479 174 Q 496 160 511 176 Q 518 181 516 201 Q 514 233 491 243 L 454 259 L 424 274 C 397 287 400 255 422 235 Z" fill="black"></path>
				<path d="M 702 345 L 750 352 L 797 356 L 826 356 Q 851 356 854 365 Q 855 368 846 377 Q 819 399 808 403 Q 797 406 783 406 L 761 399 Q 761 398 748 395 L 714 387 L 705 382 L 656 373 L 632 370 Q 628 369 605 367 L 591 367 L 582 365 L 560 363 Q 553 362 550 360 Q 547 357 549 354 Q 552 345 577 334 Q 603 323 614 324 L 627 326 L 648 334 L 702 345 Z" fill="red"></path>
				<path d="M 698 -104 L 705 -77 L 701 48 L 701 235 L 701 289 L 702 345 L 705 382 L 705 406 Q 708 418 710 436 L 713 464 Q 714 475 720 496 Q 730 520 722 526 L 693 544 Q 644 566 637 551 Q 630 549 639 532 Q 649 515 652 475 Q 656 434 656 424 L 656 373 L 657 230 L 653 124 Q 651 100 645 52 Q 640 4 639 2 Q 639 -1 636 -13 L 629 -44 Q 626 -62 632 -88 Q 638 -115 655 -132 Q 666 -151 684 -131 Q 695 -116 698 -104 Z" fill="lightgray"></path>
				<path d="M 648 334 L 638 312 L 632 292 Q 600 215 573 167 Q 544 109 505 70 L 461 22 Q 454 17 458 12 Q 458 7 468 12 L 496 24 Q 516 34 529 46 Q 572 86 594 118 Q 616 149 632 183 Q 649 216 657 230 C 729 359 660 361 648 334 Z" fill="lightgray"></path>
				<path d="M 701 235 L 713 216 L 765 124 L 804 48 Q 820 21 836 19 Q 842 16 863 18 L 905 20 Q 925 22 943 25 L 957 28 Q 964 30 965 36 Q 967 42 957 46 L 940 53 Q 926 57 922 60 L 887 80 L 851 103 Q 839 110 813 137 Q 787 163 766 192 L 722 256 L 701 289 C 685 314 685 260 701 235 Z" fill="lightgray"></path>
</g>
		<text x="40" y="140" font-size="128" fill="#999999">8</text></g>
		<g id="id1:id3:id3" transform="matrix(1.0,0,0,1.0,3072,0.0)">			<g stroke="lightgray" stroke-width="4" transform="scale(4, 4)"> <rect x="0" y="0" width="256" height="256" fill="white" stroke-width="4"/></g>
			<g transform="scale(0.92, -0.92) translate(60, -920)">					<path d="M 550 622 L 558 641 Q 567 666 560 682 Q 558 699 485 730 L 459 738 Q 447 743 445 738 Q 443 733 447 729 L 459 713 L 476 682 L 514 618 C 529 592 538 594 550 622 Z" fill="black"></path>
				<path d="M 275 541 L 329 550 L 476 567 L 539 576 L 625 584 Q 643 585 681 589 L 782 594 L 823 598 Q 831 599 832 603 Q 833 606 820 622 Q 808 637 751 651 L 672 637 Q 637 632 627 632 L 550 622 L 514 618 L 275 586 Q 250 582 235 582 L 203 577 Q 177 574 192 561 Q 200 555 207 548 C 225 533 245 536 275 541 Z" fill="black"></path>
				<path d="M 215 500 L 213 446 Q 202 293 183 212 Q 164 130 141 73 Q 119 15 107 -6 L 60 -82 Q 52 -95 56 -97 Q 59 -100 67 -92 L 92 -70 Q 143 -26 178 48 Q 198 94 218 157 Q 246 266 261 376 L 271 448 Q 275 496 283 510 L 288 522 Q 288 528 275 541 C 257 565 199 577 207 548 L 213 530 Q 213 523 215 500 Z" fill="black"></path>
				<path d="M 513 370 L 491 378 Q 470 383 455 375 L 428 366 L 379 353 L 333 345 Q 313 341 299 341 L 289 339 Q 279 339 277 337 Q 269 330 281 323 Q 287 317 296 315 Q 307 309 335 309 Q 341 307 348 309 L 367 311 L 427 321 L 485 332 L 525 342 Q 535 342 535 350 Q 537 362 513 370 Z" fill="black"></path>
				<path d="M 428 366 L 430 385 Q 432 404 437 425 Q 440 445 447 459 Q 453 474 451 482 Q 447 501 405 516 Q 363 530 361 516 Q 358 513 363 501 L 373 475 L 377 451 L 379 419 Q 380 412 380 391 L 379 353 L 375 214 L 370 127 Q 365 62 355 29 L 345 -8 L 347 -29 L 357 -56 Q 371 -93 383 -93 Q 391 -93 398 -83 Q 417 -53 417 -43 L 419 13 L 422 235 L 424 274 L 427 321 L 428 366 Z" fill="black"></path>
				<path d="M 367 311 L 352 275 Q 345 253 330 225 Q 287 149 266 118 L 237 81 Q 218 57 210 51 L 187 31 Q 179 25 183 20 Q 184 16 196 20 L 222 33 Q 250 45 296 94 Q 311 112 341 159 Q 371 206 375 214 C 444 334 379 339 367 311 Z" fill="black"></path>
				<path d="M 422 235 L 447 212 Q 458 195 479 174 Q 496 160 511 176 Q 518 181 516 201 Q 514 233 491 243 L 454 259 L 424 274 C 397 287 400 255 422 235 Z" fill="black"></path>
				<path d="M 702 345 L 750 352 L 797 356 L 826 356 Q 851 356 854 365 Q 855 368 846 377 Q 819 399 808 403 Q 797 406 783 406 L 761 399 Q 761 398 748 395 L 714 387 L 705 382 L 656 373 L 632 370 Q 628 369 605 367 L 591 367 L 582 365 L 560 363 Q 553 362 550 360 Q 547 357 549 354 Q 552 345 577 334 Q 603 323 614 324 L 627 326 L 648 334 L 702 345 Z" fill="black"></path>
				<path d="M 698 -104 L 705 -77 L 701 48 L 701 235 L 701 289 L 702 345 L 705 382 L 705 406 Q 708 418 710 436 L 713 464 Q 714 475 720 496 Q 730 520 722 526 L 693 544 Q 644 566 637 551 Q 630 549 639 532 Q 649 515 652 475 Q 656 434 656 424 L 656 373 L 657 230 L 653 124 Q 651 100 645 52 Q 640 4 639 2 Q 639 -1 636 -13 L 629 -44 Q 626 -62 632 -88 Q 638 -115 655 -132 Q 666 -151 684 -131 Q 695 -116 698 -104 Z" fill="red"></path>
				<path d="M 648 334 L 638 312 L 632 292 Q 600 215 573 167 Q 544 109 505 70 L 461 22 Q 454 17 458 12 Q 458 7 468 12 L 496 24 Q 516 34 529 46 Q 572 86 594 118 Q 616 149 632 183 Q 649 216 657 230 C 729 359 660 361 648 334 Z" fill="lightgray"></path>
				<path d="M 701 235 L 713 216 L 765 124 L 804 48 Q 820 21 836 19 Q 842 16 863 18 L 905 20 Q 925 22 943 25 L 957 28 Q 964 30 965 36 Q 967 42 957 46 L 940 53 Q 926 57 922 60 L 887 80 L 851 103 Q 839 110 813 137 Q 787 163 766 192 L 722 256 L 701 289 C 685 314 685 260 701 235 Z" fill="lightgray"></path>
</g>
		<text x="40" y="140" font-size="128" fill="#999999">9</text></g>
		<g id="id1:id4:id4" transform="matrix(1.0,0,0,1.0,4096,0.0)">			<g stroke="lightgray" stroke-width="4" transform="scale(4, 4)"> <rect x="0" y="0" width="256" height="256" fill="white" stroke-width="4"/></g>
			<g transform="scale(0.92, -0.92) translate(60, -920)">					<path d="M 550 622 L 558 641 Q 567 666 560 682 Q 558 699 485 730 L 459 738 Q 447 743 445 738 Q 443 733 447 729 L 459 713 L 476 682 L 514 618 C 529 592 538 594 550 622 Z" fill="black"></path>
				<path d="M 275 541 L 329 550 L 476 567 L 539 576 L 625 584 Q 643 585 681 589 L 782 594 L 823 598 Q 831 599 832 603 Q 833 606 820 622 Q 808 637 751 651 L 672 637 Q 637 632 627 632 L 550 622 L 514 618 L 275 586 Q 250 582 235 582 L 203 577 Q 177 574 192 561 Q 200 555 207 548 C 225 533 245 536 275 541 Z" fill="black"></path>
				<path d="M 215 500 L 213 446 Q 202 293 183 212 Q 164 130 141 73 Q 119 15 107 -6 L 60 -82 Q 52 -95 56 -97 Q 59 -100 67 -92 L 92 -70 Q 143 -26 178 48 Q 198 94 218 157 Q 246 266 261 376 L 271 448 Q 275 496 283 510 L 288 522 Q 288 528 275 541 C 257 565 199 577 207 548 L 213 530 Q 213 523 215 500 Z" fill="black"></path>
				<path d="M 513 370 L 491 378 Q 470 383 455 375 L 428 366 L 379 353 L 333 345 Q 313 341 299 341 L 289 339 Q 279 339 277 337 Q 269 330 281 323 Q 287 317 296 315 Q 307 309 335 309 Q 341 307 348 309 L 367 311 L 427 321 L 485 332 L 525 342 Q 535 342 535 350 Q 537 362 513 370 Z" fill="black"></path>
				<path d="M 428 366 L 430 385 Q 432 404 437 425 Q 440 445 447 459 Q 453 474 451 482 Q 447 501 405 516 Q 363 530 361 516 Q 358 513 363 501 L 373 475 L 377 451 L 379 419 Q 380 412 380 391 L 379 353 L 375 214 L 370 127 Q 365 62 355 29 L 345 -8 L 347 -29 L 357 -56 Q 371 -93 383 -93 Q 391 -93 398 -83 Q 417 -53 417 -43 L 419 13 L 422 235 L 424 274 L 427 321 L 428 366 Z" fill="black"></path>
				<path d="M 367 311 L 352 275 Q 345 253 330 225 Q 287 149 266 118 L 237 81 Q 218 57 210 51 L 187 31 Q 179 25 183 20 Q 184 16 196 20 L 222 33 Q 250 45 296 94 Q 311 112 341 159 Q 371 206 375 214 C 444 334 379 339 367 311 Z" fill="black"></path>
				<path d="M 422 235 L 447 212 Q 458 195 479 174 Q 496 160 511 176 Q 518 181 516 201 Q 514 233 491 243 L 454 259 L 424 274 C 397 287 400 255 422 235 Z" fill="black"></path>
				<path d="M 702 345 L 750 352 L 797 356 L 826 356 Q 851 356 854 365 Q 855 368 846 377 Q 819 399 808 403 Q 797 406 783 406 L 761 399 Q 761 398 748 395 L 714 387 L 705 382 L 656 373 L 632 370 Q 628 369 605 367 L 591 367 L 582 365 L 560 363 Q 553 362 550 360 Q 547 357 549 354 Q 552 345 577 334 Q 603 323 614 324 L 627 326 L 648 334 L 702 345 Z" fill="black"></path>
				<path d="M 698 -104 L 705 -77 L 701 48 L 701 235 L 701 289 L 702 345 L 705 382 L 705 406 Q 708 418 710 436 L 713 464 Q 714 475 720 496 Q 730 520 722 526 L 693 544 Q 644 566 637 551 Q 630 549 639 532 Q 649 515 652 475 Q 656 434 656 424 L 656 373 L 657 230 L 653 124 Q 651 100 645 52 Q 640 4 639 2 Q 639 -1 636 -13 L 629 -44 Q 626 -62 632 -88 Q 638 -115 655 -132 Q 666 -151 684 -131 Q 695 -116 698 -104 Z" fill="black"></path>
				<path d="M 648 334 L 638 312 L 632 292 Q 600 215 573 167 Q 544 109 505 70 L 461 22 Q 454 17 458 12 Q 458 7 468 12 L 496 24 Q 516 34 529 46 Q 572 86 594 118 Q 616 149 632 183 Q 649 216 657 230 C 729 359 660 361 648 334 Z" fill="red"></path>
				<path d="M 701 235 L 713 216 L 765 124 L 804 48 Q 820 21 836 19 Q 842 16 863 18 L 905 20 Q 925 22 943 25 L 957 28 Q 964 30 965 36 Q 967 42 957 46 L 940 53 Q 926 57 922 60 L 887 80 L 851 103 Q 839 110 813 137 Q 787 163 766 192 L 722 256 L 701 289 C 685 314 685 260 701 235 Z" fill="lightgray"></path>
</g>
		<text x="40" y="140" font-size="128" fill="#999999">10</text></g>
</g>
	<g id="id2:id2" transform="translate(0.0,2048)">
		<g id="id2:id0:id0" transform="matrix(1.0,0,0,1.0,0,0.0)">			<g stroke="lightgray" stroke-width="4" transform="scale(4, 4)"> <rect x="0" y="0" width="256" height="256" fill="white" stroke-width="4"/></g>
			<g transform="scale(0.92, -0.92) translate(60, -920)">					<path d="M 550 622 L 558 641 Q 567 666 560 682 Q 558 699 485 730 L 459 738 Q 447 743 445 738 Q 443 733 447 729 L 459 713 L 476 682 L 514 618 C 529 592 538 594 550 622 Z" fill="black"></path>
				<path d="M 275 541 L 329 550 L 476 567 L 539 576 L 625 584 Q 643 585 681 589 L 782 594 L 823 598 Q 831 599 832 603 Q 833 606 820 622 Q 808 637 751 651 L 672 637 Q 637 632 627 632 L 550 622 L 514 618 L 275 586 Q 250 582 235 582 L 203 577 Q 177 574 192 561 Q 200 555 207 548 C 225 533 245 536 275 541 Z" fill="black"></path>
				<path d="M 215 500 L 213 446 Q 202 293 183 212 Q 164 130 141 73 Q 119 15 107 -6 L 60 -82 Q 52 -95 56 -97 Q 59 -100 67 -92 L 92 -70 Q 143 -26 178 48 Q 198 94 218 157 Q 246 266 261 376 L 271 448 Q 275 496 283 510 L 288 522 Q 288 528 275 541 C 257 565 199 577 207 548 L 213 530 Q 213 523 215 500 Z" fill="black"></path>
				<path d="M 513 370 L 491 378 Q 470 383 455 375 L 428 366 L 379 353 L 333 345 Q 313 341 299 341 L 289 339 Q 279 339 277 337 Q 269 330 281 323 Q 287 317 296 315 Q 307 309 335 309 Q 341 307 348 309 L 367 311 L 427 321 L 485 332 L 525 342 Q 535 342 535 350 Q 537 362 513 370 Z" fill="black"></path>
				<path d="M 428 366 L 430 385 Q 432 404 437 425 Q 440 445 447 459 Q 453 474 451 482 Q 447 501 405 516 Q 363 530 361 516 Q 358 513 363 501 L 373 475 L 377 451 L 379 419 Q 380 412 380 391 L 379 353 L 375 214 L 370 127 Q 365 62 355 29 L 345 -8 L 347 -29 L 357 -56 Q 371 -93 383 -93 Q 391 -93 398 -83 Q 417 -53 417 -43 L 419 13 L 422 235 L 424 274 L 427 321 L 428 366 Z" fill="black"></path>
				<path d="M 367 311 L 352 275 Q 345 253 330 225 Q 287 149 266 118 L 237 81 Q 218 57 210 51 L 187 31 Q 179 25 183 20 Q 184 16 196 20 L 222 33 Q 250 45 296 94 Q 311 112 341 159 Q 371 206 375 214 C 444 334 379 339 367 311 Z" fill="black"></path>
				<path d="M 422 235 L 447 212 Q 458 195 479 174 Q 496 160 511 176 Q 518 181 516 201 Q 514 233 491 243 L 454 259 L 424 274 C 397 287 400 255 422 235 Z" fill="black"></path>
				<path d="M 702 345 L 750 352 L 797 356 L 826 356 Q 851 356 854 365 Q 855 368 846 377 Q 819 399 808 403 Q 797 406 783 406 L 761 399 Q 761 398 748 395 L 714 387 L 705 382 L 656 373 L 632 370 Q 628 369 605 367 L 591 367 L 582 365 L 560 363 Q 553 362 550 360 Q 547 357 549 354 Q 552 345 577 334 Q 603 323 614 324 L 627 326 L 648 334 L 702 345 Z" fill="black"></path>
				<path d="M 698 -104 L 705 -77 L 701 48 L 701 235 L 701 289 L 702 345 L 705 382 L 705 406 Q 708 418 710 436 L 713 464 Q 714 475 720 496 Q 730 520 722 526 L 693 544 Q 644 566 637 551 Q 630 549 639 532 Q 649 515 652 475 Q 656 434 656 424 L 656 373 L 657 230 L 653 124 Q 651 100 645 52 Q 640 4 639 2 Q 639 -1 636 -13 L 629 -44 Q 626 -62 632 -88 Q 638 -115 655 -132 Q 666 -151 684 -131 Q 695 -116 698 -104 Z" fill="black"></path>
				<path d="M 648 334 L 638 312 L 632 292 Q 600 215 573 167 Q 544 109 505 70 L 461 22 Q 454 17 458 12 Q 458 7 468 12 L 496 24 Q 516 34 529 46 Q 572 86 594 118 Q 616 149 632 183 Q 649 216 657 230 C 729 359 660 361 648 334 Z" fill="black"></path>
				<path d="M 701 235 L 713 216 L 765 124 L 804 48 Q 820 21 836 19 Q 842 16 863 18 L 905 20 Q 925 22 943 25 L 957 28 Q 964 30 965 36 Q 967 42 957 46 L 940 53 Q 926 57 922 60 L 887 80 L 851 103 Q 839 110 813 137 Q 787 163 766 192 L 722 256 L 701 289 C 685 314 685 260 701 235 Z" fill="red"></path>
</g>
		<text x="40" y="140" font-size="128" fill="#999999">11</text></g>
		<g id="id2:id1:id1" transform="matrix(1.0,0,0,1.0,1024,0.0)">			<g stroke="white" stroke-width="4" transform="scale(4, 4)"> <rect x="1" y="1" width="255" height="255" fill="white" stroke-width="0"/></g>
</g>
		<g id="id2:id2:id2" transform="matrix(1.0,0,0,1.0,2048,0.0)">			<g stroke="white" stroke-width="4" transform="scale(4, 4)"> <rect x="1" y="1" width="255" height="255" fill="white" stroke-width="0"/></g>
</g>
		<g id="id2:id3:id3" transform="matrix(1.0,0,0,1.0,3072,0.0)">			<g stroke="white" stroke-width="4" transform="scale(4, 4)"> <rect x="1" y="1" width="255" height="255" fill="white" stroke-width="0"/></g>
</g>
		<g id="id2:id4:id4" transform="matrix(1.0,0,0,1.0,4096,0.0)">			<g stroke="white" stroke-width="4" transform="scale(4, 4)"> <rect x="1" y="1" width="255" height="255" fill="white" stroke-width="0"/></g>
</g>
</g>
</svg>
