<?xml version="1.0" standalone="no"?>
<!DOCTYPE svg PUBLIC "-//W3C//DTD SVG 1.1//EN"
 "http://www.w3.org/Graphics/SVG/1.1/DTD/svg11.dtd">
<!-- generate by Japanese dictionary app com.asnsami.kanjidictionary -->

<svg xmlns="http://www.w3.org/2000/svg" xmlns:sodipodi="http://sodipodi.sourceforge.net/DTD/sodipodi-0.dtd" version="1.1" width="640" height="512" viewBox="0 0 5120 4096">
	<g id="id0:id0" transform="translate(0.0,0)">
		<g id="id0:id0:id0" transform="matrix(1.0,0,0,1.0,0,0.0)">			<g stroke="lightgray" stroke-width="4" transform="scale(4, 4)"> <rect x="0" y="0" width="256" height="256" fill="white" stroke-width="4"/></g>
			<g transform="scale(0.92, -0.92) translate(60, -920)">					<path d="M 145 531 L 182 554 L 251 602 Q 269 614 279 619 Q 289 623 292 629 Q 297 641 257 658 Q 233 668 226 672 Q 215 677 212 652 Q 210 642 199 627 L 177 596 Q 164 580 153 568 L 129 545 C 107 524 120 515 145 531 Z" fill="red"></path>
				<path d="M 153 452 L 149 496 Q 149 502 145 531 C 144 541 144 541 129 545 L 115 549 Q 94 555 84 551 Q 74 546 88 528 Q 103 509 107 463 L 120 347 Q 127 304 143 304 Q 152 304 158 327 L 159 358 L 154 428 L 153 452 Z" fill="lightgray"></path>
				<path d="M 154 428 L 180 432 L 207 438 Q 235 442 234 452 Q 234 462 210 467 Q 194 469 153 452 C 125 441 124 423 154 428 Z" fill="lightgray"></path>
				<path d="M 336 346 L 342 337 Q 343 332 351 330 Q 369 327 382 354 L 387 380 L 410 469 Q 410 476 426 515 Q 427 519 434 529 Q 442 538 442 542 Q 443 546 426 560 Q 410 574 386 580 Q 373 586 357 580 L 338 571 Q 316 563 290 557 L 266 550 Q 249 546 260 534 Q 271 521 309 536 L 330 542 Q 357 552 364 545 Q 369 534 364 515 L 359 477 L 357 454 L 343 389 Q 341 377 338 374 Q 336 370 326 372 C 320 371 320 371 336 346 Z" fill="lightgray"></path>
				<path d="M 359 477 L 347 479 Q 335 482 328 479 L 305 475 L 281 469 Q 260 467 273 454 Q 279 447 292 446 Q 306 445 357 454 C 387 459 389 472 359 477 Z" fill="lightgray"></path>
				<path d="M 158 327 L 234 335 Q 274 341 336 346 C 366 348 354 361 326 372 L 313 377 L 299 380 Q 293 380 266 373 Q 240 366 218 366 L 159 358 C 129 354 128 324 158 327 Z" fill="lightgray"></path>
				<path d="M 140 225 L 147 260 Q 147 267 126 276 Q 105 284 95 284 Q 85 284 83 282 Q 82 279 85 270 L 92 252 Q 98 228 98 205 L 96 89 L 91 51 Q 88 20 82 4 Q 76 -6 76 -14 Q 76 -22 83 -40 Q 90 -58 102 -58 Q 106 -58 114 -47 L 143 -10 L 200 56 Q 206 61 203 65 Q 200 68 190 61 L 143 30 Q 133 23 132 24 Q 127 29 129 49 L 132 114 L 133 136 L 138 203 L 140 225 Z" fill="lightgray"></path>
				<path d="M 138 203 L 155 202 Q 161 202 188 207 Q 216 212 216 220 Q 218 226 204 232 Q 191 238 184 238 Q 178 238 168 234 L 154 229 Q 150 227 140 225 C 111 219 108 205 138 203 Z" fill="lightgray"></path>
				<path d="M 132 114 L 147 113 Q 152 112 173 117 L 198 123 Q 216 125 216 132 Q 219 138 205 144 Q 191 150 185 150 Q 179 150 170 147 L 133 136 C 104 127 102 116 132 114 Z" fill="lightgray"></path>
				<path d="M 229 210 L 224 39 L 220 16 Q 218 4 216 0 L 211 -14 Q 210 -17 215 -30 Q 224 -61 238 -61 Q 244 -61 256 -45 Q 268 -30 296 -2 L 349 54 Q 358 61 356 64 Q 354 67 343 61 L 280 25 Q 273 21 270 22 Q 267 23 267 32 L 268 119 L 268 141 L 270 210 L 272 233 L 273 249 L 279 272 Q 280 277 279 280 Q 279 288 257 300 Q 236 311 224 311 Q 210 312 214 298 L 221 283 Q 229 264 229 210 Z" fill="lightgray"></path>
				<path d="M 270 210 L 286 210 Q 307 210 328 215 Q 347 218 344 230 Q 343 232 332 239 Q 321 246 319 246 L 272 233 C 243 225 240 210 270 210 Z" fill="lightgray"></path>
				<path d="M 268 119 L 290 119 Q 339 116 351 133 Q 351 142 337 146 Q 324 150 311 150 Q 292 150 268 141 C 240 131 238 119 268 119 Z" fill="lightgray"></path>
				<path d="M 351 320 Q 330 320 342 298 Q 355 275 357 222 L 361 159 Q 372 78 419 21 Q 507 -85 708 -83 Q 811 -82 866 -53 Q 888 -43 896 -32 Q 905 -22 896 -2 L 887 12 Q 872 39 864 87 L 859 117 Q 857 128 851 128 Q 845 128 843 120 L 838 88 Q 829 25 814 11 Q 790 -11 723 -18 Q 576 -32 490 22 Q 391 82 398 219 Q 399 261 406 274 Q 410 282 409 285 Q 409 295 386 308 Q 364 320 351 320 Z" fill="lightgray"></path>
				<path d="M 515 152 L 509 300 L 508 371 C 508 393 508 393 495 396 L 464 404 Q 441 407 448 389 L 458 371 Q 469 336 469 310 L 479 148 Q 479 139 482 125 Q 488 88 502 90 Q 510 88 515 104 L 516 120 L 515 152 Z" fill="lightgray"></path>
				<path d="M 508 371 L 548 378 L 588 384 L 638 391 L 678 396 L 740 401 Q 750 400 752 398 Q 755 396 757 387 L 757 366 L 748 216 L 742 181 Q 740 167 737 166 C 728 137 693 168 704 140 L 712 120 Q 717 108 722 93 Q 727 78 732 74 Q 737 69 754 78 Q 780 98 795 188 L 813 343 Q 817 372 823 382 Q 830 392 829 395 Q 829 403 815 413 Q 801 422 796 426 Q 792 430 786 434 Q 780 438 777 438 L 770 439 Q 766 440 741 436 L 639 417 L 588 409 L 495 396 C 465 392 478 366 508 371 Z" fill="lightgray"></path>
				<path d="M 586 282 L 542 275 L 531 268 Q 530 267 530 265 Q 520 262 531 252 Q 536 247 551 245 Q 567 242 575 243 L 590 247 L 637 255 L 687 261 Q 711 262 719 268 L 727 274 L 723 284 Q 718 291 707 295 Q 697 299 692 299 Q 688 299 637 289 L 586 282 Z" fill="lightgray"></path>
				<path d="M 588 384 L 586 282 L 590 247 L 590 158 C 590 128 637 134 637 164 L 637 255 L 637 289 L 638 391 L 639 417 L 641 488 Q 641 496 643 520 L 651 573 L 662 604 Q 661 618 631 630 Q 625 631 609 638 Q 593 644 582 643 Q 562 644 570 624 L 577 605 Q 588 577 588 512 L 588 409 L 588 384 Z" fill="lightgray"></path>
				<path d="M 590 158 L 553 154 L 515 152 C 485 150 486 118 516 120 L 549 122 Q 561 122 591 126 L 704 140 C 734 144 767 165 737 166 Q 734 164 723 169 Q 712 174 704 174 L 668 170 L 637 164 L 590 158 Z" fill="lightgray"></path>
</g>
		<text x="40" y="140" font-size="128" fill="#999999">1</text></g>
		<g id="id0:id1:id1" transform="matrix(1.0,0,0,1.0,1024,0.0)">			<g stroke="lightgray" stroke-width="4" transform="scale(4, 4)"> <rect x="0" y="0" width="256" height="256" fill="white" stroke-width="4"/></g>
			<g transform="scale(0.92, -0.92) translate(60, -920)">					<path d="M 145 531 L 182 554 L 251 602 Q 269 614 279 619 Q 289 623 292 629 Q 297 641 257 658 Q 233 668 226 672 Q 215 677 212 652 Q 210 642 199 627 L 177 596 Q 164 580 153 568 L 129 545 C 107 524 120 515 145 531 Z" fill="black"></path>
				<path d="M 153 452 L 149 496 Q 149 502 145 531 C 144 541 144 541 129 545 L 115 549 Q 94 555 84 551 Q 74 546 88 528 Q 103 509 107 463 L 120 347 Q 127 304 143 304 Q 152 304 158 327 L 159 358 L 154 428 L 153 452 Z" fill="red"></path>
				<path d="M 154 428 L 180 432 L 207 438 Q 235 442 234 452 Q 234 462 210 467 Q 194 469 153 452 C 125 441 124 423 154 428 Z" fill="lightgray"></path>
				<path d="M 336 346 L 342 337 Q 343 332 351 330 Q 369 327 382 354 L 387 380 L 410 469 Q 410 476 426 515 Q 427 519 434 529 Q 442 538 442 542 Q 443 546 426 560 Q 410 574 386 580 Q 373 586 357 580 L 338 571 Q 316 563 290 557 L 266 550 Q 249 546 260 534 Q 271 521 309 536 L 330 542 Q 357 552 364 545 Q 369 534 364 515 L 359 477 L 357 454 L 343 389 Q 341 377 338 374 Q 336 370 326 372 C 320 371 320 371 336 346 Z" fill="lightgray"></path>
				<path d="M 359 477 L 347 479 Q 335 482 328 479 L 305 475 L 281 469 Q 260 467 273 454 Q 279 447 292 446 Q 306 445 357 454 C 387 459 389 472 359 477 Z" fill="lightgray"></path>
				<path d="M 158 327 L 234 335 Q 274 341 336 346 C 366 348 354 361 326 372 L 313 377 L 299 380 Q 293 380 266 373 Q 240 366 218 366 L 159 358 C 129 354 128 324 158 327 Z" fill="lightgray"></path>
				<path d="M 140 225 L 147 260 Q 147 267 126 276 Q 105 284 95 284 Q 85 284 83 282 Q 82 279 85 270 L 92 252 Q 98 228 98 205 L 96 89 L 91 51 Q 88 20 82 4 Q 76 -6 76 -14 Q 76 -22 83 -40 Q 90 -58 102 -58 Q 106 -58 114 -47 L 143 -10 L 200 56 Q 206 61 203 65 Q 200 68 190 61 L 143 30 Q 133 23 132 24 Q 127 29 129 49 L 132 114 L 133 136 L 138 203 L 140 225 Z" fill="lightgray"></path>
				<path d="M 138 203 L 155 202 Q 161 202 188 207 Q 216 212 216 220 Q 218 226 204 232 Q 191 238 184 238 Q 178 238 168 234 L 154 229 Q 150 227 140 225 C 111 219 108 205 138 203 Z" fill="lightgray"></path>
				<path d="M 132 114 L 147 113 Q 152 112 173 117 L 198 123 Q 216 125 216 132 Q 219 138 205 144 Q 191 150 185 150 Q 179 150 170 147 L 133 136 C 104 127 102 116 132 114 Z" fill="lightgray"></path>
				<path d="M 229 210 L 224 39 L 220 16 Q 218 4 216 0 L 211 -14 Q 210 -17 215 -30 Q 224 -61 238 -61 Q 244 -61 256 -45 Q 268 -30 296 -2 L 349 54 Q 358 61 356 64 Q 354 67 343 61 L 280 25 Q 273 21 270 22 Q 267 23 267 32 L 268 119 L 268 141 L 270 210 L 272 233 L 273 249 L 279 272 Q 280 277 279 280 Q 279 288 257 300 Q 236 311 224 311 Q 210 312 214 298 L 221 283 Q 229 264 229 210 Z" fill="lightgray"></path>
				<path d="M 270 210 L 286 210 Q 307 210 328 215 Q 347 218 344 230 Q 343 232 332 239 Q 321 246 319 246 L 272 233 C 243 225 240 210 270 210 Z" fill="lightgray"></path>
				<path d="M 268 119 L 290 119 Q 339 116 351 133 Q 351 142 337 146 Q 324 150 311 150 Q 292 150 268 141 C 240 131 238 119 268 119 Z" fill="lightgray"></path>
				<path d="M 351 320 Q 330 320 342 298 Q 355 275 357 222 L 361 159 Q 372 78 419 21 Q 507 -85 708 -83 Q 811 -82 866 -53 Q 888 -43 896 -32 Q 905 -22 896 -2 L 887 12 Q 872 39 864 87 L 859 117 Q 857 128 851 128 Q 845 128 843 120 L 838 88 Q 829 25 814 11 Q 790 -11 723 -18 Q 576 -32 490 22 Q 391 82 398 219 Q 399 261 406 274 Q 410 282 409 285 Q 409 295 386 308 Q 364 320 351 320 Z" fill="lightgray"></path>
				<path d="M 515 152 L 509 300 L 508 371 C 508 393 508 393 495 396 L 464 404 Q 441 407 448 389 L 458 371 Q 469 336 469 310 L 479 148 Q 479 139 482 125 Q 488 88 502 90 Q 510 88 515 104 L 516 120 L 515 152 Z" fill="lightgray"></path>
				<path d="M 508 371 L 548 378 L 588 384 L 638 391 L 678 396 L 740 401 Q 750 400 752 398 Q 755 396 757 387 L 757 366 L 748 216 L 742 181 Q 740 167 737 166 C 728 137 693 168 704 140 L 712 120 Q 717 108 722 93 Q 727 78 732 74 Q 737 69 754 78 Q 780 98 795 188 L 813 343 Q 817 372 823 382 Q 830 392 829 395 Q 829 403 815 413 Q 801 422 796 426 Q 792 430 786 434 Q 780 438 777 438 L 770 439 Q 766 440 741 436 L 639 417 L 588 409 L 495 396 C 465 392 478 366 508 371 Z" fill="lightgray"></path>
				<path d="M 586 282 L 542 275 L 531 268 Q 530 267 530 265 Q 520 262 531 252 Q 536 247 551 245 Q 567 242 575 243 L 590 247 L 637 255 L 687 261 Q 711 262 719 268 L 727 274 L 723 284 Q 718 291 707 295 Q 697 299 692 299 Q 688 299 637 289 L 586 282 Z" fill="lightgray"></path>
				<path d="M 588 384 L 586 282 L 590 247 L 590 158 C 590 128 637 134 637 164 L 637 255 L 637 289 L 638 391 L 639 417 L 641 488 Q 641 496 643 520 L 651 573 L 662 604 Q 661 618 631 630 Q 625 631 609 638 Q 593 644 582 643 Q 562 644 570 624 L 577 605 Q 588 577 588 512 L 588 409 L 588 384 Z" fill="lightgray"></path>
				<path d="M 590 158 L 553 154 L 515 152 C 485 150 486 118 516 120 L 549 122 Q 561 122 591 126 L 704 140 C 734 144 767 165 737 166 Q 734 164 723 169 Q 712 174 704 174 L 668 170 L 637 164 L 590 158 Z" fill="lightgray"></path>
</g>
		<text x="40" y="140" font-size="128" fill="#999999">2</text></g>
		<g id="id0:id2:id2" transform="matrix(1.0,0,0,1.0,2048,0.0)">			<g stroke="lightgray" stroke-width="4" transform="scale(4, 4)"> <rect x="0" y="0" width="256" height="256" fill="white" stroke-width="4"/></g>
			<g transform="scale(0.92, -0.92) translate(60, -920)">					<path d="M 145 531 L 182 554 L 251 602 Q 269 614 279 619 Q 289 623 292 629 Q 297 641 257 658 Q 233 668 226 672 Q 215 677 212 652 Q 210 642 199 627 L 177 596 Q 164 580 153 568 L 129 545 C 107 524 120 515 145 531 Z" fill="black"></path>
				<path d="M 153 452 L 149 496 Q 149 502 145 531 C 144 541 144 541 129 545 L 115 549 Q 94 555 84 551 Q 74 546 88 528 Q 103 509 107 463 L 120 347 Q 127 304 143 304 Q 152 304 158 327 L 159 358 L 154 428 L 153 452 Z" fill="black"></path>
				<path d="M 154 428 L 180 432 L 207 438 Q 235 442 234 452 Q 234 462 210 467 Q 194 469 153 452 C 125 441 124 423 154 428 Z" fill="red"></path>
				<path d="M 336 346 L 342 337 Q 343 332 351 330 Q 369 327 382 354 L 387 380 L 410 469 Q 410 476 426 515 Q 427 519 434 529 Q 442 538 442 542 Q 443 546 426 560 Q 410 574 386 580 Q 373 586 357 580 L 338 571 Q 316 563 290 557 L 266 550 Q 249 546 260 534 Q 271 521 309 536 L 330 542 Q 357 552 364 545 Q 369 534 364 515 L 359 477 L 357 454 L 343 389 Q 341 377 338 374 Q 336 370 326 372 C 320 371 320 371 336 346 Z" fill="lightgray"></path>
				<path d="M 359 477 L 347 479 Q 335 482 328 479 L 305 475 L 281 469 Q 260 467 273 454 Q 279 447 292 446 Q 306 445 357 454 C 387 459 389 472 359 477 Z" fill="lightgray"></path>
				<path d="M 158 327 L 234 335 Q 274 341 336 346 C 366 348 354 361 326 372 L 313 377 L 299 380 Q 293 380 266 373 Q 240 366 218 366 L 159 358 C 129 354 128 324 158 327 Z" fill="lightgray"></path>
				<path d="M 140 225 L 147 260 Q 147 267 126 276 Q 105 284 95 284 Q 85 284 83 282 Q 82 279 85 270 L 92 252 Q 98 228 98 205 L 96 89 L 91 51 Q 88 20 82 4 Q 76 -6 76 -14 Q 76 -22 83 -40 Q 90 -58 102 -58 Q 106 -58 114 -47 L 143 -10 L 200 56 Q 206 61 203 65 Q 200 68 190 61 L 143 30 Q 133 23 132 24 Q 127 29 129 49 L 132 114 L 133 136 L 138 203 L 140 225 Z" fill="lightgray"></path>
				<path d="M 138 203 L 155 202 Q 161 202 188 207 Q 216 212 216 220 Q 218 226 204 232 Q 191 238 184 238 Q 178 238 168 234 L 154 229 Q 150 227 140 225 C 111 219 108 205 138 203 Z" fill="lightgray"></path>
				<path d="M 132 114 L 147 113 Q 152 112 173 117 L 198 123 Q 216 125 216 132 Q 219 138 205 144 Q 191 150 185 150 Q 179 150 170 147 L 133 136 C 104 127 102 116 132 114 Z" fill="lightgray"></path>
				<path d="M 229 210 L 224 39 L 220 16 Q 218 4 216 0 L 211 -14 Q 210 -17 215 -30 Q 224 -61 238 -61 Q 244 -61 256 -45 Q 268 -30 296 -2 L 349 54 Q 358 61 356 64 Q 354 67 343 61 L 280 25 Q 273 21 270 22 Q 267 23 267 32 L 268 119 L 268 141 L 270 210 L 272 233 L 273 249 L 279 272 Q 280 277 279 280 Q 279 288 257 300 Q 236 311 224 311 Q 210 312 214 298 L 221 283 Q 229 264 229 210 Z" fill="lightgray"></path>
				<path d="M 270 210 L 286 210 Q 307 210 328 215 Q 347 218 344 230 Q 343 232 332 239 Q 321 246 319 246 L 272 233 C 243 225 240 210 270 210 Z" fill="lightgray"></path>
				<path d="M 268 119 L 290 119 Q 339 116 351 133 Q 351 142 337 146 Q 324 150 311 150 Q 292 150 268 141 C 240 131 238 119 268 119 Z" fill="lightgray"></path>
				<path d="M 351 320 Q 330 320 342 298 Q 355 275 357 222 L 361 159 Q 372 78 419 21 Q 507 -85 708 -83 Q 811 -82 866 -53 Q 888 -43 896 -32 Q 905 -22 896 -2 L 887 12 Q 872 39 864 87 L 859 117 Q 857 128 851 128 Q 845 128 843 120 L 838 88 Q 829 25 814 11 Q 790 -11 723 -18 Q 576 -32 490 22 Q 391 82 398 219 Q 399 261 406 274 Q 410 282 409 285 Q 409 295 386 308 Q 364 320 351 320 Z" fill="lightgray"></path>
				<path d="M 515 152 L 509 300 L 508 371 C 508 393 508 393 495 396 L 464 404 Q 441 407 448 389 L 458 371 Q 469 336 469 310 L 479 148 Q 479 139 482 125 Q 488 88 502 90 Q 510 88 515 104 L 516 120 L 515 152 Z" fill="lightgray"></path>
				<path d="M 508 371 L 548 378 L 588 384 L 638 391 L 678 396 L 740 401 Q 750 400 752 398 Q 755 396 757 387 L 757 366 L 748 216 L 742 181 Q 740 167 737 166 C 728 137 693 168 704 140 L 712 120 Q 717 108 722 93 Q 727 78 732 74 Q 737 69 754 78 Q 780 98 795 188 L 813 343 Q 817 372 823 382 Q 830 392 829 395 Q 829 403 815 413 Q 801 422 796 426 Q 792 430 786 434 Q 780 438 777 438 L 770 439 Q 766 440 741 436 L 639 417 L 588 409 L 495 396 C 465 392 478 366 508 371 Z" fill="lightgray"></path>
				<path d="M 586 282 L 542 275 L 531 268 Q 530 267 530 265 Q 520 262 531 252 Q 536 247 551 245 Q 567 242 575 243 L 590 247 L 637 255 L 687 261 Q 711 262 719 268 L 727 274 L 723 284 Q 718 291 707 295 Q 697 299 692 299 Q 688 299 637 289 L 586 282 Z" fill="lightgray"></path>
				<path d="M 588 384 L 586 282 L 590 247 L 590 158 C 590 128 637 134 637 164 L 637 255 L 637 289 L 638 391 L 639 417 L 641 488 Q 641 496 643 520 L 651 573 L 662 604 Q 661 618 631 630 Q 625 631 609 638 Q 593 644 582 643 Q 562 644 570 624 L 577 605 Q 588 577 588 512 L 588 409 L 588 384 Z" fill="lightgray"></path>
				<path d="M 590 158 L 553 154 L 515 152 C 485 150 486 118 516 120 L 549 122 Q 561 122 591 126 L 704 140 C 734 144 767 165 737 166 Q 734 164 723 169 Q 712 174 704 174 L 668 170 L 637 164 L 590 158 Z" fill="lightgray"></path>
</g>
		<text x="40" y="140" font-size="128" fill="#999999">3</text></g>
		<g id="id0:id3:id3" transform="matrix(1.0,0,0,1.0,3072,0.0)">			<g stroke="lightgray" stroke-width="4" transform="scale(4, 4)"> <rect x="0" y="0" width="256" height="256" fill="white" stroke-width="4"/></g>
			<g transform="scale(0.92, -0.92) translate(60, -920)">					<path d="M 145 531 L 182 554 L 251 602 Q 269 614 279 619 Q 289 623 292 629 Q 297 641 257 658 Q 233 668 226 672 Q 215 677 212 652 Q 210 642 199 627 L 177 596 Q 164 580 153 568 L 129 545 C 107 524 120 515 145 531 Z" fill="black"></path>
				<path d="M 153 452 L 149 496 Q 149 502 145 531 C 144 541 144 541 129 545 L 115 549 Q 94 555 84 551 Q 74 546 88 528 Q 103 509 107 463 L 120 347 Q 127 304 143 304 Q 152 304 158 327 L 159 358 L 154 428 L 153 452 Z" fill="black"></path>
				<path d="M 154 428 L 180 432 L 207 438 Q 235 442 234 452 Q 234 462 210 467 Q 194 469 153 452 C 125 441 124 423 154 428 Z" fill="black"></path>
				<path d="M 336 346 L 342 337 Q 343 332 351 330 Q 369 327 382 354 L 387 380 L 410 469 Q 410 476 426 515 Q 427 519 434 529 Q 442 538 442 542 Q 443 546 426 560 Q 410 574 386 580 Q 373 586 357 580 L 338 571 Q 316 563 290 557 L 266 550 Q 249 546 260 534 Q 271 521 309 536 L 330 542 Q 357 552 364 545 Q 369 534 364 515 L 359 477 L 357 454 L 343 389 Q 341 377 338 374 Q 336 370 326 372 C 320 371 320 371 336 346 Z" fill="red"></path>
				<path d="M 359 477 L 347 479 Q 335 482 328 479 L 305 475 L 281 469 Q 260 467 273 454 Q 279 447 292 446 Q 306 445 357 454 C 387 459 389 472 359 477 Z" fill="lightgray"></path>
				<path d="M 158 327 L 234 335 Q 274 341 336 346 C 366 348 354 361 326 372 L 313 377 L 299 380 Q 293 380 266 373 Q 240 366 218 366 L 159 358 C 129 354 128 324 158 327 Z" fill="lightgray"></path>
				<path d="M 140 225 L 147 260 Q 147 267 126 276 Q 105 284 95 284 Q 85 284 83 282 Q 82 279 85 270 L 92 252 Q 98 228 98 205 L 96 89 L 91 51 Q 88 20 82 4 Q 76 -6 76 -14 Q 76 -22 83 -40 Q 90 -58 102 -58 Q 106 -58 114 -47 L 143 -10 L 200 56 Q 206 61 203 65 Q 200 68 190 61 L 143 30 Q 133 23 132 24 Q 127 29 129 49 L 132 114 L 133 136 L 138 203 L 140 225 Z" fill="lightgray"></path>
				<path d="M 138 203 L 155 202 Q 161 202 188 207 Q 216 212 216 220 Q 218 226 204 232 Q 191 238 184 238 Q 178 238 168 234 L 154 229 Q 150 227 140 225 C 111 219 108 205 138 203 Z" fill="lightgray"></path>
				<path d="M 132 114 L 147 113 Q 152 112 173 117 L 198 123 Q 216 125 216 132 Q 219 138 205 144 Q 191 150 185 150 Q 179 150 170 147 L 133 136 C 104 127 102 116 132 114 Z" fill="lightgray"></path>
				<path d="M 229 210 L 224 39 L 220 16 Q 218 4 216 0 L 211 -14 Q 210 -17 215 -30 Q 224 -61 238 -61 Q 244 -61 256 -45 Q 268 -30 296 -2 L 349 54 Q 358 61 356 64 Q 354 67 343 61 L 280 25 Q 273 21 270 22 Q 267 23 267 32 L 268 119 L 268 141 L 270 210 L 272 233 L 273 249 L 279 272 Q 280 277 279 280 Q 279 288 257 300 Q 236 311 224 311 Q 210 312 214 298 L 221 283 Q 229 264 229 210 Z" fill="lightgray"></path>
				<path d="M 270 210 L 286 210 Q 307 210 328 215 Q 347 218 344 230 Q 343 232 332 239 Q 321 246 319 246 L 272 233 C 243 225 240 210 270 210 Z" fill="lightgray"></path>
				<path d="M 268 119 L 290 119 Q 339 116 351 133 Q 351 142 337 146 Q 324 150 311 150 Q 292 150 268 141 C 240 131 238 119 268 119 Z" fill="lightgray"></path>
				<path d="M 351 320 Q 330 320 342 298 Q 355 275 357 222 L 361 159 Q 372 78 419 21 Q 507 -85 708 -83 Q 811 -82 866 -53 Q 888 -43 896 -32 Q 905 -22 896 -2 L 887 12 Q 872 39 864 87 L 859 117 Q 857 128 851 128 Q 845 128 843 120 L 838 88 Q 829 25 814 11 Q 790 -11 723 -18 Q 576 -32 490 22 Q 391 82 398 219 Q 399 261 406 274 Q 410 282 409 285 Q 409 295 386 308 Q 364 320 351 320 Z" fill="lightgray"></path>
				<path d="M 515 152 L 509 300 L 508 371 C 508 393 508 393 495 396 L 464 404 Q 441 407 448 389 L 458 371 Q 469 336 469 310 L 479 148 Q 479 139 482 125 Q 488 88 502 90 Q 510 88 515 104 L 516 120 L 515 152 Z" fill="lightgray"></path>
				<path d="M 508 371 L 548 378 L 588 384 L 638 391 L 678 396 L 740 401 Q 750 400 752 398 Q 755 396 757 387 L 757 366 L 748 216 L 742 181 Q 740 167 737 166 C 728 137 693 168 704 140 L 712 120 Q 717 108 722 93 Q 727 78 732 74 Q 737 69 754 78 Q 780 98 795 188 L 813 343 Q 817 372 823 382 Q 830 392 829 395 Q 829 403 815 413 Q 801 422 796 426 Q 792 430 786 434 Q 780 438 777 438 L 770 439 Q 766 440 741 436 L 639 417 L 588 409 L 495 396 C 465 392 478 366 508 371 Z" fill="lightgray"></path>
				<path d="M 586 282 L 542 275 L 531 268 Q 530 267 530 265 Q 520 262 531 252 Q 536 247 551 245 Q 567 242 575 243 L 590 247 L 637 255 L 687 261 Q 711 262 719 268 L 727 274 L 723 284 Q 718 291 707 295 Q 697 299 692 299 Q 688 299 637 289 L 586 282 Z" fill="lightgray"></path>
				<path d="M 588 384 L 586 282 L 590 247 L 590 158 C 590 128 637 134 637 164 L 637 255 L 637 289 L 638 391 L 639 417 L 641 488 Q 641 496 643 520 L 651 573 L 662 604 Q 661 618 631 630 Q 625 631 609 638 Q 593 644 582 643 Q 562 644 570 624 L 577 605 Q 588 577 588 512 L 588 409 L 588 384 Z" fill="lightgray"></path>
				<path d="M 590 158 L 553 154 L 515 152 C 485 150 486 118 516 120 L 549 122 Q 561 122 591 126 L 704 140 C 734 144 767 165 737 166 Q 734 164 723 169 Q 712 174 704 174 L 668 170 L 637 164 L 590 158 Z" fill="lightgray"></path>
</g>
		<text x="40" y="140" font-size="128" fill="#999999">4</text></g>
		<g id="id0:id4:id4" transform="matrix(1.0,0,0,1.0,4096,0.0)">			<g stroke="lightgray" stroke-width="4" transform="scale(4, 4)"> <rect x="0" y="0" width="256" height="256" fill="white" stroke-width="4"/></g>
			<g transform="scale(0.92, -0.92) translate(60, -920)">					<path d="M 145 531 L 182 554 L 251 602 Q 269 614 279 619 Q 289 623 292 629 Q 297 641 257 658 Q 233 668 226 672 Q 215 677 212 652 Q 210 642 199 627 L 177 596 Q 164 580 153 568 L 129 545 C 107 524 120 515 145 531 Z" fill="black"></path>
				<path d="M 153 452 L 149 496 Q 149 502 145 531 C 144 541 144 541 129 545 L 115 549 Q 94 555 84 551 Q 74 546 88 528 Q 103 509 107 463 L 120 347 Q 127 304 143 304 Q 152 304 158 327 L 159 358 L 154 428 L 153 452 Z" fill="black"></path>
				<path d="M 154 428 L 180 432 L 207 438 Q 235 442 234 452 Q 234 462 210 467 Q 194 469 153 452 C 125 441 124 423 154 428 Z" fill="black"></path>
				<path d="M 336 346 L 342 337 Q 343 332 351 330 Q 369 327 382 354 L 387 380 L 410 469 Q 410 476 426 515 Q 427 519 434 529 Q 442 538 442 542 Q 443 546 426 560 Q 410 574 386 580 Q 373 586 357 580 L 338 571 Q 316 563 290 557 L 266 550 Q 249 546 260 534 Q 271 521 309 536 L 330 542 Q 357 552 364 545 Q 369 534 364 515 L 359 477 L 357 454 L 343 389 Q 341 377 338 374 Q 336 370 326 372 C 320 371 320 371 336 346 Z" fill="black"></path>
				<path d="M 359 477 L 347 479 Q 335 482 328 479 L 305 475 L 281 469 Q 260 467 273 454 Q 279 447 292 446 Q 306 445 357 454 C 387 459 389 472 359 477 Z" fill="red"></path>
				<path d="M 158 327 L 234 335 Q 274 341 336 346 C 366 348 354 361 326 372 L 313 377 L 299 380 Q 293 380 266 373 Q 240 366 218 366 L 159 358 C 129 354 128 324 158 327 Z" fill="lightgray"></path>
				<path d="M 140 225 L 147 260 Q 147 267 126 276 Q 105 284 95 284 Q 85 284 83 282 Q 82 279 85 270 L 92 252 Q 98 228 98 205 L 96 89 L 91 51 Q 88 20 82 4 Q 76 -6 76 -14 Q 76 -22 83 -40 Q 90 -58 102 -58 Q 106 -58 114 -47 L 143 -10 L 200 56 Q 206 61 203 65 Q 200 68 190 61 L 143 30 Q 133 23 132 24 Q 127 29 129 49 L 132 114 L 133 136 L 138 203 L 140 225 Z" fill="lightgray"></path>
				<path d="M 138 203 L 155 202 Q 161 202 188 207 Q 216 212 216 220 Q 218 226 204 232 Q 191 238 184 238 Q 178 238 168 234 L 154 229 Q 150 227 140 225 C 111 219 108 205 138 203 Z" fill="lightgray"></path>
				<path d="M 132 114 L 147 113 Q 152 112 173 117 L 198 123 Q 216 125 216 132 Q 219 138 205 144 Q 191 150 185 150 Q 179 150 170 147 L 133 136 C 104 127 102 116 132 114 Z" fill="lightgray"></path>
				<path d="M 229 210 L 224 39 L 220 16 Q 218 4 216 0 L 211 -14 Q 210 -17 215 -30 Q 224 -61 238 -61 Q 244 -61 256 -45 Q 268 -30 296 -2 L 349 54 Q 358 61 356 64 Q 354 67 343 61 L 280 25 Q 273 21 270 22 Q 267 23 267 32 L 268 119 L 268 141 L 270 210 L 272 233 L 273 249 L 279 272 Q 280 277 279 280 Q 279 288 257 300 Q 236 311 224 311 Q 210 312 214 298 L 221 283 Q 229 264 229 210 Z" fill="lightgray"></path>
				<path d="M 270 210 L 286 210 Q 307 210 328 215 Q 347 218 344 230 Q 343 232 332 239 Q 321 246 319 246 L 272 233 C 243 225 240 210 270 210 Z" fill="lightgray"></path>
				<path d="M 268 119 L 290 119 Q 339 116 351 133 Q 351 142 337 146 Q 324 150 311 150 Q 292 150 268 141 C 240 131 238 119 268 119 Z" fill="lightgray"></path>
				<path d="M 351 320 Q 330 320 342 298 Q 355 275 357 222 L 361 159 Q 372 78 419 21 Q 507 -85 708 -83 Q 811 -82 866 -53 Q 888 -43 896 -32 Q 905 -22 896 -2 L 887 12 Q 872 39 864 87 L 859 117 Q 857 128 851 128 Q 845 128 843 120 L 838 88 Q 829 25 814 11 Q 790 -11 723 -18 Q 576 -32 490 22 Q 391 82 398 219 Q 399 261 406 274 Q 410 282 409 285 Q 409 295 386 308 Q 364 320 351 320 Z" fill="lightgray"></path>
				<path d="M 515 152 L 509 300 L 508 371 C 508 393 508 393 495 396 L 464 404 Q 441 407 448 389 L 458 371 Q 469 336 469 310 L 479 148 Q 479 139 482 125 Q 488 88 502 90 Q 510 88 515 104 L 516 120 L 515 152 Z" fill="lightgray"></path>
				<path d="M 508 371 L 548 378 L 588 384 L 638 391 L 678 396 L 740 401 Q 750 400 752 398 Q 755 396 757 387 L 757 366 L 748 216 L 742 181 Q 740 167 737 166 C 728 137 693 168 704 140 L 712 120 Q 717 108 722 93 Q 727 78 732 74 Q 737 69 754 78 Q 780 98 795 188 L 813 343 Q 817 372 823 382 Q 830 392 829 395 Q 829 403 815 413 Q 801 422 796 426 Q 792 430 786 434 Q 780 438 777 438 L 770 439 Q 766 440 741 436 L 639 417 L 588 409 L 495 396 C 465 392 478 366 508 371 Z" fill="lightgray"></path>
				<path d="M 586 282 L 542 275 L 531 268 Q 530 267 530 265 Q 520 262 531 252 Q 536 247 551 245 Q 567 242 575 243 L 590 247 L 637 255 L 687 261 Q 711 262 719 268 L 727 274 L 723 284 Q 718 291 707 295 Q 697 299 692 299 Q 688 299 637 289 L 586 282 Z" fill="lightgray"></path>
				<path d="M 588 384 L 586 282 L 590 247 L 590 158 C 590 128 637 134 637 164 L 637 255 L 637 289 L 638 391 L 639 417 L 641 488 Q 641 496 643 520 L 651 573 L 662 604 Q 661 618 631 630 Q 625 631 609 638 Q 593 644 582 643 Q 562 644 570 624 L 577 605 Q 588 577 588 512 L 588 409 L 588 384 Z" fill="lightgray"></path>
				<path d="M 590 158 L 553 154 L 515 152 C 485 150 486 118 516 120 L 549 122 Q 561 122 591 126 L 704 140 C 734 144 767 165 737 166 Q 734 164 723 169 Q 712 174 704 174 L 668 170 L 637 164 L 590 158 Z" fill="lightgray"></path>
</g>
		<text x="40" y="140" font-size="128" fill="#999999">5</text></g>
</g>
	<g id="id1:id1" transform="translate(0.0,1024)">
		<g id="id1:id0:id0" transform="matrix(1.0,0,0,1.0,0,0.0)">			<g stroke="lightgray" stroke-width="4" transform="scale(4, 4)"> <rect x="0" y="0" width="256" height="256" fill="white" stroke-width="4"/></g>
			<g transform="scale(0.92, -0.92) translate(60, -920)">					<path d="M 145 531 L 182 554 L 251 602 Q 269 614 279 619 Q 289 623 292 629 Q 297 641 257 658 Q 233 668 226 672 Q 215 677 212 652 Q 210 642 199 627 L 177 596 Q 164 580 153 568 L 129 545 C 107 524 120 515 145 531 Z" fill="black"></path>
				<path d="M 153 452 L 149 496 Q 149 502 145 531 C 144 541 144 541 129 545 L 115 549 Q 94 555 84 551 Q 74 546 88 528 Q 103 509 107 463 L 120 347 Q 127 304 143 304 Q 152 304 158 327 L 159 358 L 154 428 L 153 452 Z" fill="black"></path>
				<path d="M 154 428 L 180 432 L 207 438 Q 235 442 234 452 Q 234 462 210 467 Q 194 469 153 452 C 125 441 124 423 154 428 Z" fill="black"></path>
				<path d="M 336 346 L 342 337 Q 343 332 351 330 Q 369 327 382 354 L 387 380 L 410 469 Q 410 476 426 515 Q 427 519 434 529 Q 442 538 442 542 Q 443 546 426 560 Q 410 574 386 580 Q 373 586 357 580 L 338 571 Q 316 563 290 557 L 266 550 Q 249 546 260 534 Q 271 521 309 536 L 330 542 Q 357 552 364 545 Q 369 534 364 515 L 359 477 L 357 454 L 343 389 Q 341 377 338 374 Q 336 370 326 372 C 320 371 320 371 336 346 Z" fill="black"></path>
				<path d="M 359 477 L 347 479 Q 335 482 328 479 L 305 475 L 281 469 Q 260 467 273 454 Q 279 447 292 446 Q 306 445 357 454 C 387 459 389 472 359 477 Z" fill="black"></path>
				<path d="M 158 327 L 234 335 Q 274 341 336 346 C 366 348 354 361 326 372 L 313 377 L 299 380 Q 293 380 266 373 Q 240 366 218 366 L 159 358 C 129 354 128 324 158 327 Z" fill="red"></path>
				<path d="M 140 225 L 147 260 Q 147 267 126 276 Q 105 284 95 284 Q 85 284 83 282 Q 82 279 85 270 L 92 252 Q 98 228 98 205 L 96 89 L 91 51 Q 88 20 82 4 Q 76 -6 76 -14 Q 76 -22 83 -40 Q 90 -58 102 -58 Q 106 -58 114 -47 L 143 -10 L 200 56 Q 206 61 203 65 Q 200 68 190 61 L 143 30 Q 133 23 132 24 Q 127 29 129 49 L 132 114 L 133 136 L 138 203 L 140 225 Z" fill="lightgray"></path>
				<path d="M 138 203 L 155 202 Q 161 202 188 207 Q 216 212 216 220 Q 218 226 204 232 Q 191 238 184 238 Q 178 238 168 234 L 154 229 Q 150 227 140 225 C 111 219 108 205 138 203 Z" fill="lightgray"></path>
				<path d="M 132 114 L 147 113 Q 152 112 173 117 L 198 123 Q 216 125 216 132 Q 219 138 205 144 Q 191 150 185 150 Q 179 150 170 147 L 133 136 C 104 127 102 116 132 114 Z" fill="lightgray"></path>
				<path d="M 229 210 L 224 39 L 220 16 Q 218 4 216 0 L 211 -14 Q 210 -17 215 -30 Q 224 -61 238 -61 Q 244 -61 256 -45 Q 268 -30 296 -2 L 349 54 Q 358 61 356 64 Q 354 67 343 61 L 280 25 Q 273 21 270 22 Q 267 23 267 32 L 268 119 L 268 141 L 270 210 L 272 233 L 273 249 L 279 272 Q 280 277 279 280 Q 279 288 257 300 Q 236 311 224 311 Q 210 312 214 298 L 221 283 Q 229 264 229 210 Z" fill="lightgray"></path>
				<path d="M 270 210 L 286 210 Q 307 210 328 215 Q 347 218 344 230 Q 343 232 332 239 Q 321 246 319 246 L 272 233 C 243 225 240 210 270 210 Z" fill="lightgray"></path>
				<path d="M 268 119 L 290 119 Q 339 116 351 133 Q 351 142 337 146 Q 324 150 311 150 Q 292 150 268 141 C 240 131 238 119 268 119 Z" fill="lightgray"></path>
				<path d="M 351 320 Q 330 320 342 298 Q 355 275 357 222 L 361 159 Q 372 78 419 21 Q 507 -85 708 -83 Q 811 -82 866 -53 Q 888 -43 896 -32 Q 905 -22 896 -2 L 887 12 Q 872 39 864 87 L 859 117 Q 857 128 851 128 Q 845 128 843 120 L 838 88 Q 829 25 814 11 Q 790 -11 723 -18 Q 576 -32 490 22 Q 391 82 398 219 Q 399 261 406 274 Q 410 282 409 285 Q 409 295 386 308 Q 364 320 351 320 Z" fill="lightgray"></path>
				<path d="M 515 152 L 509 300 L 508 371 C 508 393 508 393 495 396 L 464 404 Q 441 407 448 389 L 458 371 Q 469 336 469 310 L 479 148 Q 479 139 482 125 Q 488 88 502 90 Q 510 88 515 104 L 516 120 L 515 152 Z" fill="lightgray"></path>
				<path d="M 508 371 L 548 378 L 588 384 L 638 391 L 678 396 L 740 401 Q 750 400 752 398 Q 755 396 757 387 L 757 366 L 748 216 L 742 181 Q 740 167 737 166 C 728 137 693 168 704 140 L 712 120 Q 717 108 722 93 Q 727 78 732 74 Q 737 69 754 78 Q 780 98 795 188 L 813 343 Q 817 372 823 382 Q 830 392 829 395 Q 829 403 815 413 Q 801 422 796 426 Q 792 430 786 434 Q 780 438 777 438 L 770 439 Q 766 440 741 436 L 639 417 L 588 409 L 495 396 C 465 392 478 366 508 371 Z" fill="lightgray"></path>
				<path d="M 586 282 L 542 275 L 531 268 Q 530 267 530 265 Q 520 262 531 252 Q 536 247 551 245 Q 567 242 575 243 L 590 247 L 637 255 L 687 261 Q 711 262 719 268 L 727 274 L 723 284 Q 718 291 707 295 Q 697 299 692 299 Q 688 299 637 289 L 586 282 Z" fill="lightgray"></path>
				<path d="M 588 384 L 586 282 L 590 247 L 590 158 C 590 128 637 134 637 164 L 637 255 L 637 289 L 638 391 L 639 417 L 641 488 Q 641 496 643 520 L 651 573 L 662 604 Q 661 618 631 630 Q 625 631 609 638 Q 593 644 582 643 Q 562 644 570 624 L 577 605 Q 588 577 588 512 L 588 409 L 588 384 Z" fill="lightgray"></path>
				<path d="M 590 158 L 553 154 L 515 152 C 485 150 486 118 516 120 L 549 122 Q 561 122 591 126 L 704 140 C 734 144 767 165 737 166 Q 734 164 723 169 Q 712 174 704 174 L 668 170 L 637 164 L 590 158 Z" fill="lightgray"></path>
</g>
		<text x="40" y="140" font-size="128" fill="#999999">6</text></g>
		<g id="id1:id1:id1" transform="matrix(1.0,0,0,1.0,1024,0.0)">			<g stroke="lightgray" stroke-width="4" transform="scale(4, 4)"> <rect x="0" y="0" width="256" height="256" fill="white" stroke-width="4"/></g>
			<g transform="scale(0.92, -0.92) translate(60, -920)">					<path d="M 145 531 L 182 554 L 251 602 Q 269 614 279 619 Q 289 623 292 629 Q 297 641 257 658 Q 233 668 226 672 Q 215 677 212 652 Q 210 642 199 627 L 177 596 Q 164 580 153 568 L 129 545 C 107 524 120 515 145 531 Z" fill="black"></path>
				<path d="M 153 452 L 149 496 Q 149 502 145 531 C 144 541 144 541 129 545 L 115 549 Q 94 555 84 551 Q 74 546 88 528 Q 103 509 107 463 L 120 347 Q 127 304 143 304 Q 152 304 158 327 L 159 358 L 154 428 L 153 452 Z" fill="black"></path>
				<path d="M 154 428 L 180 432 L 207 438 Q 235 442 234 452 Q 234 462 210 467 Q 194 469 153 452 C 125 441 124 423 154 428 Z" fill="black"></path>
				<path d="M 336 346 L 342 337 Q 343 332 351 330 Q 369 327 382 354 L 387 380 L 410 469 Q 410 476 426 515 Q 427 519 434 529 Q 442 538 442 542 Q 443 546 426 560 Q 410 574 386 580 Q 373 586 357 580 L 338 571 Q 316 563 290 557 L 266 550 Q 249 546 260 534 Q 271 521 309 536 L 330 542 Q 357 552 364 545 Q 369 534 364 515 L 359 477 L 357 454 L 343 389 Q 341 377 338 374 Q 336 370 326 372 C 320 371 320 371 336 346 Z" fill="black"></path>
				<path d="M 359 477 L 347 479 Q 335 482 328 479 L 305 475 L 281 469 Q 260 467 273 454 Q 279 447 292 446 Q 306 445 357 454 C 387 459 389 472 359 477 Z" fill="black"></path>
				<path d="M 158 327 L 234 335 Q 274 341 336 346 C 366 348 354 361 326 372 L 313 377 L 299 380 Q 293 380 266 373 Q 240 366 218 366 L 159 358 C 129 354 128 324 158 327 Z" fill="black"></path>
				<path d="M 140 225 L 147 260 Q 147 267 126 276 Q 105 284 95 284 Q 85 284 83 282 Q 82 279 85 270 L 92 252 Q 98 228 98 205 L 96 89 L 91 51 Q 88 20 82 4 Q 76 -6 76 -14 Q 76 -22 83 -40 Q 90 -58 102 -58 Q 106 -58 114 -47 L 143 -10 L 200 56 Q 206 61 203 65 Q 200 68 190 61 L 143 30 Q 133 23 132 24 Q 127 29 129 49 L 132 114 L 133 136 L 138 203 L 140 225 Z" fill="red"></path>
				<path d="M 138 203 L 155 202 Q 161 202 188 207 Q 216 212 216 220 Q 218 226 204 232 Q 191 238 184 238 Q 178 238 168 234 L 154 229 Q 150 227 140 225 C 111 219 108 205 138 203 Z" fill="lightgray"></path>
				<path d="M 132 114 L 147 113 Q 152 112 173 117 L 198 123 Q 216 125 216 132 Q 219 138 205 144 Q 191 150 185 150 Q 179 150 170 147 L 133 136 C 104 127 102 116 132 114 Z" fill="lightgray"></path>
				<path d="M 229 210 L 224 39 L 220 16 Q 218 4 216 0 L 211 -14 Q 210 -17 215 -30 Q 224 -61 238 -61 Q 244 -61 256 -45 Q 268 -30 296 -2 L 349 54 Q 358 61 356 64 Q 354 67 343 61 L 280 25 Q 273 21 270 22 Q 267 23 267 32 L 268 119 L 268 141 L 270 210 L 272 233 L 273 249 L 279 272 Q 280 277 279 280 Q 279 288 257 300 Q 236 311 224 311 Q 210 312 214 298 L 221 283 Q 229 264 229 210 Z" fill="lightgray"></path>
				<path d="M 270 210 L 286 210 Q 307 210 328 215 Q 347 218 344 230 Q 343 232 332 239 Q 321 246 319 246 L 272 233 C 243 225 240 210 270 210 Z" fill="lightgray"></path>
				<path d="M 268 119 L 290 119 Q 339 116 351 133 Q 351 142 337 146 Q 324 150 311 150 Q 292 150 268 141 C 240 131 238 119 268 119 Z" fill="lightgray"></path>
				<path d="M 351 320 Q 330 320 342 298 Q 355 275 357 222 L 361 159 Q 372 78 419 21 Q 507 -85 708 -83 Q 811 -82 866 -53 Q 888 -43 896 -32 Q 905 -22 896 -2 L 887 12 Q 872 39 864 87 L 859 117 Q 857 128 851 128 Q 845 128 843 120 L 838 88 Q 829 25 814 11 Q 790 -11 723 -18 Q 576 -32 490 22 Q 391 82 398 219 Q 399 261 406 274 Q 410 282 409 285 Q 409 295 386 308 Q 364 320 351 320 Z" fill="lightgray"></path>
				<path d="M 515 152 L 509 300 L 508 371 C 508 393 508 393 495 396 L 464 404 Q 441 407 448 389 L 458 371 Q 469 336 469 310 L 479 148 Q 479 139 482 125 Q 488 88 502 90 Q 510 88 515 104 L 516 120 L 515 152 Z" fill="lightgray"></path>
				<path d="M 508 371 L 548 378 L 588 384 L 638 391 L 678 396 L 740 401 Q 750 400 752 398 Q 755 396 757 387 L 757 366 L 748 216 L 742 181 Q 740 167 737 166 C 728 137 693 168 704 140 L 712 120 Q 717 108 722 93 Q 727 78 732 74 Q 737 69 754 78 Q 780 98 795 188 L 813 343 Q 817 372 823 382 Q 830 392 829 395 Q 829 403 815 413 Q 801 422 796 426 Q 792 430 786 434 Q 780 438 777 438 L 770 439 Q 766 440 741 436 L 639 417 L 588 409 L 495 396 C 465 392 478 366 508 371 Z" fill="lightgray"></path>
				<path d="M 586 282 L 542 275 L 531 268 Q 530 267 530 265 Q 520 262 531 252 Q 536 247 551 245 Q 567 242 575 243 L 590 247 L 637 255 L 687 261 Q 711 262 719 268 L 727 274 L 723 284 Q 718 291 707 295 Q 697 299 692 299 Q 688 299 637 289 L 586 282 Z" fill="lightgray"></path>
				<path d="M 588 384 L 586 282 L 590 247 L 590 158 C 590 128 637 134 637 164 L 637 255 L 637 289 L 638 391 L 639 417 L 641 488 Q 641 496 643 520 L 651 573 L 662 604 Q 661 618 631 630 Q 625 631 609 638 Q 593 644 582 643 Q 562 644 570 624 L 577 605 Q 588 577 588 512 L 588 409 L 588 384 Z" fill="lightgray"></path>
				<path d="M 590 158 L 553 154 L 515 152 C 485 150 486 118 516 120 L 549 122 Q 561 122 591 126 L 704 140 C 734 144 767 165 737 166 Q 734 164 723 169 Q 712 174 704 174 L 668 170 L 637 164 L 590 158 Z" fill="lightgray"></path>
</g>
		<text x="40" y="140" font-size="128" fill="#999999">7</text></g>
		<g id="id1:id2:id2" transform="matrix(1.0,0,0,1.0,2048,0.0)">			<g stroke="lightgray" stroke-width="4" transform="scale(4, 4)"> <rect x="0" y="0" width="256" height="256" fill="white" stroke-width="4"/></g>
			<g transform="scale(0.92, -0.92) translate(60, -920)">					<path d="M 145 531 L 182 554 L 251 602 Q 269 614 279 619 Q 289 623 292 629 Q 297 641 257 658 Q 233 668 226 672 Q 215 677 212 652 Q 210 642 199 627 L 177 596 Q 164 580 153 568 L 129 545 C 107 524 120 515 145 531 Z" fill="black"></path>
				<path d="M 153 452 L 149 496 Q 149 502 145 531 C 144 541 144 541 129 545 L 115 549 Q 94 555 84 551 Q 74 546 88 528 Q 103 509 107 463 L 120 347 Q 127 304 143 304 Q 152 304 158 327 L 159 358 L 154 428 L 153 452 Z" fill="black"></path>
				<path d="M 154 428 L 180 432 L 207 438 Q 235 442 234 452 Q 234 462 210 467 Q 194 469 153 452 C 125 441 124 423 154 428 Z" fill="black"></path>
				<path d="M 336 346 L 342 337 Q 343 332 351 330 Q 369 327 382 354 L 387 380 L 410 469 Q 410 476 426 515 Q 427 519 434 529 Q 442 538 442 542 Q 443 546 426 560 Q 410 574 386 580 Q 373 586 357 580 L 338 571 Q 316 563 290 557 L 266 550 Q 249 546 260 534 Q 271 521 309 536 L 330 542 Q 357 552 364 545 Q 369 534 364 515 L 359 477 L 357 454 L 343 389 Q 341 377 338 374 Q 336 370 326 372 C 320 371 320 371 336 346 Z" fill="black"></path>
				<path d="M 359 477 L 347 479 Q 335 482 328 479 L 305 475 L 281 469 Q 260 467 273 454 Q 279 447 292 446 Q 306 445 357 454 C 387 459 389 472 359 477 Z" fill="black"></path>
				<path d="M 158 327 L 234 335 Q 274 341 336 346 C 366 348 354 361 326 372 L 313 377 L 299 380 Q 293 380 266 373 Q 240 366 218 366 L 159 358 C 129 354 128 324 158 327 Z" fill="black"></path>
				<path d="M 140 225 L 147 260 Q 147 267 126 276 Q 105 284 95 284 Q 85 284 83 282 Q 82 279 85 270 L 92 252 Q 98 228 98 205 L 96 89 L 91 51 Q 88 20 82 4 Q 76 -6 76 -14 Q 76 -22 83 -40 Q 90 -58 102 -58 Q 106 -58 114 -47 L 143 -10 L 200 56 Q 206 61 203 65 Q 200 68 190 61 L 143 30 Q 133 23 132 24 Q 127 29 129 49 L 132 114 L 133 136 L 138 203 L 140 225 Z" fill="black"></path>
				<path d="M 138 203 L 155 202 Q 161 202 188 207 Q 216 212 216 220 Q 218 226 204 232 Q 191 238 184 238 Q 178 238 168 234 L 154 229 Q 150 227 140 225 C 111 219 108 205 138 203 Z" fill="red"></path>
				<path d="M 132 114 L 147 113 Q 152 112 173 117 L 198 123 Q 216 125 216 132 Q 219 138 205 144 Q 191 150 185 150 Q 179 150 170 147 L 133 136 C 104 127 102 116 132 114 Z" fill="lightgray"></path>
				<path d="M 229 210 L 224 39 L 220 16 Q 218 4 216 0 L 211 -14 Q 210 -17 215 -30 Q 224 -61 238 -61 Q 244 -61 256 -45 Q 268 -30 296 -2 L 349 54 Q 358 61 356 64 Q 354 67 343 61 L 280 25 Q 273 21 270 22 Q 267 23 267 32 L 268 119 L 268 141 L 270 210 L 272 233 L 273 249 L 279 272 Q 280 277 279 280 Q 279 288 257 300 Q 236 311 224 311 Q 210 312 214 298 L 221 283 Q 229 264 229 210 Z" fill="lightgray"></path>
				<path d="M 270 210 L 286 210 Q 307 210 328 215 Q 347 218 344 230 Q 343 232 332 239 Q 321 246 319 246 L 272 233 C 243 225 240 210 270 210 Z" fill="lightgray"></path>
				<path d="M 268 119 L 290 119 Q 339 116 351 133 Q 351 142 337 146 Q 324 150 311 150 Q 292 150 268 141 C 240 131 238 119 268 119 Z" fill="lightgray"></path>
				<path d="M 351 320 Q 330 320 342 298 Q 355 275 357 222 L 361 159 Q 372 78 419 21 Q 507 -85 708 -83 Q 811 -82 866 -53 Q 888 -43 896 -32 Q 905 -22 896 -2 L 887 12 Q 872 39 864 87 L 859 117 Q 857 128 851 128 Q 845 128 843 120 L 838 88 Q 829 25 814 11 Q 790 -11 723 -18 Q 576 -32 490 22 Q 391 82 398 219 Q 399 261 406 274 Q 410 282 409 285 Q 409 295 386 308 Q 364 320 351 320 Z" fill="lightgray"></path>
				<path d="M 515 152 L 509 300 L 508 371 C 508 393 508 393 495 396 L 464 404 Q 441 407 448 389 L 458 371 Q 469 336 469 310 L 479 148 Q 479 139 482 125 Q 488 88 502 90 Q 510 88 515 104 L 516 120 L 515 152 Z" fill="lightgray"></path>
				<path d="M 508 371 L 548 378 L 588 384 L 638 391 L 678 396 L 740 401 Q 750 400 752 398 Q 755 396 757 387 L 757 366 L 748 216 L 742 181 Q 740 167 737 166 C 728 137 693 168 704 140 L 712 120 Q 717 108 722 93 Q 727 78 732 74 Q 737 69 754 78 Q 780 98 795 188 L 813 343 Q 817 372 823 382 Q 830 392 829 395 Q 829 403 815 413 Q 801 422 796 426 Q 792 430 786 434 Q 780 438 777 438 L 770 439 Q 766 440 741 436 L 639 417 L 588 409 L 495 396 C 465 392 478 366 508 371 Z" fill="lightgray"></path>
				<path d="M 586 282 L 542 275 L 531 268 Q 530 267 530 265 Q 520 262 531 252 Q 536 247 551 245 Q 567 242 575 243 L 590 247 L 637 255 L 687 261 Q 711 262 719 268 L 727 274 L 723 284 Q 718 291 707 295 Q 697 299 692 299 Q 688 299 637 289 L 586 282 Z" fill="lightgray"></path>
				<path d="M 588 384 L 586 282 L 590 247 L 590 158 C 590 128 637 134 637 164 L 637 255 L 637 289 L 638 391 L 639 417 L 641 488 Q 641 496 643 520 L 651 573 L 662 604 Q 661 618 631 630 Q 625 631 609 638 Q 593 644 582 643 Q 562 644 570 624 L 577 605 Q 588 577 588 512 L 588 409 L 588 384 Z" fill="lightgray"></path>
				<path d="M 590 158 L 553 154 L 515 152 C 485 150 486 118 516 120 L 549 122 Q 561 122 591 126 L 704 140 C 734 144 767 165 737 166 Q 734 164 723 169 Q 712 174 704 174 L 668 170 L 637 164 L 590 158 Z" fill="lightgray"></path>
</g>
		<text x="40" y="140" font-size="128" fill="#999999">8</text></g>
		<g id="id1:id3:id3" transform="matrix(1.0,0,0,1.0,3072,0.0)">			<g stroke="lightgray" stroke-width="4" transform="scale(4, 4)"> <rect x="0" y="0" width="256" height="256" fill="white" stroke-width="4"/></g>
			<g transform="scale(0.92, -0.92) translate(60, -920)">					<path d="M 145 531 L 182 554 L 251 602 Q 269 614 279 619 Q 289 623 292 629 Q 297 641 257 658 Q 233 668 226 672 Q 215 677 212 652 Q 210 642 199 627 L 177 596 Q 164 580 153 568 L 129 545 C 107 524 120 515 145 531 Z" fill="black"></path>
				<path d="M 153 452 L 149 496 Q 149 502 145 531 C 144 541 144 541 129 545 L 115 549 Q 94 555 84 551 Q 74 546 88 528 Q 103 509 107 463 L 120 347 Q 127 304 143 304 Q 152 304 158 327 L 159 358 L 154 428 L 153 452 Z" fill="black"></path>
				<path d="M 154 428 L 180 432 L 207 438 Q 235 442 234 452 Q 234 462 210 467 Q 194 469 153 452 C 125 441 124 423 154 428 Z" fill="black"></path>
				<path d="M 336 346 L 342 337 Q 343 332 351 330 Q 369 327 382 354 L 387 380 L 410 469 Q 410 476 426 515 Q 427 519 434 529 Q 442 538 442 542 Q 443 546 426 560 Q 410 574 386 580 Q 373 586 357 580 L 338 571 Q 316 563 290 557 L 266 550 Q 249 546 260 534 Q 271 521 309 536 L 330 542 Q 357 552 364 545 Q 369 534 364 515 L 359 477 L 357 454 L 343 389 Q 341 377 338 374 Q 336 370 326 372 C 320 371 320 371 336 346 Z" fill="black"></path>
				<path d="M 359 477 L 347 479 Q 335 482 328 479 L 305 475 L 281 469 Q 260 467 273 454 Q 279 447 292 446 Q 306 445 357 454 C 387 459 389 472 359 477 Z" fill="black"></path>
				<path d="M 158 327 L 234 335 Q 274 341 336 346 C 366 348 354 361 326 372 L 313 377 L 299 380 Q 293 380 266 373 Q 240 366 218 366 L 159 358 C 129 354 128 324 158 327 Z" fill="black"></path>
				<path d="M 140 225 L 147 260 Q 147 267 126 276 Q 105 284 95 284 Q 85 284 83 282 Q 82 279 85 270 L 92 252 Q 98 228 98 205 L 96 89 L 91 51 Q 88 20 82 4 Q 76 -6 76 -14 Q 76 -22 83 -40 Q 90 -58 102 -58 Q 106 -58 114 -47 L 143 -10 L 200 56 Q 206 61 203 65 Q 200 68 190 61 L 143 30 Q 133 23 132 24 Q 127 29 129 49 L 132 114 L 133 136 L 138 203 L 140 225 Z" fill="black"></path>
				<path d="M 138 203 L 155 202 Q 161 202 188 207 Q 216 212 216 220 Q 218 226 204 232 Q 191 238 184 238 Q 178 238 168 234 L 154 229 Q 150 227 140 225 C 111 219 108 205 138 203 Z" fill="black"></path>
				<path d="M 132 114 L 147 113 Q 152 112 173 117 L 198 123 Q 216 125 216 132 Q 219 138 205 144 Q 191 150 185 150 Q 179 150 170 147 L 133 136 C 104 127 102 116 132 114 Z" fill="red"></path>
				<path d="M 229 210 L 224 39 L 220 16 Q 218 4 216 0 L 211 -14 Q 210 -17 215 -30 Q 224 -61 238 -61 Q 244 -61 256 -45 Q 268 -30 296 -2 L 349 54 Q 358 61 356 64 Q 354 67 343 61 L 280 25 Q 273 21 270 22 Q 267 23 267 32 L 268 119 L 268 141 L 270 210 L 272 233 L 273 249 L 279 272 Q 280 277 279 280 Q 279 288 257 300 Q 236 311 224 311 Q 210 312 214 298 L 221 283 Q 229 264 229 210 Z" fill="lightgray"></path>
				<path d="M 270 210 L 286 210 Q 307 210 328 215 Q 347 218 344 230 Q 343 232 332 239 Q 321 246 319 246 L 272 233 C 243 225 240 210 270 210 Z" fill="lightgray"></path>
				<path d="M 268 119 L 290 119 Q 339 116 351 133 Q 351 142 337 146 Q 324 150 311 150 Q 292 150 268 141 C 240 131 238 119 268 119 Z" fill="lightgray"></path>
				<path d="M 351 320 Q 330 320 342 298 Q 355 275 357 222 L 361 159 Q 372 78 419 21 Q 507 -85 708 -83 Q 811 -82 866 -53 Q 888 -43 896 -32 Q 905 -22 896 -2 L 887 12 Q 872 39 864 87 L 859 117 Q 857 128 851 128 Q 845 128 843 120 L 838 88 Q 829 25 814 11 Q 790 -11 723 -18 Q 576 -32 490 22 Q 391 82 398 219 Q 399 261 406 274 Q 410 282 409 285 Q 409 295 386 308 Q 364 320 351 320 Z" fill="lightgray"></path>
				<path d="M 515 152 L 509 300 L 508 371 C 508 393 508 393 495 396 L 464 404 Q 441 407 448 389 L 458 371 Q 469 336 469 310 L 479 148 Q 479 139 482 125 Q 488 88 502 90 Q 510 88 515 104 L 516 120 L 515 152 Z" fill="lightgray"></path>
				<path d="M 508 371 L 548 378 L 588 384 L 638 391 L 678 396 L 740 401 Q 750 400 752 398 Q 755 396 757 387 L 757 366 L 748 216 L 742 181 Q 740 167 737 166 C 728 137 693 168 704 140 L 712 120 Q 717 108 722 93 Q 727 78 732 74 Q 737 69 754 78 Q 780 98 795 188 L 813 343 Q 817 372 823 382 Q 830 392 829 395 Q 829 403 815 413 Q 801 422 796 426 Q 792 430 786 434 Q 780 438 777 438 L 770 439 Q 766 440 741 436 L 639 417 L 588 409 L 495 396 C 465 392 478 366 508 371 Z" fill="lightgray"></path>
				<path d="M 586 282 L 542 275 L 531 268 Q 530 267 530 265 Q 520 262 531 252 Q 536 247 551 245 Q 567 242 575 243 L 590 247 L 637 255 L 687 261 Q 711 262 719 268 L 727 274 L 723 284 Q 718 291 707 295 Q 697 299 692 299 Q 688 299 637 289 L 586 282 Z" fill="lightgray"></path>
				<path d="M 588 384 L 586 282 L 590 247 L 590 158 C 590 128 637 134 637 164 L 637 255 L 637 289 L 638 391 L 639 417 L 641 488 Q 641 496 643 520 L 651 573 L 662 604 Q 661 618 631 630 Q 625 631 609 638 Q 593 644 582 643 Q 562 644 570 624 L 577 605 Q 588 577 588 512 L 588 409 L 588 384 Z" fill="lightgray"></path>
				<path d="M 590 158 L 553 154 L 515 152 C 485 150 486 118 516 120 L 549 122 Q 561 122 591 126 L 704 140 C 734 144 767 165 737 166 Q 734 164 723 169 Q 712 174 704 174 L 668 170 L 637 164 L 590 158 Z" fill="lightgray"></path>
</g>
		<text x="40" y="140" font-size="128" fill="#999999">9</text></g>
		<g id="id1:id4:id4" transform="matrix(1.0,0,0,1.0,4096,0.0)">			<g stroke="lightgray" stroke-width="4" transform="scale(4, 4)"> <rect x="0" y="0" width="256" height="256" fill="white" stroke-width="4"/></g>
			<g transform="scale(0.92, -0.92) translate(60, -920)">					<path d="M 145 531 L 182 554 L 251 602 Q 269 614 279 619 Q 289 623 292 629 Q 297 641 257 658 Q 233 668 226 672 Q 215 677 212 652 Q 210 642 199 627 L 177 596 Q 164 580 153 568 L 129 545 C 107 524 120 515 145 531 Z" fill="black"></path>
				<path d="M 153 452 L 149 496 Q 149 502 145 531 C 144 541 144 541 129 545 L 115 549 Q 94 555 84 551 Q 74 546 88 528 Q 103 509 107 463 L 120 347 Q 127 304 143 304 Q 152 304 158 327 L 159 358 L 154 428 L 153 452 Z" fill="black"></path>
				<path d="M 154 428 L 180 432 L 207 438 Q 235 442 234 452 Q 234 462 210 467 Q 194 469 153 452 C 125 441 124 423 154 428 Z" fill="black"></path>
				<path d="M 336 346 L 342 337 Q 343 332 351 330 Q 369 327 382 354 L 387 380 L 410 469 Q 410 476 426 515 Q 427 519 434 529 Q 442 538 442 542 Q 443 546 426 560 Q 410 574 386 580 Q 373 586 357 580 L 338 571 Q 316 563 290 557 L 266 550 Q 249 546 260 534 Q 271 521 309 536 L 330 542 Q 357 552 364 545 Q 369 534 364 515 L 359 477 L 357 454 L 343 389 Q 341 377 338 374 Q 336 370 326 372 C 320 371 320 371 336 346 Z" fill="black"></path>
				<path d="M 359 477 L 347 479 Q 335 482 328 479 L 305 475 L 281 469 Q 260 467 273 454 Q 279 447 292 446 Q 306 445 357 454 C 387 459 389 472 359 477 Z" fill="black"></path>
				<path d="M 158 327 L 234 335 Q 274 341 336 346 C 366 348 354 361 326 372 L 313 377 L 299 380 Q 293 380 266 373 Q 240 366 218 366 L 159 358 C 129 354 128 324 158 327 Z" fill="black"></path>
				<path d="M 140 225 L 147 260 Q 147 267 126 276 Q 105 284 95 284 Q 85 284 83 282 Q 82 279 85 270 L 92 252 Q 98 228 98 205 L 96 89 L 91 51 Q 88 20 82 4 Q 76 -6 76 -14 Q 76 -22 83 -40 Q 90 -58 102 -58 Q 106 -58 114 -47 L 143 -10 L 200 56 Q 206 61 203 65 Q 200 68 190 61 L 143 30 Q 133 23 132 24 Q 127 29 129 49 L 132 114 L 133 136 L 138 203 L 140 225 Z" fill="black"></path>
				<path d="M 138 203 L 155 202 Q 161 202 188 207 Q 216 212 216 220 Q 218 226 204 232 Q 191 238 184 238 Q 178 238 168 234 L 154 229 Q 150 227 140 225 C 111 219 108 205 138 203 Z" fill="black"></path>
				<path d="M 132 114 L 147 113 Q 152 112 173 117 L 198 123 Q 216 125 216 132 Q 219 138 205 144 Q 191 150 185 150 Q 179 150 170 147 L 133 136 C 104 127 102 116 132 114 Z" fill="black"></path>
				<path d="M 229 210 L 224 39 L 220 16 Q 218 4 216 0 L 211 -14 Q 210 -17 215 -30 Q 224 -61 238 -61 Q 244 -61 256 -45 Q 268 -30 296 -2 L 349 54 Q 358 61 356 64 Q 354 67 343 61 L 280 25 Q 273 21 270 22 Q 267 23 267 32 L 268 119 L 268 141 L 270 210 L 272 233 L 273 249 L 279 272 Q 280 277 279 280 Q 279 288 257 300 Q 236 311 224 311 Q 210 312 214 298 L 221 283 Q 229 264 229 210 Z" fill="red"></path>
				<path d="M 270 210 L 286 210 Q 307 210 328 215 Q 347 218 344 230 Q 343 232 332 239 Q 321 246 319 246 L 272 233 C 243 225 240 210 270 210 Z" fill="lightgray"></path>
				<path d="M 268 119 L 290 119 Q 339 116 351 133 Q 351 142 337 146 Q 324 150 311 150 Q 292 150 268 141 C 240 131 238 119 268 119 Z" fill="lightgray"></path>
				<path d="M 351 320 Q 330 320 342 298 Q 355 275 357 222 L 361 159 Q 372 78 419 21 Q 507 -85 708 -83 Q 811 -82 866 -53 Q 888 -43 896 -32 Q 905 -22 896 -2 L 887 12 Q 872 39 864 87 L 859 117 Q 857 128 851 128 Q 845 128 843 120 L 838 88 Q 829 25 814 11 Q 790 -11 723 -18 Q 576 -32 490 22 Q 391 82 398 219 Q 399 261 406 274 Q 410 282 409 285 Q 409 295 386 308 Q 364 320 351 320 Z" fill="lightgray"></path>
				<path d="M 515 152 L 509 300 L 508 371 C 508 393 508 393 495 396 L 464 404 Q 441 407 448 389 L 458 371 Q 469 336 469 310 L 479 148 Q 479 139 482 125 Q 488 88 502 90 Q 510 88 515 104 L 516 120 L 515 152 Z" fill="lightgray"></path>
				<path d="M 508 371 L 548 378 L 588 384 L 638 391 L 678 396 L 740 401 Q 750 400 752 398 Q 755 396 757 387 L 757 366 L 748 216 L 742 181 Q 740 167 737 166 C 728 137 693 168 704 140 L 712 120 Q 717 108 722 93 Q 727 78 732 74 Q 737 69 754 78 Q 780 98 795 188 L 813 343 Q 817 372 823 382 Q 830 392 829 395 Q 829 403 815 413 Q 801 422 796 426 Q 792 430 786 434 Q 780 438 777 438 L 770 439 Q 766 440 741 436 L 639 417 L 588 409 L 495 396 C 465 392 478 366 508 371 Z" fill="lightgray"></path>
				<path d="M 586 282 L 542 275 L 531 268 Q 530 267 530 265 Q 520 262 531 252 Q 536 247 551 245 Q 567 242 575 243 L 590 247 L 637 255 L 687 261 Q 711 262 719 268 L 727 274 L 723 284 Q 718 291 707 295 Q 697 299 692 299 Q 688 299 637 289 L 586 282 Z" fill="lightgray"></path>
				<path d="M 588 384 L 586 282 L 590 247 L 590 158 C 590 128 637 134 637 164 L 637 255 L 637 289 L 638 391 L 639 417 L 641 488 Q 641 496 643 520 L 651 573 L 662 604 Q 661 618 631 630 Q 625 631 609 638 Q 593 644 582 643 Q 562 644 570 624 L 577 605 Q 588 577 588 512 L 588 409 L 588 384 Z" fill="lightgray"></path>
				<path d="M 590 158 L 553 154 L 515 152 C 485 150 486 118 516 120 L 549 122 Q 561 122 591 126 L 704 140 C 734 144 767 165 737 166 Q 734 164 723 169 Q 712 174 704 174 L 668 170 L 637 164 L 590 158 Z" fill="lightgray"></path>
</g>
		<text x="40" y="140" font-size="128" fill="#999999">10</text></g>
</g>
	<g id="id2:id2" transform="translate(0.0,2048)">
		<g id="id2:id0:id0" transform="matrix(1.0,0,0,1.0,0,0.0)">			<g stroke="lightgray" stroke-width="4" transform="scale(4, 4)"> <rect x="0" y="0" width="256" height="256" fill="white" stroke-width="4"/></g>
			<g transform="scale(0.92, -0.92) translate(60, -920)">					<path d="M 145 531 L 182 554 L 251 602 Q 269 614 279 619 Q 289 623 292 629 Q 297 641 257 658 Q 233 668 226 672 Q 215 677 212 652 Q 210 642 199 627 L 177 596 Q 164 580 153 568 L 129 545 C 107 524 120 515 145 531 Z" fill="black"></path>
				<path d="M 153 452 L 149 496 Q 149 502 145 531 C 144 541 144 541 129 545 L 115 549 Q 94 555 84 551 Q 74 546 88 528 Q 103 509 107 463 L 120 347 Q 127 304 143 304 Q 152 304 158 327 L 159 358 L 154 428 L 153 452 Z" fill="black"></path>
				<path d="M 154 428 L 180 432 L 207 438 Q 235 442 234 452 Q 234 462 210 467 Q 194 469 153 452 C 125 441 124 423 154 428 Z" fill="black"></path>
				<path d="M 336 346 L 342 337 Q 343 332 351 330 Q 369 327 382 354 L 387 380 L 410 469 Q 410 476 426 515 Q 427 519 434 529 Q 442 538 442 542 Q 443 546 426 560 Q 410 574 386 580 Q 373 586 357 580 L 338 571 Q 316 563 290 557 L 266 550 Q 249 546 260 534 Q 271 521 309 536 L 330 542 Q 357 552 364 545 Q 369 534 364 515 L 359 477 L 357 454 L 343 389 Q 341 377 338 374 Q 336 370 326 372 C 320 371 320 371 336 346 Z" fill="black"></path>
				<path d="M 359 477 L 347 479 Q 335 482 328 479 L 305 475 L 281 469 Q 260 467 273 454 Q 279 447 292 446 Q 306 445 357 454 C 387 459 389 472 359 477 Z" fill="black"></path>
				<path d="M 158 327 L 234 335 Q 274 341 336 346 C 366 348 354 361 326 372 L 313 377 L 299 380 Q 293 380 266 373 Q 240 366 218 366 L 159 358 C 129 354 128 324 158 327 Z" fill="black"></path>
				<path d="M 140 225 L 147 260 Q 147 267 126 276 Q 105 284 95 284 Q 85 284 83 282 Q 82 279 85 270 L 92 252 Q 98 228 98 205 L 96 89 L 91 51 Q 88 20 82 4 Q 76 -6 76 -14 Q 76 -22 83 -40 Q 90 -58 102 -58 Q 106 -58 114 -47 L 143 -10 L 200 56 Q 206 61 203 65 Q 200 68 190 61 L 143 30 Q 133 23 132 24 Q 127 29 129 49 L 132 114 L 133 136 L 138 203 L 140 225 Z" fill="black"></path>
				<path d="M 138 203 L 155 202 Q 161 202 188 207 Q 216 212 216 220 Q 218 226 204 232 Q 191 238 184 238 Q 178 238 168 234 L 154 229 Q 150 227 140 225 C 111 219 108 205 138 203 Z" fill="black"></path>
				<path d="M 132 114 L 147 113 Q 152 112 173 117 L 198 123 Q 216 125 216 132 Q 219 138 205 144 Q 191 150 185 150 Q 179 150 170 147 L 133 136 C 104 127 102 116 132 114 Z" fill="black"></path>
				<path d="M 229 210 L 224 39 L 220 16 Q 218 4 216 0 L 211 -14 Q 210 -17 215 -30 Q 224 -61 238 -61 Q 244 -61 256 -45 Q 268 -30 296 -2 L 349 54 Q 358 61 356 64 Q 354 67 343 61 L 280 25 Q 273 21 270 22 Q 267 23 267 32 L 268 119 L 268 141 L 270 210 L 272 233 L 273 249 L 279 272 Q 280 277 279 280 Q 279 288 257 300 Q 236 311 224 311 Q 210 312 214 298 L 221 283 Q 229 264 229 210 Z" fill="black"></path>
				<path d="M 270 210 L 286 210 Q 307 210 328 215 Q 347 218 344 230 Q 343 232 332 239 Q 321 246 319 246 L 272 233 C 243 225 240 210 270 210 Z" fill="red"></path>
				<path d="M 268 119 L 290 119 Q 339 116 351 133 Q 351 142 337 146 Q 324 150 311 150 Q 292 150 268 141 C 240 131 238 119 268 119 Z" fill="lightgray"></path>
				<path d="M 351 320 Q 330 320 342 298 Q 355 275 357 222 L 361 159 Q 372 78 419 21 Q 507 -85 708 -83 Q 811 -82 866 -53 Q 888 -43 896 -32 Q 905 -22 896 -2 L 887 12 Q 872 39 864 87 L 859 117 Q 857 128 851 128 Q 845 128 843 120 L 838 88 Q 829 25 814 11 Q 790 -11 723 -18 Q 576 -32 490 22 Q 391 82 398 219 Q 399 261 406 274 Q 410 282 409 285 Q 409 295 386 308 Q 364 320 351 320 Z" fill="lightgray"></path>
				<path d="M 515 152 L 509 300 L 508 371 C 508 393 508 393 495 396 L 464 404 Q 441 407 448 389 L 458 371 Q 469 336 469 310 L 479 148 Q 479 139 482 125 Q 488 88 502 90 Q 510 88 515 104 L 516 120 L 515 152 Z" fill="lightgray"></path>
				<path d="M 508 371 L 548 378 L 588 384 L 638 391 L 678 396 L 740 401 Q 750 400 752 398 Q 755 396 757 387 L 757 366 L 748 216 L 742 181 Q 740 167 737 166 C 728 137 693 168 704 140 L 712 120 Q 717 108 722 93 Q 727 78 732 74 Q 737 69 754 78 Q 780 98 795 188 L 813 343 Q 817 372 823 382 Q 830 392 829 395 Q 829 403 815 413 Q 801 422 796 426 Q 792 430 786 434 Q 780 438 777 438 L 770 439 Q 766 440 741 436 L 639 417 L 588 409 L 495 396 C 465 392 478 366 508 371 Z" fill="lightgray"></path>
				<path d="M 586 282 L 542 275 L 531 268 Q 530 267 530 265 Q 520 262 531 252 Q 536 247 551 245 Q 567 242 575 243 L 590 247 L 637 255 L 687 261 Q 711 262 719 268 L 727 274 L 723 284 Q 718 291 707 295 Q 697 299 692 299 Q 688 299 637 289 L 586 282 Z" fill="lightgray"></path>
				<path d="M 588 384 L 586 282 L 590 247 L 590 158 C 590 128 637 134 637 164 L 637 255 L 637 289 L 638 391 L 639 417 L 641 488 Q 641 496 643 520 L 651 573 L 662 604 Q 661 618 631 630 Q 625 631 609 638 Q 593 644 582 643 Q 562 644 570 624 L 577 605 Q 588 577 588 512 L 588 409 L 588 384 Z" fill="lightgray"></path>
				<path d="M 590 158 L 553 154 L 515 152 C 485 150 486 118 516 120 L 549 122 Q 561 122 591 126 L 704 140 C 734 144 767 165 737 166 Q 734 164 723 169 Q 712 174 704 174 L 668 170 L 637 164 L 590 158 Z" fill="lightgray"></path>
</g>
		<text x="40" y="140" font-size="128" fill="#999999">11</text></g>
		<g id="id2:id1:id1" transform="matrix(1.0,0,0,1.0,1024,0.0)">			<g stroke="lightgray" stroke-width="4" transform="scale(4, 4)"> <rect x="0" y="0" width="256" height="256" fill="white" stroke-width="4"/></g>
			<g transform="scale(0.92, -0.92) translate(60, -920)">					<path d="M 145 531 L 182 554 L 251 602 Q 269 614 279 619 Q 289 623 292 629 Q 297 641 257 658 Q 233 668 226 672 Q 215 677 212 652 Q 210 642 199 627 L 177 596 Q 164 580 153 568 L 129 545 C 107 524 120 515 145 531 Z" fill="black"></path>
				<path d="M 153 452 L 149 496 Q 149 502 145 531 C 144 541 144 541 129 545 L 115 549 Q 94 555 84 551 Q 74 546 88 528 Q 103 509 107 463 L 120 347 Q 127 304 143 304 Q 152 304 158 327 L 159 358 L 154 428 L 153 452 Z" fill="black"></path>
				<path d="M 154 428 L 180 432 L 207 438 Q 235 442 234 452 Q 234 462 210 467 Q 194 469 153 452 C 125 441 124 423 154 428 Z" fill="black"></path>
				<path d="M 336 346 L 342 337 Q 343 332 351 330 Q 369 327 382 354 L 387 380 L 410 469 Q 410 476 426 515 Q 427 519 434 529 Q 442 538 442 542 Q 443 546 426 560 Q 410 574 386 580 Q 373 586 357 580 L 338 571 Q 316 563 290 557 L 266 550 Q 249 546 260 534 Q 271 521 309 536 L 330 542 Q 357 552 364 545 Q 369 534 364 515 L 359 477 L 357 454 L 343 389 Q 341 377 338 374 Q 336 370 326 372 C 320 371 320 371 336 346 Z" fill="black"></path>
				<path d="M 359 477 L 347 479 Q 335 482 328 479 L 305 475 L 281 469 Q 260 467 273 454 Q 279 447 292 446 Q 306 445 357 454 C 387 459 389 472 359 477 Z" fill="black"></path>
				<path d="M 158 327 L 234 335 Q 274 341 336 346 C 366 348 354 361 326 372 L 313 377 L 299 380 Q 293 380 266 373 Q 240 366 218 366 L 159 358 C 129 354 128 324 158 327 Z" fill="black"></path>
				<path d="M 140 225 L 147 260 Q 147 267 126 276 Q 105 284 95 284 Q 85 284 83 282 Q 82 279 85 270 L 92 252 Q 98 228 98 205 L 96 89 L 91 51 Q 88 20 82 4 Q 76 -6 76 -14 Q 76 -22 83 -40 Q 90 -58 102 -58 Q 106 -58 114 -47 L 143 -10 L 200 56 Q 206 61 203 65 Q 200 68 190 61 L 143 30 Q 133 23 132 24 Q 127 29 129 49 L 132 114 L 133 136 L 138 203 L 140 225 Z" fill="black"></path>
				<path d="M 138 203 L 155 202 Q 161 202 188 207 Q 216 212 216 220 Q 218 226 204 232 Q 191 238 184 238 Q 178 238 168 234 L 154 229 Q 150 227 140 225 C 111 219 108 205 138 203 Z" fill="black"></path>
				<path d="M 132 114 L 147 113 Q 152 112 173 117 L 198 123 Q 216 125 216 132 Q 219 138 205 144 Q 191 150 185 150 Q 179 150 170 147 L 133 136 C 104 127 102 116 132 114 Z" fill="black"></path>
				<path d="M 229 210 L 224 39 L 220 16 Q 218 4 216 0 L 211 -14 Q 210 -17 215 -30 Q 224 -61 238 -61 Q 244 -61 256 -45 Q 268 -30 296 -2 L 349 54 Q 358 61 356 64 Q 354 67 343 61 L 280 25 Q 273 21 270 22 Q 267 23 267 32 L 268 119 L 268 141 L 270 210 L 272 233 L 273 249 L 279 272 Q 280 277 279 280 Q 279 288 257 300 Q 236 311 224 311 Q 210 312 214 298 L 221 283 Q 229 264 229 210 Z" fill="black"></path>
				<path d="M 270 210 L 286 210 Q 307 210 328 215 Q 347 218 344 230 Q 343 232 332 239 Q 321 246 319 246 L 272 233 C 243 225 240 210 270 210 Z" fill="black"></path>
				<path d="M 268 119 L 290 119 Q 339 116 351 133 Q 351 142 337 146 Q 324 150 311 150 Q 292 150 268 141 C 240 131 238 119 268 119 Z" fill="red"></path>
				<path d="M 351 320 Q 330 320 342 298 Q 355 275 357 222 L 361 159 Q 372 78 419 21 Q 507 -85 708 -83 Q 811 -82 866 -53 Q 888 -43 896 -32 Q 905 -22 896 -2 L 887 12 Q 872 39 864 87 L 859 117 Q 857 128 851 128 Q 845 128 843 120 L 838 88 Q 829 25 814 11 Q 790 -11 723 -18 Q 576 -32 490 22 Q 391 82 398 219 Q 399 261 406 274 Q 410 282 409 285 Q 409 295 386 308 Q 364 320 351 320 Z" fill="lightgray"></path>
				<path d="M 515 152 L 509 300 L 508 371 C 508 393 508 393 495 396 L 464 404 Q 441 407 448 389 L 458 371 Q 469 336 469 310 L 479 148 Q 479 139 482 125 Q 488 88 502 90 Q 510 88 515 104 L 516 120 L 515 152 Z" fill="lightgray"></path>
				<path d="M 508 371 L 548 378 L 588 384 L 638 391 L 678 396 L 740 401 Q 750 400 752 398 Q 755 396 757 387 L 757 366 L 748 216 L 742 181 Q 740 167 737 166 C 728 137 693 168 704 140 L 712 120 Q 717 108 722 93 Q 727 78 732 74 Q 737 69 754 78 Q 780 98 795 188 L 813 343 Q 817 372 823 382 Q 830 392 829 395 Q 829 403 815 413 Q 801 422 796 426 Q 792 430 786 434 Q 780 438 777 438 L 770 439 Q 766 440 741 436 L 639 417 L 588 409 L 495 396 C 465 392 478 366 508 371 Z" fill="lightgray"></path>
				<path d="M 586 282 L 542 275 L 531 268 Q 530 267 530 265 Q 520 262 531 252 Q 536 247 551 245 Q 567 242 575 243 L 590 247 L 637 255 L 687 261 Q 711 262 719 268 L 727 274 L 723 284 Q 718 291 707 295 Q 697 299 692 299 Q 688 299 637 289 L 586 282 Z" fill="lightgray"></path>
				<path d="M 588 384 L 586 282 L 590 247 L 590 158 C 590 128 637 134 637 164 L 637 255 L 637 289 L 638 391 L 639 417 L 641 488 Q 641 496 643 520 L 651 573 L 662 604 Q 661 618 631 630 Q 625 631 609 638 Q 593 644 582 643 Q 562 644 570 624 L 577 605 Q 588 577 588 512 L 588 409 L 588 384 Z" fill="lightgray"></path>
				<path d="M 590 158 L 553 154 L 515 152 C 485 150 486 118 516 120 L 549 122 Q 561 122 591 126 L 704 140 C 734 144 767 165 737 166 Q 734 164 723 169 Q 712 174 704 174 L 668 170 L 637 164 L 590 158 Z" fill="lightgray"></path>
</g>
		<text x="40" y="140" font-size="128" fill="#999999">12</text></g>
		<g id="id2:id2:id2" transform="matrix(1.0,0,0,1.0,2048,0.0)">			<g stroke="lightgray" stroke-width="4" transform="scale(4, 4)"> <rect x="0" y="0" width="256" height="256" fill="white" stroke-width="4"/></g>
			<g transform="scale(0.92, -0.92) translate(60, -920)">					<path d="M 145 531 L 182 554 L 251 602 Q 269 614 279 619 Q 289 623 292 629 Q 297 641 257 658 Q 233 668 226 672 Q 215 677 212 652 Q 210 642 199 627 L 177 596 Q 164 580 153 568 L 129 545 C 107 524 120 515 145 531 Z" fill="black"></path>
				<path d="M 153 452 L 149 496 Q 149 502 145 531 C 144 541 144 541 129 545 L 115 549 Q 94 555 84 551 Q 74 546 88 528 Q 103 509 107 463 L 120 347 Q 127 304 143 304 Q 152 304 158 327 L 159 358 L 154 428 L 153 452 Z" fill="black"></path>
				<path d="M 154 428 L 180 432 L 207 438 Q 235 442 234 452 Q 234 462 210 467 Q 194 469 153 452 C 125 441 124 423 154 428 Z" fill="black"></path>
				<path d="M 336 346 L 342 337 Q 343 332 351 330 Q 369 327 382 354 L 387 380 L 410 469 Q 410 476 426 515 Q 427 519 434 529 Q 442 538 442 542 Q 443 546 426 560 Q 410 574 386 580 Q 373 586 357 580 L 338 571 Q 316 563 290 557 L 266 550 Q 249 546 260 534 Q 271 521 309 536 L 330 542 Q 357 552 364 545 Q 369 534 364 515 L 359 477 L 357 454 L 343 389 Q 341 377 338 374 Q 336 370 326 372 C 320 371 320 371 336 346 Z" fill="black"></path>
				<path d="M 359 477 L 347 479 Q 335 482 328 479 L 305 475 L 281 469 Q 260 467 273 454 Q 279 447 292 446 Q 306 445 357 454 C 387 459 389 472 359 477 Z" fill="black"></path>
				<path d="M 158 327 L 234 335 Q 274 341 336 346 C 366 348 354 361 326 372 L 313 377 L 299 380 Q 293 380 266 373 Q 240 366 218 366 L 159 358 C 129 354 128 324 158 327 Z" fill="black"></path>
				<path d="M 140 225 L 147 260 Q 147 267 126 276 Q 105 284 95 284 Q 85 284 83 282 Q 82 279 85 270 L 92 252 Q 98 228 98 205 L 96 89 L 91 51 Q 88 20 82 4 Q 76 -6 76 -14 Q 76 -22 83 -40 Q 90 -58 102 -58 Q 106 -58 114 -47 L 143 -10 L 200 56 Q 206 61 203 65 Q 200 68 190 61 L 143 30 Q 133 23 132 24 Q 127 29 129 49 L 132 114 L 133 136 L 138 203 L 140 225 Z" fill="black"></path>
				<path d="M 138 203 L 155 202 Q 161 202 188 207 Q 216 212 216 220 Q 218 226 204 232 Q 191 238 184 238 Q 178 238 168 234 L 154 229 Q 150 227 140 225 C 111 219 108 205 138 203 Z" fill="black"></path>
				<path d="M 132 114 L 147 113 Q 152 112 173 117 L 198 123 Q 216 125 216 132 Q 219 138 205 144 Q 191 150 185 150 Q 179 150 170 147 L 133 136 C 104 127 102 116 132 114 Z" fill="black"></path>
				<path d="M 229 210 L 224 39 L 220 16 Q 218 4 216 0 L 211 -14 Q 210 -17 215 -30 Q 224 -61 238 -61 Q 244 -61 256 -45 Q 268 -30 296 -2 L 349 54 Q 358 61 356 64 Q 354 67 343 61 L 280 25 Q 273 21 270 22 Q 267 23 267 32 L 268 119 L 268 141 L 270 210 L 272 233 L 273 249 L 279 272 Q 280 277 279 280 Q 279 288 257 300 Q 236 311 224 311 Q 210 312 214 298 L 221 283 Q 229 264 229 210 Z" fill="black"></path>
				<path d="M 270 210 L 286 210 Q 307 210 328 215 Q 347 218 344 230 Q 343 232 332 239 Q 321 246 319 246 L 272 233 C 243 225 240 210 270 210 Z" fill="black"></path>
				<path d="M 268 119 L 290 119 Q 339 116 351 133 Q 351 142 337 146 Q 324 150 311 150 Q 292 150 268 141 C 240 131 238 119 268 119 Z" fill="black"></path>
				<path d="M 351 320 Q 330 320 342 298 Q 355 275 357 222 L 361 159 Q 372 78 419 21 Q 507 -85 708 -83 Q 811 -82 866 -53 Q 888 -43 896 -32 Q 905 -22 896 -2 L 887 12 Q 872 39 864 87 L 859 117 Q 857 128 851 128 Q 845 128 843 120 L 838 88 Q 829 25 814 11 Q 790 -11 723 -18 Q 576 -32 490 22 Q 391 82 398 219 Q 399 261 406 274 Q 410 282 409 285 Q 409 295 386 308 Q 364 320 351 320 Z" fill="red"></path>
				<path d="M 515 152 L 509 300 L 508 371 C 508 393 508 393 495 396 L 464 404 Q 441 407 448 389 L 458 371 Q 469 336 469 310 L 479 148 Q 479 139 482 125 Q 488 88 502 90 Q 510 88 515 104 L 516 120 L 515 152 Z" fill="lightgray"></path>
				<path d="M 508 371 L 548 378 L 588 384 L 638 391 L 678 396 L 740 401 Q 750 400 752 398 Q 755 396 757 387 L 757 366 L 748 216 L 742 181 Q 740 167 737 166 C 728 137 693 168 704 140 L 712 120 Q 717 108 722 93 Q 727 78 732 74 Q 737 69 754 78 Q 780 98 795 188 L 813 343 Q 817 372 823 382 Q 830 392 829 395 Q 829 403 815 413 Q 801 422 796 426 Q 792 430 786 434 Q 780 438 777 438 L 770 439 Q 766 440 741 436 L 639 417 L 588 409 L 495 396 C 465 392 478 366 508 371 Z" fill="lightgray"></path>
				<path d="M 586 282 L 542 275 L 531 268 Q 530 267 530 265 Q 520 262 531 252 Q 536 247 551 245 Q 567 242 575 243 L 590 247 L 637 255 L 687 261 Q 711 262 719 268 L 727 274 L 723 284 Q 718 291 707 295 Q 697 299 692 299 Q 688 299 637 289 L 586 282 Z" fill="lightgray"></path>
				<path d="M 588 384 L 586 282 L 590 247 L 590 158 C 590 128 637 134 637 164 L 637 255 L 637 289 L 638 391 L 639 417 L 641 488 Q 641 496 643 520 L 651 573 L 662 604 Q 661 618 631 630 Q 625 631 609 638 Q 593 644 582 643 Q 562 644 570 624 L 577 605 Q 588 577 588 512 L 588 409 L 588 384 Z" fill="lightgray"></path>
				<path d="M 590 158 L 553 154 L 515 152 C 485 150 486 118 516 120 L 549 122 Q 561 122 591 126 L 704 140 C 734 144 767 165 737 166 Q 734 164 723 169 Q 712 174 704 174 L 668 170 L 637 164 L 590 158 Z" fill="lightgray"></path>
</g>
		<text x="40" y="140" font-size="128" fill="#999999">13</text></g>
		<g id="id2:id3:id3" transform="matrix(1.0,0,0,1.0,3072,0.0)">			<g stroke="lightgray" stroke-width="4" transform="scale(4, 4)"> <rect x="0" y="0" width="256" height="256" fill="white" stroke-width="4"/></g>
			<g transform="scale(0.92, -0.92) translate(60, -920)">					<path d="M 145 531 L 182 554 L 251 602 Q 269 614 279 619 Q 289 623 292 629 Q 297 641 257 658 Q 233 668 226 672 Q 215 677 212 652 Q 210 642 199 627 L 177 596 Q 164 580 153 568 L 129 545 C 107 524 120 515 145 531 Z" fill="black"></path>
				<path d="M 153 452 L 149 496 Q 149 502 145 531 C 144 541 144 541 129 545 L 115 549 Q 94 555 84 551 Q 74 546 88 528 Q 103 509 107 463 L 120 347 Q 127 304 143 304 Q 152 304 158 327 L 159 358 L 154 428 L 153 452 Z" fill="black"></path>
				<path d="M 154 428 L 180 432 L 207 438 Q 235 442 234 452 Q 234 462 210 467 Q 194 469 153 452 C 125 441 124 423 154 428 Z" fill="black"></path>
				<path d="M 336 346 L 342 337 Q 343 332 351 330 Q 369 327 382 354 L 387 380 L 410 469 Q 410 476 426 515 Q 427 519 434 529 Q 442 538 442 542 Q 443 546 426 560 Q 410 574 386 580 Q 373 586 357 580 L 338 571 Q 316 563 290 557 L 266 550 Q 249 546 260 534 Q 271 521 309 536 L 330 542 Q 357 552 364 545 Q 369 534 364 515 L 359 477 L 357 454 L 343 389 Q 341 377 338 374 Q 336 370 326 372 C 320 371 320 371 336 346 Z" fill="black"></path>
				<path d="M 359 477 L 347 479 Q 335 482 328 479 L 305 475 L 281 469 Q 260 467 273 454 Q 279 447 292 446 Q 306 445 357 454 C 387 459 389 472 359 477 Z" fill="black"></path>
				<path d="M 158 327 L 234 335 Q 274 341 336 346 C 366 348 354 361 326 372 L 313 377 L 299 380 Q 293 380 266 373 Q 240 366 218 366 L 159 358 C 129 354 128 324 158 327 Z" fill="black"></path>
				<path d="M 140 225 L 147 260 Q 147 267 126 276 Q 105 284 95 284 Q 85 284 83 282 Q 82 279 85 270 L 92 252 Q 98 228 98 205 L 96 89 L 91 51 Q 88 20 82 4 Q 76 -6 76 -14 Q 76 -22 83 -40 Q 90 -58 102 -58 Q 106 -58 114 -47 L 143 -10 L 200 56 Q 206 61 203 65 Q 200 68 190 61 L 143 30 Q 133 23 132 24 Q 127 29 129 49 L 132 114 L 133 136 L 138 203 L 140 225 Z" fill="black"></path>
				<path d="M 138 203 L 155 202 Q 161 202 188 207 Q 216 212 216 220 Q 218 226 204 232 Q 191 238 184 238 Q 178 238 168 234 L 154 229 Q 150 227 140 225 C 111 219 108 205 138 203 Z" fill="black"></path>
				<path d="M 132 114 L 147 113 Q 152 112 173 117 L 198 123 Q 216 125 216 132 Q 219 138 205 144 Q 191 150 185 150 Q 179 150 170 147 L 133 136 C 104 127 102 116 132 114 Z" fill="black"></path>
				<path d="M 229 210 L 224 39 L 220 16 Q 218 4 216 0 L 211 -14 Q 210 -17 215 -30 Q 224 -61 238 -61 Q 244 -61 256 -45 Q 268 -30 296 -2 L 349 54 Q 358 61 356 64 Q 354 67 343 61 L 280 25 Q 273 21 270 22 Q 267 23 267 32 L 268 119 L 268 141 L 270 210 L 272 233 L 273 249 L 279 272 Q 280 277 279 280 Q 279 288 257 300 Q 236 311 224 311 Q 210 312 214 298 L 221 283 Q 229 264 229 210 Z" fill="black"></path>
				<path d="M 270 210 L 286 210 Q 307 210 328 215 Q 347 218 344 230 Q 343 232 332 239 Q 321 246 319 246 L 272 233 C 243 225 240 210 270 210 Z" fill="black"></path>
				<path d="M 268 119 L 290 119 Q 339 116 351 133 Q 351 142 337 146 Q 324 150 311 150 Q 292 150 268 141 C 240 131 238 119 268 119 Z" fill="black"></path>
				<path d="M 351 320 Q 330 320 342 298 Q 355 275 357 222 L 361 159 Q 372 78 419 21 Q 507 -85 708 -83 Q 811 -82 866 -53 Q 888 -43 896 -32 Q 905 -22 896 -2 L 887 12 Q 872 39 864 87 L 859 117 Q 857 128 851 128 Q 845 128 843 120 L 838 88 Q 829 25 814 11 Q 790 -11 723 -18 Q 576 -32 490 22 Q 391 82 398 219 Q 399 261 406 274 Q 410 282 409 285 Q 409 295 386 308 Q 364 320 351 320 Z" fill="black"></path>
				<path d="M 515 152 L 509 300 L 508 371 C 508 393 508 393 495 396 L 464 404 Q 441 407 448 389 L 458 371 Q 469 336 469 310 L 479 148 Q 479 139 482 125 Q 488 88 502 90 Q 510 88 515 104 L 516 120 L 515 152 Z" fill="red"></path>
				<path d="M 508 371 L 548 378 L 588 384 L 638 391 L 678 396 L 740 401 Q 750 400 752 398 Q 755 396 757 387 L 757 366 L 748 216 L 742 181 Q 740 167 737 166 C 728 137 693 168 704 140 L 712 120 Q 717 108 722 93 Q 727 78 732 74 Q 737 69 754 78 Q 780 98 795 188 L 813 343 Q 817 372 823 382 Q 830 392 829 395 Q 829 403 815 413 Q 801 422 796 426 Q 792 430 786 434 Q 780 438 777 438 L 770 439 Q 766 440 741 436 L 639 417 L 588 409 L 495 396 C 465 392 478 366 508 371 Z" fill="lightgray"></path>
				<path d="M 586 282 L 542 275 L 531 268 Q 530 267 530 265 Q 520 262 531 252 Q 536 247 551 245 Q 567 242 575 243 L 590 247 L 637 255 L 687 261 Q 711 262 719 268 L 727 274 L 723 284 Q 718 291 707 295 Q 697 299 692 299 Q 688 299 637 289 L 586 282 Z" fill="lightgray"></path>
				<path d="M 588 384 L 586 282 L 590 247 L 590 158 C 590 128 637 134 637 164 L 637 255 L 637 289 L 638 391 L 639 417 L 641 488 Q 641 496 643 520 L 651 573 L 662 604 Q 661 618 631 630 Q 625 631 609 638 Q 593 644 582 643 Q 562 644 570 624 L 577 605 Q 588 577 588 512 L 588 409 L 588 384 Z" fill="lightgray"></path>
				<path d="M 590 158 L 553 154 L 515 152 C 485 150 486 118 516 120 L 549 122 Q 561 122 591 126 L 704 140 C 734 144 767 165 737 166 Q 734 164 723 169 Q 712 174 704 174 L 668 170 L 637 164 L 590 158 Z" fill="lightgray"></path>
</g>
		<text x="40" y="140" font-size="128" fill="#999999">14</text></g>
		<g id="id2:id4:id4" transform="matrix(1.0,0,0,1.0,4096,0.0)">			<g stroke="lightgray" stroke-width="4" transform="scale(4, 4)"> <rect x="0" y="0" width="256" height="256" fill="white" stroke-width="4"/></g>
			<g transform="scale(0.92, -0.92) translate(60, -920)">					<path d="M 145 531 L 182 554 L 251 602 Q 269 614 279 619 Q 289 623 292 629 Q 297 641 257 658 Q 233 668 226 672 Q 215 677 212 652 Q 210 642 199 627 L 177 596 Q 164 580 153 568 L 129 545 C 107 524 120 515 145 531 Z" fill="black"></path>
				<path d="M 153 452 L 149 496 Q 149 502 145 531 C 144 541 144 541 129 545 L 115 549 Q 94 555 84 551 Q 74 546 88 528 Q 103 509 107 463 L 120 347 Q 127 304 143 304 Q 152 304 158 327 L 159 358 L 154 428 L 153 452 Z" fill="black"></path>
				<path d="M 154 428 L 180 432 L 207 438 Q 235 442 234 452 Q 234 462 210 467 Q 194 469 153 452 C 125 441 124 423 154 428 Z" fill="black"></path>
				<path d="M 336 346 L 342 337 Q 343 332 351 330 Q 369 327 382 354 L 387 380 L 410 469 Q 410 476 426 515 Q 427 519 434 529 Q 442 538 442 542 Q 443 546 426 560 Q 410 574 386 580 Q 373 586 357 580 L 338 571 Q 316 563 290 557 L 266 550 Q 249 546 260 534 Q 271 521 309 536 L 330 542 Q 357 552 364 545 Q 369 534 364 515 L 359 477 L 357 454 L 343 389 Q 341 377 338 374 Q 336 370 326 372 C 320 371 320 371 336 346 Z" fill="black"></path>
				<path d="M 359 477 L 347 479 Q 335 482 328 479 L 305 475 L 281 469 Q 260 467 273 454 Q 279 447 292 446 Q 306 445 357 454 C 387 459 389 472 359 477 Z" fill="black"></path>
				<path d="M 158 327 L 234 335 Q 274 341 336 346 C 366 348 354 361 326 372 L 313 377 L 299 380 Q 293 380 266 373 Q 240 366 218 366 L 159 358 C 129 354 128 324 158 327 Z" fill="black"></path>
				<path d="M 140 225 L 147 260 Q 147 267 126 276 Q 105 284 95 284 Q 85 284 83 282 Q 82 279 85 270 L 92 252 Q 98 228 98 205 L 96 89 L 91 51 Q 88 20 82 4 Q 76 -6 76 -14 Q 76 -22 83 -40 Q 90 -58 102 -58 Q 106 -58 114 -47 L 143 -10 L 200 56 Q 206 61 203 65 Q 200 68 190 61 L 143 30 Q 133 23 132 24 Q 127 29 129 49 L 132 114 L 133 136 L 138 203 L 140 225 Z" fill="black"></path>
				<path d="M 138 203 L 155 202 Q 161 202 188 207 Q 216 212 216 220 Q 218 226 204 232 Q 191 238 184 238 Q 178 238 168 234 L 154 229 Q 150 227 140 225 C 111 219 108 205 138 203 Z" fill="black"></path>
				<path d="M 132 114 L 147 113 Q 152 112 173 117 L 198 123 Q 216 125 216 132 Q 219 138 205 144 Q 191 150 185 150 Q 179 150 170 147 L 133 136 C 104 127 102 116 132 114 Z" fill="black"></path>
				<path d="M 229 210 L 224 39 L 220 16 Q 218 4 216 0 L 211 -14 Q 210 -17 215 -30 Q 224 -61 238 -61 Q 244 -61 256 -45 Q 268 -30 296 -2 L 349 54 Q 358 61 356 64 Q 354 67 343 61 L 280 25 Q 273 21 270 22 Q 267 23 267 32 L 268 119 L 268 141 L 270 210 L 272 233 L 273 249 L 279 272 Q 280 277 279 280 Q 279 288 257 300 Q 236 311 224 311 Q 210 312 214 298 L 221 283 Q 229 264 229 210 Z" fill="black"></path>
				<path d="M 270 210 L 286 210 Q 307 210 328 215 Q 347 218 344 230 Q 343 232 332 239 Q 321 246 319 246 L 272 233 C 243 225 240 210 270 210 Z" fill="black"></path>
				<path d="M 268 119 L 290 119 Q 339 116 351 133 Q 351 142 337 146 Q 324 150 311 150 Q 292 150 268 141 C 240 131 238 119 268 119 Z" fill="black"></path>
				<path d="M 351 320 Q 330 320 342 298 Q 355 275 357 222 L 361 159 Q 372 78 419 21 Q 507 -85 708 -83 Q 811 -82 866 -53 Q 888 -43 896 -32 Q 905 -22 896 -2 L 887 12 Q 872 39 864 87 L 859 117 Q 857 128 851 128 Q 845 128 843 120 L 838 88 Q 829 25 814 11 Q 790 -11 723 -18 Q 576 -32 490 22 Q 391 82 398 219 Q 399 261 406 274 Q 410 282 409 285 Q 409 295 386 308 Q 364 320 351 320 Z" fill="black"></path>
				<path d="M 515 152 L 509 300 L 508 371 C 508 393 508 393 495 396 L 464 404 Q 441 407 448 389 L 458 371 Q 469 336 469 310 L 479 148 Q 479 139 482 125 Q 488 88 502 90 Q 510 88 515 104 L 516 120 L 515 152 Z" fill="black"></path>
				<path d="M 508 371 L 548 378 L 588 384 L 638 391 L 678 396 L 740 401 Q 750 400 752 398 Q 755 396 757 387 L 757 366 L 748 216 L 742 181 Q 740 167 737 166 C 728 137 693 168 704 140 L 712 120 Q 717 108 722 93 Q 727 78 732 74 Q 737 69 754 78 Q 780 98 795 188 L 813 343 Q 817 372 823 382 Q 830 392 829 395 Q 829 403 815 413 Q 801 422 796 426 Q 792 430 786 434 Q 780 438 777 438 L 770 439 Q 766 440 741 436 L 639 417 L 588 409 L 495 396 C 465 392 478 366 508 371 Z" fill="red"></path>
				<path d="M 586 282 L 542 275 L 531 268 Q 530 267 530 265 Q 520 262 531 252 Q 536 247 551 245 Q 567 242 575 243 L 590 247 L 637 255 L 687 261 Q 711 262 719 268 L 727 274 L 723 284 Q 718 291 707 295 Q 697 299 692 299 Q 688 299 637 289 L 586 282 Z" fill="lightgray"></path>
				<path d="M 588 384 L 586 282 L 590 247 L 590 158 C 590 128 637 134 637 164 L 637 255 L 637 289 L 638 391 L 639 417 L 641 488 Q 641 496 643 520 L 651 573 L 662 604 Q 661 618 631 630 Q 625 631 609 638 Q 593 644 582 643 Q 562 644 570 624 L 577 605 Q 588 577 588 512 L 588 409 L 588 384 Z" fill="lightgray"></path>
				<path d="M 590 158 L 553 154 L 515 152 C 485 150 486 118 516 120 L 549 122 Q 561 122 591 126 L 704 140 C 734 144 767 165 737 166 Q 734 164 723 169 Q 712 174 704 174 L 668 170 L 637 164 L 590 158 Z" fill="lightgray"></path>
</g>
		<text x="40" y="140" font-size="128" fill="#999999">15</text></g>
</g>
	<g id="id3:id3" transform="translate(0.0,3072)">
		<g id="id3:id0:id0" transform="matrix(1.0,0,0,1.0,0,0.0)">			<g stroke="lightgray" stroke-width="4" transform="scale(4, 4)"> <rect x="0" y="0" width="256" height="256" fill="white" stroke-width="4"/></g>
			<g transform="scale(0.92, -0.92) translate(60, -920)">					<path d="M 145 531 L 182 554 L 251 602 Q 269 614 279 619 Q 289 623 292 629 Q 297 641 257 658 Q 233 668 226 672 Q 215 677 212 652 Q 210 642 199 627 L 177 596 Q 164 580 153 568 L 129 545 C 107 524 120 515 145 531 Z" fill="black"></path>
				<path d="M 153 452 L 149 496 Q 149 502 145 531 C 144 541 144 541 129 545 L 115 549 Q 94 555 84 551 Q 74 546 88 528 Q 103 509 107 463 L 120 347 Q 127 304 143 304 Q 152 304 158 327 L 159 358 L 154 428 L 153 452 Z" fill="black"></path>
				<path d="M 154 428 L 180 432 L 207 438 Q 235 442 234 452 Q 234 462 210 467 Q 194 469 153 452 C 125 441 124 423 154 428 Z" fill="black"></path>
				<path d="M 336 346 L 342 337 Q 343 332 351 330 Q 369 327 382 354 L 387 380 L 410 469 Q 410 476 426 515 Q 427 519 434 529 Q 442 538 442 542 Q 443 546 426 560 Q 410 574 386 580 Q 373 586 357 580 L 338 571 Q 316 563 290 557 L 266 550 Q 249 546 260 534 Q 271 521 309 536 L 330 542 Q 357 552 364 545 Q 369 534 364 515 L 359 477 L 357 454 L 343 389 Q 341 377 338 374 Q 336 370 326 372 C 320 371 320 371 336 346 Z" fill="black"></path>
				<path d="M 359 477 L 347 479 Q 335 482 328 479 L 305 475 L 281 469 Q 260 467 273 454 Q 279 447 292 446 Q 306 445 357 454 C 387 459 389 472 359 477 Z" fill="black"></path>
				<path d="M 158 327 L 234 335 Q 274 341 336 346 C 366 348 354 361 326 372 L 313 377 L 299 380 Q 293 380 266 373 Q 240 366 218 366 L 159 358 C 129 354 128 324 158 327 Z" fill="black"></path>
				<path d="M 140 225 L 147 260 Q 147 267 126 276 Q 105 284 95 284 Q 85 284 83 282 Q 82 279 85 270 L 92 252 Q 98 228 98 205 L 96 89 L 91 51 Q 88 20 82 4 Q 76 -6 76 -14 Q 76 -22 83 -40 Q 90 -58 102 -58 Q 106 -58 114 -47 L 143 -10 L 200 56 Q 206 61 203 65 Q 200 68 190 61 L 143 30 Q 133 23 132 24 Q 127 29 129 49 L 132 114 L 133 136 L 138 203 L 140 225 Z" fill="black"></path>
				<path d="M 138 203 L 155 202 Q 161 202 188 207 Q 216 212 216 220 Q 218 226 204 232 Q 191 238 184 238 Q 178 238 168 234 L 154 229 Q 150 227 140 225 C 111 219 108 205 138 203 Z" fill="black"></path>
				<path d="M 132 114 L 147 113 Q 152 112 173 117 L 198 123 Q 216 125 216 132 Q 219 138 205 144 Q 191 150 185 150 Q 179 150 170 147 L 133 136 C 104 127 102 116 132 114 Z" fill="black"></path>
				<path d="M 229 210 L 224 39 L 220 16 Q 218 4 216 0 L 211 -14 Q 210 -17 215 -30 Q 224 -61 238 -61 Q 244 -61 256 -45 Q 268 -30 296 -2 L 349 54 Q 358 61 356 64 Q 354 67 343 61 L 280 25 Q 273 21 270 22 Q 267 23 267 32 L 268 119 L 268 141 L 270 210 L 272 233 L 273 249 L 279 272 Q 280 277 279 280 Q 279 288 257 300 Q 236 311 224 311 Q 210 312 214 298 L 221 283 Q 229 264 229 210 Z" fill="black"></path>
				<path d="M 270 210 L 286 210 Q 307 210 328 215 Q 347 218 344 230 Q 343 232 332 239 Q 321 246 319 246 L 272 233 C 243 225 240 210 270 210 Z" fill="black"></path>
				<path d="M 268 119 L 290 119 Q 339 116 351 133 Q 351 142 337 146 Q 324 150 311 150 Q 292 150 268 141 C 240 131 238 119 268 119 Z" fill="black"></path>
				<path d="M 351 320 Q 330 320 342 298 Q 355 275 357 222 L 361 159 Q 372 78 419 21 Q 507 -85 708 -83 Q 811 -82 866 -53 Q 888 -43 896 -32 Q 905 -22 896 -2 L 887 12 Q 872 39 864 87 L 859 117 Q 857 128 851 128 Q 845 128 843 120 L 838 88 Q 829 25 814 11 Q 790 -11 723 -18 Q 576 -32 490 22 Q 391 82 398 219 Q 399 261 406 274 Q 410 282 409 285 Q 409 295 386 308 Q 364 320 351 320 Z" fill="black"></path>
				<path d="M 515 152 L 509 300 L 508 371 C 508 393 508 393 495 396 L 464 404 Q 441 407 448 389 L 458 371 Q 469 336 469 310 L 479 148 Q 479 139 482 125 Q 488 88 502 90 Q 510 88 515 104 L 516 120 L 515 152 Z" fill="black"></path>
				<path d="M 508 371 L 548 378 L 588 384 L 638 391 L 678 396 L 740 401 Q 750 400 752 398 Q 755 396 757 387 L 757 366 L 748 216 L 742 181 Q 740 167 737 166 C 728 137 693 168 704 140 L 712 120 Q 717 108 722 93 Q 727 78 732 74 Q 737 69 754 78 Q 780 98 795 188 L 813 343 Q 817 372 823 382 Q 830 392 829 395 Q 829 403 815 413 Q 801 422 796 426 Q 792 430 786 434 Q 780 438 777 438 L 770 439 Q 766 440 741 436 L 639 417 L 588 409 L 495 396 C 465 392 478 366 508 371 Z" fill="black"></path>
				<path d="M 586 282 L 542 275 L 531 268 Q 530 267 530 265 Q 520 262 531 252 Q 536 247 551 245 Q 567 242 575 243 L 590 247 L 637 255 L 687 261 Q 711 262 719 268 L 727 274 L 723 284 Q 718 291 707 295 Q 697 299 692 299 Q 688 299 637 289 L 586 282 Z" fill="red"></path>
				<path d="M 588 384 L 586 282 L 590 247 L 590 158 C 590 128 637 134 637 164 L 637 255 L 637 289 L 638 391 L 639 417 L 641 488 Q 641 496 643 520 L 651 573 L 662 604 Q 661 618 631 630 Q 625 631 609 638 Q 593 644 582 643 Q 562 644 570 624 L 577 605 Q 588 577 588 512 L 588 409 L 588 384 Z" fill="lightgray"></path>
				<path d="M 590 158 L 553 154 L 515 152 C 485 150 486 118 516 120 L 549 122 Q 561 122 591 126 L 704 140 C 734 144 767 165 737 166 Q 734 164 723 169 Q 712 174 704 174 L 668 170 L 637 164 L 590 158 Z" fill="lightgray"></path>
</g>
		<text x="40" y="140" font-size="128" fill="#999999">16</text></g>
		<g id="id3:id1:id1" transform="matrix(1.0,0,0,1.0,1024,0.0)">			<g stroke="lightgray" stroke-width="4" transform="scale(4, 4)"> <rect x="0" y="0" width="256" height="256" fill="white" stroke-width="4"/></g>
			<g transform="scale(0.92, -0.92) translate(60, -920)">					<path d="M 145 531 L 182 554 L 251 602 Q 269 614 279 619 Q 289 623 292 629 Q 297 641 257 658 Q 233 668 226 672 Q 215 677 212 652 Q 210 642 199 627 L 177 596 Q 164 580 153 568 L 129 545 C 107 524 120 515 145 531 Z" fill="black"></path>
				<path d="M 153 452 L 149 496 Q 149 502 145 531 C 144 541 144 541 129 545 L 115 549 Q 94 555 84 551 Q 74 546 88 528 Q 103 509 107 463 L 120 347 Q 127 304 143 304 Q 152 304 158 327 L 159 358 L 154 428 L 153 452 Z" fill="black"></path>
				<path d="M 154 428 L 180 432 L 207 438 Q 235 442 234 452 Q 234 462 210 467 Q 194 469 153 452 C 125 441 124 423 154 428 Z" fill="black"></path>
				<path d="M 336 346 L 342 337 Q 343 332 351 330 Q 369 327 382 354 L 387 380 L 410 469 Q 410 476 426 515 Q 427 519 434 529 Q 442 538 442 542 Q 443 546 426 560 Q 410 574 386 580 Q 373 586 357 580 L 338 571 Q 316 563 290 557 L 266 550 Q 249 546 260 534 Q 271 521 309 536 L 330 542 Q 357 552 364 545 Q 369 534 364 515 L 359 477 L 357 454 L 343 389 Q 341 377 338 374 Q 336 370 326 372 C 320 371 320 371 336 346 Z" fill="black"></path>
				<path d="M 359 477 L 347 479 Q 335 482 328 479 L 305 475 L 281 469 Q 260 467 273 454 Q 279 447 292 446 Q 306 445 357 454 C 387 459 389 472 359 477 Z" fill="black"></path>
				<path d="M 158 327 L 234 335 Q 274 341 336 346 C 366 348 354 361 326 372 L 313 377 L 299 380 Q 293 380 266 373 Q 240 366 218 366 L 159 358 C 129 354 128 324 158 327 Z" fill="black"></path>
				<path d="M 140 225 L 147 260 Q 147 267 126 276 Q 105 284 95 284 Q 85 284 83 282 Q 82 279 85 270 L 92 252 Q 98 228 98 205 L 96 89 L 91 51 Q 88 20 82 4 Q 76 -6 76 -14 Q 76 -22 83 -40 Q 90 -58 102 -58 Q 106 -58 114 -47 L 143 -10 L 200 56 Q 206 61 203 65 Q 200 68 190 61 L 143 30 Q 133 23 132 24 Q 127 29 129 49 L 132 114 L 133 136 L 138 203 L 140 225 Z" fill="black"></path>
				<path d="M 138 203 L 155 202 Q 161 202 188 207 Q 216 212 216 220 Q 218 226 204 232 Q 191 238 184 238 Q 178 238 168 234 L 154 229 Q 150 227 140 225 C 111 219 108 205 138 203 Z" fill="black"></path>
				<path d="M 132 114 L 147 113 Q 152 112 173 117 L 198 123 Q 216 125 216 132 Q 219 138 205 144 Q 191 150 185 150 Q 179 150 170 147 L 133 136 C 104 127 102 116 132 114 Z" fill="black"></path>
				<path d="M 229 210 L 224 39 L 220 16 Q 218 4 216 0 L 211 -14 Q 210 -17 215 -30 Q 224 -61 238 -61 Q 244 -61 256 -45 Q 268 -30 296 -2 L 349 54 Q 358 61 356 64 Q 354 67 343 61 L 280 25 Q 273 21 270 22 Q 267 23 267 32 L 268 119 L 268 141 L 270 210 L 272 233 L 273 249 L 279 272 Q 280 277 279 280 Q 279 288 257 300 Q 236 311 224 311 Q 210 312 214 298 L 221 283 Q 229 264 229 210 Z" fill="black"></path>
				<path d="M 270 210 L 286 210 Q 307 210 328 215 Q 347 218 344 230 Q 343 232 332 239 Q 321 246 319 246 L 272 233 C 243 225 240 210 270 210 Z" fill="black"></path>
				<path d="M 268 119 L 290 119 Q 339 116 351 133 Q 351 142 337 146 Q 324 150 311 150 Q 292 150 268 141 C 240 131 238 119 268 119 Z" fill="black"></path>
				<path d="M 351 320 Q 330 320 342 298 Q 355 275 357 222 L 361 159 Q 372 78 419 21 Q 507 -85 708 -83 Q 811 -82 866 -53 Q 888 -43 896 -32 Q 905 -22 896 -2 L 887 12 Q 872 39 864 87 L 859 117 Q 857 128 851 128 Q 845 128 843 120 L 838 88 Q 829 25 814 11 Q 790 -11 723 -18 Q 576 -32 490 22 Q 391 82 398 219 Q 399 261 406 274 Q 410 282 409 285 Q 409 295 386 308 Q 364 320 351 320 Z" fill="black"></path>
				<path d="M 515 152 L 509 300 L 508 371 C 508 393 508 393 495 396 L 464 404 Q 441 407 448 389 L 458 371 Q 469 336 469 310 L 479 148 Q 479 139 482 125 Q 488 88 502 90 Q 510 88 515 104 L 516 120 L 515 152 Z" fill="black"></path>
				<path d="M 508 371 L 548 378 L 588 384 L 638 391 L 678 396 L 740 401 Q 750 400 752 398 Q 755 396 757 387 L 757 366 L 748 216 L 742 181 Q 740 167 737 166 C 728 137 693 168 704 140 L 712 120 Q 717 108 722 93 Q 727 78 732 74 Q 737 69 754 78 Q 780 98 795 188 L 813 343 Q 817 372 823 382 Q 830 392 829 395 Q 829 403 815 413 Q 801 422 796 426 Q 792 430 786 434 Q 780 438 777 438 L 770 439 Q 766 440 741 436 L 639 417 L 588 409 L 495 396 C 465 392 478 366 508 371 Z" fill="black"></path>
				<path d="M 586 282 L 542 275 L 531 268 Q 530 267 530 265 Q 520 262 531 252 Q 536 247 551 245 Q 567 242 575 243 L 590 247 L 637 255 L 687 261 Q 711 262 719 268 L 727 274 L 723 284 Q 718 291 707 295 Q 697 299 692 299 Q 688 299 637 289 L 586 282 Z" fill="black"></path>
				<path d="M 588 384 L 586 282 L 590 247 L 590 158 C 590 128 637 134 637 164 L 637 255 L 637 289 L 638 391 L 639 417 L 641 488 Q 641 496 643 520 L 651 573 L 662 604 Q 661 618 631 630 Q 625 631 609 638 Q 593 644 582 643 Q 562 644 570 624 L 577 605 Q 588 577 588 512 L 588 409 L 588 384 Z" fill="red"></path>
				<path d="M 590 158 L 553 154 L 515 152 C 485 150 486 118 516 120 L 549 122 Q 561 122 591 126 L 704 140 C 734 144 767 165 737 166 Q 734 164 723 169 Q 712 174 704 174 L 668 170 L 637 164 L 590 158 Z" fill="lightgray"></path>
</g>
		<text x="40" y="140" font-size="128" fill="#999999">17</text></g>
		<g id="id3:id2:id2" transform="matrix(1.0,0,0,1.0,2048,0.0)">			<g stroke="lightgray" stroke-width="4" transform="scale(4, 4)"> <rect x="0" y="0" width="256" height="256" fill="white" stroke-width="4"/></g>
			<g transform="scale(0.92, -0.92) translate(60, -920)">					<path d="M 145 531 L 182 554 L 251 602 Q 269 614 279 619 Q 289 623 292 629 Q 297 641 257 658 Q 233 668 226 672 Q 215 677 212 652 Q 210 642 199 627 L 177 596 Q 164 580 153 568 L 129 545 C 107 524 120 515 145 531 Z" fill="black"></path>
				<path d="M 153 452 L 149 496 Q 149 502 145 531 C 144 541 144 541 129 545 L 115 549 Q 94 555 84 551 Q 74 546 88 528 Q 103 509 107 463 L 120 347 Q 127 304 143 304 Q 152 304 158 327 L 159 358 L 154 428 L 153 452 Z" fill="black"></path>
				<path d="M 154 428 L 180 432 L 207 438 Q 235 442 234 452 Q 234 462 210 467 Q 194 469 153 452 C 125 441 124 423 154 428 Z" fill="black"></path>
				<path d="M 336 346 L 342 337 Q 343 332 351 330 Q 369 327 382 354 L 387 380 L 410 469 Q 410 476 426 515 Q 427 519 434 529 Q 442 538 442 542 Q 443 546 426 560 Q 410 574 386 580 Q 373 586 357 580 L 338 571 Q 316 563 290 557 L 266 550 Q 249 546 260 534 Q 271 521 309 536 L 330 542 Q 357 552 364 545 Q 369 534 364 515 L 359 477 L 357 454 L 343 389 Q 341 377 338 374 Q 336 370 326 372 C 320 371 320 371 336 346 Z" fill="black"></path>
				<path d="M 359 477 L 347 479 Q 335 482 328 479 L 305 475 L 281 469 Q 260 467 273 454 Q 279 447 292 446 Q 306 445 357 454 C 387 459 389 472 359 477 Z" fill="black"></path>
				<path d="M 158 327 L 234 335 Q 274 341 336 346 C 366 348 354 361 326 372 L 313 377 L 299 380 Q 293 380 266 373 Q 240 366 218 366 L 159 358 C 129 354 128 324 158 327 Z" fill="black"></path>
				<path d="M 140 225 L 147 260 Q 147 267 126 276 Q 105 284 95 284 Q 85 284 83 282 Q 82 279 85 270 L 92 252 Q 98 228 98 205 L 96 89 L 91 51 Q 88 20 82 4 Q 76 -6 76 -14 Q 76 -22 83 -40 Q 90 -58 102 -58 Q 106 -58 114 -47 L 143 -10 L 200 56 Q 206 61 203 65 Q 200 68 190 61 L 143 30 Q 133 23 132 24 Q 127 29 129 49 L 132 114 L 133 136 L 138 203 L 140 225 Z" fill="black"></path>
				<path d="M 138 203 L 155 202 Q 161 202 188 207 Q 216 212 216 220 Q 218 226 204 232 Q 191 238 184 238 Q 178 238 168 234 L 154 229 Q 150 227 140 225 C 111 219 108 205 138 203 Z" fill="black"></path>
				<path d="M 132 114 L 147 113 Q 152 112 173 117 L 198 123 Q 216 125 216 132 Q 219 138 205 144 Q 191 150 185 150 Q 179 150 170 147 L 133 136 C 104 127 102 116 132 114 Z" fill="black"></path>
				<path d="M 229 210 L 224 39 L 220 16 Q 218 4 216 0 L 211 -14 Q 210 -17 215 -30 Q 224 -61 238 -61 Q 244 -61 256 -45 Q 268 -30 296 -2 L 349 54 Q 358 61 356 64 Q 354 67 343 61 L 280 25 Q 273 21 270 22 Q 267 23 267 32 L 268 119 L 268 141 L 270 210 L 272 233 L 273 249 L 279 272 Q 280 277 279 280 Q 279 288 257 300 Q 236 311 224 311 Q 210 312 214 298 L 221 283 Q 229 264 229 210 Z" fill="black"></path>
				<path d="M 270 210 L 286 210 Q 307 210 328 215 Q 347 218 344 230 Q 343 232 332 239 Q 321 246 319 246 L 272 233 C 243 225 240 210 270 210 Z" fill="black"></path>
				<path d="M 268 119 L 290 119 Q 339 116 351 133 Q 351 142 337 146 Q 324 150 311 150 Q 292 150 268 141 C 240 131 238 119 268 119 Z" fill="black"></path>
				<path d="M 351 320 Q 330 320 342 298 Q 355 275 357 222 L 361 159 Q 372 78 419 21 Q 507 -85 708 -83 Q 811 -82 866 -53 Q 888 -43 896 -32 Q 905 -22 896 -2 L 887 12 Q 872 39 864 87 L 859 117 Q 857 128 851 128 Q 845 128 843 120 L 838 88 Q 829 25 814 11 Q 790 -11 723 -18 Q 576 -32 490 22 Q 391 82 398 219 Q 399 261 406 274 Q 410 282 409 285 Q 409 295 386 308 Q 364 320 351 320 Z" fill="black"></path>
				<path d="M 515 152 L 509 300 L 508 371 C 508 393 508 393 495 396 L 464 404 Q 441 407 448 389 L 458 371 Q 469 336 469 310 L 479 148 Q 479 139 482 125 Q 488 88 502 90 Q 510 88 515 104 L 516 120 L 515 152 Z" fill="black"></path>
				<path d="M 508 371 L 548 378 L 588 384 L 638 391 L 678 396 L 740 401 Q 750 400 752 398 Q 755 396 757 387 L 757 366 L 748 216 L 742 181 Q 740 167 737 166 C 728 137 693 168 704 140 L 712 120 Q 717 108 722 93 Q 727 78 732 74 Q 737 69 754 78 Q 780 98 795 188 L 813 343 Q 817 372 823 382 Q 830 392 829 395 Q 829 403 815 413 Q 801 422 796 426 Q 792 430 786 434 Q 780 438 777 438 L 770 439 Q 766 440 741 436 L 639 417 L 588 409 L 495 396 C 465 392 478 366 508 371 Z" fill="black"></path>
				<path d="M 586 282 L 542 275 L 531 268 Q 530 267 530 265 Q 520 262 531 252 Q 536 247 551 245 Q 567 242 575 243 L 590 247 L 637 255 L 687 261 Q 711 262 719 268 L 727 274 L 723 284 Q 718 291 707 295 Q 697 299 692 299 Q 688 299 637 289 L 586 282 Z" fill="black"></path>
				<path d="M 588 384 L 586 282 L 590 247 L 590 158 C 590 128 637 134 637 164 L 637 255 L 637 289 L 638 391 L 639 417 L 641 488 Q 641 496 643 520 L 651 573 L 662 604 Q 661 618 631 630 Q 625 631 609 638 Q 593 644 582 643 Q 562 644 570 624 L 577 605 Q 588 577 588 512 L 588 409 L 588 384 Z" fill="black"></path>
				<path d="M 590 158 L 553 154 L 515 152 C 485 150 486 118 516 120 L 549 122 Q 561 122 591 126 L 704 140 C 734 144 767 165 737 166 Q 734 164 723 169 Q 712 174 704 174 L 668 170 L 637 164 L 590 158 Z" fill="red"></path>
</g>
		<text x="40" y="140" font-size="128" fill="#999999">18</text></g>
		<g id="id3:id3:id3" transform="matrix(1.0,0,0,1.0,3072,0.0)">			<g stroke="white" stroke-width="4" transform="scale(4, 4)"> <rect x="1" y="1" width="255" height="255" fill="white" stroke-width="0"/></g>
</g>
		<g id="id3:id4:id4" transform="matrix(1.0,0,0,1.0,4096,0.0)">			<g stroke="white" stroke-width="4" transform="scale(4, 4)"> <rect x="1" y="1" width="255" height="255" fill="white" stroke-width="0"/></g>
</g>
</g>
</svg>
