<svg version="1.1" viewBox="0 0 1024 1024" xmlns="http://www.w3.org/2000/svg">
  <g stroke="lightgray" stroke-dasharray="1,1" stroke-width="1" transform="scale(4, 4)">
    <line x1="0" y1="0" x2="256" y2="256"></line>
    <line x1="256" y1="0" x2="0" y2="256"></line>
    <line x1="128" y1="0" x2="128" y2="256"></line>
    <line x1="0" y1="128" x2="256" y2="128"></line>
  </g>
  <g transform="scale(0.92, -0.92) translate(60, -900)">
    <style type="text/css">
      
        @keyframes keyframes0 {
          from {
            stroke: blue;
            stroke-dashoffset: 620;
            stroke-width: 128;
          }
          67% {
            animation-timing-function: step-end;
            stroke: blue;
            stroke-dashoffset: 0;
            stroke-width: 128;
          }
          to {
            stroke: black;
            stroke-width: 1024;
          }
        }
        #make-me-a-hanzi-animation-0 {
          animation: keyframes0 0.7545572916666666s both;
          animation-delay: 0s;
          animation-timing-function: linear;
        }
      
        @keyframes keyframes1 {
          from {
            stroke: blue;
            stroke-dashoffset: 1064;
            stroke-width: 128;
          }
          78% {
            animation-timing-function: step-end;
            stroke: blue;
            stroke-dashoffset: 0;
            stroke-width: 128;
          }
          to {
            stroke: black;
            stroke-width: 1024;
          }
        }
        #make-me-a-hanzi-animation-1 {
          animation: keyframes1 1.1158854166666667s both;
          animation-delay: 0.7545572916666666s;
          animation-timing-function: linear;
        }
      
        @keyframes keyframes2 {
          from {
            stroke: blue;
            stroke-dashoffset: 442;
            stroke-width: 128;
          }
          59% {
            animation-timing-function: step-end;
            stroke: blue;
            stroke-dashoffset: 0;
            stroke-width: 128;
          }
          to {
            stroke: black;
            stroke-width: 1024;
          }
        }
        #make-me-a-hanzi-animation-2 {
          animation: keyframes2 0.6097005208333334s both;
          animation-delay: 1.8704427083333335s;
          animation-timing-function: linear;
        }
      
        @keyframes keyframes3 {
          from {
            stroke: blue;
            stroke-dashoffset: 1067;
            stroke-width: 128;
          }
          78% {
            animation-timing-function: step-end;
            stroke: blue;
            stroke-dashoffset: 0;
            stroke-width: 128;
          }
          to {
            stroke: black;
            stroke-width: 1024;
          }
        }
        #make-me-a-hanzi-animation-3 {
          animation: keyframes3 1.1183268229166667s both;
          animation-delay: 2.480143229166667s;
          animation-timing-function: linear;
        }
      
        @keyframes keyframes4 {
          from {
            stroke: blue;
            stroke-dashoffset: 654;
            stroke-width: 128;
          }
          68% {
            animation-timing-function: step-end;
            stroke: blue;
            stroke-dashoffset: 0;
            stroke-width: 128;
          }
          to {
            stroke: black;
            stroke-width: 1024;
          }
        }
        #make-me-a-hanzi-animation-4 {
          animation: keyframes4 0.7822265625s both;
          animation-delay: 3.598470052083334s;
          animation-timing-function: linear;
        }
      
    </style>
    
      <path d="M 332 531 L 348 292 C 350 262 400 248 400 278 L 397 587 C 397 617 397 622 396 622 L 378 630 Q 364 636 344 641 Q 325 645 321 642 Q 305 636 316 616 Q 327 587 332 531 Z" fill="lightgray"></path>
    
      <path d="M 839 312 Q 797 333 785 331 L 764 324 Q 745 318 706 314 L 615 304 L 640 534 Q 639 558 654 583 L 668 605 Q 679 621 663 633 Q 648 649 603 668 Q 591 672 560 660 Q 530 648 484 637 L 396 622 C 366 617 367 582 397 587 L 548 614 Q 565 616 569 612 Q 576 605 576 580 L 563 344 L 557 314 L 548 298 Q 547 285 554 266 Q 562 246 571 246 L 596 254 L 620 260 L 720 273 Q 737 276 753 272 C 783 270 866 299 839 312 Z" fill="lightgray"></path>
    
      <path d="M 348 292 L 336 290 Q 332 290 320 287 L 238 267 Q 226 263 212 261 C 182 256 197 221 227 226 L 362 250 Q 379 254 391 254 Q 403 254 407 258 Q 412 260 411 266 Q 410 272 400 278 C 375 295 374 296 348 292 Z" fill="lightgray"></path>
    
      <path d="M 212 261 L 190 267 L 164 272 Q 142 279 138 265 Q 135 261 149 242 Q 163 227 170 203 Q 181 181 182 160 L 203 -26 Q 207 -71 224 -80 Q 233 -90 243 -80 Q 250 -75 254 -48 L 382 -42 L 594 -27 L 714 -21 C 744 -20 761 2 733 14 L 710 24 L 685 28 Q 662 28 619 23 Q 577 18 563 17 L 434 6 L 252 -4 L 250 37 L 240 138 Q 234 199 232 205 Q 231 211 227 226 C 220 255 219 259 212 261 Z" fill="lightgray"></path>
    
      <path d="M 714 -21 L 714 -40 Q 713 -52 721 -67 Q 729 -78 737 -80 Q 745 -82 759 -68 Q 773 -55 787 -23 Q 802 8 810 36 L 852 206 Q 858 231 876 253 Q 884 267 883 272 Q 882 277 863 293 Q 844 309 839 312 C 815 330 725 282 753 272 Q 770 268 774 260 Q 779 252 779 240 Q 779 228 775 198 L 766 140 Q 754 65 733 14 C 722 -14 714 -7 714 -21 Z" fill="lightgray"></path>
    
    
      <clipPath id="make-me-a-hanzi-clip-0">
        <path d="M 332 531 L 348 292 C 350 262 400 248 400 278 L 397 587 C 397 617 397 622 396 622 L 378 630 Q 364 636 344 641 Q 325 645 321 642 Q 305 636 316 616 Q 327 587 332 531 Z"></path>
      </clipPath>
      <path clip-path="url(#make-me-a-hanzi-clip-0)" d="M 326 627 L 360 598 L 373 316 L 395 286" fill="none" id="make-me-a-hanzi-animation-0" stroke-dasharray="492 984" stroke-linecap="round"></path>
    
      <clipPath id="make-me-a-hanzi-clip-1">
        <path d="M 839 312 Q 797 333 785 331 L 764 324 Q 745 318 706 314 L 615 304 L 640 534 Q 639 558 654 583 L 668 605 Q 679 621 663 633 Q 648 649 603 668 Q 591 672 560 660 Q 530 648 484 637 L 396 622 C 366 617 367 582 397 587 L 548 614 Q 565 616 569 612 Q 576 605 576 580 L 563 344 L 557 314 L 548 298 Q 547 285 554 266 Q 562 246 571 246 L 596 254 L 620 260 L 720 273 Q 737 276 753 272 C 783 270 866 299 839 312 Z"></path>
      </clipPath>
      <path clip-path="url(#make-me-a-hanzi-clip-1)" d="M 404 593 L 421 609 L 561 637 L 592 636 L 618 610 L 608 555 L 584 287 L 608 281 L 682 289 L 751 297 L 788 311 L 829 315" fill="none" id="make-me-a-hanzi-animation-1" stroke-dasharray="936 1872" stroke-linecap="round"></path>
    
      <clipPath id="make-me-a-hanzi-clip-2">
        <path d="M 348 292 L 336 290 Q 332 290 320 287 L 238 267 Q 226 263 212 261 C 182 256 197 221 227 226 L 362 250 Q 379 254 391 254 Q 403 254 407 258 Q 412 260 411 266 Q 410 272 400 278 C 375 295 374 296 348 292 Z"></path>
      </clipPath>
      <path clip-path="url(#make-me-a-hanzi-clip-2)" d="M 220 257 L 246 248 L 346 270 L 402 265" fill="none" id="make-me-a-hanzi-animation-2" stroke-dasharray="314 628" stroke-linecap="round"></path>
    
      <clipPath id="make-me-a-hanzi-clip-3">
        <path d="M 212 261 L 190 267 L 164 272 Q 142 279 138 265 Q 135 261 149 242 Q 163 227 170 203 Q 181 181 182 160 L 203 -26 Q 207 -71 224 -80 Q 233 -90 243 -80 Q 250 -75 254 -48 L 382 -42 L 594 -27 L 714 -21 C 744 -20 761 2 733 14 L 710 24 L 685 28 Q 662 28 619 23 Q 577 18 563 17 L 434 6 L 252 -4 L 250 37 L 240 138 Q 234 199 232 205 Q 231 211 227 226 C 220 255 219 259 212 261 Z"></path>
      </clipPath>
      <path clip-path="url(#make-me-a-hanzi-clip-3)" d="M 149 263 L 190 236 L 204 197 L 233 -27 L 699 2 L 725 11" fill="none" id="make-me-a-hanzi-animation-3" stroke-dasharray="939 1878" stroke-linecap="round"></path>
    
      <clipPath id="make-me-a-hanzi-clip-4">
        <path d="M 714 -21 L 714 -40 Q 713 -52 721 -67 Q 729 -78 737 -80 Q 745 -82 759 -68 Q 773 -55 787 -23 Q 802 8 810 36 L 852 206 Q 858 231 876 253 Q 884 267 883 272 Q 882 277 863 293 Q 844 309 839 312 C 815 330 725 282 753 272 Q 770 268 774 260 Q 779 252 779 240 Q 779 228 775 198 L 766 140 Q 754 65 733 14 C 722 -14 714 -7 714 -21 Z"></path>
      </clipPath>
      <path clip-path="url(#make-me-a-hanzi-clip-4)" d="M 761 273 L 800 266 L 823 255 L 785 67 L 768 12 L 747 -29 L 739 -66" fill="none" id="make-me-a-hanzi-animation-4" stroke-dasharray="526 1052" stroke-linecap="round"></path>
    
  </g>
</svg>