<svg version="1.1" viewBox="0 0 1024 1024" xmlns="http://www.w3.org/2000/svg">
  <g stroke="lightgray" stroke-dasharray="1,1" stroke-width="1" transform="scale(4, 4)">
    <line x1="0" y1="0" x2="256" y2="256"></line>
    <line x1="256" y1="0" x2="0" y2="256"></line>
    <line x1="128" y1="0" x2="128" y2="256"></line>
    <line x1="0" y1="128" x2="256" y2="128"></line>
  </g>
<g transform="scale(0.92, -0.92) translate(60, -900)">
   <style type="text/css">
    @keyframes keyframes0 {
      from {
       stroke: blue;
       stroke-dashoffset: 533;
       stroke-width: 128;
       }
       63% {
       animation-timing-function: step-end;
       stroke: blue;
       stroke-dashoffset: 0;
       stroke-width: 128;
       }
       to {
       stroke: black;
       stroke-width: 1024;
       }
       }
       #make-me-a-hanzi-animation-0 {
         animation: keyframes0 0.683757s both;
         animation-delay: 0.000000s;
         animation-timing-function: linear;
       }
    @keyframes keyframes1 {
      from {
       stroke: blue;
       stroke-dashoffset: 607;
       stroke-width: 128;
       }
       66% {
       animation-timing-function: step-end;
       stroke: blue;
       stroke-dashoffset: 0;
       stroke-width: 128;
       }
       to {
       stroke: black;
       stroke-width: 1024;
       }
       }
       #make-me-a-hanzi-animation-1 {
         animation: keyframes1 0.743978s both;
         animation-delay: 0.683757s;
         animation-timing-function: linear;
       }
    @keyframes keyframes2 {
      from {
       stroke: blue;
       stroke-dashoffset: 411;
       stroke-width: 128;
       }
       57% {
       animation-timing-function: step-end;
       stroke: blue;
       stroke-dashoffset: 0;
       stroke-width: 128;
       }
       to {
       stroke: black;
       stroke-width: 1024;
       }
       }
       #make-me-a-hanzi-animation-2 {
         animation: keyframes2 0.584473s both;
         animation-delay: 1.427734s;
         animation-timing-function: linear;
       }
    @keyframes keyframes3 {
      from {
       stroke: blue;
       stroke-dashoffset: 896;
       stroke-width: 128;
       }
       74% {
       animation-timing-function: step-end;
       stroke: blue;
       stroke-dashoffset: 0;
       stroke-width: 128;
       }
       to {
       stroke: black;
       stroke-width: 1024;
       }
       }
       #make-me-a-hanzi-animation-3 {
         animation: keyframes3 0.979167s both;
         animation-delay: 2.012207s;
         animation-timing-function: linear;
       }
    @keyframes keyframes4 {
      from {
       stroke: blue;
       stroke-dashoffset: 838;
       stroke-width: 128;
       }
       73% {
       animation-timing-function: step-end;
       stroke: blue;
       stroke-dashoffset: 0;
       stroke-width: 128;
       }
       to {
       stroke: black;
       stroke-width: 1024;
       }
       }
       #make-me-a-hanzi-animation-4 {
         animation: keyframes4 0.931966s both;
         animation-delay: 2.991374s;
         animation-timing-function: linear;
       }
    @keyframes keyframes5 {
      from {
       stroke: blue;
       stroke-dashoffset: 449;
       stroke-width: 128;
       }
       59% {
       animation-timing-function: step-end;
       stroke: blue;
       stroke-dashoffset: 0;
       stroke-width: 128;
       }
       to {
       stroke: black;
       stroke-width: 1024;
       }
       }
       #make-me-a-hanzi-animation-5 {
         animation: keyframes5 0.615397s both;
         animation-delay: 3.923340s;
         animation-timing-function: linear;
       }
    @keyframes keyframes6 {
      from {
       stroke: blue;
       stroke-dashoffset: 928;
       stroke-width: 128;
       }
       75% {
       animation-timing-function: step-end;
       stroke: blue;
       stroke-dashoffset: 0;
       stroke-width: 128;
       }
       to {
       stroke: black;
       stroke-width: 1024;
       }
       }
       #make-me-a-hanzi-animation-6 {
         animation: keyframes6 1.005208s both;
         animation-delay: 4.538737s;
         animation-timing-function: linear;
       }
</style>
<path d="M 105.5 582.0 L 79.5 592.0 Q 71.5 596.0 56.5 596.0 Q 41.5 596.0 39.5 593.0 L 37.5 583.0 Q 39.5 580.0 49.5 570.0 Q 59.5 556.0 63.5 538.0 Q 75.5 488.0 79.5 383.0 Q 81.5 321.0 101.5 319.0 Q 101.5 318.0 109.5 320.0 Q 119.5 323.0 121.5 354.0 L 121.5 386.0 L 109.5 556.0 C 107.5 581.0 107.5 581.0 105.5 582.0 Z" fill="lightgray"></path> 
<path d="M 259.5 404.0 L 289.5 524.0 L 297.5 547.0 Q 305.5 558.0 313.5 572.0 Q 321.5 586.0 320.5 591.0 Q 319.5 596.0 313.5 606.0 Q 311.5 611.0 293.5 618.0 Q 283.5 624.0 269.5 629.0 Q 255.5 634.0 251.5 634.0 Q 247.5 634.0 223.5 624.0 Q 201.5 613.0 176.5 604.0 Q 152.5 594.0 146.5 594.0 L 105.5 582.0 C 76.5 574.0 80.5 549.0 109.5 556.0 L 188.5 576.0 Q 213.5 583.0 219.5 584.0 Q 231.5 584.0 231.5 566.0 L 230.5 543.0 L 213.5 411.0 C 209.5 381.0 252.5 375.0 259.5 404.0 Z" fill="lightgray"></path> 
<path d="M 275.5 375.0 L 277.5 380.0 L 275.5 391.0 Q 270.5 400.0 266.5 402.0 L 259.5 404.0 L 213.5 411.0 L 121.5 386.0 C 92.5 378.0 91.5 352.0 121.5 354.0 L 149.5 356.0 L 223.5 369.0 Q 257.5 374.0 273.5 374.0 L 275.5 375.0 Z" fill="lightgray"></path> 
<path d="M 415.5 548.0 Q 399.5 520.0 369.5 473.0 Q 343.5 431.0 315.5 394.0 Q 289.5 354.0 263.5 328.0 L 221.5 285.0 Q 211.5 276.0 215.5 272.0 Q 220.5 267.0 226.5 271.0 L 247.5 284.0 Q 259.5 288.0 279.5 306.0 L 317.5 338.0 Q 339.5 355.0 361.5 382.0 Q 411.5 433.0 457.5 511.0 Q 504.5 588.0 512.5 608.0 L 554.5 694.0 L 571.5 725.0 L 587.5 752.0 L 586.5 764.0 Q 586.5 773.0 565.5 790.0 L 540.5 806.0 Q 516.5 822.0 510.5 817.0 Q 505.5 812.0 503.5 806.0 L 499.5 763.0 Q 497.5 694.0 415.5 548.0 Z" fill="lightgray"></path> 
<path d="M 554.5 694.0 L 569.5 668.0 L 589.5 628.0 Q 611.5 583.0 652.5 514.0 Q 693.5 445.0 712.5 423.0 L 732.5 399.0 L 749.5 376.0 Q 759.5 362.0 773.5 350.0 Q 788.5 342.0 794.5 341.0 Q 841.5 332.0 864.5 334.0 L 913.5 340.0 L 949.5 343.0 Q 958.5 343.0 964.5 345.0 L 977.5 347.0 Q 985.5 348.0 985.5 356.0 Q 986.5 363.0 976.5 367.0 L 934.5 386.0 Q 899.5 400.0 863.5 420.0 Q 812.5 450.0 794.5 462.0 Q 722.5 518.0 675.5 574.0 Q 628.5 630.0 607.5 665.0 L 585.5 700.0 L 571.5 725.0 C 556.5 751.0 539.5 720.0 554.5 694.0 Z" fill="lightgray"></path> 
<path d="M 533.5 434.0 L 436.5 413.0 Q 430.5 411.0 432.5 405.0 Q 432.5 391.0 476.5 386.0 Q 491.5 384.0 539.5 391.0 L 617.5 403.0 Q 642.5 405.0 644.5 416.0 Q 643.5 430.0 621.5 436.0 L 594.5 443.0 Q 567.5 445.0 533.5 434.0 Z" fill="lightgray"></path> 
<path d="M 451.5 212.0 L 621.5 248.0 Q 642.5 250.0 643.5 246.0 Q 644.5 242.0 644.5 229.0 Q 641.5 211.0 629.5 188.0 L 607.5 129.0 Q 597.5 102.0 577.5 66.0 L 550.5 14.0 L 518.5 -30.0 Q 514.5 -36.0 514.5 -41.0 Q 515.5 -46.0 527.5 -38.0 L 543.5 -28.0 Q 556.5 -23.0 567.5 -12.0 Q 579.5 -2.0 607.5 30.0 Q 644.5 77.0 674.5 139.0 L 707.5 204.0 L 724.5 227.0 L 735.5 238.0 Q 741.5 246.0 741.5 252.0 Q 742.5 265.0 722.5 275.0 L 678.5 300.0 Q 671.5 304.0 667.5 304.0 Q 663.5 304.0 653.5 299.0 Q 643.5 294.0 623.5 291.0 L 581.5 282.0 L 537.5 270.0 L 491.5 262.0 L 365.5 248.0 Q 356.5 247.0 354.5 244.0 Q 352.5 240.0 356.5 233.0 Q 361.5 225.0 366.5 223.0 L 379.5 216.0 Q 387.5 212.0 395.5 209.0 Q 403.5 206.0 408.5 205.0 Q 413.5 204.0 451.5 212.0 Z" fill="lightgray"></path> 
      <clipPath id="make-me-a-hanzi-clip-0">
      <path d="M 105.5 582.0 L 79.5 592.0 Q 71.5 596.0 56.5 596.0 Q 41.5 596.0 39.5 593.0 L 37.5 583.0 Q 39.5 580.0 49.5 570.0 Q 59.5 556.0 63.5 538.0 Q 75.5 488.0 79.5 383.0 Q 81.5 321.0 101.5 319.0 Q 101.5 318.0 109.5 320.0 Q 119.5 323.0 121.5 354.0 L 121.5 386.0 L 109.5 556.0 C 107.5 581.0 107.5 581.0 105.5 582.0 Z" fill="lightgray"></path>
      </clipPath>
      <path clip-path="url(#make-me-a-hanzi-clip-0)" d="M 45.5 587.0 L 61.5 581.0 L 84.5 559.0 L 103.5 332.0 " fill="none" id="make-me-a-hanzi-animation-0" stroke-dasharray="405 810" stroke-linecap="round"></path>

      <clipPath id="make-me-a-hanzi-clip-1">
      <path d="M 259.5 404.0 L 289.5 524.0 L 297.5 547.0 Q 305.5 558.0 313.5 572.0 Q 321.5 586.0 320.5 591.0 Q 319.5 596.0 313.5 606.0 Q 311.5 611.0 293.5 618.0 Q 283.5 624.0 269.5 629.0 Q 255.5 634.0 251.5 634.0 Q 247.5 634.0 223.5 624.0 Q 201.5 613.0 176.5 604.0 Q 152.5 594.0 146.5 594.0 L 105.5 582.0 C 76.5 574.0 80.5 549.0 109.5 556.0 L 188.5 576.0 Q 213.5 583.0 219.5 584.0 Q 231.5 584.0 231.5 566.0 L 230.5 543.0 L 213.5 411.0 C 209.5 381.0 252.5 375.0 259.5 404.0 Z" fill="lightgray"></path>
      </clipPath>
      <path clip-path="url(#make-me-a-hanzi-clip-1)" d="M 114.5 563.0 L 120.5 573.0 L 226.5 604.0 L 242.5 604.0 L 262.5 593.0 L 270.5 582.0 L 244.5 448.0 L 238.5 430.0 L 222.5 417.0 " fill="none" id="make-me-a-hanzi-animation-1" stroke-dasharray="479 958" stroke-linecap="round"></path>

      <clipPath id="make-me-a-hanzi-clip-2">
      <path d="M 275.5 375.0 L 277.5 380.0 L 275.5 391.0 Q 270.5 400.0 266.5 402.0 L 259.5 404.0 L 213.5 411.0 L 121.5 386.0 C 92.5 378.0 91.5 352.0 121.5 354.0 L 149.5 356.0 L 223.5 369.0 Q 257.5 374.0 273.5 374.0 L 275.5 375.0 Z" fill="lightgray"></path>
      </clipPath>
      <path clip-path="url(#make-me-a-hanzi-clip-2)" d="M 128.5 359.0 L 139.5 372.0 L 218.5 390.0 L 249.5 390.0 L 272.5 379.0 " fill="none" id="make-me-a-hanzi-animation-2" stroke-dasharray="283 566" stroke-linecap="round"></path>

      <clipPath id="make-me-a-hanzi-clip-3">
      <path d="M 415.5 548.0 Q 399.5 520.0 369.5 473.0 Q 343.5 431.0 315.5 394.0 Q 289.5 354.0 263.5 328.0 L 221.5 285.0 Q 211.5 276.0 215.5 272.0 Q 220.5 267.0 226.5 271.0 L 247.5 284.0 Q 259.5 288.0 279.5 306.0 L 317.5 338.0 Q 339.5 355.0 361.5 382.0 Q 411.5 433.0 457.5 511.0 Q 504.5 588.0 512.5 608.0 L 554.5 694.0 L 571.5 725.0 L 587.5 752.0 L 586.5 764.0 Q 586.5 773.0 565.5 790.0 L 540.5 806.0 Q 516.5 822.0 510.5 817.0 Q 505.5 812.0 503.5 806.0 L 499.5 763.0 Q 497.5 694.0 415.5 548.0 Z" fill="lightgray"></path>
      </clipPath>
      <path clip-path="url(#make-me-a-hanzi-clip-3)" d="M 515.5 806.0 L 540.5 753.0 L 503.5 657.0 L 462.5 572.0 L 389.5 455.0 L 328.5 376.0 L 265.5 310.0 L 221.5 277.0 " fill="none" id="make-me-a-hanzi-animation-3" stroke-dasharray="768 1536" stroke-linecap="round"></path>

      <clipPath id="make-me-a-hanzi-clip-4">
      <path d="M 554.5 694.0 L 569.5 668.0 L 589.5 628.0 Q 611.5 583.0 652.5 514.0 Q 693.5 445.0 712.5 423.0 L 732.5 399.0 L 749.5 376.0 Q 759.5 362.0 773.5 350.0 Q 788.5 342.0 794.5 341.0 Q 841.5 332.0 864.5 334.0 L 913.5 340.0 L 949.5 343.0 Q 958.5 343.0 964.5 345.0 L 977.5 347.0 Q 985.5 348.0 985.5 356.0 Q 986.5 363.0 976.5 367.0 L 934.5 386.0 Q 899.5 400.0 863.5 420.0 Q 812.5 450.0 794.5 462.0 Q 722.5 518.0 675.5 574.0 Q 628.5 630.0 607.5 665.0 L 585.5 700.0 L 571.5 725.0 C 556.5 751.0 539.5 720.0 554.5 694.0 Z" fill="lightgray"></path>
      </clipPath>
      <path clip-path="url(#make-me-a-hanzi-clip-4)" d="M 572.5 718.0 L 571.5 693.0 L 643.5 575.0 L 707.5 489.0 L 773.5 420.0 L 806.5 392.0 L 839.5 380.0 L 975.5 357.0 " fill="none" id="make-me-a-hanzi-animation-4" stroke-dasharray="710 1420" stroke-linecap="round"></path>

      <clipPath id="make-me-a-hanzi-clip-5">
      <path d="M 533.5 434.0 L 436.5 413.0 Q 430.5 411.0 432.5 405.0 Q 432.5 391.0 476.5 386.0 Q 491.5 384.0 539.5 391.0 L 617.5 403.0 Q 642.5 405.0 644.5 416.0 Q 643.5 430.0 621.5 436.0 L 594.5 443.0 Q 567.5 445.0 533.5 434.0 Z" fill="lightgray"></path>
      </clipPath>
      <path clip-path="url(#make-me-a-hanzi-clip-5)" d="M 442.5 405.0 L 466.5 401.0 L 587.5 421.0 L 633.5 418.0 " fill="none" id="make-me-a-hanzi-animation-5" stroke-dasharray="321 642" stroke-linecap="round"></path>

      <clipPath id="make-me-a-hanzi-clip-6">
      <path d="M 451.5 212.0 L 621.5 248.0 Q 642.5 250.0 643.5 246.0 Q 644.5 242.0 644.5 229.0 Q 641.5 211.0 629.5 188.0 L 607.5 129.0 Q 597.5 102.0 577.5 66.0 L 550.5 14.0 L 518.5 -30.0 Q 514.5 -36.0 514.5 -41.0 Q 515.5 -46.0 527.5 -38.0 L 543.5 -28.0 Q 556.5 -23.0 567.5 -12.0 Q 579.5 -2.0 607.5 30.0 Q 644.5 77.0 674.5 139.0 L 707.5 204.0 L 724.5 227.0 L 735.5 238.0 Q 741.5 246.0 741.5 252.0 Q 742.5 265.0 722.5 275.0 L 678.5 300.0 Q 671.5 304.0 667.5 304.0 Q 663.5 304.0 653.5 299.0 Q 643.5 294.0 623.5 291.0 L 581.5 282.0 L 537.5 270.0 L 491.5 262.0 L 365.5 248.0 Q 356.5 247.0 354.5 244.0 Q 352.5 240.0 356.5 233.0 Q 361.5 225.0 366.5 223.0 L 379.5 216.0 Q 387.5 212.0 395.5 209.0 Q 403.5 206.0 408.5 205.0 Q 413.5 204.0 451.5 212.0 Z" fill="lightgray"></path>
      </clipPath>
      <path clip-path="url(#make-me-a-hanzi-clip-6)" d="M 362.5 240.0 L 410.5 229.0 L 636.5 272.0 L 667.5 269.0 L 686.5 246.0 L 617.5 87.0 L 567.5 10.0 L 520.5 -37.0 " fill="none" id="make-me-a-hanzi-animation-6" stroke-dasharray="800 1600" stroke-linecap="round"></path>

</g>
</svg>
