<svg version="1.1" viewBox="0 0 1024 1024" xmlns="http://www.w3.org/2000/svg">
  <g stroke="lightgray" stroke-dasharray="1,1" stroke-width="1" transform="scale(4, 4)">
    <line x1="0" y1="0" x2="256" y2="256"></line>
    <line x1="256" y1="0" x2="0" y2="256"></line>
    <line x1="128" y1="0" x2="128" y2="256"></line>
    <line x1="0" y1="128" x2="256" y2="128"></line>
  </g>
  <g transform="scale(0.92, -0.92) translate(60, -850)">
    <style type="text/css">
      
        @keyframes keyframes0 {
          from {
            stroke: blue;
            stroke-dashoffset: 509;
            stroke-width: 128;
          }
          62% {
            animation-timing-function: step-end;
            stroke: blue;
            stroke-dashoffset: 0;
            stroke-width: 128;
          }
          to {
            stroke: black;
            stroke-width: 1024;
          }
        }
        #make-me-a-hanzi-animation-0 {
          animation: keyframes0 0.6642252604166666s both;
          animation-delay: 0s;
          animation-timing-function: linear;
        }
      
        @keyframes keyframes1 {
          from {
            stroke: blue;
            stroke-dashoffset: 594;
            stroke-width: 128;
          }
          66% {
            animation-timing-function: step-end;
            stroke: blue;
            stroke-dashoffset: 0;
            stroke-width: 128;
          }
          to {
            stroke: black;
            stroke-width: 1024;
          }
        }
        #make-me-a-hanzi-animation-1 {
          animation: keyframes1 0.7333984375s both;
          animation-delay: 0.6642252604166666s;
          animation-timing-function: linear;
        }
      
        @keyframes keyframes2 {
          from {
            stroke: blue;
            stroke-dashoffset: 390;
            stroke-width: 128;
          }
          56% {
            animation-timing-function: step-end;
            stroke: blue;
            stroke-dashoffset: 0;
            stroke-width: 128;
          }
          to {
            stroke: black;
            stroke-width: 1024;
          }
        }
        #make-me-a-hanzi-animation-2 {
          animation: keyframes2 0.5673828125s both;
          animation-delay: 1.3976236979166665s;
          animation-timing-function: linear;
        }
      
        @keyframes keyframes3 {
          from {
            stroke: blue;
            stroke-dashoffset: 510;
            stroke-width: 128;
          }
          62% {
            animation-timing-function: step-end;
            stroke: blue;
            stroke-dashoffset: 0;
            stroke-width: 128;
          }
          to {
            stroke: black;
            stroke-width: 1024;
          }
        }
        #make-me-a-hanzi-animation-3 {
          animation: keyframes3 0.6650390625s both;
          animation-delay: 1.9650065104166665s;
          animation-timing-function: linear;
        }
      
        @keyframes keyframes4 {
          from {
            stroke: blue;
            stroke-dashoffset: 407;
            stroke-width: 128;
          }
          57% {
            animation-timing-function: step-end;
            stroke: blue;
            stroke-dashoffset: 0;
            stroke-width: 128;
          }
          to {
            stroke: black;
            stroke-width: 1024;
          }
        }
        #make-me-a-hanzi-animation-4 {
          animation: keyframes4 0.5812174479166666s both;
          animation-delay: 2.6300455729166665s;
          animation-timing-function: linear;
        }
      
        @keyframes keyframes5 {
          from {
            stroke: blue;
            stroke-dashoffset: 816;
            stroke-width: 128;
          }
          73% {
            animation-timing-function: step-end;
            stroke: blue;
            stroke-dashoffset: 0;
            stroke-width: 128;
          }
          to {
            stroke: black;
            stroke-width: 1024;
          }
        }
        #make-me-a-hanzi-animation-5 {
          animation: keyframes5 0.9140625s both;
          animation-delay: 3.211263020833333s;
          animation-timing-function: linear;
        }
      
        @keyframes keyframes6 {
          from {
            stroke: blue;
            stroke-dashoffset: 824;
            stroke-width: 128;
          }
          73% {
            animation-timing-function: step-end;
            stroke: blue;
            stroke-dashoffset: 0;
            stroke-width: 128;
          }
          to {
            stroke: black;
            stroke-width: 1024;
          }
        }
        #make-me-a-hanzi-animation-6 {
          animation: keyframes6 0.9205729166666666s both;
          animation-delay: 4.125325520833333s;
          animation-timing-function: linear;
        }
      
        @keyframes keyframes7 {
          from {
            stroke: blue;
            stroke-dashoffset: 533;
            stroke-width: 128;
          }
          63% {
            animation-timing-function: step-end;
            stroke: blue;
            stroke-dashoffset: 0;
            stroke-width: 128;
          }
          to {
            stroke: black;
            stroke-width: 1024;
          }
        }
        #make-me-a-hanzi-animation-7 {
          animation: keyframes7 0.6837565104166666s both;
          animation-delay: 5.0458984375s;
          animation-timing-function: linear;
        }
      
        @keyframes keyframes8 {
          from {
            stroke: blue;
            stroke-dashoffset: 714;
            stroke-width: 128;
          }
          70% {
            animation-timing-function: step-end;
            stroke: blue;
            stroke-dashoffset: 0;
            stroke-width: 128;
          }
          to {
            stroke: black;
            stroke-width: 1024;
          }
        }
        #make-me-a-hanzi-animation-8 {
          animation: keyframes8 0.8310546875s both;
          animation-delay: 5.729654947916667s;
          animation-timing-function: linear;
        }
      
        @keyframes keyframes9 {
          from {
            stroke: blue;
            stroke-dashoffset: 593;
            stroke-width: 128;
          }
          66% {
            animation-timing-function: step-end;
            stroke: blue;
            stroke-dashoffset: 0;
            stroke-width: 128;
          }
          to {
            stroke: black;
            stroke-width: 1024;
          }
        }
        #make-me-a-hanzi-animation-9 {
          animation: keyframes9 0.7325846354166666s both;
          animation-delay: 6.560709635416667s;
          animation-timing-function: linear;
        }
      
        @keyframes keyframes10 {
          from {
            stroke: blue;
            stroke-dashoffset: 872;
            stroke-width: 128;
          }
          74% {
            animation-timing-function: step-end;
            stroke: blue;
            stroke-dashoffset: 0;
            stroke-width: 128;
          }
          to {
            stroke: black;
            stroke-width: 1024;
          }
        }
        #make-me-a-hanzi-animation-10 {
          animation: keyframes10 0.9596354166666666s both;
          animation-delay: 7.293294270833334s;
          animation-timing-function: linear;
        }
      
    </style>
    
      <path d="M 136 435 L 118 442 L 95 448 Q 77 449 72 444 Q 69 434 73 431 Q 77 427 79 424 L 85 414 Q 90 407 98 393 Q 107 378 113 291 Q 119 204 138 196 Q 143 190 152 195 Q 161 199 164 224 L 163 256 L 146 406 C 143 432 143 432 136 435 Z" fill="lightgray"></path>
    
      <path d="M 168 439 L 136 435 C 106 431 116 403 146 406 Q 160 406 175 412 Q 190 417 195 417 L 246 428 Q 252 429 256 425 Q 261 423 259 409 L 256 373 L 249 318 L 241 269 C 236 239 278 231 286 260 L 299 310 Q 311 358 317 372 L 326 393 L 341 418 L 346 429 Q 347 432 347 436 L 346 445 Q 345 451 323 464 Q 301 476 290 480 Q 279 483 274 481 L 260 472 Q 256 468 222 454 Q 188 439 168 439 Z" fill="lightgray"></path>
    
      <path d="M 164 224 L 298 235 Q 302 236 305 239 Q 307 241 301 249 L 290 256 L 286 260 C 272 274 271 274 241 269 L 163 256 C 133 251 134 222 164 224 Z" fill="lightgray"></path>
    
      <path d="M 628 502 L 631 590 L 632 619 L 635 639 L 637 666 L 645 696 Q 648 708 648 711 Q 648 719 616 731 L 591 737 Q 560 746 555 736 Q 550 734 552 729 L 558 712 Q 566 692 567 676 L 570 660 Q 572 642 572 612 L 574 494 C 575 464 627 472 628 502 Z" fill="lightgray"></path>
    
      <path d="M 631 590 L 643 588 Q 645 590 653 590 L 743 612 Q 790 622 790 628 Q 793 634 787 639 Q 781 643 760 648 Q 740 653 734 653 Q 729 653 708 642 Q 688 637 673 630 Q 650 623 632 619 C 603 612 601 595 631 590 Z" fill="lightgray"></path>
    
      <path d="M 588 466 L 784 491 L 793 487 Q 805 480 784 438 L 767 402 Q 766 400 770 396 Q 775 394 783 401 L 809 420 Q 826 432 847 443 L 896 462 L 906 468 L 908 473 Q 908 479 903 488 Q 898 496 863 516 Q 828 536 790 536 L 628 502 L 574 494 L 396 470 Q 369 465 398 444 C 405 437 430 441 460 446 L 529 457 L 555 460 L 588 466 Z" fill="lightgray"></path>
    
      <path d="M 398 444 L 404 424 L 406 396 Q 406 360 402 326 Q 389 216 368 150 Q 350 92 330 45 Q 310 -3 274 -50 L 264 -64 Q 256 -72 259 -76 Q 263 -81 270 -76 L 292 -58 Q 334 -22 368 29 Q 402 79 437 220 Q 451 271 458 336 Q 465 400 470 411 Q 475 422 474 426 Q 474 429 469 434 L 460 446 C 442 470 389 473 398 444 Z" fill="lightgray"></path>
    
      <path d="M 559 347 L 498 333 Q 493 331 484 330 Q 476 329 473 326 L 471 320 Q 471 315 481 314 Q 492 311 494 311 Q 497 310 520 312 L 545 314 Q 546 315 559 317 L 599 326 L 714 352 Q 753 360 756 371 Q 760 376 718 386 Q 704 386 663 376 L 603 360 L 559 347 Z" fill="lightgray"></path>
    
      <path d="M 558 439 L 559 428 Q 564 381 561 365 L 559 347 L 559 317 L 559 288 Q 557 258 572 242 Q 588 224 612 219 Q 665 208 763 222 Q 825 236 829 248 Q 831 250 829 252 L 824 264 Q 810 276 803 281 Q 796 286 784 286 L 770 284 L 734 271 Q 688 257 650 257 Q 612 253 604 267 Q 595 275 596 287 Q 598 299 598 312 L 599 326 L 603 360 L 616 420 L 621 430 Q 627 443 625 449 Q 623 454 612 458 L 588 466 C 560 475 552 478 555 460 Q 558 448 558 439 Z" fill="lightgray"></path>
    
      <path d="M 521 71 Q 515 49 509 31 Q 494 -22 452 -62 Q 429 -84 391 -106 Q 382 -115 384 -117 Q 386 -120 406 -116 L 420 -113 Q 431 -110 458 -97 Q 486 -84 505 -64 Q 525 -45 544 -9 Q 563 26 565 38 L 574 79 Q 578 100 583 108 L 589 119 Q 589 123 580 133 Q 571 143 550 150 Q 530 157 520 154 Q 508 154 517 129 Q 526 103 521 71 Z" fill="lightgray"></path>
    
      <path d="M 898 48 L 895 22 Q 893 -23 875 -44 Q 869 -52 848 -64 Q 828 -77 770 -75 Q 712 -73 701 -48 Q 695 -39 694 -21 L 694 0 Q 693 16 696 36 L 705 71 Q 708 82 716 99 Q 724 115 723 121 Q 722 126 714 139 Q 706 147 692 155 Q 667 167 647 161 Q 638 158 641 145 L 651 130 Q 658 118 658 100 L 652 -18 Q 650 -58 664 -76 Q 678 -100 700 -114 Q 723 -128 768 -129 Q 814 -131 850 -124 Q 886 -117 910 -103 Q 934 -90 942 -76 Q 949 -68 950 -57 Q 947 -45 943 -37 Q 932 -19 922 18 L 908 69 Q 906 75 905 75 L 901 71 Q 900 69 898 48 Z" fill="lightgray"></path>
    
    
      <clipPath id="make-me-a-hanzi-clip-0">
        <path d="M 136 435 L 118 442 L 95 448 Q 77 449 72 444 Q 69 434 73 431 Q 77 427 79 424 L 85 414 Q 90 407 98 393 Q 107 378 113 291 Q 119 204 138 196 Q 143 190 152 195 Q 161 199 164 224 L 163 256 L 146 406 C 143 432 143 432 136 435 Z"></path>
      </clipPath>
      <path clip-path="url(#make-me-a-hanzi-clip-0)" d="M 79 438 L 113 417 L 124 396 L 146 208" fill="none" id="make-me-a-hanzi-animation-0" stroke-dasharray="381 762" stroke-linecap="round"></path>
    
      <clipPath id="make-me-a-hanzi-clip-1">
        <path d="M 168 439 L 136 435 C 106 431 116 403 146 406 Q 160 406 175 412 Q 190 417 195 417 L 246 428 Q 252 429 256 425 Q 261 423 259 409 L 256 373 L 249 318 L 241 269 C 236 239 278 231 286 260 L 299 310 Q 311 358 317 372 L 326 393 L 341 418 L 346 429 Q 347 432 347 436 L 346 445 Q 345 451 323 464 Q 301 476 290 480 Q 279 483 274 481 L 260 472 Q 256 468 222 454 Q 188 439 168 439 Z"></path>
      </clipPath>
      <path clip-path="url(#make-me-a-hanzi-clip-1)" d="M 142 429 L 156 422 L 257 447 L 283 446 L 300 430 L 268 287 L 280 268" fill="none" id="make-me-a-hanzi-animation-1" stroke-dasharray="466 932" stroke-linecap="round"></path>
    
      <clipPath id="make-me-a-hanzi-clip-2">
        <path d="M 164 224 L 298 235 Q 302 236 305 239 Q 307 241 301 249 L 290 256 L 286 260 C 272 274 271 274 241 269 L 163 256 C 133 251 134 222 164 224 Z"></path>
      </clipPath>
      <path clip-path="url(#make-me-a-hanzi-clip-2)" d="M 171 230 L 189 244 L 236 250 L 299 242" fill="none" id="make-me-a-hanzi-animation-2" stroke-dasharray="262 524" stroke-linecap="round"></path>
    
      <clipPath id="make-me-a-hanzi-clip-3">
        <path d="M 628 502 L 631 590 L 632 619 L 635 639 L 637 666 L 645 696 Q 648 708 648 711 Q 648 719 616 731 L 591 737 Q 560 746 555 736 Q 550 734 552 729 L 558 712 Q 566 692 567 676 L 570 660 Q 572 642 572 612 L 574 494 C 575 464 627 472 628 502 Z"></path>
      </clipPath>
      <path clip-path="url(#make-me-a-hanzi-clip-3)" d="M 563 728 L 604 694 L 601 526 L 580 501" fill="none" id="make-me-a-hanzi-animation-3" stroke-dasharray="382 764" stroke-linecap="round"></path>
    
      <clipPath id="make-me-a-hanzi-clip-4">
        <path d="M 631 590 L 643 588 Q 645 590 653 590 L 743 612 Q 790 622 790 628 Q 793 634 787 639 Q 781 643 760 648 Q 740 653 734 653 Q 729 653 708 642 Q 688 637 673 630 Q 650 623 632 619 C 603 612 601 595 631 590 Z"></path>
      </clipPath>
      <path clip-path="url(#make-me-a-hanzi-clip-4)" d="M 638 597 L 648 606 L 736 632 L 782 632" fill="none" id="make-me-a-hanzi-animation-4" stroke-dasharray="279 558" stroke-linecap="round"></path>
    
      <clipPath id="make-me-a-hanzi-clip-5">
        <path d="M 588 466 L 784 491 L 793 487 Q 805 480 784 438 L 767 402 Q 766 400 770 396 Q 775 394 783 401 L 809 420 Q 826 432 847 443 L 896 462 L 906 468 L 908 473 Q 908 479 903 488 Q 898 496 863 516 Q 828 536 790 536 L 628 502 L 574 494 L 396 470 Q 369 465 398 444 C 405 437 430 441 460 446 L 529 457 L 555 460 L 588 466 Z"></path>
      </clipPath>
      <path clip-path="url(#make-me-a-hanzi-clip-5)" d="M 395 457 L 534 472 L 787 513 L 808 509 L 838 483 L 775 402" fill="none" id="make-me-a-hanzi-animation-5" stroke-dasharray="688 1376" stroke-linecap="round"></path>
    
      <clipPath id="make-me-a-hanzi-clip-6">
        <path d="M 398 444 L 404 424 L 406 396 Q 406 360 402 326 Q 389 216 368 150 Q 350 92 330 45 Q 310 -3 274 -50 L 264 -64 Q 256 -72 259 -76 Q 263 -81 270 -76 L 292 -58 Q 334 -22 368 29 Q 402 79 437 220 Q 451 271 458 336 Q 465 400 470 411 Q 475 422 474 426 Q 474 429 469 434 L 460 446 C 442 470 389 473 398 444 Z"></path>
      </clipPath>
      <path clip-path="url(#make-me-a-hanzi-clip-6)" d="M 406 441 L 437 414 L 425 286 L 396 157 L 348 34 L 317 -14 L 265 -71" fill="none" id="make-me-a-hanzi-animation-6" stroke-dasharray="696 1392" stroke-linecap="round"></path>
    
      <clipPath id="make-me-a-hanzi-clip-7">
        <path d="M 559 347 L 498 333 Q 493 331 484 330 Q 476 329 473 326 L 471 320 Q 471 315 481 314 Q 492 311 494 311 Q 497 310 520 312 L 545 314 Q 546 315 559 317 L 599 326 L 714 352 Q 753 360 756 371 Q 760 376 718 386 Q 704 386 663 376 L 603 360 L 559 347 Z"></path>
      </clipPath>
      <path clip-path="url(#make-me-a-hanzi-clip-7)" d="M 478 321 L 549 329 L 693 366 L 750 370" fill="none" id="make-me-a-hanzi-animation-7" stroke-dasharray="405 810" stroke-linecap="round"></path>
    
      <clipPath id="make-me-a-hanzi-clip-8">
        <path d="M 558 439 L 559 428 Q 564 381 561 365 L 559 347 L 559 317 L 559 288 Q 557 258 572 242 Q 588 224 612 219 Q 665 208 763 222 Q 825 236 829 248 Q 831 250 829 252 L 824 264 Q 810 276 803 281 Q 796 286 784 286 L 770 284 L 734 271 Q 688 257 650 257 Q 612 253 604 267 Q 595 275 596 287 Q 598 299 598 312 L 599 326 L 603 360 L 616 420 L 621 430 Q 627 443 625 449 Q 623 454 612 458 L 588 466 C 560 475 552 478 555 460 Q 558 448 558 439 Z"></path>
      </clipPath>
      <path clip-path="url(#make-me-a-hanzi-clip-8)" d="M 562 455 L 589 434 L 577 279 L 591 251 L 610 239 L 631 236 L 717 241 L 781 257 L 822 250" fill="none" id="make-me-a-hanzi-animation-8" stroke-dasharray="586 1172" stroke-linecap="round"></path>
    
      <clipPath id="make-me-a-hanzi-clip-9">
        <path d="M 521 71 Q 515 49 509 31 Q 494 -22 452 -62 Q 429 -84 391 -106 Q 382 -115 384 -117 Q 386 -120 406 -116 L 420 -113 Q 431 -110 458 -97 Q 486 -84 505 -64 Q 525 -45 544 -9 Q 563 26 565 38 L 574 79 Q 578 100 583 108 L 589 119 Q 589 123 580 133 Q 571 143 550 150 Q 530 157 520 154 Q 508 154 517 129 Q 526 103 521 71 Z"></path>
      </clipPath>
      <path clip-path="url(#make-me-a-hanzi-clip-9)" d="M 526 141 L 552 113 L 546 64 L 521 -5 L 478 -63 L 444 -89 L 388 -112" fill="none" id="make-me-a-hanzi-animation-9" stroke-dasharray="465 930" stroke-linecap="round"></path>
    
      <clipPath id="make-me-a-hanzi-clip-10">
        <path d="M 898 48 L 895 22 Q 893 -23 875 -44 Q 869 -52 848 -64 Q 828 -77 770 -75 Q 712 -73 701 -48 Q 695 -39 694 -21 L 694 0 Q 693 16 696 36 L 705 71 Q 708 82 716 99 Q 724 115 723 121 Q 722 126 714 139 Q 706 147 692 155 Q 667 167 647 161 Q 638 158 641 145 L 651 130 Q 658 118 658 100 L 652 -18 Q 650 -58 664 -76 Q 678 -100 700 -114 Q 723 -128 768 -129 Q 814 -131 850 -124 Q 886 -117 910 -103 Q 934 -90 942 -76 Q 949 -68 950 -57 Q 947 -45 943 -37 Q 932 -19 922 18 L 908 69 Q 906 75 905 75 L 901 71 Q 900 69 898 48 Z"></path>
      </clipPath>
      <path clip-path="url(#make-me-a-hanzi-clip-10)" d="M 651 150 L 666 144 L 689 118 L 675 32 L 674 -42 L 694 -77 L 725 -96 L 761 -102 L 828 -100 L 852 -95 L 899 -70 L 912 -55 L 905 71" fill="none" id="make-me-a-hanzi-animation-10" stroke-dasharray="744 1488" stroke-linecap="round"></path>
    
  </g>
</svg>