<svg version="1.1" viewBox="0 0 1024 1024" xmlns="http://www.w3.org/2000/svg">
  <g stroke="lightgray" stroke-dasharray="1,1" stroke-width="1" transform="scale(4, 4)">
    <line x1="0" y1="0" x2="256" y2="256"></line>
    <line x1="256" y1="0" x2="0" y2="256"></line>
    <line x1="128" y1="0" x2="128" y2="256"></line>
    <line x1="0" y1="128" x2="256" y2="128"></line>
  </g>
  <g transform="scale(0.92, -0.92) translate(60, -900)">
    <style type="text/css">
      
        @keyframes keyframes0 {
          from {
            stroke: blue;
            stroke-dashoffset: 520;
            stroke-width: 128;
          }
          63% {
            animation-timing-function: step-end;
            stroke: blue;
            stroke-dashoffset: 0;
            stroke-width: 128;
          }
          to {
            stroke: black;
            stroke-width: 1024;
          }
        }
        #make-me-a-hanzi-animation-0 {
          animation: keyframes0 0.6731770833333334s both;
          animation-delay: 0s;
          animation-timing-function: linear;
        }
      
        @keyframes keyframes1 {
          from {
            stroke: blue;
            stroke-dashoffset: 592;
            stroke-width: 128;
          }
          66% {
            animation-timing-function: step-end;
            stroke: blue;
            stroke-dashoffset: 0;
            stroke-width: 128;
          }
          to {
            stroke: black;
            stroke-width: 1024;
          }
        }
        #make-me-a-hanzi-animation-1 {
          animation: keyframes1 0.7317708333333334s both;
          animation-delay: 0.6731770833333334s;
          animation-timing-function: linear;
        }
      
        @keyframes keyframes2 {
          from {
            stroke: blue;
            stroke-dashoffset: 393;
            stroke-width: 128;
          }
          56% {
            animation-timing-function: step-end;
            stroke: blue;
            stroke-dashoffset: 0;
            stroke-width: 128;
          }
          to {
            stroke: black;
            stroke-width: 1024;
          }
        }
        #make-me-a-hanzi-animation-2 {
          animation: keyframes2 0.56982421875s both;
          animation-delay: 1.4049479166666667s;
          animation-timing-function: linear;
        }
      
        @keyframes keyframes3 {
          from {
            stroke: blue;
            stroke-dashoffset: 909;
            stroke-width: 128;
          }
          75% {
            animation-timing-function: step-end;
            stroke: blue;
            stroke-dashoffset: 0;
            stroke-width: 128;
          }
          to {
            stroke: black;
            stroke-width: 1024;
          }
        }
        #make-me-a-hanzi-animation-3 {
          animation: keyframes3 0.98974609375s both;
          animation-delay: 1.9747721354166667s;
          animation-timing-function: linear;
        }
      
        @keyframes keyframes4 {
          from {
            stroke: blue;
            stroke-dashoffset: 786;
            stroke-width: 128;
          }
          72% {
            animation-timing-function: step-end;
            stroke: blue;
            stroke-dashoffset: 0;
            stroke-width: 128;
          }
          to {
            stroke: black;
            stroke-width: 1024;
          }
        }
        #make-me-a-hanzi-animation-4 {
          animation: keyframes4 0.8896484375s both;
          animation-delay: 2.964518229166667s;
          animation-timing-function: linear;
        }
      
        @keyframes keyframes5 {
          from {
            stroke: blue;
            stroke-dashoffset: 419;
            stroke-width: 128;
          }
          58% {
            animation-timing-function: step-end;
            stroke: blue;
            stroke-dashoffset: 0;
            stroke-width: 128;
          }
          to {
            stroke: black;
            stroke-width: 1024;
          }
        }
        #make-me-a-hanzi-animation-5 {
          animation: keyframes5 0.5909830729166666s both;
          animation-delay: 3.854166666666667s;
          animation-timing-function: linear;
        }
      
        @keyframes keyframes6 {
          from {
            stroke: blue;
            stroke-dashoffset: 723;
            stroke-width: 128;
          }
          70% {
            animation-timing-function: step-end;
            stroke: blue;
            stroke-dashoffset: 0;
            stroke-width: 128;
          }
          to {
            stroke: black;
            stroke-width: 1024;
          }
        }
        #make-me-a-hanzi-animation-6 {
          animation: keyframes6 0.83837890625s both;
          animation-delay: 4.445149739583334s;
          animation-timing-function: linear;
        }
      
        @keyframes keyframes7 {
          from {
            stroke: blue;
            stroke-dashoffset: 439;
            stroke-width: 128;
          }
          59% {
            animation-timing-function: step-end;
            stroke: blue;
            stroke-dashoffset: 0;
            stroke-width: 128;
          }
          to {
            stroke: black;
            stroke-width: 1024;
          }
        }
        #make-me-a-hanzi-animation-7 {
          animation: keyframes7 0.6072591145833334s both;
          animation-delay: 5.283528645833334s;
          animation-timing-function: linear;
        }
      
        @keyframes keyframes8 {
          from {
            stroke: blue;
            stroke-dashoffset: 869;
            stroke-width: 128;
          }
          74% {
            animation-timing-function: step-end;
            stroke: blue;
            stroke-dashoffset: 0;
            stroke-width: 128;
          }
          to {
            stroke: black;
            stroke-width: 1024;
          }
        }
        #make-me-a-hanzi-animation-8 {
          animation: keyframes8 0.9571940104166666s both;
          animation-delay: 5.890787760416667s;
          animation-timing-function: linear;
        }
      
        @keyframes keyframes9 {
          from {
            stroke: blue;
            stroke-dashoffset: 380;
            stroke-width: 128;
          }
          55% {
            animation-timing-function: step-end;
            stroke: blue;
            stroke-dashoffset: 0;
            stroke-width: 128;
          }
          to {
            stroke: black;
            stroke-width: 1024;
          }
        }
        #make-me-a-hanzi-animation-9 {
          animation: keyframes9 0.5592447916666666s both;
          animation-delay: 6.847981770833334s;
          animation-timing-function: linear;
        }
      
        @keyframes keyframes10 {
          from {
            stroke: blue;
            stroke-dashoffset: 426;
            stroke-width: 128;
          }
          58% {
            animation-timing-function: step-end;
            stroke: blue;
            stroke-dashoffset: 0;
            stroke-width: 128;
          }
          to {
            stroke: black;
            stroke-width: 1024;
          }
        }
        #make-me-a-hanzi-animation-10 {
          animation: keyframes10 0.5966796875s both;
          animation-delay: 7.407226562500001s;
          animation-timing-function: linear;
        }
      
    </style>
    
      <path d="M 111 514 L 64 524 Q 55 524 53 523 Q 44 521 47 514 Q 49 507 57 499 Q 65 490 69 480 L 76 453 Q 77 452 80 431 L 89 325 L 94 294 Q 97 279 106 270 Q 119 240 131 276 L 133 294 L 131 328 L 121 484 C 119 512 119 512 111 514 Z" fill="lightgray"></path>
    
      <path d="M 259 331 L 292 453 Q 294 465 305 481 L 318 500 Q 334 522 294 543 L 270 553 Q 255 559 248 557 Q 230 549 227 547 Q 223 544 204 537 Q 184 529 164 526 L 111 514 C 82 507 92 478 121 484 L 214 502 Q 231 502 235 498 Q 237 495 236 478 Q 231 461 230 446 L 213 342 C 208 312 251 302 259 331 Z" fill="lightgray"></path>
    
      <path d="M 133 294 L 185 301 Q 225 304 234 307 L 259 308 L 271 310 L 273 314 Q 274 316 259 331 C 243 347 243 347 213 342 L 131 328 C 101 323 103 290 133 294 Z" fill="lightgray"></path>
    
      <path d="M 467 475 L 540 602 L 553 628 L 574 656 L 576 668 Q 570 687 553 699 L 530 718 Q 504 729 498 720 Q 496 719 496 704 Q 496 688 488 647 Q 479 605 425 512 L 366 418 Q 310 340 267 294 Q 223 247 207 235 L 175 208 Q 165 201 169 195 Q 173 189 188 196 L 217 212 Q 254 232 275 250 Q 306 271 334 301 Q 361 331 405 390 Q 449 448 467 475 Z" fill="lightgray"></path>
    
      <path d="M 540 602 L 570 576 Q 577 572 617 520 Q 649 476 658 468 L 697 416 L 773 320 Q 789 303 800 297 Q 811 290 829 289 Q 847 288 919 302 L 957 310 Q 960 310 972 316 Q 979 325 958 334 L 870 372 Q 838 386 816 402 Q 752 442 704 490 L 580 611 L 553 628 C 528 644 517 622 540 602 Z" fill="lightgray"></path>
    
      <path d="M 578 462 Q 573 462 565 460 L 540 452 Q 526 446 508 442 L 463 431 Q 454 428 452 423 Q 450 417 462 410 Q 474 403 487 403 Q 500 402 525 407 L 591 424 Q 613 430 620 431 Q 626 431 627 434 Q 628 436 628 441 Q 625 447 614 453 Q 602 459 592 460 Q 582 460 578 462 Z" fill="lightgray"></path>
    
      <path d="M 498 288 L 551 298 L 597 310 Q 618 314 621 310 Q 623 306 611 281 Q 598 255 576 223 L 551 196 L 534 175 Q 529 170 532 165 Q 534 160 540 164 L 571 180 Q 589 189 621 221 Q 653 253 656 258 L 679 288 L 695 305 L 706 314 L 709 324 Q 710 328 702 334 Q 696 342 676 354 Q 655 366 644 366 Q 633 366 620 359 Q 607 351 585 347 L 536 336 Q 474 322 405 320 Q 389 319 387 314 Q 381 301 401 290 Q 420 279 435 277 Q 449 274 471 280 L 483 283 L 498 288 Z" fill="lightgray"></path>
    
      <path d="M 295 127 L 284 95 Q 270 74 227 6 Q 224 -3 223 -12 Q 218 -47 239 -66 Q 247 -73 257 -73 Q 264 -77 279 -60 Q 306 -33 316 2 Q 331 33 327 76 Q 322 118 317 127 Q 304 143 295 127 Z" fill="lightgray"></path>
    
      <path d="M 667 70 L 692 0 Q 698 -21 695 -26 Q 687 -45 639 -52 Q 591 -59 532 -42 Q 503 -34 482 -17 Q 463 1 447 25 Q 429 51 425 73 L 418 104 Q 414 119 396 132 Q 379 140 376 126 Q 375 119 379 114 L 397 55 Q 407 19 419 -5 Q 431 -30 458 -54 Q 516 -105 603 -114 Q 651 -119 679 -115 Q 753 -106 786 -85 Q 819 -64 816 -45 Q 815 -39 800 -26 L 770 -4 Q 753 4 742 14 Q 731 23 711 43 L 681 76 Q 672 88 668 83 Q 664 78 667 70 Z" fill="lightgray"></path>
    
      <path d="M 584 37 Q 590 37 596 40 Q 615 51 614 75 Q 613 98 607 107 Q 601 116 584 126 Q 566 135 555 138 L 530 148 L 503 151 Q 500 152 494 150 Q 486 152 493 137 L 543 66 Q 569 33 584 37 Z" fill="lightgray"></path>
    
      <path d="M 699 182 L 801 90 Q 823 69 835 72 Q 861 83 857 117 Q 853 150 811 168 Q 746 194 738 194 L 704 201 Q 696 203 693 196 Q 688 190 699 182 Z" fill="lightgray"></path>
    
    
      <clipPath id="make-me-a-hanzi-clip-0">
        <path d="M 111 514 L 64 524 Q 55 524 53 523 Q 44 521 47 514 Q 49 507 57 499 Q 65 490 69 480 L 76 453 Q 77 452 80 431 L 89 325 L 94 294 Q 97 279 106 270 Q 119 240 131 276 L 133 294 L 131 328 L 121 484 C 119 512 119 512 111 514 Z"></path>
      </clipPath>
      <path clip-path="url(#make-me-a-hanzi-clip-0)" d="M 57 514 L 88 495 L 97 475 L 119 270" fill="none" id="make-me-a-hanzi-animation-0" stroke-dasharray="392 784" stroke-linecap="round"></path>
    
      <clipPath id="make-me-a-hanzi-clip-1">
        <path d="M 259 331 L 292 453 Q 294 465 305 481 L 318 500 Q 334 522 294 543 L 270 553 Q 255 559 248 557 Q 230 549 227 547 Q 223 544 204 537 Q 184 529 164 526 L 111 514 C 82 507 92 478 121 484 L 214 502 Q 231 502 235 498 Q 237 495 236 478 Q 231 461 230 446 L 213 342 C 208 312 251 302 259 331 Z"></path>
      </clipPath>
      <path clip-path="url(#make-me-a-hanzi-clip-1)" d="M 119 508 L 141 503 L 254 524 L 274 508 L 242 360 L 253 341" fill="none" id="make-me-a-hanzi-animation-1" stroke-dasharray="464 928" stroke-linecap="round"></path>
    
      <clipPath id="make-me-a-hanzi-clip-2">
        <path d="M 133 294 L 185 301 Q 225 304 234 307 L 259 308 L 271 310 L 273 314 Q 274 316 259 331 C 243 347 243 347 213 342 L 131 328 C 101 323 103 290 133 294 Z"></path>
      </clipPath>
      <path clip-path="url(#make-me-a-hanzi-clip-2)" d="M 139 300 L 154 315 L 217 323 L 258 320 L 267 314" fill="none" id="make-me-a-hanzi-animation-2" stroke-dasharray="265 530" stroke-linecap="round"></path>
    
      <clipPath id="make-me-a-hanzi-clip-3">
        <path d="M 467 475 L 540 602 L 553 628 L 574 656 L 576 668 Q 570 687 553 699 L 530 718 Q 504 729 498 720 Q 496 719 496 704 Q 496 688 488 647 Q 479 605 425 512 L 366 418 Q 310 340 267 294 Q 223 247 207 235 L 175 208 Q 165 201 169 195 Q 173 189 188 196 L 217 212 Q 254 232 275 250 Q 306 271 334 301 Q 361 331 405 390 Q 449 448 467 475 Z"></path>
      </clipPath>
      <path clip-path="url(#make-me-a-hanzi-clip-3)" d="M 505 715 L 521 695 L 531 665 L 510 611 L 442 486 L 313 310 L 231 235 L 175 200" fill="none" id="make-me-a-hanzi-animation-3" stroke-dasharray="781 1562" stroke-linecap="round"></path>
    
      <clipPath id="make-me-a-hanzi-clip-4">
        <path d="M 540 602 L 570 576 Q 577 572 617 520 Q 649 476 658 468 L 697 416 L 773 320 Q 789 303 800 297 Q 811 290 829 289 Q 847 288 919 302 L 957 310 Q 960 310 972 316 Q 979 325 958 334 L 870 372 Q 838 386 816 402 Q 752 442 704 490 L 580 611 L 553 628 C 528 644 517 622 540 602 Z"></path>
      </clipPath>
      <path clip-path="url(#make-me-a-hanzi-clip-4)" d="M 556 618 L 559 606 L 587 584 L 707 448 L 812 348 L 848 334 L 964 321" fill="none" id="make-me-a-hanzi-animation-4" stroke-dasharray="658 1316" stroke-linecap="round"></path>
    
      <clipPath id="make-me-a-hanzi-clip-5">
        <path d="M 578 462 Q 573 462 565 460 L 540 452 Q 526 446 508 442 L 463 431 Q 454 428 452 423 Q 450 417 462 410 Q 474 403 487 403 Q 500 402 525 407 L 591 424 Q 613 430 620 431 Q 626 431 627 434 Q 628 436 628 441 Q 625 447 614 453 Q 602 459 592 460 Q 582 460 578 462 Z"></path>
      </clipPath>
      <path clip-path="url(#make-me-a-hanzi-clip-5)" d="M 461 422 L 514 423 L 575 441 L 621 438" fill="none" id="make-me-a-hanzi-animation-5" stroke-dasharray="291 582" stroke-linecap="round"></path>
    
      <clipPath id="make-me-a-hanzi-clip-6">
        <path d="M 498 288 L 551 298 L 597 310 Q 618 314 621 310 Q 623 306 611 281 Q 598 255 576 223 L 551 196 L 534 175 Q 529 170 532 165 Q 534 160 540 164 L 571 180 Q 589 189 621 221 Q 653 253 656 258 L 679 288 L 695 305 L 706 314 L 709 324 Q 710 328 702 334 Q 696 342 676 354 Q 655 366 644 366 Q 633 366 620 359 Q 607 351 585 347 L 536 336 Q 474 322 405 320 Q 389 319 387 314 Q 381 301 401 290 Q 420 279 435 277 Q 449 274 471 280 L 483 283 L 498 288 Z"></path>
      </clipPath>
      <path clip-path="url(#make-me-a-hanzi-clip-6)" d="M 396 308 L 449 299 L 626 335 L 653 326 L 658 321 L 646 290 L 614 242 L 583 207 L 537 169" fill="none" id="make-me-a-hanzi-animation-6" stroke-dasharray="595 1190" stroke-linecap="round"></path>
    
      <clipPath id="make-me-a-hanzi-clip-7">
        <path d="M 295 127 L 284 95 Q 270 74 227 6 Q 224 -3 223 -12 Q 218 -47 239 -66 Q 247 -73 257 -73 Q 264 -77 279 -60 Q 306 -33 316 2 Q 331 33 327 76 Q 322 118 317 127 Q 304 143 295 127 Z"></path>
      </clipPath>
      <path clip-path="url(#make-me-a-hanzi-clip-7)" d="M 306 124 L 300 66 L 261 -22 L 258 -50" fill="none" id="make-me-a-hanzi-animation-7" stroke-dasharray="311 622" stroke-linecap="round"></path>
    
      <clipPath id="make-me-a-hanzi-clip-8">
        <path d="M 667 70 L 692 0 Q 698 -21 695 -26 Q 687 -45 639 -52 Q 591 -59 532 -42 Q 503 -34 482 -17 Q 463 1 447 25 Q 429 51 425 73 L 418 104 Q 414 119 396 132 Q 379 140 376 126 Q 375 119 379 114 L 397 55 Q 407 19 419 -5 Q 431 -30 458 -54 Q 516 -105 603 -114 Q 651 -119 679 -115 Q 753 -106 786 -85 Q 819 -64 816 -45 Q 815 -39 800 -26 L 770 -4 Q 753 4 742 14 Q 731 23 711 43 L 681 76 Q 672 88 668 83 Q 664 78 667 70 Z"></path>
      </clipPath>
      <path clip-path="url(#make-me-a-hanzi-clip-8)" d="M 388 124 L 401 102 L 427 22 L 466 -33 L 527 -68 L 585 -82 L 631 -85 L 684 -78 L 717 -66 L 740 -50 L 727 -13 L 673 76" fill="none" id="make-me-a-hanzi-animation-8" stroke-dasharray="741 1482" stroke-linecap="round"></path>
    
      <clipPath id="make-me-a-hanzi-clip-9">
        <path d="M 584 37 Q 590 37 596 40 Q 615 51 614 75 Q 613 98 607 107 Q 601 116 584 126 Q 566 135 555 138 L 530 148 L 503 151 Q 500 152 494 150 Q 486 152 493 137 L 543 66 Q 569 33 584 37 Z"></path>
      </clipPath>
      <path clip-path="url(#make-me-a-hanzi-clip-9)" d="M 499 143 L 571 91 L 582 71 L 581 59" fill="none" id="make-me-a-hanzi-animation-9" stroke-dasharray="252 504" stroke-linecap="round"></path>
    
      <clipPath id="make-me-a-hanzi-clip-10">
        <path d="M 699 182 L 801 90 Q 823 69 835 72 Q 861 83 857 117 Q 853 150 811 168 Q 746 194 738 194 L 704 201 Q 696 203 693 196 Q 688 190 699 182 Z"></path>
      </clipPath>
      <path clip-path="url(#make-me-a-hanzi-clip-10)" d="M 702 191 L 812 128 L 832 90" fill="none" id="make-me-a-hanzi-animation-10" stroke-dasharray="298 596" stroke-linecap="round"></path>
    
  </g>
</svg>