<svg version="1.1" viewBox="0 0 1024 1024" xmlns="http://www.w3.org/2000/svg">
  <g stroke="lightgray" stroke-dasharray="1,1" stroke-width="1" transform="scale(4, 4)">
    <line x1="0" y1="0" x2="256" y2="256"></line>
    <line x1="256" y1="0" x2="0" y2="256"></line>
    <line x1="128" y1="0" x2="128" y2="256"></line>
    <line x1="0" y1="128" x2="256" y2="128"></line>
  </g>
<g transform="scale(1, -1) translate(0, -900)">
   <style type="text/css">
    @keyframes keyframes0 {
      from {
       stroke: blue;
       stroke-dashoffset: 533;
       stroke-width: 128;
       }
       63% {
       animation-timing-function: step-end;
       stroke: blue;
       stroke-dashoffset: 0;
       stroke-width: 128;
       }
       to {
       stroke: black;
       stroke-width: 1024;
       }
       }
       #make-me-a-hanzi-animation-0 {
         animation: keyframes0 0.683757s both;
         animation-delay: 0.000000s;
         animation-timing-function: linear;
       }
    @keyframes keyframes1 {
      from {
       stroke: blue;
       stroke-dashoffset: 590;
       stroke-width: 128;
       }
       66% {
       animation-timing-function: step-end;
       stroke: blue;
       stroke-dashoffset: 0;
       stroke-width: 128;
       }
       to {
       stroke: black;
       stroke-width: 1024;
       }
       }
       #make-me-a-hanzi-animation-1 {
         animation: keyframes1 0.730143s both;
         animation-delay: 0.683757s;
         animation-timing-function: linear;
       }
    @keyframes keyframes2 {
      from {
       stroke: blue;
       stroke-dashoffset: 419;
       stroke-width: 128;
       }
       58% {
       animation-timing-function: step-end;
       stroke: blue;
       stroke-dashoffset: 0;
       stroke-width: 128;
       }
       to {
       stroke: black;
       stroke-width: 1024;
       }
       }
       #make-me-a-hanzi-animation-2 {
         animation: keyframes2 0.590983s both;
         animation-delay: 1.413900s;
         animation-timing-function: linear;
       }
    @keyframes keyframes3 {
      from {
       stroke: blue;
       stroke-dashoffset: 407;
       stroke-width: 128;
       }
       57% {
       animation-timing-function: step-end;
       stroke: blue;
       stroke-dashoffset: 0;
       stroke-width: 128;
       }
       to {
       stroke: black;
       stroke-width: 1024;
       }
       }
       #make-me-a-hanzi-animation-3 {
         animation: keyframes3 0.581217s both;
         animation-delay: 2.004883s;
         animation-timing-function: linear;
       }
    @keyframes keyframes4 {
      from {
       stroke: blue;
       stroke-dashoffset: 576;
       stroke-width: 128;
       }
       65% {
       animation-timing-function: step-end;
       stroke: blue;
       stroke-dashoffset: 0;
       stroke-width: 128;
       }
       to {
       stroke: black;
       stroke-width: 1024;
       }
       }
       #make-me-a-hanzi-animation-4 {
         animation: keyframes4 0.718750s both;
         animation-delay: 2.586100s;
         animation-timing-function: linear;
       }
    @keyframes keyframes5 {
      from {
       stroke: blue;
       stroke-dashoffset: 364;
       stroke-width: 128;
       }
       54% {
       animation-timing-function: step-end;
       stroke: blue;
       stroke-dashoffset: 0;
       stroke-width: 128;
       }
       to {
       stroke: black;
       stroke-width: 1024;
       }
       }
       #make-me-a-hanzi-animation-5 {
         animation: keyframes5 0.546224s both;
         animation-delay: 3.304850s;
         animation-timing-function: linear;
       }
    @keyframes keyframes6 {
      from {
       stroke: blue;
       stroke-dashoffset: 489;
       stroke-width: 128;
       }
       61% {
       animation-timing-function: step-end;
       stroke: blue;
       stroke-dashoffset: 0;
       stroke-width: 128;
       }
       to {
       stroke: black;
       stroke-width: 1024;
       }
       }
       #make-me-a-hanzi-animation-6 {
         animation: keyframes6 0.647949s both;
         animation-delay: 3.851074s;
         animation-timing-function: linear;
       }
    @keyframes keyframes7 {
      from {
       stroke: blue;
       stroke-dashoffset: 859;
       stroke-width: 128;
       }
       74% {
       animation-timing-function: step-end;
       stroke: blue;
       stroke-dashoffset: 0;
       stroke-width: 128;
       }
       to {
       stroke: black;
       stroke-width: 1024;
       }
       }
       #make-me-a-hanzi-animation-7 {
         animation: keyframes7 0.949056s both;
         animation-delay: 4.499023s;
         animation-timing-function: linear;
       }
    @keyframes keyframes8 {
      from {
       stroke: blue;
       stroke-dashoffset: 593;
       stroke-width: 128;
       }
       66% {
       animation-timing-function: step-end;
       stroke: blue;
       stroke-dashoffset: 0;
       stroke-width: 128;
       }
       to {
       stroke: black;
       stroke-width: 1024;
       }
       }
       #make-me-a-hanzi-animation-8 {
         animation: keyframes8 0.732585s both;
         animation-delay: 5.448079s;
         animation-timing-function: linear;
       }
    @keyframes keyframes9 {
      from {
       stroke: blue;
       stroke-dashoffset: 870;
       stroke-width: 128;
       }
       74% {
       animation-timing-function: step-end;
       stroke: blue;
       stroke-dashoffset: 0;
       stroke-width: 128;
       }
       to {
       stroke: black;
       stroke-width: 1024;
       }
       }
       #make-me-a-hanzi-animation-9 {
         animation: keyframes9 0.958008s both;
         animation-delay: 6.180664s;
         animation-timing-function: linear;
       }
    @keyframes keyframes10 {
      from {
       stroke: blue;
       stroke-dashoffset: 411;
       stroke-width: 128;
       }
       57% {
       animation-timing-function: step-end;
       stroke: blue;
       stroke-dashoffset: 0;
       stroke-width: 128;
       }
       to {
       stroke: black;
       stroke-width: 1024;
       }
       }
       #make-me-a-hanzi-animation-10 {
         animation: keyframes10 0.584473s both;
         animation-delay: 7.138672s;
         animation-timing-function: linear;
       }
    @keyframes keyframes11 {
      from {
       stroke: blue;
       stroke-dashoffset: 451;
       stroke-width: 128;
       }
       59% {
       animation-timing-function: step-end;
       stroke: blue;
       stroke-dashoffset: 0;
       stroke-width: 128;
       }
       to {
       stroke: black;
       stroke-width: 1024;
       }
       }
       #make-me-a-hanzi-animation-11 {
         animation: keyframes11 0.617025s both;
         animation-delay: 7.723145s;
         animation-timing-function: linear;
       }
</style>
<path d="M 136.0 603.0 Q 124.0 609.0 96.0 616.0 Q 84.0 620.0 80.0 615.0 Q 73.0 609.0 81.0 592.0 Q 109.0 520.0 120.0 405.0 Q 121.0 371.0 140.0 346.0 Q 156.0 324.0 162.0 339.0 Q 169.0 358.0 168.0 395.0 L 164.0 427.0 Q 149.0 542.0 148.0 574.0 C 147.0 598.0 147.0 598.0 136.0 603.0 Z" fill="lightgray"></path> 
<path d="M 308.0 453.0 Q 324.0 550.0 351.0 581.0 Q 373.0 608.0 349.0 622.0 Q 328.0 632.0 300.0 651.0 Q 281.0 661.0 261.0 649.0 Q 221.0 622.0 136.0 603.0 C 107.0 596.0 119.0 566.0 148.0 574.0 Q 178.0 583.0 238.0 596.0 Q 263.0 603.0 269.0 592.0 Q 279.0 585.0 271.0 545.0 Q 264.0 502.0 255.0 451.0 C 250.0 421.0 303.0 423.0 308.0 453.0 Z" fill="lightgray"></path> 
<path d="M 168.0 395.0 Q 172.0 395.0 179.0 397.0 Q 225.0 409.0 325.0 421.0 Q 335.0 422.0 336.0 431.0 Q 336.0 438.0 308.0 453.0 C 294.0 461.0 284.0 458.0 255.0 451.0 Q 203.0 438.0 164.0 427.0 C 135.0 419.0 138.0 391.0 168.0 395.0 Z" fill="lightgray"></path> 
<path d="M 563.0 786.0 Q 593.0 761.0 624.0 729.0 Q 639.0 716.0 655.0 716.0 Q 665.0 717.0 672.0 731.0 Q 676.0 746.0 667.0 777.0 Q 661.0 799.0 628.0 815.0 Q 549.0 843.0 535.0 837.0 Q 529.0 833.0 531.0 819.0 Q 535.0 809.0 563.0 786.0 Z" fill="lightgray"></path> 
<path d="M 703.0 644.0 Q 713.0 648.0 728.0 649.0 Q 771.0 659.0 777.0 664.0 Q 786.0 671.0 782.0 679.0 Q 775.0 689.0 749.0 697.0 Q 724.0 703.0 627.0 673.0 Q 486.0 651.0 464.0 648.0 Q 430.0 644.0 454.0 627.0 Q 491.0 603.0 543.0 615.0 Q 601.0 627.0 664.0 637.0 L 703.0 644.0 Z" fill="lightgray"></path> 
<path d="M 456.0 551.0 Q 495.0 464.0 516.0 456.0 Q 529.0 452.0 539.0 467.0 Q 543.0 479.0 541.0 500.0 Q 537.0 519.0 515.0 537.0 Q 484.0 565.0 467.0 574.0 Q 460.0 578.0 455.0 568.0 Q 451.0 561.0 456.0 551.0 Z" fill="lightgray"></path> 
<path d="M 649.0 439.0 Q 668.0 463.0 708.0 538.0 Q 718.0 557.0 738.0 583.0 Q 753.0 596.0 744.0 606.0 Q 734.0 624.0 703.0 644.0 C 678.0 661.0 654.0 665.0 664.0 637.0 Q 664.0 636.0 666.0 632.0 Q 678.0 596.0 623.0 460.0 Q 617.0 445.0 615.0 433.0 C 609.0 404.0 631.0 415.0 649.0 439.0 Z" fill="lightgray"></path> 
<path d="M 615.0 433.0 Q 489.0 414.0 342.0 392.0 Q 323.0 389.0 338.0 373.0 Q 351.0 360.0 369.0 355.0 Q 390.0 351.0 405.0 355.0 Q 613.0 419.0 920.0 419.0 Q 921.0 419.0 923.0 419.0 Q 942.0 419.0 947.0 428.0 Q 951.0 438.0 936.0 452.0 Q 885.0 488.0 848.0 479.0 Q 773.0 461.0 649.0 439.0 L 615.0 433.0 Z" fill="lightgray"></path> 
<path d="M 477.0 298.0 Q 468.0 307.0 446.0 314.0 Q 437.0 318.0 427.0 314.0 Q 420.0 310.0 426.0 299.0 Q 427.0 292.0 430.0 287.0 Q 451.0 248.0 441.0 93.0 Q 423.0 11.0 458.0 -25.0 Q 468.0 -37.0 477.0 -26.0 Q 487.0 -10.0 487.0 8.0 L 489.0 41.0 Q 489.0 89.0 489.0 137.0 L 489.0 166.0 Q 489.0 214.0 490.0 264.0 C 490.0 288.0 490.0 288.0 477.0 298.0 Z" fill="lightgray"></path> 
<path d="M 664.0 22.0 Q 692.0 -15.0 712.0 -49.0 Q 721.0 -67.0 731.0 -67.0 Q 747.0 -66.0 764.0 -33.0 Q 783.0 6.0 780.0 52.0 Q 774.0 110.0 769.0 219.0 Q 768.0 250.0 786.0 273.0 Q 796.0 286.0 786.0 296.0 Q 767.0 317.0 715.0 342.0 Q 696.0 352.0 680.0 342.0 Q 587.0 305.0 477.0 298.0 C 447.0 296.0 460.0 261.0 490.0 264.0 Q 505.0 264.0 668.0 289.0 Q 690.0 292.0 701.0 283.0 Q 710.0 273.0 710.0 76.0 Q 709.0 64.0 708.0 56.0 Q 704.0 40.0 688.0 44.0 C 660.0 34.0 656.0 33.0 664.0 22.0 Z" fill="lightgray"></path> 
<path d="M 489.0 137.0 Q 574.0 150.0 638.0 159.0 Q 660.0 163.0 652.0 175.0 Q 642.0 188.0 618.0 193.0 Q 584.0 197.0 489.0 166.0 C 460.0 157.0 459.0 132.0 489.0 137.0 Z" fill="lightgray"></path> 
<path d="M 487.0 8.0 Q 494.0 7.0 506.0 8.0 Q 557.0 18.0 664.0 22.0 C 694.0 23.0 707.0 24.0 688.0 44.0 Q 681.0 53.0 665.0 62.0 Q 649.0 72.0 618.0 65.0 Q 548.0 50.0 489.0 41.0 C 459.0 36.0 457.0 10.0 487.0 8.0 Z" fill="lightgray"></path> 
      <clipPath id="make-me-a-hanzi-clip-0">
      <path d="M 136.0 603.0 Q 124.0 609.0 96.0 616.0 Q 84.0 620.0 80.0 615.0 Q 73.0 609.0 81.0 592.0 Q 109.0 520.0 120.0 405.0 Q 121.0 371.0 140.0 346.0 Q 156.0 324.0 162.0 339.0 Q 169.0 358.0 168.0 395.0 L 164.0 427.0 Q 149.0 542.0 148.0 574.0 C 147.0 598.0 147.0 598.0 136.0 603.0 Z" fill="lightgray"></path>
      </clipPath>
      <path clip-path="url(#make-me-a-hanzi-clip-0)" d="M 87.0 607.0 L 112.0 585.0 L 121.0 560.0 L 152.0 345.0 " fill="none" id="make-me-a-hanzi-animation-0" stroke-dasharray="405 810" stroke-linecap="round"></path>

      <clipPath id="make-me-a-hanzi-clip-1">
      <path d="M 308.0 453.0 Q 324.0 550.0 351.0 581.0 Q 373.0 608.0 349.0 622.0 Q 328.0 632.0 300.0 651.0 Q 281.0 661.0 261.0 649.0 Q 221.0 622.0 136.0 603.0 C 107.0 596.0 119.0 566.0 148.0 574.0 Q 178.0 583.0 238.0 596.0 Q 263.0 603.0 269.0 592.0 Q 279.0 585.0 271.0 545.0 Q 264.0 502.0 255.0 451.0 C 250.0 421.0 303.0 423.0 308.0 453.0 Z" fill="lightgray"></path>
      </clipPath>
      <path clip-path="url(#make-me-a-hanzi-clip-1)" d="M 147.0 599.0 L 157.0 592.0 L 271.0 623.0 L 289.0 619.0 L 312.0 596.0 L 286.0 478.0 L 261.0 459.0 " fill="none" id="make-me-a-hanzi-animation-1" stroke-dasharray="462 924" stroke-linecap="round"></path>

      <clipPath id="make-me-a-hanzi-clip-2">
      <path d="M 168.0 395.0 Q 172.0 395.0 179.0 397.0 Q 225.0 409.0 325.0 421.0 Q 335.0 422.0 336.0 431.0 Q 336.0 438.0 308.0 453.0 C 294.0 461.0 284.0 458.0 255.0 451.0 Q 203.0 438.0 164.0 427.0 C 135.0 419.0 138.0 391.0 168.0 395.0 Z" fill="lightgray"></path>
      </clipPath>
      <path clip-path="url(#make-me-a-hanzi-clip-2)" d="M 173.0 401.0 L 189.0 417.0 L 234.0 428.0 L 302.0 436.0 L 327.0 430.0 " fill="none" id="make-me-a-hanzi-animation-2" stroke-dasharray="291 582" stroke-linecap="round"></path>

      <clipPath id="make-me-a-hanzi-clip-3">
      <path d="M 563.0 786.0 Q 593.0 761.0 624.0 729.0 Q 639.0 716.0 655.0 716.0 Q 665.0 717.0 672.0 731.0 Q 676.0 746.0 667.0 777.0 Q 661.0 799.0 628.0 815.0 Q 549.0 843.0 535.0 837.0 Q 529.0 833.0 531.0 819.0 Q 535.0 809.0 563.0 786.0 Z" fill="lightgray"></path>
      </clipPath>
      <path clip-path="url(#make-me-a-hanzi-clip-3)" d="M 540.0 830.0 L 619.0 782.0 L 639.0 760.0 L 652.0 734.0 " fill="none" id="make-me-a-hanzi-animation-3" stroke-dasharray="279 558" stroke-linecap="round"></path>

      <clipPath id="make-me-a-hanzi-clip-4">
      <path d="M 703.0 644.0 Q 713.0 648.0 728.0 649.0 Q 771.0 659.0 777.0 664.0 Q 786.0 671.0 782.0 679.0 Q 775.0 689.0 749.0 697.0 Q 724.0 703.0 627.0 673.0 Q 486.0 651.0 464.0 648.0 Q 430.0 644.0 454.0 627.0 Q 491.0 603.0 543.0 615.0 Q 601.0 627.0 664.0 637.0 L 703.0 644.0 Z" fill="lightgray"></path>
      </clipPath>
      <path clip-path="url(#make-me-a-hanzi-clip-4)" d="M 456.0 639.0 L 479.0 632.0 L 517.0 633.0 L 717.0 672.0 L 771.0 674.0 " fill="none" id="make-me-a-hanzi-animation-4" stroke-dasharray="448 896" stroke-linecap="round"></path>

      <clipPath id="make-me-a-hanzi-clip-5">
      <path d="M 456.0 551.0 Q 495.0 464.0 516.0 456.0 Q 529.0 452.0 539.0 467.0 Q 543.0 479.0 541.0 500.0 Q 537.0 519.0 515.0 537.0 Q 484.0 565.0 467.0 574.0 Q 460.0 578.0 455.0 568.0 Q 451.0 561.0 456.0 551.0 Z" fill="lightgray"></path>
      </clipPath>
      <path clip-path="url(#make-me-a-hanzi-clip-5)" d="M 466.0 562.0 L 514.0 497.0 L 521.0 471.0 " fill="none" id="make-me-a-hanzi-animation-5" stroke-dasharray="236 472" stroke-linecap="round"></path>

      <clipPath id="make-me-a-hanzi-clip-6">
      <path d="M 649.0 439.0 Q 668.0 463.0 708.0 538.0 Q 718.0 557.0 738.0 583.0 Q 753.0 596.0 744.0 606.0 Q 734.0 624.0 703.0 644.0 C 678.0 661.0 654.0 665.0 664.0 637.0 Q 664.0 636.0 666.0 632.0 Q 678.0 596.0 623.0 460.0 Q 617.0 445.0 615.0 433.0 C 609.0 404.0 631.0 415.0 649.0 439.0 Z" fill="lightgray"></path>
      </clipPath>
      <path clip-path="url(#make-me-a-hanzi-clip-6)" d="M 671.0 637.0 L 698.0 611.0 L 703.0 598.0 L 653.0 480.0 L 639.0 454.0 L 620.0 439.0 " fill="none" id="make-me-a-hanzi-animation-6" stroke-dasharray="361 722" stroke-linecap="round"></path>

      <clipPath id="make-me-a-hanzi-clip-7">
      <path d="M 615.0 433.0 Q 489.0 414.0 342.0 392.0 Q 323.0 389.0 338.0 373.0 Q 351.0 360.0 369.0 355.0 Q 390.0 351.0 405.0 355.0 Q 613.0 419.0 920.0 419.0 Q 921.0 419.0 923.0 419.0 Q 942.0 419.0 947.0 428.0 Q 951.0 438.0 936.0 452.0 Q 885.0 488.0 848.0 479.0 Q 773.0 461.0 649.0 439.0 L 615.0 433.0 Z" fill="lightgray"></path>
      </clipPath>
      <path clip-path="url(#make-me-a-hanzi-clip-7)" d="M 341.0 382.0 L 396.0 377.0 L 596.0 415.0 L 849.0 449.0 L 886.0 448.0 L 936.0 433.0 " fill="none" id="make-me-a-hanzi-animation-7" stroke-dasharray="731 1462" stroke-linecap="round"></path>

      <clipPath id="make-me-a-hanzi-clip-8">
      <path d="M 477.0 298.0 Q 468.0 307.0 446.0 314.0 Q 437.0 318.0 427.0 314.0 Q 420.0 310.0 426.0 299.0 Q 427.0 292.0 430.0 287.0 Q 451.0 248.0 441.0 93.0 Q 423.0 11.0 458.0 -25.0 Q 468.0 -37.0 477.0 -26.0 Q 487.0 -10.0 487.0 8.0 L 489.0 41.0 Q 489.0 89.0 489.0 137.0 L 489.0 166.0 Q 489.0 214.0 490.0 264.0 C 490.0 288.0 490.0 288.0 477.0 298.0 Z" fill="lightgray"></path>
      </clipPath>
      <path clip-path="url(#make-me-a-hanzi-clip-8)" d="M 434.0 306.0 L 457.0 283.0 L 465.0 257.0 L 461.0 32.0 L 468.0 -20.0 " fill="none" id="make-me-a-hanzi-animation-8" stroke-dasharray="465 930" stroke-linecap="round"></path>

      <clipPath id="make-me-a-hanzi-clip-9">
      <path d="M 664.0 22.0 Q 692.0 -15.0 712.0 -49.0 Q 721.0 -67.0 731.0 -67.0 Q 747.0 -66.0 764.0 -33.0 Q 783.0 6.0 780.0 52.0 Q 774.0 110.0 769.0 219.0 Q 768.0 250.0 786.0 273.0 Q 796.0 286.0 786.0 296.0 Q 767.0 317.0 715.0 342.0 Q 696.0 352.0 680.0 342.0 Q 587.0 305.0 477.0 298.0 C 447.0 296.0 460.0 261.0 490.0 264.0 Q 505.0 264.0 668.0 289.0 Q 690.0 292.0 701.0 283.0 Q 710.0 273.0 710.0 76.0 Q 709.0 64.0 708.0 56.0 Q 704.0 40.0 688.0 44.0 C 660.0 34.0 656.0 33.0 664.0 22.0 Z" fill="lightgray"></path>
      </clipPath>
      <path clip-path="url(#make-me-a-hanzi-clip-9)" d="M 486.0 295.0 L 495.0 285.0 L 509.0 283.0 L 699.0 317.0 L 735.0 293.0 L 743.0 278.0 L 738.0 227.0 L 744.0 54.0 L 730.0 9.0 L 732.0 -53.0 " fill="none" id="make-me-a-hanzi-animation-9" stroke-dasharray="742 1484" stroke-linecap="round"></path>

      <clipPath id="make-me-a-hanzi-clip-10">
      <path d="M 489.0 137.0 Q 574.0 150.0 638.0 159.0 Q 660.0 163.0 652.0 175.0 Q 642.0 188.0 618.0 193.0 Q 584.0 197.0 489.0 166.0 C 460.0 157.0 459.0 132.0 489.0 137.0 Z" fill="lightgray"></path>
      </clipPath>
      <path clip-path="url(#make-me-a-hanzi-clip-10)" d="M 496.0 144.0 L 505.0 156.0 L 585.0 172.0 L 621.0 175.0 L 642.0 169.0 " fill="none" id="make-me-a-hanzi-animation-10" stroke-dasharray="283 566" stroke-linecap="round"></path>

      <clipPath id="make-me-a-hanzi-clip-11">
      <path d="M 487.0 8.0 Q 494.0 7.0 506.0 8.0 Q 557.0 18.0 664.0 22.0 C 694.0 23.0 707.0 24.0 688.0 44.0 Q 681.0 53.0 665.0 62.0 Q 649.0 72.0 618.0 65.0 Q 548.0 50.0 489.0 41.0 C 459.0 36.0 457.0 10.0 487.0 8.0 Z" fill="lightgray"></path>
      </clipPath>
      <path clip-path="url(#make-me-a-hanzi-clip-11)" d="M 491.0 13.0 L 503.0 24.0 L 526.0 30.0 L 680.0 45.0 " fill="none" id="make-me-a-hanzi-animation-11" stroke-dasharray="323 646" stroke-linecap="round"></path>

</g>
</svg>
