<svg version="1.1" viewBox="0 0 1024 1024" xmlns="http://www.w3.org/2000/svg">
  <g stroke="lightgray" stroke-dasharray="1,1" stroke-width="1" transform="scale(4, 4)">
    <line x1="0" y1="0" x2="256" y2="256"></line>
    <line x1="256" y1="0" x2="0" y2="256"></line>
    <line x1="128" y1="0" x2="128" y2="256"></line>
    <line x1="0" y1="128" x2="256" y2="128"></line>
  </g>
<g transform="scale(0.92, -0.92) translate(60, -900)">
   <style type="text/css">
    @keyframes keyframes0 {
      from {
       stroke: blue;
       stroke-dashoffset: 517;
       stroke-width: 128;
       }
       63% {
       animation-timing-function: step-end;
       stroke: blue;
       stroke-dashoffset: 0;
       stroke-width: 128;
       }
       to {
       stroke: black;
       stroke-width: 1024;
       }
       }
       #make-me-a-hanzi-animation-0 {
         animation: keyframes0 0.670736s both;
         animation-delay: 0.000000s;
         animation-timing-function: linear;
       }
    @keyframes keyframes1 {
      from {
       stroke: blue;
       stroke-dashoffset: 588;
       stroke-width: 128;
       }
       66% {
       animation-timing-function: step-end;
       stroke: blue;
       stroke-dashoffset: 0;
       stroke-width: 128;
       }
       to {
       stroke: black;
       stroke-width: 1024;
       }
       }
       #make-me-a-hanzi-animation-1 {
         animation: keyframes1 0.728516s both;
         animation-delay: 0.670736s;
         animation-timing-function: linear;
       }
    @keyframes keyframes2 {
      from {
       stroke: blue;
       stroke-dashoffset: 394;
       stroke-width: 128;
       }
       56% {
       animation-timing-function: step-end;
       stroke: blue;
       stroke-dashoffset: 0;
       stroke-width: 128;
       }
       to {
       stroke: black;
       stroke-width: 1024;
       }
       }
       #make-me-a-hanzi-animation-2 {
         animation: keyframes2 0.570638s both;
         animation-delay: 1.399251s;
         animation-timing-function: linear;
       }
    @keyframes keyframes3 {
      from {
       stroke: blue;
       stroke-dashoffset: 825;
       stroke-width: 128;
       }
       73% {
       animation-timing-function: step-end;
       stroke: blue;
       stroke-dashoffset: 0;
       stroke-width: 128;
       }
       to {
       stroke: black;
       stroke-width: 1024;
       }
       }
       #make-me-a-hanzi-animation-3 {
         animation: keyframes3 0.921387s both;
         animation-delay: 1.969889s;
         animation-timing-function: linear;
       }
    @keyframes keyframes4 {
      from {
       stroke: blue;
       stroke-dashoffset: 738;
       stroke-width: 128;
       }
       71% {
       animation-timing-function: step-end;
       stroke: blue;
       stroke-dashoffset: 0;
       stroke-width: 128;
       }
       to {
       stroke: black;
       stroke-width: 1024;
       }
       }
       #make-me-a-hanzi-animation-4 {
         animation: keyframes4 0.850586s both;
         animation-delay: 2.891276s;
         animation-timing-function: linear;
       }
    @keyframes keyframes5 {
      from {
       stroke: blue;
       stroke-dashoffset: 456;
       stroke-width: 128;
       }
       60% {
       animation-timing-function: step-end;
       stroke: blue;
       stroke-dashoffset: 0;
       stroke-width: 128;
       }
       to {
       stroke: black;
       stroke-width: 1024;
       }
       }
       #make-me-a-hanzi-animation-5 {
         animation: keyframes5 0.621094s both;
         animation-delay: 3.741862s;
         animation-timing-function: linear;
       }
    @keyframes keyframes6 {
      from {
       stroke: blue;
       stroke-dashoffset: 660;
       stroke-width: 128;
       }
       68% {
       animation-timing-function: step-end;
       stroke: blue;
       stroke-dashoffset: 0;
       stroke-width: 128;
       }
       to {
       stroke: black;
       stroke-width: 1024;
       }
       }
       #make-me-a-hanzi-animation-6 {
         animation: keyframes6 0.787109s both;
         animation-delay: 4.362956s;
         animation-timing-function: linear;
       }
    @keyframes keyframes7 {
      from {
       stroke: blue;
       stroke-dashoffset: 829;
       stroke-width: 128;
       }
       73% {
       animation-timing-function: step-end;
       stroke: blue;
       stroke-dashoffset: 0;
       stroke-width: 128;
       }
       to {
       stroke: black;
       stroke-width: 1024;
       }
       }
       #make-me-a-hanzi-animation-7 {
         animation: keyframes7 0.924642s both;
         animation-delay: 5.150065s;
         animation-timing-function: linear;
       }
    @keyframes keyframes8 {
      from {
       stroke: blue;
       stroke-dashoffset: 358;
       stroke-width: 128;
       }
       54% {
       animation-timing-function: step-end;
       stroke: blue;
       stroke-dashoffset: 0;
       stroke-width: 128;
       }
       to {
       stroke: black;
       stroke-width: 1024;
       }
       }
       #make-me-a-hanzi-animation-8 {
         animation: keyframes8 0.541341s both;
         animation-delay: 6.074707s;
         animation-timing-function: linear;
       }
    @keyframes keyframes9 {
      from {
       stroke: blue;
       stroke-dashoffset: 357;
       stroke-width: 128;
       }
       54% {
       animation-timing-function: step-end;
       stroke: blue;
       stroke-dashoffset: 0;
       stroke-width: 128;
       }
       to {
       stroke: black;
       stroke-width: 1024;
       }
       }
       #make-me-a-hanzi-animation-9 {
         animation: keyframes9 0.540527s both;
         animation-delay: 6.616048s;
         animation-timing-function: linear;
       }
    @keyframes keyframes10 {
      from {
       stroke: blue;
       stroke-dashoffset: 484;
       stroke-width: 128;
       }
       61% {
       animation-timing-function: step-end;
       stroke: blue;
       stroke-dashoffset: 0;
       stroke-width: 128;
       }
       to {
       stroke: black;
       stroke-width: 1024;
       }
       }
       #make-me-a-hanzi-animation-10 {
         animation: keyframes10 0.643880s both;
         animation-delay: 7.156576s;
         animation-timing-function: linear;
       }
    @keyframes keyframes11 {
      from {
       stroke: blue;
       stroke-dashoffset: 777;
       stroke-width: 128;
       }
       72% {
       animation-timing-function: step-end;
       stroke: blue;
       stroke-dashoffset: 0;
       stroke-width: 128;
       }
       to {
       stroke: black;
       stroke-width: 1024;
       }
       }
       #make-me-a-hanzi-animation-11 {
         animation: keyframes11 0.882324s both;
         animation-delay: 7.800456s;
         animation-timing-function: linear;
       }
</style>
<path d="M 111.5 608.5 L 81.5 615.5 Q 56.5 622.5 50.5 615.5 Q 44.5 607.5 61.5 591.5 Q 78.5 574.5 83.5 521.5 L 98.5 397.5 Q 101.5 366.5 109.5 361.5 Q 118.5 356.5 120.5 358.5 Q 123.5 359.5 126.5 362.5 Q 130.5 364.5 134.5 385.5 Q 134.5 393.5 136.5 397.5 L 133.5 429.5 L 118.5 578.5 C 115.5 607.5 115.5 607.5 111.5 608.5 Z" fill="lightgray"></path> 
<path d="M 254.5 646.5 L 248.5 643.5 Q 245.5 643.5 243.5 641.5 L 221.5 631.5 L 196.5 622.5 L 165.5 615.5 L 111.5 608.5 C 81.5 604.5 88.5 576.5 118.5 578.5 L 133.5 579.5 Q 148.5 580.5 153.5 582.5 L 211.5 595.5 L 224.5 595.5 Q 243.5 598.5 243.5 576.5 L 231.5 503.5 L 226.5 481.5 L 219.5 439.5 C 214.5 409.5 255.5 401.5 263.5 430.5 L 283.5 501.5 Q 300.5 558.5 315.5 578.5 L 327.5 596.5 Q 334.5 602.5 326.5 615.5 Q 318.5 628.5 290.5 638.5 Q 263.5 647.5 254.5 646.5 Z" fill="lightgray"></path> 
<path d="M 136.5 397.5 L 264.5 405.5 Q 277.5 407.5 278.5 408.5 Q 279.5 409.5 274.5 415.5 L 263.5 430.5 C 253.5 443.5 249.5 442.5 219.5 439.5 L 133.5 429.5 C 103.5 426.5 106.5 395.5 136.5 397.5 Z" fill="lightgray"></path> 
<path d="M 535.5 803.5 L 535.5 786.5 Q 535.5 773.5 532.5 752.5 Q 529.5 730.5 495.5 669.5 L 452.5 597.5 L 393.5 515.5 Q 365.5 478.5 340.5 455.5 Q 305.5 423.5 283.5 404.5 L 249.5 375.5 Q 242.5 369.5 244.5 362.5 Q 247.5 355.5 264.5 365.5 L 299.5 382.5 Q 337.5 403.5 364.5 424.5 Q 392.5 444.5 430.5 485.5 Q 502.5 561.5 547.5 639.5 L 584.5 705.5 L 596.5 729.5 L 608.5 747.5 L 617.5 758.5 Q 619.5 763.5 611.5 776.5 Q 603.5 789.5 581.5 805.5 L 567.5 815.5 Q 561.5 819.5 549.5 819.5 Q 535.5 820.5 535.5 803.5 Z" fill="lightgray"></path> 
<path d="M 584.5 705.5 L 619.5 667.5 Q 633.5 654.5 688.5 578.5 L 756.5 486.5 Q 769.5 470.5 786.5 453.5 Q 805.5 437.5 816.5 431.5 Q 827.5 425.5 845.5 424.5 Q 864.5 423.5 893.5 429.5 Q 922.5 434.5 948.5 437.5 Q 974.5 440.5 976.5 449.5 Q 979.5 450.5 977.5 455.5 Q 978.5 459.5 966.5 463.5 L 927.5 477.5 Q 864.5 497.5 795.5 546.5 Q 726.5 595.5 638.5 689.5 L 613.5 717.5 L 596.5 729.5 C 571.5 746.5 564.5 727.5 584.5 705.5 Z" fill="lightgray"></path> 
<path d="M 593.5 536.5 L 494.5 517.5 Q 484.5 516.5 478.5 513.5 L 483.5 503.5 Q 487.5 497.5 503.5 492.5 Q 523.5 489.5 531.5 489.5 Q 539.5 488.5 577.5 495.5 L 623.5 501.5 L 663.5 509.5 Q 675.5 511.5 680.5 513.5 Q 699.5 518.5 679.5 530.5 Q 653.5 550.5 638.5 546.5 L 593.5 536.5 Z" fill="lightgray"></path> 
<path d="M 402.5 266.5 L 407.5 350.5 C 409.5 377.5 409.5 377.5 402.5 379.5 L 374.5 388.5 Q 353.5 394.5 349.5 390.5 Q 342.5 384.5 348.5 367.5 Q 354.5 349.5 355.5 333.5 L 358.5 305.5 Q 358.5 272.5 357.5 238.5 Q 346.5 127.5 336.5 87.5 Q 326.5 46.5 326.5 37.5 Q 326.5 27.5 336.5 2.5 Q 342.5 -22.5 355.5 -22.5 Q 360.5 -22.5 366.5 -13.5 Q 373.5 -2.5 378.5 14.5 L 385.5 46.5 Q 391.5 93.5 397.5 158.5 L 399.5 182.5 L 401.5 247.5 L 402.5 266.5 Z" fill="lightgray"></path> 
<path d="M 407.5 350.5 L 477.5 365.5 Q 497.5 367.5 504.5 361.5 Q 512.5 354.5 511.5 338.5 Q 510.5 321.5 512.5 277.5 L 512.5 263.5 L 512.5 195.5 L 512.5 174.5 L 508.5 98.5 Q 507.5 74.5 503.5 65.5 Q 497.5 48.5 479.5 51.5 L 453.5 59.5 L 435.5 62.5 Q 429.5 64.5 426.5 60.5 Q 424.5 56.5 430.5 50.5 L 443.5 37.5 Q 450.5 31.5 466.5 12.5 Q 482.5 -7.5 486.5 -16.5 Q 491.5 -26.5 494.5 -27.5 Q 499.5 -34.5 515.5 -23.5 Q 527.5 -17.5 540.5 5.5 Q 553.5 28.5 554.5 54.5 L 554.5 295.5 Q 555.5 309.5 563.5 335.5 Q 572.5 360.5 571.5 366.5 Q 570.5 372.5 564.5 378.5 Q 557.5 388.5 542.5 398.5 Q 527.5 407.5 519.5 407.5 Q 511.5 407.5 495.5 401.5 Q 479.5 394.5 402.5 379.5 C 373.5 373.5 378.5 344.5 407.5 350.5 Z" fill="lightgray"></path> 
<path d="M 512.5 277.5 Q 498.5 287.5 481.5 289.5 Q 480.5 288.5 402.5 266.5 C 373.5 258.5 371.5 249.5 401.5 247.5 L 413.5 246.5 Q 423.5 243.5 436.5 246.5 L 512.5 263.5 C 528.5 266.5 528.5 266.5 512.5 277.5 Z" fill="lightgray"></path> 
<path d="M 397.5 158.5 L 405.5 156.5 Q 412.5 153.5 512.5 174.5 C 539.5 180.5 538.5 180.5 512.5 195.5 Q 497.5 204.5 488.5 202.5 L 399.5 182.5 C 370.5 175.5 368.5 165.5 397.5 158.5 Z" fill="lightgray"></path> 
<path d="M 634.5 215.5 L 627.5 158.5 L 633.5 143.5 Q 638.5 130.5 644.5 126.5 Q 652.5 120.5 659.5 121.5 Q 671.5 123.5 671.5 157.5 L 674.5 207.5 L 675.5 252.5 L 678.5 285.5 Q 679.5 304.5 680.5 310.5 L 685.5 332.5 Q 683.5 337.5 679.5 341.5 Q 669.5 348.5 647.5 356.5 Q 626.5 363.5 622.5 358.5 Q 618.5 353.5 619.5 347.5 L 625.5 330.5 Q 640.5 268.5 634.5 215.5 Z" fill="lightgray"></path> 
<path d="M 797.5 230.5 L 800.5 315.5 Q 806.5 342.5 811.5 356.5 Q 816.5 369.5 812.5 375.5 Q 812.5 385.5 779.5 399.5 L 756.5 406.5 Q 732.5 410.5 729.5 406.5 Q 727.5 401.5 733.5 384.5 Q 749.5 345.5 749.5 282.5 L 749.5 194.5 L 743.5 81.5 Q 742.5 58.5 735.5 55.5 Q 723.5 45.5 672.5 63.5 L 656.5 68.5 Q 644.5 69.5 643.5 66.5 Q 642.5 63.5 649.5 56.5 L 662.5 43.5 Q 665.5 41.5 683.5 20.5 L 706.5 -4.5 L 724.5 -30.5 Q 731.5 -43.5 740.5 -43.5 Q 741.5 -44.5 749.5 -41.5 Q 758.5 -38.5 767.5 -31.5 Q 779.5 -24.5 785.5 -10.5 Q 797.5 13.5 797.5 74.5 L 797.5 230.5 Z" fill="lightgray"></path> 
      <clipPath id="make-me-a-hanzi-clip-0">
      <path d="M 111.5 608.5 L 81.5 615.5 Q 56.5 622.5 50.5 615.5 Q 44.5 607.5 61.5 591.5 Q 78.5 574.5 83.5 521.5 L 98.5 397.5 Q 101.5 366.5 109.5 361.5 Q 118.5 356.5 120.5 358.5 Q 123.5 359.5 126.5 362.5 Q 130.5 364.5 134.5 385.5 Q 134.5 393.5 136.5 397.5 L 133.5 429.5 L 118.5 578.5 C 115.5 607.5 115.5 607.5 111.5 608.5 Z" fill="lightgray"></path>
      </clipPath>
      <path clip-path="url(#make-me-a-hanzi-clip-0)" d="M 58.5 610.5 L 84.5 595.5 L 95.5 580.5 L 117.5 369.5 " fill="none" id="make-me-a-hanzi-animation-0" stroke-dasharray="389 778" stroke-linecap="round"></path>

      <clipPath id="make-me-a-hanzi-clip-1">
      <path d="M 254.5 646.5 L 248.5 643.5 Q 245.5 643.5 243.5 641.5 L 221.5 631.5 L 196.5 622.5 L 165.5 615.5 L 111.5 608.5 C 81.5 604.5 88.5 576.5 118.5 578.5 L 133.5 579.5 Q 148.5 580.5 153.5 582.5 L 211.5 595.5 L 224.5 595.5 Q 243.5 598.5 243.5 576.5 L 231.5 503.5 L 226.5 481.5 L 219.5 439.5 C 214.5 409.5 255.5 401.5 263.5 430.5 L 283.5 501.5 Q 300.5 558.5 315.5 578.5 L 327.5 596.5 Q 334.5 602.5 326.5 615.5 Q 318.5 628.5 290.5 638.5 Q 263.5 647.5 254.5 646.5 Z" fill="lightgray"></path>
      </clipPath>
      <path clip-path="url(#make-me-a-hanzi-clip-1)" d="M 119.5 602.5 L 138.5 595.5 L 248.5 616.5 L 272.5 606.5 L 277.5 581.5 L 249.5 470.5 L 244.5 456.5 L 228.5 445.5 " fill="none" id="make-me-a-hanzi-animation-1" stroke-dasharray="460 920" stroke-linecap="round"></path>

      <clipPath id="make-me-a-hanzi-clip-2">
      <path d="M 136.5 397.5 L 264.5 405.5 Q 277.5 407.5 278.5 408.5 Q 279.5 409.5 274.5 415.5 L 263.5 430.5 C 253.5 443.5 249.5 442.5 219.5 439.5 L 133.5 429.5 C 103.5 426.5 106.5 395.5 136.5 397.5 Z" fill="lightgray"></path>
      </clipPath>
      <path clip-path="url(#make-me-a-hanzi-clip-2)" d="M 141.5 424.5 L 150.5 414.5 L 223.5 421.5 L 253.5 419.5 L 271.5 408.5 " fill="none" id="make-me-a-hanzi-animation-2" stroke-dasharray="266 532" stroke-linecap="round"></path>

      <clipPath id="make-me-a-hanzi-clip-3">
      <path d="M 535.5 803.5 L 535.5 786.5 Q 535.5 773.5 532.5 752.5 Q 529.5 730.5 495.5 669.5 L 452.5 597.5 L 393.5 515.5 Q 365.5 478.5 340.5 455.5 Q 305.5 423.5 283.5 404.5 L 249.5 375.5 Q 242.5 369.5 244.5 362.5 Q 247.5 355.5 264.5 365.5 L 299.5 382.5 Q 337.5 403.5 364.5 424.5 Q 392.5 444.5 430.5 485.5 Q 502.5 561.5 547.5 639.5 L 584.5 705.5 L 596.5 729.5 L 608.5 747.5 L 617.5 758.5 Q 619.5 763.5 611.5 776.5 Q 603.5 789.5 581.5 805.5 L 567.5 815.5 Q 561.5 819.5 549.5 819.5 Q 535.5 820.5 535.5 803.5 Z" fill="lightgray"></path>
      </clipPath>
      <path clip-path="url(#make-me-a-hanzi-clip-3)" d="M 547.5 806.5 L 572.5 763.5 L 532.5 673.5 L 473.5 578.5 L 366.5 451.5 L 250.5 367.5 " fill="none" id="make-me-a-hanzi-animation-3" stroke-dasharray="697 1394" stroke-linecap="round"></path>

      <clipPath id="make-me-a-hanzi-clip-4">
      <path d="M 584.5 705.5 L 619.5 667.5 Q 633.5 654.5 688.5 578.5 L 756.5 486.5 Q 769.5 470.5 786.5 453.5 Q 805.5 437.5 816.5 431.5 Q 827.5 425.5 845.5 424.5 Q 864.5 423.5 893.5 429.5 Q 922.5 434.5 948.5 437.5 Q 974.5 440.5 976.5 449.5 Q 979.5 450.5 977.5 455.5 Q 978.5 459.5 966.5 463.5 L 927.5 477.5 Q 864.5 497.5 795.5 546.5 Q 726.5 595.5 638.5 689.5 L 613.5 717.5 L 596.5 729.5 C 571.5 746.5 564.5 727.5 584.5 705.5 Z" fill="lightgray"></path>
      </clipPath>
      <path clip-path="url(#make-me-a-hanzi-clip-4)" d="M 597.5 721.5 L 608.5 700.5 L 697.5 598.5 L 821.5 479.5 L 868.5 461.5 L 968.5 454.5 " fill="none" id="make-me-a-hanzi-animation-4" stroke-dasharray="610 1220" stroke-linecap="round"></path>

      <clipPath id="make-me-a-hanzi-clip-5">
      <path d="M 593.5 536.5 L 494.5 517.5 Q 484.5 516.5 478.5 513.5 L 483.5 503.5 Q 487.5 497.5 503.5 492.5 Q 523.5 489.5 531.5 489.5 Q 539.5 488.5 577.5 495.5 L 623.5 501.5 L 663.5 509.5 Q 675.5 511.5 680.5 513.5 Q 699.5 518.5 679.5 530.5 Q 653.5 550.5 638.5 546.5 L 593.5 536.5 Z" fill="lightgray"></path>
      </clipPath>
      <path clip-path="url(#make-me-a-hanzi-clip-5)" d="M 483.5 509.5 L 513.5 504.5 L 644.5 526.5 L 681.5 522.5 " fill="none" id="make-me-a-hanzi-animation-5" stroke-dasharray="328 656" stroke-linecap="round"></path>

      <clipPath id="make-me-a-hanzi-clip-6">
      <path d="M 402.5 266.5 L 407.5 350.5 C 409.5 377.5 409.5 377.5 402.5 379.5 L 374.5 388.5 Q 353.5 394.5 349.5 390.5 Q 342.5 384.5 348.5 367.5 Q 354.5 349.5 355.5 333.5 L 358.5 305.5 Q 358.5 272.5 357.5 238.5 Q 346.5 127.5 336.5 87.5 Q 326.5 46.5 326.5 37.5 Q 326.5 27.5 336.5 2.5 Q 342.5 -22.5 355.5 -22.5 Q 360.5 -22.5 366.5 -13.5 Q 373.5 -2.5 378.5 14.5 L 385.5 46.5 Q 391.5 93.5 397.5 158.5 L 399.5 182.5 L 401.5 247.5 L 402.5 266.5 Z" fill="lightgray"></path>
      </clipPath>
      <path clip-path="url(#make-me-a-hanzi-clip-6)" d="M 355.5 382.5 L 380.5 353.5 L 382.5 302.5 L 375.5 178.5 L 354.5 36.5 L 354.5 -10.5 " fill="none" id="make-me-a-hanzi-animation-6" stroke-dasharray="532 1064" stroke-linecap="round"></path>

      <clipPath id="make-me-a-hanzi-clip-7">
      <path d="M 407.5 350.5 L 477.5 365.5 Q 497.5 367.5 504.5 361.5 Q 512.5 354.5 511.5 338.5 Q 510.5 321.5 512.5 277.5 L 512.5 263.5 L 512.5 195.5 L 512.5 174.5 L 508.5 98.5 Q 507.5 74.5 503.5 65.5 Q 497.5 48.5 479.5 51.5 L 453.5 59.5 L 435.5 62.5 Q 429.5 64.5 426.5 60.5 Q 424.5 56.5 430.5 50.5 L 443.5 37.5 Q 450.5 31.5 466.5 12.5 Q 482.5 -7.5 486.5 -16.5 Q 491.5 -26.5 494.5 -27.5 Q 499.5 -34.5 515.5 -23.5 Q 527.5 -17.5 540.5 5.5 Q 553.5 28.5 554.5 54.5 L 554.5 295.5 Q 555.5 309.5 563.5 335.5 Q 572.5 360.5 571.5 366.5 Q 570.5 372.5 564.5 378.5 Q 557.5 388.5 542.5 398.5 Q 527.5 407.5 519.5 407.5 Q 511.5 407.5 495.5 401.5 Q 479.5 394.5 402.5 379.5 C 373.5 373.5 378.5 344.5 407.5 350.5 Z" fill="lightgray"></path>
      </clipPath>
      <path clip-path="url(#make-me-a-hanzi-clip-7)" d="M 413.5 358.5 L 420.5 369.5 L 498.5 383.5 L 524.5 379.5 L 539.5 360.5 L 526.5 50.5 L 506.5 19.5 L 432.5 56.5 " fill="none" id="make-me-a-hanzi-animation-7" stroke-dasharray="701 1402" stroke-linecap="round"></path>

      <clipPath id="make-me-a-hanzi-clip-8">
      <path d="M 512.5 277.5 Q 498.5 287.5 481.5 289.5 Q 480.5 288.5 402.5 266.5 C 373.5 258.5 371.5 249.5 401.5 247.5 L 413.5 246.5 Q 423.5 243.5 436.5 246.5 L 512.5 263.5 C 528.5 266.5 528.5 266.5 512.5 277.5 Z" fill="lightgray"></path>
      </clipPath>
      <path clip-path="url(#make-me-a-hanzi-clip-8)" d="M 407.5 251.5 L 416.5 261.5 L 428.5 258.5 L 484.5 273.5 L 502.5 270.5 " fill="none" id="make-me-a-hanzi-animation-8" stroke-dasharray="230 460" stroke-linecap="round"></path>

      <clipPath id="make-me-a-hanzi-clip-9">
      <path d="M 397.5 158.5 L 405.5 156.5 Q 412.5 153.5 512.5 174.5 C 539.5 180.5 538.5 180.5 512.5 195.5 Q 497.5 204.5 488.5 202.5 L 399.5 182.5 C 370.5 175.5 368.5 165.5 397.5 158.5 Z" fill="lightgray"></path>
      </clipPath>
      <path clip-path="url(#make-me-a-hanzi-clip-9)" d="M 403.5 164.5 L 501.5 190.5 " fill="none" id="make-me-a-hanzi-animation-9" stroke-dasharray="229 458" stroke-linecap="round"></path>

      <clipPath id="make-me-a-hanzi-clip-10">
      <path d="M 634.5 215.5 L 627.5 158.5 L 633.5 143.5 Q 638.5 130.5 644.5 126.5 Q 652.5 120.5 659.5 121.5 Q 671.5 123.5 671.5 157.5 L 674.5 207.5 L 675.5 252.5 L 678.5 285.5 Q 679.5 304.5 680.5 310.5 L 685.5 332.5 Q 683.5 337.5 679.5 341.5 Q 669.5 348.5 647.5 356.5 Q 626.5 363.5 622.5 358.5 Q 618.5 353.5 619.5 347.5 L 625.5 330.5 Q 640.5 268.5 634.5 215.5 Z" fill="lightgray"></path>
      </clipPath>
      <path clip-path="url(#make-me-a-hanzi-clip-10)" d="M 628.5 350.5 L 655.5 321.5 L 656.5 230.5 L 649.5 162.5 L 655.5 134.5 " fill="none" id="make-me-a-hanzi-animation-10" stroke-dasharray="356 712" stroke-linecap="round"></path>

      <clipPath id="make-me-a-hanzi-clip-11">
      <path d="M 797.5 230.5 L 800.5 315.5 Q 806.5 342.5 811.5 356.5 Q 816.5 369.5 812.5 375.5 Q 812.5 385.5 779.5 399.5 L 756.5 406.5 Q 732.5 410.5 729.5 406.5 Q 727.5 401.5 733.5 384.5 Q 749.5 345.5 749.5 282.5 L 749.5 194.5 L 743.5 81.5 Q 742.5 58.5 735.5 55.5 Q 723.5 45.5 672.5 63.5 L 656.5 68.5 Q 644.5 69.5 643.5 66.5 Q 642.5 63.5 649.5 56.5 L 662.5 43.5 Q 665.5 41.5 683.5 20.5 L 706.5 -4.5 L 724.5 -30.5 Q 731.5 -43.5 740.5 -43.5 Q 741.5 -44.5 749.5 -41.5 Q 758.5 -38.5 767.5 -31.5 Q 779.5 -24.5 785.5 -10.5 Q 797.5 13.5 797.5 74.5 L 797.5 230.5 Z" fill="lightgray"></path>
      </clipPath>
      <path clip-path="url(#make-me-a-hanzi-clip-11)" d="M 734.5 402.5 L 776.5 360.5 L 767.5 48.5 L 746.5 13.5 L 688.5 38.5 L 650.5 63.5 " fill="none" id="make-me-a-hanzi-animation-11" stroke-dasharray="649 1298" stroke-linecap="round"></path>

</g>
</svg>
