<svg version="1.1" viewBox="0 0 1024 1024" xmlns="http://www.w3.org/2000/svg">
  <g stroke="lightgray" stroke-dasharray="1,1" stroke-width="1" transform="scale(4, 4)">
    <line x1="0" y1="0" x2="256" y2="256"></line>
    <line x1="256" y1="0" x2="0" y2="256"></line>
    <line x1="128" y1="0" x2="128" y2="256"></line>
    <line x1="0" y1="128" x2="256" y2="128"></line>
  </g>
<g transform="scale(1, -1) translate(0, -900)">
   <style type="text/css">
    @keyframes keyframes0 {
      from {
       stroke: blue;
       stroke-dashoffset: 519;
       stroke-width: 128;
       }
       63% {
       animation-timing-function: step-end;
       stroke: blue;
       stroke-dashoffset: 0;
       stroke-width: 128;
       }
       to {
       stroke: black;
       stroke-width: 1024;
       }
       }
       #make-me-a-hanzi-animation-0 {
         animation: keyframes0 0.672363s both;
         animation-delay: 0.000000s;
         animation-timing-function: linear;
       }
    @keyframes keyframes1 {
      from {
       stroke: blue;
       stroke-dashoffset: 569;
       stroke-width: 128;
       }
       65% {
       animation-timing-function: step-end;
       stroke: blue;
       stroke-dashoffset: 0;
       stroke-width: 128;
       }
       to {
       stroke: black;
       stroke-width: 1024;
       }
       }
       #make-me-a-hanzi-animation-1 {
         animation: keyframes1 0.713053s both;
         animation-delay: 0.672363s;
         animation-timing-function: linear;
       }
    @keyframes keyframes2 {
      from {
       stroke: blue;
       stroke-dashoffset: 408;
       stroke-width: 128;
       }
       57% {
       animation-timing-function: step-end;
       stroke: blue;
       stroke-dashoffset: 0;
       stroke-width: 128;
       }
       to {
       stroke: black;
       stroke-width: 1024;
       }
       }
       #make-me-a-hanzi-animation-2 {
         animation: keyframes2 0.582031s both;
         animation-delay: 1.385417s;
         animation-timing-function: linear;
       }
    @keyframes keyframes3 {
      from {
       stroke: blue;
       stroke-dashoffset: 639;
       stroke-width: 128;
       }
       68% {
       animation-timing-function: step-end;
       stroke: blue;
       stroke-dashoffset: 0;
       stroke-width: 128;
       }
       to {
       stroke: black;
       stroke-width: 1024;
       }
       }
       #make-me-a-hanzi-animation-3 {
         animation: keyframes3 0.770020s both;
         animation-delay: 1.967448s;
         animation-timing-function: linear;
       }
    @keyframes keyframes4 {
      from {
       stroke: blue;
       stroke-dashoffset: 369;
       stroke-width: 128;
       }
       55% {
       animation-timing-function: step-end;
       stroke: blue;
       stroke-dashoffset: 0;
       stroke-width: 128;
       }
       to {
       stroke: black;
       stroke-width: 1024;
       }
       }
       #make-me-a-hanzi-animation-4 {
         animation: keyframes4 0.550293s both;
         animation-delay: 2.737467s;
         animation-timing-function: linear;
       }
    @keyframes keyframes5 {
      from {
       stroke: blue;
       stroke-dashoffset: 541;
       stroke-width: 128;
       }
       64% {
       animation-timing-function: step-end;
       stroke: blue;
       stroke-dashoffset: 0;
       stroke-width: 128;
       }
       to {
       stroke: black;
       stroke-width: 1024;
       }
       }
       #make-me-a-hanzi-animation-5 {
         animation: keyframes5 0.690267s both;
         animation-delay: 3.287760s;
         animation-timing-function: linear;
       }
    @keyframes keyframes6 {
      from {
       stroke: blue;
       stroke-dashoffset: 786;
       stroke-width: 128;
       }
       72% {
       animation-timing-function: step-end;
       stroke: blue;
       stroke-dashoffset: 0;
       stroke-width: 128;
       }
       to {
       stroke: black;
       stroke-width: 1024;
       }
       }
       #make-me-a-hanzi-animation-6 {
         animation: keyframes6 0.889648s both;
         animation-delay: 3.978027s;
         animation-timing-function: linear;
       }
    @keyframes keyframes7 {
      from {
       stroke: blue;
       stroke-dashoffset: 406;
       stroke-width: 128;
       }
       57% {
       animation-timing-function: step-end;
       stroke: blue;
       stroke-dashoffset: 0;
       stroke-width: 128;
       }
       to {
       stroke: black;
       stroke-width: 1024;
       }
       }
       #make-me-a-hanzi-animation-7 {
         animation: keyframes7 0.580404s both;
         animation-delay: 4.867676s;
         animation-timing-function: linear;
       }
    @keyframes keyframes8 {
      from {
       stroke: blue;
       stroke-dashoffset: 402;
       stroke-width: 128;
       }
       57% {
       animation-timing-function: step-end;
       stroke: blue;
       stroke-dashoffset: 0;
       stroke-width: 128;
       }
       to {
       stroke: black;
       stroke-width: 1024;
       }
       }
       #make-me-a-hanzi-animation-8 {
         animation: keyframes8 0.577148s both;
         animation-delay: 5.448079s;
         animation-timing-function: linear;
       }
    @keyframes keyframes9 {
      from {
       stroke: blue;
       stroke-dashoffset: 436;
       stroke-width: 128;
       }
       59% {
       animation-timing-function: step-end;
       stroke: blue;
       stroke-dashoffset: 0;
       stroke-width: 128;
       }
       to {
       stroke: black;
       stroke-width: 1024;
       }
       }
       #make-me-a-hanzi-animation-9 {
         animation: keyframes9 0.604818s both;
         animation-delay: 6.025228s;
         animation-timing-function: linear;
       }
    @keyframes keyframes10 {
      from {
       stroke: blue;
       stroke-dashoffset: 675;
       stroke-width: 128;
       }
       69% {
       animation-timing-function: step-end;
       stroke: blue;
       stroke-dashoffset: 0;
       stroke-width: 128;
       }
       to {
       stroke: black;
       stroke-width: 1024;
       }
       }
       #make-me-a-hanzi-animation-10 {
         animation: keyframes10 0.799316s both;
         animation-delay: 6.630046s;
         animation-timing-function: linear;
       }
    @keyframes keyframes11 {
      from {
       stroke: blue;
       stroke-dashoffset: 931;
       stroke-width: 128;
       }
       75% {
       animation-timing-function: step-end;
       stroke: blue;
       stroke-dashoffset: 0;
       stroke-width: 128;
       }
       to {
       stroke: black;
       stroke-width: 1024;
       }
       }
       #make-me-a-hanzi-animation-11 {
         animation: keyframes11 1.007650s both;
         animation-delay: 7.429362s;
         animation-timing-function: linear;
       }
    @keyframes keyframes12 {
      from {
       stroke: blue;
       stroke-dashoffset: 822;
       stroke-width: 128;
       }
       73% {
       animation-timing-function: step-end;
       stroke: blue;
       stroke-dashoffset: 0;
       stroke-width: 128;
       }
       to {
       stroke: black;
       stroke-width: 1024;
       }
       }
       #make-me-a-hanzi-animation-12 {
         animation: keyframes12 0.918945s both;
         animation-delay: 8.437012s;
         animation-timing-function: linear;
       }
</style>
<path d="M 133.0 538.0 Q 121.0 544.0 92.0 550.0 Q 80.0 553.0 77.0 548.0 Q 70.0 542.0 78.0 527.0 Q 108.0 458.0 123.0 348.0 Q 124.0 315.0 143.0 292.0 Q 159.0 271.0 165.0 286.0 Q 172.0 308.0 167.0 351.0 L 161.0 383.0 Q 145.0 480.0 143.0 510.0 C 141.0 535.0 141.0 535.0 133.0 538.0 Z" fill="lightgray"></path> 
<path d="M 295.0 415.0 Q 311.0 502.0 336.0 530.0 Q 357.0 555.0 333.0 569.0 Q 314.0 579.0 286.0 594.0 Q 264.0 604.0 230.0 577.0 Q 191.0 556.0 133.0 538.0 C 104.0 529.0 115.0 500.0 143.0 510.0 Q 147.0 511.0 157.0 515.0 Q 197.0 528.0 231.0 540.0 Q 255.0 547.0 261.0 538.0 Q 270.0 531.0 262.0 494.0 Q 255.0 457.0 245.0 412.0 C 239.0 383.0 289.0 386.0 295.0 415.0 Z" fill="lightgray"></path> 
<path d="M 167.0 351.0 Q 177.0 350.0 190.0 354.0 Q 229.0 367.0 314.0 381.0 Q 324.0 384.0 324.0 393.0 Q 324.0 400.0 295.0 415.0 C 277.0 424.0 273.0 423.0 245.0 412.0 Q 199.0 394.0 161.0 383.0 C 132.0 375.0 137.0 352.0 167.0 351.0 Z" fill="lightgray"></path> 
<path d="M 560.0 729.0 Q 638.0 745.0 719.0 758.0 Q 771.0 768.0 780.0 776.0 Q 790.0 783.0 785.0 793.0 Q 778.0 805.0 748.0 813.0 Q 717.0 820.0 686.0 809.0 Q 626.0 790.0 561.0 775.0 Q 489.0 760.0 405.0 754.0 Q 368.0 750.0 394.0 731.0 Q 428.0 707.0 506.0 721.0 Q 512.0 722.0 521.0 723.0 L 560.0 729.0 Z" fill="lightgray"></path> 
<path d="M 516.0 637.0 Q 540.0 664.0 567.0 691.0 Q 580.0 698.0 575.0 708.0 Q 571.0 718.0 560.0 729.0 C 539.0 751.0 530.0 752.0 521.0 723.0 Q 505.0 672.0 491.0 646.0 Q 484.0 637.0 482.0 629.0 C 473.0 600.0 496.0 615.0 516.0 637.0 Z" fill="lightgray"></path> 
<path d="M 457.0 625.0 Q 447.0 632.0 421.0 639.0 Q 411.0 643.0 407.0 639.0 Q 401.0 635.0 406.0 620.0 Q 428.0 541.0 430.0 420.0 Q 429.0 384.0 445.0 357.0 Q 458.0 335.0 465.0 349.0 Q 468.0 356.0 471.0 367.0 L 474.0 389.0 Q 475.0 407.0 474.0 428.0 Q 473.0 435.0 473.0 441.0 L 471.0 464.0 Q 468.0 492.0 468.0 513.0 L 466.0 537.0 Q 465.0 580.0 465.0 598.0 C 465.0 621.0 465.0 621.0 457.0 625.0 Z" fill="lightgray"></path> 
<path d="M 650.0 385.0 Q 671.0 360.0 688.0 354.0 Q 698.0 347.0 711.0 370.0 Q 724.0 401.0 739.0 559.0 Q 746.0 587.0 766.0 612.0 Q 776.0 624.0 766.0 636.0 Q 751.0 651.0 710.0 672.0 Q 695.0 678.0 524.0 639.0 Q 518.0 639.0 516.0 637.0 L 482.0 629.0 Q 469.0 628.0 457.0 625.0 C 428.0 620.0 437.0 588.0 465.0 598.0 Q 489.0 610.0 640.0 634.0 Q 662.0 638.0 671.0 630.0 Q 687.0 614.0 686.0 596.0 Q 674.0 424.0 657.0 412.0 C 646.0 390.0 646.0 390.0 650.0 385.0 Z" fill="lightgray"></path> 
<path d="M 468.0 513.0 Q 469.0 514.0 611.0 540.0 Q 630.0 544.0 623.0 555.0 Q 614.0 567.0 593.0 570.0 Q 575.0 571.0 466.0 537.0 C 437.0 528.0 439.0 506.0 468.0 513.0 Z" fill="lightgray"></path> 
<path d="M 473.0 441.0 Q 474.0 441.0 479.0 441.0 Q 555.0 456.0 611.0 465.0 Q 630.0 468.0 623.0 479.0 Q 614.0 491.0 593.0 494.0 Q 563.0 497.0 471.0 464.0 C 443.0 454.0 443.0 441.0 473.0 441.0 Z" fill="lightgray"></path> 
<path d="M 471.0 367.0 Q 478.0 366.0 492.0 366.0 Q 583.0 379.0 650.0 385.0 C 680.0 388.0 684.0 399.0 657.0 412.0 Q 653.0 415.0 646.0 416.0 Q 628.0 419.0 474.0 389.0 C 445.0 383.0 441.0 370.0 471.0 367.0 Z" fill="lightgray"></path> 
<path d="M 513.0 289.0 Q 501.0 314.0 479.0 324.0 Q 463.0 333.0 452.0 333.0 Q 443.0 332.0 444.0 321.0 Q 444.0 249.0 314.0 141.0 Q 311.0 140.0 309.0 137.0 Q 272.0 107.0 181.0 51.0 Q 172.0 48.0 182.0 44.0 Q 236.0 38.0 361.0 129.0 Q 401.0 165.0 443.0 203.0 L 461.0 222.0 Q 492.0 258.0 501.0 263.0 C 519.0 278.0 519.0 278.0 513.0 289.0 Z" fill="lightgray"></path> 
<path d="M 635.0 117.0 Q 666.0 163.0 698.0 226.0 Q 713.0 251.0 732.0 266.0 Q 751.0 279.0 741.0 293.0 Q 729.0 305.0 702.0 318.0 Q 680.0 328.0 654.0 317.0 Q 627.0 308.0 591.0 300.0 Q 560.0 294.0 513.0 289.0 C 483.0 286.0 471.0 267.0 501.0 263.0 Q 531.0 256.0 568.0 264.0 Q 625.0 280.0 634.0 279.0 Q 653.0 275.0 647.0 255.0 Q 629.0 194.0 599.0 146.0 L 569.0 109.0 Q 497.0 34.0 335.0 -4.0 Q 322.0 -8.0 332.0 -16.0 Q 338.0 -20.0 385.0 -18.0 Q 445.0 -14.0 513.0 19.0 Q 562.0 41.0 600.0 77.0 L 635.0 117.0 Z" fill="lightgray"></path> 
<path d="M 600.0 77.0 Q 711.0 -40.0 766.0 -44.0 Q 835.0 -44.0 936.0 -29.0 Q 948.0 -25.0 951.0 -17.0 Q 954.0 -10.0 934.0 -7.0 Q 760.0 41.0 760.0 42.0 Q 688.0 78.0 635.0 117.0 L 599.0 146.0 Q 592.0 153.0 584.0 159.0 Q 511.0 232.0 461.0 222.0 C 431.0 220.0 414.0 211.0 443.0 203.0 Q 447.0 199.0 455.0 199.0 Q 489.0 199.0 569.0 109.0 L 600.0 77.0 Z" fill="lightgray"></path> 
      <clipPath id="make-me-a-hanzi-clip-0">
      <path d="M 133.0 538.0 Q 121.0 544.0 92.0 550.0 Q 80.0 553.0 77.0 548.0 Q 70.0 542.0 78.0 527.0 Q 108.0 458.0 123.0 348.0 Q 124.0 315.0 143.0 292.0 Q 159.0 271.0 165.0 286.0 Q 172.0 308.0 167.0 351.0 L 161.0 383.0 Q 145.0 480.0 143.0 510.0 C 141.0 535.0 141.0 535.0 133.0 538.0 Z" fill="lightgray"></path>
      </clipPath>
      <path clip-path="url(#make-me-a-hanzi-clip-0)" d="M 86.0 540.0 L 115.0 508.0 L 155.0 292.0 " fill="none" id="make-me-a-hanzi-animation-0" stroke-dasharray="391 782" stroke-linecap="round"></path>

      <clipPath id="make-me-a-hanzi-clip-1">
      <path d="M 295.0 415.0 Q 311.0 502.0 336.0 530.0 Q 357.0 555.0 333.0 569.0 Q 314.0 579.0 286.0 594.0 Q 264.0 604.0 230.0 577.0 Q 191.0 556.0 133.0 538.0 C 104.0 529.0 115.0 500.0 143.0 510.0 Q 147.0 511.0 157.0 515.0 Q 197.0 528.0 231.0 540.0 Q 255.0 547.0 261.0 538.0 Q 270.0 531.0 262.0 494.0 Q 255.0 457.0 245.0 412.0 C 239.0 383.0 289.0 386.0 295.0 415.0 Z" fill="lightgray"></path>
      </clipPath>
      <path clip-path="url(#make-me-a-hanzi-clip-1)" d="M 143.0 534.0 L 152.0 529.0 L 264.0 567.0 L 278.0 564.0 L 300.0 545.0 L 275.0 437.0 L 251.0 418.0 " fill="none" id="make-me-a-hanzi-animation-1" stroke-dasharray="441 882" stroke-linecap="round"></path>

      <clipPath id="make-me-a-hanzi-clip-2">
      <path d="M 167.0 351.0 Q 177.0 350.0 190.0 354.0 Q 229.0 367.0 314.0 381.0 Q 324.0 384.0 324.0 393.0 Q 324.0 400.0 295.0 415.0 C 277.0 424.0 273.0 423.0 245.0 412.0 Q 199.0 394.0 161.0 383.0 C 132.0 375.0 137.0 352.0 167.0 351.0 Z" fill="lightgray"></path>
      </clipPath>
      <path clip-path="url(#make-me-a-hanzi-clip-2)" d="M 172.0 358.0 L 186.0 372.0 L 252.0 392.0 L 295.0 396.0 L 314.0 391.0 " fill="none" id="make-me-a-hanzi-animation-2" stroke-dasharray="280 560" stroke-linecap="round"></path>

      <clipPath id="make-me-a-hanzi-clip-3">
      <path d="M 560.0 729.0 Q 638.0 745.0 719.0 758.0 Q 771.0 768.0 780.0 776.0 Q 790.0 783.0 785.0 793.0 Q 778.0 805.0 748.0 813.0 Q 717.0 820.0 686.0 809.0 Q 626.0 790.0 561.0 775.0 Q 489.0 760.0 405.0 754.0 Q 368.0 750.0 394.0 731.0 Q 428.0 707.0 506.0 721.0 Q 512.0 722.0 521.0 723.0 L 560.0 729.0 Z" fill="lightgray"></path>
      </clipPath>
      <path clip-path="url(#make-me-a-hanzi-clip-3)" d="M 397.0 744.0 L 424.0 737.0 L 476.0 738.0 L 713.0 787.0 L 774.0 787.0 " fill="none" id="make-me-a-hanzi-animation-3" stroke-dasharray="511 1022" stroke-linecap="round"></path>

      <clipPath id="make-me-a-hanzi-clip-4">
      <path d="M 516.0 637.0 Q 540.0 664.0 567.0 691.0 Q 580.0 698.0 575.0 708.0 Q 571.0 718.0 560.0 729.0 C 539.0 751.0 530.0 752.0 521.0 723.0 Q 505.0 672.0 491.0 646.0 Q 484.0 637.0 482.0 629.0 C 473.0 600.0 496.0 615.0 516.0 637.0 Z" fill="lightgray"></path>
      </clipPath>
      <path clip-path="url(#make-me-a-hanzi-clip-4)" d="M 564.0 703.0 L 552.0 706.0 L 540.0 700.0 L 511.0 652.0 L 487.0 632.0 " fill="none" id="make-me-a-hanzi-animation-4" stroke-dasharray="241 482" stroke-linecap="round"></path>

      <clipPath id="make-me-a-hanzi-clip-5">
      <path d="M 457.0 625.0 Q 447.0 632.0 421.0 639.0 Q 411.0 643.0 407.0 639.0 Q 401.0 635.0 406.0 620.0 Q 428.0 541.0 430.0 420.0 Q 429.0 384.0 445.0 357.0 Q 458.0 335.0 465.0 349.0 Q 468.0 356.0 471.0 367.0 L 474.0 389.0 Q 475.0 407.0 474.0 428.0 Q 473.0 435.0 473.0 441.0 L 471.0 464.0 Q 468.0 492.0 468.0 513.0 L 466.0 537.0 Q 465.0 580.0 465.0 598.0 C 465.0 621.0 465.0 621.0 457.0 625.0 Z" fill="lightgray"></path>
      </clipPath>
      <path clip-path="url(#make-me-a-hanzi-clip-5)" d="M 414.0 631.0 L 439.0 598.0 L 456.0 355.0 " fill="none" id="make-me-a-hanzi-animation-5" stroke-dasharray="413 826" stroke-linecap="round"></path>

      <clipPath id="make-me-a-hanzi-clip-6">
      <path d="M 650.0 385.0 Q 671.0 360.0 688.0 354.0 Q 698.0 347.0 711.0 370.0 Q 724.0 401.0 739.0 559.0 Q 746.0 587.0 766.0 612.0 Q 776.0 624.0 766.0 636.0 Q 751.0 651.0 710.0 672.0 Q 695.0 678.0 524.0 639.0 Q 518.0 639.0 516.0 637.0 L 482.0 629.0 Q 469.0 628.0 457.0 625.0 C 428.0 620.0 437.0 588.0 465.0 598.0 Q 489.0 610.0 640.0 634.0 Q 662.0 638.0 671.0 630.0 Q 687.0 614.0 686.0 596.0 Q 674.0 424.0 657.0 412.0 C 646.0 390.0 646.0 390.0 650.0 385.0 Z" fill="lightgray"></path>
      </clipPath>
      <path clip-path="url(#make-me-a-hanzi-clip-6)" d="M 465.0 605.0 L 477.0 616.0 L 613.0 646.0 L 666.0 652.0 L 703.0 641.0 L 723.0 620.0 L 713.0 580.0 L 699.0 445.0 L 685.0 394.0 L 693.0 372.0 " fill="none" id="make-me-a-hanzi-animation-6" stroke-dasharray="658 1316" stroke-linecap="round"></path>

      <clipPath id="make-me-a-hanzi-clip-7">
      <path d="M 468.0 513.0 Q 469.0 514.0 611.0 540.0 Q 630.0 544.0 623.0 555.0 Q 614.0 567.0 593.0 570.0 Q 575.0 571.0 466.0 537.0 C 437.0 528.0 439.0 506.0 468.0 513.0 Z" fill="lightgray"></path>
      </clipPath>
      <path clip-path="url(#make-me-a-hanzi-clip-7)" d="M 471.0 520.0 L 481.0 531.0 L 579.0 552.0 L 614.0 550.0 " fill="none" id="make-me-a-hanzi-animation-7" stroke-dasharray="278 556" stroke-linecap="round"></path>

      <clipPath id="make-me-a-hanzi-clip-8">
      <path d="M 473.0 441.0 Q 474.0 441.0 479.0 441.0 Q 555.0 456.0 611.0 465.0 Q 630.0 468.0 623.0 479.0 Q 614.0 491.0 593.0 494.0 Q 563.0 497.0 471.0 464.0 C 443.0 454.0 443.0 441.0 473.0 441.0 Z" fill="lightgray"></path>
      </clipPath>
      <path clip-path="url(#make-me-a-hanzi-clip-8)" d="M 476.0 447.0 L 487.0 457.0 L 558.0 474.0 L 596.0 479.0 L 615.0 474.0 " fill="none" id="make-me-a-hanzi-animation-8" stroke-dasharray="274 548" stroke-linecap="round"></path>

      <clipPath id="make-me-a-hanzi-clip-9">
      <path d="M 471.0 367.0 Q 478.0 366.0 492.0 366.0 Q 583.0 379.0 650.0 385.0 C 680.0 388.0 684.0 399.0 657.0 412.0 Q 653.0 415.0 646.0 416.0 Q 628.0 419.0 474.0 389.0 C 445.0 383.0 441.0 370.0 471.0 367.0 Z" fill="lightgray"></path>
      </clipPath>
      <path clip-path="url(#make-me-a-hanzi-clip-9)" d="M 476.0 372.0 L 489.0 382.0 L 499.0 379.0 L 539.0 389.0 L 628.0 398.0 L 649.0 407.0 " fill="none" id="make-me-a-hanzi-animation-9" stroke-dasharray="308 616" stroke-linecap="round"></path>

      <clipPath id="make-me-a-hanzi-clip-10">
      <path d="M 513.0 289.0 Q 501.0 314.0 479.0 324.0 Q 463.0 333.0 452.0 333.0 Q 443.0 332.0 444.0 321.0 Q 444.0 249.0 314.0 141.0 Q 311.0 140.0 309.0 137.0 Q 272.0 107.0 181.0 51.0 Q 172.0 48.0 182.0 44.0 Q 236.0 38.0 361.0 129.0 Q 401.0 165.0 443.0 203.0 L 461.0 222.0 Q 492.0 258.0 501.0 263.0 C 519.0 278.0 519.0 278.0 513.0 289.0 Z" fill="lightgray"></path>
      </clipPath>
      <path clip-path="url(#make-me-a-hanzi-clip-10)" d="M 456.0 322.0 L 472.0 284.0 L 422.0 214.0 L 324.0 123.0 L 236.0 68.0 L 191.0 54.0 L 187.0 48.0 " fill="none" id="make-me-a-hanzi-animation-10" stroke-dasharray="547 1094" stroke-linecap="round"></path>

      <clipPath id="make-me-a-hanzi-clip-11">
      <path d="M 635.0 117.0 Q 666.0 163.0 698.0 226.0 Q 713.0 251.0 732.0 266.0 Q 751.0 279.0 741.0 293.0 Q 729.0 305.0 702.0 318.0 Q 680.0 328.0 654.0 317.0 Q 627.0 308.0 591.0 300.0 Q 560.0 294.0 513.0 289.0 C 483.0 286.0 471.0 267.0 501.0 263.0 Q 531.0 256.0 568.0 264.0 Q 625.0 280.0 634.0 279.0 Q 653.0 275.0 647.0 255.0 Q 629.0 194.0 599.0 146.0 L 569.0 109.0 Q 497.0 34.0 335.0 -4.0 Q 322.0 -8.0 332.0 -16.0 Q 338.0 -20.0 385.0 -18.0 Q 445.0 -14.0 513.0 19.0 Q 562.0 41.0 600.0 77.0 L 635.0 117.0 Z" fill="lightgray"></path>
      </clipPath>
      <path clip-path="url(#make-me-a-hanzi-clip-11)" d="M 508.0 268.0 L 524.0 276.0 L 575.0 280.0 L 642.0 295.0 L 670.0 291.0 L 687.0 280.0 L 635.0 160.0 L 597.0 106.0 L 570.0 79.0 L 524.0 47.0 L 456.0 15.0 L 374.0 -9.0 L 337.0 -11.0 " fill="none" id="make-me-a-hanzi-animation-11" stroke-dasharray="803 1606" stroke-linecap="round"></path>

      <clipPath id="make-me-a-hanzi-clip-12">
      <path d="M 600.0 77.0 Q 711.0 -40.0 766.0 -44.0 Q 835.0 -44.0 936.0 -29.0 Q 948.0 -25.0 951.0 -17.0 Q 954.0 -10.0 934.0 -7.0 Q 760.0 41.0 760.0 42.0 Q 688.0 78.0 635.0 117.0 L 599.0 146.0 Q 592.0 153.0 584.0 159.0 Q 511.0 232.0 461.0 222.0 C 431.0 220.0 414.0 211.0 443.0 203.0 Q 447.0 199.0 455.0 199.0 Q 489.0 199.0 569.0 109.0 L 600.0 77.0 Z" fill="lightgray"></path>
      </clipPath>
      <path clip-path="url(#make-me-a-hanzi-clip-12)" d="M 450.0 205.0 L 477.0 209.0 L 508.0 195.0 L 662.0 59.0 L 751.0 2.0 L 811.0 -9.0 L 943.0 -17.0 " fill="none" id="make-me-a-hanzi-animation-12" stroke-dasharray="694 1388" stroke-linecap="round"></path>

</g>
</svg>
