<svg version="1.1" viewBox="0 0 1024 1024" xmlns="http://www.w3.org/2000/svg">
  <g stroke="lightgray" stroke-dasharray="1,1" stroke-width="1" transform="scale(4, 4)">
    <line x1="0" y1="0" x2="256" y2="256"></line>
    <line x1="256" y1="0" x2="0" y2="256"></line>
    <line x1="128" y1="0" x2="128" y2="256"></line>
    <line x1="0" y1="128" x2="256" y2="128"></line>
  </g>
  <g transform="scale(0.92, -0.92) translate(60, -850)">
    <style type="text/css">
      
        @keyframes keyframes0 {
          from {
            stroke: blue;
            stroke-dashoffset: 536;
            stroke-width: 128;
          }
          64% {
            animation-timing-function: step-end;
            stroke: blue;
            stroke-dashoffset: 0;
            stroke-width: 128;
          }
          to {
            stroke: black;
            stroke-width: 1024;
          }
        }
        #make-me-a-hanzi-animation-0 {
          animation: keyframes0 0.6861979166666666s both;
          animation-delay: 0s;
          animation-timing-function: linear;
        }
      
        @keyframes keyframes1 {
          from {
            stroke: blue;
            stroke-dashoffset: 779;
            stroke-width: 128;
          }
          72% {
            animation-timing-function: step-end;
            stroke: blue;
            stroke-dashoffset: 0;
            stroke-width: 128;
          }
          to {
            stroke: black;
            stroke-width: 1024;
          }
        }
        #make-me-a-hanzi-animation-1 {
          animation: keyframes1 0.8839518229166666s both;
          animation-delay: 0.6861979166666666s;
          animation-timing-function: linear;
        }
      
        @keyframes keyframes2 {
          from {
            stroke: blue;
            stroke-dashoffset: 619;
            stroke-width: 128;
          }
          67% {
            animation-timing-function: step-end;
            stroke: blue;
            stroke-dashoffset: 0;
            stroke-width: 128;
          }
          to {
            stroke: black;
            stroke-width: 1024;
          }
        }
        #make-me-a-hanzi-animation-2 {
          animation: keyframes2 0.7537434895833334s both;
          animation-delay: 1.5701497395833333s;
          animation-timing-function: linear;
        }
      
        @keyframes keyframes3 {
          from {
            stroke: blue;
            stroke-dashoffset: 643;
            stroke-width: 128;
          }
          68% {
            animation-timing-function: step-end;
            stroke: blue;
            stroke-dashoffset: 0;
            stroke-width: 128;
          }
          to {
            stroke: black;
            stroke-width: 1024;
          }
        }
        #make-me-a-hanzi-animation-3 {
          animation: keyframes3 0.7732747395833334s both;
          animation-delay: 2.3238932291666665s;
          animation-timing-function: linear;
        }
      
        @keyframes keyframes4 {
          from {
            stroke: blue;
            stroke-dashoffset: 653;
            stroke-width: 128;
          }
          68% {
            animation-timing-function: step-end;
            stroke: blue;
            stroke-dashoffset: 0;
            stroke-width: 128;
          }
          to {
            stroke: black;
            stroke-width: 1024;
          }
        }
        #make-me-a-hanzi-animation-4 {
          animation: keyframes4 0.7814127604166666s both;
          animation-delay: 3.09716796875s;
          animation-timing-function: linear;
        }
      
        @keyframes keyframes5 {
          from {
            stroke: blue;
            stroke-dashoffset: 395;
            stroke-width: 128;
          }
          56% {
            animation-timing-function: step-end;
            stroke: blue;
            stroke-dashoffset: 0;
            stroke-width: 128;
          }
          to {
            stroke: black;
            stroke-width: 1024;
          }
        }
        #make-me-a-hanzi-animation-5 {
          animation: keyframes5 0.5714518229166666s both;
          animation-delay: 3.8785807291666665s;
          animation-timing-function: linear;
        }
      
        @keyframes keyframes6 {
          from {
            stroke: blue;
            stroke-dashoffset: 430;
            stroke-width: 128;
          }
          58% {
            animation-timing-function: step-end;
            stroke: blue;
            stroke-dashoffset: 0;
            stroke-width: 128;
          }
          to {
            stroke: black;
            stroke-width: 1024;
          }
        }
        #make-me-a-hanzi-animation-6 {
          animation: keyframes6 0.5999348958333334s both;
          animation-delay: 4.450032552083333s;
          animation-timing-function: linear;
        }
      
        @keyframes keyframes7 {
          from {
            stroke: blue;
            stroke-dashoffset: 872;
            stroke-width: 128;
          }
          74% {
            animation-timing-function: step-end;
            stroke: blue;
            stroke-dashoffset: 0;
            stroke-width: 128;
          }
          to {
            stroke: black;
            stroke-width: 1024;
          }
        }
        #make-me-a-hanzi-animation-7 {
          animation: keyframes7 0.9596354166666666s both;
          animation-delay: 5.049967447916666s;
          animation-timing-function: linear;
        }
      
        @keyframes keyframes8 {
          from {
            stroke: blue;
            stroke-dashoffset: 645;
            stroke-width: 128;
          }
          68% {
            animation-timing-function: step-end;
            stroke: blue;
            stroke-dashoffset: 0;
            stroke-width: 128;
          }
          to {
            stroke: black;
            stroke-width: 1024;
          }
        }
        #make-me-a-hanzi-animation-8 {
          animation: keyframes8 0.77490234375s both;
          animation-delay: 6.009602864583333s;
          animation-timing-function: linear;
        }
      
        @keyframes keyframes9 {
          from {
            stroke: blue;
            stroke-dashoffset: 1044;
            stroke-width: 128;
          }
          77% {
            animation-timing-function: step-end;
            stroke: blue;
            stroke-dashoffset: 0;
            stroke-width: 128;
          }
          to {
            stroke: black;
            stroke-width: 1024;
          }
        }
        #make-me-a-hanzi-animation-9 {
          animation: keyframes9 1.099609375s both;
          animation-delay: 6.784505208333333s;
          animation-timing-function: linear;
        }
      
        @keyframes keyframes10 {
          from {
            stroke: blue;
            stroke-dashoffset: 412;
            stroke-width: 128;
          }
          57% {
            animation-timing-function: step-end;
            stroke: blue;
            stroke-dashoffset: 0;
            stroke-width: 128;
          }
          to {
            stroke: black;
            stroke-width: 1024;
          }
        }
        #make-me-a-hanzi-animation-10 {
          animation: keyframes10 0.5852864583333334s both;
          animation-delay: 7.884114583333333s;
          animation-timing-function: linear;
        }
      
        @keyframes keyframes11 {
          from {
            stroke: blue;
            stroke-dashoffset: 435;
            stroke-width: 128;
          }
          59% {
            animation-timing-function: step-end;
            stroke: blue;
            stroke-dashoffset: 0;
            stroke-width: 128;
          }
          to {
            stroke: black;
            stroke-width: 1024;
          }
        }
        #make-me-a-hanzi-animation-11 {
          animation: keyframes11 0.60400390625s both;
          animation-delay: 8.469401041666666s;
          animation-timing-function: linear;
        }
      
        @keyframes keyframes12 {
          from {
            stroke: blue;
            stroke-dashoffset: 387;
            stroke-width: 128;
          }
          56% {
            animation-timing-function: step-end;
            stroke: blue;
            stroke-dashoffset: 0;
            stroke-width: 128;
          }
          to {
            stroke: black;
            stroke-width: 1024;
          }
        }
        #make-me-a-hanzi-animation-12 {
          animation: keyframes12 0.56494140625s both;
          animation-delay: 9.073404947916666s;
          animation-timing-function: linear;
        }
      
        @keyframes keyframes13 {
          from {
            stroke: blue;
            stroke-dashoffset: 544;
            stroke-width: 128;
          }
          64% {
            animation-timing-function: step-end;
            stroke: blue;
            stroke-dashoffset: 0;
            stroke-width: 128;
          }
          to {
            stroke: black;
            stroke-width: 1024;
          }
        }
        #make-me-a-hanzi-animation-13 {
          animation: keyframes13 0.6927083333333334s both;
          animation-delay: 9.638346354166666s;
          animation-timing-function: linear;
        }
      
    </style>
    
      <path d="M 311 423 Q 303 423 283 412 Q 276 409 268 406 L 214 388 Q 167 375 95 362 Q 84 361 84 354 Q 84 347 105 340 Q 130 331 152 331 Q 163 331 183 338 Q 195 341 215 346 L 266 358 Q 287 363 311 371 Q 335 374 361 384 Q 375 391 376 402 Q 373 422 311 423 Z" fill="lightgray"></path>
    
      <path d="M 268 406 Q 271 447 274 472 Q 276 531 296 575 Q 299 590 299 599 Q 299 614 258 638 Q 219 658 191 658 Q 175 658 175 647 Q 175 641 183 627 Q 194 610 201 564 Q 209 516 214 388 L 215 346 Q 218 263 219 146 C 219 116 263 136 263 166 Q 263 279 266 358 L 268 406 Z" fill="lightgray"></path>
    
      <path d="M 219 146 Q 116 103 73 97 Q 47 94 47 83 Q 47 73 73 49 Q 105 22 128 22 Q 131 22 159 51 Q 208 91 349 173 Q 391 197 391 211 Q 391 219 380 219 Q 374 219 317 189 Q 291 177 263 166 L 219 146 Z" fill="lightgray"></path>
    
      <path d="M 768 639 Q 755 639 724 629 Q 702 621 670 615 L 609 604 Q 541 594 439 582 Q 427 581 427 574 Q 427 567 450 560 Q 474 551 496 551 Q 515 551 550 557 Q 570 559 611 565 L 668 572 Q 710 578 768 587 Q 791 590 817 600 Q 831 606 831 618 Q 828 638 768 639 Z" fill="lightgray"></path>
    
      <path d="M 670 615 Q 673 667 679 684 Q 691 709 691 719 Q 691 738 656 762 Q 630 778 607 778 Q 596 776 596 767 Q 604 712 609 604 L 611 565 Q 614 484 615 376 C 615 346 664 352 664 382 Q 664 497 668 572 L 670 615 Z" fill="lightgray"></path>
    
      <path d="M 447 511 Q 435 511 435 507 Q 435 502 470 450 Q 511 394 540 394 Q 555 394 555 415 Q 555 435 547 456 Q 532 485 502 499 Q 477 509 447 511 Z" fill="lightgray"></path>
    
      <path d="M 775 555 Q 770 555 767 550 Q 764 545 764 538 Q 764 526 751 501 Q 734 467 712 440 Q 698 426 695 419 Q 699 415 708 415 Q 753 431 788 461 Q 815 484 838 502 Q 848 507 848 511 Q 848 523 811 542 Q 787 555 775 555 Z" fill="lightgray"></path>
    
      <path d="M 615 376 Q 579 371 531 363 Q 422 345 359 339 Q 347 335 347 326 Q 348 322 373 306 Q 392 295 408 295 Q 417 295 449 304 Q 532 323 638 334 Q 737 347 819 347 L 863 345 Q 916 339 939 339 Q 974 340 976 358 Q 973 376 943 393 Q 914 410 892 410 Q 879 410 858 407 Q 822 402 785 398 Q 756 395 664 382 L 615 376 Z" fill="lightgray"></path>
    
      <path d="M 408 255 Q 391 255 391 247 Q 391 239 401 221 Q 419 196 427 149 Q 444 87 453 -70 Q 456 -132 483 -133 Q 495 -133 499 -91 L 500 -60 Q 499 22 478 187 L 471 230 Q 466 245 449 250 Q 433 255 408 255 Z" fill="lightgray"></path>
    
      <path d="M 749 -74 Q 767 -114 778 -139 Q 781 -154 787 -154 Q 805 -154 824 -128 Q 845 -98 855 -65 Q 871 -17 895 152 Q 899 189 915 206 Q 924 215 924 219 Q 924 229 878 264 Q 833 295 819 295 Q 811 295 792 286 Q 762 271 621 249 Q 517 231 471 230 C 441 228 448 184 478 187 Q 481 186 483 186 Q 493 186 511 192 Q 555 203 666 220 Q 760 234 800 234 Q 819 234 819 207 Q 819 142 812 60 Q 806 -9 799 -39 Q 799 -40 798 -42 C 792 -71 737 -47 749 -74 Z" fill="lightgray"></path>
    
      <path d="M 531 146 Q 519 146 519 138 Q 519 136 526 129 Q 540 120 546 101 Q 558 78 564 19 Q 567 -4 588 -5 Q 595 -5 598 22 L 599 48 L 599 50 Q 599 70 593 110 L 585 133 Q 580 139 568 142 Q 554 146 531 146 Z" fill="lightgray"></path>
    
      <path d="M 718 63 Q 732 98 756 116 Q 771 128 771 131 Q 771 138 743 158 Q 714 175 699 175 Q 693 175 677 163 Q 650 147 585 133 C 556 127 563 107 593 110 Q 606 111 634 117 Q 662 123 672 123 Q 687 123 687 110 L 678 63 C 672 34 706 35 718 63 Z" fill="lightgray"></path>
    
      <path d="M 598 22 Q 604 18 615 18 Q 672 24 731 31 Q 743 36 743 43 Q 743 51 727 60 Q 723 62 718 63 L 678 63 Q 656 59 599 48 C 570 42 571 35 598 22 Z" fill="lightgray"></path>
    
      <path d="M 499 -91 Q 503 -93 512 -93 Q 628 -83 749 -74 C 779 -72 822 -60 798 -42 Q 796 -39 790 -36 Q 775 -30 756 -30 Q 742 -30 500 -60 C 470 -64 470 -85 499 -91 Z" fill="lightgray"></path>
    
    
      <clipPath id="make-me-a-hanzi-clip-0">
        <path d="M 311 423 Q 303 423 283 412 Q 276 409 268 406 L 214 388 Q 167 375 95 362 Q 84 361 84 354 Q 84 347 105 340 Q 130 331 152 331 Q 163 331 183 338 Q 195 341 215 346 L 266 358 Q 287 363 311 371 Q 335 374 361 384 Q 375 391 376 402 Q 373 422 311 423 Z"></path>
      </clipPath>
      <path clip-path="url(#make-me-a-hanzi-clip-0)" d="M 92 355 L 117 350 L 168 354 L 302 395 L 365 401" fill="none" id="make-me-a-hanzi-animation-0" stroke-dasharray="408 816" stroke-linecap="round"></path>
    
      <clipPath id="make-me-a-hanzi-clip-1">
        <path d="M 268 406 Q 271 447 274 472 Q 276 531 296 575 Q 299 590 299 599 Q 299 614 258 638 Q 219 658 191 658 Q 175 658 175 647 Q 175 641 183 627 Q 194 610 201 564 Q 209 516 214 388 L 215 346 Q 218 263 219 146 C 219 116 263 136 263 166 Q 263 279 266 358 L 268 406 Z"></path>
      </clipPath>
      <path clip-path="url(#make-me-a-hanzi-clip-1)" d="M 187 646 L 224 617 L 247 586 L 240 439 L 241 180 L 222 155" fill="none" id="make-me-a-hanzi-animation-1" stroke-dasharray="651 1302" stroke-linecap="round"></path>
    
      <clipPath id="make-me-a-hanzi-clip-2">
        <path d="M 219 146 Q 116 103 73 97 Q 47 94 47 83 Q 47 73 73 49 Q 105 22 128 22 Q 131 22 159 51 Q 208 91 349 173 Q 391 197 391 211 Q 391 219 380 219 Q 374 219 317 189 Q 291 177 263 166 L 219 146 Z"></path>
      </clipPath>
      <path clip-path="url(#make-me-a-hanzi-clip-2)" d="M 58 82 L 100 68 L 122 68 L 382 210" fill="none" id="make-me-a-hanzi-animation-2" stroke-dasharray="491 982" stroke-linecap="round"></path>
    
      <clipPath id="make-me-a-hanzi-clip-3">
        <path d="M 768 639 Q 755 639 724 629 Q 702 621 670 615 L 609 604 Q 541 594 439 582 Q 427 581 427 574 Q 427 567 450 560 Q 474 551 496 551 Q 515 551 550 557 Q 570 559 611 565 L 668 572 Q 710 578 768 587 Q 791 590 817 600 Q 831 606 831 618 Q 828 638 768 639 Z"></path>
      </clipPath>
      <path clip-path="url(#make-me-a-hanzi-clip-3)" d="M 435 575 L 476 569 L 524 572 L 778 615 L 818 616" fill="none" id="make-me-a-hanzi-animation-3" stroke-dasharray="515 1030" stroke-linecap="round"></path>
    
      <clipPath id="make-me-a-hanzi-clip-4">
        <path d="M 670 615 Q 673 667 679 684 Q 691 709 691 719 Q 691 738 656 762 Q 630 778 607 778 Q 596 776 596 767 Q 604 712 609 604 L 611 565 Q 614 484 615 376 C 615 346 664 352 664 382 Q 664 497 668 572 L 670 615 Z"></path>
      </clipPath>
      <path clip-path="url(#make-me-a-hanzi-clip-4)" d="M 610 764 L 645 715 L 638 615 L 640 410 L 620 385" fill="none" id="make-me-a-hanzi-animation-4" stroke-dasharray="525 1050" stroke-linecap="round"></path>
    
      <clipPath id="make-me-a-hanzi-clip-5">
        <path d="M 447 511 Q 435 511 435 507 Q 435 502 470 450 Q 511 394 540 394 Q 555 394 555 415 Q 555 435 547 456 Q 532 485 502 499 Q 477 509 447 511 Z"></path>
      </clipPath>
      <path clip-path="url(#make-me-a-hanzi-clip-5)" d="M 442 507 L 509 454 L 539 410" fill="none" id="make-me-a-hanzi-animation-5" stroke-dasharray="267 534" stroke-linecap="round"></path>
    
      <clipPath id="make-me-a-hanzi-clip-6">
        <path d="M 775 555 Q 770 555 767 550 Q 764 545 764 538 Q 764 526 751 501 Q 734 467 712 440 Q 698 426 695 419 Q 699 415 708 415 Q 753 431 788 461 Q 815 484 838 502 Q 848 507 848 511 Q 848 523 811 542 Q 787 555 775 555 Z"></path>
      </clipPath>
      <path clip-path="url(#make-me-a-hanzi-clip-6)" d="M 839 511 L 792 509 L 747 454 L 703 420" fill="none" id="make-me-a-hanzi-animation-6" stroke-dasharray="302 604" stroke-linecap="round"></path>
    
      <clipPath id="make-me-a-hanzi-clip-7">
        <path d="M 615 376 Q 579 371 531 363 Q 422 345 359 339 Q 347 335 347 326 Q 348 322 373 306 Q 392 295 408 295 Q 417 295 449 304 Q 532 323 638 334 Q 737 347 819 347 L 863 345 Q 916 339 939 339 Q 974 340 976 358 Q 973 376 943 393 Q 914 410 892 410 Q 879 410 858 407 Q 822 402 785 398 Q 756 395 664 382 L 615 376 Z"></path>
      </clipPath>
      <path clip-path="url(#make-me-a-hanzi-clip-7)" d="M 353 328 L 418 321 L 636 357 L 825 375 L 901 375 L 963 358" fill="none" id="make-me-a-hanzi-animation-7" stroke-dasharray="744 1488" stroke-linecap="round"></path>
    
      <clipPath id="make-me-a-hanzi-clip-8">
        <path d="M 408 255 Q 391 255 391 247 Q 391 239 401 221 Q 419 196 427 149 Q 444 87 453 -70 Q 456 -132 483 -133 Q 495 -133 499 -91 L 500 -60 Q 499 22 478 187 L 471 230 Q 466 245 449 250 Q 433 255 408 255 Z"></path>
      </clipPath>
      <path clip-path="url(#make-me-a-hanzi-clip-8)" d="M 402 244 L 440 218 L 452 173 L 468 64 L 481 -122" fill="none" id="make-me-a-hanzi-animation-8" stroke-dasharray="517 1034" stroke-linecap="round"></path>
    
      <clipPath id="make-me-a-hanzi-clip-9">
        <path d="M 749 -74 Q 767 -114 778 -139 Q 781 -154 787 -154 Q 805 -154 824 -128 Q 845 -98 855 -65 Q 871 -17 895 152 Q 899 189 915 206 Q 924 215 924 219 Q 924 229 878 264 Q 833 295 819 295 Q 811 295 792 286 Q 762 271 621 249 Q 517 231 471 230 C 441 228 448 184 478 187 Q 481 186 483 186 Q 493 186 511 192 Q 555 203 666 220 Q 760 234 800 234 Q 819 234 819 207 Q 819 142 812 60 Q 806 -9 799 -39 Q 799 -40 798 -42 C 792 -71 737 -47 749 -74 Z"></path>
      </clipPath>
      <path clip-path="url(#make-me-a-hanzi-clip-9)" d="M 476 223 L 496 209 L 814 262 L 850 240 L 865 215 L 845 44 L 827 -52 L 801 -90 L 791 -143" fill="none" id="make-me-a-hanzi-animation-9" stroke-dasharray="916 1832" stroke-linecap="round"></path>
    
      <clipPath id="make-me-a-hanzi-clip-10">
        <path d="M 531 146 Q 519 146 519 138 Q 519 136 526 129 Q 540 120 546 101 Q 558 78 564 19 Q 567 -4 588 -5 Q 595 -5 598 22 L 599 48 L 599 50 Q 599 70 593 110 L 585 133 Q 580 139 568 142 Q 554 146 531 146 Z"></path>
      </clipPath>
      <path clip-path="url(#make-me-a-hanzi-clip-10)" d="M 528 138 L 565 116 L 576 81 L 584 5" fill="none" id="make-me-a-hanzi-animation-10" stroke-dasharray="284 568" stroke-linecap="round"></path>
    
      <clipPath id="make-me-a-hanzi-clip-11">
        <path d="M 718 63 Q 732 98 756 116 Q 771 128 771 131 Q 771 138 743 158 Q 714 175 699 175 Q 693 175 677 163 Q 650 147 585 133 C 556 127 563 107 593 110 Q 606 111 634 117 Q 662 123 672 123 Q 687 123 687 110 L 678 63 C 672 34 706 35 718 63 Z"></path>
      </clipPath>
      <path clip-path="url(#make-me-a-hanzi-clip-11)" d="M 611 129 L 614 137 L 652 129 L 663 144 L 710 139 L 720 128 L 706 89 L 698 84" fill="none" id="make-me-a-hanzi-animation-11" stroke-dasharray="307 614" stroke-linecap="round"></path>
    
      <clipPath id="make-me-a-hanzi-clip-12">
        <path d="M 598 22 Q 604 18 615 18 Q 672 24 731 31 Q 743 36 743 43 Q 743 51 727 60 Q 723 62 718 63 L 678 63 Q 656 59 599 48 C 570 42 571 35 598 22 Z"></path>
      </clipPath>
      <path clip-path="url(#make-me-a-hanzi-clip-12)" d="M 605 28 L 615 35 L 685 45 L 733 43" fill="none" id="make-me-a-hanzi-animation-12" stroke-dasharray="259 518" stroke-linecap="round"></path>
    
      <clipPath id="make-me-a-hanzi-clip-13">
        <path d="M 499 -91 Q 503 -93 512 -93 Q 628 -83 749 -74 C 779 -72 822 -60 798 -42 Q 796 -39 790 -36 Q 775 -30 756 -30 Q 742 -30 500 -60 C 470 -64 470 -85 499 -91 Z"></path>
      </clipPath>
      <path clip-path="url(#make-me-a-hanzi-clip-13)" d="M 507 -83 L 543 -70 L 739 -54 L 783 -41 L 790 -44" fill="none" id="make-me-a-hanzi-animation-13" stroke-dasharray="416 832" stroke-linecap="round"></path>
    
  </g>
</svg>