<svg version="1.1" viewBox="0 0 1024 1024" xmlns="http://www.w3.org/2000/svg">
  <g stroke="lightgray" stroke-dasharray="1,1" stroke-width="1" transform="scale(4, 4)">
    <line x1="0" y1="0" x2="256" y2="256"></line>
    <line x1="256" y1="0" x2="0" y2="256"></line>
    <line x1="128" y1="0" x2="128" y2="256"></line>
    <line x1="0" y1="128" x2="256" y2="128"></line>
  </g>
  <g transform="scale(0.92, -0.92) translate(60, -850)">
    <style type="text/css">
      
        @keyframes keyframes0 {
          from {
            stroke: blue;
            stroke-dashoffset: 863;
            stroke-width: 128;
          }
          74% {
            animation-timing-function: step-end;
            stroke: blue;
            stroke-dashoffset: 0;
            stroke-width: 128;
          }
          to {
            stroke: black;
            stroke-width: 1024;
          }
        }
        #make-me-a-hanzi-animation-0 {
          animation: keyframes0 0.9523111979166666s both;
          animation-delay: 0s;
          animation-timing-function: linear;
        }
      
        @keyframes keyframes1 {
          from {
            stroke: blue;
            stroke-dashoffset: 1003;
            stroke-width: 128;
          }
          77% {
            animation-timing-function: step-end;
            stroke: blue;
            stroke-dashoffset: 0;
            stroke-width: 128;
          }
          to {
            stroke: black;
            stroke-width: 1024;
          }
        }
        #make-me-a-hanzi-animation-1 {
          animation: keyframes1 1.0662434895833333s both;
          animation-delay: 0.9523111979166666s;
          animation-timing-function: linear;
        }
      
        @keyframes keyframes2 {
          from {
            stroke: blue;
            stroke-dashoffset: 1235;
            stroke-width: 128;
          }
          80% {
            animation-timing-function: step-end;
            stroke: blue;
            stroke-dashoffset: 0;
            stroke-width: 128;
          }
          to {
            stroke: black;
            stroke-width: 1024;
          }
        }
        #make-me-a-hanzi-animation-2 {
          animation: keyframes2 1.2550455729166667s both;
          animation-delay: 2.0185546875s;
          animation-timing-function: linear;
        }
      
        @keyframes keyframes3 {
          from {
            stroke: blue;
            stroke-dashoffset: 803;
            stroke-width: 128;
          }
          72% {
            animation-timing-function: step-end;
            stroke: blue;
            stroke-dashoffset: 0;
            stroke-width: 128;
          }
          to {
            stroke: black;
            stroke-width: 1024;
          }
        }
        #make-me-a-hanzi-animation-3 {
          animation: keyframes3 0.9034830729166666s both;
          animation-delay: 3.273600260416667s;
          animation-timing-function: linear;
        }
      
    </style>
    
      <path d="M 654 321 Q 694 432 736 462 Q 755 483 739 503 Q 720 519 662 548 Q 641 558 616 548 Q 558 526 505 511 L 452 498 Q 374 482 294 474 Q 275 473 277 461 Q 280 451 302 444 Q 332 431 373 445 L 450 460 L 501 470 Q 546 480 591 489 Q 619 496 630 484 Q 640 472 637 449 Q 618 371 593 311 C 582 283 644 293 654 321 Z" fill="lightgray"></path>
    
      <path d="M 483 257 Q 594 275 876 274 Q 898 274 903 284 Q 910 297 891 312 Q 833 357 768 341 L 654 321 L 593 311 Q 539 307 484 296 L 430 289 Q 297 274 154 256 Q 130 255 148 235 Q 164 220 183 214 Q 207 207 225 213 Q 316 238 423 251 L 483 257 Z" fill="lightgray"></path>
    
      <path d="M 505 511 Q 511 611 536 677 Q 545 693 533 705 Q 508 726 465 739 Q 438 746 428 740 Q 418 733 426 718 Q 451 678 453 625 Q 454 561 452 498 L 450 460 Q 438 331 430 289 L 423 251 Q 390 146 362 103 Q 289 12 147 -60 Q 134 -67 132 -72 Q 133 -76 146 -78 Q 167 -84 218 -66 Q 392 -15 461 191 Q 465 210 471 229 L 484 296 Q 490 336 494 379 Q 498 425 501 470 L 505 511 Z" fill="lightgray"></path>
    
      <path d="M 471 229 Q 562 94 680 -50 Q 701 -75 736 -75 Q 857 -76 895 -71 Q 905 -68 908 -63 Q 909 -57 893 -49 Q 737 12 678 59 Q 587 141 483 257 C 463 279 449 261 471 229 Z" fill="lightgray"></path>
    
    
      <clipPath id="make-me-a-hanzi-clip-0">
        <path d="M 654 321 Q 694 432 736 462 Q 755 483 739 503 Q 720 519 662 548 Q 641 558 616 548 Q 558 526 505 511 L 452 498 Q 374 482 294 474 Q 275 473 277 461 Q 280 451 302 444 Q 332 431 373 445 L 450 460 L 501 470 Q 546 480 591 489 Q 619 496 630 484 Q 640 472 637 449 Q 618 371 593 311 C 582 283 644 293 654 321 Z"></path>
      </clipPath>
      <path clip-path="url(#make-me-a-hanzi-clip-0)" d="M 288 462 L 360 461 L 504 490 L 603 517 L 632 520 L 655 512 L 681 486 L 682 474 L 634 345 L 600 315" fill="none" id="make-me-a-hanzi-animation-0" stroke-dasharray="735 1470" stroke-linecap="round"></path>
    
      <clipPath id="make-me-a-hanzi-clip-1">
        <path d="M 483 257 Q 594 275 876 274 Q 898 274 903 284 Q 910 297 891 312 Q 833 357 768 341 L 654 321 L 593 311 Q 539 307 484 296 L 430 289 Q 297 274 154 256 Q 130 255 148 235 Q 164 220 183 214 Q 207 207 225 213 Q 316 238 423 251 L 483 257 Z"></path>
      </clipPath>
      <path clip-path="url(#make-me-a-hanzi-clip-1)" d="M 150 246 L 206 236 L 511 282 L 795 310 L 855 303 L 889 291" fill="none" id="make-me-a-hanzi-animation-1" stroke-dasharray="875 1750" stroke-linecap="round"></path>
    
      <clipPath id="make-me-a-hanzi-clip-2">
        <path d="M 505 511 Q 511 611 536 677 Q 545 693 533 705 Q 508 726 465 739 Q 438 746 428 740 Q 418 733 426 718 Q 451 678 453 625 Q 454 561 452 498 L 450 460 Q 438 331 430 289 L 423 251 Q 390 146 362 103 Q 289 12 147 -60 Q 134 -67 132 -72 Q 133 -76 146 -78 Q 167 -84 218 -66 Q 392 -15 461 191 Q 465 210 471 229 L 484 296 Q 490 336 494 379 Q 498 425 501 470 L 505 511 Z"></path>
      </clipPath>
      <path clip-path="url(#make-me-a-hanzi-clip-2)" d="M 436 729 L 490 681 L 465 347 L 433 191 L 392 100 L 336 33 L 282 -10 L 233 -38 L 140 -74" fill="none" id="make-me-a-hanzi-animation-2" stroke-dasharray="1107 2214" stroke-linecap="round"></path>
    
      <clipPath id="make-me-a-hanzi-clip-3">
        <path d="M 471 229 Q 562 94 680 -50 Q 701 -75 736 -75 Q 857 -76 895 -71 Q 905 -68 908 -63 Q 909 -57 893 -49 Q 737 12 678 59 Q 587 141 483 257 C 463 279 449 261 471 229 Z"></path>
      </clipPath>
      <path clip-path="url(#make-me-a-hanzi-clip-3)" d="M 480 248 L 514 195 L 615 77 L 718 -22 L 791 -43 L 899 -63" fill="none" id="make-me-a-hanzi-animation-3" stroke-dasharray="675 1350" stroke-linecap="round"></path>
    
  </g>
</svg>