<svg version="1.1" viewBox="0 0 1024 1024" xmlns="http://www.w3.org/2000/svg">
  <g stroke="lightgray" stroke-dasharray="1,1" stroke-width="1" transform="scale(4, 4)">
    <line x1="0" y1="0" x2="256" y2="256"></line>
    <line x1="256" y1="0" x2="0" y2="256"></line>
    <line x1="128" y1="0" x2="128" y2="256"></line>
    <line x1="0" y1="128" x2="256" y2="128"></line>
  </g>
<g transform="scale(1, -1) translate(0, -860)">
   <style type="text/css">
    @keyframes keyframes0 {
      from {
       stroke: blue;
       stroke-dashoffset: 1021;
       stroke-width: 128;
       }
       77% {
       animation-timing-function: step-end;
       stroke: blue;
       stroke-dashoffset: 0;
       stroke-width: 128;
       }
       to {
       stroke: black;
       stroke-width: 1024;
       }
       }
       #make-me-a-hanzi-animation-0 {
         animation: keyframes0 1.080892s both;
         animation-delay: 0.000000s;
         animation-timing-function: linear;
       }
    @keyframes keyframes1 {
      from {
       stroke: blue;
       stroke-dashoffset: 851;
       stroke-width: 128;
       }
       73% {
       animation-timing-function: step-end;
       stroke: blue;
       stroke-dashoffset: 0;
       stroke-width: 128;
       }
       to {
       stroke: black;
       stroke-width: 1024;
       }
       }
       #make-me-a-hanzi-animation-1 {
         animation: keyframes1 0.942546s both;
         animation-delay: 1.080892s;
         animation-timing-function: linear;
       }
    @keyframes keyframes2 {
      from {
       stroke: blue;
       stroke-dashoffset: 615;
       stroke-width: 128;
       }
       67% {
       animation-timing-function: step-end;
       stroke: blue;
       stroke-dashoffset: 0;
       stroke-width: 128;
       }
       to {
       stroke: black;
       stroke-width: 1024;
       }
       }
       #make-me-a-hanzi-animation-2 {
         animation: keyframes2 0.750488s both;
         animation-delay: 2.023438s;
         animation-timing-function: linear;
       }
    @keyframes keyframes3 {
      from {
       stroke: blue;
       stroke-dashoffset: 829;
       stroke-width: 128;
       }
       73% {
       animation-timing-function: step-end;
       stroke: blue;
       stroke-dashoffset: 0;
       stroke-width: 128;
       }
       to {
       stroke: black;
       stroke-width: 1024;
       }
       }
       #make-me-a-hanzi-animation-3 {
         animation: keyframes3 0.924642s both;
         animation-delay: 2.773926s;
         animation-timing-function: linear;
       }
    @keyframes keyframes4 {
      from {
       stroke: blue;
       stroke-dashoffset: 416;
       stroke-width: 128;
       }
       58% {
       animation-timing-function: step-end;
       stroke: blue;
       stroke-dashoffset: 0;
       stroke-width: 128;
       }
       to {
       stroke: black;
       stroke-width: 1024;
       }
       }
       #make-me-a-hanzi-animation-4 {
         animation: keyframes4 0.588542s both;
         animation-delay: 3.698568s;
         animation-timing-function: linear;
       }
    @keyframes keyframes5 {
      from {
       stroke: blue;
       stroke-dashoffset: 460;
       stroke-width: 128;
       }
       60% {
       animation-timing-function: step-end;
       stroke: blue;
       stroke-dashoffset: 0;
       stroke-width: 128;
       }
       to {
       stroke: black;
       stroke-width: 1024;
       }
       }
       #make-me-a-hanzi-animation-5 {
         animation: keyframes5 0.624349s both;
         animation-delay: 4.287109s;
         animation-timing-function: linear;
       }
    @keyframes keyframes6 {
      from {
       stroke: blue;
       stroke-dashoffset: 962;
       stroke-width: 128;
       }
       76% {
       animation-timing-function: step-end;
       stroke: blue;
       stroke-dashoffset: 0;
       stroke-width: 128;
       }
       to {
       stroke: black;
       stroke-width: 1024;
       }
       }
       #make-me-a-hanzi-animation-6 {
         animation: keyframes6 1.032878s both;
         animation-delay: 4.911458s;
         animation-timing-function: linear;
       }
</style>
<path d="M 360.0 175.5 Q 426.0 109.5 435.0 106.5 Q 444.0 106.5 450.0 117.5 Q 457.0 127.5 453.0 158.5 Q 447.0 191.5 391.0 225.5 L 349.0 250.5 Q 322.0 266.5 288.0 284.5 Q 267.0 294.5 270.0 316.5 Q 283.0 359.5 297.0 401.5 L 308.0 439.5 Q 333.0 527.5 353.0 620.5 Q 362.0 668.5 380.0 693.5 Q 392.0 715.5 385.0 728.5 Q 370.0 746.5 324.0 772.5 Q 303.0 784.5 287.0 775.5 Q 274.0 768.5 284.0 752.5 Q 320.0 700.5 263.0 431.5 L 254.0 389.5 Q 244.0 349.5 226.0 315.5 Q 216.0 293.5 236.0 276.5 Q 285.0 245.5 325.0 207.5 L 360.0 175.5 Z" fill="lightgray"></path> 
<path d="M 325.0 207.5 Q 259.0 113.5 136.0 44.5 Q 123.0 35.5 134.0 32.5 Q 194.0 26.5 283.0 95.5 Q 332.0 129.5 359.0 172.5 Q 359.0 173.5 360.0 175.5 L 391.0 225.5 Q 416.0 270.5 430.0 324.5 Q 454.0 417.5 474.0 449.5 Q 484.0 467.5 469.0 477.5 Q 426.0 516.5 398.0 510.5 Q 385.0 506.5 389.0 491.5 Q 396.0 476.5 397.0 459.5 L 396.0 429.5 Q 395.0 413.5 391.0 395.5 Q 384.0 334.5 354.0 260.5 Q 351.0 256.5 349.0 250.5 L 325.0 207.5 Z" fill="lightgray"></path> 
<path d="M 397.0 459.5 Q 354.0 450.5 308.0 439.5 L 263.0 431.5 Q 193.0 418.5 113.0 403.5 Q 91.0 399.5 54.0 403.5 Q 41.0 403.5 39.0 394.5 Q 35.0 381.5 43.0 373.5 Q 62.0 355.5 92.0 334.5 Q 102.0 330.5 114.0 337.5 Q 174.0 370.5 254.0 389.5 L 297.0 401.5 Q 363.0 422.5 396.0 429.5 C 425.0 436.5 426.0 465.5 397.0 459.5 Z" fill="lightgray"></path> 
<path d="M 661.0 699.5 Q 668.0 600.5 657.0 400.5 Q 657.0 384.5 647.0 376.5 Q 644.0 376.5 577.0 384.5 Q 564.0 387.5 567.0 376.5 Q 568.0 369.5 587.0 352.5 Q 632.0 315.5 652.0 287.5 Q 665.0 275.5 676.0 281.5 Q 689.0 287.5 704.0 313.5 Q 713.0 331.5 713.0 441.5 Q 709.0 678.5 732.0 739.5 Q 739.0 758.5 722.0 769.5 Q 688.0 791.5 653.0 797.5 Q 637.0 798.5 630.0 789.5 Q 623.0 782.5 632.0 772.5 Q 657.0 741.5 661.0 699.5 Z" fill="lightgray"></path> 
<path d="M 536.0 538.5 Q 520.0 484.5 493.0 436.5 Q 475.0 406.5 496.0 375.5 Q 503.0 359.5 522.0 372.5 Q 567.0 411.5 564.0 487.5 Q 567.0 518.5 558.0 539.5 Q 554.0 546.5 547.0 547.5 Q 540.0 546.5 536.0 538.5 Z" fill="lightgray"></path> 
<path d="M 798.0 544.5 Q 856.0 510.5 929.0 457.5 Q 948.0 441.5 965.0 439.5 Q 974.0 439.5 980.0 451.5 Q 989.0 467.5 967.0 508.5 Q 943.0 559.5 792.0 575.5 Q 782.0 579.5 783.0 566.5 Q 784.0 553.5 798.0 544.5 Z" fill="lightgray"></path> 
<path d="M 772.0 416.5 Q 772.0 239.5 575.0 58.5 Q 571.0 57.5 568.0 52.5 Q 513.0 0.5 381.0 -86.5 Q 371.0 -93.5 378.0 -99.5 Q 387.0 -102.5 400.0 -98.5 Q 491.0 -68.5 569.0 -13.5 Q 707.0 74.5 815.0 294.5 Q 834.0 330.5 858.0 363.5 Q 868.0 373.5 863.0 386.5 Q 856.0 399.5 823.0 422.5 Q 798.0 438.5 787.0 437.5 Q 771.0 434.5 772.0 416.5 Z" fill="lightgray"></path> 
      <clipPath id="make-me-a-hanzi-clip-0">
      <path d="M 360.0 175.5 Q 426.0 109.5 435.0 106.5 Q 444.0 106.5 450.0 117.5 Q 457.0 127.5 453.0 158.5 Q 447.0 191.5 391.0 225.5 L 349.0 250.5 Q 322.0 266.5 288.0 284.5 Q 267.0 294.5 270.0 316.5 Q 283.0 359.5 297.0 401.5 L 308.0 439.5 Q 333.0 527.5 353.0 620.5 Q 362.0 668.5 380.0 693.5 Q 392.0 715.5 385.0 728.5 Q 370.0 746.5 324.0 772.5 Q 303.0 784.5 287.0 775.5 Q 274.0 768.5 284.0 752.5 Q 320.0 700.5 263.0 431.5 L 254.0 389.5 Q 244.0 349.5 226.0 315.5 Q 216.0 293.5 236.0 276.5 Q 285.0 245.5 325.0 207.5 L 360.0 175.5 Z" fill="lightgray"></path>
      </clipPath>
      <path clip-path="url(#make-me-a-hanzi-clip-0)" d="M 293.0 762.5 L 319.0 744.5 L 340.0 710.5 L 297.0 482.5 L 247.0 300.5 L 264.0 278.5 L 397.0 184.5 L 423.0 155.5 L 437.0 114.5 " fill="none" id="make-me-a-hanzi-animation-0" stroke-dasharray="893 1786" stroke-linecap="round"></path>

      <clipPath id="make-me-a-hanzi-clip-1">
      <path d="M 325.0 207.5 Q 259.0 113.5 136.0 44.5 Q 123.0 35.5 134.0 32.5 Q 194.0 26.5 283.0 95.5 Q 332.0 129.5 359.0 172.5 Q 359.0 173.5 360.0 175.5 L 391.0 225.5 Q 416.0 270.5 430.0 324.5 Q 454.0 417.5 474.0 449.5 Q 484.0 467.5 469.0 477.5 Q 426.0 516.5 398.0 510.5 Q 385.0 506.5 389.0 491.5 Q 396.0 476.5 397.0 459.5 L 396.0 429.5 Q 395.0 413.5 391.0 395.5 Q 384.0 334.5 354.0 260.5 Q 351.0 256.5 349.0 250.5 L 325.0 207.5 Z" fill="lightgray"></path>
      </clipPath>
      <path clip-path="url(#make-me-a-hanzi-clip-1)" d="M 401.0 497.5 L 419.0 482.5 L 435.0 457.5 L 403.0 323.5 L 367.0 231.5 L 319.0 158.5 L 263.0 105.5 L 195.0 60.5 L 140.0 37.5 " fill="none" id="make-me-a-hanzi-animation-1" stroke-dasharray="723 1446" stroke-linecap="round"></path>

      <clipPath id="make-me-a-hanzi-clip-2">
      <path d="M 397.0 459.5 Q 354.0 450.5 308.0 439.5 L 263.0 431.5 Q 193.0 418.5 113.0 403.5 Q 91.0 399.5 54.0 403.5 Q 41.0 403.5 39.0 394.5 Q 35.0 381.5 43.0 373.5 Q 62.0 355.5 92.0 334.5 Q 102.0 330.5 114.0 337.5 Q 174.0 370.5 254.0 389.5 L 297.0 401.5 Q 363.0 422.5 396.0 429.5 C 425.0 436.5 426.0 465.5 397.0 459.5 Z" fill="lightgray"></path>
      </clipPath>
      <path clip-path="url(#make-me-a-hanzi-clip-2)" d="M 51.0 390.5 L 101.0 368.5 L 382.0 441.5 L 391.0 452.5 " fill="none" id="make-me-a-hanzi-animation-2" stroke-dasharray="487 974" stroke-linecap="round"></path>

      <clipPath id="make-me-a-hanzi-clip-3">
      <path d="M 661.0 699.5 Q 668.0 600.5 657.0 400.5 Q 657.0 384.5 647.0 376.5 Q 644.0 376.5 577.0 384.5 Q 564.0 387.5 567.0 376.5 Q 568.0 369.5 587.0 352.5 Q 632.0 315.5 652.0 287.5 Q 665.0 275.5 676.0 281.5 Q 689.0 287.5 704.0 313.5 Q 713.0 331.5 713.0 441.5 Q 709.0 678.5 732.0 739.5 Q 739.0 758.5 722.0 769.5 Q 688.0 791.5 653.0 797.5 Q 637.0 798.5 630.0 789.5 Q 623.0 782.5 632.0 772.5 Q 657.0 741.5 661.0 699.5 Z" fill="lightgray"></path>
      </clipPath>
      <path clip-path="url(#make-me-a-hanzi-clip-3)" d="M 638.0 781.5 L 656.0 775.5 L 692.0 738.5 L 682.0 371.5 L 666.0 337.5 L 576.0 375.5 " fill="none" id="make-me-a-hanzi-animation-3" stroke-dasharray="701 1402" stroke-linecap="round"></path>

      <clipPath id="make-me-a-hanzi-clip-4">
      <path d="M 536.0 538.5 Q 520.0 484.5 493.0 436.5 Q 475.0 406.5 496.0 375.5 Q 503.0 359.5 522.0 372.5 Q 567.0 411.5 564.0 487.5 Q 567.0 518.5 558.0 539.5 Q 554.0 546.5 547.0 547.5 Q 540.0 546.5 536.0 538.5 Z" fill="lightgray"></path>
      </clipPath>
      <path clip-path="url(#make-me-a-hanzi-clip-4)" d="M 547.0 536.5 L 540.0 476.5 L 513.0 404.5 L 510.0 381.5 " fill="none" id="make-me-a-hanzi-animation-4" stroke-dasharray="288 576" stroke-linecap="round"></path>

      <clipPath id="make-me-a-hanzi-clip-5">
      <path d="M 798.0 544.5 Q 856.0 510.5 929.0 457.5 Q 948.0 441.5 965.0 439.5 Q 974.0 439.5 980.0 451.5 Q 989.0 467.5 967.0 508.5 Q 943.0 559.5 792.0 575.5 Q 782.0 579.5 783.0 566.5 Q 784.0 553.5 798.0 544.5 Z" fill="lightgray"></path>
      </clipPath>
      <path clip-path="url(#make-me-a-hanzi-clip-5)" d="M 795.0 563.5 L 915.0 510.5 L 944.0 485.5 L 963.0 456.5 " fill="none" id="make-me-a-hanzi-animation-5" stroke-dasharray="332 664" stroke-linecap="round"></path>

      <clipPath id="make-me-a-hanzi-clip-6">
      <path d="M 772.0 416.5 Q 772.0 239.5 575.0 58.5 Q 571.0 57.5 568.0 52.5 Q 513.0 0.5 381.0 -86.5 Q 371.0 -93.5 378.0 -99.5 Q 387.0 -102.5 400.0 -98.5 Q 491.0 -68.5 569.0 -13.5 Q 707.0 74.5 815.0 294.5 Q 834.0 330.5 858.0 363.5 Q 868.0 373.5 863.0 386.5 Q 856.0 399.5 823.0 422.5 Q 798.0 438.5 787.0 437.5 Q 771.0 434.5 772.0 416.5 Z" fill="lightgray"></path>
      </clipPath>
      <path clip-path="url(#make-me-a-hanzi-clip-6)" d="M 789.0 420.5 L 809.0 387.5 L 812.0 370.5 L 751.0 232.5 L 688.0 136.5 L 639.0 80.5 L 571.0 18.5 L 486.0 -40.5 L 384.0 -93.5 " fill="none" id="make-me-a-hanzi-animation-6" stroke-dasharray="834 1668" stroke-linecap="round"></path>

</g>
</svg>
