<svg version="1.1" viewBox="0 0 1024 1024" xmlns="http://www.w3.org/2000/svg">
  <g stroke="lightgray" stroke-dasharray="1,1" stroke-width="1" transform="scale(4, 4)">
    <line x1="0" y1="0" x2="256" y2="256"></line>
    <line x1="256" y1="0" x2="0" y2="256"></line>
    <line x1="128" y1="0" x2="128" y2="256"></line>
    <line x1="0" y1="128" x2="256" y2="128"></line>
  </g>
<g transform="scale(0.92, -0.92) translate(60, -900)">
   <style type="text/css">
    @keyframes keyframes0 {
      from {
       stroke: blue;
       stroke-dashoffset: 411;
       stroke-width: 128;
       }
       57% {
       animation-timing-function: step-end;
       stroke: blue;
       stroke-dashoffset: 0;
       stroke-width: 128;
       }
       to {
       stroke: black;
       stroke-width: 1024;
       }
       }
       #make-me-a-hanzi-animation-0 {
         animation: keyframes0 0.584473s both;
         animation-delay: 0.000000s;
         animation-timing-function: linear;
       }
    @keyframes keyframes1 {
      from {
       stroke: blue;
       stroke-dashoffset: 475;
       stroke-width: 128;
       }
       61% {
       animation-timing-function: step-end;
       stroke: blue;
       stroke-dashoffset: 0;
       stroke-width: 128;
       }
       to {
       stroke: black;
       stroke-width: 1024;
       }
       }
       #make-me-a-hanzi-animation-1 {
         animation: keyframes1 0.636556s both;
         animation-delay: 0.584473s;
         animation-timing-function: linear;
       }
    @keyframes keyframes2 {
      from {
       stroke: blue;
       stroke-dashoffset: 997;
       stroke-width: 128;
       }
       76% {
       animation-timing-function: step-end;
       stroke: blue;
       stroke-dashoffset: 0;
       stroke-width: 128;
       }
       to {
       stroke: black;
       stroke-width: 1024;
       }
       }
       #make-me-a-hanzi-animation-2 {
         animation: keyframes2 1.061361s both;
         animation-delay: 1.221029s;
         animation-timing-function: linear;
       }
    @keyframes keyframes3 {
      from {
       stroke: blue;
       stroke-dashoffset: 808;
       stroke-width: 128;
       }
       72% {
       animation-timing-function: step-end;
       stroke: blue;
       stroke-dashoffset: 0;
       stroke-width: 128;
       }
       to {
       stroke: black;
       stroke-width: 1024;
       }
       }
       #make-me-a-hanzi-animation-3 {
         animation: keyframes3 0.907552s both;
         animation-delay: 2.282389s;
         animation-timing-function: linear;
       }
    @keyframes keyframes4 {
      from {
       stroke: blue;
       stroke-dashoffset: 809;
       stroke-width: 128;
       }
       72% {
       animation-timing-function: step-end;
       stroke: blue;
       stroke-dashoffset: 0;
       stroke-width: 128;
       }
       to {
       stroke: black;
       stroke-width: 1024;
       }
       }
       #make-me-a-hanzi-animation-4 {
         animation: keyframes4 0.908366s both;
         animation-delay: 3.189941s;
         animation-timing-function: linear;
       }
</style>
<path d="M 455.5 809.5 Q 489.5 785.5 525.5 756.5 Q 540.5 744.5 556.5 746.5 Q 568.5 747.5 572.5 762.5 Q 575.5 778.5 563.5 808.5 Q 550.5 841.5 446.5 858.5 Q 430.5 861.5 423.5 857.5 Q 419.5 853.5 421.5 839.5 Q 425.5 829.5 455.5 809.5 Z" fill="lightgray"></path> 
<path d="M 247.5 649.5 Q 235.5 676.5 223.5 687.5 Q 204.5 703.5 201.5 676.5 Q 201.5 624.5 132.5 554.5 Q 111.5 532.5 136.5 472.5 Q 155.5 447.5 172.5 472.5 Q 193.5 499.5 209.5 541.5 Q 227.5 584.5 240.5 612.5 C 252.5 638.5 252.5 638.5 247.5 649.5 Z" fill="lightgray"></path> 
<path d="M 240.5 612.5 Q 267.5 599.5 315.5 611.5 Q 487.5 662.5 705.5 678.5 Q 744.5 682.5 759.5 679.5 Q 781.5 678.5 782.5 664.5 Q 782.5 660.5 734.5 581.5 Q 724.5 566.5 730.5 562.5 Q 739.5 558.5 757.5 569.5 Q 818.5 606.5 870.5 618.5 Q 912.5 628.5 911.5 639.5 Q 908.5 651.5 835.5 713.5 Q 811.5 737.5 743.5 724.5 Q 613.5 709.5 355.5 666.5 Q 301.5 657.5 247.5 649.5 C 217.5 645.5 211.5 620.5 240.5 612.5 Z" fill="lightgray"></path> 
<path d="M 512.5 415.5 Q 590.5 425.5 758.5 425.5 Q 777.5 426.5 783.5 434.5 Q 787.5 446.5 771.5 460.5 Q 717.5 497.5 681.5 489.5 Q 588.5 470.5 231.5 416.5 Q 210.5 415.5 226.5 397.5 Q 257.5 370.5 305.5 381.5 Q 375.5 400.5 454.5 408.5 L 512.5 415.5 Z" fill="lightgray"></path> 
<path d="M 454.5 408.5 Q 479.5 363.5 479.5 316.5 Q 489.5 70.5 466.5 52.5 Q 459.5 46.5 391.5 63.5 Q 369.5 70.5 370.5 60.5 Q 370.5 53.5 381.5 43.5 Q 450.5 -26.5 470.5 -66.5 Q 486.5 -85.5 503.5 -70.5 Q 545.5 -33.5 545.5 43.5 Q 536.5 106.5 536.5 292.5 Q 537.5 332.5 549.5 361.5 Q 559.5 380.5 540.5 395.5 Q 527.5 407.5 512.5 415.5 C 487.5 431.5 441.5 435.5 454.5 408.5 Z" fill="lightgray"></path> 
      <clipPath id="make-me-a-hanzi-clip-0">
      <path d="M 455.5 809.5 Q 489.5 785.5 525.5 756.5 Q 540.5 744.5 556.5 746.5 Q 568.5 747.5 572.5 762.5 Q 575.5 778.5 563.5 808.5 Q 550.5 841.5 446.5 858.5 Q 430.5 861.5 423.5 857.5 Q 419.5 853.5 421.5 839.5 Q 425.5 829.5 455.5 809.5 Z" fill="lightgray"></path>
      </clipPath>
      <path clip-path="url(#make-me-a-hanzi-clip-0)" d="M 429.5 851.5 L 519.5 804.5 L 554.5 764.5 " fill="none" id="make-me-a-hanzi-animation-0" stroke-dasharray="283 566" stroke-linecap="round"></path>

      <clipPath id="make-me-a-hanzi-clip-1">
      <path d="M 247.5 649.5 Q 235.5 676.5 223.5 687.5 Q 204.5 703.5 201.5 676.5 Q 201.5 624.5 132.5 554.5 Q 111.5 532.5 136.5 472.5 Q 155.5 447.5 172.5 472.5 Q 193.5 499.5 209.5 541.5 Q 227.5 584.5 240.5 612.5 C 252.5 638.5 252.5 638.5 247.5 649.5 Z" fill="lightgray"></path>
      </clipPath>
      <path clip-path="url(#make-me-a-hanzi-clip-1)" d="M 212.5 681.5 L 220.5 662.5 L 219.5 635.5 L 161.5 527.5 L 154.5 479.5 " fill="none" id="make-me-a-hanzi-animation-1" stroke-dasharray="347 694" stroke-linecap="round"></path>

      <clipPath id="make-me-a-hanzi-clip-2">
      <path d="M 240.5 612.5 Q 267.5 599.5 315.5 611.5 Q 487.5 662.5 705.5 678.5 Q 744.5 682.5 759.5 679.5 Q 781.5 678.5 782.5 664.5 Q 782.5 660.5 734.5 581.5 Q 724.5 566.5 730.5 562.5 Q 739.5 558.5 757.5 569.5 Q 818.5 606.5 870.5 618.5 Q 912.5 628.5 911.5 639.5 Q 908.5 651.5 835.5 713.5 Q 811.5 737.5 743.5 724.5 Q 613.5 709.5 355.5 666.5 Q 301.5 657.5 247.5 649.5 C 217.5 645.5 211.5 620.5 240.5 612.5 Z" fill="lightgray"></path>
      </clipPath>
      <path clip-path="url(#make-me-a-hanzi-clip-2)" d="M 248.5 617.5 L 266.5 629.5 L 552.5 681.5 L 757.5 704.5 L 801.5 695.5 L 820.5 676.5 L 829.5 656.5 L 736.5 567.5 " fill="none" id="make-me-a-hanzi-animation-2" stroke-dasharray="869 1738" stroke-linecap="round"></path>

      <clipPath id="make-me-a-hanzi-clip-3">
      <path d="M 512.5 415.5 Q 590.5 425.5 758.5 425.5 Q 777.5 426.5 783.5 434.5 Q 787.5 446.5 771.5 460.5 Q 717.5 497.5 681.5 489.5 Q 588.5 470.5 231.5 416.5 Q 210.5 415.5 226.5 397.5 Q 257.5 370.5 305.5 381.5 Q 375.5 400.5 454.5 408.5 L 512.5 415.5 Z" fill="lightgray"></path>
      </clipPath>
      <path clip-path="url(#make-me-a-hanzi-clip-3)" d="M 228.5 407.5 L 281.5 400.5 L 420.5 426.5 L 698.5 458.5 L 773.5 439.5 " fill="none" id="make-me-a-hanzi-animation-3" stroke-dasharray="680 1360" stroke-linecap="round"></path>

      <clipPath id="make-me-a-hanzi-clip-4">
      <path d="M 454.5 408.5 Q 479.5 363.5 479.5 316.5 Q 489.5 70.5 466.5 52.5 Q 459.5 46.5 391.5 63.5 Q 369.5 70.5 370.5 60.5 Q 370.5 53.5 381.5 43.5 Q 450.5 -26.5 470.5 -66.5 Q 486.5 -85.5 503.5 -70.5 Q 545.5 -33.5 545.5 43.5 Q 536.5 106.5 536.5 292.5 Q 537.5 332.5 549.5 361.5 Q 559.5 380.5 540.5 395.5 Q 527.5 407.5 512.5 415.5 C 487.5 431.5 441.5 435.5 454.5 408.5 Z" fill="lightgray"></path>
      </clipPath>
      <path clip-path="url(#make-me-a-hanzi-clip-4)" d="M 462.5 403.5 L 493.5 387.5 L 511.5 368.5 L 505.5 35.5 L 487.5 3.5 L 378.5 58.5 " fill="none" id="make-me-a-hanzi-animation-4" stroke-dasharray="681 1362" stroke-linecap="round"></path>

</g>
</svg>
