<svg version="1.1" viewBox="0 0 1024 1024" xmlns="http://www.w3.org/2000/svg">
  <g stroke="lightgray" stroke-dasharray="1,1" stroke-width="1" transform="scale(4, 4)">
    <line x1="0" y1="0" x2="256" y2="256"></line>
    <line x1="256" y1="0" x2="0" y2="256"></line>
    <line x1="128" y1="0" x2="128" y2="256"></line>
    <line x1="0" y1="128" x2="256" y2="128"></line>
  </g>
<g transform="scale(0.92, -0.92) translate(60, -900)">
   <style type="text/css">
    @keyframes keyframes0 {
      from {
       stroke: blue;
       stroke-dashoffset: 404;
       stroke-width: 128;
       }
       57% {
       animation-timing-function: step-end;
       stroke: blue;
       stroke-dashoffset: 0;
       stroke-width: 128;
       }
       to {
       stroke: black;
       stroke-width: 1024;
       }
       }
       #make-me-a-hanzi-animation-0 {
         animation: keyframes0 0.578776s both;
         animation-delay: 0.000000s;
         animation-timing-function: linear;
       }
    @keyframes keyframes1 {
      from {
       stroke: blue;
       stroke-dashoffset: 451;
       stroke-width: 128;
       }
       59% {
       animation-timing-function: step-end;
       stroke: blue;
       stroke-dashoffset: 0;
       stroke-width: 128;
       }
       to {
       stroke: black;
       stroke-width: 1024;
       }
       }
       #make-me-a-hanzi-animation-1 {
         animation: keyframes1 0.617025s both;
         animation-delay: 0.578776s;
         animation-timing-function: linear;
       }
    @keyframes keyframes2 {
      from {
       stroke: blue;
       stroke-dashoffset: 1004;
       stroke-width: 128;
       }
       77% {
       animation-timing-function: step-end;
       stroke: blue;
       stroke-dashoffset: 0;
       stroke-width: 128;
       }
       to {
       stroke: black;
       stroke-width: 1024;
       }
       }
       #make-me-a-hanzi-animation-2 {
         animation: keyframes2 1.067057s both;
         animation-delay: 1.195801s;
         animation-timing-function: linear;
       }
    @keyframes keyframes3 {
      from {
       stroke: blue;
       stroke-dashoffset: 603;
       stroke-width: 128;
       }
       66% {
       animation-timing-function: step-end;
       stroke: blue;
       stroke-dashoffset: 0;
       stroke-width: 128;
       }
       to {
       stroke: black;
       stroke-width: 1024;
       }
       }
       #make-me-a-hanzi-animation-3 {
         animation: keyframes3 0.740723s both;
         animation-delay: 2.262858s;
         animation-timing-function: linear;
       }
    @keyframes keyframes4 {
      from {
       stroke: blue;
       stroke-dashoffset: 931;
       stroke-width: 128;
       }
       75% {
       animation-timing-function: step-end;
       stroke: blue;
       stroke-dashoffset: 0;
       stroke-width: 128;
       }
       to {
       stroke: black;
       stroke-width: 1024;
       }
       }
       #make-me-a-hanzi-animation-4 {
         animation: keyframes4 1.007650s both;
         animation-delay: 3.003581s;
         animation-timing-function: linear;
       }
    @keyframes keyframes5 {
      from {
       stroke: blue;
       stroke-dashoffset: 858;
       stroke-width: 128;
       }
       74% {
       animation-timing-function: step-end;
       stroke: blue;
       stroke-dashoffset: 0;
       stroke-width: 128;
       }
       to {
       stroke: black;
       stroke-width: 1024;
       }
       }
       #make-me-a-hanzi-animation-5 {
         animation: keyframes5 0.948242s both;
         animation-delay: 4.011230s;
         animation-timing-function: linear;
       }
</style>
<path d="M 537.5 698.5 L 547.5 717.5 Q 552.5 732.5 551.5 743.5 Q 551.5 792.5 473.5 821.5 Q 452.5 830.5 440.5 829.5 Q 428.5 828.5 427.5 824.5 Q 424.5 822.5 430.5 807.5 L 448.5 766.5 Q 451.5 758.5 471.5 727.5 Q 483.5 711.5 501.5 695.5 C 523.5 675.5 524.5 674.5 537.5 698.5 Z" fill="lightgray"></path> 
<path d="M 229.5 676.5 L 221.5 702.5 Q 220.5 707.5 211.5 717.5 Q 202.5 727.5 194.5 715.5 L 172.5 648.5 Q 168.5 634.5 157.5 613.5 L 139.5 578.5 Q 131.5 561.5 131.5 554.5 Q 126.5 502.5 159.5 502.5 Q 169.5 501.5 182.5 512.5 Q 213.5 544.5 229.5 635.5 L 229.5 676.5 Z" fill="lightgray"></path> 
<path d="M 278.5 678.5 L 229.5 676.5 C 199.5 675.5 199.5 638.5 229.5 635.5 L 248.5 633.5 Q 277.5 631.5 291.5 635.5 Q 301.5 635.5 307.5 637.5 L 504.5 663.5 Q 576.5 671.5 593.5 672.5 L 690.5 680.5 Q 768.5 686.5 771.5 678.5 Q 772.5 671.5 768.5 660.5 Q 764.5 648.5 756.5 640.5 L 719.5 589.5 Q 712.5 577.5 713.5 574.5 Q 715.5 570.5 735.5 578.5 L 771.5 592.5 Q 837.5 614.5 857.5 617.5 Q 877.5 619.5 883.5 621.5 Q 889.5 623.5 895.5 630.5 Q 897.5 637.5 896.5 639.5 Q 896.5 656.5 860.5 689.5 Q 831.5 718.5 820.5 722.5 Q 804.5 731.5 795.5 733.5 Q 786.5 734.5 765.5 728.5 Q 744.5 722.5 715.5 720.5 L 537.5 698.5 L 501.5 695.5 L 278.5 678.5 Z" fill="lightgray"></path> 
<path d="M 513.5 491.5 L 626.5 504.5 L 653.5 509.5 Q 668.5 513.5 668.5 522.5 L 665.5 531.5 Q 654.5 542.5 648.5 545.5 Q 642.5 548.5 624.5 552.5 Q 606.5 556.5 599.5 556.5 L 499.5 537.5 L 417.5 525.5 L 325.5 514.5 Q 308.5 512.5 306.5 509.5 Q 305.5 506.5 309.5 498.5 Q 314.5 490.5 333.5 484.5 Q 353.5 477.5 387.5 480.5 L 453.5 485.5 L 513.5 491.5 Z" fill="lightgray"></path> 
<path d="M 473.5 346.5 L 401.5 338.5 L 300.5 329.5 Q 237.5 322.5 219.5 322.5 L 181.5 319.5 Q 150.5 317.5 149.5 307.5 Q 147.5 301.5 157.5 294.5 Q 200.5 258.5 246.5 269.5 L 305.5 282.5 Q 353.5 293.5 373.5 296.5 L 475.5 310.5 L 534.5 312.5 L 622.5 316.5 L 757.5 316.5 L 813.5 318.5 Q 835.5 318.5 839.5 325.5 Q 841.5 332.5 841.5 337.5 Q 841.5 342.5 827.5 354.5 Q 794.5 377.5 756.5 379.5 Q 740.5 381.5 707.5 374.5 L 675.5 367.5 L 534.5 352.5 L 473.5 346.5 Z" fill="lightgray"></path> 
<path d="M 462.5 463.5 L 471.5 413.5 L 473.5 346.5 L 475.5 310.5 L 471.5 180.5 L 467.5 102.5 Q 462.5 58.5 452.5 52.5 Q 442.5 48.5 425.5 54.5 L 384.5 66.5 Q 372.5 69.5 371.5 64.5 Q 370.5 59.5 375.5 55.5 L 403.5 29.5 L 448.5 -29.5 Q 464.5 -50.5 473.5 -52.5 Q 478.5 -54.5 487.5 -48.5 Q 496.5 -42.5 509.5 -15.5 Q 522.5 10.5 525.5 26.5 Q 529.5 42.5 530.5 69.5 L 532.5 127.5 L 534.5 312.5 L 534.5 352.5 L 532.5 405.5 L 534.5 429.5 Q 535.5 437.5 535.5 448.5 Q 538.5 464.5 536.5 469.5 Q 535.5 474.5 521.5 484.5 L 513.5 491.5 C 490.5 510.5 442.5 513.5 453.5 485.5 L 462.5 463.5 Z" fill="lightgray"></path> 
      <clipPath id="make-me-a-hanzi-clip-0">
      <path d="M 537.5 698.5 L 547.5 717.5 Q 552.5 732.5 551.5 743.5 Q 551.5 792.5 473.5 821.5 Q 452.5 830.5 440.5 829.5 Q 428.5 828.5 427.5 824.5 Q 424.5 822.5 430.5 807.5 L 448.5 766.5 Q 451.5 758.5 471.5 727.5 Q 483.5 711.5 501.5 695.5 C 523.5 675.5 524.5 674.5 537.5 698.5 Z" fill="lightgray"></path>
      </clipPath>
      <path clip-path="url(#make-me-a-hanzi-clip-0)" d="M 436.5 820.5 L 506.5 752.5 L 530.5 708.5 " fill="none" id="make-me-a-hanzi-animation-0" stroke-dasharray="276 552" stroke-linecap="round"></path>

      <clipPath id="make-me-a-hanzi-clip-1">
      <path d="M 229.5 676.5 L 221.5 702.5 Q 220.5 707.5 211.5 717.5 Q 202.5 727.5 194.5 715.5 L 172.5 648.5 Q 168.5 634.5 157.5 613.5 L 139.5 578.5 Q 131.5 561.5 131.5 554.5 Q 126.5 502.5 159.5 502.5 Q 169.5 501.5 182.5 512.5 Q 213.5 544.5 229.5 635.5 L 229.5 676.5 Z" fill="lightgray"></path>
      </clipPath>
      <path clip-path="url(#make-me-a-hanzi-clip-1)" d="M 203.5 712.5 L 205.5 669.5 L 199.5 631.5 L 157.5 526.5 " fill="none" id="make-me-a-hanzi-animation-1" stroke-dasharray="323 646" stroke-linecap="round"></path>

      <clipPath id="make-me-a-hanzi-clip-2">
      <path d="M 278.5 678.5 L 229.5 676.5 C 199.5 675.5 199.5 638.5 229.5 635.5 L 248.5 633.5 Q 277.5 631.5 291.5 635.5 Q 301.5 635.5 307.5 637.5 L 504.5 663.5 Q 576.5 671.5 593.5 672.5 L 690.5 680.5 Q 768.5 686.5 771.5 678.5 Q 772.5 671.5 768.5 660.5 Q 764.5 648.5 756.5 640.5 L 719.5 589.5 Q 712.5 577.5 713.5 574.5 Q 715.5 570.5 735.5 578.5 L 771.5 592.5 Q 837.5 614.5 857.5 617.5 Q 877.5 619.5 883.5 621.5 Q 889.5 623.5 895.5 630.5 Q 897.5 637.5 896.5 639.5 Q 896.5 656.5 860.5 689.5 Q 831.5 718.5 820.5 722.5 Q 804.5 731.5 795.5 733.5 Q 786.5 734.5 765.5 728.5 Q 744.5 722.5 715.5 720.5 L 537.5 698.5 L 501.5 695.5 L 278.5 678.5 Z" fill="lightgray"></path>
      </clipPath>
      <path clip-path="url(#make-me-a-hanzi-clip-2)" d="M 235.5 669.5 L 250.5 655.5 L 273.5 655.5 L 710.5 701.5 L 791.5 702.5 L 808.5 685.5 L 819.5 658.5 L 717.5 576.5 " fill="none" id="make-me-a-hanzi-animation-2" stroke-dasharray="876 1752" stroke-linecap="round"></path>

      <clipPath id="make-me-a-hanzi-clip-3">
      <path d="M 513.5 491.5 L 626.5 504.5 L 653.5 509.5 Q 668.5 513.5 668.5 522.5 L 665.5 531.5 Q 654.5 542.5 648.5 545.5 Q 642.5 548.5 624.5 552.5 Q 606.5 556.5 599.5 556.5 L 499.5 537.5 L 417.5 525.5 L 325.5 514.5 Q 308.5 512.5 306.5 509.5 Q 305.5 506.5 309.5 498.5 Q 314.5 490.5 333.5 484.5 Q 353.5 477.5 387.5 480.5 L 453.5 485.5 L 513.5 491.5 Z" fill="lightgray"></path>
      </clipPath>
      <path clip-path="url(#make-me-a-hanzi-clip-3)" d="M 312.5 505.5 L 330.5 499.5 L 378.5 499.5 L 597.5 528.5 L 656.5 523.5 " fill="none" id="make-me-a-hanzi-animation-3" stroke-dasharray="475 950" stroke-linecap="round"></path>

      <clipPath id="make-me-a-hanzi-clip-4">
      <path d="M 473.5 346.5 L 401.5 338.5 L 300.5 329.5 Q 237.5 322.5 219.5 322.5 L 181.5 319.5 Q 150.5 317.5 149.5 307.5 Q 147.5 301.5 157.5 294.5 Q 200.5 258.5 246.5 269.5 L 305.5 282.5 Q 353.5 293.5 373.5 296.5 L 475.5 310.5 L 534.5 312.5 L 622.5 316.5 L 757.5 316.5 L 813.5 318.5 Q 835.5 318.5 839.5 325.5 Q 841.5 332.5 841.5 337.5 Q 841.5 342.5 827.5 354.5 Q 794.5 377.5 756.5 379.5 Q 740.5 381.5 707.5 374.5 L 675.5 367.5 L 534.5 352.5 L 473.5 346.5 Z" fill="lightgray"></path>
      </clipPath>
      <path clip-path="url(#make-me-a-hanzi-clip-4)" d="M 159.5 304.5 L 223.5 294.5 L 451.5 325.5 L 743.5 348.5 L 784.5 346.5 L 828.5 333.5 " fill="none" id="make-me-a-hanzi-animation-4" stroke-dasharray="803 1606" stroke-linecap="round"></path>

      <clipPath id="make-me-a-hanzi-clip-5">
      <path d="M 462.5 463.5 L 471.5 413.5 L 473.5 346.5 L 475.5 310.5 L 471.5 180.5 L 467.5 102.5 Q 462.5 58.5 452.5 52.5 Q 442.5 48.5 425.5 54.5 L 384.5 66.5 Q 372.5 69.5 371.5 64.5 Q 370.5 59.5 375.5 55.5 L 403.5 29.5 L 448.5 -29.5 Q 464.5 -50.5 473.5 -52.5 Q 478.5 -54.5 487.5 -48.5 Q 496.5 -42.5 509.5 -15.5 Q 522.5 10.5 525.5 26.5 Q 529.5 42.5 530.5 69.5 L 532.5 127.5 L 534.5 312.5 L 534.5 352.5 L 532.5 405.5 L 534.5 429.5 Q 535.5 437.5 535.5 448.5 Q 538.5 464.5 536.5 469.5 Q 535.5 474.5 521.5 484.5 L 513.5 491.5 C 490.5 510.5 442.5 513.5 453.5 485.5 L 462.5 463.5 Z" fill="lightgray"></path>
      </clipPath>
      <path clip-path="url(#make-me-a-hanzi-clip-5)" d="M 461.5 482.5 L 493.5 459.5 L 501.5 444.5 L 504.5 258.5 L 495.5 63.5 L 490.5 39.5 L 473.5 12.5 L 436.5 26.5 L 378.5 62.5 " fill="none" id="make-me-a-hanzi-animation-5" stroke-dasharray="730 1460" stroke-linecap="round"></path>

</g>
</svg>
