<svg version="1.1" viewBox="0 0 1024 1024" xmlns="http://www.w3.org/2000/svg">
  <g stroke="lightgray" stroke-dasharray="1,1" stroke-width="1" transform="scale(4, 4)">
    <line x1="0" y1="0" x2="256" y2="256"></line>
    <line x1="256" y1="0" x2="0" y2="256"></line>
    <line x1="128" y1="0" x2="128" y2="256"></line>
    <line x1="0" y1="128" x2="256" y2="128"></line>
  </g>
  <g transform="scale(0.92, -0.92) translate(60, -850)">
    <style type="text/css">
      
        @keyframes keyframes0 {
          from {
            stroke: blue;
            stroke-dashoffset: 735;
            stroke-width: 128;
          }
          71% {
            animation-timing-function: step-end;
            stroke: blue;
            stroke-dashoffset: 0;
            stroke-width: 128;
          }
          to {
            stroke: black;
            stroke-width: 1024;
          }
        }
        #make-me-a-hanzi-animation-0 {
          animation: keyframes0 0.84814453125s both;
          animation-delay: 0s;
          animation-timing-function: linear;
        }
      
        @keyframes keyframes1 {
          from {
            stroke: blue;
            stroke-dashoffset: 616;
            stroke-width: 128;
          }
          67% {
            animation-timing-function: step-end;
            stroke: blue;
            stroke-dashoffset: 0;
            stroke-width: 128;
          }
          to {
            stroke: black;
            stroke-width: 1024;
          }
        }
        #make-me-a-hanzi-animation-1 {
          animation: keyframes1 0.7513020833333334s both;
          animation-delay: 0.84814453125s;
          animation-timing-function: linear;
        }
      
        @keyframes keyframes2 {
          from {
            stroke: blue;
            stroke-dashoffset: 1022;
            stroke-width: 128;
          }
          77% {
            animation-timing-function: step-end;
            stroke: blue;
            stroke-dashoffset: 0;
            stroke-width: 128;
          }
          to {
            stroke: black;
            stroke-width: 1024;
          }
        }
        #make-me-a-hanzi-animation-2 {
          animation: keyframes2 1.0817057291666667s both;
          animation-delay: 1.5994466145833335s;
          animation-timing-function: linear;
        }
      
        @keyframes keyframes3 {
          from {
            stroke: blue;
            stroke-dashoffset: 836;
            stroke-width: 128;
          }
          73% {
            animation-timing-function: step-end;
            stroke: blue;
            stroke-dashoffset: 0;
            stroke-width: 128;
          }
          to {
            stroke: black;
            stroke-width: 1024;
          }
        }
        #make-me-a-hanzi-animation-3 {
          animation: keyframes3 0.9303385416666666s both;
          animation-delay: 2.68115234375s;
          animation-timing-function: linear;
        }
      
        @keyframes keyframes4 {
          from {
            stroke: blue;
            stroke-dashoffset: 573;
            stroke-width: 128;
          }
          65% {
            animation-timing-function: step-end;
            stroke: blue;
            stroke-dashoffset: 0;
            stroke-width: 128;
          }
          to {
            stroke: black;
            stroke-width: 1024;
          }
        }
        #make-me-a-hanzi-animation-4 {
          animation: keyframes4 0.71630859375s both;
          animation-delay: 3.6114908854166665s;
          animation-timing-function: linear;
        }
      
        @keyframes keyframes5 {
          from {
            stroke: blue;
            stroke-dashoffset: 505;
            stroke-width: 128;
          }
          62% {
            animation-timing-function: step-end;
            stroke: blue;
            stroke-dashoffset: 0;
            stroke-width: 128;
          }
          to {
            stroke: black;
            stroke-width: 1024;
          }
        }
        #make-me-a-hanzi-animation-5 {
          animation: keyframes5 0.6609700520833334s both;
          animation-delay: 4.327799479166666s;
          animation-timing-function: linear;
        }
      
        @keyframes keyframes6 {
          from {
            stroke: blue;
            stroke-dashoffset: 737;
            stroke-width: 128;
          }
          71% {
            animation-timing-function: step-end;
            stroke: blue;
            stroke-dashoffset: 0;
            stroke-width: 128;
          }
          to {
            stroke: black;
            stroke-width: 1024;
          }
        }
        #make-me-a-hanzi-animation-6 {
          animation: keyframes6 0.8497721354166666s both;
          animation-delay: 4.988769531249999s;
          animation-timing-function: linear;
        }
      
        @keyframes keyframes7 {
          from {
            stroke: blue;
            stroke-dashoffset: 556;
            stroke-width: 128;
          }
          64% {
            animation-timing-function: step-end;
            stroke: blue;
            stroke-dashoffset: 0;
            stroke-width: 128;
          }
          to {
            stroke: black;
            stroke-width: 1024;
          }
        }
        #make-me-a-hanzi-animation-7 {
          animation: keyframes7 0.7024739583333334s both;
          animation-delay: 5.838541666666666s;
          animation-timing-function: linear;
        }
      
    </style>
    
      <path d="M 739 502 L 759 550 Q 776 587 779 598 L 793 618 Q 814 639 782 660 Q 751 673 751 674 Q 727 683 718 685 Q 709 687 687 679 Q 665 671 648 669 L 477 641 Q 471 639 414 631 C 384 627 385 597 415 602 L 484 613 L 639 634 Q 663 640 683 638 Q 704 639 706 622 Q 707 614 699 580 L 680 510 C 672 481 727 474 739 502 Z" fill="lightgray"></path>
    
      <path d="M 388 438 L 403 436 Q 411 434 429 437 L 617 460 Q 690 468 703 468 L 751 469 Q 760 469 762 477 Q 764 485 755 492 L 739 502 C 716 517 710 515 680 510 L 581 492 Q 441 471 392 469 C 362 467 358 442 388 438 Z" fill="lightgray"></path>
    
      <path d="M 368 644 L 343 646 Q 330 646 325 642 Q 322 638 325 626 L 336 602 Q 349 545 327 428 Q 301 234 168 61 Q 133 17 111 -4 L 99 -17 Q 93 -21 94 -27 Q 95 -34 101 -28 L 125 -14 Q 148 -1 180 24 Q 230 70 272 129 Q 307 180 337 250 L 346 272 L 357 310 Q 375 371 388 438 L 392 469 L 415 602 C 420 629 420 629 414 631 L 391 639 Q 385 641 368 644 Z" fill="lightgray"></path>
    
      <path d="M 337 250 L 359 238 Q 367 232 387 230 L 449 242 L 569 256 L 637 262 L 777 272 L 909 278 Q 925 278 926 281 Q 927 284 927 290 Q 927 296 902 313 Q 877 329 850 329 L 826 325 Q 808 320 767 316 L 723 310 L 646 303 L 573 295 L 346 272 C 316 269 311 264 337 250 Z" fill="lightgray"></path>
    
      <path d="M 569 256 L 549 124 C 545 94 599 103 606 132 L 637 262 L 646 303 L 649 320 L 655 340 Q 659 354 666 366 Q 673 377 673 382 Q 674 386 669 394 Q 661 403 651 410 L 624 424 Q 594 440 577 431 Q 567 423 574 403 Q 581 383 579 357 L 573 295 L 569 256 Z" fill="lightgray"></path>
    
      <path d="M 446 112 L 423 120 L 397 126 Q 386 126 382 122 Q 378 118 379 115 Q 380 112 387 102 Q 403 86 407 65 Q 411 55 414 28 L 429 -80 Q 437 -132 459 -126 Q 467 -125 470 -106 L 473 -95 L 471 -56 L 459 84 C 457 108 457 108 446 112 Z" fill="lightgray"></path>
    
      <path d="M 549 124 L 446 112 C 416 109 429 80 459 84 L 631 107 Q 712 117 719 112 Q 726 106 726 97 Q 729 86 723 64 L 701 -34 C 694 -63 749 -74 759 -46 L 786 29 L 801 66 Q 801 71 814 84 Q 828 97 828 106 Q 826 119 802 133 Q 779 146 769 154 Q 760 161 745 161 L 733 158 Q 701 150 683 147 L 606 132 L 549 124 Z" fill="lightgray"></path>
    
      <path d="M 473 -95 L 733 -78 L 768 -80 Q 781 -79 783 -72 Q 785 -65 778 -58 L 759 -46 C 735 -31 731 -31 701 -34 L 471 -56 C 441 -59 443 -97 473 -95 Z" fill="lightgray"></path>
    
    
      <clipPath id="make-me-a-hanzi-clip-0">
        <path d="M 739 502 L 759 550 Q 776 587 779 598 L 793 618 Q 814 639 782 660 Q 751 673 751 674 Q 727 683 718 685 Q 709 687 687 679 Q 665 671 648 669 L 477 641 Q 471 639 414 631 C 384 627 385 597 415 602 L 484 613 L 639 634 Q 663 640 683 638 Q 704 639 706 622 Q 707 614 699 580 L 680 510 C 672 481 727 474 739 502 Z"></path>
      </clipPath>
      <path clip-path="url(#make-me-a-hanzi-clip-0)" d="M 421 609 L 433 620 L 715 658 L 748 627 L 719 536 L 688 515" fill="none" id="make-me-a-hanzi-animation-0" stroke-dasharray="607 1214" stroke-linecap="round"></path>
    
      <clipPath id="make-me-a-hanzi-clip-1">
        <path d="M 388 438 L 403 436 Q 411 434 429 437 L 617 460 Q 690 468 703 468 L 751 469 Q 760 469 762 477 Q 764 485 755 492 L 739 502 C 716 517 710 515 680 510 L 581 492 Q 441 471 392 469 C 362 467 358 442 388 438 Z"></path>
      </clipPath>
      <path clip-path="url(#make-me-a-hanzi-clip-1)" d="M 397 445 L 408 453 L 685 489 L 751 480" fill="none" id="make-me-a-hanzi-animation-1" stroke-dasharray="488 976" stroke-linecap="round"></path>
    
      <clipPath id="make-me-a-hanzi-clip-2">
        <path d="M 368 644 L 343 646 Q 330 646 325 642 Q 322 638 325 626 L 336 602 Q 349 545 327 428 Q 301 234 168 61 Q 133 17 111 -4 L 99 -17 Q 93 -21 94 -27 Q 95 -34 101 -28 L 125 -14 Q 148 -1 180 24 Q 230 70 272 129 Q 307 180 337 250 L 346 272 L 357 310 Q 375 371 388 438 L 392 469 L 415 602 C 420 629 420 629 414 631 L 391 639 Q 385 641 368 644 Z"></path>
      </clipPath>
      <path clip-path="url(#make-me-a-hanzi-clip-2)" d="M 331 637 L 369 610 L 376 601 L 376 586 L 356 422 L 322 286 L 290 210 L 240 123 L 174 41 L 98 -23" fill="none" id="make-me-a-hanzi-animation-2" stroke-dasharray="894 1788" stroke-linecap="round"></path>
    
      <clipPath id="make-me-a-hanzi-clip-3">
        <path d="M 337 250 L 359 238 Q 367 232 387 230 L 449 242 L 569 256 L 637 262 L 777 272 L 909 278 Q 925 278 926 281 Q 927 284 927 290 Q 927 296 902 313 Q 877 329 850 329 L 826 325 Q 808 320 767 316 L 723 310 L 646 303 L 573 295 L 346 272 C 316 269 311 264 337 250 Z"></path>
      </clipPath>
      <path clip-path="url(#make-me-a-hanzi-clip-3)" d="M 346 253 L 391 253 L 537 273 L 848 302 L 899 295 L 921 286" fill="none" id="make-me-a-hanzi-animation-3" stroke-dasharray="708 1416" stroke-linecap="round"></path>
    
      <clipPath id="make-me-a-hanzi-clip-4">
        <path d="M 569 256 L 549 124 C 545 94 599 103 606 132 L 637 262 L 646 303 L 649 320 L 655 340 Q 659 354 666 366 Q 673 377 673 382 Q 674 386 669 394 Q 661 403 651 410 L 624 424 Q 594 440 577 431 Q 567 423 574 403 Q 581 383 579 357 L 573 295 L 569 256 Z"></path>
      </clipPath>
      <path clip-path="url(#make-me-a-hanzi-clip-4)" d="M 587 419 L 623 376 L 584 160 L 555 131" fill="none" id="make-me-a-hanzi-animation-4" stroke-dasharray="445 890" stroke-linecap="round"></path>
    
      <clipPath id="make-me-a-hanzi-clip-5">
        <path d="M 446 112 L 423 120 L 397 126 Q 386 126 382 122 Q 378 118 379 115 Q 380 112 387 102 Q 403 86 407 65 Q 411 55 414 28 L 429 -80 Q 437 -132 459 -126 Q 467 -125 470 -106 L 473 -95 L 471 -56 L 459 84 C 457 108 457 108 446 112 Z"></path>
      </clipPath>
      <path clip-path="url(#make-me-a-hanzi-clip-5)" d="M 392 114 L 427 90 L 433 74 L 455 -114" fill="none" id="make-me-a-hanzi-animation-5" stroke-dasharray="377 754" stroke-linecap="round"></path>
    
      <clipPath id="make-me-a-hanzi-clip-6">
        <path d="M 549 124 L 446 112 C 416 109 429 80 459 84 L 631 107 Q 712 117 719 112 Q 726 106 726 97 Q 729 86 723 64 L 701 -34 C 694 -63 749 -74 759 -46 L 786 29 L 801 66 Q 801 71 814 84 Q 828 97 828 106 Q 826 119 802 133 Q 779 146 769 154 Q 760 161 745 161 L 733 158 Q 701 150 683 147 L 606 132 L 549 124 Z"></path>
      </clipPath>
      <path clip-path="url(#make-me-a-hanzi-clip-6)" d="M 454 107 L 470 101 L 716 134 L 749 127 L 769 98 L 764 74 L 739 -10 L 710 -29" fill="none" id="make-me-a-hanzi-animation-6" stroke-dasharray="609 1218" stroke-linecap="round"></path>
    
      <clipPath id="make-me-a-hanzi-clip-7">
        <path d="M 473 -95 L 733 -78 L 768 -80 Q 781 -79 783 -72 Q 785 -65 778 -58 L 759 -46 C 735 -31 731 -31 701 -34 L 471 -56 C 441 -59 443 -97 473 -95 Z"></path>
      </clipPath>
      <path clip-path="url(#make-me-a-hanzi-clip-7)" d="M 480 -88 L 495 -74 L 704 -57 L 773 -68" fill="none" id="make-me-a-hanzi-animation-7" stroke-dasharray="428 856" stroke-linecap="round"></path>
    
  </g>
</svg>