<svg version="1.1" viewBox="0 0 1024 1024" xmlns="http://www.w3.org/2000/svg">
  <g stroke="lightgray" stroke-dasharray="1,1" stroke-width="1" transform="scale(4, 4)">
    <line x1="0" y1="0" x2="256" y2="256"></line>
    <line x1="256" y1="0" x2="0" y2="256"></line>
    <line x1="128" y1="0" x2="128" y2="256"></line>
    <line x1="0" y1="128" x2="256" y2="128"></line>
  </g>
<g transform="scale(1, -1) translate(0, -900)">
   <style type="text/css">
    @keyframes keyframes0 {
      from {
       stroke: blue;
       stroke-dashoffset: 687;
       stroke-width: 128;
       }
       69% {
       animation-timing-function: step-end;
       stroke: blue;
       stroke-dashoffset: 0;
       stroke-width: 128;
       }
       to {
       stroke: black;
       stroke-width: 1024;
       }
       }
       #make-me-a-hanzi-animation-0 {
         animation: keyframes0 0.809082s both;
         animation-delay: 0.000000s;
         animation-timing-function: linear;
       }
    @keyframes keyframes1 {
      from {
       stroke: blue;
       stroke-dashoffset: 724;
       stroke-width: 128;
       }
       70% {
       animation-timing-function: step-end;
       stroke: blue;
       stroke-dashoffset: 0;
       stroke-width: 128;
       }
       to {
       stroke: black;
       stroke-width: 1024;
       }
       }
       #make-me-a-hanzi-animation-1 {
         animation: keyframes1 0.839193s both;
         animation-delay: 0.809082s;
         animation-timing-function: linear;
       }
    @keyframes keyframes2 {
      from {
       stroke: blue;
       stroke-dashoffset: 486;
       stroke-width: 128;
       }
       61% {
       animation-timing-function: step-end;
       stroke: blue;
       stroke-dashoffset: 0;
       stroke-width: 128;
       }
       to {
       stroke: black;
       stroke-width: 1024;
       }
       }
       #make-me-a-hanzi-animation-2 {
         animation: keyframes2 0.645508s both;
         animation-delay: 1.648275s;
         animation-timing-function: linear;
       }
    @keyframes keyframes3 {
      from {
       stroke: blue;
       stroke-dashoffset: 621;
       stroke-width: 128;
       }
       67% {
       animation-timing-function: step-end;
       stroke: blue;
       stroke-dashoffset: 0;
       stroke-width: 128;
       }
       to {
       stroke: black;
       stroke-width: 1024;
       }
       }
       #make-me-a-hanzi-animation-3 {
         animation: keyframes3 0.755371s both;
         animation-delay: 2.293783s;
         animation-timing-function: linear;
       }
    @keyframes keyframes4 {
      from {
       stroke: blue;
       stroke-dashoffset: 551;
       stroke-width: 128;
       }
       64% {
       animation-timing-function: step-end;
       stroke: blue;
       stroke-dashoffset: 0;
       stroke-width: 128;
       }
       to {
       stroke: black;
       stroke-width: 1024;
       }
       }
       #make-me-a-hanzi-animation-4 {
         animation: keyframes4 0.698405s both;
         animation-delay: 3.049154s;
         animation-timing-function: linear;
       }
    @keyframes keyframes5 {
      from {
       stroke: blue;
       stroke-dashoffset: 1448;
       stroke-width: 128;
       }
       82% {
       animation-timing-function: step-end;
       stroke: blue;
       stroke-dashoffset: 0;
       stroke-width: 128;
       }
       to {
       stroke: black;
       stroke-width: 1024;
       }
       }
       #make-me-a-hanzi-animation-5 {
         animation: keyframes5 1.428385s both;
         animation-delay: 3.747559s;
         animation-timing-function: linear;
       }
</style>
<path d="M 270.5 332.0 Q 289.5 656.0 291.5 660.0 Q 300.5 703.0 296.5 711.0 Q 292.5 717.0 284.5 722.0 Q 250.5 740.0 226.5 744.0 Q 210.5 747.0 202.5 739.0 Q 195.5 732.0 203.5 717.0 Q 227.5 683.0 227.5 659.0 Q 237.5 502.0 230.5 317.0 C 229.5 287.0 268.5 302.0 270.5 332.0 Z" fill="lightgray"></path> 
<path d="M 230.5 317.0 Q 184.5 301.0 148.5 281.0 Q 135.5 277.0 137.5 293.0 Q 141.5 339.0 145.5 389.0 Q 149.5 413.0 138.5 427.0 Q 122.5 445.0 97.5 457.0 Q 85.5 463.0 75.5 460.0 Q 65.5 456.0 73.5 436.0 Q 98.5 382.0 91.5 328.0 Q 87.5 276.0 66.5 253.0 Q 50.5 234.0 59.5 220.0 Q 72.5 207.0 90.5 197.0 Q 105.5 191.0 114.5 201.0 Q 135.5 234.0 284.5 297.0 Q 320.5 313.0 342.5 317.0 C 371.5 324.0 382.5 369.0 353.5 360.0 Q 308.5 347.0 270.5 332.0 L 230.5 317.0 Z" fill="lightgray"></path> 
<path d="M 342.5 317.0 Q 342.5 316.0 343.5 314.0 Q 347.5 289.0 355.5 272.0 Q 362.5 259.0 373.5 268.0 Q 394.5 286.0 398.5 360.0 Q 398.5 405.0 413.5 436.0 Q 414.5 443.0 419.5 449.0 Q 431.5 468.0 381.5 499.0 Q 377.5 502.0 374.5 503.0 Q 364.5 509.0 353.5 504.0 Q 346.5 500.0 349.5 489.0 Q 370.5 443.0 353.5 360.0 C 347.5 331.0 341.5 323.0 342.5 317.0 Z" fill="lightgray"></path> 
<path d="M 545.5 591.0 Q 575.5 634.0 606.5 696.0 Q 621.5 727.0 636.5 745.0 Q 643.5 755.0 638.5 767.0 Q 632.5 777.0 605.5 796.0 Q 580.5 809.0 562.5 808.0 Q 546.5 804.0 555.5 785.0 Q 586.5 730.0 445.5 501.0 Q 438.5 491.0 436.5 486.0 Q 433.5 476.0 446.5 479.0 Q 467.5 485.0 529.5 568.0 L 545.5 591.0 Z" fill="lightgray"></path> 
<path d="M 529.5 568.0 Q 538.5 559.0 576.5 551.0 Q 597.5 548.0 683.5 566.0 Q 827.5 597.0 834.5 605.0 Q 844.5 614.0 838.5 624.0 Q 829.5 637.0 796.5 644.0 Q 766.5 650.0 669.5 615.0 Q 596.5 597.0 545.5 591.0 C 515.5 587.0 504.5 584.0 529.5 568.0 Z" fill="lightgray"></path> 
<path d="M 473.5 406.0 Q 458.5 405.0 456.5 396.0 Q 455.5 389.0 463.5 385.0 Q 497.5 376.0 530.5 385.0 Q 558.5 395.0 585.5 404.0 Q 607.5 410.0 610.5 403.0 Q 616.5 393.0 603.5 376.0 Q 464.5 187.0 468.5 89.0 Q 472.5 52.0 501.5 28.0 Q 573.5 -33.0 741.5 -28.0 Q 834.5 -25.0 942.5 21.0 Q 973.5 34.0 965.5 58.0 Q 946.5 119.0 936.5 220.0 Q 932.5 233.0 924.5 234.0 Q 918.5 234.0 913.5 218.0 Q 906.5 182.0 897.5 143.0 Q 885.5 86.0 842.5 66.0 Q 800.5 42.0 702.5 40.0 Q 605.5 39.0 567.5 56.0 Q 533.5 72.0 523.5 106.0 Q 504.5 187.0 630.5 330.0 Q 669.5 376.0 708.5 396.0 Q 733.5 408.0 725.5 421.0 Q 718.5 437.0 666.5 463.0 Q 647.5 475.0 619.5 461.0 Q 543.5 421.0 473.5 406.0 Z" fill="lightgray"></path> 
      <clipPath id="make-me-a-hanzi-clip-0">
      <path d="M 270.5 332.0 Q 289.5 656.0 291.5 660.0 Q 300.5 703.0 296.5 711.0 Q 292.5 717.0 284.5 722.0 Q 250.5 740.0 226.5 744.0 Q 210.5 747.0 202.5 739.0 Q 195.5 732.0 203.5 717.0 Q 227.5 683.0 227.5 659.0 Q 237.5 502.0 230.5 317.0 C 229.5 287.0 268.5 302.0 270.5 332.0 Z" fill="lightgray"></path>
      </clipPath>
      <path clip-path="url(#make-me-a-hanzi-clip-0)" d="M 213.5 730.0 L 248.5 704.0 L 260.5 676.0 L 253.5 349.0 L 235.5 325.0 " fill="none" id="make-me-a-hanzi-animation-0" stroke-dasharray="559 1118" stroke-linecap="round"></path>

      <clipPath id="make-me-a-hanzi-clip-1">
      <path d="M 230.5 317.0 Q 184.5 301.0 148.5 281.0 Q 135.5 277.0 137.5 293.0 Q 141.5 339.0 145.5 389.0 Q 149.5 413.0 138.5 427.0 Q 122.5 445.0 97.5 457.0 Q 85.5 463.0 75.5 460.0 Q 65.5 456.0 73.5 436.0 Q 98.5 382.0 91.5 328.0 Q 87.5 276.0 66.5 253.0 Q 50.5 234.0 59.5 220.0 Q 72.5 207.0 90.5 197.0 Q 105.5 191.0 114.5 201.0 Q 135.5 234.0 284.5 297.0 Q 320.5 313.0 342.5 317.0 C 371.5 324.0 382.5 369.0 353.5 360.0 Q 308.5 347.0 270.5 332.0 L 230.5 317.0 Z" fill="lightgray"></path>
      </clipPath>
      <path clip-path="url(#make-me-a-hanzi-clip-1)" d="M 81.5 450.0 L 102.5 428.0 L 117.5 398.0 L 112.5 253.0 L 157.5 260.0 L 215.5 290.0 L 318.5 329.0 L 347.5 354.0 " fill="none" id="make-me-a-hanzi-animation-1" stroke-dasharray="596 1192" stroke-linecap="round"></path>

      <clipPath id="make-me-a-hanzi-clip-2">
      <path d="M 342.5 317.0 Q 342.5 316.0 343.5 314.0 Q 347.5 289.0 355.5 272.0 Q 362.5 259.0 373.5 268.0 Q 394.5 286.0 398.5 360.0 Q 398.5 405.0 413.5 436.0 Q 414.5 443.0 419.5 449.0 Q 431.5 468.0 381.5 499.0 Q 377.5 502.0 374.5 503.0 Q 364.5 509.0 353.5 504.0 Q 346.5 500.0 349.5 489.0 Q 370.5 443.0 353.5 360.0 C 347.5 331.0 341.5 323.0 342.5 317.0 Z" fill="lightgray"></path>
      </clipPath>
      <path clip-path="url(#make-me-a-hanzi-clip-2)" d="M 361.5 494.0 L 380.5 475.0 L 389.5 455.0 L 365.5 275.0 " fill="none" id="make-me-a-hanzi-animation-2" stroke-dasharray="358 716" stroke-linecap="round"></path>

      <clipPath id="make-me-a-hanzi-clip-3">
      <path d="M 545.5 591.0 Q 575.5 634.0 606.5 696.0 Q 621.5 727.0 636.5 745.0 Q 643.5 755.0 638.5 767.0 Q 632.5 777.0 605.5 796.0 Q 580.5 809.0 562.5 808.0 Q 546.5 804.0 555.5 785.0 Q 586.5 730.0 445.5 501.0 Q 438.5 491.0 436.5 486.0 Q 433.5 476.0 446.5 479.0 Q 467.5 485.0 529.5 568.0 L 545.5 591.0 Z" fill="lightgray"></path>
      </clipPath>
      <path clip-path="url(#make-me-a-hanzi-clip-3)" d="M 565.5 795.0 L 577.5 787.0 L 598.5 755.0 L 584.5 716.0 L 508.5 569.0 L 443.5 486.0 " fill="none" id="make-me-a-hanzi-animation-3" stroke-dasharray="493 986" stroke-linecap="round"></path>

      <clipPath id="make-me-a-hanzi-clip-4">
      <path d="M 529.5 568.0 Q 538.5 559.0 576.5 551.0 Q 597.5 548.0 683.5 566.0 Q 827.5 597.0 834.5 605.0 Q 844.5 614.0 838.5 624.0 Q 829.5 637.0 796.5 644.0 Q 766.5 650.0 669.5 615.0 Q 596.5 597.0 545.5 591.0 C 515.5 587.0 504.5 584.0 529.5 568.0 Z" fill="lightgray"></path>
      </clipPath>
      <path clip-path="url(#make-me-a-hanzi-clip-4)" d="M 536.5 572.0 L 626.5 579.0 L 784.5 618.0 L 826.5 617.0 " fill="none" id="make-me-a-hanzi-animation-4" stroke-dasharray="423 846" stroke-linecap="round"></path>

      <clipPath id="make-me-a-hanzi-clip-5">
      <path d="M 473.5 406.0 Q 458.5 405.0 456.5 396.0 Q 455.5 389.0 463.5 385.0 Q 497.5 376.0 530.5 385.0 Q 558.5 395.0 585.5 404.0 Q 607.5 410.0 610.5 403.0 Q 616.5 393.0 603.5 376.0 Q 464.5 187.0 468.5 89.0 Q 472.5 52.0 501.5 28.0 Q 573.5 -33.0 741.5 -28.0 Q 834.5 -25.0 942.5 21.0 Q 973.5 34.0 965.5 58.0 Q 946.5 119.0 936.5 220.0 Q 932.5 233.0 924.5 234.0 Q 918.5 234.0 913.5 218.0 Q 906.5 182.0 897.5 143.0 Q 885.5 86.0 842.5 66.0 Q 800.5 42.0 702.5 40.0 Q 605.5 39.0 567.5 56.0 Q 533.5 72.0 523.5 106.0 Q 504.5 187.0 630.5 330.0 Q 669.5 376.0 708.5 396.0 Q 733.5 408.0 725.5 421.0 Q 718.5 437.0 666.5 463.0 Q 647.5 475.0 619.5 461.0 Q 543.5 421.0 473.5 406.0 Z" fill="lightgray"></path>
      </clipPath>
      <path clip-path="url(#make-me-a-hanzi-clip-5)" d="M 466.5 394.0 L 520.5 400.0 L 606.5 430.0 L 641.5 428.0 L 654.5 414.0 L 638.5 380.0 L 536.5 238.0 L 514.5 195.0 L 498.5 144.0 L 495.5 103.0 L 501.5 78.0 L 524.5 48.0 L 561.5 26.0 L 641.5 8.0 L 730.5 6.0 L 815.5 17.0 L 873.5 37.0 L 914.5 63.0 L 925.5 227.0 " fill="none" id="make-me-a-hanzi-animation-5" stroke-dasharray="1320 2640" stroke-linecap="round"></path>

</g>
</svg>
