<svg version="1.1" viewBox="0 0 1024 1024" xmlns="http://www.w3.org/2000/svg">
  <g stroke="lightgray" stroke-dasharray="1,1" stroke-width="1" transform="scale(4, 4)">
    <line x1="0" y1="0" x2="256" y2="256"></line>
    <line x1="256" y1="0" x2="0" y2="256"></line>
    <line x1="128" y1="0" x2="128" y2="256"></line>
    <line x1="0" y1="128" x2="256" y2="128"></line>
  </g>
<g transform="scale(1, -1) translate(0, -900)">
   <style type="text/css">
    @keyframes keyframes0 {
      from {
       stroke: blue;
       stroke-dashoffset: 655;
       stroke-width: 128;
       }
       68% {
       animation-timing-function: step-end;
       stroke: blue;
       stroke-dashoffset: 0;
       stroke-width: 128;
       }
       to {
       stroke: black;
       stroke-width: 1024;
       }
       }
       #make-me-a-hanzi-animation-0 {
         animation: keyframes0 0.783040s both;
         animation-delay: 0.000000s;
         animation-timing-function: linear;
       }
    @keyframes keyframes1 {
      from {
       stroke: blue;
       stroke-dashoffset: 664;
       stroke-width: 128;
       }
       68% {
       animation-timing-function: step-end;
       stroke: blue;
       stroke-dashoffset: 0;
       stroke-width: 128;
       }
       to {
       stroke: black;
       stroke-width: 1024;
       }
       }
       #make-me-a-hanzi-animation-1 {
         animation: keyframes1 0.790365s both;
         animation-delay: 0.783040s;
         animation-timing-function: linear;
       }
    @keyframes keyframes2 {
      from {
       stroke: blue;
       stroke-dashoffset: 484;
       stroke-width: 128;
       }
       61% {
       animation-timing-function: step-end;
       stroke: blue;
       stroke-dashoffset: 0;
       stroke-width: 128;
       }
       to {
       stroke: black;
       stroke-width: 1024;
       }
       }
       #make-me-a-hanzi-animation-2 {
         animation: keyframes2 0.643880s both;
         animation-delay: 1.573405s;
         animation-timing-function: linear;
       }
    @keyframes keyframes3 {
      from {
       stroke: blue;
       stroke-dashoffset: 344;
       stroke-width: 128;
       }
       53% {
       animation-timing-function: step-end;
       stroke: blue;
       stroke-dashoffset: 0;
       stroke-width: 128;
       }
       to {
       stroke: black;
       stroke-width: 1024;
       }
       }
       #make-me-a-hanzi-animation-3 {
         animation: keyframes3 0.529948s both;
         animation-delay: 2.217285s;
         animation-timing-function: linear;
       }
    @keyframes keyframes4 {
      from {
       stroke: blue;
       stroke-dashoffset: 375;
       stroke-width: 128;
       }
       55% {
       animation-timing-function: step-end;
       stroke: blue;
       stroke-dashoffset: 0;
       stroke-width: 128;
       }
       to {
       stroke: black;
       stroke-width: 1024;
       }
       }
       #make-me-a-hanzi-animation-4 {
         animation: keyframes4 0.555176s both;
         animation-delay: 2.747233s;
         animation-timing-function: linear;
       }
    @keyframes keyframes5 {
      from {
       stroke: blue;
       stroke-dashoffset: 605;
       stroke-width: 128;
       }
       66% {
       animation-timing-function: step-end;
       stroke: blue;
       stroke-dashoffset: 0;
       stroke-width: 128;
       }
       to {
       stroke: black;
       stroke-width: 1024;
       }
       }
       #make-me-a-hanzi-animation-5 {
         animation: keyframes5 0.742350s both;
         animation-delay: 3.302409s;
         animation-timing-function: linear;
       }
    @keyframes keyframes6 {
      from {
       stroke: blue;
       stroke-dashoffset: 348;
       stroke-width: 128;
       }
       53% {
       animation-timing-function: step-end;
       stroke: blue;
       stroke-dashoffset: 0;
       stroke-width: 128;
       }
       to {
       stroke: black;
       stroke-width: 1024;
       }
       }
       #make-me-a-hanzi-animation-6 {
         animation: keyframes6 0.533203s both;
         animation-delay: 4.044759s;
         animation-timing-function: linear;
       }
    @keyframes keyframes7 {
      from {
       stroke: blue;
       stroke-dashoffset: 325;
       stroke-width: 128;
       }
       51% {
       animation-timing-function: step-end;
       stroke: blue;
       stroke-dashoffset: 0;
       stroke-width: 128;
       }
       to {
       stroke: black;
       stroke-width: 1024;
       }
       }
       #make-me-a-hanzi-animation-7 {
         animation: keyframes7 0.514486s both;
         animation-delay: 4.577962s;
         animation-timing-function: linear;
       }
    @keyframes keyframes8 {
      from {
       stroke: blue;
       stroke-dashoffset: 375;
       stroke-width: 128;
       }
       55% {
       animation-timing-function: step-end;
       stroke: blue;
       stroke-dashoffset: 0;
       stroke-width: 128;
       }
       to {
       stroke: black;
       stroke-width: 1024;
       }
       }
       #make-me-a-hanzi-animation-8 {
         animation: keyframes8 0.555176s both;
         animation-delay: 5.092448s;
         animation-timing-function: linear;
       }
    @keyframes keyframes9 {
      from {
       stroke: blue;
       stroke-dashoffset: 657;
       stroke-width: 128;
       }
       68% {
       animation-timing-function: step-end;
       stroke: blue;
       stroke-dashoffset: 0;
       stroke-width: 128;
       }
       to {
       stroke: black;
       stroke-width: 1024;
       }
       }
       #make-me-a-hanzi-animation-9 {
         animation: keyframes9 0.784668s both;
         animation-delay: 5.647624s;
         animation-timing-function: linear;
       }
    @keyframes keyframes10 {
      from {
       stroke: blue;
       stroke-dashoffset: 365;
       stroke-width: 128;
       }
       54% {
       animation-timing-function: step-end;
       stroke: blue;
       stroke-dashoffset: 0;
       stroke-width: 128;
       }
       to {
       stroke: black;
       stroke-width: 1024;
       }
       }
       #make-me-a-hanzi-animation-10 {
         animation: keyframes10 0.547038s both;
         animation-delay: 6.432292s;
         animation-timing-function: linear;
       }
    @keyframes keyframes11 {
      from {
       stroke: blue;
       stroke-dashoffset: 420;
       stroke-width: 128;
       }
       58% {
       animation-timing-function: step-end;
       stroke: blue;
       stroke-dashoffset: 0;
       stroke-width: 128;
       }
       to {
       stroke: black;
       stroke-width: 1024;
       }
       }
       #make-me-a-hanzi-animation-11 {
         animation: keyframes11 0.591797s both;
         animation-delay: 6.979329s;
         animation-timing-function: linear;
       }
    @keyframes keyframes12 {
      from {
       stroke: blue;
       stroke-dashoffset: 800;
       stroke-width: 128;
       }
       72% {
       animation-timing-function: step-end;
       stroke: blue;
       stroke-dashoffset: 0;
       stroke-width: 128;
       }
       to {
       stroke: black;
       stroke-width: 1024;
       }
       }
       #make-me-a-hanzi-animation-12 {
         animation: keyframes12 0.901042s both;
         animation-delay: 7.571126s;
         animation-timing-function: linear;
       }
    @keyframes keyframes13 {
      from {
       stroke: blue;
       stroke-dashoffset: 607;
       stroke-width: 128;
       }
       66% {
       animation-timing-function: step-end;
       stroke: blue;
       stroke-dashoffset: 0;
       stroke-width: 128;
       }
       to {
       stroke: black;
       stroke-width: 1024;
       }
       }
       #make-me-a-hanzi-animation-13 {
         animation: keyframes13 0.743978s both;
         animation-delay: 8.472168s;
         animation-timing-function: linear;
       }
    @keyframes keyframes14 {
      from {
       stroke: blue;
       stroke-dashoffset: 712;
       stroke-width: 128;
       }
       70% {
       animation-timing-function: step-end;
       stroke: blue;
       stroke-dashoffset: 0;
       stroke-width: 128;
       }
       to {
       stroke: black;
       stroke-width: 1024;
       }
       }
       #make-me-a-hanzi-animation-14 {
         animation: keyframes14 0.829427s both;
         animation-delay: 9.216146s;
         animation-timing-function: linear;
       }
    @keyframes keyframes15 {
      from {
       stroke: blue;
       stroke-dashoffset: 640;
       stroke-width: 128;
       }
       68% {
       animation-timing-function: step-end;
       stroke: blue;
       stroke-dashoffset: 0;
       stroke-width: 128;
       }
       to {
       stroke: black;
       stroke-width: 1024;
       }
       }
       #make-me-a-hanzi-animation-15 {
         animation: keyframes15 0.770833s both;
         animation-delay: 10.045573s;
         animation-timing-function: linear;
       }
    @keyframes keyframes16 {
      from {
       stroke: blue;
       stroke-dashoffset: 687;
       stroke-width: 128;
       }
       69% {
       animation-timing-function: step-end;
       stroke: blue;
       stroke-dashoffset: 0;
       stroke-width: 128;
       }
       to {
       stroke: black;
       stroke-width: 1024;
       }
       }
       #make-me-a-hanzi-animation-16 {
         animation: keyframes16 0.809082s both;
         animation-delay: 10.816406s;
         animation-timing-function: linear;
       }
</style>
<path d="M 234.5 419.5 Q 258.5 695.5 272.5 750.5 Q 276.5 760.5 257.5 775.5 Q 224.5 794.5 202.5 798.5 Q 186.5 802.5 179.5 794.5 Q 172.5 787.5 179.5 772.5 Q 200.5 741.5 200.5 719.5 Q 204.5 574.5 194.5 403.5 C 192.5 373.5 231.5 389.5 234.5 419.5 Z" fill="lightgray"></path> 
<path d="M 299.5 442.5 Q 263.5 432.5 234.5 419.5 L 194.5 403.5 Q 160.5 390.5 134.5 375.5 Q 124.5 372.5 125.5 385.5 Q 135.5 508.5 127.5 522.5 Q 112.5 537.5 90.5 549.5 Q 80.5 553.5 70.5 551.5 Q 60.5 547.5 68.5 530.5 Q 93.5 478.5 86.5 423.5 Q 82.5 372.5 61.5 349.5 Q 46.5 331.5 55.5 319.5 Q 67.5 306.5 84.5 299.5 Q 97.5 293.5 105.5 302.5 Q 129.5 344.5 265.5 395.5 Q 281.5 402.5 293.5 403.5 C 322.5 409.5 328.5 450.5 299.5 442.5 Z" fill="lightgray"></path> 
<path d="M 293.5 403.5 Q 296.5 384.5 303.5 369.5 Q 310.5 356.5 320.5 364.5 Q 335.5 379.5 357.5 514.5 Q 360.5 530.5 368.5 544.5 Q 375.5 556.5 367.5 567.5 Q 351.5 580.5 326.5 596.5 Q 316.5 602.5 306.5 598.5 Q 300.5 594.5 302.5 584.5 Q 321.5 536.5 300.5 444.5 Q 299.5 444.5 299.5 442.5 L 293.5 403.5 Z" fill="lightgray"></path> 
<path d="M 369.5 655.5 Q 397.5 604.5 416.5 592.5 Q 425.5 588.5 434.5 595.5 Q 440.5 602.5 440.5 614.5 Q 440.5 630.5 430.5 642.5 Q 418.5 658.5 384.5 678.5 Q 374.5 684.5 367.5 683.5 Q 363.5 683.5 362.5 675.5 Q 361.5 668.5 369.5 655.5 Z" fill="lightgray"></path> 
<path d="M 510.5 647.5 Q 538.5 657.5 555.5 666.5 Q 595.5 690.5 611.5 693.5 Q 626.5 697.5 621.5 710.5 Q 614.5 722.5 598.5 733.5 Q 583.5 743.5 575.5 743.5 Q 568.5 743.5 568.5 734.5 Q 568.5 721.5 517.5 669.5 Q 514.5 668.5 513.5 664.5 C 502.5 644.5 502.5 644.5 510.5 647.5 Z" fill="lightgray"></path> 
<path d="M 498.5 591.5 Q 504.5 616.5 510.5 647.5 L 513.5 664.5 Q 517.5 706.5 534.5 753.5 Q 540.5 763.5 531.5 773.5 Q 513.5 788.5 482.5 797.5 Q 461.5 803.5 454.5 797.5 Q 447.5 791.5 453.5 782.5 Q 492.5 715.5 459.5 556.5 Q 432.5 513.5 411.5 494.5 Q 401.5 487.5 402.5 483.5 Q 403.5 480.5 412.5 481.5 Q 416.5 480.5 429.5 485.5 Q 468.5 503.5 493.5 572.5 L 498.5 591.5 Z" fill="lightgray"></path> 
<path d="M 493.5 572.5 Q 557.5 515.5 565.5 515.5 Q 572.5 515.5 575.5 523.5 Q 578.5 530.5 573.5 549.5 Q 566.5 571.5 502.5 591.5 Q 499.5 592.5 498.5 591.5 C 473.5 590.5 473.5 590.5 493.5 572.5 Z" fill="lightgray"></path> 
<path d="M 596.5 634.5 Q 620.5 601.5 638.5 590.5 Q 647.5 587.5 654.5 595.5 Q 658.5 602.5 658.5 613.5 Q 655.5 629.5 645.5 638.5 Q 611.5 665.5 590.5 659.5 Q 586.5 659.5 587.5 651.5 Q 587.5 644.5 596.5 634.5 Z" fill="lightgray"></path> 
<path d="M 798.5 736.5 Q 791.5 726.5 752.5 681.5 Q 743.5 669.5 756.5 670.5 Q 801.5 686.5 826.5 699.5 Q 842.5 709.5 861.5 715.5 Q 877.5 721.5 871.5 735.5 Q 862.5 748.5 844.5 762.5 Q 828.5 774.5 817.5 773.5 Q 807.5 773.5 809.5 763.5 Q 810.5 748.5 798.5 736.5 Z" fill="lightgray"></path> 
<path d="M 695.5 759.5 Q 695.5 588.5 647.5 528.5 Q 632.5 513.5 612.5 497.5 Q 602.5 491.5 602.5 488.5 Q 603.5 484.5 612.5 484.5 Q 618.5 483.5 633.5 488.5 Q 687.5 507.5 710.5 578.5 Q 717.5 605.5 743.5 756.5 Q 744.5 775.5 751.5 785.5 Q 754.5 789.5 756.5 796.5 Q 763.5 806.5 754.5 816.5 Q 738.5 832.5 706.5 842.5 Q 685.5 848.5 678.5 843.5 Q 671.5 837.5 677.5 827.5 Q 693.5 797.5 695.5 759.5 Z" fill="lightgray"></path> 
<path d="M 762.5 590.5 Q 787.5 568.5 816.5 539.5 Q 825.5 530.5 835.5 530.5 Q 842.5 530.5 847.5 539.5 Q 850.5 549.5 845.5 569.5 Q 839.5 593.5 760.5 623.5 Q 750.5 626.5 745.5 624.5 Q 741.5 623.5 742.5 613.5 Q 743.5 606.5 762.5 590.5 Z" fill="lightgray"></path> 
<path d="M 428.5 430.5 Q 415.5 457.5 400.5 465.5 Q 397.5 469.5 391.5 466.5 Q 387.5 462.5 385.5 452.5 Q 389.5 422.5 360.5 358.5 Q 350.5 342.5 350.5 324.5 Q 353.5 305.5 362.5 292.5 Q 369.5 280.5 375.5 288.5 Q 387.5 291.5 403.5 336.5 Q 418.5 381.5 429.5 399.5 C 437.5 413.5 437.5 413.5 428.5 430.5 Z" fill="lightgray"></path> 
<path d="M 429.5 399.5 Q 444.5 393.5 509.5 411.5 Q 647.5 454.5 756.5 464.5 Q 778.5 468.5 789.5 467.5 Q 804.5 463.5 802.5 455.5 Q 802.5 452.5 767.5 383.5 Q 758.5 370.5 764.5 366.5 Q 771.5 363.5 787.5 373.5 Q 839.5 407.5 882.5 419.5 Q 918.5 428.5 917.5 438.5 Q 914.5 448.5 850.5 496.5 Q 826.5 517.5 720.5 490.5 Q 716.5 490.5 505.5 446.5 Q 466.5 439.5 428.5 430.5 C 399.5 423.5 399.5 401.5 429.5 399.5 Z" fill="lightgray"></path> 
<path d="M 624.5 274.5 Q 637.5 278.5 767.5 301.5 Q 776.5 300.5 783.5 312.5 Q 784.5 322.5 764.5 330.5 Q 731.5 346.5 638.5 316.5 Q 631.5 315.5 626.5 312.5 L 576.5 299.5 Q 473.5 281.5 432.5 275.5 Q 407.5 271.5 427.5 257.5 Q 446.5 244.5 484.5 243.5 Q 512.5 252.5 548.5 257.5 L 624.5 274.5 Z" fill="lightgray"></path> 
<path d="M 626.5 312.5 Q 627.5 334.5 631.5 347.5 Q 634.5 359.5 627.5 365.5 Q 605.5 384.5 586.5 394.5 Q 574.5 398.5 565.5 391.5 Q 559.5 388.5 566.5 378.5 Q 575.5 360.5 576.5 299.5 L 573.5 201.5 Q 569.5 66.5 556.5 37.5 Q 541.5 -1.5 586.5 -61.5 Q 590.5 -68.5 597.5 -71.5 Q 607.5 -72.5 613.5 -60.5 Q 626.5 -29.5 623.5 0.5 Q 622.5 127.5 623.5 233.5 Q 623.5 236.5 623.5 238.5 L 624.5 274.5 L 626.5 312.5 Z" fill="lightgray"></path> 
<path d="M 548.5 257.5 Q 470.5 137.5 282.5 20.5 Q 269.5 10.5 277.5 7.5 Q 286.5 1.5 298.5 5.5 Q 415.5 38.5 536.5 162.5 Q 539.5 168.5 573.5 201.5 C 635.5 262.5 569.5 289.5 548.5 257.5 Z" fill="lightgray"></path> 
<path d="M 623.5 238.5 Q 686.5 148.5 757.5 64.5 Q 776.5 39.5 814.5 35.5 Q 881.5 26.5 954.5 34.5 Q 972.5 34.5 974.5 39.5 Q 977.5 46.5 963.5 52.5 Q 920.5 71.5 870.5 91.5 Q 815.5 116.5 773.5 146.5 Q 722.5 180.5 673.5 227.5 Q 642.5 260.5 624.5 274.5 C 601.5 293.5 606.5 263.5 623.5 238.5 Z" fill="lightgray"></path> 
      <clipPath id="make-me-a-hanzi-clip-0">
      <path d="M 234.5 419.5 Q 258.5 695.5 272.5 750.5 Q 276.5 760.5 257.5 775.5 Q 224.5 794.5 202.5 798.5 Q 186.5 802.5 179.5 794.5 Q 172.5 787.5 179.5 772.5 Q 200.5 741.5 200.5 719.5 Q 204.5 574.5 194.5 403.5 C 192.5 373.5 231.5 389.5 234.5 419.5 Z" fill="lightgray"></path>
      </clipPath>
      <path clip-path="url(#make-me-a-hanzi-clip-0)" d="M 190.5 784.5 L 233.5 746.5 L 217.5 435.5 L 198.5 411.5 " fill="none" id="make-me-a-hanzi-animation-0" stroke-dasharray="527 1054" stroke-linecap="round"></path>

      <clipPath id="make-me-a-hanzi-clip-1">
      <path d="M 299.5 442.5 Q 263.5 432.5 234.5 419.5 L 194.5 403.5 Q 160.5 390.5 134.5 375.5 Q 124.5 372.5 125.5 385.5 Q 135.5 508.5 127.5 522.5 Q 112.5 537.5 90.5 549.5 Q 80.5 553.5 70.5 551.5 Q 60.5 547.5 68.5 530.5 Q 93.5 478.5 86.5 423.5 Q 82.5 372.5 61.5 349.5 Q 46.5 331.5 55.5 319.5 Q 67.5 306.5 84.5 299.5 Q 97.5 293.5 105.5 302.5 Q 129.5 344.5 265.5 395.5 Q 281.5 402.5 293.5 403.5 C 322.5 409.5 328.5 450.5 299.5 442.5 Z" fill="lightgray"></path>
      </clipPath>
      <path clip-path="url(#make-me-a-hanzi-clip-1)" d="M 76.5 541.5 L 104.5 509.5 L 107.5 494.5 L 109.5 424.5 L 102.5 371.5 L 106.5 354.5 L 142.5 357.5 L 194.5 385.5 L 278.5 418.5 L 293.5 436.5 " fill="none" id="make-me-a-hanzi-animation-1" stroke-dasharray="536 1072" stroke-linecap="round"></path>

      <clipPath id="make-me-a-hanzi-clip-2">
      <path d="M 293.5 403.5 Q 296.5 384.5 303.5 369.5 Q 310.5 356.5 320.5 364.5 Q 335.5 379.5 357.5 514.5 Q 360.5 530.5 368.5 544.5 Q 375.5 556.5 367.5 567.5 Q 351.5 580.5 326.5 596.5 Q 316.5 602.5 306.5 598.5 Q 300.5 594.5 302.5 584.5 Q 321.5 536.5 300.5 444.5 Q 299.5 444.5 299.5 442.5 L 293.5 403.5 Z" fill="lightgray"></path>
      </clipPath>
      <path clip-path="url(#make-me-a-hanzi-clip-2)" d="M 313.5 589.5 L 339.5 549.5 L 331.5 480.5 L 313.5 401.5 L 313.5 371.5 " fill="none" id="make-me-a-hanzi-animation-2" stroke-dasharray="356 712" stroke-linecap="round"></path>

      <clipPath id="make-me-a-hanzi-clip-3">
      <path d="M 369.5 655.5 Q 397.5 604.5 416.5 592.5 Q 425.5 588.5 434.5 595.5 Q 440.5 602.5 440.5 614.5 Q 440.5 630.5 430.5 642.5 Q 418.5 658.5 384.5 678.5 Q 374.5 684.5 367.5 683.5 Q 363.5 683.5 362.5 675.5 Q 361.5 668.5 369.5 655.5 Z" fill="lightgray"></path>
      </clipPath>
      <path clip-path="url(#make-me-a-hanzi-clip-3)" d="M 370.5 675.5 L 415.5 625.5 L 423.5 606.5 " fill="none" id="make-me-a-hanzi-animation-3" stroke-dasharray="216 432" stroke-linecap="round"></path>

      <clipPath id="make-me-a-hanzi-clip-4">
      <path d="M 510.5 647.5 Q 538.5 657.5 555.5 666.5 Q 595.5 690.5 611.5 693.5 Q 626.5 697.5 621.5 710.5 Q 614.5 722.5 598.5 733.5 Q 583.5 743.5 575.5 743.5 Q 568.5 743.5 568.5 734.5 Q 568.5 721.5 517.5 669.5 Q 514.5 668.5 513.5 664.5 C 502.5 644.5 502.5 644.5 510.5 647.5 Z" fill="lightgray"></path>
      </clipPath>
      <path clip-path="url(#make-me-a-hanzi-clip-4)" d="M 611.5 705.5 L 585.5 710.5 L 531.5 671.5 L 516.5 650.5 " fill="none" id="make-me-a-hanzi-animation-4" stroke-dasharray="247 494" stroke-linecap="round"></path>

      <clipPath id="make-me-a-hanzi-clip-5">
      <path d="M 498.5 591.5 Q 504.5 616.5 510.5 647.5 L 513.5 664.5 Q 517.5 706.5 534.5 753.5 Q 540.5 763.5 531.5 773.5 Q 513.5 788.5 482.5 797.5 Q 461.5 803.5 454.5 797.5 Q 447.5 791.5 453.5 782.5 Q 492.5 715.5 459.5 556.5 Q 432.5 513.5 411.5 494.5 Q 401.5 487.5 402.5 483.5 Q 403.5 480.5 412.5 481.5 Q 416.5 480.5 429.5 485.5 Q 468.5 503.5 493.5 572.5 L 498.5 591.5 Z" fill="lightgray"></path>
      </clipPath>
      <path clip-path="url(#make-me-a-hanzi-clip-5)" d="M 462.5 789.5 L 499.5 754.5 L 487.5 614.5 L 472.5 550.5 L 438.5 504.5 L 408.5 487.5 " fill="none" id="make-me-a-hanzi-animation-5" stroke-dasharray="477 954" stroke-linecap="round"></path>

      <clipPath id="make-me-a-hanzi-clip-6">
      <path d="M 493.5 572.5 Q 557.5 515.5 565.5 515.5 Q 572.5 515.5 575.5 523.5 Q 578.5 530.5 573.5 549.5 Q 566.5 571.5 502.5 591.5 Q 499.5 592.5 498.5 591.5 C 473.5 590.5 473.5 590.5 493.5 572.5 Z" fill="lightgray"></path>
      </clipPath>
      <path clip-path="url(#make-me-a-hanzi-clip-6)" d="M 500.5 585.5 L 510.5 572.5 L 552.5 547.5 L 566.5 524.5 " fill="none" id="make-me-a-hanzi-animation-6" stroke-dasharray="220 440" stroke-linecap="round"></path>

      <clipPath id="make-me-a-hanzi-clip-7">
      <path d="M 596.5 634.5 Q 620.5 601.5 638.5 590.5 Q 647.5 587.5 654.5 595.5 Q 658.5 602.5 658.5 613.5 Q 655.5 629.5 645.5 638.5 Q 611.5 665.5 590.5 659.5 Q 586.5 659.5 587.5 651.5 Q 587.5 644.5 596.5 634.5 Z" fill="lightgray"></path>
      </clipPath>
      <path clip-path="url(#make-me-a-hanzi-clip-7)" d="M 596.5 652.5 L 634.5 621.5 L 643.5 603.5 " fill="none" id="make-me-a-hanzi-animation-7" stroke-dasharray="197 394" stroke-linecap="round"></path>

      <clipPath id="make-me-a-hanzi-clip-8">
      <path d="M 798.5 736.5 Q 791.5 726.5 752.5 681.5 Q 743.5 669.5 756.5 670.5 Q 801.5 686.5 826.5 699.5 Q 842.5 709.5 861.5 715.5 Q 877.5 721.5 871.5 735.5 Q 862.5 748.5 844.5 762.5 Q 828.5 774.5 817.5 773.5 Q 807.5 773.5 809.5 763.5 Q 810.5 748.5 798.5 736.5 Z" fill="lightgray"></path>
      </clipPath>
      <path clip-path="url(#make-me-a-hanzi-clip-8)" d="M 821.5 761.5 L 831.5 733.5 L 777.5 689.5 L 764.5 685.5 L 763.5 679.5 " fill="none" id="make-me-a-hanzi-animation-8" stroke-dasharray="247 494" stroke-linecap="round"></path>

      <clipPath id="make-me-a-hanzi-clip-9">
      <path d="M 695.5 759.5 Q 695.5 588.5 647.5 528.5 Q 632.5 513.5 612.5 497.5 Q 602.5 491.5 602.5 488.5 Q 603.5 484.5 612.5 484.5 Q 618.5 483.5 633.5 488.5 Q 687.5 507.5 710.5 578.5 Q 717.5 605.5 743.5 756.5 Q 744.5 775.5 751.5 785.5 Q 754.5 789.5 756.5 796.5 Q 763.5 806.5 754.5 816.5 Q 738.5 832.5 706.5 842.5 Q 685.5 848.5 678.5 843.5 Q 671.5 837.5 677.5 827.5 Q 693.5 797.5 695.5 759.5 Z" fill="lightgray"></path>
      </clipPath>
      <path clip-path="url(#make-me-a-hanzi-clip-9)" d="M 685.5 835.5 L 722.5 800.5 L 702.5 619.5 L 692.5 575.5 L 669.5 533.5 L 635.5 500.5 L 609.5 491.5 " fill="none" id="make-me-a-hanzi-animation-9" stroke-dasharray="529 1058" stroke-linecap="round"></path>

      <clipPath id="make-me-a-hanzi-clip-10">
      <path d="M 762.5 590.5 Q 787.5 568.5 816.5 539.5 Q 825.5 530.5 835.5 530.5 Q 842.5 530.5 847.5 539.5 Q 850.5 549.5 845.5 569.5 Q 839.5 593.5 760.5 623.5 Q 750.5 626.5 745.5 624.5 Q 741.5 623.5 742.5 613.5 Q 743.5 606.5 762.5 590.5 Z" fill="lightgray"></path>
      </clipPath>
      <path clip-path="url(#make-me-a-hanzi-clip-10)" d="M 752.5 616.5 L 817.5 570.5 L 833.5 545.5 " fill="none" id="make-me-a-hanzi-animation-10" stroke-dasharray="237 474" stroke-linecap="round"></path>

      <clipPath id="make-me-a-hanzi-clip-11">
      <path d="M 428.5 430.5 Q 415.5 457.5 400.5 465.5 Q 397.5 469.5 391.5 466.5 Q 387.5 462.5 385.5 452.5 Q 389.5 422.5 360.5 358.5 Q 350.5 342.5 350.5 324.5 Q 353.5 305.5 362.5 292.5 Q 369.5 280.5 375.5 288.5 Q 387.5 291.5 403.5 336.5 Q 418.5 381.5 429.5 399.5 C 437.5 413.5 437.5 413.5 428.5 430.5 Z" fill="lightgray"></path>
      </clipPath>
      <path clip-path="url(#make-me-a-hanzi-clip-11)" d="M 394.5 456.5 L 406.5 428.5 L 404.5 406.5 L 374.5 328.5 L 372.5 300.5 " fill="none" id="make-me-a-hanzi-animation-11" stroke-dasharray="292 584" stroke-linecap="round"></path>

      <clipPath id="make-me-a-hanzi-clip-12">
      <path d="M 429.5 399.5 Q 444.5 393.5 509.5 411.5 Q 647.5 454.5 756.5 464.5 Q 778.5 468.5 789.5 467.5 Q 804.5 463.5 802.5 455.5 Q 802.5 452.5 767.5 383.5 Q 758.5 370.5 764.5 366.5 Q 771.5 363.5 787.5 373.5 Q 839.5 407.5 882.5 419.5 Q 918.5 428.5 917.5 438.5 Q 914.5 448.5 850.5 496.5 Q 826.5 517.5 720.5 490.5 Q 716.5 490.5 505.5 446.5 Q 466.5 439.5 428.5 430.5 C 399.5 423.5 399.5 401.5 429.5 399.5 Z" fill="lightgray"></path>
      </clipPath>
      <path clip-path="url(#make-me-a-hanzi-clip-12)" d="M 434.5 407.5 L 455.5 418.5 L 621.5 458.5 L 756.5 483.5 L 792.5 486.5 L 818.5 480.5 L 839.5 461.5 L 843.5 449.5 L 768.5 371.5 " fill="none" id="make-me-a-hanzi-animation-12" stroke-dasharray="672 1344" stroke-linecap="round"></path>

      <clipPath id="make-me-a-hanzi-clip-13">
      <path d="M 624.5 274.5 Q 637.5 278.5 767.5 301.5 Q 776.5 300.5 783.5 312.5 Q 784.5 322.5 764.5 330.5 Q 731.5 346.5 638.5 316.5 Q 631.5 315.5 626.5 312.5 L 576.5 299.5 Q 473.5 281.5 432.5 275.5 Q 407.5 271.5 427.5 257.5 Q 446.5 244.5 484.5 243.5 Q 512.5 252.5 548.5 257.5 L 624.5 274.5 Z" fill="lightgray"></path>
      </clipPath>
      <path clip-path="url(#make-me-a-hanzi-clip-13)" d="M 428.5 267.5 L 476.5 262.5 L 675.5 307.5 L 737.5 316.5 L 773.5 313.5 " fill="none" id="make-me-a-hanzi-animation-13" stroke-dasharray="479 958" stroke-linecap="round"></path>

      <clipPath id="make-me-a-hanzi-clip-14">
      <path d="M 626.5 312.5 Q 627.5 334.5 631.5 347.5 Q 634.5 359.5 627.5 365.5 Q 605.5 384.5 586.5 394.5 Q 574.5 398.5 565.5 391.5 Q 559.5 388.5 566.5 378.5 Q 575.5 360.5 576.5 299.5 L 573.5 201.5 Q 569.5 66.5 556.5 37.5 Q 541.5 -1.5 586.5 -61.5 Q 590.5 -68.5 597.5 -71.5 Q 607.5 -72.5 613.5 -60.5 Q 626.5 -29.5 623.5 0.5 Q 622.5 127.5 623.5 233.5 Q 623.5 236.5 623.5 238.5 L 624.5 274.5 L 626.5 312.5 Z" fill="lightgray"></path>
      </clipPath>
      <path clip-path="url(#make-me-a-hanzi-clip-14)" d="M 573.5 385.5 L 602.5 349.5 L 595.5 90.5 L 587.5 17.5 L 599.5 -58.5 " fill="none" id="make-me-a-hanzi-animation-14" stroke-dasharray="584 1168" stroke-linecap="round"></path>

      <clipPath id="make-me-a-hanzi-clip-15">
      <path d="M 548.5 257.5 Q 470.5 137.5 282.5 20.5 Q 269.5 10.5 277.5 7.5 Q 286.5 1.5 298.5 5.5 Q 415.5 38.5 536.5 162.5 Q 539.5 168.5 573.5 201.5 C 635.5 262.5 569.5 289.5 548.5 257.5 Z" fill="lightgray"></path>
      </clipPath>
      <path clip-path="url(#make-me-a-hanzi-clip-15)" d="M 570.5 255.5 L 553.5 230.5 L 548.5 211.5 L 449.5 112.5 L 374.5 57.5 L 284.5 12.5 " fill="none" id="make-me-a-hanzi-animation-15" stroke-dasharray="512 1024" stroke-linecap="round"></path>

      <clipPath id="make-me-a-hanzi-clip-16">
      <path d="M 623.5 238.5 Q 686.5 148.5 757.5 64.5 Q 776.5 39.5 814.5 35.5 Q 881.5 26.5 954.5 34.5 Q 972.5 34.5 974.5 39.5 Q 977.5 46.5 963.5 52.5 Q 920.5 71.5 870.5 91.5 Q 815.5 116.5 773.5 146.5 Q 722.5 180.5 673.5 227.5 Q 642.5 260.5 624.5 274.5 C 601.5 293.5 606.5 263.5 623.5 238.5 Z" fill="lightgray"></path>
      </clipPath>
      <path clip-path="url(#make-me-a-hanzi-clip-16)" d="M 625.5 268.5 L 639.5 240.5 L 669.5 204.5 L 791.5 86.5 L 854.5 63.5 L 968.5 41.5 " fill="none" id="make-me-a-hanzi-animation-16" stroke-dasharray="559 1118" stroke-linecap="round"></path>

</g>
</svg>
