<svg version="1.1" viewBox="0 0 1024 1024" xmlns="http://www.w3.org/2000/svg">
  <g stroke="lightgray" stroke-dasharray="1,1" stroke-width="1" transform="scale(4, 4)">
    <line x1="0" y1="0" x2="256" y2="256"></line>
    <line x1="256" y1="0" x2="0" y2="256"></line>
    <line x1="128" y1="0" x2="128" y2="256"></line>
    <line x1="0" y1="128" x2="256" y2="128"></line>
  </g>
  <g transform="scale(0.92, -0.92) translate(60, -850)">
    <style type="text/css">
      
        @keyframes keyframes0 {
          from {
            stroke: blue;
            stroke-dashoffset: 423;
            stroke-width: 128;
          }
          58% {
            animation-timing-function: step-end;
            stroke: blue;
            stroke-dashoffset: 0;
            stroke-width: 128;
          }
          to {
            stroke: black;
            stroke-width: 1024;
          }
        }
        #make-me-a-hanzi-animation-0 {
          animation: keyframes0 0.59423828125s both;
          animation-delay: 0s;
          animation-timing-function: linear;
        }
      
        @keyframes keyframes1 {
          from {
            stroke: blue;
            stroke-dashoffset: 480;
            stroke-width: 128;
          }
          61% {
            animation-timing-function: step-end;
            stroke: blue;
            stroke-dashoffset: 0;
            stroke-width: 128;
          }
          to {
            stroke: black;
            stroke-width: 1024;
          }
        }
        #make-me-a-hanzi-animation-1 {
          animation: keyframes1 0.640625s both;
          animation-delay: 0.59423828125s;
          animation-timing-function: linear;
        }
      
        @keyframes keyframes2 {
          from {
            stroke: blue;
            stroke-dashoffset: 715;
            stroke-width: 128;
          }
          70% {
            animation-timing-function: step-end;
            stroke: blue;
            stroke-dashoffset: 0;
            stroke-width: 128;
          }
          to {
            stroke: black;
            stroke-width: 1024;
          }
        }
        #make-me-a-hanzi-animation-2 {
          animation: keyframes2 0.8318684895833334s both;
          animation-delay: 1.23486328125s;
          animation-timing-function: linear;
        }
      
        @keyframes keyframes3 {
          from {
            stroke: blue;
            stroke-dashoffset: 643;
            stroke-width: 128;
          }
          68% {
            animation-timing-function: step-end;
            stroke: blue;
            stroke-dashoffset: 0;
            stroke-width: 128;
          }
          to {
            stroke: black;
            stroke-width: 1024;
          }
        }
        #make-me-a-hanzi-animation-3 {
          animation: keyframes3 0.7732747395833334s both;
          animation-delay: 2.0667317708333335s;
          animation-timing-function: linear;
        }
      
        @keyframes keyframes4 {
          from {
            stroke: blue;
            stroke-dashoffset: 478;
            stroke-width: 128;
          }
          61% {
            animation-timing-function: step-end;
            stroke: blue;
            stroke-dashoffset: 0;
            stroke-width: 128;
          }
          to {
            stroke: black;
            stroke-width: 1024;
          }
        }
        #make-me-a-hanzi-animation-4 {
          animation: keyframes4 0.6389973958333334s both;
          animation-delay: 2.840006510416667s;
          animation-timing-function: linear;
        }
      
        @keyframes keyframes5 {
          from {
            stroke: blue;
            stroke-dashoffset: 910;
            stroke-width: 128;
          }
          75% {
            animation-timing-function: step-end;
            stroke: blue;
            stroke-dashoffset: 0;
            stroke-width: 128;
          }
          to {
            stroke: black;
            stroke-width: 1024;
          }
        }
        #make-me-a-hanzi-animation-5 {
          animation: keyframes5 0.9905598958333334s both;
          animation-delay: 3.4790039062500004s;
          animation-timing-function: linear;
        }
      
        @keyframes keyframes6 {
          from {
            stroke: blue;
            stroke-dashoffset: 718;
            stroke-width: 128;
          }
          70% {
            animation-timing-function: step-end;
            stroke: blue;
            stroke-dashoffset: 0;
            stroke-width: 128;
          }
          to {
            stroke: black;
            stroke-width: 1024;
          }
        }
        #make-me-a-hanzi-animation-6 {
          animation: keyframes6 0.8343098958333334s both;
          animation-delay: 4.469563802083334s;
          animation-timing-function: linear;
        }
      
        @keyframes keyframes7 {
          from {
            stroke: blue;
            stroke-dashoffset: 605;
            stroke-width: 128;
          }
          66% {
            animation-timing-function: step-end;
            stroke: blue;
            stroke-dashoffset: 0;
            stroke-width: 128;
          }
          to {
            stroke: black;
            stroke-width: 1024;
          }
        }
        #make-me-a-hanzi-animation-7 {
          animation: keyframes7 0.7423502604166666s both;
          animation-delay: 5.303873697916667s;
          animation-timing-function: linear;
        }
      
        @keyframes keyframes8 {
          from {
            stroke: blue;
            stroke-dashoffset: 388;
            stroke-width: 128;
          }
          56% {
            animation-timing-function: step-end;
            stroke: blue;
            stroke-dashoffset: 0;
            stroke-width: 128;
          }
          to {
            stroke: black;
            stroke-width: 1024;
          }
        }
        #make-me-a-hanzi-animation-8 {
          animation: keyframes8 0.5657552083333334s both;
          animation-delay: 6.046223958333334s;
          animation-timing-function: linear;
        }
      
        @keyframes keyframes9 {
          from {
            stroke: blue;
            stroke-dashoffset: 907;
            stroke-width: 128;
          }
          75% {
            animation-timing-function: step-end;
            stroke: blue;
            stroke-dashoffset: 0;
            stroke-width: 128;
          }
          to {
            stroke: black;
            stroke-width: 1024;
          }
        }
        #make-me-a-hanzi-animation-9 {
          animation: keyframes9 0.9881184895833334s both;
          animation-delay: 6.611979166666667s;
          animation-timing-function: linear;
        }
      
    </style>
    
      <path d="M 340 692 L 382 628 Q 425 565 440 558 Q 455 551 465 555 Q 475 559 478 570 Q 482 581 480 601 Q 478 620 466 638 Q 442 668 393 689 Q 345 709 341 702 Q 339 701 340 692 Z" fill="lightgray"></path>
    
      <path d="M 578 599 L 563 580 Q 554 566 555 562 Q 557 557 573 567 L 588 576 L 628 604 Q 652 621 654 623 L 710 669 L 732 682 L 736 686 Q 745 694 724 711 Q 714 722 702 725 Q 656 743 647 738 Q 639 733 637 712 Q 628 664 578 599 Z" fill="lightgray"></path>
    
      <path d="M 544 493 L 620 502 L 748 523 Q 754 524 764 532 Q 785 545 764 558 Q 735 572 719 572 Q 703 572 668 560 Q 633 547 416 521 L 336 512 Q 304 508 300 505 Q 297 502 296 499 Q 296 495 306 487 Q 316 479 328 478 Q 340 472 406 476 L 480 484 L 544 493 Z" fill="lightgray"></path>
    
      <path d="M 549 362 L 692 384 Q 705 385 714 392 Q 724 398 718 403 Q 703 416 674 420 Q 656 420 648 422 Q 630 422 613 418 Q 596 414 553 406 L 495 396 L 330 376 Q 319 375 316 372 Q 314 369 321 359 Q 328 349 347 346 Q 366 343 371 343 Q 376 342 418 347 L 498 357 L 549 362 Z" fill="lightgray"></path>
    
      <path d="M 544 284 L 549 362 L 553 406 L 556 436 Q 556 447 560 459 Q 564 470 563 472 L 558 479 L 544 493 C 523 514 468 511 480 484 L 488 466 Q 496 436 496 422 L 495 396 L 498 357 L 498 279 C 498 249 542 254 544 284 Z" fill="lightgray"></path>
    
      <path d="M 418 232 L 527 242 Q 552 246 637 250 Q 710 256 740 256 L 845 260 Q 851 260 853 266 Q 856 271 846 281 Q 840 290 826 296 L 811 304 Q 788 314 785 314 Q 782 314 749 306 Q 717 298 686 298 L 544 284 L 498 279 L 412 269 Q 328 259 271 254 L 202 249 Q 190 248 187 245 Q 184 242 186 236 Q 188 229 205 221 Q 222 213 229 212 Q 244 203 266 209 Q 289 215 311 218 L 379 230 L 418 232 Z" fill="lightgray"></path>
    
      <path d="M 386 112 L 414 148 Q 414 149 426 163 Q 439 177 448 182 L 457 190 Q 460 198 453 206 Q 446 214 441 217 Q 436 219 418 232 C 393 249 389 252 379 230 L 364 196 Q 352 168 330 134 Q 289 72 223 8 Q 167 -44 124 -75 L 106 -88 Q 98 -97 99 -101 Q 100 -105 113 -100 L 136 -90 Q 148 -86 186 -64 Q 224 -43 248 -23 Q 270 -8 297 17 L 339 61 L 379 107 L 386 112 Z" fill="lightgray"></path>
    
      <path d="M 590 94 L 703 108 Q 722 110 731 113 Q 740 115 741 122 Q 743 128 726 141 Q 710 154 694 154 Q 678 154 652 149 Q 617 141 575 134 L 489 122 Q 458 118 437 116 L 418 115 Q 400 114 386 112 C 376 111 376 111 379 107 L 388 96 Q 391 90 404 86 Q 424 75 470 80 L 528 86 L 590 94 Z" fill="lightgray"></path>
    
      <path d="M 578 -34 L 590 18 Q 596 44 602 55 Q 608 65 609 70 Q 610 74 590 94 C 569 115 526 116 528 86 L 531 44 Q 533 26 531 -40 C 530 -70 571 -63 578 -34 Z" fill="lightgray"></path>
    
      <path d="M 835 -10 L 700 -26 L 578 -34 L 531 -40 L 450 -47 Q 377 -54 362 -54 L 294 -56 Q 266 -58 263 -59 Q 260 -61 259 -65 Q 259 -69 266 -76 Q 274 -84 296 -96 Q 319 -108 328 -107 Q 337 -106 376 -99 Q 415 -92 478 -89 Q 541 -86 616 -78 Q 692 -70 843 -74 L 897 -74 Q 919 -74 921 -68 Q 923 -63 916 -53 Q 914 -52 891 -34 L 861 -17 Q 846 -11 835 -10 Z" fill="lightgray"></path>
    
    
      <clipPath id="make-me-a-hanzi-clip-0">
        <path d="M 340 692 L 382 628 Q 425 565 440 558 Q 455 551 465 555 Q 475 559 478 570 Q 482 581 480 601 Q 478 620 466 638 Q 442 668 393 689 Q 345 709 341 702 Q 339 701 340 692 Z"></path>
      </clipPath>
      <path clip-path="url(#make-me-a-hanzi-clip-0)" d="M 346 696 L 376 676 L 428 626 L 457 575" fill="none" id="make-me-a-hanzi-animation-0" stroke-dasharray="295 590" stroke-linecap="round"></path>
    
      <clipPath id="make-me-a-hanzi-clip-1">
        <path d="M 578 599 L 563 580 Q 554 566 555 562 Q 557 557 573 567 L 588 576 L 628 604 Q 652 621 654 623 L 710 669 L 732 682 L 736 686 Q 745 694 724 711 Q 714 722 702 725 Q 656 743 647 738 Q 639 733 637 712 Q 628 664 578 599 Z"></path>
      </clipPath>
      <path clip-path="url(#make-me-a-hanzi-clip-1)" d="M 725 693 L 674 692 L 613 615 L 558 565" fill="none" id="make-me-a-hanzi-animation-1" stroke-dasharray="352 704" stroke-linecap="round"></path>
    
      <clipPath id="make-me-a-hanzi-clip-2">
        <path d="M 544 493 L 620 502 L 748 523 Q 754 524 764 532 Q 785 545 764 558 Q 735 572 719 572 Q 703 572 668 560 Q 633 547 416 521 L 336 512 Q 304 508 300 505 Q 297 502 296 499 Q 296 495 306 487 Q 316 479 328 478 Q 340 472 406 476 L 480 484 L 544 493 Z"></path>
      </clipPath>
      <path clip-path="url(#make-me-a-hanzi-clip-2)" d="M 306 497 L 393 495 L 610 523 L 717 545 L 761 545" fill="none" id="make-me-a-hanzi-animation-2" stroke-dasharray="587 1174" stroke-linecap="round"></path>
    
      <clipPath id="make-me-a-hanzi-clip-3">
        <path d="M 549 362 L 692 384 Q 705 385 714 392 Q 724 398 718 403 Q 703 416 674 420 Q 656 420 648 422 Q 630 422 613 418 Q 596 414 553 406 L 495 396 L 330 376 Q 319 375 316 372 Q 314 369 321 359 Q 328 349 347 346 Q 366 343 371 343 Q 376 342 418 347 L 498 357 L 549 362 Z"></path>
      </clipPath>
      <path clip-path="url(#make-me-a-hanzi-clip-3)" d="M 325 368 L 343 362 L 404 364 L 643 400 L 708 400" fill="none" id="make-me-a-hanzi-animation-3" stroke-dasharray="515 1030" stroke-linecap="round"></path>
    
      <clipPath id="make-me-a-hanzi-clip-4">
        <path d="M 544 284 L 549 362 L 553 406 L 556 436 Q 556 447 560 459 Q 564 470 563 472 L 558 479 L 544 493 C 523 514 468 511 480 484 L 488 466 Q 496 436 496 422 L 495 396 L 498 357 L 498 279 C 498 249 542 254 544 284 Z"></path>
      </clipPath>
      <path clip-path="url(#make-me-a-hanzi-clip-4)" d="M 487 482 L 525 457 L 522 305 L 505 287" fill="none" id="make-me-a-hanzi-animation-4" stroke-dasharray="350 700" stroke-linecap="round"></path>
    
      <clipPath id="make-me-a-hanzi-clip-5">
        <path d="M 418 232 L 527 242 Q 552 246 637 250 Q 710 256 740 256 L 845 260 Q 851 260 853 266 Q 856 271 846 281 Q 840 290 826 296 L 811 304 Q 788 314 785 314 Q 782 314 749 306 Q 717 298 686 298 L 544 284 L 498 279 L 412 269 Q 328 259 271 254 L 202 249 Q 190 248 187 245 Q 184 242 186 236 Q 188 229 205 221 Q 222 213 229 212 Q 244 203 266 209 Q 289 215 311 218 L 379 230 L 418 232 Z"></path>
      </clipPath>
      <path clip-path="url(#make-me-a-hanzi-clip-5)" d="M 197 239 L 248 229 L 405 251 L 780 285 L 845 269" fill="none" id="make-me-a-hanzi-animation-5" stroke-dasharray="782 1564" stroke-linecap="round"></path>
    
      <clipPath id="make-me-a-hanzi-clip-6">
        <path d="M 386 112 L 414 148 Q 414 149 426 163 Q 439 177 448 182 L 457 190 Q 460 198 453 206 Q 446 214 441 217 Q 436 219 418 232 C 393 249 389 252 379 230 L 364 196 Q 352 168 330 134 Q 289 72 223 8 Q 167 -44 124 -75 L 106 -88 Q 98 -97 99 -101 Q 100 -105 113 -100 L 136 -90 Q 148 -86 186 -64 Q 224 -43 248 -23 Q 270 -8 297 17 L 339 61 L 379 107 L 386 112 Z"></path>
      </clipPath>
      <path clip-path="url(#make-me-a-hanzi-clip-6)" d="M 445 195 L 404 194 L 354 119 L 264 16 L 199 -38 L 106 -96" fill="none" id="make-me-a-hanzi-animation-6" stroke-dasharray="590 1180" stroke-linecap="round"></path>
    
      <clipPath id="make-me-a-hanzi-clip-7">
        <path d="M 590 94 L 703 108 Q 722 110 731 113 Q 740 115 741 122 Q 743 128 726 141 Q 710 154 694 154 Q 678 154 652 149 Q 617 141 575 134 L 489 122 Q 458 118 437 116 L 418 115 Q 400 114 386 112 C 376 111 376 111 379 107 L 388 96 Q 391 90 404 86 Q 424 75 470 80 L 528 86 L 590 94 Z"></path>
      </clipPath>
      <path clip-path="url(#make-me-a-hanzi-clip-7)" d="M 386 104 L 445 97 L 696 131 L 731 123" fill="none" id="make-me-a-hanzi-animation-7" stroke-dasharray="477 954" stroke-linecap="round"></path>
    
      <clipPath id="make-me-a-hanzi-clip-8">
        <path d="M 578 -34 L 590 18 Q 596 44 602 55 Q 608 65 609 70 Q 610 74 590 94 C 569 115 526 116 528 86 L 531 44 Q 533 26 531 -40 C 530 -70 571 -63 578 -34 Z"></path>
      </clipPath>
      <path clip-path="url(#make-me-a-hanzi-clip-8)" d="M 599 70 L 582 69 L 565 56 L 556 -11 L 538 -30" fill="none" id="make-me-a-hanzi-animation-8" stroke-dasharray="260 520" stroke-linecap="round"></path>
    
      <clipPath id="make-me-a-hanzi-clip-9">
        <path d="M 835 -10 L 700 -26 L 578 -34 L 531 -40 L 450 -47 Q 377 -54 362 -54 L 294 -56 Q 266 -58 263 -59 Q 260 -61 259 -65 Q 259 -69 266 -76 Q 274 -84 296 -96 Q 319 -108 328 -107 Q 337 -106 376 -99 Q 415 -92 478 -89 Q 541 -86 616 -78 Q 692 -70 843 -74 L 897 -74 Q 919 -74 921 -68 Q 923 -63 916 -53 Q 914 -52 891 -34 L 861 -17 Q 846 -11 835 -10 Z"></path>
      </clipPath>
      <path clip-path="url(#make-me-a-hanzi-clip-9)" d="M 268 -67 L 328 -81 L 618 -54 L 831 -42 L 913 -62" fill="none" id="make-me-a-hanzi-animation-9" stroke-dasharray="779 1558" stroke-linecap="round"></path>
    
  </g>
</svg>