<svg version="1.1" viewBox="0 0 1024 1024" xmlns="http://www.w3.org/2000/svg">
  <g stroke="lightgray" stroke-dasharray="1,1" stroke-width="1" transform="scale(4, 4)">
    <line x1="0" y1="0" x2="256" y2="256"></line>
    <line x1="256" y1="0" x2="0" y2="256"></line>
    <line x1="128" y1="0" x2="128" y2="256"></line>
    <line x1="0" y1="128" x2="256" y2="128"></line>
  </g>
<g transform="scale(0.92, -0.92) translate(60, -900)">
   <style type="text/css">
    @keyframes keyframes0 {
      from {
       stroke: blue;
       stroke-dashoffset: 718;
       stroke-width: 128;
       }
       70% {
       animation-timing-function: step-end;
       stroke: blue;
       stroke-dashoffset: 0;
       stroke-width: 128;
       }
       to {
       stroke: black;
       stroke-width: 1024;
       }
       }
       #make-me-a-hanzi-animation-0 {
         animation: keyframes0 0.834310s both;
         animation-delay: 0.000000s;
         animation-timing-function: linear;
       }
    @keyframes keyframes1 {
      from {
       stroke: blue;
       stroke-dashoffset: 701;
       stroke-width: 128;
       }
       70% {
       animation-timing-function: step-end;
       stroke: blue;
       stroke-dashoffset: 0;
       stroke-width: 128;
       }
       to {
       stroke: black;
       stroke-width: 1024;
       }
       }
       #make-me-a-hanzi-animation-1 {
         animation: keyframes1 0.820475s both;
         animation-delay: 0.834310s;
         animation-timing-function: linear;
       }
    @keyframes keyframes2 {
      from {
       stroke: blue;
       stroke-dashoffset: 947;
       stroke-width: 128;
       }
       76% {
       animation-timing-function: step-end;
       stroke: blue;
       stroke-dashoffset: 0;
       stroke-width: 128;
       }
       to {
       stroke: black;
       stroke-width: 1024;
       }
       }
       #make-me-a-hanzi-animation-2 {
         animation: keyframes2 1.020671s both;
         animation-delay: 1.654785s;
         animation-timing-function: linear;
       }
    @keyframes keyframes3 {
      from {
       stroke: blue;
       stroke-dashoffset: 586;
       stroke-width: 128;
       }
       66% {
       animation-timing-function: step-end;
       stroke: blue;
       stroke-dashoffset: 0;
       stroke-width: 128;
       }
       to {
       stroke: black;
       stroke-width: 1024;
       }
       }
       #make-me-a-hanzi-animation-3 {
         animation: keyframes3 0.726888s both;
         animation-delay: 2.675456s;
         animation-timing-function: linear;
       }
    @keyframes keyframes4 {
      from {
       stroke: blue;
       stroke-dashoffset: 891;
       stroke-width: 128;
       }
       74% {
       animation-timing-function: step-end;
       stroke: blue;
       stroke-dashoffset: 0;
       stroke-width: 128;
       }
       to {
       stroke: black;
       stroke-width: 1024;
       }
       }
       #make-me-a-hanzi-animation-4 {
         animation: keyframes4 0.975098s both;
         animation-delay: 3.402344s;
         animation-timing-function: linear;
       }
    @keyframes keyframes5 {
      from {
       stroke: blue;
       stroke-dashoffset: 599;
       stroke-width: 128;
       }
       66% {
       animation-timing-function: step-end;
       stroke: blue;
       stroke-dashoffset: 0;
       stroke-width: 128;
       }
       to {
       stroke: black;
       stroke-width: 1024;
       }
       }
       #make-me-a-hanzi-animation-5 {
         animation: keyframes5 0.737467s both;
         animation-delay: 4.377441s;
         animation-timing-function: linear;
       }
    @keyframes keyframes6 {
      from {
       stroke: blue;
       stroke-dashoffset: 720;
       stroke-width: 128;
       }
       70% {
       animation-timing-function: step-end;
       stroke: blue;
       stroke-dashoffset: 0;
       stroke-width: 128;
       }
       to {
       stroke: black;
       stroke-width: 1024;
       }
       }
       #make-me-a-hanzi-animation-6 {
         animation: keyframes6 0.835938s both;
         animation-delay: 5.114909s;
         animation-timing-function: linear;
       }
    @keyframes keyframes7 {
      from {
       stroke: blue;
       stroke-dashoffset: 483;
       stroke-width: 128;
       }
       61% {
       animation-timing-function: step-end;
       stroke: blue;
       stroke-dashoffset: 0;
       stroke-width: 128;
       }
       to {
       stroke: black;
       stroke-width: 1024;
       }
       }
       #make-me-a-hanzi-animation-7 {
         animation: keyframes7 0.643066s both;
         animation-delay: 5.950846s;
         animation-timing-function: linear;
       }
    @keyframes keyframes8 {
      from {
       stroke: blue;
       stroke-dashoffset: 735;
       stroke-width: 128;
       }
       71% {
       animation-timing-function: step-end;
       stroke: blue;
       stroke-dashoffset: 0;
       stroke-width: 128;
       }
       to {
       stroke: black;
       stroke-width: 1024;
       }
       }
       #make-me-a-hanzi-animation-8 {
         animation: keyframes8 0.848145s both;
         animation-delay: 6.593913s;
         animation-timing-function: linear;
       }
</style>
<path d="M 429.5 744.0 L 455.5 776.0 L 464.5 784.0 Q 467.5 787.0 467.5 792.0 L 467.5 795.0 Q 467.5 799.0 465.5 805.0 Q 461.5 813.0 454.5 824.0 Q 447.5 835.0 432.5 847.0 Q 420.5 855.0 414.5 855.0 Q 412.5 855.0 411.5 854.0 Q 403.5 851.0 401.5 847.0 Q 399.5 843.0 399.5 835.0 Q 399.5 827.0 396.5 817.0 Q 394.5 807.0 382.5 781.0 Q 370.5 753.0 363.5 741.0 Q 357.5 729.0 344.5 707.0 Q 331.5 687.0 319.5 673.0 Q 305.5 659.0 290.5 649.0 Q 275.5 641.0 271.5 637.0 Q 268.5 633.0 265.5 627.0 Q 263.5 621.0 263.5 611.0 L 263.5 603.0 Q 265.5 587.0 271.5 574.0 Q 278.5 561.0 281.5 559.0 Q 283.5 558.0 286.5 558.0 Q 288.5 558.0 291.5 559.0 Q 296.5 559.0 306.5 563.0 Q 315.5 567.0 331.5 573.0 Q 346.5 579.0 359.5 582.0 L 499.5 617.0 C 528.5 624.0 546.5 646.0 516.5 644.0 L 380.5 633.0 Q 365.5 632.0 360.5 632.0 L 357.5 632.0 L 357.5 633.0 Q 357.5 636.0 371.5 658.0 L 409.5 715.0 L 429.5 744.0 Z" fill="lightgray"></path> 
<path d="M 482.5 531.0 L 527.5 578.0 L 591.5 651.0 L 620.5 685.0 Q 637.5 705.0 656.5 718.0 Q 675.5 731.0 677.5 736.0 Q 680.5 740.0 680.5 745.0 Q 680.5 747.0 679.5 750.0 Q 677.5 757.0 659.5 768.0 Q 641.5 779.0 626.5 784.0 Q 611.5 789.0 603.5 789.0 Q 597.5 788.0 587.5 784.0 L 549.5 770.0 Q 522.5 760.0 497.5 754.0 Q 471.5 749.0 459.5 747.0 Q 445.5 745.0 429.5 744.0 C 399.5 742.0 379.5 717.0 409.5 715.0 L 445.5 713.0 L 465.5 713.0 Q 477.5 713.0 519.5 717.0 L 541.5 719.0 L 545.5 719.0 Q 551.5 719.0 553.5 716.0 Q 554.5 715.0 554.5 714.0 Q 554.5 709.0 545.5 695.0 L 516.5 644.0 L 499.5 617.0 L 441.5 528.0 C 425.5 503.0 461.5 509.0 482.5 531.0 Z" fill="lightgray"></path> 
<path d="M 425.5 487.0 L 637.5 501.0 Q 651.5 503.0 711.5 504.0 L 777.5 505.0 Q 787.5 505.0 793.5 509.0 Q 799.5 512.0 801.5 516.0 L 801.5 521.0 Q 801.5 523.0 797.5 529.0 Q 793.5 535.0 776.5 544.0 Q 759.5 553.0 747.5 557.0 Q 735.5 561.0 723.5 562.0 L 671.5 554.0 L 482.5 531.0 L 441.5 528.0 L 361.5 518.0 L 257.5 507.0 Q 177.5 499.0 163.5 498.0 L 109.5 494.0 Q 105.5 493.0 103.5 491.0 Q 101.5 489.0 101.5 487.0 Q 101.5 485.0 102.5 484.0 Q 103.5 483.0 105.5 479.0 Q 109.5 475.0 129.5 465.0 Q 151.5 456.0 171.5 455.0 L 175.5 455.0 Q 186.5 455.0 208.5 459.0 Q 235.5 464.0 277.5 469.0 L 361.5 479.0 L 425.5 487.0 Z" fill="lightgray"></path> 
<path d="M 381.5 429.0 L 399.5 441.0 Q 401.5 441.0 416.5 449.0 Q 431.5 457.0 434.5 461.0 Q 435.5 463.0 435.5 466.0 Q 435.5 469.0 434.5 472.0 Q 431.5 479.0 425.5 487.0 C 408.5 512.0 382.5 500.0 361.5 479.0 L 339.5 457.0 Q 319.5 438.0 285.5 414.0 Q 251.5 391.0 221.5 375.0 Q 191.5 359.0 169.5 351.0 L 135.5 338.0 Q 128.5 336.0 128.5 331.0 L 128.5 329.0 Q 129.5 326.0 134.5 326.0 L 137.5 326.0 L 170.5 331.0 Q 187.5 333.0 214.5 340.0 Q 241.5 347.0 267.5 359.0 Q 293.5 371.0 317.5 385.0 L 361.5 414.0 L 381.5 429.0 Z" fill="lightgray"></path> 
<path d="M 475.5 240.0 L 475.5 152.0 Q 475.5 125.0 467.5 94.0 Q 457.5 57.0 447.5 41.0 Q 437.5 25.0 429.5 17.0 Q 420.5 11.0 412.5 9.0 Q 409.5 8.0 405.5 8.0 Q 401.5 8.0 396.5 9.0 Q 388.5 11.0 379.5 14.0 L 344.5 26.0 Q 336.5 29.0 331.5 29.0 Q 328.5 29.0 327.5 27.0 L 327.5 25.0 Q 327.5 20.0 333.5 14.0 L 349.5 -2.0 Q 357.5 -11.0 377.5 -30.0 Q 395.5 -50.0 405.5 -63.0 Q 415.5 -75.0 419.5 -77.0 Q 423.5 -79.0 426.5 -79.0 L 428.5 -79.0 Q 436.5 -79.0 456.5 -68.0 Q 478.5 -55.0 497.5 -21.0 Q 515.5 12.0 525.5 51.0 Q 535.5 92.0 535.5 125.0 Q 535.5 159.0 532.5 183.0 Q 529.5 206.0 521.5 250.0 L 513.5 300.0 L 481.5 343.0 Q 449.5 385.0 425.5 402.0 Q 400.5 418.0 381.5 429.0 C 355.5 444.0 339.5 435.0 361.5 414.0 L 391.5 385.0 L 429.5 345.0 L 447.5 307.0 L 475.5 240.0 Z" fill="lightgray"></path> 
<path d="M 391.5 385.0 L 367.5 358.0 Q 353.5 340.0 323.5 316.0 Q 293.5 291.0 275.5 279.0 Q 256.5 266.0 215.5 241.0 Q 175.5 215.0 159.5 209.0 L 125.5 194.0 Q 120.5 191.0 120.5 187.0 L 120.5 185.0 Q 121.5 181.0 126.5 181.0 Q 129.5 181.0 133.5 183.0 L 167.5 191.0 Q 193.5 198.0 215.5 206.0 Q 237.5 214.0 274.5 231.0 Q 311.5 249.0 343.5 272.0 Q 375.5 295.0 393.5 311.0 L 429.5 345.0 C 451.5 366.0 411.5 407.0 391.5 385.0 Z" fill="lightgray"></path> 
<path d="M 447.5 307.0 L 429.5 279.0 Q 415.5 259.0 371.5 215.0 Q 327.5 173.0 287.5 145.0 Q 248.5 117.0 209.5 95.0 Q 171.5 73.0 134.5 55.0 L 101.5 37.0 Q 92.5 33.0 92.5 29.0 Q 92.5 27.0 93.5 26.0 Q 95.5 22.0 99.5 22.0 Q 100.5 22.0 102.5 23.0 L 137.5 33.0 Q 162.5 39.0 209.5 56.0 Q 255.5 72.0 295.5 94.0 Q 335.5 117.0 370.5 144.0 Q 405.5 172.0 427.5 193.0 L 475.5 240.0 C 496.5 261.0 463.5 332.0 447.5 307.0 Z" fill="lightgray"></path> 
<path d="M 531.5 289.0 L 561.5 303.0 Q 587.5 313.0 627.5 335.0 Q 667.5 357.0 677.5 361.0 Q 687.5 366.0 701.5 371.0 Q 715.5 377.0 719.5 381.0 Q 723.5 385.0 723.5 391.0 L 723.5 394.0 Q 723.5 403.0 711.5 417.0 Q 698.5 434.0 682.5 446.0 Q 666.5 457.0 658.5 461.0 Q 652.5 463.0 648.5 463.0 Q 646.5 463.0 644.5 462.0 Q 640.5 460.0 635.5 449.0 Q 631.5 439.0 621.5 420.0 Q 610.5 402.0 596.5 384.0 Q 583.5 366.0 560.5 342.0 Q 537.5 319.0 529.5 312.0 Q 521.5 305.0 513.5 300.0 C 488.5 283.0 504.5 276.0 531.5 289.0 Z" fill="lightgray"></path> 
<path d="M 521.5 250.0 L 590.5 183.0 Q 643.5 130.0 677.5 103.0 Q 711.5 77.0 730.5 69.0 Q 748.5 61.0 767.5 61.0 Q 780.5 61.0 816.5 67.0 Q 852.5 75.0 871.5 81.0 L 917.5 94.0 Q 931.5 98.0 931.5 103.0 L 931.5 105.0 Q 927.5 111.0 921.5 112.0 L 867.5 123.0 L 811.5 135.0 Q 776.5 142.0 724.5 161.0 Q 673.5 181.0 635.5 205.0 Q 598.5 231.0 577.5 248.0 L 531.5 289.0 C 509.5 309.0 470.5 299.0 521.5 250.0 Z" fill="lightgray"></path> 
      <clipPath id="make-me-a-hanzi-clip-0">
      <path d="M 429.5 744.0 L 455.5 776.0 L 464.5 784.0 Q 467.5 787.0 467.5 792.0 L 467.5 795.0 Q 467.5 799.0 465.5 805.0 Q 461.5 813.0 454.5 824.0 Q 447.5 835.0 432.5 847.0 Q 420.5 855.0 414.5 855.0 Q 412.5 855.0 411.5 854.0 Q 403.5 851.0 401.5 847.0 Q 399.5 843.0 399.5 835.0 Q 399.5 827.0 396.5 817.0 Q 394.5 807.0 382.5 781.0 Q 370.5 753.0 363.5 741.0 Q 357.5 729.0 344.5 707.0 Q 331.5 687.0 319.5 673.0 Q 305.5 659.0 290.5 649.0 Q 275.5 641.0 271.5 637.0 Q 268.5 633.0 265.5 627.0 Q 263.5 621.0 263.5 611.0 L 263.5 603.0 Q 265.5 587.0 271.5 574.0 Q 278.5 561.0 281.5 559.0 Q 283.5 558.0 286.5 558.0 Q 288.5 558.0 291.5 559.0 Q 296.5 559.0 306.5 563.0 Q 315.5 567.0 331.5 573.0 Q 346.5 579.0 359.5 582.0 L 499.5 617.0 C 528.5 624.0 546.5 646.0 516.5 644.0 L 380.5 633.0 Q 365.5 632.0 360.5 632.0 L 357.5 632.0 L 357.5 633.0 Q 357.5 636.0 371.5 658.0 L 409.5 715.0 L 429.5 744.0 Z" fill="lightgray"></path>
      </clipPath>
      <path clip-path="url(#make-me-a-hanzi-clip-0)" d="M 415.5 846.0 L 428.5 799.0 L 317.5 614.0 L 360.5 607.0 L 489.5 627.0 L 509.5 639.0 " fill="none" id="make-me-a-hanzi-animation-0" stroke-dasharray="590 1180" stroke-linecap="round"></path>

      <clipPath id="make-me-a-hanzi-clip-1">
      <path d="M 482.5 531.0 L 527.5 578.0 L 591.5 651.0 L 620.5 685.0 Q 637.5 705.0 656.5 718.0 Q 675.5 731.0 677.5 736.0 Q 680.5 740.0 680.5 745.0 Q 680.5 747.0 679.5 750.0 Q 677.5 757.0 659.5 768.0 Q 641.5 779.0 626.5 784.0 Q 611.5 789.0 603.5 789.0 Q 597.5 788.0 587.5 784.0 L 549.5 770.0 Q 522.5 760.0 497.5 754.0 Q 471.5 749.0 459.5 747.0 Q 445.5 745.0 429.5 744.0 C 399.5 742.0 379.5 717.0 409.5 715.0 L 445.5 713.0 L 465.5 713.0 Q 477.5 713.0 519.5 717.0 L 541.5 719.0 L 545.5 719.0 Q 551.5 719.0 553.5 716.0 Q 554.5 715.0 554.5 714.0 Q 554.5 709.0 545.5 695.0 L 516.5 644.0 L 499.5 617.0 L 441.5 528.0 C 425.5 503.0 461.5 509.0 482.5 531.0 Z" fill="lightgray"></path>
      </clipPath>
      <path clip-path="url(#make-me-a-hanzi-clip-1)" d="M 415.5 718.0 L 440.5 729.0 L 551.5 744.0 L 581.5 742.0 L 599.5 734.0 L 581.5 689.0 L 523.5 609.0 L 474.5 547.0 L 448.5 533.0 " fill="none" id="make-me-a-hanzi-animation-1" stroke-dasharray="573 1146" stroke-linecap="round"></path>

      <clipPath id="make-me-a-hanzi-clip-2">
      <path d="M 425.5 487.0 L 637.5 501.0 Q 651.5 503.0 711.5 504.0 L 777.5 505.0 Q 787.5 505.0 793.5 509.0 Q 799.5 512.0 801.5 516.0 L 801.5 521.0 Q 801.5 523.0 797.5 529.0 Q 793.5 535.0 776.5 544.0 Q 759.5 553.0 747.5 557.0 Q 735.5 561.0 723.5 562.0 L 671.5 554.0 L 482.5 531.0 L 441.5 528.0 L 361.5 518.0 L 257.5 507.0 Q 177.5 499.0 163.5 498.0 L 109.5 494.0 Q 105.5 493.0 103.5 491.0 Q 101.5 489.0 101.5 487.0 Q 101.5 485.0 102.5 484.0 Q 103.5 483.0 105.5 479.0 Q 109.5 475.0 129.5 465.0 Q 151.5 456.0 171.5 455.0 L 175.5 455.0 Q 186.5 455.0 208.5 459.0 Q 235.5 464.0 277.5 469.0 L 361.5 479.0 L 425.5 487.0 Z" fill="lightgray"></path>
      </clipPath>
      <path clip-path="url(#make-me-a-hanzi-clip-2)" d="M 106.5 487.0 L 167.5 476.0 L 423.5 507.0 L 721.5 533.0 L 792.5 519.0 " fill="none" id="make-me-a-hanzi-animation-2" stroke-dasharray="819 1638" stroke-linecap="round"></path>

      <clipPath id="make-me-a-hanzi-clip-3">
      <path d="M 381.5 429.0 L 399.5 441.0 Q 401.5 441.0 416.5 449.0 Q 431.5 457.0 434.5 461.0 Q 435.5 463.0 435.5 466.0 Q 435.5 469.0 434.5 472.0 Q 431.5 479.0 425.5 487.0 C 408.5 512.0 382.5 500.0 361.5 479.0 L 339.5 457.0 Q 319.5 438.0 285.5 414.0 Q 251.5 391.0 221.5 375.0 Q 191.5 359.0 169.5 351.0 L 135.5 338.0 Q 128.5 336.0 128.5 331.0 L 128.5 329.0 Q 129.5 326.0 134.5 326.0 L 137.5 326.0 L 170.5 331.0 Q 187.5 333.0 214.5 340.0 Q 241.5 347.0 267.5 359.0 Q 293.5 371.0 317.5 385.0 L 361.5 414.0 L 381.5 429.0 Z" fill="lightgray"></path>
      </clipPath>
      <path clip-path="url(#make-me-a-hanzi-clip-3)" d="M 420.5 478.0 L 417.5 469.0 L 371.5 453.0 L 301.5 399.0 L 254.5 372.0 L 203.5 350.0 L 132.5 330.0 " fill="none" id="make-me-a-hanzi-animation-3" stroke-dasharray="458 916" stroke-linecap="round"></path>

      <clipPath id="make-me-a-hanzi-clip-4">
      <path d="M 475.5 240.0 L 475.5 152.0 Q 475.5 125.0 467.5 94.0 Q 457.5 57.0 447.5 41.0 Q 437.5 25.0 429.5 17.0 Q 420.5 11.0 412.5 9.0 Q 409.5 8.0 405.5 8.0 Q 401.5 8.0 396.5 9.0 Q 388.5 11.0 379.5 14.0 L 344.5 26.0 Q 336.5 29.0 331.5 29.0 Q 328.5 29.0 327.5 27.0 L 327.5 25.0 Q 327.5 20.0 333.5 14.0 L 349.5 -2.0 Q 357.5 -11.0 377.5 -30.0 Q 395.5 -50.0 405.5 -63.0 Q 415.5 -75.0 419.5 -77.0 Q 423.5 -79.0 426.5 -79.0 L 428.5 -79.0 Q 436.5 -79.0 456.5 -68.0 Q 478.5 -55.0 497.5 -21.0 Q 515.5 12.0 525.5 51.0 Q 535.5 92.0 535.5 125.0 Q 535.5 159.0 532.5 183.0 Q 529.5 206.0 521.5 250.0 L 513.5 300.0 L 481.5 343.0 Q 449.5 385.0 425.5 402.0 Q 400.5 418.0 381.5 429.0 C 355.5 444.0 339.5 435.0 361.5 414.0 L 391.5 385.0 L 429.5 345.0 L 447.5 307.0 L 475.5 240.0 Z" fill="lightgray"></path>
      </clipPath>
      <path clip-path="url(#make-me-a-hanzi-clip-4)" d="M 370.5 413.0 L 389.5 408.0 L 442.5 361.0 L 486.5 289.0 L 500.5 238.0 L 503.5 107.0 L 480.5 26.0 L 459.5 -9.0 L 434.5 -30.0 L 385.5 -10.0 L 330.5 26.0 " fill="none" id="make-me-a-hanzi-animation-4" stroke-dasharray="763 1526" stroke-linecap="round"></path>

      <clipPath id="make-me-a-hanzi-clip-5">
      <path d="M 391.5 385.0 L 367.5 358.0 Q 353.5 340.0 323.5 316.0 Q 293.5 291.0 275.5 279.0 Q 256.5 266.0 215.5 241.0 Q 175.5 215.0 159.5 209.0 L 125.5 194.0 Q 120.5 191.0 120.5 187.0 L 120.5 185.0 Q 121.5 181.0 126.5 181.0 Q 129.5 181.0 133.5 183.0 L 167.5 191.0 Q 193.5 198.0 215.5 206.0 Q 237.5 214.0 274.5 231.0 Q 311.5 249.0 343.5 272.0 Q 375.5 295.0 393.5 311.0 L 429.5 345.0 C 451.5 366.0 411.5 407.0 391.5 385.0 Z" fill="lightgray"></path>
      </clipPath>
      <path clip-path="url(#make-me-a-hanzi-clip-5)" d="M 392.5 376.0 L 389.5 343.0 L 304.5 272.0 L 224.5 226.0 L 125.5 186.0 " fill="none" id="make-me-a-hanzi-animation-5" stroke-dasharray="471 942" stroke-linecap="round"></path>

      <clipPath id="make-me-a-hanzi-clip-6">
      <path d="M 447.5 307.0 L 429.5 279.0 Q 415.5 259.0 371.5 215.0 Q 327.5 173.0 287.5 145.0 Q 248.5 117.0 209.5 95.0 Q 171.5 73.0 134.5 55.0 L 101.5 37.0 Q 92.5 33.0 92.5 29.0 Q 92.5 27.0 93.5 26.0 Q 95.5 22.0 99.5 22.0 Q 100.5 22.0 102.5 23.0 L 137.5 33.0 Q 162.5 39.0 209.5 56.0 Q 255.5 72.0 295.5 94.0 Q 335.5 117.0 370.5 144.0 Q 405.5 172.0 427.5 193.0 L 475.5 240.0 C 496.5 261.0 463.5 332.0 447.5 307.0 Z" fill="lightgray"></path>
      </clipPath>
      <path clip-path="url(#make-me-a-hanzi-clip-6)" d="M 448.5 300.0 L 441.5 246.0 L 338.5 151.0 L 225.5 82.0 L 99.5 28.0 " fill="none" id="make-me-a-hanzi-animation-6" stroke-dasharray="592 1184" stroke-linecap="round"></path>

      <clipPath id="make-me-a-hanzi-clip-7">
      <path d="M 531.5 289.0 L 561.5 303.0 Q 587.5 313.0 627.5 335.0 Q 667.5 357.0 677.5 361.0 Q 687.5 366.0 701.5 371.0 Q 715.5 377.0 719.5 381.0 Q 723.5 385.0 723.5 391.0 L 723.5 394.0 Q 723.5 403.0 711.5 417.0 Q 698.5 434.0 682.5 446.0 Q 666.5 457.0 658.5 461.0 Q 652.5 463.0 648.5 463.0 Q 646.5 463.0 644.5 462.0 Q 640.5 460.0 635.5 449.0 Q 631.5 439.0 621.5 420.0 Q 610.5 402.0 596.5 384.0 Q 583.5 366.0 560.5 342.0 Q 537.5 319.0 529.5 312.0 Q 521.5 305.0 513.5 300.0 C 488.5 283.0 504.5 276.0 531.5 289.0 Z" fill="lightgray"></path>
      </clipPath>
      <path clip-path="url(#make-me-a-hanzi-clip-7)" d="M 649.5 449.0 L 663.5 404.0 L 571.5 326.0 L 531.5 301.0 L 519.5 300.0 " fill="none" id="make-me-a-hanzi-animation-7" stroke-dasharray="355 710" stroke-linecap="round"></path>

      <clipPath id="make-me-a-hanzi-clip-8">
      <path d="M 521.5 250.0 L 590.5 183.0 Q 643.5 130.0 677.5 103.0 Q 711.5 77.0 730.5 69.0 Q 748.5 61.0 767.5 61.0 Q 780.5 61.0 816.5 67.0 Q 852.5 75.0 871.5 81.0 L 917.5 94.0 Q 931.5 98.0 931.5 103.0 L 931.5 105.0 Q 927.5 111.0 921.5 112.0 L 867.5 123.0 L 811.5 135.0 Q 776.5 142.0 724.5 161.0 Q 673.5 181.0 635.5 205.0 Q 598.5 231.0 577.5 248.0 L 531.5 289.0 C 509.5 309.0 470.5 299.0 521.5 250.0 Z" fill="lightgray"></path>
      </clipPath>
      <path clip-path="url(#make-me-a-hanzi-clip-8)" d="M 516.5 294.0 L 538.5 258.0 L 639.5 171.0 L 743.5 109.0 L 802.5 100.0 L 925.5 104.0 " fill="none" id="make-me-a-hanzi-animation-8" stroke-dasharray="607 1214" stroke-linecap="round"></path>

</g>
</svg>
