<svg version="1.1" viewBox="0 0 1024 1024" xmlns="http://www.w3.org/2000/svg">
  <g stroke="lightgray" stroke-dasharray="1,1" stroke-width="1" transform="scale(4, 4)">
    <line x1="0" y1="0" x2="256" y2="256"></line>
    <line x1="256" y1="0" x2="0" y2="256"></line>
    <line x1="128" y1="0" x2="128" y2="256"></line>
    <line x1="0" y1="128" x2="256" y2="128"></line>
  </g>
<g transform="scale(1, -1) translate(0, -900)">
   <style type="text/css">
    @keyframes keyframes0 {
      from {
       stroke: blue;
       stroke-dashoffset: 375;
       stroke-width: 128;
       }
       55% {
       animation-timing-function: step-end;
       stroke: blue;
       stroke-dashoffset: 0;
       stroke-width: 128;
       }
       to {
       stroke: black;
       stroke-width: 1024;
       }
       }
       #make-me-a-hanzi-animation-0 {
         animation: keyframes0 0.555176s both;
         animation-delay: 0.000000s;
         animation-timing-function: linear;
       }
    @keyframes keyframes1 {
      from {
       stroke: blue;
       stroke-dashoffset: 730;
       stroke-width: 128;
       }
       70% {
       animation-timing-function: step-end;
       stroke: blue;
       stroke-dashoffset: 0;
       stroke-width: 128;
       }
       to {
       stroke: black;
       stroke-width: 1024;
       }
       }
       #make-me-a-hanzi-animation-1 {
         animation: keyframes1 0.844076s both;
         animation-delay: 0.555176s;
         animation-timing-function: linear;
       }
    @keyframes keyframes2 {
      from {
       stroke: blue;
       stroke-dashoffset: 1047;
       stroke-width: 128;
       }
       77% {
       animation-timing-function: step-end;
       stroke: blue;
       stroke-dashoffset: 0;
       stroke-width: 128;
       }
       to {
       stroke: black;
       stroke-width: 1024;
       }
       }
       #make-me-a-hanzi-animation-2 {
         animation: keyframes2 1.102051s both;
         animation-delay: 1.399251s;
         animation-timing-function: linear;
       }
    @keyframes keyframes3 {
      from {
       stroke: blue;
       stroke-dashoffset: 518;
       stroke-width: 128;
       }
       63% {
       animation-timing-function: step-end;
       stroke: blue;
       stroke-dashoffset: 0;
       stroke-width: 128;
       }
       to {
       stroke: black;
       stroke-width: 1024;
       }
       }
       #make-me-a-hanzi-animation-3 {
         animation: keyframes3 0.671549s both;
         animation-delay: 2.501302s;
         animation-timing-function: linear;
       }
    @keyframes keyframes4 {
      from {
       stroke: blue;
       stroke-dashoffset: 529;
       stroke-width: 128;
       }
       63% {
       animation-timing-function: step-end;
       stroke: blue;
       stroke-dashoffset: 0;
       stroke-width: 128;
       }
       to {
       stroke: black;
       stroke-width: 1024;
       }
       }
       #make-me-a-hanzi-animation-4 {
         animation: keyframes4 0.680501s both;
         animation-delay: 3.172852s;
         animation-timing-function: linear;
       }
    @keyframes keyframes5 {
      from {
       stroke: blue;
       stroke-dashoffset: 471;
       stroke-width: 128;
       }
       61% {
       animation-timing-function: step-end;
       stroke: blue;
       stroke-dashoffset: 0;
       stroke-width: 128;
       }
       to {
       stroke: black;
       stroke-width: 1024;
       }
       }
       #make-me-a-hanzi-animation-5 {
         animation: keyframes5 0.633301s both;
         animation-delay: 3.853353s;
         animation-timing-function: linear;
       }
    @keyframes keyframes6 {
      from {
       stroke: blue;
       stroke-dashoffset: 536;
       stroke-width: 128;
       }
       64% {
       animation-timing-function: step-end;
       stroke: blue;
       stroke-dashoffset: 0;
       stroke-width: 128;
       }
       to {
       stroke: black;
       stroke-width: 1024;
       }
       }
       #make-me-a-hanzi-animation-6 {
         animation: keyframes6 0.686198s both;
         animation-delay: 4.486654s;
         animation-timing-function: linear;
       }
    @keyframes keyframes7 {
      from {
       stroke: blue;
       stroke-dashoffset: 326;
       stroke-width: 128;
       }
       51% {
       animation-timing-function: step-end;
       stroke: blue;
       stroke-dashoffset: 0;
       stroke-width: 128;
       }
       to {
       stroke: black;
       stroke-width: 1024;
       }
       }
       #make-me-a-hanzi-animation-7 {
         animation: keyframes7 0.515299s both;
         animation-delay: 5.172852s;
         animation-timing-function: linear;
       }
    @keyframes keyframes8 {
      from {
       stroke: blue;
       stroke-dashoffset: 483;
       stroke-width: 128;
       }
       61% {
       animation-timing-function: step-end;
       stroke: blue;
       stroke-dashoffset: 0;
       stroke-width: 128;
       }
       to {
       stroke: black;
       stroke-width: 1024;
       }
       }
       #make-me-a-hanzi-animation-8 {
         animation: keyframes8 0.643066s both;
         animation-delay: 5.688151s;
         animation-timing-function: linear;
       }
    @keyframes keyframes9 {
      from {
       stroke: blue;
       stroke-dashoffset: 445;
       stroke-width: 128;
       }
       59% {
       animation-timing-function: step-end;
       stroke: blue;
       stroke-dashoffset: 0;
       stroke-width: 128;
       }
       to {
       stroke: black;
       stroke-width: 1024;
       }
       }
       #make-me-a-hanzi-animation-9 {
         animation: keyframes9 0.612142s both;
         animation-delay: 6.331217s;
         animation-timing-function: linear;
       }
    @keyframes keyframes10 {
      from {
       stroke: blue;
       stroke-dashoffset: 459;
       stroke-width: 128;
       }
       60% {
       animation-timing-function: step-end;
       stroke: blue;
       stroke-dashoffset: 0;
       stroke-width: 128;
       }
       to {
       stroke: black;
       stroke-width: 1024;
       }
       }
       #make-me-a-hanzi-animation-10 {
         animation: keyframes10 0.623535s both;
         animation-delay: 6.943359s;
         animation-timing-function: linear;
       }
    @keyframes keyframes11 {
      from {
       stroke: blue;
       stroke-dashoffset: 483;
       stroke-width: 128;
       }
       61% {
       animation-timing-function: step-end;
       stroke: blue;
       stroke-dashoffset: 0;
       stroke-width: 128;
       }
       to {
       stroke: black;
       stroke-width: 1024;
       }
       }
       #make-me-a-hanzi-animation-11 {
         animation: keyframes11 0.643066s both;
         animation-delay: 7.566895s;
         animation-timing-function: linear;
       }
    @keyframes keyframes12 {
      from {
       stroke: blue;
       stroke-dashoffset: 577;
       stroke-width: 128;
       }
       65% {
       animation-timing-function: step-end;
       stroke: blue;
       stroke-dashoffset: 0;
       stroke-width: 128;
       }
       to {
       stroke: black;
       stroke-width: 1024;
       }
       }
       #make-me-a-hanzi-animation-12 {
         animation: keyframes12 0.719564s both;
         animation-delay: 8.209961s;
         animation-timing-function: linear;
       }
    @keyframes keyframes13 {
      from {
       stroke: blue;
       stroke-dashoffset: 421;
       stroke-width: 128;
       }
       58% {
       animation-timing-function: step-end;
       stroke: blue;
       stroke-dashoffset: 0;
       stroke-width: 128;
       }
       to {
       stroke: black;
       stroke-width: 1024;
       }
       }
       #make-me-a-hanzi-animation-13 {
         animation: keyframes13 0.592611s both;
         animation-delay: 8.929525s;
         animation-timing-function: linear;
       }
    @keyframes keyframes14 {
      from {
       stroke: blue;
       stroke-dashoffset: 862;
       stroke-width: 128;
       }
       74% {
       animation-timing-function: step-end;
       stroke: blue;
       stroke-dashoffset: 0;
       stroke-width: 128;
       }
       to {
       stroke: black;
       stroke-width: 1024;
       }
       }
       #make-me-a-hanzi-animation-14 {
         animation: keyframes14 0.951497s both;
         animation-delay: 9.522135s;
         animation-timing-function: linear;
       }
    @keyframes keyframes15 {
      from {
       stroke: blue;
       stroke-dashoffset: 371;
       stroke-width: 128;
       }
       55% {
       animation-timing-function: step-end;
       stroke: blue;
       stroke-dashoffset: 0;
       stroke-width: 128;
       }
       to {
       stroke: black;
       stroke-width: 1024;
       }
       }
       #make-me-a-hanzi-animation-15 {
         animation: keyframes15 0.551921s both;
         animation-delay: 10.473633s;
         animation-timing-function: linear;
       }
    @keyframes keyframes16 {
      from {
       stroke: blue;
       stroke-dashoffset: 415;
       stroke-width: 128;
       }
       57% {
       animation-timing-function: step-end;
       stroke: blue;
       stroke-dashoffset: 0;
       stroke-width: 128;
       }
       to {
       stroke: black;
       stroke-width: 1024;
       }
       }
       #make-me-a-hanzi-animation-16 {
         animation: keyframes16 0.587728s both;
         animation-delay: 11.025553s;
         animation-timing-function: linear;
       }
</style>
<path d="M 514.5 798.0 Q 533.5 783.0 555.5 764.0 Q 571.5 752.0 587.5 755.0 Q 597.5 756.0 602.5 771.0 Q 605.5 787.0 592.5 817.0 Q 582.5 839.0 504.5 848.0 Q 488.5 849.0 481.5 846.0 Q 477.5 842.0 479.5 828.0 Q 483.5 818.0 514.5 798.0 Z" fill="lightgray"></path> 
<path d="M 343.5 654.0 Q 394.5 645.0 420.5 648.0 Q 798.5 708.0 810.5 718.0 Q 820.5 725.0 815.5 735.0 Q 809.5 748.0 779.5 756.0 Q 749.5 763.0 718.5 754.0 Q 636.5 729.0 546.5 711.0 Q 447.5 693.0 333.5 688.0 C 303.5 687.0 313.5 659.0 343.5 654.0 Z" fill="lightgray"></path> 
<path d="M 333.5 688.0 Q 318.5 701.0 296.5 710.0 Q 277.5 722.0 263.5 717.0 Q 251.5 710.0 258.5 695.0 Q 279.5 665.0 275.5 603.0 Q 257.5 366.0 209.5 240.0 Q 167.5 135.0 76.5 -6.0 Q 72.5 -13.0 69.5 -19.0 Q 66.5 -29.0 77.5 -28.0 Q 113.5 -19.0 195.5 105.0 Q 213.5 136.0 231.5 170.0 Q 303.5 330.0 325.5 536.0 Q 334.5 617.0 342.5 650.0 Q 343.5 653.0 343.5 654.0 C 348.5 678.0 348.5 678.0 333.5 688.0 Z" fill="lightgray"></path> 
<path d="M 408.5 476.0 Q 430.5 504.0 458.5 545.0 Q 470.5 567.0 482.5 579.0 Q 488.5 586.0 485.5 595.0 Q 481.5 604.0 462.5 619.0 Q 444.5 631.0 431.5 630.0 Q 418.5 629.0 424.5 614.0 Q 437.5 587.0 386.5 500.0 Q 362.5 460.0 329.5 416.0 Q 322.5 409.0 321.5 405.0 Q 320.5 398.0 328.5 399.0 Q 341.5 402.0 387.5 450.0 L 408.5 476.0 Z" fill="lightgray"></path> 
<path d="M 387.5 450.0 Q 411.5 402.0 383.5 271.0 Q 368.5 247.0 394.5 201.0 Q 395.5 197.0 400.5 192.0 Q 413.5 180.0 422.5 200.0 Q 432.5 228.0 432.5 263.0 Q 433.5 390.0 438.5 418.0 Q 444.5 437.0 436.5 445.0 Q 412.5 473.0 408.5 476.0 C 387.5 497.0 375.5 478.0 387.5 450.0 Z" fill="lightgray"></path> 
<path d="M 544.5 512.0 Q 565.5 534.0 589.5 568.0 Q 599.5 584.0 609.5 593.0 Q 616.5 600.0 613.5 610.0 Q 610.5 619.0 590.5 635.0 Q 571.5 648.0 558.5 648.0 Q 545.5 647.0 550.5 631.0 Q 560.5 610.0 522.5 540.0 Q 503.5 509.0 478.5 473.0 Q 471.5 466.0 469.5 461.0 Q 466.5 454.0 476.5 455.0 Q 488.5 458.0 521.5 489.0 L 544.5 512.0 Z" fill="lightgray"></path> 
<path d="M 567.5 296.0 Q 566.5 428.0 570.5 458.0 Q 576.5 479.0 546.5 510.0 L 544.5 512.0 C 523.5 534.0 510.5 517.0 521.5 489.0 Q 543.5 443.0 519.5 299.0 Q 504.5 275.0 530.5 229.0 Q 531.5 225.0 536.5 220.0 Q 549.5 208.0 558.5 228.0 Q 565.5 253.0 567.5 281.0 L 567.5 296.0 Z" fill="lightgray"></path> 
<path d="M 683.5 649.0 Q 725.5 607.0 749.5 610.0 Q 761.5 610.0 763.5 627.0 Q 763.5 639.0 751.5 655.0 Q 729.5 677.0 683.5 672.0 Q 676.5 673.0 676.5 662.0 Q 676.5 655.0 683.5 649.0 Z" fill="lightgray"></path> 
<path d="M 710.5 535.0 Q 752.5 548.0 799.5 558.0 Q 829.5 567.0 833.5 571.0 Q 839.5 578.0 835.5 583.0 Q 831.5 590.0 810.5 595.0 Q 788.5 598.0 768.5 589.0 Q 734.5 576.0 698.5 564.0 Q 658.5 552.0 609.5 545.0 Q 584.5 541.0 603.5 529.0 Q 631.5 514.0 671.5 525.0 Q 672.5 526.0 675.5 526.0 L 710.5 535.0 Z" fill="lightgray"></path> 
<path d="M 732.5 456.0 Q 757.5 463.0 786.5 470.0 Q 810.5 476.0 813.5 479.0 Q 819.5 485.0 815.5 491.0 Q 811.5 498.0 790.5 503.0 Q 763.5 506.0 733.5 491.0 L 686.5 476.0 Q 658.5 470.0 625.5 465.0 Q 600.5 461.0 618.5 449.0 Q 649.5 434.0 687.5 445.0 L 732.5 456.0 Z" fill="lightgray"></path> 
<path d="M 729.5 371.0 Q 760.5 380.0 794.5 386.0 Q 819.5 392.0 824.5 395.0 Q 831.5 401.0 827.5 407.0 Q 823.5 414.0 802.5 420.0 Q 786.5 423.0 730.5 405.0 L 688.5 394.0 Q 657.5 390.0 622.5 385.0 Q 597.5 381.0 615.5 369.0 Q 643.5 353.0 683.5 362.0 Q 684.5 363.0 689.5 363.0 L 729.5 371.0 Z" fill="lightgray"></path> 
<path d="M 728.5 313.0 Q 728.5 344.0 729.5 371.0 L 730.5 405.0 Q 730.5 432.0 732.5 456.0 C 734.5 486.0 731.5 485.0 733.5 491.0 Q 734.5 492.0 734.5 494.0 Q 740.5 509.0 732.5 517.0 Q 720.5 527.0 710.5 535.0 C 687.5 554.0 661.5 553.0 675.5 526.0 Q 684.5 513.0 686.5 476.0 L 687.5 445.0 Q 687.5 426.0 688.5 394.0 L 689.5 363.0 Q 689.5 339.0 690.5 307.0 C 691.5 277.0 728.5 283.0 728.5 313.0 Z" fill="lightgray"></path> 
<path d="M 690.5 307.0 Q 669.5 307.0 570.5 298.0 Q 567.5 298.0 567.5 296.0 C 551.5 292.0 551.5 292.0 567.5 281.0 Q 597.5 260.0 616.5 264.0 Q 682.5 276.0 885.5 298.0 Q 894.5 297.0 901.5 306.0 Q 902.5 316.0 885.5 325.0 Q 857.5 343.0 778.5 323.0 Q 750.5 322.0 728.5 313.0 L 690.5 307.0 Z" fill="lightgray"></path> 
<path d="M 314.5 155.0 Q 299.5 100.0 274.5 49.0 Q 259.5 16.0 281.5 -14.0 Q 290.5 -30.0 309.5 -16.0 Q 351.5 32.0 346.5 104.0 Q 346.5 135.0 336.5 158.0 Q 330.5 165.0 325.5 166.0 Q 318.5 163.0 314.5 155.0 Z" fill="lightgray"></path> 
<path d="M 431.5 137.0 Q 458.5 32.0 541.5 -16.0 Q 646.5 -73.0 836.5 -47.0 Q 878.5 -40.0 910.5 -23.0 Q 935.5 -10.0 936.5 6.0 Q 937.5 15.0 901.5 32.0 Q 843.5 68.0 797.5 107.0 Q 781.5 123.0 777.5 115.0 Q 774.5 108.0 781.5 93.0 Q 800.5 38.0 794.5 22.0 Q 787.5 10.0 748.5 7.0 Q 592.5 -5.0 524.5 52.0 Q 493.5 76.0 477.5 121.0 Q 468.5 146.0 455.5 150.0 Q 442.5 157.0 433.5 153.0 Q 427.5 150.0 431.5 137.0 Z" fill="lightgray"></path> 
<path d="M 605.5 144.0 Q 656.5 101.0 673.5 101.0 Q 683.5 102.0 686.5 115.0 Q 689.5 128.0 679.5 155.0 Q 667.5 179.0 597.5 187.0 Q 582.5 188.0 577.5 186.0 Q 573.5 182.0 575.5 170.0 Q 579.5 160.0 605.5 144.0 Z" fill="lightgray"></path> 
<path d="M 831.5 190.0 Q 870.5 165.0 911.5 133.0 Q 924.5 123.0 940.5 125.0 Q 950.5 126.0 954.5 139.0 Q 957.5 154.0 946.5 181.0 Q 931.5 218.0 822.5 235.0 Q 806.5 236.0 801.5 234.0 Q 797.5 230.0 799.5 218.0 Q 803.5 208.0 831.5 190.0 Z" fill="lightgray"></path> 
      <clipPath id="make-me-a-hanzi-clip-0">
      <path d="M 514.5 798.0 Q 533.5 783.0 555.5 764.0 Q 571.5 752.0 587.5 755.0 Q 597.5 756.0 602.5 771.0 Q 605.5 787.0 592.5 817.0 Q 582.5 839.0 504.5 848.0 Q 488.5 849.0 481.5 846.0 Q 477.5 842.0 479.5 828.0 Q 483.5 818.0 514.5 798.0 Z" fill="lightgray"></path>
      </clipPath>
      <path clip-path="url(#make-me-a-hanzi-clip-0)" d="M 487.5 840.0 L 559.5 803.0 L 583.5 774.0 " fill="none" id="make-me-a-hanzi-animation-0" stroke-dasharray="247 494" stroke-linecap="round"></path>

      <clipPath id="make-me-a-hanzi-clip-1">
      <path d="M 343.5 654.0 Q 394.5 645.0 420.5 648.0 Q 798.5 708.0 810.5 718.0 Q 820.5 725.0 815.5 735.0 Q 809.5 748.0 779.5 756.0 Q 749.5 763.0 718.5 754.0 Q 636.5 729.0 546.5 711.0 Q 447.5 693.0 333.5 688.0 C 303.5 687.0 313.5 659.0 343.5 654.0 Z" fill="lightgray"></path>
      </clipPath>
      <path clip-path="url(#make-me-a-hanzi-clip-1)" d="M 341.5 684.0 L 358.5 671.0 L 432.5 670.0 L 565.5 691.0 L 743.5 731.0 L 804.5 729.0 " fill="none" id="make-me-a-hanzi-animation-1" stroke-dasharray="602 1204" stroke-linecap="round"></path>

      <clipPath id="make-me-a-hanzi-clip-2">
      <path d="M 333.5 688.0 Q 318.5 701.0 296.5 710.0 Q 277.5 722.0 263.5 717.0 Q 251.5 710.0 258.5 695.0 Q 279.5 665.0 275.5 603.0 Q 257.5 366.0 209.5 240.0 Q 167.5 135.0 76.5 -6.0 Q 72.5 -13.0 69.5 -19.0 Q 66.5 -29.0 77.5 -28.0 Q 113.5 -19.0 195.5 105.0 Q 213.5 136.0 231.5 170.0 Q 303.5 330.0 325.5 536.0 Q 334.5 617.0 342.5 650.0 Q 343.5 653.0 343.5 654.0 C 348.5 678.0 348.5 678.0 333.5 688.0 Z" fill="lightgray"></path>
      </clipPath>
      <path clip-path="url(#make-me-a-hanzi-clip-2)" d="M 270.5 704.0 L 304.5 668.0 L 307.5 642.0 L 284.5 433.0 L 257.5 310.0 L 224.5 213.0 L 171.5 107.0 L 109.5 15.0 L 77.5 -20.0 " fill="none" id="make-me-a-hanzi-animation-2" stroke-dasharray="919 1838" stroke-linecap="round"></path>

      <clipPath id="make-me-a-hanzi-clip-3">
      <path d="M 408.5 476.0 Q 430.5 504.0 458.5 545.0 Q 470.5 567.0 482.5 579.0 Q 488.5 586.0 485.5 595.0 Q 481.5 604.0 462.5 619.0 Q 444.5 631.0 431.5 630.0 Q 418.5 629.0 424.5 614.0 Q 437.5 587.0 386.5 500.0 Q 362.5 460.0 329.5 416.0 Q 322.5 409.0 321.5 405.0 Q 320.5 398.0 328.5 399.0 Q 341.5 402.0 387.5 450.0 L 408.5 476.0 Z" fill="lightgray"></path>
      </clipPath>
      <path clip-path="url(#make-me-a-hanzi-clip-3)" d="M 431.5 621.0 L 452.5 596.0 L 443.5 563.0 L 371.5 449.0 L 328.5 407.0 " fill="none" id="make-me-a-hanzi-animation-3" stroke-dasharray="390 780" stroke-linecap="round"></path>

      <clipPath id="make-me-a-hanzi-clip-4">
      <path d="M 387.5 450.0 Q 411.5 402.0 383.5 271.0 Q 368.5 247.0 394.5 201.0 Q 395.5 197.0 400.5 192.0 Q 413.5 180.0 422.5 200.0 Q 432.5 228.0 432.5 263.0 Q 433.5 390.0 438.5 418.0 Q 444.5 437.0 436.5 445.0 Q 412.5 473.0 408.5 476.0 C 387.5 497.0 375.5 478.0 387.5 450.0 Z" fill="lightgray"></path>
      </clipPath>
      <path clip-path="url(#make-me-a-hanzi-clip-4)" d="M 407.5 470.0 L 409.5 447.0 L 418.5 429.0 L 404.5 245.0 L 409.5 200.0 " fill="none" id="make-me-a-hanzi-animation-4" stroke-dasharray="401 802" stroke-linecap="round"></path>

      <clipPath id="make-me-a-hanzi-clip-5">
      <path d="M 544.5 512.0 Q 565.5 534.0 589.5 568.0 Q 599.5 584.0 609.5 593.0 Q 616.5 600.0 613.5 610.0 Q 610.5 619.0 590.5 635.0 Q 571.5 648.0 558.5 648.0 Q 545.5 647.0 550.5 631.0 Q 560.5 610.0 522.5 540.0 Q 503.5 509.0 478.5 473.0 Q 471.5 466.0 469.5 461.0 Q 466.5 454.0 476.5 455.0 Q 488.5 458.0 521.5 489.0 L 544.5 512.0 Z" fill="lightgray"></path>
      </clipPath>
      <path clip-path="url(#make-me-a-hanzi-clip-5)" d="M 558.5 637.0 L 580.5 605.0 L 529.5 519.0 L 477.5 463.0 " fill="none" id="make-me-a-hanzi-animation-5" stroke-dasharray="343 686" stroke-linecap="round"></path>

      <clipPath id="make-me-a-hanzi-clip-6">
      <path d="M 567.5 296.0 Q 566.5 428.0 570.5 458.0 Q 576.5 479.0 546.5 510.0 L 544.5 512.0 C 523.5 534.0 510.5 517.0 521.5 489.0 Q 543.5 443.0 519.5 299.0 Q 504.5 275.0 530.5 229.0 Q 531.5 225.0 536.5 220.0 Q 549.5 208.0 558.5 228.0 Q 565.5 253.0 567.5 281.0 L 567.5 296.0 Z" fill="lightgray"></path>
      </clipPath>
      <path clip-path="url(#make-me-a-hanzi-clip-6)" d="M 541.5 507.0 L 550.5 465.0 L 540.5 280.0 L 545.5 228.0 " fill="none" id="make-me-a-hanzi-animation-6" stroke-dasharray="408 816" stroke-linecap="round"></path>

      <clipPath id="make-me-a-hanzi-clip-7">
      <path d="M 683.5 649.0 Q 725.5 607.0 749.5 610.0 Q 761.5 610.0 763.5 627.0 Q 763.5 639.0 751.5 655.0 Q 729.5 677.0 683.5 672.0 Q 676.5 673.0 676.5 662.0 Q 676.5 655.0 683.5 649.0 Z" fill="lightgray"></path>
      </clipPath>
      <path clip-path="url(#make-me-a-hanzi-clip-7)" d="M 689.5 661.0 L 725.5 644.0 L 748.5 625.0 " fill="none" id="make-me-a-hanzi-animation-7" stroke-dasharray="198 396" stroke-linecap="round"></path>

      <clipPath id="make-me-a-hanzi-clip-8">
      <path d="M 710.5 535.0 Q 752.5 548.0 799.5 558.0 Q 829.5 567.0 833.5 571.0 Q 839.5 578.0 835.5 583.0 Q 831.5 590.0 810.5 595.0 Q 788.5 598.0 768.5 589.0 Q 734.5 576.0 698.5 564.0 Q 658.5 552.0 609.5 545.0 Q 584.5 541.0 603.5 529.0 Q 631.5 514.0 671.5 525.0 Q 672.5 526.0 675.5 526.0 L 710.5 535.0 Z" fill="lightgray"></path>
      </clipPath>
      <path clip-path="url(#make-me-a-hanzi-clip-8)" d="M 604.5 538.0 L 660.5 537.0 L 781.5 574.0 L 825.5 579.0 " fill="none" id="make-me-a-hanzi-animation-8" stroke-dasharray="355 710" stroke-linecap="round"></path>

      <clipPath id="make-me-a-hanzi-clip-9">
      <path d="M 732.5 456.0 Q 757.5 463.0 786.5 470.0 Q 810.5 476.0 813.5 479.0 Q 819.5 485.0 815.5 491.0 Q 811.5 498.0 790.5 503.0 Q 763.5 506.0 733.5 491.0 L 686.5 476.0 Q 658.5 470.0 625.5 465.0 Q 600.5 461.0 618.5 449.0 Q 649.5 434.0 687.5 445.0 L 732.5 456.0 Z" fill="lightgray"></path>
      </clipPath>
      <path clip-path="url(#make-me-a-hanzi-clip-9)" d="M 620.5 458.0 L 676.5 457.0 L 772.5 485.0 L 805.5 487.0 " fill="none" id="make-me-a-hanzi-animation-9" stroke-dasharray="317 634" stroke-linecap="round"></path>

      <clipPath id="make-me-a-hanzi-clip-10">
      <path d="M 729.5 371.0 Q 760.5 380.0 794.5 386.0 Q 819.5 392.0 824.5 395.0 Q 831.5 401.0 827.5 407.0 Q 823.5 414.0 802.5 420.0 Q 786.5 423.0 730.5 405.0 L 688.5 394.0 Q 657.5 390.0 622.5 385.0 Q 597.5 381.0 615.5 369.0 Q 643.5 353.0 683.5 362.0 Q 684.5 363.0 689.5 363.0 L 729.5 371.0 Z" fill="lightgray"></path>
      </clipPath>
      <path clip-path="url(#make-me-a-hanzi-clip-10)" d="M 617.5 378.0 L 648.5 373.0 L 764.5 399.0 L 817.5 403.0 " fill="none" id="make-me-a-hanzi-animation-10" stroke-dasharray="331 662" stroke-linecap="round"></path>

      <clipPath id="make-me-a-hanzi-clip-11">
      <path d="M 728.5 313.0 Q 728.5 344.0 729.5 371.0 L 730.5 405.0 Q 730.5 432.0 732.5 456.0 C 734.5 486.0 731.5 485.0 733.5 491.0 Q 734.5 492.0 734.5 494.0 Q 740.5 509.0 732.5 517.0 Q 720.5 527.0 710.5 535.0 C 687.5 554.0 661.5 553.0 675.5 526.0 Q 684.5 513.0 686.5 476.0 L 687.5 445.0 Q 687.5 426.0 688.5 394.0 L 689.5 363.0 Q 689.5 339.0 690.5 307.0 C 691.5 277.0 728.5 283.0 728.5 313.0 Z" fill="lightgray"></path>
      </clipPath>
      <path clip-path="url(#make-me-a-hanzi-clip-11)" d="M 682.5 524.0 L 705.5 510.0 L 709.5 501.0 L 709.5 336.0 L 695.5 315.0 " fill="none" id="make-me-a-hanzi-animation-11" stroke-dasharray="355 710" stroke-linecap="round"></path>

      <clipPath id="make-me-a-hanzi-clip-12">
      <path d="M 690.5 307.0 Q 669.5 307.0 570.5 298.0 Q 567.5 298.0 567.5 296.0 C 551.5 292.0 551.5 292.0 567.5 281.0 Q 597.5 260.0 616.5 264.0 Q 682.5 276.0 885.5 298.0 Q 894.5 297.0 901.5 306.0 Q 902.5 316.0 885.5 325.0 Q 857.5 343.0 778.5 323.0 Q 750.5 322.0 728.5 313.0 L 690.5 307.0 Z" fill="lightgray"></path>
      </clipPath>
      <path clip-path="url(#make-me-a-hanzi-clip-12)" d="M 574.5 289.0 L 617.5 283.0 L 844.5 314.0 L 892.5 308.0 " fill="none" id="make-me-a-hanzi-animation-12" stroke-dasharray="449 898" stroke-linecap="round"></path>

      <clipPath id="make-me-a-hanzi-clip-13">
      <path d="M 314.5 155.0 Q 299.5 100.0 274.5 49.0 Q 259.5 16.0 281.5 -14.0 Q 290.5 -30.0 309.5 -16.0 Q 351.5 32.0 346.5 104.0 Q 346.5 135.0 336.5 158.0 Q 330.5 165.0 325.5 166.0 Q 318.5 163.0 314.5 155.0 Z" fill="lightgray"></path>
      </clipPath>
      <path clip-path="url(#make-me-a-hanzi-clip-13)" d="M 325.5 155.0 L 322.5 94.0 L 299.5 24.0 L 296.5 -6.0 " fill="none" id="make-me-a-hanzi-animation-13" stroke-dasharray="293 586" stroke-linecap="round"></path>

      <clipPath id="make-me-a-hanzi-clip-14">
      <path d="M 431.5 137.0 Q 458.5 32.0 541.5 -16.0 Q 646.5 -73.0 836.5 -47.0 Q 878.5 -40.0 910.5 -23.0 Q 935.5 -10.0 936.5 6.0 Q 937.5 15.0 901.5 32.0 Q 843.5 68.0 797.5 107.0 Q 781.5 123.0 777.5 115.0 Q 774.5 108.0 781.5 93.0 Q 800.5 38.0 794.5 22.0 Q 787.5 10.0 748.5 7.0 Q 592.5 -5.0 524.5 52.0 Q 493.5 76.0 477.5 121.0 Q 468.5 146.0 455.5 150.0 Q 442.5 157.0 433.5 153.0 Q 427.5 150.0 431.5 137.0 Z" fill="lightgray"></path>
      </clipPath>
      <path clip-path="url(#make-me-a-hanzi-clip-14)" d="M 439.5 145.0 L 476.5 76.0 L 526.5 22.0 L 580.5 -6.0 L 670.5 -24.0 L 785.5 -21.0 L 821.5 -9.0 L 844.5 7.0 L 827.5 43.0 L 782.5 110.0 " fill="none" id="make-me-a-hanzi-animation-14" stroke-dasharray="734 1468" stroke-linecap="round"></path>

      <clipPath id="make-me-a-hanzi-clip-15">
      <path d="M 605.5 144.0 Q 656.5 101.0 673.5 101.0 Q 683.5 102.0 686.5 115.0 Q 689.5 128.0 679.5 155.0 Q 667.5 179.0 597.5 187.0 Q 582.5 188.0 577.5 186.0 Q 573.5 182.0 575.5 170.0 Q 579.5 160.0 605.5 144.0 Z" fill="lightgray"></path>
      </clipPath>
      <path clip-path="url(#make-me-a-hanzi-clip-15)" d="M 582.5 180.0 L 654.5 142.0 L 672.5 114.0 " fill="none" id="make-me-a-hanzi-animation-15" stroke-dasharray="243 486" stroke-linecap="round"></path>

      <clipPath id="make-me-a-hanzi-clip-16">
      <path d="M 831.5 190.0 Q 870.5 165.0 911.5 133.0 Q 924.5 123.0 940.5 125.0 Q 950.5 126.0 954.5 139.0 Q 957.5 154.0 946.5 181.0 Q 931.5 218.0 822.5 235.0 Q 806.5 236.0 801.5 234.0 Q 797.5 230.0 799.5 218.0 Q 803.5 208.0 831.5 190.0 Z" fill="lightgray"></path>
      </clipPath>
      <path clip-path="url(#make-me-a-hanzi-clip-16)" d="M 806.5 228.0 L 895.5 185.0 L 937.5 142.0 " fill="none" id="make-me-a-hanzi-animation-16" stroke-dasharray="287 574" stroke-linecap="round"></path>

</g>
</svg>
