<svg version="1.1" viewBox="0 0 1024 1024" xmlns="http://www.w3.org/2000/svg">
  <g stroke="lightgray" stroke-dasharray="1,1" stroke-width="1" transform="scale(4, 4)">
    <line x1="0" y1="0" x2="256" y2="256"></line>
    <line x1="256" y1="0" x2="0" y2="256"></line>
    <line x1="128" y1="0" x2="128" y2="256"></line>
    <line x1="0" y1="128" x2="256" y2="128"></line>
  </g>
<g transform="scale(1, -1) translate(0, -900)">
   <style type="text/css">
    @keyframes keyframes0 {
      from {
       stroke: blue;
       stroke-dashoffset: 819;
       stroke-width: 128;
       }
       73% {
       animation-timing-function: step-end;
       stroke: blue;
       stroke-dashoffset: 0;
       stroke-width: 128;
       }
       to {
       stroke: black;
       stroke-width: 1024;
       }
       }
       #make-me-a-hanzi-animation-0 {
         animation: keyframes0 0.916504s both;
         animation-delay: 0.000000s;
         animation-timing-function: linear;
       }
    @keyframes keyframes1 {
      from {
       stroke: blue;
       stroke-dashoffset: 416;
       stroke-width: 128;
       }
       58% {
       animation-timing-function: step-end;
       stroke: blue;
       stroke-dashoffset: 0;
       stroke-width: 128;
       }
       to {
       stroke: black;
       stroke-width: 1024;
       }
       }
       #make-me-a-hanzi-animation-1 {
         animation: keyframes1 0.588542s both;
         animation-delay: 0.916504s;
         animation-timing-function: linear;
       }
    @keyframes keyframes2 {
      from {
       stroke: blue;
       stroke-dashoffset: 360;
       stroke-width: 128;
       }
       54% {
       animation-timing-function: step-end;
       stroke: blue;
       stroke-dashoffset: 0;
       stroke-width: 128;
       }
       to {
       stroke: black;
       stroke-width: 1024;
       }
       }
       #make-me-a-hanzi-animation-2 {
         animation: keyframes2 0.542969s both;
         animation-delay: 1.505046s;
         animation-timing-function: linear;
       }
    @keyframes keyframes3 {
      from {
       stroke: blue;
       stroke-dashoffset: 630;
       stroke-width: 128;
       }
       67% {
       animation-timing-function: step-end;
       stroke: blue;
       stroke-dashoffset: 0;
       stroke-width: 128;
       }
       to {
       stroke: black;
       stroke-width: 1024;
       }
       }
       #make-me-a-hanzi-animation-3 {
         animation: keyframes3 0.762695s both;
         animation-delay: 2.048014s;
         animation-timing-function: linear;
       }
    @keyframes keyframes4 {
      from {
       stroke: blue;
       stroke-dashoffset: 394;
       stroke-width: 128;
       }
       56% {
       animation-timing-function: step-end;
       stroke: blue;
       stroke-dashoffset: 0;
       stroke-width: 128;
       }
       to {
       stroke: black;
       stroke-width: 1024;
       }
       }
       #make-me-a-hanzi-animation-4 {
         animation: keyframes4 0.570638s both;
         animation-delay: 2.810710s;
         animation-timing-function: linear;
       }
    @keyframes keyframes5 {
      from {
       stroke: blue;
       stroke-dashoffset: 496;
       stroke-width: 128;
       }
       62% {
       animation-timing-function: step-end;
       stroke: blue;
       stroke-dashoffset: 0;
       stroke-width: 128;
       }
       to {
       stroke: black;
       stroke-width: 1024;
       }
       }
       #make-me-a-hanzi-animation-5 {
         animation: keyframes5 0.653646s both;
         animation-delay: 3.381348s;
         animation-timing-function: linear;
       }
    @keyframes keyframes6 {
      from {
       stroke: blue;
       stroke-dashoffset: 813;
       stroke-width: 128;
       }
       73% {
       animation-timing-function: step-end;
       stroke: blue;
       stroke-dashoffset: 0;
       stroke-width: 128;
       }
       to {
       stroke: black;
       stroke-width: 1024;
       }
       }
       #make-me-a-hanzi-animation-6 {
         animation: keyframes6 0.911621s both;
         animation-delay: 4.034993s;
         animation-timing-function: linear;
       }
    @keyframes keyframes7 {
      from {
       stroke: blue;
       stroke-dashoffset: 481;
       stroke-width: 128;
       }
       61% {
       animation-timing-function: step-end;
       stroke: blue;
       stroke-dashoffset: 0;
       stroke-width: 128;
       }
       to {
       stroke: black;
       stroke-width: 1024;
       }
       }
       #make-me-a-hanzi-animation-7 {
         animation: keyframes7 0.641439s both;
         animation-delay: 4.946615s;
         animation-timing-function: linear;
       }
    @keyframes keyframes8 {
      from {
       stroke: blue;
       stroke-dashoffset: 597;
       stroke-width: 128;
       }
       66% {
       animation-timing-function: step-end;
       stroke: blue;
       stroke-dashoffset: 0;
       stroke-width: 128;
       }
       to {
       stroke: black;
       stroke-width: 1024;
       }
       }
       #make-me-a-hanzi-animation-8 {
         animation: keyframes8 0.735840s both;
         animation-delay: 5.588053s;
         animation-timing-function: linear;
       }
    @keyframes keyframes9 {
      from {
       stroke: blue;
       stroke-dashoffset: 443;
       stroke-width: 128;
       }
       59% {
       animation-timing-function: step-end;
       stroke: blue;
       stroke-dashoffset: 0;
       stroke-width: 128;
       }
       to {
       stroke: black;
       stroke-width: 1024;
       }
       }
       #make-me-a-hanzi-animation-9 {
         animation: keyframes9 0.610514s both;
         animation-delay: 6.323893s;
         animation-timing-function: linear;
       }
    @keyframes keyframes10 {
      from {
       stroke: blue;
       stroke-dashoffset: 550;
       stroke-width: 128;
       }
       64% {
       animation-timing-function: step-end;
       stroke: blue;
       stroke-dashoffset: 0;
       stroke-width: 128;
       }
       to {
       stroke: black;
       stroke-width: 1024;
       }
       }
       #make-me-a-hanzi-animation-10 {
         animation: keyframes10 0.697591s both;
         animation-delay: 6.934408s;
         animation-timing-function: linear;
       }
    @keyframes keyframes11 {
      from {
       stroke: blue;
       stroke-dashoffset: 1325;
       stroke-width: 128;
       }
       81% {
       animation-timing-function: step-end;
       stroke: blue;
       stroke-dashoffset: 0;
       stroke-width: 128;
       }
       to {
       stroke: black;
       stroke-width: 1024;
       }
       }
       #make-me-a-hanzi-animation-11 {
         animation: keyframes11 1.328288s both;
         animation-delay: 7.631999s;
         animation-timing-function: linear;
       }
    @keyframes keyframes12 {
      from {
       stroke: blue;
       stroke-dashoffset: 714;
       stroke-width: 128;
       }
       70% {
       animation-timing-function: step-end;
       stroke: blue;
       stroke-dashoffset: 0;
       stroke-width: 128;
       }
       to {
       stroke: black;
       stroke-width: 1024;
       }
       }
       #make-me-a-hanzi-animation-12 {
         animation: keyframes12 0.831055s both;
         animation-delay: 8.960286s;
         animation-timing-function: linear;
       }
    @keyframes keyframes13 {
      from {
       stroke: blue;
       stroke-dashoffset: 393;
       stroke-width: 128;
       }
       56% {
       animation-timing-function: step-end;
       stroke: blue;
       stroke-dashoffset: 0;
       stroke-width: 128;
       }
       to {
       stroke: black;
       stroke-width: 1024;
       }
       }
       #make-me-a-hanzi-animation-13 {
         animation: keyframes13 0.569824s both;
         animation-delay: 9.791341s;
         animation-timing-function: linear;
       }
</style>
<path d="M 245.0 524.0 Q 326.0 635.0 376.0 722.0 L 386.0 741.0 Q 401.0 771.0 412.0 782.0 Q 419.0 788.0 417.0 798.0 Q 414.0 808.0 401.0 818.0 Q 371.0 845.0 335.0 839.0 Q 326.0 836.0 330.0 824.0 Q 349.0 731.0 215.0 554.0 Q 209.0 548.0 204.0 541.0 Q 162.0 489.0 59.0 389.0 Q 50.0 383.0 61.0 381.0 Q 112.0 388.0 226.0 502.0 Q 226.0 505.0 229.0 506.0 L 245.0 524.0 Z" fill="lightgray"></path> 
<path d="M 376.0 722.0 Q 382.0 715.0 403.0 699.0 Q 445.0 669.0 488.0 634.0 Q 501.0 624.0 514.0 625.0 Q 524.0 626.0 527.0 637.0 Q 531.0 650.0 521.0 676.0 Q 509.0 712.0 397.0 740.0 Q 390.0 741.0 386.0 741.0 C 356.0 743.0 356.0 743.0 376.0 722.0 Z" fill="lightgray"></path> 
<path d="M 339.0 603.0 Q 382.0 558.0 406.0 549.0 Q 419.0 546.0 426.0 558.0 Q 430.0 568.0 428.0 582.0 Q 418.0 616.0 367.0 630.0 Q 334.0 639.0 327.0 636.0 Q 323.0 635.0 324.0 624.0 Q 325.0 615.0 339.0 603.0 Z" fill="lightgray"></path> 
<path d="M 485.0 352.0 Q 513.0 454.0 550.0 483.0 Q 566.0 501.0 551.0 517.0 Q 479.0 569.0 428.0 540.0 Q 382.0 522.0 291.0 498.0 C 262.0 490.0 274.0 460.0 303.0 469.0 Q 309.0 472.0 440.0 505.0 Q 456.0 509.0 462.0 504.0 Q 474.0 492.0 469.0 468.0 Q 456.0 410.0 440.0 361.0 C 431.0 332.0 477.0 323.0 485.0 352.0 Z" fill="lightgray"></path> 
<path d="M 282.0 389.0 Q 286.0 389.0 294.0 390.0 Q 363.0 405.0 414.0 413.0 Q 436.0 417.0 427.0 430.0 Q 417.0 443.0 393.0 446.0 Q 357.0 449.0 288.0 417.0 C 261.0 404.0 252.0 387.0 282.0 389.0 Z" fill="lightgray"></path> 
<path d="M 262.0 295.0 Q 269.0 294.0 277.0 295.0 Q 347.0 310.0 497.0 319.0 Q 507.0 320.0 509.0 329.0 Q 509.0 336.0 485.0 352.0 L 440.0 361.0 Q 436.0 361.0 433.0 360.0 Q 345.0 341.0 271.0 330.0 C 241.0 326.0 232.0 297.0 262.0 295.0 Z" fill="lightgray"></path> 
<path d="M 244.0 236.0 Q 253.0 266.0 262.0 295.0 L 271.0 330.0 Q 277.0 358.0 282.0 384.0 Q 282.0 387.0 282.0 389.0 L 288.0 417.0 Q 289.0 444.0 303.0 469.0 C 309.0 483.0 309.0 483.0 291.0 498.0 Q 261.0 525.0 245.0 524.0 C 220.0 531.0 220.0 531.0 229.0 506.0 Q 241.0 481.0 238.0 441.0 Q 220.0 284.0 180.0 189.0 Q 144.0 113.0 78.0 20.0 Q 74.0 14.0 71.0 9.0 Q 68.0 0.0 77.0 1.0 Q 119.0 10.0 194.0 126.0 Q 195.0 130.0 198.0 134.0 Q 216.0 168.0 232.0 206.0 L 244.0 236.0 Z" fill="lightgray"></path> 
<path d="M 293.0 223.0 L 291.0 225.0 Q 279.0 232.0 244.0 236.0 C 216.0 239.0 219.0 233.0 232.0 206.0 Q 259.0 151.0 277.0 60.0 Q 281.0 32.0 298.0 12.0 Q 316.0 -10.0 321.0 6.0 Q 325.0 22.0 323.0 49.0 L 318.0 80.0 Q 302.0 162.0 299.0 192.0 C 296.0 221.0 296.0 221.0 293.0 223.0 Z" fill="lightgray"></path> 
<path d="M 489.0 99.0 Q 519.0 180.0 548.0 197.0 Q 564.0 213.0 550.0 231.0 Q 534.0 244.0 486.0 267.0 Q 470.0 274.0 449.0 267.0 Q 409.0 249.0 372.0 240.0 Q 332.0 230.0 293.0 223.0 C 263.0 218.0 269.0 191.0 299.0 192.0 Q 314.0 191.0 333.0 197.0 Q 456.0 221.0 460.0 215.0 Q 467.0 208.0 466.0 192.0 Q 456.0 143.0 443.0 103.0 C 434.0 74.0 478.0 71.0 489.0 99.0 Z" fill="lightgray"></path> 
<path d="M 323.0 49.0 L 325.0 48.0 Q 335.0 45.0 349.0 48.0 Q 398.0 57.0 505.0 63.0 Q 515.0 64.0 517.0 72.0 Q 517.0 81.0 489.0 99.0 L 443.0 103.0 L 441.0 103.0 Q 372.0 87.0 318.0 80.0 C 288.0 76.0 294.0 58.0 323.0 49.0 Z" fill="lightgray"></path> 
<path d="M 710.0 453.0 Q 758.0 472.0 810.0 489.0 Q 844.0 502.0 849.0 508.0 Q 856.0 518.0 851.0 526.0 Q 842.0 536.0 811.0 540.0 Q 780.0 541.0 751.0 525.0 Q 729.0 513.0 704.0 502.0 L 663.0 485.0 Q 618.0 469.0 566.0 456.0 Q 530.0 446.0 559.0 432.0 Q 601.0 414.0 669.0 439.0 L 670.0 439.0 L 710.0 453.0 Z" fill="lightgray"></path> 
<path d="M 734.0 183.0 Q 782.0 60.0 865.0 -20.0 Q 923.0 -69.0 953.0 -69.0 Q 974.0 -65.0 966.0 -36.0 Q 962.0 9.0 961.0 141.0 Q 961.0 163.0 953.0 163.0 Q 946.0 163.0 941.0 143.0 Q 928.0 109.0 915.0 81.0 Q 905.0 51.0 893.0 51.0 Q 851.0 55.0 789.0 174.0 Q 780.0 195.0 767.0 219.0 L 751.0 263.0 Q 721.0 356.0 710.0 453.0 L 704.0 502.0 Q 686.0 652.0 705.0 750.0 Q 721.0 790.0 666.0 814.0 Q 632.0 832.0 612.0 825.0 Q 591.0 819.0 600.0 799.0 Q 643.0 756.0 642.0 722.0 Q 649.0 589.0 663.0 485.0 L 670.0 439.0 Q 682.0 343.0 720.0 223.0 L 734.0 183.0 Z" fill="lightgray"></path> 
<path d="M 720.0 223.0 Q 633.0 138.0 567.0 83.0 Q 560.0 79.0 569.0 76.0 Q 638.0 88.0 734.0 183.0 L 767.0 219.0 Q 807.0 265.0 870.0 356.0 Q 891.0 387.0 891.0 388.0 Q 888.0 410.0 851.0 425.0 Q 833.0 431.0 823.0 430.0 Q 816.0 429.0 817.0 417.0 Q 823.0 368.0 751.0 263.0 L 720.0 223.0 Z" fill="lightgray"></path> 
<path d="M 791.0 677.0 Q 819.0 653.0 848.0 624.0 Q 861.0 612.0 876.0 612.0 Q 886.0 613.0 891.0 626.0 Q 895.0 639.0 887.0 668.0 Q 878.0 699.0 787.0 723.0 Q 772.0 727.0 766.0 724.0 Q 762.0 720.0 762.0 708.0 Q 766.0 698.0 791.0 677.0 Z" fill="lightgray"></path> 
      <clipPath id="make-me-a-hanzi-clip-0">
      <path d="M 245.0 524.0 Q 326.0 635.0 376.0 722.0 L 386.0 741.0 Q 401.0 771.0 412.0 782.0 Q 419.0 788.0 417.0 798.0 Q 414.0 808.0 401.0 818.0 Q 371.0 845.0 335.0 839.0 Q 326.0 836.0 330.0 824.0 Q 349.0 731.0 215.0 554.0 Q 209.0 548.0 204.0 541.0 Q 162.0 489.0 59.0 389.0 Q 50.0 383.0 61.0 381.0 Q 112.0 388.0 226.0 502.0 Q 226.0 505.0 229.0 506.0 L 245.0 524.0 Z" fill="lightgray"></path>
      </clipPath>
      <path clip-path="url(#make-me-a-hanzi-clip-0)" d="M 343.0 828.0 L 371.0 793.0 L 337.0 705.0 L 292.0 627.0 L 234.0 543.0 L 173.0 475.0 L 64.0 386.0 " fill="none" id="make-me-a-hanzi-animation-0" stroke-dasharray="691 1382" stroke-linecap="round"></path>

      <clipPath id="make-me-a-hanzi-clip-1">
      <path d="M 376.0 722.0 Q 382.0 715.0 403.0 699.0 Q 445.0 669.0 488.0 634.0 Q 501.0 624.0 514.0 625.0 Q 524.0 626.0 527.0 637.0 Q 531.0 650.0 521.0 676.0 Q 509.0 712.0 397.0 740.0 Q 390.0 741.0 386.0 741.0 C 356.0 743.0 356.0 743.0 376.0 722.0 Z" fill="lightgray"></path>
      </clipPath>
      <path clip-path="url(#make-me-a-hanzi-clip-1)" d="M 384.0 724.0 L 405.0 722.0 L 471.0 685.0 L 493.0 667.0 L 513.0 639.0 " fill="none" id="make-me-a-hanzi-animation-1" stroke-dasharray="288 576" stroke-linecap="round"></path>

      <clipPath id="make-me-a-hanzi-clip-2">
      <path d="M 339.0 603.0 Q 382.0 558.0 406.0 549.0 Q 419.0 546.0 426.0 558.0 Q 430.0 568.0 428.0 582.0 Q 418.0 616.0 367.0 630.0 Q 334.0 639.0 327.0 636.0 Q 323.0 635.0 324.0 624.0 Q 325.0 615.0 339.0 603.0 Z" fill="lightgray"></path>
      </clipPath>
      <path clip-path="url(#make-me-a-hanzi-clip-2)" d="M 331.0 629.0 L 382.0 598.0 L 411.0 565.0 " fill="none" id="make-me-a-hanzi-animation-2" stroke-dasharray="232 464" stroke-linecap="round"></path>

      <clipPath id="make-me-a-hanzi-clip-3">
      <path d="M 485.0 352.0 Q 513.0 454.0 550.0 483.0 Q 566.0 501.0 551.0 517.0 Q 479.0 569.0 428.0 540.0 Q 382.0 522.0 291.0 498.0 C 262.0 490.0 274.0 460.0 303.0 469.0 Q 309.0 472.0 440.0 505.0 Q 456.0 509.0 462.0 504.0 Q 474.0 492.0 469.0 468.0 Q 456.0 410.0 440.0 361.0 C 431.0 332.0 477.0 323.0 485.0 352.0 Z" fill="lightgray"></path>
      </clipPath>
      <path clip-path="url(#make-me-a-hanzi-clip-3)" d="M 302.0 477.0 L 312.0 488.0 L 453.0 528.0 L 474.0 526.0 L 496.0 512.0 L 507.0 496.0 L 505.0 484.0 L 473.0 388.0 L 449.0 366.0 " fill="none" id="make-me-a-hanzi-animation-3" stroke-dasharray="502 1004" stroke-linecap="round"></path>

      <clipPath id="make-me-a-hanzi-clip-4">
      <path d="M 282.0 389.0 Q 286.0 389.0 294.0 390.0 Q 363.0 405.0 414.0 413.0 Q 436.0 417.0 427.0 430.0 Q 417.0 443.0 393.0 446.0 Q 357.0 449.0 288.0 417.0 C 261.0 404.0 252.0 387.0 282.0 389.0 Z" fill="lightgray"></path>
      </clipPath>
      <path clip-path="url(#make-me-a-hanzi-clip-4)" d="M 288.0 395.0 L 303.0 409.0 L 338.0 419.0 L 387.0 428.0 L 418.0 423.0 " fill="none" id="make-me-a-hanzi-animation-4" stroke-dasharray="266 532" stroke-linecap="round"></path>

      <clipPath id="make-me-a-hanzi-clip-5">
      <path d="M 262.0 295.0 Q 269.0 294.0 277.0 295.0 Q 347.0 310.0 497.0 319.0 Q 507.0 320.0 509.0 329.0 Q 509.0 336.0 485.0 352.0 L 440.0 361.0 Q 436.0 361.0 433.0 360.0 Q 345.0 341.0 271.0 330.0 C 241.0 326.0 232.0 297.0 262.0 295.0 Z" fill="lightgray"></path>
      </clipPath>
      <path clip-path="url(#make-me-a-hanzi-clip-5)" d="M 270.0 299.0 L 285.0 315.0 L 413.0 335.0 L 474.0 337.0 L 500.0 328.0 " fill="none" id="make-me-a-hanzi-animation-5" stroke-dasharray="368 736" stroke-linecap="round"></path>

      <clipPath id="make-me-a-hanzi-clip-6">
      <path d="M 244.0 236.0 Q 253.0 266.0 262.0 295.0 L 271.0 330.0 Q 277.0 358.0 282.0 384.0 Q 282.0 387.0 282.0 389.0 L 288.0 417.0 Q 289.0 444.0 303.0 469.0 C 309.0 483.0 309.0 483.0 291.0 498.0 Q 261.0 525.0 245.0 524.0 C 220.0 531.0 220.0 531.0 229.0 506.0 Q 241.0 481.0 238.0 441.0 Q 220.0 284.0 180.0 189.0 Q 144.0 113.0 78.0 20.0 Q 74.0 14.0 71.0 9.0 Q 68.0 0.0 77.0 1.0 Q 119.0 10.0 194.0 126.0 Q 195.0 130.0 198.0 134.0 Q 216.0 168.0 232.0 206.0 L 244.0 236.0 Z" fill="lightgray"></path>
      </clipPath>
      <path clip-path="url(#make-me-a-hanzi-clip-6)" d="M 240.0 504.0 L 258.0 495.0 L 269.0 470.0 L 244.0 318.0 L 225.0 250.0 L 198.0 177.0 L 160.0 107.0 L 107.0 36.0 L 79.0 9.0 " fill="none" id="make-me-a-hanzi-animation-6" stroke-dasharray="685 1370" stroke-linecap="round"></path>

      <clipPath id="make-me-a-hanzi-clip-7">
      <path d="M 293.0 223.0 L 291.0 225.0 Q 279.0 232.0 244.0 236.0 C 216.0 239.0 219.0 233.0 232.0 206.0 Q 259.0 151.0 277.0 60.0 Q 281.0 32.0 298.0 12.0 Q 316.0 -10.0 321.0 6.0 Q 325.0 22.0 323.0 49.0 L 318.0 80.0 Q 302.0 162.0 299.0 192.0 C 296.0 221.0 296.0 221.0 293.0 223.0 Z" fill="lightgray"></path>
      </clipPath>
      <path clip-path="url(#make-me-a-hanzi-clip-7)" d="M 251.0 227.0 L 270.0 194.0 L 310.0 11.0 " fill="none" id="make-me-a-hanzi-animation-7" stroke-dasharray="353 706" stroke-linecap="round"></path>

      <clipPath id="make-me-a-hanzi-clip-8">
      <path d="M 489.0 99.0 Q 519.0 180.0 548.0 197.0 Q 564.0 213.0 550.0 231.0 Q 534.0 244.0 486.0 267.0 Q 470.0 274.0 449.0 267.0 Q 409.0 249.0 372.0 240.0 Q 332.0 230.0 293.0 223.0 C 263.0 218.0 269.0 191.0 299.0 192.0 Q 314.0 191.0 333.0 197.0 Q 456.0 221.0 460.0 215.0 Q 467.0 208.0 466.0 192.0 Q 456.0 143.0 443.0 103.0 C 434.0 74.0 478.0 71.0 489.0 99.0 Z" fill="lightgray"></path>
      </clipPath>
      <path clip-path="url(#make-me-a-hanzi-clip-8)" d="M 301.0 216.0 L 316.0 211.0 L 343.0 214.0 L 462.0 243.0 L 482.0 236.0 L 505.0 213.0 L 474.0 124.0 L 451.0 108.0 " fill="none" id="make-me-a-hanzi-animation-8" stroke-dasharray="469 938" stroke-linecap="round"></path>

      <clipPath id="make-me-a-hanzi-clip-9">
      <path d="M 323.0 49.0 L 325.0 48.0 Q 335.0 45.0 349.0 48.0 Q 398.0 57.0 505.0 63.0 Q 515.0 64.0 517.0 72.0 Q 517.0 81.0 489.0 99.0 L 443.0 103.0 L 441.0 103.0 Q 372.0 87.0 318.0 80.0 C 288.0 76.0 294.0 58.0 323.0 49.0 Z" fill="lightgray"></path>
      </clipPath>
      <path clip-path="url(#make-me-a-hanzi-clip-9)" d="M 326.0 73.0 L 339.0 65.0 L 464.0 82.0 L 508.0 72.0 " fill="none" id="make-me-a-hanzi-animation-9" stroke-dasharray="315 630" stroke-linecap="round"></path>

      <clipPath id="make-me-a-hanzi-clip-10">
      <path d="M 710.0 453.0 Q 758.0 472.0 810.0 489.0 Q 844.0 502.0 849.0 508.0 Q 856.0 518.0 851.0 526.0 Q 842.0 536.0 811.0 540.0 Q 780.0 541.0 751.0 525.0 Q 729.0 513.0 704.0 502.0 L 663.0 485.0 Q 618.0 469.0 566.0 456.0 Q 530.0 446.0 559.0 432.0 Q 601.0 414.0 669.0 439.0 L 670.0 439.0 L 710.0 453.0 Z" fill="lightgray"></path>
      </clipPath>
      <path clip-path="url(#make-me-a-hanzi-clip-10)" d="M 559.0 445.0 L 581.0 442.0 L 636.0 452.0 L 770.0 505.0 L 840.0 519.0 " fill="none" id="make-me-a-hanzi-animation-10" stroke-dasharray="422 844" stroke-linecap="round"></path>

      <clipPath id="make-me-a-hanzi-clip-11">
      <path d="M 734.0 183.0 Q 782.0 60.0 865.0 -20.0 Q 923.0 -69.0 953.0 -69.0 Q 974.0 -65.0 966.0 -36.0 Q 962.0 9.0 961.0 141.0 Q 961.0 163.0 953.0 163.0 Q 946.0 163.0 941.0 143.0 Q 928.0 109.0 915.0 81.0 Q 905.0 51.0 893.0 51.0 Q 851.0 55.0 789.0 174.0 Q 780.0 195.0 767.0 219.0 L 751.0 263.0 Q 721.0 356.0 710.0 453.0 L 704.0 502.0 Q 686.0 652.0 705.0 750.0 Q 721.0 790.0 666.0 814.0 Q 632.0 832.0 612.0 825.0 Q 591.0 819.0 600.0 799.0 Q 643.0 756.0 642.0 722.0 Q 649.0 589.0 663.0 485.0 L 670.0 439.0 Q 682.0 343.0 720.0 223.0 L 734.0 183.0 Z" fill="lightgray"></path>
      </clipPath>
      <path clip-path="url(#make-me-a-hanzi-clip-11)" d="M 613.0 809.0 L 646.0 792.0 L 670.0 766.0 L 676.0 552.0 L 697.0 393.0 L 731.0 254.0 L 778.0 142.0 L 816.0 79.0 L 846.0 44.0 L 887.0 12.0 L 914.0 5.0 L 935.0 54.0 L 953.0 157.0 " fill="none" id="make-me-a-hanzi-animation-11" stroke-dasharray="1197 2394" stroke-linecap="round"></path>

      <clipPath id="make-me-a-hanzi-clip-12">
      <path d="M 720.0 223.0 Q 633.0 138.0 567.0 83.0 Q 560.0 79.0 569.0 76.0 Q 638.0 88.0 734.0 183.0 L 767.0 219.0 Q 807.0 265.0 870.0 356.0 Q 891.0 387.0 891.0 388.0 Q 888.0 410.0 851.0 425.0 Q 833.0 431.0 823.0 430.0 Q 816.0 429.0 817.0 417.0 Q 823.0 368.0 751.0 263.0 L 720.0 223.0 Z" fill="lightgray"></path>
      </clipPath>
      <path clip-path="url(#make-me-a-hanzi-clip-12)" d="M 828.0 420.0 L 847.0 395.0 L 849.0 383.0 L 771.0 255.0 L 686.0 163.0 L 574.0 81.0 " fill="none" id="make-me-a-hanzi-animation-12" stroke-dasharray="586 1172" stroke-linecap="round"></path>

      <clipPath id="make-me-a-hanzi-clip-13">
      <path d="M 791.0 677.0 Q 819.0 653.0 848.0 624.0 Q 861.0 612.0 876.0 612.0 Q 886.0 613.0 891.0 626.0 Q 895.0 639.0 887.0 668.0 Q 878.0 699.0 787.0 723.0 Q 772.0 727.0 766.0 724.0 Q 762.0 720.0 762.0 708.0 Q 766.0 698.0 791.0 677.0 Z" fill="lightgray"></path>
      </clipPath>
      <path clip-path="url(#make-me-a-hanzi-clip-13)" d="M 771.0 718.0 L 853.0 663.0 L 873.0 630.0 " fill="none" id="make-me-a-hanzi-animation-13" stroke-dasharray="265 530" stroke-linecap="round"></path>

</g>
</svg>
