<svg version="1.1" viewBox="0 0 1024 1024" xmlns="http://www.w3.org/2000/svg">
  <g stroke="lightgray" stroke-dasharray="1,1" stroke-width="1" transform="scale(4, 4)">
    <line x1="0" y1="0" x2="256" y2="256"></line>
    <line x1="256" y1="0" x2="0" y2="256"></line>
    <line x1="128" y1="0" x2="128" y2="256"></line>
    <line x1="0" y1="128" x2="256" y2="128"></line>
  </g>
  <g transform="scale(0.92, -0.92) translate(60, -900)">
    <style type="text/css">
      
        @keyframes keyframes0 {
          from {
            stroke: blue;
            stroke-dashoffset: 502;
            stroke-width: 128;
          }
          62% {
            animation-timing-function: step-end;
            stroke: blue;
            stroke-dashoffset: 0;
            stroke-width: 128;
          }
          to {
            stroke: black;
            stroke-width: 1024;
          }
        }
        #make-me-a-hanzi-animation-0 {
          animation: keyframes0 0.6585286458333334s both;
          animation-delay: 0s;
          animation-timing-function: linear;
        }
      
        @keyframes keyframes1 {
          from {
            stroke: blue;
            stroke-dashoffset: 1113;
            stroke-width: 128;
          }
          78% {
            animation-timing-function: step-end;
            stroke: blue;
            stroke-dashoffset: 0;
            stroke-width: 128;
          }
          to {
            stroke: black;
            stroke-width: 1024;
          }
        }
        #make-me-a-hanzi-animation-1 {
          animation: keyframes1 1.15576171875s both;
          animation-delay: 0.6585286458333334s;
          animation-timing-function: linear;
        }
      
        @keyframes keyframes2 {
          from {
            stroke: blue;
            stroke-dashoffset: 591;
            stroke-width: 128;
          }
          66% {
            animation-timing-function: step-end;
            stroke: blue;
            stroke-dashoffset: 0;
            stroke-width: 128;
          }
          to {
            stroke: black;
            stroke-width: 1024;
          }
        }
        #make-me-a-hanzi-animation-2 {
          animation: keyframes2 0.73095703125s both;
          animation-delay: 1.8142903645833335s;
          animation-timing-function: linear;
        }
      
        @keyframes keyframes3 {
          from {
            stroke: blue;
            stroke-dashoffset: 576;
            stroke-width: 128;
          }
          65% {
            animation-timing-function: step-end;
            stroke: blue;
            stroke-dashoffset: 0;
            stroke-width: 128;
          }
          to {
            stroke: black;
            stroke-width: 1024;
          }
        }
        #make-me-a-hanzi-animation-3 {
          animation: keyframes3 0.71875s both;
          animation-delay: 2.5452473958333335s;
          animation-timing-function: linear;
        }
      
        @keyframes keyframes4 {
          from {
            stroke: blue;
            stroke-dashoffset: 904;
            stroke-width: 128;
          }
          75% {
            animation-timing-function: step-end;
            stroke: blue;
            stroke-dashoffset: 0;
            stroke-width: 128;
          }
          to {
            stroke: black;
            stroke-width: 1024;
          }
        }
        #make-me-a-hanzi-animation-4 {
          animation: keyframes4 0.9856770833333334s both;
          animation-delay: 3.2639973958333335s;
          animation-timing-function: linear;
        }
      
        @keyframes keyframes5 {
          from {
            stroke: blue;
            stroke-dashoffset: 527;
            stroke-width: 128;
          }
          63% {
            animation-timing-function: step-end;
            stroke: blue;
            stroke-dashoffset: 0;
            stroke-width: 128;
          }
          to {
            stroke: black;
            stroke-width: 1024;
          }
        }
        #make-me-a-hanzi-animation-5 {
          animation: keyframes5 0.6788736979166666s both;
          animation-delay: 4.249674479166667s;
          animation-timing-function: linear;
        }
      
        @keyframes keyframes6 {
          from {
            stroke: blue;
            stroke-dashoffset: 349;
            stroke-width: 128;
          }
          53% {
            animation-timing-function: step-end;
            stroke: blue;
            stroke-dashoffset: 0;
            stroke-width: 128;
          }
          to {
            stroke: black;
            stroke-width: 1024;
          }
        }
        #make-me-a-hanzi-animation-6 {
          animation: keyframes6 0.5340169270833334s both;
          animation-delay: 4.928548177083334s;
          animation-timing-function: linear;
        }
      
        @keyframes keyframes7 {
          from {
            stroke: blue;
            stroke-dashoffset: 645;
            stroke-width: 128;
          }
          68% {
            animation-timing-function: step-end;
            stroke: blue;
            stroke-dashoffset: 0;
            stroke-width: 128;
          }
          to {
            stroke: black;
            stroke-width: 1024;
          }
        }
        #make-me-a-hanzi-animation-7 {
          animation: keyframes7 0.77490234375s both;
          animation-delay: 5.462565104166667s;
          animation-timing-function: linear;
        }
      
        @keyframes keyframes8 {
          from {
            stroke: blue;
            stroke-dashoffset: 906;
            stroke-width: 128;
          }
          75% {
            animation-timing-function: step-end;
            stroke: blue;
            stroke-dashoffset: 0;
            stroke-width: 128;
          }
          to {
            stroke: black;
            stroke-width: 1024;
          }
        }
        #make-me-a-hanzi-animation-8 {
          animation: keyframes8 0.9873046875s both;
          animation-delay: 6.237467447916667s;
          animation-timing-function: linear;
        }
      
    </style>
    
      <path d="M 302 493 Q 321 500 346 507 Q 374 517 378 521 Q 385 530 380 537 Q 373 547 343 552 Q 324 553 304 548 L 258 528 Q 189 503 137 493 Q 103 483 130 470 Q 175 451 225 470 Q 238 474 257 479 L 302 493 Z" fill="lightgray"></path>
    
      <path d="M 254 318 Q 253 224 251 98 Q 250 76 238 66 Q 234 65 170 78 Q 142 91 143 81 Q 144 74 162 60 Q 217 11 232 -16 Q 248 -47 262 -49 Q 275 -50 290 -18 Q 306 22 307 91 Q 300 224 299 358 L 299 386 Q 299 440 302 493 L 304 548 Q 320 687 323 693 Q 339 721 288 741 Q 257 759 240 752 Q 224 746 238 725 Q 257 700 258 669 Q 259 653 258 528 L 257 479 Q 256 427 255 357 L 254 318 Z" fill="lightgray"></path>
    
      <path d="M 255 357 Q 179 308 113 260 Q 83 239 63 232 Q 53 225 51 218 Q 50 211 64 198 Q 83 185 104 180 Q 113 179 132 195 Q 172 247 254 318 L 299 358 Q 306 365 314 371 Q 330 384 337 396 Q 343 409 333 408 Q 317 405 299 386 L 255 357 Z" fill="lightgray"></path>
    
      <path d="M 707 401 Q 768 417 851 431 Q 861 430 871 444 Q 871 457 846 466 Q 810 487 726 455 Q 719 454 712 450 L 666 437 L 614 426 Q 584 422 550 414 Q 522 408 545 392 Q 579 370 630 383 Q 643 387 660 390 L 707 401 Z" fill="lightgray"></path>
    
      <path d="M 699 354 L 707 401 L 712 450 Q 713 480 716 510 Q 719 606 734 652 Q 738 662 731 669 Q 683 708 652 698 Q 636 691 649 677 Q 673 652 673 625 Q 674 519 666 437 L 660 390 Q 642 254 555 159 Q 518 128 517 125 Q 513 119 527 120 Q 557 120 618 174 Q 679 228 693 327 L 699 354 Z" fill="lightgray"></path>
    
      <path d="M 693 327 Q 751 245 819 131 Q 828 112 839 106 Q 845 103 853 110 Q 865 117 863 154 Q 863 214 699 354 C 676 374 676 352 693 327 Z" fill="lightgray"></path>
    
      <path d="M 435 552 Q 462 504 487 488 Q 499 484 508 493 Q 515 503 515 517 Q 514 536 501 550 Q 495 556 448 583 Q 436 589 430 586 Q 426 586 425 576 Q 425 566 435 552 Z" fill="lightgray"></path>
    
      <path d="M 454 97 Q 470 107 479 125 Q 491 158 458 205 Q 433 254 482 318 Q 485 324 489 327 Q 505 343 490 355 Q 474 367 445 377 Q 429 384 397 360 Q 340 330 328 330 Q 322 331 321 326 Q 320 322 326 319 Q 356 306 406 328 Q 415 331 422 320 Q 440 305 424 282 Q 393 243 432 184 Q 438 172 442 163 Q 454 130 439 104 Q 438 103 437 101 C 423 75 430 79 454 97 Z" fill="lightgray"></path>
    
      <path d="M 437 101 Q 418 107 391 103 Q 367 97 345 104 Q 329 107 326 99 Q 322 89 337 76 Q 355 58 409 67 Q 451 71 510 40 L 736 -74 Q 770 -93 820 -73 L 946 -26 Q 965 -19 965 -9 Q 965 1 914 0 Q 728 6 703 12 Q 676 19 466 93 Q 460 96 454 97 L 437 101 Z" fill="lightgray"></path>
    
    
      <clipPath id="make-me-a-hanzi-clip-0">
        <path d="M 302 493 Q 321 500 346 507 Q 374 517 378 521 Q 385 530 380 537 Q 373 547 343 552 Q 324 553 304 548 L 258 528 Q 189 503 137 493 Q 103 483 130 470 Q 175 451 225 470 Q 238 474 257 479 L 302 493 Z"></path>
      </clipPath>
      <path clip-path="url(#make-me-a-hanzi-clip-0)" d="M 131 482 L 183 481 L 308 523 L 370 530" fill="none" id="make-me-a-hanzi-animation-0" stroke-dasharray="374 748" stroke-linecap="round"></path>
    
      <clipPath id="make-me-a-hanzi-clip-1">
        <path d="M 254 318 Q 253 224 251 98 Q 250 76 238 66 Q 234 65 170 78 Q 142 91 143 81 Q 144 74 162 60 Q 217 11 232 -16 Q 248 -47 262 -49 Q 275 -50 290 -18 Q 306 22 307 91 Q 300 224 299 358 L 299 386 Q 299 440 302 493 L 304 548 Q 320 687 323 693 Q 339 721 288 741 Q 257 759 240 752 Q 224 746 238 725 Q 257 700 258 669 Q 259 653 258 528 L 257 479 Q 256 427 255 357 L 254 318 Z"></path>
      </clipPath>
      <path clip-path="url(#make-me-a-hanzi-clip-1)" d="M 246 738 L 285 708 L 289 694 L 277 430 L 279 82 L 257 26 L 149 79" fill="none" id="make-me-a-hanzi-animation-1" stroke-dasharray="985 1970" stroke-linecap="round"></path>
    
      <clipPath id="make-me-a-hanzi-clip-2">
        <path d="M 255 357 Q 179 308 113 260 Q 83 239 63 232 Q 53 225 51 218 Q 50 211 64 198 Q 83 185 104 180 Q 113 179 132 195 Q 172 247 254 318 L 299 358 Q 306 365 314 371 Q 330 384 337 396 Q 343 409 333 408 Q 317 405 299 386 L 255 357 Z"></path>
      </clipPath>
      <path clip-path="url(#make-me-a-hanzi-clip-2)" d="M 61 217 L 104 215 L 330 400" fill="none" id="make-me-a-hanzi-animation-2" stroke-dasharray="463 926" stroke-linecap="round"></path>
    
      <clipPath id="make-me-a-hanzi-clip-3">
        <path d="M 707 401 Q 768 417 851 431 Q 861 430 871 444 Q 871 457 846 466 Q 810 487 726 455 Q 719 454 712 450 L 666 437 L 614 426 Q 584 422 550 414 Q 522 408 545 392 Q 579 370 630 383 Q 643 387 660 390 L 707 401 Z"></path>
      </clipPath>
      <path clip-path="url(#make-me-a-hanzi-clip-3)" d="M 546 403 L 617 403 L 806 449 L 860 445" fill="none" id="make-me-a-hanzi-animation-3" stroke-dasharray="448 896" stroke-linecap="round"></path>
    
      <clipPath id="make-me-a-hanzi-clip-4">
        <path d="M 699 354 L 707 401 L 712 450 Q 713 480 716 510 Q 719 606 734 652 Q 738 662 731 669 Q 683 708 652 698 Q 636 691 649 677 Q 673 652 673 625 Q 674 519 666 437 L 660 390 Q 642 254 555 159 Q 518 128 517 125 Q 513 119 527 120 Q 557 120 618 174 Q 679 228 693 327 L 699 354 Z"></path>
      </clipPath>
      <path clip-path="url(#make-me-a-hanzi-clip-4)" d="M 654 687 L 676 678 L 701 652 L 690 446 L 670 322 L 646 250 L 617 204 L 571 154 L 522 123" fill="none" id="make-me-a-hanzi-animation-4" stroke-dasharray="776 1552" stroke-linecap="round"></path>
    
      <clipPath id="make-me-a-hanzi-clip-5">
        <path d="M 693 327 Q 751 245 819 131 Q 828 112 839 106 Q 845 103 853 110 Q 865 117 863 154 Q 863 214 699 354 C 676 374 676 352 693 327 Z"></path>
      </clipPath>
      <path clip-path="url(#make-me-a-hanzi-clip-5)" d="M 708 345 L 707 329 L 771 256 L 826 178 L 840 144 L 843 119" fill="none" id="make-me-a-hanzi-animation-5" stroke-dasharray="399 798" stroke-linecap="round"></path>
    
      <clipPath id="make-me-a-hanzi-clip-6">
        <path d="M 435 552 Q 462 504 487 488 Q 499 484 508 493 Q 515 503 515 517 Q 514 536 501 550 Q 495 556 448 583 Q 436 589 430 586 Q 426 586 425 576 Q 425 566 435 552 Z"></path>
      </clipPath>
      <path clip-path="url(#make-me-a-hanzi-clip-6)" d="M 435 577 L 483 529 L 494 506" fill="none" id="make-me-a-hanzi-animation-6" stroke-dasharray="221 442" stroke-linecap="round"></path>
    
      <clipPath id="make-me-a-hanzi-clip-7">
        <path d="M 454 97 Q 470 107 479 125 Q 491 158 458 205 Q 433 254 482 318 Q 485 324 489 327 Q 505 343 490 355 Q 474 367 445 377 Q 429 384 397 360 Q 340 330 328 330 Q 322 331 321 326 Q 320 322 326 319 Q 356 306 406 328 Q 415 331 422 320 Q 440 305 424 282 Q 393 243 432 184 Q 438 172 442 163 Q 454 130 439 104 Q 438 103 437 101 C 423 75 430 79 454 97 Z"></path>
      </clipPath>
      <path clip-path="url(#make-me-a-hanzi-clip-7)" d="M 326 325 L 366 328 L 415 349 L 430 350 L 451 338 L 450 304 L 432 258 L 431 228 L 456 175 L 464 135 L 459 118 L 441 100" fill="none" id="make-me-a-hanzi-animation-7" stroke-dasharray="517 1034" stroke-linecap="round"></path>
    
      <clipPath id="make-me-a-hanzi-clip-8">
        <path d="M 437 101 Q 418 107 391 103 Q 367 97 345 104 Q 329 107 326 99 Q 322 89 337 76 Q 355 58 409 67 Q 451 71 510 40 L 736 -74 Q 770 -93 820 -73 L 946 -26 Q 965 -19 965 -9 Q 965 1 914 0 Q 728 6 703 12 Q 676 19 466 93 Q 460 96 454 97 L 437 101 Z"></path>
      </clipPath>
      <path clip-path="url(#make-me-a-hanzi-clip-8)" d="M 335 94 L 357 83 L 415 86 L 476 74 L 687 -16 L 764 -38 L 958 -11" fill="none" id="make-me-a-hanzi-animation-8" stroke-dasharray="778 1556" stroke-linecap="round"></path>
    
  </g>
</svg>