<svg version="1.1" viewBox="0 0 1024 1024" xmlns="http://www.w3.org/2000/svg">
  <g stroke="lightgray" stroke-dasharray="1,1" stroke-width="1" transform="scale(4, 4)">
    <line x1="0" y1="0" x2="256" y2="256"></line>
    <line x1="256" y1="0" x2="0" y2="256"></line>
    <line x1="128" y1="0" x2="128" y2="256"></line>
    <line x1="0" y1="128" x2="256" y2="128"></line>
  </g>
  <g transform="scale(0.92, -0.92) translate(60, -850)">
    <style type="text/css">
      
        @keyframes keyframes0 {
          from {
            stroke: blue;
            stroke-dashoffset: 572;
            stroke-width: 128;
          }
          65% {
            animation-timing-function: step-end;
            stroke: blue;
            stroke-dashoffset: 0;
            stroke-width: 128;
          }
          to {
            stroke: black;
            stroke-width: 1024;
          }
        }
        #make-me-a-hanzi-animation-0 {
          animation: keyframes0 0.7154947916666666s both;
          animation-delay: 0s;
          animation-timing-function: linear;
        }
      
        @keyframes keyframes1 {
          from {
            stroke: blue;
            stroke-dashoffset: 1152;
            stroke-width: 128;
          }
          79% {
            animation-timing-function: step-end;
            stroke: blue;
            stroke-dashoffset: 0;
            stroke-width: 128;
          }
          to {
            stroke: black;
            stroke-width: 1024;
          }
        }
        #make-me-a-hanzi-animation-1 {
          animation: keyframes1 1.1875s both;
          animation-delay: 0.7154947916666666s;
          animation-timing-function: linear;
        }
      
        @keyframes keyframes2 {
          from {
            stroke: blue;
            stroke-dashoffset: 691;
            stroke-width: 128;
          }
          69% {
            animation-timing-function: step-end;
            stroke: blue;
            stroke-dashoffset: 0;
            stroke-width: 128;
          }
          to {
            stroke: black;
            stroke-width: 1024;
          }
        }
        #make-me-a-hanzi-animation-2 {
          animation: keyframes2 0.8123372395833334s both;
          animation-delay: 1.9029947916666665s;
          animation-timing-function: linear;
        }
      
        @keyframes keyframes3 {
          from {
            stroke: blue;
            stroke-dashoffset: 632;
            stroke-width: 128;
          }
          67% {
            animation-timing-function: step-end;
            stroke: blue;
            stroke-dashoffset: 0;
            stroke-width: 128;
          }
          to {
            stroke: black;
            stroke-width: 1024;
          }
        }
        #make-me-a-hanzi-animation-3 {
          animation: keyframes3 0.7643229166666666s both;
          animation-delay: 2.71533203125s;
          animation-timing-function: linear;
        }
      
        @keyframes keyframes4 {
          from {
            stroke: blue;
            stroke-dashoffset: 840;
            stroke-width: 128;
          }
          73% {
            animation-timing-function: step-end;
            stroke: blue;
            stroke-dashoffset: 0;
            stroke-width: 128;
          }
          to {
            stroke: black;
            stroke-width: 1024;
          }
        }
        #make-me-a-hanzi-animation-4 {
          animation: keyframes4 0.93359375s both;
          animation-delay: 3.4796549479166665s;
          animation-timing-function: linear;
        }
      
        @keyframes keyframes5 {
          from {
            stroke: blue;
            stroke-dashoffset: 683;
            stroke-width: 128;
          }
          69% {
            animation-timing-function: step-end;
            stroke: blue;
            stroke-dashoffset: 0;
            stroke-width: 128;
          }
          to {
            stroke: black;
            stroke-width: 1024;
          }
        }
        #make-me-a-hanzi-animation-5 {
          animation: keyframes5 0.8058268229166666s both;
          animation-delay: 4.413248697916666s;
          animation-timing-function: linear;
        }
      
        @keyframes keyframes6 {
          from {
            stroke: blue;
            stroke-dashoffset: 459;
            stroke-width: 128;
          }
          60% {
            animation-timing-function: step-end;
            stroke: blue;
            stroke-dashoffset: 0;
            stroke-width: 128;
          }
          to {
            stroke: black;
            stroke-width: 1024;
          }
        }
        #make-me-a-hanzi-animation-6 {
          animation: keyframes6 0.62353515625s both;
          animation-delay: 5.219075520833333s;
          animation-timing-function: linear;
        }
      
        @keyframes keyframes7 {
          from {
            stroke: blue;
            stroke-dashoffset: 695;
            stroke-width: 128;
          }
          69% {
            animation-timing-function: step-end;
            stroke: blue;
            stroke-dashoffset: 0;
            stroke-width: 128;
          }
          to {
            stroke: black;
            stroke-width: 1024;
          }
        }
        #make-me-a-hanzi-animation-7 {
          animation: keyframes7 0.8155924479166666s both;
          animation-delay: 5.842610677083333s;
          animation-timing-function: linear;
        }
      
        @keyframes keyframes8 {
          from {
            stroke: blue;
            stroke-dashoffset: 570;
            stroke-width: 128;
          }
          65% {
            animation-timing-function: step-end;
            stroke: blue;
            stroke-dashoffset: 0;
            stroke-width: 128;
          }
          to {
            stroke: black;
            stroke-width: 1024;
          }
        }
        #make-me-a-hanzi-animation-8 {
          animation: keyframes8 0.7138671875s both;
          animation-delay: 6.658203125s;
          animation-timing-function: linear;
        }
      
        @keyframes keyframes9 {
          from {
            stroke: blue;
            stroke-dashoffset: 465;
            stroke-width: 128;
          }
          60% {
            animation-timing-function: step-end;
            stroke: blue;
            stroke-dashoffset: 0;
            stroke-width: 128;
          }
          to {
            stroke: black;
            stroke-width: 1024;
          }
        }
        #make-me-a-hanzi-animation-9 {
          animation: keyframes9 0.62841796875s both;
          animation-delay: 7.3720703125s;
          animation-timing-function: linear;
        }
      
        @keyframes keyframes10 {
          from {
            stroke: blue;
            stroke-dashoffset: 469;
            stroke-width: 128;
          }
          60% {
            animation-timing-function: step-end;
            stroke: blue;
            stroke-dashoffset: 0;
            stroke-width: 128;
          }
          to {
            stroke: black;
            stroke-width: 1024;
          }
        }
        #make-me-a-hanzi-animation-10 {
          animation: keyframes10 0.6316731770833334s both;
          animation-delay: 8.00048828125s;
          animation-timing-function: linear;
        }
      
    </style>
    
      <path d="M 258 452 L 239 448 L 214 443 Q 180 436 149 432 Q 118 427 117 427 L 98 424 Q 88 422 86 418 L 86 417 Q 86 413 92 406 Q 98 400 107 396 Q 116 393 132 391 Q 147 390 156 390 Q 165 390 192 394 L 258 406 L 307 416 L 318 418 L 344 422 Q 350 424 371 429 Q 391 434 400 438 Q 408 442 411 446 Q 413 448 413 451 Q 413 454 412 456 Q 411 461 400 468 Q 389 474 376 478 Q 362 481 357 481 Q 352 480 341 476 Q 330 471 323 469 Q 316 466 308 464 L 258 452 Z" fill="lightgray"></path>
    
      <path d="M 258 406 L 258 346 L 256 270 L 256 218 L 254 164 L 250 72 L 246 28 Q 246 -2 238 -6 Q 233 -10 228 -10 L 224 -10 Q 218 -10 206 -6 L 146 9 Q 144 10 142 10 Q 138 10 137 6 L 137 4 Q 137 0 142 -4 L 166 -27 L 200 -61 Q 208 -69 218 -83 L 234 -106 Q 242 -117 248 -118 Q 253 -118 268 -109 Q 282 -100 294 -69 Q 304 -38 306 -8 Q 306 4 304 41 Q 302 79 302 124 L 304 259 L 304 300 L 304 327 L 307 416 L 308 464 L 310 483 L 312 540 Q 314 572 320 600 Q 326 628 334 644 Q 340 658 340 664 Q 340 670 332 679 Q 324 688 301 699 Q 277 710 268 713 Q 258 716 252 716 Q 243 716 238 711 Q 234 706 234 700 Q 234 694 238 685 Q 242 676 247 657 Q 252 639 254 628 Q 255 617 257 568 Q 259 520 259 518 L 258 452 L 258 406 Z" fill="lightgray"></path>
    
      <path d="M 256 270 L 144 198 Q 134 191 115 180 Q 97 170 84 164 Q 72 158 60 156 Q 48 154 42 152 Q 38 150 36 144 L 36 142 Q 36 137 42 130 Q 50 122 60 114 Q 69 106 88 96 Q 101 89 107 89 L 109 89 Q 114 91 118 94 Q 120 96 126 104 Q 132 112 145 124 L 178 154 L 256 218 L 304 259 L 404 344 Q 413 351 413 356 Q 413 358 411 360 Q 408 362 405 362 Q 400 362 396 359 L 304 300 L 256 270 Z" fill="lightgray"></path>
    
      <path d="M 572 560 L 547 555 Q 531 551 497 548 Q 464 544 463 544 L 444 542 Q 434 540 432 535 L 432 533 Q 432 529 435 525 Q 439 520 455 513 Q 470 507 499 507 L 508 507 Q 521 507 531 509 Q 544 512 556 514 L 614 516 L 625 518 L 664 526 L 700 533 Q 741 540 746 542 L 796 554 Q 815 558 818 564 Q 820 568 820 570 Q 820 572 819 574 Q 818 578 802 586 Q 787 596 776 598 Q 764 600 758 600 Q 754 599 745 596 Q 736 594 714 588 L 677 578 Q 663 576 637 571 L 572 560 Z" fill="lightgray"></path>
    
      <path d="M 637 571 L 661 647 L 676 678 Q 678 684 678 687 Q 678 691 674 698 Q 672 704 656 713 Q 640 722 628 727 Q 616 732 606 733 L 602 733 Q 595 733 593 730 Q 589 727 589 723 L 589 721 Q 589 716 592 707 Q 595 698 595 686 L 595 679 Q 594 658 591 636 Q 588 614 584 597 Q 579 580 572 560 L 556 514 L 548 495 Q 544 483 527 450 Q 510 417 488 383 Q 466 349 442 321 Q 420 293 398 272 L 374 248 Q 368 241 368 236 L 368 234 Q 369 231 372 231 Q 377 231 385 236 L 403 246 Q 424 258 454 284 Q 484 310 508 338 Q 532 366 556 406 Q 580 444 590 466 Q 601 487 614 516 L 637 571 Z" fill="lightgray"></path>
    
      <path d="M 625 518 L 678 468 L 712 426 Q 740 390 768 358 Q 795 325 811 310 Q 826 294 838 288 Q 850 281 860 280 Q 867 279 873 279 L 880 279 Q 890 280 925 287 Q 960 294 968 296 L 986 302 Q 990 303 990 307 Q 990 312 986 314 Q 982 316 968 322 L 926 338 Q 902 346 866 365 Q 830 384 806 400 Q 782 416 750 446 Q 716 476 664 526 C 642 547 603 539 625 518 Z" fill="lightgray"></path>
    
      <path d="M 598 331 L 569 326 L 547 320 Q 538 318 525 318 Q 512 317 512 314 L 512 313 Q 512 310 518 304 Q 525 296 538 292 Q 550 288 564 287 L 570 287 Q 579 287 592 289 Q 610 291 642 298 Q 674 304 686 306 Q 697 308 706 312 Q 724 318 724 324 Q 723 329 713 336 Q 703 342 688 346 Q 674 350 668 350 Q 662 350 651 346 L 628 338 Q 616 335 598 331 Z" fill="lightgray"></path>
    
      <path d="M 645 175 L 728 182 Q 731 182 806 186 L 840 187 Q 856 188 860 190 Q 864 192 865 196 L 865 198 Q 865 203 860 208 Q 853 216 838 225 Q 822 234 812 237 Q 802 240 792 241 Q 782 241 761 236 Q 740 232 704 226 L 614 212 L 499 196 Q 456 190 445 189 Q 434 188 426 186 Q 420 184 419 181 L 419 179 Q 419 177 421 174 Q 424 170 440 162 Q 456 154 468 151 Q 481 148 492 148 L 518 154 L 586 167 L 645 175 Z" fill="lightgray"></path>
    
      <path d="M 586 167 L 594 152 Q 595 150 598 128 Q 600 106 600 104 L 599 -2 Q 598 -28 598 -39 Q 597 -50 593 -63 Q 590 -77 590 -78 Q 589 -82 589 -86 Q 589 -90 590 -94 Q 592 -103 598 -115 Q 604 -127 610 -134 Q 616 -142 622 -142 Q 627 -142 633 -134 Q 640 -126 644 -114 Q 648 -103 649 -96 Q 650 -88 650 -78 L 648 -47 L 649 -24 L 650 48 Q 650 67 652 91 Q 655 115 661 130 Q 666 146 666 151 Q 665 156 660 162 Q 654 168 645 175 C 622 194 572 193 586 167 Z" fill="lightgray"></path>
    
      <path d="M 506 42 Q 512 48 518 53 Q 524 58 525 61 Q 526 64 526 70 Q 524 75 518 80 Q 512 85 500 92 L 482 101 Q 476 104 470 104 Q 465 104 461 102 Q 458 100 456 94 L 454 78 Q 452 72 448 58 L 436 33 Q 430 20 422 8 L 387 -44 L 373 -65 Q 369 -71 369 -74 Q 369 -76 370 -77 Q 371 -79 373 -79 Q 376 -79 380 -76 L 398 -66 Q 411 -58 428 -44 Q 446 -30 454 -21 Q 464 -12 478 7 L 492 23 L 506 42 Z" fill="lightgray"></path>
    
      <path d="M 726 85 L 748 59 Q 754 52 767 32 L 808 -28 Q 815 -38 826 -52 Q 836 -66 844 -68 Q 849 -70 853 -70 Q 858 -70 861 -68 Q 868 -64 875 -53 Q 882 -42 882 -21 Q 882 -6 877 7 Q 872 20 862 33 Q 850 46 829 60 Q 808 74 786 84 Q 764 96 754 100 Q 743 104 730 107 Q 725 108 721 108 Q 716 108 714 106 L 714 104 Q 714 100 718 94 L 726 85 Z" fill="lightgray"></path>
    
    
      <clipPath id="make-me-a-hanzi-clip-0">
        <path d="M 258 452 L 239 448 L 214 443 Q 180 436 149 432 Q 118 427 117 427 L 98 424 Q 88 422 86 418 L 86 417 Q 86 413 92 406 Q 98 400 107 396 Q 116 393 132 391 Q 147 390 156 390 Q 165 390 192 394 L 258 406 L 307 416 L 318 418 L 344 422 Q 350 424 371 429 Q 391 434 400 438 Q 408 442 411 446 Q 413 448 413 451 Q 413 454 412 456 Q 411 461 400 468 Q 389 474 376 478 Q 362 481 357 481 Q 352 480 341 476 Q 330 471 323 469 Q 316 466 308 464 L 258 452 Z"></path>
      </clipPath>
      <path clip-path="url(#make-me-a-hanzi-clip-0)" d="M 94 418 L 121 410 L 168 412 L 359 454 L 404 452" fill="none" id="make-me-a-hanzi-animation-0" stroke-dasharray="444 888" stroke-linecap="round"></path>
    
      <clipPath id="make-me-a-hanzi-clip-1">
        <path d="M 258 406 L 258 346 L 256 270 L 256 218 L 254 164 L 250 72 L 246 28 Q 246 -2 238 -6 Q 233 -10 228 -10 L 224 -10 Q 218 -10 206 -6 L 146 9 Q 144 10 142 10 Q 138 10 137 6 L 137 4 Q 137 0 142 -4 L 166 -27 L 200 -61 Q 208 -69 218 -83 L 234 -106 Q 242 -117 248 -118 Q 253 -118 268 -109 Q 282 -100 294 -69 Q 304 -38 306 -8 Q 306 4 304 41 Q 302 79 302 124 L 304 259 L 304 300 L 304 327 L 307 416 L 308 464 L 310 483 L 312 540 Q 314 572 320 600 Q 326 628 334 644 Q 340 658 340 664 Q 340 670 332 679 Q 324 688 301 699 Q 277 710 268 713 Q 258 716 252 716 Q 243 716 238 711 Q 234 706 234 700 Q 234 694 238 685 Q 242 676 247 657 Q 252 639 254 628 Q 255 617 257 568 Q 259 520 259 518 L 258 452 L 258 406 Z"></path>
      </clipPath>
      <path clip-path="url(#make-me-a-hanzi-clip-1)" d="M 250 701 L 292 655 L 284 559 L 273 -12 L 262 -37 L 248 -50 L 142 5" fill="none" id="make-me-a-hanzi-animation-1" stroke-dasharray="1024 2048" stroke-linecap="round"></path>
    
      <clipPath id="make-me-a-hanzi-clip-2">
        <path d="M 256 270 L 144 198 Q 134 191 115 180 Q 97 170 84 164 Q 72 158 60 156 Q 48 154 42 152 Q 38 150 36 144 L 36 142 Q 36 137 42 130 Q 50 122 60 114 Q 69 106 88 96 Q 101 89 107 89 L 109 89 Q 114 91 118 94 Q 120 96 126 104 Q 132 112 145 124 L 178 154 L 256 218 L 304 259 L 404 344 Q 413 351 413 356 Q 413 358 411 360 Q 408 362 405 362 Q 400 362 396 359 L 304 300 L 256 270 Z"></path>
      </clipPath>
      <path clip-path="url(#make-me-a-hanzi-clip-2)" d="M 46 143 L 100 131 L 406 355" fill="none" id="make-me-a-hanzi-animation-2" stroke-dasharray="563 1126" stroke-linecap="round"></path>
    
      <clipPath id="make-me-a-hanzi-clip-3">
        <path d="M 572 560 L 547 555 Q 531 551 497 548 Q 464 544 463 544 L 444 542 Q 434 540 432 535 L 432 533 Q 432 529 435 525 Q 439 520 455 513 Q 470 507 499 507 L 508 507 Q 521 507 531 509 Q 544 512 556 514 L 614 516 L 625 518 L 664 526 L 700 533 Q 741 540 746 542 L 796 554 Q 815 558 818 564 Q 820 568 820 570 Q 820 572 819 574 Q 818 578 802 586 Q 787 596 776 598 Q 764 600 758 600 Q 754 599 745 596 Q 736 594 714 588 L 677 578 Q 663 576 637 571 L 572 560 Z"></path>
      </clipPath>
      <path clip-path="url(#make-me-a-hanzi-clip-3)" d="M 441 534 L 465 527 L 513 528 L 627 543 L 767 574 L 811 570" fill="none" id="make-me-a-hanzi-animation-3" stroke-dasharray="504 1008" stroke-linecap="round"></path>
    
      <clipPath id="make-me-a-hanzi-clip-4">
        <path d="M 637 571 L 661 647 L 676 678 Q 678 684 678 687 Q 678 691 674 698 Q 672 704 656 713 Q 640 722 628 727 Q 616 732 606 733 L 602 733 Q 595 733 593 730 Q 589 727 589 723 L 589 721 Q 589 716 592 707 Q 595 698 595 686 L 595 679 Q 594 658 591 636 Q 588 614 584 597 Q 579 580 572 560 L 556 514 L 548 495 Q 544 483 527 450 Q 510 417 488 383 Q 466 349 442 321 Q 420 293 398 272 L 374 248 Q 368 241 368 236 L 368 234 Q 369 231 372 231 Q 377 231 385 236 L 403 246 Q 424 258 454 284 Q 484 310 508 338 Q 532 366 556 406 Q 580 444 590 466 Q 601 487 614 516 L 637 571 Z"></path>
      </clipPath>
      <path clip-path="url(#make-me-a-hanzi-clip-4)" d="M 599 722 L 623 699 L 634 679 L 612 587 L 576 494 L 533 411 L 496 356 L 438 289 L 372 235" fill="none" id="make-me-a-hanzi-animation-4" stroke-dasharray="712 1424" stroke-linecap="round"></path>
    
      <clipPath id="make-me-a-hanzi-clip-5">
        <path d="M 625 518 L 678 468 L 712 426 Q 740 390 768 358 Q 795 325 811 310 Q 826 294 838 288 Q 850 281 860 280 Q 867 279 873 279 L 880 279 Q 890 280 925 287 Q 960 294 968 296 L 986 302 Q 990 303 990 307 Q 990 312 986 314 Q 982 316 968 322 L 926 338 Q 902 346 866 365 Q 830 384 806 400 Q 782 416 750 446 Q 716 476 664 526 C 642 547 603 539 625 518 Z"></path>
      </clipPath>
      <path clip-path="url(#make-me-a-hanzi-clip-5)" d="M 632 515 L 660 508 L 775 390 L 855 325 L 891 315 L 984 308" fill="none" id="make-me-a-hanzi-animation-5" stroke-dasharray="555 1110" stroke-linecap="round"></path>
    
      <clipPath id="make-me-a-hanzi-clip-6">
        <path d="M 598 331 L 569 326 L 547 320 Q 538 318 525 318 Q 512 317 512 314 L 512 313 Q 512 310 518 304 Q 525 296 538 292 Q 550 288 564 287 L 570 287 Q 579 287 592 289 Q 610 291 642 298 Q 674 304 686 306 Q 697 308 706 312 Q 724 318 724 324 Q 723 329 713 336 Q 703 342 688 346 Q 674 350 668 350 Q 662 350 651 346 L 628 338 Q 616 335 598 331 Z"></path>
      </clipPath>
      <path clip-path="url(#make-me-a-hanzi-clip-6)" d="M 519 314 L 548 304 L 668 326 L 718 324" fill="none" id="make-me-a-hanzi-animation-6" stroke-dasharray="331 662" stroke-linecap="round"></path>
    
      <clipPath id="make-me-a-hanzi-clip-7">
        <path d="M 645 175 L 728 182 Q 731 182 806 186 L 840 187 Q 856 188 860 190 Q 864 192 865 196 L 865 198 Q 865 203 860 208 Q 853 216 838 225 Q 822 234 812 237 Q 802 240 792 241 Q 782 241 761 236 Q 740 232 704 226 L 614 212 L 499 196 Q 456 190 445 189 Q 434 188 426 186 Q 420 184 419 181 L 419 179 Q 419 177 421 174 Q 424 170 440 162 Q 456 154 468 151 Q 481 148 492 148 L 518 154 L 586 167 L 645 175 Z"></path>
      </clipPath>
      <path clip-path="url(#make-me-a-hanzi-clip-7)" d="M 425 180 L 488 171 L 775 212 L 809 212 L 858 197" fill="none" id="make-me-a-hanzi-animation-7" stroke-dasharray="567 1134" stroke-linecap="round"></path>
    
      <clipPath id="make-me-a-hanzi-clip-8">
        <path d="M 586 167 L 594 152 Q 595 150 598 128 Q 600 106 600 104 L 599 -2 Q 598 -28 598 -39 Q 597 -50 593 -63 Q 590 -77 590 -78 Q 589 -82 589 -86 Q 589 -90 590 -94 Q 592 -103 598 -115 Q 604 -127 610 -134 Q 616 -142 622 -142 Q 627 -142 633 -134 Q 640 -126 644 -114 Q 648 -103 649 -96 Q 650 -88 650 -78 L 648 -47 L 649 -24 L 650 48 Q 650 67 652 91 Q 655 115 661 130 Q 666 146 666 151 Q 665 156 660 162 Q 654 168 645 175 C 622 194 572 193 586 167 Z"></path>
      </clipPath>
      <path clip-path="url(#make-me-a-hanzi-clip-8)" d="M 594 166 L 629 140 L 622 -130" fill="none" id="make-me-a-hanzi-animation-8" stroke-dasharray="442 884" stroke-linecap="round"></path>
    
      <clipPath id="make-me-a-hanzi-clip-9">
        <path d="M 506 42 Q 512 48 518 53 Q 524 58 525 61 Q 526 64 526 70 Q 524 75 518 80 Q 512 85 500 92 L 482 101 Q 476 104 470 104 Q 465 104 461 102 Q 458 100 456 94 L 454 78 Q 452 72 448 58 L 436 33 Q 430 20 422 8 L 387 -44 L 373 -65 Q 369 -71 369 -74 Q 369 -76 370 -77 Q 371 -79 373 -79 Q 376 -79 380 -76 L 398 -66 Q 411 -58 428 -44 Q 446 -30 454 -21 Q 464 -12 478 7 L 492 23 L 506 42 Z"></path>
      </clipPath>
      <path clip-path="url(#make-me-a-hanzi-clip-9)" d="M 468 92 L 483 65 L 473 44 L 430 -17 L 374 -74" fill="none" id="make-me-a-hanzi-animation-9" stroke-dasharray="337 674" stroke-linecap="round"></path>
    
      <clipPath id="make-me-a-hanzi-clip-10">
        <path d="M 726 85 L 748 59 Q 754 52 767 32 L 808 -28 Q 815 -38 826 -52 Q 836 -66 844 -68 Q 849 -70 853 -70 Q 858 -70 861 -68 Q 868 -64 875 -53 Q 882 -42 882 -21 Q 882 -6 877 7 Q 872 20 862 33 Q 850 46 829 60 Q 808 74 786 84 Q 764 96 754 100 Q 743 104 730 107 Q 725 108 721 108 Q 716 108 714 106 L 714 104 Q 714 100 718 94 L 726 85 Z"></path>
      </clipPath>
      <path clip-path="url(#make-me-a-hanzi-clip-10)" d="M 718 105 L 769 69 L 824 17 L 843 -11 L 853 -51" fill="none" id="make-me-a-hanzi-animation-10" stroke-dasharray="341 682" stroke-linecap="round"></path>
    
  </g>
</svg>