<svg version="1.1" viewBox="0 0 1024 1024" xmlns="http://www.w3.org/2000/svg">
  <g stroke="lightgray" stroke-dasharray="1,1" stroke-width="1" transform="scale(4, 4)">
    <line x1="0" y1="0" x2="256" y2="256"></line>
    <line x1="256" y1="0" x2="0" y2="256"></line>
    <line x1="128" y1="0" x2="128" y2="256"></line>
    <line x1="0" y1="128" x2="256" y2="128"></line>
  </g>
<g transform="scale(0.92, -0.92) translate(60, -900)">
   <style type="text/css">
    @keyframes keyframes0 {
      from {
       stroke: blue;
       stroke-dashoffset: 524;
       stroke-width: 128;
       }
       63% {
       animation-timing-function: step-end;
       stroke: blue;
       stroke-dashoffset: 0;
       stroke-width: 128;
       }
       to {
       stroke: black;
       stroke-width: 1024;
       }
       }
       #make-me-a-hanzi-animation-0 {
         animation: keyframes0 0.676432s both;
         animation-delay: 0.000000s;
         animation-timing-function: linear;
       }
    @keyframes keyframes1 {
      from {
       stroke: blue;
       stroke-dashoffset: 1118;
       stroke-width: 128;
       }
       78% {
       animation-timing-function: step-end;
       stroke: blue;
       stroke-dashoffset: 0;
       stroke-width: 128;
       }
       to {
       stroke: black;
       stroke-width: 1024;
       }
       }
       #make-me-a-hanzi-animation-1 {
         animation: keyframes1 1.159831s both;
         animation-delay: 0.676432s;
         animation-timing-function: linear;
       }
    @keyframes keyframes2 {
      from {
       stroke: blue;
       stroke-dashoffset: 628;
       stroke-width: 128;
       }
       67% {
       animation-timing-function: step-end;
       stroke: blue;
       stroke-dashoffset: 0;
       stroke-width: 128;
       }
       to {
       stroke: black;
       stroke-width: 1024;
       }
       }
       #make-me-a-hanzi-animation-2 {
         animation: keyframes2 0.761068s both;
         animation-delay: 1.836263s;
         animation-timing-function: linear;
       }
    @keyframes keyframes3 {
      from {
       stroke: blue;
       stroke-dashoffset: 343;
       stroke-width: 128;
       }
       53% {
       animation-timing-function: step-end;
       stroke: blue;
       stroke-dashoffset: 0;
       stroke-width: 128;
       }
       to {
       stroke: black;
       stroke-width: 1024;
       }
       }
       #make-me-a-hanzi-animation-3 {
         animation: keyframes3 0.529134s both;
         animation-delay: 2.597331s;
         animation-timing-function: linear;
       }
    @keyframes keyframes4 {
      from {
       stroke: blue;
       stroke-dashoffset: 417;
       stroke-width: 128;
       }
       58% {
       animation-timing-function: step-end;
       stroke: blue;
       stroke-dashoffset: 0;
       stroke-width: 128;
       }
       to {
       stroke: black;
       stroke-width: 1024;
       }
       }
       #make-me-a-hanzi-animation-4 {
         animation: keyframes4 0.589355s both;
         animation-delay: 3.126465s;
         animation-timing-function: linear;
       }
    @keyframes keyframes5 {
      from {
       stroke: blue;
       stroke-dashoffset: 641;
       stroke-width: 128;
       }
       68% {
       animation-timing-function: step-end;
       stroke: blue;
       stroke-dashoffset: 0;
       stroke-width: 128;
       }
       to {
       stroke: black;
       stroke-width: 1024;
       }
       }
       #make-me-a-hanzi-animation-5 {
         animation: keyframes5 0.771647s both;
         animation-delay: 3.715820s;
         animation-timing-function: linear;
       }
    @keyframes keyframes6 {
      from {
       stroke: blue;
       stroke-dashoffset: 725;
       stroke-width: 128;
       }
       70% {
       animation-timing-function: step-end;
       stroke: blue;
       stroke-dashoffset: 0;
       stroke-width: 128;
       }
       to {
       stroke: black;
       stroke-width: 1024;
       }
       }
       #make-me-a-hanzi-animation-6 {
         animation: keyframes6 0.840007s both;
         animation-delay: 4.487467s;
         animation-timing-function: linear;
       }
    @keyframes keyframes7 {
      from {
       stroke: blue;
       stroke-dashoffset: 534;
       stroke-width: 128;
       }
       63% {
       animation-timing-function: step-end;
       stroke: blue;
       stroke-dashoffset: 0;
       stroke-width: 128;
       }
       to {
       stroke: black;
       stroke-width: 1024;
       }
       }
       #make-me-a-hanzi-animation-7 {
         animation: keyframes7 0.684570s both;
         animation-delay: 5.327474s;
         animation-timing-function: linear;
       }
    @keyframes keyframes8 {
      from {
       stroke: blue;
       stroke-dashoffset: 607;
       stroke-width: 128;
       }
       66% {
       animation-timing-function: step-end;
       stroke: blue;
       stroke-dashoffset: 0;
       stroke-width: 128;
       }
       to {
       stroke: black;
       stroke-width: 1024;
       }
       }
       #make-me-a-hanzi-animation-8 {
         animation: keyframes8 0.743978s both;
         animation-delay: 6.012044s;
         animation-timing-function: linear;
       }
    @keyframes keyframes9 {
      from {
       stroke: blue;
       stroke-dashoffset: 797;
       stroke-width: 128;
       }
       72% {
       animation-timing-function: step-end;
       stroke: blue;
       stroke-dashoffset: 0;
       stroke-width: 128;
       }
       to {
       stroke: black;
       stroke-width: 1024;
       }
       }
       #make-me-a-hanzi-animation-9 {
         animation: keyframes9 0.898600s both;
         animation-delay: 6.756022s;
         animation-timing-function: linear;
       }
    @keyframes keyframes10 {
      from {
       stroke: blue;
       stroke-dashoffset: 725;
       stroke-width: 128;
       }
       70% {
       animation-timing-function: step-end;
       stroke: blue;
       stroke-dashoffset: 0;
       stroke-width: 128;
       }
       to {
       stroke: black;
       stroke-width: 1024;
       }
       }
       #make-me-a-hanzi-animation-10 {
         animation: keyframes10 0.840007s both;
         animation-delay: 7.654622s;
         animation-timing-function: linear;
       }
    @keyframes keyframes11 {
      from {
       stroke: blue;
       stroke-dashoffset: 804;
       stroke-width: 128;
       }
       72% {
       animation-timing-function: step-end;
       stroke: blue;
       stroke-dashoffset: 0;
       stroke-width: 128;
       }
       to {
       stroke: black;
       stroke-width: 1024;
       }
       }
       #make-me-a-hanzi-animation-11 {
         animation: keyframes11 0.904297s both;
         animation-delay: 8.494629s;
         animation-timing-function: linear;
       }
</style>
<path d="M 341.0 515.0 Q 354.0 519.0 372.0 523.0 Q 405.0 532.0 409.0 537.0 Q 418.0 544.0 413.0 553.0 Q 406.0 563.0 377.0 569.0 Q 359.0 572.0 343.0 568.0 L 291.0 550.0 Q 203.0 526.0 148.0 516.0 Q 114.0 509.0 139.0 494.0 Q 179.0 476.0 245.0 491.0 Q 266.0 497.0 290.0 502.0 L 341.0 515.0 Z" fill="lightgray"></path> 
<path d="M 285.0 319.0 Q 284.0 235.0 281.0 130.0 Q 280.0 108.0 268.0 100.0 Q 259.0 97.0 202.0 113.0 Q 171.0 126.0 172.0 117.0 Q 173.0 110.0 191.0 93.0 Q 249.0 39.0 262.0 10.0 Q 278.0 -24.0 293.0 -27.0 Q 308.0 -28.0 323.0 6.0 Q 344.0 52.0 344.0 125.0 Q 337.0 245.0 338.0 364.0 L 338.0 395.0 Q 338.0 456.0 341.0 515.0 L 343.0 568.0 Q 343.0 646.0 363.0 712.0 Q 379.0 743.0 325.0 765.0 Q 291.0 784.0 272.0 778.0 Q 254.0 771.0 270.0 748.0 Q 292.0 721.0 292.0 687.0 Q 293.0 671.0 291.0 550.0 L 290.0 502.0 Q 289.0 442.0 286.0 361.0 L 285.0 319.0 Z" fill="lightgray"></path> 
<path d="M 286.0 361.0 Q 207.0 312.0 137.0 263.0 Q 106.0 242.0 84.0 234.0 Q 72.0 228.0 70.0 220.0 Q 70.0 211.0 84.0 199.0 Q 103.0 186.0 126.0 179.0 Q 142.0 175.0 151.0 188.0 Q 232.0 276.0 285.0 319.0 L 338.0 364.0 Q 386.0 407.0 390.0 412.0 Q 396.0 425.0 385.0 424.0 Q 375.0 421.0 353.0 405.0 Q 346.0 401.0 338.0 395.0 L 286.0 361.0 Z" fill="lightgray"></path> 
<path d="M 475.0 650.0 Q 517.0 590.0 539.0 586.0 Q 552.0 585.0 558.0 601.0 Q 561.0 613.0 553.0 632.0 Q 546.0 647.0 525.0 655.0 Q 494.0 671.0 481.0 675.0 Q 472.0 676.0 471.0 666.0 Q 470.0 659.0 475.0 650.0 Z" fill="lightgray"></path> 
<path d="M 737.0 709.0 Q 718.0 678.0 680.0 628.0 Q 676.0 621.0 680.0 615.0 Q 687.0 614.0 694.0 618.0 Q 770.0 670.0 806.0 691.0 Q 822.0 695.0 819.0 706.0 Q 813.0 721.0 795.0 738.0 Q 776.0 754.0 756.0 756.0 Q 741.0 755.0 743.0 737.0 Q 744.0 724.0 737.0 709.0 Z" fill="lightgray"></path> 
<path d="M 651.0 534.0 Q 663.0 537.0 817.0 562.0 Q 827.0 561.0 834.0 572.0 Q 835.0 582.0 815.0 592.0 Q 788.0 611.0 691.0 582.0 Q 673.0 578.0 655.0 573.0 Q 648.0 572.0 642.0 569.0 L 605.0 561.0 Q 568.0 555.0 534.0 550.0 Q 494.0 546.0 448.0 538.0 Q 423.0 534.0 443.0 519.0 Q 470.0 500.0 511.0 506.0 Q 535.0 512.0 565.0 517.0 L 651.0 534.0 Z" fill="lightgray"></path> 
<path d="M 642.0 569.0 Q 645.0 707.0 672.0 762.0 Q 678.0 772.0 667.0 785.0 Q 615.0 827.0 586.0 817.0 Q 573.0 813.0 579.0 798.0 Q 607.0 753.0 605.0 682.0 Q 606.0 615.0 605.0 561.0 L 603.0 495.0 Q 594.0 387.0 607.0 360.0 Q 608.0 359.0 610.0 354.0 Q 620.0 339.0 634.0 347.0 Q 644.0 356.0 645.0 424.0 Q 642.0 479.0 641.0 516.0 L 642.0 569.0 Z" fill="lightgray"></path> 
<path d="M 565.0 517.0 Q 553.0 445.0 398.0 334.0 Q 385.0 324.0 397.0 322.0 Q 406.0 321.0 436.0 335.0 Q 470.0 348.0 501.0 372.0 Q 529.0 394.0 559.0 430.0 Q 562.0 433.0 603.0 495.0 C 626.0 530.0 577.0 571.0 565.0 517.0 Z" fill="lightgray"></path> 
<path d="M 641.0 516.0 Q 699.0 444.0 766.0 377.0 Q 785.0 358.0 817.0 357.0 Q 875.0 354.0 936.0 366.0 Q 952.0 367.0 953.0 372.0 Q 954.0 378.0 942.0 382.0 Q 906.0 395.0 863.0 408.0 Q 815.0 423.0 779.0 445.0 Q 733.0 470.0 689.0 504.0 Q 665.0 525.0 651.0 534.0 C 626.0 551.0 622.0 539.0 641.0 516.0 Z" fill="lightgray"></path> 
<path d="M 646.0 71.0 Q 697.0 37.0 769.0 -29.0 Q 791.0 -50.0 808.0 -50.0 Q 829.0 -51.0 830.0 -32.0 Q 831.0 -13.0 806.0 32.0 Q 794.0 57.0 674.0 111.0 L 628.0 130.0 Q 597.0 143.0 572.0 151.0 Q 550.0 155.0 562.0 177.0 Q 574.0 202.0 583.0 219.0 L 600.0 254.0 Q 607.0 275.0 618.0 287.0 Q 627.0 294.0 624.0 303.0 Q 618.0 316.0 583.0 342.0 Q 573.0 351.0 562.0 346.0 Q 550.0 343.0 557.0 328.0 Q 567.0 307.0 559.0 285.0 Q 553.0 266.0 548.0 247.0 L 535.0 212.0 Q 526.0 190.0 517.0 175.0 Q 507.0 159.0 510.0 147.0 Q 513.0 137.0 529.0 134.0 Q 565.0 122.0 604.0 98.0 L 646.0 71.0 Z" fill="lightgray"></path> 
<path d="M 604.0 98.0 Q 546.0 37.0 405.0 1.0 Q 387.0 -8.0 408.0 -11.0 Q 561.0 -24.0 646.0 71.0 L 674.0 111.0 Q 699.0 150.0 713.0 195.0 Q 720.0 219.0 726.0 233.0 C 737.0 261.0 740.0 269.0 735.0 274.0 Q 725.0 287.0 702.0 295.0 Q 683.0 305.0 664.0 302.0 Q 651.0 298.0 657.0 284.0 Q 661.0 275.0 664.0 263.0 L 664.0 229.0 Q 663.0 210.0 653.0 185.0 Q 643.0 155.0 628.0 130.0 L 604.0 98.0 Z" fill="lightgray"></path> 
<path d="M 726.0 233.0 Q 783.0 236.0 913.0 237.0 Q 931.0 237.0 936.0 245.0 Q 940.0 255.0 926.0 267.0 Q 874.0 306.0 827.0 291.0 Q 787.0 285.0 735.0 274.0 L 664.0 263.0 Q 610.0 257.0 600.0 254.0 L 548.0 247.0 Q 472.0 240.0 388.0 228.0 Q 369.0 227.0 383.0 211.0 Q 396.0 198.0 412.0 193.0 Q 431.0 189.0 445.0 193.0 Q 488.0 205.0 535.0 212.0 L 583.0 219.0 Q 607.0 225.0 664.0 229.0 L 726.0 233.0 Z" fill="lightgray"></path> 
      <clipPath id="make-me-a-hanzi-clip-0">
      <path d="M 341.0 515.0 Q 354.0 519.0 372.0 523.0 Q 405.0 532.0 409.0 537.0 Q 418.0 544.0 413.0 553.0 Q 406.0 563.0 377.0 569.0 Q 359.0 572.0 343.0 568.0 L 291.0 550.0 Q 203.0 526.0 148.0 516.0 Q 114.0 509.0 139.0 494.0 Q 179.0 476.0 245.0 491.0 Q 266.0 497.0 290.0 502.0 L 341.0 515.0 Z" fill="lightgray"></path>
      </clipPath>
      <path clip-path="url(#make-me-a-hanzi-clip-0)" d="M 141.0 506.0 L 173.0 502.0 L 215.0 507.0 L 353.0 545.0 L 403.0 547.0 " fill="none" id="make-me-a-hanzi-animation-0" stroke-dasharray="396 792" stroke-linecap="round"></path>

      <clipPath id="make-me-a-hanzi-clip-1">
      <path d="M 285.0 319.0 Q 284.0 235.0 281.0 130.0 Q 280.0 108.0 268.0 100.0 Q 259.0 97.0 202.0 113.0 Q 171.0 126.0 172.0 117.0 Q 173.0 110.0 191.0 93.0 Q 249.0 39.0 262.0 10.0 Q 278.0 -24.0 293.0 -27.0 Q 308.0 -28.0 323.0 6.0 Q 344.0 52.0 344.0 125.0 Q 337.0 245.0 338.0 364.0 L 338.0 395.0 Q 338.0 456.0 341.0 515.0 L 343.0 568.0 Q 343.0 646.0 363.0 712.0 Q 379.0 743.0 325.0 765.0 Q 291.0 784.0 272.0 778.0 Q 254.0 771.0 270.0 748.0 Q 292.0 721.0 292.0 687.0 Q 293.0 671.0 291.0 550.0 L 290.0 502.0 Q 289.0 442.0 286.0 361.0 L 285.0 319.0 Z" fill="lightgray"></path>
      </clipPath>
      <path clip-path="url(#make-me-a-hanzi-clip-1)" d="M 279.0 762.0 L 295.0 754.0 L 326.0 722.0 L 316.0 587.0 L 312.0 117.0 L 306.0 86.0 L 290.0 57.0 L 262.0 66.0 L 191.0 106.0 L 189.0 113.0 L 178.0 114.0 " fill="none" id="make-me-a-hanzi-animation-1" stroke-dasharray="990 1980" stroke-linecap="round"></path>

      <clipPath id="make-me-a-hanzi-clip-2">
      <path d="M 286.0 361.0 Q 207.0 312.0 137.0 263.0 Q 106.0 242.0 84.0 234.0 Q 72.0 228.0 70.0 220.0 Q 70.0 211.0 84.0 199.0 Q 103.0 186.0 126.0 179.0 Q 142.0 175.0 151.0 188.0 Q 232.0 276.0 285.0 319.0 L 338.0 364.0 Q 386.0 407.0 390.0 412.0 Q 396.0 425.0 385.0 424.0 Q 375.0 421.0 353.0 405.0 Q 346.0 401.0 338.0 395.0 L 286.0 361.0 Z" fill="lightgray"></path>
      </clipPath>
      <path clip-path="url(#make-me-a-hanzi-clip-2)" d="M 81.0 218.0 L 128.0 216.0 L 384.0 416.0 " fill="none" id="make-me-a-hanzi-animation-2" stroke-dasharray="500 1000" stroke-linecap="round"></path>

      <clipPath id="make-me-a-hanzi-clip-3">
      <path d="M 475.0 650.0 Q 517.0 590.0 539.0 586.0 Q 552.0 585.0 558.0 601.0 Q 561.0 613.0 553.0 632.0 Q 546.0 647.0 525.0 655.0 Q 494.0 671.0 481.0 675.0 Q 472.0 676.0 471.0 666.0 Q 470.0 659.0 475.0 650.0 Z" fill="lightgray"></path>
      </clipPath>
      <path clip-path="url(#make-me-a-hanzi-clip-3)" d="M 481.0 664.0 L 529.0 623.0 L 540.0 602.0 " fill="none" id="make-me-a-hanzi-animation-3" stroke-dasharray="215 430" stroke-linecap="round"></path>

      <clipPath id="make-me-a-hanzi-clip-4">
      <path d="M 737.0 709.0 Q 718.0 678.0 680.0 628.0 Q 676.0 621.0 680.0 615.0 Q 687.0 614.0 694.0 618.0 Q 770.0 670.0 806.0 691.0 Q 822.0 695.0 819.0 706.0 Q 813.0 721.0 795.0 738.0 Q 776.0 754.0 756.0 756.0 Q 741.0 755.0 743.0 737.0 Q 744.0 724.0 737.0 709.0 Z" fill="lightgray"></path>
      </clipPath>
      <path clip-path="url(#make-me-a-hanzi-clip-4)" d="M 756.0 742.0 L 774.0 711.0 L 686.0 622.0 " fill="none" id="make-me-a-hanzi-animation-4" stroke-dasharray="289 578" stroke-linecap="round"></path>

      <clipPath id="make-me-a-hanzi-clip-5">
      <path d="M 651.0 534.0 Q 663.0 537.0 817.0 562.0 Q 827.0 561.0 834.0 572.0 Q 835.0 582.0 815.0 592.0 Q 788.0 611.0 691.0 582.0 Q 673.0 578.0 655.0 573.0 Q 648.0 572.0 642.0 569.0 L 605.0 561.0 Q 568.0 555.0 534.0 550.0 Q 494.0 546.0 448.0 538.0 Q 423.0 534.0 443.0 519.0 Q 470.0 500.0 511.0 506.0 Q 535.0 512.0 565.0 517.0 L 651.0 534.0 Z" fill="lightgray"></path>
      </clipPath>
      <path clip-path="url(#make-me-a-hanzi-clip-5)" d="M 444.0 529.0 L 501.0 525.0 L 765.0 577.0 L 824.0 574.0 " fill="none" id="make-me-a-hanzi-animation-5" stroke-dasharray="513 1026" stroke-linecap="round"></path>

      <clipPath id="make-me-a-hanzi-clip-6">
      <path d="M 642.0 569.0 Q 645.0 707.0 672.0 762.0 Q 678.0 772.0 667.0 785.0 Q 615.0 827.0 586.0 817.0 Q 573.0 813.0 579.0 798.0 Q 607.0 753.0 605.0 682.0 Q 606.0 615.0 605.0 561.0 L 603.0 495.0 Q 594.0 387.0 607.0 360.0 Q 608.0 359.0 610.0 354.0 Q 620.0 339.0 634.0 347.0 Q 644.0 356.0 645.0 424.0 Q 642.0 479.0 641.0 516.0 L 642.0 569.0 Z" fill="lightgray"></path>
      </clipPath>
      <path clip-path="url(#make-me-a-hanzi-clip-6)" d="M 589.0 805.0 L 616.0 786.0 L 633.0 761.0 L 622.0 541.0 L 626.0 356.0 " fill="none" id="make-me-a-hanzi-animation-6" stroke-dasharray="597 1194" stroke-linecap="round"></path>

      <clipPath id="make-me-a-hanzi-clip-7">
      <path d="M 565.0 517.0 Q 553.0 445.0 398.0 334.0 Q 385.0 324.0 397.0 322.0 Q 406.0 321.0 436.0 335.0 Q 470.0 348.0 501.0 372.0 Q 529.0 394.0 559.0 430.0 Q 562.0 433.0 603.0 495.0 C 626.0 530.0 577.0 571.0 565.0 517.0 Z" fill="lightgray"></path>
      </clipPath>
      <path clip-path="url(#make-me-a-hanzi-clip-7)" d="M 599.0 517.0 L 522.0 414.0 L 462.0 363.0 L 401.0 328.0 " fill="none" id="make-me-a-hanzi-animation-7" stroke-dasharray="406 812" stroke-linecap="round"></path>

      <clipPath id="make-me-a-hanzi-clip-8">
      <path d="M 641.0 516.0 Q 699.0 444.0 766.0 377.0 Q 785.0 358.0 817.0 357.0 Q 875.0 354.0 936.0 366.0 Q 952.0 367.0 953.0 372.0 Q 954.0 378.0 942.0 382.0 Q 906.0 395.0 863.0 408.0 Q 815.0 423.0 779.0 445.0 Q 733.0 470.0 689.0 504.0 Q 665.0 525.0 651.0 534.0 C 626.0 551.0 622.0 539.0 641.0 516.0 Z" fill="lightgray"></path>
      </clipPath>
      <path clip-path="url(#make-me-a-hanzi-clip-8)" d="M 647.0 528.0 L 710.0 464.0 L 792.0 399.0 L 839.0 385.0 L 946.0 375.0 " fill="none" id="make-me-a-hanzi-animation-8" stroke-dasharray="479 958" stroke-linecap="round"></path>

      <clipPath id="make-me-a-hanzi-clip-9">
      <path d="M 646.0 71.0 Q 697.0 37.0 769.0 -29.0 Q 791.0 -50.0 808.0 -50.0 Q 829.0 -51.0 830.0 -32.0 Q 831.0 -13.0 806.0 32.0 Q 794.0 57.0 674.0 111.0 L 628.0 130.0 Q 597.0 143.0 572.0 151.0 Q 550.0 155.0 562.0 177.0 Q 574.0 202.0 583.0 219.0 L 600.0 254.0 Q 607.0 275.0 618.0 287.0 Q 627.0 294.0 624.0 303.0 Q 618.0 316.0 583.0 342.0 Q 573.0 351.0 562.0 346.0 Q 550.0 343.0 557.0 328.0 Q 567.0 307.0 559.0 285.0 Q 553.0 266.0 548.0 247.0 L 535.0 212.0 Q 526.0 190.0 517.0 175.0 Q 507.0 159.0 510.0 147.0 Q 513.0 137.0 529.0 134.0 Q 565.0 122.0 604.0 98.0 L 646.0 71.0 Z" fill="lightgray"></path>
      </clipPath>
      <path clip-path="url(#make-me-a-hanzi-clip-9)" d="M 564.0 336.0 L 580.0 322.0 L 591.0 298.0 L 534.0 158.0 L 541.0 149.0 L 659.0 92.0 L 729.0 49.0 L 774.0 15.0 L 812.0 -33.0 " fill="none" id="make-me-a-hanzi-animation-9" stroke-dasharray="669 1338" stroke-linecap="round"></path>

      <clipPath id="make-me-a-hanzi-clip-10">
      <path d="M 604.0 98.0 Q 546.0 37.0 405.0 1.0 Q 387.0 -8.0 408.0 -11.0 Q 561.0 -24.0 646.0 71.0 L 674.0 111.0 Q 699.0 150.0 713.0 195.0 Q 720.0 219.0 726.0 233.0 C 737.0 261.0 740.0 269.0 735.0 274.0 Q 725.0 287.0 702.0 295.0 Q 683.0 305.0 664.0 302.0 Q 651.0 298.0 657.0 284.0 Q 661.0 275.0 664.0 263.0 L 664.0 229.0 Q 663.0 210.0 653.0 185.0 Q 643.0 155.0 628.0 130.0 L 604.0 98.0 Z" fill="lightgray"></path>
      </clipPath>
      <path clip-path="url(#make-me-a-hanzi-clip-10)" d="M 666.0 291.0 L 697.0 263.0 L 690.0 210.0 L 664.0 143.0 L 623.0 82.0 L 580.0 46.0 L 516.0 16.0 L 470.0 3.0 L 416.0 -3.0 " fill="none" id="make-me-a-hanzi-animation-10" stroke-dasharray="597 1194" stroke-linecap="round"></path>

      <clipPath id="make-me-a-hanzi-clip-11">
      <path d="M 726.0 233.0 Q 783.0 236.0 913.0 237.0 Q 931.0 237.0 936.0 245.0 Q 940.0 255.0 926.0 267.0 Q 874.0 306.0 827.0 291.0 Q 787.0 285.0 735.0 274.0 L 664.0 263.0 Q 610.0 257.0 600.0 254.0 L 548.0 247.0 Q 472.0 240.0 388.0 228.0 Q 369.0 227.0 383.0 211.0 Q 396.0 198.0 412.0 193.0 Q 431.0 189.0 445.0 193.0 Q 488.0 205.0 535.0 212.0 L 583.0 219.0 Q 607.0 225.0 664.0 229.0 L 726.0 233.0 Z" fill="lightgray"></path>
      </clipPath>
      <path clip-path="url(#make-me-a-hanzi-clip-11)" d="M 385.0 220.0 L 421.0 212.0 L 447.0 214.0 L 613.0 241.0 L 849.0 266.0 L 893.0 261.0 L 926.0 250.0 " fill="none" id="make-me-a-hanzi-animation-11" stroke-dasharray="676 1352" stroke-linecap="round"></path>

</g>
</svg>
