<svg version="1.1" viewBox="0 0 1024 1024" xmlns="http://www.w3.org/2000/svg">
  <g stroke="lightgray" stroke-dasharray="1,1" stroke-width="1" transform="scale(4, 4)">
    <line x1="0" y1="0" x2="256" y2="256"></line>
    <line x1="256" y1="0" x2="0" y2="256"></line>
    <line x1="128" y1="0" x2="128" y2="256"></line>
    <line x1="0" y1="128" x2="256" y2="128"></line>
  </g>
<g transform="scale(1, -1) translate(0, -900)">
   <style type="text/css">
    @keyframes keyframes0 {
      from {
       stroke: blue;
       stroke-dashoffset: 507;
       stroke-width: 128;
       }
       62% {
       animation-timing-function: step-end;
       stroke: blue;
       stroke-dashoffset: 0;
       stroke-width: 128;
       }
       to {
       stroke: black;
       stroke-width: 1024;
       }
       }
       #make-me-a-hanzi-animation-0 {
         animation: keyframes0 0.662598s both;
         animation-delay: 0.000000s;
         animation-timing-function: linear;
       }
    @keyframes keyframes1 {
      from {
       stroke: blue;
       stroke-dashoffset: 1122;
       stroke-width: 128;
       }
       79% {
       animation-timing-function: step-end;
       stroke: blue;
       stroke-dashoffset: 0;
       stroke-width: 128;
       }
       to {
       stroke: black;
       stroke-width: 1024;
       }
       }
       #make-me-a-hanzi-animation-1 {
         animation: keyframes1 1.163086s both;
         animation-delay: 0.662598s;
         animation-timing-function: linear;
       }
    @keyframes keyframes2 {
      from {
       stroke: blue;
       stroke-dashoffset: 580;
       stroke-width: 128;
       }
       65% {
       animation-timing-function: step-end;
       stroke: blue;
       stroke-dashoffset: 0;
       stroke-width: 128;
       }
       to {
       stroke: black;
       stroke-width: 1024;
       }
       }
       #make-me-a-hanzi-animation-2 {
         animation: keyframes2 0.722005s both;
         animation-delay: 1.825684s;
         animation-timing-function: linear;
       }
    @keyframes keyframes3 {
      from {
       stroke: blue;
       stroke-dashoffset: 346;
       stroke-width: 128;
       }
       53% {
       animation-timing-function: step-end;
       stroke: blue;
       stroke-dashoffset: 0;
       stroke-width: 128;
       }
       to {
       stroke: black;
       stroke-width: 1024;
       }
       }
       #make-me-a-hanzi-animation-3 {
         animation: keyframes3 0.531576s both;
         animation-delay: 2.547689s;
         animation-timing-function: linear;
       }
    @keyframes keyframes4 {
      from {
       stroke: blue;
       stroke-dashoffset: 457;
       stroke-width: 128;
       }
       60% {
       animation-timing-function: step-end;
       stroke: blue;
       stroke-dashoffset: 0;
       stroke-width: 128;
       }
       to {
       stroke: black;
       stroke-width: 1024;
       }
       }
       #make-me-a-hanzi-animation-4 {
         animation: keyframes4 0.621908s both;
         animation-delay: 3.079264s;
         animation-timing-function: linear;
       }
    @keyframes keyframes5 {
      from {
       stroke: blue;
       stroke-dashoffset: 493;
       stroke-width: 128;
       }
       62% {
       animation-timing-function: step-end;
       stroke: blue;
       stroke-dashoffset: 0;
       stroke-width: 128;
       }
       to {
       stroke: black;
       stroke-width: 1024;
       }
       }
       #make-me-a-hanzi-animation-5 {
         animation: keyframes5 0.651204s both;
         animation-delay: 3.701172s;
         animation-timing-function: linear;
       }
    @keyframes keyframes6 {
      from {
       stroke: blue;
       stroke-dashoffset: 587;
       stroke-width: 128;
       }
       66% {
       animation-timing-function: step-end;
       stroke: blue;
       stroke-dashoffset: 0;
       stroke-width: 128;
       }
       to {
       stroke: black;
       stroke-width: 1024;
       }
       }
       #make-me-a-hanzi-animation-6 {
         animation: keyframes6 0.727702s both;
         animation-delay: 4.352376s;
         animation-timing-function: linear;
       }
    @keyframes keyframes7 {
      from {
       stroke: blue;
       stroke-dashoffset: 431;
       stroke-width: 128;
       }
       58% {
       animation-timing-function: step-end;
       stroke: blue;
       stroke-dashoffset: 0;
       stroke-width: 128;
       }
       to {
       stroke: black;
       stroke-width: 1024;
       }
       }
       #make-me-a-hanzi-animation-7 {
         animation: keyframes7 0.600749s both;
         animation-delay: 5.080078s;
         animation-timing-function: linear;
       }
    @keyframes keyframes8 {
      from {
       stroke: blue;
       stroke-dashoffset: 742;
       stroke-width: 128;
       }
       71% {
       animation-timing-function: step-end;
       stroke: blue;
       stroke-dashoffset: 0;
       stroke-width: 128;
       }
       to {
       stroke: black;
       stroke-width: 1024;
       }
       }
       #make-me-a-hanzi-animation-8 {
         animation: keyframes8 0.853841s both;
         animation-delay: 5.680827s;
         animation-timing-function: linear;
       }
    @keyframes keyframes9 {
      from {
       stroke: blue;
       stroke-dashoffset: 919;
       stroke-width: 128;
       }
       75% {
       animation-timing-function: step-end;
       stroke: blue;
       stroke-dashoffset: 0;
       stroke-width: 128;
       }
       to {
       stroke: black;
       stroke-width: 1024;
       }
       }
       #make-me-a-hanzi-animation-9 {
         animation: keyframes9 0.997884s both;
         animation-delay: 6.534668s;
         animation-timing-function: linear;
       }
    @keyframes keyframes10 {
      from {
       stroke: blue;
       stroke-dashoffset: 1123;
       stroke-width: 128;
       }
       79% {
       animation-timing-function: step-end;
       stroke: blue;
       stroke-dashoffset: 0;
       stroke-width: 128;
       }
       to {
       stroke: black;
       stroke-width: 1024;
       }
       }
       #make-me-a-hanzi-animation-10 {
         animation: keyframes10 1.163900s both;
         animation-delay: 7.532552s;
         animation-timing-function: linear;
       }
    @keyframes keyframes11 {
      from {
       stroke: blue;
       stroke-dashoffset: 353;
       stroke-width: 128;
       }
       53% {
       animation-timing-function: step-end;
       stroke: blue;
       stroke-dashoffset: 0;
       stroke-width: 128;
       }
       to {
       stroke: black;
       stroke-width: 1024;
       }
       }
       #make-me-a-hanzi-animation-11 {
         animation: keyframes11 0.537272s both;
         animation-delay: 8.696452s;
         animation-timing-function: linear;
       }
    @keyframes keyframes12 {
      from {
       stroke: blue;
       stroke-dashoffset: 360;
       stroke-width: 128;
       }
       54% {
       animation-timing-function: step-end;
       stroke: blue;
       stroke-dashoffset: 0;
       stroke-width: 128;
       }
       to {
       stroke: black;
       stroke-width: 1024;
       }
       }
       #make-me-a-hanzi-animation-12 {
         animation: keyframes12 0.542969s both;
         animation-delay: 9.233724s;
         animation-timing-function: linear;
       }
</style>
<path d="M 341.0 542.5 Q 357.0 548.5 376.0 553.5 Q 406.0 563.5 410.0 567.5 Q 417.0 576.5 412.0 583.5 Q 405.0 593.5 377.0 597.5 Q 359.0 598.5 343.0 594.5 L 297.0 575.5 Q 213.0 545.5 165.0 536.5 Q 132.0 527.5 157.0 514.5 Q 199.0 496.5 247.0 513.5 Q 269.0 520.5 296.0 528.5 L 341.0 542.5 Z" fill="lightgray"></path> 
<path d="M 292.0 361.5 Q 289.0 261.5 287.0 128.5 Q 286.0 106.5 273.0 96.5 Q 269.0 93.5 214.0 106.5 Q 186.0 119.5 187.0 110.5 Q 188.0 103.5 205.0 88.5 Q 257.0 39.5 269.0 13.5 Q 282.0 -17.5 297.0 -19.5 Q 310.0 -20.5 325.0 10.5 Q 343.0 52.5 343.0 120.5 Q 336.0 258.5 337.0 395.5 L 337.0 420.5 Q 338.0 481.5 341.0 542.5 L 343.0 594.5 Q 356.0 724.5 363.0 741.5 Q 379.0 769.5 328.0 790.5 Q 297.0 808.5 280.0 801.5 Q 264.0 795.5 278.0 774.5 Q 297.0 749.5 298.0 718.5 Q 299.0 702.5 297.0 575.5 L 296.0 528.5 Q 295.0 471.5 293.0 396.5 L 292.0 361.5 Z" fill="lightgray"></path> 
<path d="M 293.0 396.5 Q 214.0 354.5 146.0 314.5 Q 115.0 296.5 94.0 290.5 Q 82.0 286.5 81.0 277.5 Q 80.0 270.5 93.0 256.5 Q 111.0 243.5 131.0 235.5 Q 140.0 234.5 164.0 250.5 Q 227.0 313.5 292.0 361.5 L 337.0 395.5 Q 341.0 399.5 348.0 403.5 Q 364.0 413.5 373.0 426.5 Q 379.0 438.5 369.0 437.5 Q 359.0 436.5 338.0 421.5 Q 337.0 421.5 337.0 420.5 L 293.0 396.5 Z" fill="lightgray"></path> 
<path d="M 431.0 668.5 Q 470.0 599.5 491.0 593.5 Q 503.0 590.5 511.0 605.5 Q 514.0 615.5 509.0 635.5 Q 503.0 651.5 483.0 663.5 Q 453.0 685.5 439.0 690.5 Q 432.0 694.5 429.0 684.5 Q 426.0 677.5 431.0 668.5 Z" fill="lightgray"></path> 
<path d="M 604.0 723.5 Q 597.0 696.5 547.0 593.5 Q 543.0 577.5 556.0 584.5 Q 595.0 627.5 616.0 654.5 Q 658.0 714.5 676.0 727.5 Q 691.0 740.5 678.0 752.5 Q 663.0 762.5 640.0 768.5 Q 618.0 774.5 608.0 769.5 Q 598.0 765.5 604.0 755.5 Q 611.0 740.5 604.0 723.5 Z" fill="lightgray"></path> 
<path d="M 541.0 498.5 Q 581.0 511.5 627.0 524.5 Q 657.0 534.5 661.0 538.5 Q 668.0 545.5 663.0 552.5 Q 656.0 561.5 633.0 565.5 Q 608.0 568.5 585.0 556.5 Q 552.0 541.5 516.0 529.5 Q 476.0 516.5 428.0 508.5 Q 400.0 501.5 421.0 489.5 Q 454.0 471.5 508.0 489.5 L 541.0 498.5 Z" fill="lightgray"></path> 
<path d="M 551.0 322.5 Q 594.0 335.5 603.0 334.5 C 633.0 337.5 645.0 373.5 615.0 369.5 Q 584.0 365.5 556.0 356.5 L 512.0 344.5 Q 479.0 335.5 452.0 322.5 Q 442.0 321.5 446.0 332.5 Q 458.0 399.5 454.0 408.5 Q 444.0 424.5 425.0 436.5 Q 416.0 442.5 407.0 441.5 Q 398.0 438.5 403.0 422.5 Q 415.0 386.5 407.0 352.5 Q 400.0 321.5 385.0 307.5 Q 370.0 292.5 377.0 281.5 Q 386.0 268.5 400.0 260.5 Q 407.0 257.5 426.0 267.5 Q 441.0 282.5 507.0 306.5 L 551.0 322.5 Z" fill="lightgray"></path> 
<path d="M 603.0 334.5 Q 599.0 316.5 612.0 283.5 Q 618.0 271.5 627.0 279.5 Q 643.0 291.5 652.0 356.5 Q 665.0 410.5 671.0 416.5 Q 678.0 426.5 670.0 437.5 Q 657.0 449.5 634.0 464.5 Q 627.0 468.5 617.0 465.5 Q 611.0 464.5 612.0 453.5 Q 625.0 429.5 615.0 369.5 L 603.0 334.5 Z" fill="lightgray"></path> 
<path d="M 507.0 306.5 Q 482.0 177.5 388.0 97.5 Q 376.0 90.5 365.0 79.5 Q 349.0 66.5 370.0 70.5 Q 382.0 69.5 406.0 81.5 Q 437.0 93.5 463.0 117.5 Q 523.0 165.5 551.0 322.5 L 556.0 356.5 Q 568.0 459.5 573.0 468.5 Q 577.0 472.5 573.0 481.5 Q 572.0 482.5 541.0 498.5 C 514.0 512.5 501.0 518.5 508.0 489.5 Q 509.0 488.5 510.0 486.5 Q 519.0 416.5 512.0 344.5 L 507.0 306.5 Z" fill="lightgray"></path> 
<path d="M 738.0 320.5 Q 745.0 378.5 748.0 430.5 L 750.0 460.5 Q 753.0 583.5 754.0 584.5 C 755.0 608.5 755.0 608.5 744.0 613.5 Q 699.0 634.5 684.0 632.5 Q 668.0 628.5 681.0 610.5 Q 717.0 553.5 699.0 344.5 Q 690.0 283.5 662.0 209.5 Q 640.0 146.5 583.0 87.5 Q 537.0 42.5 535.0 36.5 Q 534.0 29.5 544.0 30.5 Q 583.0 34.5 649.0 110.5 Q 712.0 183.5 734.0 299.5 L 738.0 320.5 Z" fill="lightgray"></path> 
<path d="M 754.0 584.5 Q 761.0 587.5 772.0 590.5 Q 806.0 602.5 841.0 614.5 Q 857.0 623.5 863.0 615.5 Q 887.0 551.5 874.0 176.5 Q 871.0 83.5 863.0 69.5 Q 859.0 65.5 843.0 68.5 Q 816.0 77.5 790.0 86.5 Q 772.0 93.5 772.0 85.5 Q 824.0 33.5 851.0 -4.5 Q 863.0 -23.5 877.0 -28.5 Q 886.0 -32.5 894.0 -22.5 Q 936.0 25.5 934.0 73.5 Q 924.0 283.5 923.0 551.5 Q 923.0 585.5 934.0 602.5 Q 944.0 621.5 933.0 630.5 Q 912.0 646.5 878.0 660.5 Q 862.0 666.5 847.0 659.5 Q 819.0 640.5 800.0 631.5 Q 781.0 624.5 744.0 613.5 C 715.0 604.5 726.0 574.5 754.0 584.5 Z" fill="lightgray"></path> 
<path d="M 748.0 430.5 Q 751.0 430.5 836.0 441.5 Q 858.0 445.5 849.0 458.5 Q 839.0 471.5 815.0 474.5 Q 767.0 477.5 750.0 460.5 C 728.0 440.5 718.0 427.5 748.0 430.5 Z" fill="lightgray"></path> 
<path d="M 734.0 299.5 L 835.0 302.5 Q 857.0 306.5 849.0 318.5 Q 839.0 331.5 815.0 336.5 Q 778.0 343.5 738.0 320.5 C 712.0 305.5 704.0 298.5 734.0 299.5 Z" fill="lightgray"></path> 
      <clipPath id="make-me-a-hanzi-clip-0">
      <path d="M 341.0 542.5 Q 357.0 548.5 376.0 553.5 Q 406.0 563.5 410.0 567.5 Q 417.0 576.5 412.0 583.5 Q 405.0 593.5 377.0 597.5 Q 359.0 598.5 343.0 594.5 L 297.0 575.5 Q 213.0 545.5 165.0 536.5 Q 132.0 527.5 157.0 514.5 Q 199.0 496.5 247.0 513.5 Q 269.0 520.5 296.0 528.5 L 341.0 542.5 Z" fill="lightgray"></path>
      </clipPath>
      <path clip-path="url(#make-me-a-hanzi-clip-0)" d="M 159.0 526.5 L 207.0 524.5 L 346.0 570.5 L 402.0 576.5 " fill="none" id="make-me-a-hanzi-animation-0" stroke-dasharray="379 758" stroke-linecap="round"></path>

      <clipPath id="make-me-a-hanzi-clip-1">
      <path d="M 292.0 361.5 Q 289.0 261.5 287.0 128.5 Q 286.0 106.5 273.0 96.5 Q 269.0 93.5 214.0 106.5 Q 186.0 119.5 187.0 110.5 Q 188.0 103.5 205.0 88.5 Q 257.0 39.5 269.0 13.5 Q 282.0 -17.5 297.0 -19.5 Q 310.0 -20.5 325.0 10.5 Q 343.0 52.5 343.0 120.5 Q 336.0 258.5 337.0 395.5 L 337.0 420.5 Q 338.0 481.5 341.0 542.5 L 343.0 594.5 Q 356.0 724.5 363.0 741.5 Q 379.0 769.5 328.0 790.5 Q 297.0 808.5 280.0 801.5 Q 264.0 795.5 278.0 774.5 Q 297.0 749.5 298.0 718.5 Q 299.0 702.5 297.0 575.5 L 296.0 528.5 Q 295.0 471.5 293.0 396.5 L 292.0 361.5 Z" fill="lightgray"></path>
      </clipPath>
      <path clip-path="url(#make-me-a-hanzi-clip-1)" d="M 286.0 787.5 L 310.0 772.5 L 324.0 757.5 L 329.0 741.5 L 318.0 588.5 L 315.0 111.5 L 293.0 57.5 L 254.0 72.5 L 193.0 107.5 " fill="none" id="make-me-a-hanzi-animation-1" stroke-dasharray="994 1988" stroke-linecap="round"></path>

      <clipPath id="make-me-a-hanzi-clip-2">
      <path d="M 293.0 396.5 Q 214.0 354.5 146.0 314.5 Q 115.0 296.5 94.0 290.5 Q 82.0 286.5 81.0 277.5 Q 80.0 270.5 93.0 256.5 Q 111.0 243.5 131.0 235.5 Q 140.0 234.5 164.0 250.5 Q 227.0 313.5 292.0 361.5 L 337.0 395.5 Q 341.0 399.5 348.0 403.5 Q 364.0 413.5 373.0 426.5 Q 379.0 438.5 369.0 437.5 Q 359.0 436.5 338.0 421.5 Q 337.0 421.5 337.0 420.5 L 293.0 396.5 Z" fill="lightgray"></path>
      </clipPath>
      <path clip-path="url(#make-me-a-hanzi-clip-2)" d="M 93.0 276.5 L 133.0 270.5 L 148.0 278.5 L 367.0 430.5 " fill="none" id="make-me-a-hanzi-animation-2" stroke-dasharray="452 904" stroke-linecap="round"></path>

      <clipPath id="make-me-a-hanzi-clip-3">
      <path d="M 431.0 668.5 Q 470.0 599.5 491.0 593.5 Q 503.0 590.5 511.0 605.5 Q 514.0 615.5 509.0 635.5 Q 503.0 651.5 483.0 663.5 Q 453.0 685.5 439.0 690.5 Q 432.0 694.5 429.0 684.5 Q 426.0 677.5 431.0 668.5 Z" fill="lightgray"></path>
      </clipPath>
      <path clip-path="url(#make-me-a-hanzi-clip-3)" d="M 439.0 679.5 L 482.0 634.5 L 494.0 609.5 " fill="none" id="make-me-a-hanzi-animation-3" stroke-dasharray="218 436" stroke-linecap="round"></path>

      <clipPath id="make-me-a-hanzi-clip-4">
      <path d="M 604.0 723.5 Q 597.0 696.5 547.0 593.5 Q 543.0 577.5 556.0 584.5 Q 595.0 627.5 616.0 654.5 Q 658.0 714.5 676.0 727.5 Q 691.0 740.5 678.0 752.5 Q 663.0 762.5 640.0 768.5 Q 618.0 774.5 608.0 769.5 Q 598.0 765.5 604.0 755.5 Q 611.0 740.5 604.0 723.5 Z" fill="lightgray"></path>
      </clipPath>
      <path clip-path="url(#make-me-a-hanzi-clip-4)" d="M 615.0 759.5 L 639.0 736.5 L 608.0 674.5 L 570.0 621.5 L 568.0 610.5 L 556.0 602.5 L 558.0 595.5 " fill="none" id="make-me-a-hanzi-animation-4" stroke-dasharray="329 658" stroke-linecap="round"></path>

      <clipPath id="make-me-a-hanzi-clip-5">
      <path d="M 541.0 498.5 Q 581.0 511.5 627.0 524.5 Q 657.0 534.5 661.0 538.5 Q 668.0 545.5 663.0 552.5 Q 656.0 561.5 633.0 565.5 Q 608.0 568.5 585.0 556.5 Q 552.0 541.5 516.0 529.5 Q 476.0 516.5 428.0 508.5 Q 400.0 501.5 421.0 489.5 Q 454.0 471.5 508.0 489.5 L 541.0 498.5 Z" fill="lightgray"></path>
      </clipPath>
      <path clip-path="url(#make-me-a-hanzi-clip-5)" d="M 423.0 499.5 L 479.0 499.5 L 608.0 542.5 L 653.0 546.5 " fill="none" id="make-me-a-hanzi-animation-5" stroke-dasharray="365 730" stroke-linecap="round"></path>

      <clipPath id="make-me-a-hanzi-clip-6">
      <path d="M 551.0 322.5 Q 594.0 335.5 603.0 334.5 C 633.0 337.5 645.0 373.5 615.0 369.5 Q 584.0 365.5 556.0 356.5 L 512.0 344.5 Q 479.0 335.5 452.0 322.5 Q 442.0 321.5 446.0 332.5 Q 458.0 399.5 454.0 408.5 Q 444.0 424.5 425.0 436.5 Q 416.0 442.5 407.0 441.5 Q 398.0 438.5 403.0 422.5 Q 415.0 386.5 407.0 352.5 Q 400.0 321.5 385.0 307.5 Q 370.0 292.5 377.0 281.5 Q 386.0 268.5 400.0 260.5 Q 407.0 257.5 426.0 267.5 Q 441.0 282.5 507.0 306.5 L 551.0 322.5 Z" fill="lightgray"></path>
      </clipPath>
      <path clip-path="url(#make-me-a-hanzi-clip-6)" d="M 411.0 432.5 L 432.0 400.5 L 424.0 305.5 L 454.0 303.5 L 588.0 348.5 L 608.0 365.5 " fill="none" id="make-me-a-hanzi-animation-6" stroke-dasharray="459 918" stroke-linecap="round"></path>

      <clipPath id="make-me-a-hanzi-clip-7">
      <path d="M 603.0 334.5 Q 599.0 316.5 612.0 283.5 Q 618.0 271.5 627.0 279.5 Q 643.0 291.5 652.0 356.5 Q 665.0 410.5 671.0 416.5 Q 678.0 426.5 670.0 437.5 Q 657.0 449.5 634.0 464.5 Q 627.0 468.5 617.0 465.5 Q 611.0 464.5 612.0 453.5 Q 625.0 429.5 615.0 369.5 L 603.0 334.5 Z" fill="lightgray"></path>
      </clipPath>
      <path clip-path="url(#make-me-a-hanzi-clip-7)" d="M 623.0 455.5 L 645.0 424.5 L 624.0 327.5 L 622.0 289.5 " fill="none" id="make-me-a-hanzi-animation-7" stroke-dasharray="303 606" stroke-linecap="round"></path>

      <clipPath id="make-me-a-hanzi-clip-8">
      <path d="M 507.0 306.5 Q 482.0 177.5 388.0 97.5 Q 376.0 90.5 365.0 79.5 Q 349.0 66.5 370.0 70.5 Q 382.0 69.5 406.0 81.5 Q 437.0 93.5 463.0 117.5 Q 523.0 165.5 551.0 322.5 L 556.0 356.5 Q 568.0 459.5 573.0 468.5 Q 577.0 472.5 573.0 481.5 Q 572.0 482.5 541.0 498.5 C 514.0 512.5 501.0 518.5 508.0 489.5 Q 509.0 488.5 510.0 486.5 Q 519.0 416.5 512.0 344.5 L 507.0 306.5 Z" fill="lightgray"></path>
      </clipPath>
      <path clip-path="url(#make-me-a-hanzi-clip-8)" d="M 514.0 491.5 L 521.0 479.5 L 539.0 469.5 L 542.0 458.5 L 530.0 315.5 L 511.0 238.5 L 467.0 151.5 L 427.0 110.5 L 395.0 86.5 L 374.0 78.5 " fill="none" id="make-me-a-hanzi-animation-8" stroke-dasharray="614 1228" stroke-linecap="round"></path>

      <clipPath id="make-me-a-hanzi-clip-9">
      <path d="M 738.0 320.5 Q 745.0 378.5 748.0 430.5 L 750.0 460.5 Q 753.0 583.5 754.0 584.5 C 755.0 608.5 755.0 608.5 744.0 613.5 Q 699.0 634.5 684.0 632.5 Q 668.0 628.5 681.0 610.5 Q 717.0 553.5 699.0 344.5 Q 690.0 283.5 662.0 209.5 Q 640.0 146.5 583.0 87.5 Q 537.0 42.5 535.0 36.5 Q 534.0 29.5 544.0 30.5 Q 583.0 34.5 649.0 110.5 Q 712.0 183.5 734.0 299.5 L 738.0 320.5 Z" fill="lightgray"></path>
      </clipPath>
      <path clip-path="url(#make-me-a-hanzi-clip-9)" d="M 686.0 620.5 L 720.0 593.5 L 726.0 560.5 L 730.0 475.5 L 712.0 294.5 L 689.0 216.5 L 649.0 138.5 L 604.0 84.5 L 541.0 35.5 " fill="none" id="make-me-a-hanzi-animation-9" stroke-dasharray="791 1582" stroke-linecap="round"></path>

      <clipPath id="make-me-a-hanzi-clip-10">
      <path d="M 754.0 584.5 Q 761.0 587.5 772.0 590.5 Q 806.0 602.5 841.0 614.5 Q 857.0 623.5 863.0 615.5 Q 887.0 551.5 874.0 176.5 Q 871.0 83.5 863.0 69.5 Q 859.0 65.5 843.0 68.5 Q 816.0 77.5 790.0 86.5 Q 772.0 93.5 772.0 85.5 Q 824.0 33.5 851.0 -4.5 Q 863.0 -23.5 877.0 -28.5 Q 886.0 -32.5 894.0 -22.5 Q 936.0 25.5 934.0 73.5 Q 924.0 283.5 923.0 551.5 Q 923.0 585.5 934.0 602.5 Q 944.0 621.5 933.0 630.5 Q 912.0 646.5 878.0 660.5 Q 862.0 666.5 847.0 659.5 Q 819.0 640.5 800.0 631.5 Q 781.0 624.5 744.0 613.5 C 715.0 604.5 726.0 574.5 754.0 584.5 Z" fill="lightgray"></path>
      </clipPath>
      <path clip-path="url(#make-me-a-hanzi-clip-10)" d="M 755.0 593.5 L 764.0 603.5 L 860.0 641.5 L 877.0 635.5 L 900.0 608.5 L 902.0 107.5 L 897.0 58.5 L 879.0 29.5 L 839.0 45.5 L 780.0 81.5 " fill="none" id="make-me-a-hanzi-animation-10" stroke-dasharray="995 1990" stroke-linecap="round"></path>

      <clipPath id="make-me-a-hanzi-clip-11">
      <path d="M 748.0 430.5 Q 751.0 430.5 836.0 441.5 Q 858.0 445.5 849.0 458.5 Q 839.0 471.5 815.0 474.5 Q 767.0 477.5 750.0 460.5 C 728.0 440.5 718.0 427.5 748.0 430.5 Z" fill="lightgray"></path>
      </clipPath>
      <path clip-path="url(#make-me-a-hanzi-clip-11)" d="M 749.0 437.5 L 770.0 452.5 L 806.0 457.5 L 840.0 451.5 " fill="none" id="make-me-a-hanzi-animation-11" stroke-dasharray="225 450" stroke-linecap="round"></path>

      <clipPath id="make-me-a-hanzi-clip-12">
      <path d="M 734.0 299.5 L 835.0 302.5 Q 857.0 306.5 849.0 318.5 Q 839.0 331.5 815.0 336.5 Q 778.0 343.5 738.0 320.5 C 712.0 305.5 704.0 298.5 734.0 299.5 Z" fill="lightgray"></path>
      </clipPath>
      <path clip-path="url(#make-me-a-hanzi-clip-12)" d="M 741.0 303.5 L 749.0 313.5 L 781.0 319.5 L 818.0 319.5 L 839.0 312.5 " fill="none" id="make-me-a-hanzi-animation-12" stroke-dasharray="232 464" stroke-linecap="round"></path>

</g>
</svg>
