<svg version="1.1" viewBox="0 0 1024 1024" xmlns="http://www.w3.org/2000/svg">
  <g stroke="lightgray" stroke-dasharray="1,1" stroke-width="1" transform="scale(4, 4)">
    <line x1="0" y1="0" x2="256" y2="256"></line>
    <line x1="256" y1="0" x2="0" y2="256"></line>
    <line x1="128" y1="0" x2="128" y2="256"></line>
    <line x1="0" y1="128" x2="256" y2="128"></line>
  </g>
<g transform="scale(0.92, -0.92) translate(60, -900)">
   <style type="text/css">
    @keyframes keyframes0 {
      from {
       stroke: blue;
       stroke-dashoffset: 511;
       stroke-width: 128;
       }
       62% {
       animation-timing-function: step-end;
       stroke: blue;
       stroke-dashoffset: 0;
       stroke-width: 128;
       }
       to {
       stroke: black;
       stroke-width: 1024;
       }
       }
       #make-me-a-hanzi-animation-0 {
         animation: keyframes0 0.665853s both;
         animation-delay: 0.000000s;
         animation-timing-function: linear;
       }
    @keyframes keyframes1 {
      from {
       stroke: blue;
       stroke-dashoffset: 1100;
       stroke-width: 128;
       }
       78% {
       animation-timing-function: step-end;
       stroke: blue;
       stroke-dashoffset: 0;
       stroke-width: 128;
       }
       to {
       stroke: black;
       stroke-width: 1024;
       }
       }
       #make-me-a-hanzi-animation-1 {
         animation: keyframes1 1.145182s both;
         animation-delay: 0.665853s;
         animation-timing-function: linear;
       }
    @keyframes keyframes2 {
      from {
       stroke: blue;
       stroke-dashoffset: 607;
       stroke-width: 128;
       }
       66% {
       animation-timing-function: step-end;
       stroke: blue;
       stroke-dashoffset: 0;
       stroke-width: 128;
       }
       to {
       stroke: black;
       stroke-width: 1024;
       }
       }
       #make-me-a-hanzi-animation-2 {
         animation: keyframes2 0.743978s both;
         animation-delay: 1.811035s;
         animation-timing-function: linear;
       }
    @keyframes keyframes3 {
      from {
       stroke: blue;
       stroke-dashoffset: 549;
       stroke-width: 128;
       }
       64% {
       animation-timing-function: step-end;
       stroke: blue;
       stroke-dashoffset: 0;
       stroke-width: 128;
       }
       to {
       stroke: black;
       stroke-width: 1024;
       }
       }
       #make-me-a-hanzi-animation-3 {
         animation: keyframes3 0.696777s both;
         animation-delay: 2.555013s;
         animation-timing-function: linear;
       }
    @keyframes keyframes4 {
      from {
       stroke: blue;
       stroke-dashoffset: 491;
       stroke-width: 128;
       }
       62% {
       animation-timing-function: step-end;
       stroke: blue;
       stroke-dashoffset: 0;
       stroke-width: 128;
       }
       to {
       stroke: black;
       stroke-width: 1024;
       }
       }
       #make-me-a-hanzi-animation-4 {
         animation: keyframes4 0.649577s both;
         animation-delay: 3.251790s;
         animation-timing-function: linear;
       }
    @keyframes keyframes5 {
      from {
       stroke: blue;
       stroke-dashoffset: 522;
       stroke-width: 128;
       }
       63% {
       animation-timing-function: step-end;
       stroke: blue;
       stroke-dashoffset: 0;
       stroke-width: 128;
       }
       to {
       stroke: black;
       stroke-width: 1024;
       }
       }
       #make-me-a-hanzi-animation-5 {
         animation: keyframes5 0.674805s both;
         animation-delay: 3.901367s;
         animation-timing-function: linear;
       }
    @keyframes keyframes6 {
      from {
       stroke: blue;
       stroke-dashoffset: 378;
       stroke-width: 128;
       }
       55% {
       animation-timing-function: step-end;
       stroke: blue;
       stroke-dashoffset: 0;
       stroke-width: 128;
       }
       to {
       stroke: black;
       stroke-width: 1024;
       }
       }
       #make-me-a-hanzi-animation-6 {
         animation: keyframes6 0.557617s both;
         animation-delay: 4.576172s;
         animation-timing-function: linear;
       }
    @keyframes keyframes7 {
      from {
       stroke: blue;
       stroke-dashoffset: 386;
       stroke-width: 128;
       }
       56% {
       animation-timing-function: step-end;
       stroke: blue;
       stroke-dashoffset: 0;
       stroke-width: 128;
       }
       to {
       stroke: black;
       stroke-width: 1024;
       }
       }
       #make-me-a-hanzi-animation-7 {
         animation: keyframes7 0.564128s both;
         animation-delay: 5.133789s;
         animation-timing-function: linear;
       }
    @keyframes keyframes8 {
      from {
       stroke: blue;
       stroke-dashoffset: 542;
       stroke-width: 128;
       }
       64% {
       animation-timing-function: step-end;
       stroke: blue;
       stroke-dashoffset: 0;
       stroke-width: 128;
       }
       to {
       stroke: black;
       stroke-width: 1024;
       }
       }
       #make-me-a-hanzi-animation-8 {
         animation: keyframes8 0.691081s both;
         animation-delay: 5.697917s;
         animation-timing-function: linear;
       }
    @keyframes keyframes9 {
      from {
       stroke: blue;
       stroke-dashoffset: 449;
       stroke-width: 128;
       }
       59% {
       animation-timing-function: step-end;
       stroke: blue;
       stroke-dashoffset: 0;
       stroke-width: 128;
       }
       to {
       stroke: black;
       stroke-width: 1024;
       }
       }
       #make-me-a-hanzi-animation-9 {
         animation: keyframes9 0.615397s both;
         animation-delay: 6.388997s;
         animation-timing-function: linear;
       }
    @keyframes keyframes10 {
      from {
       stroke: blue;
       stroke-dashoffset: 484;
       stroke-width: 128;
       }
       61% {
       animation-timing-function: step-end;
       stroke: blue;
       stroke-dashoffset: 0;
       stroke-width: 128;
       }
       to {
       stroke: black;
       stroke-width: 1024;
       }
       }
       #make-me-a-hanzi-animation-10 {
         animation: keyframes10 0.643880s both;
         animation-delay: 7.004395s;
         animation-timing-function: linear;
       }
    @keyframes keyframes11 {
      from {
       stroke: blue;
       stroke-dashoffset: 605;
       stroke-width: 128;
       }
       66% {
       animation-timing-function: step-end;
       stroke: blue;
       stroke-dashoffset: 0;
       stroke-width: 128;
       }
       to {
       stroke: black;
       stroke-width: 1024;
       }
       }
       #make-me-a-hanzi-animation-11 {
         animation: keyframes11 0.742350s both;
         animation-delay: 7.648275s;
         animation-timing-function: linear;
       }
    @keyframes keyframes12 {
      from {
       stroke: blue;
       stroke-dashoffset: 818;
       stroke-width: 128;
       }
       73% {
       animation-timing-function: step-end;
       stroke: blue;
       stroke-dashoffset: 0;
       stroke-width: 128;
       }
       to {
       stroke: black;
       stroke-width: 1024;
       }
       }
       #make-me-a-hanzi-animation-12 {
         animation: keyframes12 0.915690s both;
         animation-delay: 8.390625s;
         animation-timing-function: linear;
       }
    @keyframes keyframes13 {
      from {
       stroke: blue;
       stroke-dashoffset: 365;
       stroke-width: 128;
       }
       54% {
       animation-timing-function: step-end;
       stroke: blue;
       stroke-dashoffset: 0;
       stroke-width: 128;
       }
       to {
       stroke: black;
       stroke-width: 1024;
       }
       }
       #make-me-a-hanzi-animation-13 {
         animation: keyframes13 0.547038s both;
         animation-delay: 9.306315s;
         animation-timing-function: linear;
       }
    @keyframes keyframes14 {
      from {
       stroke: blue;
       stroke-dashoffset: 606;
       stroke-width: 128;
       }
       66% {
       animation-timing-function: step-end;
       stroke: blue;
       stroke-dashoffset: 0;
       stroke-width: 128;
       }
       to {
       stroke: black;
       stroke-width: 1024;
       }
       }
       #make-me-a-hanzi-animation-14 {
         animation: keyframes14 0.743164s both;
         animation-delay: 9.853353s;
         animation-timing-function: linear;
       }
    @keyframes keyframes15 {
      from {
       stroke: blue;
       stroke-dashoffset: 845;
       stroke-width: 128;
       }
       73% {
       animation-timing-function: step-end;
       stroke: blue;
       stroke-dashoffset: 0;
       stroke-width: 128;
       }
       to {
       stroke: black;
       stroke-width: 1024;
       }
       }
       #make-me-a-hanzi-animation-15 {
         animation: keyframes15 0.937663s both;
         animation-delay: 10.596517s;
         animation-timing-function: linear;
       }
    @keyframes keyframes16 {
      from {
       stroke: blue;
       stroke-dashoffset: 370;
       stroke-width: 128;
       }
       55% {
       animation-timing-function: step-end;
       stroke: blue;
       stroke-dashoffset: 0;
       stroke-width: 128;
       }
       to {
       stroke: black;
       stroke-width: 1024;
       }
       }
       #make-me-a-hanzi-animation-16 {
         animation: keyframes16 0.551107s both;
         animation-delay: 11.534180s;
         animation-timing-function: linear;
       }
    @keyframes keyframes17 {
      from {
       stroke: blue;
       stroke-dashoffset: 491;
       stroke-width: 128;
       }
       62% {
       animation-timing-function: step-end;
       stroke: blue;
       stroke-dashoffset: 0;
       stroke-width: 128;
       }
       to {
       stroke: black;
       stroke-width: 1024;
       }
       }
       #make-me-a-hanzi-animation-17 {
         animation: keyframes17 0.649577s both;
         animation-delay: 12.085286s;
         animation-timing-function: linear;
       }
    @keyframes keyframes18 {
      from {
       stroke: blue;
       stroke-dashoffset: 488;
       stroke-width: 128;
       }
       61% {
       animation-timing-function: step-end;
       stroke: blue;
       stroke-dashoffset: 0;
       stroke-width: 128;
       }
       to {
       stroke: black;
       stroke-width: 1024;
       }
       }
       #make-me-a-hanzi-animation-18 {
         animation: keyframes18 0.647135s both;
         animation-delay: 12.734863s;
         animation-timing-function: linear;
       }
    @keyframes keyframes19 {
      from {
       stroke: blue;
       stroke-dashoffset: 482;
       stroke-width: 128;
       }
       61% {
       animation-timing-function: step-end;
       stroke: blue;
       stroke-dashoffset: 0;
       stroke-width: 128;
       }
       to {
       stroke: black;
       stroke-width: 1024;
       }
       }
       #make-me-a-hanzi-animation-19 {
         animation: keyframes19 0.642253s both;
         animation-delay: 13.381999s;
         animation-timing-function: linear;
       }
    @keyframes keyframes20 {
      from {
       stroke: blue;
       stroke-dashoffset: 612;
       stroke-width: 128;
       }
       67% {
       animation-timing-function: step-end;
       stroke: blue;
       stroke-dashoffset: 0;
       stroke-width: 128;
       }
       to {
       stroke: black;
       stroke-width: 1024;
       }
       }
       #make-me-a-hanzi-animation-20 {
         animation: keyframes20 0.748047s both;
         animation-delay: 14.024251s;
         animation-timing-function: linear;
       }
    @keyframes keyframes21 {
      from {
       stroke: blue;
       stroke-dashoffset: 534;
       stroke-width: 128;
       }
       63% {
       animation-timing-function: step-end;
       stroke: blue;
       stroke-dashoffset: 0;
       stroke-width: 128;
       }
       to {
       stroke: black;
       stroke-width: 1024;
       }
       }
       #make-me-a-hanzi-animation-21 {
         animation: keyframes21 0.684570s both;
         animation-delay: 14.772298s;
         animation-timing-function: linear;
       }
</style>
<path d="M 271.0 512.5 L 311.0 520.5 Q 315.0 520.5 330.0 526.5 Q 351.0 534.5 336.0 549.5 Q 329.0 556.5 316.0 560.5 L 295.0 565.5 Q 294.0 566.5 274.0 562.5 L 232.0 549.5 L 97.0 520.5 L 78.0 518.5 Q 72.0 516.5 71.0 512.5 Q 70.0 507.5 76.0 502.5 Q 112.0 476.5 192.0 496.5 L 230.0 504.5 L 271.0 512.5 Z" fill="lightgray"></path> 
<path d="M 265.0 92.5 L 268.0 156.5 L 267.0 377.5 L 269.0 418.5 L 271.0 512.5 L 274.0 562.5 L 284.0 678.5 L 288.0 698.5 Q 290.0 714.5 292.0 716.5 Q 292.0 720.5 298.0 730.5 Q 304.0 739.5 303.0 745.5 Q 301.0 758.5 273.0 777.5 L 249.0 792.5 Q 242.0 796.5 229.0 797.5 Q 210.0 801.5 210.0 782.5 Q 210.0 775.5 216.0 760.5 Q 229.0 710.5 230.0 651.5 L 232.0 549.5 L 230.0 504.5 L 225.0 388.5 L 222.0 336.5 L 216.0 178.5 Q 214.0 139.5 206.0 123.5 Q 198.0 106.5 192.0 102.5 Q 187.0 100.5 171.0 104.5 L 128.0 114.5 Q 114.0 117.5 114.0 114.5 Q 114.0 110.5 116.0 108.5 L 151.0 76.5 L 175.0 48.5 Q 194.0 22.5 199.0 13.5 Q 205.0 3.5 209.0 2.5 Q 214.0 0.5 226.0 8.5 Q 238.0 15.5 250.0 39.5 Q 263.0 63.5 265.0 92.5 Z" fill="lightgray"></path> 
<path d="M 267.0 377.5 L 336.0 437.5 Q 347.0 448.5 339.0 454.5 Q 332.0 460.5 324.0 454.5 L 269.0 418.5 L 225.0 388.5 L 113.0 322.5 Q 75.0 299.5 57.0 297.5 Q 39.0 295.5 36.0 292.5 Q 26.0 283.5 42.0 265.5 Q 74.0 226.5 102.0 226.5 Q 109.0 226.5 113.0 230.5 Q 116.0 231.5 127.0 248.5 Q 138.0 265.5 158.0 282.5 L 222.0 336.5 L 267.0 377.5 Z" fill="lightgray"></path> 
<path d="M 557.0 626.5 L 594.0 634.5 Q 618.0 640.5 618.0 651.5 Q 618.0 658.5 605.0 665.5 Q 593.0 671.5 586.0 671.5 Q 580.0 670.5 566.0 670.5 L 513.0 658.5 L 484.0 652.5 L 454.0 648.5 Q 450.0 648.5 426.0 642.5 L 388.0 636.5 L 351.0 631.5 Q 350.0 630.5 338.0 630.5 L 317.0 628.5 L 311.0 624.5 Q 306.0 620.5 315.0 612.5 Q 335.0 596.5 391.0 604.5 L 428.0 610.5 L 472.0 614.5 Q 477.0 613.5 513.0 620.5 L 557.0 626.5 Z" fill="lightgray"></path> 
<path d="M 426.0 642.5 L 426.0 672.5 Q 425.0 680.5 431.0 698.5 L 435.0 712.5 Q 434.0 726.5 389.0 735.5 Q 370.0 738.5 365.0 730.5 Q 360.0 726.5 365.0 719.5 Q 381.0 698.5 386.0 652.5 L 388.0 636.5 L 391.0 604.5 L 398.0 526.5 Q 404.0 500.5 416.0 495.5 Q 428.0 490.5 428.0 500.5 L 430.0 510.5 L 431.0 539.5 L 428.0 610.5 L 426.0 642.5 Z" fill="lightgray"></path> 
<path d="M 544.0 544.5 L 557.0 626.5 L 566.0 670.5 L 580.0 738.5 Q 583.0 751.5 588.0 758.5 Q 594.0 765.5 591.0 773.5 Q 589.0 781.5 578.0 788.5 L 559.0 800.5 Q 548.0 803.5 536.0 808.5 Q 525.0 812.5 517.0 810.5 Q 513.0 806.5 513.0 803.5 L 513.0 794.5 Q 519.0 771.5 519.0 736.5 L 513.0 658.5 L 513.0 620.5 L 510.0 592.5 L 508.0 554.5 C 506.0 524.5 539.0 514.5 544.0 544.5 Z" fill="lightgray"></path> 
<path d="M 458.0 512.5 L 519.0 519.5 Q 527.0 519.5 529.0 520.5 L 555.0 522.5 Q 557.0 523.5 559.0 527.5 Q 561.0 534.5 544.0 544.5 L 508.0 554.5 L 431.0 539.5 C 402.0 533.5 400.0 510.5 430.0 510.5 L 448.0 510.5 L 458.0 512.5 Z" fill="lightgray"></path> 
<path d="M 381.0 426.5 L 355.0 430.5 Q 348.0 432.5 346.0 428.5 Q 345.0 424.5 353.0 414.5 Q 362.0 404.5 366.0 387.5 L 380.0 318.5 Q 383.0 300.5 388.0 299.5 Q 393.0 297.5 394.0 298.5 Q 405.0 298.5 405.0 318.5 L 402.0 344.5 L 398.0 386.5 L 393.0 408.5 C 389.0 425.5 389.0 425.5 381.0 426.5 Z" fill="lightgray"></path> 
<path d="M 456.0 440.5 L 381.0 426.5 C 352.0 420.5 364.0 402.5 393.0 408.5 L 455.0 420.5 L 504.0 432.5 L 542.0 436.5 Q 549.0 436.5 555.0 438.5 Q 562.0 439.5 565.0 434.5 Q 567.0 428.5 566.0 416.5 L 557.0 368.5 C 551.0 339.5 575.0 335.5 588.0 362.5 L 603.0 392.5 Q 609.0 407.5 621.0 418.5 Q 634.0 429.5 635.0 432.5 L 632.0 442.5 Q 630.0 448.5 615.0 457.5 Q 586.0 473.5 576.0 468.5 Q 559.0 458.5 506.0 451.5 L 456.0 440.5 Z" fill="lightgray"></path> 
<path d="M 405.0 318.5 L 414.0 318.5 Q 419.0 316.5 430.0 318.5 L 455.0 322.5 L 500.0 328.5 L 572.0 334.5 Q 604.0 336.5 605.0 340.5 Q 612.0 352.5 588.0 362.5 L 557.0 368.5 L 533.0 364.5 Q 530.0 365.5 500.0 358.5 L 455.0 351.5 L 402.0 344.5 C 372.0 340.5 375.0 318.5 405.0 318.5 Z" fill="lightgray"></path> 
<path d="M 452.0 278.5 L 374.0 268.5 Q 364.0 268.5 362.0 264.5 Q 361.0 260.5 362.0 258.5 Q 362.0 254.5 375.0 247.5 Q 389.0 240.5 417.0 246.5 L 448.0 250.5 L 492.0 258.5 L 596.0 275.5 Q 601.0 276.5 603.0 281.5 Q 605.0 285.5 601.0 290.5 Q 597.0 294.5 577.0 298.5 Q 557.0 302.5 535.0 297.5 L 496.0 288.5 L 452.0 278.5 Z" fill="lightgray"></path> 
<path d="M 438.0 208.5 L 331.0 190.5 L 300.0 190.5 Q 295.0 190.5 293.0 188.5 L 290.0 188.5 Q 274.0 179.5 302.0 165.5 L 320.0 157.5 Q 327.0 152.5 352.0 158.5 Q 378.0 164.5 428.0 174.5 L 476.0 186.5 L 637.0 204.5 Q 642.0 204.5 643.0 208.5 Q 651.0 218.5 626.0 227.5 Q 611.0 232.5 601.0 234.5 Q 592.0 235.5 570.0 230.5 L 484.0 214.5 L 438.0 208.5 Z" fill="lightgray"></path> 
<path d="M 442.0 492.5 Q 442.0 487.5 447.0 476.5 Q 453.0 464.5 454.0 454.5 L 456.0 440.5 L 455.0 420.5 L 456.0 390.5 Q 456.0 365.5 455.0 351.5 L 455.0 322.5 L 452.0 278.5 L 448.0 250.5 L 444.0 227.5 L 438.0 208.5 L 428.0 174.5 L 406.0 132.5 Q 400.0 119.5 379.0 92.5 Q 339.0 48.5 316.0 28.5 L 299.0 16.5 Q 294.0 10.5 295.0 6.5 Q 296.0 0.5 305.0 5.5 L 322.0 12.5 Q 347.0 24.5 370.0 40.5 Q 394.0 55.5 436.0 111.5 Q 451.0 125.5 459.0 145.5 L 476.0 186.5 L 484.0 214.5 L 492.0 258.5 L 496.0 288.5 L 500.0 328.5 L 500.0 358.5 L 502.0 398.5 Q 503.0 399.5 503.0 401.5 L 504.0 432.5 L 506.0 451.5 L 513.0 474.5 L 512.0 476.5 Q 508.0 487.5 491.0 496.5 L 458.0 512.5 C 450.0 516.5 450.0 516.5 448.0 510.5 Q 438.0 497.5 442.0 492.5 Z" fill="lightgray"></path> 
<path d="M 518.0 155.5 L 506.0 158.5 Q 493.0 161.5 496.0 148.5 L 512.0 126.5 Q 513.0 122.5 533.0 100.5 Q 572.0 51.5 589.0 61.5 Q 596.0 67.5 598.0 76.5 Q 600.0 84.5 594.0 109.5 Q 579.0 130.5 553.0 144.5 Q 537.0 150.5 518.0 155.5 Z" fill="lightgray"></path> 
<path d="M 687.0 569.5 L 714.0 606.5 L 771.0 697.5 L 782.0 712.5 Q 784.0 715.5 794.0 724.5 Q 805.0 732.5 807.0 739.5 Q 809.0 746.5 795.0 760.5 Q 782.0 774.5 770.0 781.5 Q 758.0 788.5 757.0 788.5 Q 733.0 796.5 727.0 790.5 Q 725.0 789.5 725.0 782.5 L 722.0 756.5 Q 722.0 754.5 718.0 740.5 Q 715.0 725.5 706.0 694.5 Q 698.0 663.5 666.0 610.5 Q 628.0 543.5 612.0 523.5 L 597.0 504.5 Q 586.0 492.5 589.0 487.5 Q 592.0 482.5 603.0 488.5 L 666.0 536.5 L 687.0 569.5 Z" fill="lightgray"></path> 
<path d="M 718.0 532.5 L 716.0 544.5 Q 717.0 549.5 706.0 557.5 Q 699.0 563.5 687.0 569.5 C 663.0 583.5 664.0 566.5 666.0 536.5 L 670.0 461.5 L 666.0 254.5 Q 666.0 197.5 648.0 74.5 L 641.0 38.5 Q 643.0 3.5 665.0 -27.5 Q 672.0 -36.5 675.0 -34.5 Q 680.0 -33.5 688.0 -18.5 Q 696.0 -4.5 698.0 33.5 L 702.0 121.5 L 707.0 148.5 L 711.0 264.5 L 711.0 284.5 L 710.0 384.5 L 711.0 402.5 L 712.0 466.5 L 714.0 470.5 L 716.0 511.5 L 718.0 532.5 Z" fill="lightgray"></path> 
<path d="M 852.0 556.5 L 860.0 586.5 Q 862.0 594.5 857.0 608.5 Q 853.0 622.5 845.0 629.5 Q 837.0 635.5 830.0 639.5 L 809.0 651.5 L 786.0 658.5 Q 776.0 661.5 772.0 657.5 Q 769.0 652.5 769.0 650.5 Q 769.0 647.5 773.0 641.5 L 778.0 634.5 L 825.0 548.5 C 839.0 522.5 844.0 527.5 852.0 556.5 Z" fill="lightgray"></path> 
<path d="M 847.0 518.5 L 934.0 533.5 L 958.0 540.5 Q 972.0 545.5 954.0 559.5 Q 936.0 573.5 906.0 569.5 L 852.0 556.5 L 825.0 548.5 L 782.0 542.5 L 737.0 534.5 Q 733.0 533.5 718.0 532.5 C 688.0 530.5 686.0 515.5 716.0 511.5 L 758.0 506.5 Q 772.0 506.5 794.0 510.5 L 847.0 518.5 Z" fill="lightgray"></path> 
<path d="M 853.0 391.5 L 880.0 397.5 L 940.0 406.5 Q 952.0 406.5 952.0 415.5 Q 951.0 421.5 941.0 427.5 Q 931.0 432.5 919.0 434.5 Q 890.0 443.5 858.0 432.5 L 804.0 416.5 L 769.0 409.5 Q 755.0 406.5 739.0 404.5 L 724.0 403.5 Q 714.0 403.5 711.0 402.5 C 683.0 399.5 684.0 398.5 710.0 384.5 L 723.0 377.5 Q 740.0 368.5 804.0 380.5 L 853.0 391.5 Z" fill="lightgray"></path> 
<path d="M 850.0 272.5 L 940.0 288.5 Q 950.0 289.5 950.0 296.5 Q 950.0 302.5 942.0 305.5 Q 939.0 309.5 919.0 312.5 Q 907.0 316.5 898.0 316.5 L 882.0 316.5 Q 869.0 314.5 851.0 310.5 L 805.0 300.5 L 711.0 284.5 C 681.0 279.5 683.0 274.5 711.0 264.5 L 725.0 259.5 Q 741.0 249.5 769.0 257.5 Q 797.0 264.5 805.0 264.5 L 850.0 272.5 Z" fill="lightgray"></path> 
<path d="M 846.0 172.5 L 850.0 272.5 L 851.0 310.5 L 853.0 391.5 L 858.0 432.5 L 858.0 466.5 L 867.0 500.5 Q 867.0 504.5 847.0 518.5 C 823.0 536.5 785.0 539.5 794.0 510.5 L 800.0 490.5 Q 801.0 486.5 804.0 416.5 L 804.0 380.5 L 805.0 300.5 L 805.0 264.5 L 805.0 164.5 C 805.0 134.5 845.0 142.5 846.0 172.5 Z" fill="lightgray"></path> 
<path d="M 728.0 114.5 L 739.0 117.5 Q 744.0 119.5 778.0 126.5 L 836.0 134.5 Q 932.0 144.5 953.0 144.5 L 984.0 144.5 Q 994.0 144.5 996.0 150.5 Q 998.0 158.5 990.0 165.5 Q 983.0 171.5 968.0 176.5 Q 950.0 185.5 929.0 185.5 L 911.0 183.5 Q 906.0 183.5 898.0 181.5 L 846.0 172.5 L 805.0 164.5 L 746.0 155.5 Q 743.0 155.5 707.0 148.5 C 678.0 142.5 674.0 132.5 702.0 121.5 Q 725.0 111.5 728.0 114.5 Z" fill="lightgray"></path> 
      <clipPath id="make-me-a-hanzi-clip-0">
      <path d="M 271.0 512.5 L 311.0 520.5 Q 315.0 520.5 330.0 526.5 Q 351.0 534.5 336.0 549.5 Q 329.0 556.5 316.0 560.5 L 295.0 565.5 Q 294.0 566.5 274.0 562.5 L 232.0 549.5 L 97.0 520.5 L 78.0 518.5 Q 72.0 516.5 71.0 512.5 Q 70.0 507.5 76.0 502.5 Q 112.0 476.5 192.0 496.5 L 230.0 504.5 L 271.0 512.5 Z" fill="lightgray"></path>
      </clipPath>
      <path clip-path="url(#make-me-a-hanzi-clip-0)" d="M 79.0 510.5 L 131.0 506.5 L 286.0 540.5 L 330.0 538.5 " fill="none" id="make-me-a-hanzi-animation-0" stroke-dasharray="383 766" stroke-linecap="round"></path>

      <clipPath id="make-me-a-hanzi-clip-1">
      <path d="M 265.0 92.5 L 268.0 156.5 L 267.0 377.5 L 269.0 418.5 L 271.0 512.5 L 274.0 562.5 L 284.0 678.5 L 288.0 698.5 Q 290.0 714.5 292.0 716.5 Q 292.0 720.5 298.0 730.5 Q 304.0 739.5 303.0 745.5 Q 301.0 758.5 273.0 777.5 L 249.0 792.5 Q 242.0 796.5 229.0 797.5 Q 210.0 801.5 210.0 782.5 Q 210.0 775.5 216.0 760.5 Q 229.0 710.5 230.0 651.5 L 232.0 549.5 L 230.0 504.5 L 225.0 388.5 L 222.0 336.5 L 216.0 178.5 Q 214.0 139.5 206.0 123.5 Q 198.0 106.5 192.0 102.5 Q 187.0 100.5 171.0 104.5 L 128.0 114.5 Q 114.0 117.5 114.0 114.5 Q 114.0 110.5 116.0 108.5 L 151.0 76.5 L 175.0 48.5 Q 194.0 22.5 199.0 13.5 Q 205.0 3.5 209.0 2.5 Q 214.0 0.5 226.0 8.5 Q 238.0 15.5 250.0 39.5 Q 263.0 63.5 265.0 92.5 Z" fill="lightgray"></path>
      </clipPath>
      <path clip-path="url(#make-me-a-hanzi-clip-1)" d="M 223.0 785.5 L 260.0 738.5 L 240.0 138.5 L 229.0 89.5 L 215.0 65.5 L 181.0 77.5 L 121.0 113.5 " fill="none" id="make-me-a-hanzi-animation-1" stroke-dasharray="972 1944" stroke-linecap="round"></path>

      <clipPath id="make-me-a-hanzi-clip-2">
      <path d="M 267.0 377.5 L 336.0 437.5 Q 347.0 448.5 339.0 454.5 Q 332.0 460.5 324.0 454.5 L 269.0 418.5 L 225.0 388.5 L 113.0 322.5 Q 75.0 299.5 57.0 297.5 Q 39.0 295.5 36.0 292.5 Q 26.0 283.5 42.0 265.5 Q 74.0 226.5 102.0 226.5 Q 109.0 226.5 113.0 230.5 Q 116.0 231.5 127.0 248.5 Q 138.0 265.5 158.0 282.5 L 222.0 336.5 L 267.0 377.5 Z" fill="lightgray"></path>
      </clipPath>
      <path clip-path="url(#make-me-a-hanzi-clip-2)" d="M 43.0 284.5 L 94.0 268.5 L 332.0 446.5 " fill="none" id="make-me-a-hanzi-animation-2" stroke-dasharray="479 958" stroke-linecap="round"></path>

      <clipPath id="make-me-a-hanzi-clip-3">
      <path d="M 557.0 626.5 L 594.0 634.5 Q 618.0 640.5 618.0 651.5 Q 618.0 658.5 605.0 665.5 Q 593.0 671.5 586.0 671.5 Q 580.0 670.5 566.0 670.5 L 513.0 658.5 L 484.0 652.5 L 454.0 648.5 Q 450.0 648.5 426.0 642.5 L 388.0 636.5 L 351.0 631.5 Q 350.0 630.5 338.0 630.5 L 317.0 628.5 L 311.0 624.5 Q 306.0 620.5 315.0 612.5 Q 335.0 596.5 391.0 604.5 L 428.0 610.5 L 472.0 614.5 Q 477.0 613.5 513.0 620.5 L 557.0 626.5 Z" fill="lightgray"></path>
      </clipPath>
      <path clip-path="url(#make-me-a-hanzi-clip-3)" d="M 318.0 620.5 L 379.0 617.5 L 564.0 649.5 L 608.0 651.5 " fill="none" id="make-me-a-hanzi-animation-3" stroke-dasharray="421 842" stroke-linecap="round"></path>

      <clipPath id="make-me-a-hanzi-clip-4">
      <path d="M 426.0 642.5 L 426.0 672.5 Q 425.0 680.5 431.0 698.5 L 435.0 712.5 Q 434.0 726.5 389.0 735.5 Q 370.0 738.5 365.0 730.5 Q 360.0 726.5 365.0 719.5 Q 381.0 698.5 386.0 652.5 L 388.0 636.5 L 391.0 604.5 L 398.0 526.5 Q 404.0 500.5 416.0 495.5 Q 428.0 490.5 428.0 500.5 L 430.0 510.5 L 431.0 539.5 L 428.0 610.5 L 426.0 642.5 Z" fill="lightgray"></path>
      </clipPath>
      <path clip-path="url(#make-me-a-hanzi-clip-4)" d="M 374.0 725.5 L 404.0 703.5 L 419.0 506.5 " fill="none" id="make-me-a-hanzi-animation-4" stroke-dasharray="363 726" stroke-linecap="round"></path>

      <clipPath id="make-me-a-hanzi-clip-5">
      <path d="M 544.0 544.5 L 557.0 626.5 L 566.0 670.5 L 580.0 738.5 Q 583.0 751.5 588.0 758.5 Q 594.0 765.5 591.0 773.5 Q 589.0 781.5 578.0 788.5 L 559.0 800.5 Q 548.0 803.5 536.0 808.5 Q 525.0 812.5 517.0 810.5 Q 513.0 806.5 513.0 803.5 L 513.0 794.5 Q 519.0 771.5 519.0 736.5 L 513.0 658.5 L 513.0 620.5 L 510.0 592.5 L 508.0 554.5 C 506.0 524.5 539.0 514.5 544.0 544.5 Z" fill="lightgray"></path>
      </clipPath>
      <path clip-path="url(#make-me-a-hanzi-clip-5)" d="M 522.0 803.5 L 552.0 763.5 L 529.0 569.5 L 540.0 552.5 " fill="none" id="make-me-a-hanzi-animation-5" stroke-dasharray="394 788" stroke-linecap="round"></path>

      <clipPath id="make-me-a-hanzi-clip-6">
      <path d="M 458.0 512.5 L 519.0 519.5 Q 527.0 519.5 529.0 520.5 L 555.0 522.5 Q 557.0 523.5 559.0 527.5 Q 561.0 534.5 544.0 544.5 L 508.0 554.5 L 431.0 539.5 C 402.0 533.5 400.0 510.5 430.0 510.5 L 448.0 510.5 L 458.0 512.5 Z" fill="lightgray"></path>
      </clipPath>
      <path clip-path="url(#make-me-a-hanzi-clip-6)" d="M 435.0 517.5 L 446.0 526.5 L 504.0 536.5 L 552.0 529.5 " fill="none" id="make-me-a-hanzi-animation-6" stroke-dasharray="250 500" stroke-linecap="round"></path>

      <clipPath id="make-me-a-hanzi-clip-7">
      <path d="M 381.0 426.5 L 355.0 430.5 Q 348.0 432.5 346.0 428.5 Q 345.0 424.5 353.0 414.5 Q 362.0 404.5 366.0 387.5 L 380.0 318.5 Q 383.0 300.5 388.0 299.5 Q 393.0 297.5 394.0 298.5 Q 405.0 298.5 405.0 318.5 L 402.0 344.5 L 398.0 386.5 L 393.0 408.5 C 389.0 425.5 389.0 425.5 381.0 426.5 Z" fill="lightgray"></path>
      </clipPath>
      <path clip-path="url(#make-me-a-hanzi-clip-7)" d="M 352.0 422.5 L 372.0 413.5 L 377.0 404.5 L 392.0 307.5 " fill="none" id="make-me-a-hanzi-animation-7" stroke-dasharray="258 516" stroke-linecap="round"></path>

      <clipPath id="make-me-a-hanzi-clip-8">
      <path d="M 456.0 440.5 L 381.0 426.5 C 352.0 420.5 364.0 402.5 393.0 408.5 L 455.0 420.5 L 504.0 432.5 L 542.0 436.5 Q 549.0 436.5 555.0 438.5 Q 562.0 439.5 565.0 434.5 Q 567.0 428.5 566.0 416.5 L 557.0 368.5 C 551.0 339.5 575.0 335.5 588.0 362.5 L 603.0 392.5 Q 609.0 407.5 621.0 418.5 Q 634.0 429.5 635.0 432.5 L 632.0 442.5 Q 630.0 448.5 615.0 457.5 Q 586.0 473.5 576.0 468.5 Q 559.0 458.5 506.0 451.5 L 456.0 440.5 Z" fill="lightgray"></path>
      </clipPath>
      <path clip-path="url(#make-me-a-hanzi-clip-8)" d="M 389.0 425.5 L 399.0 418.5 L 517.0 446.5 L 580.0 448.5 L 595.0 430.5 L 578.0 383.5 L 566.0 373.5 " fill="none" id="make-me-a-hanzi-animation-8" stroke-dasharray="414 828" stroke-linecap="round"></path>

      <clipPath id="make-me-a-hanzi-clip-9">
      <path d="M 405.0 318.5 L 414.0 318.5 Q 419.0 316.5 430.0 318.5 L 455.0 322.5 L 500.0 328.5 L 572.0 334.5 Q 604.0 336.5 605.0 340.5 Q 612.0 352.5 588.0 362.5 L 557.0 368.5 L 533.0 364.5 Q 530.0 365.5 500.0 358.5 L 455.0 351.5 L 402.0 344.5 C 372.0 340.5 375.0 318.5 405.0 318.5 Z" fill="lightgray"></path>
      </clipPath>
      <path clip-path="url(#make-me-a-hanzi-clip-9)" d="M 409.0 338.5 L 424.0 332.5 L 554.0 350.5 L 599.0 345.5 " fill="none" id="make-me-a-hanzi-animation-9" stroke-dasharray="321 642" stroke-linecap="round"></path>

      <clipPath id="make-me-a-hanzi-clip-10">
      <path d="M 452.0 278.5 L 374.0 268.5 Q 364.0 268.5 362.0 264.5 Q 361.0 260.5 362.0 258.5 Q 362.0 254.5 375.0 247.5 Q 389.0 240.5 417.0 246.5 L 448.0 250.5 L 492.0 258.5 L 596.0 275.5 Q 601.0 276.5 603.0 281.5 Q 605.0 285.5 601.0 290.5 Q 597.0 294.5 577.0 298.5 Q 557.0 302.5 535.0 297.5 L 496.0 288.5 L 452.0 278.5 Z" fill="lightgray"></path>
      </clipPath>
      <path clip-path="url(#make-me-a-hanzi-clip-10)" d="M 370.0 261.5 L 407.0 257.5 L 532.0 281.5 L 595.0 284.5 " fill="none" id="make-me-a-hanzi-animation-10" stroke-dasharray="356 712" stroke-linecap="round"></path>

      <clipPath id="make-me-a-hanzi-clip-11">
      <path d="M 438.0 208.5 L 331.0 190.5 L 300.0 190.5 Q 295.0 190.5 293.0 188.5 L 290.0 188.5 Q 274.0 179.5 302.0 165.5 L 320.0 157.5 Q 327.0 152.5 352.0 158.5 Q 378.0 164.5 428.0 174.5 L 476.0 186.5 L 637.0 204.5 Q 642.0 204.5 643.0 208.5 Q 651.0 218.5 626.0 227.5 Q 611.0 232.5 601.0 234.5 Q 592.0 235.5 570.0 230.5 L 484.0 214.5 L 438.0 208.5 Z" fill="lightgray"></path>
      </clipPath>
      <path clip-path="url(#make-me-a-hanzi-clip-11)" d="M 292.0 181.5 L 329.0 172.5 L 582.0 216.5 L 636.0 213.5 " fill="none" id="make-me-a-hanzi-animation-11" stroke-dasharray="477 954" stroke-linecap="round"></path>

      <clipPath id="make-me-a-hanzi-clip-12">
      <path d="M 442.0 492.5 Q 442.0 487.5 447.0 476.5 Q 453.0 464.5 454.0 454.5 L 456.0 440.5 L 455.0 420.5 L 456.0 390.5 Q 456.0 365.5 455.0 351.5 L 455.0 322.5 L 452.0 278.5 L 448.0 250.5 L 444.0 227.5 L 438.0 208.5 L 428.0 174.5 L 406.0 132.5 Q 400.0 119.5 379.0 92.5 Q 339.0 48.5 316.0 28.5 L 299.0 16.5 Q 294.0 10.5 295.0 6.5 Q 296.0 0.5 305.0 5.5 L 322.0 12.5 Q 347.0 24.5 370.0 40.5 Q 394.0 55.5 436.0 111.5 Q 451.0 125.5 459.0 145.5 L 476.0 186.5 L 484.0 214.5 L 492.0 258.5 L 496.0 288.5 L 500.0 328.5 L 500.0 358.5 L 502.0 398.5 Q 503.0 399.5 503.0 401.5 L 504.0 432.5 L 506.0 451.5 L 513.0 474.5 L 512.0 476.5 Q 508.0 487.5 491.0 496.5 L 458.0 512.5 C 450.0 516.5 450.0 516.5 448.0 510.5 Q 438.0 497.5 442.0 492.5 Z" fill="lightgray"></path>
      </clipPath>
      <path clip-path="url(#make-me-a-hanzi-clip-12)" d="M 456.0 498.5 L 481.0 465.5 L 478.0 323.5 L 457.0 196.5 L 433.0 138.5 L 396.0 87.5 L 357.0 47.5 L 300.0 10.5 " fill="none" id="make-me-a-hanzi-animation-12" stroke-dasharray="690 1380" stroke-linecap="round"></path>

      <clipPath id="make-me-a-hanzi-clip-13">
      <path d="M 518.0 155.5 L 506.0 158.5 Q 493.0 161.5 496.0 148.5 L 512.0 126.5 Q 513.0 122.5 533.0 100.5 Q 572.0 51.5 589.0 61.5 Q 596.0 67.5 598.0 76.5 Q 600.0 84.5 594.0 109.5 Q 579.0 130.5 553.0 144.5 Q 537.0 150.5 518.0 155.5 Z" fill="lightgray"></path>
      </clipPath>
      <path clip-path="url(#make-me-a-hanzi-clip-13)" d="M 507.0 147.5 L 556.0 113.5 L 583.0 72.5 " fill="none" id="make-me-a-hanzi-animation-13" stroke-dasharray="237 474" stroke-linecap="round"></path>

      <clipPath id="make-me-a-hanzi-clip-14">
      <path d="M 687.0 569.5 L 714.0 606.5 L 771.0 697.5 L 782.0 712.5 Q 784.0 715.5 794.0 724.5 Q 805.0 732.5 807.0 739.5 Q 809.0 746.5 795.0 760.5 Q 782.0 774.5 770.0 781.5 Q 758.0 788.5 757.0 788.5 Q 733.0 796.5 727.0 790.5 Q 725.0 789.5 725.0 782.5 L 722.0 756.5 Q 722.0 754.5 718.0 740.5 Q 715.0 725.5 706.0 694.5 Q 698.0 663.5 666.0 610.5 Q 628.0 543.5 612.0 523.5 L 597.0 504.5 Q 586.0 492.5 589.0 487.5 Q 592.0 482.5 603.0 488.5 L 666.0 536.5 L 687.0 569.5 Z" fill="lightgray"></path>
      </clipPath>
      <path clip-path="url(#make-me-a-hanzi-clip-14)" d="M 734.0 784.5 L 758.0 743.5 L 729.0 678.5 L 654.0 551.5 L 596.0 490.5 " fill="none" id="make-me-a-hanzi-animation-14" stroke-dasharray="478 956" stroke-linecap="round"></path>

      <clipPath id="make-me-a-hanzi-clip-15">
      <path d="M 718.0 532.5 L 716.0 544.5 Q 717.0 549.5 706.0 557.5 Q 699.0 563.5 687.0 569.5 C 663.0 583.5 664.0 566.5 666.0 536.5 L 670.0 461.5 L 666.0 254.5 Q 666.0 197.5 648.0 74.5 L 641.0 38.5 Q 643.0 3.5 665.0 -27.5 Q 672.0 -36.5 675.0 -34.5 Q 680.0 -33.5 688.0 -18.5 Q 696.0 -4.5 698.0 33.5 L 702.0 121.5 L 707.0 148.5 L 711.0 264.5 L 711.0 284.5 L 710.0 384.5 L 711.0 402.5 L 712.0 466.5 L 714.0 470.5 L 716.0 511.5 L 718.0 532.5 Z" fill="lightgray"></path>
      </clipPath>
      <path clip-path="url(#make-me-a-hanzi-clip-15)" d="M 689.0 560.5 L 694.0 534.5 L 689.0 243.5 L 669.0 34.5 L 673.0 -26.5 " fill="none" id="make-me-a-hanzi-animation-15" stroke-dasharray="717 1434" stroke-linecap="round"></path>

      <clipPath id="make-me-a-hanzi-clip-16">
      <path d="M 852.0 556.5 L 860.0 586.5 Q 862.0 594.5 857.0 608.5 Q 853.0 622.5 845.0 629.5 Q 837.0 635.5 830.0 639.5 L 809.0 651.5 L 786.0 658.5 Q 776.0 661.5 772.0 657.5 Q 769.0 652.5 769.0 650.5 Q 769.0 647.5 773.0 641.5 L 778.0 634.5 L 825.0 548.5 C 839.0 522.5 844.0 527.5 852.0 556.5 Z" fill="lightgray"></path>
      </clipPath>
      <path clip-path="url(#make-me-a-hanzi-clip-16)" d="M 780.0 650.5 L 826.0 607.5 L 835.0 573.5 L 829.0 558.5 " fill="none" id="make-me-a-hanzi-animation-16" stroke-dasharray="242 484" stroke-linecap="round"></path>

      <clipPath id="make-me-a-hanzi-clip-17">
      <path d="M 847.0 518.5 L 934.0 533.5 L 958.0 540.5 Q 972.0 545.5 954.0 559.5 Q 936.0 573.5 906.0 569.5 L 852.0 556.5 L 825.0 548.5 L 782.0 542.5 L 737.0 534.5 Q 733.0 533.5 718.0 532.5 C 688.0 530.5 686.0 515.5 716.0 511.5 L 758.0 506.5 Q 772.0 506.5 794.0 510.5 L 847.0 518.5 Z" fill="lightgray"></path>
      </clipPath>
      <path clip-path="url(#make-me-a-hanzi-clip-17)" d="M 724.0 516.5 L 729.0 521.5 L 825.0 531.5 L 904.0 549.5 L 954.0 549.5 " fill="none" id="make-me-a-hanzi-animation-17" stroke-dasharray="363 726" stroke-linecap="round"></path>

      <clipPath id="make-me-a-hanzi-clip-18">
      <path d="M 853.0 391.5 L 880.0 397.5 L 940.0 406.5 Q 952.0 406.5 952.0 415.5 Q 951.0 421.5 941.0 427.5 Q 931.0 432.5 919.0 434.5 Q 890.0 443.5 858.0 432.5 L 804.0 416.5 L 769.0 409.5 Q 755.0 406.5 739.0 404.5 L 724.0 403.5 Q 714.0 403.5 711.0 402.5 C 683.0 399.5 684.0 398.5 710.0 384.5 L 723.0 377.5 Q 740.0 368.5 804.0 380.5 L 853.0 391.5 Z" fill="lightgray"></path>
      </clipPath>
      <path clip-path="url(#make-me-a-hanzi-clip-18)" d="M 718.0 397.5 L 723.0 390.5 L 758.0 389.5 L 884.0 418.5 L 943.0 414.5 " fill="none" id="make-me-a-hanzi-animation-18" stroke-dasharray="360 720" stroke-linecap="round"></path>

      <clipPath id="make-me-a-hanzi-clip-19">
      <path d="M 850.0 272.5 L 940.0 288.5 Q 950.0 289.5 950.0 296.5 Q 950.0 302.5 942.0 305.5 Q 939.0 309.5 919.0 312.5 Q 907.0 316.5 898.0 316.5 L 882.0 316.5 Q 869.0 314.5 851.0 310.5 L 805.0 300.5 L 711.0 284.5 C 681.0 279.5 683.0 274.5 711.0 264.5 L 725.0 259.5 Q 741.0 249.5 769.0 257.5 Q 797.0 264.5 805.0 264.5 L 850.0 272.5 Z" fill="lightgray"></path>
      </clipPath>
      <path clip-path="url(#make-me-a-hanzi-clip-19)" d="M 720.0 279.5 L 725.0 273.5 L 745.0 271.5 L 878.0 297.5 L 941.0 296.5 " fill="none" id="make-me-a-hanzi-animation-19" stroke-dasharray="354 708" stroke-linecap="round"></path>

      <clipPath id="make-me-a-hanzi-clip-20">
      <path d="M 846.0 172.5 L 850.0 272.5 L 851.0 310.5 L 853.0 391.5 L 858.0 432.5 L 858.0 466.5 L 867.0 500.5 Q 867.0 504.5 847.0 518.5 C 823.0 536.5 785.0 539.5 794.0 510.5 L 800.0 490.5 Q 801.0 486.5 804.0 416.5 L 804.0 380.5 L 805.0 300.5 L 805.0 264.5 L 805.0 164.5 C 805.0 134.5 845.0 142.5 846.0 172.5 Z" fill="lightgray"></path>
      </clipPath>
      <path clip-path="url(#make-me-a-hanzi-clip-20)" d="M 801.0 507.5 L 831.0 485.5 L 827.0 194.5 L 811.0 171.5 " fill="none" id="make-me-a-hanzi-animation-20" stroke-dasharray="484 968" stroke-linecap="round"></path>

      <clipPath id="make-me-a-hanzi-clip-21">
      <path d="M 728.0 114.5 L 739.0 117.5 Q 744.0 119.5 778.0 126.5 L 836.0 134.5 Q 932.0 144.5 953.0 144.5 L 984.0 144.5 Q 994.0 144.5 996.0 150.5 Q 998.0 158.5 990.0 165.5 Q 983.0 171.5 968.0 176.5 Q 950.0 185.5 929.0 185.5 L 911.0 183.5 Q 906.0 183.5 898.0 181.5 L 846.0 172.5 L 805.0 164.5 L 746.0 155.5 Q 743.0 155.5 707.0 148.5 C 678.0 142.5 674.0 132.5 702.0 121.5 Q 725.0 111.5 728.0 114.5 Z" fill="lightgray"></path>
      </clipPath>
      <path clip-path="url(#make-me-a-hanzi-clip-21)" d="M 714.0 126.5 L 756.0 140.5 L 895.0 161.5 L 941.0 164.5 L 987.0 153.5 " fill="none" id="make-me-a-hanzi-animation-21" stroke-dasharray="406 812" stroke-linecap="round"></path>

</g>
</svg>
