<svg version="1.1" viewBox="0 0 1024 1024" xmlns="http://www.w3.org/2000/svg">
  <g stroke="lightgray" stroke-dasharray="1,1" stroke-width="1" transform="scale(4, 4)">
    <line x1="0" y1="0" x2="256" y2="256"></line>
    <line x1="256" y1="0" x2="0" y2="256"></line>
    <line x1="128" y1="0" x2="128" y2="256"></line>
    <line x1="0" y1="128" x2="256" y2="128"></line>
  </g>
  <g transform="scale(0.92, -0.92) translate(60, -850)">
    <style type="text/css">
      
        @keyframes keyframes0 {
          from {
            stroke: blue;
            stroke-dashoffset: 686;
            stroke-width: 128;
          }
          69% {
            animation-timing-function: step-end;
            stroke: blue;
            stroke-dashoffset: 0;
            stroke-width: 128;
          }
          to {
            stroke: black;
            stroke-width: 1024;
          }
        }
        #make-me-a-hanzi-animation-0 {
          animation: keyframes0 0.8082682291666666s both;
          animation-delay: 0s;
          animation-timing-function: linear;
        }
      
        @keyframes keyframes1 {
          from {
            stroke: blue;
            stroke-dashoffset: 954;
            stroke-width: 128;
          }
          76% {
            animation-timing-function: step-end;
            stroke: blue;
            stroke-dashoffset: 0;
            stroke-width: 128;
          }
          to {
            stroke: black;
            stroke-width: 1024;
          }
        }
        #make-me-a-hanzi-animation-1 {
          animation: keyframes1 1.0263671875s both;
          animation-delay: 0.8082682291666666s;
          animation-timing-function: linear;
        }
      
        @keyframes keyframes2 {
          from {
            stroke: blue;
            stroke-dashoffset: 804;
            stroke-width: 128;
          }
          72% {
            animation-timing-function: step-end;
            stroke: blue;
            stroke-dashoffset: 0;
            stroke-width: 128;
          }
          to {
            stroke: black;
            stroke-width: 1024;
          }
        }
        #make-me-a-hanzi-animation-2 {
          animation: keyframes2 0.904296875s both;
          animation-delay: 1.8346354166666665s;
          animation-timing-function: linear;
        }
      
        @keyframes keyframes3 {
          from {
            stroke: blue;
            stroke-dashoffset: 403;
            stroke-width: 128;
          }
          57% {
            animation-timing-function: step-end;
            stroke: blue;
            stroke-dashoffset: 0;
            stroke-width: 128;
          }
          to {
            stroke: black;
            stroke-width: 1024;
          }
        }
        #make-me-a-hanzi-animation-3 {
          animation: keyframes3 0.5779622395833334s both;
          animation-delay: 2.7389322916666665s;
          animation-timing-function: linear;
        }
      
        @keyframes keyframes4 {
          from {
            stroke: blue;
            stroke-dashoffset: 416;
            stroke-width: 128;
          }
          58% {
            animation-timing-function: step-end;
            stroke: blue;
            stroke-dashoffset: 0;
            stroke-width: 128;
          }
          to {
            stroke: black;
            stroke-width: 1024;
          }
        }
        #make-me-a-hanzi-animation-4 {
          animation: keyframes4 0.5885416666666666s both;
          animation-delay: 3.31689453125s;
          animation-timing-function: linear;
        }
      
        @keyframes keyframes5 {
          from {
            stroke: blue;
            stroke-dashoffset: 621;
            stroke-width: 128;
          }
          67% {
            animation-timing-function: step-end;
            stroke: blue;
            stroke-dashoffset: 0;
            stroke-width: 128;
          }
          to {
            stroke: black;
            stroke-width: 1024;
          }
        }
        #make-me-a-hanzi-animation-5 {
          animation: keyframes5 0.75537109375s both;
          animation-delay: 3.9054361979166665s;
          animation-timing-function: linear;
        }
      
        @keyframes keyframes6 {
          from {
            stroke: blue;
            stroke-dashoffset: 885;
            stroke-width: 128;
          }
          74% {
            animation-timing-function: step-end;
            stroke: blue;
            stroke-dashoffset: 0;
            stroke-width: 128;
          }
          to {
            stroke: black;
            stroke-width: 1024;
          }
        }
        #make-me-a-hanzi-animation-6 {
          animation: keyframes6 0.97021484375s both;
          animation-delay: 4.660807291666666s;
          animation-timing-function: linear;
        }
      
        @keyframes keyframes7 {
          from {
            stroke: blue;
            stroke-dashoffset: 473;
            stroke-width: 128;
          }
          61% {
            animation-timing-function: step-end;
            stroke: blue;
            stroke-dashoffset: 0;
            stroke-width: 128;
          }
          to {
            stroke: black;
            stroke-width: 1024;
          }
        }
        #make-me-a-hanzi-animation-7 {
          animation: keyframes7 0.6349283854166666s both;
          animation-delay: 5.631022135416666s;
          animation-timing-function: linear;
        }
      
        @keyframes keyframes8 {
          from {
            stroke: blue;
            stroke-dashoffset: 455;
            stroke-width: 128;
          }
          60% {
            animation-timing-function: step-end;
            stroke: blue;
            stroke-dashoffset: 0;
            stroke-width: 128;
          }
          to {
            stroke: black;
            stroke-width: 1024;
          }
        }
        #make-me-a-hanzi-animation-8 {
          animation: keyframes8 0.6202799479166666s both;
          animation-delay: 6.265950520833333s;
          animation-timing-function: linear;
        }
      
    </style>
    
      <path d="M 482 571 L 621 589 Q 683 599 692 605 Q 698 611 698 617 Q 698 620 697 622 Q 689 635 662 644 Q 647 648 632 648 Q 616 648 600 643 Q 547 628 495 619 L 435 609 Q 360 598 276 595 L 270 595 Q 253 595 253 588 Q 253 583 264 573 Q 279 560 301 556 Q 316 552 335 552 Q 348 552 362 554 Q 391 560 419 563 L 482 571 Z" fill="lightgray"></path>
    
      <path d="M 495 619 Q 498 624 499 628 Q 514 667 532 701 Q 537 708 537 714 Q 537 718 534 722 Q 526 734 495 750 Q 476 761 466 761 Q 464 761 462 760 Q 450 756 450 743 L 450 741 Q 451 727 451 712 Q 451 661 435 609 L 419 563 Q 398 516 371 470 Q 345 430 317 396 L 299 374 Q 293 366 287 359 Q 235 302 114 205 Q 108 200 108 196 Q 108 193 113 192 L 117 192 Q 124 192 133 196 Q 219 236 291 296 Q 362 356 407 428 Q 439 480 467 550 L 495 619 Z" fill="lightgray"></path>
    
      <path d="M 467 550 Q 576 420 712 285 Q 734 265 765 265 L 768 265 Q 887 275 923 282 Q 935 285 935 291 Q 934 301 918 304 Q 848 322 791 340 Q 775 346 745 359 Q 718 373 696 388 L 637 434 L 621 448 L 482 571 L 467 550 Z" fill="lightgray"></path>
    
      <path d="M 317 396 Q 316 404 315 413 Q 309 430 302 436 Q 291 446 273 455 Q 244 471 195 481 L 191 481 Q 183 481 181 476 L 181 474 Q 181 469 191 460 Q 257 395 290 377 Q 295 374 299 374 C 320 369 320 369 317 396 Z" fill="lightgray"></path>
    
      <path d="M 637 434 Q 719 477 758 492 Q 773 496 773 504 L 773 505 Q 768 522 753 540 Q 736 560 717 563 L 714 563 Q 701 563 701 547 Q 701 532 692 520 Q 666 490 621 448 C 599 427 610 420 637 434 Z" fill="lightgray"></path>
    
      <path d="M 368 278 Q 346 292 324 298 Q 321 299 319 299 Q 314 299 311 295 Q 310 293 310 290 Q 310 285 314 277 Q 321 263 324 248 Q 327 235 327 214 Q 328 165 328 130 L 328 98 Q 324 58 312 19 Q 308 4 308 -9 Q 308 -16 309 -23 Q 319 -56 328 -66 Q 334 -72 339 -72 Q 345 -72 349 -66 Q 356 -56 360 -41 L 369 -4 Q 373 16 373 40 Q 374 70 374 100 L 375 133 Q 379 227 383 249 L 383 250 C 385 268 385 268 368 278 Z" fill="lightgray"></path>
    
      <path d="M 649 211 Q 650 241 665 262 Q 670 269 670 274 Q 670 280 665 284 Q 646 305 598 329 Q 591 332 584 332 Q 575 332 565 328 Q 521 306 452 293 Q 396 281 368 278 C 338 274 353 247 383 250 Q 397 251 418 254 L 547 280 Q 555 282 562 282 Q 574 282 582 276 Q 590 268 593 210 Q 594 183 594 150 L 593 116 Q 592 100 592 82 Q 589 38 588 20 Q 584 2 574 2 L 569 2 C 543 -13 539 -16 549 -28 Q 569 -50 590 -86 Q 601 -103 611 -103 Q 629 -102 644 -69 Q 660 -35 660 4 L 660 16 Q 653 85 649 211 Z" fill="lightgray"></path>
    
      <path d="M 374 100 L 387 100 Q 506 112 593 116 C 623 117 621 137 594 150 Q 585 155 573 158 Q 562 160 548 160 Q 528 160 501 155 Q 432 142 375 133 C 345 128 344 100 374 100 Z" fill="lightgray"></path>
    
      <path d="M 360 -41 L 362 -41 Q 423 -29 549 -28 C 579 -28 591 -18 569 2 Q 563 8 557 11 Q 547 18 530 18 Q 522 18 511 16 Q 432 2 369 -4 C 339 -7 330 -45 360 -41 Z" fill="lightgray"></path>
    
    
      <clipPath id="make-me-a-hanzi-clip-0">
        <path d="M 482 571 L 621 589 Q 683 599 692 605 Q 698 611 698 617 Q 698 620 697 622 Q 689 635 662 644 Q 647 648 632 648 Q 616 648 600 643 Q 547 628 495 619 L 435 609 Q 360 598 276 595 L 270 595 Q 253 595 253 588 Q 253 583 264 573 Q 279 560 301 556 Q 316 552 335 552 Q 348 552 362 554 Q 391 560 419 563 L 482 571 Z"></path>
      </clipPath>
      <path clip-path="url(#make-me-a-hanzi-clip-0)" d="M 259 587 L 299 576 L 341 575 L 620 618 L 684 617" fill="none" id="make-me-a-hanzi-animation-0" stroke-dasharray="558 1116" stroke-linecap="round"></path>
    
      <clipPath id="make-me-a-hanzi-clip-1">
        <path d="M 495 619 Q 498 624 499 628 Q 514 667 532 701 Q 537 708 537 714 Q 537 718 534 722 Q 526 734 495 750 Q 476 761 466 761 Q 464 761 462 760 Q 450 756 450 743 L 450 741 Q 451 727 451 712 Q 451 661 435 609 L 419 563 Q 398 516 371 470 Q 345 430 317 396 L 299 374 Q 293 366 287 359 Q 235 302 114 205 Q 108 200 108 196 Q 108 193 113 192 L 117 192 Q 124 192 133 196 Q 219 236 291 296 Q 362 356 407 428 Q 439 480 467 550 L 495 619 Z"></path>
      </clipPath>
      <path clip-path="url(#make-me-a-hanzi-clip-1)" d="M 466 744 L 486 716 L 489 700 L 442 551 L 388 447 L 346 388 L 271 308 L 200 251 L 114 198" fill="none" id="make-me-a-hanzi-animation-1" stroke-dasharray="826 1652" stroke-linecap="round"></path>
    
      <clipPath id="make-me-a-hanzi-clip-2">
        <path d="M 467 550 Q 576 420 712 285 Q 734 265 765 265 L 768 265 Q 887 275 923 282 Q 935 285 935 291 Q 934 301 918 304 Q 848 322 791 340 Q 775 346 745 359 Q 718 373 696 388 L 637 434 L 621 448 L 482 571 L 467 550 Z"></path>
      </clipPath>
      <path clip-path="url(#make-me-a-hanzi-clip-2)" d="M 484 562 L 484 550 L 611 423 L 743 314 L 776 303 L 926 291" fill="none" id="make-me-a-hanzi-animation-2" stroke-dasharray="676 1352" stroke-linecap="round"></path>
    
      <clipPath id="make-me-a-hanzi-clip-3">
        <path d="M 317 396 Q 316 404 315 413 Q 309 430 302 436 Q 291 446 273 455 Q 244 471 195 481 L 191 481 Q 183 481 181 476 L 181 474 Q 181 469 191 460 Q 257 395 290 377 Q 295 374 299 374 C 320 369 320 369 317 396 Z"></path>
      </clipPath>
      <path clip-path="url(#make-me-a-hanzi-clip-3)" d="M 188 475 L 280 418 L 293 403 L 297 384" fill="none" id="make-me-a-hanzi-animation-3" stroke-dasharray="275 550" stroke-linecap="round"></path>
    
      <clipPath id="make-me-a-hanzi-clip-4">
        <path d="M 637 434 Q 719 477 758 492 Q 773 496 773 504 L 773 505 Q 768 522 753 540 Q 736 560 717 563 L 714 563 Q 701 563 701 547 Q 701 532 692 520 Q 666 490 621 448 C 599 427 610 420 637 434 Z"></path>
      </clipPath>
      <path clip-path="url(#make-me-a-hanzi-clip-4)" d="M 714 550 L 729 516 L 641 448 L 630 451" fill="none" id="make-me-a-hanzi-animation-4" stroke-dasharray="288 576" stroke-linecap="round"></path>
    
      <clipPath id="make-me-a-hanzi-clip-5">
        <path d="M 368 278 Q 346 292 324 298 Q 321 299 319 299 Q 314 299 311 295 Q 310 293 310 290 Q 310 285 314 277 Q 321 263 324 248 Q 327 235 327 214 Q 328 165 328 130 L 328 98 Q 324 58 312 19 Q 308 4 308 -9 Q 308 -16 309 -23 Q 319 -56 328 -66 Q 334 -72 339 -72 Q 345 -72 349 -66 Q 356 -56 360 -41 L 369 -4 Q 373 16 373 40 Q 374 70 374 100 L 375 133 Q 379 227 383 249 L 383 250 C 385 268 385 268 368 278 Z"></path>
      </clipPath>
      <path clip-path="url(#make-me-a-hanzi-clip-5)" d="M 318 291 L 349 259 L 354 241 L 350 78 L 336 -25 L 339 -60" fill="none" id="make-me-a-hanzi-animation-5" stroke-dasharray="493 986" stroke-linecap="round"></path>
    
      <clipPath id="make-me-a-hanzi-clip-6">
        <path d="M 649 211 Q 650 241 665 262 Q 670 269 670 274 Q 670 280 665 284 Q 646 305 598 329 Q 591 332 584 332 Q 575 332 565 328 Q 521 306 452 293 Q 396 281 368 278 C 338 274 353 247 383 250 Q 397 251 418 254 L 547 280 Q 555 282 562 282 Q 574 282 582 276 Q 590 268 593 210 Q 594 183 594 150 L 593 116 Q 592 100 592 82 Q 589 38 588 20 Q 584 2 574 2 L 569 2 C 543 -13 539 -16 549 -28 Q 569 -50 590 -86 Q 601 -103 611 -103 Q 629 -102 644 -69 Q 660 -35 660 4 L 660 16 Q 653 85 649 211 Z"></path>
      </clipPath>
      <path clip-path="url(#make-me-a-hanzi-clip-6)" d="M 374 272 L 391 266 L 422 270 L 577 306 L 606 293 L 623 273 L 624 10 L 609 -31 L 612 -87" fill="none" id="make-me-a-hanzi-animation-6" stroke-dasharray="757 1514" stroke-linecap="round"></path>
    
      <clipPath id="make-me-a-hanzi-clip-7">
        <path d="M 374 100 L 387 100 Q 506 112 593 116 C 623 117 621 137 594 150 Q 585 155 573 158 Q 562 160 548 160 Q 528 160 501 155 Q 432 142 375 133 C 345 128 344 100 374 100 Z"></path>
      </clipPath>
      <path clip-path="url(#make-me-a-hanzi-clip-7)" d="M 381 105 L 400 120 L 512 134 L 571 136 L 586 122" fill="none" id="make-me-a-hanzi-animation-7" stroke-dasharray="345 690" stroke-linecap="round"></path>
    
      <clipPath id="make-me-a-hanzi-clip-8">
        <path d="M 360 -41 L 362 -41 Q 423 -29 549 -28 C 579 -28 591 -18 569 2 Q 563 8 557 11 Q 547 18 530 18 Q 522 18 511 16 Q 432 2 369 -4 C 339 -7 330 -45 360 -41 Z"></path>
      </clipPath>
      <path clip-path="url(#make-me-a-hanzi-clip-8)" d="M 366 -35 L 392 -18 L 559 1" fill="none" id="make-me-a-hanzi-animation-8" stroke-dasharray="327 654" stroke-linecap="round"></path>
    
  </g>
</svg>