<svg version="1.1" viewBox="0 0 1024 1024" xmlns="http://www.w3.org/2000/svg">
  <g stroke="lightgray" stroke-dasharray="1,1" stroke-width="1" transform="scale(4, 4)">
    <line x1="0" y1="0" x2="256" y2="256"></line>
    <line x1="256" y1="0" x2="0" y2="256"></line>
    <line x1="128" y1="0" x2="128" y2="256"></line>
    <line x1="0" y1="128" x2="256" y2="128"></line>
  </g>
<g transform="scale(1, -1) translate(0, -900)">
   <style type="text/css">
    @keyframes keyframes0 {
      from {
       stroke: blue;
       stroke-dashoffset: 537;
       stroke-width: 128;
       }
       64% {
       animation-timing-function: step-end;
       stroke: blue;
       stroke-dashoffset: 0;
       stroke-width: 128;
       }
       to {
       stroke: black;
       stroke-width: 1024;
       }
       }
       #make-me-a-hanzi-animation-0 {
         animation: keyframes0 0.687012s both;
         animation-delay: 0.000000s;
         animation-timing-function: linear;
       }
    @keyframes keyframes1 {
      from {
       stroke: blue;
       stroke-dashoffset: 836;
       stroke-width: 128;
       }
       73% {
       animation-timing-function: step-end;
       stroke: blue;
       stroke-dashoffset: 0;
       stroke-width: 128;
       }
       to {
       stroke: black;
       stroke-width: 1024;
       }
       }
       #make-me-a-hanzi-animation-1 {
         animation: keyframes1 0.930339s both;
         animation-delay: 0.687012s;
         animation-timing-function: linear;
       }
    @keyframes keyframes2 {
      from {
       stroke: blue;
       stroke-dashoffset: 449;
       stroke-width: 128;
       }
       59% {
       animation-timing-function: step-end;
       stroke: blue;
       stroke-dashoffset: 0;
       stroke-width: 128;
       }
       to {
       stroke: black;
       stroke-width: 1024;
       }
       }
       #make-me-a-hanzi-animation-2 {
         animation: keyframes2 0.615397s both;
         animation-delay: 1.617350s;
         animation-timing-function: linear;
       }
    @keyframes keyframes3 {
      from {
       stroke: blue;
       stroke-dashoffset: 463;
       stroke-width: 128;
       }
       60% {
       animation-timing-function: step-end;
       stroke: blue;
       stroke-dashoffset: 0;
       stroke-width: 128;
       }
       to {
       stroke: black;
       stroke-width: 1024;
       }
       }
       #make-me-a-hanzi-animation-3 {
         animation: keyframes3 0.626790s both;
         animation-delay: 2.232747s;
         animation-timing-function: linear;
       }
    @keyframes keyframes4 {
      from {
       stroke: blue;
       stroke-dashoffset: 403;
       stroke-width: 128;
       }
       57% {
       animation-timing-function: step-end;
       stroke: blue;
       stroke-dashoffset: 0;
       stroke-width: 128;
       }
       to {
       stroke: black;
       stroke-width: 1024;
       }
       }
       #make-me-a-hanzi-animation-4 {
         animation: keyframes4 0.577962s both;
         animation-delay: 2.859538s;
         animation-timing-function: linear;
       }
    @keyframes keyframes5 {
      from {
       stroke: blue;
       stroke-dashoffset: 656;
       stroke-width: 128;
       }
       68% {
       animation-timing-function: step-end;
       stroke: blue;
       stroke-dashoffset: 0;
       stroke-width: 128;
       }
       to {
       stroke: black;
       stroke-width: 1024;
       }
       }
       #make-me-a-hanzi-animation-5 {
         animation: keyframes5 0.783854s both;
         animation-delay: 3.437500s;
         animation-timing-function: linear;
       }
    @keyframes keyframes6 {
      from {
       stroke: blue;
       stroke-dashoffset: 711;
       stroke-width: 128;
       }
       70% {
       animation-timing-function: step-end;
       stroke: blue;
       stroke-dashoffset: 0;
       stroke-width: 128;
       }
       to {
       stroke: black;
       stroke-width: 1024;
       }
       }
       #make-me-a-hanzi-animation-6 {
         animation: keyframes6 0.828613s both;
         animation-delay: 4.221354s;
         animation-timing-function: linear;
       }
    @keyframes keyframes7 {
      from {
       stroke: blue;
       stroke-dashoffset: 845;
       stroke-width: 128;
       }
       73% {
       animation-timing-function: step-end;
       stroke: blue;
       stroke-dashoffset: 0;
       stroke-width: 128;
       }
       to {
       stroke: black;
       stroke-width: 1024;
       }
       }
       #make-me-a-hanzi-animation-7 {
         animation: keyframes7 0.937663s both;
         animation-delay: 5.049967s;
         animation-timing-function: linear;
       }
    @keyframes keyframes8 {
      from {
       stroke: blue;
       stroke-dashoffset: 773;
       stroke-width: 128;
       }
       72% {
       animation-timing-function: step-end;
       stroke: blue;
       stroke-dashoffset: 0;
       stroke-width: 128;
       }
       to {
       stroke: black;
       stroke-width: 1024;
       }
       }
       #make-me-a-hanzi-animation-8 {
         animation: keyframes8 0.879069s both;
         animation-delay: 5.987630s;
         animation-timing-function: linear;
       }
</style>
<path d="M 356.5 789.5 Q 344.5 793.5 319.5 799.5 Q 306.5 803.5 303.5 797.5 Q 296.5 791.5 305.5 775.5 Q 336.5 702.5 352.5 585.5 Q 355.5 551.5 374.5 526.5 Q 392.5 504.5 397.5 519.5 Q 400.5 529.5 401.5 543.5 L 401.5 568.5 Q 400.5 581.5 398.5 596.5 Q 394.5 620.5 390.5 640.5 L 385.5 667.5 Q 375.5 728.5 373.5 754.5 C 370.5 784.5 370.5 785.5 356.5 789.5 Z" fill="lightgray"></path> 
<path d="M 608.5 564.5 Q 609.5 560.5 611.5 555.5 Q 617.5 537.5 630.5 539.5 Q 645.5 540.5 653.5 556.5 Q 666.5 574.5 693.5 662.5 Q 711.5 717.5 750.5 747.5 Q 771.5 763.5 754.5 781.5 Q 735.5 799.5 683.5 828.5 Q 671.5 837.5 592.5 823.5 Q 555.5 823.5 439.5 802.5 Q 393.5 795.5 356.5 789.5 C 326.5 784.5 344.5 746.5 373.5 754.5 Q 372.5 755.5 375.5 755.5 Q 445.5 774.5 607.5 789.5 Q 635.5 790.5 645.5 785.5 Q 655.5 778.5 650.5 744.5 Q 620.5 597.5 611.5 587.5 C 605.5 572.5 605.5 572.5 608.5 564.5 Z" fill="lightgray"></path> 
<path d="M 390.5 640.5 Q 396.5 640.5 404.5 641.5 Q 503.5 659.5 576.5 670.5 Q 600.5 674.5 591.5 686.5 Q 581.5 701.5 555.5 705.5 Q 531.5 708.5 385.5 667.5 C 356.5 659.5 360.5 639.5 390.5 640.5 Z" fill="lightgray"></path> 
<path d="M 401.5 543.5 Q 407.5 542.5 420.5 543.5 Q 526.5 556.5 604.5 564.5 Q 605.5 565.5 608.5 564.5 C 638.5 565.5 637.5 572.5 611.5 587.5 Q 577.5 612.5 424.5 573.5 Q 412.5 572.5 401.5 568.5 C 372.5 559.5 371.5 545.5 401.5 543.5 Z" fill="lightgray"></path> 
<path d="M 268.5 384.5 Q 344.5 418.5 385.5 430.5 Q 401.5 431.5 400.5 441.5 Q 397.5 456.5 384.5 476.5 Q 371.5 495.5 352.5 501.5 Q 339.5 504.5 336.5 487.5 Q 333.5 466.5 250.5 400.5 C 227.5 381.5 241.5 372.5 268.5 384.5 Z" fill="lightgray"></path> 
<path d="M 402.5 291.5 Q 347.5 266.5 294.5 242.5 Q 275.5 233.5 266.5 240.5 Q 262.5 241.5 262.5 253.5 Q 266.5 305.5 267.5 332.5 Q 266.5 351.5 269.5 368.5 Q 270.5 378.5 268.5 384.5 C 268.5 388.5 268.5 388.5 250.5 400.5 Q 234.5 412.5 218.5 418.5 Q 202.5 425.5 192.5 419.5 Q 182.5 412.5 195.5 394.5 Q 237.5 334.5 204.5 228.5 Q 197.5 212.5 184.5 192.5 Q 171.5 173.5 180.5 161.5 Q 189.5 148.5 213.5 137.5 Q 229.5 130.5 242.5 146.5 Q 269.5 191.5 398.5 258.5 Q 398.5 259.5 401.5 259.5 C 428.5 272.5 429.5 303.5 402.5 291.5 Z" fill="lightgray"></path> 
<path d="M 401.5 259.5 Q 394.5 126.5 267.5 19.5 Q 261.5 15.5 256.5 9.5 Q 244.5 -0.5 256.5 -1.5 Q 304.5 -1.5 370.5 62.5 Q 443.5 137.5 455.5 245.5 Q 462.5 317.5 475.5 341.5 Q 482.5 359.5 466.5 367.5 Q 418.5 398.5 394.5 388.5 Q 381.5 384.5 388.5 369.5 Q 401.5 351.5 402.5 291.5 L 401.5 259.5 Z" fill="lightgray"></path> 
<path d="M 611.5 406.5 Q 612.5 407.5 616.5 408.5 Q 692.5 429.5 746.5 437.5 Q 758.5 438.5 760.5 435.5 Q 770.5 422.5 765.5 386.5 Q 758.5 287.5 736.5 243.5 Q 721.5 216.5 698.5 219.5 Q 670.5 232.5 644.5 245.5 Q 622.5 255.5 636.5 231.5 Q 682.5 182.5 703.5 143.5 Q 722.5 124.5 738.5 140.5 Q 789.5 179.5 811.5 292.5 Q 826.5 416.5 842.5 437.5 Q 852.5 450.5 847.5 459.5 Q 838.5 469.5 791.5 488.5 Q 772.5 495.5 755.5 483.5 Q 725.5 465.5 596.5 441.5 C 567.5 435.5 582.5 397.5 611.5 406.5 Z" fill="lightgray"></path> 
<path d="M 597.5 5.5 Q 604.5 62.5 602.5 117.5 Q 596.5 301.5 611.5 406.5 C 614.5 430.5 614.5 430.5 596.5 441.5 Q 569.5 459.5 557.5 460.5 Q 545.5 464.5 530.5 456.5 Q 521.5 449.5 528.5 439.5 Q 546.5 409.5 547.5 383.5 Q 551.5 278.5 549.5 114.5 Q 549.5 -30.5 564.5 -54.5 Q 570.5 -61.5 577.5 -59.5 Q 590.5 -50.5 597.5 5.5 Z" fill="lightgray"></path> 
      <clipPath id="make-me-a-hanzi-clip-0">
      <path d="M 356.5 789.5 Q 344.5 793.5 319.5 799.5 Q 306.5 803.5 303.5 797.5 Q 296.5 791.5 305.5 775.5 Q 336.5 702.5 352.5 585.5 Q 355.5 551.5 374.5 526.5 Q 392.5 504.5 397.5 519.5 Q 400.5 529.5 401.5 543.5 L 401.5 568.5 Q 400.5 581.5 398.5 596.5 Q 394.5 620.5 390.5 640.5 L 385.5 667.5 Q 375.5 728.5 373.5 754.5 C 370.5 784.5 370.5 785.5 356.5 789.5 Z" fill="lightgray"></path>
      </clipPath>
      <path clip-path="url(#make-me-a-hanzi-clip-0)" d="M 312.5 789.5 L 337.5 767.5 L 346.5 747.5 L 386.5 525.5 " fill="none" id="make-me-a-hanzi-animation-0" stroke-dasharray="409 818" stroke-linecap="round"></path>

      <clipPath id="make-me-a-hanzi-clip-1">
      <path d="M 608.5 564.5 Q 609.5 560.5 611.5 555.5 Q 617.5 537.5 630.5 539.5 Q 645.5 540.5 653.5 556.5 Q 666.5 574.5 693.5 662.5 Q 711.5 717.5 750.5 747.5 Q 771.5 763.5 754.5 781.5 Q 735.5 799.5 683.5 828.5 Q 671.5 837.5 592.5 823.5 Q 555.5 823.5 439.5 802.5 Q 393.5 795.5 356.5 789.5 C 326.5 784.5 344.5 746.5 373.5 754.5 Q 372.5 755.5 375.5 755.5 Q 445.5 774.5 607.5 789.5 Q 635.5 790.5 645.5 785.5 Q 655.5 778.5 650.5 744.5 Q 620.5 597.5 611.5 587.5 C 605.5 572.5 605.5 572.5 608.5 564.5 Z" fill="lightgray"></path>
      </clipPath>
      <path clip-path="url(#make-me-a-hanzi-clip-1)" d="M 363.5 785.5 L 382.5 775.5 L 474.5 793.5 L 607.5 809.5 L 648.5 809.5 L 676.5 797.5 L 699.5 764.5 L 681.5 724.5 L 629.5 557.5 " fill="none" id="make-me-a-hanzi-animation-1" stroke-dasharray="708 1416" stroke-linecap="round"></path>

      <clipPath id="make-me-a-hanzi-clip-2">
      <path d="M 390.5 640.5 Q 396.5 640.5 404.5 641.5 Q 503.5 659.5 576.5 670.5 Q 600.5 674.5 591.5 686.5 Q 581.5 701.5 555.5 705.5 Q 531.5 708.5 385.5 667.5 C 356.5 659.5 360.5 639.5 390.5 640.5 Z" fill="lightgray"></path>
      </clipPath>
      <path clip-path="url(#make-me-a-hanzi-clip-2)" d="M 396.5 648.5 L 404.5 658.5 L 504.5 679.5 L 547.5 686.5 L 581.5 680.5 " fill="none" id="make-me-a-hanzi-animation-2" stroke-dasharray="321 642" stroke-linecap="round"></path>

      <clipPath id="make-me-a-hanzi-clip-3">
      <path d="M 401.5 543.5 Q 407.5 542.5 420.5 543.5 Q 526.5 556.5 604.5 564.5 Q 605.5 565.5 608.5 564.5 C 638.5 565.5 637.5 572.5 611.5 587.5 Q 577.5 612.5 424.5 573.5 Q 412.5 572.5 401.5 568.5 C 372.5 559.5 371.5 545.5 401.5 543.5 Z" fill="lightgray"></path>
      </clipPath>
      <path clip-path="url(#make-me-a-hanzi-clip-3)" d="M 405.5 549.5 L 439.5 563.5 L 524.5 575.5 L 588.5 579.5 L 606.5 570.5 " fill="none" id="make-me-a-hanzi-animation-3" stroke-dasharray="335 670" stroke-linecap="round"></path>

      <clipPath id="make-me-a-hanzi-clip-4">
      <path d="M 268.5 384.5 Q 344.5 418.5 385.5 430.5 Q 401.5 431.5 400.5 441.5 Q 397.5 456.5 384.5 476.5 Q 371.5 495.5 352.5 501.5 Q 339.5 504.5 336.5 487.5 Q 333.5 466.5 250.5 400.5 C 227.5 381.5 241.5 372.5 268.5 384.5 Z" fill="lightgray"></path>
      </clipPath>
      <path clip-path="url(#make-me-a-hanzi-clip-4)" d="M 388.5 441.5 L 358.5 456.5 L 273.5 400.5 L 262.5 405.5 " fill="none" id="make-me-a-hanzi-animation-4" stroke-dasharray="275 550" stroke-linecap="round"></path>

      <clipPath id="make-me-a-hanzi-clip-5">
      <path d="M 402.5 291.5 Q 347.5 266.5 294.5 242.5 Q 275.5 233.5 266.5 240.5 Q 262.5 241.5 262.5 253.5 Q 266.5 305.5 267.5 332.5 Q 266.5 351.5 269.5 368.5 Q 270.5 378.5 268.5 384.5 C 268.5 388.5 268.5 388.5 250.5 400.5 Q 234.5 412.5 218.5 418.5 Q 202.5 425.5 192.5 419.5 Q 182.5 412.5 195.5 394.5 Q 237.5 334.5 204.5 228.5 Q 197.5 212.5 184.5 192.5 Q 171.5 173.5 180.5 161.5 Q 189.5 148.5 213.5 137.5 Q 229.5 130.5 242.5 146.5 Q 269.5 191.5 398.5 258.5 Q 398.5 259.5 401.5 259.5 C 428.5 272.5 429.5 303.5 402.5 291.5 Z" fill="lightgray"></path>
      </clipPath>
      <path clip-path="url(#make-me-a-hanzi-clip-5)" d="M 200.5 410.5 L 223.5 391.5 L 240.5 366.5 L 240.5 207.5 L 282.5 214.5 L 383.5 264.5 L 396.5 286.5 " fill="none" id="make-me-a-hanzi-animation-5" stroke-dasharray="528 1056" stroke-linecap="round"></path>

      <clipPath id="make-me-a-hanzi-clip-6">
      <path d="M 401.5 259.5 Q 394.5 126.5 267.5 19.5 Q 261.5 15.5 256.5 9.5 Q 244.5 -0.5 256.5 -1.5 Q 304.5 -1.5 370.5 62.5 Q 443.5 137.5 455.5 245.5 Q 462.5 317.5 475.5 341.5 Q 482.5 359.5 466.5 367.5 Q 418.5 398.5 394.5 388.5 Q 381.5 384.5 388.5 369.5 Q 401.5 351.5 402.5 291.5 L 401.5 259.5 Z" fill="lightgray"></path>
      </clipPath>
      <path clip-path="url(#make-me-a-hanzi-clip-6)" d="M 397.5 377.5 L 419.5 362.5 L 435.5 340.5 L 425.5 225.5 L 410.5 169.5 L 385.5 118.5 L 349.5 70.5 L 291.5 20.5 L 261.5 4.5 " fill="none" id="make-me-a-hanzi-animation-6" stroke-dasharray="583 1166" stroke-linecap="round"></path>

      <clipPath id="make-me-a-hanzi-clip-7">
      <path d="M 611.5 406.5 Q 612.5 407.5 616.5 408.5 Q 692.5 429.5 746.5 437.5 Q 758.5 438.5 760.5 435.5 Q 770.5 422.5 765.5 386.5 Q 758.5 287.5 736.5 243.5 Q 721.5 216.5 698.5 219.5 Q 670.5 232.5 644.5 245.5 Q 622.5 255.5 636.5 231.5 Q 682.5 182.5 703.5 143.5 Q 722.5 124.5 738.5 140.5 Q 789.5 179.5 811.5 292.5 Q 826.5 416.5 842.5 437.5 Q 852.5 450.5 847.5 459.5 Q 838.5 469.5 791.5 488.5 Q 772.5 495.5 755.5 483.5 Q 725.5 465.5 596.5 441.5 C 567.5 435.5 582.5 397.5 611.5 406.5 Z" fill="lightgray"></path>
      </clipPath>
      <path clip-path="url(#make-me-a-hanzi-clip-7)" d="M 608.5 439.5 L 622.5 427.5 L 774.5 461.5 L 800.5 442.5 L 786.5 307.5 L 772.5 253.5 L 746.5 201.5 L 725.5 183.5 L 692.5 197.5 L 637.5 240.5 " fill="none" id="make-me-a-hanzi-animation-7" stroke-dasharray="717 1434" stroke-linecap="round"></path>

      <clipPath id="make-me-a-hanzi-clip-8">
      <path d="M 597.5 5.5 Q 604.5 62.5 602.5 117.5 Q 596.5 301.5 611.5 406.5 C 614.5 430.5 614.5 430.5 596.5 441.5 Q 569.5 459.5 557.5 460.5 Q 545.5 464.5 530.5 456.5 Q 521.5 449.5 528.5 439.5 Q 546.5 409.5 547.5 383.5 Q 551.5 278.5 549.5 114.5 Q 549.5 -30.5 564.5 -54.5 Q 570.5 -61.5 577.5 -59.5 Q 590.5 -50.5 597.5 5.5 Z" fill="lightgray"></path>
      </clipPath>
      <path clip-path="url(#make-me-a-hanzi-clip-8)" d="M 536.5 447.5 L 562.5 431.5 L 578.5 402.5 L 573.5 -50.5 " fill="none" id="make-me-a-hanzi-animation-8" stroke-dasharray="645 1290" stroke-linecap="round"></path>

</g>
</svg>
