<svg version="1.1" viewBox="0 0 1024 1024" xmlns="http://www.w3.org/2000/svg">
  <g stroke="lightgray" stroke-dasharray="1,1" stroke-width="1" transform="scale(4, 4)">
    <line x1="0" y1="0" x2="256" y2="256"></line>
    <line x1="256" y1="0" x2="0" y2="256"></line>
    <line x1="128" y1="0" x2="128" y2="256"></line>
    <line x1="0" y1="128" x2="256" y2="128"></line>
  </g>
<g transform="scale(0.92, -0.92) translate(60, -900)">
   <style type="text/css">
    @keyframes keyframes0 {
      from {
       stroke: blue;
       stroke-dashoffset: 477;
       stroke-width: 128;
       }
       61% {
       animation-timing-function: step-end;
       stroke: blue;
       stroke-dashoffset: 0;
       stroke-width: 128;
       }
       to {
       stroke: black;
       stroke-width: 1024;
       }
       }
       #make-me-a-hanzi-animation-0 {
         animation: keyframes0 0.638184s both;
         animation-delay: 0.000000s;
         animation-timing-function: linear;
       }
    @keyframes keyframes1 {
      from {
       stroke: blue;
       stroke-dashoffset: 749;
       stroke-width: 128;
       }
       71% {
       animation-timing-function: step-end;
       stroke: blue;
       stroke-dashoffset: 0;
       stroke-width: 128;
       }
       to {
       stroke: black;
       stroke-width: 1024;
       }
       }
       #make-me-a-hanzi-animation-1 {
         animation: keyframes1 0.859538s both;
         animation-delay: 0.638184s;
         animation-timing-function: linear;
       }
    @keyframes keyframes2 {
      from {
       stroke: blue;
       stroke-dashoffset: 468;
       stroke-width: 128;
       }
       60% {
       animation-timing-function: step-end;
       stroke: blue;
       stroke-dashoffset: 0;
       stroke-width: 128;
       }
       to {
       stroke: black;
       stroke-width: 1024;
       }
       }
       #make-me-a-hanzi-animation-2 {
         animation: keyframes2 0.630859s both;
         animation-delay: 1.497721s;
         animation-timing-function: linear;
       }
    @keyframes keyframes3 {
      from {
       stroke: blue;
       stroke-dashoffset: 445;
       stroke-width: 128;
       }
       59% {
       animation-timing-function: step-end;
       stroke: blue;
       stroke-dashoffset: 0;
       stroke-width: 128;
       }
       to {
       stroke: black;
       stroke-width: 1024;
       }
       }
       #make-me-a-hanzi-animation-3 {
         animation: keyframes3 0.612142s both;
         animation-delay: 2.128581s;
         animation-timing-function: linear;
       }
    @keyframes keyframes4 {
      from {
       stroke: blue;
       stroke-dashoffset: 541;
       stroke-width: 128;
       }
       64% {
       animation-timing-function: step-end;
       stroke: blue;
       stroke-dashoffset: 0;
       stroke-width: 128;
       }
       to {
       stroke: black;
       stroke-width: 1024;
       }
       }
       #make-me-a-hanzi-animation-4 {
         animation: keyframes4 0.690267s both;
         animation-delay: 2.740723s;
         animation-timing-function: linear;
       }
    @keyframes keyframes5 {
      from {
       stroke: blue;
       stroke-dashoffset: 551;
       stroke-width: 128;
       }
       64% {
       animation-timing-function: step-end;
       stroke: blue;
       stroke-dashoffset: 0;
       stroke-width: 128;
       }
       to {
       stroke: black;
       stroke-width: 1024;
       }
       }
       #make-me-a-hanzi-animation-5 {
         animation: keyframes5 0.698405s both;
         animation-delay: 3.430990s;
         animation-timing-function: linear;
       }
    @keyframes keyframes6 {
      from {
       stroke: blue;
       stroke-dashoffset: 335;
       stroke-width: 128;
       }
       52% {
       animation-timing-function: step-end;
       stroke: blue;
       stroke-dashoffset: 0;
       stroke-width: 128;
       }
       to {
       stroke: black;
       stroke-width: 1024;
       }
       }
       #make-me-a-hanzi-animation-6 {
         animation: keyframes6 0.522624s both;
         animation-delay: 4.129395s;
         animation-timing-function: linear;
       }
    @keyframes keyframes7 {
      from {
       stroke: blue;
       stroke-dashoffset: 616;
       stroke-width: 128;
       }
       67% {
       animation-timing-function: step-end;
       stroke: blue;
       stroke-dashoffset: 0;
       stroke-width: 128;
       }
       to {
       stroke: black;
       stroke-width: 1024;
       }
       }
       #make-me-a-hanzi-animation-7 {
         animation: keyframes7 0.751302s both;
         animation-delay: 4.652018s;
         animation-timing-function: linear;
       }
    @keyframes keyframes8 {
      from {
       stroke: blue;
       stroke-dashoffset: 574;
       stroke-width: 128;
       }
       65% {
       animation-timing-function: step-end;
       stroke: blue;
       stroke-dashoffset: 0;
       stroke-width: 128;
       }
       to {
       stroke: black;
       stroke-width: 1024;
       }
       }
       #make-me-a-hanzi-animation-8 {
         animation: keyframes8 0.717122s both;
         animation-delay: 5.403320s;
         animation-timing-function: linear;
       }
    @keyframes keyframes9 {
      from {
       stroke: blue;
       stroke-dashoffset: 588;
       stroke-width: 128;
       }
       66% {
       animation-timing-function: step-end;
       stroke: blue;
       stroke-dashoffset: 0;
       stroke-width: 128;
       }
       to {
       stroke: black;
       stroke-width: 1024;
       }
       }
       #make-me-a-hanzi-animation-9 {
         animation: keyframes9 0.728516s both;
         animation-delay: 6.120443s;
         animation-timing-function: linear;
       }
    @keyframes keyframes10 {
      from {
       stroke: blue;
       stroke-dashoffset: 525;
       stroke-width: 128;
       }
       63% {
       animation-timing-function: step-end;
       stroke: blue;
       stroke-dashoffset: 0;
       stroke-width: 128;
       }
       to {
       stroke: black;
       stroke-width: 1024;
       }
       }
       #make-me-a-hanzi-animation-10 {
         animation: keyframes10 0.677246s both;
         animation-delay: 6.848958s;
         animation-timing-function: linear;
       }
    @keyframes keyframes11 {
      from {
       stroke: blue;
       stroke-dashoffset: 662;
       stroke-width: 128;
       }
       68% {
       animation-timing-function: step-end;
       stroke: blue;
       stroke-dashoffset: 0;
       stroke-width: 128;
       }
       to {
       stroke: black;
       stroke-width: 1024;
       }
       }
       #make-me-a-hanzi-animation-11 {
         animation: keyframes11 0.788737s both;
         animation-delay: 7.526204s;
         animation-timing-function: linear;
       }
    @keyframes keyframes12 {
      from {
       stroke: blue;
       stroke-dashoffset: 401;
       stroke-width: 128;
       }
       57% {
       animation-timing-function: step-end;
       stroke: blue;
       stroke-dashoffset: 0;
       stroke-width: 128;
       }
       to {
       stroke: black;
       stroke-width: 1024;
       }
       }
       #make-me-a-hanzi-animation-12 {
         animation: keyframes12 0.576335s both;
         animation-delay: 8.314941s;
         animation-timing-function: linear;
       }
    @keyframes keyframes13 {
      from {
       stroke: blue;
       stroke-dashoffset: 627;
       stroke-width: 128;
       }
       67% {
       animation-timing-function: step-end;
       stroke: blue;
       stroke-dashoffset: 0;
       stroke-width: 128;
       }
       to {
       stroke: black;
       stroke-width: 1024;
       }
       }
       #make-me-a-hanzi-animation-13 {
         animation: keyframes13 0.760254s both;
         animation-delay: 8.891276s;
         animation-timing-function: linear;
       }
    @keyframes keyframes14 {
      from {
       stroke: blue;
       stroke-dashoffset: 432;
       stroke-width: 128;
       }
       58% {
       animation-timing-function: step-end;
       stroke: blue;
       stroke-dashoffset: 0;
       stroke-width: 128;
       }
       to {
       stroke: black;
       stroke-width: 1024;
       }
       }
       #make-me-a-hanzi-animation-14 {
         animation: keyframes14 0.601562s both;
         animation-delay: 9.651530s;
         animation-timing-function: linear;
       }
    @keyframes keyframes15 {
      from {
       stroke: blue;
       stroke-dashoffset: 1170;
       stroke-width: 128;
       }
       79% {
       animation-timing-function: step-end;
       stroke: blue;
       stroke-dashoffset: 0;
       stroke-width: 128;
       }
       to {
       stroke: black;
       stroke-width: 1024;
       }
       }
       #make-me-a-hanzi-animation-15 {
         animation: keyframes15 1.202148s both;
         animation-delay: 10.253092s;
         animation-timing-function: linear;
       }
</style>
<path d="M 459.5 755.5 L 435.5 764.5 Q 418.5 769.5 406.5 768.5 Q 380.5 765.5 401.5 744.5 Q 412.5 733.5 412.5 730.5 Q 413.5 726.5 419.5 712.5 Q 426.5 697.5 429.5 678.5 L 442.5 595.5 Q 445.5 565.5 454.5 554.5 Q 464.5 543.5 473.5 545.5 Q 482.5 547.5 484.5 559.5 L 486.5 572.5 L 486.5 598.5 L 480.5 648.5 L 476.5 676.5 L 467.5 732.5 C 464.5 753.5 464.5 753.5 459.5 755.5 Z" fill="lightgray"></path> 
<path d="M 670.5 585.5 L 679.5 568.5 Q 685.5 558.5 695.5 557.5 Q 705.5 555.5 716.5 567.5 Q 728.5 579.5 734.5 596.5 L 763.5 688.5 Q 772.5 715.5 775.5 721.5 L 792.5 745.5 Q 801.5 755.5 802.5 761.5 Q 803.5 766.5 788.5 779.5 Q 774.5 791.5 757.5 797.5 Q 740.5 802.5 730.5 807.5 Q 709.5 813.5 704.5 813.5 Q 700.5 813.5 683.5 806.5 L 652.5 794.5 Q 545.5 759.5 459.5 755.5 C 429.5 753.5 437.5 735.5 467.5 732.5 L 490.5 730.5 Q 504.5 727.5 579.5 745.5 L 635.5 758.5 Q 673.5 767.5 684.5 767.5 Q 696.5 766.5 702.5 761.5 Q 709.5 755.5 706.5 724.5 L 701.5 694.5 L 699.5 678.5 L 682.5 616.5 C 674.5 587.5 668.5 589.5 670.5 585.5 Z" fill="lightgray"></path> 
<path d="M 701.5 694.5 L 675.5 704.5 Q 666.5 708.5 648.5 708.5 L 566.5 690.5 Q 549.5 686.5 531.5 684.5 L 476.5 676.5 C 446.5 672.5 450.5 648.5 480.5 648.5 L 499.5 648.5 L 550.5 654.5 Q 590.5 658.5 593.5 659.5 L 640.5 666.5 Q 678.5 670.5 699.5 678.5 C 722.5 686.5 722.5 686.5 701.5 694.5 Z" fill="lightgray"></path> 
<path d="M 486.5 572.5 L 497.5 568.5 Q 502.5 566.5 522.5 568.5 L 577.5 576.5 Q 608.5 576.5 670.5 585.5 C 700.5 589.5 710.5 606.5 682.5 616.5 L 665.5 622.5 Q 658.5 624.5 639.5 622.5 L 575.5 610.5 L 486.5 598.5 C 456.5 594.5 458.5 582.5 486.5 572.5 Z" fill="lightgray"></path> 
<path d="M 471.5 441.5 L 495.5 471.5 L 505.5 478.5 Q 511.5 484.5 512.5 487.5 Q 519.5 501.5 481.5 523.5 Q 466.5 532.5 454.5 532.5 Q 442.5 532.5 442.5 521.5 Q 442.5 510.5 433.5 479.5 L 419.5 450.5 Q 410.5 431.5 399.5 418.5 Q 389.5 404.5 350.5 359.5 Q 328.5 337.5 325.5 335.5 L 304.5 316.5 Q 294.5 309.5 299.5 302.5 Q 300.5 296.5 314.5 304.5 L 333.5 314.5 Q 349.5 321.5 365.5 333.5 L 392.5 354.5 L 417.5 377.5 L 442.5 406.5 L 455.5 422.5 L 471.5 441.5 Z" fill="lightgray"></path> 
<path d="M 441.5 98.5 L 449.5 124.5 Q 450.5 127.5 453.5 152.5 L 453.5 174.5 L 455.5 248.5 L 454.5 271.5 L 458.5 337.5 L 462.5 360.5 L 459.5 374.5 Q 458.5 385.5 442.5 406.5 C 424.5 430.5 413.5 407.5 417.5 377.5 L 421.5 348.5 Q 424.5 319.5 418.5 270.5 Q 413.5 220.5 405.5 197.5 Q 398.5 173.5 397.5 154.5 Q 397.5 135.5 409.5 107.5 C 420.5 79.5 432.5 69.5 441.5 98.5 Z" fill="lightgray"></path> 
<path d="M 663.5 482.5 L 666.5 502.5 Q 667.5 507.5 662.5 516.5 Q 657.5 525.5 649.5 529.5 Q 642.5 532.5 624.5 537.5 L 597.5 544.5 Q 589.5 546.5 585.5 542.5 Q 581.5 534.5 586.5 528.5 Q 592.5 522.5 604.5 506.5 Q 616.5 489.5 631.5 472.5 C 651.5 449.5 659.5 452.5 663.5 482.5 Z" fill="lightgray"></path> 
<path d="M 661.5 449.5 L 811.5 468.5 Q 820.5 468.5 824.5 478.5 Q 824.5 485.5 811.5 491.5 Q 798.5 496.5 789.5 497.5 L 762.5 501.5 Q 755.5 502.5 717.5 494.5 L 663.5 482.5 L 631.5 472.5 L 523.5 451.5 Q 520.5 452.5 471.5 441.5 C 442.5 434.5 426.5 429.5 455.5 422.5 L 477.5 417.5 Q 490.5 412.5 548.5 425.5 L 599.5 437.5 L 661.5 449.5 Z" fill="lightgray"></path> 
<path d="M 670.5 350.5 L 773.5 366.5 Q 775.5 366.5 782.5 369.5 Q 789.5 371.5 789.5 377.5 Q 789.5 382.5 785.5 387.5 Q 781.5 392.5 760.5 395.5 Q 740.5 398.5 730.5 398.5 Q 720.5 398.5 706.5 394.5 Q 693.5 389.5 672.5 385.5 L 615.5 377.5 L 499.5 362.5 Q 479.5 360.5 462.5 360.5 C 432.5 359.5 430.5 347.5 458.5 337.5 L 475.5 331.5 Q 484.5 327.5 505.5 328.5 Q 527.5 329.5 545.5 333.5 L 614.5 342.5 L 670.5 350.5 Z" fill="lightgray"></path> 
<path d="M 664.5 259.5 L 782.5 274.5 Q 787.5 273.5 796.5 282.5 Q 799.5 292.5 783.5 299.5 Q 767.5 306.5 752.5 307.5 Q 738.5 308.5 735.5 307.5 L 713.5 305.5 L 665.5 298.5 L 614.5 289.5 L 513.5 276.5 L 489.5 274.5 Q 464.5 272.5 454.5 271.5 C 424.5 268.5 426.5 255.5 455.5 248.5 L 472.5 244.5 Q 488.5 238.5 528.5 242.5 L 614.5 253.5 L 664.5 259.5 Z" fill="lightgray"></path> 
<path d="M 657.5 193.5 L 664.5 259.5 L 665.5 298.5 L 670.5 350.5 L 672.5 385.5 L 677.5 406.5 Q 682.5 423.5 680.5 428.5 Q 679.5 432.5 675.5 438.5 Q 666.5 446.5 661.5 449.5 C 637.5 467.5 579.5 459.5 599.5 437.5 L 608.5 427.5 Q 613.5 422.5 614.5 408.5 L 615.5 377.5 L 614.5 342.5 L 614.5 289.5 L 614.5 253.5 L 614.5 189.5 C 614.5 159.5 654.5 163.5 657.5 193.5 Z" fill="lightgray"></path> 
<path d="M 453.5 152.5 L 463.5 146.5 Q 471.5 140.5 495.5 144.5 L 622.5 157.5 L 851.5 168.5 Q 871.5 168.5 871.5 182.5 Q 871.5 189.5 862.5 193.5 L 841.5 202.5 Q 829.5 206.5 814.5 209.5 Q 800.5 212.5 757.5 207.5 L 657.5 193.5 L 614.5 189.5 L 499.5 178.5 Q 465.5 174.5 453.5 174.5 C 423.5 173.5 427.5 168.5 453.5 152.5 Z" fill="lightgray"></path> 
<path d="M 154.5 722.5 L 194.5 673.5 Q 211.5 652.5 217.5 648.5 Q 227.5 637.5 241.5 630.5 Q 266.5 617.5 281.5 636.5 Q 287.5 642.5 289.5 660.5 Q 288.5 693.5 266.5 709.5 Q 258.5 716.5 238.5 723.5 L 188.5 740.5 Q 177.5 743.5 162.5 745.5 Q 148.5 746.5 145.5 745.5 Q 143.5 743.5 144.5 736.5 Q 146.5 729.5 154.5 722.5 Z" fill="lightgray"></path> 
<path d="M 194.5 302.5 Q 191.5 309.5 211.5 326.5 L 255.5 373.5 L 322.5 434.5 Q 326.5 438.5 329.5 443.5 Q 333.5 447.5 326.5 457.5 Q 320.5 466.5 311.5 472.5 L 286.5 487.5 Q 271.5 497.5 253.5 497.5 Q 248.5 496.5 230.5 487.5 Q 208.5 474.5 160.5 460.5 Q 112.5 446.5 93.5 442.5 L 79.5 440.5 Q 72.5 438.5 69.5 434.5 Q 67.5 428.5 68.5 425.5 Q 69.5 422.5 81.5 417.5 Q 93.5 412.5 121.5 413.5 Q 149.5 413.5 187.5 421.5 Q 225.5 429.5 229.5 423.5 Q 233.5 417.5 228.5 411.5 Q 224.5 405.5 223.5 401.5 L 194.5 354.5 L 169.5 323.5 Q 159.5 310.5 161.5 299.5 C 158.5 269.5 184.5 274.5 194.5 302.5 Z" fill="lightgray"></path> 
<path d="M 216.5 140.5 L 230.5 160.5 Q 243.5 180.5 243.5 209.5 Q 243.5 256.5 209.5 284.5 Q 196.5 298.5 194.5 302.5 C 177.5 327.5 153.5 328.5 161.5 299.5 Q 163.5 288.5 175.5 272.5 Q 188.5 255.5 193.5 227.5 Q 199.5 199.5 199.5 183.5 Q 200.5 166.5 194.5 139.5 C 188.5 110.5 199.5 115.5 216.5 140.5 Z" fill="lightgray"></path> 
<path d="M 942.5 54.5 L 875.5 55.5 L 727.5 60.5 Q 644.5 65.5 599.5 71.5 Q 554.5 77.5 441.5 98.5 L 409.5 107.5 L 367.5 121.5 Q 312.5 142.5 270.5 142.5 L 216.5 140.5 L 194.5 139.5 L 117.5 136.5 L 74.5 139.5 Q 59.5 138.5 57.5 134.5 Q 56.5 130.5 61.5 119.5 Q 66.5 108.5 80.5 96.5 Q 94.5 84.5 108.5 82.5 Q 122.5 80.5 154.5 92.5 Q 186.5 104.5 230.5 104.5 Q 274.5 104.5 297.5 99.5 Q 321.5 93.5 349.5 82.5 L 438.5 53.5 Q 481.5 40.5 555.5 13.5 L 661.5 -23.5 Q 694.5 -37.5 721.5 -35.5 Q 749.5 -34.5 782.5 -23.5 Q 800.5 -21.5 839.5 -7.5 L 924.5 21.5 L 956.5 35.5 Q 967.5 39.5 965.5 47.5 Q 964.5 54.5 942.5 54.5 Z" fill="lightgray"></path> 
      <clipPath id="make-me-a-hanzi-clip-0">
      <path d="M 459.5 755.5 L 435.5 764.5 Q 418.5 769.5 406.5 768.5 Q 380.5 765.5 401.5 744.5 Q 412.5 733.5 412.5 730.5 Q 413.5 726.5 419.5 712.5 Q 426.5 697.5 429.5 678.5 L 442.5 595.5 Q 445.5 565.5 454.5 554.5 Q 464.5 543.5 473.5 545.5 Q 482.5 547.5 484.5 559.5 L 486.5 572.5 L 486.5 598.5 L 480.5 648.5 L 476.5 676.5 L 467.5 732.5 C 464.5 753.5 464.5 753.5 459.5 755.5 Z" fill="lightgray"></path>
      </clipPath>
      <path clip-path="url(#make-me-a-hanzi-clip-0)" d="M 403.5 756.5 L 433.5 741.5 L 441.5 728.5 L 470.5 558.5 " fill="none" id="make-me-a-hanzi-animation-0" stroke-dasharray="349 698" stroke-linecap="round"></path>

      <clipPath id="make-me-a-hanzi-clip-1">
      <path d="M 670.5 585.5 L 679.5 568.5 Q 685.5 558.5 695.5 557.5 Q 705.5 555.5 716.5 567.5 Q 728.5 579.5 734.5 596.5 L 763.5 688.5 Q 772.5 715.5 775.5 721.5 L 792.5 745.5 Q 801.5 755.5 802.5 761.5 Q 803.5 766.5 788.5 779.5 Q 774.5 791.5 757.5 797.5 Q 740.5 802.5 730.5 807.5 Q 709.5 813.5 704.5 813.5 Q 700.5 813.5 683.5 806.5 L 652.5 794.5 Q 545.5 759.5 459.5 755.5 C 429.5 753.5 437.5 735.5 467.5 732.5 L 490.5 730.5 Q 504.5 727.5 579.5 745.5 L 635.5 758.5 Q 673.5 767.5 684.5 767.5 Q 696.5 766.5 702.5 761.5 Q 709.5 755.5 706.5 724.5 L 701.5 694.5 L 699.5 678.5 L 682.5 616.5 C 674.5 587.5 668.5 589.5 670.5 585.5 Z" fill="lightgray"></path>
      </clipPath>
      <path clip-path="url(#make-me-a-hanzi-clip-1)" d="M 466.5 751.5 L 476.5 743.5 L 543.5 749.5 L 685.5 787.5 L 705.5 788.5 L 725.5 779.5 L 747.5 750.5 L 710.5 611.5 L 699.5 587.5 L 682.5 586.5 " fill="none" id="make-me-a-hanzi-animation-1" stroke-dasharray="621 1242" stroke-linecap="round"></path>

      <clipPath id="make-me-a-hanzi-clip-2">
      <path d="M 701.5 694.5 L 675.5 704.5 Q 666.5 708.5 648.5 708.5 L 566.5 690.5 Q 549.5 686.5 531.5 684.5 L 476.5 676.5 C 446.5 672.5 450.5 648.5 480.5 648.5 L 499.5 648.5 L 550.5 654.5 Q 590.5 658.5 593.5 659.5 L 640.5 666.5 Q 678.5 670.5 699.5 678.5 C 722.5 686.5 722.5 686.5 701.5 694.5 Z" fill="lightgray"></path>
      </clipPath>
      <path clip-path="url(#make-me-a-hanzi-clip-2)" d="M 484.5 670.5 L 493.5 663.5 L 504.5 664.5 L 692.5 691.5 " fill="none" id="make-me-a-hanzi-animation-2" stroke-dasharray="340 680" stroke-linecap="round"></path>

      <clipPath id="make-me-a-hanzi-clip-3">
      <path d="M 486.5 572.5 L 497.5 568.5 Q 502.5 566.5 522.5 568.5 L 577.5 576.5 Q 608.5 576.5 670.5 585.5 C 700.5 589.5 710.5 606.5 682.5 616.5 L 665.5 622.5 Q 658.5 624.5 639.5 622.5 L 575.5 610.5 L 486.5 598.5 C 456.5 594.5 458.5 582.5 486.5 572.5 Z" fill="lightgray"></path>
      </clipPath>
      <path clip-path="url(#make-me-a-hanzi-clip-3)" d="M 494.5 592.5 L 502.5 584.5 L 525.5 586.5 L 655.5 602.5 L 676.5 612.5 " fill="none" id="make-me-a-hanzi-animation-3" stroke-dasharray="317 634" stroke-linecap="round"></path>

      <clipPath id="make-me-a-hanzi-clip-4">
      <path d="M 471.5 441.5 L 495.5 471.5 L 505.5 478.5 Q 511.5 484.5 512.5 487.5 Q 519.5 501.5 481.5 523.5 Q 466.5 532.5 454.5 532.5 Q 442.5 532.5 442.5 521.5 Q 442.5 510.5 433.5 479.5 L 419.5 450.5 Q 410.5 431.5 399.5 418.5 Q 389.5 404.5 350.5 359.5 Q 328.5 337.5 325.5 335.5 L 304.5 316.5 Q 294.5 309.5 299.5 302.5 Q 300.5 296.5 314.5 304.5 L 333.5 314.5 Q 349.5 321.5 365.5 333.5 L 392.5 354.5 L 417.5 377.5 L 442.5 406.5 L 455.5 422.5 L 471.5 441.5 Z" fill="lightgray"></path>
      </clipPath>
      <path clip-path="url(#make-me-a-hanzi-clip-4)" d="M 452.5 522.5 L 470.5 492.5 L 423.5 414.5 L 361.5 348.5 L 306.5 307.5 " fill="none" id="make-me-a-hanzi-animation-4" stroke-dasharray="413 826" stroke-linecap="round"></path>

      <clipPath id="make-me-a-hanzi-clip-5">
      <path d="M 441.5 98.5 L 449.5 124.5 Q 450.5 127.5 453.5 152.5 L 453.5 174.5 L 455.5 248.5 L 454.5 271.5 L 458.5 337.5 L 462.5 360.5 L 459.5 374.5 Q 458.5 385.5 442.5 406.5 C 424.5 430.5 413.5 407.5 417.5 377.5 L 421.5 348.5 Q 424.5 319.5 418.5 270.5 Q 413.5 220.5 405.5 197.5 Q 398.5 173.5 397.5 154.5 Q 397.5 135.5 409.5 107.5 C 420.5 79.5 432.5 69.5 441.5 98.5 Z" fill="lightgray"></path>
      </clipPath>
      <path clip-path="url(#make-me-a-hanzi-clip-5)" d="M 443.5 397.5 L 425.5 158.5 L 429.5 118.5 L 438.5 106.5 " fill="none" id="make-me-a-hanzi-animation-5" stroke-dasharray="423 846" stroke-linecap="round"></path>

      <clipPath id="make-me-a-hanzi-clip-6">
      <path d="M 663.5 482.5 L 666.5 502.5 Q 667.5 507.5 662.5 516.5 Q 657.5 525.5 649.5 529.5 Q 642.5 532.5 624.5 537.5 L 597.5 544.5 Q 589.5 546.5 585.5 542.5 Q 581.5 534.5 586.5 528.5 Q 592.5 522.5 604.5 506.5 Q 616.5 489.5 631.5 472.5 C 651.5 449.5 659.5 452.5 663.5 482.5 Z" fill="lightgray"></path>
      </clipPath>
      <path clip-path="url(#make-me-a-hanzi-clip-6)" d="M 592.5 535.5 L 655.5 488.5 " fill="none" id="make-me-a-hanzi-animation-6" stroke-dasharray="207 414" stroke-linecap="round"></path>

      <clipPath id="make-me-a-hanzi-clip-7">
      <path d="M 661.5 449.5 L 811.5 468.5 Q 820.5 468.5 824.5 478.5 Q 824.5 485.5 811.5 491.5 Q 798.5 496.5 789.5 497.5 L 762.5 501.5 Q 755.5 502.5 717.5 494.5 L 663.5 482.5 L 631.5 472.5 L 523.5 451.5 Q 520.5 452.5 471.5 441.5 C 442.5 434.5 426.5 429.5 455.5 422.5 L 477.5 417.5 Q 490.5 412.5 548.5 425.5 L 599.5 437.5 L 661.5 449.5 Z" fill="lightgray"></path>
      </clipPath>
      <path clip-path="url(#make-me-a-hanzi-clip-7)" d="M 461.5 425.5 L 731.5 479.5 L 816.5 478.5 " fill="none" id="make-me-a-hanzi-animation-7" stroke-dasharray="488 976" stroke-linecap="round"></path>

      <clipPath id="make-me-a-hanzi-clip-8">
      <path d="M 670.5 350.5 L 773.5 366.5 Q 775.5 366.5 782.5 369.5 Q 789.5 371.5 789.5 377.5 Q 789.5 382.5 785.5 387.5 Q 781.5 392.5 760.5 395.5 Q 740.5 398.5 730.5 398.5 Q 720.5 398.5 706.5 394.5 Q 693.5 389.5 672.5 385.5 L 615.5 377.5 L 499.5 362.5 Q 479.5 360.5 462.5 360.5 C 432.5 359.5 430.5 347.5 458.5 337.5 L 475.5 331.5 Q 484.5 327.5 505.5 328.5 Q 527.5 329.5 545.5 333.5 L 614.5 342.5 L 670.5 350.5 Z" fill="lightgray"></path>
      </clipPath>
      <path clip-path="url(#make-me-a-hanzi-clip-8)" d="M 464.5 342.5 L 619.5 359.5 L 726.5 379.5 L 779.5 379.5 " fill="none" id="make-me-a-hanzi-animation-8" stroke-dasharray="446 892" stroke-linecap="round"></path>

      <clipPath id="make-me-a-hanzi-clip-9">
      <path d="M 664.5 259.5 L 782.5 274.5 Q 787.5 273.5 796.5 282.5 Q 799.5 292.5 783.5 299.5 Q 767.5 306.5 752.5 307.5 Q 738.5 308.5 735.5 307.5 L 713.5 305.5 L 665.5 298.5 L 614.5 289.5 L 513.5 276.5 L 489.5 274.5 Q 464.5 272.5 454.5 271.5 C 424.5 268.5 426.5 255.5 455.5 248.5 L 472.5 244.5 Q 488.5 238.5 528.5 242.5 L 614.5 253.5 L 664.5 259.5 Z" fill="lightgray"></path>
      </clipPath>
      <path clip-path="url(#make-me-a-hanzi-clip-9)" d="M 459.5 265.5 L 469.5 259.5 L 502.5 257.5 L 746.5 289.5 L 787.5 285.5 " fill="none" id="make-me-a-hanzi-animation-9" stroke-dasharray="460 920" stroke-linecap="round"></path>

      <clipPath id="make-me-a-hanzi-clip-10">
      <path d="M 657.5 193.5 L 664.5 259.5 L 665.5 298.5 L 670.5 350.5 L 672.5 385.5 L 677.5 406.5 Q 682.5 423.5 680.5 428.5 Q 679.5 432.5 675.5 438.5 Q 666.5 446.5 661.5 449.5 C 637.5 467.5 579.5 459.5 599.5 437.5 L 608.5 427.5 Q 613.5 422.5 614.5 408.5 L 615.5 377.5 L 614.5 342.5 L 614.5 289.5 L 614.5 253.5 L 614.5 189.5 C 614.5 159.5 654.5 163.5 657.5 193.5 Z" fill="lightgray"></path>
      </clipPath>
      <path clip-path="url(#make-me-a-hanzi-clip-10)" d="M 607.5 435.5 L 646.5 414.5 L 637.5 214.5 L 621.5 195.5 " fill="none" id="make-me-a-hanzi-animation-10" stroke-dasharray="397 794" stroke-linecap="round"></path>

      <clipPath id="make-me-a-hanzi-clip-11">
      <path d="M 453.5 152.5 L 463.5 146.5 Q 471.5 140.5 495.5 144.5 L 622.5 157.5 L 851.5 168.5 Q 871.5 168.5 871.5 182.5 Q 871.5 189.5 862.5 193.5 L 841.5 202.5 Q 829.5 206.5 814.5 209.5 Q 800.5 212.5 757.5 207.5 L 657.5 193.5 L 614.5 189.5 L 499.5 178.5 Q 465.5 174.5 453.5 174.5 C 423.5 173.5 427.5 168.5 453.5 152.5 Z" fill="lightgray"></path>
      </clipPath>
      <path clip-path="url(#make-me-a-hanzi-clip-11)" d="M 458.5 169.5 L 468.5 160.5 L 486.5 159.5 L 786.5 188.5 L 859.5 181.5 " fill="none" id="make-me-a-hanzi-animation-11" stroke-dasharray="534 1068" stroke-linecap="round"></path>

      <clipPath id="make-me-a-hanzi-clip-12">
      <path d="M 154.5 722.5 L 194.5 673.5 Q 211.5 652.5 217.5 648.5 Q 227.5 637.5 241.5 630.5 Q 266.5 617.5 281.5 636.5 Q 287.5 642.5 289.5 660.5 Q 288.5 693.5 266.5 709.5 Q 258.5 716.5 238.5 723.5 L 188.5 740.5 Q 177.5 743.5 162.5 745.5 Q 148.5 746.5 145.5 745.5 Q 143.5 743.5 144.5 736.5 Q 146.5 729.5 154.5 722.5 Z" fill="lightgray"></path>
      </clipPath>
      <path clip-path="url(#make-me-a-hanzi-clip-12)" d="M 148.5 740.5 L 233.5 686.5 L 247.5 674.5 L 259.5 651.5 " fill="none" id="make-me-a-hanzi-animation-12" stroke-dasharray="273 546" stroke-linecap="round"></path>

      <clipPath id="make-me-a-hanzi-clip-13">
      <path d="M 194.5 302.5 Q 191.5 309.5 211.5 326.5 L 255.5 373.5 L 322.5 434.5 Q 326.5 438.5 329.5 443.5 Q 333.5 447.5 326.5 457.5 Q 320.5 466.5 311.5 472.5 L 286.5 487.5 Q 271.5 497.5 253.5 497.5 Q 248.5 496.5 230.5 487.5 Q 208.5 474.5 160.5 460.5 Q 112.5 446.5 93.5 442.5 L 79.5 440.5 Q 72.5 438.5 69.5 434.5 Q 67.5 428.5 68.5 425.5 Q 69.5 422.5 81.5 417.5 Q 93.5 412.5 121.5 413.5 Q 149.5 413.5 187.5 421.5 Q 225.5 429.5 229.5 423.5 Q 233.5 417.5 228.5 411.5 Q 224.5 405.5 223.5 401.5 L 194.5 354.5 L 169.5 323.5 Q 159.5 310.5 161.5 299.5 C 158.5 269.5 184.5 274.5 194.5 302.5 Z" fill="lightgray"></path>
      </clipPath>
      <path clip-path="url(#make-me-a-hanzi-clip-13)" d="M 79.5 428.5 L 149.5 435.5 L 226.5 454.5 L 254.5 455.5 L 268.5 446.5 L 246.5 395.5 L 194.5 329.5 L 166.5 304.5 " fill="none" id="make-me-a-hanzi-animation-13" stroke-dasharray="499 998" stroke-linecap="round"></path>

      <clipPath id="make-me-a-hanzi-clip-14">
      <path d="M 216.5 140.5 L 230.5 160.5 Q 243.5 180.5 243.5 209.5 Q 243.5 256.5 209.5 284.5 Q 196.5 298.5 194.5 302.5 C 177.5 327.5 153.5 328.5 161.5 299.5 Q 163.5 288.5 175.5 272.5 Q 188.5 255.5 193.5 227.5 Q 199.5 199.5 199.5 183.5 Q 200.5 166.5 194.5 139.5 C 188.5 110.5 199.5 115.5 216.5 140.5 Z" fill="lightgray"></path>
      </clipPath>
      <path clip-path="url(#make-me-a-hanzi-clip-14)" d="M 167.5 294.5 L 186.5 285.5 L 212.5 247.5 L 218.5 227.5 L 217.5 174.5 L 210.5 152.5 L 199.5 147.5 " fill="none" id="make-me-a-hanzi-animation-14" stroke-dasharray="304 608" stroke-linecap="round"></path>

      <clipPath id="make-me-a-hanzi-clip-15">
      <path d="M 942.5 54.5 L 875.5 55.5 L 727.5 60.5 Q 644.5 65.5 599.5 71.5 Q 554.5 77.5 441.5 98.5 L 409.5 107.5 L 367.5 121.5 Q 312.5 142.5 270.5 142.5 L 216.5 140.5 L 194.5 139.5 L 117.5 136.5 L 74.5 139.5 Q 59.5 138.5 57.5 134.5 Q 56.5 130.5 61.5 119.5 Q 66.5 108.5 80.5 96.5 Q 94.5 84.5 108.5 82.5 Q 122.5 80.5 154.5 92.5 Q 186.5 104.5 230.5 104.5 Q 274.5 104.5 297.5 99.5 Q 321.5 93.5 349.5 82.5 L 438.5 53.5 Q 481.5 40.5 555.5 13.5 L 661.5 -23.5 Q 694.5 -37.5 721.5 -35.5 Q 749.5 -34.5 782.5 -23.5 Q 800.5 -21.5 839.5 -7.5 L 924.5 21.5 L 956.5 35.5 Q 967.5 39.5 965.5 47.5 Q 964.5 54.5 942.5 54.5 Z" fill="lightgray"></path>
      </clipPath>
      <path clip-path="url(#make-me-a-hanzi-clip-15)" d="M 64.5 128.5 L 113.5 109.5 L 211.5 122.5 L 299.5 120.5 L 437.5 76.5 L 706.5 13.5 L 802.5 19.5 L 957.5 44.5 " fill="none" id="make-me-a-hanzi-animation-15" stroke-dasharray="1042 2084" stroke-linecap="round"></path>

</g>
</svg>
