<svg version="1.1" viewBox="0 0 1024 1024" xmlns="http://www.w3.org/2000/svg">
  <g stroke="lightgray" stroke-dasharray="1,1" stroke-width="1" transform="scale(4, 4)">
    <line x1="0" y1="0" x2="256" y2="256"></line>
    <line x1="256" y1="0" x2="0" y2="256"></line>
    <line x1="128" y1="0" x2="128" y2="256"></line>
    <line x1="0" y1="128" x2="256" y2="128"></line>
  </g>
  <g transform="scale(0.92, -0.92) translate(60, -900)">
    <style type="text/css">
      
        @keyframes keyframes0 {
          from {
            stroke: blue;
            stroke-dashoffset: 720;
            stroke-width: 128;
          }
          70% {
            animation-timing-function: step-end;
            stroke: blue;
            stroke-dashoffset: 0;
            stroke-width: 128;
          }
          to {
            stroke: black;
            stroke-width: 1024;
          }
        }
        #make-me-a-hanzi-animation-0 {
          animation: keyframes0 0.8359375s both;
          animation-delay: 0s;
          animation-timing-function: linear;
        }
      
        @keyframes keyframes1 {
          from {
            stroke: blue;
            stroke-dashoffset: 1277;
            stroke-width: 128;
          }
          81% {
            animation-timing-function: step-end;
            stroke: blue;
            stroke-dashoffset: 0;
            stroke-width: 128;
          }
          to {
            stroke: black;
            stroke-width: 1024;
          }
        }
        #make-me-a-hanzi-animation-1 {
          animation: keyframes1 1.2892252604166667s both;
          animation-delay: 0.8359375s;
          animation-timing-function: linear;
        }
      
        @keyframes keyframes2 {
          from {
            stroke: blue;
            stroke-dashoffset: 594;
            stroke-width: 128;
          }
          66% {
            animation-timing-function: step-end;
            stroke: blue;
            stroke-dashoffset: 0;
            stroke-width: 128;
          }
          to {
            stroke: black;
            stroke-width: 1024;
          }
        }
        #make-me-a-hanzi-animation-2 {
          animation: keyframes2 0.7333984375s both;
          animation-delay: 2.125162760416667s;
          animation-timing-function: linear;
        }
      
        @keyframes keyframes3 {
          from {
            stroke: blue;
            stroke-dashoffset: 621;
            stroke-width: 128;
          }
          67% {
            animation-timing-function: step-end;
            stroke: blue;
            stroke-dashoffset: 0;
            stroke-width: 128;
          }
          to {
            stroke: black;
            stroke-width: 1024;
          }
        }
        #make-me-a-hanzi-animation-3 {
          animation: keyframes3 0.75537109375s both;
          animation-delay: 2.858561197916667s;
          animation-timing-function: linear;
        }
      
    </style>
    
      <path d="M 268 42 L 272 66 L 272 106 L 267 260 L 265 289 L 261 436 C 260 466 260 471 244 476 L 222 483 Q 169 500 162 482 Q 160 477 169 459 L 184 429 Q 198 389 202 333 L 216 162 L 220 92 Q 222 44 239 28 Q 248 21 257 24 Q 266 26 268 42 Z" fill="lightgray"></path>
    
      <path d="M 583 78 L 616 -2 Q 624 -20 630 -24 L 641 -28 Q 647 -30 664 -20 Q 728 18 752 200 L 772 344 Q 781 406 803 436 Q 814 450 814 455 Q 815 460 809 471 Q 804 480 783 496 Q 740 524 726 525 Q 713 525 679 517 L 598 508 Q 557 502 496 497 L 302 479 L 244 476 C 214 474 231 433 261 436 L 369 448 Q 531 464 650 469 Q 700 471 708 458 Q 716 445 713 400 L 671 165 Q 665 139 644 101 C 631 74 572 106 583 78 Z" fill="lightgray"></path>
    
      <path d="M 351 250 L 388 252 Q 398 252 433 256 L 596 269 L 622 269 Q 627 268 654 274 Q 663 279 664 286 Q 664 303 644 314 Q 638 321 618 322 Q 599 322 592 320 L 462 305 Q 363 296 343 296 L 316 294 Q 305 292 303 289 Q 301 286 301 276 Q 301 265 322 256 Q 344 247 351 250 Z" fill="lightgray"></path>
    
      <path d="M 272 66 L 304 62 L 480 74 L 583 78 C 613 79 667 82 644 101 L 635 108 Q 630 114 613 123 Q 596 131 548 127 L 272 106 C 242 104 242 70 272 66 Z" fill="lightgray"></path>
    
    
      <clipPath id="make-me-a-hanzi-clip-0">
        <path d="M 268 42 L 272 66 L 272 106 L 267 260 L 265 289 L 261 436 C 260 466 260 471 244 476 L 222 483 Q 169 500 162 482 Q 160 477 169 459 L 184 429 Q 198 389 202 333 L 216 162 L 220 92 Q 222 44 239 28 Q 248 21 257 24 Q 266 26 268 42 Z"></path>
      </clipPath>
      <path clip-path="url(#make-me-a-hanzi-clip-0)" d="M 172 479 L 204 458 L 224 428 L 252 39" fill="none" id="make-me-a-hanzi-animation-0" stroke-dasharray="592 1184" stroke-linecap="round"></path>
    
      <clipPath id="make-me-a-hanzi-clip-1">
        <path d="M 583 78 L 616 -2 Q 624 -20 630 -24 L 641 -28 Q 647 -30 664 -20 Q 728 18 752 200 L 772 344 Q 781 406 803 436 Q 814 450 814 455 Q 815 460 809 471 Q 804 480 783 496 Q 740 524 726 525 Q 713 525 679 517 L 598 508 Q 557 502 496 497 L 302 479 L 244 476 C 214 474 231 433 261 436 L 369 448 Q 531 464 650 469 Q 700 471 708 458 Q 716 445 713 400 L 671 165 Q 665 139 644 101 C 631 74 572 106 583 78 Z"></path>
      </clipPath>
      <path clip-path="url(#make-me-a-hanzi-clip-1)" d="M 252 471 L 282 458 L 695 494 L 723 491 L 751 467 L 759 455 L 715 193 L 702 131 L 684 83 L 654 47 L 592 74" fill="none" id="make-me-a-hanzi-animation-1" stroke-dasharray="1149 2298" stroke-linecap="round"></path>
    
      <clipPath id="make-me-a-hanzi-clip-2">
        <path d="M 351 250 L 388 252 Q 398 252 433 256 L 596 269 L 622 269 Q 627 268 654 274 Q 663 279 664 286 Q 664 303 644 314 Q 638 321 618 322 Q 599 322 592 320 L 462 305 Q 363 296 343 296 L 316 294 Q 305 292 303 289 Q 301 286 301 276 Q 301 265 322 256 Q 344 247 351 250 Z"></path>
      </clipPath>
      <path clip-path="url(#make-me-a-hanzi-clip-2)" d="M 314 281 L 355 273 L 611 296 L 649 288" fill="none" id="make-me-a-hanzi-animation-2" stroke-dasharray="466 932" stroke-linecap="round"></path>
    
      <clipPath id="make-me-a-hanzi-clip-3">
        <path d="M 272 66 L 304 62 L 480 74 L 583 78 C 613 79 667 82 644 101 L 635 108 Q 630 114 613 123 Q 596 131 548 127 L 272 106 C 242 104 242 70 272 66 Z"></path>
      </clipPath>
      <path clip-path="url(#make-me-a-hanzi-clip-3)" d="M 278 73 L 293 86 L 613 107 L 637 101" fill="none" id="make-me-a-hanzi-animation-3" stroke-dasharray="493 986" stroke-linecap="round"></path>
    
  </g>
</svg>