<svg version="1.1" viewBox="0 0 1024 1024" xmlns="http://www.w3.org/2000/svg">
  <g stroke="lightgray" stroke-dasharray="1,1" stroke-width="1" transform="scale(4, 4)">
    <line x1="0" y1="0" x2="256" y2="256"></line>
    <line x1="256" y1="0" x2="0" y2="256"></line>
    <line x1="128" y1="0" x2="128" y2="256"></line>
    <line x1="0" y1="128" x2="256" y2="128"></line>
  </g>
  <g transform="scale(0.92, -0.92) translate(60, -900)">
    <style type="text/css">
      
        @keyframes keyframes0 {
          from {
            stroke: blue;
            stroke-dashoffset: 526;
            stroke-width: 128;
          }
          63% {
            animation-timing-function: step-end;
            stroke: blue;
            stroke-dashoffset: 0;
            stroke-width: 128;
          }
          to {
            stroke: black;
            stroke-width: 1024;
          }
        }
        #make-me-a-hanzi-animation-0 {
          animation: keyframes0 0.6780598958333334s both;
          animation-delay: 0s;
          animation-timing-function: linear;
        }
      
        @keyframes keyframes1 {
          from {
            stroke: blue;
            stroke-dashoffset: 863;
            stroke-width: 128;
          }
          74% {
            animation-timing-function: step-end;
            stroke: blue;
            stroke-dashoffset: 0;
            stroke-width: 128;
          }
          to {
            stroke: black;
            stroke-width: 1024;
          }
        }
        #make-me-a-hanzi-animation-1 {
          animation: keyframes1 0.9523111979166666s both;
          animation-delay: 0.6780598958333334s;
          animation-timing-function: linear;
        }
      
        @keyframes keyframes2 {
          from {
            stroke: blue;
            stroke-dashoffset: 433;
            stroke-width: 128;
          }
          58% {
            animation-timing-function: step-end;
            stroke: blue;
            stroke-dashoffset: 0;
            stroke-width: 128;
          }
          to {
            stroke: black;
            stroke-width: 1024;
          }
        }
        #make-me-a-hanzi-animation-2 {
          animation: keyframes2 0.6023763020833334s both;
          animation-delay: 1.63037109375s;
          animation-timing-function: linear;
        }
      
        @keyframes keyframes3 {
          from {
            stroke: blue;
            stroke-dashoffset: 424;
            stroke-width: 128;
          }
          58% {
            animation-timing-function: step-end;
            stroke: blue;
            stroke-dashoffset: 0;
            stroke-width: 128;
          }
          to {
            stroke: black;
            stroke-width: 1024;
          }
        }
        #make-me-a-hanzi-animation-3 {
          animation: keyframes3 0.5950520833333334s both;
          animation-delay: 2.2327473958333335s;
          animation-timing-function: linear;
        }
      
        @keyframes keyframes4 {
          from {
            stroke: blue;
            stroke-dashoffset: 1027;
            stroke-width: 128;
          }
          77% {
            animation-timing-function: step-end;
            stroke: blue;
            stroke-dashoffset: 0;
            stroke-width: 128;
          }
          to {
            stroke: black;
            stroke-width: 1024;
          }
        }
        #make-me-a-hanzi-animation-4 {
          animation: keyframes4 1.0857747395833333s both;
          animation-delay: 2.827799479166667s;
          animation-timing-function: linear;
        }
      
        @keyframes keyframes5 {
          from {
            stroke: blue;
            stroke-dashoffset: 578;
            stroke-width: 128;
          }
          65% {
            animation-timing-function: step-end;
            stroke: blue;
            stroke-dashoffset: 0;
            stroke-width: 128;
          }
          to {
            stroke: black;
            stroke-width: 1024;
          }
        }
        #make-me-a-hanzi-animation-5 {
          animation: keyframes5 0.7203776041666666s both;
          animation-delay: 3.91357421875s;
          animation-timing-function: linear;
        }
      
        @keyframes keyframes6 {
          from {
            stroke: blue;
            stroke-dashoffset: 790;
            stroke-width: 128;
          }
          72% {
            animation-timing-function: step-end;
            stroke: blue;
            stroke-dashoffset: 0;
            stroke-width: 128;
          }
          to {
            stroke: black;
            stroke-width: 1024;
          }
        }
        #make-me-a-hanzi-animation-6 {
          animation: keyframes6 0.8929036458333334s both;
          animation-delay: 4.633951822916667s;
          animation-timing-function: linear;
        }
      
        @keyframes keyframes7 {
          from {
            stroke: blue;
            stroke-dashoffset: 383;
            stroke-width: 128;
          }
          55% {
            animation-timing-function: step-end;
            stroke: blue;
            stroke-dashoffset: 0;
            stroke-width: 128;
          }
          to {
            stroke: black;
            stroke-width: 1024;
          }
        }
        #make-me-a-hanzi-animation-7 {
          animation: keyframes7 0.5616861979166666s both;
          animation-delay: 5.52685546875s;
          animation-timing-function: linear;
        }
      
        @keyframes keyframes8 {
          from {
            stroke: blue;
            stroke-dashoffset: 388;
            stroke-width: 128;
          }
          56% {
            animation-timing-function: step-end;
            stroke: blue;
            stroke-dashoffset: 0;
            stroke-width: 128;
          }
          to {
            stroke: black;
            stroke-width: 1024;
          }
        }
        #make-me-a-hanzi-animation-8 {
          animation: keyframes8 0.5657552083333334s both;
          animation-delay: 6.088541666666667s;
          animation-timing-function: linear;
        }
      
        @keyframes keyframes9 {
          from {
            stroke: blue;
            stroke-dashoffset: 581;
            stroke-width: 128;
          }
          65% {
            animation-timing-function: step-end;
            stroke: blue;
            stroke-dashoffset: 0;
            stroke-width: 128;
          }
          to {
            stroke: black;
            stroke-width: 1024;
          }
        }
        #make-me-a-hanzi-animation-9 {
          animation: keyframes9 0.7228190104166666s both;
          animation-delay: 6.654296875s;
          animation-timing-function: linear;
        }
      
        @keyframes keyframes10 {
          from {
            stroke: blue;
            stroke-dashoffset: 911;
            stroke-width: 128;
          }
          75% {
            animation-timing-function: step-end;
            stroke: blue;
            stroke-dashoffset: 0;
            stroke-width: 128;
          }
          to {
            stroke: black;
            stroke-width: 1024;
          }
        }
        #make-me-a-hanzi-animation-10 {
          animation: keyframes10 0.9913736979166666s both;
          animation-delay: 7.377115885416667s;
          animation-timing-function: linear;
        }
      
        @keyframes keyframes11 {
          from {
            stroke: blue;
            stroke-dashoffset: 817;
            stroke-width: 128;
          }
          73% {
            animation-timing-function: step-end;
            stroke: blue;
            stroke-dashoffset: 0;
            stroke-width: 128;
          }
          to {
            stroke: black;
            stroke-width: 1024;
          }
        }
        #make-me-a-hanzi-animation-11 {
          animation: keyframes11 0.9148763020833334s both;
          animation-delay: 8.368489583333334s;
          animation-timing-function: linear;
        }
      
    </style>
    
      <path d="M 354 581 L 346 692 C 344 713 344 713 326 717 L 282 726 Q 275 725 273 720 Q 269 717 270 714 Q 271 711 279 699 Q 288 691 291 672 L 300 622 L 314 498 Q 316 474 325 464 Q 334 454 340 456 Q 354 461 356 500 L 356 532 Q 354 541 354 556 L 354 581 Z" fill="lightgray"></path>
    
      <path d="M 346 692 L 425 703 Q 551 718 590 718 L 614 720 Q 642 722 641 694 Q 641 681 638 652 L 634 622 Q 628 569 617 530 Q 607 490 615 476 Q 621 453 639 464 Q 658 475 671 521 L 704 644 Q 709 667 723 686 Q 737 704 738 712 Q 739 725 704 746 L 676 760 Q 655 768 647 767 L 626 762 Q 602 755 575 750 L 500 737 L 443 729 L 326 717 C 296 714 316 688 346 692 Z" fill="lightgray"></path>
    
      <path d="M 495 642 L 459 632 L 401 621 Q 395 618 392 618 Q 391 615 397 608 Q 403 600 422 595 Q 441 589 463 594 L 565 616 L 578 620 Q 583 622 581 628 Q 579 633 576 635 L 571 637 Q 539 650 515 646 L 495 642 Z" fill="lightgray"></path>
    
      <path d="M 495 549 L 452 538 Q 434 532 416 530 Q 399 528 398 523 Q 398 518 403 511 Q 411 503 424 502 Q 438 497 445 499 Q 456 499 481 506 L 540 520 Q 574 526 578 531 Q 583 536 571 544 Q 543 561 515 552 Q 509 551 495 549 Z" fill="lightgray"></path>
    
      <path d="M 200 396 L 120 391 Q 103 390 100 385 Q 98 380 99 378 Q 98 374 107 369 L 121 360 L 140 351 Q 156 346 161 346 Q 167 346 174 347 L 216 352 L 277 360 L 397 372 L 457 378 L 694 391 Q 757 394 804 394 L 839 396 Q 879 400 881 410 Q 883 415 870 428 Q 841 455 801 457 L 630 436 L 425 417 Q 222 397 200 396 Z" fill="lightgray"></path>
    
      <path d="M 216 352 L 220 340 Q 222 331 223 321 L 225 289 L 231 37 C 232 7 273 18 273 48 L 273 134 L 275 163 L 276 237 L 276 265 L 279 294 Q 283 325 286 334 Q 290 343 277 360 C 260 385 207 380 216 352 Z" fill="lightgray"></path>
    
      <path d="M 405 54 L 404 -2 Q 404 -25 397 -60 L 392 -86 Q 389 -96 389 -105 Q 393 -121 398 -136 Q 403 -151 418 -166 Q 425 -174 439 -158 Q 450 -140 450 -56 L 450 -48 L 457 378 C 457 408 390 401 397 372 L 403 346 L 408 286 L 408 255 L 407 186 L 407 154 L 405 83 L 405 54 Z" fill="lightgray"></path>
    
      <path d="M 276 237 L 331 243 Q 390 250 408 255 C 437 262 438 282 408 286 L 386 289 Q 385 290 367 288 Q 349 286 332 282 L 276 265 C 247 256 246 234 276 237 Z" fill="lightgray"></path>
    
      <path d="M 345 142 L 381 148 Q 389 148 407 154 C 436 163 437 183 407 186 L 375 189 Q 371 192 342 182 L 275 163 C 246 155 243 131 273 134 L 325 140 Q 335 140 345 142 Z" fill="lightgray"></path>
    
      <path d="M 231 37 L 158 26 Q 145 24 119 29 Q 94 33 90 27 Q 85 11 106 -6 Q 128 -23 134 -32 Q 142 -38 157 -38 Q 171 -36 199 -21 Q 228 -6 265 6 L 405 54 C 433 64 434 91 405 83 L 273 48 L 231 37 Z" fill="lightgray"></path>
    
      <path d="M 450 -56 L 461 -56 Q 518 -46 560 -25 Q 571 -22 596 -2 L 642 38 L 674 84 L 704 138 L 741 221 Q 744 234 756 247 L 768 260 Q 775 267 775 275 Q 775 282 760 294 Q 745 306 727 312 L 706 319 Q 697 323 687 319 L 658 307 Q 631 297 595 289 L 508 268 C 479 261 512 242 542 246 L 609 255 Q 628 258 646 263 Q 665 267 672 266 Q 693 263 680 230 L 668 192 L 636 126 L 611 87 L 585 55 Q 569 36 548 16 Q 511 -15 483 -31 L 450 -48 C 431 -58 431 -58 450 -56 Z" fill="lightgray"></path>
    
      <path d="M 642 38 L 700 -35 Q 733 -79 752 -86 Q 787 -99 901 -71 L 919 -66 Q 931 -64 931 -55 Q 933 -47 923 -44 L 897 -38 Q 885 -37 825 -14 Q 777 2 730 38 L 697 63 Q 687 71 674 84 L 636 126 L 626 138 Q 623 139 600 170 L 542 246 C 524 270 523 270 508 268 L 489 265 Q 481 261 481 254 Q 479 249 494 240 Q 509 231 522 216 L 543 190 L 611 87 L 642 38 Z" fill="lightgray"></path>
    
    
      <clipPath id="make-me-a-hanzi-clip-0">
        <path d="M 354 581 L 346 692 C 344 713 344 713 326 717 L 282 726 Q 275 725 273 720 Q 269 717 270 714 Q 271 711 279 699 Q 288 691 291 672 L 300 622 L 314 498 Q 316 474 325 464 Q 334 454 340 456 Q 354 461 356 500 L 356 532 Q 354 541 354 556 L 354 581 Z"></path>
      </clipPath>
      <path clip-path="url(#make-me-a-hanzi-clip-0)" d="M 277 714 L 300 703 L 319 680 L 338 466" fill="none" id="make-me-a-hanzi-animation-0" stroke-dasharray="398 796" stroke-linecap="round"></path>
    
      <clipPath id="make-me-a-hanzi-clip-1">
        <path d="M 346 692 L 425 703 Q 551 718 590 718 L 614 720 Q 642 722 641 694 Q 641 681 638 652 L 634 622 Q 628 569 617 530 Q 607 490 615 476 Q 621 453 639 464 Q 658 475 671 521 L 704 644 Q 709 667 723 686 Q 737 704 738 712 Q 739 725 704 746 L 676 760 Q 655 768 647 767 L 626 762 Q 602 755 575 750 L 500 737 L 443 729 L 326 717 C 296 714 316 688 346 692 Z"></path>
      </clipPath>
      <path clip-path="url(#make-me-a-hanzi-clip-1)" d="M 333 716 L 353 706 L 368 707 L 637 741 L 668 727 L 684 707 L 655 567 L 629 475" fill="none" id="make-me-a-hanzi-animation-1" stroke-dasharray="735 1470" stroke-linecap="round"></path>
    
      <clipPath id="make-me-a-hanzi-clip-2">
        <path d="M 495 642 L 459 632 L 401 621 Q 395 618 392 618 Q 391 615 397 608 Q 403 600 422 595 Q 441 589 463 594 L 565 616 L 578 620 Q 583 622 581 628 Q 579 633 576 635 L 571 637 Q 539 650 515 646 L 495 642 Z"></path>
      </clipPath>
      <path clip-path="url(#make-me-a-hanzi-clip-2)" d="M 398 615 L 432 609 L 533 629 L 572 627" fill="none" id="make-me-a-hanzi-animation-2" stroke-dasharray="305 610" stroke-linecap="round"></path>
    
      <clipPath id="make-me-a-hanzi-clip-3">
        <path d="M 495 549 L 452 538 Q 434 532 416 530 Q 399 528 398 523 Q 398 518 403 511 Q 411 503 424 502 Q 438 497 445 499 Q 456 499 481 506 L 540 520 Q 574 526 578 531 Q 583 536 571 544 Q 543 561 515 552 Q 509 551 495 549 Z"></path>
      </clipPath>
      <path clip-path="url(#make-me-a-hanzi-clip-3)" d="M 406 519 L 448 517 L 536 538 L 571 536" fill="none" id="make-me-a-hanzi-animation-3" stroke-dasharray="296 592" stroke-linecap="round"></path>
    
      <clipPath id="make-me-a-hanzi-clip-4">
        <path d="M 200 396 L 120 391 Q 103 390 100 385 Q 98 380 99 378 Q 98 374 107 369 L 121 360 L 140 351 Q 156 346 161 346 Q 167 346 174 347 L 216 352 L 277 360 L 397 372 L 457 378 L 694 391 Q 757 394 804 394 L 839 396 Q 879 400 881 410 Q 883 415 870 428 Q 841 455 801 457 L 630 436 L 425 417 Q 222 397 200 396 Z"></path>
      </clipPath>
      <path clip-path="url(#make-me-a-hanzi-clip-4)" d="M 107 380 L 166 370 L 414 397 L 805 426 L 873 412" fill="none" id="make-me-a-hanzi-animation-4" stroke-dasharray="899 1798" stroke-linecap="round"></path>
    
      <clipPath id="make-me-a-hanzi-clip-5">
        <path d="M 216 352 L 220 340 Q 222 331 223 321 L 225 289 L 231 37 C 232 7 273 18 273 48 L 273 134 L 275 163 L 276 237 L 276 265 L 279 294 Q 283 325 286 334 Q 290 343 277 360 C 260 385 207 380 216 352 Z"></path>
      </clipPath>
      <path clip-path="url(#make-me-a-hanzi-clip-5)" d="M 224 348 L 253 324 L 252 65 L 236 45" fill="none" id="make-me-a-hanzi-animation-5" stroke-dasharray="450 900" stroke-linecap="round"></path>
    
      <clipPath id="make-me-a-hanzi-clip-6">
        <path d="M 405 54 L 404 -2 Q 404 -25 397 -60 L 392 -86 Q 389 -96 389 -105 Q 393 -121 398 -136 Q 403 -151 418 -166 Q 425 -174 439 -158 Q 450 -140 450 -56 L 450 -48 L 457 378 C 457 408 390 401 397 372 L 403 346 L 408 286 L 408 255 L 407 186 L 407 154 L 405 83 L 405 54 Z"></path>
      </clipPath>
      <path clip-path="url(#make-me-a-hanzi-clip-6)" d="M 405 367 L 430 348 L 432 307 L 427 -24 L 419 -97 L 425 -154" fill="none" id="make-me-a-hanzi-animation-6" stroke-dasharray="662 1324" stroke-linecap="round"></path>
    
      <clipPath id="make-me-a-hanzi-clip-7">
        <path d="M 276 237 L 331 243 Q 390 250 408 255 C 437 262 438 282 408 286 L 386 289 Q 385 290 367 288 Q 349 286 332 282 L 276 265 C 247 256 246 234 276 237 Z"></path>
      </clipPath>
      <path clip-path="url(#make-me-a-hanzi-clip-7)" d="M 282 244 L 291 254 L 330 263 L 382 270 L 402 263" fill="none" id="make-me-a-hanzi-animation-7" stroke-dasharray="255 510" stroke-linecap="round"></path>
    
      <clipPath id="make-me-a-hanzi-clip-8">
        <path d="M 345 142 L 381 148 Q 389 148 407 154 C 436 163 437 183 407 186 L 375 189 Q 371 192 342 182 L 275 163 C 246 155 243 131 273 134 L 325 140 Q 335 140 345 142 Z"></path>
      </clipPath>
      <path clip-path="url(#make-me-a-hanzi-clip-8)" d="M 279 141 L 299 154 L 388 169 L 401 181" fill="none" id="make-me-a-hanzi-animation-8" stroke-dasharray="260 520" stroke-linecap="round"></path>
    
      <clipPath id="make-me-a-hanzi-clip-9">
        <path d="M 231 37 L 158 26 Q 145 24 119 29 Q 94 33 90 27 Q 85 11 106 -6 Q 128 -23 134 -32 Q 142 -38 157 -38 Q 171 -36 199 -21 Q 228 -6 265 6 L 405 54 C 433 64 434 91 405 83 L 273 48 L 231 37 Z"></path>
      </clipPath>
      <path clip-path="url(#make-me-a-hanzi-clip-9)" d="M 97 21 L 154 -6 L 164 -5 L 391 64 L 399 76" fill="none" id="make-me-a-hanzi-animation-9" stroke-dasharray="453 906" stroke-linecap="round"></path>
    
      <clipPath id="make-me-a-hanzi-clip-10">
        <path d="M 450 -56 L 461 -56 Q 518 -46 560 -25 Q 571 -22 596 -2 L 642 38 L 674 84 L 704 138 L 741 221 Q 744 234 756 247 L 768 260 Q 775 267 775 275 Q 775 282 760 294 Q 745 306 727 312 L 706 319 Q 697 323 687 319 L 658 307 Q 631 297 595 289 L 508 268 C 479 261 512 242 542 246 L 609 255 Q 628 258 646 263 Q 665 267 672 266 Q 693 263 680 230 L 668 192 L 636 126 L 611 87 L 585 55 Q 569 36 548 16 Q 511 -15 483 -31 L 450 -48 C 431 -58 431 -58 450 -56 Z"></path>
      </clipPath>
      <path clip-path="url(#make-me-a-hanzi-clip-10)" d="M 516 268 L 544 261 L 674 289 L 697 289 L 722 270 L 711 226 L 682 156 L 624 59 L 564 0 L 523 -25 L 456 -52" fill="none" id="make-me-a-hanzi-animation-10" stroke-dasharray="783 1566" stroke-linecap="round"></path>
    
      <clipPath id="make-me-a-hanzi-clip-11">
        <path d="M 642 38 L 700 -35 Q 733 -79 752 -86 Q 787 -99 901 -71 L 919 -66 Q 931 -64 931 -55 Q 933 -47 923 -44 L 897 -38 Q 885 -37 825 -14 Q 777 2 730 38 L 697 63 Q 687 71 674 84 L 636 126 L 626 138 Q 623 139 600 170 L 542 246 C 524 270 523 270 508 268 L 489 265 Q 481 261 481 254 Q 479 249 494 240 Q 509 231 522 216 L 543 190 L 611 87 L 642 38 Z"></path>
      </clipPath>
      <path clip-path="url(#make-me-a-hanzi-clip-11)" d="M 492 255 L 534 230 L 669 49 L 761 -37 L 810 -50 L 920 -55" fill="none" id="make-me-a-hanzi-animation-11" stroke-dasharray="689 1378" stroke-linecap="round"></path>
    
  </g>
</svg>