<svg version="1.1" viewBox="0 0 1024 1024" xmlns="http://www.w3.org/2000/svg">
  <g stroke="lightgray" stroke-dasharray="1,1" stroke-width="1" transform="scale(4, 4)">
    <line x1="0" y1="0" x2="256" y2="256"></line>
    <line x1="256" y1="0" x2="0" y2="256"></line>
    <line x1="128" y1="0" x2="128" y2="256"></line>
    <line x1="0" y1="128" x2="256" y2="128"></line>
  </g>
<g transform="scale(1, -1) translate(0, -900)">
   <style type="text/css">
    @keyframes keyframes0 {
      from {
       stroke: blue;
       stroke-dashoffset: 386;
       stroke-width: 128;
       }
       56% {
       animation-timing-function: step-end;
       stroke: blue;
       stroke-dashoffset: 0;
       stroke-width: 128;
       }
       to {
       stroke: black;
       stroke-width: 1024;
       }
       }
       #make-me-a-hanzi-animation-0 {
         animation: keyframes0 0.564128s both;
         animation-delay: 0.000000s;
         animation-timing-function: linear;
       }
    @keyframes keyframes1 {
      from {
       stroke: blue;
       stroke-dashoffset: 353;
       stroke-width: 128;
       }
       53% {
       animation-timing-function: step-end;
       stroke: blue;
       stroke-dashoffset: 0;
       stroke-width: 128;
       }
       to {
       stroke: black;
       stroke-width: 1024;
       }
       }
       #make-me-a-hanzi-animation-1 {
         animation: keyframes1 0.537272s both;
         animation-delay: 0.564128s;
         animation-timing-function: linear;
       }
    @keyframes keyframes2 {
      from {
       stroke: blue;
       stroke-dashoffset: 512;
       stroke-width: 128;
       }
       63% {
       animation-timing-function: step-end;
       stroke: blue;
       stroke-dashoffset: 0;
       stroke-width: 128;
       }
       to {
       stroke: black;
       stroke-width: 1024;
       }
       }
       #make-me-a-hanzi-animation-2 {
         animation: keyframes2 0.666667s both;
         animation-delay: 1.101400s;
         animation-timing-function: linear;
       }
    @keyframes keyframes3 {
      from {
       stroke: blue;
       stroke-dashoffset: 645;
       stroke-width: 128;
       }
       68% {
       animation-timing-function: step-end;
       stroke: blue;
       stroke-dashoffset: 0;
       stroke-width: 128;
       }
       to {
       stroke: black;
       stroke-width: 1024;
       }
       }
       #make-me-a-hanzi-animation-3 {
         animation: keyframes3 0.774902s both;
         animation-delay: 1.768066s;
         animation-timing-function: linear;
       }
    @keyframes keyframes4 {
      from {
       stroke: blue;
       stroke-dashoffset: 953;
       stroke-width: 128;
       }
       76% {
       animation-timing-function: step-end;
       stroke: blue;
       stroke-dashoffset: 0;
       stroke-width: 128;
       }
       to {
       stroke: black;
       stroke-width: 1024;
       }
       }
       #make-me-a-hanzi-animation-4 {
         animation: keyframes4 1.025553s both;
         animation-delay: 2.542969s;
         animation-timing-function: linear;
       }
    @keyframes keyframes5 {
      from {
       stroke: blue;
       stroke-dashoffset: 997;
       stroke-width: 128;
       }
       76% {
       animation-timing-function: step-end;
       stroke: blue;
       stroke-dashoffset: 0;
       stroke-width: 128;
       }
       to {
       stroke: black;
       stroke-width: 1024;
       }
       }
       #make-me-a-hanzi-animation-5 {
         animation: keyframes5 1.061361s both;
         animation-delay: 3.568522s;
         animation-timing-function: linear;
       }
    @keyframes keyframes6 {
      from {
       stroke: blue;
       stroke-dashoffset: 732;
       stroke-width: 128;
       }
       70% {
       animation-timing-function: step-end;
       stroke: blue;
       stroke-dashoffset: 0;
       stroke-width: 128;
       }
       to {
       stroke: black;
       stroke-width: 1024;
       }
       }
       #make-me-a-hanzi-animation-6 {
         animation: keyframes6 0.845703s both;
         animation-delay: 4.629883s;
         animation-timing-function: linear;
       }
    @keyframes keyframes7 {
      from {
       stroke: blue;
       stroke-dashoffset: 665;
       stroke-width: 128;
       }
       68% {
       animation-timing-function: step-end;
       stroke: blue;
       stroke-dashoffset: 0;
       stroke-width: 128;
       }
       to {
       stroke: black;
       stroke-width: 1024;
       }
       }
       #make-me-a-hanzi-animation-7 {
         animation: keyframes7 0.791178s both;
         animation-delay: 5.475586s;
         animation-timing-function: linear;
       }
    @keyframes keyframes8 {
      from {
       stroke: blue;
       stroke-dashoffset: 731;
       stroke-width: 128;
       }
       70% {
       animation-timing-function: step-end;
       stroke: blue;
       stroke-dashoffset: 0;
       stroke-width: 128;
       }
       to {
       stroke: black;
       stroke-width: 1024;
       }
       }
       #make-me-a-hanzi-animation-8 {
         animation: keyframes8 0.844889s both;
         animation-delay: 6.266764s;
         animation-timing-function: linear;
       }
</style>
<path d="M 262.5 757.0 Q 290.5 739.0 320.5 716.0 Q 335.5 706.0 348.5 709.0 Q 358.5 710.0 361.5 723.0 Q 364.5 738.0 352.5 763.0 Q 342.5 787.0 251.5 800.0 Q 238.5 801.0 232.5 798.0 Q 228.5 794.0 230.5 782.0 Q 234.5 772.0 262.5 757.0 Z" fill="lightgray"></path> 
<path d="M 189.5 640.0 Q 237.5 604.0 262.5 599.0 Q 275.5 599.0 280.5 611.0 Q 283.5 621.0 278.5 635.0 Q 269.5 654.0 253.5 661.0 Q 189.5 682.0 172.5 670.0 Q 168.5 669.0 171.5 658.0 Q 174.5 649.0 189.5 640.0 Z" fill="lightgray"></path> 
<path d="M 166.5 449.0 Q 154.5 445.0 157.5 429.0 Q 163.5 411.0 191.5 402.0 Q 221.5 389.0 235.5 390.0 Q 245.5 393.0 250.5 416.0 Q 281.5 467.0 359.5 575.0 Q 365.5 582.0 361.5 589.0 Q 357.5 592.0 350.5 587.0 Q 215.5 464.0 193.5 455.0 Q 190.5 455.0 166.5 449.0 Z" fill="lightgray"></path> 
<path d="M 524.5 602.0 Q 623.5 650.0 756.5 699.0 Q 766.5 700.0 771.5 714.0 Q 770.5 724.0 746.5 730.0 Q 703.5 739.0 638.5 699.0 Q 614.5 689.0 592.5 675.0 Q 556.5 659.0 523.5 643.0 L 482.5 626.0 Q 476.5 626.0 398.5 595.0 Q 373.5 585.0 396.5 574.0 Q 430.5 559.0 467.5 576.0 Q 474.5 580.0 484.5 583.0 L 524.5 602.0 Z" fill="lightgray"></path> 
<path d="M 815.5 516.0 Q 799.5 549.0 786.5 606.0 Q 785.5 621.0 777.5 625.0 Q 770.5 629.0 767.5 611.0 Q 754.5 541.0 742.5 529.0 Q 721.5 505.0 629.5 501.0 Q 580.5 502.0 558.5 509.0 Q 527.5 527.0 524.5 602.0 L 523.5 643.0 Q 527.5 719.0 542.5 755.0 Q 552.5 783.0 536.5 798.0 Q 490.5 832.0 475.5 828.0 Q 462.5 824.0 469.5 807.0 Q 487.5 773.0 484.5 723.0 Q 483.5 668.0 482.5 626.0 L 484.5 583.0 Q 485.5 510.0 518.5 484.0 Q 557.5 451.0 707.5 456.0 Q 774.5 459.0 800.5 473.0 Q 828.5 488.0 815.5 516.0 Z" fill="lightgray"></path> 
<path d="M 523.5 300.0 Q 695.5 324.0 843.5 311.0 Q 865.5 310.0 871.5 317.0 Q 878.5 330.0 866.5 341.0 Q 799.5 402.0 740.5 379.0 Q 700.5 372.0 505.5 341.0 L 456.5 335.0 Q 347.5 323.0 292.5 314.0 Q 228.5 304.0 134.5 301.0 Q 121.5 301.0 119.5 290.0 Q 119.5 278.0 137.5 265.0 Q 153.5 253.0 183.5 242.0 Q 193.5 238.0 211.5 246.0 Q 226.5 252.0 293.5 264.0 Q 344.5 277.0 405.5 286.0 L 523.5 300.0 Z" fill="lightgray"></path> 
<path d="M 505.5 341.0 Q 506.5 369.0 510.5 384.0 Q 513.5 396.0 506.5 402.0 Q 484.5 421.0 465.5 431.0 Q 453.5 435.0 444.5 428.0 Q 438.5 425.0 445.5 415.0 Q 451.5 406.0 456.5 335.0 L 454.5 261.0 Q 453.5 245.0 453.5 225.0 Q 446.5 83.0 434.5 54.0 Q 425.5 17.0 457.5 -33.0 Q 467.5 -51.0 476.5 -55.0 Q 486.5 -56.0 492.5 -44.0 Q 505.5 -13.0 501.5 17.0 Q 500.5 150.0 502.5 263.0 Q 502.5 275.0 502.5 284.0 L 505.5 341.0 Z" fill="lightgray"></path> 
<path d="M 405.5 286.0 Q 342.5 172.0 123.5 51.0 Q 104.5 39.0 121.5 36.0 Q 155.5 29.0 251.5 76.0 Q 306.5 107.0 374.5 168.0 Q 414.5 207.0 441.5 243.0 Q 447.5 253.0 454.5 261.0 C 481.5 295.0 441.5 347.0 405.5 286.0 Z" fill="lightgray"></path> 
<path d="M 502.5 284.0 Q 692.5 64.0 738.5 51.0 Q 801.5 42.0 896.5 56.0 Q 915.5 57.0 916.5 63.0 Q 919.5 70.0 904.5 75.0 Q 855.5 96.0 796.5 116.0 Q 675.5 164.0 525.5 298.0 Q 524.5 299.0 523.5 300.0 C 501.5 320.0 482.5 307.0 502.5 284.0 Z" fill="lightgray"></path> 
      <clipPath id="make-me-a-hanzi-clip-0">
      <path d="M 262.5 757.0 Q 290.5 739.0 320.5 716.0 Q 335.5 706.0 348.5 709.0 Q 358.5 710.0 361.5 723.0 Q 364.5 738.0 352.5 763.0 Q 342.5 787.0 251.5 800.0 Q 238.5 801.0 232.5 798.0 Q 228.5 794.0 230.5 782.0 Q 234.5 772.0 262.5 757.0 Z" fill="lightgray"></path>
      </clipPath>
      <path clip-path="url(#make-me-a-hanzi-clip-0)" d="M 238.5 792.0 L 325.5 750.0 L 346.5 724.0 " fill="none" id="make-me-a-hanzi-animation-0" stroke-dasharray="258 516" stroke-linecap="round"></path>

      <clipPath id="make-me-a-hanzi-clip-1">
      <path d="M 189.5 640.0 Q 237.5 604.0 262.5 599.0 Q 275.5 599.0 280.5 611.0 Q 283.5 621.0 278.5 635.0 Q 269.5 654.0 253.5 661.0 Q 189.5 682.0 172.5 670.0 Q 168.5 669.0 171.5 658.0 Q 174.5 649.0 189.5 640.0 Z" fill="lightgray"></path>
      </clipPath>
      <path clip-path="url(#make-me-a-hanzi-clip-1)" d="M 179.5 663.0 L 244.5 635.0 L 263.5 617.0 " fill="none" id="make-me-a-hanzi-animation-1" stroke-dasharray="225 450" stroke-linecap="round"></path>

      <clipPath id="make-me-a-hanzi-clip-2">
      <path d="M 166.5 449.0 Q 154.5 445.0 157.5 429.0 Q 163.5 411.0 191.5 402.0 Q 221.5 389.0 235.5 390.0 Q 245.5 393.0 250.5 416.0 Q 281.5 467.0 359.5 575.0 Q 365.5 582.0 361.5 589.0 Q 357.5 592.0 350.5 587.0 Q 215.5 464.0 193.5 455.0 Q 190.5 455.0 166.5 449.0 Z" fill="lightgray"></path>
      </clipPath>
      <path clip-path="url(#make-me-a-hanzi-clip-2)" d="M 171.5 435.0 L 193.5 428.0 L 218.5 429.0 L 357.5 583.0 " fill="none" id="make-me-a-hanzi-animation-2" stroke-dasharray="384 768" stroke-linecap="round"></path>

      <clipPath id="make-me-a-hanzi-clip-3">
      <path d="M 524.5 602.0 Q 623.5 650.0 756.5 699.0 Q 766.5 700.0 771.5 714.0 Q 770.5 724.0 746.5 730.0 Q 703.5 739.0 638.5 699.0 Q 614.5 689.0 592.5 675.0 Q 556.5 659.0 523.5 643.0 L 482.5 626.0 Q 476.5 626.0 398.5 595.0 Q 373.5 585.0 396.5 574.0 Q 430.5 559.0 467.5 576.0 Q 474.5 580.0 484.5 583.0 L 524.5 602.0 Z" fill="lightgray"></path>
      </clipPath>
      <path clip-path="url(#make-me-a-hanzi-clip-3)" d="M 396.5 585.0 L 430.5 586.0 L 484.5 605.0 L 698.5 703.0 L 760.5 713.0 " fill="none" id="make-me-a-hanzi-animation-3" stroke-dasharray="517 1034" stroke-linecap="round"></path>

      <clipPath id="make-me-a-hanzi-clip-4">
      <path d="M 815.5 516.0 Q 799.5 549.0 786.5 606.0 Q 785.5 621.0 777.5 625.0 Q 770.5 629.0 767.5 611.0 Q 754.5 541.0 742.5 529.0 Q 721.5 505.0 629.5 501.0 Q 580.5 502.0 558.5 509.0 Q 527.5 527.0 524.5 602.0 L 523.5 643.0 Q 527.5 719.0 542.5 755.0 Q 552.5 783.0 536.5 798.0 Q 490.5 832.0 475.5 828.0 Q 462.5 824.0 469.5 807.0 Q 487.5 773.0 484.5 723.0 Q 483.5 668.0 482.5 626.0 L 484.5 583.0 Q 485.5 510.0 518.5 484.0 Q 557.5 451.0 707.5 456.0 Q 774.5 459.0 800.5 473.0 Q 828.5 488.0 815.5 516.0 Z" fill="lightgray"></path>
      </clipPath>
      <path clip-path="url(#make-me-a-hanzi-clip-4)" d="M 479.5 816.0 L 514.5 775.0 L 504.5 685.0 L 504.5 574.0 L 514.5 529.0 L 534.5 499.0 L 581.5 482.0 L 630.5 478.0 L 694.5 480.0 L 751.5 493.0 L 775.5 509.0 L 776.5 618.0 " fill="none" id="make-me-a-hanzi-animation-4" stroke-dasharray="825 1650" stroke-linecap="round"></path>

      <clipPath id="make-me-a-hanzi-clip-5">
      <path d="M 523.5 300.0 Q 695.5 324.0 843.5 311.0 Q 865.5 310.0 871.5 317.0 Q 878.5 330.0 866.5 341.0 Q 799.5 402.0 740.5 379.0 Q 700.5 372.0 505.5 341.0 L 456.5 335.0 Q 347.5 323.0 292.5 314.0 Q 228.5 304.0 134.5 301.0 Q 121.5 301.0 119.5 290.0 Q 119.5 278.0 137.5 265.0 Q 153.5 253.0 183.5 242.0 Q 193.5 238.0 211.5 246.0 Q 226.5 252.0 293.5 264.0 Q 344.5 277.0 405.5 286.0 L 523.5 300.0 Z" fill="lightgray"></path>
      </clipPath>
      <path clip-path="url(#make-me-a-hanzi-clip-5)" d="M 132.5 288.0 L 192.5 272.0 L 449.5 314.0 L 765.5 350.0 L 802.5 347.0 L 861.5 325.0 " fill="none" id="make-me-a-hanzi-animation-5" stroke-dasharray="869 1738" stroke-linecap="round"></path>

      <clipPath id="make-me-a-hanzi-clip-6">
      <path d="M 505.5 341.0 Q 506.5 369.0 510.5 384.0 Q 513.5 396.0 506.5 402.0 Q 484.5 421.0 465.5 431.0 Q 453.5 435.0 444.5 428.0 Q 438.5 425.0 445.5 415.0 Q 451.5 406.0 456.5 335.0 L 454.5 261.0 Q 453.5 245.0 453.5 225.0 Q 446.5 83.0 434.5 54.0 Q 425.5 17.0 457.5 -33.0 Q 467.5 -51.0 476.5 -55.0 Q 486.5 -56.0 492.5 -44.0 Q 505.5 -13.0 501.5 17.0 Q 500.5 150.0 502.5 263.0 Q 502.5 275.0 502.5 284.0 L 505.5 341.0 Z" fill="lightgray"></path>
      </clipPath>
      <path clip-path="url(#make-me-a-hanzi-clip-6)" d="M 452.5 422.0 L 481.5 384.0 L 475.5 137.0 L 466.5 36.0 L 478.5 -43.0 " fill="none" id="make-me-a-hanzi-animation-6" stroke-dasharray="604 1208" stroke-linecap="round"></path>

      <clipPath id="make-me-a-hanzi-clip-7">
      <path d="M 405.5 286.0 Q 342.5 172.0 123.5 51.0 Q 104.5 39.0 121.5 36.0 Q 155.5 29.0 251.5 76.0 Q 306.5 107.0 374.5 168.0 Q 414.5 207.0 441.5 243.0 Q 447.5 253.0 454.5 261.0 C 481.5 295.0 441.5 347.0 405.5 286.0 Z" fill="lightgray"></path>
      </clipPath>
      <path clip-path="url(#make-me-a-hanzi-clip-7)" d="M 449.5 284.0 L 421.5 261.0 L 373.5 201.0 L 314.5 147.0 L 213.5 80.0 L 126.5 43.0 " fill="none" id="make-me-a-hanzi-animation-7" stroke-dasharray="537 1074" stroke-linecap="round"></path>

      <clipPath id="make-me-a-hanzi-clip-8">
      <path d="M 502.5 284.0 Q 692.5 64.0 738.5 51.0 Q 801.5 42.0 896.5 56.0 Q 915.5 57.0 916.5 63.0 Q 919.5 70.0 904.5 75.0 Q 855.5 96.0 796.5 116.0 Q 675.5 164.0 525.5 298.0 Q 524.5 299.0 523.5 300.0 C 501.5 320.0 482.5 307.0 502.5 284.0 Z" fill="lightgray"></path>
      </clipPath>
      <path clip-path="url(#make-me-a-hanzi-clip-8)" d="M 509.5 290.0 L 666.5 149.0 L 742.5 95.0 L 787.5 82.0 L 910.5 65.0 " fill="none" id="make-me-a-hanzi-animation-8" stroke-dasharray="603 1206" stroke-linecap="round"></path>

</g>
</svg>
