<svg version="1.1" viewBox="0 0 1024 1024" xmlns="http://www.w3.org/2000/svg">
  <g stroke="lightgray" stroke-dasharray="1,1" stroke-width="1" transform="scale(4, 4)">
    <line x1="0" y1="0" x2="256" y2="256"></line>
    <line x1="256" y1="0" x2="0" y2="256"></line>
    <line x1="128" y1="0" x2="128" y2="256"></line>
    <line x1="0" y1="128" x2="256" y2="128"></line>
  </g>
<g transform="scale(0.92, -0.92) translate(60, -900)">
   <style type="text/css">
    @keyframes keyframes0 {
      from {
       stroke: blue;
       stroke-dashoffset: 571;
       stroke-width: 128;
       }
       65% {
       animation-timing-function: step-end;
       stroke: blue;
       stroke-dashoffset: 0;
       stroke-width: 128;
       }
       to {
       stroke: black;
       stroke-width: 1024;
       }
       }
       #make-me-a-hanzi-animation-0 {
         animation: keyframes0 0.714681s both;
         animation-delay: 0.000000s;
         animation-timing-function: linear;
       }
    @keyframes keyframes1 {
      from {
       stroke: blue;
       stroke-dashoffset: 1087;
       stroke-width: 128;
       }
       78% {
       animation-timing-function: step-end;
       stroke: blue;
       stroke-dashoffset: 0;
       stroke-width: 128;
       }
       to {
       stroke: black;
       stroke-width: 1024;
       }
       }
       #make-me-a-hanzi-animation-1 {
         animation: keyframes1 1.134603s both;
         animation-delay: 0.714681s;
         animation-timing-function: linear;
       }
    @keyframes keyframes2 {
      from {
       stroke: blue;
       stroke-dashoffset: 692;
       stroke-width: 128;
       }
       69% {
       animation-timing-function: step-end;
       stroke: blue;
       stroke-dashoffset: 0;
       stroke-width: 128;
       }
       to {
       stroke: black;
       stroke-width: 1024;
       }
       }
       #make-me-a-hanzi-animation-2 {
         animation: keyframes2 0.813151s both;
         animation-delay: 1.849284s;
         animation-timing-function: linear;
       }
    @keyframes keyframes3 {
      from {
       stroke: blue;
       stroke-dashoffset: 383;
       stroke-width: 128;
       }
       55% {
       animation-timing-function: step-end;
       stroke: blue;
       stroke-dashoffset: 0;
       stroke-width: 128;
       }
       to {
       stroke: black;
       stroke-width: 1024;
       }
       }
       #make-me-a-hanzi-animation-3 {
         animation: keyframes3 0.561686s both;
         animation-delay: 2.662435s;
         animation-timing-function: linear;
       }
    @keyframes keyframes4 {
      from {
       stroke: blue;
       stroke-dashoffset: 631;
       stroke-width: 128;
       }
       67% {
       animation-timing-function: step-end;
       stroke: blue;
       stroke-dashoffset: 0;
       stroke-width: 128;
       }
       to {
       stroke: black;
       stroke-width: 1024;
       }
       }
       #make-me-a-hanzi-animation-4 {
         animation: keyframes4 0.763509s both;
         animation-delay: 3.224121s;
         animation-timing-function: linear;
       }
    @keyframes keyframes5 {
      from {
       stroke: blue;
       stroke-dashoffset: 1182;
       stroke-width: 128;
       }
       79% {
       animation-timing-function: step-end;
       stroke: blue;
       stroke-dashoffset: 0;
       stroke-width: 128;
       }
       to {
       stroke: black;
       stroke-width: 1024;
       }
       }
       #make-me-a-hanzi-animation-5 {
         animation: keyframes5 1.211914s both;
         animation-delay: 3.987630s;
         animation-timing-function: linear;
       }
    @keyframes keyframes6 {
      from {
       stroke: blue;
       stroke-dashoffset: 878;
       stroke-width: 128;
       }
       74% {
       animation-timing-function: step-end;
       stroke: blue;
       stroke-dashoffset: 0;
       stroke-width: 128;
       }
       to {
       stroke: black;
       stroke-width: 1024;
       }
       }
       #make-me-a-hanzi-animation-6 {
         animation: keyframes6 0.964518s both;
         animation-delay: 5.199544s;
         animation-timing-function: linear;
       }
    @keyframes keyframes7 {
      from {
       stroke: blue;
       stroke-dashoffset: 417;
       stroke-width: 128;
       }
       58% {
       animation-timing-function: step-end;
       stroke: blue;
       stroke-dashoffset: 0;
       stroke-width: 128;
       }
       to {
       stroke: black;
       stroke-width: 1024;
       }
       }
       #make-me-a-hanzi-animation-7 {
         animation: keyframes7 0.589355s both;
         animation-delay: 6.164062s;
         animation-timing-function: linear;
       }
    @keyframes keyframes8 {
      from {
       stroke: blue;
       stroke-dashoffset: 450;
       stroke-width: 128;
       }
       59% {
       animation-timing-function: step-end;
       stroke: blue;
       stroke-dashoffset: 0;
       stroke-width: 128;
       }
       to {
       stroke: black;
       stroke-width: 1024;
       }
       }
       #make-me-a-hanzi-animation-8 {
         animation: keyframes8 0.616211s both;
         animation-delay: 6.753418s;
         animation-timing-function: linear;
       }
</style>
<path d="M 352.5 513.5 Q 371.5 520.5 394.5 525.5 Q 433.5 537.5 439.5 543.5 Q 448.5 552.5 442.5 560.5 Q 435.5 572.5 404.5 577.5 Q 377.5 581.5 354.5 571.5 L 310.5 553.5 Q 211.5 520.5 133.5 507.5 Q 96.5 498.5 124.5 483.5 Q 158.5 465.5 233.5 482.5 Q 260.5 491.5 293.5 497.5 L 352.5 513.5 Z" fill="lightgray"></path> 
<path d="M 349.5 413.5 Q 350.5 461.5 352.5 513.5 L 354.5 571.5 Q 357.5 658.5 375.5 718.5 Q 384.5 733.5 381.5 746.5 Q 374.5 756.5 320.5 789.5 Q 298.5 807.5 277.5 791.5 Q 273.5 787.5 278.5 771.5 Q 309.5 723.5 310.5 674.5 L 310.5 553.5 L 306.5 401.5 Q 294.5 166.5 290.5 148.5 Q 284.5 115.5 274.5 81.5 Q 261.5 39.5 287.5 -17.5 Q 293.5 -35.5 301.5 -38.5 Q 307.5 -44.5 314.5 -36.5 Q 321.5 -32.5 332.5 -12.5 Q 342.5 12.5 341.5 42.5 Q 341.5 82.5 348.5 385.5 L 349.5 413.5 Z" fill="lightgray"></path> 
<path d="M 293.5 497.5 Q 242.5 343.5 87.5 125.5 Q 83.5 115.5 94.5 114.5 Q 118.5 114.5 225.5 257.5 Q 268.5 318.5 306.5 401.5 C 365.5 528.5 303.5 525.5 293.5 497.5 Z" fill="lightgray"></path> 
<path d="M 348.5 385.5 Q 424.5 313.5 436.5 311.5 Q 443.5 311.5 447.5 321.5 Q 451.5 331.5 446.5 353.5 Q 439.5 384.5 354.5 413.5 Q 351.5 414.5 349.5 413.5 C 320.5 412.5 326.5 406.5 348.5 385.5 Z" fill="lightgray"></path> 
<path d="M 620.5 536.5 Q 851.5 590.5 861.5 597.5 Q 871.5 606.5 866.5 615.5 Q 857.5 628.5 826.5 635.5 Q 793.5 641.5 761.5 628.5 Q 706.5 607.5 644.5 590.5 Q 640.5 589.5 637.5 588.5 L 588.5 577.5 Q 543.5 570.5 496.5 564.5 Q 456.5 557.5 485.5 539.5 Q 521.5 520.5 572.5 525.5 L 620.5 536.5 Z" fill="lightgray"></path> 
<path d="M 722.5 312.5 Q 741.5 318.5 854.5 329.5 Q 897.5 333.5 899.5 345.5 Q 900.5 361.5 869.5 379.5 Q 842.5 394.5 721.5 362.5 L 673.5 351.5 Q 628.5 344.5 577.5 334.5 Q 555.5 330.5 553.5 335.5 Q 552.5 339.5 559.5 358.5 Q 584.5 425.5 620.5 536.5 L 637.5 588.5 Q 677.5 729.5 708.5 758.5 Q 727.5 776.5 714.5 787.5 Q 654.5 835.5 627.5 831.5 Q 617.5 830.5 624.5 807.5 Q 640.5 750.5 588.5 577.5 L 572.5 525.5 Q 524.5 381.5 480.5 339.5 Q 455.5 317.5 477.5 267.5 Q 484.5 251.5 502.5 258.5 Q 575.5 289.5 674.5 305.5 L 722.5 312.5 Z" fill="lightgray"></path> 
<path d="M 721.5 362.5 Q 722.5 399.5 732.5 426.5 Q 739.5 444.5 724.5 456.5 Q 699.5 475.5 671.5 485.5 Q 653.5 491.5 646.5 484.5 Q 640.5 477.5 650.5 463.5 Q 672.5 427.5 672.5 386.5 Q 672.5 370.5 673.5 351.5 L 674.5 305.5 Q 678.5 73.5 659.5 57.5 Q 653.5 53.5 578.5 67.5 Q 544.5 76.5 545.5 66.5 Q 546.5 60.5 557.5 53.5 Q 639.5 -4.5 671.5 -43.5 Q 684.5 -59.5 700.5 -45.5 Q 727.5 -9.5 728.5 61.5 Q 724.5 107.5 722.5 312.5 L 721.5 362.5 Z" fill="lightgray"></path> 
<path d="M 515.5 214.5 Q 487.5 165.5 451.5 121.5 Q 427.5 94.5 441.5 61.5 Q 445.5 45.5 467.5 53.5 Q 518.5 86.5 532.5 159.5 Q 539.5 187.5 536.5 212.5 Q 532.5 219.5 527.5 221.5 Q 520.5 221.5 515.5 214.5 Z" fill="lightgray"></path> 
<path d="M 792.5 205.5 Q 834.5 157.5 884.5 90.5 Q 897.5 69.5 911.5 64.5 Q 918.5 61.5 927.5 70.5 Q 940.5 82.5 932.5 124.5 Q 929.5 163.5 862.5 200.5 Q 819.5 224.5 796.5 235.5 Q 787.5 241.5 785.5 229.5 Q 784.5 216.5 792.5 205.5 Z" fill="lightgray"></path> 
      <clipPath id="make-me-a-hanzi-clip-0">
      <path d="M 352.5 513.5 Q 371.5 520.5 394.5 525.5 Q 433.5 537.5 439.5 543.5 Q 448.5 552.5 442.5 560.5 Q 435.5 572.5 404.5 577.5 Q 377.5 581.5 354.5 571.5 L 310.5 553.5 Q 211.5 520.5 133.5 507.5 Q 96.5 498.5 124.5 483.5 Q 158.5 465.5 233.5 482.5 Q 260.5 491.5 293.5 497.5 L 352.5 513.5 Z" fill="lightgray"></path>
      </clipPath>
      <path clip-path="url(#make-me-a-hanzi-clip-0)" d="M 125.5 496.5 L 169.5 493.5 L 200.5 498.5 L 377.5 549.5 L 432.5 553.5 " fill="none" id="make-me-a-hanzi-animation-0" stroke-dasharray="443 886" stroke-linecap="round"></path>

      <clipPath id="make-me-a-hanzi-clip-1">
      <path d="M 349.5 413.5 Q 350.5 461.5 352.5 513.5 L 354.5 571.5 Q 357.5 658.5 375.5 718.5 Q 384.5 733.5 381.5 746.5 Q 374.5 756.5 320.5 789.5 Q 298.5 807.5 277.5 791.5 Q 273.5 787.5 278.5 771.5 Q 309.5 723.5 310.5 674.5 L 310.5 553.5 L 306.5 401.5 Q 294.5 166.5 290.5 148.5 Q 284.5 115.5 274.5 81.5 Q 261.5 39.5 287.5 -17.5 Q 293.5 -35.5 301.5 -38.5 Q 307.5 -44.5 314.5 -36.5 Q 321.5 -32.5 332.5 -12.5 Q 342.5 12.5 341.5 42.5 Q 341.5 82.5 348.5 385.5 L 349.5 413.5 Z" fill="lightgray"></path>
      </clipPath>
      <path clip-path="url(#make-me-a-hanzi-clip-1)" d="M 289.5 784.5 L 339.5 732.5 L 324.5 273.5 L 318.5 156.5 L 305.5 55.5 L 306.5 -25.5 " fill="none" id="make-me-a-hanzi-animation-1" stroke-dasharray="959 1918" stroke-linecap="round"></path>

      <clipPath id="make-me-a-hanzi-clip-2">
      <path d="M 293.5 497.5 Q 242.5 343.5 87.5 125.5 Q 83.5 115.5 94.5 114.5 Q 118.5 114.5 225.5 257.5 Q 268.5 318.5 306.5 401.5 C 365.5 528.5 303.5 525.5 293.5 497.5 Z" fill="lightgray"></path>
      </clipPath>
      <path clip-path="url(#make-me-a-hanzi-clip-2)" d="M 306.5 494.5 L 298.5 489.5 L 282.5 403.5 L 240.5 322.5 L 188.5 237.5 L 95.5 122.5 " fill="none" id="make-me-a-hanzi-animation-2" stroke-dasharray="564 1128" stroke-linecap="round"></path>

      <clipPath id="make-me-a-hanzi-clip-3">
      <path d="M 348.5 385.5 Q 424.5 313.5 436.5 311.5 Q 443.5 311.5 447.5 321.5 Q 451.5 331.5 446.5 353.5 Q 439.5 384.5 354.5 413.5 Q 351.5 414.5 349.5 413.5 C 320.5 412.5 326.5 406.5 348.5 385.5 Z" fill="lightgray"></path>
      </clipPath>
      <path clip-path="url(#make-me-a-hanzi-clip-3)" d="M 352.5 406.5 L 363.5 402.5 L 367.5 388.5 L 423.5 349.5 L 437.5 320.5 " fill="none" id="make-me-a-hanzi-animation-3" stroke-dasharray="255 510" stroke-linecap="round"></path>

      <clipPath id="make-me-a-hanzi-clip-4">
      <path d="M 620.5 536.5 Q 851.5 590.5 861.5 597.5 Q 871.5 606.5 866.5 615.5 Q 857.5 628.5 826.5 635.5 Q 793.5 641.5 761.5 628.5 Q 706.5 607.5 644.5 590.5 Q 640.5 589.5 637.5 588.5 L 588.5 577.5 Q 543.5 570.5 496.5 564.5 Q 456.5 557.5 485.5 539.5 Q 521.5 520.5 572.5 525.5 L 620.5 536.5 Z" fill="lightgray"></path>
      </clipPath>
      <path clip-path="url(#make-me-a-hanzi-clip-4)" d="M 487.5 553.5 L 562.5 548.5 L 629.5 560.5 L 796.5 608.5 L 854.5 609.5 " fill="none" id="make-me-a-hanzi-animation-4" stroke-dasharray="503 1006" stroke-linecap="round"></path>

      <clipPath id="make-me-a-hanzi-clip-5">
      <path d="M 722.5 312.5 Q 741.5 318.5 854.5 329.5 Q 897.5 333.5 899.5 345.5 Q 900.5 361.5 869.5 379.5 Q 842.5 394.5 721.5 362.5 L 673.5 351.5 Q 628.5 344.5 577.5 334.5 Q 555.5 330.5 553.5 335.5 Q 552.5 339.5 559.5 358.5 Q 584.5 425.5 620.5 536.5 L 637.5 588.5 Q 677.5 729.5 708.5 758.5 Q 727.5 776.5 714.5 787.5 Q 654.5 835.5 627.5 831.5 Q 617.5 830.5 624.5 807.5 Q 640.5 750.5 588.5 577.5 L 572.5 525.5 Q 524.5 381.5 480.5 339.5 Q 455.5 317.5 477.5 267.5 Q 484.5 251.5 502.5 258.5 Q 575.5 289.5 674.5 305.5 L 722.5 312.5 Z" fill="lightgray"></path>
      </clipPath>
      <path clip-path="url(#make-me-a-hanzi-clip-5)" d="M 631.5 821.5 L 668.5 772.5 L 598.5 533.5 L 515.5 311.5 L 552.5 305.5 L 828.5 355.5 L 856.5 356.5 L 888.5 348.5 " fill="none" id="make-me-a-hanzi-animation-5" stroke-dasharray="1054 2108" stroke-linecap="round"></path>

      <clipPath id="make-me-a-hanzi-clip-6">
      <path d="M 721.5 362.5 Q 722.5 399.5 732.5 426.5 Q 739.5 444.5 724.5 456.5 Q 699.5 475.5 671.5 485.5 Q 653.5 491.5 646.5 484.5 Q 640.5 477.5 650.5 463.5 Q 672.5 427.5 672.5 386.5 Q 672.5 370.5 673.5 351.5 L 674.5 305.5 Q 678.5 73.5 659.5 57.5 Q 653.5 53.5 578.5 67.5 Q 544.5 76.5 545.5 66.5 Q 546.5 60.5 557.5 53.5 Q 639.5 -4.5 671.5 -43.5 Q 684.5 -59.5 700.5 -45.5 Q 727.5 -9.5 728.5 61.5 Q 724.5 107.5 722.5 312.5 L 721.5 362.5 Z" fill="lightgray"></path>
      </clipPath>
      <path clip-path="url(#make-me-a-hanzi-clip-6)" d="M 654.5 478.5 L 699.5 433.5 L 695.5 53.5 L 678.5 15.5 L 551.5 65.5 " fill="none" id="make-me-a-hanzi-animation-6" stroke-dasharray="750 1500" stroke-linecap="round"></path>

      <clipPath id="make-me-a-hanzi-clip-7">
      <path d="M 515.5 214.5 Q 487.5 165.5 451.5 121.5 Q 427.5 94.5 441.5 61.5 Q 445.5 45.5 467.5 53.5 Q 518.5 86.5 532.5 159.5 Q 539.5 187.5 536.5 212.5 Q 532.5 219.5 527.5 221.5 Q 520.5 221.5 515.5 214.5 Z" fill="lightgray"></path>
      </clipPath>
      <path clip-path="url(#make-me-a-hanzi-clip-7)" d="M 525.5 210.5 L 501.5 141.5 L 463.5 85.5 L 457.5 66.5 " fill="none" id="make-me-a-hanzi-animation-7" stroke-dasharray="289 578" stroke-linecap="round"></path>

      <clipPath id="make-me-a-hanzi-clip-8">
      <path d="M 792.5 205.5 Q 834.5 157.5 884.5 90.5 Q 897.5 69.5 911.5 64.5 Q 918.5 61.5 927.5 70.5 Q 940.5 82.5 932.5 124.5 Q 929.5 163.5 862.5 200.5 Q 819.5 224.5 796.5 235.5 Q 787.5 241.5 785.5 229.5 Q 784.5 216.5 792.5 205.5 Z" fill="lightgray"></path>
      </clipPath>
      <path clip-path="url(#make-me-a-hanzi-clip-8)" d="M 795.5 224.5 L 881.5 149.5 L 906.5 111.5 L 915.5 78.5 " fill="none" id="make-me-a-hanzi-animation-8" stroke-dasharray="322 644" stroke-linecap="round"></path>

</g>
</svg>
