<svg version="1.1" viewBox="0 0 1024 1024" xmlns="http://www.w3.org/2000/svg">
  <g stroke="lightgray" stroke-dasharray="1,1" stroke-width="1" transform="scale(4, 4)">
    <line x1="0" y1="0" x2="256" y2="256"></line>
    <line x1="256" y1="0" x2="0" y2="256"></line>
    <line x1="128" y1="0" x2="128" y2="256"></line>
    <line x1="0" y1="128" x2="256" y2="128"></line>
  </g>
  <g transform="scale(0.92, -0.92) translate(60, -900)">
    <style type="text/css">
      
        @keyframes keyframes0 {
          from {
            stroke: blue;
            stroke-dashoffset: 550;
            stroke-width: 128;
          }
          64% {
            animation-timing-function: step-end;
            stroke: blue;
            stroke-dashoffset: 0;
            stroke-width: 128;
          }
          to {
            stroke: black;
            stroke-width: 1024;
          }
        }
        #make-me-a-hanzi-animation-0 {
          animation: keyframes0 0.6975911458333334s both;
          animation-delay: 0s;
          animation-timing-function: linear;
        }
      
        @keyframes keyframes1 {
          from {
            stroke: blue;
            stroke-dashoffset: 1104;
            stroke-width: 128;
          }
          78% {
            animation-timing-function: step-end;
            stroke: blue;
            stroke-dashoffset: 0;
            stroke-width: 128;
          }
          to {
            stroke: black;
            stroke-width: 1024;
          }
        }
        #make-me-a-hanzi-animation-1 {
          animation: keyframes1 1.1484375s both;
          animation-delay: 0.6975911458333334s;
          animation-timing-function: linear;
        }
      
        @keyframes keyframes2 {
          from {
            stroke: blue;
            stroke-dashoffset: 660;
            stroke-width: 128;
          }
          68% {
            animation-timing-function: step-end;
            stroke: blue;
            stroke-dashoffset: 0;
            stroke-width: 128;
          }
          to {
            stroke: black;
            stroke-width: 1024;
          }
        }
        #make-me-a-hanzi-animation-2 {
          animation: keyframes2 0.787109375s both;
          animation-delay: 1.8460286458333335s;
          animation-timing-function: linear;
        }
      
        @keyframes keyframes3 {
          from {
            stroke: blue;
            stroke-dashoffset: 358;
            stroke-width: 128;
          }
          54% {
            animation-timing-function: step-end;
            stroke: blue;
            stroke-dashoffset: 0;
            stroke-width: 128;
          }
          to {
            stroke: black;
            stroke-width: 1024;
          }
        }
        #make-me-a-hanzi-animation-3 {
          animation: keyframes3 0.5413411458333334s both;
          animation-delay: 2.6331380208333335s;
          animation-timing-function: linear;
        }
      
        @keyframes keyframes4 {
          from {
            stroke: blue;
            stroke-dashoffset: 700;
            stroke-width: 128;
          }
          69% {
            animation-timing-function: step-end;
            stroke: blue;
            stroke-dashoffset: 0;
            stroke-width: 128;
          }
          to {
            stroke: black;
            stroke-width: 1024;
          }
        }
        #make-me-a-hanzi-animation-4 {
          animation: keyframes4 0.8196614583333334s both;
          animation-delay: 3.174479166666667s;
          animation-timing-function: linear;
        }
      
        @keyframes keyframes5 {
          from {
            stroke: blue;
            stroke-dashoffset: 630;
            stroke-width: 128;
          }
          67% {
            animation-timing-function: step-end;
            stroke: blue;
            stroke-dashoffset: 0;
            stroke-width: 128;
          }
          to {
            stroke: black;
            stroke-width: 1024;
          }
        }
        #make-me-a-hanzi-animation-5 {
          animation: keyframes5 0.7626953125s both;
          animation-delay: 3.9941406250000004s;
          animation-timing-function: linear;
        }
      
        @keyframes keyframes6 {
          from {
            stroke: blue;
            stroke-dashoffset: 1155;
            stroke-width: 128;
          }
          79% {
            animation-timing-function: step-end;
            stroke: blue;
            stroke-dashoffset: 0;
            stroke-width: 128;
          }
          to {
            stroke: black;
            stroke-width: 1024;
          }
        }
        #make-me-a-hanzi-animation-6 {
          animation: keyframes6 1.18994140625s both;
          animation-delay: 4.7568359375s;
          animation-timing-function: linear;
        }
      
        @keyframes keyframes7 {
          from {
            stroke: blue;
            stroke-dashoffset: 671;
            stroke-width: 128;
          }
          69% {
            animation-timing-function: step-end;
            stroke: blue;
            stroke-dashoffset: 0;
            stroke-width: 128;
          }
          to {
            stroke: black;
            stroke-width: 1024;
          }
        }
        #make-me-a-hanzi-animation-7 {
          animation: keyframes7 0.7960611979166666s both;
          animation-delay: 5.94677734375s;
          animation-timing-function: linear;
        }
      
        @keyframes keyframes8 {
          from {
            stroke: blue;
            stroke-dashoffset: 725;
            stroke-width: 128;
          }
          70% {
            animation-timing-function: step-end;
            stroke: blue;
            stroke-dashoffset: 0;
            stroke-width: 128;
          }
          to {
            stroke: black;
            stroke-width: 1024;
          }
        }
        #make-me-a-hanzi-animation-8 {
          animation: keyframes8 0.8400065104166666s both;
          animation-delay: 6.742838541666667s;
          animation-timing-function: linear;
        }
      
        @keyframes keyframes9 {
          from {
            stroke: blue;
            stroke-dashoffset: 608;
            stroke-width: 128;
          }
          66% {
            animation-timing-function: step-end;
            stroke: blue;
            stroke-dashoffset: 0;
            stroke-width: 128;
          }
          to {
            stroke: black;
            stroke-width: 1024;
          }
        }
        #make-me-a-hanzi-animation-9 {
          animation: keyframes9 0.7447916666666666s both;
          animation-delay: 7.582845052083334s;
          animation-timing-function: linear;
        }
      
    </style>
    
      <path d="M 169 393 Q 196 393 258 400 L 310 413 L 345 420 Q 359 422 379 429 L 402 438 Q 417 444 399 460 Q 379 474 360 474 Q 341 474 331 470 Q 321 467 311 463 L 263 449 L 238 443 Q 192 433 152 428 L 123 424 Q 107 421 105 419 L 105 417 Q 107 393 169 393 Z" fill="lightgray"></path>
    
      <path d="M 261 294 L 255 184 Q 253 155 250 130 L 242 58 Q 240 22 233 -1 Q 227 -24 227 -26 Q 227 -57 244 -89 Q 250 -105 258 -114 Q 270 -132 283 -111 Q 307 -79 307 -36 Q 308 -24 303 105 Q 303 132 304 163 L 306 289 L 307 317 L 310 413 L 311 463 L 312 531 Q 312 548 318 599 Q 324 650 330 663 Q 337 675 337 677 Q 337 692 307 711 Q 277 730 260 731 Q 243 731 243 723 Q 243 720 246 713 L 254 692 Q 263 663 263 602 L 263 449 L 261 294 Z" fill="lightgray"></path>
    
      <path d="M 258 400 L 240 357 Q 232 337 220 312 Q 207 286 187 251 Q 138 168 71 96 L 50 74 Q 44 67 43 62 Q 43 56 59 62 L 86 78 Q 102 88 131 114 Q 161 140 182 167 Q 204 194 243 260 L 261 294 C 331 427 270 428 258 400 Z" fill="lightgray"></path>
    
      <path d="M 306 289 L 335 246 Q 347 229 354 221 Q 362 212 371 212 Q 381 211 386 215 Q 394 218 394 236 Q 394 276 354 295 Q 339 304 329 308 L 307 317 C 280 328 289 314 306 289 Z" fill="lightgray"></path>
    
      <path d="M 733 514 L 774 519 Q 816 523 845 529 L 870 535 Q 880 538 881 541 Q 882 543 882 548 Q 883 552 864 567 Q 841 581 824 581 Q 816 581 797 576 Q 778 570 745 563 L 678 551 Q 645 546 597 540 L 510 528 Q 470 523 464 523 L 437 520 Q 425 518 422 515 Q 420 510 427 502 Q 443 486 494 486 Q 511 486 561 490 L 607 496 L 693 508 L 733 514 Z" fill="lightgray"></path>
    
      <path d="M 441 315 Q 406 320 406 314 Q 406 308 410 300 L 422 281 Q 432 260 435 220 L 455 1 Q 458 -36 467 -47 Q 488 -73 495 -31 L 496 3 L 481 279 C 479 309 471 311 441 315 Z" fill="lightgray"></path>
    
      <path d="M 575 323 L 458 312 L 441 315 C 411 317 451 276 481 279 L 572 289 L 624 296 L 691 303 L 743 308 L 834 315 Q 875 317 880 312 Q 885 307 887 294 Q 888 263 882 202 L 877 139 Q 873 92 870 74 L 862 34 Q 856 15 853 15 C 842 -13 777 17 794 -8 L 811 -33 L 828 -66 Q 832 -76 839 -88 Q 846 -100 851 -101 Q 861 -101 873 -93 Q 911 -64 930 42 L 941 117 L 951 209 Q 954 266 971 292 Q 976 300 976 305 Q 977 309 970 319 Q 949 339 917 359 Q 905 364 898 365 Q 892 365 878 361 Q 865 357 851 354 L 816 350 Q 795 347 788 347 L 745 342 L 695 336 L 627 329 L 575 323 Z" fill="lightgray"></path>
    
      <path d="M 561 490 L 568 469 Q 570 463 573 433 Q 577 402 577 381 L 575 323 L 572 289 L 571 270 Q 565 207 545 166 Q 536 144 531 135 L 518 112 Q 516 108 516 104 Q 516 96 527 104 L 548 121 Q 572 145 593 186 Q 611 220 624 296 L 627 329 L 631 408 Q 631 438 634 453 L 639 472 Q 640 476 623 488 L 607 496 C 580 509 552 518 561 490 Z" fill="lightgray"></path>
    
      <path d="M 745 342 L 748 377 Q 753 449 759 465 Q 766 481 766 486 Q 766 493 751 502 L 733 514 C 708 531 689 538 693 508 L 697 479 L 695 336 L 691 303 L 691 265 Q 686 216 695 176 Q 704 140 739 130 Q 766 123 787 126 Q 822 126 844 138 Q 852 143 852 152 Q 852 160 838 171 Q 824 182 816 182 L 762 173 Q 732 171 737 230 L 739 270 L 743 308 L 745 342 Z" fill="lightgray"></path>
    
      <path d="M 495 -31 L 539 -28 Q 598 -27 670 -19 L 743 -12 Q 761 -10 794 -8 C 824 -6 880 2 853 15 Q 850 15 843 20 L 812 34 Q 798 39 772 35 L 742 30 Q 707 23 670 21 L 496 3 C 466 0 465 -33 495 -31 Z" fill="lightgray"></path>
    
    
      <clipPath id="make-me-a-hanzi-clip-0">
        <path d="M 169 393 Q 196 393 258 400 L 310 413 L 345 420 Q 359 422 379 429 L 402 438 Q 417 444 399 460 Q 379 474 360 474 Q 341 474 331 470 Q 321 467 311 463 L 263 449 L 238 443 Q 192 433 152 428 L 123 424 Q 107 421 105 419 L 105 417 Q 107 393 169 393 Z"></path>
      </clipPath>
      <path clip-path="url(#make-me-a-hanzi-clip-0)" d="M 109 418 L 140 409 L 184 412 L 246 420 L 353 448 L 397 449" fill="none" id="make-me-a-hanzi-animation-0" stroke-dasharray="422 844" stroke-linecap="round"></path>
    
      <clipPath id="make-me-a-hanzi-clip-1">
        <path d="M 261 294 L 255 184 Q 253 155 250 130 L 242 58 Q 240 22 233 -1 Q 227 -24 227 -26 Q 227 -57 244 -89 Q 250 -105 258 -114 Q 270 -132 283 -111 Q 307 -79 307 -36 Q 308 -24 303 105 Q 303 132 304 163 L 306 289 L 307 317 L 310 413 L 311 463 L 312 531 Q 312 548 318 599 Q 324 650 330 663 Q 337 675 337 677 Q 337 692 307 711 Q 277 730 260 731 Q 243 731 243 723 Q 243 720 246 713 L 254 692 Q 263 663 263 602 L 263 449 L 261 294 Z"></path>
      </clipPath>
      <path clip-path="url(#make-me-a-hanzi-clip-1)" d="M 253 721 L 295 677 L 280 171 L 267 -28 L 270 -109" fill="none" id="make-me-a-hanzi-animation-1" stroke-dasharray="976 1952" stroke-linecap="round"></path>
    
      <clipPath id="make-me-a-hanzi-clip-2">
        <path d="M 258 400 L 240 357 Q 232 337 220 312 Q 207 286 187 251 Q 138 168 71 96 L 50 74 Q 44 67 43 62 Q 43 56 59 62 L 86 78 Q 102 88 131 114 Q 161 140 182 167 Q 204 194 243 260 L 261 294 C 331 427 270 428 258 400 Z"></path>
      </clipPath>
      <path clip-path="url(#make-me-a-hanzi-clip-2)" d="M 262 393 L 257 392 L 240 302 L 191 215 L 126 131 L 49 66" fill="none" id="make-me-a-hanzi-animation-2" stroke-dasharray="532 1064" stroke-linecap="round"></path>
    
      <clipPath id="make-me-a-hanzi-clip-3">
        <path d="M 306 289 L 335 246 Q 347 229 354 221 Q 362 212 371 212 Q 381 211 386 215 Q 394 218 394 236 Q 394 276 354 295 Q 339 304 329 308 L 307 317 C 280 328 289 314 306 289 Z"></path>
      </clipPath>
      <path clip-path="url(#make-me-a-hanzi-clip-3)" d="M 311 310 L 357 262 L 375 231" fill="none" id="make-me-a-hanzi-animation-3" stroke-dasharray="230 460" stroke-linecap="round"></path>
    
      <clipPath id="make-me-a-hanzi-clip-4">
        <path d="M 733 514 L 774 519 Q 816 523 845 529 L 870 535 Q 880 538 881 541 Q 882 543 882 548 Q 883 552 864 567 Q 841 581 824 581 Q 816 581 797 576 Q 778 570 745 563 L 678 551 Q 645 546 597 540 L 510 528 Q 470 523 464 523 L 437 520 Q 425 518 422 515 Q 420 510 427 502 Q 443 486 494 486 Q 511 486 561 490 L 607 496 L 693 508 L 733 514 Z"></path>
      </clipPath>
      <path clip-path="url(#make-me-a-hanzi-clip-4)" d="M 432 511 L 456 505 L 533 509 L 827 554 L 871 546" fill="none" id="make-me-a-hanzi-animation-4" stroke-dasharray="572 1144" stroke-linecap="round"></path>
    
      <clipPath id="make-me-a-hanzi-clip-5">
        <path d="M 441 315 Q 406 320 406 314 Q 406 308 410 300 L 422 281 Q 432 260 435 220 L 455 1 Q 458 -36 467 -47 Q 488 -73 495 -31 L 496 3 L 481 279 C 479 309 471 311 441 315 Z"></path>
      </clipPath>
      <path clip-path="url(#make-me-a-hanzi-clip-5)" d="M 413 308 L 430 302 L 455 266 L 479 -45" fill="none" id="make-me-a-hanzi-animation-5" stroke-dasharray="502 1004" stroke-linecap="round"></path>
    
      <clipPath id="make-me-a-hanzi-clip-6">
        <path d="M 575 323 L 458 312 L 441 315 C 411 317 451 276 481 279 L 572 289 L 624 296 L 691 303 L 743 308 L 834 315 Q 875 317 880 312 Q 885 307 887 294 Q 888 263 882 202 L 877 139 Q 873 92 870 74 L 862 34 Q 856 15 853 15 C 842 -13 777 17 794 -8 L 811 -33 L 828 -66 Q 832 -76 839 -88 Q 846 -100 851 -101 Q 861 -101 873 -93 Q 911 -64 930 42 L 941 117 L 951 209 Q 954 266 971 292 Q 976 300 976 305 Q 977 309 970 319 Q 949 339 917 359 Q 905 364 898 365 Q 892 365 878 361 Q 865 357 851 354 L 816 350 Q 795 347 788 347 L 745 342 L 695 336 L 627 329 L 575 323 Z"></path>
      </clipPath>
      <path clip-path="url(#make-me-a-hanzi-clip-6)" d="M 453 310 L 487 297 L 877 338 L 906 329 L 928 300 L 892 19 L 880 -11 L 862 -31 L 804 -11" fill="none" id="make-me-a-hanzi-animation-6" stroke-dasharray="1027 2054" stroke-linecap="round"></path>
    
      <clipPath id="make-me-a-hanzi-clip-7">
        <path d="M 561 490 L 568 469 Q 570 463 573 433 Q 577 402 577 381 L 575 323 L 572 289 L 571 270 Q 565 207 545 166 Q 536 144 531 135 L 518 112 Q 516 108 516 104 Q 516 96 527 104 L 548 121 Q 572 145 593 186 Q 611 220 624 296 L 627 329 L 631 408 Q 631 438 634 453 L 639 472 Q 640 476 623 488 L 607 496 C 580 509 552 518 561 490 Z"></path>
      </clipPath>
      <path clip-path="url(#make-me-a-hanzi-clip-7)" d="M 569 487 L 602 461 L 603 354 L 596 273 L 574 186 L 552 145 L 522 107" fill="none" id="make-me-a-hanzi-animation-7" stroke-dasharray="543 1086" stroke-linecap="round"></path>
    
      <clipPath id="make-me-a-hanzi-clip-8">
        <path d="M 745 342 L 748 377 Q 753 449 759 465 Q 766 481 766 486 Q 766 493 751 502 L 733 514 C 708 531 689 538 693 508 L 697 479 L 695 336 L 691 303 L 691 265 Q 686 216 695 176 Q 704 140 739 130 Q 766 123 787 126 Q 822 126 844 138 Q 852 143 852 152 Q 852 160 838 171 Q 824 182 816 182 L 762 173 Q 732 171 737 230 L 739 270 L 743 308 L 745 342 Z"></path>
      </clipPath>
      <path clip-path="url(#make-me-a-hanzi-clip-8)" d="M 701 502 L 729 478 L 713 226 L 719 176 L 731 160 L 751 151 L 838 151" fill="none" id="make-me-a-hanzi-animation-8" stroke-dasharray="597 1194" stroke-linecap="round"></path>
    
      <clipPath id="make-me-a-hanzi-clip-9">
        <path d="M 495 -31 L 539 -28 Q 598 -27 670 -19 L 743 -12 Q 761 -10 794 -8 C 824 -6 880 2 853 15 Q 850 15 843 20 L 812 34 Q 798 39 772 35 L 742 30 Q 707 23 670 21 L 496 3 C 466 0 465 -33 495 -31 Z"></path>
      </clipPath>
      <path clip-path="url(#make-me-a-hanzi-clip-9)" d="M 502 -26 L 510 -14 L 521 -11 L 803 17 L 845 12" fill="none" id="make-me-a-hanzi-animation-9" stroke-dasharray="480 960" stroke-linecap="round"></path>
    
  </g>
</svg>