<svg version="1.1" viewBox="0 0 1024 1024" xmlns="http://www.w3.org/2000/svg">
  <g stroke="lightgray" stroke-dasharray="1,1" stroke-width="1" transform="scale(4, 4)">
    <line x1="0" y1="0" x2="256" y2="256"></line>
    <line x1="256" y1="0" x2="0" y2="256"></line>
    <line x1="128" y1="0" x2="128" y2="256"></line>
    <line x1="0" y1="128" x2="256" y2="128"></line>
  </g>
  <g transform="scale(0.92, -0.92) translate(60, -850)">
    <style type="text/css">
      
        @keyframes keyframes0 {
          from {
            stroke: blue;
            stroke-dashoffset: 569;
            stroke-width: 128;
          }
          65% {
            animation-timing-function: step-end;
            stroke: blue;
            stroke-dashoffset: 0;
            stroke-width: 128;
          }
          to {
            stroke: black;
            stroke-width: 1024;
          }
        }
        #make-me-a-hanzi-animation-0 {
          animation: keyframes0 0.7130533854166666s both;
          animation-delay: 0s;
          animation-timing-function: linear;
        }
      
        @keyframes keyframes1 {
          from {
            stroke: blue;
            stroke-dashoffset: 1118;
            stroke-width: 128;
          }
          78% {
            animation-timing-function: step-end;
            stroke: blue;
            stroke-dashoffset: 0;
            stroke-width: 128;
          }
          to {
            stroke: black;
            stroke-width: 1024;
          }
        }
        #make-me-a-hanzi-animation-1 {
          animation: keyframes1 1.1598307291666667s both;
          animation-delay: 0.7130533854166666s;
          animation-timing-function: linear;
        }
      
        @keyframes keyframes2 {
          from {
            stroke: blue;
            stroke-dashoffset: 649;
            stroke-width: 128;
          }
          68% {
            animation-timing-function: step-end;
            stroke: blue;
            stroke-dashoffset: 0;
            stroke-width: 128;
          }
          to {
            stroke: black;
            stroke-width: 1024;
          }
        }
        #make-me-a-hanzi-animation-2 {
          animation: keyframes2 0.7781575520833334s both;
          animation-delay: 1.8728841145833335s;
          animation-timing-function: linear;
        }
      
        @keyframes keyframes3 {
          from {
            stroke: blue;
            stroke-dashoffset: 376;
            stroke-width: 128;
          }
          55% {
            animation-timing-function: step-end;
            stroke: blue;
            stroke-dashoffset: 0;
            stroke-width: 128;
          }
          to {
            stroke: black;
            stroke-width: 1024;
          }
        }
        #make-me-a-hanzi-animation-3 {
          animation: keyframes3 0.5559895833333334s both;
          animation-delay: 2.651041666666667s;
          animation-timing-function: linear;
        }
      
        @keyframes keyframes4 {
          from {
            stroke: blue;
            stroke-dashoffset: 380;
            stroke-width: 128;
          }
          55% {
            animation-timing-function: step-end;
            stroke: blue;
            stroke-dashoffset: 0;
            stroke-width: 128;
          }
          to {
            stroke: black;
            stroke-width: 1024;
          }
        }
        #make-me-a-hanzi-animation-4 {
          animation: keyframes4 0.5592447916666666s both;
          animation-delay: 3.2070312500000004s;
          animation-timing-function: linear;
        }
      
        @keyframes keyframes5 {
          from {
            stroke: blue;
            stroke-dashoffset: 733;
            stroke-width: 128;
          }
          70% {
            animation-timing-function: step-end;
            stroke: blue;
            stroke-dashoffset: 0;
            stroke-width: 128;
          }
          to {
            stroke: black;
            stroke-width: 1024;
          }
        }
        #make-me-a-hanzi-animation-5 {
          animation: keyframes5 0.8465169270833334s both;
          animation-delay: 3.766276041666667s;
          animation-timing-function: linear;
        }
      
        @keyframes keyframes6 {
          from {
            stroke: blue;
            stroke-dashoffset: 525;
            stroke-width: 128;
          }
          63% {
            animation-timing-function: step-end;
            stroke: blue;
            stroke-dashoffset: 0;
            stroke-width: 128;
          }
          to {
            stroke: black;
            stroke-width: 1024;
          }
        }
        #make-me-a-hanzi-animation-6 {
          animation: keyframes6 0.67724609375s both;
          animation-delay: 4.61279296875s;
          animation-timing-function: linear;
        }
      
        @keyframes keyframes7 {
          from {
            stroke: blue;
            stroke-dashoffset: 817;
            stroke-width: 128;
          }
          73% {
            animation-timing-function: step-end;
            stroke: blue;
            stroke-dashoffset: 0;
            stroke-width: 128;
          }
          to {
            stroke: black;
            stroke-width: 1024;
          }
        }
        #make-me-a-hanzi-animation-7 {
          animation: keyframes7 0.9148763020833334s both;
          animation-delay: 5.2900390625s;
          animation-timing-function: linear;
        }
      
        @keyframes keyframes8 {
          from {
            stroke: blue;
            stroke-dashoffset: 373;
            stroke-width: 128;
          }
          55% {
            animation-timing-function: step-end;
            stroke: blue;
            stroke-dashoffset: 0;
            stroke-width: 128;
          }
          to {
            stroke: black;
            stroke-width: 1024;
          }
        }
        #make-me-a-hanzi-animation-8 {
          animation: keyframes8 0.5535481770833334s both;
          animation-delay: 6.204915364583333s;
          animation-timing-function: linear;
        }
      
        @keyframes keyframes9 {
          from {
            stroke: blue;
            stroke-dashoffset: 429;
            stroke-width: 128;
          }
          58% {
            animation-timing-function: step-end;
            stroke: blue;
            stroke-dashoffset: 0;
            stroke-width: 128;
          }
          to {
            stroke: black;
            stroke-width: 1024;
          }
        }
        #make-me-a-hanzi-animation-9 {
          animation: keyframes9 0.59912109375s both;
          animation-delay: 6.758463541666666s;
          animation-timing-function: linear;
        }
      
        @keyframes keyframes10 {
          from {
            stroke: blue;
            stroke-dashoffset: 354;
            stroke-width: 128;
          }
          54% {
            animation-timing-function: step-end;
            stroke: blue;
            stroke-dashoffset: 0;
            stroke-width: 128;
          }
          to {
            stroke: black;
            stroke-width: 1024;
          }
        }
        #make-me-a-hanzi-animation-10 {
          animation: keyframes10 0.5380859375s both;
          animation-delay: 7.357584635416666s;
          animation-timing-function: linear;
        }
      
        @keyframes keyframes11 {
          from {
            stroke: blue;
            stroke-dashoffset: 476;
            stroke-width: 128;
          }
          61% {
            animation-timing-function: step-end;
            stroke: blue;
            stroke-dashoffset: 0;
            stroke-width: 128;
          }
          to {
            stroke: black;
            stroke-width: 1024;
          }
        }
        #make-me-a-hanzi-animation-11 {
          animation: keyframes11 0.6373697916666666s both;
          animation-delay: 7.895670572916666s;
          animation-timing-function: linear;
        }
      
        @keyframes keyframes12 {
          from {
            stroke: blue;
            stroke-dashoffset: 469;
            stroke-width: 128;
          }
          60% {
            animation-timing-function: step-end;
            stroke: blue;
            stroke-dashoffset: 0;
            stroke-width: 128;
          }
          to {
            stroke: black;
            stroke-width: 1024;
          }
        }
        #make-me-a-hanzi-animation-12 {
          animation: keyframes12 0.6316731770833334s both;
          animation-delay: 8.533040364583332s;
          animation-timing-function: linear;
        }
      
        @keyframes keyframes13 {
          from {
            stroke: blue;
            stroke-dashoffset: 714;
            stroke-width: 128;
          }
          70% {
            animation-timing-function: step-end;
            stroke: blue;
            stroke-dashoffset: 0;
            stroke-width: 128;
          }
          to {
            stroke: black;
            stroke-width: 1024;
          }
        }
        #make-me-a-hanzi-animation-13 {
          animation: keyframes13 0.8310546875s both;
          animation-delay: 9.164713541666666s;
          animation-timing-function: linear;
        }
      
        @keyframes keyframes14 {
          from {
            stroke: blue;
            stroke-dashoffset: 464;
            stroke-width: 128;
          }
          60% {
            animation-timing-function: step-end;
            stroke: blue;
            stroke-dashoffset: 0;
            stroke-width: 128;
          }
          to {
            stroke: black;
            stroke-width: 1024;
          }
        }
        #make-me-a-hanzi-animation-14 {
          animation: keyframes14 0.6276041666666666s both;
          animation-delay: 9.995768229166666s;
          animation-timing-function: linear;
        }
      
        @keyframes keyframes15 {
          from {
            stroke: blue;
            stroke-dashoffset: 443;
            stroke-width: 128;
          }
          59% {
            animation-timing-function: step-end;
            stroke: blue;
            stroke-dashoffset: 0;
            stroke-width: 128;
          }
          to {
            stroke: black;
            stroke-width: 1024;
          }
        }
        #make-me-a-hanzi-animation-15 {
          animation: keyframes15 0.6105143229166666s both;
          animation-delay: 10.623372395833332s;
          animation-timing-function: linear;
        }
      
        @keyframes keyframes16 {
          from {
            stroke: blue;
            stroke-dashoffset: 869;
            stroke-width: 128;
          }
          74% {
            animation-timing-function: step-end;
            stroke: blue;
            stroke-dashoffset: 0;
            stroke-width: 128;
          }
          to {
            stroke: black;
            stroke-width: 1024;
          }
        }
        #make-me-a-hanzi-animation-16 {
          animation: keyframes16 0.9571940104166666s both;
          animation-delay: 11.233886718749998s;
          animation-timing-function: linear;
        }
      
    </style>
    
      <path d="M 300 408 L 373 422 L 392 427 Q 411 432 411 443 Q 411 450 407 454 Q 401 459 386 464 L 366 470 Q 339 470 334 469 L 323 463 L 304 456 L 254 445 L 196 432 L 103 418 Q 82 415 82 412 Q 81 406 88 399 Q 95 391 111 388 Q 137 379 175 388 L 193 390 Q 205 391 210 393 Q 218 393 227 395 L 248 398 L 300 408 Z" fill="lightgray"></path>
    
      <path d="M 296 334 L 300 408 L 304 456 L 308 533 L 311 563 Q 313 606 322 630 Q 331 654 329 661 Q 328 667 319 676 Q 304 688 296 691 Q 282 700 270 704 Q 239 717 233 704 Q 231 696 241 669 Q 252 641 254 575 L 256 539 L 254 445 L 250 286 L 243 116 Q 235 16 225 -21 Q 216 -58 215 -66 Q 214 -75 218 -85 L 226 -113 Q 230 -123 239 -137 L 248 -150 Q 253 -162 266 -142 Q 278 -127 283 -106 L 290 -81 L 290 17 L 296 310 L 296 334 Z" fill="lightgray"></path>
    
      <path d="M 248 398 L 229 349 Q 191 273 167 235 L 123 170 Q 110 152 82 120 L 42 75 Q 39 69 40 65 Q 41 61 50 66 L 65 74 Q 124 102 199 202 L 250 286 C 332 421 259 426 248 398 Z" fill="lightgray"></path>
    
      <path d="M 358 314 L 296 334 C 267 343 276 332 296 310 L 353 249 Q 360 238 371 233 Q 395 221 402 235 Q 406 242 409 252 Q 411 280 387 300 Q 375 310 358 314 Z" fill="lightgray"></path>
    
      <path d="M 674 599 L 680 614 Q 686 641 676 660 Q 669 682 608 696 Q 580 703 576 699 Q 572 692 584 673 L 598 645 Q 605 633 615 620 Q 617 612 634 591 C 653 568 663 571 674 599 Z" fill="lightgray"></path>
    
      <path d="M 819 627 L 763 614 L 722 608 L 674 599 L 634 591 L 468 569 Q 455 566 449 566 L 422 563 Q 409 563 409 558 Q 406 554 416 547 Q 425 538 443 533 Q 462 528 467 528 L 642 561 L 719 569 Q 789 576 799 576 L 850 578 L 869 580 Q 878 581 887 584 L 895 591 Q 896 595 884 604 Q 873 612 851 620 Q 830 627 819 627 Z" fill="lightgray"></path>
    
      <path d="M 494 477 L 449 483 Q 434 486 428 483 Q 417 476 432 465 Q 460 448 468 390 L 489 258 Q 493 231 505 226 Q 510 223 511 224 L 517 225 Q 522 227 527 248 L 527 276 L 498 454 C 494 477 494 477 494 477 Z" fill="lightgray"></path>
    
      <path d="M 752 263 L 764 253 Q 768 246 782 248 Q 796 250 804 262 Q 813 278 821 304 L 858 431 Q 862 444 868 452 L 876 464 Q 880 470 880 477 Q 880 483 867 493 Q 854 503 824 517 Q 794 530 782 530 Q 771 529 739 519 L 670 501 L 608 489 Q 575 484 546 482 Q 515 478 494 477 C 464 475 468 454 498 454 L 526 454 Q 529 452 553 455 Q 577 457 581 458 L 712 478 Q 729 479 740 482 Q 752 485 772 482 Q 787 478 787 455 Q 783 414 782 412 L 756 289 C 751 264 751 264 752 263 Z" fill="lightgray"></path>
    
      <path d="M 585 414 L 548 418 Q 537 418 537 414 L 537 410 Q 539 407 545 403 L 555 394 L 563 374 L 579 311 Q 582 300 591 302 Q 601 303 603 308 L 607 318 L 605 345 L 600 396 C 598 413 598 413 585 414 Z" fill="lightgray"></path>
    
      <path d="M 704 348 L 711 369 Q 711 371 716 384 Q 722 397 728 403 Q 734 408 734 410 Q 734 412 735 412 L 736 413 Q 737 417 729 425 Q 721 432 705 436 Q 688 442 682 441 Q 677 440 655 432 Q 633 424 623 421 Q 613 418 585 414 C 555 410 571 390 600 396 L 645 405 L 672 408 Q 679 401 676 380 L 671 355 C 665 326 695 320 704 348 Z" fill="lightgray"></path>
    
      <path d="M 607 318 L 691 327 Q 708 328 710 330 Q 712 332 708 338 L 704 348 C 699 360 699 360 671 355 L 645 350 L 605 345 C 575 341 577 315 607 318 Z" fill="lightgray"></path>
    
      <path d="M 527 248 L 544 244 Q 556 242 584 246 L 752 263 C 782 266 785 281 756 289 L 737 294 Q 727 296 724 296 L 598 281 Q 559 276 527 276 C 497 276 498 255 527 248 Z" fill="lightgray"></path>
    
      <path d="M 462 182 Q 462 178 468 169 L 481 153 Q 491 138 496 104 L 508 14 Q 510 -3 519 -15 Q 528 -27 539 -22 Q 542 -22 548 -6 L 550 23 L 546 75 L 545 94 L 539 154 C 537 175 537 175 531 177 L 507 184 Q 462 198 462 182 Z" fill="lightgray"></path>
    
      <path d="M 741 7 L 748 -8 Q 752 -15 765 -17 Q 778 -19 786 -6 Q 795 7 804 38 L 829 112 L 834 134 Q 839 146 848 159 Q 857 171 857 174 Q 857 177 853 181 L 845 189 Q 841 193 812 209 Q 783 224 764 221 L 698 204 L 650 194 Q 631 190 613 188 L 531 177 C 501 173 509 150 539 154 L 720 178 Q 744 181 753 180 Q 762 179 766 170 L 770 158 Q 770 154 769 149 L 764 112 L 761 100 L 747 33 C 741 6 741 8 741 7 Z" fill="lightgray"></path>
    
      <path d="M 764 112 L 745 121 Q 730 124 708 122 L 653 111 L 545 94 C 515 89 517 81 546 75 L 565 71 Q 569 70 594 74 L 761 100 C 782 103 782 103 764 112 Z" fill="lightgray"></path>
    
      <path d="M 548 -6 L 569 -8 Q 580 -8 621 -4 L 741 7 C 771 10 775 21 747 33 L 735 38 Q 721 40 714 40 L 550 23 C 520 20 518 -3 548 -6 Z" fill="lightgray"></path>
    
      <path d="M 981 -80 Q 981 -74 967 -63 Q 954 -53 948 -50 L 931 -42 Q 919 -36 899 -33 Q 880 -30 853 -36 Q 827 -42 790 -45 L 472 -71 Q 467 -72 452 -72 L 371 -78 Q 359 -78 356 -82 Q 354 -87 358 -94 Q 362 -101 375 -105 L 399 -116 Q 416 -127 427 -126 Q 438 -125 451 -120 Q 465 -116 497 -112 L 544 -105 Q 582 -101 613 -100 L 731 -92 Q 796 -88 840 -89 L 951 -92 Q 978 -92 981 -80 Z" fill="lightgray"></path>
    
    
      <clipPath id="make-me-a-hanzi-clip-0">
        <path d="M 300 408 L 373 422 L 392 427 Q 411 432 411 443 Q 411 450 407 454 Q 401 459 386 464 L 366 470 Q 339 470 334 469 L 323 463 L 304 456 L 254 445 L 196 432 L 103 418 Q 82 415 82 412 Q 81 406 88 399 Q 95 391 111 388 Q 137 379 175 388 L 193 390 Q 205 391 210 393 Q 218 393 227 395 L 248 398 L 300 408 Z"></path>
      </clipPath>
      <path clip-path="url(#make-me-a-hanzi-clip-0)" d="M 88 407 L 151 404 L 341 443 L 397 444" fill="none" id="make-me-a-hanzi-animation-0" stroke-dasharray="441 882" stroke-linecap="round"></path>
    
      <clipPath id="make-me-a-hanzi-clip-1">
        <path d="M 296 334 L 300 408 L 304 456 L 308 533 L 311 563 Q 313 606 322 630 Q 331 654 329 661 Q 328 667 319 676 Q 304 688 296 691 Q 282 700 270 704 Q 239 717 233 704 Q 231 696 241 669 Q 252 641 254 575 L 256 539 L 254 445 L 250 286 L 243 116 Q 235 16 225 -21 Q 216 -58 215 -66 Q 214 -75 218 -85 L 226 -113 Q 230 -123 239 -137 L 248 -150 Q 253 -162 266 -142 Q 278 -127 283 -106 L 290 -81 L 290 17 L 296 310 L 296 334 Z"></path>
      </clipPath>
      <path clip-path="url(#make-me-a-hanzi-clip-1)" d="M 242 700 L 287 650 L 269 133 L 253 -70 L 256 -144" fill="none" id="make-me-a-hanzi-animation-1" stroke-dasharray="990 1980" stroke-linecap="round"></path>
    
      <clipPath id="make-me-a-hanzi-clip-2">
        <path d="M 248 398 L 229 349 Q 191 273 167 235 L 123 170 Q 110 152 82 120 L 42 75 Q 39 69 40 65 Q 41 61 50 66 L 65 74 Q 124 102 199 202 L 250 286 C 332 421 259 426 248 398 Z"></path>
      </clipPath>
      <path clip-path="url(#make-me-a-hanzi-clip-2)" d="M 252 392 L 227 292 L 184 219 L 132 149 L 45 69" fill="none" id="make-me-a-hanzi-animation-2" stroke-dasharray="521 1042" stroke-linecap="round"></path>
    
      <clipPath id="make-me-a-hanzi-clip-3">
        <path d="M 358 314 L 296 334 C 267 343 276 332 296 310 L 353 249 Q 360 238 371 233 Q 395 221 402 235 Q 406 242 409 252 Q 411 280 387 300 Q 375 310 358 314 Z"></path>
      </clipPath>
      <path clip-path="url(#make-me-a-hanzi-clip-3)" d="M 301 328 L 311 314 L 366 279 L 386 247" fill="none" id="make-me-a-hanzi-animation-3" stroke-dasharray="248 496" stroke-linecap="round"></path>
    
      <clipPath id="make-me-a-hanzi-clip-4">
        <path d="M 674 599 L 680 614 Q 686 641 676 660 Q 669 682 608 696 Q 580 703 576 699 Q 572 692 584 673 L 598 645 Q 605 633 615 620 Q 617 612 634 591 C 653 568 663 571 674 599 Z"></path>
      </clipPath>
      <path clip-path="url(#make-me-a-hanzi-clip-4)" d="M 580 694 L 642 645 L 666 607" fill="none" id="make-me-a-hanzi-animation-4" stroke-dasharray="252 504" stroke-linecap="round"></path>
    
      <clipPath id="make-me-a-hanzi-clip-5">
        <path d="M 819 627 L 763 614 L 722 608 L 674 599 L 634 591 L 468 569 Q 455 566 449 566 L 422 563 Q 409 563 409 558 Q 406 554 416 547 Q 425 538 443 533 Q 462 528 467 528 L 642 561 L 719 569 Q 789 576 799 576 L 850 578 L 869 580 Q 878 581 887 584 L 895 591 Q 896 595 884 604 Q 873 612 851 620 Q 830 627 819 627 Z"></path>
      </clipPath>
      <path clip-path="url(#make-me-a-hanzi-clip-5)" d="M 417 556 L 471 548 L 821 602 L 888 591" fill="none" id="make-me-a-hanzi-animation-5" stroke-dasharray="605 1210" stroke-linecap="round"></path>
    
      <clipPath id="make-me-a-hanzi-clip-6">
        <path d="M 494 477 L 449 483 Q 434 486 428 483 Q 417 476 432 465 Q 460 448 468 390 L 489 258 Q 493 231 505 226 Q 510 223 511 224 L 517 225 Q 522 227 527 248 L 527 276 L 498 454 C 494 477 494 477 494 477 Z"></path>
      </clipPath>
      <path clip-path="url(#make-me-a-hanzi-clip-6)" d="M 433 475 L 469 459 L 482 428 L 512 234" fill="none" id="make-me-a-hanzi-animation-6" stroke-dasharray="397 794" stroke-linecap="round"></path>
    
      <clipPath id="make-me-a-hanzi-clip-7">
        <path d="M 752 263 L 764 253 Q 768 246 782 248 Q 796 250 804 262 Q 813 278 821 304 L 858 431 Q 862 444 868 452 L 876 464 Q 880 470 880 477 Q 880 483 867 493 Q 854 503 824 517 Q 794 530 782 530 Q 771 529 739 519 L 670 501 L 608 489 Q 575 484 546 482 Q 515 478 494 477 C 464 475 468 454 498 454 L 526 454 Q 529 452 553 455 Q 577 457 581 458 L 712 478 Q 729 479 740 482 Q 752 485 772 482 Q 787 478 787 455 Q 783 414 782 412 L 756 289 C 751 264 751 264 752 263 Z"></path>
      </clipPath>
      <path clip-path="url(#make-me-a-hanzi-clip-7)" d="M 500 472 L 519 465 L 561 468 L 754 504 L 783 505 L 804 494 L 828 467 L 782 278 L 766 268" fill="none" id="make-me-a-hanzi-animation-7" stroke-dasharray="689 1378" stroke-linecap="round"></path>
    
      <clipPath id="make-me-a-hanzi-clip-8">
        <path d="M 585 414 L 548 418 Q 537 418 537 414 L 537 410 Q 539 407 545 403 L 555 394 L 563 374 L 579 311 Q 582 300 591 302 Q 601 303 603 308 L 607 318 L 605 345 L 600 396 C 598 413 598 413 585 414 Z"></path>
      </clipPath>
      <path clip-path="url(#make-me-a-hanzi-clip-8)" d="M 544 412 L 565 404 L 580 387 L 592 316" fill="none" id="make-me-a-hanzi-animation-8" stroke-dasharray="245 490" stroke-linecap="round"></path>
    
      <clipPath id="make-me-a-hanzi-clip-9">
        <path d="M 704 348 L 711 369 Q 711 371 716 384 Q 722 397 728 403 Q 734 408 734 410 Q 734 412 735 412 L 736 413 Q 737 417 729 425 Q 721 432 705 436 Q 688 442 682 441 Q 677 440 655 432 Q 633 424 623 421 Q 613 418 585 414 C 555 410 571 390 600 396 L 645 405 L 672 408 Q 679 401 676 380 L 671 355 C 665 326 695 320 704 348 Z"></path>
      </clipPath>
      <path clip-path="url(#make-me-a-hanzi-clip-9)" d="M 594 414 L 606 406 L 668 423 L 692 418 L 700 410 L 696 382 L 691 368 L 678 360" fill="none" id="make-me-a-hanzi-animation-9" stroke-dasharray="301 602" stroke-linecap="round"></path>
    
      <clipPath id="make-me-a-hanzi-clip-10">
        <path d="M 607 318 L 691 327 Q 708 328 710 330 Q 712 332 708 338 L 704 348 C 699 360 699 360 671 355 L 645 350 L 605 345 C 575 341 577 315 607 318 Z"></path>
      </clipPath>
      <path clip-path="url(#make-me-a-hanzi-clip-10)" d="M 613 325 L 620 333 L 674 340 L 706 333" fill="none" id="make-me-a-hanzi-animation-10" stroke-dasharray="226 452" stroke-linecap="round"></path>
    
      <clipPath id="make-me-a-hanzi-clip-11">
        <path d="M 527 248 L 544 244 Q 556 242 584 246 L 752 263 C 782 266 785 281 756 289 L 737 294 Q 727 296 724 296 L 598 281 Q 559 276 527 276 C 497 276 498 255 527 248 Z"></path>
      </clipPath>
      <path clip-path="url(#make-me-a-hanzi-clip-11)" d="M 534 269 L 543 260 L 560 260 L 749 283" fill="none" id="make-me-a-hanzi-animation-11" stroke-dasharray="348 696" stroke-linecap="round"></path>
    
      <clipPath id="make-me-a-hanzi-clip-12">
        <path d="M 462 182 Q 462 178 468 169 L 481 153 Q 491 138 496 104 L 508 14 Q 510 -3 519 -15 Q 528 -27 539 -22 Q 542 -22 548 -6 L 550 23 L 546 75 L 545 94 L 539 154 C 537 175 537 175 531 177 L 507 184 Q 462 198 462 182 Z"></path>
      </clipPath>
      <path clip-path="url(#make-me-a-hanzi-clip-12)" d="M 474 179 L 506 159 L 513 148 L 533 -13" fill="none" id="make-me-a-hanzi-animation-12" stroke-dasharray="341 682" stroke-linecap="round"></path>
    
      <clipPath id="make-me-a-hanzi-clip-13">
        <path d="M 741 7 L 748 -8 Q 752 -15 765 -17 Q 778 -19 786 -6 Q 795 7 804 38 L 829 112 L 834 134 Q 839 146 848 159 Q 857 171 857 174 Q 857 177 853 181 L 845 189 Q 841 193 812 209 Q 783 224 764 221 L 698 204 L 650 194 Q 631 190 613 188 L 531 177 C 501 173 509 150 539 154 L 720 178 Q 744 181 753 180 Q 762 179 766 170 L 770 158 Q 770 154 769 149 L 764 112 L 761 100 L 747 33 C 741 6 741 8 741 7 Z"></path>
      </clipPath>
      <path clip-path="url(#make-me-a-hanzi-clip-13)" d="M 538 173 L 560 168 L 750 199 L 776 197 L 793 185 L 808 167 L 806 156 L 771 21 L 767 10 L 757 10" fill="none" id="make-me-a-hanzi-animation-13" stroke-dasharray="586 1172" stroke-linecap="round"></path>
    
      <clipPath id="make-me-a-hanzi-clip-14">
        <path d="M 764 112 L 745 121 Q 730 124 708 122 L 653 111 L 545 94 C 515 89 517 81 546 75 L 565 71 Q 569 70 594 74 L 761 100 C 782 103 782 103 764 112 Z"></path>
      </clipPath>
      <path clip-path="url(#make-me-a-hanzi-clip-14)" d="M 552 80 L 557 85 L 716 108 L 756 108" fill="none" id="make-me-a-hanzi-animation-14" stroke-dasharray="336 672" stroke-linecap="round"></path>
    
      <clipPath id="make-me-a-hanzi-clip-15">
        <path d="M 548 -6 L 569 -8 Q 580 -8 621 -4 L 741 7 C 771 10 775 21 747 33 L 735 38 Q 721 40 714 40 L 550 23 C 520 20 518 -3 548 -6 Z"></path>
      </clipPath>
      <path clip-path="url(#make-me-a-hanzi-clip-15)" d="M 554 1 L 565 8 L 738 28" fill="none" id="make-me-a-hanzi-animation-15" stroke-dasharray="315 630" stroke-linecap="round"></path>
    
      <clipPath id="make-me-a-hanzi-clip-16">
        <path d="M 981 -80 Q 981 -74 967 -63 Q 954 -53 948 -50 L 931 -42 Q 919 -36 899 -33 Q 880 -30 853 -36 Q 827 -42 790 -45 L 472 -71 Q 467 -72 452 -72 L 371 -78 Q 359 -78 356 -82 Q 354 -87 358 -94 Q 362 -101 375 -105 L 399 -116 Q 416 -127 427 -126 Q 438 -125 451 -120 Q 465 -116 497 -112 L 544 -105 Q 582 -101 613 -100 L 731 -92 Q 796 -88 840 -89 L 951 -92 Q 978 -92 981 -80 Z"></path>
      </clipPath>
      <path clip-path="url(#make-me-a-hanzi-clip-16)" d="M 365 -87 L 425 -100 L 545 -84 L 880 -61 L 973 -79" fill="none" id="make-me-a-hanzi-animation-16" stroke-dasharray="741 1482" stroke-linecap="round"></path>
    
  </g>
</svg>