<svg version="1.1" viewBox="0 0 1024 1024" xmlns="http://www.w3.org/2000/svg">
  <g stroke="lightgray" stroke-dasharray="1,1" stroke-width="1" transform="scale(4, 4)">
    <line x1="0" y1="0" x2="256" y2="256"></line>
    <line x1="256" y1="0" x2="0" y2="256"></line>
    <line x1="128" y1="0" x2="128" y2="256"></line>
    <line x1="0" y1="128" x2="256" y2="128"></line>
  </g>
<g transform="scale(0.92, -0.92) translate(60, -900)">
   <style type="text/css">
    @keyframes keyframes0 {
      from {
       stroke: blue;
       stroke-dashoffset: 601;
       stroke-width: 128;
       }
       66% {
       animation-timing-function: step-end;
       stroke: blue;
       stroke-dashoffset: 0;
       stroke-width: 128;
       }
       to {
       stroke: black;
       stroke-width: 1024;
       }
       }
       #make-me-a-hanzi-animation-0 {
         animation: keyframes0 0.739095s both;
         animation-delay: 0.000000s;
         animation-timing-function: linear;
       }
    @keyframes keyframes1 {
      from {
       stroke: blue;
       stroke-dashoffset: 594;
       stroke-width: 128;
       }
       66% {
       animation-timing-function: step-end;
       stroke: blue;
       stroke-dashoffset: 0;
       stroke-width: 128;
       }
       to {
       stroke: black;
       stroke-width: 1024;
       }
       }
       #make-me-a-hanzi-animation-1 {
         animation: keyframes1 0.733398s both;
         animation-delay: 0.739095s;
         animation-timing-function: linear;
       }
    @keyframes keyframes2 {
      from {
       stroke: blue;
       stroke-dashoffset: 511;
       stroke-width: 128;
       }
       62% {
       animation-timing-function: step-end;
       stroke: blue;
       stroke-dashoffset: 0;
       stroke-width: 128;
       }
       to {
       stroke: black;
       stroke-width: 1024;
       }
       }
       #make-me-a-hanzi-animation-2 {
         animation: keyframes2 0.665853s both;
         animation-delay: 1.472493s;
         animation-timing-function: linear;
       }
    @keyframes keyframes3 {
      from {
       stroke: blue;
       stroke-dashoffset: 1703;
       stroke-width: 128;
       }
       85% {
       animation-timing-function: step-end;
       stroke: blue;
       stroke-dashoffset: 0;
       stroke-width: 128;
       }
       to {
       stroke: black;
       stroke-width: 1024;
       }
       }
       #make-me-a-hanzi-animation-3 {
         animation: keyframes3 1.635905s both;
         animation-delay: 2.138346s;
         animation-timing-function: linear;
       }
    @keyframes keyframes4 {
      from {
       stroke: blue;
       stroke-dashoffset: 340;
       stroke-width: 128;
       }
       53% {
       animation-timing-function: step-end;
       stroke: blue;
       stroke-dashoffset: 0;
       stroke-width: 128;
       }
       to {
       stroke: black;
       stroke-width: 1024;
       }
       }
       #make-me-a-hanzi-animation-4 {
         animation: keyframes4 0.526693s both;
         animation-delay: 3.774251s;
         animation-timing-function: linear;
       }
    @keyframes keyframes5 {
      from {
       stroke: blue;
       stroke-dashoffset: 438;
       stroke-width: 128;
       }
       59% {
       animation-timing-function: step-end;
       stroke: blue;
       stroke-dashoffset: 0;
       stroke-width: 128;
       }
       to {
       stroke: black;
       stroke-width: 1024;
       }
       }
       #make-me-a-hanzi-animation-5 {
         animation: keyframes5 0.606445s both;
         animation-delay: 4.300944s;
         animation-timing-function: linear;
       }
    @keyframes keyframes6 {
      from {
       stroke: blue;
       stroke-dashoffset: 663;
       stroke-width: 128;
       }
       68% {
       animation-timing-function: step-end;
       stroke: blue;
       stroke-dashoffset: 0;
       stroke-width: 128;
       }
       to {
       stroke: black;
       stroke-width: 1024;
       }
       }
       #make-me-a-hanzi-animation-6 {
         animation: keyframes6 0.789551s both;
         animation-delay: 4.907389s;
         animation-timing-function: linear;
       }
    @keyframes keyframes7 {
      from {
       stroke: blue;
       stroke-dashoffset: 427;
       stroke-width: 128;
       }
       58% {
       animation-timing-function: step-end;
       stroke: blue;
       stroke-dashoffset: 0;
       stroke-width: 128;
       }
       to {
       stroke: black;
       stroke-width: 1024;
       }
       }
       #make-me-a-hanzi-animation-7 {
         animation: keyframes7 0.597493s both;
         animation-delay: 5.696940s;
         animation-timing-function: linear;
       }
    @keyframes keyframes8 {
      from {
       stroke: blue;
       stroke-dashoffset: 347;
       stroke-width: 128;
       }
       53% {
       animation-timing-function: step-end;
       stroke: blue;
       stroke-dashoffset: 0;
       stroke-width: 128;
       }
       to {
       stroke: black;
       stroke-width: 1024;
       }
       }
       #make-me-a-hanzi-animation-8 {
         animation: keyframes8 0.532389s both;
         animation-delay: 6.294434s;
         animation-timing-function: linear;
       }
    @keyframes keyframes9 {
      from {
       stroke: blue;
       stroke-dashoffset: 450;
       stroke-width: 128;
       }
       59% {
       animation-timing-function: step-end;
       stroke: blue;
       stroke-dashoffset: 0;
       stroke-width: 128;
       }
       to {
       stroke: black;
       stroke-width: 1024;
       }
       }
       #make-me-a-hanzi-animation-9 {
         animation: keyframes9 0.616211s both;
         animation-delay: 6.826823s;
         animation-timing-function: linear;
       }
    @keyframes keyframes10 {
      from {
       stroke: blue;
       stroke-dashoffset: 724;
       stroke-width: 128;
       }
       70% {
       animation-timing-function: step-end;
       stroke: blue;
       stroke-dashoffset: 0;
       stroke-width: 128;
       }
       to {
       stroke: black;
       stroke-width: 1024;
       }
       }
       #make-me-a-hanzi-animation-10 {
         animation: keyframes10 0.839193s both;
         animation-delay: 7.443034s;
         animation-timing-function: linear;
       }
    @keyframes keyframes11 {
      from {
       stroke: blue;
       stroke-dashoffset: 492;
       stroke-width: 128;
       }
       62% {
       animation-timing-function: step-end;
       stroke: blue;
       stroke-dashoffset: 0;
       stroke-width: 128;
       }
       to {
       stroke: black;
       stroke-width: 1024;
       }
       }
       #make-me-a-hanzi-animation-11 {
         animation: keyframes11 0.650391s both;
         animation-delay: 8.282227s;
         animation-timing-function: linear;
       }
</style>
<path d="M 308.5 741.5 L 320.5 760.5 Q 328.5 772.5 335.5 780.5 Q 348.5 791.5 350.5 798.0 Q 352.5 804.5 336.5 817.5 L 312.5 838.5 Q 286.5 851.5 278.5 844.5 Q 275.5 842.5 273.0 818.5 Q 270.5 794.5 257.5 764.5 L 238.5 727.5 L 213.5 686.5 Q 188.5 641.5 147.5 594.5 L 122.5 567.5 Q 118.5 563.5 120.0 559.0 Q 121.5 554.5 136.5 561.5 L 156.5 575.5 Q 173.5 586.5 200.5 609.5 L 239.5 647.5 Q 255.5 663.5 267.5 679.5 L 292.5 715.5 L 308.5 741.5 Z" fill="lightgray"></path> 
<path d="M 292.5 715.5 L 314.5 710.5 Q 327.5 706.5 361.5 710.5 Q 394.5 713.5 398.5 713.5 L 457.5 721.5 L 544.5 736.5 Q 571.5 741.5 598.5 750.5 L 628.5 760.5 Q 637.5 762.5 639.5 768.5 Q 639.5 772.5 630.5 781.5 Q 620.5 790.5 614.5 793.5 Q 593.5 804.5 558.5 794.5 Q 536.5 785.5 519.5 782.5 L 466.5 769.5 L 396.5 754.5 Q 382.5 752.5 360.5 748.5 L 308.5 741.5 C 278.5 737.5 263.5 722.5 292.5 715.5 Z" fill="lightgray"></path> 
<path d="M 385.5 611.5 Q 395.5 612.5 400.5 614.5 L 524.5 639.5 Q 546.5 644.5 547.5 647.5 Q 554.5 654.5 550.5 660.5 Q 546.5 666.5 541.0 667.0 Q 535.5 667.5 518.5 672.0 Q 501.5 676.5 483.5 676.5 L 362.5 645.5 Q 340.5 642.5 326.5 639.5 L 290.5 633.5 Q 281.5 632.5 279.5 627.5 Q 277.5 622.5 288.0 615.0 Q 298.5 607.5 315.5 606.0 Q 332.5 604.5 336.5 605.5 L 385.5 611.5 Z" fill="lightgray"></path> 
<path d="M 230.5 533.5 L 127.5 526.5 Q 112.5 524.5 112.5 520.5 Q 111.5 518.5 114.5 511.5 Q 116.5 504.5 138.0 494.5 Q 159.5 484.5 192.5 484.5 Q 196.5 486.5 204.5 486.5 L 246.5 494.5 L 288.5 501.5 Q 313.5 506.5 373.5 513.5 Q 438.5 524.5 451.5 524.5 L 516.5 532.5 Q 566.5 537.5 571.0 537.0 Q 575.5 536.5 585.0 534.0 Q 594.5 531.5 594.5 512.5 L 597.5 457.5 Q 597.5 257.5 606.5 200.5 Q 623.5 86.5 683.5 14.5 Q 755.5 -75.5 865.5 -75.5 Q 917.5 -75.5 935.0 -65.0 Q 952.5 -54.5 955.0 -50.0 Q 957.5 -45.5 957.5 -37.0 Q 957.5 -28.5 956.0 -25.5 Q 954.5 -22.5 944.0 -5.0 Q 933.5 12.5 925.5 36.5 L 913.5 79.5 Q 907.5 106.5 904.5 122.5 L 899.5 146.5 Q 898.5 156.5 893.0 156.5 Q 887.5 156.5 886.5 146.5 L 882.5 115.5 Q 880.5 88.5 873.5 44.5 L 869.5 24.5 Q 868.5 14.5 859.5 5.5 Q 836.5 -23.5 772.5 18.5 Q 730.5 45.5 704.5 91.5 Q 678.5 137.5 667.5 174.5 Q 630.5 292.5 666.5 470.5 Q 672.5 501.5 685.0 529.5 Q 697.5 557.5 694.5 562.5 Q 693.5 568.5 675.5 578.5 L 653.5 590.5 Q 639.5 598.5 624.5 598.5 L 599.5 592.5 Q 582.5 587.5 553.5 583.5 L 504.5 574.5 L 398.5 556.5 L 288.5 540.5 Q 282.5 538.5 266.5 538.5 L 230.5 533.5 Z" fill="lightgray"></path> 
<path d="M 182.5 430.5 Q 172.5 432.5 171.0 428.5 Q 169.5 424.5 174.5 418.5 L 185.5 399.5 L 204.5 370.5 Q 209.5 360.5 219.5 354.5 Q 227.5 346.5 237.5 348.5 Q 247.5 350.5 252.5 360.5 Q 260.5 372.5 259.5 385.5 Q 257.5 410.5 218.5 422.5 Q 200.5 427.5 197.5 427.5 L 182.5 430.5 Z" fill="lightgray"></path> 
<path d="M 343.5 366.5 L 444.5 404.5 Q 461.5 411.5 484.5 416.5 L 511.5 424.5 Q 517.5 425.5 519.5 430.5 Q 526.5 439.5 509.5 456.5 Q 492.5 472.5 487.5 475.5 Q 482.5 478.5 466.5 484.5 Q 453.5 486.5 450.5 485.5 Q 447.5 483.5 443.5 473.5 Q 438.5 462.5 412.5 431.5 Q 385.5 399.5 350.5 380.5 C 324.5 365.5 315.5 355.5 343.5 366.5 Z" fill="lightgray"></path> 
<path d="M 350.5 380.5 L 359.5 422.5 Q 360.5 433.5 372.5 456.5 Q 372.5 469.5 363.5 477.5 Q 353.5 485.5 349.5 489.5 Q 345.5 493.5 324.5 498.5 Q 303.5 503.5 303.5 492.5 L 309.5 475.5 Q 314.5 454.5 313.5 442.5 Q 313.5 394.5 296.5 356.5 Q 278.5 317.5 258.5 300.5 Q 237.5 282.5 202.5 265.5 Q 167.5 248.5 151.5 243.5 L 114.5 233.5 Q 101.5 230.5 105.5 222.5 Q 106.5 219.5 117.5 220.5 L 136.5 221.5 Q 182.5 228.5 203.5 233.5 Q 252.5 248.5 265.5 260.5 Q 277.5 271.5 287.5 279.5 Q 296.5 286.5 301.5 291.5 Q 305.5 295.5 307.5 298.5 Q 309.5 301.5 317.5 310.5 Q 324.5 318.5 334.5 337.5 L 341.5 354.5 L 343.5 366.5 C 348.5 395.5 344.5 351.5 350.5 380.5 Z" fill="lightgray"></path> 
<path d="M 334.5 337.5 L 347.5 330.5 L 371.5 315.5 L 411.5 282.5 Q 439.5 258.5 451.5 251.5 Q 463.5 244.5 478.5 244.5 Q 492.5 244.5 498.5 250.5 Q 503.5 255.5 500.5 273.5 Q 497.5 290.5 485.5 301.5 Q 472.5 312.5 452.5 322.5 Q 385.5 354.5 341.5 354.5 C 311.5 355.5 308.5 351.5 334.5 337.5 Z" fill="lightgray"></path> 
<path d="M 166.5 180.5 Q 159.5 181.5 154.5 179.0 Q 149.5 176.5 154.5 171.5 L 166.5 149.5 L 183.5 122.5 Q 196.5 102.5 209.0 97.5 Q 221.5 92.5 229.0 96.5 Q 236.5 100.5 240.5 117.5 Q 246.5 143.5 225.5 160.5 Q 206.5 171.5 196.5 173.5 L 166.5 180.5 Z" fill="lightgray"></path> 
<path d="M 336.5 105.5 L 380.5 116.5 Q 381.5 116.5 386.5 118.5 L 418.5 130.5 L 461.5 144.5 L 516.5 158.5 Q 533.5 161.5 519.5 182.5 Q 515.5 191.5 506.5 196.5 L 488.5 210.5 Q 470.5 222.5 463.5 221.5 Q 456.5 219.5 448.5 207.5 L 434.5 192.5 Q 417.5 169.5 378.5 140.5 Q 358.5 127.5 338.5 116.5 C 312.5 101.5 307.5 98.5 336.5 105.5 Z" fill="lightgray"></path> 
<path d="M 291.5 250.5 Q 291.5 246.5 297.0 230.0 Q 302.5 213.5 302.5 185.5 L 297.5 150.5 L 287.5 110.5 Q 277.5 77.5 238.5 31.5 Q 217.5 10.5 196.0 -1.5 Q 174.5 -13.5 138.5 -27.5 Q 100.5 -38.5 98.5 -38.5 L 78.5 -43.5 Q 66.5 -47.5 68.5 -53.5 Q 70.5 -59.5 80.5 -58.5 L 106.5 -55.5 Q 112.5 -55.5 151.5 -47.5 Q 261.5 -22.5 303.5 42.5 Q 327.5 73.5 328.5 77.5 L 333.5 97.5 L 336.5 105.5 L 338.5 116.5 L 347.5 146.5 Q 353.5 177.5 356.5 180.5 L 356.5 182.5 Q 359.5 185.5 361.5 191.5 L 366.5 203.5 Q 368.5 208.5 363.5 222.5 Q 358.5 230.5 349.5 238.5 L 325.5 252.5 Q 300.5 266.5 294.5 260.5 L 294.5 257.5 L 291.5 250.5 Z" fill="lightgray"></path> 
<path d="M 328.5 77.5 L 372.5 47.5 L 377.5 42.5 L 380.5 40.5 Q 447.5 -25.5 495.5 -51.5 Q 531.5 -66.5 541.5 -55.5 Q 544.5 -51.5 546.5 -41.5 Q 546.5 -27.5 534.5 -8.5 Q 521.5 10.5 512.5 19.5 Q 487.5 44.5 409.5 72.5 L 372.5 86.5 L 333.5 97.5 C 304.5 105.5 303.5 94.5 328.5 77.5 Z" fill="lightgray"></path> 
      <clipPath id="make-me-a-hanzi-clip-0">
      <path d="M 308.5 741.5 L 320.5 760.5 Q 328.5 772.5 335.5 780.5 Q 348.5 791.5 350.5 798.0 Q 352.5 804.5 336.5 817.5 L 312.5 838.5 Q 286.5 851.5 278.5 844.5 Q 275.5 842.5 273.0 818.5 Q 270.5 794.5 257.5 764.5 L 238.5 727.5 L 213.5 686.5 Q 188.5 641.5 147.5 594.5 L 122.5 567.5 Q 118.5 563.5 120.0 559.0 Q 121.5 554.5 136.5 561.5 L 156.5 575.5 Q 173.5 586.5 200.5 609.5 L 239.5 647.5 Q 255.5 663.5 267.5 679.5 L 292.5 715.5 L 308.5 741.5 Z" fill="lightgray"></path>
      </clipPath>
      <path clip-path="url(#make-me-a-hanzi-clip-0)" d="M 284.5 837.5 L 305.5 797.5 L 281.5 749.5 L 211.5 646.5 L 155.5 586.5 L 123.5 562.5 " fill="none" id="make-me-a-hanzi-animation-0" stroke-dasharray="473 946" stroke-linecap="round"></path>

      <clipPath id="make-me-a-hanzi-clip-1">
      <path d="M 292.5 715.5 L 314.5 710.5 Q 327.5 706.5 361.5 710.5 Q 394.5 713.5 398.5 713.5 L 457.5 721.5 L 544.5 736.5 Q 571.5 741.5 598.5 750.5 L 628.5 760.5 Q 637.5 762.5 639.5 768.5 Q 639.5 772.5 630.5 781.5 Q 620.5 790.5 614.5 793.5 Q 593.5 804.5 558.5 794.5 Q 536.5 785.5 519.5 782.5 L 466.5 769.5 L 396.5 754.5 Q 382.5 752.5 360.5 748.5 L 308.5 741.5 C 278.5 737.5 263.5 722.5 292.5 715.5 Z" fill="lightgray"></path>
      </clipPath>
      <path clip-path="url(#make-me-a-hanzi-clip-1)" d="M 299.5 720.5 L 317.5 727.5 L 417.5 736.5 L 593.5 774.5 L 631.5 768.5 " fill="none" id="make-me-a-hanzi-animation-1" stroke-dasharray="466 932" stroke-linecap="round"></path>

      <clipPath id="make-me-a-hanzi-clip-2">
      <path d="M 385.5 611.5 Q 395.5 612.5 400.5 614.5 L 524.5 639.5 Q 546.5 644.5 547.5 647.5 Q 554.5 654.5 550.5 660.5 Q 546.5 666.5 541.0 667.0 Q 535.5 667.5 518.5 672.0 Q 501.5 676.5 483.5 676.5 L 362.5 645.5 Q 340.5 642.5 326.5 639.5 L 290.5 633.5 Q 281.5 632.5 279.5 627.5 Q 277.5 622.5 288.0 615.0 Q 298.5 607.5 315.5 606.0 Q 332.5 604.5 336.5 605.5 L 385.5 611.5 Z" fill="lightgray"></path>
      </clipPath>
      <path clip-path="url(#make-me-a-hanzi-clip-2)" d="M 288.5 624.5 L 340.5 623.5 L 481.5 653.5 L 540.5 655.5 " fill="none" id="make-me-a-hanzi-animation-2" stroke-dasharray="383 766" stroke-linecap="round"></path>

      <clipPath id="make-me-a-hanzi-clip-3">
      <path d="M 230.5 533.5 L 127.5 526.5 Q 112.5 524.5 112.5 520.5 Q 111.5 518.5 114.5 511.5 Q 116.5 504.5 138.0 494.5 Q 159.5 484.5 192.5 484.5 Q 196.5 486.5 204.5 486.5 L 246.5 494.5 L 288.5 501.5 Q 313.5 506.5 373.5 513.5 Q 438.5 524.5 451.5 524.5 L 516.5 532.5 Q 566.5 537.5 571.0 537.0 Q 575.5 536.5 585.0 534.0 Q 594.5 531.5 594.5 512.5 L 597.5 457.5 Q 597.5 257.5 606.5 200.5 Q 623.5 86.5 683.5 14.5 Q 755.5 -75.5 865.5 -75.5 Q 917.5 -75.5 935.0 -65.0 Q 952.5 -54.5 955.0 -50.0 Q 957.5 -45.5 957.5 -37.0 Q 957.5 -28.5 956.0 -25.5 Q 954.5 -22.5 944.0 -5.0 Q 933.5 12.5 925.5 36.5 L 913.5 79.5 Q 907.5 106.5 904.5 122.5 L 899.5 146.5 Q 898.5 156.5 893.0 156.5 Q 887.5 156.5 886.5 146.5 L 882.5 115.5 Q 880.5 88.5 873.5 44.5 L 869.5 24.5 Q 868.5 14.5 859.5 5.5 Q 836.5 -23.5 772.5 18.5 Q 730.5 45.5 704.5 91.5 Q 678.5 137.5 667.5 174.5 Q 630.5 292.5 666.5 470.5 Q 672.5 501.5 685.0 529.5 Q 697.5 557.5 694.5 562.5 Q 693.5 568.5 675.5 578.5 L 653.5 590.5 Q 639.5 598.5 624.5 598.5 L 599.5 592.5 Q 582.5 587.5 553.5 583.5 L 504.5 574.5 L 398.5 556.5 L 288.5 540.5 Q 282.5 538.5 266.5 538.5 L 230.5 533.5 Z" fill="lightgray"></path>
      </clipPath>
      <path clip-path="url(#make-me-a-hanzi-clip-3)" d="M 119.5 517.5 L 185.5 506.5 L 567.5 561.5 L 600.5 561.5 L 629.5 552.5 L 638.5 540.5 L 623.5 362.5 L 629.5 222.5 L 655.5 121.5 L 694.5 49.5 L 735.5 6.5 L 791.5 -29.5 L 843.5 -40.5 L 889.5 -29.5 L 899.5 -21.5 L 900.5 -0.5 L 893.5 149.5 " fill="none" id="make-me-a-hanzi-animation-3" stroke-dasharray="1575 3150" stroke-linecap="round"></path>

      <clipPath id="make-me-a-hanzi-clip-4">
      <path d="M 182.5 430.5 Q 172.5 432.5 171.0 428.5 Q 169.5 424.5 174.5 418.5 L 185.5 399.5 L 204.5 370.5 Q 209.5 360.5 219.5 354.5 Q 227.5 346.5 237.5 348.5 Q 247.5 350.5 252.5 360.5 Q 260.5 372.5 259.5 385.5 Q 257.5 410.5 218.5 422.5 Q 200.5 427.5 197.5 427.5 L 182.5 430.5 Z" fill="lightgray"></path>
      </clipPath>
      <path clip-path="url(#make-me-a-hanzi-clip-4)" d="M 177.5 425.5 L 226.5 388.5 L 233.5 367.5 " fill="none" id="make-me-a-hanzi-animation-4" stroke-dasharray="212 424" stroke-linecap="round"></path>

      <clipPath id="make-me-a-hanzi-clip-5">
      <path d="M 343.5 366.5 L 444.5 404.5 Q 461.5 411.5 484.5 416.5 L 511.5 424.5 Q 517.5 425.5 519.5 430.5 Q 526.5 439.5 509.5 456.5 Q 492.5 472.5 487.5 475.5 Q 482.5 478.5 466.5 484.5 Q 453.5 486.5 450.5 485.5 Q 447.5 483.5 443.5 473.5 Q 438.5 462.5 412.5 431.5 Q 385.5 399.5 350.5 380.5 C 324.5 365.5 315.5 355.5 343.5 366.5 Z" fill="lightgray"></path>
      </clipPath>
      <path clip-path="url(#make-me-a-hanzi-clip-5)" d="M 508.5 437.5 L 467.5 447.5 L 349.5 372.5 " fill="none" id="make-me-a-hanzi-animation-5" stroke-dasharray="310 620" stroke-linecap="round"></path>

      <clipPath id="make-me-a-hanzi-clip-6">
      <path d="M 350.5 380.5 L 359.5 422.5 Q 360.5 433.5 372.5 456.5 Q 372.5 469.5 363.5 477.5 Q 353.5 485.5 349.5 489.5 Q 345.5 493.5 324.5 498.5 Q 303.5 503.5 303.5 492.5 L 309.5 475.5 Q 314.5 454.5 313.5 442.5 Q 313.5 394.5 296.5 356.5 Q 278.5 317.5 258.5 300.5 Q 237.5 282.5 202.5 265.5 Q 167.5 248.5 151.5 243.5 L 114.5 233.5 Q 101.5 230.5 105.5 222.5 Q 106.5 219.5 117.5 220.5 L 136.5 221.5 Q 182.5 228.5 203.5 233.5 Q 252.5 248.5 265.5 260.5 Q 277.5 271.5 287.5 279.5 Q 296.5 286.5 301.5 291.5 Q 305.5 295.5 307.5 298.5 Q 309.5 301.5 317.5 310.5 Q 324.5 318.5 334.5 337.5 L 341.5 354.5 L 343.5 366.5 C 348.5 395.5 344.5 351.5 350.5 380.5 Z" fill="lightgray"></path>
      </clipPath>
      <path clip-path="url(#make-me-a-hanzi-clip-6)" d="M 312.5 491.5 L 328.5 479.5 L 341.5 458.5 L 322.5 363.5 L 290.5 306.5 L 259.5 277.5 L 208.5 249.5 L 144.5 229.5 L 112.5 226.5 " fill="none" id="make-me-a-hanzi-animation-6" stroke-dasharray="535 1070" stroke-linecap="round"></path>

      <clipPath id="make-me-a-hanzi-clip-7">
      <path d="M 334.5 337.5 L 347.5 330.5 L 371.5 315.5 L 411.5 282.5 Q 439.5 258.5 451.5 251.5 Q 463.5 244.5 478.5 244.5 Q 492.5 244.5 498.5 250.5 Q 503.5 255.5 500.5 273.5 Q 497.5 290.5 485.5 301.5 Q 472.5 312.5 452.5 322.5 Q 385.5 354.5 341.5 354.5 C 311.5 355.5 308.5 351.5 334.5 337.5 Z" fill="lightgray"></path>
      </clipPath>
      <path clip-path="url(#make-me-a-hanzi-clip-7)" d="M 343.5 338.5 L 349.5 342.5 L 368.5 336.5 L 405.5 318.5 L 488.5 258.5 " fill="none" id="make-me-a-hanzi-animation-7" stroke-dasharray="299 598" stroke-linecap="round"></path>

      <clipPath id="make-me-a-hanzi-clip-8">
      <path d="M 166.5 180.5 Q 159.5 181.5 154.5 179.0 Q 149.5 176.5 154.5 171.5 L 166.5 149.5 L 183.5 122.5 Q 196.5 102.5 209.0 97.5 Q 221.5 92.5 229.0 96.5 Q 236.5 100.5 240.5 117.5 Q 246.5 143.5 225.5 160.5 Q 206.5 171.5 196.5 173.5 L 166.5 180.5 Z" fill="lightgray"></path>
      </clipPath>
      <path clip-path="url(#make-me-a-hanzi-clip-8)" d="M 161.5 175.5 L 204.5 141.5 L 221.5 109.5 " fill="none" id="make-me-a-hanzi-animation-8" stroke-dasharray="219 438" stroke-linecap="round"></path>

      <clipPath id="make-me-a-hanzi-clip-9">
      <path d="M 336.5 105.5 L 380.5 116.5 Q 381.5 116.5 386.5 118.5 L 418.5 130.5 L 461.5 144.5 L 516.5 158.5 Q 533.5 161.5 519.5 182.5 Q 515.5 191.5 506.5 196.5 L 488.5 210.5 Q 470.5 222.5 463.5 221.5 Q 456.5 219.5 448.5 207.5 L 434.5 192.5 Q 417.5 169.5 378.5 140.5 Q 358.5 127.5 338.5 116.5 C 312.5 101.5 307.5 98.5 336.5 105.5 Z" fill="lightgray"></path>
      </clipPath>
      <path clip-path="url(#make-me-a-hanzi-clip-9)" d="M 514.5 170.5 L 469.5 181.5 L 371.5 122.5 L 347.5 116.5 L 343.5 109.5 " fill="none" id="make-me-a-hanzi-animation-9" stroke-dasharray="322 644" stroke-linecap="round"></path>

      <clipPath id="make-me-a-hanzi-clip-10">
      <path d="M 291.5 250.5 Q 291.5 246.5 297.0 230.0 Q 302.5 213.5 302.5 185.5 L 297.5 150.5 L 287.5 110.5 Q 277.5 77.5 238.5 31.5 Q 217.5 10.5 196.0 -1.5 Q 174.5 -13.5 138.5 -27.5 Q 100.5 -38.5 98.5 -38.5 L 78.5 -43.5 Q 66.5 -47.5 68.5 -53.5 Q 70.5 -59.5 80.5 -58.5 L 106.5 -55.5 Q 112.5 -55.5 151.5 -47.5 Q 261.5 -22.5 303.5 42.5 Q 327.5 73.5 328.5 77.5 L 333.5 97.5 L 336.5 105.5 L 338.5 116.5 L 347.5 146.5 Q 353.5 177.5 356.5 180.5 L 356.5 182.5 Q 359.5 185.5 361.5 191.5 L 366.5 203.5 Q 368.5 208.5 363.5 222.5 Q 358.5 230.5 349.5 238.5 L 325.5 252.5 Q 300.5 266.5 294.5 260.5 L 294.5 257.5 L 291.5 250.5 Z" fill="lightgray"></path>
      </clipPath>
      <path clip-path="url(#make-me-a-hanzi-clip-10)" d="M 298.5 259.5 L 333.5 208.5 L 318.5 130.5 L 305.5 86.5 L 292.5 64.5 L 250.5 14.5 L 204.5 -15.5 L 138.5 -41.5 L 130.5 -38.5 L 76.5 -51.5 " fill="none" id="make-me-a-hanzi-animation-10" stroke-dasharray="596 1192" stroke-linecap="round"></path>

      <clipPath id="make-me-a-hanzi-clip-11">
      <path d="M 328.5 77.5 L 372.5 47.5 L 377.5 42.5 L 380.5 40.5 Q 447.5 -25.5 495.5 -51.5 Q 531.5 -66.5 541.5 -55.5 Q 544.5 -51.5 546.5 -41.5 Q 546.5 -27.5 534.5 -8.5 Q 521.5 10.5 512.5 19.5 Q 487.5 44.5 409.5 72.5 L 372.5 86.5 L 333.5 97.5 C 304.5 105.5 303.5 94.5 328.5 77.5 Z" fill="lightgray"></path>
      </clipPath>
      <path clip-path="url(#make-me-a-hanzi-clip-11)" d="M 338.5 90.5 L 342.5 82.5 L 453.5 19.5 L 530.5 -43.5 " fill="none" id="make-me-a-hanzi-animation-11" stroke-dasharray="364 728" stroke-linecap="round"></path>

</g>
</svg>
