<svg version="1.1" viewBox="0 0 1024 1024" xmlns="http://www.w3.org/2000/svg">
  <g stroke="lightgray" stroke-dasharray="1,1" stroke-width="1" transform="scale(4, 4)">
    <line x1="0" y1="0" x2="256" y2="256"></line>
    <line x1="256" y1="0" x2="0" y2="256"></line>
    <line x1="128" y1="0" x2="128" y2="256"></line>
    <line x1="0" y1="128" x2="256" y2="128"></line>
  </g>
  <g transform="scale(0.92, -0.92) translate(60, -850)">
    <style type="text/css">
      
        @keyframes keyframes0 {
          from {
            stroke: blue;
            stroke-dashoffset: 394;
            stroke-width: 128;
          }
          56% {
            animation-timing-function: step-end;
            stroke: blue;
            stroke-dashoffset: 0;
            stroke-width: 128;
          }
          to {
            stroke: black;
            stroke-width: 1024;
          }
        }
        #make-me-a-hanzi-animation-0 {
          animation: keyframes0 0.5706380208333334s both;
          animation-delay: 0s;
          animation-timing-function: linear;
        }
      
        @keyframes keyframes1 {
          from {
            stroke: blue;
            stroke-dashoffset: 405;
            stroke-width: 128;
          }
          57% {
            animation-timing-function: step-end;
            stroke: blue;
            stroke-dashoffset: 0;
            stroke-width: 128;
          }
          to {
            stroke: black;
            stroke-width: 1024;
          }
        }
        #make-me-a-hanzi-animation-1 {
          animation: keyframes1 0.57958984375s both;
          animation-delay: 0.5706380208333334s;
          animation-timing-function: linear;
        }
      
        @keyframes keyframes2 {
          from {
            stroke: blue;
            stroke-dashoffset: 652;
            stroke-width: 128;
          }
          68% {
            animation-timing-function: step-end;
            stroke: blue;
            stroke-dashoffset: 0;
            stroke-width: 128;
          }
          to {
            stroke: black;
            stroke-width: 1024;
          }
        }
        #make-me-a-hanzi-animation-2 {
          animation: keyframes2 0.7805989583333334s both;
          animation-delay: 1.1502278645833335s;
          animation-timing-function: linear;
        }
      
        @keyframes keyframes3 {
          from {
            stroke: blue;
            stroke-dashoffset: 583;
            stroke-width: 128;
          }
          65% {
            animation-timing-function: step-end;
            stroke: blue;
            stroke-dashoffset: 0;
            stroke-width: 128;
          }
          to {
            stroke: black;
            stroke-width: 1024;
          }
        }
        #make-me-a-hanzi-animation-3 {
          animation: keyframes3 0.7244466145833334s both;
          animation-delay: 1.930826822916667s;
          animation-timing-function: linear;
        }
      
        @keyframes keyframes4 {
          from {
            stroke: blue;
            stroke-dashoffset: 801;
            stroke-width: 128;
          }
          72% {
            animation-timing-function: step-end;
            stroke: blue;
            stroke-dashoffset: 0;
            stroke-width: 128;
          }
          to {
            stroke: black;
            stroke-width: 1024;
          }
        }
        #make-me-a-hanzi-animation-4 {
          animation: keyframes4 0.90185546875s both;
          animation-delay: 2.6552734375000004s;
          animation-timing-function: linear;
        }
      
        @keyframes keyframes5 {
          from {
            stroke: blue;
            stroke-dashoffset: 738;
            stroke-width: 128;
          }
          71% {
            animation-timing-function: step-end;
            stroke: blue;
            stroke-dashoffset: 0;
            stroke-width: 128;
          }
          to {
            stroke: black;
            stroke-width: 1024;
          }
        }
        #make-me-a-hanzi-animation-5 {
          animation: keyframes5 0.8505859375s both;
          animation-delay: 3.5571289062500004s;
          animation-timing-function: linear;
        }
      
        @keyframes keyframes6 {
          from {
            stroke: blue;
            stroke-dashoffset: 1125;
            stroke-width: 128;
          }
          79% {
            animation-timing-function: step-end;
            stroke: blue;
            stroke-dashoffset: 0;
            stroke-width: 128;
          }
          to {
            stroke: black;
            stroke-width: 1024;
          }
        }
        #make-me-a-hanzi-animation-6 {
          animation: keyframes6 1.16552734375s both;
          animation-delay: 4.40771484375s;
          animation-timing-function: linear;
        }
      
    </style>
    
      <path d="M 172 594 Q 176 586 199 559 L 228 524 Q 254 500 273 510 Q 283 516 287 523 Q 300 546 285 578 Q 279 591 268 598 Q 257 605 229 616 L 195 627 L 170 631 Q 157 632 153 629 Q 150 625 155 618 L 172 594 Z" fill="lightgray"></path>
    
      <path d="M 79 410 Q 80 409 107 375 Q 129 350 141 340 Q 154 327 168 325 Q 180 320 192 326.5 Q 204 333 203 354.5 Q 202 376 197 391 Q 185 417 137 432 L 102 442 L 79 446 Q 60 451 58.5 443.5 Q 57 436 61 432 L 79 410 Z" fill="lightgray"></path>
    
      <path d="M 94 -8 Q 110 -57 124 -60 Q 137 -65 143 -59 L 153 -50 Q 157 -45 167 -2 Q 177 41 198 90 L 246 216 Q 263 265 264 271 L 273 305 Q 278 321 270.5 324 Q 263 327 257 314 L 212 227 Q 204 211 198 201 L 169 158 Q 137 111 131.5 104 Q 126 97 105 82 Q 88 68 82.5 56.5 Q 77 45 85 17 L 89 5 L 94 -8 Z" fill="lightgray"></path>
    
      <path d="M 407 575 Q 391 572 388 569 Q 386 564 386.5 561 Q 387 558 395 552 L 415 543 Q 478 531 562 552 Q 566 553 614 561.5 Q 662 570 687 579 Q 721 588 727 597 Q 729 601 726 612 Q 722 618 711 622 L 699 627 Q 685 632 672.5 636.5 Q 660 641 652 639 Q 644 637 608.5 622 Q 573 607 516 596 L 464 587 L 407 575 Z" fill="lightgray"></path>
    
      <path d="M 871 404 Q 871 416 859 422 Q 831 437 829 438 L 809 445 L 788 452 Q 784 453 761 446 L 716 436 Q 709 434 631 422 L 496 398 L 389 382 Q 356 379 355 378 L 324 374 L 309 369 Q 304 355 324 348 L 353 335 Q 370 328 410 334 Q 426 339 454 343 L 483 350 L 587 367 L 653 378 L 687 380 L 775 387 L 861 392 Q 868 392 871 404 Z" fill="lightgray"></path>
    
      <path d="M 454 343 L 456 325 Q 456 284 435 234 Q 360 73 266 -4 L 241 -28 Q 230 -36 232 -42 Q 233 -48 247 -40 L 272 -30 Q 283 -27 312 -9 Q 340 10 373 38 Q 401 66 424 97 Q 447 128 473 184 L 506 260 L 523 288 L 534 299 Q 536 313 519 327 Q 501 340 499 343 Q 496 345 483 350 C 456 363 452 364 454 343 Z" fill="lightgray"></path>
    
      <path d="M 587 367 L 597 356 Q 612 325 602 212 L 598 138 Q 595 41 620 2 Q 637 -25 661 -40 Q 685 -54 725 -62 Q 804 -78 892 -57 Q 942 -48 968 -34 Q 1036 3 1001 52 Q 991 67 980 90 Q 970 118 966 134 L 955 172 Q 951 186 944 182 Q 940 180 939 172 L 932 126 Q 920 57 898 36 Q 886 23 863 12 Q 840 0 777 1 Q 714 1 693 16 Q 672 31 663 47 Q 653 62 653 86 Q 653 110 656 159 Q 659 208 661 215 L 664 238 Q 664 240 669 264 Q 674 288 681 308 Q 697 339 687 349 L 685 350 Q 679 356 674 361 L 653 378 C 630 397 571 393 587 367 Z" fill="lightgray"></path>
    
    
      <clipPath id="make-me-a-hanzi-clip-0">
        <path d="M 172 594 Q 176 586 199 559 L 228 524 Q 254 500 273 510 Q 283 516 287 523 Q 300 546 285 578 Q 279 591 268 598 Q 257 605 229 616 L 195 627 L 170 631 Q 157 632 153 629 Q 150 625 155 618 L 172 594 Z"></path>
      </clipPath>
      <path clip-path="url(#make-me-a-hanzi-clip-0)" d="M 158 624 L 248 563 L 260 536" fill="none" id="make-me-a-hanzi-animation-0" stroke-dasharray="266 532" stroke-linecap="round"></path>
    
      <clipPath id="make-me-a-hanzi-clip-1">
        <path d="M 79 410 Q 80 409 107 375 Q 129 350 141 340 Q 154 327 168 325 Q 180 320 192 326.5 Q 204 333 203 354.5 Q 202 376 197 391 Q 185 417 137 432 L 102 442 L 79 446 Q 60 451 58.5 443.5 Q 57 436 61 432 L 79 410 Z"></path>
      </clipPath>
      <path clip-path="url(#make-me-a-hanzi-clip-1)" d="M 66 439 L 146 389 L 180 346" fill="none" id="make-me-a-hanzi-animation-1" stroke-dasharray="277 554" stroke-linecap="round"></path>
    
      <clipPath id="make-me-a-hanzi-clip-2">
        <path d="M 94 -8 Q 110 -57 124 -60 Q 137 -65 143 -59 L 153 -50 Q 157 -45 167 -2 Q 177 41 198 90 L 246 216 Q 263 265 264 271 L 273 305 Q 278 321 270.5 324 Q 263 327 257 314 L 212 227 Q 204 211 198 201 L 169 158 Q 137 111 131.5 104 Q 126 97 105 82 Q 88 68 82.5 56.5 Q 77 45 85 17 L 89 5 L 94 -8 Z"></path>
      </clipPath>
      <path clip-path="url(#make-me-a-hanzi-clip-2)" d="M 133 -45 L 128 36 L 158 82 L 236 232 L 268 317" fill="none" id="make-me-a-hanzi-animation-2" stroke-dasharray="524 1048" stroke-linecap="round"></path>
    
      <clipPath id="make-me-a-hanzi-clip-3">
        <path d="M 407 575 Q 391 572 388 569 Q 386 564 386.5 561 Q 387 558 395 552 L 415 543 Q 478 531 562 552 Q 566 553 614 561.5 Q 662 570 687 579 Q 721 588 727 597 Q 729 601 726 612 Q 722 618 711 622 L 699 627 Q 685 632 672.5 636.5 Q 660 641 652 639 Q 644 637 608.5 622 Q 573 607 516 596 L 464 587 L 407 575 Z"></path>
      </clipPath>
      <path clip-path="url(#make-me-a-hanzi-clip-3)" d="M 394 564 L 424 559 L 488 565 L 599 587 L 658 605 L 715 604" fill="none" id="make-me-a-hanzi-animation-3" stroke-dasharray="455 910" stroke-linecap="round"></path>
    
      <clipPath id="make-me-a-hanzi-clip-4">
        <path d="M 871 404 Q 871 416 859 422 Q 831 437 829 438 L 809 445 L 788 452 Q 784 453 761 446 L 716 436 Q 709 434 631 422 L 496 398 L 389 382 Q 356 379 355 378 L 324 374 L 309 369 Q 304 355 324 348 L 353 335 Q 370 328 410 334 Q 426 339 454 343 L 483 350 L 587 367 L 653 378 L 687 380 L 775 387 L 861 392 Q 868 392 871 404 Z"></path>
      </clipPath>
      <path clip-path="url(#make-me-a-hanzi-clip-4)" d="M 319 364 L 362 356 L 398 357 L 785 420 L 857 406" fill="none" id="make-me-a-hanzi-animation-4" stroke-dasharray="673 1346" stroke-linecap="round"></path>
    
      <clipPath id="make-me-a-hanzi-clip-5">
        <path d="M 454 343 L 456 325 Q 456 284 435 234 Q 360 73 266 -4 L 241 -28 Q 230 -36 232 -42 Q 233 -48 247 -40 L 272 -30 Q 283 -27 312 -9 Q 340 10 373 38 Q 401 66 424 97 Q 447 128 473 184 L 506 260 L 523 288 L 534 299 Q 536 313 519 327 Q 501 340 499 343 Q 496 345 483 350 C 456 363 452 364 454 343 Z"></path>
      </clipPath>
      <path clip-path="url(#make-me-a-hanzi-clip-5)" d="M 463 339 L 482 322 L 491 304 L 451 201 L 417 137 L 341 39 L 295 -2 L 239 -40" fill="none" id="make-me-a-hanzi-animation-5" stroke-dasharray="610 1220" stroke-linecap="round"></path>
    
      <clipPath id="make-me-a-hanzi-clip-6">
        <path d="M 587 367 L 597 356 Q 612 325 602 212 L 598 138 Q 595 41 620 2 Q 637 -25 661 -40 Q 685 -54 725 -62 Q 804 -78 892 -57 Q 942 -48 968 -34 Q 1036 3 1001 52 Q 991 67 980 90 Q 970 118 966 134 L 955 172 Q 951 186 944 182 Q 940 180 939 172 L 932 126 Q 920 57 898 36 Q 886 23 863 12 Q 840 0 777 1 Q 714 1 693 16 Q 672 31 663 47 Q 653 62 653 86 Q 653 110 656 159 Q 659 208 661 215 L 664 238 Q 664 240 669 264 Q 674 288 681 308 Q 697 339 687 349 L 685 350 Q 679 356 674 361 L 653 378 C 630 397 571 393 587 367 Z"></path>
      </clipPath>
      <path clip-path="url(#make-me-a-hanzi-clip-6)" d="M 594 364 L 644 334 L 630 203 L 626 74 L 639 28 L 673 -10 L 738 -31 L 819 -34 L 894 -17 L 941 8 L 955 22 L 947 174" fill="none" id="make-me-a-hanzi-animation-6" stroke-dasharray="997 1994" stroke-linecap="round"></path>
    
  </g>
</svg>