<svg version="1.1" viewBox="0 0 1024 1024" xmlns="http://www.w3.org/2000/svg">
  <g stroke="lightgray" stroke-dasharray="1,1" stroke-width="1" transform="scale(4, 4)">
    <line x1="0" y1="0" x2="256" y2="256"></line>
    <line x1="256" y1="0" x2="0" y2="256"></line>
    <line x1="128" y1="0" x2="128" y2="256"></line>
    <line x1="0" y1="128" x2="256" y2="128"></line>
  </g>
<g transform="scale(0.92, -0.92) translate(60, -900)">
   <style type="text/css">
    @keyframes keyframes0 {
      from {
       stroke: blue;
       stroke-dashoffset: 387;
       stroke-width: 128;
       }
       56% {
       animation-timing-function: step-end;
       stroke: blue;
       stroke-dashoffset: 0;
       stroke-width: 128;
       }
       to {
       stroke: black;
       stroke-width: 1024;
       }
       }
       #make-me-a-hanzi-animation-0 {
         animation: keyframes0 0.564941s both;
         animation-delay: 0.000000s;
         animation-timing-function: linear;
       }
    @keyframes keyframes1 {
      from {
       stroke: blue;
       stroke-dashoffset: 387;
       stroke-width: 128;
       }
       56% {
       animation-timing-function: step-end;
       stroke: blue;
       stroke-dashoffset: 0;
       stroke-width: 128;
       }
       to {
       stroke: black;
       stroke-width: 1024;
       }
       }
       #make-me-a-hanzi-animation-1 {
         animation: keyframes1 0.564941s both;
         animation-delay: 0.564941s;
         animation-timing-function: linear;
       }
    @keyframes keyframes2 {
      from {
       stroke: blue;
       stroke-dashoffset: 581;
       stroke-width: 128;
       }
       65% {
       animation-timing-function: step-end;
       stroke: blue;
       stroke-dashoffset: 0;
       stroke-width: 128;
       }
       to {
       stroke: black;
       stroke-width: 1024;
       }
       }
       #make-me-a-hanzi-animation-2 {
         animation: keyframes2 0.722819s both;
         animation-delay: 1.129883s;
         animation-timing-function: linear;
       }
    @keyframes keyframes3 {
      from {
       stroke: blue;
       stroke-dashoffset: 684;
       stroke-width: 128;
       }
       69% {
       animation-timing-function: step-end;
       stroke: blue;
       stroke-dashoffset: 0;
       stroke-width: 128;
       }
       to {
       stroke: black;
       stroke-width: 1024;
       }
       }
       #make-me-a-hanzi-animation-3 {
         animation: keyframes3 0.806641s both;
         animation-delay: 1.852702s;
         animation-timing-function: linear;
       }
    @keyframes keyframes4 {
      from {
       stroke: blue;
       stroke-dashoffset: 862;
       stroke-width: 128;
       }
       74% {
       animation-timing-function: step-end;
       stroke: blue;
       stroke-dashoffset: 0;
       stroke-width: 128;
       }
       to {
       stroke: black;
       stroke-width: 1024;
       }
       }
       #make-me-a-hanzi-animation-4 {
         animation: keyframes4 0.951497s both;
         animation-delay: 2.659342s;
         animation-timing-function: linear;
       }
    @keyframes keyframes5 {
      from {
       stroke: blue;
       stroke-dashoffset: 747;
       stroke-width: 128;
       }
       71% {
       animation-timing-function: step-end;
       stroke: blue;
       stroke-dashoffset: 0;
       stroke-width: 128;
       }
       to {
       stroke: black;
       stroke-width: 1024;
       }
       }
       #make-me-a-hanzi-animation-5 {
         animation: keyframes5 0.857910s both;
         animation-delay: 3.610840s;
         animation-timing-function: linear;
       }
    @keyframes keyframes6 {
      from {
       stroke: blue;
       stroke-dashoffset: 553;
       stroke-width: 128;
       }
       64% {
       animation-timing-function: step-end;
       stroke: blue;
       stroke-dashoffset: 0;
       stroke-width: 128;
       }
       to {
       stroke: black;
       stroke-width: 1024;
       }
       }
       #make-me-a-hanzi-animation-6 {
         animation: keyframes6 0.700033s both;
         animation-delay: 4.468750s;
         animation-timing-function: linear;
       }
    @keyframes keyframes7 {
      from {
       stroke: blue;
       stroke-dashoffset: 797;
       stroke-width: 128;
       }
       72% {
       animation-timing-function: step-end;
       stroke: blue;
       stroke-dashoffset: 0;
       stroke-width: 128;
       }
       to {
       stroke: black;
       stroke-width: 1024;
       }
       }
       #make-me-a-hanzi-animation-7 {
         animation: keyframes7 0.898600s both;
         animation-delay: 5.168783s;
         animation-timing-function: linear;
       }
    @keyframes keyframes8 {
      from {
       stroke: blue;
       stroke-dashoffset: 419;
       stroke-width: 128;
       }
       58% {
       animation-timing-function: step-end;
       stroke: blue;
       stroke-dashoffset: 0;
       stroke-width: 128;
       }
       to {
       stroke: black;
       stroke-width: 1024;
       }
       }
       #make-me-a-hanzi-animation-8 {
         animation: keyframes8 0.590983s both;
         animation-delay: 6.067383s;
         animation-timing-function: linear;
       }
    @keyframes keyframes9 {
      from {
       stroke: blue;
       stroke-dashoffset: 452;
       stroke-width: 128;
       }
       60% {
       animation-timing-function: step-end;
       stroke: blue;
       stroke-dashoffset: 0;
       stroke-width: 128;
       }
       to {
       stroke: black;
       stroke-width: 1024;
       }
       }
       #make-me-a-hanzi-animation-9 {
         animation: keyframes9 0.617839s both;
         animation-delay: 6.658366s;
         animation-timing-function: linear;
       }
    @keyframes keyframes10 {
      from {
       stroke: blue;
       stroke-dashoffset: 1128;
       stroke-width: 128;
       }
       79% {
       animation-timing-function: step-end;
       stroke: blue;
       stroke-dashoffset: 0;
       stroke-width: 128;
       }
       to {
       stroke: black;
       stroke-width: 1024;
       }
       }
       #make-me-a-hanzi-animation-10 {
         animation: keyframes10 1.167969s both;
         animation-delay: 7.276204s;
         animation-timing-function: linear;
       }
</style>
<path d="M 153.5 669.0 L 189.5 625.0 Q 242.5 564.0 266.5 602.0 Q 271.5 612.0 271.0 629.0 Q 270.5 646.0 265.5 658.0 Q 254.5 681.0 176.5 700.0 L 155.5 705.0 Q 129.5 707.0 139.5 688.0 L 153.5 669.0 Z" fill="lightgray"></path> 
<path d="M 69.5 449.0 Q 79.5 432.0 104.0 405.5 Q 128.5 379.0 143.5 373.0 Q 171.5 362.0 182.5 382.0 Q 196.5 411.0 182.5 436.0 Q 168.5 461.0 119.5 474.0 L 92.5 479.0 L 69.5 484.0 Q 60.5 485.0 55.5 481.5 Q 50.5 478.0 54.5 471.0 L 69.5 449.0 Z" fill="lightgray"></path> 
<path d="M 231.5 273.0 Q 237.5 289.0 229.5 293.0 Q 221.5 297.0 214.5 284.0 L 190.5 245.0 Q 140.5 170.0 102.5 132.0 Q 91.5 121.0 73.5 110.5 Q 55.5 100.0 53.5 92.0 Q 48.5 71.0 62.5 42.0 Q 66.5 33.0 71.0 21.0 Q 75.5 9.0 80.0 -1.0 Q 84.5 -11.0 96.5 -16.0 Q 108.5 -21.0 115.5 -8.0 Q 127.5 23.0 128.5 24.0 Q 133.5 44.0 147.5 79.0 Q 164.5 115.0 165.5 121.0 L 187.5 168.0 Q 195.5 184.0 215.5 234.0 L 231.5 273.0 Z" fill="lightgray"></path> 
<path d="M 651.5 619.0 L 694.5 629.0 L 728.5 636.0 Q 740.5 638.0 745.5 644.0 Q 750.5 661.0 727.0 672.5 Q 703.5 684.0 691.5 684.0 Q 679.5 684.0 665.5 677.0 L 644.5 668.0 Q 638.5 665.0 602.5 659.0 L 498.5 640.0 L 434.5 633.0 L 368.5 623.0 L 346.5 619.0 L 321.5 617.0 Q 305.5 616.0 305.5 610.0 Q 303.5 605.0 308.5 599.0 Q 324.5 582.0 417.5 590.0 L 480.5 595.0 L 504.5 598.0 Q 505.5 599.0 529.5 599.0 L 580.5 608.0 L 615.5 614.0 L 651.5 619.0 Z" fill="lightgray"></path> 
<path d="M 498.5 640.0 L 513.5 677.0 Q 513.5 680.0 517.0 689.0 Q 520.5 698.0 530.0 724.5 Q 539.5 751.0 547.5 764.5 Q 555.5 778.0 556.0 780.5 Q 556.5 783.0 548.5 797.5 Q 540.5 812.0 518.5 824.5 Q 496.5 837.0 482.5 837.0 Q 464.5 837.0 468.5 820.0 L 470.5 791.0 L 468.5 762.0 Q 466.5 736.0 455.5 701.0 L 443.5 658.0 L 434.5 633.0 L 417.5 590.0 L 402.5 554.0 Q 397.5 542.0 374.5 506.0 Q 351.5 470.0 310.5 425.5 Q 269.5 381.0 239.5 361.0 L 214.5 344.0 Q 206.5 339.0 209.5 333.0 Q 212.5 327.0 221.5 332.0 L 251.5 341.0 Q 274.5 350.0 281.5 355.0 L 291.5 362.0 L 301.5 368.0 L 313.5 379.0 L 386.5 442.0 Q 409.5 459.0 434.5 509.0 L 480.5 595.0 L 498.5 640.0 Z" fill="lightgray"></path> 
<path d="M 529.5 599.0 L 551.5 587.0 Q 560.5 583.0 596.5 549.0 L 749.5 402.0 Q 773.5 381.0 794.5 372.0 Q 834.5 363.0 851.5 364.0 Q 867.5 365.0 914.5 375.0 L 951.5 383.0 Q 967.5 386.0 971.5 392.0 Q 975.5 399.0 973.5 401.0 Q 971.5 403.0 961.5 407.0 L 943.5 412.0 Q 820.5 446.0 752.5 484.0 Q 719.5 502.0 643.5 559.0 L 580.5 608.0 C 556.5 626.0 503.5 613.0 529.5 599.0 Z" fill="lightgray"></path> 
<path d="M 399.5 154.0 L 392.5 228.0 L 383.5 340.0 C 381.5 365.0 381.5 365.0 376.5 366.0 L 335.5 377.0 L 330.5 377.0 L 313.5 379.0 C 287.5 382.0 287.5 382.0 301.5 368.0 L 310.5 359.0 Q 318.5 351.0 327.5 335.0 Q 333.5 318.0 337.5 300.0 L 347.5 214.0 L 359.5 141.0 Q 363.5 112.0 367.5 109.0 Q 370.5 105.0 372.5 99.0 Q 372.5 94.0 377.5 94.0 Q 395.5 94.0 402.5 125.0 L 399.5 154.0 Z" fill="lightgray"></path> 
<path d="M 625.5 282.0 L 613.5 201.0 Q 613.5 198.0 604.5 172.0 C 595.5 145.0 595.5 145.0 598.5 141.0 L 607.5 130.0 Q 617.5 116.0 634.5 125.0 Q 650.5 133.0 654.5 142.0 Q 657.5 151.0 660.5 162.0 Q 663.5 173.0 665.5 178.0 L 695.5 293.0 Q 695.5 297.0 699.5 304.0 Q 702.5 310.0 706.5 323.0 Q 709.5 336.0 717.5 354.0 L 724.5 368.0 Q 726.5 378.0 726.5 382.0 Q 725.5 385.0 700.5 399.0 L 669.5 416.0 Q 650.5 421.0 643.5 421.0 Q 636.5 421.0 612.5 413.0 Q 588.5 405.0 567.5 401.0 L 524.5 392.0 L 465.5 380.0 L 446.5 377.0 Q 386.5 367.0 376.5 366.0 C 346.5 362.0 354.5 334.0 383.5 340.0 L 425.5 348.0 Q 430.5 348.0 465.5 354.0 L 521.5 366.0 L 596.5 374.0 Q 610.5 374.0 612.5 375.0 Q 614.5 375.0 619.5 373.0 Q 623.5 371.0 628.5 370.0 Q 632.5 369.0 631.5 355.0 L 630.5 338.0 L 625.5 282.0 Z" fill="lightgray"></path> 
<path d="M 512.5 246.0 Q 534.5 246.0 565.5 254.0 Q 586.5 258.0 584.5 270.0 Q 580.5 287.0 540.5 289.0 Q 536.5 289.0 527.5 287.0 L 515.5 284.0 L 464.5 275.0 Q 440.5 273.0 420.5 273.0 Q 379.5 273.0 415.5 252.0 Q 443.5 235.0 464.5 241.0 L 512.5 246.0 Z" fill="lightgray"></path> 
<path d="M 604.5 172.0 L 571.5 178.0 Q 561.5 180.0 549.5 176.0 L 511.5 170.0 L 465.5 160.0 L 439.5 158.0 Q 421.5 156.0 399.5 154.0 C 369.5 151.0 372.5 130.0 402.5 125.0 L 421.5 122.0 Q 431.5 120.0 439.5 120.0 L 464.5 124.0 L 510.5 130.0 L 598.5 141.0 C 628.5 145.0 634.5 167.0 604.5 172.0 Z" fill="lightgray"></path> 
<path d="M 511.5 170.0 L 512.5 244.0 L 512.5 246.0 L 515.5 284.0 L 521.5 366.0 L 524.5 392.0 L 525.5 405.0 Q 526.5 422.0 533.5 442.5 Q 540.5 463.0 533.5 472.0 Q 526.5 481.0 489.5 490.5 Q 452.5 500.0 449.5 487.0 Q 449.5 482.0 455.5 469.0 Q 461.5 456.0 463.5 438.0 L 464.5 426.0 L 465.5 405.0 L 465.5 380.0 L 465.5 354.0 L 464.5 275.0 L 464.5 241.0 L 465.5 160.0 L 464.5 124.0 L 464.5 82.0 Q 460.5 23.0 488.0 -10.5 Q 515.5 -44.0 568.5 -52.0 Q 645.5 -61.0 677.5 -58.0 L 766.5 -50.0 Q 822.5 -45.0 858.5 -33.0 Q 901.5 -19.0 868.5 6.0 Q 835.5 31.0 815.5 27.0 L 795.5 21.0 Q 724.5 -6.0 652.5 -6.0 Q 609.5 -12.0 554.5 0.0 Q 510.5 10.0 510.5 65.0 L 510.5 130.0 L 511.5 170.0 Z" fill="lightgray"></path> 
      <clipPath id="make-me-a-hanzi-clip-0">
      <path d="M 153.5 669.0 L 189.5 625.0 Q 242.5 564.0 266.5 602.0 Q 271.5 612.0 271.0 629.0 Q 270.5 646.0 265.5 658.0 Q 254.5 681.0 176.5 700.0 L 155.5 705.0 Q 129.5 707.0 139.5 688.0 L 153.5 669.0 Z" fill="lightgray"></path>
      </clipPath>
      <path clip-path="url(#make-me-a-hanzi-clip-0)" d="M 148.5 696.0 L 230.5 639.0 L 243.5 611.0 " fill="none" id="make-me-a-hanzi-animation-0" stroke-dasharray="259 518" stroke-linecap="round"></path>

      <clipPath id="make-me-a-hanzi-clip-1">
      <path d="M 69.5 449.0 Q 79.5 432.0 104.0 405.5 Q 128.5 379.0 143.5 373.0 Q 171.5 362.0 182.5 382.0 Q 196.5 411.0 182.5 436.0 Q 168.5 461.0 119.5 474.0 L 92.5 479.0 L 69.5 484.0 Q 60.5 485.0 55.5 481.5 Q 50.5 478.0 54.5 471.0 L 69.5 449.0 Z" fill="lightgray"></path>
      </clipPath>
      <path clip-path="url(#make-me-a-hanzi-clip-1)" d="M 63.5 475.0 L 139.5 425.0 L 161.5 392.0 " fill="none" id="make-me-a-hanzi-animation-1" stroke-dasharray="259 518" stroke-linecap="round"></path>

      <clipPath id="make-me-a-hanzi-clip-2">
      <path d="M 231.5 273.0 Q 237.5 289.0 229.5 293.0 Q 221.5 297.0 214.5 284.0 L 190.5 245.0 Q 140.5 170.0 102.5 132.0 Q 91.5 121.0 73.5 110.5 Q 55.5 100.0 53.5 92.0 Q 48.5 71.0 62.5 42.0 Q 66.5 33.0 71.0 21.0 Q 75.5 9.0 80.0 -1.0 Q 84.5 -11.0 96.5 -16.0 Q 108.5 -21.0 115.5 -8.0 Q 127.5 23.0 128.5 24.0 Q 133.5 44.0 147.5 79.0 Q 164.5 115.0 165.5 121.0 L 187.5 168.0 Q 195.5 184.0 215.5 234.0 L 231.5 273.0 Z" fill="lightgray"></path>
      </clipPath>
      <path clip-path="url(#make-me-a-hanzi-clip-2)" d="M 102.5 -4.0 L 97.5 65.0 L 101.5 78.0 L 165.5 171.0 L 225.5 286.0 " fill="none" id="make-me-a-hanzi-animation-2" stroke-dasharray="453 906" stroke-linecap="round"></path>

      <clipPath id="make-me-a-hanzi-clip-3">
      <path d="M 651.5 619.0 L 694.5 629.0 L 728.5 636.0 Q 740.5 638.0 745.5 644.0 Q 750.5 661.0 727.0 672.5 Q 703.5 684.0 691.5 684.0 Q 679.5 684.0 665.5 677.0 L 644.5 668.0 Q 638.5 665.0 602.5 659.0 L 498.5 640.0 L 434.5 633.0 L 368.5 623.0 L 346.5 619.0 L 321.5 617.0 Q 305.5 616.0 305.5 610.0 Q 303.5 605.0 308.5 599.0 Q 324.5 582.0 417.5 590.0 L 480.5 595.0 L 504.5 598.0 Q 505.5 599.0 529.5 599.0 L 580.5 608.0 L 615.5 614.0 L 651.5 619.0 Z" fill="lightgray"></path>
      </clipPath>
      <path clip-path="url(#make-me-a-hanzi-clip-3)" d="M 314.5 607.0 L 361.5 603.0 L 520.5 620.0 L 698.5 657.0 L 736.5 650.0 " fill="none" id="make-me-a-hanzi-animation-3" stroke-dasharray="556 1112" stroke-linecap="round"></path>

      <clipPath id="make-me-a-hanzi-clip-4">
      <path d="M 498.5 640.0 L 513.5 677.0 Q 513.5 680.0 517.0 689.0 Q 520.5 698.0 530.0 724.5 Q 539.5 751.0 547.5 764.5 Q 555.5 778.0 556.0 780.5 Q 556.5 783.0 548.5 797.5 Q 540.5 812.0 518.5 824.5 Q 496.5 837.0 482.5 837.0 Q 464.5 837.0 468.5 820.0 L 470.5 791.0 L 468.5 762.0 Q 466.5 736.0 455.5 701.0 L 443.5 658.0 L 434.5 633.0 L 417.5 590.0 L 402.5 554.0 Q 397.5 542.0 374.5 506.0 Q 351.5 470.0 310.5 425.5 Q 269.5 381.0 239.5 361.0 L 214.5 344.0 Q 206.5 339.0 209.5 333.0 Q 212.5 327.0 221.5 332.0 L 251.5 341.0 Q 274.5 350.0 281.5 355.0 L 291.5 362.0 L 301.5 368.0 L 313.5 379.0 L 386.5 442.0 Q 409.5 459.0 434.5 509.0 L 480.5 595.0 L 498.5 640.0 Z" fill="lightgray"></path>
      </clipPath>
      <path clip-path="url(#make-me-a-hanzi-clip-4)" d="M 479.5 825.0 L 506.5 791.0 L 509.5 778.0 L 461.5 622.0 L 408.5 512.0 L 380.5 470.0 L 307.5 396.0 L 270.5 366.0 L 215.5 337.0 " fill="none" id="make-me-a-hanzi-animation-4" stroke-dasharray="734 1468" stroke-linecap="round"></path>

      <clipPath id="make-me-a-hanzi-clip-5">
      <path d="M 529.5 599.0 L 551.5 587.0 Q 560.5 583.0 596.5 549.0 L 749.5 402.0 Q 773.5 381.0 794.5 372.0 Q 834.5 363.0 851.5 364.0 Q 867.5 365.0 914.5 375.0 L 951.5 383.0 Q 967.5 386.0 971.5 392.0 Q 975.5 399.0 973.5 401.0 Q 971.5 403.0 961.5 407.0 L 943.5 412.0 Q 820.5 446.0 752.5 484.0 Q 719.5 502.0 643.5 559.0 L 580.5 608.0 C 556.5 626.0 503.5 613.0 529.5 599.0 Z" fill="lightgray"></path>
      </clipPath>
      <path clip-path="url(#make-me-a-hanzi-clip-5)" d="M 536.5 598.0 L 576.5 590.0 L 707.5 479.0 L 807.5 412.0 L 858.5 400.0 L 964.5 398.0 " fill="none" id="make-me-a-hanzi-animation-5" stroke-dasharray="619 1238" stroke-linecap="round"></path>

      <clipPath id="make-me-a-hanzi-clip-6">
      <path d="M 399.5 154.0 L 392.5 228.0 L 383.5 340.0 C 381.5 365.0 381.5 365.0 376.5 366.0 L 335.5 377.0 L 330.5 377.0 L 313.5 379.0 C 287.5 382.0 287.5 382.0 301.5 368.0 L 310.5 359.0 Q 318.5 351.0 327.5 335.0 Q 333.5 318.0 337.5 300.0 L 347.5 214.0 L 359.5 141.0 Q 363.5 112.0 367.5 109.0 Q 370.5 105.0 372.5 99.0 Q 372.5 94.0 377.5 94.0 Q 395.5 94.0 402.5 125.0 L 399.5 154.0 Z" fill="lightgray"></path>
      </clipPath>
      <path clip-path="url(#make-me-a-hanzi-clip-6)" d="M 308.5 366.0 L 317.5 368.0 L 337.5 357.0 L 353.5 343.0 L 357.5 331.0 L 382.5 130.0 L 380.5 102.0 " fill="none" id="make-me-a-hanzi-animation-6" stroke-dasharray="425 850" stroke-linecap="round"></path>

      <clipPath id="make-me-a-hanzi-clip-7">
      <path d="M 625.5 282.0 L 613.5 201.0 Q 613.5 198.0 604.5 172.0 C 595.5 145.0 595.5 145.0 598.5 141.0 L 607.5 130.0 Q 617.5 116.0 634.5 125.0 Q 650.5 133.0 654.5 142.0 Q 657.5 151.0 660.5 162.0 Q 663.5 173.0 665.5 178.0 L 695.5 293.0 Q 695.5 297.0 699.5 304.0 Q 702.5 310.0 706.5 323.0 Q 709.5 336.0 717.5 354.0 L 724.5 368.0 Q 726.5 378.0 726.5 382.0 Q 725.5 385.0 700.5 399.0 L 669.5 416.0 Q 650.5 421.0 643.5 421.0 Q 636.5 421.0 612.5 413.0 Q 588.5 405.0 567.5 401.0 L 524.5 392.0 L 465.5 380.0 L 446.5 377.0 Q 386.5 367.0 376.5 366.0 C 346.5 362.0 354.5 334.0 383.5 340.0 L 425.5 348.0 Q 430.5 348.0 465.5 354.0 L 521.5 366.0 L 596.5 374.0 Q 610.5 374.0 612.5 375.0 Q 614.5 375.0 619.5 373.0 Q 623.5 371.0 628.5 370.0 Q 632.5 369.0 631.5 355.0 L 630.5 338.0 L 625.5 282.0 Z" fill="lightgray"></path>
      </clipPath>
      <path clip-path="url(#make-me-a-hanzi-clip-7)" d="M 380.5 360.0 L 393.5 355.0 L 453.5 363.0 L 609.5 394.0 L 654.5 388.0 L 674.5 364.0 L 638.5 184.0 L 629.5 154.0 L 615.5 146.0 " fill="none" id="make-me-a-hanzi-animation-7" stroke-dasharray="669 1338" stroke-linecap="round"></path>

      <clipPath id="make-me-a-hanzi-clip-8">
      <path d="M 512.5 246.0 Q 534.5 246.0 565.5 254.0 Q 586.5 258.0 584.5 270.0 Q 580.5 287.0 540.5 289.0 Q 536.5 289.0 527.5 287.0 L 515.5 284.0 L 464.5 275.0 Q 440.5 273.0 420.5 273.0 Q 379.5 273.0 415.5 252.0 Q 443.5 235.0 464.5 241.0 L 512.5 246.0 Z" fill="lightgray"></path>
      </clipPath>
      <path clip-path="url(#make-me-a-hanzi-clip-8)" d="M 411.5 264.0 L 449.5 256.0 L 549.5 271.0 L 572.5 269.0 " fill="none" id="make-me-a-hanzi-animation-8" stroke-dasharray="291 582" stroke-linecap="round"></path>

      <clipPath id="make-me-a-hanzi-clip-9">
      <path d="M 604.5 172.0 L 571.5 178.0 Q 561.5 180.0 549.5 176.0 L 511.5 170.0 L 465.5 160.0 L 439.5 158.0 Q 421.5 156.0 399.5 154.0 C 369.5 151.0 372.5 130.0 402.5 125.0 L 421.5 122.0 Q 431.5 120.0 439.5 120.0 L 464.5 124.0 L 510.5 130.0 L 598.5 141.0 C 628.5 145.0 634.5 167.0 604.5 172.0 Z" fill="lightgray"></path>
      </clipPath>
      <path clip-path="url(#make-me-a-hanzi-clip-9)" d="M 407.5 147.0 L 417.5 139.0 L 455.5 140.0 L 583.5 158.0 L 597.5 165.0 " fill="none" id="make-me-a-hanzi-animation-9" stroke-dasharray="324 648" stroke-linecap="round"></path>

      <clipPath id="make-me-a-hanzi-clip-10">
      <path d="M 511.5 170.0 L 512.5 244.0 L 512.5 246.0 L 515.5 284.0 L 521.5 366.0 L 524.5 392.0 L 525.5 405.0 Q 526.5 422.0 533.5 442.5 Q 540.5 463.0 533.5 472.0 Q 526.5 481.0 489.5 490.5 Q 452.5 500.0 449.5 487.0 Q 449.5 482.0 455.5 469.0 Q 461.5 456.0 463.5 438.0 L 464.5 426.0 L 465.5 405.0 L 465.5 380.0 L 465.5 354.0 L 464.5 275.0 L 464.5 241.0 L 465.5 160.0 L 464.5 124.0 L 464.5 82.0 Q 460.5 23.0 488.0 -10.5 Q 515.5 -44.0 568.5 -52.0 Q 645.5 -61.0 677.5 -58.0 L 766.5 -50.0 Q 822.5 -45.0 858.5 -33.0 Q 901.5 -19.0 868.5 6.0 Q 835.5 31.0 815.5 27.0 L 795.5 21.0 Q 724.5 -6.0 652.5 -6.0 Q 609.5 -12.0 554.5 0.0 Q 510.5 10.0 510.5 65.0 L 510.5 130.0 L 511.5 170.0 Z" fill="lightgray"></path>
      </clipPath>
      <path clip-path="url(#make-me-a-hanzi-clip-10)" d="M 457.5 485.0 L 491.5 459.0 L 498.5 446.0 L 486.5 72.0 L 492.5 29.0 L 509.5 0.0 L 550.5 -24.0 L 619.5 -33.0 L 712.5 -29.0 L 823.5 -7.0 L 863.5 -12.0 " fill="none" id="make-me-a-hanzi-animation-10" stroke-dasharray="1000 2000" stroke-linecap="round"></path>

</g>
</svg>
