<svg version="1.1" viewBox="0 0 1024 1024" xmlns="http://www.w3.org/2000/svg">
  <g stroke="lightgray" stroke-dasharray="1,1" stroke-width="1" transform="scale(4, 4)">
    <line x1="0" y1="0" x2="256" y2="256"></line>
    <line x1="256" y1="0" x2="0" y2="256"></line>
    <line x1="128" y1="0" x2="128" y2="256"></line>
    <line x1="0" y1="128" x2="256" y2="128"></line>
  </g>
<g transform="scale(0.92, -0.92) translate(60, -900)">
   <style type="text/css">
    @keyframes keyframes0 {
      from {
       stroke: blue;
       stroke-dashoffset: 393;
       stroke-width: 128;
       }
       56% {
       animation-timing-function: step-end;
       stroke: blue;
       stroke-dashoffset: 0;
       stroke-width: 128;
       }
       to {
       stroke: black;
       stroke-width: 1024;
       }
       }
       #make-me-a-hanzi-animation-0 {
         animation: keyframes0 0.569824s both;
         animation-delay: 0.000000s;
         animation-timing-function: linear;
       }
    @keyframes keyframes1 {
      from {
       stroke: blue;
       stroke-dashoffset: 386;
       stroke-width: 128;
       }
       56% {
       animation-timing-function: step-end;
       stroke: blue;
       stroke-dashoffset: 0;
       stroke-width: 128;
       }
       to {
       stroke: black;
       stroke-width: 1024;
       }
       }
       #make-me-a-hanzi-animation-1 {
         animation: keyframes1 0.564128s both;
         animation-delay: 0.569824s;
         animation-timing-function: linear;
       }
    @keyframes keyframes2 {
      from {
       stroke: blue;
       stroke-dashoffset: 640;
       stroke-width: 128;
       }
       68% {
       animation-timing-function: step-end;
       stroke: blue;
       stroke-dashoffset: 0;
       stroke-width: 128;
       }
       to {
       stroke: black;
       stroke-width: 1024;
       }
       }
       #make-me-a-hanzi-animation-2 {
         animation: keyframes2 0.770833s both;
         animation-delay: 1.133952s;
         animation-timing-function: linear;
       }
    @keyframes keyframes3 {
      from {
       stroke: blue;
       stroke-dashoffset: 643;
       stroke-width: 128;
       }
       68% {
       animation-timing-function: step-end;
       stroke: blue;
       stroke-dashoffset: 0;
       stroke-width: 128;
       }
       to {
       stroke: black;
       stroke-width: 1024;
       }
       }
       #make-me-a-hanzi-animation-3 {
         animation: keyframes3 0.773275s both;
         animation-delay: 1.904785s;
         animation-timing-function: linear;
       }
    @keyframes keyframes4 {
      from {
       stroke: blue;
       stroke-dashoffset: 538;
       stroke-width: 128;
       }
       64% {
       animation-timing-function: step-end;
       stroke: blue;
       stroke-dashoffset: 0;
       stroke-width: 128;
       }
       to {
       stroke: black;
       stroke-width: 1024;
       }
       }
       #make-me-a-hanzi-animation-4 {
         animation: keyframes4 0.687826s both;
         animation-delay: 2.678060s;
         animation-timing-function: linear;
       }
    @keyframes keyframes5 {
      from {
       stroke: blue;
       stroke-dashoffset: 962;
       stroke-width: 128;
       }
       76% {
       animation-timing-function: step-end;
       stroke: blue;
       stroke-dashoffset: 0;
       stroke-width: 128;
       }
       to {
       stroke: black;
       stroke-width: 1024;
       }
       }
       #make-me-a-hanzi-animation-5 {
         animation: keyframes5 1.032878s both;
         animation-delay: 3.365885s;
         animation-timing-function: linear;
       }
    @keyframes keyframes6 {
      from {
       stroke: blue;
       stroke-dashoffset: 506;
       stroke-width: 128;
       }
       62% {
       animation-timing-function: step-end;
       stroke: blue;
       stroke-dashoffset: 0;
       stroke-width: 128;
       }
       to {
       stroke: black;
       stroke-width: 1024;
       }
       }
       #make-me-a-hanzi-animation-6 {
         animation: keyframes6 0.661784s both;
         animation-delay: 4.398763s;
         animation-timing-function: linear;
       }
    @keyframes keyframes7 {
      from {
       stroke: blue;
       stroke-dashoffset: 506;
       stroke-width: 128;
       }
       62% {
       animation-timing-function: step-end;
       stroke: blue;
       stroke-dashoffset: 0;
       stroke-width: 128;
       }
       to {
       stroke: black;
       stroke-width: 1024;
       }
       }
       #make-me-a-hanzi-animation-7 {
         animation: keyframes7 0.661784s both;
         animation-delay: 5.060547s;
         animation-timing-function: linear;
       }
    @keyframes keyframes8 {
      from {
       stroke: blue;
       stroke-dashoffset: 781;
       stroke-width: 128;
       }
       72% {
       animation-timing-function: step-end;
       stroke: blue;
       stroke-dashoffset: 0;
       stroke-width: 128;
       }
       to {
       stroke: black;
       stroke-width: 1024;
       }
       }
       #make-me-a-hanzi-animation-8 {
         animation: keyframes8 0.885579s both;
         animation-delay: 5.722331s;
         animation-timing-function: linear;
       }
    @keyframes keyframes9 {
      from {
       stroke: blue;
       stroke-dashoffset: 371;
       stroke-width: 128;
       }
       55% {
       animation-timing-function: step-end;
       stroke: blue;
       stroke-dashoffset: 0;
       stroke-width: 128;
       }
       to {
       stroke: black;
       stroke-width: 1024;
       }
       }
       #make-me-a-hanzi-animation-9 {
         animation: keyframes9 0.551921s both;
         animation-delay: 6.607910s;
         animation-timing-function: linear;
       }
    @keyframes keyframes10 {
      from {
       stroke: blue;
       stroke-dashoffset: 906;
       stroke-width: 128;
       }
       75% {
       animation-timing-function: step-end;
       stroke: blue;
       stroke-dashoffset: 0;
       stroke-width: 128;
       }
       to {
       stroke: black;
       stroke-width: 1024;
       }
       }
       #make-me-a-hanzi-animation-10 {
         animation: keyframes10 0.987305s both;
         animation-delay: 7.159831s;
         animation-timing-function: linear;
       }
    @keyframes keyframes11 {
      from {
       stroke: blue;
       stroke-dashoffset: 737;
       stroke-width: 128;
       }
       71% {
       animation-timing-function: step-end;
       stroke: blue;
       stroke-dashoffset: 0;
       stroke-width: 128;
       }
       to {
       stroke: black;
       stroke-width: 1024;
       }
       }
       #make-me-a-hanzi-animation-11 {
         animation: keyframes11 0.849772s both;
         animation-delay: 8.147135s;
         animation-timing-function: linear;
       }
    @keyframes keyframes12 {
      from {
       stroke: blue;
       stroke-dashoffset: 369;
       stroke-width: 128;
       }
       55% {
       animation-timing-function: step-end;
       stroke: blue;
       stroke-dashoffset: 0;
       stroke-width: 128;
       }
       to {
       stroke: black;
       stroke-width: 1024;
       }
       }
       #make-me-a-hanzi-animation-12 {
         animation: keyframes12 0.550293s both;
         animation-delay: 8.996908s;
         animation-timing-function: linear;
       }
</style>
<path d="M 268.0 619.0 Q 293.0 619.0 292.0 651.5 Q 291.0 684.0 268.0 702.0 Q 253.0 718.0 204.0 725.0 L 178.0 731.0 Q 161.0 733.0 158.0 728.5 Q 155.0 724.0 160.0 717.0 L 178.0 692.0 Q 192.0 673.0 220.5 645.0 Q 249.0 617.0 268.0 619.0 Z" fill="lightgray"></path> 
<path d="M 97.0 491.0 Q 130.0 442.0 155.0 419.0 Q 175.0 403.0 190.0 413.0 Q 205.0 420.0 207.0 447.0 Q 207.0 504.0 122.0 521.0 L 92.0 526.0 Q 82.0 527.0 79.0 523.5 Q 76.0 520.0 82.0 513.0 L 97.0 491.0 Z" fill="lightgray"></path> 
<path d="M 223.0 315.0 Q 203.0 270.0 164.0 219.0 L 140.0 190.0 Q 129.0 179.0 116.0 168.0 Q 103.0 157.0 100.0 151.0 Q 92.0 131.0 108.5 87.5 Q 125.0 44.0 132.0 37.0 Q 153.0 17.0 164.0 57.0 L 193.0 149.0 Q 196.0 158.0 214.0 205.0 L 237.0 265.0 Q 260.0 323.0 262.0 332.0 L 280.0 383.0 Q 286.0 401.0 277.5 403.0 Q 269.0 405.0 262.0 393.0 L 223.0 315.0 Z" fill="lightgray"></path> 
<path d="M 590.0 677.0 L 646.0 683.0 L 712.0 696.0 Q 738.0 700.0 748.0 705.0 Q 765.0 713.0 755.5 725.0 Q 746.0 737.0 725.0 742.0 Q 704.0 747.0 700.0 746.0 Q 696.0 745.0 684.0 741.0 Q 665.0 731.0 634.0 727.0 L 590.0 719.0 L 534.0 709.0 L 406.0 691.0 Q 401.0 689.0 391.0 689.0 L 370.0 687.0 Q 360.0 686.0 358.0 682.5 Q 356.0 679.0 366.0 668.0 Q 376.0 657.0 421.0 657.0 L 447.0 657.0 Q 462.0 657.0 470.0 659.0 L 534.0 668.0 L 590.0 677.0 Z" fill="lightgray"></path> 
<path d="M 405.0 599.0 L 386.0 603.0 Q 360.0 610.0 354.0 607.0 Q 342.0 603.0 349.0 586.0 Q 369.0 519.0 369.0 419.0 L 365.0 354.0 Q 366.0 345.0 373.0 330.0 Q 380.0 314.0 386.0 314.0 Q 391.0 313.0 402.0 325.0 Q 412.0 337.0 411.0 362.0 Q 410.0 386.0 412.0 421.0 L 410.0 489.0 L 410.0 565.0 C 410.0 595.0 410.0 598.0 405.0 599.0 Z" fill="lightgray"></path> 
<path d="M 656.0 637.0 L 588.0 627.0 L 534.0 619.0 L 405.0 599.0 C 375.0 594.0 381.0 559.0 410.0 565.0 L 444.0 572.0 Q 466.0 576.0 534.0 587.0 L 588.0 593.0 L 698.0 605.0 Q 721.0 608.0 728.0 604.0 Q 734.0 600.0 737.0 591.0 L 738.0 572.0 L 738.0 469.0 L 732.0 408.0 Q 730.0 391.0 725.0 389.0 Q 719.0 386.0 702.0 391.0 L 690.0 394.0 L 672.0 400.0 Q 666.0 401.0 664.0 398.0 Q 662.0 395.0 666.0 391.0 L 678.0 379.0 L 730.0 323.0 Q 749.0 303.0 773.0 345.0 Q 791.0 377.0 794.0 427.0 L 798.0 540.0 Q 798.0 575.0 806.0 590.0 Q 813.0 605.0 814.0 605.0 Q 814.0 613.0 802.0 624.0 Q 766.0 657.0 742.0 657.0 L 656.0 637.0 Z" fill="lightgray"></path> 
<path d="M 532.0 533.0 L 448.0 518.0 Q 435.0 515.0 435.0 507.0 Q 435.0 493.0 453.0 493.0 Q 469.0 487.0 532.0 495.0 L 586.0 502.0 L 697.0 518.0 Q 709.0 523.0 709.0 540.0 Q 709.0 557.0 680.0 557.5 Q 651.0 558.0 627.0 551.5 Q 603.0 545.0 586.0 542.0 L 532.0 533.0 Z" fill="lightgray"></path> 
<path d="M 532.0 452.0 L 456.0 439.0 Q 443.0 436.0 443.0 428.0 Q 443.0 414.0 461.0 414.0 Q 477.0 408.0 533.0 415.0 L 583.0 422.0 L 705.0 439.0 Q 717.0 444.0 717.0 461.0 Q 717.0 478.0 688.0 478.5 Q 659.0 479.0 633.0 472.0 Q 607.0 465.0 599.0 464.0 L 585.0 462.0 L 532.0 452.0 Z" fill="lightgray"></path> 
<path d="M 588.0 627.0 L 590.0 677.0 L 590.0 719.0 L 592.0 749.0 Q 594.0 763.0 595.0 771.5 Q 596.0 780.0 603.0 794.5 Q 610.0 809.0 603.0 818.5 Q 596.0 828.0 570.0 835.0 L 545.0 842.0 Q 534.0 845.0 528.0 843.0 Q 516.0 840.0 517.0 829.0 Q 517.0 824.0 525.5 803.5 Q 534.0 783.0 534.0 747.0 L 534.0 709.0 L 534.0 668.0 L 534.0 619.0 L 534.0 587.0 L 532.0 533.0 L 532.0 495.0 L 532.0 453.0 L 532.0 452.0 L 533.0 415.0 L 533.0 389.0 Q 533.0 321.0 547.0 315.0 Q 550.0 313.0 558.0 323.0 Q 566.0 333.0 572.0 353.0 L 579.0 388.0 Q 581.0 394.0 583.0 422.0 L 585.0 462.0 L 586.0 502.0 L 586.0 542.0 L 586.0 562.0 L 588.0 593.0 L 588.0 627.0 Z" fill="lightgray"></path> 
<path d="M 716.0 815.0 Q 716.0 800.0 736.0 780.0 Q 787.0 721.0 814.0 721.0 Q 820.0 721.0 830.0 726.5 Q 840.0 732.0 840.0 755.0 Q 840.0 778.0 815.0 793.0 Q 802.0 801.0 759.0 812.5 Q 716.0 824.0 716.0 815.0 Z" fill="lightgray"></path> 
<path d="M 642.0 289.0 L 592.0 285.0 L 420.0 266.0 Q 374.0 261.0 340.0 259.0 L 300.0 257.0 Q 274.0 255.0 272.0 251.0 Q 271.0 247.0 274.0 242.0 Q 278.0 230.0 329.0 212.0 Q 344.0 206.0 372.0 215.0 Q 400.0 224.0 426.0 229.0 L 532.0 247.0 L 648.0 255.0 L 700.0 258.0 L 792.0 257.0 L 876.0 255.0 L 906.0 254.0 Q 925.0 253.0 930.0 257.0 Q 948.0 266.0 921.0 285.0 Q 904.0 297.0 883.0 306.0 Q 862.0 315.0 852.0 315.0 L 702.0 295.0 L 642.0 289.0 Z" fill="lightgray"></path> 
<path d="M 648.0 255.0 L 647.0 102.0 L 645.0 70.0 Q 644.0 45.0 643.0 39.0 Q 642.0 33.0 637.0 28.0 Q 632.0 23.0 626.0 24.0 Q 620.0 25.0 596.0 34.0 L 567.0 45.0 Q 554.0 51.0 551.0 48.0 Q 548.0 45.0 554.0 39.0 L 570.0 20.0 Q 597.0 -13.0 606.0 -23.0 Q 615.0 -33.0 628.0 -51.0 Q 641.0 -69.0 654.0 -67.0 Q 672.0 -67.0 684.0 -43.0 Q 706.0 1.0 706.0 27.0 L 706.0 44.0 L 700.0 258.0 L 702.0 295.0 L 704.0 309.0 L 706.0 317.0 Q 706.0 330.0 668.0 338.0 L 642.0 343.0 Q 631.0 343.0 627.5 339.0 Q 624.0 335.0 631.0 319.0 Q 638.0 303.0 642.0 289.0 L 648.0 255.0 Z" fill="lightgray"></path> 
<path d="M 444.0 195.0 Q 438.0 197.0 433.0 193.0 Q 428.0 189.0 430.0 185.0 L 442.0 163.0 Q 491.0 71.0 522.0 84.0 Q 544.0 92.0 540.0 130.0 Q 538.0 149.0 526.0 161.0 Q 514.0 171.0 494.0 179.0 Q 474.0 187.0 464.0 189.0 L 444.0 195.0 Z" fill="lightgray"></path> 
      <clipPath id="make-me-a-hanzi-clip-0">
      <path d="M 268.0 619.0 Q 293.0 619.0 292.0 651.5 Q 291.0 684.0 268.0 702.0 Q 253.0 718.0 204.0 725.0 L 178.0 731.0 Q 161.0 733.0 158.0 728.5 Q 155.0 724.0 160.0 717.0 L 178.0 692.0 Q 192.0 673.0 220.5 645.0 Q 249.0 617.0 268.0 619.0 Z" fill="lightgray"></path>
      </clipPath>
      <path clip-path="url(#make-me-a-hanzi-clip-0)" d="M 164.0 724.0 L 241.0 676.0 L 270.0 640.0 " fill="none" id="make-me-a-hanzi-animation-0" stroke-dasharray="265 530" stroke-linecap="round"></path>

      <clipPath id="make-me-a-hanzi-clip-1">
      <path d="M 97.0 491.0 Q 130.0 442.0 155.0 419.0 Q 175.0 403.0 190.0 413.0 Q 205.0 420.0 207.0 447.0 Q 207.0 504.0 122.0 521.0 L 92.0 526.0 Q 82.0 527.0 79.0 523.5 Q 76.0 520.0 82.0 513.0 L 97.0 491.0 Z" fill="lightgray"></path>
      </clipPath>
      <path clip-path="url(#make-me-a-hanzi-clip-1)" d="M 86.0 520.0 L 159.0 469.0 L 177.0 432.0 " fill="none" id="make-me-a-hanzi-animation-1" stroke-dasharray="258 516" stroke-linecap="round"></path>

      <clipPath id="make-me-a-hanzi-clip-2">
      <path d="M 223.0 315.0 Q 203.0 270.0 164.0 219.0 L 140.0 190.0 Q 129.0 179.0 116.0 168.0 Q 103.0 157.0 100.0 151.0 Q 92.0 131.0 108.5 87.5 Q 125.0 44.0 132.0 37.0 Q 153.0 17.0 164.0 57.0 L 193.0 149.0 Q 196.0 158.0 214.0 205.0 L 237.0 265.0 Q 260.0 323.0 262.0 332.0 L 280.0 383.0 Q 286.0 401.0 277.5 403.0 Q 269.0 405.0 262.0 393.0 L 223.0 315.0 Z" fill="lightgray"></path>
      </clipPath>
      <path clip-path="url(#make-me-a-hanzi-clip-2)" d="M 144.0 44.0 L 142.0 129.0 L 227.0 281.0 L 275.0 396.0 " fill="none" id="make-me-a-hanzi-animation-2" stroke-dasharray="512 1024" stroke-linecap="round"></path>

      <clipPath id="make-me-a-hanzi-clip-3">
      <path d="M 590.0 677.0 L 646.0 683.0 L 712.0 696.0 Q 738.0 700.0 748.0 705.0 Q 765.0 713.0 755.5 725.0 Q 746.0 737.0 725.0 742.0 Q 704.0 747.0 700.0 746.0 Q 696.0 745.0 684.0 741.0 Q 665.0 731.0 634.0 727.0 L 590.0 719.0 L 534.0 709.0 L 406.0 691.0 Q 401.0 689.0 391.0 689.0 L 370.0 687.0 Q 360.0 686.0 358.0 682.5 Q 356.0 679.0 366.0 668.0 Q 376.0 657.0 421.0 657.0 L 447.0 657.0 Q 462.0 657.0 470.0 659.0 L 534.0 668.0 L 590.0 677.0 Z" fill="lightgray"></path>
      </clipPath>
      <path clip-path="url(#make-me-a-hanzi-clip-3)" d="M 365.0 681.0 L 411.0 673.0 L 637.0 704.0 L 703.0 720.0 L 747.0 717.0 " fill="none" id="make-me-a-hanzi-animation-3" stroke-dasharray="515 1030" stroke-linecap="round"></path>

      <clipPath id="make-me-a-hanzi-clip-4">
      <path d="M 405.0 599.0 L 386.0 603.0 Q 360.0 610.0 354.0 607.0 Q 342.0 603.0 349.0 586.0 Q 369.0 519.0 369.0 419.0 L 365.0 354.0 Q 366.0 345.0 373.0 330.0 Q 380.0 314.0 386.0 314.0 Q 391.0 313.0 402.0 325.0 Q 412.0 337.0 411.0 362.0 Q 410.0 386.0 412.0 421.0 L 410.0 489.0 L 410.0 565.0 C 410.0 595.0 410.0 598.0 405.0 599.0 Z" fill="lightgray"></path>
      </clipPath>
      <path clip-path="url(#make-me-a-hanzi-clip-4)" d="M 359.0 595.0 L 380.0 573.0 L 384.0 557.0 L 390.0 454.0 L 387.0 322.0 " fill="none" id="make-me-a-hanzi-animation-4" stroke-dasharray="410 820" stroke-linecap="round"></path>

      <clipPath id="make-me-a-hanzi-clip-5">
      <path d="M 656.0 637.0 L 588.0 627.0 L 534.0 619.0 L 405.0 599.0 C 375.0 594.0 381.0 559.0 410.0 565.0 L 444.0 572.0 Q 466.0 576.0 534.0 587.0 L 588.0 593.0 L 698.0 605.0 Q 721.0 608.0 728.0 604.0 Q 734.0 600.0 737.0 591.0 L 738.0 572.0 L 738.0 469.0 L 732.0 408.0 Q 730.0 391.0 725.0 389.0 Q 719.0 386.0 702.0 391.0 L 690.0 394.0 L 672.0 400.0 Q 666.0 401.0 664.0 398.0 Q 662.0 395.0 666.0 391.0 L 678.0 379.0 L 730.0 323.0 Q 749.0 303.0 773.0 345.0 Q 791.0 377.0 794.0 427.0 L 798.0 540.0 Q 798.0 575.0 806.0 590.0 Q 813.0 605.0 814.0 605.0 Q 814.0 613.0 802.0 624.0 Q 766.0 657.0 742.0 657.0 L 656.0 637.0 Z" fill="lightgray"></path>
      </clipPath>
      <path clip-path="url(#make-me-a-hanzi-clip-5)" d="M 415.0 571.0 L 429.0 587.0 L 529.0 603.0 L 711.0 628.0 L 743.0 628.0 L 754.0 622.0 L 771.0 603.0 L 767.0 463.0 L 757.0 383.0 L 747.0 365.0 L 736.0 360.0 L 669.0 396.0 " fill="none" id="make-me-a-hanzi-animation-5" stroke-dasharray="834 1668" stroke-linecap="round"></path>

      <clipPath id="make-me-a-hanzi-clip-6">
      <path d="M 532.0 533.0 L 448.0 518.0 Q 435.0 515.0 435.0 507.0 Q 435.0 493.0 453.0 493.0 Q 469.0 487.0 532.0 495.0 L 586.0 502.0 L 697.0 518.0 Q 709.0 523.0 709.0 540.0 Q 709.0 557.0 680.0 557.5 Q 651.0 558.0 627.0 551.5 Q 603.0 545.0 586.0 542.0 L 532.0 533.0 Z" fill="lightgray"></path>
      </clipPath>
      <path clip-path="url(#make-me-a-hanzi-clip-6)" d="M 446.0 506.0 L 518.0 510.0 L 693.0 540.0 " fill="none" id="make-me-a-hanzi-animation-6" stroke-dasharray="378 756" stroke-linecap="round"></path>

      <clipPath id="make-me-a-hanzi-clip-7">
      <path d="M 532.0 452.0 L 456.0 439.0 Q 443.0 436.0 443.0 428.0 Q 443.0 414.0 461.0 414.0 Q 477.0 408.0 533.0 415.0 L 583.0 422.0 L 705.0 439.0 Q 717.0 444.0 717.0 461.0 Q 717.0 478.0 688.0 478.5 Q 659.0 479.0 633.0 472.0 Q 607.0 465.0 599.0 464.0 L 585.0 462.0 L 532.0 452.0 Z" fill="lightgray"></path>
      </clipPath>
      <path clip-path="url(#make-me-a-hanzi-clip-7)" d="M 454.0 427.0 L 521.0 430.0 L 701.0 461.0 " fill="none" id="make-me-a-hanzi-animation-7" stroke-dasharray="378 756" stroke-linecap="round"></path>

      <clipPath id="make-me-a-hanzi-clip-8">
      <path d="M 588.0 627.0 L 590.0 677.0 L 590.0 719.0 L 592.0 749.0 Q 594.0 763.0 595.0 771.5 Q 596.0 780.0 603.0 794.5 Q 610.0 809.0 603.0 818.5 Q 596.0 828.0 570.0 835.0 L 545.0 842.0 Q 534.0 845.0 528.0 843.0 Q 516.0 840.0 517.0 829.0 Q 517.0 824.0 525.5 803.5 Q 534.0 783.0 534.0 747.0 L 534.0 709.0 L 534.0 668.0 L 534.0 619.0 L 534.0 587.0 L 532.0 533.0 L 532.0 495.0 L 532.0 453.0 L 532.0 452.0 L 533.0 415.0 L 533.0 389.0 Q 533.0 321.0 547.0 315.0 Q 550.0 313.0 558.0 323.0 Q 566.0 333.0 572.0 353.0 L 579.0 388.0 Q 581.0 394.0 583.0 422.0 L 585.0 462.0 L 586.0 502.0 L 586.0 542.0 L 586.0 562.0 L 588.0 593.0 L 588.0 627.0 Z" fill="lightgray"></path>
      </clipPath>
      <path clip-path="url(#make-me-a-hanzi-clip-8)" d="M 529.0 831.0 L 565.0 799.0 L 558.0 416.0 L 550.0 323.0 " fill="none" id="make-me-a-hanzi-animation-8" stroke-dasharray="653 1306" stroke-linecap="round"></path>

      <clipPath id="make-me-a-hanzi-clip-9">
      <path d="M 716.0 815.0 Q 716.0 800.0 736.0 780.0 Q 787.0 721.0 814.0 721.0 Q 820.0 721.0 830.0 726.5 Q 840.0 732.0 840.0 755.0 Q 840.0 778.0 815.0 793.0 Q 802.0 801.0 759.0 812.5 Q 716.0 824.0 716.0 815.0 Z" fill="lightgray"></path>
      </clipPath>
      <path clip-path="url(#make-me-a-hanzi-clip-9)" d="M 723.0 811.0 L 802.0 762.0 L 816.0 745.0 " fill="none" id="make-me-a-hanzi-animation-9" stroke-dasharray="243 486" stroke-linecap="round"></path>

      <clipPath id="make-me-a-hanzi-clip-10">
      <path d="M 642.0 289.0 L 592.0 285.0 L 420.0 266.0 Q 374.0 261.0 340.0 259.0 L 300.0 257.0 Q 274.0 255.0 272.0 251.0 Q 271.0 247.0 274.0 242.0 Q 278.0 230.0 329.0 212.0 Q 344.0 206.0 372.0 215.0 Q 400.0 224.0 426.0 229.0 L 532.0 247.0 L 648.0 255.0 L 700.0 258.0 L 792.0 257.0 L 876.0 255.0 L 906.0 254.0 Q 925.0 253.0 930.0 257.0 Q 948.0 266.0 921.0 285.0 Q 904.0 297.0 883.0 306.0 Q 862.0 315.0 852.0 315.0 L 702.0 295.0 L 642.0 289.0 Z" fill="lightgray"></path>
      </clipPath>
      <path clip-path="url(#make-me-a-hanzi-clip-10)" d="M 278.0 248.0 L 346.0 234.0 L 538.0 263.0 L 833.0 285.0 L 922.0 270.0 " fill="none" id="make-me-a-hanzi-animation-10" stroke-dasharray="778 1556" stroke-linecap="round"></path>

      <clipPath id="make-me-a-hanzi-clip-11">
      <path d="M 648.0 255.0 L 647.0 102.0 L 645.0 70.0 Q 644.0 45.0 643.0 39.0 Q 642.0 33.0 637.0 28.0 Q 632.0 23.0 626.0 24.0 Q 620.0 25.0 596.0 34.0 L 567.0 45.0 Q 554.0 51.0 551.0 48.0 Q 548.0 45.0 554.0 39.0 L 570.0 20.0 Q 597.0 -13.0 606.0 -23.0 Q 615.0 -33.0 628.0 -51.0 Q 641.0 -69.0 654.0 -67.0 Q 672.0 -67.0 684.0 -43.0 Q 706.0 1.0 706.0 27.0 L 706.0 44.0 L 700.0 258.0 L 702.0 295.0 L 704.0 309.0 L 706.0 317.0 Q 706.0 330.0 668.0 338.0 L 642.0 343.0 Q 631.0 343.0 627.5 339.0 Q 624.0 335.0 631.0 319.0 Q 638.0 303.0 642.0 289.0 L 648.0 255.0 Z" fill="lightgray"></path>
      </clipPath>
      <path clip-path="url(#make-me-a-hanzi-clip-11)" d="M 637.0 334.0 L 671.0 305.0 L 673.0 24.0 L 652.0 -12.0 L 614.0 3.0 L 554.0 44.0 " fill="none" id="make-me-a-hanzi-animation-11" stroke-dasharray="609 1218" stroke-linecap="round"></path>

      <clipPath id="make-me-a-hanzi-clip-12">
      <path d="M 444.0 195.0 Q 438.0 197.0 433.0 193.0 Q 428.0 189.0 430.0 185.0 L 442.0 163.0 Q 491.0 71.0 522.0 84.0 Q 544.0 92.0 540.0 130.0 Q 538.0 149.0 526.0 161.0 Q 514.0 171.0 494.0 179.0 Q 474.0 187.0 464.0 189.0 L 444.0 195.0 Z" fill="lightgray"></path>
      </clipPath>
      <path clip-path="url(#make-me-a-hanzi-clip-12)" d="M 440.0 186.0 L 503.0 133.0 L 514.0 104.0 " fill="none" id="make-me-a-hanzi-animation-12" stroke-dasharray="241 482" stroke-linecap="round"></path>

</g>
</svg>
