<svg version="1.1" viewBox="0 0 1024 1024" xmlns="http://www.w3.org/2000/svg">
  <g stroke="lightgray" stroke-dasharray="1,1" stroke-width="1" transform="scale(4, 4)">
    <line x1="0" y1="0" x2="256" y2="256"></line>
    <line x1="256" y1="0" x2="0" y2="256"></line>
    <line x1="128" y1="0" x2="128" y2="256"></line>
    <line x1="0" y1="128" x2="256" y2="128"></line>
  </g>
  <g transform="scale(0.92, -0.92) translate(60, -850)">
    <style type="text/css">
      
        @keyframes keyframes0 {
          from {
            stroke: blue;
            stroke-dashoffset: 398;
            stroke-width: 128;
          }
          56% {
            animation-timing-function: step-end;
            stroke: blue;
            stroke-dashoffset: 0;
            stroke-width: 128;
          }
          to {
            stroke: black;
            stroke-width: 1024;
          }
        }
        #make-me-a-hanzi-animation-0 {
          animation: keyframes0 0.5738932291666666s both;
          animation-delay: 0s;
          animation-timing-function: linear;
        }
      
        @keyframes keyframes1 {
          from {
            stroke: blue;
            stroke-dashoffset: 381;
            stroke-width: 128;
          }
          55% {
            animation-timing-function: step-end;
            stroke: blue;
            stroke-dashoffset: 0;
            stroke-width: 128;
          }
          to {
            stroke: black;
            stroke-width: 1024;
          }
        }
        #make-me-a-hanzi-animation-1 {
          animation: keyframes1 0.56005859375s both;
          animation-delay: 0.5738932291666666s;
          animation-timing-function: linear;
        }
      
        @keyframes keyframes2 {
          from {
            stroke: blue;
            stroke-dashoffset: 639;
            stroke-width: 128;
          }
          68% {
            animation-timing-function: step-end;
            stroke: blue;
            stroke-dashoffset: 0;
            stroke-width: 128;
          }
          to {
            stroke: black;
            stroke-width: 1024;
          }
        }
        #make-me-a-hanzi-animation-2 {
          animation: keyframes2 0.77001953125s both;
          animation-delay: 1.1339518229166665s;
          animation-timing-function: linear;
        }
      
        @keyframes keyframes3 {
          from {
            stroke: blue;
            stroke-dashoffset: 776;
            stroke-width: 128;
          }
          72% {
            animation-timing-function: step-end;
            stroke: blue;
            stroke-dashoffset: 0;
            stroke-width: 128;
          }
          to {
            stroke: black;
            stroke-width: 1024;
          }
        }
        #make-me-a-hanzi-animation-3 {
          animation: keyframes3 0.8815104166666666s both;
          animation-delay: 1.9039713541666665s;
          animation-timing-function: linear;
        }
      
        @keyframes keyframes4 {
          from {
            stroke: blue;
            stroke-dashoffset: 508;
            stroke-width: 128;
          }
          62% {
            animation-timing-function: step-end;
            stroke: blue;
            stroke-dashoffset: 0;
            stroke-width: 128;
          }
          to {
            stroke: black;
            stroke-width: 1024;
          }
        }
        #make-me-a-hanzi-animation-4 {
          animation: keyframes4 0.6634114583333334s both;
          animation-delay: 2.785481770833333s;
          animation-timing-function: linear;
        }
      
        @keyframes keyframes5 {
          from {
            stroke: blue;
            stroke-dashoffset: 500;
            stroke-width: 128;
          }
          62% {
            animation-timing-function: step-end;
            stroke: blue;
            stroke-dashoffset: 0;
            stroke-width: 128;
          }
          to {
            stroke: black;
            stroke-width: 1024;
          }
        }
        #make-me-a-hanzi-animation-5 {
          animation: keyframes5 0.6569010416666666s both;
          animation-delay: 3.4488932291666665s;
          animation-timing-function: linear;
        }
      
        @keyframes keyframes6 {
          from {
            stroke: blue;
            stroke-dashoffset: 436;
            stroke-width: 128;
          }
          59% {
            animation-timing-function: step-end;
            stroke: blue;
            stroke-dashoffset: 0;
            stroke-width: 128;
          }
          to {
            stroke: black;
            stroke-width: 1024;
          }
        }
        #make-me-a-hanzi-animation-6 {
          animation: keyframes6 0.6048177083333334s both;
          animation-delay: 4.105794270833333s;
          animation-timing-function: linear;
        }
      
        @keyframes keyframes7 {
          from {
            stroke: blue;
            stroke-dashoffset: 420;
            stroke-width: 128;
          }
          58% {
            animation-timing-function: step-end;
            stroke: blue;
            stroke-dashoffset: 0;
            stroke-width: 128;
          }
          to {
            stroke: black;
            stroke-width: 1024;
          }
        }
        #make-me-a-hanzi-animation-7 {
          animation: keyframes7 0.591796875s both;
          animation-delay: 4.710611979166666s;
          animation-timing-function: linear;
        }
      
        @keyframes keyframes8 {
          from {
            stroke: blue;
            stroke-dashoffset: 706;
            stroke-width: 128;
          }
          70% {
            animation-timing-function: step-end;
            stroke: blue;
            stroke-dashoffset: 0;
            stroke-width: 128;
          }
          to {
            stroke: black;
            stroke-width: 1024;
          }
        }
        #make-me-a-hanzi-animation-8 {
          animation: keyframes8 0.8245442708333334s both;
          animation-delay: 5.302408854166666s;
          animation-timing-function: linear;
        }
      
        @keyframes keyframes9 {
          from {
            stroke: blue;
            stroke-dashoffset: 611;
            stroke-width: 128;
          }
          67% {
            animation-timing-function: step-end;
            stroke: blue;
            stroke-dashoffset: 0;
            stroke-width: 128;
          }
          to {
            stroke: black;
            stroke-width: 1024;
          }
        }
        #make-me-a-hanzi-animation-9 {
          animation: keyframes9 0.7472330729166666s both;
          animation-delay: 6.126953124999999s;
          animation-timing-function: linear;
        }
      
        @keyframes keyframes10 {
          from {
            stroke: blue;
            stroke-dashoffset: 600;
            stroke-width: 128;
          }
          66% {
            animation-timing-function: step-end;
            stroke: blue;
            stroke-dashoffset: 0;
            stroke-width: 128;
          }
          to {
            stroke: black;
            stroke-width: 1024;
          }
        }
        #make-me-a-hanzi-animation-10 {
          animation: keyframes10 0.73828125s both;
          animation-delay: 6.874186197916666s;
          animation-timing-function: linear;
        }
      
        @keyframes keyframes11 {
          from {
            stroke: blue;
            stroke-dashoffset: 900;
            stroke-width: 128;
          }
          75% {
            animation-timing-function: step-end;
            stroke: blue;
            stroke-dashoffset: 0;
            stroke-width: 128;
          }
          to {
            stroke: black;
            stroke-width: 1024;
          }
        }
        #make-me-a-hanzi-animation-11 {
          animation: keyframes11 0.982421875s both;
          animation-delay: 7.612467447916666s;
          animation-timing-function: linear;
        }
      
        @keyframes keyframes12 {
          from {
            stroke: blue;
            stroke-dashoffset: 1045;
            stroke-width: 128;
          }
          77% {
            animation-timing-function: step-end;
            stroke: blue;
            stroke-dashoffset: 0;
            stroke-width: 128;
          }
          to {
            stroke: black;
            stroke-width: 1024;
          }
        }
        #make-me-a-hanzi-animation-12 {
          animation: keyframes12 1.1004231770833333s both;
          animation-delay: 8.594889322916666s;
          animation-timing-function: linear;
        }
      
        @keyframes keyframes13 {
          from {
            stroke: blue;
            stroke-dashoffset: 543;
            stroke-width: 128;
          }
          64% {
            animation-timing-function: step-end;
            stroke: blue;
            stroke-dashoffset: 0;
            stroke-width: 128;
          }
          to {
            stroke: black;
            stroke-width: 1024;
          }
        }
        #make-me-a-hanzi-animation-13 {
          animation: keyframes13 0.69189453125s both;
          animation-delay: 9.6953125s;
          animation-timing-function: linear;
        }
      
    </style>
    
      <path d="M 206 663 Q 197 663 194 658 Q 192 653 199 643 Q 200 638 209.5 628.5 Q 219 619 244.5 589 Q 270 559 282 551 Q 298 543 303 543.5 Q 308 544 313 548 Q 330 556 330 583 Q 327 623 303 635 Q 288 644 260.5 651 Q 233 658 231 658 L 206 663 Z" fill="lightgray"></path>
    
      <path d="M 128 464 Q 120 466 117 461 Q 113 458 115 453 L 123 437 Q 127 428 150 395 Q 173 362 187 352 Q 216 334 233 350 Q 250 364 241 401 Q 237 416 228.5 424 Q 220 432 154 456 L 128 464 Z" fill="lightgray"></path>
    
      <path d="M 225 181 Q 211 153 201 138 Q 160 77 136 57 Q 112 37 105.5 25 Q 99 13 104 -8 L 121 -49 Q 133 -79 141.5 -85 Q 150 -91 156 -89 Q 169 -87 181 -39 Q 214 60 220 76 L 251 151 Q 258 168 280 228 L 291 263 Q 295 276 289 283 Q 281 289 273 275 L 225 181 Z" fill="lightgray"></path>
    
      <path d="M 753 611 L 815 615 L 849 618 L 882 618 Q 907 618 913 631 Q 913 632 911.5 638 Q 910 644 886 655.5 Q 862 667 849 667 Q 836 667 818 664 L 805 662 Q 798 660 797 660 L 762 654 L 704 644 L 613 631 Q 608 631 559 624 L 507 615 L 465 609 Q 444 605 433 605 L 393 601 Q 373 599 383 584 Q 388 578 414.5 567 Q 441 556 462 564 L 479 570 Q 481 570 515 577 L 561 587 L 701 606 L 753 611 Z" fill="lightgray"></path>
    
      <path d="M 559 624 L 558 656 Q 557 669 560 680 Q 563 690 563 692 Q 560 704 550 707 Q 547 708 544 709 L 533 714 Q 530 715 508 718 Q 486 720 482 719 Q 463 715 467 702 Q 469 696 475 691 Q 479 686 484 679 Q 492 663 493 660 L 507 615 L 515 577 L 529 520 L 542 476 Q 544 471 549 469 Q 554 464 569 474 C 572 476 572 480 569 510 L 566 545 Q 566 549 565 552 L 563 567 Q 563 581 561 587 L 559 624 Z" fill="lightgray"></path>
    
      <path d="M 737 528 L 745 571 Q 750 588 753 611 L 762 654 L 769 684 Q 779 711 786 720 Q 793 728 783 741 Q 771 753 756 762 Q 741 771 738 771 Q 719 779 704 775 Q 694 769 701 751 Q 708 733 708 697 L 704 644 L 701 606 L 693 537 C 690 507 732 499 737 528 Z" fill="lightgray"></path>
    
      <path d="M 642 484 L 687 493 Q 746 501 747 501 Q 747 502 751 506 Q 755 510 749 518 L 737 528 C 720 542 720 542 693 537 L 668 532 Q 662 532 650 528 L 620 519 Q 606 515 595 513 L 569 510 C 539 507 539 472 569 474 L 585 475 L 642 484 Z" fill="lightgray"></path>
    
      <path d="M 472 408 L 453 413 L 421 418 Q 413 418 407 416 Q 399 408 409 398 Q 428 379 432 350 L 443 286 Q 447 265 453 258 Q 465 238 481 262 C 481 262 481 268 481 298 L 481 345 L 479 371 C 477 401 476 407 472 408 Z" fill="lightgray"></path>
    
      <path d="M 823 333 L 837 350 Q 839 350 848 365 Q 857 380 868 386 Q 879 391 880 395 Q 884 401 881 411 Q 877 421 870 426 L 846 441 Q 823 460 813 460 Q 803 460 778 454 Q 753 447 733 444 L 668 436 L 600 429 L 472 408 C 442 403 451 359 479 371 L 498 379 L 541 390 L 604 402 L 666 411 L 744 419 Q 752 420 772 420 Q 791 420 791 398 L 786 375 Q 786 373 784 368 L 780 356 Q 778 349 776 341 C 768 312 804 310 823 333 Z" fill="lightgray"></path>
    
      <path d="M 663 283 L 695 288 L 752 295 Q 766 296 796 297 Q 825 298 831 300 Q 840 300 842 305 Q 847 320 823 333 C 805 345 805 345 776 341 L 754 338 L 701 327 L 665 321 L 606 312 L 567 306 Q 519 298 504 298 L 481 298 C 451 298 451 260 481 262 L 511 264 L 518 265 L 530 266 Q 537 266 604 275 L 663 283 Z" fill="lightgray"></path>
    
      <path d="M 601 226 L 551 220 Q 526 217 509 216 L 474 212 Q 452 209 452 200 Q 452 194 463 188 L 475 184 Q 479 182 484 180 Q 489 178 519 178 L 597 186 L 656 198 L 731 208 Q 767 212 776 216 L 797 220 Q 816 222 809 234 Q 805 240 792 244 L 763 252 Q 739 254 737 254 L 695 246 L 659 238 L 601 226 Z" fill="lightgray"></path>
    
      <path d="M 588 134 L 387 112 L 368 112 L 341 109 Q 320 108 317.5 105.5 Q 315 103 315 100 Q 309 92 338.5 74 Q 368 56 376.5 56 Q 385 56 408 61 Q 455 77 497 80 Q 506 82 578 91 L 640 97 L 725 102 L 735 103 L 750 104 L 767 104 Q 826 104 844 103 L 947 98 Q 957 98 963.5 100 Q 970 102 970 117 Q 970 120 955 135 Q 940 150 915 158 L 891 164 L 809 154 L 648 139 L 588 134 Z" fill="lightgray"></path>
    
      <path d="M 604 275 L 601 226 L 597 186 L 594 160 Q 593 156 588 134 L 578 91 L 561 51 Q 550 22 513 -12 Q 475 -46 440 -64 Q 404 -81 365 -94 L 313 -112 Q 302 -115 304 -121 Q 306 -126 321 -124 L 387 -114 Q 428 -108 478 -85 Q 527 -62 562 -30 Q 608 15 631 72 Q 639 92 640 97 L 648 139 L 651 159 L 656 198 L 659 238 L 663 283 L 665 321 L 666 411 L 668 436 L 674 454 Q 678 459 667 468 Q 656 477 642 484 C 616 500 573 503 585 475 L 593 457 Q 596 449 600 429 L 604 402 L 606 312 L 604 275 Z" fill="lightgray"></path>
    
      <path d="M 687 29 L 733 -5 L 825 -96 Q 859 -128 875.5 -136 Q 892 -144 907 -142 Q 913 -139 915 -139 Q 920 -134 924 -128.5 Q 928 -123 928.5 -105.5 Q 929 -88 922 -74 Q 909 -43 852.5 -12.5 Q 796 18 783.5 21.5 Q 771 25 708 44 L 678 52 Q 673 54 668 49 Q 667 44 671 40 L 687 29 Z" fill="lightgray"></path>
    
    
      <clipPath id="make-me-a-hanzi-clip-0">
        <path d="M 206 663 Q 197 663 194 658 Q 192 653 199 643 Q 200 638 209.5 628.5 Q 219 619 244.5 589 Q 270 559 282 551 Q 298 543 303 543.5 Q 308 544 313 548 Q 330 556 330 583 Q 327 623 303 635 Q 288 644 260.5 651 Q 233 658 231 658 L 206 663 Z"></path>
      </clipPath>
      <path clip-path="url(#make-me-a-hanzi-clip-0)" d="M 203 653 L 286 600 L 302 559" fill="none" id="make-me-a-hanzi-animation-0" stroke-dasharray="270 540" stroke-linecap="round"></path>
    
      <clipPath id="make-me-a-hanzi-clip-1">
        <path d="M 128 464 Q 120 466 117 461 Q 113 458 115 453 L 123 437 Q 127 428 150 395 Q 173 362 187 352 Q 216 334 233 350 Q 250 364 241 401 Q 237 416 228.5 424 Q 220 432 154 456 L 128 464 Z"></path>
      </clipPath>
      <path clip-path="url(#make-me-a-hanzi-clip-1)" d="M 125 455 L 201 394 L 214 370" fill="none" id="make-me-a-hanzi-animation-1" stroke-dasharray="253 506" stroke-linecap="round"></path>
    
      <clipPath id="make-me-a-hanzi-clip-2">
        <path d="M 225 181 Q 211 153 201 138 Q 160 77 136 57 Q 112 37 105.5 25 Q 99 13 104 -8 L 121 -49 Q 133 -79 141.5 -85 Q 150 -91 156 -89 Q 169 -87 181 -39 Q 214 60 220 76 L 251 151 Q 258 168 280 228 L 291 263 Q 295 276 289 283 Q 281 289 273 275 L 225 181 Z"></path>
      </clipPath>
      <path clip-path="url(#make-me-a-hanzi-clip-2)" d="M 152 -75 L 150 8 L 219 127 L 284 276" fill="none" id="make-me-a-hanzi-animation-2" stroke-dasharray="511 1022" stroke-linecap="round"></path>
    
      <clipPath id="make-me-a-hanzi-clip-3">
        <path d="M 753 611 L 815 615 L 849 618 L 882 618 Q 907 618 913 631 Q 913 632 911.5 638 Q 910 644 886 655.5 Q 862 667 849 667 Q 836 667 818 664 L 805 662 Q 798 660 797 660 L 762 654 L 704 644 L 613 631 Q 608 631 559 624 L 507 615 L 465 609 Q 444 605 433 605 L 393 601 Q 373 599 383 584 Q 388 578 414.5 567 Q 441 556 462 564 L 479 570 Q 481 570 515 577 L 561 587 L 701 606 L 753 611 Z"></path>
      </clipPath>
      <path clip-path="url(#make-me-a-hanzi-clip-3)" d="M 390 592 L 450 584 L 572 609 L 851 643 L 904 633" fill="none" id="make-me-a-hanzi-animation-3" stroke-dasharray="648 1296" stroke-linecap="round"></path>
    
      <clipPath id="make-me-a-hanzi-clip-4">
        <path d="M 559 624 L 558 656 Q 557 669 560 680 Q 563 690 563 692 Q 560 704 550 707 Q 547 708 544 709 L 533 714 Q 530 715 508 718 Q 486 720 482 719 Q 463 715 467 702 Q 469 696 475 691 Q 479 686 484 679 Q 492 663 493 660 L 507 615 L 515 577 L 529 520 L 542 476 Q 544 471 549 469 Q 554 464 569 474 C 572 476 572 480 569 510 L 566 545 Q 566 549 565 552 L 563 567 Q 563 581 561 587 L 559 624 Z"></path>
      </clipPath>
      <path clip-path="url(#make-me-a-hanzi-clip-4)" d="M 480 705 L 524 677 L 558 480" fill="none" id="make-me-a-hanzi-animation-4" stroke-dasharray="380 760" stroke-linecap="round"></path>
    
      <clipPath id="make-me-a-hanzi-clip-5">
        <path d="M 737 528 L 745 571 Q 750 588 753 611 L 762 654 L 769 684 Q 779 711 786 720 Q 793 728 783 741 Q 771 753 756 762 Q 741 771 738 771 Q 719 779 704 775 Q 694 769 701 751 Q 708 733 708 697 L 704 644 L 701 606 L 693 537 C 690 507 732 499 737 528 Z"></path>
      </clipPath>
      <path clip-path="url(#make-me-a-hanzi-clip-5)" d="M 711 764 L 745 722 L 721 568 L 720 553 L 731 537" fill="none" id="make-me-a-hanzi-animation-5" stroke-dasharray="372 744" stroke-linecap="round"></path>
    
      <clipPath id="make-me-a-hanzi-clip-6">
        <path d="M 642 484 L 687 493 Q 746 501 747 501 Q 747 502 751 506 Q 755 510 749 518 L 737 528 C 720 542 720 542 693 537 L 668 532 Q 662 532 650 528 L 620 519 Q 606 515 595 513 L 569 510 C 539 507 539 472 569 474 L 585 475 L 642 484 Z"></path>
      </clipPath>
      <path clip-path="url(#make-me-a-hanzi-clip-6)" d="M 573 480 L 589 494 L 691 515 L 727 515 L 744 507" fill="none" id="make-me-a-hanzi-animation-6" stroke-dasharray="308 616" stroke-linecap="round"></path>
    
      <clipPath id="make-me-a-hanzi-clip-7">
        <path d="M 472 408 L 453 413 L 421 418 Q 413 418 407 416 Q 399 408 409 398 Q 428 379 432 350 L 443 286 Q 447 265 453 258 Q 465 238 481 262 C 481 262 481 268 481 298 L 481 345 L 479 371 C 477 401 476 407 472 408 Z"></path>
      </clipPath>
      <path clip-path="url(#make-me-a-hanzi-clip-7)" d="M 415 408 L 450 385 L 466 264" fill="none" id="make-me-a-hanzi-animation-7" stroke-dasharray="292 584" stroke-linecap="round"></path>
    
      <clipPath id="make-me-a-hanzi-clip-8">
        <path d="M 823 333 L 837 350 Q 839 350 848 365 Q 857 380 868 386 Q 879 391 880 395 Q 884 401 881 411 Q 877 421 870 426 L 846 441 Q 823 460 813 460 Q 803 460 778 454 Q 753 447 733 444 L 668 436 L 600 429 L 472 408 C 442 403 451 359 479 371 L 498 379 L 541 390 L 604 402 L 666 411 L 744 419 Q 752 420 772 420 Q 791 420 791 398 L 786 375 Q 786 373 784 368 L 780 356 Q 778 349 776 341 C 768 312 804 310 823 333 Z"></path>
      </clipPath>
      <path clip-path="url(#make-me-a-hanzi-clip-8)" d="M 482 378 L 491 394 L 552 408 L 790 436 L 812 429 L 830 405 L 812 364 L 785 347" fill="none" id="make-me-a-hanzi-animation-8" stroke-dasharray="578 1156" stroke-linecap="round"></path>
    
      <clipPath id="make-me-a-hanzi-clip-9">
        <path d="M 663 283 L 695 288 L 752 295 Q 766 296 796 297 Q 825 298 831 300 Q 840 300 842 305 Q 847 320 823 333 C 805 345 805 345 776 341 L 754 338 L 701 327 L 665 321 L 606 312 L 567 306 Q 519 298 504 298 L 481 298 C 451 298 451 260 481 262 L 511 264 L 518 265 L 530 266 Q 537 266 604 275 L 663 283 Z"></path>
      </clipPath>
      <path clip-path="url(#make-me-a-hanzi-clip-9)" d="M 488 268 L 497 280 L 752 317 L 812 317 L 833 310" fill="none" id="make-me-a-hanzi-animation-9" stroke-dasharray="483 966" stroke-linecap="round"></path>
    
      <clipPath id="make-me-a-hanzi-clip-10">
        <path d="M 601 226 L 551 220 Q 526 217 509 216 L 474 212 Q 452 209 452 200 Q 452 194 463 188 L 475 184 Q 479 182 484 180 Q 489 178 519 178 L 597 186 L 656 198 L 731 208 Q 767 212 776 216 L 797 220 Q 816 222 809 234 Q 805 240 792 244 L 763 252 Q 739 254 737 254 L 695 246 L 659 238 L 601 226 Z"></path>
      </clipPath>
      <path clip-path="url(#make-me-a-hanzi-clip-10)" d="M 460 200 L 525 197 L 734 231 L 801 229" fill="none" id="make-me-a-hanzi-animation-10" stroke-dasharray="472 944" stroke-linecap="round"></path>
    
      <clipPath id="make-me-a-hanzi-clip-11">
        <path d="M 588 134 L 387 112 L 368 112 L 341 109 Q 320 108 317.5 105.5 Q 315 103 315 100 Q 309 92 338.5 74 Q 368 56 376.5 56 Q 385 56 408 61 Q 455 77 497 80 Q 506 82 578 91 L 640 97 L 725 102 L 735 103 L 750 104 L 767 104 Q 826 104 844 103 L 947 98 Q 957 98 963.5 100 Q 970 102 970 117 Q 970 120 955 135 Q 940 150 915 158 L 891 164 L 809 154 L 648 139 L 588 134 Z"></path>
      </clipPath>
      <path clip-path="url(#make-me-a-hanzi-clip-11)" d="M 323 100 L 379 84 L 612 116 L 888 133 L 924 126 L 958 110" fill="none" id="make-me-a-hanzi-animation-11" stroke-dasharray="772 1544" stroke-linecap="round"></path>
    
      <clipPath id="make-me-a-hanzi-clip-12">
        <path d="M 604 275 L 601 226 L 597 186 L 594 160 Q 593 156 588 134 L 578 91 L 561 51 Q 550 22 513 -12 Q 475 -46 440 -64 Q 404 -81 365 -94 L 313 -112 Q 302 -115 304 -121 Q 306 -126 321 -124 L 387 -114 Q 428 -108 478 -85 Q 527 -62 562 -30 Q 608 15 631 72 Q 639 92 640 97 L 648 139 L 651 159 L 656 198 L 659 238 L 663 283 L 665 321 L 666 411 L 668 436 L 674 454 Q 678 459 667 468 Q 656 477 642 484 C 616 500 573 503 585 475 L 593 457 Q 596 449 600 429 L 604 402 L 606 312 L 604 275 Z"></path>
      </clipPath>
      <path clip-path="url(#make-me-a-hanzi-clip-12)" d="M 593 473 L 633 445 L 636 316 L 621 148 L 608 90 L 585 38 L 542 -17 L 489 -58 L 433 -86 L 310 -118" fill="none" id="make-me-a-hanzi-animation-12" stroke-dasharray="917 1834" stroke-linecap="round"></path>
    
      <clipPath id="make-me-a-hanzi-clip-13">
        <path d="M 687 29 L 733 -5 L 825 -96 Q 859 -128 875.5 -136 Q 892 -144 907 -142 Q 913 -139 915 -139 Q 920 -134 924 -128.5 Q 928 -123 928.5 -105.5 Q 929 -88 922 -74 Q 909 -43 852.5 -12.5 Q 796 18 783.5 21.5 Q 771 25 708 44 L 678 52 Q 673 54 668 49 Q 667 44 671 40 L 687 29 Z"></path>
      </clipPath>
      <path clip-path="url(#make-me-a-hanzi-clip-13)" d="M 674 46 L 736 18 L 824 -40 L 882 -89 L 903 -120" fill="none" id="make-me-a-hanzi-animation-13" stroke-dasharray="415 830" stroke-linecap="round"></path>
    
  </g>
</svg>