<svg version="1.1" viewBox="0 0 1024 1024" xmlns="http://www.w3.org/2000/svg">
  <g stroke="lightgray" stroke-dasharray="1,1" stroke-width="1" transform="scale(4, 4)">
    <line x1="0" y1="0" x2="256" y2="256"></line>
    <line x1="256" y1="0" x2="0" y2="256"></line>
    <line x1="128" y1="0" x2="128" y2="256"></line>
    <line x1="0" y1="128" x2="256" y2="128"></line>
  </g>
<g transform="scale(1, -1) translate(0, -900)">
   <style type="text/css">
    @keyframes keyframes0 {
      from {
       stroke: blue;
       stroke-dashoffset: 440;
       stroke-width: 128;
       }
       59% {
       animation-timing-function: step-end;
       stroke: blue;
       stroke-dashoffset: 0;
       stroke-width: 128;
       }
       to {
       stroke: black;
       stroke-width: 1024;
       }
       }
       #make-me-a-hanzi-animation-0 {
         animation: keyframes0 0.608073s both;
         animation-delay: 0.000000s;
         animation-timing-function: linear;
       }
    @keyframes keyframes1 {
      from {
       stroke: blue;
       stroke-dashoffset: 394;
       stroke-width: 128;
       }
       56% {
       animation-timing-function: step-end;
       stroke: blue;
       stroke-dashoffset: 0;
       stroke-width: 128;
       }
       to {
       stroke: black;
       stroke-width: 1024;
       }
       }
       #make-me-a-hanzi-animation-1 {
         animation: keyframes1 0.570638s both;
         animation-delay: 0.608073s;
         animation-timing-function: linear;
       }
    @keyframes keyframes2 {
      from {
       stroke: blue;
       stroke-dashoffset: 1064;
       stroke-width: 128;
       }
       78% {
       animation-timing-function: step-end;
       stroke: blue;
       stroke-dashoffset: 0;
       stroke-width: 128;
       }
       to {
       stroke: black;
       stroke-width: 1024;
       }
       }
       #make-me-a-hanzi-animation-2 {
         animation: keyframes2 1.115885s both;
         animation-delay: 1.178711s;
         animation-timing-function: linear;
       }
    @keyframes keyframes3 {
      from {
       stroke: blue;
       stroke-dashoffset: 388;
       stroke-width: 128;
       }
       56% {
       animation-timing-function: step-end;
       stroke: blue;
       stroke-dashoffset: 0;
       stroke-width: 128;
       }
       to {
       stroke: black;
       stroke-width: 1024;
       }
       }
       #make-me-a-hanzi-animation-3 {
         animation: keyframes3 0.565755s both;
         animation-delay: 2.294596s;
         animation-timing-function: linear;
       }
    @keyframes keyframes4 {
      from {
       stroke: blue;
       stroke-dashoffset: 573;
       stroke-width: 128;
       }
       65% {
       animation-timing-function: step-end;
       stroke: blue;
       stroke-dashoffset: 0;
       stroke-width: 128;
       }
       to {
       stroke: black;
       stroke-width: 1024;
       }
       }
       #make-me-a-hanzi-animation-4 {
         animation: keyframes4 0.716309s both;
         animation-delay: 2.860352s;
         animation-timing-function: linear;
       }
    @keyframes keyframes5 {
      from {
       stroke: blue;
       stroke-dashoffset: 929;
       stroke-width: 128;
       }
       75% {
       animation-timing-function: step-end;
       stroke: blue;
       stroke-dashoffset: 0;
       stroke-width: 128;
       }
       to {
       stroke: black;
       stroke-width: 1024;
       }
       }
       #make-me-a-hanzi-animation-5 {
         animation: keyframes5 1.006022s both;
         animation-delay: 3.576660s;
         animation-timing-function: linear;
       }
    @keyframes keyframes6 {
      from {
       stroke: blue;
       stroke-dashoffset: 828;
       stroke-width: 128;
       }
       73% {
       animation-timing-function: step-end;
       stroke: blue;
       stroke-dashoffset: 0;
       stroke-width: 128;
       }
       to {
       stroke: black;
       stroke-width: 1024;
       }
       }
       #make-me-a-hanzi-animation-6 {
         animation: keyframes6 0.923828s both;
         animation-delay: 4.582682s;
         animation-timing-function: linear;
       }
    @keyframes keyframes7 {
      from {
       stroke: blue;
       stroke-dashoffset: 543;
       stroke-width: 128;
       }
       64% {
       animation-timing-function: step-end;
       stroke: blue;
       stroke-dashoffset: 0;
       stroke-width: 128;
       }
       to {
       stroke: black;
       stroke-width: 1024;
       }
       }
       #make-me-a-hanzi-animation-7 {
         animation: keyframes7 0.691895s both;
         animation-delay: 5.506510s;
         animation-timing-function: linear;
       }
    @keyframes keyframes8 {
      from {
       stroke: blue;
       stroke-dashoffset: 502;
       stroke-width: 128;
       }
       62% {
       animation-timing-function: step-end;
       stroke: blue;
       stroke-dashoffset: 0;
       stroke-width: 128;
       }
       to {
       stroke: black;
       stroke-width: 1024;
       }
       }
       #make-me-a-hanzi-animation-8 {
         animation: keyframes8 0.658529s both;
         animation-delay: 6.198405s;
         animation-timing-function: linear;
       }
    @keyframes keyframes9 {
      from {
       stroke: blue;
       stroke-dashoffset: 773;
       stroke-width: 128;
       }
       72% {
       animation-timing-function: step-end;
       stroke: blue;
       stroke-dashoffset: 0;
       stroke-width: 128;
       }
       to {
       stroke: black;
       stroke-width: 1024;
       }
       }
       #make-me-a-hanzi-animation-9 {
         animation: keyframes9 0.879069s both;
         animation-delay: 6.856934s;
         animation-timing-function: linear;
       }
    @keyframes keyframes10 {
      from {
       stroke: blue;
       stroke-dashoffset: 816;
       stroke-width: 128;
       }
       73% {
       animation-timing-function: step-end;
       stroke: blue;
       stroke-dashoffset: 0;
       stroke-width: 128;
       }
       to {
       stroke: black;
       stroke-width: 1024;
       }
       }
       #make-me-a-hanzi-animation-10 {
         animation: keyframes10 0.914062s both;
         animation-delay: 7.736003s;
         animation-timing-function: linear;
       }
</style>
<path d="M 87.5 582.5 Q 81.5 515.5 63.5 452.5 Q 54.5 416.5 79.5 390.5 Q 91.5 375.5 107.5 393.5 Q 123.5 414.5 127.5 447.5 Q 136.5 496.5 127.5 536.5 Q 123.5 567.5 109.5 588.5 Q 102.5 595.5 97.5 594.5 Q 90.5 590.5 87.5 582.5 Z" fill="lightgray"></path> 
<path d="M 262.5 554.5 Q 334.5 599.5 370.5 615.5 Q 386.5 619.5 382.5 628.5 Q 378.5 641.5 363.5 659.5 Q 348.5 675.5 329.5 678.5 Q 316.5 679.5 316.5 662.5 Q 317.5 646.5 264.5 585.5 C 244.5 562.5 237.5 538.5 262.5 554.5 Z" fill="lightgray"></path> 
<path d="M 245.5 310.5 Q 251.5 364.5 262.5 554.5 L 264.5 585.5 Q 267.5 672.5 288.5 733.5 Q 295.5 746.5 283.5 758.5 Q 261.5 777.5 221.5 788.5 Q 196.5 794.5 186.5 787.5 Q 177.5 780.5 185.5 767.5 Q 240.5 680.5 200.5 335.5 Q 173.5 203.5 124.5 132.5 Q 97.5 99.5 59.5 65.5 Q 49.5 56.5 49.5 51.5 Q 50.5 47.5 62.5 49.5 Q 74.5 45.5 103.5 62.5 Q 208.5 110.5 245.5 309.5 L 245.5 310.5 Z" fill="lightgray"></path> 
<path d="M 245.5 309.5 Q 245.5 302.5 316.5 218.5 Q 317.5 217.5 320.5 213.5 Q 329.5 203.5 341.5 201.5 Q 348.5 200.5 354.5 210.5 Q 360.5 220.5 356.5 244.5 Q 352.5 277.5 266.5 313.5 Q 254.5 317.5 249.5 315.5 Q 246.5 314.5 245.5 310.5 L 245.5 309.5 Z" fill="lightgray"></path> 
<path d="M 522.5 705.5 Q 561.5 762.5 585.5 783.5 Q 592.5 790.5 590.5 803.5 Q 587.5 813.5 565.5 833.5 Q 543.5 849.5 528.5 850.5 Q 512.5 849.5 518.5 831.5 Q 527.5 807.5 489.5 737.5 Q 447.5 671.5 388.5 602.5 Q 379.5 595.5 377.5 589.5 Q 373.5 580.5 385.5 582.5 Q 403.5 585.5 459.5 637.5 L 474.5 652.5 Q 486.5 665.5 500.5 679.5 L 522.5 705.5 Z" fill="lightgray"></path> 
<path d="M 546.5 489.5 Q 565.5 508.5 587.5 528.5 L 610.5 553.5 Q 727.5 685.5 738.5 693.5 Q 753.5 703.5 748.5 711.5 Q 747.5 720.5 690.5 744.5 Q 674.5 754.5 654.5 742.5 Q 626.5 727.5 522.5 705.5 C 493.5 699.5 470.5 683.5 500.5 679.5 Q 527.5 670.5 616.5 692.5 Q 632.5 696.5 638.5 689.5 Q 641.5 682.5 629.5 666.5 Q 605.5 623.5 570.5 580.5 L 552.5 558.5 Q 462.5 462.5 335.5 370.5 Q 322.5 360.5 335.5 358.5 Q 344.5 358.5 387.5 378.5 Q 433.5 399.5 487.5 439.5 Q 506.5 454.5 525.5 470.5 L 546.5 489.5 Z" fill="lightgray"></path> 
<path d="M 587.5 528.5 Q 770.5 383.5 798.5 375.5 Q 856.5 368.5 955.5 396.5 Q 973.5 400.5 973.5 404.5 Q 974.5 411.5 961.5 415.5 Q 901.5 433.5 832.5 451.5 Q 753.5 473.5 694.5 506.5 Q 652.5 527.5 610.5 553.5 L 570.5 580.5 Q 560.5 587.5 548.5 596.5 Q 497.5 636.5 474.5 652.5 C 450.5 669.5 437.5 657.5 459.5 637.5 Q 469.5 627.5 552.5 558.5 L 587.5 528.5 Z" fill="lightgray"></path> 
<path d="M 602.5 348.5 Q 639.5 355.5 679.5 360.5 Q 716.5 367.5 723.5 371.5 Q 730.5 378.5 727.5 386.5 Q 721.5 398.5 695.5 405.5 Q 674.5 411.5 604.5 393.5 L 548.5 380.5 Q 497.5 373.5 439.5 370.5 Q 405.5 366.5 428.5 350.5 Q 464.5 326.5 519.5 335.5 Q 532.5 339.5 549.5 339.5 L 602.5 348.5 Z" fill="lightgray"></path> 
<path d="M 600.5 260.5 Q 643.5 269.5 683.5 273.5 Q 707.5 276.5 698.5 289.5 Q 688.5 304.5 662.5 309.5 Q 640.5 313.5 601.5 302.5 L 548.5 289.5 Q 493.5 277.5 445.5 266.5 Q 427.5 262.5 448.5 247.5 Q 458.5 240.5 483.5 243.5 Q 516.5 249.5 548.5 253.5 L 600.5 260.5 Z" fill="lightgray"></path> 
<path d="M 599.5 162.5 Q 650.5 166.5 836.5 167.5 Q 855.5 166.5 860.5 175.5 Q 864.5 185.5 849.5 199.5 Q 791.5 244.5 746.5 226.5 Q 686.5 216.5 599.5 201.5 L 548.5 194.5 Q 452.5 184.5 341.5 170.5 Q 322.5 169.5 336.5 152.5 Q 349.5 139.5 367.5 133.5 Q 386.5 127.5 402.5 132.5 Q 471.5 150.5 548.5 156.5 L 599.5 162.5 Z" fill="lightgray"></path> 
<path d="M 552.5 -34.5 Q 556.5 -58.5 563.5 -67.5 Q 569.5 -74.5 576.5 -72.5 Q 589.5 -63.5 596.5 -7.5 Q 603.5 58.5 599.5 162.5 L 599.5 201.5 Q 599.5 228.5 600.5 260.5 L 601.5 302.5 Q 601.5 324.5 602.5 348.5 L 604.5 393.5 Q 605.5 400.5 606.5 405.5 Q 609.5 424.5 612.5 438.5 Q 615.5 454.5 601.5 464.5 Q 564.5 489.5 546.5 489.5 C 517.5 496.5 510.5 496.5 525.5 470.5 Q 526.5 469.5 528.5 466.5 Q 547.5 433.5 548.5 380.5 L 549.5 339.5 Q 549.5 317.5 548.5 289.5 L 548.5 253.5 Q 548.5 225.5 548.5 194.5 L 548.5 156.5 Q 548.5 0.5 552.5 -34.5 Z" fill="lightgray"></path> 
      <clipPath id="make-me-a-hanzi-clip-0">
      <path d="M 87.5 582.5 Q 81.5 515.5 63.5 452.5 Q 54.5 416.5 79.5 390.5 Q 91.5 375.5 107.5 393.5 Q 123.5 414.5 127.5 447.5 Q 136.5 496.5 127.5 536.5 Q 123.5 567.5 109.5 588.5 Q 102.5 595.5 97.5 594.5 Q 90.5 590.5 87.5 582.5 Z" fill="lightgray"></path>
      </clipPath>
      <path clip-path="url(#make-me-a-hanzi-clip-0)" d="M 99.5 582.5 L 104.5 500.5 L 91.5 426.5 L 92.5 399.5 " fill="none" id="make-me-a-hanzi-animation-0" stroke-dasharray="312 624" stroke-linecap="round"></path>

      <clipPath id="make-me-a-hanzi-clip-1">
      <path d="M 262.5 554.5 Q 334.5 599.5 370.5 615.5 Q 386.5 619.5 382.5 628.5 Q 378.5 641.5 363.5 659.5 Q 348.5 675.5 329.5 678.5 Q 316.5 679.5 316.5 662.5 Q 317.5 646.5 264.5 585.5 C 244.5 562.5 237.5 538.5 262.5 554.5 Z" fill="lightgray"></path>
      </clipPath>
      <path clip-path="url(#make-me-a-hanzi-clip-1)" d="M 328.5 666.5 L 341.5 636.5 L 282.5 586.5 L 270.5 561.5 " fill="none" id="make-me-a-hanzi-animation-1" stroke-dasharray="266 532" stroke-linecap="round"></path>

      <clipPath id="make-me-a-hanzi-clip-2">
      <path d="M 245.5 310.5 Q 251.5 364.5 262.5 554.5 L 264.5 585.5 Q 267.5 672.5 288.5 733.5 Q 295.5 746.5 283.5 758.5 Q 261.5 777.5 221.5 788.5 Q 196.5 794.5 186.5 787.5 Q 177.5 780.5 185.5 767.5 Q 240.5 680.5 200.5 335.5 Q 173.5 203.5 124.5 132.5 Q 97.5 99.5 59.5 65.5 Q 49.5 56.5 49.5 51.5 Q 50.5 47.5 62.5 49.5 Q 74.5 45.5 103.5 62.5 Q 208.5 110.5 245.5 309.5 L 245.5 310.5 Z" fill="lightgray"></path>
      </clipPath>
      <path clip-path="url(#make-me-a-hanzi-clip-2)" d="M 195.5 777.5 L 244.5 734.5 L 240.5 544.5 L 220.5 310.5 L 193.5 210.5 L 159.5 142.5 L 110.5 87.5 L 56.5 52.5 " fill="none" id="make-me-a-hanzi-animation-2" stroke-dasharray="936 1872" stroke-linecap="round"></path>

      <clipPath id="make-me-a-hanzi-clip-3">
      <path d="M 245.5 309.5 Q 245.5 302.5 316.5 218.5 Q 317.5 217.5 320.5 213.5 Q 329.5 203.5 341.5 201.5 Q 348.5 200.5 354.5 210.5 Q 360.5 220.5 356.5 244.5 Q 352.5 277.5 266.5 313.5 Q 254.5 317.5 249.5 315.5 Q 246.5 314.5 245.5 310.5 L 245.5 309.5 Z" fill="lightgray"></path>
      </clipPath>
      <path clip-path="url(#make-me-a-hanzi-clip-3)" d="M 251.5 310.5 L 320.5 254.5 L 340.5 216.5 " fill="none" id="make-me-a-hanzi-animation-3" stroke-dasharray="260 520" stroke-linecap="round"></path>

      <clipPath id="make-me-a-hanzi-clip-4">
      <path d="M 522.5 705.5 Q 561.5 762.5 585.5 783.5 Q 592.5 790.5 590.5 803.5 Q 587.5 813.5 565.5 833.5 Q 543.5 849.5 528.5 850.5 Q 512.5 849.5 518.5 831.5 Q 527.5 807.5 489.5 737.5 Q 447.5 671.5 388.5 602.5 Q 379.5 595.5 377.5 589.5 Q 373.5 580.5 385.5 582.5 Q 403.5 585.5 459.5 637.5 L 474.5 652.5 Q 486.5 665.5 500.5 679.5 L 522.5 705.5 Z" fill="lightgray"></path>
      </clipPath>
      <path clip-path="url(#make-me-a-hanzi-clip-4)" d="M 527.5 838.5 L 545.5 817.5 L 550.5 795.5 L 510.5 725.5 L 441.5 639.5 L 384.5 589.5 " fill="none" id="make-me-a-hanzi-animation-4" stroke-dasharray="445 890" stroke-linecap="round"></path>

      <clipPath id="make-me-a-hanzi-clip-5">
      <path d="M 546.5 489.5 Q 565.5 508.5 587.5 528.5 L 610.5 553.5 Q 727.5 685.5 738.5 693.5 Q 753.5 703.5 748.5 711.5 Q 747.5 720.5 690.5 744.5 Q 674.5 754.5 654.5 742.5 Q 626.5 727.5 522.5 705.5 C 493.5 699.5 470.5 683.5 500.5 679.5 Q 527.5 670.5 616.5 692.5 Q 632.5 696.5 638.5 689.5 Q 641.5 682.5 629.5 666.5 Q 605.5 623.5 570.5 580.5 L 552.5 558.5 Q 462.5 462.5 335.5 370.5 Q 322.5 360.5 335.5 358.5 Q 344.5 358.5 387.5 378.5 Q 433.5 399.5 487.5 439.5 Q 506.5 454.5 525.5 470.5 L 546.5 489.5 Z" fill="lightgray"></path>
      </clipPath>
      <path clip-path="url(#make-me-a-hanzi-clip-5)" d="M 505.5 682.5 L 536.5 694.5 L 626.5 712.5 L 665.5 710.5 L 682.5 700.5 L 670.5 670.5 L 603.5 579.5 L 536.5 509.5 L 432.5 422.5 L 337.5 364.5 " fill="none" id="make-me-a-hanzi-animation-5" stroke-dasharray="801 1602" stroke-linecap="round"></path>

      <clipPath id="make-me-a-hanzi-clip-6">
      <path d="M 587.5 528.5 Q 770.5 383.5 798.5 375.5 Q 856.5 368.5 955.5 396.5 Q 973.5 400.5 973.5 404.5 Q 974.5 411.5 961.5 415.5 Q 901.5 433.5 832.5 451.5 Q 753.5 473.5 694.5 506.5 Q 652.5 527.5 610.5 553.5 L 570.5 580.5 Q 560.5 587.5 548.5 596.5 Q 497.5 636.5 474.5 652.5 C 450.5 669.5 437.5 657.5 459.5 637.5 Q 469.5 627.5 552.5 558.5 L 587.5 528.5 Z" fill="lightgray"></path>
      </clipPath>
      <path clip-path="url(#make-me-a-hanzi-clip-6)" d="M 464.5 639.5 L 481.5 633.5 L 549.5 574.5 L 649.5 504.5 L 793.5 422.5 L 855.5 409.5 L 968.5 405.5 " fill="none" id="make-me-a-hanzi-animation-6" stroke-dasharray="700 1400" stroke-linecap="round"></path>

      <clipPath id="make-me-a-hanzi-clip-7">
      <path d="M 602.5 348.5 Q 639.5 355.5 679.5 360.5 Q 716.5 367.5 723.5 371.5 Q 730.5 378.5 727.5 386.5 Q 721.5 398.5 695.5 405.5 Q 674.5 411.5 604.5 393.5 L 548.5 380.5 Q 497.5 373.5 439.5 370.5 Q 405.5 366.5 428.5 350.5 Q 464.5 326.5 519.5 335.5 Q 532.5 339.5 549.5 339.5 L 602.5 348.5 Z" fill="lightgray"></path>
      </clipPath>
      <path clip-path="url(#make-me-a-hanzi-clip-7)" d="M 431.5 361.5 L 453.5 354.5 L 508.5 354.5 L 640.5 379.5 L 715.5 381.5 " fill="none" id="make-me-a-hanzi-animation-7" stroke-dasharray="415 830" stroke-linecap="round"></path>

      <clipPath id="make-me-a-hanzi-clip-8">
      <path d="M 600.5 260.5 Q 643.5 269.5 683.5 273.5 Q 707.5 276.5 698.5 289.5 Q 688.5 304.5 662.5 309.5 Q 640.5 313.5 601.5 302.5 L 548.5 289.5 Q 493.5 277.5 445.5 266.5 Q 427.5 262.5 448.5 247.5 Q 458.5 240.5 483.5 243.5 Q 516.5 249.5 548.5 253.5 L 600.5 260.5 Z" fill="lightgray"></path>
      </clipPath>
      <path clip-path="url(#make-me-a-hanzi-clip-8)" d="M 446.5 256.5 L 487.5 259.5 L 631.5 288.5 L 665.5 290.5 L 688.5 283.5 " fill="none" id="make-me-a-hanzi-animation-8" stroke-dasharray="374 748" stroke-linecap="round"></path>

      <clipPath id="make-me-a-hanzi-clip-9">
      <path d="M 599.5 162.5 Q 650.5 166.5 836.5 167.5 Q 855.5 166.5 860.5 175.5 Q 864.5 185.5 849.5 199.5 Q 791.5 244.5 746.5 226.5 Q 686.5 216.5 599.5 201.5 L 548.5 194.5 Q 452.5 184.5 341.5 170.5 Q 322.5 169.5 336.5 152.5 Q 349.5 139.5 367.5 133.5 Q 386.5 127.5 402.5 132.5 Q 471.5 150.5 548.5 156.5 L 599.5 162.5 Z" fill="lightgray"></path>
      </clipPath>
      <path clip-path="url(#make-me-a-hanzi-clip-9)" d="M 339.5 161.5 L 392.5 153.5 L 501.5 171.5 L 769.5 199.5 L 850.5 180.5 " fill="none" id="make-me-a-hanzi-animation-9" stroke-dasharray="645 1290" stroke-linecap="round"></path>

      <clipPath id="make-me-a-hanzi-clip-10">
      <path d="M 552.5 -34.5 Q 556.5 -58.5 563.5 -67.5 Q 569.5 -74.5 576.5 -72.5 Q 589.5 -63.5 596.5 -7.5 Q 603.5 58.5 599.5 162.5 L 599.5 201.5 Q 599.5 228.5 600.5 260.5 L 601.5 302.5 Q 601.5 324.5 602.5 348.5 L 604.5 393.5 Q 605.5 400.5 606.5 405.5 Q 609.5 424.5 612.5 438.5 Q 615.5 454.5 601.5 464.5 Q 564.5 489.5 546.5 489.5 C 517.5 496.5 510.5 496.5 525.5 470.5 Q 526.5 469.5 528.5 466.5 Q 547.5 433.5 548.5 380.5 L 549.5 339.5 Q 549.5 317.5 548.5 289.5 L 548.5 253.5 Q 548.5 225.5 548.5 194.5 L 548.5 156.5 Q 548.5 0.5 552.5 -34.5 Z" fill="lightgray"></path>
      </clipPath>
      <path clip-path="url(#make-me-a-hanzi-clip-10)" d="M 532.5 472.5 L 555.5 464.5 L 576.5 439.5 L 572.5 -63.5 " fill="none" id="make-me-a-hanzi-animation-10" stroke-dasharray="688 1376" stroke-linecap="round"></path>

</g>
</svg>
