<svg version="1.1" viewBox="0 0 1024 1024" xmlns="http://www.w3.org/2000/svg">
  <g stroke="lightgray" stroke-dasharray="1,1" stroke-width="1" transform="scale(4, 4)">
    <line x1="0" y1="0" x2="256" y2="256"></line>
    <line x1="256" y1="0" x2="0" y2="256"></line>
    <line x1="128" y1="0" x2="128" y2="256"></line>
    <line x1="0" y1="128" x2="256" y2="128"></line>
  </g>
<g transform="scale(1, -1) translate(0, -900)">
   <style type="text/css">
    @keyframes keyframes0 {
      from {
       stroke: blue;
       stroke-dashoffset: 641;
       stroke-width: 128;
       }
       68% {
       animation-timing-function: step-end;
       stroke: blue;
       stroke-dashoffset: 0;
       stroke-width: 128;
       }
       to {
       stroke: black;
       stroke-width: 1024;
       }
       }
       #make-me-a-hanzi-animation-0 {
         animation: keyframes0 0.771647s both;
         animation-delay: 0.000000s;
         animation-timing-function: linear;
       }
    @keyframes keyframes1 {
      from {
       stroke: blue;
       stroke-dashoffset: 1122;
       stroke-width: 128;
       }
       79% {
       animation-timing-function: step-end;
       stroke: blue;
       stroke-dashoffset: 0;
       stroke-width: 128;
       }
       to {
       stroke: black;
       stroke-width: 1024;
       }
       }
       #make-me-a-hanzi-animation-1 {
         animation: keyframes1 1.163086s both;
         animation-delay: 0.771647s;
         animation-timing-function: linear;
       }
    @keyframes keyframes2 {
      from {
       stroke: blue;
       stroke-dashoffset: 642;
       stroke-width: 128;
       }
       68% {
       animation-timing-function: step-end;
       stroke: blue;
       stroke-dashoffset: 0;
       stroke-width: 128;
       }
       to {
       stroke: black;
       stroke-width: 1024;
       }
       }
       #make-me-a-hanzi-animation-2 {
         animation: keyframes2 0.772461s both;
         animation-delay: 1.934733s;
         animation-timing-function: linear;
       }
    @keyframes keyframes3 {
      from {
       stroke: blue;
       stroke-dashoffset: 381;
       stroke-width: 128;
       }
       55% {
       animation-timing-function: step-end;
       stroke: blue;
       stroke-dashoffset: 0;
       stroke-width: 128;
       }
       to {
       stroke: black;
       stroke-width: 1024;
       }
       }
       #make-me-a-hanzi-animation-3 {
         animation: keyframes3 0.560059s both;
         animation-delay: 2.707194s;
         animation-timing-function: linear;
       }
    @keyframes keyframes4 {
      from {
       stroke: blue;
       stroke-dashoffset: 536;
       stroke-width: 128;
       }
       64% {
       animation-timing-function: step-end;
       stroke: blue;
       stroke-dashoffset: 0;
       stroke-width: 128;
       }
       to {
       stroke: black;
       stroke-width: 1024;
       }
       }
       #make-me-a-hanzi-animation-4 {
         animation: keyframes4 0.686198s both;
         animation-delay: 3.267253s;
         animation-timing-function: linear;
       }
    @keyframes keyframes5 {
      from {
       stroke: blue;
       stroke-dashoffset: 348;
       stroke-width: 128;
       }
       53% {
       animation-timing-function: step-end;
       stroke: blue;
       stroke-dashoffset: 0;
       stroke-width: 128;
       }
       to {
       stroke: black;
       stroke-width: 1024;
       }
       }
       #make-me-a-hanzi-animation-5 {
         animation: keyframes5 0.533203s both;
         animation-delay: 3.953451s;
         animation-timing-function: linear;
       }
    @keyframes keyframes6 {
      from {
       stroke: blue;
       stroke-dashoffset: 406;
       stroke-width: 128;
       }
       57% {
       animation-timing-function: step-end;
       stroke: blue;
       stroke-dashoffset: 0;
       stroke-width: 128;
       }
       to {
       stroke: black;
       stroke-width: 1024;
       }
       }
       #make-me-a-hanzi-animation-6 {
         animation: keyframes6 0.580404s both;
         animation-delay: 4.486654s;
         animation-timing-function: linear;
       }
    @keyframes keyframes7 {
      from {
       stroke: blue;
       stroke-dashoffset: 748;
       stroke-width: 128;
       }
       71% {
       animation-timing-function: step-end;
       stroke: blue;
       stroke-dashoffset: 0;
       stroke-width: 128;
       }
       to {
       stroke: black;
       stroke-width: 1024;
       }
       }
       #make-me-a-hanzi-animation-7 {
         animation: keyframes7 0.858724s both;
         animation-delay: 5.067057s;
         animation-timing-function: linear;
       }
    @keyframes keyframes8 {
      from {
       stroke: blue;
       stroke-dashoffset: 478;
       stroke-width: 128;
       }
       61% {
       animation-timing-function: step-end;
       stroke: blue;
       stroke-dashoffset: 0;
       stroke-width: 128;
       }
       to {
       stroke: black;
       stroke-width: 1024;
       }
       }
       #make-me-a-hanzi-animation-8 {
         animation: keyframes8 0.638997s both;
         animation-delay: 5.925781s;
         animation-timing-function: linear;
       }
    @keyframes keyframes9 {
      from {
       stroke: blue;
       stroke-dashoffset: 724;
       stroke-width: 128;
       }
       70% {
       animation-timing-function: step-end;
       stroke: blue;
       stroke-dashoffset: 0;
       stroke-width: 128;
       }
       to {
       stroke: black;
       stroke-width: 1024;
       }
       }
       #make-me-a-hanzi-animation-9 {
         animation: keyframes9 0.839193s both;
         animation-delay: 6.564779s;
         animation-timing-function: linear;
       }
    @keyframes keyframes10 {
      from {
       stroke: blue;
       stroke-dashoffset: 409;
       stroke-width: 128;
       }
       57% {
       animation-timing-function: step-end;
       stroke: blue;
       stroke-dashoffset: 0;
       stroke-width: 128;
       }
       to {
       stroke: black;
       stroke-width: 1024;
       }
       }
       #make-me-a-hanzi-animation-10 {
         animation: keyframes10 0.582845s both;
         animation-delay: 7.403971s;
         animation-timing-function: linear;
       }
    @keyframes keyframes11 {
      from {
       stroke: blue;
       stroke-dashoffset: 434;
       stroke-width: 128;
       }
       59% {
       animation-timing-function: step-end;
       stroke: blue;
       stroke-dashoffset: 0;
       stroke-width: 128;
       }
       to {
       stroke: black;
       stroke-width: 1024;
       }
       }
       #make-me-a-hanzi-animation-11 {
         animation: keyframes11 0.603190s both;
         animation-delay: 7.986816s;
         animation-timing-function: linear;
       }
    @keyframes keyframes12 {
      from {
       stroke: blue;
       stroke-dashoffset: 534;
       stroke-width: 128;
       }
       63% {
       animation-timing-function: step-end;
       stroke: blue;
       stroke-dashoffset: 0;
       stroke-width: 128;
       }
       to {
       stroke: black;
       stroke-width: 1024;
       }
       }
       #make-me-a-hanzi-animation-12 {
         animation: keyframes12 0.684570s both;
         animation-delay: 8.590007s;
         animation-timing-function: linear;
       }
    @keyframes keyframes13 {
      from {
       stroke: blue;
       stroke-dashoffset: 839;
       stroke-width: 128;
       }
       73% {
       animation-timing-function: step-end;
       stroke: blue;
       stroke-dashoffset: 0;
       stroke-width: 128;
       }
       to {
       stroke: black;
       stroke-width: 1024;
       }
       }
       #make-me-a-hanzi-animation-13 {
         animation: keyframes13 0.932780s both;
         animation-delay: 9.274577s;
         animation-timing-function: linear;
       }
</style>
<path d="M 314.0 599.5 Q 320.0 611.5 387.0 691.5 Q 399.0 703.5 386.0 719.5 Q 347.0 758.5 322.0 756.5 Q 312.0 755.5 312.0 740.5 Q 312.0 692.5 285.0 645.5 L 258.0 602.5 Q 189.0 523.5 165.0 503.5 Q 129.0 475.5 111.0 459.5 Q 101.0 444.5 117.0 448.5 Q 177.0 452.5 280.0 558.5 L 314.0 599.5 Z" fill="lightgray"></path> 
<path d="M 312.0 401.5 Q 327.0 226.5 289.0 99.5 Q 282.0 81.5 272.0 79.5 Q 259.0 76.5 221.0 84.5 Q 191.0 94.5 186.0 87.5 Q 183.0 81.5 194.0 69.5 Q 231.0 35.5 255.0 4.5 Q 274.0 -22.5 284.0 -20.5 Q 293.0 -21.5 312.0 -1.5 Q 405.0 133.5 348.0 487.5 Q 336.0 542.5 320.0 586.5 Q 317.0 593.5 314.0 599.5 L 285.0 645.5 Q 249.0 694.5 164.0 723.5 Q 149.0 729.5 147.0 717.5 Q 146.0 704.5 154.0 685.5 Q 164.0 666.5 183.0 665.5 Q 225.0 653.5 254.0 606.5 Q 254.0 605.5 258.0 602.5 L 280.0 558.5 Q 292.0 522.5 300.0 482.5 L 312.0 401.5 Z" fill="lightgray"></path> 
<path d="M 300.0 482.5 Q 239.0 356.5 69.0 177.5 Q 62.0 167.5 74.0 165.5 Q 92.0 162.5 206.0 266.5 Q 260.0 318.5 312.0 401.5 C 328.0 426.5 313.0 509.5 300.0 482.5 Z" fill="lightgray"></path> 
<path d="M 584.0 775.5 Q 609.0 757.5 635.0 736.5 Q 650.0 726.5 664.0 728.5 Q 674.0 729.5 678.0 743.5 Q 681.0 758.5 669.0 785.5 Q 662.0 801.5 633.0 811.5 Q 564.0 826.5 553.0 818.5 Q 549.0 814.5 551.0 802.5 Q 555.0 792.5 584.0 775.5 Z" fill="lightgray"></path> 
<path d="M 697.0 658.5 Q 706.0 661.5 716.0 662.5 Q 753.0 669.5 759.0 675.5 Q 766.0 682.5 763.0 689.5 Q 757.0 699.5 733.0 706.5 Q 712.0 712.5 628.0 689.5 Q 559.0 673.5 482.0 666.5 Q 451.0 662.5 472.0 647.5 Q 502.0 631.5 576.0 639.5 Q 616.0 646.5 660.0 652.5 L 697.0 658.5 Z" fill="lightgray"></path> 
<path d="M 500.0 574.5 Q 545.0 529.5 551.0 527.5 Q 558.0 527.5 563.0 536.5 Q 567.0 546.5 563.0 566.5 Q 559.0 587.5 500.0 607.5 Q 490.0 611.5 485.0 609.5 Q 481.0 608.5 481.0 598.5 Q 482.0 591.5 500.0 574.5 Z" fill="lightgray"></path> 
<path d="M 654.0 523.5 Q 658.0 530.5 666.0 539.5 Q 681.0 560.5 697.0 587.5 Q 704.0 599.5 716.0 614.5 Q 729.0 624.5 722.0 633.5 Q 715.0 646.5 697.0 658.5 C 672.0 675.5 656.0 682.5 660.0 652.5 Q 666.0 625.5 634.0 541.5 Q 627.0 528.5 626.0 518.5 C 621.0 488.5 638.0 498.5 654.0 523.5 Z" fill="lightgray"></path> 
<path d="M 626.0 518.5 Q 625.0 519.5 623.0 518.5 Q 520.0 503.5 399.0 486.5 Q 381.0 485.5 395.0 470.5 Q 407.0 458.5 423.0 454.5 Q 441.0 450.5 454.0 453.5 Q 613.0 496.5 871.0 497.5 Q 887.0 498.5 892.0 505.5 Q 896.0 515.5 882.0 527.5 Q 831.0 564.5 789.0 548.5 Q 734.0 538.5 654.0 523.5 L 626.0 518.5 Z" fill="lightgray"></path> 
<path d="M 477.0 404.5 Q 467.0 408.5 447.0 411.5 Q 437.0 414.5 433.0 409.5 Q 429.0 405.5 435.0 390.5 Q 462.0 335.5 476.0 246.5 Q 479.0 219.5 495.0 201.5 Q 505.0 188.5 511.0 191.5 C 515.0 190.5 515.0 190.5 516.0 200.5 Q 517.0 207.5 518.0 215.5 L 518.0 241.5 Q 514.0 265.5 508.0 299.5 L 505.0 319.5 Q 498.0 356.5 497.0 372.5 C 495.0 398.5 495.0 398.5 477.0 404.5 Z" fill="lightgray"></path> 
<path d="M 694.0 216.5 L 696.0 216.5 Q 709.0 217.5 716.0 230.5 Q 726.0 240.5 749.0 300.5 Q 765.0 346.5 799.0 372.5 Q 817.0 385.5 803.0 401.5 Q 787.0 417.5 742.0 442.5 Q 730.0 451.5 664.0 437.5 Q 601.0 428.5 549.0 417.5 Q 507.0 410.5 477.0 404.5 C 448.0 398.5 468.0 363.5 497.0 372.5 Q 548.0 390.5 686.0 406.5 Q 705.0 407.5 713.0 403.5 Q 720.0 399.5 715.0 373.5 Q 694.0 280.5 682.0 258.5 C 670.0 230.5 665.0 207.5 694.0 216.5 Z" fill="lightgray"></path> 
<path d="M 508.0 299.5 Q 515.0 298.5 526.0 299.5 Q 601.0 311.5 657.0 317.5 Q 678.0 321.5 670.0 332.5 Q 660.0 345.5 638.0 349.5 Q 611.0 352.5 505.0 319.5 C 476.0 310.5 478.0 301.5 508.0 299.5 Z" fill="lightgray"></path> 
<path d="M 518.0 215.5 Q 525.0 215.5 530.0 216.5 Q 567.0 225.5 637.0 230.5 C 719.0 236.5 728.0 218.5 682.0 258.5 Q 678.0 262.5 673.0 265.5 Q 660.0 272.5 635.0 266.5 Q 571.0 250.5 518.0 241.5 C 488.0 236.5 488.0 214.5 518.0 215.5 Z" fill="lightgray"></path> 
<path d="M 511.0 191.5 Q 511.0 95.5 366.0 -1.5 Q 359.0 -7.5 364.0 -10.5 Q 385.0 -17.5 447.0 15.5 Q 505.0 46.5 552.0 124.5 Q 561.0 137.5 571.0 149.5 Q 578.0 156.5 575.0 165.5 Q 571.0 175.5 547.0 192.5 Q 531.0 204.5 522.0 203.5 Q 518.0 203.5 516.0 200.5 C 511.0 198.5 511.0 198.5 511.0 191.5 Z" fill="lightgray"></path> 
<path d="M 637.0 230.5 Q 646.0 196.5 644.0 165.5 Q 632.0 29.5 681.0 0.5 Q 694.0 -5.5 716.0 -14.5 Q 839.0 -50.5 942.0 11.5 Q 943.0 14.5 946.0 14.5 Q 962.0 27.5 951.0 51.5 Q 938.0 78.5 921.0 158.5 Q 920.0 173.5 914.0 177.5 Q 908.0 180.5 905.0 164.5 Q 883.0 77.5 868.0 50.5 Q 840.0 23.5 764.0 28.5 Q 734.0 29.5 711.0 39.5 Q 690.0 49.5 685.0 62.5 Q 672.0 92.5 693.0 206.5 Q 694.0 212.5 694.0 216.5 C 698.0 246.5 630.0 259.5 637.0 230.5 Z" fill="lightgray"></path> 
      <clipPath id="make-me-a-hanzi-clip-0">
      <path d="M 314.0 599.5 Q 320.0 611.5 387.0 691.5 Q 399.0 703.5 386.0 719.5 Q 347.0 758.5 322.0 756.5 Q 312.0 755.5 312.0 740.5 Q 312.0 692.5 285.0 645.5 L 258.0 602.5 Q 189.0 523.5 165.0 503.5 Q 129.0 475.5 111.0 459.5 Q 101.0 444.5 117.0 448.5 Q 177.0 452.5 280.0 558.5 L 314.0 599.5 Z" fill="lightgray"></path>
      </clipPath>
      <path clip-path="url(#make-me-a-hanzi-clip-0)" d="M 325.0 743.5 L 344.0 712.5 L 345.0 699.5 L 284.0 598.5 L 179.0 491.5 L 120.0 457.5 " fill="none" id="make-me-a-hanzi-animation-0" stroke-dasharray="513 1026" stroke-linecap="round"></path>

      <clipPath id="make-me-a-hanzi-clip-1">
      <path d="M 312.0 401.5 Q 327.0 226.5 289.0 99.5 Q 282.0 81.5 272.0 79.5 Q 259.0 76.5 221.0 84.5 Q 191.0 94.5 186.0 87.5 Q 183.0 81.5 194.0 69.5 Q 231.0 35.5 255.0 4.5 Q 274.0 -22.5 284.0 -20.5 Q 293.0 -21.5 312.0 -1.5 Q 405.0 133.5 348.0 487.5 Q 336.0 542.5 320.0 586.5 Q 317.0 593.5 314.0 599.5 L 285.0 645.5 Q 249.0 694.5 164.0 723.5 Q 149.0 729.5 147.0 717.5 Q 146.0 704.5 154.0 685.5 Q 164.0 666.5 183.0 665.5 Q 225.0 653.5 254.0 606.5 Q 254.0 605.5 258.0 602.5 L 280.0 558.5 Q 292.0 522.5 300.0 482.5 L 312.0 401.5 Z" fill="lightgray"></path>
      </clipPath>
      <path clip-path="url(#make-me-a-hanzi-clip-1)" d="M 157.0 716.5 L 177.0 693.5 L 225.0 671.5 L 246.0 654.5 L 295.0 583.5 L 327.0 472.5 L 340.0 366.5 L 338.0 188.5 L 328.0 121.5 L 309.0 65.5 L 284.0 37.5 L 191.0 84.5 " fill="none" id="make-me-a-hanzi-animation-1" stroke-dasharray="994 1988" stroke-linecap="round"></path>

      <clipPath id="make-me-a-hanzi-clip-2">
      <path d="M 300.0 482.5 Q 239.0 356.5 69.0 177.5 Q 62.0 167.5 74.0 165.5 Q 92.0 162.5 206.0 266.5 Q 260.0 318.5 312.0 401.5 C 328.0 426.5 313.0 509.5 300.0 482.5 Z" fill="lightgray"></path>
      </clipPath>
      <path clip-path="url(#make-me-a-hanzi-clip-2)" d="M 300.0 475.5 L 286.0 406.5 L 241.0 340.5 L 166.0 253.5 L 75.0 173.5 " fill="none" id="make-me-a-hanzi-animation-2" stroke-dasharray="514 1028" stroke-linecap="round"></path>

      <clipPath id="make-me-a-hanzi-clip-3">
      <path d="M 584.0 775.5 Q 609.0 757.5 635.0 736.5 Q 650.0 726.5 664.0 728.5 Q 674.0 729.5 678.0 743.5 Q 681.0 758.5 669.0 785.5 Q 662.0 801.5 633.0 811.5 Q 564.0 826.5 553.0 818.5 Q 549.0 814.5 551.0 802.5 Q 555.0 792.5 584.0 775.5 Z" fill="lightgray"></path>
      </clipPath>
      <path clip-path="url(#make-me-a-hanzi-clip-3)" d="M 558.0 812.5 L 629.0 780.5 L 661.0 745.5 " fill="none" id="make-me-a-hanzi-animation-3" stroke-dasharray="253 506" stroke-linecap="round"></path>

      <clipPath id="make-me-a-hanzi-clip-4">
      <path d="M 697.0 658.5 Q 706.0 661.5 716.0 662.5 Q 753.0 669.5 759.0 675.5 Q 766.0 682.5 763.0 689.5 Q 757.0 699.5 733.0 706.5 Q 712.0 712.5 628.0 689.5 Q 559.0 673.5 482.0 666.5 Q 451.0 662.5 472.0 647.5 Q 502.0 631.5 576.0 639.5 Q 616.0 646.5 660.0 652.5 L 697.0 658.5 Z" fill="lightgray"></path>
      </clipPath>
      <path clip-path="url(#make-me-a-hanzi-clip-4)" d="M 475.0 658.5 L 546.0 654.5 L 712.0 685.5 L 752.0 685.5 " fill="none" id="make-me-a-hanzi-animation-4" stroke-dasharray="408 816" stroke-linecap="round"></path>

      <clipPath id="make-me-a-hanzi-clip-5">
      <path d="M 500.0 574.5 Q 545.0 529.5 551.0 527.5 Q 558.0 527.5 563.0 536.5 Q 567.0 546.5 563.0 566.5 Q 559.0 587.5 500.0 607.5 Q 490.0 611.5 485.0 609.5 Q 481.0 608.5 481.0 598.5 Q 482.0 591.5 500.0 574.5 Z" fill="lightgray"></path>
      </clipPath>
      <path clip-path="url(#make-me-a-hanzi-clip-5)" d="M 491.0 600.5 L 542.0 562.5 L 554.0 536.5 " fill="none" id="make-me-a-hanzi-animation-5" stroke-dasharray="220 440" stroke-linecap="round"></path>

      <clipPath id="make-me-a-hanzi-clip-6">
      <path d="M 654.0 523.5 Q 658.0 530.5 666.0 539.5 Q 681.0 560.5 697.0 587.5 Q 704.0 599.5 716.0 614.5 Q 729.0 624.5 722.0 633.5 Q 715.0 646.5 697.0 658.5 C 672.0 675.5 656.0 682.5 660.0 652.5 Q 666.0 625.5 634.0 541.5 Q 627.0 528.5 626.0 518.5 C 621.0 488.5 638.0 498.5 654.0 523.5 Z" fill="lightgray"></path>
      </clipPath>
      <path clip-path="url(#make-me-a-hanzi-clip-6)" d="M 667.0 649.5 L 688.0 626.5 L 657.0 553.5 L 632.0 522.5 " fill="none" id="make-me-a-hanzi-animation-6" stroke-dasharray="278 556" stroke-linecap="round"></path>

      <clipPath id="make-me-a-hanzi-clip-7">
      <path d="M 626.0 518.5 Q 625.0 519.5 623.0 518.5 Q 520.0 503.5 399.0 486.5 Q 381.0 485.5 395.0 470.5 Q 407.0 458.5 423.0 454.5 Q 441.0 450.5 454.0 453.5 Q 613.0 496.5 871.0 497.5 Q 887.0 498.5 892.0 505.5 Q 896.0 515.5 882.0 527.5 Q 831.0 564.5 789.0 548.5 Q 734.0 538.5 654.0 523.5 L 626.0 518.5 Z" fill="lightgray"></path>
      </clipPath>
      <path clip-path="url(#make-me-a-hanzi-clip-7)" d="M 397.0 478.5 L 434.0 471.5 L 812.0 525.5 L 883.0 510.5 " fill="none" id="make-me-a-hanzi-animation-7" stroke-dasharray="620 1240" stroke-linecap="round"></path>

      <clipPath id="make-me-a-hanzi-clip-8">
      <path d="M 477.0 404.5 Q 467.0 408.5 447.0 411.5 Q 437.0 414.5 433.0 409.5 Q 429.0 405.5 435.0 390.5 Q 462.0 335.5 476.0 246.5 Q 479.0 219.5 495.0 201.5 Q 505.0 188.5 511.0 191.5 C 515.0 190.5 515.0 190.5 516.0 200.5 Q 517.0 207.5 518.0 215.5 L 518.0 241.5 Q 514.0 265.5 508.0 299.5 L 505.0 319.5 Q 498.0 356.5 497.0 372.5 C 495.0 398.5 495.0 398.5 477.0 404.5 Z" fill="lightgray"></path>
      </clipPath>
      <path clip-path="url(#make-me-a-hanzi-clip-8)" d="M 441.0 404.5 L 462.0 385.5 L 473.0 365.5 L 508.0 198.5 " fill="none" id="make-me-a-hanzi-animation-8" stroke-dasharray="350 700" stroke-linecap="round"></path>

      <clipPath id="make-me-a-hanzi-clip-9">
      <path d="M 694.0 216.5 L 696.0 216.5 Q 709.0 217.5 716.0 230.5 Q 726.0 240.5 749.0 300.5 Q 765.0 346.5 799.0 372.5 Q 817.0 385.5 803.0 401.5 Q 787.0 417.5 742.0 442.5 Q 730.0 451.5 664.0 437.5 Q 601.0 428.5 549.0 417.5 Q 507.0 410.5 477.0 404.5 C 448.0 398.5 468.0 363.5 497.0 372.5 Q 548.0 390.5 686.0 406.5 Q 705.0 407.5 713.0 403.5 Q 720.0 399.5 715.0 373.5 Q 694.0 280.5 682.0 258.5 C 670.0 230.5 665.0 207.5 694.0 216.5 Z" fill="lightgray"></path>
      </clipPath>
      <path clip-path="url(#make-me-a-hanzi-clip-9)" d="M 484.0 401.5 L 505.0 392.5 L 701.0 426.5 L 738.0 415.5 L 755.0 384.5 L 708.0 261.5 L 703.0 232.5 L 695.0 224.5 " fill="none" id="make-me-a-hanzi-animation-9" stroke-dasharray="596 1192" stroke-linecap="round"></path>

      <clipPath id="make-me-a-hanzi-clip-10">
      <path d="M 508.0 299.5 Q 515.0 298.5 526.0 299.5 Q 601.0 311.5 657.0 317.5 Q 678.0 321.5 670.0 332.5 Q 660.0 345.5 638.0 349.5 Q 611.0 352.5 505.0 319.5 C 476.0 310.5 478.0 301.5 508.0 299.5 Z" fill="lightgray"></path>
      </clipPath>
      <path clip-path="url(#make-me-a-hanzi-clip-10)" d="M 512.0 305.5 L 541.0 318.5 L 619.0 331.5 L 661.0 327.5 " fill="none" id="make-me-a-hanzi-animation-10" stroke-dasharray="281 562" stroke-linecap="round"></path>

      <clipPath id="make-me-a-hanzi-clip-11">
      <path d="M 518.0 215.5 Q 525.0 215.5 530.0 216.5 Q 567.0 225.5 637.0 230.5 C 719.0 236.5 728.0 218.5 682.0 258.5 Q 678.0 262.5 673.0 265.5 Q 660.0 272.5 635.0 266.5 Q 571.0 250.5 518.0 241.5 C 488.0 236.5 488.0 214.5 518.0 215.5 Z" fill="lightgray"></path>
      </clipPath>
      <path clip-path="url(#make-me-a-hanzi-clip-11)" d="M 524.0 222.5 L 541.0 233.5 L 646.0 249.5 L 661.0 246.5 L 688.0 222.5 " fill="none" id="make-me-a-hanzi-animation-11" stroke-dasharray="306 612" stroke-linecap="round"></path>

      <clipPath id="make-me-a-hanzi-clip-12">
      <path d="M 511.0 191.5 Q 511.0 95.5 366.0 -1.5 Q 359.0 -7.5 364.0 -10.5 Q 385.0 -17.5 447.0 15.5 Q 505.0 46.5 552.0 124.5 Q 561.0 137.5 571.0 149.5 Q 578.0 156.5 575.0 165.5 Q 571.0 175.5 547.0 192.5 Q 531.0 204.5 522.0 203.5 Q 518.0 203.5 516.0 200.5 C 511.0 198.5 511.0 198.5 511.0 191.5 Z" fill="lightgray"></path>
      </clipPath>
      <path clip-path="url(#make-me-a-hanzi-clip-12)" d="M 525.0 190.5 L 539.0 159.5 L 491.0 78.5 L 430.0 24.5 L 369.0 -6.5 " fill="none" id="make-me-a-hanzi-animation-12" stroke-dasharray="406 812" stroke-linecap="round"></path>

      <clipPath id="make-me-a-hanzi-clip-13">
      <path d="M 637.0 230.5 Q 646.0 196.5 644.0 165.5 Q 632.0 29.5 681.0 0.5 Q 694.0 -5.5 716.0 -14.5 Q 839.0 -50.5 942.0 11.5 Q 943.0 14.5 946.0 14.5 Q 962.0 27.5 951.0 51.5 Q 938.0 78.5 921.0 158.5 Q 920.0 173.5 914.0 177.5 Q 908.0 180.5 905.0 164.5 Q 883.0 77.5 868.0 50.5 Q 840.0 23.5 764.0 28.5 Q 734.0 29.5 711.0 39.5 Q 690.0 49.5 685.0 62.5 Q 672.0 92.5 693.0 206.5 Q 694.0 212.5 694.0 216.5 C 698.0 246.5 630.0 259.5 637.0 230.5 Z" fill="lightgray"></path>
      </clipPath>
      <path clip-path="url(#make-me-a-hanzi-clip-13)" d="M 643.0 224.5 L 668.0 197.5 L 660.0 130.5 L 665.0 59.5 L 686.0 26.5 L 730.0 6.5 L 804.0 -0.5 L 844.0 4.5 L 893.0 25.5 L 910.0 41.5 L 911.0 170.5 " fill="none" id="make-me-a-hanzi-animation-13" stroke-dasharray="711 1422" stroke-linecap="round"></path>

</g>
</svg>
