<svg version="1.1" viewBox="0 0 1024 1024" xmlns="http://www.w3.org/2000/svg">
  <g stroke="lightgray" stroke-dasharray="1,1" stroke-width="1" transform="scale(4, 4)">
    <line x1="0" y1="0" x2="256" y2="256"></line>
    <line x1="256" y1="0" x2="0" y2="256"></line>
    <line x1="128" y1="0" x2="128" y2="256"></line>
    <line x1="0" y1="128" x2="256" y2="128"></line>
  </g>
<g transform="scale(1, -1) translate(0, -900)">
   <style type="text/css">
    @keyframes keyframes0 {
      from {
       stroke: blue;
       stroke-dashoffset: 672;
       stroke-width: 128;
       }
       69% {
       animation-timing-function: step-end;
       stroke: blue;
       stroke-dashoffset: 0;
       stroke-width: 128;
       }
       to {
       stroke: black;
       stroke-width: 1024;
       }
       }
       #make-me-a-hanzi-animation-0 {
         animation: keyframes0 0.796875s both;
         animation-delay: 0.000000s;
         animation-timing-function: linear;
       }
    @keyframes keyframes1 {
      from {
       stroke: blue;
       stroke-dashoffset: 1097;
       stroke-width: 128;
       }
       78% {
       animation-timing-function: step-end;
       stroke: blue;
       stroke-dashoffset: 0;
       stroke-width: 128;
       }
       to {
       stroke: black;
       stroke-width: 1024;
       }
       }
       #make-me-a-hanzi-animation-1 {
         animation: keyframes1 1.142741s both;
         animation-delay: 0.796875s;
         animation-timing-function: linear;
       }
    @keyframes keyframes2 {
      from {
       stroke: blue;
       stroke-dashoffset: 619;
       stroke-width: 128;
       }
       67% {
       animation-timing-function: step-end;
       stroke: blue;
       stroke-dashoffset: 0;
       stroke-width: 128;
       }
       to {
       stroke: black;
       stroke-width: 1024;
       }
       }
       #make-me-a-hanzi-animation-2 {
         animation: keyframes2 0.753743s both;
         animation-delay: 1.939616s;
         animation-timing-function: linear;
       }
    @keyframes keyframes3 {
      from {
       stroke: blue;
       stroke-dashoffset: 484;
       stroke-width: 128;
       }
       61% {
       animation-timing-function: step-end;
       stroke: blue;
       stroke-dashoffset: 0;
       stroke-width: 128;
       }
       to {
       stroke: black;
       stroke-width: 1024;
       }
       }
       #make-me-a-hanzi-animation-3 {
         animation: keyframes3 0.643880s both;
         animation-delay: 2.693359s;
         animation-timing-function: linear;
       }
    @keyframes keyframes4 {
      from {
       stroke: blue;
       stroke-dashoffset: 613;
       stroke-width: 128;
       }
       67% {
       animation-timing-function: step-end;
       stroke: blue;
       stroke-dashoffset: 0;
       stroke-width: 128;
       }
       to {
       stroke: black;
       stroke-width: 1024;
       }
       }
       #make-me-a-hanzi-animation-4 {
         animation: keyframes4 0.748861s both;
         animation-delay: 3.337240s;
         animation-timing-function: linear;
       }
    @keyframes keyframes5 {
      from {
       stroke: blue;
       stroke-dashoffset: 331;
       stroke-width: 128;
       }
       52% {
       animation-timing-function: step-end;
       stroke: blue;
       stroke-dashoffset: 0;
       stroke-width: 128;
       }
       to {
       stroke: black;
       stroke-width: 1024;
       }
       }
       #make-me-a-hanzi-animation-5 {
         animation: keyframes5 0.519368s both;
         animation-delay: 4.086100s;
         animation-timing-function: linear;
       }
    @keyframes keyframes6 {
      from {
       stroke: blue;
       stroke-dashoffset: 335;
       stroke-width: 128;
       }
       52% {
       animation-timing-function: step-end;
       stroke: blue;
       stroke-dashoffset: 0;
       stroke-width: 128;
       }
       to {
       stroke: black;
       stroke-width: 1024;
       }
       }
       #make-me-a-hanzi-animation-6 {
         animation: keyframes6 0.522624s both;
         animation-delay: 4.605469s;
         animation-timing-function: linear;
       }
    @keyframes keyframes7 {
      from {
       stroke: blue;
       stroke-dashoffset: 355;
       stroke-width: 128;
       }
       54% {
       animation-timing-function: step-end;
       stroke: blue;
       stroke-dashoffset: 0;
       stroke-width: 128;
       }
       to {
       stroke: black;
       stroke-width: 1024;
       }
       }
       #make-me-a-hanzi-animation-7 {
         animation: keyframes7 0.538900s both;
         animation-delay: 5.128092s;
         animation-timing-function: linear;
       }
    @keyframes keyframes8 {
      from {
       stroke: blue;
       stroke-dashoffset: 469;
       stroke-width: 128;
       }
       60% {
       animation-timing-function: step-end;
       stroke: blue;
       stroke-dashoffset: 0;
       stroke-width: 128;
       }
       to {
       stroke: black;
       stroke-width: 1024;
       }
       }
       #make-me-a-hanzi-animation-8 {
         animation: keyframes8 0.631673s both;
         animation-delay: 5.666992s;
         animation-timing-function: linear;
       }
    @keyframes keyframes9 {
      from {
       stroke: blue;
       stroke-dashoffset: 629;
       stroke-width: 128;
       }
       67% {
       animation-timing-function: step-end;
       stroke: blue;
       stroke-dashoffset: 0;
       stroke-width: 128;
       }
       to {
       stroke: black;
       stroke-width: 1024;
       }
       }
       #make-me-a-hanzi-animation-9 {
         animation: keyframes9 0.761882s both;
         animation-delay: 6.298665s;
         animation-timing-function: linear;
       }
    @keyframes keyframes10 {
      from {
       stroke: blue;
       stroke-dashoffset: 335;
       stroke-width: 128;
       }
       52% {
       animation-timing-function: step-end;
       stroke: blue;
       stroke-dashoffset: 0;
       stroke-width: 128;
       }
       to {
       stroke: black;
       stroke-width: 1024;
       }
       }
       #make-me-a-hanzi-animation-10 {
         animation: keyframes10 0.522624s both;
         animation-delay: 7.060547s;
         animation-timing-function: linear;
       }
    @keyframes keyframes11 {
      from {
       stroke: blue;
       stroke-dashoffset: 338;
       stroke-width: 128;
       }
       52% {
       animation-timing-function: step-end;
       stroke: blue;
       stroke-dashoffset: 0;
       stroke-width: 128;
       }
       to {
       stroke: black;
       stroke-width: 1024;
       }
       }
       #make-me-a-hanzi-animation-11 {
         animation: keyframes11 0.525065s both;
         animation-delay: 7.583171s;
         animation-timing-function: linear;
       }
    @keyframes keyframes12 {
      from {
       stroke: blue;
       stroke-dashoffset: 352;
       stroke-width: 128;
       }
       53% {
       animation-timing-function: step-end;
       stroke: blue;
       stroke-dashoffset: 0;
       stroke-width: 128;
       }
       to {
       stroke: black;
       stroke-width: 1024;
       }
       }
       #make-me-a-hanzi-animation-12 {
         animation: keyframes12 0.536458s both;
         animation-delay: 8.108236s;
         animation-timing-function: linear;
       }
    @keyframes keyframes13 {
      from {
       stroke: blue;
       stroke-dashoffset: 472;
       stroke-width: 128;
       }
       61% {
       animation-timing-function: step-end;
       stroke: blue;
       stroke-dashoffset: 0;
       stroke-width: 128;
       }
       to {
       stroke: black;
       stroke-width: 1024;
       }
       }
       #make-me-a-hanzi-animation-13 {
         animation: keyframes13 0.634115s both;
         animation-delay: 8.644694s;
         animation-timing-function: linear;
       }
    @keyframes keyframes14 {
      from {
       stroke: blue;
       stroke-dashoffset: 490;
       stroke-width: 128;
       }
       61% {
       animation-timing-function: step-end;
       stroke: blue;
       stroke-dashoffset: 0;
       stroke-width: 128;
       }
       to {
       stroke: black;
       stroke-width: 1024;
       }
       }
       #make-me-a-hanzi-animation-14 {
         animation: keyframes14 0.648763s both;
         animation-delay: 9.278809s;
         animation-timing-function: linear;
       }
    @keyframes keyframes15 {
      from {
       stroke: blue;
       stroke-dashoffset: 305;
       stroke-width: 128;
       }
       50% {
       animation-timing-function: step-end;
       stroke: blue;
       stroke-dashoffset: 0;
       stroke-width: 128;
       }
       to {
       stroke: black;
       stroke-width: 1024;
       }
       }
       #make-me-a-hanzi-animation-15 {
         animation: keyframes15 0.498210s both;
         animation-delay: 9.927572s;
         animation-timing-function: linear;
       }
    @keyframes keyframes16 {
      from {
       stroke: blue;
       stroke-dashoffset: 489;
       stroke-width: 128;
       }
       61% {
       animation-timing-function: step-end;
       stroke: blue;
       stroke-dashoffset: 0;
       stroke-width: 128;
       }
       to {
       stroke: black;
       stroke-width: 1024;
       }
       }
       #make-me-a-hanzi-animation-16 {
         animation: keyframes16 0.647949s both;
         animation-delay: 10.425781s;
         animation-timing-function: linear;
       }
    @keyframes keyframes17 {
      from {
       stroke: blue;
       stroke-dashoffset: 466;
       stroke-width: 128;
       }
       60% {
       animation-timing-function: step-end;
       stroke: blue;
       stroke-dashoffset: 0;
       stroke-width: 128;
       }
       to {
       stroke: black;
       stroke-width: 1024;
       }
       }
       #make-me-a-hanzi-animation-17 {
         animation: keyframes17 0.629232s both;
         animation-delay: 11.073730s;
         animation-timing-function: linear;
       }
    @keyframes keyframes18 {
      from {
       stroke: blue;
       stroke-dashoffset: 477;
       stroke-width: 128;
       }
       61% {
       animation-timing-function: step-end;
       stroke: blue;
       stroke-dashoffset: 0;
       stroke-width: 128;
       }
       to {
       stroke: black;
       stroke-width: 1024;
       }
       }
       #make-me-a-hanzi-animation-18 {
         animation: keyframes18 0.638184s both;
         animation-delay: 11.702962s;
         animation-timing-function: linear;
       }
    @keyframes keyframes19 {
      from {
       stroke: blue;
       stroke-dashoffset: 447;
       stroke-width: 128;
       }
       59% {
       animation-timing-function: step-end;
       stroke: blue;
       stroke-dashoffset: 0;
       stroke-width: 128;
       }
       to {
       stroke: black;
       stroke-width: 1024;
       }
       }
       #make-me-a-hanzi-animation-19 {
         animation: keyframes19 0.613770s both;
         animation-delay: 12.341146s;
         animation-timing-function: linear;
       }
    @keyframes keyframes20 {
      from {
       stroke: blue;
       stroke-dashoffset: 616;
       stroke-width: 128;
       }
       67% {
       animation-timing-function: step-end;
       stroke: blue;
       stroke-dashoffset: 0;
       stroke-width: 128;
       }
       to {
       stroke: black;
       stroke-width: 1024;
       }
       }
       #make-me-a-hanzi-animation-20 {
         animation: keyframes20 0.751302s both;
         animation-delay: 12.954915s;
         animation-timing-function: linear;
       }
    @keyframes keyframes21 {
      from {
       stroke: blue;
       stroke-dashoffset: 955;
       stroke-width: 128;
       }
       76% {
       animation-timing-function: step-end;
       stroke: blue;
       stroke-dashoffset: 0;
       stroke-width: 128;
       }
       to {
       stroke: black;
       stroke-width: 1024;
       }
       }
       #make-me-a-hanzi-animation-21 {
         animation: keyframes21 1.027181s both;
         animation-delay: 13.706217s;
         animation-timing-function: linear;
       }
    @keyframes keyframes22 {
      from {
       stroke: blue;
       stroke-dashoffset: 800;
       stroke-width: 128;
       }
       72% {
       animation-timing-function: step-end;
       stroke: blue;
       stroke-dashoffset: 0;
       stroke-width: 128;
       }
       to {
       stroke: black;
       stroke-width: 1024;
       }
       }
       #make-me-a-hanzi-animation-22 {
         animation: keyframes22 0.901042s both;
         animation-delay: 14.733398s;
         animation-timing-function: linear;
       }
</style>
<path d="M 286.5 576.0 Q 302.5 600.0 319.5 624.0 Q 353.5 678.0 385.5 721.0 Q 395.5 734.0 382.5 750.0 Q 340.5 786.0 313.5 783.0 Q 301.5 782.0 303.5 766.0 Q 309.5 700.0 257.5 617.0 L 229.5 576.0 Q 199.5 534.0 163.5 501.0 Q 126.5 470.0 109.5 449.0 Q 99.5 434.0 115.5 438.0 Q 163.5 444.0 253.5 538.0 L 286.5 576.0 Z" fill="lightgray"></path> 
<path d="M 288.5 406.0 Q 304.5 211.0 264.5 89.0 Q 257.5 74.0 249.5 73.0 Q 234.5 69.0 194.5 75.0 Q 164.5 82.0 160.5 77.0 Q 157.5 71.0 168.5 60.0 Q 207.5 29.0 233.5 -2.0 Q 249.5 -24.0 257.5 -24.0 Q 264.5 -25.0 281.5 -8.0 Q 365.5 91.0 331.5 417.0 Q 324.5 472.0 310.5 518.0 Q 300.5 552.0 286.5 576.0 L 257.5 617.0 Q 215.5 668.0 143.5 698.0 Q 130.5 705.0 126.5 694.0 Q 123.5 681.0 130.5 663.0 Q 139.5 644.0 156.5 641.0 Q 190.5 632.0 229.5 576.0 L 253.5 538.0 Q 265.5 514.0 275.5 478.0 L 288.5 406.0 Z" fill="lightgray"></path> 
<path d="M 275.5 478.0 Q 218.5 366.0 44.5 190.0 Q 37.5 181.0 48.5 179.0 Q 67.5 175.0 176.5 271.0 Q 255.5 343.0 288.5 406.0 C 302.5 432.0 289.5 505.0 275.5 478.0 Z" fill="lightgray"></path> 
<path d="M 454.5 798.0 Q 453.5 799.0 451.5 800.0 Q 433.5 812.0 422.5 808.0 Q 418.5 804.0 422.5 797.0 Q 443.5 719.0 430.5 636.0 Q 423.5 600.0 445.5 572.0 Q 452.5 565.0 459.5 572.0 Q 462.5 576.0 464.5 582.0 L 466.5 603.0 Q 466.5 609.0 467.5 648.0 L 467.5 665.0 Q 467.5 690.0 467.5 707.0 L 467.5 729.0 Q 467.5 766.0 467.5 769.0 Q 468.5 776.0 467.5 780.0 C 467.5 790.0 467.5 790.0 454.5 798.0 Z" fill="lightgray"></path> 
<path d="M 566.5 598.0 Q 567.5 594.0 570.5 590.0 Q 580.5 571.0 585.5 572.0 Q 595.5 573.0 605.5 594.0 Q 611.5 604.0 612.5 645.0 Q 600.5 757.0 621.5 788.0 Q 627.5 798.0 622.5 804.0 Q 604.5 819.0 573.5 831.0 Q 563.5 835.0 549.5 829.0 Q 513.5 811.0 454.5 798.0 C 425.5 791.0 437.5 776.0 467.5 780.0 Q 471.5 780.0 477.5 781.0 Q 553.5 806.0 561.5 800.0 Q 570.5 788.0 570.5 750.0 Q 571.5 648.0 566.5 623.0 L 566.5 598.0 Z" fill="lightgray"></path> 
<path d="M 467.5 707.0 Q 510.5 717.0 543.5 721.0 Q 558.5 724.0 552.5 732.0 Q 545.5 742.0 527.5 744.0 Q 497.5 747.0 467.5 729.0 C 441.5 714.0 438.5 700.0 467.5 707.0 Z" fill="lightgray"></path> 
<path d="M 467.5 648.0 Q 468.5 648.0 471.5 648.0 Q 513.5 657.0 544.5 662.0 Q 557.5 665.0 552.5 673.0 Q 545.5 680.0 529.5 683.0 Q 514.5 684.0 467.5 665.0 C 439.5 654.0 437.5 648.0 467.5 648.0 Z" fill="lightgray"></path> 
<path d="M 464.5 582.0 Q 465.5 582.0 469.5 582.0 Q 524.5 592.0 566.5 598.0 C 596.5 602.0 595.5 616.0 566.5 623.0 L 558.5 625.0 Q 530.5 628.0 466.5 603.0 C 438.5 592.0 434.5 582.0 464.5 582.0 Z" fill="lightgray"></path> 
<path d="M 694.5 821.0 Q 679.5 831.0 667.5 827.0 Q 663.5 824.0 666.5 816.0 Q 687.5 737.0 676.5 667.0 Q 669.5 634.0 693.5 604.0 Q 700.5 597.0 707.5 604.0 Q 711.5 610.0 712.5 616.0 L 714.5 639.0 Q 714.5 657.0 713.5 675.0 L 713.5 696.0 Q 712.5 718.0 712.5 735.0 L 712.5 758.0 Q 712.5 786.0 712.5 789.0 Q 713.5 798.0 712.5 802.0 C 711.5 811.0 711.5 811.0 694.5 821.0 Z" fill="lightgray"></path> 
<path d="M 812.5 626.0 Q 813.5 622.0 817.5 616.0 Q 827.5 595.0 833.5 596.0 Q 843.5 597.0 855.5 619.0 Q 864.5 635.0 864.5 665.0 Q 855.5 785.0 875.5 814.0 Q 882.5 824.0 876.5 831.0 Q 857.5 847.0 824.5 860.0 Q 818.5 861.0 763.5 841.0 Q 717.5 826.0 694.5 821.0 C 665.5 814.0 684.5 791.0 712.5 802.0 Q 758.5 820.0 794.5 829.0 Q 806.5 833.0 811.5 827.0 Q 820.5 817.0 819.5 778.0 Q 819.5 678.0 814.5 652.0 L 812.5 626.0 Z" fill="lightgray"></path> 
<path d="M 712.5 735.0 Q 755.5 745.0 790.5 749.0 Q 806.5 752.0 800.5 760.0 Q 793.5 770.0 776.5 772.0 Q 746.5 775.0 712.5 758.0 C 685.5 745.0 683.5 728.0 712.5 735.0 Z" fill="lightgray"></path> 
<path d="M 713.5 675.0 Q 759.5 684.0 794.5 689.0 Q 810.5 692.0 804.5 700.0 Q 797.5 710.0 779.5 712.0 Q 755.5 715.0 713.5 696.0 C 686.5 684.0 684.5 669.0 713.5 675.0 Z" fill="lightgray"></path> 
<path d="M 712.5 616.0 Q 766.5 622.0 812.5 626.0 C 842.5 629.0 843.5 644.0 814.5 652.0 Q 810.5 653.0 804.5 655.0 Q 776.5 659.0 714.5 639.0 C 685.5 630.0 682.5 613.0 712.5 616.0 Z" fill="lightgray"></path> 
<path d="M 482.5 472.0 Q 485.5 476.0 489.5 481.0 Q 520.5 527.0 519.5 535.0 Q 515.5 544.0 495.5 547.0 Q 473.5 551.0 464.5 547.0 Q 460.5 546.0 459.5 535.0 Q 453.5 484.0 361.5 375.0 Q 348.5 362.0 367.5 367.0 Q 409.5 379.0 464.5 448.0 L 482.5 472.0 Z" fill="lightgray"></path> 
<path d="M 508.5 278.0 Q 509.5 284.0 509.5 289.0 Q 508.5 395.0 510.5 419.0 Q 514.5 438.0 488.5 466.0 Q 485.5 470.0 482.5 472.0 C 461.5 493.0 450.5 475.0 464.5 448.0 Q 488.5 409.0 463.5 290.0 Q 453.5 260.0 479.5 226.0 L 480.5 225.0 Q 492.5 215.0 499.5 232.0 Q 502.5 242.0 505.5 254.0 L 508.5 278.0 Z" fill="lightgray"></path> 
<path d="M 634.5 580.0 Q 643.5 568.0 653.5 557.0 Q 668.5 545.0 680.5 546.0 Q 690.5 545.0 695.5 560.0 Q 695.5 570.0 686.5 586.0 Q 671.5 601.0 636.5 601.0 Q 629.5 602.0 629.5 593.0 Q 628.5 586.0 634.5 580.0 Z" fill="lightgray"></path> 
<path d="M 685.5 500.0 Q 722.5 510.0 765.5 518.0 Q 798.5 527.0 802.5 531.0 Q 808.5 535.0 805.5 542.0 Q 801.5 549.0 781.5 554.0 Q 762.5 557.0 743.5 549.0 Q 706.5 536.0 667.5 526.0 Q 624.5 516.0 571.5 509.0 Q 549.5 505.0 565.5 494.0 Q 590.5 485.0 645.5 491.0 L 685.5 500.0 Z" fill="lightgray"></path> 
<path d="M 693.5 432.0 Q 736.5 441.0 776.5 446.0 Q 794.5 449.0 788.5 459.0 Q 779.5 471.0 760.5 474.0 Q 732.5 478.0 694.5 464.0 L 648.5 453.0 Q 603.5 444.0 565.5 434.0 Q 552.5 431.0 567.5 420.0 Q 576.5 414.0 650.5 425.0 L 693.5 432.0 Z" fill="lightgray"></path> 
<path d="M 691.5 362.0 Q 740.5 371.0 784.5 375.0 Q 802.5 376.0 795.5 387.0 Q 788.5 399.0 768.5 403.0 Q 750.5 406.0 691.5 393.0 L 651.5 384.0 Q 603.5 375.0 561.5 366.0 Q 548.5 365.0 563.5 352.0 Q 573.5 343.0 596.5 347.0 Q 624.5 351.0 651.5 355.0 L 691.5 362.0 Z" fill="lightgray"></path> 
<path d="M 689.5 308.0 Q 689.5 336.0 691.5 362.0 L 691.5 393.0 Q 691.5 414.0 693.5 432.0 L 694.5 464.0 Q 695.5 468.0 695.5 471.0 Q 699.5 484.0 693.5 493.0 Q 689.5 497.0 685.5 500.0 C 662.5 519.0 639.5 520.0 645.5 491.0 Q 648.5 482.0 648.5 453.0 L 650.5 425.0 Q 650.5 409.0 651.5 384.0 L 651.5 355.0 Q 651.5 331.0 653.5 301.0 C 655.5 271.0 689.5 278.0 689.5 308.0 Z" fill="lightgray"></path> 
<path d="M 653.5 301.0 Q 584.5 291.0 508.5 278.0 C 478.5 273.0 476.5 261.0 505.5 254.0 Q 527.5 248.0 541.5 250.0 Q 658.5 286.0 856.5 286.0 Q 871.5 287.0 874.5 293.0 Q 878.5 302.0 865.5 311.0 Q 822.5 341.0 776.5 325.0 Q 739.5 319.0 689.5 308.0 L 653.5 301.0 Z" fill="lightgray"></path> 
<path d="M 669.5 54.0 Q 705.5 91.0 738.5 146.0 Q 754.5 171.0 774.5 186.0 Q 793.5 199.0 783.5 213.0 Q 773.5 226.0 744.5 241.0 Q 723.5 251.0 639.5 222.0 Q 549.5 201.0 494.5 194.0 Q 481.5 193.0 476.5 186.0 Q 472.5 179.0 490.5 172.0 Q 526.5 159.0 574.5 173.0 Q 661.5 200.0 677.5 199.0 Q 692.5 196.0 687.5 181.0 Q 666.5 121.0 629.5 80.0 Q 628.5 80.0 628.5 79.0 L 603.5 56.0 Q 525.5 -1.0 385.5 -28.0 Q 372.5 -29.0 381.5 -40.0 Q 387.5 -44.0 433.5 -42.0 Q 491.5 -38.0 558.5 -14.0 Q 601.5 2.0 637.5 26.0 L 669.5 54.0 Z" fill="lightgray"></path> 
<path d="M 637.5 26.0 Q 772.5 -85.0 824.5 -85.0 Q 827.5 -84.0 832.5 -84.0 Q 911.5 -74.0 972.5 -59.0 Q 982.5 -55.0 985.5 -47.0 Q 986.5 -40.0 969.5 -40.0 Q 923.5 -30.0 869.5 -25.0 Q 779.5 -13.0 669.5 54.0 L 628.5 79.0 Q 550.5 157.0 478.5 140.0 Q 471.5 136.0 475.5 128.0 Q 479.5 121.0 489.5 121.0 Q 535.5 121.0 598.5 60.0 Q 599.5 59.0 603.5 56.0 L 637.5 26.0 Z" fill="lightgray"></path> 
      <clipPath id="make-me-a-hanzi-clip-0">
      <path d="M 286.5 576.0 Q 302.5 600.0 319.5 624.0 Q 353.5 678.0 385.5 721.0 Q 395.5 734.0 382.5 750.0 Q 340.5 786.0 313.5 783.0 Q 301.5 782.0 303.5 766.0 Q 309.5 700.0 257.5 617.0 L 229.5 576.0 Q 199.5 534.0 163.5 501.0 Q 126.5 470.0 109.5 449.0 Q 99.5 434.0 115.5 438.0 Q 163.5 444.0 253.5 538.0 L 286.5 576.0 Z" fill="lightgray"></path>
      </clipPath>
      <path clip-path="url(#make-me-a-hanzi-clip-0)" d="M 314.5 771.0 L 332.5 751.0 L 341.5 727.0 L 287.5 619.0 L 217.5 527.0 L 164.5 479.0 L 118.5 447.0 " fill="none" id="make-me-a-hanzi-animation-0" stroke-dasharray="544 1088" stroke-linecap="round"></path>

      <clipPath id="make-me-a-hanzi-clip-1">
      <path d="M 288.5 406.0 Q 304.5 211.0 264.5 89.0 Q 257.5 74.0 249.5 73.0 Q 234.5 69.0 194.5 75.0 Q 164.5 82.0 160.5 77.0 Q 157.5 71.0 168.5 60.0 Q 207.5 29.0 233.5 -2.0 Q 249.5 -24.0 257.5 -24.0 Q 264.5 -25.0 281.5 -8.0 Q 365.5 91.0 331.5 417.0 Q 324.5 472.0 310.5 518.0 Q 300.5 552.0 286.5 576.0 L 257.5 617.0 Q 215.5 668.0 143.5 698.0 Q 130.5 705.0 126.5 694.0 Q 123.5 681.0 130.5 663.0 Q 139.5 644.0 156.5 641.0 Q 190.5 632.0 229.5 576.0 L 253.5 538.0 Q 265.5 514.0 275.5 478.0 L 288.5 406.0 Z" fill="lightgray"></path>
      </clipPath>
      <path clip-path="url(#make-me-a-hanzi-clip-1)" d="M 136.5 691.0 L 152.5 669.0 L 195.5 645.0 L 226.5 618.0 L 275.5 547.0 L 301.5 465.0 L 312.5 403.0 L 317.5 314.0 L 309.5 151.0 L 294.5 85.0 L 280.5 54.0 L 259.5 32.0 L 164.5 74.0 " fill="none" id="make-me-a-hanzi-animation-1" stroke-dasharray="969 1938" stroke-linecap="round"></path>

      <clipPath id="make-me-a-hanzi-clip-2">
      <path d="M 275.5 478.0 Q 218.5 366.0 44.5 190.0 Q 37.5 181.0 48.5 179.0 Q 67.5 175.0 176.5 271.0 Q 255.5 343.0 288.5 406.0 C 302.5 432.0 289.5 505.0 275.5 478.0 Z" fill="lightgray"></path>
      </clipPath>
      <path clip-path="url(#make-me-a-hanzi-clip-2)" d="M 271.5 462.0 L 263.5 410.0 L 225.5 356.0 L 154.5 275.0 L 50.5 186.0 " fill="none" id="make-me-a-hanzi-animation-2" stroke-dasharray="491 982" stroke-linecap="round"></path>

      <clipPath id="make-me-a-hanzi-clip-3">
      <path d="M 454.5 798.0 Q 453.5 799.0 451.5 800.0 Q 433.5 812.0 422.5 808.0 Q 418.5 804.0 422.5 797.0 Q 443.5 719.0 430.5 636.0 Q 423.5 600.0 445.5 572.0 Q 452.5 565.0 459.5 572.0 Q 462.5 576.0 464.5 582.0 L 466.5 603.0 Q 466.5 609.0 467.5 648.0 L 467.5 665.0 Q 467.5 690.0 467.5 707.0 L 467.5 729.0 Q 467.5 766.0 467.5 769.0 Q 468.5 776.0 467.5 780.0 C 467.5 790.0 467.5 790.0 454.5 798.0 Z" fill="lightgray"></path>
      </clipPath>
      <path clip-path="url(#make-me-a-hanzi-clip-3)" d="M 428.5 803.0 L 448.5 774.0 L 447.5 616.0 L 452.5 582.0 " fill="none" id="make-me-a-hanzi-animation-3" stroke-dasharray="356 712" stroke-linecap="round"></path>

      <clipPath id="make-me-a-hanzi-clip-4">
      <path d="M 566.5 598.0 Q 567.5 594.0 570.5 590.0 Q 580.5 571.0 585.5 572.0 Q 595.5 573.0 605.5 594.0 Q 611.5 604.0 612.5 645.0 Q 600.5 757.0 621.5 788.0 Q 627.5 798.0 622.5 804.0 Q 604.5 819.0 573.5 831.0 Q 563.5 835.0 549.5 829.0 Q 513.5 811.0 454.5 798.0 C 425.5 791.0 437.5 776.0 467.5 780.0 Q 471.5 780.0 477.5 781.0 Q 553.5 806.0 561.5 800.0 Q 570.5 788.0 570.5 750.0 Q 571.5 648.0 566.5 623.0 L 566.5 598.0 Z" fill="lightgray"></path>
      </clipPath>
      <path clip-path="url(#make-me-a-hanzi-clip-4)" d="M 463.5 797.0 L 472.5 791.0 L 487.5 792.0 L 559.5 817.0 L 574.5 813.0 L 593.5 792.0 L 586.5 581.0 " fill="none" id="make-me-a-hanzi-animation-4" stroke-dasharray="485 970" stroke-linecap="round"></path>

      <clipPath id="make-me-a-hanzi-clip-5">
      <path d="M 467.5 707.0 Q 510.5 717.0 543.5 721.0 Q 558.5 724.0 552.5 732.0 Q 545.5 742.0 527.5 744.0 Q 497.5 747.0 467.5 729.0 C 441.5 714.0 438.5 700.0 467.5 707.0 Z" fill="lightgray"></path>
      </clipPath>
      <path clip-path="url(#make-me-a-hanzi-clip-5)" d="M 475.5 713.0 L 479.5 723.0 L 493.5 727.0 L 543.5 730.0 " fill="none" id="make-me-a-hanzi-animation-5" stroke-dasharray="203 406" stroke-linecap="round"></path>

      <clipPath id="make-me-a-hanzi-clip-6">
      <path d="M 467.5 648.0 Q 468.5 648.0 471.5 648.0 Q 513.5 657.0 544.5 662.0 Q 557.5 665.0 552.5 673.0 Q 545.5 680.0 529.5 683.0 Q 514.5 684.0 467.5 665.0 C 439.5 654.0 437.5 648.0 467.5 648.0 Z" fill="lightgray"></path>
      </clipPath>
      <path clip-path="url(#make-me-a-hanzi-clip-6)" d="M 469.5 652.0 L 479.5 661.0 L 544.5 671.0 " fill="none" id="make-me-a-hanzi-animation-6" stroke-dasharray="207 414" stroke-linecap="round"></path>

      <clipPath id="make-me-a-hanzi-clip-7">
      <path d="M 464.5 582.0 Q 465.5 582.0 469.5 582.0 Q 524.5 592.0 566.5 598.0 C 596.5 602.0 595.5 616.0 566.5 623.0 L 558.5 625.0 Q 530.5 628.0 466.5 603.0 C 438.5 592.0 434.5 582.0 464.5 582.0 Z" fill="lightgray"></path>
      </clipPath>
      <path clip-path="url(#make-me-a-hanzi-clip-7)" d="M 467.5 587.0 L 478.5 597.0 L 560.5 617.0 " fill="none" id="make-me-a-hanzi-animation-7" stroke-dasharray="227 454" stroke-linecap="round"></path>

      <clipPath id="make-me-a-hanzi-clip-8">
      <path d="M 694.5 821.0 Q 679.5 831.0 667.5 827.0 Q 663.5 824.0 666.5 816.0 Q 687.5 737.0 676.5 667.0 Q 669.5 634.0 693.5 604.0 Q 700.5 597.0 707.5 604.0 Q 711.5 610.0 712.5 616.0 L 714.5 639.0 Q 714.5 657.0 713.5 675.0 L 713.5 696.0 Q 712.5 718.0 712.5 735.0 L 712.5 758.0 Q 712.5 786.0 712.5 789.0 Q 713.5 798.0 712.5 802.0 C 711.5 811.0 711.5 811.0 694.5 821.0 Z" fill="lightgray"></path>
      </clipPath>
      <path clip-path="url(#make-me-a-hanzi-clip-8)" d="M 674.5 821.0 L 692.5 794.0 L 694.5 649.0 L 700.5 614.0 " fill="none" id="make-me-a-hanzi-animation-8" stroke-dasharray="341 682" stroke-linecap="round"></path>

      <clipPath id="make-me-a-hanzi-clip-9">
      <path d="M 812.5 626.0 Q 813.5 622.0 817.5 616.0 Q 827.5 595.0 833.5 596.0 Q 843.5 597.0 855.5 619.0 Q 864.5 635.0 864.5 665.0 Q 855.5 785.0 875.5 814.0 Q 882.5 824.0 876.5 831.0 Q 857.5 847.0 824.5 860.0 Q 818.5 861.0 763.5 841.0 Q 717.5 826.0 694.5 821.0 C 665.5 814.0 684.5 791.0 712.5 802.0 Q 758.5 820.0 794.5 829.0 Q 806.5 833.0 811.5 827.0 Q 820.5 817.0 819.5 778.0 Q 819.5 678.0 814.5 652.0 L 812.5 626.0 Z" fill="lightgray"></path>
      </clipPath>
      <path clip-path="url(#make-me-a-hanzi-clip-9)" d="M 700.5 818.0 L 716.5 814.0 L 800.5 843.0 L 825.5 841.0 L 845.5 819.0 L 834.5 606.0 " fill="none" id="make-me-a-hanzi-animation-9" stroke-dasharray="501 1002" stroke-linecap="round"></path>

      <clipPath id="make-me-a-hanzi-clip-10">
      <path d="M 712.5 735.0 Q 755.5 745.0 790.5 749.0 Q 806.5 752.0 800.5 760.0 Q 793.5 770.0 776.5 772.0 Q 746.5 775.0 712.5 758.0 C 685.5 745.0 683.5 728.0 712.5 735.0 Z" fill="lightgray"></path>
      </clipPath>
      <path clip-path="url(#make-me-a-hanzi-clip-10)" d="M 720.5 741.0 L 724.5 751.0 L 748.5 757.0 L 791.5 758.0 " fill="none" id="make-me-a-hanzi-animation-10" stroke-dasharray="207 414" stroke-linecap="round"></path>

      <clipPath id="make-me-a-hanzi-clip-11">
      <path d="M 713.5 675.0 Q 759.5 684.0 794.5 689.0 Q 810.5 692.0 804.5 700.0 Q 797.5 710.0 779.5 712.0 Q 755.5 715.0 713.5 696.0 C 686.5 684.0 684.5 669.0 713.5 675.0 Z" fill="lightgray"></path>
      </clipPath>
      <path clip-path="url(#make-me-a-hanzi-clip-11)" d="M 720.5 680.0 L 725.5 690.0 L 740.5 694.0 L 795.5 698.0 " fill="none" id="make-me-a-hanzi-animation-11" stroke-dasharray="210 420" stroke-linecap="round"></path>

      <clipPath id="make-me-a-hanzi-clip-12">
      <path d="M 712.5 616.0 Q 766.5 622.0 812.5 626.0 C 842.5 629.0 843.5 644.0 814.5 652.0 Q 810.5 653.0 804.5 655.0 Q 776.5 659.0 714.5 639.0 C 685.5 630.0 682.5 613.0 712.5 616.0 Z" fill="lightgray"></path>
      </clipPath>
      <path clip-path="url(#make-me-a-hanzi-clip-12)" d="M 719.5 621.0 L 727.5 632.0 L 797.5 640.0 L 807.5 646.0 " fill="none" id="make-me-a-hanzi-animation-12" stroke-dasharray="224 448" stroke-linecap="round"></path>

      <clipPath id="make-me-a-hanzi-clip-13">
      <path d="M 482.5 472.0 Q 485.5 476.0 489.5 481.0 Q 520.5 527.0 519.5 535.0 Q 515.5 544.0 495.5 547.0 Q 473.5 551.0 464.5 547.0 Q 460.5 546.0 459.5 535.0 Q 453.5 484.0 361.5 375.0 Q 348.5 362.0 367.5 367.0 Q 409.5 379.0 464.5 448.0 L 482.5 472.0 Z" fill="lightgray"></path>
      </clipPath>
      <path clip-path="url(#make-me-a-hanzi-clip-13)" d="M 510.5 534.0 L 484.5 522.0 L 443.5 451.0 L 399.5 399.0 L 370.5 375.0 " fill="none" id="make-me-a-hanzi-animation-13" stroke-dasharray="344 688" stroke-linecap="round"></path>

      <clipPath id="make-me-a-hanzi-clip-14">
      <path d="M 508.5 278.0 Q 509.5 284.0 509.5 289.0 Q 508.5 395.0 510.5 419.0 Q 514.5 438.0 488.5 466.0 Q 485.5 470.0 482.5 472.0 C 461.5 493.0 450.5 475.0 464.5 448.0 Q 488.5 409.0 463.5 290.0 Q 453.5 260.0 479.5 226.0 L 480.5 225.0 Q 492.5 215.0 499.5 232.0 Q 502.5 242.0 505.5 254.0 L 508.5 278.0 Z" fill="lightgray"></path>
      </clipPath>
      <path clip-path="url(#make-me-a-hanzi-clip-14)" d="M 480.5 464.0 L 492.5 424.0 L 484.5 279.0 L 488.5 232.0 " fill="none" id="make-me-a-hanzi-animation-14" stroke-dasharray="362 724" stroke-linecap="round"></path>

      <clipPath id="make-me-a-hanzi-clip-15">
      <path d="M 634.5 580.0 Q 643.5 568.0 653.5 557.0 Q 668.5 545.0 680.5 546.0 Q 690.5 545.0 695.5 560.0 Q 695.5 570.0 686.5 586.0 Q 671.5 601.0 636.5 601.0 Q 629.5 602.0 629.5 593.0 Q 628.5 586.0 634.5 580.0 Z" fill="lightgray"></path>
      </clipPath>
      <path clip-path="url(#make-me-a-hanzi-clip-15)" d="M 641.5 590.0 L 680.5 561.0 " fill="none" id="make-me-a-hanzi-animation-15" stroke-dasharray="177 354" stroke-linecap="round"></path>

      <clipPath id="make-me-a-hanzi-clip-16">
      <path d="M 685.5 500.0 Q 722.5 510.0 765.5 518.0 Q 798.5 527.0 802.5 531.0 Q 808.5 535.0 805.5 542.0 Q 801.5 549.0 781.5 554.0 Q 762.5 557.0 743.5 549.0 Q 706.5 536.0 667.5 526.0 Q 624.5 516.0 571.5 509.0 Q 549.5 505.0 565.5 494.0 Q 590.5 485.0 645.5 491.0 L 685.5 500.0 Z" fill="lightgray"></path>
      </clipPath>
      <path clip-path="url(#make-me-a-hanzi-clip-16)" d="M 567.5 502.0 L 635.5 503.0 L 764.5 537.0 L 796.5 539.0 " fill="none" id="make-me-a-hanzi-animation-16" stroke-dasharray="361 722" stroke-linecap="round"></path>

      <clipPath id="make-me-a-hanzi-clip-17">
      <path d="M 693.5 432.0 Q 736.5 441.0 776.5 446.0 Q 794.5 449.0 788.5 459.0 Q 779.5 471.0 760.5 474.0 Q 732.5 478.0 694.5 464.0 L 648.5 453.0 Q 603.5 444.0 565.5 434.0 Q 552.5 431.0 567.5 420.0 Q 576.5 414.0 650.5 425.0 L 693.5 432.0 Z" fill="lightgray"></path>
      </clipPath>
      <path clip-path="url(#make-me-a-hanzi-clip-17)" d="M 572.5 428.0 L 637.5 434.0 L 732.5 457.0 L 779.5 455.0 " fill="none" id="make-me-a-hanzi-animation-17" stroke-dasharray="338 676" stroke-linecap="round"></path>

      <clipPath id="make-me-a-hanzi-clip-18">
      <path d="M 691.5 362.0 Q 740.5 371.0 784.5 375.0 Q 802.5 376.0 795.5 387.0 Q 788.5 399.0 768.5 403.0 Q 750.5 406.0 691.5 393.0 L 651.5 384.0 Q 603.5 375.0 561.5 366.0 Q 548.5 365.0 563.5 352.0 Q 573.5 343.0 596.5 347.0 Q 624.5 351.0 651.5 355.0 L 691.5 362.0 Z" fill="lightgray"></path>
      </clipPath>
      <path clip-path="url(#make-me-a-hanzi-clip-18)" d="M 570.5 360.0 L 642.5 367.0 L 741.5 387.0 L 772.5 388.0 L 788.5 382.0 " fill="none" id="make-me-a-hanzi-animation-18" stroke-dasharray="349 698" stroke-linecap="round"></path>

      <clipPath id="make-me-a-hanzi-clip-19">
      <path d="M 689.5 308.0 Q 689.5 336.0 691.5 362.0 L 691.5 393.0 Q 691.5 414.0 693.5 432.0 L 694.5 464.0 Q 695.5 468.0 695.5 471.0 Q 699.5 484.0 693.5 493.0 Q 689.5 497.0 685.5 500.0 C 662.5 519.0 639.5 520.0 645.5 491.0 Q 648.5 482.0 648.5 453.0 L 650.5 425.0 Q 650.5 409.0 651.5 384.0 L 651.5 355.0 Q 651.5 331.0 653.5 301.0 C 655.5 271.0 689.5 278.0 689.5 308.0 Z" fill="lightgray"></path>
      </clipPath>
      <path clip-path="url(#make-me-a-hanzi-clip-19)" d="M 653.5 488.0 L 671.5 471.0 L 671.5 329.0 L 658.5 309.0 " fill="none" id="make-me-a-hanzi-animation-19" stroke-dasharray="319 638" stroke-linecap="round"></path>

      <clipPath id="make-me-a-hanzi-clip-20">
      <path d="M 653.5 301.0 Q 584.5 291.0 508.5 278.0 C 478.5 273.0 476.5 261.0 505.5 254.0 Q 527.5 248.0 541.5 250.0 Q 658.5 286.0 856.5 286.0 Q 871.5 287.0 874.5 293.0 Q 878.5 302.0 865.5 311.0 Q 822.5 341.0 776.5 325.0 Q 739.5 319.0 689.5 308.0 L 653.5 301.0 Z" fill="lightgray"></path>
      </clipPath>
      <path clip-path="url(#make-me-a-hanzi-clip-20)" d="M 513.5 259.0 L 522.5 266.0 L 606.5 281.0 L 801.5 308.0 L 866.5 297.0 " fill="none" id="make-me-a-hanzi-animation-20" stroke-dasharray="488 976" stroke-linecap="round"></path>

      <clipPath id="make-me-a-hanzi-clip-21">
      <path d="M 669.5 54.0 Q 705.5 91.0 738.5 146.0 Q 754.5 171.0 774.5 186.0 Q 793.5 199.0 783.5 213.0 Q 773.5 226.0 744.5 241.0 Q 723.5 251.0 639.5 222.0 Q 549.5 201.0 494.5 194.0 Q 481.5 193.0 476.5 186.0 Q 472.5 179.0 490.5 172.0 Q 526.5 159.0 574.5 173.0 Q 661.5 200.0 677.5 199.0 Q 692.5 196.0 687.5 181.0 Q 666.5 121.0 629.5 80.0 Q 628.5 80.0 628.5 79.0 L 603.5 56.0 Q 525.5 -1.0 385.5 -28.0 Q 372.5 -29.0 381.5 -40.0 Q 387.5 -44.0 433.5 -42.0 Q 491.5 -38.0 558.5 -14.0 Q 601.5 2.0 637.5 26.0 L 669.5 54.0 Z" fill="lightgray"></path>
      </clipPath>
      <path clip-path="url(#make-me-a-hanzi-clip-21)" d="M 483.5 184.0 L 548.5 184.0 L 676.5 218.0 L 712.5 211.0 L 728.5 201.0 L 709.5 154.0 L 680.5 105.0 L 649.5 66.0 L 619.5 40.0 L 558.5 6.0 L 490.5 -18.0 L 422.5 -34.0 L 414.5 -30.0 L 386.5 -35.0 " fill="none" id="make-me-a-hanzi-animation-21" stroke-dasharray="827 1654" stroke-linecap="round"></path>

      <clipPath id="make-me-a-hanzi-clip-22">
      <path d="M 637.5 26.0 Q 772.5 -85.0 824.5 -85.0 Q 827.5 -84.0 832.5 -84.0 Q 911.5 -74.0 972.5 -59.0 Q 982.5 -55.0 985.5 -47.0 Q 986.5 -40.0 969.5 -40.0 Q 923.5 -30.0 869.5 -25.0 Q 779.5 -13.0 669.5 54.0 L 628.5 79.0 Q 550.5 157.0 478.5 140.0 Q 471.5 136.0 475.5 128.0 Q 479.5 121.0 489.5 121.0 Q 535.5 121.0 598.5 60.0 Q 599.5 59.0 603.5 56.0 L 637.5 26.0 Z" fill="lightgray"></path>
      </clipPath>
      <path clip-path="url(#make-me-a-hanzi-clip-22)" d="M 486.5 132.0 L 546.5 120.0 L 597.5 86.0 L 659.5 33.0 L 731.5 -12.0 L 799.5 -44.0 L 837.5 -52.0 L 978.5 -48.0 " fill="none" id="make-me-a-hanzi-animation-22" stroke-dasharray="672 1344" stroke-linecap="round"></path>

</g>
</svg>
