<svg version="1.1" viewBox="0 0 1024 1024" xmlns="http://www.w3.org/2000/svg">
  <g stroke="lightgray" stroke-dasharray="1,1" stroke-width="1" transform="scale(4, 4)">
    <line x1="0" y1="0" x2="256" y2="256"></line>
    <line x1="256" y1="0" x2="0" y2="256"></line>
    <line x1="128" y1="0" x2="128" y2="256"></line>
    <line x1="0" y1="128" x2="256" y2="128"></line>
  </g>
  <g transform="scale(0.92, -0.92) translate(60, -900)">
    <style type="text/css">
      
        @keyframes keyframes0 {
          from {
            stroke: blue;
            stroke-dashoffset: 724;
            stroke-width: 128;
          }
          70% {
            animation-timing-function: step-end;
            stroke: blue;
            stroke-dashoffset: 0;
            stroke-width: 128;
          }
          to {
            stroke: black;
            stroke-width: 1024;
          }
        }
        #make-me-a-hanzi-animation-0 {
          animation: keyframes0 0.8391927083333334s both;
          animation-delay: 0s;
          animation-timing-function: linear;
        }
      
        @keyframes keyframes1 {
          from {
            stroke: blue;
            stroke-dashoffset: 690;
            stroke-width: 128;
          }
          69% {
            animation-timing-function: step-end;
            stroke: blue;
            stroke-dashoffset: 0;
            stroke-width: 128;
          }
          to {
            stroke: black;
            stroke-width: 1024;
          }
        }
        #make-me-a-hanzi-animation-1 {
          animation: keyframes1 0.8115234375s both;
          animation-delay: 0.8391927083333334s;
          animation-timing-function: linear;
        }
      
        @keyframes keyframes2 {
          from {
            stroke: blue;
            stroke-dashoffset: 740;
            stroke-width: 128;
          }
          71% {
            animation-timing-function: step-end;
            stroke: blue;
            stroke-dashoffset: 0;
            stroke-width: 128;
          }
          to {
            stroke: black;
            stroke-width: 1024;
          }
        }
        #make-me-a-hanzi-animation-2 {
          animation: keyframes2 0.8522135416666666s both;
          animation-delay: 1.6507161458333335s;
          animation-timing-function: linear;
        }
      
        @keyframes keyframes3 {
          from {
            stroke: blue;
            stroke-dashoffset: 1043;
            stroke-width: 128;
          }
          77% {
            animation-timing-function: step-end;
            stroke: blue;
            stroke-dashoffset: 0;
            stroke-width: 128;
          }
          to {
            stroke: black;
            stroke-width: 1024;
          }
        }
        #make-me-a-hanzi-animation-3 {
          animation: keyframes3 1.0987955729166667s both;
          animation-delay: 2.5029296875s;
          animation-timing-function: linear;
        }
      
        @keyframes keyframes4 {
          from {
            stroke: blue;
            stroke-dashoffset: 396;
            stroke-width: 128;
          }
          56% {
            animation-timing-function: step-end;
            stroke: blue;
            stroke-dashoffset: 0;
            stroke-width: 128;
          }
          to {
            stroke: black;
            stroke-width: 1024;
          }
        }
        #make-me-a-hanzi-animation-4 {
          animation: keyframes4 0.572265625s both;
          animation-delay: 3.601725260416667s;
          animation-timing-function: linear;
        }
      
    </style>
    
      <path d="M 476 505 L 619 522 Q 650 527 666 531 L 689 536 Q 702 538 704 549 Q 705 550 693 562 Q 681 572 659 580 Q 638 586 629 586 Q 620 586 592 578 Q 564 569 525 562 L 365 540 Q 298 531 279 530 L 239 526 Q 229 526 226 521 Q 224 515 237 502 Q 250 489 291 489 Q 301 487 405 496 L 476 505 Z" fill="lightgray"></path>
    
      <path d="M 648 280 L 678 286 Q 699 289 686 305 L 674 314 Q 668 317 649 323 Q 631 328 622 328 Q 613 327 584 320 L 552 314 L 491 306 L 430 296 L 376 292 L 265 280 Q 250 279 247 276 Q 245 271 255 262 Q 265 252 284 249 Q 304 245 317 245 Q 330 244 431 254 L 490 260 L 637 278 Q 644 278 648 280 Z" fill="lightgray"></path>
    
      <path d="M 491 306 L 494 378 L 499 416 Q 503 433 515 456 L 520 467 Q 523 481 492 497 L 476 505 C 449 518 391 523 405 496 L 416 475 Q 425 453 426 425 Q 427 397 429 369 L 430 296 L 431 254 L 434 40 C 434 10 489 13 489 43 L 490 260 L 491 306 Z" fill="lightgray"></path>
    
      <path d="M 434 40 L 245 21 Q 177 16 122 16 L 100 14 Q 76 14 91 -6 Q 114 -28 137 -34 Q 160 -41 165 -40 Q 171 -40 235 -23 Q 286 -15 381 -8 L 569 4 Q 662 10 822 7 L 853 6 Q 869 6 880 11 Q 891 16 889 22 Q 889 37 849 55 Q 809 72 781 72 L 698 60 L 489 43 L 434 40 Z" fill="lightgray"></path>
    
      <path d="M 680 229 L 668 229 Q 649 231 650 228 Q 647 222 654 215 L 701 152 Q 737 106 755 110 Q 769 110 775 120 Q 782 130 782 146 Q 782 187 750 203 Q 737 211 718 217 L 680 229 Z" fill="lightgray"></path>
    
    
      <clipPath id="make-me-a-hanzi-clip-0">
        <path d="M 476 505 L 619 522 Q 650 527 666 531 L 689 536 Q 702 538 704 549 Q 705 550 693 562 Q 681 572 659 580 Q 638 586 629 586 Q 620 586 592 578 Q 564 569 525 562 L 365 540 Q 298 531 279 530 L 239 526 Q 229 526 226 521 Q 224 515 237 502 Q 250 489 291 489 Q 301 487 405 496 L 476 505 Z"></path>
      </clipPath>
      <path clip-path="url(#make-me-a-hanzi-clip-0)" d="M 234 519 L 267 509 L 317 511 L 552 540 L 628 555 L 697 547" fill="none" id="make-me-a-hanzi-animation-0" stroke-dasharray="596 1192" stroke-linecap="round"></path>
    
      <clipPath id="make-me-a-hanzi-clip-1">
        <path d="M 648 280 L 678 286 Q 699 289 686 305 L 674 314 Q 668 317 649 323 Q 631 328 622 328 Q 613 327 584 320 L 552 314 L 491 306 L 430 296 L 376 292 L 265 280 Q 250 279 247 276 Q 245 271 255 262 Q 265 252 284 249 Q 304 245 317 245 Q 330 244 431 254 L 490 260 L 637 278 Q 644 278 648 280 Z"></path>
      </clipPath>
      <path clip-path="url(#make-me-a-hanzi-clip-1)" d="M 251 274 L 280 265 L 333 266 L 417 272 L 622 302 L 681 296" fill="none" id="make-me-a-hanzi-animation-1" stroke-dasharray="562 1124" stroke-linecap="round"></path>
    
      <clipPath id="make-me-a-hanzi-clip-2">
        <path d="M 491 306 L 494 378 L 499 416 Q 503 433 515 456 L 520 467 Q 523 481 492 497 L 476 505 C 449 518 391 523 405 496 L 416 475 Q 425 453 426 425 Q 427 397 429 369 L 430 296 L 431 254 L 434 40 C 434 10 489 13 489 43 L 490 260 L 491 306 Z"></path>
      </clipPath>
      <path clip-path="url(#make-me-a-hanzi-clip-2)" d="M 413 493 L 467 459 L 460 333 L 462 69 L 440 48" fill="none" id="make-me-a-hanzi-animation-2" stroke-dasharray="612 1224" stroke-linecap="round"></path>
    
      <clipPath id="make-me-a-hanzi-clip-3">
        <path d="M 434 40 L 245 21 Q 177 16 122 16 L 100 14 Q 76 14 91 -6 Q 114 -28 137 -34 Q 160 -41 165 -40 Q 171 -40 235 -23 Q 286 -15 381 -8 L 569 4 Q 662 10 822 7 L 853 6 Q 869 6 880 11 Q 891 16 889 22 Q 889 37 849 55 Q 809 72 781 72 L 698 60 L 489 43 L 434 40 Z"></path>
      </clipPath>
      <path clip-path="url(#make-me-a-hanzi-clip-3)" d="M 96 4 L 163 -12 L 412 17 L 779 40 L 877 22" fill="none" id="make-me-a-hanzi-animation-3" stroke-dasharray="915 1830" stroke-linecap="round"></path>
    
      <clipPath id="make-me-a-hanzi-clip-4">
        <path d="M 680 229 L 668 229 Q 649 231 650 228 Q 647 222 654 215 L 701 152 Q 737 106 755 110 Q 769 110 775 120 Q 782 130 782 146 Q 782 187 750 203 Q 737 211 718 217 L 680 229 Z"></path>
      </clipPath>
      <path clip-path="url(#make-me-a-hanzi-clip-4)" d="M 655 222 L 728 175 L 744 158 L 757 131" fill="none" id="make-me-a-hanzi-animation-4" stroke-dasharray="268 536" stroke-linecap="round"></path>
    
  </g>
</svg>