<svg version="1.1" viewBox="0 0 1024 1024" xmlns="http://www.w3.org/2000/svg">
  <g stroke="lightgray" stroke-dasharray="1,1" stroke-width="1" transform="scale(4, 4)">
    <line x1="0" y1="0" x2="256" y2="256"></line>
    <line x1="256" y1="0" x2="0" y2="256"></line>
    <line x1="128" y1="0" x2="128" y2="256"></line>
    <line x1="0" y1="128" x2="256" y2="128"></line>
  </g>
<g transform="scale(0.92, -0.92) translate(60, -900)">
   <style type="text/css">
    @keyframes keyframes0 {
      from {
       stroke: blue;
       stroke-dashoffset: 751;
       stroke-width: 128;
       }
       71% {
       animation-timing-function: step-end;
       stroke: blue;
       stroke-dashoffset: 0;
       stroke-width: 128;
       }
       to {
       stroke: black;
       stroke-width: 1024;
       }
       }
       #make-me-a-hanzi-animation-0 {
         animation: keyframes0 0.861165s both;
         animation-delay: 0.000000s;
         animation-timing-function: linear;
       }
    @keyframes keyframes1 {
      from {
       stroke: blue;
       stroke-dashoffset: 467;
       stroke-width: 128;
       }
       60% {
       animation-timing-function: step-end;
       stroke: blue;
       stroke-dashoffset: 0;
       stroke-width: 128;
       }
       to {
       stroke: black;
       stroke-width: 1024;
       }
       }
       #make-me-a-hanzi-animation-1 {
         animation: keyframes1 0.630046s both;
         animation-delay: 0.861165s;
         animation-timing-function: linear;
       }
    @keyframes keyframes2 {
      from {
       stroke: blue;
       stroke-dashoffset: 410;
       stroke-width: 128;
       }
       57% {
       animation-timing-function: step-end;
       stroke: blue;
       stroke-dashoffset: 0;
       stroke-width: 128;
       }
       to {
       stroke: black;
       stroke-width: 1024;
       }
       }
       #make-me-a-hanzi-animation-2 {
         animation: keyframes2 0.583659s both;
         animation-delay: 1.491211s;
         animation-timing-function: linear;
       }
    @keyframes keyframes3 {
      from {
       stroke: blue;
       stroke-dashoffset: 588;
       stroke-width: 128;
       }
       66% {
       animation-timing-function: step-end;
       stroke: blue;
       stroke-dashoffset: 0;
       stroke-width: 128;
       }
       to {
       stroke: black;
       stroke-width: 1024;
       }
       }
       #make-me-a-hanzi-animation-3 {
         animation: keyframes3 0.728516s both;
         animation-delay: 2.074870s;
         animation-timing-function: linear;
       }
    @keyframes keyframes4 {
      from {
       stroke: blue;
       stroke-dashoffset: 1139;
       stroke-width: 128;
       }
       79% {
       animation-timing-function: step-end;
       stroke: blue;
       stroke-dashoffset: 0;
       stroke-width: 128;
       }
       to {
       stroke: black;
       stroke-width: 1024;
       }
       }
       #make-me-a-hanzi-animation-4 {
         animation: keyframes4 1.176921s both;
         animation-delay: 2.803385s;
         animation-timing-function: linear;
       }
    @keyframes keyframes5 {
      from {
       stroke: blue;
       stroke-dashoffset: 750;
       stroke-width: 128;
       }
       71% {
       animation-timing-function: step-end;
       stroke: blue;
       stroke-dashoffset: 0;
       stroke-width: 128;
       }
       to {
       stroke: black;
       stroke-width: 1024;
       }
       }
       #make-me-a-hanzi-animation-5 {
         animation: keyframes5 0.860352s both;
         animation-delay: 3.980306s;
         animation-timing-function: linear;
       }
    @keyframes keyframes6 {
      from {
       stroke: blue;
       stroke-dashoffset: 423;
       stroke-width: 128;
       }
       58% {
       animation-timing-function: step-end;
       stroke: blue;
       stroke-dashoffset: 0;
       stroke-width: 128;
       }
       to {
       stroke: black;
       stroke-width: 1024;
       }
       }
       #make-me-a-hanzi-animation-6 {
         animation: keyframes6 0.594238s both;
         animation-delay: 4.840658s;
         animation-timing-function: linear;
       }
    @keyframes keyframes7 {
      from {
       stroke: blue;
       stroke-dashoffset: 362;
       stroke-width: 128;
       }
       54% {
       animation-timing-function: step-end;
       stroke: blue;
       stroke-dashoffset: 0;
       stroke-width: 128;
       }
       to {
       stroke: black;
       stroke-width: 1024;
       }
       }
       #make-me-a-hanzi-animation-7 {
         animation: keyframes7 0.544596s both;
         animation-delay: 5.434896s;
         animation-timing-function: linear;
       }
    @keyframes keyframes8 {
      from {
       stroke: blue;
       stroke-dashoffset: 425;
       stroke-width: 128;
       }
       58% {
       animation-timing-function: step-end;
       stroke: blue;
       stroke-dashoffset: 0;
       stroke-width: 128;
       }
       to {
       stroke: black;
       stroke-width: 1024;
       }
       }
       #make-me-a-hanzi-animation-8 {
         animation: keyframes8 0.595866s both;
         animation-delay: 5.979492s;
         animation-timing-function: linear;
       }
    @keyframes keyframes9 {
      from {
       stroke: blue;
       stroke-dashoffset: 373;
       stroke-width: 128;
       }
       55% {
       animation-timing-function: step-end;
       stroke: blue;
       stroke-dashoffset: 0;
       stroke-width: 128;
       }
       to {
       stroke: black;
       stroke-width: 1024;
       }
       }
       #make-me-a-hanzi-animation-9 {
         animation: keyframes9 0.553548s both;
         animation-delay: 6.575358s;
         animation-timing-function: linear;
       }
    @keyframes keyframes10 {
      from {
       stroke: blue;
       stroke-dashoffset: 412;
       stroke-width: 128;
       }
       57% {
       animation-timing-function: step-end;
       stroke: blue;
       stroke-dashoffset: 0;
       stroke-width: 128;
       }
       to {
       stroke: black;
       stroke-width: 1024;
       }
       }
       #make-me-a-hanzi-animation-10 {
         animation: keyframes10 0.585286s both;
         animation-delay: 7.128906s;
         animation-timing-function: linear;
       }
    @keyframes keyframes11 {
      from {
       stroke: blue;
       stroke-dashoffset: 360;
       stroke-width: 128;
       }
       54% {
       animation-timing-function: step-end;
       stroke: blue;
       stroke-dashoffset: 0;
       stroke-width: 128;
       }
       to {
       stroke: black;
       stroke-width: 1024;
       }
       }
       #make-me-a-hanzi-animation-11 {
         animation: keyframes11 0.542969s both;
         animation-delay: 7.714193s;
         animation-timing-function: linear;
       }
    @keyframes keyframes12 {
      from {
       stroke: blue;
       stroke-dashoffset: 428;
       stroke-width: 128;
       }
       58% {
       animation-timing-function: step-end;
       stroke: blue;
       stroke-dashoffset: 0;
       stroke-width: 128;
       }
       to {
       stroke: black;
       stroke-width: 1024;
       }
       }
       #make-me-a-hanzi-animation-12 {
         animation: keyframes12 0.598307s both;
         animation-delay: 8.257161s;
         animation-timing-function: linear;
       }
    @keyframes keyframes13 {
      from {
       stroke: blue;
       stroke-dashoffset: 390;
       stroke-width: 128;
       }
       56% {
       animation-timing-function: step-end;
       stroke: blue;
       stroke-dashoffset: 0;
       stroke-width: 128;
       }
       to {
       stroke: black;
       stroke-width: 1024;
       }
       }
       #make-me-a-hanzi-animation-13 {
         animation: keyframes13 0.567383s both;
         animation-delay: 8.855469s;
         animation-timing-function: linear;
       }
    @keyframes keyframes14 {
      from {
       stroke: blue;
       stroke-dashoffset: 644;
       stroke-width: 128;
       }
       68% {
       animation-timing-function: step-end;
       stroke: blue;
       stroke-dashoffset: 0;
       stroke-width: 128;
       }
       to {
       stroke: black;
       stroke-width: 1024;
       }
       }
       #make-me-a-hanzi-animation-14 {
         animation: keyframes14 0.774089s both;
         animation-delay: 9.422852s;
         animation-timing-function: linear;
       }
    @keyframes keyframes15 {
      from {
       stroke: blue;
       stroke-dashoffset: 588;
       stroke-width: 128;
       }
       66% {
       animation-timing-function: step-end;
       stroke: blue;
       stroke-dashoffset: 0;
       stroke-width: 128;
       }
       to {
       stroke: black;
       stroke-width: 1024;
       }
       }
       #make-me-a-hanzi-animation-15 {
         animation: keyframes15 0.728516s both;
         animation-delay: 10.196940s;
         animation-timing-function: linear;
       }
    @keyframes keyframes16 {
      from {
       stroke: blue;
       stroke-dashoffset: 480;
       stroke-width: 128;
       }
       61% {
       animation-timing-function: step-end;
       stroke: blue;
       stroke-dashoffset: 0;
       stroke-width: 128;
       }
       to {
       stroke: black;
       stroke-width: 1024;
       }
       }
       #make-me-a-hanzi-animation-16 {
         animation: keyframes16 0.640625s both;
         animation-delay: 10.925456s;
         animation-timing-function: linear;
       }
    @keyframes keyframes17 {
      from {
       stroke: blue;
       stroke-dashoffset: 979;
       stroke-width: 128;
       }
       76% {
       animation-timing-function: step-end;
       stroke: blue;
       stroke-dashoffset: 0;
       stroke-width: 128;
       }
       to {
       stroke: black;
       stroke-width: 1024;
       }
       }
       #make-me-a-hanzi-animation-17 {
         animation: keyframes17 1.046712s both;
         animation-delay: 11.566081s;
         animation-timing-function: linear;
       }
    @keyframes keyframes18 {
      from {
       stroke: blue;
       stroke-dashoffset: 360;
       stroke-width: 128;
       }
       54% {
       animation-timing-function: step-end;
       stroke: blue;
       stroke-dashoffset: 0;
       stroke-width: 128;
       }
       to {
       stroke: black;
       stroke-width: 1024;
       }
       }
       #make-me-a-hanzi-animation-18 {
         animation: keyframes18 0.542969s both;
         animation-delay: 12.612793s;
         animation-timing-function: linear;
       }
</style>
<path d="M 490.5 778.5 L 514.5 780.5 Q 594.5 788.5 666.5 792.5 L 714.5 794.5 Q 735.5 796.5 740.5 798.5 Q 747.5 803.5 748.0 808.5 Q 748.5 813.5 734.5 823.5 L 706.5 837.5 Q 681.5 846.5 643.5 838.5 Q 540.5 817.5 405.5 803.5 Q 270.5 789.5 267.5 788.5 L 250.5 785.5 Q 240.5 784.5 239.0 778.0 Q 237.5 771.5 249.5 764.5 Q 275.5 746.5 300.5 749.5 L 377.5 762.5 L 426.5 769.5 Q 454.5 773.5 459.5 774.5 L 490.5 778.5 Z" fill="lightgray"></path> 
<path d="M 254.5 612.5 L 279.5 625.5 L 314.5 645.5 Q 339.5 659.5 350.5 667.5 L 378.5 686.5 L 401.5 698.5 Q 404.5 704.5 394.5 716.5 Q 376.5 734.5 352.5 740.5 L 332.5 745.5 Q 325.5 745.5 324.0 744.0 Q 322.5 742.5 322.5 734.5 L 318.5 720.5 Q 315.5 713.5 308.5 703.5 Q 301.5 689.5 287.5 675.5 L 261.5 648.5 Q 243.5 632.5 231.5 623.5 L 219.5 614.5 Q 210.5 606.5 211.0 602.0 Q 211.5 597.5 230.5 602.5 L 254.5 612.5 Z" fill="lightgray"></path> 
<path d="M 731.5 664.5 L 742.5 684.5 Q 747.5 690.5 745.5 703.5 Q 743.5 715.5 740.5 722.5 Q 736.5 728.5 711.5 746.5 Q 686.5 763.5 641.5 776.5 L 618.5 783.5 Q 613.5 785.5 611.5 781.5 Q 606.5 776.5 620.5 763.5 Q 633.5 750.5 641.5 739.5 L 666.5 707.5 Q 685.5 681.5 686.5 680.5 L 695.5 671.5 C 716.5 650.5 721.5 645.5 731.5 664.5 Z" fill="lightgray"></path> 
<path d="M 277.5 610.5 L 254.5 612.5 C 225.5 615.5 225.5 615.5 230.5 602.5 L 237.5 584.5 Q 247.5 546.5 246.5 507.5 L 242.5 449.5 Q 242.5 404.5 225.5 370.5 L 215.5 350.5 Q 213.5 337.5 218.5 319.5 Q 222.5 301.5 227.5 294.5 Q 231.5 286.5 239.5 280.5 Q 247.5 273.5 252.5 272.5 Q 257.5 271.5 265.5 284.5 Q 273.5 296.5 277.5 348.5 L 291.5 579.5 C 293.5 609.5 293.5 609.5 277.5 610.5 Z" fill="lightgray"></path> 
<path d="M 471.5 629.5 L 277.5 610.5 C 247.5 607.5 262.5 572.5 291.5 579.5 L 324.5 587.5 L 469.5 607.5 L 521.5 614.5 L 672.5 623.5 Q 691.5 626.5 697.5 620.5 Q 703.5 614.5 703.5 589.5 L 705.5 489.5 L 701.5 387.5 Q 699.5 356.5 696.5 352.5 Q 693.5 347.5 691.5 345.5 Q 680.5 334.5 651.5 344.5 L 632.5 349.5 Q 618.5 353.5 616.5 350.5 Q 613.5 346.5 618.5 341.5 L 631.5 328.5 Q 638.5 321.5 656.5 299.5 Q 674.5 276.5 682.5 261.5 Q 689.5 246.5 701.5 246.5 Q 710.5 243.5 724.5 259.5 Q 737.5 274.5 748.5 299.5 Q 758.5 324.5 758.5 346.5 L 758.5 511.5 Q 758.5 566.5 769.5 593.5 Q 780.5 620.5 779.5 626.5 Q 778.5 640.5 731.5 664.5 C 711.5 675.5 711.5 675.5 695.5 671.5 L 662.5 662.5 Q 646.5 656.5 621.5 652.5 L 521.5 635.5 L 471.5 629.5 Z" fill="lightgray"></path> 
<path d="M 468.5 703.5 L 471.5 629.5 L 469.5 607.5 L 467.5 481.5 Q 467.5 398.5 457.5 359.5 Q 447.5 320.5 466.5 298.5 Q 484.5 276.5 490.5 278.5 Q 495.5 280.5 503.5 291.5 Q 511.5 301.5 515.5 324.5 L 517.5 346.5 L 521.5 614.5 L 521.5 635.5 L 523.5 667.5 Q 527.5 716.5 533.5 730.5 Q 538.5 744.5 535.5 752.5 Q 532.5 759.5 507.5 772.5 Q 497.5 774.5 490.5 778.5 C 462.5 788.5 457.5 790.5 459.5 774.5 L 465.5 733.5 L 468.5 703.5 Z" fill="lightgray"></path> 
<path d="M 394.5 522.5 L 414.5 543.5 Q 417.5 547.5 427.5 555.5 Q 436.5 560.5 437.5 563.5 Q 439.5 571.5 418.5 584.5 L 402.5 590.5 Q 392.5 592.5 389.5 590.5 Q 387.5 588.5 386.5 581.5 L 383.5 569.5 L 379.5 557.5 Q 373.5 550.5 367.5 538.5 L 351.5 516.5 L 308.5 469.5 Q 299.5 460.5 301.5 457.5 Q 304.5 454.5 312.5 460.5 L 322.5 465.5 Q 338.5 474.5 369.5 498.5 L 394.5 522.5 Z" fill="lightgray"></path> 
<path d="M 367.5 538.5 L 345.5 546.5 L 324.5 555.5 Q 313.5 558.5 312.0 557.0 Q 310.5 555.5 314.5 553.5 L 322.5 544.5 L 333.5 535.5 Q 336.5 532.5 351.5 516.5 L 369.5 498.5 L 385.5 478.5 Q 404.5 457.5 416.5 478.5 Q 422.5 488.5 407.5 512.5 L 394.5 522.5 L 367.5 538.5 Z" fill="lightgray"></path> 
<path d="M 341.5 393.5 L 333.5 383.5 Q 314.5 360.5 312.5 357.5 L 292.5 338.5 Q 283.5 327.5 285.5 326.5 Q 287.5 324.5 291.5 326.5 L 308.5 336.5 L 326.5 348.5 L 359.5 373.5 L 383.5 397.5 L 402.5 418.5 L 415.5 428.5 Q 424.5 434.5 425.5 438.5 Q 426.5 442.5 420.0 450.5 Q 413.5 458.5 399.0 464.0 Q 384.5 469.5 381.0 467.0 Q 377.5 464.5 375.5 453.0 Q 373.5 441.5 367.5 432.5 L 357.5 414.5 L 341.5 393.5 Z" fill="lightgray"></path> 
<path d="M 357.5 414.5 L 324.5 428.5 Q 311.5 433.5 310.0 432.0 Q 308.5 430.5 311.5 426.5 L 320.5 418.5 Q 338.5 396.5 341.5 393.5 L 359.5 373.5 L 377.5 351.5 Q 385.5 338.5 389.5 334.5 Q 401.5 325.5 412.0 341.0 Q 422.5 356.5 408.5 380.5 Q 404.5 385.5 383.5 397.5 L 357.5 414.5 Z" fill="lightgray"></path> 
<path d="M 580.5 553.5 L 562.5 531.5 L 535.5 502.5 Q 527.5 494.5 528.5 491.5 Q 529.5 488.5 533.5 492.5 L 539.5 494.5 L 549.5 500.5 Q 563.5 506.5 572.5 514.5 L 600.5 537.5 L 624.5 557.5 L 637.5 571.5 Q 643.5 579.5 655.5 585.5 Q 667.5 591.5 660.0 600.0 Q 652.5 608.5 642.5 610.5 Q 616.5 620.5 612.0 615.5 Q 607.5 610.5 604.5 599.5 Q 601.5 588.5 597.5 582.5 Q 595.5 575.5 592.5 571.5 L 580.5 553.5 Z" fill="lightgray"></path> 
<path d="M 592.5 571.5 L 574.5 578.5 L 553.5 584.5 Q 544.5 589.5 542.5 587.0 Q 540.5 584.5 543.5 582.5 L 580.5 553.5 L 600.5 537.5 L 627.5 511.5 Q 640.5 497.5 653.0 507.0 Q 665.5 516.5 658.5 537.5 Q 656.5 539.5 645.5 547.5 L 633.5 554.5 Q 631.5 556.5 624.5 557.5 L 592.5 571.5 Z" fill="lightgray"></path> 
<path d="M 578.5 420.5 L 541.5 381.5 L 533.5 371.5 Q 528.5 366.5 530.5 364.0 Q 532.5 361.5 539.5 365.5 L 549.5 369.5 L 563.5 376.5 Q 573.5 383.5 576.5 385.5 L 597.5 399.5 L 619.5 424.5 L 629.5 434.5 Q 630.5 434.5 640.5 444.5 Q 650.5 454.5 670.5 469.5 Q 670.5 473.5 666.0 481.0 Q 661.5 488.5 657.5 490.0 Q 653.5 491.5 647.0 494.0 Q 640.5 496.5 633.5 498.5 Q 626.5 500.5 625.0 499.0 Q 623.5 497.5 621.5 488.5 Q 619.5 479.5 611.5 466.5 Q 603.5 453.5 601.5 451.5 L 593.5 438.5 L 578.5 420.5 Z" fill="lightgray"></path> 
<path d="M 593.5 438.5 L 573.5 450.5 L 552.5 458.5 Q 540.5 463.5 539.0 462.0 Q 537.5 460.5 539.5 457.5 L 547.5 449.5 Q 548.5 445.5 557.5 438.5 Q 569.5 426.5 578.5 420.5 L 597.5 399.5 L 619.5 377.5 Q 624.5 372.5 630.5 365.5 Q 645.5 346.5 656.5 360.5 Q 661.5 367.5 662.0 384.0 Q 662.5 400.5 641.5 410.5 Q 631.5 418.5 619.5 424.5 L 593.5 438.5 Z" fill="lightgray"></path> 
<path d="M 494.5 219.5 L 535.5 224.5 L 641.5 238.5 L 669.5 240.5 Q 677.5 242.5 678.5 249.5 Q 679.5 256.5 673.5 261.5 Q 642.5 291.5 594.5 280.5 L 560.5 272.5 Q 546.5 269.5 516.5 265.5 L 389.5 249.5 Q 358.5 244.5 328.5 241.5 L 297.5 240.5 L 285.5 239.5 Q 268.5 237.5 278.5 221.5 Q 283.5 214.5 304.5 207.0 Q 325.5 199.5 334.0 199.0 Q 342.5 198.5 365.5 201.5 Q 407.5 211.5 435.5 211.5 L 494.5 219.5 Z" fill="lightgray"></path> 
<path d="M 506.5 95.5 L 519.5 97.5 L 647.5 115.5 Q 655.5 117.5 655.5 123.5 Q 657.5 129.5 651.0 135.0 Q 644.5 140.5 638.0 143.0 Q 631.5 145.5 616.5 153.0 Q 601.5 160.5 592.5 156.5 L 573.5 151.5 L 545.5 144.5 L 509.5 136.5 L 453.5 129.5 L 361.5 117.5 Q 341.5 114.5 330.5 114.5 L 318.5 113.5 Q 309.5 113.5 308.0 108.5 Q 306.5 103.5 311.0 97.5 Q 315.5 91.5 330.5 84.5 Q 345.5 77.5 371.5 77.5 L 455.5 88.5 L 506.5 95.5 Z" fill="lightgray"></path> 
<path d="M 455.5 88.5 L 455.5 60.5 Q 455.5 59.5 457.5 0.5 C 458.5 -29.5 503.5 -25.5 504.5 4.5 L 506.5 76.5 L 506.5 95.5 L 509.5 136.5 L 510.5 156.5 Q 510.5 168.5 515.5 180.5 Q 520.5 192.5 520.5 196.5 Q 521.5 203.5 494.5 219.5 C 468.5 235.5 420.5 237.5 435.5 211.5 L 441.5 201.5 L 446.5 185.5 Q 448.5 177.5 453.5 129.5 L 455.5 88.5 Z" fill="lightgray"></path> 
<path d="M 457.5 0.5 L 379.5 -5.5 L 253.5 -16.5 Q 227.5 -18.5 181.5 -20.5 L 150.5 -21.5 Q 131.5 -26.5 144.5 -40.5 Q 151.5 -47.5 160.5 -51.5 L 171.5 -55.5 Q 198.5 -67.5 208.0 -69.0 Q 217.5 -70.5 243.0 -65.0 Q 268.5 -59.5 317.5 -52.5 Q 366.5 -45.5 371.5 -45.5 L 414.5 -40.5 Q 471.5 -34.5 564.0 -31.5 Q 656.5 -28.5 709.5 -29.5 L 826.5 -32.5 Q 857.5 -33.5 869.5 -30.5 Q 892.5 -20.5 864.5 2.5 Q 848.5 16.5 825.0 24.0 Q 801.5 31.5 790.5 31.5 L 710.5 20.5 L 658.5 16.5 L 504.5 4.5 L 457.5 0.5 Z" fill="lightgray"></path> 
<path d="M 772.5 62.5 Q 772.5 89.5 752.5 105.5 Q 732.5 121.5 710.5 125.5 L 696.5 129.5 Q 683.5 132.5 679.5 131.5 L 671.5 127.5 Q 670.5 124.5 677.0 116.0 Q 683.5 107.5 696.5 86.5 Q 709.5 65.5 715.5 59.5 Q 731.5 33.5 750.0 33.5 Q 768.5 33.5 772.5 62.5 Z" fill="lightgray"></path> 
      <clipPath id="make-me-a-hanzi-clip-0">
      <path d="M 490.5 778.5 L 514.5 780.5 Q 594.5 788.5 666.5 792.5 L 714.5 794.5 Q 735.5 796.5 740.5 798.5 Q 747.5 803.5 748.0 808.5 Q 748.5 813.5 734.5 823.5 L 706.5 837.5 Q 681.5 846.5 643.5 838.5 Q 540.5 817.5 405.5 803.5 Q 270.5 789.5 267.5 788.5 L 250.5 785.5 Q 240.5 784.5 239.0 778.0 Q 237.5 771.5 249.5 764.5 Q 275.5 746.5 300.5 749.5 L 377.5 762.5 L 426.5 769.5 Q 454.5 773.5 459.5 774.5 L 490.5 778.5 Z" fill="lightgray"></path>
      </clipPath>
      <path clip-path="url(#make-me-a-hanzi-clip-0)" d="M 247.5 776.5 L 304.5 771.5 L 671.5 817.5 L 738.5 807.5 " fill="none" id="make-me-a-hanzi-animation-0" stroke-dasharray="623 1246" stroke-linecap="round"></path>

      <clipPath id="make-me-a-hanzi-clip-1">
      <path d="M 254.5 612.5 L 279.5 625.5 L 314.5 645.5 Q 339.5 659.5 350.5 667.5 L 378.5 686.5 L 401.5 698.5 Q 404.5 704.5 394.5 716.5 Q 376.5 734.5 352.5 740.5 L 332.5 745.5 Q 325.5 745.5 324.0 744.0 Q 322.5 742.5 322.5 734.5 L 318.5 720.5 Q 315.5 713.5 308.5 703.5 Q 301.5 689.5 287.5 675.5 L 261.5 648.5 Q 243.5 632.5 231.5 623.5 L 219.5 614.5 Q 210.5 606.5 211.0 602.0 Q 211.5 597.5 230.5 602.5 L 254.5 612.5 Z" fill="lightgray"></path>
      </clipPath>
      <path clip-path="url(#make-me-a-hanzi-clip-1)" d="M 392.5 701.5 L 349.5 706.5 L 277.5 642.5 L 233.5 612.5 L 216.5 607.5 " fill="none" id="make-me-a-hanzi-animation-1" stroke-dasharray="339 678" stroke-linecap="round"></path>

      <clipPath id="make-me-a-hanzi-clip-2">
      <path d="M 731.5 664.5 L 742.5 684.5 Q 747.5 690.5 745.5 703.5 Q 743.5 715.5 740.5 722.5 Q 736.5 728.5 711.5 746.5 Q 686.5 763.5 641.5 776.5 L 618.5 783.5 Q 613.5 785.5 611.5 781.5 Q 606.5 776.5 620.5 763.5 Q 633.5 750.5 641.5 739.5 L 666.5 707.5 Q 685.5 681.5 686.5 680.5 L 695.5 671.5 C 716.5 650.5 721.5 645.5 731.5 664.5 Z" fill="lightgray"></path>
      </clipPath>
      <path clip-path="url(#make-me-a-hanzi-clip-2)" d="M 616.5 777.5 L 700.5 715.5 L 727.5 673.5 " fill="none" id="make-me-a-hanzi-animation-2" stroke-dasharray="282 564" stroke-linecap="round"></path>

      <clipPath id="make-me-a-hanzi-clip-3">
      <path d="M 277.5 610.5 L 254.5 612.5 C 225.5 615.5 225.5 615.5 230.5 602.5 L 237.5 584.5 Q 247.5 546.5 246.5 507.5 L 242.5 449.5 Q 242.5 404.5 225.5 370.5 L 215.5 350.5 Q 213.5 337.5 218.5 319.5 Q 222.5 301.5 227.5 294.5 Q 231.5 286.5 239.5 280.5 Q 247.5 273.5 252.5 272.5 Q 257.5 271.5 265.5 284.5 Q 273.5 296.5 277.5 348.5 L 291.5 579.5 C 293.5 609.5 293.5 609.5 277.5 610.5 Z" fill="lightgray"></path>
      </clipPath>
      <path clip-path="url(#make-me-a-hanzi-clip-3)" d="M 238.5 600.5 L 261.5 587.5 L 267.5 557.5 L 260.5 403.5 L 245.5 332.5 L 250.5 284.5 " fill="none" id="make-me-a-hanzi-animation-3" stroke-dasharray="460 920" stroke-linecap="round"></path>

      <clipPath id="make-me-a-hanzi-clip-4">
      <path d="M 471.5 629.5 L 277.5 610.5 C 247.5 607.5 262.5 572.5 291.5 579.5 L 324.5 587.5 L 469.5 607.5 L 521.5 614.5 L 672.5 623.5 Q 691.5 626.5 697.5 620.5 Q 703.5 614.5 703.5 589.5 L 705.5 489.5 L 701.5 387.5 Q 699.5 356.5 696.5 352.5 Q 693.5 347.5 691.5 345.5 Q 680.5 334.5 651.5 344.5 L 632.5 349.5 Q 618.5 353.5 616.5 350.5 Q 613.5 346.5 618.5 341.5 L 631.5 328.5 Q 638.5 321.5 656.5 299.5 Q 674.5 276.5 682.5 261.5 Q 689.5 246.5 701.5 246.5 Q 710.5 243.5 724.5 259.5 Q 737.5 274.5 748.5 299.5 Q 758.5 324.5 758.5 346.5 L 758.5 511.5 Q 758.5 566.5 769.5 593.5 Q 780.5 620.5 779.5 626.5 Q 778.5 640.5 731.5 664.5 C 711.5 675.5 711.5 675.5 695.5 671.5 L 662.5 662.5 Q 646.5 656.5 621.5 652.5 L 521.5 635.5 L 471.5 629.5 Z" fill="lightgray"></path>
      </clipPath>
      <path clip-path="url(#make-me-a-hanzi-clip-4)" d="M 285.5 607.5 L 304.5 597.5 L 684.5 646.5 L 720.5 638.5 L 738.5 614.5 L 724.5 334.5 L 704.5 304.5 L 666.5 318.5 L 619.5 346.5 " fill="none" id="make-me-a-hanzi-animation-4" stroke-dasharray="1011 2022" stroke-linecap="round"></path>

      <clipPath id="make-me-a-hanzi-clip-5">
      <path d="M 468.5 703.5 L 471.5 629.5 L 469.5 607.5 L 467.5 481.5 Q 467.5 398.5 457.5 359.5 Q 447.5 320.5 466.5 298.5 Q 484.5 276.5 490.5 278.5 Q 495.5 280.5 503.5 291.5 Q 511.5 301.5 515.5 324.5 L 517.5 346.5 L 521.5 614.5 L 521.5 635.5 L 523.5 667.5 Q 527.5 716.5 533.5 730.5 Q 538.5 744.5 535.5 752.5 Q 532.5 759.5 507.5 772.5 Q 497.5 774.5 490.5 778.5 C 462.5 788.5 457.5 790.5 459.5 774.5 L 465.5 733.5 L 468.5 703.5 Z" fill="lightgray"></path>
      </clipPath>
      <path clip-path="url(#make-me-a-hanzi-clip-5)" d="M 468.5 768.5 L 499.5 735.5 L 493.5 449.5 L 485.5 343.5 L 488.5 287.5 " fill="none" id="make-me-a-hanzi-animation-5" stroke-dasharray="622 1244" stroke-linecap="round"></path>

      <clipPath id="make-me-a-hanzi-clip-6">
      <path d="M 394.5 522.5 L 414.5 543.5 Q 417.5 547.5 427.5 555.5 Q 436.5 560.5 437.5 563.5 Q 439.5 571.5 418.5 584.5 L 402.5 590.5 Q 392.5 592.5 389.5 590.5 Q 387.5 588.5 386.5 581.5 L 383.5 569.5 L 379.5 557.5 Q 373.5 550.5 367.5 538.5 L 351.5 516.5 L 308.5 469.5 Q 299.5 460.5 301.5 457.5 Q 304.5 454.5 312.5 460.5 L 322.5 465.5 Q 338.5 474.5 369.5 498.5 L 394.5 522.5 Z" fill="lightgray"></path>
      </clipPath>
      <path clip-path="url(#make-me-a-hanzi-clip-6)" d="M 428.5 565.5 L 405.5 565.5 L 364.5 511.5 L 305.5 462.5 " fill="none" id="make-me-a-hanzi-animation-6" stroke-dasharray="295 590" stroke-linecap="round"></path>

      <clipPath id="make-me-a-hanzi-clip-7">
      <path d="M 367.5 538.5 L 345.5 546.5 L 324.5 555.5 Q 313.5 558.5 312.0 557.0 Q 310.5 555.5 314.5 553.5 L 322.5 544.5 L 333.5 535.5 Q 336.5 532.5 351.5 516.5 L 369.5 498.5 L 385.5 478.5 Q 404.5 457.5 416.5 478.5 Q 422.5 488.5 407.5 512.5 L 394.5 522.5 L 367.5 538.5 Z" fill="lightgray"></path>
      </clipPath>
      <path clip-path="url(#make-me-a-hanzi-clip-7)" d="M 320.5 550.5 L 367.5 522.5 L 401.5 484.5 " fill="none" id="make-me-a-hanzi-animation-7" stroke-dasharray="234 468" stroke-linecap="round"></path>

      <clipPath id="make-me-a-hanzi-clip-8">
      <path d="M 341.5 393.5 L 333.5 383.5 Q 314.5 360.5 312.5 357.5 L 292.5 338.5 Q 283.5 327.5 285.5 326.5 Q 287.5 324.5 291.5 326.5 L 308.5 336.5 L 326.5 348.5 L 359.5 373.5 L 383.5 397.5 L 402.5 418.5 L 415.5 428.5 Q 424.5 434.5 425.5 438.5 Q 426.5 442.5 420.0 450.5 Q 413.5 458.5 399.0 464.0 Q 384.5 469.5 381.0 467.0 Q 377.5 464.5 375.5 453.0 Q 373.5 441.5 367.5 432.5 L 357.5 414.5 L 341.5 393.5 Z" fill="lightgray"></path>
      </clipPath>
      <path clip-path="url(#make-me-a-hanzi-clip-8)" d="M 384.5 457.5 L 395.5 441.5 L 369.5 403.5 L 293.5 332.5 " fill="none" id="make-me-a-hanzi-animation-8" stroke-dasharray="297 594" stroke-linecap="round"></path>

      <clipPath id="make-me-a-hanzi-clip-9">
      <path d="M 357.5 414.5 L 324.5 428.5 Q 311.5 433.5 310.0 432.0 Q 308.5 430.5 311.5 426.5 L 320.5 418.5 Q 338.5 396.5 341.5 393.5 L 359.5 373.5 L 377.5 351.5 Q 385.5 338.5 389.5 334.5 Q 401.5 325.5 412.0 341.0 Q 422.5 356.5 408.5 380.5 Q 404.5 385.5 383.5 397.5 L 357.5 414.5 Z" fill="lightgray"></path>
      </clipPath>
      <path clip-path="url(#make-me-a-hanzi-clip-9)" d="M 318.5 425.5 L 382.5 377.5 L 393.5 365.5 L 398.5 345.5 " fill="none" id="make-me-a-hanzi-animation-9" stroke-dasharray="245 490" stroke-linecap="round"></path>

      <clipPath id="make-me-a-hanzi-clip-10">
      <path d="M 580.5 553.5 L 562.5 531.5 L 535.5 502.5 Q 527.5 494.5 528.5 491.5 Q 529.5 488.5 533.5 492.5 L 539.5 494.5 L 549.5 500.5 Q 563.5 506.5 572.5 514.5 L 600.5 537.5 L 624.5 557.5 L 637.5 571.5 Q 643.5 579.5 655.5 585.5 Q 667.5 591.5 660.0 600.0 Q 652.5 608.5 642.5 610.5 Q 616.5 620.5 612.0 615.5 Q 607.5 610.5 604.5 599.5 Q 601.5 588.5 597.5 582.5 Q 595.5 575.5 592.5 571.5 L 580.5 553.5 Z" fill="lightgray"></path>
      </clipPath>
      <path clip-path="url(#make-me-a-hanzi-clip-10)" d="M 649.5 595.5 L 626.5 593.5 L 598.5 552.5 L 535.5 497.5 " fill="none" id="make-me-a-hanzi-animation-10" stroke-dasharray="284 568" stroke-linecap="round"></path>

      <clipPath id="make-me-a-hanzi-clip-11">
      <path d="M 592.5 571.5 L 574.5 578.5 L 553.5 584.5 Q 544.5 589.5 542.5 587.0 Q 540.5 584.5 543.5 582.5 L 580.5 553.5 L 600.5 537.5 L 627.5 511.5 Q 640.5 497.5 653.0 507.0 Q 665.5 516.5 658.5 537.5 Q 656.5 539.5 645.5 547.5 L 633.5 554.5 Q 631.5 556.5 624.5 557.5 L 592.5 571.5 Z" fill="lightgray"></path>
      </clipPath>
      <path clip-path="url(#make-me-a-hanzi-clip-11)" d="M 557.5 579.5 L 630.5 535.5 L 642.5 520.5 " fill="none" id="make-me-a-hanzi-animation-11" stroke-dasharray="232 464" stroke-linecap="round"></path>

      <clipPath id="make-me-a-hanzi-clip-12">
      <path d="M 578.5 420.5 L 541.5 381.5 L 533.5 371.5 Q 528.5 366.5 530.5 364.0 Q 532.5 361.5 539.5 365.5 L 549.5 369.5 L 563.5 376.5 Q 573.5 383.5 576.5 385.5 L 597.5 399.5 L 619.5 424.5 L 629.5 434.5 Q 630.5 434.5 640.5 444.5 Q 650.5 454.5 670.5 469.5 Q 670.5 473.5 666.0 481.0 Q 661.5 488.5 657.5 490.0 Q 653.5 491.5 647.0 494.0 Q 640.5 496.5 633.5 498.5 Q 626.5 500.5 625.0 499.0 Q 623.5 497.5 621.5 488.5 Q 619.5 479.5 611.5 466.5 Q 603.5 453.5 601.5 451.5 L 593.5 438.5 L 578.5 420.5 Z" fill="lightgray"></path>
      </clipPath>
      <path clip-path="url(#make-me-a-hanzi-clip-12)" d="M 628.5 491.5 L 639.5 472.5 L 590.5 412.5 L 534.5 366.5 " fill="none" id="make-me-a-hanzi-animation-12" stroke-dasharray="300 600" stroke-linecap="round"></path>

      <clipPath id="make-me-a-hanzi-clip-13">
      <path d="M 593.5 438.5 L 573.5 450.5 L 552.5 458.5 Q 540.5 463.5 539.0 462.0 Q 537.5 460.5 539.5 457.5 L 547.5 449.5 Q 548.5 445.5 557.5 438.5 Q 569.5 426.5 578.5 420.5 L 597.5 399.5 L 619.5 377.5 Q 624.5 372.5 630.5 365.5 Q 645.5 346.5 656.5 360.5 Q 661.5 367.5 662.0 384.0 Q 662.5 400.5 641.5 410.5 Q 631.5 418.5 619.5 424.5 L 593.5 438.5 Z" fill="lightgray"></path>
      </clipPath>
      <path clip-path="url(#make-me-a-hanzi-clip-13)" d="M 546.5 456.5 L 637.5 389.5 L 644.5 369.5 " fill="none" id="make-me-a-hanzi-animation-13" stroke-dasharray="262 524" stroke-linecap="round"></path>

      <clipPath id="make-me-a-hanzi-clip-14">
      <path d="M 494.5 219.5 L 535.5 224.5 L 641.5 238.5 L 669.5 240.5 Q 677.5 242.5 678.5 249.5 Q 679.5 256.5 673.5 261.5 Q 642.5 291.5 594.5 280.5 L 560.5 272.5 Q 546.5 269.5 516.5 265.5 L 389.5 249.5 Q 358.5 244.5 328.5 241.5 L 297.5 240.5 L 285.5 239.5 Q 268.5 237.5 278.5 221.5 Q 283.5 214.5 304.5 207.0 Q 325.5 199.5 334.0 199.0 Q 342.5 198.5 365.5 201.5 Q 407.5 211.5 435.5 211.5 L 494.5 219.5 Z" fill="lightgray"></path>
      </clipPath>
      <path clip-path="url(#make-me-a-hanzi-clip-14)" d="M 284.5 229.5 L 301.5 223.5 L 353.5 221.5 L 606.5 258.5 L 638.5 259.5 L 667.5 251.5 " fill="none" id="make-me-a-hanzi-animation-14" stroke-dasharray="516 1032" stroke-linecap="round"></path>

      <clipPath id="make-me-a-hanzi-clip-15">
      <path d="M 506.5 95.5 L 519.5 97.5 L 647.5 115.5 Q 655.5 117.5 655.5 123.5 Q 657.5 129.5 651.0 135.0 Q 644.5 140.5 638.0 143.0 Q 631.5 145.5 616.5 153.0 Q 601.5 160.5 592.5 156.5 L 573.5 151.5 L 545.5 144.5 L 509.5 136.5 L 453.5 129.5 L 361.5 117.5 Q 341.5 114.5 330.5 114.5 L 318.5 113.5 Q 309.5 113.5 308.0 108.5 Q 306.5 103.5 311.0 97.5 Q 315.5 91.5 330.5 84.5 Q 345.5 77.5 371.5 77.5 L 455.5 88.5 L 506.5 95.5 Z" fill="lightgray"></path>
      </clipPath>
      <path clip-path="url(#make-me-a-hanzi-clip-15)" d="M 316.5 104.5 L 364.5 96.5 L 600.5 133.5 L 644.5 126.5 " fill="none" id="make-me-a-hanzi-animation-15" stroke-dasharray="460 920" stroke-linecap="round"></path>

      <clipPath id="make-me-a-hanzi-clip-16">
      <path d="M 455.5 88.5 L 455.5 60.5 Q 455.5 59.5 457.5 0.5 C 458.5 -29.5 503.5 -25.5 504.5 4.5 L 506.5 76.5 L 506.5 95.5 L 509.5 136.5 L 510.5 156.5 Q 510.5 168.5 515.5 180.5 Q 520.5 192.5 520.5 196.5 Q 521.5 203.5 494.5 219.5 C 468.5 235.5 420.5 237.5 435.5 211.5 L 441.5 201.5 L 446.5 185.5 Q 448.5 177.5 453.5 129.5 L 455.5 88.5 Z" fill="lightgray"></path>
      </clipPath>
      <path clip-path="url(#make-me-a-hanzi-clip-16)" d="M 443.5 209.5 L 481.5 183.5 L 481.5 41.5 L 479.5 23.5 L 464.5 13.5 " fill="none" id="make-me-a-hanzi-animation-16" stroke-dasharray="352 704" stroke-linecap="round"></path>

      <clipPath id="make-me-a-hanzi-clip-17">
      <path d="M 457.5 0.5 L 379.5 -5.5 L 253.5 -16.5 Q 227.5 -18.5 181.5 -20.5 L 150.5 -21.5 Q 131.5 -26.5 144.5 -40.5 Q 151.5 -47.5 160.5 -51.5 L 171.5 -55.5 Q 198.5 -67.5 208.0 -69.0 Q 217.5 -70.5 243.0 -65.0 Q 268.5 -59.5 317.5 -52.5 Q 366.5 -45.5 371.5 -45.5 L 414.5 -40.5 Q 471.5 -34.5 564.0 -31.5 Q 656.5 -28.5 709.5 -29.5 L 826.5 -32.5 Q 857.5 -33.5 869.5 -30.5 Q 892.5 -20.5 864.5 2.5 Q 848.5 16.5 825.0 24.0 Q 801.5 31.5 790.5 31.5 L 710.5 20.5 L 658.5 16.5 L 504.5 4.5 L 457.5 0.5 Z" fill="lightgray"></path>
      </clipPath>
      <path clip-path="url(#make-me-a-hanzi-clip-17)" d="M 149.5 -31.5 L 212.5 -44.5 L 451.5 -17.5 L 774.5 -0.5 L 819.5 -4.5 L 867.5 -18.5 " fill="none" id="make-me-a-hanzi-animation-17" stroke-dasharray="851 1702" stroke-linecap="round"></path>

      <clipPath id="make-me-a-hanzi-clip-18">
      <path d="M 772.5 62.5 Q 772.5 89.5 752.5 105.5 Q 732.5 121.5 710.5 125.5 L 696.5 129.5 Q 683.5 132.5 679.5 131.5 L 671.5 127.5 Q 670.5 124.5 677.0 116.0 Q 683.5 107.5 696.5 86.5 Q 709.5 65.5 715.5 59.5 Q 731.5 33.5 750.0 33.5 Q 768.5 33.5 772.5 62.5 Z" fill="lightgray"></path>
      </clipPath>
      <path clip-path="url(#make-me-a-hanzi-clip-18)" d="M 678.5 123.5 L 722.5 94.5 L 741.5 74.5 L 750.5 52.5 " fill="none" id="make-me-a-hanzi-animation-18" stroke-dasharray="232 464" stroke-linecap="round"></path>

</g>
</svg>
