<svg version="1.1" viewBox="0 0 1024 1024" xmlns="http://www.w3.org/2000/svg">
  <g stroke="lightgray" stroke-dasharray="1,1" stroke-width="1" transform="scale(4, 4)">
    <line x1="0" y1="0" x2="256" y2="256"></line>
    <line x1="256" y1="0" x2="0" y2="256"></line>
    <line x1="128" y1="0" x2="128" y2="256"></line>
    <line x1="0" y1="128" x2="256" y2="128"></line>
  </g>
<g transform="scale(1, -1) translate(0, -900)">
   <style type="text/css">
    @keyframes keyframes0 {
      from {
       stroke: blue;
       stroke-dashoffset: 746;
       stroke-width: 128;
       }
       71% {
       animation-timing-function: step-end;
       stroke: blue;
       stroke-dashoffset: 0;
       stroke-width: 128;
       }
       to {
       stroke: black;
       stroke-width: 1024;
       }
       }
       #make-me-a-hanzi-animation-0 {
         animation: keyframes0 0.857096s both;
         animation-delay: 0.000000s;
         animation-timing-function: linear;
       }
    @keyframes keyframes1 {
      from {
       stroke: blue;
       stroke-dashoffset: 1363;
       stroke-width: 128;
       }
       82% {
       animation-timing-function: step-end;
       stroke: blue;
       stroke-dashoffset: 0;
       stroke-width: 128;
       }
       to {
       stroke: black;
       stroke-width: 1024;
       }
       }
       #make-me-a-hanzi-animation-1 {
         animation: keyframes1 1.359212s both;
         animation-delay: 0.857096s;
         animation-timing-function: linear;
       }
    @keyframes keyframes2 {
      from {
       stroke: blue;
       stroke-dashoffset: 758;
       stroke-width: 128;
       }
       71% {
       animation-timing-function: step-end;
       stroke: blue;
       stroke-dashoffset: 0;
       stroke-width: 128;
       }
       to {
       stroke: black;
       stroke-width: 1024;
       }
       }
       #make-me-a-hanzi-animation-2 {
         animation: keyframes2 0.866862s both;
         animation-delay: 2.216309s;
         animation-timing-function: linear;
       }
    @keyframes keyframes3 {
      from {
       stroke: blue;
       stroke-dashoffset: 721;
       stroke-width: 128;
       }
       70% {
       animation-timing-function: step-end;
       stroke: blue;
       stroke-dashoffset: 0;
       stroke-width: 128;
       }
       to {
       stroke: black;
       stroke-width: 1024;
       }
       }
       #make-me-a-hanzi-animation-3 {
         animation: keyframes3 0.836751s both;
         animation-delay: 3.083171s;
         animation-timing-function: linear;
       }
    @keyframes keyframes4 {
      from {
       stroke: blue;
       stroke-dashoffset: 613;
       stroke-width: 128;
       }
       67% {
       animation-timing-function: step-end;
       stroke: blue;
       stroke-dashoffset: 0;
       stroke-width: 128;
       }
       to {
       stroke: black;
       stroke-width: 1024;
       }
       }
       #make-me-a-hanzi-animation-4 {
         animation: keyframes4 0.748861s both;
         animation-delay: 3.919922s;
         animation-timing-function: linear;
       }
</style>
<path d="M 222.0 479.0 Q 201.0 492.0 173.0 498.0 Q 165.0 502.0 159.0 494.0 Q 158.0 494.0 156.0 492.0 Q 151.0 487.0 161.0 474.0 Q 220.0 375.0 228.0 133.0 Q 229.0 66.0 271.0 24.0 Q 279.0 18.0 284.0 18.0 Q 301.0 14.0 303.0 50.0 L 303.0 54.0 L 302.0 94.0 Q 297.0 115.0 291.0 138.0 L 279.0 238.0 L 276.0 273.0 Q 263.0 396.0 261.0 428.0 C 259.0 458.0 248.0 465.0 222.0 479.0 Z" fill="lightgray"></path> 
<path d="M 457.0 494.0 Q 359.0 485.0 222.0 479.0 C 192.0 478.0 231.0 423.0 261.0 428.0 L 271.0 429.0 Q 335.0 441.0 457.0 457.0 L 510.0 466.0 Q 601.0 480.0 679.0 490.0 Q 707.0 492.0 726.0 485.0 Q 735.0 482.0 740.0 477.0 Q 751.0 467.0 751.0 440.0 L 751.0 436.0 Q 751.0 397.0 746.0 334.0 L 743.0 305.0 Q 733.0 224.0 714.0 143.0 Q 712.0 130.0 709.0 124.0 Q 702.0 110.0 683.0 120.0 L 663.0 133.0 Q 660.0 133.0 655.0 138.0 C 630.0 154.0 643.0 118.0 655.0 91.0 L 695.0 0.0 Q 704.0 -21.0 718.0 -21.0 Q 737.0 -17.0 750.0 13.0 Q 793.0 95.0 802.0 206.0 L 822.0 357.0 Q 825.0 383.0 834.0 406.0 Q 841.0 429.0 861.0 461.0 Q 873.0 480.0 870.0 488.0 Q 869.0 493.0 863.0 499.0 Q 841.0 524.0 779.0 553.0 Q 771.0 557.0 761.0 559.0 Q 746.0 562.0 701.0 549.0 Q 597.0 519.0 512.0 503.0 L 457.0 494.0 Z" fill="lightgray"></path> 
<path d="M 512.0 503.0 Q 514.0 589.0 524.0 653.0 L 537.0 722.0 Q 540.0 739.0 530.0 749.0 L 518.0 760.0 Q 499.0 769.0 489.0 774.0 Q 436.0 797.0 413.0 782.0 Q 407.0 775.0 408.0 765.0 L 414.0 753.0 Q 452.0 697.0 453.0 659.0 Q 457.0 573.0 457.0 494.0 L 457.0 457.0 L 457.0 332.0 Q 457.0 312.0 457.0 301.0 C 457.0 271.0 508.0 281.0 508.0 311.0 Q 508.0 390.0 510.0 466.0 L 512.0 503.0 Z" fill="lightgray"></path> 
<path d="M 279.0 238.0 Q 293.0 234.0 301.0 234.0 L 316.0 237.0 Q 410.0 251.0 503.0 269.0 L 743.0 305.0 C 773.0 309.0 769.0 315.0 746.0 334.0 Q 726.0 367.0 565.0 326.0 L 526.0 316.0 L 512.0 312.0 Q 508.0 312.0 508.0 311.0 L 457.0 301.0 Q 446.0 296.0 325.0 280.0 L 276.0 273.0 C 246.0 269.0 250.0 245.0 279.0 238.0 Z" fill="lightgray"></path> 
<path d="M 303.0 54.0 Q 303.0 55.0 305.0 55.0 Q 420.0 80.0 655.0 91.0 C 685.0 92.0 685.0 133.0 655.0 138.0 Q 644.0 145.0 515.0 130.0 Q 356.0 112.0 302.0 94.0 C 273.0 85.0 274.0 46.0 303.0 54.0 Z" fill="lightgray"></path> 
      <clipPath id="make-me-a-hanzi-clip-0">
      <path d="M 222.0 479.0 Q 201.0 492.0 173.0 498.0 Q 165.0 502.0 159.0 494.0 Q 158.0 494.0 156.0 492.0 Q 151.0 487.0 161.0 474.0 Q 220.0 375.0 228.0 133.0 Q 229.0 66.0 271.0 24.0 Q 279.0 18.0 284.0 18.0 Q 301.0 14.0 303.0 50.0 L 303.0 54.0 L 302.0 94.0 Q 297.0 115.0 291.0 138.0 L 279.0 238.0 L 276.0 273.0 Q 263.0 396.0 261.0 428.0 C 259.0 458.0 248.0 465.0 222.0 479.0 Z" fill="lightgray"></path>
      </clipPath>
      <path clip-path="url(#make-me-a-hanzi-clip-0)" d="M 161.0 487.0 L 176.0 481.0 L 203.0 456.0 L 226.0 413.0 L 247.0 282.0 L 262.0 113.0 L 287.0 31.0 " fill="none" id="make-me-a-hanzi-animation-0" stroke-dasharray="618 1236" stroke-linecap="round"></path>

      <clipPath id="make-me-a-hanzi-clip-1">
      <path d="M 457.0 494.0 Q 359.0 485.0 222.0 479.0 C 192.0 478.0 231.0 423.0 261.0 428.0 L 271.0 429.0 Q 335.0 441.0 457.0 457.0 L 510.0 466.0 Q 601.0 480.0 679.0 490.0 Q 707.0 492.0 726.0 485.0 Q 735.0 482.0 740.0 477.0 Q 751.0 467.0 751.0 440.0 L 751.0 436.0 Q 751.0 397.0 746.0 334.0 L 743.0 305.0 Q 733.0 224.0 714.0 143.0 Q 712.0 130.0 709.0 124.0 Q 702.0 110.0 683.0 120.0 L 663.0 133.0 Q 660.0 133.0 655.0 138.0 C 630.0 154.0 643.0 118.0 655.0 91.0 L 695.0 0.0 Q 704.0 -21.0 718.0 -21.0 Q 737.0 -17.0 750.0 13.0 Q 793.0 95.0 802.0 206.0 L 822.0 357.0 Q 825.0 383.0 834.0 406.0 Q 841.0 429.0 861.0 461.0 Q 873.0 480.0 870.0 488.0 Q 869.0 493.0 863.0 499.0 Q 841.0 524.0 779.0 553.0 Q 771.0 557.0 761.0 559.0 Q 746.0 562.0 701.0 549.0 Q 597.0 519.0 512.0 503.0 L 457.0 494.0 Z" fill="lightgray"></path>
      </clipPath>
      <path clip-path="url(#make-me-a-hanzi-clip-1)" d="M 231.0 478.0 L 273.0 455.0 L 445.0 473.0 L 701.0 520.0 L 755.0 518.0 L 782.0 500.0 L 801.0 479.0 L 802.0 463.0 L 747.0 112.0 L 720.0 70.0 L 680.0 94.0 L 656.0 130.0 " fill="none" id="make-me-a-hanzi-animation-1" stroke-dasharray="1235 2470" stroke-linecap="round"></path>

      <clipPath id="make-me-a-hanzi-clip-2">
      <path d="M 512.0 503.0 Q 514.0 589.0 524.0 653.0 L 537.0 722.0 Q 540.0 739.0 530.0 749.0 L 518.0 760.0 Q 499.0 769.0 489.0 774.0 Q 436.0 797.0 413.0 782.0 Q 407.0 775.0 408.0 765.0 L 414.0 753.0 Q 452.0 697.0 453.0 659.0 Q 457.0 573.0 457.0 494.0 L 457.0 457.0 L 457.0 332.0 Q 457.0 312.0 457.0 301.0 C 457.0 271.0 508.0 281.0 508.0 311.0 Q 508.0 390.0 510.0 466.0 L 512.0 503.0 Z" fill="lightgray"></path>
      </clipPath>
      <path clip-path="url(#make-me-a-hanzi-clip-2)" d="M 424.0 771.0 L 466.0 743.0 L 487.0 720.0 L 489.0 710.0 L 483.0 332.0 L 462.0 308.0 " fill="none" id="make-me-a-hanzi-animation-2" stroke-dasharray="630 1260" stroke-linecap="round"></path>

      <clipPath id="make-me-a-hanzi-clip-3">
      <path d="M 279.0 238.0 Q 293.0 234.0 301.0 234.0 L 316.0 237.0 Q 410.0 251.0 503.0 269.0 L 743.0 305.0 C 773.0 309.0 769.0 315.0 746.0 334.0 Q 726.0 367.0 565.0 326.0 L 526.0 316.0 L 512.0 312.0 Q 508.0 312.0 508.0 311.0 L 457.0 301.0 Q 446.0 296.0 325.0 280.0 L 276.0 273.0 C 246.0 269.0 250.0 245.0 279.0 238.0 Z" fill="lightgray"></path>
      </clipPath>
      <path clip-path="url(#make-me-a-hanzi-clip-3)" d="M 283.0 268.0 L 305.0 255.0 L 651.0 319.0 L 723.0 324.0 L 734.0 313.0 " fill="none" id="make-me-a-hanzi-animation-3" stroke-dasharray="593 1186" stroke-linecap="round"></path>

      <clipPath id="make-me-a-hanzi-clip-4">
      <path d="M 303.0 54.0 Q 303.0 55.0 305.0 55.0 Q 420.0 80.0 655.0 91.0 C 685.0 92.0 685.0 133.0 655.0 138.0 Q 644.0 145.0 515.0 130.0 Q 356.0 112.0 302.0 94.0 C 273.0 85.0 274.0 46.0 303.0 54.0 Z" fill="lightgray"></path>
      </clipPath>
      <path clip-path="url(#make-me-a-hanzi-clip-4)" d="M 309.0 62.0 L 322.0 79.0 L 365.0 88.0 L 531.0 110.0 L 629.0 115.0 L 650.0 130.0 " fill="none" id="make-me-a-hanzi-animation-4" stroke-dasharray="485 970" stroke-linecap="round"></path>

</g>
</svg>
