<svg version="1.1" viewBox="0 0 1024 1024" xmlns="http://www.w3.org/2000/svg">
  <g stroke="lightgray" stroke-dasharray="1,1" stroke-width="1" transform="scale(4, 4)">
    <line x1="0" y1="0" x2="256" y2="256"></line>
    <line x1="256" y1="0" x2="0" y2="256"></line>
    <line x1="128" y1="0" x2="128" y2="256"></line>
    <line x1="0" y1="128" x2="256" y2="128"></line>
  </g>
  <g transform="scale(0.92, -0.92) translate(60, -900)">
    <style type="text/css">
      
        @keyframes keyframes0 {
          from {
            stroke: blue;
            stroke-dashoffset: 919;
            stroke-width: 128;
          }
          75% {
            animation-timing-function: step-end;
            stroke: blue;
            stroke-dashoffset: 0;
            stroke-width: 128;
          }
          to {
            stroke: black;
            stroke-width: 1024;
          }
        }
        #make-me-a-hanzi-animation-0 {
          animation: keyframes0 0.9978841145833334s both;
          animation-delay: 0s;
          animation-timing-function: linear;
        }
      
        @keyframes keyframes1 {
          from {
            stroke: blue;
            stroke-dashoffset: 434;
            stroke-width: 128;
          }
          59% {
            animation-timing-function: step-end;
            stroke: blue;
            stroke-dashoffset: 0;
            stroke-width: 128;
          }
          to {
            stroke: black;
            stroke-width: 1024;
          }
        }
        #make-me-a-hanzi-animation-1 {
          animation: keyframes1 0.6031901041666666s both;
          animation-delay: 0.9978841145833334s;
          animation-timing-function: linear;
        }
      
        @keyframes keyframes2 {
          from {
            stroke: blue;
            stroke-dashoffset: 656;
            stroke-width: 128;
          }
          68% {
            animation-timing-function: step-end;
            stroke: blue;
            stroke-dashoffset: 0;
            stroke-width: 128;
          }
          to {
            stroke: black;
            stroke-width: 1024;
          }
        }
        #make-me-a-hanzi-animation-2 {
          animation: keyframes2 0.7838541666666666s both;
          animation-delay: 1.60107421875s;
          animation-timing-function: linear;
        }
      
        @keyframes keyframes3 {
          from {
            stroke: blue;
            stroke-dashoffset: 513;
            stroke-width: 128;
          }
          63% {
            animation-timing-function: step-end;
            stroke: blue;
            stroke-dashoffset: 0;
            stroke-width: 128;
          }
          to {
            stroke: black;
            stroke-width: 1024;
          }
        }
        #make-me-a-hanzi-animation-3 {
          animation: keyframes3 0.66748046875s both;
          animation-delay: 2.3849283854166665s;
          animation-timing-function: linear;
        }
      
        @keyframes keyframes4 {
          from {
            stroke: blue;
            stroke-dashoffset: 639;
            stroke-width: 128;
          }
          68% {
            animation-timing-function: step-end;
            stroke: blue;
            stroke-dashoffset: 0;
            stroke-width: 128;
          }
          to {
            stroke: black;
            stroke-width: 1024;
          }
        }
        #make-me-a-hanzi-animation-4 {
          animation: keyframes4 0.77001953125s both;
          animation-delay: 3.0524088541666665s;
          animation-timing-function: linear;
        }
      
        @keyframes keyframes5 {
          from {
            stroke: blue;
            stroke-dashoffset: 1185;
            stroke-width: 128;
          }
          79% {
            animation-timing-function: step-end;
            stroke: blue;
            stroke-dashoffset: 0;
            stroke-width: 128;
          }
          to {
            stroke: black;
            stroke-width: 1024;
          }
        }
        #make-me-a-hanzi-animation-5 {
          animation: keyframes5 1.21435546875s both;
          animation-delay: 3.8224283854166665s;
          animation-timing-function: linear;
        }
      
        @keyframes keyframes6 {
          from {
            stroke: blue;
            stroke-dashoffset: 556;
            stroke-width: 128;
          }
          64% {
            animation-timing-function: step-end;
            stroke: blue;
            stroke-dashoffset: 0;
            stroke-width: 128;
          }
          to {
            stroke: black;
            stroke-width: 1024;
          }
        }
        #make-me-a-hanzi-animation-6 {
          animation: keyframes6 0.7024739583333334s both;
          animation-delay: 5.036783854166666s;
          animation-timing-function: linear;
        }
      
        @keyframes keyframes7 {
          from {
            stroke: blue;
            stroke-dashoffset: 526;
            stroke-width: 128;
          }
          63% {
            animation-timing-function: step-end;
            stroke: blue;
            stroke-dashoffset: 0;
            stroke-width: 128;
          }
          to {
            stroke: black;
            stroke-width: 1024;
          }
        }
        #make-me-a-hanzi-animation-7 {
          animation: keyframes7 0.6780598958333334s both;
          animation-delay: 5.739257812499999s;
          animation-timing-function: linear;
        }
      
        @keyframes keyframes8 {
          from {
            stroke: blue;
            stroke-dashoffset: 622;
            stroke-width: 128;
          }
          67% {
            animation-timing-function: step-end;
            stroke: blue;
            stroke-dashoffset: 0;
            stroke-width: 128;
          }
          to {
            stroke: black;
            stroke-width: 1024;
          }
        }
        #make-me-a-hanzi-animation-8 {
          animation: keyframes8 0.7561848958333334s both;
          animation-delay: 6.417317708333332s;
          animation-timing-function: linear;
        }
      
    </style>
    
      <path d="M 188 644 Q 181 643 178 641 Q 175 639 176 635 Q 178 635 181 630 Q 212 600 254 611 Q 488 667 819 667 L 822 667 Q 841 667 847 674 Q 851 679 845 688 Q 839 697 822 705 Q 781 729 748 724 Q 682 712 188 644 Z" fill="lightgray"></path>
    
      <path d="M 358 513 Q 348 517 319 521 Q 309 524 305 519 Q 301 513 308 499 Q 335 445 349 387 Q 355 363 366 352 Q 383 335 387 347 Q 390 354 389 366 L 385 395 Q 373 461 370 485 C 367 510 367 510 358 513 Z" fill="lightgray"></path>
    
      <path d="M 638 417 Q 662 471 693 493 Q 708 509 696 525 Q 629 579 576 552 Q 502 524 358 513 C 328 511 341 479 370 485 Q 380 486 391 490 Q 550 503 585 518 Q 601 525 611 515 Q 620 503 592 423 C 582 395 625 390 638 417 Z" fill="lightgray"></path>
    
      <path d="M 389 366 Q 401 363 413 365 Q 503 381 648 386 Q 658 387 659 395 Q 659 402 638 417 L 592 423 Q 591 424 588 423 Q 543 407 385 395 C 355 393 359 371 389 366 Z" fill="lightgray"></path>
    
      <path d="M 269 254 Q 222 282 208 271 Q 204 268 206 260 L 207 258 Q 208 255 209 253 Q 251 187 265 -15 Q 266 -103 305 -103 Q 307 -103 309 -105 L 314 -105 Q 328 -105 328 -78 Q 328 -74 326 -70 L 322 -36 L 315 -9 Q 298 172 293 215 C 290 242 290 242 269 254 Z" fill="lightgray"></path>
    
      <path d="M 669 -41 Q 688 -87 704 -122 Q 712 -140 722 -140 Q 739 -139 750 -111 Q 783 -54 789 22 L 801 125 Q 811 179 835 244 Q 850 259 845 271 Q 839 289 771 324 Q 760 331 740 329 L 719 324 Q 583 290 269 254 C 239 251 264 208 293 215 Q 294 219 463 245 L 508 252 Q 508 253 688 276 Q 710 279 723 275 Q 746 269 746 238 Q 738 130 719 -6 Q 716 -22 709 -25 L 702 -25 Q 701 -25 700 -24 Q 698 -22 697 -22 C 670 -36 668 -38 669 -41 Z" fill="lightgray"></path>
    
      <path d="M 529 95 Q 597 98 651 105 Q 654 106 657 106 Q 671 110 668 118 L 666 123 Q 655 142 631 143 Q 625 144 599 144 Q 536 143 531 138 C 502 129 489 125 477 126 Q 433 130 359 101 Q 344 98 362 82 Q 368 79 385 79 Q 423 80 479 89 L 529 95 Z" fill="lightgray"></path>
    
      <path d="M 525 -9 Q 526 17 528 52 Q 529 86 529 95 L 531 138 L 531 148 L 534 220 Q 533 228 525 236 L 512 249 Q 510 252 508 252 C 485 272 452 273 463 245 Q 474 225 477 126 L 479 89 Q 479 62 481 -16 C 482 -46 524 -39 525 -9 Z" fill="lightgray"></path>
    
      <path d="M 326 -70 L 346 -70 Q 429 -53 669 -41 C 699 -39 713 -39 697 -22 Q 684 -7 672 0 Q 666 5 613 0 L 525 -9 L 481 -16 Q 368 -23 322 -36 C 293 -43 296 -70 326 -70 Z" fill="lightgray"></path>
    
    
      <clipPath id="make-me-a-hanzi-clip-0">
        <path d="M 188 644 Q 181 643 178 641 Q 175 639 176 635 Q 178 635 181 630 Q 212 600 254 611 Q 488 667 819 667 L 822 667 Q 841 667 847 674 Q 851 679 845 688 Q 839 697 822 705 Q 781 729 748 724 Q 682 712 188 644 Z"></path>
      </clipPath>
      <path clip-path="url(#make-me-a-hanzi-clip-0)" d="M 182 636 L 219 628 L 242 630 L 482 669 L 746 695 L 789 693 L 838 680" fill="none" id="make-me-a-hanzi-animation-0" stroke-dasharray="791 1582" stroke-linecap="round"></path>
    
      <clipPath id="make-me-a-hanzi-clip-1">
        <path d="M 358 513 Q 348 517 319 521 Q 309 524 305 519 Q 301 513 308 499 Q 335 445 349 387 Q 355 363 366 352 Q 383 335 387 347 Q 390 354 389 366 L 385 395 Q 373 461 370 485 C 367 510 367 510 358 513 Z"></path>
      </clipPath>
      <path clip-path="url(#make-me-a-hanzi-clip-1)" d="M 313 514 L 338 494 L 344 482 L 377 354" fill="none" id="make-me-a-hanzi-animation-1" stroke-dasharray="306 612" stroke-linecap="round"></path>
    
      <clipPath id="make-me-a-hanzi-clip-2">
        <path d="M 638 417 Q 662 471 693 493 Q 708 509 696 525 Q 629 579 576 552 Q 502 524 358 513 C 328 511 341 479 370 485 Q 380 486 391 490 Q 550 503 585 518 Q 601 525 611 515 Q 620 503 592 423 C 582 395 625 390 638 417 Z"></path>
      </clipPath>
      <path clip-path="url(#make-me-a-hanzi-clip-2)" d="M 368 509 L 382 501 L 402 501 L 408 506 L 517 518 L 600 541 L 622 537 L 652 509 L 624 443 L 601 434" fill="none" id="make-me-a-hanzi-animation-2" stroke-dasharray="528 1056" stroke-linecap="round"></path>
    
      <clipPath id="make-me-a-hanzi-clip-3">
        <path d="M 389 366 Q 401 363 413 365 Q 503 381 648 386 Q 658 387 659 395 Q 659 402 638 417 L 592 423 Q 591 424 588 423 Q 543 407 385 395 C 355 393 359 371 389 366 Z"></path>
      </clipPath>
      <path clip-path="url(#make-me-a-hanzi-clip-3)" d="M 396 374 L 421 384 L 590 403 L 628 403 L 649 395" fill="none" id="make-me-a-hanzi-animation-3" stroke-dasharray="385 770" stroke-linecap="round"></path>
    
      <clipPath id="make-me-a-hanzi-clip-4">
        <path d="M 269 254 Q 222 282 208 271 Q 204 268 206 260 L 207 258 Q 208 255 209 253 Q 251 187 265 -15 Q 266 -103 305 -103 Q 307 -103 309 -105 L 314 -105 Q 328 -105 328 -78 Q 328 -74 326 -70 L 322 -36 L 315 -9 Q 298 172 293 215 C 290 242 290 242 269 254 Z"></path>
      </clipPath>
      <path clip-path="url(#make-me-a-hanzi-clip-4)" d="M 215 264 L 247 239 L 263 206 L 294 -45 L 312 -95" fill="none" id="make-me-a-hanzi-animation-4" stroke-dasharray="511 1022" stroke-linecap="round"></path>
    
      <clipPath id="make-me-a-hanzi-clip-5">
        <path d="M 669 -41 Q 688 -87 704 -122 Q 712 -140 722 -140 Q 739 -139 750 -111 Q 783 -54 789 22 L 801 125 Q 811 179 835 244 Q 850 259 845 271 Q 839 289 771 324 Q 760 331 740 329 L 719 324 Q 583 290 269 254 C 239 251 264 208 293 215 Q 294 219 463 245 L 508 252 Q 508 253 688 276 Q 710 279 723 275 Q 746 269 746 238 Q 738 130 719 -6 Q 716 -22 709 -25 L 702 -25 Q 701 -25 700 -24 Q 698 -22 697 -22 C 670 -36 668 -38 669 -41 Z"></path>
      </clipPath>
      <path clip-path="url(#make-me-a-hanzi-clip-5)" d="M 280 252 L 292 241 L 319 240 L 709 299 L 748 298 L 765 288 L 781 273 L 790 251 L 768 127 L 752 -13 L 743 -40 L 725 -65 L 723 -126" fill="none" id="make-me-a-hanzi-animation-5" stroke-dasharray="1057 2114" stroke-linecap="round"></path>
    
      <clipPath id="make-me-a-hanzi-clip-6">
        <path d="M 529 95 Q 597 98 651 105 Q 654 106 657 106 Q 671 110 668 118 L 666 123 Q 655 142 631 143 Q 625 144 599 144 Q 536 143 531 138 C 502 129 489 125 477 126 Q 433 130 359 101 Q 344 98 362 82 Q 368 79 385 79 Q 423 80 479 89 L 529 95 Z"></path>
      </clipPath>
      <path clip-path="url(#make-me-a-hanzi-clip-6)" d="M 361 92 L 588 122 L 635 123 L 658 116" fill="none" id="make-me-a-hanzi-animation-6" stroke-dasharray="428 856" stroke-linecap="round"></path>
    
      <clipPath id="make-me-a-hanzi-clip-7">
        <path d="M 525 -9 Q 526 17 528 52 Q 529 86 529 95 L 531 138 L 531 148 L 534 220 Q 533 228 525 236 L 512 249 Q 510 252 508 252 C 485 272 452 273 463 245 Q 474 225 477 126 L 479 89 Q 479 62 481 -16 C 482 -46 524 -39 525 -9 Z"></path>
      </clipPath>
      <path clip-path="url(#make-me-a-hanzi-clip-7)" d="M 471 245 L 503 213 L 503 11 L 487 -5" fill="none" id="make-me-a-hanzi-animation-7" stroke-dasharray="398 796" stroke-linecap="round"></path>
    
      <clipPath id="make-me-a-hanzi-clip-8">
        <path d="M 326 -70 L 346 -70 Q 429 -53 669 -41 C 699 -39 713 -39 697 -22 Q 684 -7 672 0 Q 666 5 613 0 L 525 -9 L 481 -16 Q 368 -23 322 -36 C 293 -43 296 -70 326 -70 Z"></path>
      </clipPath>
      <path clip-path="url(#make-me-a-hanzi-clip-8)" d="M 328 -41 L 342 -51 L 564 -25 L 689 -21" fill="none" id="make-me-a-hanzi-animation-8" stroke-dasharray="494 988" stroke-linecap="round"></path>
    
  </g>
</svg>