<svg version="1.1" viewBox="0 0 1024 1024" xmlns="http://www.w3.org/2000/svg">
  <g stroke="lightgray" stroke-dasharray="1,1" stroke-width="1" transform="scale(4, 4)">
    <line x1="0" y1="0" x2="256" y2="256"></line>
    <line x1="256" y1="0" x2="0" y2="256"></line>
    <line x1="128" y1="0" x2="128" y2="256"></line>
    <line x1="0" y1="128" x2="256" y2="128"></line>
  </g>
  <g transform="scale(0.92, -0.92) translate(60, -900)">
    <style type="text/css">
      
        @keyframes keyframes0 {
          from {
            stroke: blue;
            stroke-dashoffset: 391;
            stroke-width: 128;
          }
          56% {
            animation-timing-function: step-end;
            stroke: blue;
            stroke-dashoffset: 0;
            stroke-width: 128;
          }
          to {
            stroke: black;
            stroke-width: 1024;
          }
        }
        #make-me-a-hanzi-animation-0 {
          animation: keyframes0 0.5681966145833334s both;
          animation-delay: 0s;
          animation-timing-function: linear;
        }
      
        @keyframes keyframes1 {
          from {
            stroke: blue;
            stroke-dashoffset: 840;
            stroke-width: 128;
          }
          73% {
            animation-timing-function: step-end;
            stroke: blue;
            stroke-dashoffset: 0;
            stroke-width: 128;
          }
          to {
            stroke: black;
            stroke-width: 1024;
          }
        }
        #make-me-a-hanzi-animation-1 {
          animation: keyframes1 0.93359375s both;
          animation-delay: 0.5681966145833334s;
          animation-timing-function: linear;
        }
      
        @keyframes keyframes2 {
          from {
            stroke: blue;
            stroke-dashoffset: 956;
            stroke-width: 128;
          }
          76% {
            animation-timing-function: step-end;
            stroke: blue;
            stroke-dashoffset: 0;
            stroke-width: 128;
          }
          to {
            stroke: black;
            stroke-width: 1024;
          }
        }
        #make-me-a-hanzi-animation-2 {
          animation: keyframes2 1.0279947916666667s both;
          animation-delay: 1.5017903645833335s;
          animation-timing-function: linear;
        }
      
        @keyframes keyframes3 {
          from {
            stroke: blue;
            stroke-dashoffset: 398;
            stroke-width: 128;
          }
          56% {
            animation-timing-function: step-end;
            stroke: blue;
            stroke-dashoffset: 0;
            stroke-width: 128;
          }
          to {
            stroke: black;
            stroke-width: 1024;
          }
        }
        #make-me-a-hanzi-animation-3 {
          animation: keyframes3 0.5738932291666666s both;
          animation-delay: 2.52978515625s;
          animation-timing-function: linear;
        }
      
        @keyframes keyframes4 {
          from {
            stroke: blue;
            stroke-dashoffset: 532;
            stroke-width: 128;
          }
          63% {
            animation-timing-function: step-end;
            stroke: blue;
            stroke-dashoffset: 0;
            stroke-width: 128;
          }
          to {
            stroke: black;
            stroke-width: 1024;
          }
        }
        #make-me-a-hanzi-animation-4 {
          animation: keyframes4 0.6829427083333334s both;
          animation-delay: 3.1036783854166665s;
          animation-timing-function: linear;
        }
      
        @keyframes keyframes5 {
          from {
            stroke: blue;
            stroke-dashoffset: 632;
            stroke-width: 128;
          }
          67% {
            animation-timing-function: step-end;
            stroke: blue;
            stroke-dashoffset: 0;
            stroke-width: 128;
          }
          to {
            stroke: black;
            stroke-width: 1024;
          }
        }
        #make-me-a-hanzi-animation-5 {
          animation: keyframes5 0.7643229166666666s both;
          animation-delay: 3.78662109375s;
          animation-timing-function: linear;
        }
      
        @keyframes keyframes6 {
          from {
            stroke: blue;
            stroke-dashoffset: 1077;
            stroke-width: 128;
          }
          78% {
            animation-timing-function: step-end;
            stroke: blue;
            stroke-dashoffset: 0;
            stroke-width: 128;
          }
          to {
            stroke: black;
            stroke-width: 1024;
          }
        }
        #make-me-a-hanzi-animation-6 {
          animation: keyframes6 1.12646484375s both;
          animation-delay: 4.550944010416667s;
          animation-timing-function: linear;
        }
      
        @keyframes keyframes7 {
          from {
            stroke: blue;
            stroke-dashoffset: 693;
            stroke-width: 128;
          }
          69% {
            animation-timing-function: step-end;
            stroke: blue;
            stroke-dashoffset: 0;
            stroke-width: 128;
          }
          to {
            stroke: black;
            stroke-width: 1024;
          }
        }
        #make-me-a-hanzi-animation-7 {
          animation: keyframes7 0.81396484375s both;
          animation-delay: 5.677408854166667s;
          animation-timing-function: linear;
        }
      
    </style>
    
      <path d="M 657 594 L 663 614 Q 666 620 665 638 Q 663 656 657 665 Q 651 677 637 684 Q 623 693 607 698 Q 549 719 549 700 Q 549 695 557 683 Q 564 670 569 660 Q 574 650 588 629 L 615 587 C 631 562 648 565 657 594 Z" fill="lightgray"></path>
    
      <path d="M 387 516 L 677 552 Q 739 560 768 561 L 820 564 Q 858 567 861 574 Q 864 581 862 587 Q 858 593 848 598 L 829 608 Q 818 614 803 618 Q 788 622 782.5 621.5 Q 777 621 758 615 Q 739 609 721 606 L 688 600 L 671 596 Q 661 596 657 594 L 615 587 L 588 583 L 273 541 Q 267 540 265 535 Q 263 530 269.5 524 Q 276 518 288 513 Q 295 512 311 510 L 387 516 Z" fill="lightgray"></path>
    
      <path d="M 405 489 L 405 491 Q 402 497 402 500 Q 396 511 387 516 C 366 538 301 538 311 510 L 315 499 Q 324 481 324 438 Q 324 394 301 267 L 296 242 Q 271 134 219 48 Q 184 -16 169 -32 Q 148 -59 127 -83 L 113 -98 Q 106 -106 110 -112 Q 113 -118 121 -112 L 139 -99 Q 168 -79 202 -46 Q 235 -12 258 19 Q 280 49 310 122 Q 340 194 348 232 Q 355 270 361 298 Q 366 326 368 336 Q 369 346 370 354 Q 371 362 373 372 Q 374 382 376 388 Q 377 393 378 397 Q 378 401 379 404 Q 380 406 384 422 Q 387 438 388 449 Q 388 460 396 475 Q 404 489 405 489 Z" fill="lightgray"></path>
    
      <path d="M 159 454 Q 149 457 144 454 Q 139 451 138.5 448.5 Q 138 446 143 436 L 177 378 Q 182 371 191.5 355.5 Q 201 340 213.5 326.5 Q 226 313 239 314.5 Q 252 316 259.5 330 Q 267 344 265.5 364 Q 264 384 256 396 Q 240 424 200 439 Q 178 447 177 447 L 159 454 Z" fill="lightgray"></path>
    
      <path d="M 301 267 L 217 228 Q 194 214 168 206 L 137 193 Q 129 188 107 184 L 83 179 Q 67 176 59 176 Q 41 178 52 154 Q 55 141 97 112 Q 122 98 130 105 L 131 107 L 140 116 L 158 132 L 296 242 C 319 261 328 280 301 267 Z" fill="lightgray"></path>
    
      <path d="M 544 474 L 544 449 Q 538 390 463 274 Q 429 227 397 195 L 385 180 Q 380 176 381 170 Q 383 166 395 172 L 415 181 Q 429 187 461 214 Q 493 241 506.5 257.5 Q 520 274 551 322 L 569 351 L 582 376 L 610 422 Q 630 451 591 475 L 567 487 Q 558 490 553 490 Q 544 486 544 474 Z" fill="lightgray"></path>
    
      <path d="M 551 322 L 571 323 Q 591 323 636 332 L 654 336 Q 664 337 677 342 Q 690 346 699 344 Q 707 342 708 335 Q 710 329 702 312 L 689 286 Q 688 285 684 278 L 637 199 Q 611 159 584 125 Q 547 82 523 57 Q 499 32 454 -7 Q 409 -45 395 -54 L 351 -86 L 334 -96 Q 330 -100 331 -106 Q 333 -113 339 -111 L 352 -105 Q 382 -97 400 -86 Q 507 -30 575 41 Q 602 69 649 126 L 666 148 L 699 202 L 737 258 Q 752 280 762 296 L 777 310 Q 789 322 794 325 Q 803 334 804 340 Q 804 354 781 369 Q 757 383 747 386 Q 731 388 720 387 Q 709 386 649 366 L 617 359 L 569 351 C 539 346 521 321 551 322 Z" fill="lightgray"></path>
    
      <path d="M 649 126 L 659 112 Q 662 107 691 70 L 755 -10 Q 798 -64 820 -83 Q 841 -101 859 -108 Q 876 -114 884 -114 Q 892 -114 912 -110 L 997 -93 L 1014 -88 Q 1024 -87 1024 -80 Q 1024 -76 1012 -70 L 922 -35 Q 895 -23 850 0 L 804 30 L 758 65 Q 723 90 706 108 L 666 148 C 645 169 632 150 649 126 Z" fill="lightgray"></path>
    
    
      <clipPath id="make-me-a-hanzi-clip-0">
        <path d="M 657 594 L 663 614 Q 666 620 665 638 Q 663 656 657 665 Q 651 677 637 684 Q 623 693 607 698 Q 549 719 549 700 Q 549 695 557 683 Q 564 670 569 660 Q 574 650 588 629 L 615 587 C 631 562 648 565 657 594 Z"></path>
      </clipPath>
      <path clip-path="url(#make-me-a-hanzi-clip-0)" d="M 559 699 L 621 649 L 631 622 L 620 598" fill="none" id="make-me-a-hanzi-animation-0" stroke-dasharray="263 526" stroke-linecap="round"></path>
    
      <clipPath id="make-me-a-hanzi-clip-1">
        <path d="M 387 516 L 677 552 Q 739 560 768 561 L 820 564 Q 858 567 861 574 Q 864 581 862 587 Q 858 593 848 598 L 829 608 Q 818 614 803 618 Q 788 622 782.5 621.5 Q 777 621 758 615 Q 739 609 721 606 L 688 600 L 671 596 Q 661 596 657 594 L 615 587 L 588 583 L 273 541 Q 267 540 265 535 Q 263 530 269.5 524 Q 276 518 288 513 Q 295 512 311 510 L 387 516 Z"></path>
      </clipPath>
      <path clip-path="url(#make-me-a-hanzi-clip-1)" d="M 273 532 L 306 527 L 407 538 L 784 592 L 851 581" fill="none" id="make-me-a-hanzi-animation-1" stroke-dasharray="712 1424" stroke-linecap="round"></path>
    
      <clipPath id="make-me-a-hanzi-clip-2">
        <path d="M 405 489 L 405 491 Q 402 497 402 500 Q 396 511 387 516 C 366 538 301 538 311 510 L 315 499 Q 324 481 324 438 Q 324 394 301 267 L 296 242 Q 271 134 219 48 Q 184 -16 169 -32 Q 148 -59 127 -83 L 113 -98 Q 106 -106 110 -112 Q 113 -118 121 -112 L 139 -99 Q 168 -79 202 -46 Q 235 -12 258 19 Q 280 49 310 122 Q 340 194 348 232 Q 355 270 361 298 Q 366 326 368 336 Q 369 346 370 354 Q 371 362 373 372 Q 374 382 376 388 Q 377 393 378 397 Q 378 401 379 404 Q 380 406 384 422 Q 387 438 388 449 Q 388 460 396 475 Q 404 489 405 489 Z"></path>
      </clipPath>
      <path clip-path="url(#make-me-a-hanzi-clip-2)" d="M 319 507 L 358 477 L 339 326 L 319 223 L 298 156 L 264 77 L 228 17 L 175 -51 L 115 -106" fill="none" id="make-me-a-hanzi-animation-2" stroke-dasharray="828 1656" stroke-linecap="round"></path>
    
      <clipPath id="make-me-a-hanzi-clip-3">
        <path d="M 159 454 Q 149 457 144 454 Q 139 451 138.5 448.5 Q 138 446 143 436 L 177 378 Q 182 371 191.5 355.5 Q 201 340 213.5 326.5 Q 226 313 239 314.5 Q 252 316 259.5 330 Q 267 344 265.5 364 Q 264 384 256 396 Q 240 424 200 439 Q 178 447 177 447 L 159 454 Z"></path>
      </clipPath>
      <path clip-path="url(#make-me-a-hanzi-clip-3)" d="M 148 445 L 217 386 L 236 338" fill="none" id="make-me-a-hanzi-animation-3" stroke-dasharray="270 540" stroke-linecap="round"></path>
    
      <clipPath id="make-me-a-hanzi-clip-4">
        <path d="M 301 267 L 217 228 Q 194 214 168 206 L 137 193 Q 129 188 107 184 L 83 179 Q 67 176 59 176 Q 41 178 52 154 Q 55 141 97 112 Q 122 98 130 105 L 131 107 L 140 116 L 158 132 L 296 242 C 319 261 328 280 301 267 Z"></path>
      </clipPath>
      <path clip-path="url(#make-me-a-hanzi-clip-4)" d="M 58 164 L 116 146 L 271 238 L 289 250 L 295 262" fill="none" id="make-me-a-hanzi-animation-4" stroke-dasharray="404 808" stroke-linecap="round"></path>
    
      <clipPath id="make-me-a-hanzi-clip-5">
        <path d="M 544 474 L 544 449 Q 538 390 463 274 Q 429 227 397 195 L 385 180 Q 380 176 381 170 Q 383 166 395 172 L 415 181 Q 429 187 461 214 Q 493 241 506.5 257.5 Q 520 274 551 322 L 569 351 L 582 376 L 610 422 Q 630 451 591 475 L 567 487 Q 558 490 553 490 Q 544 486 544 474 Z"></path>
      </clipPath>
      <path clip-path="url(#make-me-a-hanzi-clip-5)" d="M 558 478 L 579 439 L 525 326 L 479 258 L 388 173" fill="none" id="make-me-a-hanzi-animation-5" stroke-dasharray="504 1008" stroke-linecap="round"></path>
    
      <clipPath id="make-me-a-hanzi-clip-6">
        <path d="M 551 322 L 571 323 Q 591 323 636 332 L 654 336 Q 664 337 677 342 Q 690 346 699 344 Q 707 342 708 335 Q 710 329 702 312 L 689 286 Q 688 285 684 278 L 637 199 Q 611 159 584 125 Q 547 82 523 57 Q 499 32 454 -7 Q 409 -45 395 -54 L 351 -86 L 334 -96 Q 330 -100 331 -106 Q 333 -113 339 -111 L 352 -105 Q 382 -97 400 -86 Q 507 -30 575 41 Q 602 69 649 126 L 666 148 L 699 202 L 737 258 Q 752 280 762 296 L 777 310 Q 789 322 794 325 Q 803 334 804 340 Q 804 354 781 369 Q 757 383 747 386 Q 731 388 720 387 Q 709 386 649 366 L 617 359 L 569 351 C 539 346 521 321 551 322 Z"></path>
      </clipPath>
      <path clip-path="url(#make-me-a-hanzi-clip-6)" d="M 556 326 L 578 338 L 701 364 L 727 358 L 749 340 L 642 158 L 561 61 L 467 -23 L 415 -61 L 339 -103" fill="none" id="make-me-a-hanzi-animation-6" stroke-dasharray="949 1898" stroke-linecap="round"></path>
    
      <clipPath id="make-me-a-hanzi-clip-7">
        <path d="M 649 126 L 659 112 Q 662 107 691 70 L 755 -10 Q 798 -64 820 -83 Q 841 -101 859 -108 Q 876 -114 884 -114 Q 892 -114 912 -110 L 997 -93 L 1014 -88 Q 1024 -87 1024 -80 Q 1024 -76 1012 -70 L 922 -35 Q 895 -23 850 0 L 804 30 L 758 65 Q 723 90 706 108 L 666 148 C 645 169 632 150 649 126 Z"></path>
      </clipPath>
      <path clip-path="url(#make-me-a-hanzi-clip-7)" d="M 667 139 L 667 126 L 710 76 L 854 -53 L 888 -69 L 1015 -79" fill="none" id="make-me-a-hanzi-animation-7" stroke-dasharray="565 1130" stroke-linecap="round"></path>
    
  </g>
</svg>