<svg version="1.1" viewBox="0 0 1024 1024" xmlns="http://www.w3.org/2000/svg">
  <g stroke="lightgray" stroke-dasharray="1,1" stroke-width="1" transform="scale(4, 4)">
    <line x1="0" y1="0" x2="256" y2="256"></line>
    <line x1="256" y1="0" x2="0" y2="256"></line>
    <line x1="128" y1="0" x2="128" y2="256"></line>
    <line x1="0" y1="128" x2="256" y2="128"></line>
  </g>
  <g transform="scale(0.92, -0.92) translate(60, -850)">
    <style type="text/css">
      
        @keyframes keyframes0 {
          from {
            stroke: blue;
            stroke-dashoffset: 414;
            stroke-width: 128;
          }
          57% {
            animation-timing-function: step-end;
            stroke: blue;
            stroke-dashoffset: 0;
            stroke-width: 128;
          }
          to {
            stroke: black;
            stroke-width: 1024;
          }
        }
        #make-me-a-hanzi-animation-0 {
          animation: keyframes0 0.5869140625s both;
          animation-delay: 0s;
          animation-timing-function: linear;
        }
      
        @keyframes keyframes1 {
          from {
            stroke: blue;
            stroke-dashoffset: 515;
            stroke-width: 128;
          }
          63% {
            animation-timing-function: step-end;
            stroke: blue;
            stroke-dashoffset: 0;
            stroke-width: 128;
          }
          to {
            stroke: black;
            stroke-width: 1024;
          }
        }
        #make-me-a-hanzi-animation-1 {
          animation: keyframes1 0.6691080729166666s both;
          animation-delay: 0.5869140625s;
          animation-timing-function: linear;
        }
      
        @keyframes keyframes2 {
          from {
            stroke: blue;
            stroke-dashoffset: 793;
            stroke-width: 128;
          }
          72% {
            animation-timing-function: step-end;
            stroke: blue;
            stroke-dashoffset: 0;
            stroke-width: 128;
          }
          to {
            stroke: black;
            stroke-width: 1024;
          }
        }
        #make-me-a-hanzi-animation-2 {
          animation: keyframes2 0.8953450520833334s both;
          animation-delay: 1.2560221354166665s;
          animation-timing-function: linear;
        }
      
        @keyframes keyframes3 {
          from {
            stroke: blue;
            stroke-dashoffset: 607;
            stroke-width: 128;
          }
          66% {
            animation-timing-function: step-end;
            stroke: blue;
            stroke-dashoffset: 0;
            stroke-width: 128;
          }
          to {
            stroke: black;
            stroke-width: 1024;
          }
        }
        #make-me-a-hanzi-animation-3 {
          animation: keyframes3 0.7439778645833334s both;
          animation-delay: 2.1513671875s;
          animation-timing-function: linear;
        }
      
        @keyframes keyframes4 {
          from {
            stroke: blue;
            stroke-dashoffset: 530;
            stroke-width: 128;
          }
          63% {
            animation-timing-function: step-end;
            stroke: blue;
            stroke-dashoffset: 0;
            stroke-width: 128;
          }
          to {
            stroke: black;
            stroke-width: 1024;
          }
        }
        #make-me-a-hanzi-animation-4 {
          animation: keyframes4 0.6813151041666666s both;
          animation-delay: 2.8953450520833335s;
          animation-timing-function: linear;
        }
      
        @keyframes keyframes5 {
          from {
            stroke: blue;
            stroke-dashoffset: 493;
            stroke-width: 128;
          }
          62% {
            animation-timing-function: step-end;
            stroke: blue;
            stroke-dashoffset: 0;
            stroke-width: 128;
          }
          to {
            stroke: black;
            stroke-width: 1024;
          }
        }
        #make-me-a-hanzi-animation-5 {
          animation: keyframes5 0.6512044270833334s both;
          animation-delay: 3.57666015625s;
          animation-timing-function: linear;
        }
      
        @keyframes keyframes6 {
          from {
            stroke: blue;
            stroke-dashoffset: 905;
            stroke-width: 128;
          }
          75% {
            animation-timing-function: step-end;
            stroke: blue;
            stroke-dashoffset: 0;
            stroke-width: 128;
          }
          to {
            stroke: black;
            stroke-width: 1024;
          }
        }
        #make-me-a-hanzi-animation-6 {
          animation: keyframes6 0.9864908854166666s both;
          animation-delay: 4.227864583333333s;
          animation-timing-function: linear;
        }
      
        @keyframes keyframes7 {
          from {
            stroke: blue;
            stroke-dashoffset: 441;
            stroke-width: 128;
          }
          59% {
            animation-timing-function: step-end;
            stroke: blue;
            stroke-dashoffset: 0;
            stroke-width: 128;
          }
          to {
            stroke: black;
            stroke-width: 1024;
          }
        }
        #make-me-a-hanzi-animation-7 {
          animation: keyframes7 0.60888671875s both;
          animation-delay: 5.21435546875s;
          animation-timing-function: linear;
        }
      
        @keyframes keyframes8 {
          from {
            stroke: blue;
            stroke-dashoffset: 459;
            stroke-width: 128;
          }
          60% {
            animation-timing-function: step-end;
            stroke: blue;
            stroke-dashoffset: 0;
            stroke-width: 128;
          }
          to {
            stroke: black;
            stroke-width: 1024;
          }
        }
        #make-me-a-hanzi-animation-8 {
          animation: keyframes8 0.62353515625s both;
          animation-delay: 5.8232421875s;
          animation-timing-function: linear;
        }
      
        @keyframes keyframes9 {
          from {
            stroke: blue;
            stroke-dashoffset: 1075;
            stroke-width: 128;
          }
          78% {
            animation-timing-function: step-end;
            stroke: blue;
            stroke-dashoffset: 0;
            stroke-width: 128;
          }
          to {
            stroke: black;
            stroke-width: 1024;
          }
        }
        #make-me-a-hanzi-animation-9 {
          animation: keyframes9 1.1248372395833333s both;
          animation-delay: 6.44677734375s;
          animation-timing-function: linear;
        }
      
    </style>
    
      <path d="M 297 636 L 317 605 Q 327 585 338 571 L 366 538 Q 387 513 409 517 Q 417 518 424 531 Q 432 543 428 566 Q 425 588 416 600 Q 408 611 388 624 Q 368 637 346 644 L 308 654 Q 293 656 291 653 Q 290 649 297 636 Z" fill="lightgray"></path>
    
      <path d="M 607 607 L 535 530 Q 523 518 527 517 Q 531 516 540 518 L 558 526 Q 567 529 593 549 Q 620 568 640 580 L 716 628 Q 726 635 737 640 Q 748 644 750 649 Q 754 662 721 685 L 691 703 Q 681 710 670 713 Q 660 716 655 714 L 652 708 L 650 694 Q 649 673 628 641 L 607 607 Z" fill="lightgray"></path>
    
      <path d="M 365 466 L 250 456 Q 234 455 231 450 Q 229 445 232 437 Q 235 430 249 426 Q 284 413 347 420 L 528 437 L 550 438 Q 603 448 695 460 L 749 472 Q 778 475 781 491 Q 782 497 765 507 Q 729 524 719 524 Q 710 524 682 517 Q 655 510 620 504 L 549 492 Q 536 490 515 488 L 365 466 Z" fill="lightgray"></path>
    
      <path d="M 176 188 L 207 196 L 256 213 Q 267 216 293 231 L 342 258 Q 365 269 395 292 L 431 320 Q 438 326 452 331 Q 467 336 468 341 Q 470 346 463 358 Q 456 370 435 383 Q 382 422 378 385 Q 376 374 370 360 Q 364 346 333 316 Q 303 286 241 244 L 200 218 L 172 203 Q 156 192 158 187 Q 160 182 176 188 Z" fill="lightgray"></path>
    
      <path d="M 609 356 L 741 272 Q 787 238 810 247 Q 823 250 823 269 Q 823 288 812 305 Q 786 340 753 354 Q 742 360 689 374 L 628 390 Q 612 394 590 398 L 570 400 Q 560 401 557 396 Q 555 390 568 382 Q 582 374 591 368 Q 601 361 609 356 Z" fill="lightgray"></path>
    
      <path d="M 295 170 L 281 173 L 258 175 Q 240 175 238 168 Q 236 161 243 157 L 256 146 Q 266 137 271 126 Q 276 115 281 92 L 304 -44 C 309 -74 347 -68 346 -38 L 345 0 L 332 100 Q 328 121 330 125 Q 332 128 332 139 C 333 162 324 164 295 170 Z" fill="lightgray"></path>
    
      <path d="M 718 -14 L 749 74 Q 759 110 763 113 L 772 124 L 792 154 L 794 167 Q 793 173 779 187 Q 765 201 742 213 Q 720 224 714 224 Q 709 224 679 217 Q 649 210 545 201 L 512 198 L 295 170 C 265 166 302 134 332 139 L 378 147 Q 387 148 407 154 L 451 158 L 479 163 L 514 166 Q 527 166 544 170 L 588 173 L 659 176 Q 678 179 693 170 Q 697 166 697 163 Q 698 159 693 125 L 665 -18 C 659 -47 708 -42 718 -14 Z" fill="lightgray"></path>
    
      <path d="M 421 78 L 439 -32 C 444 -62 468 -58 468 -28 L 467 74 L 468 117 Q 469 146 465 151 Q 462 155 451 158 C 423 167 407 172 407 154 L 407 139 L 421 78 Z" fill="lightgray"></path>
    
      <path d="M 544 170 L 550 158 Q 552 148 550 142 Q 549 135 549 126 L 549 110 L 539 -25 C 537 -55 550 -54 559 -25 L 610 142 Q 611 144 609 154 L 588 173 C 566 193 531 197 544 170 Z" fill="lightgray"></path>
    
      <path d="M 313 -82 L 397 -75 Q 447 -70 483 -69 L 517 -67 Q 551 -67 565 -65 L 615 -63 Q 664 -64 684 -62 L 766 -63 Q 817 -65 855 -62 L 902 -60 Q 925 -58 926 -50 Q 928 -43 924 -38 Q 920 -27 890 -13 Q 860 0 839 0 L 809 -2 Q 788 -4 766 -8 L 718 -14 L 665 -18 L 559 -25 L 539 -25 L 468 -28 L 439 -32 L 346 -38 L 304 -44 L 195 -50 L 109 -52 Q 95 -54 93 -60 Q 92 -66 97 -71 Q 102 -76 126 -90 L 154 -102 L 182 -104 Q 188 -105 208 -100 L 249 -92 Q 260 -90 313 -82 Z" fill="lightgray"></path>
    
    
      <clipPath id="make-me-a-hanzi-clip-0">
        <path d="M 297 636 L 317 605 Q 327 585 338 571 L 366 538 Q 387 513 409 517 Q 417 518 424 531 Q 432 543 428 566 Q 425 588 416 600 Q 408 611 388 624 Q 368 637 346 644 L 308 654 Q 293 656 291 653 Q 290 649 297 636 Z"></path>
      </clipPath>
      <path clip-path="url(#make-me-a-hanzi-clip-0)" d="M 295 650 L 380 582 L 403 539" fill="none" id="make-me-a-hanzi-animation-0" stroke-dasharray="286 572" stroke-linecap="round"></path>
    
      <clipPath id="make-me-a-hanzi-clip-1">
        <path d="M 607 607 L 535 530 Q 523 518 527 517 Q 531 516 540 518 L 558 526 Q 567 529 593 549 Q 620 568 640 580 L 716 628 Q 726 635 737 640 Q 748 644 750 649 Q 754 662 721 685 L 691 703 Q 681 710 670 713 Q 660 716 655 714 L 652 708 L 650 694 Q 649 673 628 641 L 607 607 Z"></path>
      </clipPath>
      <path clip-path="url(#make-me-a-hanzi-clip-1)" d="M 662 707 L 685 658 L 624 594 L 566 543 L 533 522" fill="none" id="make-me-a-hanzi-animation-1" stroke-dasharray="387 774" stroke-linecap="round"></path>
    
      <clipPath id="make-me-a-hanzi-clip-2">
        <path d="M 365 466 L 250 456 Q 234 455 231 450 Q 229 445 232 437 Q 235 430 249 426 Q 284 413 347 420 L 528 437 L 550 438 Q 603 448 695 460 L 749 472 Q 778 475 781 491 Q 782 497 765 507 Q 729 524 719 524 Q 710 524 682 517 Q 655 510 620 504 L 549 492 Q 536 490 515 488 L 365 466 Z"></path>
      </clipPath>
      <path clip-path="url(#make-me-a-hanzi-clip-2)" d="M 239 444 L 280 438 L 336 440 L 543 464 L 718 495 L 771 490" fill="none" id="make-me-a-hanzi-animation-2" stroke-dasharray="665 1330" stroke-linecap="round"></path>
    
      <clipPath id="make-me-a-hanzi-clip-3">
        <path d="M 176 188 L 207 196 L 256 213 Q 267 216 293 231 L 342 258 Q 365 269 395 292 L 431 320 Q 438 326 452 331 Q 467 336 468 341 Q 470 346 463 358 Q 456 370 435 383 Q 382 422 378 385 Q 376 374 370 360 Q 364 346 333 316 Q 303 286 241 244 L 200 218 L 172 203 Q 156 192 158 187 Q 160 182 176 188 Z"></path>
      </clipPath>
      <path clip-path="url(#make-me-a-hanzi-clip-3)" d="M 460 344 L 409 353 L 382 321 L 324 275 L 254 231 L 162 189" fill="none" id="make-me-a-hanzi-animation-3" stroke-dasharray="479 958" stroke-linecap="round"></path>
    
      <clipPath id="make-me-a-hanzi-clip-4">
        <path d="M 609 356 L 741 272 Q 787 238 810 247 Q 823 250 823 269 Q 823 288 812 305 Q 786 340 753 354 Q 742 360 689 374 L 628 390 Q 612 394 590 398 L 570 400 Q 560 401 557 396 Q 555 390 568 382 Q 582 374 591 368 Q 601 361 609 356 Z"></path>
      </clipPath>
      <path clip-path="url(#make-me-a-hanzi-clip-4)" d="M 565 395 L 735 321 L 804 265" fill="none" id="make-me-a-hanzi-animation-4" stroke-dasharray="402 804" stroke-linecap="round"></path>
    
      <clipPath id="make-me-a-hanzi-clip-5">
        <path d="M 295 170 L 281 173 L 258 175 Q 240 175 238 168 Q 236 161 243 157 L 256 146 Q 266 137 271 126 Q 276 115 281 92 L 304 -44 C 309 -74 347 -68 346 -38 L 345 0 L 332 100 Q 328 121 330 125 Q 332 128 332 139 C 333 162 324 164 295 170 Z"></path>
      </clipPath>
      <path clip-path="url(#make-me-a-hanzi-clip-5)" d="M 246 165 L 285 149 L 301 128 L 322 -7 L 322 -20 L 310 -35" fill="none" id="make-me-a-hanzi-animation-5" stroke-dasharray="365 730" stroke-linecap="round"></path>
    
      <clipPath id="make-me-a-hanzi-clip-6">
        <path d="M 718 -14 L 749 74 Q 759 110 763 113 L 772 124 L 792 154 L 794 167 Q 793 173 779 187 Q 765 201 742 213 Q 720 224 714 224 Q 709 224 679 217 Q 649 210 545 201 L 512 198 L 295 170 C 265 166 302 134 332 139 L 378 147 Q 387 148 407 154 L 451 158 L 479 163 L 514 166 Q 527 166 544 170 L 588 173 L 659 176 Q 678 179 693 170 Q 697 166 697 163 Q 698 159 693 125 L 665 -18 C 659 -47 708 -42 718 -14 Z"></path>
      </clipPath>
      <path clip-path="url(#make-me-a-hanzi-clip-6)" d="M 303 170 L 338 158 L 557 188 L 708 195 L 731 178 L 742 160 L 700 17 L 671 -12" fill="none" id="make-me-a-hanzi-animation-6" stroke-dasharray="777 1554" stroke-linecap="round"></path>
    
      <clipPath id="make-me-a-hanzi-clip-7">
        <path d="M 421 78 L 439 -32 C 444 -62 468 -58 468 -28 L 467 74 L 468 117 Q 469 146 465 151 Q 462 155 451 158 C 423 167 407 172 407 154 L 407 139 L 421 78 Z"></path>
      </clipPath>
      <path clip-path="url(#make-me-a-hanzi-clip-7)" d="M 415 147 L 440 126 L 452 -14 L 445 -23" fill="none" id="make-me-a-hanzi-animation-7" stroke-dasharray="313 626" stroke-linecap="round"></path>
    
      <clipPath id="make-me-a-hanzi-clip-8">
        <path d="M 544 170 L 550 158 Q 552 148 550 142 Q 549 135 549 126 L 549 110 L 539 -25 C 537 -55 550 -54 559 -25 L 610 142 Q 611 144 609 154 L 588 173 C 566 193 531 197 544 170 Z"></path>
      </clipPath>
      <path clip-path="url(#make-me-a-hanzi-clip-8)" d="M 552 166 L 579 141 L 552 -13 L 544 -18" fill="none" id="make-me-a-hanzi-animation-8" stroke-dasharray="331 662" stroke-linecap="round"></path>
    
      <clipPath id="make-me-a-hanzi-clip-9">
        <path d="M 313 -82 L 397 -75 Q 447 -70 483 -69 L 517 -67 Q 551 -67 565 -65 L 615 -63 Q 664 -64 684 -62 L 766 -63 Q 817 -65 855 -62 L 902 -60 Q 925 -58 926 -50 Q 928 -43 924 -38 Q 920 -27 890 -13 Q 860 0 839 0 L 809 -2 Q 788 -4 766 -8 L 718 -14 L 665 -18 L 559 -25 L 539 -25 L 468 -28 L 439 -32 L 346 -38 L 304 -44 L 195 -50 L 109 -52 Q 95 -54 93 -60 Q 92 -66 97 -71 Q 102 -76 126 -90 L 154 -102 L 182 -104 Q 188 -105 208 -100 L 249 -92 Q 260 -90 313 -82 Z"></path>
      </clipPath>
      <path clip-path="url(#make-me-a-hanzi-clip-9)" d="M 101 -63 L 141 -74 L 194 -77 L 504 -46 L 842 -31 L 915 -46" fill="none" id="make-me-a-hanzi-animation-9" stroke-dasharray="947 1894" stroke-linecap="round"></path>
    
  </g>
</svg>