<svg version="1.1" viewBox="0 0 1024 1024" xmlns="http://www.w3.org/2000/svg">
  <g stroke="lightgray" stroke-dasharray="1,1" stroke-width="1" transform="scale(4, 4)">
    <line x1="0" y1="0" x2="256" y2="256"></line>
    <line x1="256" y1="0" x2="0" y2="256"></line>
    <line x1="128" y1="0" x2="128" y2="256"></line>
    <line x1="0" y1="128" x2="256" y2="128"></line>
  </g>
<g transform="scale(1, -1) translate(0, -900)">
   <style type="text/css">
    @keyframes keyframes0 {
      from {
       stroke: blue;
       stroke-dashoffset: 810;
       stroke-width: 128;
       }
       73% {
       animation-timing-function: step-end;
       stroke: blue;
       stroke-dashoffset: 0;
       stroke-width: 128;
       }
       to {
       stroke: black;
       stroke-width: 1024;
       }
       }
       #make-me-a-hanzi-animation-0 {
         animation: keyframes0 0.909180s both;
         animation-delay: 0.000000s;
         animation-timing-function: linear;
       }
    @keyframes keyframes1 {
      from {
       stroke: blue;
       stroke-dashoffset: 912;
       stroke-width: 128;
       }
       75% {
       animation-timing-function: step-end;
       stroke: blue;
       stroke-dashoffset: 0;
       stroke-width: 128;
       }
       to {
       stroke: black;
       stroke-width: 1024;
       }
       }
       #make-me-a-hanzi-animation-1 {
         animation: keyframes1 0.992188s both;
         animation-delay: 0.909180s;
         animation-timing-function: linear;
       }
    @keyframes keyframes2 {
      from {
       stroke: blue;
       stroke-dashoffset: 351;
       stroke-width: 128;
       }
       53% {
       animation-timing-function: step-end;
       stroke: blue;
       stroke-dashoffset: 0;
       stroke-width: 128;
       }
       to {
       stroke: black;
       stroke-width: 1024;
       }
       }
       #make-me-a-hanzi-animation-2 {
         animation: keyframes2 0.535645s both;
         animation-delay: 1.901367s;
         animation-timing-function: linear;
       }
    @keyframes keyframes3 {
      from {
       stroke: blue;
       stroke-dashoffset: 352;
       stroke-width: 128;
       }
       53% {
       animation-timing-function: step-end;
       stroke: blue;
       stroke-dashoffset: 0;
       stroke-width: 128;
       }
       to {
       stroke: black;
       stroke-width: 1024;
       }
       }
       #make-me-a-hanzi-animation-3 {
         animation: keyframes3 0.536458s both;
         animation-delay: 2.437012s;
         animation-timing-function: linear;
       }
    @keyframes keyframes4 {
      from {
       stroke: blue;
       stroke-dashoffset: 368;
       stroke-width: 128;
       }
       55% {
       animation-timing-function: step-end;
       stroke: blue;
       stroke-dashoffset: 0;
       stroke-width: 128;
       }
       to {
       stroke: black;
       stroke-width: 1024;
       }
       }
       #make-me-a-hanzi-animation-4 {
         animation: keyframes4 0.549479s both;
         animation-delay: 2.973470s;
         animation-timing-function: linear;
       }
    @keyframes keyframes5 {
      from {
       stroke: blue;
       stroke-dashoffset: 785;
       stroke-width: 128;
       }
       72% {
       animation-timing-function: step-end;
       stroke: blue;
       stroke-dashoffset: 0;
       stroke-width: 128;
       }
       to {
       stroke: black;
       stroke-width: 1024;
       }
       }
       #make-me-a-hanzi-animation-5 {
         animation: keyframes5 0.888835s both;
         animation-delay: 3.522949s;
         animation-timing-function: linear;
       }
    @keyframes keyframes6 {
      from {
       stroke: blue;
       stroke-dashoffset: 460;
       stroke-width: 128;
       }
       60% {
       animation-timing-function: step-end;
       stroke: blue;
       stroke-dashoffset: 0;
       stroke-width: 128;
       }
       to {
       stroke: black;
       stroke-width: 1024;
       }
       }
       #make-me-a-hanzi-animation-6 {
         animation: keyframes6 0.624349s both;
         animation-delay: 4.411784s;
         animation-timing-function: linear;
       }
    @keyframes keyframes7 {
      from {
       stroke: blue;
       stroke-dashoffset: 481;
       stroke-width: 128;
       }
       61% {
       animation-timing-function: step-end;
       stroke: blue;
       stroke-dashoffset: 0;
       stroke-width: 128;
       }
       to {
       stroke: black;
       stroke-width: 1024;
       }
       }
       #make-me-a-hanzi-animation-7 {
         animation: keyframes7 0.641439s both;
         animation-delay: 5.036133s;
         animation-timing-function: linear;
       }
    @keyframes keyframes8 {
      from {
       stroke: blue;
       stroke-dashoffset: 419;
       stroke-width: 128;
       }
       58% {
       animation-timing-function: step-end;
       stroke: blue;
       stroke-dashoffset: 0;
       stroke-width: 128;
       }
       to {
       stroke: black;
       stroke-width: 1024;
       }
       }
       #make-me-a-hanzi-animation-8 {
         animation: keyframes8 0.590983s both;
         animation-delay: 5.677572s;
         animation-timing-function: linear;
       }
    @keyframes keyframes9 {
      from {
       stroke: blue;
       stroke-dashoffset: 682;
       stroke-width: 128;
       }
       69% {
       animation-timing-function: step-end;
       stroke: blue;
       stroke-dashoffset: 0;
       stroke-width: 128;
       }
       to {
       stroke: black;
       stroke-width: 1024;
       }
       }
       #make-me-a-hanzi-animation-9 {
         animation: keyframes9 0.805013s both;
         animation-delay: 6.268555s;
         animation-timing-function: linear;
       }
    @keyframes keyframes10 {
      from {
       stroke: blue;
       stroke-dashoffset: 920;
       stroke-width: 128;
       }
       75% {
       animation-timing-function: step-end;
       stroke: blue;
       stroke-dashoffset: 0;
       stroke-width: 128;
       }
       to {
       stroke: black;
       stroke-width: 1024;
       }
       }
       #make-me-a-hanzi-animation-10 {
         animation: keyframes10 0.998698s both;
         animation-delay: 7.073568s;
         animation-timing-function: linear;
       }
    @keyframes keyframes11 {
      from {
       stroke: blue;
       stroke-dashoffset: 780;
       stroke-width: 128;
       }
       72% {
       animation-timing-function: step-end;
       stroke: blue;
       stroke-dashoffset: 0;
       stroke-width: 128;
       }
       to {
       stroke: black;
       stroke-width: 1024;
       }
       }
       #make-me-a-hanzi-animation-11 {
         animation: keyframes11 0.884766s both;
         animation-delay: 8.072266s;
         animation-timing-function: linear;
       }
</style>
<path d="M 152.5 638.0 Q 140.5 653.0 112.5 662.0 Q 102.5 666.0 91.5 662.0 Q 84.5 658.0 89.5 645.0 Q 92.5 633.0 97.5 622.0 Q 127.5 567.0 109.5 294.0 Q 105.5 257.0 94.5 209.0 Q 81.5 152.0 117.5 107.0 Q 127.5 94.0 139.5 107.0 Q 152.5 123.0 152.5 146.0 Q 152.5 153.0 153.5 162.0 L 154.5 191.0 Q 154.5 203.0 155.5 318.0 L 155.5 346.0 Q 156.5 407.0 157.5 451.0 L 158.5 480.0 Q 159.5 586.0 161.5 598.0 Q 162.5 605.0 162.5 611.0 C 163.5 628.0 163.5 628.0 152.5 638.0 Z" fill="lightgray"></path> 
<path d="M 259.5 177.0 Q 269.5 159.0 282.5 142.0 Q 298.5 120.0 305.5 122.0 Q 317.5 125.0 331.5 158.0 Q 341.5 189.0 336.5 283.0 Q 318.5 575.0 340.5 621.0 Q 350.5 639.0 342.5 649.0 Q 335.5 659.0 286.5 674.0 Q 262.5 683.0 246.5 672.0 Q 194.5 648.0 152.5 638.0 C 123.5 630.0 133.5 604.0 162.5 611.0 Q 255.5 635.0 266.5 628.0 Q 279.5 615.0 280.5 562.0 Q 286.5 345.0 278.5 225.0 Q 279.5 209.0 272.5 205.0 C 263.5 176.0 256.5 182.0 259.5 177.0 Z" fill="lightgray"></path> 
<path d="M 157.5 451.0 Q 209.5 460.0 249.5 464.0 Q 268.5 468.0 261.5 479.0 Q 251.5 492.0 229.5 495.0 Q 193.5 498.0 158.5 480.0 C 131.5 467.0 127.5 446.0 157.5 451.0 Z" fill="lightgray"></path> 
<path d="M 155.5 318.0 Q 207.5 325.0 248.5 328.0 Q 269.5 332.0 261.5 343.0 Q 251.5 356.0 229.5 360.0 Q 189.5 366.0 155.5 346.0 C 129.5 331.0 125.5 314.0 155.5 318.0 Z" fill="lightgray"></path> 
<path d="M 153.5 162.0 Q 211.5 172.0 259.5 177.0 C 289.5 180.0 296.5 188.0 272.5 205.0 Q 265.5 211.0 251.5 213.0 Q 214.5 219.0 154.5 191.0 C 127.5 178.0 123.5 157.0 153.5 162.0 Z" fill="lightgray"></path> 
<path d="M 704.5 608.0 Q 613.5 599.0 512.5 580.0 Q 502.5 577.0 499.5 580.0 Q 498.5 584.0 502.5 593.0 Q 599.5 725.0 620.5 747.0 Q 632.5 757.0 626.5 769.0 Q 619.5 781.0 572.5 804.0 Q 556.5 811.0 546.5 807.0 Q 534.5 801.0 540.5 781.0 Q 558.5 726.0 469.5 616.0 Q 447.5 592.0 412.5 568.0 Q 397.5 556.0 401.5 545.0 Q 407.5 529.0 431.5 508.0 Q 441.5 498.0 455.5 509.0 Q 495.5 540.0 701.5 581.0 Q 713.5 584.0 722.5 588.0 C 750.5 598.0 734.5 611.0 704.5 608.0 Z" fill="lightgray"></path> 
<path d="M 722.5 588.0 Q 777.5 528.0 782.5 525.0 Q 789.5 524.0 797.5 532.0 Q 809.5 544.0 799.5 582.0 Q 790.5 633.0 656.5 689.0 Q 649.5 693.0 646.5 683.0 Q 645.5 671.0 654.5 662.0 Q 678.5 638.0 704.5 608.0 L 722.5 588.0 Z" fill="lightgray"></path> 
<path d="M 458.5 481.0 Q 459.5 408.0 383.5 339.0 Q 364.5 323.0 354.5 311.0 Q 347.5 301.0 358.5 303.0 Q 397.5 303.0 468.5 382.0 Q 484.5 406.0 519.5 444.0 Q 528.5 453.0 518.5 466.0 Q 484.5 496.0 467.5 494.0 Q 457.5 493.0 458.5 481.0 Z" fill="lightgray"></path> 
<path d="M 677.5 472.0 Q 717.5 438.0 760.5 398.0 Q 770.5 388.0 784.5 388.0 Q 793.5 388.0 797.5 399.0 Q 801.5 411.0 795.5 435.0 Q 786.5 474.0 674.5 511.0 Q 661.5 515.0 656.5 513.0 Q 652.5 509.0 653.5 499.0 Q 656.5 489.0 677.5 472.0 Z" fill="lightgray"></path> 
<path d="M 555.5 319.0 Q 582.5 362.0 582.5 365.0 Q 581.5 374.0 570.5 384.0 Q 542.5 409.0 511.5 405.0 Q 504.5 404.0 505.5 392.0 Q 515.5 353.0 463.5 265.0 Q 412.5 184.0 289.5 73.0 Q 282.5 69.0 291.5 66.0 Q 337.5 66.0 451.5 178.0 Q 466.5 199.0 479.5 212.0 L 496.5 235.0 Q 512.5 259.0 535.5 289.0 L 555.5 319.0 Z" fill="lightgray"></path> 
<path d="M 580.5 116.0 Q 511.5 40.0 368.5 2.0 Q 355.5 -2.0 366.5 -11.0 Q 372.5 -15.0 417.5 -13.0 Q 526.5 -4.0 612.5 80.0 L 644.5 118.0 Q 683.5 173.0 717.5 256.0 Q 730.5 284.0 751.5 301.0 Q 770.5 316.0 758.5 330.0 Q 745.5 342.0 715.5 354.0 Q 691.5 363.0 665.5 350.0 Q 641.5 340.0 611.5 331.0 Q 587.5 325.0 555.5 319.0 C 526.5 313.0 505.5 293.0 535.5 289.0 Q 566.5 282.0 607.5 293.0 Q 640.5 308.0 646.5 309.0 Q 668.5 305.0 661.5 283.0 Q 642.5 204.0 606.5 149.0 L 580.5 116.0 Z" fill="lightgray"></path> 
<path d="M 479.5 212.0 Q 509.5 191.0 580.5 116.0 L 612.5 80.0 Q 720.5 -35.0 761.5 -34.0 Q 843.5 -33.0 908.5 -20.0 Q 942.5 -16.0 939.5 -6.0 Q 939.5 -3.0 775.5 48.0 Q 724.5 64.0 644.5 118.0 L 606.5 149.0 Q 576.5 174.0 546.5 203.0 Q 521.5 228.0 496.5 235.0 C 468.5 246.0 455.5 230.0 479.5 212.0 Z" fill="lightgray"></path> 
      <clipPath id="make-me-a-hanzi-clip-0">
      <path d="M 152.5 638.0 Q 140.5 653.0 112.5 662.0 Q 102.5 666.0 91.5 662.0 Q 84.5 658.0 89.5 645.0 Q 92.5 633.0 97.5 622.0 Q 127.5 567.0 109.5 294.0 Q 105.5 257.0 94.5 209.0 Q 81.5 152.0 117.5 107.0 Q 127.5 94.0 139.5 107.0 Q 152.5 123.0 152.5 146.0 Q 152.5 153.0 153.5 162.0 L 154.5 191.0 Q 154.5 203.0 155.5 318.0 L 155.5 346.0 Q 156.5 407.0 157.5 451.0 L 158.5 480.0 Q 159.5 586.0 161.5 598.0 Q 162.5 605.0 162.5 611.0 C 163.5 628.0 163.5 628.0 152.5 638.0 Z" fill="lightgray"></path>
      </clipPath>
      <path clip-path="url(#make-me-a-hanzi-clip-0)" d="M 98.5 653.0 L 123.5 630.0 L 134.5 599.0 L 138.5 493.0 L 133.5 279.0 L 122.5 184.0 L 128.5 113.0 " fill="none" id="make-me-a-hanzi-animation-0" stroke-dasharray="682 1364" stroke-linecap="round"></path>

      <clipPath id="make-me-a-hanzi-clip-1">
      <path d="M 259.5 177.0 Q 269.5 159.0 282.5 142.0 Q 298.5 120.0 305.5 122.0 Q 317.5 125.0 331.5 158.0 Q 341.5 189.0 336.5 283.0 Q 318.5 575.0 340.5 621.0 Q 350.5 639.0 342.5 649.0 Q 335.5 659.0 286.5 674.0 Q 262.5 683.0 246.5 672.0 Q 194.5 648.0 152.5 638.0 C 123.5 630.0 133.5 604.0 162.5 611.0 Q 255.5 635.0 266.5 628.0 Q 279.5 615.0 280.5 562.0 Q 286.5 345.0 278.5 225.0 Q 279.5 209.0 272.5 205.0 C 263.5 176.0 256.5 182.0 259.5 177.0 Z" fill="lightgray"></path>
      </clipPath>
      <path clip-path="url(#make-me-a-hanzi-clip-1)" d="M 160.5 633.0 L 175.5 628.0 L 265.5 654.0 L 304.5 632.0 L 310.5 271.0 L 308.5 214.0 L 299.5 178.0 L 304.5 132.0 " fill="none" id="make-me-a-hanzi-animation-1" stroke-dasharray="784 1568" stroke-linecap="round"></path>

      <clipPath id="make-me-a-hanzi-clip-2">
      <path d="M 157.5 451.0 Q 209.5 460.0 249.5 464.0 Q 268.5 468.0 261.5 479.0 Q 251.5 492.0 229.5 495.0 Q 193.5 498.0 158.5 480.0 C 131.5 467.0 127.5 446.0 157.5 451.0 Z" fill="lightgray"></path>
      </clipPath>
      <path clip-path="url(#make-me-a-hanzi-clip-2)" d="M 165.5 458.0 L 173.5 470.0 L 184.5 473.0 L 221.5 479.0 L 252.5 474.0 " fill="none" id="make-me-a-hanzi-animation-2" stroke-dasharray="223 446" stroke-linecap="round"></path>

      <clipPath id="make-me-a-hanzi-clip-3">
      <path d="M 155.5 318.0 Q 207.5 325.0 248.5 328.0 Q 269.5 332.0 261.5 343.0 Q 251.5 356.0 229.5 360.0 Q 189.5 366.0 155.5 346.0 C 129.5 331.0 125.5 314.0 155.5 318.0 Z" fill="lightgray"></path>
      </clipPath>
      <path clip-path="url(#make-me-a-hanzi-clip-3)" d="M 163.5 325.0 L 171.5 337.0 L 206.5 343.0 L 252.5 338.0 " fill="none" id="make-me-a-hanzi-animation-3" stroke-dasharray="224 448" stroke-linecap="round"></path>

      <clipPath id="make-me-a-hanzi-clip-4">
      <path d="M 153.5 162.0 Q 211.5 172.0 259.5 177.0 C 289.5 180.0 296.5 188.0 272.5 205.0 Q 265.5 211.0 251.5 213.0 Q 214.5 219.0 154.5 191.0 C 127.5 178.0 123.5 157.0 153.5 162.0 Z" fill="lightgray"></path>
      </clipPath>
      <path clip-path="url(#make-me-a-hanzi-clip-4)" d="M 160.5 169.0 L 170.5 182.0 L 264.5 200.0 " fill="none" id="make-me-a-hanzi-animation-4" stroke-dasharray="240 480" stroke-linecap="round"></path>

      <clipPath id="make-me-a-hanzi-clip-5">
      <path d="M 704.5 608.0 Q 613.5 599.0 512.5 580.0 Q 502.5 577.0 499.5 580.0 Q 498.5 584.0 502.5 593.0 Q 599.5 725.0 620.5 747.0 Q 632.5 757.0 626.5 769.0 Q 619.5 781.0 572.5 804.0 Q 556.5 811.0 546.5 807.0 Q 534.5 801.0 540.5 781.0 Q 558.5 726.0 469.5 616.0 Q 447.5 592.0 412.5 568.0 Q 397.5 556.0 401.5 545.0 Q 407.5 529.0 431.5 508.0 Q 441.5 498.0 455.5 509.0 Q 495.5 540.0 701.5 581.0 Q 713.5 584.0 722.5 588.0 C 750.5 598.0 734.5 611.0 704.5 608.0 Z" fill="lightgray"></path>
      </clipPath>
      <path clip-path="url(#make-me-a-hanzi-clip-5)" d="M 553.5 794.0 L 580.5 758.0 L 577.5 748.0 L 533.5 668.0 L 472.5 583.0 L 466.5 559.0 L 516.5 558.0 L 656.5 588.0 L 699.5 595.0 L 715.5 591.0 " fill="none" id="make-me-a-hanzi-animation-5" stroke-dasharray="657 1314" stroke-linecap="round"></path>

      <clipPath id="make-me-a-hanzi-clip-6">
      <path d="M 722.5 588.0 Q 777.5 528.0 782.5 525.0 Q 789.5 524.0 797.5 532.0 Q 809.5 544.0 799.5 582.0 Q 790.5 633.0 656.5 689.0 Q 649.5 693.0 646.5 683.0 Q 645.5 671.0 654.5 662.0 Q 678.5 638.0 704.5 608.0 L 722.5 588.0 Z" fill="lightgray"></path>
      </clipPath>
      <path clip-path="url(#make-me-a-hanzi-clip-6)" d="M 655.5 679.0 L 712.5 637.0 L 765.5 587.0 L 785.5 548.0 L 785.5 531.0 " fill="none" id="make-me-a-hanzi-animation-6" stroke-dasharray="332 664" stroke-linecap="round"></path>

      <clipPath id="make-me-a-hanzi-clip-7">
      <path d="M 458.5 481.0 Q 459.5 408.0 383.5 339.0 Q 364.5 323.0 354.5 311.0 Q 347.5 301.0 358.5 303.0 Q 397.5 303.0 468.5 382.0 Q 484.5 406.0 519.5 444.0 Q 528.5 453.0 518.5 466.0 Q 484.5 496.0 467.5 494.0 Q 457.5 493.0 458.5 481.0 Z" fill="lightgray"></path>
      </clipPath>
      <path clip-path="url(#make-me-a-hanzi-clip-7)" d="M 471.5 482.0 L 486.5 453.0 L 462.5 407.0 L 422.5 355.0 L 362.5 310.0 " fill="none" id="make-me-a-hanzi-animation-7" stroke-dasharray="353 706" stroke-linecap="round"></path>

      <clipPath id="make-me-a-hanzi-clip-8">
      <path d="M 677.5 472.0 Q 717.5 438.0 760.5 398.0 Q 770.5 388.0 784.5 388.0 Q 793.5 388.0 797.5 399.0 Q 801.5 411.0 795.5 435.0 Q 786.5 474.0 674.5 511.0 Q 661.5 515.0 656.5 513.0 Q 652.5 509.0 653.5 499.0 Q 656.5 489.0 677.5 472.0 Z" fill="lightgray"></path>
      </clipPath>
      <path clip-path="url(#make-me-a-hanzi-clip-8)" d="M 660.5 505.0 L 755.5 443.0 L 783.5 402.0 " fill="none" id="make-me-a-hanzi-animation-8" stroke-dasharray="291 582" stroke-linecap="round"></path>

      <clipPath id="make-me-a-hanzi-clip-9">
      <path d="M 555.5 319.0 Q 582.5 362.0 582.5 365.0 Q 581.5 374.0 570.5 384.0 Q 542.5 409.0 511.5 405.0 Q 504.5 404.0 505.5 392.0 Q 515.5 353.0 463.5 265.0 Q 412.5 184.0 289.5 73.0 Q 282.5 69.0 291.5 66.0 Q 337.5 66.0 451.5 178.0 Q 466.5 199.0 479.5 212.0 L 496.5 235.0 Q 512.5 259.0 535.5 289.0 L 555.5 319.0 Z" fill="lightgray"></path>
      </clipPath>
      <path clip-path="url(#make-me-a-hanzi-clip-9)" d="M 519.5 394.0 L 540.5 362.0 L 522.5 319.0 L 475.5 242.0 L 414.5 167.0 L 326.5 89.0 L 294.5 71.0 " fill="none" id="make-me-a-hanzi-animation-9" stroke-dasharray="554 1108" stroke-linecap="round"></path>

      <clipPath id="make-me-a-hanzi-clip-10">
      <path d="M 580.5 116.0 Q 511.5 40.0 368.5 2.0 Q 355.5 -2.0 366.5 -11.0 Q 372.5 -15.0 417.5 -13.0 Q 526.5 -4.0 612.5 80.0 L 644.5 118.0 Q 683.5 173.0 717.5 256.0 Q 730.5 284.0 751.5 301.0 Q 770.5 316.0 758.5 330.0 Q 745.5 342.0 715.5 354.0 Q 691.5 363.0 665.5 350.0 Q 641.5 340.0 611.5 331.0 Q 587.5 325.0 555.5 319.0 C 526.5 313.0 505.5 293.0 535.5 289.0 Q 566.5 282.0 607.5 293.0 Q 640.5 308.0 646.5 309.0 Q 668.5 305.0 661.5 283.0 Q 642.5 204.0 606.5 149.0 L 580.5 116.0 Z" fill="lightgray"></path>
      </clipPath>
      <path clip-path="url(#make-me-a-hanzi-clip-10)" d="M 542.5 292.0 L 652.5 327.0 L 683.5 324.0 L 702.5 313.0 L 687.5 259.0 L 656.5 185.0 L 628.5 137.0 L 590.5 91.0 L 542.5 52.0 L 492.5 25.0 L 407.5 -2.0 L 371.5 -5.0 " fill="none" id="make-me-a-hanzi-animation-10" stroke-dasharray="792 1584" stroke-linecap="round"></path>

      <clipPath id="make-me-a-hanzi-clip-11">
      <path d="M 479.5 212.0 Q 509.5 191.0 580.5 116.0 L 612.5 80.0 Q 720.5 -35.0 761.5 -34.0 Q 843.5 -33.0 908.5 -20.0 Q 942.5 -16.0 939.5 -6.0 Q 939.5 -3.0 775.5 48.0 Q 724.5 64.0 644.5 118.0 L 606.5 149.0 Q 576.5 174.0 546.5 203.0 Q 521.5 228.0 496.5 235.0 C 468.5 246.0 455.5 230.0 479.5 212.0 Z" fill="lightgray"></path>
      </clipPath>
      <path clip-path="url(#make-me-a-hanzi-clip-11)" d="M 487.5 215.0 L 507.5 213.0 L 639.5 88.0 L 707.5 37.0 L 751.5 12.0 L 843.5 -3.0 L 936.5 -8.0 " fill="none" id="make-me-a-hanzi-animation-11" stroke-dasharray="652 1304" stroke-linecap="round"></path>

</g>
</svg>
