<svg version="1.1" viewBox="0 0 1024 1024" xmlns="http://www.w3.org/2000/svg">
  <g stroke="lightgray" stroke-dasharray="1,1" stroke-width="1" transform="scale(4, 4)">
    <line x1="0" y1="0" x2="256" y2="256"></line>
    <line x1="256" y1="0" x2="0" y2="256"></line>
    <line x1="128" y1="0" x2="128" y2="256"></line>
    <line x1="0" y1="128" x2="256" y2="128"></line>
  </g>
<g transform="scale(0.92, -0.92) translate(60, -900)">
   <style type="text/css">
    @keyframes keyframes0 {
      from {
       stroke: blue;
       stroke-dashoffset: 537;
       stroke-width: 128;
       }
       64% {
       animation-timing-function: step-end;
       stroke: blue;
       stroke-dashoffset: 0;
       stroke-width: 128;
       }
       to {
       stroke: black;
       stroke-width: 1024;
       }
       }
       #make-me-a-hanzi-animation-0 {
         animation: keyframes0 0.687012s both;
         animation-delay: 0.000000s;
         animation-timing-function: linear;
       }
    @keyframes keyframes1 {
      from {
       stroke: blue;
       stroke-dashoffset: 688;
       stroke-width: 128;
       }
       69% {
       animation-timing-function: step-end;
       stroke: blue;
       stroke-dashoffset: 0;
       stroke-width: 128;
       }
       to {
       stroke: black;
       stroke-width: 1024;
       }
       }
       #make-me-a-hanzi-animation-1 {
         animation: keyframes1 0.809896s both;
         animation-delay: 0.687012s;
         animation-timing-function: linear;
       }
    @keyframes keyframes2 {
      from {
       stroke: blue;
       stroke-dashoffset: 430;
       stroke-width: 128;
       }
       58% {
       animation-timing-function: step-end;
       stroke: blue;
       stroke-dashoffset: 0;
       stroke-width: 128;
       }
       to {
       stroke: black;
       stroke-width: 1024;
       }
       }
       #make-me-a-hanzi-animation-2 {
         animation: keyframes2 0.599935s both;
         animation-delay: 1.496908s;
         animation-timing-function: linear;
       }
    @keyframes keyframes3 {
      from {
       stroke: blue;
       stroke-dashoffset: 596;
       stroke-width: 128;
       }
       66% {
       animation-timing-function: step-end;
       stroke: blue;
       stroke-dashoffset: 0;
       stroke-width: 128;
       }
       to {
       stroke: black;
       stroke-width: 1024;
       }
       }
       #make-me-a-hanzi-animation-3 {
         animation: keyframes3 0.735026s both;
         animation-delay: 2.096842s;
         animation-timing-function: linear;
       }
    @keyframes keyframes4 {
      from {
       stroke: blue;
       stroke-dashoffset: 407;
       stroke-width: 128;
       }
       57% {
       animation-timing-function: step-end;
       stroke: blue;
       stroke-dashoffset: 0;
       stroke-width: 128;
       }
       to {
       stroke: black;
       stroke-width: 1024;
       }
       }
       #make-me-a-hanzi-animation-4 {
         animation: keyframes4 0.581217s both;
         animation-delay: 2.831868s;
         animation-timing-function: linear;
       }
    @keyframes keyframes5 {
      from {
       stroke: blue;
       stroke-dashoffset: 503;
       stroke-width: 128;
       }
       62% {
       animation-timing-function: step-end;
       stroke: blue;
       stroke-dashoffset: 0;
       stroke-width: 128;
       }
       to {
       stroke: black;
       stroke-width: 1024;
       }
       }
       #make-me-a-hanzi-animation-5 {
         animation: keyframes5 0.659342s both;
         animation-delay: 3.413086s;
         animation-timing-function: linear;
       }
    @keyframes keyframes6 {
      from {
       stroke: blue;
       stroke-dashoffset: 714;
       stroke-width: 128;
       }
       70% {
       animation-timing-function: step-end;
       stroke: blue;
       stroke-dashoffset: 0;
       stroke-width: 128;
       }
       to {
       stroke: black;
       stroke-width: 1024;
       }
       }
       #make-me-a-hanzi-animation-6 {
         animation: keyframes6 0.831055s both;
         animation-delay: 4.072428s;
         animation-timing-function: linear;
       }
    @keyframes keyframes7 {
      from {
       stroke: blue;
       stroke-dashoffset: 408;
       stroke-width: 128;
       }
       57% {
       animation-timing-function: step-end;
       stroke: blue;
       stroke-dashoffset: 0;
       stroke-width: 128;
       }
       to {
       stroke: black;
       stroke-width: 1024;
       }
       }
       #make-me-a-hanzi-animation-7 {
         animation: keyframes7 0.582031s both;
         animation-delay: 4.903483s;
         animation-timing-function: linear;
       }
    @keyframes keyframes8 {
      from {
       stroke: blue;
       stroke-dashoffset: 384;
       stroke-width: 128;
       }
       56% {
       animation-timing-function: step-end;
       stroke: blue;
       stroke-dashoffset: 0;
       stroke-width: 128;
       }
       to {
       stroke: black;
       stroke-width: 1024;
       }
       }
       #make-me-a-hanzi-animation-8 {
         animation: keyframes8 0.562500s both;
         animation-delay: 5.485514s;
         animation-timing-function: linear;
       }
    @keyframes keyframes9 {
      from {
       stroke: blue;
       stroke-dashoffset: 492;
       stroke-width: 128;
       }
       62% {
       animation-timing-function: step-end;
       stroke: blue;
       stroke-dashoffset: 0;
       stroke-width: 128;
       }
       to {
       stroke: black;
       stroke-width: 1024;
       }
       }
       #make-me-a-hanzi-animation-9 {
         animation: keyframes9 0.650391s both;
         animation-delay: 6.048014s;
         animation-timing-function: linear;
       }
    @keyframes keyframes10 {
      from {
       stroke: blue;
       stroke-dashoffset: 1130;
       stroke-width: 128;
       }
       79% {
       animation-timing-function: step-end;
       stroke: blue;
       stroke-dashoffset: 0;
       stroke-width: 128;
       }
       to {
       stroke: black;
       stroke-width: 1024;
       }
       }
       #make-me-a-hanzi-animation-10 {
         animation: keyframes10 1.169596s both;
         animation-delay: 6.698405s;
         animation-timing-function: linear;
       }
    @keyframes keyframes11 {
      from {
       stroke: blue;
       stroke-dashoffset: 495;
       stroke-width: 128;
       }
       62% {
       animation-timing-function: step-end;
       stroke: blue;
       stroke-dashoffset: 0;
       stroke-width: 128;
       }
       to {
       stroke: black;
       stroke-width: 1024;
       }
       }
       #make-me-a-hanzi-animation-11 {
         animation: keyframes11 0.652832s both;
         animation-delay: 7.868001s;
         animation-timing-function: linear;
       }
    @keyframes keyframes12 {
      from {
       stroke: blue;
       stroke-dashoffset: 387;
       stroke-width: 128;
       }
       56% {
       animation-timing-function: step-end;
       stroke: blue;
       stroke-dashoffset: 0;
       stroke-width: 128;
       }
       to {
       stroke: black;
       stroke-width: 1024;
       }
       }
       #make-me-a-hanzi-animation-12 {
         animation: keyframes12 0.564941s both;
         animation-delay: 8.520833s;
         animation-timing-function: linear;
       }
    @keyframes keyframes13 {
      from {
       stroke: blue;
       stroke-dashoffset: 727;
       stroke-width: 128;
       }
       70% {
       animation-timing-function: step-end;
       stroke: blue;
       stroke-dashoffset: 0;
       stroke-width: 128;
       }
       to {
       stroke: black;
       stroke-width: 1024;
       }
       }
       #make-me-a-hanzi-animation-13 {
         animation: keyframes13 0.841634s both;
         animation-delay: 9.085775s;
         animation-timing-function: linear;
       }
</style>
<path d="M 321.5 588.5 L 341.5 591.5 Q 350.5 592.5 370.5 596.5 L 414.5 606.5 L 450.5 614.5 Q 466.5 618.5 474.5 622.5 Q 482.5 626.5 482.5 632.5 Q 482.5 638.5 469.5 645.5 Q 456.5 653.5 445.5 656.5 Q 435.5 658.5 426.5 658.5 Q 416.5 658.5 395.5 651.5 Q 374.5 644.5 348.5 638.5 Q 322.5 632.5 311.5 630.5 L 258.5 620.5 Q 239.5 616.5 234.5 616.5 L 206.5 612.5 Q 196.5 611.5 193.5 605.5 Q 192.5 604.5 192.5 603.5 Q 192.5 599.5 204.5 592.5 Q 218.5 584.5 229.5 582.5 Q 240.5 580.5 248.5 580.5 Q 257.5 580.5 274.5 581.5 L 321.5 588.5 Z" fill="lightgray"></path> 
<path d="M 254.5 396.5 L 261.5 406.5 L 272.5 424.5 Q 286.5 444.5 301.5 474.5 Q 316.5 503.5 323.5 513.5 Q 329.5 523.5 338.5 531.5 Q 346.5 540.5 347.5 544.5 L 347.5 546.5 Q 347.5 550.5 344.5 557.5 Q 340.5 566.5 334.5 573.5 L 321.5 588.5 C 301.5 611.5 278.5 611.5 274.5 581.5 L 272.5 568.5 Q 271.5 556.5 264.5 528.5 Q 256.5 500.5 240.5 468.5 Q 224.5 434.5 195.5 394.5 Q 167.5 354.5 137.5 324.5 Q 107.5 294.5 84.5 278.5 L 64.5 262.5 Q 54.5 255.5 54.5 250.5 L 54.5 248.5 Q 55.5 245.5 59.5 245.5 Q 64.5 245.5 74.5 250.5 L 98.5 260.5 Q 127.5 271.5 150.5 287.5 Q 173.5 304.5 188.5 317.5 Q 202.5 330.5 210.5 340.5 Q 218.5 348.5 224.5 357.5 L 254.5 396.5 Z" fill="lightgray"></path> 
<path d="M 224.5 357.5 L 240.5 226.5 Q 242.5 207.5 249.5 195.5 Q 256.5 184.5 263.5 184.5 Q 270.5 185.5 273.5 192.5 Q 276.5 200.5 278.5 207.5 L 276.5 244.5 L 270.5 370.5 C 269.5 400.5 220.5 387.5 224.5 357.5 Z" fill="lightgray"></path> 
<path d="M 417.5 246.5 L 441.5 326.5 Q 446.5 344.5 450.5 350.5 Q 453.5 356.5 461.5 369.5 Q 469.5 381.5 472.5 384.5 Q 478.5 392.5 478.5 396.5 Q 478.5 400.5 471.5 405.5 Q 465.5 410.5 450.5 418.5 L 428.5 427.5 Q 422.5 430.5 414.5 432.5 Q 409.5 433.5 405.5 433.5 L 402.5 433.5 Q 397.5 432.5 386.5 427.5 Q 376.5 422.5 354.5 414.5 Q 332.5 407.5 320.5 405.5 Q 308.5 402.5 291.5 400.5 Q 274.5 398.5 254.5 396.5 C 185.5 389.5 204.5 359.5 270.5 370.5 L 300.5 375.5 L 348.5 381.5 L 374.5 386.5 L 378.5 386.5 Q 384.5 386.5 388.5 384.5 Q 392.5 382.5 393.5 377.5 L 393.5 374.5 Q 393.5 367.5 390.5 348.5 L 374.5 258.5 C 369.5 228.5 408.5 217.5 417.5 246.5 Z" fill="lightgray"></path> 
<path d="M 278.5 207.5 L 292.5 209.5 L 330.5 211.5 L 384.5 218.5 Q 416.5 220.5 424.5 222.5 Q 432.5 224.5 434.5 227.5 L 434.5 228.5 Q 434.5 231.5 429.5 236.5 L 417.5 246.5 C 397.5 263.5 397.5 263.5 374.5 258.5 L 360.5 255.5 Q 356.5 254.5 326.5 250.5 Q 296.5 246.5 276.5 244.5 C 246.5 241.5 248.5 203.5 278.5 207.5 Z" fill="lightgray"></path> 
<path d="M 616.5 528.5 L 626.5 543.5 C 627.5 545.5 627.5 545.5 626.5 570.5 L 623.5 635.5 L 620.5 666.5 L 617.5 737.5 C 616.5 760.5 616.5 760.5 598.5 764.5 L 570.5 770.5 Q 559.5 771.5 553.5 771.5 L 548.5 771.5 Q 544.5 769.5 542.5 766.5 L 542.5 760.5 Q 544.5 756.5 552.5 742.5 Q 561.5 729.5 564.5 715.5 Q 568.5 700.5 572.5 671.5 L 584.5 582.5 L 588.5 558.5 Q 588.5 550.5 594.5 534.5 C 603.5 508.5 603.5 508.5 616.5 528.5 Z" fill="lightgray"></path> 
<path d="M 763.5 548.5 L 777.5 532.5 Q 779.5 528.5 783.5 528.5 Q 787.5 528.5 793.5 532.5 Q 805.5 539.5 812.5 552.5 Q 819.5 564.5 823.5 577.5 L 854.5 681.5 Q 856.5 692.5 861.5 706.5 Q 866.5 719.5 870.5 726.5 Q 874.5 733.5 881.5 742.5 Q 888.5 752.5 888.5 756.5 Q 888.5 762.5 877.5 769.5 Q 865.5 777.5 851.5 784.5 Q 836.5 790.5 818.5 798.5 Q 800.5 806.5 792.5 807.5 Q 784.5 807.5 763.5 798.5 Q 742.5 790.5 698.5 781.5 Q 654.5 772.5 640.5 770.5 L 598.5 764.5 C 568.5 760.5 587.5 733.5 617.5 737.5 L 677.5 746.5 L 714.5 753.5 Q 750.5 758.5 758.5 760.5 Q 764.5 761.5 769.5 761.5 L 774.5 761.5 Q 782.5 760.5 786.5 755.5 Q 790.5 750.5 790.5 740.5 Q 790.5 730.5 789.5 718.5 Q 788.5 706.5 784.5 676.5 L 782.5 661.5 L 773.5 617.5 Q 772.5 610.5 762.5 575.5 C 756.5 555.5 756.5 555.5 763.5 548.5 Z" fill="lightgray"></path> 
<path d="M 784.5 676.5 L 760.5 685.5 Q 746.5 691.5 730.5 691.5 L 726.5 691.5 Q 715.5 690.5 689.5 682.5 Q 662.5 674.5 620.5 666.5 C 591.5 660.5 593.5 634.5 623.5 635.5 L 664.5 637.5 Q 672.5 637.5 705.5 644.5 L 742.5 653.5 Q 755.5 656.5 782.5 661.5 C 810.5 666.5 810.5 666.5 784.5 676.5 Z" fill="lightgray"></path> 
<path d="M 626.5 543.5 L 660.5 540.5 Q 664.5 539.5 670.5 539.5 Q 677.5 539.5 686.5 540.5 L 724.5 544.5 L 763.5 548.5 C 793.5 551.5 791.5 568.5 762.5 575.5 L 732.5 582.5 Q 730.5 583.5 726.5 583.5 Q 719.5 583.5 705.5 580.5 Q 684.5 577.5 664.5 575.5 Q 644.5 572.5 626.5 570.5 C 596.5 567.5 596.5 546.5 626.5 543.5 Z" fill="lightgray"></path> 
<path d="M 594.5 534.5 L 591.5 520.5 L 586.5 497.5 Q 582.5 481.5 576.5 466.5 Q 570.5 452.5 552.5 428.5 Q 534.5 404.5 514.5 380.5 L 492.5 356.5 Q 485.5 348.5 485.5 343.5 Q 485.5 342.5 486.5 341.5 Q 487.5 340.5 489.5 340.5 Q 493.5 340.5 502.5 344.5 L 526.5 358.5 Q 543.5 367.5 561.5 382.5 L 604.5 420.5 L 628.5 451.5 L 640.5 463.5 L 654.5 470.5 Q 656.5 473.5 656.5 478.5 Q 656.5 481.5 655.5 485.5 Q 652.5 494.5 644.5 503.5 Q 636.5 512.5 631.5 516.5 L 616.5 528.5 C 596.5 544.5 596.5 544.5 594.5 534.5 Z" fill="lightgray"></path> 
<path d="M 604.5 420.5 L 622.5 416.5 Q 624.5 416.5 634.5 418.5 Q 646.5 420.5 673.5 424.5 Q 700.5 428.5 715.5 429.5 Q 730.5 431.5 782.5 436.5 Q 824.5 440.5 841.5 440.5 L 847.5 440.5 Q 874.5 439.5 881.5 430.5 Q 888.5 422.5 888.5 402.5 Q 888.5 382.5 885.5 325.5 Q 882.5 268.5 881.5 258.5 Q 880.5 248.5 875.5 207.5 Q 870.5 166.5 864.5 138.5 Q 858.5 110.5 849.5 92.5 Q 840.5 74.5 830.5 68.5 Q 821.5 62.5 810.5 62.5 Q 799.5 62.5 785.5 69.5 L 768.5 78.5 L 742.5 88.5 Q 740.5 89.5 737.5 89.5 Q 734.5 89.5 732.5 87.5 Q 731.5 86.5 731.5 84.5 Q 731.5 80.5 735.5 74.5 L 766.5 28.5 L 790.5 -9.5 Q 800.5 -25.5 808.5 -29.5 Q 812.5 -31.5 817.5 -31.5 Q 831.5 -31.5 852.5 -13.5 Q 880.5 8.5 893.5 28.5 Q 906.5 48.5 913.5 76.5 Q 920.5 102.5 924.5 126.5 Q 927.5 150.5 929.5 170.5 L 940.5 302.5 Q 941.5 324.5 946.5 351.5 Q 950.5 378.5 953.5 390.5 Q 956.5 401.5 962.5 412.5 Q 969.5 425.5 969.5 432.5 L 969.5 433.5 Q 968.5 438.5 956.5 448.5 L 936.5 463.5 L 910.5 479.5 Q 901.5 486.5 898.5 486.5 Q 896.5 487.5 894.5 487.5 Q 889.5 487.5 882.5 484.5 Q 871.5 481.5 846.5 476.5 Q 820.5 472.5 804.5 470.5 L 628.5 451.5 C 598.5 448.5 574.5 423.5 604.5 420.5 Z" fill="lightgray"></path> 
<path d="M 699.5 336.5 L 712.5 356.5 Q 715.5 362.5 722.5 368.5 Q 728.5 374.5 734.5 378.5 Q 740.5 381.5 740.5 383.5 L 740.5 385.5 Q 740.5 390.5 734.5 396.5 Q 726.5 404.5 708.5 409.5 L 685.5 416.5 Q 679.5 418.5 675.5 418.5 Q 672.5 418.5 670.5 416.5 Q 668.5 414.5 668.5 411.5 Q 667.5 408.5 666.5 393.5 Q 664.5 377.5 656.5 356.5 Q 648.5 334.5 637.5 315.5 Q 626.5 296.5 612.5 276.5 Q 599.5 256.5 591.5 248.5 L 579.5 235.5 Q 571.5 227.5 571.5 223.5 Q 571.5 221.5 573.5 220.5 Q 574.5 219.5 577.5 219.5 Q 581.5 219.5 587.5 223.5 L 604.5 234.5 Q 624.5 247.5 641.5 263.5 Q 658.5 279.5 668.5 292.5 Q 679.5 306.5 690.5 322.5 L 699.5 336.5 Z" fill="lightgray"></path> 
<path d="M 690.5 322.5 L 753.5 260.5 Q 760.5 252.5 770.5 243.5 Q 780.5 234.5 788.5 230.5 Q 795.5 226.5 800.5 226.5 L 802.5 226.5 Q 810.5 226.5 818.5 234.5 Q 825.5 241.5 825.5 251.5 L 825.5 254.5 Q 824.5 266.5 820.5 278.5 Q 814.5 290.5 796.5 300.5 Q 778.5 310.5 756.5 318.5 L 699.5 336.5 C 670.5 345.5 669.5 343.5 690.5 322.5 Z" fill="lightgray"></path> 
<path d="M 502.5 186.5 Q 502.5 166.5 503.5 154.5 Q 504.5 142.5 509.5 136.5 Q 514.5 128.5 530.5 124.5 Q 544.5 120.5 567.5 120.5 Q 595.5 120.5 636.5 122.5 Q 678.5 124.5 705.5 126.5 Q 732.5 129.5 764.5 134.5 Q 797.5 138.5 812.5 141.5 Q 828.5 144.5 830.5 147.5 Q 831.5 148.5 831.5 150.5 Q 831.5 153.5 828.5 158.5 Q 825.5 165.5 813.5 172.5 Q 802.5 180.5 794.5 184.5 Q 786.5 188.5 778.5 188.5 Q 774.5 188.5 754.5 180.5 Q 734.5 172.5 708.5 169.5 L 680.5 165.5 Q 648.5 160.5 620.5 160.5 L 588.5 160.5 Q 574.5 158.5 566.5 158.5 Q 552.5 158.5 550.5 162.5 Q 546.5 167.5 544.5 175.5 Q 543.5 181.5 543.5 188.5 L 543.5 196.5 L 545.5 230.5 Q 546.5 248.5 551.5 262.5 Q 556.5 276.5 556.5 281.5 Q 554.5 286.5 545.5 294.5 Q 536.5 303.5 526.5 308.5 Q 516.5 314.5 504.5 316.5 Q 500.5 317.5 497.5 317.5 Q 492.5 317.5 490.5 315.5 Q 487.5 312.5 487.5 308.5 Q 488.5 304.5 491.5 297.5 Q 494.5 289.5 496.5 272.5 Q 498.5 256.5 499.5 250.5 L 502.5 186.5 Z" fill="lightgray"></path> 
      <clipPath id="make-me-a-hanzi-clip-0">
      <path d="M 321.5 588.5 L 341.5 591.5 Q 350.5 592.5 370.5 596.5 L 414.5 606.5 L 450.5 614.5 Q 466.5 618.5 474.5 622.5 Q 482.5 626.5 482.5 632.5 Q 482.5 638.5 469.5 645.5 Q 456.5 653.5 445.5 656.5 Q 435.5 658.5 426.5 658.5 Q 416.5 658.5 395.5 651.5 Q 374.5 644.5 348.5 638.5 Q 322.5 632.5 311.5 630.5 L 258.5 620.5 Q 239.5 616.5 234.5 616.5 L 206.5 612.5 Q 196.5 611.5 193.5 605.5 Q 192.5 604.5 192.5 603.5 Q 192.5 599.5 204.5 592.5 Q 218.5 584.5 229.5 582.5 Q 240.5 580.5 248.5 580.5 Q 257.5 580.5 274.5 581.5 L 321.5 588.5 Z" fill="lightgray"></path>
      </clipPath>
      <path clip-path="url(#make-me-a-hanzi-clip-0)" d="M 196.5 602.5 L 266.5 600.5 L 429.5 634.5 L 473.5 631.5 " fill="none" id="make-me-a-hanzi-animation-0" stroke-dasharray="409 818" stroke-linecap="round"></path>

      <clipPath id="make-me-a-hanzi-clip-1">
      <path d="M 254.5 396.5 L 261.5 406.5 L 272.5 424.5 Q 286.5 444.5 301.5 474.5 Q 316.5 503.5 323.5 513.5 Q 329.5 523.5 338.5 531.5 Q 346.5 540.5 347.5 544.5 L 347.5 546.5 Q 347.5 550.5 344.5 557.5 Q 340.5 566.5 334.5 573.5 L 321.5 588.5 C 301.5 611.5 278.5 611.5 274.5 581.5 L 272.5 568.5 Q 271.5 556.5 264.5 528.5 Q 256.5 500.5 240.5 468.5 Q 224.5 434.5 195.5 394.5 Q 167.5 354.5 137.5 324.5 Q 107.5 294.5 84.5 278.5 L 64.5 262.5 Q 54.5 255.5 54.5 250.5 L 54.5 248.5 Q 55.5 245.5 59.5 245.5 Q 64.5 245.5 74.5 250.5 L 98.5 260.5 Q 127.5 271.5 150.5 287.5 Q 173.5 304.5 188.5 317.5 Q 202.5 330.5 210.5 340.5 Q 218.5 348.5 224.5 357.5 L 254.5 396.5 Z" fill="lightgray"></path>
      </clipPath>
      <path clip-path="url(#make-me-a-hanzi-clip-1)" d="M 283.5 573.5 L 306.5 550.5 L 273.5 476.5 L 232.5 405.5 L 171.5 329.5 L 113.5 281.5 L 58.5 249.5 " fill="none" id="make-me-a-hanzi-animation-1" stroke-dasharray="560 1120" stroke-linecap="round"></path>

      <clipPath id="make-me-a-hanzi-clip-2">
      <path d="M 224.5 357.5 L 240.5 226.5 Q 242.5 207.5 249.5 195.5 Q 256.5 184.5 263.5 184.5 Q 270.5 185.5 273.5 192.5 Q 276.5 200.5 278.5 207.5 L 276.5 244.5 L 270.5 370.5 C 269.5 400.5 220.5 387.5 224.5 357.5 Z" fill="lightgray"></path>
      </clipPath>
      <path clip-path="url(#make-me-a-hanzi-clip-2)" d="M 264.5 362.5 L 248.5 338.5 L 263.5 194.5 " fill="none" id="make-me-a-hanzi-animation-2" stroke-dasharray="302 604" stroke-linecap="round"></path>

      <clipPath id="make-me-a-hanzi-clip-3">
      <path d="M 417.5 246.5 L 441.5 326.5 Q 446.5 344.5 450.5 350.5 Q 453.5 356.5 461.5 369.5 Q 469.5 381.5 472.5 384.5 Q 478.5 392.5 478.5 396.5 Q 478.5 400.5 471.5 405.5 Q 465.5 410.5 450.5 418.5 L 428.5 427.5 Q 422.5 430.5 414.5 432.5 Q 409.5 433.5 405.5 433.5 L 402.5 433.5 Q 397.5 432.5 386.5 427.5 Q 376.5 422.5 354.5 414.5 Q 332.5 407.5 320.5 405.5 Q 308.5 402.5 291.5 400.5 Q 274.5 398.5 254.5 396.5 C 185.5 389.5 204.5 359.5 270.5 370.5 L 300.5 375.5 L 348.5 381.5 L 374.5 386.5 L 378.5 386.5 Q 384.5 386.5 388.5 384.5 Q 392.5 382.5 393.5 377.5 L 393.5 374.5 Q 393.5 367.5 390.5 348.5 L 374.5 258.5 C 369.5 228.5 408.5 217.5 417.5 246.5 Z" fill="lightgray"></path>
      </clipPath>
      <path clip-path="url(#make-me-a-hanzi-clip-3)" d="M 239.5 369.5 L 262.5 383.5 L 379.5 405.5 L 411.5 402.5 L 429.5 387.5 L 401.5 276.5 L 412.5 255.5 " fill="none" id="make-me-a-hanzi-animation-3" stroke-dasharray="468 936" stroke-linecap="round"></path>

      <clipPath id="make-me-a-hanzi-clip-4">
      <path d="M 278.5 207.5 L 292.5 209.5 L 330.5 211.5 L 384.5 218.5 Q 416.5 220.5 424.5 222.5 Q 432.5 224.5 434.5 227.5 L 434.5 228.5 Q 434.5 231.5 429.5 236.5 L 417.5 246.5 C 397.5 263.5 397.5 263.5 374.5 258.5 L 360.5 255.5 Q 356.5 254.5 326.5 250.5 Q 296.5 246.5 276.5 244.5 C 246.5 241.5 248.5 203.5 278.5 207.5 Z" fill="lightgray"></path>
      </clipPath>
      <path clip-path="url(#make-me-a-hanzi-clip-4)" d="M 284.5 214.5 L 293.5 226.5 L 371.5 237.5 L 428.5 228.5 " fill="none" id="make-me-a-hanzi-animation-4" stroke-dasharray="279 558" stroke-linecap="round"></path>

      <clipPath id="make-me-a-hanzi-clip-5">
      <path d="M 616.5 528.5 L 626.5 543.5 C 627.5 545.5 627.5 545.5 626.5 570.5 L 623.5 635.5 L 620.5 666.5 L 617.5 737.5 C 616.5 760.5 616.5 760.5 598.5 764.5 L 570.5 770.5 Q 559.5 771.5 553.5 771.5 L 548.5 771.5 Q 544.5 769.5 542.5 766.5 L 542.5 760.5 Q 544.5 756.5 552.5 742.5 Q 561.5 729.5 564.5 715.5 Q 568.5 700.5 572.5 671.5 L 584.5 582.5 L 588.5 558.5 Q 588.5 550.5 594.5 534.5 C 603.5 508.5 603.5 508.5 616.5 528.5 Z" fill="lightgray"></path>
      </clipPath>
      <path clip-path="url(#make-me-a-hanzi-clip-5)" d="M 550.5 763.5 L 582.5 741.5 L 590.5 727.5 L 612.5 536.5 " fill="none" id="make-me-a-hanzi-animation-5" stroke-dasharray="375 750" stroke-linecap="round"></path>

      <clipPath id="make-me-a-hanzi-clip-6">
      <path d="M 763.5 548.5 L 777.5 532.5 Q 779.5 528.5 783.5 528.5 Q 787.5 528.5 793.5 532.5 Q 805.5 539.5 812.5 552.5 Q 819.5 564.5 823.5 577.5 L 854.5 681.5 Q 856.5 692.5 861.5 706.5 Q 866.5 719.5 870.5 726.5 Q 874.5 733.5 881.5 742.5 Q 888.5 752.5 888.5 756.5 Q 888.5 762.5 877.5 769.5 Q 865.5 777.5 851.5 784.5 Q 836.5 790.5 818.5 798.5 Q 800.5 806.5 792.5 807.5 Q 784.5 807.5 763.5 798.5 Q 742.5 790.5 698.5 781.5 Q 654.5 772.5 640.5 770.5 L 598.5 764.5 C 568.5 760.5 587.5 733.5 617.5 737.5 L 677.5 746.5 L 714.5 753.5 Q 750.5 758.5 758.5 760.5 Q 764.5 761.5 769.5 761.5 L 774.5 761.5 Q 782.5 760.5 786.5 755.5 Q 790.5 750.5 790.5 740.5 Q 790.5 730.5 789.5 718.5 Q 788.5 706.5 784.5 676.5 L 782.5 661.5 L 773.5 617.5 Q 772.5 610.5 762.5 575.5 C 756.5 555.5 756.5 555.5 763.5 548.5 Z" fill="lightgray"></path>
      </clipPath>
      <path clip-path="url(#make-me-a-hanzi-clip-6)" d="M 605.5 762.5 L 637.5 754.5 L 779.5 783.5 L 801.5 777.5 L 832.5 746.5 L 785.5 538.5 " fill="none" id="make-me-a-hanzi-animation-6" stroke-dasharray="586 1172" stroke-linecap="round"></path>

      <clipPath id="make-me-a-hanzi-clip-7">
      <path d="M 784.5 676.5 L 760.5 685.5 Q 746.5 691.5 730.5 691.5 L 726.5 691.5 Q 715.5 690.5 689.5 682.5 Q 662.5 674.5 620.5 666.5 C 591.5 660.5 593.5 634.5 623.5 635.5 L 664.5 637.5 Q 672.5 637.5 705.5 644.5 L 742.5 653.5 Q 755.5 656.5 782.5 661.5 C 810.5 666.5 810.5 666.5 784.5 676.5 Z" fill="lightgray"></path>
      </clipPath>
      <path clip-path="url(#make-me-a-hanzi-clip-7)" d="M 629.5 643.5 L 638.5 652.5 L 725.5 670.5 L 775.5 670.5 " fill="none" id="make-me-a-hanzi-animation-7" stroke-dasharray="280 560" stroke-linecap="round"></path>

      <clipPath id="make-me-a-hanzi-clip-8">
      <path d="M 626.5 543.5 L 660.5 540.5 Q 664.5 539.5 670.5 539.5 Q 677.5 539.5 686.5 540.5 L 724.5 544.5 L 763.5 548.5 C 793.5 551.5 791.5 568.5 762.5 575.5 L 732.5 582.5 Q 730.5 583.5 726.5 583.5 Q 719.5 583.5 705.5 580.5 Q 684.5 577.5 664.5 575.5 Q 644.5 572.5 626.5 570.5 C 596.5 567.5 596.5 546.5 626.5 543.5 Z" fill="lightgray"></path>
      </clipPath>
      <path clip-path="url(#make-me-a-hanzi-clip-8)" d="M 632.5 550.5 L 641.5 557.5 L 723.5 564.5 L 756.5 554.5 " fill="none" id="make-me-a-hanzi-animation-8" stroke-dasharray="256 512" stroke-linecap="round"></path>

      <clipPath id="make-me-a-hanzi-clip-9">
      <path d="M 594.5 534.5 L 591.5 520.5 L 586.5 497.5 Q 582.5 481.5 576.5 466.5 Q 570.5 452.5 552.5 428.5 Q 534.5 404.5 514.5 380.5 L 492.5 356.5 Q 485.5 348.5 485.5 343.5 Q 485.5 342.5 486.5 341.5 Q 487.5 340.5 489.5 340.5 Q 493.5 340.5 502.5 344.5 L 526.5 358.5 Q 543.5 367.5 561.5 382.5 L 604.5 420.5 L 628.5 451.5 L 640.5 463.5 L 654.5 470.5 Q 656.5 473.5 656.5 478.5 Q 656.5 481.5 655.5 485.5 Q 652.5 494.5 644.5 503.5 Q 636.5 512.5 631.5 516.5 L 616.5 528.5 C 596.5 544.5 596.5 544.5 594.5 534.5 Z" fill="lightgray"></path>
      </clipPath>
      <path clip-path="url(#make-me-a-hanzi-clip-9)" d="M 598.5 526.5 L 615.5 482.5 L 584.5 432.5 L 526.5 372.5 L 489.5 344.5 " fill="none" id="make-me-a-hanzi-animation-9" stroke-dasharray="364 728" stroke-linecap="round"></path>

      <clipPath id="make-me-a-hanzi-clip-10">
      <path d="M 604.5 420.5 L 622.5 416.5 Q 624.5 416.5 634.5 418.5 Q 646.5 420.5 673.5 424.5 Q 700.5 428.5 715.5 429.5 Q 730.5 431.5 782.5 436.5 Q 824.5 440.5 841.5 440.5 L 847.5 440.5 Q 874.5 439.5 881.5 430.5 Q 888.5 422.5 888.5 402.5 Q 888.5 382.5 885.5 325.5 Q 882.5 268.5 881.5 258.5 Q 880.5 248.5 875.5 207.5 Q 870.5 166.5 864.5 138.5 Q 858.5 110.5 849.5 92.5 Q 840.5 74.5 830.5 68.5 Q 821.5 62.5 810.5 62.5 Q 799.5 62.5 785.5 69.5 L 768.5 78.5 L 742.5 88.5 Q 740.5 89.5 737.5 89.5 Q 734.5 89.5 732.5 87.5 Q 731.5 86.5 731.5 84.5 Q 731.5 80.5 735.5 74.5 L 766.5 28.5 L 790.5 -9.5 Q 800.5 -25.5 808.5 -29.5 Q 812.5 -31.5 817.5 -31.5 Q 831.5 -31.5 852.5 -13.5 Q 880.5 8.5 893.5 28.5 Q 906.5 48.5 913.5 76.5 Q 920.5 102.5 924.5 126.5 Q 927.5 150.5 929.5 170.5 L 940.5 302.5 Q 941.5 324.5 946.5 351.5 Q 950.5 378.5 953.5 390.5 Q 956.5 401.5 962.5 412.5 Q 969.5 425.5 969.5 432.5 L 969.5 433.5 Q 968.5 438.5 956.5 448.5 L 936.5 463.5 L 910.5 479.5 Q 901.5 486.5 898.5 486.5 Q 896.5 487.5 894.5 487.5 Q 889.5 487.5 882.5 484.5 Q 871.5 481.5 846.5 476.5 Q 820.5 472.5 804.5 470.5 L 628.5 451.5 C 598.5 448.5 574.5 423.5 604.5 420.5 Z" fill="lightgray"></path>
      </clipPath>
      <path clip-path="url(#make-me-a-hanzi-clip-10)" d="M 610.5 424.5 L 637.5 436.5 L 666.5 440.5 L 884.5 459.5 L 902.5 451.5 L 925.5 423.5 L 895.5 137.5 L 870.5 59.5 L 853.5 38.5 L 821.5 20.5 L 793.5 36.5 L 736.5 84.5 " fill="none" id="make-me-a-hanzi-animation-10" stroke-dasharray="1002 2004" stroke-linecap="round"></path>

      <clipPath id="make-me-a-hanzi-clip-11">
      <path d="M 699.5 336.5 L 712.5 356.5 Q 715.5 362.5 722.5 368.5 Q 728.5 374.5 734.5 378.5 Q 740.5 381.5 740.5 383.5 L 740.5 385.5 Q 740.5 390.5 734.5 396.5 Q 726.5 404.5 708.5 409.5 L 685.5 416.5 Q 679.5 418.5 675.5 418.5 Q 672.5 418.5 670.5 416.5 Q 668.5 414.5 668.5 411.5 Q 667.5 408.5 666.5 393.5 Q 664.5 377.5 656.5 356.5 Q 648.5 334.5 637.5 315.5 Q 626.5 296.5 612.5 276.5 Q 599.5 256.5 591.5 248.5 L 579.5 235.5 Q 571.5 227.5 571.5 223.5 Q 571.5 221.5 573.5 220.5 Q 574.5 219.5 577.5 219.5 Q 581.5 219.5 587.5 223.5 L 604.5 234.5 Q 624.5 247.5 641.5 263.5 Q 658.5 279.5 668.5 292.5 Q 679.5 306.5 690.5 322.5 L 699.5 336.5 Z" fill="lightgray"></path>
      </clipPath>
      <path clip-path="url(#make-me-a-hanzi-clip-11)" d="M 734.5 384.5 L 694.5 381.5 L 663.5 318.5 L 635.5 279.5 L 576.5 224.5 " fill="none" id="make-me-a-hanzi-animation-11" stroke-dasharray="367 734" stroke-linecap="round"></path>

      <clipPath id="make-me-a-hanzi-clip-12">
      <path d="M 690.5 322.5 L 753.5 260.5 Q 760.5 252.5 770.5 243.5 Q 780.5 234.5 788.5 230.5 Q 795.5 226.5 800.5 226.5 L 802.5 226.5 Q 810.5 226.5 818.5 234.5 Q 825.5 241.5 825.5 251.5 L 825.5 254.5 Q 824.5 266.5 820.5 278.5 Q 814.5 290.5 796.5 300.5 Q 778.5 310.5 756.5 318.5 L 699.5 336.5 C 670.5 345.5 669.5 343.5 690.5 322.5 Z" fill="lightgray"></path>
      </clipPath>
      <path clip-path="url(#make-me-a-hanzi-clip-12)" d="M 699.5 321.5 L 705.5 323.5 L 767.5 284.5 L 790.5 267.5 L 801.5 247.5 " fill="none" id="make-me-a-hanzi-animation-12" stroke-dasharray="259 518" stroke-linecap="round"></path>

      <clipPath id="make-me-a-hanzi-clip-13">
      <path d="M 502.5 186.5 Q 502.5 166.5 503.5 154.5 Q 504.5 142.5 509.5 136.5 Q 514.5 128.5 530.5 124.5 Q 544.5 120.5 567.5 120.5 Q 595.5 120.5 636.5 122.5 Q 678.5 124.5 705.5 126.5 Q 732.5 129.5 764.5 134.5 Q 797.5 138.5 812.5 141.5 Q 828.5 144.5 830.5 147.5 Q 831.5 148.5 831.5 150.5 Q 831.5 153.5 828.5 158.5 Q 825.5 165.5 813.5 172.5 Q 802.5 180.5 794.5 184.5 Q 786.5 188.5 778.5 188.5 Q 774.5 188.5 754.5 180.5 Q 734.5 172.5 708.5 169.5 L 680.5 165.5 Q 648.5 160.5 620.5 160.5 L 588.5 160.5 Q 574.5 158.5 566.5 158.5 Q 552.5 158.5 550.5 162.5 Q 546.5 167.5 544.5 175.5 Q 543.5 181.5 543.5 188.5 L 543.5 196.5 L 545.5 230.5 Q 546.5 248.5 551.5 262.5 Q 556.5 276.5 556.5 281.5 Q 554.5 286.5 545.5 294.5 Q 536.5 303.5 526.5 308.5 Q 516.5 314.5 504.5 316.5 Q 500.5 317.5 497.5 317.5 Q 492.5 317.5 490.5 315.5 Q 487.5 312.5 487.5 308.5 Q 488.5 304.5 491.5 297.5 Q 494.5 289.5 496.5 272.5 Q 498.5 256.5 499.5 250.5 L 502.5 186.5 Z" fill="lightgray"></path>
      </clipPath>
      <path clip-path="url(#make-me-a-hanzi-clip-13)" d="M 496.5 308.5 L 525.5 274.5 L 523.5 169.5 L 531.5 148.5 L 560.5 139.5 L 643.5 141.5 L 723.5 149.5 L 781.5 162.5 L 825.5 150.5 " fill="none" id="make-me-a-hanzi-animation-13" stroke-dasharray="599 1198" stroke-linecap="round"></path>

</g>
</svg>
