<svg version="1.1" viewBox="0 0 1024 1024" xmlns="http://www.w3.org/2000/svg">
  <g stroke="lightgray" stroke-dasharray="1,1" stroke-width="1" transform="scale(4, 4)">
    <line x1="0" y1="0" x2="256" y2="256"></line>
    <line x1="256" y1="0" x2="0" y2="256"></line>
    <line x1="128" y1="0" x2="128" y2="256"></line>
    <line x1="0" y1="128" x2="256" y2="128"></line>
  </g>
  <g transform="scale(0.92, -0.92) translate(60, -900)">
    <style type="text/css">
      
        @keyframes keyframes0 {
          from {
            stroke: blue;
            stroke-dashoffset: 410;
            stroke-width: 128;
          }
          57% {
            animation-timing-function: step-end;
            stroke: blue;
            stroke-dashoffset: 0;
            stroke-width: 128;
          }
          to {
            stroke: black;
            stroke-width: 1024;
          }
        }
        #make-me-a-hanzi-animation-0 {
          animation: keyframes0 0.5836588541666666s both;
          animation-delay: 0s;
          animation-timing-function: linear;
        }
      
        @keyframes keyframes1 {
          from {
            stroke: blue;
            stroke-dashoffset: 464;
            stroke-width: 128;
          }
          60% {
            animation-timing-function: step-end;
            stroke: blue;
            stroke-dashoffset: 0;
            stroke-width: 128;
          }
          to {
            stroke: black;
            stroke-width: 1024;
          }
        }
        #make-me-a-hanzi-animation-1 {
          animation: keyframes1 0.6276041666666666s both;
          animation-delay: 0.5836588541666666s;
          animation-timing-function: linear;
        }
      
        @keyframes keyframes2 {
          from {
            stroke: blue;
            stroke-dashoffset: 954;
            stroke-width: 128;
          }
          76% {
            animation-timing-function: step-end;
            stroke: blue;
            stroke-dashoffset: 0;
            stroke-width: 128;
          }
          to {
            stroke: black;
            stroke-width: 1024;
          }
        }
        #make-me-a-hanzi-animation-2 {
          animation: keyframes2 1.0263671875s both;
          animation-delay: 1.2112630208333333s;
          animation-timing-function: linear;
        }
      
        @keyframes keyframes3 {
          from {
            stroke: blue;
            stroke-dashoffset: 519;
            stroke-width: 128;
          }
          63% {
            animation-timing-function: step-end;
            stroke: blue;
            stroke-dashoffset: 0;
            stroke-width: 128;
          }
          to {
            stroke: black;
            stroke-width: 1024;
          }
        }
        #make-me-a-hanzi-animation-3 {
          animation: keyframes3 0.67236328125s both;
          animation-delay: 2.237630208333333s;
          animation-timing-function: linear;
        }
      
        @keyframes keyframes4 {
          from {
            stroke: blue;
            stroke-dashoffset: 662;
            stroke-width: 128;
          }
          68% {
            animation-timing-function: step-end;
            stroke: blue;
            stroke-dashoffset: 0;
            stroke-width: 128;
          }
          to {
            stroke: black;
            stroke-width: 1024;
          }
        }
        #make-me-a-hanzi-animation-4 {
          animation: keyframes4 0.7887369791666666s both;
          animation-delay: 2.909993489583333s;
          animation-timing-function: linear;
        }
      
        @keyframes keyframes5 {
          from {
            stroke: blue;
            stroke-dashoffset: 1584;
            stroke-width: 128;
          }
          84% {
            animation-timing-function: step-end;
            stroke: blue;
            stroke-dashoffset: 0;
            stroke-width: 128;
          }
          to {
            stroke: black;
            stroke-width: 1024;
          }
        }
        #make-me-a-hanzi-animation-5 {
          animation: keyframes5 1.5390625s both;
          animation-delay: 3.6987304687499996s;
          animation-timing-function: linear;
        }
      
    </style>
    
      <path d="M 462 705 Q 493 683 527 654 Q 543 641 561 644 Q 571 645 576 660 Q 580 676 567 708 Q 560 730 524 742 Q 440 763 428 755 Q 422 751 425 737 Q 431 724 462 705 Z" fill="lightgray"></path>
    
      <path d="M 255 559 Q 245 584 233 593 Q 214 609 211 582 Q 217 543 149 469 Q 130 448 153 390 Q 171 365 187 390 Q 206 415 221 454 Q 239 502 253 528 C 261 544 261 544 255 559 Z" fill="lightgray"></path>
    
      <path d="M 253 528 Q 277 516 314 523 Q 446 565 689 587 Q 734 591 749 588 Q 767 584 764 573 L 717 477 L 719 476 Q 728 472 745 483 Q 803 520 851 531 Q 891 541 890 552 Q 887 562 819 618 Q 794 642 722 626 Q 638 617 366 575 Q 311 565 255 559 C 225 556 224 537 253 528 Z" fill="lightgray"></path>
    
      <path d="M 363 487 Q 369 445 309 365 Q 306 364 306 362 Q 288 340 241 294 Q 234 290 243 287 Q 307 287 423 436 Q 427 443 432 446 Q 438 450 437 459 Q 436 468 425 478 Q 395 505 369 500 Q 362 499 363 487 Z" fill="lightgray"></path>
    
      <path d="M 598 495 Q 607 513 593 526 Q 571 547 547 552 Q 531 555 527 549 Q 520 545 529 531 Q 538 510 533 422 Q 532 388 549 368 Q 600 311 747 338 Q 783 344 793 354 Q 805 364 796 374 Q 786 387 752 401 Q 733 408 718 394 Q 694 378 656 374 Q 619 370 593 383 Q 581 392 579 419 Q 579 465 598 495 Z" fill="lightgray"></path>
    
      <path d="M 265 250 Q 250 249 247 240 Q 244 233 253 228 Q 287 218 323 222 Q 404 252 433 254 Q 457 254 457 246 Q 460 237 444 224 Q 276 80 264 2 Q 268 -44 304 -74 Q 344 -108 432 -130 Q 507 -149 606 -146 Q 721 -143 858 -85 Q 892 -67 881 -41 Q 854 11 832 100 Q 825 113 818 113 Q 811 113 808 95 Q 804 64 797 29 Q 790 -20 753 -39 Q 698 -72 565 -77 Q 435 -84 384 -61 Q 338 -39 324 6 Q 324 78 468 178 Q 513 209 551 218 Q 579 225 573 241 Q 567 257 520 295 Q 501 311 471 301 Q 360 258 265 250 Z" fill="lightgray"></path>
    
    
      <clipPath id="make-me-a-hanzi-clip-0">
        <path d="M 462 705 Q 493 683 527 654 Q 543 641 561 644 Q 571 645 576 660 Q 580 676 567 708 Q 560 730 524 742 Q 440 763 428 755 Q 422 751 425 737 Q 431 724 462 705 Z"></path>
      </clipPath>
      <path clip-path="url(#make-me-a-hanzi-clip-0)" d="M 433 748 L 527 701 L 557 663" fill="none" id="make-me-a-hanzi-animation-0" stroke-dasharray="282 564" stroke-linecap="round"></path>
    
      <clipPath id="make-me-a-hanzi-clip-1">
        <path d="M 255 559 Q 245 584 233 593 Q 214 609 211 582 Q 217 543 149 469 Q 130 448 153 390 Q 171 365 187 390 Q 206 415 221 454 Q 239 502 253 528 C 261 544 261 544 255 559 Z"></path>
      </clipPath>
      <path clip-path="url(#make-me-a-hanzi-clip-1)" d="M 222 587 L 232 557 L 228 535 L 177 445 L 170 395" fill="none" id="make-me-a-hanzi-animation-1" stroke-dasharray="336 672" stroke-linecap="round"></path>
    
      <clipPath id="make-me-a-hanzi-clip-2">
        <path d="M 253 528 Q 277 516 314 523 Q 446 565 689 587 Q 734 591 749 588 Q 767 584 764 573 L 717 477 L 719 476 Q 728 472 745 483 Q 803 520 851 531 Q 891 541 890 552 Q 887 562 819 618 Q 794 642 722 626 Q 638 617 366 575 Q 311 565 255 559 C 225 556 224 537 253 528 Z"></path>
      </clipPath>
      <path clip-path="url(#make-me-a-hanzi-clip-2)" d="M 263 551 L 274 541 L 302 542 L 487 580 L 735 610 L 788 600 L 809 566 L 734 486 L 721 483" fill="none" id="make-me-a-hanzi-animation-2" stroke-dasharray="826 1652" stroke-linecap="round"></path>
    
      <clipPath id="make-me-a-hanzi-clip-3">
        <path d="M 363 487 Q 369 445 309 365 Q 306 364 306 362 Q 288 340 241 294 Q 234 290 243 287 Q 307 287 423 436 Q 427 443 432 446 Q 438 450 437 459 Q 436 468 425 478 Q 395 505 369 500 Q 362 499 363 487 Z"></path>
      </clipPath>
      <path clip-path="url(#make-me-a-hanzi-clip-3)" d="M 376 489 L 396 458 L 367 407 L 308 337 L 247 292" fill="none" id="make-me-a-hanzi-animation-3" stroke-dasharray="391 782" stroke-linecap="round"></path>
    
      <clipPath id="make-me-a-hanzi-clip-4">
        <path d="M 598 495 Q 607 513 593 526 Q 571 547 547 552 Q 531 555 527 549 Q 520 545 529 531 Q 538 510 533 422 Q 532 388 549 368 Q 600 311 747 338 Q 783 344 793 354 Q 805 364 796 374 Q 786 387 752 401 Q 733 408 718 394 Q 694 378 656 374 Q 619 370 593 383 Q 581 392 579 419 Q 579 465 598 495 Z"></path>
      </clipPath>
      <path clip-path="url(#make-me-a-hanzi-clip-4)" d="M 536 541 L 548 533 L 567 504 L 557 456 L 557 403 L 568 379 L 582 366 L 642 351 L 692 355 L 741 370 L 787 365" fill="none" id="make-me-a-hanzi-animation-4" stroke-dasharray="534 1068" stroke-linecap="round"></path>
    
      <clipPath id="make-me-a-hanzi-clip-5">
        <path d="M 265 250 Q 250 249 247 240 Q 244 233 253 228 Q 287 218 323 222 Q 404 252 433 254 Q 457 254 457 246 Q 460 237 444 224 Q 276 80 264 2 Q 268 -44 304 -74 Q 344 -108 432 -130 Q 507 -149 606 -146 Q 721 -143 858 -85 Q 892 -67 881 -41 Q 854 11 832 100 Q 825 113 818 113 Q 811 113 808 95 Q 804 64 797 29 Q 790 -20 753 -39 Q 698 -72 565 -77 Q 435 -84 384 -61 Q 338 -39 324 6 Q 324 78 468 178 Q 513 209 551 218 Q 579 225 573 241 Q 567 257 520 295 Q 501 311 471 301 Q 360 258 265 250 Z"></path>
      </clipPath>
      <path clip-path="url(#make-me-a-hanzi-clip-5)" d="M 257 238 L 327 240 L 437 272 L 476 271 L 501 255 L 501 246 L 476 216 L 384 142 L 346 102 L 306 44 L 296 13 L 294 -1 L 301 -21 L 326 -55 L 380 -88 L 416 -98 L 501 -111 L 650 -107 L 732 -90 L 789 -67 L 825 -43 L 819 106" fill="none" id="make-me-a-hanzi-animation-5" stroke-dasharray="1456 2912" stroke-linecap="round"></path>
    
  </g>
</svg>