<svg version="1.1" viewBox="0 0 1024 1024" xmlns="http://www.w3.org/2000/svg">
  <g stroke="lightgray" stroke-dasharray="1,1" stroke-width="1" transform="scale(4, 4)">
    <line x1="0" y1="0" x2="256" y2="256"></line>
    <line x1="256" y1="0" x2="0" y2="256"></line>
    <line x1="128" y1="0" x2="128" y2="256"></line>
    <line x1="0" y1="128" x2="256" y2="128"></line>
  </g>
<g transform="scale(1, -1) translate(0, -900)">
   <style type="text/css">
    @keyframes keyframes0 {
      from {
       stroke: blue;
       stroke-dashoffset: 403;
       stroke-width: 128;
       }
       57% {
       animation-timing-function: step-end;
       stroke: blue;
       stroke-dashoffset: 0;
       stroke-width: 128;
       }
       to {
       stroke: black;
       stroke-width: 1024;
       }
       }
       #make-me-a-hanzi-animation-0 {
         animation: keyframes0 0.577962s both;
         animation-delay: 0.000000s;
         animation-timing-function: linear;
       }
    @keyframes keyframes1 {
      from {
       stroke: blue;
       stroke-dashoffset: 524;
       stroke-width: 128;
       }
       63% {
       animation-timing-function: step-end;
       stroke: blue;
       stroke-dashoffset: 0;
       stroke-width: 128;
       }
       to {
       stroke: black;
       stroke-width: 1024;
       }
       }
       #make-me-a-hanzi-animation-1 {
         animation: keyframes1 0.676432s both;
         animation-delay: 0.577962s;
         animation-timing-function: linear;
       }
    @keyframes keyframes2 {
      from {
       stroke: blue;
       stroke-dashoffset: 382;
       stroke-width: 128;
       }
       55% {
       animation-timing-function: step-end;
       stroke: blue;
       stroke-dashoffset: 0;
       stroke-width: 128;
       }
       to {
       stroke: black;
       stroke-width: 1024;
       }
       }
       #make-me-a-hanzi-animation-2 {
         animation: keyframes2 0.560872s both;
         animation-delay: 1.254395s;
         animation-timing-function: linear;
       }
    @keyframes keyframes3 {
      from {
       stroke: blue;
       stroke-dashoffset: 544;
       stroke-width: 128;
       }
       64% {
       animation-timing-function: step-end;
       stroke: blue;
       stroke-dashoffset: 0;
       stroke-width: 128;
       }
       to {
       stroke: black;
       stroke-width: 1024;
       }
       }
       #make-me-a-hanzi-animation-3 {
         animation: keyframes3 0.692708s both;
         animation-delay: 1.815267s;
         animation-timing-function: linear;
       }
    @keyframes keyframes4 {
      from {
       stroke: blue;
       stroke-dashoffset: 624;
       stroke-width: 128;
       }
       67% {
       animation-timing-function: step-end;
       stroke: blue;
       stroke-dashoffset: 0;
       stroke-width: 128;
       }
       to {
       stroke: black;
       stroke-width: 1024;
       }
       }
       #make-me-a-hanzi-animation-4 {
         animation: keyframes4 0.757812s both;
         animation-delay: 2.507975s;
         animation-timing-function: linear;
       }
    @keyframes keyframes5 {
      from {
       stroke: blue;
       stroke-dashoffset: 697;
       stroke-width: 128;
       }
       69% {
       animation-timing-function: step-end;
       stroke: blue;
       stroke-dashoffset: 0;
       stroke-width: 128;
       }
       to {
       stroke: black;
       stroke-width: 1024;
       }
       }
       #make-me-a-hanzi-animation-5 {
         animation: keyframes5 0.817220s both;
         animation-delay: 3.265788s;
         animation-timing-function: linear;
       }
    @keyframes keyframes6 {
      from {
       stroke: blue;
       stroke-dashoffset: 1278;
       stroke-width: 128;
       }
       81% {
       animation-timing-function: step-end;
       stroke: blue;
       stroke-dashoffset: 0;
       stroke-width: 128;
       }
       to {
       stroke: black;
       stroke-width: 1024;
       }
       }
       #make-me-a-hanzi-animation-6 {
         animation: keyframes6 1.290039s both;
         animation-delay: 4.083008s;
         animation-timing-function: linear;
       }
    @keyframes keyframes7 {
      from {
       stroke: blue;
       stroke-dashoffset: 476;
       stroke-width: 128;
       }
       61% {
       animation-timing-function: step-end;
       stroke: blue;
       stroke-dashoffset: 0;
       stroke-width: 128;
       }
       to {
       stroke: black;
       stroke-width: 1024;
       }
       }
       #make-me-a-hanzi-animation-7 {
         animation: keyframes7 0.637370s both;
         animation-delay: 5.373047s;
         animation-timing-function: linear;
       }
    @keyframes keyframes8 {
      from {
       stroke: blue;
       stroke-dashoffset: 506;
       stroke-width: 128;
       }
       62% {
       animation-timing-function: step-end;
       stroke: blue;
       stroke-dashoffset: 0;
       stroke-width: 128;
       }
       to {
       stroke: black;
       stroke-width: 1024;
       }
       }
       #make-me-a-hanzi-animation-8 {
         animation: keyframes8 0.661784s both;
         animation-delay: 6.010417s;
         animation-timing-function: linear;
       }
    @keyframes keyframes9 {
      from {
       stroke: blue;
       stroke-dashoffset: 393;
       stroke-width: 128;
       }
       56% {
       animation-timing-function: step-end;
       stroke: blue;
       stroke-dashoffset: 0;
       stroke-width: 128;
       }
       to {
       stroke: black;
       stroke-width: 1024;
       }
       }
       #make-me-a-hanzi-animation-9 {
         animation: keyframes9 0.569824s both;
         animation-delay: 6.672201s;
         animation-timing-function: linear;
       }
</style>
<path d="M 294.5 702.0 Q 319.5 675.0 347.5 644.0 Q 360.5 629.0 378.5 629.0 Q 390.5 629.0 397.5 643.0 Q 403.5 659.0 395.5 692.0 Q 391.5 713.0 359.5 730.0 Q 283.5 763.0 268.5 757.0 Q 262.5 753.0 263.5 739.0 Q 266.5 726.0 294.5 702.0 Z" fill="lightgray"></path> 
<path d="M 171.5 510.0 Q 137.5 503.0 162.5 488.0 Q 207.5 467.0 257.5 482.0 Q 324.5 498.0 395.5 517.0 Q 428.5 526.0 432.5 531.0 Q 441.5 538.0 436.5 547.0 Q 429.5 557.0 400.5 563.0 Q 370.5 567.0 287.5 535.0 Q 209.5 517.0 171.5 510.0 Z" fill="lightgray"></path> 
<path d="M 175.5 377.0 Q 199.5 296.0 223.5 273.0 Q 233.5 266.0 244.5 272.0 Q 254.5 279.0 258.5 293.0 Q 262.5 335.0 198.5 401.0 Q 188.5 411.0 179.5 411.0 Q 175.5 412.0 172.5 403.0 Q 169.5 393.0 175.5 377.0 Z" fill="lightgray"></path> 
<path d="M 334.5 228.0 Q 352.5 265.0 383.5 370.0 Q 392.5 400.0 411.5 439.0 Q 424.5 454.0 413.5 463.0 Q 401.5 478.0 368.5 492.0 Q 352.5 499.0 336.5 491.0 Q 327.5 484.0 335.5 475.0 Q 357.5 427.0 305.5 243.0 Q 301.5 230.0 300.5 218.0 C 296.5 188.0 321.5 201.0 334.5 228.0 Z" fill="lightgray"></path> 
<path d="M 300.5 218.0 Q 236.5 202.0 171.5 183.0 Q 152.5 177.0 119.5 179.0 Q 106.5 178.0 103.5 167.0 Q 102.5 154.0 110.5 144.0 Q 134.5 128.0 168.5 108.0 Q 178.5 104.0 191.5 113.0 Q 221.5 137.0 411.5 220.0 Q 438.5 230.0 456.5 245.0 Q 469.5 252.0 470.5 262.0 Q 466.5 268.0 452.5 265.0 Q 394.5 247.0 334.5 228.0 L 300.5 218.0 Z" fill="lightgray"></path> 
<path d="M 551.5 534.0 Q 608.5 631.0 638.5 696.0 Q 654.5 736.0 670.5 758.0 Q 677.5 770.0 671.5 782.0 Q 665.5 794.0 634.5 812.0 Q 606.5 825.0 587.5 823.0 Q 569.5 819.0 580.5 798.0 Q 625.5 738.0 458.5 449.0 Q 451.5 437.0 449.5 431.0 Q 448.5 421.0 460.5 424.0 Q 479.5 433.0 534.5 508.0 L 551.5 534.0 Z" fill="lightgray"></path> 
<path d="M 534.5 508.0 Q 555.5 505.0 658.5 522.0 Q 799.5 552.0 808.5 541.0 Q 830.5 505.0 816.5 288.0 Q 806.5 159.0 770.5 88.0 Q 755.5 54.0 732.5 47.0 Q 719.5 46.0 645.5 76.0 Q 635.5 80.0 635.5 74.0 Q 634.5 70.0 645.5 59.0 Q 691.5 10.0 711.5 -27.0 Q 721.5 -49.0 736.5 -49.0 Q 757.5 -46.0 778.5 -23.0 Q 811.5 5.0 832.5 54.0 Q 871.5 147.0 885.5 421.0 Q 885.5 496.0 908.5 524.0 Q 921.5 539.0 920.5 548.0 Q 919.5 557.0 897.5 570.0 Q 869.5 589.0 831.5 600.0 Q 809.5 607.0 734.5 581.0 Q 724.5 580.0 715.5 575.0 Q 673.5 563.0 551.5 534.0 C 522.5 527.0 504.5 507.0 534.5 508.0 Z" fill="lightgray"></path> 
<path d="M 552.5 399.0 Q 542.5 405.0 515.5 411.0 Q 505.5 415.0 501.5 410.0 Q 495.5 406.0 502.5 390.0 Q 524.5 335.0 534.5 243.0 Q 535.5 216.0 550.5 197.0 Q 565.5 176.0 570.5 190.0 Q 577.5 206.0 575.5 240.0 L 571.5 268.0 Q 562.5 347.0 562.5 372.0 C 562.5 394.0 562.5 394.0 552.5 399.0 Z" fill="lightgray"></path> 
<path d="M 698.5 288.0 Q 711.5 355.0 730.5 375.0 Q 749.5 400.0 729.5 412.0 Q 710.5 422.0 686.5 437.0 Q 668.5 446.0 651.5 435.0 Q 624.5 420.0 552.5 399.0 C 523.5 391.0 534.5 363.0 562.5 372.0 Q 587.5 381.0 634.5 388.0 Q 653.5 392.0 658.5 384.0 Q 665.5 380.0 660.5 350.0 Q 656.5 322.0 651.5 289.0 C 647.5 259.0 692.5 259.0 698.5 288.0 Z" fill="lightgray"></path> 
<path d="M 575.5 240.0 Q 581.5 239.0 589.5 241.0 Q 626.5 251.0 711.5 259.0 Q 720.5 260.0 720.5 268.0 Q 720.5 275.0 698.5 288.0 C 683.5 297.0 680.5 297.0 651.5 289.0 Q 606.5 277.0 571.5 268.0 C 542.5 261.0 545.5 242.0 575.5 240.0 Z" fill="lightgray"></path> 
      <clipPath id="make-me-a-hanzi-clip-0">
      <path d="M 294.5 702.0 Q 319.5 675.0 347.5 644.0 Q 360.5 629.0 378.5 629.0 Q 390.5 629.0 397.5 643.0 Q 403.5 659.0 395.5 692.0 Q 391.5 713.0 359.5 730.0 Q 283.5 763.0 268.5 757.0 Q 262.5 753.0 263.5 739.0 Q 266.5 726.0 294.5 702.0 Z" fill="lightgray"></path>
      </clipPath>
      <path clip-path="url(#make-me-a-hanzi-clip-0)" d="M 272.5 749.0 L 348.5 696.0 L 377.5 650.0 " fill="none" id="make-me-a-hanzi-animation-0" stroke-dasharray="275 550" stroke-linecap="round"></path>

      <clipPath id="make-me-a-hanzi-clip-1">
      <path d="M 171.5 510.0 Q 137.5 503.0 162.5 488.0 Q 207.5 467.0 257.5 482.0 Q 324.5 498.0 395.5 517.0 Q 428.5 526.0 432.5 531.0 Q 441.5 538.0 436.5 547.0 Q 429.5 557.0 400.5 563.0 Q 370.5 567.0 287.5 535.0 Q 209.5 517.0 171.5 510.0 Z" fill="lightgray"></path>
      </clipPath>
      <path clip-path="url(#make-me-a-hanzi-clip-1)" d="M 164.5 500.0 L 203.5 496.0 L 244.5 501.0 L 369.5 536.0 L 426.5 541.0 " fill="none" id="make-me-a-hanzi-animation-1" stroke-dasharray="396 792" stroke-linecap="round"></path>

      <clipPath id="make-me-a-hanzi-clip-2">
      <path d="M 175.5 377.0 Q 199.5 296.0 223.5 273.0 Q 233.5 266.0 244.5 272.0 Q 254.5 279.0 258.5 293.0 Q 262.5 335.0 198.5 401.0 Q 188.5 411.0 179.5 411.0 Q 175.5 412.0 172.5 403.0 Q 169.5 393.0 175.5 377.0 Z" fill="lightgray"></path>
      </clipPath>
      <path clip-path="url(#make-me-a-hanzi-clip-2)" d="M 181.5 402.0 L 219.5 334.0 L 234.5 288.0 " fill="none" id="make-me-a-hanzi-animation-2" stroke-dasharray="254 508" stroke-linecap="round"></path>

      <clipPath id="make-me-a-hanzi-clip-3">
      <path d="M 334.5 228.0 Q 352.5 265.0 383.5 370.0 Q 392.5 400.0 411.5 439.0 Q 424.5 454.0 413.5 463.0 Q 401.5 478.0 368.5 492.0 Q 352.5 499.0 336.5 491.0 Q 327.5 484.0 335.5 475.0 Q 357.5 427.0 305.5 243.0 Q 301.5 230.0 300.5 218.0 C 296.5 188.0 321.5 201.0 334.5 228.0 Z" fill="lightgray"></path>
      </clipPath>
      <path clip-path="url(#make-me-a-hanzi-clip-3)" d="M 341.5 483.0 L 365.5 466.0 L 376.5 446.0 L 335.5 281.0 L 322.5 241.0 L 305.5 224.0 " fill="none" id="make-me-a-hanzi-animation-3" stroke-dasharray="416 832" stroke-linecap="round"></path>

      <clipPath id="make-me-a-hanzi-clip-4">
      <path d="M 300.5 218.0 Q 236.5 202.0 171.5 183.0 Q 152.5 177.0 119.5 179.0 Q 106.5 178.0 103.5 167.0 Q 102.5 154.0 110.5 144.0 Q 134.5 128.0 168.5 108.0 Q 178.5 104.0 191.5 113.0 Q 221.5 137.0 411.5 220.0 Q 438.5 230.0 456.5 245.0 Q 469.5 252.0 470.5 262.0 Q 466.5 268.0 452.5 265.0 Q 394.5 247.0 334.5 228.0 L 300.5 218.0 Z" fill="lightgray"></path>
      </clipPath>
      <path clip-path="url(#make-me-a-hanzi-clip-4)" d="M 119.5 163.0 L 138.5 154.0 L 179.5 148.0 L 464.5 259.0 " fill="none" id="make-me-a-hanzi-animation-4" stroke-dasharray="496 992" stroke-linecap="round"></path>

      <clipPath id="make-me-a-hanzi-clip-5">
      <path d="M 551.5 534.0 Q 608.5 631.0 638.5 696.0 Q 654.5 736.0 670.5 758.0 Q 677.5 770.0 671.5 782.0 Q 665.5 794.0 634.5 812.0 Q 606.5 825.0 587.5 823.0 Q 569.5 819.0 580.5 798.0 Q 625.5 738.0 458.5 449.0 Q 451.5 437.0 449.5 431.0 Q 448.5 421.0 460.5 424.0 Q 479.5 433.0 534.5 508.0 L 551.5 534.0 Z" fill="lightgray"></path>
      </clipPath>
      <path clip-path="url(#make-me-a-hanzi-clip-5)" d="M 589.5 809.0 L 608.5 797.0 L 629.5 768.0 L 614.5 715.0 L 539.5 552.0 L 514.5 507.0 L 503.5 500.0 L 501.5 488.0 L 457.5 432.0 " fill="none" id="make-me-a-hanzi-animation-5" stroke-dasharray="569 1138" stroke-linecap="round"></path>

      <clipPath id="make-me-a-hanzi-clip-6">
      <path d="M 534.5 508.0 Q 555.5 505.0 658.5 522.0 Q 799.5 552.0 808.5 541.0 Q 830.5 505.0 816.5 288.0 Q 806.5 159.0 770.5 88.0 Q 755.5 54.0 732.5 47.0 Q 719.5 46.0 645.5 76.0 Q 635.5 80.0 635.5 74.0 Q 634.5 70.0 645.5 59.0 Q 691.5 10.0 711.5 -27.0 Q 721.5 -49.0 736.5 -49.0 Q 757.5 -46.0 778.5 -23.0 Q 811.5 5.0 832.5 54.0 Q 871.5 147.0 885.5 421.0 Q 885.5 496.0 908.5 524.0 Q 921.5 539.0 920.5 548.0 Q 919.5 557.0 897.5 570.0 Q 869.5 589.0 831.5 600.0 Q 809.5 607.0 734.5 581.0 Q 724.5 580.0 715.5 575.0 Q 673.5 563.0 551.5 534.0 C 522.5 527.0 504.5 507.0 534.5 508.0 Z" fill="lightgray"></path>
      </clipPath>
      <path clip-path="url(#make-me-a-hanzi-clip-6)" d="M 545.5 514.0 L 567.5 524.0 L 801.5 572.0 L 829.5 567.0 L 860.5 537.0 L 841.5 236.0 L 829.5 161.0 L 801.5 71.0 L 782.5 37.0 L 744.5 5.0 L 658.5 58.0 L 655.5 68.0 L 640.5 73.0 " fill="none" id="make-me-a-hanzi-animation-6" stroke-dasharray="1150 2300" stroke-linecap="round"></path>

      <clipPath id="make-me-a-hanzi-clip-7">
      <path d="M 552.5 399.0 Q 542.5 405.0 515.5 411.0 Q 505.5 415.0 501.5 410.0 Q 495.5 406.0 502.5 390.0 Q 524.5 335.0 534.5 243.0 Q 535.5 216.0 550.5 197.0 Q 565.5 176.0 570.5 190.0 Q 577.5 206.0 575.5 240.0 L 571.5 268.0 Q 562.5 347.0 562.5 372.0 C 562.5 394.0 562.5 394.0 552.5 399.0 Z" fill="lightgray"></path>
      </clipPath>
      <path clip-path="url(#make-me-a-hanzi-clip-7)" d="M 509.5 403.0 L 532.5 380.0 L 536.5 367.0 L 561.5 195.0 " fill="none" id="make-me-a-hanzi-animation-7" stroke-dasharray="348 696" stroke-linecap="round"></path>

      <clipPath id="make-me-a-hanzi-clip-8">
      <path d="M 698.5 288.0 Q 711.5 355.0 730.5 375.0 Q 749.5 400.0 729.5 412.0 Q 710.5 422.0 686.5 437.0 Q 668.5 446.0 651.5 435.0 Q 624.5 420.0 552.5 399.0 C 523.5 391.0 534.5 363.0 562.5 372.0 Q 587.5 381.0 634.5 388.0 Q 653.5 392.0 658.5 384.0 Q 665.5 380.0 660.5 350.0 Q 656.5 322.0 651.5 289.0 C 647.5 259.0 692.5 259.0 698.5 288.0 Z" fill="lightgray"></path>
      </clipPath>
      <path clip-path="url(#make-me-a-hanzi-clip-8)" d="M 565.5 381.0 L 585.5 395.0 L 657.5 412.0 L 671.5 411.0 L 688.5 398.0 L 696.5 390.0 L 682.5 324.0 L 678.5 312.0 L 659.5 296.0 " fill="none" id="make-me-a-hanzi-animation-8" stroke-dasharray="378 756" stroke-linecap="round"></path>

      <clipPath id="make-me-a-hanzi-clip-9">
      <path d="M 575.5 240.0 Q 581.5 239.0 589.5 241.0 Q 626.5 251.0 711.5 259.0 Q 720.5 260.0 720.5 268.0 Q 720.5 275.0 698.5 288.0 C 683.5 297.0 680.5 297.0 651.5 289.0 Q 606.5 277.0 571.5 268.0 C 542.5 261.0 545.5 242.0 575.5 240.0 Z" fill="lightgray"></path>
      </clipPath>
      <path clip-path="url(#make-me-a-hanzi-clip-9)" d="M 581.5 248.0 L 588.5 257.0 L 633.5 268.0 L 690.5 274.0 L 711.5 268.0 " fill="none" id="make-me-a-hanzi-animation-9" stroke-dasharray="265 530" stroke-linecap="round"></path>

</g>
</svg>
