<svg version="1.1" viewBox="0 0 1024 1024" xmlns="http://www.w3.org/2000/svg">
  <g stroke="lightgray" stroke-dasharray="1,1" stroke-width="1" transform="scale(4, 4)">
    <line x1="0" y1="0" x2="256" y2="256"></line>
    <line x1="256" y1="0" x2="0" y2="256"></line>
    <line x1="128" y1="0" x2="128" y2="256"></line>
    <line x1="0" y1="128" x2="256" y2="128"></line>
  </g>
<g transform="scale(1, -1) translate(0, -900)">
   <style type="text/css">
    @keyframes keyframes0 {
      from {
       stroke: blue;
       stroke-dashoffset: 715;
       stroke-width: 128;
       }
       70% {
       animation-timing-function: step-end;
       stroke: blue;
       stroke-dashoffset: 0;
       stroke-width: 128;
       }
       to {
       stroke: black;
       stroke-width: 1024;
       }
       }
       #make-me-a-hanzi-animation-0 {
         animation: keyframes0 0.831868s both;
         animation-delay: 0.000000s;
         animation-timing-function: linear;
       }
    @keyframes keyframes1 {
      from {
       stroke: blue;
       stroke-dashoffset: 804;
       stroke-width: 128;
       }
       72% {
       animation-timing-function: step-end;
       stroke: blue;
       stroke-dashoffset: 0;
       stroke-width: 128;
       }
       to {
       stroke: black;
       stroke-width: 1024;
       }
       }
       #make-me-a-hanzi-animation-1 {
         animation: keyframes1 0.904297s both;
         animation-delay: 0.831868s;
         animation-timing-function: linear;
       }
    @keyframes keyframes2 {
      from {
       stroke: blue;
       stroke-dashoffset: 346;
       stroke-width: 128;
       }
       53% {
       animation-timing-function: step-end;
       stroke: blue;
       stroke-dashoffset: 0;
       stroke-width: 128;
       }
       to {
       stroke: black;
       stroke-width: 1024;
       }
       }
       #make-me-a-hanzi-animation-2 {
         animation: keyframes2 0.531576s both;
         animation-delay: 1.736165s;
         animation-timing-function: linear;
       }
    @keyframes keyframes3 {
      from {
       stroke: blue;
       stroke-dashoffset: 426;
       stroke-width: 128;
       }
       58% {
       animation-timing-function: step-end;
       stroke: blue;
       stroke-dashoffset: 0;
       stroke-width: 128;
       }
       to {
       stroke: black;
       stroke-width: 1024;
       }
       }
       #make-me-a-hanzi-animation-3 {
         animation: keyframes3 0.596680s both;
         animation-delay: 2.267741s;
         animation-timing-function: linear;
       }
    @keyframes keyframes4 {
      from {
       stroke: blue;
       stroke-dashoffset: 365;
       stroke-width: 128;
       }
       54% {
       animation-timing-function: step-end;
       stroke: blue;
       stroke-dashoffset: 0;
       stroke-width: 128;
       }
       to {
       stroke: black;
       stroke-width: 1024;
       }
       }
       #make-me-a-hanzi-animation-4 {
         animation: keyframes4 0.547038s both;
         animation-delay: 2.864421s;
         animation-timing-function: linear;
       }
    @keyframes keyframes5 {
      from {
       stroke: blue;
       stroke-dashoffset: 360;
       stroke-width: 128;
       }
       54% {
       animation-timing-function: step-end;
       stroke: blue;
       stroke-dashoffset: 0;
       stroke-width: 128;
       }
       to {
       stroke: black;
       stroke-width: 1024;
       }
       }
       #make-me-a-hanzi-animation-5 {
         animation: keyframes5 0.542969s both;
         animation-delay: 3.411458s;
         animation-timing-function: linear;
       }
    @keyframes keyframes6 {
      from {
       stroke: blue;
       stroke-dashoffset: 383;
       stroke-width: 128;
       }
       55% {
       animation-timing-function: step-end;
       stroke: blue;
       stroke-dashoffset: 0;
       stroke-width: 128;
       }
       to {
       stroke: black;
       stroke-width: 1024;
       }
       }
       #make-me-a-hanzi-animation-6 {
         animation: keyframes6 0.561686s both;
         animation-delay: 3.954427s;
         animation-timing-function: linear;
       }
    @keyframes keyframes7 {
      from {
       stroke: blue;
       stroke-dashoffset: 436;
       stroke-width: 128;
       }
       59% {
       animation-timing-function: step-end;
       stroke: blue;
       stroke-dashoffset: 0;
       stroke-width: 128;
       }
       to {
       stroke: black;
       stroke-width: 1024;
       }
       }
       #make-me-a-hanzi-animation-7 {
         animation: keyframes7 0.604818s both;
         animation-delay: 4.516113s;
         animation-timing-function: linear;
       }
    @keyframes keyframes8 {
      from {
       stroke: blue;
       stroke-dashoffset: 541;
       stroke-width: 128;
       }
       64% {
       animation-timing-function: step-end;
       stroke: blue;
       stroke-dashoffset: 0;
       stroke-width: 128;
       }
       to {
       stroke: black;
       stroke-width: 1024;
       }
       }
       #make-me-a-hanzi-animation-8 {
         animation: keyframes8 0.690267s both;
         animation-delay: 5.120931s;
         animation-timing-function: linear;
       }
    @keyframes keyframes9 {
      from {
       stroke: blue;
       stroke-dashoffset: 765;
       stroke-width: 128;
       }
       71% {
       animation-timing-function: step-end;
       stroke: blue;
       stroke-dashoffset: 0;
       stroke-width: 128;
       }
       to {
       stroke: black;
       stroke-width: 1024;
       }
       }
       #make-me-a-hanzi-animation-9 {
         animation: keyframes9 0.872559s both;
         animation-delay: 5.811198s;
         animation-timing-function: linear;
       }
    @keyframes keyframes10 {
      from {
       stroke: blue;
       stroke-dashoffset: 1157;
       stroke-width: 128;
       }
       79% {
       animation-timing-function: step-end;
       stroke: blue;
       stroke-dashoffset: 0;
       stroke-width: 128;
       }
       to {
       stroke: black;
       stroke-width: 1024;
       }
       }
       #make-me-a-hanzi-animation-10 {
         animation: keyframes10 1.191569s both;
         animation-delay: 6.683757s;
         animation-timing-function: linear;
       }
</style>
<path d="M 297.0 559.5 Q 249.0 555.5 209.0 552.5 Q 181.0 551.5 194.0 568.5 Q 255.0 671.5 315.0 749.5 Q 328.0 767.5 326.0 774.5 Q 323.0 787.5 284.0 819.5 Q 268.0 832.5 250.0 828.5 Q 238.0 825.5 245.0 810.5 Q 263.0 770.5 183.0 621.5 Q 167.0 587.5 130.0 555.5 Q 111.0 540.5 114.0 528.5 Q 118.0 509.5 134.0 492.5 Q 144.0 482.5 157.0 489.5 Q 194.0 517.5 277.0 531.5 C 307.0 536.5 327.0 561.5 297.0 559.5 Z" fill="lightgray"></path> 
<path d="M 359.0 437.5 Q 298.0 422.5 230.0 395.5 Q 214.0 388.5 223.0 403.5 Q 356.0 593.5 415.0 643.5 Q 427.0 653.5 421.0 662.5 Q 411.0 680.5 379.0 698.5 Q 364.0 705.5 355.0 704.5 Q 346.0 700.5 348.0 686.5 Q 351.0 647.5 297.0 559.5 L 277.0 531.5 Q 172.0 387.5 152.0 376.5 Q 139.0 367.5 143.0 354.5 Q 144.0 341.5 169.0 324.5 Q 179.0 314.5 193.0 326.5 Q 269.0 390.5 366.0 422.5 C 394.0 432.5 388.0 445.5 359.0 437.5 Z" fill="lightgray"></path> 
<path d="M 366.0 422.5 Q 378.0 389.5 397.0 383.5 Q 407.0 379.5 418.0 391.5 Q 422.0 401.5 421.0 421.5 Q 417.0 439.5 398.0 454.5 Q 370.0 481.5 357.0 488.5 Q 350.0 492.5 346.0 482.5 Q 342.0 476.5 346.0 467.5 Q 352.0 452.5 359.0 437.5 L 366.0 422.5 Z" fill="lightgray"></path> 
<path d="M 97.0 204.5 Q 124.0 162.5 151.0 114.5 Q 160.0 98.5 176.0 93.5 Q 186.0 90.5 195.0 101.5 Q 204.0 114.5 205.0 145.5 Q 206.0 170.5 176.0 201.5 Q 101.0 262.5 87.0 259.5 Q 80.0 258.5 78.0 244.5 Q 78.0 232.5 97.0 204.5 Z" fill="lightgray"></path> 
<path d="M 240.0 254.5 Q 256.0 230.5 271.0 202.5 Q 278.0 189.5 292.0 186.5 Q 301.0 185.5 307.0 193.5 Q 314.0 203.5 314.0 229.5 Q 314.0 245.5 293.0 264.5 Q 242.0 300.5 230.0 298.5 Q 226.0 297.5 224.0 286.5 Q 224.0 276.5 240.0 254.5 Z" fill="lightgray"></path> 
<path d="M 342.0 289.5 Q 358.0 268.5 373.0 243.5 Q 380.0 231.5 393.0 229.5 Q 402.0 228.5 407.0 237.5 Q 414.0 247.5 412.0 271.5 Q 409.0 296.5 347.0 326.5 Q 335.0 330.5 330.0 330.5 Q 326.0 329.5 325.0 318.5 Q 326.0 309.5 342.0 289.5 Z" fill="lightgray"></path> 
<path d="M 487.0 657.5 Q 509.0 632.5 532.0 601.5 Q 542.0 588.5 556.0 587.5 Q 565.0 586.5 571.0 597.5 Q 577.0 609.5 573.0 636.5 Q 572.0 655.5 545.0 672.5 Q 485.0 706.5 470.0 703.5 Q 466.0 700.5 465.0 689.5 Q 466.0 679.5 487.0 657.5 Z" fill="lightgray"></path> 
<path d="M 794.0 726.5 Q 770.0 689.5 721.0 632.5 Q 717.0 625.5 721.0 619.5 Q 728.0 618.5 735.0 622.5 Q 820.0 683.5 863.0 706.5 Q 879.0 710.5 875.0 721.5 Q 871.0 736.5 852.0 754.5 Q 834.0 770.5 813.0 773.5 Q 800.0 772.5 800.0 754.5 Q 801.0 741.5 794.0 726.5 Z" fill="lightgray"></path> 
<path d="M 676.0 487.5 Q 713.0 497.5 757.0 506.5 Q 793.0 516.5 798.0 521.5 Q 805.0 528.5 801.0 537.5 Q 794.0 547.5 766.0 554.5 Q 739.0 558.5 676.0 535.5 L 626.0 519.5 Q 575.0 507.5 518.0 500.5 Q 482.0 493.5 509.0 478.5 Q 545.0 457.5 613.0 473.5 Q 619.0 474.5 626.0 475.5 L 676.0 487.5 Z" fill="lightgray"></path> 
<path d="M 676.0 337.5 Q 758.0 350.5 881.0 352.5 Q 935.0 352.5 942.0 362.5 Q 946.0 374.5 931.0 386.5 Q 880.0 422.5 816.0 407.5 Q 759.0 395.5 676.0 378.5 L 625.0 368.5 Q 535.0 355.5 433.0 338.5 Q 414.0 335.5 429.0 319.5 Q 442.0 306.5 460.0 302.5 Q 481.0 298.5 496.0 302.5 Q 557.0 320.5 625.0 330.5 L 676.0 337.5 Z" fill="lightgray"></path> 
<path d="M 625.0 330.5 Q 622.0 -17.5 635.0 -47.5 Q 636.0 -48.5 638.0 -52.5 Q 653.0 -67.5 661.0 -46.5 Q 679.0 -4.5 676.0 337.5 L 676.0 378.5 Q 676.0 436.5 676.0 487.5 L 676.0 535.5 Q 677.0 650.5 682.0 715.5 Q 683.0 749.5 701.0 779.5 Q 708.0 795.5 688.0 809.5 Q 664.0 828.5 622.0 839.5 Q 604.0 843.5 592.0 830.5 Q 582.0 823.5 594.0 810.5 Q 624.0 785.5 626.0 748.5 Q 627.0 666.5 626.0 519.5 L 626.0 475.5 Q 626.0 381.5 625.0 368.5 L 625.0 330.5 Z" fill="lightgray"></path> 
      <clipPath id="make-me-a-hanzi-clip-0">
      <path d="M 297.0 559.5 Q 249.0 555.5 209.0 552.5 Q 181.0 551.5 194.0 568.5 Q 255.0 671.5 315.0 749.5 Q 328.0 767.5 326.0 774.5 Q 323.0 787.5 284.0 819.5 Q 268.0 832.5 250.0 828.5 Q 238.0 825.5 245.0 810.5 Q 263.0 770.5 183.0 621.5 Q 167.0 587.5 130.0 555.5 Q 111.0 540.5 114.0 528.5 Q 118.0 509.5 134.0 492.5 Q 144.0 482.5 157.0 489.5 Q 194.0 517.5 277.0 531.5 C 307.0 536.5 327.0 561.5 297.0 559.5 Z" fill="lightgray"></path>
      </clipPath>
      <path clip-path="url(#make-me-a-hanzi-clip-0)" d="M 252.0 818.5 L 270.0 802.5 L 284.0 770.5 L 165.0 554.5 L 161.0 535.5 L 208.0 533.5 L 265.0 541.5 L 289.0 558.5 " fill="none" id="make-me-a-hanzi-animation-0" stroke-dasharray="587 1174" stroke-linecap="round"></path>

      <clipPath id="make-me-a-hanzi-clip-1">
      <path d="M 359.0 437.5 Q 298.0 422.5 230.0 395.5 Q 214.0 388.5 223.0 403.5 Q 356.0 593.5 415.0 643.5 Q 427.0 653.5 421.0 662.5 Q 411.0 680.5 379.0 698.5 Q 364.0 705.5 355.0 704.5 Q 346.0 700.5 348.0 686.5 Q 351.0 647.5 297.0 559.5 L 277.0 531.5 Q 172.0 387.5 152.0 376.5 Q 139.0 367.5 143.0 354.5 Q 144.0 341.5 169.0 324.5 Q 179.0 314.5 193.0 326.5 Q 269.0 390.5 366.0 422.5 C 394.0 432.5 388.0 445.5 359.0 437.5 Z" fill="lightgray"></path>
      </clipPath>
      <path clip-path="url(#make-me-a-hanzi-clip-1)" d="M 359.0 694.5 L 380.0 657.5 L 311.0 548.5 L 206.0 410.5 L 201.0 376.5 L 224.0 375.5 L 313.0 414.5 L 353.0 427.5 L 358.0 423.5 " fill="none" id="make-me-a-hanzi-animation-1" stroke-dasharray="676 1352" stroke-linecap="round"></path>

      <clipPath id="make-me-a-hanzi-clip-2">
      <path d="M 366.0 422.5 Q 378.0 389.5 397.0 383.5 Q 407.0 379.5 418.0 391.5 Q 422.0 401.5 421.0 421.5 Q 417.0 439.5 398.0 454.5 Q 370.0 481.5 357.0 488.5 Q 350.0 492.5 346.0 482.5 Q 342.0 476.5 346.0 467.5 Q 352.0 452.5 359.0 437.5 L 366.0 422.5 Z" fill="lightgray"></path>
      </clipPath>
      <path clip-path="url(#make-me-a-hanzi-clip-2)" d="M 356.0 478.5 L 402.0 401.5 " fill="none" id="make-me-a-hanzi-animation-2" stroke-dasharray="218 436" stroke-linecap="round"></path>

      <clipPath id="make-me-a-hanzi-clip-3">
      <path d="M 97.0 204.5 Q 124.0 162.5 151.0 114.5 Q 160.0 98.5 176.0 93.5 Q 186.0 90.5 195.0 101.5 Q 204.0 114.5 205.0 145.5 Q 206.0 170.5 176.0 201.5 Q 101.0 262.5 87.0 259.5 Q 80.0 258.5 78.0 244.5 Q 78.0 232.5 97.0 204.5 Z" fill="lightgray"></path>
      </clipPath>
      <path clip-path="url(#make-me-a-hanzi-clip-3)" d="M 89.0 250.5 L 165.0 160.5 L 180.0 110.5 " fill="none" id="make-me-a-hanzi-animation-3" stroke-dasharray="298 596" stroke-linecap="round"></path>

      <clipPath id="make-me-a-hanzi-clip-4">
      <path d="M 240.0 254.5 Q 256.0 230.5 271.0 202.5 Q 278.0 189.5 292.0 186.5 Q 301.0 185.5 307.0 193.5 Q 314.0 203.5 314.0 229.5 Q 314.0 245.5 293.0 264.5 Q 242.0 300.5 230.0 298.5 Q 226.0 297.5 224.0 286.5 Q 224.0 276.5 240.0 254.5 Z" fill="lightgray"></path>
      </clipPath>
      <path clip-path="url(#make-me-a-hanzi-clip-4)" d="M 232.0 289.5 L 280.0 240.5 L 294.0 202.5 " fill="none" id="make-me-a-hanzi-animation-4" stroke-dasharray="237 474" stroke-linecap="round"></path>

      <clipPath id="make-me-a-hanzi-clip-5">
      <path d="M 342.0 289.5 Q 358.0 268.5 373.0 243.5 Q 380.0 231.5 393.0 229.5 Q 402.0 228.5 407.0 237.5 Q 414.0 247.5 412.0 271.5 Q 409.0 296.5 347.0 326.5 Q 335.0 330.5 330.0 330.5 Q 326.0 329.5 325.0 318.5 Q 326.0 309.5 342.0 289.5 Z" fill="lightgray"></path>
      </clipPath>
      <path clip-path="url(#make-me-a-hanzi-clip-5)" d="M 332.0 322.5 L 375.0 284.5 L 395.0 242.5 " fill="none" id="make-me-a-hanzi-animation-5" stroke-dasharray="232 464" stroke-linecap="round"></path>

      <clipPath id="make-me-a-hanzi-clip-6">
      <path d="M 487.0 657.5 Q 509.0 632.5 532.0 601.5 Q 542.0 588.5 556.0 587.5 Q 565.0 586.5 571.0 597.5 Q 577.0 609.5 573.0 636.5 Q 572.0 655.5 545.0 672.5 Q 485.0 706.5 470.0 703.5 Q 466.0 700.5 465.0 689.5 Q 466.0 679.5 487.0 657.5 Z" fill="lightgray"></path>
      </clipPath>
      <path clip-path="url(#make-me-a-hanzi-clip-6)" d="M 473.0 694.5 L 536.0 644.5 L 557.0 602.5 " fill="none" id="make-me-a-hanzi-animation-6" stroke-dasharray="255 510" stroke-linecap="round"></path>

      <clipPath id="make-me-a-hanzi-clip-7">
      <path d="M 794.0 726.5 Q 770.0 689.5 721.0 632.5 Q 717.0 625.5 721.0 619.5 Q 728.0 618.5 735.0 622.5 Q 820.0 683.5 863.0 706.5 Q 879.0 710.5 875.0 721.5 Q 871.0 736.5 852.0 754.5 Q 834.0 770.5 813.0 773.5 Q 800.0 772.5 800.0 754.5 Q 801.0 741.5 794.0 726.5 Z" fill="lightgray"></path>
      </clipPath>
      <path clip-path="url(#make-me-a-hanzi-clip-7)" d="M 815.0 758.5 L 831.0 727.5 L 727.0 626.5 " fill="none" id="make-me-a-hanzi-animation-7" stroke-dasharray="308 616" stroke-linecap="round"></path>

      <clipPath id="make-me-a-hanzi-clip-8">
      <path d="M 676.0 487.5 Q 713.0 497.5 757.0 506.5 Q 793.0 516.5 798.0 521.5 Q 805.0 528.5 801.0 537.5 Q 794.0 547.5 766.0 554.5 Q 739.0 558.5 676.0 535.5 L 626.0 519.5 Q 575.0 507.5 518.0 500.5 Q 482.0 493.5 509.0 478.5 Q 545.0 457.5 613.0 473.5 Q 619.0 474.5 626.0 475.5 L 676.0 487.5 Z" fill="lightgray"></path>
      </clipPath>
      <path clip-path="url(#make-me-a-hanzi-clip-8)" d="M 510.0 490.5 L 542.0 485.5 L 583.0 488.5 L 728.0 526.5 L 789.0 531.5 " fill="none" id="make-me-a-hanzi-animation-8" stroke-dasharray="413 826" stroke-linecap="round"></path>

      <clipPath id="make-me-a-hanzi-clip-9">
      <path d="M 676.0 337.5 Q 758.0 350.5 881.0 352.5 Q 935.0 352.5 942.0 362.5 Q 946.0 374.5 931.0 386.5 Q 880.0 422.5 816.0 407.5 Q 759.0 395.5 676.0 378.5 L 625.0 368.5 Q 535.0 355.5 433.0 338.5 Q 414.0 335.5 429.0 319.5 Q 442.0 306.5 460.0 302.5 Q 481.0 298.5 496.0 302.5 Q 557.0 320.5 625.0 330.5 L 676.0 337.5 Z" fill="lightgray"></path>
      </clipPath>
      <path clip-path="url(#make-me-a-hanzi-clip-9)" d="M 432.0 328.5 L 469.0 322.5 L 497.0 325.5 L 689.0 361.5 L 829.0 380.5 L 877.0 381.5 L 934.0 367.5 " fill="none" id="make-me-a-hanzi-animation-9" stroke-dasharray="637 1274" stroke-linecap="round"></path>

      <clipPath id="make-me-a-hanzi-clip-10">
      <path d="M 625.0 330.5 Q 622.0 -17.5 635.0 -47.5 Q 636.0 -48.5 638.0 -52.5 Q 653.0 -67.5 661.0 -46.5 Q 679.0 -4.5 676.0 337.5 L 676.0 378.5 Q 676.0 436.5 676.0 487.5 L 676.0 535.5 Q 677.0 650.5 682.0 715.5 Q 683.0 749.5 701.0 779.5 Q 708.0 795.5 688.0 809.5 Q 664.0 828.5 622.0 839.5 Q 604.0 843.5 592.0 830.5 Q 582.0 823.5 594.0 810.5 Q 624.0 785.5 626.0 748.5 Q 627.0 666.5 626.0 519.5 L 626.0 475.5 Q 626.0 381.5 625.0 368.5 L 625.0 330.5 Z" fill="lightgray"></path>
      </clipPath>
      <path clip-path="url(#make-me-a-hanzi-clip-10)" d="M 599.0 821.5 L 636.0 806.5 L 654.0 788.5 L 659.0 774.5 L 650.0 528.5 L 649.0 -46.5 " fill="none" id="make-me-a-hanzi-animation-10" stroke-dasharray="1029 2058" stroke-linecap="round"></path>

</g>
</svg>
