<svg version="1.1" viewBox="0 0 1024 1024" xmlns="http://www.w3.org/2000/svg">
  <g stroke="lightgray" stroke-dasharray="1,1" stroke-width="1" transform="scale(4, 4)">
    <line x1="0" y1="0" x2="256" y2="256"></line>
    <line x1="256" y1="0" x2="0" y2="256"></line>
    <line x1="128" y1="0" x2="128" y2="256"></line>
    <line x1="0" y1="128" x2="256" y2="128"></line>
  </g>
<g transform="scale(1, -1) translate(0, -900)">
   <style type="text/css">
    @keyframes keyframes0 {
      from {
       stroke: blue;
       stroke-dashoffset: 376;
       stroke-width: 128;
       }
       55% {
       animation-timing-function: step-end;
       stroke: blue;
       stroke-dashoffset: 0;
       stroke-width: 128;
       }
       to {
       stroke: black;
       stroke-width: 1024;
       }
       }
       #make-me-a-hanzi-animation-0 {
         animation: keyframes0 0.555990s both;
         animation-delay: 0.000000s;
         animation-timing-function: linear;
       }
    @keyframes keyframes1 {
      from {
       stroke: blue;
       stroke-dashoffset: 681;
       stroke-width: 128;
       }
       69% {
       animation-timing-function: step-end;
       stroke: blue;
       stroke-dashoffset: 0;
       stroke-width: 128;
       }
       to {
       stroke: black;
       stroke-width: 1024;
       }
       }
       #make-me-a-hanzi-animation-1 {
         animation: keyframes1 0.804199s both;
         animation-delay: 0.555990s;
         animation-timing-function: linear;
       }
    @keyframes keyframes2 {
      from {
       stroke: blue;
       stroke-dashoffset: 1017;
       stroke-width: 128;
       }
       77% {
       animation-timing-function: step-end;
       stroke: blue;
       stroke-dashoffset: 0;
       stroke-width: 128;
       }
       to {
       stroke: black;
       stroke-width: 1024;
       }
       }
       #make-me-a-hanzi-animation-2 {
         animation: keyframes2 1.077637s both;
         animation-delay: 1.360189s;
         animation-timing-function: linear;
       }
    @keyframes keyframes3 {
      from {
       stroke: blue;
       stroke-dashoffset: 453;
       stroke-width: 128;
       }
       60% {
       animation-timing-function: step-end;
       stroke: blue;
       stroke-dashoffset: 0;
       stroke-width: 128;
       }
       to {
       stroke: black;
       stroke-width: 1024;
       }
       }
       #make-me-a-hanzi-animation-3 {
         animation: keyframes3 0.618652s both;
         animation-delay: 2.437826s;
         animation-timing-function: linear;
       }
    @keyframes keyframes4 {
      from {
       stroke: blue;
       stroke-dashoffset: 523;
       stroke-width: 128;
       }
       63% {
       animation-timing-function: step-end;
       stroke: blue;
       stroke-dashoffset: 0;
       stroke-width: 128;
       }
       to {
       stroke: black;
       stroke-width: 1024;
       }
       }
       #make-me-a-hanzi-animation-4 {
         animation: keyframes4 0.675618s both;
         animation-delay: 3.056478s;
         animation-timing-function: linear;
       }
    @keyframes keyframes5 {
      from {
       stroke: blue;
       stroke-dashoffset: 455;
       stroke-width: 128;
       }
       60% {
       animation-timing-function: step-end;
       stroke: blue;
       stroke-dashoffset: 0;
       stroke-width: 128;
       }
       to {
       stroke: black;
       stroke-width: 1024;
       }
       }
       #make-me-a-hanzi-animation-5 {
         animation: keyframes5 0.620280s both;
         animation-delay: 3.732096s;
         animation-timing-function: linear;
       }
    @keyframes keyframes6 {
      from {
       stroke: blue;
       stroke-dashoffset: 330;
       stroke-width: 128;
       }
       52% {
       animation-timing-function: step-end;
       stroke: blue;
       stroke-dashoffset: 0;
       stroke-width: 128;
       }
       to {
       stroke: black;
       stroke-width: 1024;
       }
       }
       #make-me-a-hanzi-animation-6 {
         animation: keyframes6 0.518555s both;
         animation-delay: 4.352376s;
         animation-timing-function: linear;
       }
    @keyframes keyframes7 {
      from {
       stroke: blue;
       stroke-dashoffset: 490;
       stroke-width: 128;
       }
       61% {
       animation-timing-function: step-end;
       stroke: blue;
       stroke-dashoffset: 0;
       stroke-width: 128;
       }
       to {
       stroke: black;
       stroke-width: 1024;
       }
       }
       #make-me-a-hanzi-animation-7 {
         animation: keyframes7 0.648763s both;
         animation-delay: 4.870931s;
         animation-timing-function: linear;
       }
    @keyframes keyframes8 {
      from {
       stroke: blue;
       stroke-dashoffset: 538;
       stroke-width: 128;
       }
       64% {
       animation-timing-function: step-end;
       stroke: blue;
       stroke-dashoffset: 0;
       stroke-width: 128;
       }
       to {
       stroke: black;
       stroke-width: 1024;
       }
       }
       #make-me-a-hanzi-animation-8 {
         animation: keyframes8 0.687826s both;
         animation-delay: 5.519694s;
         animation-timing-function: linear;
       }
    @keyframes keyframes9 {
      from {
       stroke: blue;
       stroke-dashoffset: 430;
       stroke-width: 128;
       }
       58% {
       animation-timing-function: step-end;
       stroke: blue;
       stroke-dashoffset: 0;
       stroke-width: 128;
       }
       to {
       stroke: black;
       stroke-width: 1024;
       }
       }
       #make-me-a-hanzi-animation-9 {
         animation: keyframes9 0.599935s both;
         animation-delay: 6.207520s;
         animation-timing-function: linear;
       }
    @keyframes keyframes10 {
      from {
       stroke: blue;
       stroke-dashoffset: 524;
       stroke-width: 128;
       }
       63% {
       animation-timing-function: step-end;
       stroke: blue;
       stroke-dashoffset: 0;
       stroke-width: 128;
       }
       to {
       stroke: black;
       stroke-width: 1024;
       }
       }
       #make-me-a-hanzi-animation-10 {
         animation: keyframes10 0.676432s both;
         animation-delay: 6.807454s;
         animation-timing-function: linear;
       }
    @keyframes keyframes11 {
      from {
       stroke: blue;
       stroke-dashoffset: 544;
       stroke-width: 128;
       }
       64% {
       animation-timing-function: step-end;
       stroke: blue;
       stroke-dashoffset: 0;
       stroke-width: 128;
       }
       to {
       stroke: black;
       stroke-width: 1024;
       }
       }
       #make-me-a-hanzi-animation-11 {
         animation: keyframes11 0.692708s both;
         animation-delay: 7.483887s;
         animation-timing-function: linear;
       }
    @keyframes keyframes12 {
      from {
       stroke: blue;
       stroke-dashoffset: 769;
       stroke-width: 128;
       }
       71% {
       animation-timing-function: step-end;
       stroke: blue;
       stroke-dashoffset: 0;
       stroke-width: 128;
       }
       to {
       stroke: black;
       stroke-width: 1024;
       }
       }
       #make-me-a-hanzi-animation-12 {
         animation: keyframes12 0.875814s both;
         animation-delay: 8.176595s;
         animation-timing-function: linear;
       }
    @keyframes keyframes13 {
      from {
       stroke: blue;
       stroke-dashoffset: 377;
       stroke-width: 128;
       }
       55% {
       animation-timing-function: step-end;
       stroke: blue;
       stroke-dashoffset: 0;
       stroke-width: 128;
       }
       to {
       stroke: black;
       stroke-width: 1024;
       }
       }
       #make-me-a-hanzi-animation-13 {
         animation: keyframes13 0.556803s both;
         animation-delay: 9.052409s;
         animation-timing-function: linear;
       }
    @keyframes keyframes14 {
      from {
       stroke: blue;
       stroke-dashoffset: 568;
       stroke-width: 128;
       }
       65% {
       animation-timing-function: step-end;
       stroke: blue;
       stroke-dashoffset: 0;
       stroke-width: 128;
       }
       to {
       stroke: black;
       stroke-width: 1024;
       }
       }
       #make-me-a-hanzi-animation-14 {
         animation: keyframes14 0.712240s both;
         animation-delay: 9.609212s;
         animation-timing-function: linear;
       }
    @keyframes keyframes15 {
      from {
       stroke: blue;
       stroke-dashoffset: 387;
       stroke-width: 128;
       }
       56% {
       animation-timing-function: step-end;
       stroke: blue;
       stroke-dashoffset: 0;
       stroke-width: 128;
       }
       to {
       stroke: black;
       stroke-width: 1024;
       }
       }
       #make-me-a-hanzi-animation-15 {
         animation: keyframes15 0.564941s both;
         animation-delay: 10.321452s;
         animation-timing-function: linear;
       }
    @keyframes keyframes16 {
      from {
       stroke: blue;
       stroke-dashoffset: 427;
       stroke-width: 128;
       }
       58% {
       animation-timing-function: step-end;
       stroke: blue;
       stroke-dashoffset: 0;
       stroke-width: 128;
       }
       to {
       stroke: black;
       stroke-width: 1024;
       }
       }
       #make-me-a-hanzi-animation-16 {
         animation: keyframes16 0.597493s both;
         animation-delay: 10.886393s;
         animation-timing-function: linear;
       }
</style>
<path d="M 532.0 796.0 Q 556.0 781.0 581.0 762.0 Q 597.0 752.0 611.0 755.0 Q 621.0 758.0 624.0 771.0 Q 625.0 786.0 613.0 812.0 Q 600.0 836.0 519.0 841.0 Q 504.0 842.0 498.0 838.0 Q 494.0 834.0 498.0 821.0 Q 502.0 811.0 532.0 796.0 Z" fill="lightgray"></path> 
<path d="M 363.0 673.0 Q 402.0 666.0 468.0 674.0 Q 771.0 720.0 784.0 729.0 Q 793.0 736.0 789.0 744.0 Q 783.0 756.0 757.0 764.0 Q 735.0 770.0 631.0 743.0 Q 474.0 710.0 353.0 704.0 Q 352.0 704.0 352.0 703.0 C 322.0 699.0 333.0 677.0 363.0 673.0 Z" fill="lightgray"></path> 
<path d="M 352.0 703.0 Q 337.0 716.0 314.0 726.0 Q 295.0 738.0 281.0 732.0 Q 269.0 725.0 276.0 711.0 Q 298.0 681.0 291.0 595.0 Q 290.0 591.0 290.0 585.0 Q 281.0 408.0 232.0 275.0 Q 190.0 164.0 106.0 38.0 Q 102.0 31.0 99.0 25.0 Q 96.0 15.0 107.0 16.0 Q 135.0 20.0 215.0 136.0 Q 236.0 169.0 255.0 207.0 Q 324.0 364.0 344.0 557.0 Q 353.0 656.0 363.0 673.0 C 369.0 691.0 369.0 691.0 352.0 703.0 Z" fill="lightgray"></path> 
<path d="M 491.0 540.0 Q 513.0 547.0 540.0 552.0 Q 562.0 559.0 567.0 562.0 Q 573.0 568.0 570.0 574.0 Q 564.0 583.0 542.0 588.0 Q 520.0 591.0 497.0 582.0 L 456.0 568.0 Q 449.0 567.0 442.0 564.0 Q 409.0 557.0 372.0 551.0 Q 345.0 547.0 365.0 534.0 Q 395.0 516.0 438.0 529.0 Q 439.0 530.0 444.0 530.0 L 491.0 540.0 Z" fill="lightgray"></path> 
<path d="M 489.0 518.0 Q 489.0 530.0 491.0 540.0 L 497.0 582.0 Q 498.0 598.0 509.0 618.0 Q 513.0 625.0 505.0 635.0 Q 489.0 648.0 469.0 656.0 Q 456.0 662.0 446.0 658.0 Q 436.0 654.0 441.0 644.0 Q 454.0 623.0 456.0 568.0 L 456.0 481.0 Q 453.0 409.0 463.0 391.0 Q 470.0 381.0 480.0 386.0 Q 487.0 392.0 488.0 502.0 L 489.0 518.0 Z" fill="lightgray"></path> 
<path d="M 444.0 530.0 Q 408.0 467.0 324.0 377.0 Q 320.0 370.0 327.0 368.0 Q 336.0 365.0 402.0 418.0 Q 429.0 442.0 456.0 481.0 C 497.0 540.0 459.0 556.0 444.0 530.0 Z" fill="lightgray"></path> 
<path d="M 488.0 502.0 Q 530.0 456.0 547.0 457.0 Q 556.0 456.0 559.0 468.0 Q 559.0 477.0 552.0 489.0 Q 539.0 511.0 491.0 518.0 Q 490.0 519.0 489.0 518.0 C 473.0 519.0 473.0 519.0 488.0 502.0 Z" fill="lightgray"></path> 
<path d="M 719.0 566.0 Q 756.0 576.0 797.0 585.0 Q 825.0 592.0 831.0 596.0 Q 838.0 603.0 834.0 610.0 Q 827.0 619.0 804.0 624.0 Q 780.0 628.0 723.0 606.0 L 681.0 594.0 Q 642.0 587.0 601.0 581.0 Q 571.0 575.0 593.0 563.0 Q 618.0 550.0 657.0 552.0 L 719.0 566.0 Z" fill="lightgray"></path> 
<path d="M 718.0 565.0 Q 718.0 566.0 719.0 566.0 L 723.0 606.0 Q 724.0 624.0 735.0 644.0 Q 739.0 651.0 731.0 662.0 Q 713.0 675.0 692.0 683.0 Q 679.0 690.0 669.0 685.0 Q 659.0 681.0 664.0 671.0 Q 679.0 646.0 681.0 594.0 L 682.0 523.0 Q 679.0 423.0 690.0 399.0 Q 697.0 387.0 709.0 394.0 Q 719.0 403.0 716.0 469.0 Q 715.0 500.0 716.0 530.0 C 717.0 559.0 717.0 559.0 718.0 565.0 Z" fill="lightgray"></path> 
<path d="M 657.0 552.0 Q 630.0 504.0 560.0 419.0 C 541.0 396.0 543.0 392.0 568.0 408.0 Q 569.0 409.0 576.0 413.0 Q 639.0 456.0 680.0 519.0 Q 681.0 520.0 682.0 523.0 C 705.0 566.0 675.0 583.0 657.0 552.0 Z" fill="lightgray"></path> 
<path d="M 716.0 530.0 Q 753.0 472.0 802.0 406.0 Q 820.0 385.0 920.0 399.0 Q 926.0 400.0 927.0 404.0 Q 928.0 407.0 919.0 412.0 Q 820.0 460.0 738.0 544.0 Q 728.0 554.0 718.0 565.0 C 698.0 587.0 700.0 555.0 716.0 530.0 Z" fill="lightgray"></path> 
<path d="M 560.0 419.0 Q 556.0 425.0 552.0 427.0 Q 539.0 434.0 531.0 432.0 Q 524.0 428.0 526.0 416.0 Q 535.0 374.0 465.0 326.0 Q 444.0 307.0 431.0 305.0 Q 409.0 304.0 401.0 292.0 Q 388.0 270.0 390.0 257.0 Q 393.0 241.0 408.0 247.0 Q 424.0 262.0 543.0 262.0 C 573.0 262.0 597.0 272.0 568.0 280.0 Q 558.0 284.0 531.0 287.0 Q 498.0 290.0 480.0 293.0 Q 479.0 297.0 479.0 299.0 Q 480.0 300.0 564.0 349.0 Q 591.0 356.0 582.0 380.0 Q 575.0 396.0 568.0 408.0 L 560.0 419.0 Z" fill="lightgray"></path> 
<path d="M 543.0 262.0 Q 434.0 190.0 416.0 185.0 Q 403.0 181.0 403.0 169.0 Q 402.0 159.0 418.0 138.0 Q 424.0 125.0 438.0 132.0 Q 498.0 159.0 556.0 172.0 L 584.0 179.0 Q 641.0 192.0 698.0 199.0 Q 699.0 200.0 705.0 200.0 C 735.0 204.0 722.0 217.0 692.0 215.0 Q 596.0 208.0 484.0 187.0 Q 483.0 186.0 483.0 187.0 Q 528.0 218.0 628.0 275.0 Q 662.0 297.0 689.0 307.0 Q 702.0 311.0 699.0 321.0 Q 696.0 340.0 675.0 364.0 Q 665.0 377.0 657.0 377.0 Q 647.0 377.0 645.0 364.0 Q 636.0 334.0 568.0 280.0 L 543.0 262.0 Z" fill="lightgray"></path> 
<path d="M 705.0 200.0 Q 733.0 163.0 743.0 160.0 Q 750.0 159.0 757.0 168.0 Q 761.0 178.0 760.0 200.0 Q 757.0 228.0 683.0 266.0 Q 673.0 270.0 667.0 269.0 Q 663.0 268.0 662.0 258.0 Q 663.0 249.0 680.0 231.0 Q 686.0 224.0 692.0 215.0 L 705.0 200.0 Z" fill="lightgray"></path> 
<path d="M 556.0 172.0 Q 568.0 160.0 567.0 51.0 Q 566.0 33.0 563.0 29.0 Q 560.0 19.0 540.0 21.0 Q 506.0 31.0 468.0 40.0 Q 459.0 41.0 458.0 36.0 Q 457.0 32.0 466.0 23.0 Q 533.0 -23.0 556.0 -53.0 Q 572.0 -66.0 583.0 -62.0 Q 592.0 -59.0 601.0 -32.0 Q 614.0 -5.0 613.0 45.0 Q 610.0 94.0 611.0 113.0 Q 618.0 146.0 604.0 163.0 Q 594.0 173.0 584.0 179.0 C 559.0 196.0 543.0 199.0 556.0 172.0 Z" fill="lightgray"></path> 
<path d="M 396.0 110.0 Q 372.0 76.0 343.0 45.0 Q 321.0 20.0 331.0 -12.0 Q 335.0 -28.0 355.0 -21.0 Q 400.0 3.0 410.0 57.0 Q 420.0 85.0 417.0 107.0 Q 414.0 114.0 409.0 117.0 Q 402.0 117.0 396.0 110.0 Z" fill="lightgray"></path> 
<path d="M 695.0 95.0 Q 735.0 58.0 784.0 3.0 Q 799.0 -15.0 813.0 -19.0 Q 820.0 -20.0 828.0 -11.0 Q 838.0 2.0 827.0 41.0 Q 820.0 77.0 757.0 102.0 Q 717.0 117.0 696.0 123.0 Q 687.0 127.0 686.0 116.0 Q 685.0 104.0 695.0 95.0 Z" fill="lightgray"></path> 
      <clipPath id="make-me-a-hanzi-clip-0">
      <path d="M 532.0 796.0 Q 556.0 781.0 581.0 762.0 Q 597.0 752.0 611.0 755.0 Q 621.0 758.0 624.0 771.0 Q 625.0 786.0 613.0 812.0 Q 600.0 836.0 519.0 841.0 Q 504.0 842.0 498.0 838.0 Q 494.0 834.0 498.0 821.0 Q 502.0 811.0 532.0 796.0 Z" fill="lightgray"></path>
      </clipPath>
      <path clip-path="url(#make-me-a-hanzi-clip-0)" d="M 504.0 833.0 L 574.0 804.0 L 605.0 773.0 " fill="none" id="make-me-a-hanzi-animation-0" stroke-dasharray="248 496" stroke-linecap="round"></path>

      <clipPath id="make-me-a-hanzi-clip-1">
      <path d="M 363.0 673.0 Q 402.0 666.0 468.0 674.0 Q 771.0 720.0 784.0 729.0 Q 793.0 736.0 789.0 744.0 Q 783.0 756.0 757.0 764.0 Q 735.0 770.0 631.0 743.0 Q 474.0 710.0 353.0 704.0 Q 352.0 704.0 352.0 703.0 C 322.0 699.0 333.0 677.0 363.0 673.0 Z" fill="lightgray"></path>
      </clipPath>
      <path clip-path="url(#make-me-a-hanzi-clip-1)" d="M 359.0 697.0 L 383.0 688.0 L 440.0 690.0 L 533.0 702.0 L 737.0 742.0 L 778.0 739.0 " fill="none" id="make-me-a-hanzi-animation-1" stroke-dasharray="553 1106" stroke-linecap="round"></path>

      <clipPath id="make-me-a-hanzi-clip-2">
      <path d="M 352.0 703.0 Q 337.0 716.0 314.0 726.0 Q 295.0 738.0 281.0 732.0 Q 269.0 725.0 276.0 711.0 Q 298.0 681.0 291.0 595.0 Q 290.0 591.0 290.0 585.0 Q 281.0 408.0 232.0 275.0 Q 190.0 164.0 106.0 38.0 Q 102.0 31.0 99.0 25.0 Q 96.0 15.0 107.0 16.0 Q 135.0 20.0 215.0 136.0 Q 236.0 169.0 255.0 207.0 Q 324.0 364.0 344.0 557.0 Q 353.0 656.0 363.0 673.0 C 369.0 691.0 369.0 691.0 352.0 703.0 Z" fill="lightgray"></path>
      </clipPath>
      <path clip-path="url(#make-me-a-hanzi-clip-2)" d="M 287.0 719.0 L 310.0 700.0 L 326.0 673.0 L 311.0 503.0 L 285.0 364.0 L 253.0 264.0 L 213.0 175.0 L 168.0 99.0 L 107.0 24.0 " fill="none" id="make-me-a-hanzi-animation-2" stroke-dasharray="889 1778" stroke-linecap="round"></path>

      <clipPath id="make-me-a-hanzi-clip-3">
      <path d="M 491.0 540.0 Q 513.0 547.0 540.0 552.0 Q 562.0 559.0 567.0 562.0 Q 573.0 568.0 570.0 574.0 Q 564.0 583.0 542.0 588.0 Q 520.0 591.0 497.0 582.0 L 456.0 568.0 Q 449.0 567.0 442.0 564.0 Q 409.0 557.0 372.0 551.0 Q 345.0 547.0 365.0 534.0 Q 395.0 516.0 438.0 529.0 Q 439.0 530.0 444.0 530.0 L 491.0 540.0 Z" fill="lightgray"></path>
      </clipPath>
      <path clip-path="url(#make-me-a-hanzi-clip-3)" d="M 366.0 543.0 L 411.0 541.0 L 522.0 569.0 L 559.0 570.0 " fill="none" id="make-me-a-hanzi-animation-3" stroke-dasharray="325 650" stroke-linecap="round"></path>

      <clipPath id="make-me-a-hanzi-clip-4">
      <path d="M 489.0 518.0 Q 489.0 530.0 491.0 540.0 L 497.0 582.0 Q 498.0 598.0 509.0 618.0 Q 513.0 625.0 505.0 635.0 Q 489.0 648.0 469.0 656.0 Q 456.0 662.0 446.0 658.0 Q 436.0 654.0 441.0 644.0 Q 454.0 623.0 456.0 568.0 L 456.0 481.0 Q 453.0 409.0 463.0 391.0 Q 470.0 381.0 480.0 386.0 Q 487.0 392.0 488.0 502.0 L 489.0 518.0 Z" fill="lightgray"></path>
      </clipPath>
      <path clip-path="url(#make-me-a-hanzi-clip-4)" d="M 453.0 648.0 L 478.0 619.0 L 470.0 469.0 L 475.0 391.0 " fill="none" id="make-me-a-hanzi-animation-4" stroke-dasharray="395 790" stroke-linecap="round"></path>

      <clipPath id="make-me-a-hanzi-clip-5">
      <path d="M 444.0 530.0 Q 408.0 467.0 324.0 377.0 Q 320.0 370.0 327.0 368.0 Q 336.0 365.0 402.0 418.0 Q 429.0 442.0 456.0 481.0 C 497.0 540.0 459.0 556.0 444.0 530.0 Z" fill="lightgray"></path>
      </clipPath>
      <path clip-path="url(#make-me-a-hanzi-clip-5)" d="M 451.0 526.0 L 439.0 487.0 L 404.0 442.0 L 385.0 419.0 L 329.0 374.0 " fill="none" id="make-me-a-hanzi-animation-5" stroke-dasharray="327 654" stroke-linecap="round"></path>

      <clipPath id="make-me-a-hanzi-clip-6">
      <path d="M 488.0 502.0 Q 530.0 456.0 547.0 457.0 Q 556.0 456.0 559.0 468.0 Q 559.0 477.0 552.0 489.0 Q 539.0 511.0 491.0 518.0 Q 490.0 519.0 489.0 518.0 C 473.0 519.0 473.0 519.0 488.0 502.0 Z" fill="lightgray"></path>
      </clipPath>
      <path clip-path="url(#make-me-a-hanzi-clip-6)" d="M 490.0 514.0 L 548.0 468.0 " fill="none" id="make-me-a-hanzi-animation-6" stroke-dasharray="202 404" stroke-linecap="round"></path>

      <clipPath id="make-me-a-hanzi-clip-7">
      <path d="M 719.0 566.0 Q 756.0 576.0 797.0 585.0 Q 825.0 592.0 831.0 596.0 Q 838.0 603.0 834.0 610.0 Q 827.0 619.0 804.0 624.0 Q 780.0 628.0 723.0 606.0 L 681.0 594.0 Q 642.0 587.0 601.0 581.0 Q 571.0 575.0 593.0 563.0 Q 618.0 550.0 657.0 552.0 L 719.0 566.0 Z" fill="lightgray"></path>
      </clipPath>
      <path clip-path="url(#make-me-a-hanzi-clip-7)" d="M 594.0 573.0 L 661.0 571.0 L 791.0 605.0 L 824.0 605.0 " fill="none" id="make-me-a-hanzi-animation-7" stroke-dasharray="362 724" stroke-linecap="round"></path>

      <clipPath id="make-me-a-hanzi-clip-8">
      <path d="M 718.0 565.0 Q 718.0 566.0 719.0 566.0 L 723.0 606.0 Q 724.0 624.0 735.0 644.0 Q 739.0 651.0 731.0 662.0 Q 713.0 675.0 692.0 683.0 Q 679.0 690.0 669.0 685.0 Q 659.0 681.0 664.0 671.0 Q 679.0 646.0 681.0 594.0 L 682.0 523.0 Q 679.0 423.0 690.0 399.0 Q 697.0 387.0 709.0 394.0 Q 719.0 403.0 716.0 469.0 Q 715.0 500.0 716.0 530.0 C 717.0 559.0 717.0 559.0 718.0 565.0 Z" fill="lightgray"></path>
      </clipPath>
      <path clip-path="url(#make-me-a-hanzi-clip-8)" d="M 677.0 674.0 L 703.0 645.0 L 697.0 511.0 L 702.0 402.0 " fill="none" id="make-me-a-hanzi-animation-8" stroke-dasharray="410 820" stroke-linecap="round"></path>

      <clipPath id="make-me-a-hanzi-clip-9">
      <path d="M 657.0 552.0 Q 630.0 504.0 560.0 419.0 C 541.0 396.0 543.0 392.0 568.0 408.0 Q 569.0 409.0 576.0 413.0 Q 639.0 456.0 680.0 519.0 Q 681.0 520.0 682.0 523.0 C 705.0 566.0 675.0 583.0 657.0 552.0 Z" fill="lightgray"></path>
      </clipPath>
      <path clip-path="url(#make-me-a-hanzi-clip-9)" d="M 676.0 552.0 L 645.0 499.0 L 568.0 417.0 " fill="none" id="make-me-a-hanzi-animation-9" stroke-dasharray="302 604" stroke-linecap="round"></path>

      <clipPath id="make-me-a-hanzi-clip-10">
      <path d="M 716.0 530.0 Q 753.0 472.0 802.0 406.0 Q 820.0 385.0 920.0 399.0 Q 926.0 400.0 927.0 404.0 Q 928.0 407.0 919.0 412.0 Q 820.0 460.0 738.0 544.0 Q 728.0 554.0 718.0 565.0 C 698.0 587.0 700.0 555.0 716.0 530.0 Z" fill="lightgray"></path>
      </clipPath>
      <path clip-path="url(#make-me-a-hanzi-clip-10)" d="M 722.0 559.0 L 728.0 535.0 L 739.0 520.0 L 825.0 429.0 L 884.0 410.0 L 921.0 406.0 " fill="none" id="make-me-a-hanzi-animation-10" stroke-dasharray="396 792" stroke-linecap="round"></path>

      <clipPath id="make-me-a-hanzi-clip-11">
      <path d="M 560.0 419.0 Q 556.0 425.0 552.0 427.0 Q 539.0 434.0 531.0 432.0 Q 524.0 428.0 526.0 416.0 Q 535.0 374.0 465.0 326.0 Q 444.0 307.0 431.0 305.0 Q 409.0 304.0 401.0 292.0 Q 388.0 270.0 390.0 257.0 Q 393.0 241.0 408.0 247.0 Q 424.0 262.0 543.0 262.0 C 573.0 262.0 597.0 272.0 568.0 280.0 Q 558.0 284.0 531.0 287.0 Q 498.0 290.0 480.0 293.0 Q 479.0 297.0 479.0 299.0 Q 480.0 300.0 564.0 349.0 Q 591.0 356.0 582.0 380.0 Q 575.0 396.0 568.0 408.0 L 560.0 419.0 Z" fill="lightgray"></path>
      </clipPath>
      <path clip-path="url(#make-me-a-hanzi-clip-11)" d="M 535.0 424.0 L 548.0 402.0 L 548.0 374.0 L 506.0 335.0 L 467.0 310.0 L 454.0 285.0 L 485.0 275.0 L 522.0 276.0 L 530.0 271.0 L 552.0 279.0 " fill="none" id="make-me-a-hanzi-animation-11" stroke-dasharray="416 832" stroke-linecap="round"></path>

      <clipPath id="make-me-a-hanzi-clip-12">
      <path d="M 543.0 262.0 Q 434.0 190.0 416.0 185.0 Q 403.0 181.0 403.0 169.0 Q 402.0 159.0 418.0 138.0 Q 424.0 125.0 438.0 132.0 Q 498.0 159.0 556.0 172.0 L 584.0 179.0 Q 641.0 192.0 698.0 199.0 Q 699.0 200.0 705.0 200.0 C 735.0 204.0 722.0 217.0 692.0 215.0 Q 596.0 208.0 484.0 187.0 Q 483.0 186.0 483.0 187.0 Q 528.0 218.0 628.0 275.0 Q 662.0 297.0 689.0 307.0 Q 702.0 311.0 699.0 321.0 Q 696.0 340.0 675.0 364.0 Q 665.0 377.0 657.0 377.0 Q 647.0 377.0 645.0 364.0 Q 636.0 334.0 568.0 280.0 L 543.0 262.0 Z" fill="lightgray"></path>
      </clipPath>
      <path clip-path="url(#make-me-a-hanzi-clip-12)" d="M 657.0 365.0 L 662.0 330.0 L 593.0 275.0 L 485.0 208.0 L 479.0 202.0 L 485.0 169.0 L 632.0 199.0 L 686.0 207.0 L 701.0 203.0 " fill="none" id="make-me-a-hanzi-animation-12" stroke-dasharray="641 1282" stroke-linecap="round"></path>

      <clipPath id="make-me-a-hanzi-clip-13">
      <path d="M 705.0 200.0 Q 733.0 163.0 743.0 160.0 Q 750.0 159.0 757.0 168.0 Q 761.0 178.0 760.0 200.0 Q 757.0 228.0 683.0 266.0 Q 673.0 270.0 667.0 269.0 Q 663.0 268.0 662.0 258.0 Q 663.0 249.0 680.0 231.0 Q 686.0 224.0 692.0 215.0 L 705.0 200.0 Z" fill="lightgray"></path>
      </clipPath>
      <path clip-path="url(#make-me-a-hanzi-clip-13)" d="M 670.0 261.0 L 724.0 214.0 L 737.0 198.0 L 745.0 170.0 " fill="none" id="make-me-a-hanzi-animation-13" stroke-dasharray="249 498" stroke-linecap="round"></path>

      <clipPath id="make-me-a-hanzi-clip-14">
      <path d="M 556.0 172.0 Q 568.0 160.0 567.0 51.0 Q 566.0 33.0 563.0 29.0 Q 560.0 19.0 540.0 21.0 Q 506.0 31.0 468.0 40.0 Q 459.0 41.0 458.0 36.0 Q 457.0 32.0 466.0 23.0 Q 533.0 -23.0 556.0 -53.0 Q 572.0 -66.0 583.0 -62.0 Q 592.0 -59.0 601.0 -32.0 Q 614.0 -5.0 613.0 45.0 Q 610.0 94.0 611.0 113.0 Q 618.0 146.0 604.0 163.0 Q 594.0 173.0 584.0 179.0 C 559.0 196.0 543.0 199.0 556.0 172.0 Z" fill="lightgray"></path>
      </clipPath>
      <path clip-path="url(#make-me-a-hanzi-clip-14)" d="M 563.0 173.0 L 585.0 152.0 L 590.0 124.0 L 590.0 36.0 L 576.0 -5.0 L 569.0 -12.0 L 544.0 -5.0 L 466.0 32.0 " fill="none" id="make-me-a-hanzi-animation-14" stroke-dasharray="440 880" stroke-linecap="round"></path>

      <clipPath id="make-me-a-hanzi-clip-15">
      <path d="M 396.0 110.0 Q 372.0 76.0 343.0 45.0 Q 321.0 20.0 331.0 -12.0 Q 335.0 -28.0 355.0 -21.0 Q 400.0 3.0 410.0 57.0 Q 420.0 85.0 417.0 107.0 Q 414.0 114.0 409.0 117.0 Q 402.0 117.0 396.0 110.0 Z" fill="lightgray"></path>
      </clipPath>
      <path clip-path="url(#make-me-a-hanzi-clip-15)" d="M 406.0 107.0 L 385.0 54.0 L 346.0 -9.0 " fill="none" id="make-me-a-hanzi-animation-15" stroke-dasharray="259 518" stroke-linecap="round"></path>

      <clipPath id="make-me-a-hanzi-clip-16">
      <path d="M 695.0 95.0 Q 735.0 58.0 784.0 3.0 Q 799.0 -15.0 813.0 -19.0 Q 820.0 -20.0 828.0 -11.0 Q 838.0 2.0 827.0 41.0 Q 820.0 77.0 757.0 102.0 Q 717.0 117.0 696.0 123.0 Q 687.0 127.0 686.0 116.0 Q 685.0 104.0 695.0 95.0 Z" fill="lightgray"></path>
      </clipPath>
      <path clip-path="url(#make-me-a-hanzi-clip-16)" d="M 696.0 112.0 L 781.0 54.0 L 796.0 37.0 L 814.0 -5.0 " fill="none" id="make-me-a-hanzi-animation-16" stroke-dasharray="299 598" stroke-linecap="round"></path>

</g>
</svg>
