<svg version="1.1" viewBox="0 0 1024 1024" xmlns="http://www.w3.org/2000/svg">
  <g stroke="lightgray" stroke-dasharray="1,1" stroke-width="1" transform="scale(4, 4)">
    <line x1="0" y1="0" x2="256" y2="256"></line>
    <line x1="256" y1="0" x2="0" y2="256"></line>
    <line x1="128" y1="0" x2="128" y2="256"></line>
    <line x1="0" y1="128" x2="256" y2="128"></line>
  </g>
  <g transform="scale(0.92, -0.92) translate(60, -850)">
    <style type="text/css">
      
        @keyframes keyframes0 {
          from {
            stroke: blue;
            stroke-dashoffset: 590;
            stroke-width: 128;
          }
          66% {
            animation-timing-function: step-end;
            stroke: blue;
            stroke-dashoffset: 0;
            stroke-width: 128;
          }
          to {
            stroke: black;
            stroke-width: 1024;
          }
        }
        #make-me-a-hanzi-animation-0 {
          animation: keyframes0 0.7301432291666666s both;
          animation-delay: 0s;
          animation-timing-function: linear;
        }
      
        @keyframes keyframes1 {
          from {
            stroke: blue;
            stroke-dashoffset: 630;
            stroke-width: 128;
          }
          67% {
            animation-timing-function: step-end;
            stroke: blue;
            stroke-dashoffset: 0;
            stroke-width: 128;
          }
          to {
            stroke: black;
            stroke-width: 1024;
          }
        }
        #make-me-a-hanzi-animation-1 {
          animation: keyframes1 0.7626953125s both;
          animation-delay: 0.7301432291666666s;
          animation-timing-function: linear;
        }
      
        @keyframes keyframes2 {
          from {
            stroke: blue;
            stroke-dashoffset: 1083;
            stroke-width: 128;
          }
          78% {
            animation-timing-function: step-end;
            stroke: blue;
            stroke-dashoffset: 0;
            stroke-width: 128;
          }
          to {
            stroke: black;
            stroke-width: 1024;
          }
        }
        #make-me-a-hanzi-animation-2 {
          animation: keyframes2 1.13134765625s both;
          animation-delay: 1.4928385416666665s;
          animation-timing-function: linear;
        }
      
        @keyframes keyframes3 {
          from {
            stroke: blue;
            stroke-dashoffset: 1144;
            stroke-width: 128;
          }
          79% {
            animation-timing-function: step-end;
            stroke: blue;
            stroke-dashoffset: 0;
            stroke-width: 128;
          }
          to {
            stroke: black;
            stroke-width: 1024;
          }
        }
        #make-me-a-hanzi-animation-3 {
          animation: keyframes3 1.1809895833333333s both;
          animation-delay: 2.6241861979166665s;
          animation-timing-function: linear;
        }
      
        @keyframes keyframes4 {
          from {
            stroke: blue;
            stroke-dashoffset: 537;
            stroke-width: 128;
          }
          64% {
            animation-timing-function: step-end;
            stroke: blue;
            stroke-dashoffset: 0;
            stroke-width: 128;
          }
          to {
            stroke: black;
            stroke-width: 1024;
          }
        }
        #make-me-a-hanzi-animation-4 {
          animation: keyframes4 0.68701171875s both;
          animation-delay: 3.80517578125s;
          animation-timing-function: linear;
        }
      
        @keyframes keyframes5 {
          from {
            stroke: blue;
            stroke-dashoffset: 876;
            stroke-width: 128;
          }
          74% {
            animation-timing-function: step-end;
            stroke: blue;
            stroke-dashoffset: 0;
            stroke-width: 128;
          }
          to {
            stroke: black;
            stroke-width: 1024;
          }
        }
        #make-me-a-hanzi-animation-5 {
          animation: keyframes5 0.962890625s both;
          animation-delay: 4.4921875s;
          animation-timing-function: linear;
        }
      
    </style>
    
      <path d="M 518 485 L 537 488 Q 541 490 574 494 Q 608 498 619 502 L 653 510 Q 660 512 661 517 Q 663 521 662 522 L 659 529 Q 657 536 633 545 Q 609 554 600 554 Q 591 554 576 550 L 549 542 L 518 535 L 464 524 L 430 518 Q 403 512 358 510 L 327 507 Q 297 505 312 488 Q 331 467 392 471 L 464 478 L 518 485 Z" fill="lightgray"></path>
    
      <path d="M 518 358 L 518 485 L 518 535 L 519 594 Q 519 652 529 668 Q 540 683 533 692 Q 527 700 522 702 Q 481 720 460 720 Q 437 717 446 704 L 451 690 Q 464 664 464 584 L 464 524 L 464 478 L 464 353 C 464 323 518 328 518 358 Z" fill="lightgray"></path>
    
      <path d="M 840 403 L 798 393 L 758 386 L 635 369 L 566 364 L 518 358 L 464 353 L 372 346 L 257 334 Q 207 330 191 330 L 128 328 L 104 326 Q 91 326 89 320 Q 88 314 95 306 Q 101 295 116 288 Q 132 277 149 273 Q 167 268 172 269 L 195 274 Q 211 280 242 286 Q 252 286 288 293 Q 324 300 379 306 L 528 323 L 603 328 L 763 332 L 840 332 L 905 329 Q 925 327 929 336 Q 934 344 928 356 Q 923 362 898 379 L 863 398 Q 850 404 840 403 Z" fill="lightgray"></path>
    
      <path d="M 635 369 L 746 498 Q 771 525 778 528 Q 785 531 787 537 Q 789 542 783 555 Q 778 568 762 583 Q 758 590 741 599 Q 725 608 722 608 Q 719 608 713 606 Q 709 602 708 598 L 702 570 Q 699 554 695 547 L 683 522 L 648 465 Q 634 445 611 419 Q 589 393 566 364 L 528 323 L 399 199 Q 352 156 305 123 Q 212 57 151 26 L 126 12 Q 112 4 115 -1 Q 119 -7 130 -4 L 158 2 Q 173 5 241 36 Q 310 67 366 110 Q 422 152 436 164 L 478 202 L 510 231 L 603 328 L 635 369 Z" fill="lightgray"></path>
    
      <path d="M 487 37 Q 518 37 543 46 Q 618 66 675 98 Q 713 116 743 126 Q 756 128 759 139 Q 762 157 736 180 Q 708 200 699 204 Q 685 208 684 201 Q 677 171 664 163 Q 569 74 489 54 C 460 46 457 36 487 37 Z" fill="lightgray"></path>
    
      <path d="M 436 164 L 430 19 Q 430 -22 435 -47 L 442 -64 Q 445 -70 458 -83 Q 480 -104 546 -112 L 556 -113 Q 565 -116 606 -116 L 639 -116 Q 717 -116 778 -99 L 821 -84 Q 843 -76 843 -66 Q 844 -62 839 -53 Q 834 -47 822 -38 Q 810 -30 798 -28 Q 787 -26 782 -27 Q 778 -28 737 -45 Q 696 -62 628 -62 L 606 -64 Q 585 -64 566 -63 Q 548 -63 507 -46 L 486 -25 Q 483 -13 486 23 L 487 37 L 489 54 L 508 147 L 512 159 Q 513 173 506 179 L 478 202 C 455 221 437 194 436 164 Z" fill="lightgray"></path>
    
    
      <clipPath id="make-me-a-hanzi-clip-0">
        <path d="M 518 485 L 537 488 Q 541 490 574 494 Q 608 498 619 502 L 653 510 Q 660 512 661 517 Q 663 521 662 522 L 659 529 Q 657 536 633 545 Q 609 554 600 554 Q 591 554 576 550 L 549 542 L 518 535 L 464 524 L 430 518 Q 403 512 358 510 L 327 507 Q 297 505 312 488 Q 331 467 392 471 L 464 478 L 518 485 Z"></path>
      </clipPath>
      <path clip-path="url(#make-me-a-hanzi-clip-0)" d="M 320 497 L 382 490 L 589 525 L 651 522" fill="none" id="make-me-a-hanzi-animation-0" stroke-dasharray="462 924" stroke-linecap="round"></path>
    
      <clipPath id="make-me-a-hanzi-clip-1">
        <path d="M 518 358 L 518 485 L 518 535 L 519 594 Q 519 652 529 668 Q 540 683 533 692 Q 527 700 522 702 Q 481 720 460 720 Q 437 717 446 704 L 451 690 Q 464 664 464 584 L 464 524 L 464 478 L 464 353 C 464 323 518 328 518 358 Z"></path>
      </clipPath>
      <path clip-path="url(#make-me-a-hanzi-clip-1)" d="M 455 710 L 493 675 L 491 383 L 470 361" fill="none" id="make-me-a-hanzi-animation-1" stroke-dasharray="502 1004" stroke-linecap="round"></path>
    
      <clipPath id="make-me-a-hanzi-clip-2">
        <path d="M 840 403 L 798 393 L 758 386 L 635 369 L 566 364 L 518 358 L 464 353 L 372 346 L 257 334 Q 207 330 191 330 L 128 328 L 104 326 Q 91 326 89 320 Q 88 314 95 306 Q 101 295 116 288 Q 132 277 149 273 Q 167 268 172 269 L 195 274 Q 211 280 242 286 Q 252 286 288 293 Q 324 300 379 306 L 528 323 L 603 328 L 763 332 L 840 332 L 905 329 Q 925 327 929 336 Q 934 344 928 356 Q 923 362 898 379 L 863 398 Q 850 404 840 403 Z"></path>
      </clipPath>
      <path clip-path="url(#make-me-a-hanzi-clip-2)" d="M 98 315 L 163 299 L 381 327 L 841 368 L 916 344" fill="none" id="make-me-a-hanzi-animation-2" stroke-dasharray="955 1910" stroke-linecap="round"></path>
    
      <clipPath id="make-me-a-hanzi-clip-3">
        <path d="M 635 369 L 746 498 Q 771 525 778 528 Q 785 531 787 537 Q 789 542 783 555 Q 778 568 762 583 Q 758 590 741 599 Q 725 608 722 608 Q 719 608 713 606 Q 709 602 708 598 L 702 570 Q 699 554 695 547 L 683 522 L 648 465 Q 634 445 611 419 Q 589 393 566 364 L 528 323 L 399 199 Q 352 156 305 123 Q 212 57 151 26 L 126 12 Q 112 4 115 -1 Q 119 -7 130 -4 L 158 2 Q 173 5 241 36 Q 310 67 366 110 Q 422 152 436 164 L 478 202 L 510 231 L 603 328 L 635 369 Z"></path>
      </clipPath>
      <path clip-path="url(#make-me-a-hanzi-clip-3)" d="M 720 596 L 739 548 L 728 530 L 671 450 L 587 349 L 507 265 L 391 158 L 302 92 L 205 36 L 123 0" fill="none" id="make-me-a-hanzi-animation-3" stroke-dasharray="1016 2032" stroke-linecap="round"></path>
    
      <clipPath id="make-me-a-hanzi-clip-4">
        <path d="M 487 37 Q 518 37 543 46 Q 618 66 675 98 Q 713 116 743 126 Q 756 128 759 139 Q 762 157 736 180 Q 708 200 699 204 Q 685 208 684 201 Q 677 171 664 163 Q 569 74 489 54 C 460 46 457 36 487 37 Z"></path>
      </clipPath>
      <path clip-path="url(#make-me-a-hanzi-clip-4)" d="M 694 188 L 707 154 L 698 146 L 592 80 L 548 60 L 498 47 L 494 40" fill="none" id="make-me-a-hanzi-animation-4" stroke-dasharray="409 818" stroke-linecap="round"></path>
    
      <clipPath id="make-me-a-hanzi-clip-5">
        <path d="M 436 164 L 430 19 Q 430 -22 435 -47 L 442 -64 Q 445 -70 458 -83 Q 480 -104 546 -112 L 556 -113 Q 565 -116 606 -116 L 639 -116 Q 717 -116 778 -99 L 821 -84 Q 843 -76 843 -66 Q 844 -62 839 -53 Q 834 -47 822 -38 Q 810 -30 798 -28 Q 787 -26 782 -27 Q 778 -28 737 -45 Q 696 -62 628 -62 L 606 -64 Q 585 -64 566 -63 Q 548 -63 507 -46 L 486 -25 Q 483 -13 486 23 L 487 37 L 489 54 L 508 147 L 512 159 Q 513 173 506 179 L 478 202 C 455 221 437 194 436 164 Z"></path>
      </clipPath>
      <path clip-path="url(#make-me-a-hanzi-clip-5)" d="M 478 192 L 479 160 L 470 141 L 457 -3 L 461 -37 L 486 -67 L 539 -86 L 599 -90 L 710 -83 L 795 -59 L 828 -64" fill="none" id="make-me-a-hanzi-animation-5" stroke-dasharray="748 1496" stroke-linecap="round"></path>
    
  </g>
</svg>