<svg version="1.1" viewBox="0 0 1024 1024" xmlns="http://www.w3.org/2000/svg">
  <g stroke="lightgray" stroke-dasharray="1,1" stroke-width="1" transform="scale(4, 4)">
    <line x1="0" y1="0" x2="256" y2="256"></line>
    <line x1="256" y1="0" x2="0" y2="256"></line>
    <line x1="128" y1="0" x2="128" y2="256"></line>
    <line x1="0" y1="128" x2="256" y2="128"></line>
  </g>
  <g transform="scale(1, -1) translate(0, -860)">
    <style type="text/css">
      
        @keyframes keyframes0 {
          from {
            stroke: blue;
            stroke-dashoffset: 951;
            stroke-width: 128;
          }
          76% {
            animation-timing-function: step-end;
            stroke: blue;
            stroke-dashoffset: 0;
            stroke-width: 128;
          }
          to {
            stroke: black;
            stroke-width: 1024;
          }
        }
        #make-me-a-hanzi-animation-0 {
          animation: keyframes0 1.02392578125s both;
          animation-delay: 0s;
          animation-timing-function: linear;
        }
      
        @keyframes keyframes1 {
          from {
            stroke: blue;
            stroke-dashoffset: 1161;
            stroke-width: 128;
          }
          79% {
            animation-timing-function: step-end;
            stroke: blue;
            stroke-dashoffset: 0;
            stroke-width: 128;
          }
          to {
            stroke: black;
            stroke-width: 1024;
          }
        }
        #make-me-a-hanzi-animation-1 {
          animation: keyframes1 1.19482421875s both;
          animation-delay: 1.02392578125s;
          animation-timing-function: linear;
        }
      
        @keyframes keyframes2 {
          from {
            stroke: blue;
            stroke-dashoffset: 398;
            stroke-width: 128;
          }
          56% {
            animation-timing-function: step-end;
            stroke: blue;
            stroke-dashoffset: 0;
            stroke-width: 128;
          }
          to {
            stroke: black;
            stroke-width: 1024;
          }
        }
        #make-me-a-hanzi-animation-2 {
          animation: keyframes2 0.5738932291666666s both;
          animation-delay: 2.21875s;
          animation-timing-function: linear;
        }
      
        @keyframes keyframes3 {
          from {
            stroke: blue;
            stroke-dashoffset: 427;
            stroke-width: 128;
          }
          58% {
            animation-timing-function: step-end;
            stroke: blue;
            stroke-dashoffset: 0;
            stroke-width: 128;
          }
          to {
            stroke: black;
            stroke-width: 1024;
          }
        }
        #make-me-a-hanzi-animation-3 {
          animation: keyframes3 0.5974934895833334s both;
          animation-delay: 2.7926432291666665s;
          animation-timing-function: linear;
        }
      
        @keyframes keyframes4 {
          from {
            stroke: blue;
            stroke-dashoffset: 663;
            stroke-width: 128;
          }
          68% {
            animation-timing-function: step-end;
            stroke: blue;
            stroke-dashoffset: 0;
            stroke-width: 128;
          }
          to {
            stroke: black;
            stroke-width: 1024;
          }
        }
        #make-me-a-hanzi-animation-4 {
          animation: keyframes4 0.78955078125s both;
          animation-delay: 3.39013671875s;
          animation-timing-function: linear;
        }
      
        @keyframes keyframes5 {
          from {
            stroke: blue;
            stroke-dashoffset: 728;
            stroke-width: 128;
          }
          70% {
            animation-timing-function: step-end;
            stroke: blue;
            stroke-dashoffset: 0;
            stroke-width: 128;
          }
          to {
            stroke: black;
            stroke-width: 1024;
          }
        }
        #make-me-a-hanzi-animation-5 {
          animation: keyframes5 0.8424479166666666s both;
          animation-delay: 4.1796875s;
          animation-timing-function: linear;
        }
      
        @keyframes keyframes6 {
          from {
            stroke: blue;
            stroke-dashoffset: 481;
            stroke-width: 128;
          }
          61% {
            animation-timing-function: step-end;
            stroke: blue;
            stroke-dashoffset: 0;
            stroke-width: 128;
          }
          to {
            stroke: black;
            stroke-width: 1024;
          }
        }
        #make-me-a-hanzi-animation-6 {
          animation: keyframes6 0.6414388020833334s both;
          animation-delay: 5.022135416666667s;
          animation-timing-function: linear;
        }
      
        @keyframes keyframes7 {
          from {
            stroke: blue;
            stroke-dashoffset: 1450;
            stroke-width: 128;
          }
          83% {
            animation-timing-function: step-end;
            stroke: blue;
            stroke-dashoffset: 0;
            stroke-width: 128;
          }
          to {
            stroke: black;
            stroke-width: 1024;
          }
        }
        #make-me-a-hanzi-animation-7 {
          animation: keyframes7 1.4300130208333333s both;
          animation-delay: 5.66357421875s;
          animation-timing-function: linear;
        }
      
    </style>
    
      <path d="M 208 571 L 194 576 Q 181 583 162 585 Q 144 587 142 584 Q 138 583 139 577 L 146 562 Q 152 552 154 531 L 156 502 Q 158 492 158 398 Q 160 359 158 331 Q 158 294 154 260 Q 153 176 132 114 Q 124 75 110 49 Q 97 14 62 -39 L 46 -62 Q 42 -67 45 -71 Q 48 -75 56 -69 L 80 -50 Q 108 -34 142 28 Q 182 110 195 194 L 198 219 L 205 312 Q 208 337 208 369 L 208 415 L 210 450 L 210 467 L 212 495 L 220 545 C 223 565 223 565 208 571 Z" fill="lightgray"></path>
    
      <path d="M 306 -6 L 236 11 Q 227 13 226 11 Q 225 8 230 2 L 248 -14 L 288 -56 Q 289 -56 289 -58 L 312 -86 Q 322 -98 328 -99 Q 335 -100 348 -90 Q 379 -62 391 -14 Q 397 9 397 56 Q 398 102 398 173 L 398 200 L 400 232 L 400 435 L 404 507 L 407 530 Q 410 550 416 556 Q 422 564 422 569 Q 422 573 411 583 Q 401 593 396 596 L 372 610 Q 360 616 357 616 L 348 614 L 340 610 L 309 599 Q 291 592 278 589 L 208 571 C 179 564 191 539 220 545 L 314 563 Q 317 564 329 564 Q 338 562 343 557 Q 348 551 348 524 L 348 398 L 347 382 L 346 294 L 345 272 L 339 106 L 334 51 Q 331 -2 318 -4 Q 313 -8 306 -6 Z" fill="lightgray"></path>
    
      <path d="M 210 450 L 255 404 Q 281 378 292 374 Q 305 366 318 365 Q 331 363 336 369 Q 342 374 347 382 C 353 390 353 390 348 398 L 338 414 Q 330 434 288 449 Q 246 463 210 467 C 191 469 191 469 210 450 Z" fill="lightgray"></path>
    
      <path d="M 195 194 L 229 163 Q 235 158 250 170 L 262 187 L 345 272 C 366 293 371 310 346 294 L 314 274 L 267 247 Q 237 229 198 219 C 174 213 174 213 195 194 Z" fill="lightgray"></path>
    
      <path d="M 666 426 L 740 442 Q 748 443 774 450 Q 802 460 818 464 Q 861 479 863 490 Q 864 495 852 503 Q 840 511 824 516 Q 808 520 806 520 L 790 513 Q 722 485 669 474 L 614 461 L 546 447 L 460 432 Q 452 431 450 426 Q 448 421 460 412 Q 475 403 496 403 Q 543 399 609 416 L 666 426 Z" fill="lightgray"></path>
    
      <path d="M 780 260 L 767 260 Q 760 260 748 256 Q 731 254 722 251 L 652 233 L 598 218 L 528 196 Q 516 195 513 196 Q 509 204 511 213 Q 514 222 518 244 Q 523 265 528 276 Q 534 287 534 291 Q 534 294 524 306 Q 514 318 489 327 Q 464 336 460 332 L 458 325 Q 458 323 463 308 L 469 288 Q 471 283 463 217 Q 461 209 454 194 Q 446 183 445 180 Q 445 176 453 155 Q 461 134 468 128 Q 479 118 498 135 L 526 154 L 571 174 L 598 184 L 651 201 L 716 216 Q 728 216 776 229 C 805 237 810 260 780 260 Z" fill="lightgray"></path>
    
      <path d="M 776 229 L 772 205 Q 769 179 769 173 Q 770 166 776 159 Q 782 152 794 151 Q 806 149 813 163 Q 822 178 829 200 L 851 298 Q 855 313 861 322 Q 867 330 870 336 L 871 337 Q 873 342 865 350 Q 858 358 848 360 L 829 370 Q 813 378 794 381 Q 775 383 774 380 Q 770 377 770 374 Q 770 371 776 355 Q 783 339 785 306 Q 787 273 780 260 L 776 229 Z" fill="lightgray"></path>
    
      <path d="M 652 233 L 656 330 Q 656 353 666 426 L 669 474 L 681 580 Q 685 602 685 610 L 702 656 Q 704 662 696 670 Q 688 677 677 683 L 646 697 Q 639 700 621 703 Q 603 706 599 700 Q 596 694 606 670 Q 616 645 616 600 L 614 461 L 609 416 L 605 324 L 598 218 L 598 184 L 598 127 Q 597 37 615 -10 Q 651 -109 830 -93 Q 951 -83 970 -42 Q 976 -30 976 -25 Q 977 -20 975 -10 L 955 40 Q 949 67 948 78 L 940 138 Q 940 145 933 146 Q 928 148 926 137 L 918 83 L 914 65 Q 904 28 900 19 Q 896 10 886 3 Q 877 -8 863 -12 Q 829 -24 776 -24 Q 728 -29 690 -8 Q 672 6 667 16 Q 644 57 650 144 Q 650 187 651 201 L 652 233 Z" fill="lightgray"></path>
    
    
      <clipPath id="make-me-a-hanzi-clip-0">
        <path d="M 208 571 L 194 576 Q 181 583 162 585 Q 144 587 142 584 Q 138 583 139 577 L 146 562 Q 152 552 154 531 L 156 502 Q 158 492 158 398 Q 160 359 158 331 Q 158 294 154 260 Q 153 176 132 114 Q 124 75 110 49 Q 97 14 62 -39 L 46 -62 Q 42 -67 45 -71 Q 48 -75 56 -69 L 80 -50 Q 108 -34 142 28 Q 182 110 195 194 L 198 219 L 205 312 Q 208 337 208 369 L 208 415 L 210 450 L 210 467 L 212 495 L 220 545 C 223 565 223 565 208 571 Z"></path>
      </clipPath>
      <path clip-path="url(#make-me-a-hanzi-clip-0)" d="M 147 578 L 173 559 L 186 541 L 183 333 L 170 175 L 129 43 L 97 -13 L 50 -67" fill="none" id="make-me-a-hanzi-animation-0" stroke-dasharray="823 1646" stroke-linecap="round"></path>
    
      <clipPath id="make-me-a-hanzi-clip-1">
        <path d="M 306 -6 L 236 11 Q 227 13 226 11 Q 225 8 230 2 L 248 -14 L 288 -56 Q 289 -56 289 -58 L 312 -86 Q 322 -98 328 -99 Q 335 -100 348 -90 Q 379 -62 391 -14 Q 397 9 397 56 Q 398 102 398 173 L 398 200 L 400 232 L 400 435 L 404 507 L 407 530 Q 410 550 416 556 Q 422 564 422 569 Q 422 573 411 583 Q 401 593 396 596 L 372 610 Q 360 616 357 616 L 348 614 L 340 610 L 309 599 Q 291 592 278 589 L 208 571 C 179 564 191 539 220 545 L 314 563 Q 317 564 329 564 Q 338 562 343 557 Q 348 551 348 524 L 348 398 L 347 382 L 346 294 L 345 272 L 339 106 L 334 51 Q 331 -2 318 -4 Q 313 -8 306 -6 Z"></path>
      </clipPath>
      <path clip-path="url(#make-me-a-hanzi-clip-1)" d="M 216 567 L 241 563 L 343 585 L 363 581 L 379 564 L 369 101 L 360 -2 L 351 -24 L 332 -44 L 231 8" fill="none" id="make-me-a-hanzi-animation-1" stroke-dasharray="1033 2066" stroke-linecap="round"></path>
    
      <clipPath id="make-me-a-hanzi-clip-2">
        <path d="M 210 450 L 255 404 Q 281 378 292 374 Q 305 366 318 365 Q 331 363 336 369 Q 342 374 347 382 C 353 390 353 390 348 398 L 338 414 Q 330 434 288 449 Q 246 463 210 467 C 191 469 191 469 210 450 Z"></path>
      </clipPath>
      <path clip-path="url(#make-me-a-hanzi-clip-2)" d="M 216 463 L 222 453 L 321 391 L 334 395" fill="none" id="make-me-a-hanzi-animation-2" stroke-dasharray="270 540" stroke-linecap="round"></path>
    
      <clipPath id="make-me-a-hanzi-clip-3">
        <path d="M 195 194 L 229 163 Q 235 158 250 170 L 262 187 L 345 272 C 366 293 371 310 346 294 L 314 274 L 267 247 Q 237 229 198 219 C 174 213 174 213 195 194 Z"></path>
      </clipPath>
      <path clip-path="url(#make-me-a-hanzi-clip-3)" d="M 208 211 L 234 199 L 333 273 L 342 289" fill="none" id="make-me-a-hanzi-animation-3" stroke-dasharray="299 598" stroke-linecap="round"></path>
    
      <clipPath id="make-me-a-hanzi-clip-4">
        <path d="M 666 426 L 740 442 Q 748 443 774 450 Q 802 460 818 464 Q 861 479 863 490 Q 864 495 852 503 Q 840 511 824 516 Q 808 520 806 520 L 790 513 Q 722 485 669 474 L 614 461 L 546 447 L 460 432 Q 452 431 450 426 Q 448 421 460 412 Q 475 403 496 403 Q 543 399 609 416 L 666 426 Z"></path>
      </clipPath>
      <path clip-path="url(#make-me-a-hanzi-clip-4)" d="M 458 425 L 491 420 L 566 428 L 747 469 L 810 491 L 856 490" fill="none" id="make-me-a-hanzi-animation-4" stroke-dasharray="535 1070" stroke-linecap="round"></path>
    
      <clipPath id="make-me-a-hanzi-clip-5">
        <path d="M 780 260 L 767 260 Q 760 260 748 256 Q 731 254 722 251 L 652 233 L 598 218 L 528 196 Q 516 195 513 196 Q 509 204 511 213 Q 514 222 518 244 Q 523 265 528 276 Q 534 287 534 291 Q 534 294 524 306 Q 514 318 489 327 Q 464 336 460 332 L 458 325 Q 458 323 463 308 L 469 288 Q 471 283 463 217 Q 461 209 454 194 Q 446 183 445 180 Q 445 176 453 155 Q 461 134 468 128 Q 479 118 498 135 L 526 154 L 571 174 L 598 184 L 651 201 L 716 216 Q 728 216 776 229 C 805 237 810 260 780 260 Z"></path>
      </clipPath>
      <path clip-path="url(#make-me-a-hanzi-clip-5)" d="M 465 327 L 499 288 L 484 192 L 484 174 L 494 170 L 535 178 L 649 217 L 758 241 L 774 253" fill="none" id="make-me-a-hanzi-animation-5" stroke-dasharray="600 1200" stroke-linecap="round"></path>
    
      <clipPath id="make-me-a-hanzi-clip-6">
        <path d="M 776 229 L 772 205 Q 769 179 769 173 Q 770 166 776 159 Q 782 152 794 151 Q 806 149 813 163 Q 822 178 829 200 L 851 298 Q 855 313 861 322 Q 867 330 870 336 L 871 337 Q 873 342 865 350 Q 858 358 848 360 L 829 370 Q 813 378 794 381 Q 775 383 774 380 Q 770 377 770 374 Q 770 371 776 355 Q 783 339 785 306 Q 787 273 780 260 L 776 229 Z"></path>
      </clipPath>
      <path clip-path="url(#make-me-a-hanzi-clip-6)" d="M 778 373 L 805 352 L 821 330 L 796 168" fill="none" id="make-me-a-hanzi-animation-6" stroke-dasharray="353 706" stroke-linecap="round"></path>
    
      <clipPath id="make-me-a-hanzi-clip-7">
        <path d="M 652 233 L 656 330 Q 656 353 666 426 L 669 474 L 681 580 Q 685 602 685 610 L 702 656 Q 704 662 696 670 Q 688 677 677 683 L 646 697 Q 639 700 621 703 Q 603 706 599 700 Q 596 694 606 670 Q 616 645 616 600 L 614 461 L 609 416 L 605 324 L 598 218 L 598 184 L 598 127 Q 597 37 615 -10 Q 651 -109 830 -93 Q 951 -83 970 -42 Q 976 -30 976 -25 Q 977 -20 975 -10 L 955 40 Q 949 67 948 78 L 940 138 Q 940 145 933 146 Q 928 148 926 137 L 918 83 L 914 65 Q 904 28 900 19 Q 896 10 886 3 Q 877 -8 863 -12 Q 829 -24 776 -24 Q 728 -29 690 -8 Q 672 6 667 16 Q 644 57 650 144 Q 650 187 651 201 L 652 233 Z"></path>
      </clipPath>
      <path clip-path="url(#make-me-a-hanzi-clip-7)" d="M 606 695 L 654 646 L 624 212 L 624 81 L 636 14 L 645 -5 L 656 -21 L 688 -45 L 740 -59 L 859 -53 L 915 -32 L 929 -20 L 931 -6 L 933 139" fill="none" id="make-me-a-hanzi-animation-7" stroke-dasharray="1322 2644" stroke-linecap="round"></path>
    
  </g>
</svg>