<svg version="1.1" viewBox="0 0 1024 1024" xmlns="http://www.w3.org/2000/svg">
  <g stroke="lightgray" stroke-dasharray="1,1" stroke-width="1" transform="scale(4, 4)">
    <line x1="0" y1="0" x2="256" y2="256"></line>
    <line x1="256" y1="0" x2="0" y2="256"></line>
    <line x1="128" y1="0" x2="128" y2="256"></line>
    <line x1="0" y1="128" x2="256" y2="128"></line>
  </g>
  <g transform="scale(0.92, -0.92) translate(60, -850)">
    <style type="text/css">
      
        @keyframes keyframes0 {
          from {
            stroke: blue;
            stroke-dashoffset: 857;
            stroke-width: 128;
          }
          74% {
            animation-timing-function: step-end;
            stroke: blue;
            stroke-dashoffset: 0;
            stroke-width: 128;
          }
          to {
            stroke: black;
            stroke-width: 1024;
          }
        }
        #make-me-a-hanzi-animation-0 {
          animation: keyframes0 0.9474283854166666s both;
          animation-delay: 0s;
          animation-timing-function: linear;
        }
      
        @keyframes keyframes1 {
          from {
            stroke: blue;
            stroke-dashoffset: 449;
            stroke-width: 128;
          }
          59% {
            animation-timing-function: step-end;
            stroke: blue;
            stroke-dashoffset: 0;
            stroke-width: 128;
          }
          to {
            stroke: black;
            stroke-width: 1024;
          }
        }
        #make-me-a-hanzi-animation-1 {
          animation: keyframes1 0.6153971354166666s both;
          animation-delay: 0.9474283854166666s;
          animation-timing-function: linear;
        }
      
        @keyframes keyframes2 {
          from {
            stroke: blue;
            stroke-dashoffset: 865;
            stroke-width: 128;
          }
          74% {
            animation-timing-function: step-end;
            stroke: blue;
            stroke-dashoffset: 0;
            stroke-width: 128;
          }
          to {
            stroke: black;
            stroke-width: 1024;
          }
        }
        #make-me-a-hanzi-animation-2 {
          animation: keyframes2 0.9539388020833334s both;
          animation-delay: 1.5628255208333333s;
          animation-timing-function: linear;
        }
      
        @keyframes keyframes3 {
          from {
            stroke: blue;
            stroke-dashoffset: 709;
            stroke-width: 128;
          }
          70% {
            animation-timing-function: step-end;
            stroke: blue;
            stroke-dashoffset: 0;
            stroke-width: 128;
          }
          to {
            stroke: black;
            stroke-width: 1024;
          }
        }
        #make-me-a-hanzi-animation-3 {
          animation: keyframes3 0.8269856770833334s both;
          animation-delay: 2.5167643229166665s;
          animation-timing-function: linear;
        }
      
        @keyframes keyframes4 {
          from {
            stroke: blue;
            stroke-dashoffset: 466;
            stroke-width: 128;
          }
          60% {
            animation-timing-function: step-end;
            stroke: blue;
            stroke-dashoffset: 0;
            stroke-width: 128;
          }
          to {
            stroke: black;
            stroke-width: 1024;
          }
        }
        #make-me-a-hanzi-animation-4 {
          animation: keyframes4 0.6292317708333334s both;
          animation-delay: 3.34375s;
          animation-timing-function: linear;
        }
      
        @keyframes keyframes5 {
          from {
            stroke: blue;
            stroke-dashoffset: 1512;
            stroke-width: 128;
          }
          83% {
            animation-timing-function: step-end;
            stroke: blue;
            stroke-dashoffset: 0;
            stroke-width: 128;
          }
          to {
            stroke: black;
            stroke-width: 1024;
          }
        }
        #make-me-a-hanzi-animation-5 {
          animation: keyframes5 1.48046875s both;
          animation-delay: 3.9729817708333335s;
          animation-timing-function: linear;
        }
      
    </style>
    
      <path d="M 520 591 L 598 599 L 666 602 L 753 608 Q 764 608 769 613 Q 772 618 772 620 Q 775 628 748 645 Q 714 667 699 666 L 544 637 Q 447 621 313 604 L 186 588 Q 162 584 160 581 Q 159 577 161 574 L 193 549 C 205 539 242 546 271 552 L 323 562 L 458 584 L 520 591 Z" fill="lightgray"></path>
    
      <path d="M 527 412 L 540 530 Q 541 547 545 556 Q 553 581 520 591 C 492 601 449 612 458 584 L 464 566 Q 469 552 470 527 Q 471 502 471 405 C 471 375 524 382 527 412 Z" fill="lightgray"></path>
    
      <path d="M 689 240 L 732 313 Q 745 333 760 349 Q 776 364 780 370 Q 784 375 779 379 Q 774 383 771 389 L 738 413 Q 699 436 678 436 Q 677 435 660 430 Q 643 425 632 424 L 527 412 L 471 405 L 266 376 C 236 372 235 352 264 343 L 284 337 L 309 344 L 370 356 Q 386 360 447 368 L 523 378 L 619 384 Q 650 388 655 381 Q 660 373 660 370 Q 661 366 659 353 L 625 244 C 616 215 674 214 689 240 Z" fill="lightgray"></path>
    
      <path d="M 527 188 L 605 196 L 669 198 L 707 201 Q 716 203 720 208 Q 725 216 714 222 L 689 240 C 675 250 655 248 625 244 L 355 209 Q 310 202 261 200 C 231 199 227 169 257 166 L 279 164 Q 280 163 295 164 L 461 180 L 527 188 Z" fill="lightgray"></path>
    
      <path d="M 533 -8 L 539 118 Q 539 134 544 151 L 548 166 Q 548 168 544 175 Q 540 181 527 188 C 501 203 452 209 461 180 L 465 167 Q 467 165 469 142 L 472 116 L 476 -14 C 477 -44 532 -38 533 -8 Z" fill="lightgray"></path>
    
      <path d="M 193 549 L 199 537 Q 202 530 205 494 Q 208 457 209 454 L 211 252 L 202 99 Q 197 24 193 7 Q 189 -10 184 -18 L 173 -40 L 170 -54 Q 169 -60 180 -76 Q 188 -92 204 -103 Q 221 -115 225 -114 Q 230 -113 243 -104 Q 257 -96 270 -92 Q 283 -88 339 -77 Q 396 -66 451 -64 L 586 -57 L 846 -64 Q 851 -63 856 -58 Q 861 -54 861 -46 Q 859 -40 848 -22 Q 827 11 776 16 L 533 -8 L 476 -14 L 302 -30 Q 269 -33 264 -31 Q 259 -30 253 -26 Q 248 -22 253 16 L 253 54 L 257 166 L 261 200 L 264 343 L 266 376 L 269 468 Q 269 508 277 524 L 283 538 Q 283 546 271 552 C 267 582 185 578 193 549 Z" fill="lightgray"></path>
    
    
      <clipPath id="make-me-a-hanzi-clip-0">
        <path d="M 520 591 L 598 599 L 666 602 L 753 608 Q 764 608 769 613 Q 772 618 772 620 Q 775 628 748 645 Q 714 667 699 666 L 544 637 Q 447 621 313 604 L 186 588 Q 162 584 160 581 Q 159 577 161 574 L 193 549 C 205 539 242 546 271 552 L 323 562 L 458 584 L 520 591 Z"></path>
      </clipPath>
      <path clip-path="url(#make-me-a-hanzi-clip-0)" d="M 166 578 L 200 569 L 273 575 L 697 635 L 760 621" fill="none" id="make-me-a-hanzi-animation-0" stroke-dasharray="729 1458" stroke-linecap="round"></path>
    
      <clipPath id="make-me-a-hanzi-clip-1">
        <path d="M 527 412 L 540 530 Q 541 547 545 556 Q 553 581 520 591 C 492 601 449 612 458 584 L 464 566 Q 469 552 470 527 Q 471 502 471 405 C 471 375 524 382 527 412 Z"></path>
      </clipPath>
      <path clip-path="url(#make-me-a-hanzi-clip-1)" d="M 466 582 L 505 552 L 499 439 L 477 417" fill="none" id="make-me-a-hanzi-animation-1" stroke-dasharray="321 642" stroke-linecap="round"></path>
    
      <clipPath id="make-me-a-hanzi-clip-2">
        <path d="M 689 240 L 732 313 Q 745 333 760 349 Q 776 364 780 370 Q 784 375 779 379 Q 774 383 771 389 L 738 413 Q 699 436 678 436 Q 677 435 660 430 Q 643 425 632 424 L 527 412 L 471 405 L 266 376 C 236 372 235 352 264 343 L 284 337 L 309 344 L 370 356 Q 386 360 447 368 L 523 378 L 619 384 Q 650 388 655 381 Q 660 373 660 370 Q 661 366 659 353 L 625 244 C 616 215 674 214 689 240 Z"></path>
      </clipPath>
      <path clip-path="url(#make-me-a-hanzi-clip-2)" d="M 271 348 L 292 361 L 418 382 L 536 397 L 675 404 L 708 376 L 708 361 L 671 275 L 632 249" fill="none" id="make-me-a-hanzi-animation-2" stroke-dasharray="737 1474" stroke-linecap="round"></path>
    
      <clipPath id="make-me-a-hanzi-clip-3">
        <path d="M 527 188 L 605 196 L 669 198 L 707 201 Q 716 203 720 208 Q 725 216 714 222 L 689 240 C 675 250 655 248 625 244 L 355 209 Q 310 202 261 200 C 231 199 227 169 257 166 L 279 164 Q 280 163 295 164 L 461 180 L 527 188 Z"></path>
      </clipPath>
      <path clip-path="url(#make-me-a-hanzi-clip-3)" d="M 263 171 L 283 183 L 605 219 L 681 220 L 710 212" fill="none" id="make-me-a-hanzi-animation-3" stroke-dasharray="581 1162" stroke-linecap="round"></path>
    
      <clipPath id="make-me-a-hanzi-clip-4">
        <path d="M 533 -8 L 539 118 Q 539 134 544 151 L 548 166 Q 548 168 544 175 Q 540 181 527 188 C 501 203 452 209 461 180 L 465 167 Q 467 165 469 142 L 472 116 L 476 -14 C 477 -44 532 -38 533 -8 Z"></path>
      </clipPath>
      <path clip-path="url(#make-me-a-hanzi-clip-4)" d="M 468 175 L 505 148 L 505 19 L 482 -7" fill="none" id="make-me-a-hanzi-animation-4" stroke-dasharray="338 676" stroke-linecap="round"></path>
    
      <clipPath id="make-me-a-hanzi-clip-5">
        <path d="M 193 549 L 199 537 Q 202 530 205 494 Q 208 457 209 454 L 211 252 L 202 99 Q 197 24 193 7 Q 189 -10 184 -18 L 173 -40 L 170 -54 Q 169 -60 180 -76 Q 188 -92 204 -103 Q 221 -115 225 -114 Q 230 -113 243 -104 Q 257 -96 270 -92 Q 283 -88 339 -77 Q 396 -66 451 -64 L 586 -57 L 846 -64 Q 851 -63 856 -58 Q 861 -54 861 -46 Q 859 -40 848 -22 Q 827 11 776 16 L 533 -8 L 476 -14 L 302 -30 Q 269 -33 264 -31 Q 259 -30 253 -26 Q 248 -22 253 16 L 253 54 L 257 166 L 261 200 L 264 343 L 266 376 L 269 468 Q 269 508 277 524 L 283 538 Q 283 546 271 552 C 267 582 185 578 193 549 Z"></path>
      </clipPath>
      <path clip-path="url(#make-me-a-hanzi-clip-5)" d="M 201 545 L 238 516 L 236 224 L 224 8 L 216 -41 L 224 -61 L 264 -62 L 375 -46 L 574 -30 L 757 -23 L 807 -28 L 847 -47" fill="none" id="make-me-a-hanzi-animation-5" stroke-dasharray="1384 2768" stroke-linecap="round"></path>
    
  </g>
</svg>