<svg version="1.1" viewBox="0 0 1024 1024" xmlns="http://www.w3.org/2000/svg">
  <g stroke="lightgray" stroke-dasharray="1,1" stroke-width="1" transform="scale(4, 4)">
    <line x1="0" y1="0" x2="256" y2="256"></line>
    <line x1="256" y1="0" x2="0" y2="256"></line>
    <line x1="128" y1="0" x2="128" y2="256"></line>
    <line x1="0" y1="128" x2="256" y2="128"></line>
  </g>
<g transform="scale(1, -1) translate(0, -860)">
   <style type="text/css">
    @keyframes keyframes0 {
      from {
       stroke: blue;
       stroke-dashoffset: 555;
       stroke-width: 128;
       }
       64% {
       animation-timing-function: step-end;
       stroke: blue;
       stroke-dashoffset: 0;
       stroke-width: 128;
       }
       to {
       stroke: black;
       stroke-width: 1024;
       }
       }
       #make-me-a-hanzi-animation-0 {
         animation: keyframes0 0.701660s both;
         animation-delay: 0.000000s;
         animation-timing-function: linear;
       }
    @keyframes keyframes1 {
      from {
       stroke: blue;
       stroke-dashoffset: 499;
       stroke-width: 128;
       }
       62% {
       animation-timing-function: step-end;
       stroke: blue;
       stroke-dashoffset: 0;
       stroke-width: 128;
       }
       to {
       stroke: black;
       stroke-width: 1024;
       }
       }
       #make-me-a-hanzi-animation-1 {
         animation: keyframes1 0.656087s both;
         animation-delay: 0.701660s;
         animation-timing-function: linear;
       }
    @keyframes keyframes2 {
      from {
       stroke: blue;
       stroke-dashoffset: 558;
       stroke-width: 128;
       }
       64% {
       animation-timing-function: step-end;
       stroke: blue;
       stroke-dashoffset: 0;
       stroke-width: 128;
       }
       to {
       stroke: black;
       stroke-width: 1024;
       }
       }
       #make-me-a-hanzi-animation-2 {
         animation: keyframes2 0.704102s both;
         animation-delay: 1.357747s;
         animation-timing-function: linear;
       }
    @keyframes keyframes3 {
      from {
       stroke: blue;
       stroke-dashoffset: 534;
       stroke-width: 128;
       }
       63% {
       animation-timing-function: step-end;
       stroke: blue;
       stroke-dashoffset: 0;
       stroke-width: 128;
       }
       to {
       stroke: black;
       stroke-width: 1024;
       }
       }
       #make-me-a-hanzi-animation-3 {
         animation: keyframes3 0.684570s both;
         animation-delay: 2.061849s;
         animation-timing-function: linear;
       }
    @keyframes keyframes4 {
      from {
       stroke: blue;
       stroke-dashoffset: 537;
       stroke-width: 128;
       }
       64% {
       animation-timing-function: step-end;
       stroke: blue;
       stroke-dashoffset: 0;
       stroke-width: 128;
       }
       to {
       stroke: black;
       stroke-width: 1024;
       }
       }
       #make-me-a-hanzi-animation-4 {
         animation: keyframes4 0.687012s both;
         animation-delay: 2.746419s;
         animation-timing-function: linear;
       }
    @keyframes keyframes5 {
      from {
       stroke: blue;
       stroke-dashoffset: 1028;
       stroke-width: 128;
       }
       77% {
       animation-timing-function: step-end;
       stroke: blue;
       stroke-dashoffset: 0;
       stroke-width: 128;
       }
       to {
       stroke: black;
       stroke-width: 1024;
       }
       }
       #make-me-a-hanzi-animation-5 {
         animation: keyframes5 1.086589s both;
         animation-delay: 3.433431s;
         animation-timing-function: linear;
       }
    @keyframes keyframes6 {
      from {
       stroke: blue;
       stroke-dashoffset: 525;
       stroke-width: 128;
       }
       63% {
       animation-timing-function: step-end;
       stroke: blue;
       stroke-dashoffset: 0;
       stroke-width: 128;
       }
       to {
       stroke: black;
       stroke-width: 1024;
       }
       }
       #make-me-a-hanzi-animation-6 {
         animation: keyframes6 0.677246s both;
         animation-delay: 4.520020s;
         animation-timing-function: linear;
       }
    @keyframes keyframes7 {
      from {
       stroke: blue;
       stroke-dashoffset: 419;
       stroke-width: 128;
       }
       58% {
       animation-timing-function: step-end;
       stroke: blue;
       stroke-dashoffset: 0;
       stroke-width: 128;
       }
       to {
       stroke: black;
       stroke-width: 1024;
       }
       }
       #make-me-a-hanzi-animation-7 {
         animation: keyframes7 0.590983s both;
         animation-delay: 5.197266s;
         animation-timing-function: linear;
       }
    @keyframes keyframes8 {
      from {
       stroke: blue;
       stroke-dashoffset: 1358;
       stroke-width: 128;
       }
       82% {
       animation-timing-function: step-end;
       stroke: blue;
       stroke-dashoffset: 0;
       stroke-width: 128;
       }
       to {
       stroke: black;
       stroke-width: 1024;
       }
       }
       #make-me-a-hanzi-animation-8 {
         animation: keyframes8 1.355143s both;
         animation-delay: 5.788249s;
         animation-timing-function: linear;
       }
</style>
<path d="M 165.0 609.0 L 138.0 612.0 Q 120.0 609.0 132.0 591.0 Q 135.0 581.0 148.0 573.0 Q 180.0 546.0 188.0 548.0 Q 196.0 550.0 210.0 557.0 L 231.0 568.0 Q 244.0 574.0 253.0 577.0 L 313.0 599.0 L 355.0 613.0 L 423.0 638.0 Q 426.0 638.0 432.0 642.0 Q 436.0 646.0 432.0 652.0 Q 432.0 658.0 417.0 656.0 L 347.0 642.0 L 303.0 633.0 L 217.0 615.0 Q 215.0 613.0 204.0 612.0 L 165.0 609.0 Z" fill="lightgray"></path> 
<path d="M 313.0 599.0 L 332.0 540.0 Q 335.0 524.0 343.0 518.0 Q 347.0 511.0 354.0 513.0 Q 362.0 514.0 364.0 528.0 Q 366.0 542.0 365.0 546.0 L 355.0 613.0 L 347.0 642.0 L 343.0 706.0 L 343.0 728.0 Q 340.0 739.0 305.0 750.0 Q 270.0 760.0 257.0 746.0 Q 252.0 735.0 265.0 718.0 Q 278.0 700.0 294.0 656.0 L 303.0 633.0 L 313.0 599.0 Z" fill="lightgray"></path> 
<path d="M 580.0 654.0 L 559.0 651.0 Q 526.0 644.0 511.0 644.0 L 496.0 642.0 Q 486.0 642.0 484.0 639.0 Q 483.0 636.0 488.0 628.0 Q 496.0 621.0 500.0 619.0 L 519.0 611.0 Q 528.0 601.0 571.0 617.0 L 620.0 626.0 L 635.0 630.0 L 676.0 636.0 L 767.0 644.0 L 793.0 650.0 Q 797.0 652.0 798.0 657.0 Q 799.0 662.0 793.0 668.0 Q 785.0 676.0 773.0 679.0 Q 747.0 690.0 740.0 689.0 Q 733.0 688.0 711.0 682.0 Q 690.0 675.0 677.0 674.0 L 636.0 666.0 L 580.0 654.0 Z" fill="lightgray"></path> 
<path d="M 589.0 708.0 L 583.0 674.0 Q 579.0 658.0 580.0 654.0 L 571.0 617.0 L 547.0 536.0 Q 541.0 515.0 547.0 513.0 Q 554.0 510.0 561.0 522.0 L 574.0 540.0 Q 577.0 547.0 595.0 576.0 L 620.0 626.0 L 636.0 666.0 L 654.0 706.0 Q 655.0 710.0 660.0 716.0 L 665.0 728.0 Q 672.0 737.0 671.0 742.0 Q 671.0 746.0 662.0 758.0 Q 648.0 771.0 637.0 778.0 Q 626.0 784.0 620.0 788.0 Q 596.0 798.0 591.0 782.0 Q 589.0 777.0 591.0 759.0 Q 593.0 740.0 593.0 735.0 Q 593.0 729.0 589.0 708.0 Z" fill="lightgray"></path> 
<path d="M 375.0 437.0 L 416.0 469.0 Q 431.0 480.0 436.0 483.0 L 454.0 495.0 Q 469.0 509.0 446.0 524.0 L 436.0 529.0 Q 424.0 534.0 404.0 539.0 L 384.0 544.0 L 382.0 542.0 Q 376.0 539.0 375.0 529.0 Q 374.0 518.0 370.0 508.0 Q 366.0 497.0 346.0 478.0 L 312.0 442.0 L 282.0 414.0 L 237.0 379.0 L 213.0 362.0 Q 205.0 356.0 207.0 351.0 Q 209.0 346.0 219.0 350.0 L 244.0 359.0 Q 255.0 362.0 281.0 377.0 Q 308.0 392.0 311.0 393.0 L 343.0 414.0 L 375.0 437.0 Z" fill="lightgray"></path> 
<path d="M 375.0 399.0 Q 384.0 398.0 434.0 413.0 Q 485.0 428.0 521.0 432.0 L 582.0 442.0 Q 613.0 444.0 624.0 444.0 Q 635.0 444.0 639.0 439.0 Q 644.0 433.0 638.0 368.0 Q 633.0 303.0 624.0 267.0 L 610.0 210.0 Q 602.0 184.0 591.0 180.0 Q 581.0 175.0 571.0 174.0 Q 561.0 173.0 519.0 188.0 L 498.0 196.0 Q 495.0 197.0 490.0 193.0 Q 485.0 189.0 492.0 184.0 L 534.0 142.0 Q 548.0 126.0 554.0 114.0 Q 568.0 88.0 580.0 88.0 Q 590.0 85.0 607.0 99.0 Q 647.0 132.0 661.0 178.0 Q 668.0 205.0 673.0 234.0 L 700.0 384.0 Q 704.0 407.0 707.0 412.0 L 717.0 430.0 Q 723.0 436.0 721.0 442.0 Q 723.0 449.0 702.0 464.0 L 676.0 480.0 Q 657.0 493.0 641.0 488.0 L 607.0 476.0 Q 581.0 467.0 549.0 464.0 L 417.0 442.0 L 375.0 437.0 C 345.0 433.0 317.0 430.0 343.0 414.0 L 355.0 406.0 Q 366.0 399.0 375.0 399.0 Z" fill="lightgray"></path> 
<path d="M 419.0 188.0 L 449.0 260.0 L 475.0 300.0 Q 476.0 303.0 471.0 308.0 Q 467.0 316.0 457.0 320.0 Q 446.0 327.0 433.0 332.0 L 414.0 340.0 Q 405.0 342.0 403.0 341.0 L 386.0 333.0 Q 378.0 329.0 313.0 308.0 Q 272.0 301.0 271.0 301.0 C 241.0 296.0 252.0 272.0 282.0 277.0 L 377.0 292.0 Q 390.0 294.0 393.0 287.0 Q 394.0 285.0 393.0 276.0 L 389.0 250.0 L 377.0 196.0 C 370.0 167.0 407.0 160.0 419.0 188.0 Z" fill="lightgray"></path> 
<path d="M 265.0 140.0 L 415.0 158.0 Q 430.0 160.0 433.0 163.0 Q 437.0 173.0 432.0 178.0 L 419.0 188.0 C 402.0 201.0 402.0 201.0 377.0 196.0 L 267.0 175.0 C 238.0 169.0 235.0 136.0 265.0 140.0 Z" fill="lightgray"></path> 
<path d="M 271.0 301.0 L 248.0 312.0 Q 231.0 318.0 215.0 317.0 L 208.0 315.0 Q 204.0 312.0 211.0 294.0 Q 217.0 268.0 217.0 210.0 L 217.0 82.0 Q 217.0 68.0 219.0 38.0 Q 222.0 20.0 228.0 5.0 Q 235.0 -10.0 254.0 -30.0 Q 274.0 -50.0 297.0 -62.0 Q 321.0 -74.0 383.0 -87.0 Q 446.0 -101.0 521.0 -101.0 Q 547.0 -102.0 611.0 -98.0 Q 676.0 -94.0 732.0 -82.0 Q 788.0 -70.0 814.0 -59.0 Q 840.0 -48.0 864.0 -31.0 Q 888.0 -14.0 896.0 0.0 Q 904.0 13.0 903.0 18.0 Q 902.0 23.0 887.0 48.0 Q 872.0 73.0 867.0 116.0 L 857.0 168.0 Q 856.0 178.0 850.0 178.0 Q 845.0 178.0 844.0 168.0 L 833.0 116.0 Q 820.0 49.0 787.0 21.0 Q 767.0 4.0 703.0 -14.0 Q 640.0 -32.0 532.0 -32.0 Q 351.0 -35.0 306.0 -2.0 Q 281.0 14.0 273.0 38.0 Q 265.0 61.0 265.0 97.0 L 265.0 140.0 L 267.0 175.0 L 271.0 223.0 Q 274.0 243.0 276.0 244.0 L 281.0 265.0 Q 282.0 265.0 282.0 277.0 C 286.0 295.0 286.0 295.0 271.0 301.0 Z" fill="lightgray"></path> 
      <clipPath id="make-me-a-hanzi-clip-0">
      <path d="M 165.0 609.0 L 138.0 612.0 Q 120.0 609.0 132.0 591.0 Q 135.0 581.0 148.0 573.0 Q 180.0 546.0 188.0 548.0 Q 196.0 550.0 210.0 557.0 L 231.0 568.0 Q 244.0 574.0 253.0 577.0 L 313.0 599.0 L 355.0 613.0 L 423.0 638.0 Q 426.0 638.0 432.0 642.0 Q 436.0 646.0 432.0 652.0 Q 432.0 658.0 417.0 656.0 L 347.0 642.0 L 303.0 633.0 L 217.0 615.0 Q 215.0 613.0 204.0 612.0 L 165.0 609.0 Z" fill="lightgray"></path>
      </clipPath>
      <path clip-path="url(#make-me-a-hanzi-clip-0)" d="M 138.0 601.0 L 187.0 581.0 L 424.0 647.0 " fill="none" id="make-me-a-hanzi-animation-0" stroke-dasharray="427 854" stroke-linecap="round"></path>

      <clipPath id="make-me-a-hanzi-clip-1">
      <path d="M 313.0 599.0 L 332.0 540.0 Q 335.0 524.0 343.0 518.0 Q 347.0 511.0 354.0 513.0 Q 362.0 514.0 364.0 528.0 Q 366.0 542.0 365.0 546.0 L 355.0 613.0 L 347.0 642.0 L 343.0 706.0 L 343.0 728.0 Q 340.0 739.0 305.0 750.0 Q 270.0 760.0 257.0 746.0 Q 252.0 735.0 265.0 718.0 Q 278.0 700.0 294.0 656.0 L 303.0 633.0 L 313.0 599.0 Z" fill="lightgray"></path>
      </clipPath>
      <path clip-path="url(#make-me-a-hanzi-clip-1)" d="M 268.0 739.0 L 309.0 712.0 L 352.0 523.0 " fill="none" id="make-me-a-hanzi-animation-1" stroke-dasharray="371 742" stroke-linecap="round"></path>

      <clipPath id="make-me-a-hanzi-clip-2">
      <path d="M 580.0 654.0 L 559.0 651.0 Q 526.0 644.0 511.0 644.0 L 496.0 642.0 Q 486.0 642.0 484.0 639.0 Q 483.0 636.0 488.0 628.0 Q 496.0 621.0 500.0 619.0 L 519.0 611.0 Q 528.0 601.0 571.0 617.0 L 620.0 626.0 L 635.0 630.0 L 676.0 636.0 L 767.0 644.0 L 793.0 650.0 Q 797.0 652.0 798.0 657.0 Q 799.0 662.0 793.0 668.0 Q 785.0 676.0 773.0 679.0 Q 747.0 690.0 740.0 689.0 Q 733.0 688.0 711.0 682.0 Q 690.0 675.0 677.0 674.0 L 636.0 666.0 L 580.0 654.0 Z" fill="lightgray"></path>
      </clipPath>
      <path clip-path="url(#make-me-a-hanzi-clip-2)" d="M 491.0 635.0 L 531.0 626.0 L 739.0 665.0 L 788.0 659.0 " fill="none" id="make-me-a-hanzi-animation-2" stroke-dasharray="430 860" stroke-linecap="round"></path>

      <clipPath id="make-me-a-hanzi-clip-3">
      <path d="M 589.0 708.0 L 583.0 674.0 Q 579.0 658.0 580.0 654.0 L 571.0 617.0 L 547.0 536.0 Q 541.0 515.0 547.0 513.0 Q 554.0 510.0 561.0 522.0 L 574.0 540.0 Q 577.0 547.0 595.0 576.0 L 620.0 626.0 L 636.0 666.0 L 654.0 706.0 Q 655.0 710.0 660.0 716.0 L 665.0 728.0 Q 672.0 737.0 671.0 742.0 Q 671.0 746.0 662.0 758.0 Q 648.0 771.0 637.0 778.0 Q 626.0 784.0 620.0 788.0 Q 596.0 798.0 591.0 782.0 Q 589.0 777.0 591.0 759.0 Q 593.0 740.0 593.0 735.0 Q 593.0 729.0 589.0 708.0 Z" fill="lightgray"></path>
      </clipPath>
      <path clip-path="url(#make-me-a-hanzi-clip-3)" d="M 606.0 776.0 L 629.0 736.0 L 592.0 616.0 L 550.0 518.0 " fill="none" id="make-me-a-hanzi-animation-3" stroke-dasharray="406 812" stroke-linecap="round"></path>

      <clipPath id="make-me-a-hanzi-clip-4">
      <path d="M 375.0 437.0 L 416.0 469.0 Q 431.0 480.0 436.0 483.0 L 454.0 495.0 Q 469.0 509.0 446.0 524.0 L 436.0 529.0 Q 424.0 534.0 404.0 539.0 L 384.0 544.0 L 382.0 542.0 Q 376.0 539.0 375.0 529.0 Q 374.0 518.0 370.0 508.0 Q 366.0 497.0 346.0 478.0 L 312.0 442.0 L 282.0 414.0 L 237.0 379.0 L 213.0 362.0 Q 205.0 356.0 207.0 351.0 Q 209.0 346.0 219.0 350.0 L 244.0 359.0 Q 255.0 362.0 281.0 377.0 Q 308.0 392.0 311.0 393.0 L 343.0 414.0 L 375.0 437.0 Z" fill="lightgray"></path>
      </clipPath>
      <path clip-path="url(#make-me-a-hanzi-clip-4)" d="M 443.0 508.0 L 403.0 500.0 L 307.0 411.0 L 213.0 355.0 " fill="none" id="make-me-a-hanzi-animation-4" stroke-dasharray="409 818" stroke-linecap="round"></path>

      <clipPath id="make-me-a-hanzi-clip-5">
      <path d="M 375.0 399.0 Q 384.0 398.0 434.0 413.0 Q 485.0 428.0 521.0 432.0 L 582.0 442.0 Q 613.0 444.0 624.0 444.0 Q 635.0 444.0 639.0 439.0 Q 644.0 433.0 638.0 368.0 Q 633.0 303.0 624.0 267.0 L 610.0 210.0 Q 602.0 184.0 591.0 180.0 Q 581.0 175.0 571.0 174.0 Q 561.0 173.0 519.0 188.0 L 498.0 196.0 Q 495.0 197.0 490.0 193.0 Q 485.0 189.0 492.0 184.0 L 534.0 142.0 Q 548.0 126.0 554.0 114.0 Q 568.0 88.0 580.0 88.0 Q 590.0 85.0 607.0 99.0 Q 647.0 132.0 661.0 178.0 Q 668.0 205.0 673.0 234.0 L 700.0 384.0 Q 704.0 407.0 707.0 412.0 L 717.0 430.0 Q 723.0 436.0 721.0 442.0 Q 723.0 449.0 702.0 464.0 L 676.0 480.0 Q 657.0 493.0 641.0 488.0 L 607.0 476.0 Q 581.0 467.0 549.0 464.0 L 417.0 442.0 L 375.0 437.0 C 345.0 433.0 317.0 430.0 343.0 414.0 L 355.0 406.0 Q 366.0 399.0 375.0 399.0 Z" fill="lightgray"></path>
      </clipPath>
      <path clip-path="url(#make-me-a-hanzi-clip-5)" d="M 351.0 414.0 L 631.0 463.0 L 657.0 460.0 L 678.0 436.0 L 654.0 276.0 L 639.0 205.0 L 625.0 169.0 L 588.0 136.0 L 496.0 190.0 " fill="none" id="make-me-a-hanzi-animation-5" stroke-dasharray="900 1800" stroke-linecap="round"></path>

      <clipPath id="make-me-a-hanzi-clip-6">
      <path d="M 419.0 188.0 L 449.0 260.0 L 475.0 300.0 Q 476.0 303.0 471.0 308.0 Q 467.0 316.0 457.0 320.0 Q 446.0 327.0 433.0 332.0 L 414.0 340.0 Q 405.0 342.0 403.0 341.0 L 386.0 333.0 Q 378.0 329.0 313.0 308.0 Q 272.0 301.0 271.0 301.0 C 241.0 296.0 252.0 272.0 282.0 277.0 L 377.0 292.0 Q 390.0 294.0 393.0 287.0 Q 394.0 285.0 393.0 276.0 L 389.0 250.0 L 377.0 196.0 C 370.0 167.0 407.0 160.0 419.0 188.0 Z" fill="lightgray"></path>
      </clipPath>
      <path clip-path="url(#make-me-a-hanzi-clip-6)" d="M 274.0 295.0 L 314.0 294.0 L 391.0 313.0 L 417.0 306.0 L 428.0 295.0 L 407.0 218.0 L 385.0 201.0 " fill="none" id="make-me-a-hanzi-animation-6" stroke-dasharray="397 794" stroke-linecap="round"></path>

      <clipPath id="make-me-a-hanzi-clip-7">
      <path d="M 265.0 140.0 L 415.0 158.0 Q 430.0 160.0 433.0 163.0 Q 437.0 173.0 432.0 178.0 L 419.0 188.0 C 402.0 201.0 402.0 201.0 377.0 196.0 L 267.0 175.0 C 238.0 169.0 235.0 136.0 265.0 140.0 Z" fill="lightgray"></path>
      </clipPath>
      <path clip-path="url(#make-me-a-hanzi-clip-7)" d="M 272.0 145.0 L 280.0 157.0 L 294.0 163.0 L 380.0 175.0 L 426.0 170.0 " fill="none" id="make-me-a-hanzi-animation-7" stroke-dasharray="291 582" stroke-linecap="round"></path>

      <clipPath id="make-me-a-hanzi-clip-8">
      <path d="M 271.0 301.0 L 248.0 312.0 Q 231.0 318.0 215.0 317.0 L 208.0 315.0 Q 204.0 312.0 211.0 294.0 Q 217.0 268.0 217.0 210.0 L 217.0 82.0 Q 217.0 68.0 219.0 38.0 Q 222.0 20.0 228.0 5.0 Q 235.0 -10.0 254.0 -30.0 Q 274.0 -50.0 297.0 -62.0 Q 321.0 -74.0 383.0 -87.0 Q 446.0 -101.0 521.0 -101.0 Q 547.0 -102.0 611.0 -98.0 Q 676.0 -94.0 732.0 -82.0 Q 788.0 -70.0 814.0 -59.0 Q 840.0 -48.0 864.0 -31.0 Q 888.0 -14.0 896.0 0.0 Q 904.0 13.0 903.0 18.0 Q 902.0 23.0 887.0 48.0 Q 872.0 73.0 867.0 116.0 L 857.0 168.0 Q 856.0 178.0 850.0 178.0 Q 845.0 178.0 844.0 168.0 L 833.0 116.0 Q 820.0 49.0 787.0 21.0 Q 767.0 4.0 703.0 -14.0 Q 640.0 -32.0 532.0 -32.0 Q 351.0 -35.0 306.0 -2.0 Q 281.0 14.0 273.0 38.0 Q 265.0 61.0 265.0 97.0 L 265.0 140.0 L 267.0 175.0 L 271.0 223.0 Q 274.0 243.0 276.0 244.0 L 281.0 265.0 Q 282.0 265.0 282.0 277.0 C 286.0 295.0 286.0 295.0 271.0 301.0 Z" fill="lightgray"></path>
      </clipPath>
      <path clip-path="url(#make-me-a-hanzi-clip-8)" d="M 213.0 311.0 L 236.0 291.0 L 248.0 267.0 L 241.0 77.0 L 254.0 13.0 L 277.0 -15.0 L 305.0 -35.0 L 361.0 -53.0 L 467.0 -66.0 L 599.0 -65.0 L 718.0 -48.0 L 786.0 -27.0 L 833.0 2.0 L 848.0 22.0 L 851.0 171.0 " fill="none" id="make-me-a-hanzi-animation-8" stroke-dasharray="1230 2460" stroke-linecap="round"></path>

</g>
</svg>
