<svg version="1.1" viewBox="0 0 1024 1024" xmlns="http://www.w3.org/2000/svg">
  <g stroke="lightgray" stroke-dasharray="1,1" stroke-width="1" transform="scale(4, 4)">
    <line x1="0" y1="0" x2="256" y2="256"></line>
    <line x1="256" y1="0" x2="0" y2="256"></line>
    <line x1="128" y1="0" x2="128" y2="256"></line>
    <line x1="0" y1="128" x2="256" y2="128"></line>
  </g>
<g transform="scale(0.92, -0.92) translate(60, -900)">
   <style type="text/css">
    @keyframes keyframes0 {
      from {
       stroke: blue;
       stroke-dashoffset: 539;
       stroke-width: 128;
       }
       64% {
       animation-timing-function: step-end;
       stroke: blue;
       stroke-dashoffset: 0;
       stroke-width: 128;
       }
       to {
       stroke: black;
       stroke-width: 1024;
       }
       }
       #make-me-a-hanzi-animation-0 {
         animation: keyframes0 0.688639s both;
         animation-delay: 0.000000s;
         animation-timing-function: linear;
       }
    @keyframes keyframes1 {
      from {
       stroke: blue;
       stroke-dashoffset: 478;
       stroke-width: 128;
       }
       61% {
       animation-timing-function: step-end;
       stroke: blue;
       stroke-dashoffset: 0;
       stroke-width: 128;
       }
       to {
       stroke: black;
       stroke-width: 1024;
       }
       }
       #make-me-a-hanzi-animation-1 {
         animation: keyframes1 0.638997s both;
         animation-delay: 0.688639s;
         animation-timing-function: linear;
       }
    @keyframes keyframes2 {
      from {
       stroke: blue;
       stroke-dashoffset: 566;
       stroke-width: 128;
       }
       65% {
       animation-timing-function: step-end;
       stroke: blue;
       stroke-dashoffset: 0;
       stroke-width: 128;
       }
       to {
       stroke: black;
       stroke-width: 1024;
       }
       }
       #make-me-a-hanzi-animation-2 {
         animation: keyframes2 0.710612s both;
         animation-delay: 1.327637s;
         animation-timing-function: linear;
       }
    @keyframes keyframes3 {
      from {
       stroke: blue;
       stroke-dashoffset: 520;
       stroke-width: 128;
       }
       63% {
       animation-timing-function: step-end;
       stroke: blue;
       stroke-dashoffset: 0;
       stroke-width: 128;
       }
       to {
       stroke: black;
       stroke-width: 1024;
       }
       }
       #make-me-a-hanzi-animation-3 {
         animation: keyframes3 0.673177s both;
         animation-delay: 2.038249s;
         animation-timing-function: linear;
       }
    @keyframes keyframes4 {
      from {
       stroke: blue;
       stroke-dashoffset: 361;
       stroke-width: 128;
       }
       54% {
       animation-timing-function: step-end;
       stroke: blue;
       stroke-dashoffset: 0;
       stroke-width: 128;
       }
       to {
       stroke: black;
       stroke-width: 1024;
       }
       }
       #make-me-a-hanzi-animation-4 {
         animation: keyframes4 0.543783s both;
         animation-delay: 2.711426s;
         animation-timing-function: linear;
       }
    @keyframes keyframes5 {
      from {
       stroke: blue;
       stroke-dashoffset: 665;
       stroke-width: 128;
       }
       68% {
       animation-timing-function: step-end;
       stroke: blue;
       stroke-dashoffset: 0;
       stroke-width: 128;
       }
       to {
       stroke: black;
       stroke-width: 1024;
       }
       }
       #make-me-a-hanzi-animation-5 {
         animation: keyframes5 0.791178s both;
         animation-delay: 3.255208s;
         animation-timing-function: linear;
       }
    @keyframes keyframes6 {
      from {
       stroke: blue;
       stroke-dashoffset: 359;
       stroke-width: 128;
       }
       54% {
       animation-timing-function: step-end;
       stroke: blue;
       stroke-dashoffset: 0;
       stroke-width: 128;
       }
       to {
       stroke: black;
       stroke-width: 1024;
       }
       }
       #make-me-a-hanzi-animation-6 {
         animation: keyframes6 0.542155s both;
         animation-delay: 4.046387s;
         animation-timing-function: linear;
       }
    @keyframes keyframes7 {
      from {
       stroke: blue;
       stroke-dashoffset: 368;
       stroke-width: 128;
       }
       55% {
       animation-timing-function: step-end;
       stroke: blue;
       stroke-dashoffset: 0;
       stroke-width: 128;
       }
       to {
       stroke: black;
       stroke-width: 1024;
       }
       }
       #make-me-a-hanzi-animation-7 {
         animation: keyframes7 0.549479s both;
         animation-delay: 4.588542s;
         animation-timing-function: linear;
       }
    @keyframes keyframes8 {
      from {
       stroke: blue;
       stroke-dashoffset: 932;
       stroke-width: 128;
       }
       75% {
       animation-timing-function: step-end;
       stroke: blue;
       stroke-dashoffset: 0;
       stroke-width: 128;
       }
       to {
       stroke: black;
       stroke-width: 1024;
       }
       }
       #make-me-a-hanzi-animation-8 {
         animation: keyframes8 1.008464s both;
         animation-delay: 5.138021s;
         animation-timing-function: linear;
       }
    @keyframes keyframes9 {
      from {
       stroke: blue;
       stroke-dashoffset: 463;
       stroke-width: 128;
       }
       60% {
       animation-timing-function: step-end;
       stroke: blue;
       stroke-dashoffset: 0;
       stroke-width: 128;
       }
       to {
       stroke: black;
       stroke-width: 1024;
       }
       }
       #make-me-a-hanzi-animation-9 {
         animation: keyframes9 0.626790s both;
         animation-delay: 6.146484s;
         animation-timing-function: linear;
       }
    @keyframes keyframes10 {
      from {
       stroke: blue;
       stroke-dashoffset: 705;
       stroke-width: 128;
       }
       70% {
       animation-timing-function: step-end;
       stroke: blue;
       stroke-dashoffset: 0;
       stroke-width: 128;
       }
       to {
       stroke: black;
       stroke-width: 1024;
       }
       }
       #make-me-a-hanzi-animation-10 {
         animation: keyframes10 0.823730s both;
         animation-delay: 6.773275s;
         animation-timing-function: linear;
       }
    @keyframes keyframes11 {
      from {
       stroke: blue;
       stroke-dashoffset: 465;
       stroke-width: 128;
       }
       60% {
       animation-timing-function: step-end;
       stroke: blue;
       stroke-dashoffset: 0;
       stroke-width: 128;
       }
       to {
       stroke: black;
       stroke-width: 1024;
       }
       }
       #make-me-a-hanzi-animation-11 {
         animation: keyframes11 0.628418s both;
         animation-delay: 7.597005s;
         animation-timing-function: linear;
       }
    @keyframes keyframes12 {
      from {
       stroke: blue;
       stroke-dashoffset: 450;
       stroke-width: 128;
       }
       59% {
       animation-timing-function: step-end;
       stroke: blue;
       stroke-dashoffset: 0;
       stroke-width: 128;
       }
       to {
       stroke: black;
       stroke-width: 1024;
       }
       }
       #make-me-a-hanzi-animation-12 {
         animation: keyframes12 0.616211s both;
         animation-delay: 8.225423s;
         animation-timing-function: linear;
       }
    @keyframes keyframes13 {
      from {
       stroke: blue;
       stroke-dashoffset: 391;
       stroke-width: 128;
       }
       56% {
       animation-timing-function: step-end;
       stroke: blue;
       stroke-dashoffset: 0;
       stroke-width: 128;
       }
       to {
       stroke: black;
       stroke-width: 1024;
       }
       }
       #make-me-a-hanzi-animation-13 {
         animation: keyframes13 0.568197s both;
         animation-delay: 8.841634s;
         animation-timing-function: linear;
       }
    @keyframes keyframes14 {
      from {
       stroke: blue;
       stroke-dashoffset: 826;
       stroke-width: 128;
       }
       73% {
       animation-timing-function: step-end;
       stroke: blue;
       stroke-dashoffset: 0;
       stroke-width: 128;
       }
       to {
       stroke: black;
       stroke-width: 1024;
       }
       }
       #make-me-a-hanzi-animation-14 {
         animation: keyframes14 0.922201s both;
         animation-delay: 9.409831s;
         animation-timing-function: linear;
       }
    @keyframes keyframes15 {
      from {
       stroke: blue;
       stroke-dashoffset: 369;
       stroke-width: 128;
       }
       55% {
       animation-timing-function: step-end;
       stroke: blue;
       stroke-dashoffset: 0;
       stroke-width: 128;
       }
       to {
       stroke: black;
       stroke-width: 1024;
       }
       }
       #make-me-a-hanzi-animation-15 {
         animation: keyframes15 0.550293s both;
         animation-delay: 10.332031s;
         animation-timing-function: linear;
       }
    @keyframes keyframes16 {
      from {
       stroke: blue;
       stroke-dashoffset: 417;
       stroke-width: 128;
       }
       58% {
       animation-timing-function: step-end;
       stroke: blue;
       stroke-dashoffset: 0;
       stroke-width: 128;
       }
       to {
       stroke: black;
       stroke-width: 1024;
       }
       }
       #make-me-a-hanzi-animation-16 {
         animation: keyframes16 0.589355s both;
         animation-delay: 10.882324s;
         animation-timing-function: linear;
       }
</style>
<path d="M 334.0 715.5 L 283.0 704.5 Q 271.0 702.5 252.0 701.5 L 226.0 701.5 L 202.0 704.5 Q 191.0 703.5 188.0 698.5 Q 187.0 696.5 187.0 694.5 Q 187.0 691.5 189.0 686.5 Q 194.0 677.5 204.0 670.5 L 224.0 656.5 Q 236.0 646.5 241.0 644.5 Q 245.0 642.5 250.0 642.5 L 254.0 642.5 Q 259.0 643.5 271.0 649.5 Q 283.0 656.5 297.0 660.5 L 325.0 670.5 L 345.0 677.5 L 388.0 691.5 L 457.0 714.5 Q 471.0 719.5 475.0 722.5 Q 477.0 725.5 477.0 729.5 L 477.0 732.5 Q 476.0 738.5 466.0 738.5 Q 456.0 738.5 438.0 735.5 L 412.0 731.5 L 382.0 725.5 L 334.0 715.5 Z" fill="lightgray"></path> 
<path d="M 345.0 677.5 L 348.0 662.5 L 356.0 631.5 Q 360.0 612.5 367.0 607.5 Q 374.0 602.5 380.0 602.5 Q 386.0 603.5 389.0 613.5 Q 392.0 624.5 392.0 638.5 L 390.0 670.5 Q 388.0 677.5 388.0 691.5 L 382.0 725.5 L 380.0 748.5 Q 379.0 752.5 379.0 757.5 Q 379.0 763.5 380.0 769.5 Q 380.0 774.5 381.0 784.5 Q 382.0 789.5 382.0 793.5 Q 382.0 797.5 381.0 800.5 Q 378.0 805.5 359.0 810.5 Q 339.0 816.5 330.0 818.5 Q 325.0 819.5 319.0 819.5 Q 314.0 819.5 307.0 818.5 Q 298.0 818.5 295.0 814.5 Q 294.0 812.5 294.0 810.5 Q 294.0 807.5 295.0 804.5 Q 298.0 797.5 307.0 784.5 Q 316.0 771.5 322.0 754.5 L 328.0 730.5 L 334.0 715.5 L 345.0 677.5 Z" fill="lightgray"></path> 
<path d="M 628.0 741.5 L 608.0 738.5 L 588.0 734.5 Q 571.0 731.5 549.0 728.5 L 520.0 725.5 Q 510.0 724.5 508.0 720.5 L 508.0 718.5 Q 508.0 715.5 512.0 710.5 Q 517.0 706.5 526.0 701.5 L 536.0 695.5 Q 542.0 692.5 549.0 690.5 Q 556.0 688.5 564.0 688.5 Q 570.0 688.5 584.0 692.5 Q 598.0 694.5 620.0 698.5 L 668.0 704.5 L 680.0 706.5 Q 694.0 708.5 725.0 710.5 Q 757.0 712.5 778.0 714.5 L 803.0 715.5 Q 816.0 716.5 822.0 719.5 Q 829.0 722.5 830.0 727.5 Q 830.0 731.5 822.0 738.5 Q 814.0 745.5 801.0 752.5 Q 788.0 758.5 780.0 761.5 Q 773.0 762.5 768.0 762.5 L 762.0 762.5 L 736.0 758.5 L 700.0 751.5 L 686.0 749.5 L 628.0 741.5 Z" fill="lightgray"></path> 
<path d="M 620.0 698.5 L 614.0 676.5 Q 614.0 674.5 606.0 649.5 L 594.0 614.5 Q 592.0 610.5 592.0 606.5 Q 592.0 601.5 596.0 599.5 L 598.0 599.5 Q 603.0 599.5 612.0 611.5 L 628.0 634.5 L 646.0 664.5 L 668.0 704.5 L 686.0 749.5 L 692.0 763.5 L 699.0 776.5 Q 706.0 789.5 711.0 794.5 Q 716.0 800.5 717.0 802.5 L 717.0 803.5 Q 717.0 808.5 706.0 818.5 Q 694.0 830.5 681.0 837.5 Q 668.0 845.5 651.0 851.5 Q 646.0 853.5 642.0 853.5 Q 639.0 853.5 637.0 852.5 Q 633.0 850.5 632.0 844.5 Q 632.0 840.5 634.0 828.5 Q 636.0 817.5 636.0 802.5 Q 634.0 779.5 632.0 767.5 Q 630.0 756.5 628.0 741.5 L 620.0 698.5 Z" fill="lightgray"></path> 
<path d="M 526.0 570.5 L 536.0 594.5 Q 538.0 600.5 538.0 606.5 Q 538.0 611.5 537.0 616.5 Q 534.0 624.5 527.0 630.5 Q 520.0 634.5 499.0 642.5 Q 478.0 650.5 476.0 651.5 L 454.0 656.5 Q 450.0 657.5 447.0 657.5 Q 443.0 657.5 441.0 655.5 Q 440.0 653.5 440.0 651.5 Q 440.0 648.5 442.0 645.5 L 455.0 626.5 L 472.0 598.5 Q 480.0 584.5 483.0 580.5 Q 486.0 576.5 494.0 567.5 C 514.0 545.5 515.0 543.5 526.0 570.5 Z" fill="lightgray"></path> 
<path d="M 640.0 541.5 L 662.0 544.5 L 683.0 547.5 L 702.0 550.5 Q 711.0 550.5 714.0 553.5 Q 716.0 556.5 716.0 559.5 Q 716.0 564.5 706.0 572.5 Q 695.0 580.5 681.0 584.5 Q 668.0 589.5 660.0 590.5 Q 654.0 590.5 646.0 588.5 Q 636.0 586.5 606.0 582.5 L 562.0 574.5 Q 550.0 572.5 526.0 570.5 L 494.0 567.5 L 446.0 562.5 Q 426.0 560.5 392.0 558.5 L 350.0 554.5 L 316.0 552.5 Q 301.0 550.5 300.0 548.5 L 300.0 547.5 Q 300.0 544.5 304.0 538.5 Q 309.0 529.5 323.0 524.5 Q 336.0 520.5 347.0 519.5 L 368.0 519.5 L 391.0 520.5 L 444.0 523.5 Q 487.0 525.5 506.0 527.5 L 560.0 533.5 Q 570.0 534.5 592.0 536.5 L 640.0 541.5 Z" fill="lightgray"></path> 
<path d="M 368.0 519.5 L 376.0 499.5 L 390.0 470.5 L 402.0 444.5 Q 406.0 436.5 414.0 422.5 C 428.0 397.5 429.0 398.5 440.0 426.5 L 444.0 436.5 Q 444.0 440.5 446.0 449.5 Q 448.0 457.5 448.0 462.5 Q 448.0 468.5 446.0 472.5 Q 444.0 480.5 435.0 489.5 Q 427.0 498.5 417.0 504.5 L 391.0 520.5 C 365.0 536.5 360.0 539.5 368.0 519.5 Z" fill="lightgray"></path> 
<path d="M 594.0 440.5 L 608.0 458.5 L 629.0 484.5 Q 640.0 497.5 648.0 504.5 Q 656.0 511.5 657.0 516.5 L 657.0 517.5 Q 657.0 521.5 653.0 527.5 Q 648.0 534.5 640.0 541.5 C 618.0 561.5 595.0 566.5 592.0 536.5 L 590.0 518.5 L 584.0 490.5 Q 582.0 476.5 577.0 465.5 Q 572.0 453.5 566.0 436.5 C 556.0 408.5 576.0 416.5 594.0 440.5 Z" fill="lightgray"></path> 
<path d="M 414.0 422.5 L 346.0 417.5 L 280.0 412.5 Q 221.0 407.5 210.0 406.5 L 182.0 403.5 Q 171.0 402.5 170.0 398.5 L 170.0 397.5 Q 170.0 393.5 177.0 386.5 Q 185.0 380.5 201.0 374.5 Q 218.0 370.5 228.0 369.5 L 235.0 369.5 Q 242.0 369.5 251.0 370.5 Q 265.0 372.5 312.0 377.5 L 372.0 384.5 Q 385.0 385.5 462.0 392.5 Q 540.0 399.5 550.0 400.5 Q 562.0 400.5 640.0 404.5 Q 719.0 408.5 756.0 409.5 Q 792.0 410.5 802.0 410.5 L 834.0 413.5 Q 844.0 414.5 848.0 415.5 Q 852.0 416.5 854.0 420.5 L 854.0 422.5 Q 854.0 426.5 849.0 431.5 Q 843.0 438.5 832.0 444.5 Q 822.0 450.5 811.0 454.5 Q 800.0 458.5 790.0 459.5 Q 784.0 459.5 772.0 457.5 Q 760.0 454.5 730.0 452.5 L 692.0 448.5 L 656.0 445.5 L 594.0 440.5 L 566.0 436.5 L 440.0 426.5 L 414.0 422.5 Z" fill="lightgray"></path> 
<path d="M 380.0 326.5 L 368.0 332.5 Q 364.0 334.5 348.0 337.5 Q 336.0 339.5 330.0 339.5 L 326.0 339.5 Q 320.0 338.5 318.0 334.5 Q 317.0 332.5 317.0 330.5 Q 317.0 328.5 318.0 326.5 Q 320.0 320.5 329.0 310.5 Q 337.0 299.5 340.0 289.5 Q 343.0 278.5 346.0 258.5 L 358.0 182.5 Q 359.0 172.5 362.0 159.5 Q 364.0 146.5 370.0 139.5 Q 376.0 130.5 383.0 130.5 Q 390.0 130.5 392.0 134.5 Q 396.0 138.5 398.0 144.5 L 400.0 180.5 L 396.0 230.5 L 392.0 254.5 L 387.0 300.5 C 384.0 324.5 384.0 324.5 380.0 326.5 Z" fill="lightgray"></path> 
<path d="M 594.0 164.5 L 601.0 152.5 Q 604.0 146.5 614.0 144.5 L 616.0 144.5 Q 625.0 144.5 631.0 151.5 Q 639.0 158.5 643.0 169.5 Q 648.0 180.5 656.0 210.5 L 674.0 267.5 Q 678.0 283.5 680.0 286.5 Q 681.0 290.5 686.0 300.5 Q 690.0 309.5 696.0 315.5 Q 702.0 322.5 702.0 324.5 L 702.0 325.5 Q 702.0 330.5 693.0 339.5 Q 682.0 348.5 665.0 358.5 Q 648.0 368.5 635.0 372.5 Q 622.0 376.5 615.0 376.5 Q 610.0 374.5 596.0 370.5 Q 583.0 364.5 558.0 358.5 L 515.0 348.5 Q 497.0 344.5 478.0 341.5 L 380.0 326.5 C 350.0 321.5 357.0 296.5 387.0 300.5 L 466.0 310.5 Q 478.0 311.5 504.0 315.5 Q 531.0 320.5 544.0 322.5 L 572.0 328.5 Q 586.0 332.5 598.0 332.5 L 603.0 332.5 Q 611.0 332.5 613.0 330.5 Q 616.0 326.5 616.0 315.5 Q 616.0 304.5 615.0 294.5 L 612.0 272.5 L 610.0 252.5 L 598.0 192.5 C 593.0 166.5 593.0 166.5 594.0 164.5 Z" fill="lightgray"></path> 
<path d="M 612.0 272.5 L 597.0 275.5 Q 584.0 277.5 570.0 277.5 Q 561.0 276.5 540.0 274.5 L 500.0 268.5 Q 464.0 263.5 462.0 263.5 L 392.0 254.5 C 362.0 250.5 366.0 229.5 396.0 230.5 L 441.0 232.5 L 502.0 238.5 Q 552.0 244.5 567.0 246.5 L 610.0 252.5 C 640.0 256.5 641.0 266.5 612.0 272.5 Z" fill="lightgray"></path> 
<path d="M 398.0 144.5 L 444.0 149.5 L 506.0 156.5 L 566.0 161.5 L 594.0 164.5 C 624.0 167.5 628.0 188.5 598.0 192.5 L 583.0 194.5 L 565.0 199.5 L 560.0 199.5 Q 554.0 199.5 547.0 198.5 L 504.0 191.5 Q 473.0 187.5 460.0 186.5 Q 447.0 184.5 432.0 182.5 Q 417.0 181.5 400.0 180.5 C 370.0 178.5 368.0 141.5 398.0 144.5 Z" fill="lightgray"></path> 
<path d="M 217.0 73.5 L 196.0 38.5 Q 185.0 22.5 182.0 13.5 Q 181.0 6.5 181.0 -0.5 L 181.0 -7.5 Q 182.0 -19.5 189.0 -31.5 Q 196.0 -43.5 206.0 -43.5 L 207.0 -43.5 Q 215.0 -43.5 226.0 -33.5 Q 238.0 -22.5 247.0 -1.5 Q 256.0 20.5 259.0 38.5 Q 260.0 50.5 260.0 60.5 Q 259.0 70.5 256.0 83.5 Q 253.0 96.5 250.0 102.5 Q 244.0 110.5 241.0 110.5 Q 238.0 110.5 231.0 97.5 L 217.0 73.5 Z" fill="lightgray"></path> 
<path d="M 661.0 42.5 L 670.0 17.5 Q 673.0 8.5 673.0 4.5 L 673.0 2.5 Q 672.0 -1.5 664.0 -5.5 Q 656.0 -9.5 627.0 -13.5 Q 597.0 -17.5 592.0 -17.5 Q 584.0 -18.5 576.0 -18.5 Q 554.0 -18.5 525.0 -14.5 Q 486.0 -9.5 459.0 -0.5 Q 432.0 8.5 414.0 23.5 Q 395.0 38.5 386.0 52.5 Q 378.0 65.5 373.0 76.5 Q 368.0 86.5 366.0 96.5 Q 363.0 106.5 360.0 110.5 Q 358.0 113.5 354.0 115.5 Q 350.0 117.5 341.0 119.5 Q 334.0 121.5 330.0 121.5 L 328.0 121.5 Q 320.0 120.5 319.0 116.5 L 319.0 115.5 Q 319.0 111.5 323.0 104.5 Q 329.0 94.5 337.0 74.5 Q 346.0 53.5 356.0 32.5 Q 368.0 10.5 390.0 -11.5 Q 412.0 -34.5 445.0 -49.5 Q 478.0 -63.5 518.0 -70.5 Q 559.0 -77.5 610.0 -77.5 Q 656.0 -77.5 691.0 -70.5 Q 725.0 -63.5 754.0 -50.5 Q 782.0 -37.5 789.0 -25.5 Q 793.0 -18.5 793.0 -12.5 Q 793.0 -10.5 792.0 -8.5 Q 790.0 -1.5 776.0 4.5 L 743.0 18.5 Q 730.0 24.5 715.0 33.5 Q 700.0 42.5 686.0 52.5 L 662.0 67.5 Q 657.0 70.5 654.0 70.5 Q 652.0 70.5 651.0 69.5 Q 650.0 68.5 650.0 66.5 Q 650.0 63.5 652.0 59.5 L 661.0 42.5 Z" fill="lightgray"></path> 
<path d="M 476.0 138.5 Q 473.0 139.5 470.0 139.5 Q 465.0 139.5 464.0 136.5 Q 463.0 135.5 463.0 133.5 Q 463.0 130.5 466.0 125.5 L 476.0 107.5 Q 484.0 91.5 491.0 80.5 L 508.0 56.5 Q 518.0 42.5 530.0 36.5 Q 539.0 31.5 546.0 31.5 Q 549.0 31.5 552.0 32.5 Q 560.0 34.5 565.0 44.5 Q 569.0 52.5 569.0 65.5 L 569.0 70.5 Q 567.0 86.5 561.0 96.5 Q 556.0 104.5 546.0 112.5 Q 536.0 118.5 520.0 125.5 Q 502.0 132.5 494.0 134.5 L 476.0 138.5 Z" fill="lightgray"></path> 
<path d="M 696.0 166.5 Q 690.0 166.5 687.0 162.5 Q 686.0 161.5 686.0 160.5 Q 686.0 157.5 690.0 154.5 L 710.0 138.5 L 732.0 120.5 Q 740.0 113.5 762.0 91.5 Q 786.0 70.5 803.0 62.5 Q 813.0 57.5 819.0 57.5 L 822.0 57.5 Q 829.0 59.5 834.0 65.5 Q 838.0 71.5 840.0 85.5 Q 840.0 97.5 839.0 106.5 Q 837.0 116.5 832.0 122.5 Q 828.0 128.5 813.0 135.5 Q 798.0 142.5 782.0 147.5 Q 766.0 152.5 753.0 154.5 Q 741.0 157.5 720.0 161.5 L 696.0 166.5 Z" fill="lightgray"></path> 
      <clipPath id="make-me-a-hanzi-clip-0">
      <path d="M 334.0 715.5 L 283.0 704.5 Q 271.0 702.5 252.0 701.5 L 226.0 701.5 L 202.0 704.5 Q 191.0 703.5 188.0 698.5 Q 187.0 696.5 187.0 694.5 Q 187.0 691.5 189.0 686.5 Q 194.0 677.5 204.0 670.5 L 224.0 656.5 Q 236.0 646.5 241.0 644.5 Q 245.0 642.5 250.0 642.5 L 254.0 642.5 Q 259.0 643.5 271.0 649.5 Q 283.0 656.5 297.0 660.5 L 325.0 670.5 L 345.0 677.5 L 388.0 691.5 L 457.0 714.5 Q 471.0 719.5 475.0 722.5 Q 477.0 725.5 477.0 729.5 L 477.0 732.5 Q 476.0 738.5 466.0 738.5 Q 456.0 738.5 438.0 735.5 L 412.0 731.5 L 382.0 725.5 L 334.0 715.5 Z" fill="lightgray"></path>
      </clipPath>
      <path clip-path="url(#make-me-a-hanzi-clip-0)" d="M 198.0 693.5 L 251.0 672.5 L 469.0 731.5 " fill="none" id="make-me-a-hanzi-animation-0" stroke-dasharray="411 822" stroke-linecap="round"></path>

      <clipPath id="make-me-a-hanzi-clip-1">
      <path d="M 345.0 677.5 L 348.0 662.5 L 356.0 631.5 Q 360.0 612.5 367.0 607.5 Q 374.0 602.5 380.0 602.5 Q 386.0 603.5 389.0 613.5 Q 392.0 624.5 392.0 638.5 L 390.0 670.5 Q 388.0 677.5 388.0 691.5 L 382.0 725.5 L 380.0 748.5 Q 379.0 752.5 379.0 757.5 Q 379.0 763.5 380.0 769.5 Q 380.0 774.5 381.0 784.5 Q 382.0 789.5 382.0 793.5 Q 382.0 797.5 381.0 800.5 Q 378.0 805.5 359.0 810.5 Q 339.0 816.5 330.0 818.5 Q 325.0 819.5 319.0 819.5 Q 314.0 819.5 307.0 818.5 Q 298.0 818.5 295.0 814.5 Q 294.0 812.5 294.0 810.5 Q 294.0 807.5 295.0 804.5 Q 298.0 797.5 307.0 784.5 Q 316.0 771.5 322.0 754.5 L 328.0 730.5 L 334.0 715.5 L 345.0 677.5 Z" fill="lightgray"></path>
      </clipPath>
      <path clip-path="url(#make-me-a-hanzi-clip-1)" d="M 303.0 810.5 L 348.0 779.5 L 377.0 614.5 " fill="none" id="make-me-a-hanzi-animation-1" stroke-dasharray="350 700" stroke-linecap="round"></path>

      <clipPath id="make-me-a-hanzi-clip-2">
      <path d="M 628.0 741.5 L 608.0 738.5 L 588.0 734.5 Q 571.0 731.5 549.0 728.5 L 520.0 725.5 Q 510.0 724.5 508.0 720.5 L 508.0 718.5 Q 508.0 715.5 512.0 710.5 Q 517.0 706.5 526.0 701.5 L 536.0 695.5 Q 542.0 692.5 549.0 690.5 Q 556.0 688.5 564.0 688.5 Q 570.0 688.5 584.0 692.5 Q 598.0 694.5 620.0 698.5 L 668.0 704.5 L 680.0 706.5 Q 694.0 708.5 725.0 710.5 Q 757.0 712.5 778.0 714.5 L 803.0 715.5 Q 816.0 716.5 822.0 719.5 Q 829.0 722.5 830.0 727.5 Q 830.0 731.5 822.0 738.5 Q 814.0 745.5 801.0 752.5 Q 788.0 758.5 780.0 761.5 Q 773.0 762.5 768.0 762.5 L 762.0 762.5 L 736.0 758.5 L 700.0 751.5 L 686.0 749.5 L 628.0 741.5 Z" fill="lightgray"></path>
      </clipPath>
      <path clip-path="url(#make-me-a-hanzi-clip-2)" d="M 515.0 719.5 L 565.0 709.5 L 765.0 738.5 L 821.0 729.5 " fill="none" id="make-me-a-hanzi-animation-2" stroke-dasharray="438 876" stroke-linecap="round"></path>

      <clipPath id="make-me-a-hanzi-clip-3">
      <path d="M 620.0 698.5 L 614.0 676.5 Q 614.0 674.5 606.0 649.5 L 594.0 614.5 Q 592.0 610.5 592.0 606.5 Q 592.0 601.5 596.0 599.5 L 598.0 599.5 Q 603.0 599.5 612.0 611.5 L 628.0 634.5 L 646.0 664.5 L 668.0 704.5 L 686.0 749.5 L 692.0 763.5 L 699.0 776.5 Q 706.0 789.5 711.0 794.5 Q 716.0 800.5 717.0 802.5 L 717.0 803.5 Q 717.0 808.5 706.0 818.5 Q 694.0 830.5 681.0 837.5 Q 668.0 845.5 651.0 851.5 Q 646.0 853.5 642.0 853.5 Q 639.0 853.5 637.0 852.5 Q 633.0 850.5 632.0 844.5 Q 632.0 840.5 634.0 828.5 Q 636.0 817.5 636.0 802.5 Q 634.0 779.5 632.0 767.5 Q 630.0 756.5 628.0 741.5 L 620.0 698.5 Z" fill="lightgray"></path>
      </clipPath>
      <path clip-path="url(#make-me-a-hanzi-clip-3)" d="M 641.0 844.5 L 672.0 799.5 L 640.0 693.5 L 597.0 604.5 " fill="none" id="make-me-a-hanzi-animation-3" stroke-dasharray="392 784" stroke-linecap="round"></path>

      <clipPath id="make-me-a-hanzi-clip-4">
      <path d="M 526.0 570.5 L 536.0 594.5 Q 538.0 600.5 538.0 606.5 Q 538.0 611.5 537.0 616.5 Q 534.0 624.5 527.0 630.5 Q 520.0 634.5 499.0 642.5 Q 478.0 650.5 476.0 651.5 L 454.0 656.5 Q 450.0 657.5 447.0 657.5 Q 443.0 657.5 441.0 655.5 Q 440.0 653.5 440.0 651.5 Q 440.0 648.5 442.0 645.5 L 455.0 626.5 L 472.0 598.5 Q 480.0 584.5 483.0 580.5 Q 486.0 576.5 494.0 567.5 C 514.0 545.5 515.0 543.5 526.0 570.5 Z" fill="lightgray"></path>
      </clipPath>
      <path clip-path="url(#make-me-a-hanzi-clip-4)" d="M 445.0 652.5 L 497.0 613.5 L 520.0 580.5 " fill="none" id="make-me-a-hanzi-animation-4" stroke-dasharray="233 466" stroke-linecap="round"></path>

      <clipPath id="make-me-a-hanzi-clip-5">
      <path d="M 640.0 541.5 L 662.0 544.5 L 683.0 547.5 L 702.0 550.5 Q 711.0 550.5 714.0 553.5 Q 716.0 556.5 716.0 559.5 Q 716.0 564.5 706.0 572.5 Q 695.0 580.5 681.0 584.5 Q 668.0 589.5 660.0 590.5 Q 654.0 590.5 646.0 588.5 Q 636.0 586.5 606.0 582.5 L 562.0 574.5 Q 550.0 572.5 526.0 570.5 L 494.0 567.5 L 446.0 562.5 Q 426.0 560.5 392.0 558.5 L 350.0 554.5 L 316.0 552.5 Q 301.0 550.5 300.0 548.5 L 300.0 547.5 Q 300.0 544.5 304.0 538.5 Q 309.0 529.5 323.0 524.5 Q 336.0 520.5 347.0 519.5 L 368.0 519.5 L 391.0 520.5 L 444.0 523.5 Q 487.0 525.5 506.0 527.5 L 560.0 533.5 Q 570.0 534.5 592.0 536.5 L 640.0 541.5 Z" fill="lightgray"></path>
      </clipPath>
      <path clip-path="url(#make-me-a-hanzi-clip-5)" d="M 303.0 548.5 L 322.0 539.5 L 352.0 536.5 L 487.0 545.5 L 660.0 567.5 L 707.0 559.5 " fill="none" id="make-me-a-hanzi-animation-5" stroke-dasharray="537 1074" stroke-linecap="round"></path>

      <clipPath id="make-me-a-hanzi-clip-6">
      <path d="M 368.0 519.5 L 376.0 499.5 L 390.0 470.5 L 402.0 444.5 Q 406.0 436.5 414.0 422.5 C 428.0 397.5 429.0 398.5 440.0 426.5 L 444.0 436.5 Q 444.0 440.5 446.0 449.5 Q 448.0 457.5 448.0 462.5 Q 448.0 468.5 446.0 472.5 Q 444.0 480.5 435.0 489.5 Q 427.0 498.5 417.0 504.5 L 391.0 520.5 C 365.0 536.5 360.0 539.5 368.0 519.5 Z" fill="lightgray"></path>
      </clipPath>
      <path clip-path="url(#make-me-a-hanzi-clip-6)" d="M 374.0 516.5 L 419.0 469.5 L 425.0 445.5 L 419.0 433.5 " fill="none" id="make-me-a-hanzi-animation-6" stroke-dasharray="231 462" stroke-linecap="round"></path>

      <clipPath id="make-me-a-hanzi-clip-7">
      <path d="M 594.0 440.5 L 608.0 458.5 L 629.0 484.5 Q 640.0 497.5 648.0 504.5 Q 656.0 511.5 657.0 516.5 L 657.0 517.5 Q 657.0 521.5 653.0 527.5 Q 648.0 534.5 640.0 541.5 C 618.0 561.5 595.0 566.5 592.0 536.5 L 590.0 518.5 L 584.0 490.5 Q 582.0 476.5 577.0 465.5 Q 572.0 453.5 566.0 436.5 C 556.0 408.5 576.0 416.5 594.0 440.5 Z" fill="lightgray"></path>
      </clipPath>
      <path clip-path="url(#make-me-a-hanzi-clip-7)" d="M 644.0 517.5 L 632.0 519.5 L 617.0 511.5 L 593.0 463.5 L 572.0 443.5 " fill="none" id="make-me-a-hanzi-animation-7" stroke-dasharray="240 480" stroke-linecap="round"></path>

      <clipPath id="make-me-a-hanzi-clip-8">
      <path d="M 414.0 422.5 L 346.0 417.5 L 280.0 412.5 Q 221.0 407.5 210.0 406.5 L 182.0 403.5 Q 171.0 402.5 170.0 398.5 L 170.0 397.5 Q 170.0 393.5 177.0 386.5 Q 185.0 380.5 201.0 374.5 Q 218.0 370.5 228.0 369.5 L 235.0 369.5 Q 242.0 369.5 251.0 370.5 Q 265.0 372.5 312.0 377.5 L 372.0 384.5 Q 385.0 385.5 462.0 392.5 Q 540.0 399.5 550.0 400.5 Q 562.0 400.5 640.0 404.5 Q 719.0 408.5 756.0 409.5 Q 792.0 410.5 802.0 410.5 L 834.0 413.5 Q 844.0 414.5 848.0 415.5 Q 852.0 416.5 854.0 420.5 L 854.0 422.5 Q 854.0 426.5 849.0 431.5 Q 843.0 438.5 832.0 444.5 Q 822.0 450.5 811.0 454.5 Q 800.0 458.5 790.0 459.5 Q 784.0 459.5 772.0 457.5 Q 760.0 454.5 730.0 452.5 L 692.0 448.5 L 656.0 445.5 L 594.0 440.5 L 566.0 436.5 L 440.0 426.5 L 414.0 422.5 Z" fill="lightgray"></path>
      </clipPath>
      <path clip-path="url(#make-me-a-hanzi-clip-8)" d="M 177.0 398.5 L 199.0 389.5 L 232.0 388.5 L 781.0 434.5 L 848.0 421.5 " fill="none" id="make-me-a-hanzi-animation-8" stroke-dasharray="804 1608" stroke-linecap="round"></path>

      <clipPath id="make-me-a-hanzi-clip-9">
      <path d="M 380.0 326.5 L 368.0 332.5 Q 364.0 334.5 348.0 337.5 Q 336.0 339.5 330.0 339.5 L 326.0 339.5 Q 320.0 338.5 318.0 334.5 Q 317.0 332.5 317.0 330.5 Q 317.0 328.5 318.0 326.5 Q 320.0 320.5 329.0 310.5 Q 337.0 299.5 340.0 289.5 Q 343.0 278.5 346.0 258.5 L 358.0 182.5 Q 359.0 172.5 362.0 159.5 Q 364.0 146.5 370.0 139.5 Q 376.0 130.5 383.0 130.5 Q 390.0 130.5 392.0 134.5 Q 396.0 138.5 398.0 144.5 L 400.0 180.5 L 396.0 230.5 L 392.0 254.5 L 387.0 300.5 C 384.0 324.5 384.0 324.5 380.0 326.5 Z" fill="lightgray"></path>
      </clipPath>
      <path clip-path="url(#make-me-a-hanzi-clip-9)" d="M 326.0 330.5 L 359.0 309.5 L 362.0 300.5 L 383.0 143.5 " fill="none" id="make-me-a-hanzi-animation-9" stroke-dasharray="335 670" stroke-linecap="round"></path>

      <clipPath id="make-me-a-hanzi-clip-10">
      <path d="M 594.0 164.5 L 601.0 152.5 Q 604.0 146.5 614.0 144.5 L 616.0 144.5 Q 625.0 144.5 631.0 151.5 Q 639.0 158.5 643.0 169.5 Q 648.0 180.5 656.0 210.5 L 674.0 267.5 Q 678.0 283.5 680.0 286.5 Q 681.0 290.5 686.0 300.5 Q 690.0 309.5 696.0 315.5 Q 702.0 322.5 702.0 324.5 L 702.0 325.5 Q 702.0 330.5 693.0 339.5 Q 682.0 348.5 665.0 358.5 Q 648.0 368.5 635.0 372.5 Q 622.0 376.5 615.0 376.5 Q 610.0 374.5 596.0 370.5 Q 583.0 364.5 558.0 358.5 L 515.0 348.5 Q 497.0 344.5 478.0 341.5 L 380.0 326.5 C 350.0 321.5 357.0 296.5 387.0 300.5 L 466.0 310.5 Q 478.0 311.5 504.0 315.5 Q 531.0 320.5 544.0 322.5 L 572.0 328.5 Q 586.0 332.5 598.0 332.5 L 603.0 332.5 Q 611.0 332.5 613.0 330.5 Q 616.0 326.5 616.0 315.5 Q 616.0 304.5 615.0 294.5 L 612.0 272.5 L 610.0 252.5 L 598.0 192.5 C 593.0 166.5 593.0 166.5 594.0 164.5 Z" fill="lightgray"></path>
      </clipPath>
      <path clip-path="url(#make-me-a-hanzi-clip-10)" d="M 388.0 321.5 L 409.0 315.5 L 585.0 349.5 L 618.0 353.5 L 631.0 347.5 L 654.0 320.5 L 615.0 160.5 " fill="none" id="make-me-a-hanzi-animation-10" stroke-dasharray="577 1154" stroke-linecap="round"></path>

      <clipPath id="make-me-a-hanzi-clip-11">
      <path d="M 612.0 272.5 L 597.0 275.5 Q 584.0 277.5 570.0 277.5 Q 561.0 276.5 540.0 274.5 L 500.0 268.5 Q 464.0 263.5 462.0 263.5 L 392.0 254.5 C 362.0 250.5 366.0 229.5 396.0 230.5 L 441.0 232.5 L 502.0 238.5 Q 552.0 244.5 567.0 246.5 L 610.0 252.5 C 640.0 256.5 641.0 266.5 612.0 272.5 Z" fill="lightgray"></path>
      </clipPath>
      <path clip-path="url(#make-me-a-hanzi-clip-11)" d="M 400.0 249.5 L 407.0 243.5 L 447.0 246.5 L 550.0 261.5 L 598.0 262.5 L 603.0 268.5 " fill="none" id="make-me-a-hanzi-animation-11" stroke-dasharray="337 674" stroke-linecap="round"></path>

      <clipPath id="make-me-a-hanzi-clip-12">
      <path d="M 398.0 144.5 L 444.0 149.5 L 506.0 156.5 L 566.0 161.5 L 594.0 164.5 C 624.0 167.5 628.0 188.5 598.0 192.5 L 583.0 194.5 L 565.0 199.5 L 560.0 199.5 Q 554.0 199.5 547.0 198.5 L 504.0 191.5 Q 473.0 187.5 460.0 186.5 Q 447.0 184.5 432.0 182.5 Q 417.0 181.5 400.0 180.5 C 370.0 178.5 368.0 141.5 398.0 144.5 Z" fill="lightgray"></path>
      </clipPath>
      <path clip-path="url(#make-me-a-hanzi-clip-12)" d="M 405.0 150.5 L 417.0 163.5 L 580.0 178.5 L 590.0 186.5 " fill="none" id="make-me-a-hanzi-animation-12" stroke-dasharray="322 644" stroke-linecap="round"></path>

      <clipPath id="make-me-a-hanzi-clip-13">
      <path d="M 217.0 73.5 L 196.0 38.5 Q 185.0 22.5 182.0 13.5 Q 181.0 6.5 181.0 -0.5 L 181.0 -7.5 Q 182.0 -19.5 189.0 -31.5 Q 196.0 -43.5 206.0 -43.5 L 207.0 -43.5 Q 215.0 -43.5 226.0 -33.5 Q 238.0 -22.5 247.0 -1.5 Q 256.0 20.5 259.0 38.5 Q 260.0 50.5 260.0 60.5 Q 259.0 70.5 256.0 83.5 Q 253.0 96.5 250.0 102.5 Q 244.0 110.5 241.0 110.5 Q 238.0 110.5 231.0 97.5 L 217.0 73.5 Z" fill="lightgray"></path>
      </clipPath>
      <path clip-path="url(#make-me-a-hanzi-clip-13)" d="M 243.0 103.5 L 233.0 46.5 L 207.0 -26.5 " fill="none" id="make-me-a-hanzi-animation-13" stroke-dasharray="263 526" stroke-linecap="round"></path>

      <clipPath id="make-me-a-hanzi-clip-14">
      <path d="M 661.0 42.5 L 670.0 17.5 Q 673.0 8.5 673.0 4.5 L 673.0 2.5 Q 672.0 -1.5 664.0 -5.5 Q 656.0 -9.5 627.0 -13.5 Q 597.0 -17.5 592.0 -17.5 Q 584.0 -18.5 576.0 -18.5 Q 554.0 -18.5 525.0 -14.5 Q 486.0 -9.5 459.0 -0.5 Q 432.0 8.5 414.0 23.5 Q 395.0 38.5 386.0 52.5 Q 378.0 65.5 373.0 76.5 Q 368.0 86.5 366.0 96.5 Q 363.0 106.5 360.0 110.5 Q 358.0 113.5 354.0 115.5 Q 350.0 117.5 341.0 119.5 Q 334.0 121.5 330.0 121.5 L 328.0 121.5 Q 320.0 120.5 319.0 116.5 L 319.0 115.5 Q 319.0 111.5 323.0 104.5 Q 329.0 94.5 337.0 74.5 Q 346.0 53.5 356.0 32.5 Q 368.0 10.5 390.0 -11.5 Q 412.0 -34.5 445.0 -49.5 Q 478.0 -63.5 518.0 -70.5 Q 559.0 -77.5 610.0 -77.5 Q 656.0 -77.5 691.0 -70.5 Q 725.0 -63.5 754.0 -50.5 Q 782.0 -37.5 789.0 -25.5 Q 793.0 -18.5 793.0 -12.5 Q 793.0 -10.5 792.0 -8.5 Q 790.0 -1.5 776.0 4.5 L 743.0 18.5 Q 730.0 24.5 715.0 33.5 Q 700.0 42.5 686.0 52.5 L 662.0 67.5 Q 657.0 70.5 654.0 70.5 Q 652.0 70.5 651.0 69.5 Q 650.0 68.5 650.0 66.5 Q 650.0 63.5 652.0 59.5 L 661.0 42.5 Z" fill="lightgray"></path>
      </clipPath>
      <path clip-path="url(#make-me-a-hanzi-clip-14)" d="M 325.0 116.5 L 343.0 102.5 L 368.0 46.5 L 399.0 7.5 L 438.0 -19.5 L 501.0 -39.5 L 586.0 -48.5 L 631.0 -45.5 L 679.0 -37.5 L 711.0 -20.5 L 705.0 3.5 L 654.0 67.5 " fill="none" id="make-me-a-hanzi-animation-14" stroke-dasharray="698 1396" stroke-linecap="round"></path>

      <clipPath id="make-me-a-hanzi-clip-15">
      <path d="M 476.0 138.5 Q 473.0 139.5 470.0 139.5 Q 465.0 139.5 464.0 136.5 Q 463.0 135.5 463.0 133.5 Q 463.0 130.5 466.0 125.5 L 476.0 107.5 Q 484.0 91.5 491.0 80.5 L 508.0 56.5 Q 518.0 42.5 530.0 36.5 Q 539.0 31.5 546.0 31.5 Q 549.0 31.5 552.0 32.5 Q 560.0 34.5 565.0 44.5 Q 569.0 52.5 569.0 65.5 L 569.0 70.5 Q 567.0 86.5 561.0 96.5 Q 556.0 104.5 546.0 112.5 Q 536.0 118.5 520.0 125.5 Q 502.0 132.5 494.0 134.5 L 476.0 138.5 Z" fill="lightgray"></path>
      </clipPath>
      <path clip-path="url(#make-me-a-hanzi-clip-15)" d="M 470.0 133.5 L 525.0 87.5 L 546.0 52.5 " fill="none" id="make-me-a-hanzi-animation-15" stroke-dasharray="241 482" stroke-linecap="round"></path>

      <clipPath id="make-me-a-hanzi-clip-16">
      <path d="M 696.0 166.5 Q 690.0 166.5 687.0 162.5 Q 686.0 161.5 686.0 160.5 Q 686.0 157.5 690.0 154.5 L 710.0 138.5 L 732.0 120.5 Q 740.0 113.5 762.0 91.5 Q 786.0 70.5 803.0 62.5 Q 813.0 57.5 819.0 57.5 L 822.0 57.5 Q 829.0 59.5 834.0 65.5 Q 838.0 71.5 840.0 85.5 Q 840.0 97.5 839.0 106.5 Q 837.0 116.5 832.0 122.5 Q 828.0 128.5 813.0 135.5 Q 798.0 142.5 782.0 147.5 Q 766.0 152.5 753.0 154.5 Q 741.0 157.5 720.0 161.5 L 696.0 166.5 Z" fill="lightgray"></path>
      </clipPath>
      <path clip-path="url(#make-me-a-hanzi-clip-16)" d="M 691.0 159.5 L 755.0 131.5 L 803.0 102.5 L 821.0 72.5 " fill="none" id="make-me-a-hanzi-animation-16" stroke-dasharray="289 578" stroke-linecap="round"></path>

</g>
</svg>
