<svg version="1.1" viewBox="0 0 1024 1024" xmlns="http://www.w3.org/2000/svg">
  <g stroke="lightgray" stroke-dasharray="1,1" stroke-width="1" transform="scale(4, 4)">
    <line x1="0" y1="0" x2="256" y2="256"></line>
    <line x1="256" y1="0" x2="0" y2="256"></line>
    <line x1="128" y1="0" x2="128" y2="256"></line>
    <line x1="0" y1="128" x2="256" y2="128"></line>
  </g>
<g transform="scale(1, -1) translate(0, -900)">
   <style type="text/css">
    @keyframes keyframes0 {
      from {
       stroke: blue;
       stroke-dashoffset: 458;
       stroke-width: 128;
       }
       60% {
       animation-timing-function: step-end;
       stroke: blue;
       stroke-dashoffset: 0;
       stroke-width: 128;
       }
       to {
       stroke: black;
       stroke-width: 1024;
       }
       }
       #make-me-a-hanzi-animation-0 {
         animation: keyframes0 0.622721s both;
         animation-delay: 0.000000s;
         animation-timing-function: linear;
       }
    @keyframes keyframes1 {
      from {
       stroke: blue;
       stroke-dashoffset: 607;
       stroke-width: 128;
       }
       66% {
       animation-timing-function: step-end;
       stroke: blue;
       stroke-dashoffset: 0;
       stroke-width: 128;
       }
       to {
       stroke: black;
       stroke-width: 1024;
       }
       }
       #make-me-a-hanzi-animation-1 {
         animation: keyframes1 0.743978s both;
         animation-delay: 0.622721s;
         animation-timing-function: linear;
       }
    @keyframes keyframes2 {
      from {
       stroke: blue;
       stroke-dashoffset: 474;
       stroke-width: 128;
       }
       61% {
       animation-timing-function: step-end;
       stroke: blue;
       stroke-dashoffset: 0;
       stroke-width: 128;
       }
       to {
       stroke: black;
       stroke-width: 1024;
       }
       }
       #make-me-a-hanzi-animation-2 {
         animation: keyframes2 0.635742s both;
         animation-delay: 1.366699s;
         animation-timing-function: linear;
       }
    @keyframes keyframes3 {
      from {
       stroke: blue;
       stroke-dashoffset: 789;
       stroke-width: 128;
       }
       72% {
       animation-timing-function: step-end;
       stroke: blue;
       stroke-dashoffset: 0;
       stroke-width: 128;
       }
       to {
       stroke: black;
       stroke-width: 1024;
       }
       }
       #make-me-a-hanzi-animation-3 {
         animation: keyframes3 0.892090s both;
         animation-delay: 2.002441s;
         animation-timing-function: linear;
       }
    @keyframes keyframes4 {
      from {
       stroke: blue;
       stroke-dashoffset: 542;
       stroke-width: 128;
       }
       64% {
       animation-timing-function: step-end;
       stroke: blue;
       stroke-dashoffset: 0;
       stroke-width: 128;
       }
       to {
       stroke: black;
       stroke-width: 1024;
       }
       }
       #make-me-a-hanzi-animation-4 {
         animation: keyframes4 0.691081s both;
         animation-delay: 2.894531s;
         animation-timing-function: linear;
       }
    @keyframes keyframes5 {
      from {
       stroke: blue;
       stroke-dashoffset: 353;
       stroke-width: 128;
       }
       53% {
       animation-timing-function: step-end;
       stroke: blue;
       stroke-dashoffset: 0;
       stroke-width: 128;
       }
       to {
       stroke: black;
       stroke-width: 1024;
       }
       }
       #make-me-a-hanzi-animation-5 {
         animation: keyframes5 0.537272s both;
         animation-delay: 3.585612s;
         animation-timing-function: linear;
       }
    @keyframes keyframes6 {
      from {
       stroke: blue;
       stroke-dashoffset: 573;
       stroke-width: 128;
       }
       65% {
       animation-timing-function: step-end;
       stroke: blue;
       stroke-dashoffset: 0;
       stroke-width: 128;
       }
       to {
       stroke: black;
       stroke-width: 1024;
       }
       }
       #make-me-a-hanzi-animation-6 {
         animation: keyframes6 0.716309s both;
         animation-delay: 4.122884s;
         animation-timing-function: linear;
       }
    @keyframes keyframes7 {
      from {
       stroke: blue;
       stroke-dashoffset: 543;
       stroke-width: 128;
       }
       64% {
       animation-timing-function: step-end;
       stroke: blue;
       stroke-dashoffset: 0;
       stroke-width: 128;
       }
       to {
       stroke: black;
       stroke-width: 1024;
       }
       }
       #make-me-a-hanzi-animation-7 {
         animation: keyframes7 0.691895s both;
         animation-delay: 4.839193s;
         animation-timing-function: linear;
       }
    @keyframes keyframes8 {
      from {
       stroke: blue;
       stroke-dashoffset: 727;
       stroke-width: 128;
       }
       70% {
       animation-timing-function: step-end;
       stroke: blue;
       stroke-dashoffset: 0;
       stroke-width: 128;
       }
       to {
       stroke: black;
       stroke-width: 1024;
       }
       }
       #make-me-a-hanzi-animation-8 {
         animation: keyframes8 0.841634s both;
         animation-delay: 5.531087s;
         animation-timing-function: linear;
       }
    @keyframes keyframes9 {
      from {
       stroke: blue;
       stroke-dashoffset: 888;
       stroke-width: 128;
       }
       74% {
       animation-timing-function: step-end;
       stroke: blue;
       stroke-dashoffset: 0;
       stroke-width: 128;
       }
       to {
       stroke: black;
       stroke-width: 1024;
       }
       }
       #make-me-a-hanzi-animation-9 {
         animation: keyframes9 0.972656s both;
         animation-delay: 6.372721s;
         animation-timing-function: linear;
       }
    @keyframes keyframes10 {
      from {
       stroke: blue;
       stroke-dashoffset: 622;
       stroke-width: 128;
       }
       67% {
       animation-timing-function: step-end;
       stroke: blue;
       stroke-dashoffset: 0;
       stroke-width: 128;
       }
       to {
       stroke: black;
       stroke-width: 1024;
       }
       }
       #make-me-a-hanzi-animation-10 {
         animation: keyframes10 0.756185s both;
         animation-delay: 7.345378s;
         animation-timing-function: linear;
       }
    @keyframes keyframes11 {
      from {
       stroke: blue;
       stroke-dashoffset: 483;
       stroke-width: 128;
       }
       61% {
       animation-timing-function: step-end;
       stroke: blue;
       stroke-dashoffset: 0;
       stroke-width: 128;
       }
       to {
       stroke: black;
       stroke-width: 1024;
       }
       }
       #make-me-a-hanzi-animation-11 {
         animation: keyframes11 0.643066s both;
         animation-delay: 8.101562s;
         animation-timing-function: linear;
       }
    @keyframes keyframes12 {
      from {
       stroke: blue;
       stroke-dashoffset: 624;
       stroke-width: 128;
       }
       67% {
       animation-timing-function: step-end;
       stroke: blue;
       stroke-dashoffset: 0;
       stroke-width: 128;
       }
       to {
       stroke: black;
       stroke-width: 1024;
       }
       }
       #make-me-a-hanzi-animation-12 {
         animation: keyframes12 0.757812s both;
         animation-delay: 8.744629s;
         animation-timing-function: linear;
       }
    @keyframes keyframes13 {
      from {
       stroke: blue;
       stroke-dashoffset: 648;
       stroke-width: 128;
       }
       68% {
       animation-timing-function: step-end;
       stroke: blue;
       stroke-dashoffset: 0;
       stroke-width: 128;
       }
       to {
       stroke: black;
       stroke-width: 1024;
       }
       }
       #make-me-a-hanzi-animation-13 {
         animation: keyframes13 0.777344s both;
         animation-delay: 9.502441s;
         animation-timing-function: linear;
       }
    @keyframes keyframes14 {
      from {
       stroke: blue;
       stroke-dashoffset: 540;
       stroke-width: 128;
       }
       64% {
       animation-timing-function: step-end;
       stroke: blue;
       stroke-dashoffset: 0;
       stroke-width: 128;
       }
       to {
       stroke: black;
       stroke-width: 1024;
       }
       }
       #make-me-a-hanzi-animation-14 {
         animation: keyframes14 0.689453s both;
         animation-delay: 10.279785s;
         animation-timing-function: linear;
       }
    @keyframes keyframes15 {
      from {
       stroke: blue;
       stroke-dashoffset: 469;
       stroke-width: 128;
       }
       60% {
       animation-timing-function: step-end;
       stroke: blue;
       stroke-dashoffset: 0;
       stroke-width: 128;
       }
       to {
       stroke: black;
       stroke-width: 1024;
       }
       }
       #make-me-a-hanzi-animation-15 {
         animation: keyframes15 0.631673s both;
         animation-delay: 10.969238s;
         animation-timing-function: linear;
       }
</style>
<path d="M 131.5 548.0 Q 121.5 554.0 89.5 559.0 Q 79.5 563.0 75.5 558.0 Q 68.5 552.0 77.5 537.0 Q 101.5 488.0 116.5 406.0 Q 119.5 382.0 133.5 366.0 Q 149.5 345.0 154.5 360.0 Q 157.5 369.0 158.5 381.0 L 156.5 409.0 Q 156.5 410.0 156.5 413.0 Q 144.5 489.0 141.5 518.0 C 138.5 545.0 138.5 545.0 131.5 548.0 Z" fill="lightgray"></path> 
<path d="M 361.5 445.0 Q 383.5 512.0 409.5 534.0 Q 424.5 550.0 410.5 566.0 Q 395.5 578.0 348.5 599.0 Q 332.5 606.0 312.5 598.0 Q 290.5 588.0 267.5 580.0 L 221.5 566.0 Q 175.5 556.0 131.5 548.0 C 101.5 543.0 113.5 508.0 141.5 518.0 Q 165.5 528.0 221.5 536.0 L 266.5 546.0 Q 282.5 550.0 298.5 554.0 Q 316.5 558.0 323.5 551.0 Q 330.5 544.0 330.5 529.0 Q 323.5 486.0 315.5 449.0 C 309.5 420.0 351.5 417.0 361.5 445.0 Z" fill="lightgray"></path> 
<path d="M 262.5 397.0 Q 308.5 407.0 374.5 414.0 Q 384.5 415.0 384.5 424.0 Q 384.5 431.0 361.5 445.0 C 343.5 456.0 343.5 456.0 315.5 449.0 Q 288.5 442.0 263.5 433.0 L 221.5 423.0 Q 187.5 416.0 156.5 409.0 C 127.5 402.0 128.5 386.0 158.5 381.0 Q 159.5 381.0 162.5 380.0 Q 172.5 379.0 184.5 381.0 Q 199.5 385.0 220.5 389.0 L 262.5 397.0 Z" fill="lightgray"></path> 
<path d="M 257.5 272.0 Q 258.5 336.0 262.5 397.0 L 263.5 433.0 Q 264.5 491.0 266.5 546.0 L 267.5 580.0 Q 267.5 664.0 288.5 741.0 Q 291.5 753.0 270.5 767.0 Q 236.5 786.0 210.5 790.0 Q 194.5 793.0 186.5 784.0 Q 179.5 777.0 187.5 761.0 Q 217.5 718.0 217.5 689.0 Q 220.5 629.0 221.5 566.0 L 221.5 536.0 Q 221.5 481.0 221.5 423.0 L 220.5 389.0 Q 219.5 328.0 215.5 261.0 C 213.5 231.0 256.5 242.0 257.5 272.0 Z" fill="lightgray"></path> 
<path d="M 327.5 293.0 Q 293.5 284.0 257.5 272.0 L 215.5 261.0 Q 163.5 248.0 105.5 231.0 Q 87.5 227.0 58.5 227.0 Q 46.5 226.0 44.5 216.0 Q 43.5 204.0 51.5 196.0 Q 72.5 180.0 103.5 162.0 Q 113.5 159.0 125.5 167.0 Q 161.5 195.0 339.5 271.0 C 367.5 283.0 356.5 301.0 327.5 293.0 Z" fill="lightgray"></path> 
<path d="M 339.5 271.0 Q 345.5 246.0 368.5 237.0 Q 378.5 233.0 388.5 246.0 Q 392.5 256.0 389.5 274.0 Q 388.5 278.0 387.5 280.0 L 381.5 290.0 Q 369.5 317.0 323.5 343.0 Q 316.5 347.0 312.5 338.0 Q 309.5 331.0 327.5 293.0 L 339.5 271.0 Z" fill="lightgray"></path> 
<path d="M 627.5 675.0 Q 769.5 706.0 774.5 709.0 Q 783.5 716.0 779.5 724.0 Q 772.5 734.0 746.5 742.0 Q 719.5 748.0 632.5 720.0 L 581.5 707.0 Q 526.5 698.0 465.5 693.0 Q 431.5 689.0 455.5 672.0 Q 491.5 648.0 554.5 663.0 Q 564.5 666.0 577.5 666.0 L 627.5 675.0 Z" fill="lightgray"></path> 
<path d="M 610.5 575.0 Q 625.5 579.0 745.5 595.0 Q 754.5 594.0 761.5 605.0 Q 762.5 615.0 743.5 623.0 Q 716.5 644.0 642.5 620.0 Q 629.5 619.0 617.5 614.0 L 569.5 604.0 Q 541.5 603.0 472.5 592.0 Q 447.5 588.0 466.5 574.0 Q 494.5 555.0 532.5 561.0 Q 545.5 564.0 563.5 566.0 L 610.5 575.0 Z" fill="lightgray"></path> 
<path d="M 582.5 473.0 Q 615.5 480.0 661.5 483.0 L 691.5 485.0 Q 748.5 491.0 861.5 491.0 Q 879.5 492.0 883.5 500.0 Q 887.5 510.0 873.5 522.0 Q 828.5 556.0 765.5 542.0 Q 707.5 530.0 621.5 515.0 Q 608.5 514.0 594.5 510.0 L 543.5 502.0 Q 479.5 493.0 411.5 483.0 Q 392.5 482.0 406.5 466.0 Q 419.5 454.0 435.5 449.0 Q 454.5 445.0 468.5 449.0 Q 495.5 456.0 527.5 463.0 L 582.5 473.0 Z" fill="lightgray"></path> 
<path d="M 387.5 280.0 Q 427.5 280.0 498.5 346.0 Q 552.5 400.0 582.5 473.0 L 594.5 510.0 Q 607.5 564.0 610.5 575.0 L 617.5 614.0 Q 621.5 644.0 627.5 675.0 L 632.5 720.0 Q 633.5 741.0 637.5 762.0 Q 641.5 780.0 644.5 790.0 Q 651.5 809.0 632.5 819.0 Q 589.5 844.0 575.5 842.0 Q 556.5 841.0 570.5 819.0 Q 585.5 789.0 581.5 707.0 L 577.5 666.0 Q 573.5 639.0 569.5 604.0 L 563.5 566.0 Q 556.5 536.0 543.5 502.0 L 527.5 463.0 Q 491.5 381.0 397.5 303.0 Q 385.5 296.0 381.5 290.0 C 364.5 276.0 364.5 276.0 387.5 280.0 Z" fill="lightgray"></path> 
<path d="M 661.5 483.0 Q 662.5 482.0 664.5 480.0 Q 730.5 387.0 815.5 290.0 Q 831.5 274.0 857.5 276.0 Q 944.5 283.0 971.5 290.0 Q 978.5 291.0 980.5 296.0 Q 980.5 300.0 969.5 306.0 Q 840.5 357.0 777.5 410.0 Q 735.5 444.0 691.5 485.0 C 669.5 505.0 642.5 506.0 661.5 483.0 Z" fill="lightgray"></path> 
<path d="M 604.5 334.0 Q 629.5 349.0 686.5 361.0 Q 699.5 361.0 702.5 367.0 Q 705.5 376.0 696.5 384.0 Q 680.5 397.0 646.5 410.0 Q 634.5 416.0 624.5 415.0 Q 618.5 412.0 618.5 403.0 Q 618.5 376.0 485.5 312.0 Q 481.5 305.0 485.5 303.0 Q 497.5 303.0 555.5 319.0 Q 564.5 322.0 573.5 324.0 L 604.5 334.0 Z" fill="lightgray"></path> 
<path d="M 622.5 229.0 Q 673.5 236.0 750.5 238.0 Q 792.5 238.0 796.5 247.0 Q 800.5 257.0 786.5 267.0 Q 737.5 300.0 686.5 283.0 Q 659.5 277.0 624.5 267.0 L 580.5 258.0 Q 507.5 245.0 425.5 230.0 Q 409.5 227.0 422.5 214.0 Q 449.5 192.0 479.5 200.0 Q 513.5 212.0 552.5 218.0 L 622.5 229.0 Z" fill="lightgray"></path> 
<path d="M 578.5 168.0 Q 575.5 63.0 566.5 27.0 Q 557.5 -3.0 587.5 -47.0 Q 597.5 -63.0 603.5 -67.0 Q 613.5 -68.0 617.5 -57.0 Q 627.5 -30.0 625.5 -4.0 Q 622.5 108.0 622.5 229.0 L 624.5 267.0 Q 627.5 315.0 624.5 318.0 Q 614.5 328.0 604.5 334.0 C 579.5 351.0 566.5 353.0 573.5 324.0 Q 579.5 309.0 580.5 258.0 L 578.5 168.0 Z" fill="lightgray"></path> 
<path d="M 552.5 218.0 Q 501.5 125.0 368.5 33.0 Q 355.5 23.0 364.5 20.0 Q 371.5 16.0 384.5 19.0 Q 447.5 37.0 566.5 154.0 Q 572.5 163.0 578.5 168.0 C 631.5 222.0 571.5 252.0 552.5 218.0 Z" fill="lightgray"></path> 
<path d="M 665.5 155.0 Q 723.5 109.0 793.5 41.0 Q 809.5 25.0 822.5 21.0 Q 831.5 20.0 837.5 30.0 Q 847.5 42.0 834.5 81.0 Q 816.5 129.0 665.5 184.0 Q 656.5 188.0 655.5 176.0 Q 655.5 164.0 665.5 155.0 Z" fill="lightgray"></path> 
      <clipPath id="make-me-a-hanzi-clip-0">
      <path d="M 131.5 548.0 Q 121.5 554.0 89.5 559.0 Q 79.5 563.0 75.5 558.0 Q 68.5 552.0 77.5 537.0 Q 101.5 488.0 116.5 406.0 Q 119.5 382.0 133.5 366.0 Q 149.5 345.0 154.5 360.0 Q 157.5 369.0 158.5 381.0 L 156.5 409.0 Q 156.5 410.0 156.5 413.0 Q 144.5 489.0 141.5 518.0 C 138.5 545.0 138.5 545.0 131.5 548.0 Z" fill="lightgray"></path>
      </clipPath>
      <path clip-path="url(#make-me-a-hanzi-clip-0)" d="M 83.5 551.0 L 110.5 528.0 L 116.5 511.0 L 144.5 365.0 " fill="none" id="make-me-a-hanzi-animation-0" stroke-dasharray="330 660" stroke-linecap="round"></path>

      <clipPath id="make-me-a-hanzi-clip-1">
      <path d="M 361.5 445.0 Q 383.5 512.0 409.5 534.0 Q 424.5 550.0 410.5 566.0 Q 395.5 578.0 348.5 599.0 Q 332.5 606.0 312.5 598.0 Q 290.5 588.0 267.5 580.0 L 221.5 566.0 Q 175.5 556.0 131.5 548.0 C 101.5 543.0 113.5 508.0 141.5 518.0 Q 165.5 528.0 221.5 536.0 L 266.5 546.0 Q 282.5 550.0 298.5 554.0 Q 316.5 558.0 323.5 551.0 Q 330.5 544.0 330.5 529.0 Q 323.5 486.0 315.5 449.0 C 309.5 420.0 351.5 417.0 361.5 445.0 Z" fill="lightgray"></path>
      </clipPath>
      <path clip-path="url(#make-me-a-hanzi-clip-1)" d="M 140.5 543.0 L 151.5 536.0 L 315.5 577.0 L 336.5 575.0 L 367.5 546.0 L 344.5 471.0 L 323.5 454.0 " fill="none" id="make-me-a-hanzi-animation-1" stroke-dasharray="479 958" stroke-linecap="round"></path>

      <clipPath id="make-me-a-hanzi-clip-2">
      <path d="M 262.5 397.0 Q 308.5 407.0 374.5 414.0 Q 384.5 415.0 384.5 424.0 Q 384.5 431.0 361.5 445.0 C 343.5 456.0 343.5 456.0 315.5 449.0 Q 288.5 442.0 263.5 433.0 L 221.5 423.0 Q 187.5 416.0 156.5 409.0 C 127.5 402.0 128.5 386.0 158.5 381.0 Q 159.5 381.0 162.5 380.0 Q 172.5 379.0 184.5 381.0 Q 199.5 385.0 220.5 389.0 L 262.5 397.0 Z" fill="lightgray"></path>
      </clipPath>
      <path clip-path="url(#make-me-a-hanzi-clip-2)" d="M 162.5 388.0 L 173.5 396.0 L 314.5 428.0 L 374.5 424.0 " fill="none" id="make-me-a-hanzi-animation-2" stroke-dasharray="346 692" stroke-linecap="round"></path>

      <clipPath id="make-me-a-hanzi-clip-3">
      <path d="M 257.5 272.0 Q 258.5 336.0 262.5 397.0 L 263.5 433.0 Q 264.5 491.0 266.5 546.0 L 267.5 580.0 Q 267.5 664.0 288.5 741.0 Q 291.5 753.0 270.5 767.0 Q 236.5 786.0 210.5 790.0 Q 194.5 793.0 186.5 784.0 Q 179.5 777.0 187.5 761.0 Q 217.5 718.0 217.5 689.0 Q 220.5 629.0 221.5 566.0 L 221.5 536.0 Q 221.5 481.0 221.5 423.0 L 220.5 389.0 Q 219.5 328.0 215.5 261.0 C 213.5 231.0 256.5 242.0 257.5 272.0 Z" fill="lightgray"></path>
      </clipPath>
      <path clip-path="url(#make-me-a-hanzi-clip-3)" d="M 199.5 774.0 L 236.5 746.0 L 247.5 728.0 L 237.5 288.0 L 221.5 268.0 " fill="none" id="make-me-a-hanzi-animation-3" stroke-dasharray="661 1322" stroke-linecap="round"></path>

      <clipPath id="make-me-a-hanzi-clip-4">
      <path d="M 327.5 293.0 Q 293.5 284.0 257.5 272.0 L 215.5 261.0 Q 163.5 248.0 105.5 231.0 Q 87.5 227.0 58.5 227.0 Q 46.5 226.0 44.5 216.0 Q 43.5 204.0 51.5 196.0 Q 72.5 180.0 103.5 162.0 Q 113.5 159.0 125.5 167.0 Q 161.5 195.0 339.5 271.0 C 367.5 283.0 356.5 301.0 327.5 293.0 Z" fill="lightgray"></path>
      </clipPath>
      <path clip-path="url(#make-me-a-hanzi-clip-4)" d="M 57.5 213.0 L 109.5 197.0 L 310.5 275.0 L 325.5 271.0 " fill="none" id="make-me-a-hanzi-animation-4" stroke-dasharray="414 828" stroke-linecap="round"></path>

      <clipPath id="make-me-a-hanzi-clip-5">
      <path d="M 339.5 271.0 Q 345.5 246.0 368.5 237.0 Q 378.5 233.0 388.5 246.0 Q 392.5 256.0 389.5 274.0 Q 388.5 278.0 387.5 280.0 L 381.5 290.0 Q 369.5 317.0 323.5 343.0 Q 316.5 347.0 312.5 338.0 Q 309.5 331.0 327.5 293.0 L 339.5 271.0 Z" fill="lightgray"></path>
      </clipPath>
      <path clip-path="url(#make-me-a-hanzi-clip-5)" d="M 320.5 334.0 L 354.5 292.0 L 373.5 254.0 " fill="none" id="make-me-a-hanzi-animation-5" stroke-dasharray="225 450" stroke-linecap="round"></path>

      <clipPath id="make-me-a-hanzi-clip-6">
      <path d="M 627.5 675.0 Q 769.5 706.0 774.5 709.0 Q 783.5 716.0 779.5 724.0 Q 772.5 734.0 746.5 742.0 Q 719.5 748.0 632.5 720.0 L 581.5 707.0 Q 526.5 698.0 465.5 693.0 Q 431.5 689.0 455.5 672.0 Q 491.5 648.0 554.5 663.0 Q 564.5 666.0 577.5 666.0 L 627.5 675.0 Z" fill="lightgray"></path>
      </clipPath>
      <path clip-path="url(#make-me-a-hanzi-clip-6)" d="M 457.5 684.0 L 488.5 677.0 L 526.5 678.0 L 636.5 697.0 L 714.5 718.0 L 769.5 719.0 " fill="none" id="make-me-a-hanzi-animation-6" stroke-dasharray="445 890" stroke-linecap="round"></path>

      <clipPath id="make-me-a-hanzi-clip-7">
      <path d="M 610.5 575.0 Q 625.5 579.0 745.5 595.0 Q 754.5 594.0 761.5 605.0 Q 762.5 615.0 743.5 623.0 Q 716.5 644.0 642.5 620.0 Q 629.5 619.0 617.5 614.0 L 569.5 604.0 Q 541.5 603.0 472.5 592.0 Q 447.5 588.0 466.5 574.0 Q 494.5 555.0 532.5 561.0 Q 545.5 564.0 563.5 566.0 L 610.5 575.0 Z" fill="lightgray"></path>
      </clipPath>
      <path clip-path="url(#make-me-a-hanzi-clip-7)" d="M 467.5 584.0 L 511.5 578.0 L 692.5 610.0 L 751.5 607.0 " fill="none" id="make-me-a-hanzi-animation-7" stroke-dasharray="415 830" stroke-linecap="round"></path>

      <clipPath id="make-me-a-hanzi-clip-8">
      <path d="M 582.5 473.0 Q 615.5 480.0 661.5 483.0 L 691.5 485.0 Q 748.5 491.0 861.5 491.0 Q 879.5 492.0 883.5 500.0 Q 887.5 510.0 873.5 522.0 Q 828.5 556.0 765.5 542.0 Q 707.5 530.0 621.5 515.0 Q 608.5 514.0 594.5 510.0 L 543.5 502.0 Q 479.5 493.0 411.5 483.0 Q 392.5 482.0 406.5 466.0 Q 419.5 454.0 435.5 449.0 Q 454.5 445.0 468.5 449.0 Q 495.5 456.0 527.5 463.0 L 582.5 473.0 Z" fill="lightgray"></path>
      </clipPath>
      <path clip-path="url(#make-me-a-hanzi-clip-8)" d="M 408.5 475.0 L 444.5 467.0 L 590.5 493.0 L 806.5 519.0 L 873.5 505.0 " fill="none" id="make-me-a-hanzi-animation-8" stroke-dasharray="599 1198" stroke-linecap="round"></path>

      <clipPath id="make-me-a-hanzi-clip-9">
      <path d="M 387.5 280.0 Q 427.5 280.0 498.5 346.0 Q 552.5 400.0 582.5 473.0 L 594.5 510.0 Q 607.5 564.0 610.5 575.0 L 617.5 614.0 Q 621.5 644.0 627.5 675.0 L 632.5 720.0 Q 633.5 741.0 637.5 762.0 Q 641.5 780.0 644.5 790.0 Q 651.5 809.0 632.5 819.0 Q 589.5 844.0 575.5 842.0 Q 556.5 841.0 570.5 819.0 Q 585.5 789.0 581.5 707.0 L 577.5 666.0 Q 573.5 639.0 569.5 604.0 L 563.5 566.0 Q 556.5 536.0 543.5 502.0 L 527.5 463.0 Q 491.5 381.0 397.5 303.0 Q 385.5 296.0 381.5 290.0 C 364.5 276.0 364.5 276.0 387.5 280.0 Z" fill="lightgray"></path>
      </clipPath>
      <path clip-path="url(#make-me-a-hanzi-clip-9)" d="M 575.5 830.0 L 611.5 792.0 L 602.5 670.0 L 576.5 525.0 L 545.5 447.0 L 508.5 387.0 L 451.5 327.0 L 389.5 288.0 " fill="none" id="make-me-a-hanzi-animation-9" stroke-dasharray="760 1520" stroke-linecap="round"></path>

      <clipPath id="make-me-a-hanzi-clip-10">
      <path d="M 661.5 483.0 Q 662.5 482.0 664.5 480.0 Q 730.5 387.0 815.5 290.0 Q 831.5 274.0 857.5 276.0 Q 944.5 283.0 971.5 290.0 Q 978.5 291.0 980.5 296.0 Q 980.5 300.0 969.5 306.0 Q 840.5 357.0 777.5 410.0 Q 735.5 444.0 691.5 485.0 C 669.5 505.0 642.5 506.0 661.5 483.0 Z" fill="lightgray"></path>
      </clipPath>
      <path clip-path="url(#make-me-a-hanzi-clip-10)" d="M 672.5 477.0 L 684.5 474.0 L 779.5 373.0 L 846.5 317.0 L 972.5 298.0 " fill="none" id="make-me-a-hanzi-animation-10" stroke-dasharray="494 988" stroke-linecap="round"></path>

      <clipPath id="make-me-a-hanzi-clip-11">
      <path d="M 604.5 334.0 Q 629.5 349.0 686.5 361.0 Q 699.5 361.0 702.5 367.0 Q 705.5 376.0 696.5 384.0 Q 680.5 397.0 646.5 410.0 Q 634.5 416.0 624.5 415.0 Q 618.5 412.0 618.5 403.0 Q 618.5 376.0 485.5 312.0 Q 481.5 305.0 485.5 303.0 Q 497.5 303.0 555.5 319.0 Q 564.5 322.0 573.5 324.0 L 604.5 334.0 Z" fill="lightgray"></path>
      </clipPath>
      <path clip-path="url(#make-me-a-hanzi-clip-11)" d="M 694.5 371.0 L 641.5 380.0 L 573.5 340.0 L 507.5 314.0 L 497.5 317.0 L 488.5 308.0 " fill="none" id="make-me-a-hanzi-animation-11" stroke-dasharray="355 710" stroke-linecap="round"></path>

      <clipPath id="make-me-a-hanzi-clip-12">
      <path d="M 622.5 229.0 Q 673.5 236.0 750.5 238.0 Q 792.5 238.0 796.5 247.0 Q 800.5 257.0 786.5 267.0 Q 737.5 300.0 686.5 283.0 Q 659.5 277.0 624.5 267.0 L 580.5 258.0 Q 507.5 245.0 425.5 230.0 Q 409.5 227.0 422.5 214.0 Q 449.5 192.0 479.5 200.0 Q 513.5 212.0 552.5 218.0 L 622.5 229.0 Z" fill="lightgray"></path>
      </clipPath>
      <path clip-path="url(#make-me-a-hanzi-clip-12)" d="M 424.5 222.0 L 469.5 218.0 L 708.5 262.0 L 733.5 263.0 L 787.5 252.0 " fill="none" id="make-me-a-hanzi-animation-12" stroke-dasharray="496 992" stroke-linecap="round"></path>

      <clipPath id="make-me-a-hanzi-clip-13">
      <path d="M 578.5 168.0 Q 575.5 63.0 566.5 27.0 Q 557.5 -3.0 587.5 -47.0 Q 597.5 -63.0 603.5 -67.0 Q 613.5 -68.0 617.5 -57.0 Q 627.5 -30.0 625.5 -4.0 Q 622.5 108.0 622.5 229.0 L 624.5 267.0 Q 627.5 315.0 624.5 318.0 Q 614.5 328.0 604.5 334.0 C 579.5 351.0 566.5 353.0 573.5 324.0 Q 579.5 309.0 580.5 258.0 L 578.5 168.0 Z" fill="lightgray"></path>
      </clipPath>
      <path clip-path="url(#make-me-a-hanzi-clip-13)" d="M 579.5 322.0 L 600.5 308.0 L 602.5 297.0 L 594.5 10.0 L 605.5 -58.0 " fill="none" id="make-me-a-hanzi-animation-13" stroke-dasharray="520 1040" stroke-linecap="round"></path>

      <clipPath id="make-me-a-hanzi-clip-14">
      <path d="M 552.5 218.0 Q 501.5 125.0 368.5 33.0 Q 355.5 23.0 364.5 20.0 Q 371.5 16.0 384.5 19.0 Q 447.5 37.0 566.5 154.0 Q 572.5 163.0 578.5 168.0 C 631.5 222.0 571.5 252.0 552.5 218.0 Z" fill="lightgray"></path>
      </clipPath>
      <path clip-path="url(#make-me-a-hanzi-clip-14)" d="M 573.5 216.0 L 551.5 172.0 L 502.5 118.0 L 419.5 51.0 L 370.5 25.0 " fill="none" id="make-me-a-hanzi-animation-14" stroke-dasharray="412 824" stroke-linecap="round"></path>

      <clipPath id="make-me-a-hanzi-clip-15">
      <path d="M 665.5 155.0 Q 723.5 109.0 793.5 41.0 Q 809.5 25.0 822.5 21.0 Q 831.5 20.0 837.5 30.0 Q 847.5 42.0 834.5 81.0 Q 816.5 129.0 665.5 184.0 Q 656.5 188.0 655.5 176.0 Q 655.5 164.0 665.5 155.0 Z" fill="lightgray"></path>
      </clipPath>
      <path clip-path="url(#make-me-a-hanzi-clip-15)" d="M 666.5 173.0 L 778.5 98.0 L 805.5 72.0 L 823.5 36.0 " fill="none" id="make-me-a-hanzi-animation-15" stroke-dasharray="341 682" stroke-linecap="round"></path>

</g>
</svg>
