<svg version="1.1" viewBox="0 0 1024 1024" xmlns="http://www.w3.org/2000/svg">
  <g stroke="lightgray" stroke-dasharray="1,1" stroke-width="1" transform="scale(4, 4)">
    <line x1="0" y1="0" x2="256" y2="256"></line>
    <line x1="256" y1="0" x2="0" y2="256"></line>
    <line x1="128" y1="0" x2="128" y2="256"></line>
    <line x1="0" y1="128" x2="256" y2="128"></line>
  </g>
  <g transform="scale(0.92, -0.92) translate(60, -850)">
    <style type="text/css">
      
        @keyframes keyframes0 {
          from {
            stroke: blue;
            stroke-dashoffset: 396;
            stroke-width: 128;
          }
          56% {
            animation-timing-function: step-end;
            stroke: blue;
            stroke-dashoffset: 0;
            stroke-width: 128;
          }
          to {
            stroke: black;
            stroke-width: 1024;
          }
        }
        #make-me-a-hanzi-animation-0 {
          animation: keyframes0 0.572265625s both;
          animation-delay: 0s;
          animation-timing-function: linear;
        }
      
        @keyframes keyframes1 {
          from {
            stroke: blue;
            stroke-dashoffset: 998;
            stroke-width: 128;
          }
          76% {
            animation-timing-function: step-end;
            stroke: blue;
            stroke-dashoffset: 0;
            stroke-width: 128;
          }
          to {
            stroke: black;
            stroke-width: 1024;
          }
        }
        #make-me-a-hanzi-animation-1 {
          animation: keyframes1 1.0621744791666667s both;
          animation-delay: 0.572265625s;
          animation-timing-function: linear;
        }
      
        @keyframes keyframes2 {
          from {
            stroke: blue;
            stroke-dashoffset: 591;
            stroke-width: 128;
          }
          66% {
            animation-timing-function: step-end;
            stroke: blue;
            stroke-dashoffset: 0;
            stroke-width: 128;
          }
          to {
            stroke: black;
            stroke-width: 1024;
          }
        }
        #make-me-a-hanzi-animation-2 {
          animation: keyframes2 0.73095703125s both;
          animation-delay: 1.6344401041666667s;
          animation-timing-function: linear;
        }
      
        @keyframes keyframes3 {
          from {
            stroke: blue;
            stroke-dashoffset: 377;
            stroke-width: 128;
          }
          55% {
            animation-timing-function: step-end;
            stroke: blue;
            stroke-dashoffset: 0;
            stroke-width: 128;
          }
          to {
            stroke: black;
            stroke-width: 1024;
          }
        }
        #make-me-a-hanzi-animation-3 {
          animation: keyframes3 0.5568033854166666s both;
          animation-delay: 2.365397135416667s;
          animation-timing-function: linear;
        }
      
        @keyframes keyframes4 {
          from {
            stroke: blue;
            stroke-dashoffset: 354;
            stroke-width: 128;
          }
          54% {
            animation-timing-function: step-end;
            stroke: blue;
            stroke-dashoffset: 0;
            stroke-width: 128;
          }
          to {
            stroke: black;
            stroke-width: 1024;
          }
        }
        #make-me-a-hanzi-animation-4 {
          animation: keyframes4 0.5380859375s both;
          animation-delay: 2.9222005208333335s;
          animation-timing-function: linear;
        }
      
        @keyframes keyframes5 {
          from {
            stroke: blue;
            stroke-dashoffset: 535;
            stroke-width: 128;
          }
          64% {
            animation-timing-function: step-end;
            stroke: blue;
            stroke-dashoffset: 0;
            stroke-width: 128;
          }
          to {
            stroke: black;
            stroke-width: 1024;
          }
        }
        #make-me-a-hanzi-animation-5 {
          animation: keyframes5 0.6853841145833334s both;
          animation-delay: 3.4602864583333335s;
          animation-timing-function: linear;
        }
      
        @keyframes keyframes6 {
          from {
            stroke: blue;
            stroke-dashoffset: 711;
            stroke-width: 128;
          }
          70% {
            animation-timing-function: step-end;
            stroke: blue;
            stroke-dashoffset: 0;
            stroke-width: 128;
          }
          to {
            stroke: black;
            stroke-width: 1024;
          }
        }
        #make-me-a-hanzi-animation-6 {
          animation: keyframes6 0.82861328125s both;
          animation-delay: 4.145670572916667s;
          animation-timing-function: linear;
        }
      
        @keyframes keyframes7 {
          from {
            stroke: blue;
            stroke-dashoffset: 402;
            stroke-width: 128;
          }
          57% {
            animation-timing-function: step-end;
            stroke: blue;
            stroke-dashoffset: 0;
            stroke-width: 128;
          }
          to {
            stroke: black;
            stroke-width: 1024;
          }
        }
        #make-me-a-hanzi-animation-7 {
          animation: keyframes7 0.5771484375s both;
          animation-delay: 4.974283854166667s;
          animation-timing-function: linear;
        }
      
        @keyframes keyframes8 {
          from {
            stroke: blue;
            stroke-dashoffset: 383;
            stroke-width: 128;
          }
          55% {
            animation-timing-function: step-end;
            stroke: blue;
            stroke-dashoffset: 0;
            stroke-width: 128;
          }
          to {
            stroke: black;
            stroke-width: 1024;
          }
        }
        #make-me-a-hanzi-animation-8 {
          animation: keyframes8 0.5616861979166666s both;
          animation-delay: 5.551432291666667s;
          animation-timing-function: linear;
        }
      
        @keyframes keyframes9 {
          from {
            stroke: blue;
            stroke-dashoffset: 548;
            stroke-width: 128;
          }
          64% {
            animation-timing-function: step-end;
            stroke: blue;
            stroke-dashoffset: 0;
            stroke-width: 128;
          }
          to {
            stroke: black;
            stroke-width: 1024;
          }
        }
        #make-me-a-hanzi-animation-9 {
          animation: keyframes9 0.6959635416666666s both;
          animation-delay: 6.113118489583334s;
          animation-timing-function: linear;
        }
      
        @keyframes keyframes10 {
          from {
            stroke: blue;
            stroke-dashoffset: 1133;
            stroke-width: 128;
          }
          79% {
            animation-timing-function: step-end;
            stroke: blue;
            stroke-dashoffset: 0;
            stroke-width: 128;
          }
          to {
            stroke: black;
            stroke-width: 1024;
          }
        }
        #make-me-a-hanzi-animation-10 {
          animation: keyframes10 1.1720377604166667s both;
          animation-delay: 6.809082031250001s;
          animation-timing-function: linear;
        }
      
        @keyframes keyframes11 {
          from {
            stroke: blue;
            stroke-dashoffset: 545;
            stroke-width: 128;
          }
          64% {
            animation-timing-function: step-end;
            stroke: blue;
            stroke-dashoffset: 0;
            stroke-width: 128;
          }
          to {
            stroke: black;
            stroke-width: 1024;
          }
        }
        #make-me-a-hanzi-animation-11 {
          animation: keyframes11 0.6935221354166666s both;
          animation-delay: 7.981119791666668s;
          animation-timing-function: linear;
        }
      
        @keyframes keyframes12 {
          from {
            stroke: blue;
            stroke-dashoffset: 776;
            stroke-width: 128;
          }
          72% {
            animation-timing-function: step-end;
            stroke: blue;
            stroke-dashoffset: 0;
            stroke-width: 128;
          }
          to {
            stroke: black;
            stroke-width: 1024;
          }
        }
        #make-me-a-hanzi-animation-12 {
          animation: keyframes12 0.8815104166666666s both;
          animation-delay: 8.674641927083334s;
          animation-timing-function: linear;
        }
      
    </style>
    
      <path d="M 270 628 Q 273 624 285 610 Q 297 595 312 580 Q 326 566 339 555 Q 357 541 369 541 L 372 541 Q 385 542 393 554 Q 399 562 399 576 L 399 584 Q 398 603 391 614 Q 383 625 370 632 Q 357 638 337 644 Q 317 650 301 652 L 275 656 Q 271 657 268 657 Q 266 657 264 656 Q 257 654 255 650 L 255 648 Q 255 644 260 639 L 270 628 Z" fill="lightgray"></path>
    
      <path d="M 283 268 L 307 302 Q 310 306 329 333 L 357 373 Q 367 386 374 393 Q 381 400 395 411 Q 410 422 413 426 Q 417 429 417 434 L 417 435 Q 417 441 410 449 Q 403 458 389 467 Q 375 476 363 480 Q 354 484 348 484 L 345 484 Q 339 484 327 477 Q 315 470 297 463 Q 279 455 267 451 Q 255 447 233 442 Q 211 436 186 432 Q 161 426 138 424 L 115 421 Q 105 420 104 415 L 104 413 Q 104 409 106 406 Q 109 400 125 392 Q 141 384 147 382 Q 152 380 160 380 L 165 380 Q 173 380 197 390 Q 220 400 225 402 L 265 416 Q 292 424 303 428 Q 313 433 319 434 L 321 434 Q 325 434 328 432 Q 329 431 329 430 Q 329 425 321 412 L 291 365 L 250 306 Q 229 275 209 250 Q 189 224 159 190 Q 129 155 110 135 L 79 106 L 63 94 Q 57 88 57 84 L 57 83 Q 59 81 62 81 Q 64 81 67 82 L 84 89 Q 101 96 129 115 Q 159 134 188 160 Q 218 186 229 200 Q 239 213 245 220 L 259 237 L 283 268 Z" fill="lightgray"></path>
    
      <path d="M 308 236 L 301 247 Q 297 254 292 258 Q 287 264 283 268 C 263 290 257 267 259 237 L 260 219 L 261 195 L 261 166 L 257 93 Q 257 84 253 61 L 248 35 Q 245 19 241 6 Q 237 -8 237 -13 L 237 -24 L 246 -50 Q 253 -70 259 -78 Q 264 -86 269 -86 Q 275 -86 281 -77 Q 287 -68 291 -54 L 297 -31 Q 299 -23 299 -14 L 297 38 L 300 164 Q 300 173 301 188 Q 303 202 304 206 Q 305 210 307 215 C 312 230 312 230 308 236 Z" fill="lightgray"></path>
    
      <path d="M 325 232 L 351 247 L 383 266 Q 395 274 400 276 L 411 279 Q 415 281 417 284 L 417 285 Q 417 290 412 298 Q 407 307 400 314 Q 393 320 386 324 Q 379 329 375 329 Q 371 328 369 327 Q 367 326 365 318 Q 363 310 359 304 Q 356 297 345 281 L 329 260 L 315 244 Q 313 241 309 236 C 290 212 299 217 325 232 Z" fill="lightgray"></path>
    
      <path d="M 307 215 L 322 200 Q 327 195 341 179 Q 356 164 365 156 Q 374 149 380 149 L 382 149 Q 390 149 396 156 Q 401 162 401 174 Q 401 186 391 198 Q 382 210 369 216 Q 357 223 345 226 Q 334 230 325 232 L 309 236 L 308 236 C 281 241 286 236 307 215 Z" fill="lightgray"></path>
    
      <path d="M 593 366 L 595 377 L 599 412 L 595 492 L 597 516 L 592 604 C 591 628 591 628 578 631 L 549 637 Q 535 640 529 640 Q 520 639 517 634 Q 514 631 514 628 Q 514 627 515 625 Q 516 620 521 614 Q 525 606 532 588 Q 538 568 540 549 L 554 412 Q 557 386 561 378 Q 565 370 571 362 C 588 338 588 338 593 366 Z" fill="lightgray"></path>
    
      <path d="M 727 393 L 737 377 Q 739 371 750 371 L 752 371 Q 762 371 770 381 Q 779 392 787 427 L 813 532 Q 819 557 823 572 Q 827 587 831 592 Q 834 596 842 608 Q 849 618 849 624 Q 848 630 839 638 Q 831 646 819 652 Q 807 659 788 666 Q 771 673 762 673 L 760 673 Q 754 672 740 666 Q 725 660 716 658 Q 707 655 684 650 L 649 644 L 578 631 C 548 626 563 598 592 604 L 715 628 Q 717 628 727 630 Q 737 630 743 629 Q 748 628 751 622 Q 754 618 754 611 Q 754 607 753 602 L 748 532 L 745 508 L 732 421 C 728 392 726 394 727 393 Z" fill="lightgray"></path>
    
      <path d="M 595 492 L 609 490 Q 610 489 617 489 L 624 489 Q 637 490 645 491 Q 653 492 681 496 L 718 502 L 745 508 C 774 515 778 527 748 532 L 731 535 L 713 538 Q 703 538 688 536 Q 673 534 648 527 Q 623 520 615 518 Q 608 517 597 516 C 567 513 565 496 595 492 Z" fill="lightgray"></path>
    
      <path d="M 595 377 L 641 382 L 703 390 Q 711 390 727 393 C 757 398 760 409 732 421 L 718 427 Q 715 428 706 428 Q 699 428 687 425 L 645 418 L 599 412 C 569 408 565 374 595 377 Z" fill="lightgray"></path>
    
      <path d="M 581 274 L 594 289 L 607 304 Q 614 312 627 319 Q 640 326 640 330 L 640 331 Q 640 336 635 341 Q 629 348 619 354 Q 608 360 604 361 Q 600 363 593 366 C 574 375 574 375 571 362 L 567 343 Q 565 340 557 323 Q 548 307 538 294 Q 527 280 500 248 Q 472 216 460 204 Q 449 193 433 180 L 419 168 Q 413 163 411 159 L 411 157 Q 411 154 413 152 Q 414 151 416 151 Q 419 151 424 154 L 436 160 Q 452 167 471 180 Q 491 193 512 211 Q 533 228 541 235 Q 549 242 559 252 L 581 274 Z" fill="lightgray"></path>
    
      <path d="M 559 252 L 579 242 Q 585 238 591 238 Q 598 238 609 241 L 655 252 L 677 256 Q 688 258 700 261 L 722 266 Q 729 268 744 270 L 769 276 L 797 280 L 837 282 Q 849 284 857 284 Q 865 284 868 282 Q 876 279 879 273 Q 882 270 882 262 Q 882 259 881 254 Q 879 242 877 218 Q 875 194 870 166 Q 865 137 857 108 Q 849 79 839 47 Q 829 14 817 -7 Q 805 -28 794 -38 Q 783 -48 773 -48 L 770 -48 Q 760 -48 743 -39 L 723 -29 L 707 -20 Q 703 -18 700 -18 Q 697 -18 695 -20 Q 694 -21 694 -23 Q 694 -27 700 -33 L 707 -42 Q 715 -50 728 -74 L 746 -106 Q 756 -124 761 -131 Q 766 -138 770 -139 Q 772 -140 776 -140 Q 782 -140 793 -136 Q 809 -128 827 -113 Q 845 -97 859 -79 Q 872 -60 885 -21 Q 899 18 908 60 Q 918 101 927 148 Q 935 194 941 210 Q 945 226 951 236 Q 956 244 963 254 Q 971 263 971 268 L 971 271 Q 971 279 961 288 Q 950 300 935 309 Q 921 318 909 324 Q 899 328 890 328 L 887 328 Q 883 327 869 321 Q 855 315 837 312 Q 820 308 775 302 L 701 289 Q 657 282 629 279 L 581 274 C 551 271 532 266 559 252 Z" fill="lightgray"></path>
    
      <path d="M 609 241 L 607 230 Q 604 218 597 202 Q 589 186 571 166 Q 554 144 535 126 Q 515 108 497 94 L 463 71 L 449 62 Q 443 59 443 55 L 443 53 Q 444 50 447 50 Q 448 50 451 51 L 471 57 L 510 71 Q 529 78 555 96 Q 580 114 597 131 Q 615 148 629 170 Q 644 190 650 197 Q 655 203 665 210 Q 675 218 677 220 Q 678 222 678 223 Q 678 228 673 234 Q 667 243 655 252 C 632 271 614 271 609 241 Z" fill="lightgray"></path>
    
      <path d="M 744 270 L 741 247 Q 739 235 727 207 Q 714 178 697 152 Q 681 124 649 88 Q 618 51 588 25 Q 559 -2 522 -27 Q 485 -53 465 -64 L 444 -75 L 431 -82 Q 426 -85 426 -89 L 426 -92 Q 427 -96 431 -96 Q 434 -96 439 -94 L 463 -89 Q 469 -88 490 -81 Q 511 -74 544 -57 Q 577 -40 621 -7 Q 665 26 692 58 Q 719 90 740 122 Q 761 155 775 180 Q 790 204 801 214 Q 812 222 813 226 Q 813 231 810 238 Q 806 246 800 252 Q 793 258 785 264 L 769 276 C 747 293 747 293 744 270 Z" fill="lightgray"></path>
    
    
      <clipPath id="make-me-a-hanzi-clip-0">
        <path d="M 270 628 Q 273 624 285 610 Q 297 595 312 580 Q 326 566 339 555 Q 357 541 369 541 L 372 541 Q 385 542 393 554 Q 399 562 399 576 L 399 584 Q 398 603 391 614 Q 383 625 370 632 Q 357 638 337 644 Q 317 650 301 652 L 275 656 Q 271 657 268 657 Q 266 657 264 656 Q 257 654 255 650 L 255 648 Q 255 644 260 639 L 270 628 Z"></path>
      </clipPath>
      <path clip-path="url(#make-me-a-hanzi-clip-0)" d="M 262 649 L 354 595 L 371 566" fill="none" id="make-me-a-hanzi-animation-0" stroke-dasharray="268 536" stroke-linecap="round"></path>
    
      <clipPath id="make-me-a-hanzi-clip-1">
        <path d="M 283 268 L 307 302 Q 310 306 329 333 L 357 373 Q 367 386 374 393 Q 381 400 395 411 Q 410 422 413 426 Q 417 429 417 434 L 417 435 Q 417 441 410 449 Q 403 458 389 467 Q 375 476 363 480 Q 354 484 348 484 L 345 484 Q 339 484 327 477 Q 315 470 297 463 Q 279 455 267 451 Q 255 447 233 442 Q 211 436 186 432 Q 161 426 138 424 L 115 421 Q 105 420 104 415 L 104 413 Q 104 409 106 406 Q 109 400 125 392 Q 141 384 147 382 Q 152 380 160 380 L 165 380 Q 173 380 197 390 Q 220 400 225 402 L 265 416 Q 292 424 303 428 Q 313 433 319 434 L 321 434 Q 325 434 328 432 Q 329 431 329 430 Q 329 425 321 412 L 291 365 L 250 306 Q 229 275 209 250 Q 189 224 159 190 Q 129 155 110 135 L 79 106 L 63 94 Q 57 88 57 84 L 57 83 Q 59 81 62 81 Q 64 81 67 82 L 84 89 Q 101 96 129 115 Q 159 134 188 160 Q 218 186 229 200 Q 239 213 245 220 L 259 237 L 283 268 Z"></path>
      </clipPath>
      <path clip-path="url(#make-me-a-hanzi-clip-1)" d="M 112 414 L 125 407 L 165 404 L 333 455 L 348 454 L 366 434 L 295 326 L 202 204 L 138 140 L 60 84" fill="none" id="make-me-a-hanzi-animation-1" stroke-dasharray="870 1740" stroke-linecap="round"></path>
    
      <clipPath id="make-me-a-hanzi-clip-2">
        <path d="M 308 236 L 301 247 Q 297 254 292 258 Q 287 264 283 268 C 263 290 257 267 259 237 L 260 219 L 261 195 L 261 166 L 257 93 Q 257 84 253 61 L 248 35 Q 245 19 241 6 Q 237 -8 237 -13 L 237 -24 L 246 -50 Q 253 -70 259 -78 Q 264 -86 269 -86 Q 275 -86 281 -77 Q 287 -68 291 -54 L 297 -31 Q 299 -23 299 -14 L 297 38 L 300 164 Q 300 173 301 188 Q 303 202 304 206 Q 305 210 307 215 C 312 230 312 230 308 236 Z"></path>
      </clipPath>
      <path clip-path="url(#make-me-a-hanzi-clip-2)" d="M 283 259 L 279 109 L 268 -14 L 270 -75" fill="none" id="make-me-a-hanzi-animation-2" stroke-dasharray="463 926" stroke-linecap="round"></path>
    
      <clipPath id="make-me-a-hanzi-clip-3">
        <path d="M 325 232 L 351 247 L 383 266 Q 395 274 400 276 L 411 279 Q 415 281 417 284 L 417 285 Q 417 290 412 298 Q 407 307 400 314 Q 393 320 386 324 Q 379 329 375 329 Q 371 328 369 327 Q 367 326 365 318 Q 363 310 359 304 Q 356 297 345 281 L 329 260 L 315 244 Q 313 241 309 236 C 290 212 299 217 325 232 Z"></path>
      </clipPath>
      <path clip-path="url(#make-me-a-hanzi-clip-3)" d="M 412 285 L 383 295 L 328 243 L 314 239" fill="none" id="make-me-a-hanzi-animation-3" stroke-dasharray="249 498" stroke-linecap="round"></path>
    
      <clipPath id="make-me-a-hanzi-clip-4">
        <path d="M 307 215 L 322 200 Q 327 195 341 179 Q 356 164 365 156 Q 374 149 380 149 L 382 149 Q 390 149 396 156 Q 401 162 401 174 Q 401 186 391 198 Q 382 210 369 216 Q 357 223 345 226 Q 334 230 325 232 L 309 236 L 308 236 C 281 241 286 236 307 215 Z"></path>
      </clipPath>
      <path clip-path="url(#make-me-a-hanzi-clip-4)" d="M 309 231 L 369 187 L 381 167" fill="none" id="make-me-a-hanzi-animation-4" stroke-dasharray="226 452" stroke-linecap="round"></path>
    
      <clipPath id="make-me-a-hanzi-clip-5">
        <path d="M 593 366 L 595 377 L 599 412 L 595 492 L 597 516 L 592 604 C 591 628 591 628 578 631 L 549 637 Q 535 640 529 640 Q 520 639 517 634 Q 514 631 514 628 Q 514 627 515 625 Q 516 620 521 614 Q 525 606 532 588 Q 538 568 540 549 L 554 412 Q 557 386 561 378 Q 565 370 571 362 C 588 338 588 338 593 366 Z"></path>
      </clipPath>
      <path clip-path="url(#make-me-a-hanzi-clip-5)" d="M 521 629 L 551 611 L 562 595 L 578 385 L 586 373" fill="none" id="make-me-a-hanzi-animation-5" stroke-dasharray="407 814" stroke-linecap="round"></path>
    
      <clipPath id="make-me-a-hanzi-clip-6">
        <path d="M 727 393 L 737 377 Q 739 371 750 371 L 752 371 Q 762 371 770 381 Q 779 392 787 427 L 813 532 Q 819 557 823 572 Q 827 587 831 592 Q 834 596 842 608 Q 849 618 849 624 Q 848 630 839 638 Q 831 646 819 652 Q 807 659 788 666 Q 771 673 762 673 L 760 673 Q 754 672 740 666 Q 725 660 716 658 Q 707 655 684 650 L 649 644 L 578 631 C 548 626 563 598 592 604 L 715 628 Q 717 628 727 630 Q 737 630 743 629 Q 748 628 751 622 Q 754 618 754 611 Q 754 607 753 602 L 748 532 L 745 508 L 732 421 C 728 392 726 394 727 393 Z"></path>
      </clipPath>
      <path clip-path="url(#make-me-a-hanzi-clip-6)" d="M 586 627 L 612 622 L 754 649 L 790 625 L 796 616 L 772 486 L 754 403 L 743 397" fill="none" id="make-me-a-hanzi-animation-6" stroke-dasharray="583 1166" stroke-linecap="round"></path>
    
      <clipPath id="make-me-a-hanzi-clip-7">
        <path d="M 595 492 L 609 490 Q 610 489 617 489 L 624 489 Q 637 490 645 491 Q 653 492 681 496 L 718 502 L 745 508 C 774 515 778 527 748 532 L 731 535 L 713 538 Q 703 538 688 536 Q 673 534 648 527 Q 623 520 615 518 Q 608 517 597 516 C 567 513 565 496 595 492 Z"></path>
      </clipPath>
      <path clip-path="url(#make-me-a-hanzi-clip-7)" d="M 603 497 L 610 504 L 731 520 L 743 527" fill="none" id="make-me-a-hanzi-animation-7" stroke-dasharray="274 548" stroke-linecap="round"></path>
    
      <clipPath id="make-me-a-hanzi-clip-8">
        <path d="M 595 377 L 641 382 L 703 390 Q 711 390 727 393 C 757 398 760 409 732 421 L 718 427 Q 715 428 706 428 Q 699 428 687 425 L 645 418 L 599 412 C 569 408 565 374 595 377 Z"></path>
      </clipPath>
      <path clip-path="url(#make-me-a-hanzi-clip-8)" d="M 602 382 L 624 399 L 678 404 L 721 416" fill="none" id="make-me-a-hanzi-animation-8" stroke-dasharray="255 510" stroke-linecap="round"></path>
    
      <clipPath id="make-me-a-hanzi-clip-9">
        <path d="M 581 274 L 594 289 L 607 304 Q 614 312 627 319 Q 640 326 640 330 L 640 331 Q 640 336 635 341 Q 629 348 619 354 Q 608 360 604 361 Q 600 363 593 366 C 574 375 574 375 571 362 L 567 343 Q 565 340 557 323 Q 548 307 538 294 Q 527 280 500 248 Q 472 216 460 204 Q 449 193 433 180 L 419 168 Q 413 163 411 159 L 411 157 Q 411 154 413 152 Q 414 151 416 151 Q 419 151 424 154 L 436 160 Q 452 167 471 180 Q 491 193 512 211 Q 533 228 541 235 Q 549 242 559 252 L 581 274 Z"></path>
      </clipPath>
      <path clip-path="url(#make-me-a-hanzi-clip-9)" d="M 634 331 L 595 333 L 518 239 L 459 185 L 416 156" fill="none" id="make-me-a-hanzi-animation-9" stroke-dasharray="420 840" stroke-linecap="round"></path>
    
      <clipPath id="make-me-a-hanzi-clip-10">
        <path d="M 559 252 L 579 242 Q 585 238 591 238 Q 598 238 609 241 L 655 252 L 677 256 Q 688 258 700 261 L 722 266 Q 729 268 744 270 L 769 276 L 797 280 L 837 282 Q 849 284 857 284 Q 865 284 868 282 Q 876 279 879 273 Q 882 270 882 262 Q 882 259 881 254 Q 879 242 877 218 Q 875 194 870 166 Q 865 137 857 108 Q 849 79 839 47 Q 829 14 817 -7 Q 805 -28 794 -38 Q 783 -48 773 -48 L 770 -48 Q 760 -48 743 -39 L 723 -29 L 707 -20 Q 703 -18 700 -18 Q 697 -18 695 -20 Q 694 -21 694 -23 Q 694 -27 700 -33 L 707 -42 Q 715 -50 728 -74 L 746 -106 Q 756 -124 761 -131 Q 766 -138 770 -139 Q 772 -140 776 -140 Q 782 -140 793 -136 Q 809 -128 827 -113 Q 845 -97 859 -79 Q 872 -60 885 -21 Q 899 18 908 60 Q 918 101 927 148 Q 935 194 941 210 Q 945 226 951 236 Q 956 244 963 254 Q 971 263 971 268 L 971 271 Q 971 279 961 288 Q 950 300 935 309 Q 921 318 909 324 Q 899 328 890 328 L 887 328 Q 883 327 869 321 Q 855 315 837 312 Q 820 308 775 302 L 701 289 Q 657 282 629 279 L 581 274 C 551 271 532 266 559 252 Z"></path>
      </clipPath>
      <path clip-path="url(#make-me-a-hanzi-clip-10)" d="M 567 255 L 858 301 L 896 298 L 923 268 L 869 34 L 850 -19 L 825 -61 L 786 -90 L 699 -23" fill="none" id="make-me-a-hanzi-animation-10" stroke-dasharray="1005 2010" stroke-linecap="round"></path>
    
      <clipPath id="make-me-a-hanzi-clip-11">
        <path d="M 609 241 L 607 230 Q 604 218 597 202 Q 589 186 571 166 Q 554 144 535 126 Q 515 108 497 94 L 463 71 L 449 62 Q 443 59 443 55 L 443 53 Q 444 50 447 50 Q 448 50 451 51 L 471 57 L 510 71 Q 529 78 555 96 Q 580 114 597 131 Q 615 148 629 170 Q 644 190 650 197 Q 655 203 665 210 Q 675 218 677 220 Q 678 222 678 223 Q 678 228 673 234 Q 667 243 655 252 C 632 271 614 271 609 241 Z"></path>
      </clipPath>
      <path clip-path="url(#make-me-a-hanzi-clip-11)" d="M 667 225 L 646 225 L 630 216 L 601 167 L 561 124 L 519 91 L 447 54" fill="none" id="make-me-a-hanzi-animation-11" stroke-dasharray="417 834" stroke-linecap="round"></path>
    
      <clipPath id="make-me-a-hanzi-clip-12">
        <path d="M 744 270 L 741 247 Q 739 235 727 207 Q 714 178 697 152 Q 681 124 649 88 Q 618 51 588 25 Q 559 -2 522 -27 Q 485 -53 465 -64 L 444 -75 L 431 -82 Q 426 -85 426 -89 L 426 -92 Q 427 -96 431 -96 Q 434 -96 439 -94 L 463 -89 Q 469 -88 490 -81 Q 511 -74 544 -57 Q 577 -40 621 -7 Q 665 26 692 58 Q 719 90 740 122 Q 761 155 775 180 Q 790 204 801 214 Q 812 222 813 226 Q 813 231 810 238 Q 806 246 800 252 Q 793 258 785 264 L 769 276 C 747 293 747 293 744 270 Z"></path>
      </clipPath>
      <path clip-path="url(#make-me-a-hanzi-clip-12)" d="M 752 263 L 764 252 L 772 232 L 722 142 L 669 70 L 624 25 L 563 -23 L 491 -66 L 431 -90" fill="none" id="make-me-a-hanzi-animation-12" stroke-dasharray="648 1296" stroke-linecap="round"></path>
    
  </g>
</svg>