<svg version="1.1" viewBox="0 0 1024 1024" xmlns="http://www.w3.org/2000/svg">
  <g stroke="lightgray" stroke-dasharray="1,1" stroke-width="1" transform="scale(4, 4)">
    <line x1="0" y1="0" x2="256" y2="256"></line>
    <line x1="256" y1="0" x2="0" y2="256"></line>
    <line x1="128" y1="0" x2="128" y2="256"></line>
    <line x1="0" y1="128" x2="256" y2="128"></line>
  </g>
<g transform="scale(0.92, -0.92) translate(60, -900)">
   <style type="text/css">
    @keyframes keyframes0 {
      from {
       stroke: blue;
       stroke-dashoffset: 391;
       stroke-width: 128;
       }
       56% {
       animation-timing-function: step-end;
       stroke: blue;
       stroke-dashoffset: 0;
       stroke-width: 128;
       }
       to {
       stroke: black;
       stroke-width: 1024;
       }
       }
       #make-me-a-hanzi-animation-0 {
         animation: keyframes0 0.568197s both;
         animation-delay: 0.000000s;
         animation-timing-function: linear;
       }
    @keyframes keyframes1 {
      from {
       stroke: blue;
       stroke-dashoffset: 986;
       stroke-width: 128;
       }
       76% {
       animation-timing-function: step-end;
       stroke: blue;
       stroke-dashoffset: 0;
       stroke-width: 128;
       }
       to {
       stroke: black;
       stroke-width: 1024;
       }
       }
       #make-me-a-hanzi-animation-1 {
         animation: keyframes1 1.052409s both;
         animation-delay: 0.568197s;
         animation-timing-function: linear;
       }
    @keyframes keyframes2 {
      from {
       stroke: blue;
       stroke-dashoffset: 664;
       stroke-width: 128;
       }
       68% {
       animation-timing-function: step-end;
       stroke: blue;
       stroke-dashoffset: 0;
       stroke-width: 128;
       }
       to {
       stroke: black;
       stroke-width: 1024;
       }
       }
       #make-me-a-hanzi-animation-2 {
         animation: keyframes2 0.790365s both;
         animation-delay: 1.620605s;
         animation-timing-function: linear;
       }
    @keyframes keyframes3 {
      from {
       stroke: blue;
       stroke-dashoffset: 368;
       stroke-width: 128;
       }
       55% {
       animation-timing-function: step-end;
       stroke: blue;
       stroke-dashoffset: 0;
       stroke-width: 128;
       }
       to {
       stroke: black;
       stroke-width: 1024;
       }
       }
       #make-me-a-hanzi-animation-3 {
         animation: keyframes3 0.549479s both;
         animation-delay: 2.410970s;
         animation-timing-function: linear;
       }
    @keyframes keyframes4 {
      from {
       stroke: blue;
       stroke-dashoffset: 360;
       stroke-width: 128;
       }
       54% {
       animation-timing-function: step-end;
       stroke: blue;
       stroke-dashoffset: 0;
       stroke-width: 128;
       }
       to {
       stroke: black;
       stroke-width: 1024;
       }
       }
       #make-me-a-hanzi-animation-4 {
         animation: keyframes4 0.542969s both;
         animation-delay: 2.960449s;
         animation-timing-function: linear;
       }
    @keyframes keyframes5 {
      from {
       stroke: blue;
       stroke-dashoffset: 474;
       stroke-width: 128;
       }
       61% {
       animation-timing-function: step-end;
       stroke: blue;
       stroke-dashoffset: 0;
       stroke-width: 128;
       }
       to {
       stroke: black;
       stroke-width: 1024;
       }
       }
       #make-me-a-hanzi-animation-5 {
         animation: keyframes5 0.635742s both;
         animation-delay: 3.503418s;
         animation-timing-function: linear;
       }
    @keyframes keyframes6 {
      from {
       stroke: blue;
       stroke-dashoffset: 733;
       stroke-width: 128;
       }
       70% {
       animation-timing-function: step-end;
       stroke: blue;
       stroke-dashoffset: 0;
       stroke-width: 128;
       }
       to {
       stroke: black;
       stroke-width: 1024;
       }
       }
       #make-me-a-hanzi-animation-6 {
         animation: keyframes6 0.846517s both;
         animation-delay: 4.139160s;
         animation-timing-function: linear;
       }
    @keyframes keyframes7 {
      from {
       stroke: blue;
       stroke-dashoffset: 816;
       stroke-width: 128;
       }
       73% {
       animation-timing-function: step-end;
       stroke: blue;
       stroke-dashoffset: 0;
       stroke-width: 128;
       }
       to {
       stroke: black;
       stroke-width: 1024;
       }
       }
       #make-me-a-hanzi-animation-7 {
         animation: keyframes7 0.914062s both;
         animation-delay: 4.985677s;
         animation-timing-function: linear;
       }
    @keyframes keyframes8 {
      from {
       stroke: blue;
       stroke-dashoffset: 449;
       stroke-width: 128;
       }
       59% {
       animation-timing-function: step-end;
       stroke: blue;
       stroke-dashoffset: 0;
       stroke-width: 128;
       }
       to {
       stroke: black;
       stroke-width: 1024;
       }
       }
       #make-me-a-hanzi-animation-8 {
         animation: keyframes8 0.615397s both;
         animation-delay: 5.899740s;
         animation-timing-function: linear;
       }
    @keyframes keyframes9 {
      from {
       stroke: blue;
       stroke-dashoffset: 391;
       stroke-width: 128;
       }
       56% {
       animation-timing-function: step-end;
       stroke: blue;
       stroke-dashoffset: 0;
       stroke-width: 128;
       }
       to {
       stroke: black;
       stroke-width: 1024;
       }
       }
       #make-me-a-hanzi-animation-9 {
         animation: keyframes9 0.568197s both;
         animation-delay: 6.515137s;
         animation-timing-function: linear;
       }
    @keyframes keyframes10 {
      from {
       stroke: blue;
       stroke-dashoffset: 647;
       stroke-width: 128;
       }
       68% {
       animation-timing-function: step-end;
       stroke: blue;
       stroke-dashoffset: 0;
       stroke-width: 128;
       }
       to {
       stroke: black;
       stroke-width: 1024;
       }
       }
       #make-me-a-hanzi-animation-10 {
         animation: keyframes10 0.776530s both;
         animation-delay: 7.083333s;
         animation-timing-function: linear;
       }
    @keyframes keyframes11 {
      from {
       stroke: blue;
       stroke-dashoffset: 563;
       stroke-width: 128;
       }
       65% {
       animation-timing-function: step-end;
       stroke: blue;
       stroke-dashoffset: 0;
       stroke-width: 128;
       }
       to {
       stroke: black;
       stroke-width: 1024;
       }
       }
       #make-me-a-hanzi-animation-11 {
         animation: keyframes11 0.708171s both;
         animation-delay: 7.859863s;
         animation-timing-function: linear;
       }
    @keyframes keyframes12 {
      from {
       stroke: blue;
       stroke-dashoffset: 841;
       stroke-width: 128;
       }
       73% {
       animation-timing-function: step-end;
       stroke: blue;
       stroke-dashoffset: 0;
       stroke-width: 128;
       }
       to {
       stroke: black;
       stroke-width: 1024;
       }
       }
       #make-me-a-hanzi-animation-12 {
         animation: keyframes12 0.934408s both;
         animation-delay: 8.568034s;
         animation-timing-function: linear;
       }
    @keyframes keyframes13 {
      from {
       stroke: blue;
       stroke-dashoffset: 806;
       stroke-width: 128;
       }
       72% {
       animation-timing-function: step-end;
       stroke: blue;
       stroke-dashoffset: 0;
       stroke-width: 128;
       }
       to {
       stroke: black;
       stroke-width: 1024;
       }
       }
       #make-me-a-hanzi-animation-13 {
         animation: keyframes13 0.905924s both;
         animation-delay: 9.502441s;
         animation-timing-function: linear;
       }
    @keyframes keyframes14 {
      from {
       stroke: blue;
       stroke-dashoffset: 784;
       stroke-width: 128;
       }
       72% {
       animation-timing-function: step-end;
       stroke: blue;
       stroke-dashoffset: 0;
       stroke-width: 128;
       }
       to {
       stroke: black;
       stroke-width: 1024;
       }
       }
       #make-me-a-hanzi-animation-14 {
         animation: keyframes14 0.888021s both;
         animation-delay: 10.408366s;
         animation-timing-function: linear;
       }
    @keyframes keyframes15 {
      from {
       stroke: blue;
       stroke-dashoffset: 907;
       stroke-width: 128;
       }
       75% {
       animation-timing-function: step-end;
       stroke: blue;
       stroke-dashoffset: 0;
       stroke-width: 128;
       }
       to {
       stroke: black;
       stroke-width: 1024;
       }
       }
       #make-me-a-hanzi-animation-15 {
         animation: keyframes15 0.988118s both;
         animation-delay: 11.296387s;
         animation-timing-function: linear;
       }
</style>
<path d="M 312.0 785.0 L 301.0 787.0 Q 273.0 793.0 270.0 792.0 Q 254.0 789.0 265.0 776.0 L 309.0 718.0 Q 329.0 694.0 337.0 689.0 Q 352.0 673.0 368.0 673.0 Q 381.0 675.0 390.0 684.0 Q 398.0 692.0 400.0 713.0 Q 399.0 749.0 373.0 761.0 Q 358.0 771.0 339.0 778.0 Q 320.0 784.0 312.0 785.0 Z" fill="lightgray"></path> 
<path d="M 272.0 395.0 L 330.0 484.0 L 350.0 508.0 L 371.0 529.0 Q 379.0 535.0 383.0 544.0 Q 383.0 558.0 357.0 575.0 Q 332.0 592.0 318.0 592.0 L 249.0 564.0 L 214.0 555.0 Q 135.0 537.0 116.0 537.0 L 76.0 533.0 Q 62.0 529.0 74.0 518.0 L 85.0 509.0 L 109.0 499.0 Q 125.0 493.0 129.0 493.0 Q 133.0 492.0 150.0 499.0 L 176.0 509.0 L 278.0 539.0 Q 288.0 544.0 294.0 543.0 Q 301.0 541.0 299.0 534.0 Q 299.0 527.0 292.0 520.0 L 230.0 421.0 Q 162.0 319.0 141.0 293.0 L 100.0 245.0 Q 98.0 245.0 93.0 239.0 L 66.0 207.0 L 46.0 190.0 Q 40.0 183.0 41.0 179.0 Q 41.0 170.0 55.0 177.0 L 74.0 187.0 Q 78.0 189.0 111.0 213.0 Q 144.0 236.0 179.0 276.0 L 211.0 314.0 L 249.0 363.0 L 272.0 395.0 Z" fill="lightgray"></path> 
<path d="M 285.0 29.0 L 288.0 42.0 Q 289.0 47.0 289.0 52.0 L 287.0 115.0 L 294.0 267.0 L 296.0 289.0 Q 296.0 300.0 299.0 315.0 L 305.0 336.0 L 303.0 352.0 Q 303.0 354.0 297.0 365.0 L 272.0 395.0 C 253.0 418.0 245.0 393.0 249.0 363.0 L 253.0 333.0 L 253.0 271.0 L 247.0 179.0 L 243.0 144.0 Q 240.0 117.0 236.0 106.0 L 225.0 70.0 Q 217.0 48.0 227.0 17.0 Q 237.0 -14.0 245.0 -25.0 Q 260.0 -40.0 268.0 -21.0 L 279.0 3.0 Q 282.0 8.0 285.0 29.0 Z" fill="lightgray"></path> 
<path d="M 322.0 330.0 L 347.0 346.0 L 410.0 379.0 L 414.0 387.0 Q 416.0 390.0 410.0 397.0 Q 402.0 411.0 391.0 418.0 Q 380.0 424.0 375.0 428.0 Q 370.0 431.0 359.0 427.0 L 350.0 403.0 Q 349.0 394.0 343.0 387.0 Q 332.0 370.0 330.0 368.0 L 305.0 336.0 C 287.0 312.0 297.0 314.0 322.0 330.0 Z" fill="lightgray"></path> 
<path d="M 299.0 315.0 L 333.0 274.0 L 358.0 247.0 Q 376.0 228.0 391.0 244.0 Q 406.0 259.0 389.0 287.0 Q 373.0 314.0 341.0 323.0 L 322.0 330.0 C 294.0 340.0 279.0 339.0 299.0 315.0 Z" fill="lightgray"></path> 
<path d="M 498.0 665.0 L 487.0 670.0 Q 478.0 674.0 465.0 675.0 Q 453.0 675.0 450.0 672.0 Q 448.0 667.0 449.0 663.0 Q 450.0 659.0 460.0 649.0 Q 470.0 638.0 471.0 630.0 Q 475.0 626.0 476.0 611.0 L 481.0 583.0 L 485.0 551.0 L 491.0 515.0 L 495.0 475.0 Q 497.0 468.0 502.0 462.0 Q 504.0 456.0 516.0 453.0 Q 521.0 452.0 525.0 458.0 L 529.0 470.0 L 527.0 500.0 L 521.0 555.0 L 517.0 588.0 L 510.0 639.0 C 507.0 661.0 507.0 661.0 498.0 665.0 Z" fill="lightgray"></path> 
<path d="M 806.0 619.0 L 815.0 638.0 Q 816.0 643.0 824.0 651.0 Q 832.0 659.0 833.0 663.0 Q 834.0 667.0 826.0 677.0 Q 818.0 686.0 808.0 693.0 Q 794.0 705.0 783.0 708.0 Q 772.0 711.0 756.0 707.0 Q 740.0 702.0 719.0 698.0 L 690.0 692.0 L 660.0 688.0 L 603.0 678.0 L 498.0 665.0 C 468.0 661.0 480.0 635.0 510.0 639.0 L 540.0 643.0 Q 569.0 642.0 603.0 651.0 L 660.0 659.0 L 707.0 663.0 L 723.0 663.0 Q 733.0 663.0 739.0 665.0 Q 753.0 665.0 758.0 660.0 Q 763.0 654.0 758.0 630.0 L 752.0 614.0 L 746.0 578.0 L 734.0 534.0 Q 733.0 534.0 727.0 516.0 C 720.0 496.0 720.0 496.0 729.0 488.0 L 741.0 478.0 Q 740.0 473.0 748.0 477.0 Q 763.0 483.0 774.0 514.0 L 800.0 583.0 L 806.0 619.0 Z" fill="lightgray"></path> 
<path d="M 857.0 586.0 L 938.0 588.0 Q 956.0 588.0 957.0 596.0 Q 958.0 604.0 942.0 618.0 Q 927.0 632.0 904.0 634.0 Q 882.0 635.0 859.0 630.0 Q 837.0 624.0 829.0 623.0 L 806.0 619.0 L 752.0 614.0 L 658.0 603.0 L 603.0 597.0 L 517.0 588.0 L 481.0 583.0 L 459.0 581.0 Q 443.0 581.0 433.0 579.0 L 398.0 578.0 Q 388.0 576.0 385.0 572.0 Q 383.0 565.0 396.0 555.0 Q 417.0 538.0 461.0 545.0 L 485.0 551.0 L 521.0 555.0 L 603.0 567.0 L 656.0 574.0 L 746.0 578.0 L 800.0 583.0 L 857.0 586.0 Z" fill="lightgray"></path> 
<path d="M 529.0 470.0 L 603.0 474.0 L 652.0 480.0 L 729.0 488.0 C 759.0 491.0 756.0 509.0 727.0 516.0 L 709.0 520.0 Q 692.0 523.0 654.0 512.0 L 603.0 508.0 L 527.0 500.0 C 497.0 497.0 499.0 468.0 529.0 470.0 Z" fill="lightgray"></path> 
<path d="M 480.0 418.0 L 441.0 428.0 Q 422.0 428.0 432.0 411.0 L 446.0 397.0 Q 451.0 391.0 452.0 382.0 L 467.0 313.0 Q 471.0 306.0 474.0 299.0 Q 483.0 284.0 493.0 298.0 Q 497.0 304.0 498.0 308.0 L 495.0 336.0 L 488.0 397.0 C 486.0 417.0 486.0 417.0 480.0 418.0 Z" fill="lightgray"></path> 
<path d="M 603.0 435.0 L 480.0 418.0 C 450.0 414.0 458.0 393.0 488.0 397.0 L 603.0 411.0 L 652.0 414.0 L 756.0 422.0 Q 765.0 423.0 770.0 418.0 Q 774.0 413.0 768.0 391.0 L 758.0 367.0 C 746.0 339.0 790.0 331.0 804.0 357.0 L 811.0 370.0 L 824.0 389.0 Q 834.0 405.0 842.0 411.0 Q 850.0 416.0 852.0 418.0 Q 854.0 424.0 847.0 431.0 Q 844.0 438.0 830.0 445.0 L 803.0 456.0 Q 785.0 462.0 782.0 461.0 Q 780.0 459.0 772.0 458.0 Q 764.0 455.0 744.0 453.0 L 713.0 447.0 L 652.0 439.0 L 603.0 435.0 Z" fill="lightgray"></path> 
<path d="M 498.0 308.0 L 605.0 317.0 L 646.0 320.0 L 801.0 333.0 Q 822.0 335.0 813.0 347.0 L 804.0 357.0 C 790.0 372.0 788.0 372.0 758.0 367.0 L 650.0 350.0 L 603.0 345.0 L 495.0 336.0 C 465.0 334.0 468.0 305.0 498.0 308.0 Z" fill="lightgray"></path> 
<path d="M 660.0 688.0 L 662.0 709.0 Q 661.0 748.0 679.0 776.0 Q 686.0 785.0 681.0 798.0 Q 679.0 805.0 648.0 820.0 Q 618.0 835.0 601.0 834.0 Q 584.0 832.0 581.0 828.0 Q 579.0 822.0 583.0 813.0 L 593.0 790.0 Q 600.0 767.0 602.0 731.0 L 603.0 678.0 L 603.0 651.0 L 603.0 597.0 L 603.0 567.0 L 603.0 508.0 L 603.0 474.0 L 603.0 435.0 L 603.0 411.0 L 603.0 345.0 L 605.0 317.0 L 607.0 296.0 Q 609.0 267.0 612.0 261.0 Q 615.0 255.0 619.0 251.0 Q 622.0 250.0 627.0 256.0 Q 632.0 261.0 635.0 270.0 Q 639.0 278.0 646.0 320.0 L 650.0 350.0 L 652.0 414.0 L 652.0 439.0 L 652.0 480.0 L 654.0 512.0 L 656.0 574.0 L 658.0 603.0 L 660.0 659.0 L 660.0 688.0 Z" fill="lightgray"></path> 
<path d="M 577.0 233.0 L 586.0 260.0 L 592.0 272.0 Q 594.0 276.0 588.0 284.0 Q 582.0 295.0 565.0 301.0 L 543.0 304.0 Q 531.0 304.0 531.0 292.0 L 531.0 279.0 Q 531.0 268.0 530.0 261.0 L 523.0 226.0 L 516.0 194.0 L 506.0 170.0 Q 502.0 161.0 497.0 156.0 Q 493.0 151.0 490.0 146.0 Q 487.0 140.0 490.0 127.0 Q 499.0 119.0 505.0 116.0 L 562.0 100.0 L 626.0 80.0 L 666.0 58.0 L 683.0 51.0 Q 703.0 43.0 739.0 17.0 L 798.0 -25.0 Q 823.0 -43.0 831.0 -46.0 Q 864.0 -59.0 868.0 -26.0 Q 871.0 -7.0 861.0 8.0 Q 852.0 23.0 825.0 45.0 Q 798.0 67.0 703.0 97.0 L 658.0 110.0 L 573.0 127.0 Q 564.0 128.0 535.0 135.0 L 547.0 154.0 Q 551.0 159.0 557.0 175.0 L 566.0 201.0 L 577.0 233.0 Z" fill="lightgray"></path> 
<path d="M 709.0 294.0 L 702.0 292.0 Q 699.0 289.0 698.0 286.0 Q 697.0 283.0 701.0 270.0 Q 706.0 256.0 707.0 242.0 L 706.0 207.0 L 696.0 175.0 Q 689.0 153.0 677.0 136.0 L 658.0 110.0 L 626.0 80.0 L 586.0 54.0 Q 569.0 40.0 522.0 23.0 Q 476.0 5.0 441.0 -6.0 L 393.0 -20.0 Q 384.0 -23.0 385.0 -28.0 Q 387.0 -33.0 399.0 -33.0 L 444.0 -29.0 Q 524.0 -21.0 599.0 15.0 Q 627.0 30.0 634.0 36.0 L 666.0 58.0 L 703.0 97.0 L 724.0 127.0 Q 731.0 138.0 744.0 165.0 L 766.0 210.0 L 775.0 246.0 L 776.0 255.0 Q 778.0 260.0 767.0 267.0 L 749.0 278.0 L 724.0 289.0 Q 710.0 294.0 709.0 294.0 Z" fill="lightgray"></path> 
<path d="M 707.0 242.0 L 577.0 233.0 L 523.0 226.0 L 467.0 223.0 L 341.0 213.0 Q 328.0 213.0 322.0 211.0 Q 319.0 207.0 319.0 204.0 Q 316.0 197.0 344.0 182.0 Q 372.0 171.0 379.0 171.0 Q 387.0 171.0 458.0 185.0 L 486.0 191.0 L 516.0 194.0 L 566.0 201.0 L 706.0 207.0 L 766.0 210.0 L 843.0 212.0 L 928.0 211.0 L 963.0 212.0 Q 983.0 212.0 983.0 219.0 Q 984.0 225.0 980.0 231.0 Q 977.0 238.0 962.0 245.0 Q 934.0 261.0 906.0 261.0 L 875.0 257.0 Q 861.0 253.0 835.0 252.0 L 775.0 246.0 L 707.0 242.0 Z" fill="lightgray"></path> 
      <clipPath id="make-me-a-hanzi-clip-0">
      <path d="M 312.0 785.0 L 301.0 787.0 Q 273.0 793.0 270.0 792.0 Q 254.0 789.0 265.0 776.0 L 309.0 718.0 Q 329.0 694.0 337.0 689.0 Q 352.0 673.0 368.0 673.0 Q 381.0 675.0 390.0 684.0 Q 398.0 692.0 400.0 713.0 Q 399.0 749.0 373.0 761.0 Q 358.0 771.0 339.0 778.0 Q 320.0 784.0 312.0 785.0 Z" fill="lightgray"></path>
      </clipPath>
      <path clip-path="url(#make-me-a-hanzi-clip-0)" d="M 269.0 784.0 L 348.0 732.0 L 363.0 717.0 L 367.0 698.0 " fill="none" id="make-me-a-hanzi-animation-0" stroke-dasharray="263 526" stroke-linecap="round"></path>

      <clipPath id="make-me-a-hanzi-clip-1">
      <path d="M 272.0 395.0 L 330.0 484.0 L 350.0 508.0 L 371.0 529.0 Q 379.0 535.0 383.0 544.0 Q 383.0 558.0 357.0 575.0 Q 332.0 592.0 318.0 592.0 L 249.0 564.0 L 214.0 555.0 Q 135.0 537.0 116.0 537.0 L 76.0 533.0 Q 62.0 529.0 74.0 518.0 L 85.0 509.0 L 109.0 499.0 Q 125.0 493.0 129.0 493.0 Q 133.0 492.0 150.0 499.0 L 176.0 509.0 L 278.0 539.0 Q 288.0 544.0 294.0 543.0 Q 301.0 541.0 299.0 534.0 Q 299.0 527.0 292.0 520.0 L 230.0 421.0 Q 162.0 319.0 141.0 293.0 L 100.0 245.0 Q 98.0 245.0 93.0 239.0 L 66.0 207.0 L 46.0 190.0 Q 40.0 183.0 41.0 179.0 Q 41.0 170.0 55.0 177.0 L 74.0 187.0 Q 78.0 189.0 111.0 213.0 Q 144.0 236.0 179.0 276.0 L 211.0 314.0 L 249.0 363.0 L 272.0 395.0 Z" fill="lightgray"></path>
      </clipPath>
      <path clip-path="url(#make-me-a-hanzi-clip-1)" d="M 84.0 524.0 L 136.0 516.0 L 290.0 562.0 L 322.0 558.0 L 335.0 545.0 L 241.0 393.0 L 159.0 282.0 L 95.0 216.0 L 49.0 182.0 " fill="none" id="make-me-a-hanzi-animation-1" stroke-dasharray="858 1716" stroke-linecap="round"></path>

      <clipPath id="make-me-a-hanzi-clip-2">
      <path d="M 285.0 29.0 L 288.0 42.0 Q 289.0 47.0 289.0 52.0 L 287.0 115.0 L 294.0 267.0 L 296.0 289.0 Q 296.0 300.0 299.0 315.0 L 305.0 336.0 L 303.0 352.0 Q 303.0 354.0 297.0 365.0 L 272.0 395.0 C 253.0 418.0 245.0 393.0 249.0 363.0 L 253.0 333.0 L 253.0 271.0 L 247.0 179.0 L 243.0 144.0 Q 240.0 117.0 236.0 106.0 L 225.0 70.0 Q 217.0 48.0 227.0 17.0 Q 237.0 -14.0 245.0 -25.0 Q 260.0 -40.0 268.0 -21.0 L 279.0 3.0 Q 282.0 8.0 285.0 29.0 Z" fill="lightgray"></path>
      </clipPath>
      <path clip-path="url(#make-me-a-hanzi-clip-2)" d="M 272.0 387.0 L 279.0 337.0 L 255.0 50.0 L 256.0 -20.0 " fill="none" id="make-me-a-hanzi-animation-2" stroke-dasharray="536 1072" stroke-linecap="round"></path>

      <clipPath id="make-me-a-hanzi-clip-3">
      <path d="M 322.0 330.0 L 347.0 346.0 L 410.0 379.0 L 414.0 387.0 Q 416.0 390.0 410.0 397.0 Q 402.0 411.0 391.0 418.0 Q 380.0 424.0 375.0 428.0 Q 370.0 431.0 359.0 427.0 L 350.0 403.0 Q 349.0 394.0 343.0 387.0 Q 332.0 370.0 330.0 368.0 L 305.0 336.0 C 287.0 312.0 297.0 314.0 322.0 330.0 Z" fill="lightgray"></path>
      </clipPath>
      <path clip-path="url(#make-me-a-hanzi-clip-3)" d="M 366.0 417.0 L 375.0 392.0 L 368.0 382.0 L 321.0 340.0 L 311.0 340.0 " fill="none" id="make-me-a-hanzi-animation-3" stroke-dasharray="240 480" stroke-linecap="round"></path>

      <clipPath id="make-me-a-hanzi-clip-4">
      <path d="M 299.0 315.0 L 333.0 274.0 L 358.0 247.0 Q 376.0 228.0 391.0 244.0 Q 406.0 259.0 389.0 287.0 Q 373.0 314.0 341.0 323.0 L 322.0 330.0 C 294.0 340.0 279.0 339.0 299.0 315.0 Z" fill="lightgray"></path>
      </clipPath>
      <path clip-path="url(#make-me-a-hanzi-clip-4)" d="M 308.0 330.0 L 314.0 318.0 L 357.0 286.0 L 377.0 255.0 " fill="none" id="make-me-a-hanzi-animation-4" stroke-dasharray="232 464" stroke-linecap="round"></path>

      <clipPath id="make-me-a-hanzi-clip-5">
      <path d="M 498.0 665.0 L 487.0 670.0 Q 478.0 674.0 465.0 675.0 Q 453.0 675.0 450.0 672.0 Q 448.0 667.0 449.0 663.0 Q 450.0 659.0 460.0 649.0 Q 470.0 638.0 471.0 630.0 Q 475.0 626.0 476.0 611.0 L 481.0 583.0 L 485.0 551.0 L 491.0 515.0 L 495.0 475.0 Q 497.0 468.0 502.0 462.0 Q 504.0 456.0 516.0 453.0 Q 521.0 452.0 525.0 458.0 L 529.0 470.0 L 527.0 500.0 L 521.0 555.0 L 517.0 588.0 L 510.0 639.0 C 507.0 661.0 507.0 661.0 498.0 665.0 Z" fill="lightgray"></path>
      </clipPath>
      <path clip-path="url(#make-me-a-hanzi-clip-5)" d="M 459.0 666.0 L 484.0 650.0 L 493.0 630.0 L 515.0 465.0 " fill="none" id="make-me-a-hanzi-animation-5" stroke-dasharray="346 692" stroke-linecap="round"></path>

      <clipPath id="make-me-a-hanzi-clip-6">
      <path d="M 806.0 619.0 L 815.0 638.0 Q 816.0 643.0 824.0 651.0 Q 832.0 659.0 833.0 663.0 Q 834.0 667.0 826.0 677.0 Q 818.0 686.0 808.0 693.0 Q 794.0 705.0 783.0 708.0 Q 772.0 711.0 756.0 707.0 Q 740.0 702.0 719.0 698.0 L 690.0 692.0 L 660.0 688.0 L 603.0 678.0 L 498.0 665.0 C 468.0 661.0 480.0 635.0 510.0 639.0 L 540.0 643.0 Q 569.0 642.0 603.0 651.0 L 660.0 659.0 L 707.0 663.0 L 723.0 663.0 Q 733.0 663.0 739.0 665.0 Q 753.0 665.0 758.0 660.0 Q 763.0 654.0 758.0 630.0 L 752.0 614.0 L 746.0 578.0 L 734.0 534.0 Q 733.0 534.0 727.0 516.0 C 720.0 496.0 720.0 496.0 729.0 488.0 L 741.0 478.0 Q 740.0 473.0 748.0 477.0 Q 763.0 483.0 774.0 514.0 L 800.0 583.0 L 806.0 619.0 Z" fill="lightgray"></path>
      </clipPath>
      <path clip-path="url(#make-me-a-hanzi-clip-6)" d="M 506.0 661.0 L 531.0 654.0 L 715.0 681.0 L 756.0 685.0 L 778.0 680.0 L 792.0 662.0 L 746.0 490.0 " fill="none" id="make-me-a-hanzi-animation-6" stroke-dasharray="605 1210" stroke-linecap="round"></path>

      <clipPath id="make-me-a-hanzi-clip-7">
      <path d="M 857.0 586.0 L 938.0 588.0 Q 956.0 588.0 957.0 596.0 Q 958.0 604.0 942.0 618.0 Q 927.0 632.0 904.0 634.0 Q 882.0 635.0 859.0 630.0 Q 837.0 624.0 829.0 623.0 L 806.0 619.0 L 752.0 614.0 L 658.0 603.0 L 603.0 597.0 L 517.0 588.0 L 481.0 583.0 L 459.0 581.0 Q 443.0 581.0 433.0 579.0 L 398.0 578.0 Q 388.0 576.0 385.0 572.0 Q 383.0 565.0 396.0 555.0 Q 417.0 538.0 461.0 545.0 L 485.0 551.0 L 521.0 555.0 L 603.0 567.0 L 656.0 574.0 L 746.0 578.0 L 800.0 583.0 L 857.0 586.0 Z" fill="lightgray"></path>
      </clipPath>
      <path clip-path="url(#make-me-a-hanzi-clip-7)" d="M 394.0 570.0 L 416.0 562.0 L 463.0 563.0 L 653.0 589.0 L 884.0 611.0 L 917.0 609.0 L 948.0 598.0 " fill="none" id="make-me-a-hanzi-animation-7" stroke-dasharray="688 1376" stroke-linecap="round"></path>

      <clipPath id="make-me-a-hanzi-clip-8">
      <path d="M 529.0 470.0 L 603.0 474.0 L 652.0 480.0 L 729.0 488.0 C 759.0 491.0 756.0 509.0 727.0 516.0 L 709.0 520.0 Q 692.0 523.0 654.0 512.0 L 603.0 508.0 L 527.0 500.0 C 497.0 497.0 499.0 468.0 529.0 470.0 Z" fill="lightgray"></path>
      </clipPath>
      <path clip-path="url(#make-me-a-hanzi-clip-8)" d="M 536.0 478.0 L 543.0 486.0 L 682.0 502.0 L 710.0 503.0 L 721.0 494.0 " fill="none" id="make-me-a-hanzi-animation-8" stroke-dasharray="321 642" stroke-linecap="round"></path>

      <clipPath id="make-me-a-hanzi-clip-9">
      <path d="M 480.0 418.0 L 441.0 428.0 Q 422.0 428.0 432.0 411.0 L 446.0 397.0 Q 451.0 391.0 452.0 382.0 L 467.0 313.0 Q 471.0 306.0 474.0 299.0 Q 483.0 284.0 493.0 298.0 Q 497.0 304.0 498.0 308.0 L 495.0 336.0 L 488.0 397.0 C 486.0 417.0 486.0 417.0 480.0 418.0 Z" fill="lightgray"></path>
      </clipPath>
      <path clip-path="url(#make-me-a-hanzi-clip-9)" d="M 438.0 419.0 L 469.0 396.0 L 484.0 301.0 " fill="none" id="make-me-a-hanzi-animation-9" stroke-dasharray="263 526" stroke-linecap="round"></path>

      <clipPath id="make-me-a-hanzi-clip-10">
      <path d="M 603.0 435.0 L 480.0 418.0 C 450.0 414.0 458.0 393.0 488.0 397.0 L 603.0 411.0 L 652.0 414.0 L 756.0 422.0 Q 765.0 423.0 770.0 418.0 Q 774.0 413.0 768.0 391.0 L 758.0 367.0 C 746.0 339.0 790.0 331.0 804.0 357.0 L 811.0 370.0 L 824.0 389.0 Q 834.0 405.0 842.0 411.0 Q 850.0 416.0 852.0 418.0 Q 854.0 424.0 847.0 431.0 Q 844.0 438.0 830.0 445.0 L 803.0 456.0 Q 785.0 462.0 782.0 461.0 Q 780.0 459.0 772.0 458.0 Q 764.0 455.0 744.0 453.0 L 713.0 447.0 L 652.0 439.0 L 603.0 435.0 Z" fill="lightgray"></path>
      </clipPath>
      <path clip-path="url(#make-me-a-hanzi-clip-10)" d="M 488.0 415.0 L 496.0 408.0 L 754.0 439.0 L 783.0 437.0 L 799.0 426.0 L 803.0 414.0 L 791.0 385.0 L 767.0 370.0 " fill="none" id="make-me-a-hanzi-animation-10" stroke-dasharray="519 1038" stroke-linecap="round"></path>

      <clipPath id="make-me-a-hanzi-clip-11">
      <path d="M 498.0 308.0 L 605.0 317.0 L 646.0 320.0 L 801.0 333.0 Q 822.0 335.0 813.0 347.0 L 804.0 357.0 C 790.0 372.0 788.0 372.0 758.0 367.0 L 650.0 350.0 L 603.0 345.0 L 495.0 336.0 C 465.0 334.0 468.0 305.0 498.0 308.0 Z" fill="lightgray"></path>
      </clipPath>
      <path clip-path="url(#make-me-a-hanzi-clip-11)" d="M 503.0 330.0 L 511.0 323.0 L 753.0 348.0 L 806.0 341.0 " fill="none" id="make-me-a-hanzi-animation-11" stroke-dasharray="435 870" stroke-linecap="round"></path>

      <clipPath id="make-me-a-hanzi-clip-12">
      <path d="M 660.0 688.0 L 662.0 709.0 Q 661.0 748.0 679.0 776.0 Q 686.0 785.0 681.0 798.0 Q 679.0 805.0 648.0 820.0 Q 618.0 835.0 601.0 834.0 Q 584.0 832.0 581.0 828.0 Q 579.0 822.0 583.0 813.0 L 593.0 790.0 Q 600.0 767.0 602.0 731.0 L 603.0 678.0 L 603.0 651.0 L 603.0 597.0 L 603.0 567.0 L 603.0 508.0 L 603.0 474.0 L 603.0 435.0 L 603.0 411.0 L 603.0 345.0 L 605.0 317.0 L 607.0 296.0 Q 609.0 267.0 612.0 261.0 Q 615.0 255.0 619.0 251.0 Q 622.0 250.0 627.0 256.0 Q 632.0 261.0 635.0 270.0 Q 639.0 278.0 646.0 320.0 L 650.0 350.0 L 652.0 414.0 L 652.0 439.0 L 652.0 480.0 L 654.0 512.0 L 656.0 574.0 L 658.0 603.0 L 660.0 659.0 L 660.0 688.0 Z" fill="lightgray"></path>
      </clipPath>
      <path clip-path="url(#make-me-a-hanzi-clip-12)" d="M 589.0 821.0 L 611.0 810.0 L 636.0 778.0 L 627.0 345.0 L 620.0 259.0 " fill="none" id="make-me-a-hanzi-animation-12" stroke-dasharray="713 1426" stroke-linecap="round"></path>

      <clipPath id="make-me-a-hanzi-clip-13">
      <path d="M 577.0 233.0 L 586.0 260.0 L 592.0 272.0 Q 594.0 276.0 588.0 284.0 Q 582.0 295.0 565.0 301.0 L 543.0 304.0 Q 531.0 304.0 531.0 292.0 L 531.0 279.0 Q 531.0 268.0 530.0 261.0 L 523.0 226.0 L 516.0 194.0 L 506.0 170.0 Q 502.0 161.0 497.0 156.0 Q 493.0 151.0 490.0 146.0 Q 487.0 140.0 490.0 127.0 Q 499.0 119.0 505.0 116.0 L 562.0 100.0 L 626.0 80.0 L 666.0 58.0 L 683.0 51.0 Q 703.0 43.0 739.0 17.0 L 798.0 -25.0 Q 823.0 -43.0 831.0 -46.0 Q 864.0 -59.0 868.0 -26.0 Q 871.0 -7.0 861.0 8.0 Q 852.0 23.0 825.0 45.0 Q 798.0 67.0 703.0 97.0 L 658.0 110.0 L 573.0 127.0 Q 564.0 128.0 535.0 135.0 L 547.0 154.0 Q 551.0 159.0 557.0 175.0 L 566.0 201.0 L 577.0 233.0 Z" fill="lightgray"></path>
      </clipPath>
      <path clip-path="url(#make-me-a-hanzi-clip-13)" d="M 542.0 294.0 L 560.0 272.0 L 534.0 177.0 L 516.0 146.0 L 517.0 131.0 L 530.0 122.0 L 633.0 97.0 L 724.0 62.0 L 808.0 13.0 L 846.0 -28.0 " fill="none" id="make-me-a-hanzi-animation-13" stroke-dasharray="678 1356" stroke-linecap="round"></path>

      <clipPath id="make-me-a-hanzi-clip-14">
      <path d="M 709.0 294.0 L 702.0 292.0 Q 699.0 289.0 698.0 286.0 Q 697.0 283.0 701.0 270.0 Q 706.0 256.0 707.0 242.0 L 706.0 207.0 L 696.0 175.0 Q 689.0 153.0 677.0 136.0 L 658.0 110.0 L 626.0 80.0 L 586.0 54.0 Q 569.0 40.0 522.0 23.0 Q 476.0 5.0 441.0 -6.0 L 393.0 -20.0 Q 384.0 -23.0 385.0 -28.0 Q 387.0 -33.0 399.0 -33.0 L 444.0 -29.0 Q 524.0 -21.0 599.0 15.0 Q 627.0 30.0 634.0 36.0 L 666.0 58.0 L 703.0 97.0 L 724.0 127.0 Q 731.0 138.0 744.0 165.0 L 766.0 210.0 L 775.0 246.0 L 776.0 255.0 Q 778.0 260.0 767.0 267.0 L 749.0 278.0 L 724.0 289.0 Q 710.0 294.0 709.0 294.0 Z" fill="lightgray"></path>
      </clipPath>
      <path clip-path="url(#make-me-a-hanzi-clip-14)" d="M 708.0 284.0 L 740.0 244.0 L 737.0 217.0 L 703.0 134.0 L 665.0 87.0 L 598.0 36.0 L 545.0 11.0 L 393.0 -28.0 " fill="none" id="make-me-a-hanzi-animation-14" stroke-dasharray="656 1312" stroke-linecap="round"></path>

      <clipPath id="make-me-a-hanzi-clip-15">
      <path d="M 707.0 242.0 L 577.0 233.0 L 523.0 226.0 L 467.0 223.0 L 341.0 213.0 Q 328.0 213.0 322.0 211.0 Q 319.0 207.0 319.0 204.0 Q 316.0 197.0 344.0 182.0 Q 372.0 171.0 379.0 171.0 Q 387.0 171.0 458.0 185.0 L 486.0 191.0 L 516.0 194.0 L 566.0 201.0 L 706.0 207.0 L 766.0 210.0 L 843.0 212.0 L 928.0 211.0 L 963.0 212.0 Q 983.0 212.0 983.0 219.0 Q 984.0 225.0 980.0 231.0 Q 977.0 238.0 962.0 245.0 Q 934.0 261.0 906.0 261.0 L 875.0 257.0 Q 861.0 253.0 835.0 252.0 L 775.0 246.0 L 707.0 242.0 Z" fill="lightgray"></path>
      </clipPath>
      <path clip-path="url(#make-me-a-hanzi-clip-15)" d="M 327.0 205.0 L 384.0 194.0 L 572.0 217.0 L 901.0 236.0 L 974.0 223.0 " fill="none" id="make-me-a-hanzi-animation-15" stroke-dasharray="779 1558" stroke-linecap="round"></path>

</g>
</svg>
