<svg version="1.1" viewBox="0 0 1024 1024" xmlns="http://www.w3.org/2000/svg">
  <g stroke="lightgray" stroke-dasharray="1,1" stroke-width="1" transform="scale(4, 4)">
    <line x1="0" y1="0" x2="256" y2="256"></line>
    <line x1="256" y1="0" x2="0" y2="256"></line>
    <line x1="128" y1="0" x2="128" y2="256"></line>
    <line x1="0" y1="128" x2="256" y2="128"></line>
  </g>
<g transform="scale(0.92, -0.92) translate(60, -900)">
   <style type="text/css">
    @keyframes keyframes0 {
      from {
       stroke: blue;
       stroke-dashoffset: 405;
       stroke-width: 128;
       }
       57% {
       animation-timing-function: step-end;
       stroke: blue;
       stroke-dashoffset: 0;
       stroke-width: 128;
       }
       to {
       stroke: black;
       stroke-width: 1024;
       }
       }
       #make-me-a-hanzi-animation-0 {
         animation: keyframes0 0.579590s both;
         animation-delay: 0.000000s;
         animation-timing-function: linear;
       }
    @keyframes keyframes1 {
      from {
       stroke: blue;
       stroke-dashoffset: 625;
       stroke-width: 128;
       }
       67% {
       animation-timing-function: step-end;
       stroke: blue;
       stroke-dashoffset: 0;
       stroke-width: 128;
       }
       to {
       stroke: black;
       stroke-width: 1024;
       }
       }
       #make-me-a-hanzi-animation-1 {
         animation: keyframes1 0.758626s both;
         animation-delay: 0.579590s;
         animation-timing-function: linear;
       }
    @keyframes keyframes2 {
      from {
       stroke: blue;
       stroke-dashoffset: 449;
       stroke-width: 128;
       }
       59% {
       animation-timing-function: step-end;
       stroke: blue;
       stroke-dashoffset: 0;
       stroke-width: 128;
       }
       to {
       stroke: black;
       stroke-width: 1024;
       }
       }
       #make-me-a-hanzi-animation-2 {
         animation: keyframes2 0.615397s both;
         animation-delay: 1.338216s;
         animation-timing-function: linear;
       }
    @keyframes keyframes3 {
      from {
       stroke: blue;
       stroke-dashoffset: 451;
       stroke-width: 128;
       }
       59% {
       animation-timing-function: step-end;
       stroke: blue;
       stroke-dashoffset: 0;
       stroke-width: 128;
       }
       to {
       stroke: black;
       stroke-width: 1024;
       }
       }
       #make-me-a-hanzi-animation-3 {
         animation: keyframes3 0.617025s both;
         animation-delay: 1.953613s;
         animation-timing-function: linear;
       }
    @keyframes keyframes4 {
      from {
       stroke: blue;
       stroke-dashoffset: 457;
       stroke-width: 128;
       }
       60% {
       animation-timing-function: step-end;
       stroke: blue;
       stroke-dashoffset: 0;
       stroke-width: 128;
       }
       to {
       stroke: black;
       stroke-width: 1024;
       }
       }
       #make-me-a-hanzi-animation-4 {
         animation: keyframes4 0.621908s both;
         animation-delay: 2.570638s;
         animation-timing-function: linear;
       }
    @keyframes keyframes5 {
      from {
       stroke: blue;
       stroke-dashoffset: 544;
       stroke-width: 128;
       }
       64% {
       animation-timing-function: step-end;
       stroke: blue;
       stroke-dashoffset: 0;
       stroke-width: 128;
       }
       to {
       stroke: black;
       stroke-width: 1024;
       }
       }
       #make-me-a-hanzi-animation-5 {
         animation: keyframes5 0.692708s both;
         animation-delay: 3.192546s;
         animation-timing-function: linear;
       }
    @keyframes keyframes6 {
      from {
       stroke: blue;
       stroke-dashoffset: 390;
       stroke-width: 128;
       }
       56% {
       animation-timing-function: step-end;
       stroke: blue;
       stroke-dashoffset: 0;
       stroke-width: 128;
       }
       to {
       stroke: black;
       stroke-width: 1024;
       }
       }
       #make-me-a-hanzi-animation-6 {
         animation: keyframes6 0.567383s both;
         animation-delay: 3.885254s;
         animation-timing-function: linear;
       }
    @keyframes keyframes7 {
      from {
       stroke: blue;
       stroke-dashoffset: 712;
       stroke-width: 128;
       }
       70% {
       animation-timing-function: step-end;
       stroke: blue;
       stroke-dashoffset: 0;
       stroke-width: 128;
       }
       to {
       stroke: black;
       stroke-width: 1024;
       }
       }
       #make-me-a-hanzi-animation-7 {
         animation: keyframes7 0.829427s both;
         animation-delay: 4.452637s;
         animation-timing-function: linear;
       }
    @keyframes keyframes8 {
      from {
       stroke: blue;
       stroke-dashoffset: 683;
       stroke-width: 128;
       }
       69% {
       animation-timing-function: step-end;
       stroke: blue;
       stroke-dashoffset: 0;
       stroke-width: 128;
       }
       to {
       stroke: black;
       stroke-width: 1024;
       }
       }
       #make-me-a-hanzi-animation-8 {
         animation: keyframes8 0.805827s both;
         animation-delay: 5.282064s;
         animation-timing-function: linear;
       }
    @keyframes keyframes9 {
      from {
       stroke: blue;
       stroke-dashoffset: 420;
       stroke-width: 128;
       }
       58% {
       animation-timing-function: step-end;
       stroke: blue;
       stroke-dashoffset: 0;
       stroke-width: 128;
       }
       to {
       stroke: black;
       stroke-width: 1024;
       }
       }
       #make-me-a-hanzi-animation-9 {
         animation: keyframes9 0.591797s both;
         animation-delay: 6.087891s;
         animation-timing-function: linear;
       }
    @keyframes keyframes10 {
      from {
       stroke: blue;
       stroke-dashoffset: 663;
       stroke-width: 128;
       }
       68% {
       animation-timing-function: step-end;
       stroke: blue;
       stroke-dashoffset: 0;
       stroke-width: 128;
       }
       to {
       stroke: black;
       stroke-width: 1024;
       }
       }
       #make-me-a-hanzi-animation-10 {
         animation: keyframes10 0.789551s both;
         animation-delay: 6.679688s;
         animation-timing-function: linear;
       }
    @keyframes keyframes11 {
      from {
       stroke: blue;
       stroke-dashoffset: 404;
       stroke-width: 128;
       }
       57% {
       animation-timing-function: step-end;
       stroke: blue;
       stroke-dashoffset: 0;
       stroke-width: 128;
       }
       to {
       stroke: black;
       stroke-width: 1024;
       }
       }
       #make-me-a-hanzi-animation-11 {
         animation: keyframes11 0.578776s both;
         animation-delay: 7.469238s;
         animation-timing-function: linear;
       }
    @keyframes keyframes12 {
      from {
       stroke: blue;
       stroke-dashoffset: 787;
       stroke-width: 128;
       }
       72% {
       animation-timing-function: step-end;
       stroke: blue;
       stroke-dashoffset: 0;
       stroke-width: 128;
       }
       to {
       stroke: black;
       stroke-width: 1024;
       }
       }
       #make-me-a-hanzi-animation-12 {
         animation: keyframes12 0.890462s both;
         animation-delay: 8.048014s;
         animation-timing-function: linear;
       }
    @keyframes keyframes13 {
      from {
       stroke: blue;
       stroke-dashoffset: 366;
       stroke-width: 128;
       }
       54% {
       animation-timing-function: step-end;
       stroke: blue;
       stroke-dashoffset: 0;
       stroke-width: 128;
       }
       to {
       stroke: black;
       stroke-width: 1024;
       }
       }
       #make-me-a-hanzi-animation-13 {
         animation: keyframes13 0.547852s both;
         animation-delay: 8.938477s;
         animation-timing-function: linear;
       }
    @keyframes keyframes14 {
      from {
       stroke: blue;
       stroke-dashoffset: 424;
       stroke-width: 128;
       }
       58% {
       animation-timing-function: step-end;
       stroke: blue;
       stroke-dashoffset: 0;
       stroke-width: 128;
       }
       to {
       stroke: black;
       stroke-width: 1024;
       }
       }
       #make-me-a-hanzi-animation-14 {
         animation: keyframes14 0.595052s both;
         animation-delay: 9.486328s;
         animation-timing-function: linear;
       }
</style>
<path d="M 319.0 601.5 L 328.0 615.5 Q 332.0 621.5 336.0 637.5 Q 337.0 642.5 337.0 648.5 Q 337.0 653.5 336.0 659.5 Q 335.0 670.5 329.0 679.5 Q 322.0 689.5 314.0 697.5 Q 305.0 706.5 297.0 711.5 Q 290.0 717.5 276.0 725.5 Q 262.0 733.5 254.0 735.5 L 241.0 741.5 Q 236.0 743.5 232.0 743.5 Q 228.0 743.5 225.0 740.5 Q 223.0 737.5 223.0 733.5 Q 223.0 730.5 224.0 727.5 L 230.0 714.5 Q 240.0 689.5 247.0 674.5 L 260.0 645.5 L 273.0 623.5 Q 278.0 613.5 284.0 609.5 Q 288.0 604.5 298.0 597.5 C 311.0 588.5 311.0 588.5 319.0 601.5 Z" fill="lightgray"></path> 
<path d="M 298.0 597.5 L 187.0 577.5 Q 127.0 567.5 99.0 563.5 L 73.0 561.5 Q 60.0 559.5 59.0 557.5 Q 58.0 555.5 58.0 549.5 Q 58.0 544.5 67.0 538.5 Q 76.0 531.5 82.0 529.5 Q 88.0 526.5 104.0 520.5 Q 120.0 513.5 127.0 513.5 Q 134.0 513.5 150.0 519.5 Q 167.0 525.5 184.0 530.5 L 230.0 541.5 L 278.0 551.5 L 330.0 561.5 Q 352.0 565.5 378.0 568.5 Q 404.0 571.5 410.0 573.5 L 429.0 575.5 Q 438.0 577.5 440.0 579.5 Q 443.0 583.5 443.0 588.5 Q 442.0 593.5 432.0 599.5 Q 422.0 605.5 409.0 609.5 Q 396.0 613.5 387.0 613.5 L 383.0 613.5 Q 374.0 613.5 360.0 610.5 L 319.0 601.5 L 298.0 597.5 Z" fill="lightgray"></path> 
<path d="M 190.0 447.5 L 180.0 446.5 Q 172.0 445.5 170.0 442.5 Q 169.0 441.5 169.0 439.5 Q 169.0 436.5 173.0 432.5 Q 178.0 427.5 187.0 424.5 Q 195.0 421.5 198.0 420.5 Q 202.0 419.5 210.0 418.5 Q 220.0 417.5 224.0 417.5 Q 228.0 417.5 236.0 419.5 L 274.0 429.5 L 329.0 441.5 L 362.0 449.5 Q 366.0 451.5 370.0 454.5 Q 374.0 457.5 374.0 461.5 Q 374.0 465.5 368.0 469.5 Q 362.0 473.5 350.0 475.5 L 330.0 480.5 Q 325.0 481.5 321.0 481.5 Q 317.0 481.5 314.0 480.5 Q 308.0 479.5 297.0 474.5 Q 285.0 469.5 272.0 466.5 Q 258.0 463.5 236.0 457.5 Q 214.0 451.5 205.0 450.5 L 190.0 447.5 Z" fill="lightgray"></path> 
<path d="M 188.0 350.5 L 177.0 349.5 Q 170.0 348.5 168.0 345.5 Q 167.0 344.5 167.0 343.5 Q 167.0 339.5 171.0 335.5 Q 176.0 331.5 184.0 328.5 L 194.0 323.5 Q 202.0 321.5 208.0 319.5 L 222.0 319.5 Q 226.0 319.5 233.0 320.5 L 270.0 329.5 L 326.0 339.5 L 360.0 347.5 Q 364.0 347.5 368.0 351.5 Q 372.0 354.5 373.0 357.5 Q 373.0 362.5 367.0 366.5 Q 360.0 369.5 346.0 373.5 Q 332.0 377.5 329.0 378.5 Q 325.0 379.5 321.0 379.5 Q 317.0 379.5 313.0 378.5 Q 307.0 377.5 295.0 373.5 Q 282.0 369.5 266.0 365.5 Q 250.0 361.5 233.0 358.5 Q 215.0 354.5 203.0 353.5 L 188.0 350.5 Z" fill="lightgray"></path> 
<path d="M 182.0 233.5 L 162.0 237.5 Q 148.0 239.5 144.0 239.5 Q 134.0 237.5 132.0 233.5 Q 131.0 231.5 131.0 230.5 Q 131.0 227.5 133.0 225.5 Q 136.0 222.5 142.0 217.5 Q 148.0 211.5 152.0 204.5 Q 156.0 197.5 160.0 185.5 Q 164.0 174.5 166.0 158.5 L 179.0 87.5 Q 181.0 75.5 184.0 66.5 Q 186.0 58.5 191.0 53.5 Q 198.0 45.5 203.0 45.5 L 205.0 45.5 Q 212.0 47.5 215.0 55.5 L 220.0 66.5 L 220.0 99.5 L 206.0 209.5 C 203.0 229.5 203.0 229.5 182.0 233.5 Z" fill="lightgray"></path> 
<path d="M 340.0 109.5 L 360.0 170.5 Q 362.0 178.5 367.0 191.5 Q 372.0 203.5 376.0 210.5 Q 380.0 217.5 387.0 224.5 Q 394.0 232.5 394.0 235.5 L 394.0 236.5 Q 394.0 242.5 385.0 249.5 Q 374.0 257.5 363.0 263.5 Q 352.0 269.5 341.0 273.5 Q 332.0 276.5 327.0 276.5 L 324.0 276.5 Q 320.0 275.5 310.0 269.5 Q 300.0 264.5 284.0 259.5 Q 269.0 253.5 258.0 249.5 Q 246.0 246.5 237.0 245.5 L 182.0 233.5 C 153.0 227.5 177.0 203.5 206.0 209.5 L 286.0 225.5 Q 300.0 227.5 307.0 227.5 Q 312.0 227.5 313.0 226.5 Q 315.0 224.5 315.0 217.5 Q 315.0 212.5 314.0 205.5 L 300.0 116.5 C 295.0 86.5 331.0 80.5 340.0 109.5 Z" fill="lightgray"></path> 
<path d="M 220.0 66.5 L 278.0 75.5 L 307.0 79.5 L 326.0 81.5 Q 338.0 82.5 344.0 82.5 L 348.0 82.5 Q 351.0 82.5 353.0 83.5 Q 357.0 83.5 360.0 88.5 Q 361.0 89.5 361.0 90.5 Q 361.0 95.5 352.0 101.5 L 340.0 109.5 C 322.0 121.5 322.0 121.5 300.0 116.5 L 220.0 99.5 C 191.0 93.5 190.0 61.5 220.0 66.5 Z" fill="lightgray"></path> 
<path d="M 634.0 693.5 L 644.0 710.5 L 656.0 727.5 Q 656.0 733.5 648.0 743.5 Q 640.0 754.5 629.0 763.5 Q 618.0 771.5 608.0 777.5 Q 598.0 782.5 593.0 782.5 Q 590.0 782.5 589.0 781.5 Q 584.0 777.5 582.0 773.5 Q 581.0 771.5 581.0 768.5 Q 581.0 764.5 583.0 756.5 Q 585.0 746.5 585.0 738.5 L 585.0 733.5 Q 584.0 721.5 574.0 697.5 L 554.0 651.5 Q 544.0 629.5 529.0 602.5 Q 514.0 575.5 492.0 543.5 Q 470.0 511.5 446.0 483.5 Q 422.0 453.5 398.0 428.5 L 382.0 411.5 Q 376.0 406.5 376.0 402.5 Q 376.0 400.5 377.0 399.5 Q 378.0 397.5 381.0 397.5 Q 384.0 397.5 390.0 401.5 L 410.0 413.5 L 442.0 433.5 Q 456.0 443.5 480.0 465.5 Q 502.0 488.5 524.0 515.5 Q 546.0 541.5 564.0 568.5 Q 581.0 595.5 594.0 618.5 L 622.0 669.5 L 634.0 693.5 Z" fill="lightgray"></path> 
<path d="M 622.0 669.5 L 649.0 628.5 L 685.0 575.5 Q 725.0 515.5 738.0 497.5 Q 752.0 478.5 768.0 459.5 Q 785.0 439.5 795.0 434.5 Q 806.0 429.5 826.0 428.5 Q 841.0 427.5 851.0 427.5 L 860.0 427.5 Q 870.0 427.5 899.0 430.5 Q 928.0 434.5 942.0 437.5 L 959.0 441.5 Q 966.0 443.5 966.0 448.5 Q 966.0 453.5 957.0 456.5 L 935.0 463.5 Q 913.0 471.5 883.0 483.5 Q 853.0 496.5 833.0 507.5 Q 812.0 519.5 792.0 533.5 Q 771.0 547.5 750.0 563.5 Q 730.0 579.5 701.0 609.5 Q 672.0 639.5 660.0 655.5 Q 648.0 671.5 634.0 693.5 C 618.0 718.5 606.0 694.5 622.0 669.5 Z" fill="lightgray"></path> 
<path d="M 679.0 479.5 Q 698.0 482.5 698.0 489.5 Q 698.0 495.5 694.0 498.5 Q 689.0 501.5 682.0 504.5 L 667.0 509.5 Q 661.0 510.5 653.0 512.5 Q 645.0 513.5 638.0 513.5 Q 632.0 513.5 616.0 507.5 Q 601.0 501.5 590.0 498.5 L 575.0 495.5 L 557.0 490.5 L 534.0 486.5 Q 526.0 485.5 524.0 481.5 Q 523.0 480.5 523.0 479.5 Q 523.0 477.5 524.0 475.5 Q 526.0 471.5 535.0 467.5 Q 544.0 462.5 553.0 461.5 Q 562.0 459.5 570.0 459.5 Q 579.0 459.5 588.0 461.5 L 679.0 479.5 Z" fill="lightgray"></path> 
<path d="M 616.0 258.5 Q 612.0 251.5 612.0 247.5 Q 612.0 245.5 614.0 243.5 Q 616.0 241.5 618.0 241.5 Q 621.0 241.5 626.0 245.5 L 656.0 273.5 Q 673.0 290.5 690.0 304.5 L 722.0 327.5 Q 737.0 337.5 749.0 344.5 Q 760.0 351.5 764.0 355.5 Q 767.0 359.5 768.0 363.5 L 768.0 365.5 Q 768.0 372.5 760.0 381.5 Q 751.0 391.5 744.0 395.5 L 722.0 406.5 Q 708.0 413.5 702.0 414.5 Q 696.0 416.5 689.0 416.5 Q 684.0 415.5 678.0 414.5 Q 674.0 413.5 658.0 407.5 Q 642.0 401.5 624.0 397.5 L 574.0 386.5 Q 543.0 380.5 526.0 377.5 Q 509.0 375.5 496.0 374.5 L 476.0 373.5 Q 468.0 373.5 467.0 369.5 L 467.0 367.5 Q 467.0 364.5 469.0 361.5 Q 471.0 357.5 483.0 350.5 L 495.0 342.5 Q 501.0 338.5 509.0 338.5 L 512.0 338.5 Q 521.0 338.5 540.0 345.5 Q 560.0 353.5 570.0 355.5 Q 579.0 359.5 613.0 367.5 Q 646.0 375.5 660.0 376.5 Q 668.0 376.5 671.0 373.5 Q 673.0 371.5 673.0 366.5 L 673.0 363.5 Q 672.0 356.5 662.0 339.5 L 616.0 258.5 Z" fill="lightgray"></path> 
<path d="M 466.0 151.5 Q 466.0 159.5 464.0 171.5 Q 463.0 183.5 459.0 194.5 Q 454.0 205.5 450.0 205.5 L 446.0 205.5 Q 444.0 203.5 442.0 197.5 Q 440.0 189.5 436.0 178.5 Q 431.0 167.5 428.0 161.5 L 413.0 139.5 L 398.0 117.5 Q 394.0 111.5 391.0 107.5 Q 389.0 101.5 389.0 90.5 L 389.0 82.5 Q 389.0 74.5 390.0 68.5 Q 391.0 60.5 395.0 53.5 Q 398.0 45.5 406.0 44.5 Q 408.0 43.5 410.0 43.5 Q 415.0 43.5 422.0 47.5 Q 432.0 53.5 444.0 74.5 Q 456.0 95.5 460.0 114.5 Q 464.0 133.5 466.0 151.5 Z" fill="lightgray"></path> 
<path d="M 512.0 139.5 Q 518.0 121.5 528.0 99.5 Q 538.0 77.5 556.0 57.5 Q 574.0 37.5 601.0 21.5 Q 628.0 5.5 664.0 -0.5 Q 699.0 -6.5 734.0 -6.5 Q 774.0 -6.5 808.0 1.5 Q 842.0 8.5 858.0 18.5 Q 876.0 28.5 881.0 34.5 Q 888.0 43.5 888.0 50.5 Q 888.0 58.5 883.0 63.5 Q 878.0 68.5 867.0 73.5 L 836.0 90.5 Q 816.0 102.5 804.0 111.5 Q 792.0 120.5 781.0 131.5 L 768.0 143.5 Q 762.0 148.5 759.0 148.5 Q 757.0 148.5 756.0 147.5 Q 753.0 144.5 753.0 143.5 Q 753.0 142.5 754.0 141.5 L 770.0 103.5 L 778.0 82.5 Q 780.0 77.5 780.0 72.5 Q 780.0 68.5 778.0 65.5 Q 776.0 60.5 763.0 55.5 Q 750.0 51.5 730.0 49.5 Q 712.0 47.5 697.0 47.5 Q 681.0 47.5 668.0 49.5 Q 642.0 53.5 624.0 60.5 Q 607.0 67.5 593.0 76.5 Q 578.0 85.5 568.0 96.5 Q 556.0 107.5 548.0 123.5 Q 540.0 139.5 536.0 158.5 Q 530.0 177.5 527.0 183.5 Q 523.0 191.5 511.0 198.5 Q 501.0 203.5 498.0 203.5 L 497.0 203.5 Q 495.0 200.5 494.0 198.5 Q 494.0 197.5 500.0 179.5 L 512.0 139.5 Z" fill="lightgray"></path> 
<path d="M 620.0 162.5 Q 622.0 157.5 640.0 139.5 Q 658.0 121.5 666.0 120.5 L 668.0 120.5 Q 675.0 120.5 684.0 125.5 Q 692.0 130.5 692.0 147.5 L 692.0 154.5 Q 692.0 176.5 683.0 185.5 Q 674.0 193.5 664.0 198.5 Q 654.0 203.5 647.0 205.5 Q 640.0 207.5 623.0 210.5 L 601.0 213.5 Q 598.0 214.5 596.0 214.5 Q 593.0 214.5 592.0 212.5 Q 590.0 209.5 590.0 206.5 Q 590.0 203.5 594.0 198.5 L 620.0 162.5 Z" fill="lightgray"></path> 
<path d="M 774.0 223.5 Q 786.0 210.5 810.0 188.5 L 846.0 155.5 Q 857.0 143.5 865.0 139.5 Q 873.0 134.5 879.0 134.5 L 881.0 134.5 Q 888.0 135.5 896.0 148.5 Q 902.0 157.5 902.0 168.5 Q 902.0 173.5 901.0 177.5 Q 897.0 194.5 886.0 205.5 Q 876.0 216.5 862.0 223.5 Q 848.0 230.5 823.0 238.5 Q 798.0 245.5 786.0 249.5 L 760.0 253.5 Q 758.0 254.5 757.0 254.5 Q 753.0 254.5 752.0 250.5 L 752.0 248.5 Q 752.0 245.5 756.0 241.5 L 774.0 223.5 Z" fill="lightgray"></path> 
      <clipPath id="make-me-a-hanzi-clip-0">
      <path d="M 319.0 601.5 L 328.0 615.5 Q 332.0 621.5 336.0 637.5 Q 337.0 642.5 337.0 648.5 Q 337.0 653.5 336.0 659.5 Q 335.0 670.5 329.0 679.5 Q 322.0 689.5 314.0 697.5 Q 305.0 706.5 297.0 711.5 Q 290.0 717.5 276.0 725.5 Q 262.0 733.5 254.0 735.5 L 241.0 741.5 Q 236.0 743.5 232.0 743.5 Q 228.0 743.5 225.0 740.5 Q 223.0 737.5 223.0 733.5 Q 223.0 730.5 224.0 727.5 L 230.0 714.5 Q 240.0 689.5 247.0 674.5 L 260.0 645.5 L 273.0 623.5 Q 278.0 613.5 284.0 609.5 Q 288.0 604.5 298.0 597.5 C 311.0 588.5 311.0 588.5 319.0 601.5 Z" fill="lightgray"></path>
      </clipPath>
      <path clip-path="url(#make-me-a-hanzi-clip-0)" d="M 232.0 734.5 L 286.0 675.5 L 312.0 611.5 " fill="none" id="make-me-a-hanzi-animation-0" stroke-dasharray="277 554" stroke-linecap="round"></path>

      <clipPath id="make-me-a-hanzi-clip-1">
      <path d="M 298.0 597.5 L 187.0 577.5 Q 127.0 567.5 99.0 563.5 L 73.0 561.5 Q 60.0 559.5 59.0 557.5 Q 58.0 555.5 58.0 549.5 Q 58.0 544.5 67.0 538.5 Q 76.0 531.5 82.0 529.5 Q 88.0 526.5 104.0 520.5 Q 120.0 513.5 127.0 513.5 Q 134.0 513.5 150.0 519.5 Q 167.0 525.5 184.0 530.5 L 230.0 541.5 L 278.0 551.5 L 330.0 561.5 Q 352.0 565.5 378.0 568.5 Q 404.0 571.5 410.0 573.5 L 429.0 575.5 Q 438.0 577.5 440.0 579.5 Q 443.0 583.5 443.0 588.5 Q 442.0 593.5 432.0 599.5 Q 422.0 605.5 409.0 609.5 Q 396.0 613.5 387.0 613.5 L 383.0 613.5 Q 374.0 613.5 360.0 610.5 L 319.0 601.5 L 298.0 597.5 Z" fill="lightgray"></path>
      </clipPath>
      <path clip-path="url(#make-me-a-hanzi-clip-1)" d="M 68.0 552.5 L 127.0 540.5 L 379.0 591.5 L 431.0 587.5 " fill="none" id="make-me-a-hanzi-animation-1" stroke-dasharray="497 994" stroke-linecap="round"></path>

      <clipPath id="make-me-a-hanzi-clip-2">
      <path d="M 190.0 447.5 L 180.0 446.5 Q 172.0 445.5 170.0 442.5 Q 169.0 441.5 169.0 439.5 Q 169.0 436.5 173.0 432.5 Q 178.0 427.5 187.0 424.5 Q 195.0 421.5 198.0 420.5 Q 202.0 419.5 210.0 418.5 Q 220.0 417.5 224.0 417.5 Q 228.0 417.5 236.0 419.5 L 274.0 429.5 L 329.0 441.5 L 362.0 449.5 Q 366.0 451.5 370.0 454.5 Q 374.0 457.5 374.0 461.5 Q 374.0 465.5 368.0 469.5 Q 362.0 473.5 350.0 475.5 L 330.0 480.5 Q 325.0 481.5 321.0 481.5 Q 317.0 481.5 314.0 480.5 Q 308.0 479.5 297.0 474.5 Q 285.0 469.5 272.0 466.5 Q 258.0 463.5 236.0 457.5 Q 214.0 451.5 205.0 450.5 L 190.0 447.5 Z" fill="lightgray"></path>
      </clipPath>
      <path clip-path="url(#make-me-a-hanzi-clip-2)" d="M 176.0 438.5 L 218.0 434.5 L 309.0 458.5 L 366.0 461.5 " fill="none" id="make-me-a-hanzi-animation-2" stroke-dasharray="321 642" stroke-linecap="round"></path>

      <clipPath id="make-me-a-hanzi-clip-3">
      <path d="M 188.0 350.5 L 177.0 349.5 Q 170.0 348.5 168.0 345.5 Q 167.0 344.5 167.0 343.5 Q 167.0 339.5 171.0 335.5 Q 176.0 331.5 184.0 328.5 L 194.0 323.5 Q 202.0 321.5 208.0 319.5 L 222.0 319.5 Q 226.0 319.5 233.0 320.5 L 270.0 329.5 L 326.0 339.5 L 360.0 347.5 Q 364.0 347.5 368.0 351.5 Q 372.0 354.5 373.0 357.5 Q 373.0 362.5 367.0 366.5 Q 360.0 369.5 346.0 373.5 Q 332.0 377.5 329.0 378.5 Q 325.0 379.5 321.0 379.5 Q 317.0 379.5 313.0 378.5 Q 307.0 377.5 295.0 373.5 Q 282.0 369.5 266.0 365.5 Q 250.0 361.5 233.0 358.5 Q 215.0 354.5 203.0 353.5 L 188.0 350.5 Z" fill="lightgray"></path>
      </clipPath>
      <path clip-path="url(#make-me-a-hanzi-clip-3)" d="M 173.0 341.5 L 205.0 336.5 L 320.0 359.5 L 365.0 358.5 " fill="none" id="make-me-a-hanzi-animation-3" stroke-dasharray="323 646" stroke-linecap="round"></path>

      <clipPath id="make-me-a-hanzi-clip-4">
      <path d="M 182.0 233.5 L 162.0 237.5 Q 148.0 239.5 144.0 239.5 Q 134.0 237.5 132.0 233.5 Q 131.0 231.5 131.0 230.5 Q 131.0 227.5 133.0 225.5 Q 136.0 222.5 142.0 217.5 Q 148.0 211.5 152.0 204.5 Q 156.0 197.5 160.0 185.5 Q 164.0 174.5 166.0 158.5 L 179.0 87.5 Q 181.0 75.5 184.0 66.5 Q 186.0 58.5 191.0 53.5 Q 198.0 45.5 203.0 45.5 L 205.0 45.5 Q 212.0 47.5 215.0 55.5 L 220.0 66.5 L 220.0 99.5 L 206.0 209.5 C 203.0 229.5 203.0 229.5 182.0 233.5 Z" fill="lightgray"></path>
      </clipPath>
      <path clip-path="url(#make-me-a-hanzi-clip-4)" d="M 137.0 230.5 L 172.0 213.5 L 183.0 197.5 L 204.0 56.5 " fill="none" id="make-me-a-hanzi-animation-4" stroke-dasharray="329 658" stroke-linecap="round"></path>

      <clipPath id="make-me-a-hanzi-clip-5">
      <path d="M 340.0 109.5 L 360.0 170.5 Q 362.0 178.5 367.0 191.5 Q 372.0 203.5 376.0 210.5 Q 380.0 217.5 387.0 224.5 Q 394.0 232.5 394.0 235.5 L 394.0 236.5 Q 394.0 242.5 385.0 249.5 Q 374.0 257.5 363.0 263.5 Q 352.0 269.5 341.0 273.5 Q 332.0 276.5 327.0 276.5 L 324.0 276.5 Q 320.0 275.5 310.0 269.5 Q 300.0 264.5 284.0 259.5 Q 269.0 253.5 258.0 249.5 Q 246.0 246.5 237.0 245.5 L 182.0 233.5 C 153.0 227.5 177.0 203.5 206.0 209.5 L 286.0 225.5 Q 300.0 227.5 307.0 227.5 Q 312.0 227.5 313.0 226.5 Q 315.0 224.5 315.0 217.5 Q 315.0 212.5 314.0 205.5 L 300.0 116.5 C 295.0 86.5 331.0 80.5 340.0 109.5 Z" fill="lightgray"></path>
      </clipPath>
      <path clip-path="url(#make-me-a-hanzi-clip-5)" d="M 189.0 232.5 L 211.0 224.5 L 314.0 248.5 L 336.0 244.5 L 347.0 229.5 L 335.0 172.5 L 323.0 132.5 L 308.0 122.5 " fill="none" id="make-me-a-hanzi-animation-5" stroke-dasharray="416 832" stroke-linecap="round"></path>

      <clipPath id="make-me-a-hanzi-clip-6">
      <path d="M 220.0 66.5 L 278.0 75.5 L 307.0 79.5 L 326.0 81.5 Q 338.0 82.5 344.0 82.5 L 348.0 82.5 Q 351.0 82.5 353.0 83.5 Q 357.0 83.5 360.0 88.5 Q 361.0 89.5 361.0 90.5 Q 361.0 95.5 352.0 101.5 L 340.0 109.5 C 322.0 121.5 322.0 121.5 300.0 116.5 L 220.0 99.5 C 191.0 93.5 190.0 61.5 220.0 66.5 Z" fill="lightgray"></path>
      </clipPath>
      <path clip-path="url(#make-me-a-hanzi-clip-6)" d="M 227.0 72.5 L 237.0 85.5 L 304.0 98.5 L 353.0 93.5 " fill="none" id="make-me-a-hanzi-animation-6" stroke-dasharray="262 524" stroke-linecap="round"></path>

      <clipPath id="make-me-a-hanzi-clip-7">
      <path d="M 634.0 693.5 L 644.0 710.5 L 656.0 727.5 Q 656.0 733.5 648.0 743.5 Q 640.0 754.5 629.0 763.5 Q 618.0 771.5 608.0 777.5 Q 598.0 782.5 593.0 782.5 Q 590.0 782.5 589.0 781.5 Q 584.0 777.5 582.0 773.5 Q 581.0 771.5 581.0 768.5 Q 581.0 764.5 583.0 756.5 Q 585.0 746.5 585.0 738.5 L 585.0 733.5 Q 584.0 721.5 574.0 697.5 L 554.0 651.5 Q 544.0 629.5 529.0 602.5 Q 514.0 575.5 492.0 543.5 Q 470.0 511.5 446.0 483.5 Q 422.0 453.5 398.0 428.5 L 382.0 411.5 Q 376.0 406.5 376.0 402.5 Q 376.0 400.5 377.0 399.5 Q 378.0 397.5 381.0 397.5 Q 384.0 397.5 390.0 401.5 L 410.0 413.5 L 442.0 433.5 Q 456.0 443.5 480.0 465.5 Q 502.0 488.5 524.0 515.5 Q 546.0 541.5 564.0 568.5 Q 581.0 595.5 594.0 618.5 L 622.0 669.5 L 634.0 693.5 Z" fill="lightgray"></path>
      </clipPath>
      <path clip-path="url(#make-me-a-hanzi-clip-7)" d="M 594.0 770.5 L 617.0 729.5 L 556.0 600.5 L 471.0 482.5 L 381.0 402.5 " fill="none" id="make-me-a-hanzi-animation-7" stroke-dasharray="584 1168" stroke-linecap="round"></path>

      <clipPath id="make-me-a-hanzi-clip-8">
      <path d="M 622.0 669.5 L 649.0 628.5 L 685.0 575.5 Q 725.0 515.5 738.0 497.5 Q 752.0 478.5 768.0 459.5 Q 785.0 439.5 795.0 434.5 Q 806.0 429.5 826.0 428.5 Q 841.0 427.5 851.0 427.5 L 860.0 427.5 Q 870.0 427.5 899.0 430.5 Q 928.0 434.5 942.0 437.5 L 959.0 441.5 Q 966.0 443.5 966.0 448.5 Q 966.0 453.5 957.0 456.5 L 935.0 463.5 Q 913.0 471.5 883.0 483.5 Q 853.0 496.5 833.0 507.5 Q 812.0 519.5 792.0 533.5 Q 771.0 547.5 750.0 563.5 Q 730.0 579.5 701.0 609.5 Q 672.0 639.5 660.0 655.5 Q 648.0 671.5 634.0 693.5 C 618.0 718.5 606.0 694.5 622.0 669.5 Z" fill="lightgray"></path>
      </clipPath>
      <path clip-path="url(#make-me-a-hanzi-clip-8)" d="M 636.0 684.5 L 641.0 660.5 L 706.0 575.5 L 802.0 479.5 L 856.0 459.5 L 958.0 449.5 " fill="none" id="make-me-a-hanzi-animation-8" stroke-dasharray="555 1110" stroke-linecap="round"></path>

      <clipPath id="make-me-a-hanzi-clip-9">
      <path d="M 679.0 479.5 Q 698.0 482.5 698.0 489.5 Q 698.0 495.5 694.0 498.5 Q 689.0 501.5 682.0 504.5 L 667.0 509.5 Q 661.0 510.5 653.0 512.5 Q 645.0 513.5 638.0 513.5 Q 632.0 513.5 616.0 507.5 Q 601.0 501.5 590.0 498.5 L 575.0 495.5 L 557.0 490.5 L 534.0 486.5 Q 526.0 485.5 524.0 481.5 Q 523.0 480.5 523.0 479.5 Q 523.0 477.5 524.0 475.5 Q 526.0 471.5 535.0 467.5 Q 544.0 462.5 553.0 461.5 Q 562.0 459.5 570.0 459.5 Q 579.0 459.5 588.0 461.5 L 679.0 479.5 Z" fill="lightgray"></path>
      </clipPath>
      <path clip-path="url(#make-me-a-hanzi-clip-9)" d="M 528.0 478.5 L 574.0 476.5 L 644.0 493.5 L 690.0 491.5 " fill="none" id="make-me-a-hanzi-animation-9" stroke-dasharray="292 584" stroke-linecap="round"></path>

      <clipPath id="make-me-a-hanzi-clip-10">
      <path d="M 616.0 258.5 Q 612.0 251.5 612.0 247.5 Q 612.0 245.5 614.0 243.5 Q 616.0 241.5 618.0 241.5 Q 621.0 241.5 626.0 245.5 L 656.0 273.5 Q 673.0 290.5 690.0 304.5 L 722.0 327.5 Q 737.0 337.5 749.0 344.5 Q 760.0 351.5 764.0 355.5 Q 767.0 359.5 768.0 363.5 L 768.0 365.5 Q 768.0 372.5 760.0 381.5 Q 751.0 391.5 744.0 395.5 L 722.0 406.5 Q 708.0 413.5 702.0 414.5 Q 696.0 416.5 689.0 416.5 Q 684.0 415.5 678.0 414.5 Q 674.0 413.5 658.0 407.5 Q 642.0 401.5 624.0 397.5 L 574.0 386.5 Q 543.0 380.5 526.0 377.5 Q 509.0 375.5 496.0 374.5 L 476.0 373.5 Q 468.0 373.5 467.0 369.5 L 467.0 367.5 Q 467.0 364.5 469.0 361.5 Q 471.0 357.5 483.0 350.5 L 495.0 342.5 Q 501.0 338.5 509.0 338.5 L 512.0 338.5 Q 521.0 338.5 540.0 345.5 Q 560.0 353.5 570.0 355.5 Q 579.0 359.5 613.0 367.5 Q 646.0 375.5 660.0 376.5 Q 668.0 376.5 671.0 373.5 Q 673.0 371.5 673.0 366.5 L 673.0 363.5 Q 672.0 356.5 662.0 339.5 L 616.0 258.5 Z" fill="lightgray"></path>
      </clipPath>
      <path clip-path="url(#make-me-a-hanzi-clip-10)" d="M 473.0 368.5 L 497.0 358.5 L 527.0 358.5 L 645.0 389.5 L 692.0 390.5 L 712.0 367.5 L 710.0 362.5 L 619.0 248.5 " fill="none" id="make-me-a-hanzi-animation-10" stroke-dasharray="535 1070" stroke-linecap="round"></path>

      <clipPath id="make-me-a-hanzi-clip-11">
      <path d="M 466.0 151.5 Q 466.0 159.5 464.0 171.5 Q 463.0 183.5 459.0 194.5 Q 454.0 205.5 450.0 205.5 L 446.0 205.5 Q 444.0 203.5 442.0 197.5 Q 440.0 189.5 436.0 178.5 Q 431.0 167.5 428.0 161.5 L 413.0 139.5 L 398.0 117.5 Q 394.0 111.5 391.0 107.5 Q 389.0 101.5 389.0 90.5 L 389.0 82.5 Q 389.0 74.5 390.0 68.5 Q 391.0 60.5 395.0 53.5 Q 398.0 45.5 406.0 44.5 Q 408.0 43.5 410.0 43.5 Q 415.0 43.5 422.0 47.5 Q 432.0 53.5 444.0 74.5 Q 456.0 95.5 460.0 114.5 Q 464.0 133.5 466.0 151.5 Z" fill="lightgray"></path>
      </clipPath>
      <path clip-path="url(#make-me-a-hanzi-clip-11)" d="M 448.0 199.5 L 447.0 154.5 L 420.0 93.5 L 412.0 58.5 " fill="none" id="make-me-a-hanzi-animation-11" stroke-dasharray="276 552" stroke-linecap="round"></path>

      <clipPath id="make-me-a-hanzi-clip-12">
      <path d="M 512.0 139.5 Q 518.0 121.5 528.0 99.5 Q 538.0 77.5 556.0 57.5 Q 574.0 37.5 601.0 21.5 Q 628.0 5.5 664.0 -0.5 Q 699.0 -6.5 734.0 -6.5 Q 774.0 -6.5 808.0 1.5 Q 842.0 8.5 858.0 18.5 Q 876.0 28.5 881.0 34.5 Q 888.0 43.5 888.0 50.5 Q 888.0 58.5 883.0 63.5 Q 878.0 68.5 867.0 73.5 L 836.0 90.5 Q 816.0 102.5 804.0 111.5 Q 792.0 120.5 781.0 131.5 L 768.0 143.5 Q 762.0 148.5 759.0 148.5 Q 757.0 148.5 756.0 147.5 Q 753.0 144.5 753.0 143.5 Q 753.0 142.5 754.0 141.5 L 770.0 103.5 L 778.0 82.5 Q 780.0 77.5 780.0 72.5 Q 780.0 68.5 778.0 65.5 Q 776.0 60.5 763.0 55.5 Q 750.0 51.5 730.0 49.5 Q 712.0 47.5 697.0 47.5 Q 681.0 47.5 668.0 49.5 Q 642.0 53.5 624.0 60.5 Q 607.0 67.5 593.0 76.5 Q 578.0 85.5 568.0 96.5 Q 556.0 107.5 548.0 123.5 Q 540.0 139.5 536.0 158.5 Q 530.0 177.5 527.0 183.5 Q 523.0 191.5 511.0 198.5 Q 501.0 203.5 498.0 203.5 L 497.0 203.5 Q 495.0 200.5 494.0 198.5 Q 494.0 197.5 500.0 179.5 L 512.0 139.5 Z" fill="lightgray"></path>
      </clipPath>
      <path clip-path="url(#make-me-a-hanzi-clip-12)" d="M 498.0 199.5 L 514.0 179.5 L 538.0 111.5 L 568.0 71.5 L 606.0 43.5 L 662.0 24.5 L 714.0 20.5 L 769.0 25.5 L 819.0 49.5 L 803.0 82.5 L 757.0 144.5 " fill="none" id="make-me-a-hanzi-animation-12" stroke-dasharray="659 1318" stroke-linecap="round"></path>

      <clipPath id="make-me-a-hanzi-clip-13">
      <path d="M 620.0 162.5 Q 622.0 157.5 640.0 139.5 Q 658.0 121.5 666.0 120.5 L 668.0 120.5 Q 675.0 120.5 684.0 125.5 Q 692.0 130.5 692.0 147.5 L 692.0 154.5 Q 692.0 176.5 683.0 185.5 Q 674.0 193.5 664.0 198.5 Q 654.0 203.5 647.0 205.5 Q 640.0 207.5 623.0 210.5 L 601.0 213.5 Q 598.0 214.5 596.0 214.5 Q 593.0 214.5 592.0 212.5 Q 590.0 209.5 590.0 206.5 Q 590.0 203.5 594.0 198.5 L 620.0 162.5 Z" fill="lightgray"></path>
      </clipPath>
      <path clip-path="url(#make-me-a-hanzi-clip-13)" d="M 597.0 207.5 L 660.0 164.5 L 669.0 143.5 L 667.0 132.5 " fill="none" id="make-me-a-hanzi-animation-13" stroke-dasharray="238 476" stroke-linecap="round"></path>

      <clipPath id="make-me-a-hanzi-clip-14">
      <path d="M 774.0 223.5 Q 786.0 210.5 810.0 188.5 L 846.0 155.5 Q 857.0 143.5 865.0 139.5 Q 873.0 134.5 879.0 134.5 L 881.0 134.5 Q 888.0 135.5 896.0 148.5 Q 902.0 157.5 902.0 168.5 Q 902.0 173.5 901.0 177.5 Q 897.0 194.5 886.0 205.5 Q 876.0 216.5 862.0 223.5 Q 848.0 230.5 823.0 238.5 Q 798.0 245.5 786.0 249.5 L 760.0 253.5 Q 758.0 254.5 757.0 254.5 Q 753.0 254.5 752.0 250.5 L 752.0 248.5 Q 752.0 245.5 756.0 241.5 L 774.0 223.5 Z" fill="lightgray"></path>
      </clipPath>
      <path clip-path="url(#make-me-a-hanzi-clip-14)" d="M 757.0 249.5 L 859.0 187.5 L 874.0 167.5 L 880.0 144.5 " fill="none" id="make-me-a-hanzi-animation-14" stroke-dasharray="296 592" stroke-linecap="round"></path>

</g>
</svg>
