<svg version="1.1" viewBox="0 0 1024 1024" xmlns="http://www.w3.org/2000/svg">
  <g stroke="lightgray" stroke-dasharray="1,1" stroke-width="1" transform="scale(4, 4)">
    <line x1="0" y1="0" x2="256" y2="256"></line>
    <line x1="256" y1="0" x2="0" y2="256"></line>
    <line x1="128" y1="0" x2="128" y2="256"></line>
    <line x1="0" y1="128" x2="256" y2="128"></line>
  </g>
<g transform="scale(1, -1) translate(0, -900)">
   <style type="text/css">
    @keyframes keyframes0 {
      from {
       stroke: blue;
       stroke-dashoffset: 691;
       stroke-width: 128;
       }
       69% {
       animation-timing-function: step-end;
       stroke: blue;
       stroke-dashoffset: 0;
       stroke-width: 128;
       }
       to {
       stroke: black;
       stroke-width: 1024;
       }
       }
       #make-me-a-hanzi-animation-0 {
         animation: keyframes0 0.812337s both;
         animation-delay: 0.000000s;
         animation-timing-function: linear;
       }
    @keyframes keyframes1 {
      from {
       stroke: blue;
       stroke-dashoffset: 808;
       stroke-width: 128;
       }
       72% {
       animation-timing-function: step-end;
       stroke: blue;
       stroke-dashoffset: 0;
       stroke-width: 128;
       }
       to {
       stroke: black;
       stroke-width: 1024;
       }
       }
       #make-me-a-hanzi-animation-1 {
         animation: keyframes1 0.907552s both;
         animation-delay: 0.812337s;
         animation-timing-function: linear;
       }
    @keyframes keyframes2 {
      from {
       stroke: blue;
       stroke-dashoffset: 871;
       stroke-width: 128;
       }
       74% {
       animation-timing-function: step-end;
       stroke: blue;
       stroke-dashoffset: 0;
       stroke-width: 128;
       }
       to {
       stroke: black;
       stroke-width: 1024;
       }
       }
       #make-me-a-hanzi-animation-2 {
         animation: keyframes2 0.958822s both;
         animation-delay: 1.719889s;
         animation-timing-function: linear;
       }
    @keyframes keyframes3 {
      from {
       stroke: blue;
       stroke-dashoffset: 354;
       stroke-width: 128;
       }
       54% {
       animation-timing-function: step-end;
       stroke: blue;
       stroke-dashoffset: 0;
       stroke-width: 128;
       }
       to {
       stroke: black;
       stroke-width: 1024;
       }
       }
       #make-me-a-hanzi-animation-3 {
         animation: keyframes3 0.538086s both;
         animation-delay: 2.678711s;
         animation-timing-function: linear;
       }
    @keyframes keyframes4 {
      from {
       stroke: blue;
       stroke-dashoffset: 481;
       stroke-width: 128;
       }
       61% {
       animation-timing-function: step-end;
       stroke: blue;
       stroke-dashoffset: 0;
       stroke-width: 128;
       }
       to {
       stroke: black;
       stroke-width: 1024;
       }
       }
       #make-me-a-hanzi-animation-4 {
         animation: keyframes4 0.641439s both;
         animation-delay: 3.216797s;
         animation-timing-function: linear;
       }
    @keyframes keyframes5 {
      from {
       stroke: blue;
       stroke-dashoffset: 538;
       stroke-width: 128;
       }
       64% {
       animation-timing-function: step-end;
       stroke: blue;
       stroke-dashoffset: 0;
       stroke-width: 128;
       }
       to {
       stroke: black;
       stroke-width: 1024;
       }
       }
       #make-me-a-hanzi-animation-5 {
         animation: keyframes5 0.687826s both;
         animation-delay: 3.858236s;
         animation-timing-function: linear;
       }
    @keyframes keyframes6 {
      from {
       stroke: blue;
       stroke-dashoffset: 628;
       stroke-width: 128;
       }
       67% {
       animation-timing-function: step-end;
       stroke: blue;
       stroke-dashoffset: 0;
       stroke-width: 128;
       }
       to {
       stroke: black;
       stroke-width: 1024;
       }
       }
       #make-me-a-hanzi-animation-6 {
         animation: keyframes6 0.761068s both;
         animation-delay: 4.546061s;
         animation-timing-function: linear;
       }
    @keyframes keyframes7 {
      from {
       stroke: blue;
       stroke-dashoffset: 944;
       stroke-width: 128;
       }
       75% {
       animation-timing-function: step-end;
       stroke: blue;
       stroke-dashoffset: 0;
       stroke-width: 128;
       }
       to {
       stroke: black;
       stroke-width: 1024;
       }
       }
       #make-me-a-hanzi-animation-7 {
         animation: keyframes7 1.018229s both;
         animation-delay: 5.307129s;
         animation-timing-function: linear;
       }
    @keyframes keyframes8 {
      from {
       stroke: blue;
       stroke-dashoffset: 421;
       stroke-width: 128;
       }
       58% {
       animation-timing-function: step-end;
       stroke: blue;
       stroke-dashoffset: 0;
       stroke-width: 128;
       }
       to {
       stroke: black;
       stroke-width: 1024;
       }
       }
       #make-me-a-hanzi-animation-8 {
         animation: keyframes8 0.592611s both;
         animation-delay: 6.325358s;
         animation-timing-function: linear;
       }
    @keyframes keyframes9 {
      from {
       stroke: blue;
       stroke-dashoffset: 384;
       stroke-width: 128;
       }
       56% {
       animation-timing-function: step-end;
       stroke: blue;
       stroke-dashoffset: 0;
       stroke-width: 128;
       }
       to {
       stroke: black;
       stroke-width: 1024;
       }
       }
       #make-me-a-hanzi-animation-9 {
         animation: keyframes9 0.562500s both;
         animation-delay: 6.917969s;
         animation-timing-function: linear;
       }
    @keyframes keyframes10 {
      from {
       stroke: blue;
       stroke-dashoffset: 336;
       stroke-width: 128;
       }
       52% {
       animation-timing-function: step-end;
       stroke: blue;
       stroke-dashoffset: 0;
       stroke-width: 128;
       }
       to {
       stroke: black;
       stroke-width: 1024;
       }
       }
       #make-me-a-hanzi-animation-10 {
         animation: keyframes10 0.523438s both;
         animation-delay: 7.480469s;
         animation-timing-function: linear;
       }
    @keyframes keyframes11 {
      from {
       stroke: blue;
       stroke-dashoffset: 674;
       stroke-width: 128;
       }
       69% {
       animation-timing-function: step-end;
       stroke: blue;
       stroke-dashoffset: 0;
       stroke-width: 128;
       }
       to {
       stroke: black;
       stroke-width: 1024;
       }
       }
       #make-me-a-hanzi-animation-11 {
         animation: keyframes11 0.798503s both;
         animation-delay: 8.003906s;
         animation-timing-function: linear;
       }
    @keyframes keyframes12 {
      from {
       stroke: blue;
       stroke-dashoffset: 447;
       stroke-width: 128;
       }
       59% {
       animation-timing-function: step-end;
       stroke: blue;
       stroke-dashoffset: 0;
       stroke-width: 128;
       }
       to {
       stroke: black;
       stroke-width: 1024;
       }
       }
       #make-me-a-hanzi-animation-12 {
         animation: keyframes12 0.613770s both;
         animation-delay: 8.802409s;
         animation-timing-function: linear;
       }
    @keyframes keyframes13 {
      from {
       stroke: blue;
       stroke-dashoffset: 457;
       stroke-width: 128;
       }
       60% {
       animation-timing-function: step-end;
       stroke: blue;
       stroke-dashoffset: 0;
       stroke-width: 128;
       }
       to {
       stroke: black;
       stroke-width: 1024;
       }
       }
       #make-me-a-hanzi-animation-13 {
         animation: keyframes13 0.621908s both;
         animation-delay: 9.416178s;
         animation-timing-function: linear;
       }
    @keyframes keyframes14 {
      from {
       stroke: blue;
       stroke-dashoffset: 432;
       stroke-width: 128;
       }
       58% {
       animation-timing-function: step-end;
       stroke: blue;
       stroke-dashoffset: 0;
       stroke-width: 128;
       }
       to {
       stroke: black;
       stroke-width: 1024;
       }
       }
       #make-me-a-hanzi-animation-14 {
         animation: keyframes14 0.601562s both;
         animation-delay: 10.038086s;
         animation-timing-function: linear;
       }
    @keyframes keyframes15 {
      from {
       stroke: blue;
       stroke-dashoffset: 564;
       stroke-width: 128;
       }
       65% {
       animation-timing-function: step-end;
       stroke: blue;
       stroke-dashoffset: 0;
       stroke-width: 128;
       }
       to {
       stroke: black;
       stroke-width: 1024;
       }
       }
       #make-me-a-hanzi-animation-15 {
         animation: keyframes15 0.708984s both;
         animation-delay: 10.639648s;
         animation-timing-function: linear;
       }
    @keyframes keyframes16 {
      from {
       stroke: blue;
       stroke-dashoffset: 462;
       stroke-width: 128;
       }
       60% {
       animation-timing-function: step-end;
       stroke: blue;
       stroke-dashoffset: 0;
       stroke-width: 128;
       }
       to {
       stroke: black;
       stroke-width: 1024;
       }
       }
       #make-me-a-hanzi-animation-16 {
         animation: keyframes16 0.625977s both;
         animation-delay: 11.348633s;
         animation-timing-function: linear;
       }
</style>
<path d="M 198.5 660.5 Q 185.5 673.5 165.5 681.5 Q 156.5 685.5 146.5 681.5 Q 139.5 677.5 145.5 666.5 Q 146.5 657.5 150.5 649.5 Q 171.5 610.5 155.5 390.5 Q 137.5 284.5 149.5 262.5 Q 153.5 253.5 160.5 244.5 Q 169.5 232.5 179.5 243.5 Q 194.5 264.5 195.5 342.5 Q 202.5 607.5 205.5 626.5 Q 206.5 632.5 206.5 636.5 C 208.5 652.5 208.5 652.5 198.5 660.5 Z" fill="lightgray"></path> 
<path d="M 323.5 329.5 Q 316.5 310.5 328.5 290.5 Q 338.5 265.5 347.5 266.5 Q 360.5 266.5 374.5 294.5 Q 387.5 316.5 386.5 334.5 Q 359.5 577.5 404.5 642.5 Q 413.5 655.5 406.5 664.5 Q 382.5 683.5 342.5 701.5 Q 330.5 705.5 271.5 680.5 Q 208.5 662.5 198.5 660.5 C 169.5 653.5 176.5 633.5 206.5 636.5 Q 213.5 636.5 221.5 637.5 Q 311.5 665.5 325.5 659.5 Q 335.5 634.5 338.5 568.5 Q 337.5 367.5 323.5 329.5 Z" fill="lightgray"></path> 
<path d="M 271.5 242.5 Q 286.5 330.5 288.5 464.5 Q 288.5 500.5 299.5 542.5 Q 303.5 551.5 296.5 556.5 Q 254.5 589.5 228.5 578.5 Q 213.5 572.5 226.5 560.5 Q 247.5 539.5 248.5 517.5 Q 255.5 376.5 240.5 283.5 Q 222.5 145.5 117.5 55.5 Q 98.5 45.5 94.5 36.5 Q 91.5 32.5 103.5 31.5 Q 134.5 31.5 199.5 92.5 Q 242.5 134.5 265.5 215.5 L 271.5 242.5 Z" fill="lightgray"></path> 
<path d="M 265.5 215.5 Q 289.5 191.5 316.5 155.5 Q 323.5 145.5 335.5 144.5 Q 342.5 143.5 347.5 152.5 Q 351.5 162.5 348.5 182.5 Q 347.5 200.5 323.5 216.5 Q 299.5 228.5 271.5 242.5 C 244.5 255.5 244.5 236.5 265.5 215.5 Z" fill="lightgray"></path> 
<path d="M 629.5 740.5 Q 641.5 758.5 665.5 771.5 Q 674.5 778.5 672.5 789.5 Q 671.5 799.5 653.5 820.5 Q 637.5 838.5 622.5 841.5 Q 607.5 842.5 610.5 824.5 Q 616.5 803.5 564.5 737.5 Q 539.5 709.5 506.5 677.5 Q 497.5 671.5 495.5 667.5 Q 491.5 660.5 501.5 659.5 Q 526.5 659.5 603.5 718.5 L 629.5 740.5 Z" fill="lightgray"></path> 
<path d="M 680.5 621.5 Q 758.5 700.5 788.5 718.5 Q 804.5 727.5 794.5 738.5 Q 782.5 750.5 750.5 769.5 Q 743.5 772.5 664.5 749.5 Q 646.5 746.5 629.5 740.5 C 600.5 731.5 576.5 723.5 603.5 718.5 Q 619.5 712.5 694.5 725.5 Q 701.5 726.5 704.5 724.5 Q 707.5 721.5 703.5 713.5 Q 675.5 652.5 656.5 624.5 Q 652.5 620.5 650.5 614.5 C 636.5 588.5 659.5 600.5 680.5 621.5 Z" fill="lightgray"></path> 
<path d="M 506.5 565.5 Q 527.5 562.5 592.5 571.5 L 621.5 577.5 Q 864.5 629.5 876.5 638.5 Q 883.5 644.5 879.5 650.5 Q 875.5 659.5 852.5 665.5 Q 830.5 669.5 807.5 661.5 Q 746.5 639.5 680.5 621.5 L 650.5 614.5 Q 578.5 601.5 499.5 591.5 C 469.5 587.5 476.5 567.5 506.5 565.5 Z" fill="lightgray"></path> 
<path d="M 499.5 591.5 Q 486.5 604.5 462.5 614.5 Q 444.5 624.5 432.5 620.5 Q 422.5 613.5 427.5 600.5 Q 443.5 581.5 444.5 520.5 Q 423.5 315.5 400.5 228.5 Q 396.5 216.5 392.5 204.5 Q 358.5 111.5 279.5 -11.5 Q 275.5 -18.5 273.5 -23.5 Q 270.5 -33.5 280.5 -31.5 Q 314.5 -24.5 387.5 94.5 Q 399.5 116.5 412.5 142.5 Q 473.5 286.5 494.5 496.5 Q 497.5 557.5 506.5 565.5 C 512.5 581.5 512.5 581.5 499.5 591.5 Z" fill="lightgray"></path> 
<path d="M 592.5 571.5 Q 602.5 535.5 529.5 442.5 Q 525.5 439.5 531.5 438.5 Q 570.5 438.5 637.5 540.5 Q 640.5 544.5 643.5 547.5 Q 647.5 550.5 645.5 556.5 Q 644.5 562.5 636.5 569.5 Q 629.5 575.5 621.5 577.5 C 593.5 587.5 589.5 588.5 592.5 571.5 Z" fill="lightgray"></path> 
<path d="M 715.5 544.5 Q 796.5 468.5 798.5 466.5 Q 804.5 465.5 810.5 473.5 Q 817.5 483.5 808.5 515.5 Q 804.5 531.5 791.5 543.5 Q 781.5 549.5 757.5 556.5 Q 730.5 563.5 715.5 566.5 Q 708.5 570.5 707.5 561.5 Q 707.5 551.5 715.5 544.5 Z" fill="lightgray"></path> 
<path d="M 636.5 468.5 Q 678.5 416.5 701.5 412.5 Q 713.5 411.5 717.5 427.5 Q 718.5 437.5 711.5 454.5 Q 702.5 467.5 683.5 475.5 Q 652.5 488.5 639.5 490.5 Q 632.5 491.5 631.5 482.5 Q 630.5 475.5 636.5 468.5 Z" fill="lightgray"></path> 
<path d="M 507.5 362.5 Q 489.5 359.5 503.5 346.5 Q 515.5 334.5 529.5 331.5 Q 547.5 327.5 560.5 331.5 Q 699.5 371.5 906.5 371.5 L 908.5 371.5 Q 924.5 371.5 928.5 379.5 Q 932.5 389.5 919.5 399.5 Q 868.5 435.5 812.5 414.5 Q 614.5 378.5 507.5 362.5 Z" fill="lightgray"></path> 
<path d="M 594.5 287.5 Q 567.5 283.5 587.5 270.5 Q 612.5 255.5 686.5 270.5 Q 720.5 277.5 758.5 285.5 Q 780.5 291.5 784.5 294.5 Q 791.5 300.5 787.5 306.5 Q 783.5 315.5 760.5 320.5 Q 738.5 324.5 715.5 315.5 Q 690.5 305.5 661.5 298.5 Q 630.5 291.5 594.5 287.5 Z" fill="lightgray"></path> 
<path d="M 586.5 203.5 Q 558.5 197.5 579.5 186.5 Q 609.5 171.5 687.5 190.5 Q 721.5 199.5 757.5 208.5 Q 782.5 214.5 785.5 218.5 Q 792.5 224.5 788.5 230.5 Q 782.5 239.5 760.5 243.5 Q 738.5 247.5 715.5 237.5 Q 687.5 227.5 658.5 217.5 Q 624.5 208.5 586.5 203.5 Z" fill="lightgray"></path> 
<path d="M 580.5 114.5 Q 568.5 118.5 544.5 124.5 Q 532.5 127.5 530.5 122.5 Q 524.5 118.5 531.5 102.5 Q 552.5 59.5 564.5 -10.5 Q 567.5 -31.5 579.5 -45.5 Q 594.5 -66.5 599.5 -51.5 Q 603.5 -41.5 603.5 -24.5 L 600.5 3.5 Q 593.5 64.5 592.5 85.5 C 590.5 111.5 590.5 111.5 580.5 114.5 Z" fill="lightgray"></path> 
<path d="M 802.5 21.5 Q 823.5 78.5 845.5 88.5 Q 860.5 106.5 846.5 122.5 Q 831.5 134.5 783.5 156.5 Q 767.5 163.5 746.5 155.5 Q 674.5 128.5 580.5 114.5 C 550.5 109.5 563.5 79.5 592.5 85.5 Q 601.5 86.5 611.5 90.5 Q 674.5 100.5 734.5 112.5 Q 750.5 115.5 756.5 108.5 Q 762.5 104.5 762.5 90.5 Q 759.5 59.5 754.5 31.5 C 749.5 1.5 791.5 -6.5 802.5 21.5 Z" fill="lightgray"></path> 
<path d="M 603.5 -24.5 Q 615.5 -24.5 626.5 -24.5 Q 683.5 -11.5 806.5 -2.5 Q 815.5 -1.5 816.5 5.5 Q 816.5 11.5 802.5 21.5 L 754.5 31.5 Q 753.5 32.5 750.5 31.5 Q 665.5 10.5 600.5 3.5 C 570.5 0.5 573.5 -24.5 603.5 -24.5 Z" fill="lightgray"></path> 
      <clipPath id="make-me-a-hanzi-clip-0">
      <path d="M 198.5 660.5 Q 185.5 673.5 165.5 681.5 Q 156.5 685.5 146.5 681.5 Q 139.5 677.5 145.5 666.5 Q 146.5 657.5 150.5 649.5 Q 171.5 610.5 155.5 390.5 Q 137.5 284.5 149.5 262.5 Q 153.5 253.5 160.5 244.5 Q 169.5 232.5 179.5 243.5 Q 194.5 264.5 195.5 342.5 Q 202.5 607.5 205.5 626.5 Q 206.5 632.5 206.5 636.5 C 208.5 652.5 208.5 652.5 198.5 660.5 Z" fill="lightgray"></path>
      </clipPath>
      <path clip-path="url(#make-me-a-hanzi-clip-0)" d="M 153.5 673.5 L 172.5 654.5 L 181.5 634.5 L 182.5 502.5 L 168.5 304.5 L 170.5 248.5 " fill="none" id="make-me-a-hanzi-animation-0" stroke-dasharray="563 1126" stroke-linecap="round"></path>

      <clipPath id="make-me-a-hanzi-clip-1">
      <path d="M 323.5 329.5 Q 316.5 310.5 328.5 290.5 Q 338.5 265.5 347.5 266.5 Q 360.5 266.5 374.5 294.5 Q 387.5 316.5 386.5 334.5 Q 359.5 577.5 404.5 642.5 Q 413.5 655.5 406.5 664.5 Q 382.5 683.5 342.5 701.5 Q 330.5 705.5 271.5 680.5 Q 208.5 662.5 198.5 660.5 C 169.5 653.5 176.5 633.5 206.5 636.5 Q 213.5 636.5 221.5 637.5 Q 311.5 665.5 325.5 659.5 Q 335.5 634.5 338.5 568.5 Q 337.5 367.5 323.5 329.5 Z" fill="lightgray"></path>
      </clipPath>
      <path clip-path="url(#make-me-a-hanzi-clip-1)" d="M 202.5 655.5 L 230.5 651.5 L 262.5 666.5 L 334.5 679.5 L 366.5 647.5 L 355.5 505.5 L 357.5 341.5 L 348.5 278.5 " fill="none" id="make-me-a-hanzi-animation-1" stroke-dasharray="680 1360" stroke-linecap="round"></path>

      <clipPath id="make-me-a-hanzi-clip-2">
      <path d="M 271.5 242.5 Q 286.5 330.5 288.5 464.5 Q 288.5 500.5 299.5 542.5 Q 303.5 551.5 296.5 556.5 Q 254.5 589.5 228.5 578.5 Q 213.5 572.5 226.5 560.5 Q 247.5 539.5 248.5 517.5 Q 255.5 376.5 240.5 283.5 Q 222.5 145.5 117.5 55.5 Q 98.5 45.5 94.5 36.5 Q 91.5 32.5 103.5 31.5 Q 134.5 31.5 199.5 92.5 Q 242.5 134.5 265.5 215.5 L 271.5 242.5 Z" fill="lightgray"></path>
      </clipPath>
      <path clip-path="url(#make-me-a-hanzi-clip-2)" d="M 229.5 569.5 L 252.5 560.5 L 271.5 540.5 L 264.5 320.5 L 245.5 212.5 L 221.5 153.5 L 190.5 108.5 L 142.5 60.5 L 101.5 38.5 " fill="none" id="make-me-a-hanzi-animation-2" stroke-dasharray="743 1486" stroke-linecap="round"></path>

      <clipPath id="make-me-a-hanzi-clip-3">
      <path d="M 265.5 215.5 Q 289.5 191.5 316.5 155.5 Q 323.5 145.5 335.5 144.5 Q 342.5 143.5 347.5 152.5 Q 351.5 162.5 348.5 182.5 Q 347.5 200.5 323.5 216.5 Q 299.5 228.5 271.5 242.5 C 244.5 255.5 244.5 236.5 265.5 215.5 Z" fill="lightgray"></path>
      </clipPath>
      <path clip-path="url(#make-me-a-hanzi-clip-3)" d="M 276.5 234.5 L 281.5 220.5 L 322.5 186.5 L 334.5 159.5 " fill="none" id="make-me-a-hanzi-animation-3" stroke-dasharray="226 452" stroke-linecap="round"></path>

      <clipPath id="make-me-a-hanzi-clip-4">
      <path d="M 629.5 740.5 Q 641.5 758.5 665.5 771.5 Q 674.5 778.5 672.5 789.5 Q 671.5 799.5 653.5 820.5 Q 637.5 838.5 622.5 841.5 Q 607.5 842.5 610.5 824.5 Q 616.5 803.5 564.5 737.5 Q 539.5 709.5 506.5 677.5 Q 497.5 671.5 495.5 667.5 Q 491.5 660.5 501.5 659.5 Q 526.5 659.5 603.5 718.5 L 629.5 740.5 Z" fill="lightgray"></path>
      </clipPath>
      <path clip-path="url(#make-me-a-hanzi-clip-4)" d="M 620.5 830.5 L 636.5 790.5 L 583.5 726.5 L 504.5 667.5 " fill="none" id="make-me-a-hanzi-animation-4" stroke-dasharray="353 706" stroke-linecap="round"></path>

      <clipPath id="make-me-a-hanzi-clip-5">
      <path d="M 680.5 621.5 Q 758.5 700.5 788.5 718.5 Q 804.5 727.5 794.5 738.5 Q 782.5 750.5 750.5 769.5 Q 743.5 772.5 664.5 749.5 Q 646.5 746.5 629.5 740.5 C 600.5 731.5 576.5 723.5 603.5 718.5 Q 619.5 712.5 694.5 725.5 Q 701.5 726.5 704.5 724.5 Q 707.5 721.5 703.5 713.5 Q 675.5 652.5 656.5 624.5 Q 652.5 620.5 650.5 614.5 C 636.5 588.5 659.5 600.5 680.5 621.5 Z" fill="lightgray"></path>
      </clipPath>
      <path clip-path="url(#make-me-a-hanzi-clip-5)" d="M 607.5 722.5 L 703.5 743.5 L 722.5 741.5 L 741.5 730.5 L 680.5 636.5 L 657.5 616.5 " fill="none" id="make-me-a-hanzi-animation-5" stroke-dasharray="410 820" stroke-linecap="round"></path>

      <clipPath id="make-me-a-hanzi-clip-6">
      <path d="M 506.5 565.5 Q 527.5 562.5 592.5 571.5 L 621.5 577.5 Q 864.5 629.5 876.5 638.5 Q 883.5 644.5 879.5 650.5 Q 875.5 659.5 852.5 665.5 Q 830.5 669.5 807.5 661.5 Q 746.5 639.5 680.5 621.5 L 650.5 614.5 Q 578.5 601.5 499.5 591.5 C 469.5 587.5 476.5 567.5 506.5 565.5 Z" fill="lightgray"></path>
      </clipPath>
      <path clip-path="url(#make-me-a-hanzi-clip-6)" d="M 508.5 586.5 L 517.5 579.5 L 580.5 584.5 L 685.5 604.5 L 820.5 644.5 L 870.5 646.5 " fill="none" id="make-me-a-hanzi-animation-6" stroke-dasharray="500 1000" stroke-linecap="round"></path>

      <clipPath id="make-me-a-hanzi-clip-7">
      <path d="M 499.5 591.5 Q 486.5 604.5 462.5 614.5 Q 444.5 624.5 432.5 620.5 Q 422.5 613.5 427.5 600.5 Q 443.5 581.5 444.5 520.5 Q 423.5 315.5 400.5 228.5 Q 396.5 216.5 392.5 204.5 Q 358.5 111.5 279.5 -11.5 Q 275.5 -18.5 273.5 -23.5 Q 270.5 -33.5 280.5 -31.5 Q 314.5 -24.5 387.5 94.5 Q 399.5 116.5 412.5 142.5 Q 473.5 286.5 494.5 496.5 Q 497.5 557.5 506.5 565.5 C 512.5 581.5 512.5 581.5 499.5 591.5 Z" fill="lightgray"></path>
      </clipPath>
      <path clip-path="url(#make-me-a-hanzi-clip-7)" d="M 439.5 608.5 L 468.5 579.5 L 472.5 564.5 L 462.5 437.5 L 435.5 278.5 L 409.5 191.5 L 366.5 93.5 L 313.5 12.5 L 281.5 -23.5 " fill="none" id="make-me-a-hanzi-animation-7" stroke-dasharray="816 1632" stroke-linecap="round"></path>

      <clipPath id="make-me-a-hanzi-clip-8">
      <path d="M 592.5 571.5 Q 602.5 535.5 529.5 442.5 Q 525.5 439.5 531.5 438.5 Q 570.5 438.5 637.5 540.5 Q 640.5 544.5 643.5 547.5 Q 647.5 550.5 645.5 556.5 Q 644.5 562.5 636.5 569.5 Q 629.5 575.5 621.5 577.5 C 593.5 587.5 589.5 588.5 592.5 571.5 Z" fill="lightgray"></path>
      </clipPath>
      <path clip-path="url(#make-me-a-hanzi-clip-8)" d="M 600.5 568.5 L 616.5 552.5 L 604.5 522.5 L 573.5 478.5 L 548.5 452.5 L 537.5 451.5 L 535.5 442.5 " fill="none" id="make-me-a-hanzi-animation-8" stroke-dasharray="293 586" stroke-linecap="round"></path>

      <clipPath id="make-me-a-hanzi-clip-9">
      <path d="M 715.5 544.5 Q 796.5 468.5 798.5 466.5 Q 804.5 465.5 810.5 473.5 Q 817.5 483.5 808.5 515.5 Q 804.5 531.5 791.5 543.5 Q 781.5 549.5 757.5 556.5 Q 730.5 563.5 715.5 566.5 Q 708.5 570.5 707.5 561.5 Q 707.5 551.5 715.5 544.5 Z" fill="lightgray"></path>
      </clipPath>
      <path clip-path="url(#make-me-a-hanzi-clip-9)" d="M 715.5 558.5 L 776.5 521.5 L 792.5 501.5 L 802.5 472.5 " fill="none" id="make-me-a-hanzi-animation-9" stroke-dasharray="256 512" stroke-linecap="round"></path>

      <clipPath id="make-me-a-hanzi-clip-10">
      <path d="M 636.5 468.5 Q 678.5 416.5 701.5 412.5 Q 713.5 411.5 717.5 427.5 Q 718.5 437.5 711.5 454.5 Q 702.5 467.5 683.5 475.5 Q 652.5 488.5 639.5 490.5 Q 632.5 491.5 631.5 482.5 Q 630.5 475.5 636.5 468.5 Z" fill="lightgray"></path>
      </clipPath>
      <path clip-path="url(#make-me-a-hanzi-clip-10)" d="M 642.5 479.5 L 686.5 448.5 L 702.5 427.5 " fill="none" id="make-me-a-hanzi-animation-10" stroke-dasharray="208 416" stroke-linecap="round"></path>

      <clipPath id="make-me-a-hanzi-clip-11">
      <path d="M 507.5 362.5 Q 489.5 359.5 503.5 346.5 Q 515.5 334.5 529.5 331.5 Q 547.5 327.5 560.5 331.5 Q 699.5 371.5 906.5 371.5 L 908.5 371.5 Q 924.5 371.5 928.5 379.5 Q 932.5 389.5 919.5 399.5 Q 868.5 435.5 812.5 414.5 Q 614.5 378.5 507.5 362.5 Z" fill="lightgray"></path>
      </clipPath>
      <path clip-path="url(#make-me-a-hanzi-clip-11)" d="M 505.5 354.5 L 550.5 349.5 L 696.5 377.5 L 852.5 396.5 L 918.5 384.5 " fill="none" id="make-me-a-hanzi-animation-11" stroke-dasharray="546 1092" stroke-linecap="round"></path>

      <clipPath id="make-me-a-hanzi-clip-12">
      <path d="M 594.5 287.5 Q 567.5 283.5 587.5 270.5 Q 612.5 255.5 686.5 270.5 Q 720.5 277.5 758.5 285.5 Q 780.5 291.5 784.5 294.5 Q 791.5 300.5 787.5 306.5 Q 783.5 315.5 760.5 320.5 Q 738.5 324.5 715.5 315.5 Q 690.5 305.5 661.5 298.5 Q 630.5 291.5 594.5 287.5 Z" fill="lightgray"></path>
      </clipPath>
      <path clip-path="url(#make-me-a-hanzi-clip-12)" d="M 588.5 279.5 L 639.5 277.5 L 740.5 302.5 L 776.5 302.5 " fill="none" id="make-me-a-hanzi-animation-12" stroke-dasharray="319 638" stroke-linecap="round"></path>

      <clipPath id="make-me-a-hanzi-clip-13">
      <path d="M 586.5 203.5 Q 558.5 197.5 579.5 186.5 Q 609.5 171.5 687.5 190.5 Q 721.5 199.5 757.5 208.5 Q 782.5 214.5 785.5 218.5 Q 792.5 224.5 788.5 230.5 Q 782.5 239.5 760.5 243.5 Q 738.5 247.5 715.5 237.5 Q 687.5 227.5 658.5 217.5 Q 624.5 208.5 586.5 203.5 Z" fill="lightgray"></path>
      </clipPath>
      <path clip-path="url(#make-me-a-hanzi-clip-13)" d="M 580.5 196.5 L 636.5 195.5 L 740.5 224.5 L 777.5 226.5 " fill="none" id="make-me-a-hanzi-animation-13" stroke-dasharray="329 658" stroke-linecap="round"></path>

      <clipPath id="make-me-a-hanzi-clip-14">
      <path d="M 580.5 114.5 Q 568.5 118.5 544.5 124.5 Q 532.5 127.5 530.5 122.5 Q 524.5 118.5 531.5 102.5 Q 552.5 59.5 564.5 -10.5 Q 567.5 -31.5 579.5 -45.5 Q 594.5 -66.5 599.5 -51.5 Q 603.5 -41.5 603.5 -24.5 L 600.5 3.5 Q 593.5 64.5 592.5 85.5 C 590.5 111.5 590.5 111.5 580.5 114.5 Z" fill="lightgray"></path>
      </clipPath>
      <path clip-path="url(#make-me-a-hanzi-clip-14)" d="M 538.5 115.5 L 566.5 83.5 L 589.5 -47.5 " fill="none" id="make-me-a-hanzi-animation-14" stroke-dasharray="304 608" stroke-linecap="round"></path>

      <clipPath id="make-me-a-hanzi-clip-15">
      <path d="M 802.5 21.5 Q 823.5 78.5 845.5 88.5 Q 860.5 106.5 846.5 122.5 Q 831.5 134.5 783.5 156.5 Q 767.5 163.5 746.5 155.5 Q 674.5 128.5 580.5 114.5 C 550.5 109.5 563.5 79.5 592.5 85.5 Q 601.5 86.5 611.5 90.5 Q 674.5 100.5 734.5 112.5 Q 750.5 115.5 756.5 108.5 Q 762.5 104.5 762.5 90.5 Q 759.5 59.5 754.5 31.5 C 749.5 1.5 791.5 -6.5 802.5 21.5 Z" fill="lightgray"></path>
      </clipPath>
      <path clip-path="url(#make-me-a-hanzi-clip-15)" d="M 589.5 109.5 L 602.5 102.5 L 617.5 104.5 L 746.5 134.5 L 766.5 133.5 L 780.5 126.5 L 800.5 101.5 L 785.5 53.5 L 762.5 37.5 " fill="none" id="make-me-a-hanzi-animation-15" stroke-dasharray="436 872" stroke-linecap="round"></path>

      <clipPath id="make-me-a-hanzi-clip-16">
      <path d="M 603.5 -24.5 Q 615.5 -24.5 626.5 -24.5 Q 683.5 -11.5 806.5 -2.5 Q 815.5 -1.5 816.5 5.5 Q 816.5 11.5 802.5 21.5 L 754.5 31.5 Q 753.5 32.5 750.5 31.5 Q 665.5 10.5 600.5 3.5 C 570.5 0.5 573.5 -24.5 603.5 -24.5 Z" fill="lightgray"></path>
      </clipPath>
      <path clip-path="url(#make-me-a-hanzi-clip-16)" d="M 607.5 -2.5 L 616.5 -9.5 L 628.5 -8.5 L 746.5 12.5 L 808.5 5.5 " fill="none" id="make-me-a-hanzi-animation-16" stroke-dasharray="334 668" stroke-linecap="round"></path>

</g>
</svg>
