<svg version="1.1" viewBox="0 0 1024 1024" xmlns="http://www.w3.org/2000/svg">
  <g stroke="lightgray" stroke-dasharray="1,1" stroke-width="1" transform="scale(4, 4)">
    <line x1="0" y1="0" x2="256" y2="256"></line>
    <line x1="256" y1="0" x2="0" y2="256"></line>
    <line x1="128" y1="0" x2="128" y2="256"></line>
    <line x1="0" y1="128" x2="256" y2="128"></line>
  </g>
<g transform="scale(1, -1) translate(0, -900)">
   <style type="text/css">
    @keyframes keyframes0 {
      from {
       stroke: blue;
       stroke-dashoffset: 454;
       stroke-width: 128;
       }
       60% {
       animation-timing-function: step-end;
       stroke: blue;
       stroke-dashoffset: 0;
       stroke-width: 128;
       }
       to {
       stroke: black;
       stroke-width: 1024;
       }
       }
       #make-me-a-hanzi-animation-0 {
         animation: keyframes0 0.619466s both;
         animation-delay: 0.000000s;
         animation-timing-function: linear;
       }
    @keyframes keyframes1 {
      from {
       stroke: blue;
       stroke-dashoffset: 542;
       stroke-width: 128;
       }
       64% {
       animation-timing-function: step-end;
       stroke: blue;
       stroke-dashoffset: 0;
       stroke-width: 128;
       }
       to {
       stroke: black;
       stroke-width: 1024;
       }
       }
       #make-me-a-hanzi-animation-1 {
         animation: keyframes1 0.691081s both;
         animation-delay: 0.619466s;
         animation-timing-function: linear;
       }
    @keyframes keyframes2 {
      from {
       stroke: blue;
       stroke-dashoffset: 382;
       stroke-width: 128;
       }
       55% {
       animation-timing-function: step-end;
       stroke: blue;
       stroke-dashoffset: 0;
       stroke-width: 128;
       }
       to {
       stroke: black;
       stroke-width: 1024;
       }
       }
       #make-me-a-hanzi-animation-2 {
         animation: keyframes2 0.560872s both;
         animation-delay: 1.310547s;
         animation-timing-function: linear;
       }
    @keyframes keyframes3 {
      from {
       stroke: blue;
       stroke-dashoffset: 578;
       stroke-width: 128;
       }
       65% {
       animation-timing-function: step-end;
       stroke: blue;
       stroke-dashoffset: 0;
       stroke-width: 128;
       }
       to {
       stroke: black;
       stroke-width: 1024;
       }
       }
       #make-me-a-hanzi-animation-3 {
         animation: keyframes3 0.720378s both;
         animation-delay: 1.871419s;
         animation-timing-function: linear;
       }
    @keyframes keyframes4 {
      from {
       stroke: blue;
       stroke-dashoffset: 327;
       stroke-width: 128;
       }
       52% {
       animation-timing-function: step-end;
       stroke: blue;
       stroke-dashoffset: 0;
       stroke-width: 128;
       }
       to {
       stroke: black;
       stroke-width: 1024;
       }
       }
       #make-me-a-hanzi-animation-4 {
         animation: keyframes4 0.516113s both;
         animation-delay: 2.591797s;
         animation-timing-function: linear;
       }
    @keyframes keyframes5 {
      from {
       stroke: blue;
       stroke-dashoffset: 489;
       stroke-width: 128;
       }
       61% {
       animation-timing-function: step-end;
       stroke: blue;
       stroke-dashoffset: 0;
       stroke-width: 128;
       }
       to {
       stroke: black;
       stroke-width: 1024;
       }
       }
       #make-me-a-hanzi-animation-5 {
         animation: keyframes5 0.647949s both;
         animation-delay: 3.107910s;
         animation-timing-function: linear;
       }
    @keyframes keyframes6 {
      from {
       stroke: blue;
       stroke-dashoffset: 584;
       stroke-width: 128;
       }
       66% {
       animation-timing-function: step-end;
       stroke: blue;
       stroke-dashoffset: 0;
       stroke-width: 128;
       }
       to {
       stroke: black;
       stroke-width: 1024;
       }
       }
       #make-me-a-hanzi-animation-6 {
         animation: keyframes6 0.725260s both;
         animation-delay: 3.755859s;
         animation-timing-function: linear;
       }
    @keyframes keyframes7 {
      from {
       stroke: blue;
       stroke-dashoffset: 446;
       stroke-width: 128;
       }
       59% {
       animation-timing-function: step-end;
       stroke: blue;
       stroke-dashoffset: 0;
       stroke-width: 128;
       }
       to {
       stroke: black;
       stroke-width: 1024;
       }
       }
       #make-me-a-hanzi-animation-7 {
         animation: keyframes7 0.612956s both;
         animation-delay: 4.481120s;
         animation-timing-function: linear;
       }
    @keyframes keyframes8 {
      from {
       stroke: blue;
       stroke-dashoffset: 469;
       stroke-width: 128;
       }
       60% {
       animation-timing-function: step-end;
       stroke: blue;
       stroke-dashoffset: 0;
       stroke-width: 128;
       }
       to {
       stroke: black;
       stroke-width: 1024;
       }
       }
       #make-me-a-hanzi-animation-8 {
         animation: keyframes8 0.631673s both;
         animation-delay: 5.094076s;
         animation-timing-function: linear;
       }
    @keyframes keyframes9 {
      from {
       stroke: blue;
       stroke-dashoffset: 482;
       stroke-width: 128;
       }
       61% {
       animation-timing-function: step-end;
       stroke: blue;
       stroke-dashoffset: 0;
       stroke-width: 128;
       }
       to {
       stroke: black;
       stroke-width: 1024;
       }
       }
       #make-me-a-hanzi-animation-9 {
         animation: keyframes9 0.642253s both;
         animation-delay: 5.725749s;
         animation-timing-function: linear;
       }
    @keyframes keyframes10 {
      from {
       stroke: blue;
       stroke-dashoffset: 425;
       stroke-width: 128;
       }
       58% {
       animation-timing-function: step-end;
       stroke: blue;
       stroke-dashoffset: 0;
       stroke-width: 128;
       }
       to {
       stroke: black;
       stroke-width: 1024;
       }
       }
       #make-me-a-hanzi-animation-10 {
         animation: keyframes10 0.595866s both;
         animation-delay: 6.368001s;
         animation-timing-function: linear;
       }
    @keyframes keyframes11 {
      from {
       stroke: blue;
       stroke-dashoffset: 831;
       stroke-width: 128;
       }
       73% {
       animation-timing-function: step-end;
       stroke: blue;
       stroke-dashoffset: 0;
       stroke-width: 128;
       }
       to {
       stroke: black;
       stroke-width: 1024;
       }
       }
       #make-me-a-hanzi-animation-11 {
         animation: keyframes11 0.926270s both;
         animation-delay: 6.963867s;
         animation-timing-function: linear;
       }
    @keyframes keyframes12 {
      from {
       stroke: blue;
       stroke-dashoffset: 566;
       stroke-width: 128;
       }
       65% {
       animation-timing-function: step-end;
       stroke: blue;
       stroke-dashoffset: 0;
       stroke-width: 128;
       }
       to {
       stroke: black;
       stroke-width: 1024;
       }
       }
       #make-me-a-hanzi-animation-12 {
         animation: keyframes12 0.710612s both;
         animation-delay: 7.890137s;
         animation-timing-function: linear;
       }
    @keyframes keyframes13 {
      from {
       stroke: blue;
       stroke-dashoffset: 331;
       stroke-width: 128;
       }
       52% {
       animation-timing-function: step-end;
       stroke: blue;
       stroke-dashoffset: 0;
       stroke-width: 128;
       }
       to {
       stroke: black;
       stroke-width: 1024;
       }
       }
       #make-me-a-hanzi-animation-13 {
         animation: keyframes13 0.519368s both;
         animation-delay: 8.600749s;
         animation-timing-function: linear;
       }
    @keyframes keyframes14 {
      from {
       stroke: blue;
       stroke-dashoffset: 348;
       stroke-width: 128;
       }
       53% {
       animation-timing-function: step-end;
       stroke: blue;
       stroke-dashoffset: 0;
       stroke-width: 128;
       }
       to {
       stroke: black;
       stroke-width: 1024;
       }
       }
       #make-me-a-hanzi-animation-14 {
         animation: keyframes14 0.533203s both;
         animation-delay: 9.120117s;
         animation-timing-function: linear;
       }
    @keyframes keyframes15 {
      from {
       stroke: blue;
       stroke-dashoffset: 462;
       stroke-width: 128;
       }
       60% {
       animation-timing-function: step-end;
       stroke: blue;
       stroke-dashoffset: 0;
       stroke-width: 128;
       }
       to {
       stroke: black;
       stroke-width: 1024;
       }
       }
       #make-me-a-hanzi-animation-15 {
         animation: keyframes15 0.625977s both;
         animation-delay: 9.653320s;
         animation-timing-function: linear;
       }
    @keyframes keyframes16 {
      from {
       stroke: blue;
       stroke-dashoffset: 1161;
       stroke-width: 128;
       }
       79% {
       animation-timing-function: step-end;
       stroke: blue;
       stroke-dashoffset: 0;
       stroke-width: 128;
       }
       to {
       stroke: black;
       stroke-width: 1024;
       }
       }
       #make-me-a-hanzi-animation-16 {
         animation: keyframes16 1.194824s both;
         animation-delay: 10.279297s;
         animation-timing-function: linear;
       }
    @keyframes keyframes17 {
      from {
       stroke: blue;
       stroke-dashoffset: 344;
       stroke-width: 128;
       }
       53% {
       animation-timing-function: step-end;
       stroke: blue;
       stroke-dashoffset: 0;
       stroke-width: 128;
       }
       to {
       stroke: black;
       stroke-width: 1024;
       }
       }
       #make-me-a-hanzi-animation-17 {
         animation: keyframes17 0.529948s both;
         animation-delay: 11.474121s;
         animation-timing-function: linear;
       }
    @keyframes keyframes18 {
      from {
       stroke: blue;
       stroke-dashoffset: 376;
       stroke-width: 128;
       }
       55% {
       animation-timing-function: step-end;
       stroke: blue;
       stroke-dashoffset: 0;
       stroke-width: 128;
       }
       to {
       stroke: black;
       stroke-width: 1024;
       }
       }
       #make-me-a-hanzi-animation-18 {
         animation: keyframes18 0.555990s both;
         animation-delay: 12.004069s;
         animation-timing-function: linear;
       }
    @keyframes keyframes19 {
      from {
       stroke: blue;
       stroke-dashoffset: 462;
       stroke-width: 128;
       }
       60% {
       animation-timing-function: step-end;
       stroke: blue;
       stroke-dashoffset: 0;
       stroke-width: 128;
       }
       to {
       stroke: black;
       stroke-width: 1024;
       }
       }
       #make-me-a-hanzi-animation-19 {
         animation: keyframes19 0.625977s both;
         animation-delay: 12.560059s;
         animation-timing-function: linear;
       }
    @keyframes keyframes20 {
      from {
       stroke: blue;
       stroke-dashoffset: 501;
       stroke-width: 128;
       }
       62% {
       animation-timing-function: step-end;
       stroke: blue;
       stroke-dashoffset: 0;
       stroke-width: 128;
       }
       to {
       stroke: black;
       stroke-width: 1024;
       }
       }
       #make-me-a-hanzi-animation-20 {
         animation: keyframes20 0.657715s both;
         animation-delay: 13.186035s;
         animation-timing-function: linear;
       }
    @keyframes keyframes21 {
      from {
       stroke: blue;
       stroke-dashoffset: 338;
       stroke-width: 128;
       }
       52% {
       animation-timing-function: step-end;
       stroke: blue;
       stroke-dashoffset: 0;
       stroke-width: 128;
       }
       to {
       stroke: black;
       stroke-width: 1024;
       }
       }
       #make-me-a-hanzi-animation-21 {
         animation: keyframes21 0.525065s both;
         animation-delay: 13.843750s;
         animation-timing-function: linear;
       }
    @keyframes keyframes22 {
      from {
       stroke: blue;
       stroke-dashoffset: 426;
       stroke-width: 128;
       }
       58% {
       animation-timing-function: step-end;
       stroke: blue;
       stroke-dashoffset: 0;
       stroke-width: 128;
       }
       to {
       stroke: black;
       stroke-width: 1024;
       }
       }
       #make-me-a-hanzi-animation-22 {
         animation: keyframes22 0.596680s both;
         animation-delay: 14.368815s;
         animation-timing-function: linear;
       }
    @keyframes keyframes23 {
      from {
       stroke: blue;
       stroke-dashoffset: 412;
       stroke-width: 128;
       }
       57% {
       animation-timing-function: step-end;
       stroke: blue;
       stroke-dashoffset: 0;
       stroke-width: 128;
       }
       to {
       stroke: black;
       stroke-width: 1024;
       }
       }
       #make-me-a-hanzi-animation-23 {
         animation: keyframes23 0.585286s both;
         animation-delay: 14.965495s;
         animation-timing-function: linear;
       }
    @keyframes keyframes24 {
      from {
       stroke: blue;
       stroke-dashoffset: 414;
       stroke-width: 128;
       }
       57% {
       animation-timing-function: step-end;
       stroke: blue;
       stroke-dashoffset: 0;
       stroke-width: 128;
       }
       to {
       stroke: black;
       stroke-width: 1024;
       }
       }
       #make-me-a-hanzi-animation-24 {
         animation: keyframes24 0.586914s both;
         animation-delay: 15.550781s;
         animation-timing-function: linear;
       }
    @keyframes keyframes25 {
      from {
       stroke: blue;
       stroke-dashoffset: 470;
       stroke-width: 128;
       }
       60% {
       animation-timing-function: step-end;
       stroke: blue;
       stroke-dashoffset: 0;
       stroke-width: 128;
       }
       to {
       stroke: black;
       stroke-width: 1024;
       }
       }
       #make-me-a-hanzi-animation-25 {
         animation: keyframes25 0.632487s both;
         animation-delay: 16.137695s;
         animation-timing-function: linear;
       }
    @keyframes keyframes26 {
      from {
       stroke: blue;
       stroke-dashoffset: 496;
       stroke-width: 128;
       }
       62% {
       animation-timing-function: step-end;
       stroke: blue;
       stroke-dashoffset: 0;
       stroke-width: 128;
       }
       to {
       stroke: black;
       stroke-width: 1024;
       }
       }
       #make-me-a-hanzi-animation-26 {
         animation: keyframes26 0.653646s both;
         animation-delay: 16.770182s;
         animation-timing-function: linear;
       }
</style>
<path d="M 200.0 697.0 Q 191.0 701.0 158.0 705.0 Q 148.0 706.0 144.0 702.0 Q 140.0 696.0 148.0 682.0 Q 176.0 636.0 197.0 557.0 Q 201.0 535.0 217.0 519.0 Q 233.0 501.0 238.0 515.0 Q 239.0 522.0 239.0 534.0 L 235.0 562.0 Q 234.0 565.0 234.0 567.0 Q 216.0 643.0 210.0 670.0 C 204.0 696.0 204.0 696.0 200.0 697.0 Z" fill="lightgray"></path> 
<path d="M 357.0 586.0 Q 373.0 662.0 395.0 684.0 Q 416.0 709.0 393.0 721.0 Q 374.0 731.0 349.0 747.0 Q 331.0 756.0 314.0 745.0 Q 281.0 718.0 200.0 697.0 C 171.0 689.0 183.0 658.0 210.0 670.0 Q 219.0 676.0 295.0 696.0 Q 317.0 703.0 324.0 694.0 Q 331.0 690.0 324.0 660.0 Q 317.0 629.0 310.0 590.0 C 305.0 560.0 351.0 557.0 357.0 586.0 Z" fill="lightgray"></path> 
<path d="M 294.0 549.0 Q 319.0 556.0 362.0 565.0 Q 369.0 566.0 370.0 574.0 Q 370.0 578.0 357.0 586.0 L 310.0 590.0 Q 307.0 590.0 306.0 589.0 Q 266.0 573.0 235.0 562.0 C 207.0 552.0 210.0 526.0 239.0 534.0 Q 243.0 535.0 250.0 537.0 Q 251.0 538.0 257.0 539.0 L 294.0 549.0 Z" fill="lightgray"></path> 
<path d="M 312.0 239.0 Q 313.0 333.0 315.0 410.0 L 316.0 444.0 Q 316.0 474.0 318.0 506.0 Q 324.0 527.0 294.0 549.0 C 271.0 568.0 247.0 567.0 257.0 539.0 Q 269.0 515.0 272.0 381.0 Q 272.0 321.0 274.0 225.0 C 275.0 195.0 312.0 209.0 312.0 239.0 Z" fill="lightgray"></path> 
<path d="M 315.0 410.0 Q 354.0 422.0 381.0 430.0 Q 400.0 439.0 391.0 448.0 Q 378.0 458.0 356.0 457.0 Q 340.0 456.0 316.0 444.0 C 289.0 431.0 286.0 401.0 315.0 410.0 Z" fill="lightgray"></path> 
<path d="M 222.0 207.0 Q 207.0 339.0 211.0 374.0 Q 212.0 395.0 198.0 405.0 Q 176.0 421.0 151.0 427.0 Q 138.0 431.0 131.0 425.0 Q 124.0 419.0 131.0 406.0 Q 149.0 378.0 158.0 348.0 Q 165.0 317.0 185.0 195.0 C 190.0 165.0 225.0 177.0 222.0 207.0 Z" fill="lightgray"></path> 
<path d="M 185.0 195.0 Q 115.0 174.0 95.0 173.0 Q 83.0 172.0 82.0 161.0 Q 81.0 149.0 90.0 142.0 Q 111.0 129.0 142.0 113.0 Q 152.0 112.0 162.0 119.0 Q 202.0 152.0 351.0 225.0 Q 373.0 237.0 390.0 250.0 Q 400.0 257.0 401.0 266.0 Q 397.0 270.0 385.0 267.0 Q 349.0 254.0 312.0 239.0 L 274.0 225.0 Q 246.0 218.0 222.0 207.0 L 185.0 195.0 Z" fill="lightgray"></path> 
<path d="M 599.0 727.0 Q 596.0 755.0 595.0 776.0 Q 596.0 792.0 578.0 798.0 Q 545.0 816.0 524.0 808.0 Q 508.0 799.0 522.0 783.0 Q 546.0 755.0 555.0 721.0 L 564.0 689.0 Q 577.0 635.0 588.0 624.0 Q 600.0 615.0 604.0 626.0 Q 605.0 633.0 601.0 701.0 L 599.0 727.0 Z" fill="lightgray"></path> 
<path d="M 601.0 701.0 Q 638.0 713.0 636.0 725.0 Q 635.0 729.0 623.0 732.0 Q 611.0 731.0 599.0 727.0 L 555.0 721.0 Q 477.0 712.0 423.0 706.0 Q 413.0 706.0 412.0 702.0 Q 409.0 695.0 416.0 687.0 Q 429.0 674.0 453.0 665.0 Q 469.0 658.0 484.0 663.0 Q 521.0 676.0 564.0 689.0 L 601.0 701.0 Z" fill="lightgray"></path> 
<path d="M 776.0 747.0 Q 794.0 784.0 808.0 805.0 Q 821.0 818.0 813.0 827.0 Q 803.0 842.0 774.0 859.0 Q 761.0 868.0 745.0 861.0 Q 736.0 857.0 742.0 846.0 Q 755.0 810.0 706.0 675.0 Q 699.0 656.0 698.0 643.0 Q 699.0 631.0 712.0 638.0 Q 722.0 645.0 761.0 715.0 L 776.0 747.0 Z" fill="lightgray"></path> 
<path d="M 761.0 715.0 Q 773.0 709.0 812.0 715.0 Q 854.0 724.0 923.0 716.0 Q 936.0 715.0 939.0 722.0 Q 943.0 731.0 933.0 742.0 Q 896.0 776.0 817.0 754.0 Q 798.0 753.0 776.0 747.0 C 747.0 739.0 733.0 724.0 761.0 715.0 Z" fill="lightgray"></path> 
<path d="M 463.0 181.0 Q 463.0 337.0 465.0 383.0 L 465.0 408.0 Q 465.0 433.0 467.0 453.0 L 468.0 480.0 Q 471.0 514.0 474.0 531.0 Q 474.0 534.0 474.0 536.0 C 475.0 545.0 475.0 545.0 460.0 556.0 Q 441.0 572.0 419.0 579.0 Q 410.0 580.0 405.0 573.0 Q 402.0 569.0 408.0 559.0 Q 459.0 436.0 421.0 170.0 Q 414.0 128.0 399.0 83.0 Q 392.0 61.0 396.0 43.0 Q 403.0 13.0 414.0 2.0 Q 424.0 -11.0 433.0 2.0 Q 461.0 33.0 463.0 175.0 L 463.0 181.0 Z" fill="lightgray"></path> 
<path d="M 555.0 397.0 Q 556.0 396.0 559.0 391.0 Q 575.0 366.0 593.0 387.0 Q 603.0 399.0 610.0 444.0 Q 616.0 507.0 635.0 533.0 Q 645.0 546.0 635.0 559.0 Q 620.0 572.0 596.0 585.0 Q 584.0 591.0 571.0 585.0 Q 519.0 566.0 460.0 556.0 C 430.0 551.0 445.0 529.0 474.0 536.0 Q 558.0 558.0 571.0 550.0 Q 577.0 547.0 575.0 528.0 Q 566.0 426.0 563.0 420.0 C 558.0 393.0 552.0 401.0 555.0 397.0 Z" fill="lightgray"></path> 
<path d="M 467.0 453.0 Q 467.0 454.0 469.0 454.0 Q 509.0 464.0 540.0 470.0 Q 558.0 476.0 550.0 484.0 Q 540.0 494.0 520.0 495.0 Q 502.0 495.0 468.0 480.0 C 440.0 468.0 440.0 441.0 467.0 453.0 Z" fill="lightgray"></path> 
<path d="M 465.0 383.0 Q 516.0 393.0 555.0 397.0 C 585.0 400.0 590.0 406.0 563.0 420.0 Q 556.0 424.0 545.0 426.0 Q 512.0 429.0 465.0 408.0 C 438.0 396.0 436.0 377.0 465.0 383.0 Z" fill="lightgray"></path> 
<path d="M 717.0 601.0 Q 708.0 605.0 689.0 611.0 Q 679.0 615.0 676.0 611.0 Q 672.0 607.0 676.0 594.0 Q 695.0 539.0 700.0 453.0 Q 700.0 428.0 712.0 408.0 Q 724.0 390.0 730.0 402.0 Q 731.0 406.0 734.0 413.0 L 736.0 436.0 Q 736.0 458.0 733.0 492.0 L 731.0 516.0 Q 728.0 559.0 728.0 575.0 C 728.0 597.0 728.0 597.0 717.0 601.0 Z" fill="lightgray"></path> 
<path d="M 858.0 426.0 Q 870.0 33.0 849.0 1.0 Q 845.0 -5.0 826.0 0.0 Q 801.0 4.0 774.0 10.0 Q 755.0 14.0 757.0 6.0 Q 814.0 -37.0 844.0 -68.0 Q 857.0 -84.0 871.0 -89.0 Q 878.0 -92.0 887.0 -83.0 Q 920.0 -38.0 919.0 12.0 Q 906.0 199.0 901.0 503.0 Q 900.0 555.0 912.0 579.0 Q 922.0 597.0 912.0 606.0 Q 893.0 622.0 859.0 636.0 Q 843.0 642.0 829.0 636.0 Q 786.0 612.0 717.0 601.0 C 688.0 595.0 699.0 570.0 728.0 575.0 Q 734.0 575.0 819.0 594.0 Q 835.0 597.0 842.0 588.0 Q 854.0 576.0 854.0 537.0 Q 855.0 495.0 857.0 455.0 L 858.0 426.0 Z" fill="lightgray"></path> 
<path d="M 733.0 492.0 Q 781.0 502.0 818.0 507.0 Q 836.0 511.0 829.0 520.0 Q 820.0 530.0 800.0 534.0 Q 766.0 537.0 731.0 516.0 C 705.0 501.0 704.0 486.0 733.0 492.0 Z" fill="lightgray"></path> 
<path d="M 734.0 413.0 Q 804.0 422.0 858.0 426.0 C 888.0 428.0 886.0 448.0 857.0 455.0 Q 856.0 456.0 853.0 456.0 Q 835.0 460.0 736.0 436.0 C 707.0 429.0 704.0 409.0 734.0 413.0 Z" fill="lightgray"></path> 
<path d="M 547.0 239.0 L 605.0 320.0 Q 612.0 330.0 608.0 337.0 Q 604.0 346.0 584.0 348.0 Q 562.0 351.0 553.0 347.0 Q 549.0 346.0 548.0 335.0 Q 548.0 287.0 465.0 182.0 Q 464.0 182.0 463.0 181.0 C 456.0 174.0 456.0 174.0 463.0 175.0 Q 462.0 174.0 472.0 176.0 Q 496.0 183.0 528.0 217.0 L 547.0 239.0 Z" fill="lightgray"></path> 
<path d="M 578.0 40.0 Q 578.0 163.0 580.0 180.0 Q 584.0 201.0 558.0 229.0 Q 554.0 235.0 547.0 239.0 C 523.0 257.0 511.0 242.0 528.0 217.0 Q 547.0 198.0 538.0 88.0 Q 520.0 7.0 548.0 -22.0 Q 561.0 -32.0 568.0 -14.0 Q 572.0 -1.0 575.0 13.0 L 578.0 40.0 Z" fill="lightgray"></path> 
<path d="M 653.0 373.0 Q 668.0 360.0 685.0 342.0 Q 694.0 333.0 704.0 334.0 Q 711.0 334.0 714.0 343.0 Q 717.0 352.0 711.0 371.0 Q 708.0 383.0 689.0 392.0 Q 643.0 407.0 636.0 404.0 Q 632.0 403.0 633.0 393.0 Q 636.0 386.0 653.0 373.0 Z" fill="lightgray"></path> 
<path d="M 701.0 273.0 Q 731.0 282.0 766.0 290.0 Q 785.0 296.0 788.0 298.0 Q 794.0 305.0 790.0 310.0 Q 786.0 317.0 765.0 322.0 Q 746.0 325.0 680.0 301.0 Q 653.0 294.0 620.0 288.0 Q 595.0 284.0 613.0 272.0 Q 632.0 263.0 667.0 265.0 L 701.0 273.0 Z" fill="lightgray"></path> 
<path d="M 715.0 191.0 Q 745.0 198.0 773.0 202.0 Q 792.0 205.0 785.0 216.0 Q 776.0 228.0 755.0 231.0 Q 739.0 232.0 717.0 227.0 L 674.0 214.0 Q 641.0 205.0 614.0 196.0 Q 601.0 193.0 617.0 181.0 Q 624.0 175.0 641.0 178.0 Q 657.0 182.0 675.0 184.0 L 715.0 191.0 Z" fill="lightgray"></path> 
<path d="M 711.0 123.0 Q 742.0 130.0 773.0 134.0 Q 792.0 137.0 785.0 148.0 Q 776.0 160.0 755.0 163.0 Q 739.0 164.0 713.0 158.0 L 675.0 146.0 Q 644.0 137.0 618.0 128.0 Q 603.0 125.0 621.0 113.0 Q 622.0 113.0 675.0 116.0 L 711.0 123.0 Z" fill="lightgray"></path> 
<path d="M 709.0 66.0 Q 710.0 96.0 711.0 123.0 L 713.0 158.0 Q 713.0 176.0 715.0 191.0 L 717.0 227.0 Q 721.0 254.0 717.0 259.0 Q 710.0 266.0 701.0 273.0 C 678.0 292.0 655.0 292.0 667.0 265.0 Q 673.0 259.0 674.0 214.0 L 675.0 184.0 Q 675.0 168.0 675.0 146.0 L 675.0 116.0 Q 675.0 91.0 675.0 58.0 C 675.0 28.0 708.0 36.0 709.0 66.0 Z" fill="lightgray"></path> 
<path d="M 675.0 58.0 Q 671.0 58.0 668.0 57.0 Q 625.0 50.0 578.0 40.0 C 549.0 34.0 545.0 17.0 575.0 13.0 Q 590.0 10.0 601.0 14.0 Q 670.0 35.0 789.0 38.0 Q 799.0 38.0 807.0 39.0 Q 820.0 39.0 823.0 45.0 Q 826.0 52.0 815.0 61.0 Q 779.0 86.0 713.0 67.0 Q 710.0 67.0 709.0 66.0 L 675.0 58.0 Z" fill="lightgray"></path> 
      <clipPath id="make-me-a-hanzi-clip-0">
      <path d="M 200.0 697.0 Q 191.0 701.0 158.0 705.0 Q 148.0 706.0 144.0 702.0 Q 140.0 696.0 148.0 682.0 Q 176.0 636.0 197.0 557.0 Q 201.0 535.0 217.0 519.0 Q 233.0 501.0 238.0 515.0 Q 239.0 522.0 239.0 534.0 L 235.0 562.0 Q 234.0 565.0 234.0 567.0 Q 216.0 643.0 210.0 670.0 C 204.0 696.0 204.0 696.0 200.0 697.0 Z" fill="lightgray"></path>
      </clipPath>
      <path clip-path="url(#make-me-a-hanzi-clip-0)" d="M 152.0 697.0 L 184.0 668.0 L 228.0 520.0 " fill="none" id="make-me-a-hanzi-animation-0" stroke-dasharray="326 652" stroke-linecap="round"></path>

      <clipPath id="make-me-a-hanzi-clip-1">
      <path d="M 357.0 586.0 Q 373.0 662.0 395.0 684.0 Q 416.0 709.0 393.0 721.0 Q 374.0 731.0 349.0 747.0 Q 331.0 756.0 314.0 745.0 Q 281.0 718.0 200.0 697.0 C 171.0 689.0 183.0 658.0 210.0 670.0 Q 219.0 676.0 295.0 696.0 Q 317.0 703.0 324.0 694.0 Q 331.0 690.0 324.0 660.0 Q 317.0 629.0 310.0 590.0 C 305.0 560.0 351.0 557.0 357.0 586.0 Z" fill="lightgray"></path>
      </clipPath>
      <path clip-path="url(#make-me-a-hanzi-clip-1)" d="M 209.0 677.0 L 232.0 694.0 L 258.0 698.0 L 310.0 719.0 L 340.0 719.0 L 361.0 699.0 L 338.0 611.0 L 318.0 596.0 " fill="none" id="make-me-a-hanzi-animation-1" stroke-dasharray="414 828" stroke-linecap="round"></path>

      <clipPath id="make-me-a-hanzi-clip-2">
      <path d="M 294.0 549.0 Q 319.0 556.0 362.0 565.0 Q 369.0 566.0 370.0 574.0 Q 370.0 578.0 357.0 586.0 L 310.0 590.0 Q 307.0 590.0 306.0 589.0 Q 266.0 573.0 235.0 562.0 C 207.0 552.0 210.0 526.0 239.0 534.0 Q 243.0 535.0 250.0 537.0 Q 251.0 538.0 257.0 539.0 L 294.0 549.0 Z" fill="lightgray"></path>
      </clipPath>
      <path clip-path="url(#make-me-a-hanzi-clip-2)" d="M 243.0 542.0 L 288.0 566.0 L 316.0 573.0 L 362.0 573.0 " fill="none" id="make-me-a-hanzi-animation-2" stroke-dasharray="254 508" stroke-linecap="round"></path>

      <clipPath id="make-me-a-hanzi-clip-3">
      <path d="M 312.0 239.0 Q 313.0 333.0 315.0 410.0 L 316.0 444.0 Q 316.0 474.0 318.0 506.0 Q 324.0 527.0 294.0 549.0 C 271.0 568.0 247.0 567.0 257.0 539.0 Q 269.0 515.0 272.0 381.0 Q 272.0 321.0 274.0 225.0 C 275.0 195.0 312.0 209.0 312.0 239.0 Z" fill="lightgray"></path>
      </clipPath>
      <path clip-path="url(#make-me-a-hanzi-clip-3)" d="M 264.0 538.0 L 288.0 521.0 L 291.0 512.0 L 294.0 265.0 L 288.0 244.0 L 278.0 234.0 " fill="none" id="make-me-a-hanzi-animation-3" stroke-dasharray="450 900" stroke-linecap="round"></path>

      <clipPath id="make-me-a-hanzi-clip-4">
      <path d="M 315.0 410.0 Q 354.0 422.0 381.0 430.0 Q 400.0 439.0 391.0 448.0 Q 378.0 458.0 356.0 457.0 Q 340.0 456.0 316.0 444.0 C 289.0 431.0 286.0 401.0 315.0 410.0 Z" fill="lightgray"></path>
      </clipPath>
      <path clip-path="url(#make-me-a-hanzi-clip-4)" d="M 322.0 415.0 L 327.0 427.0 L 343.0 437.0 L 382.0 441.0 " fill="none" id="make-me-a-hanzi-animation-4" stroke-dasharray="199 398" stroke-linecap="round"></path>

      <clipPath id="make-me-a-hanzi-clip-5">
      <path d="M 222.0 207.0 Q 207.0 339.0 211.0 374.0 Q 212.0 395.0 198.0 405.0 Q 176.0 421.0 151.0 427.0 Q 138.0 431.0 131.0 425.0 Q 124.0 419.0 131.0 406.0 Q 149.0 378.0 158.0 348.0 Q 165.0 317.0 185.0 195.0 C 190.0 165.0 225.0 177.0 222.0 207.0 Z" fill="lightgray"></path>
      </clipPath>
      <path clip-path="url(#make-me-a-hanzi-clip-5)" d="M 139.0 417.0 L 180.0 378.0 L 201.0 221.0 L 188.0 208.0 " fill="none" id="make-me-a-hanzi-animation-5" stroke-dasharray="361 722" stroke-linecap="round"></path>

      <clipPath id="make-me-a-hanzi-clip-6">
      <path d="M 185.0 195.0 Q 115.0 174.0 95.0 173.0 Q 83.0 172.0 82.0 161.0 Q 81.0 149.0 90.0 142.0 Q 111.0 129.0 142.0 113.0 Q 152.0 112.0 162.0 119.0 Q 202.0 152.0 351.0 225.0 Q 373.0 237.0 390.0 250.0 Q 400.0 257.0 401.0 266.0 Q 397.0 270.0 385.0 267.0 Q 349.0 254.0 312.0 239.0 L 274.0 225.0 Q 246.0 218.0 222.0 207.0 L 185.0 195.0 Z" fill="lightgray"></path>
      </clipPath>
      <path clip-path="url(#make-me-a-hanzi-clip-6)" d="M 94.0 161.0 L 105.0 154.0 L 153.0 152.0 L 396.0 263.0 " fill="none" id="make-me-a-hanzi-animation-6" stroke-dasharray="456 912" stroke-linecap="round"></path>

      <clipPath id="make-me-a-hanzi-clip-7">
      <path d="M 599.0 727.0 Q 596.0 755.0 595.0 776.0 Q 596.0 792.0 578.0 798.0 Q 545.0 816.0 524.0 808.0 Q 508.0 799.0 522.0 783.0 Q 546.0 755.0 555.0 721.0 L 564.0 689.0 Q 577.0 635.0 588.0 624.0 Q 600.0 615.0 604.0 626.0 Q 605.0 633.0 601.0 701.0 L 599.0 727.0 Z" fill="lightgray"></path>
      </clipPath>
      <path clip-path="url(#make-me-a-hanzi-clip-7)" d="M 529.0 795.0 L 566.0 771.0 L 596.0 628.0 " fill="none" id="make-me-a-hanzi-animation-7" stroke-dasharray="318 636" stroke-linecap="round"></path>

      <clipPath id="make-me-a-hanzi-clip-8">
      <path d="M 601.0 701.0 Q 638.0 713.0 636.0 725.0 Q 635.0 729.0 623.0 732.0 Q 611.0 731.0 599.0 727.0 L 555.0 721.0 Q 477.0 712.0 423.0 706.0 Q 413.0 706.0 412.0 702.0 Q 409.0 695.0 416.0 687.0 Q 429.0 674.0 453.0 665.0 Q 469.0 658.0 484.0 663.0 Q 521.0 676.0 564.0 689.0 L 601.0 701.0 Z" fill="lightgray"></path>
      </clipPath>
      <path clip-path="url(#make-me-a-hanzi-clip-8)" d="M 420.0 696.0 L 454.0 687.0 L 482.0 688.0 L 627.0 724.0 " fill="none" id="make-me-a-hanzi-animation-8" stroke-dasharray="341 682" stroke-linecap="round"></path>

      <clipPath id="make-me-a-hanzi-clip-9">
      <path d="M 776.0 747.0 Q 794.0 784.0 808.0 805.0 Q 821.0 818.0 813.0 827.0 Q 803.0 842.0 774.0 859.0 Q 761.0 868.0 745.0 861.0 Q 736.0 857.0 742.0 846.0 Q 755.0 810.0 706.0 675.0 Q 699.0 656.0 698.0 643.0 Q 699.0 631.0 712.0 638.0 Q 722.0 645.0 761.0 715.0 L 776.0 747.0 Z" fill="lightgray"></path>
      </clipPath>
      <path clip-path="url(#make-me-a-hanzi-clip-9)" d="M 755.0 851.0 L 777.0 817.0 L 741.0 712.0 L 707.0 646.0 " fill="none" id="make-me-a-hanzi-animation-9" stroke-dasharray="354 708" stroke-linecap="round"></path>

      <clipPath id="make-me-a-hanzi-clip-10">
      <path d="M 761.0 715.0 Q 773.0 709.0 812.0 715.0 Q 854.0 724.0 923.0 716.0 Q 936.0 715.0 939.0 722.0 Q 943.0 731.0 933.0 742.0 Q 896.0 776.0 817.0 754.0 Q 798.0 753.0 776.0 747.0 C 747.0 739.0 733.0 724.0 761.0 715.0 Z" fill="lightgray"></path>
      </clipPath>
      <path clip-path="url(#make-me-a-hanzi-clip-10)" d="M 766.0 719.0 L 789.0 731.0 L 848.0 741.0 L 889.0 741.0 L 929.0 727.0 " fill="none" id="make-me-a-hanzi-animation-10" stroke-dasharray="297 594" stroke-linecap="round"></path>

      <clipPath id="make-me-a-hanzi-clip-11">
      <path d="M 463.0 181.0 Q 463.0 337.0 465.0 383.0 L 465.0 408.0 Q 465.0 433.0 467.0 453.0 L 468.0 480.0 Q 471.0 514.0 474.0 531.0 Q 474.0 534.0 474.0 536.0 C 475.0 545.0 475.0 545.0 460.0 556.0 Q 441.0 572.0 419.0 579.0 Q 410.0 580.0 405.0 573.0 Q 402.0 569.0 408.0 559.0 Q 459.0 436.0 421.0 170.0 Q 414.0 128.0 399.0 83.0 Q 392.0 61.0 396.0 43.0 Q 403.0 13.0 414.0 2.0 Q 424.0 -11.0 433.0 2.0 Q 461.0 33.0 463.0 175.0 L 463.0 181.0 Z" fill="lightgray"></path>
      </clipPath>
      <path clip-path="url(#make-me-a-hanzi-clip-11)" d="M 415.0 568.0 L 431.0 554.0 L 446.0 528.0 L 452.0 389.0 L 443.0 163.0 L 424.0 60.0 L 424.0 6.0 " fill="none" id="make-me-a-hanzi-animation-11" stroke-dasharray="703 1406" stroke-linecap="round"></path>

      <clipPath id="make-me-a-hanzi-clip-12">
      <path d="M 555.0 397.0 Q 556.0 396.0 559.0 391.0 Q 575.0 366.0 593.0 387.0 Q 603.0 399.0 610.0 444.0 Q 616.0 507.0 635.0 533.0 Q 645.0 546.0 635.0 559.0 Q 620.0 572.0 596.0 585.0 Q 584.0 591.0 571.0 585.0 Q 519.0 566.0 460.0 556.0 C 430.0 551.0 445.0 529.0 474.0 536.0 Q 558.0 558.0 571.0 550.0 Q 577.0 547.0 575.0 528.0 Q 566.0 426.0 563.0 420.0 C 558.0 393.0 552.0 401.0 555.0 397.0 Z" fill="lightgray"></path>
      </clipPath>
      <path clip-path="url(#make-me-a-hanzi-clip-12)" d="M 468.0 554.0 L 479.0 547.0 L 574.0 568.0 L 594.0 559.0 L 606.0 543.0 L 592.0 487.0 L 584.0 416.0 L 577.0 400.0 L 566.0 400.0 " fill="none" id="make-me-a-hanzi-animation-12" stroke-dasharray="438 876" stroke-linecap="round"></path>

      <clipPath id="make-me-a-hanzi-clip-13">
      <path d="M 467.0 453.0 Q 467.0 454.0 469.0 454.0 Q 509.0 464.0 540.0 470.0 Q 558.0 476.0 550.0 484.0 Q 540.0 494.0 520.0 495.0 Q 502.0 495.0 468.0 480.0 C 440.0 468.0 440.0 441.0 467.0 453.0 Z" fill="lightgray"></path>
      </clipPath>
      <path clip-path="url(#make-me-a-hanzi-clip-13)" d="M 476.0 461.0 L 481.0 472.0 L 495.0 476.0 L 543.0 479.0 " fill="none" id="make-me-a-hanzi-animation-13" stroke-dasharray="203 406" stroke-linecap="round"></path>

      <clipPath id="make-me-a-hanzi-clip-14">
      <path d="M 465.0 383.0 Q 516.0 393.0 555.0 397.0 C 585.0 400.0 590.0 406.0 563.0 420.0 Q 556.0 424.0 545.0 426.0 Q 512.0 429.0 465.0 408.0 C 438.0 396.0 436.0 377.0 465.0 383.0 Z" fill="lightgray"></path>
      </clipPath>
      <path clip-path="url(#make-me-a-hanzi-clip-14)" d="M 472.0 389.0 L 479.0 400.0 L 556.0 416.0 " fill="none" id="make-me-a-hanzi-animation-14" stroke-dasharray="220 440" stroke-linecap="round"></path>

      <clipPath id="make-me-a-hanzi-clip-15">
      <path d="M 717.0 601.0 Q 708.0 605.0 689.0 611.0 Q 679.0 615.0 676.0 611.0 Q 672.0 607.0 676.0 594.0 Q 695.0 539.0 700.0 453.0 Q 700.0 428.0 712.0 408.0 Q 724.0 390.0 730.0 402.0 Q 731.0 406.0 734.0 413.0 L 736.0 436.0 Q 736.0 458.0 733.0 492.0 L 731.0 516.0 Q 728.0 559.0 728.0 575.0 C 728.0 597.0 728.0 597.0 717.0 601.0 Z" fill="lightgray"></path>
      </clipPath>
      <path clip-path="url(#make-me-a-hanzi-clip-15)" d="M 683.0 605.0 L 706.0 573.0 L 722.0 407.0 " fill="none" id="make-me-a-hanzi-animation-15" stroke-dasharray="334 668" stroke-linecap="round"></path>

      <clipPath id="make-me-a-hanzi-clip-16">
      <path d="M 858.0 426.0 Q 870.0 33.0 849.0 1.0 Q 845.0 -5.0 826.0 0.0 Q 801.0 4.0 774.0 10.0 Q 755.0 14.0 757.0 6.0 Q 814.0 -37.0 844.0 -68.0 Q 857.0 -84.0 871.0 -89.0 Q 878.0 -92.0 887.0 -83.0 Q 920.0 -38.0 919.0 12.0 Q 906.0 199.0 901.0 503.0 Q 900.0 555.0 912.0 579.0 Q 922.0 597.0 912.0 606.0 Q 893.0 622.0 859.0 636.0 Q 843.0 642.0 829.0 636.0 Q 786.0 612.0 717.0 601.0 C 688.0 595.0 699.0 570.0 728.0 575.0 Q 734.0 575.0 819.0 594.0 Q 835.0 597.0 842.0 588.0 Q 854.0 576.0 854.0 537.0 Q 855.0 495.0 857.0 455.0 L 858.0 426.0 Z" fill="lightgray"></path>
      </clipPath>
      <path clip-path="url(#make-me-a-hanzi-clip-16)" d="M 726.0 597.0 L 736.0 590.0 L 841.0 616.0 L 857.0 610.0 L 880.0 585.0 L 877.0 503.0 L 888.0 67.0 L 884.0 -6.0 L 868.0 -35.0 L 766.0 4.0 " fill="none" id="make-me-a-hanzi-animation-16" stroke-dasharray="1033 2066" stroke-linecap="round"></path>

      <clipPath id="make-me-a-hanzi-clip-17">
      <path d="M 733.0 492.0 Q 781.0 502.0 818.0 507.0 Q 836.0 511.0 829.0 520.0 Q 820.0 530.0 800.0 534.0 Q 766.0 537.0 731.0 516.0 C 705.0 501.0 704.0 486.0 733.0 492.0 Z" fill="lightgray"></path>
      </clipPath>
      <path clip-path="url(#make-me-a-hanzi-clip-17)" d="M 740.0 499.0 L 745.0 509.0 L 781.0 518.0 L 821.0 515.0 " fill="none" id="make-me-a-hanzi-animation-17" stroke-dasharray="216 432" stroke-linecap="round"></path>

      <clipPath id="make-me-a-hanzi-clip-18">
      <path d="M 734.0 413.0 Q 804.0 422.0 858.0 426.0 C 888.0 428.0 886.0 448.0 857.0 455.0 Q 856.0 456.0 853.0 456.0 Q 835.0 460.0 736.0 436.0 C 707.0 429.0 704.0 409.0 734.0 413.0 Z" fill="lightgray"></path>
      </clipPath>
      <path clip-path="url(#make-me-a-hanzi-clip-18)" d="M 742.0 418.0 L 748.0 429.0 L 842.0 441.0 L 853.0 448.0 " fill="none" id="make-me-a-hanzi-animation-18" stroke-dasharray="248 496" stroke-linecap="round"></path>

      <clipPath id="make-me-a-hanzi-clip-19">
      <path d="M 547.0 239.0 L 605.0 320.0 Q 612.0 330.0 608.0 337.0 Q 604.0 346.0 584.0 348.0 Q 562.0 351.0 553.0 347.0 Q 549.0 346.0 548.0 335.0 Q 548.0 287.0 465.0 182.0 Q 464.0 182.0 463.0 181.0 C 456.0 174.0 456.0 174.0 463.0 175.0 Q 462.0 174.0 472.0 176.0 Q 496.0 183.0 528.0 217.0 L 547.0 239.0 Z" fill="lightgray"></path>
      </clipPath>
      <path clip-path="url(#make-me-a-hanzi-clip-19)" d="M 595.0 331.0 L 574.0 323.0 L 538.0 254.0 L 502.0 208.0 L 466.0 178.0 " fill="none" id="make-me-a-hanzi-animation-19" stroke-dasharray="334 668" stroke-linecap="round"></path>

      <clipPath id="make-me-a-hanzi-clip-20">
      <path d="M 578.0 40.0 Q 578.0 163.0 580.0 180.0 Q 584.0 201.0 558.0 229.0 Q 554.0 235.0 547.0 239.0 C 523.0 257.0 511.0 242.0 528.0 217.0 Q 547.0 198.0 538.0 88.0 Q 520.0 7.0 548.0 -22.0 Q 561.0 -32.0 568.0 -14.0 Q 572.0 -1.0 575.0 13.0 L 578.0 40.0 Z" fill="lightgray"></path>
      </clipPath>
      <path clip-path="url(#make-me-a-hanzi-clip-20)" d="M 548.0 229.0 L 560.0 186.0 L 556.0 -14.0 " fill="none" id="make-me-a-hanzi-animation-20" stroke-dasharray="373 746" stroke-linecap="round"></path>

      <clipPath id="make-me-a-hanzi-clip-21">
      <path d="M 653.0 373.0 Q 668.0 360.0 685.0 342.0 Q 694.0 333.0 704.0 334.0 Q 711.0 334.0 714.0 343.0 Q 717.0 352.0 711.0 371.0 Q 708.0 383.0 689.0 392.0 Q 643.0 407.0 636.0 404.0 Q 632.0 403.0 633.0 393.0 Q 636.0 386.0 653.0 373.0 Z" fill="lightgray"></path>
      </clipPath>
      <path clip-path="url(#make-me-a-hanzi-clip-21)" d="M 639.0 397.0 L 686.0 371.0 L 701.0 347.0 " fill="none" id="make-me-a-hanzi-animation-21" stroke-dasharray="210 420" stroke-linecap="round"></path>

      <clipPath id="make-me-a-hanzi-clip-22">
      <path d="M 701.0 273.0 Q 731.0 282.0 766.0 290.0 Q 785.0 296.0 788.0 298.0 Q 794.0 305.0 790.0 310.0 Q 786.0 317.0 765.0 322.0 Q 746.0 325.0 680.0 301.0 Q 653.0 294.0 620.0 288.0 Q 595.0 284.0 613.0 272.0 Q 632.0 263.0 667.0 265.0 L 701.0 273.0 Z" fill="lightgray"></path>
      </clipPath>
      <path clip-path="url(#make-me-a-hanzi-clip-22)" d="M 615.0 281.0 L 658.0 279.0 L 754.0 305.0 L 781.0 305.0 " fill="none" id="make-me-a-hanzi-animation-22" stroke-dasharray="298 596" stroke-linecap="round"></path>

      <clipPath id="make-me-a-hanzi-clip-23">
      <path d="M 715.0 191.0 Q 745.0 198.0 773.0 202.0 Q 792.0 205.0 785.0 216.0 Q 776.0 228.0 755.0 231.0 Q 739.0 232.0 717.0 227.0 L 674.0 214.0 Q 641.0 205.0 614.0 196.0 Q 601.0 193.0 617.0 181.0 Q 624.0 175.0 641.0 178.0 Q 657.0 182.0 675.0 184.0 L 715.0 191.0 Z" fill="lightgray"></path>
      </clipPath>
      <path clip-path="url(#make-me-a-hanzi-clip-23)" d="M 624.0 190.0 L 739.0 214.0 L 777.0 211.0 " fill="none" id="make-me-a-hanzi-animation-23" stroke-dasharray="284 568" stroke-linecap="round"></path>

      <clipPath id="make-me-a-hanzi-clip-24">
      <path d="M 711.0 123.0 Q 742.0 130.0 773.0 134.0 Q 792.0 137.0 785.0 148.0 Q 776.0 160.0 755.0 163.0 Q 739.0 164.0 713.0 158.0 L 675.0 146.0 Q 644.0 137.0 618.0 128.0 Q 603.0 125.0 621.0 113.0 Q 622.0 113.0 675.0 116.0 L 711.0 123.0 Z" fill="lightgray"></path>
      </clipPath>
      <path clip-path="url(#make-me-a-hanzi-clip-24)" d="M 622.0 121.0 L 738.0 146.0 L 777.0 143.0 " fill="none" id="make-me-a-hanzi-animation-24" stroke-dasharray="286 572" stroke-linecap="round"></path>

      <clipPath id="make-me-a-hanzi-clip-25">
      <path d="M 709.0 66.0 Q 710.0 96.0 711.0 123.0 L 713.0 158.0 Q 713.0 176.0 715.0 191.0 L 717.0 227.0 Q 721.0 254.0 717.0 259.0 Q 710.0 266.0 701.0 273.0 C 678.0 292.0 655.0 292.0 667.0 265.0 Q 673.0 259.0 674.0 214.0 L 675.0 184.0 Q 675.0 168.0 675.0 146.0 L 675.0 116.0 Q 675.0 91.0 675.0 58.0 C 675.0 28.0 708.0 36.0 709.0 66.0 Z" fill="lightgray"></path>
      </clipPath>
      <path clip-path="url(#make-me-a-hanzi-clip-25)" d="M 673.0 265.0 L 688.0 254.0 L 696.0 237.0 L 693.0 89.0 L 689.0 74.0 L 679.0 66.0 " fill="none" id="make-me-a-hanzi-animation-25" stroke-dasharray="342 684" stroke-linecap="round"></path>

      <clipPath id="make-me-a-hanzi-clip-26">
      <path d="M 675.0 58.0 Q 671.0 58.0 668.0 57.0 Q 625.0 50.0 578.0 40.0 C 549.0 34.0 545.0 17.0 575.0 13.0 Q 590.0 10.0 601.0 14.0 Q 670.0 35.0 789.0 38.0 Q 799.0 38.0 807.0 39.0 Q 820.0 39.0 823.0 45.0 Q 826.0 52.0 815.0 61.0 Q 779.0 86.0 713.0 67.0 Q 710.0 67.0 709.0 66.0 L 675.0 58.0 Z" fill="lightgray"></path>
      </clipPath>
      <path clip-path="url(#make-me-a-hanzi-clip-26)" d="M 583.0 19.0 L 592.0 27.0 L 634.0 38.0 L 715.0 51.0 L 770.0 57.0 L 816.0 48.0 " fill="none" id="make-me-a-hanzi-animation-26" stroke-dasharray="368 736" stroke-linecap="round"></path>

</g>
</svg>
