<svg version="1.1" viewBox="0 0 1024 1024" xmlns="http://www.w3.org/2000/svg">
  <g stroke="lightgray" stroke-dasharray="1,1" stroke-width="1" transform="scale(4, 4)">
    <line x1="0" y1="0" x2="256" y2="256"></line>
    <line x1="256" y1="0" x2="0" y2="256"></line>
    <line x1="128" y1="0" x2="128" y2="256"></line>
    <line x1="0" y1="128" x2="256" y2="128"></line>
  </g>
<g transform="scale(1, -1) translate(0, -900)">
   <style type="text/css">
    @keyframes keyframes0 {
      from {
       stroke: blue;
       stroke-dashoffset: 611;
       stroke-width: 128;
       }
       67% {
       animation-timing-function: step-end;
       stroke: blue;
       stroke-dashoffset: 0;
       stroke-width: 128;
       }
       to {
       stroke: black;
       stroke-width: 1024;
       }
       }
       #make-me-a-hanzi-animation-0 {
         animation: keyframes0 0.747233s both;
         animation-delay: 0.000000s;
         animation-timing-function: linear;
       }
    @keyframes keyframes1 {
      from {
       stroke: blue;
       stroke-dashoffset: 712;
       stroke-width: 128;
       }
       70% {
       animation-timing-function: step-end;
       stroke: blue;
       stroke-dashoffset: 0;
       stroke-width: 128;
       }
       to {
       stroke: black;
       stroke-width: 1024;
       }
       }
       #make-me-a-hanzi-animation-1 {
         animation: keyframes1 0.829427s both;
         animation-delay: 0.747233s;
         animation-timing-function: linear;
       }
    @keyframes keyframes2 {
      from {
       stroke: blue;
       stroke-dashoffset: 1026;
       stroke-width: 128;
       }
       77% {
       animation-timing-function: step-end;
       stroke: blue;
       stroke-dashoffset: 0;
       stroke-width: 128;
       }
       to {
       stroke: black;
       stroke-width: 1024;
       }
       }
       #make-me-a-hanzi-animation-2 {
         animation: keyframes2 1.084961s both;
         animation-delay: 1.576660s;
         animation-timing-function: linear;
       }
    @keyframes keyframes3 {
      from {
       stroke: blue;
       stroke-dashoffset: 615;
       stroke-width: 128;
       }
       67% {
       animation-timing-function: step-end;
       stroke: blue;
       stroke-dashoffset: 0;
       stroke-width: 128;
       }
       to {
       stroke: black;
       stroke-width: 1024;
       }
       }
       #make-me-a-hanzi-animation-3 {
         animation: keyframes3 0.750488s both;
         animation-delay: 2.661621s;
         animation-timing-function: linear;
       }
    @keyframes keyframes4 {
      from {
       stroke: blue;
       stroke-dashoffset: 655;
       stroke-width: 128;
       }
       68% {
       animation-timing-function: step-end;
       stroke: blue;
       stroke-dashoffset: 0;
       stroke-width: 128;
       }
       to {
       stroke: black;
       stroke-width: 1024;
       }
       }
       #make-me-a-hanzi-animation-4 {
         animation: keyframes4 0.783040s both;
         animation-delay: 3.412109s;
         animation-timing-function: linear;
       }
    @keyframes keyframes5 {
      from {
       stroke: blue;
       stroke-dashoffset: 425;
       stroke-width: 128;
       }
       58% {
       animation-timing-function: step-end;
       stroke: blue;
       stroke-dashoffset: 0;
       stroke-width: 128;
       }
       to {
       stroke: black;
       stroke-width: 1024;
       }
       }
       #make-me-a-hanzi-animation-5 {
         animation: keyframes5 0.595866s both;
         animation-delay: 4.195150s;
         animation-timing-function: linear;
       }
    @keyframes keyframes6 {
      from {
       stroke: blue;
       stroke-dashoffset: 511;
       stroke-width: 128;
       }
       62% {
       animation-timing-function: step-end;
       stroke: blue;
       stroke-dashoffset: 0;
       stroke-width: 128;
       }
       to {
       stroke: black;
       stroke-width: 1024;
       }
       }
       #make-me-a-hanzi-animation-6 {
         animation: keyframes6 0.665853s both;
         animation-delay: 4.791016s;
         animation-timing-function: linear;
       }
    @keyframes keyframes7 {
      from {
       stroke: blue;
       stroke-dashoffset: 645;
       stroke-width: 128;
       }
       68% {
       animation-timing-function: step-end;
       stroke: blue;
       stroke-dashoffset: 0;
       stroke-width: 128;
       }
       to {
       stroke: black;
       stroke-width: 1024;
       }
       }
       #make-me-a-hanzi-animation-7 {
         animation: keyframes7 0.774902s both;
         animation-delay: 5.456868s;
         animation-timing-function: linear;
       }
    @keyframes keyframes8 {
      from {
       stroke: blue;
       stroke-dashoffset: 443;
       stroke-width: 128;
       }
       59% {
       animation-timing-function: step-end;
       stroke: blue;
       stroke-dashoffset: 0;
       stroke-width: 128;
       }
       to {
       stroke: black;
       stroke-width: 1024;
       }
       }
       #make-me-a-hanzi-animation-8 {
         animation: keyframes8 0.610514s both;
         animation-delay: 6.231771s;
         animation-timing-function: linear;
       }
    @keyframes keyframes9 {
      from {
       stroke: blue;
       stroke-dashoffset: 1059;
       stroke-width: 128;
       }
       78% {
       animation-timing-function: step-end;
       stroke: blue;
       stroke-dashoffset: 0;
       stroke-width: 128;
       }
       to {
       stroke: black;
       stroke-width: 1024;
       }
       }
       #make-me-a-hanzi-animation-9 {
         animation: keyframes9 1.111816s both;
         animation-delay: 6.842285s;
         animation-timing-function: linear;
       }
</style>
<path d="M 357.0 675.0 Q 486.0 702.0 492.0 706.0 Q 502.0 713.0 497.0 723.0 Q 490.0 735.0 460.0 743.0 Q 433.0 749.0 317.0 715.0 Q 187.0 693.0 145.0 688.0 Q 108.0 684.0 134.0 665.0 Q 161.0 649.0 200.0 648.0 L 239.0 653.0 Q 272.0 659.0 315.0 665.0 L 357.0 675.0 Z" fill="lightgray"></path> 
<path d="M 144.0 494.0 Q 143.0 495.0 142.0 496.0 Q 133.0 503.0 120.0 508.0 Q 111.0 512.0 100.0 509.0 Q 93.0 505.0 98.0 493.0 Q 99.0 483.0 104.0 475.0 Q 122.0 438.0 107.0 208.0 Q 103.0 181.0 94.0 147.0 Q 79.0 99.0 112.0 52.0 Q 122.0 39.0 132.0 51.0 Q 144.0 66.0 145.0 88.0 L 149.0 122.0 Q 150.0 137.0 150.0 155.0 Q 160.0 429.0 163.0 448.0 Q 164.0 461.0 164.0 468.0 C 164.0 480.0 164.0 480.0 144.0 494.0 Z" fill="lightgray"></path> 
<path d="M 393.0 108.0 Q 411.0 80.0 426.0 49.0 Q 436.0 30.0 446.0 27.0 Q 456.0 27.0 465.0 49.0 Q 478.0 88.0 475.0 237.0 Q 469.0 456.0 479.0 487.0 Q 488.0 508.0 476.0 516.0 Q 469.0 526.0 434.0 544.0 Q 424.0 550.0 347.0 529.0 L 317.0 522.0 Q 266.0 513.0 261.0 510.0 L 223.0 504.0 Q 186.0 500.0 144.0 494.0 C 114.0 490.0 135.0 461.0 164.0 468.0 Q 207.0 478.0 223.0 482.0 L 259.0 490.0 Q 284.0 497.0 315.0 500.0 L 344.0 504.0 Q 354.0 507.0 367.0 507.0 Q 400.0 510.0 409.0 498.0 Q 421.0 486.0 421.0 359.0 L 421.0 336.0 Q 421.0 144.0 409.0 131.0 C 401.0 102.0 386.0 119.0 393.0 108.0 Z" fill="lightgray"></path> 
<path d="M 200.0 648.0 Q 222.0 626.0 224.0 509.0 Q 224.0 508.0 223.0 504.0 L 223.0 482.0 Q 220.0 446.0 176.0 313.0 Q 176.0 306.0 183.0 308.0 Q 195.0 311.0 210.0 339.0 Q 258.0 411.0 259.0 490.0 L 261.0 510.0 Q 261.0 606.0 264.0 621.0 Q 268.0 631.0 262.0 640.0 Q 252.0 647.0 239.0 653.0 C 212.0 666.0 183.0 673.0 200.0 648.0 Z" fill="lightgray"></path> 
<path d="M 347.0 529.0 Q 353.0 586.0 373.0 650.0 Q 377.0 660.0 370.0 668.0 Q 366.0 672.0 357.0 675.0 C 330.0 689.0 301.0 692.0 315.0 665.0 Q 327.0 649.0 325.0 612.0 Q 322.0 570.0 317.0 522.0 L 315.0 500.0 Q 296.0 373.0 337.0 336.0 Q 347.0 326.0 392.0 328.0 Q 411.0 329.0 421.0 336.0 C 448.0 348.0 451.0 354.0 421.0 359.0 Q 417.0 360.0 409.0 361.0 Q 366.0 364.0 361.0 368.0 Q 334.0 390.0 344.0 504.0 L 347.0 529.0 Z" fill="lightgray"></path> 
<path d="M 197.0 240.0 Q 181.0 236.0 201.0 222.0 Q 208.0 216.0 225.0 218.0 Q 303.0 231.0 361.0 239.0 Q 383.0 243.0 375.0 255.0 Q 365.0 270.0 339.0 274.0 Q 315.0 277.0 274.0 265.0 Q 234.0 252.0 197.0 240.0 Z" fill="lightgray"></path> 
<path d="M 145.0 88.0 Q 154.0 87.0 165.0 88.0 Q 238.0 101.0 393.0 108.0 C 423.0 109.0 431.0 111.0 409.0 131.0 Q 402.0 138.0 388.0 148.0 Q 372.0 158.0 341.0 151.0 Q 233.0 130.0 149.0 122.0 C 119.0 119.0 115.0 90.0 145.0 88.0 Z" fill="lightgray"></path> 
<path d="M 755.0 483.0 Q 782.0 562.0 809.0 586.0 Q 834.0 613.0 810.0 629.0 Q 791.0 642.0 762.0 662.0 Q 744.0 674.0 688.0 645.0 Q 627.0 621.0 541.0 607.0 Q 529.0 607.0 531.0 600.0 Q 532.0 593.0 546.0 586.0 Q 565.0 577.0 634.0 594.0 Q 722.0 616.0 730.0 604.0 Q 737.0 597.0 725.0 561.0 Q 713.0 525.0 698.0 484.0 C 688.0 456.0 745.0 455.0 755.0 483.0 Z" fill="lightgray"></path> 
<path d="M 590.0 415.0 Q 645.0 431.0 768.0 452.0 Q 778.0 453.0 779.0 463.0 Q 779.0 470.0 755.0 483.0 C 733.0 495.0 727.0 493.0 698.0 484.0 Q 634.0 463.0 583.0 449.0 C 554.0 441.0 561.0 407.0 590.0 415.0 Z" fill="lightgray"></path> 
<path d="M 931.0 151.0 Q 918.0 176.0 899.0 255.0 Q 898.0 271.0 891.0 277.0 Q 885.0 281.0 880.0 262.0 Q 852.0 177.0 833.0 151.0 Q 821.0 135.0 784.0 125.0 Q 696.0 106.0 625.0 135.0 Q 597.0 148.0 589.0 167.0 Q 558.0 227.0 590.0 415.0 C 594.0 441.0 594.0 441.0 583.0 449.0 Q 570.0 462.0 548.0 470.0 Q 535.0 474.0 527.0 469.0 Q 520.0 465.0 526.0 447.0 Q 539.0 410.0 536.0 372.0 Q 526.0 197.0 541.0 148.0 Q 547.0 123.0 570.0 100.0 Q 657.0 31.0 825.0 61.0 Q 834.0 64.0 844.0 66.0 Q 884.0 79.0 924.0 108.0 Q 945.0 124.0 931.0 151.0 Z" fill="lightgray"></path> 
      <clipPath id="make-me-a-hanzi-clip-0">
      <path d="M 357.0 675.0 Q 486.0 702.0 492.0 706.0 Q 502.0 713.0 497.0 723.0 Q 490.0 735.0 460.0 743.0 Q 433.0 749.0 317.0 715.0 Q 187.0 693.0 145.0 688.0 Q 108.0 684.0 134.0 665.0 Q 161.0 649.0 200.0 648.0 L 239.0 653.0 Q 272.0 659.0 315.0 665.0 L 357.0 675.0 Z" fill="lightgray"></path>
      </clipPath>
      <path clip-path="url(#make-me-a-hanzi-clip-0)" d="M 137.0 678.0 L 157.0 672.0 L 204.0 672.0 L 303.0 687.0 L 443.0 719.0 L 486.0 717.0 " fill="none" id="make-me-a-hanzi-animation-0" stroke-dasharray="483 966" stroke-linecap="round"></path>

      <clipPath id="make-me-a-hanzi-clip-1">
      <path d="M 144.0 494.0 Q 143.0 495.0 142.0 496.0 Q 133.0 503.0 120.0 508.0 Q 111.0 512.0 100.0 509.0 Q 93.0 505.0 98.0 493.0 Q 99.0 483.0 104.0 475.0 Q 122.0 438.0 107.0 208.0 Q 103.0 181.0 94.0 147.0 Q 79.0 99.0 112.0 52.0 Q 122.0 39.0 132.0 51.0 Q 144.0 66.0 145.0 88.0 L 149.0 122.0 Q 150.0 137.0 150.0 155.0 Q 160.0 429.0 163.0 448.0 Q 164.0 461.0 164.0 468.0 C 164.0 480.0 164.0 480.0 144.0 494.0 Z" fill="lightgray"></path>
      </clipPath>
      <path clip-path="url(#make-me-a-hanzi-clip-1)" d="M 106.0 500.0 L 127.0 479.0 L 137.0 455.0 L 130.0 197.0 L 118.0 114.0 L 122.0 56.0 " fill="none" id="make-me-a-hanzi-animation-1" stroke-dasharray="584 1168" stroke-linecap="round"></path>

      <clipPath id="make-me-a-hanzi-clip-2">
      <path d="M 393.0 108.0 Q 411.0 80.0 426.0 49.0 Q 436.0 30.0 446.0 27.0 Q 456.0 27.0 465.0 49.0 Q 478.0 88.0 475.0 237.0 Q 469.0 456.0 479.0 487.0 Q 488.0 508.0 476.0 516.0 Q 469.0 526.0 434.0 544.0 Q 424.0 550.0 347.0 529.0 L 317.0 522.0 Q 266.0 513.0 261.0 510.0 L 223.0 504.0 Q 186.0 500.0 144.0 494.0 C 114.0 490.0 135.0 461.0 164.0 468.0 Q 207.0 478.0 223.0 482.0 L 259.0 490.0 Q 284.0 497.0 315.0 500.0 L 344.0 504.0 Q 354.0 507.0 367.0 507.0 Q 400.0 510.0 409.0 498.0 Q 421.0 486.0 421.0 359.0 L 421.0 336.0 Q 421.0 144.0 409.0 131.0 C 401.0 102.0 386.0 119.0 393.0 108.0 Z" fill="lightgray"></path>
      </clipPath>
      <path clip-path="url(#make-me-a-hanzi-clip-2)" d="M 153.0 494.0 L 172.0 483.0 L 384.0 524.0 L 425.0 519.0 L 446.0 498.0 L 448.0 201.0 L 437.0 107.0 L 446.0 38.0 " fill="none" id="make-me-a-hanzi-animation-2" stroke-dasharray="898 1796" stroke-linecap="round"></path>

      <clipPath id="make-me-a-hanzi-clip-3">
      <path d="M 200.0 648.0 Q 222.0 626.0 224.0 509.0 Q 224.0 508.0 223.0 504.0 L 223.0 482.0 Q 220.0 446.0 176.0 313.0 Q 176.0 306.0 183.0 308.0 Q 195.0 311.0 210.0 339.0 Q 258.0 411.0 259.0 490.0 L 261.0 510.0 Q 261.0 606.0 264.0 621.0 Q 268.0 631.0 262.0 640.0 Q 252.0 647.0 239.0 653.0 C 212.0 666.0 183.0 673.0 200.0 648.0 Z" fill="lightgray"></path>
      </clipPath>
      <path clip-path="url(#make-me-a-hanzi-clip-3)" d="M 207.0 648.0 L 235.0 630.0 L 238.0 621.0 L 242.0 483.0 L 227.0 411.0 L 184.0 316.0 " fill="none" id="make-me-a-hanzi-animation-3" stroke-dasharray="487 974" stroke-linecap="round"></path>

      <clipPath id="make-me-a-hanzi-clip-4">
      <path d="M 347.0 529.0 Q 353.0 586.0 373.0 650.0 Q 377.0 660.0 370.0 668.0 Q 366.0 672.0 357.0 675.0 C 330.0 689.0 301.0 692.0 315.0 665.0 Q 327.0 649.0 325.0 612.0 Q 322.0 570.0 317.0 522.0 L 315.0 500.0 Q 296.0 373.0 337.0 336.0 Q 347.0 326.0 392.0 328.0 Q 411.0 329.0 421.0 336.0 C 448.0 348.0 451.0 354.0 421.0 359.0 Q 417.0 360.0 409.0 361.0 Q 366.0 364.0 361.0 368.0 Q 334.0 390.0 344.0 504.0 L 347.0 529.0 Z" fill="lightgray"></path>
      </clipPath>
      <path clip-path="url(#make-me-a-hanzi-clip-4)" d="M 323.0 663.0 L 348.0 648.0 L 325.0 466.0 L 334.0 374.0 L 356.0 349.0 L 405.0 346.0 L 414.0 353.0 " fill="none" id="make-me-a-hanzi-animation-4" stroke-dasharray="527 1054" stroke-linecap="round"></path>

      <clipPath id="make-me-a-hanzi-clip-5">
      <path d="M 197.0 240.0 Q 181.0 236.0 201.0 222.0 Q 208.0 216.0 225.0 218.0 Q 303.0 231.0 361.0 239.0 Q 383.0 243.0 375.0 255.0 Q 365.0 270.0 339.0 274.0 Q 315.0 277.0 274.0 265.0 Q 234.0 252.0 197.0 240.0 Z" fill="lightgray"></path>
      </clipPath>
      <path clip-path="url(#make-me-a-hanzi-clip-5)" d="M 199.0 231.0 L 333.0 255.0 L 365.0 249.0 " fill="none" id="make-me-a-hanzi-animation-5" stroke-dasharray="297 594" stroke-linecap="round"></path>

      <clipPath id="make-me-a-hanzi-clip-6">
      <path d="M 145.0 88.0 Q 154.0 87.0 165.0 88.0 Q 238.0 101.0 393.0 108.0 C 423.0 109.0 431.0 111.0 409.0 131.0 Q 402.0 138.0 388.0 148.0 Q 372.0 158.0 341.0 151.0 Q 233.0 130.0 149.0 122.0 C 119.0 119.0 115.0 90.0 145.0 88.0 Z" fill="lightgray"></path>
      </clipPath>
      <path clip-path="url(#make-me-a-hanzi-clip-6)" d="M 150.0 93.0 L 165.0 106.0 L 184.0 109.0 L 354.0 130.0 L 399.0 129.0 " fill="none" id="make-me-a-hanzi-animation-6" stroke-dasharray="383 766" stroke-linecap="round"></path>

      <clipPath id="make-me-a-hanzi-clip-7">
      <path d="M 755.0 483.0 Q 782.0 562.0 809.0 586.0 Q 834.0 613.0 810.0 629.0 Q 791.0 642.0 762.0 662.0 Q 744.0 674.0 688.0 645.0 Q 627.0 621.0 541.0 607.0 Q 529.0 607.0 531.0 600.0 Q 532.0 593.0 546.0 586.0 Q 565.0 577.0 634.0 594.0 Q 722.0 616.0 730.0 604.0 Q 737.0 597.0 725.0 561.0 Q 713.0 525.0 698.0 484.0 C 688.0 456.0 745.0 455.0 755.0 483.0 Z" fill="lightgray"></path>
      </clipPath>
      <path clip-path="url(#make-me-a-hanzi-clip-7)" d="M 539.0 600.0 L 560.0 596.0 L 620.0 605.0 L 707.0 632.0 L 751.0 631.0 L 772.0 606.0 L 770.0 598.0 L 734.0 509.0 L 705.0 489.0 " fill="none" id="make-me-a-hanzi-animation-7" stroke-dasharray="517 1034" stroke-linecap="round"></path>

      <clipPath id="make-me-a-hanzi-clip-8">
      <path d="M 590.0 415.0 Q 645.0 431.0 768.0 452.0 Q 778.0 453.0 779.0 463.0 Q 779.0 470.0 755.0 483.0 C 733.0 495.0 727.0 493.0 698.0 484.0 Q 634.0 463.0 583.0 449.0 C 554.0 441.0 561.0 407.0 590.0 415.0 Z" fill="lightgray"></path>
      </clipPath>
      <path clip-path="url(#make-me-a-hanzi-clip-8)" d="M 593.0 422.0 L 607.0 438.0 L 705.0 463.0 L 748.0 467.0 L 769.0 462.0 " fill="none" id="make-me-a-hanzi-animation-8" stroke-dasharray="315 630" stroke-linecap="round"></path>

      <clipPath id="make-me-a-hanzi-clip-9">
      <path d="M 931.0 151.0 Q 918.0 176.0 899.0 255.0 Q 898.0 271.0 891.0 277.0 Q 885.0 281.0 880.0 262.0 Q 852.0 177.0 833.0 151.0 Q 821.0 135.0 784.0 125.0 Q 696.0 106.0 625.0 135.0 Q 597.0 148.0 589.0 167.0 Q 558.0 227.0 590.0 415.0 C 594.0 441.0 594.0 441.0 583.0 449.0 Q 570.0 462.0 548.0 470.0 Q 535.0 474.0 527.0 469.0 Q 520.0 465.0 526.0 447.0 Q 539.0 410.0 536.0 372.0 Q 526.0 197.0 541.0 148.0 Q 547.0 123.0 570.0 100.0 Q 657.0 31.0 825.0 61.0 Q 834.0 64.0 844.0 66.0 Q 884.0 79.0 924.0 108.0 Q 945.0 124.0 931.0 151.0 Z" fill="lightgray"></path>
      </clipPath>
      <path clip-path="url(#make-me-a-hanzi-clip-9)" d="M 535.0 461.0 L 555.0 440.0 L 563.0 408.0 L 552.0 278.0 L 561.0 171.0 L 578.0 133.0 L 612.0 108.0 L 656.0 92.0 L 725.0 85.0 L 792.0 90.0 L 848.0 110.0 L 883.0 139.0 L 890.0 270.0 " fill="none" id="make-me-a-hanzi-animation-9" stroke-dasharray="931 1862" stroke-linecap="round"></path>

</g>
</svg>
