<svg version="1.1" viewBox="0 0 1024 1024" xmlns="http://www.w3.org/2000/svg">
  <g stroke="lightgray" stroke-dasharray="1,1" stroke-width="1" transform="scale(4, 4)">
    <line x1="0" y1="0" x2="256" y2="256"></line>
    <line x1="256" y1="0" x2="0" y2="256"></line>
    <line x1="128" y1="0" x2="128" y2="256"></line>
    <line x1="0" y1="128" x2="256" y2="128"></line>
  </g>
<g transform="scale(1, -1) translate(0, -900)">
   <style type="text/css">
    @keyframes keyframes0 {
      from {
       stroke: blue;
       stroke-dashoffset: 812;
       stroke-width: 128;
       }
       73% {
       animation-timing-function: step-end;
       stroke: blue;
       stroke-dashoffset: 0;
       stroke-width: 128;
       }
       to {
       stroke: black;
       stroke-width: 1024;
       }
       }
       #make-me-a-hanzi-animation-0 {
         animation: keyframes0 0.910807s both;
         animation-delay: 0.000000s;
         animation-timing-function: linear;
       }
    @keyframes keyframes1 {
      from {
       stroke: blue;
       stroke-dashoffset: 438;
       stroke-width: 128;
       }
       59% {
       animation-timing-function: step-end;
       stroke: blue;
       stroke-dashoffset: 0;
       stroke-width: 128;
       }
       to {
       stroke: black;
       stroke-width: 1024;
       }
       }
       #make-me-a-hanzi-animation-1 {
         animation: keyframes1 0.606445s both;
         animation-delay: 0.910807s;
         animation-timing-function: linear;
       }
    @keyframes keyframes2 {
      from {
       stroke: blue;
       stroke-dashoffset: 483;
       stroke-width: 128;
       }
       61% {
       animation-timing-function: step-end;
       stroke: blue;
       stroke-dashoffset: 0;
       stroke-width: 128;
       }
       to {
       stroke: black;
       stroke-width: 1024;
       }
       }
       #make-me-a-hanzi-animation-2 {
         animation: keyframes2 0.643066s both;
         animation-delay: 1.517253s;
         animation-timing-function: linear;
       }
    @keyframes keyframes3 {
      from {
       stroke: blue;
       stroke-dashoffset: 529;
       stroke-width: 128;
       }
       63% {
       animation-timing-function: step-end;
       stroke: blue;
       stroke-dashoffset: 0;
       stroke-width: 128;
       }
       to {
       stroke: black;
       stroke-width: 1024;
       }
       }
       #make-me-a-hanzi-animation-3 {
         animation: keyframes3 0.680501s both;
         animation-delay: 2.160319s;
         animation-timing-function: linear;
       }
    @keyframes keyframes4 {
      from {
       stroke: blue;
       stroke-dashoffset: 767;
       stroke-width: 128;
       }
       71% {
       animation-timing-function: step-end;
       stroke: blue;
       stroke-dashoffset: 0;
       stroke-width: 128;
       }
       to {
       stroke: black;
       stroke-width: 1024;
       }
       }
       #make-me-a-hanzi-animation-4 {
         animation: keyframes4 0.874186s both;
         animation-delay: 2.840820s;
         animation-timing-function: linear;
       }
    @keyframes keyframes5 {
      from {
       stroke: blue;
       stroke-dashoffset: 676;
       stroke-width: 128;
       }
       69% {
       animation-timing-function: step-end;
       stroke: blue;
       stroke-dashoffset: 0;
       stroke-width: 128;
       }
       to {
       stroke: black;
       stroke-width: 1024;
       }
       }
       #make-me-a-hanzi-animation-5 {
         animation: keyframes5 0.800130s both;
         animation-delay: 3.715007s;
         animation-timing-function: linear;
       }
    @keyframes keyframes6 {
      from {
       stroke: blue;
       stroke-dashoffset: 796;
       stroke-width: 128;
       }
       72% {
       animation-timing-function: step-end;
       stroke: blue;
       stroke-dashoffset: 0;
       stroke-width: 128;
       }
       to {
       stroke: black;
       stroke-width: 1024;
       }
       }
       #make-me-a-hanzi-animation-6 {
         animation: keyframes6 0.897786s both;
         animation-delay: 4.515137s;
         animation-timing-function: linear;
       }
    @keyframes keyframes7 {
      from {
       stroke: blue;
       stroke-dashoffset: 360;
       stroke-width: 128;
       }
       54% {
       animation-timing-function: step-end;
       stroke: blue;
       stroke-dashoffset: 0;
       stroke-width: 128;
       }
       to {
       stroke: black;
       stroke-width: 1024;
       }
       }
       #make-me-a-hanzi-animation-7 {
         animation: keyframes7 0.542969s both;
         animation-delay: 5.412923s;
         animation-timing-function: linear;
       }
    @keyframes keyframes8 {
      from {
       stroke: blue;
       stroke-dashoffset: 526;
       stroke-width: 128;
       }
       63% {
       animation-timing-function: step-end;
       stroke: blue;
       stroke-dashoffset: 0;
       stroke-width: 128;
       }
       to {
       stroke: black;
       stroke-width: 1024;
       }
       }
       #make-me-a-hanzi-animation-8 {
         animation: keyframes8 0.678060s both;
         animation-delay: 5.955892s;
         animation-timing-function: linear;
       }
    @keyframes keyframes9 {
      from {
       stroke: blue;
       stroke-dashoffset: 477;
       stroke-width: 128;
       }
       61% {
       animation-timing-function: step-end;
       stroke: blue;
       stroke-dashoffset: 0;
       stroke-width: 128;
       }
       to {
       stroke: black;
       stroke-width: 1024;
       }
       }
       #make-me-a-hanzi-animation-9 {
         animation: keyframes9 0.638184s both;
         animation-delay: 6.633952s;
         animation-timing-function: linear;
       }
    @keyframes keyframes10 {
      from {
       stroke: blue;
       stroke-dashoffset: 476;
       stroke-width: 128;
       }
       61% {
       animation-timing-function: step-end;
       stroke: blue;
       stroke-dashoffset: 0;
       stroke-width: 128;
       }
       to {
       stroke: black;
       stroke-width: 1024;
       }
       }
       #make-me-a-hanzi-animation-10 {
         animation: keyframes10 0.637370s both;
         animation-delay: 7.272135s;
         animation-timing-function: linear;
       }
    @keyframes keyframes11 {
      from {
       stroke: blue;
       stroke-dashoffset: 628;
       stroke-width: 128;
       }
       67% {
       animation-timing-function: step-end;
       stroke: blue;
       stroke-dashoffset: 0;
       stroke-width: 128;
       }
       to {
       stroke: black;
       stroke-width: 1024;
       }
       }
       #make-me-a-hanzi-animation-11 {
         animation: keyframes11 0.761068s both;
         animation-delay: 7.909505s;
         animation-timing-function: linear;
       }
    @keyframes keyframes12 {
      from {
       stroke: blue;
       stroke-dashoffset: 610;
       stroke-width: 128;
       }
       67% {
       animation-timing-function: step-end;
       stroke: blue;
       stroke-dashoffset: 0;
       stroke-width: 128;
       }
       to {
       stroke: black;
       stroke-width: 1024;
       }
       }
       #make-me-a-hanzi-animation-12 {
         animation: keyframes12 0.746419s both;
         animation-delay: 8.670573s;
         animation-timing-function: linear;
       }
</style>
<path d="M 323.5 617.0 Q 377.5 708.0 408.5 735.0 Q 418.5 745.0 414.5 760.0 Q 410.5 773.0 382.5 797.0 Q 355.5 816.0 336.5 817.0 Q 317.5 816.0 324.5 793.0 Q 334.5 763.0 318.5 718.0 Q 239.5 558.0 76.5 376.0 Q 66.5 366.0 63.5 360.0 Q 59.5 348.0 73.5 351.0 Q 122.5 358.0 297.5 581.0 Q 300.5 585.0 303.5 589.0 L 323.5 617.0 Z" fill="lightgray"></path> 
<path d="M 303.5 589.0 Q 348.5 574.0 393.5 590.0 Q 432.5 602.0 472.5 613.0 Q 491.5 619.0 494.5 622.0 Q 501.5 629.0 496.5 638.0 Q 489.5 648.0 459.5 653.0 Q 435.5 656.0 362.5 627.0 Q 341.5 623.0 323.5 617.0 C 294.5 608.0 274.5 598.0 303.5 589.0 Z" fill="lightgray"></path> 
<path d="M 312.5 427.0 Q 445.5 469.0 450.5 475.0 Q 457.5 484.0 452.5 491.0 Q 445.5 501.0 417.5 504.0 Q 389.5 505.0 363.5 492.0 Q 335.5 479.0 304.5 468.0 Q 270.5 456.0 228.5 448.0 Q 197.5 438.0 221.5 426.0 Q 242.5 419.0 272.5 418.0 L 312.5 427.0 Z" fill="lightgray"></path> 
<path d="M 338.5 291.0 Q 375.5 304.0 415.5 314.0 Q 449.5 324.0 453.5 330.0 Q 460.5 337.0 456.5 346.0 Q 449.5 356.0 419.5 361.0 Q 395.5 364.0 339.5 341.0 L 294.5 324.0 Q 198.5 302.0 186.5 298.0 Q 152.5 289.0 178.5 275.0 Q 221.5 256.0 273.5 273.0 Q 283.5 276.0 295.5 279.0 L 338.5 291.0 Z" fill="lightgray"></path> 
<path d="M 295.5 279.0 Q 291.5 153.0 257.5 104.0 Q 226.5 64.0 264.5 24.0 Q 276.5 17.0 287.5 31.0 Q 303.5 59.0 451.5 176.0 Q 467.5 188.0 472.5 196.0 Q 476.5 205.0 467.5 205.0 Q 448.5 204.0 338.5 139.0 Q 328.5 133.0 327.5 143.0 Q 334.5 224.0 338.5 291.0 L 339.5 341.0 Q 339.5 365.0 344.5 383.0 Q 348.5 395.0 340.5 405.0 Q 327.5 418.0 312.5 427.0 C 287.5 444.0 261.5 446.0 272.5 418.0 Q 291.5 375.0 294.5 324.0 L 295.5 279.0 Z" fill="lightgray"></path> 
<path d="M 554.5 526.0 Q 623.5 631.0 654.5 692.0 Q 670.5 729.0 687.5 749.0 Q 694.5 761.0 689.5 773.0 Q 685.5 785.0 654.5 804.0 Q 627.5 819.0 609.5 816.0 Q 591.5 813.0 601.5 793.0 Q 625.5 751.0 554.5 605.0 Q 520.5 538.0 471.5 463.0 Q 464.5 453.0 461.5 446.0 Q 460.5 436.0 472.5 439.0 Q 482.5 442.0 528.5 492.0 L 554.5 526.0 Z" fill="lightgray"></path> 
<path d="M 592.5 130.0 Q 592.5 380.0 601.5 441.0 Q 608.5 469.0 589.5 490.0 Q 559.5 523.0 554.5 526.0 C 532.5 547.0 519.5 521.0 528.5 492.0 Q 552.5 417.0 554.5 410.0 Q 553.5 409.0 554.5 405.0 Q 560.5 224.0 522.5 72.0 Q 512.5 27.0 546.5 -24.0 Q 547.5 -24.0 549.5 -27.0 Q 567.5 -43.0 579.5 -16.0 Q 591.5 20.0 592.5 98.0 L 592.5 130.0 Z" fill="lightgray"></path> 
<path d="M 711.5 685.0 Q 750.5 634.0 778.5 622.0 Q 791.5 619.0 800.5 630.0 Q 806.5 640.0 804.5 656.0 Q 795.5 693.0 744.5 711.0 Q 714.5 724.0 701.5 720.0 Q 697.5 719.0 698.5 708.0 Q 698.5 698.0 711.5 685.0 Z" fill="lightgray"></path> 
<path d="M 752.5 520.0 Q 893.5 557.0 896.5 559.0 Q 903.5 566.0 899.5 574.0 Q 892.5 584.0 865.5 591.0 Q 837.5 595.0 811.5 583.0 Q 774.5 570.0 733.5 558.0 Q 688.5 546.0 635.5 539.0 Q 602.5 532.0 626.5 518.0 Q 665.5 500.0 714.5 511.0 L 752.5 520.0 Z" fill="lightgray"></path> 
<path d="M 775.5 385.0 Q 821.5 392.0 862.5 397.0 Q 886.5 400.0 877.5 413.0 Q 867.5 428.0 841.5 433.0 Q 819.5 437.0 776.5 426.0 L 730.5 414.0 Q 687.5 404.0 648.5 394.0 Q 632.5 390.0 651.5 375.0 Q 661.5 368.0 683.5 371.0 Q 707.5 375.0 730.5 378.0 L 775.5 385.0 Z" fill="lightgray"></path> 
<path d="M 771.5 260.0 Q 822.5 269.0 866.5 273.0 Q 890.5 276.0 881.5 289.0 Q 871.5 304.0 845.5 309.0 Q 808.5 316.0 772.5 299.0 L 729.5 289.0 Q 689.5 280.0 652.5 270.0 Q 636.5 266.0 655.5 251.0 Q 665.5 244.0 687.5 247.0 Q 708.5 251.0 729.5 253.0 L 771.5 260.0 Z" fill="lightgray"></path> 
<path d="M 769.5 154.0 Q 770.5 209.0 771.5 260.0 L 772.5 299.0 Q 773.5 345.0 775.5 385.0 L 776.5 426.0 Q 776.5 447.0 779.5 475.0 Q 786.5 497.0 752.5 520.0 C 728.5 538.0 703.5 539.0 714.5 511.0 Q 729.5 480.0 730.5 414.0 L 730.5 378.0 Q 730.5 344.0 729.5 289.0 L 729.5 253.0 Q 729.5 207.0 729.5 148.0 C 729.5 118.0 768.5 124.0 769.5 154.0 Z" fill="lightgray"></path> 
<path d="M 729.5 148.0 Q 665.5 141.0 592.5 130.0 C 562.5 126.0 563.5 106.0 592.5 98.0 Q 620.5 89.0 636.5 93.0 Q 715.5 114.0 936.5 114.0 Q 954.5 114.0 958.5 122.0 Q 964.5 132.0 949.5 145.0 Q 897.5 181.0 834.5 166.0 Q 806.5 162.0 769.5 154.0 L 729.5 148.0 Z" fill="lightgray"></path> 
      <clipPath id="make-me-a-hanzi-clip-0">
      <path d="M 323.5 617.0 Q 377.5 708.0 408.5 735.0 Q 418.5 745.0 414.5 760.0 Q 410.5 773.0 382.5 797.0 Q 355.5 816.0 336.5 817.0 Q 317.5 816.0 324.5 793.0 Q 334.5 763.0 318.5 718.0 Q 239.5 558.0 76.5 376.0 Q 66.5 366.0 63.5 360.0 Q 59.5 348.0 73.5 351.0 Q 122.5 358.0 297.5 581.0 Q 300.5 585.0 303.5 589.0 L 323.5 617.0 Z" fill="lightgray"></path>
      </clipPath>
      <path clip-path="url(#make-me-a-hanzi-clip-0)" d="M 336.5 802.0 L 352.5 786.0 L 368.5 754.0 L 317.5 656.0 L 200.5 491.0 L 123.5 404.0 L 71.5 359.0 " fill="none" id="make-me-a-hanzi-animation-0" stroke-dasharray="684 1368" stroke-linecap="round"></path>

      <clipPath id="make-me-a-hanzi-clip-1">
      <path d="M 303.5 589.0 Q 348.5 574.0 393.5 590.0 Q 432.5 602.0 472.5 613.0 Q 491.5 619.0 494.5 622.0 Q 501.5 629.0 496.5 638.0 Q 489.5 648.0 459.5 653.0 Q 435.5 656.0 362.5 627.0 Q 341.5 623.0 323.5 617.0 C 294.5 608.0 274.5 598.0 303.5 589.0 Z" fill="lightgray"></path>
      </clipPath>
      <path clip-path="url(#make-me-a-hanzi-clip-1)" d="M 311.5 590.0 L 335.5 602.0 L 367.5 605.0 L 440.5 629.0 L 486.5 631.0 " fill="none" id="make-me-a-hanzi-animation-1" stroke-dasharray="310 620" stroke-linecap="round"></path>

      <clipPath id="make-me-a-hanzi-clip-2">
      <path d="M 312.5 427.0 Q 445.5 469.0 450.5 475.0 Q 457.5 484.0 452.5 491.0 Q 445.5 501.0 417.5 504.0 Q 389.5 505.0 363.5 492.0 Q 335.5 479.0 304.5 468.0 Q 270.5 456.0 228.5 448.0 Q 197.5 438.0 221.5 426.0 Q 242.5 419.0 272.5 418.0 L 312.5 427.0 Z" fill="lightgray"></path>
      </clipPath>
      <path clip-path="url(#make-me-a-hanzi-clip-2)" d="M 222.5 438.0 L 266.5 436.0 L 389.5 477.0 L 442.5 484.0 " fill="none" id="make-me-a-hanzi-animation-2" stroke-dasharray="355 710" stroke-linecap="round"></path>

      <clipPath id="make-me-a-hanzi-clip-3">
      <path d="M 338.5 291.0 Q 375.5 304.0 415.5 314.0 Q 449.5 324.0 453.5 330.0 Q 460.5 337.0 456.5 346.0 Q 449.5 356.0 419.5 361.0 Q 395.5 364.0 339.5 341.0 L 294.5 324.0 Q 198.5 302.0 186.5 298.0 Q 152.5 289.0 178.5 275.0 Q 221.5 256.0 273.5 273.0 Q 283.5 276.0 295.5 279.0 L 338.5 291.0 Z" fill="lightgray"></path>
      </clipPath>
      <path clip-path="url(#make-me-a-hanzi-clip-3)" d="M 179.5 287.0 L 230.5 286.0 L 398.5 335.0 L 445.5 340.0 " fill="none" id="make-me-a-hanzi-animation-3" stroke-dasharray="401 802" stroke-linecap="round"></path>

      <clipPath id="make-me-a-hanzi-clip-4">
      <path d="M 295.5 279.0 Q 291.5 153.0 257.5 104.0 Q 226.5 64.0 264.5 24.0 Q 276.5 17.0 287.5 31.0 Q 303.5 59.0 451.5 176.0 Q 467.5 188.0 472.5 196.0 Q 476.5 205.0 467.5 205.0 Q 448.5 204.0 338.5 139.0 Q 328.5 133.0 327.5 143.0 Q 334.5 224.0 338.5 291.0 L 339.5 341.0 Q 339.5 365.0 344.5 383.0 Q 348.5 395.0 340.5 405.0 Q 327.5 418.0 312.5 427.0 C 287.5 444.0 261.5 446.0 272.5 418.0 Q 291.5 375.0 294.5 324.0 L 295.5 279.0 Z" fill="lightgray"></path>
      </clipPath>
      <path clip-path="url(#make-me-a-hanzi-clip-4)" d="M 280.5 414.0 L 307.5 399.0 L 315.5 383.0 L 316.5 258.0 L 301.5 130.0 L 306.5 108.0 L 341.5 115.0 L 466.5 198.0 " fill="none" id="make-me-a-hanzi-animation-4" stroke-dasharray="639 1278" stroke-linecap="round"></path>

      <clipPath id="make-me-a-hanzi-clip-5">
      <path d="M 554.5 526.0 Q 623.5 631.0 654.5 692.0 Q 670.5 729.0 687.5 749.0 Q 694.5 761.0 689.5 773.0 Q 685.5 785.0 654.5 804.0 Q 627.5 819.0 609.5 816.0 Q 591.5 813.0 601.5 793.0 Q 625.5 751.0 554.5 605.0 Q 520.5 538.0 471.5 463.0 Q 464.5 453.0 461.5 446.0 Q 460.5 436.0 472.5 439.0 Q 482.5 442.0 528.5 492.0 L 554.5 526.0 Z" fill="lightgray"></path>
      </clipPath>
      <path clip-path="url(#make-me-a-hanzi-clip-5)" d="M 610.5 803.0 L 634.5 784.0 L 646.5 761.0 L 630.5 712.0 L 554.5 560.0 L 510.5 492.0 L 469.5 447.0 " fill="none" id="make-me-a-hanzi-animation-5" stroke-dasharray="548 1096" stroke-linecap="round"></path>

      <clipPath id="make-me-a-hanzi-clip-6">
      <path d="M 592.5 130.0 Q 592.5 380.0 601.5 441.0 Q 608.5 469.0 589.5 490.0 Q 559.5 523.0 554.5 526.0 C 532.5 547.0 519.5 521.0 528.5 492.0 Q 552.5 417.0 554.5 410.0 Q 553.5 409.0 554.5 405.0 Q 560.5 224.0 522.5 72.0 Q 512.5 27.0 546.5 -24.0 Q 547.5 -24.0 549.5 -27.0 Q 567.5 -43.0 579.5 -16.0 Q 591.5 20.0 592.5 98.0 L 592.5 130.0 Z" fill="lightgray"></path>
      </clipPath>
      <path clip-path="url(#make-me-a-hanzi-clip-6)" d="M 552.5 519.0 L 557.5 485.0 L 572.5 458.0 L 576.5 415.0 L 570.5 190.0 L 555.5 60.0 L 562.5 -15.0 " fill="none" id="make-me-a-hanzi-animation-6" stroke-dasharray="668 1336" stroke-linecap="round"></path>

      <clipPath id="make-me-a-hanzi-clip-7">
      <path d="M 711.5 685.0 Q 750.5 634.0 778.5 622.0 Q 791.5 619.0 800.5 630.0 Q 806.5 640.0 804.5 656.0 Q 795.5 693.0 744.5 711.0 Q 714.5 724.0 701.5 720.0 Q 697.5 719.0 698.5 708.0 Q 698.5 698.0 711.5 685.0 Z" fill="lightgray"></path>
      </clipPath>
      <path clip-path="url(#make-me-a-hanzi-clip-7)" d="M 707.5 712.0 L 762.5 670.0 L 783.5 642.0 " fill="none" id="make-me-a-hanzi-animation-7" stroke-dasharray="232 464" stroke-linecap="round"></path>

      <clipPath id="make-me-a-hanzi-clip-8">
      <path d="M 752.5 520.0 Q 893.5 557.0 896.5 559.0 Q 903.5 566.0 899.5 574.0 Q 892.5 584.0 865.5 591.0 Q 837.5 595.0 811.5 583.0 Q 774.5 570.0 733.5 558.0 Q 688.5 546.0 635.5 539.0 Q 602.5 532.0 626.5 518.0 Q 665.5 500.0 714.5 511.0 L 752.5 520.0 Z" fill="lightgray"></path>
      </clipPath>
      <path clip-path="url(#make-me-a-hanzi-clip-8)" d="M 628.5 530.0 L 689.5 527.0 L 760.5 542.0 L 836.5 567.0 L 892.5 568.0 " fill="none" id="make-me-a-hanzi-animation-8" stroke-dasharray="398 796" stroke-linecap="round"></path>

      <clipPath id="make-me-a-hanzi-clip-9">
      <path d="M 775.5 385.0 Q 821.5 392.0 862.5 397.0 Q 886.5 400.0 877.5 413.0 Q 867.5 428.0 841.5 433.0 Q 819.5 437.0 776.5 426.0 L 730.5 414.0 Q 687.5 404.0 648.5 394.0 Q 632.5 390.0 651.5 375.0 Q 661.5 368.0 683.5 371.0 Q 707.5 375.0 730.5 378.0 L 775.5 385.0 Z" fill="lightgray"></path>
      </clipPath>
      <path clip-path="url(#make-me-a-hanzi-clip-9)" d="M 650.5 385.0 L 689.5 387.0 L 816.5 413.0 L 844.5 414.0 L 867.5 407.0 " fill="none" id="make-me-a-hanzi-animation-9" stroke-dasharray="349 698" stroke-linecap="round"></path>

      <clipPath id="make-me-a-hanzi-clip-10">
      <path d="M 771.5 260.0 Q 822.5 269.0 866.5 273.0 Q 890.5 276.0 881.5 289.0 Q 871.5 304.0 845.5 309.0 Q 808.5 316.0 772.5 299.0 L 729.5 289.0 Q 689.5 280.0 652.5 270.0 Q 636.5 266.0 655.5 251.0 Q 665.5 244.0 687.5 247.0 Q 708.5 251.0 729.5 253.0 L 771.5 260.0 Z" fill="lightgray"></path>
      </clipPath>
      <path clip-path="url(#make-me-a-hanzi-clip-10)" d="M 654.5 261.0 L 823.5 290.0 L 871.5 283.0 " fill="none" id="make-me-a-hanzi-animation-10" stroke-dasharray="348 696" stroke-linecap="round"></path>

      <clipPath id="make-me-a-hanzi-clip-11">
      <path d="M 769.5 154.0 Q 770.5 209.0 771.5 260.0 L 772.5 299.0 Q 773.5 345.0 775.5 385.0 L 776.5 426.0 Q 776.5 447.0 779.5 475.0 Q 786.5 497.0 752.5 520.0 C 728.5 538.0 703.5 539.0 714.5 511.0 Q 729.5 480.0 730.5 414.0 L 730.5 378.0 Q 730.5 344.0 729.5 289.0 L 729.5 253.0 Q 729.5 207.0 729.5 148.0 C 729.5 118.0 768.5 124.0 769.5 154.0 Z" fill="lightgray"></path>
      </clipPath>
      <path clip-path="url(#make-me-a-hanzi-clip-11)" d="M 721.5 508.0 L 748.5 490.0 L 753.5 471.0 L 750.5 178.0 L 735.5 156.0 " fill="none" id="make-me-a-hanzi-animation-11" stroke-dasharray="500 1000" stroke-linecap="round"></path>

      <clipPath id="make-me-a-hanzi-clip-12">
      <path d="M 729.5 148.0 Q 665.5 141.0 592.5 130.0 C 562.5 126.0 563.5 106.0 592.5 98.0 Q 620.5 89.0 636.5 93.0 Q 715.5 114.0 936.5 114.0 Q 954.5 114.0 958.5 122.0 Q 964.5 132.0 949.5 145.0 Q 897.5 181.0 834.5 166.0 Q 806.5 162.0 769.5 154.0 L 729.5 148.0 Z" fill="lightgray"></path>
      </clipPath>
      <path clip-path="url(#make-me-a-hanzi-clip-12)" d="M 601.5 125.0 L 610.5 114.0 L 628.5 113.0 L 872.5 142.0 L 947.5 128.0 " fill="none" id="make-me-a-hanzi-animation-12" stroke-dasharray="482 964" stroke-linecap="round"></path>

</g>
</svg>
