<svg version="1.1" viewBox="0 0 1024 1024" xmlns="http://www.w3.org/2000/svg">
  <g stroke="lightgray" stroke-dasharray="1,1" stroke-width="1" transform="scale(4, 4)">
    <line x1="0" y1="0" x2="256" y2="256"></line>
    <line x1="256" y1="0" x2="0" y2="256"></line>
    <line x1="128" y1="0" x2="128" y2="256"></line>
    <line x1="0" y1="128" x2="256" y2="128"></line>
  </g>
<g transform="scale(1, -1) translate(0, -900)">
   <style type="text/css">
    @keyframes keyframes0 {
      from {
       stroke: blue;
       stroke-dashoffset: 967;
       stroke-width: 128;
       }
       76% {
       animation-timing-function: step-end;
       stroke: blue;
       stroke-dashoffset: 0;
       stroke-width: 128;
       }
       to {
       stroke: black;
       stroke-width: 1024;
       }
       }
       #make-me-a-hanzi-animation-0 {
         animation: keyframes0 1.036947s both;
         animation-delay: 0.000000s;
         animation-timing-function: linear;
       }
    @keyframes keyframes1 {
      from {
       stroke: blue;
       stroke-dashoffset: 634;
       stroke-width: 128;
       }
       67% {
       animation-timing-function: step-end;
       stroke: blue;
       stroke-dashoffset: 0;
       stroke-width: 128;
       }
       to {
       stroke: black;
       stroke-width: 1024;
       }
       }
       #make-me-a-hanzi-animation-1 {
         animation: keyframes1 0.765951s both;
         animation-delay: 1.036947s;
         animation-timing-function: linear;
       }
    @keyframes keyframes2 {
      from {
       stroke: blue;
       stroke-dashoffset: 331;
       stroke-width: 128;
       }
       52% {
       animation-timing-function: step-end;
       stroke: blue;
       stroke-dashoffset: 0;
       stroke-width: 128;
       }
       to {
       stroke: black;
       stroke-width: 1024;
       }
       }
       #make-me-a-hanzi-animation-2 {
         animation: keyframes2 0.519368s both;
         animation-delay: 1.802897s;
         animation-timing-function: linear;
       }
    @keyframes keyframes3 {
      from {
       stroke: blue;
       stroke-dashoffset: 355;
       stroke-width: 128;
       }
       54% {
       animation-timing-function: step-end;
       stroke: blue;
       stroke-dashoffset: 0;
       stroke-width: 128;
       }
       to {
       stroke: black;
       stroke-width: 1024;
       }
       }
       #make-me-a-hanzi-animation-3 {
         animation: keyframes3 0.538900s both;
         animation-delay: 2.322266s;
         animation-timing-function: linear;
       }
    @keyframes keyframes4 {
      from {
       stroke: blue;
       stroke-dashoffset: 499;
       stroke-width: 128;
       }
       62% {
       animation-timing-function: step-end;
       stroke: blue;
       stroke-dashoffset: 0;
       stroke-width: 128;
       }
       to {
       stroke: black;
       stroke-width: 1024;
       }
       }
       #make-me-a-hanzi-animation-4 {
         animation: keyframes4 0.656087s both;
         animation-delay: 2.861165s;
         animation-timing-function: linear;
       }
    @keyframes keyframes5 {
      from {
       stroke: blue;
       stroke-dashoffset: 1328;
       stroke-width: 128;
       }
       81% {
       animation-timing-function: step-end;
       stroke: blue;
       stroke-dashoffset: 0;
       stroke-width: 128;
       }
       to {
       stroke: black;
       stroke-width: 1024;
       }
       }
       #make-me-a-hanzi-animation-5 {
         animation: keyframes5 1.330729s both;
         animation-delay: 3.517253s;
         animation-timing-function: linear;
       }
    @keyframes keyframes6 {
      from {
       stroke: blue;
       stroke-dashoffset: 375;
       stroke-width: 128;
       }
       55% {
       animation-timing-function: step-end;
       stroke: blue;
       stroke-dashoffset: 0;
       stroke-width: 128;
       }
       to {
       stroke: black;
       stroke-width: 1024;
       }
       }
       #make-me-a-hanzi-animation-6 {
         animation: keyframes6 0.555176s both;
         animation-delay: 4.847982s;
         animation-timing-function: linear;
       }
    @keyframes keyframes7 {
      from {
       stroke: blue;
       stroke-dashoffset: 424;
       stroke-width: 128;
       }
       58% {
       animation-timing-function: step-end;
       stroke: blue;
       stroke-dashoffset: 0;
       stroke-width: 128;
       }
       to {
       stroke: black;
       stroke-width: 1024;
       }
       }
       #make-me-a-hanzi-animation-7 {
         animation: keyframes7 0.595052s both;
         animation-delay: 5.403158s;
         animation-timing-function: linear;
       }
    @keyframes keyframes8 {
      from {
       stroke: blue;
       stroke-dashoffset: 480;
       stroke-width: 128;
       }
       61% {
       animation-timing-function: step-end;
       stroke: blue;
       stroke-dashoffset: 0;
       stroke-width: 128;
       }
       to {
       stroke: black;
       stroke-width: 1024;
       }
       }
       #make-me-a-hanzi-animation-8 {
         animation: keyframes8 0.640625s both;
         animation-delay: 5.998210s;
         animation-timing-function: linear;
       }
    @keyframes keyframes9 {
      from {
       stroke: blue;
       stroke-dashoffset: 760;
       stroke-width: 128;
       }
       71% {
       animation-timing-function: step-end;
       stroke: blue;
       stroke-dashoffset: 0;
       stroke-width: 128;
       }
       to {
       stroke: black;
       stroke-width: 1024;
       }
       }
       #make-me-a-hanzi-animation-9 {
         animation: keyframes9 0.868490s both;
         animation-delay: 6.638835s;
         animation-timing-function: linear;
       }
    @keyframes keyframes10 {
      from {
       stroke: blue;
       stroke-dashoffset: 404;
       stroke-width: 128;
       }
       57% {
       animation-timing-function: step-end;
       stroke: blue;
       stroke-dashoffset: 0;
       stroke-width: 128;
       }
       to {
       stroke: black;
       stroke-width: 1024;
       }
       }
       #make-me-a-hanzi-animation-10 {
         animation: keyframes10 0.578776s both;
         animation-delay: 7.507324s;
         animation-timing-function: linear;
       }
    @keyframes keyframes11 {
      from {
       stroke: blue;
       stroke-dashoffset: 407;
       stroke-width: 128;
       }
       57% {
       animation-timing-function: step-end;
       stroke: blue;
       stroke-dashoffset: 0;
       stroke-width: 128;
       }
       to {
       stroke: black;
       stroke-width: 1024;
       }
       }
       #make-me-a-hanzi-animation-11 {
         animation: keyframes11 0.581217s both;
         animation-delay: 8.086100s;
         animation-timing-function: linear;
       }
    @keyframes keyframes12 {
      from {
       stroke: blue;
       stroke-dashoffset: 669;
       stroke-width: 128;
       }
       69% {
       animation-timing-function: step-end;
       stroke: blue;
       stroke-dashoffset: 0;
       stroke-width: 128;
       }
       to {
       stroke: black;
       stroke-width: 1024;
       }
       }
       #make-me-a-hanzi-animation-12 {
         animation: keyframes12 0.794434s both;
         animation-delay: 8.667318s;
         animation-timing-function: linear;
       }
</style>
<path d="M 227.5 723.5 Q 188.5 754.5 164.5 746.5 Q 157.5 740.5 163.5 727.5 Q 188.5 631.5 190.5 623.5 Q 190.5 613.5 191.5 598.5 Q 209.5 330.5 165.5 145.5 Q 150.5 85.5 189.5 36.5 Q 201.5 21.5 212.5 35.5 Q 230.5 59.5 231.5 236.5 Q 231.5 383.5 234.5 480.5 L 234.5 509.5 Q 235.5 555.5 236.5 589.5 L 237.5 622.5 Q 238.5 658.5 241.5 695.5 C 242.5 712.5 242.5 712.5 227.5 723.5 Z" fill="lightgray"></path> 
<path d="M 334.5 495.5 Q 353.5 470.5 374.5 494.5 Q 386.5 509.5 396.5 577.5 Q 402.5 662.5 424.5 698.5 Q 436.5 717.5 423.5 731.5 Q 404.5 746.5 374.5 762.5 Q 359.5 768.5 344.5 761.5 Q 290.5 737.5 227.5 723.5 C 198.5 716.5 212.5 687.5 241.5 695.5 Q 247.5 696.5 255.5 699.5 Q 328.5 726.5 345.5 718.5 Q 352.5 714.5 351.5 687.5 Q 347.5 612.5 341.5 550.5 Q 340.5 532.5 329.5 526.5 C 317.5 512.5 317.5 512.5 334.5 495.5 Z" fill="lightgray"></path> 
<path d="M 236.5 589.5 Q 276.5 596.5 306.5 600.5 Q 327.5 604.5 318.5 615.5 Q 308.5 628.5 285.5 630.5 Q 266.5 631.5 237.5 622.5 C 208.5 613.5 206.5 584.5 236.5 589.5 Z" fill="lightgray"></path> 
<path d="M 234.5 480.5 Q 262.5 489.5 334.5 495.5 C 364.5 498.5 356.5 512.5 329.5 526.5 L 328.5 527.5 Q 315.5 533.5 234.5 509.5 C 205.5 501.5 205.5 471.5 234.5 480.5 Z" fill="lightgray"></path> 
<path d="M 592.5 764.5 Q 576.5 774.5 560.5 781.5 Q 554.5 784.5 550.5 780.5 Q 543.5 776.5 549.5 765.5 Q 571.5 722.5 569.5 612.5 Q 566.5 549.5 597.5 528.5 Q 610.5 522.5 615.5 549.5 L 616.5 578.5 Q 615.5 614.5 613.5 649.5 L 613.5 679.5 Q 614.5 706.5 617.5 728.5 Q 617.5 729.5 617.5 732.5 C 618.5 748.5 618.5 748.5 592.5 764.5 Z" fill="lightgray"></path> 
<path d="M 790.5 563.5 Q 799.5 113.5 775.5 78.5 Q 771.5 72.5 752.5 76.5 Q 730.5 82.5 706.5 87.5 Q 684.5 96.5 685.5 85.5 Q 736.5 30.5 762.5 -7.5 Q 777.5 -29.5 793.5 -34.5 Q 803.5 -38.5 813.5 -28.5 Q 861.5 25.5 859.5 83.5 Q 847.5 297.5 846.5 643.5 Q 845.5 707.5 860.5 736.5 Q 873.5 758.5 860.5 769.5 Q 836.5 790.5 796.5 807.5 Q 777.5 814.5 760.5 808.5 Q 699.5 775.5 592.5 764.5 C 562.5 760.5 588.5 727.5 617.5 732.5 Q 620.5 732.5 746.5 757.5 Q 765.5 760.5 774.5 748.5 Q 787.5 735.5 787.5 690.5 Q 788.5 638.5 790.5 588.5 L 790.5 563.5 Z" fill="lightgray"></path> 
<path d="M 613.5 649.5 Q 679.5 656.5 727.5 662.5 Q 751.5 666.5 742.5 678.5 Q 732.5 693.5 706.5 698.5 Q 663.5 704.5 613.5 679.5 C 586.5 666.5 583.5 646.5 613.5 649.5 Z" fill="lightgray"></path> 
<path d="M 615.5 549.5 Q 619.5 548.5 629.5 549.5 Q 681.5 559.5 790.5 563.5 C 817.5 564.5 812.5 568.5 790.5 588.5 Q 786.5 592.5 779.5 597.5 Q 766.5 606.5 739.5 600.5 Q 672.5 585.5 616.5 578.5 C 586.5 574.5 585.5 551.5 615.5 549.5 Z" fill="lightgray"></path> 
<path d="M 358.5 434.5 Q 348.5 438.5 323.5 442.5 Q 313.5 443.5 309.5 439.5 Q 305.5 435.5 312.5 420.5 Q 340.5 365.5 358.5 273.5 Q 362.5 246.5 378.5 228.5 Q 394.5 209.5 399.5 223.5 Q 400.5 227.5 401.5 232.5 L 401.5 254.5 Q 400.5 267.5 397.5 283.5 Q 378.5 377.5 374.5 406.5 C 370.5 430.5 370.5 430.5 358.5 434.5 Z" fill="lightgray"></path> 
<path d="M 551.5 250.5 Q 567.5 225.5 582.5 216.5 Q 591.5 209.5 606.5 227.5 Q 619.5 248.5 652.5 364.5 Q 661.5 392.5 683.5 414.5 Q 695.5 424.5 685.5 438.5 Q 672.5 454.5 633.5 479.5 Q 618.5 486.5 552.5 472.5 Q 362.5 436.5 358.5 434.5 C 329.5 427.5 345.5 397.5 374.5 406.5 Q 402.5 415.5 441.5 422.5 L 482.5 430.5 Q 581.5 451.5 598.5 439.5 Q 610.5 429.5 606.5 412.5 Q 576.5 286.5 562.5 274.5 C 549.5 252.5 549.5 252.5 551.5 250.5 Z" fill="lightgray"></path> 
<path d="M 502.5 342.5 Q 521.5 349.5 545.5 355.5 Q 560.5 359.5 562.5 362.5 Q 568.5 369.5 564.5 374.5 Q 558.5 381.5 537.5 385.5 Q 521.5 386.5 506.5 380.5 L 459.5 362.5 Q 437.5 358.5 415.5 353.5 Q 390.5 346.5 410.5 336.5 Q 434.5 327.5 460.5 330.5 L 502.5 342.5 Z" fill="lightgray"></path> 
<path d="M 501.5 244.5 Q 526.5 248.5 551.5 250.5 C 581.5 253.5 589.5 261.5 562.5 274.5 Q 541.5 286.5 501.5 276.5 L 460.5 268.5 Q 429.5 261.5 401.5 254.5 C 372.5 247.5 371.5 232.5 401.5 232.5 Q 405.5 232.5 412.5 232.5 Q 436.5 236.5 460.5 238.5 L 501.5 244.5 Z" fill="lightgray"></path> 
<path d="M 460.5 238.5 Q 461.5 199.5 461.5 154.5 Q 461.5 37.5 473.5 16.5 Q 477.5 12.5 483.5 13.5 Q 489.5 16.5 492.5 27.5 Q 501.5 49.5 501.5 236.5 L 501.5 244.5 L 501.5 276.5 Q 501.5 306.5 502.5 342.5 L 506.5 380.5 Q 507.5 390.5 509.5 399.5 Q 510.5 412.5 501.5 419.5 Q 491.5 426.5 482.5 430.5 C 456.5 444.5 425.5 447.5 441.5 422.5 Q 442.5 422.5 443.5 420.5 Q 458.5 396.5 459.5 362.5 L 460.5 330.5 Q 460.5 302.5 460.5 268.5 L 460.5 238.5 Z" fill="lightgray"></path> 
      <clipPath id="make-me-a-hanzi-clip-0">
      <path d="M 227.5 723.5 Q 188.5 754.5 164.5 746.5 Q 157.5 740.5 163.5 727.5 Q 188.5 631.5 190.5 623.5 Q 190.5 613.5 191.5 598.5 Q 209.5 330.5 165.5 145.5 Q 150.5 85.5 189.5 36.5 Q 201.5 21.5 212.5 35.5 Q 230.5 59.5 231.5 236.5 Q 231.5 383.5 234.5 480.5 L 234.5 509.5 Q 235.5 555.5 236.5 589.5 L 237.5 622.5 Q 238.5 658.5 241.5 695.5 C 242.5 712.5 242.5 712.5 227.5 723.5 Z" fill="lightgray"></path>
      </clipPath>
      <path clip-path="url(#make-me-a-hanzi-clip-0)" d="M 171.5 738.5 L 208.5 689.5 L 214.5 630.5 L 212.5 315.5 L 193.5 106.5 L 201.5 41.5 " fill="none" id="make-me-a-hanzi-animation-0" stroke-dasharray="839 1678" stroke-linecap="round"></path>

      <clipPath id="make-me-a-hanzi-clip-1">
      <path d="M 334.5 495.5 Q 353.5 470.5 374.5 494.5 Q 386.5 509.5 396.5 577.5 Q 402.5 662.5 424.5 698.5 Q 436.5 717.5 423.5 731.5 Q 404.5 746.5 374.5 762.5 Q 359.5 768.5 344.5 761.5 Q 290.5 737.5 227.5 723.5 C 198.5 716.5 212.5 687.5 241.5 695.5 Q 247.5 696.5 255.5 699.5 Q 328.5 726.5 345.5 718.5 Q 352.5 714.5 351.5 687.5 Q 347.5 612.5 341.5 550.5 Q 340.5 532.5 329.5 526.5 C 317.5 512.5 317.5 512.5 334.5 495.5 Z" fill="lightgray"></path>
      </clipPath>
      <path clip-path="url(#make-me-a-hanzi-clip-1)" d="M 236.5 719.5 L 262.5 714.5 L 314.5 734.5 L 357.5 740.5 L 388.5 710.5 L 367.5 551.5 L 357.5 517.5 L 344.5 520.5 " fill="none" id="make-me-a-hanzi-animation-1" stroke-dasharray="506 1012" stroke-linecap="round"></path>

      <clipPath id="make-me-a-hanzi-clip-2">
      <path d="M 236.5 589.5 Q 276.5 596.5 306.5 600.5 Q 327.5 604.5 318.5 615.5 Q 308.5 628.5 285.5 630.5 Q 266.5 631.5 237.5 622.5 C 208.5 613.5 206.5 584.5 236.5 589.5 Z" fill="lightgray"></path>
      </clipPath>
      <path clip-path="url(#make-me-a-hanzi-clip-2)" d="M 243.5 594.5 L 261.5 611.5 L 289.5 614.5 L 310.5 609.5 " fill="none" id="make-me-a-hanzi-animation-2" stroke-dasharray="203 406" stroke-linecap="round"></path>

      <clipPath id="make-me-a-hanzi-clip-3">
      <path d="M 234.5 480.5 Q 262.5 489.5 334.5 495.5 C 364.5 498.5 356.5 512.5 329.5 526.5 L 328.5 527.5 Q 315.5 533.5 234.5 509.5 C 205.5 501.5 205.5 471.5 234.5 480.5 Z" fill="lightgray"></path>
      </clipPath>
      <path clip-path="url(#make-me-a-hanzi-clip-3)" d="M 237.5 487.5 L 250.5 502.5 L 304.5 508.5 L 324.5 522.5 " fill="none" id="make-me-a-hanzi-animation-3" stroke-dasharray="227 454" stroke-linecap="round"></path>

      <clipPath id="make-me-a-hanzi-clip-4">
      <path d="M 592.5 764.5 Q 576.5 774.5 560.5 781.5 Q 554.5 784.5 550.5 780.5 Q 543.5 776.5 549.5 765.5 Q 571.5 722.5 569.5 612.5 Q 566.5 549.5 597.5 528.5 Q 610.5 522.5 615.5 549.5 L 616.5 578.5 Q 615.5 614.5 613.5 649.5 L 613.5 679.5 Q 614.5 706.5 617.5 728.5 Q 617.5 729.5 617.5 732.5 C 618.5 748.5 618.5 748.5 592.5 764.5 Z" fill="lightgray"></path>
      </clipPath>
      <path clip-path="url(#make-me-a-hanzi-clip-4)" d="M 556.5 772.5 L 577.5 750.5 L 590.5 724.5 L 592.5 599.5 L 600.5 541.5 " fill="none" id="make-me-a-hanzi-animation-4" stroke-dasharray="371 742" stroke-linecap="round"></path>

      <clipPath id="make-me-a-hanzi-clip-5">
      <path d="M 790.5 563.5 Q 799.5 113.5 775.5 78.5 Q 771.5 72.5 752.5 76.5 Q 730.5 82.5 706.5 87.5 Q 684.5 96.5 685.5 85.5 Q 736.5 30.5 762.5 -7.5 Q 777.5 -29.5 793.5 -34.5 Q 803.5 -38.5 813.5 -28.5 Q 861.5 25.5 859.5 83.5 Q 847.5 297.5 846.5 643.5 Q 845.5 707.5 860.5 736.5 Q 873.5 758.5 860.5 769.5 Q 836.5 790.5 796.5 807.5 Q 777.5 814.5 760.5 808.5 Q 699.5 775.5 592.5 764.5 C 562.5 760.5 588.5 727.5 617.5 732.5 Q 620.5 732.5 746.5 757.5 Q 765.5 760.5 774.5 748.5 Q 787.5 735.5 787.5 690.5 Q 788.5 638.5 790.5 588.5 L 790.5 563.5 Z" fill="lightgray"></path>
      </clipPath>
      <path clip-path="url(#make-me-a-hanzi-clip-5)" d="M 602.5 763.5 L 612.5 754.5 L 635.5 752.5 L 772.5 783.5 L 803.5 767.5 L 820.5 746.5 L 818.5 74.5 L 809.5 48.5 L 796.5 32.5 L 771.5 39.5 L 695.5 82.5 " fill="none" id="make-me-a-hanzi-animation-5" stroke-dasharray="1200 2400" stroke-linecap="round"></path>

      <clipPath id="make-me-a-hanzi-clip-6">
      <path d="M 613.5 649.5 Q 679.5 656.5 727.5 662.5 Q 751.5 666.5 742.5 678.5 Q 732.5 693.5 706.5 698.5 Q 663.5 704.5 613.5 679.5 C 586.5 666.5 583.5 646.5 613.5 649.5 Z" fill="lightgray"></path>
      </clipPath>
      <path clip-path="url(#make-me-a-hanzi-clip-6)" d="M 620.5 657.5 L 630.5 669.5 L 685.5 679.5 L 732.5 672.5 " fill="none" id="make-me-a-hanzi-animation-6" stroke-dasharray="247 494" stroke-linecap="round"></path>

      <clipPath id="make-me-a-hanzi-clip-7">
      <path d="M 615.5 549.5 Q 619.5 548.5 629.5 549.5 Q 681.5 559.5 790.5 563.5 C 817.5 564.5 812.5 568.5 790.5 588.5 Q 786.5 592.5 779.5 597.5 Q 766.5 606.5 739.5 600.5 Q 672.5 585.5 616.5 578.5 C 586.5 574.5 585.5 551.5 615.5 549.5 Z" fill="lightgray"></path>
      </clipPath>
      <path clip-path="url(#make-me-a-hanzi-clip-7)" d="M 622.5 556.5 L 639.5 567.5 L 750.5 582.5 L 773.5 580.5 L 780.5 569.5 " fill="none" id="make-me-a-hanzi-animation-7" stroke-dasharray="296 592" stroke-linecap="round"></path>

      <clipPath id="make-me-a-hanzi-clip-8">
      <path d="M 358.5 434.5 Q 348.5 438.5 323.5 442.5 Q 313.5 443.5 309.5 439.5 Q 305.5 435.5 312.5 420.5 Q 340.5 365.5 358.5 273.5 Q 362.5 246.5 378.5 228.5 Q 394.5 209.5 399.5 223.5 Q 400.5 227.5 401.5 232.5 L 401.5 254.5 Q 400.5 267.5 397.5 283.5 Q 378.5 377.5 374.5 406.5 C 370.5 430.5 370.5 430.5 358.5 434.5 Z" fill="lightgray"></path>
      </clipPath>
      <path clip-path="url(#make-me-a-hanzi-clip-8)" d="M 317.5 434.5 L 339.5 417.5 L 349.5 398.5 L 389.5 228.5 " fill="none" id="make-me-a-hanzi-animation-8" stroke-dasharray="352 704" stroke-linecap="round"></path>

      <clipPath id="make-me-a-hanzi-clip-9">
      <path d="M 551.5 250.5 Q 567.5 225.5 582.5 216.5 Q 591.5 209.5 606.5 227.5 Q 619.5 248.5 652.5 364.5 Q 661.5 392.5 683.5 414.5 Q 695.5 424.5 685.5 438.5 Q 672.5 454.5 633.5 479.5 Q 618.5 486.5 552.5 472.5 Q 362.5 436.5 358.5 434.5 C 329.5 427.5 345.5 397.5 374.5 406.5 Q 402.5 415.5 441.5 422.5 L 482.5 430.5 Q 581.5 451.5 598.5 439.5 Q 610.5 429.5 606.5 412.5 Q 576.5 286.5 562.5 274.5 C 549.5 252.5 549.5 252.5 551.5 250.5 Z" fill="lightgray"></path>
      </clipPath>
      <path clip-path="url(#make-me-a-hanzi-clip-9)" d="M 363.5 430.5 L 388.5 425.5 L 534.5 453.5 L 540.5 459.5 L 600.5 461.5 L 622.5 453.5 L 644.5 426.5 L 585.5 254.5 L 589.5 233.5 " fill="none" id="make-me-a-hanzi-animation-9" stroke-dasharray="632 1264" stroke-linecap="round"></path>

      <clipPath id="make-me-a-hanzi-clip-10">
      <path d="M 502.5 342.5 Q 521.5 349.5 545.5 355.5 Q 560.5 359.5 562.5 362.5 Q 568.5 369.5 564.5 374.5 Q 558.5 381.5 537.5 385.5 Q 521.5 386.5 506.5 380.5 L 459.5 362.5 Q 437.5 358.5 415.5 353.5 Q 390.5 346.5 410.5 336.5 Q 434.5 327.5 460.5 330.5 L 502.5 342.5 Z" fill="lightgray"></path>
      </clipPath>
      <path clip-path="url(#make-me-a-hanzi-clip-10)" d="M 410.5 345.5 L 463.5 346.5 L 530.5 369.5 L 554.5 369.5 " fill="none" id="make-me-a-hanzi-animation-10" stroke-dasharray="276 552" stroke-linecap="round"></path>

      <clipPath id="make-me-a-hanzi-clip-11">
      <path d="M 501.5 244.5 Q 526.5 248.5 551.5 250.5 C 581.5 253.5 589.5 261.5 562.5 274.5 Q 541.5 286.5 501.5 276.5 L 460.5 268.5 Q 429.5 261.5 401.5 254.5 C 372.5 247.5 371.5 232.5 401.5 232.5 Q 405.5 232.5 412.5 232.5 Q 436.5 236.5 460.5 238.5 L 501.5 244.5 Z" fill="lightgray"></path>
      </clipPath>
      <path clip-path="url(#make-me-a-hanzi-clip-11)" d="M 407.5 238.5 L 425.5 248.5 L 554.5 270.5 " fill="none" id="make-me-a-hanzi-animation-11" stroke-dasharray="279 558" stroke-linecap="round"></path>

      <clipPath id="make-me-a-hanzi-clip-12">
      <path d="M 460.5 238.5 Q 461.5 199.5 461.5 154.5 Q 461.5 37.5 473.5 16.5 Q 477.5 12.5 483.5 13.5 Q 489.5 16.5 492.5 27.5 Q 501.5 49.5 501.5 236.5 L 501.5 244.5 L 501.5 276.5 Q 501.5 306.5 502.5 342.5 L 506.5 380.5 Q 507.5 390.5 509.5 399.5 Q 510.5 412.5 501.5 419.5 Q 491.5 426.5 482.5 430.5 C 456.5 444.5 425.5 447.5 441.5 422.5 Q 442.5 422.5 443.5 420.5 Q 458.5 396.5 459.5 362.5 L 460.5 330.5 Q 460.5 302.5 460.5 268.5 L 460.5 238.5 Z" fill="lightgray"></path>
      </clipPath>
      <path clip-path="url(#make-me-a-hanzi-clip-12)" d="M 451.5 416.5 L 478.5 404.5 L 482.5 388.5 L 480.5 21.5 " fill="none" id="make-me-a-hanzi-animation-12" stroke-dasharray="541 1082" stroke-linecap="round"></path>

</g>
</svg>
