<svg version="1.1" viewBox="0 0 1024 1024" xmlns="http://www.w3.org/2000/svg">
  <g stroke="lightgray" stroke-dasharray="1,1" stroke-width="1" transform="scale(4, 4)">
    <line x1="0" y1="0" x2="256" y2="256"></line>
    <line x1="256" y1="0" x2="0" y2="256"></line>
    <line x1="128" y1="0" x2="128" y2="256"></line>
    <line x1="0" y1="128" x2="256" y2="128"></line>
  </g>
<g transform="scale(1, -1) translate(0, -900)">
   <style type="text/css">
    @keyframes keyframes0 {
      from {
       stroke: blue;
       stroke-dashoffset: 992;
       stroke-width: 128;
       }
       76% {
       animation-timing-function: step-end;
       stroke: blue;
       stroke-dashoffset: 0;
       stroke-width: 128;
       }
       to {
       stroke: black;
       stroke-width: 1024;
       }
       }
       #make-me-a-hanzi-animation-0 {
         animation: keyframes0 1.057292s both;
         animation-delay: 0.000000s;
         animation-timing-function: linear;
       }
    @keyframes keyframes1 {
      from {
       stroke: blue;
       stroke-dashoffset: 611;
       stroke-width: 128;
       }
       67% {
       animation-timing-function: step-end;
       stroke: blue;
       stroke-dashoffset: 0;
       stroke-width: 128;
       }
       to {
       stroke: black;
       stroke-width: 1024;
       }
       }
       #make-me-a-hanzi-animation-1 {
         animation: keyframes1 0.747233s both;
         animation-delay: 1.057292s;
         animation-timing-function: linear;
       }
    @keyframes keyframes2 {
      from {
       stroke: blue;
       stroke-dashoffset: 345;
       stroke-width: 128;
       }
       53% {
       animation-timing-function: step-end;
       stroke: blue;
       stroke-dashoffset: 0;
       stroke-width: 128;
       }
       to {
       stroke: black;
       stroke-width: 1024;
       }
       }
       #make-me-a-hanzi-animation-2 {
         animation: keyframes2 0.530762s both;
         animation-delay: 1.804525s;
         animation-timing-function: linear;
       }
    @keyframes keyframes3 {
      from {
       stroke: blue;
       stroke-dashoffset: 355;
       stroke-width: 128;
       }
       54% {
       animation-timing-function: step-end;
       stroke: blue;
       stroke-dashoffset: 0;
       stroke-width: 128;
       }
       to {
       stroke: black;
       stroke-width: 1024;
       }
       }
       #make-me-a-hanzi-animation-3 {
         animation: keyframes3 0.538900s both;
         animation-delay: 2.335286s;
         animation-timing-function: linear;
       }
    @keyframes keyframes4 {
      from {
       stroke: blue;
       stroke-dashoffset: 503;
       stroke-width: 128;
       }
       62% {
       animation-timing-function: step-end;
       stroke: blue;
       stroke-dashoffset: 0;
       stroke-width: 128;
       }
       to {
       stroke: black;
       stroke-width: 1024;
       }
       }
       #make-me-a-hanzi-animation-4 {
         animation: keyframes4 0.659342s both;
         animation-delay: 2.874186s;
         animation-timing-function: linear;
       }
    @keyframes keyframes5 {
      from {
       stroke: blue;
       stroke-dashoffset: 1382;
       stroke-width: 128;
       }
       82% {
       animation-timing-function: step-end;
       stroke: blue;
       stroke-dashoffset: 0;
       stroke-width: 128;
       }
       to {
       stroke: black;
       stroke-width: 1024;
       }
       }
       #make-me-a-hanzi-animation-5 {
         animation: keyframes5 1.374674s both;
         animation-delay: 3.533529s;
         animation-timing-function: linear;
       }
    @keyframes keyframes6 {
      from {
       stroke: blue;
       stroke-dashoffset: 352;
       stroke-width: 128;
       }
       53% {
       animation-timing-function: step-end;
       stroke: blue;
       stroke-dashoffset: 0;
       stroke-width: 128;
       }
       to {
       stroke: black;
       stroke-width: 1024;
       }
       }
       #make-me-a-hanzi-animation-6 {
         animation: keyframes6 0.536458s both;
         animation-delay: 4.908203s;
         animation-timing-function: linear;
       }
    @keyframes keyframes7 {
      from {
       stroke: blue;
       stroke-dashoffset: 410;
       stroke-width: 128;
       }
       57% {
       animation-timing-function: step-end;
       stroke: blue;
       stroke-dashoffset: 0;
       stroke-width: 128;
       }
       to {
       stroke: black;
       stroke-width: 1024;
       }
       }
       #make-me-a-hanzi-animation-7 {
         animation: keyframes7 0.583659s both;
         animation-delay: 5.444661s;
         animation-timing-function: linear;
       }
    @keyframes keyframes8 {
      from {
       stroke: blue;
       stroke-dashoffset: 460;
       stroke-width: 128;
       }
       60% {
       animation-timing-function: step-end;
       stroke: blue;
       stroke-dashoffset: 0;
       stroke-width: 128;
       }
       to {
       stroke: black;
       stroke-width: 1024;
       }
       }
       #make-me-a-hanzi-animation-8 {
         animation: keyframes8 0.624349s both;
         animation-delay: 6.028320s;
         animation-timing-function: linear;
       }
    @keyframes keyframes9 {
      from {
       stroke: blue;
       stroke-dashoffset: 520;
       stroke-width: 128;
       }
       63% {
       animation-timing-function: step-end;
       stroke: blue;
       stroke-dashoffset: 0;
       stroke-width: 128;
       }
       to {
       stroke: black;
       stroke-width: 1024;
       }
       }
       #make-me-a-hanzi-animation-9 {
         animation: keyframes9 0.673177s both;
         animation-delay: 6.652669s;
         animation-timing-function: linear;
       }
    @keyframes keyframes10 {
      from {
       stroke: blue;
       stroke-dashoffset: 395;
       stroke-width: 128;
       }
       56% {
       animation-timing-function: step-end;
       stroke: blue;
       stroke-dashoffset: 0;
       stroke-width: 128;
       }
       to {
       stroke: black;
       stroke-width: 1024;
       }
       }
       #make-me-a-hanzi-animation-10 {
         animation: keyframes10 0.571452s both;
         animation-delay: 7.325846s;
         animation-timing-function: linear;
       }
    @keyframes keyframes11 {
      from {
       stroke: blue;
       stroke-dashoffset: 411;
       stroke-width: 128;
       }
       57% {
       animation-timing-function: step-end;
       stroke: blue;
       stroke-dashoffset: 0;
       stroke-width: 128;
       }
       to {
       stroke: black;
       stroke-width: 1024;
       }
       }
       #make-me-a-hanzi-animation-11 {
         animation: keyframes11 0.584473s both;
         animation-delay: 7.897298s;
         animation-timing-function: linear;
       }
    @keyframes keyframes12 {
      from {
       stroke: blue;
       stroke-dashoffset: 428;
       stroke-width: 128;
       }
       58% {
       animation-timing-function: step-end;
       stroke: blue;
       stroke-dashoffset: 0;
       stroke-width: 128;
       }
       to {
       stroke: black;
       stroke-width: 1024;
       }
       }
       #make-me-a-hanzi-animation-12 {
         animation: keyframes12 0.598307s both;
         animation-delay: 8.481771s;
         animation-timing-function: linear;
       }
    @keyframes keyframes13 {
      from {
       stroke: blue;
       stroke-dashoffset: 842;
       stroke-width: 128;
       }
       73% {
       animation-timing-function: step-end;
       stroke: blue;
       stroke-dashoffset: 0;
       stroke-width: 128;
       }
       to {
       stroke: black;
       stroke-width: 1024;
       }
       }
       #make-me-a-hanzi-animation-13 {
         animation: keyframes13 0.935221s both;
         animation-delay: 9.080078s;
         animation-timing-function: linear;
       }
    @keyframes keyframes14 {
      from {
       stroke: blue;
       stroke-dashoffset: 382;
       stroke-width: 128;
       }
       55% {
       animation-timing-function: step-end;
       stroke: blue;
       stroke-dashoffset: 0;
       stroke-width: 128;
       }
       to {
       stroke: black;
       stroke-width: 1024;
       }
       }
       #make-me-a-hanzi-animation-14 {
         animation: keyframes14 0.560872s both;
         animation-delay: 10.015299s;
         animation-timing-function: linear;
       }
    @keyframes keyframes15 {
      from {
       stroke: blue;
       stroke-dashoffset: 323;
       stroke-width: 128;
       }
       51% {
       animation-timing-function: step-end;
       stroke: blue;
       stroke-dashoffset: 0;
       stroke-width: 128;
       }
       to {
       stroke: black;
       stroke-width: 1024;
       }
       }
       #make-me-a-hanzi-animation-15 {
         animation: keyframes15 0.512858s both;
         animation-delay: 10.576172s;
         animation-timing-function: linear;
       }
    @keyframes keyframes16 {
      from {
       stroke: blue;
       stroke-dashoffset: 310;
       stroke-width: 128;
       }
       50% {
       animation-timing-function: step-end;
       stroke: blue;
       stroke-dashoffset: 0;
       stroke-width: 128;
       }
       to {
       stroke: black;
       stroke-width: 1024;
       }
       }
       #make-me-a-hanzi-animation-16 {
         animation: keyframes16 0.502279s both;
         animation-delay: 11.089030s;
         animation-timing-function: linear;
       }
    @keyframes keyframes17 {
      from {
       stroke: blue;
       stroke-dashoffset: 322;
       stroke-width: 128;
       }
       51% {
       animation-timing-function: step-end;
       stroke: blue;
       stroke-dashoffset: 0;
       stroke-width: 128;
       }
       to {
       stroke: black;
       stroke-width: 1024;
       }
       }
       #make-me-a-hanzi-animation-17 {
         animation: keyframes17 0.512044s both;
         animation-delay: 11.591309s;
         animation-timing-function: linear;
       }
</style>
<path d="M 240.0 751.5 Q 218.0 770.5 191.0 778.5 Q 181.0 781.5 175.0 772.5 Q 171.0 766.5 179.0 755.5 Q 209.0 679.5 208.0 603.5 Q 214.0 294.5 164.0 139.5 Q 155.0 112.5 160.0 92.5 Q 169.0 56.5 181.0 43.5 Q 193.0 28.5 203.0 43.5 Q 236.0 80.5 240.0 238.5 Q 241.0 335.5 243.0 430.5 Q 243.0 485.5 244.0 530.5 L 244.0 555.5 Q 245.0 592.5 247.0 621.5 L 249.0 649.5 Q 252.0 698.5 256.0 721.5 Q 256.0 725.5 256.0 727.5 C 257.0 738.5 257.0 738.5 240.0 751.5 Z" fill="lightgray"></path> 
<path d="M 346.0 548.5 Q 365.0 521.5 384.0 544.5 Q 396.0 559.5 405.0 625.5 Q 411.0 700.5 432.0 729.5 Q 442.0 745.5 431.0 759.5 Q 415.0 772.5 388.0 788.5 Q 375.0 792.5 360.0 787.5 Q 305.0 765.5 240.0 751.5 C 211.0 744.5 227.0 720.5 256.0 727.5 Q 349.0 751.5 353.0 750.5 Q 356.0 750.5 360.0 748.5 Q 367.0 744.5 366.0 720.5 Q 354.0 584.5 348.0 577.5 C 341.0 553.5 341.0 553.5 346.0 548.5 Z" fill="lightgray"></path> 
<path d="M 247.0 621.5 Q 296.0 633.5 332.0 641.5 Q 351.0 645.5 343.0 656.5 Q 333.0 666.5 311.0 668.5 Q 278.0 668.5 249.0 649.5 C 224.0 633.5 218.0 614.5 247.0 621.5 Z" fill="lightgray"></path> 
<path d="M 244.0 530.5 Q 244.0 531.5 246.0 531.5 Q 301.0 541.5 346.0 548.5 C 376.0 553.5 377.0 569.5 348.0 577.5 Q 345.0 578.5 340.0 579.5 Q 307.0 582.5 244.0 555.5 C 216.0 543.5 216.0 520.5 244.0 530.5 Z" fill="lightgray"></path> 
<path d="M 613.0 807.5 Q 597.0 819.5 580.0 825.5 Q 574.0 828.5 570.0 824.5 Q 563.0 820.5 569.0 809.5 Q 591.0 764.5 589.0 652.5 Q 586.0 589.5 617.0 568.5 Q 630.0 562.5 635.0 589.5 Q 635.0 590.5 635.0 593.5 L 636.0 621.5 Q 633.0 651.5 633.0 686.5 L 633.0 711.5 Q 634.0 745.5 637.0 772.5 Q 637.0 773.5 637.0 776.5 C 638.0 790.5 638.0 790.5 613.0 807.5 Z" fill="lightgray"></path> 
<path d="M 792.0 600.5 Q 805.0 84.5 779.0 34.5 Q 773.0 30.5 705.0 41.5 Q 684.0 47.5 685.0 37.5 Q 740.0 -11.5 771.0 -46.5 Q 784.0 -65.5 801.0 -70.5 Q 811.0 -74.5 820.0 -64.5 Q 862.0 -6.5 860.0 44.5 Q 845.0 288.5 842.0 686.5 Q 841.0 747.5 856.0 774.5 Q 869.0 795.5 856.0 806.5 Q 834.0 827.5 794.0 843.5 Q 775.0 850.5 759.0 844.5 Q 702.0 816.5 613.0 807.5 C 583.0 803.5 607.0 771.5 637.0 776.5 Q 644.0 776.5 654.0 778.5 Q 700.0 787.5 745.0 795.5 Q 764.0 796.5 772.0 785.5 Q 788.0 770.5 788.0 719.5 Q 789.0 673.5 791.0 628.5 L 792.0 600.5 Z" fill="lightgray"></path> 
<path d="M 633.0 686.5 Q 685.0 692.5 726.0 698.5 Q 745.0 701.5 738.0 712.5 Q 729.0 724.5 708.0 727.5 Q 675.0 733.5 633.0 711.5 C 606.0 697.5 603.0 683.5 633.0 686.5 Z" fill="lightgray"></path> 
<path d="M 635.0 593.5 Q 636.0 593.5 641.0 593.5 Q 725.0 599.5 792.0 600.5 C 822.0 600.5 815.0 611.5 791.0 628.5 Q 784.0 634.5 773.0 636.5 Q 743.0 645.5 636.0 621.5 C 607.0 614.5 605.0 593.5 635.0 593.5 Z" fill="lightgray"></path> 
<path d="M 538.0 470.5 Q 626.0 494.5 628.0 494.5 Q 635.0 500.5 631.0 506.5 Q 627.0 513.5 606.0 519.5 Q 584.0 523.5 564.0 514.5 Q 534.0 504.5 501.0 494.5 Q 464.0 485.5 422.0 480.5 Q 421.0 480.5 421.0 479.5 C 392.0 471.5 398.0 461.5 428.0 458.5 Q 447.0 455.5 500.0 462.5 L 538.0 470.5 Z" fill="lightgray"></path> 
<path d="M 421.0 479.5 Q 397.0 503.5 375.0 505.5 Q 366.0 505.5 364.0 498.5 Q 361.0 491.5 368.0 485.5 Q 386.0 452.5 376.0 335.5 Q 370.0 277.5 364.0 267.5 Q 361.0 257.5 374.0 244.5 Q 384.0 234.5 389.0 234.5 Q 396.0 235.5 408.0 239.5 C 415.0 241.5 414.0 259.5 411.0 289.5 Q 405.0 346.5 421.0 439.5 Q 421.0 452.5 428.0 458.5 C 434.0 467.5 434.0 467.5 421.0 479.5 Z" fill="lightgray"></path> 
<path d="M 541.0 402.5 Q 569.0 408.5 595.0 412.5 Q 611.0 416.5 606.0 425.5 Q 599.0 435.5 580.0 438.5 Q 567.0 439.5 544.0 433.5 L 502.0 421.5 Q 477.0 414.5 454.0 407.5 Q 442.0 404.5 457.0 393.5 Q 460.0 392.5 502.0 395.5 L 541.0 402.5 Z" fill="lightgray"></path> 
<path d="M 536.0 334.5 Q 569.0 341.5 599.0 345.5 Q 615.0 348.5 610.0 357.5 Q 603.0 367.5 584.0 370.5 Q 568.0 371.5 538.0 364.5 L 502.0 353.5 Q 471.0 346.5 446.0 338.5 Q 434.0 337.5 449.0 325.5 Q 450.0 325.5 502.0 328.5 L 536.0 334.5 Z" fill="lightgray"></path> 
<path d="M 538.0 364.5 Q 539.0 385.5 541.0 402.5 L 544.0 433.5 Q 544.0 440.5 545.0 444.5 Q 551.0 457.5 544.0 464.5 Q 541.0 468.5 538.0 470.5 C 516.0 490.5 494.0 491.5 500.0 462.5 Q 503.0 452.5 502.0 421.5 L 502.0 395.5 Q 502.0 379.5 502.0 353.5 L 502.0 328.5 Q 502.0 312.5 502.0 291.5 C 502.0 261.5 534.0 266.5 534.0 296.5 Q 534.0 315.5 536.0 334.5 L 538.0 364.5 Z" fill="lightgray"></path> 
<path d="M 408.0 239.5 Q 442.0 263.5 577.0 278.5 Q 620.0 285.5 638.0 276.5 Q 648.0 270.5 647.0 257.5 Q 648.0 250.5 638.0 174.5 Q 629.0 131.5 620.0 114.5 Q 611.0 101.5 597.0 105.5 Q 578.0 111.5 557.0 117.5 Q 544.0 123.5 541.0 119.5 Q 538.0 115.5 550.0 105.5 Q 593.0 50.5 595.0 33.5 Q 598.0 26.5 605.0 25.5 Q 617.0 24.5 641.0 46.5 Q 662.0 68.5 676.0 131.5 Q 692.0 257.5 710.0 267.5 Q 716.0 273.5 715.0 278.5 Q 716.0 282.5 691.0 300.5 Q 669.0 313.5 663.0 315.5 Q 654.0 316.5 636.0 311.5 Q 623.0 308.5 606.0 307.5 Q 578.0 306.5 534.0 296.5 L 502.0 291.5 Q 462.0 285.5 436.0 277.5 Q 414.0 273.5 411.0 289.5 C 390.0 310.5 381.0 225.5 408.0 239.5 Z" fill="lightgray"></path> 
<path d="M 311.0 210.5 Q 304.0 167.5 289.0 127.5 Q 280.0 100.5 298.0 78.5 Q 307.0 66.5 320.0 79.5 Q 350.0 113.5 340.0 173.5 Q 339.0 198.5 329.0 214.5 Q 325.0 220.5 319.0 219.5 Q 313.0 218.5 311.0 210.5 Z" fill="lightgray"></path> 
<path d="M 386.0 187.5 Q 399.0 126.5 413.0 118.5 Q 420.0 114.5 429.0 122.5 Q 433.0 129.5 435.0 143.5 Q 432.0 173.5 397.0 201.5 Q 393.0 204.5 388.0 198.5 Q 385.0 194.5 386.0 187.5 Z" fill="lightgray"></path> 
<path d="M 471.0 201.5 Q 483.0 153.5 496.0 146.5 Q 503.0 142.5 513.0 151.5 Q 517.0 158.5 518.0 174.5 Q 517.0 184.5 505.0 195.5 Q 489.0 211.5 482.0 217.5 Q 476.0 221.5 472.0 214.5 Q 469.0 210.5 471.0 201.5 Z" fill="lightgray"></path> 
<path d="M 555.0 206.5 Q 574.0 166.5 585.0 163.5 Q 589.0 162.5 595.0 167.5 Q 599.0 174.5 601.0 191.5 Q 601.0 203.5 560.0 232.5 Q 553.0 236.5 549.0 236.5 Q 546.0 235.5 544.0 228.5 Q 544.0 221.5 555.0 206.5 Z" fill="lightgray"></path> 
      <clipPath id="make-me-a-hanzi-clip-0">
      <path d="M 240.0 751.5 Q 218.0 770.5 191.0 778.5 Q 181.0 781.5 175.0 772.5 Q 171.0 766.5 179.0 755.5 Q 209.0 679.5 208.0 603.5 Q 214.0 294.5 164.0 139.5 Q 155.0 112.5 160.0 92.5 Q 169.0 56.5 181.0 43.5 Q 193.0 28.5 203.0 43.5 Q 236.0 80.5 240.0 238.5 Q 241.0 335.5 243.0 430.5 Q 243.0 485.5 244.0 530.5 L 244.0 555.5 Q 245.0 592.5 247.0 621.5 L 249.0 649.5 Q 252.0 698.5 256.0 721.5 Q 256.0 725.5 256.0 727.5 C 257.0 738.5 257.0 738.5 240.0 751.5 Z" fill="lightgray"></path>
      </clipPath>
      <path clip-path="url(#make-me-a-hanzi-clip-0)" d="M 185.0 767.5 L 224.0 719.5 L 228.0 616.5 L 224.0 379.5 L 214.0 227.5 L 193.0 111.5 L 192.0 47.5 " fill="none" id="make-me-a-hanzi-animation-0" stroke-dasharray="864 1728" stroke-linecap="round"></path>

      <clipPath id="make-me-a-hanzi-clip-1">
      <path d="M 346.0 548.5 Q 365.0 521.5 384.0 544.5 Q 396.0 559.5 405.0 625.5 Q 411.0 700.5 432.0 729.5 Q 442.0 745.5 431.0 759.5 Q 415.0 772.5 388.0 788.5 Q 375.0 792.5 360.0 787.5 Q 305.0 765.5 240.0 751.5 C 211.0 744.5 227.0 720.5 256.0 727.5 Q 349.0 751.5 353.0 750.5 Q 356.0 750.5 360.0 748.5 Q 367.0 744.5 366.0 720.5 Q 354.0 584.5 348.0 577.5 C 341.0 553.5 341.0 553.5 346.0 548.5 Z" fill="lightgray"></path>
      </clipPath>
      <path clip-path="url(#make-me-a-hanzi-clip-1)" d="M 249.0 748.5 L 267.0 743.5 L 371.0 768.5 L 399.0 741.5 L 367.0 553.5 " fill="none" id="make-me-a-hanzi-animation-1" stroke-dasharray="483 966" stroke-linecap="round"></path>

      <clipPath id="make-me-a-hanzi-clip-2">
      <path d="M 247.0 621.5 Q 296.0 633.5 332.0 641.5 Q 351.0 645.5 343.0 656.5 Q 333.0 666.5 311.0 668.5 Q 278.0 668.5 249.0 649.5 C 224.0 633.5 218.0 614.5 247.0 621.5 Z" fill="lightgray"></path>
      </clipPath>
      <path clip-path="url(#make-me-a-hanzi-clip-2)" d="M 254.0 628.5 L 263.0 640.5 L 295.0 650.5 L 335.0 650.5 " fill="none" id="make-me-a-hanzi-animation-2" stroke-dasharray="217 434" stroke-linecap="round"></path>

      <clipPath id="make-me-a-hanzi-clip-3">
      <path d="M 244.0 530.5 Q 244.0 531.5 246.0 531.5 Q 301.0 541.5 346.0 548.5 C 376.0 553.5 377.0 569.5 348.0 577.5 Q 345.0 578.5 340.0 579.5 Q 307.0 582.5 244.0 555.5 C 216.0 543.5 216.0 520.5 244.0 530.5 Z" fill="lightgray"></path>
      </clipPath>
      <path clip-path="url(#make-me-a-hanzi-clip-3)" d="M 253.0 538.5 L 258.0 548.5 L 330.0 562.5 L 342.0 570.5 " fill="none" id="make-me-a-hanzi-animation-3" stroke-dasharray="227 454" stroke-linecap="round"></path>

      <clipPath id="make-me-a-hanzi-clip-4">
      <path d="M 613.0 807.5 Q 597.0 819.5 580.0 825.5 Q 574.0 828.5 570.0 824.5 Q 563.0 820.5 569.0 809.5 Q 591.0 764.5 589.0 652.5 Q 586.0 589.5 617.0 568.5 Q 630.0 562.5 635.0 589.5 Q 635.0 590.5 635.0 593.5 L 636.0 621.5 Q 633.0 651.5 633.0 686.5 L 633.0 711.5 Q 634.0 745.5 637.0 772.5 Q 637.0 773.5 637.0 776.5 C 638.0 790.5 638.0 790.5 613.0 807.5 Z" fill="lightgray"></path>
      </clipPath>
      <path clip-path="url(#make-me-a-hanzi-clip-4)" d="M 576.0 816.5 L 597.0 794.5 L 610.0 767.5 L 611.0 642.5 L 620.0 581.5 " fill="none" id="make-me-a-hanzi-animation-4" stroke-dasharray="375 750" stroke-linecap="round"></path>

      <clipPath id="make-me-a-hanzi-clip-5">
      <path d="M 792.0 600.5 Q 805.0 84.5 779.0 34.5 Q 773.0 30.5 705.0 41.5 Q 684.0 47.5 685.0 37.5 Q 740.0 -11.5 771.0 -46.5 Q 784.0 -65.5 801.0 -70.5 Q 811.0 -74.5 820.0 -64.5 Q 862.0 -6.5 860.0 44.5 Q 845.0 288.5 842.0 686.5 Q 841.0 747.5 856.0 774.5 Q 869.0 795.5 856.0 806.5 Q 834.0 827.5 794.0 843.5 Q 775.0 850.5 759.0 844.5 Q 702.0 816.5 613.0 807.5 C 583.0 803.5 607.0 771.5 637.0 776.5 Q 644.0 776.5 654.0 778.5 Q 700.0 787.5 745.0 795.5 Q 764.0 796.5 772.0 785.5 Q 788.0 770.5 788.0 719.5 Q 789.0 673.5 791.0 628.5 L 792.0 600.5 Z" fill="lightgray"></path>
      </clipPath>
      <path clip-path="url(#make-me-a-hanzi-clip-5)" d="M 622.0 806.5 L 647.0 794.5 L 771.0 819.5 L 789.0 812.5 L 818.0 786.5 L 821.0 38.5 L 814.0 11.5 L 800.0 -8.5 L 695.0 34.5 " fill="none" id="make-me-a-hanzi-animation-5" stroke-dasharray="1254 2508" stroke-linecap="round"></path>

      <clipPath id="make-me-a-hanzi-clip-6">
      <path d="M 633.0 686.5 Q 685.0 692.5 726.0 698.5 Q 745.0 701.5 738.0 712.5 Q 729.0 724.5 708.0 727.5 Q 675.0 733.5 633.0 711.5 C 606.0 697.5 603.0 683.5 633.0 686.5 Z" fill="lightgray"></path>
      </clipPath>
      <path clip-path="url(#make-me-a-hanzi-clip-6)" d="M 641.0 692.5 L 648.0 703.5 L 662.0 707.5 L 711.0 712.5 L 730.0 707.5 " fill="none" id="make-me-a-hanzi-animation-6" stroke-dasharray="224 448" stroke-linecap="round"></path>

      <clipPath id="make-me-a-hanzi-clip-7">
      <path d="M 635.0 593.5 Q 636.0 593.5 641.0 593.5 Q 725.0 599.5 792.0 600.5 C 822.0 600.5 815.0 611.5 791.0 628.5 Q 784.0 634.5 773.0 636.5 Q 743.0 645.5 636.0 621.5 C 607.0 614.5 605.0 593.5 635.0 593.5 Z" fill="lightgray"></path>
      </clipPath>
      <path clip-path="url(#make-me-a-hanzi-clip-7)" d="M 638.0 600.5 L 652.0 610.5 L 739.0 619.5 L 771.0 617.5 L 785.0 607.5 " fill="none" id="make-me-a-hanzi-animation-7" stroke-dasharray="282 564" stroke-linecap="round"></path>

      <clipPath id="make-me-a-hanzi-clip-8">
      <path d="M 538.0 470.5 Q 626.0 494.5 628.0 494.5 Q 635.0 500.5 631.0 506.5 Q 627.0 513.5 606.0 519.5 Q 584.0 523.5 564.0 514.5 Q 534.0 504.5 501.0 494.5 Q 464.0 485.5 422.0 480.5 Q 421.0 480.5 421.0 479.5 C 392.0 471.5 398.0 461.5 428.0 458.5 Q 447.0 455.5 500.0 462.5 L 538.0 470.5 Z" fill="lightgray"></path>
      </clipPath>
      <path clip-path="url(#make-me-a-hanzi-clip-8)" d="M 426.0 475.5 L 455.0 470.5 L 548.0 488.5 L 597.0 504.5 L 625.0 501.5 " fill="none" id="make-me-a-hanzi-animation-8" stroke-dasharray="332 664" stroke-linecap="round"></path>

      <clipPath id="make-me-a-hanzi-clip-9">
      <path d="M 421.0 479.5 Q 397.0 503.5 375.0 505.5 Q 366.0 505.5 364.0 498.5 Q 361.0 491.5 368.0 485.5 Q 386.0 452.5 376.0 335.5 Q 370.0 277.5 364.0 267.5 Q 361.0 257.5 374.0 244.5 Q 384.0 234.5 389.0 234.5 Q 396.0 235.5 408.0 239.5 C 415.0 241.5 414.0 259.5 411.0 289.5 Q 405.0 346.5 421.0 439.5 Q 421.0 452.5 428.0 458.5 C 434.0 467.5 434.0 467.5 421.0 479.5 Z" fill="lightgray"></path>
      </clipPath>
      <path clip-path="url(#make-me-a-hanzi-clip-9)" d="M 374.0 494.5 L 386.0 486.5 L 401.0 462.5 L 387.0 263.5 L 400.0 246.5 " fill="none" id="make-me-a-hanzi-animation-9" stroke-dasharray="392 784" stroke-linecap="round"></path>

      <clipPath id="make-me-a-hanzi-clip-10">
      <path d="M 541.0 402.5 Q 569.0 408.5 595.0 412.5 Q 611.0 416.5 606.0 425.5 Q 599.0 435.5 580.0 438.5 Q 567.0 439.5 544.0 433.5 L 502.0 421.5 Q 477.0 414.5 454.0 407.5 Q 442.0 404.5 457.0 393.5 Q 460.0 392.5 502.0 395.5 L 541.0 402.5 Z" fill="lightgray"></path>
      </clipPath>
      <path clip-path="url(#make-me-a-hanzi-clip-10)" d="M 460.0 401.5 L 566.0 423.5 L 597.0 421.5 " fill="none" id="make-me-a-hanzi-animation-10" stroke-dasharray="267 534" stroke-linecap="round"></path>

      <clipPath id="make-me-a-hanzi-clip-11">
      <path d="M 536.0 334.5 Q 569.0 341.5 599.0 345.5 Q 615.0 348.5 610.0 357.5 Q 603.0 367.5 584.0 370.5 Q 568.0 371.5 538.0 364.5 L 502.0 353.5 Q 471.0 346.5 446.0 338.5 Q 434.0 337.5 449.0 325.5 Q 450.0 325.5 502.0 328.5 L 536.0 334.5 Z" fill="lightgray"></path>
      </clipPath>
      <path clip-path="url(#make-me-a-hanzi-clip-11)" d="M 450.0 332.5 L 490.0 336.5 L 566.0 356.5 L 602.0 354.5 " fill="none" id="make-me-a-hanzi-animation-11" stroke-dasharray="283 566" stroke-linecap="round"></path>

      <clipPath id="make-me-a-hanzi-clip-12">
      <path d="M 538.0 364.5 Q 539.0 385.5 541.0 402.5 L 544.0 433.5 Q 544.0 440.5 545.0 444.5 Q 551.0 457.5 544.0 464.5 Q 541.0 468.5 538.0 470.5 C 516.0 490.5 494.0 491.5 500.0 462.5 Q 503.0 452.5 502.0 421.5 L 502.0 395.5 Q 502.0 379.5 502.0 353.5 L 502.0 328.5 Q 502.0 312.5 502.0 291.5 C 502.0 261.5 534.0 266.5 534.0 296.5 Q 534.0 315.5 536.0 334.5 L 538.0 364.5 Z" fill="lightgray"></path>
      </clipPath>
      <path clip-path="url(#make-me-a-hanzi-clip-12)" d="M 507.0 459.5 L 524.0 440.5 L 519.0 316.5 L 506.0 298.5 " fill="none" id="make-me-a-hanzi-animation-12" stroke-dasharray="300 600" stroke-linecap="round"></path>

      <clipPath id="make-me-a-hanzi-clip-13">
      <path d="M 408.0 239.5 Q 442.0 263.5 577.0 278.5 Q 620.0 285.5 638.0 276.5 Q 648.0 270.5 647.0 257.5 Q 648.0 250.5 638.0 174.5 Q 629.0 131.5 620.0 114.5 Q 611.0 101.5 597.0 105.5 Q 578.0 111.5 557.0 117.5 Q 544.0 123.5 541.0 119.5 Q 538.0 115.5 550.0 105.5 Q 593.0 50.5 595.0 33.5 Q 598.0 26.5 605.0 25.5 Q 617.0 24.5 641.0 46.5 Q 662.0 68.5 676.0 131.5 Q 692.0 257.5 710.0 267.5 Q 716.0 273.5 715.0 278.5 Q 716.0 282.5 691.0 300.5 Q 669.0 313.5 663.0 315.5 Q 654.0 316.5 636.0 311.5 Q 623.0 308.5 606.0 307.5 Q 578.0 306.5 534.0 296.5 L 502.0 291.5 Q 462.0 285.5 436.0 277.5 Q 414.0 273.5 411.0 289.5 C 390.0 310.5 381.0 225.5 408.0 239.5 Z" fill="lightgray"></path>
      </clipPath>
      <path clip-path="url(#make-me-a-hanzi-clip-13)" d="M 409.0 245.5 L 427.0 265.5 L 576.0 292.5 L 648.0 294.5 L 669.0 283.5 L 676.0 273.5 L 657.0 147.5 L 631.0 84.5 L 615.0 71.5 L 545.0 117.5 " fill="none" id="make-me-a-hanzi-animation-13" stroke-dasharray="714 1428" stroke-linecap="round"></path>

      <clipPath id="make-me-a-hanzi-clip-14">
      <path d="M 311.0 210.5 Q 304.0 167.5 289.0 127.5 Q 280.0 100.5 298.0 78.5 Q 307.0 66.5 320.0 79.5 Q 350.0 113.5 340.0 173.5 Q 339.0 198.5 329.0 214.5 Q 325.0 220.5 319.0 219.5 Q 313.0 218.5 311.0 210.5 Z" fill="lightgray"></path>
      </clipPath>
      <path clip-path="url(#make-me-a-hanzi-clip-14)" d="M 321.0 210.5 L 322.0 162.5 L 309.0 85.5 " fill="none" id="make-me-a-hanzi-animation-14" stroke-dasharray="254 508" stroke-linecap="round"></path>

      <clipPath id="make-me-a-hanzi-clip-15">
      <path d="M 386.0 187.5 Q 399.0 126.5 413.0 118.5 Q 420.0 114.5 429.0 122.5 Q 433.0 129.5 435.0 143.5 Q 432.0 173.5 397.0 201.5 Q 393.0 204.5 388.0 198.5 Q 385.0 194.5 386.0 187.5 Z" fill="lightgray"></path>
      </clipPath>
      <path clip-path="url(#make-me-a-hanzi-clip-15)" d="M 395.0 191.5 L 414.0 154.5 L 418.0 129.5 " fill="none" id="make-me-a-hanzi-animation-15" stroke-dasharray="195 390" stroke-linecap="round"></path>

      <clipPath id="make-me-a-hanzi-clip-16">
      <path d="M 471.0 201.5 Q 483.0 153.5 496.0 146.5 Q 503.0 142.5 513.0 151.5 Q 517.0 158.5 518.0 174.5 Q 517.0 184.5 505.0 195.5 Q 489.0 211.5 482.0 217.5 Q 476.0 221.5 472.0 214.5 Q 469.0 210.5 471.0 201.5 Z" fill="lightgray"></path>
      </clipPath>
      <path clip-path="url(#make-me-a-hanzi-clip-16)" d="M 480.0 207.5 L 499.0 173.5 L 501.0 158.5 " fill="none" id="make-me-a-hanzi-animation-16" stroke-dasharray="182 364" stroke-linecap="round"></path>

      <clipPath id="make-me-a-hanzi-clip-17">
      <path d="M 555.0 206.5 Q 574.0 166.5 585.0 163.5 Q 589.0 162.5 595.0 167.5 Q 599.0 174.5 601.0 191.5 Q 601.0 203.5 560.0 232.5 Q 553.0 236.5 549.0 236.5 Q 546.0 235.5 544.0 228.5 Q 544.0 221.5 555.0 206.5 Z" fill="lightgray"></path>
      </clipPath>
      <path clip-path="url(#make-me-a-hanzi-clip-17)" d="M 552.0 228.5 L 575.0 202.5 L 587.0 173.5 " fill="none" id="make-me-a-hanzi-animation-17" stroke-dasharray="194 388" stroke-linecap="round"></path>

</g>
</svg>
