<svg version="1.1" viewBox="0 0 1024 1024" xmlns="http://www.w3.org/2000/svg">
  <g stroke="lightgray" stroke-dasharray="1,1" stroke-width="1" transform="scale(4, 4)">
    <line x1="0" y1="0" x2="256" y2="256"></line>
    <line x1="256" y1="0" x2="0" y2="256"></line>
    <line x1="128" y1="0" x2="128" y2="256"></line>
    <line x1="0" y1="128" x2="256" y2="128"></line>
  </g>
<g transform="scale(1, -1) translate(0, -900)">
   <style type="text/css">
    @keyframes keyframes0 {
      from {
       stroke: blue;
       stroke-dashoffset: 364;
       stroke-width: 128;
       }
       54% {
       animation-timing-function: step-end;
       stroke: blue;
       stroke-dashoffset: 0;
       stroke-width: 128;
       }
       to {
       stroke: black;
       stroke-width: 1024;
       }
       }
       #make-me-a-hanzi-animation-0 {
         animation: keyframes0 0.546224s both;
         animation-delay: 0.000000s;
         animation-timing-function: linear;
       }
    @keyframes keyframes1 {
      from {
       stroke: blue;
       stroke-dashoffset: 932;
       stroke-width: 128;
       }
       75% {
       animation-timing-function: step-end;
       stroke: blue;
       stroke-dashoffset: 0;
       stroke-width: 128;
       }
       to {
       stroke: black;
       stroke-width: 1024;
       }
       }
       #make-me-a-hanzi-animation-1 {
         animation: keyframes1 1.008464s both;
         animation-delay: 0.546224s;
         animation-timing-function: linear;
       }
    @keyframes keyframes2 {
      from {
       stroke: blue;
       stroke-dashoffset: 1419;
       stroke-width: 128;
       }
       82% {
       animation-timing-function: step-end;
       stroke: blue;
       stroke-dashoffset: 0;
       stroke-width: 128;
       }
       to {
       stroke: black;
       stroke-width: 1024;
       }
       }
       #make-me-a-hanzi-animation-2 {
         animation: keyframes2 1.404785s both;
         animation-delay: 1.554688s;
         animation-timing-function: linear;
       }
    @keyframes keyframes3 {
      from {
       stroke: blue;
       stroke-dashoffset: 494;
       stroke-width: 128;
       }
       62% {
       animation-timing-function: step-end;
       stroke: blue;
       stroke-dashoffset: 0;
       stroke-width: 128;
       }
       to {
       stroke: black;
       stroke-width: 1024;
       }
       }
       #make-me-a-hanzi-animation-3 {
         animation: keyframes3 0.652018s both;
         animation-delay: 2.959473s;
         animation-timing-function: linear;
       }
    @keyframes keyframes4 {
      from {
       stroke: blue;
       stroke-dashoffset: 521;
       stroke-width: 128;
       }
       63% {
       animation-timing-function: step-end;
       stroke: blue;
       stroke-dashoffset: 0;
       stroke-width: 128;
       }
       to {
       stroke: black;
       stroke-width: 1024;
       }
       }
       #make-me-a-hanzi-animation-4 {
         animation: keyframes4 0.673991s both;
         animation-delay: 3.611491s;
         animation-timing-function: linear;
       }
    @keyframes keyframes5 {
      from {
       stroke: blue;
       stroke-dashoffset: 478;
       stroke-width: 128;
       }
       61% {
       animation-timing-function: step-end;
       stroke: blue;
       stroke-dashoffset: 0;
       stroke-width: 128;
       }
       to {
       stroke: black;
       stroke-width: 1024;
       }
       }
       #make-me-a-hanzi-animation-5 {
         animation: keyframes5 0.638997s both;
         animation-delay: 4.285482s;
         animation-timing-function: linear;
       }
    @keyframes keyframes6 {
      from {
       stroke: blue;
       stroke-dashoffset: 759;
       stroke-width: 128;
       }
       71% {
       animation-timing-function: step-end;
       stroke: blue;
       stroke-dashoffset: 0;
       stroke-width: 128;
       }
       to {
       stroke: black;
       stroke-width: 1024;
       }
       }
       #make-me-a-hanzi-animation-6 {
         animation: keyframes6 0.867676s both;
         animation-delay: 4.924479s;
         animation-timing-function: linear;
       }
    @keyframes keyframes7 {
      from {
       stroke: blue;
       stroke-dashoffset: 447;
       stroke-width: 128;
       }
       59% {
       animation-timing-function: step-end;
       stroke: blue;
       stroke-dashoffset: 0;
       stroke-width: 128;
       }
       to {
       stroke: black;
       stroke-width: 1024;
       }
       }
       #make-me-a-hanzi-animation-7 {
         animation: keyframes7 0.613770s both;
         animation-delay: 5.792155s;
         animation-timing-function: linear;
       }
    @keyframes keyframes8 {
      from {
       stroke: blue;
       stroke-dashoffset: 460;
       stroke-width: 128;
       }
       60% {
       animation-timing-function: step-end;
       stroke: blue;
       stroke-dashoffset: 0;
       stroke-width: 128;
       }
       to {
       stroke: black;
       stroke-width: 1024;
       }
       }
       #make-me-a-hanzi-animation-8 {
         animation: keyframes8 0.624349s both;
         animation-delay: 6.405924s;
         animation-timing-function: linear;
       }
    @keyframes keyframes9 {
      from {
       stroke: blue;
       stroke-dashoffset: 883;
       stroke-width: 128;
       }
       74% {
       animation-timing-function: step-end;
       stroke: blue;
       stroke-dashoffset: 0;
       stroke-width: 128;
       }
       to {
       stroke: black;
       stroke-width: 1024;
       }
       }
       #make-me-a-hanzi-animation-9 {
         animation: keyframes9 0.968587s both;
         animation-delay: 7.030273s;
         animation-timing-function: linear;
       }
</style>
<path d="M 303.0 775.0 Q 328.0 745.0 353.0 717.0 Q 374.0 698.0 392.0 697.0 Q 408.0 696.0 415.0 717.0 Q 416.0 733.0 406.0 756.0 Q 394.0 774.0 368.0 784.0 Q 326.0 803.0 308.0 805.0 Q 298.0 808.0 297.0 794.0 Q 296.0 784.0 303.0 775.0 Z" fill="lightgray"></path> 
<path d="M 182.0 701.0 Q 237.0 554.0 192.0 240.0 Q 162.0 117.0 163.0 107.0 Q 163.0 76.0 185.0 50.0 Q 198.0 35.0 208.0 50.0 Q 245.0 89.0 246.0 255.0 Q 246.0 582.0 263.0 666.0 Q 264.0 685.0 248.0 696.0 Q 223.0 717.0 195.0 725.0 Q 185.0 728.0 178.0 719.0 Q 174.0 712.0 182.0 701.0 Z" fill="lightgray"></path> 
<path d="M 501.0 759.0 Q 485.0 760.0 489.0 749.0 Q 496.0 736.0 518.0 726.0 Q 530.0 717.0 566.0 725.0 Q 747.0 771.0 764.0 740.0 Q 795.0 691.0 790.0 284.0 Q 789.0 212.0 785.0 137.0 Q 784.0 95.0 769.0 84.0 Q 754.0 74.0 680.0 87.0 Q 662.0 90.0 664.0 80.0 Q 665.0 73.0 679.0 66.0 Q 746.0 21.0 782.0 -14.0 Q 804.0 -33.0 817.0 -31.0 Q 830.0 -28.0 842.0 2.0 Q 857.0 50.0 855.0 119.0 Q 825.0 674.0 847.0 721.0 Q 862.0 745.0 851.0 758.0 Q 841.0 774.0 792.0 799.0 Q 773.0 809.0 701.0 790.0 Q 590.0 769.0 501.0 759.0 Z" fill="lightgray"></path> 
<path d="M 462.0 607.0 Q 496.0 643.0 498.0 646.0 Q 498.0 649.0 498.0 651.0 Q 497.0 661.0 478.0 682.0 Q 460.0 698.0 446.0 701.0 Q 433.0 702.0 435.0 685.0 Q 441.0 661.0 388.0 590.0 Q 361.0 559.0 327.0 523.0 Q 318.0 517.0 315.0 513.0 Q 311.0 504.0 322.0 505.0 Q 358.0 505.0 450.0 595.0 L 462.0 607.0 Z" fill="lightgray"></path> 
<path d="M 501.0 487.0 Q 517.0 500.0 555.0 536.0 Q 589.0 569.0 621.0 586.0 Q 637.0 595.0 627.0 607.0 Q 615.0 619.0 583.0 639.0 Q 574.0 642.0 515.0 622.0 Q 467.0 609.0 462.0 607.0 C 441.0 600.0 441.0 600.0 450.0 595.0 Q 465.0 580.0 530.0 594.0 Q 536.0 595.0 537.0 594.0 Q 540.0 591.0 536.0 584.0 Q 508.0 527.0 489.0 501.0 Q 482.0 491.0 481.0 485.0 Q 480.0 484.0 480.0 483.0 C 472.0 463.0 478.0 468.0 501.0 487.0 Z" fill="lightgray"></path> 
<path d="M 353.0 459.0 Q 343.0 465.0 316.0 470.0 Q 304.0 473.0 301.0 468.0 Q 294.0 464.0 302.0 447.0 Q 327.0 390.0 341.0 299.0 Q 344.0 271.0 359.0 252.0 Q 375.0 231.0 381.0 246.0 Q 382.0 250.0 383.0 254.0 L 385.0 277.0 Q 384.0 290.0 383.0 306.0 Q 379.0 328.0 377.0 346.0 L 374.0 363.0 Q 368.0 406.0 367.0 426.0 C 365.0 453.0 365.0 453.0 353.0 459.0 Z" fill="lightgray"></path> 
<path d="M 591.0 282.0 Q 591.0 279.0 593.0 275.0 Q 597.0 262.0 609.0 262.0 Q 622.0 263.0 629.0 277.0 Q 639.0 290.0 660.0 362.0 Q 675.0 410.0 708.0 437.0 Q 724.0 452.0 710.0 466.0 Q 694.0 482.0 647.0 506.0 Q 635.0 512.0 570.0 499.0 Q 552.0 499.0 501.0 487.0 L 480.0 483.0 Q 453.0 480.0 431.0 474.0 Q 388.0 464.0 353.0 459.0 C 323.0 454.0 339.0 417.0 367.0 426.0 Q 409.0 441.0 456.0 447.0 L 484.0 452.0 Q 601.0 473.0 618.0 464.0 Q 627.0 460.0 622.0 431.0 Q 603.0 328.0 594.0 306.0 Q 593.0 306.0 593.0 305.0 C 588.0 290.0 588.0 290.0 591.0 282.0 Z" fill="lightgray"></path> 
<path d="M 462.0 384.0 Q 413.0 374.0 374.0 363.0 C 345.0 355.0 348.0 354.0 377.0 346.0 Q 387.0 342.0 404.0 344.0 Q 432.0 350.0 462.0 353.0 L 502.0 359.0 Q 536.0 366.0 566.0 369.0 Q 585.0 372.0 579.0 383.0 Q 570.0 395.0 549.0 399.0 Q 531.0 402.0 504.0 395.0 L 462.0 384.0 Z" fill="lightgray"></path> 
<path d="M 500.0 269.0 Q 549.0 278.0 591.0 282.0 C 621.0 285.0 618.0 288.0 593.0 305.0 Q 580.0 318.0 529.0 307.0 Q 514.0 306.0 500.0 300.0 L 461.0 291.0 Q 421.0 285.0 385.0 277.0 C 356.0 271.0 353.0 255.0 383.0 254.0 Q 390.0 253.0 404.0 255.0 Q 432.0 259.0 461.0 263.0 L 500.0 269.0 Z" fill="lightgray"></path> 
<path d="M 461.0 263.0 Q 458.0 199.0 471.0 170.0 Q 483.0 145.0 508.0 132.0 Q 623.0 81.0 740.0 145.0 Q 761.0 155.0 747.0 190.0 Q 731.0 229.0 724.0 280.0 Q 723.0 296.0 718.0 298.0 Q 712.0 298.0 710.0 282.0 Q 697.0 200.0 667.0 185.0 Q 645.0 175.0 604.0 173.0 Q 558.0 172.0 535.0 180.0 Q 514.0 190.0 506.0 207.0 Q 500.0 220.0 500.0 269.0 L 500.0 300.0 Q 500.0 334.0 502.0 359.0 L 504.0 395.0 Q 505.0 426.0 496.0 439.0 Q 489.0 446.0 484.0 452.0 C 464.0 474.0 451.0 476.0 456.0 447.0 Q 462.0 422.0 462.0 388.0 Q 462.0 387.0 462.0 384.0 L 462.0 353.0 Q 462.0 328.0 462.0 310.0 Q 461.0 301.0 461.0 291.0 L 461.0 263.0 Z" fill="lightgray"></path> 
      <clipPath id="make-me-a-hanzi-clip-0">
      <path d="M 303.0 775.0 Q 328.0 745.0 353.0 717.0 Q 374.0 698.0 392.0 697.0 Q 408.0 696.0 415.0 717.0 Q 416.0 733.0 406.0 756.0 Q 394.0 774.0 368.0 784.0 Q 326.0 803.0 308.0 805.0 Q 298.0 808.0 297.0 794.0 Q 296.0 784.0 303.0 775.0 Z" fill="lightgray"></path>
      </clipPath>
      <path clip-path="url(#make-me-a-hanzi-clip-0)" d="M 311.0 791.0 L 363.0 753.0 L 392.0 720.0 " fill="none" id="make-me-a-hanzi-animation-0" stroke-dasharray="236 472" stroke-linecap="round"></path>

      <clipPath id="make-me-a-hanzi-clip-1">
      <path d="M 182.0 701.0 Q 237.0 554.0 192.0 240.0 Q 162.0 117.0 163.0 107.0 Q 163.0 76.0 185.0 50.0 Q 198.0 35.0 208.0 50.0 Q 245.0 89.0 246.0 255.0 Q 246.0 582.0 263.0 666.0 Q 264.0 685.0 248.0 696.0 Q 223.0 717.0 195.0 725.0 Q 185.0 728.0 178.0 719.0 Q 174.0 712.0 182.0 701.0 Z" fill="lightgray"></path>
      </clipPath>
      <path clip-path="url(#make-me-a-hanzi-clip-1)" d="M 188.0 714.0 L 228.0 668.0 L 231.0 599.0 L 227.0 339.0 L 215.0 201.0 L 196.0 93.0 L 197.0 55.0 " fill="none" id="make-me-a-hanzi-animation-1" stroke-dasharray="804 1608" stroke-linecap="round"></path>

      <clipPath id="make-me-a-hanzi-clip-2">
      <path d="M 501.0 759.0 Q 485.0 760.0 489.0 749.0 Q 496.0 736.0 518.0 726.0 Q 530.0 717.0 566.0 725.0 Q 747.0 771.0 764.0 740.0 Q 795.0 691.0 790.0 284.0 Q 789.0 212.0 785.0 137.0 Q 784.0 95.0 769.0 84.0 Q 754.0 74.0 680.0 87.0 Q 662.0 90.0 664.0 80.0 Q 665.0 73.0 679.0 66.0 Q 746.0 21.0 782.0 -14.0 Q 804.0 -33.0 817.0 -31.0 Q 830.0 -28.0 842.0 2.0 Q 857.0 50.0 855.0 119.0 Q 825.0 674.0 847.0 721.0 Q 862.0 745.0 851.0 758.0 Q 841.0 774.0 792.0 799.0 Q 773.0 809.0 701.0 790.0 Q 590.0 769.0 501.0 759.0 Z" fill="lightgray"></path>
      </clipPath>
      <path clip-path="url(#make-me-a-hanzi-clip-2)" d="M 499.0 750.0 L 542.0 742.0 L 696.0 771.0 L 755.0 776.0 L 788.0 764.0 L 810.0 740.0 L 820.0 268.0 L 821.0 132.0 L 815.0 80.0 L 798.0 41.0 L 757.0 48.0 L 672.0 80.0 " fill="none" id="make-me-a-hanzi-animation-2" stroke-dasharray="1291 2582" stroke-linecap="round"></path>

      <clipPath id="make-me-a-hanzi-clip-3">
      <path d="M 462.0 607.0 Q 496.0 643.0 498.0 646.0 Q 498.0 649.0 498.0 651.0 Q 497.0 661.0 478.0 682.0 Q 460.0 698.0 446.0 701.0 Q 433.0 702.0 435.0 685.0 Q 441.0 661.0 388.0 590.0 Q 361.0 559.0 327.0 523.0 Q 318.0 517.0 315.0 513.0 Q 311.0 504.0 322.0 505.0 Q 358.0 505.0 450.0 595.0 L 462.0 607.0 Z" fill="lightgray"></path>
      </clipPath>
      <path clip-path="url(#make-me-a-hanzi-clip-3)" d="M 445.0 690.0 L 461.0 657.0 L 450.0 633.0 L 370.0 544.0 L 324.0 514.0 " fill="none" id="make-me-a-hanzi-animation-3" stroke-dasharray="366 732" stroke-linecap="round"></path>

      <clipPath id="make-me-a-hanzi-clip-4">
      <path d="M 501.0 487.0 Q 517.0 500.0 555.0 536.0 Q 589.0 569.0 621.0 586.0 Q 637.0 595.0 627.0 607.0 Q 615.0 619.0 583.0 639.0 Q 574.0 642.0 515.0 622.0 Q 467.0 609.0 462.0 607.0 C 441.0 600.0 441.0 600.0 450.0 595.0 Q 465.0 580.0 530.0 594.0 Q 536.0 595.0 537.0 594.0 Q 540.0 591.0 536.0 584.0 Q 508.0 527.0 489.0 501.0 Q 482.0 491.0 481.0 485.0 Q 480.0 484.0 480.0 483.0 C 472.0 463.0 478.0 468.0 501.0 487.0 Z" fill="lightgray"></path>
      </clipPath>
      <path clip-path="url(#make-me-a-hanzi-clip-4)" d="M 455.0 596.0 L 534.0 612.0 L 551.0 612.0 L 573.0 598.0 L 525.0 527.0 L 486.0 487.0 " fill="none" id="make-me-a-hanzi-animation-4" stroke-dasharray="393 786" stroke-linecap="round"></path>

      <clipPath id="make-me-a-hanzi-clip-5">
      <path d="M 353.0 459.0 Q 343.0 465.0 316.0 470.0 Q 304.0 473.0 301.0 468.0 Q 294.0 464.0 302.0 447.0 Q 327.0 390.0 341.0 299.0 Q 344.0 271.0 359.0 252.0 Q 375.0 231.0 381.0 246.0 Q 382.0 250.0 383.0 254.0 L 385.0 277.0 Q 384.0 290.0 383.0 306.0 Q 379.0 328.0 377.0 346.0 L 374.0 363.0 Q 368.0 406.0 367.0 426.0 C 365.0 453.0 365.0 453.0 353.0 459.0 Z" fill="lightgray"></path>
      </clipPath>
      <path clip-path="url(#make-me-a-hanzi-clip-5)" d="M 310.0 460.0 L 333.0 438.0 L 341.0 418.0 L 371.0 252.0 " fill="none" id="make-me-a-hanzi-animation-5" stroke-dasharray="350 700" stroke-linecap="round"></path>

      <clipPath id="make-me-a-hanzi-clip-6">
      <path d="M 591.0 282.0 Q 591.0 279.0 593.0 275.0 Q 597.0 262.0 609.0 262.0 Q 622.0 263.0 629.0 277.0 Q 639.0 290.0 660.0 362.0 Q 675.0 410.0 708.0 437.0 Q 724.0 452.0 710.0 466.0 Q 694.0 482.0 647.0 506.0 Q 635.0 512.0 570.0 499.0 Q 552.0 499.0 501.0 487.0 L 480.0 483.0 Q 453.0 480.0 431.0 474.0 Q 388.0 464.0 353.0 459.0 C 323.0 454.0 339.0 417.0 367.0 426.0 Q 409.0 441.0 456.0 447.0 L 484.0 452.0 Q 601.0 473.0 618.0 464.0 Q 627.0 460.0 622.0 431.0 Q 603.0 328.0 594.0 306.0 Q 593.0 306.0 593.0 305.0 C 588.0 290.0 588.0 290.0 591.0 282.0 Z" fill="lightgray"></path>
      </clipPath>
      <path clip-path="url(#make-me-a-hanzi-clip-6)" d="M 361.0 456.0 L 384.0 447.0 L 531.0 478.0 L 606.0 487.0 L 638.0 482.0 L 663.0 448.0 L 609.0 278.0 " fill="none" id="make-me-a-hanzi-animation-6" stroke-dasharray="631 1262" stroke-linecap="round"></path>

      <clipPath id="make-me-a-hanzi-clip-7">
      <path d="M 462.0 384.0 Q 413.0 374.0 374.0 363.0 C 345.0 355.0 348.0 354.0 377.0 346.0 Q 387.0 342.0 404.0 344.0 Q 432.0 350.0 462.0 353.0 L 502.0 359.0 Q 536.0 366.0 566.0 369.0 Q 585.0 372.0 579.0 383.0 Q 570.0 395.0 549.0 399.0 Q 531.0 402.0 504.0 395.0 L 462.0 384.0 Z" fill="lightgray"></path>
      </clipPath>
      <path clip-path="url(#make-me-a-hanzi-clip-7)" d="M 382.0 360.0 L 396.0 356.0 L 530.0 382.0 L 570.0 379.0 " fill="none" id="make-me-a-hanzi-animation-7" stroke-dasharray="319 638" stroke-linecap="round"></path>

      <clipPath id="make-me-a-hanzi-clip-8">
      <path d="M 500.0 269.0 Q 549.0 278.0 591.0 282.0 C 621.0 285.0 618.0 288.0 593.0 305.0 Q 580.0 318.0 529.0 307.0 Q 514.0 306.0 500.0 300.0 L 461.0 291.0 Q 421.0 285.0 385.0 277.0 C 356.0 271.0 353.0 255.0 383.0 254.0 Q 390.0 253.0 404.0 255.0 Q 432.0 259.0 461.0 263.0 L 500.0 269.0 Z" fill="lightgray"></path>
      </clipPath>
      <path clip-path="url(#make-me-a-hanzi-clip-8)" d="M 388.0 259.0 L 409.0 269.0 L 541.0 294.0 L 577.0 296.0 L 583.0 288.0 " fill="none" id="make-me-a-hanzi-animation-8" stroke-dasharray="332 664" stroke-linecap="round"></path>

      <clipPath id="make-me-a-hanzi-clip-9">
      <path d="M 461.0 263.0 Q 458.0 199.0 471.0 170.0 Q 483.0 145.0 508.0 132.0 Q 623.0 81.0 740.0 145.0 Q 761.0 155.0 747.0 190.0 Q 731.0 229.0 724.0 280.0 Q 723.0 296.0 718.0 298.0 Q 712.0 298.0 710.0 282.0 Q 697.0 200.0 667.0 185.0 Q 645.0 175.0 604.0 173.0 Q 558.0 172.0 535.0 180.0 Q 514.0 190.0 506.0 207.0 Q 500.0 220.0 500.0 269.0 L 500.0 300.0 Q 500.0 334.0 502.0 359.0 L 504.0 395.0 Q 505.0 426.0 496.0 439.0 Q 489.0 446.0 484.0 452.0 C 464.0 474.0 451.0 476.0 456.0 447.0 Q 462.0 422.0 462.0 388.0 Q 462.0 387.0 462.0 384.0 L 462.0 353.0 Q 462.0 328.0 462.0 310.0 Q 461.0 301.0 461.0 291.0 L 461.0 263.0 Z" fill="lightgray"></path>
      </clipPath>
      <path clip-path="url(#make-me-a-hanzi-clip-9)" d="M 464.0 442.0 L 477.0 433.0 L 484.0 404.0 L 484.0 204.0 L 496.0 177.0 L 517.0 159.0 L 568.0 143.0 L 608.0 141.0 L 662.0 148.0 L 702.0 166.0 L 712.0 174.0 L 718.0 293.0 " fill="none" id="make-me-a-hanzi-animation-9" stroke-dasharray="755 1510" stroke-linecap="round"></path>

</g>
</svg>
