<svg version="1.1" viewBox="0 0 1024 1024" xmlns="http://www.w3.org/2000/svg">
  <g stroke="lightgray" stroke-dasharray="1,1" stroke-width="1" transform="scale(4, 4)">
    <line x1="0" y1="0" x2="256" y2="256"></line>
    <line x1="256" y1="0" x2="0" y2="256"></line>
    <line x1="128" y1="0" x2="128" y2="256"></line>
    <line x1="0" y1="128" x2="256" y2="128"></line>
  </g>
<g transform="scale(0.92, -0.92) translate(60, -900)">
   <style type="text/css">
    @keyframes keyframes0 {
      from {
       stroke: blue;
       stroke-dashoffset: 812;
       stroke-width: 128;
       }
       73% {
       animation-timing-function: step-end;
       stroke: blue;
       stroke-dashoffset: 0;
       stroke-width: 128;
       }
       to {
       stroke: black;
       stroke-width: 1024;
       }
       }
       #make-me-a-hanzi-animation-0 {
         animation: keyframes0 0.910807s both;
         animation-delay: 0.000000s;
         animation-timing-function: linear;
       }
    @keyframes keyframes1 {
      from {
       stroke: blue;
       stroke-dashoffset: 970;
       stroke-width: 128;
       }
       76% {
       animation-timing-function: step-end;
       stroke: blue;
       stroke-dashoffset: 0;
       stroke-width: 128;
       }
       to {
       stroke: black;
       stroke-width: 1024;
       }
       }
       #make-me-a-hanzi-animation-1 {
         animation: keyframes1 1.039388s both;
         animation-delay: 0.910807s;
         animation-timing-function: linear;
       }
    @keyframes keyframes2 {
      from {
       stroke: blue;
       stroke-dashoffset: 566;
       stroke-width: 128;
       }
       65% {
       animation-timing-function: step-end;
       stroke: blue;
       stroke-dashoffset: 0;
       stroke-width: 128;
       }
       to {
       stroke: black;
       stroke-width: 1024;
       }
       }
       #make-me-a-hanzi-animation-2 {
         animation: keyframes2 0.710612s both;
         animation-delay: 1.950195s;
         animation-timing-function: linear;
       }
    @keyframes keyframes3 {
      from {
       stroke: blue;
       stroke-dashoffset: 734;
       stroke-width: 128;
       }
       70% {
       animation-timing-function: step-end;
       stroke: blue;
       stroke-dashoffset: 0;
       stroke-width: 128;
       }
       to {
       stroke: black;
       stroke-width: 1024;
       }
       }
       #make-me-a-hanzi-animation-3 {
         animation: keyframes3 0.847331s both;
         animation-delay: 2.660807s;
         animation-timing-function: linear;
       }
    @keyframes keyframes4 {
      from {
       stroke: blue;
       stroke-dashoffset: 594;
       stroke-width: 128;
       }
       66% {
       animation-timing-function: step-end;
       stroke: blue;
       stroke-dashoffset: 0;
       stroke-width: 128;
       }
       to {
       stroke: black;
       stroke-width: 1024;
       }
       }
       #make-me-a-hanzi-animation-4 {
         animation: keyframes4 0.733398s both;
         animation-delay: 3.508138s;
         animation-timing-function: linear;
       }
    @keyframes keyframes5 {
      from {
       stroke: blue;
       stroke-dashoffset: 847;
       stroke-width: 128;
       }
       73% {
       animation-timing-function: step-end;
       stroke: blue;
       stroke-dashoffset: 0;
       stroke-width: 128;
       }
       to {
       stroke: black;
       stroke-width: 1024;
       }
       }
       #make-me-a-hanzi-animation-5 {
         animation: keyframes5 0.939290s both;
         animation-delay: 4.241536s;
         animation-timing-function: linear;
       }
    @keyframes keyframes6 {
      from {
       stroke: blue;
       stroke-dashoffset: 343;
       stroke-width: 128;
       }
       53% {
       animation-timing-function: step-end;
       stroke: blue;
       stroke-dashoffset: 0;
       stroke-width: 128;
       }
       to {
       stroke: black;
       stroke-width: 1024;
       }
       }
       #make-me-a-hanzi-animation-6 {
         animation: keyframes6 0.529134s both;
         animation-delay: 5.180827s;
         animation-timing-function: linear;
       }
    @keyframes keyframes7 {
      from {
       stroke: blue;
       stroke-dashoffset: 353;
       stroke-width: 128;
       }
       53% {
       animation-timing-function: step-end;
       stroke: blue;
       stroke-dashoffset: 0;
       stroke-width: 128;
       }
       to {
       stroke: black;
       stroke-width: 1024;
       }
       }
       #make-me-a-hanzi-animation-7 {
         animation: keyframes7 0.537272s both;
         animation-delay: 5.709961s;
         animation-timing-function: linear;
       }
    @keyframes keyframes8 {
      from {
       stroke: blue;
       stroke-dashoffset: 346;
       stroke-width: 128;
       }
       53% {
       animation-timing-function: step-end;
       stroke: blue;
       stroke-dashoffset: 0;
       stroke-width: 128;
       }
       to {
       stroke: black;
       stroke-width: 1024;
       }
       }
       #make-me-a-hanzi-animation-8 {
         animation: keyframes8 0.531576s both;
         animation-delay: 6.247233s;
         animation-timing-function: linear;
       }
    @keyframes keyframes9 {
      from {
       stroke: blue;
       stroke-dashoffset: 655;
       stroke-width: 128;
       }
       68% {
       animation-timing-function: step-end;
       stroke: blue;
       stroke-dashoffset: 0;
       stroke-width: 128;
       }
       to {
       stroke: black;
       stroke-width: 1024;
       }
       }
       #make-me-a-hanzi-animation-9 {
         animation: keyframes9 0.783040s both;
         animation-delay: 6.778809s;
         animation-timing-function: linear;
       }
    @keyframes keyframes10 {
      from {
       stroke: blue;
       stroke-dashoffset: 914;
       stroke-width: 128;
       }
       75% {
       animation-timing-function: step-end;
       stroke: blue;
       stroke-dashoffset: 0;
       stroke-width: 128;
       }
       to {
       stroke: black;
       stroke-width: 1024;
       }
       }
       #make-me-a-hanzi-animation-10 {
         animation: keyframes10 0.993815s both;
         animation-delay: 7.561849s;
         animation-timing-function: linear;
       }
</style>
<path d="M 196.0 696.5 Q 233.0 703.5 271.0 721.5 Q 286.0 731.5 295.0 721.5 Q 301.0 715.5 293.0 699.5 Q 277.0 663.5 264.0 628.5 Q 252.0 606.5 265.0 589.5 Q 322.0 505.5 306.0 486.5 Q 299.0 476.5 278.0 480.5 Q 251.0 484.5 222.0 486.5 Q 200.0 487.5 225.0 474.5 Q 276.0 449.5 323.0 417.5 Q 336.0 405.5 348.0 417.5 Q 361.0 427.5 367.0 450.5 Q 379.0 511.5 309.0 582.5 Q 278.0 616.5 315.0 660.5 Q 345.0 708.5 366.0 720.5 Q 384.0 732.5 374.0 744.5 Q 362.0 760.5 328.0 778.5 Q 309.0 785.5 295.0 774.5 Q 244.0 735.5 186.0 724.5 C 157.0 717.5 167.0 689.5 196.0 696.5 Z" fill="lightgray"></path> 
<path d="M 186.0 724.5 Q 165.0 745.5 128.0 755.5 Q 118.0 756.5 111.0 747.5 Q 107.0 741.5 116.0 730.5 Q 158.0 633.5 149.0 362.5 Q 139.0 218.5 114.0 140.5 Q 107.0 112.5 111.0 90.5 Q 121.0 53.5 134.0 40.5 Q 147.0 25.5 157.0 40.5 Q 190.0 82.5 191.0 233.5 Q 185.0 614.5 196.0 696.5 C 198.0 715.5 198.0 715.5 186.0 724.5 Z" fill="lightgray"></path> 
<path d="M 633.0 587.5 Q 808.0 626.5 814.0 632.5 Q 823.0 639.5 818.0 648.5 Q 811.0 658.5 783.0 666.5 Q 753.0 670.5 725.0 659.5 Q 688.0 647.5 650.0 636.5 L 600.0 624.5 Q 557.0 617.5 512.0 611.5 Q 476.0 605.5 502.0 589.5 Q 532.0 571.5 584.0 576.5 L 633.0 587.5 Z" fill="lightgray"></path> 
<path d="M 580.0 484.5 Q 608.0 529.5 633.0 587.5 L 650.0 636.5 Q 671.0 726.5 694.0 762.5 Q 701.0 772.5 697.0 779.5 Q 688.0 801.5 641.0 812.5 Q 628.0 816.5 614.0 808.5 Q 605.0 801.5 614.0 791.5 Q 626.0 781.5 629.0 766.5 Q 635.0 735.5 600.0 624.5 L 584.0 576.5 Q 551.0 498.5 475.0 402.5 Q 468.0 389.5 476.0 387.5 Q 480.0 386.5 491.0 394.5 Q 509.0 406.5 560.0 457.5 L 580.0 484.5 Z" fill="lightgray"></path> 
<path d="M 595.0 281.5 Q 596.0 318.5 600.0 345.5 L 602.0 370.5 Q 605.0 427.5 611.0 449.5 C 615.0 465.5 615.0 465.5 601.0 474.5 Q 594.0 481.5 580.0 484.5 C 551.0 493.5 552.0 486.5 560.0 457.5 Q 587.0 372.5 545.0 229.5 Q 520.0 165.5 542.0 135.5 Q 548.0 123.5 556.0 128.5 Q 583.0 144.5 593.0 243.5 L 593.0 253.5 L 595.0 281.5 Z" fill="lightgray"></path> 
<path d="M 611.0 449.5 Q 633.0 453.5 697.0 470.5 Q 713.0 474.5 719.0 466.5 Q 723.0 454.5 732.0 305.5 Q 732.0 181.5 723.0 167.5 Q 720.0 166.5 660.0 177.5 Q 644.0 184.5 644.0 175.5 Q 689.0 133.5 715.0 101.5 Q 725.0 85.5 739.0 81.5 Q 746.0 78.5 754.0 86.5 Q 790.0 128.5 788.0 173.5 Q 764.0 422.5 784.0 456.5 Q 794.0 472.5 784.0 482.5 Q 765.0 498.5 734.0 510.5 Q 718.0 516.5 705.0 509.5 Q 668.0 488.5 601.0 474.5 C 572.0 467.5 582.0 443.5 611.0 449.5 Z" fill="lightgray"></path> 
<path d="M 600.0 345.5 Q 649.0 354.5 685.0 360.5 Q 703.0 364.5 696.0 373.5 Q 687.0 383.5 667.0 387.5 Q 649.0 388.5 617.0 377.5 Q 608.0 374.5 602.0 370.5 C 576.0 354.5 570.0 340.5 600.0 345.5 Z" fill="lightgray"></path> 
<path d="M 593.0 253.5 Q 645.0 265.5 685.0 270.5 Q 704.0 274.5 696.0 285.5 Q 686.0 297.5 665.0 299.5 Q 629.0 302.5 595.0 281.5 C 569.0 266.5 564.0 246.5 593.0 253.5 Z" fill="lightgray"></path> 
<path d="M 360.0 604.5 Q 403.0 537.5 424.0 534.5 Q 437.0 531.5 445.0 548.5 Q 448.0 561.5 441.0 581.5 Q 434.0 597.5 413.0 607.5 Q 382.0 626.5 367.0 629.5 Q 358.0 632.5 356.0 621.5 Q 355.0 614.5 360.0 604.5 Z" fill="lightgray"></path> 
<path d="M 421.0 129.5 Q 434.0 136.5 439.0 152.5 Q 446.0 185.5 413.0 240.5 Q 388.0 291.5 454.0 358.5 Q 472.0 373.5 456.0 386.5 Q 440.0 399.5 412.0 410.5 Q 394.0 420.5 352.0 387.5 Q 289.0 362.5 283.0 361.5 Q 277.0 361.5 276.0 357.5 Q 275.0 353.5 281.0 350.5 Q 312.0 335.5 373.0 363.5 Q 380.0 366.5 387.0 358.5 Q 403.0 340.5 386.0 319.5 Q 344.0 280.5 385.0 219.5 Q 406.0 176.5 407.0 159.5 Q 408.0 143.5 405.0 134.5 C 402.0 113.5 402.0 113.5 421.0 129.5 Z" fill="lightgray"></path> 
<path d="M 405.0 134.5 Q 405.0 135.5 404.0 135.5 Q 370.0 148.5 325.0 144.5 Q 303.0 140.5 283.0 145.5 Q 268.0 148.5 266.0 141.5 Q 262.0 131.5 275.0 120.5 Q 291.0 102.5 342.0 111.5 Q 384.0 115.5 471.0 77.5 L 704.0 -22.5 Q 737.0 -40.5 782.0 -20.5 Q 843.0 1.5 898.0 25.5 Q 917.0 32.5 916.0 41.5 Q 916.0 51.5 869.0 49.5 Q 692.0 49.5 659.0 55.5 Q 626.0 61.5 421.0 129.5 L 405.0 134.5 Z" fill="lightgray"></path> 
      <clipPath id="make-me-a-hanzi-clip-0">
      <path d="M 196.0 696.5 Q 233.0 703.5 271.0 721.5 Q 286.0 731.5 295.0 721.5 Q 301.0 715.5 293.0 699.5 Q 277.0 663.5 264.0 628.5 Q 252.0 606.5 265.0 589.5 Q 322.0 505.5 306.0 486.5 Q 299.0 476.5 278.0 480.5 Q 251.0 484.5 222.0 486.5 Q 200.0 487.5 225.0 474.5 Q 276.0 449.5 323.0 417.5 Q 336.0 405.5 348.0 417.5 Q 361.0 427.5 367.0 450.5 Q 379.0 511.5 309.0 582.5 Q 278.0 616.5 315.0 660.5 Q 345.0 708.5 366.0 720.5 Q 384.0 732.5 374.0 744.5 Q 362.0 760.5 328.0 778.5 Q 309.0 785.5 295.0 774.5 Q 244.0 735.5 186.0 724.5 C 157.0 717.5 167.0 689.5 196.0 696.5 Z" fill="lightgray"></path>
      </clipPath>
      <path clip-path="url(#make-me-a-hanzi-clip-0)" d="M 195.0 719.5 L 215.0 715.5 L 304.0 748.5 L 315.0 748.5 L 328.0 735.5 L 316.0 697.5 L 280.0 630.5 L 277.0 608.5 L 284.0 585.5 L 329.0 522.5 L 338.0 487.5 L 335.0 468.5 L 330.0 457.5 L 306.0 457.5 L 229.0 481.5 " fill="none" id="make-me-a-hanzi-animation-0" stroke-dasharray="684 1368" stroke-linecap="round"></path>

      <clipPath id="make-me-a-hanzi-clip-1">
      <path d="M 186.0 724.5 Q 165.0 745.5 128.0 755.5 Q 118.0 756.5 111.0 747.5 Q 107.0 741.5 116.0 730.5 Q 158.0 633.5 149.0 362.5 Q 139.0 218.5 114.0 140.5 Q 107.0 112.5 111.0 90.5 Q 121.0 53.5 134.0 40.5 Q 147.0 25.5 157.0 40.5 Q 190.0 82.5 191.0 233.5 Q 185.0 614.5 196.0 696.5 C 198.0 715.5 198.0 715.5 186.0 724.5 Z" fill="lightgray"></path>
      </clipPath>
      <path clip-path="url(#make-me-a-hanzi-clip-1)" d="M 122.0 742.5 L 155.0 711.5 L 163.0 690.5 L 170.0 539.5 L 167.0 271.5 L 145.0 107.5 L 146.0 45.5 " fill="none" id="make-me-a-hanzi-animation-1" stroke-dasharray="842 1684" stroke-linecap="round"></path>

      <clipPath id="make-me-a-hanzi-clip-2">
      <path d="M 633.0 587.5 Q 808.0 626.5 814.0 632.5 Q 823.0 639.5 818.0 648.5 Q 811.0 658.5 783.0 666.5 Q 753.0 670.5 725.0 659.5 Q 688.0 647.5 650.0 636.5 L 600.0 624.5 Q 557.0 617.5 512.0 611.5 Q 476.0 605.5 502.0 589.5 Q 532.0 571.5 584.0 576.5 L 633.0 587.5 Z" fill="lightgray"></path>
      </clipPath>
      <path clip-path="url(#make-me-a-hanzi-clip-2)" d="M 504.0 601.5 L 574.0 597.5 L 643.0 609.5 L 762.0 643.5 L 808.0 642.5 " fill="none" id="make-me-a-hanzi-animation-2" stroke-dasharray="438 876" stroke-linecap="round"></path>

      <clipPath id="make-me-a-hanzi-clip-3">
      <path d="M 580.0 484.5 Q 608.0 529.5 633.0 587.5 L 650.0 636.5 Q 671.0 726.5 694.0 762.5 Q 701.0 772.5 697.0 779.5 Q 688.0 801.5 641.0 812.5 Q 628.0 816.5 614.0 808.5 Q 605.0 801.5 614.0 791.5 Q 626.0 781.5 629.0 766.5 Q 635.0 735.5 600.0 624.5 L 584.0 576.5 Q 551.0 498.5 475.0 402.5 Q 468.0 389.5 476.0 387.5 Q 480.0 386.5 491.0 394.5 Q 509.0 406.5 560.0 457.5 L 580.0 484.5 Z" fill="lightgray"></path>
      </clipPath>
      <path clip-path="url(#make-me-a-hanzi-clip-3)" d="M 620.0 800.5 L 644.0 790.5 L 661.0 771.5 L 610.0 587.5 L 587.0 535.5 L 541.0 460.5 L 477.0 395.5 " fill="none" id="make-me-a-hanzi-animation-3" stroke-dasharray="606 1212" stroke-linecap="round"></path>

      <clipPath id="make-me-a-hanzi-clip-4">
      <path d="M 595.0 281.5 Q 596.0 318.5 600.0 345.5 L 602.0 370.5 Q 605.0 427.5 611.0 449.5 C 615.0 465.5 615.0 465.5 601.0 474.5 Q 594.0 481.5 580.0 484.5 C 551.0 493.5 552.0 486.5 560.0 457.5 Q 587.0 372.5 545.0 229.5 Q 520.0 165.5 542.0 135.5 Q 548.0 123.5 556.0 128.5 Q 583.0 144.5 593.0 243.5 L 593.0 253.5 L 595.0 281.5 Z" fill="lightgray"></path>
      </clipPath>
      <path clip-path="url(#make-me-a-hanzi-clip-4)" d="M 584.0 474.5 L 588.0 382.5 L 582.0 317.5 L 553.0 139.5 " fill="none" id="make-me-a-hanzi-animation-4" stroke-dasharray="466 932" stroke-linecap="round"></path>

      <clipPath id="make-me-a-hanzi-clip-5">
      <path d="M 611.0 449.5 Q 633.0 453.5 697.0 470.5 Q 713.0 474.5 719.0 466.5 Q 723.0 454.5 732.0 305.5 Q 732.0 181.5 723.0 167.5 Q 720.0 166.5 660.0 177.5 Q 644.0 184.5 644.0 175.5 Q 689.0 133.5 715.0 101.5 Q 725.0 85.5 739.0 81.5 Q 746.0 78.5 754.0 86.5 Q 790.0 128.5 788.0 173.5 Q 764.0 422.5 784.0 456.5 Q 794.0 472.5 784.0 482.5 Q 765.0 498.5 734.0 510.5 Q 718.0 516.5 705.0 509.5 Q 668.0 488.5 601.0 474.5 C 572.0 467.5 582.0 443.5 611.0 449.5 Z" fill="lightgray"></path>
      </clipPath>
      <path clip-path="url(#make-me-a-hanzi-clip-5)" d="M 611.0 471.5 L 622.0 464.5 L 717.0 491.5 L 733.0 486.5 L 752.0 465.5 L 750.0 367.5 L 759.0 184.5 L 751.0 146.5 L 739.0 132.5 L 652.0 172.5 " fill="none" id="make-me-a-hanzi-animation-5" stroke-dasharray="719 1438" stroke-linecap="round"></path>

      <clipPath id="make-me-a-hanzi-clip-6">
      <path d="M 600.0 345.5 Q 649.0 354.5 685.0 360.5 Q 703.0 364.5 696.0 373.5 Q 687.0 383.5 667.0 387.5 Q 649.0 388.5 617.0 377.5 Q 608.0 374.5 602.0 370.5 C 576.0 354.5 570.0 340.5 600.0 345.5 Z" fill="lightgray"></path>
      </clipPath>
      <path clip-path="url(#make-me-a-hanzi-clip-6)" d="M 607.0 351.5 L 614.0 361.5 L 642.0 369.5 L 688.0 368.5 " fill="none" id="make-me-a-hanzi-animation-6" stroke-dasharray="215 430" stroke-linecap="round"></path>

      <clipPath id="make-me-a-hanzi-clip-7">
      <path d="M 593.0 253.5 Q 645.0 265.5 685.0 270.5 Q 704.0 274.5 696.0 285.5 Q 686.0 297.5 665.0 299.5 Q 629.0 302.5 595.0 281.5 C 569.0 266.5 564.0 246.5 593.0 253.5 Z" fill="lightgray"></path>
      </clipPath>
      <path clip-path="url(#make-me-a-hanzi-clip-7)" d="M 600.0 260.5 L 609.0 273.5 L 621.0 277.5 L 669.0 284.5 L 688.0 279.5 " fill="none" id="make-me-a-hanzi-animation-7" stroke-dasharray="225 450" stroke-linecap="round"></path>

      <clipPath id="make-me-a-hanzi-clip-8">
      <path d="M 360.0 604.5 Q 403.0 537.5 424.0 534.5 Q 437.0 531.5 445.0 548.5 Q 448.0 561.5 441.0 581.5 Q 434.0 597.5 413.0 607.5 Q 382.0 626.5 367.0 629.5 Q 358.0 632.5 356.0 621.5 Q 355.0 614.5 360.0 604.5 Z" fill="lightgray"></path>
      </clipPath>
      <path clip-path="url(#make-me-a-hanzi-clip-8)" d="M 367.0 618.5 L 407.0 582.5 L 427.0 552.5 " fill="none" id="make-me-a-hanzi-animation-8" stroke-dasharray="218 436" stroke-linecap="round"></path>

      <clipPath id="make-me-a-hanzi-clip-9">
      <path d="M 421.0 129.5 Q 434.0 136.5 439.0 152.5 Q 446.0 185.5 413.0 240.5 Q 388.0 291.5 454.0 358.5 Q 472.0 373.5 456.0 386.5 Q 440.0 399.5 412.0 410.5 Q 394.0 420.5 352.0 387.5 Q 289.0 362.5 283.0 361.5 Q 277.0 361.5 276.0 357.5 Q 275.0 353.5 281.0 350.5 Q 312.0 335.5 373.0 363.5 Q 380.0 366.5 387.0 358.5 Q 403.0 340.5 386.0 319.5 Q 344.0 280.5 385.0 219.5 Q 406.0 176.5 407.0 159.5 Q 408.0 143.5 405.0 134.5 C 402.0 113.5 402.0 113.5 421.0 129.5 Z" fill="lightgray"></path>
      </clipPath>
      <path clip-path="url(#make-me-a-hanzi-clip-9)" d="M 281.0 356.5 L 340.0 365.5 L 369.0 381.5 L 397.0 384.5 L 417.0 373.5 L 417.0 346.5 L 386.0 283.5 L 388.0 251.5 L 421.0 180.5 L 424.0 159.5 L 420.0 143.5 L 411.0 138.5 " fill="none" id="make-me-a-hanzi-animation-9" stroke-dasharray="527 1054" stroke-linecap="round"></path>

      <clipPath id="make-me-a-hanzi-clip-10">
      <path d="M 405.0 134.5 Q 405.0 135.5 404.0 135.5 Q 370.0 148.5 325.0 144.5 Q 303.0 140.5 283.0 145.5 Q 268.0 148.5 266.0 141.5 Q 262.0 131.5 275.0 120.5 Q 291.0 102.5 342.0 111.5 Q 384.0 115.5 471.0 77.5 L 704.0 -22.5 Q 737.0 -40.5 782.0 -20.5 Q 843.0 1.5 898.0 25.5 Q 917.0 32.5 916.0 41.5 Q 916.0 51.5 869.0 49.5 Q 692.0 49.5 659.0 55.5 Q 626.0 61.5 421.0 129.5 L 405.0 134.5 Z" fill="lightgray"></path>
      </clipPath>
      <path clip-path="url(#make-me-a-hanzi-clip-10)" d="M 275.0 136.5 L 294.0 126.5 L 350.0 129.5 L 393.0 123.5 L 634.0 34.5 L 739.0 9.5 L 909.0 39.5 " fill="none" id="make-me-a-hanzi-animation-10" stroke-dasharray="786 1572" stroke-linecap="round"></path>

</g>
</svg>
