<svg version="1.1" viewBox="0 0 1024 1024" xmlns="http://www.w3.org/2000/svg">
  <g stroke="lightgray" stroke-dasharray="1,1" stroke-width="1" transform="scale(4, 4)">
    <line x1="0" y1="0" x2="256" y2="256"></line>
    <line x1="256" y1="0" x2="0" y2="256"></line>
    <line x1="128" y1="0" x2="128" y2="256"></line>
    <line x1="0" y1="128" x2="256" y2="128"></line>
  </g>
<g transform="scale(0.92, -0.92) translate(60, -900)">
   <style type="text/css">
    @keyframes keyframes0 {
      from {
       stroke: blue;
       stroke-dashoffset: 1082;
       stroke-width: 128;
       }
       78% {
       animation-timing-function: step-end;
       stroke: blue;
       stroke-dashoffset: 0;
       stroke-width: 128;
       }
       to {
       stroke: black;
       stroke-width: 1024;
       }
       }
       #make-me-a-hanzi-animation-0 {
         animation: keyframes0 1.130534s both;
         animation-delay: 0.000000s;
         animation-timing-function: linear;
       }
    @keyframes keyframes1 {
      from {
       stroke: blue;
       stroke-dashoffset: 487;
       stroke-width: 128;
       }
       61% {
       animation-timing-function: step-end;
       stroke: blue;
       stroke-dashoffset: 0;
       stroke-width: 128;
       }
       to {
       stroke: black;
       stroke-width: 1024;
       }
       }
       #make-me-a-hanzi-animation-1 {
         animation: keyframes1 0.646322s both;
         animation-delay: 1.130534s;
         animation-timing-function: linear;
       }
    @keyframes keyframes2 {
      from {
       stroke: blue;
       stroke-dashoffset: 480;
       stroke-width: 128;
       }
       61% {
       animation-timing-function: step-end;
       stroke: blue;
       stroke-dashoffset: 0;
       stroke-width: 128;
       }
       to {
       stroke: black;
       stroke-width: 1024;
       }
       }
       #make-me-a-hanzi-animation-2 {
         animation: keyframes2 0.640625s both;
         animation-delay: 1.776855s;
         animation-timing-function: linear;
       }
    @keyframes keyframes3 {
      from {
       stroke: blue;
       stroke-dashoffset: 554;
       stroke-width: 128;
       }
       64% {
       animation-timing-function: step-end;
       stroke: blue;
       stroke-dashoffset: 0;
       stroke-width: 128;
       }
       to {
       stroke: black;
       stroke-width: 1024;
       }
       }
       #make-me-a-hanzi-animation-3 {
         animation: keyframes3 0.700846s both;
         animation-delay: 2.417480s;
         animation-timing-function: linear;
       }
    @keyframes keyframes4 {
      from {
       stroke: blue;
       stroke-dashoffset: 1141;
       stroke-width: 128;
       }
       79% {
       animation-timing-function: step-end;
       stroke: blue;
       stroke-dashoffset: 0;
       stroke-width: 128;
       }
       to {
       stroke: black;
       stroke-width: 1024;
       }
       }
       #make-me-a-hanzi-animation-4 {
         animation: keyframes4 1.178548s both;
         animation-delay: 3.118327s;
         animation-timing-function: linear;
       }
    @keyframes keyframes5 {
      from {
       stroke: blue;
       stroke-dashoffset: 478;
       stroke-width: 128;
       }
       61% {
       animation-timing-function: step-end;
       stroke: blue;
       stroke-dashoffset: 0;
       stroke-width: 128;
       }
       to {
       stroke: black;
       stroke-width: 1024;
       }
       }
       #make-me-a-hanzi-animation-5 {
         animation: keyframes5 0.638997s both;
         animation-delay: 4.296875s;
         animation-timing-function: linear;
       }
    @keyframes keyframes6 {
      from {
       stroke: blue;
       stroke-dashoffset: 465;
       stroke-width: 128;
       }
       60% {
       animation-timing-function: step-end;
       stroke: blue;
       stroke-dashoffset: 0;
       stroke-width: 128;
       }
       to {
       stroke: black;
       stroke-width: 1024;
       }
       }
       #make-me-a-hanzi-animation-6 {
         animation: keyframes6 0.628418s both;
         animation-delay: 4.935872s;
         animation-timing-function: linear;
       }
    @keyframes keyframes7 {
      from {
       stroke: blue;
       stroke-dashoffset: 535;
       stroke-width: 128;
       }
       64% {
       animation-timing-function: step-end;
       stroke: blue;
       stroke-dashoffset: 0;
       stroke-width: 128;
       }
       to {
       stroke: black;
       stroke-width: 1024;
       }
       }
       #make-me-a-hanzi-animation-7 {
         animation: keyframes7 0.685384s both;
         animation-delay: 5.564290s;
         animation-timing-function: linear;
       }
</style>
<path d="M 396.0 558.0 L 394.0 536.0 L 391.0 463.0 Q 390.0 462.0 390.0 448.0 L 387.0 405.0 L 384.0 385.0 Q 383.0 358.0 379.0 337.0 L 371.0 297.0 L 365.0 264.0 L 357.0 236.0 Q 344.0 178.0 315.0 132.0 Q 287.0 85.0 248.0 38.0 L 227.0 12.0 Q 219.0 0.0 222.0 -6.0 Q 225.0 -12.0 239.0 -4.0 L 271.0 17.0 Q 301.0 34.0 340.0 83.0 Q 379.0 132.0 399.0 185.0 Q 420.0 237.0 435.0 310.0 Q 451.0 383.0 454.0 486.0 Q 458.0 589.0 460.0 612.0 L 466.0 654.0 Q 466.0 661.0 469.0 674.0 L 477.0 697.0 Q 480.0 706.0 478.0 715.0 Q 476.0 724.0 449.0 740.0 Q 422.0 756.0 382.0 756.0 Q 361.0 753.0 365.0 738.0 L 376.0 718.0 Q 386.0 701.0 388.0 687.0 Q 392.0 674.0 393.0 657.0 L 396.0 600.0 L 396.0 558.0 Z" fill="lightgray"></path> 
<path d="M 276.0 580.0 L 208.0 573.0 L 164.0 570.0 Q 153.0 569.0 159.0 555.0 Q 168.0 546.0 179.0 541.0 Q 191.0 536.0 197.0 532.0 Q 204.0 527.0 216.0 525.0 Q 229.0 522.0 234.0 525.0 L 254.0 532.0 Q 262.0 536.0 317.0 545.0 L 350.0 551.0 L 376.0 554.0 Q 388.0 554.0 396.0 558.0 C 424.0 568.0 426.0 605.0 396.0 600.0 L 330.0 588.0 L 276.0 580.0 Z" fill="lightgray"></path> 
<path d="M 390.0 448.0 L 280.0 430.0 L 170.0 419.0 Q 164.0 418.0 162.0 413.0 Q 161.0 408.0 165.0 404.0 Q 169.0 397.0 181.0 392.0 L 207.0 380.0 Q 232.0 366.0 247.0 376.0 Q 254.0 380.0 260.0 381.0 L 291.0 390.0 Q 305.0 393.0 310.0 393.0 L 387.0 405.0 C 417.0 410.0 420.0 453.0 390.0 448.0 Z" fill="lightgray"></path> 
<path d="M 371.0 297.0 L 178.0 241.0 Q 169.0 240.0 162.0 237.0 L 122.0 230.0 L 92.0 232.0 L 87.0 228.0 Q 84.0 219.0 92.0 211.0 L 110.0 192.0 Q 131.0 164.0 146.0 160.0 L 159.0 155.0 Q 161.0 155.0 163.0 157.0 L 165.0 158.0 Q 175.0 167.0 198.0 182.0 L 223.0 197.0 L 365.0 264.0 C 392.0 277.0 400.0 305.0 371.0 297.0 Z" fill="lightgray"></path> 
<path d="M 659.0 641.0 L 662.0 712.0 Q 661.0 740.0 675.0 772.0 Q 678.0 775.0 678.0 780.0 L 680.0 785.0 Q 680.0 789.0 673.0 800.0 Q 666.0 810.0 640.0 820.0 Q 617.0 832.0 603.0 832.0 Q 589.0 832.0 584.0 829.0 Q 579.0 826.0 583.0 809.0 L 588.0 797.0 L 593.0 775.0 Q 598.0 732.0 598.0 692.0 L 588.0 132.0 L 588.0 77.0 L 593.0 -12.0 L 597.0 -36.0 Q 600.0 -53.0 609.0 -53.0 Q 614.0 -56.0 618.0 -45.0 L 625.0 -24.0 Q 629.0 -15.0 636.0 32.0 L 647.0 112.0 Q 649.0 168.0 649.0 183.0 L 650.0 222.0 L 651.0 262.0 L 655.0 410.0 L 655.0 440.0 L 658.0 575.0 L 659.0 606.0 L 659.0 641.0 Z" fill="lightgray"></path> 
<path d="M 658.0 575.0 L 684.0 573.0 L 726.0 574.0 Q 754.0 576.0 781.0 580.0 L 852.0 592.0 Q 879.0 596.0 885.0 602.0 Q 893.0 606.0 891.0 612.0 Q 891.0 617.0 876.0 628.0 Q 861.0 638.0 842.0 640.0 L 827.0 642.0 L 728.0 618.0 Q 677.0 606.0 659.0 606.0 C 629.0 604.0 628.0 577.0 658.0 575.0 Z" fill="lightgray"></path> 
<path d="M 655.0 410.0 L 691.0 407.0 Q 695.0 402.0 805.0 419.0 L 848.0 426.0 Q 874.0 427.0 877.0 441.0 Q 880.0 446.0 865.0 456.0 Q 834.0 478.0 801.0 472.0 L 666.0 442.0 Q 658.0 440.0 655.0 440.0 C 625.0 435.0 625.0 412.0 655.0 410.0 Z" fill="lightgray"></path> 
<path d="M 650.0 222.0 L 743.0 229.0 Q 752.0 230.0 775.0 230.0 L 815.0 232.0 L 899.0 239.0 Q 935.0 242.0 938.0 256.0 Q 940.0 261.0 928.0 268.0 Q 884.0 299.0 858.0 296.0 L 837.0 290.0 L 748.0 274.0 L 684.0 265.0 Q 668.0 264.0 651.0 262.0 C 621.0 259.0 620.0 220.0 650.0 222.0 Z" fill="lightgray"></path> 
      <clipPath id="make-me-a-hanzi-clip-0">
      <path d="M 396.0 558.0 L 394.0 536.0 L 391.0 463.0 Q 390.0 462.0 390.0 448.0 L 387.0 405.0 L 384.0 385.0 Q 383.0 358.0 379.0 337.0 L 371.0 297.0 L 365.0 264.0 L 357.0 236.0 Q 344.0 178.0 315.0 132.0 Q 287.0 85.0 248.0 38.0 L 227.0 12.0 Q 219.0 0.0 222.0 -6.0 Q 225.0 -12.0 239.0 -4.0 L 271.0 17.0 Q 301.0 34.0 340.0 83.0 Q 379.0 132.0 399.0 185.0 Q 420.0 237.0 435.0 310.0 Q 451.0 383.0 454.0 486.0 Q 458.0 589.0 460.0 612.0 L 466.0 654.0 Q 466.0 661.0 469.0 674.0 L 477.0 697.0 Q 480.0 706.0 478.0 715.0 Q 476.0 724.0 449.0 740.0 Q 422.0 756.0 382.0 756.0 Q 361.0 753.0 365.0 738.0 L 376.0 718.0 Q 386.0 701.0 388.0 687.0 Q 392.0 674.0 393.0 657.0 L 396.0 600.0 L 396.0 558.0 Z" fill="lightgray"></path>
      </clipPath>
      <path clip-path="url(#make-me-a-hanzi-clip-0)" d="M 379.0 742.0 L 411.0 721.0 L 431.0 699.0 L 422.0 446.0 L 407.0 322.0 L 380.0 212.0 L 355.0 151.0 L 295.0 62.0 L 227.0 -2.0 " fill="none" id="make-me-a-hanzi-animation-0" stroke-dasharray="954 1908" stroke-linecap="round"></path>

      <clipPath id="make-me-a-hanzi-clip-1">
      <path d="M 276.0 580.0 L 208.0 573.0 L 164.0 570.0 Q 153.0 569.0 159.0 555.0 Q 168.0 546.0 179.0 541.0 Q 191.0 536.0 197.0 532.0 Q 204.0 527.0 216.0 525.0 Q 229.0 522.0 234.0 525.0 L 254.0 532.0 Q 262.0 536.0 317.0 545.0 L 350.0 551.0 L 376.0 554.0 Q 388.0 554.0 396.0 558.0 C 424.0 568.0 426.0 605.0 396.0 600.0 L 330.0 588.0 L 276.0 580.0 Z" fill="lightgray"></path>
      </clipPath>
      <path clip-path="url(#make-me-a-hanzi-clip-1)" d="M 171.0 559.0 L 225.0 549.0 L 375.0 575.0 L 390.0 593.0 " fill="none" id="make-me-a-hanzi-animation-1" stroke-dasharray="359 718" stroke-linecap="round"></path>

      <clipPath id="make-me-a-hanzi-clip-2">
      <path d="M 390.0 448.0 L 280.0 430.0 L 170.0 419.0 Q 164.0 418.0 162.0 413.0 Q 161.0 408.0 165.0 404.0 Q 169.0 397.0 181.0 392.0 L 207.0 380.0 Q 232.0 366.0 247.0 376.0 Q 254.0 380.0 260.0 381.0 L 291.0 390.0 Q 305.0 393.0 310.0 393.0 L 387.0 405.0 C 417.0 410.0 420.0 453.0 390.0 448.0 Z" fill="lightgray"></path>
      </clipPath>
      <path clip-path="url(#make-me-a-hanzi-clip-2)" d="M 170.0 411.0 L 232.0 398.0 L 361.0 421.0 L 383.0 441.0 " fill="none" id="make-me-a-hanzi-animation-2" stroke-dasharray="352 704" stroke-linecap="round"></path>

      <clipPath id="make-me-a-hanzi-clip-3">
      <path d="M 371.0 297.0 L 178.0 241.0 Q 169.0 240.0 162.0 237.0 L 122.0 230.0 L 92.0 232.0 L 87.0 228.0 Q 84.0 219.0 92.0 211.0 L 110.0 192.0 Q 131.0 164.0 146.0 160.0 L 159.0 155.0 Q 161.0 155.0 163.0 157.0 L 165.0 158.0 Q 175.0 167.0 198.0 182.0 L 223.0 197.0 L 365.0 264.0 C 392.0 277.0 400.0 305.0 371.0 297.0 Z" fill="lightgray"></path>
      </clipPath>
      <path clip-path="url(#make-me-a-hanzi-clip-3)" d="M 95.0 223.0 L 155.0 198.0 L 350.0 274.0 L 364.0 293.0 " fill="none" id="make-me-a-hanzi-animation-3" stroke-dasharray="426 852" stroke-linecap="round"></path>

      <clipPath id="make-me-a-hanzi-clip-4">
      <path d="M 659.0 641.0 L 662.0 712.0 Q 661.0 740.0 675.0 772.0 Q 678.0 775.0 678.0 780.0 L 680.0 785.0 Q 680.0 789.0 673.0 800.0 Q 666.0 810.0 640.0 820.0 Q 617.0 832.0 603.0 832.0 Q 589.0 832.0 584.0 829.0 Q 579.0 826.0 583.0 809.0 L 588.0 797.0 L 593.0 775.0 Q 598.0 732.0 598.0 692.0 L 588.0 132.0 L 588.0 77.0 L 593.0 -12.0 L 597.0 -36.0 Q 600.0 -53.0 609.0 -53.0 Q 614.0 -56.0 618.0 -45.0 L 625.0 -24.0 Q 629.0 -15.0 636.0 32.0 L 647.0 112.0 Q 649.0 168.0 649.0 183.0 L 650.0 222.0 L 651.0 262.0 L 655.0 410.0 L 655.0 440.0 L 658.0 575.0 L 659.0 606.0 L 659.0 641.0 Z" fill="lightgray"></path>
      </clipPath>
      <path clip-path="url(#make-me-a-hanzi-clip-4)" d="M 590.0 823.0 L 634.0 778.0 L 609.0 -44.0 " fill="none" id="make-me-a-hanzi-animation-4" stroke-dasharray="1013 2026" stroke-linecap="round"></path>

      <clipPath id="make-me-a-hanzi-clip-5">
      <path d="M 658.0 575.0 L 684.0 573.0 L 726.0 574.0 Q 754.0 576.0 781.0 580.0 L 852.0 592.0 Q 879.0 596.0 885.0 602.0 Q 893.0 606.0 891.0 612.0 Q 891.0 617.0 876.0 628.0 Q 861.0 638.0 842.0 640.0 L 827.0 642.0 L 728.0 618.0 Q 677.0 606.0 659.0 606.0 C 629.0 604.0 628.0 577.0 658.0 575.0 Z" fill="lightgray"></path>
      </clipPath>
      <path clip-path="url(#make-me-a-hanzi-clip-5)" d="M 664.0 598.0 L 679.0 590.0 L 831.0 616.0 L 882.0 611.0 " fill="none" id="make-me-a-hanzi-animation-5" stroke-dasharray="350 700" stroke-linecap="round"></path>

      <clipPath id="make-me-a-hanzi-clip-6">
      <path d="M 655.0 410.0 L 691.0 407.0 Q 695.0 402.0 805.0 419.0 L 848.0 426.0 Q 874.0 427.0 877.0 441.0 Q 880.0 446.0 865.0 456.0 Q 834.0 478.0 801.0 472.0 L 666.0 442.0 Q 658.0 440.0 655.0 440.0 C 625.0 435.0 625.0 412.0 655.0 410.0 Z" fill="lightgray"></path>
      </clipPath>
      <path clip-path="url(#make-me-a-hanzi-clip-6)" d="M 662.0 418.0 L 677.0 427.0 L 819.0 448.0 L 867.0 442.0 " fill="none" id="make-me-a-hanzi-animation-6" stroke-dasharray="337 674" stroke-linecap="round"></path>

      <clipPath id="make-me-a-hanzi-clip-7">
      <path d="M 650.0 222.0 L 743.0 229.0 Q 752.0 230.0 775.0 230.0 L 815.0 232.0 L 899.0 239.0 Q 935.0 242.0 938.0 256.0 Q 940.0 261.0 928.0 268.0 Q 884.0 299.0 858.0 296.0 L 837.0 290.0 L 748.0 274.0 L 684.0 265.0 Q 668.0 264.0 651.0 262.0 C 621.0 259.0 620.0 220.0 650.0 222.0 Z" fill="lightgray"></path>
      </clipPath>
      <path clip-path="url(#make-me-a-hanzi-clip-7)" d="M 657.0 228.0 L 668.0 242.0 L 680.0 245.0 L 861.0 266.0 L 927.0 257.0 " fill="none" id="make-me-a-hanzi-animation-7" stroke-dasharray="407 814" stroke-linecap="round"></path>

</g>
</svg>
