<svg version="1.1" viewBox="0 0 1024 1024" xmlns="http://www.w3.org/2000/svg">
  <g stroke="lightgray" stroke-dasharray="1,1" stroke-width="1" transform="scale(4, 4)">
    <line x1="0" y1="0" x2="256" y2="256"></line>
    <line x1="256" y1="0" x2="0" y2="256"></line>
    <line x1="128" y1="0" x2="128" y2="256"></line>
    <line x1="0" y1="128" x2="256" y2="128"></line>
  </g>
<g transform="scale(1, -1) translate(0, -900)">
   <style type="text/css">
    @keyframes keyframes0 {
      from {
       stroke: blue;
       stroke-dashoffset: 510;
       stroke-width: 128;
       }
       62% {
       animation-timing-function: step-end;
       stroke: blue;
       stroke-dashoffset: 0;
       stroke-width: 128;
       }
       to {
       stroke: black;
       stroke-width: 1024;
       }
       }
       #make-me-a-hanzi-animation-0 {
         animation: keyframes0 0.665039s both;
         animation-delay: 0.000000s;
         animation-timing-function: linear;
       }
    @keyframes keyframes1 {
      from {
       stroke: blue;
       stroke-dashoffset: 761;
       stroke-width: 128;
       }
       71% {
       animation-timing-function: step-end;
       stroke: blue;
       stroke-dashoffset: 0;
       stroke-width: 128;
       }
       to {
       stroke: black;
       stroke-width: 1024;
       }
       }
       #make-me-a-hanzi-animation-1 {
         animation: keyframes1 0.869303s both;
         animation-delay: 0.665039s;
         animation-timing-function: linear;
       }
    @keyframes keyframes2 {
      from {
       stroke: blue;
       stroke-dashoffset: 416;
       stroke-width: 128;
       }
       58% {
       animation-timing-function: step-end;
       stroke: blue;
       stroke-dashoffset: 0;
       stroke-width: 128;
       }
       to {
       stroke: black;
       stroke-width: 1024;
       }
       }
       #make-me-a-hanzi-animation-2 {
         animation: keyframes2 0.588542s both;
         animation-delay: 1.534342s;
         animation-timing-function: linear;
       }
    @keyframes keyframes3 {
      from {
       stroke: blue;
       stroke-dashoffset: 421;
       stroke-width: 128;
       }
       58% {
       animation-timing-function: step-end;
       stroke: blue;
       stroke-dashoffset: 0;
       stroke-width: 128;
       }
       to {
       stroke: black;
       stroke-width: 1024;
       }
       }
       #make-me-a-hanzi-animation-3 {
         animation: keyframes3 0.592611s both;
         animation-delay: 2.122884s;
         animation-timing-function: linear;
       }
    @keyframes keyframes4 {
      from {
       stroke: blue;
       stroke-dashoffset: 692;
       stroke-width: 128;
       }
       69% {
       animation-timing-function: step-end;
       stroke: blue;
       stroke-dashoffset: 0;
       stroke-width: 128;
       }
       to {
       stroke: black;
       stroke-width: 1024;
       }
       }
       #make-me-a-hanzi-animation-4 {
         animation: keyframes4 0.813151s both;
         animation-delay: 2.715495s;
         animation-timing-function: linear;
       }
    @keyframes keyframes5 {
      from {
       stroke: blue;
       stroke-dashoffset: 938;
       stroke-width: 128;
       }
       75% {
       animation-timing-function: step-end;
       stroke: blue;
       stroke-dashoffset: 0;
       stroke-width: 128;
       }
       to {
       stroke: black;
       stroke-width: 1024;
       }
       }
       #make-me-a-hanzi-animation-5 {
         animation: keyframes5 1.013346s both;
         animation-delay: 3.528646s;
         animation-timing-function: linear;
       }
    @keyframes keyframes6 {
      from {
       stroke: blue;
       stroke-dashoffset: 601;
       stroke-width: 128;
       }
       66% {
       animation-timing-function: step-end;
       stroke: blue;
       stroke-dashoffset: 0;
       stroke-width: 128;
       }
       to {
       stroke: black;
       stroke-width: 1024;
       }
       }
       #make-me-a-hanzi-animation-6 {
         animation: keyframes6 0.739095s both;
         animation-delay: 4.541992s;
         animation-timing-function: linear;
       }
    @keyframes keyframes7 {
      from {
       stroke: blue;
       stroke-dashoffset: 375;
       stroke-width: 128;
       }
       55% {
       animation-timing-function: step-end;
       stroke: blue;
       stroke-dashoffset: 0;
       stroke-width: 128;
       }
       to {
       stroke: black;
       stroke-width: 1024;
       }
       }
       #make-me-a-hanzi-animation-7 {
         animation: keyframes7 0.555176s both;
         animation-delay: 5.281087s;
         animation-timing-function: linear;
       }
    @keyframes keyframes8 {
      from {
       stroke: blue;
       stroke-dashoffset: 608;
       stroke-width: 128;
       }
       66% {
       animation-timing-function: step-end;
       stroke: blue;
       stroke-dashoffset: 0;
       stroke-width: 128;
       }
       to {
       stroke: black;
       stroke-width: 1024;
       }
       }
       #make-me-a-hanzi-animation-8 {
         animation: keyframes8 0.744792s both;
         animation-delay: 5.836263s;
         animation-timing-function: linear;
       }
    @keyframes keyframes9 {
      from {
       stroke: blue;
       stroke-dashoffset: 390;
       stroke-width: 128;
       }
       56% {
       animation-timing-function: step-end;
       stroke: blue;
       stroke-dashoffset: 0;
       stroke-width: 128;
       }
       to {
       stroke: black;
       stroke-width: 1024;
       }
       }
       #make-me-a-hanzi-animation-9 {
         animation: keyframes9 0.567383s both;
         animation-delay: 6.581055s;
         animation-timing-function: linear;
       }
    @keyframes keyframes10 {
      from {
       stroke: blue;
       stroke-dashoffset: 633;
       stroke-width: 128;
       }
       67% {
       animation-timing-function: step-end;
       stroke: blue;
       stroke-dashoffset: 0;
       stroke-width: 128;
       }
       to {
       stroke: black;
       stroke-width: 1024;
       }
       }
       #make-me-a-hanzi-animation-10 {
         animation: keyframes10 0.765137s both;
         animation-delay: 7.148438s;
         animation-timing-function: linear;
       }
    @keyframes keyframes11 {
      from {
       stroke: blue;
       stroke-dashoffset: 843;
       stroke-width: 128;
       }
       73% {
       animation-timing-function: step-end;
       stroke: blue;
       stroke-dashoffset: 0;
       stroke-width: 128;
       }
       to {
       stroke: black;
       stroke-width: 1024;
       }
       }
       #make-me-a-hanzi-animation-11 {
         animation: keyframes11 0.936035s both;
         animation-delay: 7.913574s;
         animation-timing-function: linear;
       }
    @keyframes keyframes12 {
      from {
       stroke: blue;
       stroke-dashoffset: 843;
       stroke-width: 128;
       }
       73% {
       animation-timing-function: step-end;
       stroke: blue;
       stroke-dashoffset: 0;
       stroke-width: 128;
       }
       to {
       stroke: black;
       stroke-width: 1024;
       }
       }
       #make-me-a-hanzi-animation-12 {
         animation: keyframes12 0.936035s both;
         animation-delay: 8.849609s;
         animation-timing-function: linear;
       }
    @keyframes keyframes13 {
      from {
       stroke: blue;
       stroke-dashoffset: 480;
       stroke-width: 128;
       }
       61% {
       animation-timing-function: step-end;
       stroke: blue;
       stroke-dashoffset: 0;
       stroke-width: 128;
       }
       to {
       stroke: black;
       stroke-width: 1024;
       }
       }
       #make-me-a-hanzi-animation-13 {
         animation: keyframes13 0.640625s both;
         animation-delay: 9.785645s;
         animation-timing-function: linear;
       }
</style>
<path d="M 232.0 706.0 Q 220.0 710.0 197.0 715.0 Q 185.0 718.0 182.0 713.0 Q 175.0 706.0 184.0 690.0 Q 215.0 626.0 232.0 522.0 Q 235.0 491.0 253.0 469.0 Q 271.0 447.0 276.0 463.0 Q 277.0 470.0 279.0 477.0 L 280.0 499.0 Q 267.0 589.0 252.0 679.0 C 248.0 701.0 248.0 701.0 232.0 706.0 Z" fill="lightgray"></path> 
<path d="M 443.0 505.0 Q 456.0 486.0 470.0 480.0 Q 480.0 473.0 492.0 492.0 Q 505.0 516.0 529.0 643.0 Q 536.0 671.0 556.0 693.0 Q 566.0 703.0 557.0 716.0 Q 542.0 731.0 505.0 753.0 Q 492.0 759.0 424.0 743.0 Q 394.0 743.0 232.0 706.0 C 203.0 699.0 223.0 671.0 252.0 679.0 Q 286.0 689.0 336.0 698.0 L 366.0 703.0 Q 396.0 709.0 435.0 714.0 Q 463.0 718.0 472.0 709.0 Q 484.0 696.0 482.0 681.0 Q 466.0 563.0 456.0 544.0 Q 452.0 535.0 445.0 532.0 C 432.0 518.0 432.0 518.0 443.0 505.0 Z" fill="lightgray"></path> 
<path d="M 391.0 596.0 Q 416.0 602.0 439.0 605.0 Q 458.0 609.0 450.0 620.0 Q 440.0 632.0 420.0 634.0 Q 408.0 635.0 391.0 631.0 L 345.0 617.0 Q 311.0 607.0 282.0 597.0 Q 269.0 593.0 286.0 581.0 Q 290.0 578.0 345.0 587.0 L 391.0 596.0 Z" fill="lightgray"></path> 
<path d="M 389.0 496.0 Q 417.0 502.0 443.0 505.0 C 473.0 509.0 474.0 524.0 445.0 532.0 Q 424.0 539.0 390.0 530.0 L 345.0 517.0 Q 311.0 508.0 280.0 499.0 C 251.0 491.0 249.0 472.0 279.0 477.0 Q 280.0 477.0 344.0 488.0 L 389.0 496.0 Z" fill="lightgray"></path> 
<path d="M 386.0 369.0 Q 447.0 382.0 521.0 390.0 Q 537.0 391.0 538.0 399.0 Q 539.0 412.0 522.0 421.0 Q 495.0 433.0 473.0 428.0 Q 427.0 418.0 387.0 409.0 L 342.0 400.0 Q 188.0 372.0 103.0 364.0 Q 90.0 363.0 87.0 355.0 Q 83.0 345.0 98.0 333.0 Q 134.0 308.0 199.0 325.0 Q 263.0 346.0 314.0 356.0 L 386.0 369.0 Z" fill="lightgray"></path> 
<path d="M 339.0 300.0 Q 339.0 173.0 325.0 88.0 Q 322.0 49.0 345.0 16.0 Q 355.0 3.0 366.0 19.0 Q 384.0 55.0 385.0 123.0 Q 382.0 171.0 386.0 369.0 L 387.0 409.0 Q 388.0 452.0 389.0 496.0 L 390.0 530.0 Q 390.0 555.0 391.0 579.0 Q 391.0 588.0 391.0 596.0 L 391.0 631.0 Q 391.0 664.0 394.0 670.0 Q 398.0 680.0 389.0 688.0 Q 380.0 695.0 366.0 703.0 C 341.0 719.0 328.0 727.0 336.0 698.0 L 337.0 696.0 Q 344.0 683.0 345.0 617.0 L 345.0 587.0 Q 345.0 553.0 345.0 517.0 L 344.0 488.0 Q 343.0 445.0 342.0 400.0 L 339.0 300.0 Z" fill="lightgray"></path> 
<path d="M 314.0 356.0 Q 259.0 239.0 100.0 116.0 Q 88.0 104.0 97.0 103.0 Q 106.0 99.0 117.0 104.0 Q 228.0 147.0 339.0 300.0 C 389.0 369.0 331.0 390.0 314.0 356.0 Z" fill="lightgray"></path> 
<path d="M 437.0 280.0 Q 461.0 258.0 485.0 231.0 Q 495.0 221.0 509.0 220.0 Q 518.0 220.0 522.0 231.0 Q 526.0 243.0 521.0 267.0 Q 515.0 294.0 435.0 319.0 Q 422.0 323.0 417.0 321.0 Q 413.0 317.0 413.0 307.0 Q 416.0 297.0 437.0 280.0 Z" fill="lightgray"></path> 
<path d="M 732.0 699.0 Q 924.0 744.0 932.0 751.0 Q 941.0 758.0 936.0 767.0 Q 929.0 777.0 901.0 785.0 Q 871.0 789.0 843.0 778.0 Q 789.0 759.0 731.0 743.0 Q 665.0 727.0 590.0 718.0 Q 554.0 712.0 580.0 696.0 Q 622.0 672.0 676.0 687.0 Q 682.0 688.0 691.0 690.0 L 732.0 699.0 Z" fill="lightgray"></path> 
<path d="M 686.0 576.0 Q 726.0 642.0 744.0 663.0 Q 757.0 673.0 750.0 681.0 Q 744.0 691.0 732.0 699.0 C 708.0 716.0 689.0 720.0 691.0 690.0 Q 694.0 669.0 665.0 590.0 Q 661.0 580.0 658.0 571.0 C 648.0 543.0 670.0 550.0 686.0 576.0 Z" fill="lightgray"></path> 
<path d="M 610.0 565.0 Q 591.0 581.0 568.0 586.0 Q 559.0 587.0 554.0 580.0 Q 551.0 576.0 558.0 566.0 Q 588.0 488.0 571.0 320.0 Q 556.0 263.0 560.0 246.0 Q 569.0 216.0 579.0 205.0 Q 589.0 193.0 598.0 206.0 Q 619.0 236.0 620.0 404.0 Q 620.0 506.0 623.0 536.0 C 624.0 554.0 624.0 554.0 610.0 565.0 Z" fill="lightgray"></path> 
<path d="M 804.0 275.0 Q 797.0 253.0 809.0 232.0 Q 822.0 204.0 831.0 204.0 Q 844.0 205.0 860.0 236.0 Q 876.0 261.0 874.0 281.0 Q 850.0 485.0 889.0 542.0 Q 899.0 558.0 891.0 567.0 Q 864.0 592.0 818.0 612.0 Q 799.0 618.0 730.0 589.0 Q 694.0 580.0 686.0 576.0 L 658.0 571.0 Q 633.0 567.0 610.0 565.0 C 580.0 562.0 593.0 531.0 623.0 536.0 Q 626.0 536.0 716.0 553.0 Q 783.0 571.0 800.0 561.0 Q 809.0 539.0 813.0 482.0 Q 814.0 308.0 804.0 275.0 Z" fill="lightgray"></path> 
<path d="M 683.0 422.0 Q 687.0 188.0 611.0 103.0 Q 602.0 94.0 592.0 85.0 Q 562.0 60.0 496.0 26.0 Q 486.0 22.0 483.0 19.0 Q 479.0 15.0 492.0 12.0 Q 531.0 8.0 617.0 56.0 Q 726.0 125.0 727.0 348.0 Q 727.0 396.0 742.0 448.0 Q 746.0 458.0 739.0 464.0 Q 724.0 477.0 694.0 489.0 Q 676.0 496.0 663.0 492.0 Q 647.0 485.0 660.0 471.0 Q 682.0 447.0 683.0 422.0 Z" fill="lightgray"></path> 
<path d="M 754.0 158.0 Q 803.0 100.0 862.0 18.0 Q 875.0 -4.0 889.0 -10.0 Q 898.0 -13.0 906.0 -4.0 Q 919.0 8.0 913.0 52.0 Q 909.0 113.0 759.0 188.0 Q 752.0 195.0 748.0 183.0 Q 745.0 170.0 754.0 158.0 Z" fill="lightgray"></path> 
      <clipPath id="make-me-a-hanzi-clip-0">
      <path d="M 232.0 706.0 Q 220.0 710.0 197.0 715.0 Q 185.0 718.0 182.0 713.0 Q 175.0 706.0 184.0 690.0 Q 215.0 626.0 232.0 522.0 Q 235.0 491.0 253.0 469.0 Q 271.0 447.0 276.0 463.0 Q 277.0 470.0 279.0 477.0 L 280.0 499.0 Q 267.0 589.0 252.0 679.0 C 248.0 701.0 248.0 701.0 232.0 706.0 Z" fill="lightgray"></path>
      </clipPath>
      <path clip-path="url(#make-me-a-hanzi-clip-0)" d="M 191.0 705.0 L 225.0 667.0 L 265.0 468.0 " fill="none" id="make-me-a-hanzi-animation-0" stroke-dasharray="382 764" stroke-linecap="round"></path>

      <clipPath id="make-me-a-hanzi-clip-1">
      <path d="M 443.0 505.0 Q 456.0 486.0 470.0 480.0 Q 480.0 473.0 492.0 492.0 Q 505.0 516.0 529.0 643.0 Q 536.0 671.0 556.0 693.0 Q 566.0 703.0 557.0 716.0 Q 542.0 731.0 505.0 753.0 Q 492.0 759.0 424.0 743.0 Q 394.0 743.0 232.0 706.0 C 203.0 699.0 223.0 671.0 252.0 679.0 Q 286.0 689.0 336.0 698.0 L 366.0 703.0 Q 396.0 709.0 435.0 714.0 Q 463.0 718.0 472.0 709.0 Q 484.0 696.0 482.0 681.0 Q 466.0 563.0 456.0 544.0 Q 452.0 535.0 445.0 532.0 C 432.0 518.0 432.0 518.0 443.0 505.0 Z" fill="lightgray"></path>
      </clipPath>
      <path clip-path="url(#make-me-a-hanzi-clip-1)" d="M 244.0 708.0 L 258.0 696.0 L 438.0 732.0 L 474.0 733.0 L 499.0 723.0 L 516.0 702.0 L 486.0 555.0 L 472.0 518.0 L 476.0 495.0 " fill="none" id="make-me-a-hanzi-animation-1" stroke-dasharray="633 1266" stroke-linecap="round"></path>

      <clipPath id="make-me-a-hanzi-clip-2">
      <path d="M 391.0 596.0 Q 416.0 602.0 439.0 605.0 Q 458.0 609.0 450.0 620.0 Q 440.0 632.0 420.0 634.0 Q 408.0 635.0 391.0 631.0 L 345.0 617.0 Q 311.0 607.0 282.0 597.0 Q 269.0 593.0 286.0 581.0 Q 290.0 578.0 345.0 587.0 L 391.0 596.0 Z" fill="lightgray"></path>
      </clipPath>
      <path clip-path="url(#make-me-a-hanzi-clip-2)" d="M 285.0 589.0 L 402.0 617.0 L 442.0 614.0 " fill="none" id="make-me-a-hanzi-animation-2" stroke-dasharray="288 576" stroke-linecap="round"></path>

      <clipPath id="make-me-a-hanzi-clip-3">
      <path d="M 389.0 496.0 Q 417.0 502.0 443.0 505.0 C 473.0 509.0 474.0 524.0 445.0 532.0 Q 424.0 539.0 390.0 530.0 L 345.0 517.0 Q 311.0 508.0 280.0 499.0 C 251.0 491.0 249.0 472.0 279.0 477.0 Q 280.0 477.0 344.0 488.0 L 389.0 496.0 Z" fill="lightgray"></path>
      </clipPath>
      <path clip-path="url(#make-me-a-hanzi-clip-3)" d="M 280.0 482.0 L 291.0 491.0 L 438.0 526.0 " fill="none" id="make-me-a-hanzi-animation-3" stroke-dasharray="293 586" stroke-linecap="round"></path>

      <clipPath id="make-me-a-hanzi-clip-4">
      <path d="M 386.0 369.0 Q 447.0 382.0 521.0 390.0 Q 537.0 391.0 538.0 399.0 Q 539.0 412.0 522.0 421.0 Q 495.0 433.0 473.0 428.0 Q 427.0 418.0 387.0 409.0 L 342.0 400.0 Q 188.0 372.0 103.0 364.0 Q 90.0 363.0 87.0 355.0 Q 83.0 345.0 98.0 333.0 Q 134.0 308.0 199.0 325.0 Q 263.0 346.0 314.0 356.0 L 386.0 369.0 Z" fill="lightgray"></path>
      </clipPath>
      <path clip-path="url(#make-me-a-hanzi-clip-4)" d="M 98.0 351.0 L 132.0 343.0 L 169.0 345.0 L 470.0 406.0 L 527.0 402.0 " fill="none" id="make-me-a-hanzi-animation-4" stroke-dasharray="564 1128" stroke-linecap="round"></path>

      <clipPath id="make-me-a-hanzi-clip-5">
      <path d="M 339.0 300.0 Q 339.0 173.0 325.0 88.0 Q 322.0 49.0 345.0 16.0 Q 355.0 3.0 366.0 19.0 Q 384.0 55.0 385.0 123.0 Q 382.0 171.0 386.0 369.0 L 387.0 409.0 Q 388.0 452.0 389.0 496.0 L 390.0 530.0 Q 390.0 555.0 391.0 579.0 Q 391.0 588.0 391.0 596.0 L 391.0 631.0 Q 391.0 664.0 394.0 670.0 Q 398.0 680.0 389.0 688.0 Q 380.0 695.0 366.0 703.0 C 341.0 719.0 328.0 727.0 336.0 698.0 L 337.0 696.0 Q 344.0 683.0 345.0 617.0 L 345.0 587.0 Q 345.0 553.0 345.0 517.0 L 344.0 488.0 Q 343.0 445.0 342.0 400.0 L 339.0 300.0 Z" fill="lightgray"></path>
      </clipPath>
      <path clip-path="url(#make-me-a-hanzi-clip-5)" d="M 345.0 695.0 L 367.0 672.0 L 369.0 641.0 L 355.0 22.0 " fill="none" id="make-me-a-hanzi-animation-5" stroke-dasharray="810 1620" stroke-linecap="round"></path>

      <clipPath id="make-me-a-hanzi-clip-6">
      <path d="M 314.0 356.0 Q 259.0 239.0 100.0 116.0 Q 88.0 104.0 97.0 103.0 Q 106.0 99.0 117.0 104.0 Q 228.0 147.0 339.0 300.0 C 389.0 369.0 331.0 390.0 314.0 356.0 Z" fill="lightgray"></path>
      </clipPath>
      <path clip-path="url(#make-me-a-hanzi-clip-6)" d="M 335.0 353.0 L 325.0 343.0 L 316.0 308.0 L 304.0 290.0 L 237.0 211.0 L 183.0 160.0 L 103.0 108.0 " fill="none" id="make-me-a-hanzi-animation-6" stroke-dasharray="473 946" stroke-linecap="round"></path>

      <clipPath id="make-me-a-hanzi-clip-7">
      <path d="M 437.0 280.0 Q 461.0 258.0 485.0 231.0 Q 495.0 221.0 509.0 220.0 Q 518.0 220.0 522.0 231.0 Q 526.0 243.0 521.0 267.0 Q 515.0 294.0 435.0 319.0 Q 422.0 323.0 417.0 321.0 Q 413.0 317.0 413.0 307.0 Q 416.0 297.0 437.0 280.0 Z" fill="lightgray"></path>
      </clipPath>
      <path clip-path="url(#make-me-a-hanzi-clip-7)" d="M 421.0 312.0 L 483.0 272.0 L 508.0 234.0 " fill="none" id="make-me-a-hanzi-animation-7" stroke-dasharray="247 494" stroke-linecap="round"></path>

      <clipPath id="make-me-a-hanzi-clip-8">
      <path d="M 732.0 699.0 Q 924.0 744.0 932.0 751.0 Q 941.0 758.0 936.0 767.0 Q 929.0 777.0 901.0 785.0 Q 871.0 789.0 843.0 778.0 Q 789.0 759.0 731.0 743.0 Q 665.0 727.0 590.0 718.0 Q 554.0 712.0 580.0 696.0 Q 622.0 672.0 676.0 687.0 Q 682.0 688.0 691.0 690.0 L 732.0 699.0 Z" fill="lightgray"></path>
      </clipPath>
      <path clip-path="url(#make-me-a-hanzi-clip-8)" d="M 582.0 708.0 L 616.0 702.0 L 664.0 706.0 L 742.0 721.0 L 869.0 759.0 L 926.0 761.0 " fill="none" id="make-me-a-hanzi-animation-8" stroke-dasharray="480 960" stroke-linecap="round"></path>

      <clipPath id="make-me-a-hanzi-clip-9">
      <path d="M 686.0 576.0 Q 726.0 642.0 744.0 663.0 Q 757.0 673.0 750.0 681.0 Q 744.0 691.0 732.0 699.0 C 708.0 716.0 689.0 720.0 691.0 690.0 Q 694.0 669.0 665.0 590.0 Q 661.0 580.0 658.0 571.0 C 648.0 543.0 670.0 550.0 686.0 576.0 Z" fill="lightgray"></path>
      </clipPath>
      <path clip-path="url(#make-me-a-hanzi-clip-9)" d="M 740.0 674.0 L 724.0 674.0 L 712.0 663.0 L 681.0 591.0 L 665.0 574.0 " fill="none" id="make-me-a-hanzi-animation-9" stroke-dasharray="262 524" stroke-linecap="round"></path>

      <clipPath id="make-me-a-hanzi-clip-10">
      <path d="M 610.0 565.0 Q 591.0 581.0 568.0 586.0 Q 559.0 587.0 554.0 580.0 Q 551.0 576.0 558.0 566.0 Q 588.0 488.0 571.0 320.0 Q 556.0 263.0 560.0 246.0 Q 569.0 216.0 579.0 205.0 Q 589.0 193.0 598.0 206.0 Q 619.0 236.0 620.0 404.0 Q 620.0 506.0 623.0 536.0 C 624.0 554.0 624.0 554.0 610.0 565.0 Z" fill="lightgray"></path>
      </clipPath>
      <path clip-path="url(#make-me-a-hanzi-clip-10)" d="M 564.0 575.0 L 589.0 550.0 L 597.0 515.0 L 600.0 392.0 L 585.0 253.0 L 588.0 210.0 " fill="none" id="make-me-a-hanzi-animation-10" stroke-dasharray="505 1010" stroke-linecap="round"></path>

      <clipPath id="make-me-a-hanzi-clip-11">
      <path d="M 804.0 275.0 Q 797.0 253.0 809.0 232.0 Q 822.0 204.0 831.0 204.0 Q 844.0 205.0 860.0 236.0 Q 876.0 261.0 874.0 281.0 Q 850.0 485.0 889.0 542.0 Q 899.0 558.0 891.0 567.0 Q 864.0 592.0 818.0 612.0 Q 799.0 618.0 730.0 589.0 Q 694.0 580.0 686.0 576.0 L 658.0 571.0 Q 633.0 567.0 610.0 565.0 C 580.0 562.0 593.0 531.0 623.0 536.0 Q 626.0 536.0 716.0 553.0 Q 783.0 571.0 800.0 561.0 Q 809.0 539.0 813.0 482.0 Q 814.0 308.0 804.0 275.0 Z" fill="lightgray"></path>
      </clipPath>
      <path clip-path="url(#make-me-a-hanzi-clip-11)" d="M 616.0 559.0 L 631.0 553.0 L 675.0 557.0 L 798.0 588.0 L 814.0 585.0 L 844.0 554.0 L 838.0 444.0 L 841.0 289.0 L 832.0 214.0 " fill="none" id="make-me-a-hanzi-animation-11" stroke-dasharray="715 1430" stroke-linecap="round"></path>

      <clipPath id="make-me-a-hanzi-clip-12">
      <path d="M 683.0 422.0 Q 687.0 188.0 611.0 103.0 Q 602.0 94.0 592.0 85.0 Q 562.0 60.0 496.0 26.0 Q 486.0 22.0 483.0 19.0 Q 479.0 15.0 492.0 12.0 Q 531.0 8.0 617.0 56.0 Q 726.0 125.0 727.0 348.0 Q 727.0 396.0 742.0 448.0 Q 746.0 458.0 739.0 464.0 Q 724.0 477.0 694.0 489.0 Q 676.0 496.0 663.0 492.0 Q 647.0 485.0 660.0 471.0 Q 682.0 447.0 683.0 422.0 Z" fill="lightgray"></path>
      </clipPath>
      <path clip-path="url(#make-me-a-hanzi-clip-12)" d="M 665.0 481.0 L 681.0 474.0 L 710.0 447.0 L 701.0 277.0 L 675.0 165.0 L 651.0 118.0 L 600.0 66.0 L 539.0 33.0 L 491.0 20.0 " fill="none" id="make-me-a-hanzi-animation-12" stroke-dasharray="715 1430" stroke-linecap="round"></path>

      <clipPath id="make-me-a-hanzi-clip-13">
      <path d="M 754.0 158.0 Q 803.0 100.0 862.0 18.0 Q 875.0 -4.0 889.0 -10.0 Q 898.0 -13.0 906.0 -4.0 Q 919.0 8.0 913.0 52.0 Q 909.0 113.0 759.0 188.0 Q 752.0 195.0 748.0 183.0 Q 745.0 170.0 754.0 158.0 Z" fill="lightgray"></path>
      </clipPath>
      <path clip-path="url(#make-me-a-hanzi-clip-13)" d="M 758.0 177.0 L 859.0 82.0 L 885.0 39.0 L 893.0 5.0 " fill="none" id="make-me-a-hanzi-animation-13" stroke-dasharray="352 704" stroke-linecap="round"></path>

</g>
</svg>
