<svg version="1.1" viewBox="0 0 1024 1024" xmlns="http://www.w3.org/2000/svg">
  <g stroke="lightgray" stroke-dasharray="1,1" stroke-width="1" transform="scale(4, 4)">
    <line x1="0" y1="0" x2="256" y2="256"></line>
    <line x1="256" y1="0" x2="0" y2="256"></line>
    <line x1="128" y1="0" x2="128" y2="256"></line>
    <line x1="0" y1="128" x2="256" y2="128"></line>
  </g>
<g transform="scale(1, -1) translate(0, -900)">
   <style type="text/css">
    @keyframes keyframes0 {
      from {
       stroke: blue;
       stroke-dashoffset: 677;
       stroke-width: 128;
       }
       69% {
       animation-timing-function: step-end;
       stroke: blue;
       stroke-dashoffset: 0;
       stroke-width: 128;
       }
       to {
       stroke: black;
       stroke-width: 1024;
       }
       }
       #make-me-a-hanzi-animation-0 {
         animation: keyframes0 0.800944s both;
         animation-delay: 0.000000s;
         animation-timing-function: linear;
       }
    @keyframes keyframes1 {
      from {
       stroke: blue;
       stroke-dashoffset: 444;
       stroke-width: 128;
       }
       59% {
       animation-timing-function: step-end;
       stroke: blue;
       stroke-dashoffset: 0;
       stroke-width: 128;
       }
       to {
       stroke: black;
       stroke-width: 1024;
       }
       }
       #make-me-a-hanzi-animation-1 {
         animation: keyframes1 0.611328s both;
         animation-delay: 0.800944s;
         animation-timing-function: linear;
       }
    @keyframes keyframes2 {
      from {
       stroke: blue;
       stroke-dashoffset: 495;
       stroke-width: 128;
       }
       62% {
       animation-timing-function: step-end;
       stroke: blue;
       stroke-dashoffset: 0;
       stroke-width: 128;
       }
       to {
       stroke: black;
       stroke-width: 1024;
       }
       }
       #make-me-a-hanzi-animation-2 {
         animation: keyframes2 0.652832s both;
         animation-delay: 1.412272s;
         animation-timing-function: linear;
       }
    @keyframes keyframes3 {
      from {
       stroke: blue;
       stroke-dashoffset: 389;
       stroke-width: 128;
       }
       56% {
       animation-timing-function: step-end;
       stroke: blue;
       stroke-dashoffset: 0;
       stroke-width: 128;
       }
       to {
       stroke: black;
       stroke-width: 1024;
       }
       }
       #make-me-a-hanzi-animation-3 {
         animation: keyframes3 0.566569s both;
         animation-delay: 2.065104s;
         animation-timing-function: linear;
       }
    @keyframes keyframes4 {
      from {
       stroke: blue;
       stroke-dashoffset: 427;
       stroke-width: 128;
       }
       58% {
       animation-timing-function: step-end;
       stroke: blue;
       stroke-dashoffset: 0;
       stroke-width: 128;
       }
       to {
       stroke: black;
       stroke-width: 1024;
       }
       }
       #make-me-a-hanzi-animation-4 {
         animation: keyframes4 0.597493s both;
         animation-delay: 2.631673s;
         animation-timing-function: linear;
       }
    @keyframes keyframes5 {
      from {
       stroke: blue;
       stroke-dashoffset: 358;
       stroke-width: 128;
       }
       54% {
       animation-timing-function: step-end;
       stroke: blue;
       stroke-dashoffset: 0;
       stroke-width: 128;
       }
       to {
       stroke: black;
       stroke-width: 1024;
       }
       }
       #make-me-a-hanzi-animation-5 {
         animation: keyframes5 0.541341s both;
         animation-delay: 3.229167s;
         animation-timing-function: linear;
       }
    @keyframes keyframes6 {
      from {
       stroke: blue;
       stroke-dashoffset: 389;
       stroke-width: 128;
       }
       56% {
       animation-timing-function: step-end;
       stroke: blue;
       stroke-dashoffset: 0;
       stroke-width: 128;
       }
       to {
       stroke: black;
       stroke-width: 1024;
       }
       }
       #make-me-a-hanzi-animation-6 {
         animation: keyframes6 0.566569s both;
         animation-delay: 3.770508s;
         animation-timing-function: linear;
       }
    @keyframes keyframes7 {
      from {
       stroke: blue;
       stroke-dashoffset: 439;
       stroke-width: 128;
       }
       59% {
       animation-timing-function: step-end;
       stroke: blue;
       stroke-dashoffset: 0;
       stroke-width: 128;
       }
       to {
       stroke: black;
       stroke-width: 1024;
       }
       }
       #make-me-a-hanzi-animation-7 {
         animation: keyframes7 0.607259s both;
         animation-delay: 4.337077s;
         animation-timing-function: linear;
       }
    @keyframes keyframes8 {
      from {
       stroke: blue;
       stroke-dashoffset: 354;
       stroke-width: 128;
       }
       54% {
       animation-timing-function: step-end;
       stroke: blue;
       stroke-dashoffset: 0;
       stroke-width: 128;
       }
       to {
       stroke: black;
       stroke-width: 1024;
       }
       }
       #make-me-a-hanzi-animation-8 {
         animation: keyframes8 0.538086s both;
         animation-delay: 4.944336s;
         animation-timing-function: linear;
       }
    @keyframes keyframes9 {
      from {
       stroke: blue;
       stroke-dashoffset: 571;
       stroke-width: 128;
       }
       65% {
       animation-timing-function: step-end;
       stroke: blue;
       stroke-dashoffset: 0;
       stroke-width: 128;
       }
       to {
       stroke: black;
       stroke-width: 1024;
       }
       }
       #make-me-a-hanzi-animation-9 {
         animation: keyframes9 0.714681s both;
         animation-delay: 5.482422s;
         animation-timing-function: linear;
       }
    @keyframes keyframes10 {
      from {
       stroke: blue;
       stroke-dashoffset: 563;
       stroke-width: 128;
       }
       65% {
       animation-timing-function: step-end;
       stroke: blue;
       stroke-dashoffset: 0;
       stroke-width: 128;
       }
       to {
       stroke: black;
       stroke-width: 1024;
       }
       }
       #make-me-a-hanzi-animation-10 {
         animation: keyframes10 0.708171s both;
         animation-delay: 6.197103s;
         animation-timing-function: linear;
       }
    @keyframes keyframes11 {
      from {
       stroke: blue;
       stroke-dashoffset: 303;
       stroke-width: 128;
       }
       50% {
       animation-timing-function: step-end;
       stroke: blue;
       stroke-dashoffset: 0;
       stroke-width: 128;
       }
       to {
       stroke: black;
       stroke-width: 1024;
       }
       }
       #make-me-a-hanzi-animation-11 {
         animation: keyframes11 0.496582s both;
         animation-delay: 6.905273s;
         animation-timing-function: linear;
       }
    @keyframes keyframes12 {
      from {
       stroke: blue;
       stroke-dashoffset: 468;
       stroke-width: 128;
       }
       60% {
       animation-timing-function: step-end;
       stroke: blue;
       stroke-dashoffset: 0;
       stroke-width: 128;
       }
       to {
       stroke: black;
       stroke-width: 1024;
       }
       }
       #make-me-a-hanzi-animation-12 {
         animation: keyframes12 0.630859s both;
         animation-delay: 7.401855s;
         animation-timing-function: linear;
       }
    @keyframes keyframes13 {
      from {
       stroke: blue;
       stroke-dashoffset: 424;
       stroke-width: 128;
       }
       58% {
       animation-timing-function: step-end;
       stroke: blue;
       stroke-dashoffset: 0;
       stroke-width: 128;
       }
       to {
       stroke: black;
       stroke-width: 1024;
       }
       }
       #make-me-a-hanzi-animation-13 {
         animation: keyframes13 0.595052s both;
         animation-delay: 8.032715s;
         animation-timing-function: linear;
       }
    @keyframes keyframes14 {
      from {
       stroke: blue;
       stroke-dashoffset: 431;
       stroke-width: 128;
       }
       58% {
       animation-timing-function: step-end;
       stroke: blue;
       stroke-dashoffset: 0;
       stroke-width: 128;
       }
       to {
       stroke: black;
       stroke-width: 1024;
       }
       }
       #make-me-a-hanzi-animation-14 {
         animation: keyframes14 0.600749s both;
         animation-delay: 8.627767s;
         animation-timing-function: linear;
       }
    @keyframes keyframes15 {
      from {
       stroke: blue;
       stroke-dashoffset: 468;
       stroke-width: 128;
       }
       60% {
       animation-timing-function: step-end;
       stroke: blue;
       stroke-dashoffset: 0;
       stroke-width: 128;
       }
       to {
       stroke: black;
       stroke-width: 1024;
       }
       }
       #make-me-a-hanzi-animation-15 {
         animation: keyframes15 0.630859s both;
         animation-delay: 9.228516s;
         animation-timing-function: linear;
       }
    @keyframes keyframes16 {
      from {
       stroke: blue;
       stroke-dashoffset: 524;
       stroke-width: 128;
       }
       63% {
       animation-timing-function: step-end;
       stroke: blue;
       stroke-dashoffset: 0;
       stroke-width: 128;
       }
       to {
       stroke: black;
       stroke-width: 1024;
       }
       }
       #make-me-a-hanzi-animation-16 {
         animation: keyframes16 0.676432s both;
         animation-delay: 9.859375s;
         animation-timing-function: linear;
       }
    @keyframes keyframes17 {
      from {
       stroke: blue;
       stroke-dashoffset: 573;
       stroke-width: 128;
       }
       65% {
       animation-timing-function: step-end;
       stroke: blue;
       stroke-dashoffset: 0;
       stroke-width: 128;
       }
       to {
       stroke: black;
       stroke-width: 1024;
       }
       }
       #make-me-a-hanzi-animation-17 {
         animation: keyframes17 0.716309s both;
         animation-delay: 10.535807s;
         animation-timing-function: linear;
       }
    @keyframes keyframes18 {
      from {
       stroke: blue;
       stroke-dashoffset: 388;
       stroke-width: 128;
       }
       56% {
       animation-timing-function: step-end;
       stroke: blue;
       stroke-dashoffset: 0;
       stroke-width: 128;
       }
       to {
       stroke: black;
       stroke-width: 1024;
       }
       }
       #make-me-a-hanzi-animation-18 {
         animation: keyframes18 0.565755s both;
         animation-delay: 11.252116s;
         animation-timing-function: linear;
       }
    @keyframes keyframes19 {
      from {
       stroke: blue;
       stroke-dashoffset: 615;
       stroke-width: 128;
       }
       67% {
       animation-timing-function: step-end;
       stroke: blue;
       stroke-dashoffset: 0;
       stroke-width: 128;
       }
       to {
       stroke: black;
       stroke-width: 1024;
       }
       }
       #make-me-a-hanzi-animation-19 {
         animation: keyframes19 0.750488s both;
         animation-delay: 11.817871s;
         animation-timing-function: linear;
       }
    @keyframes keyframes20 {
      from {
       stroke: blue;
       stroke-dashoffset: 816;
       stroke-width: 128;
       }
       73% {
       animation-timing-function: step-end;
       stroke: blue;
       stroke-dashoffset: 0;
       stroke-width: 128;
       }
       to {
       stroke: black;
       stroke-width: 1024;
       }
       }
       #make-me-a-hanzi-animation-20 {
         animation: keyframes20 0.914062s both;
         animation-delay: 12.568359s;
         animation-timing-function: linear;
       }
    @keyframes keyframes21 {
      from {
       stroke: blue;
       stroke-dashoffset: 807;
       stroke-width: 128;
       }
       72% {
       animation-timing-function: step-end;
       stroke: blue;
       stroke-dashoffset: 0;
       stroke-width: 128;
       }
       to {
       stroke: black;
       stroke-width: 1024;
       }
       }
       #make-me-a-hanzi-animation-21 {
         animation: keyframes21 0.906738s both;
         animation-delay: 13.482422s;
         animation-timing-function: linear;
       }
    @keyframes keyframes22 {
      from {
       stroke: blue;
       stroke-dashoffset: 475;
       stroke-width: 128;
       }
       61% {
       animation-timing-function: step-end;
       stroke: blue;
       stroke-dashoffset: 0;
       stroke-width: 128;
       }
       to {
       stroke: black;
       stroke-width: 1024;
       }
       }
       #make-me-a-hanzi-animation-22 {
         animation: keyframes22 0.636556s both;
         animation-delay: 14.389160s;
         animation-timing-function: linear;
       }
</style>
<path d="M 470.5 669.5 Q 528.5 676.5 580.5 682.5 Q 589.5 681.5 596.5 691.5 Q 597.5 700.5 579.5 709.5 Q 575.5 713.5 561.5 717.5 Q 546.5 723.5 483.5 707.5 L 435.5 696.5 Q 422.5 695.5 410.5 691.5 Q 370.5 684.5 333.5 677.5 L 292.5 670.5 Q 282.5 671.5 175.5 659.5 Q 153.5 658.5 169.5 642.5 Q 194.5 624.5 234.5 629.5 Q 265.5 635.5 301.5 641.5 L 337.5 647.5 Q 377.5 656.5 428.5 663.5 L 470.5 669.5 Z" fill="lightgray"></path> 
<path d="M 333.5 677.5 Q 329.5 705.5 326.5 728.5 Q 327.5 744.5 309.5 749.5 Q 276.5 764.5 257.5 756.5 Q 242.5 749.5 256.5 732.5 Q 281.5 705.5 292.5 670.5 L 301.5 641.5 Q 313.5 593.5 327.5 578.5 Q 339.5 569.5 342.5 579.5 Q 342.5 583.5 337.5 647.5 L 333.5 677.5 Z" fill="lightgray"></path> 
<path d="M 483.5 707.5 Q 492.5 740.5 513.5 779.5 Q 525.5 792.5 515.5 802.5 Q 503.5 817.5 472.5 830.5 Q 457.5 837.5 442.5 829.5 Q 432.5 823.5 440.5 814.5 Q 453.5 789.5 435.5 696.5 L 428.5 663.5 Q 415.5 618.5 417.5 598.5 Q 418.5 585.5 433.5 596.5 Q 439.5 602.5 470.5 669.5 L 483.5 707.5 Z" fill="lightgray"></path> 
<path d="M 234.5 523.5 Q 225.5 527.5 199.5 531.5 Q 190.5 534.5 187.5 529.5 Q 183.5 525.5 190.5 512.5 Q 208.5 481.5 221.5 430.5 Q 224.5 414.5 234.5 405.5 Q 249.5 389.5 252.5 400.5 Q 255.5 407.5 254.5 419.5 L 251.5 443.5 Q 244.5 489.5 243.5 503.5 C 241.5 520.5 241.5 520.5 234.5 523.5 Z" fill="lightgray"></path> 
<path d="M 350.5 454.5 Q 359.5 494.5 370.5 507.5 Q 385.5 526.5 369.5 535.5 Q 356.5 542.5 336.5 553.5 Q 327.5 559.5 287.5 539.5 Q 260.5 532.5 234.5 523.5 C 206.5 513.5 214.5 495.5 243.5 503.5 Q 252.5 506.5 298.5 516.5 Q 311.5 520.5 315.5 514.5 Q 319.5 511.5 318.5 493.5 Q 317.5 478.5 314.5 461.5 C 309.5 431.5 343.5 425.5 350.5 454.5 Z" fill="lightgray"></path> 
<path d="M 254.5 419.5 Q 260.5 418.5 270.5 420.5 Q 297.5 427.5 355.5 434.5 Q 362.5 435.5 364.5 441.5 Q 364.5 445.5 350.5 454.5 L 314.5 461.5 Q 310.5 461.5 306.5 459.5 Q 275.5 449.5 251.5 443.5 C 222.5 436.5 224.5 422.5 254.5 419.5 Z" fill="lightgray"></path> 
<path d="M 424.5 564.5 Q 417.5 568.5 398.5 571.5 Q 389.5 574.5 387.5 570.5 Q 383.5 566.5 388.5 555.5 Q 404.5 522.5 416.5 467.5 Q 417.5 451.5 428.5 440.5 Q 440.5 425.5 443.5 436.5 Q 446.5 443.5 446.5 458.5 L 443.5 482.5 Q 436.5 527.5 435.5 543.5 C 434.5 560.5 434.5 560.5 424.5 564.5 Z" fill="lightgray"></path> 
<path d="M 545.5 488.5 Q 555.5 531.5 570.5 543.5 Q 586.5 562.5 570.5 572.5 Q 555.5 581.5 535.5 594.5 Q 526.5 600.5 471.5 576.5 Q 450.5 570.5 424.5 564.5 C 395.5 557.5 407.5 532.5 435.5 543.5 Q 438.5 546.5 493.5 556.5 Q 509.5 559.5 513.5 553.5 Q 516.5 550.5 508.5 499.5 C 503.5 469.5 538.5 459.5 545.5 488.5 Z" fill="lightgray"></path> 
<path d="M 446.5 458.5 Q 452.5 457.5 461.5 459.5 Q 488.5 465.5 547.5 470.5 Q 554.5 471.5 555.5 477.5 Q 555.5 481.5 545.5 488.5 C 528.5 500.5 528.5 500.5 508.5 499.5 Q 502.5 499.5 498.5 497.5 Q 467.5 488.5 443.5 482.5 C 414.5 475.5 416.5 461.5 446.5 458.5 Z" fill="lightgray"></path> 
<path d="M 263.5 278.5 Q 278.5 305.5 312.5 351.5 Q 319.5 361.5 316.5 369.5 Q 312.5 379.5 291.5 382.5 Q 269.5 386.5 259.5 383.5 Q 253.5 382.5 252.5 370.5 Q 248.5 295.5 93.5 134.5 Q 78.5 121.5 99.5 126.5 Q 145.5 138.5 206.5 208.5 Q 222.5 227.5 239.5 246.5 L 263.5 278.5 Z" fill="lightgray"></path> 
<path d="M 286.5 100.5 Q 286.5 196.5 290.5 220.5 Q 296.5 244.5 263.5 278.5 C 243.5 300.5 229.5 274.5 239.5 246.5 Q 260.5 195.5 236.5 50.5 Q 217.5 5.5 249.5 -41.5 Q 250.5 -42.5 253.5 -45.5 Q 266.5 -58.5 276.5 -37.5 Q 285.5 -10.5 286.5 91.5 L 286.5 100.5 Z" fill="lightgray"></path> 
<path d="M 381.5 413.5 Q 408.5 377.5 426.5 377.5 Q 435.5 377.5 439.5 390.5 Q 439.5 399.5 432.5 412.5 Q 420.5 430.5 383.5 431.5 Q 377.5 432.5 377.5 424.5 Q 376.5 418.5 381.5 413.5 Z" fill="lightgray"></path> 
<path d="M 433.5 333.5 Q 469.5 342.5 509.5 348.5 Q 537.5 354.5 542.5 358.5 Q 548.5 362.5 545.5 369.5 Q 541.5 376.5 522.5 381.5 Q 503.5 385.5 483.5 378.5 Q 452.5 368.5 416.5 359.5 Q 377.5 352.5 332.5 348.5 Q 308.5 344.5 325.5 333.5 Q 352.5 318.5 387.5 325.5 Q 388.5 326.5 394.5 326.5 L 433.5 333.5 Z" fill="lightgray"></path> 
<path d="M 445.5 254.5 Q 479.5 263.5 512.5 268.5 Q 531.5 271.5 524.5 282.5 Q 515.5 294.5 494.5 297.5 Q 475.5 298.5 446.5 290.5 L 402.5 277.5 Q 371.5 267.5 341.5 258.5 Q 328.5 255.5 344.5 243.5 Q 353.5 237.5 370.5 241.5 Q 385.5 245.5 402.5 247.5 L 445.5 254.5 Z" fill="lightgray"></path> 
<path d="M 442.5 182.5 Q 481.5 188.5 515.5 192.5 Q 534.5 195.5 528.5 206.5 Q 519.5 218.5 498.5 222.5 Q 479.5 225.5 444.5 217.5 Q 443.5 217.5 443.5 216.5 C 432.5 212.5 432.5 212.5 403.5 206.5 Q 369.5 199.5 337.5 190.5 Q 324.5 187.5 340.5 175.5 Q 349.5 168.5 366.5 171.5 Q 385.5 174.5 403.5 176.5 L 442.5 182.5 Z" fill="lightgray"></path> 
<path d="M 441.5 124.5 Q 441.5 155.5 442.5 182.5 L 443.5 216.5 Q 443.5 235.5 445.5 254.5 L 446.5 290.5 Q 450.5 317.5 445.5 324.5 Q 439.5 330.5 433.5 333.5 C 408.5 349.5 386.5 355.5 394.5 326.5 Q 397.5 320.5 402.5 277.5 L 402.5 247.5 Q 402.5 231.5 403.5 206.5 L 403.5 176.5 Q 403.5 151.5 405.5 118.5 C 407.5 88.5 441.5 94.5 441.5 124.5 Z" fill="lightgray"></path> 
<path d="M 405.5 118.5 Q 347.5 109.5 296.5 104.5 Q 289.5 104.5 286.5 100.5 C 281.5 97.5 281.5 97.5 286.5 91.5 Q 286.5 90.5 289.5 87.5 Q 295.5 80.5 303.5 76.5 Q 312.5 73.5 323.5 76.5 Q 396.5 91.5 556.5 102.5 Q 565.5 103.5 566.5 110.5 Q 567.5 117.5 541.5 135.5 Q 525.5 145.5 441.5 124.5 L 405.5 118.5 Z" fill="lightgray"></path> 
<path d="M 724.5 626.5 Q 925.5 668.5 930.5 673.5 Q 939.5 680.5 934.5 688.5 Q 927.5 700.5 899.5 707.5 Q 875.5 711.5 769.5 681.5 Q 673.5 660.5 620.5 656.5 Q 586.5 650.5 610.5 634.5 Q 640.5 616.5 690.5 619.5 L 724.5 626.5 Z" fill="lightgray"></path> 
<path d="M 686.5 507.5 Q 735.5 570.5 745.5 578.5 Q 758.5 588.5 751.5 597.5 Q 744.5 610.5 724.5 626.5 C 701.5 645.5 688.5 649.5 690.5 619.5 Q 693.5 598.5 673.5 533.5 Q 666.5 517.5 664.5 506.5 Q 663.5 505.5 664.5 502.5 C 663.5 478.5 668.5 483.5 686.5 507.5 Z" fill="lightgray"></path> 
<path d="M 635.5 498.5 Q 617.5 510.5 608.5 514.5 Q 599.5 518.5 590.5 514.5 Q 583.5 510.5 588.5 500.5 Q 589.5 493.5 593.5 486.5 Q 611.5 450.5 598.5 277.5 Q 576.5 190.5 607.5 153.5 Q 616.5 141.5 624.5 152.5 Q 639.5 168.5 639.5 236.5 Q 645.5 447.5 646.5 461.5 Q 647.5 468.5 647.5 473.5 C 648.5 489.5 648.5 489.5 635.5 498.5 Z" fill="lightgray"></path> 
<path d="M 820.5 224.5 Q 813.5 202.5 826.5 181.5 Q 839.5 153.5 849.5 154.5 Q 862.5 155.5 877.5 187.5 Q 890.5 212.5 890.5 232.5 Q 860.5 430.5 893.5 485.5 Q 902.5 506.5 897.5 513.5 Q 872.5 534.5 827.5 551.5 Q 814.5 555.5 792.5 547.5 Q 758.5 528.5 712.5 514.5 Q 697.5 511.5 686.5 507.5 L 664.5 502.5 Q 648.5 501.5 635.5 498.5 C 605.5 493.5 617.5 468.5 647.5 473.5 Q 654.5 473.5 662.5 475.5 Q 797.5 511.5 808.5 506.5 Q 818.5 485.5 823.5 428.5 Q 827.5 257.5 820.5 224.5 Z" fill="lightgray"></path> 
<path d="M 711.5 345.5 Q 711.5 125.5 651.5 53.5 Q 638.5 40.5 623.5 26.5 Q 595.5 2.5 533.5 -28.5 Q 523.5 -32.5 521.5 -34.5 Q 517.5 -38.5 529.5 -41.5 Q 565.5 -45.5 646.5 0.5 Q 740.5 60.5 750.5 266.5 Q 754.5 336.5 765.5 368.5 Q 769.5 377.5 763.5 383.5 Q 748.5 396.5 721.5 407.5 Q 705.5 414.5 692.5 409.5 Q 677.5 403.5 689.5 390.5 Q 711.5 368.5 711.5 345.5 Z" fill="lightgray"></path> 
<path d="M 771.5 93.5 Q 823.5 41.5 886.5 -35.5 Q 901.5 -56.5 916.5 -60.5 Q 923.5 -61.5 932.5 -53.5 Q 945.5 -40.5 935.5 3.5 Q 923.5 61.5 785.5 118.5 Q 778.5 121.5 773.5 123.5 Q 764.5 129.5 762.5 117.5 Q 761.5 104.5 771.5 93.5 Z" fill="lightgray"></path> 
      <clipPath id="make-me-a-hanzi-clip-0">
      <path d="M 470.5 669.5 Q 528.5 676.5 580.5 682.5 Q 589.5 681.5 596.5 691.5 Q 597.5 700.5 579.5 709.5 Q 575.5 713.5 561.5 717.5 Q 546.5 723.5 483.5 707.5 L 435.5 696.5 Q 422.5 695.5 410.5 691.5 Q 370.5 684.5 333.5 677.5 L 292.5 670.5 Q 282.5 671.5 175.5 659.5 Q 153.5 658.5 169.5 642.5 Q 194.5 624.5 234.5 629.5 Q 265.5 635.5 301.5 641.5 L 337.5 647.5 Q 377.5 656.5 428.5 663.5 L 470.5 669.5 Z" fill="lightgray"></path>
      </clipPath>
      <path clip-path="url(#make-me-a-hanzi-clip-0)" d="M 171.5 651.5 L 225.5 646.5 L 520.5 696.5 L 548.5 699.5 L 587.5 693.5 " fill="none" id="make-me-a-hanzi-animation-0" stroke-dasharray="549 1098" stroke-linecap="round"></path>

      <clipPath id="make-me-a-hanzi-clip-1">
      <path d="M 333.5 677.5 Q 329.5 705.5 326.5 728.5 Q 327.5 744.5 309.5 749.5 Q 276.5 764.5 257.5 756.5 Q 242.5 749.5 256.5 732.5 Q 281.5 705.5 292.5 670.5 L 301.5 641.5 Q 313.5 593.5 327.5 578.5 Q 339.5 569.5 342.5 579.5 Q 342.5 583.5 337.5 647.5 L 333.5 677.5 Z" fill="lightgray"></path>
      </clipPath>
      <path clip-path="url(#make-me-a-hanzi-clip-1)" d="M 262.5 744.5 L 298.5 723.5 L 334.5 581.5 " fill="none" id="make-me-a-hanzi-animation-1" stroke-dasharray="316 632" stroke-linecap="round"></path>

      <clipPath id="make-me-a-hanzi-clip-2">
      <path d="M 483.5 707.5 Q 492.5 740.5 513.5 779.5 Q 525.5 792.5 515.5 802.5 Q 503.5 817.5 472.5 830.5 Q 457.5 837.5 442.5 829.5 Q 432.5 823.5 440.5 814.5 Q 453.5 789.5 435.5 696.5 L 428.5 663.5 Q 415.5 618.5 417.5 598.5 Q 418.5 585.5 433.5 596.5 Q 439.5 602.5 470.5 669.5 L 483.5 707.5 Z" fill="lightgray"></path>
      </clipPath>
      <path clip-path="url(#make-me-a-hanzi-clip-2)" d="M 453.5 820.5 L 480.5 786.5 L 425.5 598.5 " fill="none" id="make-me-a-hanzi-animation-2" stroke-dasharray="367 734" stroke-linecap="round"></path>

      <clipPath id="make-me-a-hanzi-clip-3">
      <path d="M 234.5 523.5 Q 225.5 527.5 199.5 531.5 Q 190.5 534.5 187.5 529.5 Q 183.5 525.5 190.5 512.5 Q 208.5 481.5 221.5 430.5 Q 224.5 414.5 234.5 405.5 Q 249.5 389.5 252.5 400.5 Q 255.5 407.5 254.5 419.5 L 251.5 443.5 Q 244.5 489.5 243.5 503.5 C 241.5 520.5 241.5 520.5 234.5 523.5 Z" fill="lightgray"></path>
      </clipPath>
      <path clip-path="url(#make-me-a-hanzi-clip-3)" d="M 194.5 524.5 L 222.5 496.5 L 244.5 405.5 " fill="none" id="make-me-a-hanzi-animation-3" stroke-dasharray="261 522" stroke-linecap="round"></path>

      <clipPath id="make-me-a-hanzi-clip-4">
      <path d="M 350.5 454.5 Q 359.5 494.5 370.5 507.5 Q 385.5 526.5 369.5 535.5 Q 356.5 542.5 336.5 553.5 Q 327.5 559.5 287.5 539.5 Q 260.5 532.5 234.5 523.5 C 206.5 513.5 214.5 495.5 243.5 503.5 Q 252.5 506.5 298.5 516.5 Q 311.5 520.5 315.5 514.5 Q 319.5 511.5 318.5 493.5 Q 317.5 478.5 314.5 461.5 C 309.5 431.5 343.5 425.5 350.5 454.5 Z" fill="lightgray"></path>
      </clipPath>
      <path clip-path="url(#make-me-a-hanzi-clip-4)" d="M 242.5 521.5 L 249.5 516.5 L 301.5 532.5 L 332.5 530.5 L 344.5 517.5 L 334.5 475.5 L 321.5 466.5 " fill="none" id="make-me-a-hanzi-animation-4" stroke-dasharray="299 598" stroke-linecap="round"></path>

      <clipPath id="make-me-a-hanzi-clip-5">
      <path d="M 254.5 419.5 Q 260.5 418.5 270.5 420.5 Q 297.5 427.5 355.5 434.5 Q 362.5 435.5 364.5 441.5 Q 364.5 445.5 350.5 454.5 L 314.5 461.5 Q 310.5 461.5 306.5 459.5 Q 275.5 449.5 251.5 443.5 C 222.5 436.5 224.5 422.5 254.5 419.5 Z" fill="lightgray"></path>
      </clipPath>
      <path clip-path="url(#make-me-a-hanzi-clip-5)" d="M 258.5 426.5 L 314.5 445.5 L 357.5 440.5 " fill="none" id="make-me-a-hanzi-animation-5" stroke-dasharray="230 460" stroke-linecap="round"></path>

      <clipPath id="make-me-a-hanzi-clip-6">
      <path d="M 424.5 564.5 Q 417.5 568.5 398.5 571.5 Q 389.5 574.5 387.5 570.5 Q 383.5 566.5 388.5 555.5 Q 404.5 522.5 416.5 467.5 Q 417.5 451.5 428.5 440.5 Q 440.5 425.5 443.5 436.5 Q 446.5 443.5 446.5 458.5 L 443.5 482.5 Q 436.5 527.5 435.5 543.5 C 434.5 560.5 434.5 560.5 424.5 564.5 Z" fill="lightgray"></path>
      </clipPath>
      <path clip-path="url(#make-me-a-hanzi-clip-6)" d="M 393.5 563.5 L 416.5 540.5 L 437.5 442.5 " fill="none" id="make-me-a-hanzi-animation-6" stroke-dasharray="261 522" stroke-linecap="round"></path>

      <clipPath id="make-me-a-hanzi-clip-7">
      <path d="M 545.5 488.5 Q 555.5 531.5 570.5 543.5 Q 586.5 562.5 570.5 572.5 Q 555.5 581.5 535.5 594.5 Q 526.5 600.5 471.5 576.5 Q 450.5 570.5 424.5 564.5 C 395.5 557.5 407.5 532.5 435.5 543.5 Q 438.5 546.5 493.5 556.5 Q 509.5 559.5 513.5 553.5 Q 516.5 550.5 508.5 499.5 C 503.5 469.5 538.5 459.5 545.5 488.5 Z" fill="lightgray"></path>
      </clipPath>
      <path clip-path="url(#make-me-a-hanzi-clip-7)" d="M 431.5 561.5 L 441.5 556.5 L 504.5 574.5 L 529.5 571.5 L 542.5 555.5 L 532.5 511.5 L 542.5 499.5 " fill="none" id="make-me-a-hanzi-animation-7" stroke-dasharray="311 622" stroke-linecap="round"></path>

      <clipPath id="make-me-a-hanzi-clip-8">
      <path d="M 446.5 458.5 Q 452.5 457.5 461.5 459.5 Q 488.5 465.5 547.5 470.5 Q 554.5 471.5 555.5 477.5 Q 555.5 481.5 545.5 488.5 C 528.5 500.5 528.5 500.5 508.5 499.5 Q 502.5 499.5 498.5 497.5 Q 467.5 488.5 443.5 482.5 C 414.5 475.5 416.5 461.5 446.5 458.5 Z" fill="lightgray"></path>
      </clipPath>
      <path clip-path="url(#make-me-a-hanzi-clip-8)" d="M 453.5 465.5 L 458.5 472.5 L 494.5 481.5 L 546.5 479.5 " fill="none" id="make-me-a-hanzi-animation-8" stroke-dasharray="226 452" stroke-linecap="round"></path>

      <clipPath id="make-me-a-hanzi-clip-9">
      <path d="M 263.5 278.5 Q 278.5 305.5 312.5 351.5 Q 319.5 361.5 316.5 369.5 Q 312.5 379.5 291.5 382.5 Q 269.5 386.5 259.5 383.5 Q 253.5 382.5 252.5 370.5 Q 248.5 295.5 93.5 134.5 Q 78.5 121.5 99.5 126.5 Q 145.5 138.5 206.5 208.5 Q 222.5 227.5 239.5 246.5 L 263.5 278.5 Z" fill="lightgray"></path>
      </clipPath>
      <path clip-path="url(#make-me-a-hanzi-clip-9)" d="M 303.5 364.5 L 279.5 355.5 L 243.5 285.5 L 187.5 212.5 L 152.5 173.5 L 121.5 146.5 L 104.5 141.5 L 102.5 134.5 " fill="none" id="make-me-a-hanzi-animation-9" stroke-dasharray="443 886" stroke-linecap="round"></path>

      <clipPath id="make-me-a-hanzi-clip-10">
      <path d="M 286.5 100.5 Q 286.5 196.5 290.5 220.5 Q 296.5 244.5 263.5 278.5 C 243.5 300.5 229.5 274.5 239.5 246.5 Q 260.5 195.5 236.5 50.5 Q 217.5 5.5 249.5 -41.5 Q 250.5 -42.5 253.5 -45.5 Q 266.5 -58.5 276.5 -37.5 Q 285.5 -10.5 286.5 91.5 L 286.5 100.5 Z" fill="lightgray"></path>
      </clipPath>
      <path clip-path="url(#make-me-a-hanzi-clip-10)" d="M 267.5 267.5 L 263.5 253.5 L 268.5 133.5 L 256.5 3.5 L 263.5 -37.5 " fill="none" id="make-me-a-hanzi-animation-10" stroke-dasharray="435 870" stroke-linecap="round"></path>

      <clipPath id="make-me-a-hanzi-clip-11">
      <path d="M 381.5 413.5 Q 408.5 377.5 426.5 377.5 Q 435.5 377.5 439.5 390.5 Q 439.5 399.5 432.5 412.5 Q 420.5 430.5 383.5 431.5 Q 377.5 432.5 377.5 424.5 Q 376.5 418.5 381.5 413.5 Z" fill="lightgray"></path>
      </clipPath>
      <path clip-path="url(#make-me-a-hanzi-clip-11)" d="M 387.5 421.5 L 424.5 392.5 " fill="none" id="make-me-a-hanzi-animation-11" stroke-dasharray="175 350" stroke-linecap="round"></path>

      <clipPath id="make-me-a-hanzi-clip-12">
      <path d="M 433.5 333.5 Q 469.5 342.5 509.5 348.5 Q 537.5 354.5 542.5 358.5 Q 548.5 362.5 545.5 369.5 Q 541.5 376.5 522.5 381.5 Q 503.5 385.5 483.5 378.5 Q 452.5 368.5 416.5 359.5 Q 377.5 352.5 332.5 348.5 Q 308.5 344.5 325.5 333.5 Q 352.5 318.5 387.5 325.5 Q 388.5 326.5 394.5 326.5 L 433.5 333.5 Z" fill="lightgray"></path>
      </clipPath>
      <path clip-path="url(#make-me-a-hanzi-clip-12)" d="M 327.5 341.5 L 377.5 337.5 L 494.5 364.5 L 536.5 366.5 " fill="none" id="make-me-a-hanzi-animation-12" stroke-dasharray="340 680" stroke-linecap="round"></path>

      <clipPath id="make-me-a-hanzi-clip-13">
      <path d="M 445.5 254.5 Q 479.5 263.5 512.5 268.5 Q 531.5 271.5 524.5 282.5 Q 515.5 294.5 494.5 297.5 Q 475.5 298.5 446.5 290.5 L 402.5 277.5 Q 371.5 267.5 341.5 258.5 Q 328.5 255.5 344.5 243.5 Q 353.5 237.5 370.5 241.5 Q 385.5 245.5 402.5 247.5 L 445.5 254.5 Z" fill="lightgray"></path>
      </clipPath>
      <path clip-path="url(#make-me-a-hanzi-clip-13)" d="M 351.5 252.5 L 480.5 280.5 L 516.5 277.5 " fill="none" id="make-me-a-hanzi-animation-13" stroke-dasharray="296 592" stroke-linecap="round"></path>

      <clipPath id="make-me-a-hanzi-clip-14">
      <path d="M 442.5 182.5 Q 481.5 188.5 515.5 192.5 Q 534.5 195.5 528.5 206.5 Q 519.5 218.5 498.5 222.5 Q 479.5 225.5 444.5 217.5 Q 443.5 217.5 443.5 216.5 C 432.5 212.5 432.5 212.5 403.5 206.5 Q 369.5 199.5 337.5 190.5 Q 324.5 187.5 340.5 175.5 Q 349.5 168.5 366.5 171.5 Q 385.5 174.5 403.5 176.5 L 442.5 182.5 Z" fill="lightgray"></path>
      </clipPath>
      <path clip-path="url(#make-me-a-hanzi-clip-14)" d="M 346.5 184.5 L 470.5 205.5 L 519.5 202.5 " fill="none" id="make-me-a-hanzi-animation-14" stroke-dasharray="303 606" stroke-linecap="round"></path>

      <clipPath id="make-me-a-hanzi-clip-15">
      <path d="M 441.5 124.5 Q 441.5 155.5 442.5 182.5 L 443.5 216.5 Q 443.5 235.5 445.5 254.5 L 446.5 290.5 Q 450.5 317.5 445.5 324.5 Q 439.5 330.5 433.5 333.5 C 408.5 349.5 386.5 355.5 394.5 326.5 Q 397.5 320.5 402.5 277.5 L 402.5 247.5 Q 402.5 231.5 403.5 206.5 L 403.5 176.5 Q 403.5 151.5 405.5 118.5 C 407.5 88.5 441.5 94.5 441.5 124.5 Z" fill="lightgray"></path>
      </clipPath>
      <path clip-path="url(#make-me-a-hanzi-clip-15)" d="M 401.5 325.5 L 424.5 300.5 L 423.5 147.5 L 410.5 126.5 " fill="none" id="make-me-a-hanzi-animation-15" stroke-dasharray="340 680" stroke-linecap="round"></path>

      <clipPath id="make-me-a-hanzi-clip-16">
      <path d="M 405.5 118.5 Q 347.5 109.5 296.5 104.5 Q 289.5 104.5 286.5 100.5 C 281.5 97.5 281.5 97.5 286.5 91.5 Q 286.5 90.5 289.5 87.5 Q 295.5 80.5 303.5 76.5 Q 312.5 73.5 323.5 76.5 Q 396.5 91.5 556.5 102.5 Q 565.5 103.5 566.5 110.5 Q 567.5 117.5 541.5 135.5 Q 525.5 145.5 441.5 124.5 L 405.5 118.5 Z" fill="lightgray"></path>
      </clipPath>
      <path clip-path="url(#make-me-a-hanzi-clip-16)" d="M 294.5 96.5 L 316.5 90.5 L 510.5 118.5 L 539.5 118.5 L 558.5 110.5 " fill="none" id="make-me-a-hanzi-animation-16" stroke-dasharray="396 792" stroke-linecap="round"></path>

      <clipPath id="make-me-a-hanzi-clip-17">
      <path d="M 724.5 626.5 Q 925.5 668.5 930.5 673.5 Q 939.5 680.5 934.5 688.5 Q 927.5 700.5 899.5 707.5 Q 875.5 711.5 769.5 681.5 Q 673.5 660.5 620.5 656.5 Q 586.5 650.5 610.5 634.5 Q 640.5 616.5 690.5 619.5 L 724.5 626.5 Z" fill="lightgray"></path>
      </clipPath>
      <path clip-path="url(#make-me-a-hanzi-clip-17)" d="M 613.5 646.5 L 643.5 640.5 L 691.5 642.5 L 859.5 680.5 L 894.5 686.5 L 924.5 683.5 " fill="none" id="make-me-a-hanzi-animation-17" stroke-dasharray="445 890" stroke-linecap="round"></path>

      <clipPath id="make-me-a-hanzi-clip-18">
      <path d="M 686.5 507.5 Q 735.5 570.5 745.5 578.5 Q 758.5 588.5 751.5 597.5 Q 744.5 610.5 724.5 626.5 C 701.5 645.5 688.5 649.5 690.5 619.5 Q 693.5 598.5 673.5 533.5 Q 666.5 517.5 664.5 506.5 Q 663.5 505.5 664.5 502.5 C 663.5 478.5 668.5 483.5 686.5 507.5 Z" fill="lightgray"></path>
      </clipPath>
      <path clip-path="url(#make-me-a-hanzi-clip-18)" d="M 697.5 615.5 L 716.5 597.5 L 716.5 589.5 L 686.5 523.5 L 669.5 504.5 " fill="none" id="make-me-a-hanzi-animation-18" stroke-dasharray="260 520" stroke-linecap="round"></path>

      <clipPath id="make-me-a-hanzi-clip-19">
      <path d="M 635.5 498.5 Q 617.5 510.5 608.5 514.5 Q 599.5 518.5 590.5 514.5 Q 583.5 510.5 588.5 500.5 Q 589.5 493.5 593.5 486.5 Q 611.5 450.5 598.5 277.5 Q 576.5 190.5 607.5 153.5 Q 616.5 141.5 624.5 152.5 Q 639.5 168.5 639.5 236.5 Q 645.5 447.5 646.5 461.5 Q 647.5 468.5 647.5 473.5 C 648.5 489.5 648.5 489.5 635.5 498.5 Z" fill="lightgray"></path>
      </clipPath>
      <path clip-path="url(#make-me-a-hanzi-clip-19)" d="M 597.5 506.5 L 616.5 486.5 L 623.5 469.5 L 623.5 324.5 L 613.5 211.5 L 616.5 156.5 " fill="none" id="make-me-a-hanzi-animation-19" stroke-dasharray="487 974" stroke-linecap="round"></path>

      <clipPath id="make-me-a-hanzi-clip-20">
      <path d="M 820.5 224.5 Q 813.5 202.5 826.5 181.5 Q 839.5 153.5 849.5 154.5 Q 862.5 155.5 877.5 187.5 Q 890.5 212.5 890.5 232.5 Q 860.5 430.5 893.5 485.5 Q 902.5 506.5 897.5 513.5 Q 872.5 534.5 827.5 551.5 Q 814.5 555.5 792.5 547.5 Q 758.5 528.5 712.5 514.5 Q 697.5 511.5 686.5 507.5 L 664.5 502.5 Q 648.5 501.5 635.5 498.5 C 605.5 493.5 617.5 468.5 647.5 473.5 Q 654.5 473.5 662.5 475.5 Q 797.5 511.5 808.5 506.5 Q 818.5 485.5 823.5 428.5 Q 827.5 257.5 820.5 224.5 Z" fill="lightgray"></path>
      </clipPath>
      <path clip-path="url(#make-me-a-hanzi-clip-20)" d="M 643.5 494.5 L 673.5 488.5 L 805.5 529.5 L 826.5 525.5 L 850.5 500.5 L 848.5 391.5 L 856.5 229.5 L 849.5 165.5 " fill="none" id="make-me-a-hanzi-animation-20" stroke-dasharray="688 1376" stroke-linecap="round"></path>

      <clipPath id="make-me-a-hanzi-clip-21">
      <path d="M 711.5 345.5 Q 711.5 125.5 651.5 53.5 Q 638.5 40.5 623.5 26.5 Q 595.5 2.5 533.5 -28.5 Q 523.5 -32.5 521.5 -34.5 Q 517.5 -38.5 529.5 -41.5 Q 565.5 -45.5 646.5 0.5 Q 740.5 60.5 750.5 266.5 Q 754.5 336.5 765.5 368.5 Q 769.5 377.5 763.5 383.5 Q 748.5 396.5 721.5 407.5 Q 705.5 414.5 692.5 409.5 Q 677.5 403.5 689.5 390.5 Q 711.5 368.5 711.5 345.5 Z" fill="lightgray"></path>
      </clipPath>
      <path clip-path="url(#make-me-a-hanzi-clip-21)" d="M 694.5 399.5 L 728.5 377.5 L 736.5 358.5 L 726.5 214.5 L 704.5 111.5 L 673.5 50.5 L 629.5 8.5 L 554.5 -30.5 L 528.5 -34.5 " fill="none" id="make-me-a-hanzi-animation-21" stroke-dasharray="679 1358" stroke-linecap="round"></path>

      <clipPath id="make-me-a-hanzi-clip-22">
      <path d="M 771.5 93.5 Q 823.5 41.5 886.5 -35.5 Q 901.5 -56.5 916.5 -60.5 Q 923.5 -61.5 932.5 -53.5 Q 945.5 -40.5 935.5 3.5 Q 923.5 61.5 785.5 118.5 Q 778.5 121.5 773.5 123.5 Q 764.5 129.5 762.5 117.5 Q 761.5 104.5 771.5 93.5 Z" fill="lightgray"></path>
      </clipPath>
      <path clip-path="url(#make-me-a-hanzi-clip-22)" d="M 772.5 112.5 L 876.5 30.5 L 902.5 -1.5 L 917.5 -44.5 " fill="none" id="make-me-a-hanzi-animation-22" stroke-dasharray="347 694" stroke-linecap="round"></path>

</g>
</svg>
