<svg version="1.1" viewBox="0 0 1024 1024" xmlns="http://www.w3.org/2000/svg">
  <g stroke="lightgray" stroke-dasharray="1,1" stroke-width="1" transform="scale(4, 4)">
    <line x1="0" y1="0" x2="256" y2="256"></line>
    <line x1="256" y1="0" x2="0" y2="256"></line>
    <line x1="128" y1="0" x2="128" y2="256"></line>
    <line x1="0" y1="128" x2="256" y2="128"></line>
  </g>
  <g transform="scale(0.92, -0.92) translate(60, -900)">
    <style type="text/css">
      
        @keyframes keyframes0 {
          from {
            stroke: blue;
            stroke-dashoffset: 504;
            stroke-width: 128;
          }
          62% {
            animation-timing-function: step-end;
            stroke: blue;
            stroke-dashoffset: 0;
            stroke-width: 128;
          }
          to {
            stroke: black;
            stroke-width: 1024;
          }
        }
        #make-me-a-hanzi-animation-0 {
          animation: keyframes0 0.66015625s both;
          animation-delay: 0s;
          animation-timing-function: linear;
        }
      
        @keyframes keyframes1 {
          from {
            stroke: blue;
            stroke-dashoffset: 659;
            stroke-width: 128;
          }
          68% {
            animation-timing-function: step-end;
            stroke: blue;
            stroke-dashoffset: 0;
            stroke-width: 128;
          }
          to {
            stroke: black;
            stroke-width: 1024;
          }
        }
        #make-me-a-hanzi-animation-1 {
          animation: keyframes1 0.7862955729166666s both;
          animation-delay: 0.66015625s;
          animation-timing-function: linear;
        }
      
        @keyframes keyframes2 {
          from {
            stroke: blue;
            stroke-dashoffset: 482;
            stroke-width: 128;
          }
          61% {
            animation-timing-function: step-end;
            stroke: blue;
            stroke-dashoffset: 0;
            stroke-width: 128;
          }
          to {
            stroke: black;
            stroke-width: 1024;
          }
        }
        #make-me-a-hanzi-animation-2 {
          animation: keyframes2 0.6422526041666666s both;
          animation-delay: 1.4464518229166665s;
          animation-timing-function: linear;
        }
      
        @keyframes keyframes3 {
          from {
            stroke: blue;
            stroke-dashoffset: 496;
            stroke-width: 128;
          }
          62% {
            animation-timing-function: step-end;
            stroke: blue;
            stroke-dashoffset: 0;
            stroke-width: 128;
          }
          to {
            stroke: black;
            stroke-width: 1024;
          }
        }
        #make-me-a-hanzi-animation-3 {
          animation: keyframes3 0.6536458333333334s both;
          animation-delay: 2.088704427083333s;
          animation-timing-function: linear;
        }
      
        @keyframes keyframes4 {
          from {
            stroke: blue;
            stroke-dashoffset: 569;
            stroke-width: 128;
          }
          65% {
            animation-timing-function: step-end;
            stroke: blue;
            stroke-dashoffset: 0;
            stroke-width: 128;
          }
          to {
            stroke: black;
            stroke-width: 1024;
          }
        }
        #make-me-a-hanzi-animation-4 {
          animation: keyframes4 0.7130533854166666s both;
          animation-delay: 2.7423502604166665s;
          animation-timing-function: linear;
        }
      
        @keyframes keyframes5 {
          from {
            stroke: blue;
            stroke-dashoffset: 957;
            stroke-width: 128;
          }
          76% {
            animation-timing-function: step-end;
            stroke: blue;
            stroke-dashoffset: 0;
            stroke-width: 128;
          }
          to {
            stroke: black;
            stroke-width: 1024;
          }
        }
        #make-me-a-hanzi-animation-5 {
          animation: keyframes5 1.02880859375s both;
          animation-delay: 3.455403645833333s;
          animation-timing-function: linear;
        }
      
        @keyframes keyframes6 {
          from {
            stroke: blue;
            stroke-dashoffset: 420;
            stroke-width: 128;
          }
          58% {
            animation-timing-function: step-end;
            stroke: blue;
            stroke-dashoffset: 0;
            stroke-width: 128;
          }
          to {
            stroke: black;
            stroke-width: 1024;
          }
        }
        #make-me-a-hanzi-animation-6 {
          animation: keyframes6 0.591796875s both;
          animation-delay: 4.484212239583333s;
          animation-timing-function: linear;
        }
      
        @keyframes keyframes7 {
          from {
            stroke: blue;
            stroke-dashoffset: 361;
            stroke-width: 128;
          }
          54% {
            animation-timing-function: step-end;
            stroke: blue;
            stroke-dashoffset: 0;
            stroke-width: 128;
          }
          to {
            stroke: black;
            stroke-width: 1024;
          }
        }
        #make-me-a-hanzi-animation-7 {
          animation: keyframes7 0.5437825520833334s both;
          animation-delay: 5.076009114583333s;
          animation-timing-function: linear;
        }
      
        @keyframes keyframes8 {
          from {
            stroke: blue;
            stroke-dashoffset: 355;
            stroke-width: 128;
          }
          54% {
            animation-timing-function: step-end;
            stroke: blue;
            stroke-dashoffset: 0;
            stroke-width: 128;
          }
          to {
            stroke: black;
            stroke-width: 1024;
          }
        }
        #make-me-a-hanzi-animation-8 {
          animation: keyframes8 0.5388997395833334s both;
          animation-delay: 5.619791666666666s;
          animation-timing-function: linear;
        }
      
        @keyframes keyframes9 {
          from {
            stroke: blue;
            stroke-dashoffset: 349;
            stroke-width: 128;
          }
          53% {
            animation-timing-function: step-end;
            stroke: blue;
            stroke-dashoffset: 0;
            stroke-width: 128;
          }
          to {
            stroke: black;
            stroke-width: 1024;
          }
        }
        #make-me-a-hanzi-animation-9 {
          animation: keyframes9 0.5340169270833334s both;
          animation-delay: 6.158691406249999s;
          animation-timing-function: linear;
        }
      
        @keyframes keyframes10 {
          from {
            stroke: blue;
            stroke-dashoffset: 430;
            stroke-width: 128;
          }
          58% {
            animation-timing-function: step-end;
            stroke: blue;
            stroke-dashoffset: 0;
            stroke-width: 128;
          }
          to {
            stroke: black;
            stroke-width: 1024;
          }
        }
        #make-me-a-hanzi-animation-10 {
          animation: keyframes10 0.5999348958333334s both;
          animation-delay: 6.692708333333332s;
          animation-timing-function: linear;
        }
      
        @keyframes keyframes11 {
          from {
            stroke: blue;
            stroke-dashoffset: 612;
            stroke-width: 128;
          }
          67% {
            animation-timing-function: step-end;
            stroke: blue;
            stroke-dashoffset: 0;
            stroke-width: 128;
          }
          to {
            stroke: black;
            stroke-width: 1024;
          }
        }
        #make-me-a-hanzi-animation-11 {
          animation: keyframes11 0.748046875s both;
          animation-delay: 7.292643229166665s;
          animation-timing-function: linear;
        }
      
        @keyframes keyframes12 {
          from {
            stroke: blue;
            stroke-dashoffset: 386;
            stroke-width: 128;
          }
          56% {
            animation-timing-function: step-end;
            stroke: blue;
            stroke-dashoffset: 0;
            stroke-width: 128;
          }
          to {
            stroke: black;
            stroke-width: 1024;
          }
        }
        #make-me-a-hanzi-animation-12 {
          animation: keyframes12 0.5641276041666666s both;
          animation-delay: 8.040690104166664s;
          animation-timing-function: linear;
        }
      
        @keyframes keyframes13 {
          from {
            stroke: blue;
            stroke-dashoffset: 866;
            stroke-width: 128;
          }
          74% {
            animation-timing-function: step-end;
            stroke: blue;
            stroke-dashoffset: 0;
            stroke-width: 128;
          }
          to {
            stroke: black;
            stroke-width: 1024;
          }
        }
        #make-me-a-hanzi-animation-13 {
          animation: keyframes13 0.9547526041666666s both;
          animation-delay: 8.60481770833333s;
          animation-timing-function: linear;
        }
      
        @keyframes keyframes14 {
          from {
            stroke: blue;
            stroke-dashoffset: 560;
            stroke-width: 128;
          }
          65% {
            animation-timing-function: step-end;
            stroke: blue;
            stroke-dashoffset: 0;
            stroke-width: 128;
          }
          to {
            stroke: black;
            stroke-width: 1024;
          }
        }
        #make-me-a-hanzi-animation-14 {
          animation: keyframes14 0.7057291666666666s both;
          animation-delay: 9.559570312499996s;
          animation-timing-function: linear;
        }
      
        @keyframes keyframes15 {
          from {
            stroke: blue;
            stroke-dashoffset: 564;
            stroke-width: 128;
          }
          65% {
            animation-timing-function: step-end;
            stroke: blue;
            stroke-dashoffset: 0;
            stroke-width: 128;
          }
          to {
            stroke: black;
            stroke-width: 1024;
          }
        }
        #make-me-a-hanzi-animation-15 {
          animation: keyframes15 0.708984375s both;
          animation-delay: 10.265299479166663s;
          animation-timing-function: linear;
        }
      
        @keyframes keyframes16 {
          from {
            stroke: blue;
            stroke-dashoffset: 933;
            stroke-width: 128;
          }
          75% {
            animation-timing-function: step-end;
            stroke: blue;
            stroke-dashoffset: 0;
            stroke-width: 128;
          }
          to {
            stroke: black;
            stroke-width: 1024;
          }
        }
        #make-me-a-hanzi-animation-16 {
          animation: keyframes16 1.00927734375s both;
          animation-delay: 10.974283854166663s;
          animation-timing-function: linear;
        }
      
        @keyframes keyframes17 {
          from {
            stroke: blue;
            stroke-dashoffset: 547;
            stroke-width: 128;
          }
          64% {
            animation-timing-function: step-end;
            stroke: blue;
            stroke-dashoffset: 0;
            stroke-width: 128;
          }
          to {
            stroke: black;
            stroke-width: 1024;
          }
        }
        #make-me-a-hanzi-animation-17 {
          animation: keyframes17 0.6951497395833334s both;
          animation-delay: 11.983561197916663s;
          animation-timing-function: linear;
        }
      
        @keyframes keyframes18 {
          from {
            stroke: blue;
            stroke-dashoffset: 471;
            stroke-width: 128;
          }
          61% {
            animation-timing-function: step-end;
            stroke: blue;
            stroke-dashoffset: 0;
            stroke-width: 128;
          }
          to {
            stroke: black;
            stroke-width: 1024;
          }
        }
        #make-me-a-hanzi-animation-18 {
          animation: keyframes18 0.63330078125s both;
          animation-delay: 12.678710937499996s;
          animation-timing-function: linear;
        }
      
        @keyframes keyframes19 {
          from {
            stroke: blue;
            stroke-dashoffset: 526;
            stroke-width: 128;
          }
          63% {
            animation-timing-function: step-end;
            stroke: blue;
            stroke-dashoffset: 0;
            stroke-width: 128;
          }
          to {
            stroke: black;
            stroke-width: 1024;
          }
        }
        #make-me-a-hanzi-animation-19 {
          animation: keyframes19 0.6780598958333334s both;
          animation-delay: 13.312011718749996s;
          animation-timing-function: linear;
        }
      
    </style>
    
      <path d="M 327 590 L 351 595 Q 352 595 367 597 L 405 602 L 424 605 Q 442 607 452 614 Q 461 620 461 625 Q 461 630 455 634 Q 451 638 437 643 L 421 648 Q 411 650 403 650 Q 399 649 383 644 Q 366 639 341 634 L 287 623 Q 279 622 253 618 Q 225 614 200 611 C 170 607 171 580 201 581 L 229 582 L 254 582 Q 263 583 271 584 L 327 590 Z" fill="lightgray"></path>
    
      <path d="M 200 611 L 161 619 L 143 623 L 139 623 Q 132 623 129 620 Q 127 617 127 613 L 127 610 Q 129 604 135 594 Q 141 584 145 573 Q 148 562 150 542 Q 153 522 153 506 L 149 377 Q 147 353 146 340 Q 145 328 141 309 Q 138 291 133 282 Q 127 274 127 273 L 127 270 Q 127 263 134 247 Q 143 228 147 221 Q 151 214 159 214 L 161 214 Q 166 214 175 220 C 200 232 197 247 191 276 Q 188 278 188 284 Q 188 287 189 291 L 190 310 L 193 360 L 195 388 L 197 463 L 197 486 L 201 581 C 202 611 202 611 200 611 Z" fill="lightgray"></path>
    
      <path d="M 339 472 L 417 487 Q 425 488 432 492 Q 439 494 440 500 Q 440 506 430 512 Q 420 518 405 521 Q 391 524 380 524 Q 369 524 357 520 L 339 514 L 283 500 L 243 493 Q 235 491 197 486 C 167 482 169 474 197 463 L 210 458 Q 217 455 228 455 L 233 455 Q 247 455 269 458 L 285 462 L 339 472 Z" fill="lightgray"></path>
    
      <path d="M 335 370 L 415 384 Q 433 387 438 390 Q 443 392 443 396 Q 443 400 439 405 Q 435 409 419 414 Q 404 419 396 420 Q 390 421 384 421 L 379 421 Q 370 420 350 415 L 337 412 L 285 400 L 281 399 L 245 394 Q 231 391 219 390 Q 207 388 195 388 C 165 387 164 367 193 360 L 210 356 Q 221 353 225 353 L 227 353 Q 234 353 253 356 L 285 362 L 335 370 Z" fill="lightgray"></path>
    
      <path d="M 339 514 L 341 543 Q 341 544 344 554 Q 347 562 347 568 Q 347 572 344 578 Q 340 584 327 590 C 301 604 258 611 271 584 L 275 576 L 280 566 L 283 548 Q 285 537 285 529 L 283 500 L 285 462 L 285 400 L 285 362 L 286 286 C 286 256 332 262 333 292 L 335 370 L 337 412 L 339 472 L 339 514 Z" fill="lightgray"></path>
    
      <path d="M 175 220 Q 186 226 192 230 Q 197 232 222 238 L 259 247 Q 273 250 295 253 L 359 260 Q 368 261 374 261 Q 385 261 389 258 Q 395 253 397 244 Q 400 236 400 222 Q 400 215 399 207 L 392 108 Q 389 67 382 41 Q 376 14 365 2 Q 355 -12 345 -14 L 342 -14 Q 336 -14 325 -12 Q 313 -9 297 -4 L 281 2 Q 277 3 274 3 Q 269 3 268 1 L 268 0 Q 268 -4 272 -9 L 283 -22 L 295 -34 Q 297 -36 319 -66 L 333 -84 Q 345 -100 353 -101 L 355 -101 Q 360 -101 369 -95 Q 379 -88 391 -75 Q 403 -62 411 -48 Q 419 -33 425 -10 Q 431 12 435 37 Q 440 62 445 120 Q 450 178 453 198 Q 457 218 460 226 Q 463 234 469 242 Q 475 250 475 253 L 475 256 Q 475 263 467 270 Q 457 280 446 287 Q 435 294 422 299 Q 409 305 401 305 Q 398 304 389 302 L 365 297 Q 352 295 337 292 L 333 292 L 286 286 L 237 279 L 209 277 Q 199 275 195 275 Q 192 275 191 276 C 161 274 149 205 175 220 Z" fill="lightgray"></path>
    
      <path d="M 92 173 Q 89 178 86 178 L 85 178 Q 80 178 79 170 L 76 154 Q 73 142 68 126 Q 62 110 55 93 Q 47 76 45 70 Q 43 58 43 41 Q 43 24 48 14 Q 53 4 59 2 L 62 2 Q 68 2 77 6 Q 88 13 95 35 Q 103 58 105 76 Q 106 87 106 97 L 106 108 Q 105 124 103 138 Q 101 153 97 162 L 92 173 Z" fill="lightgray"></path>
    
      <path d="M 136 147 Q 137 144 147 125 L 164 88 Q 168 78 173 71 Q 179 63 186 62 Q 193 62 200 68 Q 207 74 208 86 Q 209 92 209 97 Q 209 102 208 106 Q 207 114 205 122 Q 202 130 195 138 Q 187 146 176 153 Q 165 160 161 162 L 143 168 Q 138 170 135 170 Q 132 170 131 168 Q 130 167 130 165 Q 130 163 131 160 L 136 147 Z" fill="lightgray"></path>
    
      <path d="M 223 162 L 234 142 L 253 110 Q 259 100 265 95 Q 273 88 279 88 Q 281 88 283 89 Q 290 92 294 100 Q 297 108 297 120 Q 296 132 291 144 Q 287 156 275 163 Q 264 170 254 174 Q 245 178 240 180 L 227 185 Q 221 186 218 186 Q 215 184 214 181 L 214 179 Q 214 176 217 172 L 223 162 Z" fill="lightgray"></path>
    
      <path d="M 301 186 Q 304 181 311 168 Q 319 156 326 144 Q 333 133 341 127 Q 350 121 355 121 L 357 121 Q 364 122 370 130 Q 375 139 375 152 Q 375 164 368 173 Q 361 182 351 188 Q 342 194 333 197 Q 324 200 317 202 L 304 206 Q 301 207 298 207 Q 296 207 295 206 Q 291 206 291 203 L 291 202 Q 291 199 294 196 L 301 186 Z" fill="lightgray"></path>
    
      <path d="M 564 538 L 574 543 L 586 549 Q 604 558 623 569 L 669 598 Q 685 607 696 610 Q 707 614 709 616 Q 712 620 712 625 Q 712 628 711 631 Q 709 640 700 650 L 679 670 Q 667 680 657 683 L 652 683 Q 648 683 647 682 Q 643 680 641 669 Q 638 658 631 646 Q 624 633 609 614 Q 595 596 585 585 L 565 564 L 554 552 C 534 530 537 525 564 538 Z" fill="lightgray"></path>
    
      <path d="M 554 552 L 547 556 L 528 564 L 515 568 Q 508 571 503 571 Q 498 571 495 568 Q 489 562 489 557 L 489 555 Q 491 550 495 544 Q 499 538 501 528 Q 503 518 504 503 Q 505 488 505 476 L 503 413 Q 501 386 501 375 Q 501 364 499 352 Q 497 340 494 332 Q 491 324 491 322 Q 490 319 490 316 Q 490 313 491 310 Q 493 304 501 290 Q 509 277 510 277 Q 518 265 523 265 Q 529 266 538 277 L 556 300 Q 565 312 575 321 L 633 378 C 654 399 646 414 621 398 L 563 362 Q 554 357 551 357 L 549 357 Q 547 359 547 370 L 551 465 Q 552 490 554 502 Q 557 514 559 521 Q 561 529 564 538 C 566 546 566 546 554 552 Z" fill="lightgray"></path>
    
      <path d="M 633 378 L 645 358 Q 648 352 655 346 Q 663 338 669 338 L 671 338 Q 677 340 681 346 Q 685 351 686 360 Q 687 365 687 371 Q 687 377 686 384 Q 685 398 679 410 Q 673 420 662 430 Q 651 440 639 447 Q 627 453 621 455 L 607 458 Q 602 460 599 460 Q 596 460 594 458 Q 593 456 593 454 Q 593 451 595 448 L 621 398 L 633 378 Z" fill="lightgray"></path>
    
      <path d="M 792 529 L 803 531 L 821 535 L 851 540 Q 872 545 883 545 L 886 545 Q 899 544 904 538 Q 906 536 906 529 Q 906 523 904 513 L 897 465 Q 893 442 884 414 Q 875 386 864 368 Q 853 350 839 349 L 836 349 Q 831 349 822 352 L 799 362 L 789 366 Q 786 367 784 367 Q 781 367 779 366 Q 777 365 777 363 Q 777 361 780 358 L 789 344 L 807 322 Q 811 316 817 305 L 827 288 Q 831 279 835 277 Q 838 275 841 275 Q 849 275 863 283 Q 883 295 897 312 Q 911 330 919 348 Q 927 367 934 396 Q 941 424 947 452 Q 955 480 959 496 Q 963 512 971 522 Q 980 532 981 535 Q 981 542 974 552 Q 967 562 955 570 Q 943 578 929 586 Q 915 592 907 592 Q 902 592 889 586 Q 877 580 847 573 L 806 562 Q 795 560 758 555 Q 721 550 711 549 L 679 546 Q 668 544 666 540 Q 665 539 665 538 Q 665 534 674 526 Q 685 516 697 512 Q 709 506 715 506 Q 719 506 727 508 Q 733 510 747 516 L 759 522 L 792 529 Z" fill="lightgray"></path>
    
      <path d="M 759 522 L 758 502 Q 757 492 749 460 Q 739 430 728 402 Q 716 374 700 347 Q 683 319 673 304 Q 661 289 653 281 L 645 273 Q 643 271 643 268 Q 643 266 645 263 Q 647 260 650 260 Q 651 260 653 262 L 668 270 Q 679 278 698 293 Q 716 308 735 332 Q 755 356 771 389 Q 788 422 797 445 L 808 473 Q 810 478 816 485 Q 823 492 823 494 Q 824 496 824 497 Q 824 502 819 507 Q 813 514 807 518 Q 801 522 792 529 C 768 547 760 552 759 522 Z" fill="lightgray"></path>
    
      <path d="M 552 213 L 513 224 Q 501 227 495 227 Q 490 226 487 221 Q 484 218 484 214 Q 484 213 485 211 Q 487 207 492 200 Q 497 194 505 169 Q 513 144 515 133 L 534 -39 Q 537 -68 545 -77 Q 552 -83 558 -83 L 561 -83 Q 567 -82 570 -70 L 575 -54 L 575 -14 L 573 62 L 569 97 L 561 176 C 558 206 557 211 552 213 Z" fill="lightgray"></path>
    
      <path d="M 795 -36 L 803 -58 Q 809 -72 818 -90 Q 827 -108 835 -110 L 837 -110 Q 843 -110 857 -101 Q 873 -90 884 -79 Q 895 -67 905 -42 Q 915 -16 919 17 L 927 94 L 931 140 Q 933 160 936 169 Q 940 177 948 187 Q 956 197 956 202 L 956 203 Q 956 208 948 217 Q 939 226 923 236 Q 907 245 889 252 Q 875 258 863 258 L 858 258 Q 854 258 838 252 Q 821 246 798 243 Q 774 239 749 236 L 679 230 L 552 213 C 522 209 533 166 561 176 L 584 184 Q 603 190 661 196 L 721 204 L 817 211 L 829 211 Q 840 211 847 210 Q 857 208 860 202 Q 863 196 865 185 L 867 166 L 867 122 L 863 94 L 863 71 Q 862 57 858 39 Q 855 21 849 0 C 842 -29 785 -8 795 -36 Z" fill="lightgray"></path>
    
      <path d="M 867 122 L 849 128 Q 838 131 825 134 Q 816 135 809 135 L 803 135 Q 797 134 781 129 Q 764 124 731 118 L 677 111 L 569 97 C 539 93 543 64 573 62 L 587 61 L 593 61 Q 600 61 614 62 L 676 68 L 729 75 L 863 94 C 893 98 895 113 867 122 Z" fill="lightgray"></path>
    
      <path d="M 731 118 L 733 135 L 734 157 L 740 180 Q 739 186 734 191 L 721 204 C 700 225 650 224 661 196 L 670 174 Q 671 172 674 154 Q 677 136 677 128 L 677 111 L 676 68 L 676 -2 C 676 -32 723 -30 725 0 L 729 75 L 731 118 Z" fill="lightgray"></path>
    
      <path d="M 575 -54 L 795 -36 C 825 -34 877 -10 849 0 L 829 7 Q 812 12 808 12 Q 804 12 787 10 L 725 0 L 676 -2 L 575 -14 C 545 -18 545 -56 575 -54 Z" fill="lightgray"></path>
    
    
      <clipPath id="make-me-a-hanzi-clip-0">
        <path d="M 327 590 L 351 595 Q 352 595 367 597 L 405 602 L 424 605 Q 442 607 452 614 Q 461 620 461 625 Q 461 630 455 634 Q 451 638 437 643 L 421 648 Q 411 650 403 650 Q 399 649 383 644 Q 366 639 341 634 L 287 623 Q 279 622 253 618 Q 225 614 200 611 C 170 607 171 580 201 581 L 229 582 L 254 582 Q 263 583 271 584 L 327 590 Z"></path>
      </clipPath>
      <path clip-path="url(#make-me-a-hanzi-clip-0)" d="M 207 604 L 216 597 L 256 600 L 406 626 L 450 624" fill="none" id="make-me-a-hanzi-animation-0" stroke-dasharray="376 752" stroke-linecap="round"></path>
    
      <clipPath id="make-me-a-hanzi-clip-1">
        <path d="M 200 611 L 161 619 L 143 623 L 139 623 Q 132 623 129 620 Q 127 617 127 613 L 127 610 Q 129 604 135 594 Q 141 584 145 573 Q 148 562 150 542 Q 153 522 153 506 L 149 377 Q 147 353 146 340 Q 145 328 141 309 Q 138 291 133 282 Q 127 274 127 273 L 127 270 Q 127 263 134 247 Q 143 228 147 221 Q 151 214 159 214 L 161 214 Q 166 214 175 220 C 200 232 197 247 191 276 Q 188 278 188 284 Q 188 287 189 291 L 190 310 L 193 360 L 195 388 L 197 463 L 197 486 L 201 581 C 202 611 202 611 200 611 Z"></path>
      </clipPath>
      <path clip-path="url(#make-me-a-hanzi-clip-1)" d="M 136 614 L 172 587 L 173 572 L 173 396 L 158 263 L 160 230" fill="none" id="make-me-a-hanzi-animation-1" stroke-dasharray="531 1062" stroke-linecap="round"></path>
    
      <clipPath id="make-me-a-hanzi-clip-2">
        <path d="M 339 472 L 417 487 Q 425 488 432 492 Q 439 494 440 500 Q 440 506 430 512 Q 420 518 405 521 Q 391 524 380 524 Q 369 524 357 520 L 339 514 L 283 500 L 243 493 Q 235 491 197 486 C 167 482 169 474 197 463 L 210 458 Q 217 455 228 455 L 233 455 Q 247 455 269 458 L 285 462 L 339 472 Z"></path>
      </clipPath>
      <path clip-path="url(#make-me-a-hanzi-clip-2)" d="M 207 469 L 385 503 L 430 502" fill="none" id="make-me-a-hanzi-animation-2" stroke-dasharray="354 708" stroke-linecap="round"></path>
    
      <clipPath id="make-me-a-hanzi-clip-3">
        <path d="M 335 370 L 415 384 Q 433 387 438 390 Q 443 392 443 396 Q 443 400 439 405 Q 435 409 419 414 Q 404 419 396 420 Q 390 421 384 421 L 379 421 Q 370 420 350 415 L 337 412 L 285 400 L 281 399 L 245 394 Q 231 391 219 390 Q 207 388 195 388 C 165 387 164 367 193 360 L 210 356 Q 221 353 225 353 L 227 353 Q 234 353 253 356 L 285 362 L 335 370 Z"></path>
      </clipPath>
      <path clip-path="url(#make-me-a-hanzi-clip-3)" d="M 201 381 L 210 372 L 221 371 L 381 400 L 435 398" fill="none" id="make-me-a-hanzi-animation-3" stroke-dasharray="368 736" stroke-linecap="round"></path>
    
      <clipPath id="make-me-a-hanzi-clip-4">
        <path d="M 339 514 L 341 543 Q 341 544 344 554 Q 347 562 347 568 Q 347 572 344 578 Q 340 584 327 590 C 301 604 258 611 271 584 L 275 576 L 280 566 L 283 548 Q 285 537 285 529 L 283 500 L 285 462 L 285 400 L 285 362 L 286 286 C 286 256 332 262 333 292 L 335 370 L 337 412 L 339 472 L 339 514 Z"></path>
      </clipPath>
      <path clip-path="url(#make-me-a-hanzi-clip-4)" d="M 278 583 L 313 557 L 310 313 L 293 294" fill="none" id="make-me-a-hanzi-animation-4" stroke-dasharray="441 882" stroke-linecap="round"></path>
    
      <clipPath id="make-me-a-hanzi-clip-5">
        <path d="M 175 220 Q 186 226 192 230 Q 197 232 222 238 L 259 247 Q 273 250 295 253 L 359 260 Q 368 261 374 261 Q 385 261 389 258 Q 395 253 397 244 Q 400 236 400 222 Q 400 215 399 207 L 392 108 Q 389 67 382 41 Q 376 14 365 2 Q 355 -12 345 -14 L 342 -14 Q 336 -14 325 -12 Q 313 -9 297 -4 L 281 2 Q 277 3 274 3 Q 269 3 268 1 L 268 0 Q 268 -4 272 -9 L 283 -22 L 295 -34 Q 297 -36 319 -66 L 333 -84 Q 345 -100 353 -101 L 355 -101 Q 360 -101 369 -95 Q 379 -88 391 -75 Q 403 -62 411 -48 Q 419 -33 425 -10 Q 431 12 435 37 Q 440 62 445 120 Q 450 178 453 198 Q 457 218 460 226 Q 463 234 469 242 Q 475 250 475 253 L 475 256 Q 475 263 467 270 Q 457 280 446 287 Q 435 294 422 299 Q 409 305 401 305 Q 398 304 389 302 L 365 297 Q 352 295 337 292 L 333 292 L 286 286 L 237 279 L 209 277 Q 199 275 195 275 Q 192 275 191 276 C 161 274 149 205 175 220 Z"></path>
      </clipPath>
      <path clip-path="url(#make-me-a-hanzi-clip-5)" d="M 178 227 L 200 251 L 217 258 L 361 279 L 402 280 L 432 252 L 410 46 L 389 -20 L 359 -52 L 334 -42 L 272 1" fill="none" id="make-me-a-hanzi-animation-5" stroke-dasharray="829 1658" stroke-linecap="round"></path>
    
      <clipPath id="make-me-a-hanzi-clip-6">
        <path d="M 92 173 Q 89 178 86 178 L 85 178 Q 80 178 79 170 L 76 154 Q 73 142 68 126 Q 62 110 55 93 Q 47 76 45 70 Q 43 58 43 41 Q 43 24 48 14 Q 53 4 59 2 L 62 2 Q 68 2 77 6 Q 88 13 95 35 Q 103 58 105 76 Q 106 87 106 97 L 106 108 Q 105 124 103 138 Q 101 153 97 162 L 92 173 Z"></path>
      </clipPath>
      <path clip-path="url(#make-me-a-hanzi-clip-6)" d="M 86 171 L 85 113 L 61 10" fill="none" id="make-me-a-hanzi-animation-6" stroke-dasharray="292 584" stroke-linecap="round"></path>
    
      <clipPath id="make-me-a-hanzi-clip-7">
        <path d="M 136 147 Q 137 144 147 125 L 164 88 Q 168 78 173 71 Q 179 63 186 62 Q 193 62 200 68 Q 207 74 208 86 Q 209 92 209 97 Q 209 102 208 106 Q 207 114 205 122 Q 202 130 195 138 Q 187 146 176 153 Q 165 160 161 162 L 143 168 Q 138 170 135 170 Q 132 170 131 168 Q 130 167 130 165 Q 130 163 131 160 L 136 147 Z"></path>
      </clipPath>
      <path clip-path="url(#make-me-a-hanzi-clip-7)" d="M 135 165 L 175 124 L 187 78" fill="none" id="make-me-a-hanzi-animation-7" stroke-dasharray="233 466" stroke-linecap="round"></path>
    
      <clipPath id="make-me-a-hanzi-clip-8">
        <path d="M 223 162 L 234 142 L 253 110 Q 259 100 265 95 Q 273 88 279 88 Q 281 88 283 89 Q 290 92 294 100 Q 297 108 297 120 Q 296 132 291 144 Q 287 156 275 163 Q 264 170 254 174 Q 245 178 240 180 L 227 185 Q 221 186 218 186 Q 215 184 214 181 L 214 179 Q 214 176 217 172 L 223 162 Z"></path>
      </clipPath>
      <path clip-path="url(#make-me-a-hanzi-clip-8)" d="M 220 180 L 266 137 L 278 103" fill="none" id="make-me-a-hanzi-animation-8" stroke-dasharray="227 454" stroke-linecap="round"></path>
    
      <clipPath id="make-me-a-hanzi-clip-9">
        <path d="M 301 186 Q 304 181 311 168 Q 319 156 326 144 Q 333 133 341 127 Q 350 121 355 121 L 357 121 Q 364 122 370 130 Q 375 139 375 152 Q 375 164 368 173 Q 361 182 351 188 Q 342 194 333 197 Q 324 200 317 202 L 304 206 Q 301 207 298 207 Q 296 207 295 206 Q 291 206 291 203 L 291 202 Q 291 199 294 196 L 301 186 Z"></path>
      </clipPath>
      <path clip-path="url(#make-me-a-hanzi-clip-9)" d="M 295 203 L 346 160 L 356 136" fill="none" id="make-me-a-hanzi-animation-9" stroke-dasharray="221 442" stroke-linecap="round"></path>
    
      <clipPath id="make-me-a-hanzi-clip-10">
        <path d="M 564 538 L 574 543 L 586 549 Q 604 558 623 569 L 669 598 Q 685 607 696 610 Q 707 614 709 616 Q 712 620 712 625 Q 712 628 711 631 Q 709 640 700 650 L 679 670 Q 667 680 657 683 L 652 683 Q 648 683 647 682 Q 643 680 641 669 Q 638 658 631 646 Q 624 633 609 614 Q 595 596 585 585 L 565 564 L 554 552 C 534 530 537 525 564 538 Z"></path>
      </clipPath>
      <path clip-path="url(#make-me-a-hanzi-clip-10)" d="M 652 672 L 665 635 L 608 581 L 570 554 L 567 545" fill="none" id="make-me-a-hanzi-animation-10" stroke-dasharray="302 604" stroke-linecap="round"></path>
    
      <clipPath id="make-me-a-hanzi-clip-11">
        <path d="M 554 552 L 547 556 L 528 564 L 515 568 Q 508 571 503 571 Q 498 571 495 568 Q 489 562 489 557 L 489 555 Q 491 550 495 544 Q 499 538 501 528 Q 503 518 504 503 Q 505 488 505 476 L 503 413 Q 501 386 501 375 Q 501 364 499 352 Q 497 340 494 332 Q 491 324 491 322 Q 490 319 490 316 Q 490 313 491 310 Q 493 304 501 290 Q 509 277 510 277 Q 518 265 523 265 Q 529 266 538 277 L 556 300 Q 565 312 575 321 L 633 378 C 654 399 646 414 621 398 L 563 362 Q 554 357 551 357 L 549 357 Q 547 359 547 370 L 551 465 Q 552 490 554 502 Q 557 514 559 521 Q 561 529 564 538 C 566 546 566 546 554 552 Z"></path>
      </clipPath>
      <path clip-path="url(#make-me-a-hanzi-clip-11)" d="M 504 556 L 531 531 L 524 389 L 530 326 L 565 340 L 617 380 L 618 390" fill="none" id="make-me-a-hanzi-animation-11" stroke-dasharray="484 968" stroke-linecap="round"></path>
    
      <clipPath id="make-me-a-hanzi-clip-12">
        <path d="M 633 378 L 645 358 Q 648 352 655 346 Q 663 338 669 338 L 671 338 Q 677 340 681 346 Q 685 351 686 360 Q 687 365 687 371 Q 687 377 686 384 Q 685 398 679 410 Q 673 420 662 430 Q 651 440 639 447 Q 627 453 621 455 L 607 458 Q 602 460 599 460 Q 596 460 594 458 Q 593 456 593 454 Q 593 451 595 448 L 621 398 L 633 378 Z"></path>
      </clipPath>
      <path clip-path="url(#make-me-a-hanzi-clip-12)" d="M 598 455 L 653 399 L 670 350" fill="none" id="make-me-a-hanzi-animation-12" stroke-dasharray="258 516" stroke-linecap="round"></path>
    
      <clipPath id="make-me-a-hanzi-clip-13">
        <path d="M 792 529 L 803 531 L 821 535 L 851 540 Q 872 545 883 545 L 886 545 Q 899 544 904 538 Q 906 536 906 529 Q 906 523 904 513 L 897 465 Q 893 442 884 414 Q 875 386 864 368 Q 853 350 839 349 L 836 349 Q 831 349 822 352 L 799 362 L 789 366 Q 786 367 784 367 Q 781 367 779 366 Q 777 365 777 363 Q 777 361 780 358 L 789 344 L 807 322 Q 811 316 817 305 L 827 288 Q 831 279 835 277 Q 838 275 841 275 Q 849 275 863 283 Q 883 295 897 312 Q 911 330 919 348 Q 927 367 934 396 Q 941 424 947 452 Q 955 480 959 496 Q 963 512 971 522 Q 980 532 981 535 Q 981 542 974 552 Q 967 562 955 570 Q 943 578 929 586 Q 915 592 907 592 Q 902 592 889 586 Q 877 580 847 573 L 806 562 Q 795 560 758 555 Q 721 550 711 549 L 679 546 Q 668 544 666 540 Q 665 539 665 538 Q 665 534 674 526 Q 685 516 697 512 Q 709 506 715 506 Q 719 506 727 508 Q 733 510 747 516 L 759 522 L 792 529 Z"></path>
      </clipPath>
      <path clip-path="url(#make-me-a-hanzi-clip-13)" d="M 674 535 L 718 528 L 903 566 L 922 559 L 940 538 L 911 409 L 895 363 L 877 336 L 848 317 L 781 362" fill="none" id="make-me-a-hanzi-animation-13" stroke-dasharray="738 1476" stroke-linecap="round"></path>
    
      <clipPath id="make-me-a-hanzi-clip-14">
        <path d="M 759 522 L 758 502 Q 757 492 749 460 Q 739 430 728 402 Q 716 374 700 347 Q 683 319 673 304 Q 661 289 653 281 L 645 273 Q 643 271 643 268 Q 643 266 645 263 Q 647 260 650 260 Q 651 260 653 262 L 668 270 Q 679 278 698 293 Q 716 308 735 332 Q 755 356 771 389 Q 788 422 797 445 L 808 473 Q 810 478 816 485 Q 823 492 823 494 Q 824 496 824 497 Q 824 502 819 507 Q 813 514 807 518 Q 801 522 792 529 C 768 547 760 552 759 522 Z"></path>
      </clipPath>
      <path clip-path="url(#make-me-a-hanzi-clip-14)" d="M 766 517 L 787 497 L 749 392 L 709 327 L 649 264" fill="none" id="make-me-a-hanzi-animation-14" stroke-dasharray="432 864" stroke-linecap="round"></path>
    
      <clipPath id="make-me-a-hanzi-clip-15">
        <path d="M 552 213 L 513 224 Q 501 227 495 227 Q 490 226 487 221 Q 484 218 484 214 Q 484 213 485 211 Q 487 207 492 200 Q 497 194 505 169 Q 513 144 515 133 L 534 -39 Q 537 -68 545 -77 Q 552 -83 558 -83 L 561 -83 Q 567 -82 570 -70 L 575 -54 L 575 -14 L 573 62 L 569 97 L 561 176 C 558 206 557 211 552 213 Z"></path>
      </clipPath>
      <path clip-path="url(#make-me-a-hanzi-clip-15)" d="M 492 215 L 525 193 L 533 176 L 560 -72" fill="none" id="make-me-a-hanzi-animation-15" stroke-dasharray="436 872" stroke-linecap="round"></path>
    
      <clipPath id="make-me-a-hanzi-clip-16">
        <path d="M 795 -36 L 803 -58 Q 809 -72 818 -90 Q 827 -108 835 -110 L 837 -110 Q 843 -110 857 -101 Q 873 -90 884 -79 Q 895 -67 905 -42 Q 915 -16 919 17 L 927 94 L 931 140 Q 933 160 936 169 Q 940 177 948 187 Q 956 197 956 202 L 956 203 Q 956 208 948 217 Q 939 226 923 236 Q 907 245 889 252 Q 875 258 863 258 L 858 258 Q 854 258 838 252 Q 821 246 798 243 Q 774 239 749 236 L 679 230 L 552 213 C 522 209 533 166 561 176 L 584 184 Q 603 190 661 196 L 721 204 L 817 211 L 829 211 Q 840 211 847 210 Q 857 208 860 202 Q 863 196 865 185 L 867 166 L 867 122 L 863 94 L 863 71 Q 862 57 858 39 Q 855 21 849 0 C 842 -29 785 -8 795 -36 Z"></path>
      </clipPath>
      <path clip-path="url(#make-me-a-hanzi-clip-16)" d="M 565 183 L 575 200 L 589 203 L 852 233 L 873 228 L 900 205 L 905 198 L 886 13 L 875 -24 L 848 -55 L 836 -100" fill="none" id="make-me-a-hanzi-animation-16" stroke-dasharray="805 1610" stroke-linecap="round"></path>
    
      <clipPath id="make-me-a-hanzi-clip-17">
        <path d="M 867 122 L 849 128 Q 838 131 825 134 Q 816 135 809 135 L 803 135 Q 797 134 781 129 Q 764 124 731 118 L 677 111 L 569 97 C 539 93 543 64 573 62 L 587 61 L 593 61 Q 600 61 614 62 L 676 68 L 729 75 L 863 94 C 893 98 895 113 867 122 Z"></path>
      </clipPath>
      <path clip-path="url(#make-me-a-hanzi-clip-17)" d="M 577 92 L 588 81 L 620 82 L 812 111 L 847 110 L 860 116" fill="none" id="make-me-a-hanzi-animation-17" stroke-dasharray="419 838" stroke-linecap="round"></path>
    
      <clipPath id="make-me-a-hanzi-clip-18">
        <path d="M 731 118 L 733 135 L 734 157 L 740 180 Q 739 186 734 191 L 721 204 C 700 225 650 224 661 196 L 670 174 Q 671 172 674 154 Q 677 136 677 128 L 677 111 L 676 68 L 676 -2 C 676 -32 723 -30 725 0 L 729 75 L 731 118 Z"></path>
      </clipPath>
      <path clip-path="url(#make-me-a-hanzi-clip-18)" d="M 669 193 L 704 170 L 702 25 L 682 5" fill="none" id="make-me-a-hanzi-animation-18" stroke-dasharray="343 686" stroke-linecap="round"></path>
    
      <clipPath id="make-me-a-hanzi-clip-19">
        <path d="M 575 -54 L 795 -36 C 825 -34 877 -10 849 0 L 829 7 Q 812 12 808 12 Q 804 12 787 10 L 725 0 L 676 -2 L 575 -14 C 545 -18 545 -56 575 -54 Z"></path>
      </clipPath>
      <path clip-path="url(#make-me-a-hanzi-clip-19)" d="M 582 -47 L 597 -32 L 788 -14 L 819 -3 L 843 -2" fill="none" id="make-me-a-hanzi-animation-19" stroke-dasharray="398 796" stroke-linecap="round"></path>
    
  </g>
</svg>