<svg version="1.1" viewBox="0 0 1024 1024" xmlns="http://www.w3.org/2000/svg">
  <g stroke="lightgray" stroke-dasharray="1,1" stroke-width="1" transform="scale(4, 4)">
    <line x1="0" y1="0" x2="256" y2="256"></line>
    <line x1="256" y1="0" x2="0" y2="256"></line>
    <line x1="128" y1="0" x2="128" y2="256"></line>
    <line x1="0" y1="128" x2="256" y2="128"></line>
  </g>
<g transform="scale(1, -1) translate(0, -900)">
   <style type="text/css">
    @keyframes keyframes0 {
      from {
       stroke: blue;
       stroke-dashoffset: 937;
       stroke-width: 128;
       }
       75% {
       animation-timing-function: step-end;
       stroke: blue;
       stroke-dashoffset: 0;
       stroke-width: 128;
       }
       to {
       stroke: black;
       stroke-width: 1024;
       }
       }
       #make-me-a-hanzi-animation-0 {
         animation: keyframes0 1.012533s both;
         animation-delay: 0.000000s;
         animation-timing-function: linear;
       }
    @keyframes keyframes1 {
      from {
       stroke: blue;
       stroke-dashoffset: 1140;
       stroke-width: 128;
       }
       79% {
       animation-timing-function: step-end;
       stroke: blue;
       stroke-dashoffset: 0;
       stroke-width: 128;
       }
       to {
       stroke: black;
       stroke-width: 1024;
       }
       }
       #make-me-a-hanzi-animation-1 {
         animation: keyframes1 1.177734s both;
         animation-delay: 1.012533s;
         animation-timing-function: linear;
       }
    @keyframes keyframes2 {
      from {
       stroke: blue;
       stroke-dashoffset: 320;
       stroke-width: 128;
       }
       51% {
       animation-timing-function: step-end;
       stroke: blue;
       stroke-dashoffset: 0;
       stroke-width: 128;
       }
       to {
       stroke: black;
       stroke-width: 1024;
       }
       }
       #make-me-a-hanzi-animation-2 {
         animation: keyframes2 0.510417s both;
         animation-delay: 2.190267s;
         animation-timing-function: linear;
       }
    @keyframes keyframes3 {
      from {
       stroke: blue;
       stroke-dashoffset: 335;
       stroke-width: 128;
       }
       52% {
       animation-timing-function: step-end;
       stroke: blue;
       stroke-dashoffset: 0;
       stroke-width: 128;
       }
       to {
       stroke: black;
       stroke-width: 1024;
       }
       }
       #make-me-a-hanzi-animation-3 {
         animation: keyframes3 0.522624s both;
         animation-delay: 2.700684s;
         animation-timing-function: linear;
       }
    @keyframes keyframes4 {
      from {
       stroke: blue;
       stroke-dashoffset: 342;
       stroke-width: 128;
       }
       53% {
       animation-timing-function: step-end;
       stroke: blue;
       stroke-dashoffset: 0;
       stroke-width: 128;
       }
       to {
       stroke: black;
       stroke-width: 1024;
       }
       }
       #make-me-a-hanzi-animation-4 {
         animation: keyframes4 0.528320s both;
         animation-delay: 3.223307s;
         animation-timing-function: linear;
       }
    @keyframes keyframes5 {
      from {
       stroke: blue;
       stroke-dashoffset: 393;
       stroke-width: 128;
       }
       56% {
       animation-timing-function: step-end;
       stroke: blue;
       stroke-dashoffset: 0;
       stroke-width: 128;
       }
       to {
       stroke: black;
       stroke-width: 1024;
       }
       }
       #make-me-a-hanzi-animation-5 {
         animation: keyframes5 0.569824s both;
         animation-delay: 3.751628s;
         animation-timing-function: linear;
       }
    @keyframes keyframes6 {
      from {
       stroke: blue;
       stroke-dashoffset: 548;
       stroke-width: 128;
       }
       64% {
       animation-timing-function: step-end;
       stroke: blue;
       stroke-dashoffset: 0;
       stroke-width: 128;
       }
       to {
       stroke: black;
       stroke-width: 1024;
       }
       }
       #make-me-a-hanzi-animation-6 {
         animation: keyframes6 0.695964s both;
         animation-delay: 4.321452s;
         animation-timing-function: linear;
       }
    @keyframes keyframes7 {
      from {
       stroke: blue;
       stroke-dashoffset: 731;
       stroke-width: 128;
       }
       70% {
       animation-timing-function: step-end;
       stroke: blue;
       stroke-dashoffset: 0;
       stroke-width: 128;
       }
       to {
       stroke: black;
       stroke-width: 1024;
       }
       }
       #make-me-a-hanzi-animation-7 {
         animation: keyframes7 0.844889s both;
         animation-delay: 5.017415s;
         animation-timing-function: linear;
       }
    @keyframes keyframes8 {
      from {
       stroke: blue;
       stroke-dashoffset: 872;
       stroke-width: 128;
       }
       74% {
       animation-timing-function: step-end;
       stroke: blue;
       stroke-dashoffset: 0;
       stroke-width: 128;
       }
       to {
       stroke: black;
       stroke-width: 1024;
       }
       }
       #make-me-a-hanzi-animation-8 {
         animation: keyframes8 0.959635s both;
         animation-delay: 5.862305s;
         animation-timing-function: linear;
       }
    @keyframes keyframes9 {
      from {
       stroke: blue;
       stroke-dashoffset: 641;
       stroke-width: 128;
       }
       68% {
       animation-timing-function: step-end;
       stroke: blue;
       stroke-dashoffset: 0;
       stroke-width: 128;
       }
       to {
       stroke: black;
       stroke-width: 1024;
       }
       }
       #make-me-a-hanzi-animation-9 {
         animation: keyframes9 0.771647s both;
         animation-delay: 6.821940s;
         animation-timing-function: linear;
       }
    @keyframes keyframes10 {
      from {
       stroke: blue;
       stroke-dashoffset: 429;
       stroke-width: 128;
       }
       58% {
       animation-timing-function: step-end;
       stroke: blue;
       stroke-dashoffset: 0;
       stroke-width: 128;
       }
       to {
       stroke: black;
       stroke-width: 1024;
       }
       }
       #make-me-a-hanzi-animation-10 {
         animation: keyframes10 0.599121s both;
         animation-delay: 7.593587s;
         animation-timing-function: linear;
       }
    @keyframes keyframes11 {
      from {
       stroke: blue;
       stroke-dashoffset: 487;
       stroke-width: 128;
       }
       61% {
       animation-timing-function: step-end;
       stroke: blue;
       stroke-dashoffset: 0;
       stroke-width: 128;
       }
       to {
       stroke: black;
       stroke-width: 1024;
       }
       }
       #make-me-a-hanzi-animation-11 {
         animation: keyframes11 0.646322s both;
         animation-delay: 8.192708s;
         animation-timing-function: linear;
       }
    @keyframes keyframes12 {
      from {
       stroke: blue;
       stroke-dashoffset: 422;
       stroke-width: 128;
       }
       58% {
       animation-timing-function: step-end;
       stroke: blue;
       stroke-dashoffset: 0;
       stroke-width: 128;
       }
       to {
       stroke: black;
       stroke-width: 1024;
       }
       }
       #make-me-a-hanzi-animation-12 {
         animation: keyframes12 0.593424s both;
         animation-delay: 8.839030s;
         animation-timing-function: linear;
       }
    @keyframes keyframes13 {
      from {
       stroke: blue;
       stroke-dashoffset: 424;
       stroke-width: 128;
       }
       58% {
       animation-timing-function: step-end;
       stroke: blue;
       stroke-dashoffset: 0;
       stroke-width: 128;
       }
       to {
       stroke: black;
       stroke-width: 1024;
       }
       }
       #make-me-a-hanzi-animation-13 {
         animation: keyframes13 0.595052s both;
         animation-delay: 9.432454s;
         animation-timing-function: linear;
       }
    @keyframes keyframes14 {
      from {
       stroke: blue;
       stroke-dashoffset: 448;
       stroke-width: 128;
       }
       59% {
       animation-timing-function: step-end;
       stroke: blue;
       stroke-dashoffset: 0;
       stroke-width: 128;
       }
       to {
       stroke: black;
       stroke-width: 1024;
       }
       }
       #make-me-a-hanzi-animation-14 {
         animation: keyframes14 0.614583s both;
         animation-delay: 10.027507s;
         animation-timing-function: linear;
       }
    @keyframes keyframes15 {
      from {
       stroke: blue;
       stroke-dashoffset: 967;
       stroke-width: 128;
       }
       76% {
       animation-timing-function: step-end;
       stroke: blue;
       stroke-dashoffset: 0;
       stroke-width: 128;
       }
       to {
       stroke: black;
       stroke-width: 1024;
       }
       }
       #make-me-a-hanzi-animation-15 {
         animation: keyframes15 1.036947s both;
         animation-delay: 10.642090s;
         animation-timing-function: linear;
       }
    @keyframes keyframes16 {
      from {
       stroke: blue;
       stroke-dashoffset: 377;
       stroke-width: 128;
       }
       55% {
       animation-timing-function: step-end;
       stroke: blue;
       stroke-dashoffset: 0;
       stroke-width: 128;
       }
       to {
       stroke: black;
       stroke-width: 1024;
       }
       }
       #make-me-a-hanzi-animation-16 {
         animation: keyframes16 0.556803s both;
         animation-delay: 11.679036s;
         animation-timing-function: linear;
       }
    @keyframes keyframes17 {
      from {
       stroke: blue;
       stroke-dashoffset: 325;
       stroke-width: 128;
       }
       51% {
       animation-timing-function: step-end;
       stroke: blue;
       stroke-dashoffset: 0;
       stroke-width: 128;
       }
       to {
       stroke: black;
       stroke-width: 1024;
       }
       }
       #make-me-a-hanzi-animation-17 {
         animation: keyframes17 0.514486s both;
         animation-delay: 12.235840s;
         animation-timing-function: linear;
       }
    @keyframes keyframes18 {
      from {
       stroke: blue;
       stroke-dashoffset: 325;
       stroke-width: 128;
       }
       51% {
       animation-timing-function: step-end;
       stroke: blue;
       stroke-dashoffset: 0;
       stroke-width: 128;
       }
       to {
       stroke: black;
       stroke-width: 1024;
       }
       }
       #make-me-a-hanzi-animation-18 {
         animation: keyframes18 0.514486s both;
         animation-delay: 12.750326s;
         animation-timing-function: linear;
       }
    @keyframes keyframes19 {
      from {
       stroke: blue;
       stroke-dashoffset: 355;
       stroke-width: 128;
       }
       54% {
       animation-timing-function: step-end;
       stroke: blue;
       stroke-dashoffset: 0;
       stroke-width: 128;
       }
       to {
       stroke: black;
       stroke-width: 1024;
       }
       }
       #make-me-a-hanzi-animation-19 {
         animation: keyframes19 0.538900s both;
         animation-delay: 13.264811s;
         animation-timing-function: linear;
       }
</style>
<path d="M 188.5 443.5 Q 188.5 444.5 189.5 445.5 Q 196.5 503.5 199.5 561.5 L 199.5 593.5 Q 200.5 659.5 204.5 724.5 C 205.5 743.5 205.5 743.5 189.5 751.5 Q 177.5 758.5 159.5 765.5 Q 143.5 772.5 131.5 767.5 Q 122.5 760.5 129.5 749.5 Q 177.5 692.5 143.5 413.5 Q 137.5 383.5 131.5 354.5 Q 103.5 246.5 40.5 130.5 Q 36.5 124.5 36.5 119.5 Q 35.5 109.5 43.5 112.5 Q 73.5 122.5 135.5 247.5 Q 145.5 271.5 155.5 297.5 Q 173.5 352.5 183.5 412.5 L 188.5 443.5 Z" fill="lightgray"></path> 
<path d="M 204.5 724.5 Q 232.5 734.5 260.5 741.5 Q 275.5 745.5 282.5 738.5 Q 295.5 726.5 293.5 685.5 Q 299.5 361.5 281.5 167.5 Q 280.5 142.5 272.5 131.5 Q 266.5 127.5 207.5 138.5 Q 188.5 144.5 190.5 135.5 Q 238.5 92.5 264.5 62.5 Q 276.5 46.5 290.5 41.5 Q 297.5 37.5 306.5 46.5 Q 343.5 95.5 342.5 139.5 Q 335.5 335.5 339.5 651.5 Q 338.5 703.5 351.5 726.5 Q 361.5 744.5 351.5 753.5 Q 332.5 769.5 299.5 783.5 Q 280.5 792.5 241.5 768.5 Q 195.5 753.5 189.5 751.5 C 160.5 742.5 176.5 715.5 204.5 724.5 Z" fill="lightgray"></path> 
<path d="M 199.5 561.5 Q 232.5 567.5 259.5 569.5 Q 278.5 573.5 270.5 584.5 Q 260.5 597.5 237.5 599.5 Q 221.5 600.5 199.5 593.5 C 170.5 584.5 169.5 556.5 199.5 561.5 Z" fill="lightgray"></path> 
<path d="M 183.5 412.5 L 191.5 412.5 Q 230.5 418.5 258.5 421.5 Q 279.5 425.5 270.5 436.5 Q 260.5 449.5 237.5 451.5 Q 218.5 452.5 188.5 443.5 C 159.5 435.5 153.5 412.5 183.5 412.5 Z" fill="lightgray"></path> 
<path d="M 447.5 734.5 Q 483.5 689.5 495.5 688.5 Q 502.5 687.5 507.5 696.5 Q 511.5 706.5 508.5 726.5 Q 504.5 745.5 448.5 767.5 Q 438.5 771.5 433.5 769.5 Q 429.5 768.5 429.5 758.5 Q 430.5 751.5 447.5 734.5 Z" fill="lightgray"></path> 
<path d="M 709.5 796.5 Q 699.5 775.5 658.5 722.5 Q 651.5 709.5 664.5 712.5 Q 730.5 764.5 770.5 783.5 Q 771.5 784.5 774.5 785.5 Q 790.5 792.5 782.5 806.5 Q 772.5 819.5 751.5 829.5 Q 732.5 839.5 723.5 836.5 Q 713.5 835.5 717.5 825.5 Q 720.5 812.5 709.5 796.5 Z" fill="lightgray"></path> 
<path d="M 564.5 615.5 Q 726.5 652.5 732.5 656.5 Q 739.5 663.5 735.5 670.5 Q 729.5 679.5 706.5 685.5 Q 682.5 689.5 658.5 680.5 Q 616.5 667.5 575.5 654.5 L 532.5 644.5 Q 492.5 638.5 448.5 633.5 Q 418.5 629.5 439.5 614.5 Q 475.5 595.5 518.5 606.5 Q 519.5 607.5 521.5 606.5 L 564.5 615.5 Z" fill="lightgray"></path> 
<path d="M 531.5 523.5 Q 585.5 538.5 642.5 544.5 L 668.5 548.5 Q 683.5 551.5 831.5 564.5 Q 847.5 565.5 850.5 572.5 Q 854.5 582.5 840.5 592.5 Q 792.5 619.5 739.5 602.5 Q 555.5 557.5 544.5 554.5 L 498.5 544.5 Q 434.5 532.5 365.5 517.5 Q 349.5 514.5 362.5 502.5 Q 374.5 492.5 388.5 489.5 Q 406.5 486.5 418.5 491.5 Q 449.5 501.5 484.5 511.5 L 531.5 523.5 Z" fill="lightgray"></path> 
<path d="M 463.5 399.5 Q 482.5 427.5 531.5 523.5 L 544.5 554.5 Q 553.5 582.5 564.5 615.5 L 575.5 654.5 Q 581.5 702.5 609.5 771.5 Q 613.5 787.5 621.5 797.5 Q 633.5 815.5 606.5 837.5 Q 587.5 847.5 567.5 851.5 Q 554.5 855.5 540.5 847.5 Q 533.5 840.5 540.5 830.5 Q 565.5 806.5 555.5 739.5 Q 543.5 693.5 532.5 644.5 L 521.5 606.5 Q 511.5 575.5 498.5 544.5 L 484.5 511.5 Q 436.5 417.5 353.5 314.5 Q 346.5 301.5 354.5 299.5 Q 358.5 298.5 369.5 306.5 Q 409.5 334.5 443.5 374.5 L 463.5 399.5 Z" fill="lightgray"></path> 
<path d="M 642.5 544.5 Q 643.5 543.5 645.5 541.5 Q 783.5 358.5 826.5 345.5 Q 883.5 335.5 969.5 345.5 Q 985.5 346.5 987.5 351.5 Q 988.5 357.5 976.5 362.5 Q 796.5 435.5 720.5 502.5 Q 710.5 509.5 701.5 518.5 Q 682.5 537.5 668.5 548.5 C 645.5 567.5 623.5 567.5 642.5 544.5 Z" fill="lightgray"></path> 
<path d="M 611.5 421.5 Q 683.5 442.5 685.5 443.5 Q 691.5 450.5 687.5 455.5 Q 683.5 462.5 662.5 467.5 Q 643.5 470.5 577.5 446.5 Q 550.5 439.5 517.5 433.5 Q 492.5 429.5 510.5 417.5 Q 540.5 402.5 579.5 414.5 L 611.5 421.5 Z" fill="lightgray"></path> 
<path d="M 476.5 220.5 Q 480.5 320.5 493.5 365.5 Q 497.5 378.5 488.5 386.5 Q 475.5 395.5 463.5 399.5 C 436.5 410.5 437.5 403.5 443.5 374.5 Q 455.5 316.5 440.5 230.5 Q 413.5 185.5 414.5 184.5 Q 414.5 177.5 443.5 157.5 Q 453.5 150.5 466.5 161.5 C 474.5 166.5 475.5 190.5 476.5 220.5 Z" fill="lightgray"></path> 
<path d="M 632.5 348.5 Q 693.5 363.5 696.5 365.5 Q 702.5 369.5 699.5 376.5 Q 695.5 383.5 675.5 387.5 Q 656.5 391.5 637.5 383.5 Q 636.5 383.5 635.5 382.5 L 588.5 368.5 Q 561.5 362.5 533.5 359.5 Q 509.5 355.5 527.5 344.5 Q 557.5 332.5 588.5 338.5 L 632.5 348.5 Z" fill="lightgray"></path> 
<path d="M 627.5 276.5 Q 649.5 282.5 673.5 286.5 Q 692.5 290.5 696.5 293.5 Q 702.5 297.5 699.5 304.5 Q 695.5 311.5 676.5 316.5 Q 657.5 320.5 637.5 312.5 Q 631.5 311.5 629.5 309.5 L 588.5 298.5 Q 561.5 294.5 530.5 291.5 Q 506.5 287.5 523.5 276.5 Q 548.5 261.5 585.5 269.5 Q 586.5 270.5 588.5 269.5 L 627.5 276.5 Z" fill="lightgray"></path> 
<path d="M 624.5 232.5 Q 625.5 254.5 627.5 276.5 L 629.5 309.5 Q 630.5 330.5 632.5 348.5 L 635.5 382.5 Q 639.5 395.5 634.5 402.5 Q 622.5 414.5 611.5 421.5 C 586.5 438.5 570.5 443.5 579.5 414.5 Q 588.5 387.5 588.5 368.5 L 588.5 338.5 Q 588.5 322.5 588.5 298.5 L 588.5 269.5 Q 588.5 250.5 588.5 226.5 C 588.5 196.5 623.5 202.5 624.5 232.5 Z" fill="lightgray"></path> 
<path d="M 588.5 226.5 Q 542.5 220.5 499.5 210.5 Q 474.5 203.5 476.5 220.5 C 453.5 239.5 439.5 148.5 466.5 161.5 Q 538.5 200.5 738.5 214.5 Q 757.5 215.5 766.5 207.5 Q 787.5 186.5 749.5 33.5 Q 743.5 17.5 731.5 8.5 Q 725.5 5.5 654.5 18.5 Q 641.5 22.5 640.5 16.5 Q 639.5 9.5 655.5 -1.5 Q 689.5 -31.5 704.5 -57.5 Q 717.5 -79.5 734.5 -67.5 Q 776.5 -40.5 794.5 5.5 Q 830.5 179.5 839.5 188.5 Q 840.5 192.5 845.5 194.5 Q 858.5 207.5 852.5 216.5 Q 842.5 228.5 801.5 248.5 Q 782.5 257.5 708.5 244.5 Q 651.5 238.5 624.5 232.5 L 588.5 226.5 Z" fill="lightgray"></path> 
<path d="M 397.5 122.5 Q 384.5 85.5 362.5 49.5 Q 347.5 21.5 363.5 -2.5 Q 370.5 -15.5 386.5 -5.5 Q 423.5 25.5 420.5 78.5 Q 423.5 103.5 416.5 123.5 Q 412.5 130.5 407.5 130.5 Q 400.5 129.5 397.5 122.5 Z" fill="lightgray"></path> 
<path d="M 473.5 111.5 Q 483.5 48.5 496.5 40.5 Q 503.5 34.5 514.5 43.5 Q 520.5 50.5 521.5 65.5 Q 521.5 78.5 510.5 93.5 Q 494.5 118.5 485.5 125.5 Q 481.5 129.5 476.5 123.5 Q 472.5 119.5 473.5 111.5 Z" fill="lightgray"></path> 
<path d="M 549.5 125.5 Q 567.5 71.5 587.5 61.5 Q 596.5 57.5 605.5 69.5 Q 609.5 78.5 607.5 94.5 Q 603.5 107.5 589.5 118.5 Q 568.5 137.5 558.5 143.5 Q 552.5 146.5 549.5 138.5 Q 546.5 134.5 549.5 125.5 Z" fill="lightgray"></path> 
<path d="M 646.5 124.5 Q 682.5 69.5 690.5 66.5 Q 697.5 65.5 703.5 72.5 Q 709.5 81.5 708.5 102.5 Q 708.5 115.5 691.5 131.5 Q 645.5 164.5 637.5 161.5 Q 633.5 160.5 632.5 151.5 Q 632.5 144.5 646.5 124.5 Z" fill="lightgray"></path> 
      <clipPath id="make-me-a-hanzi-clip-0">
      <path d="M 188.5 443.5 Q 188.5 444.5 189.5 445.5 Q 196.5 503.5 199.5 561.5 L 199.5 593.5 Q 200.5 659.5 204.5 724.5 C 205.5 743.5 205.5 743.5 189.5 751.5 Q 177.5 758.5 159.5 765.5 Q 143.5 772.5 131.5 767.5 Q 122.5 760.5 129.5 749.5 Q 177.5 692.5 143.5 413.5 Q 137.5 383.5 131.5 354.5 Q 103.5 246.5 40.5 130.5 Q 36.5 124.5 36.5 119.5 Q 35.5 109.5 43.5 112.5 Q 73.5 122.5 135.5 247.5 Q 145.5 271.5 155.5 297.5 Q 173.5 352.5 183.5 412.5 L 188.5 443.5 Z" fill="lightgray"></path>
      </clipPath>
      <path clip-path="url(#make-me-a-hanzi-clip-0)" d="M 138.5 757.5 L 170.5 730.5 L 175.5 718.5 L 178.5 566.5 L 163.5 408.5 L 143.5 323.5 L 115.5 244.5 L 78.5 171.5 L 43.5 119.5 " fill="none" id="make-me-a-hanzi-animation-0" stroke-dasharray="809 1618" stroke-linecap="round"></path>

      <clipPath id="make-me-a-hanzi-clip-1">
      <path d="M 204.5 724.5 Q 232.5 734.5 260.5 741.5 Q 275.5 745.5 282.5 738.5 Q 295.5 726.5 293.5 685.5 Q 299.5 361.5 281.5 167.5 Q 280.5 142.5 272.5 131.5 Q 266.5 127.5 207.5 138.5 Q 188.5 144.5 190.5 135.5 Q 238.5 92.5 264.5 62.5 Q 276.5 46.5 290.5 41.5 Q 297.5 37.5 306.5 46.5 Q 343.5 95.5 342.5 139.5 Q 335.5 335.5 339.5 651.5 Q 338.5 703.5 351.5 726.5 Q 361.5 744.5 351.5 753.5 Q 332.5 769.5 299.5 783.5 Q 280.5 792.5 241.5 768.5 Q 195.5 753.5 189.5 751.5 C 160.5 742.5 176.5 715.5 204.5 724.5 Z" fill="lightgray"></path>
      </clipPath>
      <path clip-path="url(#make-me-a-hanzi-clip-1)" d="M 194.5 745.5 L 211.5 742.5 L 274.5 763.5 L 297.5 758.5 L 320.5 734.5 L 309.5 134.5 L 300.5 107.5 L 289.5 94.5 L 199.5 133.5 " fill="none" id="make-me-a-hanzi-animation-1" stroke-dasharray="1012 2024" stroke-linecap="round"></path>

      <clipPath id="make-me-a-hanzi-clip-2">
      <path d="M 199.5 561.5 Q 232.5 567.5 259.5 569.5 Q 278.5 573.5 270.5 584.5 Q 260.5 597.5 237.5 599.5 Q 221.5 600.5 199.5 593.5 C 170.5 584.5 169.5 556.5 199.5 561.5 Z" fill="lightgray"></path>
      </clipPath>
      <path clip-path="url(#make-me-a-hanzi-clip-2)" d="M 206.5 566.5 L 215.5 580.5 L 241.5 583.5 L 262.5 578.5 " fill="none" id="make-me-a-hanzi-animation-2" stroke-dasharray="192 384" stroke-linecap="round"></path>

      <clipPath id="make-me-a-hanzi-clip-3">
      <path d="M 183.5 412.5 L 191.5 412.5 Q 230.5 418.5 258.5 421.5 Q 279.5 425.5 270.5 436.5 Q 260.5 449.5 237.5 451.5 Q 218.5 452.5 188.5 443.5 C 159.5 435.5 153.5 412.5 183.5 412.5 Z" fill="lightgray"></path>
      </clipPath>
      <path clip-path="url(#make-me-a-hanzi-clip-3)" d="M 187.5 419.5 L 202.5 430.5 L 223.5 434.5 L 262.5 430.5 " fill="none" id="make-me-a-hanzi-animation-3" stroke-dasharray="207 414" stroke-linecap="round"></path>

      <clipPath id="make-me-a-hanzi-clip-4">
      <path d="M 447.5 734.5 Q 483.5 689.5 495.5 688.5 Q 502.5 687.5 507.5 696.5 Q 511.5 706.5 508.5 726.5 Q 504.5 745.5 448.5 767.5 Q 438.5 771.5 433.5 769.5 Q 429.5 768.5 429.5 758.5 Q 430.5 751.5 447.5 734.5 Z" fill="lightgray"></path>
      </clipPath>
      <path clip-path="url(#make-me-a-hanzi-clip-4)" d="M 439.5 760.5 L 487.5 721.5 L 496.5 699.5 " fill="none" id="make-me-a-hanzi-animation-4" stroke-dasharray="214 428" stroke-linecap="round"></path>

      <clipPath id="make-me-a-hanzi-clip-5">
      <path d="M 709.5 796.5 Q 699.5 775.5 658.5 722.5 Q 651.5 709.5 664.5 712.5 Q 730.5 764.5 770.5 783.5 Q 771.5 784.5 774.5 785.5 Q 790.5 792.5 782.5 806.5 Q 772.5 819.5 751.5 829.5 Q 732.5 839.5 723.5 836.5 Q 713.5 835.5 717.5 825.5 Q 720.5 812.5 709.5 796.5 Z" fill="lightgray"></path>
      </clipPath>
      <path clip-path="url(#make-me-a-hanzi-clip-5)" d="M 771.5 798.5 L 744.5 802.5 L 669.5 722.5 " fill="none" id="make-me-a-hanzi-animation-5" stroke-dasharray="265 530" stroke-linecap="round"></path>

      <clipPath id="make-me-a-hanzi-clip-6">
      <path d="M 564.5 615.5 Q 726.5 652.5 732.5 656.5 Q 739.5 663.5 735.5 670.5 Q 729.5 679.5 706.5 685.5 Q 682.5 689.5 658.5 680.5 Q 616.5 667.5 575.5 654.5 L 532.5 644.5 Q 492.5 638.5 448.5 633.5 Q 418.5 629.5 439.5 614.5 Q 475.5 595.5 518.5 606.5 Q 519.5 607.5 521.5 606.5 L 564.5 615.5 Z" fill="lightgray"></path>
      </clipPath>
      <path clip-path="url(#make-me-a-hanzi-clip-6)" d="M 441.5 625.5 L 492.5 619.5 L 689.5 666.5 L 727.5 664.5 " fill="none" id="make-me-a-hanzi-animation-6" stroke-dasharray="420 840" stroke-linecap="round"></path>

      <clipPath id="make-me-a-hanzi-clip-7">
      <path d="M 531.5 523.5 Q 585.5 538.5 642.5 544.5 L 668.5 548.5 Q 683.5 551.5 831.5 564.5 Q 847.5 565.5 850.5 572.5 Q 854.5 582.5 840.5 592.5 Q 792.5 619.5 739.5 602.5 Q 555.5 557.5 544.5 554.5 L 498.5 544.5 Q 434.5 532.5 365.5 517.5 Q 349.5 514.5 362.5 502.5 Q 374.5 492.5 388.5 489.5 Q 406.5 486.5 418.5 491.5 Q 449.5 501.5 484.5 511.5 L 531.5 523.5 Z" fill="lightgray"></path>
      </clipPath>
      <path clip-path="url(#make-me-a-hanzi-clip-7)" d="M 374.5 507.5 L 397.5 505.5 L 588.5 551.5 L 730.5 578.5 L 800.5 584.5 L 840.5 577.5 " fill="none" id="make-me-a-hanzi-animation-7" stroke-dasharray="603 1206" stroke-linecap="round"></path>

      <clipPath id="make-me-a-hanzi-clip-8">
      <path d="M 463.5 399.5 Q 482.5 427.5 531.5 523.5 L 544.5 554.5 Q 553.5 582.5 564.5 615.5 L 575.5 654.5 Q 581.5 702.5 609.5 771.5 Q 613.5 787.5 621.5 797.5 Q 633.5 815.5 606.5 837.5 Q 587.5 847.5 567.5 851.5 Q 554.5 855.5 540.5 847.5 Q 533.5 840.5 540.5 830.5 Q 565.5 806.5 555.5 739.5 Q 543.5 693.5 532.5 644.5 L 521.5 606.5 Q 511.5 575.5 498.5 544.5 L 484.5 511.5 Q 436.5 417.5 353.5 314.5 Q 346.5 301.5 354.5 299.5 Q 358.5 298.5 369.5 306.5 Q 409.5 334.5 443.5 374.5 L 463.5 399.5 Z" fill="lightgray"></path>
      </clipPath>
      <path clip-path="url(#make-me-a-hanzi-clip-8)" d="M 548.5 839.5 L 568.5 829.5 L 588.5 808.5 L 576.5 736.5 L 532.5 577.5 L 501.5 501.5 L 449.5 413.5 L 398.5 347.5 L 355.5 307.5 " fill="none" id="make-me-a-hanzi-animation-8" stroke-dasharray="744 1488" stroke-linecap="round"></path>

      <clipPath id="make-me-a-hanzi-clip-9">
      <path d="M 642.5 544.5 Q 643.5 543.5 645.5 541.5 Q 783.5 358.5 826.5 345.5 Q 883.5 335.5 969.5 345.5 Q 985.5 346.5 987.5 351.5 Q 988.5 357.5 976.5 362.5 Q 796.5 435.5 720.5 502.5 Q 710.5 509.5 701.5 518.5 Q 682.5 537.5 668.5 548.5 C 645.5 567.5 623.5 567.5 642.5 544.5 Z" fill="lightgray"></path>
      </clipPath>
      <path clip-path="url(#make-me-a-hanzi-clip-9)" d="M 656.5 532.5 L 665.5 534.5 L 741.5 455.5 L 827.5 388.5 L 876.5 371.5 L 980.5 355.5 " fill="none" id="make-me-a-hanzi-animation-9" stroke-dasharray="513 1026" stroke-linecap="round"></path>

      <clipPath id="make-me-a-hanzi-clip-10">
      <path d="M 611.5 421.5 Q 683.5 442.5 685.5 443.5 Q 691.5 450.5 687.5 455.5 Q 683.5 462.5 662.5 467.5 Q 643.5 470.5 577.5 446.5 Q 550.5 439.5 517.5 433.5 Q 492.5 429.5 510.5 417.5 Q 540.5 402.5 579.5 414.5 L 611.5 421.5 Z" fill="lightgray"></path>
      </clipPath>
      <path clip-path="url(#make-me-a-hanzi-clip-10)" d="M 512.5 426.5 L 555.5 424.5 L 651.5 450.5 L 681.5 450.5 " fill="none" id="make-me-a-hanzi-animation-10" stroke-dasharray="301 602" stroke-linecap="round"></path>

      <clipPath id="make-me-a-hanzi-clip-11">
      <path d="M 476.5 220.5 Q 480.5 320.5 493.5 365.5 Q 497.5 378.5 488.5 386.5 Q 475.5 395.5 463.5 399.5 C 436.5 410.5 437.5 403.5 443.5 374.5 Q 455.5 316.5 440.5 230.5 Q 413.5 185.5 414.5 184.5 Q 414.5 177.5 443.5 157.5 Q 453.5 150.5 466.5 161.5 C 474.5 166.5 475.5 190.5 476.5 220.5 Z" fill="lightgray"></path>
      </clipPath>
      <path clip-path="url(#make-me-a-hanzi-clip-11)" d="M 466.5 390.5 L 470.5 371.5 L 460.5 230.5 L 445.5 188.5 L 420.5 183.5 " fill="none" id="make-me-a-hanzi-animation-11" stroke-dasharray="359 718" stroke-linecap="round"></path>

      <clipPath id="make-me-a-hanzi-clip-12">
      <path d="M 632.5 348.5 Q 693.5 363.5 696.5 365.5 Q 702.5 369.5 699.5 376.5 Q 695.5 383.5 675.5 387.5 Q 656.5 391.5 637.5 383.5 Q 636.5 383.5 635.5 382.5 L 588.5 368.5 Q 561.5 362.5 533.5 359.5 Q 509.5 355.5 527.5 344.5 Q 557.5 332.5 588.5 338.5 L 632.5 348.5 Z" fill="lightgray"></path>
      </clipPath>
      <path clip-path="url(#make-me-a-hanzi-clip-12)" d="M 528.5 352.5 L 579.5 350.5 L 648.5 370.5 L 691.5 372.5 " fill="none" id="make-me-a-hanzi-animation-12" stroke-dasharray="294 588" stroke-linecap="round"></path>

      <clipPath id="make-me-a-hanzi-clip-13">
      <path d="M 627.5 276.5 Q 649.5 282.5 673.5 286.5 Q 692.5 290.5 696.5 293.5 Q 702.5 297.5 699.5 304.5 Q 695.5 311.5 676.5 316.5 Q 657.5 320.5 637.5 312.5 Q 631.5 311.5 629.5 309.5 L 588.5 298.5 Q 561.5 294.5 530.5 291.5 Q 506.5 287.5 523.5 276.5 Q 548.5 261.5 585.5 269.5 Q 586.5 270.5 588.5 269.5 L 627.5 276.5 Z" fill="lightgray"></path>
      </clipPath>
      <path clip-path="url(#make-me-a-hanzi-clip-13)" d="M 525.5 284.5 L 574.5 280.5 L 658.5 301.5 L 690.5 301.5 " fill="none" id="make-me-a-hanzi-animation-13" stroke-dasharray="296 592" stroke-linecap="round"></path>

      <clipPath id="make-me-a-hanzi-clip-14">
      <path d="M 624.5 232.5 Q 625.5 254.5 627.5 276.5 L 629.5 309.5 Q 630.5 330.5 632.5 348.5 L 635.5 382.5 Q 639.5 395.5 634.5 402.5 Q 622.5 414.5 611.5 421.5 C 586.5 438.5 570.5 443.5 579.5 414.5 Q 588.5 387.5 588.5 368.5 L 588.5 338.5 Q 588.5 322.5 588.5 298.5 L 588.5 269.5 Q 588.5 250.5 588.5 226.5 C 588.5 196.5 623.5 202.5 624.5 232.5 Z" fill="lightgray"></path>
      </clipPath>
      <path clip-path="url(#make-me-a-hanzi-clip-14)" d="M 586.5 407.5 L 611.5 390.5 L 607.5 255.5 L 604.5 243.5 L 593.5 234.5 " fill="none" id="make-me-a-hanzi-animation-14" stroke-dasharray="320 640" stroke-linecap="round"></path>

      <clipPath id="make-me-a-hanzi-clip-15">
      <path d="M 588.5 226.5 Q 542.5 220.5 499.5 210.5 Q 474.5 203.5 476.5 220.5 C 453.5 239.5 439.5 148.5 466.5 161.5 Q 538.5 200.5 738.5 214.5 Q 757.5 215.5 766.5 207.5 Q 787.5 186.5 749.5 33.5 Q 743.5 17.5 731.5 8.5 Q 725.5 5.5 654.5 18.5 Q 641.5 22.5 640.5 16.5 Q 639.5 9.5 655.5 -1.5 Q 689.5 -31.5 704.5 -57.5 Q 717.5 -79.5 734.5 -67.5 Q 776.5 -40.5 794.5 5.5 Q 830.5 179.5 839.5 188.5 Q 840.5 192.5 845.5 194.5 Q 858.5 207.5 852.5 216.5 Q 842.5 228.5 801.5 248.5 Q 782.5 257.5 708.5 244.5 Q 651.5 238.5 624.5 232.5 L 588.5 226.5 Z" fill="lightgray"></path>
      </clipPath>
      <path clip-path="url(#make-me-a-hanzi-clip-15)" d="M 468.5 168.5 L 493.5 192.5 L 654.5 223.5 L 743.5 233.5 L 775.5 229.5 L 797.5 217.5 L 807.5 205.5 L 799.5 150.5 L 774.5 24.5 L 760.5 -2.5 L 728.5 -27.5 L 670.5 1.5 L 666.5 9.5 L 653.5 8.5 L 647.5 14.5 " fill="none" id="make-me-a-hanzi-animation-15" stroke-dasharray="839 1678" stroke-linecap="round"></path>

      <clipPath id="make-me-a-hanzi-clip-16">
      <path d="M 397.5 122.5 Q 384.5 85.5 362.5 49.5 Q 347.5 21.5 363.5 -2.5 Q 370.5 -15.5 386.5 -5.5 Q 423.5 25.5 420.5 78.5 Q 423.5 103.5 416.5 123.5 Q 412.5 130.5 407.5 130.5 Q 400.5 129.5 397.5 122.5 Z" fill="lightgray"></path>
      </clipPath>
      <path clip-path="url(#make-me-a-hanzi-clip-16)" d="M 407.5 120.5 L 398.5 69.5 L 376.5 3.5 " fill="none" id="make-me-a-hanzi-animation-16" stroke-dasharray="249 498" stroke-linecap="round"></path>

      <clipPath id="make-me-a-hanzi-clip-17">
      <path d="M 473.5 111.5 Q 483.5 48.5 496.5 40.5 Q 503.5 34.5 514.5 43.5 Q 520.5 50.5 521.5 65.5 Q 521.5 78.5 510.5 93.5 Q 494.5 118.5 485.5 125.5 Q 481.5 129.5 476.5 123.5 Q 472.5 119.5 473.5 111.5 Z" fill="lightgray"></path>
      </clipPath>
      <path clip-path="url(#make-me-a-hanzi-clip-17)" d="M 482.5 116.5 L 499.5 77.5 L 503.5 51.5 " fill="none" id="make-me-a-hanzi-animation-17" stroke-dasharray="197 394" stroke-linecap="round"></path>

      <clipPath id="make-me-a-hanzi-clip-18">
      <path d="M 549.5 125.5 Q 567.5 71.5 587.5 61.5 Q 596.5 57.5 605.5 69.5 Q 609.5 78.5 607.5 94.5 Q 603.5 107.5 589.5 118.5 Q 568.5 137.5 558.5 143.5 Q 552.5 146.5 549.5 138.5 Q 546.5 134.5 549.5 125.5 Z" fill="lightgray"></path>
      </clipPath>
      <path clip-path="url(#make-me-a-hanzi-clip-18)" d="M 557.5 134.5 L 592.5 75.5 " fill="none" id="make-me-a-hanzi-animation-18" stroke-dasharray="197 394" stroke-linecap="round"></path>

      <clipPath id="make-me-a-hanzi-clip-19">
      <path d="M 646.5 124.5 Q 682.5 69.5 690.5 66.5 Q 697.5 65.5 703.5 72.5 Q 709.5 81.5 708.5 102.5 Q 708.5 115.5 691.5 131.5 Q 645.5 164.5 637.5 161.5 Q 633.5 160.5 632.5 151.5 Q 632.5 144.5 646.5 124.5 Z" fill="lightgray"></path>
      </clipPath>
      <path clip-path="url(#make-me-a-hanzi-clip-19)" d="M 639.5 154.5 L 687.5 102.5 L 694.5 75.5 " fill="none" id="make-me-a-hanzi-animation-19" stroke-dasharray="227 454" stroke-linecap="round"></path>

</g>
</svg>
