<svg version="1.1" viewBox="0 0 1024 1024" xmlns="http://www.w3.org/2000/svg">
  <g stroke="lightgray" stroke-dasharray="1,1" stroke-width="1" transform="scale(4, 4)">
    <line x1="0" y1="0" x2="256" y2="256"></line>
    <line x1="256" y1="0" x2="0" y2="256"></line>
    <line x1="128" y1="0" x2="128" y2="256"></line>
    <line x1="0" y1="128" x2="256" y2="128"></line>
  </g>
<g transform="scale(1, -1) translate(0, -900)">
   <style type="text/css">
    @keyframes keyframes0 {
      from {
       stroke: blue;
       stroke-dashoffset: 458;
       stroke-width: 128;
       }
       60% {
       animation-timing-function: step-end;
       stroke: blue;
       stroke-dashoffset: 0;
       stroke-width: 128;
       }
       to {
       stroke: black;
       stroke-width: 1024;
       }
       }
       #make-me-a-hanzi-animation-0 {
         animation: keyframes0 0.622721s both;
         animation-delay: 0.000000s;
         animation-timing-function: linear;
       }
    @keyframes keyframes1 {
      from {
       stroke: blue;
       stroke-dashoffset: 646;
       stroke-width: 128;
       }
       68% {
       animation-timing-function: step-end;
       stroke: blue;
       stroke-dashoffset: 0;
       stroke-width: 128;
       }
       to {
       stroke: black;
       stroke-width: 1024;
       }
       }
       #make-me-a-hanzi-animation-1 {
         animation: keyframes1 0.775716s both;
         animation-delay: 0.622721s;
         animation-timing-function: linear;
       }
    @keyframes keyframes2 {
      from {
       stroke: blue;
       stroke-dashoffset: 423;
       stroke-width: 128;
       }
       58% {
       animation-timing-function: step-end;
       stroke: blue;
       stroke-dashoffset: 0;
       stroke-width: 128;
       }
       to {
       stroke: black;
       stroke-width: 1024;
       }
       }
       #make-me-a-hanzi-animation-2 {
         animation: keyframes2 0.594238s both;
         animation-delay: 1.398438s;
         animation-timing-function: linear;
       }
    @keyframes keyframes3 {
      from {
       stroke: blue;
       stroke-dashoffset: 416;
       stroke-width: 128;
       }
       58% {
       animation-timing-function: step-end;
       stroke: blue;
       stroke-dashoffset: 0;
       stroke-width: 128;
       }
       to {
       stroke: black;
       stroke-width: 1024;
       }
       }
       #make-me-a-hanzi-animation-3 {
         animation: keyframes3 0.588542s both;
         animation-delay: 1.992676s;
         animation-timing-function: linear;
       }
    @keyframes keyframes4 {
      from {
       stroke: blue;
       stroke-dashoffset: 536;
       stroke-width: 128;
       }
       64% {
       animation-timing-function: step-end;
       stroke: blue;
       stroke-dashoffset: 0;
       stroke-width: 128;
       }
       to {
       stroke: black;
       stroke-width: 1024;
       }
       }
       #make-me-a-hanzi-animation-4 {
         animation: keyframes4 0.686198s both;
         animation-delay: 2.581217s;
         animation-timing-function: linear;
       }
    @keyframes keyframes5 {
      from {
       stroke: blue;
       stroke-dashoffset: 880;
       stroke-width: 128;
       }
       74% {
       animation-timing-function: step-end;
       stroke: blue;
       stroke-dashoffset: 0;
       stroke-width: 128;
       }
       to {
       stroke: black;
       stroke-width: 1024;
       }
       }
       #make-me-a-hanzi-animation-5 {
         animation: keyframes5 0.966146s both;
         animation-delay: 3.267415s;
         animation-timing-function: linear;
       }
    @keyframes keyframes6 {
      from {
       stroke: blue;
       stroke-dashoffset: 399;
       stroke-width: 128;
       }
       56% {
       animation-timing-function: step-end;
       stroke: blue;
       stroke-dashoffset: 0;
       stroke-width: 128;
       }
       to {
       stroke: black;
       stroke-width: 1024;
       }
       }
       #make-me-a-hanzi-animation-6 {
         animation: keyframes6 0.574707s both;
         animation-delay: 4.233561s;
         animation-timing-function: linear;
       }
    @keyframes keyframes7 {
      from {
       stroke: blue;
       stroke-dashoffset: 357;
       stroke-width: 128;
       }
       54% {
       animation-timing-function: step-end;
       stroke: blue;
       stroke-dashoffset: 0;
       stroke-width: 128;
       }
       to {
       stroke: black;
       stroke-width: 1024;
       }
       }
       #make-me-a-hanzi-animation-7 {
         animation: keyframes7 0.540527s both;
         animation-delay: 4.808268s;
         animation-timing-function: linear;
       }
    @keyframes keyframes8 {
      from {
       stroke: blue;
       stroke-dashoffset: 334;
       stroke-width: 128;
       }
       52% {
       animation-timing-function: step-end;
       stroke: blue;
       stroke-dashoffset: 0;
       stroke-width: 128;
       }
       to {
       stroke: black;
       stroke-width: 1024;
       }
       }
       #make-me-a-hanzi-animation-8 {
         animation: keyframes8 0.521810s both;
         animation-delay: 5.348796s;
         animation-timing-function: linear;
       }
    @keyframes keyframes9 {
      from {
       stroke: blue;
       stroke-dashoffset: 330;
       stroke-width: 128;
       }
       52% {
       animation-timing-function: step-end;
       stroke: blue;
       stroke-dashoffset: 0;
       stroke-width: 128;
       }
       to {
       stroke: black;
       stroke-width: 1024;
       }
       }
       #make-me-a-hanzi-animation-9 {
         animation: keyframes9 0.518555s both;
         animation-delay: 5.870605s;
         animation-timing-function: linear;
       }
    @keyframes keyframes10 {
      from {
       stroke: blue;
       stroke-dashoffset: 501;
       stroke-width: 128;
       }
       62% {
       animation-timing-function: step-end;
       stroke: blue;
       stroke-dashoffset: 0;
       stroke-width: 128;
       }
       to {
       stroke: black;
       stroke-width: 1024;
       }
       }
       #make-me-a-hanzi-animation-10 {
         animation: keyframes10 0.657715s both;
         animation-delay: 6.389160s;
         animation-timing-function: linear;
       }
    @keyframes keyframes11 {
      from {
       stroke: blue;
       stroke-dashoffset: 492;
       stroke-width: 128;
       }
       62% {
       animation-timing-function: step-end;
       stroke: blue;
       stroke-dashoffset: 0;
       stroke-width: 128;
       }
       to {
       stroke: black;
       stroke-width: 1024;
       }
       }
       #make-me-a-hanzi-animation-11 {
         animation: keyframes11 0.650391s both;
         animation-delay: 7.046875s;
         animation-timing-function: linear;
       }
    @keyframes keyframes12 {
      from {
       stroke: blue;
       stroke-dashoffset: 583;
       stroke-width: 128;
       }
       65% {
       animation-timing-function: step-end;
       stroke: blue;
       stroke-dashoffset: 0;
       stroke-width: 128;
       }
       to {
       stroke: black;
       stroke-width: 1024;
       }
       }
       #make-me-a-hanzi-animation-12 {
         animation: keyframes12 0.724447s both;
         animation-delay: 7.697266s;
         animation-timing-function: linear;
       }
    @keyframes keyframes13 {
      from {
       stroke: blue;
       stroke-dashoffset: 329;
       stroke-width: 128;
       }
       52% {
       animation-timing-function: step-end;
       stroke: blue;
       stroke-dashoffset: 0;
       stroke-width: 128;
       }
       to {
       stroke: black;
       stroke-width: 1024;
       }
       }
       #make-me-a-hanzi-animation-13 {
         animation: keyframes13 0.517741s both;
         animation-delay: 8.421712s;
         animation-timing-function: linear;
       }
    @keyframes keyframes14 {
      from {
       stroke: blue;
       stroke-dashoffset: 335;
       stroke-width: 128;
       }
       52% {
       animation-timing-function: step-end;
       stroke: blue;
       stroke-dashoffset: 0;
       stroke-width: 128;
       }
       to {
       stroke: black;
       stroke-width: 1024;
       }
       }
       #make-me-a-hanzi-animation-14 {
         animation: keyframes14 0.522624s both;
         animation-delay: 8.939453s;
         animation-timing-function: linear;
       }
    @keyframes keyframes15 {
      from {
       stroke: blue;
       stroke-dashoffset: 449;
       stroke-width: 128;
       }
       59% {
       animation-timing-function: step-end;
       stroke: blue;
       stroke-dashoffset: 0;
       stroke-width: 128;
       }
       to {
       stroke: black;
       stroke-width: 1024;
       }
       }
       #make-me-a-hanzi-animation-15 {
         animation: keyframes15 0.615397s both;
         animation-delay: 9.462077s;
         animation-timing-function: linear;
       }
    @keyframes keyframes16 {
      from {
       stroke: blue;
       stroke-dashoffset: 673;
       stroke-width: 128;
       }
       69% {
       animation-timing-function: step-end;
       stroke: blue;
       stroke-dashoffset: 0;
       stroke-width: 128;
       }
       to {
       stroke: black;
       stroke-width: 1024;
       }
       }
       #make-me-a-hanzi-animation-16 {
         animation: keyframes16 0.797689s both;
         animation-delay: 10.077474s;
         animation-timing-function: linear;
       }
    @keyframes keyframes17 {
      from {
       stroke: blue;
       stroke-dashoffset: 471;
       stroke-width: 128;
       }
       61% {
       animation-timing-function: step-end;
       stroke: blue;
       stroke-dashoffset: 0;
       stroke-width: 128;
       }
       to {
       stroke: black;
       stroke-width: 1024;
       }
       }
       #make-me-a-hanzi-animation-17 {
         animation: keyframes17 0.633301s both;
         animation-delay: 10.875163s;
         animation-timing-function: linear;
       }
    @keyframes keyframes18 {
      from {
       stroke: blue;
       stroke-dashoffset: 436;
       stroke-width: 128;
       }
       59% {
       animation-timing-function: step-end;
       stroke: blue;
       stroke-dashoffset: 0;
       stroke-width: 128;
       }
       to {
       stroke: black;
       stroke-width: 1024;
       }
       }
       #make-me-a-hanzi-animation-18 {
         animation: keyframes18 0.604818s both;
         animation-delay: 11.508464s;
         animation-timing-function: linear;
       }
    @keyframes keyframes19 {
      from {
       stroke: blue;
       stroke-dashoffset: 683;
       stroke-width: 128;
       }
       69% {
       animation-timing-function: step-end;
       stroke: blue;
       stroke-dashoffset: 0;
       stroke-width: 128;
       }
       to {
       stroke: black;
       stroke-width: 1024;
       }
       }
       #make-me-a-hanzi-animation-19 {
         animation: keyframes19 0.805827s both;
         animation-delay: 12.113281s;
         animation-timing-function: linear;
       }
    @keyframes keyframes20 {
      from {
       stroke: blue;
       stroke-dashoffset: 376;
       stroke-width: 128;
       }
       55% {
       animation-timing-function: step-end;
       stroke: blue;
       stroke-dashoffset: 0;
       stroke-width: 128;
       }
       to {
       stroke: black;
       stroke-width: 1024;
       }
       }
       #make-me-a-hanzi-animation-20 {
         animation: keyframes20 0.555990s both;
         animation-delay: 12.919108s;
         animation-timing-function: linear;
       }
    @keyframes keyframes21 {
      from {
       stroke: blue;
       stroke-dashoffset: 494;
       stroke-width: 128;
       }
       62% {
       animation-timing-function: step-end;
       stroke: blue;
       stroke-dashoffset: 0;
       stroke-width: 128;
       }
       to {
       stroke: black;
       stroke-width: 1024;
       }
       }
       #make-me-a-hanzi-animation-21 {
         animation: keyframes21 0.652018s both;
         animation-delay: 13.475098s;
         animation-timing-function: linear;
       }
    @keyframes keyframes22 {
      from {
       stroke: blue;
       stroke-dashoffset: 418;
       stroke-width: 128;
       }
       58% {
       animation-timing-function: step-end;
       stroke: blue;
       stroke-dashoffset: 0;
       stroke-width: 128;
       }
       to {
       stroke: black;
       stroke-width: 1024;
       }
       }
       #make-me-a-hanzi-animation-22 {
         animation: keyframes22 0.590169s both;
         animation-delay: 14.127116s;
         animation-timing-function: linear;
       }
    @keyframes keyframes23 {
      from {
       stroke: blue;
       stroke-dashoffset: 644;
       stroke-width: 128;
       }
       68% {
       animation-timing-function: step-end;
       stroke: blue;
       stroke-dashoffset: 0;
       stroke-width: 128;
       }
       to {
       stroke: black;
       stroke-width: 1024;
       }
       }
       #make-me-a-hanzi-animation-23 {
         animation: keyframes23 0.774089s both;
         animation-delay: 14.717285s;
         animation-timing-function: linear;
       }
</style>
<path d="M 315.5 705.0 Q 405.5 727.0 409.5 731.0 Q 416.5 737.0 412.5 743.0 Q 408.5 752.0 385.5 757.0 Q 363.5 761.0 340.5 752.0 Q 312.5 742.0 279.5 733.0 Q 245.5 724.0 203.5 720.0 Q 202.5 720.0 202.5 719.0 C 173.5 712.0 173.5 700.0 203.5 699.0 Q 209.5 699.0 277.5 697.0 L 315.5 705.0 Z" fill="lightgray"></path> 
<path d="M 202.5 719.0 Q 201.5 720.0 201.5 722.0 Q 185.5 737.0 161.5 746.0 Q 145.5 750.0 137.5 743.0 Q 133.5 739.0 140.5 728.0 Q 155.5 698.0 155.5 456.0 Q 152.5 420.0 145.5 387.0 Q 141.5 369.0 155.5 356.0 Q 168.5 347.0 194.5 358.0 C 196.5 359.0 195.5 387.0 195.5 417.0 Q 192.5 654.0 203.5 699.0 C 206.5 715.0 206.5 715.0 202.5 719.0 Z" fill="lightgray"></path> 
<path d="M 330.5 604.0 Q 358.5 613.0 388.5 618.0 Q 407.5 622.0 399.5 633.0 Q 389.5 646.0 366.5 648.0 Q 351.5 649.0 332.5 643.0 L 287.5 627.0 Q 256.5 615.0 227.5 604.0 Q 212.5 600.0 232.5 588.0 Q 239.5 582.0 256.5 586.0 Q 271.5 590.0 287.5 593.0 L 330.5 604.0 Z" fill="lightgray"></path> 
<path d="M 325.5 508.0 Q 353.5 514.0 382.5 517.0 Q 404.5 521.0 395.5 533.0 Q 385.5 546.0 361.5 550.0 Q 346.5 551.0 326.5 547.0 L 286.5 535.0 Q 255.5 525.0 228.5 516.0 Q 212.5 512.0 232.5 499.0 Q 235.5 498.0 286.5 501.0 L 325.5 508.0 Z" fill="lightgray"></path> 
<path d="M 321.5 431.0 Q 322.5 471.0 325.5 508.0 L 326.5 547.0 Q 327.5 578.0 330.5 604.0 L 332.5 643.0 Q 335.5 686.0 326.5 696.0 Q 320.5 702.0 315.5 705.0 C 291.5 723.0 270.5 726.0 277.5 697.0 Q 286.5 664.0 287.5 627.0 L 287.5 593.0 Q 287.5 569.0 286.5 535.0 L 286.5 501.0 Q 285.5 467.0 285.5 421.0 C 285.5 391.0 320.5 401.0 321.5 431.0 Z" fill="lightgray"></path> 
<path d="M 194.5 358.0 Q 218.5 379.0 325.5 399.0 Q 347.5 402.0 361.5 394.0 Q 371.5 385.0 353.5 219.0 Q 349.5 170.0 327.5 135.0 Q 321.5 131.0 267.5 144.0 Q 249.5 153.0 249.5 143.0 Q 248.5 139.0 255.5 131.0 Q 292.5 88.0 303.5 60.0 Q 310.5 42.0 326.5 51.0 Q 383.5 78.0 391.5 144.0 Q 404.5 232.0 411.5 327.0 Q 415.5 358.0 430.5 386.0 Q 440.5 401.0 429.5 411.0 Q 413.5 427.0 381.5 443.0 Q 363.5 452.0 321.5 431.0 L 285.5 421.0 Q 258.5 415.0 219.5 402.0 Q 197.5 398.0 195.5 417.0 C 177.5 441.0 168.5 342.0 194.5 358.0 Z" fill="lightgray"></path> 
<path d="M 71.5 299.0 Q 64.5 250.0 47.5 202.0 Q 38.5 172.0 58.5 148.0 Q 68.5 135.0 83.5 150.0 Q 116.5 195.0 103.5 258.0 Q 102.5 286.0 90.5 304.0 Q 84.5 310.0 79.5 309.0 Q 72.5 306.0 71.5 299.0 Z" fill="lightgray"></path> 
<path d="M 142.5 278.0 Q 163.5 199.0 166.5 197.0 Q 170.5 194.0 176.5 197.0 Q 183.5 201.0 188.5 216.0 Q 197.5 240.0 155.5 299.0 Q 151.5 305.0 146.5 305.0 Q 143.5 305.0 140.5 300.0 Q 139.5 294.0 142.5 278.0 Z" fill="lightgray"></path> 
<path d="M 204.5 303.0 Q 225.5 234.0 241.5 227.0 Q 248.5 223.0 258.5 233.0 Q 262.5 240.0 262.5 256.0 Q 259.5 287.0 215.5 319.0 Q 209.5 323.0 205.5 316.0 Q 202.5 312.0 204.5 303.0 Z" fill="lightgray"></path> 
<path d="M 273.5 325.0 Q 295.5 264.0 313.5 254.0 Q 320.5 251.0 329.5 260.0 Q 333.5 267.0 331.5 282.0 Q 328.5 306.0 282.5 340.0 Q 278.5 343.0 274.5 336.0 Q 271.5 332.0 273.5 325.0 Z" fill="lightgray"></path> 
<path d="M 625.5 775.0 Q 653.5 781.0 679.5 785.0 Q 686.5 784.0 692.5 793.0 Q 693.5 802.0 676.5 808.0 Q 652.5 823.0 590.5 801.0 Q 578.5 800.0 567.5 795.0 Q 515.5 783.0 436.5 769.0 Q 417.5 765.0 432.5 754.0 Q 447.5 742.0 464.5 740.0 L 495.5 746.0 Q 535.5 758.0 589.5 768.0 L 625.5 775.0 Z" fill="lightgray"></path> 
<path d="M 464.5 740.0 Q 473.5 722.0 476.5 641.0 Q 475.5 595.0 475.5 508.0 C 475.5 478.0 505.5 487.0 506.5 517.0 Q 507.5 551.0 509.5 580.0 L 510.5 601.0 Q 510.5 626.0 512.5 648.0 L 513.5 673.0 Q 513.5 691.0 515.5 711.0 Q 521.5 727.0 495.5 746.0 C 471.5 765.0 454.5 768.0 464.5 740.0 Z" fill="lightgray"></path> 
<path d="M 600.5 527.0 Q 588.5 503.0 610.5 457.0 Q 614.5 447.0 619.5 445.0 Q 623.5 441.0 627.5 446.0 Q 631.5 449.0 638.5 462.0 Q 641.5 471.0 642.5 551.0 Q 642.5 711.0 649.5 738.0 Q 655.5 748.0 653.5 756.0 Q 649.5 760.0 625.5 775.0 C 600.5 791.0 578.5 796.0 589.5 768.0 Q 604.5 744.0 605.5 554.0 Q 604.5 553.0 604.5 549.0 L 600.5 527.0 Z" fill="lightgray"></path> 
<path d="M 512.5 648.0 Q 515.5 648.0 580.5 667.0 Q 596.5 674.0 588.5 683.0 Q 578.5 692.0 558.5 690.0 Q 539.5 689.0 513.5 673.0 C 487.5 657.0 483.5 642.0 512.5 648.0 Z" fill="lightgray"></path> 
<path d="M 509.5 580.0 Q 510.5 579.0 518.5 581.0 Q 555.5 593.0 584.5 601.0 Q 600.5 607.0 592.5 615.0 Q 582.5 624.0 564.5 623.0 Q 530.5 622.0 510.5 601.0 C 490.5 581.0 490.5 581.0 509.5 580.0 Z" fill="lightgray"></path> 
<path d="M 475.5 508.0 Q 463.5 507.0 454.5 502.0 Q 441.5 498.0 421.5 498.0 Q 412.5 497.0 411.5 490.0 Q 410.5 481.0 416.5 476.0 Q 432.5 466.0 454.5 454.0 Q 461.5 453.0 468.5 458.0 Q 499.5 482.0 600.5 527.0 C 627.5 539.0 633.5 558.0 604.5 549.0 Q 556.5 534.0 506.5 517.0 L 475.5 508.0 Z" fill="lightgray"></path> 
<path d="M 731.5 571.0 Q 706.5 544.0 666.5 508.0 Q 656.5 498.0 667.5 498.0 Q 701.5 505.0 752.5 548.0 Q 755.5 552.0 760.5 555.0 L 789.5 585.0 Q 807.5 603.0 837.5 645.0 Q 850.5 667.0 876.5 691.0 Q 888.5 700.0 883.5 707.0 Q 882.5 714.0 833.5 730.0 Q 821.5 736.0 781.5 712.0 Q 712.5 688.0 664.5 675.0 Q 648.5 672.0 660.5 662.0 Q 679.5 649.0 710.5 659.0 Q 788.5 684.0 794.5 679.0 Q 797.5 675.0 789.5 660.0 Q 774.5 629.0 751.5 597.0 L 731.5 571.0 Z" fill="lightgray"></path> 
<path d="M 760.5 555.0 Q 800.5 533.0 845.5 504.0 Q 858.5 494.0 869.5 494.0 Q 875.5 494.0 878.5 502.0 Q 884.5 512.0 869.5 538.0 Q 856.5 562.0 789.5 585.0 L 751.5 597.0 Q 705.5 612.0 678.5 617.0 Q 671.5 618.0 672.5 611.0 Q 673.5 602.0 683.5 597.0 Q 705.5 587.0 731.5 571.0 L 760.5 555.0 Z" fill="lightgray"></path> 
<path d="M 621.5 385.0 Q 652.5 395.0 677.5 410.0 Q 701.5 422.0 712.5 427.0 Q 722.5 433.0 723.5 440.0 Q 723.5 450.0 707.5 461.0 Q 689.5 474.0 679.5 476.0 Q 675.5 476.0 669.5 468.0 Q 653.5 431.0 540.5 384.0 Q 521.5 378.0 542.5 374.0 Q 554.5 371.0 598.5 378.0 L 621.5 385.0 Z" fill="lightgray"></path> 
<path d="M 654.5 314.0 Q 657.5 360.0 654.5 363.0 Q 636.5 379.0 621.5 385.0 C 594.5 399.0 585.5 403.0 598.5 378.0 Q 598.5 377.0 601.5 373.0 Q 623.5 334.0 607.5 106.0 Q 604.5 93.0 603.5 81.0 Q 603.5 59.0 599.5 48.0 Q 590.5 20.0 621.5 -27.0 Q 631.5 -43.0 637.5 -46.0 Q 647.5 -47.0 651.5 -36.0 Q 661.5 -8.0 658.5 17.0 Q 652.5 152.0 653.5 288.0 L 654.5 314.0 Z" fill="lightgray"></path> 
<path d="M 500.5 344.0 Q 494.5 314.0 440.5 260.0 Q 428.5 250.0 444.5 253.0 Q 471.5 253.0 544.5 325.0 Q 550.5 332.0 548.5 338.0 Q 547.5 345.0 530.5 350.0 Q 514.5 354.0 506.5 353.0 Q 502.5 352.0 500.5 344.0 Z" fill="lightgray"></path> 
<path d="M 531.5 262.0 Q 537.5 240.0 485.5 165.0 Q 460.5 132.0 425.5 97.0 Q 418.5 91.0 415.5 87.0 Q 412.5 80.0 422.5 80.0 Q 461.5 80.0 559.5 191.0 Q 574.5 209.0 585.5 216.0 Q 592.5 223.0 590.5 233.0 Q 589.5 242.0 571.5 261.0 Q 553.5 276.0 540.5 277.0 Q 527.5 278.0 531.5 262.0 Z" fill="lightgray"></path> 
<path d="M 702.5 272.0 Q 781.5 330.0 822.5 353.0 Q 838.5 357.0 834.5 367.0 Q 830.5 380.0 812.5 397.0 Q 796.5 413.0 775.5 416.0 Q 762.5 415.0 762.5 398.0 Q 765.5 385.0 757.5 371.0 Q 733.5 337.0 688.5 284.0 C 669.5 261.0 678.5 254.0 702.5 272.0 Z" fill="lightgray"></path> 
<path d="M 688.5 284.0 Q 663.5 308.0 654.5 314.0 C 630.5 333.0 635.5 312.0 653.5 288.0 Q 783.5 117.0 827.5 107.0 Q 935.5 107.0 966.5 112.0 Q 982.5 113.0 984.5 118.0 Q 985.5 124.0 973.5 129.0 Q 811.5 190.0 745.5 238.0 Q 708.5 269.0 702.5 272.0 L 688.5 284.0 Z" fill="lightgray"></path> 
      <clipPath id="make-me-a-hanzi-clip-0">
      <path d="M 315.5 705.0 Q 405.5 727.0 409.5 731.0 Q 416.5 737.0 412.5 743.0 Q 408.5 752.0 385.5 757.0 Q 363.5 761.0 340.5 752.0 Q 312.5 742.0 279.5 733.0 Q 245.5 724.0 203.5 720.0 Q 202.5 720.0 202.5 719.0 C 173.5 712.0 173.5 700.0 203.5 699.0 Q 209.5 699.0 277.5 697.0 L 315.5 705.0 Z" fill="lightgray"></path>
      </clipPath>
      <path clip-path="url(#make-me-a-hanzi-clip-0)" d="M 206.5 704.0 L 229.5 712.0 L 265.5 711.0 L 353.5 736.0 L 403.5 739.0 " fill="none" id="make-me-a-hanzi-animation-0" stroke-dasharray="330 660" stroke-linecap="round"></path>

      <clipPath id="make-me-a-hanzi-clip-1">
      <path d="M 202.5 719.0 Q 201.5 720.0 201.5 722.0 Q 185.5 737.0 161.5 746.0 Q 145.5 750.0 137.5 743.0 Q 133.5 739.0 140.5 728.0 Q 155.5 698.0 155.5 456.0 Q 152.5 420.0 145.5 387.0 Q 141.5 369.0 155.5 356.0 Q 168.5 347.0 194.5 358.0 C 196.5 359.0 195.5 387.0 195.5 417.0 Q 192.5 654.0 203.5 699.0 C 206.5 715.0 206.5 715.0 202.5 719.0 Z" fill="lightgray"></path>
      </clipPath>
      <path clip-path="url(#make-me-a-hanzi-clip-1)" d="M 145.5 737.0 L 161.5 726.0 L 175.5 702.0 L 177.5 455.0 L 170.5 376.0 L 183.5 366.0 " fill="none" id="make-me-a-hanzi-animation-1" stroke-dasharray="518 1036" stroke-linecap="round"></path>

      <clipPath id="make-me-a-hanzi-clip-2">
      <path d="M 330.5 604.0 Q 358.5 613.0 388.5 618.0 Q 407.5 622.0 399.5 633.0 Q 389.5 646.0 366.5 648.0 Q 351.5 649.0 332.5 643.0 L 287.5 627.0 Q 256.5 615.0 227.5 604.0 Q 212.5 600.0 232.5 588.0 Q 239.5 582.0 256.5 586.0 Q 271.5 590.0 287.5 593.0 L 330.5 604.0 Z" fill="lightgray"></path>
      </clipPath>
      <path clip-path="url(#make-me-a-hanzi-clip-2)" d="M 229.5 596.0 L 352.5 630.0 L 391.5 627.0 " fill="none" id="make-me-a-hanzi-animation-2" stroke-dasharray="295 590" stroke-linecap="round"></path>

      <clipPath id="make-me-a-hanzi-clip-3">
      <path d="M 325.5 508.0 Q 353.5 514.0 382.5 517.0 Q 404.5 521.0 395.5 533.0 Q 385.5 546.0 361.5 550.0 Q 346.5 551.0 326.5 547.0 L 286.5 535.0 Q 255.5 525.0 228.5 516.0 Q 212.5 512.0 232.5 499.0 Q 235.5 498.0 286.5 501.0 L 325.5 508.0 Z" fill="lightgray"></path>
      </clipPath>
      <path clip-path="url(#make-me-a-hanzi-clip-3)" d="M 229.5 507.0 L 335.5 530.0 L 364.5 533.0 L 386.5 527.0 " fill="none" id="make-me-a-hanzi-animation-3" stroke-dasharray="288 576" stroke-linecap="round"></path>

      <clipPath id="make-me-a-hanzi-clip-4">
      <path d="M 321.5 431.0 Q 322.5 471.0 325.5 508.0 L 326.5 547.0 Q 327.5 578.0 330.5 604.0 L 332.5 643.0 Q 335.5 686.0 326.5 696.0 Q 320.5 702.0 315.5 705.0 C 291.5 723.0 270.5 726.0 277.5 697.0 Q 286.5 664.0 287.5 627.0 L 287.5 593.0 Q 287.5 569.0 286.5 535.0 L 286.5 501.0 Q 285.5 467.0 285.5 421.0 C 285.5 391.0 320.5 401.0 321.5 431.0 Z" fill="lightgray"></path>
      </clipPath>
      <path clip-path="url(#make-me-a-hanzi-clip-4)" d="M 285.5 692.0 L 307.5 678.0 L 309.5 651.0 L 304.5 455.0 L 289.5 428.0 " fill="none" id="make-me-a-hanzi-animation-4" stroke-dasharray="408 816" stroke-linecap="round"></path>

      <clipPath id="make-me-a-hanzi-clip-5">
      <path d="M 194.5 358.0 Q 218.5 379.0 325.5 399.0 Q 347.5 402.0 361.5 394.0 Q 371.5 385.0 353.5 219.0 Q 349.5 170.0 327.5 135.0 Q 321.5 131.0 267.5 144.0 Q 249.5 153.0 249.5 143.0 Q 248.5 139.0 255.5 131.0 Q 292.5 88.0 303.5 60.0 Q 310.5 42.0 326.5 51.0 Q 383.5 78.0 391.5 144.0 Q 404.5 232.0 411.5 327.0 Q 415.5 358.0 430.5 386.0 Q 440.5 401.0 429.5 411.0 Q 413.5 427.0 381.5 443.0 Q 363.5 452.0 321.5 431.0 L 285.5 421.0 Q 258.5 415.0 219.5 402.0 Q 197.5 398.0 195.5 417.0 C 177.5 441.0 168.5 342.0 194.5 358.0 Z" fill="lightgray"></path>
      </clipPath>
      <path clip-path="url(#make-me-a-hanzi-clip-5)" d="M 197.5 410.0 L 200.5 395.0 L 221.5 387.0 L 355.5 421.0 L 376.5 416.0 L 397.5 393.0 L 373.5 184.0 L 353.5 119.0 L 327.5 96.0 L 258.5 140.0 " fill="none" id="make-me-a-hanzi-animation-5" stroke-dasharray="752 1504" stroke-linecap="round"></path>

      <clipPath id="make-me-a-hanzi-clip-6">
      <path d="M 71.5 299.0 Q 64.5 250.0 47.5 202.0 Q 38.5 172.0 58.5 148.0 Q 68.5 135.0 83.5 150.0 Q 116.5 195.0 103.5 258.0 Q 102.5 286.0 90.5 304.0 Q 84.5 310.0 79.5 309.0 Q 72.5 306.0 71.5 299.0 Z" fill="lightgray"></path>
      </clipPath>
      <path clip-path="url(#make-me-a-hanzi-clip-6)" d="M 81.5 299.0 L 85.5 265.0 L 70.5 157.0 " fill="none" id="make-me-a-hanzi-animation-6" stroke-dasharray="271 542" stroke-linecap="round"></path>

      <clipPath id="make-me-a-hanzi-clip-7">
      <path d="M 142.5 278.0 Q 163.5 199.0 166.5 197.0 Q 170.5 194.0 176.5 197.0 Q 183.5 201.0 188.5 216.0 Q 197.5 240.0 155.5 299.0 Q 151.5 305.0 146.5 305.0 Q 143.5 305.0 140.5 300.0 Q 139.5 294.0 142.5 278.0 Z" fill="lightgray"></path>
      </clipPath>
      <path clip-path="url(#make-me-a-hanzi-clip-7)" d="M 147.5 297.0 L 173.5 229.0 L 171.5 201.0 " fill="none" id="make-me-a-hanzi-animation-7" stroke-dasharray="229 458" stroke-linecap="round"></path>

      <clipPath id="make-me-a-hanzi-clip-8">
      <path d="M 204.5 303.0 Q 225.5 234.0 241.5 227.0 Q 248.5 223.0 258.5 233.0 Q 262.5 240.0 262.5 256.0 Q 259.5 287.0 215.5 319.0 Q 209.5 323.0 205.5 316.0 Q 202.5 312.0 204.5 303.0 Z" fill="lightgray"></path>
      </clipPath>
      <path clip-path="url(#make-me-a-hanzi-clip-8)" d="M 213.5 309.0 L 242.5 258.0 L 246.5 239.0 " fill="none" id="make-me-a-hanzi-animation-8" stroke-dasharray="206 412" stroke-linecap="round"></path>

      <clipPath id="make-me-a-hanzi-clip-9">
      <path d="M 273.5 325.0 Q 295.5 264.0 313.5 254.0 Q 320.5 251.0 329.5 260.0 Q 333.5 267.0 331.5 282.0 Q 328.5 306.0 282.5 340.0 Q 278.5 343.0 274.5 336.0 Q 271.5 332.0 273.5 325.0 Z" fill="lightgray"></path>
      </clipPath>
      <path clip-path="url(#make-me-a-hanzi-clip-9)" d="M 282.5 330.0 L 304.5 298.0 L 317.5 265.0 " fill="none" id="make-me-a-hanzi-animation-9" stroke-dasharray="202 404" stroke-linecap="round"></path>

      <clipPath id="make-me-a-hanzi-clip-10">
      <path d="M 625.5 775.0 Q 653.5 781.0 679.5 785.0 Q 686.5 784.0 692.5 793.0 Q 693.5 802.0 676.5 808.0 Q 652.5 823.0 590.5 801.0 Q 578.5 800.0 567.5 795.0 Q 515.5 783.0 436.5 769.0 Q 417.5 765.0 432.5 754.0 Q 447.5 742.0 464.5 740.0 L 495.5 746.0 Q 535.5 758.0 589.5 768.0 L 625.5 775.0 Z" fill="lightgray"></path>
      </clipPath>
      <path clip-path="url(#make-me-a-hanzi-clip-10)" d="M 443.5 759.0 L 469.5 757.0 L 649.5 798.0 L 683.5 794.0 " fill="none" id="make-me-a-hanzi-animation-10" stroke-dasharray="373 746" stroke-linecap="round"></path>

      <clipPath id="make-me-a-hanzi-clip-11">
      <path d="M 464.5 740.0 Q 473.5 722.0 476.5 641.0 Q 475.5 595.0 475.5 508.0 C 475.5 478.0 505.5 487.0 506.5 517.0 Q 507.5 551.0 509.5 580.0 L 510.5 601.0 Q 510.5 626.0 512.5 648.0 L 513.5 673.0 Q 513.5 691.0 515.5 711.0 Q 521.5 727.0 495.5 746.0 C 471.5 765.0 454.5 768.0 464.5 740.0 Z" fill="lightgray"></path>
      </clipPath>
      <path clip-path="url(#make-me-a-hanzi-clip-11)" d="M 472.5 739.0 L 493.5 717.0 L 492.5 542.0 L 491.5 529.0 L 478.5 517.0 " fill="none" id="make-me-a-hanzi-animation-11" stroke-dasharray="364 728" stroke-linecap="round"></path>

      <clipPath id="make-me-a-hanzi-clip-12">
      <path d="M 600.5 527.0 Q 588.5 503.0 610.5 457.0 Q 614.5 447.0 619.5 445.0 Q 623.5 441.0 627.5 446.0 Q 631.5 449.0 638.5 462.0 Q 641.5 471.0 642.5 551.0 Q 642.5 711.0 649.5 738.0 Q 655.5 748.0 653.5 756.0 Q 649.5 760.0 625.5 775.0 C 600.5 791.0 578.5 796.0 589.5 768.0 Q 604.5 744.0 605.5 554.0 Q 604.5 553.0 604.5 549.0 L 600.5 527.0 Z" fill="lightgray"></path>
      </clipPath>
      <path clip-path="url(#make-me-a-hanzi-clip-12)" d="M 595.5 768.0 L 623.5 745.0 L 624.5 539.0 L 618.5 509.0 L 622.5 455.0 " fill="none" id="make-me-a-hanzi-animation-12" stroke-dasharray="455 910" stroke-linecap="round"></path>

      <clipPath id="make-me-a-hanzi-clip-13">
      <path d="M 512.5 648.0 Q 515.5 648.0 580.5 667.0 Q 596.5 674.0 588.5 683.0 Q 578.5 692.0 558.5 690.0 Q 539.5 689.0 513.5 673.0 C 487.5 657.0 483.5 642.0 512.5 648.0 Z" fill="lightgray"></path>
      </clipPath>
      <path clip-path="url(#make-me-a-hanzi-clip-13)" d="M 513.5 654.0 L 537.5 670.0 L 581.5 677.0 " fill="none" id="make-me-a-hanzi-animation-13" stroke-dasharray="201 402" stroke-linecap="round"></path>

      <clipPath id="make-me-a-hanzi-clip-14">
      <path d="M 509.5 580.0 Q 510.5 579.0 518.5 581.0 Q 555.5 593.0 584.5 601.0 Q 600.5 607.0 592.5 615.0 Q 582.5 624.0 564.5 623.0 Q 530.5 622.0 510.5 601.0 C 490.5 581.0 490.5 581.0 509.5 580.0 Z" fill="lightgray"></path>
      </clipPath>
      <path clip-path="url(#make-me-a-hanzi-clip-14)" d="M 513.5 585.0 L 545.5 606.0 L 586.5 609.0 " fill="none" id="make-me-a-hanzi-animation-14" stroke-dasharray="207 414" stroke-linecap="round"></path>

      <clipPath id="make-me-a-hanzi-clip-15">
      <path d="M 475.5 508.0 Q 463.5 507.0 454.5 502.0 Q 441.5 498.0 421.5 498.0 Q 412.5 497.0 411.5 490.0 Q 410.5 481.0 416.5 476.0 Q 432.5 466.0 454.5 454.0 Q 461.5 453.0 468.5 458.0 Q 499.5 482.0 600.5 527.0 C 627.5 539.0 633.5 558.0 604.5 549.0 Q 556.5 534.0 506.5 517.0 L 475.5 508.0 Z" fill="lightgray"></path>
      </clipPath>
      <path clip-path="url(#make-me-a-hanzi-clip-15)" d="M 422.5 486.0 L 454.5 479.0 L 587.5 531.0 L 598.5 544.0 " fill="none" id="make-me-a-hanzi-animation-15" stroke-dasharray="321 642" stroke-linecap="round"></path>

      <clipPath id="make-me-a-hanzi-clip-16">
      <path d="M 731.5 571.0 Q 706.5 544.0 666.5 508.0 Q 656.5 498.0 667.5 498.0 Q 701.5 505.0 752.5 548.0 Q 755.5 552.0 760.5 555.0 L 789.5 585.0 Q 807.5 603.0 837.5 645.0 Q 850.5 667.0 876.5 691.0 Q 888.5 700.0 883.5 707.0 Q 882.5 714.0 833.5 730.0 Q 821.5 736.0 781.5 712.0 Q 712.5 688.0 664.5 675.0 Q 648.5 672.0 660.5 662.0 Q 679.5 649.0 710.5 659.0 Q 788.5 684.0 794.5 679.0 Q 797.5 675.0 789.5 660.0 Q 774.5 629.0 751.5 597.0 L 731.5 571.0 Z" fill="lightgray"></path>
      </clipPath>
      <path clip-path="url(#make-me-a-hanzi-clip-16)" d="M 669.5 666.0 L 719.5 674.0 L 799.5 700.0 L 828.5 694.0 L 812.5 651.0 L 779.5 602.0 L 724.5 541.0 L 671.5 503.0 " fill="none" id="make-me-a-hanzi-animation-16" stroke-dasharray="545 1090" stroke-linecap="round"></path>

      <clipPath id="make-me-a-hanzi-clip-17">
      <path d="M 760.5 555.0 Q 800.5 533.0 845.5 504.0 Q 858.5 494.0 869.5 494.0 Q 875.5 494.0 878.5 502.0 Q 884.5 512.0 869.5 538.0 Q 856.5 562.0 789.5 585.0 L 751.5 597.0 Q 705.5 612.0 678.5 617.0 Q 671.5 618.0 672.5 611.0 Q 673.5 602.0 683.5 597.0 Q 705.5 587.0 731.5 571.0 L 760.5 555.0 Z" fill="lightgray"></path>
      </clipPath>
      <path clip-path="url(#make-me-a-hanzi-clip-17)" d="M 680.5 609.0 L 793.5 563.0 L 843.5 533.0 L 866.5 507.0 " fill="none" id="make-me-a-hanzi-animation-17" stroke-dasharray="343 686" stroke-linecap="round"></path>

      <clipPath id="make-me-a-hanzi-clip-18">
      <path d="M 621.5 385.0 Q 652.5 395.0 677.5 410.0 Q 701.5 422.0 712.5 427.0 Q 722.5 433.0 723.5 440.0 Q 723.5 450.0 707.5 461.0 Q 689.5 474.0 679.5 476.0 Q 675.5 476.0 669.5 468.0 Q 653.5 431.0 540.5 384.0 Q 521.5 378.0 542.5 374.0 Q 554.5 371.0 598.5 378.0 L 621.5 385.0 Z" fill="lightgray"></path>
      </clipPath>
      <path clip-path="url(#make-me-a-hanzi-clip-18)" d="M 711.5 441.0 L 686.5 444.0 L 623.5 403.0 L 547.5 380.0 " fill="none" id="make-me-a-hanzi-animation-18" stroke-dasharray="308 616" stroke-linecap="round"></path>

      <clipPath id="make-me-a-hanzi-clip-19">
      <path d="M 654.5 314.0 Q 657.5 360.0 654.5 363.0 Q 636.5 379.0 621.5 385.0 C 594.5 399.0 585.5 403.0 598.5 378.0 Q 598.5 377.0 601.5 373.0 Q 623.5 334.0 607.5 106.0 Q 604.5 93.0 603.5 81.0 Q 603.5 59.0 599.5 48.0 Q 590.5 20.0 621.5 -27.0 Q 631.5 -43.0 637.5 -46.0 Q 647.5 -47.0 651.5 -36.0 Q 661.5 -8.0 658.5 17.0 Q 652.5 152.0 653.5 288.0 L 654.5 314.0 Z" fill="lightgray"></path>
      </clipPath>
      <path clip-path="url(#make-me-a-hanzi-clip-19)" d="M 604.5 378.0 L 620.5 369.0 L 633.5 342.0 L 627.5 32.0 L 639.5 -36.0 " fill="none" id="make-me-a-hanzi-animation-19" stroke-dasharray="555 1110" stroke-linecap="round"></path>

      <clipPath id="make-me-a-hanzi-clip-20">
      <path d="M 500.5 344.0 Q 494.5 314.0 440.5 260.0 Q 428.5 250.0 444.5 253.0 Q 471.5 253.0 544.5 325.0 Q 550.5 332.0 548.5 338.0 Q 547.5 345.0 530.5 350.0 Q 514.5 354.0 506.5 353.0 Q 502.5 352.0 500.5 344.0 Z" fill="lightgray"></path>
      </clipPath>
      <path clip-path="url(#make-me-a-hanzi-clip-20)" d="M 537.5 334.0 L 519.5 330.0 L 482.5 286.0 L 447.5 259.0 " fill="none" id="make-me-a-hanzi-animation-20" stroke-dasharray="248 496" stroke-linecap="round"></path>

      <clipPath id="make-me-a-hanzi-clip-21">
      <path d="M 531.5 262.0 Q 537.5 240.0 485.5 165.0 Q 460.5 132.0 425.5 97.0 Q 418.5 91.0 415.5 87.0 Q 412.5 80.0 422.5 80.0 Q 461.5 80.0 559.5 191.0 Q 574.5 209.0 585.5 216.0 Q 592.5 223.0 590.5 233.0 Q 589.5 242.0 571.5 261.0 Q 553.5 276.0 540.5 277.0 Q 527.5 278.0 531.5 262.0 Z" fill="lightgray"></path>
      </clipPath>
      <path clip-path="url(#make-me-a-hanzi-clip-21)" d="M 538.5 268.0 L 557.5 232.0 L 545.5 213.0 L 483.5 135.0 L 444.5 99.0 L 424.5 89.0 " fill="none" id="make-me-a-hanzi-animation-21" stroke-dasharray="366 732" stroke-linecap="round"></path>

      <clipPath id="make-me-a-hanzi-clip-22">
      <path d="M 702.5 272.0 Q 781.5 330.0 822.5 353.0 Q 838.5 357.0 834.5 367.0 Q 830.5 380.0 812.5 397.0 Q 796.5 413.0 775.5 416.0 Q 762.5 415.0 762.5 398.0 Q 765.5 385.0 757.5 371.0 Q 733.5 337.0 688.5 284.0 C 669.5 261.0 678.5 254.0 702.5 272.0 Z" fill="lightgray"></path>
      </clipPath>
      <path clip-path="url(#make-me-a-hanzi-clip-22)" d="M 776.5 401.0 L 792.5 372.0 L 705.5 287.0 L 698.5 288.0 " fill="none" id="make-me-a-hanzi-animation-22" stroke-dasharray="290 580" stroke-linecap="round"></path>

      <clipPath id="make-me-a-hanzi-clip-23">
      <path d="M 688.5 284.0 Q 663.5 308.0 654.5 314.0 C 630.5 333.0 635.5 312.0 653.5 288.0 Q 783.5 117.0 827.5 107.0 Q 935.5 107.0 966.5 112.0 Q 982.5 113.0 984.5 118.0 Q 985.5 124.0 973.5 129.0 Q 811.5 190.0 745.5 238.0 Q 708.5 269.0 702.5 272.0 L 688.5 284.0 Z" fill="lightgray"></path>
      </clipPath>
      <path clip-path="url(#make-me-a-hanzi-clip-23)" d="M 655.5 307.0 L 668.5 283.0 L 703.5 248.0 L 818.5 154.0 L 860.5 139.0 L 977.5 122.0 " fill="none" id="make-me-a-hanzi-animation-23" stroke-dasharray="516 1032" stroke-linecap="round"></path>

</g>
</svg>
