<svg version="1.1" viewBox="0 0 1024 1024" xmlns="http://www.w3.org/2000/svg">
  <g stroke="lightgray" stroke-dasharray="1,1" stroke-width="1" transform="scale(4, 4)">
    <line x1="0" y1="0" x2="256" y2="256"></line>
    <line x1="256" y1="0" x2="0" y2="256"></line>
    <line x1="128" y1="0" x2="128" y2="256"></line>
    <line x1="0" y1="128" x2="256" y2="128"></line>
  </g>
<g transform="scale(0.92, -0.92) translate(60, -900)">
   <style type="text/css">
    @keyframes keyframes0 {
      from {
       stroke: blue;
       stroke-dashoffset: 506;
       stroke-width: 128;
       }
       62% {
       animation-timing-function: step-end;
       stroke: blue;
       stroke-dashoffset: 0;
       stroke-width: 128;
       }
       to {
       stroke: black;
       stroke-width: 1024;
       }
       }
       #make-me-a-hanzi-animation-0 {
         animation: keyframes0 0.661784s both;
         animation-delay: 0.000000s;
         animation-timing-function: linear;
       }
    @keyframes keyframes1 {
      from {
       stroke: blue;
       stroke-dashoffset: 657;
       stroke-width: 128;
       }
       68% {
       animation-timing-function: step-end;
       stroke: blue;
       stroke-dashoffset: 0;
       stroke-width: 128;
       }
       to {
       stroke: black;
       stroke-width: 1024;
       }
       }
       #make-me-a-hanzi-animation-1 {
         animation: keyframes1 0.784668s both;
         animation-delay: 0.661784s;
         animation-timing-function: linear;
       }
    @keyframes keyframes2 {
      from {
       stroke: blue;
       stroke-dashoffset: 473;
       stroke-width: 128;
       }
       61% {
       animation-timing-function: step-end;
       stroke: blue;
       stroke-dashoffset: 0;
       stroke-width: 128;
       }
       to {
       stroke: black;
       stroke-width: 1024;
       }
       }
       #make-me-a-hanzi-animation-2 {
         animation: keyframes2 0.634928s both;
         animation-delay: 1.446452s;
         animation-timing-function: linear;
       }
    @keyframes keyframes3 {
      from {
       stroke: blue;
       stroke-dashoffset: 489;
       stroke-width: 128;
       }
       61% {
       animation-timing-function: step-end;
       stroke: blue;
       stroke-dashoffset: 0;
       stroke-width: 128;
       }
       to {
       stroke: black;
       stroke-width: 1024;
       }
       }
       #make-me-a-hanzi-animation-3 {
         animation: keyframes3 0.647949s both;
         animation-delay: 2.081380s;
         animation-timing-function: linear;
       }
    @keyframes keyframes4 {
      from {
       stroke: blue;
       stroke-dashoffset: 561;
       stroke-width: 128;
       }
       65% {
       animation-timing-function: step-end;
       stroke: blue;
       stroke-dashoffset: 0;
       stroke-width: 128;
       }
       to {
       stroke: black;
       stroke-width: 1024;
       }
       }
       #make-me-a-hanzi-animation-4 {
         animation: keyframes4 0.706543s both;
         animation-delay: 2.729329s;
         animation-timing-function: linear;
       }
    @keyframes keyframes5 {
      from {
       stroke: blue;
       stroke-dashoffset: 955;
       stroke-width: 128;
       }
       76% {
       animation-timing-function: step-end;
       stroke: blue;
       stroke-dashoffset: 0;
       stroke-width: 128;
       }
       to {
       stroke: black;
       stroke-width: 1024;
       }
       }
       #make-me-a-hanzi-animation-5 {
         animation: keyframes5 1.027181s both;
         animation-delay: 3.435872s;
         animation-timing-function: linear;
       }
    @keyframes keyframes6 {
      from {
       stroke: blue;
       stroke-dashoffset: 413;
       stroke-width: 128;
       }
       57% {
       animation-timing-function: step-end;
       stroke: blue;
       stroke-dashoffset: 0;
       stroke-width: 128;
       }
       to {
       stroke: black;
       stroke-width: 1024;
       }
       }
       #make-me-a-hanzi-animation-6 {
         animation: keyframes6 0.586100s both;
         animation-delay: 4.463053s;
         animation-timing-function: linear;
       }
    @keyframes keyframes7 {
      from {
       stroke: blue;
       stroke-dashoffset: 362;
       stroke-width: 128;
       }
       54% {
       animation-timing-function: step-end;
       stroke: blue;
       stroke-dashoffset: 0;
       stroke-width: 128;
       }
       to {
       stroke: black;
       stroke-width: 1024;
       }
       }
       #make-me-a-hanzi-animation-7 {
         animation: keyframes7 0.544596s both;
         animation-delay: 5.049154s;
         animation-timing-function: linear;
       }
    @keyframes keyframes8 {
      from {
       stroke: blue;
       stroke-dashoffset: 356;
       stroke-width: 128;
       }
       54% {
       animation-timing-function: step-end;
       stroke: blue;
       stroke-dashoffset: 0;
       stroke-width: 128;
       }
       to {
       stroke: black;
       stroke-width: 1024;
       }
       }
       #make-me-a-hanzi-animation-8 {
         animation: keyframes8 0.539714s both;
         animation-delay: 5.593750s;
         animation-timing-function: linear;
       }
    @keyframes keyframes9 {
      from {
       stroke: blue;
       stroke-dashoffset: 358;
       stroke-width: 128;
       }
       54% {
       animation-timing-function: step-end;
       stroke: blue;
       stroke-dashoffset: 0;
       stroke-width: 128;
       }
       to {
       stroke: black;
       stroke-width: 1024;
       }
       }
       #make-me-a-hanzi-animation-9 {
         animation: keyframes9 0.541341s both;
         animation-delay: 6.133464s;
         animation-timing-function: linear;
       }
    @keyframes keyframes10 {
      from {
       stroke: blue;
       stroke-dashoffset: 358;
       stroke-width: 128;
       }
       54% {
       animation-timing-function: step-end;
       stroke: blue;
       stroke-dashoffset: 0;
       stroke-width: 128;
       }
       to {
       stroke: black;
       stroke-width: 1024;
       }
       }
       #make-me-a-hanzi-animation-10 {
         animation: keyframes10 0.541341s both;
         animation-delay: 6.674805s;
         animation-timing-function: linear;
       }
    @keyframes keyframes11 {
      from {
       stroke: blue;
       stroke-dashoffset: 701;
       stroke-width: 128;
       }
       70% {
       animation-timing-function: step-end;
       stroke: blue;
       stroke-dashoffset: 0;
       stroke-width: 128;
       }
       to {
       stroke: black;
       stroke-width: 1024;
       }
       }
       #make-me-a-hanzi-animation-11 {
         animation: keyframes11 0.820475s both;
         animation-delay: 7.216146s;
         animation-timing-function: linear;
       }
    @keyframes keyframes12 {
      from {
       stroke: blue;
       stroke-dashoffset: 379;
       stroke-width: 128;
       }
       55% {
       animation-timing-function: step-end;
       stroke: blue;
       stroke-dashoffset: 0;
       stroke-width: 128;
       }
       to {
       stroke: black;
       stroke-width: 1024;
       }
       }
       #make-me-a-hanzi-animation-12 {
         animation: keyframes12 0.558431s both;
         animation-delay: 8.036621s;
         animation-timing-function: linear;
       }
    @keyframes keyframes13 {
      from {
       stroke: blue;
       stroke-dashoffset: 439;
       stroke-width: 128;
       }
       59% {
       animation-timing-function: step-end;
       stroke: blue;
       stroke-dashoffset: 0;
       stroke-width: 128;
       }
       to {
       stroke: black;
       stroke-width: 1024;
       }
       }
       #make-me-a-hanzi-animation-13 {
         animation: keyframes13 0.607259s both;
         animation-delay: 8.595052s;
         animation-timing-function: linear;
       }
    @keyframes keyframes14 {
      from {
       stroke: blue;
       stroke-dashoffset: 360;
       stroke-width: 128;
       }
       54% {
       animation-timing-function: step-end;
       stroke: blue;
       stroke-dashoffset: 0;
       stroke-width: 128;
       }
       to {
       stroke: black;
       stroke-width: 1024;
       }
       }
       #make-me-a-hanzi-animation-14 {
         animation: keyframes14 0.542969s both;
         animation-delay: 9.202311s;
         animation-timing-function: linear;
       }
    @keyframes keyframes15 {
      from {
       stroke: blue;
       stroke-dashoffset: 374;
       stroke-width: 128;
       }
       55% {
       animation-timing-function: step-end;
       stroke: blue;
       stroke-dashoffset: 0;
       stroke-width: 128;
       }
       to {
       stroke: black;
       stroke-width: 1024;
       }
       }
       #make-me-a-hanzi-animation-15 {
         animation: keyframes15 0.554362s both;
         animation-delay: 9.745280s;
         animation-timing-function: linear;
       }
    @keyframes keyframes16 {
      from {
       stroke: blue;
       stroke-dashoffset: 457;
       stroke-width: 128;
       }
       60% {
       animation-timing-function: step-end;
       stroke: blue;
       stroke-dashoffset: 0;
       stroke-width: 128;
       }
       to {
       stroke: black;
       stroke-width: 1024;
       }
       }
       #make-me-a-hanzi-animation-16 {
         animation: keyframes16 0.621908s both;
         animation-delay: 10.299642s;
         animation-timing-function: linear;
       }
    @keyframes keyframes17 {
      from {
       stroke: blue;
       stroke-dashoffset: 373;
       stroke-width: 128;
       }
       55% {
       animation-timing-function: step-end;
       stroke: blue;
       stroke-dashoffset: 0;
       stroke-width: 128;
       }
       to {
       stroke: black;
       stroke-width: 1024;
       }
       }
       #make-me-a-hanzi-animation-17 {
         animation: keyframes17 0.553548s both;
         animation-delay: 10.921549s;
         animation-timing-function: linear;
       }
    @keyframes keyframes18 {
      from {
       stroke: blue;
       stroke-dashoffset: 593;
       stroke-width: 128;
       }
       66% {
       animation-timing-function: step-end;
       stroke: blue;
       stroke-dashoffset: 0;
       stroke-width: 128;
       }
       to {
       stroke: black;
       stroke-width: 1024;
       }
       }
       #make-me-a-hanzi-animation-18 {
         animation: keyframes18 0.732585s both;
         animation-delay: 11.475098s;
         animation-timing-function: linear;
       }
    @keyframes keyframes19 {
      from {
       stroke: blue;
       stroke-dashoffset: 602;
       stroke-width: 128;
       }
       66% {
       animation-timing-function: step-end;
       stroke: blue;
       stroke-dashoffset: 0;
       stroke-width: 128;
       }
       to {
       stroke: black;
       stroke-width: 1024;
       }
       }
       #make-me-a-hanzi-animation-19 {
         animation: keyframes19 0.739909s both;
         animation-delay: 12.207682s;
         animation-timing-function: linear;
       }
    @keyframes keyframes20 {
      from {
       stroke: blue;
       stroke-dashoffset: 484;
       stroke-width: 128;
       }
       61% {
       animation-timing-function: step-end;
       stroke: blue;
       stroke-dashoffset: 0;
       stroke-width: 128;
       }
       to {
       stroke: black;
       stroke-width: 1024;
       }
       }
       #make-me-a-hanzi-animation-20 {
         animation: keyframes20 0.643880s both;
         animation-delay: 12.947591s;
         animation-timing-function: linear;
       }
    @keyframes keyframes21 {
      from {
       stroke: blue;
       stroke-dashoffset: 482;
       stroke-width: 128;
       }
       61% {
       animation-timing-function: step-end;
       stroke: blue;
       stroke-dashoffset: 0;
       stroke-width: 128;
       }
       to {
       stroke: black;
       stroke-width: 1024;
       }
       }
       #make-me-a-hanzi-animation-21 {
         animation: keyframes21 0.642253s both;
         animation-delay: 13.591471s;
         animation-timing-function: linear;
       }
    @keyframes keyframes22 {
      from {
       stroke: blue;
       stroke-dashoffset: 729;
       stroke-width: 128;
       }
       70% {
       animation-timing-function: step-end;
       stroke: blue;
       stroke-dashoffset: 0;
       stroke-width: 128;
       }
       to {
       stroke: black;
       stroke-width: 1024;
       }
       }
       #make-me-a-hanzi-animation-22 {
         animation: keyframes22 0.843262s both;
         animation-delay: 14.233724s;
         animation-timing-function: linear;
       }
    @keyframes keyframes23 {
      from {
       stroke: blue;
       stroke-dashoffset: 523;
       stroke-width: 128;
       }
       63% {
       animation-timing-function: step-end;
       stroke: blue;
       stroke-dashoffset: 0;
       stroke-width: 128;
       }
       to {
       stroke: black;
       stroke-width: 1024;
       }
       }
       #make-me-a-hanzi-animation-23 {
         animation: keyframes23 0.675618s both;
         animation-delay: 15.076986s;
         animation-timing-function: linear;
       }
    @keyframes keyframes24 {
      from {
       stroke: blue;
       stroke-dashoffset: 567;
       stroke-width: 128;
       }
       65% {
       animation-timing-function: step-end;
       stroke: blue;
       stroke-dashoffset: 0;
       stroke-width: 128;
       }
       to {
       stroke: black;
       stroke-width: 1024;
       }
       }
       #make-me-a-hanzi-animation-24 {
         animation: keyframes24 0.711426s both;
         animation-delay: 15.752604s;
         animation-timing-function: linear;
       }
    @keyframes keyframes25 {
      from {
       stroke: blue;
       stroke-dashoffset: 386;
       stroke-width: 128;
       }
       56% {
       animation-timing-function: step-end;
       stroke: blue;
       stroke-dashoffset: 0;
       stroke-width: 128;
       }
       to {
       stroke: black;
       stroke-width: 1024;
       }
       }
       #make-me-a-hanzi-animation-25 {
         animation: keyframes25 0.564128s both;
         animation-delay: 16.464030s;
         animation-timing-function: linear;
       }
    @keyframes keyframes26 {
      from {
       stroke: blue;
       stroke-dashoffset: 651;
       stroke-width: 128;
       }
       68% {
       animation-timing-function: step-end;
       stroke: blue;
       stroke-dashoffset: 0;
       stroke-width: 128;
       }
       to {
       stroke: black;
       stroke-width: 1024;
       }
       }
       #make-me-a-hanzi-animation-26 {
         animation: keyframes26 0.779785s both;
         animation-delay: 17.028158s;
         animation-timing-function: linear;
       }
</style>
<path d="M 330.5 692.5 L 352.5 695.5 Q 358.5 695.5 392.5 701.5 L 422.5 705.5 Q 439.5 708.5 444.5 711.5 Q 450.5 715.5 450.5 719.5 Q 450.5 724.5 444.5 729.5 Q 438.5 735.5 430.5 738.5 Q 422.5 741.5 412.5 744.5 Q 402.5 747.5 396.5 747.5 Q 392.5 746.5 385.5 744.5 Q 378.5 741.5 362.5 738.5 L 336.5 731.5 Q 309.5 725.5 291.5 722.5 Q 273.5 719.5 238.5 715.5 Q 202.5 711.5 198.5 711.5 Q 194.5 710.5 187.5 709.5 C 157.5 704.5 165.5 686.5 195.5 683.5 L 213.5 681.5 L 228.5 681.5 Q 237.5 681.5 252.5 683.5 Q 266.5 685.5 278.5 687.5 L 330.5 692.5 Z" fill="lightgray"></path> 
<path d="M 187.5 709.5 L 172.5 717.5 Q 166.5 720.5 152.5 723.5 Q 140.5 725.5 135.5 725.5 L 131.5 725.5 Q 125.5 725.5 122.5 723.5 Q 119.5 720.5 119.5 716.5 L 119.5 714.5 Q 120.5 709.5 125.5 703.5 Q 130.5 697.5 135.5 685.5 Q 140.5 674.5 143.5 658.5 Q 146.5 643.5 146.5 623.5 L 145.5 549.5 Q 144.5 515.5 142.5 479.5 Q 138.5 444.5 135.5 425.5 Q 132.5 405.5 125.5 389.5 Q 119.5 372.5 119.5 367.5 L 119.5 364.5 Q 119.5 355.5 124.5 346.5 Q 130.5 335.5 138.5 329.5 Q 146.5 321.5 151.5 321.5 Q 156.5 321.5 166.5 328.5 C 180.5 336.5 181.5 354.5 182.5 384.5 Q 182.5 385.5 184.5 427.5 L 186.5 467.5 L 186.5 489.5 L 190.5 567.5 L 190.5 591.5 L 195.5 683.5 C 196.5 704.5 196.5 704.5 187.5 709.5 Z" fill="lightgray"></path> 
<path d="M 327.5 576.5 L 366.5 585.5 L 396.5 591.5 Q 414.5 595.5 418.5 597.5 Q 421.5 600.5 421.5 605.5 L 421.5 606.5 Q 421.5 610.5 416.5 615.5 Q 411.5 619.5 401.5 623.5 Q 390.5 627.5 380.5 629.5 Q 368.5 631.5 362.5 631.5 Q 360.5 630.5 349.5 625.5 Q 338.5 621.5 328.5 618.5 L 276.5 605.5 L 232.5 597.5 Q 225.5 595.5 190.5 591.5 C 160.5 588.5 162.5 576.5 190.5 567.5 L 202.5 563.5 Q 210.5 560.5 218.5 560.5 L 222.5 560.5 Q 232.5 560.5 246.5 562.5 Q 260.5 565.5 276.5 567.5 L 327.5 576.5 Z" fill="lightgray"></path> 
<path d="M 324.5 474.5 L 336.5 476.5 L 374.5 483.5 L 400.5 488.5 Q 418.5 491.5 422.5 495.5 Q 428.5 499.5 428.5 503.5 Q 428.5 507.5 422.5 511.5 Q 416.5 517.5 405.5 521.5 Q 394.5 525.5 384.5 527.5 Q 379.5 528.5 375.5 528.5 Q 371.5 528.5 367.5 527.5 Q 364.5 527.5 352.5 522.5 Q 340.5 517.5 325.5 514.5 L 274.5 503.5 L 246.5 498.5 L 215.5 493.5 Q 196.5 491.5 186.5 489.5 C 156.5 484.5 157.5 474.5 186.5 467.5 L 202.5 463.5 Q 210.5 460.5 218.5 460.5 L 222.5 460.5 Q 232.5 460.5 246.5 462.5 L 273.5 466.5 L 324.5 474.5 Z" fill="lightgray"></path> 
<path d="M 321.5 395.5 L 324.5 474.5 L 325.5 514.5 L 327.5 576.5 L 328.5 618.5 L 330.5 692.5 C 331.5 722.5 279.5 717.5 278.5 687.5 L 276.5 605.5 L 276.5 567.5 L 274.5 503.5 L 273.5 466.5 L 272.5 389.5 C 272.5 359.5 320.5 365.5 321.5 395.5 Z" fill="lightgray"></path> 
<path d="M 166.5 328.5 Q 176.5 335.5 192.5 339.5 Q 206.5 345.5 235.5 350.5 Q 264.5 355.5 291.5 359.5 L 338.5 364.5 Q 353.5 366.5 360.5 366.5 Q 377.5 365.5 382.5 359.5 Q 387.5 354.5 387.5 338.5 L 387.5 333.5 Q 386.5 313.5 382.5 269.5 L 376.5 214.5 Q 370.5 166.5 365.5 145.5 Q 360.5 125.5 353.5 109.5 Q 346.5 94.5 340.5 91.5 Q 335.5 88.5 329.5 88.5 L 325.5 88.5 Q 316.5 89.5 300.5 94.5 L 260.5 105.5 Q 258.5 106.5 255.5 106.5 Q 252.5 106.5 250.5 104.5 Q 249.5 103.5 249.5 102.5 Q 249.5 99.5 254.5 94.5 L 284.5 61.5 Q 294.5 51.5 306.5 33.5 L 322.5 10.5 Q 326.5 4.5 330.5 3.5 L 333.5 3.5 Q 339.5 3.5 353.5 10.5 Q 370.5 19.5 387.5 43.5 Q 404.5 67.5 409.5 94.5 L 418.5 140.5 L 426.5 186.5 Q 434.5 237.5 437.5 277.5 Q 441.5 317.5 445.5 329.5 Q 448.5 341.5 454.5 349.5 Q 458.5 356.5 459.5 359.5 L 459.5 360.5 Q 459.5 365.5 454.5 371.5 Q 448.5 379.5 438.5 386.5 Q 427.5 393.5 413.5 400.5 Q 398.5 408.5 392.5 408.5 L 380.5 405.5 L 354.5 401.5 L 340.5 397.5 Q 333.5 396.5 321.5 395.5 L 272.5 389.5 L 198.5 381.5 Q 192.5 380.5 189.5 380.5 Q 185.5 380.5 184.5 381.5 Q 182.5 383.5 182.5 384.5 C 152.5 388.5 139.5 315.5 166.5 328.5 Z" fill="lightgray"></path> 
<path d="M 64.5 236.5 Q 57.5 215.5 48.5 197.5 Q 39.5 179.5 37.5 173.5 Q 34.5 167.5 34.5 159.5 Q 33.5 155.5 33.5 150.5 Q 33.5 140.5 37.5 131.5 Q 42.5 119.5 48.5 114.5 Q 54.5 107.5 60.5 107.5 Q 67.5 107.5 74.5 116.5 Q 82.5 125.5 88.5 144.5 Q 94.5 163.5 97.5 178.5 Q 100.5 197.5 100.5 217.5 Q 98.5 237.5 94.5 252.5 L 88.5 271.5 Q 85.5 281.5 81.5 281.5 L 80.5 281.5 Q 76.5 279.5 74.5 277.5 L 71.5 261.5 L 64.5 236.5 Z" fill="lightgray"></path> 
<path d="M 130.5 277.5 Q 128.5 278.5 126.5 278.5 Q 123.5 278.5 122.5 275.5 Q 121.5 273.5 121.5 271.5 Q 121.5 268.5 123.5 264.5 L 146.5 210.5 Q 154.5 191.5 162.5 180.5 Q 170.5 170.5 178.5 169.5 Q 184.5 169.5 189.5 172.5 Q 193.5 175.5 199.5 185.5 Q 204.5 195.5 206.5 207.5 Q 206.5 227.5 197.5 238.5 Q 187.5 249.5 173.5 257.5 Q 159.5 265.5 152.5 268.5 L 130.5 277.5 Z" fill="lightgray"></path> 
<path d="M 210.5 292.5 L 208.5 292.5 Q 204.5 292.5 202.5 289.5 Q 201.5 288.5 201.5 286.5 Q 201.5 283.5 204.5 279.5 L 232.5 229.5 Q 242.5 209.5 250.5 201.5 Q 258.5 193.5 265.5 193.5 Q 272.5 193.5 276.5 197.5 Q 280.5 200.5 282.5 206.5 Q 288.5 219.5 288.5 232.5 L 288.5 236.5 Q 288.5 252.5 278.5 261.5 Q 268.5 271.5 252.5 277.5 Q 238.5 283.5 232.5 285.5 L 210.5 292.5 Z" fill="lightgray"></path> 
<path d="M 294.5 313.5 Q 292.5 314.5 290.5 314.5 Q 287.5 314.5 286.5 311.5 Q 285.5 310.5 285.5 308.5 Q 285.5 305.5 288.5 301.5 L 314.5 255.5 Q 324.5 236.5 331.5 229.5 Q 338.5 223.5 346.5 223.5 Q 348.5 222.5 350.5 222.5 Q 353.5 222.5 356.5 225.5 Q 360.5 228.5 362.5 233.5 Q 367.5 245.5 367.5 257.5 L 367.5 261.5 Q 366.5 276.5 357.5 285.5 Q 348.5 293.5 334.5 299.5 Q 320.5 305.5 314.5 307.5 L 294.5 313.5 Z" fill="lightgray"></path> 
<path d="M 678.5 733.5 L 684.5 741.5 Q 692.5 751.5 692.5 769.5 Q 691.5 779.5 686.5 789.5 Q 681.5 799.5 673.5 805.5 Q 666.5 811.5 652.5 817.5 Q 638.5 823.5 630.5 826.5 L 616.5 829.5 Q 613.5 830.5 610.5 830.5 Q 607.5 830.5 606.5 828.5 Q 605.5 827.5 605.5 824.5 Q 605.5 821.5 608.5 813.5 L 614.5 795.5 Q 618.5 784.5 628.5 765.5 Q 638.5 745.5 642.5 740.5 Q 646.5 735.5 653.5 729.5 C 666.5 717.5 666.5 717.5 678.5 733.5 Z" fill="lightgray"></path> 
<path d="M 653.5 729.5 L 636.5 727.5 Q 626.5 725.5 584.5 718.5 L 524.5 709.5 Q 504.5 707.5 479.5 705.5 L 452.5 702.5 Q 448.5 701.5 446.5 698.5 L 446.5 696.5 Q 446.5 694.5 448.5 690.5 Q 450.5 686.5 460.5 681.5 L 473.5 674.5 Q 482.5 669.5 488.5 668.5 Q 496.5 666.5 500.5 666.5 L 502.5 666.5 Q 508.5 666.5 522.5 671.5 Q 538.5 676.5 566.5 681.5 L 615.5 691.5 Q 637.5 695.5 669.5 699.5 Q 702.5 703.5 739.5 706.5 L 803.5 711.5 L 844.5 714.5 L 864.5 715.5 Q 886.5 717.5 894.5 721.5 Q 901.5 726.5 901.5 731.5 L 901.5 732.5 Q 901.5 736.5 893.5 742.5 Q 885.5 749.5 881.5 751.5 L 861.5 759.5 Q 845.5 763.5 842.5 764.5 Q 836.5 764.5 823.5 759.5 Q 810.5 755.5 783.5 750.5 L 753.5 744.5 L 708.5 737.5 L 692.5 735.5 Q 686.5 734.5 678.5 733.5 L 653.5 729.5 Z" fill="lightgray"></path> 
<path d="M 512.5 620.5 L 494.5 625.5 Q 488.5 626.5 484.5 626.5 Q 480.5 625.5 477.5 623.5 Q 474.5 621.5 474.5 619.5 Q 475.5 615.5 480.5 610.5 Q 485.5 605.5 489.5 596.5 Q 492.5 587.5 494.5 578.5 L 503.5 540.5 Q 506.5 525.5 508.5 518.5 Q 510.5 511.5 515.5 508.5 Q 520.5 503.5 523.5 503.5 Q 525.5 503.5 526.5 504.5 Q 531.5 507.5 533.5 512.5 L 535.5 518.5 L 535.5 545.5 L 528.5 603.5 C 526.5 616.5 526.5 616.5 512.5 620.5 Z" fill="lightgray"></path> 
<path d="M 630.5 550.5 L 640.5 573.5 Q 646.5 589.5 649.5 595.5 Q 652.5 601.5 660.5 610.5 Q 668.5 618.5 668.5 621.5 Q 668.5 627.5 664.5 631.5 Q 660.5 635.5 652.5 639.5 L 637.5 645.5 Q 630.5 648.5 622.5 650.5 Q 614.5 651.5 608.5 651.5 Q 605.5 650.5 600.5 648.5 L 577.5 638.5 Q 569.5 635.5 554.5 631.5 L 533.5 625.5 Q 526.5 623.5 512.5 620.5 C 483.5 614.5 499.5 596.5 528.5 603.5 L 589.5 617.5 Q 592.5 618.5 594.5 618.5 Q 598.5 618.5 600.5 616.5 Q 603.5 614.5 603.5 606.5 Q 603.5 602.5 602.5 596.5 L 596.5 555.5 C 592.5 525.5 618.5 522.5 630.5 550.5 Z" fill="lightgray"></path> 
<path d="M 535.5 518.5 L 638.5 530.5 Q 643.5 531.5 644.5 535.5 Q 645.5 536.5 645.5 538.5 Q 645.5 540.5 642.5 542.5 L 630.5 550.5 C 617.5 558.5 617.5 558.5 596.5 555.5 L 535.5 545.5 C 505.5 540.5 505.5 515.5 535.5 518.5 Z" fill="lightgray"></path> 
<path d="M 706.5 649.5 L 688.5 653.5 Q 686.5 653.5 674.5 654.5 Q 666.5 654.5 665.5 651.5 Q 664.5 650.5 664.5 648.5 L 664.5 646.5 Q 665.5 643.5 670.5 639.5 Q 676.5 634.5 681.5 624.5 Q 686.5 614.5 687.5 607.5 L 695.5 562.5 Q 696.5 553.5 704.5 545.5 Q 710.5 537.5 715.5 537.5 L 717.5 537.5 Q 722.5 539.5 725.5 543.5 L 728.5 549.5 C 728.5 550.5 728.5 550.5 726.5 573.5 L 720.5 632.5 C 719.5 646.5 719.5 646.5 706.5 649.5 Z" fill="lightgray"></path> 
<path d="M 836.5 582.5 L 850.5 614.5 Q 854.5 627.5 860.5 634.5 L 872.5 645.5 Q 876.5 650.5 876.5 653.5 Q 876.5 658.5 866.5 665.5 Q 856.5 671.5 847.5 675.5 Q 838.5 678.5 828.5 681.5 Q 821.5 683.5 815.5 683.5 L 812.5 683.5 Q 809.5 682.5 801.5 677.5 Q 792.5 673.5 773.5 666.5 Q 754.5 659.5 740.5 656.5 L 706.5 649.5 C 677.5 643.5 690.5 627.5 720.5 632.5 L 794.5 645.5 Q 798.5 646.5 801.5 646.5 Q 807.5 646.5 810.5 643.5 Q 812.5 641.5 812.5 637.5 Q 812.5 632.5 810.5 625.5 L 798.5 587.5 C 789.5 558.5 824.5 555.5 836.5 582.5 Z" fill="lightgray"></path> 
<path d="M 728.5 549.5 L 844.5 563.5 Q 850.5 563.5 852.5 567.5 L 852.5 568.5 Q 852.5 572.5 848.5 574.5 L 836.5 582.5 C 822.5 592.5 822.5 592.5 798.5 587.5 L 726.5 573.5 C 697.5 567.5 698.5 545.5 728.5 549.5 Z" fill="lightgray"></path> 
<path d="M 764.5 442.5 L 821.5 449.5 Q 830.5 451.5 834.5 452.5 Q 838.5 453.5 842.5 456.5 Q 846.5 459.5 846.5 463.5 Q 846.5 467.5 841.5 471.5 Q 836.5 475.5 825.5 478.5 Q 814.5 482.5 809.5 483.5 Q 804.5 485.5 796.5 485.5 Q 786.5 485.5 770.5 482.5 L 720.5 473.5 L 614.5 459.5 L 570.5 453.5 L 524.5 448.5 L 505.5 446.5 Q 496.5 445.5 494.5 443.5 Q 492.5 439.5 492.5 435.5 Q 492.5 431.5 501.5 426.5 Q 509.5 421.5 522.5 418.5 Q 533.5 416.5 541.5 416.5 L 546.5 416.5 Q 556.5 416.5 571.5 419.5 L 612.5 425.5 L 720.5 439.5 L 764.5 442.5 Z" fill="lightgray"></path> 
<path d="M 758.5 361.5 L 822.5 369.5 Q 828.5 369.5 834.5 371.5 Q 838.5 373.5 843.5 375.5 Q 848.5 379.5 848.5 382.5 Q 848.5 386.5 842.5 390.5 Q 837.5 393.5 828.5 397.5 L 814.5 400.5 Q 804.5 403.5 796.5 403.5 Q 788.5 403.5 780.5 401.5 Q 772.5 399.5 760.5 397.5 L 720.5 391.5 L 613.5 377.5 L 573.5 373.5 L 520.5 367.5 L 500.5 366.5 Q 492.5 365.5 490.5 363.5 Q 487.5 360.5 487.5 357.5 L 487.5 356.5 Q 488.5 352.5 496.5 347.5 Q 505.5 343.5 519.5 339.5 Q 528.5 336.5 536.5 336.5 Q 540.5 336.5 544.5 337.5 L 562.5 340.5 L 576.5 341.5 L 612.5 346.5 L 717.5 357.5 L 758.5 361.5 Z" fill="lightgray"></path> 
<path d="M 614.5 459.5 L 615.5 465.5 L 618.5 479.5 Q 620.5 486.5 620.5 490.5 L 620.5 492.5 Q 620.5 497.5 612.5 503.5 Q 605.5 509.5 592.5 512.5 L 575.5 516.5 Q 567.5 517.5 564.5 517.5 Q 558.5 517.5 556.5 513.5 Q 554.5 510.5 554.5 507.5 L 554.5 505.5 Q 554.5 501.5 558.5 495.5 Q 562.5 487.5 565.5 477.5 Q 568.5 466.5 568.5 461.5 Q 569.5 456.5 570.5 453.5 L 571.5 419.5 L 573.5 373.5 L 576.5 341.5 L 578.5 289.5 C 579.5 259.5 617.5 263.5 615.5 293.5 L 612.5 346.5 L 613.5 377.5 L 612.5 425.5 L 614.5 459.5 Z" fill="lightgray"></path> 
<path d="M 754.5 307.5 L 758.5 361.5 L 760.5 397.5 L 764.5 442.5 L 770.5 482.5 L 774.5 493.5 L 778.5 507.5 Q 778.5 512.5 770.5 518.5 Q 762.5 523.5 749.5 527.5 L 730.5 531.5 Q 727.5 532.5 724.5 532.5 Q 722.5 532.5 720.5 531.5 Q 713.5 529.5 712.5 525.5 Q 711.5 524.5 711.5 522.5 Q 711.5 518.5 714.5 511.5 Q 718.5 501.5 720.5 493.5 L 720.5 473.5 L 720.5 439.5 L 720.5 391.5 L 717.5 357.5 L 716.5 304.5 C 715.5 274.5 752.5 277.5 754.5 307.5 Z" fill="lightgray"></path> 
<path d="M 622.5 262.5 L 648.5 265.5 Q 652.5 265.5 689.5 268.5 L 756.5 273.5 Q 794.5 275.5 828.5 276.5 Q 863.5 277.5 873.5 278.5 L 896.5 279.5 Q 916.5 281.5 922.5 283.5 Q 927.5 285.5 928.5 291.5 Q 928.5 295.5 922.5 301.5 Q 916.5 306.5 904.5 312.5 Q 892.5 319.5 885.5 321.5 Q 878.5 324.5 871.5 325.5 Q 864.5 325.5 850.5 321.5 Q 836.5 318.5 814.5 315.5 Q 793.5 311.5 782.5 310.5 Q 771.5 309.5 754.5 307.5 L 716.5 304.5 L 692.5 302.5 Q 690.5 301.5 672.5 299.5 Q 654.5 297.5 643.5 296.5 Q 632.5 295.5 615.5 293.5 L 578.5 289.5 L 550.5 286.5 Q 536.5 284.5 505.5 282.5 L 474.5 280.5 L 450.5 277.5 Q 446.5 276.5 443.5 272.5 L 443.5 271.5 Q 443.5 266.5 453.5 258.5 Q 466.5 249.5 478.5 245.5 Q 490.5 241.5 498.5 241.5 Q 502.5 241.5 517.5 245.5 Q 532.5 249.5 546.5 251.5 Q 561.5 253.5 581.5 257.5 L 622.5 262.5 Z" fill="lightgray"></path> 
<path d="M 581.5 257.5 L 569.5 239.5 Q 563.5 229.5 549.5 213.5 Q 536.5 195.5 515.5 175.5 Q 494.5 153.5 466.5 131.5 L 434.5 106.5 Q 421.5 96.5 421.5 89.5 L 421.5 87.5 Q 422.5 83.5 427.5 83.5 Q 433.5 83.5 444.5 89.5 L 472.5 101.5 Q 485.5 106.5 500.5 115.5 Q 514.5 125.5 534.5 137.5 L 566.5 167.5 L 612.5 207.5 Q 621.5 215.5 626.5 217.5 Q 630.5 221.5 634.5 221.5 L 642.5 223.5 Q 646.5 225.5 648.5 228.5 Q 649.5 230.5 649.5 231.5 Q 649.5 235.5 646.5 240.5 Q 640.5 247.5 633.5 253.5 Q 626.5 258.5 622.5 262.5 C 599.5 282.5 598.5 282.5 581.5 257.5 Z" fill="lightgray"></path> 
<path d="M 534.5 137.5 L 536.5 101.5 L 535.5 56.5 Q 534.5 43.5 532.5 28.5 Q 530.5 13.5 526.5 2.5 Q 522.5 -7.5 522.5 -10.5 Q 522.5 -12.5 524.5 -19.5 Q 526.5 -25.5 531.5 -35.5 Q 537.5 -46.5 542.5 -49.5 Q 548.5 -54.5 552.5 -54.5 Q 558.5 -54.5 565.5 -45.5 L 582.5 -24.5 Q 593.5 -12.5 608.5 1.5 L 690.5 75.5 Q 695.5 78.5 695.5 81.5 Q 695.5 82.5 694.5 83.5 Q 693.5 85.5 690.5 85.5 Q 689.5 85.5 686.5 84.5 L 592.5 35.5 Q 585.5 31.5 581.5 31.5 L 579.5 31.5 Q 576.5 33.5 576.5 47.5 L 578.5 110.5 Q 578.5 113.5 580.5 123.5 Q 582.5 133.5 584.5 136.5 Q 586.5 144.5 586.5 147.5 L 586.5 149.5 Q 586.5 152.5 580.5 157.5 Q 574.5 161.5 566.5 167.5 C 542.5 185.5 532.5 167.5 534.5 137.5 Z" fill="lightgray"></path> 
<path d="M 750.5 150.5 L 774.5 163.5 Q 791.5 173.5 800.5 179.5 L 821.5 193.5 L 835.5 201.5 Q 842.5 205.5 847.5 207.5 L 856.5 210.5 Q 859.5 212.5 860.5 217.5 Q 860.5 221.5 854.5 229.5 Q 847.5 237.5 837.5 245.5 Q 828.5 253.5 821.5 256.5 Q 815.5 259.5 810.5 261.5 Q 803.5 262.5 800.5 262.5 L 798.5 262.5 Q 797.5 261.5 796.5 255.5 Q 795.5 251.5 790.5 240.5 Q 786.5 229.5 780.5 219.5 Q 774.5 207.5 764.5 194.5 L 738.5 159.5 C 720.5 135.5 724.5 136.5 750.5 150.5 Z" fill="lightgray"></path> 
<path d="M 738.5 159.5 L 706.5 189.5 Q 696.5 197.5 683.5 202.5 Q 670.5 207.5 662.5 207.5 Q 656.5 206.5 652.5 204.5 Q 648.5 202.5 647.5 199.5 Q 645.5 197.5 645.5 195.5 Q 645.5 193.5 646.5 192.5 Q 647.5 189.5 649.5 187.5 Q 651.5 186.5 664.5 181.5 Q 678.5 177.5 688.5 166.5 Q 700.5 155.5 726.5 127.5 L 760.5 89.5 Q 765.5 81.5 782.5 59.5 L 812.5 23.5 Q 823.5 9.5 831.5 1.5 Q 839.5 -5.5 849.5 -8.5 Q 856.5 -11.5 867.5 -11.5 L 873.5 -11.5 Q 883.5 -11.5 912.5 -6.5 Q 940.5 -2.5 945.5 -0.5 Q 950.5 -0.5 964.5 3.5 L 980.5 7.5 Q 990.5 10.5 990.5 17.5 Q 990.5 23.5 982.5 25.5 L 966.5 30.5 L 944.5 35.5 Q 924.5 41.5 889.5 56.5 Q 854.5 71.5 828.5 89.5 Q 802.5 107.5 782.5 123.5 L 750.5 150.5 L 738.5 159.5 Z" fill="lightgray"></path> 
      <clipPath id="make-me-a-hanzi-clip-0">
      <path d="M 330.5 692.5 L 352.5 695.5 Q 358.5 695.5 392.5 701.5 L 422.5 705.5 Q 439.5 708.5 444.5 711.5 Q 450.5 715.5 450.5 719.5 Q 450.5 724.5 444.5 729.5 Q 438.5 735.5 430.5 738.5 Q 422.5 741.5 412.5 744.5 Q 402.5 747.5 396.5 747.5 Q 392.5 746.5 385.5 744.5 Q 378.5 741.5 362.5 738.5 L 336.5 731.5 Q 309.5 725.5 291.5 722.5 Q 273.5 719.5 238.5 715.5 Q 202.5 711.5 198.5 711.5 Q 194.5 710.5 187.5 709.5 C 157.5 704.5 165.5 686.5 195.5 683.5 L 213.5 681.5 L 228.5 681.5 Q 237.5 681.5 252.5 683.5 Q 266.5 685.5 278.5 687.5 L 330.5 692.5 Z" fill="lightgray"></path>
      </clipPath>
      <path clip-path="url(#make-me-a-hanzi-clip-0)" d="M 194.5 704.5 L 221.5 696.5 L 396.5 724.5 L 440.5 720.5 " fill="none" id="make-me-a-hanzi-animation-0" stroke-dasharray="378 756" stroke-linecap="round"></path>

      <clipPath id="make-me-a-hanzi-clip-1">
      <path d="M 187.5 709.5 L 172.5 717.5 Q 166.5 720.5 152.5 723.5 Q 140.5 725.5 135.5 725.5 L 131.5 725.5 Q 125.5 725.5 122.5 723.5 Q 119.5 720.5 119.5 716.5 L 119.5 714.5 Q 120.5 709.5 125.5 703.5 Q 130.5 697.5 135.5 685.5 Q 140.5 674.5 143.5 658.5 Q 146.5 643.5 146.5 623.5 L 145.5 549.5 Q 144.5 515.5 142.5 479.5 Q 138.5 444.5 135.5 425.5 Q 132.5 405.5 125.5 389.5 Q 119.5 372.5 119.5 367.5 L 119.5 364.5 Q 119.5 355.5 124.5 346.5 Q 130.5 335.5 138.5 329.5 Q 146.5 321.5 151.5 321.5 Q 156.5 321.5 166.5 328.5 C 180.5 336.5 181.5 354.5 182.5 384.5 Q 182.5 385.5 184.5 427.5 L 186.5 467.5 L 186.5 489.5 L 190.5 567.5 L 190.5 591.5 L 195.5 683.5 C 196.5 704.5 196.5 704.5 187.5 709.5 Z" fill="lightgray"></path>
      </clipPath>
      <path clip-path="url(#make-me-a-hanzi-clip-1)" d="M 128.5 716.5 L 159.5 695.5 L 169.5 661.5 L 164.5 473.5 L 159.5 414.5 L 147.5 366.5 L 151.5 335.5 " fill="none" id="make-me-a-hanzi-animation-1" stroke-dasharray="529 1058" stroke-linecap="round"></path>

      <clipPath id="make-me-a-hanzi-clip-2">
      <path d="M 327.5 576.5 L 366.5 585.5 L 396.5 591.5 Q 414.5 595.5 418.5 597.5 Q 421.5 600.5 421.5 605.5 L 421.5 606.5 Q 421.5 610.5 416.5 615.5 Q 411.5 619.5 401.5 623.5 Q 390.5 627.5 380.5 629.5 Q 368.5 631.5 362.5 631.5 Q 360.5 630.5 349.5 625.5 Q 338.5 621.5 328.5 618.5 L 276.5 605.5 L 232.5 597.5 Q 225.5 595.5 190.5 591.5 C 160.5 588.5 162.5 576.5 190.5 567.5 L 202.5 563.5 Q 210.5 560.5 218.5 560.5 L 222.5 560.5 Q 232.5 560.5 246.5 562.5 Q 260.5 565.5 276.5 567.5 L 327.5 576.5 Z" fill="lightgray"></path>
      </clipPath>
      <path clip-path="url(#make-me-a-hanzi-clip-2)" d="M 199.5 573.5 L 305.5 591.5 L 365.5 608.5 L 412.5 604.5 " fill="none" id="make-me-a-hanzi-animation-2" stroke-dasharray="345 690" stroke-linecap="round"></path>

      <clipPath id="make-me-a-hanzi-clip-3">
      <path d="M 324.5 474.5 L 336.5 476.5 L 374.5 483.5 L 400.5 488.5 Q 418.5 491.5 422.5 495.5 Q 428.5 499.5 428.5 503.5 Q 428.5 507.5 422.5 511.5 Q 416.5 517.5 405.5 521.5 Q 394.5 525.5 384.5 527.5 Q 379.5 528.5 375.5 528.5 Q 371.5 528.5 367.5 527.5 Q 364.5 527.5 352.5 522.5 Q 340.5 517.5 325.5 514.5 L 274.5 503.5 L 246.5 498.5 L 215.5 493.5 Q 196.5 491.5 186.5 489.5 C 156.5 484.5 157.5 474.5 186.5 467.5 L 202.5 463.5 Q 210.5 460.5 218.5 460.5 L 222.5 460.5 Q 232.5 460.5 246.5 462.5 L 273.5 466.5 L 324.5 474.5 Z" fill="lightgray"></path>
      </clipPath>
      <path clip-path="url(#make-me-a-hanzi-clip-3)" d="M 193.5 484.5 L 200.5 477.5 L 216.5 476.5 L 374.5 506.5 L 420.5 503.5 " fill="none" id="make-me-a-hanzi-animation-3" stroke-dasharray="361 722" stroke-linecap="round"></path>

      <clipPath id="make-me-a-hanzi-clip-4">
      <path d="M 321.5 395.5 L 324.5 474.5 L 325.5 514.5 L 327.5 576.5 L 328.5 618.5 L 330.5 692.5 C 331.5 722.5 279.5 717.5 278.5 687.5 L 276.5 605.5 L 276.5 567.5 L 274.5 503.5 L 273.5 466.5 L 272.5 389.5 C 272.5 359.5 320.5 365.5 321.5 395.5 Z" fill="lightgray"></path>
      </clipPath>
      <path clip-path="url(#make-me-a-hanzi-clip-4)" d="M 324.5 685.5 L 303.5 663.5 L 297.5 417.5 L 277.5 397.5 " fill="none" id="make-me-a-hanzi-animation-4" stroke-dasharray="433 866" stroke-linecap="round"></path>

      <clipPath id="make-me-a-hanzi-clip-5">
      <path d="M 166.5 328.5 Q 176.5 335.5 192.5 339.5 Q 206.5 345.5 235.5 350.5 Q 264.5 355.5 291.5 359.5 L 338.5 364.5 Q 353.5 366.5 360.5 366.5 Q 377.5 365.5 382.5 359.5 Q 387.5 354.5 387.5 338.5 L 387.5 333.5 Q 386.5 313.5 382.5 269.5 L 376.5 214.5 Q 370.5 166.5 365.5 145.5 Q 360.5 125.5 353.5 109.5 Q 346.5 94.5 340.5 91.5 Q 335.5 88.5 329.5 88.5 L 325.5 88.5 Q 316.5 89.5 300.5 94.5 L 260.5 105.5 Q 258.5 106.5 255.5 106.5 Q 252.5 106.5 250.5 104.5 Q 249.5 103.5 249.5 102.5 Q 249.5 99.5 254.5 94.5 L 284.5 61.5 Q 294.5 51.5 306.5 33.5 L 322.5 10.5 Q 326.5 4.5 330.5 3.5 L 333.5 3.5 Q 339.5 3.5 353.5 10.5 Q 370.5 19.5 387.5 43.5 Q 404.5 67.5 409.5 94.5 L 418.5 140.5 L 426.5 186.5 Q 434.5 237.5 437.5 277.5 Q 441.5 317.5 445.5 329.5 Q 448.5 341.5 454.5 349.5 Q 458.5 356.5 459.5 359.5 L 459.5 360.5 Q 459.5 365.5 454.5 371.5 Q 448.5 379.5 438.5 386.5 Q 427.5 393.5 413.5 400.5 Q 398.5 408.5 392.5 408.5 L 380.5 405.5 L 354.5 401.5 L 340.5 397.5 Q 333.5 396.5 321.5 395.5 L 272.5 389.5 L 198.5 381.5 Q 192.5 380.5 189.5 380.5 Q 185.5 380.5 184.5 381.5 Q 182.5 383.5 182.5 384.5 C 152.5 388.5 139.5 315.5 166.5 328.5 Z" fill="lightgray"></path>
      </clipPath>
      <path clip-path="url(#make-me-a-hanzi-clip-5)" d="M 170.5 334.5 L 192.5 358.5 L 207.5 364.5 L 363.5 385.5 L 396.5 381.5 L 419.5 357.5 L 394.5 152.5 L 370.5 75.5 L 342.5 50.5 L 254.5 101.5 " fill="none" id="make-me-a-hanzi-animation-5" stroke-dasharray="827 1654" stroke-linecap="round"></path>

      <clipPath id="make-me-a-hanzi-clip-6">
      <path d="M 64.5 236.5 Q 57.5 215.5 48.5 197.5 Q 39.5 179.5 37.5 173.5 Q 34.5 167.5 34.5 159.5 Q 33.5 155.5 33.5 150.5 Q 33.5 140.5 37.5 131.5 Q 42.5 119.5 48.5 114.5 Q 54.5 107.5 60.5 107.5 Q 67.5 107.5 74.5 116.5 Q 82.5 125.5 88.5 144.5 Q 94.5 163.5 97.5 178.5 Q 100.5 197.5 100.5 217.5 Q 98.5 237.5 94.5 252.5 L 88.5 271.5 Q 85.5 281.5 81.5 281.5 L 80.5 281.5 Q 76.5 279.5 74.5 277.5 L 71.5 261.5 L 64.5 236.5 Z" fill="lightgray"></path>
      </clipPath>
      <path clip-path="url(#make-me-a-hanzi-clip-6)" d="M 81.5 274.5 L 80.5 221.5 L 60.5 144.5 L 60.5 120.5 " fill="none" id="make-me-a-hanzi-animation-6" stroke-dasharray="285 570" stroke-linecap="round"></path>

      <clipPath id="make-me-a-hanzi-clip-7">
      <path d="M 130.5 277.5 Q 128.5 278.5 126.5 278.5 Q 123.5 278.5 122.5 275.5 Q 121.5 273.5 121.5 271.5 Q 121.5 268.5 123.5 264.5 L 146.5 210.5 Q 154.5 191.5 162.5 180.5 Q 170.5 170.5 178.5 169.5 Q 184.5 169.5 189.5 172.5 Q 193.5 175.5 199.5 185.5 Q 204.5 195.5 206.5 207.5 Q 206.5 227.5 197.5 238.5 Q 187.5 249.5 173.5 257.5 Q 159.5 265.5 152.5 268.5 L 130.5 277.5 Z" fill="lightgray"></path>
      </clipPath>
      <path clip-path="url(#make-me-a-hanzi-clip-7)" d="M 127.5 273.5 L 172.5 223.5 L 180.5 185.5 " fill="none" id="make-me-a-hanzi-animation-7" stroke-dasharray="234 468" stroke-linecap="round"></path>

      <clipPath id="make-me-a-hanzi-clip-8">
      <path d="M 210.5 292.5 L 208.5 292.5 Q 204.5 292.5 202.5 289.5 Q 201.5 288.5 201.5 286.5 Q 201.5 283.5 204.5 279.5 L 232.5 229.5 Q 242.5 209.5 250.5 201.5 Q 258.5 193.5 265.5 193.5 Q 272.5 193.5 276.5 197.5 Q 280.5 200.5 282.5 206.5 Q 288.5 219.5 288.5 232.5 L 288.5 236.5 Q 288.5 252.5 278.5 261.5 Q 268.5 271.5 252.5 277.5 Q 238.5 283.5 232.5 285.5 L 210.5 292.5 Z" fill="lightgray"></path>
      </clipPath>
      <path clip-path="url(#make-me-a-hanzi-clip-8)" d="M 208.5 286.5 L 256.5 244.5 L 265.5 209.5 " fill="none" id="make-me-a-hanzi-animation-8" stroke-dasharray="228 456" stroke-linecap="round"></path>

      <clipPath id="make-me-a-hanzi-clip-9">
      <path d="M 294.5 313.5 Q 292.5 314.5 290.5 314.5 Q 287.5 314.5 286.5 311.5 Q 285.5 310.5 285.5 308.5 Q 285.5 305.5 288.5 301.5 L 314.5 255.5 Q 324.5 236.5 331.5 229.5 Q 338.5 223.5 346.5 223.5 Q 348.5 222.5 350.5 222.5 Q 353.5 222.5 356.5 225.5 Q 360.5 228.5 362.5 233.5 Q 367.5 245.5 367.5 257.5 L 367.5 261.5 Q 366.5 276.5 357.5 285.5 Q 348.5 293.5 334.5 299.5 Q 320.5 305.5 314.5 307.5 L 294.5 313.5 Z" fill="lightgray"></path>
      </clipPath>
      <path clip-path="url(#make-me-a-hanzi-clip-9)" d="M 291.5 309.5 L 339.5 265.5 L 350.5 230.5 " fill="none" id="make-me-a-hanzi-animation-9" stroke-dasharray="230 460" stroke-linecap="round"></path>

      <clipPath id="make-me-a-hanzi-clip-10">
      <path d="M 678.5 733.5 L 684.5 741.5 Q 692.5 751.5 692.5 769.5 Q 691.5 779.5 686.5 789.5 Q 681.5 799.5 673.5 805.5 Q 666.5 811.5 652.5 817.5 Q 638.5 823.5 630.5 826.5 L 616.5 829.5 Q 613.5 830.5 610.5 830.5 Q 607.5 830.5 606.5 828.5 Q 605.5 827.5 605.5 824.5 Q 605.5 821.5 608.5 813.5 L 614.5 795.5 Q 618.5 784.5 628.5 765.5 Q 638.5 745.5 642.5 740.5 Q 646.5 735.5 653.5 729.5 C 666.5 717.5 666.5 717.5 678.5 733.5 Z" fill="lightgray"></path>
      </clipPath>
      <path clip-path="url(#make-me-a-hanzi-clip-10)" d="M 610.5 825.5 L 657.5 777.5 L 663.5 759.5 L 657.5 744.5 " fill="none" id="make-me-a-hanzi-animation-10" stroke-dasharray="230 460" stroke-linecap="round"></path>

      <clipPath id="make-me-a-hanzi-clip-11">
      <path d="M 653.5 729.5 L 636.5 727.5 Q 626.5 725.5 584.5 718.5 L 524.5 709.5 Q 504.5 707.5 479.5 705.5 L 452.5 702.5 Q 448.5 701.5 446.5 698.5 L 446.5 696.5 Q 446.5 694.5 448.5 690.5 Q 450.5 686.5 460.5 681.5 L 473.5 674.5 Q 482.5 669.5 488.5 668.5 Q 496.5 666.5 500.5 666.5 L 502.5 666.5 Q 508.5 666.5 522.5 671.5 Q 538.5 676.5 566.5 681.5 L 615.5 691.5 Q 637.5 695.5 669.5 699.5 Q 702.5 703.5 739.5 706.5 L 803.5 711.5 L 844.5 714.5 L 864.5 715.5 Q 886.5 717.5 894.5 721.5 Q 901.5 726.5 901.5 731.5 L 901.5 732.5 Q 901.5 736.5 893.5 742.5 Q 885.5 749.5 881.5 751.5 L 861.5 759.5 Q 845.5 763.5 842.5 764.5 Q 836.5 764.5 823.5 759.5 Q 810.5 755.5 783.5 750.5 L 753.5 744.5 L 708.5 737.5 L 692.5 735.5 Q 686.5 734.5 678.5 733.5 L 653.5 729.5 Z" fill="lightgray"></path>
      </clipPath>
      <path clip-path="url(#make-me-a-hanzi-clip-11)" d="M 451.5 697.5 L 510.5 687.5 L 613.5 708.5 L 840.5 739.5 L 890.5 732.5 " fill="none" id="make-me-a-hanzi-animation-11" stroke-dasharray="573 1146" stroke-linecap="round"></path>

      <clipPath id="make-me-a-hanzi-clip-12">
      <path d="M 512.5 620.5 L 494.5 625.5 Q 488.5 626.5 484.5 626.5 Q 480.5 625.5 477.5 623.5 Q 474.5 621.5 474.5 619.5 Q 475.5 615.5 480.5 610.5 Q 485.5 605.5 489.5 596.5 Q 492.5 587.5 494.5 578.5 L 503.5 540.5 Q 506.5 525.5 508.5 518.5 Q 510.5 511.5 515.5 508.5 Q 520.5 503.5 523.5 503.5 Q 525.5 503.5 526.5 504.5 Q 531.5 507.5 533.5 512.5 L 535.5 518.5 L 535.5 545.5 L 528.5 603.5 C 526.5 616.5 526.5 616.5 512.5 620.5 Z" fill="lightgray"></path>
      </clipPath>
      <path clip-path="url(#make-me-a-hanzi-clip-12)" d="M 481.5 617.5 L 495.5 612.5 L 511.5 594.5 L 522.5 511.5 " fill="none" id="make-me-a-hanzi-animation-12" stroke-dasharray="251 502" stroke-linecap="round"></path>

      <clipPath id="make-me-a-hanzi-clip-13">
      <path d="M 630.5 550.5 L 640.5 573.5 Q 646.5 589.5 649.5 595.5 Q 652.5 601.5 660.5 610.5 Q 668.5 618.5 668.5 621.5 Q 668.5 627.5 664.5 631.5 Q 660.5 635.5 652.5 639.5 L 637.5 645.5 Q 630.5 648.5 622.5 650.5 Q 614.5 651.5 608.5 651.5 Q 605.5 650.5 600.5 648.5 L 577.5 638.5 Q 569.5 635.5 554.5 631.5 L 533.5 625.5 Q 526.5 623.5 512.5 620.5 C 483.5 614.5 499.5 596.5 528.5 603.5 L 589.5 617.5 Q 592.5 618.5 594.5 618.5 Q 598.5 618.5 600.5 616.5 Q 603.5 614.5 603.5 606.5 Q 603.5 602.5 602.5 596.5 L 596.5 555.5 C 592.5 525.5 618.5 522.5 630.5 550.5 Z" fill="lightgray"></path>
      </clipPath>
      <path clip-path="url(#make-me-a-hanzi-clip-13)" d="M 519.5 618.5 L 534.5 613.5 L 602.5 632.5 L 622.5 626.5 L 629.5 612.5 L 618.5 572.5 L 603.5 561.5 " fill="none" id="make-me-a-hanzi-animation-13" stroke-dasharray="311 622" stroke-linecap="round"></path>

      <clipPath id="make-me-a-hanzi-clip-14">
      <path d="M 535.5 518.5 L 638.5 530.5 Q 643.5 531.5 644.5 535.5 Q 645.5 536.5 645.5 538.5 Q 645.5 540.5 642.5 542.5 L 630.5 550.5 C 617.5 558.5 617.5 558.5 596.5 555.5 L 535.5 545.5 C 505.5 540.5 505.5 515.5 535.5 518.5 Z" fill="lightgray"></path>
      </clipPath>
      <path clip-path="url(#make-me-a-hanzi-clip-14)" d="M 542.5 525.5 L 549.5 534.5 L 575.5 538.5 L 641.5 538.5 " fill="none" id="make-me-a-hanzi-animation-14" stroke-dasharray="232 464" stroke-linecap="round"></path>

      <clipPath id="make-me-a-hanzi-clip-15">
      <path d="M 706.5 649.5 L 688.5 653.5 Q 686.5 653.5 674.5 654.5 Q 666.5 654.5 665.5 651.5 Q 664.5 650.5 664.5 648.5 L 664.5 646.5 Q 665.5 643.5 670.5 639.5 Q 676.5 634.5 681.5 624.5 Q 686.5 614.5 687.5 607.5 L 695.5 562.5 Q 696.5 553.5 704.5 545.5 Q 710.5 537.5 715.5 537.5 L 717.5 537.5 Q 722.5 539.5 725.5 543.5 L 728.5 549.5 C 728.5 550.5 728.5 550.5 726.5 573.5 L 720.5 632.5 C 719.5 646.5 719.5 646.5 706.5 649.5 Z" fill="lightgray"></path>
      </clipPath>
      <path clip-path="url(#make-me-a-hanzi-clip-15)" d="M 671.5 647.5 L 697.5 633.5 L 703.5 623.5 L 716.5 547.5 " fill="none" id="make-me-a-hanzi-animation-15" stroke-dasharray="246 492" stroke-linecap="round"></path>

      <clipPath id="make-me-a-hanzi-clip-16">
      <path d="M 836.5 582.5 L 850.5 614.5 Q 854.5 627.5 860.5 634.5 L 872.5 645.5 Q 876.5 650.5 876.5 653.5 Q 876.5 658.5 866.5 665.5 Q 856.5 671.5 847.5 675.5 Q 838.5 678.5 828.5 681.5 Q 821.5 683.5 815.5 683.5 L 812.5 683.5 Q 809.5 682.5 801.5 677.5 Q 792.5 673.5 773.5 666.5 Q 754.5 659.5 740.5 656.5 L 706.5 649.5 C 677.5 643.5 690.5 627.5 720.5 632.5 L 794.5 645.5 Q 798.5 646.5 801.5 646.5 Q 807.5 646.5 810.5 643.5 Q 812.5 641.5 812.5 637.5 Q 812.5 632.5 810.5 625.5 L 798.5 587.5 C 789.5 558.5 824.5 555.5 836.5 582.5 Z" fill="lightgray"></path>
      </clipPath>
      <path clip-path="url(#make-me-a-hanzi-clip-16)" d="M 712.5 647.5 L 726.5 642.5 L 801.5 662.5 L 826.5 658.5 L 837.5 649.5 L 829.5 617.5 L 824.5 604.5 L 805.5 592.5 " fill="none" id="make-me-a-hanzi-animation-16" stroke-dasharray="329 658" stroke-linecap="round"></path>

      <clipPath id="make-me-a-hanzi-clip-17">
      <path d="M 728.5 549.5 L 844.5 563.5 Q 850.5 563.5 852.5 567.5 L 852.5 568.5 Q 852.5 572.5 848.5 574.5 L 836.5 582.5 C 822.5 592.5 822.5 592.5 798.5 587.5 L 726.5 573.5 C 697.5 567.5 698.5 545.5 728.5 549.5 Z" fill="lightgray"></path>
      </clipPath>
      <path clip-path="url(#make-me-a-hanzi-clip-17)" d="M 735.5 556.5 L 740.5 563.5 L 803.5 573.5 L 847.5 568.5 " fill="none" id="make-me-a-hanzi-animation-17" stroke-dasharray="245 490" stroke-linecap="round"></path>

      <clipPath id="make-me-a-hanzi-clip-18">
      <path d="M 764.5 442.5 L 821.5 449.5 Q 830.5 451.5 834.5 452.5 Q 838.5 453.5 842.5 456.5 Q 846.5 459.5 846.5 463.5 Q 846.5 467.5 841.5 471.5 Q 836.5 475.5 825.5 478.5 Q 814.5 482.5 809.5 483.5 Q 804.5 485.5 796.5 485.5 Q 786.5 485.5 770.5 482.5 L 720.5 473.5 L 614.5 459.5 L 570.5 453.5 L 524.5 448.5 L 505.5 446.5 Q 496.5 445.5 494.5 443.5 Q 492.5 439.5 492.5 435.5 Q 492.5 431.5 501.5 426.5 Q 509.5 421.5 522.5 418.5 Q 533.5 416.5 541.5 416.5 L 546.5 416.5 Q 556.5 416.5 571.5 419.5 L 612.5 425.5 L 720.5 439.5 L 764.5 442.5 Z" fill="lightgray"></path>
      </clipPath>
      <path clip-path="url(#make-me-a-hanzi-clip-18)" d="M 502.5 437.5 L 561.5 434.5 L 780.5 464.5 L 837.5 463.5 " fill="none" id="make-me-a-hanzi-animation-18" stroke-dasharray="465 930" stroke-linecap="round"></path>

      <clipPath id="make-me-a-hanzi-clip-19">
      <path d="M 758.5 361.5 L 822.5 369.5 Q 828.5 369.5 834.5 371.5 Q 838.5 373.5 843.5 375.5 Q 848.5 379.5 848.5 382.5 Q 848.5 386.5 842.5 390.5 Q 837.5 393.5 828.5 397.5 L 814.5 400.5 Q 804.5 403.5 796.5 403.5 Q 788.5 403.5 780.5 401.5 Q 772.5 399.5 760.5 397.5 L 720.5 391.5 L 613.5 377.5 L 573.5 373.5 L 520.5 367.5 L 500.5 366.5 Q 492.5 365.5 490.5 363.5 Q 487.5 360.5 487.5 357.5 L 487.5 356.5 Q 488.5 352.5 496.5 347.5 Q 505.5 343.5 519.5 339.5 Q 528.5 336.5 536.5 336.5 Q 540.5 336.5 544.5 337.5 L 562.5 340.5 L 576.5 341.5 L 612.5 346.5 L 717.5 357.5 L 758.5 361.5 Z" fill="lightgray"></path>
      </clipPath>
      <path clip-path="url(#make-me-a-hanzi-clip-19)" d="M 496.5 357.5 L 533.5 352.5 L 793.5 384.5 L 840.5 382.5 " fill="none" id="make-me-a-hanzi-animation-19" stroke-dasharray="474 948" stroke-linecap="round"></path>

      <clipPath id="make-me-a-hanzi-clip-20">
      <path d="M 614.5 459.5 L 615.5 465.5 L 618.5 479.5 Q 620.5 486.5 620.5 490.5 L 620.5 492.5 Q 620.5 497.5 612.5 503.5 Q 605.5 509.5 592.5 512.5 L 575.5 516.5 Q 567.5 517.5 564.5 517.5 Q 558.5 517.5 556.5 513.5 Q 554.5 510.5 554.5 507.5 L 554.5 505.5 Q 554.5 501.5 558.5 495.5 Q 562.5 487.5 565.5 477.5 Q 568.5 466.5 568.5 461.5 Q 569.5 456.5 570.5 453.5 L 571.5 419.5 L 573.5 373.5 L 576.5 341.5 L 578.5 289.5 C 579.5 259.5 617.5 263.5 615.5 293.5 L 612.5 346.5 L 613.5 377.5 L 612.5 425.5 L 614.5 459.5 Z" fill="lightgray"></path>
      </clipPath>
      <path clip-path="url(#make-me-a-hanzi-clip-20)" d="M 564.5 507.5 L 591.5 484.5 L 592.5 477.5 L 596.5 312.5 L 584.5 296.5 " fill="none" id="make-me-a-hanzi-animation-20" stroke-dasharray="356 712" stroke-linecap="round"></path>

      <clipPath id="make-me-a-hanzi-clip-21">
      <path d="M 754.5 307.5 L 758.5 361.5 L 760.5 397.5 L 764.5 442.5 L 770.5 482.5 L 774.5 493.5 L 778.5 507.5 Q 778.5 512.5 770.5 518.5 Q 762.5 523.5 749.5 527.5 L 730.5 531.5 Q 727.5 532.5 724.5 532.5 Q 722.5 532.5 720.5 531.5 Q 713.5 529.5 712.5 525.5 Q 711.5 524.5 711.5 522.5 Q 711.5 518.5 714.5 511.5 Q 718.5 501.5 720.5 493.5 L 720.5 473.5 L 720.5 439.5 L 720.5 391.5 L 717.5 357.5 L 716.5 304.5 C 715.5 274.5 752.5 277.5 754.5 307.5 Z" fill="lightgray"></path>
      </clipPath>
      <path clip-path="url(#make-me-a-hanzi-clip-21)" d="M 722.5 520.5 L 747.5 497.5 L 737.5 329.5 L 722.5 311.5 " fill="none" id="make-me-a-hanzi-animation-21" stroke-dasharray="354 708" stroke-linecap="round"></path>

      <clipPath id="make-me-a-hanzi-clip-22">
      <path d="M 622.5 262.5 L 648.5 265.5 Q 652.5 265.5 689.5 268.5 L 756.5 273.5 Q 794.5 275.5 828.5 276.5 Q 863.5 277.5 873.5 278.5 L 896.5 279.5 Q 916.5 281.5 922.5 283.5 Q 927.5 285.5 928.5 291.5 Q 928.5 295.5 922.5 301.5 Q 916.5 306.5 904.5 312.5 Q 892.5 319.5 885.5 321.5 Q 878.5 324.5 871.5 325.5 Q 864.5 325.5 850.5 321.5 Q 836.5 318.5 814.5 315.5 Q 793.5 311.5 782.5 310.5 Q 771.5 309.5 754.5 307.5 L 716.5 304.5 L 692.5 302.5 Q 690.5 301.5 672.5 299.5 Q 654.5 297.5 643.5 296.5 Q 632.5 295.5 615.5 293.5 L 578.5 289.5 L 550.5 286.5 Q 536.5 284.5 505.5 282.5 L 474.5 280.5 L 450.5 277.5 Q 446.5 276.5 443.5 272.5 L 443.5 271.5 Q 443.5 266.5 453.5 258.5 Q 466.5 249.5 478.5 245.5 Q 490.5 241.5 498.5 241.5 Q 502.5 241.5 517.5 245.5 Q 532.5 249.5 546.5 251.5 Q 561.5 253.5 581.5 257.5 L 622.5 262.5 Z" fill="lightgray"></path>
      </clipPath>
      <path clip-path="url(#make-me-a-hanzi-clip-22)" d="M 449.5 272.5 L 496.5 261.5 L 861.5 301.5 L 918.5 292.5 " fill="none" id="make-me-a-hanzi-animation-22" stroke-dasharray="601 1202" stroke-linecap="round"></path>

      <clipPath id="make-me-a-hanzi-clip-23">
      <path d="M 581.5 257.5 L 569.5 239.5 Q 563.5 229.5 549.5 213.5 Q 536.5 195.5 515.5 175.5 Q 494.5 153.5 466.5 131.5 L 434.5 106.5 Q 421.5 96.5 421.5 89.5 L 421.5 87.5 Q 422.5 83.5 427.5 83.5 Q 433.5 83.5 444.5 89.5 L 472.5 101.5 Q 485.5 106.5 500.5 115.5 Q 514.5 125.5 534.5 137.5 L 566.5 167.5 L 612.5 207.5 Q 621.5 215.5 626.5 217.5 Q 630.5 221.5 634.5 221.5 L 642.5 223.5 Q 646.5 225.5 648.5 228.5 Q 649.5 230.5 649.5 231.5 Q 649.5 235.5 646.5 240.5 Q 640.5 247.5 633.5 253.5 Q 626.5 258.5 622.5 262.5 C 599.5 282.5 598.5 282.5 581.5 257.5 Z" fill="lightgray"></path>
      </clipPath>
      <path clip-path="url(#make-me-a-hanzi-clip-23)" d="M 639.5 233.5 L 615.5 238.5 L 599.5 231.5 L 525.5 156.5 L 426.5 88.5 " fill="none" id="make-me-a-hanzi-animation-23" stroke-dasharray="395 790" stroke-linecap="round"></path>

      <clipPath id="make-me-a-hanzi-clip-24">
      <path d="M 534.5 137.5 L 536.5 101.5 L 535.5 56.5 Q 534.5 43.5 532.5 28.5 Q 530.5 13.5 526.5 2.5 Q 522.5 -7.5 522.5 -10.5 Q 522.5 -12.5 524.5 -19.5 Q 526.5 -25.5 531.5 -35.5 Q 537.5 -46.5 542.5 -49.5 Q 548.5 -54.5 552.5 -54.5 Q 558.5 -54.5 565.5 -45.5 L 582.5 -24.5 Q 593.5 -12.5 608.5 1.5 L 690.5 75.5 Q 695.5 78.5 695.5 81.5 Q 695.5 82.5 694.5 83.5 Q 693.5 85.5 690.5 85.5 Q 689.5 85.5 686.5 84.5 L 592.5 35.5 Q 585.5 31.5 581.5 31.5 L 579.5 31.5 Q 576.5 33.5 576.5 47.5 L 578.5 110.5 Q 578.5 113.5 580.5 123.5 Q 582.5 133.5 584.5 136.5 Q 586.5 144.5 586.5 147.5 L 586.5 149.5 Q 586.5 152.5 580.5 157.5 Q 574.5 161.5 566.5 167.5 C 542.5 185.5 532.5 167.5 534.5 137.5 Z" fill="lightgray"></path>
      </clipPath>
      <path clip-path="url(#make-me-a-hanzi-clip-24)" d="M 565.5 158.5 L 568.5 144.5 L 557.5 120.5 L 554.5 33.5 L 562.5 2.5 L 589.5 11.5 L 690.5 80.5 " fill="none" id="make-me-a-hanzi-animation-24" stroke-dasharray="439 878" stroke-linecap="round"></path>

      <clipPath id="make-me-a-hanzi-clip-25">
      <path d="M 750.5 150.5 L 774.5 163.5 Q 791.5 173.5 800.5 179.5 L 821.5 193.5 L 835.5 201.5 Q 842.5 205.5 847.5 207.5 L 856.5 210.5 Q 859.5 212.5 860.5 217.5 Q 860.5 221.5 854.5 229.5 Q 847.5 237.5 837.5 245.5 Q 828.5 253.5 821.5 256.5 Q 815.5 259.5 810.5 261.5 Q 803.5 262.5 800.5 262.5 L 798.5 262.5 Q 797.5 261.5 796.5 255.5 Q 795.5 251.5 790.5 240.5 Q 786.5 229.5 780.5 219.5 Q 774.5 207.5 764.5 194.5 L 738.5 159.5 C 720.5 135.5 724.5 136.5 750.5 150.5 Z" fill="lightgray"></path>
      </clipPath>
      <path clip-path="url(#make-me-a-hanzi-clip-25)" d="M 799.5 258.5 L 815.5 223.5 L 748.5 160.5 " fill="none" id="make-me-a-hanzi-animation-25" stroke-dasharray="258 516" stroke-linecap="round"></path>

      <clipPath id="make-me-a-hanzi-clip-26">
      <path d="M 738.5 159.5 L 706.5 189.5 Q 696.5 197.5 683.5 202.5 Q 670.5 207.5 662.5 207.5 Q 656.5 206.5 652.5 204.5 Q 648.5 202.5 647.5 199.5 Q 645.5 197.5 645.5 195.5 Q 645.5 193.5 646.5 192.5 Q 647.5 189.5 649.5 187.5 Q 651.5 186.5 664.5 181.5 Q 678.5 177.5 688.5 166.5 Q 700.5 155.5 726.5 127.5 L 760.5 89.5 Q 765.5 81.5 782.5 59.5 L 812.5 23.5 Q 823.5 9.5 831.5 1.5 Q 839.5 -5.5 849.5 -8.5 Q 856.5 -11.5 867.5 -11.5 L 873.5 -11.5 Q 883.5 -11.5 912.5 -6.5 Q 940.5 -2.5 945.5 -0.5 Q 950.5 -0.5 964.5 3.5 L 980.5 7.5 Q 990.5 10.5 990.5 17.5 Q 990.5 23.5 982.5 25.5 L 966.5 30.5 L 944.5 35.5 Q 924.5 41.5 889.5 56.5 Q 854.5 71.5 828.5 89.5 Q 802.5 107.5 782.5 123.5 L 750.5 150.5 L 738.5 159.5 Z" fill="lightgray"></path>
      </clipPath>
      <path clip-path="url(#make-me-a-hanzi-clip-26)" d="M 650.5 195.5 L 684.5 188.5 L 702.5 174.5 L 796.5 80.5 L 859.5 28.5 L 918.5 18.5 L 981.5 16.5 " fill="none" id="make-me-a-hanzi-animation-26" stroke-dasharray="523 1046" stroke-linecap="round"></path>

</g>
</svg>
