<svg version="1.1" viewBox="0 0 1024 1024" xmlns="http://www.w3.org/2000/svg">
  <g stroke="lightgray" stroke-dasharray="1,1" stroke-width="1" transform="scale(4, 4)">
    <line x1="0" y1="0" x2="256" y2="256"></line>
    <line x1="256" y1="0" x2="0" y2="256"></line>
    <line x1="128" y1="0" x2="128" y2="256"></line>
    <line x1="0" y1="128" x2="256" y2="128"></line>
  </g>
<g transform="scale(0.92, -0.92) translate(60, -900)">
   <style type="text/css">
    @keyframes keyframes0 {
      from {
       stroke: blue;
       stroke-dashoffset: 808;
       stroke-width: 128;
       }
       72% {
       animation-timing-function: step-end;
       stroke: blue;
       stroke-dashoffset: 0;
       stroke-width: 128;
       }
       to {
       stroke: black;
       stroke-width: 1024;
       }
       }
       #make-me-a-hanzi-animation-0 {
         animation: keyframes0 0.907552s both;
         animation-delay: 0.000000s;
         animation-timing-function: linear;
       }
    @keyframes keyframes1 {
      from {
       stroke: blue;
       stroke-dashoffset: 1202;
       stroke-width: 128;
       }
       80% {
       animation-timing-function: step-end;
       stroke: blue;
       stroke-dashoffset: 0;
       stroke-width: 128;
       }
       to {
       stroke: black;
       stroke-width: 1024;
       }
       }
       #make-me-a-hanzi-animation-1 {
         animation: keyframes1 1.228190s both;
         animation-delay: 0.907552s;
         animation-timing-function: linear;
       }
    @keyframes keyframes2 {
      from {
       stroke: blue;
       stroke-dashoffset: 524;
       stroke-width: 128;
       }
       63% {
       animation-timing-function: step-end;
       stroke: blue;
       stroke-dashoffset: 0;
       stroke-width: 128;
       }
       to {
       stroke: black;
       stroke-width: 1024;
       }
       }
       #make-me-a-hanzi-animation-2 {
         animation: keyframes2 0.676432s both;
         animation-delay: 2.135742s;
         animation-timing-function: linear;
       }
    @keyframes keyframes3 {
      from {
       stroke: blue;
       stroke-dashoffset: 374;
       stroke-width: 128;
       }
       55% {
       animation-timing-function: step-end;
       stroke: blue;
       stroke-dashoffset: 0;
       stroke-width: 128;
       }
       to {
       stroke: black;
       stroke-width: 1024;
       }
       }
       #make-me-a-hanzi-animation-3 {
         animation: keyframes3 0.554362s both;
         animation-delay: 2.812174s;
         animation-timing-function: linear;
       }
    @keyframes keyframes4 {
      from {
       stroke: blue;
       stroke-dashoffset: 676;
       stroke-width: 128;
       }
       69% {
       animation-timing-function: step-end;
       stroke: blue;
       stroke-dashoffset: 0;
       stroke-width: 128;
       }
       to {
       stroke: black;
       stroke-width: 1024;
       }
       }
       #make-me-a-hanzi-animation-4 {
         animation: keyframes4 0.800130s both;
         animation-delay: 3.366536s;
         animation-timing-function: linear;
       }
    @keyframes keyframes5 {
      from {
       stroke: blue;
       stroke-dashoffset: 387;
       stroke-width: 128;
       }
       56% {
       animation-timing-function: step-end;
       stroke: blue;
       stroke-dashoffset: 0;
       stroke-width: 128;
       }
       to {
       stroke: black;
       stroke-width: 1024;
       }
       }
       #make-me-a-hanzi-animation-5 {
         animation: keyframes5 0.564941s both;
         animation-delay: 4.166667s;
         animation-timing-function: linear;
       }
    @keyframes keyframes6 {
      from {
       stroke: blue;
       stroke-dashoffset: 421;
       stroke-width: 128;
       }
       58% {
       animation-timing-function: step-end;
       stroke: blue;
       stroke-dashoffset: 0;
       stroke-width: 128;
       }
       to {
       stroke: black;
       stroke-width: 1024;
       }
       }
       #make-me-a-hanzi-animation-6 {
         animation: keyframes6 0.592611s both;
         animation-delay: 4.731608s;
         animation-timing-function: linear;
       }
    @keyframes keyframes7 {
      from {
       stroke: blue;
       stroke-dashoffset: 352;
       stroke-width: 128;
       }
       53% {
       animation-timing-function: step-end;
       stroke: blue;
       stroke-dashoffset: 0;
       stroke-width: 128;
       }
       to {
       stroke: black;
       stroke-width: 1024;
       }
       }
       #make-me-a-hanzi-animation-7 {
         animation: keyframes7 0.536458s both;
         animation-delay: 5.324219s;
         animation-timing-function: linear;
       }
    @keyframes keyframes8 {
      from {
       stroke: blue;
       stroke-dashoffset: 378;
       stroke-width: 128;
       }
       55% {
       animation-timing-function: step-end;
       stroke: blue;
       stroke-dashoffset: 0;
       stroke-width: 128;
       }
       to {
       stroke: black;
       stroke-width: 1024;
       }
       }
       #make-me-a-hanzi-animation-8 {
         animation: keyframes8 0.557617s both;
         animation-delay: 5.860677s;
         animation-timing-function: linear;
       }
    @keyframes keyframes9 {
      from {
       stroke: blue;
       stroke-dashoffset: 445;
       stroke-width: 128;
       }
       59% {
       animation-timing-function: step-end;
       stroke: blue;
       stroke-dashoffset: 0;
       stroke-width: 128;
       }
       to {
       stroke: black;
       stroke-width: 1024;
       }
       }
       #make-me-a-hanzi-animation-9 {
         animation: keyframes9 0.612142s both;
         animation-delay: 6.418294s;
         animation-timing-function: linear;
       }
    @keyframes keyframes10 {
      from {
       stroke: blue;
       stroke-dashoffset: 352;
       stroke-width: 128;
       }
       53% {
       animation-timing-function: step-end;
       stroke: blue;
       stroke-dashoffset: 0;
       stroke-width: 128;
       }
       to {
       stroke: black;
       stroke-width: 1024;
       }
       }
       #make-me-a-hanzi-animation-10 {
         animation: keyframes10 0.536458s both;
         animation-delay: 7.030436s;
         animation-timing-function: linear;
       }
    @keyframes keyframes11 {
      from {
       stroke: blue;
       stroke-dashoffset: 599;
       stroke-width: 128;
       }
       66% {
       animation-timing-function: step-end;
       stroke: blue;
       stroke-dashoffset: 0;
       stroke-width: 128;
       }
       to {
       stroke: black;
       stroke-width: 1024;
       }
       }
       #make-me-a-hanzi-animation-11 {
         animation: keyframes11 0.737467s both;
         animation-delay: 7.566895s;
         animation-timing-function: linear;
       }
    @keyframes keyframes12 {
      from {
       stroke: blue;
       stroke-dashoffset: 579;
       stroke-width: 128;
       }
       65% {
       animation-timing-function: step-end;
       stroke: blue;
       stroke-dashoffset: 0;
       stroke-width: 128;
       }
       to {
       stroke: black;
       stroke-width: 1024;
       }
       }
       #make-me-a-hanzi-animation-12 {
         animation: keyframes12 0.721191s both;
         animation-delay: 8.304362s;
         animation-timing-function: linear;
       }
    @keyframes keyframes13 {
      from {
       stroke: blue;
       stroke-dashoffset: 466;
       stroke-width: 128;
       }
       60% {
       animation-timing-function: step-end;
       stroke: blue;
       stroke-dashoffset: 0;
       stroke-width: 128;
       }
       to {
       stroke: black;
       stroke-width: 1024;
       }
       }
       #make-me-a-hanzi-animation-13 {
         animation: keyframes13 0.629232s both;
         animation-delay: 9.025553s;
         animation-timing-function: linear;
       }
    @keyframes keyframes14 {
      from {
       stroke: blue;
       stroke-dashoffset: 473;
       stroke-width: 128;
       }
       61% {
       animation-timing-function: step-end;
       stroke: blue;
       stroke-dashoffset: 0;
       stroke-width: 128;
       }
       to {
       stroke: black;
       stroke-width: 1024;
       }
       }
       #make-me-a-hanzi-animation-14 {
         animation: keyframes14 0.634928s both;
         animation-delay: 9.654785s;
         animation-timing-function: linear;
       }
    @keyframes keyframes15 {
      from {
       stroke: blue;
       stroke-dashoffset: 720;
       stroke-width: 128;
       }
       70% {
       animation-timing-function: step-end;
       stroke: blue;
       stroke-dashoffset: 0;
       stroke-width: 128;
       }
       to {
       stroke: black;
       stroke-width: 1024;
       }
       }
       #make-me-a-hanzi-animation-15 {
         animation: keyframes15 0.835938s both;
         animation-delay: 10.289714s;
         animation-timing-function: linear;
       }
    @keyframes keyframes16 {
      from {
       stroke: blue;
       stroke-dashoffset: 538;
       stroke-width: 128;
       }
       64% {
       animation-timing-function: step-end;
       stroke: blue;
       stroke-dashoffset: 0;
       stroke-width: 128;
       }
       to {
       stroke: black;
       stroke-width: 1024;
       }
       }
       #make-me-a-hanzi-animation-16 {
         animation: keyframes16 0.687826s both;
         animation-delay: 11.125651s;
         animation-timing-function: linear;
       }
    @keyframes keyframes17 {
      from {
       stroke: blue;
       stroke-dashoffset: 553;
       stroke-width: 128;
       }
       64% {
       animation-timing-function: step-end;
       stroke: blue;
       stroke-dashoffset: 0;
       stroke-width: 128;
       }
       to {
       stroke: black;
       stroke-width: 1024;
       }
       }
       #make-me-a-hanzi-animation-17 {
         animation: keyframes17 0.700033s both;
         animation-delay: 11.813477s;
         animation-timing-function: linear;
       }
    @keyframes keyframes18 {
      from {
       stroke: blue;
       stroke-dashoffset: 410;
       stroke-width: 128;
       }
       57% {
       animation-timing-function: step-end;
       stroke: blue;
       stroke-dashoffset: 0;
       stroke-width: 128;
       }
       to {
       stroke: black;
       stroke-width: 1024;
       }
       }
       #make-me-a-hanzi-animation-18 {
         animation: keyframes18 0.583659s both;
         animation-delay: 12.513509s;
         animation-timing-function: linear;
       }
    @keyframes keyframes19 {
      from {
       stroke: blue;
       stroke-dashoffset: 700;
       stroke-width: 128;
       }
       69% {
       animation-timing-function: step-end;
       stroke: blue;
       stroke-dashoffset: 0;
       stroke-width: 128;
       }
       to {
       stroke: black;
       stroke-width: 1024;
       }
       }
       #make-me-a-hanzi-animation-19 {
         animation: keyframes19 0.819661s both;
         animation-delay: 13.097168s;
         animation-timing-function: linear;
       }
</style>
<path d="M 326.0 385.5 Q 333.0 407.5 336.0 447.5 Q 344.0 533.5 352.0 628.5 Q 354.0 646.5 370.0 667.5 Q 380.0 676.5 380.0 682.5 Q 379.0 697.5 351.0 719.5 Q 330.0 733.5 321.0 733.5 Q 308.0 733.5 291.0 726.5 Q 248.0 702.5 210.0 694.5 Q 180.0 687.5 109.0 686.5 Q 92.0 684.5 92.0 678.5 Q 93.0 669.5 111.0 659.5 Q 131.0 645.5 149.0 645.5 Q 163.0 645.5 225.0 663.5 Q 276.0 674.5 289.0 674.5 Q 300.0 674.5 300.0 661.5 Q 300.0 627.5 296.0 549.5 Q 292.0 500.5 285.0 446.5 Q 281.0 420.5 281.0 405.5 Q 281.0 391.5 289.0 379.5 Q 289.0 378.5 290.0 377.5 C 303.0 350.5 319.0 356.5 326.0 385.5 Z" fill="lightgray"></path> 
<path d="M 149.0 613.5 Q 136.0 613.5 136.0 605.5 Q 157.0 560.5 157.0 517.5 Q 157.0 416.5 124.0 344.5 Q 121.0 338.5 121.0 330.5 Q 121.0 328.5 131.0 313.5 Q 145.0 298.5 153.0 298.5 Q 158.0 298.5 172.0 308.5 Q 199.0 323.5 250.0 334.5 Q 311.0 346.5 325.0 346.5 Q 344.0 346.5 344.0 326.5 Q 344.0 274.5 339.0 221.5 Q 329.0 138.5 305.0 91.5 Q 292.0 65.5 277.0 65.5 Q 266.0 65.5 243.0 75.5 Q 218.0 90.5 212.0 90.5 Q 205.0 89.5 205.0 86.5 Q 205.0 83.5 242.0 17.5 Q 268.0 -30.5 277.0 -30.5 Q 312.0 -30.5 350.0 38.5 Q 382.0 103.5 395.0 228.5 Q 401.0 299.5 420.0 320.5 Q 428.0 332.5 428.0 338.5 Q 428.0 351.5 394.0 371.5 Q 358.0 389.5 348.0 389.5 Q 343.0 389.5 327.0 385.5 L 326.0 385.5 L 290.0 377.5 Q 250.0 369.5 193.0 357.5 Q 184.0 357.5 184.0 365.5 Q 208.0 539.5 208.0 573.5 Q 208.0 590.5 184.0 605.5 Q 163.0 613.5 149.0 613.5 Z" fill="lightgray"></path> 
<path d="M 296.0 269.5 Q 287.0 269.5 249.0 250.5 Q 202.0 229.5 139.0 208.5 Q 101.0 196.5 61.0 193.5 Q 44.0 192.5 44.0 181.5 Q 44.0 169.5 71.0 153.5 Q 93.0 137.5 109.0 137.5 Q 118.0 137.5 133.0 147.5 Q 207.0 195.5 300.0 233.5 Q 319.0 237.5 321.0 254.5 Q 321.0 268.5 296.0 269.5 Z" fill="lightgray"></path> 
<path d="M 604.0 833.5 Q 585.0 833.5 585.0 829.5 Q 585.0 827.5 616.0 784.5 Q 653.0 737.5 676.0 737.5 Q 696.0 737.5 696.0 758.5 Q 696.0 785.5 687.0 802.5 Q 674.0 819.5 653.0 827.5 Q 628.0 833.5 604.0 833.5 Z" fill="lightgray"></path> 
<path d="M 801.0 745.5 Q 775.0 745.5 750.0 738.5 Q 625.0 710.5 535.0 695.5 Q 494.0 688.5 449.0 686.5 Q 425.0 686.5 424.0 674.5 Q 426.0 669.5 439.0 662.5 Q 464.0 651.5 489.0 649.5 Q 502.0 649.5 534.0 657.5 Q 602.0 670.5 704.0 685.5 Q 766.0 691.5 841.0 693.5 Q 864.0 693.5 864.0 710.5 Q 864.0 724.5 846.0 734.5 Q 824.0 745.5 801.0 745.5 Z" fill="lightgray"></path> 
<path d="M 432.0 605.5 Q 424.0 605.5 424.0 598.5 Q 425.0 597.5 432.0 591.5 Q 445.0 582.5 474.0 501.5 Q 482.0 481.5 493.0 481.5 Q 501.0 481.5 501.0 502.5 L 501.0 503.5 L 498.0 527.5 L 493.0 561.5 Q 491.0 570.5 487.0 578.5 L 473.0 596.5 L 472.0 597.5 Q 455.0 604.5 432.0 605.5 Z" fill="lightgray"></path> 
<path d="M 593.0 542.5 Q 603.0 571.5 619.0 586.5 Q 629.0 595.5 629.0 598.5 Q 629.0 604.5 605.0 619.5 Q 581.0 634.5 568.0 634.5 Q 563.0 634.5 549.0 623.5 Q 528.0 608.5 473.0 596.5 C 444.0 589.5 457.0 574.5 487.0 578.5 Q 497.0 579.5 516.0 584.5 Q 541.0 590.5 548.0 590.5 Q 560.0 590.5 560.0 582.5 L 560.0 544.5 C 560.0 514.5 583.0 514.5 593.0 542.5 Z" fill="lightgray"></path> 
<path d="M 501.0 503.5 Q 504.0 502.5 508.0 502.5 Q 553.0 510.5 600.0 517.5 Q 608.0 521.5 608.0 525.5 Q 608.0 533.5 596.0 541.5 Q 595.0 542.5 593.0 542.5 L 560.0 544.5 Q 544.0 540.5 498.0 527.5 C 469.0 519.5 472.0 509.5 501.0 503.5 Z" fill="lightgray"></path> 
<path d="M 652.0 642.5 Q 644.0 642.5 644.0 634.5 Q 645.0 633.5 650.0 627.5 Q 662.0 617.5 685.0 540.5 Q 692.0 521.5 701.0 521.5 Q 708.0 521.5 709.0 532.5 L 708.0 555.5 L 705.0 602.5 Q 704.0 605.5 703.0 610.5 C 699.0 629.5 699.0 629.5 687.0 634.5 Q 672.0 641.5 652.0 642.5 Z" fill="lightgray"></path> 
<path d="M 812.0 561.5 Q 834.0 599.5 852.0 606.5 Q 860.0 610.5 860.0 613.5 Q 860.0 629.5 835.0 646.5 Q 810.0 661.5 793.0 661.5 Q 790.0 661.5 783.0 658.5 Q 770.0 652.5 735.0 644.5 Q 702.0 635.5 688.0 634.5 L 687.0 634.5 C 657.0 631.5 673.0 614.5 703.0 610.5 Q 705.0 609.5 709.0 609.5 Q 713.0 609.5 736.0 616.5 Q 759.0 621.5 768.0 621.5 Q 785.0 621.5 785.0 605.5 Q 780.0 577.5 778.0 570.5 L 777.0 568.5 C 768.0 539.5 797.0 535.5 812.0 561.5 Z" fill="lightgray"></path> 
<path d="M 709.0 532.5 Q 713.0 529.5 720.0 529.5 Q 765.0 535.5 812.0 542.5 Q 820.0 545.5 820.0 550.5 Q 820.0 555.5 812.0 561.5 C 798.0 572.5 798.0 572.5 777.0 568.5 Q 762.0 565.5 708.0 555.5 C 679.0 550.5 683.0 546.5 709.0 532.5 Z" fill="lightgray"></path> 
<path d="M 793.0 485.5 Q 770.0 485.5 741.0 478.5 Q 738.0 478.5 735.0 477.5 L 680.0 466.5 Q 637.0 457.5 597.0 449.5 L 540.0 439.5 Q 506.0 434.5 476.0 430.5 Q 464.0 427.5 464.0 422.5 Q 464.0 418.5 480.0 415.5 Q 500.0 409.5 516.0 409.5 Q 524.0 409.5 546.0 412.5 L 595.0 418.5 Q 629.0 423.5 679.0 431.5 L 729.0 439.5 Q 766.0 445.5 812.0 454.5 Q 824.0 458.5 824.0 470.5 Q 824.0 484.5 793.0 485.5 Z" fill="lightgray"></path> 
<path d="M 552.0 364.5 Q 511.0 358.5 476.0 353.5 Q 464.0 351.5 464.0 346.5 Q 464.0 342.5 480.0 339.5 Q 500.0 334.5 516.0 334.5 Q 527.0 334.5 554.0 337.5 L 589.0 342.5 Q 622.0 346.5 670.0 353.5 L 718.0 361.5 Q 752.0 366.5 793.0 374.5 Q 804.0 378.5 804.0 389.5 Q 804.0 404.5 772.0 405.5 Q 752.0 405.5 723.0 399.5 L 676.0 389.5 Q 631.0 379.5 590.0 372.5 L 552.0 364.5 Z" fill="lightgray"></path> 
<path d="M 597.0 449.5 Q 591.0 459.5 572.0 471.5 Q 544.0 485.5 524.0 485.5 Q 512.0 485.5 512.0 477.5 Q 512.0 475.5 520.0 470.5 Q 531.0 464.5 538.0 445.5 Q 539.0 443.5 540.0 439.5 L 546.0 412.5 Q 550.0 393.5 552.0 364.5 L 554.0 337.5 Q 555.0 316.5 556.0 289.5 C 557.0 259.5 589.0 264.5 589.0 294.5 L 589.0 342.5 L 590.0 372.5 Q 591.0 387.5 592.0 397.5 Q 593.0 407.5 595.0 418.5 C 600.0 446.5 600.0 446.5 597.0 449.5 Z" fill="lightgray"></path> 
<path d="M 735.0 477.5 Q 732.0 488.5 705.0 507.5 Q 682.0 521.5 673.0 521.5 Q 669.0 521.5 669.0 514.5 Q 678.0 488.5 680.0 466.5 L 679.0 431.5 Q 679.0 411.5 676.0 389.5 L 670.0 353.5 Q 665.0 331.5 665.0 326.5 Q 667.0 315.5 669.0 308.5 C 676.0 279.5 700.0 286.5 709.0 315.5 Q 715.0 333.5 718.0 361.5 L 723.0 399.5 Q 727.0 424.5 729.0 439.5 C 733.0 469.5 736.0 476.5 735.0 477.5 Z" fill="lightgray"></path> 
<path d="M 556.0 289.5 L 540.0 287.5 Q 493.0 280.5 440.0 277.5 Q 418.0 277.5 417.0 265.5 Q 418.0 261.5 430.0 257.5 Q 454.0 247.5 476.0 246.5 Q 492.0 246.5 529.0 254.5 Q 536.0 255.5 545.0 256.5 L 599.0 264.5 Q 653.0 272.5 724.0 281.5 Q 795.0 288.5 881.0 290.5 Q 900.0 290.5 900.0 305.5 Q 900.0 318.5 884.0 328.5 Q 866.0 338.5 845.0 338.5 Q 816.0 338.5 786.0 331.5 Q 747.0 322.5 709.0 315.5 L 669.0 308.5 Q 628.0 300.5 589.0 294.5 L 556.0 289.5 Z" fill="lightgray"></path> 
<path d="M 545.0 256.5 L 545.0 253.5 Q 545.0 235.5 507.0 190.5 Q 459.0 134.5 377.0 78.5 Q 377.0 75.5 384.0 74.5 Q 411.0 75.5 457.0 102.5 Q 481.0 117.5 506.0 138.5 L 530.0 160.5 Q 541.0 170.5 554.0 185.5 Q 574.0 206.5 586.0 221.5 L 599.0 237.5 Q 608.0 250.5 608.0 253.5 L 608.0 254.5 Q 608.0 258.5 599.0 264.5 C 576.0 283.5 548.0 286.5 545.0 256.5 Z" fill="lightgray"></path> 
<path d="M 506.0 138.5 Q 528.0 118.5 528.0 102.5 L 528.0 60.5 Q 528.0 30.5 498.0 6.5 Q 489.0 -1.5 489.0 -5.5 Q 489.0 -20.5 497.0 -39.5 Q 508.0 -57.5 520.0 -57.5 Q 525.0 -57.5 541.0 -44.5 Q 574.0 -6.5 660.0 68.5 Q 676.0 82.5 676.0 86.5 Q 676.0 93.5 673.0 93.5 L 568.0 38.5 L 571.0 73.5 Q 573.0 91.5 579.0 102.5 Q 585.0 111.5 585.0 114.5 Q 585.0 131.5 556.0 146.5 Q 542.0 155.5 530.0 160.5 C 503.0 173.5 485.0 159.5 506.0 138.5 Z" fill="lightgray"></path> 
<path d="M 709.0 160.5 Q 745.0 170.5 774.0 186.5 Q 803.0 203.5 826.0 215.5 Q 837.0 219.5 837.0 221.5 Q 837.0 236.5 799.0 256.5 Q 772.0 269.5 761.0 269.5 Q 755.0 269.5 752.0 264.5 Q 749.0 260.5 749.0 254.5 Q 749.0 244.5 735.0 224.5 Q 717.0 199.5 693.0 178.5 Q 691.0 177.5 688.0 173.5 C 668.0 151.5 680.0 152.5 709.0 160.5 Z" fill="lightgray"></path> 
<path d="M 586.0 221.5 Q 599.0 209.5 627.0 176.5 Q 738.0 48.5 776.0 22.5 Q 792.0 13.5 801.0 13.5 Q 837.0 13.5 903.0 24.5 Q 980.0 35.5 980.0 46.5 Q 980.0 49.5 941.0 56.5 Q 869.0 71.5 818.0 95.5 Q 771.0 117.5 709.0 160.5 L 688.0 173.5 Q 661.0 192.5 631.0 215.5 Q 614.0 228.5 599.0 237.5 C 574.0 253.5 565.0 242.5 586.0 221.5 Z" fill="lightgray"></path> 
      <clipPath id="make-me-a-hanzi-clip-0">
      <path d="M 326.0 385.5 Q 333.0 407.5 336.0 447.5 Q 344.0 533.5 352.0 628.5 Q 354.0 646.5 370.0 667.5 Q 380.0 676.5 380.0 682.5 Q 379.0 697.5 351.0 719.5 Q 330.0 733.5 321.0 733.5 Q 308.0 733.5 291.0 726.5 Q 248.0 702.5 210.0 694.5 Q 180.0 687.5 109.0 686.5 Q 92.0 684.5 92.0 678.5 Q 93.0 669.5 111.0 659.5 Q 131.0 645.5 149.0 645.5 Q 163.0 645.5 225.0 663.5 Q 276.0 674.5 289.0 674.5 Q 300.0 674.5 300.0 661.5 Q 300.0 627.5 296.0 549.5 Q 292.0 500.5 285.0 446.5 Q 281.0 420.5 281.0 405.5 Q 281.0 391.5 289.0 379.5 Q 289.0 378.5 290.0 377.5 C 303.0 350.5 319.0 356.5 326.0 385.5 Z" fill="lightgray"></path>
      </clipPath>
      <path clip-path="url(#make-me-a-hanzi-clip-0)" d="M 99.0 676.5 L 151.0 666.5 L 209.0 675.5 L 296.0 700.5 L 319.0 698.5 L 334.0 681.5 L 311.0 440.5 L 306.0 406.5 L 295.0 381.5 " fill="none" id="make-me-a-hanzi-animation-0" stroke-dasharray="680 1360" stroke-linecap="round"></path>

      <clipPath id="make-me-a-hanzi-clip-1">
      <path d="M 149.0 613.5 Q 136.0 613.5 136.0 605.5 Q 157.0 560.5 157.0 517.5 Q 157.0 416.5 124.0 344.5 Q 121.0 338.5 121.0 330.5 Q 121.0 328.5 131.0 313.5 Q 145.0 298.5 153.0 298.5 Q 158.0 298.5 172.0 308.5 Q 199.0 323.5 250.0 334.5 Q 311.0 346.5 325.0 346.5 Q 344.0 346.5 344.0 326.5 Q 344.0 274.5 339.0 221.5 Q 329.0 138.5 305.0 91.5 Q 292.0 65.5 277.0 65.5 Q 266.0 65.5 243.0 75.5 Q 218.0 90.5 212.0 90.5 Q 205.0 89.5 205.0 86.5 Q 205.0 83.5 242.0 17.5 Q 268.0 -30.5 277.0 -30.5 Q 312.0 -30.5 350.0 38.5 Q 382.0 103.5 395.0 228.5 Q 401.0 299.5 420.0 320.5 Q 428.0 332.5 428.0 338.5 Q 428.0 351.5 394.0 371.5 Q 358.0 389.5 348.0 389.5 Q 343.0 389.5 327.0 385.5 L 326.0 385.5 L 290.0 377.5 Q 250.0 369.5 193.0 357.5 Q 184.0 357.5 184.0 365.5 Q 208.0 539.5 208.0 573.5 Q 208.0 590.5 184.0 605.5 Q 163.0 613.5 149.0 613.5 Z" fill="lightgray"></path>
      </clipPath>
      <path clip-path="url(#make-me-a-hanzi-clip-1)" d="M 147.0 601.5 L 175.0 579.5 L 181.0 549.5 L 177.0 465.5 L 159.0 368.5 L 162.0 340.5 L 193.0 337.5 L 249.0 352.5 L 339.0 365.5 L 361.0 358.5 L 382.0 334.5 L 360.0 170.5 L 345.0 110.5 L 323.0 57.5 L 288.0 23.5 L 255.0 43.5 L 210.0 86.5 " fill="none" id="make-me-a-hanzi-animation-1" stroke-dasharray="1074 2148" stroke-linecap="round"></path>

      <clipPath id="make-me-a-hanzi-clip-2">
      <path d="M 296.0 269.5 Q 287.0 269.5 249.0 250.5 Q 202.0 229.5 139.0 208.5 Q 101.0 196.5 61.0 193.5 Q 44.0 192.5 44.0 181.5 Q 44.0 169.5 71.0 153.5 Q 93.0 137.5 109.0 137.5 Q 118.0 137.5 133.0 147.5 Q 207.0 195.5 300.0 233.5 Q 319.0 237.5 321.0 254.5 Q 321.0 268.5 296.0 269.5 Z" fill="lightgray"></path>
      </clipPath>
      <path clip-path="url(#make-me-a-hanzi-clip-2)" d="M 56.0 180.5 L 108.0 169.5 L 306.0 253.5 " fill="none" id="make-me-a-hanzi-animation-2" stroke-dasharray="396 792" stroke-linecap="round"></path>

      <clipPath id="make-me-a-hanzi-clip-3">
      <path d="M 604.0 833.5 Q 585.0 833.5 585.0 829.5 Q 585.0 827.5 616.0 784.5 Q 653.0 737.5 676.0 737.5 Q 696.0 737.5 696.0 758.5 Q 696.0 785.5 687.0 802.5 Q 674.0 819.5 653.0 827.5 Q 628.0 833.5 604.0 833.5 Z" fill="lightgray"></path>
      </clipPath>
      <path clip-path="url(#make-me-a-hanzi-clip-3)" d="M 589.0 829.5 L 653.0 791.5 L 678.0 755.5 " fill="none" id="make-me-a-hanzi-animation-3" stroke-dasharray="246 492" stroke-linecap="round"></path>

      <clipPath id="make-me-a-hanzi-clip-4">
      <path d="M 801.0 745.5 Q 775.0 745.5 750.0 738.5 Q 625.0 710.5 535.0 695.5 Q 494.0 688.5 449.0 686.5 Q 425.0 686.5 424.0 674.5 Q 426.0 669.5 439.0 662.5 Q 464.0 651.5 489.0 649.5 Q 502.0 649.5 534.0 657.5 Q 602.0 670.5 704.0 685.5 Q 766.0 691.5 841.0 693.5 Q 864.0 693.5 864.0 710.5 Q 864.0 724.5 846.0 734.5 Q 824.0 745.5 801.0 745.5 Z" fill="lightgray"></path>
      </clipPath>
      <path clip-path="url(#make-me-a-hanzi-clip-4)" d="M 431.0 676.5 L 493.0 669.5 L 773.0 717.5 L 807.0 719.5 L 846.0 711.5 " fill="none" id="make-me-a-hanzi-animation-4" stroke-dasharray="548 1096" stroke-linecap="round"></path>

      <clipPath id="make-me-a-hanzi-clip-5">
      <path d="M 432.0 605.5 Q 424.0 605.5 424.0 598.5 Q 425.0 597.5 432.0 591.5 Q 445.0 582.5 474.0 501.5 Q 482.0 481.5 493.0 481.5 Q 501.0 481.5 501.0 502.5 L 501.0 503.5 L 498.0 527.5 L 493.0 561.5 Q 491.0 570.5 487.0 578.5 L 473.0 596.5 L 472.0 597.5 Q 455.0 604.5 432.0 605.5 Z" fill="lightgray"></path>
      </clipPath>
      <path clip-path="url(#make-me-a-hanzi-clip-5)" d="M 431.0 598.5 L 451.0 590.5 L 468.0 570.5 L 491.0 490.5 " fill="none" id="make-me-a-hanzi-animation-5" stroke-dasharray="259 518" stroke-linecap="round"></path>

      <clipPath id="make-me-a-hanzi-clip-6">
      <path d="M 593.0 542.5 Q 603.0 571.5 619.0 586.5 Q 629.0 595.5 629.0 598.5 Q 629.0 604.5 605.0 619.5 Q 581.0 634.5 568.0 634.5 Q 563.0 634.5 549.0 623.5 Q 528.0 608.5 473.0 596.5 C 444.0 589.5 457.0 574.5 487.0 578.5 Q 497.0 579.5 516.0 584.5 Q 541.0 590.5 548.0 590.5 Q 560.0 590.5 560.0 582.5 L 560.0 544.5 C 560.0 514.5 583.0 514.5 593.0 542.5 Z" fill="lightgray"></path>
      </clipPath>
      <path clip-path="url(#make-me-a-hanzi-clip-6)" d="M 482.0 596.5 L 492.0 589.5 L 543.0 604.5 L 574.0 605.5 L 587.0 595.5 L 586.0 587.5 L 578.0 560.5 L 566.0 550.5 " fill="none" id="make-me-a-hanzi-animation-6" stroke-dasharray="293 586" stroke-linecap="round"></path>

      <clipPath id="make-me-a-hanzi-clip-7">
      <path d="M 501.0 503.5 Q 504.0 502.5 508.0 502.5 Q 553.0 510.5 600.0 517.5 Q 608.0 521.5 608.0 525.5 Q 608.0 533.5 596.0 541.5 Q 595.0 542.5 593.0 542.5 L 560.0 544.5 Q 544.0 540.5 498.0 527.5 C 469.0 519.5 472.0 509.5 501.0 503.5 Z" fill="lightgray"></path>
      </clipPath>
      <path clip-path="url(#make-me-a-hanzi-clip-7)" d="M 506.0 510.5 L 551.0 526.5 L 599.0 526.5 " fill="none" id="make-me-a-hanzi-animation-7" stroke-dasharray="224 448" stroke-linecap="round"></path>

      <clipPath id="make-me-a-hanzi-clip-8">
      <path d="M 652.0 642.5 Q 644.0 642.5 644.0 634.5 Q 645.0 633.5 650.0 627.5 Q 662.0 617.5 685.0 540.5 Q 692.0 521.5 701.0 521.5 Q 708.0 521.5 709.0 532.5 L 708.0 555.5 L 705.0 602.5 Q 704.0 605.5 703.0 610.5 C 699.0 629.5 699.0 629.5 687.0 634.5 Q 672.0 641.5 652.0 642.5 Z" fill="lightgray"></path>
      </clipPath>
      <path clip-path="url(#make-me-a-hanzi-clip-8)" d="M 652.0 634.5 L 677.0 619.5 L 684.0 606.5 L 700.0 530.5 " fill="none" id="make-me-a-hanzi-animation-8" stroke-dasharray="250 500" stroke-linecap="round"></path>

      <clipPath id="make-me-a-hanzi-clip-9">
      <path d="M 812.0 561.5 Q 834.0 599.5 852.0 606.5 Q 860.0 610.5 860.0 613.5 Q 860.0 629.5 835.0 646.5 Q 810.0 661.5 793.0 661.5 Q 790.0 661.5 783.0 658.5 Q 770.0 652.5 735.0 644.5 Q 702.0 635.5 688.0 634.5 L 687.0 634.5 C 657.0 631.5 673.0 614.5 703.0 610.5 Q 705.0 609.5 709.0 609.5 Q 713.0 609.5 736.0 616.5 Q 759.0 621.5 768.0 621.5 Q 785.0 621.5 785.0 605.5 Q 780.0 577.5 778.0 570.5 L 777.0 568.5 C 768.0 539.5 797.0 535.5 812.0 561.5 Z" fill="lightgray"></path>
      </clipPath>
      <path clip-path="url(#make-me-a-hanzi-clip-9)" d="M 693.0 629.5 L 711.0 623.5 L 763.0 636.5 L 803.0 632.5 L 815.0 619.5 L 809.0 599.5 L 803.0 584.5 L 785.0 572.5 " fill="none" id="make-me-a-hanzi-animation-9" stroke-dasharray="317 634" stroke-linecap="round"></path>

      <clipPath id="make-me-a-hanzi-clip-10">
      <path d="M 709.0 532.5 Q 713.0 529.5 720.0 529.5 Q 765.0 535.5 812.0 542.5 Q 820.0 545.5 820.0 550.5 Q 820.0 555.5 812.0 561.5 C 798.0 572.5 798.0 572.5 777.0 568.5 Q 762.0 565.5 708.0 555.5 C 679.0 550.5 683.0 546.5 709.0 532.5 Z" fill="lightgray"></path>
      </clipPath>
      <path clip-path="url(#make-me-a-hanzi-clip-10)" d="M 717.0 538.5 L 739.0 547.5 L 811.0 552.5 " fill="none" id="make-me-a-hanzi-animation-10" stroke-dasharray="224 448" stroke-linecap="round"></path>

      <clipPath id="make-me-a-hanzi-clip-11">
      <path d="M 793.0 485.5 Q 770.0 485.5 741.0 478.5 Q 738.0 478.5 735.0 477.5 L 680.0 466.5 Q 637.0 457.5 597.0 449.5 L 540.0 439.5 Q 506.0 434.5 476.0 430.5 Q 464.0 427.5 464.0 422.5 Q 464.0 418.5 480.0 415.5 Q 500.0 409.5 516.0 409.5 Q 524.0 409.5 546.0 412.5 L 595.0 418.5 Q 629.0 423.5 679.0 431.5 L 729.0 439.5 Q 766.0 445.5 812.0 454.5 Q 824.0 458.5 824.0 470.5 Q 824.0 484.5 793.0 485.5 Z" fill="lightgray"></path>
      </clipPath>
      <path clip-path="url(#make-me-a-hanzi-clip-11)" d="M 471.0 425.5 L 535.0 424.5 L 810.0 469.5 " fill="none" id="make-me-a-hanzi-animation-11" stroke-dasharray="471 942" stroke-linecap="round"></path>

      <clipPath id="make-me-a-hanzi-clip-12">
      <path d="M 552.0 364.5 Q 511.0 358.5 476.0 353.5 Q 464.0 351.5 464.0 346.5 Q 464.0 342.5 480.0 339.5 Q 500.0 334.5 516.0 334.5 Q 527.0 334.5 554.0 337.5 L 589.0 342.5 Q 622.0 346.5 670.0 353.5 L 718.0 361.5 Q 752.0 366.5 793.0 374.5 Q 804.0 378.5 804.0 389.5 Q 804.0 404.5 772.0 405.5 Q 752.0 405.5 723.0 399.5 L 676.0 389.5 Q 631.0 379.5 590.0 372.5 L 552.0 364.5 Z" fill="lightgray"></path>
      </clipPath>
      <path clip-path="url(#make-me-a-hanzi-clip-12)" d="M 470.0 349.5 L 545.0 349.5 L 733.0 383.5 L 790.0 388.5 " fill="none" id="make-me-a-hanzi-animation-12" stroke-dasharray="451 902" stroke-linecap="round"></path>

      <clipPath id="make-me-a-hanzi-clip-13">
      <path d="M 597.0 449.5 Q 591.0 459.5 572.0 471.5 Q 544.0 485.5 524.0 485.5 Q 512.0 485.5 512.0 477.5 Q 512.0 475.5 520.0 470.5 Q 531.0 464.5 538.0 445.5 Q 539.0 443.5 540.0 439.5 L 546.0 412.5 Q 550.0 393.5 552.0 364.5 L 554.0 337.5 Q 555.0 316.5 556.0 289.5 C 557.0 259.5 589.0 264.5 589.0 294.5 L 589.0 342.5 L 590.0 372.5 Q 591.0 387.5 592.0 397.5 Q 593.0 407.5 595.0 418.5 C 600.0 446.5 600.0 446.5 597.0 449.5 Z" fill="lightgray"></path>
      </clipPath>
      <path clip-path="url(#make-me-a-hanzi-clip-13)" d="M 520.0 478.5 L 557.0 456.5 L 568.0 438.5 L 572.0 312.5 L 561.0 296.5 " fill="none" id="make-me-a-hanzi-animation-13" stroke-dasharray="338 676" stroke-linecap="round"></path>

      <clipPath id="make-me-a-hanzi-clip-14">
      <path d="M 735.0 477.5 Q 732.0 488.5 705.0 507.5 Q 682.0 521.5 673.0 521.5 Q 669.0 521.5 669.0 514.5 Q 678.0 488.5 680.0 466.5 L 679.0 431.5 Q 679.0 411.5 676.0 389.5 L 670.0 353.5 Q 665.0 331.5 665.0 326.5 Q 667.0 315.5 669.0 308.5 C 676.0 279.5 700.0 286.5 709.0 315.5 Q 715.0 333.5 718.0 361.5 L 723.0 399.5 Q 727.0 424.5 729.0 439.5 C 733.0 469.5 736.0 476.5 735.0 477.5 Z" fill="lightgray"></path>
      </clipPath>
      <path clip-path="url(#make-me-a-hanzi-clip-14)" d="M 676.0 515.5 L 707.0 472.5 L 691.0 340.5 L 675.0 314.5 " fill="none" id="make-me-a-hanzi-animation-14" stroke-dasharray="345 690" stroke-linecap="round"></path>

      <clipPath id="make-me-a-hanzi-clip-15">
      <path d="M 556.0 289.5 L 540.0 287.5 Q 493.0 280.5 440.0 277.5 Q 418.0 277.5 417.0 265.5 Q 418.0 261.5 430.0 257.5 Q 454.0 247.5 476.0 246.5 Q 492.0 246.5 529.0 254.5 Q 536.0 255.5 545.0 256.5 L 599.0 264.5 Q 653.0 272.5 724.0 281.5 Q 795.0 288.5 881.0 290.5 Q 900.0 290.5 900.0 305.5 Q 900.0 318.5 884.0 328.5 Q 866.0 338.5 845.0 338.5 Q 816.0 338.5 786.0 331.5 Q 747.0 322.5 709.0 315.5 L 669.0 308.5 Q 628.0 300.5 589.0 294.5 L 556.0 289.5 Z" fill="lightgray"></path>
      </clipPath>
      <path clip-path="url(#make-me-a-hanzi-clip-15)" d="M 426.0 265.5 L 502.0 265.5 L 812.0 312.5 L 850.0 314.5 L 885.0 305.5 " fill="none" id="make-me-a-hanzi-animation-15" stroke-dasharray="592 1184" stroke-linecap="round"></path>

      <clipPath id="make-me-a-hanzi-clip-16">
      <path d="M 545.0 256.5 L 545.0 253.5 Q 545.0 235.5 507.0 190.5 Q 459.0 134.5 377.0 78.5 Q 377.0 75.5 384.0 74.5 Q 411.0 75.5 457.0 102.5 Q 481.0 117.5 506.0 138.5 L 530.0 160.5 Q 541.0 170.5 554.0 185.5 Q 574.0 206.5 586.0 221.5 L 599.0 237.5 Q 608.0 250.5 608.0 253.5 L 608.0 254.5 Q 608.0 258.5 599.0 264.5 C 576.0 283.5 548.0 286.5 545.0 256.5 Z" fill="lightgray"></path>
      </clipPath>
      <path clip-path="url(#make-me-a-hanzi-clip-16)" d="M 599.0 254.5 L 566.0 235.5 L 521.0 177.5 L 467.0 126.5 L 413.0 90.5 L 389.0 80.5 L 384.0 83.5 " fill="none" id="make-me-a-hanzi-animation-16" stroke-dasharray="410 820" stroke-linecap="round"></path>

      <clipPath id="make-me-a-hanzi-clip-17">
      <path d="M 506.0 138.5 Q 528.0 118.5 528.0 102.5 L 528.0 60.5 Q 528.0 30.5 498.0 6.5 Q 489.0 -1.5 489.0 -5.5 Q 489.0 -20.5 497.0 -39.5 Q 508.0 -57.5 520.0 -57.5 Q 525.0 -57.5 541.0 -44.5 Q 574.0 -6.5 660.0 68.5 Q 676.0 82.5 676.0 86.5 Q 676.0 93.5 673.0 93.5 L 568.0 38.5 L 571.0 73.5 Q 573.0 91.5 579.0 102.5 Q 585.0 111.5 585.0 114.5 Q 585.0 131.5 556.0 146.5 Q 542.0 155.5 530.0 160.5 C 503.0 173.5 485.0 159.5 506.0 138.5 Z" fill="lightgray"></path>
      </clipPath>
      <path clip-path="url(#make-me-a-hanzi-clip-17)" d="M 516.0 135.5 L 533.0 137.5 L 554.0 113.5 L 545.0 30.5 L 548.0 11.5 L 573.0 17.5 L 663.0 77.5 L 668.0 87.5 " fill="none" id="make-me-a-hanzi-animation-17" stroke-dasharray="425 850" stroke-linecap="round"></path>

      <clipPath id="make-me-a-hanzi-clip-18">
      <path d="M 709.0 160.5 Q 745.0 170.5 774.0 186.5 Q 803.0 203.5 826.0 215.5 Q 837.0 219.5 837.0 221.5 Q 837.0 236.5 799.0 256.5 Q 772.0 269.5 761.0 269.5 Q 755.0 269.5 752.0 264.5 Q 749.0 260.5 749.0 254.5 Q 749.0 244.5 735.0 224.5 Q 717.0 199.5 693.0 178.5 Q 691.0 177.5 688.0 173.5 C 668.0 151.5 680.0 152.5 709.0 160.5 Z" fill="lightgray"></path>
      </clipPath>
      <path clip-path="url(#make-me-a-hanzi-clip-18)" d="M 829.0 223.5 L 776.0 227.5 L 746.0 198.5 L 711.0 175.5 L 694.0 172.5 " fill="none" id="make-me-a-hanzi-animation-18" stroke-dasharray="282 564" stroke-linecap="round"></path>

      <clipPath id="make-me-a-hanzi-clip-19">
      <path d="M 586.0 221.5 Q 599.0 209.5 627.0 176.5 Q 738.0 48.5 776.0 22.5 Q 792.0 13.5 801.0 13.5 Q 837.0 13.5 903.0 24.5 Q 980.0 35.5 980.0 46.5 Q 980.0 49.5 941.0 56.5 Q 869.0 71.5 818.0 95.5 Q 771.0 117.5 709.0 160.5 L 688.0 173.5 Q 661.0 192.5 631.0 215.5 Q 614.0 228.5 599.0 237.5 C 574.0 253.5 565.0 242.5 586.0 221.5 Z" fill="lightgray"></path>
      </clipPath>
      <path clip-path="url(#make-me-a-hanzi-clip-19)" d="M 594.0 221.5 L 602.0 222.5 L 711.0 123.5 L 801.0 56.5 L 873.0 45.5 L 977.0 45.5 " fill="none" id="make-me-a-hanzi-animation-19" stroke-dasharray="572 1144" stroke-linecap="round"></path>

</g>
</svg>
