<svg version="1.1" viewBox="0 0 1024 1024" xmlns="http://www.w3.org/2000/svg">
  <g stroke="lightgray" stroke-dasharray="1,1" stroke-width="1" transform="scale(4, 4)">
    <line x1="0" y1="0" x2="256" y2="256"></line>
    <line x1="256" y1="0" x2="0" y2="256"></line>
    <line x1="128" y1="0" x2="128" y2="256"></line>
    <line x1="0" y1="128" x2="256" y2="128"></line>
  </g>
<g transform="scale(1, -1) translate(0, -900)">
   <style type="text/css">
    @keyframes keyframes0 {
      from {
       stroke: blue;
       stroke-dashoffset: 545;
       stroke-width: 128;
       }
       64% {
       animation-timing-function: step-end;
       stroke: blue;
       stroke-dashoffset: 0;
       stroke-width: 128;
       }
       to {
       stroke: black;
       stroke-width: 1024;
       }
       }
       #make-me-a-hanzi-animation-0 {
         animation: keyframes0 0.693522s both;
         animation-delay: 0.000000s;
         animation-timing-function: linear;
       }
    @keyframes keyframes1 {
      from {
       stroke: blue;
       stroke-dashoffset: 583;
       stroke-width: 128;
       }
       65% {
       animation-timing-function: step-end;
       stroke: blue;
       stroke-dashoffset: 0;
       stroke-width: 128;
       }
       to {
       stroke: black;
       stroke-width: 1024;
       }
       }
       #make-me-a-hanzi-animation-1 {
         animation: keyframes1 0.724447s both;
         animation-delay: 0.693522s;
         animation-timing-function: linear;
       }
    @keyframes keyframes2 {
      from {
       stroke: blue;
       stroke-dashoffset: 516;
       stroke-width: 128;
       }
       63% {
       animation-timing-function: step-end;
       stroke: blue;
       stroke-dashoffset: 0;
       stroke-width: 128;
       }
       to {
       stroke: black;
       stroke-width: 1024;
       }
       }
       #make-me-a-hanzi-animation-2 {
         animation: keyframes2 0.669922s both;
         animation-delay: 1.417969s;
         animation-timing-function: linear;
       }
    @keyframes keyframes3 {
      from {
       stroke: blue;
       stroke-dashoffset: 731;
       stroke-width: 128;
       }
       70% {
       animation-timing-function: step-end;
       stroke: blue;
       stroke-dashoffset: 0;
       stroke-width: 128;
       }
       to {
       stroke: black;
       stroke-width: 1024;
       }
       }
       #make-me-a-hanzi-animation-3 {
         animation: keyframes3 0.844889s both;
         animation-delay: 2.087891s;
         animation-timing-function: linear;
       }
    @keyframes keyframes4 {
      from {
       stroke: blue;
       stroke-dashoffset: 378;
       stroke-width: 128;
       }
       55% {
       animation-timing-function: step-end;
       stroke: blue;
       stroke-dashoffset: 0;
       stroke-width: 128;
       }
       to {
       stroke: black;
       stroke-width: 1024;
       }
       }
       #make-me-a-hanzi-animation-4 {
         animation: keyframes4 0.557617s both;
         animation-delay: 2.932780s;
         animation-timing-function: linear;
       }
    @keyframes keyframes5 {
      from {
       stroke: blue;
       stroke-dashoffset: 421;
       stroke-width: 128;
       }
       58% {
       animation-timing-function: step-end;
       stroke: blue;
       stroke-dashoffset: 0;
       stroke-width: 128;
       }
       to {
       stroke: black;
       stroke-width: 1024;
       }
       }
       #make-me-a-hanzi-animation-5 {
         animation: keyframes5 0.592611s both;
         animation-delay: 3.490397s;
         animation-timing-function: linear;
       }
    @keyframes keyframes6 {
      from {
       stroke: blue;
       stroke-dashoffset: 398;
       stroke-width: 128;
       }
       56% {
       animation-timing-function: step-end;
       stroke: blue;
       stroke-dashoffset: 0;
       stroke-width: 128;
       }
       to {
       stroke: black;
       stroke-width: 1024;
       }
       }
       #make-me-a-hanzi-animation-6 {
         animation: keyframes6 0.573893s both;
         animation-delay: 4.083008s;
         animation-timing-function: linear;
       }
    @keyframes keyframes7 {
      from {
       stroke: blue;
       stroke-dashoffset: 568;
       stroke-width: 128;
       }
       65% {
       animation-timing-function: step-end;
       stroke: blue;
       stroke-dashoffset: 0;
       stroke-width: 128;
       }
       to {
       stroke: black;
       stroke-width: 1024;
       }
       }
       #make-me-a-hanzi-animation-7 {
         animation: keyframes7 0.712240s both;
         animation-delay: 4.656901s;
         animation-timing-function: linear;
       }
    @keyframes keyframes8 {
      from {
       stroke: blue;
       stroke-dashoffset: 566;
       stroke-width: 128;
       }
       65% {
       animation-timing-function: step-end;
       stroke: blue;
       stroke-dashoffset: 0;
       stroke-width: 128;
       }
       to {
       stroke: black;
       stroke-width: 1024;
       }
       }
       #make-me-a-hanzi-animation-8 {
         animation: keyframes8 0.710612s both;
         animation-delay: 5.369141s;
         animation-timing-function: linear;
       }
    @keyframes keyframes9 {
      from {
       stroke: blue;
       stroke-dashoffset: 451;
       stroke-width: 128;
       }
       59% {
       animation-timing-function: step-end;
       stroke: blue;
       stroke-dashoffset: 0;
       stroke-width: 128;
       }
       to {
       stroke: black;
       stroke-width: 1024;
       }
       }
       #make-me-a-hanzi-animation-9 {
         animation: keyframes9 0.617025s both;
         animation-delay: 6.079753s;
         animation-timing-function: linear;
       }
    @keyframes keyframes10 {
      from {
       stroke: blue;
       stroke-dashoffset: 776;
       stroke-width: 128;
       }
       72% {
       animation-timing-function: step-end;
       stroke: blue;
       stroke-dashoffset: 0;
       stroke-width: 128;
       }
       to {
       stroke: black;
       stroke-width: 1024;
       }
       }
       #make-me-a-hanzi-animation-10 {
         animation: keyframes10 0.881510s both;
         animation-delay: 6.696777s;
         animation-timing-function: linear;
       }
    @keyframes keyframes11 {
      from {
       stroke: blue;
       stroke-dashoffset: 493;
       stroke-width: 128;
       }
       62% {
       animation-timing-function: step-end;
       stroke: blue;
       stroke-dashoffset: 0;
       stroke-width: 128;
       }
       to {
       stroke: black;
       stroke-width: 1024;
       }
       }
       #make-me-a-hanzi-animation-11 {
         animation: keyframes11 0.651204s both;
         animation-delay: 7.578288s;
         animation-timing-function: linear;
       }
    @keyframes keyframes12 {
      from {
       stroke: blue;
       stroke-dashoffset: 502;
       stroke-width: 128;
       }
       62% {
       animation-timing-function: step-end;
       stroke: blue;
       stroke-dashoffset: 0;
       stroke-width: 128;
       }
       to {
       stroke: black;
       stroke-width: 1024;
       }
       }
       #make-me-a-hanzi-animation-12 {
         animation: keyframes12 0.658529s both;
         animation-delay: 8.229492s;
         animation-timing-function: linear;
       }
    @keyframes keyframes13 {
      from {
       stroke: blue;
       stroke-dashoffset: 477;
       stroke-width: 128;
       }
       61% {
       animation-timing-function: step-end;
       stroke: blue;
       stroke-dashoffset: 0;
       stroke-width: 128;
       }
       to {
       stroke: black;
       stroke-width: 1024;
       }
       }
       #make-me-a-hanzi-animation-13 {
         animation: keyframes13 0.638184s both;
         animation-delay: 8.888021s;
         animation-timing-function: linear;
       }
    @keyframes keyframes14 {
      from {
       stroke: blue;
       stroke-dashoffset: 488;
       stroke-width: 128;
       }
       61% {
       animation-timing-function: step-end;
       stroke: blue;
       stroke-dashoffset: 0;
       stroke-width: 128;
       }
       to {
       stroke: black;
       stroke-width: 1024;
       }
       }
       #make-me-a-hanzi-animation-14 {
         animation: keyframes14 0.647135s both;
         animation-delay: 9.526204s;
         animation-timing-function: linear;
       }
    @keyframes keyframes15 {
      from {
       stroke: blue;
       stroke-dashoffset: 732;
       stroke-width: 128;
       }
       70% {
       animation-timing-function: step-end;
       stroke: blue;
       stroke-dashoffset: 0;
       stroke-width: 128;
       }
       to {
       stroke: black;
       stroke-width: 1024;
       }
       }
       #make-me-a-hanzi-animation-15 {
         animation: keyframes15 0.845703s both;
         animation-delay: 10.173340s;
         animation-timing-function: linear;
       }
    @keyframes keyframes16 {
      from {
       stroke: blue;
       stroke-dashoffset: 603;
       stroke-width: 128;
       }
       66% {
       animation-timing-function: step-end;
       stroke: blue;
       stroke-dashoffset: 0;
       stroke-width: 128;
       }
       to {
       stroke: black;
       stroke-width: 1024;
       }
       }
       #make-me-a-hanzi-animation-16 {
         animation: keyframes16 0.740723s both;
         animation-delay: 11.019043s;
         animation-timing-function: linear;
       }
    @keyframes keyframes17 {
      from {
       stroke: blue;
       stroke-dashoffset: 402;
       stroke-width: 128;
       }
       57% {
       animation-timing-function: step-end;
       stroke: blue;
       stroke-dashoffset: 0;
       stroke-width: 128;
       }
       to {
       stroke: black;
       stroke-width: 1024;
       }
       }
       #make-me-a-hanzi-animation-17 {
         animation: keyframes17 0.577148s both;
         animation-delay: 11.759766s;
         animation-timing-function: linear;
       }
    @keyframes keyframes18 {
      from {
       stroke: blue;
       stroke-dashoffset: 435;
       stroke-width: 128;
       }
       59% {
       animation-timing-function: step-end;
       stroke: blue;
       stroke-dashoffset: 0;
       stroke-width: 128;
       }
       to {
       stroke: black;
       stroke-width: 1024;
       }
       }
       #make-me-a-hanzi-animation-18 {
         animation: keyframes18 0.604004s both;
         animation-delay: 12.336914s;
         animation-timing-function: linear;
       }
</style>
<path d="M 276.5 678.0 Q 316.5 738.0 331.5 750.0 Q 340.5 759.0 336.5 770.0 Q 332.5 780.0 310.5 800.0 Q 288.5 816.0 273.5 816.0 Q 257.5 815.0 264.5 796.0 Q 277.5 766.0 220.5 675.0 Q 193.5 632.0 156.5 585.0 Q 147.5 578.0 146.5 572.0 Q 142.5 563.0 154.5 565.0 Q 178.5 568.0 238.5 634.0 Q 245.5 644.0 256.5 654.0 L 276.5 678.0 Z" fill="lightgray"></path> 
<path d="M 298.5 524.0 Q 428.5 656.0 441.5 663.0 Q 457.5 672.0 447.5 684.0 Q 434.5 694.0 402.5 714.0 Q 393.5 717.0 297.5 684.0 Q 287.5 681.0 276.5 678.0 C 247.5 670.0 226.5 655.0 256.5 654.0 Q 272.5 651.0 347.5 667.0 Q 354.5 668.0 358.5 667.0 Q 361.5 663.0 355.5 653.0 Q 312.5 574.0 285.5 538.0 Q 276.5 526.0 274.5 519.0 C 261.5 492.0 277.5 503.0 298.5 524.0 Z" fill="lightgray"></path> 
<path d="M 167.5 498.0 Q 157.5 504.0 128.5 508.0 Q 118.5 511.0 114.5 506.0 Q 110.5 502.0 116.5 487.0 Q 147.5 420.0 163.5 313.0 Q 166.5 280.0 184.5 258.0 Q 200.5 239.0 204.5 253.0 Q 208.5 266.0 208.5 287.0 L 205.5 308.0 Q 204.5 315.0 203.5 324.0 Q 181.5 438.0 177.5 471.0 C 174.5 495.0 174.5 495.0 167.5 498.0 Z" fill="lightgray"></path> 
<path d="M 351.5 305.0 Q 367.5 280.0 383.5 274.0 Q 393.5 267.0 405.5 287.0 Q 418.5 309.0 439.5 433.0 Q 446.5 460.0 465.5 482.0 Q 475.5 492.0 466.5 505.0 Q 453.5 520.0 415.5 541.0 Q 402.5 547.0 335.5 532.0 Q 323.5 532.0 298.5 524.0 L 274.5 519.0 Q 264.5 519.0 167.5 498.0 C 138.5 492.0 148.5 463.0 177.5 471.0 Q 208.5 480.0 253.5 488.0 L 288.5 494.0 Q 315.5 500.0 349.5 504.0 Q 373.5 508.0 381.5 499.0 Q 394.5 486.0 392.5 472.0 Q 377.5 357.0 368.5 338.0 Q 365.5 328.0 353.5 324.0 C 343.5 317.0 343.5 317.0 351.5 305.0 Z" fill="lightgray"></path> 
<path d="M 259.5 419.0 Q 235.5 412.0 216.5 406.0 Q 203.5 403.0 219.5 391.0 L 260.5 390.0 L 299.5 395.0 Q 321.5 399.0 342.5 400.0 Q 361.5 403.0 355.5 414.0 Q 346.5 426.0 325.5 430.0 Q 315.5 431.0 301.5 429.0 L 259.5 419.0 Z" fill="lightgray"></path> 
<path d="M 253.5 488.0 Q 253.5 487.0 255.5 485.0 Q 255.5 482.0 259.5 419.0 L 260.5 390.0 Q 260.5 362.0 261.5 322.0 C 262.5 292.0 294.5 301.0 295.5 331.0 Q 296.5 365.0 299.5 395.0 L 301.5 429.0 Q 302.5 438.0 303.5 446.0 Q 303.5 479.0 302.5 481.0 Q 295.5 488.0 288.5 494.0 C 265.5 514.0 242.5 516.0 253.5 488.0 Z" fill="lightgray"></path> 
<path d="M 208.5 287.0 Q 212.5 287.0 217.5 287.0 Q 292.5 299.0 347.5 305.0 Q 348.5 306.0 351.5 305.0 C 379.5 306.0 377.5 307.0 353.5 324.0 Q 335.5 339.0 295.5 331.0 L 261.5 322.0 Q 230.5 315.0 205.5 308.0 C 176.5 300.0 178.5 287.0 208.5 287.0 Z" fill="lightgray"></path> 
<path d="M 111.5 168.0 Q 98.5 167.0 96.5 158.0 Q 93.5 145.0 101.5 137.0 Q 122.5 121.0 152.5 100.0 Q 162.5 97.0 174.5 104.0 Q 195.5 119.0 360.5 185.0 Q 382.5 192.0 398.5 204.0 Q 411.5 211.0 412.5 219.0 Q 408.5 225.0 395.5 223.0 Q 158.5 163.0 111.5 168.0 Z" fill="lightgray"></path> 
<path d="M 720.5 733.0 Q 811.5 749.0 820.5 754.0 Q 827.5 761.0 824.5 769.0 Q 818.5 781.0 792.5 788.0 Q 765.5 795.0 737.5 786.0 Q 689.5 773.0 638.5 762.0 Q 583.5 752.0 516.5 749.0 Q 482.5 745.0 505.5 729.0 Q 523.5 717.0 551.5 711.0 C 573.5 706.0 573.5 706.0 589.5 712.0 Q 593.5 718.0 677.5 726.0 L 720.5 733.0 Z" fill="lightgray"></path> 
<path d="M 486.5 617.0 Q 480.5 620.0 473.5 620.0 Q 463.5 621.0 460.5 618.0 Q 456.5 612.0 463.5 599.0 Q 487.5 551.0 503.5 473.0 Q 506.5 449.0 520.5 433.0 Q 536.5 415.0 540.5 429.0 Q 543.5 439.0 542.5 452.0 L 539.5 478.0 Q 539.5 479.0 539.5 480.0 Q 523.5 559.0 520.5 586.0 C 518.5 606.0 514.5 607.0 486.5 617.0 Z" fill="lightgray"></path> 
<path d="M 768.5 471.0 Q 783.5 449.0 795.5 442.0 Q 804.5 435.0 818.5 453.0 Q 828.5 466.0 852.5 539.0 Q 861.5 567.0 883.5 589.0 Q 895.5 599.0 885.5 612.0 Q 872.5 628.0 834.5 653.0 Q 816.5 662.0 802.5 656.0 Q 774.5 652.0 736.5 646.0 L 690.5 641.0 Q 656.5 637.0 620.5 632.0 L 579.5 626.0 Q 528.5 622.0 486.5 617.0 C 456.5 614.0 491.5 579.0 520.5 586.0 Q 520.5 587.0 521.5 587.0 Q 548.5 593.0 583.5 597.0 L 620.5 603.0 Q 651.5 607.0 689.5 611.0 L 731.5 615.0 Q 743.5 618.0 757.5 618.0 Q 790.5 621.0 799.5 609.0 Q 806.5 600.0 805.5 591.0 Q 792.5 518.0 785.5 507.0 Q 781.5 497.0 768.5 495.0 C 755.5 488.0 755.5 488.0 768.5 471.0 Z" fill="lightgray"></path> 
<path d="M 551.5 711.0 Q 551.5 707.0 554.5 701.0 Q 572.5 670.0 579.5 626.0 L 583.5 597.0 Q 587.5 557.0 594.5 484.0 C 597.5 454.0 628.5 458.0 626.5 488.0 Q 622.5 558.0 620.5 603.0 L 620.5 632.0 Q 620.5 663.0 622.5 671.0 Q 623.5 689.0 612.5 699.0 Q 602.5 708.0 589.5 712.0 C 561.5 723.0 547.5 728.0 551.5 711.0 Z" fill="lightgray"></path> 
<path d="M 736.5 646.0 Q 736.5 649.0 737.5 651.0 Q 743.5 681.0 752.5 701.0 Q 755.5 708.0 741.5 721.0 Q 729.5 728.0 720.5 733.0 C 694.5 748.0 663.5 753.0 677.5 726.0 Q 677.5 725.0 679.5 722.0 Q 692.5 701.0 690.5 641.0 L 689.5 611.0 Q 686.5 559.0 681.5 497.0 C 679.5 467.0 708.5 473.0 713.5 503.0 Q 722.5 561.0 731.5 615.0 L 736.5 646.0 Z" fill="lightgray"></path> 
<path d="M 542.5 452.0 Q 551.5 451.0 559.5 452.0 Q 626.5 465.0 768.5 471.0 C 796.5 472.0 791.5 476.0 768.5 495.0 Q 752.5 511.0 721.5 506.0 Q 717.5 506.0 713.5 503.0 L 681.5 497.0 Q 651.5 493.0 626.5 488.0 L 594.5 484.0 Q 563.5 483.0 539.5 478.0 C 510.5 472.0 512.5 454.0 542.5 452.0 Z" fill="lightgray"></path> 
<path d="M 547.5 387.0 Q 516.5 383.0 537.5 368.0 Q 579.5 346.0 621.5 356.0 Q 681.5 365.0 743.5 375.0 Q 771.5 379.0 776.5 384.0 Q 783.5 390.0 780.5 398.0 Q 774.5 408.0 750.5 415.0 Q 725.5 422.0 698.5 412.0 Q 665.5 403.0 630.5 396.0 Q 593.5 389.0 547.5 387.0 Z" fill="lightgray"></path> 
<path d="M 670.5 266.0 Q 749.5 281.0 904.5 280.0 Q 922.5 281.0 926.5 289.0 Q 930.5 299.0 915.5 311.0 Q 863.5 347.0 816.5 332.0 Q 681.5 302.0 449.5 268.0 Q 430.5 267.0 444.5 251.0 Q 457.5 239.0 473.5 234.0 Q 492.5 230.0 506.5 234.0 Q 567.5 253.0 636.5 262.0 L 670.5 266.0 Z" fill="lightgray"></path> 
<path d="M 636.5 262.0 Q 636.5 259.0 638.5 254.0 Q 650.5 220.0 645.5 112.0 Q 644.5 81.0 639.5 73.0 Q 635.5 60.0 612.5 65.0 Q 590.5 69.0 566.5 74.0 Q 554.5 75.0 553.5 68.0 Q 552.5 62.0 561.5 53.0 Q 618.5 2.0 636.5 -27.0 Q 649.5 -40.0 659.5 -39.0 Q 669.5 -35.0 683.5 -3.0 Q 699.5 30.0 700.5 90.0 Q 699.5 160.0 701.5 186.0 Q 710.5 226.0 693.5 247.0 Q 680.5 259.0 670.5 266.0 C 646.5 284.0 628.5 291.0 636.5 262.0 Z" fill="lightgray"></path> 
<path d="M 504.5 185.0 Q 482.5 142.0 451.5 102.0 Q 432.5 75.0 445.5 44.0 Q 451.5 28.0 469.5 37.0 Q 514.5 67.0 523.5 133.0 Q 529.5 161.0 524.5 184.0 Q 520.5 191.0 515.5 193.0 Q 508.5 192.0 504.5 185.0 Z" fill="lightgray"></path> 
<path d="M 768.5 183.0 Q 807.5 140.0 853.5 80.0 Q 866.5 61.0 879.5 55.0 Q 886.5 54.0 895.5 62.0 Q 907.5 74.0 899.5 114.0 Q 893.5 153.0 832.5 182.0 Q 793.5 201.0 771.5 211.0 Q 764.5 215.0 760.5 205.0 Q 759.5 193.0 768.5 183.0 Z" fill="lightgray"></path> 
      <clipPath id="make-me-a-hanzi-clip-0">
      <path d="M 276.5 678.0 Q 316.5 738.0 331.5 750.0 Q 340.5 759.0 336.5 770.0 Q 332.5 780.0 310.5 800.0 Q 288.5 816.0 273.5 816.0 Q 257.5 815.0 264.5 796.0 Q 277.5 766.0 220.5 675.0 Q 193.5 632.0 156.5 585.0 Q 147.5 578.0 146.5 572.0 Q 142.5 563.0 154.5 565.0 Q 178.5 568.0 238.5 634.0 Q 245.5 644.0 256.5 654.0 L 276.5 678.0 Z" fill="lightgray"></path>
      </clipPath>
      <path clip-path="url(#make-me-a-hanzi-clip-0)" d="M 273.5 804.0 L 296.5 770.0 L 291.5 750.0 L 264.5 700.0 L 218.5 636.0 L 153.5 572.0 " fill="none" id="make-me-a-hanzi-animation-0" stroke-dasharray="417 834" stroke-linecap="round"></path>

      <clipPath id="make-me-a-hanzi-clip-1">
      <path d="M 298.5 524.0 Q 428.5 656.0 441.5 663.0 Q 457.5 672.0 447.5 684.0 Q 434.5 694.0 402.5 714.0 Q 393.5 717.0 297.5 684.0 Q 287.5 681.0 276.5 678.0 C 247.5 670.0 226.5 655.0 256.5 654.0 Q 272.5 651.0 347.5 667.0 Q 354.5 668.0 358.5 667.0 Q 361.5 663.0 355.5 653.0 Q 312.5 574.0 285.5 538.0 Q 276.5 526.0 274.5 519.0 C 261.5 492.0 277.5 503.0 298.5 524.0 Z" fill="lightgray"></path>
      </clipPath>
      <path clip-path="url(#make-me-a-hanzi-clip-1)" d="M 268.5 659.0 L 359.5 687.0 L 395.5 674.0 L 380.5 643.0 L 303.5 538.0 L 280.5 521.0 " fill="none" id="make-me-a-hanzi-animation-1" stroke-dasharray="455 910" stroke-linecap="round"></path>

      <clipPath id="make-me-a-hanzi-clip-2">
      <path d="M 167.5 498.0 Q 157.5 504.0 128.5 508.0 Q 118.5 511.0 114.5 506.0 Q 110.5 502.0 116.5 487.0 Q 147.5 420.0 163.5 313.0 Q 166.5 280.0 184.5 258.0 Q 200.5 239.0 204.5 253.0 Q 208.5 266.0 208.5 287.0 L 205.5 308.0 Q 204.5 315.0 203.5 324.0 Q 181.5 438.0 177.5 471.0 C 174.5 495.0 174.5 495.0 167.5 498.0 Z" fill="lightgray"></path>
      </clipPath>
      <path clip-path="url(#make-me-a-hanzi-clip-2)" d="M 122.5 501.0 L 151.5 469.0 L 194.5 257.0 " fill="none" id="make-me-a-hanzi-animation-2" stroke-dasharray="388 776" stroke-linecap="round"></path>

      <clipPath id="make-me-a-hanzi-clip-3">
      <path d="M 351.5 305.0 Q 367.5 280.0 383.5 274.0 Q 393.5 267.0 405.5 287.0 Q 418.5 309.0 439.5 433.0 Q 446.5 460.0 465.5 482.0 Q 475.5 492.0 466.5 505.0 Q 453.5 520.0 415.5 541.0 Q 402.5 547.0 335.5 532.0 Q 323.5 532.0 298.5 524.0 L 274.5 519.0 Q 264.5 519.0 167.5 498.0 C 138.5 492.0 148.5 463.0 177.5 471.0 Q 208.5 480.0 253.5 488.0 L 288.5 494.0 Q 315.5 500.0 349.5 504.0 Q 373.5 508.0 381.5 499.0 Q 394.5 486.0 392.5 472.0 Q 377.5 357.0 368.5 338.0 Q 365.5 328.0 353.5 324.0 C 343.5 317.0 343.5 317.0 351.5 305.0 Z" fill="lightgray"></path>
      </clipPath>
      <path clip-path="url(#make-me-a-hanzi-clip-3)" d="M 181.5 480.0 L 187.5 490.0 L 348.5 521.0 L 384.5 522.0 L 405.5 514.0 L 422.5 499.0 L 426.5 491.0 L 393.5 331.0 L 383.5 309.0 L 363.5 318.0 " fill="none" id="make-me-a-hanzi-animation-3" stroke-dasharray="603 1206" stroke-linecap="round"></path>

      <clipPath id="make-me-a-hanzi-clip-4">
      <path d="M 259.5 419.0 Q 235.5 412.0 216.5 406.0 Q 203.5 403.0 219.5 391.0 L 260.5 390.0 L 299.5 395.0 Q 321.5 399.0 342.5 400.0 Q 361.5 403.0 355.5 414.0 Q 346.5 426.0 325.5 430.0 Q 315.5 431.0 301.5 429.0 L 259.5 419.0 Z" fill="lightgray"></path>
      </clipPath>
      <path clip-path="url(#make-me-a-hanzi-clip-4)" d="M 225.5 400.0 L 309.5 414.0 L 346.5 410.0 " fill="none" id="make-me-a-hanzi-animation-4" stroke-dasharray="250 500" stroke-linecap="round"></path>

      <clipPath id="make-me-a-hanzi-clip-5">
      <path d="M 253.5 488.0 Q 253.5 487.0 255.5 485.0 Q 255.5 482.0 259.5 419.0 L 260.5 390.0 Q 260.5 362.0 261.5 322.0 C 262.5 292.0 294.5 301.0 295.5 331.0 Q 296.5 365.0 299.5 395.0 L 301.5 429.0 Q 302.5 438.0 303.5 446.0 Q 303.5 479.0 302.5 481.0 Q 295.5 488.0 288.5 494.0 C 265.5 514.0 242.5 516.0 253.5 488.0 Z" fill="lightgray"></path>
      </clipPath>
      <path clip-path="url(#make-me-a-hanzi-clip-5)" d="M 262.5 484.0 L 279.5 468.0 L 280.5 452.0 L 279.5 352.0 L 265.5 330.0 " fill="none" id="make-me-a-hanzi-animation-5" stroke-dasharray="293 586" stroke-linecap="round"></path>

      <clipPath id="make-me-a-hanzi-clip-6">
      <path d="M 208.5 287.0 Q 212.5 287.0 217.5 287.0 Q 292.5 299.0 347.5 305.0 Q 348.5 306.0 351.5 305.0 C 379.5 306.0 377.5 307.0 353.5 324.0 Q 335.5 339.0 295.5 331.0 L 261.5 322.0 Q 230.5 315.0 205.5 308.0 C 176.5 300.0 178.5 287.0 208.5 287.0 Z" fill="lightgray"></path>
      </clipPath>
      <path clip-path="url(#make-me-a-hanzi-clip-6)" d="M 213.5 293.0 L 228.5 302.0 L 306.5 318.0 L 333.5 319.0 L 349.5 310.0 " fill="none" id="make-me-a-hanzi-animation-6" stroke-dasharray="270 540" stroke-linecap="round"></path>

      <clipPath id="make-me-a-hanzi-clip-7">
      <path d="M 111.5 168.0 Q 98.5 167.0 96.5 158.0 Q 93.5 145.0 101.5 137.0 Q 122.5 121.0 152.5 100.0 Q 162.5 97.0 174.5 104.0 Q 195.5 119.0 360.5 185.0 Q 382.5 192.0 398.5 204.0 Q 411.5 211.0 412.5 219.0 Q 408.5 225.0 395.5 223.0 Q 158.5 163.0 111.5 168.0 Z" fill="lightgray"></path>
      </clipPath>
      <path clip-path="url(#make-me-a-hanzi-clip-7)" d="M 110.5 154.0 L 132.5 143.0 L 165.5 138.0 L 406.5 217.0 " fill="none" id="make-me-a-hanzi-animation-7" stroke-dasharray="440 880" stroke-linecap="round"></path>

      <clipPath id="make-me-a-hanzi-clip-8">
      <path d="M 720.5 733.0 Q 811.5 749.0 820.5 754.0 Q 827.5 761.0 824.5 769.0 Q 818.5 781.0 792.5 788.0 Q 765.5 795.0 737.5 786.0 Q 689.5 773.0 638.5 762.0 Q 583.5 752.0 516.5 749.0 Q 482.5 745.0 505.5 729.0 Q 523.5 717.0 551.5 711.0 C 573.5 706.0 573.5 706.0 589.5 712.0 Q 593.5 718.0 677.5 726.0 L 720.5 733.0 Z" fill="lightgray"></path>
      </clipPath>
      <path clip-path="url(#make-me-a-hanzi-clip-8)" d="M 508.5 740.0 L 537.5 732.0 L 582.5 732.0 L 760.5 766.0 L 814.5 764.0 " fill="none" id="make-me-a-hanzi-animation-8" stroke-dasharray="438 876" stroke-linecap="round"></path>

      <clipPath id="make-me-a-hanzi-clip-9">
      <path d="M 486.5 617.0 Q 480.5 620.0 473.5 620.0 Q 463.5 621.0 460.5 618.0 Q 456.5 612.0 463.5 599.0 Q 487.5 551.0 503.5 473.0 Q 506.5 449.0 520.5 433.0 Q 536.5 415.0 540.5 429.0 Q 543.5 439.0 542.5 452.0 L 539.5 478.0 Q 539.5 479.0 539.5 480.0 Q 523.5 559.0 520.5 586.0 C 518.5 606.0 514.5 607.0 486.5 617.0 Z" fill="lightgray"></path>
      </clipPath>
      <path clip-path="url(#make-me-a-hanzi-clip-9)" d="M 467.5 613.0 L 498.5 576.0 L 530.5 433.0 " fill="none" id="make-me-a-hanzi-animation-9" stroke-dasharray="323 646" stroke-linecap="round"></path>

      <clipPath id="make-me-a-hanzi-clip-10">
      <path d="M 768.5 471.0 Q 783.5 449.0 795.5 442.0 Q 804.5 435.0 818.5 453.0 Q 828.5 466.0 852.5 539.0 Q 861.5 567.0 883.5 589.0 Q 895.5 599.0 885.5 612.0 Q 872.5 628.0 834.5 653.0 Q 816.5 662.0 802.5 656.0 Q 774.5 652.0 736.5 646.0 L 690.5 641.0 Q 656.5 637.0 620.5 632.0 L 579.5 626.0 Q 528.5 622.0 486.5 617.0 C 456.5 614.0 491.5 579.0 520.5 586.0 Q 520.5 587.0 521.5 587.0 Q 548.5 593.0 583.5 597.0 L 620.5 603.0 Q 651.5 607.0 689.5 611.0 L 731.5 615.0 Q 743.5 618.0 757.5 618.0 Q 790.5 621.0 799.5 609.0 Q 806.5 600.0 805.5 591.0 Q 792.5 518.0 785.5 507.0 Q 781.5 497.0 768.5 495.0 C 755.5 488.0 755.5 488.0 768.5 471.0 Z" fill="lightgray"></path>
      </clipPath>
      <path clip-path="url(#make-me-a-hanzi-clip-10)" d="M 494.5 614.0 L 525.5 605.0 L 774.5 636.0 L 815.5 631.0 L 835.5 613.0 L 840.5 591.0 L 811.5 498.0 L 799.5 478.0 L 776.5 489.0 " fill="none" id="make-me-a-hanzi-animation-10" stroke-dasharray="648 1296" stroke-linecap="round"></path>

      <clipPath id="make-me-a-hanzi-clip-11">
      <path d="M 551.5 711.0 Q 551.5 707.0 554.5 701.0 Q 572.5 670.0 579.5 626.0 L 583.5 597.0 Q 587.5 557.0 594.5 484.0 C 597.5 454.0 628.5 458.0 626.5 488.0 Q 622.5 558.0 620.5 603.0 L 620.5 632.0 Q 620.5 663.0 622.5 671.0 Q 623.5 689.0 612.5 699.0 Q 602.5 708.0 589.5 712.0 C 561.5 723.0 547.5 728.0 551.5 711.0 Z" fill="lightgray"></path>
      </clipPath>
      <path clip-path="url(#make-me-a-hanzi-clip-11)" d="M 557.5 707.0 L 586.5 688.0 L 595.5 671.0 L 608.5 512.0 L 608.5 501.0 L 598.5 493.0 " fill="none" id="make-me-a-hanzi-animation-11" stroke-dasharray="365 730" stroke-linecap="round"></path>

      <clipPath id="make-me-a-hanzi-clip-12">
      <path d="M 736.5 646.0 Q 736.5 649.0 737.5 651.0 Q 743.5 681.0 752.5 701.0 Q 755.5 708.0 741.5 721.0 Q 729.5 728.0 720.5 733.0 C 694.5 748.0 663.5 753.0 677.5 726.0 Q 677.5 725.0 679.5 722.0 Q 692.5 701.0 690.5 641.0 L 689.5 611.0 Q 686.5 559.0 681.5 497.0 C 679.5 467.0 708.5 473.0 713.5 503.0 Q 722.5 561.0 731.5 615.0 L 736.5 646.0 Z" fill="lightgray"></path>
      </clipPath>
      <path clip-path="url(#make-me-a-hanzi-clip-12)" d="M 684.5 727.0 L 718.5 699.0 L 701.5 527.0 L 695.5 511.0 L 685.5 504.0 " fill="none" id="make-me-a-hanzi-animation-12" stroke-dasharray="374 748" stroke-linecap="round"></path>

      <clipPath id="make-me-a-hanzi-clip-13">
      <path d="M 542.5 452.0 Q 551.5 451.0 559.5 452.0 Q 626.5 465.0 768.5 471.0 C 796.5 472.0 791.5 476.0 768.5 495.0 Q 752.5 511.0 721.5 506.0 Q 717.5 506.0 713.5 503.0 L 681.5 497.0 Q 651.5 493.0 626.5 488.0 L 594.5 484.0 Q 563.5 483.0 539.5 478.0 C 510.5 472.0 512.5 454.0 542.5 452.0 Z" fill="lightgray"></path>
      </clipPath>
      <path clip-path="url(#make-me-a-hanzi-clip-13)" d="M 546.5 472.0 L 555.5 466.0 L 730.5 489.0 L 752.5 487.0 L 758.5 477.0 " fill="none" id="make-me-a-hanzi-animation-13" stroke-dasharray="349 698" stroke-linecap="round"></path>

      <clipPath id="make-me-a-hanzi-clip-14">
      <path d="M 547.5 387.0 Q 516.5 383.0 537.5 368.0 Q 579.5 346.0 621.5 356.0 Q 681.5 365.0 743.5 375.0 Q 771.5 379.0 776.5 384.0 Q 783.5 390.0 780.5 398.0 Q 774.5 408.0 750.5 415.0 Q 725.5 422.0 698.5 412.0 Q 665.5 403.0 630.5 396.0 Q 593.5 389.0 547.5 387.0 Z" fill="lightgray"></path>
      </clipPath>
      <path clip-path="url(#make-me-a-hanzi-clip-14)" d="M 540.5 379.0 L 562.5 372.0 L 599.5 372.0 L 721.5 395.0 L 769.5 394.0 " fill="none" id="make-me-a-hanzi-animation-14" stroke-dasharray="360 720" stroke-linecap="round"></path>

      <clipPath id="make-me-a-hanzi-clip-15">
      <path d="M 670.5 266.0 Q 749.5 281.0 904.5 280.0 Q 922.5 281.0 926.5 289.0 Q 930.5 299.0 915.5 311.0 Q 863.5 347.0 816.5 332.0 Q 681.5 302.0 449.5 268.0 Q 430.5 267.0 444.5 251.0 Q 457.5 239.0 473.5 234.0 Q 492.5 230.0 506.5 234.0 Q 567.5 253.0 636.5 262.0 L 670.5 266.0 Z" fill="lightgray"></path>
      </clipPath>
      <path clip-path="url(#make-me-a-hanzi-clip-15)" d="M 446.5 260.0 L 491.5 253.0 L 604.5 276.0 L 839.5 308.0 L 916.5 294.0 " fill="none" id="make-me-a-hanzi-animation-15" stroke-dasharray="604 1208" stroke-linecap="round"></path>

      <clipPath id="make-me-a-hanzi-clip-16">
      <path d="M 636.5 262.0 Q 636.5 259.0 638.5 254.0 Q 650.5 220.0 645.5 112.0 Q 644.5 81.0 639.5 73.0 Q 635.5 60.0 612.5 65.0 Q 590.5 69.0 566.5 74.0 Q 554.5 75.0 553.5 68.0 Q 552.5 62.0 561.5 53.0 Q 618.5 2.0 636.5 -27.0 Q 649.5 -40.0 659.5 -39.0 Q 669.5 -35.0 683.5 -3.0 Q 699.5 30.0 700.5 90.0 Q 699.5 160.0 701.5 186.0 Q 710.5 226.0 693.5 247.0 Q 680.5 259.0 670.5 266.0 C 646.5 284.0 628.5 291.0 636.5 262.0 Z" fill="lightgray"></path>
      </clipPath>
      <path clip-path="url(#make-me-a-hanzi-clip-16)" d="M 642.5 259.0 L 664.5 243.0 L 675.5 212.0 L 672.5 81.0 L 664.5 50.0 L 649.5 26.0 L 562.5 66.0 " fill="none" id="make-me-a-hanzi-animation-16" stroke-dasharray="475 950" stroke-linecap="round"></path>

      <clipPath id="make-me-a-hanzi-clip-17">
      <path d="M 504.5 185.0 Q 482.5 142.0 451.5 102.0 Q 432.5 75.0 445.5 44.0 Q 451.5 28.0 469.5 37.0 Q 514.5 67.0 523.5 133.0 Q 529.5 161.0 524.5 184.0 Q 520.5 191.0 515.5 193.0 Q 508.5 192.0 504.5 185.0 Z" fill="lightgray"></path>
      </clipPath>
      <path clip-path="url(#make-me-a-hanzi-clip-17)" d="M 514.5 183.0 L 499.5 128.0 L 459.5 48.0 " fill="none" id="make-me-a-hanzi-animation-17" stroke-dasharray="274 548" stroke-linecap="round"></path>

      <clipPath id="make-me-a-hanzi-clip-18">
      <path d="M 768.5 183.0 Q 807.5 140.0 853.5 80.0 Q 866.5 61.0 879.5 55.0 Q 886.5 54.0 895.5 62.0 Q 907.5 74.0 899.5 114.0 Q 893.5 153.0 832.5 182.0 Q 793.5 201.0 771.5 211.0 Q 764.5 215.0 760.5 205.0 Q 759.5 193.0 768.5 183.0 Z" fill="lightgray"></path>
      </clipPath>
      <path clip-path="url(#make-me-a-hanzi-clip-18)" d="M 770.5 200.0 L 860.5 124.0 L 878.5 88.0 L 881.5 67.0 " fill="none" id="make-me-a-hanzi-animation-18" stroke-dasharray="307 614" stroke-linecap="round"></path>

</g>
</svg>
