<svg version="1.1" viewBox="0 0 1024 1024" xmlns="http://www.w3.org/2000/svg">
  <g stroke="lightgray" stroke-dasharray="1,1" stroke-width="1" transform="scale(4, 4)">
    <line x1="0" y1="0" x2="256" y2="256"></line>
    <line x1="256" y1="0" x2="0" y2="256"></line>
    <line x1="128" y1="0" x2="128" y2="256"></line>
    <line x1="0" y1="128" x2="256" y2="128"></line>
  </g>
<g transform="scale(1, -1) translate(0, -900)">
   <style type="text/css">
    @keyframes keyframes0 {
      from {
       stroke: blue;
       stroke-dashoffset: 519;
       stroke-width: 128;
       }
       63% {
       animation-timing-function: step-end;
       stroke: blue;
       stroke-dashoffset: 0;
       stroke-width: 128;
       }
       to {
       stroke: black;
       stroke-width: 1024;
       }
       }
       #make-me-a-hanzi-animation-0 {
         animation: keyframes0 0.672363s both;
         animation-delay: 0.000000s;
         animation-timing-function: linear;
       }
    @keyframes keyframes1 {
      from {
       stroke: blue;
       stroke-dashoffset: 376;
       stroke-width: 128;
       }
       55% {
       animation-timing-function: step-end;
       stroke: blue;
       stroke-dashoffset: 0;
       stroke-width: 128;
       }
       to {
       stroke: black;
       stroke-width: 1024;
       }
       }
       #make-me-a-hanzi-animation-1 {
         animation: keyframes1 0.555990s both;
         animation-delay: 0.672363s;
         animation-timing-function: linear;
       }
    @keyframes keyframes2 {
      from {
       stroke: blue;
       stroke-dashoffset: 689;
       stroke-width: 128;
       }
       69% {
       animation-timing-function: step-end;
       stroke: blue;
       stroke-dashoffset: 0;
       stroke-width: 128;
       }
       to {
       stroke: black;
       stroke-width: 1024;
       }
       }
       #make-me-a-hanzi-animation-2 {
         animation: keyframes2 0.810710s both;
         animation-delay: 1.228353s;
         animation-timing-function: linear;
       }
    @keyframes keyframes3 {
      from {
       stroke: blue;
       stroke-dashoffset: 436;
       stroke-width: 128;
       }
       59% {
       animation-timing-function: step-end;
       stroke: blue;
       stroke-dashoffset: 0;
       stroke-width: 128;
       }
       to {
       stroke: black;
       stroke-width: 1024;
       }
       }
       #make-me-a-hanzi-animation-3 {
         animation: keyframes3 0.604818s both;
         animation-delay: 2.039062s;
         animation-timing-function: linear;
       }
    @keyframes keyframes4 {
      from {
       stroke: blue;
       stroke-dashoffset: 489;
       stroke-width: 128;
       }
       61% {
       animation-timing-function: step-end;
       stroke: blue;
       stroke-dashoffset: 0;
       stroke-width: 128;
       }
       to {
       stroke: black;
       stroke-width: 1024;
       }
       }
       #make-me-a-hanzi-animation-4 {
         animation: keyframes4 0.647949s both;
         animation-delay: 2.643880s;
         animation-timing-function: linear;
       }
    @keyframes keyframes5 {
      from {
       stroke: blue;
       stroke-dashoffset: 557;
       stroke-width: 128;
       }
       64% {
       animation-timing-function: step-end;
       stroke: blue;
       stroke-dashoffset: 0;
       stroke-width: 128;
       }
       to {
       stroke: black;
       stroke-width: 1024;
       }
       }
       #make-me-a-hanzi-animation-5 {
         animation: keyframes5 0.703288s both;
         animation-delay: 3.291829s;
         animation-timing-function: linear;
       }
    @keyframes keyframes6 {
      from {
       stroke: blue;
       stroke-dashoffset: 407;
       stroke-width: 128;
       }
       57% {
       animation-timing-function: step-end;
       stroke: blue;
       stroke-dashoffset: 0;
       stroke-width: 128;
       }
       to {
       stroke: black;
       stroke-width: 1024;
       }
       }
       #make-me-a-hanzi-animation-6 {
         animation: keyframes6 0.581217s both;
         animation-delay: 3.995117s;
         animation-timing-function: linear;
       }
    @keyframes keyframes7 {
      from {
       stroke: blue;
       stroke-dashoffset: 456;
       stroke-width: 128;
       }
       60% {
       animation-timing-function: step-end;
       stroke: blue;
       stroke-dashoffset: 0;
       stroke-width: 128;
       }
       to {
       stroke: black;
       stroke-width: 1024;
       }
       }
       #make-me-a-hanzi-animation-7 {
         animation: keyframes7 0.621094s both;
         animation-delay: 4.576335s;
         animation-timing-function: linear;
       }
    @keyframes keyframes8 {
      from {
       stroke: blue;
       stroke-dashoffset: 663;
       stroke-width: 128;
       }
       68% {
       animation-timing-function: step-end;
       stroke: blue;
       stroke-dashoffset: 0;
       stroke-width: 128;
       }
       to {
       stroke: black;
       stroke-width: 1024;
       }
       }
       #make-me-a-hanzi-animation-8 {
         animation: keyframes8 0.789551s both;
         animation-delay: 5.197428s;
         animation-timing-function: linear;
       }
    @keyframes keyframes9 {
      from {
       stroke: blue;
       stroke-dashoffset: 668;
       stroke-width: 128;
       }
       68% {
       animation-timing-function: step-end;
       stroke: blue;
       stroke-dashoffset: 0;
       stroke-width: 128;
       }
       to {
       stroke: black;
       stroke-width: 1024;
       }
       }
       #make-me-a-hanzi-animation-9 {
         animation: keyframes9 0.793620s both;
         animation-delay: 5.986979s;
         animation-timing-function: linear;
       }
    @keyframes keyframes10 {
      from {
       stroke: blue;
       stroke-dashoffset: 377;
       stroke-width: 128;
       }
       55% {
       animation-timing-function: step-end;
       stroke: blue;
       stroke-dashoffset: 0;
       stroke-width: 128;
       }
       to {
       stroke: black;
       stroke-width: 1024;
       }
       }
       #make-me-a-hanzi-animation-10 {
         animation: keyframes10 0.556803s both;
         animation-delay: 6.780599s;
         animation-timing-function: linear;
       }
    @keyframes keyframes11 {
      from {
       stroke: blue;
       stroke-dashoffset: 401;
       stroke-width: 128;
       }
       57% {
       animation-timing-function: step-end;
       stroke: blue;
       stroke-dashoffset: 0;
       stroke-width: 128;
       }
       to {
       stroke: black;
       stroke-width: 1024;
       }
       }
       #make-me-a-hanzi-animation-11 {
         animation: keyframes11 0.576335s both;
         animation-delay: 7.337402s;
         animation-timing-function: linear;
       }
    @keyframes keyframes12 {
      from {
       stroke: blue;
       stroke-dashoffset: 422;
       stroke-width: 128;
       }
       58% {
       animation-timing-function: step-end;
       stroke: blue;
       stroke-dashoffset: 0;
       stroke-width: 128;
       }
       to {
       stroke: black;
       stroke-width: 1024;
       }
       }
       #make-me-a-hanzi-animation-12 {
         animation: keyframes12 0.593424s both;
         animation-delay: 7.913737s;
         animation-timing-function: linear;
       }
    @keyframes keyframes13 {
      from {
       stroke: blue;
       stroke-dashoffset: 1030;
       stroke-width: 128;
       }
       77% {
       animation-timing-function: step-end;
       stroke: blue;
       stroke-dashoffset: 0;
       stroke-width: 128;
       }
       to {
       stroke: black;
       stroke-width: 1024;
       }
       }
       #make-me-a-hanzi-animation-13 {
         animation: keyframes13 1.088216s both;
         animation-delay: 8.507161s;
         animation-timing-function: linear;
       }
    @keyframes keyframes14 {
      from {
       stroke: blue;
       stroke-dashoffset: 418;
       stroke-width: 128;
       }
       58% {
       animation-timing-function: step-end;
       stroke: blue;
       stroke-dashoffset: 0;
       stroke-width: 128;
       }
       to {
       stroke: black;
       stroke-width: 1024;
       }
       }
       #make-me-a-hanzi-animation-14 {
         animation: keyframes14 0.590169s both;
         animation-delay: 9.595378s;
         animation-timing-function: linear;
       }
    @keyframes keyframes15 {
      from {
       stroke: blue;
       stroke-dashoffset: 333;
       stroke-width: 128;
       }
       52% {
       animation-timing-function: step-end;
       stroke: blue;
       stroke-dashoffset: 0;
       stroke-width: 128;
       }
       to {
       stroke: black;
       stroke-width: 1024;
       }
       }
       #make-me-a-hanzi-animation-15 {
         animation: keyframes15 0.520996s both;
         animation-delay: 10.185547s;
         animation-timing-function: linear;
       }
    @keyframes keyframes16 {
      from {
       stroke: blue;
       stroke-dashoffset: 340;
       stroke-width: 128;
       }
       53% {
       animation-timing-function: step-end;
       stroke: blue;
       stroke-dashoffset: 0;
       stroke-width: 128;
       }
       to {
       stroke: black;
       stroke-width: 1024;
       }
       }
       #make-me-a-hanzi-animation-16 {
         animation: keyframes16 0.526693s both;
         animation-delay: 10.706543s;
         animation-timing-function: linear;
       }
    @keyframes keyframes17 {
      from {
       stroke: blue;
       stroke-dashoffset: 360;
       stroke-width: 128;
       }
       54% {
       animation-timing-function: step-end;
       stroke: blue;
       stroke-dashoffset: 0;
       stroke-width: 128;
       }
       to {
       stroke: black;
       stroke-width: 1024;
       }
       }
       #make-me-a-hanzi-animation-17 {
         animation: keyframes17 0.542969s both;
         animation-delay: 11.233236s;
         animation-timing-function: linear;
       }
</style>
<path d="M 216.5 677.5 Q 231.5 596.5 152.5 504.5 Q 133.5 482.5 123.5 468.5 Q 117.5 455.5 130.5 459.5 Q 143.5 462.5 162.5 477.5 Q 220.5 523.5 251.5 582.5 Q 270.5 616.5 289.5 645.5 Q 298.5 657.5 284.5 669.5 Q 244.5 699.5 223.5 693.5 Q 213.5 690.5 216.5 677.5 Z" fill="lightgray"></path> 
<path d="M 400.5 623.5 Q 422.5 607.5 445.5 585.5 Q 458.5 573.5 474.5 575.5 Q 484.5 576.5 488.5 589.5 Q 492.5 604.5 481.5 632.5 Q 469.5 656.5 392.5 669.5 Q 376.5 670.5 371.5 668.5 Q 367.5 664.5 368.5 652.5 Q 372.5 642.5 400.5 623.5 Z" fill="lightgray"></path> 
<path d="M 185.5 250.5 Q 272.5 358.5 302.5 409.5 Q 309.5 422.5 316.5 433.5 L 325.5 449.5 Q 338.5 476.5 350.5 488.5 Q 357.5 501.5 354.5 509.5 Q 348.5 521.5 323.5 523.5 Q 295.5 527.5 285.5 523.5 Q 278.5 520.5 278.5 508.5 Q 272.5 402.5 66.5 173.5 Q 48.5 157.5 73.5 164.5 Q 112.5 176.5 172.5 235.5 L 185.5 250.5 Z" fill="lightgray"></path> 
<path d="M 316.5 433.5 Q 319.5 429.5 325.5 424.5 Q 376.5 388.5 438.5 335.5 Q 454.5 320.5 467.5 318.5 Q 474.5 318.5 479.5 327.5 Q 489.5 340.5 473.5 375.5 Q 455.5 417.5 332.5 448.5 Q 328.5 449.5 325.5 449.5 C 298.5 453.5 298.5 453.5 316.5 433.5 Z" fill="lightgray"></path> 
<path d="M 232.5 238.5 Q 220.5 244.5 189.5 250.5 Q 186.5 251.5 185.5 250.5 C 159.5 253.5 159.5 253.5 172.5 235.5 Q 190.5 217.5 215.5 87.5 Q 215.5 54.5 236.5 28.5 Q 252.5 7.5 257.5 22.5 Q 263.5 38.5 261.5 65.5 L 256.5 96.5 Q 243.5 181.5 240.5 210.5 C 237.5 236.5 237.5 236.5 232.5 238.5 Z" fill="lightgray"></path> 
<path d="M 403.5 114.5 Q 424.5 181.5 447.5 200.5 Q 472.5 225.5 448.5 241.5 Q 429.5 254.5 402.5 274.5 Q 384.5 286.5 334.5 261.5 Q 280.5 245.5 232.5 238.5 C 202.5 233.5 210.5 207.5 240.5 210.5 Q 300.5 216.5 363.5 223.5 Q 364.5 222.5 367.5 218.5 Q 374.5 212.5 366.5 182.5 Q 359.5 154.5 349.5 118.5 C 341.5 89.5 394.5 85.5 403.5 114.5 Z" fill="lightgray"></path> 
<path d="M 261.5 65.5 Q 267.5 65.5 275.5 66.5 Q 318.5 76.5 412.5 84.5 Q 422.5 85.5 423.5 94.5 Q 423.5 101.5 403.5 114.5 C 384.5 127.5 378.5 125.5 349.5 118.5 Q 297.5 105.5 256.5 96.5 C 227.5 90.5 231.5 64.5 261.5 65.5 Z" fill="lightgray"></path> 
<path d="M 630.5 663.5 Q 664.5 696.5 683.5 718.5 Q 732.5 778.5 747.5 787.5 Q 763.5 800.5 751.5 813.5 Q 735.5 826.5 709.5 833.5 Q 685.5 840.5 675.5 835.5 Q 665.5 831.5 670.5 820.5 Q 679.5 799.5 639.5 715.5 Q 627.5 693.5 614.5 666.5 L 612.5 658.5 C 608.5 641.5 609.5 642.5 630.5 663.5 Z" fill="lightgray"></path> 
<path d="M 605.5 385.5 Q 605.5 419.5 605.5 452.5 L 605.5 481.5 L 605.5 489.5 Q 604.5 520.5 605.5 547.5 L 607.5 568.5 Q 607.5 598.5 619.5 629.5 C 623.5 642.5 623.5 642.5 603.5 655.5 Q 590.5 665.5 573.5 671.5 Q 557.5 677.5 548.5 668.5 Q 542.5 664.5 550.5 653.5 Q 574.5 599.5 563.5 360.5 Q 559.5 327.5 553.5 297.5 Q 549.5 278.5 563.5 263.5 Q 581.5 248.5 603.5 263.5 C 609.5 266.5 607.5 298.5 606.5 328.5 Q 605.5 346.5 605.5 363.5 L 605.5 385.5 Z" fill="lightgray"></path> 
<path d="M 756.5 481.5 Q 756.5 478.5 758.5 475.5 Q 762.5 460.5 774.5 462.5 Q 787.5 463.5 793.5 478.5 Q 803.5 491.5 821.5 563.5 Q 834.5 609.5 865.5 638.5 Q 881.5 653.5 866.5 666.5 Q 850.5 681.5 804.5 703.5 Q 786.5 712.5 739.5 694.5 Q 658.5 676.5 630.5 663.5 L 612.5 658.5 Q 606.5 658.5 603.5 655.5 C 574.5 646.5 589.5 628.5 619.5 629.5 Q 629.5 628.5 639.5 631.5 Q 673.5 646.5 756.5 664.5 Q 771.5 665.5 776.5 664.5 Q 785.5 660.5 781.5 631.5 Q 766.5 526.5 757.5 503.5 L 756.5 481.5 Z" fill="lightgray"></path> 
<path d="M 605.5 547.5 Q 633.5 544.5 710.5 561.5 Q 714.5 562.5 721.5 564.5 Q 734.5 568.5 736.5 569.5 Q 742.5 576.5 738.5 581.5 Q 732.5 588.5 711.5 592.5 Q 701.5 593.5 642.5 576.5 Q 626.5 572.5 607.5 568.5 C 578.5 562.5 575.5 549.5 605.5 547.5 Z" fill="lightgray"></path> 
<path d="M 605.5 452.5 Q 612.5 451.5 620.5 453.5 Q 663.5 466.5 756.5 481.5 C 786.5 486.5 783.5 488.5 757.5 503.5 Q 750.5 507.5 740.5 513.5 Q 725.5 520.5 700.5 511.5 Q 646.5 492.5 605.5 481.5 C 576.5 473.5 575.5 454.5 605.5 452.5 Z" fill="lightgray"></path> 
<path d="M 605.5 363.5 Q 612.5 360.5 627.5 363.5 Q 708.5 384.5 768.5 397.5 Q 790.5 403.5 781.5 414.5 Q 769.5 427.5 745.5 429.5 Q 723.5 430.5 685.5 416.5 Q 642.5 400.5 605.5 385.5 C 577.5 374.5 576.5 370.5 605.5 363.5 Z" fill="lightgray"></path> 
<path d="M 603.5 263.5 Q 663.5 303.5 839.5 318.5 Q 870.5 322.5 883.5 310.5 Q 890.5 304.5 871.5 132.5 Q 865.5 83.5 845.5 51.5 Q 836.5 41.5 783.5 45.5 Q 749.5 49.5 750.5 44.5 Q 750.5 38.5 759.5 31.5 Q 805.5 -13.5 822.5 -43.5 Q 832.5 -64.5 849.5 -52.5 Q 907.5 -19.5 917.5 48.5 Q 932.5 135.5 940.5 232.5 Q 946.5 269.5 963.5 300.5 Q 975.5 316.5 963.5 328.5 Q 945.5 347.5 908.5 367.5 Q 886.5 377.5 860.5 365.5 Q 821.5 349.5 786.5 343.5 Q 735.5 336.5 632.5 314.5 Q 608.5 307.5 606.5 328.5 C 585.5 349.5 577.5 249.5 603.5 263.5 Z" fill="lightgray"></path> 
<path d="M 486.5 195.5 Q 470.5 140.5 444.5 89.5 Q 431.5 59.5 448.5 31.5 Q 455.5 16.5 473.5 29.5 Q 515.5 68.5 513.5 147.5 Q 514.5 175.5 506.5 197.5 Q 502.5 204.5 496.5 204.5 Q 489.5 203.5 486.5 195.5 Z" fill="lightgray"></path> 
<path d="M 563.5 176.5 Q 585.5 107.5 606.5 100.5 Q 616.5 96.5 627.5 108.5 Q 633.5 118.5 630.5 138.5 Q 626.5 165.5 574.5 197.5 Q 567.5 201.5 563.5 191.5 Q 559.5 185.5 563.5 176.5 Z" fill="lightgray"></path> 
<path d="M 646.5 200.5 Q 680.5 134.5 702.5 129.5 Q 712.5 126.5 722.5 141.5 Q 725.5 151.5 720.5 171.5 Q 714.5 187.5 696.5 197.5 Q 668.5 218.5 654.5 222.5 Q 647.5 225.5 644.5 216.5 Q 641.5 209.5 646.5 200.5 Z" fill="lightgray"></path> 
<path d="M 760.5 206.5 Q 773.5 188.5 789.5 166.5 Q 799.5 153.5 813.5 152.5 Q 822.5 151.5 828.5 162.5 Q 834.5 174.5 830.5 201.5 Q 829.5 214.5 807.5 228.5 Q 753.5 255.5 743.5 252.5 Q 739.5 249.5 738.5 238.5 Q 739.5 228.5 760.5 206.5 Z" fill="lightgray"></path> 
      <clipPath id="make-me-a-hanzi-clip-0">
      <path d="M 216.5 677.5 Q 231.5 596.5 152.5 504.5 Q 133.5 482.5 123.5 468.5 Q 117.5 455.5 130.5 459.5 Q 143.5 462.5 162.5 477.5 Q 220.5 523.5 251.5 582.5 Q 270.5 616.5 289.5 645.5 Q 298.5 657.5 284.5 669.5 Q 244.5 699.5 223.5 693.5 Q 213.5 690.5 216.5 677.5 Z" fill="lightgray"></path>
      </clipPath>
      <path clip-path="url(#make-me-a-hanzi-clip-0)" d="M 226.5 682.5 L 252.5 650.5 L 229.5 586.5 L 191.5 526.5 L 132.5 468.5 " fill="none" id="make-me-a-hanzi-animation-0" stroke-dasharray="391 782" stroke-linecap="round"></path>

      <clipPath id="make-me-a-hanzi-clip-1">
      <path d="M 400.5 623.5 Q 422.5 607.5 445.5 585.5 Q 458.5 573.5 474.5 575.5 Q 484.5 576.5 488.5 589.5 Q 492.5 604.5 481.5 632.5 Q 469.5 656.5 392.5 669.5 Q 376.5 670.5 371.5 668.5 Q 367.5 664.5 368.5 652.5 Q 372.5 642.5 400.5 623.5 Z" fill="lightgray"></path>
      </clipPath>
      <path clip-path="url(#make-me-a-hanzi-clip-1)" d="M 376.5 662.5 L 449.5 622.5 L 471.5 592.5 " fill="none" id="make-me-a-hanzi-animation-1" stroke-dasharray="248 496" stroke-linecap="round"></path>

      <clipPath id="make-me-a-hanzi-clip-2">
      <path d="M 185.5 250.5 Q 272.5 358.5 302.5 409.5 Q 309.5 422.5 316.5 433.5 L 325.5 449.5 Q 338.5 476.5 350.5 488.5 Q 357.5 501.5 354.5 509.5 Q 348.5 521.5 323.5 523.5 Q 295.5 527.5 285.5 523.5 Q 278.5 520.5 278.5 508.5 Q 272.5 402.5 66.5 173.5 Q 48.5 157.5 73.5 164.5 Q 112.5 176.5 172.5 235.5 L 185.5 250.5 Z" fill="lightgray"></path>
      </clipPath>
      <path clip-path="url(#make-me-a-hanzi-clip-2)" d="M 341.5 504.5 L 310.5 490.5 L 262.5 391.5 L 176.5 271.5 L 127.5 215.5 L 75.5 173.5 " fill="none" id="make-me-a-hanzi-animation-2" stroke-dasharray="561 1122" stroke-linecap="round"></path>

      <clipPath id="make-me-a-hanzi-clip-3">
      <path d="M 316.5 433.5 Q 319.5 429.5 325.5 424.5 Q 376.5 388.5 438.5 335.5 Q 454.5 320.5 467.5 318.5 Q 474.5 318.5 479.5 327.5 Q 489.5 340.5 473.5 375.5 Q 455.5 417.5 332.5 448.5 Q 328.5 449.5 325.5 449.5 C 298.5 453.5 298.5 453.5 316.5 433.5 Z" fill="lightgray"></path>
      </clipPath>
      <path clip-path="url(#make-me-a-hanzi-clip-3)" d="M 328.5 442.5 L 431.5 379.5 L 453.5 358.5 L 466.5 332.5 " fill="none" id="make-me-a-hanzi-animation-3" stroke-dasharray="308 616" stroke-linecap="round"></path>

      <clipPath id="make-me-a-hanzi-clip-4">
      <path d="M 232.5 238.5 Q 220.5 244.5 189.5 250.5 Q 186.5 251.5 185.5 250.5 C 159.5 253.5 159.5 253.5 172.5 235.5 Q 190.5 217.5 215.5 87.5 Q 215.5 54.5 236.5 28.5 Q 252.5 7.5 257.5 22.5 Q 263.5 38.5 261.5 65.5 L 256.5 96.5 Q 243.5 181.5 240.5 210.5 C 237.5 236.5 237.5 236.5 232.5 238.5 Z" fill="lightgray"></path>
      </clipPath>
      <path clip-path="url(#make-me-a-hanzi-clip-4)" d="M 178.5 236.5 L 195.5 233.5 L 213.5 210.5 L 247.5 27.5 " fill="none" id="make-me-a-hanzi-animation-4" stroke-dasharray="361 722" stroke-linecap="round"></path>

      <clipPath id="make-me-a-hanzi-clip-5">
      <path d="M 403.5 114.5 Q 424.5 181.5 447.5 200.5 Q 472.5 225.5 448.5 241.5 Q 429.5 254.5 402.5 274.5 Q 384.5 286.5 334.5 261.5 Q 280.5 245.5 232.5 238.5 C 202.5 233.5 210.5 207.5 240.5 210.5 Q 300.5 216.5 363.5 223.5 Q 364.5 222.5 367.5 218.5 Q 374.5 212.5 366.5 182.5 Q 359.5 154.5 349.5 118.5 C 341.5 89.5 394.5 85.5 403.5 114.5 Z" fill="lightgray"></path>
      </clipPath>
      <path clip-path="url(#make-me-a-hanzi-clip-5)" d="M 240.5 233.5 L 251.5 226.5 L 369.5 249.5 L 387.5 245.5 L 410.5 219.5 L 384.5 142.5 L 356.5 124.5 " fill="none" id="make-me-a-hanzi-animation-5" stroke-dasharray="429 858" stroke-linecap="round"></path>

      <clipPath id="make-me-a-hanzi-clip-6">
      <path d="M 261.5 65.5 Q 267.5 65.5 275.5 66.5 Q 318.5 76.5 412.5 84.5 Q 422.5 85.5 423.5 94.5 Q 423.5 101.5 403.5 114.5 C 384.5 127.5 378.5 125.5 349.5 118.5 Q 297.5 105.5 256.5 96.5 C 227.5 90.5 231.5 64.5 261.5 65.5 Z" fill="lightgray"></path>
      </clipPath>
      <path clip-path="url(#make-me-a-hanzi-clip-6)" d="M 267.5 74.5 L 281.5 85.5 L 354.5 99.5 L 413.5 94.5 " fill="none" id="make-me-a-hanzi-animation-6" stroke-dasharray="279 558" stroke-linecap="round"></path>

      <clipPath id="make-me-a-hanzi-clip-7">
      <path d="M 630.5 663.5 Q 664.5 696.5 683.5 718.5 Q 732.5 778.5 747.5 787.5 Q 763.5 800.5 751.5 813.5 Q 735.5 826.5 709.5 833.5 Q 685.5 840.5 675.5 835.5 Q 665.5 831.5 670.5 820.5 Q 679.5 799.5 639.5 715.5 Q 627.5 693.5 614.5 666.5 L 612.5 658.5 C 608.5 641.5 609.5 642.5 630.5 663.5 Z" fill="lightgray"></path>
      </clipPath>
      <path clip-path="url(#make-me-a-hanzi-clip-7)" d="M 682.5 824.5 L 706.5 798.5 L 658.5 715.5 L 616.5 661.5 " fill="none" id="make-me-a-hanzi-animation-7" stroke-dasharray="328 656" stroke-linecap="round"></path>

      <clipPath id="make-me-a-hanzi-clip-8">
      <path d="M 605.5 385.5 Q 605.5 419.5 605.5 452.5 L 605.5 481.5 L 605.5 489.5 Q 604.5 520.5 605.5 547.5 L 607.5 568.5 Q 607.5 598.5 619.5 629.5 C 623.5 642.5 623.5 642.5 603.5 655.5 Q 590.5 665.5 573.5 671.5 Q 557.5 677.5 548.5 668.5 Q 542.5 664.5 550.5 653.5 Q 574.5 599.5 563.5 360.5 Q 559.5 327.5 553.5 297.5 Q 549.5 278.5 563.5 263.5 Q 581.5 248.5 603.5 263.5 C 609.5 266.5 607.5 298.5 606.5 328.5 Q 605.5 346.5 605.5 363.5 L 605.5 385.5 Z" fill="lightgray"></path>
      </clipPath>
      <path clip-path="url(#make-me-a-hanzi-clip-8)" d="M 558.5 662.5 L 583.5 636.5 L 587.5 621.5 L 585.5 380.5 L 578.5 286.5 L 591.5 270.5 " fill="none" id="make-me-a-hanzi-animation-8" stroke-dasharray="535 1070" stroke-linecap="round"></path>

      <clipPath id="make-me-a-hanzi-clip-9">
      <path d="M 756.5 481.5 Q 756.5 478.5 758.5 475.5 Q 762.5 460.5 774.5 462.5 Q 787.5 463.5 793.5 478.5 Q 803.5 491.5 821.5 563.5 Q 834.5 609.5 865.5 638.5 Q 881.5 653.5 866.5 666.5 Q 850.5 681.5 804.5 703.5 Q 786.5 712.5 739.5 694.5 Q 658.5 676.5 630.5 663.5 L 612.5 658.5 Q 606.5 658.5 603.5 655.5 C 574.5 646.5 589.5 628.5 619.5 629.5 Q 629.5 628.5 639.5 631.5 Q 673.5 646.5 756.5 664.5 Q 771.5 665.5 776.5 664.5 Q 785.5 660.5 781.5 631.5 Q 766.5 526.5 757.5 503.5 L 756.5 481.5 Z" fill="lightgray"></path>
      </clipPath>
      <path clip-path="url(#make-me-a-hanzi-clip-9)" d="M 610.5 650.5 L 627.5 645.5 L 753.5 682.5 L 781.5 685.5 L 801.5 676.5 L 821.5 646.5 L 772.5 476.5 " fill="none" id="make-me-a-hanzi-animation-9" stroke-dasharray="540 1080" stroke-linecap="round"></path>

      <clipPath id="make-me-a-hanzi-clip-10">
      <path d="M 605.5 547.5 Q 633.5 544.5 710.5 561.5 Q 714.5 562.5 721.5 564.5 Q 734.5 568.5 736.5 569.5 Q 742.5 576.5 738.5 581.5 Q 732.5 588.5 711.5 592.5 Q 701.5 593.5 642.5 576.5 Q 626.5 572.5 607.5 568.5 C 578.5 562.5 575.5 549.5 605.5 547.5 Z" fill="lightgray"></path>
      </clipPath>
      <path clip-path="url(#make-me-a-hanzi-clip-10)" d="M 610.5 552.5 L 656.5 567.5 L 728.5 576.5 " fill="none" id="make-me-a-hanzi-animation-10" stroke-dasharray="249 498" stroke-linecap="round"></path>

      <clipPath id="make-me-a-hanzi-clip-11">
      <path d="M 605.5 452.5 Q 612.5 451.5 620.5 453.5 Q 663.5 466.5 756.5 481.5 C 786.5 486.5 783.5 488.5 757.5 503.5 Q 750.5 507.5 740.5 513.5 Q 725.5 520.5 700.5 511.5 Q 646.5 492.5 605.5 481.5 C 576.5 473.5 575.5 454.5 605.5 452.5 Z" fill="lightgray"></path>
      </clipPath>
      <path clip-path="url(#make-me-a-hanzi-clip-11)" d="M 612.5 459.5 L 627.5 472.5 L 713.5 495.5 L 749.5 498.5 " fill="none" id="make-me-a-hanzi-animation-11" stroke-dasharray="273 546" stroke-linecap="round"></path>

      <clipPath id="make-me-a-hanzi-clip-12">
      <path d="M 605.5 363.5 Q 612.5 360.5 627.5 363.5 Q 708.5 384.5 768.5 397.5 Q 790.5 403.5 781.5 414.5 Q 769.5 427.5 745.5 429.5 Q 723.5 430.5 685.5 416.5 Q 642.5 400.5 605.5 385.5 C 577.5 374.5 576.5 370.5 605.5 363.5 Z" fill="lightgray"></path>
      </clipPath>
      <path clip-path="url(#make-me-a-hanzi-clip-12)" d="M 611.5 369.5 L 716.5 406.5 L 771.5 408.5 " fill="none" id="make-me-a-hanzi-animation-12" stroke-dasharray="294 588" stroke-linecap="round"></path>

      <clipPath id="make-me-a-hanzi-clip-13">
      <path d="M 603.5 263.5 Q 663.5 303.5 839.5 318.5 Q 870.5 322.5 883.5 310.5 Q 890.5 304.5 871.5 132.5 Q 865.5 83.5 845.5 51.5 Q 836.5 41.5 783.5 45.5 Q 749.5 49.5 750.5 44.5 Q 750.5 38.5 759.5 31.5 Q 805.5 -13.5 822.5 -43.5 Q 832.5 -64.5 849.5 -52.5 Q 907.5 -19.5 917.5 48.5 Q 932.5 135.5 940.5 232.5 Q 946.5 269.5 963.5 300.5 Q 975.5 316.5 963.5 328.5 Q 945.5 347.5 908.5 367.5 Q 886.5 377.5 860.5 365.5 Q 821.5 349.5 786.5 343.5 Q 735.5 336.5 632.5 314.5 Q 608.5 307.5 606.5 328.5 C 585.5 349.5 577.5 249.5 603.5 263.5 Z" fill="lightgray"></path>
      </clipPath>
      <path clip-path="url(#make-me-a-hanzi-clip-13)" d="M 605.5 269.5 L 622.5 295.5 L 645.5 302.5 L 860.5 342.5 L 889.5 342.5 L 919.5 318.5 L 924.5 310.5 L 910.5 235.5 L 899.5 119.5 L 887.5 61.5 L 872.5 24.5 L 847.5 2.5 L 756.5 39.5 " fill="none" id="make-me-a-hanzi-animation-13" stroke-dasharray="902 1804" stroke-linecap="round"></path>

      <clipPath id="make-me-a-hanzi-clip-14">
      <path d="M 486.5 195.5 Q 470.5 140.5 444.5 89.5 Q 431.5 59.5 448.5 31.5 Q 455.5 16.5 473.5 29.5 Q 515.5 68.5 513.5 147.5 Q 514.5 175.5 506.5 197.5 Q 502.5 204.5 496.5 204.5 Q 489.5 203.5 486.5 195.5 Z" fill="lightgray"></path>
      </clipPath>
      <path clip-path="url(#make-me-a-hanzi-clip-14)" d="M 496.5 194.5 L 491.5 138.5 L 461.5 37.5 " fill="none" id="make-me-a-hanzi-animation-14" stroke-dasharray="290 580" stroke-linecap="round"></path>

      <clipPath id="make-me-a-hanzi-clip-15">
      <path d="M 563.5 176.5 Q 585.5 107.5 606.5 100.5 Q 616.5 96.5 627.5 108.5 Q 633.5 118.5 630.5 138.5 Q 626.5 165.5 574.5 197.5 Q 567.5 201.5 563.5 191.5 Q 559.5 185.5 563.5 176.5 Z" fill="lightgray"></path>
      </clipPath>
      <path clip-path="url(#make-me-a-hanzi-clip-15)" d="M 574.5 184.5 L 600.5 146.5 L 611.5 117.5 " fill="none" id="make-me-a-hanzi-animation-15" stroke-dasharray="205 410" stroke-linecap="round"></path>

      <clipPath id="make-me-a-hanzi-clip-16">
      <path d="M 646.5 200.5 Q 680.5 134.5 702.5 129.5 Q 712.5 126.5 722.5 141.5 Q 725.5 151.5 720.5 171.5 Q 714.5 187.5 696.5 197.5 Q 668.5 218.5 654.5 222.5 Q 647.5 225.5 644.5 216.5 Q 641.5 209.5 646.5 200.5 Z" fill="lightgray"></path>
      </clipPath>
      <path clip-path="url(#make-me-a-hanzi-clip-16)" d="M 654.5 211.5 L 693.5 169.5 L 705.5 145.5 " fill="none" id="make-me-a-hanzi-animation-16" stroke-dasharray="212 424" stroke-linecap="round"></path>

      <clipPath id="make-me-a-hanzi-clip-17">
      <path d="M 760.5 206.5 Q 773.5 188.5 789.5 166.5 Q 799.5 153.5 813.5 152.5 Q 822.5 151.5 828.5 162.5 Q 834.5 174.5 830.5 201.5 Q 829.5 214.5 807.5 228.5 Q 753.5 255.5 743.5 252.5 Q 739.5 249.5 738.5 238.5 Q 739.5 228.5 760.5 206.5 Z" fill="lightgray"></path>
      </clipPath>
      <path clip-path="url(#make-me-a-hanzi-clip-17)" d="M 746.5 243.5 L 797.5 202.5 L 814.5 167.5 " fill="none" id="make-me-a-hanzi-animation-17" stroke-dasharray="232 464" stroke-linecap="round"></path>

</g>
</svg>
