<svg version="1.1" viewBox="0 0 1024 1024" xmlns="http://www.w3.org/2000/svg">
  <g stroke="lightgray" stroke-dasharray="1,1" stroke-width="1" transform="scale(4, 4)">
    <line x1="0" y1="0" x2="256" y2="256"></line>
    <line x1="256" y1="0" x2="0" y2="256"></line>
    <line x1="128" y1="0" x2="128" y2="256"></line>
    <line x1="0" y1="128" x2="256" y2="128"></line>
  </g>
<g transform="scale(1, -1) translate(0, -900)">
   <style type="text/css">
    @keyframes keyframes0 {
      from {
       stroke: blue;
       stroke-dashoffset: 539;
       stroke-width: 128;
       }
       64% {
       animation-timing-function: step-end;
       stroke: blue;
       stroke-dashoffset: 0;
       stroke-width: 128;
       }
       to {
       stroke: black;
       stroke-width: 1024;
       }
       }
       #make-me-a-hanzi-animation-0 {
         animation: keyframes0 0.688639s both;
         animation-delay: 0.000000s;
         animation-timing-function: linear;
       }
    @keyframes keyframes1 {
      from {
       stroke: blue;
       stroke-dashoffset: 415;
       stroke-width: 128;
       }
       57% {
       animation-timing-function: step-end;
       stroke: blue;
       stroke-dashoffset: 0;
       stroke-width: 128;
       }
       to {
       stroke: black;
       stroke-width: 1024;
       }
       }
       #make-me-a-hanzi-animation-1 {
         animation: keyframes1 0.587728s both;
         animation-delay: 0.688639s;
         animation-timing-function: linear;
       }
    @keyframes keyframes2 {
      from {
       stroke: blue;
       stroke-dashoffset: 697;
       stroke-width: 128;
       }
       69% {
       animation-timing-function: step-end;
       stroke: blue;
       stroke-dashoffset: 0;
       stroke-width: 128;
       }
       to {
       stroke: black;
       stroke-width: 1024;
       }
       }
       #make-me-a-hanzi-animation-2 {
         animation: keyframes2 0.817220s both;
         animation-delay: 1.276367s;
         animation-timing-function: linear;
       }
    @keyframes keyframes3 {
      from {
       stroke: blue;
       stroke-dashoffset: 947;
       stroke-width: 128;
       }
       76% {
       animation-timing-function: step-end;
       stroke: blue;
       stroke-dashoffset: 0;
       stroke-width: 128;
       }
       to {
       stroke: black;
       stroke-width: 1024;
       }
       }
       #make-me-a-hanzi-animation-3 {
         animation: keyframes3 1.020671s both;
         animation-delay: 2.093587s;
         animation-timing-function: linear;
       }
    @keyframes keyframes4 {
      from {
       stroke: blue;
       stroke-dashoffset: 592;
       stroke-width: 128;
       }
       66% {
       animation-timing-function: step-end;
       stroke: blue;
       stroke-dashoffset: 0;
       stroke-width: 128;
       }
       to {
       stroke: black;
       stroke-width: 1024;
       }
       }
       #make-me-a-hanzi-animation-4 {
         animation: keyframes4 0.731771s both;
         animation-delay: 3.114258s;
         animation-timing-function: linear;
       }
    @keyframes keyframes5 {
      from {
       stroke: blue;
       stroke-dashoffset: 475;
       stroke-width: 128;
       }
       61% {
       animation-timing-function: step-end;
       stroke: blue;
       stroke-dashoffset: 0;
       stroke-width: 128;
       }
       to {
       stroke: black;
       stroke-width: 1024;
       }
       }
       #make-me-a-hanzi-animation-5 {
         animation: keyframes5 0.636556s both;
         animation-delay: 3.846029s;
         animation-timing-function: linear;
       }
    @keyframes keyframes6 {
      from {
       stroke: blue;
       stroke-dashoffset: 467;
       stroke-width: 128;
       }
       60% {
       animation-timing-function: step-end;
       stroke: blue;
       stroke-dashoffset: 0;
       stroke-width: 128;
       }
       to {
       stroke: black;
       stroke-width: 1024;
       }
       }
       #make-me-a-hanzi-animation-6 {
         animation: keyframes6 0.630046s both;
         animation-delay: 4.482585s;
         animation-timing-function: linear;
       }
    @keyframes keyframes7 {
      from {
       stroke: blue;
       stroke-dashoffset: 367;
       stroke-width: 128;
       }
       54% {
       animation-timing-function: step-end;
       stroke: blue;
       stroke-dashoffset: 0;
       stroke-width: 128;
       }
       to {
       stroke: black;
       stroke-width: 1024;
       }
       }
       #make-me-a-hanzi-animation-7 {
         animation: keyframes7 0.548665s both;
         animation-delay: 5.112630s;
         animation-timing-function: linear;
       }
    @keyframes keyframes8 {
      from {
       stroke: blue;
       stroke-dashoffset: 449;
       stroke-width: 128;
       }
       59% {
       animation-timing-function: step-end;
       stroke: blue;
       stroke-dashoffset: 0;
       stroke-width: 128;
       }
       to {
       stroke: black;
       stroke-width: 1024;
       }
       }
       #make-me-a-hanzi-animation-8 {
         animation: keyframes8 0.615397s both;
         animation-delay: 5.661296s;
         animation-timing-function: linear;
       }
    @keyframes keyframes9 {
      from {
       stroke: blue;
       stroke-dashoffset: 563;
       stroke-width: 128;
       }
       65% {
       animation-timing-function: step-end;
       stroke: blue;
       stroke-dashoffset: 0;
       stroke-width: 128;
       }
       to {
       stroke: black;
       stroke-width: 1024;
       }
       }
       #make-me-a-hanzi-animation-9 {
         animation: keyframes9 0.708171s both;
         animation-delay: 6.276693s;
         animation-timing-function: linear;
       }
    @keyframes keyframes10 {
      from {
       stroke: blue;
       stroke-dashoffset: 507;
       stroke-width: 128;
       }
       62% {
       animation-timing-function: step-end;
       stroke: blue;
       stroke-dashoffset: 0;
       stroke-width: 128;
       }
       to {
       stroke: black;
       stroke-width: 1024;
       }
       }
       #make-me-a-hanzi-animation-10 {
         animation: keyframes10 0.662598s both;
         animation-delay: 6.984863s;
         animation-timing-function: linear;
       }
    @keyframes keyframes11 {
      from {
       stroke: blue;
       stroke-dashoffset: 684;
       stroke-width: 128;
       }
       69% {
       animation-timing-function: step-end;
       stroke: blue;
       stroke-dashoffset: 0;
       stroke-width: 128;
       }
       to {
       stroke: black;
       stroke-width: 1024;
       }
       }
       #make-me-a-hanzi-animation-11 {
         animation: keyframes11 0.806641s both;
         animation-delay: 7.647461s;
         animation-timing-function: linear;
       }
    @keyframes keyframes12 {
      from {
       stroke: blue;
       stroke-dashoffset: 961;
       stroke-width: 128;
       }
       76% {
       animation-timing-function: step-end;
       stroke: blue;
       stroke-dashoffset: 0;
       stroke-width: 128;
       }
       to {
       stroke: black;
       stroke-width: 1024;
       }
       }
       #make-me-a-hanzi-animation-12 {
         animation: keyframes12 1.032064s both;
         animation-delay: 8.454102s;
         animation-timing-function: linear;
       }
    @keyframes keyframes13 {
      from {
       stroke: blue;
       stroke-dashoffset: 498;
       stroke-width: 128;
       }
       62% {
       animation-timing-function: step-end;
       stroke: blue;
       stroke-dashoffset: 0;
       stroke-width: 128;
       }
       to {
       stroke: black;
       stroke-width: 1024;
       }
       }
       #make-me-a-hanzi-animation-13 {
         animation: keyframes13 0.655273s both;
         animation-delay: 9.486165s;
         animation-timing-function: linear;
       }
    @keyframes keyframes14 {
      from {
       stroke: blue;
       stroke-dashoffset: 387;
       stroke-width: 128;
       }
       56% {
       animation-timing-function: step-end;
       stroke: blue;
       stroke-dashoffset: 0;
       stroke-width: 128;
       }
       to {
       stroke: black;
       stroke-width: 1024;
       }
       }
       #make-me-a-hanzi-animation-14 {
         animation: keyframes14 0.564941s both;
         animation-delay: 10.141439s;
         animation-timing-function: linear;
       }
    @keyframes keyframes15 {
      from {
       stroke: blue;
       stroke-dashoffset: 699;
       stroke-width: 128;
       }
       69% {
       animation-timing-function: step-end;
       stroke: blue;
       stroke-dashoffset: 0;
       stroke-width: 128;
       }
       to {
       stroke: black;
       stroke-width: 1024;
       }
       }
       #make-me-a-hanzi-animation-15 {
         animation: keyframes15 0.818848s both;
         animation-delay: 10.706380s;
         animation-timing-function: linear;
       }
</style>
<path d="M 285.0 546.5 Q 289.0 603.5 293.0 657.5 L 295.0 685.5 Q 298.0 739.5 311.0 773.5 Q 314.0 783.5 296.0 795.5 Q 265.0 811.5 244.0 815.5 Q 231.0 818.5 223.0 811.5 Q 216.0 804.5 224.0 791.5 Q 240.0 769.5 241.0 753.5 Q 248.0 653.5 247.0 535.5 C 247.0 505.5 283.0 516.5 285.0 546.5 Z" fill="lightgray"></path> 
<path d="M 293.0 657.5 Q 323.0 654.5 453.0 685.5 Q 456.0 686.5 458.0 688.5 Q 465.0 695.5 460.0 702.5 Q 453.0 712.5 428.0 716.5 Q 407.0 719.5 338.0 695.5 Q 317.0 691.5 295.0 685.5 C 266.0 677.5 263.0 658.5 293.0 657.5 Z" fill="lightgray"></path> 
<path d="M 144.0 514.5 Q 132.0 526.5 112.0 533.5 Q 103.0 537.5 92.0 534.5 Q 85.0 530.5 91.0 518.5 Q 92.0 509.5 96.0 501.5 Q 117.0 462.5 101.0 243.5 Q 85.0 146.5 85.0 142.5 Q 85.0 120.5 108.0 93.5 Q 117.0 81.5 127.0 92.5 Q 137.0 105.5 138.0 124.5 L 142.0 155.5 Q 148.0 315.5 154.0 476.5 Q 155.0 482.5 155.0 486.5 C 156.0 504.5 156.0 504.5 144.0 514.5 Z" fill="lightgray"></path> 
<path d="M 329.0 149.5 Q 354.0 118.5 372.0 87.5 Q 379.0 71.5 390.0 72.5 Q 405.0 73.5 418.0 103.5 Q 434.0 137.5 431.0 179.5 Q 424.0 278.5 418.0 462.5 Q 417.0 490.5 431.0 509.5 Q 438.0 521.5 431.0 530.5 Q 415.0 546.5 368.0 567.5 Q 352.0 576.5 338.0 567.5 Q 314.0 557.5 285.0 546.5 L 247.0 535.5 Q 237.0 534.5 226.0 531.5 Q 174.0 521.5 144.0 514.5 C 115.0 507.5 126.0 480.5 155.0 486.5 Q 156.0 486.5 320.0 522.5 Q 344.0 528.5 356.0 519.5 Q 383.0 492.5 367.0 188.5 Q 366.0 185.5 366.0 181.5 Q 363.0 169.5 355.0 170.5 C 338.0 146.5 323.0 157.5 329.0 149.5 Z" fill="lightgray"></path> 
<path d="M 285.0 327.5 Q 328.0 459.5 329.0 460.5 Q 320.0 473.5 302.0 485.5 Q 292.0 495.5 282.0 493.5 Q 273.0 489.5 276.0 480.5 Q 289.0 455.5 255.0 348.5 L 243.0 314.5 Q 207.0 245.5 168.0 201.5 Q 164.0 197.5 162.0 193.5 Q 159.0 186.5 166.0 187.5 Q 187.0 187.5 245.0 255.5 L 267.0 290.5 L 285.0 327.5 Z" fill="lightgray"></path> 
<path d="M 267.0 290.5 Q 327.0 227.5 331.0 225.5 Q 337.0 224.5 341.0 230.5 Q 348.0 237.5 342.0 265.5 Q 336.0 292.5 285.0 327.5 L 255.0 348.5 Q 209.0 379.5 182.0 395.5 Q 176.0 398.5 175.0 390.5 Q 174.0 383.5 180.0 375.5 Q 210.0 348.5 243.0 314.5 L 267.0 290.5 Z" fill="lightgray"></path> 
<path d="M 138.0 124.5 Q 148.0 124.5 161.0 125.5 Q 216.0 138.5 329.0 149.5 C 359.0 152.5 373.0 153.5 355.0 170.5 Q 348.0 177.5 333.0 187.5 Q 317.0 194.5 289.0 187.5 Q 208.0 166.5 142.0 155.5 C 112.0 150.5 108.0 124.5 138.0 124.5 Z" fill="lightgray"></path> 
<path d="M 547.0 720.5 Q 563.0 698.5 580.0 672.5 Q 589.0 659.5 602.0 656.5 Q 612.0 655.5 618.0 665.5 Q 625.0 677.5 623.0 703.5 Q 620.0 730.5 552.0 762.5 Q 539.0 768.5 533.0 767.5 Q 529.0 764.5 527.0 753.5 Q 528.0 743.5 547.0 720.5 Z" fill="lightgray"></path> 
<path d="M 751.0 770.5 Q 747.0 761.5 686.0 662.5 Q 679.0 646.5 694.0 650.5 Q 740.0 684.5 795.0 733.5 Q 811.0 749.5 832.0 762.5 Q 851.0 774.5 839.0 789.5 Q 826.0 804.5 799.0 814.5 Q 775.0 824.5 764.0 820.5 Q 752.0 819.5 757.0 806.5 Q 761.0 788.5 751.0 770.5 Z" fill="lightgray"></path> 
<path d="M 660.0 565.5 Q 814.0 598.5 820.0 602.5 Q 827.0 609.5 824.0 617.5 Q 817.0 627.5 791.0 635.5 Q 767.0 641.5 667.0 610.5 Q 576.0 591.5 522.0 586.5 Q 488.0 580.5 512.0 565.5 Q 548.0 541.5 603.0 554.5 Q 610.0 555.5 621.0 557.5 L 660.0 565.5 Z" fill="lightgray"></path> 
<path d="M 663.0 456.5 Q 706.0 466.5 754.0 474.5 Q 787.0 481.5 792.0 485.5 Q 799.0 492.5 795.0 499.5 Q 789.0 508.5 766.0 514.5 Q 745.0 517.5 677.0 497.5 L 619.0 483.5 Q 583.0 479.5 544.0 474.5 Q 514.0 470.5 535.0 455.5 Q 565.0 440.5 609.0 444.5 L 663.0 456.5 Z" fill="lightgray"></path> 
<path d="M 627.0 346.5 Q 672.0 361.5 839.0 359.5 Q 884.0 356.5 892.0 366.5 Q 896.0 376.5 882.0 388.5 Q 834.0 422.5 781.0 409.5 Q 730.0 399.5 652.0 385.5 Q 645.0 385.5 639.0 382.5 L 589.0 376.5 Q 529.0 369.5 463.0 359.5 Q 445.0 358.5 459.0 343.5 Q 471.0 331.5 486.0 326.5 Q 505.0 322.5 518.0 326.5 Q 546.0 333.5 577.0 339.5 L 627.0 346.5 Z" fill="lightgray"></path> 
<path d="M 583.0 239.5 Q 583.0 240.5 584.0 240.5 Q 608.0 292.5 627.0 346.5 L 639.0 382.5 Q 651.0 424.5 663.0 456.5 L 677.0 497.5 Q 680.0 504.5 684.0 511.5 Q 694.0 521.5 690.0 535.5 Q 680.0 551.5 660.0 565.5 C 637.0 584.5 616.0 587.5 621.0 557.5 Q 630.0 530.5 619.0 483.5 L 609.0 444.5 Q 599.0 410.5 589.0 376.5 L 577.0 339.5 Q 496.0 125.5 335.0 -29.5 Q 331.0 -33.5 327.0 -39.5 Q 323.0 -48.5 333.0 -48.5 Q 364.0 -48.5 467.0 57.5 Q 483.0 78.5 502.0 101.5 Q 542.0 159.5 577.0 226.5 L 583.0 239.5 Z" fill="lightgray"></path> 
<path d="M 698.0 215.5 Q 827.0 242.5 832.0 246.5 Q 839.0 253.5 836.0 261.5 Q 829.0 271.5 803.0 279.5 Q 775.0 283.5 748.0 273.5 Q 715.0 263.5 679.0 254.5 Q 639.0 247.5 593.0 242.5 Q 586.0 241.5 583.0 239.5 C 568.0 234.5 568.0 234.5 577.0 226.5 Q 599.0 204.5 653.0 207.5 L 698.0 215.5 Z" fill="lightgray"></path> 
<path d="M 700.0 83.5 Q 706.0 164.5 712.0 176.5 Q 721.0 197.5 698.0 215.5 C 675.0 234.5 651.0 237.5 653.0 207.5 Q 654.0 198.5 657.0 78.5 C 658.0 48.5 698.0 53.5 700.0 83.5 Z" fill="lightgray"></path> 
<path d="M 657.0 78.5 Q 578.0 69.5 492.0 60.5 Q 473.0 59.5 487.0 43.5 Q 500.0 30.5 516.0 25.5 Q 535.0 21.5 549.0 24.5 Q 720.0 66.5 911.0 49.5 L 913.0 49.5 Q 931.0 49.5 935.0 56.5 Q 939.0 66.5 926.0 80.5 Q 875.0 119.5 814.0 102.5 Q 766.0 95.5 700.0 83.5 L 657.0 78.5 Z" fill="lightgray"></path> 
      <clipPath id="make-me-a-hanzi-clip-0">
      <path d="M 285.0 546.5 Q 289.0 603.5 293.0 657.5 L 295.0 685.5 Q 298.0 739.5 311.0 773.5 Q 314.0 783.5 296.0 795.5 Q 265.0 811.5 244.0 815.5 Q 231.0 818.5 223.0 811.5 Q 216.0 804.5 224.0 791.5 Q 240.0 769.5 241.0 753.5 Q 248.0 653.5 247.0 535.5 C 247.0 505.5 283.0 516.5 285.0 546.5 Z" fill="lightgray"></path>
      </clipPath>
      <path clip-path="url(#make-me-a-hanzi-clip-0)" d="M 233.0 802.5 L 273.0 769.5 L 268.0 572.5 L 251.0 543.5 " fill="none" id="make-me-a-hanzi-animation-0" stroke-dasharray="411 822" stroke-linecap="round"></path>

      <clipPath id="make-me-a-hanzi-clip-1">
      <path d="M 293.0 657.5 Q 323.0 654.5 453.0 685.5 Q 456.0 686.5 458.0 688.5 Q 465.0 695.5 460.0 702.5 Q 453.0 712.5 428.0 716.5 Q 407.0 719.5 338.0 695.5 Q 317.0 691.5 295.0 685.5 C 266.0 677.5 263.0 658.5 293.0 657.5 Z" fill="lightgray"></path>
      </clipPath>
      <path clip-path="url(#make-me-a-hanzi-clip-1)" d="M 296.0 664.5 L 310.0 673.5 L 406.0 695.5 L 450.0 696.5 " fill="none" id="make-me-a-hanzi-animation-1" stroke-dasharray="287 574" stroke-linecap="round"></path>

      <clipPath id="make-me-a-hanzi-clip-2">
      <path d="M 144.0 514.5 Q 132.0 526.5 112.0 533.5 Q 103.0 537.5 92.0 534.5 Q 85.0 530.5 91.0 518.5 Q 92.0 509.5 96.0 501.5 Q 117.0 462.5 101.0 243.5 Q 85.0 146.5 85.0 142.5 Q 85.0 120.5 108.0 93.5 Q 117.0 81.5 127.0 92.5 Q 137.0 105.5 138.0 124.5 L 142.0 155.5 Q 148.0 315.5 154.0 476.5 Q 155.0 482.5 155.0 486.5 C 156.0 504.5 156.0 504.5 144.0 514.5 Z" fill="lightgray"></path>
      </clipPath>
      <path clip-path="url(#make-me-a-hanzi-clip-2)" d="M 98.0 526.5 L 124.0 498.5 L 130.0 469.5 L 124.0 240.5 L 112.0 140.5 L 118.0 97.5 " fill="none" id="make-me-a-hanzi-animation-2" stroke-dasharray="569 1138" stroke-linecap="round"></path>

      <clipPath id="make-me-a-hanzi-clip-3">
      <path d="M 329.0 149.5 Q 354.0 118.5 372.0 87.5 Q 379.0 71.5 390.0 72.5 Q 405.0 73.5 418.0 103.5 Q 434.0 137.5 431.0 179.5 Q 424.0 278.5 418.0 462.5 Q 417.0 490.5 431.0 509.5 Q 438.0 521.5 431.0 530.5 Q 415.0 546.5 368.0 567.5 Q 352.0 576.5 338.0 567.5 Q 314.0 557.5 285.0 546.5 L 247.0 535.5 Q 237.0 534.5 226.0 531.5 Q 174.0 521.5 144.0 514.5 C 115.0 507.5 126.0 480.5 155.0 486.5 Q 156.0 486.5 320.0 522.5 Q 344.0 528.5 356.0 519.5 Q 383.0 492.5 367.0 188.5 Q 366.0 185.5 366.0 181.5 Q 363.0 169.5 355.0 170.5 C 338.0 146.5 323.0 157.5 329.0 149.5 Z" fill="lightgray"></path>
      </clipPath>
      <path clip-path="url(#make-me-a-hanzi-clip-3)" d="M 154.0 494.5 L 164.0 504.5 L 252.0 519.5 L 354.0 547.5 L 392.0 519.5 L 399.0 219.5 L 398.0 170.5 L 387.0 142.5 L 390.0 87.5 " fill="none" id="make-me-a-hanzi-animation-3" stroke-dasharray="819 1638" stroke-linecap="round"></path>

      <clipPath id="make-me-a-hanzi-clip-4">
      <path d="M 285.0 327.5 Q 328.0 459.5 329.0 460.5 Q 320.0 473.5 302.0 485.5 Q 292.0 495.5 282.0 493.5 Q 273.0 489.5 276.0 480.5 Q 289.0 455.5 255.0 348.5 L 243.0 314.5 Q 207.0 245.5 168.0 201.5 Q 164.0 197.5 162.0 193.5 Q 159.0 186.5 166.0 187.5 Q 187.0 187.5 245.0 255.5 L 267.0 290.5 L 285.0 327.5 Z" fill="lightgray"></path>
      </clipPath>
      <path clip-path="url(#make-me-a-hanzi-clip-4)" d="M 286.0 483.5 L 303.0 455.5 L 274.0 355.5 L 276.0 345.5 L 228.0 254.5 L 168.0 193.5 " fill="none" id="make-me-a-hanzi-animation-4" stroke-dasharray="464 928" stroke-linecap="round"></path>

      <clipPath id="make-me-a-hanzi-clip-5">
      <path d="M 267.0 290.5 Q 327.0 227.5 331.0 225.5 Q 337.0 224.5 341.0 230.5 Q 348.0 237.5 342.0 265.5 Q 336.0 292.5 285.0 327.5 L 255.0 348.5 Q 209.0 379.5 182.0 395.5 Q 176.0 398.5 175.0 390.5 Q 174.0 383.5 180.0 375.5 Q 210.0 348.5 243.0 314.5 L 267.0 290.5 Z" fill="lightgray"></path>
      </clipPath>
      <path clip-path="url(#make-me-a-hanzi-clip-5)" d="M 183.0 386.5 L 304.0 284.5 L 327.0 254.5 L 334.0 232.5 " fill="none" id="make-me-a-hanzi-animation-5" stroke-dasharray="347 694" stroke-linecap="round"></path>

      <clipPath id="make-me-a-hanzi-clip-6">
      <path d="M 138.0 124.5 Q 148.0 124.5 161.0 125.5 Q 216.0 138.5 329.0 149.5 C 359.0 152.5 373.0 153.5 355.0 170.5 Q 348.0 177.5 333.0 187.5 Q 317.0 194.5 289.0 187.5 Q 208.0 166.5 142.0 155.5 C 112.0 150.5 108.0 124.5 138.0 124.5 Z" fill="lightgray"></path>
      </clipPath>
      <path clip-path="url(#make-me-a-hanzi-clip-6)" d="M 143.0 131.5 L 156.0 141.5 L 208.0 152.5 L 301.0 168.5 L 348.0 170.5 " fill="none" id="make-me-a-hanzi-animation-6" stroke-dasharray="339 678" stroke-linecap="round"></path>

      <clipPath id="make-me-a-hanzi-clip-7">
      <path d="M 547.0 720.5 Q 563.0 698.5 580.0 672.5 Q 589.0 659.5 602.0 656.5 Q 612.0 655.5 618.0 665.5 Q 625.0 677.5 623.0 703.5 Q 620.0 730.5 552.0 762.5 Q 539.0 768.5 533.0 767.5 Q 529.0 764.5 527.0 753.5 Q 528.0 743.5 547.0 720.5 Z" fill="lightgray"></path>
      </clipPath>
      <path clip-path="url(#make-me-a-hanzi-clip-7)" d="M 536.0 757.5 L 590.0 706.5 L 604.0 672.5 " fill="none" id="make-me-a-hanzi-animation-7" stroke-dasharray="239 478" stroke-linecap="round"></path>

      <clipPath id="make-me-a-hanzi-clip-8">
      <path d="M 751.0 770.5 Q 747.0 761.5 686.0 662.5 Q 679.0 646.5 694.0 650.5 Q 740.0 684.5 795.0 733.5 Q 811.0 749.5 832.0 762.5 Q 851.0 774.5 839.0 789.5 Q 826.0 804.5 799.0 814.5 Q 775.0 824.5 764.0 820.5 Q 752.0 819.5 757.0 806.5 Q 761.0 788.5 751.0 770.5 Z" fill="lightgray"></path>
      </clipPath>
      <path clip-path="url(#make-me-a-hanzi-clip-8)" d="M 770.0 808.5 L 784.0 794.5 L 791.0 775.5 L 713.0 680.5 L 698.0 671.5 L 695.0 659.5 " fill="none" id="make-me-a-hanzi-animation-8" stroke-dasharray="321 642" stroke-linecap="round"></path>

      <clipPath id="make-me-a-hanzi-clip-9">
      <path d="M 660.0 565.5 Q 814.0 598.5 820.0 602.5 Q 827.0 609.5 824.0 617.5 Q 817.0 627.5 791.0 635.5 Q 767.0 641.5 667.0 610.5 Q 576.0 591.5 522.0 586.5 Q 488.0 580.5 512.0 565.5 Q 548.0 541.5 603.0 554.5 Q 610.0 555.5 621.0 557.5 L 660.0 565.5 Z" fill="lightgray"></path>
      </clipPath>
      <path clip-path="url(#make-me-a-hanzi-clip-9)" d="M 514.0 577.5 L 537.0 570.5 L 575.0 570.5 L 780.0 614.5 L 815.0 611.5 " fill="none" id="make-me-a-hanzi-animation-9" stroke-dasharray="435 870" stroke-linecap="round"></path>

      <clipPath id="make-me-a-hanzi-clip-10">
      <path d="M 663.0 456.5 Q 706.0 466.5 754.0 474.5 Q 787.0 481.5 792.0 485.5 Q 799.0 492.5 795.0 499.5 Q 789.0 508.5 766.0 514.5 Q 745.0 517.5 677.0 497.5 L 619.0 483.5 Q 583.0 479.5 544.0 474.5 Q 514.0 470.5 535.0 455.5 Q 565.0 440.5 609.0 444.5 L 663.0 456.5 Z" fill="lightgray"></path>
      </clipPath>
      <path clip-path="url(#make-me-a-hanzi-clip-10)" d="M 537.0 466.5 L 558.0 461.5 L 612.0 463.5 L 692.0 483.5 L 784.0 494.5 " fill="none" id="make-me-a-hanzi-animation-10" stroke-dasharray="379 758" stroke-linecap="round"></path>

      <clipPath id="make-me-a-hanzi-clip-11">
      <path d="M 627.0 346.5 Q 672.0 361.5 839.0 359.5 Q 884.0 356.5 892.0 366.5 Q 896.0 376.5 882.0 388.5 Q 834.0 422.5 781.0 409.5 Q 730.0 399.5 652.0 385.5 Q 645.0 385.5 639.0 382.5 L 589.0 376.5 Q 529.0 369.5 463.0 359.5 Q 445.0 358.5 459.0 343.5 Q 471.0 331.5 486.0 326.5 Q 505.0 322.5 518.0 326.5 Q 546.0 333.5 577.0 339.5 L 627.0 346.5 Z" fill="lightgray"></path>
      </clipPath>
      <path clip-path="url(#make-me-a-hanzi-clip-11)" d="M 461.0 351.5 L 503.0 344.5 L 793.0 386.5 L 839.0 384.5 L 884.0 371.5 " fill="none" id="make-me-a-hanzi-animation-11" stroke-dasharray="556 1112" stroke-linecap="round"></path>

      <clipPath id="make-me-a-hanzi-clip-12">
      <path d="M 583.0 239.5 Q 583.0 240.5 584.0 240.5 Q 608.0 292.5 627.0 346.5 L 639.0 382.5 Q 651.0 424.5 663.0 456.5 L 677.0 497.5 Q 680.0 504.5 684.0 511.5 Q 694.0 521.5 690.0 535.5 Q 680.0 551.5 660.0 565.5 C 637.0 584.5 616.0 587.5 621.0 557.5 Q 630.0 530.5 619.0 483.5 L 609.0 444.5 Q 599.0 410.5 589.0 376.5 L 577.0 339.5 Q 496.0 125.5 335.0 -29.5 Q 331.0 -33.5 327.0 -39.5 Q 323.0 -48.5 333.0 -48.5 Q 364.0 -48.5 467.0 57.5 Q 483.0 78.5 502.0 101.5 Q 542.0 159.5 577.0 226.5 L 583.0 239.5 Z" fill="lightgray"></path>
      </clipPath>
      <path clip-path="url(#make-me-a-hanzi-clip-12)" d="M 629.0 553.5 L 653.0 535.5 L 655.0 517.5 L 616.0 383.5 L 573.0 268.5 L 519.0 166.5 L 445.0 60.5 L 385.0 -0.5 L 335.0 -40.5 " fill="none" id="make-me-a-hanzi-animation-12" stroke-dasharray="833 1666" stroke-linecap="round"></path>

      <clipPath id="make-me-a-hanzi-clip-13">
      <path d="M 698.0 215.5 Q 827.0 242.5 832.0 246.5 Q 839.0 253.5 836.0 261.5 Q 829.0 271.5 803.0 279.5 Q 775.0 283.5 748.0 273.5 Q 715.0 263.5 679.0 254.5 Q 639.0 247.5 593.0 242.5 Q 586.0 241.5 583.0 239.5 C 568.0 234.5 568.0 234.5 577.0 226.5 Q 599.0 204.5 653.0 207.5 L 698.0 215.5 Z" fill="lightgray"></path>
      </clipPath>
      <path clip-path="url(#make-me-a-hanzi-clip-13)" d="M 587.0 229.5 L 643.0 226.5 L 783.0 257.5 L 826.0 256.5 " fill="none" id="make-me-a-hanzi-animation-13" stroke-dasharray="370 740" stroke-linecap="round"></path>

      <clipPath id="make-me-a-hanzi-clip-14">
      <path d="M 700.0 83.5 Q 706.0 164.5 712.0 176.5 Q 721.0 197.5 698.0 215.5 C 675.0 234.5 651.0 237.5 653.0 207.5 Q 654.0 198.5 657.0 78.5 C 658.0 48.5 698.0 53.5 700.0 83.5 Z" fill="lightgray"></path>
      </clipPath>
      <path clip-path="url(#make-me-a-hanzi-clip-14)" d="M 661.0 206.5 L 683.0 182.5 L 679.0 104.5 L 663.0 91.5 " fill="none" id="make-me-a-hanzi-animation-14" stroke-dasharray="259 518" stroke-linecap="round"></path>

      <clipPath id="make-me-a-hanzi-clip-15">
      <path d="M 657.0 78.5 Q 578.0 69.5 492.0 60.5 Q 473.0 59.5 487.0 43.5 Q 500.0 30.5 516.0 25.5 Q 535.0 21.5 549.0 24.5 Q 720.0 66.5 911.0 49.5 L 913.0 49.5 Q 931.0 49.5 935.0 56.5 Q 939.0 66.5 926.0 80.5 Q 875.0 119.5 814.0 102.5 Q 766.0 95.5 700.0 83.5 L 657.0 78.5 Z" fill="lightgray"></path>
      </clipPath>
      <path clip-path="url(#make-me-a-hanzi-clip-15)" d="M 489.0 52.5 L 542.0 44.5 L 680.0 65.5 L 851.0 80.5 L 896.0 73.5 L 926.0 61.5 " fill="none" id="make-me-a-hanzi-animation-15" stroke-dasharray="571 1142" stroke-linecap="round"></path>

</g>
</svg>
