<svg version="1.1" viewBox="0 0 2048 1024" xmlns="http://www.w3.org/2000/svg">
  <g stroke="lightgray" stroke-dasharray="1,1" stroke-width="1" transform="scale(4, 4)">
    <line x1="0" y1="0" x2="256" y2="256"></line>
    <line x1="256" y1="0" x2="0" y2="256"></line>
    <line x1="128" y1="0" x2="128" y2="256"></line>
    <line x1="0" y1="128" x2="256" y2="128"></line>
    <line x1="256" y1="0" x2="512" y2="256"></line>
    <line x1="512" y1="0" x2="256" y2="256"></line>
    <line x1="384" y1="0" x2="384" y2="256"></line>
    <line x1="256" y1="128" x2="512" y2="128"></line>
  </g>
<g transform="scale(1, -1) translate(0, -850)">
   <style type="text/css">
    @keyframes keyframes0 {
      from {
       stroke: black;
       stroke-dashoffset: 952;
       stroke-width: 128;
       }
       76% {
       animation-timing-function: step-end;
       stroke: black;
       stroke-dashoffset: 0;
       stroke-width: 128;
       }
       to {
       stroke: black;
       stroke-width: 1024;
       }
       }
       #make-me-a-hanzi-animation-0 {
         animation: keyframes0 1.024740s both;
         animation-delay: 0.000000s;
         animation-timing-function: linear;
       }
    @keyframes keyframes1 {
      from {
       stroke: black;
       stroke-dashoffset: 897;
       stroke-width: 128;
       }
       74% {
       animation-timing-function: step-end;
       stroke: black;
       stroke-dashoffset: 0;
       stroke-width: 128;
       }
       to {
       stroke: black;
       stroke-width: 1024;
       }
       }
       #make-me-a-hanzi-animation-1 {
         animation: keyframes1 0.979980s both;
         animation-delay: 1.024740s;
         animation-timing-function: linear;
       }
    @keyframes keyframes2 {
      from {
       stroke: black;
       stroke-dashoffset: 792;
       stroke-width: 128;
       }
       72% {
       animation-timing-function: step-end;
       stroke: black;
       stroke-dashoffset: 0;
       stroke-width: 128;
       }
       to {
       stroke: black;
       stroke-width: 1024;
       }
       }
       #make-me-a-hanzi-animation-2 {
         animation: keyframes2 0.894531s both;
         animation-delay: 2.004720s;
         animation-timing-function: linear;
       }
    @keyframes keyframes3 {
      from {
       stroke: black;
       stroke-dashoffset: 548;
       stroke-width: 128;
       }
       64% {
       animation-timing-function: step-end;
       stroke: black;
       stroke-dashoffset: 0;
       stroke-width: 128;
       }
       to {
       stroke: black;
       stroke-width: 1024;
       }
       }
       #make-me-a-hanzi-animation-3 {
         animation: keyframes3 0.695964s both;
         animation-delay: 2.899251s;
         animation-timing-function: linear;
       }
    @keyframes keyframes4 {
      from {
       stroke: black;
       stroke-dashoffset: 805;
       stroke-width: 128;
       }
       72% {
       animation-timing-function: step-end;
       stroke: black;
       stroke-dashoffset: 0;
       stroke-width: 128;
       }
       to {
       stroke: black;
       stroke-width: 1024;
       }
       }
       #make-me-a-hanzi-animation-4 {
         animation: keyframes4 0.905111s both;
         animation-delay: 3.595215s;
         animation-timing-function: linear;
       }
    @keyframes keyframes5 {
      from {
       stroke: black;
       stroke-dashoffset: 799;
       stroke-width: 128;
       }
       72% {
       animation-timing-function: step-end;
       stroke: black;
       stroke-dashoffset: 0;
       stroke-width: 128;
       }
       to {
       stroke: black;
       stroke-width: 1024;
       }
       }
       #make-me-a-hanzi-animation-5 {
         animation: keyframes5 0.900228s both;
         animation-delay: 4.500326s;
         animation-timing-function: linear;
       }
    @keyframes keyframes6 {
      from {
       stroke: black;
       stroke-dashoffset: 716;
       stroke-width: 128;
       }
       70% {
       animation-timing-function: step-end;
       stroke: black;
       stroke-dashoffset: 0;
       stroke-width: 128;
       }
       to {
       stroke: black;
       stroke-width: 1024;
       }
       }
       #make-me-a-hanzi-animation-6 {
         animation: keyframes6 0.832682s both;
         animation-delay: 5.400554s;
         animation-timing-function: linear;
       }
    @keyframes keyframes7 {
      from {
       stroke: black;
       stroke-dashoffset: 575;
       stroke-width: 128;
       }
       65% {
       animation-timing-function: step-end;
       stroke: black;
       stroke-dashoffset: 0;
       stroke-width: 128;
       }
       to {
       stroke: black;
       stroke-width: 1024;
       }
       }
       #make-me-a-hanzi-animation-7 {
         animation: keyframes7 0.717936s both;
         animation-delay: 6.233236s;
         animation-timing-function: linear;
       }
    @keyframes keyframes8 {
      from {
       stroke: black;
       stroke-dashoffset: 733;
       stroke-width: 128;
       }
       70% {
       animation-timing-function: step-end;
       stroke: black;
       stroke-dashoffset: 0;
       stroke-width: 128;
       }
       to {
       stroke: black;
       stroke-width: 1024;
       }
       }
       #make-me-a-hanzi-animation-8 {
         animation: keyframes8 0.846517s both;
         animation-delay: 6.951172s;
         animation-timing-function: linear;
       }
    @keyframes keyframes9 {
      from {
       stroke: black;
       stroke-dashoffset: 922;
       stroke-width: 128;
       }
       75% {
       animation-timing-function: step-end;
       stroke: black;
       stroke-dashoffset: 0;
       stroke-width: 128;
       }
       to {
       stroke: black;
       stroke-width: 1024;
       }
       }
       #make-me-a-hanzi-animation-9 {
         animation: keyframes9 1.000326s both;
         animation-delay: 7.797689s;
         animation-timing-function: linear;
       }
    @keyframes keyframes10 {
      from {
       stroke: black;
       stroke-dashoffset: 448;
       stroke-width: 128;
       }
       59% {
       animation-timing-function: step-end;
       stroke: black;
       stroke-dashoffset: 0;
       stroke-width: 128;
       }
       to {
       stroke: black;
       stroke-width: 1024;
       }
       }
       #make-me-a-hanzi-animation-10 {
         animation: keyframes10 0.614583s both;
         animation-delay: 8.798015s;
         animation-timing-function: linear;
       }
    @keyframes keyframes11 {
      from {
       stroke: black;
       stroke-dashoffset: 447;
       stroke-width: 128;
       }
       59% {
       animation-timing-function: step-end;
       stroke: black;
       stroke-dashoffset: 0;
       stroke-width: 128;
       }
       to {
       stroke: black;
       stroke-width: 1024;
       }
       }
       #make-me-a-hanzi-animation-11 {
         animation: keyframes11 0.613770s both;
         animation-delay: 9.412598s;
         animation-timing-function: linear;
       }
    @keyframes keyframes12 {
      from {
       stroke: black;
       stroke-dashoffset: 447;
       stroke-width: 128;
       }
       59% {
       animation-timing-function: step-end;
       stroke: black;
       stroke-dashoffset: 0;
       stroke-width: 128;
       }
       to {
       stroke: black;
       stroke-width: 1024;
       }
       }
       #make-me-a-hanzi-animation-12 {
         animation: keyframes12 0.613770s both;
         animation-delay: 10.026368s;
         animation-timing-function: linear;
       }
    @keyframes keyframes13 {
      from {
       stroke: black;
       stroke-dashoffset: 878;
       stroke-width: 128;
       }
       74% {
       animation-timing-function: step-end;
       stroke: black;
       stroke-dashoffset: 0;
       stroke-width: 128;
       }
       to {
       stroke: black;
       stroke-width: 1024;
       }
       }
       #make-me-a-hanzi-animation-13 {
         animation: keyframes13 0.964518s both;
         animation-delay: 10.640138s;
         animation-timing-function: linear;
       }
</style>
<path d="M 725.0 705.5 L 507.0 676.5 L 202.0 639.5 Q 169.0 636.5 186.0 618.5 Q 194.0 611.5 215.0 602.5 Q 243.0 594.5 252.0 593.5 Q 262.0 592.5 304.0 601.5 Q 382.0 620.5 544.0 636.5 Q 706.0 651.5 791.0 653.5 Q 876.0 655.5 886.0 660.5 Q 908.0 670.5 887.0 687.5 Q 855.0 714.5 824.0 718.5 Q 794.0 722.5 725.0 705.5 Z" fill="lightgray"></path> 
<path d="M 547.0 511.5 Q 575.0 554.5 582.0 561.5 L 593.0 571.5 Q 596.0 574.5 596.0 580.5 Q 596.0 585.5 589.0 593.5 Q 571.0 610.5 547.0 625.5 Q 536.0 630.5 532.0 629.5 L 527.0 626.5 Q 525.0 625.5 523.0 621.5 Q 521.0 616.5 520.0 615.5 L 516.0 595.5 Q 513.0 576.5 495.0 545.5 Q 423.0 417.5 283.0 291.5 Q 234.0 250.5 179.0 209.5 Q 125.0 168.5 123.0 163.5 Q 116.0 153.5 133.0 159.5 L 158.0 167.5 Q 178.0 172.5 246.0 211.5 Q 267.0 222.5 340.0 280.5 Q 421.0 348.5 471.0 409.5 L 519.0 473.5 L 547.0 511.5 Z" fill="lightgray"></path> 
<path d="M 572.0 115.5 L 580.0 371.5 L 586.0 423.5 Q 588.0 439.5 588.0 446.5 Q 588.0 467.5 570.0 485.5 Q 568.0 490.5 547.0 511.5 C 526.0 533.5 514.0 503.5 519.0 473.5 L 524.0 445.5 Q 526.0 404.5 526.0 383.5 L 525.0 277.5 Q 523.0 271.5 521.0 241.5 L 517.0 188.5 Q 515.0 155.5 511.0 137.5 L 496.0 75.5 Q 488.0 47.5 497.0 22.5 L 499.0 13.5 Q 501.0 7.5 513.0 -19.5 Q 526.0 -46.5 538.0 -45.5 Q 550.0 -44.5 557.0 -23.5 L 565.0 6.5 Q 568.0 29.5 569.0 57.5 L 572.0 115.5 Z" fill="lightgray"></path> 
<path d="M 637.0 354.5 Q 640.0 343.5 670.0 325.5 Q 700.0 306.5 776.0 233.5 Q 853.0 160.5 880.0 165.5 Q 890.0 166.5 895.0 180.5 Q 899.0 224.5 860.0 274.5 Q 835.0 304.5 770.0 330.5 Q 687.0 361.5 649.0 358.5 Q 636.0 358.5 637.0 354.5 Z" fill="lightgray"></path> 
<path d="M 1283.0 466.0 L 1298.0 488.0 L 1384.0 634.0 Q 1386.0 639.0 1394.0 654.0 Q 1403.0 668.0 1411.0 674.0 L 1423.0 686.0 Q 1426.0 699.0 1401.0 720.0 Q 1376.0 740.0 1355.0 747.0 Q 1345.0 748.0 1342.0 745.0 Q 1336.0 744.0 1336.0 737.0 L 1334.0 711.0 Q 1334.0 688.0 1325.0 662.0 Q 1316.0 635.0 1293.0 585.0 Q 1270.0 535.0 1265.0 526.0 L 1214.0 447.0 L 1164.0 379.0 L 1130.0 338.0 L 1098.0 303.0 L 1085.0 287.0 Q 1081.0 283.0 1084.0 280.0 Q 1087.0 276.0 1093.0 280.0 L 1111.0 290.0 Q 1134.0 299.0 1181.0 346.0 Q 1228.0 393.0 1245.0 417.0 Q 1263.0 440.0 1265.0 441.0 L 1283.0 466.0 Z" fill="lightgray"></path> 
<path d="M 1324.0 345.0 L 1328.0 397.0 L 1333.0 424.0 Q 1331.0 430.0 1308.0 451.0 L 1293.0 461.0 L 1283.0 466.0 C 1257.0 481.0 1255.0 469.0 1265.0 441.0 L 1274.0 416.0 Q 1274.0 410.0 1276.0 389.0 Q 1276.0 359.0 1277.0 348.0 L 1272.0 184.0 L 1263.0 97.0 Q 1263.0 80.0 1245.0 16.0 L 1240.0 -4.0 Q 1238.0 -18.0 1249.0 -42.0 L 1262.0 -69.0 Q 1272.0 -95.0 1280.0 -91.0 Q 1293.0 -85.0 1304.0 -64.0 L 1313.0 -33.0 Q 1314.0 -27.0 1315.0 47.0 L 1319.0 297.0 Q 1319.0 322.0 1324.0 345.0 Z" fill="lightgray"></path> 
<path d="M 1674.0 580.0 L 1728.0 584.0 L 1884.0 592.0 Q 1895.0 592.0 1899.0 598.0 Q 1903.0 603.0 1890.0 615.0 Q 1878.0 627.0 1859.0 636.0 Q 1840.0 644.0 1834.0 644.0 Q 1829.0 643.0 1814.0 644.0 L 1689.0 623.0 L 1630.0 616.0 L 1453.0 595.0 Q 1433.0 592.0 1431.0 590.0 Q 1429.0 588.0 1430.0 580.0 Q 1432.0 575.0 1448.0 569.0 L 1472.0 560.0 Q 1485.0 556.0 1499.0 555.0 L 1570.0 568.0 L 1620.0 574.0 L 1674.0 580.0 Z" fill="lightgray"></path> 
<path d="M 1646.0 475.0 L 1674.0 580.0 L 1689.0 623.0 L 1700.0 653.0 Q 1700.0 656.0 1704.0 670.0 Q 1709.0 683.0 1718.0 696.0 L 1723.0 705.0 Q 1730.0 713.0 1731.0 713.0 Q 1741.0 732.0 1707.0 749.0 L 1682.0 762.0 Q 1668.0 771.0 1651.0 769.0 Q 1639.0 767.0 1638.0 763.0 L 1645.0 733.0 L 1648.0 711.0 L 1645.0 682.0 Q 1644.0 673.0 1640.0 655.0 L 1630.0 616.0 L 1620.0 574.0 L 1597.0 466.0 C 1591.0 437.0 1638.0 446.0 1646.0 475.0 Z" fill="lightgray"></path> 
<path d="M 1534.0 123.0 L 1535.0 212.0 L 1534.0 229.0 L 1535.0 320.0 L 1536.0 348.0 L 1538.0 391.0 L 1542.0 426.0 C 1545.0 456.0 1546.0 457.0 1545.0 457.0 L 1477.0 481.0 Q 1457.0 481.0 1468.0 451.0 Q 1477.0 417.0 1477.0 400.0 L 1483.0 -2.0 C 1483.0 -32.0 1532.0 -23.0 1532.0 7.0 L 1533.0 91.0 L 1534.0 123.0 Z" fill="lightgray"></path> 
<path d="M 1735.0 229.0 L 1733.0 142.0 L 1728.0 114.0 L 1725.0 22.0 C 1724.0 -8.0 1774.0 -4.0 1776.0 26.0 L 1802.0 379.0 Q 1804.0 404.0 1813.0 421.0 Q 1823.0 438.0 1824.0 443.0 Q 1824.0 457.0 1793.0 478.0 Q 1762.0 498.0 1754.0 498.0 Q 1747.0 498.0 1744.0 497.0 L 1734.0 494.0 Q 1723.0 490.0 1703.0 486.0 L 1661.0 478.0 Q 1652.0 476.0 1646.0 475.0 L 1597.0 466.0 L 1545.0 457.0 C 1515.0 452.0 1512.0 422.0 1542.0 426.0 L 1698.0 445.0 L 1718.0 444.0 Q 1733.0 442.0 1738.0 435.0 Q 1743.0 428.0 1742.0 407.0 L 1740.0 361.0 L 1739.0 344.0 L 1737.0 255.0 L 1735.0 229.0 Z" fill="lightgray"></path> 
<path d="M 1636.0 365.0 L 1536.0 348.0 C 1506.0 343.0 1506.0 327.0 1535.0 320.0 L 1548.0 317.0 Q 1560.0 315.0 1592.0 319.0 L 1651.0 325.0 Q 1659.0 325.0 1674.0 329.0 L 1719.0 337.0 L 1739.0 344.0 C 1762.0 352.0 1762.0 352.0 1740.0 361.0 L 1716.0 371.0 Q 1709.0 379.0 1636.0 365.0 Z" fill="lightgray"></path> 
<path d="M 1535.0 212.0 L 1545.0 207.0 Q 1556.0 196.0 1641.0 213.0 L 1735.0 229.0 C 1765.0 234.0 1765.0 243.0 1737.0 255.0 L 1716.0 264.0 Q 1708.0 268.0 1689.0 266.0 L 1680.0 262.0 L 1593.0 240.0 Q 1576.0 235.0 1534.0 229.0 C 1508.0 225.0 1508.0 225.0 1535.0 212.0 Z" fill="lightgray"></path> 
<path d="M 1733.0 142.0 Q 1724.0 150.0 1704.0 152.0 L 1681.0 153.0 Q 1677.0 153.0 1650.0 144.0 Q 1610.0 129.0 1534.0 123.0 C 1504.0 121.0 1503.0 92.0 1533.0 91.0 L 1570.0 90.0 Q 1571.0 88.0 1591.0 92.0 Q 1611.0 95.0 1623.0 95.0 L 1638.0 97.0 L 1682.0 108.0 Q 1697.0 111.0 1728.0 114.0 C 1758.0 117.0 1758.0 125.0 1733.0 142.0 Z" fill="lightgray"></path> 
<path d="M 1725.0 22.0 L 1532.0 7.0 L 1483.0 -2.0 L 1355.0 -7.0 Q 1343.0 -7.0 1341.0 -13.0 Q 1339.0 -21.0 1342.0 -25.0 Q 1346.0 -34.0 1367.0 -44.0 L 1384.0 -54.0 Q 1401.0 -61.0 1409.0 -62.0 L 1564.0 -39.0 Q 1647.0 -28.0 1703.0 -28.0 L 1784.0 -27.0 Q 1856.0 -25.0 1879.0 -26.0 L 1967.0 -29.0 Q 1991.0 -29.0 1971.0 1.0 Q 1962.0 18.0 1937.0 29.0 Q 1913.0 39.0 1905.0 39.0 L 1776.0 26.0 L 1725.0 22.0 Z" fill="lightgray"></path> 
      <clipPath id="make-me-a-hanzi-clip-0">
      <path d="M 725.0 705.5 L 507.0 676.5 L 202.0 639.5 Q 169.0 636.5 186.0 618.5 Q 194.0 611.5 215.0 602.5 Q 243.0 594.5 252.0 593.5 Q 262.0 592.5 304.0 601.5 Q 382.0 620.5 544.0 636.5 Q 706.0 651.5 791.0 653.5 Q 876.0 655.5 886.0 660.5 Q 908.0 670.5 887.0 687.5 Q 855.0 714.5 824.0 718.5 Q 794.0 722.5 725.0 705.5 Z" fill="lightgray"></path>
      </clipPath>
      <path clip-path="url(#make-me-a-hanzi-clip-0)" d="M 194.0 628.5 L 216.0 621.5 L 273.0 621.5 L 502.0 654.5 L 785.0 685.5 L 824.0 686.5 L 884.0 674.5 " fill="none" id="make-me-a-hanzi-animation-0" stroke-dasharray="824 1648" stroke-linecap="round"></path>

      <clipPath id="make-me-a-hanzi-clip-1">
      <path d="M 547.0 511.5 Q 575.0 554.5 582.0 561.5 L 593.0 571.5 Q 596.0 574.5 596.0 580.5 Q 596.0 585.5 589.0 593.5 Q 571.0 610.5 547.0 625.5 Q 536.0 630.5 532.0 629.5 L 527.0 626.5 Q 525.0 625.5 523.0 621.5 Q 521.0 616.5 520.0 615.5 L 516.0 595.5 Q 513.0 576.5 495.0 545.5 Q 423.0 417.5 283.0 291.5 Q 234.0 250.5 179.0 209.5 Q 125.0 168.5 123.0 163.5 Q 116.0 153.5 133.0 159.5 L 158.0 167.5 Q 178.0 172.5 246.0 211.5 Q 267.0 222.5 340.0 280.5 Q 421.0 348.5 471.0 409.5 L 519.0 473.5 L 547.0 511.5 Z" fill="lightgray"></path>
      </clipPath>
      <path clip-path="url(#make-me-a-hanzi-clip-1)" d="M 537.0 616.5 L 550.0 579.5 L 546.0 570.5 L 500.0 496.5 L 420.0 391.5 L 318.0 290.5 L 263.0 246.5 L 128.0 162.5 " fill="none" id="make-me-a-hanzi-animation-1" stroke-dasharray="769 1538" stroke-linecap="round"></path>

      <clipPath id="make-me-a-hanzi-clip-2">
      <path d="M 572.0 115.5 L 580.0 371.5 L 586.0 423.5 Q 588.0 439.5 588.0 446.5 Q 588.0 467.5 570.0 485.5 Q 568.0 490.5 547.0 511.5 C 526.0 533.5 514.0 503.5 519.0 473.5 L 524.0 445.5 Q 526.0 404.5 526.0 383.5 L 525.0 277.5 Q 523.0 271.5 521.0 241.5 L 517.0 188.5 Q 515.0 155.5 511.0 137.5 L 496.0 75.5 Q 488.0 47.5 497.0 22.5 L 499.0 13.5 Q 501.0 7.5 513.0 -19.5 Q 526.0 -46.5 538.0 -45.5 Q 550.0 -44.5 557.0 -23.5 L 565.0 6.5 Q 568.0 29.5 569.0 57.5 L 572.0 115.5 Z" fill="lightgray"></path>
      </clipPath>
      <path clip-path="url(#make-me-a-hanzi-clip-2)" d="M 548.0 500.5 L 549.0 466.5 L 556.0 448.5 L 552.0 289.5 L 544.0 154.5 L 530.0 45.5 L 538.0 -32.5 " fill="none" id="make-me-a-hanzi-animation-2" stroke-dasharray="664 1328" stroke-linecap="round"></path>

      <clipPath id="make-me-a-hanzi-clip-3">
      <path d="M 637.0 354.5 Q 640.0 343.5 670.0 325.5 Q 700.0 306.5 776.0 233.5 Q 853.0 160.5 880.0 165.5 Q 890.0 166.5 895.0 180.5 Q 899.0 224.5 860.0 274.5 Q 835.0 304.5 770.0 330.5 Q 687.0 361.5 649.0 358.5 Q 636.0 358.5 637.0 354.5 Z" fill="lightgray"></path>
      </clipPath>
      <path clip-path="url(#make-me-a-hanzi-clip-3)" d="M 644.0 353.5 L 687.0 337.5 L 792.0 275.5 L 840.0 232.5 L 876.0 184.5 " fill="none" id="make-me-a-hanzi-animation-3" stroke-dasharray="420 840" stroke-linecap="round"></path>

      <clipPath id="make-me-a-hanzi-clip-4">
      <path d="M 1283.0 466.0 L 1298.0 488.0 L 1384.0 634.0 Q 1386.0 639.0 1394.0 654.0 Q 1403.0 668.0 1411.0 674.0 L 1423.0 686.0 Q 1426.0 699.0 1401.0 720.0 Q 1376.0 740.0 1355.0 747.0 Q 1345.0 748.0 1342.0 745.0 Q 1336.0 744.0 1336.0 737.0 L 1334.0 711.0 Q 1334.0 688.0 1325.0 662.0 Q 1316.0 635.0 1293.0 585.0 Q 1270.0 535.0 1265.0 526.0 L 1214.0 447.0 L 1164.0 379.0 L 1130.0 338.0 L 1098.0 303.0 L 1085.0 287.0 Q 1081.0 283.0 1084.0 280.0 Q 1087.0 276.0 1093.0 280.0 L 1111.0 290.0 Q 1134.0 299.0 1181.0 346.0 Q 1228.0 393.0 1245.0 417.0 Q 1263.0 440.0 1265.0 441.0 L 1283.0 466.0 Z" fill="lightgray"></path>
      </clipPath>
      <path clip-path="url(#make-me-a-hanzi-clip-4)" d="M 1351.0 732.0 L 1373.0 692.0 L 1281.0 506.0 L 1190.0 380.0 L 1150.0 336.0 L 1089.0 283.0 " fill="none" id="make-me-a-hanzi-animation-4" stroke-dasharray="677 1354" stroke-linecap="round"></path>

      <clipPath id="make-me-a-hanzi-clip-5">
      <path d="M 1324.0 345.0 L 1328.0 397.0 L 1333.0 424.0 Q 1331.0 430.0 1308.0 451.0 L 1293.0 461.0 L 1283.0 466.0 C 1257.0 481.0 1255.0 469.0 1265.0 441.0 L 1274.0 416.0 Q 1274.0 410.0 1276.0 389.0 Q 1276.0 359.0 1277.0 348.0 L 1272.0 184.0 L 1263.0 97.0 Q 1263.0 80.0 1245.0 16.0 L 1240.0 -4.0 Q 1238.0 -18.0 1249.0 -42.0 L 1262.0 -69.0 Q 1272.0 -95.0 1280.0 -91.0 Q 1293.0 -85.0 1304.0 -64.0 L 1313.0 -33.0 Q 1314.0 -27.0 1315.0 47.0 L 1319.0 297.0 Q 1319.0 322.0 1324.0 345.0 Z" fill="lightgray"></path>
      </clipPath>
      <path clip-path="url(#make-me-a-hanzi-clip-5)" d="M 1284.0 456.0 L 1303.0 417.0 L 1290.0 86.0 L 1277.0 -9.0 L 1279.0 -81.0 " fill="none" id="make-me-a-hanzi-animation-5" stroke-dasharray="671 1342" stroke-linecap="round"></path>

      <clipPath id="make-me-a-hanzi-clip-6">
      <path d="M 1674.0 580.0 L 1728.0 584.0 L 1884.0 592.0 Q 1895.0 592.0 1899.0 598.0 Q 1903.0 603.0 1890.0 615.0 Q 1878.0 627.0 1859.0 636.0 Q 1840.0 644.0 1834.0 644.0 Q 1829.0 643.0 1814.0 644.0 L 1689.0 623.0 L 1630.0 616.0 L 1453.0 595.0 Q 1433.0 592.0 1431.0 590.0 Q 1429.0 588.0 1430.0 580.0 Q 1432.0 575.0 1448.0 569.0 L 1472.0 560.0 Q 1485.0 556.0 1499.0 555.0 L 1570.0 568.0 L 1620.0 574.0 L 1674.0 580.0 Z" fill="lightgray"></path>
      </clipPath>
      <path clip-path="url(#make-me-a-hanzi-clip-6)" d="M 1437.0 584.0 L 1502.0 578.0 L 1819.0 617.0 L 1866.0 611.0 L 1892.0 601.0 " fill="none" id="make-me-a-hanzi-animation-6" stroke-dasharray="588 1176" stroke-linecap="round"></path>

      <clipPath id="make-me-a-hanzi-clip-7">
      <path d="M 1646.0 475.0 L 1674.0 580.0 L 1689.0 623.0 L 1700.0 653.0 Q 1700.0 656.0 1704.0 670.0 Q 1709.0 683.0 1718.0 696.0 L 1723.0 705.0 Q 1730.0 713.0 1731.0 713.0 Q 1741.0 732.0 1707.0 749.0 L 1682.0 762.0 Q 1668.0 771.0 1651.0 769.0 Q 1639.0 767.0 1638.0 763.0 L 1645.0 733.0 L 1648.0 711.0 L 1645.0 682.0 Q 1644.0 673.0 1640.0 655.0 L 1630.0 616.0 L 1620.0 574.0 L 1597.0 466.0 C 1591.0 437.0 1638.0 446.0 1646.0 475.0 Z" fill="lightgray"></path>
      </clipPath>
      <path clip-path="url(#make-me-a-hanzi-clip-7)" d="M 1648.0 758.0 L 1686.0 717.0 L 1627.0 495.0 L 1602.0 473.0 " fill="none" id="make-me-a-hanzi-animation-7" stroke-dasharray="447 894" stroke-linecap="round"></path>

      <clipPath id="make-me-a-hanzi-clip-8">
      <path d="M 1534.0 123.0 L 1535.0 212.0 L 1534.0 229.0 L 1535.0 320.0 L 1536.0 348.0 L 1538.0 391.0 L 1542.0 426.0 C 1545.0 456.0 1546.0 457.0 1545.0 457.0 L 1477.0 481.0 Q 1457.0 481.0 1468.0 451.0 Q 1477.0 417.0 1477.0 400.0 L 1483.0 -2.0 C 1483.0 -32.0 1532.0 -23.0 1532.0 7.0 L 1533.0 91.0 L 1534.0 123.0 Z" fill="lightgray"></path>
      </clipPath>
      <path clip-path="url(#make-me-a-hanzi-clip-8)" d="M 1479.0 464.0 L 1508.0 433.0 L 1509.0 412.0 L 1508.0 28.0 L 1488.0 6.0 " fill="none" id="make-me-a-hanzi-animation-8" stroke-dasharray="605 1210" stroke-linecap="round"></path>

      <clipPath id="make-me-a-hanzi-clip-9">
      <path d="M 1735.0 229.0 L 1733.0 142.0 L 1728.0 114.0 L 1725.0 22.0 C 1724.0 -8.0 1774.0 -4.0 1776.0 26.0 L 1802.0 379.0 Q 1804.0 404.0 1813.0 421.0 Q 1823.0 438.0 1824.0 443.0 Q 1824.0 457.0 1793.0 478.0 Q 1762.0 498.0 1754.0 498.0 Q 1747.0 498.0 1744.0 497.0 L 1734.0 494.0 Q 1723.0 490.0 1703.0 486.0 L 1661.0 478.0 Q 1652.0 476.0 1646.0 475.0 L 1597.0 466.0 L 1545.0 457.0 C 1515.0 452.0 1512.0 422.0 1542.0 426.0 L 1698.0 445.0 L 1718.0 444.0 Q 1733.0 442.0 1738.0 435.0 Q 1743.0 428.0 1742.0 407.0 L 1740.0 361.0 L 1739.0 344.0 L 1737.0 255.0 L 1735.0 229.0 Z" fill="lightgray"></path>
      </clipPath>
      <path clip-path="url(#make-me-a-hanzi-clip-9)" d="M 1549.0 433.0 L 1559.0 444.0 L 1726.0 467.0 L 1754.0 464.0 L 1778.0 441.0 L 1752.0 50.0 L 1731.0 29.0 " fill="none" id="make-me-a-hanzi-animation-9" stroke-dasharray="794 1588" stroke-linecap="round"></path>

      <clipPath id="make-me-a-hanzi-clip-10">
      <path d="M 1636.0 365.0 L 1536.0 348.0 C 1506.0 343.0 1506.0 327.0 1535.0 320.0 L 1548.0 317.0 Q 1560.0 315.0 1592.0 319.0 L 1651.0 325.0 Q 1659.0 325.0 1674.0 329.0 L 1719.0 337.0 L 1739.0 344.0 C 1762.0 352.0 1762.0 352.0 1740.0 361.0 L 1716.0 371.0 Q 1709.0 379.0 1636.0 365.0 Z" fill="lightgray"></path>
      </clipPath>
      <path clip-path="url(#make-me-a-hanzi-clip-10)" d="M 1543.0 327.0 L 1560.0 335.0 L 1687.0 353.0 L 1732.0 349.0 " fill="none" id="make-me-a-hanzi-animation-10" stroke-dasharray="320 640" stroke-linecap="round"></path>

      <clipPath id="make-me-a-hanzi-clip-11">
      <path d="M 1535.0 212.0 L 1545.0 207.0 Q 1556.0 196.0 1641.0 213.0 L 1735.0 229.0 C 1765.0 234.0 1765.0 243.0 1737.0 255.0 L 1716.0 264.0 Q 1708.0 268.0 1689.0 266.0 L 1680.0 262.0 L 1593.0 240.0 Q 1576.0 235.0 1534.0 229.0 C 1508.0 225.0 1508.0 225.0 1535.0 212.0 Z" fill="lightgray"></path>
      </clipPath>
      <path clip-path="url(#make-me-a-hanzi-clip-11)" d="M 1544.0 225.0 L 1554.0 218.0 L 1574.0 218.0 L 1698.0 245.0 L 1719.0 244.0 L 1726.0 236.0 " fill="none" id="make-me-a-hanzi-animation-11" stroke-dasharray="319 638" stroke-linecap="round"></path>

      <clipPath id="make-me-a-hanzi-clip-12">
      <path d="M 1733.0 142.0 Q 1724.0 150.0 1704.0 152.0 L 1681.0 153.0 Q 1677.0 153.0 1650.0 144.0 Q 1610.0 129.0 1534.0 123.0 C 1504.0 121.0 1503.0 92.0 1533.0 91.0 L 1570.0 90.0 Q 1571.0 88.0 1591.0 92.0 Q 1611.0 95.0 1623.0 95.0 L 1638.0 97.0 L 1682.0 108.0 Q 1697.0 111.0 1728.0 114.0 C 1758.0 117.0 1758.0 125.0 1733.0 142.0 Z" fill="lightgray"></path>
      </clipPath>
      <path clip-path="url(#make-me-a-hanzi-clip-12)" d="M 1539.0 96.0 L 1549.0 107.0 L 1618.0 114.0 L 1722.0 137.0 " fill="none" id="make-me-a-hanzi-animation-12" stroke-dasharray="319 638" stroke-linecap="round"></path>

      <clipPath id="make-me-a-hanzi-clip-13">
      <path d="M 1725.0 22.0 L 1532.0 7.0 L 1483.0 -2.0 L 1355.0 -7.0 Q 1343.0 -7.0 1341.0 -13.0 Q 1339.0 -21.0 1342.0 -25.0 Q 1346.0 -34.0 1367.0 -44.0 L 1384.0 -54.0 Q 1401.0 -61.0 1409.0 -62.0 L 1564.0 -39.0 Q 1647.0 -28.0 1703.0 -28.0 L 1784.0 -27.0 Q 1856.0 -25.0 1879.0 -26.0 L 1967.0 -29.0 Q 1991.0 -29.0 1971.0 1.0 Q 1962.0 18.0 1937.0 29.0 Q 1913.0 39.0 1905.0 39.0 L 1776.0 26.0 L 1725.0 22.0 Z" fill="lightgray"></path>
      </clipPath>
      <path clip-path="url(#make-me-a-hanzi-clip-13)" d="M 1352.0 -18.0 L 1411.0 -33.0 L 1615.0 -9.0 L 1901.0 6.0 L 1967.0 -14.0 " fill="none" id="make-me-a-hanzi-animation-13" stroke-dasharray="750 1500" stroke-linecap="round"></path>

</g>
</svg>
