<svg version="1.1" viewBox="0 0 2048 1024" xmlns="http://www.w3.org/2000/svg">
  <g stroke="lightgray" stroke-dasharray="1,1" stroke-width="1" transform="scale(4, 4)">
    <line x1="0" y1="0" x2="256" y2="256"></line>
    <line x1="256" y1="0" x2="0" y2="256"></line>
    <line x1="128" y1="0" x2="128" y2="256"></line>
    <line x1="0" y1="128" x2="256" y2="128"></line>
    <line x1="256" y1="0" x2="512" y2="256"></line>
    <line x1="512" y1="0" x2="256" y2="256"></line>
    <line x1="384" y1="0" x2="384" y2="256"></line>
    <line x1="256" y1="128" x2="512" y2="128"></line>
  </g>
<g transform="scale(1, -1) translate(0, -850)">
   <style type="text/css">
    @keyframes keyframes0 {
      from {
       stroke: black;
       stroke-dashoffset: 555;
       stroke-width: 128;
       }
       64% {
       animation-timing-function: step-end;
       stroke: black;
       stroke-dashoffset: 0;
       stroke-width: 128;
       }
       to {
       stroke: black;
       stroke-width: 1024;
       }
       }
       #make-me-a-hanzi-animation-0 {
         animation: keyframes0 0.701660s both;
         animation-delay: 0.000000s;
         animation-timing-function: linear;
       }
    @keyframes keyframes1 {
      from {
       stroke: black;
       stroke-dashoffset: 954;
       stroke-width: 128;
       }
       76% {
       animation-timing-function: step-end;
       stroke: black;
       stroke-dashoffset: 0;
       stroke-width: 128;
       }
       to {
       stroke: black;
       stroke-width: 1024;
       }
       }
       #make-me-a-hanzi-animation-1 {
         animation: keyframes1 1.026367s both;
         animation-delay: 0.701660s;
         animation-timing-function: linear;
       }
    @keyframes keyframes2 {
      from {
       stroke: black;
       stroke-dashoffset: 698;
       stroke-width: 128;
       }
       69% {
       animation-timing-function: step-end;
       stroke: black;
       stroke-dashoffset: 0;
       stroke-width: 128;
       }
       to {
       stroke: black;
       stroke-width: 1024;
       }
       }
       #make-me-a-hanzi-animation-2 {
         animation: keyframes2 0.818034s both;
         animation-delay: 1.728027s;
         animation-timing-function: linear;
       }
    @keyframes keyframes3 {
      from {
       stroke: black;
       stroke-dashoffset: 1137;
       stroke-width: 128;
       }
       79% {
       animation-timing-function: step-end;
       stroke: black;
       stroke-dashoffset: 0;
       stroke-width: 128;
       }
       to {
       stroke: black;
       stroke-width: 1024;
       }
       }
       #make-me-a-hanzi-animation-3 {
         animation: keyframes3 1.175293s both;
         animation-delay: 2.546061s;
         animation-timing-function: linear;
       }
    @keyframes keyframes4 {
      from {
       stroke: black;
       stroke-dashoffset: 890;
       stroke-width: 128;
       }
       74% {
       animation-timing-function: step-end;
       stroke: black;
       stroke-dashoffset: 0;
       stroke-width: 128;
       }
       to {
       stroke: black;
       stroke-width: 1024;
       }
       }
       #make-me-a-hanzi-animation-4 {
         animation: keyframes4 0.974284s both;
         animation-delay: 3.721354s;
         animation-timing-function: linear;
       }
    @keyframes keyframes5 {
      from {
       stroke: black;
       stroke-dashoffset: 518;
       stroke-width: 128;
       }
       63% {
       animation-timing-function: step-end;
       stroke: black;
       stroke-dashoffset: 0;
       stroke-width: 128;
       }
       to {
       stroke: black;
       stroke-width: 1024;
       }
       }
       #make-me-a-hanzi-animation-5 {
         animation: keyframes5 0.671549s both;
         animation-delay: 4.695638s;
         animation-timing-function: linear;
       }
    @keyframes keyframes6 {
      from {
       stroke: black;
       stroke-dashoffset: 535;
       stroke-width: 128;
       }
       64% {
       animation-timing-function: step-end;
       stroke: black;
       stroke-dashoffset: 0;
       stroke-width: 128;
       }
       to {
       stroke: black;
       stroke-width: 1024;
       }
       }
       #make-me-a-hanzi-animation-6 {
         animation: keyframes6 0.685384s both;
         animation-delay: 5.367188s;
         animation-timing-function: linear;
       }
    @keyframes keyframes7 {
      from {
       stroke: black;
       stroke-dashoffset: 739;
       stroke-width: 128;
       }
       71% {
       animation-timing-function: step-end;
       stroke: black;
       stroke-dashoffset: 0;
       stroke-width: 128;
       }
       to {
       stroke: black;
       stroke-width: 1024;
       }
       }
       #make-me-a-hanzi-animation-7 {
         animation: keyframes7 0.851400s both;
         animation-delay: 6.052572s;
         animation-timing-function: linear;
       }
    @keyframes keyframes8 {
      from {
       stroke: black;
       stroke-dashoffset: 707;
       stroke-width: 128;
       }
       70% {
       animation-timing-function: step-end;
       stroke: black;
       stroke-dashoffset: 0;
       stroke-width: 128;
       }
       to {
       stroke: black;
       stroke-width: 1024;
       }
       }
       #make-me-a-hanzi-animation-8 {
         animation: keyframes8 0.825358s both;
         animation-delay: 6.903971s;
         animation-timing-function: linear;
       }
    @keyframes keyframes9 {
      from {
       stroke: black;
       stroke-dashoffset: 485;
       stroke-width: 128;
       }
       61% {
       animation-timing-function: step-end;
       stroke: black;
       stroke-dashoffset: 0;
       stroke-width: 128;
       }
       to {
       stroke: black;
       stroke-width: 1024;
       }
       }
       #make-me-a-hanzi-animation-9 {
         animation: keyframes9 0.644694s both;
         animation-delay: 7.729329s;
         animation-timing-function: linear;
       }
    @keyframes keyframes10 {
      from {
       stroke: black;
       stroke-dashoffset: 1523;
       stroke-width: 128;
       }
       83% {
       animation-timing-function: step-end;
       stroke: black;
       stroke-dashoffset: 0;
       stroke-width: 128;
       }
       to {
       stroke: black;
       stroke-width: 1024;
       }
       }
       #make-me-a-hanzi-animation-10 {
         animation: keyframes10 1.489421s both;
         animation-delay: 8.374023s;
         animation-timing-function: linear;
       }
</style>
<path d="M 271 431 L 248 440 Q 246 442 229 446 Q 212 450 201 450 Q 188 446 186 439 Q 185 431 192 424 L 209 406 L 217 388 Q 222 376 226 355 L 244 220 Q 248 171 264 160 Q 276 148 286 158 Q 289 161 297 180 L 297 225 L 279 388 C 276 418 274 430 271 431 Z" fill="lightgray"></path> 
<path d="M 728 490 L 672 478 L 583 466 L 508 458 L 448 453 L 271 431 C 241 427 250 379 279 388 L 304 396 Q 312 398 374 409 Q 436 420 447 421 L 508 428 L 643 440 Q 699 444 709 434 Q 719 423 709 388 L 671 260 C 662 231 713 215 726 242 L 773 338 Q 778 350 792 371 Q 806 392 808 394 L 827 409 Q 839 422 830 432 Q 822 441 819 443 L 804 455 Q 790 471 780 477 Q 770 482 752 487 Q 734 491 728 490 Z" fill="lightgray"></path> 
<path d="M 297 180 L 444 192 L 502 196 L 739 212 Q 747 215 747 221 Q 748 227 737 234 L 726 242 C 702 260 697 263 671 260 L 567 249 Q 566 249 505 242 L 444 236 L 297 225 C 267 223 267 178 297 180 Z" fill="lightgray"></path> 
<path d="M 508 458 L 511 566 Q 511 577 518 602 L 531 640 Q 530 650 509 664 L 489 674 Q 464 684 450 684 Q 436 684 433 680 Q 430 677 430 669 L 438 650 Q 445 633 446 625 L 451 546 L 448 453 L 447 421 L 444 236 L 444 192 L 441 -12 L 445 -156 L 449 -184 Q 452 -196 458 -196 Q 460 -199 468 -183 Q 477 -168 479 -157 L 486 -120 Q 490 -98 492 -82 L 499 38 L 502 196 L 505 242 L 508 428 L 508 458 Z" fill="lightgray"></path> 
<path d="M 1735 594 Q 1834 601 1849 610 Q 1857 616 1857 623 Q 1857 625 1856 627 Q 1849 641 1821 653 Q 1801 661 1780 661 Q 1768 661 1756 658 Q 1641 634 1521 625 Q 1436 619 1344 619 Q 1289 619 1232 621 Q 1225 622 1219 622 Q 1207 622 1207 616 Q 1207 611 1218 600 Q 1228 589 1243 583 L 1319 570 L 1735 594 Z" fill="lightgray"></path> 
<path d="M 1505 419 Q 1507 422 1508 423 Q 1526 458 1542 485 Q 1545 490 1545 494 Q 1545 502 1536 508 Q 1519 521 1500 528 Q 1491 531 1483 531 Q 1479 531 1474 530 Q 1467 528 1467 520 Q 1467 518 1468 515 Q 1472 500 1472 486 Q 1472 473 1469 461 Q 1464 436 1449 405 Q 1434 373 1413 346 Q 1394 323 1387 311 Q 1384 307 1384 305 Q 1384 301 1389 301 Q 1391 301 1394 302 Q 1407 305 1425 320 Q 1467 358 1494 400 L 1505 419 Z" fill="lightgray"></path> 
<path d="M 1629 390 Q 1683 400 1740 407 Q 1775 413 1781 417 Q 1786 422 1786 427 Q 1786 430 1785 432 Q 1778 445 1751 452 Q 1739 455 1727 455 Q 1709 455 1693 449 Q 1651 437 1609 430 Q 1560 422 1506 419 L 1505 419 C 1475 417 1469 417 1494 400 Q 1495 399 1496 399 Q 1510 387 1531 383 Q 1542 382 1555 382 L 1569 382 L 1629 390 Z" fill="lightgray"></path> 
<path d="M 1378 264 Q 1367 263 1367 258 Q 1367 254 1374 247 Q 1387 233 1402 229 Q 1412 227 1422 227 Q 1429 227 1435 228 Q 1495 241 1564 248 L 1619 255 Q 1686 258 1756 258 Q 1823 257 1839 257 Q 1858 258 1861 265 Q 1862 268 1862 270 Q 1862 278 1851 287 Q 1825 308 1807 314 Q 1797 317 1786 317 Q 1779 317 1772 316 Q 1715 307 1627 295 L 1572 287 Q 1481 274 1378 264 Z" fill="lightgray"></path> 
<path d="M 1564 248 Q 1559 232 1555 214 Q 1539 168 1514 131 Q 1491 101 1454 71 Q 1444 62 1432 55 Q 1417 45 1402 36 Q 1396 31 1396 28 Q 1396 26 1402 25 L 1407 25 Q 1421 25 1447 35 Q 1490 53 1521 78 Q 1556 106 1577 139 Q 1588 157 1594 170 Q 1610 209 1619 255 L 1627 295 Q 1629 302 1630 308 Q 1635 334 1647 355 Q 1650 361 1650 367 Q 1650 375 1642 381 Q 1635 387 1629 390 C 1604 407 1559 410 1569 382 Q 1576 367 1576 349 Q 1575 332 1575 316 Q 1573 302 1572 287 L 1564 248 Z" fill="lightgray"></path> 
<path d="M 1776 43 Q 1793 24 1805 23 L 1808 23 Q 1815 23 1821 30 Q 1826 36 1826 48 Q 1826 62 1819 83 Q 1812 105 1797 118 Q 1775 137 1726 161 Q 1670 188 1640 200 L 1637 200 Q 1630 200 1630 193 Q 1631 181 1640 172 Q 1703 118 1776 43 Z" fill="lightgray"></path> 
<path d="M 1243 583 L 1248 573 Q 1266 533 1266 406 Q 1266 381 1265 354 Q 1259 148 1255 -5 Q 1255 -31 1270 -55 Q 1286 -79 1323 -89 Q 1398 -113 1553 -113 Q 1585 -113 1621 -112 Q 1801 -107 1880 -86 Q 1911 -77 1915 -73 Q 1918 -67 1918 -61 Q 1916 -51 1909 -45 Q 1886 -25 1850 -21 Q 1835 -18 1821 -18 Q 1787 -18 1761 -34 Q 1732 -53 1588 -59 Q 1541 -61 1502 -61 Q 1401 -61 1353 -48 Q 1326 -40 1317 -30 Q 1306 -18 1306 6 Q 1306 12 1307 18 Q 1304 124 1304 212 Q 1304 431 1325 537 Q 1328 546 1328 553 Q 1328 562 1323 568 Q 1322 570 1319 570 C 1314 600 1233 611 1243 583 Z" fill="lightgray"></path> 
      <clipPath id="make-me-a-hanzi-clip-0">
      <path d="M 271 431 L 248 440 Q 246 442 229 446 Q 212 450 201 450 Q 188 446 186 439 Q 185 431 192 424 L 209 406 L 217 388 Q 222 376 226 355 L 244 220 Q 248 171 264 160 Q 276 148 286 158 Q 289 161 297 180 L 297 225 L 279 388 C 276 418 274 430 271 431 Z" fill="lightgray"></path>
      </clipPath>
      <path clip-path="url(#make-me-a-hanzi-clip-0)" d="M 196 436 L 229 421 L 245 404 L 276 167 " fill="none" id="make-me-a-hanzi-animation-0" stroke-dasharray="427 854" stroke-linecap="round"></path>

      <clipPath id="make-me-a-hanzi-clip-1">
      <path d="M 728 490 L 672 478 L 583 466 L 508 458 L 448 453 L 271 431 C 241 427 250 379 279 388 L 304 396 Q 312 398 374 409 Q 436 420 447 421 L 508 428 L 643 440 Q 699 444 709 434 Q 719 423 709 388 L 671 260 C 662 231 713 215 726 242 L 773 338 Q 778 350 792 371 Q 806 392 808 394 L 827 409 Q 839 422 830 432 Q 822 441 819 443 L 804 455 Q 790 471 780 477 Q 770 482 752 487 Q 734 491 728 490 Z" fill="lightgray"></path>
      </clipPath>
      <path clip-path="url(#make-me-a-hanzi-clip-1)" d="M 283 396 L 295 415 L 398 431 L 667 460 L 732 458 L 757 438 L 765 421 L 710 280 L 680 265 " fill="none" id="make-me-a-hanzi-animation-1" stroke-dasharray="826 1652" stroke-linecap="round"></path>

      <clipPath id="make-me-a-hanzi-clip-2">
      <path d="M 297 180 L 444 192 L 502 196 L 739 212 Q 747 215 747 221 Q 748 227 737 234 L 726 242 C 702 260 697 263 671 260 L 567 249 Q 566 249 505 242 L 444 236 L 297 225 C 267 223 267 178 297 180 Z" fill="lightgray"></path>
      </clipPath>
      <path clip-path="url(#make-me-a-hanzi-clip-2)" d="M 304 188 L 321 205 L 670 234 L 737 221 " fill="none" id="make-me-a-hanzi-animation-2" stroke-dasharray="570 1140" stroke-linecap="round"></path>

      <clipPath id="make-me-a-hanzi-clip-3">
      <path d="M 508 458 L 511 566 Q 511 577 518 602 L 531 640 Q 530 650 509 664 L 489 674 Q 464 684 450 684 Q 436 684 433 680 Q 430 677 430 669 L 438 650 Q 445 633 446 625 L 451 546 L 448 453 L 447 421 L 444 236 L 444 192 L 441 -12 L 445 -156 L 449 -184 Q 452 -196 458 -196 Q 460 -199 468 -183 Q 477 -168 479 -157 L 486 -120 Q 490 -98 492 -82 L 499 38 L 502 196 L 505 242 L 508 428 L 508 458 Z" fill="lightgray"></path>
      </clipPath>
      <path clip-path="url(#make-me-a-hanzi-clip-3)" d="M 441 672 L 486 631 L 480 572 L 468 -84 L 456 -188 " fill="none" id="make-me-a-hanzi-animation-3" stroke-dasharray="1009 2018" stroke-linecap="round"></path>

      <clipPath id="make-me-a-hanzi-clip-4">
      <path d="M 1735 594 Q 1834 601 1849 610 Q 1857 616 1857 623 Q 1857 625 1856 627 Q 1849 641 1821 653 Q 1801 661 1780 661 Q 1768 661 1756 658 Q 1641 634 1521 625 Q 1436 619 1344 619 Q 1289 619 1232 621 Q 1225 622 1219 622 Q 1207 622 1207 616 Q 1207 611 1218 600 Q 1228 589 1243 583 L 1319 570 L 1735 594 Z" fill="lightgray"></path>
      </clipPath>
      <path clip-path="url(#make-me-a-hanzi-clip-4)" d="M 1215 615 L 1244 602 L 1315 594 L 1572 606 L 1776 629 L 1844 622 " fill="none" id="make-me-a-hanzi-animation-4" stroke-dasharray="762 1524" stroke-linecap="round"></path>

      <clipPath id="make-me-a-hanzi-clip-5">
      <path d="M 1505 419 Q 1507 422 1508 423 Q 1526 458 1542 485 Q 1545 490 1545 494 Q 1545 502 1536 508 Q 1519 521 1500 528 Q 1491 531 1483 531 Q 1479 531 1474 530 Q 1467 528 1467 520 Q 1467 518 1468 515 Q 1472 500 1472 486 Q 1472 473 1469 461 Q 1464 436 1449 405 Q 1434 373 1413 346 Q 1394 323 1387 311 Q 1384 307 1384 305 Q 1384 301 1389 301 Q 1391 301 1394 302 Q 1407 305 1425 320 Q 1467 358 1494 400 L 1505 419 Z" fill="lightgray"></path>
      </clipPath>
      <path clip-path="url(#make-me-a-hanzi-clip-5)" d="M 1478 520 L 1505 488 L 1496 455 L 1451 370 L 1413 324 L 1389 306 " fill="none" id="make-me-a-hanzi-animation-5" stroke-dasharray="390 780" stroke-linecap="round"></path>

      <clipPath id="make-me-a-hanzi-clip-6">
      <path d="M 1629 390 Q 1683 400 1740 407 Q 1775 413 1781 417 Q 1786 422 1786 427 Q 1786 430 1785 432 Q 1778 445 1751 452 Q 1739 455 1727 455 Q 1709 455 1693 449 Q 1651 437 1609 430 Q 1560 422 1506 419 L 1505 419 C 1475 417 1469 417 1494 400 Q 1495 399 1496 399 Q 1510 387 1531 383 Q 1542 382 1555 382 L 1569 382 L 1629 390 Z" fill="lightgray"></path>
      </clipPath>
      <path clip-path="url(#make-me-a-hanzi-clip-6)" d="M 1497 404 L 1574 403 L 1722 430 L 1773 427 " fill="none" id="make-me-a-hanzi-animation-6" stroke-dasharray="407 814" stroke-linecap="round"></path>

      <clipPath id="make-me-a-hanzi-clip-7">
      <path d="M 1378 264 Q 1367 263 1367 258 Q 1367 254 1374 247 Q 1387 233 1402 229 Q 1412 227 1422 227 Q 1429 227 1435 228 Q 1495 241 1564 248 L 1619 255 Q 1686 258 1756 258 Q 1823 257 1839 257 Q 1858 258 1861 265 Q 1862 268 1862 270 Q 1862 278 1851 287 Q 1825 308 1807 314 Q 1797 317 1786 317 Q 1779 317 1772 316 Q 1715 307 1627 295 L 1572 287 Q 1481 274 1378 264 Z" fill="lightgray"></path>
      </clipPath>
      <path clip-path="url(#make-me-a-hanzi-clip-7)" d="M 1375 256 L 1427 248 L 1638 277 L 1771 287 L 1801 286 L 1852 269 " fill="none" id="make-me-a-hanzi-animation-7" stroke-dasharray="611 1222" stroke-linecap="round"></path>

      <clipPath id="make-me-a-hanzi-clip-8">
      <path d="M 1564 248 Q 1559 232 1555 214 Q 1539 168 1514 131 Q 1491 101 1454 71 Q 1444 62 1432 55 Q 1417 45 1402 36 Q 1396 31 1396 28 Q 1396 26 1402 25 L 1407 25 Q 1421 25 1447 35 Q 1490 53 1521 78 Q 1556 106 1577 139 Q 1588 157 1594 170 Q 1610 209 1619 255 L 1627 295 Q 1629 302 1630 308 Q 1635 334 1647 355 Q 1650 361 1650 367 Q 1650 375 1642 381 Q 1635 387 1629 390 C 1604 407 1559 410 1569 382 Q 1576 367 1576 349 Q 1575 332 1575 316 Q 1573 302 1572 287 L 1564 248 Z" fill="lightgray"></path>
      </clipPath>
      <path clip-path="url(#make-me-a-hanzi-clip-8)" d="M 1577 379 L 1609 351 L 1582 211 L 1559 157 L 1532 117 L 1494 81 L 1449 49 L 1401 31 " fill="none" id="make-me-a-hanzi-animation-8" stroke-dasharray="579 1158" stroke-linecap="round"></path>

      <clipPath id="make-me-a-hanzi-clip-9">
      <path d="M 1776 43 Q 1793 24 1805 23 L 1808 23 Q 1815 23 1821 30 Q 1826 36 1826 48 Q 1826 62 1819 83 Q 1812 105 1797 118 Q 1775 137 1726 161 Q 1670 188 1640 200 L 1637 200 Q 1630 200 1630 193 Q 1631 181 1640 172 Q 1703 118 1776 43 Z" fill="lightgray"></path>
      </clipPath>
      <path clip-path="url(#make-me-a-hanzi-clip-9)" d="M 1639 192 L 1772 95 L 1807 41 " fill="none" id="make-me-a-hanzi-animation-9" stroke-dasharray="357 714" stroke-linecap="round"></path>

      <clipPath id="make-me-a-hanzi-clip-10">
      <path d="M 1243 583 L 1248 573 Q 1266 533 1266 406 Q 1266 381 1265 354 Q 1259 148 1255 -5 Q 1255 -31 1270 -55 Q 1286 -79 1323 -89 Q 1398 -113 1553 -113 Q 1585 -113 1621 -112 Q 1801 -107 1880 -86 Q 1911 -77 1915 -73 Q 1918 -67 1918 -61 Q 1916 -51 1909 -45 Q 1886 -25 1850 -21 Q 1835 -18 1821 -18 Q 1787 -18 1761 -34 Q 1732 -53 1588 -59 Q 1541 -61 1502 -61 Q 1401 -61 1353 -48 Q 1326 -40 1317 -30 Q 1306 -18 1306 6 Q 1306 12 1307 18 Q 1304 124 1304 212 Q 1304 431 1325 537 Q 1328 546 1328 553 Q 1328 562 1323 568 Q 1322 570 1319 570 C 1314 600 1233 611 1243 583 Z" fill="lightgray"></path>
      </clipPath>
      <path clip-path="url(#make-me-a-hanzi-clip-10)" d="M 1250 580 L 1292 538 L 1280 1 L 1285 -28 L 1301 -51 L 1367 -76 L 1486 -87 L 1707 -79 L 1826 -57 L 1890 -58 L 1906 -64 " fill="none" id="make-me-a-hanzi-animation-10" stroke-dasharray="1395 2790" stroke-linecap="round"></path>

</g>
</svg>
