<svg version="1.1" viewBox="0 0 3072 1024" xmlns="http://www.w3.org/2000/svg">
  <g stroke="lightgray" stroke-dasharray="1,1" stroke-width="1" transform="scale(4, 4)">
    <line x1="0" y1="0" x2="256" y2="256"></line>
    <line x1="256" y1="0" x2="0" y2="256"></line>
    <line x1="128" y1="0" x2="128" y2="256"></line>
    <line x1="0" y1="128" x2="256" y2="128"></line>
    <line x1="256" y1="0" x2="512" y2="256"></line>
    <line x1="512" y1="0" x2="256" y2="256"></line>
    <line x1="384" y1="0" x2="384" y2="256"></line>
    <line x1="256" y1="128" x2="512" y2="128"></line>
    <line x1="512" y1="0" x2="768" y2="256"></line>
    <line x1="768" y1="0" x2="512" y2="256"></line>
    <line x1="640" y1="0" x2="640" y2="256"></line>
    <line x1="512" y1="128" x2="768" y2="128"></line>
  </g>
<g transform="scale(1, -1) translate(0, -850)">
   <style type="text/css">
    @keyframes keyframes0 {
      from {
       stroke: black;
       stroke-dashoffset: 415;
       stroke-width: 128;
       }
       57% {
       animation-timing-function: step-end;
       stroke: black;
       stroke-dashoffset: 0;
       stroke-width: 128;
       }
       to {
       stroke: black;
       stroke-width: 1024;
       }
       }
       #make-me-a-hanzi-animation-0 {
         animation: keyframes0 0.587728s both;
         animation-delay: 0.000000s;
         animation-timing-function: linear;
       }
    @keyframes keyframes1 {
      from {
       stroke: black;
       stroke-dashoffset: 823;
       stroke-width: 128;
       }
       73% {
       animation-timing-function: step-end;
       stroke: black;
       stroke-dashoffset: 0;
       stroke-width: 128;
       }
       to {
       stroke: black;
       stroke-width: 1024;
       }
       }
       #make-me-a-hanzi-animation-1 {
         animation: keyframes1 0.919759s both;
         animation-delay: 0.587728s;
         animation-timing-function: linear;
       }
    @keyframes keyframes2 {
      from {
       stroke: black;
       stroke-dashoffset: 749;
       stroke-width: 128;
       }
       71% {
       animation-timing-function: step-end;
       stroke: black;
       stroke-dashoffset: 0;
       stroke-width: 128;
       }
       to {
       stroke: black;
       stroke-width: 1024;
       }
       }
       #make-me-a-hanzi-animation-2 {
         animation: keyframes2 0.859538s both;
         animation-delay: 1.507487s;
         animation-timing-function: linear;
       }
    @keyframes keyframes3 {
      from {
       stroke: black;
       stroke-dashoffset: 689;
       stroke-width: 128;
       }
       69% {
       animation-timing-function: step-end;
       stroke: black;
       stroke-dashoffset: 0;
       stroke-width: 128;
       }
       to {
       stroke: black;
       stroke-width: 1024;
       }
       }
       #make-me-a-hanzi-animation-3 {
         animation: keyframes3 0.810710s both;
         animation-delay: 2.367025s;
         animation-timing-function: linear;
       }
    @keyframes keyframes4 {
      from {
       stroke: black;
       stroke-dashoffset: 1035;
       stroke-width: 128;
       }
       77% {
       animation-timing-function: step-end;
       stroke: black;
       stroke-dashoffset: 0;
       stroke-width: 128;
       }
       to {
       stroke: black;
       stroke-width: 1024;
       }
       }
       #make-me-a-hanzi-animation-4 {
         animation: keyframes4 1.092285s both;
         animation-delay: 3.177734s;
         animation-timing-function: linear;
       }
    @keyframes keyframes5 {
      from {
       stroke: black;
       stroke-dashoffset: 487;
       stroke-width: 128;
       }
       61% {
       animation-timing-function: step-end;
       stroke: black;
       stroke-dashoffset: 0;
       stroke-width: 128;
       }
       to {
       stroke: black;
       stroke-width: 1024;
       }
       }
       #make-me-a-hanzi-animation-5 {
         animation: keyframes5 0.646322s both;
         animation-delay: 4.270020s;
         animation-timing-function: linear;
       }
    @keyframes keyframes6 {
      from {
       stroke: black;
       stroke-dashoffset: 691;
       stroke-width: 128;
       }
       69% {
       animation-timing-function: step-end;
       stroke: black;
       stroke-dashoffset: 0;
       stroke-width: 128;
       }
       to {
       stroke: black;
       stroke-width: 1024;
       }
       }
       #make-me-a-hanzi-animation-6 {
         animation: keyframes6 0.812337s both;
         animation-delay: 4.916341s;
         animation-timing-function: linear;
       }
    @keyframes keyframes7 {
      from {
       stroke: black;
       stroke-dashoffset: 361;
       stroke-width: 128;
       }
       54% {
       animation-timing-function: step-end;
       stroke: black;
       stroke-dashoffset: 0;
       stroke-width: 128;
       }
       to {
       stroke: black;
       stroke-width: 1024;
       }
       }
       #make-me-a-hanzi-animation-7 {
         animation: keyframes7 0.543783s both;
         animation-delay: 5.728678s;
         animation-timing-function: linear;
       }
    @keyframes keyframes8 {
      from {
       stroke: black;
       stroke-dashoffset: 359;
       stroke-width: 128;
       }
       54% {
       animation-timing-function: step-end;
       stroke: black;
       stroke-dashoffset: 0;
       stroke-width: 128;
       }
       to {
       stroke: black;
       stroke-width: 1024;
       }
       }
       #make-me-a-hanzi-animation-8 {
         animation: keyframes8 0.542155s both;
         animation-delay: 6.272461s;
         animation-timing-function: linear;
       }
    @keyframes keyframes9 {
      from {
       stroke: black;
       stroke-dashoffset: 656;
       stroke-width: 128;
       }
       68% {
       animation-timing-function: step-end;
       stroke: black;
       stroke-dashoffset: 0;
       stroke-width: 128;
       }
       to {
       stroke: black;
       stroke-width: 1024;
       }
       }
       #make-me-a-hanzi-animation-9 {
         animation: keyframes9 0.783854s both;
         animation-delay: 6.814616s;
         animation-timing-function: linear;
       }
    @keyframes keyframes10 {
      from {
       stroke: black;
       stroke-dashoffset: 507;
       stroke-width: 128;
       }
       62% {
       animation-timing-function: step-end;
       stroke: black;
       stroke-dashoffset: 0;
       stroke-width: 128;
       }
       to {
       stroke: black;
       stroke-width: 1024;
       }
       }
       #make-me-a-hanzi-animation-10 {
         animation: keyframes10 0.662598s both;
         animation-delay: 7.598470s;
         animation-timing-function: linear;
       }
    @keyframes keyframes11 {
      from {
       stroke: black;
       stroke-dashoffset: 378;
       stroke-width: 128;
       }
       55% {
       animation-timing-function: step-end;
       stroke: black;
       stroke-dashoffset: 0;
       stroke-width: 128;
       }
       to {
       stroke: black;
       stroke-width: 1024;
       }
       }
       #make-me-a-hanzi-animation-11 {
         animation: keyframes11 0.557617s both;
         animation-delay: 8.261068s;
         animation-timing-function: linear;
       }
    @keyframes keyframes12 {
      from {
       stroke: black;
       stroke-dashoffset: 601;
       stroke-width: 128;
       }
       66% {
       animation-timing-function: step-end;
       stroke: black;
       stroke-dashoffset: 0;
       stroke-width: 128;
       }
       to {
       stroke: black;
       stroke-width: 1024;
       }
       }
       #make-me-a-hanzi-animation-12 {
         animation: keyframes12 0.739095s both;
         animation-delay: 8.818685s;
         animation-timing-function: linear;
       }
    @keyframes keyframes13 {
      from {
       stroke: black;
       stroke-dashoffset: 975;
       stroke-width: 128;
       }
       76% {
       animation-timing-function: step-end;
       stroke: black;
       stroke-dashoffset: 0;
       stroke-width: 128;
       }
       to {
       stroke: black;
       stroke-width: 1024;
       }
       }
       #make-me-a-hanzi-animation-13 {
         animation: keyframes13 1.043457s both;
         animation-delay: 9.557780s;
         animation-timing-function: linear;
       }
    @keyframes keyframes14 {
      from {
       stroke: black;
       stroke-dashoffset: 551;
       stroke-width: 128;
       }
       64% {
       animation-timing-function: step-end;
       stroke: black;
       stroke-dashoffset: 0;
       stroke-width: 128;
       }
       to {
       stroke: black;
       stroke-width: 1024;
       }
       }
       #make-me-a-hanzi-animation-14 {
         animation: keyframes14 0.698405s both;
         animation-delay: 10.601237s;
         animation-timing-function: linear;
       }
    @keyframes keyframes15 {
      from {
       stroke: black;
       stroke-dashoffset: 386;
       stroke-width: 128;
       }
       56% {
       animation-timing-function: step-end;
       stroke: black;
       stroke-dashoffset: 0;
       stroke-width: 128;
       }
       to {
       stroke: black;
       stroke-width: 1024;
       }
       }
       #make-me-a-hanzi-animation-15 {
         animation: keyframes15 0.564128s both;
         animation-delay: 11.299642s;
         animation-timing-function: linear;
       }
    @keyframes keyframes16 {
      from {
       stroke: black;
       stroke-dashoffset: 553;
       stroke-width: 128;
       }
       64% {
       animation-timing-function: step-end;
       stroke: black;
       stroke-dashoffset: 0;
       stroke-width: 128;
       }
       to {
       stroke: black;
       stroke-width: 1024;
       }
       }
       #make-me-a-hanzi-animation-16 {
         animation: keyframes16 0.700033s both;
         animation-delay: 11.863770s;
         animation-timing-function: linear;
       }
    @keyframes keyframes17 {
      from {
       stroke: black;
       stroke-dashoffset: 760;
       stroke-width: 128;
       }
       71% {
       animation-timing-function: step-end;
       stroke: black;
       stroke-dashoffset: 0;
       stroke-width: 128;
       }
       to {
       stroke: black;
       stroke-width: 1024;
       }
       }
       #make-me-a-hanzi-animation-17 {
         animation: keyframes17 0.868490s both;
         animation-delay: 12.563802s;
         animation-timing-function: linear;
       }
    @keyframes keyframes18 {
      from {
       stroke: black;
       stroke-dashoffset: 714;
       stroke-width: 128;
       }
       70% {
       animation-timing-function: step-end;
       stroke: black;
       stroke-dashoffset: 0;
       stroke-width: 128;
       }
       to {
       stroke: black;
       stroke-width: 1024;
       }
       }
       #make-me-a-hanzi-animation-18 {
         animation: keyframes18 0.831055s both;
         animation-delay: 13.432292s;
         animation-timing-function: linear;
       }
    @keyframes keyframes19 {
      from {
       stroke: black;
       stroke-dashoffset: 443;
       stroke-width: 128;
       }
       59% {
       animation-timing-function: step-end;
       stroke: black;
       stroke-dashoffset: 0;
       stroke-width: 128;
       }
       to {
       stroke: black;
       stroke-width: 1024;
       }
       }
       #make-me-a-hanzi-animation-19 {
         animation: keyframes19 0.610514s both;
         animation-delay: 14.263346s;
         animation-timing-function: linear;
       }
    @keyframes keyframes20 {
      from {
       stroke: black;
       stroke-dashoffset: 634;
       stroke-width: 128;
       }
       67% {
       animation-timing-function: step-end;
       stroke: black;
       stroke-dashoffset: 0;
       stroke-width: 128;
       }
       to {
       stroke: black;
       stroke-width: 1024;
       }
       }
       #make-me-a-hanzi-animation-20 {
         animation: keyframes20 0.765951s both;
         animation-delay: 14.873861s;
         animation-timing-function: linear;
       }
    @keyframes keyframes21 {
      from {
       stroke: black;
       stroke-dashoffset: 409;
       stroke-width: 128;
       }
       57% {
       animation-timing-function: step-end;
       stroke: black;
       stroke-dashoffset: 0;
       stroke-width: 128;
       }
       to {
       stroke: black;
       stroke-width: 1024;
       }
       }
       #make-me-a-hanzi-animation-21 {
         animation: keyframes21 0.582845s both;
         animation-delay: 15.639811s;
         animation-timing-function: linear;
       }
    @keyframes keyframes22 {
      from {
       stroke: black;
       stroke-dashoffset: 455;
       stroke-width: 128;
       }
       60% {
       animation-timing-function: step-end;
       stroke: black;
       stroke-dashoffset: 0;
       stroke-width: 128;
       }
       to {
       stroke: black;
       stroke-width: 1024;
       }
       }
       #make-me-a-hanzi-animation-22 {
         animation: keyframes22 0.620280s both;
         animation-delay: 16.222656s;
         animation-timing-function: linear;
       }
    @keyframes keyframes23 {
      from {
       stroke: black;
       stroke-dashoffset: 380;
       stroke-width: 128;
       }
       55% {
       animation-timing-function: step-end;
       stroke: black;
       stroke-dashoffset: 0;
       stroke-width: 128;
       }
       to {
       stroke: black;
       stroke-width: 1024;
       }
       }
       #make-me-a-hanzi-animation-23 {
         animation: keyframes23 0.559245s both;
         animation-delay: 16.842936s;
         animation-timing-function: linear;
       }
    @keyframes keyframes24 {
      from {
       stroke: black;
       stroke-dashoffset: 537;
       stroke-width: 128;
       }
       64% {
       animation-timing-function: step-end;
       stroke: black;
       stroke-dashoffset: 0;
       stroke-width: 128;
       }
       to {
       stroke: black;
       stroke-width: 1024;
       }
       }
       #make-me-a-hanzi-animation-24 {
         animation: keyframes24 0.687012s both;
         animation-delay: 17.402181s;
         animation-timing-function: linear;
       }
    @keyframes keyframes25 {
      from {
       stroke: black;
       stroke-dashoffset: 745;
       stroke-width: 128;
       }
       71% {
       animation-timing-function: step-end;
       stroke: black;
       stroke-dashoffset: 0;
       stroke-width: 128;
       }
       to {
       stroke: black;
       stroke-width: 1024;
       }
       }
       #make-me-a-hanzi-animation-25 {
         animation: keyframes25 0.856283s both;
         animation-delay: 18.089193s;
         animation-timing-function: linear;
       }
    @keyframes keyframes26 {
      from {
       stroke: black;
       stroke-dashoffset: 415;
       stroke-width: 128;
       }
       57% {
       animation-timing-function: step-end;
       stroke: black;
       stroke-dashoffset: 0;
       stroke-width: 128;
       }
       to {
       stroke: black;
       stroke-width: 1024;
       }
       }
       #make-me-a-hanzi-animation-26 {
         animation: keyframes26 0.587728s both;
         animation-delay: 18.945475s;
         animation-timing-function: linear;
       }
    @keyframes keyframes27 {
      from {
       stroke: black;
       stroke-dashoffset: 467;
       stroke-width: 128;
       }
       60% {
       animation-timing-function: step-end;
       stroke: black;
       stroke-dashoffset: 0;
       stroke-width: 128;
       }
       to {
       stroke: black;
       stroke-width: 1024;
       }
       }
       #make-me-a-hanzi-animation-27 {
         animation: keyframes27 0.630046s both;
         animation-delay: 19.533203s;
         animation-timing-function: linear;
       }
    @keyframes keyframes28 {
      from {
       stroke: black;
       stroke-dashoffset: 385;
       stroke-width: 128;
       }
       56% {
       animation-timing-function: step-end;
       stroke: black;
       stroke-dashoffset: 0;
       stroke-width: 128;
       }
       to {
       stroke: black;
       stroke-width: 1024;
       }
       }
       #make-me-a-hanzi-animation-28 {
         animation: keyframes28 0.563314s both;
         animation-delay: 20.163249s;
         animation-timing-function: linear;
       }
    @keyframes keyframes29 {
      from {
       stroke: black;
       stroke-dashoffset: 741;
       stroke-width: 128;
       }
       71% {
       animation-timing-function: step-end;
       stroke: black;
       stroke-dashoffset: 0;
       stroke-width: 128;
       }
       to {
       stroke: black;
       stroke-width: 1024;
       }
       }
       #make-me-a-hanzi-animation-29 {
         animation: keyframes29 0.853027s both;
         animation-delay: 20.726562s;
         animation-timing-function: linear;
       }
    @keyframes keyframes30 {
      from {
       stroke: black;
       stroke-dashoffset: 671;
       stroke-width: 128;
       }
       69% {
       animation-timing-function: step-end;
       stroke: black;
       stroke-dashoffset: 0;
       stroke-width: 128;
       }
       to {
       stroke: black;
       stroke-width: 1024;
       }
       }
       #make-me-a-hanzi-animation-30 {
         animation: keyframes30 0.796061s both;
         animation-delay: 21.579590s;
         animation-timing-function: linear;
       }
    @keyframes keyframes31 {
      from {
       stroke: black;
       stroke-dashoffset: 616;
       stroke-width: 128;
       }
       67% {
       animation-timing-function: step-end;
       stroke: black;
       stroke-dashoffset: 0;
       stroke-width: 128;
       }
       to {
       stroke: black;
       stroke-width: 1024;
       }
       }
       #make-me-a-hanzi-animation-31 {
         animation: keyframes31 0.751302s both;
         animation-delay: 22.375651s;
         animation-timing-function: linear;
       }
    @keyframes keyframes32 {
      from {
       stroke: black;
       stroke-dashoffset: 744;
       stroke-width: 128;
       }
       71% {
       animation-timing-function: step-end;
       stroke: black;
       stroke-dashoffset: 0;
       stroke-width: 128;
       }
       to {
       stroke: black;
       stroke-width: 1024;
       }
       }
       #make-me-a-hanzi-animation-32 {
         animation: keyframes32 0.855469s both;
         animation-delay: 23.126953s;
         animation-timing-function: linear;
       }
    @keyframes keyframes33 {
      from {
       stroke: black;
       stroke-dashoffset: 680;
       stroke-width: 128;
       }
       69% {
       animation-timing-function: step-end;
       stroke: black;
       stroke-dashoffset: 0;
       stroke-width: 128;
       }
       to {
       stroke: black;
       stroke-width: 1024;
       }
       }
       #make-me-a-hanzi-animation-33 {
         animation: keyframes33 0.803385s both;
         animation-delay: 23.982422s;
         animation-timing-function: linear;
       }
</style>
<path d="M 539 524 Q 535 566 496 583 Q 462 604 416 615 L 392 619 Q 378 619 378 610 Q 378 606 382 602 L 391 589 Q 400 574 455 511 Q 478 479 507 479 Q 539 481 539 524 Z" fill="lightgray"></path> 
<path d="M 517 398 L 736 428 Q 764 432 771 436 Q 778 440 780 446 Q 785 461 736 474 Q 704 482 679 480 L 635 471 Q 473 441 305 423 Q 269 420 253 417 L 213 412 Q 202 410 198 404 Q 196 397 208 390 Q 219 382 229 379 Q 239 376 242 374 L 251 370 Q 271 368 278 369 L 436 386 L 517 398 Z" fill="lightgray"></path> 
<path d="M 524 160 L 688 180 Q 751 186 759 198 Q 765 213 742 222 Q 697 238 678 234 L 526 213 L 456 204 L 263 184 Q 250 182 249 176 Q 248 175 253 163 Q 261 155 283 149 Q 304 143 316 142 L 456 154 L 524 160 Z" fill="lightgray"></path> 
<path d="M 517 -17 L 524 160 L 526 213 L 530 286 L 530 319 Q 532 336 536 354 Q 540 371 539 377 Q 538 382 532 386 Q 524 393 517 398 C 493 416 424 413 436 386 L 446 364 L 454 333 Q 456 325 456 294 L 456 204 L 456 154 L 456 -22 C 456 -52 516 -47 517 -17 Z" fill="lightgray"></path> 
<path d="M 198 -104 L 295 -88 L 444 -70 L 575 -61 Q 703 -53 740 -55 L 854 -60 Q 878 -62 885 -60 Q 903 -60 906 -47 Q 909 -34 872 -10 L 837 5 Q 823 12 807 12 L 788 8 Q 770 3 749 2 L 654 -7 L 595 -10 L 517 -17 L 456 -22 L 194 -48 L 123 -50 Q 118 -50 114 -54 Q 110 -65 120 -73 Q 155 -104 198 -104 Z" fill="lightgray"></path> 
<path d="M 1282 698 Q 1272 702 1250 707 Q 1238 711 1235 706 Q 1228 700 1236 685 Q 1261 625 1272 530 Q 1273 502 1289 482 Q 1305 460 1311 475 Q 1312 479 1314 485 L 1316 510 Q 1310 571 1308 579 L 1306 601 Q 1300 652 1300 669 C 1299 692 1299 692 1282 698 Z" fill="lightgray"></path> 
<path d="M 1425 502 Q 1443 478 1457 472 Q 1467 465 1479 485 Q 1492 509 1513 635 Q 1520 663 1539 686 Q 1549 696 1539 709 Q 1524 722 1486 744 Q 1471 750 1414 733 Q 1395 733 1282 698 C 1253 689 1272 660 1300 669 Q 1346 685 1430 703 Q 1449 707 1455 700 Q 1468 687 1466 673 Q 1451 555 1442 536 Q 1439 526 1428 522 C 1416 513 1416 513 1425 502 Z" fill="lightgray"></path> 
<path d="M 1308 579 Q 1309 579 1314 579 Q 1369 588 1409 594 Q 1428 598 1421 608 Q 1412 620 1391 623 Q 1361 626 1306 601 C 1279 589 1278 579 1308 579 Z" fill="lightgray"></path> 
<path d="M 1314 485 Q 1320 484 1327 486 Q 1358 495 1425 502 C 1445 504 1445 504 1428 522 Q 1425 526 1417 530 Q 1405 536 1383 529 Q 1346 517 1316 510 C 1287 503 1284 487 1314 485 Z" fill="lightgray"></path> 
<path d="M 1381 397 Q 1445 409 1529 417 Q 1544 418 1545 424 Q 1546 436 1530 445 Q 1506 457 1486 452 Q 1258 410 1145 400 Q 1135 400 1131 393 Q 1127 383 1141 373 Q 1172 348 1232 363 Q 1292 381 1340 389 L 1381 397 Z" fill="lightgray"></path> 
<path d="M 1392 146 Q 1393 207 1397 259 L 1398 282 Q 1399 310 1401 335 Q 1405 378 1386 394 Q 1383 395 1381 397 C 1356 414 1332 418 1340 389 Q 1349 368 1352 169 C 1352 139 1391 116 1392 146 Z" fill="lightgray"></path> 
<path d="M 1397 259 Q 1401 259 1511 269 Q 1533 273 1525 286 Q 1515 301 1489 305 Q 1447 311 1398 282 C 1372 267 1367 257 1397 259 Z" fill="lightgray"></path> 
<path d="M 1260 227 Q 1285 276 1292 282 Q 1299 286 1296 296 Q 1295 303 1282 313 Q 1255 334 1224 329 Q 1217 326 1220 316 Q 1239 261 1156 141 Q 1134 110 1076 44 Q 1069 40 1079 38 Q 1157 62 1245 201 L 1260 227 Z" fill="lightgray"></path> 
<path d="M 1245 201 Q 1396 84 1566 1 Q 1677 -68 1748 -51 Q 1815 -33 1888 -9 Q 1918 1 1925 12 Q 1929 24 1911 23 Q 1820 29 1763 27 Q 1610 27 1392 146 L 1352 169 Q 1306 197 1260 227 C 1235 243 1221 219 1245 201 Z" fill="lightgray"></path> 
<path d="M 1683 664 Q 1683 665 1684 665 Q 1882 707 1891 712 Q 1898 719 1895 727 Q 1888 737 1862 745 Q 1837 749 1742 719 Q 1655 701 1604 696 Q 1571 690 1595 675 Q 1625 659 1654 661 C 1674 661 1674 661 1683 664 Z" fill="lightgray"></path> 
<path d="M 1659 551 Q 1678 575 1695 598 Q 1701 605 1710 614 Q 1723 624 1716 633 Q 1709 646 1685 664 Q 1684 665 1683 664 C 1655 674 1648 677 1654 661 Q 1654 660 1656 656 Q 1663 637 1641 570 Q 1635 558 1633 548 C 1626 519 1640 527 1659 551 Z" fill="lightgray"></path> 
<path d="M 1629 548 Q 1623 560 1586 571 Q 1579 572 1574 565 Q 1573 561 1578 553 Q 1611 477 1586 350 Q 1577 332 1583 307 Q 1590 282 1600 272 Q 1609 262 1616 273 Q 1632 291 1633 414 Q 1633 505 1634 523 L 1629 548 Z" fill="lightgray"></path> 
<path d="M 1805 315 Q 1799 296 1810 277 Q 1822 252 1830 253 Q 1843 254 1856 281 Q 1869 303 1868 321 Q 1849 489 1879 534 Q 1888 547 1881 556 Q 1857 577 1815 594 Q 1802 598 1782 591 Q 1739 570 1659 551 L 1633 548 Q 1630 548 1629 548 C 1599 545 1604 518 1634 523 Q 1640 523 1721 541 Q 1785 559 1800 550 Q 1807 532 1811 485 Q 1812 343 1805 315 Z" fill="lightgray"></path> 
<path d="M 1696 435 Q 1696 270 1644 201 Q 1635 194 1626 184 Q 1584 157 1542 127 Q 1538 123 1550 120 Q 1614 120 1683 188 Q 1684 192 1687 194 Q 1726 246 1737 377 Q 1741 434 1750 458 Q 1754 467 1747 473 Q 1734 486 1706 497 Q 1690 504 1677 500 Q 1662 494 1674 480 Q 1696 458 1696 435 Z" fill="lightgray"></path> 
<path d="M 1757 212 Q 1802 166 1856 99 Q 1868 83 1879 78 Q 1886 77 1893 84 Q 1903 94 1896 130 Q 1887 178 1762 236 Q 1761 237 1759 237 Q 1752 241 1750 231 Q 1749 221 1757 212 Z" fill="lightgray"></path> 
<path d="M 2470 555 L 2504 562 Q 2563 575 2563 587 L 2560 593 Q 2553 604 2532 609 Q 2512 614 2498 614 Q 2487 612 2466 605 Q 2445 597 2424 593 L 2339 575 Q 2280 563 2256 561 L 2196 554 Q 2180 552 2178 547 Q 2176 541 2186 531 Q 2196 520 2233 520 L 2270 522 Q 2297 524 2319 528 L 2431 547 L 2470 555 Z" fill="lightgray"></path> 
<path d="M 2239 447 L 2206 452 Q 2192 454 2187 452 Q 2183 449 2183 447 L 2201 420 L 2205 408 Q 2206 404 2210 394 L 2219 338 Q 2222 321 2227 311 L 2235 304 Q 2236 301 2244 304 Q 2249 308 2254 318 C 2255 320 2253 318 2251 348 L 2246 422 C 2244 446 2244 446 2239 447 Z" fill="lightgray"></path> 
<path d="M 2378 469 L 2354 478 Q 2345 482 2339 481 Q 2334 480 2308 467 Q 2282 454 2239 447 C 2209 442 2217 414 2246 422 L 2295 436 Q 2297 436 2311 441 Q 2325 445 2329 440 Q 2333 434 2330 410 L 2325 370 C 2321 340 2358 335 2366 364 L 2376 400 L 2384 420 Q 2388 430 2395 439 Q 2403 448 2402 449 Q 2402 450 2395 458 Q 2389 465 2378 469 Z" fill="lightgray"></path> 
<path d="M 2254 318 L 2300 327 Q 2340 335 2350 336 L 2372 340 Q 2384 340 2385 346 Q 2386 352 2378 356 L 2366 364 C 2347 376 2347 376 2325 370 L 2304 364 Q 2291 361 2251 348 C 2222 339 2225 312 2254 318 Z" fill="lightgray"></path> 
<path d="M 2444 493 L 2446 480 L 2443 280 C 2443 250 2477 256 2480 286 L 2502 480 Q 2503 495 2507 506 L 2511 522 Q 2511 527 2510 529 Q 2510 534 2501 537 Q 2493 539 2470 555 C 2445 572 2417 573 2431 547 L 2439 532 L 2444 506 L 2444 493 Z" fill="lightgray"></path> 
<path d="M 2443 280 L 2094 238 Q 2081 237 2079 231 Q 2077 219 2098 208 L 2119 199 Q 2130 195 2152 200 L 2404 242 L 2429 245 L 2578 259 C 2608 262 2608 270 2580 280 L 2549 291 Q 2547 292 2521 292 Q 2495 292 2480 286 L 2443 280 Z" fill="lightgray"></path> 
<path d="M 2212 153 L 2200 158 L 2188 160 Q 2177 161 2174 163 Q 2163 164 2162 160 Q 2161 156 2165 150 L 2174 142 L 2182 128 Q 2188 111 2190 103 L 2200 39 Q 2202 27 2207 19 Q 2212 10 2214 9 Q 2217 7 2231 21 C 2235 25 2235 25 2231 52 L 2220 128 C 2217 151 2217 151 2212 153 Z" fill="lightgray"></path> 
<path d="M 2376 138 L 2384 148 Q 2384 161 2363 172 Q 2355 175 2344 181 Q 2333 187 2322 186 Q 2312 184 2291 175 Q 2271 165 2254 162 Q 2238 158 2212 153 C 2183 147 2191 120 2220 128 L 2286 146 Q 2307 150 2312 145 Q 2317 139 2315 126 L 2308 76 C 2304 46 2340 39 2348 68 L 2357 100 Q 2370 132 2376 138 Z" fill="lightgray"></path> 
<path d="M 2231 21 L 2357 44 Q 2364 44 2366 49 Q 2369 55 2362 59 L 2348 68 C 2324 83 2324 83 2308 76 L 2290 68 Q 2258 59 2231 52 C 2202 44 2201 16 2231 21 Z" fill="lightgray"></path> 
<path d="M 2404 242 L 2416 210 Q 2426 191 2426 135 L 2429 -1 L 2428 -34 Q 2428 -76 2410 -80 Q 2403 -81 2381 -77 L 2357 -73 L 2340 -68 Q 2331 -67 2329 -70 Q 2328 -72 2336 -81 L 2352 -95 Q 2358 -102 2379 -123 L 2396 -146 Q 2407 -161 2410 -163 Q 2436 -193 2464 -138 Q 2475 -116 2479 -101 Q 2483 -86 2481 -62 Q 2481 -20 2480 -3 L 2478 113 Q 2474 171 2486 196 Q 2490 215 2489 216 Q 2486 222 2464 234 Q 2460 234 2429 245 C 2401 255 2399 255 2404 242 Z" fill="lightgray"></path> 
<path d="M 2578 259 L 2593 273 Q 2609 291 2612 296 L 2653 354 L 2670 386 L 2700 455 Q 2703 467 2716 501 L 2736 558 Q 2737 564 2740 574 Q 2744 583 2753 592 Q 2766 606 2740 632 Q 2728 641 2710 651 Q 2693 660 2684 660 Q 2672 656 2673 644 Q 2675 632 2672 608 L 2667 568 Q 2663 528 2643 460 L 2626 403 Q 2602 328 2591 305 L 2580 280 C 2568 253 2566 248 2578 259 Z" fill="lightgray"></path> 
<path d="M 2653 354 L 2670 350 Q 2687 348 2696 350 L 2719 358 L 2772 372 L 2808 378 Q 2821 381 2825 381 Q 2830 380 2833 372 Q 2836 368 2831 353 L 2821 322 L 2802 276 Q 2798 262 2799 261 Q 2801 260 2813 269 L 2826 280 Q 2897 336 2922 345 Q 2948 353 2950 360 Q 2951 365 2941 376 L 2923 392 L 2904 405 Q 2894 412 2883 415 L 2856 424 Q 2840 430 2834 430 L 2772 410 L 2746 403 L 2670 386 C 2641 379 2624 361 2653 354 Z" fill="lightgray"></path> 
<path d="M 2663 286 L 2670 248 Q 2672 203 2657 146 Q 2654 126 2640 87 Q 2626 47 2612 26 Q 2575 -34 2542 -57 L 2492 -92 Q 2487 -96 2488 -102 Q 2490 -107 2500 -104 L 2521 -97 Q 2541 -90 2557 -81 Q 2621 -40 2650 0 Q 2668 24 2681 55 Q 2695 85 2698 97 L 2706 123 L 2715 158 L 2729 224 Q 2733 238 2739 253 Q 2746 267 2744 273 Q 2742 279 2725 291 L 2704 301 Q 2669 315 2663 304 Q 2660 296 2663 286 Z" fill="lightgray"></path> 
<path d="M 2706 123 L 2758 37 L 2804 -34 Q 2829 -71 2844 -88 Q 2875 -118 2919 -118 Q 2935 -120 2947 -118 L 2980 -116 Q 3004 -114 3012 -112 L 3029 -108 Q 3036 -106 3037 -101 Q 3039 -96 3029 -92 L 3007 -83 Q 2964 -65 2954 -60 Q 2902 -35 2854 2 Q 2801 46 2763 95 L 2735 132 Q 2718 152 2715 158 C 2698 183 2690 149 2706 123 Z" fill="lightgray"></path> 
      <clipPath id="make-me-a-hanzi-clip-0">
      <path d="M 539 524 Q 535 566 496 583 Q 462 604 416 615 L 392 619 Q 378 619 378 610 Q 378 606 382 602 L 391 589 Q 400 574 455 511 Q 478 479 507 479 Q 539 481 539 524 Z" fill="lightgray"></path>
      </clipPath>
      <path clip-path="url(#make-me-a-hanzi-clip-0)" d="M 387 610 L 483 543 L 507 509 " fill="none" id="make-me-a-hanzi-animation-0" stroke-dasharray="287 574" stroke-linecap="round"></path>

      <clipPath id="make-me-a-hanzi-clip-1">
      <path d="M 517 398 L 736 428 Q 764 432 771 436 Q 778 440 780 446 Q 785 461 736 474 Q 704 482 679 480 L 635 471 Q 473 441 305 423 Q 269 420 253 417 L 213 412 Q 202 410 198 404 Q 196 397 208 390 Q 219 382 229 379 Q 239 376 242 374 L 251 370 Q 271 368 278 369 L 436 386 L 517 398 Z" fill="lightgray"></path>
      </clipPath>
      <path clip-path="url(#make-me-a-hanzi-clip-1)" d="M 205 402 L 261 393 L 452 414 L 686 451 L 767 448 " fill="none" id="make-me-a-hanzi-animation-1" stroke-dasharray="695 1390" stroke-linecap="round"></path>

      <clipPath id="make-me-a-hanzi-clip-2">
      <path d="M 524 160 L 688 180 Q 751 186 759 198 Q 765 213 742 222 Q 697 238 678 234 L 526 213 L 456 204 L 263 184 Q 250 182 249 176 Q 248 175 253 163 Q 261 155 283 149 Q 304 143 316 142 L 456 154 L 524 160 Z" fill="lightgray"></path>
      </clipPath>
      <path clip-path="url(#make-me-a-hanzi-clip-2)" d="M 259 172 L 322 166 L 685 207 L 749 204 " fill="none" id="make-me-a-hanzi-animation-2" stroke-dasharray="621 1242" stroke-linecap="round"></path>

      <clipPath id="make-me-a-hanzi-clip-3">
      <path d="M 517 -17 L 524 160 L 526 213 L 530 286 L 530 319 Q 532 336 536 354 Q 540 371 539 377 Q 538 382 532 386 Q 524 393 517 398 C 493 416 424 413 436 386 L 446 364 L 454 333 Q 456 325 456 294 L 456 204 L 456 154 L 456 -22 C 456 -52 516 -47 517 -17 Z" fill="lightgray"></path>
      </clipPath>
      <path clip-path="url(#make-me-a-hanzi-clip-3)" d="M 443 383 L 493 348 L 488 21 L 487 12 L 463 -15 " fill="none" id="make-me-a-hanzi-animation-3" stroke-dasharray="561 1122" stroke-linecap="round"></path>

      <clipPath id="make-me-a-hanzi-clip-4">
      <path d="M 198 -104 L 295 -88 L 444 -70 L 575 -61 Q 703 -53 740 -55 L 854 -60 Q 878 -62 885 -60 Q 903 -60 906 -47 Q 909 -34 872 -10 L 837 5 Q 823 12 807 12 L 788 8 Q 770 3 749 2 L 654 -7 L 595 -10 L 517 -17 L 456 -22 L 194 -48 L 123 -50 Q 118 -50 114 -54 Q 110 -65 120 -73 Q 155 -104 198 -104 Z" fill="lightgray"></path>
      </clipPath>
      <path clip-path="url(#make-me-a-hanzi-clip-4)" d="M 122 -60 L 159 -72 L 200 -76 L 450 -46 L 811 -23 L 893 -45 " fill="none" id="make-me-a-hanzi-animation-4" stroke-dasharray="907 1814" stroke-linecap="round"></path>

      <clipPath id="make-me-a-hanzi-clip-5">
      <path d="M 1282 698 Q 1272 702 1250 707 Q 1238 711 1235 706 Q 1228 700 1236 685 Q 1261 625 1272 530 Q 1273 502 1289 482 Q 1305 460 1311 475 Q 1312 479 1314 485 L 1316 510 Q 1310 571 1308 579 L 1306 601 Q 1300 652 1300 669 C 1299 692 1299 692 1282 698 Z" fill="lightgray"></path>
      </clipPath>
      <path clip-path="url(#make-me-a-hanzi-clip-5)" d="M 1243 698 L 1263 681 L 1275 654 L 1301 481 " fill="none" id="make-me-a-hanzi-animation-5" stroke-dasharray="359 718" stroke-linecap="round"></path>

      <clipPath id="make-me-a-hanzi-clip-6">
      <path d="M 1425 502 Q 1443 478 1457 472 Q 1467 465 1479 485 Q 1492 509 1513 635 Q 1520 663 1539 686 Q 1549 696 1539 709 Q 1524 722 1486 744 Q 1471 750 1414 733 Q 1395 733 1282 698 C 1253 689 1272 660 1300 669 Q 1346 685 1430 703 Q 1449 707 1455 700 Q 1468 687 1466 673 Q 1451 555 1442 536 Q 1439 526 1428 522 C 1416 513 1416 513 1425 502 Z" fill="lightgray"></path>
      </clipPath>
      <path clip-path="url(#make-me-a-hanzi-clip-6)" d="M 1295 699 L 1312 689 L 1448 724 L 1477 717 L 1494 702 L 1500 693 L 1472 548 L 1457 508 L 1463 488 " fill="none" id="make-me-a-hanzi-animation-6" stroke-dasharray="563 1126" stroke-linecap="round"></path>

      <clipPath id="make-me-a-hanzi-clip-7">
      <path d="M 1308 579 Q 1309 579 1314 579 Q 1369 588 1409 594 Q 1428 598 1421 608 Q 1412 620 1391 623 Q 1361 626 1306 601 C 1279 589 1278 579 1308 579 Z" fill="lightgray"></path>
      </clipPath>
      <path clip-path="url(#make-me-a-hanzi-clip-7)" d="M 1311 585 L 1335 597 L 1376 606 L 1412 603 " fill="none" id="make-me-a-hanzi-animation-7" stroke-dasharray="233 466" stroke-linecap="round"></path>

      <clipPath id="make-me-a-hanzi-clip-8">
      <path d="M 1314 485 Q 1320 484 1327 486 Q 1358 495 1425 502 C 1445 504 1445 504 1428 522 Q 1425 526 1417 530 Q 1405 536 1383 529 Q 1346 517 1316 510 C 1287 503 1284 487 1314 485 Z" fill="lightgray"></path>
      </clipPath>
      <path clip-path="url(#make-me-a-hanzi-clip-8)" d="M 1320 491 L 1338 503 L 1394 515 L 1408 516 L 1415 509 " fill="none" id="make-me-a-hanzi-animation-8" stroke-dasharray="231 462" stroke-linecap="round"></path>

      <clipPath id="make-me-a-hanzi-clip-9">
      <path d="M 1381 397 Q 1445 409 1529 417 Q 1544 418 1545 424 Q 1546 436 1530 445 Q 1506 457 1486 452 Q 1258 410 1145 400 Q 1135 400 1131 393 Q 1127 383 1141 373 Q 1172 348 1232 363 Q 1292 381 1340 389 L 1381 397 Z" fill="lightgray"></path>
      </clipPath>
      <path clip-path="url(#make-me-a-hanzi-clip-9)" d="M 1142 389 L 1175 381 L 1218 383 L 1479 433 L 1536 428 " fill="none" id="make-me-a-hanzi-animation-9" stroke-dasharray="528 1056" stroke-linecap="round"></path>

      <clipPath id="make-me-a-hanzi-clip-10">
      <path d="M 1392 146 Q 1393 207 1397 259 L 1398 282 Q 1399 310 1401 335 Q 1405 378 1386 394 Q 1383 395 1381 397 C 1356 414 1332 418 1340 389 Q 1349 368 1352 169 C 1352 139 1391 116 1392 146 Z" fill="lightgray"></path>
      </clipPath>
      <path clip-path="url(#make-me-a-hanzi-clip-10)" d="M 1347 389 L 1372 367 L 1371 184 L 1388 154 " fill="none" id="make-me-a-hanzi-animation-10" stroke-dasharray="379 758" stroke-linecap="round"></path>

      <clipPath id="make-me-a-hanzi-clip-11">
      <path d="M 1397 259 Q 1401 259 1511 269 Q 1533 273 1525 286 Q 1515 301 1489 305 Q 1447 311 1398 282 C 1372 267 1367 257 1397 259 Z" fill="lightgray"></path>
      </clipPath>
      <path clip-path="url(#make-me-a-hanzi-clip-11)" d="M 1398 265 L 1412 275 L 1456 285 L 1515 280 " fill="none" id="make-me-a-hanzi-animation-11" stroke-dasharray="250 500" stroke-linecap="round"></path>

      <clipPath id="make-me-a-hanzi-clip-12">
      <path d="M 1260 227 Q 1285 276 1292 282 Q 1299 286 1296 296 Q 1295 303 1282 313 Q 1255 334 1224 329 Q 1217 326 1220 316 Q 1239 261 1156 141 Q 1134 110 1076 44 Q 1069 40 1079 38 Q 1157 62 1245 201 L 1260 227 Z" fill="lightgray"></path>
      </clipPath>
      <path clip-path="url(#make-me-a-hanzi-clip-12)" d="M 1232 319 L 1256 288 L 1221 204 L 1159 114 L 1110 65 L 1084 51 L 1083 44 " fill="none" id="make-me-a-hanzi-animation-12" stroke-dasharray="473 946" stroke-linecap="round"></path>

      <clipPath id="make-me-a-hanzi-clip-13">
      <path d="M 1245 201 Q 1396 84 1566 1 Q 1677 -68 1748 -51 Q 1815 -33 1888 -9 Q 1918 1 1925 12 Q 1929 24 1911 23 Q 1820 29 1763 27 Q 1610 27 1392 146 L 1352 169 Q 1306 197 1260 227 C 1235 243 1221 219 1245 201 Z" fill="lightgray"></path>
      </clipPath>
      <path clip-path="url(#make-me-a-hanzi-clip-13)" d="M 1263 217 L 1265 205 L 1273 199 L 1419 106 L 1515 56 L 1658 -2 L 1735 -13 L 1892 7 L 1916 15 " fill="none" id="make-me-a-hanzi-animation-13" stroke-dasharray="847 1694" stroke-linecap="round"></path>

      <clipPath id="make-me-a-hanzi-clip-14">
      <path d="M 1683 664 Q 1683 665 1684 665 Q 1882 707 1891 712 Q 1898 719 1895 727 Q 1888 737 1862 745 Q 1837 749 1742 719 Q 1655 701 1604 696 Q 1571 690 1595 675 Q 1625 659 1654 661 C 1674 661 1674 661 1683 664 Z" fill="lightgray"></path>
      </clipPath>
      <path clip-path="url(#make-me-a-hanzi-clip-14)" d="M 1597 687 L 1635 680 L 1694 686 L 1842 723 L 1886 721 " fill="none" id="make-me-a-hanzi-animation-14" stroke-dasharray="423 846" stroke-linecap="round"></path>

      <clipPath id="make-me-a-hanzi-clip-15">
      <path d="M 1659 551 Q 1678 575 1695 598 Q 1701 605 1710 614 Q 1723 624 1716 633 Q 1709 646 1685 664 Q 1684 665 1683 664 C 1655 674 1648 677 1654 661 Q 1654 660 1656 656 Q 1663 637 1641 570 Q 1635 558 1633 548 C 1626 519 1640 527 1659 551 Z" fill="lightgray"></path>
      </clipPath>
      <path clip-path="url(#make-me-a-hanzi-clip-15)" d="M 1661 661 L 1684 628 L 1651 562 L 1639 552 " fill="none" id="make-me-a-hanzi-animation-15" stroke-dasharray="258 516" stroke-linecap="round"></path>

      <clipPath id="make-me-a-hanzi-clip-16">
      <path d="M 1629 548 Q 1623 560 1586 571 Q 1579 572 1574 565 Q 1573 561 1578 553 Q 1611 477 1586 350 Q 1577 332 1583 307 Q 1590 282 1600 272 Q 1609 262 1616 273 Q 1632 291 1633 414 Q 1633 505 1634 523 L 1629 548 Z" fill="lightgray"></path>
      </clipPath>
      <path clip-path="url(#make-me-a-hanzi-clip-16)" d="M 1583 561 L 1608 537 L 1614 501 L 1616 401 L 1605 328 L 1608 276 " fill="none" id="make-me-a-hanzi-animation-16" stroke-dasharray="425 850" stroke-linecap="round"></path>

      <clipPath id="make-me-a-hanzi-clip-17">
      <path d="M 1805 315 Q 1799 296 1810 277 Q 1822 252 1830 253 Q 1843 254 1856 281 Q 1869 303 1868 321 Q 1849 489 1879 534 Q 1888 547 1881 556 Q 1857 577 1815 594 Q 1802 598 1782 591 Q 1739 570 1659 551 L 1633 548 Q 1630 548 1629 548 C 1599 545 1604 518 1634 523 Q 1640 523 1721 541 Q 1785 559 1800 550 Q 1807 532 1811 485 Q 1812 343 1805 315 Z" fill="lightgray"></path>
      </clipPath>
      <path clip-path="url(#make-me-a-hanzi-clip-17)" d="M 1631 542 L 1665 539 L 1794 573 L 1814 570 L 1838 544 L 1838 330 L 1831 264 " fill="none" id="make-me-a-hanzi-animation-17" stroke-dasharray="632 1264" stroke-linecap="round"></path>

      <clipPath id="make-me-a-hanzi-clip-18">
      <path d="M 1696 435 Q 1696 270 1644 201 Q 1635 194 1626 184 Q 1584 157 1542 127 Q 1538 123 1550 120 Q 1614 120 1683 188 Q 1684 192 1687 194 Q 1726 246 1737 377 Q 1741 434 1750 458 Q 1754 467 1747 473 Q 1734 486 1706 497 Q 1690 504 1677 500 Q 1662 494 1674 480 Q 1696 458 1696 435 Z" fill="lightgray"></path>
      </clipPath>
      <path clip-path="url(#make-me-a-hanzi-clip-18)" d="M 1679 489 L 1706 474 L 1721 450 L 1714 348 L 1698 264 L 1669 202 L 1639 171 L 1591 142 L 1550 128 " fill="none" id="make-me-a-hanzi-animation-18" stroke-dasharray="586 1172" stroke-linecap="round"></path>

      <clipPath id="make-me-a-hanzi-clip-19">
      <path d="M 1757 212 Q 1802 166 1856 99 Q 1868 83 1879 78 Q 1886 77 1893 84 Q 1903 94 1896 130 Q 1887 178 1762 236 Q 1761 237 1759 237 Q 1752 241 1750 231 Q 1749 221 1757 212 Z" fill="lightgray"></path>
      </clipPath>
      <path clip-path="url(#make-me-a-hanzi-clip-19)" d="M 1758 229 L 1857 143 L 1875 116 L 1881 93 " fill="none" id="make-me-a-hanzi-animation-19" stroke-dasharray="315 630" stroke-linecap="round"></path>

      <clipPath id="make-me-a-hanzi-clip-20">
      <path d="M 2470 555 L 2504 562 Q 2563 575 2563 587 L 2560 593 Q 2553 604 2532 609 Q 2512 614 2498 614 Q 2487 612 2466 605 Q 2445 597 2424 593 L 2339 575 Q 2280 563 2256 561 L 2196 554 Q 2180 552 2178 547 Q 2176 541 2186 531 Q 2196 520 2233 520 L 2270 522 Q 2297 524 2319 528 L 2431 547 L 2470 555 Z" fill="lightgray"></path>
      </clipPath>
      <path clip-path="url(#make-me-a-hanzi-clip-20)" d="M 2184 544 L 2212 538 L 2263 541 L 2420 568 L 2499 588 L 2556 587 " fill="none" id="make-me-a-hanzi-animation-20" stroke-dasharray="506 1012" stroke-linecap="round"></path>

      <clipPath id="make-me-a-hanzi-clip-21">
      <path d="M 2239 447 L 2206 452 Q 2192 454 2187 452 Q 2183 449 2183 447 L 2201 420 L 2205 408 Q 2206 404 2210 394 L 2219 338 Q 2222 321 2227 311 L 2235 304 Q 2236 301 2244 304 Q 2249 308 2254 318 C 2255 320 2253 318 2251 348 L 2246 422 C 2244 446 2244 446 2239 447 Z" fill="lightgray"></path>
      </clipPath>
      <path clip-path="url(#make-me-a-hanzi-clip-21)" d="M 2190 445 L 2222 428 L 2240 313 " fill="none" id="make-me-a-hanzi-animation-21" stroke-dasharray="281 562" stroke-linecap="round"></path>

      <clipPath id="make-me-a-hanzi-clip-22">
      <path d="M 2378 469 L 2354 478 Q 2345 482 2339 481 Q 2334 480 2308 467 Q 2282 454 2239 447 C 2209 442 2217 414 2246 422 L 2295 436 Q 2297 436 2311 441 Q 2325 445 2329 440 Q 2333 434 2330 410 L 2325 370 C 2321 340 2358 335 2366 364 L 2376 400 L 2384 420 Q 2388 430 2395 439 Q 2403 448 2402 449 Q 2402 450 2395 458 Q 2389 465 2378 469 Z" fill="lightgray"></path>
      </clipPath>
      <path clip-path="url(#make-me-a-hanzi-clip-22)" d="M 2250 430 L 2255 438 L 2321 459 L 2351 453 L 2360 443 L 2358 425 L 2348 387 L 2333 376 " fill="none" id="make-me-a-hanzi-animation-22" stroke-dasharray="327 654" stroke-linecap="round"></path>

      <clipPath id="make-me-a-hanzi-clip-23">
      <path d="M 2254 318 L 2300 327 Q 2340 335 2350 336 L 2372 340 Q 2384 340 2385 346 Q 2386 352 2378 356 L 2366 364 C 2347 376 2347 376 2325 370 L 2304 364 Q 2291 361 2251 348 C 2222 339 2225 312 2254 318 Z" fill="lightgray"></path>
      </clipPath>
      <path clip-path="url(#make-me-a-hanzi-clip-23)" d="M 2260 326 L 2268 337 L 2329 352 L 2376 347 " fill="none" id="make-me-a-hanzi-animation-23" stroke-dasharray="252 504" stroke-linecap="round"></path>

      <clipPath id="make-me-a-hanzi-clip-24">
      <path d="M 2444 493 L 2446 480 L 2443 280 C 2443 250 2477 256 2480 286 L 2502 480 Q 2503 495 2507 506 L 2511 522 Q 2511 527 2510 529 Q 2510 534 2501 537 Q 2493 539 2470 555 C 2445 572 2417 573 2431 547 L 2439 532 L 2444 506 L 2444 493 Z" fill="lightgray"></path>
      </clipPath>
      <path clip-path="url(#make-me-a-hanzi-clip-24)" d="M 2438 546 L 2465 528 L 2476 513 L 2464 311 L 2448 288 " fill="none" id="make-me-a-hanzi-animation-24" stroke-dasharray="409 818" stroke-linecap="round"></path>

      <clipPath id="make-me-a-hanzi-clip-25">
      <path d="M 2443 280 L 2094 238 Q 2081 237 2079 231 Q 2077 219 2098 208 L 2119 199 Q 2130 195 2152 200 L 2404 242 L 2429 245 L 2578 259 C 2608 262 2608 270 2580 280 L 2549 291 Q 2547 292 2521 292 Q 2495 292 2480 286 L 2443 280 Z" fill="lightgray"></path>
      </clipPath>
      <path clip-path="url(#make-me-a-hanzi-clip-25)" d="M 2088 227 L 2132 220 L 2501 272 L 2573 275 " fill="none" id="make-me-a-hanzi-animation-25" stroke-dasharray="617 1234" stroke-linecap="round"></path>

      <clipPath id="make-me-a-hanzi-clip-26">
      <path d="M 2212 153 L 2200 158 L 2188 160 Q 2177 161 2174 163 Q 2163 164 2162 160 Q 2161 156 2165 150 L 2174 142 L 2182 128 Q 2188 111 2190 103 L 2200 39 Q 2202 27 2207 19 Q 2212 10 2214 9 Q 2217 7 2231 21 C 2235 25 2235 25 2231 52 L 2220 128 C 2217 151 2217 151 2212 153 Z" fill="lightgray"></path>
      </clipPath>
      <path clip-path="url(#make-me-a-hanzi-clip-26)" d="M 2169 157 L 2197 139 L 2205 118 L 2219 24 L 2215 17 " fill="none" id="make-me-a-hanzi-animation-26" stroke-dasharray="287 574" stroke-linecap="round"></path>

      <clipPath id="make-me-a-hanzi-clip-27">
      <path d="M 2376 138 L 2384 148 Q 2384 161 2363 172 Q 2355 175 2344 181 Q 2333 187 2322 186 Q 2312 184 2291 175 Q 2271 165 2254 162 Q 2238 158 2212 153 C 2183 147 2191 120 2220 128 L 2286 146 Q 2307 150 2312 145 Q 2317 139 2315 126 L 2308 76 C 2304 46 2340 39 2348 68 L 2357 100 Q 2370 132 2376 138 Z" fill="lightgray"></path>
      </clipPath>
      <path clip-path="url(#make-me-a-hanzi-clip-27)" d="M 2221 149 L 2228 143 L 2303 164 L 2330 161 L 2345 147 L 2332 93 L 2343 75 " fill="none" id="make-me-a-hanzi-animation-27" stroke-dasharray="339 678" stroke-linecap="round"></path>

      <clipPath id="make-me-a-hanzi-clip-28">
      <path d="M 2231 21 L 2357 44 Q 2364 44 2366 49 Q 2369 55 2362 59 L 2348 68 C 2324 83 2324 83 2308 76 L 2290 68 Q 2258 59 2231 52 C 2202 44 2201 16 2231 21 Z" fill="lightgray"></path>
      </clipPath>
      <path clip-path="url(#make-me-a-hanzi-clip-28)" d="M 2237 29 L 2247 40 L 2311 56 L 2359 52 " fill="none" id="make-me-a-hanzi-animation-28" stroke-dasharray="257 514" stroke-linecap="round"></path>

      <clipPath id="make-me-a-hanzi-clip-29">
      <path d="M 2404 242 L 2416 210 Q 2426 191 2426 135 L 2429 -1 L 2428 -34 Q 2428 -76 2410 -80 Q 2403 -81 2381 -77 L 2357 -73 L 2340 -68 Q 2331 -67 2329 -70 Q 2328 -72 2336 -81 L 2352 -95 Q 2358 -102 2379 -123 L 2396 -146 Q 2407 -161 2410 -163 Q 2436 -193 2464 -138 Q 2475 -116 2479 -101 Q 2483 -86 2481 -62 Q 2481 -20 2480 -3 L 2478 113 Q 2474 171 2486 196 Q 2490 215 2489 216 Q 2486 222 2464 234 Q 2460 234 2429 245 C 2401 255 2399 255 2404 242 Z" fill="lightgray"></path>
      </clipPath>
      <path clip-path="url(#make-me-a-hanzi-clip-29)" d="M 2411 238 L 2453 202 L 2451 -82 L 2427 -118 L 2335 -74 " fill="none" id="make-me-a-hanzi-animation-29" stroke-dasharray="613 1226" stroke-linecap="round"></path>

      <clipPath id="make-me-a-hanzi-clip-30">
      <path d="M 2578 259 L 2593 273 Q 2609 291 2612 296 L 2653 354 L 2670 386 L 2700 455 Q 2703 467 2716 501 L 2736 558 Q 2737 564 2740 574 Q 2744 583 2753 592 Q 2766 606 2740 632 Q 2728 641 2710 651 Q 2693 660 2684 660 Q 2672 656 2673 644 Q 2675 632 2672 608 L 2667 568 Q 2663 528 2643 460 L 2626 403 Q 2602 328 2591 305 L 2580 280 C 2568 253 2566 248 2578 259 Z" fill="lightgray"></path>
      </clipPath>
      <path clip-path="url(#make-me-a-hanzi-clip-30)" d="M 2687 646 L 2711 604 L 2686 503 L 2633 359 L 2580 264 " fill="none" id="make-me-a-hanzi-animation-30" stroke-dasharray="543 1086" stroke-linecap="round"></path>

      <clipPath id="make-me-a-hanzi-clip-31">
      <path d="M 2653 354 L 2670 350 Q 2687 348 2696 350 L 2719 358 L 2772 372 L 2808 378 Q 2821 381 2825 381 Q 2830 380 2833 372 Q 2836 368 2831 353 L 2821 322 L 2802 276 Q 2798 262 2799 261 Q 2801 260 2813 269 L 2826 280 Q 2897 336 2922 345 Q 2948 353 2950 360 Q 2951 365 2941 376 L 2923 392 L 2904 405 Q 2894 412 2883 415 L 2856 424 Q 2840 430 2834 430 L 2772 410 L 2746 403 L 2670 386 C 2641 379 2624 361 2653 354 Z" fill="lightgray"></path>
      </clipPath>
      <path clip-path="url(#make-me-a-hanzi-clip-31)" d="M 2658 358 L 2757 388 L 2822 403 L 2841 402 L 2877 371 L 2806 270 " fill="none" id="make-me-a-hanzi-animation-31" stroke-dasharray="488 976" stroke-linecap="round"></path>

      <clipPath id="make-me-a-hanzi-clip-32">
      <path d="M 2663 286 L 2670 248 Q 2672 203 2657 146 Q 2654 126 2640 87 Q 2626 47 2612 26 Q 2575 -34 2542 -57 L 2492 -92 Q 2487 -96 2488 -102 Q 2490 -107 2500 -104 L 2521 -97 Q 2541 -90 2557 -81 Q 2621 -40 2650 0 Q 2668 24 2681 55 Q 2695 85 2698 97 L 2706 123 L 2715 158 L 2729 224 Q 2733 238 2739 253 Q 2746 267 2744 273 Q 2742 279 2725 291 L 2704 301 Q 2669 315 2663 304 Q 2660 296 2663 286 Z" fill="lightgray"></path>
      </clipPath>
      <path clip-path="url(#make-me-a-hanzi-clip-32)" d="M 2672 298 L 2704 258 L 2688 159 L 2663 74 L 2635 18 L 2595 -32 L 2556 -65 L 2495 -99 " fill="none" id="make-me-a-hanzi-animation-32" stroke-dasharray="616 1232" stroke-linecap="round"></path>

      <clipPath id="make-me-a-hanzi-clip-33">
      <path d="M 2706 123 L 2758 37 L 2804 -34 Q 2829 -71 2844 -88 Q 2875 -118 2919 -118 Q 2935 -120 2947 -118 L 2980 -116 Q 3004 -114 3012 -112 L 3029 -108 Q 3036 -106 3037 -101 Q 3039 -96 3029 -92 L 3007 -83 Q 2964 -65 2954 -60 Q 2902 -35 2854 2 Q 2801 46 2763 95 L 2735 132 Q 2718 152 2715 158 C 2698 183 2690 149 2706 123 Z" fill="lightgray"></path>
      </clipPath>
      <path clip-path="url(#make-me-a-hanzi-clip-33)" d="M 2719 146 L 2722 124 L 2771 53 L 2871 -59 L 2897 -75 L 2938 -88 L 3029 -100 " fill="none" id="make-me-a-hanzi-animation-33" stroke-dasharray="552 1104" stroke-linecap="round"></path>

</g>
</svg>
