<svg version="1.1" viewBox="0 0 2048 1024" xmlns="http://www.w3.org/2000/svg">
  <g stroke="lightgray" stroke-dasharray="1,1" stroke-width="1" transform="scale(4, 4)">
    <line x1="0" y1="0" x2="256" y2="256"></line>
    <line x1="256" y1="0" x2="0" y2="256"></line>
    <line x1="128" y1="0" x2="128" y2="256"></line>
    <line x1="0" y1="128" x2="256" y2="128"></line>
    <line x1="256" y1="0" x2="512" y2="256"></line>
    <line x1="512" y1="0" x2="256" y2="256"></line>
    <line x1="384" y1="0" x2="384" y2="256"></line>
    <line x1="256" y1="128" x2="512" y2="128"></line>
  </g>
<g transform="scale(1, -1) translate(0, -850)">
   <style type="text/css">
    @keyframes keyframes0 {
      from {
       stroke: black;
       stroke-dashoffset: 411;
       stroke-width: 128;
       }
       57% {
       animation-timing-function: step-end;
       stroke: black;
       stroke-dashoffset: 0;
       stroke-width: 128;
       }
       to {
       stroke: black;
       stroke-width: 1024;
       }
       }
       #make-me-a-hanzi-animation-0 {
         animation: keyframes0 0.584473s both;
         animation-delay: 0.000000s;
         animation-timing-function: linear;
       }
    @keyframes keyframes1 {
      from {
       stroke: black;
       stroke-dashoffset: 1153;
       stroke-width: 128;
       }
       79% {
       animation-timing-function: step-end;
       stroke: black;
       stroke-dashoffset: 0;
       stroke-width: 128;
       }
       to {
       stroke: black;
       stroke-width: 1024;
       }
       }
       #make-me-a-hanzi-animation-1 {
         animation: keyframes1 1.188314s both;
         animation-delay: 0.584473s;
         animation-timing-function: linear;
       }
    @keyframes keyframes2 {
      from {
       stroke: black;
       stroke-dashoffset: 1122;
       stroke-width: 128;
       }
       79% {
       animation-timing-function: step-end;
       stroke: black;
       stroke-dashoffset: 0;
       stroke-width: 128;
       }
       to {
       stroke: black;
       stroke-width: 1024;
       }
       }
       #make-me-a-hanzi-animation-2 {
         animation: keyframes2 1.163086s both;
         animation-delay: 1.772787s;
         animation-timing-function: linear;
       }
    @keyframes keyframes3 {
      from {
       stroke: black;
       stroke-dashoffset: 771;
       stroke-width: 128;
       }
       72% {
       animation-timing-function: step-end;
       stroke: black;
       stroke-dashoffset: 0;
       stroke-width: 128;
       }
       to {
       stroke: black;
       stroke-width: 1024;
       }
       }
       #make-me-a-hanzi-animation-3 {
         animation: keyframes3 0.877441s both;
         animation-delay: 2.935873s;
         animation-timing-function: linear;
       }
    @keyframes keyframes4 {
      from {
       stroke: black;
       stroke-dashoffset: 643;
       stroke-width: 128;
       }
       68% {
       animation-timing-function: step-end;
       stroke: black;
       stroke-dashoffset: 0;
       stroke-width: 128;
       }
       to {
       stroke: black;
       stroke-width: 1024;
       }
       }
       #make-me-a-hanzi-animation-4 {
         animation: keyframes4 0.773275s both;
         animation-delay: 3.813314s;
         animation-timing-function: linear;
       }
    @keyframes keyframes5 {
      from {
       stroke: black;
       stroke-dashoffset: 1106;
       stroke-width: 128;
       }
       78% {
       animation-timing-function: step-end;
       stroke: black;
       stroke-dashoffset: 0;
       stroke-width: 128;
       }
       to {
       stroke: black;
       stroke-width: 1024;
       }
       }
       #make-me-a-hanzi-animation-5 {
         animation: keyframes5 1.150065s both;
         animation-delay: 4.586589s;
         animation-timing-function: linear;
       }
</style>
<path d="M 324.0 593.5 Q 358.0 566.5 392.0 534.5 Q 405.0 521.5 422.0 522.5 Q 432.0 522.5 438.0 536.5 Q 442.0 551.5 433.0 580.5 Q 421.0 616.5 319.0 641.5 Q 303.0 645.5 297.0 642.5 Q 293.0 638.5 294.0 625.5 Q 297.0 615.5 324.0 593.5 Z" fill="lightgray"></path> 
<path d="M 501.0 214.5 Q 600.0 328.5 627.0 543.5 Q 631.0 586.5 640.0 612.5 Q 644.0 627.5 635.0 635.5 Q 613.0 657.5 587.0 668.5 Q 562.0 680.5 551.0 676.5 Q 541.0 670.5 544.0 658.5 Q 598.0 478.5 498.0 293.5 Q 483.0 269.5 465.0 247.5 L 434.0 215.5 Q 397.0 182.5 353.0 152.5 Q 292.0 106.5 120.0 51.5 Q 108.0 50.5 104.0 44.5 Q 97.0 40.5 108.0 34.5 Q 150.0 27.5 288.0 74.5 Q 405.0 119.5 467.0 176.5 L 501.0 214.5 Z" fill="lightgray"></path> 
<path d="M 467.0 176.5 Q 621.0 1.5 675.0 -4.5 Q 828.0 -4.5 881.0 2.5 Q 927.0 6.5 924.0 19.5 Q 923.0 26.5 876.0 40.5 Q 705.0 85.5 646.0 113.5 Q 577.0 149.5 501.0 214.5 L 465.0 247.5 Q 386.0 320.5 307.0 413.5 Q 267.0 458.5 229.0 460.5 Q 210.0 461.5 206.0 456.5 Q 203.0 449.5 220.0 436.5 Q 298.0 388.5 434.0 215.5 L 467.0 176.5 Z" fill="lightgray"></path> 
<path d="M 1537.0 519.5 L 1639.0 532.5 Q 1689.0 537.5 1721.0 544.5 L 1763.0 552.5 Q 1776.0 555.5 1777.0 562.5 Q 1778.0 568.5 1771.0 575.5 Q 1764.0 581.5 1738.0 592.5 Q 1713.0 602.5 1707.0 602.5 Q 1701.0 602.5 1676.0 597.5 Q 1627.0 584.5 1566.0 575.5 L 1489.0 564.5 L 1403.0 554.5 Q 1327.0 544.5 1299.0 542.5 L 1270.0 540.5 Q 1259.0 539.5 1250.0 536.5 Q 1249.0 530.5 1253.0 524.5 Q 1256.0 515.5 1277.0 509.5 Q 1294.0 502.5 1311.0 502.5 Q 1329.0 501.5 1368.0 503.5 Q 1386.0 505.5 1454.0 510.5 L 1537.0 519.5 Z" fill="lightgray"></path> 
<path d="M 1454.0 510.5 L 1467.0 493.5 Q 1479.0 482.5 1482.0 394.5 L 1487.0 156.5 C 1488.0 126.5 1548.0 132.5 1549.0 162.5 L 1555.0 403.5 Q 1555.0 443.5 1561.0 464.5 Q 1567.0 484.5 1567.0 493.5 Q 1567.0 501.5 1559.0 506.5 Q 1552.0 513.5 1537.0 519.5 C 1510.0 532.5 1436.0 534.5 1454.0 510.5 Z" fill="lightgray"></path> 
<path d="M 1487.0 156.5 L 1241.0 137.5 Q 1170.0 134.5 1144.0 132.5 L 1118.0 130.5 Q 1095.0 126.5 1114.0 107.5 Q 1133.0 88.5 1158.0 82.5 Q 1183.0 76.5 1195.0 75.5 Q 1208.0 73.5 1253.0 85.5 Q 1299.0 97.5 1397.0 105.5 L 1490.0 114.5 Q 1498.0 115.5 1637.0 121.5 Q 1776.0 127.5 1849.0 124.5 L 1933.0 120.5 L 1958.0 122.5 Q 1977.0 124.5 1975.0 140.5 Q 1974.0 146.5 1960.0 157.5 Q 1913.0 190.5 1874.0 195.5 Q 1866.0 196.5 1826.0 189.5 Q 1786.0 181.5 1765.0 179.5 L 1549.0 162.5 L 1487.0 156.5 Z" fill="lightgray"></path> 
      <clipPath id="make-me-a-hanzi-clip-0">
      <path d="M 324.0 593.5 Q 358.0 566.5 392.0 534.5 Q 405.0 521.5 422.0 522.5 Q 432.0 522.5 438.0 536.5 Q 442.0 551.5 433.0 580.5 Q 421.0 616.5 319.0 641.5 Q 303.0 645.5 297.0 642.5 Q 293.0 638.5 294.0 625.5 Q 297.0 615.5 324.0 593.5 Z" fill="lightgray"></path>
      </clipPath>
      <path clip-path="url(#make-me-a-hanzi-clip-0)" d="M 302.0 636.5 L 392.0 579.5 L 420.0 540.5 " fill="none" id="make-me-a-hanzi-animation-0" stroke-dasharray="283 566" stroke-linecap="round"></path>

      <clipPath id="make-me-a-hanzi-clip-1">
      <path d="M 501.0 214.5 Q 600.0 328.5 627.0 543.5 Q 631.0 586.5 640.0 612.5 Q 644.0 627.5 635.0 635.5 Q 613.0 657.5 587.0 668.5 Q 562.0 680.5 551.0 676.5 Q 541.0 670.5 544.0 658.5 Q 598.0 478.5 498.0 293.5 Q 483.0 269.5 465.0 247.5 L 434.0 215.5 Q 397.0 182.5 353.0 152.5 Q 292.0 106.5 120.0 51.5 Q 108.0 50.5 104.0 44.5 Q 97.0 40.5 108.0 34.5 Q 150.0 27.5 288.0 74.5 Q 405.0 119.5 467.0 176.5 L 501.0 214.5 Z" fill="lightgray"></path>
      </clipPath>
      <path clip-path="url(#make-me-a-hanzi-clip-1)" d="M 557.0 664.5 L 597.0 610.5 L 590.0 485.5 L 553.0 349.5 L 530.0 298.5 L 495.0 244.5 L 426.0 174.5 L 339.0 117.5 L 272.0 85.5 L 164.0 51.5 L 111.0 41.5 " fill="none" id="make-me-a-hanzi-animation-1" stroke-dasharray="1025 2050" stroke-linecap="round"></path>

      <clipPath id="make-me-a-hanzi-clip-2">
      <path d="M 467.0 176.5 Q 621.0 1.5 675.0 -4.5 Q 828.0 -4.5 881.0 2.5 Q 927.0 6.5 924.0 19.5 Q 923.0 26.5 876.0 40.5 Q 705.0 85.5 646.0 113.5 Q 577.0 149.5 501.0 214.5 L 465.0 247.5 Q 386.0 320.5 307.0 413.5 Q 267.0 458.5 229.0 460.5 Q 210.0 461.5 206.0 456.5 Q 203.0 449.5 220.0 436.5 Q 298.0 388.5 434.0 215.5 L 467.0 176.5 Z" fill="lightgray"></path>
      </clipPath>
      <path clip-path="url(#make-me-a-hanzi-clip-2)" d="M 212.0 453.5 L 276.0 419.5 L 494.0 183.5 L 577.0 110.5 L 641.0 65.5 L 686.0 44.5 L 918.0 17.5 " fill="none" id="make-me-a-hanzi-animation-2" stroke-dasharray="994 1988" stroke-linecap="round"></path>

      <clipPath id="make-me-a-hanzi-clip-3">
      <path d="M 1537.0 519.5 L 1639.0 532.5 Q 1689.0 537.5 1721.0 544.5 L 1763.0 552.5 Q 1776.0 555.5 1777.0 562.5 Q 1778.0 568.5 1771.0 575.5 Q 1764.0 581.5 1738.0 592.5 Q 1713.0 602.5 1707.0 602.5 Q 1701.0 602.5 1676.0 597.5 Q 1627.0 584.5 1566.0 575.5 L 1489.0 564.5 L 1403.0 554.5 Q 1327.0 544.5 1299.0 542.5 L 1270.0 540.5 Q 1259.0 539.5 1250.0 536.5 Q 1249.0 530.5 1253.0 524.5 Q 1256.0 515.5 1277.0 509.5 Q 1294.0 502.5 1311.0 502.5 Q 1329.0 501.5 1368.0 503.5 Q 1386.0 505.5 1454.0 510.5 L 1537.0 519.5 Z" fill="lightgray"></path>
      </clipPath>
      <path clip-path="url(#make-me-a-hanzi-clip-3)" d="M 1256.0 531.5 L 1288.0 523.5 L 1328.0 523.5 L 1527.0 543.5 L 1705.0 572.5 L 1766.0 565.5 " fill="none" id="make-me-a-hanzi-animation-3" stroke-dasharray="643 1286" stroke-linecap="round"></path>

      <clipPath id="make-me-a-hanzi-clip-4">
      <path d="M 1454.0 510.5 L 1467.0 493.5 Q 1479.0 482.5 1482.0 394.5 L 1487.0 156.5 C 1488.0 126.5 1548.0 132.5 1549.0 162.5 L 1555.0 403.5 Q 1555.0 443.5 1561.0 464.5 Q 1567.0 484.5 1567.0 493.5 Q 1567.0 501.5 1559.0 506.5 Q 1552.0 513.5 1537.0 519.5 C 1510.0 532.5 1436.0 534.5 1454.0 510.5 Z" fill="lightgray"></path>
      </clipPath>
      <path clip-path="url(#make-me-a-hanzi-clip-4)" d="M 1461.0 509.5 L 1519.0 474.5 L 1518.0 191.5 L 1494.0 164.5 " fill="none" id="make-me-a-hanzi-animation-4" stroke-dasharray="515 1030" stroke-linecap="round"></path>

      <clipPath id="make-me-a-hanzi-clip-5">
      <path d="M 1487.0 156.5 L 1241.0 137.5 Q 1170.0 134.5 1144.0 132.5 L 1118.0 130.5 Q 1095.0 126.5 1114.0 107.5 Q 1133.0 88.5 1158.0 82.5 Q 1183.0 76.5 1195.0 75.5 Q 1208.0 73.5 1253.0 85.5 Q 1299.0 97.5 1397.0 105.5 L 1490.0 114.5 Q 1498.0 115.5 1637.0 121.5 Q 1776.0 127.5 1849.0 124.5 L 1933.0 120.5 L 1958.0 122.5 Q 1977.0 124.5 1975.0 140.5 Q 1974.0 146.5 1960.0 157.5 Q 1913.0 190.5 1874.0 195.5 Q 1866.0 196.5 1826.0 189.5 Q 1786.0 181.5 1765.0 179.5 L 1549.0 162.5 L 1487.0 156.5 Z" fill="lightgray"></path>
      </clipPath>
      <path clip-path="url(#make-me-a-hanzi-clip-5)" d="M 1117.0 118.5 L 1150.0 109.5 L 1206.0 105.5 L 1528.0 139.5 L 1856.0 159.5 L 1896.0 155.5 L 1961.0 137.5 " fill="none" id="make-me-a-hanzi-animation-5" stroke-dasharray="978 1956" stroke-linecap="round"></path>

</g>
</svg>
