<svg version="1.1" viewBox="0 0 2048 1024" xmlns="http://www.w3.org/2000/svg">
  <g stroke="lightgray" stroke-dasharray="1,1" stroke-width="1" transform="scale(4, 4)">
    <line x1="0" y1="0" x2="256" y2="256"></line>
    <line x1="256" y1="0" x2="0" y2="256"></line>
    <line x1="128" y1="0" x2="128" y2="256"></line>
    <line x1="0" y1="128" x2="256" y2="128"></line>
    <line x1="256" y1="0" x2="512" y2="256"></line>
    <line x1="512" y1="0" x2="256" y2="256"></line>
    <line x1="384" y1="0" x2="384" y2="256"></line>
    <line x1="256" y1="128" x2="512" y2="128"></line>
  </g>
<g transform="scale(1, -1) translate(0, -850)">
   <style type="text/css">
    @keyframes keyframes0 {
      from {
       stroke: black;
       stroke-dashoffset: 660;
       stroke-width: 128;
       }
       68% {
       animation-timing-function: step-end;
       stroke: black;
       stroke-dashoffset: 0;
       stroke-width: 128;
       }
       to {
       stroke: black;
       stroke-width: 1024;
       }
       }
       #make-me-a-hanzi-animation-0 {
         animation: keyframes0 0.787109s both;
         animation-delay: 0.000000s;
         animation-timing-function: linear;
       }
    @keyframes keyframes1 {
      from {
       stroke: black;
       stroke-dashoffset: 1116;
       stroke-width: 128;
       }
       78% {
       animation-timing-function: step-end;
       stroke: black;
       stroke-dashoffset: 0;
       stroke-width: 128;
       }
       to {
       stroke: black;
       stroke-width: 1024;
       }
       }
       #make-me-a-hanzi-animation-1 {
         animation: keyframes1 1.158203s both;
         animation-delay: 0.787109s;
         animation-timing-function: linear;
       }
    @keyframes keyframes2 {
      from {
       stroke: black;
       stroke-dashoffset: 993;
       stroke-width: 128;
       }
       76% {
       animation-timing-function: step-end;
       stroke: black;
       stroke-dashoffset: 0;
       stroke-width: 128;
       }
       to {
       stroke: black;
       stroke-width: 1024;
       }
       }
       #make-me-a-hanzi-animation-2 {
         animation: keyframes2 1.058105s both;
         animation-delay: 1.945312s;
         animation-timing-function: linear;
       }
    @keyframes keyframes3 {
      from {
       stroke: black;
       stroke-dashoffset: 444;
       stroke-width: 128;
       }
       59% {
       animation-timing-function: step-end;
       stroke: black;
       stroke-dashoffset: 0;
       stroke-width: 128;
       }
       to {
       stroke: black;
       stroke-width: 1024;
       }
       }
       #make-me-a-hanzi-animation-3 {
         animation: keyframes3 0.611328s both;
         animation-delay: 3.003417s;
         animation-timing-function: linear;
       }
    @keyframes keyframes4 {
      from {
       stroke: black;
       stroke-dashoffset: 457;
       stroke-width: 128;
       }
       60% {
       animation-timing-function: step-end;
       stroke: black;
       stroke-dashoffset: 0;
       stroke-width: 128;
       }
       to {
       stroke: black;
       stroke-width: 1024;
       }
       }
       #make-me-a-hanzi-animation-4 {
         animation: keyframes4 0.621908s both;
         animation-delay: 3.614745s;
         animation-timing-function: linear;
       }
    @keyframes keyframes5 {
      from {
       stroke: black;
       stroke-dashoffset: 680;
       stroke-width: 128;
       }
       69% {
       animation-timing-function: step-end;
       stroke: black;
       stroke-dashoffset: 0;
       stroke-width: 128;
       }
       to {
       stroke: black;
       stroke-width: 1024;
       }
       }
       #make-me-a-hanzi-animation-5 {
         animation: keyframes5 0.803385s both;
         animation-delay: 4.236653s;
         animation-timing-function: linear;
       }
    @keyframes keyframes6 {
      from {
       stroke: black;
       stroke-dashoffset: 1284;
       stroke-width: 128;
       }
       81% {
       animation-timing-function: step-end;
       stroke: black;
       stroke-dashoffset: 0;
       stroke-width: 128;
       }
       to {
       stroke: black;
       stroke-width: 1024;
       }
       }
       #make-me-a-hanzi-animation-6 {
         animation: keyframes6 1.294922s both;
         animation-delay: 5.040038s;
         animation-timing-function: linear;
       }
    @keyframes keyframes7 {
      from {
       stroke: black;
       stroke-dashoffset: 639;
       stroke-width: 128;
       }
       68% {
       animation-timing-function: step-end;
       stroke: black;
       stroke-dashoffset: 0;
       stroke-width: 128;
       }
       to {
       stroke: black;
       stroke-width: 1024;
       }
       }
       #make-me-a-hanzi-animation-7 {
         animation: keyframes7 0.770020s both;
         animation-delay: 6.334960s;
         animation-timing-function: linear;
       }
    @keyframes keyframes8 {
      from {
       stroke: black;
       stroke-dashoffset: 831;
       stroke-width: 128;
       }
       73% {
       animation-timing-function: step-end;
       stroke: black;
       stroke-dashoffset: 0;
       stroke-width: 128;
       }
       to {
       stroke: black;
       stroke-width: 1024;
       }
       }
       #make-me-a-hanzi-animation-8 {
         animation: keyframes8 0.926270s both;
         animation-delay: 7.104980s;
         animation-timing-function: linear;
       }
    @keyframes keyframes9 {
      from {
       stroke: black;
       stroke-dashoffset: 879;
       stroke-width: 128;
       }
       74% {
       animation-timing-function: step-end;
       stroke: black;
       stroke-dashoffset: 0;
       stroke-width: 128;
       }
       to {
       stroke: black;
       stroke-width: 1024;
       }
       }
       #make-me-a-hanzi-animation-9 {
         animation: keyframes9 0.965332s both;
         animation-delay: 8.031250s;
         animation-timing-function: linear;
       }
    @keyframes keyframes10 {
      from {
       stroke: black;
       stroke-dashoffset: 689;
       stroke-width: 128;
       }
       69% {
       animation-timing-function: step-end;
       stroke: black;
       stroke-dashoffset: 0;
       stroke-width: 128;
       }
       to {
       stroke: black;
       stroke-width: 1024;
       }
       }
       #make-me-a-hanzi-animation-10 {
         animation: keyframes10 0.810710s both;
         animation-delay: 8.996582s;
         animation-timing-function: linear;
       }
</style>
<path d="M 332.0 583.5 Q 416.0 596.5 542.0 641.5 Q 670.0 690.5 679.0 690.5 Q 689.0 690.5 700.0 692.5 Q 706.0 696.5 706.0 697.5 Q 706.0 711.5 666.0 742.5 Q 626.0 774.5 610.0 774.5 Q 600.0 774.5 567.0 737.5 Q 526.0 695.5 472.0 665.5 Q 417.0 638.5 357.0 617.5 Q 336.0 612.5 320.0 608.5 C 291.0 601.5 302.0 578.5 332.0 583.5 Z" fill="lightgray"></path> 
<path d="M 499.0 382.5 Q 406.0 368.5 275.0 349.5 Q 335.0 500.5 335.0 562.5 Q 335.0 573.5 332.0 583.5 L 320.0 608.5 Q 305.0 624.5 283.0 625.5 Q 262.0 625.5 262.0 606.5 L 270.0 537.5 Q 270.0 425.5 224.0 372.5 Q 203.0 347.5 203.0 325.5 Q 203.0 311.5 213.0 298.5 Q 230.0 269.5 243.0 269.5 Q 259.0 269.5 275.0 279.5 Q 341.0 309.5 441.0 324.5 Q 471.0 328.5 499.0 331.5 L 555.0 339.5 Q 659.0 350.5 719.0 350.5 L 790.0 346.5 Q 809.0 347.5 811.0 365.5 Q 809.0 385.5 794.0 398.5 Q 775.0 413.5 738.0 413.5 Q 725.0 413.5 555.0 390.5 L 499.0 382.5 Z" fill="lightgray"></path> 
<path d="M 490.0 562.5 Q 463.0 562.5 463.0 550.5 Q 499.0 500.5 499.0 466.5 L 499.0 382.5 L 499.0 331.5 L 499.0 57.5 Q 499.0 21.5 478.0 21.5 Q 472.0 21.5 430.0 38.5 Q 396.0 50.5 383.0 50.5 Q 380.0 48.5 379.0 38.5 Q 412.0 2.5 461.0 -65.5 Q 485.0 -98.5 495.0 -98.5 Q 517.0 -98.5 538.0 -54.5 Q 558.0 -5.5 558.0 29.5 Q 558.0 54.5 556.0 146.5 Q 555.0 241.5 555.0 339.5 L 555.0 390.5 L 555.0 499.5 Q 558.0 507.5 558.0 514.5 Q 558.0 525.5 531.0 544.5 Q 505.0 562.5 490.0 562.5 Z" fill="lightgray"></path> 
<path d="M 291.0 214.5 Q 285.0 214.5 276.0 188.5 Q 269.0 166.5 227.0 121.5 Q 190.0 82.5 190.0 57.5 Q 190.0 17.5 218.0 17.5 Q 255.0 17.5 291.0 67.5 Q 314.0 101.5 314.0 126.5 Q 314.0 150.5 309.0 178.5 Q 304.0 214.5 291.0 214.5 Z" fill="lightgray"></path> 
<path d="M 671.0 218.5 Q 662.0 218.5 662.0 210.5 Q 662.0 207.5 684.0 178.5 Q 720.0 130.5 739.0 96.5 Q 774.0 42.5 803.0 42.5 Q 834.0 42.5 834.0 97.5 Q 834.0 124.5 809.0 148.5 Q 783.0 179.5 732.0 200.5 Q 691.0 218.5 671.0 218.5 Z" fill="lightgray"></path> 
<path d="M 1260.5 394.0 L 1214.5 405.0 Q 1193.5 408.0 1187.5 401.0 Q 1182.5 394.0 1193.5 376.0 Q 1202.5 367.0 1213.5 343.0 Q 1225.5 319.0 1236.5 251.0 L 1266.5 51.0 Q 1270.5 15.0 1280.5 -1.0 Q 1291.5 -17.0 1303.5 -16.0 Q 1315.5 -16.0 1316.5 2.0 L 1317.5 17.0 L 1315.5 57.0 L 1278.5 356.0 C 1274.5 386.0 1274.5 391.0 1260.5 394.0 Z" fill="lightgray"></path> 
<path d="M 1650.5 411.0 L 1694.5 417.0 L 1727.5 419.0 Q 1767.5 423.0 1780.5 411.0 Q 1784.5 405.0 1786.5 383.0 L 1788.5 348.0 L 1785.5 266.0 L 1779.5 212.0 Q 1771.5 129.0 1754.5 85.0 C 1745.5 56.0 1686.5 79.0 1702.5 54.0 L 1721.5 25.0 Q 1741.5 -30.0 1752.5 -35.0 Q 1759.5 -37.0 1764.5 -37.0 Q 1769.5 -37.0 1782.5 -26.0 Q 1811.5 -4.0 1829.5 58.0 Q 1838.5 94.0 1847.5 198.0 L 1854.5 299.0 Q 1861.5 370.0 1881.5 394.0 Q 1888.5 408.0 1889.5 413.0 Q 1888.5 432.0 1852.5 455.0 Q 1817.5 477.0 1802.5 478.0 Q 1788.5 479.0 1773.5 474.0 Q 1759.5 469.0 1731.5 465.0 Q 1703.5 461.0 1654.5 451.0 L 1590.5 442.0 L 1463.5 423.0 L 1409.5 416.0 L 1260.5 394.0 C 1230.5 390.0 1248.5 351.0 1278.5 356.0 L 1409.5 377.0 L 1465.5 385.0 L 1588.5 405.0 L 1650.5 411.0 Z" fill="lightgray"></path> 
<path d="M 1638.5 232.0 Q 1677.5 235.0 1721.5 237.0 Q 1736.5 239.0 1737.5 246.0 Q 1740.5 266.0 1728.5 276.0 Q 1704.5 297.0 1687.5 294.0 L 1642.5 290.0 L 1586.5 283.0 Q 1538.5 270.0 1511.5 266.0 Q 1484.5 261.0 1468.5 257.0 L 1414.5 254.0 Q 1391.5 252.0 1366.5 248.0 Q 1341.5 243.0 1337.5 237.0 Q 1333.5 223.0 1348.5 208.0 Q 1375.5 177.0 1401.5 188.0 Q 1412.5 192.0 1417.5 193.0 L 1469.5 206.0 Q 1531.5 219.0 1585.5 226.0 L 1638.5 232.0 Z" fill="lightgray"></path> 
<path d="M 1400.5 516.0 L 1409.5 416.0 L 1409.5 377.0 L 1414.5 254.0 L 1417.5 193.0 L 1422.5 70.0 C 1423.5 40.0 1470.5 43.0 1470.5 73.0 L 1469.5 206.0 L 1468.5 257.0 L 1465.5 385.0 L 1463.5 423.0 L 1465.5 501.0 Q 1465.5 545.0 1473.5 566.0 Q 1482.5 587.0 1481.5 595.0 Q 1480.5 602.0 1471.5 611.0 Q 1460.5 618.0 1446.5 621.0 Q 1387.5 642.0 1372.5 625.0 Q 1370.5 620.0 1375.5 608.0 L 1388.5 584.0 Q 1395.5 566.0 1400.5 516.0 Z" fill="lightgray"></path> 
<path d="M 1631.5 94.0 L 1638.5 232.0 L 1642.5 290.0 L 1650.5 411.0 L 1654.5 451.0 L 1661.5 604.0 Q 1664.5 619.0 1671.5 633.0 Q 1679.5 647.0 1679.5 651.0 Q 1680.5 665.0 1647.5 686.0 Q 1592.5 713.0 1576.5 696.0 Q 1571.5 690.0 1582.5 665.0 Q 1591.5 633.0 1591.5 568.0 L 1590.5 442.0 L 1588.5 405.0 L 1586.5 283.0 L 1585.5 226.0 L 1581.5 87.0 C 1580.5 57.0 1629.5 64.0 1631.5 94.0 Z" fill="lightgray"></path> 
<path d="M 1754.5 85.0 L 1735.5 94.0 Q 1712.5 107.0 1654.5 97.0 Q 1639.5 94.0 1631.5 94.0 L 1581.5 87.0 L 1470.5 73.0 L 1422.5 70.0 L 1315.5 57.0 C 1285.5 53.0 1287.5 16.0 1317.5 17.0 L 1381.5 20.0 L 1457.5 29.0 L 1702.5 54.0 C 1732.5 57.0 1781.5 72.0 1754.5 85.0 Z" fill="lightgray"></path> 
      <clipPath id="make-me-a-hanzi-clip-0">
      <path d="M 332.0 583.5 Q 416.0 596.5 542.0 641.5 Q 670.0 690.5 679.0 690.5 Q 689.0 690.5 700.0 692.5 Q 706.0 696.5 706.0 697.5 Q 706.0 711.5 666.0 742.5 Q 626.0 774.5 610.0 774.5 Q 600.0 774.5 567.0 737.5 Q 526.0 695.5 472.0 665.5 Q 417.0 638.5 357.0 617.5 Q 336.0 612.5 320.0 608.5 C 291.0 601.5 302.0 578.5 332.0 583.5 Z" fill="lightgray"></path>
      </clipPath>
      <path clip-path="url(#make-me-a-hanzi-clip-0)" d="M 699.0 699.5 L 678.0 709.5 L 616.0 720.5 L 544.0 673.5 L 459.0 635.5 L 361.0 602.5 L 340.0 599.5 L 327.0 604.5 " fill="none" id="make-me-a-hanzi-animation-0" stroke-dasharray="532 1064" stroke-linecap="round"></path>

      <clipPath id="make-me-a-hanzi-clip-1">
      <path d="M 499.0 382.5 Q 406.0 368.5 275.0 349.5 Q 335.0 500.5 335.0 562.5 Q 335.0 573.5 332.0 583.5 L 320.0 608.5 Q 305.0 624.5 283.0 625.5 Q 262.0 625.5 262.0 606.5 L 270.0 537.5 Q 270.0 425.5 224.0 372.5 Q 203.0 347.5 203.0 325.5 Q 203.0 311.5 213.0 298.5 Q 230.0 269.5 243.0 269.5 Q 259.0 269.5 275.0 279.5 Q 341.0 309.5 441.0 324.5 Q 471.0 328.5 499.0 331.5 L 555.0 339.5 Q 659.0 350.5 719.0 350.5 L 790.0 346.5 Q 809.0 347.5 811.0 365.5 Q 809.0 385.5 794.0 398.5 Q 775.0 413.5 738.0 413.5 Q 725.0 413.5 555.0 390.5 L 499.0 382.5 Z" fill="lightgray"></path>
      </clipPath>
      <path clip-path="url(#make-me-a-hanzi-clip-1)" d="M 280.0 608.5 L 292.0 595.5 L 300.0 571.5 L 300.0 519.5 L 280.0 426.5 L 244.0 348.5 L 242.0 330.5 L 252.0 314.5 L 400.0 343.5 L 622.0 373.5 L 742.0 381.5 L 778.0 375.5 L 791.0 366.5 " fill="none" id="make-me-a-hanzi-animation-1" stroke-dasharray="988 1976" stroke-linecap="round"></path>

      <clipPath id="make-me-a-hanzi-clip-2">
      <path d="M 490.0 562.5 Q 463.0 562.5 463.0 550.5 Q 499.0 500.5 499.0 466.5 L 499.0 382.5 L 499.0 331.5 L 499.0 57.5 Q 499.0 21.5 478.0 21.5 Q 472.0 21.5 430.0 38.5 Q 396.0 50.5 383.0 50.5 Q 380.0 48.5 379.0 38.5 Q 412.0 2.5 461.0 -65.5 Q 485.0 -98.5 495.0 -98.5 Q 517.0 -98.5 538.0 -54.5 Q 558.0 -5.5 558.0 29.5 Q 558.0 54.5 556.0 146.5 Q 555.0 241.5 555.0 339.5 L 555.0 390.5 L 555.0 499.5 Q 558.0 507.5 558.0 514.5 Q 558.0 525.5 531.0 544.5 Q 505.0 562.5 490.0 562.5 Z" fill="lightgray"></path>
      </clipPath>
      <path clip-path="url(#make-me-a-hanzi-clip-2)" d="M 476.0 547.5 L 492.0 542.5 L 520.0 514.5 L 527.0 474.5 L 526.0 24.5 L 514.0 -6.5 L 495.0 -26.5 L 462.0 -10.5 L 386.0 42.5 " fill="none" id="make-me-a-hanzi-animation-2" stroke-dasharray="865 1730" stroke-linecap="round"></path>

      <clipPath id="make-me-a-hanzi-clip-3">
      <path d="M 291.0 214.5 Q 285.0 214.5 276.0 188.5 Q 269.0 166.5 227.0 121.5 Q 190.0 82.5 190.0 57.5 Q 190.0 17.5 218.0 17.5 Q 255.0 17.5 291.0 67.5 Q 314.0 101.5 314.0 126.5 Q 314.0 150.5 309.0 178.5 Q 304.0 214.5 291.0 214.5 Z" fill="lightgray"></path>
      </clipPath>
      <path clip-path="url(#make-me-a-hanzi-clip-3)" d="M 292.0 206.5 L 293.0 185.5 L 278.0 123.5 L 216.0 41.5 " fill="none" id="make-me-a-hanzi-animation-3" stroke-dasharray="316 632" stroke-linecap="round"></path>

      <clipPath id="make-me-a-hanzi-clip-4">
      <path d="M 671.0 218.5 Q 662.0 218.5 662.0 210.5 Q 662.0 207.5 684.0 178.5 Q 720.0 130.5 739.0 96.5 Q 774.0 42.5 803.0 42.5 Q 834.0 42.5 834.0 97.5 Q 834.0 124.5 809.0 148.5 Q 783.0 179.5 732.0 200.5 Q 691.0 218.5 671.0 218.5 Z" fill="lightgray"></path>
      </clipPath>
      <path clip-path="url(#make-me-a-hanzi-clip-4)" d="M 669.0 211.5 L 728.0 170.5 L 767.0 132.5 L 804.0 67.5 " fill="none" id="make-me-a-hanzi-animation-4" stroke-dasharray="329 658" stroke-linecap="round"></path>

      <clipPath id="make-me-a-hanzi-clip-5">
      <path d="M 1260.5 394.0 L 1214.5 405.0 Q 1193.5 408.0 1187.5 401.0 Q 1182.5 394.0 1193.5 376.0 Q 1202.5 367.0 1213.5 343.0 Q 1225.5 319.0 1236.5 251.0 L 1266.5 51.0 Q 1270.5 15.0 1280.5 -1.0 Q 1291.5 -17.0 1303.5 -16.0 Q 1315.5 -16.0 1316.5 2.0 L 1317.5 17.0 L 1315.5 57.0 L 1278.5 356.0 C 1274.5 386.0 1274.5 391.0 1260.5 394.0 Z" fill="lightgray"></path>
      </clipPath>
      <path clip-path="url(#make-me-a-hanzi-clip-5)" d="M 1196.5 395.0 L 1231.5 372.0 L 1248.5 344.0 L 1292.5 32.0 L 1302.5 -1.0 " fill="none" id="make-me-a-hanzi-animation-5" stroke-dasharray="552 1104" stroke-linecap="round"></path>

      <clipPath id="make-me-a-hanzi-clip-6">
      <path d="M 1650.5 411.0 L 1694.5 417.0 L 1727.5 419.0 Q 1767.5 423.0 1780.5 411.0 Q 1784.5 405.0 1786.5 383.0 L 1788.5 348.0 L 1785.5 266.0 L 1779.5 212.0 Q 1771.5 129.0 1754.5 85.0 C 1745.5 56.0 1686.5 79.0 1702.5 54.0 L 1721.5 25.0 Q 1741.5 -30.0 1752.5 -35.0 Q 1759.5 -37.0 1764.5 -37.0 Q 1769.5 -37.0 1782.5 -26.0 Q 1811.5 -4.0 1829.5 58.0 Q 1838.5 94.0 1847.5 198.0 L 1854.5 299.0 Q 1861.5 370.0 1881.5 394.0 Q 1888.5 408.0 1889.5 413.0 Q 1888.5 432.0 1852.5 455.0 Q 1817.5 477.0 1802.5 478.0 Q 1788.5 479.0 1773.5 474.0 Q 1759.5 469.0 1731.5 465.0 Q 1703.5 461.0 1654.5 451.0 L 1590.5 442.0 L 1463.5 423.0 L 1409.5 416.0 L 1260.5 394.0 C 1230.5 390.0 1248.5 351.0 1278.5 356.0 L 1409.5 377.0 L 1465.5 385.0 L 1588.5 405.0 L 1650.5 411.0 Z" fill="lightgray"></path>
      </clipPath>
      <path clip-path="url(#make-me-a-hanzi-clip-6)" d="M 1268.5 390.0 L 1290.5 378.0 L 1743.5 444.0 L 1788.5 445.0 L 1811.5 434.0 L 1832.5 410.0 L 1810.5 169.0 L 1793.5 77.0 L 1769.5 37.0 L 1711.5 53.0 " fill="none" id="make-me-a-hanzi-animation-6" stroke-dasharray="1156 2312" stroke-linecap="round"></path>

      <clipPath id="make-me-a-hanzi-clip-7">
      <path d="M 1638.5 232.0 Q 1677.5 235.0 1721.5 237.0 Q 1736.5 239.0 1737.5 246.0 Q 1740.5 266.0 1728.5 276.0 Q 1704.5 297.0 1687.5 294.0 L 1642.5 290.0 L 1586.5 283.0 Q 1538.5 270.0 1511.5 266.0 Q 1484.5 261.0 1468.5 257.0 L 1414.5 254.0 Q 1391.5 252.0 1366.5 248.0 Q 1341.5 243.0 1337.5 237.0 Q 1333.5 223.0 1348.5 208.0 Q 1375.5 177.0 1401.5 188.0 Q 1412.5 192.0 1417.5 193.0 L 1469.5 206.0 Q 1531.5 219.0 1585.5 226.0 L 1638.5 232.0 Z" fill="lightgray"></path>
      </clipPath>
      <path clip-path="url(#make-me-a-hanzi-clip-7)" d="M 1348.5 230.0 L 1384.5 218.0 L 1584.5 255.0 L 1691.5 265.0 L 1723.5 252.0 " fill="none" id="make-me-a-hanzi-animation-7" stroke-dasharray="511 1022" stroke-linecap="round"></path>

      <clipPath id="make-me-a-hanzi-clip-8">
      <path d="M 1400.5 516.0 L 1409.5 416.0 L 1409.5 377.0 L 1414.5 254.0 L 1417.5 193.0 L 1422.5 70.0 C 1423.5 40.0 1470.5 43.0 1470.5 73.0 L 1469.5 206.0 L 1468.5 257.0 L 1465.5 385.0 L 1463.5 423.0 L 1465.5 501.0 Q 1465.5 545.0 1473.5 566.0 Q 1482.5 587.0 1481.5 595.0 Q 1480.5 602.0 1471.5 611.0 Q 1460.5 618.0 1446.5 621.0 Q 1387.5 642.0 1372.5 625.0 Q 1370.5 620.0 1375.5 608.0 L 1388.5 584.0 Q 1395.5 566.0 1400.5 516.0 Z" fill="lightgray"></path>
      </clipPath>
      <path clip-path="url(#make-me-a-hanzi-clip-8)" d="M 1380.5 621.0 L 1433.5 579.0 L 1445.5 97.0 L 1428.5 78.0 " fill="none" id="make-me-a-hanzi-animation-8" stroke-dasharray="703 1406" stroke-linecap="round"></path>

      <clipPath id="make-me-a-hanzi-clip-9">
      <path d="M 1631.5 94.0 L 1638.5 232.0 L 1642.5 290.0 L 1650.5 411.0 L 1654.5 451.0 L 1661.5 604.0 Q 1664.5 619.0 1671.5 633.0 Q 1679.5 647.0 1679.5 651.0 Q 1680.5 665.0 1647.5 686.0 Q 1592.5 713.0 1576.5 696.0 Q 1571.5 690.0 1582.5 665.0 Q 1591.5 633.0 1591.5 568.0 L 1590.5 442.0 L 1588.5 405.0 L 1586.5 283.0 L 1585.5 226.0 L 1581.5 87.0 C 1580.5 57.0 1629.5 64.0 1631.5 94.0 Z" fill="lightgray"></path>
      </clipPath>
      <path clip-path="url(#make-me-a-hanzi-clip-9)" d="M 1586.5 690.0 L 1610.5 672.0 L 1630.5 646.0 L 1607.5 116.0 L 1586.5 95.0 " fill="none" id="make-me-a-hanzi-animation-9" stroke-dasharray="751 1502" stroke-linecap="round"></path>

      <clipPath id="make-me-a-hanzi-clip-10">
      <path d="M 1754.5 85.0 L 1735.5 94.0 Q 1712.5 107.0 1654.5 97.0 Q 1639.5 94.0 1631.5 94.0 L 1581.5 87.0 L 1470.5 73.0 L 1422.5 70.0 L 1315.5 57.0 C 1285.5 53.0 1287.5 16.0 1317.5 17.0 L 1381.5 20.0 L 1457.5 29.0 L 1702.5 54.0 C 1732.5 57.0 1781.5 72.0 1754.5 85.0 Z" fill="lightgray"></path>
      </clipPath>
      <path clip-path="url(#make-me-a-hanzi-clip-10)" d="M 1323.5 24.0 L 1340.5 40.0 L 1570.5 62.0 L 1717.5 83.0 L 1747.5 82.0 " fill="none" id="make-me-a-hanzi-animation-10" stroke-dasharray="561 1122" stroke-linecap="round"></path>

</g>
</svg>
