<svg version="1.1" viewBox="0 0 4096 1024" xmlns="http://www.w3.org/2000/svg">
  <g stroke="lightgray" stroke-dasharray="1,1" stroke-width="1" transform="scale(4, 4)">
    <line x1="0" y1="0" x2="256" y2="256"></line>
    <line x1="256" y1="0" x2="0" y2="256"></line>
    <line x1="128" y1="0" x2="128" y2="256"></line>
    <line x1="0" y1="128" x2="256" y2="128"></line>
    <line x1="256" y1="0" x2="512" y2="256"></line>
    <line x1="512" y1="0" x2="256" y2="256"></line>
    <line x1="384" y1="0" x2="384" y2="256"></line>
    <line x1="256" y1="128" x2="512" y2="128"></line>
    <line x1="512" y1="0" x2="768" y2="256"></line>
    <line x1="768" y1="0" x2="512" y2="256"></line>
    <line x1="640" y1="0" x2="640" y2="256"></line>
    <line x1="512" y1="128" x2="768" y2="128"></line>
    <line x1="768" y1="0" x2="1024" y2="256"></line>
    <line x1="1024" y1="0" x2="768" y2="256"></line>
    <line x1="896" y1="0" x2="896" y2="256"></line>
    <line x1="768" y1="128" x2="1024" y2="128"></line>
  </g>
<g transform="scale(1, -1) translate(0, -850)">
   <style type="text/css">
    @keyframes keyframes0 {
      from {
       stroke: black;
       stroke-dashoffset: 640;
       stroke-width: 128;
       }
       68% {
       animation-timing-function: step-end;
       stroke: black;
       stroke-dashoffset: 0;
       stroke-width: 128;
       }
       to {
       stroke: black;
       stroke-width: 1024;
       }
       }
       #make-me-a-hanzi-animation-0 {
         animation: keyframes0 0.770833s both;
         animation-delay: 0.000000s;
         animation-timing-function: linear;
       }
    @keyframes keyframes1 {
      from {
       stroke: black;
       stroke-dashoffset: 638;
       stroke-width: 128;
       }
       67% {
       animation-timing-function: step-end;
       stroke: black;
       stroke-dashoffset: 0;
       stroke-width: 128;
       }
       to {
       stroke: black;
       stroke-width: 1024;
       }
       }
       #make-me-a-hanzi-animation-1 {
         animation: keyframes1 0.769206s both;
         animation-delay: 0.770833s;
         animation-timing-function: linear;
       }
    @keyframes keyframes2 {
      from {
       stroke: black;
       stroke-dashoffset: 883;
       stroke-width: 128;
       }
       74% {
       animation-timing-function: step-end;
       stroke: black;
       stroke-dashoffset: 0;
       stroke-width: 128;
       }
       to {
       stroke: black;
       stroke-width: 1024;
       }
       }
       #make-me-a-hanzi-animation-2 {
         animation: keyframes2 0.968587s both;
         animation-delay: 1.540039s;
         animation-timing-function: linear;
       }
    @keyframes keyframes3 {
      from {
       stroke: black;
       stroke-dashoffset: 1048;
       stroke-width: 128;
       }
       77% {
       animation-timing-function: step-end;
       stroke: black;
       stroke-dashoffset: 0;
       stroke-width: 128;
       }
       to {
       stroke: black;
       stroke-width: 1024;
       }
       }
       #make-me-a-hanzi-animation-3 {
         animation: keyframes3 1.102865s both;
         animation-delay: 2.508626s;
         animation-timing-function: linear;
       }
    @keyframes keyframes4 {
      from {
       stroke: black;
       stroke-dashoffset: 671;
       stroke-width: 128;
       }
       69% {
       animation-timing-function: step-end;
       stroke: black;
       stroke-dashoffset: 0;
       stroke-width: 128;
       }
       to {
       stroke: black;
       stroke-width: 1024;
       }
       }
       #make-me-a-hanzi-animation-4 {
         animation: keyframes4 0.796061s both;
         animation-delay: 3.611491s;
         animation-timing-function: linear;
       }
    @keyframes keyframes5 {
      from {
       stroke: black;
       stroke-dashoffset: 890;
       stroke-width: 128;
       }
       74% {
       animation-timing-function: step-end;
       stroke: black;
       stroke-dashoffset: 0;
       stroke-width: 128;
       }
       to {
       stroke: black;
       stroke-width: 1024;
       }
       }
       #make-me-a-hanzi-animation-5 {
         animation: keyframes5 0.974284s both;
         animation-delay: 4.407552s;
         animation-timing-function: linear;
       }
    @keyframes keyframes6 {
      from {
       stroke: black;
       stroke-dashoffset: 531;
       stroke-width: 128;
       }
       63% {
       animation-timing-function: step-end;
       stroke: black;
       stroke-dashoffset: 0;
       stroke-width: 128;
       }
       to {
       stroke: black;
       stroke-width: 1024;
       }
       }
       #make-me-a-hanzi-animation-6 {
         animation: keyframes6 0.682129s both;
         animation-delay: 5.381836s;
         animation-timing-function: linear;
       }
    @keyframes keyframes7 {
      from {
       stroke: black;
       stroke-dashoffset: 641;
       stroke-width: 128;
       }
       68% {
       animation-timing-function: step-end;
       stroke: black;
       stroke-dashoffset: 0;
       stroke-width: 128;
       }
       to {
       stroke: black;
       stroke-width: 1024;
       }
       }
       #make-me-a-hanzi-animation-7 {
         animation: keyframes7 0.771647s both;
         animation-delay: 6.063965s;
         animation-timing-function: linear;
       }
    @keyframes keyframes8 {
      from {
       stroke: black;
       stroke-dashoffset: 693;
       stroke-width: 128;
       }
       69% {
       animation-timing-function: step-end;
       stroke: black;
       stroke-dashoffset: 0;
       stroke-width: 128;
       }
       to {
       stroke: black;
       stroke-width: 1024;
       }
       }
       #make-me-a-hanzi-animation-8 {
         animation: keyframes8 0.813965s both;
         animation-delay: 6.835612s;
         animation-timing-function: linear;
       }
    @keyframes keyframes9 {
      from {
       stroke: black;
       stroke-dashoffset: 940;
       stroke-width: 128;
       }
       75% {
       animation-timing-function: step-end;
       stroke: black;
       stroke-dashoffset: 0;
       stroke-width: 128;
       }
       to {
       stroke: black;
       stroke-width: 1024;
       }
       }
       #make-me-a-hanzi-animation-9 {
         animation: keyframes9 1.014974s both;
         animation-delay: 7.649577s;
         animation-timing-function: linear;
       }
    @keyframes keyframes10 {
      from {
       stroke: black;
       stroke-dashoffset: 762;
       stroke-width: 128;
       }
       71% {
       animation-timing-function: step-end;
       stroke: black;
       stroke-dashoffset: 0;
       stroke-width: 128;
       }
       to {
       stroke: black;
       stroke-width: 1024;
       }
       }
       #make-me-a-hanzi-animation-10 {
         animation: keyframes10 0.870117s both;
         animation-delay: 8.664551s;
         animation-timing-function: linear;
       }
    @keyframes keyframes11 {
      from {
       stroke: black;
       stroke-dashoffset: 1132;
       stroke-width: 128;
       }
       79% {
       animation-timing-function: step-end;
       stroke: black;
       stroke-dashoffset: 0;
       stroke-width: 128;
       }
       to {
       stroke: black;
       stroke-width: 1024;
       }
       }
       #make-me-a-hanzi-animation-11 {
         animation: keyframes11 1.171224s both;
         animation-delay: 9.534668s;
         animation-timing-function: linear;
       }
    @keyframes keyframes12 {
      from {
       stroke: black;
       stroke-dashoffset: 517;
       stroke-width: 128;
       }
       63% {
       animation-timing-function: step-end;
       stroke: black;
       stroke-dashoffset: 0;
       stroke-width: 128;
       }
       to {
       stroke: black;
       stroke-width: 1024;
       }
       }
       #make-me-a-hanzi-animation-12 {
         animation: keyframes12 0.670736s both;
         animation-delay: 10.705892s;
         animation-timing-function: linear;
       }
    @keyframes keyframes13 {
      from {
       stroke: black;
       stroke-dashoffset: 473;
       stroke-width: 128;
       }
       61% {
       animation-timing-function: step-end;
       stroke: black;
       stroke-dashoffset: 0;
       stroke-width: 128;
       }
       to {
       stroke: black;
       stroke-width: 1024;
       }
       }
       #make-me-a-hanzi-animation-13 {
         animation: keyframes13 0.634928s both;
         animation-delay: 11.376628s;
         animation-timing-function: linear;
       }
    @keyframes keyframes14 {
      from {
       stroke: black;
       stroke-dashoffset: 590;
       stroke-width: 128;
       }
       66% {
       animation-timing-function: step-end;
       stroke: black;
       stroke-dashoffset: 0;
       stroke-width: 128;
       }
       to {
       stroke: black;
       stroke-width: 1024;
       }
       }
       #make-me-a-hanzi-animation-14 {
         animation: keyframes14 0.730143s both;
         animation-delay: 12.011556s;
         animation-timing-function: linear;
       }
    @keyframes keyframes15 {
      from {
       stroke: black;
       stroke-dashoffset: 621;
       stroke-width: 128;
       }
       67% {
       animation-timing-function: step-end;
       stroke: black;
       stroke-dashoffset: 0;
       stroke-width: 128;
       }
       to {
       stroke: black;
       stroke-width: 1024;
       }
       }
       #make-me-a-hanzi-animation-15 {
         animation: keyframes15 0.755371s both;
         animation-delay: 12.741699s;
         animation-timing-function: linear;
       }
    @keyframes keyframes16 {
      from {
       stroke: black;
       stroke-dashoffset: 1121;
       stroke-width: 128;
       }
       78% {
       animation-timing-function: step-end;
       stroke: black;
       stroke-dashoffset: 0;
       stroke-width: 128;
       }
       to {
       stroke: black;
       stroke-width: 1024;
       }
       }
       #make-me-a-hanzi-animation-16 {
         animation: keyframes16 1.162272s both;
         animation-delay: 13.497070s;
         animation-timing-function: linear;
       }
    @keyframes keyframes17 {
      from {
       stroke: black;
       stroke-dashoffset: 471;
       stroke-width: 128;
       }
       61% {
       animation-timing-function: step-end;
       stroke: black;
       stroke-dashoffset: 0;
       stroke-width: 128;
       }
       to {
       stroke: black;
       stroke-width: 1024;
       }
       }
       #make-me-a-hanzi-animation-17 {
         animation: keyframes17 0.633301s both;
         animation-delay: 14.659342s;
         animation-timing-function: linear;
       }
    @keyframes keyframes18 {
      from {
       stroke: black;
       stroke-dashoffset: 468;
       stroke-width: 128;
       }
       60% {
       animation-timing-function: step-end;
       stroke: black;
       stroke-dashoffset: 0;
       stroke-width: 128;
       }
       to {
       stroke: black;
       stroke-width: 1024;
       }
       }
       #make-me-a-hanzi-animation-18 {
         animation: keyframes18 0.630859s both;
         animation-delay: 15.292643s;
         animation-timing-function: linear;
       }
    @keyframes keyframes19 {
      from {
       stroke: black;
       stroke-dashoffset: 974;
       stroke-width: 128;
       }
       76% {
       animation-timing-function: step-end;
       stroke: black;
       stroke-dashoffset: 0;
       stroke-width: 128;
       }
       to {
       stroke: black;
       stroke-width: 1024;
       }
       }
       #make-me-a-hanzi-animation-19 {
         animation: keyframes19 1.042643s both;
         animation-delay: 15.923502s;
         animation-timing-function: linear;
       }
    @keyframes keyframes20 {
      from {
       stroke: black;
       stroke-dashoffset: 378;
       stroke-width: 128;
       }
       55% {
       animation-timing-function: step-end;
       stroke: black;
       stroke-dashoffset: 0;
       stroke-width: 128;
       }
       to {
       stroke: black;
       stroke-width: 1024;
       }
       }
       #make-me-a-hanzi-animation-20 {
         animation: keyframes20 0.557617s both;
         animation-delay: 16.966145s;
         animation-timing-function: linear;
       }
    @keyframes keyframes21 {
      from {
       stroke: black;
       stroke-dashoffset: 437;
       stroke-width: 128;
       }
       59% {
       animation-timing-function: step-end;
       stroke: black;
       stroke-dashoffset: 0;
       stroke-width: 128;
       }
       to {
       stroke: black;
       stroke-width: 1024;
       }
       }
       #make-me-a-hanzi-animation-21 {
         animation: keyframes21 0.605632s both;
         animation-delay: 17.523762s;
         animation-timing-function: linear;
       }
    @keyframes keyframes22 {
      from {
       stroke: black;
       stroke-dashoffset: 621;
       stroke-width: 128;
       }
       67% {
       animation-timing-function: step-end;
       stroke: black;
       stroke-dashoffset: 0;
       stroke-width: 128;
       }
       to {
       stroke: black;
       stroke-width: 1024;
       }
       }
       #make-me-a-hanzi-animation-22 {
         animation: keyframes22 0.755371s both;
         animation-delay: 18.129394s;
         animation-timing-function: linear;
       }
    @keyframes keyframes23 {
      from {
       stroke: black;
       stroke-dashoffset: 995;
       stroke-width: 128;
       }
       76% {
       animation-timing-function: step-end;
       stroke: black;
       stroke-dashoffset: 0;
       stroke-width: 128;
       }
       to {
       stroke: black;
       stroke-width: 1024;
       }
       }
       #make-me-a-hanzi-animation-23 {
         animation: keyframes23 1.059733s both;
         animation-delay: 18.884765s;
         animation-timing-function: linear;
       }
    @keyframes keyframes24 {
      from {
       stroke: black;
       stroke-dashoffset: 802;
       stroke-width: 128;
       }
       72% {
       animation-timing-function: step-end;
       stroke: black;
       stroke-dashoffset: 0;
       stroke-width: 128;
       }
       to {
       stroke: black;
       stroke-width: 1024;
       }
       }
       #make-me-a-hanzi-animation-24 {
         animation: keyframes24 0.902669s both;
         animation-delay: 19.944498s;
         animation-timing-function: linear;
       }
    @keyframes keyframes25 {
      from {
       stroke: black;
       stroke-dashoffset: 550;
       stroke-width: 128;
       }
       64% {
       animation-timing-function: step-end;
       stroke: black;
       stroke-dashoffset: 0;
       stroke-width: 128;
       }
       to {
       stroke: black;
       stroke-width: 1024;
       }
       }
       #make-me-a-hanzi-animation-25 {
         animation: keyframes25 0.697591s both;
         animation-delay: 20.847167s;
         animation-timing-function: linear;
       }
    @keyframes keyframes26 {
      from {
       stroke: black;
       stroke-dashoffset: 769;
       stroke-width: 128;
       }
       71% {
       animation-timing-function: step-end;
       stroke: black;
       stroke-dashoffset: 0;
       stroke-width: 128;
       }
       to {
       stroke: black;
       stroke-width: 1024;
       }
       }
       #make-me-a-hanzi-animation-26 {
         animation: keyframes26 0.875814s both;
         animation-delay: 21.544758s;
         animation-timing-function: linear;
       }
    @keyframes keyframes27 {
      from {
       stroke: black;
       stroke-dashoffset: 568;
       stroke-width: 128;
       }
       65% {
       animation-timing-function: step-end;
       stroke: black;
       stroke-dashoffset: 0;
       stroke-width: 128;
       }
       to {
       stroke: black;
       stroke-width: 1024;
       }
       }
       #make-me-a-hanzi-animation-27 {
         animation: keyframes27 0.712240s both;
         animation-delay: 22.420572s;
         animation-timing-function: linear;
       }
</style>
<path d="M 240.0 503.5 Q 229.0 493.5 226.0 490.5 Q 225.0 487.5 225.0 485.5 Q 225.0 480.5 234.0 480.5 Q 245.0 480.5 272.0 495.5 Q 308.0 514.5 354.0 548.5 Q 391.0 577.5 433.0 619.5 L 459.0 643.5 Q 486.0 671.5 504.0 681.5 Q 514.0 689.5 514.0 701.5 L 514.0 703.5 Q 511.0 717.5 490.0 741.5 Q 470.0 764.5 452.0 767.5 L 449.0 767.5 Q 438.0 767.5 438.0 753.5 L 438.0 747.5 Q 439.0 740.5 439.0 734.5 Q 439.0 718.5 432.0 707.5 Q 396.0 650.5 348.0 601.5 Q 300.0 552.5 240.0 503.5 Z" fill="lightgray"></path> 
<path d="M 433.0 619.5 Q 441.0 614.5 454.0 613.5 Q 468.0 613.5 561.0 629.5 L 566.0 629.5 Q 574.0 629.5 576.0 627.5 Q 578.0 625.5 578.0 622.5 Q 578.0 617.5 574.0 610.5 Q 517.0 517.5 486.0 475.5 C 468.0 451.5 505.0 462.5 526.0 483.5 Q 547.0 503.5 577.0 536.5 Q 629.0 592.5 675.0 620.5 Q 687.0 627.5 687.0 635.5 Q 687.0 639.5 682.0 644.5 Q 668.0 658.5 629.0 679.5 Q 621.0 683.5 614.0 683.5 Q 605.0 683.5 597.0 678.5 Q 585.0 670.5 494.0 648.5 Q 477.0 644.5 459.0 643.5 C 429.0 640.5 405.0 630.5 433.0 619.5 Z" fill="lightgray"></path> 
<path d="M 486.0 475.5 Q 399.0 460.5 309.0 454.5 Q 293.0 452.5 293.0 444.5 L 293.0 443.5 Q 295.0 433.5 314.0 427.5 Q 327.0 423.5 344.0 423.5 Q 359.0 423.5 377.0 426.5 Q 416.0 434.5 453.0 440.5 L 504.0 448.5 Q 556.0 458.5 607.0 465.5 Q 616.0 466.5 623.0 466.5 Q 641.0 466.5 648.0 458.5 Q 659.0 447.5 659.0 427.5 Q 659.0 422.5 658.0 417.5 Q 654.0 396.5 651.0 377.5 L 642.0 331.5 Q 633.0 294.5 624.0 261.5 C 616.0 232.5 667.0 221.5 674.0 250.5 Q 685.0 299.5 695.0 332.5 L 716.0 387.5 L 717.0 388.5 Q 733.0 416.5 751.0 437.5 Q 760.0 448.5 760.0 457.5 Q 760.0 466.5 752.0 474.5 Q 735.0 491.5 681.0 518.5 Q 674.0 521.5 665.0 521.5 Q 653.0 521.5 638.0 515.5 Q 580.0 495.5 526.0 483.5 L 486.0 475.5 Z" fill="lightgray"></path> 
<path d="M 467.0 354.5 Q 306.0 335.5 122.0 319.5 Q 109.0 318.5 109.0 311.5 Q 109.0 307.5 116.0 299.5 Q 130.0 284.5 148.0 278.5 Q 161.0 275.5 173.0 275.5 Q 180.0 275.5 187.0 276.5 Q 308.0 300.5 443.0 315.5 Q 456.0 318.5 468.0 318.5 L 522.0 325.5 Q 581.0 330.5 642.0 331.5 L 695.0 332.5 Q 720.0 331.5 744.0 331.5 Q 860.0 330.5 888.0 330.5 Q 910.0 330.5 914.0 339.5 Q 915.0 342.5 915.0 345.5 Q 915.0 355.5 903.0 365.5 Q 873.0 388.5 852.0 397.5 Q 841.0 401.5 826.0 401.5 Q 819.0 401.5 811.0 400.5 Q 768.0 393.5 716.0 387.5 L 651.0 377.5 Q 590.0 370.5 523.0 361.5 L 467.0 354.5 Z" fill="lightgray"></path> 
<path d="M 468.0 233.5 Q 369.0 217.5 287.0 211.5 Q 271.0 210.5 271.0 201.5 Q 271.0 196.5 277.0 188.5 Q 286.0 176.5 296.0 173.5 Q 304.0 170.5 313.0 170.5 Q 318.0 170.5 324.0 171.5 Q 381.0 183.5 468.0 192.5 L 520.0 197.5 Q 595.0 204.5 688.0 208.5 Q 702.0 210.5 702.0 219.5 Q 702.0 229.5 674.0 250.5 C 652.0 268.5 652.0 268.5 624.0 261.5 Q 618.0 259.5 612.0 258.5 Q 563.0 248.5 520.0 241.5 L 468.0 233.5 Z" fill="lightgray"></path> 
<path d="M 453.0 440.5 Q 455.0 436.5 456.0 433.5 Q 467.0 410.5 467.0 374.5 L 467.0 354.5 L 468.0 318.5 L 468.0 233.5 L 468.0 192.5 L 468.0 49.5 Q 467.0 16.5 455.0 7.5 Q 450.0 3.5 439.0 3.5 Q 431.0 3.5 418.0 6.5 Q 387.0 18.5 348.0 28.5 Q 345.0 29.5 343.0 29.5 Q 337.0 29.5 337.0 24.5 Q 338.0 15.5 348.0 8.5 Q 423.0 -45.5 469.0 -87.5 Q 474.0 -91.5 478.0 -91.5 Q 486.0 -91.5 493.0 -81.5 Q 505.0 -65.5 517.0 -32.5 Q 527.0 -5.5 527.0 27.5 Q 527.0 35.5 526.0 43.5 L 521.0 183.5 Q 520.0 191.5 520.0 197.5 L 520.0 241.5 L 522.0 325.5 L 523.0 361.5 Q 525.0 379.5 526.0 394.5 Q 527.0 403.5 527.0 411.5 Q 527.0 425.5 523.0 432.5 Q 519.0 439.5 504.0 448.5 C 480.0 466.5 442.0 468.5 453.0 440.5 Z" fill="lightgray"></path> 
<path d="M 1335.0 499.5 L 1359.0 544.5 Q 1365.0 557.5 1367.0 559.5 L 1380.0 572.5 Q 1392.0 587.5 1381.0 597.5 Q 1377.0 602.5 1357.0 616.5 Q 1337.0 629.5 1331.0 630.5 L 1319.0 630.5 L 1306.0 627.5 Q 1301.0 623.5 1302.0 600.5 Q 1303.0 576.5 1298.0 545.5 Q 1297.0 539.5 1284.0 496.5 Q 1265.0 440.5 1263.0 437.5 L 1235.0 380.5 Q 1232.0 373.5 1235.0 369.5 Q 1238.0 364.5 1244.0 369.5 L 1254.0 376.5 Q 1263.0 385.5 1286.0 415.5 Q 1309.0 444.5 1312.0 452.5 Q 1316.0 458.5 1327.0 479.5 L 1335.0 499.5 Z" fill="lightgray"></path> 
<path d="M 1646.0 577.5 L 1606.0 564.5 L 1539.0 547.5 L 1480.0 531.5 L 1335.0 499.5 C 1306.0 493.5 1299.0 489.5 1327.0 479.5 L 1350.0 471.5 Q 1356.0 467.5 1368.0 467.5 L 1396.0 472.5 Q 1417.0 479.5 1432.0 480.5 Q 1480.0 491.5 1480.0 492.5 L 1539.0 503.5 L 1710.0 531.5 Q 1722.0 532.5 1722.0 541.5 Q 1722.0 549.5 1712.0 553.5 Q 1706.0 557.5 1693.0 562.5 L 1667.0 571.5 Q 1651.0 577.5 1646.0 577.5 Z" fill="lightgray"></path> 
<path d="M 1539.0 547.5 L 1550.0 668.5 Q 1554.0 687.5 1558.0 694.5 Q 1562.0 700.5 1566.0 711.5 L 1573.0 725.5 Q 1573.0 730.5 1569.0 735.5 Q 1549.0 755.5 1508.0 769.5 L 1493.0 772.5 Q 1489.0 772.5 1487.0 774.5 L 1485.0 774.5 Q 1458.0 776.5 1455.0 769.5 Q 1452.0 761.5 1454.0 758.5 Q 1482.0 718.5 1482.0 638.5 L 1480.0 531.5 L 1480.0 492.5 L 1480.0 353.5 C 1480.0 323.5 1532.0 329.5 1533.0 359.5 L 1539.0 503.5 L 1539.0 547.5 Z" fill="lightgray"></path> 
<path d="M 1480.0 353.5 L 1266.0 321.5 Q 1223.0 315.5 1174.0 311.5 L 1152.0 309.5 Q 1140.0 307.5 1139.0 301.5 Q 1137.0 295.5 1145.0 288.5 Q 1152.0 281.5 1159.0 277.5 L 1184.0 262.5 Q 1195.0 256.5 1202.0 257.5 Q 1208.0 257.5 1226.0 263.5 Q 1243.0 269.5 1268.0 275.5 Q 1292.0 281.5 1296.0 281.5 L 1377.0 297.5 L 1406.0 304.5 L 1525.0 319.5 L 1573.0 322.5 L 1663.0 327.5 Q 1690.0 329.5 1758.0 326.5 L 1785.0 325.5 Q 1826.0 324.5 1831.0 328.5 Q 1835.0 331.5 1836.0 337.5 Q 1836.0 343.5 1822.0 357.5 Q 1807.0 370.5 1787.0 379.5 Q 1763.0 387.5 1755.0 387.5 Q 1746.0 387.5 1718.0 382.5 Q 1690.0 376.5 1659.0 373.5 L 1533.0 359.5 L 1480.0 353.5 Z" fill="lightgray"></path> 
<path d="M 1377.0 297.5 L 1380.0 290.5 Q 1381.0 289.5 1376.0 267.5 Q 1371.0 245.5 1355.0 209.5 Q 1338.0 172.5 1325.0 152.5 Q 1313.0 130.5 1279.0 88.5 Q 1252.0 58.5 1210.0 19.5 Q 1168.0 -20.5 1131.0 -42.5 L 1115.0 -52.5 Q 1099.0 -60.5 1102.0 -67.5 Q 1103.0 -72.5 1112.0 -70.5 L 1130.0 -66.5 L 1161.0 -56.5 Q 1173.0 -52.5 1211.0 -31.5 Q 1249.0 -10.5 1269.0 2.5 Q 1289.0 15.5 1328.0 60.5 Q 1366.0 105.5 1377.0 121.5 L 1416.0 181.5 Q 1426.0 199.5 1440.0 213.5 Q 1454.0 226.5 1455.0 231.5 Q 1463.0 250.5 1444.0 272.5 Q 1429.0 292.5 1406.0 304.5 C 1380.0 320.5 1373.0 324.5 1377.0 297.5 Z" fill="lightgray"></path> 
<path d="M 1525.0 319.5 L 1529.0 305.5 Q 1536.0 272.5 1535.0 251.5 L 1527.0 130.5 Q 1525.0 94.5 1525.0 71.5 Q 1524.0 3.5 1573.0 -48.5 Q 1622.0 -100.5 1716.0 -100.5 Q 1810.0 -100.5 1889.0 -72.5 Q 1928.0 -58.5 1944.0 -42.5 Q 1973.0 -17.5 1969.0 -0.5 Q 1968.0 5.5 1959.0 19.5 Q 1943.0 56.5 1932.0 116.5 L 1928.0 148.5 Q 1926.0 157.5 1921.0 158.5 Q 1914.0 158.5 1913.0 152.5 L 1902.0 81.5 Q 1893.0 30.5 1868.0 5.5 Q 1833.0 -28.5 1719.0 -31.5 Q 1676.0 -32.5 1655.0 -22.5 Q 1628.0 -16.5 1611.0 0.5 Q 1574.0 31.5 1578.0 95.5 Q 1580.0 130.5 1585.0 167.5 Q 1595.0 222.5 1608.0 247.5 Q 1621.0 272.5 1622.0 276.5 Q 1623.0 280.5 1621.0 292.5 Q 1622.0 297.5 1605.0 305.5 L 1573.0 322.5 C 1547.0 336.5 1518.0 348.5 1525.0 319.5 Z" fill="lightgray"></path> 
<path d="M 2375.5 627.0 L 2457.5 640.0 Q 2481.5 643.0 2487.5 649.0 Q 2493.5 655.0 2493.5 658.0 L 2491.5 664.0 Q 2490.5 666.0 2481.5 671.0 L 2436.5 685.0 Q 2432.5 685.0 2401.5 674.0 L 2360.5 665.0 Q 2333.5 658.0 2312.5 656.0 L 2244.5 646.0 L 2218.5 644.0 Q 2207.5 640.0 2217.5 629.0 Q 2228.5 618.0 2258.5 614.0 Q 2281.5 614.0 2285.5 615.0 L 2323.5 619.0 L 2375.5 627.0 Z" fill="lightgray"></path> 
<path d="M 2323.5 619.0 L 2331.5 604.0 Q 2336.5 590.0 2336.5 556.0 L 2335.5 415.0 C 2335.5 385.0 2375.5 396.0 2377.5 426.0 L 2386.5 548.0 Q 2387.5 582.0 2388.5 586.0 L 2393.5 600.0 Q 2397.5 605.0 2395.5 607.0 Q 2396.5 615.0 2375.5 627.0 C 2349.5 643.0 2309.5 645.0 2323.5 619.0 Z" fill="lightgray"></path> 
<path d="M 2335.5 415.0 L 2195.5 382.0 L 2170.5 382.0 Q 2148.5 375.0 2172.5 352.0 Q 2183.5 339.0 2195.5 332.0 Q 2225.5 314.0 2241.5 328.0 Q 2244.5 330.0 2290.5 351.0 L 2475.5 433.0 Q 2486.5 437.0 2494.5 442.0 Q 2500.5 447.0 2497.5 450.0 Q 2497.5 455.0 2489.5 454.0 Q 2482.5 453.0 2442.5 444.0 L 2377.5 426.0 L 2335.5 415.0 Z" fill="lightgray"></path> 
<path d="M 2566.5 634.0 L 2569.5 596.0 Q 2569.5 575.0 2566.5 536.0 L 2563.5 488.0 Q 2558.5 434.0 2551.5 413.0 Q 2544.5 391.0 2544.5 382.0 Q 2544.5 318.0 2576.5 292.0 Q 2588.5 280.0 2601.5 334.0 Q 2606.5 362.0 2609.5 450.0 L 2613.5 520.0 Q 2618.5 591.0 2621.5 607.0 L 2625.5 625.0 L 2634.5 648.0 L 2632.5 654.0 L 2627.5 658.0 C 2610.5 683.0 2558.5 682.0 2563.5 652.0 L 2566.5 634.0 Z" fill="lightgray"></path> 
<path d="M 2627.5 658.0 L 2698.5 670.0 Q 2712.5 670.0 2716.5 672.0 Q 2723.5 672.0 2729.5 670.0 Q 2737.5 662.0 2734.5 657.0 Q 2732.5 652.0 2729.5 626.0 L 2720.5 538.0 L 2718.5 467.0 Q 2719.5 445.0 2726.5 410.0 Q 2734.5 375.0 2751.5 350.0 Q 2767.5 320.0 2806.5 298.0 Q 2846.5 275.0 2892.5 277.0 Q 2938.5 278.0 2959.5 300.0 L 2963.5 308.0 Q 2965.5 312.0 2954.5 329.0 Q 2943.5 345.0 2936.5 360.0 Q 2928.5 387.0 2926.5 398.0 L 2920.5 429.0 Q 2916.5 446.0 2912.5 446.0 L 2909.5 446.0 Q 2906.5 445.0 2905.5 437.0 L 2896.5 397.0 Q 2894.5 391.0 2892.5 376.0 Q 2890.5 361.0 2884.5 352.0 Q 2878.5 340.0 2854.5 340.0 Q 2831.5 340.0 2804.5 362.0 Q 2748.5 406.0 2767.5 534.0 Q 2780.5 623.0 2813.5 670.0 Q 2823.5 682.0 2824.5 685.0 L 2826.5 687.0 Q 2826.5 699.0 2810.5 710.0 L 2792.5 720.0 L 2770.5 727.0 Q 2765.5 728.0 2756.5 725.0 Q 2748.5 722.0 2743.5 722.0 L 2713.5 714.0 Q 2689.5 706.0 2649.5 701.0 L 2568.5 688.0 L 2510.5 684.0 Q 2497.5 671.0 2528.5 658.0 L 2538.5 654.0 L 2556.5 651.0 L 2563.5 652.0 L 2627.5 658.0 Z" fill="lightgray"></path> 
<path d="M 2566.5 536.0 L 2507.5 550.0 Q 2504.5 551.0 2498.5 551.0 Q 2492.5 551.0 2492.5 549.0 L 2489.5 546.0 Q 2489.5 542.0 2501.5 536.0 Q 2513.5 529.0 2538.5 510.0 L 2563.5 488.0 L 2609.5 450.0 L 2643.5 426.0 Q 2673.5 403.0 2685.5 413.0 Q 2689.5 414.0 2694.5 422.0 Q 2700.5 429.0 2700.5 440.0 Q 2699.5 468.0 2678.5 485.0 Q 2660.5 501.0 2613.5 520.0 L 2566.5 536.0 Z" fill="lightgray"></path> 
<path d="M 2277.5 154.0 L 2274.5 188.0 Q 2263.5 232.0 2253.5 232.0 Q 2246.5 227.0 2244.5 214.0 Q 2243.5 200.0 2237.5 183.0 L 2226.5 155.0 Q 2215.5 128.0 2201.5 110.0 Q 2187.5 92.0 2184.5 89.0 Q 2181.5 85.0 2181.5 68.0 L 2184.5 39.0 Q 2186.5 30.0 2196.5 14.0 Q 2213.5 -10.0 2232.5 10.0 Q 2259.5 38.0 2274.5 112.0 Q 2277.5 144.0 2277.5 154.0 Z" fill="lightgray"></path> 
<path d="M 2703.5 146.0 Q 2702.5 145.0 2709.5 127.0 L 2730.5 83.0 L 2739.5 56.0 Q 2742.5 46.0 2741.5 43.0 Q 2728.5 18.0 2613.5 18.0 Q 2545.5 18.0 2482.5 57.0 Q 2444.5 80.0 2423.5 112.0 Q 2415.5 127.0 2405.5 161.0 L 2397.5 190.0 Q 2392.5 207.0 2389.5 213.0 Q 2387.5 218.0 2381.5 224.0 Q 2375.5 230.0 2371.5 231.0 Q 2368.5 231.0 2356.5 236.0 L 2346.5 234.0 Q 2344.5 229.0 2344.5 226.0 L 2355.5 201.0 L 2371.5 156.0 L 2381.5 118.0 Q 2385.5 104.0 2399.5 79.0 Q 2414.5 53.0 2431.5 35.0 Q 2448.5 17.0 2483.5 -7.0 Q 2518.5 -28.0 2561.5 -40.0 Q 2605.5 -52.0 2674.5 -50.0 Q 2757.5 -50.0 2809.5 -24.0 Q 2861.5 1.0 2865.5 22.0 Q 2867.5 32.0 2860.5 39.0 Q 2854.5 46.0 2844.5 52.0 L 2808.5 72.0 Q 2790.5 83.0 2774.5 96.0 Q 2758.5 106.0 2749.5 116.0 L 2720.5 139.0 Q 2710.5 149.0 2707.5 149.0 Q 2704.5 146.0 2703.5 146.0 Z" fill="lightgray"></path> 
<path d="M 2504.5 261.0 Q 2509.5 256.0 2510.5 252.0 Q 2511.5 248.0 2512.5 247.0 L 2539.5 210.0 Q 2562.5 180.0 2574.5 170.0 Q 2600.5 149.0 2615.5 162.0 Q 2621.5 167.0 2622.5 171.0 Q 2629.5 182.0 2627.5 199.0 Q 2625.5 216.0 2614.5 229.0 Q 2603.5 242.0 2575.5 254.0 L 2541.5 264.0 Q 2528.5 268.0 2516.5 268.0 Q 2504.5 268.0 2504.5 261.0 Z" fill="lightgray"></path> 
<path d="M 2852.5 212.0 L 2829.5 220.0 Q 2825.5 222.0 2805.5 228.0 Q 2797.5 228.0 2799.5 218.0 L 2823.5 194.0 L 2901.5 96.0 Q 2923.5 66.0 2941.5 71.0 Q 2958.5 73.0 2965.5 88.0 Q 2969.5 93.0 2969.5 108.0 Q 2971.5 139.0 2947.5 160.0 Q 2938.5 169.0 2920.5 180.0 L 2887.5 197.0 L 2852.5 212.0 Z" fill="lightgray"></path> 
<path d="M 3477.0 561.5 L 3517.0 570.5 L 3569.0 584.5 L 3620.0 597.5 Q 3627.0 599.5 3665.0 609.5 Q 3704.0 621.5 3724.0 625.5 Q 3745.0 631.5 3781.0 639.5 L 3807.0 645.5 Q 3823.0 649.5 3827.0 651.5 Q 3831.0 654.5 3831.0 661.5 Q 3831.0 669.5 3820.0 681.5 Q 3809.0 692.5 3799.0 700.5 Q 3789.0 707.5 3769.0 719.5 Q 3749.0 729.5 3740.0 729.5 Q 3731.0 728.5 3713.0 714.5 Q 3694.0 699.5 3676.0 688.5 L 3634.0 664.5 Q 3611.0 651.5 3577.0 636.5 Q 3544.0 620.5 3519.0 609.5 Q 3493.0 599.5 3467.0 587.5 C 3440.0 575.5 3448.0 554.5 3477.0 561.5 Z" fill="lightgray"></path> 
<path d="M 3467.0 587.5 L 3442.0 598.5 Q 3427.0 604.5 3416.0 607.5 Q 3404.0 611.5 3393.0 613.5 Q 3388.0 614.5 3385.0 614.5 Q 3379.0 614.5 3376.0 612.5 Q 3371.0 609.5 3369.0 603.5 Q 3368.0 601.5 3368.0 599.5 Q 3368.0 594.5 3371.0 589.5 L 3383.0 572.5 Q 3389.0 562.5 3392.0 543.5 Q 3395.0 525.5 3396.0 489.5 Q 3396.0 446.5 3393.0 403.5 Q 3389.0 361.5 3375.0 303.5 Q 3361.0 245.5 3343.0 203.5 Q 3323.0 161.5 3299.0 123.5 Q 3275.0 84.5 3249.0 56.5 Q 3225.0 29.5 3206.0 12.5 L 3176.0 -12.5 L 3166.0 -21.5 Q 3164.0 -23.5 3164.0 -25.5 Q 3164.0 -27.5 3165.0 -29.5 Q 3166.0 -32.5 3169.0 -32.5 Q 3171.0 -32.5 3175.0 -30.5 L 3196.0 -21.5 Q 3215.0 -13.5 3239.0 1.5 Q 3263.0 15.5 3297.0 44.5 Q 3331.0 73.5 3360.0 116.5 Q 3389.0 159.5 3407.0 205.5 Q 3427.0 251.5 3435.0 288.5 Q 3445.0 324.5 3453.0 367.5 L 3458.0 409.5 L 3463.0 506.5 Q 3463.0 509.5 3466.0 523.5 Q 3468.0 537.5 3469.0 543.5 Q 3471.0 548.5 3477.0 561.5 C 3484.0 579.5 3484.0 579.5 3467.0 587.5 Z" fill="lightgray"></path> 
<path d="M 3453.0 367.5 L 3471.0 364.5 Q 3480.0 363.5 3488.0 363.5 L 3495.0 363.5 Q 3501.0 363.5 3521.0 369.5 Q 3541.0 374.5 3582.0 381.5 Q 3623.0 387.5 3662.0 392.5 Q 3701.0 397.5 3803.0 406.5 Q 3905.0 415.5 3936.0 415.5 Q 3968.0 415.5 3976.0 416.5 Q 3984.0 417.5 3993.0 420.5 Q 4001.0 423.5 4003.0 428.5 Q 4004.0 430.5 4004.0 431.5 Q 4004.0 435.5 4001.0 439.5 Q 3997.0 445.5 3987.0 451.5 L 3963.0 465.5 Q 3945.0 474.5 3924.0 474.5 L 3920.0 474.5 Q 3913.0 473.5 3895.0 470.5 Q 3877.0 466.5 3839.0 461.5 L 3710.0 441.5 Q 3587.0 422.5 3553.0 418.5 Q 3518.0 413.5 3458.0 409.5 C 3428.0 407.5 3423.0 372.5 3453.0 367.5 Z" fill="lightgray"></path> 
<path d="M 3561.0 218.5 L 3542.0 229.5 Q 3534.0 234.5 3523.0 237.5 Q 3511.0 241.5 3501.0 242.5 Q 3491.0 242.5 3486.0 238.5 Q 3482.0 236.5 3482.0 231.5 L 3482.0 229.5 Q 3483.0 225.5 3490.0 216.5 Q 3497.0 208.5 3501.0 196.5 Q 3505.0 184.5 3509.0 164.5 Q 3513.0 145.5 3514.0 133.5 L 3527.0 9.5 L 3529.0 -16.5 Q 3529.0 -26.5 3533.0 -36.5 Q 3537.0 -44.5 3545.0 -49.5 Q 3549.0 -53.5 3554.0 -53.5 Q 3556.0 -53.5 3558.0 -52.5 Q 3565.0 -51.5 3569.0 -37.5 L 3573.0 -24.5 L 3573.0 17.5 L 3561.0 185.5 C 3559.0 215.5 3563.0 217.5 3561.0 218.5 Z" fill="lightgray"></path> 
<path d="M 3866.0 33.5 L 3895.0 135.5 Q 3901.0 156.5 3905.0 165.5 Q 3910.0 175.5 3921.0 188.5 Q 3932.0 201.5 3933.0 204.5 Q 3935.0 209.5 3935.0 215.5 Q 3935.0 221.5 3922.0 233.5 Q 3909.0 245.5 3900.0 251.5 Q 3890.0 257.5 3876.0 263.5 Q 3865.0 268.5 3855.0 268.5 L 3852.0 268.5 Q 3846.0 267.5 3830.0 263.5 Q 3815.0 258.5 3785.0 252.5 L 3705.0 238.5 Q 3655.0 229.5 3627.0 225.5 L 3561.0 218.5 C 3531.0 215.5 3531.0 180.5 3561.0 185.5 L 3757.0 217.5 L 3797.0 222.5 Q 3804.0 223.5 3810.0 223.5 Q 3823.0 223.5 3827.0 218.5 Q 3833.0 212.5 3835.0 203.5 Q 3836.0 201.5 3836.0 198.5 Q 3836.0 188.5 3831.0 167.5 L 3807.0 42.5 C 3801.0 13.5 3858.0 4.5 3866.0 33.5 Z" fill="lightgray"></path> 
<path d="M 3573.0 -24.5 L 3679.0 -16.5 L 3783.0 -8.5 L 3867.0 -2.5 Q 3885.0 -2.5 3888.0 -0.5 Q 3891.0 1.5 3892.0 7.5 L 3892.0 8.5 Q 3892.0 14.5 3883.0 19.5 L 3866.0 33.5 C 3849.0 47.5 3837.0 46.5 3807.0 42.5 L 3698.0 28.5 Q 3675.0 25.5 3573.0 17.5 C 3543.0 15.5 3543.0 -26.5 3573.0 -24.5 Z" fill="lightgray"></path> 
      <clipPath id="make-me-a-hanzi-clip-0">
      <path d="M 240.0 503.5 Q 229.0 493.5 226.0 490.5 Q 225.0 487.5 225.0 485.5 Q 225.0 480.5 234.0 480.5 Q 245.0 480.5 272.0 495.5 Q 308.0 514.5 354.0 548.5 Q 391.0 577.5 433.0 619.5 L 459.0 643.5 Q 486.0 671.5 504.0 681.5 Q 514.0 689.5 514.0 701.5 L 514.0 703.5 Q 511.0 717.5 490.0 741.5 Q 470.0 764.5 452.0 767.5 L 449.0 767.5 Q 438.0 767.5 438.0 753.5 L 438.0 747.5 Q 439.0 740.5 439.0 734.5 Q 439.0 718.5 432.0 707.5 Q 396.0 650.5 348.0 601.5 Q 300.0 552.5 240.0 503.5 Z" fill="lightgray"></path>
      </clipPath>
      <path clip-path="url(#make-me-a-hanzi-clip-0)" d="M 449.0 756.5 L 466.0 730.5 L 472.0 704.5 L 367.0 587.5 L 259.0 500.5 L 232.0 486.5 " fill="none" id="make-me-a-hanzi-animation-0" stroke-dasharray="512 1024" stroke-linecap="round"></path>

      <clipPath id="make-me-a-hanzi-clip-1">
      <path d="M 433.0 619.5 Q 441.0 614.5 454.0 613.5 Q 468.0 613.5 561.0 629.5 L 566.0 629.5 Q 574.0 629.5 576.0 627.5 Q 578.0 625.5 578.0 622.5 Q 578.0 617.5 574.0 610.5 Q 517.0 517.5 486.0 475.5 C 468.0 451.5 505.0 462.5 526.0 483.5 Q 547.0 503.5 577.0 536.5 Q 629.0 592.5 675.0 620.5 Q 687.0 627.5 687.0 635.5 Q 687.0 639.5 682.0 644.5 Q 668.0 658.5 629.0 679.5 Q 621.0 683.5 614.0 683.5 Q 605.0 683.5 597.0 678.5 Q 585.0 670.5 494.0 648.5 Q 477.0 644.5 459.0 643.5 C 429.0 640.5 405.0 630.5 433.0 619.5 Z" fill="lightgray"></path>
      </clipPath>
      <path clip-path="url(#make-me-a-hanzi-clip-1)" d="M 439.0 621.5 L 570.0 649.5 L 598.0 647.5 L 620.0 635.5 L 598.0 595.5 L 547.0 530.5 L 517.0 494.5 L 499.0 485.5 " fill="none" id="make-me-a-hanzi-animation-1" stroke-dasharray="510 1020" stroke-linecap="round"></path>

      <clipPath id="make-me-a-hanzi-clip-2">
      <path d="M 486.0 475.5 Q 399.0 460.5 309.0 454.5 Q 293.0 452.5 293.0 444.5 L 293.0 443.5 Q 295.0 433.5 314.0 427.5 Q 327.0 423.5 344.0 423.5 Q 359.0 423.5 377.0 426.5 Q 416.0 434.5 453.0 440.5 L 504.0 448.5 Q 556.0 458.5 607.0 465.5 Q 616.0 466.5 623.0 466.5 Q 641.0 466.5 648.0 458.5 Q 659.0 447.5 659.0 427.5 Q 659.0 422.5 658.0 417.5 Q 654.0 396.5 651.0 377.5 L 642.0 331.5 Q 633.0 294.5 624.0 261.5 C 616.0 232.5 667.0 221.5 674.0 250.5 Q 685.0 299.5 695.0 332.5 L 716.0 387.5 L 717.0 388.5 Q 733.0 416.5 751.0 437.5 Q 760.0 448.5 760.0 457.5 Q 760.0 466.5 752.0 474.5 Q 735.0 491.5 681.0 518.5 Q 674.0 521.5 665.0 521.5 Q 653.0 521.5 638.0 515.5 Q 580.0 495.5 526.0 483.5 L 486.0 475.5 Z" fill="lightgray"></path>
      </clipPath>
      <path clip-path="url(#make-me-a-hanzi-clip-2)" d="M 301.0 444.5 L 369.0 441.5 L 639.0 490.5 L 674.0 483.5 L 703.0 452.5 L 702.0 446.5 L 656.0 280.5 L 632.0 266.5 " fill="none" id="make-me-a-hanzi-animation-2" stroke-dasharray="755 1510" stroke-linecap="round"></path>

      <clipPath id="make-me-a-hanzi-clip-3">
      <path d="M 467.0 354.5 Q 306.0 335.5 122.0 319.5 Q 109.0 318.5 109.0 311.5 Q 109.0 307.5 116.0 299.5 Q 130.0 284.5 148.0 278.5 Q 161.0 275.5 173.0 275.5 Q 180.0 275.5 187.0 276.5 Q 308.0 300.5 443.0 315.5 Q 456.0 318.5 468.0 318.5 L 522.0 325.5 Q 581.0 330.5 642.0 331.5 L 695.0 332.5 Q 720.0 331.5 744.0 331.5 Q 860.0 330.5 888.0 330.5 Q 910.0 330.5 914.0 339.5 Q 915.0 342.5 915.0 345.5 Q 915.0 355.5 903.0 365.5 Q 873.0 388.5 852.0 397.5 Q 841.0 401.5 826.0 401.5 Q 819.0 401.5 811.0 400.5 Q 768.0 393.5 716.0 387.5 L 651.0 377.5 Q 590.0 370.5 523.0 361.5 L 467.0 354.5 Z" fill="lightgray"></path>
      </clipPath>
      <path clip-path="url(#make-me-a-hanzi-clip-3)" d="M 119.0 309.5 L 178.0 299.5 L 533.0 345.5 L 821.0 366.5 L 854.0 362.5 L 903.0 344.5 " fill="none" id="make-me-a-hanzi-animation-3" stroke-dasharray="920 1840" stroke-linecap="round"></path>

      <clipPath id="make-me-a-hanzi-clip-4">
      <path d="M 468.0 233.5 Q 369.0 217.5 287.0 211.5 Q 271.0 210.5 271.0 201.5 Q 271.0 196.5 277.0 188.5 Q 286.0 176.5 296.0 173.5 Q 304.0 170.5 313.0 170.5 Q 318.0 170.5 324.0 171.5 Q 381.0 183.5 468.0 192.5 L 520.0 197.5 Q 595.0 204.5 688.0 208.5 Q 702.0 210.5 702.0 219.5 Q 702.0 229.5 674.0 250.5 C 652.0 268.5 652.0 268.5 624.0 261.5 Q 618.0 259.5 612.0 258.5 Q 563.0 248.5 520.0 241.5 L 468.0 233.5 Z" fill="lightgray"></path>
      </clipPath>
      <path clip-path="url(#make-me-a-hanzi-clip-4)" d="M 283.0 199.5 L 317.0 192.5 L 625.0 233.5 L 670.0 229.5 L 692.0 219.5 " fill="none" id="make-me-a-hanzi-animation-4" stroke-dasharray="543 1086" stroke-linecap="round"></path>

      <clipPath id="make-me-a-hanzi-clip-5">
      <path d="M 453.0 440.5 Q 455.0 436.5 456.0 433.5 Q 467.0 410.5 467.0 374.5 L 467.0 354.5 L 468.0 318.5 L 468.0 233.5 L 468.0 192.5 L 468.0 49.5 Q 467.0 16.5 455.0 7.5 Q 450.0 3.5 439.0 3.5 Q 431.0 3.5 418.0 6.5 Q 387.0 18.5 348.0 28.5 Q 345.0 29.5 343.0 29.5 Q 337.0 29.5 337.0 24.5 Q 338.0 15.5 348.0 8.5 Q 423.0 -45.5 469.0 -87.5 Q 474.0 -91.5 478.0 -91.5 Q 486.0 -91.5 493.0 -81.5 Q 505.0 -65.5 517.0 -32.5 Q 527.0 -5.5 527.0 27.5 Q 527.0 35.5 526.0 43.5 L 521.0 183.5 Q 520.0 191.5 520.0 197.5 L 520.0 241.5 L 522.0 325.5 L 523.0 361.5 Q 525.0 379.5 526.0 394.5 Q 527.0 403.5 527.0 411.5 Q 527.0 425.5 523.0 432.5 Q 519.0 439.5 504.0 448.5 C 480.0 466.5 442.0 468.5 453.0 440.5 Z" fill="lightgray"></path>
      </clipPath>
      <path clip-path="url(#make-me-a-hanzi-clip-5)" d="M 460.0 439.5 L 496.0 408.5 L 494.0 7.5 L 485.0 -14.5 L 469.0 -32.5 L 424.0 -19.5 L 344.0 22.5 " fill="none" id="make-me-a-hanzi-animation-5" stroke-dasharray="762 1524" stroke-linecap="round"></path>

      <clipPath id="make-me-a-hanzi-clip-6">
      <path d="M 1335.0 499.5 L 1359.0 544.5 Q 1365.0 557.5 1367.0 559.5 L 1380.0 572.5 Q 1392.0 587.5 1381.0 597.5 Q 1377.0 602.5 1357.0 616.5 Q 1337.0 629.5 1331.0 630.5 L 1319.0 630.5 L 1306.0 627.5 Q 1301.0 623.5 1302.0 600.5 Q 1303.0 576.5 1298.0 545.5 Q 1297.0 539.5 1284.0 496.5 Q 1265.0 440.5 1263.0 437.5 L 1235.0 380.5 Q 1232.0 373.5 1235.0 369.5 Q 1238.0 364.5 1244.0 369.5 L 1254.0 376.5 Q 1263.0 385.5 1286.0 415.5 Q 1309.0 444.5 1312.0 452.5 Q 1316.0 458.5 1327.0 479.5 L 1335.0 499.5 Z" fill="lightgray"></path>
      </clipPath>
      <path clip-path="url(#make-me-a-hanzi-clip-6)" d="M 1315.0 618.5 L 1339.0 583.5 L 1330.0 552.5 L 1281.0 432.5 L 1240.0 375.5 " fill="none" id="make-me-a-hanzi-animation-6" stroke-dasharray="403 806" stroke-linecap="round"></path>

      <clipPath id="make-me-a-hanzi-clip-7">
      <path d="M 1646.0 577.5 L 1606.0 564.5 L 1539.0 547.5 L 1480.0 531.5 L 1335.0 499.5 C 1306.0 493.5 1299.0 489.5 1327.0 479.5 L 1350.0 471.5 Q 1356.0 467.5 1368.0 467.5 L 1396.0 472.5 Q 1417.0 479.5 1432.0 480.5 Q 1480.0 491.5 1480.0 492.5 L 1539.0 503.5 L 1710.0 531.5 Q 1722.0 532.5 1722.0 541.5 Q 1722.0 549.5 1712.0 553.5 Q 1706.0 557.5 1693.0 562.5 L 1667.0 571.5 Q 1651.0 577.5 1646.0 577.5 Z" fill="lightgray"></path>
      </clipPath>
      <path clip-path="url(#make-me-a-hanzi-clip-7)" d="M 1334.0 482.5 L 1438.0 500.5 L 1647.0 549.5 L 1711.0 542.5 " fill="none" id="make-me-a-hanzi-animation-7" stroke-dasharray="513 1026" stroke-linecap="round"></path>

      <clipPath id="make-me-a-hanzi-clip-8">
      <path d="M 1539.0 547.5 L 1550.0 668.5 Q 1554.0 687.5 1558.0 694.5 Q 1562.0 700.5 1566.0 711.5 L 1573.0 725.5 Q 1573.0 730.5 1569.0 735.5 Q 1549.0 755.5 1508.0 769.5 L 1493.0 772.5 Q 1489.0 772.5 1487.0 774.5 L 1485.0 774.5 Q 1458.0 776.5 1455.0 769.5 Q 1452.0 761.5 1454.0 758.5 Q 1482.0 718.5 1482.0 638.5 L 1480.0 531.5 L 1480.0 492.5 L 1480.0 353.5 C 1480.0 323.5 1532.0 329.5 1533.0 359.5 L 1539.0 503.5 L 1539.0 547.5 Z" fill="lightgray"></path>
      </clipPath>
      <path clip-path="url(#make-me-a-hanzi-clip-8)" d="M 1464.0 763.5 L 1495.0 743.5 L 1519.0 716.5 L 1507.0 383.5 L 1486.0 361.5 " fill="none" id="make-me-a-hanzi-animation-8" stroke-dasharray="565 1130" stroke-linecap="round"></path>

      <clipPath id="make-me-a-hanzi-clip-9">
      <path d="M 1480.0 353.5 L 1266.0 321.5 Q 1223.0 315.5 1174.0 311.5 L 1152.0 309.5 Q 1140.0 307.5 1139.0 301.5 Q 1137.0 295.5 1145.0 288.5 Q 1152.0 281.5 1159.0 277.5 L 1184.0 262.5 Q 1195.0 256.5 1202.0 257.5 Q 1208.0 257.5 1226.0 263.5 Q 1243.0 269.5 1268.0 275.5 Q 1292.0 281.5 1296.0 281.5 L 1377.0 297.5 L 1406.0 304.5 L 1525.0 319.5 L 1573.0 322.5 L 1663.0 327.5 Q 1690.0 329.5 1758.0 326.5 L 1785.0 325.5 Q 1826.0 324.5 1831.0 328.5 Q 1835.0 331.5 1836.0 337.5 Q 1836.0 343.5 1822.0 357.5 Q 1807.0 370.5 1787.0 379.5 Q 1763.0 387.5 1755.0 387.5 Q 1746.0 387.5 1718.0 382.5 Q 1690.0 376.5 1659.0 373.5 L 1533.0 359.5 L 1480.0 353.5 Z" fill="lightgray"></path>
      </clipPath>
      <path clip-path="url(#make-me-a-hanzi-clip-9)" d="M 1150.0 298.5 L 1211.0 286.5 L 1445.0 329.5 L 1716.0 355.5 L 1760.0 356.5 L 1825.0 337.5 " fill="none" id="make-me-a-hanzi-animation-9" stroke-dasharray="812 1624" stroke-linecap="round"></path>

      <clipPath id="make-me-a-hanzi-clip-10">
      <path d="M 1377.0 297.5 L 1380.0 290.5 Q 1381.0 289.5 1376.0 267.5 Q 1371.0 245.5 1355.0 209.5 Q 1338.0 172.5 1325.0 152.5 Q 1313.0 130.5 1279.0 88.5 Q 1252.0 58.5 1210.0 19.5 Q 1168.0 -20.5 1131.0 -42.5 L 1115.0 -52.5 Q 1099.0 -60.5 1102.0 -67.5 Q 1103.0 -72.5 1112.0 -70.5 L 1130.0 -66.5 L 1161.0 -56.5 Q 1173.0 -52.5 1211.0 -31.5 Q 1249.0 -10.5 1269.0 2.5 Q 1289.0 15.5 1328.0 60.5 Q 1366.0 105.5 1377.0 121.5 L 1416.0 181.5 Q 1426.0 199.5 1440.0 213.5 Q 1454.0 226.5 1455.0 231.5 Q 1463.0 250.5 1444.0 272.5 Q 1429.0 292.5 1406.0 304.5 C 1380.0 320.5 1373.0 324.5 1377.0 297.5 Z" fill="lightgray"></path>
      </clipPath>
      <path clip-path="url(#make-me-a-hanzi-clip-10)" d="M 1385.0 296.5 L 1402.0 280.5 L 1413.0 244.5 L 1337.0 115.5 L 1251.0 21.5 L 1179.0 -30.5 L 1108.0 -65.5 " fill="none" id="make-me-a-hanzi-animation-10" stroke-dasharray="634 1268" stroke-linecap="round"></path>

      <clipPath id="make-me-a-hanzi-clip-11">
      <path d="M 1525.0 319.5 L 1529.0 305.5 Q 1536.0 272.5 1535.0 251.5 L 1527.0 130.5 Q 1525.0 94.5 1525.0 71.5 Q 1524.0 3.5 1573.0 -48.5 Q 1622.0 -100.5 1716.0 -100.5 Q 1810.0 -100.5 1889.0 -72.5 Q 1928.0 -58.5 1944.0 -42.5 Q 1973.0 -17.5 1969.0 -0.5 Q 1968.0 5.5 1959.0 19.5 Q 1943.0 56.5 1932.0 116.5 L 1928.0 148.5 Q 1926.0 157.5 1921.0 158.5 Q 1914.0 158.5 1913.0 152.5 L 1902.0 81.5 Q 1893.0 30.5 1868.0 5.5 Q 1833.0 -28.5 1719.0 -31.5 Q 1676.0 -32.5 1655.0 -22.5 Q 1628.0 -16.5 1611.0 0.5 Q 1574.0 31.5 1578.0 95.5 Q 1580.0 130.5 1585.0 167.5 Q 1595.0 222.5 1608.0 247.5 Q 1621.0 272.5 1622.0 276.5 Q 1623.0 280.5 1621.0 292.5 Q 1622.0 297.5 1605.0 305.5 L 1573.0 322.5 C 1547.0 336.5 1518.0 348.5 1525.0 319.5 Z" fill="lightgray"></path>
      </clipPath>
      <path clip-path="url(#make-me-a-hanzi-clip-11)" d="M 1531.0 313.5 L 1557.0 296.5 L 1575.0 272.5 L 1554.0 133.5 L 1555.0 40.5 L 1562.0 17.5 L 1582.0 -13.5 L 1628.0 -49.5 L 1677.0 -63.5 L 1740.0 -65.5 L 1815.0 -56.5 L 1884.0 -33.5 L 1919.0 -3.5 L 1921.0 150.5 " fill="none" id="make-me-a-hanzi-animation-11" stroke-dasharray="1004 2008" stroke-linecap="round"></path>

      <clipPath id="make-me-a-hanzi-clip-12">
      <path d="M 2375.5 627.0 L 2457.5 640.0 Q 2481.5 643.0 2487.5 649.0 Q 2493.5 655.0 2493.5 658.0 L 2491.5 664.0 Q 2490.5 666.0 2481.5 671.0 L 2436.5 685.0 Q 2432.5 685.0 2401.5 674.0 L 2360.5 665.0 Q 2333.5 658.0 2312.5 656.0 L 2244.5 646.0 L 2218.5 644.0 Q 2207.5 640.0 2217.5 629.0 Q 2228.5 618.0 2258.5 614.0 Q 2281.5 614.0 2285.5 615.0 L 2323.5 619.0 L 2375.5 627.0 Z" fill="lightgray"></path>
      </clipPath>
      <path clip-path="url(#make-me-a-hanzi-clip-12)" d="M 2225.5 636.0 L 2267.5 631.0 L 2437.5 661.0 L 2483.5 658.0 " fill="none" id="make-me-a-hanzi-animation-12" stroke-dasharray="389 778" stroke-linecap="round"></path>

      <clipPath id="make-me-a-hanzi-clip-13">
      <path d="M 2323.5 619.0 L 2331.5 604.0 Q 2336.5 590.0 2336.5 556.0 L 2335.5 415.0 C 2335.5 385.0 2375.5 396.0 2377.5 426.0 L 2386.5 548.0 Q 2387.5 582.0 2388.5 586.0 L 2393.5 600.0 Q 2397.5 605.0 2395.5 607.0 Q 2396.5 615.0 2375.5 627.0 C 2349.5 643.0 2309.5 645.0 2323.5 619.0 Z" fill="lightgray"></path>
      </clipPath>
      <path clip-path="url(#make-me-a-hanzi-clip-13)" d="M 2330.5 618.0 L 2359.5 599.0 L 2362.5 575.0 L 2357.5 443.0 L 2340.5 423.0 " fill="none" id="make-me-a-hanzi-animation-13" stroke-dasharray="345 690" stroke-linecap="round"></path>

      <clipPath id="make-me-a-hanzi-clip-14">
      <path d="M 2335.5 415.0 L 2195.5 382.0 L 2170.5 382.0 Q 2148.5 375.0 2172.5 352.0 Q 2183.5 339.0 2195.5 332.0 Q 2225.5 314.0 2241.5 328.0 Q 2244.5 330.0 2290.5 351.0 L 2475.5 433.0 Q 2486.5 437.0 2494.5 442.0 Q 2500.5 447.0 2497.5 450.0 Q 2497.5 455.0 2489.5 454.0 Q 2482.5 453.0 2442.5 444.0 L 2377.5 426.0 L 2335.5 415.0 Z" fill="lightgray"></path>
      </clipPath>
      <path clip-path="url(#make-me-a-hanzi-clip-14)" d="M 2174.5 367.0 L 2222.5 355.0 L 2491.5 448.0 " fill="none" id="make-me-a-hanzi-animation-14" stroke-dasharray="462 924" stroke-linecap="round"></path>

      <clipPath id="make-me-a-hanzi-clip-15">
      <path d="M 2566.5 634.0 L 2569.5 596.0 Q 2569.5 575.0 2566.5 536.0 L 2563.5 488.0 Q 2558.5 434.0 2551.5 413.0 Q 2544.5 391.0 2544.5 382.0 Q 2544.5 318.0 2576.5 292.0 Q 2588.5 280.0 2601.5 334.0 Q 2606.5 362.0 2609.5 450.0 L 2613.5 520.0 Q 2618.5 591.0 2621.5 607.0 L 2625.5 625.0 L 2634.5 648.0 L 2632.5 654.0 L 2627.5 658.0 C 2610.5 683.0 2558.5 682.0 2563.5 652.0 L 2566.5 634.0 Z" fill="lightgray"></path>
      </clipPath>
      <path clip-path="url(#make-me-a-hanzi-clip-15)" d="M 2623.5 648.0 L 2596.5 626.0 L 2588.5 486.0 L 2574.5 373.0 L 2581.5 297.0 " fill="none" id="make-me-a-hanzi-animation-15" stroke-dasharray="493 986" stroke-linecap="round"></path>

      <clipPath id="make-me-a-hanzi-clip-16">
      <path d="M 2627.5 658.0 L 2698.5 670.0 Q 2712.5 670.0 2716.5 672.0 Q 2723.5 672.0 2729.5 670.0 Q 2737.5 662.0 2734.5 657.0 Q 2732.5 652.0 2729.5 626.0 L 2720.5 538.0 L 2718.5 467.0 Q 2719.5 445.0 2726.5 410.0 Q 2734.5 375.0 2751.5 350.0 Q 2767.5 320.0 2806.5 298.0 Q 2846.5 275.0 2892.5 277.0 Q 2938.5 278.0 2959.5 300.0 L 2963.5 308.0 Q 2965.5 312.0 2954.5 329.0 Q 2943.5 345.0 2936.5 360.0 Q 2928.5 387.0 2926.5 398.0 L 2920.5 429.0 Q 2916.5 446.0 2912.5 446.0 L 2909.5 446.0 Q 2906.5 445.0 2905.5 437.0 L 2896.5 397.0 Q 2894.5 391.0 2892.5 376.0 Q 2890.5 361.0 2884.5 352.0 Q 2878.5 340.0 2854.5 340.0 Q 2831.5 340.0 2804.5 362.0 Q 2748.5 406.0 2767.5 534.0 Q 2780.5 623.0 2813.5 670.0 Q 2823.5 682.0 2824.5 685.0 L 2826.5 687.0 Q 2826.5 699.0 2810.5 710.0 L 2792.5 720.0 L 2770.5 727.0 Q 2765.5 728.0 2756.5 725.0 Q 2748.5 722.0 2743.5 722.0 L 2713.5 714.0 Q 2689.5 706.0 2649.5 701.0 L 2568.5 688.0 L 2510.5 684.0 Q 2497.5 671.0 2528.5 658.0 L 2538.5 654.0 L 2556.5 651.0 L 2563.5 652.0 L 2627.5 658.0 Z" fill="lightgray"></path>
      </clipPath>
      <path clip-path="url(#make-me-a-hanzi-clip-16)" d="M 2518.5 676.0 L 2522.5 671.0 L 2581.5 671.0 L 2726.5 694.0 L 2757.5 690.0 L 2770.5 682.0 L 2744.5 543.0 L 2741.5 451.0 L 2757.5 386.0 L 2767.5 367.0 L 2800.5 332.0 L 2849.5 311.0 L 2886.5 311.0 L 2911.5 322.0 L 2911.5 441.0 " fill="none" id="make-me-a-hanzi-animation-16" stroke-dasharray="993 1986" stroke-linecap="round"></path>

      <clipPath id="make-me-a-hanzi-clip-17">
      <path d="M 2566.5 536.0 L 2507.5 550.0 Q 2504.5 551.0 2498.5 551.0 Q 2492.5 551.0 2492.5 549.0 L 2489.5 546.0 Q 2489.5 542.0 2501.5 536.0 Q 2513.5 529.0 2538.5 510.0 L 2563.5 488.0 L 2609.5 450.0 L 2643.5 426.0 Q 2673.5 403.0 2685.5 413.0 Q 2689.5 414.0 2694.5 422.0 Q 2700.5 429.0 2700.5 440.0 Q 2699.5 468.0 2678.5 485.0 Q 2660.5 501.0 2613.5 520.0 L 2566.5 536.0 Z" fill="lightgray"></path>
      </clipPath>
      <path clip-path="url(#make-me-a-hanzi-clip-17)" d="M 2496.5 542.0 L 2513.5 541.0 L 2637.5 472.0 L 2663.5 453.0 L 2674.5 432.0 " fill="none" id="make-me-a-hanzi-animation-17" stroke-dasharray="343 686" stroke-linecap="round"></path>

      <clipPath id="make-me-a-hanzi-clip-18">
      <path d="M 2277.5 154.0 L 2274.5 188.0 Q 2263.5 232.0 2253.5 232.0 Q 2246.5 227.0 2244.5 214.0 Q 2243.5 200.0 2237.5 183.0 L 2226.5 155.0 Q 2215.5 128.0 2201.5 110.0 Q 2187.5 92.0 2184.5 89.0 Q 2181.5 85.0 2181.5 68.0 L 2184.5 39.0 Q 2186.5 30.0 2196.5 14.0 Q 2213.5 -10.0 2232.5 10.0 Q 2259.5 38.0 2274.5 112.0 Q 2277.5 144.0 2277.5 154.0 Z" fill="lightgray"></path>
      </clipPath>
      <path clip-path="url(#make-me-a-hanzi-clip-18)" d="M 2253.5 226.0 L 2258.5 194.0 L 2253.5 158.0 L 2240.5 108.0 L 2221.5 71.0 L 2216.5 21.0 " fill="none" id="make-me-a-hanzi-animation-18" stroke-dasharray="340 680" stroke-linecap="round"></path>

      <clipPath id="make-me-a-hanzi-clip-19">
      <path d="M 2703.5 146.0 Q 2702.5 145.0 2709.5 127.0 L 2730.5 83.0 L 2739.5 56.0 Q 2742.5 46.0 2741.5 43.0 Q 2728.5 18.0 2613.5 18.0 Q 2545.5 18.0 2482.5 57.0 Q 2444.5 80.0 2423.5 112.0 Q 2415.5 127.0 2405.5 161.0 L 2397.5 190.0 Q 2392.5 207.0 2389.5 213.0 Q 2387.5 218.0 2381.5 224.0 Q 2375.5 230.0 2371.5 231.0 Q 2368.5 231.0 2356.5 236.0 L 2346.5 234.0 Q 2344.5 229.0 2344.5 226.0 L 2355.5 201.0 L 2371.5 156.0 L 2381.5 118.0 Q 2385.5 104.0 2399.5 79.0 Q 2414.5 53.0 2431.5 35.0 Q 2448.5 17.0 2483.5 -7.0 Q 2518.5 -28.0 2561.5 -40.0 Q 2605.5 -52.0 2674.5 -50.0 Q 2757.5 -50.0 2809.5 -24.0 Q 2861.5 1.0 2865.5 22.0 Q 2867.5 32.0 2860.5 39.0 Q 2854.5 46.0 2844.5 52.0 L 2808.5 72.0 Q 2790.5 83.0 2774.5 96.0 Q 2758.5 106.0 2749.5 116.0 L 2720.5 139.0 Q 2710.5 149.0 2707.5 149.0 Q 2704.5 146.0 2703.5 146.0 Z" fill="lightgray"></path>
      </clipPath>
      <path clip-path="url(#make-me-a-hanzi-clip-19)" d="M 2352.5 228.0 L 2371.5 209.0 L 2404.5 108.0 L 2444.5 55.0 L 2514.5 8.0 L 2563.5 -9.0 L 2635.5 -16.0 L 2699.5 -14.0 L 2742.5 -5.0 L 2783.5 17.0 L 2789.5 24.0 L 2781.5 43.0 L 2707.5 144.0 " fill="none" id="make-me-a-hanzi-animation-19" stroke-dasharray="846 1692" stroke-linecap="round"></path>

      <clipPath id="make-me-a-hanzi-clip-20">
      <path d="M 2504.5 261.0 Q 2509.5 256.0 2510.5 252.0 Q 2511.5 248.0 2512.5 247.0 L 2539.5 210.0 Q 2562.5 180.0 2574.5 170.0 Q 2600.5 149.0 2615.5 162.0 Q 2621.5 167.0 2622.5 171.0 Q 2629.5 182.0 2627.5 199.0 Q 2625.5 216.0 2614.5 229.0 Q 2603.5 242.0 2575.5 254.0 L 2541.5 264.0 Q 2528.5 268.0 2516.5 268.0 Q 2504.5 268.0 2504.5 261.0 Z" fill="lightgray"></path>
      </clipPath>
      <path clip-path="url(#make-me-a-hanzi-clip-20)" d="M 2513.5 260.0 L 2586.5 208.0 L 2601.5 179.0 " fill="none" id="make-me-a-hanzi-animation-20" stroke-dasharray="250 500" stroke-linecap="round"></path>

      <clipPath id="make-me-a-hanzi-clip-21">
      <path d="M 2852.5 212.0 L 2829.5 220.0 Q 2825.5 222.0 2805.5 228.0 Q 2797.5 228.0 2799.5 218.0 L 2823.5 194.0 L 2901.5 96.0 Q 2923.5 66.0 2941.5 71.0 Q 2958.5 73.0 2965.5 88.0 Q 2969.5 93.0 2969.5 108.0 Q 2971.5 139.0 2947.5 160.0 Q 2938.5 169.0 2920.5 180.0 L 2887.5 197.0 L 2852.5 212.0 Z" fill="lightgray"></path>
      </clipPath>
      <path clip-path="url(#make-me-a-hanzi-clip-21)" d="M 2808.5 219.0 L 2906.5 147.0 L 2931.5 120.0 L 2936.5 98.0 " fill="none" id="make-me-a-hanzi-animation-21" stroke-dasharray="309 618" stroke-linecap="round"></path>

      <clipPath id="make-me-a-hanzi-clip-22">
      <path d="M 3477.0 561.5 L 3517.0 570.5 L 3569.0 584.5 L 3620.0 597.5 Q 3627.0 599.5 3665.0 609.5 Q 3704.0 621.5 3724.0 625.5 Q 3745.0 631.5 3781.0 639.5 L 3807.0 645.5 Q 3823.0 649.5 3827.0 651.5 Q 3831.0 654.5 3831.0 661.5 Q 3831.0 669.5 3820.0 681.5 Q 3809.0 692.5 3799.0 700.5 Q 3789.0 707.5 3769.0 719.5 Q 3749.0 729.5 3740.0 729.5 Q 3731.0 728.5 3713.0 714.5 Q 3694.0 699.5 3676.0 688.5 L 3634.0 664.5 Q 3611.0 651.5 3577.0 636.5 Q 3544.0 620.5 3519.0 609.5 Q 3493.0 599.5 3467.0 587.5 C 3440.0 575.5 3448.0 554.5 3477.0 561.5 Z" fill="lightgray"></path>
      </clipPath>
      <path clip-path="url(#make-me-a-hanzi-clip-22)" d="M 3820.0 660.5 L 3744.0 679.5 L 3532.0 593.5 L 3487.0 579.5 L 3477.0 583.5 " fill="none" id="make-me-a-hanzi-animation-22" stroke-dasharray="493 986" stroke-linecap="round"></path>

      <clipPath id="make-me-a-hanzi-clip-23">
      <path d="M 3467.0 587.5 L 3442.0 598.5 Q 3427.0 604.5 3416.0 607.5 Q 3404.0 611.5 3393.0 613.5 Q 3388.0 614.5 3385.0 614.5 Q 3379.0 614.5 3376.0 612.5 Q 3371.0 609.5 3369.0 603.5 Q 3368.0 601.5 3368.0 599.5 Q 3368.0 594.5 3371.0 589.5 L 3383.0 572.5 Q 3389.0 562.5 3392.0 543.5 Q 3395.0 525.5 3396.0 489.5 Q 3396.0 446.5 3393.0 403.5 Q 3389.0 361.5 3375.0 303.5 Q 3361.0 245.5 3343.0 203.5 Q 3323.0 161.5 3299.0 123.5 Q 3275.0 84.5 3249.0 56.5 Q 3225.0 29.5 3206.0 12.5 L 3176.0 -12.5 L 3166.0 -21.5 Q 3164.0 -23.5 3164.0 -25.5 Q 3164.0 -27.5 3165.0 -29.5 Q 3166.0 -32.5 3169.0 -32.5 Q 3171.0 -32.5 3175.0 -30.5 L 3196.0 -21.5 Q 3215.0 -13.5 3239.0 1.5 Q 3263.0 15.5 3297.0 44.5 Q 3331.0 73.5 3360.0 116.5 Q 3389.0 159.5 3407.0 205.5 Q 3427.0 251.5 3435.0 288.5 Q 3445.0 324.5 3453.0 367.5 L 3458.0 409.5 L 3463.0 506.5 Q 3463.0 509.5 3466.0 523.5 Q 3468.0 537.5 3469.0 543.5 Q 3471.0 548.5 3477.0 561.5 C 3484.0 579.5 3484.0 579.5 3467.0 587.5 Z" fill="lightgray"></path>
      </clipPath>
      <path clip-path="url(#make-me-a-hanzi-clip-23)" d="M 3382.0 598.5 L 3431.0 558.5 L 3426.0 406.5 L 3413.0 326.5 L 3393.0 252.5 L 3355.0 161.5 L 3306.0 87.5 L 3226.0 9.5 L 3170.0 -26.5 " fill="none" id="make-me-a-hanzi-animation-23" stroke-dasharray="867 1734" stroke-linecap="round"></path>

      <clipPath id="make-me-a-hanzi-clip-24">
      <path d="M 3453.0 367.5 L 3471.0 364.5 Q 3480.0 363.5 3488.0 363.5 L 3495.0 363.5 Q 3501.0 363.5 3521.0 369.5 Q 3541.0 374.5 3582.0 381.5 Q 3623.0 387.5 3662.0 392.5 Q 3701.0 397.5 3803.0 406.5 Q 3905.0 415.5 3936.0 415.5 Q 3968.0 415.5 3976.0 416.5 Q 3984.0 417.5 3993.0 420.5 Q 4001.0 423.5 4003.0 428.5 Q 4004.0 430.5 4004.0 431.5 Q 4004.0 435.5 4001.0 439.5 Q 3997.0 445.5 3987.0 451.5 L 3963.0 465.5 Q 3945.0 474.5 3924.0 474.5 L 3920.0 474.5 Q 3913.0 473.5 3895.0 470.5 Q 3877.0 466.5 3839.0 461.5 L 3710.0 441.5 Q 3587.0 422.5 3553.0 418.5 Q 3518.0 413.5 3458.0 409.5 C 3428.0 407.5 3423.0 372.5 3453.0 367.5 Z" fill="lightgray"></path>
      </clipPath>
      <path clip-path="url(#make-me-a-hanzi-clip-24)" d="M 3459.0 373.5 L 3476.0 386.5 L 3895.0 442.5 L 3929.0 445.5 L 3995.0 432.5 " fill="none" id="make-me-a-hanzi-animation-24" stroke-dasharray="674 1348" stroke-linecap="round"></path>

      <clipPath id="make-me-a-hanzi-clip-25">
      <path d="M 3561.0 218.5 L 3542.0 229.5 Q 3534.0 234.5 3523.0 237.5 Q 3511.0 241.5 3501.0 242.5 Q 3491.0 242.5 3486.0 238.5 Q 3482.0 236.5 3482.0 231.5 L 3482.0 229.5 Q 3483.0 225.5 3490.0 216.5 Q 3497.0 208.5 3501.0 196.5 Q 3505.0 184.5 3509.0 164.5 Q 3513.0 145.5 3514.0 133.5 L 3527.0 9.5 L 3529.0 -16.5 Q 3529.0 -26.5 3533.0 -36.5 Q 3537.0 -44.5 3545.0 -49.5 Q 3549.0 -53.5 3554.0 -53.5 Q 3556.0 -53.5 3558.0 -52.5 Q 3565.0 -51.5 3569.0 -37.5 L 3573.0 -24.5 L 3573.0 17.5 L 3561.0 185.5 C 3559.0 215.5 3563.0 217.5 3561.0 218.5 Z" fill="lightgray"></path>
      </clipPath>
      <path clip-path="url(#make-me-a-hanzi-clip-25)" d="M 3492.0 230.5 L 3512.0 220.5 L 3531.0 200.5 L 3553.0 -42.5 " fill="none" id="make-me-a-hanzi-animation-25" stroke-dasharray="422 844" stroke-linecap="round"></path>

      <clipPath id="make-me-a-hanzi-clip-26">
      <path d="M 3866.0 33.5 L 3895.0 135.5 Q 3901.0 156.5 3905.0 165.5 Q 3910.0 175.5 3921.0 188.5 Q 3932.0 201.5 3933.0 204.5 Q 3935.0 209.5 3935.0 215.5 Q 3935.0 221.5 3922.0 233.5 Q 3909.0 245.5 3900.0 251.5 Q 3890.0 257.5 3876.0 263.5 Q 3865.0 268.5 3855.0 268.5 L 3852.0 268.5 Q 3846.0 267.5 3830.0 263.5 Q 3815.0 258.5 3785.0 252.5 L 3705.0 238.5 Q 3655.0 229.5 3627.0 225.5 L 3561.0 218.5 C 3531.0 215.5 3531.0 180.5 3561.0 185.5 L 3757.0 217.5 L 3797.0 222.5 Q 3804.0 223.5 3810.0 223.5 Q 3823.0 223.5 3827.0 218.5 Q 3833.0 212.5 3835.0 203.5 Q 3836.0 201.5 3836.0 198.5 Q 3836.0 188.5 3831.0 167.5 L 3807.0 42.5 C 3801.0 13.5 3858.0 4.5 3866.0 33.5 Z" fill="lightgray"></path>
      </clipPath>
      <path clip-path="url(#make-me-a-hanzi-clip-26)" d="M 3568.0 191.5 L 3577.0 204.5 L 3727.0 228.5 L 3817.0 241.5 L 3854.0 236.5 L 3880.0 209.5 L 3844.0 68.5 L 3816.0 48.5 " fill="none" id="make-me-a-hanzi-animation-26" stroke-dasharray="641 1282" stroke-linecap="round"></path>

      <clipPath id="make-me-a-hanzi-clip-27">
      <path d="M 3573.0 -24.5 L 3679.0 -16.5 L 3783.0 -8.5 L 3867.0 -2.5 Q 3885.0 -2.5 3888.0 -0.5 Q 3891.0 1.5 3892.0 7.5 L 3892.0 8.5 Q 3892.0 14.5 3883.0 19.5 L 3866.0 33.5 C 3849.0 47.5 3837.0 46.5 3807.0 42.5 L 3698.0 28.5 Q 3675.0 25.5 3573.0 17.5 C 3543.0 15.5 3543.0 -26.5 3573.0 -24.5 Z" fill="lightgray"></path>
      </clipPath>
      <path clip-path="url(#make-me-a-hanzi-clip-27)" d="M 3580.0 -17.5 L 3592.0 -3.5 L 3609.0 -0.5 L 3811.0 18.5 L 3856.0 16.5 L 3883.0 7.5 " fill="none" id="make-me-a-hanzi-animation-27" stroke-dasharray="440 880" stroke-linecap="round"></path>

</g>
</svg>
