<svg version="1.1" viewBox="0 0 2048 1024" xmlns="http://www.w3.org/2000/svg">
  <g stroke="lightgray" stroke-dasharray="1,1" stroke-width="1" transform="scale(4, 4)">
    <line x1="0" y1="0" x2="256" y2="256"></line>
    <line x1="256" y1="0" x2="0" y2="256"></line>
    <line x1="128" y1="0" x2="128" y2="256"></line>
    <line x1="0" y1="128" x2="256" y2="128"></line>
    <line x1="256" y1="0" x2="512" y2="256"></line>
    <line x1="512" y1="0" x2="256" y2="256"></line>
    <line x1="384" y1="0" x2="384" y2="256"></line>
    <line x1="256" y1="128" x2="512" y2="128"></line>
  </g>
<g transform="scale(1, -1) translate(0, -850)">
   <style type="text/css">
    @keyframes keyframes0 {
      from {
       stroke: black;
       stroke-dashoffset: 977;
       stroke-width: 128;
       }
       76% {
       animation-timing-function: step-end;
       stroke: black;
       stroke-dashoffset: 0;
       stroke-width: 128;
       }
       to {
       stroke: black;
       stroke-width: 1024;
       }
       }
       #make-me-a-hanzi-animation-0 {
         animation: keyframes0 1.045085s both;
         animation-delay: 0.000000s;
         animation-timing-function: linear;
       }
    @keyframes keyframes1 {
      from {
       stroke: black;
       stroke-dashoffset: 426;
       stroke-width: 128;
       }
       58% {
       animation-timing-function: step-end;
       stroke: black;
       stroke-dashoffset: 0;
       stroke-width: 128;
       }
       to {
       stroke: black;
       stroke-width: 1024;
       }
       }
       #make-me-a-hanzi-animation-1 {
         animation: keyframes1 0.596680s both;
         animation-delay: 1.045085s;
         animation-timing-function: linear;
       }
    @keyframes keyframes2 {
      from {
       stroke: black;
       stroke-dashoffset: 697;
       stroke-width: 128;
       }
       69% {
       animation-timing-function: step-end;
       stroke: black;
       stroke-dashoffset: 0;
       stroke-width: 128;
       }
       to {
       stroke: black;
       stroke-width: 1024;
       }
       }
       #make-me-a-hanzi-animation-2 {
         animation: keyframes2 0.817220s both;
         animation-delay: 1.641764s;
         animation-timing-function: linear;
       }
    @keyframes keyframes3 {
      from {
       stroke: black;
       stroke-dashoffset: 582;
       stroke-width: 128;
       }
       65% {
       animation-timing-function: step-end;
       stroke: black;
       stroke-dashoffset: 0;
       stroke-width: 128;
       }
       to {
       stroke: black;
       stroke-width: 1024;
       }
       }
       #make-me-a-hanzi-animation-3 {
         animation: keyframes3 0.723633s both;
         animation-delay: 2.458984s;
         animation-timing-function: linear;
       }
    @keyframes keyframes4 {
      from {
       stroke: black;
       stroke-dashoffset: 878;
       stroke-width: 128;
       }
       74% {
       animation-timing-function: step-end;
       stroke: black;
       stroke-dashoffset: 0;
       stroke-width: 128;
       }
       to {
       stroke: black;
       stroke-width: 1024;
       }
       }
       #make-me-a-hanzi-animation-4 {
         animation: keyframes4 0.964518s both;
         animation-delay: 3.182617s;
         animation-timing-function: linear;
       }
    @keyframes keyframes5 {
      from {
       stroke: black;
       stroke-dashoffset: 1019;
       stroke-width: 128;
       }
       77% {
       animation-timing-function: step-end;
       stroke: black;
       stroke-dashoffset: 0;
       stroke-width: 128;
       }
       to {
       stroke: black;
       stroke-width: 1024;
       }
       }
       #make-me-a-hanzi-animation-5 {
         animation: keyframes5 1.079264s both;
         animation-delay: 4.147135s;
         animation-timing-function: linear;
       }
    @keyframes keyframes6 {
      from {
       stroke: black;
       stroke-dashoffset: 685;
       stroke-width: 128;
       }
       69% {
       animation-timing-function: step-end;
       stroke: black;
       stroke-dashoffset: 0;
       stroke-width: 128;
       }
       to {
       stroke: black;
       stroke-width: 1024;
       }
       }
       #make-me-a-hanzi-animation-6 {
         animation: keyframes6 0.807454s both;
         animation-delay: 5.226400s;
         animation-timing-function: linear;
       }
    @keyframes keyframes7 {
      from {
       stroke: black;
       stroke-dashoffset: 1254;
       stroke-width: 128;
       }
       80% {
       animation-timing-function: step-end;
       stroke: black;
       stroke-dashoffset: 0;
       stroke-width: 128;
       }
       to {
       stroke: black;
       stroke-width: 1024;
       }
       }
       #make-me-a-hanzi-animation-7 {
         animation: keyframes7 1.270508s both;
         animation-delay: 6.033854s;
         animation-timing-function: linear;
       }
    @keyframes keyframes8 {
      from {
       stroke: black;
       stroke-dashoffset: 798;
       stroke-width: 128;
       }
       72% {
       animation-timing-function: step-end;
       stroke: black;
       stroke-dashoffset: 0;
       stroke-width: 128;
       }
       to {
       stroke: black;
       stroke-width: 1024;
       }
       }
       #make-me-a-hanzi-animation-8 {
         animation: keyframes8 0.899414s both;
         animation-delay: 7.304362s;
         animation-timing-function: linear;
       }
    @keyframes keyframes9 {
      from {
       stroke: black;
       stroke-dashoffset: 910;
       stroke-width: 128;
       }
       75% {
       animation-timing-function: step-end;
       stroke: black;
       stroke-dashoffset: 0;
       stroke-width: 128;
       }
       to {
       stroke: black;
       stroke-width: 1024;
       }
       }
       #make-me-a-hanzi-animation-9 {
         animation: keyframes9 0.990560s both;
         animation-delay: 8.203776s;
         animation-timing-function: linear;
       }
    @keyframes keyframes10 {
      from {
       stroke: black;
       stroke-dashoffset: 714;
       stroke-width: 128;
       }
       70% {
       animation-timing-function: step-end;
       stroke: black;
       stroke-dashoffset: 0;
       stroke-width: 128;
       }
       to {
       stroke: black;
       stroke-width: 1024;
       }
       }
       #make-me-a-hanzi-animation-10 {
         animation: keyframes10 0.831055s both;
         animation-delay: 9.194336s;
         animation-timing-function: linear;
       }
    @keyframes keyframes11 {
      from {
       stroke: black;
       stroke-dashoffset: 380;
       stroke-width: 128;
       }
       55% {
       animation-timing-function: step-end;
       stroke: black;
       stroke-dashoffset: 0;
       stroke-width: 128;
       }
       to {
       stroke: black;
       stroke-width: 1024;
       }
       }
       #make-me-a-hanzi-animation-11 {
         animation: keyframes11 0.559245s both;
         animation-delay: 10.025391s;
         animation-timing-function: linear;
       }
    @keyframes keyframes12 {
      from {
       stroke: black;
       stroke-dashoffset: 444;
       stroke-width: 128;
       }
       59% {
       animation-timing-function: step-end;
       stroke: black;
       stroke-dashoffset: 0;
       stroke-width: 128;
       }
       to {
       stroke: black;
       stroke-width: 1024;
       }
       }
       #make-me-a-hanzi-animation-12 {
         animation: keyframes12 0.611328s both;
         animation-delay: 10.584635s;
         animation-timing-function: linear;
       }
    @keyframes keyframes13 {
      from {
       stroke: black;
       stroke-dashoffset: 908;
       stroke-width: 128;
       }
       75% {
       animation-timing-function: step-end;
       stroke: black;
       stroke-dashoffset: 0;
       stroke-width: 128;
       }
       to {
       stroke: black;
       stroke-width: 1024;
       }
       }
       #make-me-a-hanzi-animation-13 {
         animation: keyframes13 0.988932s both;
         animation-delay: 11.195964s;
         animation-timing-function: linear;
       }
    @keyframes keyframes14 {
      from {
       stroke: black;
       stroke-dashoffset: 381;
       stroke-width: 128;
       }
       55% {
       animation-timing-function: step-end;
       stroke: black;
       stroke-dashoffset: 0;
       stroke-width: 128;
       }
       to {
       stroke: black;
       stroke-width: 1024;
       }
       }
       #make-me-a-hanzi-animation-14 {
         animation: keyframes14 0.560059s both;
         animation-delay: 12.184896s;
         animation-timing-function: linear;
       }
    @keyframes keyframes15 {
      from {
       stroke: black;
       stroke-dashoffset: 461;
       stroke-width: 128;
       }
       60% {
       animation-timing-function: step-end;
       stroke: black;
       stroke-dashoffset: 0;
       stroke-width: 128;
       }
       to {
       stroke: black;
       stroke-width: 1024;
       }
       }
       #make-me-a-hanzi-animation-15 {
         animation: keyframes15 0.625163s both;
         animation-delay: 12.744954s;
         animation-timing-function: linear;
       }
</style>
<path d="M 535 658 Q 595 664 849 664 Q 870 664 875 673 Q 881 685 863 699 Q 809 741 771 733 Q 683 715 539 695 L 481 688 Q 330 672 153 653 Q 131 652 147 633 Q 162 618 180 612 Q 202 606 219 611 Q 381 653 481 654 L 535 658 Z" fill="lightgray"></path> 
<path d="M 321 574 Q 308 580 285 581 Q 273 584 271 579 Q 265 572 274 558 Q 298 518 315 452 Q 319 433 332 420 Q 350 401 354 415 Q 357 424 356 436 L 352 467 Q 342 522 340 543 C 337 568 337 568 321 574 Z" fill="lightgray"></path> 
<path d="M 671 505 Q 698 544 718 550 Q 734 566 723 584 Q 654 645 612 624 Q 570 612 531 601 L 481 592 Q 403 580 321 574 C 291 572 310 538 340 543 Q 446 561 481 565 L 530 572 Q 561 578 592 582 Q 622 588 633 575 Q 637 571 636 561 Q 629 534 622 512 C 613 483 653 481 671 505 Z" fill="lightgray"></path> 
<path d="M 526 460 Q 592 469 680 474 Q 690 475 691 483 Q 691 490 671 505 C 655 518 652 517 622 512 Q 571 503 527 493 L 480 485 Q 413 475 352 467 C 322 463 326 434 356 436 Q 360 436 368 437 Q 411 447 480 454 L 526 460 Z" fill="lightgray"></path> 
<path d="M 691 205 Q 698 239 707 273 L 728 326 Q 738 342 751 357 Q 770 379 743 395 Q 718 414 693 428 Q 680 437 601 414 Q 574 411 525 402 L 479 395 Q 437 391 394 381 Q 321 368 275 366 Q 262 367 260 359 Q 259 352 279 340 Q 298 325 328 334 Q 419 358 479 363 L 525 369 Q 577 376 643 381 Q 658 382 662 375 Q 671 363 666 316 L 658 272 Q 652 247 645 217 C 638 188 685 176 691 205 Z" fill="lightgray"></path> 
<path d="M 478 289 Q 321 273 141 252 Q 119 251 135 233 Q 148 220 167 213 Q 188 207 204 212 Q 319 242 448 256 Q 461 259 478 259 L 526 264 Q 584 271 658 272 L 707 273 Q 893 273 899 282 Q 903 294 888 308 Q 831 350 766 333 Q 747 330 728 326 L 666 316 Q 600 309 525 296 L 478 289 Z" fill="lightgray"></path> 
<path d="M 477 186 Q 374 171 286 163 Q 262 162 276 142 Q 283 132 294 127 Q 307 123 321 126 Q 381 139 477 149 L 529 154 Q 605 163 701 168 Q 713 169 715 179 Q 715 186 691 205 C 673 220 673 220 645 217 Q 638 217 629 215 Q 577 205 527 195 L 477 186 Z" fill="lightgray"></path> 
<path d="M 479 363 Q 478 329 478 289 L 478 259 Q 477 225 477 186 L 477 149 Q 477 101 477 47 Q 476 20 461 10 Q 455 6 373 19 Q 340 29 343 19 Q 344 12 366 -2 Q 436 -50 455 -79 Q 477 -113 493 -112 Q 508 -113 521 -78 Q 537 -33 534 40 Q 531 97 529 154 L 527 195 Q 526 229 526 264 L 525 296 Q 524 333 525 369 L 525 402 Q 524 432 526 460 L 527 493 Q 528 533 530 572 L 531 601 Q 531 605 535 658 L 539 695 Q 543 726 550 747 Q 568 777 512 799 Q 478 818 459 811 Q 441 804 457 782 Q 475 758 481 688 L 481 654 Q 481 629 481 592 L 481 565 Q 480 531 480 485 L 480 454 Q 479 426 479 395 L 479 363 Z" fill="lightgray"></path> 
<path d="M 1541 515 Q 1551 516 1788 535 Q 1809 536 1813 545 Q 1819 558 1800 571 Q 1739 611 1670 589 L 1542 560 L 1485 549 L 1268 510 Q 1246 506 1263 489 Q 1293 464 1345 475 Q 1403 494 1474 504 L 1541 515 Z" fill="lightgray"></path> 
<path d="M 1459 352 Q 1495 406 1524 494 L 1542 560 Q 1542 593 1564 653 Q 1568 669 1577 684 Q 1584 694 1576 703 Q 1560 722 1528 740 Q 1509 753 1491 749 Q 1470 745 1484 725 Q 1508 694 1504 663 Q 1497 599 1485 549 L 1474 504 Q 1473 503 1473 500 Q 1431 350 1290 274 Q 1229 247 1226 243 Q 1222 239 1237 235 Q 1273 226 1378 279 Q 1403 292 1447 336 L 1459 352 Z" fill="lightgray"></path> 
<path d="M 1524 494 Q 1603 382 1707 262 Q 1726 241 1756 243 Q 1859 246 1893 252 Q 1903 253 1904 259 Q 1904 263 1890 271 Q 1736 331 1674 386 Q 1611 441 1541 515 C 1520 537 1507 518 1524 494 Z" fill="lightgray"></path> 
<path d="M 1447 336 Q 1451 329 1470 316 L 1535 264 Q 1545 254 1558 255 Q 1565 256 1569 266 Q 1573 278 1565 301 Q 1559 320 1529 334 Q 1498 344 1465 352 Q 1461 353 1459 352 C 1436 351 1436 351 1447 336 Z" fill="lightgray"></path> 
<path d="M 1242 153 Q 1217 92 1182 37 Q 1163 7 1180 -33 Q 1187 -52 1210 -38 Q 1264 2 1269 93 Q 1273 127 1267 153 Q 1261 162 1255 163 Q 1246 162 1242 153 Z" fill="lightgray"></path> 
<path d="M 1345 130 Q 1363 24 1442 -33 Q 1526 -90 1728 -90 Q 1773 -86 1812 -71 Q 1837 -61 1840 -45 Q 1844 -35 1804 -6 Q 1743 49 1698 104 Q 1685 123 1680 114 Q 1676 107 1681 92 Q 1694 55 1704 16 Q 1710 -6 1703 -15 Q 1694 -27 1653 -28 Q 1494 -28 1431 36 Q 1401 63 1389 110 Q 1382 135 1370 141 Q 1357 148 1348 145 Q 1342 144 1345 130 Z" fill="lightgray"></path> 
<path d="M 1480 183 Q 1526 122 1559 107 Q 1574 103 1583 115 Q 1590 127 1588 143 Q 1579 185 1501 216 Q 1497 217 1495 219 Q 1479 225 1470 222 Q 1463 221 1465 209 Q 1466 197 1480 183 Z" fill="lightgray"></path> 
<path d="M 1744 175 Q 1801 138 1870 81 Q 1888 65 1903 62 Q 1910 62 1917 73 Q 1927 86 1908 126 Q 1901 147 1882 160 Q 1863 172 1818 185 Q 1769 198 1741 204 Q 1731 208 1731 196 Q 1732 183 1744 175 Z" fill="lightgray"></path> 
      <clipPath id="make-me-a-hanzi-clip-0">
      <path d="M 535 658 Q 595 664 849 664 Q 870 664 875 673 Q 881 685 863 699 Q 809 741 771 733 Q 683 715 539 695 L 481 688 Q 330 672 153 653 Q 131 652 147 633 Q 162 618 180 612 Q 202 606 219 611 Q 381 653 481 654 L 535 658 Z" fill="lightgray"></path>
      </clipPath>
      <path clip-path="url(#make-me-a-hanzi-clip-0)" d="M 150 643 L 201 633 L 402 665 L 781 699 L 827 692 L 863 679 " fill="none" id="make-me-a-hanzi-animation-0" stroke-dasharray="849 1698" stroke-linecap="round"></path>

      <clipPath id="make-me-a-hanzi-clip-1">
      <path d="M 321 574 Q 308 580 285 581 Q 273 584 271 579 Q 265 572 274 558 Q 298 518 315 452 Q 319 433 332 420 Q 350 401 354 415 Q 357 424 356 436 L 352 467 Q 342 522 340 543 C 337 568 337 568 321 574 Z" fill="lightgray"></path>
      </clipPath>
      <path clip-path="url(#make-me-a-hanzi-clip-1)" d="M 279 572 L 305 553 L 315 535 L 344 421 " fill="none" id="make-me-a-hanzi-animation-1" stroke-dasharray="298 596" stroke-linecap="round"></path>

      <clipPath id="make-me-a-hanzi-clip-2">
      <path d="M 671 505 Q 698 544 718 550 Q 734 566 723 584 Q 654 645 612 624 Q 570 612 531 601 L 481 592 Q 403 580 321 574 C 291 572 310 538 340 543 Q 446 561 481 565 L 530 572 Q 561 578 592 582 Q 622 588 633 575 Q 637 571 636 561 Q 629 534 622 512 C 613 483 653 481 671 505 Z" fill="lightgray"></path>
      </clipPath>
      <path clip-path="url(#make-me-a-hanzi-clip-2)" d="M 329 572 L 350 559 L 632 605 L 656 595 L 675 572 L 656 534 L 629 516 " fill="none" id="make-me-a-hanzi-animation-2" stroke-dasharray="569 1138" stroke-linecap="round"></path>

      <clipPath id="make-me-a-hanzi-clip-3">
      <path d="M 526 460 Q 592 469 680 474 Q 690 475 691 483 Q 691 490 671 505 C 655 518 652 517 622 512 Q 571 503 527 493 L 480 485 Q 413 475 352 467 C 322 463 326 434 356 436 Q 360 436 368 437 Q 411 447 480 454 L 526 460 Z" fill="lightgray"></path>
      </clipPath>
      <path clip-path="url(#make-me-a-hanzi-clip-3)" d="M 360 460 L 370 453 L 618 491 L 681 484 " fill="none" id="make-me-a-hanzi-animation-3" stroke-dasharray="454 908" stroke-linecap="round"></path>

      <clipPath id="make-me-a-hanzi-clip-4">
      <path d="M 691 205 Q 698 239 707 273 L 728 326 Q 738 342 751 357 Q 770 379 743 395 Q 718 414 693 428 Q 680 437 601 414 Q 574 411 525 402 L 479 395 Q 437 391 394 381 Q 321 368 275 366 Q 262 367 260 359 Q 259 352 279 340 Q 298 325 328 334 Q 419 358 479 363 L 525 369 Q 577 376 643 381 Q 658 382 662 375 Q 671 363 666 316 L 658 272 Q 652 247 645 217 C 638 188 685 176 691 205 Z" fill="lightgray"></path>
      </clipPath>
      <path clip-path="url(#make-me-a-hanzi-clip-4)" d="M 267 358 L 317 350 L 418 371 L 641 404 L 680 400 L 707 366 L 673 234 L 685 213 " fill="none" id="make-me-a-hanzi-animation-4" stroke-dasharray="750 1500" stroke-linecap="round"></path>

      <clipPath id="make-me-a-hanzi-clip-5">
      <path d="M 478 289 Q 321 273 141 252 Q 119 251 135 233 Q 148 220 167 213 Q 188 207 204 212 Q 319 242 448 256 Q 461 259 478 259 L 526 264 Q 584 271 658 272 L 707 273 Q 893 273 899 282 Q 903 294 888 308 Q 831 350 766 333 Q 747 330 728 326 L 666 316 Q 600 309 525 296 L 478 289 Z" fill="lightgray"></path>
      </clipPath>
      <path clip-path="url(#make-me-a-hanzi-clip-5)" d="M 138 243 L 194 234 L 370 263 L 780 305 L 829 305 L 894 288 " fill="none" id="make-me-a-hanzi-animation-5" stroke-dasharray="891 1782" stroke-linecap="round"></path>

      <clipPath id="make-me-a-hanzi-clip-6">
      <path d="M 477 186 Q 374 171 286 163 Q 262 162 276 142 Q 283 132 294 127 Q 307 123 321 126 Q 381 139 477 149 L 529 154 Q 605 163 701 168 Q 713 169 715 179 Q 715 186 691 205 C 673 220 673 220 645 217 Q 638 217 629 215 Q 577 205 527 195 L 477 186 Z" fill="lightgray"></path>
      </clipPath>
      <path clip-path="url(#make-me-a-hanzi-clip-6)" d="M 282 152 L 312 145 L 643 191 L 706 179 " fill="none" id="make-me-a-hanzi-animation-6" stroke-dasharray="557 1114" stroke-linecap="round"></path>

      <clipPath id="make-me-a-hanzi-clip-7">
      <path d="M 479 363 Q 478 329 478 289 L 478 259 Q 477 225 477 186 L 477 149 Q 477 101 477 47 Q 476 20 461 10 Q 455 6 373 19 Q 340 29 343 19 Q 344 12 366 -2 Q 436 -50 455 -79 Q 477 -113 493 -112 Q 508 -113 521 -78 Q 537 -33 534 40 Q 531 97 529 154 L 527 195 Q 526 229 526 264 L 525 296 Q 524 333 525 369 L 525 402 Q 524 432 526 460 L 527 493 Q 528 533 530 572 L 531 601 Q 531 605 535 658 L 539 695 Q 543 726 550 747 Q 568 777 512 799 Q 478 818 459 811 Q 441 804 457 782 Q 475 758 481 688 L 481 654 Q 481 629 481 592 L 481 565 Q 480 531 480 485 L 480 454 Q 479 426 479 395 L 479 363 Z" fill="lightgray"></path>
      </clipPath>
      <path clip-path="url(#make-me-a-hanzi-clip-7)" d="M 465 796 L 482 788 L 511 753 L 501 432 L 505 30 L 499 -1 L 482 -34 L 350 17 " fill="none" id="make-me-a-hanzi-animation-7" stroke-dasharray="1126 2252" stroke-linecap="round"></path>

      <clipPath id="make-me-a-hanzi-clip-8">
      <path d="M 1541 515 Q 1551 516 1788 535 Q 1809 536 1813 545 Q 1819 558 1800 571 Q 1739 611 1670 589 L 1542 560 L 1485 549 L 1268 510 Q 1246 506 1263 489 Q 1293 464 1345 475 Q 1403 494 1474 504 L 1541 515 Z" fill="lightgray"></path>
      </clipPath>
      <path clip-path="url(#make-me-a-hanzi-clip-8)" d="M 1266 499 L 1320 495 L 1539 538 L 1698 562 L 1756 562 L 1801 551 " fill="none" id="make-me-a-hanzi-animation-8" stroke-dasharray="670 1340" stroke-linecap="round"></path>

      <clipPath id="make-me-a-hanzi-clip-9">
      <path d="M 1459 352 Q 1495 406 1524 494 L 1542 560 Q 1542 593 1564 653 Q 1568 669 1577 684 Q 1584 694 1576 703 Q 1560 722 1528 740 Q 1509 753 1491 749 Q 1470 745 1484 725 Q 1508 694 1504 663 Q 1497 599 1485 549 L 1474 504 Q 1473 503 1473 500 Q 1431 350 1290 274 Q 1229 247 1226 243 Q 1222 239 1237 235 Q 1273 226 1378 279 Q 1403 292 1447 336 L 1459 352 Z" fill="lightgray"></path>
      </clipPath>
      <path clip-path="url(#make-me-a-hanzi-clip-9)" d="M 1491 736 L 1522 714 L 1538 682 L 1512 547 L 1475 431 L 1441 371 L 1388 314 L 1341 281 L 1293 258 L 1232 239 " fill="none" id="make-me-a-hanzi-animation-9" stroke-dasharray="782 1564" stroke-linecap="round"></path>

      <clipPath id="make-me-a-hanzi-clip-10">
      <path d="M 1524 494 Q 1603 382 1707 262 Q 1726 241 1756 243 Q 1859 246 1893 252 Q 1903 253 1904 259 Q 1904 263 1890 271 Q 1736 331 1674 386 Q 1611 441 1541 515 C 1520 537 1507 518 1524 494 Z" fill="lightgray"></path>
      </clipPath>
      <path clip-path="url(#make-me-a-hanzi-clip-10)" d="M 1536 506 L 1597 428 L 1671 349 L 1741 290 L 1897 258 " fill="none" id="make-me-a-hanzi-animation-10" stroke-dasharray="586 1172" stroke-linecap="round"></path>

      <clipPath id="make-me-a-hanzi-clip-11">
      <path d="M 1447 336 Q 1451 329 1470 316 L 1535 264 Q 1545 254 1558 255 Q 1565 256 1569 266 Q 1573 278 1565 301 Q 1559 320 1529 334 Q 1498 344 1465 352 Q 1461 353 1459 352 C 1436 351 1436 351 1447 336 Z" fill="lightgray"></path>
      </clipPath>
      <path clip-path="url(#make-me-a-hanzi-clip-11)" d="M 1455 336 L 1480 331 L 1532 302 L 1554 270 " fill="none" id="make-me-a-hanzi-animation-11" stroke-dasharray="252 504" stroke-linecap="round"></path>

      <clipPath id="make-me-a-hanzi-clip-12">
      <path d="M 1242 153 Q 1217 92 1182 37 Q 1163 7 1180 -33 Q 1187 -52 1210 -38 Q 1264 2 1269 93 Q 1273 127 1267 153 Q 1261 162 1255 163 Q 1246 162 1242 153 Z" fill="lightgray"></path>
      </clipPath>
      <path clip-path="url(#make-me-a-hanzi-clip-12)" d="M 1255 151 L 1242 86 L 1196 -27 " fill="none" id="make-me-a-hanzi-animation-12" stroke-dasharray="316 632" stroke-linecap="round"></path>

      <clipPath id="make-me-a-hanzi-clip-13">
      <path d="M 1345 130 Q 1363 24 1442 -33 Q 1526 -90 1728 -90 Q 1773 -86 1812 -71 Q 1837 -61 1840 -45 Q 1844 -35 1804 -6 Q 1743 49 1698 104 Q 1685 123 1680 114 Q 1676 107 1681 92 Q 1694 55 1704 16 Q 1710 -6 1703 -15 Q 1694 -27 1653 -28 Q 1494 -28 1431 36 Q 1401 63 1389 110 Q 1382 135 1370 141 Q 1357 148 1348 145 Q 1342 144 1345 130 Z" fill="lightgray"></path>
      </clipPath>
      <path clip-path="url(#make-me-a-hanzi-clip-13)" d="M 1353 136 L 1401 38 L 1438 -1 L 1498 -33 L 1607 -56 L 1698 -57 L 1718 -53 L 1754 -33 L 1732 24 L 1685 108 " fill="none" id="make-me-a-hanzi-animation-13" stroke-dasharray="780 1560" stroke-linecap="round"></path>

      <clipPath id="make-me-a-hanzi-clip-14">
      <path d="M 1480 183 Q 1526 122 1559 107 Q 1574 103 1583 115 Q 1590 127 1588 143 Q 1579 185 1501 216 Q 1497 217 1495 219 Q 1479 225 1470 222 Q 1463 221 1465 209 Q 1466 197 1480 183 Z" fill="lightgray"></path>
      </clipPath>
      <path clip-path="url(#make-me-a-hanzi-clip-14)" d="M 1476 212 L 1538 163 L 1566 127 " fill="none" id="make-me-a-hanzi-animation-14" stroke-dasharray="253 506" stroke-linecap="round"></path>

      <clipPath id="make-me-a-hanzi-clip-15">
      <path d="M 1744 175 Q 1801 138 1870 81 Q 1888 65 1903 62 Q 1910 62 1917 73 Q 1927 86 1908 126 Q 1901 147 1882 160 Q 1863 172 1818 185 Q 1769 198 1741 204 Q 1731 208 1731 196 Q 1732 183 1744 175 Z" fill="lightgray"></path>
      </clipPath>
      <path clip-path="url(#make-me-a-hanzi-clip-15)" d="M 1742 193 L 1861 133 L 1886 106 L 1902 75 " fill="none" id="make-me-a-hanzi-animation-15" stroke-dasharray="333 666" stroke-linecap="round"></path>

</g>
</svg>
