<svg version="1.1" viewBox="0 0 2048 1024" xmlns="http://www.w3.org/2000/svg">
  <g stroke="lightgray" stroke-dasharray="1,1" stroke-width="1" transform="scale(4, 4)">
    <line x1="0" y1="0" x2="256" y2="256"></line>
    <line x1="256" y1="0" x2="0" y2="256"></line>
    <line x1="128" y1="0" x2="128" y2="256"></line>
    <line x1="0" y1="128" x2="256" y2="128"></line>
    <line x1="256" y1="0" x2="512" y2="256"></line>
    <line x1="512" y1="0" x2="256" y2="256"></line>
    <line x1="384" y1="0" x2="384" y2="256"></line>
    <line x1="256" y1="128" x2="512" y2="128"></line>
  </g>
<g transform="scale(1, -1) translate(0, -850)">
   <style type="text/css">
    @keyframes keyframes0 {
      from {
       stroke: black;
       stroke-dashoffset: 398;
       stroke-width: 128;
       }
       56% {
       animation-timing-function: step-end;
       stroke: black;
       stroke-dashoffset: 0;
       stroke-width: 128;
       }
       to {
       stroke: black;
       stroke-width: 1024;
       }
       }
       #make-me-a-hanzi-animation-0 {
         animation: keyframes0 0.573893s both;
         animation-delay: 0.000000s;
         animation-timing-function: linear;
       }
    @keyframes keyframes1 {
      from {
       stroke: black;
       stroke-dashoffset: 749;
       stroke-width: 128;
       }
       71% {
       animation-timing-function: step-end;
       stroke: black;
       stroke-dashoffset: 0;
       stroke-width: 128;
       }
       to {
       stroke: black;
       stroke-width: 1024;
       }
       }
       #make-me-a-hanzi-animation-1 {
         animation: keyframes1 0.859538s both;
         animation-delay: 0.573893s;
         animation-timing-function: linear;
       }
    @keyframes keyframes2 {
      from {
       stroke: black;
       stroke-dashoffset: 377;
       stroke-width: 128;
       }
       55% {
       animation-timing-function: step-end;
       stroke: black;
       stroke-dashoffset: 0;
       stroke-width: 128;
       }
       to {
       stroke: black;
       stroke-width: 1024;
       }
       }
       #make-me-a-hanzi-animation-2 {
         animation: keyframes2 0.556803s both;
         animation-delay: 1.433431s;
         animation-timing-function: linear;
       }
    @keyframes keyframes3 {
      from {
       stroke: black;
       stroke-dashoffset: 438;
       stroke-width: 128;
       }
       59% {
       animation-timing-function: step-end;
       stroke: black;
       stroke-dashoffset: 0;
       stroke-width: 128;
       }
       to {
       stroke: black;
       stroke-width: 1024;
       }
       }
       #make-me-a-hanzi-animation-3 {
         animation: keyframes3 0.606445s both;
         animation-delay: 1.990234s;
         animation-timing-function: linear;
       }
    @keyframes keyframes4 {
      from {
       stroke: black;
       stroke-dashoffset: 763;
       stroke-width: 128;
       }
       71% {
       animation-timing-function: step-end;
       stroke: black;
       stroke-dashoffset: 0;
       stroke-width: 128;
       }
       to {
       stroke: black;
       stroke-width: 1024;
       }
       }
       #make-me-a-hanzi-animation-4 {
         animation: keyframes4 0.870931s both;
         animation-delay: 2.596679s;
         animation-timing-function: linear;
       }
    @keyframes keyframes5 {
      from {
       stroke: black;
       stroke-dashoffset: 805;
       stroke-width: 128;
       }
       72% {
       animation-timing-function: step-end;
       stroke: black;
       stroke-dashoffset: 0;
       stroke-width: 128;
       }
       to {
       stroke: black;
       stroke-width: 1024;
       }
       }
       #make-me-a-hanzi-animation-5 {
         animation: keyframes5 0.905111s both;
         animation-delay: 3.467610s;
         animation-timing-function: linear;
       }
    @keyframes keyframes6 {
      from {
       stroke: black;
       stroke-dashoffset: 526;
       stroke-width: 128;
       }
       63% {
       animation-timing-function: step-end;
       stroke: black;
       stroke-dashoffset: 0;
       stroke-width: 128;
       }
       to {
       stroke: black;
       stroke-width: 1024;
       }
       }
       #make-me-a-hanzi-animation-6 {
         animation: keyframes6 0.678060s both;
         animation-delay: 4.372721s;
         animation-timing-function: linear;
       }
    @keyframes keyframes7 {
      from {
       stroke: black;
       stroke-dashoffset: 773;
       stroke-width: 128;
       }
       72% {
       animation-timing-function: step-end;
       stroke: black;
       stroke-dashoffset: 0;
       stroke-width: 128;
       }
       to {
       stroke: black;
       stroke-width: 1024;
       }
       }
       #make-me-a-hanzi-animation-7 {
         animation: keyframes7 0.879069s both;
         animation-delay: 5.050781s;
         animation-timing-function: linear;
       }
    @keyframes keyframes8 {
      from {
       stroke: black;
       stroke-dashoffset: 606;
       stroke-width: 128;
       }
       66% {
       animation-timing-function: step-end;
       stroke: black;
       stroke-dashoffset: 0;
       stroke-width: 128;
       }
       to {
       stroke: black;
       stroke-width: 1024;
       }
       }
       #make-me-a-hanzi-animation-8 {
         animation: keyframes8 0.743164s both;
         animation-delay: 5.929850s;
         animation-timing-function: linear;
       }
    @keyframes keyframes9 {
      from {
       stroke: black;
       stroke-dashoffset: 1058;
       stroke-width: 128;
       }
       77% {
       animation-timing-function: step-end;
       stroke: black;
       stroke-dashoffset: 0;
       stroke-width: 128;
       }
       to {
       stroke: black;
       stroke-width: 1024;
       }
       }
       #make-me-a-hanzi-animation-9 {
         animation: keyframes9 1.111003s both;
         animation-delay: 6.673014s;
         animation-timing-function: linear;
       }
    @keyframes keyframes10 {
      from {
       stroke: black;
       stroke-dashoffset: 867;
       stroke-width: 128;
       }
       74% {
       animation-timing-function: step-end;
       stroke: black;
       stroke-dashoffset: 0;
       stroke-width: 128;
       }
       to {
       stroke: black;
       stroke-width: 1024;
       }
       }
       #make-me-a-hanzi-animation-10 {
         animation: keyframes10 0.955566s both;
         animation-delay: 7.784017s;
         animation-timing-function: linear;
       }
    @keyframes keyframes11 {
      from {
       stroke: black;
       stroke-dashoffset: 1338;
       stroke-width: 128;
       }
       81% {
       animation-timing-function: step-end;
       stroke: black;
       stroke-dashoffset: 0;
       stroke-width: 128;
       }
       to {
       stroke: black;
       stroke-width: 1024;
       }
       }
       #make-me-a-hanzi-animation-11 {
         animation: keyframes11 1.338867s both;
         animation-delay: 8.739583s;
         animation-timing-function: linear;
       }
</style>
<path d="M 513.0 764.0 Q 488.0 764.0 488.0 760.0 Q 488.0 755.0 526.0 706.0 Q 570.0 651.0 601.0 651.0 Q 628.0 651.0 628.0 683.0 Q 628.0 700.0 619.0 718.0 Q 604.0 742.0 570.0 753.0 Q 545.0 762.0 513.0 764.0 Z" fill="lightgray"></path> 
<path d="M 752.0 647.0 Q 735.0 647.0 695.0 636.0 Q 596.0 607.0 320.0 580.0 Q 309.0 578.0 309.0 567.0 Q 309.0 560.0 333.0 553.0 Q 361.0 544.0 385.0 544.0 Q 411.0 544.0 457.0 551.0 Q 529.0 559.0 748.0 588.0 Q 775.0 592.0 805.0 603.0 Q 820.0 610.0 821.0 624.0 Q 817.0 646.0 752.0 647.0 Z" fill="lightgray"></path> 
<path d="M 433.0 511.0 L 417.0 511.0 Q 417.0 507.0 438.0 474.0 Q 478.0 412.0 509.0 412.0 Q 528.0 412.0 528.0 443.0 Q 528.0 460.0 516.0 476.0 Q 505.0 493.0 468.0 506.0 L 433.0 511.0 Z" fill="lightgray"></path> 
<path d="M 632.0 391.0 Q 699.0 482.0 715.0 498.0 Q 729.0 510.0 729.0 511.0 Q 729.0 522.0 693.0 545.0 Q 660.0 563.0 652.0 563.0 Q 637.0 563.0 637.0 552.0 Q 645.0 537.0 645.0 515.0 Q 645.0 490.0 598.0 386.0 C 586.0 359.0 614.0 367.0 632.0 391.0 Z" fill="lightgray"></path> 
<path d="M 813.0 416.0 Q 779.0 416.0 745.0 409.0 Q 686.0 399.0 632.0 391.0 L 598.0 386.0 Q 524.0 376.0 463.0 369.0 Q 411.0 362.0 356.0 359.0 C 326.0 357.0 334.0 329.0 364.0 324.0 Q 379.0 321.0 393.0 320.0 Q 410.0 320.0 451.0 326.0 Q 541.0 337.0 675.0 348.0 Q 755.0 354.0 853.0 355.0 Q 880.0 355.0 880.0 376.0 Q 880.0 391.0 860.0 404.0 Q 838.0 416.0 813.0 416.0 Z" fill="lightgray"></path> 
<path d="M 356.0 359.0 Q 350.0 367.0 336.0 374.0 Q 307.0 391.0 284.0 391.0 Q 272.0 391.0 272.0 383.0 Q 272.0 379.0 285.0 362.0 Q 305.0 326.0 305.0 292.0 Q 305.0 181.0 259.0 78.0 Q 216.0 -19.0 165.0 -65.0 Q 144.0 -82.0 144.0 -85.0 Q 144.0 -88.0 152.0 -88.0 Q 172.0 -88.0 210.0 -56.0 Q 274.0 3.0 316.0 100.0 Q 360.0 198.0 364.0 324.0 C 365.0 351.0 365.0 351.0 356.0 359.0 Z" fill="lightgray"></path> 
<path d="M 1346.0 379.0 L 1322.0 381.0 Q 1310.0 377.0 1302.0 372.0 Q 1294.0 367.0 1274.0 364.0 L 1216.0 351.0 L 1122.0 332.0 Q 1118.0 331.0 1113.0 331.0 Q 1108.0 331.0 1106.0 329.0 L 1106.0 327.0 Q 1106.0 296.0 1216.0 308.0 L 1272.0 317.0 L 1335.0 333.0 L 1358.0 340.0 Q 1367.0 342.0 1377.0 346.0 L 1384.0 354.0 Q 1384.0 370.0 1346.0 379.0 Z" fill="lightgray"></path> 
<path d="M 1274.0 364.0 L 1276.0 527.0 L 1278.0 538.0 Q 1284.0 564.0 1289.0 578.0 Q 1295.0 592.0 1295.0 598.0 Q 1295.0 604.0 1285.0 610.0 L 1262.0 622.0 Q 1235.0 632.0 1213.0 632.0 Q 1178.0 632.0 1192.0 606.0 Q 1209.0 572.0 1213.0 507.0 L 1215.0 462.0 L 1216.0 351.0 L 1216.0 308.0 L 1220.0 118.0 C 1221.0 88.0 1272.0 105.0 1272.0 135.0 L 1272.0 317.0 L 1274.0 364.0 Z" fill="lightgray"></path> 
<path d="M 1220.0 118.0 L 1128.0 83.0 L 1098.0 76.0 L 1080.0 75.0 Q 1072.0 75.0 1070.0 70.0 Q 1069.0 59.0 1087.0 42.0 L 1092.0 34.0 Q 1112.0 17.0 1138.0 3.0 Q 1148.0 1.0 1152.0 1.0 Q 1156.0 1.0 1162.0 7.0 L 1178.0 22.0 L 1226.0 55.0 L 1394.0 165.0 Q 1402.0 169.0 1402.0 172.0 Q 1402.0 174.0 1398.0 179.0 Q 1394.0 183.0 1390.0 179.0 L 1272.0 135.0 L 1220.0 118.0 Z" fill="lightgray"></path> 
<path d="M 1442.0 308.0 L 1421.0 300.0 L 1386.0 289.0 Q 1364.0 279.0 1352.0 278.0 Q 1340.0 277.0 1340.0 272.0 L 1342.0 264.0 Q 1344.0 259.0 1358.0 255.0 Q 1373.0 248.0 1383.0 248.0 Q 1394.0 248.0 1415.0 251.0 Q 1423.0 255.0 1428.0 256.0 Q 1434.0 256.0 1440.0 261.0 L 1494.0 285.0 L 1592.0 325.0 L 1646.0 347.0 L 1766.0 397.0 Q 1783.0 404.0 1787.0 404.0 Q 1798.0 404.0 1798.0 390.0 Q 1799.0 375.0 1793.0 357.0 L 1762.0 247.0 L 1728.0 160.0 Q 1728.0 156.0 1733.0 156.0 Q 1739.0 155.0 1745.0 162.0 L 1798.0 232.0 Q 1822.0 268.0 1850.0 335.0 L 1882.0 407.0 L 1892.0 424.0 Q 1902.0 439.0 1886.0 447.0 Q 1879.0 452.0 1851.0 462.0 Q 1823.0 472.0 1810.0 472.0 Q 1797.0 472.0 1785.0 465.0 Q 1774.0 458.0 1734.0 437.0 L 1648.0 397.0 L 1590.0 371.0 L 1497.0 331.0 L 1442.0 308.0 Z" fill="lightgray"></path> 
<path d="M 1592.0 325.0 L 1594.0 169.0 Q 1594.0 151.0 1598.0 135.0 Q 1605.0 105.0 1619.0 126.0 Q 1625.0 133.0 1627.0 154.0 L 1636.0 197.0 Q 1638.0 212.0 1640.0 245.0 L 1644.0 297.0 L 1646.0 347.0 L 1648.0 397.0 L 1652.0 546.0 Q 1652.0 591.0 1654.0 593.0 L 1657.0 634.0 Q 1659.0 651.0 1661.0 660.0 L 1667.0 680.0 L 1669.0 693.0 Q 1669.0 707.0 1617.0 724.0 Q 1595.0 732.0 1581.0 732.0 Q 1564.0 732.0 1572.0 711.0 L 1581.0 694.0 Q 1590.0 672.0 1590.0 611.0 L 1590.0 371.0 L 1592.0 325.0 Z" fill="lightgray"></path> 
<path d="M 1497.0 331.0 L 1501.0 366.0 Q 1501.0 384.0 1508.0 401.0 Q 1516.0 417.0 1516.0 422.0 Q 1516.0 427.0 1510.0 431.0 L 1500.0 439.0 Q 1496.0 443.0 1488.0 446.0 L 1466.0 453.0 Q 1450.0 459.0 1440.0 459.0 Q 1430.0 457.0 1430.0 447.0 L 1434.0 433.0 Q 1438.0 421.0 1440.0 409.0 L 1444.0 386.0 L 1442.0 308.0 L 1440.0 261.0 L 1440.0 122.0 Q 1441.0 62.0 1459.0 29.0 Q 1480.0 -9.0 1558.0 -35.0 Q 1618.0 -51.0 1722.0 -56.0 L 1743.0 -56.0 Q 1857.0 -56.0 1945.0 -27.0 Q 1963.0 -23.0 1985.0 -7.0 Q 2001.0 6.0 2003.0 9.0 L 2003.0 18.0 Q 2003.0 23.0 1994.0 41.0 Q 1985.0 59.0 1983.0 67.0 Q 1982.0 75.0 1980.0 81.0 Q 1978.0 86.0 1976.0 95.0 L 1972.0 112.0 L 1959.0 201.0 Q 1957.0 211.0 1951.0 212.0 Q 1947.0 212.0 1943.0 198.0 L 1936.0 166.0 L 1915.0 93.0 Q 1906.0 68.0 1896.0 54.0 Q 1866.0 23.0 1804.0 14.0 Q 1772.0 9.0 1732.0 7.0 L 1648.0 9.0 Q 1600.0 13.0 1573.0 19.0 Q 1546.0 25.0 1526.0 40.0 Q 1505.0 53.0 1499.0 68.0 Q 1488.0 84.0 1486.0 112.0 L 1486.0 159.0 Q 1486.0 202.0 1489.0 233.0 L 1494.0 285.0 L 1497.0 331.0 Z" fill="lightgray"></path> 
      <clipPath id="make-me-a-hanzi-clip-0">
      <path d="M 513.0 764.0 Q 488.0 764.0 488.0 760.0 Q 488.0 755.0 526.0 706.0 Q 570.0 651.0 601.0 651.0 Q 628.0 651.0 628.0 683.0 Q 628.0 700.0 619.0 718.0 Q 604.0 742.0 570.0 753.0 Q 545.0 762.0 513.0 764.0 Z" fill="lightgray"></path>
      </clipPath>
      <path clip-path="url(#make-me-a-hanzi-clip-0)" d="M 492.0 759.0 L 565.0 717.0 L 603.0 674.0 " fill="none" id="make-me-a-hanzi-animation-0" stroke-dasharray="270 540" stroke-linecap="round"></path>

      <clipPath id="make-me-a-hanzi-clip-1">
      <path d="M 752.0 647.0 Q 735.0 647.0 695.0 636.0 Q 596.0 607.0 320.0 580.0 Q 309.0 578.0 309.0 567.0 Q 309.0 560.0 333.0 553.0 Q 361.0 544.0 385.0 544.0 Q 411.0 544.0 457.0 551.0 Q 529.0 559.0 748.0 588.0 Q 775.0 592.0 805.0 603.0 Q 820.0 610.0 821.0 624.0 Q 817.0 646.0 752.0 647.0 Z" fill="lightgray"></path>
      </clipPath>
      <path clip-path="url(#make-me-a-hanzi-clip-1)" d="M 318.0 569.0 L 414.0 567.0 L 613.0 593.0 L 740.0 617.0 L 807.0 622.0 " fill="none" id="make-me-a-hanzi-animation-1" stroke-dasharray="621 1242" stroke-linecap="round"></path>

      <clipPath id="make-me-a-hanzi-clip-2">
      <path d="M 433.0 511.0 L 417.0 511.0 Q 417.0 507.0 438.0 474.0 Q 478.0 412.0 509.0 412.0 Q 528.0 412.0 528.0 443.0 Q 528.0 460.0 516.0 476.0 Q 505.0 493.0 468.0 506.0 L 433.0 511.0 Z" fill="lightgray"></path>
      </clipPath>
      <path clip-path="url(#make-me-a-hanzi-clip-2)" d="M 421.0 509.0 L 489.0 460.0 L 509.0 429.0 " fill="none" id="make-me-a-hanzi-animation-2" stroke-dasharray="249 498" stroke-linecap="round"></path>

      <clipPath id="make-me-a-hanzi-clip-3">
      <path d="M 632.0 391.0 Q 699.0 482.0 715.0 498.0 Q 729.0 510.0 729.0 511.0 Q 729.0 522.0 693.0 545.0 Q 660.0 563.0 652.0 563.0 Q 637.0 563.0 637.0 552.0 Q 645.0 537.0 645.0 515.0 Q 645.0 490.0 598.0 386.0 C 586.0 359.0 614.0 367.0 632.0 391.0 Z" fill="lightgray"></path>
      </clipPath>
      <path clip-path="url(#make-me-a-hanzi-clip-3)" d="M 649.0 552.0 L 679.0 509.0 L 627.0 410.0 L 614.0 398.0 " fill="none" id="make-me-a-hanzi-animation-3" stroke-dasharray="310 620" stroke-linecap="round"></path>

      <clipPath id="make-me-a-hanzi-clip-4">
      <path d="M 813.0 416.0 Q 779.0 416.0 745.0 409.0 Q 686.0 399.0 632.0 391.0 L 598.0 386.0 Q 524.0 376.0 463.0 369.0 Q 411.0 362.0 356.0 359.0 C 326.0 357.0 334.0 329.0 364.0 324.0 Q 379.0 321.0 393.0 320.0 Q 410.0 320.0 451.0 326.0 Q 541.0 337.0 675.0 348.0 Q 755.0 354.0 853.0 355.0 Q 880.0 355.0 880.0 376.0 Q 880.0 391.0 860.0 404.0 Q 838.0 416.0 813.0 416.0 Z" fill="lightgray"></path>
      </clipPath>
      <path clip-path="url(#make-me-a-hanzi-clip-4)" d="M 364.0 355.0 L 388.0 340.0 L 794.0 385.0 L 834.0 384.0 L 862.0 374.0 " fill="none" id="make-me-a-hanzi-animation-4" stroke-dasharray="635 1270" stroke-linecap="round"></path>

      <clipPath id="make-me-a-hanzi-clip-5">
      <path d="M 356.0 359.0 Q 350.0 367.0 336.0 374.0 Q 307.0 391.0 284.0 391.0 Q 272.0 391.0 272.0 383.0 Q 272.0 379.0 285.0 362.0 Q 305.0 326.0 305.0 292.0 Q 305.0 181.0 259.0 78.0 Q 216.0 -19.0 165.0 -65.0 Q 144.0 -82.0 144.0 -85.0 Q 144.0 -88.0 152.0 -88.0 Q 172.0 -88.0 210.0 -56.0 Q 274.0 3.0 316.0 100.0 Q 360.0 198.0 364.0 324.0 C 365.0 351.0 365.0 351.0 356.0 359.0 Z" fill="lightgray"></path>
      </clipPath>
      <path clip-path="url(#make-me-a-hanzi-clip-5)" d="M 281.0 383.0 L 317.0 356.0 L 328.0 343.0 L 333.0 323.0 L 330.0 240.0 L 319.0 182.0 L 299.0 115.0 L 250.0 16.0 L 196.0 -53.0 L 149.0 -84.0 " fill="none" id="make-me-a-hanzi-animation-5" stroke-dasharray="677 1354" stroke-linecap="round"></path>

      <clipPath id="make-me-a-hanzi-clip-6">
      <path d="M 1346.0 379.0 L 1322.0 381.0 Q 1310.0 377.0 1302.0 372.0 Q 1294.0 367.0 1274.0 364.0 L 1216.0 351.0 L 1122.0 332.0 Q 1118.0 331.0 1113.0 331.0 Q 1108.0 331.0 1106.0 329.0 L 1106.0 327.0 Q 1106.0 296.0 1216.0 308.0 L 1272.0 317.0 L 1335.0 333.0 L 1358.0 340.0 Q 1367.0 342.0 1377.0 346.0 L 1384.0 354.0 Q 1384.0 370.0 1346.0 379.0 Z" fill="lightgray"></path>
      </clipPath>
      <path clip-path="url(#make-me-a-hanzi-clip-6)" d="M 1110.0 328.0 L 1124.0 320.0 L 1174.0 322.0 L 1338.0 358.0 L 1374.0 356.0 " fill="none" id="make-me-a-hanzi-animation-6" stroke-dasharray="398 796" stroke-linecap="round"></path>

      <clipPath id="make-me-a-hanzi-clip-7">
      <path d="M 1274.0 364.0 L 1276.0 527.0 L 1278.0 538.0 Q 1284.0 564.0 1289.0 578.0 Q 1295.0 592.0 1295.0 598.0 Q 1295.0 604.0 1285.0 610.0 L 1262.0 622.0 Q 1235.0 632.0 1213.0 632.0 Q 1178.0 632.0 1192.0 606.0 Q 1209.0 572.0 1213.0 507.0 L 1215.0 462.0 L 1216.0 351.0 L 1216.0 308.0 L 1220.0 118.0 C 1221.0 88.0 1272.0 105.0 1272.0 135.0 L 1272.0 317.0 L 1274.0 364.0 Z" fill="lightgray"></path>
      </clipPath>
      <path clip-path="url(#make-me-a-hanzi-clip-7)" d="M 1202.0 616.0 L 1245.0 582.0 L 1246.0 158.0 L 1225.0 126.0 " fill="none" id="make-me-a-hanzi-animation-7" stroke-dasharray="645 1290" stroke-linecap="round"></path>

      <clipPath id="make-me-a-hanzi-clip-8">
      <path d="M 1220.0 118.0 L 1128.0 83.0 L 1098.0 76.0 L 1080.0 75.0 Q 1072.0 75.0 1070.0 70.0 Q 1069.0 59.0 1087.0 42.0 L 1092.0 34.0 Q 1112.0 17.0 1138.0 3.0 Q 1148.0 1.0 1152.0 1.0 Q 1156.0 1.0 1162.0 7.0 L 1178.0 22.0 L 1226.0 55.0 L 1394.0 165.0 Q 1402.0 169.0 1402.0 172.0 Q 1402.0 174.0 1398.0 179.0 Q 1394.0 183.0 1390.0 179.0 L 1272.0 135.0 L 1220.0 118.0 Z" fill="lightgray"></path>
      </clipPath>
      <path clip-path="url(#make-me-a-hanzi-clip-8)" d="M 1078.0 67.0 L 1111.0 53.0 L 1147.0 47.0 L 1395.0 172.0 " fill="none" id="make-me-a-hanzi-animation-8" stroke-dasharray="478 956" stroke-linecap="round"></path>

      <clipPath id="make-me-a-hanzi-clip-9">
      <path d="M 1442.0 308.0 L 1421.0 300.0 L 1386.0 289.0 Q 1364.0 279.0 1352.0 278.0 Q 1340.0 277.0 1340.0 272.0 L 1342.0 264.0 Q 1344.0 259.0 1358.0 255.0 Q 1373.0 248.0 1383.0 248.0 Q 1394.0 248.0 1415.0 251.0 Q 1423.0 255.0 1428.0 256.0 Q 1434.0 256.0 1440.0 261.0 L 1494.0 285.0 L 1592.0 325.0 L 1646.0 347.0 L 1766.0 397.0 Q 1783.0 404.0 1787.0 404.0 Q 1798.0 404.0 1798.0 390.0 Q 1799.0 375.0 1793.0 357.0 L 1762.0 247.0 L 1728.0 160.0 Q 1728.0 156.0 1733.0 156.0 Q 1739.0 155.0 1745.0 162.0 L 1798.0 232.0 Q 1822.0 268.0 1850.0 335.0 L 1882.0 407.0 L 1892.0 424.0 Q 1902.0 439.0 1886.0 447.0 Q 1879.0 452.0 1851.0 462.0 Q 1823.0 472.0 1810.0 472.0 Q 1797.0 472.0 1785.0 465.0 Q 1774.0 458.0 1734.0 437.0 L 1648.0 397.0 L 1590.0 371.0 L 1497.0 331.0 L 1442.0 308.0 Z" fill="lightgray"></path>
      </clipPath>
      <path clip-path="url(#make-me-a-hanzi-clip-9)" d="M 1349.0 270.0 L 1380.0 266.0 L 1426.0 278.0 L 1772.0 428.0 L 1798.0 435.0 L 1818.0 432.0 L 1838.0 418.0 L 1830.0 369.0 L 1779.0 237.0 L 1736.0 165.0 " fill="none" id="make-me-a-hanzi-animation-9" stroke-dasharray="930 1860" stroke-linecap="round"></path>

      <clipPath id="make-me-a-hanzi-clip-10">
      <path d="M 1592.0 325.0 L 1594.0 169.0 Q 1594.0 151.0 1598.0 135.0 Q 1605.0 105.0 1619.0 126.0 Q 1625.0 133.0 1627.0 154.0 L 1636.0 197.0 Q 1638.0 212.0 1640.0 245.0 L 1644.0 297.0 L 1646.0 347.0 L 1648.0 397.0 L 1652.0 546.0 Q 1652.0 591.0 1654.0 593.0 L 1657.0 634.0 Q 1659.0 651.0 1661.0 660.0 L 1667.0 680.0 L 1669.0 693.0 Q 1669.0 707.0 1617.0 724.0 Q 1595.0 732.0 1581.0 732.0 Q 1564.0 732.0 1572.0 711.0 L 1581.0 694.0 Q 1590.0 672.0 1590.0 611.0 L 1590.0 371.0 L 1592.0 325.0 Z" fill="lightgray"></path>
      </clipPath>
      <path clip-path="url(#make-me-a-hanzi-clip-10)" d="M 1580.0 720.0 L 1625.0 679.0 L 1616.0 213.0 L 1608.0 129.0 " fill="none" id="make-me-a-hanzi-animation-10" stroke-dasharray="739 1478" stroke-linecap="round"></path>

      <clipPath id="make-me-a-hanzi-clip-11">
      <path d="M 1497.0 331.0 L 1501.0 366.0 Q 1501.0 384.0 1508.0 401.0 Q 1516.0 417.0 1516.0 422.0 Q 1516.0 427.0 1510.0 431.0 L 1500.0 439.0 Q 1496.0 443.0 1488.0 446.0 L 1466.0 453.0 Q 1450.0 459.0 1440.0 459.0 Q 1430.0 457.0 1430.0 447.0 L 1434.0 433.0 Q 1438.0 421.0 1440.0 409.0 L 1444.0 386.0 L 1442.0 308.0 L 1440.0 261.0 L 1440.0 122.0 Q 1441.0 62.0 1459.0 29.0 Q 1480.0 -9.0 1558.0 -35.0 Q 1618.0 -51.0 1722.0 -56.0 L 1743.0 -56.0 Q 1857.0 -56.0 1945.0 -27.0 Q 1963.0 -23.0 1985.0 -7.0 Q 2001.0 6.0 2003.0 9.0 L 2003.0 18.0 Q 2003.0 23.0 1994.0 41.0 Q 1985.0 59.0 1983.0 67.0 Q 1982.0 75.0 1980.0 81.0 Q 1978.0 86.0 1976.0 95.0 L 1972.0 112.0 L 1959.0 201.0 Q 1957.0 211.0 1951.0 212.0 Q 1947.0 212.0 1943.0 198.0 L 1936.0 166.0 L 1915.0 93.0 Q 1906.0 68.0 1896.0 54.0 Q 1866.0 23.0 1804.0 14.0 Q 1772.0 9.0 1732.0 7.0 L 1648.0 9.0 Q 1600.0 13.0 1573.0 19.0 Q 1546.0 25.0 1526.0 40.0 Q 1505.0 53.0 1499.0 68.0 Q 1488.0 84.0 1486.0 112.0 L 1486.0 159.0 Q 1486.0 202.0 1489.0 233.0 L 1494.0 285.0 L 1497.0 331.0 Z" fill="lightgray"></path>
      </clipPath>
      <path clip-path="url(#make-me-a-hanzi-clip-11)" d="M 1444.0 445.0 L 1475.0 413.0 L 1463.0 222.0 L 1462.0 113.0 L 1467.0 81.0 L 1480.0 46.0 L 1496.0 27.0 L 1544.0 -1.0 L 1648.0 -21.0 L 1768.0 -24.0 L 1845.0 -14.0 L 1912.0 9.0 L 1942.0 28.0 L 1953.0 205.0 " fill="none" id="make-me-a-hanzi-animation-11" stroke-dasharray="1210 2420" stroke-linecap="round"></path>

</g>
</svg>
