<svg version="1.1" viewBox="0 0 2048 1024" xmlns="http://www.w3.org/2000/svg">
  <g stroke="lightgray" stroke-dasharray="1,1" stroke-width="1" transform="scale(4, 4)">
    <line x1="0" y1="0" x2="256" y2="256"></line>
    <line x1="256" y1="0" x2="0" y2="256"></line>
    <line x1="128" y1="0" x2="128" y2="256"></line>
    <line x1="0" y1="128" x2="256" y2="128"></line>
    <line x1="256" y1="0" x2="512" y2="256"></line>
    <line x1="512" y1="0" x2="256" y2="256"></line>
    <line x1="384" y1="0" x2="384" y2="256"></line>
    <line x1="256" y1="128" x2="512" y2="128"></line>
  </g>
<g transform="scale(1, -1) translate(0, -850)">
   <style type="text/css">
    @keyframes keyframes0 {
      from {
       stroke: black;
       stroke-dashoffset: 936;
       stroke-width: 128;
       }
       75% {
       animation-timing-function: step-end;
       stroke: black;
       stroke-dashoffset: 0;
       stroke-width: 128;
       }
       to {
       stroke: black;
       stroke-width: 1024;
       }
       }
       #make-me-a-hanzi-animation-0 {
         animation: keyframes0 1.011719s both;
         animation-delay: 0.000000s;
         animation-timing-function: linear;
       }
    @keyframes keyframes1 {
      from {
       stroke: black;
       stroke-dashoffset: 400;
       stroke-width: 128;
       }
       57% {
       animation-timing-function: step-end;
       stroke: black;
       stroke-dashoffset: 0;
       stroke-width: 128;
       }
       to {
       stroke: black;
       stroke-width: 1024;
       }
       }
       #make-me-a-hanzi-animation-1 {
         animation: keyframes1 0.575521s both;
         animation-delay: 1.011719s;
         animation-timing-function: linear;
       }
    @keyframes keyframes2 {
      from {
       stroke: black;
       stroke-dashoffset: 1063;
       stroke-width: 128;
       }
       78% {
       animation-timing-function: step-end;
       stroke: black;
       stroke-dashoffset: 0;
       stroke-width: 128;
       }
       to {
       stroke: black;
       stroke-width: 1024;
       }
       }
       #make-me-a-hanzi-animation-2 {
         animation: keyframes2 1.115072s both;
         animation-delay: 1.587240s;
         animation-timing-function: linear;
       }
    @keyframes keyframes3 {
      from {
       stroke: black;
       stroke-dashoffset: 531;
       stroke-width: 128;
       }
       63% {
       animation-timing-function: step-end;
       stroke: black;
       stroke-dashoffset: 0;
       stroke-width: 128;
       }
       to {
       stroke: black;
       stroke-width: 1024;
       }
       }
       #make-me-a-hanzi-animation-3 {
         animation: keyframes3 0.682129s both;
         animation-delay: 2.702311s;
         animation-timing-function: linear;
       }
    @keyframes keyframes4 {
      from {
       stroke: black;
       stroke-dashoffset: 416;
       stroke-width: 128;
       }
       58% {
       animation-timing-function: step-end;
       stroke: black;
       stroke-dashoffset: 0;
       stroke-width: 128;
       }
       to {
       stroke: black;
       stroke-width: 1024;
       }
       }
       #make-me-a-hanzi-animation-4 {
         animation: keyframes4 0.588542s both;
         animation-delay: 3.384440s;
         animation-timing-function: linear;
       }
    @keyframes keyframes5 {
      from {
       stroke: black;
       stroke-dashoffset: 480;
       stroke-width: 128;
       }
       61% {
       animation-timing-function: step-end;
       stroke: black;
       stroke-dashoffset: 0;
       stroke-width: 128;
       }
       to {
       stroke: black;
       stroke-width: 1024;
       }
       }
       #make-me-a-hanzi-animation-5 {
         animation: keyframes5 0.640625s both;
         animation-delay: 3.972982s;
         animation-timing-function: linear;
       }
    @keyframes keyframes6 {
      from {
       stroke: black;
       stroke-dashoffset: 1097;
       stroke-width: 128;
       }
       78% {
       animation-timing-function: step-end;
       stroke: black;
       stroke-dashoffset: 0;
       stroke-width: 128;
       }
       to {
       stroke: black;
       stroke-width: 1024;
       }
       }
       #make-me-a-hanzi-animation-6 {
         animation: keyframes6 1.142741s both;
         animation-delay: 4.613607s;
         animation-timing-function: linear;
       }
    @keyframes keyframes7 {
      from {
       stroke: black;
       stroke-dashoffset: 731;
       stroke-width: 128;
       }
       70% {
       animation-timing-function: step-end;
       stroke: black;
       stroke-dashoffset: 0;
       stroke-width: 128;
       }
       to {
       stroke: black;
       stroke-width: 1024;
       }
       }
       #make-me-a-hanzi-animation-7 {
         animation: keyframes7 0.844889s both;
         animation-delay: 5.756348s;
         animation-timing-function: linear;
       }
    @keyframes keyframes8 {
      from {
       stroke: black;
       stroke-dashoffset: 962;
       stroke-width: 128;
       }
       76% {
       animation-timing-function: step-end;
       stroke: black;
       stroke-dashoffset: 0;
       stroke-width: 128;
       }
       to {
       stroke: black;
       stroke-width: 1024;
       }
       }
       #make-me-a-hanzi-animation-8 {
         animation: keyframes8 1.032878s both;
         animation-delay: 6.601237s;
         animation-timing-function: linear;
       }
    @keyframes keyframes9 {
      from {
       stroke: black;
       stroke-dashoffset: 408;
       stroke-width: 128;
       }
       57% {
       animation-timing-function: step-end;
       stroke: black;
       stroke-dashoffset: 0;
       stroke-width: 128;
       }
       to {
       stroke: black;
       stroke-width: 1024;
       }
       }
       #make-me-a-hanzi-animation-9 {
         animation: keyframes9 0.582031s both;
         animation-delay: 7.634115s;
         animation-timing-function: linear;
       }
    @keyframes keyframes10 {
      from {
       stroke: black;
       stroke-dashoffset: 409;
       stroke-width: 128;
       }
       57% {
       animation-timing-function: step-end;
       stroke: black;
       stroke-dashoffset: 0;
       stroke-width: 128;
       }
       to {
       stroke: black;
       stroke-width: 1024;
       }
       }
       #make-me-a-hanzi-animation-10 {
         animation: keyframes10 0.582845s both;
         animation-delay: 8.216146s;
         animation-timing-function: linear;
       }
    @keyframes keyframes11 {
      from {
       stroke: black;
       stroke-dashoffset: 535;
       stroke-width: 128;
       }
       64% {
       animation-timing-function: step-end;
       stroke: black;
       stroke-dashoffset: 0;
       stroke-width: 128;
       }
       to {
       stroke: black;
       stroke-width: 1024;
       }
       }
       #make-me-a-hanzi-animation-11 {
         animation: keyframes11 0.685384s both;
         animation-delay: 8.798991s;
         animation-timing-function: linear;
       }
    @keyframes keyframes12 {
      from {
       stroke: black;
       stroke-dashoffset: 914;
       stroke-width: 128;
       }
       75% {
       animation-timing-function: step-end;
       stroke: black;
       stroke-dashoffset: 0;
       stroke-width: 128;
       }
       to {
       stroke: black;
       stroke-width: 1024;
       }
       }
       #make-me-a-hanzi-animation-12 {
         animation: keyframes12 0.993815s both;
         animation-delay: 9.484375s;
         animation-timing-function: linear;
       }
</style>
<path d="M 170.0 506.0 Q 135.0 501.0 148.0 482.0 Q 189.0 423.0 192.5 314.5 Q 196.0 206.0 156.0 142.0 Q 144.0 114.0 175.5 73.0 Q 207.0 32.0 228.0 62.0 Q 262.0 135.0 337.0 231.0 Q 412.0 327.0 470.0 398.0 Q 487.0 429.0 454.0 406.0 Q 355.0 308.0 278.0 244.0 Q 250.0 220.0 244.0 227.5 Q 238.0 235.0 240.0 256.0 Q 238.0 344.0 252.0 456.0 Q 251.0 478.0 221.0 490.5 Q 191.0 503.0 170.0 506.0 Z" fill="lightgray"></path> 
<path d="M 536.0 504.0 Q 562.0 496.0 567.0 531.0 Q 572.0 566.0 546.0 590.0 Q 492.0 623.0 438.0 618.0 Q 414.0 620.0 430.0 596.0 Q 446.0 573.0 478.0 545.5 Q 510.0 518.0 536.0 504.0 Z" fill="lightgray"></path> 
<path d="M 740.0 630.0 Q 748.0 609.0 750.0 588.0 Q 743.0 421.0 657.0 261.5 Q 571.0 102.0 382.0 6.0 Q 367.0 -9.0 386.0 -8.0 Q 504.0 23.0 573.5 80.5 Q 643.0 138.0 680.0 192.0 L 694.0 214.0 Q 735.0 280.0 763.5 358.5 Q 792.0 437.0 812.0 500.0 Q 819.0 522.0 825.0 537.0 Q 831.0 552.0 848.0 574.0 Q 859.0 611.0 766.0 648.0 Q 735.0 654.0 740.0 630.0 Z" fill="lightgray"></path> 
<path d="M 680.0 192.0 Q 775.0 77.0 844.0 -8.0 Q 877.0 -37.0 894.0 -10.0 Q 911.0 17.0 894.0 68.0 Q 871.0 115.0 809.0 152.0 Q 747.0 188.0 694.0 214.0 C 667.0 227.0 661.0 215.0 680.0 192.0 Z" fill="lightgray"></path> 
<path d="M 1419.0 612.0 L 1344.0 638.0 Q 1323.0 642.0 1324.0 633.0 Q 1323.0 630.0 1329.0 622.0 L 1350.0 584.0 L 1394.0 521.0 Q 1403.0 510.0 1415.0 504.0 Q 1426.0 495.0 1432.0 494.0 Q 1438.0 492.0 1447.0 496.0 Q 1457.0 499.0 1461.0 507.0 Q 1466.0 514.0 1466.0 534.0 Q 1466.0 553.0 1461.0 567.0 Q 1457.0 581.0 1442.0 595.0 Q 1428.0 608.0 1419.0 612.0 Z" fill="lightgray"></path> 
<path d="M 1577.0 528.0 L 1564.0 508.0 Q 1558.0 497.0 1562.0 495.0 Q 1563.0 491.0 1579.0 502.0 L 1628.0 542.0 Q 1649.0 558.0 1670.0 582.0 L 1699.0 611.0 Q 1709.0 620.0 1718.0 624.0 Q 1728.0 627.0 1728.0 630.0 Q 1728.0 643.0 1707.0 662.0 Q 1688.0 673.0 1676.0 676.0 Q 1632.0 694.0 1630.0 673.0 L 1630.0 665.0 L 1621.0 629.0 Q 1617.0 609.0 1596.0 573.0 L 1577.0 528.0 Z" fill="lightgray"></path> 
<path d="M 1859.0 509.0 L 1806.0 499.0 Q 1782.0 493.0 1680.0 485.0 L 1486.0 470.0 L 1300.0 451.0 Q 1240.0 443.0 1152.0 443.0 L 1120.0 441.0 L 1110.0 438.0 Q 1106.0 437.0 1106.0 431.0 Q 1106.0 424.0 1113.0 418.0 Q 1120.0 412.0 1135.0 404.0 Q 1150.0 395.0 1168.0 391.0 Q 1186.0 386.0 1195.0 387.0 Q 1204.0 387.0 1246.0 398.0 Q 1289.0 408.0 1373.0 418.0 L 1438.0 424.0 Q 1454.0 423.0 1516.0 430.0 L 1575.0 436.0 Q 1616.0 440.0 1674.0 440.0 L 1886.0 438.0 Q 1943.0 436.0 1952.0 444.0 Q 1962.0 452.0 1962.0 457.0 Q 1963.0 462.0 1949.0 474.0 L 1917.0 491.0 Q 1883.0 509.0 1859.0 509.0 Z" fill="lightgray"></path> 
<path d="M 1209.0 -98.0 L 1214.0 -114.0 Q 1222.0 -143.0 1234.0 -145.0 Q 1264.0 -145.0 1278.0 70.0 L 1278.0 82.0 L 1282.0 161.0 L 1282.0 184.0 L 1288.0 284.0 C 1290.0 314.0 1290.0 318.0 1288.0 319.0 L 1256.0 329.0 Q 1228.0 338.0 1220.0 330.0 Q 1216.0 318.0 1222.0 311.0 Q 1228.0 304.0 1230.0 292.0 Q 1238.0 276.0 1238.0 233.0 L 1238.0 196.0 Q 1236.0 166.0 1229.0 92.0 Q 1222.0 17.0 1220.0 4.0 L 1212.0 -37.0 Q 1201.0 -81.0 1209.0 -98.0 Z" fill="lightgray"></path> 
<path d="M 1444.0 77.0 L 1440.0 -14.0 Q 1440.0 -55.0 1424.0 -65.0 Q 1418.0 -67.0 1402.0 -61.0 L 1358.0 -46.0 Q 1352.0 -44.0 1349.0 -47.0 Q 1346.0 -51.0 1354.0 -59.0 L 1396.0 -102.0 Q 1418.0 -126.0 1420.0 -132.0 L 1432.0 -148.0 Q 1446.0 -159.0 1460.0 -145.0 Q 1474.0 -131.0 1485.0 -99.0 Q 1497.0 -67.0 1497.0 -28.0 L 1495.0 179.0 L 1497.0 220.0 Q 1499.0 240.0 1503.0 258.0 Q 1504.0 270.0 1511.0 284.0 Q 1518.0 297.0 1518.0 301.0 Q 1518.0 305.0 1510.0 318.0 L 1490.0 336.0 Q 1488.0 338.0 1478.0 344.0 L 1468.0 349.0 L 1453.0 354.0 Q 1448.0 354.0 1432.0 348.0 Q 1392.0 332.0 1288.0 319.0 C 1258.0 315.0 1259.0 278.0 1288.0 284.0 Q 1382.0 303.0 1420.0 308.0 Q 1434.0 309.0 1439.0 301.0 Q 1444.0 292.0 1444.0 277.0 L 1442.0 196.0 L 1444.0 180.0 L 1444.0 98.0 L 1444.0 77.0 Z" fill="lightgray"></path> 
<path d="M 1282.0 161.0 L 1304.0 157.0 Q 1314.0 155.0 1328.0 159.0 L 1444.0 180.0 C 1466.0 184.0 1466.0 184.0 1442.0 196.0 L 1422.0 206.0 Q 1412.0 213.0 1380.0 208.0 L 1282.0 184.0 C 1253.0 177.0 1252.0 166.0 1282.0 161.0 Z" fill="lightgray"></path> 
<path d="M 1278.0 70.0 L 1291.0 63.0 Q 1298.0 58.0 1318.0 58.0 Q 1338.0 58.0 1354.0 62.0 L 1444.0 77.0 C 1474.0 82.0 1473.0 90.0 1444.0 98.0 L 1422.0 104.0 Q 1400.0 109.0 1396.0 109.0 Q 1392.0 109.0 1371.0 104.0 L 1314.0 88.0 Q 1302.0 85.0 1278.0 82.0 C 1260.0 80.0 1260.0 80.0 1278.0 70.0 Z" fill="lightgray"></path> 
<path d="M 1640.0 66.0 L 1636.0 137.0 L 1642.0 231.0 Q 1642.0 243.0 1647.0 255.0 Q 1652.0 267.0 1644.0 281.0 Q 1636.0 288.0 1628.0 291.0 L 1604.0 300.0 Q 1577.0 309.0 1573.0 293.0 Q 1573.0 286.0 1578.0 274.0 Q 1584.0 261.0 1586.0 254.0 Q 1586.0 238.0 1590.0 226.0 L 1590.0 98.0 L 1585.0 68.0 Q 1584.0 58.0 1590.0 47.0 Q 1596.0 33.0 1604.0 24.0 Q 1612.0 15.0 1615.0 15.0 Q 1619.0 14.0 1629.0 33.0 Q 1640.0 52.0 1640.0 66.0 Z" fill="lightgray"></path> 
<path d="M 1734.0 238.0 L 1732.0 65.0 L 1726.0 -34.0 Q 1726.0 -56.0 1720.0 -78.0 Q 1714.0 -100.0 1705.0 -104.0 Q 1696.0 -109.0 1672.0 -101.0 L 1650.0 -92.0 L 1634.0 -87.0 Q 1627.0 -84.0 1623.0 -88.0 Q 1619.0 -92.0 1625.0 -96.0 L 1655.0 -126.0 L 1680.0 -160.0 Q 1704.0 -196.0 1714.0 -196.0 Q 1720.0 -196.0 1725.0 -194.0 Q 1730.0 -193.0 1738.0 -190.0 Q 1746.0 -187.0 1756.0 -172.0 Q 1787.0 -127.0 1787.0 -25.0 L 1785.0 258.0 Q 1784.0 318.0 1796.0 340.0 Q 1802.0 353.0 1800.0 360.0 Q 1800.0 366.0 1786.0 374.0 Q 1772.0 381.0 1768.0 382.0 L 1741.0 388.0 Q 1720.0 392.0 1715.0 389.0 Q 1711.0 385.0 1711.0 378.0 Q 1711.0 370.0 1719.0 355.0 Q 1728.0 340.0 1730.0 298.0 L 1734.0 238.0 Z" fill="lightgray"></path> 
      <clipPath id="make-me-a-hanzi-clip-0">
      <path d="M 170.0 506.0 Q 135.0 501.0 148.0 482.0 Q 189.0 423.0 192.5 314.5 Q 196.0 206.0 156.0 142.0 Q 144.0 114.0 175.5 73.0 Q 207.0 32.0 228.0 62.0 Q 262.0 135.0 337.0 231.0 Q 412.0 327.0 470.0 398.0 Q 487.0 429.0 454.0 406.0 Q 355.0 308.0 278.0 244.0 Q 250.0 220.0 244.0 227.5 Q 238.0 235.0 240.0 256.0 Q 238.0 344.0 252.0 456.0 Q 251.0 478.0 221.0 490.5 Q 191.0 503.0 170.0 506.0 Z" fill="lightgray"></path>
      </clipPath>
      <path clip-path="url(#make-me-a-hanzi-clip-0)" d="M 156.0 490.0 L 172.0 485.0 L 210.0 450.0 L 217.0 352.0 L 215.0 219.0 L 230.0 175.0 L 273.0 200.0 L 465.0 409.0 " fill="none" id="make-me-a-hanzi-animation-0" stroke-dasharray="808 1616" stroke-linecap="round"></path>

      <clipPath id="make-me-a-hanzi-clip-1">
      <path d="M 536.0 504.0 Q 562.0 496.0 567.0 531.0 Q 572.0 566.0 546.0 590.0 Q 492.0 623.0 438.0 618.0 Q 414.0 620.0 430.0 596.0 Q 446.0 573.0 478.0 545.5 Q 510.0 518.0 536.0 504.0 Z" fill="lightgray"></path>
      </clipPath>
      <path clip-path="url(#make-me-a-hanzi-clip-1)" d="M 434.0 607.0 L 523.0 559.0 L 544.0 522.0 " fill="none" id="make-me-a-hanzi-animation-1" stroke-dasharray="272 544" stroke-linecap="round"></path>

      <clipPath id="make-me-a-hanzi-clip-2">
      <path d="M 740.0 630.0 Q 748.0 609.0 750.0 588.0 Q 743.0 421.0 657.0 261.5 Q 571.0 102.0 382.0 6.0 Q 367.0 -9.0 386.0 -8.0 Q 504.0 23.0 573.5 80.5 Q 643.0 138.0 680.0 192.0 L 694.0 214.0 Q 735.0 280.0 763.5 358.5 Q 792.0 437.0 812.0 500.0 Q 819.0 522.0 825.0 537.0 Q 831.0 552.0 848.0 574.0 Q 859.0 611.0 766.0 648.0 Q 735.0 654.0 740.0 630.0 Z" fill="lightgray"></path>
      </clipPath>
      <path clip-path="url(#make-me-a-hanzi-clip-2)" d="M 756.0 635.0 L 770.0 623.0 L 795.0 578.0 L 734.0 361.0 L 681.0 246.0 L 621.0 160.0 L 554.0 94.0 L 484.0 45.0 L 393.0 2.0 " fill="none" id="make-me-a-hanzi-animation-2" stroke-dasharray="935 1870" stroke-linecap="round"></path>

      <clipPath id="make-me-a-hanzi-clip-3">
      <path d="M 680.0 192.0 Q 775.0 77.0 844.0 -8.0 Q 877.0 -37.0 894.0 -10.0 Q 911.0 17.0 894.0 68.0 Q 871.0 115.0 809.0 152.0 Q 747.0 188.0 694.0 214.0 C 667.0 227.0 661.0 215.0 680.0 192.0 Z" fill="lightgray"></path>
      </clipPath>
      <path clip-path="url(#make-me-a-hanzi-clip-3)" d="M 697.0 205.0 L 710.0 183.0 L 796.0 114.0 L 841.0 68.0 L 873.0 0.0 " fill="none" id="make-me-a-hanzi-animation-3" stroke-dasharray="403 806" stroke-linecap="round"></path>

      <clipPath id="make-me-a-hanzi-clip-4">
      <path d="M 1419.0 612.0 L 1344.0 638.0 Q 1323.0 642.0 1324.0 633.0 Q 1323.0 630.0 1329.0 622.0 L 1350.0 584.0 L 1394.0 521.0 Q 1403.0 510.0 1415.0 504.0 Q 1426.0 495.0 1432.0 494.0 Q 1438.0 492.0 1447.0 496.0 Q 1457.0 499.0 1461.0 507.0 Q 1466.0 514.0 1466.0 534.0 Q 1466.0 553.0 1461.0 567.0 Q 1457.0 581.0 1442.0 595.0 Q 1428.0 608.0 1419.0 612.0 Z" fill="lightgray"></path>
      </clipPath>
      <path clip-path="url(#make-me-a-hanzi-clip-4)" d="M 1333.0 631.0 L 1410.0 570.0 L 1442.0 517.0 " fill="none" id="make-me-a-hanzi-animation-4" stroke-dasharray="288 576" stroke-linecap="round"></path>

      <clipPath id="make-me-a-hanzi-clip-5">
      <path d="M 1577.0 528.0 L 1564.0 508.0 Q 1558.0 497.0 1562.0 495.0 Q 1563.0 491.0 1579.0 502.0 L 1628.0 542.0 Q 1649.0 558.0 1670.0 582.0 L 1699.0 611.0 Q 1709.0 620.0 1718.0 624.0 Q 1728.0 627.0 1728.0 630.0 Q 1728.0 643.0 1707.0 662.0 Q 1688.0 673.0 1676.0 676.0 Q 1632.0 694.0 1630.0 673.0 L 1630.0 665.0 L 1621.0 629.0 Q 1617.0 609.0 1596.0 573.0 L 1577.0 528.0 Z" fill="lightgray"></path>
      </clipPath>
      <path clip-path="url(#make-me-a-hanzi-clip-5)" d="M 1720.0 633.0 L 1696.0 640.0 L 1665.0 635.0 L 1627.0 574.0 L 1565.0 501.0 " fill="none" id="make-me-a-hanzi-animation-5" stroke-dasharray="352 704" stroke-linecap="round"></path>

      <clipPath id="make-me-a-hanzi-clip-6">
      <path d="M 1859.0 509.0 L 1806.0 499.0 Q 1782.0 493.0 1680.0 485.0 L 1486.0 470.0 L 1300.0 451.0 Q 1240.0 443.0 1152.0 443.0 L 1120.0 441.0 L 1110.0 438.0 Q 1106.0 437.0 1106.0 431.0 Q 1106.0 424.0 1113.0 418.0 Q 1120.0 412.0 1135.0 404.0 Q 1150.0 395.0 1168.0 391.0 Q 1186.0 386.0 1195.0 387.0 Q 1204.0 387.0 1246.0 398.0 Q 1289.0 408.0 1373.0 418.0 L 1438.0 424.0 Q 1454.0 423.0 1516.0 430.0 L 1575.0 436.0 Q 1616.0 440.0 1674.0 440.0 L 1886.0 438.0 Q 1943.0 436.0 1952.0 444.0 Q 1962.0 452.0 1962.0 457.0 Q 1963.0 462.0 1949.0 474.0 L 1917.0 491.0 Q 1883.0 509.0 1859.0 509.0 Z" fill="lightgray"></path>
      </clipPath>
      <path clip-path="url(#make-me-a-hanzi-clip-6)" d="M 1118.0 429.0 L 1191.0 415.0 L 1434.0 445.0 L 1859.0 474.0 L 1953.0 457.0 " fill="none" id="make-me-a-hanzi-animation-6" stroke-dasharray="969 1938" stroke-linecap="round"></path>

      <clipPath id="make-me-a-hanzi-clip-7">
      <path d="M 1209.0 -98.0 L 1214.0 -114.0 Q 1222.0 -143.0 1234.0 -145.0 Q 1264.0 -145.0 1278.0 70.0 L 1278.0 82.0 L 1282.0 161.0 L 1282.0 184.0 L 1288.0 284.0 C 1290.0 314.0 1290.0 318.0 1288.0 319.0 L 1256.0 329.0 Q 1228.0 338.0 1220.0 330.0 Q 1216.0 318.0 1222.0 311.0 Q 1228.0 304.0 1230.0 292.0 Q 1238.0 276.0 1238.0 233.0 L 1238.0 196.0 Q 1236.0 166.0 1229.0 92.0 Q 1222.0 17.0 1220.0 4.0 L 1212.0 -37.0 Q 1201.0 -81.0 1209.0 -98.0 Z" fill="lightgray"></path>
      </clipPath>
      <path clip-path="url(#make-me-a-hanzi-clip-7)" d="M 1228.0 323.0 L 1259.0 297.0 L 1262.0 250.0 L 1251.0 29.0 L 1234.0 -69.0 L 1234.0 -136.0 " fill="none" id="make-me-a-hanzi-animation-7" stroke-dasharray="603 1206" stroke-linecap="round"></path>

      <clipPath id="make-me-a-hanzi-clip-8">
      <path d="M 1444.0 77.0 L 1440.0 -14.0 Q 1440.0 -55.0 1424.0 -65.0 Q 1418.0 -67.0 1402.0 -61.0 L 1358.0 -46.0 Q 1352.0 -44.0 1349.0 -47.0 Q 1346.0 -51.0 1354.0 -59.0 L 1396.0 -102.0 Q 1418.0 -126.0 1420.0 -132.0 L 1432.0 -148.0 Q 1446.0 -159.0 1460.0 -145.0 Q 1474.0 -131.0 1485.0 -99.0 Q 1497.0 -67.0 1497.0 -28.0 L 1495.0 179.0 L 1497.0 220.0 Q 1499.0 240.0 1503.0 258.0 Q 1504.0 270.0 1511.0 284.0 Q 1518.0 297.0 1518.0 301.0 Q 1518.0 305.0 1510.0 318.0 L 1490.0 336.0 Q 1488.0 338.0 1478.0 344.0 L 1468.0 349.0 L 1453.0 354.0 Q 1448.0 354.0 1432.0 348.0 Q 1392.0 332.0 1288.0 319.0 C 1258.0 315.0 1259.0 278.0 1288.0 284.0 Q 1382.0 303.0 1420.0 308.0 Q 1434.0 309.0 1439.0 301.0 Q 1444.0 292.0 1444.0 277.0 L 1442.0 196.0 L 1444.0 180.0 L 1444.0 98.0 L 1444.0 77.0 Z" fill="lightgray"></path>
      </clipPath>
      <path clip-path="url(#make-me-a-hanzi-clip-8)" d="M 1297.0 290.0 L 1305.0 305.0 L 1435.0 327.0 L 1460.0 321.0 L 1478.0 298.0 L 1469.0 201.0 L 1469.0 -20.0 L 1460.0 -72.0 L 1441.0 -98.0 L 1354.0 -52.0 " fill="none" id="make-me-a-hanzi-animation-8" stroke-dasharray="834 1668" stroke-linecap="round"></path>

      <clipPath id="make-me-a-hanzi-clip-9">
      <path d="M 1282.0 161.0 L 1304.0 157.0 Q 1314.0 155.0 1328.0 159.0 L 1444.0 180.0 C 1466.0 184.0 1466.0 184.0 1442.0 196.0 L 1422.0 206.0 Q 1412.0 213.0 1380.0 208.0 L 1282.0 184.0 C 1253.0 177.0 1252.0 166.0 1282.0 161.0 Z" fill="lightgray"></path>
      </clipPath>
      <path clip-path="url(#make-me-a-hanzi-clip-9)" d="M 1289.0 167.0 L 1296.0 173.0 L 1390.0 190.0 L 1412.0 192.0 L 1436.0 183.0 " fill="none" id="make-me-a-hanzi-animation-9" stroke-dasharray="280 560" stroke-linecap="round"></path>

      <clipPath id="make-me-a-hanzi-clip-10">
      <path d="M 1278.0 70.0 L 1291.0 63.0 Q 1298.0 58.0 1318.0 58.0 Q 1338.0 58.0 1354.0 62.0 L 1444.0 77.0 C 1474.0 82.0 1473.0 90.0 1444.0 98.0 L 1422.0 104.0 Q 1400.0 109.0 1396.0 109.0 Q 1392.0 109.0 1371.0 104.0 L 1314.0 88.0 Q 1302.0 85.0 1278.0 82.0 C 1260.0 80.0 1260.0 80.0 1278.0 70.0 Z" fill="lightgray"></path>
      </clipPath>
      <path clip-path="url(#make-me-a-hanzi-clip-10)" d="M 1286.0 76.0 L 1311.0 72.0 L 1437.0 93.0 " fill="none" id="make-me-a-hanzi-animation-10" stroke-dasharray="281 562" stroke-linecap="round"></path>

      <clipPath id="make-me-a-hanzi-clip-11">
      <path d="M 1640.0 66.0 L 1636.0 137.0 L 1642.0 231.0 Q 1642.0 243.0 1647.0 255.0 Q 1652.0 267.0 1644.0 281.0 Q 1636.0 288.0 1628.0 291.0 L 1604.0 300.0 Q 1577.0 309.0 1573.0 293.0 Q 1573.0 286.0 1578.0 274.0 Q 1584.0 261.0 1586.0 254.0 Q 1586.0 238.0 1590.0 226.0 L 1590.0 98.0 L 1585.0 68.0 Q 1584.0 58.0 1590.0 47.0 Q 1596.0 33.0 1604.0 24.0 Q 1612.0 15.0 1615.0 15.0 Q 1619.0 14.0 1629.0 33.0 Q 1640.0 52.0 1640.0 66.0 Z" fill="lightgray"></path>
      </clipPath>
      <path clip-path="url(#make-me-a-hanzi-clip-11)" d="M 1585.0 291.0 L 1616.0 258.0 L 1613.0 24.0 " fill="none" id="make-me-a-hanzi-animation-11" stroke-dasharray="407 814" stroke-linecap="round"></path>

      <clipPath id="make-me-a-hanzi-clip-12">
      <path d="M 1734.0 238.0 L 1732.0 65.0 L 1726.0 -34.0 Q 1726.0 -56.0 1720.0 -78.0 Q 1714.0 -100.0 1705.0 -104.0 Q 1696.0 -109.0 1672.0 -101.0 L 1650.0 -92.0 L 1634.0 -87.0 Q 1627.0 -84.0 1623.0 -88.0 Q 1619.0 -92.0 1625.0 -96.0 L 1655.0 -126.0 L 1680.0 -160.0 Q 1704.0 -196.0 1714.0 -196.0 Q 1720.0 -196.0 1725.0 -194.0 Q 1730.0 -193.0 1738.0 -190.0 Q 1746.0 -187.0 1756.0 -172.0 Q 1787.0 -127.0 1787.0 -25.0 L 1785.0 258.0 Q 1784.0 318.0 1796.0 340.0 Q 1802.0 353.0 1800.0 360.0 Q 1800.0 366.0 1786.0 374.0 Q 1772.0 381.0 1768.0 382.0 L 1741.0 388.0 Q 1720.0 392.0 1715.0 389.0 Q 1711.0 385.0 1711.0 378.0 Q 1711.0 370.0 1719.0 355.0 Q 1728.0 340.0 1730.0 298.0 L 1734.0 238.0 Z" fill="lightgray"></path>
      </clipPath>
      <path clip-path="url(#make-me-a-hanzi-clip-12)" d="M 1721.0 381.0 L 1760.0 347.0 L 1755.0 -70.0 L 1739.0 -123.0 L 1719.0 -144.0 L 1629.0 -91.0 " fill="none" id="make-me-a-hanzi-animation-12" stroke-dasharray="786 1572" stroke-linecap="round"></path>

</g>
</svg>
