<svg version="1.1" viewBox="0 0 2048 1024" xmlns="http://www.w3.org/2000/svg">
  <g stroke="lightgray" stroke-dasharray="1,1" stroke-width="1" transform="scale(4, 4)">
    <line x1="0" y1="0" x2="256" y2="256"></line>
    <line x1="256" y1="0" x2="0" y2="256"></line>
    <line x1="128" y1="0" x2="128" y2="256"></line>
    <line x1="0" y1="128" x2="256" y2="128"></line>
    <line x1="256" y1="0" x2="512" y2="256"></line>
    <line x1="512" y1="0" x2="256" y2="256"></line>
    <line x1="384" y1="0" x2="384" y2="256"></line>
    <line x1="256" y1="128" x2="512" y2="128"></line>
  </g>
<g transform="scale(1, -1) translate(0, -850)">
   <style type="text/css">
    @keyframes keyframes0 {
      from {
       stroke: black;
       stroke-dashoffset: 809;
       stroke-width: 128;
       }
       72% {
       animation-timing-function: step-end;
       stroke: black;
       stroke-dashoffset: 0;
       stroke-width: 128;
       }
       to {
       stroke: black;
       stroke-width: 1024;
       }
       }
       #make-me-a-hanzi-animation-0 {
         animation: keyframes0 0.908366s both;
         animation-delay: 0.000000s;
         animation-timing-function: linear;
       }
    @keyframes keyframes1 {
      from {
       stroke: black;
       stroke-dashoffset: 759;
       stroke-width: 128;
       }
       71% {
       animation-timing-function: step-end;
       stroke: black;
       stroke-dashoffset: 0;
       stroke-width: 128;
       }
       to {
       stroke: black;
       stroke-width: 1024;
       }
       }
       #make-me-a-hanzi-animation-1 {
         animation: keyframes1 0.867676s both;
         animation-delay: 0.908366s;
         animation-timing-function: linear;
       }
    @keyframes keyframes2 {
      from {
       stroke: black;
       stroke-dashoffset: 705;
       stroke-width: 128;
       }
       70% {
       animation-timing-function: step-end;
       stroke: black;
       stroke-dashoffset: 0;
       stroke-width: 128;
       }
       to {
       stroke: black;
       stroke-width: 1024;
       }
       }
       #make-me-a-hanzi-animation-2 {
         animation: keyframes2 0.823730s both;
         animation-delay: 1.776042s;
         animation-timing-function: linear;
       }
    @keyframes keyframes3 {
      from {
       stroke: black;
       stroke-dashoffset: 1123;
       stroke-width: 128;
       }
       79% {
       animation-timing-function: step-end;
       stroke: black;
       stroke-dashoffset: 0;
       stroke-width: 128;
       }
       to {
       stroke: black;
       stroke-width: 1024;
       }
       }
       #make-me-a-hanzi-animation-3 {
         animation: keyframes3 1.163900s both;
         animation-delay: 2.599772s;
         animation-timing-function: linear;
       }
    @keyframes keyframes4 {
      from {
       stroke: black;
       stroke-dashoffset: 1027;
       stroke-width: 128;
       }
       77% {
       animation-timing-function: step-end;
       stroke: black;
       stroke-dashoffset: 0;
       stroke-width: 128;
       }
       to {
       stroke: black;
       stroke-width: 1024;
       }
       }
       #make-me-a-hanzi-animation-4 {
         animation: keyframes4 1.085775s both;
         animation-delay: 3.763672s;
         animation-timing-function: linear;
       }
    @keyframes keyframes5 {
      from {
       stroke: black;
       stroke-dashoffset: 406;
       stroke-width: 128;
       }
       57% {
       animation-timing-function: step-end;
       stroke: black;
       stroke-dashoffset: 0;
       stroke-width: 128;
       }
       to {
       stroke: black;
       stroke-width: 1024;
       }
       }
       #make-me-a-hanzi-animation-5 {
         animation: keyframes5 0.580404s both;
         animation-delay: 4.849447s;
         animation-timing-function: linear;
       }
    @keyframes keyframes6 {
      from {
       stroke: black;
       stroke-dashoffset: 505;
       stroke-width: 128;
       }
       62% {
       animation-timing-function: step-end;
       stroke: black;
       stroke-dashoffset: 0;
       stroke-width: 128;
       }
       to {
       stroke: black;
       stroke-width: 1024;
       }
       }
       #make-me-a-hanzi-animation-6 {
         animation: keyframes6 0.660970s both;
         animation-delay: 5.429850s;
         animation-timing-function: linear;
       }
    @keyframes keyframes7 {
      from {
       stroke: black;
       stroke-dashoffset: 682;
       stroke-width: 128;
       }
       69% {
       animation-timing-function: step-end;
       stroke: black;
       stroke-dashoffset: 0;
       stroke-width: 128;
       }
       to {
       stroke: black;
       stroke-width: 1024;
       }
       }
       #make-me-a-hanzi-animation-7 {
         animation: keyframes7 0.805013s both;
         animation-delay: 6.090820s;
         animation-timing-function: linear;
       }
    @keyframes keyframes8 {
      from {
       stroke: black;
       stroke-dashoffset: 1005;
       stroke-width: 128;
       }
       77% {
       animation-timing-function: step-end;
       stroke: black;
       stroke-dashoffset: 0;
       stroke-width: 128;
       }
       to {
       stroke: black;
       stroke-width: 1024;
       }
       }
       #make-me-a-hanzi-animation-8 {
         animation: keyframes8 1.067871s both;
         animation-delay: 6.895833s;
         animation-timing-function: linear;
       }
    @keyframes keyframes9 {
      from {
       stroke: black;
       stroke-dashoffset: 652;
       stroke-width: 128;
       }
       68% {
       animation-timing-function: step-end;
       stroke: black;
       stroke-dashoffset: 0;
       stroke-width: 128;
       }
       to {
       stroke: black;
       stroke-width: 1024;
       }
       }
       #make-me-a-hanzi-animation-9 {
         animation: keyframes9 0.780599s both;
         animation-delay: 7.963704s;
         animation-timing-function: linear;
       }
    @keyframes keyframes10 {
      from {
       stroke: black;
       stroke-dashoffset: 734;
       stroke-width: 128;
       }
       70% {
       animation-timing-function: step-end;
       stroke: black;
       stroke-dashoffset: 0;
       stroke-width: 128;
       }
       to {
       stroke: black;
       stroke-width: 1024;
       }
       }
       #make-me-a-hanzi-animation-10 {
         animation: keyframes10 0.847331s both;
         animation-delay: 8.744303s;
         animation-timing-function: linear;
       }
    @keyframes keyframes11 {
      from {
       stroke: black;
       stroke-dashoffset: 839;
       stroke-width: 128;
       }
       73% {
       animation-timing-function: step-end;
       stroke: black;
       stroke-dashoffset: 0;
       stroke-width: 128;
       }
       to {
       stroke: black;
       stroke-width: 1024;
       }
       }
       #make-me-a-hanzi-animation-11 {
         animation: keyframes11 0.932780s both;
         animation-delay: 9.591634s;
         animation-timing-function: linear;
       }
    @keyframes keyframes12 {
      from {
       stroke: black;
       stroke-dashoffset: 385;
       stroke-width: 128;
       }
       56% {
       animation-timing-function: step-end;
       stroke: black;
       stroke-dashoffset: 0;
       stroke-width: 128;
       }
       to {
       stroke: black;
       stroke-width: 1024;
       }
       }
       #make-me-a-hanzi-animation-12 {
         animation: keyframes12 0.563314s both;
         animation-delay: 10.524414s;
         animation-timing-function: linear;
       }
    @keyframes keyframes13 {
      from {
       stroke: black;
       stroke-dashoffset: 557;
       stroke-width: 128;
       }
       64% {
       animation-timing-function: step-end;
       stroke: black;
       stroke-dashoffset: 0;
       stroke-width: 128;
       }
       to {
       stroke: black;
       stroke-width: 1024;
       }
       }
       #make-me-a-hanzi-animation-13 {
         animation: keyframes13 0.703288s both;
         animation-delay: 11.087728s;
         animation-timing-function: linear;
       }
    @keyframes keyframes14 {
      from {
       stroke: black;
       stroke-dashoffset: 488;
       stroke-width: 128;
       }
       61% {
       animation-timing-function: step-end;
       stroke: black;
       stroke-dashoffset: 0;
       stroke-width: 128;
       }
       to {
       stroke: black;
       stroke-width: 1024;
       }
       }
       #make-me-a-hanzi-animation-14 {
         animation: keyframes14 0.647135s both;
         animation-delay: 11.791016s;
         animation-timing-function: linear;
       }
    @keyframes keyframes15 {
      from {
       stroke: black;
       stroke-dashoffset: 506;
       stroke-width: 128;
       }
       62% {
       animation-timing-function: step-end;
       stroke: black;
       stroke-dashoffset: 0;
       stroke-width: 128;
       }
       to {
       stroke: black;
       stroke-width: 1024;
       }
       }
       #make-me-a-hanzi-animation-15 {
         animation: keyframes15 0.661784s both;
         animation-delay: 12.438151s;
         animation-timing-function: linear;
       }
    @keyframes keyframes16 {
      from {
       stroke: black;
       stroke-dashoffset: 627;
       stroke-width: 128;
       }
       67% {
       animation-timing-function: step-end;
       stroke: black;
       stroke-dashoffset: 0;
       stroke-width: 128;
       }
       to {
       stroke: black;
       stroke-width: 1024;
       }
       }
       #make-me-a-hanzi-animation-16 {
         animation: keyframes16 0.760254s both;
         animation-delay: 13.099935s;
         animation-timing-function: linear;
       }
    @keyframes keyframes17 {
      from {
       stroke: black;
       stroke-dashoffset: 633;
       stroke-width: 128;
       }
       67% {
       animation-timing-function: step-end;
       stroke: black;
       stroke-dashoffset: 0;
       stroke-width: 128;
       }
       to {
       stroke: black;
       stroke-width: 1024;
       }
       }
       #make-me-a-hanzi-animation-17 {
         animation: keyframes17 0.765137s both;
         animation-delay: 13.860189s;
         animation-timing-function: linear;
       }
</style>
<path d="M 243 382 Q 280 436 322 504 Q 347 555 372 579 Q 382 591 376 605 Q 372 618 342 641 Q 314 660 293 659 Q 274 658 283 634 Q 298 601 286 573 Q 249 479 193 390 Q 138 305 62 210 Q 52 200 50 193 Q 46 181 61 184 Q 103 194 199 323 L 217 346 L 243 382 Z" fill="lightgray"></path> 
<path d="M 217 346 Q 218 340 222 335 Q 252 271 227 77 Q 218 22 202 -35 Q 192 -80 226 -131 Q 227 -131 229 -134 Q 247 -150 259 -123 Q 274 -83 273 -36 Q 279 237 289 298 Q 296 325 287 336 Q 248 378 243 382 C 222 403 205 373 217 346 Z" fill="lightgray"></path> 
<path d="M 577 335 Q 649 351 798 376 Q 808 375 818 388 Q 818 400 795 409 Q 768 430 687 404 Q 615 388 583 376 L 526 363 Q 403 345 371 339 Q 343 335 365 318 Q 401 294 438 303 L 520 322 L 577 335 Z" fill="lightgray"></path> 
<path d="M 520 322 Q 472 75 365 -54 Q 346 -76 320 -103 Q 307 -110 305 -115 Q 301 -122 318 -121 Q 327 -121 364 -97 Q 389 -81 431 -38 Q 539 82 577 335 L 583 376 Q 586 508 623 600 Q 630 612 621 620 Q 569 672 526 662 Q 505 655 521 636 Q 549 603 547 572 Q 540 457 526 363 L 520 322 Z" fill="lightgray"></path> 
<path d="M 606 164 Q 587 -26 600 -80 Q 603 -99 621 -116 Q 705 -171 859 -141 Q 862 -140 865 -140 Q 902 -131 940 -109 Q 962 -90 943 -60 Q 925 -35 896 47 Q 893 63 885 68 Q 878 71 875 51 Q 857 -40 842 -70 Q 812 -98 731 -96 Q 698 -95 674 -85 Q 653 -76 648 -63 Q 620 3 663 210 Q 672 240 623 261 Q 610 265 602 261 Q 595 258 599 240 Q 611 201 606 164 Z" fill="lightgray"></path> 
<path d="M 729 547 Q 760 519 791 487 Q 804 474 820 473 Q 830 473 837 487 Q 841 502 834 531 Q 825 567 726 595 Q 710 599 704 597 Q 700 593 700 580 Q 703 570 729 547 Z" fill="lightgray"></path> 
<path d="M 1374 648 Q 1414 661 1458 672 Q 1486 681 1489 685 Q 1498 694 1492 702 Q 1485 714 1454 719 Q 1423 722 1393 707 Q 1362 694 1328 683 Q 1291 673 1247 665 Q 1210 655 1238 641 Q 1283 622 1338 638 Q 1339 639 1342 639 L 1374 648 Z" fill="lightgray"></path> 
<path d="M 1402 461 Q 1427 468 1460 474 Q 1482 477 1480 488 Q 1479 501 1449 514 Q 1433 521 1406 511 Q 1405 511 1405 510 L 1355 490 Q 1295 471 1252 451 Q 1246 447 1243 449 Q 1249 482 1258 521 Q 1262 549 1260 556 Q 1253 566 1231 582 Q 1216 594 1208 589 Q 1201 585 1206 571 Q 1216 540 1208 488 Q 1208 492 1208 498 Q 1204 464 1183 434 Q 1165 407 1196 376 Q 1205 369 1220 379 Q 1260 421 1337 443 L 1402 461 Z" fill="lightgray"></path> 
<path d="M 1352 363 Q 1349 254 1346 99 Q 1345 68 1335 56 Q 1329 53 1252 70 Q 1240 73 1241 66 Q 1242 59 1251 51 Q 1309 6 1346 -32 Q 1356 -39 1368 -26 Q 1405 23 1401 92 Q 1397 353 1402 461 L 1405 510 Q 1406 549 1412 586 Q 1418 611 1412 620 Q 1405 632 1374 648 C 1348 663 1335 668 1342 639 Q 1357 591 1355 490 L 1352 363 Z" fill="lightgray"></path> 
<path d="M 1337 443 Q 1283 317 1119 128 Q 1112 118 1124 117 Q 1145 114 1253 225 Q 1305 280 1352 363 C 1411 466 1349 470 1337 443 Z" fill="lightgray"></path> 
<path d="M 1554 498 Q 1554 499 1555 499 Q 1601 563 1651 658 Q 1670 701 1690 724 Q 1699 734 1693 748 Q 1689 761 1658 781 Q 1630 797 1612 795 Q 1593 792 1603 771 Q 1618 743 1610 719 Q 1585 637 1541 557 Q 1499 481 1440 397 Q 1431 387 1429 380 Q 1428 368 1441 372 Q 1462 378 1527 460 L 1554 498 Z" fill="lightgray"></path> 
<path d="M 1593 111 Q 1593 349 1602 411 Q 1609 441 1583 469 Q 1562 493 1554 498 C 1532 518 1517 488 1527 460 Q 1555 387 1556 329 Q 1544 125 1543 113 Q 1534 61 1521 5 Q 1506 -44 1543 -92 Q 1544 -95 1548 -98 Q 1567 -114 1579 -86 Q 1594 -44 1594 4 Q 1593 44 1593 82 L 1593 111 Z" fill="lightgray"></path> 
<path d="M 1743 669 Q 1765 647 1790 620 Q 1802 607 1817 606 Q 1827 606 1833 619 Q 1837 632 1831 662 Q 1827 680 1799 694 Q 1738 721 1720 717 Q 1716 713 1716 701 Q 1719 691 1743 669 Z" fill="lightgray"></path> 
<path d="M 1778 512 Q 1925 551 1927 551 Q 1936 558 1931 567 Q 1924 577 1896 584 Q 1872 588 1773 557 Q 1671 536 1636 530 Q 1602 523 1627 508 Q 1666 487 1723 500 Q 1726 501 1733 501 L 1778 512 Z" fill="lightgray"></path> 
<path d="M 1790 377 Q 1839 390 1883 396 Q 1907 400 1897 414 Q 1885 429 1859 433 Q 1834 434 1792 422 L 1744 406 Q 1698 393 1659 380 Q 1641 376 1664 361 Q 1671 355 1744 368 L 1790 377 Z" fill="lightgray"></path> 
<path d="M 1785 250 Q 1840 262 1890 268 Q 1915 272 1905 286 Q 1895 301 1867 306 Q 1824 312 1787 293 L 1742 281 Q 1691 268 1648 256 Q 1630 252 1652 236 Q 1664 229 1688 233 Q 1715 239 1742 242 L 1785 250 Z" fill="lightgray"></path> 
<path d="M 1781 143 Q 1782 200 1785 250 L 1787 293 Q 1787 338 1790 377 L 1792 422 Q 1792 446 1795 473 Q 1804 495 1778 512 C 1754 531 1726 530 1733 501 Q 1742 468 1744 406 L 1744 368 Q 1743 334 1742 281 L 1742 242 Q 1741 196 1740 136 C 1739 106 1780 113 1781 143 Z" fill="lightgray"></path> 
<path d="M 1740 136 Q 1670 126 1593 111 C 1564 105 1566 94 1593 82 Q 1617 69 1643 76 Q 1751 106 1929 109 Q 1944 108 1957 109 Q 1976 109 1980 117 Q 1984 129 1969 141 Q 1915 180 1862 161 Q 1828 154 1781 143 L 1740 136 Z" fill="lightgray"></path> 
      <clipPath id="make-me-a-hanzi-clip-0">
      <path d="M 243 382 Q 280 436 322 504 Q 347 555 372 579 Q 382 591 376 605 Q 372 618 342 641 Q 314 660 293 659 Q 274 658 283 634 Q 298 601 286 573 Q 249 479 193 390 Q 138 305 62 210 Q 52 200 50 193 Q 46 181 61 184 Q 103 194 199 323 L 217 346 L 243 382 Z" fill="lightgray"></path>
      </clipPath>
      <path clip-path="url(#make-me-a-hanzi-clip-0)" d="M 293 644 L 320 620 L 332 596 L 299 525 L 242 423 L 163 307 L 96 225 L 59 193 " fill="none" id="make-me-a-hanzi-animation-0" stroke-dasharray="681 1362" stroke-linecap="round"></path>

      <clipPath id="make-me-a-hanzi-clip-1">
      <path d="M 217 346 Q 218 340 222 335 Q 252 271 227 77 Q 218 22 202 -35 Q 192 -80 226 -131 Q 227 -131 229 -134 Q 247 -150 259 -123 Q 274 -83 273 -36 Q 279 237 289 298 Q 296 325 287 336 Q 248 378 243 382 C 222 403 205 373 217 346 Z" fill="lightgray"></path>
      </clipPath>
      <path clip-path="url(#make-me-a-hanzi-clip-1)" d="M 240 375 L 247 341 L 261 319 L 254 93 L 236 -57 L 242 -122 " fill="none" id="make-me-a-hanzi-animation-1" stroke-dasharray="631 1262" stroke-linecap="round"></path>

      <clipPath id="make-me-a-hanzi-clip-2">
      <path d="M 577 335 Q 649 351 798 376 Q 808 375 818 388 Q 818 400 795 409 Q 768 430 687 404 Q 615 388 583 376 L 526 363 Q 403 345 371 339 Q 343 335 365 318 Q 401 294 438 303 L 520 322 L 577 335 Z" fill="lightgray"></path>
      </clipPath>
      <path clip-path="url(#make-me-a-hanzi-clip-2)" d="M 366 329 L 427 324 L 704 386 L 775 395 L 807 390 " fill="none" id="make-me-a-hanzi-animation-2" stroke-dasharray="577 1154" stroke-linecap="round"></path>

      <clipPath id="make-me-a-hanzi-clip-3">
      <path d="M 520 322 Q 472 75 365 -54 Q 346 -76 320 -103 Q 307 -110 305 -115 Q 301 -122 318 -121 Q 327 -121 364 -97 Q 389 -81 431 -38 Q 539 82 577 335 L 583 376 Q 586 508 623 600 Q 630 612 621 620 Q 569 672 526 662 Q 505 655 521 636 Q 549 603 547 572 Q 540 457 526 363 L 520 322 Z" fill="lightgray"></path>
      </clipPath>
      <path clip-path="url(#make-me-a-hanzi-clip-3)" d="M 528 648 L 569 622 L 582 593 L 549 329 L 523 207 L 477 79 L 433 0 L 350 -93 L 312 -116 " fill="none" id="make-me-a-hanzi-animation-3" stroke-dasharray="995 1990" stroke-linecap="round"></path>

      <clipPath id="make-me-a-hanzi-clip-4">
      <path d="M 606 164 Q 587 -26 600 -80 Q 603 -99 621 -116 Q 705 -171 859 -141 Q 862 -140 865 -140 Q 902 -131 940 -109 Q 962 -90 943 -60 Q 925 -35 896 47 Q 893 63 885 68 Q 878 71 875 51 Q 857 -40 842 -70 Q 812 -98 731 -96 Q 698 -95 674 -85 Q 653 -76 648 -63 Q 620 3 663 210 Q 672 240 623 261 Q 610 265 602 261 Q 595 258 599 240 Q 611 201 606 164 Z" fill="lightgray"></path>
      </clipPath>
      <path clip-path="url(#make-me-a-hanzi-clip-4)" d="M 609 252 L 631 226 L 635 204 L 617 47 L 619 -48 L 630 -85 L 650 -103 L 698 -120 L 772 -124 L 825 -116 L 871 -97 L 894 -72 L 885 61 " fill="none" id="make-me-a-hanzi-animation-4" stroke-dasharray="899 1798" stroke-linecap="round"></path>

      <clipPath id="make-me-a-hanzi-clip-5">
      <path d="M 729 547 Q 760 519 791 487 Q 804 474 820 473 Q 830 473 837 487 Q 841 502 834 531 Q 825 567 726 595 Q 710 599 704 597 Q 700 593 700 580 Q 703 570 729 547 Z" fill="lightgray"></path>
      </clipPath>
      <path clip-path="url(#make-me-a-hanzi-clip-5)" d="M 709 591 L 722 577 L 791 534 L 818 492 " fill="none" id="make-me-a-hanzi-animation-5" stroke-dasharray="278 556" stroke-linecap="round"></path>

      <clipPath id="make-me-a-hanzi-clip-6">
      <path d="M 1374 648 Q 1414 661 1458 672 Q 1486 681 1489 685 Q 1498 694 1492 702 Q 1485 714 1454 719 Q 1423 722 1393 707 Q 1362 694 1328 683 Q 1291 673 1247 665 Q 1210 655 1238 641 Q 1283 622 1338 638 Q 1339 639 1342 639 L 1374 648 Z" fill="lightgray"></path>
      </clipPath>
      <path clip-path="url(#make-me-a-hanzi-clip-6)" d="M 1239 654 L 1262 650 L 1311 655 L 1422 691 L 1482 695 " fill="none" id="make-me-a-hanzi-animation-6" stroke-dasharray="377 754" stroke-linecap="round"></path>

      <clipPath id="make-me-a-hanzi-clip-7">
      <path d="M 1402 461 Q 1427 468 1460 474 Q 1482 477 1480 488 Q 1479 501 1449 514 Q 1433 521 1406 511 Q 1405 511 1405 510 L 1355 490 Q 1295 471 1252 451 Q 1246 447 1243 449 Q 1249 482 1258 521 Q 1262 549 1260 556 Q 1253 566 1231 582 Q 1216 594 1208 589 Q 1201 585 1206 571 Q 1216 540 1208 488 Q 1208 492 1208 498 Q 1204 464 1183 434 Q 1165 407 1196 376 Q 1205 369 1220 379 Q 1260 421 1337 443 L 1402 461 Z" fill="lightgray"></path>
      </clipPath>
      <path clip-path="url(#make-me-a-hanzi-clip-7)" d="M 1214 581 L 1236 546 L 1218 424 L 1245 427 L 1421 491 L 1468 488 " fill="none" id="make-me-a-hanzi-animation-7" stroke-dasharray="554 1108" stroke-linecap="round"></path>

      <clipPath id="make-me-a-hanzi-clip-8">
      <path d="M 1352 363 Q 1349 254 1346 99 Q 1345 68 1335 56 Q 1329 53 1252 70 Q 1240 73 1241 66 Q 1242 59 1251 51 Q 1309 6 1346 -32 Q 1356 -39 1368 -26 Q 1405 23 1401 92 Q 1397 353 1402 461 L 1405 510 Q 1406 549 1412 586 Q 1418 611 1412 620 Q 1405 632 1374 648 C 1348 663 1335 668 1342 639 Q 1357 591 1355 490 L 1352 363 Z" fill="lightgray"></path>
      </clipPath>
      <path clip-path="url(#make-me-a-hanzi-clip-8)" d="M 1349 635 L 1373 621 L 1383 599 L 1370 55 L 1350 19 L 1248 65 " fill="none" id="make-me-a-hanzi-animation-8" stroke-dasharray="877 1754" stroke-linecap="round"></path>

      <clipPath id="make-me-a-hanzi-clip-9">
      <path d="M 1337 443 Q 1283 317 1119 128 Q 1112 118 1124 117 Q 1145 114 1253 225 Q 1305 280 1352 363 C 1411 466 1349 470 1337 443 Z" fill="lightgray"></path>
      </clipPath>
      <path clip-path="url(#make-me-a-hanzi-clip-9)" d="M 1351 441 L 1343 434 L 1327 368 L 1268 277 L 1198 192 L 1126 124 " fill="none" id="make-me-a-hanzi-animation-9" stroke-dasharray="524 1048" stroke-linecap="round"></path>

      <clipPath id="make-me-a-hanzi-clip-10">
      <path d="M 1554 498 Q 1554 499 1555 499 Q 1601 563 1651 658 Q 1670 701 1690 724 Q 1699 734 1693 748 Q 1689 761 1658 781 Q 1630 797 1612 795 Q 1593 792 1603 771 Q 1618 743 1610 719 Q 1585 637 1541 557 Q 1499 481 1440 397 Q 1431 387 1429 380 Q 1428 368 1441 372 Q 1462 378 1527 460 L 1554 498 Z" fill="lightgray"></path>
      </clipPath>
      <path clip-path="url(#make-me-a-hanzi-clip-10)" d="M 1613 781 L 1630 769 L 1651 738 L 1629 678 L 1549 527 L 1493 442 L 1438 380 " fill="none" id="make-me-a-hanzi-animation-10" stroke-dasharray="606 1212" stroke-linecap="round"></path>

      <clipPath id="make-me-a-hanzi-clip-11">
      <path d="M 1593 111 Q 1593 349 1602 411 Q 1609 441 1583 469 Q 1562 493 1554 498 C 1532 518 1517 488 1527 460 Q 1555 387 1556 329 Q 1544 125 1543 113 Q 1534 61 1521 5 Q 1506 -44 1543 -92 Q 1544 -95 1548 -98 Q 1567 -114 1579 -86 Q 1594 -44 1594 4 Q 1593 44 1593 82 L 1593 111 Z" fill="lightgray"></path>
      </clipPath>
      <path clip-path="url(#make-me-a-hanzi-clip-11)" d="M 1553 489 L 1558 456 L 1573 421 L 1576 361 L 1571 147 L 1554 -36 L 1560 -89 " fill="none" id="make-me-a-hanzi-animation-11" stroke-dasharray="711 1422" stroke-linecap="round"></path>

      <clipPath id="make-me-a-hanzi-clip-12">
      <path d="M 1743 669 Q 1765 647 1790 620 Q 1802 607 1817 606 Q 1827 606 1833 619 Q 1837 632 1831 662 Q 1827 680 1799 694 Q 1738 721 1720 717 Q 1716 713 1716 701 Q 1719 691 1743 669 Z" fill="lightgray"></path>
      </clipPath>
      <path clip-path="url(#make-me-a-hanzi-clip-12)" d="M 1724 711 L 1792 664 L 1816 624 " fill="none" id="make-me-a-hanzi-animation-12" stroke-dasharray="257 514" stroke-linecap="round"></path>

      <clipPath id="make-me-a-hanzi-clip-13">
      <path d="M 1778 512 Q 1925 551 1927 551 Q 1936 558 1931 567 Q 1924 577 1896 584 Q 1872 588 1773 557 Q 1671 536 1636 530 Q 1602 523 1627 508 Q 1666 487 1723 500 Q 1726 501 1733 501 L 1778 512 Z" fill="lightgray"></path>
      </clipPath>
      <path clip-path="url(#make-me-a-hanzi-clip-13)" d="M 1629 520 L 1684 516 L 1886 563 L 1924 559 " fill="none" id="make-me-a-hanzi-animation-13" stroke-dasharray="429 858" stroke-linecap="round"></path>

      <clipPath id="make-me-a-hanzi-clip-14">
      <path d="M 1790 377 Q 1839 390 1883 396 Q 1907 400 1897 414 Q 1885 429 1859 433 Q 1834 434 1792 422 L 1744 406 Q 1698 393 1659 380 Q 1641 376 1664 361 Q 1671 355 1744 368 L 1790 377 Z" fill="lightgray"></path>
      </clipPath>
      <path clip-path="url(#make-me-a-hanzi-clip-14)" d="M 1661 370 L 1833 410 L 1862 413 L 1888 407 " fill="none" id="make-me-a-hanzi-animation-14" stroke-dasharray="360 720" stroke-linecap="round"></path>

      <clipPath id="make-me-a-hanzi-clip-15">
      <path d="M 1785 250 Q 1840 262 1890 268 Q 1915 272 1905 286 Q 1895 301 1867 306 Q 1824 312 1787 293 L 1742 281 Q 1691 268 1648 256 Q 1630 252 1652 236 Q 1664 229 1688 233 Q 1715 239 1742 242 L 1785 250 Z" fill="lightgray"></path>
      </clipPath>
      <path clip-path="url(#make-me-a-hanzi-clip-15)" d="M 1650 246 L 1679 247 L 1846 285 L 1871 286 L 1895 279 " fill="none" id="make-me-a-hanzi-animation-15" stroke-dasharray="378 756" stroke-linecap="round"></path>

      <clipPath id="make-me-a-hanzi-clip-16">
      <path d="M 1781 143 Q 1782 200 1785 250 L 1787 293 Q 1787 338 1790 377 L 1792 422 Q 1792 446 1795 473 Q 1804 495 1778 512 C 1754 531 1726 530 1733 501 Q 1742 468 1744 406 L 1744 368 Q 1743 334 1742 281 L 1742 242 Q 1741 196 1740 136 C 1739 106 1780 113 1781 143 Z" fill="lightgray"></path>
      </clipPath>
      <path clip-path="url(#make-me-a-hanzi-clip-16)" d="M 1742 497 L 1767 480 L 1768 442 L 1762 168 L 1746 144 " fill="none" id="make-me-a-hanzi-animation-16" stroke-dasharray="499 998" stroke-linecap="round"></path>

      <clipPath id="make-me-a-hanzi-clip-17">
      <path d="M 1740 136 Q 1670 126 1593 111 C 1564 105 1566 94 1593 82 Q 1617 69 1643 76 Q 1751 106 1929 109 Q 1944 108 1957 109 Q 1976 109 1980 117 Q 1984 129 1969 141 Q 1915 180 1862 161 Q 1828 154 1781 143 L 1740 136 Z" fill="lightgray"></path>
      </clipPath>
      <path clip-path="url(#make-me-a-hanzi-clip-17)" d="M 1602 104 L 1612 95 L 1633 96 L 1888 138 L 1910 138 L 1970 122 " fill="none" id="make-me-a-hanzi-animation-17" stroke-dasharray="505 1010" stroke-linecap="round"></path>

</g>
</svg>
