<svg version="1.1" viewBox="0 0 2048 1024" xmlns="http://www.w3.org/2000/svg">
  <g stroke="lightgray" stroke-dasharray="1,1" stroke-width="1" transform="scale(4, 4)">
    <line x1="0" y1="0" x2="256" y2="256"></line>
    <line x1="256" y1="0" x2="0" y2="256"></line>
    <line x1="128" y1="0" x2="128" y2="256"></line>
    <line x1="0" y1="128" x2="256" y2="128"></line>
    <line x1="256" y1="0" x2="512" y2="256"></line>
    <line x1="512" y1="0" x2="256" y2="256"></line>
    <line x1="384" y1="0" x2="384" y2="256"></line>
    <line x1="256" y1="128" x2="512" y2="128"></line>
  </g>
<g transform="scale(1, -1) translate(0, -850)">
   <style type="text/css">
    @keyframes keyframes0 {
      from {
       stroke: black;
       stroke-dashoffset: 773;
       stroke-width: 128;
       }
       72% {
       animation-timing-function: step-end;
       stroke: black;
       stroke-dashoffset: 0;
       stroke-width: 128;
       }
       to {
       stroke: black;
       stroke-width: 1024;
       }
       }
       #make-me-a-hanzi-animation-0 {
         animation: keyframes0 0.879069s both;
         animation-delay: 0.000000s;
         animation-timing-function: linear;
       }
    @keyframes keyframes1 {
      from {
       stroke: black;
       stroke-dashoffset: 732;
       stroke-width: 128;
       }
       70% {
       animation-timing-function: step-end;
       stroke: black;
       stroke-dashoffset: 0;
       stroke-width: 128;
       }
       to {
       stroke: black;
       stroke-width: 1024;
       }
       }
       #make-me-a-hanzi-animation-1 {
         animation: keyframes1 0.845703s both;
         animation-delay: 0.879069s;
         animation-timing-function: linear;
       }
    @keyframes keyframes2 {
      from {
       stroke: black;
       stroke-dashoffset: 762;
       stroke-width: 128;
       }
       71% {
       animation-timing-function: step-end;
       stroke: black;
       stroke-dashoffset: 0;
       stroke-width: 128;
       }
       to {
       stroke: black;
       stroke-width: 1024;
       }
       }
       #make-me-a-hanzi-animation-2 {
         animation: keyframes2 0.870117s both;
         animation-delay: 1.724772s;
         animation-timing-function: linear;
       }
    @keyframes keyframes3 {
      from {
       stroke: black;
       stroke-dashoffset: 1119;
       stroke-width: 128;
       }
       78% {
       animation-timing-function: step-end;
       stroke: black;
       stroke-dashoffset: 0;
       stroke-width: 128;
       }
       to {
       stroke: black;
       stroke-width: 1024;
       }
       }
       #make-me-a-hanzi-animation-3 {
         animation: keyframes3 1.160645s both;
         animation-delay: 2.594889s;
         animation-timing-function: linear;
       }
    @keyframes keyframes4 {
      from {
       stroke: black;
       stroke-dashoffset: 709;
       stroke-width: 128;
       }
       70% {
       animation-timing-function: step-end;
       stroke: black;
       stroke-dashoffset: 0;
       stroke-width: 128;
       }
       to {
       stroke: black;
       stroke-width: 1024;
       }
       }
       #make-me-a-hanzi-animation-4 {
         animation: keyframes4 0.826986s both;
         animation-delay: 3.755534s;
         animation-timing-function: linear;
       }
    @keyframes keyframes5 {
      from {
       stroke: black;
       stroke-dashoffset: 755;
       stroke-width: 128;
       }
       71% {
       animation-timing-function: step-end;
       stroke: black;
       stroke-dashoffset: 0;
       stroke-width: 128;
       }
       to {
       stroke: black;
       stroke-width: 1024;
       }
       }
       #make-me-a-hanzi-animation-5 {
         animation: keyframes5 0.864421s both;
         animation-delay: 4.582520s;
         animation-timing-function: linear;
       }
    @keyframes keyframes6 {
      from {
       stroke: black;
       stroke-dashoffset: 528;
       stroke-width: 128;
       }
       63% {
       animation-timing-function: step-end;
       stroke: black;
       stroke-dashoffset: 0;
       stroke-width: 128;
       }
       to {
       stroke: black;
       stroke-width: 1024;
       }
       }
       #make-me-a-hanzi-animation-6 {
         animation: keyframes6 0.679688s both;
         animation-delay: 5.446940s;
         animation-timing-function: linear;
       }
    @keyframes keyframes7 {
      from {
       stroke: black;
       stroke-dashoffset: 550;
       stroke-width: 128;
       }
       64% {
       animation-timing-function: step-end;
       stroke: black;
       stroke-dashoffset: 0;
       stroke-width: 128;
       }
       to {
       stroke: black;
       stroke-width: 1024;
       }
       }
       #make-me-a-hanzi-animation-7 {
         animation: keyframes7 0.697591s both;
         animation-delay: 6.126628s;
         animation-timing-function: linear;
       }
    @keyframes keyframes8 {
      from {
       stroke: black;
       stroke-dashoffset: 1126;
       stroke-width: 128;
       }
       79% {
       animation-timing-function: step-end;
       stroke: black;
       stroke-dashoffset: 0;
       stroke-width: 128;
       }
       to {
       stroke: black;
       stroke-width: 1024;
       }
       }
       #make-me-a-hanzi-animation-8 {
         animation: keyframes8 1.166341s both;
         animation-delay: 6.824219s;
         animation-timing-function: linear;
       }
    @keyframes keyframes9 {
      from {
       stroke: black;
       stroke-dashoffset: 691;
       stroke-width: 128;
       }
       69% {
       animation-timing-function: step-end;
       stroke: black;
       stroke-dashoffset: 0;
       stroke-width: 128;
       }
       to {
       stroke: black;
       stroke-width: 1024;
       }
       }
       #make-me-a-hanzi-animation-9 {
         animation: keyframes9 0.812337s both;
         animation-delay: 7.990560s;
         animation-timing-function: linear;
       }
    @keyframes keyframes10 {
      from {
       stroke: black;
       stroke-dashoffset: 347;
       stroke-width: 128;
       }
       53% {
       animation-timing-function: step-end;
       stroke: black;
       stroke-dashoffset: 0;
       stroke-width: 128;
       }
       to {
       stroke: black;
       stroke-width: 1024;
       }
       }
       #make-me-a-hanzi-animation-10 {
         animation: keyframes10 0.532389s both;
         animation-delay: 8.802897s;
         animation-timing-function: linear;
       }
    @keyframes keyframes11 {
      from {
       stroke: black;
       stroke-dashoffset: 729;
       stroke-width: 128;
       }
       70% {
       animation-timing-function: step-end;
       stroke: black;
       stroke-dashoffset: 0;
       stroke-width: 128;
       }
       to {
       stroke: black;
       stroke-width: 1024;
       }
       }
       #make-me-a-hanzi-animation-11 {
         animation: keyframes11 0.843262s both;
         animation-delay: 9.335286s;
         animation-timing-function: linear;
       }
    @keyframes keyframes12 {
      from {
       stroke: black;
       stroke-dashoffset: 690;
       stroke-width: 128;
       }
       69% {
       animation-timing-function: step-end;
       stroke: black;
       stroke-dashoffset: 0;
       stroke-width: 128;
       }
       to {
       stroke: black;
       stroke-width: 1024;
       }
       }
       #make-me-a-hanzi-animation-12 {
         animation: keyframes12 0.811523s both;
         animation-delay: 10.178548s;
         animation-timing-function: linear;
       }
    @keyframes keyframes13 {
      from {
       stroke: black;
       stroke-dashoffset: 470;
       stroke-width: 128;
       }
       60% {
       animation-timing-function: step-end;
       stroke: black;
       stroke-dashoffset: 0;
       stroke-width: 128;
       }
       to {
       stroke: black;
       stroke-width: 1024;
       }
       }
       #make-me-a-hanzi-animation-13 {
         animation: keyframes13 0.632487s both;
         animation-delay: 10.990072s;
         animation-timing-function: linear;
       }
    @keyframes keyframes14 {
      from {
       stroke: black;
       stroke-dashoffset: 386;
       stroke-width: 128;
       }
       56% {
       animation-timing-function: step-end;
       stroke: black;
       stroke-dashoffset: 0;
       stroke-width: 128;
       }
       to {
       stroke: black;
       stroke-width: 1024;
       }
       }
       #make-me-a-hanzi-animation-14 {
         animation: keyframes14 0.564128s both;
         animation-delay: 11.622559s;
         animation-timing-function: linear;
       }
    @keyframes keyframes15 {
      from {
       stroke: black;
       stroke-dashoffset: 359;
       stroke-width: 128;
       }
       54% {
       animation-timing-function: step-end;
       stroke: black;
       stroke-dashoffset: 0;
       stroke-width: 128;
       }
       to {
       stroke: black;
       stroke-width: 1024;
       }
       }
       #make-me-a-hanzi-animation-15 {
         animation: keyframes15 0.542155s both;
         animation-delay: 12.186686s;
         animation-timing-function: linear;
       }
    @keyframes keyframes16 {
      from {
       stroke: black;
       stroke-dashoffset: 545;
       stroke-width: 128;
       }
       64% {
       animation-timing-function: step-end;
       stroke: black;
       stroke-dashoffset: 0;
       stroke-width: 128;
       }
       to {
       stroke: black;
       stroke-width: 1024;
       }
       }
       #make-me-a-hanzi-animation-16 {
         animation: keyframes16 0.693522s both;
         animation-delay: 12.728841s;
         animation-timing-function: linear;
       }
    @keyframes keyframes17 {
      from {
       stroke: black;
       stroke-dashoffset: 737;
       stroke-width: 128;
       }
       71% {
       animation-timing-function: step-end;
       stroke: black;
       stroke-dashoffset: 0;
       stroke-width: 128;
       }
       to {
       stroke: black;
       stroke-width: 1024;
       }
       }
       #make-me-a-hanzi-animation-17 {
         animation: keyframes17 0.849772s both;
         animation-delay: 13.422363s;
         animation-timing-function: linear;
       }
</style>
<path d="M 228 466 Q 274 523 324 600 Q 349 646 373 668 Q 383 678 379 693 Q 375 706 346 730 Q 318 749 299 749 Q 280 748 288 725 Q 301 694 290 668 Q 253 580 198 500 Q 144 422 71 337 Q 61 327 58 321 Q 55 309 69 312 Q 102 316 201 433 L 228 466 Z" fill="lightgray"></path> 
<path d="M 201 433 Q 222 399 224 305 Q 223 296 223 286 Q 223 180 196 73 Q 184 22 218 -17 Q 219 -20 222 -22 Q 238 -38 250 -12 Q 265 28 264 73 Q 264 328 272 385 Q 279 412 270 422 Q 233 462 228 466 C 207 487 188 460 201 433 Z" fill="lightgray"></path> 
<path d="M 602 509 Q 675 522 789 526 Q 843 530 849 537 Q 853 549 837 560 Q 782 597 719 575 Q 670 563 603 548 L 562 540 Q 462 521 346 499 Q 327 496 342 481 Q 370 456 416 469 Q 468 487 530 496 L 602 509 Z" fill="lightgray"></path> 
<path d="M 600 198 Q 600 301 601 451 L 601 500 Q 601 504 602 509 L 603 548 Q 604 641 622 705 Q 631 720 628 733 Q 621 742 567 775 Q 543 791 524 776 Q 518 772 525 756 Q 559 705 560 655 Q 561 601 562 540 L 562 445 Q 559 324 558 188 L 555 151 Q 549 90 533 30 Q 521 -12 548 -69 Q 555 -85 563 -89 Q 569 -96 576 -87 Q 583 -83 593 -63 Q 603 -38 602 -8 Q 601 20 600 159 L 600 198 Z" fill="lightgray"></path> 
<path d="M 530 496 Q 479 334 289 144 Q 279 131 288 131 Q 297 128 307 135 Q 443 210 562 445 C 598 516 544 539 530 496 Z" fill="lightgray"></path> 
<path d="M 601 451 Q 674 330 770 201 Q 786 177 819 175 Q 928 166 964 169 Q 974 170 976 175 Q 977 181 962 189 Q 820 252 750 321 Q 678 399 601 500 C 583 524 585 477 601 451 Z" fill="lightgray"></path> 
<path d="M 600 159 Q 613 162 697 174 Q 706 173 713 184 Q 714 194 695 202 Q 670 221 600 198 L 558 188 Q 525 182 495 178 Q 468 175 439 171 Q 415 167 434 153 Q 464 132 499 140 Q 524 146 555 151 L 600 159 Z" fill="lightgray"></path> 
<path d="M 1356 473 Q 1375 480 1400 485 Q 1436 495 1441 501 Q 1450 510 1444 518 Q 1437 530 1406 535 Q 1381 539 1358 530 L 1317 514 Q 1211 481 1155 473 Q 1118 464 1146 449 Q 1182 430 1256 447 Q 1274 453 1296 456 L 1356 473 Z" fill="lightgray"></path> 
<path d="M 1351 337 Q 1352 401 1356 473 L 1358 530 Q 1361 621 1380 684 Q 1390 699 1387 712 Q 1380 721 1326 756 Q 1304 772 1283 758 Q 1279 754 1284 738 Q 1318 686 1317 636 Q 1317 578 1317 514 L 1311 364 Q 1299 115 1299 113 Q 1290 61 1276 11 Q 1263 -31 1289 -88 Q 1295 -106 1303 -109 Q 1309 -115 1316 -107 Q 1343 -91 1344 -28 Q 1343 12 1351 306 L 1351 337 Z" fill="lightgray"></path> 
<path d="M 1296 456 Q 1247 312 1085 87 Q 1081 77 1092 77 Q 1098 76 1107 85 Q 1240 212 1311 364 C 1370 487 1306 484 1296 456 Z" fill="lightgray"></path> 
<path d="M 1351 306 Q 1405 252 1423 251 Q 1435 250 1440 266 Q 1441 278 1432 295 Q 1413 325 1351 337 C 1322 343 1330 327 1351 306 Z" fill="lightgray"></path> 
<path d="M 1659 613 Q 1675 641 1690 658 Q 1699 670 1693 683 Q 1689 696 1658 717 Q 1630 733 1610 732 Q 1591 729 1601 707 Q 1616 680 1607 656 Q 1582 575 1537 498 Q 1495 425 1437 342 Q 1427 330 1425 324 Q 1422 312 1437 316 Q 1494 331 1633 564 Q 1639 576 1646 587 L 1659 613 Z" fill="lightgray"></path> 
<path d="M 1646 587 Q 1718 481 1812 367 Q 1830 348 1859 348 Q 1958 351 1989 356 Q 1999 357 2000 363 Q 2001 367 1988 375 Q 1844 433 1776 497 Q 1721 549 1659 613 C 1638 635 1629 612 1646 587 Z" fill="lightgray"></path> 
<path d="M 1543 366 Q 1509 359 1534 344 Q 1579 323 1629 338 Q 1677 350 1726 361 Q 1748 367 1752 371 Q 1761 378 1756 387 Q 1749 397 1720 403 Q 1690 407 1662 395 Q 1637 385 1609 378 Q 1579 371 1543 366 Z" fill="lightgray"></path> 
<path d="M 1480 179 Q 1502 152 1526 120 Q 1536 107 1550 105 Q 1559 104 1565 115 Q 1572 127 1568 154 Q 1567 173 1540 192 Q 1476 228 1464 225 Q 1460 222 1459 211 Q 1460 201 1480 179 Z" fill="lightgray"></path> 
<path d="M 1571 252 Q 1619 176 1638 170 Q 1650 167 1659 183 Q 1662 193 1657 214 Q 1650 233 1628 246 Q 1595 270 1580 276 Q 1571 279 1569 268 Q 1566 261 1571 252 Z" fill="lightgray"></path> 
<path d="M 1693 49 Q 1714 83 1761 183 Q 1774 211 1797 247 Q 1812 260 1802 271 Q 1792 289 1760 307 Q 1744 317 1727 310 Q 1717 306 1724 293 Q 1739 242 1666 68 Q 1662 55 1659 43 C 1651 14 1678 23 1693 49 Z" fill="lightgray"></path> 
<path d="M 1659 43 Q 1653 44 1648 43 Q 1551 33 1438 21 Q 1416 20 1431 1 Q 1446 -14 1464 -20 Q 1486 -26 1503 -22 Q 1641 11 1864 2 Q 1880 2 1896 0 Q 1917 0 1922 9 Q 1928 21 1911 36 Q 1850 84 1791 64 Q 1749 58 1693 49 L 1659 43 Z" fill="lightgray"></path> 
      <clipPath id="make-me-a-hanzi-clip-0">
      <path d="M 228 466 Q 274 523 324 600 Q 349 646 373 668 Q 383 678 379 693 Q 375 706 346 730 Q 318 749 299 749 Q 280 748 288 725 Q 301 694 290 668 Q 253 580 198 500 Q 144 422 71 337 Q 61 327 58 321 Q 55 309 69 312 Q 102 316 201 433 L 228 466 Z" fill="lightgray"></path>
      </clipPath>
      <path clip-path="url(#make-me-a-hanzi-clip-0)" d="M 299 735 L 316 720 L 334 685 L 296 609 L 179 436 L 104 351 L 67 320 " fill="none" id="make-me-a-hanzi-animation-0" stroke-dasharray="645 1290" stroke-linecap="round"></path>

      <clipPath id="make-me-a-hanzi-clip-1">
      <path d="M 201 433 Q 222 399 224 305 Q 223 296 223 286 Q 223 180 196 73 Q 184 22 218 -17 Q 219 -20 222 -22 Q 238 -38 250 -12 Q 265 28 264 73 Q 264 328 272 385 Q 279 412 270 422 Q 233 462 228 466 C 207 487 188 460 201 433 Z" fill="lightgray"></path>
      </clipPath>
      <path clip-path="url(#make-me-a-hanzi-clip-1)" d="M 226 459 L 230 429 L 245 398 L 245 254 L 228 48 L 234 -12 " fill="none" id="make-me-a-hanzi-animation-1" stroke-dasharray="604 1208" stroke-linecap="round"></path>

      <clipPath id="make-me-a-hanzi-clip-2">
      <path d="M 602 509 Q 675 522 789 526 Q 843 530 849 537 Q 853 549 837 560 Q 782 597 719 575 Q 670 563 603 548 L 562 540 Q 462 521 346 499 Q 327 496 342 481 Q 370 456 416 469 Q 468 487 530 496 L 602 509 Z" fill="lightgray"></path>
      </clipPath>
      <path clip-path="url(#make-me-a-hanzi-clip-2)" d="M 344 490 L 403 487 L 514 513 L 734 552 L 794 553 L 842 542 " fill="none" id="make-me-a-hanzi-animation-2" stroke-dasharray="634 1268" stroke-linecap="round"></path>

      <clipPath id="make-me-a-hanzi-clip-3">
      <path d="M 600 198 Q 600 301 601 451 L 601 500 Q 601 504 602 509 L 603 548 Q 604 641 622 705 Q 631 720 628 733 Q 621 742 567 775 Q 543 791 524 776 Q 518 772 525 756 Q 559 705 560 655 Q 561 601 562 540 L 562 445 Q 559 324 558 188 L 555 151 Q 549 90 533 30 Q 521 -12 548 -69 Q 555 -85 563 -89 Q 569 -96 576 -87 Q 583 -83 593 -63 Q 603 -38 602 -8 Q 601 20 600 159 L 600 198 Z" fill="lightgray"></path>
      </clipPath>
      <path clip-path="url(#make-me-a-hanzi-clip-3)" d="M 537 767 L 577 730 L 587 707 L 579 147 L 565 8 L 568 -76 " fill="none" id="make-me-a-hanzi-animation-3" stroke-dasharray="991 1982" stroke-linecap="round"></path>

      <clipPath id="make-me-a-hanzi-clip-4">
      <path d="M 530 496 Q 479 334 289 144 Q 279 131 288 131 Q 297 128 307 135 Q 443 210 562 445 C 598 516 544 539 530 496 Z" fill="lightgray"></path>
      </clipPath>
      <path clip-path="url(#make-me-a-hanzi-clip-4)" d="M 558 495 L 544 480 L 539 452 L 521 411 L 447 293 L 354 186 L 293 137 " fill="none" id="make-me-a-hanzi-animation-4" stroke-dasharray="581 1162" stroke-linecap="round"></path>

      <clipPath id="make-me-a-hanzi-clip-5">
      <path d="M 601 451 Q 674 330 770 201 Q 786 177 819 175 Q 928 166 964 169 Q 974 170 976 175 Q 977 181 962 189 Q 820 252 750 321 Q 678 399 601 500 C 583 524 585 477 601 451 Z" fill="lightgray"></path>
      </clipPath>
      <path clip-path="url(#make-me-a-hanzi-clip-5)" d="M 606 482 L 617 452 L 699 341 L 750 279 L 812 219 L 968 175 " fill="none" id="make-me-a-hanzi-animation-5" stroke-dasharray="627 1254" stroke-linecap="round"></path>

      <clipPath id="make-me-a-hanzi-clip-6">
      <path d="M 600 159 Q 613 162 697 174 Q 706 173 713 184 Q 714 194 695 202 Q 670 221 600 198 L 558 188 Q 525 182 495 178 Q 468 175 439 171 Q 415 167 434 153 Q 464 132 499 140 Q 524 146 555 151 L 600 159 Z" fill="lightgray"></path>
      </clipPath>
      <path clip-path="url(#make-me-a-hanzi-clip-6)" d="M 435 162 L 469 156 L 652 190 L 703 186 " fill="none" id="make-me-a-hanzi-animation-6" stroke-dasharray="400 800" stroke-linecap="round"></path>

      <clipPath id="make-me-a-hanzi-clip-7">
      <path d="M 1356 473 Q 1375 480 1400 485 Q 1436 495 1441 501 Q 1450 510 1444 518 Q 1437 530 1406 535 Q 1381 539 1358 530 L 1317 514 Q 1211 481 1155 473 Q 1118 464 1146 449 Q 1182 430 1256 447 Q 1274 453 1296 456 L 1356 473 Z" fill="lightgray"></path>
      </clipPath>
      <path clip-path="url(#make-me-a-hanzi-clip-7)" d="M 1147 462 L 1207 460 L 1380 508 L 1434 511 " fill="none" id="make-me-a-hanzi-animation-7" stroke-dasharray="422 844" stroke-linecap="round"></path>

      <clipPath id="make-me-a-hanzi-clip-8">
      <path d="M 1351 337 Q 1352 401 1356 473 L 1358 530 Q 1361 621 1380 684 Q 1390 699 1387 712 Q 1380 721 1326 756 Q 1304 772 1283 758 Q 1279 754 1284 738 Q 1318 686 1317 636 Q 1317 578 1317 514 L 1311 364 Q 1299 115 1299 113 Q 1290 61 1276 11 Q 1263 -31 1289 -88 Q 1295 -106 1303 -109 Q 1309 -115 1316 -107 Q 1343 -91 1344 -28 Q 1343 12 1351 306 L 1351 337 Z" fill="lightgray"></path>
      </clipPath>
      <path clip-path="url(#make-me-a-hanzi-clip-8)" d="M 1294 752 L 1345 698 L 1325 149 L 1308 -7 L 1308 -96 " fill="none" id="make-me-a-hanzi-animation-8" stroke-dasharray="998 1996" stroke-linecap="round"></path>

      <clipPath id="make-me-a-hanzi-clip-9">
      <path d="M 1296 456 Q 1247 312 1085 87 Q 1081 77 1092 77 Q 1098 76 1107 85 Q 1240 212 1311 364 C 1370 487 1306 484 1296 456 Z" fill="lightgray"></path>
      </clipPath>
      <path clip-path="url(#make-me-a-hanzi-clip-9)" d="M 1312 455 L 1303 447 L 1286 367 L 1237 275 L 1177 186 L 1094 86 " fill="none" id="make-me-a-hanzi-animation-9" stroke-dasharray="563 1126" stroke-linecap="round"></path>

      <clipPath id="make-me-a-hanzi-clip-10">
      <path d="M 1351 306 Q 1405 252 1423 251 Q 1435 250 1440 266 Q 1441 278 1432 295 Q 1413 325 1351 337 C 1322 343 1330 327 1351 306 Z" fill="lightgray"></path>
      </clipPath>
      <path clip-path="url(#make-me-a-hanzi-clip-10)" d="M 1359 329 L 1368 314 L 1396 297 L 1423 267 " fill="none" id="make-me-a-hanzi-animation-10" stroke-dasharray="219 438" stroke-linecap="round"></path>

      <clipPath id="make-me-a-hanzi-clip-11">
      <path d="M 1659 613 Q 1675 641 1690 658 Q 1699 670 1693 683 Q 1689 696 1658 717 Q 1630 733 1610 732 Q 1591 729 1601 707 Q 1616 680 1607 656 Q 1582 575 1537 498 Q 1495 425 1437 342 Q 1427 330 1425 324 Q 1422 312 1437 316 Q 1494 331 1633 564 Q 1639 576 1646 587 L 1659 613 Z" fill="lightgray"></path>
      </clipPath>
      <path clip-path="url(#make-me-a-hanzi-clip-11)" d="M 1611 717 L 1645 684 L 1650 673 L 1642 651 L 1568 501 L 1471 360 L 1434 324 " fill="none" id="make-me-a-hanzi-animation-11" stroke-dasharray="601 1202" stroke-linecap="round"></path>

      <clipPath id="make-me-a-hanzi-clip-12">
      <path d="M 1646 587 Q 1718 481 1812 367 Q 1830 348 1859 348 Q 1958 351 1989 356 Q 1999 357 2000 363 Q 2001 367 1988 375 Q 1844 433 1776 497 Q 1721 549 1659 613 C 1638 635 1629 612 1646 587 Z" fill="lightgray"></path>
      </clipPath>
      <path clip-path="url(#make-me-a-hanzi-clip-12)" d="M 1661 604 L 1662 588 L 1758 476 L 1845 395 L 1993 362 " fill="none" id="make-me-a-hanzi-animation-12" stroke-dasharray="562 1124" stroke-linecap="round"></path>

      <clipPath id="make-me-a-hanzi-clip-13">
      <path d="M 1543 366 Q 1509 359 1534 344 Q 1579 323 1629 338 Q 1677 350 1726 361 Q 1748 367 1752 371 Q 1761 378 1756 387 Q 1749 397 1720 403 Q 1690 407 1662 395 Q 1637 385 1609 378 Q 1579 371 1543 366 Z" fill="lightgray"></path>
      </clipPath>
      <path clip-path="url(#make-me-a-hanzi-clip-13)" d="M 1536 356 L 1588 352 L 1699 380 L 1746 381 " fill="none" id="make-me-a-hanzi-animation-13" stroke-dasharray="342 684" stroke-linecap="round"></path>

      <clipPath id="make-me-a-hanzi-clip-14">
      <path d="M 1480 179 Q 1502 152 1526 120 Q 1536 107 1550 105 Q 1559 104 1565 115 Q 1572 127 1568 154 Q 1567 173 1540 192 Q 1476 228 1464 225 Q 1460 222 1459 211 Q 1460 201 1480 179 Z" fill="lightgray"></path>
      </clipPath>
      <path clip-path="url(#make-me-a-hanzi-clip-14)" d="M 1467 216 L 1530 164 L 1551 120 " fill="none" id="make-me-a-hanzi-animation-14" stroke-dasharray="258 516" stroke-linecap="round"></path>

      <clipPath id="make-me-a-hanzi-clip-15">
      <path d="M 1571 252 Q 1619 176 1638 170 Q 1650 167 1659 183 Q 1662 193 1657 214 Q 1650 233 1628 246 Q 1595 270 1580 276 Q 1571 279 1569 268 Q 1566 261 1571 252 Z" fill="lightgray"></path>
      </clipPath>
      <path clip-path="url(#make-me-a-hanzi-clip-15)" d="M 1580 265 L 1628 215 L 1642 184 " fill="none" id="make-me-a-hanzi-animation-15" stroke-dasharray="231 462" stroke-linecap="round"></path>

      <clipPath id="make-me-a-hanzi-clip-16">
      <path d="M 1693 49 Q 1714 83 1761 183 Q 1774 211 1797 247 Q 1812 260 1802 271 Q 1792 289 1760 307 Q 1744 317 1727 310 Q 1717 306 1724 293 Q 1739 242 1666 68 Q 1662 55 1659 43 C 1651 14 1678 23 1693 49 Z" fill="lightgray"></path>
      </clipPath>
      <path clip-path="url(#make-me-a-hanzi-clip-16)" d="M 1731 301 L 1746 291 L 1762 259 L 1701 102 L 1682 64 L 1664 48 " fill="none" id="make-me-a-hanzi-animation-16" stroke-dasharray="417 834" stroke-linecap="round"></path>

      <clipPath id="make-me-a-hanzi-clip-17">
      <path d="M 1659 43 Q 1653 44 1648 43 Q 1551 33 1438 21 Q 1416 20 1431 1 Q 1446 -14 1464 -20 Q 1486 -26 1503 -22 Q 1641 11 1864 2 Q 1880 2 1896 0 Q 1917 0 1922 9 Q 1928 21 1911 36 Q 1850 84 1791 64 Q 1749 58 1693 49 L 1659 43 Z" fill="lightgray"></path>
      </clipPath>
      <path clip-path="url(#make-me-a-hanzi-clip-17)" d="M 1435 11 L 1486 1 L 1827 37 L 1875 29 L 1910 16 " fill="none" id="make-me-a-hanzi-animation-17" stroke-dasharray="609 1218" stroke-linecap="round"></path>

</g>
</svg>
