<svg version="1.1" viewBox="0 0 2048 1024" xmlns="http://www.w3.org/2000/svg">
  <g stroke="lightgray" stroke-dasharray="1,1" stroke-width="1" transform="scale(4, 4)">
    <line x1="0" y1="0" x2="256" y2="256"></line>
    <line x1="256" y1="0" x2="0" y2="256"></line>
    <line x1="128" y1="0" x2="128" y2="256"></line>
    <line x1="0" y1="128" x2="256" y2="128"></line>
    <line x1="256" y1="0" x2="512" y2="256"></line>
    <line x1="512" y1="0" x2="256" y2="256"></line>
    <line x1="384" y1="0" x2="384" y2="256"></line>
    <line x1="256" y1="128" x2="512" y2="128"></line>
  </g>
<g transform="scale(1, -1) translate(0, -850)">
   <style type="text/css">
    @keyframes keyframes0 {
      from {
       stroke: black;
       stroke-dashoffset: 800;
       stroke-width: 128;
       }
       72% {
       animation-timing-function: step-end;
       stroke: black;
       stroke-dashoffset: 0;
       stroke-width: 128;
       }
       to {
       stroke: black;
       stroke-width: 1024;
       }
       }
       #make-me-a-hanzi-animation-0 {
         animation: keyframes0 0.901042s both;
         animation-delay: 0.000000s;
         animation-timing-function: linear;
       }
    @keyframes keyframes1 {
      from {
       stroke: black;
       stroke-dashoffset: 793;
       stroke-width: 128;
       }
       72% {
       animation-timing-function: step-end;
       stroke: black;
       stroke-dashoffset: 0;
       stroke-width: 128;
       }
       to {
       stroke: black;
       stroke-width: 1024;
       }
       }
       #make-me-a-hanzi-animation-1 {
         animation: keyframes1 0.895345s both;
         animation-delay: 0.901042s;
         animation-timing-function: linear;
       }
    @keyframes keyframes2 {
      from {
       stroke: black;
       stroke-dashoffset: 886;
       stroke-width: 128;
       }
       74% {
       animation-timing-function: step-end;
       stroke: black;
       stroke-dashoffset: 0;
       stroke-width: 128;
       }
       to {
       stroke: black;
       stroke-width: 1024;
       }
       }
       #make-me-a-hanzi-animation-2 {
         animation: keyframes2 0.971029s both;
         animation-delay: 1.796387s;
         animation-timing-function: linear;
       }
    @keyframes keyframes3 {
      from {
       stroke: black;
       stroke-dashoffset: 619;
       stroke-width: 128;
       }
       67% {
       animation-timing-function: step-end;
       stroke: black;
       stroke-dashoffset: 0;
       stroke-width: 128;
       }
       to {
       stroke: black;
       stroke-width: 1024;
       }
       }
       #make-me-a-hanzi-animation-3 {
         animation: keyframes3 0.753743s both;
         animation-delay: 2.767415s;
         animation-timing-function: linear;
       }
    @keyframes keyframes4 {
      from {
       stroke: black;
       stroke-dashoffset: 387;
       stroke-width: 128;
       }
       56% {
       animation-timing-function: step-end;
       stroke: black;
       stroke-dashoffset: 0;
       stroke-width: 128;
       }
       to {
       stroke: black;
       stroke-width: 1024;
       }
       }
       #make-me-a-hanzi-animation-4 {
         animation: keyframes4 0.564941s both;
         animation-delay: 3.521159s;
         animation-timing-function: linear;
       }
    @keyframes keyframes5 {
      from {
       stroke: black;
       stroke-dashoffset: 390;
       stroke-width: 128;
       }
       56% {
       animation-timing-function: step-end;
       stroke: black;
       stroke-dashoffset: 0;
       stroke-width: 128;
       }
       to {
       stroke: black;
       stroke-width: 1024;
       }
       }
       #make-me-a-hanzi-animation-5 {
         animation: keyframes5 0.567383s both;
         animation-delay: 4.086100s;
         animation-timing-function: linear;
       }
    @keyframes keyframes6 {
      from {
       stroke: black;
       stroke-dashoffset: 401;
       stroke-width: 128;
       }
       57% {
       animation-timing-function: step-end;
       stroke: black;
       stroke-dashoffset: 0;
       stroke-width: 128;
       }
       to {
       stroke: black;
       stroke-width: 1024;
       }
       }
       #make-me-a-hanzi-animation-6 {
         animation: keyframes6 0.576335s both;
         animation-delay: 4.653483s;
         animation-timing-function: linear;
       }
    @keyframes keyframes7 {
      from {
       stroke: black;
       stroke-dashoffset: 581;
       stroke-width: 128;
       }
       65% {
       animation-timing-function: step-end;
       stroke: black;
       stroke-dashoffset: 0;
       stroke-width: 128;
       }
       to {
       stroke: black;
       stroke-width: 1024;
       }
       }
       #make-me-a-hanzi-animation-7 {
         animation: keyframes7 0.722819s both;
         animation-delay: 5.229818s;
         animation-timing-function: linear;
       }
    @keyframes keyframes8 {
      from {
       stroke: black;
       stroke-dashoffset: 468;
       stroke-width: 128;
       }
       60% {
       animation-timing-function: step-end;
       stroke: black;
       stroke-dashoffset: 0;
       stroke-width: 128;
       }
       to {
       stroke: black;
       stroke-width: 1024;
       }
       }
       #make-me-a-hanzi-animation-8 {
         animation: keyframes8 0.630859s both;
         animation-delay: 5.952637s;
         animation-timing-function: linear;
       }
    @keyframes keyframes9 {
      from {
       stroke: black;
       stroke-dashoffset: 927;
       stroke-width: 128;
       }
       75% {
       animation-timing-function: step-end;
       stroke: black;
       stroke-dashoffset: 0;
       stroke-width: 128;
       }
       to {
       stroke: black;
       stroke-width: 1024;
       }
       }
       #make-me-a-hanzi-animation-9 {
         animation: keyframes9 1.004395s both;
         animation-delay: 6.583496s;
         animation-timing-function: linear;
       }
    @keyframes keyframes10 {
      from {
       stroke: black;
       stroke-dashoffset: 800;
       stroke-width: 128;
       }
       72% {
       animation-timing-function: step-end;
       stroke: black;
       stroke-dashoffset: 0;
       stroke-width: 128;
       }
       to {
       stroke: black;
       stroke-width: 1024;
       }
       }
       #make-me-a-hanzi-animation-10 {
         animation: keyframes10 0.901042s both;
         animation-delay: 7.587891s;
         animation-timing-function: linear;
       }
    @keyframes keyframes11 {
      from {
       stroke: black;
       stroke-dashoffset: 676;
       stroke-width: 128;
       }
       69% {
       animation-timing-function: step-end;
       stroke: black;
       stroke-dashoffset: 0;
       stroke-width: 128;
       }
       to {
       stroke: black;
       stroke-width: 1024;
       }
       }
       #make-me-a-hanzi-animation-11 {
         animation: keyframes11 0.800130s both;
         animation-delay: 8.488932s;
         animation-timing-function: linear;
       }
    @keyframes keyframes12 {
      from {
       stroke: black;
       stroke-dashoffset: 768;
       stroke-width: 128;
       }
       71% {
       animation-timing-function: step-end;
       stroke: black;
       stroke-dashoffset: 0;
       stroke-width: 128;
       }
       to {
       stroke: black;
       stroke-width: 1024;
       }
       }
       #make-me-a-hanzi-animation-12 {
         animation: keyframes12 0.875000s both;
         animation-delay: 9.289063s;
         animation-timing-function: linear;
       }
    @keyframes keyframes13 {
      from {
       stroke: black;
       stroke-dashoffset: 784;
       stroke-width: 128;
       }
       72% {
       animation-timing-function: step-end;
       stroke: black;
       stroke-dashoffset: 0;
       stroke-width: 128;
       }
       to {
       stroke: black;
       stroke-width: 1024;
       }
       }
       #make-me-a-hanzi-animation-13 {
         animation: keyframes13 0.888021s both;
         animation-delay: 10.164063s;
         animation-timing-function: linear;
       }
    @keyframes keyframes14 {
      from {
       stroke: black;
       stroke-dashoffset: 392;
       stroke-width: 128;
       }
       56% {
       animation-timing-function: step-end;
       stroke: black;
       stroke-dashoffset: 0;
       stroke-width: 128;
       }
       to {
       stroke: black;
       stroke-width: 1024;
       }
       }
       #make-me-a-hanzi-animation-14 {
         animation: keyframes14 0.569010s both;
         animation-delay: 11.052083s;
         animation-timing-function: linear;
       }
    @keyframes keyframes15 {
      from {
       stroke: black;
       stroke-dashoffset: 393;
       stroke-width: 128;
       }
       56% {
       animation-timing-function: step-end;
       stroke: black;
       stroke-dashoffset: 0;
       stroke-width: 128;
       }
       to {
       stroke: black;
       stroke-width: 1024;
       }
       }
       #make-me-a-hanzi-animation-15 {
         animation: keyframes15 0.569824s both;
         animation-delay: 11.621094s;
         animation-timing-function: linear;
       }
    @keyframes keyframes16 {
      from {
       stroke: black;
       stroke-dashoffset: 725;
       stroke-width: 128;
       }
       70% {
       animation-timing-function: step-end;
       stroke: black;
       stroke-dashoffset: 0;
       stroke-width: 128;
       }
       to {
       stroke: black;
       stroke-width: 1024;
       }
       }
       #make-me-a-hanzi-animation-16 {
         animation: keyframes16 0.840007s both;
         animation-delay: 12.190918s;
         animation-timing-function: linear;
       }
    @keyframes keyframes17 {
      from {
       stroke: black;
       stroke-dashoffset: 528;
       stroke-width: 128;
       }
       63% {
       animation-timing-function: step-end;
       stroke: black;
       stroke-dashoffset: 0;
       stroke-width: 128;
       }
       to {
       stroke: black;
       stroke-width: 1024;
       }
       }
       #make-me-a-hanzi-animation-17 {
         animation: keyframes17 0.679688s both;
         animation-delay: 13.030924s;
         animation-timing-function: linear;
       }
    @keyframes keyframes18 {
      from {
       stroke: black;
       stroke-dashoffset: 416;
       stroke-width: 128;
       }
       58% {
       animation-timing-function: step-end;
       stroke: black;
       stroke-dashoffset: 0;
       stroke-width: 128;
       }
       to {
       stroke: black;
       stroke-width: 1024;
       }
       }
       #make-me-a-hanzi-animation-18 {
         animation: keyframes18 0.588542s both;
         animation-delay: 13.710612s;
         animation-timing-function: linear;
       }
    @keyframes keyframes19 {
      from {
       stroke: black;
       stroke-dashoffset: 1006;
       stroke-width: 128;
       }
       77% {
       animation-timing-function: step-end;
       stroke: black;
       stroke-dashoffset: 0;
       stroke-width: 128;
       }
       to {
       stroke: black;
       stroke-width: 1024;
       }
       }
       #make-me-a-hanzi-animation-19 {
         animation: keyframes19 1.068685s both;
         animation-delay: 14.299154s;
         animation-timing-function: linear;
       }
    @keyframes keyframes20 {
      from {
       stroke: black;
       stroke-dashoffset: 1201;
       stroke-width: 128;
       }
       80% {
       animation-timing-function: step-end;
       stroke: black;
       stroke-dashoffset: 0;
       stroke-width: 128;
       }
       to {
       stroke: black;
       stroke-width: 1024;
       }
       }
       #make-me-a-hanzi-animation-20 {
         animation: keyframes20 1.227376s both;
         animation-delay: 15.367839s;
         animation-timing-function: linear;
       }
    @keyframes keyframes21 {
      from {
       stroke: black;
       stroke-dashoffset: 394;
       stroke-width: 128;
       }
       56% {
       animation-timing-function: step-end;
       stroke: black;
       stroke-dashoffset: 0;
       stroke-width: 128;
       }
       to {
       stroke: black;
       stroke-width: 1024;
       }
       }
       #make-me-a-hanzi-animation-21 {
         animation: keyframes21 0.570638s both;
         animation-delay: 16.595215s;
         animation-timing-function: linear;
       }
    @keyframes keyframes22 {
      from {
       stroke: black;
       stroke-dashoffset: 406;
       stroke-width: 128;
       }
       57% {
       animation-timing-function: step-end;
       stroke: black;
       stroke-dashoffset: 0;
       stroke-width: 128;
       }
       to {
       stroke: black;
       stroke-width: 1024;
       }
       }
       #make-me-a-hanzi-animation-22 {
         animation: keyframes22 0.580404s both;
         animation-delay: 17.165853s;
         animation-timing-function: linear;
       }
</style>
<path d="M 230 425 L 255 471 Q 272 498 282 519 L 303 566 Q 309 582 319 594 Q 320 598 332 614 Q 341 622 341 627 Q 343 634 337 644 Q 329 655 315 665 Q 294 680 290 681 Q 284 684 272 686 Q 267 686 259 684 Q 255 683 254 676 L 256 668 L 256 656 Q 257 649 255 626 L 244 584 Q 237 561 223 529 L 190 456 Q 173 417 152 384 L 114 324 L 100 304 Q 98 300 94 296 L 86 287 L 80 276 L 38 224 Q 33 218 36 213 Q 37 208 45 213 L 72 230 Q 81 235 104 256 Q 123 274 144 296 Q 155 307 177 340 Q 182 344 208 388 L 230 425 Z" fill="lightgray"></path> 
<path d="M 245 410 L 230 425 C 209 446 206 418 208 388 L 211 338 Q 213 300 211 250 L 204 104 Q 202 73 195 35 L 178 -49 L 185 -71 L 195 -95 Q 202 -118 206 -122 Q 213 -132 219 -131 Q 226 -131 233 -121 Q 239 -113 244 -90 Q 248 -69 249 -52 L 255 202 L 255 266 Q 255 276 258 308 Q 259 331 264 354 L 268 374 Q 269 375 260 389 L 247 406 L 245 410 Z" fill="lightgray"></path> 
<path d="M 356 507 Q 360 505 362 487 Q 366 459 366 416 L 362 195 L 354 84 Q 351 51 342 10 L 338 -8 Q 337 -16 335 -21 L 334 -26 Q 331 -45 335 -57 L 344 -85 Q 349 -104 354 -109 L 363 -115 Q 369 -117 370 -116 Q 371 -117 376 -113 Q 379 -111 382 -96 L 387 -74 Q 389 -65 391 -19 L 398 98 L 398 117 L 399 213 L 401 236 L 406 358 L 405 392 L 408 524 C 409 554 347 536 356 507 Z" fill="lightgray"></path> 
<path d="M 458 563 L 419 552 Q 404 548 348 541 Q 333 539 330 535 Q 324 530 337 512 Q 340 508 346 508 Q 356 508 356 507 C 378 505 379 518 408 524 L 428 528 Q 432 528 453 534 Q 466 537 480 542 Q 498 547 502 543 Q 507 540 508 533 Q 509 532 507 513 L 486 406 C 480 377 520 371 528 400 L 549 474 Q 551 484 561 505 L 583 540 Q 590 547 588 555 Q 589 561 573 572 Q 560 582 543 586 Q 527 592 518 591 L 507 588 L 494 579 Q 480 571 472 568 Q 468 566 458 563 Z" fill="lightgray"></path> 
<path d="M 406 358 L 524 373 Q 541 373 543 378 Q 545 384 541 388 Q 538 395 528 400 C 510 410 510 410 486 406 L 405 392 C 375 387 376 354 406 358 Z" fill="lightgray"></path> 
<path d="M 399 213 L 416 212 Q 426 210 435 212 L 478 219 L 501 224 Q 529 228 536 232 L 545 240 Q 546 241 543 250 Q 539 257 524 262 Q 506 268 497 267 L 489 264 Q 488 263 486 263 L 436 248 Q 432 246 430 246 L 401 236 C 373 226 369 215 399 213 Z" fill="lightgray"></path> 
<path d="M 398 98 L 413 94 Q 421 92 445 95 L 509 104 Q 544 108 553 111 Q 557 113 558 117 Q 559 120 555 126 Q 541 135 534 138 Q 517 144 513 144 L 398 117 C 369 110 369 106 398 98 Z" fill="lightgray"></path> 
<path d="M 769 532 L 751 436 C 745 407 787 400 797 428 L 823 499 Q 823 501 825 504 L 833 526 Q 840 542 850 553 L 862 568 Q 864 576 856 582 Q 848 589 836 595 L 808 608 Q 792 613 782 612 Q 773 609 765 604 L 741 592 Q 720 585 699 580 L 659 572 L 633 570 Q 620 568 619 565 Q 617 559 621 553 Q 624 545 643 540 Q 661 535 670 536 Q 674 535 683 540 L 693 543 Q 701 546 711 548 Q 729 551 737 556 Q 759 564 763 560 Q 770 557 770 550 Q 771 550 769 532 Z" fill="lightgray"></path> 
<path d="M 751 436 L 705 424 Q 671 415 660 414 L 614 406 Q 601 405 599 400 Q 597 396 599 391 Q 602 385 610 382 Q 620 379 630 378 Q 645 377 652 378 L 766 395 Q 770 396 774 396 L 807 397 Q 821 398 823 402 Q 825 407 820 415 Q 812 423 797 428 L 751 436 Z" fill="lightgray"></path> 
<path d="M 700 99 L 681 76 Q 662 53 643 35 Q 621 15 591 -6 Q 559 -27 539 -36 Q 515 -49 497 -54 L 484 -60 Q 476 -63 478 -68 Q 480 -75 486 -73 L 503 -72 Q 518 -73 547 -62 Q 582 -51 602 -42 Q 623 -32 658 -8 Q 691 14 702 28 Q 709 35 724 54 L 751 91 L 783 149 L 805 202 Q 819 231 825 242 Q 834 252 839 256 Q 848 263 850 271 Q 851 278 841 288 Q 835 296 822 304 Q 808 313 797 316 Q 783 322 777 321 Q 771 320 757 314 Q 738 307 721 302 L 683 290 Q 674 286 650 282 Q 631 278 619 279 C 589 277 616 241 645 248 L 737 269 Q 748 272 752 268 Q 757 265 755 252 Q 755 243 747 220 L 734 174 L 715 132 L 700 99 Z" fill="lightgray"></path> 
<path d="M 724 54 L 795 -56 Q 811 -75 819 -80 Q 830 -86 843 -88 Q 854 -91 875 -89 Q 900 -87 914 -84 Q 930 -82 949 -77 L 969 -72 Q 975 -72 981 -68 Q 985 -65 984 -61 Q 984 -53 973 -52 L 955 -48 Q 943 -47 918 -36 L 879 -19 Q 864 -11 846 2 Q 814 25 807 32 L 778 61 L 758 83 Q 753 88 751 91 L 715 132 L 645 248 C 630 274 627 278 619 279 Q 607 279 603 280 Q 594 282 590 280 Q 585 278 584 276 Q 582 270 585 266 Q 588 261 599 250 Q 608 243 619 232 L 639 202 L 652 185 L 661 170 L 681 131 Q 682 123 700 99 L 724 54 Z" fill="lightgray"></path> 
<path d="M 1249 480 L 1260 482 Q 1271 482 1274 484 L 1327 487 L 1467 506 L 1521 513 L 1578 526 Q 1595 529 1599 533 Q 1603 536 1606 542 Q 1606 546 1603 554 Q 1598 562 1578 567 Q 1558 571 1552 571 Q 1546 571 1524 565 L 1469 554 L 1400 540 Q 1390 537 1328 529 L 1274 522 L 1194 513 Q 1174 510 1172 509 Q 1170 507 1174 498 Q 1177 483 1226 479 Q 1237 478 1249 480 Z" fill="lightgray"></path> 
<path d="M 1274 484 L 1270 196 C 1270 166 1320 172 1320 202 L 1320 276 L 1322 306 L 1324 374 L 1325 404 L 1327 487 L 1328 529 L 1336 593 Q 1339 623 1349 643 Q 1359 663 1349 672 Q 1325 693 1296 698 Q 1282 703 1269 702 Q 1257 700 1253 695 Q 1249 690 1250 686 L 1259 666 Q 1266 648 1268 626 Q 1272 607 1272 586 L 1274 522 L 1274 484 Z" fill="lightgray"></path> 
<path d="M 1511 231 L 1521 513 L 1524 565 L 1530 632 Q 1530 652 1539 673 Q 1550 693 1548 698 Q 1548 705 1540 713 Q 1533 720 1501 733 Q 1469 746 1459 743 Q 1449 740 1448 735 Q 1447 730 1456 702 Q 1465 674 1468 632 L 1469 554 L 1467 506 L 1467 420 L 1467 395 L 1465 323 L 1465 296 L 1463 224 C 1462 194 1510 201 1511 231 Z" fill="lightgray"></path> 
<path d="M 1324 374 L 1354 372 Q 1363 369 1400 380 L 1467 395 C 1496 402 1496 414 1467 420 L 1446 424 Q 1434 427 1421 426 L 1386 417 Q 1352 408 1325 404 C 1295 399 1294 376 1324 374 Z" fill="lightgray"></path> 
<path d="M 1320 276 L 1344 276 Q 1361 274 1386 281 L 1465 296 C 1494 302 1494 316 1465 323 L 1443 328 Q 1430 330 1422 330 L 1385 320 Q 1345 310 1322 306 C 1292 301 1290 276 1320 276 Z" fill="lightgray"></path> 
<path d="M 1270 196 L 1136 179 Q 1124 179 1122 176 Q 1109 165 1144 146 Q 1169 132 1182 132 Q 1196 132 1217 137 L 1272 150 L 1452 181 Q 1483 185 1539 191 Q 1596 197 1599 200 Q 1608 212 1585 225 Q 1563 237 1542 235 L 1511 231 L 1463 224 L 1320 202 L 1270 196 Z" fill="lightgray"></path> 
<path d="M 1173 -44 L 1152 -62 Q 1145 -69 1146 -73 Q 1148 -78 1162 -73 L 1187 -62 Q 1201 -57 1230 -36 L 1277 -2 Q 1302 18 1318 34 Q 1334 50 1344 58 L 1367 75 Q 1380 82 1373 93 Q 1367 103 1348 111 Q 1300 128 1294 123 Q 1288 118 1286 99 Q 1284 80 1259 50 L 1224 9 L 1197 -18 L 1173 -44 Z" fill="lightgray"></path> 
<path d="M 1448 112 L 1456 102 Q 1456 98 1480 68 Q 1504 38 1511 26 L 1524 6 Q 1548 -20 1561 5 Q 1567 18 1566 42 Q 1565 66 1551 78 Q 1537 90 1513 104 Q 1490 117 1472 122 L 1456 128 Q 1444 133 1440 129 Q 1437 124 1448 112 Z" fill="lightgray"></path> 
<path d="M 1700 178 L 1705 223 L 1708 254 L 1714 316 Q 1715 324 1717 374 L 1717 404 L 1721 501 Q 1722 534 1725 543 L 1734 562 C 1744 585 1744 585 1721 596 L 1700 606 Q 1697 606 1681 612 Q 1666 618 1652 616 Q 1630 612 1643 590 Q 1660 556 1662 495 Q 1663 479 1663 437 L 1662 349 Q 1659 261 1647 190 Q 1635 119 1604 42 Q 1585 7 1580 0 L 1535 -62 L 1524 -75 Q 1516 -84 1517 -88 Q 1517 -98 1538 -85 L 1560 -70 Q 1571 -63 1600 -34 L 1639 14 Q 1676 71 1686 114 Q 1697 157 1700 178 Z" fill="lightgray"></path> 
<path d="M 1865 238 L 1863 146 Q 1861 134 1859 64 Q 1857 -7 1845 -14 Q 1839 -19 1826 -18 L 1806 -15 L 1761 -5 Q 1760 -4 1754 -6 Q 1748 -8 1748 -11 Q 1753 -16 1756 -18 L 1802 -58 Q 1817 -75 1830 -91 Q 1843 -107 1849 -110 Q 1857 -118 1866 -116 Q 1875 -116 1890 -97 Q 1914 -68 1925 -6 Q 1929 99 1923 179 Q 1920 256 1921 275 L 1924 445 Q 1924 511 1928 527 Q 1932 542 1941 559 Q 1951 575 1950 579 Q 1949 583 1940 595 Q 1913 622 1889 629 Q 1865 635 1861 634 L 1794 612 L 1758 603 L 1721 596 C 1692 590 1705 555 1734 562 L 1770 570 L 1822 579 Q 1844 583 1851 579 Q 1868 570 1868 526 L 1866 418 L 1865 398 L 1866 264 L 1865 238 Z" fill="lightgray"></path> 
<path d="M 1717 374 L 1732 372 Q 1752 367 1770 373 L 1865 398 C 1894 406 1895 410 1866 418 L 1833 427 Q 1806 433 1772 422 L 1717 404 C 1688 395 1687 378 1717 374 Z" fill="lightgray"></path> 
<path d="M 1705 223 L 1719 220 Q 1731 217 1740 218 Q 1749 218 1799 227 L 1865 238 C 1895 243 1895 258 1866 264 L 1838 270 Q 1821 274 1811 274 Q 1801 274 1776 268 Q 1752 262 1745 261 L 1708 254 C 1679 248 1676 229 1705 223 Z" fill="lightgray"></path> 
      <clipPath id="make-me-a-hanzi-clip-0">
      <path d="M 230 425 L 255 471 Q 272 498 282 519 L 303 566 Q 309 582 319 594 Q 320 598 332 614 Q 341 622 341 627 Q 343 634 337 644 Q 329 655 315 665 Q 294 680 290 681 Q 284 684 272 686 Q 267 686 259 684 Q 255 683 254 676 L 256 668 L 256 656 Q 257 649 255 626 L 244 584 Q 237 561 223 529 L 190 456 Q 173 417 152 384 L 114 324 L 100 304 Q 98 300 94 296 L 86 287 L 80 276 L 38 224 Q 33 218 36 213 Q 37 208 45 213 L 72 230 Q 81 235 104 256 Q 123 274 144 296 Q 155 307 177 340 Q 182 344 208 388 L 230 425 Z" fill="lightgray"></path>
      </clipPath>
      <path clip-path="url(#make-me-a-hanzi-clip-0)" d="M 265 675 L 295 630 L 249 516 L 183 389 L 144 330 L 88 260 L 41 218 " fill="none" id="make-me-a-hanzi-animation-0" stroke-dasharray="672 1344" stroke-linecap="round"></path>

      <clipPath id="make-me-a-hanzi-clip-1">
      <path d="M 245 410 L 230 425 C 209 446 206 418 208 388 L 211 338 Q 213 300 211 250 L 204 104 Q 202 73 195 35 L 178 -49 L 185 -71 L 195 -95 Q 202 -118 206 -122 Q 213 -132 219 -131 Q 226 -131 233 -121 Q 239 -113 244 -90 Q 248 -69 249 -52 L 255 202 L 255 266 Q 255 276 258 308 Q 259 331 264 354 L 268 374 Q 269 375 260 389 L 247 406 L 245 410 Z" fill="lightgray"></path>
      </clipPath>
      <path clip-path="url(#make-me-a-hanzi-clip-1)" d="M 229 417 L 238 364 L 231 147 L 214 -47 L 218 -118 " fill="none" id="make-me-a-hanzi-animation-1" stroke-dasharray="665 1330" stroke-linecap="round"></path>

      <clipPath id="make-me-a-hanzi-clip-2">
      <path d="M 356 507 Q 360 505 362 487 Q 366 459 366 416 L 362 195 L 354 84 Q 351 51 342 10 L 338 -8 Q 337 -16 335 -21 L 334 -26 Q 331 -45 335 -57 L 344 -85 Q 349 -104 354 -109 L 363 -115 Q 369 -117 370 -116 Q 371 -117 376 -113 Q 379 -111 382 -96 L 387 -74 Q 389 -65 391 -19 L 398 98 L 398 117 L 399 213 L 401 236 L 406 358 L 405 392 L 408 524 C 409 554 347 536 356 507 Z" fill="lightgray"></path>
      </clipPath>
      <path clip-path="url(#make-me-a-hanzi-clip-2)" d="M 403 517 L 384 493 L 380 165 L 361 -37 L 368 -105 " fill="none" id="make-me-a-hanzi-animation-2" stroke-dasharray="758 1516" stroke-linecap="round"></path>

      <clipPath id="make-me-a-hanzi-clip-3">
      <path d="M 458 563 L 419 552 Q 404 548 348 541 Q 333 539 330 535 Q 324 530 337 512 Q 340 508 346 508 Q 356 508 356 507 C 378 505 379 518 408 524 L 428 528 Q 432 528 453 534 Q 466 537 480 542 Q 498 547 502 543 Q 507 540 508 533 Q 509 532 507 513 L 486 406 C 480 377 520 371 528 400 L 549 474 Q 551 484 561 505 L 583 540 Q 590 547 588 555 Q 589 561 573 572 Q 560 582 543 586 Q 527 592 518 591 L 507 588 L 494 579 Q 480 571 472 568 Q 468 566 458 563 Z" fill="lightgray"></path>
      </clipPath>
      <path clip-path="url(#make-me-a-hanzi-clip-3)" d="M 337 530 L 353 524 L 495 562 L 527 560 L 543 541 L 513 428 L 494 412 " fill="none" id="make-me-a-hanzi-animation-3" stroke-dasharray="491 982" stroke-linecap="round"></path>

      <clipPath id="make-me-a-hanzi-clip-4">
      <path d="M 406 358 L 524 373 Q 541 373 543 378 Q 545 384 541 388 Q 538 395 528 400 C 510 410 510 410 486 406 L 405 392 C 375 387 376 354 406 358 Z" fill="lightgray"></path>
      </clipPath>
      <path clip-path="url(#make-me-a-hanzi-clip-4)" d="M 413 364 L 426 378 L 482 387 L 519 388 L 536 382 " fill="none" id="make-me-a-hanzi-animation-4" stroke-dasharray="259 518" stroke-linecap="round"></path>

      <clipPath id="make-me-a-hanzi-clip-5">
      <path d="M 399 213 L 416 212 Q 426 210 435 212 L 478 219 L 501 224 Q 529 228 536 232 L 545 240 Q 546 241 543 250 Q 539 257 524 262 Q 506 268 497 267 L 489 264 Q 488 263 486 263 L 436 248 Q 432 246 430 246 L 401 236 C 373 226 369 215 399 213 Z" fill="lightgray"></path>
      </clipPath>
      <path clip-path="url(#make-me-a-hanzi-clip-5)" d="M 404 218 L 500 246 L 534 243 " fill="none" id="make-me-a-hanzi-animation-5" stroke-dasharray="262 524" stroke-linecap="round"></path>

      <clipPath id="make-me-a-hanzi-clip-6">
      <path d="M 398 98 L 413 94 Q 421 92 445 95 L 509 104 Q 544 108 553 111 Q 557 113 558 117 Q 559 120 555 126 Q 541 135 534 138 Q 517 144 513 144 L 398 117 C 369 110 369 106 398 98 Z" fill="lightgray"></path>
      </clipPath>
      <path clip-path="url(#make-me-a-hanzi-clip-6)" d="M 407 112 L 418 107 L 510 124 L 549 119 " fill="none" id="make-me-a-hanzi-animation-6" stroke-dasharray="273 546" stroke-linecap="round"></path>

      <clipPath id="make-me-a-hanzi-clip-7">
      <path d="M 769 532 L 751 436 C 745 407 787 400 797 428 L 823 499 Q 823 501 825 504 L 833 526 Q 840 542 850 553 L 862 568 Q 864 576 856 582 Q 848 589 836 595 L 808 608 Q 792 613 782 612 Q 773 609 765 604 L 741 592 Q 720 585 699 580 L 659 572 L 633 570 Q 620 568 619 565 Q 617 559 621 553 Q 624 545 643 540 Q 661 535 670 536 Q 674 535 683 540 L 693 543 Q 701 546 711 548 Q 729 551 737 556 Q 759 564 763 560 Q 770 557 770 550 Q 771 550 769 532 Z" fill="lightgray"></path>
      </clipPath>
      <path clip-path="url(#make-me-a-hanzi-clip-7)" d="M 629 560 L 665 554 L 769 582 L 800 572 L 808 564 L 806 550 L 781 456 L 760 441 " fill="none" id="make-me-a-hanzi-animation-7" stroke-dasharray="453 906" stroke-linecap="round"></path>

      <clipPath id="make-me-a-hanzi-clip-8">
      <path d="M 751 436 L 705 424 Q 671 415 660 414 L 614 406 Q 601 405 599 400 Q 597 396 599 391 Q 602 385 610 382 Q 620 379 630 378 Q 645 377 652 378 L 766 395 Q 770 396 774 396 L 807 397 Q 821 398 823 402 Q 825 407 820 415 Q 812 423 797 428 L 751 436 Z" fill="lightgray"></path>
      </clipPath>
      <path clip-path="url(#make-me-a-hanzi-clip-8)" d="M 607 396 L 647 394 L 755 415 L 816 407 " fill="none" id="make-me-a-hanzi-animation-8" stroke-dasharray="340 680" stroke-linecap="round"></path>

      <clipPath id="make-me-a-hanzi-clip-9">
      <path d="M 700 99 L 681 76 Q 662 53 643 35 Q 621 15 591 -6 Q 559 -27 539 -36 Q 515 -49 497 -54 L 484 -60 Q 476 -63 478 -68 Q 480 -75 486 -73 L 503 -72 Q 518 -73 547 -62 Q 582 -51 602 -42 Q 623 -32 658 -8 Q 691 14 702 28 Q 709 35 724 54 L 751 91 L 783 149 L 805 202 Q 819 231 825 242 Q 834 252 839 256 Q 848 263 850 271 Q 851 278 841 288 Q 835 296 822 304 Q 808 313 797 316 Q 783 322 777 321 Q 771 320 757 314 Q 738 307 721 302 L 683 290 Q 674 286 650 282 Q 631 278 619 279 C 589 277 616 241 645 248 L 737 269 Q 748 272 752 268 Q 757 265 755 252 Q 755 243 747 220 L 734 174 L 715 132 L 700 99 Z" fill="lightgray"></path>
      </clipPath>
      <path clip-path="url(#make-me-a-hanzi-clip-9)" d="M 626 276 L 651 265 L 758 291 L 780 287 L 796 272 L 761 166 L 733 109 L 681 40 L 628 -5 L 590 -28 L 534 -54 L 484 -67 " fill="none" id="make-me-a-hanzi-animation-9" stroke-dasharray="799 1598" stroke-linecap="round"></path>

      <clipPath id="make-me-a-hanzi-clip-10">
      <path d="M 724 54 L 795 -56 Q 811 -75 819 -80 Q 830 -86 843 -88 Q 854 -91 875 -89 Q 900 -87 914 -84 Q 930 -82 949 -77 L 969 -72 Q 975 -72 981 -68 Q 985 -65 984 -61 Q 984 -53 973 -52 L 955 -48 Q 943 -47 918 -36 L 879 -19 Q 864 -11 846 2 Q 814 25 807 32 L 778 61 L 758 83 Q 753 88 751 91 L 715 132 L 645 248 C 630 274 627 278 619 279 Q 607 279 603 280 Q 594 282 590 280 Q 585 278 584 276 Q 582 270 585 266 Q 588 261 599 250 Q 608 243 619 232 L 639 202 L 652 185 L 661 170 L 681 131 Q 682 123 700 99 L 724 54 Z" fill="lightgray"></path>
      </clipPath>
      <path clip-path="url(#make-me-a-hanzi-clip-10)" d="M 591 272 L 612 262 L 630 244 L 700 126 L 747 60 L 841 -45 L 893 -58 L 975 -61 " fill="none" id="make-me-a-hanzi-animation-10" stroke-dasharray="672 1344" stroke-linecap="round"></path>

      <clipPath id="make-me-a-hanzi-clip-11">
      <path d="M 1249 480 L 1260 482 Q 1271 482 1274 484 L 1327 487 L 1467 506 L 1521 513 L 1578 526 Q 1595 529 1599 533 Q 1603 536 1606 542 Q 1606 546 1603 554 Q 1598 562 1578 567 Q 1558 571 1552 571 Q 1546 571 1524 565 L 1469 554 L 1400 540 Q 1390 537 1328 529 L 1274 522 L 1194 513 Q 1174 510 1172 509 Q 1170 507 1174 498 Q 1177 483 1226 479 Q 1237 478 1249 480 Z" fill="lightgray"></path>
      </clipPath>
      <path clip-path="url(#make-me-a-hanzi-clip-11)" d="M 1177 504 L 1216 497 L 1306 505 L 1551 545 L 1593 545 " fill="none" id="make-me-a-hanzi-animation-11" stroke-dasharray="548 1096" stroke-linecap="round"></path>

      <clipPath id="make-me-a-hanzi-clip-12">
      <path d="M 1274 484 L 1270 196 C 1270 166 1320 172 1320 202 L 1320 276 L 1322 306 L 1324 374 L 1325 404 L 1327 487 L 1328 529 L 1336 593 Q 1339 623 1349 643 Q 1359 663 1349 672 Q 1325 693 1296 698 Q 1282 703 1269 702 Q 1257 700 1253 695 Q 1249 690 1250 686 L 1259 666 Q 1266 648 1268 626 Q 1272 607 1272 586 L 1274 522 L 1274 484 Z" fill="lightgray"></path>
      </clipPath>
      <path clip-path="url(#make-me-a-hanzi-clip-12)" d="M 1264 686 L 1283 676 L 1307 651 L 1296 224 L 1275 204 " fill="none" id="make-me-a-hanzi-animation-12" stroke-dasharray="640 1280" stroke-linecap="round"></path>

      <clipPath id="make-me-a-hanzi-clip-13">
      <path d="M 1511 231 L 1521 513 L 1524 565 L 1530 632 Q 1530 652 1539 673 Q 1550 693 1548 698 Q 1548 705 1540 713 Q 1533 720 1501 733 Q 1469 746 1459 743 Q 1449 740 1448 735 Q 1447 730 1456 702 Q 1465 674 1468 632 L 1469 554 L 1467 506 L 1467 420 L 1467 395 L 1465 323 L 1465 296 L 1463 224 C 1462 194 1510 201 1511 231 Z" fill="lightgray"></path>
      </clipPath>
      <path clip-path="url(#make-me-a-hanzi-clip-13)" d="M 1458 733 L 1501 689 L 1488 252 L 1468 231 " fill="none" id="make-me-a-hanzi-animation-13" stroke-dasharray="656 1312" stroke-linecap="round"></path>

      <clipPath id="make-me-a-hanzi-clip-14">
      <path d="M 1324 374 L 1354 372 Q 1363 369 1400 380 L 1467 395 C 1496 402 1496 414 1467 420 L 1446 424 Q 1434 427 1421 426 L 1386 417 Q 1352 408 1325 404 C 1295 399 1294 376 1324 374 Z" fill="lightgray"></path>
      </clipPath>
      <path clip-path="url(#make-me-a-hanzi-clip-14)" d="M 1332 381 L 1341 390 L 1452 407 L 1460 414 " fill="none" id="make-me-a-hanzi-animation-14" stroke-dasharray="264 528" stroke-linecap="round"></path>

      <clipPath id="make-me-a-hanzi-clip-15">
      <path d="M 1320 276 L 1344 276 Q 1361 274 1386 281 L 1465 296 C 1494 302 1494 316 1465 323 L 1443 328 Q 1430 330 1422 330 L 1385 320 Q 1345 310 1322 306 C 1292 301 1290 276 1320 276 Z" fill="lightgray"></path>
      </clipPath>
      <path clip-path="url(#make-me-a-hanzi-clip-15)" d="M 1326 283 L 1338 292 L 1458 316 " fill="none" id="make-me-a-hanzi-animation-15" stroke-dasharray="265 530" stroke-linecap="round"></path>

      <clipPath id="make-me-a-hanzi-clip-16">
      <path d="M 1270 196 L 1136 179 Q 1124 179 1122 176 Q 1109 165 1144 146 Q 1169 132 1182 132 Q 1196 132 1217 137 L 1272 150 L 1452 181 Q 1483 185 1539 191 Q 1596 197 1599 200 Q 1608 212 1585 225 Q 1563 237 1542 235 L 1511 231 L 1463 224 L 1320 202 L 1270 196 Z" fill="lightgray"></path>
      </clipPath>
      <path clip-path="url(#make-me-a-hanzi-clip-16)" d="M 1130 168 L 1186 158 L 1537 213 L 1594 207 " fill="none" id="make-me-a-hanzi-animation-16" stroke-dasharray="597 1194" stroke-linecap="round"></path>

      <clipPath id="make-me-a-hanzi-clip-17">
      <path d="M 1173 -44 L 1152 -62 Q 1145 -69 1146 -73 Q 1148 -78 1162 -73 L 1187 -62 Q 1201 -57 1230 -36 L 1277 -2 Q 1302 18 1318 34 Q 1334 50 1344 58 L 1367 75 Q 1380 82 1373 93 Q 1367 103 1348 111 Q 1300 128 1294 123 Q 1288 118 1286 99 Q 1284 80 1259 50 L 1224 9 L 1197 -18 L 1173 -44 Z" fill="lightgray"></path>
      </clipPath>
      <path clip-path="url(#make-me-a-hanzi-clip-17)" d="M 1364 86 L 1318 81 L 1258 12 L 1193 -44 L 1151 -69 " fill="none" id="make-me-a-hanzi-animation-17" stroke-dasharray="400 800" stroke-linecap="round"></path>

      <clipPath id="make-me-a-hanzi-clip-18">
      <path d="M 1448 112 L 1456 102 Q 1456 98 1480 68 Q 1504 38 1511 26 L 1524 6 Q 1548 -20 1561 5 Q 1567 18 1566 42 Q 1565 66 1551 78 Q 1537 90 1513 104 Q 1490 117 1472 122 L 1456 128 Q 1444 133 1440 129 Q 1437 124 1448 112 Z" fill="lightgray"></path>
      </clipPath>
      <path clip-path="url(#make-me-a-hanzi-clip-18)" d="M 1444 126 L 1533 51 L 1545 9 " fill="none" id="make-me-a-hanzi-animation-18" stroke-dasharray="288 576" stroke-linecap="round"></path>

      <clipPath id="make-me-a-hanzi-clip-19">
      <path d="M 1700 178 L 1705 223 L 1708 254 L 1714 316 Q 1715 324 1717 374 L 1717 404 L 1721 501 Q 1722 534 1725 543 L 1734 562 C 1744 585 1744 585 1721 596 L 1700 606 Q 1697 606 1681 612 Q 1666 618 1652 616 Q 1630 612 1643 590 Q 1660 556 1662 495 Q 1663 479 1663 437 L 1662 349 Q 1659 261 1647 190 Q 1635 119 1604 42 Q 1585 7 1580 0 L 1535 -62 L 1524 -75 Q 1516 -84 1517 -88 Q 1517 -98 1538 -85 L 1560 -70 Q 1571 -63 1600 -34 L 1639 14 Q 1676 71 1686 114 Q 1697 157 1700 178 Z" fill="lightgray"></path>
      </clipPath>
      <path clip-path="url(#make-me-a-hanzi-clip-19)" d="M 1652 601 L 1668 592 L 1692 564 L 1691 364 L 1675 188 L 1651 91 L 1626 33 L 1581 -29 L 1525 -84 " fill="none" id="make-me-a-hanzi-animation-19" stroke-dasharray="878 1756" stroke-linecap="round"></path>

      <clipPath id="make-me-a-hanzi-clip-20">
      <path d="M 1865 238 L 1863 146 Q 1861 134 1859 64 Q 1857 -7 1845 -14 Q 1839 -19 1826 -18 L 1806 -15 L 1761 -5 Q 1760 -4 1754 -6 Q 1748 -8 1748 -11 Q 1753 -16 1756 -18 L 1802 -58 Q 1817 -75 1830 -91 Q 1843 -107 1849 -110 Q 1857 -118 1866 -116 Q 1875 -116 1890 -97 Q 1914 -68 1925 -6 Q 1929 99 1923 179 Q 1920 256 1921 275 L 1924 445 Q 1924 511 1928 527 Q 1932 542 1941 559 Q 1951 575 1950 579 Q 1949 583 1940 595 Q 1913 622 1889 629 Q 1865 635 1861 634 L 1794 612 L 1758 603 L 1721 596 C 1692 590 1705 555 1734 562 L 1770 570 L 1822 579 Q 1844 583 1851 579 Q 1868 570 1868 526 L 1866 418 L 1865 398 L 1866 264 L 1865 238 Z" fill="lightgray"></path>
      </clipPath>
      <path clip-path="url(#make-me-a-hanzi-clip-20)" d="M 1728 592 L 1748 583 L 1863 605 L 1883 596 L 1903 571 L 1895 487 L 1894 85 L 1888 -8 L 1873 -45 L 1860 -57 L 1754 -12 " fill="none" id="make-me-a-hanzi-animation-20" stroke-dasharray="1073 2146" stroke-linecap="round"></path>

      <clipPath id="make-me-a-hanzi-clip-21">
      <path d="M 1717 374 L 1732 372 Q 1752 367 1770 373 L 1865 398 C 1894 406 1895 410 1866 418 L 1833 427 Q 1806 433 1772 422 L 1717 404 C 1688 395 1687 378 1717 374 Z" fill="lightgray"></path>
      </clipPath>
      <path clip-path="url(#make-me-a-hanzi-clip-21)" d="M 1726 382 L 1736 390 L 1859 413 " fill="none" id="make-me-a-hanzi-animation-21" stroke-dasharray="266 532" stroke-linecap="round"></path>

      <clipPath id="make-me-a-hanzi-clip-22">
      <path d="M 1705 223 L 1719 220 Q 1731 217 1740 218 Q 1749 218 1799 227 L 1865 238 C 1895 243 1895 258 1866 264 L 1838 270 Q 1821 274 1811 274 Q 1801 274 1776 268 Q 1752 262 1745 261 L 1708 254 C 1679 248 1676 229 1705 223 Z" fill="lightgray"></path>
      </clipPath>
      <path clip-path="url(#make-me-a-hanzi-clip-22)" d="M 1714 230 L 1726 238 L 1809 252 L 1850 251 L 1857 258 " fill="none" id="make-me-a-hanzi-animation-22" stroke-dasharray="278 556" stroke-linecap="round"></path>

</g>
</svg>
