<svg version="1.1" viewBox="0 0 2048 1024" xmlns="http://www.w3.org/2000/svg">
  <g stroke="lightgray" stroke-dasharray="1,1" stroke-width="1" transform="scale(4, 4)">
    <line x1="0" y1="0" x2="256" y2="256"></line>
    <line x1="256" y1="0" x2="0" y2="256"></line>
    <line x1="128" y1="0" x2="128" y2="256"></line>
    <line x1="0" y1="128" x2="256" y2="128"></line>
    <line x1="256" y1="0" x2="512" y2="256"></line>
    <line x1="512" y1="0" x2="256" y2="256"></line>
    <line x1="384" y1="0" x2="384" y2="256"></line>
    <line x1="256" y1="128" x2="512" y2="128"></line>
  </g>
<g transform="scale(1, -1) translate(0, -850)">
   <style type="text/css">
    @keyframes keyframes0 {
      from {
       stroke: black;
       stroke-dashoffset: 797;
       stroke-width: 128;
       }
       72% {
       animation-timing-function: step-end;
       stroke: black;
       stroke-dashoffset: 0;
       stroke-width: 128;
       }
       to {
       stroke: black;
       stroke-width: 1024;
       }
       }
       #make-me-a-hanzi-animation-0 {
         animation: keyframes0 0.898600s both;
         animation-delay: 0.000000s;
         animation-timing-function: linear;
       }
    @keyframes keyframes1 {
      from {
       stroke: black;
       stroke-dashoffset: 800;
       stroke-width: 128;
       }
       72% {
       animation-timing-function: step-end;
       stroke: black;
       stroke-dashoffset: 0;
       stroke-width: 128;
       }
       to {
       stroke: black;
       stroke-width: 1024;
       }
       }
       #make-me-a-hanzi-animation-1 {
         animation: keyframes1 0.901042s both;
         animation-delay: 0.898600s;
         animation-timing-function: linear;
       }
    @keyframes keyframes2 {
      from {
       stroke: black;
       stroke-dashoffset: 386;
       stroke-width: 128;
       }
       56% {
       animation-timing-function: step-end;
       stroke: black;
       stroke-dashoffset: 0;
       stroke-width: 128;
       }
       to {
       stroke: black;
       stroke-width: 1024;
       }
       }
       #make-me-a-hanzi-animation-2 {
         animation: keyframes2 0.564128s both;
         animation-delay: 1.799642s;
         animation-timing-function: linear;
       }
    @keyframes keyframes3 {
      from {
       stroke: black;
       stroke-dashoffset: 699;
       stroke-width: 128;
       }
       69% {
       animation-timing-function: step-end;
       stroke: black;
       stroke-dashoffset: 0;
       stroke-width: 128;
       }
       to {
       stroke: black;
       stroke-width: 1024;
       }
       }
       #make-me-a-hanzi-animation-3 {
         animation: keyframes3 0.818848s both;
         animation-delay: 2.363770s;
         animation-timing-function: linear;
       }
    @keyframes keyframes4 {
      from {
       stroke: black;
       stroke-dashoffset: 410;
       stroke-width: 128;
       }
       57% {
       animation-timing-function: step-end;
       stroke: black;
       stroke-dashoffset: 0;
       stroke-width: 128;
       }
       to {
       stroke: black;
       stroke-width: 1024;
       }
       }
       #make-me-a-hanzi-animation-4 {
         animation: keyframes4 0.583659s both;
         animation-delay: 3.182617s;
         animation-timing-function: linear;
       }
    @keyframes keyframes5 {
      from {
       stroke: black;
       stroke-dashoffset: 564;
       stroke-width: 128;
       }
       65% {
       animation-timing-function: step-end;
       stroke: black;
       stroke-dashoffset: 0;
       stroke-width: 128;
       }
       to {
       stroke: black;
       stroke-width: 1024;
       }
       }
       #make-me-a-hanzi-animation-5 {
         animation: keyframes5 0.708984s both;
         animation-delay: 3.766276s;
         animation-timing-function: linear;
       }
    @keyframes keyframes6 {
      from {
       stroke: black;
       stroke-dashoffset: 456;
       stroke-width: 128;
       }
       60% {
       animation-timing-function: step-end;
       stroke: black;
       stroke-dashoffset: 0;
       stroke-width: 128;
       }
       to {
       stroke: black;
       stroke-width: 1024;
       }
       }
       #make-me-a-hanzi-animation-6 {
         animation: keyframes6 0.621094s both;
         animation-delay: 4.475260s;
         animation-timing-function: linear;
       }
    @keyframes keyframes7 {
      from {
       stroke: black;
       stroke-dashoffset: 405;
       stroke-width: 128;
       }
       57% {
       animation-timing-function: step-end;
       stroke: black;
       stroke-dashoffset: 0;
       stroke-width: 128;
       }
       to {
       stroke: black;
       stroke-width: 1024;
       }
       }
       #make-me-a-hanzi-animation-7 {
         animation: keyframes7 0.579590s both;
         animation-delay: 5.096354s;
         animation-timing-function: linear;
       }
    @keyframes keyframes8 {
      from {
       stroke: black;
       stroke-dashoffset: 847;
       stroke-width: 128;
       }
       73% {
       animation-timing-function: step-end;
       stroke: black;
       stroke-dashoffset: 0;
       stroke-width: 128;
       }
       to {
       stroke: black;
       stroke-width: 1024;
       }
       }
       #make-me-a-hanzi-animation-8 {
         animation: keyframes8 0.939290s both;
         animation-delay: 5.675944s;
         animation-timing-function: linear;
       }
    @keyframes keyframes9 {
      from {
       stroke: black;
       stroke-dashoffset: 605;
       stroke-width: 128;
       }
       66% {
       animation-timing-function: step-end;
       stroke: black;
       stroke-dashoffset: 0;
       stroke-width: 128;
       }
       to {
       stroke: black;
       stroke-width: 1024;
       }
       }
       #make-me-a-hanzi-animation-9 {
         animation: keyframes9 0.742350s both;
         animation-delay: 6.615234s;
         animation-timing-function: linear;
       }
    @keyframes keyframes10 {
      from {
       stroke: black;
       stroke-dashoffset: 673;
       stroke-width: 128;
       }
       69% {
       animation-timing-function: step-end;
       stroke: black;
       stroke-dashoffset: 0;
       stroke-width: 128;
       }
       to {
       stroke: black;
       stroke-width: 1024;
       }
       }
       #make-me-a-hanzi-animation-10 {
         animation: keyframes10 0.797689s both;
         animation-delay: 7.357585s;
         animation-timing-function: linear;
       }
    @keyframes keyframes11 {
      from {
       stroke: black;
       stroke-dashoffset: 530;
       stroke-width: 128;
       }
       63% {
       animation-timing-function: step-end;
       stroke: black;
       stroke-dashoffset: 0;
       stroke-width: 128;
       }
       to {
       stroke: black;
       stroke-width: 1024;
       }
       }
       #make-me-a-hanzi-animation-11 {
         animation: keyframes11 0.681315s both;
         animation-delay: 8.155273s;
         animation-timing-function: linear;
       }
    @keyframes keyframes12 {
      from {
       stroke: black;
       stroke-dashoffset: 644;
       stroke-width: 128;
       }
       68% {
       animation-timing-function: step-end;
       stroke: black;
       stroke-dashoffset: 0;
       stroke-width: 128;
       }
       to {
       stroke: black;
       stroke-width: 1024;
       }
       }
       #make-me-a-hanzi-animation-12 {
         animation: keyframes12 0.774089s both;
         animation-delay: 8.836589s;
         animation-timing-function: linear;
       }
    @keyframes keyframes13 {
      from {
       stroke: black;
       stroke-dashoffset: 458;
       stroke-width: 128;
       }
       60% {
       animation-timing-function: step-end;
       stroke: black;
       stroke-dashoffset: 0;
       stroke-width: 128;
       }
       to {
       stroke: black;
       stroke-width: 1024;
       }
       }
       #make-me-a-hanzi-animation-13 {
         animation: keyframes13 0.622721s both;
         animation-delay: 9.610677s;
         animation-timing-function: linear;
       }
    @keyframes keyframes14 {
      from {
       stroke: black;
       stroke-dashoffset: 1105;
       stroke-width: 128;
       }
       78% {
       animation-timing-function: step-end;
       stroke: black;
       stroke-dashoffset: 0;
       stroke-width: 128;
       }
       to {
       stroke: black;
       stroke-width: 1024;
       }
       }
       #make-me-a-hanzi-animation-14 {
         animation: keyframes14 1.149251s both;
         animation-delay: 10.233398s;
         animation-timing-function: linear;
       }
    @keyframes keyframes15 {
      from {
       stroke: black;
       stroke-dashoffset: 684;
       stroke-width: 128;
       }
       69% {
       animation-timing-function: step-end;
       stroke: black;
       stroke-dashoffset: 0;
       stroke-width: 128;
       }
       to {
       stroke: black;
       stroke-width: 1024;
       }
       }
       #make-me-a-hanzi-animation-15 {
         animation: keyframes15 0.806641s both;
         animation-delay: 11.382650s;
         animation-timing-function: linear;
       }
    @keyframes keyframes16 {
      from {
       stroke: black;
       stroke-dashoffset: 407;
       stroke-width: 128;
       }
       57% {
       animation-timing-function: step-end;
       stroke: black;
       stroke-dashoffset: 0;
       stroke-width: 128;
       }
       to {
       stroke: black;
       stroke-width: 1024;
       }
       }
       #make-me-a-hanzi-animation-16 {
         animation: keyframes16 0.581217s both;
         animation-delay: 12.189290s;
         animation-timing-function: linear;
       }
    @keyframes keyframes17 {
      from {
       stroke: black;
       stroke-dashoffset: 645;
       stroke-width: 128;
       }
       68% {
       animation-timing-function: step-end;
       stroke: black;
       stroke-dashoffset: 0;
       stroke-width: 128;
       }
       to {
       stroke: black;
       stroke-width: 1024;
       }
       }
       #make-me-a-hanzi-animation-17 {
         animation: keyframes17 0.774902s both;
         animation-delay: 12.770508s;
         animation-timing-function: linear;
       }
    @keyframes keyframes18 {
      from {
       stroke: black;
       stroke-dashoffset: 893;
       stroke-width: 128;
       }
       74% {
       animation-timing-function: step-end;
       stroke: black;
       stroke-dashoffset: 0;
       stroke-width: 128;
       }
       to {
       stroke: black;
       stroke-width: 1024;
       }
       }
       #make-me-a-hanzi-animation-18 {
         animation: keyframes18 0.976725s both;
         animation-delay: 13.545410s;
         animation-timing-function: linear;
       }
    @keyframes keyframes19 {
      from {
       stroke: black;
       stroke-dashoffset: 920;
       stroke-width: 128;
       }
       75% {
       animation-timing-function: step-end;
       stroke: black;
       stroke-dashoffset: 0;
       stroke-width: 128;
       }
       to {
       stroke: black;
       stroke-width: 1024;
       }
       }
       #make-me-a-hanzi-animation-19 {
         animation: keyframes19 0.998698s both;
         animation-delay: 14.522135s;
         animation-timing-function: linear;
       }
    @keyframes keyframes20 {
      from {
       stroke: black;
       stroke-dashoffset: 492;
       stroke-width: 128;
       }
       62% {
       animation-timing-function: step-end;
       stroke: black;
       stroke-dashoffset: 0;
       stroke-width: 128;
       }
       to {
       stroke: black;
       stroke-width: 1024;
       }
       }
       #make-me-a-hanzi-animation-20 {
         animation: keyframes20 0.650391s both;
         animation-delay: 15.520833s;
         animation-timing-function: linear;
       }
</style>
<path d="M 258 434 L 277 463 L 352 594 Q 363 615 381 632 Q 383 640 378 650 Q 373 659 367 663 Q 362 666 349 677 Q 337 688 324 694 Q 305 699 302 692 L 299 683 Q 299 670 298 663 L 295 637 Q 295 629 281 592 Q 261 531 218 461 Q 175 391 166 378 Q 163 372 129 330 L 94 287 L 71 262 L 54 248 Q 50 244 51 240 Q 52 235 63 240 L 81 248 Q 92 252 113 271 Q 151 299 192 347 L 239 404 L 258 434 Z" fill="lightgray"></path> 
<path d="M 248 321 L 247 252 L 243 162 Q 241 92 234 62 L 226 20 L 212 -38 Q 209 -59 226 -92 Q 244 -126 251 -124 Q 285 -118 285 12 L 290 271 Q 290 300 293 322 Q 294 347 296 356 L 302 394 Q 302 398 293 407 Q 287 417 279 421 L 258 434 C 232 450 230 432 239 404 L 245 386 Q 248 364 248 321 Z" fill="lightgray"></path> 
<path d="M 655 603 L 664 620 Q 666 624 668 634 Q 674 675 616 696 Q 595 704 584 706 L 558 712 Q 551 713 548 706 Q 546 700 556 685 L 574 659 L 612 610 Q 615 605 628 600 C 649 591 649 591 655 603 Z" fill="lightgray"></path> 
<path d="M 424 568 L 409 566 Q 397 564 395 558 Q 393 551 407 544 Q 421 536 439 536 Q 457 536 493 538 L 814 584 Q 852 589 852 599 Q 852 613 831 621 L 806 629 Q 794 631 787 631 L 655 603 L 628 600 L 573 590 L 445 571 Q 436 569 424 568 Z" fill="lightgray"></path> 
<path d="M 521 480 L 511 486 Q 501 493 487 493 Q 474 492 472 488 Q 470 481 474 476 L 486 464 Q 495 448 498 430 L 512 374 Q 516 345 527 340 L 533 338 Q 535 336 540 338 Q 545 339 549 356 L 546 388 L 531 453 C 525 477 525 477 521 480 Z" fill="lightgray"></path> 
<path d="M 739 398 L 771 445 Q 774 449 783 456 Q 793 462 796 466 Q 799 469 797 478 Q 796 486 779 496 L 748 514 Q 735 521 726 521 Q 725 520 711 517 Q 696 511 684 510 L 521 480 C 491 475 502 444 531 453 L 550 459 Q 574 465 615 471 L 668 478 L 696 480 Q 708 480 708 476 Q 715 470 705 433 L 697 408 C 688 379 722 373 739 398 Z" fill="lightgray"></path> 
<path d="M 611 362 L 633 366 L 683 370 L 727 372 Q 752 372 754 375 Q 756 377 754 386 Q 752 392 739 398 L 697 408 L 546 388 C 516 384 519 354 549 356 L 579 358 Q 590 358 611 362 Z" fill="lightgray"></path> 
<path d="M 427 291 L 412 314 Q 393 324 392 304 L 384 272 Q 380 251 371 237 L 344 198 Q 337 187 337 176 Q 338 164 346 156 Q 355 148 362 149 Q 370 150 380 153 Q 392 160 412 193 Q 418 206 428 255 C 433 281 433 281 427 291 Z" fill="lightgray"></path> 
<path d="M 835 336 L 802 328 L 617 306 Q 529 296 427 291 C 397 289 398 260 428 255 L 439 252 Q 444 250 457 254 Q 471 257 484 258 Q 497 258 626 279 L 763 294 Q 792 298 813 298 L 832 298 Q 846 298 849 292 Q 852 285 845 269 Q 839 252 829 238 L 810 206 Q 812 204 817 204 L 831 210 L 850 216 Q 907 234 937 237 Q 967 240 969 251 Q 971 261 960 278 Q 950 295 917 317 Q 885 339 874 341 Q 863 342 835 336 Z" fill="lightgray"></path> 
<path d="M 642 164 L 691 168 Q 697 170 712 170 L 781 172 Q 816 172 799 193 Q 766 218 739 218 L 710 212 Q 691 206 635 198 L 559 186 Q 529 180 502 178 L 453 172 Q 423 170 442 154 Q 452 146 485 138 Q 493 137 526 145 Q 559 152 596 156 L 642 164 Z" fill="lightgray"></path> 
<path d="M 613 83 L 615 58 L 615 -2 Q 615 -78 603 -82 Q 599 -84 587 -83 L 567 -81 Q 554 -80 533 -74 L 512 -68 Q 506 -65 504 -72 Q 501 -75 506 -80 L 549 -119 Q 566 -135 581 -153 Q 596 -172 604 -174 Q 620 -181 637 -163 Q 655 -146 661 -128 Q 668 -93 667 -31 L 663 97 L 668 126 Q 672 138 671 144 Q 669 152 642 164 C 615 177 585 184 596 156 L 607 129 Q 613 98 613 83 Z" fill="lightgray"></path> 
<path d="M 1333 458 Q 1436 489 1441 493 Q 1450 502 1444 510 Q 1437 522 1406 527 Q 1387 530 1336 513 L 1285 494 Q 1276 493 1270 489 Q 1227 477 1175 469 Q 1138 460 1166 445 Q 1208 423 1276 444 Q 1280 445 1285 446 L 1333 458 Z" fill="lightgray"></path> 
<path d="M 1323 235 Q 1324 238 1328 238 Q 1376 257 1393 256 C 1423 259 1421 297 1392 290 Q 1356 281 1324 270 L 1281 256 Q 1238 243 1205 227 Q 1192 223 1194 239 Q 1201 320 1193 330 Q 1180 345 1158 356 Q 1148 360 1139 358 Q 1130 354 1137 338 Q 1156 299 1152 259 Q 1148 222 1134 204 Q 1119 188 1127 176 Q 1137 164 1154 156 Q 1166 150 1174 158 Q 1192 185 1279 218 C 1307 229 1322 235 1323 235 Z" fill="lightgray"></path> 
<path d="M 1393 256 Q 1397 238 1405 225 Q 1412 212 1423 221 Q 1445 245 1449 318 Q 1462 366 1467 371 Q 1474 384 1465 397 Q 1449 410 1420 427 Q 1408 434 1397 428 Q 1390 425 1393 413 Q 1400 406 1407 351 Q 1403 317 1394 295 Q 1393 294 1392 290 L 1393 256 Z" fill="lightgray"></path> 
<path d="M 1279 218 Q 1269 82 1241 47 Q 1228 28 1238 6 Q 1251 -15 1270 -23 Q 1280 -30 1294 -13 Q 1316 18 1425 115 Q 1453 134 1456 145 Q 1459 152 1453 154 Q 1450 154 1338 93 Q 1317 77 1316 103 Q 1319 169 1323 235 L 1324 270 Q 1328 363 1333 458 L 1336 513 Q 1336 612 1346 644 Q 1353 663 1338 678 Q 1314 697 1288 704 Q 1257 711 1247 698 Q 1240 686 1253 673 Q 1281 648 1285 494 L 1285 446 Q 1285 373 1281 256 L 1279 218 Z" fill="lightgray"></path> 
<path d="M 1655 598 Q 1703 614 1860 620 Q 1908 624 1913 631 Q 1917 641 1902 653 Q 1845 687 1788 666 Q 1710 648 1486 603 Q 1467 599 1482 585 Q 1495 573 1512 570 Q 1531 566 1545 571 Q 1576 581 1612 588 L 1655 598 Z" fill="lightgray"></path> 
<path d="M 1621 456 Q 1634 471 1664 531 Q 1668 541 1678 554 Q 1691 567 1682 576 Q 1673 588 1655 598 C 1629 613 1602 616 1612 588 Q 1621 570 1608 487 Q 1604 472 1603 452 C 1602 432 1602 432 1621 456 Z" fill="lightgray"></path> 
<path d="M 1558 446 Q 1539 462 1513 470 Q 1506 471 1499 464 Q 1496 460 1503 449 Q 1537 365 1516 209 Q 1501 131 1501 127 Q 1501 124 1502 120 Q 1511 89 1522 78 Q 1532 65 1541 78 Q 1565 106 1566 258 Q 1566 387 1571 419 C 1573 435 1573 435 1558 446 Z" fill="lightgray"></path> 
<path d="M 1777 137 Q 1770 112 1785 89 Q 1800 58 1810 60 Q 1825 61 1841 97 Q 1857 125 1854 147 Q 1821 363 1853 428 Q 1862 458 1862 460 Q 1832 484 1782 505 Q 1766 509 1743 500 Q 1701 479 1648 463 Q 1633 460 1621 456 L 1603 452 Q 1578 449 1558 446 C 1528 442 1542 413 1571 419 L 1747 457 Q 1754 457 1760 454 Q 1772 430 1778 367 Q 1785 174 1777 137 Z" fill="lightgray"></path> 
<path d="M 1641 316 Q 1641 60 1559 -33 L 1527 -61 Q 1490 -92 1408 -130 Q 1398 -134 1394 -137 Q 1390 -141 1403 -144 Q 1452 -148 1553 -91 Q 1670 -19 1685 230 Q 1685 288 1702 342 Q 1706 352 1699 359 Q 1683 372 1653 385 Q 1634 394 1620 388 Q 1604 382 1617 367 Q 1641 342 1641 316 Z" fill="lightgray"></path> 
<path d="M 1712 17 Q 1767 -41 1832 -123 Q 1848 -145 1863 -151 Q 1873 -154 1881 -143 Q 1896 -130 1885 -83 Q 1873 -26 1715 49 Q 1706 56 1703 42 Q 1702 29 1712 17 Z" fill="lightgray"></path> 
      <clipPath id="make-me-a-hanzi-clip-0">
      <path d="M 258 434 L 277 463 L 352 594 Q 363 615 381 632 Q 383 640 378 650 Q 373 659 367 663 Q 362 666 349 677 Q 337 688 324 694 Q 305 699 302 692 L 299 683 Q 299 670 298 663 L 295 637 Q 295 629 281 592 Q 261 531 218 461 Q 175 391 166 378 Q 163 372 129 330 L 94 287 L 71 262 L 54 248 Q 50 244 51 240 Q 52 235 63 240 L 81 248 Q 92 252 113 271 Q 151 299 192 347 L 239 404 L 258 434 Z" fill="lightgray"></path>
      </clipPath>
      <path clip-path="url(#make-me-a-hanzi-clip-0)" d="M 311 684 L 334 637 L 267 495 L 172 352 L 89 264 L 57 242 " fill="none" id="make-me-a-hanzi-animation-0" stroke-dasharray="669 1338" stroke-linecap="round"></path>

      <clipPath id="make-me-a-hanzi-clip-1">
      <path d="M 248 321 L 247 252 L 243 162 Q 241 92 234 62 L 226 20 L 212 -38 Q 209 -59 226 -92 Q 244 -126 251 -124 Q 285 -118 285 12 L 290 271 Q 290 300 293 322 Q 294 347 296 356 L 302 394 Q 302 398 293 407 Q 287 417 279 421 L 258 434 C 232 450 230 432 239 404 L 245 386 Q 248 364 248 321 Z" fill="lightgray"></path>
      </clipPath>
      <path clip-path="url(#make-me-a-hanzi-clip-1)" d="M 260 426 L 273 366 L 263 81 L 247 -50 L 252 -115 " fill="none" id="make-me-a-hanzi-animation-1" stroke-dasharray="672 1344" stroke-linecap="round"></path>

      <clipPath id="make-me-a-hanzi-clip-2">
      <path d="M 655 603 L 664 620 Q 666 624 668 634 Q 674 675 616 696 Q 595 704 584 706 L 558 712 Q 551 713 548 706 Q 546 700 556 685 L 574 659 L 612 610 Q 615 605 628 600 C 649 591 649 591 655 603 Z" fill="lightgray"></path>
      </clipPath>
      <path clip-path="url(#make-me-a-hanzi-clip-2)" d="M 557 703 L 628 649 L 647 613 " fill="none" id="make-me-a-hanzi-animation-2" stroke-dasharray="258 516" stroke-linecap="round"></path>

      <clipPath id="make-me-a-hanzi-clip-3">
      <path d="M 424 568 L 409 566 Q 397 564 395 558 Q 393 551 407 544 Q 421 536 439 536 Q 457 536 493 538 L 814 584 Q 852 589 852 599 Q 852 613 831 621 L 806 629 Q 794 631 787 631 L 655 603 L 628 600 L 573 590 L 445 571 Q 436 569 424 568 Z" fill="lightgray"></path>
      </clipPath>
      <path clip-path="url(#make-me-a-hanzi-clip-3)" d="M 402 556 L 468 555 L 790 606 L 841 602 " fill="none" id="make-me-a-hanzi-animation-3" stroke-dasharray="571 1142" stroke-linecap="round"></path>

      <clipPath id="make-me-a-hanzi-clip-4">
      <path d="M 521 480 L 511 486 Q 501 493 487 493 Q 474 492 472 488 Q 470 481 474 476 L 486 464 Q 495 448 498 430 L 512 374 Q 516 345 527 340 L 533 338 Q 535 336 540 338 Q 545 339 549 356 L 546 388 L 531 453 C 525 477 525 477 521 480 Z" fill="lightgray"></path>
      </clipPath>
      <path clip-path="url(#make-me-a-hanzi-clip-4)" d="M 482 483 L 506 467 L 537 346 " fill="none" id="make-me-a-hanzi-animation-4" stroke-dasharray="282 564" stroke-linecap="round"></path>

      <clipPath id="make-me-a-hanzi-clip-5">
      <path d="M 739 398 L 771 445 Q 774 449 783 456 Q 793 462 796 466 Q 799 469 797 478 Q 796 486 779 496 L 748 514 Q 735 521 726 521 Q 725 520 711 517 Q 696 511 684 510 L 521 480 C 491 475 502 444 531 453 L 550 459 Q 574 465 615 471 L 668 478 L 696 480 Q 708 480 708 476 Q 715 470 705 433 L 697 408 C 688 379 722 373 739 398 Z" fill="lightgray"></path>
      </clipPath>
      <path clip-path="url(#make-me-a-hanzi-clip-5)" d="M 529 475 L 541 470 L 664 493 L 727 495 L 747 472 L 731 430 L 705 412 " fill="none" id="make-me-a-hanzi-animation-5" stroke-dasharray="436 872" stroke-linecap="round"></path>

      <clipPath id="make-me-a-hanzi-clip-6">
      <path d="M 611 362 L 633 366 L 683 370 L 727 372 Q 752 372 754 375 Q 756 377 754 386 Q 752 392 739 398 L 697 408 L 546 388 C 516 384 519 354 549 356 L 579 358 Q 590 358 611 362 Z" fill="lightgray"></path>
      </clipPath>
      <path clip-path="url(#make-me-a-hanzi-clip-6)" d="M 556 362 L 563 373 L 646 385 L 700 389 L 748 381 " fill="none" id="make-me-a-hanzi-animation-6" stroke-dasharray="328 656" stroke-linecap="round"></path>

      <clipPath id="make-me-a-hanzi-clip-7">
      <path d="M 427 291 L 412 314 Q 393 324 392 304 L 384 272 Q 380 251 371 237 L 344 198 Q 337 187 337 176 Q 338 164 346 156 Q 355 148 362 149 Q 370 150 380 153 Q 392 160 412 193 Q 418 206 428 255 C 433 281 433 281 427 291 Z" fill="lightgray"></path>
      </clipPath>
      <path clip-path="url(#make-me-a-hanzi-clip-7)" d="M 403 307 L 408 287 L 404 251 L 394 222 L 362 170 " fill="none" id="make-me-a-hanzi-animation-7" stroke-dasharray="277 554" stroke-linecap="round"></path>

      <clipPath id="make-me-a-hanzi-clip-8">
      <path d="M 835 336 L 802 328 L 617 306 Q 529 296 427 291 C 397 289 398 260 428 255 L 439 252 Q 444 250 457 254 Q 471 257 484 258 Q 497 258 626 279 L 763 294 Q 792 298 813 298 L 832 298 Q 846 298 849 292 Q 852 285 845 269 Q 839 252 829 238 L 810 206 Q 812 204 817 204 L 831 210 L 850 216 Q 907 234 937 237 Q 967 240 969 251 Q 971 261 960 278 Q 950 295 917 317 Q 885 339 874 341 Q 863 342 835 336 Z" fill="lightgray"></path>
      </clipPath>
      <path clip-path="url(#make-me-a-hanzi-clip-8)" d="M 436 285 L 447 272 L 822 316 L 847 318 L 872 310 L 895 276 L 815 210 " fill="none" id="make-me-a-hanzi-animation-8" stroke-dasharray="719 1438" stroke-linecap="round"></path>

      <clipPath id="make-me-a-hanzi-clip-9">
      <path d="M 642 164 L 691 168 Q 697 170 712 170 L 781 172 Q 816 172 799 193 Q 766 218 739 218 L 710 212 Q 691 206 635 198 L 559 186 Q 529 180 502 178 L 453 172 Q 423 170 442 154 Q 452 146 485 138 Q 493 137 526 145 Q 559 152 596 156 L 642 164 Z" fill="lightgray"></path>
      </clipPath>
      <path clip-path="url(#make-me-a-hanzi-clip-9)" d="M 446 164 L 480 156 L 736 194 L 790 182 " fill="none" id="make-me-a-hanzi-animation-9" stroke-dasharray="477 954" stroke-linecap="round"></path>

      <clipPath id="make-me-a-hanzi-clip-10">
      <path d="M 613 83 L 615 58 L 615 -2 Q 615 -78 603 -82 Q 599 -84 587 -83 L 567 -81 Q 554 -80 533 -74 L 512 -68 Q 506 -65 504 -72 Q 501 -75 506 -80 L 549 -119 Q 566 -135 581 -153 Q 596 -172 604 -174 Q 620 -181 637 -163 Q 655 -146 661 -128 Q 668 -93 667 -31 L 663 97 L 668 126 Q 672 138 671 144 Q 669 152 642 164 C 615 177 585 184 596 156 L 607 129 Q 613 98 613 83 Z" fill="lightgray"></path>
      </clipPath>
      <path clip-path="url(#make-me-a-hanzi-clip-10)" d="M 605 152 L 638 132 L 641 -40 L 629 -107 L 614 -124 L 605 -122 L 510 -75 " fill="none" id="make-me-a-hanzi-animation-10" stroke-dasharray="545 1090" stroke-linecap="round"></path>

      <clipPath id="make-me-a-hanzi-clip-11">
      <path d="M 1333 458 Q 1436 489 1441 493 Q 1450 502 1444 510 Q 1437 522 1406 527 Q 1387 530 1336 513 L 1285 494 Q 1276 493 1270 489 Q 1227 477 1175 469 Q 1138 460 1166 445 Q 1208 423 1276 444 Q 1280 445 1285 446 L 1333 458 Z" fill="lightgray"></path>
      </clipPath>
      <path clip-path="url(#make-me-a-hanzi-clip-11)" d="M 1167 458 L 1229 456 L 1400 504 L 1434 503 " fill="none" id="make-me-a-hanzi-animation-11" stroke-dasharray="402 804" stroke-linecap="round"></path>

      <clipPath id="make-me-a-hanzi-clip-12">
      <path d="M 1323 235 Q 1324 238 1328 238 Q 1376 257 1393 256 C 1423 259 1421 297 1392 290 Q 1356 281 1324 270 L 1281 256 Q 1238 243 1205 227 Q 1192 223 1194 239 Q 1201 320 1193 330 Q 1180 345 1158 356 Q 1148 360 1139 358 Q 1130 354 1137 338 Q 1156 299 1152 259 Q 1148 222 1134 204 Q 1119 188 1127 176 Q 1137 164 1154 156 Q 1166 150 1174 158 Q 1192 185 1279 218 C 1307 229 1322 235 1323 235 Z" fill="lightgray"></path>
      </clipPath>
      <path clip-path="url(#make-me-a-hanzi-clip-12)" d="M 1144 349 L 1171 318 L 1176 276 L 1173 203 L 1208 207 L 1375 270 L 1386 284 " fill="none" id="make-me-a-hanzi-animation-12" stroke-dasharray="516 1032" stroke-linecap="round"></path>

      <clipPath id="make-me-a-hanzi-clip-13">
      <path d="M 1393 256 Q 1397 238 1405 225 Q 1412 212 1423 221 Q 1445 245 1449 318 Q 1462 366 1467 371 Q 1474 384 1465 397 Q 1449 410 1420 427 Q 1408 434 1397 428 Q 1390 425 1393 413 Q 1400 406 1407 351 Q 1403 317 1394 295 Q 1393 294 1392 290 L 1393 256 Z" fill="lightgray"></path>
      </clipPath>
      <path clip-path="url(#make-me-a-hanzi-clip-13)" d="M 1405 418 L 1435 380 L 1415 228 " fill="none" id="make-me-a-hanzi-animation-13" stroke-dasharray="330 660" stroke-linecap="round"></path>

      <clipPath id="make-me-a-hanzi-clip-14">
      <path d="M 1279 218 Q 1269 82 1241 47 Q 1228 28 1238 6 Q 1251 -15 1270 -23 Q 1280 -30 1294 -13 Q 1316 18 1425 115 Q 1453 134 1456 145 Q 1459 152 1453 154 Q 1450 154 1338 93 Q 1317 77 1316 103 Q 1319 169 1323 235 L 1324 270 Q 1328 363 1333 458 L 1336 513 Q 1336 612 1346 644 Q 1353 663 1338 678 Q 1314 697 1288 704 Q 1257 711 1247 698 Q 1240 686 1253 673 Q 1281 648 1285 494 L 1285 446 Q 1285 373 1281 256 L 1279 218 Z" fill="lightgray"></path>
      </clipPath>
      <path clip-path="url(#make-me-a-hanzi-clip-14)" d="M 1260 690 L 1294 668 L 1307 650 L 1308 638 L 1309 420 L 1302 229 L 1289 102 L 1294 53 L 1340 68 L 1454 149 " fill="none" id="make-me-a-hanzi-animation-14" stroke-dasharray="977 1954" stroke-linecap="round"></path>

      <clipPath id="make-me-a-hanzi-clip-15">
      <path d="M 1655 598 Q 1703 614 1860 620 Q 1908 624 1913 631 Q 1917 641 1902 653 Q 1845 687 1788 666 Q 1710 648 1486 603 Q 1467 599 1482 585 Q 1495 573 1512 570 Q 1531 566 1545 571 Q 1576 581 1612 588 L 1655 598 Z" fill="lightgray"></path>
      </clipPath>
      <path clip-path="url(#make-me-a-hanzi-clip-15)" d="M 1484 594 L 1529 590 L 1669 622 L 1814 646 L 1906 636 " fill="none" id="make-me-a-hanzi-animation-15" stroke-dasharray="556 1112" stroke-linecap="round"></path>

      <clipPath id="make-me-a-hanzi-clip-16">
      <path d="M 1621 456 Q 1634 471 1664 531 Q 1668 541 1678 554 Q 1691 567 1682 576 Q 1673 588 1655 598 C 1629 613 1602 616 1612 588 Q 1621 570 1608 487 Q 1604 472 1603 452 C 1602 432 1602 432 1621 456 Z" fill="lightgray"></path>
      </clipPath>
      <path clip-path="url(#make-me-a-hanzi-clip-16)" d="M 1620 587 L 1647 564 L 1619 473 L 1606 458 " fill="none" id="make-me-a-hanzi-animation-16" stroke-dasharray="279 558" stroke-linecap="round"></path>

      <clipPath id="make-me-a-hanzi-clip-17">
      <path d="M 1558 446 Q 1539 462 1513 470 Q 1506 471 1499 464 Q 1496 460 1503 449 Q 1537 365 1516 209 Q 1501 131 1501 127 Q 1501 124 1502 120 Q 1511 89 1522 78 Q 1532 65 1541 78 Q 1565 106 1566 258 Q 1566 387 1571 419 C 1573 435 1573 435 1558 446 Z" fill="lightgray"></path>
      </clipPath>
      <path clip-path="url(#make-me-a-hanzi-clip-17)" d="M 1510 459 L 1538 428 L 1545 377 L 1545 246 L 1529 127 L 1532 82 " fill="none" id="make-me-a-hanzi-animation-17" stroke-dasharray="517 1034" stroke-linecap="round"></path>

      <clipPath id="make-me-a-hanzi-clip-18">
      <path d="M 1777 137 Q 1770 112 1785 89 Q 1800 58 1810 60 Q 1825 61 1841 97 Q 1857 125 1854 147 Q 1821 363 1853 428 Q 1862 458 1862 460 Q 1832 484 1782 505 Q 1766 509 1743 500 Q 1701 479 1648 463 Q 1633 460 1621 456 L 1603 452 Q 1578 449 1558 446 C 1528 442 1542 413 1571 419 L 1747 457 Q 1754 457 1760 454 Q 1772 430 1778 367 Q 1785 174 1777 137 Z" fill="lightgray"></path>
      </clipPath>
      <path clip-path="url(#make-me-a-hanzi-clip-18)" d="M 1566 441 L 1605 438 L 1746 479 L 1767 480 L 1779 476 L 1811 442 L 1807 331 L 1817 151 L 1810 72 " fill="none" id="make-me-a-hanzi-animation-18" stroke-dasharray="765 1530" stroke-linecap="round"></path>

      <clipPath id="make-me-a-hanzi-clip-19">
      <path d="M 1641 316 Q 1641 60 1559 -33 L 1527 -61 Q 1490 -92 1408 -130 Q 1398 -134 1394 -137 Q 1390 -141 1403 -144 Q 1452 -148 1553 -91 Q 1670 -19 1685 230 Q 1685 288 1702 342 Q 1706 352 1699 359 Q 1683 372 1653 385 Q 1634 394 1620 388 Q 1604 382 1617 367 Q 1641 342 1641 316 Z" fill="lightgray"></path>
      </clipPath>
      <path clip-path="url(#make-me-a-hanzi-clip-19)" d="M 1622 377 L 1641 369 L 1669 342 L 1656 158 L 1627 41 L 1594 -23 L 1535 -81 L 1454 -123 L 1402 -136 " fill="none" id="make-me-a-hanzi-animation-19" stroke-dasharray="792 1584" stroke-linecap="round"></path>

      <clipPath id="make-me-a-hanzi-clip-20">
      <path d="M 1712 17 Q 1767 -41 1832 -123 Q 1848 -145 1863 -151 Q 1873 -154 1881 -143 Q 1896 -130 1885 -83 Q 1873 -26 1715 49 Q 1706 56 1703 42 Q 1702 29 1712 17 Z" fill="lightgray"></path>
      </clipPath>
      <path clip-path="url(#make-me-a-hanzi-clip-20)" d="M 1714 37 L 1829 -61 L 1856 -99 L 1867 -136 " fill="none" id="make-me-a-hanzi-animation-20" stroke-dasharray="364 728" stroke-linecap="round"></path>

</g>
</svg>
