<svg version="1.1" viewBox="0 0 2048 1024" xmlns="http://www.w3.org/2000/svg">
  <g stroke="lightgray" stroke-dasharray="1,1" stroke-width="1" transform="scale(4, 4)">
    <line x1="0" y1="0" x2="256" y2="256"></line>
    <line x1="256" y1="0" x2="0" y2="256"></line>
    <line x1="128" y1="0" x2="128" y2="256"></line>
    <line x1="0" y1="128" x2="256" y2="128"></line>
    <line x1="256" y1="0" x2="512" y2="256"></line>
    <line x1="512" y1="0" x2="256" y2="256"></line>
    <line x1="384" y1="0" x2="384" y2="256"></line>
    <line x1="256" y1="128" x2="512" y2="128"></line>
  </g>
<g transform="scale(1, -1) translate(0, -850)">
   <style type="text/css">
    @keyframes keyframes0 {
      from {
       stroke: black;
       stroke-dashoffset: 549;
       stroke-width: 128;
       }
       64% {
       animation-timing-function: step-end;
       stroke: black;
       stroke-dashoffset: 0;
       stroke-width: 128;
       }
       to {
       stroke: black;
       stroke-width: 1024;
       }
       }
       #make-me-a-hanzi-animation-0 {
         animation: keyframes0 0.696777s both;
         animation-delay: 0.000000s;
         animation-timing-function: linear;
       }
    @keyframes keyframes1 {
      from {
       stroke: black;
       stroke-dashoffset: 668;
       stroke-width: 128;
       }
       68% {
       animation-timing-function: step-end;
       stroke: black;
       stroke-dashoffset: 0;
       stroke-width: 128;
       }
       to {
       stroke: black;
       stroke-width: 1024;
       }
       }
       #make-me-a-hanzi-animation-1 {
         animation: keyframes1 0.793620s both;
         animation-delay: 0.696777s;
         animation-timing-function: linear;
       }
    @keyframes keyframes2 {
      from {
       stroke: black;
       stroke-dashoffset: 512;
       stroke-width: 128;
       }
       63% {
       animation-timing-function: step-end;
       stroke: black;
       stroke-dashoffset: 0;
       stroke-width: 128;
       }
       to {
       stroke: black;
       stroke-width: 1024;
       }
       }
       #make-me-a-hanzi-animation-2 {
         animation: keyframes2 0.666667s both;
         animation-delay: 1.490397s;
         animation-timing-function: linear;
       }
    @keyframes keyframes3 {
      from {
       stroke: black;
       stroke-dashoffset: 835;
       stroke-width: 128;
       }
       73% {
       animation-timing-function: step-end;
       stroke: black;
       stroke-dashoffset: 0;
       stroke-width: 128;
       }
       to {
       stroke: black;
       stroke-width: 1024;
       }
       }
       #make-me-a-hanzi-animation-3 {
         animation: keyframes3 0.929525s both;
         animation-delay: 2.157064s;
         animation-timing-function: linear;
       }
    @keyframes keyframes4 {
      from {
       stroke: black;
       stroke-dashoffset: 657;
       stroke-width: 128;
       }
       68% {
       animation-timing-function: step-end;
       stroke: black;
       stroke-dashoffset: 0;
       stroke-width: 128;
       }
       to {
       stroke: black;
       stroke-width: 1024;
       }
       }
       #make-me-a-hanzi-animation-4 {
         animation: keyframes4 0.784668s both;
         animation-delay: 3.086589s;
         animation-timing-function: linear;
       }
    @keyframes keyframes5 {
      from {
       stroke: black;
       stroke-dashoffset: 926;
       stroke-width: 128;
       }
       75% {
       animation-timing-function: step-end;
       stroke: black;
       stroke-dashoffset: 0;
       stroke-width: 128;
       }
       to {
       stroke: black;
       stroke-width: 1024;
       }
       }
       #make-me-a-hanzi-animation-5 {
         animation: keyframes5 1.003581s both;
         animation-delay: 3.871257s;
         animation-timing-function: linear;
       }
    @keyframes keyframes6 {
      from {
       stroke: black;
       stroke-dashoffset: 1066;
       stroke-width: 128;
       }
       78% {
       animation-timing-function: step-end;
       stroke: black;
       stroke-dashoffset: 0;
       stroke-width: 128;
       }
       to {
       stroke: black;
       stroke-width: 1024;
       }
       }
       #make-me-a-hanzi-animation-6 {
         animation: keyframes6 1.117513s both;
         animation-delay: 4.874837s;
         animation-timing-function: linear;
       }
    @keyframes keyframes7 {
      from {
       stroke: black;
       stroke-dashoffset: 621;
       stroke-width: 128;
       }
       67% {
       animation-timing-function: step-end;
       stroke: black;
       stroke-dashoffset: 0;
       stroke-width: 128;
       }
       to {
       stroke: black;
       stroke-width: 1024;
       }
       }
       #make-me-a-hanzi-animation-7 {
         animation: keyframes7 0.755371s both;
         animation-delay: 5.992350s;
         animation-timing-function: linear;
       }
    @keyframes keyframes8 {
      from {
       stroke: black;
       stroke-dashoffset: 670;
       stroke-width: 128;
       }
       69% {
       animation-timing-function: step-end;
       stroke: black;
       stroke-dashoffset: 0;
       stroke-width: 128;
       }
       to {
       stroke: black;
       stroke-width: 1024;
       }
       }
       #make-me-a-hanzi-animation-8 {
         animation: keyframes8 0.795247s both;
         animation-delay: 6.747721s;
         animation-timing-function: linear;
       }
    @keyframes keyframes9 {
      from {
       stroke: black;
       stroke-dashoffset: 940;
       stroke-width: 128;
       }
       75% {
       animation-timing-function: step-end;
       stroke: black;
       stroke-dashoffset: 0;
       stroke-width: 128;
       }
       to {
       stroke: black;
       stroke-width: 1024;
       }
       }
       #make-me-a-hanzi-animation-9 {
         animation: keyframes9 1.014974s both;
         animation-delay: 7.542969s;
         animation-timing-function: linear;
       }
    @keyframes keyframes10 {
      from {
       stroke: black;
       stroke-dashoffset: 377;
       stroke-width: 128;
       }
       55% {
       animation-timing-function: step-end;
       stroke: black;
       stroke-dashoffset: 0;
       stroke-width: 128;
       }
       to {
       stroke: black;
       stroke-width: 1024;
       }
       }
       #make-me-a-hanzi-animation-10 {
         animation: keyframes10 0.556803s both;
         animation-delay: 8.557943s;
         animation-timing-function: linear;
       }
    @keyframes keyframes11 {
      from {
       stroke: black;
       stroke-dashoffset: 375;
       stroke-width: 128;
       }
       55% {
       animation-timing-function: step-end;
       stroke: black;
       stroke-dashoffset: 0;
       stroke-width: 128;
       }
       to {
       stroke: black;
       stroke-width: 1024;
       }
       }
       #make-me-a-hanzi-animation-11 {
         animation: keyframes11 0.555176s both;
         animation-delay: 9.114746s;
         animation-timing-function: linear;
       }
    @keyframes keyframes12 {
      from {
       stroke: black;
       stroke-dashoffset: 684;
       stroke-width: 128;
       }
       69% {
       animation-timing-function: step-end;
       stroke: black;
       stroke-dashoffset: 0;
       stroke-width: 128;
       }
       to {
       stroke: black;
       stroke-width: 1024;
       }
       }
       #make-me-a-hanzi-animation-12 {
         animation: keyframes12 0.806641s both;
         animation-delay: 9.669922s;
         animation-timing-function: linear;
       }
    @keyframes keyframes13 {
      from {
       stroke: black;
       stroke-dashoffset: 553;
       stroke-width: 128;
       }
       64% {
       animation-timing-function: step-end;
       stroke: black;
       stroke-dashoffset: 0;
       stroke-width: 128;
       }
       to {
       stroke: black;
       stroke-width: 1024;
       }
       }
       #make-me-a-hanzi-animation-13 {
         animation: keyframes13 0.700033s both;
         animation-delay: 10.476562s;
         animation-timing-function: linear;
       }
    @keyframes keyframes14 {
      from {
       stroke: black;
       stroke-dashoffset: 728;
       stroke-width: 128;
       }
       70% {
       animation-timing-function: step-end;
       stroke: black;
       stroke-dashoffset: 0;
       stroke-width: 128;
       }
       to {
       stroke: black;
       stroke-width: 1024;
       }
       }
       #make-me-a-hanzi-animation-14 {
         animation: keyframes14 0.842448s both;
         animation-delay: 11.176595s;
         animation-timing-function: linear;
       }
    @keyframes keyframes15 {
      from {
       stroke: black;
       stroke-dashoffset: 496;
       stroke-width: 128;
       }
       62% {
       animation-timing-function: step-end;
       stroke: black;
       stroke-dashoffset: 0;
       stroke-width: 128;
       }
       to {
       stroke: black;
       stroke-width: 1024;
       }
       }
       #make-me-a-hanzi-animation-15 {
         animation: keyframes15 0.653646s both;
         animation-delay: 12.019043s;
         animation-timing-function: linear;
       }
    @keyframes keyframes16 {
      from {
       stroke: black;
       stroke-dashoffset: 551;
       stroke-width: 128;
       }
       64% {
       animation-timing-function: step-end;
       stroke: black;
       stroke-dashoffset: 0;
       stroke-width: 128;
       }
       to {
       stroke: black;
       stroke-width: 1024;
       }
       }
       #make-me-a-hanzi-animation-16 {
         animation: keyframes16 0.698405s both;
         animation-delay: 12.672689s;
         animation-timing-function: linear;
       }
    @keyframes keyframes17 {
      from {
       stroke: black;
       stroke-dashoffset: 509;
       stroke-width: 128;
       }
       62% {
       animation-timing-function: step-end;
       stroke: black;
       stroke-dashoffset: 0;
       stroke-width: 128;
       }
       to {
       stroke: black;
       stroke-width: 1024;
       }
       }
       #make-me-a-hanzi-animation-17 {
         animation: keyframes17 0.664225s both;
         animation-delay: 13.371094s;
         animation-timing-function: linear;
       }
</style>
<path d="M 412 554 L 425 572 Q 427 575 441 589 L 442 593 Q 449 596 451 602 Q 461 616 419 643 Q 391 658 381 648 Q 376 643 376 626 Q 376 609 372 598 Q 366 567 328 507 Q 291 446 266 421 L 256 412 Q 248 404 253 400 Q 256 395 265 400 L 278 409 Q 305 422 355 472 Q 374 493 395 526 L 412 554 Z" fill="lightgray"></path> 
<path d="M 464 364 L 500 398 L 576 483 L 604 508 Q 624 527 631 531 Q 665 548 646 567 Q 636 575 611 587 Q 586 598 580 598 Q 574 598 570 596 L 561 592 Q 536 580 522 576 L 479 565 Q 449 558 412 554 C 382 550 365 530 395 526 L 418 523 Q 419 522 456 525 Q 494 527 514 530 Q 530 540 530 523 Q 529 515 523 507 L 513 491 Q 509 483 498 469 L 425 358 C 409 333 442 343 464 364 Z" fill="lightgray"></path> 
<path d="M 258 336 L 234 343 L 192 351 Q 186 351 181 347 Q 177 342 189 330 Q 211 308 225 251 L 243 147 L 254 121 Q 258 113 262 112 Q 267 106 269 107 L 277 110 Q 286 119 286 143 L 286 178 L 281 225 L 270 295 C 265 325 264 334 258 336 Z" fill="lightgray"></path> 
<path d="M 669 206 L 691 240 Q 720 293 750 316 Q 768 330 756 344 Q 731 373 703 384 Q 676 394 665 394 L 654 390 Q 651 390 636 386 Q 622 382 601 381 L 464 364 L 425 358 L 258 336 C 228 332 241 287 270 295 L 288 300 Q 300 304 318 308 L 352 316 Q 378 319 400 324 L 452 334 L 578 346 Q 608 348 618 347 Q 629 346 635 340 Q 639 335 641 327 Q 641 317 640 314 L 612 216 C 604 187 653 181 669 206 Z" fill="lightgray"></path> 
<path d="M 457 156 L 626 170 Q 657 172 672 170 Q 687 168 689 170 Q 691 172 694 178 L 694 180 Q 689 192 681 197 Q 673 202 669 206 C 650 221 642 220 612 216 L 572 211 Q 546 208 538 206 L 469 194 L 406 190 L 286 178 C 256 175 256 143 286 143 L 300 143 Q 302 142 397 147 L 457 156 Z" fill="lightgray"></path> 
<path d="M 397 147 L 388 122 Q 380 96 359 55 Q 339 14 316 -17 Q 294 -49 259 -76 Q 183 -136 118 -165 L 107 -170 Q 103 -174 104 -179 Q 105 -185 110 -183 L 147 -176 Q 167 -171 207 -155 Q 248 -139 280 -116 Q 328 -82 384 -8 Q 406 28 421 62 Q 437 95 457 156 L 469 194 L 479 231 L 502 290 Q 499 301 492 307 Q 486 313 452 334 C 427 350 393 353 400 324 L 407 296 Q 412 269 411 258 Q 411 247 409 221 L 406 190 L 397 147 Z" fill="lightgray"></path> 
<path d="M 538 -1 L 545 44 Q 549 70 556 88 L 565 104 Q 565 116 552 128 Q 530 149 501 152 L 482 156 Q 457 156 472 127 Q 488 98 485 46 L 484 -46 Q 482 -118 522 -154 Q 563 -191 623 -202 Q 649 -206 694 -206 Q 740 -206 773 -201 Q 806 -196 844 -178 Q 882 -161 900 -144 Q 918 -127 917 -119 Q 916 -112 907 -95 Q 898 -79 896 -68 Q 887 -42 880 16 L 874 50 Q 872 56 867 57 Q 862 58 860 50 L 857 20 Q 858 18 854 2 L 849 -23 Q 845 -52 837 -71 Q 829 -90 809 -106 Q 789 -122 763 -130 Q 738 -141 682 -139 Q 586 -139 557 -110 Q 533 -83 534 -55 Q 536 -27 538 -1 Z" fill="lightgray"></path> 
<path d="M 1432 577 Q 1419 577 1391 565 Q 1321 536 1127 509 Q 1115 507 1115 501 Q 1115 493 1138 485 Q 1162 476 1184 476 Q 1189 476 1196 477 L 1238 485 Q 1272 492 1349 507 L 1401 518 Q 1415 521 1432 524 Q 1455 528 1482 538 Q 1495 545 1495 556 Q 1493 575 1432 577 Z" fill="lightgray"></path> 
<path d="M 1196 477 Q 1202 357 1203 62 C 1203 32 1243 47 1243 77 L 1243 207 L 1243 236 Q 1244 289 1244 330 L 1245 360 Q 1246 408 1248 424 Q 1251 454 1251 465 Q 1251 474 1238 485 C 1217 507 1195 507 1196 477 Z" fill="lightgray"></path> 
<path d="M 1370 93 Q 1368 26 1361 -40 Q 1348 -81 1348 -99 Q 1348 -114 1360 -138 Q 1376 -168 1383 -168 Q 1403 -168 1410 -130 Q 1414 -86 1415 -25 L 1415 119 L 1415 145 L 1415 325 Q 1415 394 1427 493 Q 1427 506 1401 518 C 1375 534 1336 534 1349 507 Q 1352 502 1358 489 Q 1371 460 1371 425 L 1371 377 L 1371 348 L 1371 253 L 1371 224 L 1371 128 L 1370 93 Z" fill="lightgray"></path> 
<path d="M 1371 377 Q 1370 378 1368 379 Q 1356 384 1339 384 Q 1334 384 1245 360 C 1216 352 1214 334 1244 330 Q 1249 329 1255 329 Q 1312 339 1371 348 C 1401 353 1397 362 1371 377 Z" fill="lightgray"></path> 
<path d="M 1371 253 Q 1370 254 1368 255 Q 1356 260 1339 260 Q 1334 260 1243 236 C 1214 228 1214 216 1243 207 Q 1247 205 1255 205 Q 1312 214 1371 224 C 1401 229 1397 238 1371 253 Z" fill="lightgray"></path> 
<path d="M 1203 62 Q 1133 39 1096 33 Q 1071 28 1071 20 Q 1071 13 1095 -10 Q 1127 -40 1140 -40 Q 1155 -40 1180 -18 Q 1227 14 1370 93 L 1415 119 Q 1426 125 1440 132 Q 1476 152 1476 157 Q 1476 165 1467 165 Q 1464 165 1415 145 L 1371 128 Q 1330 112 1268 86 Q 1255 82 1243 77 L 1203 62 Z" fill="lightgray"></path> 
<path d="M 1516 472 Q 1499 472 1499 465 Q 1499 460 1509 446 Q 1527 427 1535 392 Q 1552 346 1561 232 Q 1564 186 1591 184 Q 1599 184 1604 207 L 1608 245 L 1608 253 Q 1608 309 1584 428 L 1572 459 Q 1568 465 1556 468 Q 1541 472 1516 472 Z" fill="lightgray"></path> 
<path d="M 1834 272 Q 1852 377 1887 427 Q 1908 460 1908 469 Q 1908 479 1872 503 Q 1834 524 1816 524 Q 1803 524 1769 507 Q 1713 481 1572 459 C 1542 454 1554 424 1584 428 Q 1620 432 1687 446 Q 1756 465 1780 465 Q 1795 465 1795 449 L 1778 278 C 1775 248 1829 242 1834 272 Z" fill="lightgray"></path> 
<path d="M 1604 207 Q 1610 205 1620 205 Q 1726 218 1839 232 Q 1855 240 1855 249 Q 1855 260 1834 272 C 1814 285 1808 283 1778 278 Q 1739 271 1608 245 C 1579 239 1575 213 1604 207 Z" fill="lightgray"></path> 
<path d="M 1591 140 Q 1586 140 1582 135 Q 1579 130 1579 125 Q 1579 100 1555 52 Q 1521 -12 1476 -63 Q 1450 -90 1444 -103 Q 1448 -112 1455 -112 Q 1525 -76 1578 -14 Q 1619 37 1653 73 Q 1667 85 1667 92 Q 1667 108 1629 127 Q 1604 140 1591 140 Z" fill="lightgray"></path> 
<path d="M 1776 128 Q 1755 128 1755 117 Q 1755 110 1797 50 Q 1847 -20 1873 -67 Q 1891 -99 1900 -99 Q 1935 -99 1935 -40 Q 1935 27 1849 82 Q 1784 128 1776 128 Z" fill="lightgray"></path> 
      <clipPath id="make-me-a-hanzi-clip-0">
      <path d="M 412 554 L 425 572 Q 427 575 441 589 L 442 593 Q 449 596 451 602 Q 461 616 419 643 Q 391 658 381 648 Q 376 643 376 626 Q 376 609 372 598 Q 366 567 328 507 Q 291 446 266 421 L 256 412 Q 248 404 253 400 Q 256 395 265 400 L 278 409 Q 305 422 355 472 Q 374 493 395 526 L 412 554 Z" fill="lightgray"></path>
      </clipPath>
      <path clip-path="url(#make-me-a-hanzi-clip-0)" d="M 390 639 L 410 606 L 377 543 L 313 452 L 259 405 " fill="none" id="make-me-a-hanzi-animation-0" stroke-dasharray="421 842" stroke-linecap="round"></path>

      <clipPath id="make-me-a-hanzi-clip-1">
      <path d="M 464 364 L 500 398 L 576 483 L 604 508 Q 624 527 631 531 Q 665 548 646 567 Q 636 575 611 587 Q 586 598 580 598 Q 574 598 570 596 L 561 592 Q 536 580 522 576 L 479 565 Q 449 558 412 554 C 382 550 365 530 395 526 L 418 523 Q 419 522 456 525 Q 494 527 514 530 Q 530 540 530 523 Q 529 515 523 507 L 513 491 Q 509 483 498 469 L 425 358 C 409 333 442 343 464 364 Z" fill="lightgray"></path>
      </clipPath>
      <path clip-path="url(#make-me-a-hanzi-clip-1)" d="M 401 529 L 422 540 L 535 556 L 573 545 L 550 496 L 482 408 L 455 377 L 431 363 " fill="none" id="make-me-a-hanzi-animation-1" stroke-dasharray="540 1080" stroke-linecap="round"></path>

      <clipPath id="make-me-a-hanzi-clip-2">
      <path d="M 258 336 L 234 343 L 192 351 Q 186 351 181 347 Q 177 342 189 330 Q 211 308 225 251 L 243 147 L 254 121 Q 258 113 262 112 Q 267 106 269 107 L 277 110 Q 286 119 286 143 L 286 178 L 281 225 L 270 295 C 265 325 264 334 258 336 Z" fill="lightgray"></path>
      </clipPath>
      <path clip-path="url(#make-me-a-hanzi-clip-2)" d="M 188 344 L 237 308 L 251 256 L 270 116 " fill="none" id="make-me-a-hanzi-animation-2" stroke-dasharray="384 768" stroke-linecap="round"></path>

      <clipPath id="make-me-a-hanzi-clip-3">
      <path d="M 669 206 L 691 240 Q 720 293 750 316 Q 768 330 756 344 Q 731 373 703 384 Q 676 394 665 394 L 654 390 Q 651 390 636 386 Q 622 382 601 381 L 464 364 L 425 358 L 258 336 C 228 332 241 287 270 295 L 288 300 Q 300 304 318 308 L 352 316 Q 378 319 400 324 L 452 334 L 578 346 Q 608 348 618 347 Q 629 346 635 340 Q 639 335 641 327 Q 641 317 640 314 L 612 216 C 604 187 653 181 669 206 Z" fill="lightgray"></path>
      </clipPath>
      <path clip-path="url(#make-me-a-hanzi-clip-3)" d="M 266 331 L 289 320 L 447 348 L 580 363 L 656 361 L 681 346 L 691 329 L 653 242 L 620 221 " fill="none" id="make-me-a-hanzi-animation-3" stroke-dasharray="707 1414" stroke-linecap="round"></path>

      <clipPath id="make-me-a-hanzi-clip-4">
      <path d="M 457 156 L 626 170 Q 657 172 672 170 Q 687 168 689 170 Q 691 172 694 178 L 694 180 Q 689 192 681 197 Q 673 202 669 206 C 650 221 642 220 612 216 L 572 211 Q 546 208 538 206 L 469 194 L 406 190 L 286 178 C 256 175 256 143 286 143 L 300 143 Q 302 142 397 147 L 457 156 Z" fill="lightgray"></path>
      </clipPath>
      <path clip-path="url(#make-me-a-hanzi-clip-4)" d="M 293 149 L 310 162 L 383 165 L 608 192 L 659 190 L 685 178 " fill="none" id="make-me-a-hanzi-animation-4" stroke-dasharray="529 1058" stroke-linecap="round"></path>

      <clipPath id="make-me-a-hanzi-clip-5">
      <path d="M 397 147 L 388 122 Q 380 96 359 55 Q 339 14 316 -17 Q 294 -49 259 -76 Q 183 -136 118 -165 L 107 -170 Q 103 -174 104 -179 Q 105 -185 110 -183 L 147 -176 Q 167 -171 207 -155 Q 248 -139 280 -116 Q 328 -82 384 -8 Q 406 28 421 62 Q 437 95 457 156 L 469 194 L 479 231 L 502 290 Q 499 301 492 307 Q 486 313 452 334 C 427 350 393 353 400 324 L 407 296 Q 412 269 411 258 Q 411 247 409 221 L 406 190 L 397 147 Z" fill="lightgray"></path>
      </clipPath>
      <path clip-path="url(#make-me-a-hanzi-clip-5)" d="M 408 319 L 445 294 L 453 282 L 451 267 L 424 140 L 400 78 L 359 0 L 309 -62 L 272 -95 L 176 -153 L 110 -176 " fill="none" id="make-me-a-hanzi-animation-5" stroke-dasharray="798 1596" stroke-linecap="round"></path>

      <clipPath id="make-me-a-hanzi-clip-6">
      <path d="M 538 -1 L 545 44 Q 549 70 556 88 L 565 104 Q 565 116 552 128 Q 530 149 501 152 L 482 156 Q 457 156 472 127 Q 488 98 485 46 L 484 -46 Q 482 -118 522 -154 Q 563 -191 623 -202 Q 649 -206 694 -206 Q 740 -206 773 -201 Q 806 -196 844 -178 Q 882 -161 900 -144 Q 918 -127 917 -119 Q 916 -112 907 -95 Q 898 -79 896 -68 Q 887 -42 880 16 L 874 50 Q 872 56 867 57 Q 862 58 860 50 L 857 20 Q 858 18 854 2 L 849 -23 Q 845 -52 837 -71 Q 829 -90 809 -106 Q 789 -122 763 -130 Q 738 -141 682 -139 Q 586 -139 557 -110 Q 533 -83 534 -55 Q 536 -27 538 -1 Z" fill="lightgray"></path>
      </clipPath>
      <path clip-path="url(#make-me-a-hanzi-clip-6)" d="M 480 140 L 503 125 L 520 104 L 508 -55 L 515 -95 L 546 -138 L 607 -166 L 686 -173 L 762 -168 L 821 -146 L 854 -124 L 866 -106 L 867 50 " fill="none" id="make-me-a-hanzi-animation-6" stroke-dasharray="938 1876" stroke-linecap="round"></path>

      <clipPath id="make-me-a-hanzi-clip-7">
      <path d="M 1432 577 Q 1419 577 1391 565 Q 1321 536 1127 509 Q 1115 507 1115 501 Q 1115 493 1138 485 Q 1162 476 1184 476 Q 1189 476 1196 477 L 1238 485 Q 1272 492 1349 507 L 1401 518 Q 1415 521 1432 524 Q 1455 528 1482 538 Q 1495 545 1495 556 Q 1493 575 1432 577 Z" fill="lightgray"></path>
      </clipPath>
      <path clip-path="url(#make-me-a-hanzi-clip-7)" d="M 1124 501 L 1199 498 L 1336 525 L 1430 551 L 1483 555 " fill="none" id="make-me-a-hanzi-animation-7" stroke-dasharray="493 986" stroke-linecap="round"></path>

      <clipPath id="make-me-a-hanzi-clip-8">
      <path d="M 1196 477 Q 1202 357 1203 62 C 1203 32 1243 47 1243 77 L 1243 207 L 1243 236 Q 1244 289 1244 330 L 1245 360 Q 1246 408 1248 424 Q 1251 454 1251 465 Q 1251 474 1238 485 C 1217 507 1195 507 1196 477 Z" fill="lightgray"></path>
      </clipPath>
      <path clip-path="url(#make-me-a-hanzi-clip-8)" d="M 1204 473 L 1224 451 L 1223 99 L 1218 82 L 1206 73 " fill="none" id="make-me-a-hanzi-animation-8" stroke-dasharray="542 1084" stroke-linecap="round"></path>

      <clipPath id="make-me-a-hanzi-clip-9">
      <path d="M 1370 93 Q 1368 26 1361 -40 Q 1348 -81 1348 -99 Q 1348 -114 1360 -138 Q 1376 -168 1383 -168 Q 1403 -168 1410 -130 Q 1414 -86 1415 -25 L 1415 119 L 1415 145 L 1415 325 Q 1415 394 1427 493 Q 1427 506 1401 518 C 1375 534 1336 534 1349 507 Q 1352 502 1358 489 Q 1371 460 1371 425 L 1371 377 L 1371 348 L 1371 253 L 1371 224 L 1371 128 L 1370 93 Z" fill="lightgray"></path>
      </clipPath>
      <path clip-path="url(#make-me-a-hanzi-clip-9)" d="M 1356 506 L 1387 489 L 1396 470 L 1393 83 L 1380 -96 L 1386 -157 " fill="none" id="make-me-a-hanzi-animation-9" stroke-dasharray="812 1624" stroke-linecap="round"></path>

      <clipPath id="make-me-a-hanzi-clip-10">
      <path d="M 1371 377 Q 1370 378 1368 379 Q 1356 384 1339 384 Q 1334 384 1245 360 C 1216 352 1214 334 1244 330 Q 1249 329 1255 329 Q 1312 339 1371 348 C 1401 353 1397 362 1371 377 Z" fill="lightgray"></path>
      </clipPath>
      <path clip-path="url(#make-me-a-hanzi-clip-10)" d="M 1250 337 L 1263 349 L 1364 370 " fill="none" id="make-me-a-hanzi-animation-10" stroke-dasharray="249 498" stroke-linecap="round"></path>

      <clipPath id="make-me-a-hanzi-clip-11">
      <path d="M 1371 253 Q 1370 254 1368 255 Q 1356 260 1339 260 Q 1334 260 1243 236 C 1214 228 1214 216 1243 207 Q 1247 205 1255 205 Q 1312 214 1371 224 C 1401 229 1397 238 1371 253 Z" fill="lightgray"></path>
      </clipPath>
      <path clip-path="url(#make-me-a-hanzi-clip-11)" d="M 1250 214 L 1282 229 L 1364 246 " fill="none" id="make-me-a-hanzi-animation-11" stroke-dasharray="247 494" stroke-linecap="round"></path>

      <clipPath id="make-me-a-hanzi-clip-12">
      <path d="M 1203 62 Q 1133 39 1096 33 Q 1071 28 1071 20 Q 1071 13 1095 -10 Q 1127 -40 1140 -40 Q 1155 -40 1180 -18 Q 1227 14 1370 93 L 1415 119 Q 1426 125 1440 132 Q 1476 152 1476 157 Q 1476 165 1467 165 Q 1464 165 1415 145 L 1371 128 Q 1330 112 1268 86 Q 1255 82 1243 77 L 1203 62 Z" fill="lightgray"></path>
      </clipPath>
      <path clip-path="url(#make-me-a-hanzi-clip-12)" d="M 1079 19 L 1142 2 L 1469 158 " fill="none" id="make-me-a-hanzi-animation-12" stroke-dasharray="556 1112" stroke-linecap="round"></path>

      <clipPath id="make-me-a-hanzi-clip-13">
      <path d="M 1516 472 Q 1499 472 1499 465 Q 1499 460 1509 446 Q 1527 427 1535 392 Q 1552 346 1561 232 Q 1564 186 1591 184 Q 1599 184 1604 207 L 1608 245 L 1608 253 Q 1608 309 1584 428 L 1572 459 Q 1568 465 1556 468 Q 1541 472 1516 472 Z" fill="lightgray"></path>
      </clipPath>
      <path clip-path="url(#make-me-a-hanzi-clip-13)" d="M 1506 463 L 1548 440 L 1559 413 L 1578 314 L 1588 195 " fill="none" id="make-me-a-hanzi-animation-13" stroke-dasharray="425 850" stroke-linecap="round"></path>

      <clipPath id="make-me-a-hanzi-clip-14">
      <path d="M 1834 272 Q 1852 377 1887 427 Q 1908 460 1908 469 Q 1908 479 1872 503 Q 1834 524 1816 524 Q 1803 524 1769 507 Q 1713 481 1572 459 C 1542 454 1554 424 1584 428 Q 1620 432 1687 446 Q 1756 465 1780 465 Q 1795 465 1795 449 L 1778 278 C 1775 248 1829 242 1834 272 Z" fill="lightgray"></path>
      </clipPath>
      <path clip-path="url(#make-me-a-hanzi-clip-14)" d="M 1583 457 L 1599 446 L 1675 459 L 1787 489 L 1821 485 L 1846 458 L 1811 305 L 1786 285 " fill="none" id="make-me-a-hanzi-animation-14" stroke-dasharray="600 1200" stroke-linecap="round"></path>

      <clipPath id="make-me-a-hanzi-clip-15">
      <path d="M 1604 207 Q 1610 205 1620 205 Q 1726 218 1839 232 Q 1855 240 1855 249 Q 1855 260 1834 272 C 1814 285 1808 283 1778 278 Q 1739 271 1608 245 C 1579 239 1575 213 1604 207 Z" fill="lightgray"></path>
      </clipPath>
      <path clip-path="url(#make-me-a-hanzi-clip-15)" d="M 1609 213 L 1628 228 L 1646 232 L 1779 251 L 1842 250 " fill="none" id="make-me-a-hanzi-animation-15" stroke-dasharray="368 736" stroke-linecap="round"></path>

      <clipPath id="make-me-a-hanzi-clip-16">
      <path d="M 1591 140 Q 1586 140 1582 135 Q 1579 130 1579 125 Q 1579 100 1555 52 Q 1521 -12 1476 -63 Q 1450 -90 1444 -103 Q 1448 -112 1455 -112 Q 1525 -76 1578 -14 Q 1619 37 1653 73 Q 1667 85 1667 92 Q 1667 108 1629 127 Q 1604 140 1591 140 Z" fill="lightgray"></path>
      </clipPath>
      <path clip-path="url(#make-me-a-hanzi-clip-16)" d="M 1593 126 L 1614 90 L 1597 61 L 1535 -27 L 1453 -103 " fill="none" id="make-me-a-hanzi-animation-16" stroke-dasharray="423 846" stroke-linecap="round"></path>

      <clipPath id="make-me-a-hanzi-clip-17">
      <path d="M 1776 128 Q 1755 128 1755 117 Q 1755 110 1797 50 Q 1847 -20 1873 -67 Q 1891 -99 1900 -99 Q 1935 -99 1935 -40 Q 1935 27 1849 82 Q 1784 128 1776 128 Z" fill="lightgray"></path>
      </clipPath>
      <path clip-path="url(#make-me-a-hanzi-clip-17)" d="M 1764 117 L 1807 82 L 1877 5 L 1902 -48 L 1904 -83 " fill="none" id="make-me-a-hanzi-animation-17" stroke-dasharray="381 762" stroke-linecap="round"></path>

</g>
</svg>
