<svg version="1.1" viewBox="0 0 2048 1024" xmlns="http://www.w3.org/2000/svg">
  <g stroke="lightgray" stroke-dasharray="1,1" stroke-width="1" transform="scale(4, 4)">
    <line x1="0" y1="0" x2="256" y2="256"></line>
    <line x1="256" y1="0" x2="0" y2="256"></line>
    <line x1="128" y1="0" x2="128" y2="256"></line>
    <line x1="0" y1="128" x2="256" y2="128"></line>
    <line x1="256" y1="0" x2="512" y2="256"></line>
    <line x1="512" y1="0" x2="256" y2="256"></line>
    <line x1="384" y1="0" x2="384" y2="256"></line>
    <line x1="256" y1="128" x2="512" y2="128"></line>
  </g>
<g transform="scale(1, -1) translate(0, -850)">
   <style type="text/css">
    @keyframes keyframes0 {
      from {
       stroke: black;
       stroke-dashoffset: 466;
       stroke-width: 128;
       }
       60% {
       animation-timing-function: step-end;
       stroke: black;
       stroke-dashoffset: 0;
       stroke-width: 128;
       }
       to {
       stroke: black;
       stroke-width: 1024;
       }
       }
       #make-me-a-hanzi-animation-0 {
         animation: keyframes0 0.629232s both;
         animation-delay: 0.000000s;
         animation-timing-function: linear;
       }
    @keyframes keyframes1 {
      from {
       stroke: black;
       stroke-dashoffset: 885;
       stroke-width: 128;
       }
       74% {
       animation-timing-function: step-end;
       stroke: black;
       stroke-dashoffset: 0;
       stroke-width: 128;
       }
       to {
       stroke: black;
       stroke-width: 1024;
       }
       }
       #make-me-a-hanzi-animation-1 {
         animation: keyframes1 0.970215s both;
         animation-delay: 0.629232s;
         animation-timing-function: linear;
       }
    @keyframes keyframes2 {
      from {
       stroke: black;
       stroke-dashoffset: 687;
       stroke-width: 128;
       }
       69% {
       animation-timing-function: step-end;
       stroke: black;
       stroke-dashoffset: 0;
       stroke-width: 128;
       }
       to {
       stroke: black;
       stroke-width: 1024;
       }
       }
       #make-me-a-hanzi-animation-2 {
         animation: keyframes2 0.809082s both;
         animation-delay: 1.599447s;
         animation-timing-function: linear;
       }
    @keyframes keyframes3 {
      from {
       stroke: black;
       stroke-dashoffset: 989;
       stroke-width: 128;
       }
       76% {
       animation-timing-function: step-end;
       stroke: black;
       stroke-dashoffset: 0;
       stroke-width: 128;
       }
       to {
       stroke: black;
       stroke-width: 1024;
       }
       }
       #make-me-a-hanzi-animation-3 {
         animation: keyframes3 1.054850s both;
         animation-delay: 2.408529s;
         animation-timing-function: linear;
       }
    @keyframes keyframes4 {
      from {
       stroke: black;
       stroke-dashoffset: 934;
       stroke-width: 128;
       }
       75% {
       animation-timing-function: step-end;
       stroke: black;
       stroke-dashoffset: 0;
       stroke-width: 128;
       }
       to {
       stroke: black;
       stroke-width: 1024;
       }
       }
       #make-me-a-hanzi-animation-4 {
         animation: keyframes4 1.010091s both;
         animation-delay: 3.463379s;
         animation-timing-function: linear;
       }
    @keyframes keyframes5 {
      from {
       stroke: black;
       stroke-dashoffset: 773;
       stroke-width: 128;
       }
       72% {
       animation-timing-function: step-end;
       stroke: black;
       stroke-dashoffset: 0;
       stroke-width: 128;
       }
       to {
       stroke: black;
       stroke-width: 1024;
       }
       }
       #make-me-a-hanzi-animation-5 {
         animation: keyframes5 0.879069s both;
         animation-delay: 4.473470s;
         animation-timing-function: linear;
       }
    @keyframes keyframes6 {
      from {
       stroke: black;
       stroke-dashoffset: 977;
       stroke-width: 128;
       }
       76% {
       animation-timing-function: step-end;
       stroke: black;
       stroke-dashoffset: 0;
       stroke-width: 128;
       }
       to {
       stroke: black;
       stroke-width: 1024;
       }
       }
       #make-me-a-hanzi-animation-6 {
         animation: keyframes6 1.045085s both;
         animation-delay: 5.352539s;
         animation-timing-function: linear;
       }
    @keyframes keyframes7 {
      from {
       stroke: black;
       stroke-dashoffset: 426;
       stroke-width: 128;
       }
       58% {
       animation-timing-function: step-end;
       stroke: black;
       stroke-dashoffset: 0;
       stroke-width: 128;
       }
       to {
       stroke: black;
       stroke-width: 1024;
       }
       }
       #make-me-a-hanzi-animation-7 {
         animation: keyframes7 0.596680s both;
         animation-delay: 6.397624s;
         animation-timing-function: linear;
       }
    @keyframes keyframes8 {
      from {
       stroke: black;
       stroke-dashoffset: 697;
       stroke-width: 128;
       }
       69% {
       animation-timing-function: step-end;
       stroke: black;
       stroke-dashoffset: 0;
       stroke-width: 128;
       }
       to {
       stroke: black;
       stroke-width: 1024;
       }
       }
       #make-me-a-hanzi-animation-8 {
         animation: keyframes8 0.817220s both;
         animation-delay: 6.994304s;
         animation-timing-function: linear;
       }
    @keyframes keyframes9 {
      from {
       stroke: black;
       stroke-dashoffset: 582;
       stroke-width: 128;
       }
       65% {
       animation-timing-function: step-end;
       stroke: black;
       stroke-dashoffset: 0;
       stroke-width: 128;
       }
       to {
       stroke: black;
       stroke-width: 1024;
       }
       }
       #make-me-a-hanzi-animation-9 {
         animation: keyframes9 0.723633s both;
         animation-delay: 7.811524s;
         animation-timing-function: linear;
       }
    @keyframes keyframes10 {
      from {
       stroke: black;
       stroke-dashoffset: 878;
       stroke-width: 128;
       }
       74% {
       animation-timing-function: step-end;
       stroke: black;
       stroke-dashoffset: 0;
       stroke-width: 128;
       }
       to {
       stroke: black;
       stroke-width: 1024;
       }
       }
       #make-me-a-hanzi-animation-10 {
         animation: keyframes10 0.964518s both;
         animation-delay: 8.535157s;
         animation-timing-function: linear;
       }
    @keyframes keyframes11 {
      from {
       stroke: black;
       stroke-dashoffset: 1019;
       stroke-width: 128;
       }
       77% {
       animation-timing-function: step-end;
       stroke: black;
       stroke-dashoffset: 0;
       stroke-width: 128;
       }
       to {
       stroke: black;
       stroke-width: 1024;
       }
       }
       #make-me-a-hanzi-animation-11 {
         animation: keyframes11 1.079264s both;
         animation-delay: 9.499675s;
         animation-timing-function: linear;
       }
    @keyframes keyframes12 {
      from {
       stroke: black;
       stroke-dashoffset: 685;
       stroke-width: 128;
       }
       69% {
       animation-timing-function: step-end;
       stroke: black;
       stroke-dashoffset: 0;
       stroke-width: 128;
       }
       to {
       stroke: black;
       stroke-width: 1024;
       }
       }
       #make-me-a-hanzi-animation-12 {
         animation: keyframes12 0.807454s both;
         animation-delay: 10.578939s;
         animation-timing-function: linear;
       }
    @keyframes keyframes13 {
      from {
       stroke: black;
       stroke-dashoffset: 1254;
       stroke-width: 128;
       }
       80% {
       animation-timing-function: step-end;
       stroke: black;
       stroke-dashoffset: 0;
       stroke-width: 128;
       }
       to {
       stroke: black;
       stroke-width: 1024;
       }
       }
       #make-me-a-hanzi-animation-13 {
         animation: keyframes13 1.270508s both;
         animation-delay: 11.386393s;
         animation-timing-function: linear;
       }
</style>
<path d="M 280.5 703.0 Q 270.5 728.0 258.5 736.0 Q 239.5 752.0 236.5 725.0 Q 242.5 688.0 189.5 630.0 Q 152.5 596.0 180.5 531.0 Q 195.5 503.0 216.5 531.0 Q 235.5 556.0 249.5 596.0 Q 265.5 642.0 278.5 670.0 C 286.5 688.0 286.5 688.0 280.5 703.0 Z" fill="lightgray"></path> 
<path d="M 278.5 670.0 Q 299.5 660.0 358.5 673.0 Q 508.5 709.0 678.5 722.0 Q 700.5 723.0 710.5 721.0 Q 726.5 712.0 724.5 705.0 Q 724.5 701.0 684.5 627.0 Q 675.5 614.0 682.5 609.0 Q 689.5 605.0 707.5 615.0 Q 765.5 652.0 814.5 663.0 Q 854.5 673.0 853.5 683.0 Q 852.5 693.0 781.5 750.0 Q 756.5 771.0 661.5 753.0 Q 583.5 747.0 374.5 715.0 Q 326.5 708.0 280.5 703.0 C 250.5 700.0 249.5 676.0 278.5 670.0 Z" fill="lightgray"></path> 
<path d="M 442.5 470.0 Q 697.5 513.0 711.5 523.0 Q 720.5 530.0 716.5 540.0 Q 709.5 553.0 679.5 561.0 Q 649.5 568.0 618.5 557.0 Q 548.5 535.0 471.5 519.0 Q 468.5 519.0 465.5 518.0 L 408.5 508.0 Q 350.5 502.0 288.5 497.0 Q 251.5 493.0 277.5 474.0 Q 316.5 447.0 379.5 460.0 Q 382.5 461.0 390.5 461.0 L 442.5 470.0 Z" fill="lightgray"></path> 
<path d="M 536.5 299.0 Q 605.5 308.0 650.5 310.0 Q 690.5 311.0 693.5 323.0 Q 694.5 336.0 665.5 355.0 Q 646.5 367.0 538.5 345.0 L 490.5 335.0 L 387.5 320.0 Q 372.5 319.0 371.5 322.0 Q 370.5 325.0 376.5 337.0 L 442.5 470.0 L 465.5 518.0 Q 484.5 567.0 507.5 584.0 Q 526.5 597.0 516.5 609.0 Q 468.5 660.0 442.5 659.0 Q 432.5 659.0 437.5 638.0 Q 443.5 605.0 408.5 508.0 L 390.5 461.0 Q 351.5 365.0 307.5 331.0 Q 286.5 316.0 299.5 270.0 Q 303.5 254.0 320.5 260.0 Q 383.5 281.0 490.5 293.0 L 536.5 299.0 Z" fill="lightgray"></path> 
<path d="M 488.5 197.0 Q 347.5 184.0 184.5 166.0 Q 159.5 165.0 177.5 143.0 Q 193.5 127.0 215.5 120.0 Q 240.5 113.0 259.5 118.0 Q 358.5 142.0 469.5 151.0 Q 476.5 152.0 486.5 152.0 L 535.5 157.0 Q 688.5 169.0 834.5 159.0 Q 858.5 159.0 864.5 169.0 Q 871.5 182.0 851.5 199.0 Q 790.5 247.0 746.5 238.0 Q 664.5 222.0 535.5 204.0 L 488.5 197.0 Z" fill="lightgray"></path> 
<path d="M 538.5 345.0 Q 539.5 370.0 543.5 385.0 Q 546.5 397.0 539.5 403.0 Q 517.5 422.0 498.5 432.0 Q 486.5 436.0 477.5 429.0 Q 471.5 425.0 478.5 416.0 Q 488.5 398.0 490.5 335.0 L 490.5 293.0 Q 490.5 245.0 488.5 197.0 L 486.5 152.0 Q 477.5 35.0 470.5 15.0 Q 461.5 -21.0 494.5 -72.0 Q 504.5 -90.0 513.5 -94.0 Q 523.5 -95.0 529.5 -83.0 Q 541.5 -52.0 538.5 -22.0 Q 535.5 72.0 535.5 157.0 L 535.5 204.0 Q 535.5 252.0 536.5 299.0 L 538.5 345.0 Z" fill="lightgray"></path> 
<path d="M 1560.0 643.5 Q 1620.0 649.5 1874.0 649.5 Q 1895.0 649.5 1900.0 658.5 Q 1906.0 670.5 1888.0 684.5 Q 1834.0 726.5 1796.0 718.5 Q 1708.0 700.5 1564.0 680.5 L 1506.0 673.5 Q 1355.0 657.5 1178.0 638.5 Q 1156.0 637.5 1172.0 618.5 Q 1187.0 603.5 1205.0 597.5 Q 1227.0 591.5 1244.0 596.5 Q 1406.0 638.5 1506.0 639.5 L 1560.0 643.5 Z" fill="lightgray"></path> 
<path d="M 1346.0 559.5 Q 1333.0 565.5 1310.0 566.5 Q 1298.0 569.5 1296.0 564.5 Q 1290.0 557.5 1299.0 543.5 Q 1323.0 503.5 1340.0 437.5 Q 1344.0 418.5 1357.0 405.5 Q 1375.0 386.5 1379.0 400.5 Q 1382.0 409.5 1381.0 421.5 L 1377.0 452.5 Q 1367.0 507.5 1365.0 528.5 C 1362.0 553.5 1362.0 553.5 1346.0 559.5 Z" fill="lightgray"></path> 
<path d="M 1696.0 490.5 Q 1723.0 529.5 1743.0 535.5 Q 1759.0 551.5 1748.0 569.5 Q 1679.0 630.5 1637.0 609.5 Q 1595.0 597.5 1556.0 586.5 L 1506.0 577.5 Q 1428.0 565.5 1346.0 559.5 C 1316.0 557.5 1335.0 523.5 1365.0 528.5 Q 1471.0 546.5 1506.0 550.5 L 1555.0 557.5 Q 1586.0 563.5 1617.0 567.5 Q 1647.0 573.5 1658.0 560.5 Q 1662.0 556.5 1661.0 546.5 Q 1654.0 519.5 1647.0 497.5 C 1638.0 468.5 1678.0 466.5 1696.0 490.5 Z" fill="lightgray"></path> 
<path d="M 1551.0 445.5 Q 1617.0 454.5 1705.0 459.5 Q 1715.0 460.5 1716.0 468.5 Q 1716.0 475.5 1696.0 490.5 C 1680.0 503.5 1677.0 502.5 1647.0 497.5 Q 1596.0 488.5 1552.0 478.5 L 1505.0 470.5 Q 1438.0 460.5 1377.0 452.5 C 1347.0 448.5 1351.0 419.5 1381.0 421.5 Q 1385.0 421.5 1393.0 422.5 Q 1436.0 432.5 1505.0 439.5 L 1551.0 445.5 Z" fill="lightgray"></path> 
<path d="M 1716.0 190.5 Q 1723.0 224.5 1732.0 258.5 L 1753.0 311.5 Q 1763.0 327.5 1776.0 342.5 Q 1795.0 364.5 1768.0 380.5 Q 1743.0 399.5 1718.0 413.5 Q 1705.0 422.5 1626.0 399.5 Q 1599.0 396.5 1550.0 387.5 L 1504.0 380.5 Q 1462.0 376.5 1419.0 366.5 Q 1346.0 353.5 1300.0 351.5 Q 1287.0 352.5 1285.0 344.5 Q 1284.0 337.5 1304.0 325.5 Q 1323.0 310.5 1353.0 319.5 Q 1444.0 343.5 1504.0 348.5 L 1550.0 354.5 Q 1602.0 361.5 1668.0 366.5 Q 1683.0 367.5 1687.0 360.5 Q 1696.0 348.5 1691.0 301.5 L 1683.0 257.5 Q 1677.0 232.5 1670.0 202.5 C 1663.0 173.5 1710.0 161.5 1716.0 190.5 Z" fill="lightgray"></path> 
<path d="M 1503.0 274.5 Q 1346.0 258.5 1166.0 237.5 Q 1144.0 236.5 1160.0 218.5 Q 1173.0 205.5 1192.0 198.5 Q 1213.0 192.5 1229.0 197.5 Q 1344.0 227.5 1473.0 241.5 Q 1486.0 244.5 1503.0 244.5 L 1551.0 249.5 Q 1609.0 256.5 1683.0 257.5 L 1732.0 258.5 Q 1918.0 258.5 1924.0 267.5 Q 1928.0 279.5 1913.0 293.5 Q 1856.0 335.5 1791.0 318.5 Q 1772.0 315.5 1753.0 311.5 L 1691.0 301.5 Q 1625.0 294.5 1550.0 281.5 L 1503.0 274.5 Z" fill="lightgray"></path> 
<path d="M 1502.0 171.5 Q 1399.0 156.5 1311.0 148.5 Q 1287.0 147.5 1301.0 127.5 Q 1308.0 117.5 1319.0 112.5 Q 1332.0 108.5 1346.0 111.5 Q 1406.0 124.5 1502.0 134.5 L 1554.0 139.5 Q 1630.0 148.5 1726.0 153.5 Q 1738.0 154.5 1740.0 164.5 Q 1740.0 171.5 1716.0 190.5 C 1698.0 205.5 1698.0 205.5 1670.0 202.5 Q 1663.0 202.5 1654.0 200.5 Q 1602.0 190.5 1552.0 180.5 L 1502.0 171.5 Z" fill="lightgray"></path> 
<path d="M 1504.0 348.5 Q 1503.0 314.5 1503.0 274.5 L 1503.0 244.5 Q 1502.0 210.5 1502.0 171.5 L 1502.0 134.5 Q 1502.0 86.5 1502.0 32.5 Q 1501.0 5.5 1486.0 -4.5 Q 1480.0 -8.5 1398.0 4.5 Q 1365.0 14.5 1368.0 4.5 Q 1369.0 -2.5 1391.0 -16.5 Q 1461.0 -64.5 1480.0 -93.5 Q 1502.0 -127.5 1518.0 -126.5 Q 1533.0 -127.5 1546.0 -92.5 Q 1562.0 -47.5 1559.0 25.5 Q 1556.0 82.5 1554.0 139.5 L 1552.0 180.5 Q 1551.0 214.5 1551.0 249.5 L 1550.0 281.5 Q 1549.0 318.5 1550.0 354.5 L 1550.0 387.5 Q 1549.0 417.5 1551.0 445.5 L 1552.0 478.5 Q 1553.0 518.5 1555.0 557.5 L 1556.0 586.5 Q 1556.0 590.5 1560.0 643.5 L 1564.0 680.5 Q 1568.0 711.5 1575.0 732.5 Q 1593.0 762.5 1537.0 784.5 Q 1503.0 803.5 1484.0 796.5 Q 1466.0 789.5 1482.0 767.5 Q 1500.0 743.5 1506.0 673.5 L 1506.0 639.5 Q 1506.0 614.5 1506.0 577.5 L 1506.0 550.5 Q 1505.0 516.5 1505.0 470.5 L 1505.0 439.5 Q 1504.0 411.5 1504.0 380.5 L 1504.0 348.5 Z" fill="lightgray"></path> 
      <clipPath id="make-me-a-hanzi-clip-0">
      <path d="M 280.5 703.0 Q 270.5 728.0 258.5 736.0 Q 239.5 752.0 236.5 725.0 Q 242.5 688.0 189.5 630.0 Q 152.5 596.0 180.5 531.0 Q 195.5 503.0 216.5 531.0 Q 235.5 556.0 249.5 596.0 Q 265.5 642.0 278.5 670.0 C 286.5 688.0 286.5 688.0 280.5 703.0 Z" fill="lightgray"></path>
      </clipPath>
      <path clip-path="url(#make-me-a-hanzi-clip-0)" d="M 247.5 730.0 L 257.5 699.0 L 253.5 677.0 L 207.5 591.0 L 197.5 534.0 " fill="none" id="make-me-a-hanzi-animation-0" stroke-dasharray="338 676" stroke-linecap="round"></path>

      <clipPath id="make-me-a-hanzi-clip-1">
      <path d="M 278.5 670.0 Q 299.5 660.0 358.5 673.0 Q 508.5 709.0 678.5 722.0 Q 700.5 723.0 710.5 721.0 Q 726.5 712.0 724.5 705.0 Q 724.5 701.0 684.5 627.0 Q 675.5 614.0 682.5 609.0 Q 689.5 605.0 707.5 615.0 Q 765.5 652.0 814.5 663.0 Q 854.5 673.0 853.5 683.0 Q 852.5 693.0 781.5 750.0 Q 756.5 771.0 661.5 753.0 Q 583.5 747.0 374.5 715.0 Q 326.5 708.0 280.5 703.0 C 250.5 700.0 249.5 676.0 278.5 670.0 Z" fill="lightgray"></path>
      </clipPath>
      <path clip-path="url(#make-me-a-hanzi-clip-1)" d="M 284.5 675.0 L 298.5 685.0 L 552.5 726.0 L 697.5 741.0 L 743.5 732.0 L 758.5 721.0 L 770.5 699.0 L 687.5 615.0 " fill="none" id="make-me-a-hanzi-animation-1" stroke-dasharray="757 1514" stroke-linecap="round"></path>

      <clipPath id="make-me-a-hanzi-clip-2">
      <path d="M 442.5 470.0 Q 697.5 513.0 711.5 523.0 Q 720.5 530.0 716.5 540.0 Q 709.5 553.0 679.5 561.0 Q 649.5 568.0 618.5 557.0 Q 548.5 535.0 471.5 519.0 Q 468.5 519.0 465.5 518.0 L 408.5 508.0 Q 350.5 502.0 288.5 497.0 Q 251.5 493.0 277.5 474.0 Q 316.5 447.0 379.5 460.0 Q 382.5 461.0 390.5 461.0 L 442.5 470.0 Z" fill="lightgray"></path>
      </clipPath>
      <path clip-path="url(#make-me-a-hanzi-clip-2)" d="M 280.5 487.0 L 325.5 478.0 L 367.5 480.0 L 479.5 497.0 L 656.5 537.0 L 704.5 534.0 " fill="none" id="make-me-a-hanzi-animation-2" stroke-dasharray="559 1118" stroke-linecap="round"></path>

      <clipPath id="make-me-a-hanzi-clip-3">
      <path d="M 536.5 299.0 Q 605.5 308.0 650.5 310.0 Q 690.5 311.0 693.5 323.0 Q 694.5 336.0 665.5 355.0 Q 646.5 367.0 538.5 345.0 L 490.5 335.0 L 387.5 320.0 Q 372.5 319.0 371.5 322.0 Q 370.5 325.0 376.5 337.0 L 442.5 470.0 L 465.5 518.0 Q 484.5 567.0 507.5 584.0 Q 526.5 597.0 516.5 609.0 Q 468.5 660.0 442.5 659.0 Q 432.5 659.0 437.5 638.0 Q 443.5 605.0 408.5 508.0 L 390.5 461.0 Q 351.5 365.0 307.5 331.0 Q 286.5 316.0 299.5 270.0 Q 303.5 254.0 320.5 260.0 Q 383.5 281.0 490.5 293.0 L 536.5 299.0 Z" fill="lightgray"></path>
      </clipPath>
      <path clip-path="url(#make-me-a-hanzi-clip-3)" d="M 445.5 649.0 L 472.5 602.0 L 401.5 432.0 L 336.5 305.0 L 374.5 297.0 L 632.5 334.0 L 684.5 325.0 " fill="none" id="make-me-a-hanzi-animation-3" stroke-dasharray="861 1722" stroke-linecap="round"></path>

      <clipPath id="make-me-a-hanzi-clip-4">
      <path d="M 488.5 197.0 Q 347.5 184.0 184.5 166.0 Q 159.5 165.0 177.5 143.0 Q 193.5 127.0 215.5 120.0 Q 240.5 113.0 259.5 118.0 Q 358.5 142.0 469.5 151.0 Q 476.5 152.0 486.5 152.0 L 535.5 157.0 Q 688.5 169.0 834.5 159.0 Q 858.5 159.0 864.5 169.0 Q 871.5 182.0 851.5 199.0 Q 790.5 247.0 746.5 238.0 Q 664.5 222.0 535.5 204.0 L 488.5 197.0 Z" fill="lightgray"></path>
      </clipPath>
      <path clip-path="url(#make-me-a-hanzi-clip-4)" d="M 181.5 154.0 L 248.5 144.0 L 440.5 171.0 L 756.5 201.0 L 787.5 198.0 L 851.5 176.0 " fill="none" id="make-me-a-hanzi-animation-4" stroke-dasharray="806 1612" stroke-linecap="round"></path>

      <clipPath id="make-me-a-hanzi-clip-5">
      <path d="M 538.5 345.0 Q 539.5 370.0 543.5 385.0 Q 546.5 397.0 539.5 403.0 Q 517.5 422.0 498.5 432.0 Q 486.5 436.0 477.5 429.0 Q 471.5 425.0 478.5 416.0 Q 488.5 398.0 490.5 335.0 L 490.5 293.0 Q 490.5 245.0 488.5 197.0 L 486.5 152.0 Q 477.5 35.0 470.5 15.0 Q 461.5 -21.0 494.5 -72.0 Q 504.5 -90.0 513.5 -94.0 Q 523.5 -95.0 529.5 -83.0 Q 541.5 -52.0 538.5 -22.0 Q 535.5 72.0 535.5 157.0 L 535.5 204.0 Q 535.5 252.0 536.5 299.0 L 538.5 345.0 Z" fill="lightgray"></path>
      </clipPath>
      <path clip-path="url(#make-me-a-hanzi-clip-5)" d="M 485.5 423.0 L 515.5 387.0 L 503.5 -11.0 L 515.5 -82.0 " fill="none" id="make-me-a-hanzi-animation-5" stroke-dasharray="645 1290" stroke-linecap="round"></path>

      <clipPath id="make-me-a-hanzi-clip-6">
      <path d="M 1560.0 643.5 Q 1620.0 649.5 1874.0 649.5 Q 1895.0 649.5 1900.0 658.5 Q 1906.0 670.5 1888.0 684.5 Q 1834.0 726.5 1796.0 718.5 Q 1708.0 700.5 1564.0 680.5 L 1506.0 673.5 Q 1355.0 657.5 1178.0 638.5 Q 1156.0 637.5 1172.0 618.5 Q 1187.0 603.5 1205.0 597.5 Q 1227.0 591.5 1244.0 596.5 Q 1406.0 638.5 1506.0 639.5 L 1560.0 643.5 Z" fill="lightgray"></path>
      </clipPath>
      <path clip-path="url(#make-me-a-hanzi-clip-6)" d="M 1175.0 628.5 L 1226.0 618.5 L 1427.0 650.5 L 1806.0 684.5 L 1852.0 677.5 L 1888.0 664.5 " fill="none" id="make-me-a-hanzi-animation-6" stroke-dasharray="849 1698" stroke-linecap="round"></path>

      <clipPath id="make-me-a-hanzi-clip-7">
      <path d="M 1346.0 559.5 Q 1333.0 565.5 1310.0 566.5 Q 1298.0 569.5 1296.0 564.5 Q 1290.0 557.5 1299.0 543.5 Q 1323.0 503.5 1340.0 437.5 Q 1344.0 418.5 1357.0 405.5 Q 1375.0 386.5 1379.0 400.5 Q 1382.0 409.5 1381.0 421.5 L 1377.0 452.5 Q 1367.0 507.5 1365.0 528.5 C 1362.0 553.5 1362.0 553.5 1346.0 559.5 Z" fill="lightgray"></path>
      </clipPath>
      <path clip-path="url(#make-me-a-hanzi-clip-7)" d="M 1304.0 557.5 L 1330.0 538.5 L 1340.0 520.5 L 1369.0 406.5 " fill="none" id="make-me-a-hanzi-animation-7" stroke-dasharray="298 596" stroke-linecap="round"></path>

      <clipPath id="make-me-a-hanzi-clip-8">
      <path d="M 1696.0 490.5 Q 1723.0 529.5 1743.0 535.5 Q 1759.0 551.5 1748.0 569.5 Q 1679.0 630.5 1637.0 609.5 Q 1595.0 597.5 1556.0 586.5 L 1506.0 577.5 Q 1428.0 565.5 1346.0 559.5 C 1316.0 557.5 1335.0 523.5 1365.0 528.5 Q 1471.0 546.5 1506.0 550.5 L 1555.0 557.5 Q 1586.0 563.5 1617.0 567.5 Q 1647.0 573.5 1658.0 560.5 Q 1662.0 556.5 1661.0 546.5 Q 1654.0 519.5 1647.0 497.5 C 1638.0 468.5 1678.0 466.5 1696.0 490.5 Z" fill="lightgray"></path>
      </clipPath>
      <path clip-path="url(#make-me-a-hanzi-clip-8)" d="M 1354.0 557.5 L 1375.0 544.5 L 1657.0 590.5 L 1681.0 580.5 L 1700.0 557.5 L 1681.0 519.5 L 1654.0 501.5 " fill="none" id="make-me-a-hanzi-animation-8" stroke-dasharray="569 1138" stroke-linecap="round"></path>

      <clipPath id="make-me-a-hanzi-clip-9">
      <path d="M 1551.0 445.5 Q 1617.0 454.5 1705.0 459.5 Q 1715.0 460.5 1716.0 468.5 Q 1716.0 475.5 1696.0 490.5 C 1680.0 503.5 1677.0 502.5 1647.0 497.5 Q 1596.0 488.5 1552.0 478.5 L 1505.0 470.5 Q 1438.0 460.5 1377.0 452.5 C 1347.0 448.5 1351.0 419.5 1381.0 421.5 Q 1385.0 421.5 1393.0 422.5 Q 1436.0 432.5 1505.0 439.5 L 1551.0 445.5 Z" fill="lightgray"></path>
      </clipPath>
      <path clip-path="url(#make-me-a-hanzi-clip-9)" d="M 1385.0 445.5 L 1395.0 438.5 L 1643.0 476.5 L 1706.0 469.5 " fill="none" id="make-me-a-hanzi-animation-9" stroke-dasharray="454 908" stroke-linecap="round"></path>

      <clipPath id="make-me-a-hanzi-clip-10">
      <path d="M 1716.0 190.5 Q 1723.0 224.5 1732.0 258.5 L 1753.0 311.5 Q 1763.0 327.5 1776.0 342.5 Q 1795.0 364.5 1768.0 380.5 Q 1743.0 399.5 1718.0 413.5 Q 1705.0 422.5 1626.0 399.5 Q 1599.0 396.5 1550.0 387.5 L 1504.0 380.5 Q 1462.0 376.5 1419.0 366.5 Q 1346.0 353.5 1300.0 351.5 Q 1287.0 352.5 1285.0 344.5 Q 1284.0 337.5 1304.0 325.5 Q 1323.0 310.5 1353.0 319.5 Q 1444.0 343.5 1504.0 348.5 L 1550.0 354.5 Q 1602.0 361.5 1668.0 366.5 Q 1683.0 367.5 1687.0 360.5 Q 1696.0 348.5 1691.0 301.5 L 1683.0 257.5 Q 1677.0 232.5 1670.0 202.5 C 1663.0 173.5 1710.0 161.5 1716.0 190.5 Z" fill="lightgray"></path>
      </clipPath>
      <path clip-path="url(#make-me-a-hanzi-clip-10)" d="M 1292.0 343.5 L 1342.0 335.5 L 1443.0 356.5 L 1666.0 389.5 L 1705.0 385.5 L 1732.0 351.5 L 1698.0 219.5 L 1710.0 198.5 " fill="none" id="make-me-a-hanzi-animation-10" stroke-dasharray="750 1500" stroke-linecap="round"></path>

      <clipPath id="make-me-a-hanzi-clip-11">
      <path d="M 1503.0 274.5 Q 1346.0 258.5 1166.0 237.5 Q 1144.0 236.5 1160.0 218.5 Q 1173.0 205.5 1192.0 198.5 Q 1213.0 192.5 1229.0 197.5 Q 1344.0 227.5 1473.0 241.5 Q 1486.0 244.5 1503.0 244.5 L 1551.0 249.5 Q 1609.0 256.5 1683.0 257.5 L 1732.0 258.5 Q 1918.0 258.5 1924.0 267.5 Q 1928.0 279.5 1913.0 293.5 Q 1856.0 335.5 1791.0 318.5 Q 1772.0 315.5 1753.0 311.5 L 1691.0 301.5 Q 1625.0 294.5 1550.0 281.5 L 1503.0 274.5 Z" fill="lightgray"></path>
      </clipPath>
      <path clip-path="url(#make-me-a-hanzi-clip-11)" d="M 1163.0 228.5 L 1219.0 219.5 L 1395.0 248.5 L 1805.0 290.5 L 1854.0 290.5 L 1919.0 273.5 " fill="none" id="make-me-a-hanzi-animation-11" stroke-dasharray="891 1782" stroke-linecap="round"></path>

      <clipPath id="make-me-a-hanzi-clip-12">
      <path d="M 1502.0 171.5 Q 1399.0 156.5 1311.0 148.5 Q 1287.0 147.5 1301.0 127.5 Q 1308.0 117.5 1319.0 112.5 Q 1332.0 108.5 1346.0 111.5 Q 1406.0 124.5 1502.0 134.5 L 1554.0 139.5 Q 1630.0 148.5 1726.0 153.5 Q 1738.0 154.5 1740.0 164.5 Q 1740.0 171.5 1716.0 190.5 C 1698.0 205.5 1698.0 205.5 1670.0 202.5 Q 1663.0 202.5 1654.0 200.5 Q 1602.0 190.5 1552.0 180.5 L 1502.0 171.5 Z" fill="lightgray"></path>
      </clipPath>
      <path clip-path="url(#make-me-a-hanzi-clip-12)" d="M 1307.0 137.5 L 1337.0 130.5 L 1668.0 176.5 L 1731.0 164.5 " fill="none" id="make-me-a-hanzi-animation-12" stroke-dasharray="557 1114" stroke-linecap="round"></path>

      <clipPath id="make-me-a-hanzi-clip-13">
      <path d="M 1504.0 348.5 Q 1503.0 314.5 1503.0 274.5 L 1503.0 244.5 Q 1502.0 210.5 1502.0 171.5 L 1502.0 134.5 Q 1502.0 86.5 1502.0 32.5 Q 1501.0 5.5 1486.0 -4.5 Q 1480.0 -8.5 1398.0 4.5 Q 1365.0 14.5 1368.0 4.5 Q 1369.0 -2.5 1391.0 -16.5 Q 1461.0 -64.5 1480.0 -93.5 Q 1502.0 -127.5 1518.0 -126.5 Q 1533.0 -127.5 1546.0 -92.5 Q 1562.0 -47.5 1559.0 25.5 Q 1556.0 82.5 1554.0 139.5 L 1552.0 180.5 Q 1551.0 214.5 1551.0 249.5 L 1550.0 281.5 Q 1549.0 318.5 1550.0 354.5 L 1550.0 387.5 Q 1549.0 417.5 1551.0 445.5 L 1552.0 478.5 Q 1553.0 518.5 1555.0 557.5 L 1556.0 586.5 Q 1556.0 590.5 1560.0 643.5 L 1564.0 680.5 Q 1568.0 711.5 1575.0 732.5 Q 1593.0 762.5 1537.0 784.5 Q 1503.0 803.5 1484.0 796.5 Q 1466.0 789.5 1482.0 767.5 Q 1500.0 743.5 1506.0 673.5 L 1506.0 639.5 Q 1506.0 614.5 1506.0 577.5 L 1506.0 550.5 Q 1505.0 516.5 1505.0 470.5 L 1505.0 439.5 Q 1504.0 411.5 1504.0 380.5 L 1504.0 348.5 Z" fill="lightgray"></path>
      </clipPath>
      <path clip-path="url(#make-me-a-hanzi-clip-13)" d="M 1490.0 781.5 L 1507.0 773.5 L 1536.0 738.5 L 1526.0 417.5 L 1530.0 15.5 L 1524.0 -15.5 L 1507.0 -48.5 L 1375.0 2.5 " fill="none" id="make-me-a-hanzi-animation-13" stroke-dasharray="1126 2252" stroke-linecap="round"></path>

</g>
</svg>
