<svg version="1.1" viewBox="0 0 2048 1024" xmlns="http://www.w3.org/2000/svg">
  <g stroke="lightgray" stroke-dasharray="1,1" stroke-width="1" transform="scale(4, 4)">
    <line x1="0" y1="0" x2="256" y2="256"></line>
    <line x1="256" y1="0" x2="0" y2="256"></line>
    <line x1="128" y1="0" x2="128" y2="256"></line>
    <line x1="0" y1="128" x2="256" y2="128"></line>
    <line x1="256" y1="0" x2="512" y2="256"></line>
    <line x1="512" y1="0" x2="256" y2="256"></line>
    <line x1="384" y1="0" x2="384" y2="256"></line>
    <line x1="256" y1="128" x2="512" y2="128"></line>
  </g>
<g transform="scale(1, -1) translate(0, -850)">
   <style type="text/css">
    @keyframes keyframes0 {
      from {
       stroke: black;
       stroke-dashoffset: 466;
       stroke-width: 128;
       }
       60% {
       animation-timing-function: step-end;
       stroke: black;
       stroke-dashoffset: 0;
       stroke-width: 128;
       }
       to {
       stroke: black;
       stroke-width: 1024;
       }
       }
       #make-me-a-hanzi-animation-0 {
         animation: keyframes0 0.629232s both;
         animation-delay: 0.000000s;
         animation-timing-function: linear;
       }
    @keyframes keyframes1 {
      from {
       stroke: black;
       stroke-dashoffset: 885;
       stroke-width: 128;
       }
       74% {
       animation-timing-function: step-end;
       stroke: black;
       stroke-dashoffset: 0;
       stroke-width: 128;
       }
       to {
       stroke: black;
       stroke-width: 1024;
       }
       }
       #make-me-a-hanzi-animation-1 {
         animation: keyframes1 0.970215s both;
         animation-delay: 0.629232s;
         animation-timing-function: linear;
       }
    @keyframes keyframes2 {
      from {
       stroke: black;
       stroke-dashoffset: 687;
       stroke-width: 128;
       }
       69% {
       animation-timing-function: step-end;
       stroke: black;
       stroke-dashoffset: 0;
       stroke-width: 128;
       }
       to {
       stroke: black;
       stroke-width: 1024;
       }
       }
       #make-me-a-hanzi-animation-2 {
         animation: keyframes2 0.809082s both;
         animation-delay: 1.599447s;
         animation-timing-function: linear;
       }
    @keyframes keyframes3 {
      from {
       stroke: black;
       stroke-dashoffset: 989;
       stroke-width: 128;
       }
       76% {
       animation-timing-function: step-end;
       stroke: black;
       stroke-dashoffset: 0;
       stroke-width: 128;
       }
       to {
       stroke: black;
       stroke-width: 1024;
       }
       }
       #make-me-a-hanzi-animation-3 {
         animation: keyframes3 1.054850s both;
         animation-delay: 2.408529s;
         animation-timing-function: linear;
       }
    @keyframes keyframes4 {
      from {
       stroke: black;
       stroke-dashoffset: 934;
       stroke-width: 128;
       }
       75% {
       animation-timing-function: step-end;
       stroke: black;
       stroke-dashoffset: 0;
       stroke-width: 128;
       }
       to {
       stroke: black;
       stroke-width: 1024;
       }
       }
       #make-me-a-hanzi-animation-4 {
         animation: keyframes4 1.010091s both;
         animation-delay: 3.463379s;
         animation-timing-function: linear;
       }
    @keyframes keyframes5 {
      from {
       stroke: black;
       stroke-dashoffset: 773;
       stroke-width: 128;
       }
       72% {
       animation-timing-function: step-end;
       stroke: black;
       stroke-dashoffset: 0;
       stroke-width: 128;
       }
       to {
       stroke: black;
       stroke-width: 1024;
       }
       }
       #make-me-a-hanzi-animation-5 {
         animation: keyframes5 0.879069s both;
         animation-delay: 4.473470s;
         animation-timing-function: linear;
       }
    @keyframes keyframes6 {
      from {
       stroke: black;
       stroke-dashoffset: 493;
       stroke-width: 128;
       }
       62% {
       animation-timing-function: step-end;
       stroke: black;
       stroke-dashoffset: 0;
       stroke-width: 128;
       }
       to {
       stroke: black;
       stroke-width: 1024;
       }
       }
       #make-me-a-hanzi-animation-6 {
         animation: keyframes6 0.651204s both;
         animation-delay: 5.352539s;
         animation-timing-function: linear;
       }
    @keyframes keyframes7 {
      from {
       stroke: black;
       stroke-dashoffset: 917;
       stroke-width: 128;
       }
       75% {
       animation-timing-function: step-end;
       stroke: black;
       stroke-dashoffset: 0;
       stroke-width: 128;
       }
       to {
       stroke: black;
       stroke-width: 1024;
       }
       }
       #make-me-a-hanzi-animation-7 {
         animation: keyframes7 0.996257s both;
         animation-delay: 6.003743s;
         animation-timing-function: linear;
       }
    @keyframes keyframes8 {
      from {
       stroke: black;
       stroke-dashoffset: 1103;
       stroke-width: 128;
       }
       78% {
       animation-timing-function: step-end;
       stroke: black;
       stroke-dashoffset: 0;
       stroke-width: 128;
       }
       to {
       stroke: black;
       stroke-width: 1024;
       }
       }
       #make-me-a-hanzi-animation-8 {
         animation: keyframes8 1.147624s both;
         animation-delay: 7.000000s;
         animation-timing-function: linear;
       }
    @keyframes keyframes9 {
      from {
       stroke: black;
       stroke-dashoffset: 331;
       stroke-width: 128;
       }
       52% {
       animation-timing-function: step-end;
       stroke: black;
       stroke-dashoffset: 0;
       stroke-width: 128;
       }
       to {
       stroke: black;
       stroke-width: 1024;
       }
       }
       #make-me-a-hanzi-animation-9 {
         animation: keyframes9 0.519368s both;
         animation-delay: 8.147624s;
         animation-timing-function: linear;
       }
    @keyframes keyframes10 {
      from {
       stroke: black;
       stroke-dashoffset: 360;
       stroke-width: 128;
       }
       54% {
       animation-timing-function: step-end;
       stroke: black;
       stroke-dashoffset: 0;
       stroke-width: 128;
       }
       to {
       stroke: black;
       stroke-width: 1024;
       }
       }
       #make-me-a-hanzi-animation-10 {
         animation: keyframes10 0.542969s both;
         animation-delay: 8.666992s;
         animation-timing-function: linear;
       }
    @keyframes keyframes11 {
      from {
       stroke: black;
       stroke-dashoffset: 582;
       stroke-width: 128;
       }
       65% {
       animation-timing-function: step-end;
       stroke: black;
       stroke-dashoffset: 0;
       stroke-width: 128;
       }
       to {
       stroke: black;
       stroke-width: 1024;
       }
       }
       #make-me-a-hanzi-animation-11 {
         animation: keyframes11 0.723633s both;
         animation-delay: 9.209961s;
         animation-timing-function: linear;
       }
    @keyframes keyframes12 {
      from {
       stroke: black;
       stroke-dashoffset: 664;
       stroke-width: 128;
       }
       68% {
       animation-timing-function: step-end;
       stroke: black;
       stroke-dashoffset: 0;
       stroke-width: 128;
       }
       to {
       stroke: black;
       stroke-width: 1024;
       }
       }
       #make-me-a-hanzi-animation-12 {
         animation: keyframes12 0.790365s both;
         animation-delay: 9.933594s;
         animation-timing-function: linear;
       }
    @keyframes keyframes13 {
      from {
       stroke: black;
       stroke-dashoffset: 876;
       stroke-width: 128;
       }
       74% {
       animation-timing-function: step-end;
       stroke: black;
       stroke-dashoffset: 0;
       stroke-width: 128;
       }
       to {
       stroke: black;
       stroke-width: 1024;
       }
       }
       #make-me-a-hanzi-animation-13 {
         animation: keyframes13 0.962891s both;
         animation-delay: 10.723959s;
         animation-timing-function: linear;
       }
    @keyframes keyframes14 {
      from {
       stroke: black;
       stroke-dashoffset: 875;
       stroke-width: 128;
       }
       74% {
       animation-timing-function: step-end;
       stroke: black;
       stroke-dashoffset: 0;
       stroke-width: 128;
       }
       to {
       stroke: black;
       stroke-width: 1024;
       }
       }
       #make-me-a-hanzi-animation-14 {
         animation: keyframes14 0.962077s both;
         animation-delay: 11.686850s;
         animation-timing-function: linear;
       }
    @keyframes keyframes15 {
      from {
       stroke: black;
       stroke-dashoffset: 976;
       stroke-width: 128;
       }
       76% {
       animation-timing-function: step-end;
       stroke: black;
       stroke-dashoffset: 0;
       stroke-width: 128;
       }
       to {
       stroke: black;
       stroke-width: 1024;
       }
       }
       #make-me-a-hanzi-animation-15 {
         animation: keyframes15 1.044271s both;
         animation-delay: 12.648927s;
         animation-timing-function: linear;
       }
</style>
<path d="M 280.5 703.0 Q 270.5 728.0 258.5 736.0 Q 239.5 752.0 236.5 725.0 Q 242.5 688.0 189.5 630.0 Q 152.5 596.0 180.5 531.0 Q 195.5 503.0 216.5 531.0 Q 235.5 556.0 249.5 596.0 Q 265.5 642.0 278.5 670.0 C 286.5 688.0 286.5 688.0 280.5 703.0 Z" fill="lightgray"></path> 
<path d="M 278.5 670.0 Q 299.5 660.0 358.5 673.0 Q 508.5 709.0 678.5 722.0 Q 700.5 723.0 710.5 721.0 Q 726.5 712.0 724.5 705.0 Q 724.5 701.0 684.5 627.0 Q 675.5 614.0 682.5 609.0 Q 689.5 605.0 707.5 615.0 Q 765.5 652.0 814.5 663.0 Q 854.5 673.0 853.5 683.0 Q 852.5 693.0 781.5 750.0 Q 756.5 771.0 661.5 753.0 Q 583.5 747.0 374.5 715.0 Q 326.5 708.0 280.5 703.0 C 250.5 700.0 249.5 676.0 278.5 670.0 Z" fill="lightgray"></path> 
<path d="M 442.5 470.0 Q 697.5 513.0 711.5 523.0 Q 720.5 530.0 716.5 540.0 Q 709.5 553.0 679.5 561.0 Q 649.5 568.0 618.5 557.0 Q 548.5 535.0 471.5 519.0 Q 468.5 519.0 465.5 518.0 L 408.5 508.0 Q 350.5 502.0 288.5 497.0 Q 251.5 493.0 277.5 474.0 Q 316.5 447.0 379.5 460.0 Q 382.5 461.0 390.5 461.0 L 442.5 470.0 Z" fill="lightgray"></path> 
<path d="M 536.5 299.0 Q 605.5 308.0 650.5 310.0 Q 690.5 311.0 693.5 323.0 Q 694.5 336.0 665.5 355.0 Q 646.5 367.0 538.5 345.0 L 490.5 335.0 L 387.5 320.0 Q 372.5 319.0 371.5 322.0 Q 370.5 325.0 376.5 337.0 L 442.5 470.0 L 465.5 518.0 Q 484.5 567.0 507.5 584.0 Q 526.5 597.0 516.5 609.0 Q 468.5 660.0 442.5 659.0 Q 432.5 659.0 437.5 638.0 Q 443.5 605.0 408.5 508.0 L 390.5 461.0 Q 351.5 365.0 307.5 331.0 Q 286.5 316.0 299.5 270.0 Q 303.5 254.0 320.5 260.0 Q 383.5 281.0 490.5 293.0 L 536.5 299.0 Z" fill="lightgray"></path> 
<path d="M 488.5 197.0 Q 347.5 184.0 184.5 166.0 Q 159.5 165.0 177.5 143.0 Q 193.5 127.0 215.5 120.0 Q 240.5 113.0 259.5 118.0 Q 358.5 142.0 469.5 151.0 Q 476.5 152.0 486.5 152.0 L 535.5 157.0 Q 688.5 169.0 834.5 159.0 Q 858.5 159.0 864.5 169.0 Q 871.5 182.0 851.5 199.0 Q 790.5 247.0 746.5 238.0 Q 664.5 222.0 535.5 204.0 L 488.5 197.0 Z" fill="lightgray"></path> 
<path d="M 538.5 345.0 Q 539.5 370.0 543.5 385.0 Q 546.5 397.0 539.5 403.0 Q 517.5 422.0 498.5 432.0 Q 486.5 436.0 477.5 429.0 Q 471.5 425.0 478.5 416.0 Q 488.5 398.0 490.5 335.0 L 490.5 293.0 Q 490.5 245.0 488.5 197.0 L 486.5 152.0 Q 477.5 35.0 470.5 15.0 Q 461.5 -21.0 494.5 -72.0 Q 504.5 -90.0 513.5 -94.0 Q 523.5 -95.0 529.5 -83.0 Q 541.5 -52.0 538.5 -22.0 Q 535.5 72.0 535.5 157.0 L 535.5 204.0 Q 535.5 252.0 536.5 299.0 L 538.5 345.0 Z" fill="lightgray"></path> 
<path d="M 1291.0 553.0 Q 1405.0 686.0 1424.0 700.0 Q 1442.0 715.0 1428.0 729.0 Q 1412.0 742.0 1383.0 750.0 Q 1358.0 757.0 1346.0 752.0 Q 1333.0 748.0 1341.0 735.0 Q 1351.0 710.0 1273.0 556.0 Q 1272.0 552.0 1271.0 549.0 C 1262.0 520.0 1271.0 530.0 1291.0 553.0 Z" fill="lightgray"></path> 
<path d="M 1265.0 547.0 Q 1249.0 560.0 1223.0 568.0 Q 1205.0 575.0 1195.0 570.0 Q 1185.0 563.0 1192.0 551.0 Q 1210.0 533.0 1216.0 460.0 Q 1216.0 453.0 1217.0 443.0 Q 1221.0 367.0 1217.0 297.0 L 1212.0 249.0 Q 1197.0 111.0 1113.0 -50.0 Q 1109.0 -56.0 1108.0 -62.0 Q 1107.0 -72.0 1116.0 -68.0 Q 1128.0 -67.0 1160.0 -17.0 Q 1232.0 82.0 1258.0 259.0 Q 1258.0 262.0 1259.0 265.0 L 1263.0 308.0 Q 1266.0 359.0 1267.0 487.0 Q 1267.0 503.0 1269.0 519.0 C 1271.0 543.0 1271.0 543.0 1265.0 547.0 Z" fill="lightgray"></path> 
<path d="M 1395.0 314.0 Q 1399.0 38.0 1383.0 10.0 Q 1379.0 4.0 1358.0 9.0 Q 1330.0 13.0 1300.0 18.0 Q 1281.0 22.0 1283.0 14.0 Q 1344.0 -26.0 1380.0 -57.0 Q 1393.0 -73.0 1407.0 -78.0 Q 1414.0 -81.0 1422.0 -72.0 Q 1458.0 -26.0 1453.0 23.0 Q 1426.0 456.0 1445.0 516.0 Q 1446.0 522.0 1449.0 526.0 Q 1459.0 544.0 1449.0 553.0 Q 1430.0 569.0 1396.0 583.0 Q 1380.0 590.0 1366.0 583.0 Q 1342.0 568.0 1291.0 553.0 L 1271.0 549.0 Q 1267.0 549.0 1265.0 547.0 C 1236.0 540.0 1240.0 511.0 1269.0 519.0 Q 1278.0 522.0 1357.0 541.0 Q 1375.0 545.0 1380.0 536.0 Q 1389.0 512.0 1394.0 341.0 L 1395.0 314.0 Z" fill="lightgray"></path> 
<path d="M 1294.0 449.0 Q 1316.0 385.0 1337.0 377.0 Q 1347.0 373.0 1358.0 385.0 Q 1362.0 395.0 1361.0 415.0 Q 1352.0 442.0 1305.0 470.0 Q 1298.0 474.0 1294.0 464.0 Q 1290.0 458.0 1294.0 449.0 Z" fill="lightgray"></path> 
<path d="M 1292.0 194.0 Q 1307.0 172.0 1322.0 144.0 Q 1329.0 131.0 1341.0 128.0 Q 1348.0 127.0 1355.0 135.0 Q 1362.0 145.0 1362.0 169.0 Q 1362.0 185.0 1342.0 202.0 Q 1294.0 239.0 1282.0 236.0 Q 1278.0 235.0 1276.0 225.0 Q 1276.0 215.0 1292.0 194.0 Z" fill="lightgray"></path> 
<path d="M 1259.0 265.0 Q 1389.0 313.0 1395.0 314.0 C 1424.0 323.0 1423.0 348.0 1394.0 341.0 Q 1331.0 326.0 1263.0 308.0 L 1217.0 297.0 Q 1177.0 290.0 1136.0 280.0 Q 1115.0 276.0 1083.0 278.0 Q 1070.0 277.0 1068.0 268.0 Q 1065.0 255.0 1074.0 247.0 Q 1093.0 231.0 1124.0 210.0 Q 1134.0 207.0 1146.0 214.0 Q 1177.0 235.0 1212.0 249.0 L 1259.0 265.0 Z" fill="lightgray"></path> 
<path d="M 1556.0 615.0 Q 1537.0 628.0 1517.0 635.0 Q 1508.0 636.0 1503.0 629.0 Q 1500.0 625.0 1506.0 614.0 Q 1533.0 557.0 1519.0 366.0 Q 1515.0 335.0 1505.0 303.0 Q 1498.0 281.0 1502.0 263.0 Q 1509.0 233.0 1520.0 221.0 Q 1530.0 209.0 1539.0 222.0 Q 1563.0 250.0 1564.0 358.0 Q 1564.0 532.0 1572.0 588.0 C 1574.0 604.0 1574.0 604.0 1556.0 615.0 Z" fill="lightgray"></path> 
<path d="M 1738.0 298.0 Q 1731.0 274.0 1745.0 253.0 Q 1758.0 223.0 1768.0 224.0 Q 1783.0 225.0 1799.0 258.0 Q 1812.0 285.0 1812.0 306.0 Q 1800.0 394.0 1802.0 534.0 Q 1802.0 574.0 1824.0 609.0 Q 1834.0 625.0 1826.0 634.0 Q 1798.0 656.0 1750.0 675.0 Q 1732.0 681.0 1660.0 644.0 Q 1575.0 620.0 1556.0 615.0 C 1527.0 607.0 1543.0 579.0 1572.0 588.0 Q 1716.0 633.0 1730.0 628.0 L 1732.0 627.0 Q 1742.0 602.0 1747.0 536.0 Q 1750.0 337.0 1738.0 298.0 Z" fill="lightgray"></path> 
<path d="M 1656.0 278.0 Q 1663.0 336.0 1671.0 430.0 Q 1672.0 464.0 1687.0 503.0 Q 1691.0 513.0 1684.0 519.0 Q 1636.0 558.0 1608.0 549.0 Q 1592.0 542.0 1605.0 528.0 Q 1627.0 503.0 1627.0 478.0 Q 1627.0 351.0 1611.0 267.0 Q 1584.0 125.0 1491.0 26.0 Q 1464.0 5.0 1463.0 -1.0 Q 1459.0 -7.0 1473.0 -5.0 Q 1501.0 -5.0 1564.0 59.0 Q 1615.0 113.0 1649.0 244.0 L 1656.0 278.0 Z" fill="lightgray"></path> 
<path d="M 1996.0 -13.0 Q 1978.0 33.0 1968.0 112.0 Q 1967.0 127.0 1959.0 132.0 Q 1952.0 136.0 1948.0 117.0 Q 1933.0 20.0 1919.0 2.0 Q 1897.0 -22.0 1805.0 -27.0 Q 1756.0 -26.0 1733.0 -18.0 Q 1714.0 -9.0 1709.0 3.0 Q 1700.0 28.0 1702.0 94.0 Q 1706.0 164.0 1721.0 199.0 Q 1733.0 227.0 1715.0 244.0 Q 1672.0 277.0 1656.0 278.0 C 1636.0 286.0 1640.0 273.0 1649.0 244.0 Q 1662.0 213.0 1659.0 166.0 Q 1653.0 0.0 1679.0 -33.0 Q 1698.0 -58.0 1760.0 -69.0 Q 1808.0 -76.0 1884.0 -74.0 Q 1951.0 -73.0 1979.0 -58.0 Q 2007.0 -43.0 1996.0 -13.0 Z" fill="lightgray"></path> 
      <clipPath id="make-me-a-hanzi-clip-0">
      <path d="M 280.5 703.0 Q 270.5 728.0 258.5 736.0 Q 239.5 752.0 236.5 725.0 Q 242.5 688.0 189.5 630.0 Q 152.5 596.0 180.5 531.0 Q 195.5 503.0 216.5 531.0 Q 235.5 556.0 249.5 596.0 Q 265.5 642.0 278.5 670.0 C 286.5 688.0 286.5 688.0 280.5 703.0 Z" fill="lightgray"></path>
      </clipPath>
      <path clip-path="url(#make-me-a-hanzi-clip-0)" d="M 247.5 730.0 L 257.5 699.0 L 253.5 677.0 L 207.5 591.0 L 197.5 534.0 " fill="none" id="make-me-a-hanzi-animation-0" stroke-dasharray="338 676" stroke-linecap="round"></path>

      <clipPath id="make-me-a-hanzi-clip-1">
      <path d="M 278.5 670.0 Q 299.5 660.0 358.5 673.0 Q 508.5 709.0 678.5 722.0 Q 700.5 723.0 710.5 721.0 Q 726.5 712.0 724.5 705.0 Q 724.5 701.0 684.5 627.0 Q 675.5 614.0 682.5 609.0 Q 689.5 605.0 707.5 615.0 Q 765.5 652.0 814.5 663.0 Q 854.5 673.0 853.5 683.0 Q 852.5 693.0 781.5 750.0 Q 756.5 771.0 661.5 753.0 Q 583.5 747.0 374.5 715.0 Q 326.5 708.0 280.5 703.0 C 250.5 700.0 249.5 676.0 278.5 670.0 Z" fill="lightgray"></path>
      </clipPath>
      <path clip-path="url(#make-me-a-hanzi-clip-1)" d="M 284.5 675.0 L 298.5 685.0 L 552.5 726.0 L 697.5 741.0 L 743.5 732.0 L 758.5 721.0 L 770.5 699.0 L 687.5 615.0 " fill="none" id="make-me-a-hanzi-animation-1" stroke-dasharray="757 1514" stroke-linecap="round"></path>

      <clipPath id="make-me-a-hanzi-clip-2">
      <path d="M 442.5 470.0 Q 697.5 513.0 711.5 523.0 Q 720.5 530.0 716.5 540.0 Q 709.5 553.0 679.5 561.0 Q 649.5 568.0 618.5 557.0 Q 548.5 535.0 471.5 519.0 Q 468.5 519.0 465.5 518.0 L 408.5 508.0 Q 350.5 502.0 288.5 497.0 Q 251.5 493.0 277.5 474.0 Q 316.5 447.0 379.5 460.0 Q 382.5 461.0 390.5 461.0 L 442.5 470.0 Z" fill="lightgray"></path>
      </clipPath>
      <path clip-path="url(#make-me-a-hanzi-clip-2)" d="M 280.5 487.0 L 325.5 478.0 L 367.5 480.0 L 479.5 497.0 L 656.5 537.0 L 704.5 534.0 " fill="none" id="make-me-a-hanzi-animation-2" stroke-dasharray="559 1118" stroke-linecap="round"></path>

      <clipPath id="make-me-a-hanzi-clip-3">
      <path d="M 536.5 299.0 Q 605.5 308.0 650.5 310.0 Q 690.5 311.0 693.5 323.0 Q 694.5 336.0 665.5 355.0 Q 646.5 367.0 538.5 345.0 L 490.5 335.0 L 387.5 320.0 Q 372.5 319.0 371.5 322.0 Q 370.5 325.0 376.5 337.0 L 442.5 470.0 L 465.5 518.0 Q 484.5 567.0 507.5 584.0 Q 526.5 597.0 516.5 609.0 Q 468.5 660.0 442.5 659.0 Q 432.5 659.0 437.5 638.0 Q 443.5 605.0 408.5 508.0 L 390.5 461.0 Q 351.5 365.0 307.5 331.0 Q 286.5 316.0 299.5 270.0 Q 303.5 254.0 320.5 260.0 Q 383.5 281.0 490.5 293.0 L 536.5 299.0 Z" fill="lightgray"></path>
      </clipPath>
      <path clip-path="url(#make-me-a-hanzi-clip-3)" d="M 445.5 649.0 L 472.5 602.0 L 401.5 432.0 L 336.5 305.0 L 374.5 297.0 L 632.5 334.0 L 684.5 325.0 " fill="none" id="make-me-a-hanzi-animation-3" stroke-dasharray="861 1722" stroke-linecap="round"></path>

      <clipPath id="make-me-a-hanzi-clip-4">
      <path d="M 488.5 197.0 Q 347.5 184.0 184.5 166.0 Q 159.5 165.0 177.5 143.0 Q 193.5 127.0 215.5 120.0 Q 240.5 113.0 259.5 118.0 Q 358.5 142.0 469.5 151.0 Q 476.5 152.0 486.5 152.0 L 535.5 157.0 Q 688.5 169.0 834.5 159.0 Q 858.5 159.0 864.5 169.0 Q 871.5 182.0 851.5 199.0 Q 790.5 247.0 746.5 238.0 Q 664.5 222.0 535.5 204.0 L 488.5 197.0 Z" fill="lightgray"></path>
      </clipPath>
      <path clip-path="url(#make-me-a-hanzi-clip-4)" d="M 181.5 154.0 L 248.5 144.0 L 440.5 171.0 L 756.5 201.0 L 787.5 198.0 L 851.5 176.0 " fill="none" id="make-me-a-hanzi-animation-4" stroke-dasharray="806 1612" stroke-linecap="round"></path>

      <clipPath id="make-me-a-hanzi-clip-5">
      <path d="M 538.5 345.0 Q 539.5 370.0 543.5 385.0 Q 546.5 397.0 539.5 403.0 Q 517.5 422.0 498.5 432.0 Q 486.5 436.0 477.5 429.0 Q 471.5 425.0 478.5 416.0 Q 488.5 398.0 490.5 335.0 L 490.5 293.0 Q 490.5 245.0 488.5 197.0 L 486.5 152.0 Q 477.5 35.0 470.5 15.0 Q 461.5 -21.0 494.5 -72.0 Q 504.5 -90.0 513.5 -94.0 Q 523.5 -95.0 529.5 -83.0 Q 541.5 -52.0 538.5 -22.0 Q 535.5 72.0 535.5 157.0 L 535.5 204.0 Q 535.5 252.0 536.5 299.0 L 538.5 345.0 Z" fill="lightgray"></path>
      </clipPath>
      <path clip-path="url(#make-me-a-hanzi-clip-5)" d="M 485.5 423.0 L 515.5 387.0 L 503.5 -11.0 L 515.5 -82.0 " fill="none" id="make-me-a-hanzi-animation-5" stroke-dasharray="645 1290" stroke-linecap="round"></path>

      <clipPath id="make-me-a-hanzi-clip-6">
      <path d="M 1291.0 553.0 Q 1405.0 686.0 1424.0 700.0 Q 1442.0 715.0 1428.0 729.0 Q 1412.0 742.0 1383.0 750.0 Q 1358.0 757.0 1346.0 752.0 Q 1333.0 748.0 1341.0 735.0 Q 1351.0 710.0 1273.0 556.0 Q 1272.0 552.0 1271.0 549.0 C 1262.0 520.0 1271.0 530.0 1291.0 553.0 Z" fill="lightgray"></path>
      </clipPath>
      <path clip-path="url(#make-me-a-hanzi-clip-6)" d="M 1347.0 742.0 L 1370.0 726.0 L 1379.0 710.0 L 1301.0 588.0 L 1294.0 568.0 L 1276.0 551.0 " fill="none" id="make-me-a-hanzi-animation-6" stroke-dasharray="365 730" stroke-linecap="round"></path>

      <clipPath id="make-me-a-hanzi-clip-7">
      <path d="M 1265.0 547.0 Q 1249.0 560.0 1223.0 568.0 Q 1205.0 575.0 1195.0 570.0 Q 1185.0 563.0 1192.0 551.0 Q 1210.0 533.0 1216.0 460.0 Q 1216.0 453.0 1217.0 443.0 Q 1221.0 367.0 1217.0 297.0 L 1212.0 249.0 Q 1197.0 111.0 1113.0 -50.0 Q 1109.0 -56.0 1108.0 -62.0 Q 1107.0 -72.0 1116.0 -68.0 Q 1128.0 -67.0 1160.0 -17.0 Q 1232.0 82.0 1258.0 259.0 Q 1258.0 262.0 1259.0 265.0 L 1263.0 308.0 Q 1266.0 359.0 1267.0 487.0 Q 1267.0 503.0 1269.0 519.0 C 1271.0 543.0 1271.0 543.0 1265.0 547.0 Z" fill="lightgray"></path>
      </clipPath>
      <path clip-path="url(#make-me-a-hanzi-clip-7)" d="M 1202.0 559.0 L 1224.0 544.0 L 1238.0 522.0 L 1243.0 372.0 L 1233.0 235.0 L 1211.0 137.0 L 1187.0 67.0 L 1145.0 -20.0 L 1116.0 -60.0 " fill="none" id="make-me-a-hanzi-animation-7" stroke-dasharray="789 1578" stroke-linecap="round"></path>

      <clipPath id="make-me-a-hanzi-clip-8">
      <path d="M 1395.0 314.0 Q 1399.0 38.0 1383.0 10.0 Q 1379.0 4.0 1358.0 9.0 Q 1330.0 13.0 1300.0 18.0 Q 1281.0 22.0 1283.0 14.0 Q 1344.0 -26.0 1380.0 -57.0 Q 1393.0 -73.0 1407.0 -78.0 Q 1414.0 -81.0 1422.0 -72.0 Q 1458.0 -26.0 1453.0 23.0 Q 1426.0 456.0 1445.0 516.0 Q 1446.0 522.0 1449.0 526.0 Q 1459.0 544.0 1449.0 553.0 Q 1430.0 569.0 1396.0 583.0 Q 1380.0 590.0 1366.0 583.0 Q 1342.0 568.0 1291.0 553.0 L 1271.0 549.0 Q 1267.0 549.0 1265.0 547.0 C 1236.0 540.0 1240.0 511.0 1269.0 519.0 Q 1278.0 522.0 1357.0 541.0 Q 1375.0 545.0 1380.0 536.0 Q 1389.0 512.0 1394.0 341.0 L 1395.0 314.0 Z" fill="lightgray"></path>
      </clipPath>
      <path clip-path="url(#make-me-a-hanzi-clip-8)" d="M 1270.0 526.0 L 1281.0 537.0 L 1378.0 564.0 L 1406.0 548.0 L 1416.0 534.0 L 1413.0 402.0 L 1423.0 115.0 L 1419.0 5.0 L 1404.0 -25.0 L 1370.0 -18.0 L 1292.0 12.0 " fill="none" id="make-me-a-hanzi-animation-8" stroke-dasharray="975 1950" stroke-linecap="round"></path>

      <clipPath id="make-me-a-hanzi-clip-9">
      <path d="M 1294.0 449.0 Q 1316.0 385.0 1337.0 377.0 Q 1347.0 373.0 1358.0 385.0 Q 1362.0 395.0 1361.0 415.0 Q 1352.0 442.0 1305.0 470.0 Q 1298.0 474.0 1294.0 464.0 Q 1290.0 458.0 1294.0 449.0 Z" fill="lightgray"></path>
      </clipPath>
      <path clip-path="url(#make-me-a-hanzi-clip-9)" d="M 1305.0 457.0 L 1339.0 407.0 L 1342.0 393.0 " fill="none" id="make-me-a-hanzi-animation-9" stroke-dasharray="203 406" stroke-linecap="round"></path>

      <clipPath id="make-me-a-hanzi-clip-10">
      <path d="M 1292.0 194.0 Q 1307.0 172.0 1322.0 144.0 Q 1329.0 131.0 1341.0 128.0 Q 1348.0 127.0 1355.0 135.0 Q 1362.0 145.0 1362.0 169.0 Q 1362.0 185.0 1342.0 202.0 Q 1294.0 239.0 1282.0 236.0 Q 1278.0 235.0 1276.0 225.0 Q 1276.0 215.0 1292.0 194.0 Z" fill="lightgray"></path>
      </clipPath>
      <path clip-path="url(#make-me-a-hanzi-clip-10)" d="M 1285.0 227.0 L 1331.0 180.0 L 1342.0 143.0 " fill="none" id="make-me-a-hanzi-animation-10" stroke-dasharray="232 464" stroke-linecap="round"></path>

      <clipPath id="make-me-a-hanzi-clip-11">
      <path d="M 1259.0 265.0 Q 1389.0 313.0 1395.0 314.0 C 1424.0 323.0 1423.0 348.0 1394.0 341.0 Q 1331.0 326.0 1263.0 308.0 L 1217.0 297.0 Q 1177.0 290.0 1136.0 280.0 Q 1115.0 276.0 1083.0 278.0 Q 1070.0 277.0 1068.0 268.0 Q 1065.0 255.0 1074.0 247.0 Q 1093.0 231.0 1124.0 210.0 Q 1134.0 207.0 1146.0 214.0 Q 1177.0 235.0 1212.0 249.0 L 1259.0 265.0 Z" fill="lightgray"></path>
      </clipPath>
      <path clip-path="url(#make-me-a-hanzi-clip-11)" d="M 1082.0 264.0 L 1132.0 245.0 L 1188.0 267.0 L 1371.0 320.0 L 1388.0 334.0 " fill="none" id="make-me-a-hanzi-animation-11" stroke-dasharray="454 908" stroke-linecap="round"></path>

      <clipPath id="make-me-a-hanzi-clip-12">
      <path d="M 1556.0 615.0 Q 1537.0 628.0 1517.0 635.0 Q 1508.0 636.0 1503.0 629.0 Q 1500.0 625.0 1506.0 614.0 Q 1533.0 557.0 1519.0 366.0 Q 1515.0 335.0 1505.0 303.0 Q 1498.0 281.0 1502.0 263.0 Q 1509.0 233.0 1520.0 221.0 Q 1530.0 209.0 1539.0 222.0 Q 1563.0 250.0 1564.0 358.0 Q 1564.0 532.0 1572.0 588.0 C 1574.0 604.0 1574.0 604.0 1556.0 615.0 Z" fill="lightgray"></path>
      </clipPath>
      <path clip-path="url(#make-me-a-hanzi-clip-12)" d="M 1514.0 623.0 L 1539.0 596.0 L 1545.0 557.0 L 1543.0 369.0 L 1529.0 280.0 L 1529.0 226.0 " fill="none" id="make-me-a-hanzi-animation-12" stroke-dasharray="536 1072" stroke-linecap="round"></path>

      <clipPath id="make-me-a-hanzi-clip-13">
      <path d="M 1738.0 298.0 Q 1731.0 274.0 1745.0 253.0 Q 1758.0 223.0 1768.0 224.0 Q 1783.0 225.0 1799.0 258.0 Q 1812.0 285.0 1812.0 306.0 Q 1800.0 394.0 1802.0 534.0 Q 1802.0 574.0 1824.0 609.0 Q 1834.0 625.0 1826.0 634.0 Q 1798.0 656.0 1750.0 675.0 Q 1732.0 681.0 1660.0 644.0 Q 1575.0 620.0 1556.0 615.0 C 1527.0 607.0 1543.0 579.0 1572.0 588.0 Q 1716.0 633.0 1730.0 628.0 L 1732.0 627.0 Q 1742.0 602.0 1747.0 536.0 Q 1750.0 337.0 1738.0 298.0 Z" fill="lightgray"></path>
      </clipPath>
      <path clip-path="url(#make-me-a-hanzi-clip-13)" d="M 1561.0 609.0 L 1583.0 605.0 L 1731.0 651.0 L 1748.0 648.0 L 1779.0 615.0 L 1773.0 549.0 L 1776.0 301.0 L 1769.0 236.0 " fill="none" id="make-me-a-hanzi-animation-13" stroke-dasharray="748 1496" stroke-linecap="round"></path>

      <clipPath id="make-me-a-hanzi-clip-14">
      <path d="M 1656.0 278.0 Q 1663.0 336.0 1671.0 430.0 Q 1672.0 464.0 1687.0 503.0 Q 1691.0 513.0 1684.0 519.0 Q 1636.0 558.0 1608.0 549.0 Q 1592.0 542.0 1605.0 528.0 Q 1627.0 503.0 1627.0 478.0 Q 1627.0 351.0 1611.0 267.0 Q 1584.0 125.0 1491.0 26.0 Q 1464.0 5.0 1463.0 -1.0 Q 1459.0 -7.0 1473.0 -5.0 Q 1501.0 -5.0 1564.0 59.0 Q 1615.0 113.0 1649.0 244.0 L 1656.0 278.0 Z" fill="lightgray"></path>
      </clipPath>
      <path clip-path="url(#make-me-a-hanzi-clip-14)" d="M 1610.0 538.0 L 1629.0 529.0 L 1654.0 503.0 L 1635.0 277.0 L 1622.0 221.0 L 1580.0 115.0 L 1545.0 61.0 L 1504.0 20.0 L 1469.0 -1.0 " fill="none" id="make-me-a-hanzi-animation-14" stroke-dasharray="747 1494" stroke-linecap="round"></path>

      <clipPath id="make-me-a-hanzi-clip-15">
      <path d="M 1996.0 -13.0 Q 1978.0 33.0 1968.0 112.0 Q 1967.0 127.0 1959.0 132.0 Q 1952.0 136.0 1948.0 117.0 Q 1933.0 20.0 1919.0 2.0 Q 1897.0 -22.0 1805.0 -27.0 Q 1756.0 -26.0 1733.0 -18.0 Q 1714.0 -9.0 1709.0 3.0 Q 1700.0 28.0 1702.0 94.0 Q 1706.0 164.0 1721.0 199.0 Q 1733.0 227.0 1715.0 244.0 Q 1672.0 277.0 1656.0 278.0 C 1636.0 286.0 1640.0 273.0 1649.0 244.0 Q 1662.0 213.0 1659.0 166.0 Q 1653.0 0.0 1679.0 -33.0 Q 1698.0 -58.0 1760.0 -69.0 Q 1808.0 -76.0 1884.0 -74.0 Q 1951.0 -73.0 1979.0 -58.0 Q 2007.0 -43.0 1996.0 -13.0 Z" fill="lightgray"></path>
      </clipPath>
      <path clip-path="url(#make-me-a-hanzi-clip-15)" d="M 1658.0 272.0 L 1691.0 219.0 L 1680.0 129.0 L 1685.0 10.0 L 1699.0 -22.0 L 1723.0 -38.0 L 1809.0 -51.0 L 1895.0 -44.0 L 1945.0 -29.0 L 1954.0 -22.0 L 1956.0 -8.0 L 1958.0 125.0 " fill="none" id="make-me-a-hanzi-animation-15" stroke-dasharray="848 1696" stroke-linecap="round"></path>

</g>
</svg>
