<svg version="1.1" viewBox="0 0 2048 1024" xmlns="http://www.w3.org/2000/svg">
  <g stroke="lightgray" stroke-dasharray="1,1" stroke-width="1" transform="scale(4, 4)">
    <line x1="0" y1="0" x2="256" y2="256"></line>
    <line x1="256" y1="0" x2="0" y2="256"></line>
    <line x1="128" y1="0" x2="128" y2="256"></line>
    <line x1="0" y1="128" x2="256" y2="128"></line>
    <line x1="256" y1="0" x2="512" y2="256"></line>
    <line x1="512" y1="0" x2="256" y2="256"></line>
    <line x1="384" y1="0" x2="384" y2="256"></line>
    <line x1="256" y1="128" x2="512" y2="128"></line>
  </g>
<g transform="scale(1, -1) translate(0, -850)">
   <style type="text/css">
    @keyframes keyframes0 {
      from {
       stroke: black;
       stroke-dashoffset: 436;
       stroke-width: 128;
       }
       59% {
       animation-timing-function: step-end;
       stroke: black;
       stroke-dashoffset: 0;
       stroke-width: 128;
       }
       to {
       stroke: black;
       stroke-width: 1024;
       }
       }
       #make-me-a-hanzi-animation-0 {
         animation: keyframes0 0.604818s both;
         animation-delay: 0.000000s;
         animation-timing-function: linear;
       }
    @keyframes keyframes1 {
      from {
       stroke: black;
       stroke-dashoffset: 580;
       stroke-width: 128;
       }
       65% {
       animation-timing-function: step-end;
       stroke: black;
       stroke-dashoffset: 0;
       stroke-width: 128;
       }
       to {
       stroke: black;
       stroke-width: 1024;
       }
       }
       #make-me-a-hanzi-animation-1 {
         animation: keyframes1 0.722005s both;
         animation-delay: 0.604818s;
         animation-timing-function: linear;
       }
    @keyframes keyframes2 {
      from {
       stroke: black;
       stroke-dashoffset: 519;
       stroke-width: 128;
       }
       63% {
       animation-timing-function: step-end;
       stroke: black;
       stroke-dashoffset: 0;
       stroke-width: 128;
       }
       to {
       stroke: black;
       stroke-width: 1024;
       }
       }
       #make-me-a-hanzi-animation-2 {
         animation: keyframes2 0.672363s both;
         animation-delay: 1.326823s;
         animation-timing-function: linear;
       }
    @keyframes keyframes3 {
      from {
       stroke: black;
       stroke-dashoffset: 856;
       stroke-width: 128;
       }
       74% {
       animation-timing-function: step-end;
       stroke: black;
       stroke-dashoffset: 0;
       stroke-width: 128;
       }
       to {
       stroke: black;
       stroke-width: 1024;
       }
       }
       #make-me-a-hanzi-animation-3 {
         animation: keyframes3 0.946615s both;
         animation-delay: 1.999186s;
         animation-timing-function: linear;
       }
    @keyframes keyframes4 {
      from {
       stroke: black;
       stroke-dashoffset: 635;
       stroke-width: 128;
       }
       67% {
       animation-timing-function: step-end;
       stroke: black;
       stroke-dashoffset: 0;
       stroke-width: 128;
       }
       to {
       stroke: black;
       stroke-width: 1024;
       }
       }
       #make-me-a-hanzi-animation-4 {
         animation: keyframes4 0.766764s both;
         animation-delay: 2.945801s;
         animation-timing-function: linear;
       }
    @keyframes keyframes5 {
      from {
       stroke: black;
       stroke-dashoffset: 1133;
       stroke-width: 128;
       }
       79% {
       animation-timing-function: step-end;
       stroke: black;
       stroke-dashoffset: 0;
       stroke-width: 128;
       }
       to {
       stroke: black;
       stroke-width: 1024;
       }
       }
       #make-me-a-hanzi-animation-5 {
         animation: keyframes5 1.172038s both;
         animation-delay: 3.712565s;
         animation-timing-function: linear;
       }
    @keyframes keyframes6 {
      from {
       stroke: black;
       stroke-dashoffset: 517;
       stroke-width: 128;
       }
       63% {
       animation-timing-function: step-end;
       stroke: black;
       stroke-dashoffset: 0;
       stroke-width: 128;
       }
       to {
       stroke: black;
       stroke-width: 1024;
       }
       }
       #make-me-a-hanzi-animation-6 {
         animation: keyframes6 0.670736s both;
         animation-delay: 4.884603s;
         animation-timing-function: linear;
       }
    @keyframes keyframes7 {
      from {
       stroke: black;
       stroke-dashoffset: 640;
       stroke-width: 128;
       }
       68% {
       animation-timing-function: step-end;
       stroke: black;
       stroke-dashoffset: 0;
       stroke-width: 128;
       }
       to {
       stroke: black;
       stroke-width: 1024;
       }
       }
       #make-me-a-hanzi-animation-7 {
         animation: keyframes7 0.770833s both;
         animation-delay: 5.555339s;
         animation-timing-function: linear;
       }
    @keyframes keyframes8 {
      from {
       stroke: black;
       stroke-dashoffset: 748;
       stroke-width: 128;
       }
       71% {
       animation-timing-function: step-end;
       stroke: black;
       stroke-dashoffset: 0;
       stroke-width: 128;
       }
       to {
       stroke: black;
       stroke-width: 1024;
       }
       }
       #make-me-a-hanzi-animation-8 {
         animation: keyframes8 0.858724s both;
         animation-delay: 6.326172s;
         animation-timing-function: linear;
       }
    @keyframes keyframes9 {
      from {
       stroke: black;
       stroke-dashoffset: 410;
       stroke-width: 128;
       }
       57% {
       animation-timing-function: step-end;
       stroke: black;
       stroke-dashoffset: 0;
       stroke-width: 128;
       }
       to {
       stroke: black;
       stroke-width: 1024;
       }
       }
       #make-me-a-hanzi-animation-9 {
         animation: keyframes9 0.583659s both;
         animation-delay: 7.184896s;
         animation-timing-function: linear;
       }
    @keyframes keyframes10 {
      from {
       stroke: black;
       stroke-dashoffset: 1189;
       stroke-width: 128;
       }
       79% {
       animation-timing-function: step-end;
       stroke: black;
       stroke-dashoffset: 0;
       stroke-width: 128;
       }
       to {
       stroke: black;
       stroke-width: 1024;
       }
       }
       #make-me-a-hanzi-animation-10 {
         animation: keyframes10 1.217611s both;
         animation-delay: 7.768555s;
         animation-timing-function: linear;
       }
    @keyframes keyframes11 {
      from {
       stroke: black;
       stroke-dashoffset: 1074;
       stroke-width: 128;
       }
       78% {
       animation-timing-function: step-end;
       stroke: black;
       stroke-dashoffset: 0;
       stroke-width: 128;
       }
       to {
       stroke: black;
       stroke-width: 1024;
       }
       }
       #make-me-a-hanzi-animation-11 {
         animation: keyframes11 1.124023s both;
         animation-delay: 8.986165s;
         animation-timing-function: linear;
       }
</style>
<path d="M 149 536 L 149 535 Q 149 527 161 515 Q 244 438 283 414 Q 291 410 297 410 Q 302 410 307 413 Q 316 420 316 435 Q 316 445 313 457 Q 307 478 298 485 Q 286 497 262 509 Q 227 527 167 542 L 163 542 Q 152 542 149 536 Z" fill="lightgray"></path> 
<path d="M 162 120 Q 150 124 143 127 Q 139 128 136 128 Q 126 128 126 114 L 126 112 Q 130 79 151 55 Q 173 30 188 27 L 192 27 Q 205 27 214 46 Q 228 79 249 118 L 336 268 Q 348 286 348 295 Q 348 297 347 299 Q 346 302 343 302 Q 339 302 332 295 L 187 132 Q 176 120 166 120 L 162 120 Z" fill="lightgray"></path> 
<path d="M 404 423 Q 390 428 372 429 Q 367 430 364 430 Q 357 430 355 426 Q 353 423 353 418 Q 353 412 358 402 Q 391 338 410 236 Q 414 203 432 184 Q 443 170 450 170 Q 455 170 458 178 Q 461 187 461 197 L 458 240 Q 457 243 457 246 Q 436 355 433 386 C 430 415 430 415 404 423 Z" fill="lightgray"></path> 
<path d="M 818 264 L 840 317 Q 857 359 887 383 Q 899 392 899 403 Q 899 415 881 429 Q 852 453 825 472 Q 814 479 802 479 Q 792 479 781 474 Q 751 464 697 458 L 637 452 L 577 445 Q 542 440 506 434 Q 446 424 404 423 C 374 422 404 380 433 386 L 436 386 Q 515 405 558 409 Q 568 412 577 412 L 637 417 Q 693 422 765 425 Q 782 425 786 418 Q 790 408 790 395 Q 790 388 789 380 Q 778 338 757 278 C 747 250 806 236 818 264 Z" fill="lightgray"></path> 
<path d="M 829 224 Q 843 226 844 235 Q 843 245 818 264 C 795 283 786 284 757 278 L 754 277 Q 692 266 635 259 L 577 252 Q 513 243 458 240 C 428 238 431 195 461 197 Q 468 198 474 198 Q 517 206 577 212 L 635 216 Q 718 223 829 224 Z" fill="lightgray"></path> 
<path d="M 637 452 Q 640 522 643 564 Q 646 599 661 626 Q 663 631 663 635 Q 663 648 647 659 Q 620 679 577 691 Q 572 692 567 692 Q 552 692 543 682 Q 539 678 539 673 Q 539 667 546 660 Q 576 634 576 600 Q 577 539 577 445 L 577 412 Q 578 346 578 265 Q 577 258 577 252 L 577 212 Q 575 100 574 37 Q 573 12 573 -14 Q 573 -65 576 -119 Q 580 -156 590 -172 Q 595 -180 600 -180 Q 607 -180 614 -166 Q 623 -149 626 -107 Q 635 -37 635 213 L 635 216 L 635 259 Q 636 350 637 417 L 637 452 Z" fill="lightgray"></path> 
<path d="M 1266 568 Q 1226 561 1255 542 Q 1303 515 1366 532 L 1490 559 Q 1518 566 1523 570 Q 1533 579 1528 589 Q 1519 602 1486 609 Q 1452 616 1418 601 Q 1387 591 1351 581 Q 1312 572 1266 568 Z" fill="lightgray"></path> 
<path d="M 1367 371 Q 1425 383 1499 392 Q 1517 393 1517 402 Q 1518 415 1500 425 Q 1472 438 1449 432 Q 1211 383 1134 378 Q 1121 377 1117 369 Q 1114 357 1129 346 Q 1171 318 1213 330 Q 1264 346 1307 357 L 1367 371 Z" fill="lightgray"></path> 
<path d="M 1463 210 Q 1376 189 1284 163 Q 1277 162 1276 163 Q 1273 166 1279 174 Q 1349 306 1380 342 Q 1392 355 1382 364 Q 1376 368 1367 371 C 1340 384 1300 386 1307 357 Q 1308 356 1309 351 Q 1322 308 1256 202 Q 1237 171 1196 140 Q 1171 127 1172 117 Q 1173 101 1184 83 Q 1196 65 1209 62 Q 1216 61 1226 66 Q 1275 111 1470 192 Q 1470 193 1472 193 C 1500 205 1492 217 1463 210 Z" fill="lightgray"></path> 
<path d="M 1472 193 Q 1497 147 1509 141 Q 1518 140 1525 147 Q 1534 157 1535 183 Q 1538 205 1513 235 Q 1485 260 1453 285 Q 1443 292 1437 292 Q 1431 291 1429 281 Q 1429 275 1463 210 L 1472 193 Z" fill="lightgray"></path> 
<path d="M 1712 393 Q 1764 409 1818 417 Q 1833 418 1836 411 Q 1843 396 1840 354 Q 1828 203 1799 122 Q 1784 73 1767 56 Q 1755 43 1729 51 Q 1690 63 1656 75 Q 1632 82 1649 60 Q 1698 8 1726 -32 Q 1736 -54 1759 -48 Q 1778 -45 1801 -20 Q 1868 49 1896 311 Q 1902 369 1924 403 Q 1940 425 1932 435 Q 1916 454 1880 469 Q 1855 482 1828 469 Q 1782 447 1720 429 L 1658 414 Q 1588 399 1546 397 Q 1527 398 1527 388 Q 1526 378 1548 366 Q 1575 350 1598 359 Q 1622 368 1649 375 L 1712 393 Z" fill="lightgray"></path> 
<path d="M 1649 375 Q 1604 195 1513 67 Q 1486 24 1457 -17 Q 1451 -24 1449 -30 Q 1445 -43 1457 -41 Q 1493 -35 1586 92 L 1625 157 Q 1670 245 1712 393 L 1720 429 Q 1738 576 1758 635 Q 1758 641 1761 646 Q 1771 662 1765 677 Q 1747 696 1713 714 Q 1692 727 1678 722 Q 1665 715 1671 699 Q 1689 674 1685 603 Q 1682 585 1681 563 Q 1672 485 1658 414 L 1649 375 Z" fill="lightgray"></path> 
      <clipPath id="make-me-a-hanzi-clip-0">
      <path d="M 149 536 L 149 535 Q 149 527 161 515 Q 244 438 283 414 Q 291 410 297 410 Q 302 410 307 413 Q 316 420 316 435 Q 316 445 313 457 Q 307 478 298 485 Q 286 497 262 509 Q 227 527 167 542 L 163 542 Q 152 542 149 536 Z" fill="lightgray"></path>
      </clipPath>
      <path clip-path="url(#make-me-a-hanzi-clip-0)" d="M 158 536 L 254 477 L 281 455 L 297 427 " fill="none" id="make-me-a-hanzi-animation-0" stroke-dasharray="308 616" stroke-linecap="round"></path>

      <clipPath id="make-me-a-hanzi-clip-1">
      <path d="M 162 120 Q 150 124 143 127 Q 139 128 136 128 Q 126 128 126 114 L 126 112 Q 130 79 151 55 Q 173 30 188 27 L 192 27 Q 205 27 214 46 Q 228 79 249 118 L 336 268 Q 348 286 348 295 Q 348 297 347 299 Q 346 302 343 302 Q 339 302 332 295 L 187 132 Q 176 120 166 120 L 162 120 Z" fill="lightgray"></path>
      </clipPath>
      <path clip-path="url(#make-me-a-hanzi-clip-1)" d="M 137 117 L 154 96 L 176 83 L 194 90 L 341 295 " fill="none" id="make-me-a-hanzi-animation-1" stroke-dasharray="452 904" stroke-linecap="round"></path>

      <clipPath id="make-me-a-hanzi-clip-2">
      <path d="M 404 423 Q 390 428 372 429 Q 367 430 364 430 Q 357 430 355 426 Q 353 423 353 418 Q 353 412 358 402 Q 391 338 410 236 Q 414 203 432 184 Q 443 170 450 170 Q 455 170 458 178 Q 461 187 461 197 L 458 240 Q 457 243 457 246 Q 436 355 433 386 C 430 415 430 415 404 423 Z" fill="lightgray"></path>
      </clipPath>
      <path clip-path="url(#make-me-a-hanzi-clip-2)" d="M 363 420 L 389 399 L 404 375 L 449 179 " fill="none" id="make-me-a-hanzi-animation-2" stroke-dasharray="391 782" stroke-linecap="round"></path>

      <clipPath id="make-me-a-hanzi-clip-3">
      <path d="M 818 264 L 840 317 Q 857 359 887 383 Q 899 392 899 403 Q 899 415 881 429 Q 852 453 825 472 Q 814 479 802 479 Q 792 479 781 474 Q 751 464 697 458 L 637 452 L 577 445 Q 542 440 506 434 Q 446 424 404 423 C 374 422 404 380 433 386 L 436 386 Q 515 405 558 409 Q 568 412 577 412 L 637 417 Q 693 422 765 425 Q 782 425 786 418 Q 790 408 790 395 Q 790 388 789 380 Q 778 338 757 278 C 747 250 806 236 818 264 Z" fill="lightgray"></path>
      </clipPath>
      <path clip-path="url(#make-me-a-hanzi-clip-3)" d="M 410 418 L 442 406 L 572 429 L 801 447 L 820 431 L 838 402 L 799 301 L 766 284 " fill="none" id="make-me-a-hanzi-animation-3" stroke-dasharray="728 1456" stroke-linecap="round"></path>

      <clipPath id="make-me-a-hanzi-clip-4">
      <path d="M 829 224 Q 843 226 844 235 Q 843 245 818 264 C 795 283 786 284 757 278 L 754 277 Q 692 266 635 259 L 577 252 Q 513 243 458 240 C 428 238 431 195 461 197 Q 468 198 474 198 Q 517 206 577 212 L 635 216 Q 718 223 829 224 Z" fill="lightgray"></path>
      </clipPath>
      <path clip-path="url(#make-me-a-hanzi-clip-4)" d="M 467 205 L 479 220 L 495 223 L 751 250 L 813 244 L 835 236 " fill="none" id="make-me-a-hanzi-animation-4" stroke-dasharray="507 1014" stroke-linecap="round"></path>

      <clipPath id="make-me-a-hanzi-clip-5">
      <path d="M 637 452 Q 640 522 643 564 Q 646 599 661 626 Q 663 631 663 635 Q 663 648 647 659 Q 620 679 577 691 Q 572 692 567 692 Q 552 692 543 682 Q 539 678 539 673 Q 539 667 546 660 Q 576 634 576 600 Q 577 539 577 445 L 577 412 Q 578 346 578 265 Q 577 258 577 252 L 577 212 Q 575 100 574 37 Q 573 12 573 -14 Q 573 -65 576 -119 Q 580 -156 590 -172 Q 595 -180 600 -180 Q 607 -180 614 -166 Q 623 -149 626 -107 Q 635 -37 635 213 L 635 216 L 635 259 Q 636 350 637 417 L 637 452 Z" fill="lightgray"></path>
      </clipPath>
      <path clip-path="url(#make-me-a-hanzi-clip-5)" d="M 553 672 L 578 665 L 615 629 L 606 454 L 600 -170 " fill="none" id="make-me-a-hanzi-animation-5" stroke-dasharray="1005 2010" stroke-linecap="round"></path>

      <clipPath id="make-me-a-hanzi-clip-6">
      <path d="M 1266 568 Q 1226 561 1255 542 Q 1303 515 1366 532 L 1490 559 Q 1518 566 1523 570 Q 1533 579 1528 589 Q 1519 602 1486 609 Q 1452 616 1418 601 Q 1387 591 1351 581 Q 1312 572 1266 568 Z" fill="lightgray"></path>
      </clipPath>
      <path clip-path="url(#make-me-a-hanzi-clip-6)" d="M 1258 556 L 1321 550 L 1455 582 L 1515 582 " fill="none" id="make-me-a-hanzi-animation-6" stroke-dasharray="389 778" stroke-linecap="round"></path>

      <clipPath id="make-me-a-hanzi-clip-7">
      <path d="M 1367 371 Q 1425 383 1499 392 Q 1517 393 1517 402 Q 1518 415 1500 425 Q 1472 438 1449 432 Q 1211 383 1134 378 Q 1121 377 1117 369 Q 1114 357 1129 346 Q 1171 318 1213 330 Q 1264 346 1307 357 L 1367 371 Z" fill="lightgray"></path>
      </clipPath>
      <path clip-path="url(#make-me-a-hanzi-clip-7)" d="M 1128 364 L 1191 355 L 1418 405 L 1466 411 L 1505 405 " fill="none" id="make-me-a-hanzi-animation-7" stroke-dasharray="512 1024" stroke-linecap="round"></path>

      <clipPath id="make-me-a-hanzi-clip-8">
      <path d="M 1463 210 Q 1376 189 1284 163 Q 1277 162 1276 163 Q 1273 166 1279 174 Q 1349 306 1380 342 Q 1392 355 1382 364 Q 1376 368 1367 371 C 1340 384 1300 386 1307 357 Q 1308 356 1309 351 Q 1322 308 1256 202 Q 1237 171 1196 140 Q 1171 127 1172 117 Q 1173 101 1184 83 Q 1196 65 1209 62 Q 1216 61 1226 66 Q 1275 111 1470 192 Q 1470 193 1472 193 C 1500 205 1492 217 1463 210 Z" fill="lightgray"></path>
      </clipPath>
      <path clip-path="url(#make-me-a-hanzi-clip-8)" d="M 1373 354 L 1339 335 L 1316 277 L 1253 161 L 1250 132 L 1280 135 L 1444 195 L 1469 197 " fill="none" id="make-me-a-hanzi-animation-8" stroke-dasharray="620 1240" stroke-linecap="round"></path>

      <clipPath id="make-me-a-hanzi-clip-9">
      <path d="M 1472 193 Q 1497 147 1509 141 Q 1518 140 1525 147 Q 1534 157 1535 183 Q 1538 205 1513 235 Q 1485 260 1453 285 Q 1443 292 1437 292 Q 1431 291 1429 281 Q 1429 275 1463 210 L 1472 193 Z" fill="lightgray"></path>
      </clipPath>
      <path clip-path="url(#make-me-a-hanzi-clip-9)" d="M 1438 283 L 1496 211 L 1510 178 L 1512 152 " fill="none" id="make-me-a-hanzi-animation-9" stroke-dasharray="282 564" stroke-linecap="round"></path>

      <clipPath id="make-me-a-hanzi-clip-10">
      <path d="M 1712 393 Q 1764 409 1818 417 Q 1833 418 1836 411 Q 1843 396 1840 354 Q 1828 203 1799 122 Q 1784 73 1767 56 Q 1755 43 1729 51 Q 1690 63 1656 75 Q 1632 82 1649 60 Q 1698 8 1726 -32 Q 1736 -54 1759 -48 Q 1778 -45 1801 -20 Q 1868 49 1896 311 Q 1902 369 1924 403 Q 1940 425 1932 435 Q 1916 454 1880 469 Q 1855 482 1828 469 Q 1782 447 1720 429 L 1658 414 Q 1588 399 1546 397 Q 1527 398 1527 388 Q 1526 378 1548 366 Q 1575 350 1598 359 Q 1622 368 1649 375 L 1712 393 Z" fill="lightgray"></path>
      </clipPath>
      <path clip-path="url(#make-me-a-hanzi-clip-10)" d="M 1537 386 L 1587 379 L 1833 443 L 1861 438 L 1881 419 L 1851 197 L 1835 128 L 1798 37 L 1778 15 L 1757 4 L 1649 69 " fill="none" id="make-me-a-hanzi-animation-10" stroke-dasharray="1061 2122" stroke-linecap="round"></path>

      <clipPath id="make-me-a-hanzi-clip-11">
      <path d="M 1649 375 Q 1604 195 1513 67 Q 1486 24 1457 -17 Q 1451 -24 1449 -30 Q 1445 -43 1457 -41 Q 1493 -35 1586 92 L 1625 157 Q 1670 245 1712 393 L 1720 429 Q 1738 576 1758 635 Q 1758 641 1761 646 Q 1771 662 1765 677 Q 1747 696 1713 714 Q 1692 727 1678 722 Q 1665 715 1671 699 Q 1689 674 1685 603 Q 1682 585 1681 563 Q 1672 485 1658 414 L 1649 375 Z" fill="lightgray"></path>
      </clipPath>
      <path clip-path="url(#make-me-a-hanzi-clip-11)" d="M 1685 707 L 1724 661 L 1693 443 L 1668 339 L 1611 185 L 1561 95 L 1500 13 L 1458 -32 " fill="none" id="make-me-a-hanzi-animation-11" stroke-dasharray="946 1892" stroke-linecap="round"></path>

</g>
</svg>
