<svg version="1.1" viewBox="0 0 2048 1024" xmlns="http://www.w3.org/2000/svg">
  <g stroke="lightgray" stroke-dasharray="1,1" stroke-width="1" transform="scale(4, 4)">
    <line x1="0" y1="0" x2="256" y2="256"></line>
    <line x1="256" y1="0" x2="0" y2="256"></line>
    <line x1="128" y1="0" x2="128" y2="256"></line>
    <line x1="0" y1="128" x2="256" y2="128"></line>
    <line x1="256" y1="0" x2="512" y2="256"></line>
    <line x1="512" y1="0" x2="256" y2="256"></line>
    <line x1="384" y1="0" x2="384" y2="256"></line>
    <line x1="256" y1="128" x2="512" y2="128"></line>
  </g>
<g transform="scale(1, -1) translate(0, -850)">
   <style type="text/css">
    @keyframes keyframes0 {
      from {
       stroke: black;
       stroke-dashoffset: 432;
       stroke-width: 128;
       }
       58% {
       animation-timing-function: step-end;
       stroke: black;
       stroke-dashoffset: 0;
       stroke-width: 128;
       }
       to {
       stroke: black;
       stroke-width: 1024;
       }
       }
       #make-me-a-hanzi-animation-0 {
         animation: keyframes0 0.601562s both;
         animation-delay: 0.000000s;
         animation-timing-function: linear;
       }
    @keyframes keyframes1 {
      from {
       stroke: black;
       stroke-dashoffset: 580;
       stroke-width: 128;
       }
       65% {
       animation-timing-function: step-end;
       stroke: black;
       stroke-dashoffset: 0;
       stroke-width: 128;
       }
       to {
       stroke: black;
       stroke-width: 1024;
       }
       }
       #make-me-a-hanzi-animation-1 {
         animation: keyframes1 0.722005s both;
         animation-delay: 0.601562s;
         animation-timing-function: linear;
       }
    @keyframes keyframes2 {
      from {
       stroke: black;
       stroke-dashoffset: 785;
       stroke-width: 128;
       }
       72% {
       animation-timing-function: step-end;
       stroke: black;
       stroke-dashoffset: 0;
       stroke-width: 128;
       }
       to {
       stroke: black;
       stroke-width: 1024;
       }
       }
       #make-me-a-hanzi-animation-2 {
         animation: keyframes2 0.888835s both;
         animation-delay: 1.323567s;
         animation-timing-function: linear;
       }
    @keyframes keyframes3 {
      from {
       stroke: black;
       stroke-dashoffset: 774;
       stroke-width: 128;
       }
       72% {
       animation-timing-function: step-end;
       stroke: black;
       stroke-dashoffset: 0;
       stroke-width: 128;
       }
       to {
       stroke: black;
       stroke-width: 1024;
       }
       }
       #make-me-a-hanzi-animation-3 {
         animation: keyframes3 0.879883s both;
         animation-delay: 2.212402s;
         animation-timing-function: linear;
       }
    @keyframes keyframes4 {
      from {
       stroke: black;
       stroke-dashoffset: 1196;
       stroke-width: 128;
       }
       80% {
       animation-timing-function: step-end;
       stroke: black;
       stroke-dashoffset: 0;
       stroke-width: 128;
       }
       to {
       stroke: black;
       stroke-width: 1024;
       }
       }
       #make-me-a-hanzi-animation-4 {
         animation: keyframes4 1.223307s both;
         animation-delay: 3.092285s;
         animation-timing-function: linear;
       }
    @keyframes keyframes5 {
      from {
       stroke: black;
       stroke-dashoffset: 591;
       stroke-width: 128;
       }
       66% {
       animation-timing-function: step-end;
       stroke: black;
       stroke-dashoffset: 0;
       stroke-width: 128;
       }
       to {
       stroke: black;
       stroke-width: 1024;
       }
       }
       #make-me-a-hanzi-animation-5 {
         animation: keyframes5 0.730957s both;
         animation-delay: 4.315592s;
         animation-timing-function: linear;
       }
    @keyframes keyframes6 {
      from {
       stroke: black;
       stroke-dashoffset: 381;
       stroke-width: 128;
       }
       55% {
       animation-timing-function: step-end;
       stroke: black;
       stroke-dashoffset: 0;
       stroke-width: 128;
       }
       to {
       stroke: black;
       stroke-width: 1024;
       }
       }
       #make-me-a-hanzi-animation-6 {
         animation: keyframes6 0.560059s both;
         animation-delay: 5.046549s;
         animation-timing-function: linear;
       }
    @keyframes keyframes7 {
      from {
       stroke: black;
       stroke-dashoffset: 436;
       stroke-width: 128;
       }
       59% {
       animation-timing-function: step-end;
       stroke: black;
       stroke-dashoffset: 0;
       stroke-width: 128;
       }
       to {
       stroke: black;
       stroke-width: 1024;
       }
       }
       #make-me-a-hanzi-animation-7 {
         animation: keyframes7 0.604818s both;
         animation-delay: 5.606608s;
         animation-timing-function: linear;
       }
    @keyframes keyframes8 {
      from {
       stroke: black;
       stroke-dashoffset: 892;
       stroke-width: 128;
       }
       74% {
       animation-timing-function: step-end;
       stroke: black;
       stroke-dashoffset: 0;
       stroke-width: 128;
       }
       to {
       stroke: black;
       stroke-width: 1024;
       }
       }
       #make-me-a-hanzi-animation-8 {
         animation: keyframes8 0.975911s both;
         animation-delay: 6.211426s;
         animation-timing-function: linear;
       }
    @keyframes keyframes9 {
      from {
       stroke: black;
       stroke-dashoffset: 588;
       stroke-width: 128;
       }
       66% {
       animation-timing-function: step-end;
       stroke: black;
       stroke-dashoffset: 0;
       stroke-width: 128;
       }
       to {
       stroke: black;
       stroke-width: 1024;
       }
       }
       #make-me-a-hanzi-animation-9 {
         animation: keyframes9 0.728516s both;
         animation-delay: 7.187337s;
         animation-timing-function: linear;
       }
    @keyframes keyframes10 {
      from {
       stroke: black;
       stroke-dashoffset: 607;
       stroke-width: 128;
       }
       66% {
       animation-timing-function: step-end;
       stroke: black;
       stroke-dashoffset: 0;
       stroke-width: 128;
       }
       to {
       stroke: black;
       stroke-width: 1024;
       }
       }
       #make-me-a-hanzi-animation-10 {
         animation: keyframes10 0.743978s both;
         animation-delay: 7.915853s;
         animation-timing-function: linear;
       }
    @keyframes keyframes11 {
      from {
       stroke: black;
       stroke-dashoffset: 470;
       stroke-width: 128;
       }
       60% {
       animation-timing-function: step-end;
       stroke: black;
       stroke-dashoffset: 0;
       stroke-width: 128;
       }
       to {
       stroke: black;
       stroke-width: 1024;
       }
       }
       #make-me-a-hanzi-animation-11 {
         animation: keyframes11 0.632487s both;
         animation-delay: 8.659831s;
         animation-timing-function: linear;
       }
    @keyframes keyframes12 {
      from {
       stroke: black;
       stroke-dashoffset: 494;
       stroke-width: 128;
       }
       62% {
       animation-timing-function: step-end;
       stroke: black;
       stroke-dashoffset: 0;
       stroke-width: 128;
       }
       to {
       stroke: black;
       stroke-width: 1024;
       }
       }
       #make-me-a-hanzi-animation-12 {
         animation: keyframes12 0.652018s both;
         animation-delay: 9.292318s;
         animation-timing-function: linear;
       }
    @keyframes keyframes13 {
      from {
       stroke: black;
       stroke-dashoffset: 898;
       stroke-width: 128;
       }
       75% {
       animation-timing-function: step-end;
       stroke: black;
       stroke-dashoffset: 0;
       stroke-width: 128;
       }
       to {
       stroke: black;
       stroke-width: 1024;
       }
       }
       #make-me-a-hanzi-animation-13 {
         animation: keyframes13 0.980794s both;
         animation-delay: 9.944336s;
         animation-timing-function: linear;
       }
    @keyframes keyframes14 {
      from {
       stroke: black;
       stroke-dashoffset: 618;
       stroke-width: 128;
       }
       67% {
       animation-timing-function: step-end;
       stroke: black;
       stroke-dashoffset: 0;
       stroke-width: 128;
       }
       to {
       stroke: black;
       stroke-width: 1024;
       }
       }
       #make-me-a-hanzi-animation-14 {
         animation: keyframes14 0.752930s both;
         animation-delay: 10.925130s;
         animation-timing-function: linear;
       }
    @keyframes keyframes15 {
      from {
       stroke: black;
       stroke-dashoffset: 678;
       stroke-width: 128;
       }
       69% {
       animation-timing-function: step-end;
       stroke: black;
       stroke-dashoffset: 0;
       stroke-width: 128;
       }
       to {
       stroke: black;
       stroke-width: 1024;
       }
       }
       #make-me-a-hanzi-animation-15 {
         animation: keyframes15 0.801758s both;
         animation-delay: 11.678060s;
         animation-timing-function: linear;
       }
    @keyframes keyframes16 {
      from {
       stroke: black;
       stroke-dashoffset: 501;
       stroke-width: 128;
       }
       62% {
       animation-timing-function: step-end;
       stroke: black;
       stroke-dashoffset: 0;
       stroke-width: 128;
       }
       to {
       stroke: black;
       stroke-width: 1024;
       }
       }
       #make-me-a-hanzi-animation-16 {
         animation: keyframes16 0.657715s both;
         animation-delay: 12.479818s;
         animation-timing-function: linear;
       }
    @keyframes keyframes17 {
      from {
       stroke: black;
       stroke-dashoffset: 717;
       stroke-width: 128;
       }
       70% {
       animation-timing-function: step-end;
       stroke: black;
       stroke-dashoffset: 0;
       stroke-width: 128;
       }
       to {
       stroke: black;
       stroke-width: 1024;
       }
       }
       #make-me-a-hanzi-animation-17 {
         animation: keyframes17 0.833496s both;
         animation-delay: 13.137533s;
         animation-timing-function: linear;
       }
    @keyframes keyframes18 {
      from {
       stroke: black;
       stroke-dashoffset: 734;
       stroke-width: 128;
       }
       70% {
       animation-timing-function: step-end;
       stroke: black;
       stroke-dashoffset: 0;
       stroke-width: 128;
       }
       to {
       stroke: black;
       stroke-width: 1024;
       }
       }
       #make-me-a-hanzi-animation-18 {
         animation: keyframes18 0.847331s both;
         animation-delay: 13.971029s;
         animation-timing-function: linear;
       }
    @keyframes keyframes19 {
      from {
       stroke: black;
       stroke-dashoffset: 443;
       stroke-width: 128;
       }
       59% {
       animation-timing-function: step-end;
       stroke: black;
       stroke-dashoffset: 0;
       stroke-width: 128;
       }
       to {
       stroke: black;
       stroke-width: 1024;
       }
       }
       #make-me-a-hanzi-animation-19 {
         animation: keyframes19 0.610514s both;
         animation-delay: 14.818360s;
         animation-timing-function: linear;
       }
</style>
<path d="M 166.0 585.0 L 166.0 584.0 Q 166.0 577.0 178.0 566.0 Q 260.0 489.0 299.0 465.0 Q 306.0 462.0 312.0 462.0 Q 318.0 462.0 323.0 465.0 Q 332.0 472.0 332.0 486.0 Q 332.0 495.0 328.0 507.0 Q 321.0 527.0 314.0 533.0 Q 302.0 546.0 278.0 558.0 Q 243.0 576.0 183.0 591.0 Q 180.0 592.0 177.0 592.0 Q 168.0 592.0 166.0 585.0 Z" fill="lightgray"></path> 
<path d="M 166.0 170.0 Q 154.0 174.0 147.0 177.0 Q 143.0 178.0 140.0 178.0 Q 130.0 178.0 130.0 164.0 L 130.0 162.0 Q 134.0 129.0 155.0 105.0 Q 177.0 80.0 192.0 77.0 L 196.0 77.0 Q 209.0 77.0 218.0 96.0 Q 232.0 129.0 253.0 168.0 L 340.0 318.0 Q 352.0 336.0 352.0 345.0 Q 352.0 347.0 351.0 349.0 Q 350.0 352.0 347.0 352.0 Q 343.0 352.0 336.0 345.0 L 191.0 182.0 Q 180.0 170.0 170.0 170.0 L 166.0 170.0 Z" fill="lightgray"></path> 
<path d="M 754.0 363.0 Q 775.0 424.0 790.0 443.0 Q 804.0 463.0 819.0 476.0 Q 829.0 487.0 829.0 497.0 Q 829.0 506.0 821.0 514.0 Q 804.0 531.0 750.0 561.0 Q 742.0 566.0 731.0 566.0 Q 720.0 566.0 706.0 561.0 Q 656.0 545.0 611.0 536.0 L 555.0 526.0 Q 488.0 517.0 419.0 514.0 Q 402.0 512.0 402.0 503.0 Q 405.0 492.0 424.0 485.0 Q 439.0 480.0 459.0 480.0 Q 473.0 480.0 489.0 482.0 Q 521.0 488.0 554.0 492.0 L 610.0 499.0 Q 645.0 505.0 681.0 508.0 L 690.0 508.0 Q 708.0 508.0 715.0 501.0 Q 723.0 492.0 723.0 478.0 Q 723.0 474.0 722.0 470.0 Q 712.0 405.0 697.0 354.0 C 689.0 325.0 744.0 335.0 754.0 363.0 Z" fill="lightgray"></path> 
<path d="M 780.0 304.0 Q 852.0 305.0 868.0 305.0 Q 890.0 307.0 893.0 314.0 Q 894.0 317.0 894.0 320.0 Q 894.0 330.0 882.0 339.0 Q 852.0 362.0 831.0 368.0 Q 820.0 371.0 808.0 371.0 Q 800.0 371.0 792.0 370.0 Q 773.0 366.0 754.0 363.0 L 697.0 354.0 L 604.0 337.0 L 600.0 337.0 L 543.0 329.0 Q 462.0 316.0 374.0 304.0 Q 363.0 302.0 363.0 296.0 Q 363.0 292.0 369.0 285.0 Q 385.0 270.0 401.0 266.0 Q 414.0 264.0 424.0 264.0 Q 432.0 264.0 438.0 265.0 Q 485.0 277.0 536.0 284.0 L 594.0 292.0 L 595.0 292.0 Q 684.0 304.0 780.0 304.0 Z" fill="lightgray"></path> 
<path d="M 611.0 536.0 Q 612.0 551.0 612.0 563.0 Q 613.0 617.0 631.0 678.0 Q 632.0 682.0 632.0 686.0 Q 632.0 694.0 626.0 699.0 Q 604.0 716.0 567.0 731.0 Q 553.0 736.0 542.0 736.0 Q 533.0 736.0 525.0 733.0 Q 514.0 728.0 514.0 721.0 Q 514.0 714.0 522.0 706.0 Q 554.0 675.0 554.0 642.0 Q 555.0 580.0 555.0 526.0 L 554.0 492.0 Q 550.0 402.0 543.0 329.0 L 536.0 284.0 Q 523.0 203.0 493.0 143.0 Q 468.0 94.0 426.0 54.0 Q 383.0 13.0 293.0 -41.0 Q 278.0 -50.0 275.0 -54.0 L 275.0 -55.0 Q 275.0 -59.0 288.0 -60.0 Q 305.0 -59.0 362.0 -38.0 Q 403.0 -22.0 461.0 20.0 Q 506.0 54.0 533.0 96.0 Q 565.0 147.0 581.0 220.0 Q 588.0 256.0 594.0 292.0 L 600.0 337.0 Q 611.0 414.0 611.0 492.0 Q 610.0 496.0 610.0 499.0 L 611.0 536.0 Z" fill="lightgray"></path> 
<path d="M 839.0 -34.0 Q 855.0 -56.0 870.0 -59.0 L 873.0 -59.0 Q 881.0 -59.0 888.0 -52.0 Q 894.0 -44.0 894.0 -27.0 Q 894.0 -13.0 890.0 7.0 Q 883.0 33.0 867.0 48.0 Q 838.0 81.0 769.0 126.0 Q 688.0 178.0 645.0 202.0 Q 642.0 203.0 640.0 203.0 Q 633.0 203.0 633.0 195.0 Q 633.0 180.0 643.0 170.0 Q 734.0 86.0 839.0 -34.0 Z" fill="lightgray"></path> 
<path d="M 1465.5 761.5 Q 1493.5 745.5 1523.5 722.5 Q 1536.5 713.5 1549.5 715.5 Q 1559.5 716.5 1561.5 729.5 Q 1562.5 742.5 1552.5 767.5 Q 1545.5 783.5 1515.5 793.5 Q 1446.5 808.5 1436.5 800.5 Q 1432.5 796.5 1435.5 785.5 Q 1439.5 776.5 1465.5 761.5 Z" fill="lightgray"></path> 
<path d="M 1275.5 658.5 Q 1266.5 674.5 1259.5 681.5 Q 1241.5 694.5 1239.5 670.5 Q 1245.5 640.5 1190.5 583.5 Q 1166.5 562.5 1191.5 504.5 Q 1204.5 479.5 1224.5 504.5 Q 1240.5 526.5 1252.5 558.5 Q 1279.5 625.5 1280.5 626.5 C 1286.5 639.5 1286.5 639.5 1275.5 658.5 Z" fill="lightgray"></path> 
<path d="M 1280.5 626.5 Q 1299.5 616.5 1322.5 622.5 Q 1458.5 662.5 1682.5 681.5 Q 1716.5 684.5 1730.5 681.5 Q 1746.5 671.5 1744.5 662.5 Q 1745.5 658.5 1740.5 645.5 Q 1710.5 578.5 1717.5 574.5 Q 1724.5 570.5 1739.5 582.5 Q 1788.5 619.5 1830.5 633.5 Q 1864.5 645.5 1864.5 653.5 Q 1863.5 663.5 1795.5 711.5 Q 1771.5 727.5 1706.5 715.5 Q 1613.5 705.5 1377.5 670.5 Q 1325.5 663.5 1275.5 658.5 C 1245.5 655.5 1251.5 635.5 1280.5 626.5 Z" fill="lightgray"></path> 
<path d="M 1591.5 554.5 Q 1598.5 557.5 1608.5 558.5 Q 1654.5 568.5 1662.5 574.5 Q 1669.5 581.5 1666.5 587.5 Q 1660.5 597.5 1637.5 604.5 Q 1619.5 608.5 1605.5 604.5 L 1547.5 587.5 Q 1511.5 578.5 1476.5 570.5 Q 1463.5 569.5 1453.5 565.5 L 1402.5 557.5 Q 1369.5 554.5 1336.5 551.5 Q 1306.5 547.5 1327.5 532.5 Q 1360.5 511.5 1405.5 521.5 Q 1406.5 522.5 1408.5 521.5 L 1450.5 529.5 Q 1496.5 539.5 1546.5 546.5 L 1591.5 554.5 Z" fill="lightgray"></path> 
<path d="M 1577.5 471.5 Q 1620.5 480.5 1664.5 485.5 Q 1683.5 488.5 1677.5 499.5 Q 1668.5 511.5 1647.5 516.5 Q 1617.5 520.5 1583.5 509.5 L 1543.5 500.5 Q 1494.5 491.5 1448.5 480.5 L 1412.5 472.5 Q 1360.5 465.5 1314.5 455.5 Q 1301.5 452.5 1317.5 440.5 Q 1333.5 427.5 1369.5 434.5 Q 1390.5 438.5 1414.5 442.5 L 1448.5 448.5 Q 1494.5 458.5 1540.5 464.5 L 1577.5 471.5 Z" fill="lightgray"></path> 
<path d="M 1453.5 565.5 Q 1454.5 581.5 1445.5 591.5 Q 1427.5 606.5 1406.5 613.5 Q 1396.5 617.5 1388.5 613.5 Q 1382.5 609.5 1387.5 596.5 Q 1396.5 577.5 1402.5 557.5 L 1408.5 521.5 Q 1409.5 503.5 1412.5 472.5 L 1414.5 442.5 Q 1414.5 423.5 1416.5 400.5 C 1418.5 370.5 1450.5 375.5 1449.5 405.5 Q 1448.5 429.5 1448.5 448.5 L 1448.5 480.5 Q 1448.5 517.5 1450.5 529.5 L 1453.5 565.5 Z" fill="lightgray"></path> 
<path d="M 1568.5 423.5 Q 1572.5 448.5 1577.5 471.5 L 1583.5 509.5 Q 1586.5 533.5 1591.5 554.5 L 1605.5 604.5 Q 1606.5 610.5 1609.5 613.5 Q 1612.5 622.5 1598.5 634.5 Q 1574.5 650.5 1556.5 655.5 Q 1544.5 659.5 1538.5 653.5 Q 1531.5 649.5 1537.5 636.5 Q 1546.5 621.5 1547.5 587.5 L 1546.5 546.5 Q 1545.5 524.5 1543.5 500.5 L 1540.5 464.5 Q 1537.5 442.5 1535.5 418.5 C 1532.5 388.5 1563.5 393.5 1568.5 423.5 Z" fill="lightgray"></path> 
<path d="M 1388.5 365.5 Q 1469.5 383.5 1598.5 389.5 L 1631.5 391.5 Q 1686.5 395.5 1755.5 396.5 Q 1818.5 393.5 1827.5 404.5 Q 1831.5 414.5 1817.5 428.5 Q 1763.5 468.5 1695.5 447.5 Q 1640.5 438.5 1568.5 423.5 L 1535.5 418.5 Q 1510.5 415.5 1488.5 411.5 Q 1467.5 410.5 1449.5 405.5 L 1416.5 400.5 Q 1307.5 387.5 1187.5 370.5 Q 1168.5 367.5 1182.5 352.5 Q 1195.5 339.5 1212.5 334.5 Q 1231.5 330.5 1247.5 334.5 Q 1295.5 347.5 1348.5 358.5 L 1388.5 365.5 Z" fill="lightgray"></path> 
<path d="M 1373.5 294.5 Q 1394.5 316.5 1407.5 326.5 Q 1417.5 336.5 1415.5 343.5 Q 1414.5 355.5 1393.5 363.5 Q 1390.5 364.5 1388.5 365.5 C 1360.5 377.5 1356.5 378.5 1348.5 358.5 Q 1317.5 268.5 1105.5 131.5 Q 1086.5 121.5 1109.5 121.5 Q 1200.5 127.5 1350.5 271.5 L 1373.5 294.5 Z" fill="lightgray"></path> 
<path d="M 1598.5 389.5 Q 1772.5 200.5 1782.5 193.5 Q 1830.5 168.5 1964.5 192.5 Q 1983.5 193.5 1984.5 199.5 Q 1985.5 206.5 1971.5 211.5 Q 1928.5 227.5 1875.5 243.5 Q 1752.5 285.5 1633.5 390.5 Q 1632.5 391.5 1631.5 391.5 C 1608.5 410.5 1578.5 411.5 1598.5 389.5 Z" fill="lightgray"></path> 
<path d="M 1398.5 279.5 Q 1386.5 288.5 1373.5 294.5 C 1346.5 307.5 1339.5 299.5 1350.5 271.5 Q 1369.5 231.5 1346.5 117.5 Q 1330.5 66.5 1359.5 36.5 Q 1368.5 24.5 1377.5 36.5 Q 1395.5 57.5 1402.5 172.5 Q 1403.5 233.5 1407.5 252.5 C 1410.5 271.5 1410.5 271.5 1398.5 279.5 Z" fill="lightgray"></path> 
<path d="M 1599.5 106.5 Q 1592.5 84.5 1605.5 65.5 Q 1618.5 38.5 1626.5 39.5 Q 1639.5 40.5 1654.5 70.5 Q 1667.5 94.5 1666.5 113.5 Q 1654.5 224.5 1674.5 255.5 Q 1684.5 270.5 1676.5 279.5 Q 1651.5 301.5 1608.5 320.5 Q 1593.5 326.5 1572.5 318.5 Q 1493.5 284.5 1398.5 279.5 C 1368.5 277.5 1377.5 248.5 1407.5 252.5 Q 1410.5 252.5 1501.5 267.5 Q 1574.5 283.5 1589.5 272.5 Q 1596.5 260.5 1599.5 227.5 Q 1603.5 125.5 1599.5 106.5 Z" fill="lightgray"></path> 
<path d="M 1469.5 145.5 Q 1472.5 46.5 1434.5 -5.5 Q 1397.5 -59.5 1265.5 -108.5 Q 1253.5 -111.5 1250.5 -113.5 Q 1246.5 -117.5 1259.5 -122.5 Q 1328.5 -131.5 1426.5 -73.5 Q 1439.5 -63.5 1450.5 -52.5 Q 1501.5 4.5 1521.5 131.5 Q 1522.5 147.5 1532.5 167.5 Q 1536.5 177.5 1530.5 184.5 Q 1515.5 199.5 1485.5 213.5 Q 1467.5 223.5 1453.5 218.5 Q 1435.5 214.5 1448.5 197.5 Q 1470.5 170.5 1469.5 145.5 Z" fill="lightgray"></path> 
<path d="M 1562.5 3.5 Q 1604.5 -41.5 1653.5 -105.5 Q 1666.5 -126.5 1681.5 -131.5 Q 1688.5 -132.5 1697.5 -124.5 Q 1710.5 -112.5 1701.5 -70.5 Q 1695.5 -30.5 1630.5 1.5 Q 1588.5 23.5 1566.5 32.5 Q 1557.5 38.5 1555.5 26.5 Q 1554.5 13.5 1562.5 3.5 Z" fill="lightgray"></path> 
      <clipPath id="make-me-a-hanzi-clip-0">
      <path d="M 166.0 585.0 L 166.0 584.0 Q 166.0 577.0 178.0 566.0 Q 260.0 489.0 299.0 465.0 Q 306.0 462.0 312.0 462.0 Q 318.0 462.0 323.0 465.0 Q 332.0 472.0 332.0 486.0 Q 332.0 495.0 328.0 507.0 Q 321.0 527.0 314.0 533.0 Q 302.0 546.0 278.0 558.0 Q 243.0 576.0 183.0 591.0 Q 180.0 592.0 177.0 592.0 Q 168.0 592.0 166.0 585.0 Z" fill="lightgray"></path>
      </clipPath>
      <path clip-path="url(#make-me-a-hanzi-clip-0)" d="M 174.0 585.0 L 270.0 527.0 L 297.0 504.0 L 313.0 480.0 " fill="none" id="make-me-a-hanzi-animation-0" stroke-dasharray="304 608" stroke-linecap="round"></path>

      <clipPath id="make-me-a-hanzi-clip-1">
      <path d="M 166.0 170.0 Q 154.0 174.0 147.0 177.0 Q 143.0 178.0 140.0 178.0 Q 130.0 178.0 130.0 164.0 L 130.0 162.0 Q 134.0 129.0 155.0 105.0 Q 177.0 80.0 192.0 77.0 L 196.0 77.0 Q 209.0 77.0 218.0 96.0 Q 232.0 129.0 253.0 168.0 L 340.0 318.0 Q 352.0 336.0 352.0 345.0 Q 352.0 347.0 351.0 349.0 Q 350.0 352.0 347.0 352.0 Q 343.0 352.0 336.0 345.0 L 191.0 182.0 Q 180.0 170.0 170.0 170.0 L 166.0 170.0 Z" fill="lightgray"></path>
      </clipPath>
      <path clip-path="url(#make-me-a-hanzi-clip-1)" d="M 141.0 167.0 L 158.0 146.0 L 180.0 133.0 L 198.0 140.0 L 345.0 345.0 " fill="none" id="make-me-a-hanzi-animation-1" stroke-dasharray="452 904" stroke-linecap="round"></path>

      <clipPath id="make-me-a-hanzi-clip-2">
      <path d="M 754.0 363.0 Q 775.0 424.0 790.0 443.0 Q 804.0 463.0 819.0 476.0 Q 829.0 487.0 829.0 497.0 Q 829.0 506.0 821.0 514.0 Q 804.0 531.0 750.0 561.0 Q 742.0 566.0 731.0 566.0 Q 720.0 566.0 706.0 561.0 Q 656.0 545.0 611.0 536.0 L 555.0 526.0 Q 488.0 517.0 419.0 514.0 Q 402.0 512.0 402.0 503.0 Q 405.0 492.0 424.0 485.0 Q 439.0 480.0 459.0 480.0 Q 473.0 480.0 489.0 482.0 Q 521.0 488.0 554.0 492.0 L 610.0 499.0 Q 645.0 505.0 681.0 508.0 L 690.0 508.0 Q 708.0 508.0 715.0 501.0 Q 723.0 492.0 723.0 478.0 Q 723.0 474.0 722.0 470.0 Q 712.0 405.0 697.0 354.0 C 689.0 325.0 744.0 335.0 754.0 363.0 Z" fill="lightgray"></path>
      </clipPath>
      <path clip-path="url(#make-me-a-hanzi-clip-2)" d="M 412.0 502.0 L 480.0 499.0 L 691.0 532.0 L 732.0 531.0 L 769.0 492.0 L 734.0 387.0 L 703.0 359.0 " fill="none" id="make-me-a-hanzi-animation-2" stroke-dasharray="657 1314" stroke-linecap="round"></path>

      <clipPath id="make-me-a-hanzi-clip-3">
      <path d="M 780.0 304.0 Q 852.0 305.0 868.0 305.0 Q 890.0 307.0 893.0 314.0 Q 894.0 317.0 894.0 320.0 Q 894.0 330.0 882.0 339.0 Q 852.0 362.0 831.0 368.0 Q 820.0 371.0 808.0 371.0 Q 800.0 371.0 792.0 370.0 Q 773.0 366.0 754.0 363.0 L 697.0 354.0 L 604.0 337.0 L 600.0 337.0 L 543.0 329.0 Q 462.0 316.0 374.0 304.0 Q 363.0 302.0 363.0 296.0 Q 363.0 292.0 369.0 285.0 Q 385.0 270.0 401.0 266.0 Q 414.0 264.0 424.0 264.0 Q 432.0 264.0 438.0 265.0 Q 485.0 277.0 536.0 284.0 L 594.0 292.0 L 595.0 292.0 Q 684.0 304.0 780.0 304.0 Z" fill="lightgray"></path>
      </clipPath>
      <path clip-path="url(#make-me-a-hanzi-clip-3)" d="M 373.0 294.0 L 410.0 286.0 L 582.0 313.0 L 805.0 338.0 L 835.0 335.0 L 884.0 319.0 " fill="none" id="make-me-a-hanzi-animation-3" stroke-dasharray="646 1292" stroke-linecap="round"></path>

      <clipPath id="make-me-a-hanzi-clip-4">
      <path d="M 611.0 536.0 Q 612.0 551.0 612.0 563.0 Q 613.0 617.0 631.0 678.0 Q 632.0 682.0 632.0 686.0 Q 632.0 694.0 626.0 699.0 Q 604.0 716.0 567.0 731.0 Q 553.0 736.0 542.0 736.0 Q 533.0 736.0 525.0 733.0 Q 514.0 728.0 514.0 721.0 Q 514.0 714.0 522.0 706.0 Q 554.0 675.0 554.0 642.0 Q 555.0 580.0 555.0 526.0 L 554.0 492.0 Q 550.0 402.0 543.0 329.0 L 536.0 284.0 Q 523.0 203.0 493.0 143.0 Q 468.0 94.0 426.0 54.0 Q 383.0 13.0 293.0 -41.0 Q 278.0 -50.0 275.0 -54.0 L 275.0 -55.0 Q 275.0 -59.0 288.0 -60.0 Q 305.0 -59.0 362.0 -38.0 Q 403.0 -22.0 461.0 20.0 Q 506.0 54.0 533.0 96.0 Q 565.0 147.0 581.0 220.0 Q 588.0 256.0 594.0 292.0 L 600.0 337.0 Q 611.0 414.0 611.0 492.0 Q 610.0 496.0 610.0 499.0 L 611.0 536.0 Z" fill="lightgray"></path>
      </clipPath>
      <path clip-path="url(#make-me-a-hanzi-clip-4)" d="M 525.0 720.0 L 563.0 702.0 L 583.0 683.0 L 589.0 664.0 L 577.0 379.0 L 561.0 261.0 L 544.0 190.0 L 512.0 116.0 L 473.0 64.0 L 391.0 -2.0 L 347.0 -29.0 L 281.0 -54.0 " fill="none" id="make-me-a-hanzi-animation-4" stroke-dasharray="1068 2136" stroke-linecap="round"></path>

      <clipPath id="make-me-a-hanzi-clip-5">
      <path d="M 839.0 -34.0 Q 855.0 -56.0 870.0 -59.0 L 873.0 -59.0 Q 881.0 -59.0 888.0 -52.0 Q 894.0 -44.0 894.0 -27.0 Q 894.0 -13.0 890.0 7.0 Q 883.0 33.0 867.0 48.0 Q 838.0 81.0 769.0 126.0 Q 688.0 178.0 645.0 202.0 Q 642.0 203.0 640.0 203.0 Q 633.0 203.0 633.0 195.0 Q 633.0 180.0 643.0 170.0 Q 734.0 86.0 839.0 -34.0 Z" fill="lightgray"></path>
      </clipPath>
      <path clip-path="url(#make-me-a-hanzi-clip-5)" d="M 641.0 195.0 L 836.0 27.0 L 854.0 3.0 L 872.0 -41.0 " fill="none" id="make-me-a-hanzi-animation-5" stroke-dasharray="463 926" stroke-linecap="round"></path>

      <clipPath id="make-me-a-hanzi-clip-6">
      <path d="M 1465.5 761.5 Q 1493.5 745.5 1523.5 722.5 Q 1536.5 713.5 1549.5 715.5 Q 1559.5 716.5 1561.5 729.5 Q 1562.5 742.5 1552.5 767.5 Q 1545.5 783.5 1515.5 793.5 Q 1446.5 808.5 1436.5 800.5 Q 1432.5 796.5 1435.5 785.5 Q 1439.5 776.5 1465.5 761.5 Z" fill="lightgray"></path>
      </clipPath>
      <path clip-path="url(#make-me-a-hanzi-clip-6)" d="M 1442.5 792.5 L 1513.5 764.5 L 1547.5 729.5 " fill="none" id="make-me-a-hanzi-animation-6" stroke-dasharray="253 506" stroke-linecap="round"></path>

      <clipPath id="make-me-a-hanzi-clip-7">
      <path d="M 1275.5 658.5 Q 1266.5 674.5 1259.5 681.5 Q 1241.5 694.5 1239.5 670.5 Q 1245.5 640.5 1190.5 583.5 Q 1166.5 562.5 1191.5 504.5 Q 1204.5 479.5 1224.5 504.5 Q 1240.5 526.5 1252.5 558.5 Q 1279.5 625.5 1280.5 626.5 C 1286.5 639.5 1286.5 639.5 1275.5 658.5 Z" fill="lightgray"></path>
      </clipPath>
      <path clip-path="url(#make-me-a-hanzi-clip-7)" d="M 1250.5 674.5 L 1257.5 656.5 L 1255.5 628.5 L 1214.5 557.5 L 1206.5 507.5 " fill="none" id="make-me-a-hanzi-animation-7" stroke-dasharray="308 616" stroke-linecap="round"></path>

      <clipPath id="make-me-a-hanzi-clip-8">
      <path d="M 1280.5 626.5 Q 1299.5 616.5 1322.5 622.5 Q 1458.5 662.5 1682.5 681.5 Q 1716.5 684.5 1730.5 681.5 Q 1746.5 671.5 1744.5 662.5 Q 1745.5 658.5 1740.5 645.5 Q 1710.5 578.5 1717.5 574.5 Q 1724.5 570.5 1739.5 582.5 Q 1788.5 619.5 1830.5 633.5 Q 1864.5 645.5 1864.5 653.5 Q 1863.5 663.5 1795.5 711.5 Q 1771.5 727.5 1706.5 715.5 Q 1613.5 705.5 1377.5 670.5 Q 1325.5 663.5 1275.5 658.5 C 1245.5 655.5 1251.5 635.5 1280.5 626.5 Z" fill="lightgray"></path>
      </clipPath>
      <path clip-path="url(#make-me-a-hanzi-clip-8)" d="M 1283.5 654.5 L 1302.5 640.5 L 1453.5 669.5 L 1737.5 700.5 L 1772.5 685.5 L 1788.5 663.5 L 1722.5 578.5 " fill="none" id="make-me-a-hanzi-animation-8" stroke-dasharray="764 1528" stroke-linecap="round"></path>

      <clipPath id="make-me-a-hanzi-clip-9">
      <path d="M 1591.5 554.5 Q 1598.5 557.5 1608.5 558.5 Q 1654.5 568.5 1662.5 574.5 Q 1669.5 581.5 1666.5 587.5 Q 1660.5 597.5 1637.5 604.5 Q 1619.5 608.5 1605.5 604.5 L 1547.5 587.5 Q 1511.5 578.5 1476.5 570.5 Q 1463.5 569.5 1453.5 565.5 L 1402.5 557.5 Q 1369.5 554.5 1336.5 551.5 Q 1306.5 547.5 1327.5 532.5 Q 1360.5 511.5 1405.5 521.5 Q 1406.5 522.5 1408.5 521.5 L 1450.5 529.5 Q 1496.5 539.5 1546.5 546.5 L 1591.5 554.5 Z" fill="lightgray"></path>
      </clipPath>
      <path clip-path="url(#make-me-a-hanzi-clip-9)" d="M 1329.5 543.5 L 1352.5 536.5 L 1394.5 537.5 L 1620.5 584.5 L 1655.5 583.5 " fill="none" id="make-me-a-hanzi-animation-9" stroke-dasharray="460 920" stroke-linecap="round"></path>

      <clipPath id="make-me-a-hanzi-clip-10">
      <path d="M 1577.5 471.5 Q 1620.5 480.5 1664.5 485.5 Q 1683.5 488.5 1677.5 499.5 Q 1668.5 511.5 1647.5 516.5 Q 1617.5 520.5 1583.5 509.5 L 1543.5 500.5 Q 1494.5 491.5 1448.5 480.5 L 1412.5 472.5 Q 1360.5 465.5 1314.5 455.5 Q 1301.5 452.5 1317.5 440.5 Q 1333.5 427.5 1369.5 434.5 Q 1390.5 438.5 1414.5 442.5 L 1448.5 448.5 Q 1494.5 458.5 1540.5 464.5 L 1577.5 471.5 Z" fill="lightgray"></path>
      </clipPath>
      <path clip-path="url(#make-me-a-hanzi-clip-10)" d="M 1322.5 449.5 L 1359.5 447.5 L 1618.5 498.5 L 1668.5 495.5 " fill="none" id="make-me-a-hanzi-animation-10" stroke-dasharray="479 958" stroke-linecap="round"></path>

      <clipPath id="make-me-a-hanzi-clip-11">
      <path d="M 1453.5 565.5 Q 1454.5 581.5 1445.5 591.5 Q 1427.5 606.5 1406.5 613.5 Q 1396.5 617.5 1388.5 613.5 Q 1382.5 609.5 1387.5 596.5 Q 1396.5 577.5 1402.5 557.5 L 1408.5 521.5 Q 1409.5 503.5 1412.5 472.5 L 1414.5 442.5 Q 1414.5 423.5 1416.5 400.5 C 1418.5 370.5 1450.5 375.5 1449.5 405.5 Q 1448.5 429.5 1448.5 448.5 L 1448.5 480.5 Q 1448.5 517.5 1450.5 529.5 L 1453.5 565.5 Z" fill="lightgray"></path>
      </clipPath>
      <path clip-path="url(#make-me-a-hanzi-clip-11)" d="M 1394.5 606.5 L 1426.5 570.5 L 1432.5 427.5 L 1420.5 408.5 " fill="none" id="make-me-a-hanzi-animation-11" stroke-dasharray="342 684" stroke-linecap="round"></path>

      <clipPath id="make-me-a-hanzi-clip-12">
      <path d="M 1568.5 423.5 Q 1572.5 448.5 1577.5 471.5 L 1583.5 509.5 Q 1586.5 533.5 1591.5 554.5 L 1605.5 604.5 Q 1606.5 610.5 1609.5 613.5 Q 1612.5 622.5 1598.5 634.5 Q 1574.5 650.5 1556.5 655.5 Q 1544.5 659.5 1538.5 653.5 Q 1531.5 649.5 1537.5 636.5 Q 1546.5 621.5 1547.5 587.5 L 1546.5 546.5 Q 1545.5 524.5 1543.5 500.5 L 1540.5 464.5 Q 1537.5 442.5 1535.5 418.5 C 1532.5 388.5 1563.5 393.5 1568.5 423.5 Z" fill="lightgray"></path>
      </clipPath>
      <path clip-path="url(#make-me-a-hanzi-clip-12)" d="M 1546.5 644.5 L 1566.5 627.5 L 1575.5 606.5 L 1555.5 444.5 L 1550.5 432.5 L 1539.5 426.5 " fill="none" id="make-me-a-hanzi-animation-12" stroke-dasharray="366 732" stroke-linecap="round"></path>

      <clipPath id="make-me-a-hanzi-clip-13">
      <path d="M 1388.5 365.5 Q 1469.5 383.5 1598.5 389.5 L 1631.5 391.5 Q 1686.5 395.5 1755.5 396.5 Q 1818.5 393.5 1827.5 404.5 Q 1831.5 414.5 1817.5 428.5 Q 1763.5 468.5 1695.5 447.5 Q 1640.5 438.5 1568.5 423.5 L 1535.5 418.5 Q 1510.5 415.5 1488.5 411.5 Q 1467.5 410.5 1449.5 405.5 L 1416.5 400.5 Q 1307.5 387.5 1187.5 370.5 Q 1168.5 367.5 1182.5 352.5 Q 1195.5 339.5 1212.5 334.5 Q 1231.5 330.5 1247.5 334.5 Q 1295.5 347.5 1348.5 358.5 L 1388.5 365.5 Z" fill="lightgray"></path>
      </clipPath>
      <path clip-path="url(#make-me-a-hanzi-clip-13)" d="M 1185.5 361.5 L 1230.5 354.5 L 1482.5 396.5 L 1724.5 425.5 L 1773.5 422.5 L 1819.5 409.5 " fill="none" id="make-me-a-hanzi-animation-13" stroke-dasharray="770 1540" stroke-linecap="round"></path>

      <clipPath id="make-me-a-hanzi-clip-14">
      <path d="M 1373.5 294.5 Q 1394.5 316.5 1407.5 326.5 Q 1417.5 336.5 1415.5 343.5 Q 1414.5 355.5 1393.5 363.5 Q 1390.5 364.5 1388.5 365.5 C 1360.5 377.5 1356.5 378.5 1348.5 358.5 Q 1317.5 268.5 1105.5 131.5 Q 1086.5 121.5 1109.5 121.5 Q 1200.5 127.5 1350.5 271.5 L 1373.5 294.5 Z" fill="lightgray"></path>
      </clipPath>
      <path clip-path="url(#make-me-a-hanzi-clip-14)" d="M 1399.5 341.5 L 1369.5 332.5 L 1327.5 279.5 L 1225.5 190.5 L 1153.5 145.5 L 1113.5 129.5 " fill="none" id="make-me-a-hanzi-animation-14" stroke-dasharray="490 980" stroke-linecap="round"></path>

      <clipPath id="make-me-a-hanzi-clip-15">
      <path d="M 1598.5 389.5 Q 1772.5 200.5 1782.5 193.5 Q 1830.5 168.5 1964.5 192.5 Q 1983.5 193.5 1984.5 199.5 Q 1985.5 206.5 1971.5 211.5 Q 1928.5 227.5 1875.5 243.5 Q 1752.5 285.5 1633.5 390.5 Q 1632.5 391.5 1631.5 391.5 C 1608.5 410.5 1578.5 411.5 1598.5 389.5 Z" fill="lightgray"></path>
      </clipPath>
      <path clip-path="url(#make-me-a-hanzi-clip-15)" d="M 1615.5 379.5 L 1631.5 375.5 L 1635.5 365.5 L 1674.5 330.5 L 1805.5 227.5 L 1859.5 213.5 L 1978.5 200.5 " fill="none" id="make-me-a-hanzi-animation-15" stroke-dasharray="550 1100" stroke-linecap="round"></path>

      <clipPath id="make-me-a-hanzi-clip-16">
      <path d="M 1398.5 279.5 Q 1386.5 288.5 1373.5 294.5 C 1346.5 307.5 1339.5 299.5 1350.5 271.5 Q 1369.5 231.5 1346.5 117.5 Q 1330.5 66.5 1359.5 36.5 Q 1368.5 24.5 1377.5 36.5 Q 1395.5 57.5 1402.5 172.5 Q 1403.5 233.5 1407.5 252.5 C 1410.5 271.5 1410.5 271.5 1398.5 279.5 Z" fill="lightgray"></path>
      </clipPath>
      <path clip-path="url(#make-me-a-hanzi-clip-16)" d="M 1376.5 284.5 L 1382.5 230.5 L 1379.5 161.5 L 1366.5 80.5 L 1368.5 40.5 " fill="none" id="make-me-a-hanzi-animation-16" stroke-dasharray="373 746" stroke-linecap="round"></path>

      <clipPath id="make-me-a-hanzi-clip-17">
      <path d="M 1599.5 106.5 Q 1592.5 84.5 1605.5 65.5 Q 1618.5 38.5 1626.5 39.5 Q 1639.5 40.5 1654.5 70.5 Q 1667.5 94.5 1666.5 113.5 Q 1654.5 224.5 1674.5 255.5 Q 1684.5 270.5 1676.5 279.5 Q 1651.5 301.5 1608.5 320.5 Q 1593.5 326.5 1572.5 318.5 Q 1493.5 284.5 1398.5 279.5 C 1368.5 277.5 1377.5 248.5 1407.5 252.5 Q 1410.5 252.5 1501.5 267.5 Q 1574.5 283.5 1589.5 272.5 Q 1596.5 260.5 1599.5 227.5 Q 1603.5 125.5 1599.5 106.5 Z" fill="lightgray"></path>
      </clipPath>
      <path clip-path="url(#make-me-a-hanzi-clip-17)" d="M 1406.5 274.5 L 1416.5 267.5 L 1460.5 270.5 L 1585.5 298.5 L 1606.5 293.5 L 1620.5 279.5 L 1633.5 262.5 L 1634.5 122.5 L 1627.5 49.5 " fill="none" id="make-me-a-hanzi-animation-17" stroke-dasharray="589 1178" stroke-linecap="round"></path>

      <clipPath id="make-me-a-hanzi-clip-18">
      <path d="M 1469.5 145.5 Q 1472.5 46.5 1434.5 -5.5 Q 1397.5 -59.5 1265.5 -108.5 Q 1253.5 -111.5 1250.5 -113.5 Q 1246.5 -117.5 1259.5 -122.5 Q 1328.5 -131.5 1426.5 -73.5 Q 1439.5 -63.5 1450.5 -52.5 Q 1501.5 4.5 1521.5 131.5 Q 1522.5 147.5 1532.5 167.5 Q 1536.5 177.5 1530.5 184.5 Q 1515.5 199.5 1485.5 213.5 Q 1467.5 223.5 1453.5 218.5 Q 1435.5 214.5 1448.5 197.5 Q 1470.5 170.5 1469.5 145.5 Z" fill="lightgray"></path>
      </clipPath>
      <path clip-path="url(#make-me-a-hanzi-clip-18)" d="M 1453.5 207.5 L 1472.5 198.5 L 1498.5 169.5 L 1488.5 73.5 L 1475.5 29.5 L 1452.5 -17.5 L 1408.5 -61.5 L 1375.5 -80.5 L 1291.5 -112.5 L 1266.5 -117.5 L 1259.5 -113.5 " fill="none" id="make-me-a-hanzi-animation-18" stroke-dasharray="606 1212" stroke-linecap="round"></path>

      <clipPath id="make-me-a-hanzi-clip-19">
      <path d="M 1562.5 3.5 Q 1604.5 -41.5 1653.5 -105.5 Q 1666.5 -126.5 1681.5 -131.5 Q 1688.5 -132.5 1697.5 -124.5 Q 1710.5 -112.5 1701.5 -70.5 Q 1695.5 -30.5 1630.5 1.5 Q 1588.5 23.5 1566.5 32.5 Q 1557.5 38.5 1555.5 26.5 Q 1554.5 13.5 1562.5 3.5 Z" fill="lightgray"></path>
      </clipPath>
      <path clip-path="url(#make-me-a-hanzi-clip-19)" d="M 1565.5 21.5 L 1657.5 -55.5 L 1675.5 -84.5 L 1682.5 -116.5 " fill="none" id="make-me-a-hanzi-animation-19" stroke-dasharray="315 630" stroke-linecap="round"></path>

</g>
</svg>
