<svg version="1.1" viewBox="0 0 2048 1024" xmlns="http://www.w3.org/2000/svg">
  <g stroke="lightgray" stroke-dasharray="1,1" stroke-width="1" transform="scale(4, 4)">
    <line x1="0" y1="0" x2="256" y2="256"></line>
    <line x1="256" y1="0" x2="0" y2="256"></line>
    <line x1="128" y1="0" x2="128" y2="256"></line>
    <line x1="0" y1="128" x2="256" y2="128"></line>
    <line x1="256" y1="0" x2="512" y2="256"></line>
    <line x1="512" y1="0" x2="256" y2="256"></line>
    <line x1="384" y1="0" x2="384" y2="256"></line>
    <line x1="256" y1="128" x2="512" y2="128"></line>
  </g>
<g transform="scale(1, -1) translate(0, -850)">
   <style type="text/css">
    @keyframes keyframes0 {
      from {
       stroke: black;
       stroke-dashoffset: 416;
       stroke-width: 128;
       }
       58% {
       animation-timing-function: step-end;
       stroke: black;
       stroke-dashoffset: 0;
       stroke-width: 128;
       }
       to {
       stroke: black;
       stroke-width: 1024;
       }
       }
       #make-me-a-hanzi-animation-0 {
         animation: keyframes0 0.588542s both;
         animation-delay: 0.000000s;
         animation-timing-function: linear;
       }
    @keyframes keyframes1 {
      from {
       stroke: black;
       stroke-dashoffset: 629;
       stroke-width: 128;
       }
       67% {
       animation-timing-function: step-end;
       stroke: black;
       stroke-dashoffset: 0;
       stroke-width: 128;
       }
       to {
       stroke: black;
       stroke-width: 1024;
       }
       }
       #make-me-a-hanzi-animation-1 {
         animation: keyframes1 0.761882s both;
         animation-delay: 0.588542s;
         animation-timing-function: linear;
       }
    @keyframes keyframes2 {
      from {
       stroke: black;
       stroke-dashoffset: 822;
       stroke-width: 128;
       }
       73% {
       animation-timing-function: step-end;
       stroke: black;
       stroke-dashoffset: 0;
       stroke-width: 128;
       }
       to {
       stroke: black;
       stroke-width: 1024;
       }
       }
       #make-me-a-hanzi-animation-2 {
         animation: keyframes2 0.918945s both;
         animation-delay: 1.350423s;
         animation-timing-function: linear;
       }
    @keyframes keyframes3 {
      from {
       stroke: black;
       stroke-dashoffset: 774;
       stroke-width: 128;
       }
       72% {
       animation-timing-function: step-end;
       stroke: black;
       stroke-dashoffset: 0;
       stroke-width: 128;
       }
       to {
       stroke: black;
       stroke-width: 1024;
       }
       }
       #make-me-a-hanzi-animation-3 {
         animation: keyframes3 0.879883s both;
         animation-delay: 2.269368s;
         animation-timing-function: linear;
       }
    @keyframes keyframes4 {
      from {
       stroke: black;
       stroke-dashoffset: 472;
       stroke-width: 128;
       }
       61% {
       animation-timing-function: step-end;
       stroke: black;
       stroke-dashoffset: 0;
       stroke-width: 128;
       }
       to {
       stroke: black;
       stroke-width: 1024;
       }
       }
       #make-me-a-hanzi-animation-4 {
         animation: keyframes4 0.634115s both;
         animation-delay: 3.149251s;
         animation-timing-function: linear;
       }
    @keyframes keyframes5 {
      from {
       stroke: black;
       stroke-dashoffset: 823;
       stroke-width: 128;
       }
       73% {
       animation-timing-function: step-end;
       stroke: black;
       stroke-dashoffset: 0;
       stroke-width: 128;
       }
       to {
       stroke: black;
       stroke-width: 1024;
       }
       }
       #make-me-a-hanzi-animation-5 {
         animation: keyframes5 0.919759s both;
         animation-delay: 3.783366s;
         animation-timing-function: linear;
       }
    @keyframes keyframes6 {
      from {
       stroke: black;
       stroke-dashoffset: 484;
       stroke-width: 128;
       }
       61% {
       animation-timing-function: step-end;
       stroke: black;
       stroke-dashoffset: 0;
       stroke-width: 128;
       }
       to {
       stroke: black;
       stroke-width: 1024;
       }
       }
       #make-me-a-hanzi-animation-6 {
         animation: keyframes6 0.643880s both;
         animation-delay: 4.703125s;
         animation-timing-function: linear;
       }
    @keyframes keyframes7 {
      from {
       stroke: black;
       stroke-dashoffset: 652;
       stroke-width: 128;
       }
       68% {
       animation-timing-function: step-end;
       stroke: black;
       stroke-dashoffset: 0;
       stroke-width: 128;
       }
       to {
       stroke: black;
       stroke-width: 1024;
       }
       }
       #make-me-a-hanzi-animation-7 {
         animation: keyframes7 0.780599s both;
         animation-delay: 5.347005s;
         animation-timing-function: linear;
       }
    @keyframes keyframes8 {
      from {
       stroke: black;
       stroke-dashoffset: 477;
       stroke-width: 128;
       }
       61% {
       animation-timing-function: step-end;
       stroke: black;
       stroke-dashoffset: 0;
       stroke-width: 128;
       }
       to {
       stroke: black;
       stroke-width: 1024;
       }
       }
       #make-me-a-hanzi-animation-8 {
         animation: keyframes8 0.638184s both;
         animation-delay: 6.127604s;
         animation-timing-function: linear;
       }
    @keyframes keyframes9 {
      from {
       stroke: black;
       stroke-dashoffset: 399;
       stroke-width: 128;
       }
       56% {
       animation-timing-function: step-end;
       stroke: black;
       stroke-dashoffset: 0;
       stroke-width: 128;
       }
       to {
       stroke: black;
       stroke-width: 1024;
       }
       }
       #make-me-a-hanzi-animation-9 {
         animation: keyframes9 0.574707s both;
         animation-delay: 6.765788s;
         animation-timing-function: linear;
       }
    @keyframes keyframes10 {
      from {
       stroke: black;
       stroke-dashoffset: 629;
       stroke-width: 128;
       }
       67% {
       animation-timing-function: step-end;
       stroke: black;
       stroke-dashoffset: 0;
       stroke-width: 128;
       }
       to {
       stroke: black;
       stroke-width: 1024;
       }
       }
       #make-me-a-hanzi-animation-10 {
         animation: keyframes10 0.761882s both;
         animation-delay: 7.340495s;
         animation-timing-function: linear;
       }
    @keyframes keyframes11 {
      from {
       stroke: black;
       stroke-dashoffset: 487;
       stroke-width: 128;
       }
       61% {
       animation-timing-function: step-end;
       stroke: black;
       stroke-dashoffset: 0;
       stroke-width: 128;
       }
       to {
       stroke: black;
       stroke-width: 1024;
       }
       }
       #make-me-a-hanzi-animation-11 {
         animation: keyframes11 0.646322s both;
         animation-delay: 8.102376s;
         animation-timing-function: linear;
       }
    @keyframes keyframes12 {
      from {
       stroke: black;
       stroke-dashoffset: 443;
       stroke-width: 128;
       }
       59% {
       animation-timing-function: step-end;
       stroke: black;
       stroke-dashoffset: 0;
       stroke-width: 128;
       }
       to {
       stroke: black;
       stroke-width: 1024;
       }
       }
       #make-me-a-hanzi-animation-12 {
         animation: keyframes12 0.610514s both;
         animation-delay: 8.748698s;
         animation-timing-function: linear;
       }
    @keyframes keyframes13 {
      from {
       stroke: black;
       stroke-dashoffset: 660;
       stroke-width: 128;
       }
       68% {
       animation-timing-function: step-end;
       stroke: black;
       stroke-dashoffset: 0;
       stroke-width: 128;
       }
       to {
       stroke: black;
       stroke-width: 1024;
       }
       }
       #make-me-a-hanzi-animation-13 {
         animation: keyframes13 0.787109s both;
         animation-delay: 9.359212s;
         animation-timing-function: linear;
       }
    @keyframes keyframes14 {
      from {
       stroke: black;
       stroke-dashoffset: 991;
       stroke-width: 128;
       }
       76% {
       animation-timing-function: step-end;
       stroke: black;
       stroke-dashoffset: 0;
       stroke-width: 128;
       }
       to {
       stroke: black;
       stroke-width: 1024;
       }
       }
       #make-me-a-hanzi-animation-14 {
         animation: keyframes14 1.056478s both;
         animation-delay: 10.146322s;
         animation-timing-function: linear;
       }
    @keyframes keyframes15 {
      from {
       stroke: black;
       stroke-dashoffset: 948;
       stroke-width: 128;
       }
       76% {
       animation-timing-function: step-end;
       stroke: black;
       stroke-dashoffset: 0;
       stroke-width: 128;
       }
       to {
       stroke: black;
       stroke-width: 1024;
       }
       }
       #make-me-a-hanzi-animation-15 {
         animation: keyframes15 1.021484s both;
         animation-delay: 11.202799s;
         animation-timing-function: linear;
       }
    @keyframes keyframes16 {
      from {
       stroke: black;
       stroke-dashoffset: 793;
       stroke-width: 128;
       }
       72% {
       animation-timing-function: step-end;
       stroke: black;
       stroke-dashoffset: 0;
       stroke-width: 128;
       }
       to {
       stroke: black;
       stroke-width: 1024;
       }
       }
       #make-me-a-hanzi-animation-16 {
         animation: keyframes16 0.895345s both;
         animation-delay: 12.224284s;
         animation-timing-function: linear;
       }
</style>
<path d="M 122 512 L 143 484 Q 167 452 171 448 Q 206 405 221 401 Q 236 396 240 397 Q 252 399 260 418 Q 263 423 261 443 Q 257 478 225 499 Q 205 510 194 514 L 166 524 L 137 530 Q 124 533 123 532 Q 108 526 122 512 Z" fill="lightgray"></path> 
<path d="M 154 21 L 177 69 L 249 240 L 265 284 Q 271 298 261 300 Q 254 302 249 292 L 183 178 L 157 138 L 124 96 Q 106 79 93 71 Q 81 63 72 55 Q 63 47 70 23 Q 76 -11 101 -47 Q 108 -57 113 -57 Q 118 -58 126 -52 Q 134 -46 140 -24 L 147 1 L 154 21 Z" fill="lightgray"></path> 
<path d="M 553 552 L 558 562 Q 572 588 578 597 Q 585 606 585 612 Q 585 617 579 626 Q 562 651 541 661 Q 521 670 516 670 Q 511 670 508 667 Q 505 663 504 643 Q 503 622 502 617 L 497 590 Q 494 567 474 522 Q 430 419 375 343 Q 320 266 295 237 L 272 210 L 259 197 Q 253 190 257 186 Q 261 181 272 187 L 281 193 Q 321 214 374 266 L 415 312 L 453 368 Q 471 395 489 427 L 541 522 L 553 552 Z" fill="lightgray"></path> 
<path d="M 565 543 L 553 552 C 529 570 520 544 541 522 L 576 485 Q 588 474 625 421 L 675 350 Q 718 293 741 265 Q 764 236 779 226 Q 795 216 818 216 Q 842 211 899 227 L 944 238 Q 950 240 952 242 Q 957 251 940 257 L 849 297 Q 830 306 791 330 Q 753 353 691 412 Q 685 416 630 477 Q 576 535 573 537 Q 570 538 565 543 Z" fill="lightgray"></path> 
<path d="M 555 311 L 529 303 L 457 284 L 423 278 Q 417 274 415 271 Q 414 268 424 261 Q 430 254 448 251 Q 475 242 503 250 L 610 272 Q 620 273 631 279 Q 642 284 643 290 Q 642 301 612 310 L 589 315 L 573 317 Q 572 316 555 311 Z" fill="lightgray"></path> 
<path d="M 387 78 L 400 80 L 580 121 Q 618 131 621 118 Q 622 116 618 104 Q 614 92 602 72 Q 590 48 579 35 L 548 -12 Q 545 -19 524 -50 C 507 -75 523 -85 545 -64 L 581 -30 Q 650 38 675 57 Q 701 76 717 83 Q 743 92 747 112 Q 749 124 734 135 L 701 156 Q 652 180 644 180 Q 636 180 620 174 Q 605 167 543 150 L 476 136 Q 456 132 427 129 L 370 122 L 340 120 Q 330 118 328 114 Q 327 111 332 103 Q 340 94 349 90 L 369 80 Q 382 78 387 78 Z" fill="lightgray"></path> 
<path d="M 524 -50 L 485 -30 Q 466 -21 449 -14 L 425 -6 Q 416 -2 411 -5 L 409 -12 Q 409 -14 415 -20 L 461 -68 L 498 -114 Q 524 -147 533 -156 Q 543 -166 563 -180 Q 582 -197 597 -176 Q 605 -161 603 -143 Q 601 -125 576 -90 Q 572 -85 545 -64 L 524 -50 Z" fill="lightgray"></path> 
<path d="M 1370 577 L 1405 635 L 1421 659 Q 1421 670 1400 684 Q 1395 688 1362 709 Q 1346 716 1340 713 Q 1332 713 1332 681 Q 1332 649 1315.5 611.5 Q 1299 574 1288 558 Q 1272 526 1241.5 480.5 Q 1211 435 1188 407 L 1168 387 Q 1164 380 1165 376 Q 1167 371 1175 376 L 1192 386 Q 1221 405 1250 430 Q 1294 470 1314 497 L 1323 510 Q 1332 523 1342 539 L 1370 577 Z" fill="lightgray"></path> 
<path d="M 1522 616 Q 1519 616 1477 606 L 1370 577 C 1341 569 1312 541 1342 539 L 1370 537 Q 1376 536 1416 543 L 1503 558 L 1532 562 Q 1557 567 1565 573 Q 1589 584 1565 599 Q 1547 608 1542 610 L 1522 616 Z" fill="lightgray"></path> 
<path d="M 1314 497 Q 1375 459 1403 432 Q 1431 405 1443 405 Q 1457 402 1470 412 Q 1478 420 1480 433 Q 1481 446 1472 458 Q 1462 469 1422 484 Q 1381 499 1323 510 C 1294 516 1289 513 1314 497 Z" fill="lightgray"></path> 
<path d="M 1658 537 L 1674 561 L 1695 597 L 1719 641 Q 1721 647 1733 662 L 1743 676 L 1745 683 Q 1745 685 1737.5 698 Q 1730 711 1700.5 726 Q 1671 741 1664 734 L 1662 728 L 1662 725 L 1654 674 Q 1647 622 1588 514 Q 1565 471 1550 451 L 1529 421 Q 1522 411 1524 407.5 Q 1526 404 1538 411 L 1558 424 Q 1569 432 1598.5 461.5 Q 1628 491 1646 520 L 1658 537 Z" fill="lightgray"></path> 
<path d="M 1674 561 L 1690 556 Q 1694 552 1718 557 L 1838 581 Q 1891 593 1903 597 Q 1909 601 1913 605 Q 1915 613 1915 614 Q 1915 619 1899 629 Q 1871 650 1852 644 L 1695 597 C 1666 588 1645 570 1674 561 Z" fill="lightgray"></path> 
<path d="M 1646 520 Q 1682 499 1711 477 Q 1758 445 1778 422 Q 1794 409 1810 409 Q 1825 409 1834 419 Q 1843 428 1838 448 Q 1825 480 1749 513 Q 1703 533 1658 537 C 1628 540 1620 535 1646 520 Z" fill="lightgray"></path> 
<path d="M 1633 424 Q 1625 421 1598.5 401.5 Q 1572 382 1530 359 Q 1439 312 1368 289 L 1325 275 Q 1318 274 1316 268 Q 1311 256 1333 258 L 1402 268 Q 1426 273 1449 280 L 1492 292 L 1534 309 L 1593 326 L 1706 352 Q 1723 357 1719 369 Q 1718 372 1712 383 Q 1710 386 1685 405 L 1658 424 Q 1651 428 1645 428 L 1633 424 Z" fill="lightgray"></path> 
<path d="M 1499 184 L 1430 174 Q 1379 167 1330 163 L 1261 157 L 1202 153 Q 1186 149 1186 146 Q 1179 139 1200 125.5 Q 1221 112 1244.5 104 Q 1268 96 1282 96 L 1369 118 L 1487 137 L 1566 145 L 1651 151 Q 1658 152 1740 152 L 1862 152 Q 1886 152 1910 154 Q 1923 157 1928 160 Q 1932 164 1930 174 Q 1928 184 1890.5 205 Q 1853 226 1835.5 227 Q 1818 228 1777.5 218.5 Q 1737 209 1702 205 L 1570 192 L 1499 184 Z" fill="lightgray"></path> 
<path d="M 1492 292 L 1498 265 Q 1500 254 1501 231 L 1499 184 L 1487 137 L 1470 98 Q 1436 15 1341 -58 Q 1294 -94 1266 -108 Q 1237 -121 1184 -143 L 1134 -164 Q 1125 -170 1127 -174 Q 1128 -178 1138 -178 L 1168 -174 Q 1190 -173 1223 -166 Q 1337 -146 1432 -58 Q 1470 -20 1484 1 Q 1497 22 1522 70 L 1544 120 L 1572 204 Q 1573 212 1578 225 L 1588 252 Q 1594 264 1593 268 Q 1589 285 1574 290 Q 1568 292 1534 309 C 1507 322 1485 321 1492 292 Z" fill="lightgray"></path> 
<path d="M 1544 120 L 1574 90 Q 1584 80 1617 37 L 1691 -56 Q 1745 -127 1766 -150 Q 1786 -172 1805 -179 Q 1823 -186 1837 -187 Q 1850 -187 1894 -183 Q 1937 -178 1957 -172 L 1985 -164 L 1987 -162 Q 1999 -156 1987 -144 L 1973 -140 L 1939 -127 Q 1932 -125 1881 -102 Q 1829 -78 1791 -56 Q 1753 -33 1704 13 L 1624 91 L 1566 145 C 1544 165 1519 145 1544 120 Z" fill="lightgray"></path> 
      <clipPath id="make-me-a-hanzi-clip-0">
      <path d="M 122 512 L 143 484 Q 167 452 171 448 Q 206 405 221 401 Q 236 396 240 397 Q 252 399 260 418 Q 263 423 261 443 Q 257 478 225 499 Q 205 510 194 514 L 166 524 L 137 530 Q 124 533 123 532 Q 108 526 122 512 Z" fill="lightgray"></path>
      </clipPath>
      <path clip-path="url(#make-me-a-hanzi-clip-0)" d="M 125 522 L 202 470 L 221 449 L 238 414 " fill="none" id="make-me-a-hanzi-animation-0" stroke-dasharray="288 576" stroke-linecap="round"></path>

      <clipPath id="make-me-a-hanzi-clip-1">
      <path d="M 154 21 L 177 69 L 249 240 L 265 284 Q 271 298 261 300 Q 254 302 249 292 L 183 178 L 157 138 L 124 96 Q 106 79 93 71 Q 81 63 72 55 Q 63 47 70 23 Q 76 -11 101 -47 Q 108 -57 113 -57 Q 118 -58 126 -52 Q 134 -46 140 -24 L 147 1 L 154 21 Z" fill="lightgray"></path>
      </clipPath>
      <path clip-path="url(#make-me-a-hanzi-clip-1)" d="M 115 -43 L 112 30 L 178 127 L 258 291 " fill="none" id="make-me-a-hanzi-animation-1" stroke-dasharray="501 1002" stroke-linecap="round"></path>

      <clipPath id="make-me-a-hanzi-clip-2">
      <path d="M 553 552 L 558 562 Q 572 588 578 597 Q 585 606 585 612 Q 585 617 579 626 Q 562 651 541 661 Q 521 670 516 670 Q 511 670 508 667 Q 505 663 504 643 Q 503 622 502 617 L 497 590 Q 494 567 474 522 Q 430 419 375 343 Q 320 266 295 237 L 272 210 L 259 197 Q 253 190 257 186 Q 261 181 272 187 L 281 193 Q 321 214 374 266 L 415 312 L 453 368 Q 471 395 489 427 L 541 522 L 553 552 Z" fill="lightgray"></path>
      </clipPath>
      <path clip-path="url(#make-me-a-hanzi-clip-2)" d="M 515 660 L 541 612 L 511 530 L 463 434 L 414 354 L 363 286 L 310 229 L 264 190 " fill="none" id="make-me-a-hanzi-animation-2" stroke-dasharray="694 1388" stroke-linecap="round"></path>

      <clipPath id="make-me-a-hanzi-clip-3">
      <path d="M 565 543 L 553 552 C 529 570 520 544 541 522 L 576 485 Q 588 474 625 421 L 675 350 Q 718 293 741 265 Q 764 236 779 226 Q 795 216 818 216 Q 842 211 899 227 L 944 238 Q 950 240 952 242 Q 957 251 940 257 L 849 297 Q 830 306 791 330 Q 753 353 691 412 Q 685 416 630 477 Q 576 535 573 537 Q 570 538 565 543 Z" fill="lightgray"></path>
      </clipPath>
      <path clip-path="url(#make-me-a-hanzi-clip-3)" d="M 557 545 L 566 519 L 610 475 L 664 404 L 740 322 L 801 269 L 840 256 L 945 246 " fill="none" id="make-me-a-hanzi-animation-3" stroke-dasharray="646 1292" stroke-linecap="round"></path>

      <clipPath id="make-me-a-hanzi-clip-4">
      <path d="M 555 311 L 529 303 L 457 284 L 423 278 Q 417 274 415 271 Q 414 268 424 261 Q 430 254 448 251 Q 475 242 503 250 L 610 272 Q 620 273 631 279 Q 642 284 643 290 Q 642 301 612 310 L 589 315 L 573 317 Q 572 316 555 311 Z" fill="lightgray"></path>
      </clipPath>
      <path clip-path="url(#make-me-a-hanzi-clip-4)" d="M 423 269 L 481 268 L 576 291 L 636 291 " fill="none" id="make-me-a-hanzi-animation-4" stroke-dasharray="344 688" stroke-linecap="round"></path>

      <clipPath id="make-me-a-hanzi-clip-5">
      <path d="M 387 78 L 400 80 L 580 121 Q 618 131 621 118 Q 622 116 618 104 Q 614 92 602 72 Q 590 48 579 35 L 548 -12 Q 545 -19 524 -50 C 507 -75 523 -85 545 -64 L 581 -30 Q 650 38 675 57 Q 701 76 717 83 Q 743 92 747 112 Q 749 124 734 135 L 701 156 Q 652 180 644 180 Q 636 180 620 174 Q 605 167 543 150 L 476 136 Q 456 132 427 129 L 370 122 L 340 120 Q 330 118 328 114 Q 327 111 332 103 Q 340 94 349 90 L 369 80 Q 382 78 387 78 Z" fill="lightgray"></path>
      </clipPath>
      <path clip-path="url(#make-me-a-hanzi-clip-5)" d="M 337 111 L 390 101 L 617 148 L 636 147 L 655 136 L 671 115 L 543 -45 L 544 -54 " fill="none" id="make-me-a-hanzi-animation-5" stroke-dasharray="695 1390" stroke-linecap="round"></path>

      <clipPath id="make-me-a-hanzi-clip-6">
      <path d="M 524 -50 L 485 -30 Q 466 -21 449 -14 L 425 -6 Q 416 -2 411 -5 L 409 -12 Q 409 -14 415 -20 L 461 -68 L 498 -114 Q 524 -147 533 -156 Q 543 -166 563 -180 Q 582 -197 597 -176 Q 605 -161 603 -143 Q 601 -125 576 -90 Q 572 -85 545 -64 L 524 -50 Z" fill="lightgray"></path>
      </clipPath>
      <path clip-path="url(#make-me-a-hanzi-clip-6)" d="M 418 -11 L 481 -54 L 532 -99 L 573 -149 L 579 -167 " fill="none" id="make-me-a-hanzi-animation-6" stroke-dasharray="356 712" stroke-linecap="round"></path>

      <clipPath id="make-me-a-hanzi-clip-7">
      <path d="M 1370 577 L 1405 635 L 1421 659 Q 1421 670 1400 684 Q 1395 688 1362 709 Q 1346 716 1340 713 Q 1332 713 1332 681 Q 1332 649 1315.5 611.5 Q 1299 574 1288 558 Q 1272 526 1241.5 480.5 Q 1211 435 1188 407 L 1168 387 Q 1164 380 1165 376 Q 1167 371 1175 376 L 1192 386 Q 1221 405 1250 430 Q 1294 470 1314 497 L 1323 510 Q 1332 523 1342 539 L 1370 577 Z" fill="lightgray"></path>
      </clipPath>
      <path clip-path="url(#make-me-a-hanzi-clip-7)" d="M 1345 702 L 1370 655 L 1346 599 L 1284 499 L 1224 427 L 1170 381 " fill="none" id="make-me-a-hanzi-animation-7" stroke-dasharray="524 1048" stroke-linecap="round"></path>

      <clipPath id="make-me-a-hanzi-clip-8">
      <path d="M 1522 616 Q 1519 616 1477 606 L 1370 577 C 1341 569 1312 541 1342 539 L 1370 537 Q 1376 536 1416 543 L 1503 558 L 1532 562 Q 1557 567 1565 573 Q 1589 584 1565 599 Q 1547 608 1542 610 L 1522 616 Z" fill="lightgray"></path>
      </clipPath>
      <path clip-path="url(#make-me-a-hanzi-clip-8)" d="M 1349 543 L 1382 559 L 1495 584 L 1564 586 " fill="none" id="make-me-a-hanzi-animation-8" stroke-dasharray="349 698" stroke-linecap="round"></path>

      <clipPath id="make-me-a-hanzi-clip-9">
      <path d="M 1314 497 Q 1375 459 1403 432 Q 1431 405 1443 405 Q 1457 402 1470 412 Q 1478 420 1480 433 Q 1481 446 1472 458 Q 1462 469 1422 484 Q 1381 499 1323 510 C 1294 516 1289 513 1314 497 Z" fill="lightgray"></path>
      </clipPath>
      <path clip-path="url(#make-me-a-hanzi-clip-9)" d="M 1326 498 L 1385 475 L 1452 431 " fill="none" id="make-me-a-hanzi-animation-9" stroke-dasharray="271 542" stroke-linecap="round"></path>

      <clipPath id="make-me-a-hanzi-clip-10">
      <path d="M 1658 537 L 1674 561 L 1695 597 L 1719 641 Q 1721 647 1733 662 L 1743 676 L 1745 683 Q 1745 685 1737.5 698 Q 1730 711 1700.5 726 Q 1671 741 1664 734 L 1662 728 L 1662 725 L 1654 674 Q 1647 622 1588 514 Q 1565 471 1550 451 L 1529 421 Q 1522 411 1524 407.5 Q 1526 404 1538 411 L 1558 424 Q 1569 432 1598.5 461.5 Q 1628 491 1646 520 L 1658 537 Z" fill="lightgray"></path>
      </clipPath>
      <path clip-path="url(#make-me-a-hanzi-clip-10)" d="M 1670 729 L 1696 680 L 1671 617 L 1600 492 L 1570 452 L 1530 413 " fill="none" id="make-me-a-hanzi-animation-10" stroke-dasharray="501 1002" stroke-linecap="round"></path>

      <clipPath id="make-me-a-hanzi-clip-11">
      <path d="M 1674 561 L 1690 556 Q 1694 552 1718 557 L 1838 581 Q 1891 593 1903 597 Q 1909 601 1913 605 Q 1915 613 1915 614 Q 1915 619 1899 629 Q 1871 650 1852 644 L 1695 597 C 1666 588 1645 570 1674 561 Z" fill="lightgray"></path>
      </clipPath>
      <path clip-path="url(#make-me-a-hanzi-clip-11)" d="M 1680 566 L 1853 615 L 1904 612 " fill="none" id="make-me-a-hanzi-animation-11" stroke-dasharray="359 718" stroke-linecap="round"></path>

      <clipPath id="make-me-a-hanzi-clip-12">
      <path d="M 1646 520 Q 1682 499 1711 477 Q 1758 445 1778 422 Q 1794 409 1810 409 Q 1825 409 1834 419 Q 1843 428 1838 448 Q 1825 480 1749 513 Q 1703 533 1658 537 C 1628 540 1620 535 1646 520 Z" fill="lightgray"></path>
      </clipPath>
      <path clip-path="url(#make-me-a-hanzi-clip-12)" d="M 1655 520 L 1665 524 L 1749 484 L 1816 434 " fill="none" id="make-me-a-hanzi-animation-12" stroke-dasharray="315 630" stroke-linecap="round"></path>

      <clipPath id="make-me-a-hanzi-clip-13">
      <path d="M 1633 424 Q 1625 421 1598.5 401.5 Q 1572 382 1530 359 Q 1439 312 1368 289 L 1325 275 Q 1318 274 1316 268 Q 1311 256 1333 258 L 1402 268 Q 1426 273 1449 280 L 1492 292 L 1534 309 L 1593 326 L 1706 352 Q 1723 357 1719 369 Q 1718 372 1712 383 Q 1710 386 1685 405 L 1658 424 Q 1651 428 1645 428 L 1633 424 Z" fill="lightgray"></path>
      </clipPath>
      <path clip-path="url(#make-me-a-hanzi-clip-13)" d="M 1706 365 L 1643 381 L 1438 295 L 1325 265 " fill="none" id="make-me-a-hanzi-animation-13" stroke-dasharray="532 1064" stroke-linecap="round"></path>

      <clipPath id="make-me-a-hanzi-clip-14">
      <path d="M 1499 184 L 1430 174 Q 1379 167 1330 163 L 1261 157 L 1202 153 Q 1186 149 1186 146 Q 1179 139 1200 125.5 Q 1221 112 1244.5 104 Q 1268 96 1282 96 L 1369 118 L 1487 137 L 1566 145 L 1651 151 Q 1658 152 1740 152 L 1862 152 Q 1886 152 1910 154 Q 1923 157 1928 160 Q 1932 164 1930 174 Q 1928 184 1890.5 205 Q 1853 226 1835.5 227 Q 1818 228 1777.5 218.5 Q 1737 209 1702 205 L 1570 192 L 1499 184 Z" fill="lightgray"></path>
      </clipPath>
      <path clip-path="url(#make-me-a-hanzi-clip-14)" d="M 1193 142 L 1279 127 L 1565 169 L 1831 190 L 1920 168 " fill="none" id="make-me-a-hanzi-animation-14" stroke-dasharray="863 1726" stroke-linecap="round"></path>

      <clipPath id="make-me-a-hanzi-clip-15">
      <path d="M 1492 292 L 1498 265 Q 1500 254 1501 231 L 1499 184 L 1487 137 L 1470 98 Q 1436 15 1341 -58 Q 1294 -94 1266 -108 Q 1237 -121 1184 -143 L 1134 -164 Q 1125 -170 1127 -174 Q 1128 -178 1138 -178 L 1168 -174 Q 1190 -173 1223 -166 Q 1337 -146 1432 -58 Q 1470 -20 1484 1 Q 1497 22 1522 70 L 1544 120 L 1572 204 Q 1573 212 1578 225 L 1588 252 Q 1594 264 1593 268 Q 1589 285 1574 290 Q 1568 292 1534 309 C 1507 322 1485 321 1492 292 Z" fill="lightgray"></path>
      </clipPath>
      <path clip-path="url(#make-me-a-hanzi-clip-15)" d="M 1502 287 L 1533 270 L 1542 258 L 1531 179 L 1492 74 L 1450 5 L 1406 -42 L 1320 -106 L 1241 -142 L 1134 -172 " fill="none" id="make-me-a-hanzi-animation-15" stroke-dasharray="820 1640" stroke-linecap="round"></path>

      <clipPath id="make-me-a-hanzi-clip-16">
      <path d="M 1544 120 L 1574 90 Q 1584 80 1617 37 L 1691 -56 Q 1745 -127 1766 -150 Q 1786 -172 1805 -179 Q 1823 -186 1837 -187 Q 1850 -187 1894 -183 Q 1937 -178 1957 -172 L 1985 -164 L 1987 -162 Q 1999 -156 1987 -144 L 1973 -140 L 1939 -127 Q 1932 -125 1881 -102 Q 1829 -78 1791 -56 Q 1753 -33 1704 13 L 1624 91 L 1566 145 C 1544 165 1519 145 1544 120 Z" fill="lightgray"></path>
      </clipPath>
      <path clip-path="url(#make-me-a-hanzi-clip-16)" d="M 1560 134 L 1563 124 L 1722 -46 L 1813 -125 L 1880 -145 L 1983 -153 " fill="none" id="make-me-a-hanzi-animation-16" stroke-dasharray="665 1330" stroke-linecap="round"></path>

</g>
</svg>
