<svg version="1.1" viewBox="0 0 2048 1024" xmlns="http://www.w3.org/2000/svg">
  <g stroke="lightgray" stroke-dasharray="1,1" stroke-width="1" transform="scale(4, 4)">
    <line x1="0" y1="0" x2="256" y2="256"></line>
    <line x1="256" y1="0" x2="0" y2="256"></line>
    <line x1="128" y1="0" x2="128" y2="256"></line>
    <line x1="0" y1="128" x2="256" y2="128"></line>
    <line x1="256" y1="0" x2="512" y2="256"></line>
    <line x1="512" y1="0" x2="256" y2="256"></line>
    <line x1="384" y1="0" x2="384" y2="256"></line>
    <line x1="256" y1="128" x2="512" y2="128"></line>
  </g>
<g transform="scale(1, -1) translate(0, -850)">
   <style type="text/css">
    @keyframes keyframes0 {
      from {
       stroke: black;
       stroke-dashoffset: 994;
       stroke-width: 128;
       }
       76% {
       animation-timing-function: step-end;
       stroke: black;
       stroke-dashoffset: 0;
       stroke-width: 128;
       }
       to {
       stroke: black;
       stroke-width: 1024;
       }
       }
       #make-me-a-hanzi-animation-0 {
         animation: keyframes0 1.058919s both;
         animation-delay: 0.000000s;
         animation-timing-function: linear;
       }
    @keyframes keyframes1 {
      from {
       stroke: black;
       stroke-dashoffset: 956;
       stroke-width: 128;
       }
       76% {
       animation-timing-function: step-end;
       stroke: black;
       stroke-dashoffset: 0;
       stroke-width: 128;
       }
       to {
       stroke: black;
       stroke-width: 1024;
       }
       }
       #make-me-a-hanzi-animation-1 {
         animation: keyframes1 1.027995s both;
         animation-delay: 1.058919s;
         animation-timing-function: linear;
       }
    @keyframes keyframes2 {
      from {
       stroke: black;
       stroke-dashoffset: 559;
       stroke-width: 128;
       }
       65% {
       animation-timing-function: step-end;
       stroke: black;
       stroke-dashoffset: 0;
       stroke-width: 128;
       }
       to {
       stroke: black;
       stroke-width: 1024;
       }
       }
       #make-me-a-hanzi-animation-2 {
         animation: keyframes2 0.704915s both;
         animation-delay: 2.086914s;
         animation-timing-function: linear;
       }
    @keyframes keyframes3 {
      from {
       stroke: black;
       stroke-dashoffset: 993;
       stroke-width: 128;
       }
       76% {
       animation-timing-function: step-end;
       stroke: black;
       stroke-dashoffset: 0;
       stroke-width: 128;
       }
       to {
       stroke: black;
       stroke-width: 1024;
       }
       }
       #make-me-a-hanzi-animation-3 {
         animation: keyframes3 1.058105s both;
         animation-delay: 2.791829s;
         animation-timing-function: linear;
       }
    @keyframes keyframes4 {
      from {
       stroke: black;
       stroke-dashoffset: 577;
       stroke-width: 128;
       }
       65% {
       animation-timing-function: step-end;
       stroke: black;
       stroke-dashoffset: 0;
       stroke-width: 128;
       }
       to {
       stroke: black;
       stroke-width: 1024;
       }
       }
       #make-me-a-hanzi-animation-4 {
         animation: keyframes4 0.719564s both;
         animation-delay: 3.849934s;
         animation-timing-function: linear;
       }
    @keyframes keyframes5 {
      from {
       stroke: black;
       stroke-dashoffset: 977;
       stroke-width: 128;
       }
       76% {
       animation-timing-function: step-end;
       stroke: black;
       stroke-dashoffset: 0;
       stroke-width: 128;
       }
       to {
       stroke: black;
       stroke-width: 1024;
       }
       }
       #make-me-a-hanzi-animation-5 {
         animation: keyframes5 1.045085s both;
         animation-delay: 4.569498s;
         animation-timing-function: linear;
       }
    @keyframes keyframes6 {
      from {
       stroke: black;
       stroke-dashoffset: 426;
       stroke-width: 128;
       }
       58% {
       animation-timing-function: step-end;
       stroke: black;
       stroke-dashoffset: 0;
       stroke-width: 128;
       }
       to {
       stroke: black;
       stroke-width: 1024;
       }
       }
       #make-me-a-hanzi-animation-6 {
         animation: keyframes6 0.596680s both;
         animation-delay: 5.614583s;
         animation-timing-function: linear;
       }
    @keyframes keyframes7 {
      from {
       stroke: black;
       stroke-dashoffset: 697;
       stroke-width: 128;
       }
       69% {
       animation-timing-function: step-end;
       stroke: black;
       stroke-dashoffset: 0;
       stroke-width: 128;
       }
       to {
       stroke: black;
       stroke-width: 1024;
       }
       }
       #make-me-a-hanzi-animation-7 {
         animation: keyframes7 0.817220s both;
         animation-delay: 6.211263s;
         animation-timing-function: linear;
       }
    @keyframes keyframes8 {
      from {
       stroke: black;
       stroke-dashoffset: 582;
       stroke-width: 128;
       }
       65% {
       animation-timing-function: step-end;
       stroke: black;
       stroke-dashoffset: 0;
       stroke-width: 128;
       }
       to {
       stroke: black;
       stroke-width: 1024;
       }
       }
       #make-me-a-hanzi-animation-8 {
         animation: keyframes8 0.723633s both;
         animation-delay: 7.028483s;
         animation-timing-function: linear;
       }
    @keyframes keyframes9 {
      from {
       stroke: black;
       stroke-dashoffset: 878;
       stroke-width: 128;
       }
       74% {
       animation-timing-function: step-end;
       stroke: black;
       stroke-dashoffset: 0;
       stroke-width: 128;
       }
       to {
       stroke: black;
       stroke-width: 1024;
       }
       }
       #make-me-a-hanzi-animation-9 {
         animation: keyframes9 0.964518s both;
         animation-delay: 7.752116s;
         animation-timing-function: linear;
       }
    @keyframes keyframes10 {
      from {
       stroke: black;
       stroke-dashoffset: 1019;
       stroke-width: 128;
       }
       77% {
       animation-timing-function: step-end;
       stroke: black;
       stroke-dashoffset: 0;
       stroke-width: 128;
       }
       to {
       stroke: black;
       stroke-width: 1024;
       }
       }
       #make-me-a-hanzi-animation-10 {
         animation: keyframes10 1.079264s both;
         animation-delay: 8.716634s;
         animation-timing-function: linear;
       }
    @keyframes keyframes11 {
      from {
       stroke: black;
       stroke-dashoffset: 685;
       stroke-width: 128;
       }
       69% {
       animation-timing-function: step-end;
       stroke: black;
       stroke-dashoffset: 0;
       stroke-width: 128;
       }
       to {
       stroke: black;
       stroke-width: 1024;
       }
       }
       #make-me-a-hanzi-animation-11 {
         animation: keyframes11 0.807454s both;
         animation-delay: 9.795898s;
         animation-timing-function: linear;
       }
    @keyframes keyframes12 {
      from {
       stroke: black;
       stroke-dashoffset: 1254;
       stroke-width: 128;
       }
       80% {
       animation-timing-function: step-end;
       stroke: black;
       stroke-dashoffset: 0;
       stroke-width: 128;
       }
       to {
       stroke: black;
       stroke-width: 1024;
       }
       }
       #make-me-a-hanzi-animation-12 {
         animation: keyframes12 1.270508s both;
         animation-delay: 10.603352s;
         animation-timing-function: linear;
       }
</style>
<path d="M 536.0 42.0 L 544.0 359.0 L 544.0 403.0 L 550.0 537.0 Q 552.0 629.0 567.0 670.0 L 580.0 703.0 L 579.0 721.0 Q 574.0 729.0 566.0 737.0 Q 558.0 744.0 530.0 754.0 Q 464.0 774.0 464.0 748.0 Q 463.0 743.0 471.0 724.0 Q 482.0 688.0 484.0 654.0 L 486.0 545.0 Q 487.0 534.0 485.0 396.0 L 483.0 349.0 L 478.0 35.0 C 478.0 5.0 535.0 12.0 536.0 42.0 Z" fill="lightgray"></path> 
<path d="M 544.0 359.0 L 731.0 387.0 C 761.0 391.0 763.0 416.0 733.0 417.0 L 708.0 418.0 Q 705.0 419.0 665.0 417.0 L 575.0 407.0 Q 553.0 403.0 544.0 403.0 L 485.0 396.0 L 346.0 373.0 Q 320.0 368.0 315.0 372.0 Q 298.0 382.0 319.0 423.0 L 338.0 501.0 Q 346.0 525.0 346.0 532.0 Q 345.0 539.0 334.0 553.0 Q 314.0 573.0 281.0 582.0 Q 272.0 582.0 271.0 579.0 Q 265.0 578.0 267.0 570.0 Q 268.0 562.0 273.0 549.0 Q 277.0 535.0 277.0 528.0 L 278.0 504.0 Q 278.0 488.0 274.0 472.0 L 259.0 421.0 Q 247.0 382.0 238.0 368.0 Q 228.0 354.0 227.0 350.0 Q 225.0 345.0 230.0 329.0 Q 235.0 313.0 245.0 303.0 Q 253.0 291.0 259.0 289.0 L 268.0 287.0 Q 282.0 285.0 300.0 296.0 Q 317.0 306.0 366.0 322.0 Q 414.0 338.0 483.0 349.0 L 544.0 359.0 Z" fill="lightgray"></path> 
<path d="M 731.0 387.0 L 725.0 358.0 Q 723.0 350.0 728.0 331.0 Q 737.0 300.0 762.0 318.0 Q 774.0 329.0 777.0 341.0 Q 780.0 352.0 785.0 375.0 L 803.0 493.0 Q 804.0 502.0 810.0 530.0 Q 815.0 557.0 819.0 563.0 Q 823.0 569.0 823.0 572.0 L 825.0 576.0 L 826.0 583.0 Q 826.0 588.0 808.0 602.0 Q 790.0 615.0 748.0 621.0 Q 730.0 621.0 726.0 611.0 Q 725.0 609.0 733.0 591.0 Q 741.0 573.0 741.0 551.0 Q 741.0 528.0 740.0 523.0 L 733.0 417.0 L 731.0 387.0 Z" fill="lightgray"></path> 
<path d="M 747.0 62.0 L 536.0 42.0 L 478.0 35.0 L 327.0 21.0 Q 295.0 17.0 289.0 18.0 Q 275.0 23.0 283.0 47.0 L 296.0 82.0 L 310.0 125.0 Q 310.0 127.0 318.0 141.0 Q 325.0 155.0 325.0 163.0 Q 324.0 178.0 292.0 198.0 Q 263.0 220.0 247.0 217.0 Q 241.0 215.0 239.0 211.0 Q 236.0 206.0 237.0 204.0 L 242.0 177.0 Q 247.0 152.0 247.0 136.0 Q 247.0 119.0 243.0 104.0 Q 238.0 89.0 229.0 66.0 Q 220.0 42.0 207.0 24.0 Q 193.0 6.0 193.0 -12.0 Q 202.0 -53.0 217.0 -61.0 L 235.0 -72.0 Q 240.0 -77.0 263.0 -65.0 Q 286.0 -54.0 335.0 -39.0 Q 384.0 -25.0 405.0 -21.0 L 451.0 -13.0 Q 513.0 -1.0 604.0 9.0 Q 694.0 18.0 748.0 25.0 C 778.0 29.0 777.0 65.0 747.0 62.0 Z" fill="lightgray"></path> 
<path d="M 744.0 243.0 L 740.0 236.0 Q 738.0 231.0 743.0 218.0 Q 747.0 204.0 747.0 168.0 L 747.0 62.0 L 748.0 25.0 L 748.0 -15.0 Q 747.0 -46.0 757.0 -67.0 Q 776.0 -98.0 790.0 -81.0 Q 803.0 -64.0 807.0 -11.0 L 821.0 143.0 Q 823.0 168.0 827.0 185.0 Q 831.0 202.0 830.0 209.0 Q 819.0 227.0 794.0 237.0 Q 769.0 246.0 754.0 246.0 Q 746.0 244.0 744.0 243.0 Z" fill="lightgray"></path> 
<path d="M 1560.0 643.5 Q 1620.0 649.5 1874.0 649.5 Q 1895.0 649.5 1900.0 658.5 Q 1906.0 670.5 1888.0 684.5 Q 1834.0 726.5 1796.0 718.5 Q 1708.0 700.5 1564.0 680.5 L 1506.0 673.5 Q 1355.0 657.5 1178.0 638.5 Q 1156.0 637.5 1172.0 618.5 Q 1187.0 603.5 1205.0 597.5 Q 1227.0 591.5 1244.0 596.5 Q 1406.0 638.5 1506.0 639.5 L 1560.0 643.5 Z" fill="lightgray"></path> 
<path d="M 1346.0 559.5 Q 1333.0 565.5 1310.0 566.5 Q 1298.0 569.5 1296.0 564.5 Q 1290.0 557.5 1299.0 543.5 Q 1323.0 503.5 1340.0 437.5 Q 1344.0 418.5 1357.0 405.5 Q 1375.0 386.5 1379.0 400.5 Q 1382.0 409.5 1381.0 421.5 L 1377.0 452.5 Q 1367.0 507.5 1365.0 528.5 C 1362.0 553.5 1362.0 553.5 1346.0 559.5 Z" fill="lightgray"></path> 
<path d="M 1696.0 490.5 Q 1723.0 529.5 1743.0 535.5 Q 1759.0 551.5 1748.0 569.5 Q 1679.0 630.5 1637.0 609.5 Q 1595.0 597.5 1556.0 586.5 L 1506.0 577.5 Q 1428.0 565.5 1346.0 559.5 C 1316.0 557.5 1335.0 523.5 1365.0 528.5 Q 1471.0 546.5 1506.0 550.5 L 1555.0 557.5 Q 1586.0 563.5 1617.0 567.5 Q 1647.0 573.5 1658.0 560.5 Q 1662.0 556.5 1661.0 546.5 Q 1654.0 519.5 1647.0 497.5 C 1638.0 468.5 1678.0 466.5 1696.0 490.5 Z" fill="lightgray"></path> 
<path d="M 1551.0 445.5 Q 1617.0 454.5 1705.0 459.5 Q 1715.0 460.5 1716.0 468.5 Q 1716.0 475.5 1696.0 490.5 C 1680.0 503.5 1677.0 502.5 1647.0 497.5 Q 1596.0 488.5 1552.0 478.5 L 1505.0 470.5 Q 1438.0 460.5 1377.0 452.5 C 1347.0 448.5 1351.0 419.5 1381.0 421.5 Q 1385.0 421.5 1393.0 422.5 Q 1436.0 432.5 1505.0 439.5 L 1551.0 445.5 Z" fill="lightgray"></path> 
<path d="M 1716.0 190.5 Q 1723.0 224.5 1732.0 258.5 L 1753.0 311.5 Q 1763.0 327.5 1776.0 342.5 Q 1795.0 364.5 1768.0 380.5 Q 1743.0 399.5 1718.0 413.5 Q 1705.0 422.5 1626.0 399.5 Q 1599.0 396.5 1550.0 387.5 L 1504.0 380.5 Q 1462.0 376.5 1419.0 366.5 Q 1346.0 353.5 1300.0 351.5 Q 1287.0 352.5 1285.0 344.5 Q 1284.0 337.5 1304.0 325.5 Q 1323.0 310.5 1353.0 319.5 Q 1444.0 343.5 1504.0 348.5 L 1550.0 354.5 Q 1602.0 361.5 1668.0 366.5 Q 1683.0 367.5 1687.0 360.5 Q 1696.0 348.5 1691.0 301.5 L 1683.0 257.5 Q 1677.0 232.5 1670.0 202.5 C 1663.0 173.5 1710.0 161.5 1716.0 190.5 Z" fill="lightgray"></path> 
<path d="M 1503.0 274.5 Q 1346.0 258.5 1166.0 237.5 Q 1144.0 236.5 1160.0 218.5 Q 1173.0 205.5 1192.0 198.5 Q 1213.0 192.5 1229.0 197.5 Q 1344.0 227.5 1473.0 241.5 Q 1486.0 244.5 1503.0 244.5 L 1551.0 249.5 Q 1609.0 256.5 1683.0 257.5 L 1732.0 258.5 Q 1918.0 258.5 1924.0 267.5 Q 1928.0 279.5 1913.0 293.5 Q 1856.0 335.5 1791.0 318.5 Q 1772.0 315.5 1753.0 311.5 L 1691.0 301.5 Q 1625.0 294.5 1550.0 281.5 L 1503.0 274.5 Z" fill="lightgray"></path> 
<path d="M 1502.0 171.5 Q 1399.0 156.5 1311.0 148.5 Q 1287.0 147.5 1301.0 127.5 Q 1308.0 117.5 1319.0 112.5 Q 1332.0 108.5 1346.0 111.5 Q 1406.0 124.5 1502.0 134.5 L 1554.0 139.5 Q 1630.0 148.5 1726.0 153.5 Q 1738.0 154.5 1740.0 164.5 Q 1740.0 171.5 1716.0 190.5 C 1698.0 205.5 1698.0 205.5 1670.0 202.5 Q 1663.0 202.5 1654.0 200.5 Q 1602.0 190.5 1552.0 180.5 L 1502.0 171.5 Z" fill="lightgray"></path> 
<path d="M 1504.0 348.5 Q 1503.0 314.5 1503.0 274.5 L 1503.0 244.5 Q 1502.0 210.5 1502.0 171.5 L 1502.0 134.5 Q 1502.0 86.5 1502.0 32.5 Q 1501.0 5.5 1486.0 -4.5 Q 1480.0 -8.5 1398.0 4.5 Q 1365.0 14.5 1368.0 4.5 Q 1369.0 -2.5 1391.0 -16.5 Q 1461.0 -64.5 1480.0 -93.5 Q 1502.0 -127.5 1518.0 -126.5 Q 1533.0 -127.5 1546.0 -92.5 Q 1562.0 -47.5 1559.0 25.5 Q 1556.0 82.5 1554.0 139.5 L 1552.0 180.5 Q 1551.0 214.5 1551.0 249.5 L 1550.0 281.5 Q 1549.0 318.5 1550.0 354.5 L 1550.0 387.5 Q 1549.0 417.5 1551.0 445.5 L 1552.0 478.5 Q 1553.0 518.5 1555.0 557.5 L 1556.0 586.5 Q 1556.0 590.5 1560.0 643.5 L 1564.0 680.5 Q 1568.0 711.5 1575.0 732.5 Q 1593.0 762.5 1537.0 784.5 Q 1503.0 803.5 1484.0 796.5 Q 1466.0 789.5 1482.0 767.5 Q 1500.0 743.5 1506.0 673.5 L 1506.0 639.5 Q 1506.0 614.5 1506.0 577.5 L 1506.0 550.5 Q 1505.0 516.5 1505.0 470.5 L 1505.0 439.5 Q 1504.0 411.5 1504.0 380.5 L 1504.0 348.5 Z" fill="lightgray"></path> 
      <clipPath id="make-me-a-hanzi-clip-0">
      <path d="M 536.0 42.0 L 544.0 359.0 L 544.0 403.0 L 550.0 537.0 Q 552.0 629.0 567.0 670.0 L 580.0 703.0 L 579.0 721.0 Q 574.0 729.0 566.0 737.0 Q 558.0 744.0 530.0 754.0 Q 464.0 774.0 464.0 748.0 Q 463.0 743.0 471.0 724.0 Q 482.0 688.0 484.0 654.0 L 486.0 545.0 Q 487.0 534.0 485.0 396.0 L 483.0 349.0 L 478.0 35.0 C 478.0 5.0 535.0 12.0 536.0 42.0 Z" fill="lightgray"></path>
      </clipPath>
      <path clip-path="url(#make-me-a-hanzi-clip-0)" d="M 477.0 749.0 L 527.0 702.0 L 519.0 616.0 L 508.0 68.0 L 484.0 43.0 " fill="none" id="make-me-a-hanzi-animation-0" stroke-dasharray="866 1732" stroke-linecap="round"></path>

      <clipPath id="make-me-a-hanzi-clip-1">
      <path d="M 544.0 359.0 L 731.0 387.0 C 761.0 391.0 763.0 416.0 733.0 417.0 L 708.0 418.0 Q 705.0 419.0 665.0 417.0 L 575.0 407.0 Q 553.0 403.0 544.0 403.0 L 485.0 396.0 L 346.0 373.0 Q 320.0 368.0 315.0 372.0 Q 298.0 382.0 319.0 423.0 L 338.0 501.0 Q 346.0 525.0 346.0 532.0 Q 345.0 539.0 334.0 553.0 Q 314.0 573.0 281.0 582.0 Q 272.0 582.0 271.0 579.0 Q 265.0 578.0 267.0 570.0 Q 268.0 562.0 273.0 549.0 Q 277.0 535.0 277.0 528.0 L 278.0 504.0 Q 278.0 488.0 274.0 472.0 L 259.0 421.0 Q 247.0 382.0 238.0 368.0 Q 228.0 354.0 227.0 350.0 Q 225.0 345.0 230.0 329.0 Q 235.0 313.0 245.0 303.0 Q 253.0 291.0 259.0 289.0 L 268.0 287.0 Q 282.0 285.0 300.0 296.0 Q 317.0 306.0 366.0 322.0 Q 414.0 338.0 483.0 349.0 L 544.0 359.0 Z" fill="lightgray"></path>
      </clipPath>
      <path clip-path="url(#make-me-a-hanzi-clip-1)" d="M 279.0 570.0 L 311.0 528.0 L 297.0 449.0 L 278.0 386.0 L 278.0 340.0 L 330.0 340.0 L 481.0 373.0 L 704.0 400.0 L 726.0 410.0 " fill="none" id="make-me-a-hanzi-animation-1" stroke-dasharray="828 1656" stroke-linecap="round"></path>

      <clipPath id="make-me-a-hanzi-clip-2">
      <path d="M 731.0 387.0 L 725.0 358.0 Q 723.0 350.0 728.0 331.0 Q 737.0 300.0 762.0 318.0 Q 774.0 329.0 777.0 341.0 Q 780.0 352.0 785.0 375.0 L 803.0 493.0 Q 804.0 502.0 810.0 530.0 Q 815.0 557.0 819.0 563.0 Q 823.0 569.0 823.0 572.0 L 825.0 576.0 L 826.0 583.0 Q 826.0 588.0 808.0 602.0 Q 790.0 615.0 748.0 621.0 Q 730.0 621.0 726.0 611.0 Q 725.0 609.0 733.0 591.0 Q 741.0 573.0 741.0 551.0 Q 741.0 528.0 740.0 523.0 L 733.0 417.0 L 731.0 387.0 Z" fill="lightgray"></path>
      </clipPath>
      <path clip-path="url(#make-me-a-hanzi-clip-2)" d="M 735.0 610.0 L 754.0 599.0 L 779.0 572.0 L 748.0 330.0 " fill="none" id="make-me-a-hanzi-animation-2" stroke-dasharray="431 862" stroke-linecap="round"></path>

      <clipPath id="make-me-a-hanzi-clip-3">
      <path d="M 747.0 62.0 L 536.0 42.0 L 478.0 35.0 L 327.0 21.0 Q 295.0 17.0 289.0 18.0 Q 275.0 23.0 283.0 47.0 L 296.0 82.0 L 310.0 125.0 Q 310.0 127.0 318.0 141.0 Q 325.0 155.0 325.0 163.0 Q 324.0 178.0 292.0 198.0 Q 263.0 220.0 247.0 217.0 Q 241.0 215.0 239.0 211.0 Q 236.0 206.0 237.0 204.0 L 242.0 177.0 Q 247.0 152.0 247.0 136.0 Q 247.0 119.0 243.0 104.0 Q 238.0 89.0 229.0 66.0 Q 220.0 42.0 207.0 24.0 Q 193.0 6.0 193.0 -12.0 Q 202.0 -53.0 217.0 -61.0 L 235.0 -72.0 Q 240.0 -77.0 263.0 -65.0 Q 286.0 -54.0 335.0 -39.0 Q 384.0 -25.0 405.0 -21.0 L 451.0 -13.0 Q 513.0 -1.0 604.0 9.0 Q 694.0 18.0 748.0 25.0 C 778.0 29.0 777.0 65.0 747.0 62.0 Z" fill="lightgray"></path>
      </clipPath>
      <path clip-path="url(#make-me-a-hanzi-clip-3)" d="M 251.0 204.0 L 283.0 153.0 L 272.0 98.0 L 247.0 29.0 L 248.0 -15.0 L 292.0 -17.0 L 502.0 18.0 L 704.0 38.0 L 731.0 43.0 L 740.0 56.0 " fill="none" id="make-me-a-hanzi-animation-3" stroke-dasharray="865 1730" stroke-linecap="round"></path>

      <clipPath id="make-me-a-hanzi-clip-4">
      <path d="M 744.0 243.0 L 740.0 236.0 Q 738.0 231.0 743.0 218.0 Q 747.0 204.0 747.0 168.0 L 747.0 62.0 L 748.0 25.0 L 748.0 -15.0 Q 747.0 -46.0 757.0 -67.0 Q 776.0 -98.0 790.0 -81.0 Q 803.0 -64.0 807.0 -11.0 L 821.0 143.0 Q 823.0 168.0 827.0 185.0 Q 831.0 202.0 830.0 209.0 Q 819.0 227.0 794.0 237.0 Q 769.0 246.0 754.0 246.0 Q 746.0 244.0 744.0 243.0 Z" fill="lightgray"></path>
      </clipPath>
      <path clip-path="url(#make-me-a-hanzi-clip-4)" d="M 752.0 234.0 L 787.0 194.0 L 779.0 -74.0 " fill="none" id="make-me-a-hanzi-animation-4" stroke-dasharray="449 898" stroke-linecap="round"></path>

      <clipPath id="make-me-a-hanzi-clip-5">
      <path d="M 1560.0 643.5 Q 1620.0 649.5 1874.0 649.5 Q 1895.0 649.5 1900.0 658.5 Q 1906.0 670.5 1888.0 684.5 Q 1834.0 726.5 1796.0 718.5 Q 1708.0 700.5 1564.0 680.5 L 1506.0 673.5 Q 1355.0 657.5 1178.0 638.5 Q 1156.0 637.5 1172.0 618.5 Q 1187.0 603.5 1205.0 597.5 Q 1227.0 591.5 1244.0 596.5 Q 1406.0 638.5 1506.0 639.5 L 1560.0 643.5 Z" fill="lightgray"></path>
      </clipPath>
      <path clip-path="url(#make-me-a-hanzi-clip-5)" d="M 1175.0 628.5 L 1226.0 618.5 L 1427.0 650.5 L 1806.0 684.5 L 1852.0 677.5 L 1888.0 664.5 " fill="none" id="make-me-a-hanzi-animation-5" stroke-dasharray="849 1698" stroke-linecap="round"></path>

      <clipPath id="make-me-a-hanzi-clip-6">
      <path d="M 1346.0 559.5 Q 1333.0 565.5 1310.0 566.5 Q 1298.0 569.5 1296.0 564.5 Q 1290.0 557.5 1299.0 543.5 Q 1323.0 503.5 1340.0 437.5 Q 1344.0 418.5 1357.0 405.5 Q 1375.0 386.5 1379.0 400.5 Q 1382.0 409.5 1381.0 421.5 L 1377.0 452.5 Q 1367.0 507.5 1365.0 528.5 C 1362.0 553.5 1362.0 553.5 1346.0 559.5 Z" fill="lightgray"></path>
      </clipPath>
      <path clip-path="url(#make-me-a-hanzi-clip-6)" d="M 1304.0 557.5 L 1330.0 538.5 L 1340.0 520.5 L 1369.0 406.5 " fill="none" id="make-me-a-hanzi-animation-6" stroke-dasharray="298 596" stroke-linecap="round"></path>

      <clipPath id="make-me-a-hanzi-clip-7">
      <path d="M 1696.0 490.5 Q 1723.0 529.5 1743.0 535.5 Q 1759.0 551.5 1748.0 569.5 Q 1679.0 630.5 1637.0 609.5 Q 1595.0 597.5 1556.0 586.5 L 1506.0 577.5 Q 1428.0 565.5 1346.0 559.5 C 1316.0 557.5 1335.0 523.5 1365.0 528.5 Q 1471.0 546.5 1506.0 550.5 L 1555.0 557.5 Q 1586.0 563.5 1617.0 567.5 Q 1647.0 573.5 1658.0 560.5 Q 1662.0 556.5 1661.0 546.5 Q 1654.0 519.5 1647.0 497.5 C 1638.0 468.5 1678.0 466.5 1696.0 490.5 Z" fill="lightgray"></path>
      </clipPath>
      <path clip-path="url(#make-me-a-hanzi-clip-7)" d="M 1354.0 557.5 L 1375.0 544.5 L 1657.0 590.5 L 1681.0 580.5 L 1700.0 557.5 L 1681.0 519.5 L 1654.0 501.5 " fill="none" id="make-me-a-hanzi-animation-7" stroke-dasharray="569 1138" stroke-linecap="round"></path>

      <clipPath id="make-me-a-hanzi-clip-8">
      <path d="M 1551.0 445.5 Q 1617.0 454.5 1705.0 459.5 Q 1715.0 460.5 1716.0 468.5 Q 1716.0 475.5 1696.0 490.5 C 1680.0 503.5 1677.0 502.5 1647.0 497.5 Q 1596.0 488.5 1552.0 478.5 L 1505.0 470.5 Q 1438.0 460.5 1377.0 452.5 C 1347.0 448.5 1351.0 419.5 1381.0 421.5 Q 1385.0 421.5 1393.0 422.5 Q 1436.0 432.5 1505.0 439.5 L 1551.0 445.5 Z" fill="lightgray"></path>
      </clipPath>
      <path clip-path="url(#make-me-a-hanzi-clip-8)" d="M 1385.0 445.5 L 1395.0 438.5 L 1643.0 476.5 L 1706.0 469.5 " fill="none" id="make-me-a-hanzi-animation-8" stroke-dasharray="454 908" stroke-linecap="round"></path>

      <clipPath id="make-me-a-hanzi-clip-9">
      <path d="M 1716.0 190.5 Q 1723.0 224.5 1732.0 258.5 L 1753.0 311.5 Q 1763.0 327.5 1776.0 342.5 Q 1795.0 364.5 1768.0 380.5 Q 1743.0 399.5 1718.0 413.5 Q 1705.0 422.5 1626.0 399.5 Q 1599.0 396.5 1550.0 387.5 L 1504.0 380.5 Q 1462.0 376.5 1419.0 366.5 Q 1346.0 353.5 1300.0 351.5 Q 1287.0 352.5 1285.0 344.5 Q 1284.0 337.5 1304.0 325.5 Q 1323.0 310.5 1353.0 319.5 Q 1444.0 343.5 1504.0 348.5 L 1550.0 354.5 Q 1602.0 361.5 1668.0 366.5 Q 1683.0 367.5 1687.0 360.5 Q 1696.0 348.5 1691.0 301.5 L 1683.0 257.5 Q 1677.0 232.5 1670.0 202.5 C 1663.0 173.5 1710.0 161.5 1716.0 190.5 Z" fill="lightgray"></path>
      </clipPath>
      <path clip-path="url(#make-me-a-hanzi-clip-9)" d="M 1292.0 343.5 L 1342.0 335.5 L 1443.0 356.5 L 1666.0 389.5 L 1705.0 385.5 L 1732.0 351.5 L 1698.0 219.5 L 1710.0 198.5 " fill="none" id="make-me-a-hanzi-animation-9" stroke-dasharray="750 1500" stroke-linecap="round"></path>

      <clipPath id="make-me-a-hanzi-clip-10">
      <path d="M 1503.0 274.5 Q 1346.0 258.5 1166.0 237.5 Q 1144.0 236.5 1160.0 218.5 Q 1173.0 205.5 1192.0 198.5 Q 1213.0 192.5 1229.0 197.5 Q 1344.0 227.5 1473.0 241.5 Q 1486.0 244.5 1503.0 244.5 L 1551.0 249.5 Q 1609.0 256.5 1683.0 257.5 L 1732.0 258.5 Q 1918.0 258.5 1924.0 267.5 Q 1928.0 279.5 1913.0 293.5 Q 1856.0 335.5 1791.0 318.5 Q 1772.0 315.5 1753.0 311.5 L 1691.0 301.5 Q 1625.0 294.5 1550.0 281.5 L 1503.0 274.5 Z" fill="lightgray"></path>
      </clipPath>
      <path clip-path="url(#make-me-a-hanzi-clip-10)" d="M 1163.0 228.5 L 1219.0 219.5 L 1395.0 248.5 L 1805.0 290.5 L 1854.0 290.5 L 1919.0 273.5 " fill="none" id="make-me-a-hanzi-animation-10" stroke-dasharray="891 1782" stroke-linecap="round"></path>

      <clipPath id="make-me-a-hanzi-clip-11">
      <path d="M 1502.0 171.5 Q 1399.0 156.5 1311.0 148.5 Q 1287.0 147.5 1301.0 127.5 Q 1308.0 117.5 1319.0 112.5 Q 1332.0 108.5 1346.0 111.5 Q 1406.0 124.5 1502.0 134.5 L 1554.0 139.5 Q 1630.0 148.5 1726.0 153.5 Q 1738.0 154.5 1740.0 164.5 Q 1740.0 171.5 1716.0 190.5 C 1698.0 205.5 1698.0 205.5 1670.0 202.5 Q 1663.0 202.5 1654.0 200.5 Q 1602.0 190.5 1552.0 180.5 L 1502.0 171.5 Z" fill="lightgray"></path>
      </clipPath>
      <path clip-path="url(#make-me-a-hanzi-clip-11)" d="M 1307.0 137.5 L 1337.0 130.5 L 1668.0 176.5 L 1731.0 164.5 " fill="none" id="make-me-a-hanzi-animation-11" stroke-dasharray="557 1114" stroke-linecap="round"></path>

      <clipPath id="make-me-a-hanzi-clip-12">
      <path d="M 1504.0 348.5 Q 1503.0 314.5 1503.0 274.5 L 1503.0 244.5 Q 1502.0 210.5 1502.0 171.5 L 1502.0 134.5 Q 1502.0 86.5 1502.0 32.5 Q 1501.0 5.5 1486.0 -4.5 Q 1480.0 -8.5 1398.0 4.5 Q 1365.0 14.5 1368.0 4.5 Q 1369.0 -2.5 1391.0 -16.5 Q 1461.0 -64.5 1480.0 -93.5 Q 1502.0 -127.5 1518.0 -126.5 Q 1533.0 -127.5 1546.0 -92.5 Q 1562.0 -47.5 1559.0 25.5 Q 1556.0 82.5 1554.0 139.5 L 1552.0 180.5 Q 1551.0 214.5 1551.0 249.5 L 1550.0 281.5 Q 1549.0 318.5 1550.0 354.5 L 1550.0 387.5 Q 1549.0 417.5 1551.0 445.5 L 1552.0 478.5 Q 1553.0 518.5 1555.0 557.5 L 1556.0 586.5 Q 1556.0 590.5 1560.0 643.5 L 1564.0 680.5 Q 1568.0 711.5 1575.0 732.5 Q 1593.0 762.5 1537.0 784.5 Q 1503.0 803.5 1484.0 796.5 Q 1466.0 789.5 1482.0 767.5 Q 1500.0 743.5 1506.0 673.5 L 1506.0 639.5 Q 1506.0 614.5 1506.0 577.5 L 1506.0 550.5 Q 1505.0 516.5 1505.0 470.5 L 1505.0 439.5 Q 1504.0 411.5 1504.0 380.5 L 1504.0 348.5 Z" fill="lightgray"></path>
      </clipPath>
      <path clip-path="url(#make-me-a-hanzi-clip-12)" d="M 1490.0 781.5 L 1507.0 773.5 L 1536.0 738.5 L 1526.0 417.5 L 1530.0 15.5 L 1524.0 -15.5 L 1507.0 -48.5 L 1375.0 2.5 " fill="none" id="make-me-a-hanzi-animation-12" stroke-dasharray="1126 2252" stroke-linecap="round"></path>

</g>
</svg>
