<svg version="1.1" viewBox="0 0 2048 1024" xmlns="http://www.w3.org/2000/svg">
  <g stroke="lightgray" stroke-dasharray="1,1" stroke-width="1" transform="scale(4, 4)">
    <line x1="0" y1="0" x2="256" y2="256"></line>
    <line x1="256" y1="0" x2="0" y2="256"></line>
    <line x1="128" y1="0" x2="128" y2="256"></line>
    <line x1="0" y1="128" x2="256" y2="128"></line>
    <line x1="256" y1="0" x2="512" y2="256"></line>
    <line x1="512" y1="0" x2="256" y2="256"></line>
    <line x1="384" y1="0" x2="384" y2="256"></line>
    <line x1="256" y1="128" x2="512" y2="128"></line>
  </g>
<g transform="scale(1, -1) translate(0, -850)">
   <style type="text/css">
    @keyframes keyframes0 {
      from {
       stroke: black;
       stroke-dashoffset: 994;
       stroke-width: 128;
       }
       76% {
       animation-timing-function: step-end;
       stroke: black;
       stroke-dashoffset: 0;
       stroke-width: 128;
       }
       to {
       stroke: black;
       stroke-width: 1024;
       }
       }
       #make-me-a-hanzi-animation-0 {
         animation: keyframes0 1.058919s both;
         animation-delay: 0.000000s;
         animation-timing-function: linear;
       }
    @keyframes keyframes1 {
      from {
       stroke: black;
       stroke-dashoffset: 956;
       stroke-width: 128;
       }
       76% {
       animation-timing-function: step-end;
       stroke: black;
       stroke-dashoffset: 0;
       stroke-width: 128;
       }
       to {
       stroke: black;
       stroke-width: 1024;
       }
       }
       #make-me-a-hanzi-animation-1 {
         animation: keyframes1 1.027995s both;
         animation-delay: 1.058919s;
         animation-timing-function: linear;
       }
    @keyframes keyframes2 {
      from {
       stroke: black;
       stroke-dashoffset: 559;
       stroke-width: 128;
       }
       65% {
       animation-timing-function: step-end;
       stroke: black;
       stroke-dashoffset: 0;
       stroke-width: 128;
       }
       to {
       stroke: black;
       stroke-width: 1024;
       }
       }
       #make-me-a-hanzi-animation-2 {
         animation: keyframes2 0.704915s both;
         animation-delay: 2.086914s;
         animation-timing-function: linear;
       }
    @keyframes keyframes3 {
      from {
       stroke: black;
       stroke-dashoffset: 993;
       stroke-width: 128;
       }
       76% {
       animation-timing-function: step-end;
       stroke: black;
       stroke-dashoffset: 0;
       stroke-width: 128;
       }
       to {
       stroke: black;
       stroke-width: 1024;
       }
       }
       #make-me-a-hanzi-animation-3 {
         animation: keyframes3 1.058105s both;
         animation-delay: 2.791829s;
         animation-timing-function: linear;
       }
    @keyframes keyframes4 {
      from {
       stroke: black;
       stroke-dashoffset: 577;
       stroke-width: 128;
       }
       65% {
       animation-timing-function: step-end;
       stroke: black;
       stroke-dashoffset: 0;
       stroke-width: 128;
       }
       to {
       stroke: black;
       stroke-width: 1024;
       }
       }
       #make-me-a-hanzi-animation-4 {
         animation: keyframes4 0.719564s both;
         animation-delay: 3.849934s;
         animation-timing-function: linear;
       }
    @keyframes keyframes5 {
      from {
       stroke: black;
       stroke-dashoffset: 537;
       stroke-width: 128;
       }
       64% {
       animation-timing-function: step-end;
       stroke: black;
       stroke-dashoffset: 0;
       stroke-width: 128;
       }
       to {
       stroke: black;
       stroke-width: 1024;
       }
       }
       #make-me-a-hanzi-animation-5 {
         animation: keyframes5 0.687012s both;
         animation-delay: 4.569498s;
         animation-timing-function: linear;
       }
    @keyframes keyframes6 {
      from {
       stroke: black;
       stroke-dashoffset: 757;
       stroke-width: 128;
       }
       71% {
       animation-timing-function: step-end;
       stroke: black;
       stroke-dashoffset: 0;
       stroke-width: 128;
       }
       to {
       stroke: black;
       stroke-width: 1024;
       }
       }
       #make-me-a-hanzi-animation-6 {
         animation: keyframes6 0.866048s both;
         animation-delay: 5.256510s;
         animation-timing-function: linear;
       }
    @keyframes keyframes7 {
      from {
       stroke: black;
       stroke-dashoffset: 616;
       stroke-width: 128;
       }
       67% {
       animation-timing-function: step-end;
       stroke: black;
       stroke-dashoffset: 0;
       stroke-width: 128;
       }
       to {
       stroke: black;
       stroke-width: 1024;
       }
       }
       #make-me-a-hanzi-animation-7 {
         animation: keyframes7 0.751302s both;
         animation-delay: 6.122558s;
         animation-timing-function: linear;
       }
    @keyframes keyframes8 {
      from {
       stroke: black;
       stroke-dashoffset: 1815;
       stroke-width: 128;
       }
       86% {
       animation-timing-function: step-end;
       stroke: black;
       stroke-dashoffset: 0;
       stroke-width: 128;
       }
       to {
       stroke: black;
       stroke-width: 1024;
       }
       }
       #make-me-a-hanzi-animation-8 {
         animation: keyframes8 1.727051s both;
         animation-delay: 6.873860s;
         animation-timing-function: linear;
       }
    @keyframes keyframes9 {
      from {
       stroke: black;
       stroke-dashoffset: 619;
       stroke-width: 128;
       }
       67% {
       animation-timing-function: step-end;
       stroke: black;
       stroke-dashoffset: 0;
       stroke-width: 128;
       }
       to {
       stroke: black;
       stroke-width: 1024;
       }
       }
       #make-me-a-hanzi-animation-9 {
         animation: keyframes9 0.753743s both;
         animation-delay: 8.600911s;
         animation-timing-function: linear;
       }
    @keyframes keyframes10 {
      from {
       stroke: black;
       stroke-dashoffset: 791;
       stroke-width: 128;
       }
       72% {
       animation-timing-function: step-end;
       stroke: black;
       stroke-dashoffset: 0;
       stroke-width: 128;
       }
       to {
       stroke: black;
       stroke-width: 1024;
       }
       }
       #make-me-a-hanzi-animation-10 {
         animation: keyframes10 0.893717s both;
         animation-delay: 9.354654s;
         animation-timing-function: linear;
       }
</style>
<path d="M 536.0 42.0 L 544.0 359.0 L 544.0 403.0 L 550.0 537.0 Q 552.0 629.0 567.0 670.0 L 580.0 703.0 L 579.0 721.0 Q 574.0 729.0 566.0 737.0 Q 558.0 744.0 530.0 754.0 Q 464.0 774.0 464.0 748.0 Q 463.0 743.0 471.0 724.0 Q 482.0 688.0 484.0 654.0 L 486.0 545.0 Q 487.0 534.0 485.0 396.0 L 483.0 349.0 L 478.0 35.0 C 478.0 5.0 535.0 12.0 536.0 42.0 Z" fill="lightgray"></path> 
<path d="M 544.0 359.0 L 731.0 387.0 C 761.0 391.0 763.0 416.0 733.0 417.0 L 708.0 418.0 Q 705.0 419.0 665.0 417.0 L 575.0 407.0 Q 553.0 403.0 544.0 403.0 L 485.0 396.0 L 346.0 373.0 Q 320.0 368.0 315.0 372.0 Q 298.0 382.0 319.0 423.0 L 338.0 501.0 Q 346.0 525.0 346.0 532.0 Q 345.0 539.0 334.0 553.0 Q 314.0 573.0 281.0 582.0 Q 272.0 582.0 271.0 579.0 Q 265.0 578.0 267.0 570.0 Q 268.0 562.0 273.0 549.0 Q 277.0 535.0 277.0 528.0 L 278.0 504.0 Q 278.0 488.0 274.0 472.0 L 259.0 421.0 Q 247.0 382.0 238.0 368.0 Q 228.0 354.0 227.0 350.0 Q 225.0 345.0 230.0 329.0 Q 235.0 313.0 245.0 303.0 Q 253.0 291.0 259.0 289.0 L 268.0 287.0 Q 282.0 285.0 300.0 296.0 Q 317.0 306.0 366.0 322.0 Q 414.0 338.0 483.0 349.0 L 544.0 359.0 Z" fill="lightgray"></path> 
<path d="M 731.0 387.0 L 725.0 358.0 Q 723.0 350.0 728.0 331.0 Q 737.0 300.0 762.0 318.0 Q 774.0 329.0 777.0 341.0 Q 780.0 352.0 785.0 375.0 L 803.0 493.0 Q 804.0 502.0 810.0 530.0 Q 815.0 557.0 819.0 563.0 Q 823.0 569.0 823.0 572.0 L 825.0 576.0 L 826.0 583.0 Q 826.0 588.0 808.0 602.0 Q 790.0 615.0 748.0 621.0 Q 730.0 621.0 726.0 611.0 Q 725.0 609.0 733.0 591.0 Q 741.0 573.0 741.0 551.0 Q 741.0 528.0 740.0 523.0 L 733.0 417.0 L 731.0 387.0 Z" fill="lightgray"></path> 
<path d="M 747.0 62.0 L 536.0 42.0 L 478.0 35.0 L 327.0 21.0 Q 295.0 17.0 289.0 18.0 Q 275.0 23.0 283.0 47.0 L 296.0 82.0 L 310.0 125.0 Q 310.0 127.0 318.0 141.0 Q 325.0 155.0 325.0 163.0 Q 324.0 178.0 292.0 198.0 Q 263.0 220.0 247.0 217.0 Q 241.0 215.0 239.0 211.0 Q 236.0 206.0 237.0 204.0 L 242.0 177.0 Q 247.0 152.0 247.0 136.0 Q 247.0 119.0 243.0 104.0 Q 238.0 89.0 229.0 66.0 Q 220.0 42.0 207.0 24.0 Q 193.0 6.0 193.0 -12.0 Q 202.0 -53.0 217.0 -61.0 L 235.0 -72.0 Q 240.0 -77.0 263.0 -65.0 Q 286.0 -54.0 335.0 -39.0 Q 384.0 -25.0 405.0 -21.0 L 451.0 -13.0 Q 513.0 -1.0 604.0 9.0 Q 694.0 18.0 748.0 25.0 C 778.0 29.0 777.0 65.0 747.0 62.0 Z" fill="lightgray"></path> 
<path d="M 744.0 243.0 L 740.0 236.0 Q 738.0 231.0 743.0 218.0 Q 747.0 204.0 747.0 168.0 L 747.0 62.0 L 748.0 25.0 L 748.0 -15.0 Q 747.0 -46.0 757.0 -67.0 Q 776.0 -98.0 790.0 -81.0 Q 803.0 -64.0 807.0 -11.0 L 821.0 143.0 Q 823.0 168.0 827.0 185.0 Q 831.0 202.0 830.0 209.0 Q 819.0 227.0 794.0 237.0 Q 769.0 246.0 754.0 246.0 Q 746.0 244.0 744.0 243.0 Z" fill="lightgray"></path> 
<path d="M 1339.0 435.5 Q 1429.0 460.5 1435.0 465.5 Q 1442.0 474.5 1438.0 482.5 Q 1431.0 494.5 1400.0 499.5 Q 1369.0 503.5 1341.0 489.5 L 1292.0 472.5 Q 1196.0 447.5 1161.0 441.5 Q 1124.0 432.5 1152.0 417.5 Q 1194.0 396.5 1255.0 413.5 Q 1271.0 419.5 1293.0 422.5 L 1339.0 435.5 Z" fill="lightgray"></path> 
<path d="M 1332.0 252.5 Q 1336.0 346.5 1339.0 435.5 L 1341.0 489.5 Q 1344.0 612.5 1363.0 679.5 Q 1366.0 691.5 1345.0 706.5 Q 1308.0 725.5 1283.0 729.5 Q 1267.0 732.5 1258.0 723.5 Q 1251.0 716.5 1259.0 699.5 Q 1287.0 659.5 1287.0 632.5 Q 1291.0 556.5 1292.0 472.5 L 1293.0 422.5 Q 1292.0 332.5 1288.0 234.5 C 1287.0 204.5 1331.0 222.5 1332.0 252.5 Z" fill="lightgray"></path> 
<path d="M 1288.0 234.5 L 1176.0 188.5 Q 1157.0 181.5 1126.0 177.5 Q 1113.0 174.5 1112.0 163.5 Q 1111.0 148.5 1122.0 141.5 Q 1149.0 126.5 1186.0 111.5 Q 1198.0 110.5 1209.0 120.5 Q 1243.0 153.5 1283.0 177.5 L 1404.0 250.5 Q 1428.0 263.5 1443.0 280.5 Q 1456.0 290.5 1456.0 299.5 Q 1449.0 305.5 1436.0 300.5 Q 1385.0 278.5 1332.0 252.5 L 1288.0 234.5 Z" fill="lightgray"></path> 
<path d="M 1769.0 61.5 Q 1753.0 37.5 1736.0 41.5 Q 1702.0 48.5 1654.0 61.5 Q 1638.0 64.5 1637.0 60.5 Q 1638.0 56.5 1656.0 42.5 Q 1699.0 8.5 1728.0 -36.5 Q 1738.0 -52.5 1749.0 -55.5 Q 1756.0 -56.5 1775.0 -41.5 Q 1830.0 7.5 1865.0 84.5 Q 1899.0 160.5 1929.0 370.5 Q 1935.0 397.5 1948.0 408.5 Q 1961.0 420.5 1948.0 436.5 Q 1932.0 451.5 1902.0 469.5 Q 1880.0 482.5 1853.0 474.5 Q 1825.0 467.5 1798.0 461.5 L 1689.0 442.5 Q 1599.0 429.5 1583.0 425.5 Q 1573.0 418.5 1568.0 428.5 Q 1569.0 450.5 1675.0 583.5 Q 1729.0 647.5 1752.0 654.5 Q 1768.0 661.5 1768.0 668.5 Q 1769.0 677.5 1762.0 682.5 Q 1740.0 704.5 1711.0 716.5 Q 1692.0 726.5 1658.0 712.5 Q 1535.0 673.5 1461.0 675.5 Q 1445.0 675.5 1442.0 670.5 Q 1439.0 664.5 1445.0 656.5 Q 1452.0 644.5 1469.0 635.5 Q 1485.0 625.5 1506.0 629.5 Q 1674.0 675.5 1678.0 665.5 Q 1675.0 646.5 1562.0 484.5 Q 1559.0 483.5 1558.0 480.5 Q 1537.0 452.5 1508.0 427.5 Q 1487.0 415.5 1500.0 378.5 Q 1503.0 368.5 1532.0 376.5 Q 1542.0 380.5 1555.0 382.5 L 1592.0 392.5 Q 1634.0 404.5 1692.0 414.5 L 1739.0 421.5 Q 1803.0 431.5 1838.0 432.5 Q 1860.0 432.5 1864.0 421.5 Q 1883.0 322.5 1817.0 144.5 Q 1814.0 141.5 1814.0 138.5 Q 1801.0 98.5 1769.0 61.5 Z" fill="lightgray"></path> 
<path d="M 1555.0 382.5 Q 1555.0 292.5 1361.0 118.5 Q 1355.0 115.5 1355.0 109.5 Q 1354.0 105.5 1359.0 105.5 Q 1428.0 105.5 1571.0 291.5 Q 1578.0 312.5 1610.0 343.5 Q 1617.0 352.5 1611.0 364.5 Q 1602.0 382.5 1592.0 392.5 C 1573.0 415.5 1557.0 412.5 1555.0 382.5 Z" fill="lightgray"></path> 
<path d="M 1692.0 414.5 Q 1710.0 329.5 1578.0 158.5 Q 1572.0 152.5 1567.0 145.5 Q 1527.0 96.5 1427.0 1.5 Q 1420.0 -2.5 1429.0 -5.5 Q 1481.0 1.5 1590.0 109.5 Q 1665.0 194.5 1755.0 350.5 Q 1764.0 366.5 1770.0 372.5 Q 1777.0 378.5 1775.0 387.5 Q 1772.0 406.5 1739.0 421.5 C 1713.0 435.5 1688.0 444.5 1692.0 414.5 Z" fill="lightgray"></path> 
      <clipPath id="make-me-a-hanzi-clip-0">
      <path d="M 536.0 42.0 L 544.0 359.0 L 544.0 403.0 L 550.0 537.0 Q 552.0 629.0 567.0 670.0 L 580.0 703.0 L 579.0 721.0 Q 574.0 729.0 566.0 737.0 Q 558.0 744.0 530.0 754.0 Q 464.0 774.0 464.0 748.0 Q 463.0 743.0 471.0 724.0 Q 482.0 688.0 484.0 654.0 L 486.0 545.0 Q 487.0 534.0 485.0 396.0 L 483.0 349.0 L 478.0 35.0 C 478.0 5.0 535.0 12.0 536.0 42.0 Z" fill="lightgray"></path>
      </clipPath>
      <path clip-path="url(#make-me-a-hanzi-clip-0)" d="M 477.0 749.0 L 527.0 702.0 L 519.0 616.0 L 508.0 68.0 L 484.0 43.0 " fill="none" id="make-me-a-hanzi-animation-0" stroke-dasharray="866 1732" stroke-linecap="round"></path>

      <clipPath id="make-me-a-hanzi-clip-1">
      <path d="M 544.0 359.0 L 731.0 387.0 C 761.0 391.0 763.0 416.0 733.0 417.0 L 708.0 418.0 Q 705.0 419.0 665.0 417.0 L 575.0 407.0 Q 553.0 403.0 544.0 403.0 L 485.0 396.0 L 346.0 373.0 Q 320.0 368.0 315.0 372.0 Q 298.0 382.0 319.0 423.0 L 338.0 501.0 Q 346.0 525.0 346.0 532.0 Q 345.0 539.0 334.0 553.0 Q 314.0 573.0 281.0 582.0 Q 272.0 582.0 271.0 579.0 Q 265.0 578.0 267.0 570.0 Q 268.0 562.0 273.0 549.0 Q 277.0 535.0 277.0 528.0 L 278.0 504.0 Q 278.0 488.0 274.0 472.0 L 259.0 421.0 Q 247.0 382.0 238.0 368.0 Q 228.0 354.0 227.0 350.0 Q 225.0 345.0 230.0 329.0 Q 235.0 313.0 245.0 303.0 Q 253.0 291.0 259.0 289.0 L 268.0 287.0 Q 282.0 285.0 300.0 296.0 Q 317.0 306.0 366.0 322.0 Q 414.0 338.0 483.0 349.0 L 544.0 359.0 Z" fill="lightgray"></path>
      </clipPath>
      <path clip-path="url(#make-me-a-hanzi-clip-1)" d="M 279.0 570.0 L 311.0 528.0 L 297.0 449.0 L 278.0 386.0 L 278.0 340.0 L 330.0 340.0 L 481.0 373.0 L 704.0 400.0 L 726.0 410.0 " fill="none" id="make-me-a-hanzi-animation-1" stroke-dasharray="828 1656" stroke-linecap="round"></path>

      <clipPath id="make-me-a-hanzi-clip-2">
      <path d="M 731.0 387.0 L 725.0 358.0 Q 723.0 350.0 728.0 331.0 Q 737.0 300.0 762.0 318.0 Q 774.0 329.0 777.0 341.0 Q 780.0 352.0 785.0 375.0 L 803.0 493.0 Q 804.0 502.0 810.0 530.0 Q 815.0 557.0 819.0 563.0 Q 823.0 569.0 823.0 572.0 L 825.0 576.0 L 826.0 583.0 Q 826.0 588.0 808.0 602.0 Q 790.0 615.0 748.0 621.0 Q 730.0 621.0 726.0 611.0 Q 725.0 609.0 733.0 591.0 Q 741.0 573.0 741.0 551.0 Q 741.0 528.0 740.0 523.0 L 733.0 417.0 L 731.0 387.0 Z" fill="lightgray"></path>
      </clipPath>
      <path clip-path="url(#make-me-a-hanzi-clip-2)" d="M 735.0 610.0 L 754.0 599.0 L 779.0 572.0 L 748.0 330.0 " fill="none" id="make-me-a-hanzi-animation-2" stroke-dasharray="431 862" stroke-linecap="round"></path>

      <clipPath id="make-me-a-hanzi-clip-3">
      <path d="M 747.0 62.0 L 536.0 42.0 L 478.0 35.0 L 327.0 21.0 Q 295.0 17.0 289.0 18.0 Q 275.0 23.0 283.0 47.0 L 296.0 82.0 L 310.0 125.0 Q 310.0 127.0 318.0 141.0 Q 325.0 155.0 325.0 163.0 Q 324.0 178.0 292.0 198.0 Q 263.0 220.0 247.0 217.0 Q 241.0 215.0 239.0 211.0 Q 236.0 206.0 237.0 204.0 L 242.0 177.0 Q 247.0 152.0 247.0 136.0 Q 247.0 119.0 243.0 104.0 Q 238.0 89.0 229.0 66.0 Q 220.0 42.0 207.0 24.0 Q 193.0 6.0 193.0 -12.0 Q 202.0 -53.0 217.0 -61.0 L 235.0 -72.0 Q 240.0 -77.0 263.0 -65.0 Q 286.0 -54.0 335.0 -39.0 Q 384.0 -25.0 405.0 -21.0 L 451.0 -13.0 Q 513.0 -1.0 604.0 9.0 Q 694.0 18.0 748.0 25.0 C 778.0 29.0 777.0 65.0 747.0 62.0 Z" fill="lightgray"></path>
      </clipPath>
      <path clip-path="url(#make-me-a-hanzi-clip-3)" d="M 251.0 204.0 L 283.0 153.0 L 272.0 98.0 L 247.0 29.0 L 248.0 -15.0 L 292.0 -17.0 L 502.0 18.0 L 704.0 38.0 L 731.0 43.0 L 740.0 56.0 " fill="none" id="make-me-a-hanzi-animation-3" stroke-dasharray="865 1730" stroke-linecap="round"></path>

      <clipPath id="make-me-a-hanzi-clip-4">
      <path d="M 744.0 243.0 L 740.0 236.0 Q 738.0 231.0 743.0 218.0 Q 747.0 204.0 747.0 168.0 L 747.0 62.0 L 748.0 25.0 L 748.0 -15.0 Q 747.0 -46.0 757.0 -67.0 Q 776.0 -98.0 790.0 -81.0 Q 803.0 -64.0 807.0 -11.0 L 821.0 143.0 Q 823.0 168.0 827.0 185.0 Q 831.0 202.0 830.0 209.0 Q 819.0 227.0 794.0 237.0 Q 769.0 246.0 754.0 246.0 Q 746.0 244.0 744.0 243.0 Z" fill="lightgray"></path>
      </clipPath>
      <path clip-path="url(#make-me-a-hanzi-clip-4)" d="M 752.0 234.0 L 787.0 194.0 L 779.0 -74.0 " fill="none" id="make-me-a-hanzi-animation-4" stroke-dasharray="449 898" stroke-linecap="round"></path>

      <clipPath id="make-me-a-hanzi-clip-5">
      <path d="M 1339.0 435.5 Q 1429.0 460.5 1435.0 465.5 Q 1442.0 474.5 1438.0 482.5 Q 1431.0 494.5 1400.0 499.5 Q 1369.0 503.5 1341.0 489.5 L 1292.0 472.5 Q 1196.0 447.5 1161.0 441.5 Q 1124.0 432.5 1152.0 417.5 Q 1194.0 396.5 1255.0 413.5 Q 1271.0 419.5 1293.0 422.5 L 1339.0 435.5 Z" fill="lightgray"></path>
      </clipPath>
      <path clip-path="url(#make-me-a-hanzi-clip-5)" d="M 1153.0 430.5 L 1226.0 430.5 L 1380.0 474.5 L 1428.0 474.5 " fill="none" id="make-me-a-hanzi-animation-5" stroke-dasharray="409 818" stroke-linecap="round"></path>

      <clipPath id="make-me-a-hanzi-clip-6">
      <path d="M 1332.0 252.5 Q 1336.0 346.5 1339.0 435.5 L 1341.0 489.5 Q 1344.0 612.5 1363.0 679.5 Q 1366.0 691.5 1345.0 706.5 Q 1308.0 725.5 1283.0 729.5 Q 1267.0 732.5 1258.0 723.5 Q 1251.0 716.5 1259.0 699.5 Q 1287.0 659.5 1287.0 632.5 Q 1291.0 556.5 1292.0 472.5 L 1293.0 422.5 Q 1292.0 332.5 1288.0 234.5 C 1287.0 204.5 1331.0 222.5 1332.0 252.5 Z" fill="lightgray"></path>
      </clipPath>
      <path clip-path="url(#make-me-a-hanzi-clip-6)" d="M 1270.0 713.5 L 1310.0 684.5 L 1320.0 670.5 L 1311.0 267.5 L 1293.0 242.5 " fill="none" id="make-me-a-hanzi-animation-6" stroke-dasharray="629 1258" stroke-linecap="round"></path>

      <clipPath id="make-me-a-hanzi-clip-7">
      <path d="M 1288.0 234.5 L 1176.0 188.5 Q 1157.0 181.5 1126.0 177.5 Q 1113.0 174.5 1112.0 163.5 Q 1111.0 148.5 1122.0 141.5 Q 1149.0 126.5 1186.0 111.5 Q 1198.0 110.5 1209.0 120.5 Q 1243.0 153.5 1283.0 177.5 L 1404.0 250.5 Q 1428.0 263.5 1443.0 280.5 Q 1456.0 290.5 1456.0 299.5 Q 1449.0 305.5 1436.0 300.5 Q 1385.0 278.5 1332.0 252.5 L 1288.0 234.5 Z" fill="lightgray"></path>
      </clipPath>
      <path clip-path="url(#make-me-a-hanzi-clip-7)" d="M 1128.0 162.5 L 1188.0 152.5 L 1450.0 296.5 " fill="none" id="make-me-a-hanzi-animation-7" stroke-dasharray="488 976" stroke-linecap="round"></path>

      <clipPath id="make-me-a-hanzi-clip-8">
      <path d="M 1769.0 61.5 Q 1753.0 37.5 1736.0 41.5 Q 1702.0 48.5 1654.0 61.5 Q 1638.0 64.5 1637.0 60.5 Q 1638.0 56.5 1656.0 42.5 Q 1699.0 8.5 1728.0 -36.5 Q 1738.0 -52.5 1749.0 -55.5 Q 1756.0 -56.5 1775.0 -41.5 Q 1830.0 7.5 1865.0 84.5 Q 1899.0 160.5 1929.0 370.5 Q 1935.0 397.5 1948.0 408.5 Q 1961.0 420.5 1948.0 436.5 Q 1932.0 451.5 1902.0 469.5 Q 1880.0 482.5 1853.0 474.5 Q 1825.0 467.5 1798.0 461.5 L 1689.0 442.5 Q 1599.0 429.5 1583.0 425.5 Q 1573.0 418.5 1568.0 428.5 Q 1569.0 450.5 1675.0 583.5 Q 1729.0 647.5 1752.0 654.5 Q 1768.0 661.5 1768.0 668.5 Q 1769.0 677.5 1762.0 682.5 Q 1740.0 704.5 1711.0 716.5 Q 1692.0 726.5 1658.0 712.5 Q 1535.0 673.5 1461.0 675.5 Q 1445.0 675.5 1442.0 670.5 Q 1439.0 664.5 1445.0 656.5 Q 1452.0 644.5 1469.0 635.5 Q 1485.0 625.5 1506.0 629.5 Q 1674.0 675.5 1678.0 665.5 Q 1675.0 646.5 1562.0 484.5 Q 1559.0 483.5 1558.0 480.5 Q 1537.0 452.5 1508.0 427.5 Q 1487.0 415.5 1500.0 378.5 Q 1503.0 368.5 1532.0 376.5 Q 1542.0 380.5 1555.0 382.5 L 1592.0 392.5 Q 1634.0 404.5 1692.0 414.5 L 1739.0 421.5 Q 1803.0 431.5 1838.0 432.5 Q 1860.0 432.5 1864.0 421.5 Q 1883.0 322.5 1817.0 144.5 Q 1814.0 141.5 1814.0 138.5 Q 1801.0 98.5 1769.0 61.5 Z" fill="lightgray"></path>
      </clipPath>
      <path clip-path="url(#make-me-a-hanzi-clip-8)" d="M 1450.0 664.5 L 1472.0 655.5 L 1515.0 653.5 L 1676.0 692.5 L 1696.0 689.5 L 1714.0 674.5 L 1654.0 582.5 L 1580.0 488.5 L 1549.0 439.5 L 1543.0 410.5 L 1581.0 407.5 L 1656.0 424.5 L 1864.0 452.5 L 1892.0 438.5 L 1905.0 419.5 L 1888.0 283.5 L 1865.0 186.5 L 1836.0 101.5 L 1800.0 41.5 L 1756.0 -0.5 L 1641.0 58.5 " fill="none" id="make-me-a-hanzi-animation-8" stroke-dasharray="1687 3374" stroke-linecap="round"></path>

      <clipPath id="make-me-a-hanzi-clip-9">
      <path d="M 1555.0 382.5 Q 1555.0 292.5 1361.0 118.5 Q 1355.0 115.5 1355.0 109.5 Q 1354.0 105.5 1359.0 105.5 Q 1428.0 105.5 1571.0 291.5 Q 1578.0 312.5 1610.0 343.5 Q 1617.0 352.5 1611.0 364.5 Q 1602.0 382.5 1592.0 392.5 C 1573.0 415.5 1557.0 412.5 1555.0 382.5 Z" fill="lightgray"></path>
      </clipPath>
      <path clip-path="url(#make-me-a-hanzi-clip-9)" d="M 1563.0 377.5 L 1581.0 361.5 L 1580.0 353.5 L 1520.0 254.5 L 1420.0 150.5 L 1361.0 111.5 " fill="none" id="make-me-a-hanzi-animation-9" stroke-dasharray="491 982" stroke-linecap="round"></path>

      <clipPath id="make-me-a-hanzi-clip-10">
      <path d="M 1692.0 414.5 Q 1710.0 329.5 1578.0 158.5 Q 1572.0 152.5 1567.0 145.5 Q 1527.0 96.5 1427.0 1.5 Q 1420.0 -2.5 1429.0 -5.5 Q 1481.0 1.5 1590.0 109.5 Q 1665.0 194.5 1755.0 350.5 Q 1764.0 366.5 1770.0 372.5 Q 1777.0 378.5 1775.0 387.5 Q 1772.0 406.5 1739.0 421.5 C 1713.0 435.5 1688.0 444.5 1692.0 414.5 Z" fill="lightgray"></path>
      </clipPath>
      <path clip-path="url(#make-me-a-hanzi-clip-10)" d="M 1701.0 410.5 L 1731.0 382.5 L 1709.0 324.5 L 1660.0 236.5 L 1554.0 98.5 L 1476.0 29.5 L 1432.0 -0.5 " fill="none" id="make-me-a-hanzi-animation-10" stroke-dasharray="663 1326" stroke-linecap="round"></path>

</g>
</svg>
