<svg version="1.1" viewBox="0 0 2048 1024" xmlns="http://www.w3.org/2000/svg">
  <g stroke="lightgray" stroke-dasharray="1,1" stroke-width="1" transform="scale(4, 4)">
    <line x1="0" y1="0" x2="256" y2="256"></line>
    <line x1="256" y1="0" x2="0" y2="256"></line>
    <line x1="128" y1="0" x2="128" y2="256"></line>
    <line x1="0" y1="128" x2="256" y2="128"></line>
    <line x1="256" y1="0" x2="512" y2="256"></line>
    <line x1="512" y1="0" x2="256" y2="256"></line>
    <line x1="384" y1="0" x2="384" y2="256"></line>
    <line x1="256" y1="128" x2="512" y2="128"></line>
  </g>
<g transform="scale(1, -1) translate(0, -850)">
   <style type="text/css">
    @keyframes keyframes0 {
      from {
       stroke: black;
       stroke-dashoffset: 696;
       stroke-width: 128;
       }
       69% {
       animation-timing-function: step-end;
       stroke: black;
       stroke-dashoffset: 0;
       stroke-width: 128;
       }
       to {
       stroke: black;
       stroke-width: 1024;
       }
       }
       #make-me-a-hanzi-animation-0 {
         animation: keyframes0 0.816406s both;
         animation-delay: 0.000000s;
         animation-timing-function: linear;
       }
    @keyframes keyframes1 {
      from {
       stroke: black;
       stroke-dashoffset: 950;
       stroke-width: 128;
       }
       76% {
       animation-timing-function: step-end;
       stroke: black;
       stroke-dashoffset: 0;
       stroke-width: 128;
       }
       to {
       stroke: black;
       stroke-width: 1024;
       }
       }
       #make-me-a-hanzi-animation-1 {
         animation: keyframes1 1.023112s both;
         animation-delay: 0.816406s;
         animation-timing-function: linear;
       }
    @keyframes keyframes2 {
      from {
       stroke: black;
       stroke-dashoffset: 1161;
       stroke-width: 128;
       }
       79% {
       animation-timing-function: step-end;
       stroke: black;
       stroke-dashoffset: 0;
       stroke-width: 128;
       }
       to {
       stroke: black;
       stroke-width: 1024;
       }
       }
       #make-me-a-hanzi-animation-2 {
         animation: keyframes2 1.194824s both;
         animation-delay: 1.839518s;
         animation-timing-function: linear;
       }
    @keyframes keyframes3 {
      from {
       stroke: black;
       stroke-dashoffset: 702;
       stroke-width: 128;
       }
       70% {
       animation-timing-function: step-end;
       stroke: black;
       stroke-dashoffset: 0;
       stroke-width: 128;
       }
       to {
       stroke: black;
       stroke-width: 1024;
       }
       }
       #make-me-a-hanzi-animation-3 {
         animation: keyframes3 0.821289s both;
         animation-delay: 3.034342s;
         animation-timing-function: linear;
       }
    @keyframes keyframes4 {
      from {
       stroke: black;
       stroke-dashoffset: 666;
       stroke-width: 128;
       }
       68% {
       animation-timing-function: step-end;
       stroke: black;
       stroke-dashoffset: 0;
       stroke-width: 128;
       }
       to {
       stroke: black;
       stroke-width: 1024;
       }
       }
       #make-me-a-hanzi-animation-4 {
         animation: keyframes4 0.791992s both;
         animation-delay: 3.855632s;
         animation-timing-function: linear;
       }
    @keyframes keyframes5 {
      from {
       stroke: black;
       stroke-dashoffset: 1097;
       stroke-width: 128;
       }
       78% {
       animation-timing-function: step-end;
       stroke: black;
       stroke-dashoffset: 0;
       stroke-width: 128;
       }
       to {
       stroke: black;
       stroke-width: 1024;
       }
       }
       #make-me-a-hanzi-animation-5 {
         animation: keyframes5 1.142741s both;
         animation-delay: 4.647624s;
         animation-timing-function: linear;
       }
    @keyframes keyframes6 {
      from {
       stroke: black;
       stroke-dashoffset: 885;
       stroke-width: 128;
       }
       74% {
       animation-timing-function: step-end;
       stroke: black;
       stroke-dashoffset: 0;
       stroke-width: 128;
       }
       to {
       stroke: black;
       stroke-width: 1024;
       }
       }
       #make-me-a-hanzi-animation-6 {
         animation: keyframes6 0.970215s both;
         animation-delay: 5.790365s;
         animation-timing-function: linear;
       }
    @keyframes keyframes7 {
      from {
       stroke: black;
       stroke-dashoffset: 993;
       stroke-width: 128;
       }
       76% {
       animation-timing-function: step-end;
       stroke: black;
       stroke-dashoffset: 0;
       stroke-width: 128;
       }
       to {
       stroke: black;
       stroke-width: 1024;
       }
       }
       #make-me-a-hanzi-animation-7 {
         animation: keyframes7 1.058105s both;
         animation-delay: 6.760579s;
         animation-timing-function: linear;
       }
</style>
<path d="M 79 187 L 97 194 Q 111 197 142 217 Q 225 274 270 320 Q 304 359 316 378 L 350 427 Q 367 453 373 459 Q 380 465 382 469 L 383 470 Q 383 488 356 511 Q 329 534 316 534 Q 303 534 301 531 Q 299 528 298 522 L 294 491 Q 292 469 284 452 Q 277 434 256 398 Q 213 335 169 285 Q 141 257 122 240 L 74 199 Q 69 194 71 190 Q 74 185 79 187 Z" fill="lightgray"></path> 
<path d="M 795 260 L 845 262 Q 871 264 895 267 L 934 273 Q 950 274 950 282 Q 950 290 932 295 L 909 302 Q 848 321 799 344 Q 751 366 705 402 Q 659 437 636 463 Q 613 489 567 548 Q 522 606 521 608 L 502 627 Q 483 645 438 650 Q 420 652 416 651 L 400 649 Q 388 647 384 642 Q 381 637 385 631 Q 389 626 411 624 Q 433 621 456 610 Q 479 598 484 593 Q 489 587 504 566 L 541 513 Q 571 470 604 427 L 641 378 L 700 308 Q 720 288 729 280 Q 757 258 795 260 Z" fill="lightgray"></path> 
<path d="M 529 222 L 562 224 Q 584 224 594 215 Q 604 206 599 166 L 590 104 Q 561 -29 527 -64 Q 515 -73 510 -75 Q 492 -82 474 -72 L 436 -44 Q 423 -37 420 -40 Q 418 -44 426 -52 L 446 -83 Q 457 -98 469 -128 Q 481 -159 487 -168 Q 495 -185 517 -175 Q 539 -165 559 -145 Q 580 -125 590 -110 Q 619 -66 634 10 L 658 122 Q 665 165 676 184 L 694 210 L 696 217 L 694 226 Q 692 231 679 242 Q 667 254 641 264 Q 620 275 608 275 L 590 270 L 568 262 Q 485 243 475 242 L 392 228 Q 320 215 298 213 L 261 210 L 242 207 Q 227 201 246 190 Q 278 169 293 169 Q 308 169 343 184 L 375 193 L 486 216 Q 512 220 529 222 Z" fill="lightgray"></path> 
<path d="M 343 184 L 347 151 Q 349 138 342 117 Q 337 93 313 45 Q 290 -4 253 -41 L 204 -88 Q 170 -120 164 -125 L 142 -142 Q 133 -149 136 -154 Q 140 -159 148 -154 L 165 -147 Q 185 -138 220 -117 Q 255 -96 278 -78 Q 301 -60 336 -20 Q 370 28 375 36 L 405 90 Q 414 105 424 117 Q 450 143 440 154 L 412 176 Q 399 186 375 193 C 347 203 341 205 343 184 Z" fill="lightgray"></path> 
<path d="M 1636 555 Q 1658 561 1684 564 Q 1741 576 1750 583 Q 1760 592 1755 601 Q 1748 614 1717 623 Q 1687 630 1581 598 Q 1455 570 1348 561 Q 1308 557 1336 537 Q 1379 510 1441 522 Q 1511 535 1585 547 L 1636 555 Z" fill="lightgray"></path> 
<path d="M 1677 271 Q 1776 281 1931 269 Q 1956 266 1962 275 Q 1969 288 1957 301 Q 1926 329 1881 350 Q 1866 357 1839 348 Q 1766 332 1691 321 Q 1684 321 1677 319 L 1618 312 Q 1477 299 1431 291 L 1374 284 Q 1334 283 1306 277 Q 1233 265 1125 264 Q 1110 264 1109 252 Q 1109 239 1128 224 Q 1173 191 1211 204 Q 1253 220 1366 235 Q 1367 236 1371 236 L 1427 245 Q 1484 257 1618 265 L 1677 271 Z" fill="lightgray"></path> 
<path d="M 1431 291 Q 1435 334 1437 384 L 1443 416 Q 1449 438 1427 448 Q 1378 473 1361 471 Q 1340 467 1357 444 Q 1378 405 1374 284 L 1371 236 Q 1371 115 1288 -2 L 1224 -69 Q 1209 -82 1206 -89 Q 1203 -96 1216 -96 Q 1232 -96 1254 -81 Q 1297 -53 1324 -24 Q 1397 57 1418 184 L 1427 245 L 1431 291 Z" fill="lightgray"></path> 
<path d="M 1623 -132 Q 1629 -160 1637 -171 Q 1643 -178 1651 -176 Q 1669 -167 1675 -99 Q 1682 -15 1680 67 Q 1677 118 1677 271 L 1677 319 Q 1677 424 1689 502 Q 1693 521 1677 533 Q 1652 549 1636 555 C 1609 568 1575 575 1585 547 Q 1582 540 1601 513 Q 1611 492 1617 400 Q 1617 360 1618 312 L 1618 265 Q 1612 -62 1623 -132 Z" fill="lightgray"></path> 
      <clipPath id="make-me-a-hanzi-clip-0">
      <path d="M 79 187 L 97 194 Q 111 197 142 217 Q 225 274 270 320 Q 304 359 316 378 L 350 427 Q 367 453 373 459 Q 380 465 382 469 L 383 470 Q 383 488 356 511 Q 329 534 316 534 Q 303 534 301 531 Q 299 528 298 522 L 294 491 Q 292 469 284 452 Q 277 434 256 398 Q 213 335 169 285 Q 141 257 122 240 L 74 199 Q 69 194 71 190 Q 74 185 79 187 Z" fill="lightgray"></path>
      </clipPath>
      <path clip-path="url(#make-me-a-hanzi-clip-0)" d="M 310 523 L 328 492 L 332 471 L 275 372 L 239 327 L 166 256 L 77 193 " fill="none" id="make-me-a-hanzi-animation-0" stroke-dasharray="568 1136" stroke-linecap="round"></path>

      <clipPath id="make-me-a-hanzi-clip-1">
      <path d="M 795 260 L 845 262 Q 871 264 895 267 L 934 273 Q 950 274 950 282 Q 950 290 932 295 L 909 302 Q 848 321 799 344 Q 751 366 705 402 Q 659 437 636 463 Q 613 489 567 548 Q 522 606 521 608 L 502 627 Q 483 645 438 650 Q 420 652 416 651 L 400 649 Q 388 647 384 642 Q 381 637 385 631 Q 389 626 411 624 Q 433 621 456 610 Q 479 598 484 593 Q 489 587 504 566 L 541 513 Q 571 470 604 427 L 641 378 L 700 308 Q 720 288 729 280 Q 757 258 795 260 Z" fill="lightgray"></path>
      </clipPath>
      <path clip-path="url(#make-me-a-hanzi-clip-1)" d="M 392 637 L 444 634 L 494 609 L 648 412 L 760 313 L 812 297 L 943 282 " fill="none" id="make-me-a-hanzi-animation-1" stroke-dasharray="822 1644" stroke-linecap="round"></path>

      <clipPath id="make-me-a-hanzi-clip-2">
      <path d="M 529 222 L 562 224 Q 584 224 594 215 Q 604 206 599 166 L 590 104 Q 561 -29 527 -64 Q 515 -73 510 -75 Q 492 -82 474 -72 L 436 -44 Q 423 -37 420 -40 Q 418 -44 426 -52 L 446 -83 Q 457 -98 469 -128 Q 481 -159 487 -168 Q 495 -185 517 -175 Q 539 -165 559 -145 Q 580 -125 590 -110 Q 619 -66 634 10 L 658 122 Q 665 165 676 184 L 694 210 L 696 217 L 694 226 Q 692 231 679 242 Q 667 254 641 264 Q 620 275 608 275 L 590 270 L 568 262 Q 485 243 475 242 L 392 228 Q 320 215 298 213 L 261 210 L 242 207 Q 227 201 246 190 Q 278 169 293 169 Q 308 169 343 184 L 375 193 L 486 216 Q 512 220 529 222 Z" fill="lightgray"></path>
      </clipPath>
      <path clip-path="url(#make-me-a-hanzi-clip-2)" d="M 244 199 L 295 191 L 383 213 L 559 244 L 612 242 L 634 225 L 642 213 L 611 52 L 590 -24 L 555 -92 L 514 -120 L 480 -99 L 429 -46 L 423 -46 " fill="none" id="make-me-a-hanzi-animation-2" stroke-dasharray="1033 2066" stroke-linecap="round"></path>

      <clipPath id="make-me-a-hanzi-clip-3">
      <path d="M 343 184 L 347 151 Q 349 138 342 117 Q 337 93 313 45 Q 290 -4 253 -41 L 204 -88 Q 170 -120 164 -125 L 142 -142 Q 133 -149 136 -154 Q 140 -159 148 -154 L 165 -147 Q 185 -138 220 -117 Q 255 -96 278 -78 Q 301 -60 336 -20 Q 370 28 375 36 L 405 90 Q 414 105 424 117 Q 450 143 440 154 L 412 176 Q 399 186 375 193 C 347 203 341 205 343 184 Z" fill="lightgray"></path>
      </clipPath>
      <path clip-path="url(#make-me-a-hanzi-clip-3)" d="M 350 179 L 382 154 L 389 138 L 322 3 L 260 -65 L 178 -129 L 142 -149 " fill="none" id="make-me-a-hanzi-animation-3" stroke-dasharray="574 1148" stroke-linecap="round"></path>

      <clipPath id="make-me-a-hanzi-clip-4">
      <path d="M 1636 555 Q 1658 561 1684 564 Q 1741 576 1750 583 Q 1760 592 1755 601 Q 1748 614 1717 623 Q 1687 630 1581 598 Q 1455 570 1348 561 Q 1308 557 1336 537 Q 1379 510 1441 522 Q 1511 535 1585 547 L 1636 555 Z" fill="lightgray"></path>
      </clipPath>
      <path clip-path="url(#make-me-a-hanzi-clip-4)" d="M 1339 551 L 1362 544 L 1414 543 L 1658 590 L 1718 598 L 1743 595 " fill="none" id="make-me-a-hanzi-animation-4" stroke-dasharray="538 1076" stroke-linecap="round"></path>

      <clipPath id="make-me-a-hanzi-clip-5">
      <path d="M 1677 271 Q 1776 281 1931 269 Q 1956 266 1962 275 Q 1969 288 1957 301 Q 1926 329 1881 350 Q 1866 357 1839 348 Q 1766 332 1691 321 Q 1684 321 1677 319 L 1618 312 Q 1477 299 1431 291 L 1374 284 Q 1334 283 1306 277 Q 1233 265 1125 264 Q 1110 264 1109 252 Q 1109 239 1128 224 Q 1173 191 1211 204 Q 1253 220 1366 235 Q 1367 236 1371 236 L 1427 245 Q 1484 257 1618 265 L 1677 271 Z" fill="lightgray"></path>
      </clipPath>
      <path clip-path="url(#make-me-a-hanzi-clip-5)" d="M 1122 251 L 1149 239 L 1190 233 L 1469 275 L 1857 313 L 1913 300 L 1950 284 " fill="none" id="make-me-a-hanzi-animation-5" stroke-dasharray="969 1938" stroke-linecap="round"></path>

      <clipPath id="make-me-a-hanzi-clip-6">
      <path d="M 1431 291 Q 1435 334 1437 384 L 1443 416 Q 1449 438 1427 448 Q 1378 473 1361 471 Q 1340 467 1357 444 Q 1378 405 1374 284 L 1371 236 Q 1371 115 1288 -2 L 1224 -69 Q 1209 -82 1206 -89 Q 1203 -96 1216 -96 Q 1232 -96 1254 -81 Q 1297 -53 1324 -24 Q 1397 57 1418 184 L 1427 245 L 1431 291 Z" fill="lightgray"></path>
      </clipPath>
      <path clip-path="url(#make-me-a-hanzi-clip-6)" d="M 1363 457 L 1380 447 L 1405 417 L 1402 270 L 1381 132 L 1356 66 L 1305 -15 L 1240 -73 L 1214 -88 " fill="none" id="make-me-a-hanzi-animation-6" stroke-dasharray="757 1514" stroke-linecap="round"></path>

      <clipPath id="make-me-a-hanzi-clip-7">
      <path d="M 1623 -132 Q 1629 -160 1637 -171 Q 1643 -178 1651 -176 Q 1669 -167 1675 -99 Q 1682 -15 1680 67 Q 1677 118 1677 271 L 1677 319 Q 1677 424 1689 502 Q 1693 521 1677 533 Q 1652 549 1636 555 C 1609 568 1575 575 1585 547 Q 1582 540 1601 513 Q 1611 492 1617 400 Q 1617 360 1618 312 L 1618 265 Q 1612 -62 1623 -132 Z" fill="lightgray"></path>
      </clipPath>
      <path clip-path="url(#make-me-a-hanzi-clip-7)" d="M 1592 544 L 1632 521 L 1647 501 L 1647 -165 " fill="none" id="make-me-a-hanzi-animation-7" stroke-dasharray="865 1730" stroke-linecap="round"></path>

</g>
</svg>
