<svg version="1.1" viewBox="0 0 3072 1024" xmlns="http://www.w3.org/2000/svg">
  <g stroke="lightgray" stroke-dasharray="1,1" stroke-width="1" transform="scale(4, 4)">
    <line x1="0" y1="0" x2="256" y2="256"></line>
    <line x1="256" y1="0" x2="0" y2="256"></line>
    <line x1="128" y1="0" x2="128" y2="256"></line>
    <line x1="0" y1="128" x2="256" y2="128"></line>
    <line x1="256" y1="0" x2="512" y2="256"></line>
    <line x1="512" y1="0" x2="256" y2="256"></line>
    <line x1="384" y1="0" x2="384" y2="256"></line>
    <line x1="256" y1="128" x2="512" y2="128"></line>
    <line x1="512" y1="0" x2="768" y2="256"></line>
    <line x1="768" y1="0" x2="512" y2="256"></line>
    <line x1="640" y1="0" x2="640" y2="256"></line>
    <line x1="512" y1="128" x2="768" y2="128"></line>
  </g>
<g transform="scale(1, -1) translate(0, -850)">
   <style type="text/css">
    @keyframes keyframes0 {
      from {
       stroke: black;
       stroke-dashoffset: 416;
       stroke-width: 128;
       }
       58% {
       animation-timing-function: step-end;
       stroke: black;
       stroke-dashoffset: 0;
       stroke-width: 128;
       }
       to {
       stroke: black;
       stroke-width: 1024;
       }
       }
       #make-me-a-hanzi-animation-0 {
         animation: keyframes0 0.588542s both;
         animation-delay: 0.000000s;
         animation-timing-function: linear;
       }
    @keyframes keyframes1 {
      from {
       stroke: black;
       stroke-dashoffset: 480;
       stroke-width: 128;
       }
       61% {
       animation-timing-function: step-end;
       stroke: black;
       stroke-dashoffset: 0;
       stroke-width: 128;
       }
       to {
       stroke: black;
       stroke-width: 1024;
       }
       }
       #make-me-a-hanzi-animation-1 {
         animation: keyframes1 0.640625s both;
         animation-delay: 0.588542s;
         animation-timing-function: linear;
       }
    @keyframes keyframes2 {
      from {
       stroke: black;
       stroke-dashoffset: 1097;
       stroke-width: 128;
       }
       78% {
       animation-timing-function: step-end;
       stroke: black;
       stroke-dashoffset: 0;
       stroke-width: 128;
       }
       to {
       stroke: black;
       stroke-width: 1024;
       }
       }
       #make-me-a-hanzi-animation-2 {
         animation: keyframes2 1.142741s both;
         animation-delay: 1.229167s;
         animation-timing-function: linear;
       }
    @keyframes keyframes3 {
      from {
       stroke: black;
       stroke-dashoffset: 731;
       stroke-width: 128;
       }
       70% {
       animation-timing-function: step-end;
       stroke: black;
       stroke-dashoffset: 0;
       stroke-width: 128;
       }
       to {
       stroke: black;
       stroke-width: 1024;
       }
       }
       #make-me-a-hanzi-animation-3 {
         animation: keyframes3 0.844889s both;
         animation-delay: 2.371908s;
         animation-timing-function: linear;
       }
    @keyframes keyframes4 {
      from {
       stroke: black;
       stroke-dashoffset: 962;
       stroke-width: 128;
       }
       76% {
       animation-timing-function: step-end;
       stroke: black;
       stroke-dashoffset: 0;
       stroke-width: 128;
       }
       to {
       stroke: black;
       stroke-width: 1024;
       }
       }
       #make-me-a-hanzi-animation-4 {
         animation: keyframes4 1.032878s both;
         animation-delay: 3.216797s;
         animation-timing-function: linear;
       }
    @keyframes keyframes5 {
      from {
       stroke: black;
       stroke-dashoffset: 408;
       stroke-width: 128;
       }
       57% {
       animation-timing-function: step-end;
       stroke: black;
       stroke-dashoffset: 0;
       stroke-width: 128;
       }
       to {
       stroke: black;
       stroke-width: 1024;
       }
       }
       #make-me-a-hanzi-animation-5 {
         animation: keyframes5 0.582031s both;
         animation-delay: 4.249675s;
         animation-timing-function: linear;
       }
    @keyframes keyframes6 {
      from {
       stroke: black;
       stroke-dashoffset: 409;
       stroke-width: 128;
       }
       57% {
       animation-timing-function: step-end;
       stroke: black;
       stroke-dashoffset: 0;
       stroke-width: 128;
       }
       to {
       stroke: black;
       stroke-width: 1024;
       }
       }
       #make-me-a-hanzi-animation-6 {
         animation: keyframes6 0.582845s both;
         animation-delay: 4.831706s;
         animation-timing-function: linear;
       }
    @keyframes keyframes7 {
      from {
       stroke: black;
       stroke-dashoffset: 535;
       stroke-width: 128;
       }
       64% {
       animation-timing-function: step-end;
       stroke: black;
       stroke-dashoffset: 0;
       stroke-width: 128;
       }
       to {
       stroke: black;
       stroke-width: 1024;
       }
       }
       #make-me-a-hanzi-animation-7 {
         animation: keyframes7 0.685384s both;
         animation-delay: 5.414551s;
         animation-timing-function: linear;
       }
    @keyframes keyframes8 {
      from {
       stroke: black;
       stroke-dashoffset: 914;
       stroke-width: 128;
       }
       75% {
       animation-timing-function: step-end;
       stroke: black;
       stroke-dashoffset: 0;
       stroke-width: 128;
       }
       to {
       stroke: black;
       stroke-width: 1024;
       }
       }
       #make-me-a-hanzi-animation-8 {
         animation: keyframes8 0.993815s both;
         animation-delay: 6.099935s;
         animation-timing-function: linear;
       }
    @keyframes keyframes9 {
      from {
       stroke: black;
       stroke-dashoffset: 952;
       stroke-width: 128;
       }
       76% {
       animation-timing-function: step-end;
       stroke: black;
       stroke-dashoffset: 0;
       stroke-width: 128;
       }
       to {
       stroke: black;
       stroke-width: 1024;
       }
       }
       #make-me-a-hanzi-animation-9 {
         animation: keyframes9 1.024740s both;
         animation-delay: 7.093750s;
         animation-timing-function: linear;
       }
    @keyframes keyframes10 {
      from {
       stroke: black;
       stroke-dashoffset: 897;
       stroke-width: 128;
       }
       74% {
       animation-timing-function: step-end;
       stroke: black;
       stroke-dashoffset: 0;
       stroke-width: 128;
       }
       to {
       stroke: black;
       stroke-width: 1024;
       }
       }
       #make-me-a-hanzi-animation-10 {
         animation: keyframes10 0.979980s both;
         animation-delay: 8.118490s;
         animation-timing-function: linear;
       }
    @keyframes keyframes11 {
      from {
       stroke: black;
       stroke-dashoffset: 792;
       stroke-width: 128;
       }
       72% {
       animation-timing-function: step-end;
       stroke: black;
       stroke-dashoffset: 0;
       stroke-width: 128;
       }
       to {
       stroke: black;
       stroke-width: 1024;
       }
       }
       #make-me-a-hanzi-animation-11 {
         animation: keyframes11 0.894531s both;
         animation-delay: 9.098470s;
         animation-timing-function: linear;
       }
    @keyframes keyframes12 {
      from {
       stroke: black;
       stroke-dashoffset: 548;
       stroke-width: 128;
       }
       64% {
       animation-timing-function: step-end;
       stroke: black;
       stroke-dashoffset: 0;
       stroke-width: 128;
       }
       to {
       stroke: black;
       stroke-width: 1024;
       }
       }
       #make-me-a-hanzi-animation-12 {
         animation: keyframes12 0.695964s both;
         animation-delay: 9.993001s;
         animation-timing-function: linear;
       }
    @keyframes keyframes13 {
      from {
       stroke: black;
       stroke-dashoffset: 786;
       stroke-width: 128;
       }
       72% {
       animation-timing-function: step-end;
       stroke: black;
       stroke-dashoffset: 0;
       stroke-width: 128;
       }
       to {
       stroke: black;
       stroke-width: 1024;
       }
       }
       #make-me-a-hanzi-animation-13 {
         animation: keyframes13 0.889648s both;
         animation-delay: 10.688965s;
         animation-timing-function: linear;
       }
    @keyframes keyframes14 {
      from {
       stroke: black;
       stroke-dashoffset: 1274;
       stroke-width: 128;
       }
       81% {
       animation-timing-function: step-end;
       stroke: black;
       stroke-dashoffset: 0;
       stroke-width: 128;
       }
       to {
       stroke: black;
       stroke-width: 1024;
       }
       }
       #make-me-a-hanzi-animation-14 {
         animation: keyframes14 1.286784s both;
         animation-delay: 11.578613s;
         animation-timing-function: linear;
       }
    @keyframes keyframes15 {
      from {
       stroke: black;
       stroke-dashoffset: 830;
       stroke-width: 128;
       }
       73% {
       animation-timing-function: step-end;
       stroke: black;
       stroke-dashoffset: 0;
       stroke-width: 128;
       }
       to {
       stroke: black;
       stroke-width: 1024;
       }
       }
       #make-me-a-hanzi-animation-15 {
         animation: keyframes15 0.925456s both;
         animation-delay: 12.865397s;
         animation-timing-function: linear;
       }
</style>
<path d="M 396.5 701.0 L 321.5 727.0 Q 300.5 731.0 301.5 722.0 Q 300.5 719.0 306.5 711.0 L 327.5 673.0 L 371.5 610.0 Q 380.5 599.0 392.5 593.0 Q 403.5 584.0 409.5 583.0 Q 415.5 581.0 424.5 585.0 Q 434.5 588.0 438.5 596.0 Q 443.5 603.0 443.5 623.0 Q 443.5 642.0 438.5 656.0 Q 434.5 670.0 419.5 684.0 Q 405.5 697.0 396.5 701.0 Z" fill="lightgray"></path> 
<path d="M 554.5 617.0 L 541.5 597.0 Q 535.5 586.0 539.5 584.0 Q 540.5 580.0 556.5 591.0 L 605.5 631.0 Q 626.5 647.0 647.5 671.0 L 676.5 700.0 Q 686.5 709.0 695.5 713.0 Q 705.5 716.0 705.5 719.0 Q 705.5 732.0 684.5 751.0 Q 665.5 762.0 653.5 765.0 Q 609.5 783.0 607.5 762.0 L 607.5 754.0 L 598.5 718.0 Q 594.5 698.0 573.5 662.0 L 554.5 617.0 Z" fill="lightgray"></path> 
<path d="M 836.5 598.0 L 783.5 588.0 Q 759.5 582.0 657.5 574.0 L 463.5 559.0 L 277.5 540.0 Q 217.5 532.0 129.5 532.0 L 97.5 530.0 L 87.5 527.0 Q 83.5 526.0 83.5 520.0 Q 83.5 513.0 90.5 507.0 Q 97.5 501.0 112.5 493.0 Q 127.5 484.0 145.5 480.0 Q 163.5 475.0 172.5 476.0 Q 181.5 476.0 223.5 487.0 Q 266.5 497.0 350.5 507.0 L 415.5 513.0 Q 431.5 512.0 493.5 519.0 L 552.5 525.0 Q 593.5 529.0 651.5 529.0 L 863.5 527.0 Q 920.5 525.0 929.5 533.0 Q 939.5 541.0 939.5 546.0 Q 940.5 551.0 926.5 563.0 L 894.5 580.0 Q 860.5 598.0 836.5 598.0 Z" fill="lightgray"></path> 
<path d="M 186.5 -9.0 L 191.5 -25.0 Q 199.5 -54.0 211.5 -56.0 Q 241.5 -56.0 255.5 159.0 L 255.5 171.0 L 259.5 250.0 L 259.5 273.0 L 265.5 373.0 C 267.5 403.0 267.5 407.0 265.5 408.0 L 233.5 418.0 Q 205.5 427.0 197.5 419.0 Q 193.5 407.0 199.5 400.0 Q 205.5 393.0 207.5 381.0 Q 215.5 365.0 215.5 322.0 L 215.5 285.0 Q 213.5 255.0 206.5 181.0 Q 199.5 106.0 197.5 93.0 L 189.5 52.0 Q 178.5 8.0 186.5 -9.0 Z" fill="lightgray"></path> 
<path d="M 421.5 166.0 L 417.5 75.0 Q 417.5 34.0 401.5 24.0 Q 395.5 22.0 379.5 28.0 L 335.5 43.0 Q 329.5 45.0 326.5 42.0 Q 323.5 38.0 331.5 30.0 L 373.5 -13.0 Q 395.5 -37.0 397.5 -43.0 L 409.5 -59.0 Q 423.5 -70.0 437.5 -56.0 Q 451.5 -42.0 462.5 -10.0 Q 474.5 22.0 474.5 61.0 L 472.5 268.0 L 474.5 309.0 Q 476.5 329.0 480.5 347.0 Q 481.5 359.0 488.5 373.0 Q 495.5 386.0 495.5 390.0 Q 495.5 394.0 487.5 407.0 L 467.5 425.0 Q 465.5 427.0 455.5 433.0 L 445.5 438.0 L 430.5 443.0 Q 425.5 443.0 409.5 437.0 Q 369.5 421.0 265.5 408.0 C 235.5 404.0 236.5 367.0 265.5 373.0 Q 359.5 392.0 397.5 397.0 Q 411.5 398.0 416.5 390.0 Q 421.5 381.0 421.5 366.0 L 419.5 285.0 L 421.5 269.0 L 421.5 187.0 L 421.5 166.0 Z" fill="lightgray"></path> 
<path d="M 259.5 250.0 L 281.5 246.0 Q 291.5 244.0 305.5 248.0 L 421.5 269.0 C 443.5 273.0 443.5 273.0 419.5 285.0 L 399.5 295.0 Q 389.5 302.0 357.5 297.0 L 259.5 273.0 C 230.5 266.0 229.5 255.0 259.5 250.0 Z" fill="lightgray"></path> 
<path d="M 255.5 159.0 L 268.5 152.0 Q 275.5 147.0 295.5 147.0 Q 315.5 147.0 331.5 151.0 L 421.5 166.0 C 451.5 171.0 450.5 179.0 421.5 187.0 L 399.5 193.0 Q 377.5 198.0 373.5 198.0 Q 369.5 198.0 348.5 193.0 L 291.5 177.0 Q 279.5 174.0 255.5 171.0 C 237.5 169.0 237.5 169.0 255.5 159.0 Z" fill="lightgray"></path> 
<path d="M 617.5 155.0 L 613.5 226.0 L 619.5 320.0 Q 619.5 332.0 624.5 344.0 Q 629.5 356.0 621.5 370.0 Q 613.5 377.0 605.5 380.0 L 581.5 389.0 Q 554.5 398.0 550.5 382.0 Q 550.5 375.0 555.5 363.0 Q 561.5 350.0 563.5 343.0 Q 563.5 327.0 567.5 315.0 L 567.5 187.0 L 562.5 157.0 Q 561.5 147.0 567.5 136.0 Q 573.5 122.0 581.5 113.0 Q 589.5 104.0 592.5 104.0 Q 596.5 103.0 606.5 122.0 Q 617.5 141.0 617.5 155.0 Z" fill="lightgray"></path> 
<path d="M 711.5 327.0 L 709.5 154.0 L 703.5 55.0 Q 703.5 33.0 697.5 11.0 Q 691.5 -11.0 682.5 -15.0 Q 673.5 -20.0 649.5 -12.0 L 627.5 -3.0 L 611.5 2.0 Q 604.5 5.0 600.5 1.0 Q 596.5 -3.0 602.5 -7.0 L 632.5 -37.0 L 657.5 -71.0 Q 681.5 -107.0 691.5 -107.0 Q 697.5 -107.0 702.5 -105.0 Q 707.5 -104.0 715.5 -101.0 Q 723.5 -98.0 733.5 -83.0 Q 764.5 -38.0 764.5 64.0 L 762.5 347.0 Q 761.5 407.0 773.5 429.0 Q 779.5 442.0 777.5 449.0 Q 777.5 455.0 763.5 463.0 Q 749.5 470.0 745.5 471.0 L 718.5 477.0 Q 697.5 481.0 692.5 478.0 Q 688.5 474.0 688.5 467.0 Q 688.5 459.0 696.5 444.0 Q 705.5 429.0 707.5 387.0 L 711.5 327.0 Z" fill="lightgray"></path> 
<path d="M 1749.0 705.5 L 1531.0 676.5 L 1226.0 639.5 Q 1193.0 636.5 1210.0 618.5 Q 1218.0 611.5 1239.0 602.5 Q 1267.0 594.5 1276.0 593.5 Q 1286.0 592.5 1328.0 601.5 Q 1406.0 620.5 1568.0 636.5 Q 1730.0 651.5 1815.0 653.5 Q 1900.0 655.5 1910.0 660.5 Q 1932.0 670.5 1911.0 687.5 Q 1879.0 714.5 1848.0 718.5 Q 1818.0 722.5 1749.0 705.5 Z" fill="lightgray"></path> 
<path d="M 1571.0 511.5 Q 1599.0 554.5 1606.0 561.5 L 1617.0 571.5 Q 1620.0 574.5 1620.0 580.5 Q 1620.0 585.5 1613.0 593.5 Q 1595.0 610.5 1571.0 625.5 Q 1560.0 630.5 1556.0 629.5 L 1551.0 626.5 Q 1549.0 625.5 1547.0 621.5 Q 1545.0 616.5 1544.0 615.5 L 1540.0 595.5 Q 1537.0 576.5 1519.0 545.5 Q 1447.0 417.5 1307.0 291.5 Q 1258.0 250.5 1203.0 209.5 Q 1149.0 168.5 1147.0 163.5 Q 1140.0 153.5 1157.0 159.5 L 1182.0 167.5 Q 1202.0 172.5 1270.0 211.5 Q 1291.0 222.5 1364.0 280.5 Q 1445.0 348.5 1495.0 409.5 L 1543.0 473.5 L 1571.0 511.5 Z" fill="lightgray"></path> 
<path d="M 1596.0 115.5 L 1604.0 371.5 L 1610.0 423.5 Q 1612.0 439.5 1612.0 446.5 Q 1612.0 467.5 1594.0 485.5 Q 1592.0 490.5 1571.0 511.5 C 1550.0 533.5 1538.0 503.5 1543.0 473.5 L 1548.0 445.5 Q 1550.0 404.5 1550.0 383.5 L 1549.0 277.5 Q 1547.0 271.5 1545.0 241.5 L 1541.0 188.5 Q 1539.0 155.5 1535.0 137.5 L 1520.0 75.5 Q 1512.0 47.5 1521.0 22.5 L 1523.0 13.5 Q 1525.0 7.5 1537.0 -19.5 Q 1550.0 -46.5 1562.0 -45.5 Q 1574.0 -44.5 1581.0 -23.5 L 1589.0 6.5 Q 1592.0 29.5 1593.0 57.5 L 1596.0 115.5 Z" fill="lightgray"></path> 
<path d="M 1661.0 354.5 Q 1664.0 343.5 1694.0 325.5 Q 1724.0 306.5 1800.0 233.5 Q 1877.0 160.5 1904.0 165.5 Q 1914.0 166.5 1919.0 180.5 Q 1923.0 224.5 1884.0 274.5 Q 1859.0 304.5 1794.0 330.5 Q 1711.0 361.5 1673.0 358.5 Q 1660.0 358.5 1661.0 354.5 Z" fill="lightgray"></path> 
<path d="M 2451.5 527.0 L 2486.5 579.0 L 2519.5 635.0 Q 2533.5 658.0 2548.5 667.0 Q 2551.5 668.0 2561.5 677.0 Q 2572.5 685.0 2558.5 699.0 Q 2545.5 713.0 2538.5 716.0 L 2508.5 729.0 Q 2473.5 741.0 2465.5 733.0 Q 2463.5 726.0 2463.5 720.0 L 2461.5 702.0 L 2451.5 667.0 Q 2439.5 629.0 2403.5 567.0 L 2364.5 503.0 L 2328.5 449.0 L 2279.5 385.0 Q 2248.5 348.0 2243.5 339.0 Q 2238.5 330.0 2226.5 321.0 L 2219.5 314.0 Q 2211.5 304.0 2214.5 297.0 Q 2218.5 290.0 2232.5 302.0 L 2240.5 309.0 L 2259.5 321.0 Q 2263.5 325.0 2278.5 337.0 Q 2294.5 348.0 2308.5 363.0 Q 2330.5 384.0 2354.5 410.0 L 2392.5 453.0 L 2425.5 493.0 L 2451.5 527.0 Z" fill="lightgray"></path> 
<path d="M 2562.5 295.0 L 2623.5 387.0 L 2648.5 429.0 Q 2674.5 466.0 2704.5 486.0 Q 2720.5 500.0 2721.5 507.0 Q 2720.5 524.0 2695.5 541.0 Q 2644.5 573.0 2626.5 570.0 L 2599.5 561.0 Q 2578.5 553.0 2548.5 546.0 Q 2519.5 539.0 2517.5 539.0 L 2451.5 527.0 C 2421.5 522.0 2395.5 497.0 2425.5 493.0 L 2449.5 489.0 Q 2475.5 486.0 2534.5 496.0 L 2581.5 507.0 Q 2591.5 508.0 2598.5 506.0 Q 2599.5 505.0 2598.5 490.0 Q 2598.5 475.0 2583.5 452.0 L 2564.5 419.0 Q 2548.5 389.0 2533.5 368.0 L 2493.5 308.0 Q 2472.5 279.0 2435.5 233.0 Q 2321.5 95.0 2247.5 43.0 L 2181.5 -5.0 Q 2139.5 -36.0 2135.5 -38.0 L 2125.5 -43.0 Q 2113.5 -51.0 2117.5 -58.0 Q 2121.5 -65.0 2135.5 -59.0 L 2159.5 -51.0 Q 2187.5 -40.0 2248.5 -7.0 Q 2349.5 48.0 2430.5 136.0 Q 2461.5 167.0 2489.5 201.0 L 2542.5 267.0 L 2562.5 295.0 Z" fill="lightgray"></path> 
<path d="M 2845.5 -55.0 L 2921.5 -52.0 L 2980.5 -47.0 Q 2998.5 -45.0 3002.5 -38.0 Q 3006.5 -31.0 2985.5 -20.0 L 2957.5 -7.0 L 2900.5 16.0 Q 2849.5 37.0 2814.5 56.0 Q 2780.5 75.0 2742.5 106.0 Q 2705.5 134.0 2657.5 185.0 Q 2606.5 238.0 2593.5 255.0 L 2562.5 295.0 C 2544.5 319.0 2526.5 292.0 2542.5 267.0 L 2617.5 152.0 Q 2637.5 123.0 2690.5 49.0 Q 2744.5 -25.0 2765.5 -37.0 Q 2790.5 -57.0 2845.5 -55.0 Z" fill="lightgray"></path> 
      <clipPath id="make-me-a-hanzi-clip-0">
      <path d="M 396.5 701.0 L 321.5 727.0 Q 300.5 731.0 301.5 722.0 Q 300.5 719.0 306.5 711.0 L 327.5 673.0 L 371.5 610.0 Q 380.5 599.0 392.5 593.0 Q 403.5 584.0 409.5 583.0 Q 415.5 581.0 424.5 585.0 Q 434.5 588.0 438.5 596.0 Q 443.5 603.0 443.5 623.0 Q 443.5 642.0 438.5 656.0 Q 434.5 670.0 419.5 684.0 Q 405.5 697.0 396.5 701.0 Z" fill="lightgray"></path>
      </clipPath>
      <path clip-path="url(#make-me-a-hanzi-clip-0)" d="M 310.5 720.0 L 387.5 659.0 L 419.5 606.0 " fill="none" id="make-me-a-hanzi-animation-0" stroke-dasharray="288 576" stroke-linecap="round"></path>

      <clipPath id="make-me-a-hanzi-clip-1">
      <path d="M 554.5 617.0 L 541.5 597.0 Q 535.5 586.0 539.5 584.0 Q 540.5 580.0 556.5 591.0 L 605.5 631.0 Q 626.5 647.0 647.5 671.0 L 676.5 700.0 Q 686.5 709.0 695.5 713.0 Q 705.5 716.0 705.5 719.0 Q 705.5 732.0 684.5 751.0 Q 665.5 762.0 653.5 765.0 Q 609.5 783.0 607.5 762.0 L 607.5 754.0 L 598.5 718.0 Q 594.5 698.0 573.5 662.0 L 554.5 617.0 Z" fill="lightgray"></path>
      </clipPath>
      <path clip-path="url(#make-me-a-hanzi-clip-1)" d="M 697.5 722.0 L 673.5 729.0 L 642.5 724.0 L 604.5 663.0 L 542.5 590.0 " fill="none" id="make-me-a-hanzi-animation-1" stroke-dasharray="352 704" stroke-linecap="round"></path>

      <clipPath id="make-me-a-hanzi-clip-2">
      <path d="M 836.5 598.0 L 783.5 588.0 Q 759.5 582.0 657.5 574.0 L 463.5 559.0 L 277.5 540.0 Q 217.5 532.0 129.5 532.0 L 97.5 530.0 L 87.5 527.0 Q 83.5 526.0 83.5 520.0 Q 83.5 513.0 90.5 507.0 Q 97.5 501.0 112.5 493.0 Q 127.5 484.0 145.5 480.0 Q 163.5 475.0 172.5 476.0 Q 181.5 476.0 223.5 487.0 Q 266.5 497.0 350.5 507.0 L 415.5 513.0 Q 431.5 512.0 493.5 519.0 L 552.5 525.0 Q 593.5 529.0 651.5 529.0 L 863.5 527.0 Q 920.5 525.0 929.5 533.0 Q 939.5 541.0 939.5 546.0 Q 940.5 551.0 926.5 563.0 L 894.5 580.0 Q 860.5 598.0 836.5 598.0 Z" fill="lightgray"></path>
      </clipPath>
      <path clip-path="url(#make-me-a-hanzi-clip-2)" d="M 95.5 518.0 L 168.5 504.0 L 411.5 534.0 L 836.5 563.0 L 930.5 546.0 " fill="none" id="make-me-a-hanzi-animation-2" stroke-dasharray="969 1938" stroke-linecap="round"></path>

      <clipPath id="make-me-a-hanzi-clip-3">
      <path d="M 186.5 -9.0 L 191.5 -25.0 Q 199.5 -54.0 211.5 -56.0 Q 241.5 -56.0 255.5 159.0 L 255.5 171.0 L 259.5 250.0 L 259.5 273.0 L 265.5 373.0 C 267.5 403.0 267.5 407.0 265.5 408.0 L 233.5 418.0 Q 205.5 427.0 197.5 419.0 Q 193.5 407.0 199.5 400.0 Q 205.5 393.0 207.5 381.0 Q 215.5 365.0 215.5 322.0 L 215.5 285.0 Q 213.5 255.0 206.5 181.0 Q 199.5 106.0 197.5 93.0 L 189.5 52.0 Q 178.5 8.0 186.5 -9.0 Z" fill="lightgray"></path>
      </clipPath>
      <path clip-path="url(#make-me-a-hanzi-clip-3)" d="M 205.5 412.0 L 236.5 386.0 L 239.5 339.0 L 228.5 118.0 L 211.5 20.0 L 211.5 -47.0 " fill="none" id="make-me-a-hanzi-animation-3" stroke-dasharray="603 1206" stroke-linecap="round"></path>

      <clipPath id="make-me-a-hanzi-clip-4">
      <path d="M 421.5 166.0 L 417.5 75.0 Q 417.5 34.0 401.5 24.0 Q 395.5 22.0 379.5 28.0 L 335.5 43.0 Q 329.5 45.0 326.5 42.0 Q 323.5 38.0 331.5 30.0 L 373.5 -13.0 Q 395.5 -37.0 397.5 -43.0 L 409.5 -59.0 Q 423.5 -70.0 437.5 -56.0 Q 451.5 -42.0 462.5 -10.0 Q 474.5 22.0 474.5 61.0 L 472.5 268.0 L 474.5 309.0 Q 476.5 329.0 480.5 347.0 Q 481.5 359.0 488.5 373.0 Q 495.5 386.0 495.5 390.0 Q 495.5 394.0 487.5 407.0 L 467.5 425.0 Q 465.5 427.0 455.5 433.0 L 445.5 438.0 L 430.5 443.0 Q 425.5 443.0 409.5 437.0 Q 369.5 421.0 265.5 408.0 C 235.5 404.0 236.5 367.0 265.5 373.0 Q 359.5 392.0 397.5 397.0 Q 411.5 398.0 416.5 390.0 Q 421.5 381.0 421.5 366.0 L 419.5 285.0 L 421.5 269.0 L 421.5 187.0 L 421.5 166.0 Z" fill="lightgray"></path>
      </clipPath>
      <path clip-path="url(#make-me-a-hanzi-clip-4)" d="M 274.5 379.0 L 282.5 394.0 L 412.5 416.0 L 437.5 410.0 L 455.5 387.0 L 446.5 290.0 L 446.5 69.0 L 437.5 17.0 L 418.5 -9.0 L 331.5 37.0 " fill="none" id="make-me-a-hanzi-animation-4" stroke-dasharray="834 1668" stroke-linecap="round"></path>

      <clipPath id="make-me-a-hanzi-clip-5">
      <path d="M 259.5 250.0 L 281.5 246.0 Q 291.5 244.0 305.5 248.0 L 421.5 269.0 C 443.5 273.0 443.5 273.0 419.5 285.0 L 399.5 295.0 Q 389.5 302.0 357.5 297.0 L 259.5 273.0 C 230.5 266.0 229.5 255.0 259.5 250.0 Z" fill="lightgray"></path>
      </clipPath>
      <path clip-path="url(#make-me-a-hanzi-clip-5)" d="M 266.5 256.0 L 273.5 262.0 L 367.5 279.0 L 389.5 281.0 L 413.5 272.0 " fill="none" id="make-me-a-hanzi-animation-5" stroke-dasharray="280 560" stroke-linecap="round"></path>

      <clipPath id="make-me-a-hanzi-clip-6">
      <path d="M 255.5 159.0 L 268.5 152.0 Q 275.5 147.0 295.5 147.0 Q 315.5 147.0 331.5 151.0 L 421.5 166.0 C 451.5 171.0 450.5 179.0 421.5 187.0 L 399.5 193.0 Q 377.5 198.0 373.5 198.0 Q 369.5 198.0 348.5 193.0 L 291.5 177.0 Q 279.5 174.0 255.5 171.0 C 237.5 169.0 237.5 169.0 255.5 159.0 Z" fill="lightgray"></path>
      </clipPath>
      <path clip-path="url(#make-me-a-hanzi-clip-6)" d="M 263.5 165.0 L 288.5 161.0 L 414.5 182.0 " fill="none" id="make-me-a-hanzi-animation-6" stroke-dasharray="281 562" stroke-linecap="round"></path>

      <clipPath id="make-me-a-hanzi-clip-7">
      <path d="M 617.5 155.0 L 613.5 226.0 L 619.5 320.0 Q 619.5 332.0 624.5 344.0 Q 629.5 356.0 621.5 370.0 Q 613.5 377.0 605.5 380.0 L 581.5 389.0 Q 554.5 398.0 550.5 382.0 Q 550.5 375.0 555.5 363.0 Q 561.5 350.0 563.5 343.0 Q 563.5 327.0 567.5 315.0 L 567.5 187.0 L 562.5 157.0 Q 561.5 147.0 567.5 136.0 Q 573.5 122.0 581.5 113.0 Q 589.5 104.0 592.5 104.0 Q 596.5 103.0 606.5 122.0 Q 617.5 141.0 617.5 155.0 Z" fill="lightgray"></path>
      </clipPath>
      <path clip-path="url(#make-me-a-hanzi-clip-7)" d="M 562.5 380.0 L 593.5 347.0 L 590.5 113.0 " fill="none" id="make-me-a-hanzi-animation-7" stroke-dasharray="407 814" stroke-linecap="round"></path>

      <clipPath id="make-me-a-hanzi-clip-8">
      <path d="M 711.5 327.0 L 709.5 154.0 L 703.5 55.0 Q 703.5 33.0 697.5 11.0 Q 691.5 -11.0 682.5 -15.0 Q 673.5 -20.0 649.5 -12.0 L 627.5 -3.0 L 611.5 2.0 Q 604.5 5.0 600.5 1.0 Q 596.5 -3.0 602.5 -7.0 L 632.5 -37.0 L 657.5 -71.0 Q 681.5 -107.0 691.5 -107.0 Q 697.5 -107.0 702.5 -105.0 Q 707.5 -104.0 715.5 -101.0 Q 723.5 -98.0 733.5 -83.0 Q 764.5 -38.0 764.5 64.0 L 762.5 347.0 Q 761.5 407.0 773.5 429.0 Q 779.5 442.0 777.5 449.0 Q 777.5 455.0 763.5 463.0 Q 749.5 470.0 745.5 471.0 L 718.5 477.0 Q 697.5 481.0 692.5 478.0 Q 688.5 474.0 688.5 467.0 Q 688.5 459.0 696.5 444.0 Q 705.5 429.0 707.5 387.0 L 711.5 327.0 Z" fill="lightgray"></path>
      </clipPath>
      <path clip-path="url(#make-me-a-hanzi-clip-8)" d="M 698.5 470.0 L 737.5 436.0 L 732.5 19.0 L 716.5 -34.0 L 696.5 -55.0 L 606.5 -2.0 " fill="none" id="make-me-a-hanzi-animation-8" stroke-dasharray="786 1572" stroke-linecap="round"></path>

      <clipPath id="make-me-a-hanzi-clip-9">
      <path d="M 1749.0 705.5 L 1531.0 676.5 L 1226.0 639.5 Q 1193.0 636.5 1210.0 618.5 Q 1218.0 611.5 1239.0 602.5 Q 1267.0 594.5 1276.0 593.5 Q 1286.0 592.5 1328.0 601.5 Q 1406.0 620.5 1568.0 636.5 Q 1730.0 651.5 1815.0 653.5 Q 1900.0 655.5 1910.0 660.5 Q 1932.0 670.5 1911.0 687.5 Q 1879.0 714.5 1848.0 718.5 Q 1818.0 722.5 1749.0 705.5 Z" fill="lightgray"></path>
      </clipPath>
      <path clip-path="url(#make-me-a-hanzi-clip-9)" d="M 1218.0 628.5 L 1240.0 621.5 L 1297.0 621.5 L 1526.0 654.5 L 1809.0 685.5 L 1848.0 686.5 L 1908.0 674.5 " fill="none" id="make-me-a-hanzi-animation-9" stroke-dasharray="824 1648" stroke-linecap="round"></path>

      <clipPath id="make-me-a-hanzi-clip-10">
      <path d="M 1571.0 511.5 Q 1599.0 554.5 1606.0 561.5 L 1617.0 571.5 Q 1620.0 574.5 1620.0 580.5 Q 1620.0 585.5 1613.0 593.5 Q 1595.0 610.5 1571.0 625.5 Q 1560.0 630.5 1556.0 629.5 L 1551.0 626.5 Q 1549.0 625.5 1547.0 621.5 Q 1545.0 616.5 1544.0 615.5 L 1540.0 595.5 Q 1537.0 576.5 1519.0 545.5 Q 1447.0 417.5 1307.0 291.5 Q 1258.0 250.5 1203.0 209.5 Q 1149.0 168.5 1147.0 163.5 Q 1140.0 153.5 1157.0 159.5 L 1182.0 167.5 Q 1202.0 172.5 1270.0 211.5 Q 1291.0 222.5 1364.0 280.5 Q 1445.0 348.5 1495.0 409.5 L 1543.0 473.5 L 1571.0 511.5 Z" fill="lightgray"></path>
      </clipPath>
      <path clip-path="url(#make-me-a-hanzi-clip-10)" d="M 1561.0 616.5 L 1574.0 579.5 L 1570.0 570.5 L 1524.0 496.5 L 1444.0 391.5 L 1342.0 290.5 L 1287.0 246.5 L 1152.0 162.5 " fill="none" id="make-me-a-hanzi-animation-10" stroke-dasharray="769 1538" stroke-linecap="round"></path>

      <clipPath id="make-me-a-hanzi-clip-11">
      <path d="M 1596.0 115.5 L 1604.0 371.5 L 1610.0 423.5 Q 1612.0 439.5 1612.0 446.5 Q 1612.0 467.5 1594.0 485.5 Q 1592.0 490.5 1571.0 511.5 C 1550.0 533.5 1538.0 503.5 1543.0 473.5 L 1548.0 445.5 Q 1550.0 404.5 1550.0 383.5 L 1549.0 277.5 Q 1547.0 271.5 1545.0 241.5 L 1541.0 188.5 Q 1539.0 155.5 1535.0 137.5 L 1520.0 75.5 Q 1512.0 47.5 1521.0 22.5 L 1523.0 13.5 Q 1525.0 7.5 1537.0 -19.5 Q 1550.0 -46.5 1562.0 -45.5 Q 1574.0 -44.5 1581.0 -23.5 L 1589.0 6.5 Q 1592.0 29.5 1593.0 57.5 L 1596.0 115.5 Z" fill="lightgray"></path>
      </clipPath>
      <path clip-path="url(#make-me-a-hanzi-clip-11)" d="M 1572.0 500.5 L 1573.0 466.5 L 1580.0 448.5 L 1576.0 289.5 L 1568.0 154.5 L 1554.0 45.5 L 1562.0 -32.5 " fill="none" id="make-me-a-hanzi-animation-11" stroke-dasharray="664 1328" stroke-linecap="round"></path>

      <clipPath id="make-me-a-hanzi-clip-12">
      <path d="M 1661.0 354.5 Q 1664.0 343.5 1694.0 325.5 Q 1724.0 306.5 1800.0 233.5 Q 1877.0 160.5 1904.0 165.5 Q 1914.0 166.5 1919.0 180.5 Q 1923.0 224.5 1884.0 274.5 Q 1859.0 304.5 1794.0 330.5 Q 1711.0 361.5 1673.0 358.5 Q 1660.0 358.5 1661.0 354.5 Z" fill="lightgray"></path>
      </clipPath>
      <path clip-path="url(#make-me-a-hanzi-clip-12)" d="M 1668.0 353.5 L 1711.0 337.5 L 1816.0 275.5 L 1864.0 232.5 L 1900.0 184.5 " fill="none" id="make-me-a-hanzi-animation-12" stroke-dasharray="420 840" stroke-linecap="round"></path>

      <clipPath id="make-me-a-hanzi-clip-13">
      <path d="M 2451.5 527.0 L 2486.5 579.0 L 2519.5 635.0 Q 2533.5 658.0 2548.5 667.0 Q 2551.5 668.0 2561.5 677.0 Q 2572.5 685.0 2558.5 699.0 Q 2545.5 713.0 2538.5 716.0 L 2508.5 729.0 Q 2473.5 741.0 2465.5 733.0 Q 2463.5 726.0 2463.5 720.0 L 2461.5 702.0 L 2451.5 667.0 Q 2439.5 629.0 2403.5 567.0 L 2364.5 503.0 L 2328.5 449.0 L 2279.5 385.0 Q 2248.5 348.0 2243.5 339.0 Q 2238.5 330.0 2226.5 321.0 L 2219.5 314.0 Q 2211.5 304.0 2214.5 297.0 Q 2218.5 290.0 2232.5 302.0 L 2240.5 309.0 L 2259.5 321.0 Q 2263.5 325.0 2278.5 337.0 Q 2294.5 348.0 2308.5 363.0 Q 2330.5 384.0 2354.5 410.0 L 2392.5 453.0 L 2425.5 493.0 L 2451.5 527.0 Z" fill="lightgray"></path>
      </clipPath>
      <path clip-path="url(#make-me-a-hanzi-clip-13)" d="M 2553.5 687.0 L 2501.5 683.0 L 2438.5 564.0 L 2367.5 462.0 L 2291.5 371.0 L 2219.5 301.0 " fill="none" id="make-me-a-hanzi-animation-13" stroke-dasharray="658 1316" stroke-linecap="round"></path>

      <clipPath id="make-me-a-hanzi-clip-14">
      <path d="M 2562.5 295.0 L 2623.5 387.0 L 2648.5 429.0 Q 2674.5 466.0 2704.5 486.0 Q 2720.5 500.0 2721.5 507.0 Q 2720.5 524.0 2695.5 541.0 Q 2644.5 573.0 2626.5 570.0 L 2599.5 561.0 Q 2578.5 553.0 2548.5 546.0 Q 2519.5 539.0 2517.5 539.0 L 2451.5 527.0 C 2421.5 522.0 2395.5 497.0 2425.5 493.0 L 2449.5 489.0 Q 2475.5 486.0 2534.5 496.0 L 2581.5 507.0 Q 2591.5 508.0 2598.5 506.0 Q 2599.5 505.0 2598.5 490.0 Q 2598.5 475.0 2583.5 452.0 L 2564.5 419.0 Q 2548.5 389.0 2533.5 368.0 L 2493.5 308.0 Q 2472.5 279.0 2435.5 233.0 Q 2321.5 95.0 2247.5 43.0 L 2181.5 -5.0 Q 2139.5 -36.0 2135.5 -38.0 L 2125.5 -43.0 Q 2113.5 -51.0 2117.5 -58.0 Q 2121.5 -65.0 2135.5 -59.0 L 2159.5 -51.0 Q 2187.5 -40.0 2248.5 -7.0 Q 2349.5 48.0 2430.5 136.0 Q 2461.5 167.0 2489.5 201.0 L 2542.5 267.0 L 2562.5 295.0 Z" fill="lightgray"></path>
      </clipPath>
      <path clip-path="url(#make-me-a-hanzi-clip-14)" d="M 2432.5 497.0 L 2464.5 509.0 L 2598.5 533.0 L 2631.5 530.0 L 2650.5 508.0 L 2626.5 457.0 L 2520.5 290.0 L 2383.5 128.0 L 2282.5 39.0 L 2159.5 -38.0 L 2123.5 -54.0 " fill="none" id="make-me-a-hanzi-animation-14" stroke-dasharray="1146 2292" stroke-linecap="round"></path>

      <clipPath id="make-me-a-hanzi-clip-15">
      <path d="M 2845.5 -55.0 L 2921.5 -52.0 L 2980.5 -47.0 Q 2998.5 -45.0 3002.5 -38.0 Q 3006.5 -31.0 2985.5 -20.0 L 2957.5 -7.0 L 2900.5 16.0 Q 2849.5 37.0 2814.5 56.0 Q 2780.5 75.0 2742.5 106.0 Q 2705.5 134.0 2657.5 185.0 Q 2606.5 238.0 2593.5 255.0 L 2562.5 295.0 C 2544.5 319.0 2526.5 292.0 2542.5 267.0 L 2617.5 152.0 Q 2637.5 123.0 2690.5 49.0 Q 2744.5 -25.0 2765.5 -37.0 Q 2790.5 -57.0 2845.5 -55.0 Z" fill="lightgray"></path>
      </clipPath>
      <path clip-path="url(#make-me-a-hanzi-clip-15)" d="M 2563.5 287.0 L 2563.5 266.0 L 2624.5 184.0 L 2714.5 79.0 L 2785.5 13.0 L 2836.5 -8.0 L 2994.5 -36.0 " fill="none" id="make-me-a-hanzi-animation-15" stroke-dasharray="702 1404" stroke-linecap="round"></path>

</g>
</svg>
