<svg version="1.1" viewBox="0 0 2048 1024" xmlns="http://www.w3.org/2000/svg">
  <g stroke="lightgray" stroke-dasharray="1,1" stroke-width="1" transform="scale(4, 4)">
    <line x1="0" y1="0" x2="256" y2="256"></line>
    <line x1="256" y1="0" x2="0" y2="256"></line>
    <line x1="128" y1="0" x2="128" y2="256"></line>
    <line x1="0" y1="128" x2="256" y2="128"></line>
    <line x1="256" y1="0" x2="512" y2="256"></line>
    <line x1="512" y1="0" x2="256" y2="256"></line>
    <line x1="384" y1="0" x2="384" y2="256"></line>
    <line x1="256" y1="128" x2="512" y2="128"></line>
  </g>
<g transform="scale(1, -1) translate(0, -850)">
   <style type="text/css">
    @keyframes keyframes0 {
      from {
       stroke: black;
       stroke-dashoffset: 416;
       stroke-width: 128;
       }
       58% {
       animation-timing-function: step-end;
       stroke: black;
       stroke-dashoffset: 0;
       stroke-width: 128;
       }
       to {
       stroke: black;
       stroke-width: 1024;
       }
       }
       #make-me-a-hanzi-animation-0 {
         animation: keyframes0 0.588542s both;
         animation-delay: 0.000000s;
         animation-timing-function: linear;
       }
    @keyframes keyframes1 {
      from {
       stroke: black;
       stroke-dashoffset: 480;
       stroke-width: 128;
       }
       61% {
       animation-timing-function: step-end;
       stroke: black;
       stroke-dashoffset: 0;
       stroke-width: 128;
       }
       to {
       stroke: black;
       stroke-width: 1024;
       }
       }
       #make-me-a-hanzi-animation-1 {
         animation: keyframes1 0.640625s both;
         animation-delay: 0.588542s;
         animation-timing-function: linear;
       }
    @keyframes keyframes2 {
      from {
       stroke: black;
       stroke-dashoffset: 1097;
       stroke-width: 128;
       }
       78% {
       animation-timing-function: step-end;
       stroke: black;
       stroke-dashoffset: 0;
       stroke-width: 128;
       }
       to {
       stroke: black;
       stroke-width: 1024;
       }
       }
       #make-me-a-hanzi-animation-2 {
         animation: keyframes2 1.142741s both;
         animation-delay: 1.229167s;
         animation-timing-function: linear;
       }
    @keyframes keyframes3 {
      from {
       stroke: black;
       stroke-dashoffset: 731;
       stroke-width: 128;
       }
       70% {
       animation-timing-function: step-end;
       stroke: black;
       stroke-dashoffset: 0;
       stroke-width: 128;
       }
       to {
       stroke: black;
       stroke-width: 1024;
       }
       }
       #make-me-a-hanzi-animation-3 {
         animation: keyframes3 0.844889s both;
         animation-delay: 2.371908s;
         animation-timing-function: linear;
       }
    @keyframes keyframes4 {
      from {
       stroke: black;
       stroke-dashoffset: 962;
       stroke-width: 128;
       }
       76% {
       animation-timing-function: step-end;
       stroke: black;
       stroke-dashoffset: 0;
       stroke-width: 128;
       }
       to {
       stroke: black;
       stroke-width: 1024;
       }
       }
       #make-me-a-hanzi-animation-4 {
         animation: keyframes4 1.032878s both;
         animation-delay: 3.216797s;
         animation-timing-function: linear;
       }
    @keyframes keyframes5 {
      from {
       stroke: black;
       stroke-dashoffset: 408;
       stroke-width: 128;
       }
       57% {
       animation-timing-function: step-end;
       stroke: black;
       stroke-dashoffset: 0;
       stroke-width: 128;
       }
       to {
       stroke: black;
       stroke-width: 1024;
       }
       }
       #make-me-a-hanzi-animation-5 {
         animation: keyframes5 0.582031s both;
         animation-delay: 4.249674s;
         animation-timing-function: linear;
       }
    @keyframes keyframes6 {
      from {
       stroke: black;
       stroke-dashoffset: 409;
       stroke-width: 128;
       }
       57% {
       animation-timing-function: step-end;
       stroke: black;
       stroke-dashoffset: 0;
       stroke-width: 128;
       }
       to {
       stroke: black;
       stroke-width: 1024;
       }
       }
       #make-me-a-hanzi-animation-6 {
         animation: keyframes6 0.582845s both;
         animation-delay: 4.831706s;
         animation-timing-function: linear;
       }
    @keyframes keyframes7 {
      from {
       stroke: black;
       stroke-dashoffset: 535;
       stroke-width: 128;
       }
       64% {
       animation-timing-function: step-end;
       stroke: black;
       stroke-dashoffset: 0;
       stroke-width: 128;
       }
       to {
       stroke: black;
       stroke-width: 1024;
       }
       }
       #make-me-a-hanzi-animation-7 {
         animation: keyframes7 0.685384s both;
         animation-delay: 5.414551s;
         animation-timing-function: linear;
       }
    @keyframes keyframes8 {
      from {
       stroke: black;
       stroke-dashoffset: 914;
       stroke-width: 128;
       }
       75% {
       animation-timing-function: step-end;
       stroke: black;
       stroke-dashoffset: 0;
       stroke-width: 128;
       }
       to {
       stroke: black;
       stroke-width: 1024;
       }
       }
       #make-me-a-hanzi-animation-8 {
         animation: keyframes8 0.993815s both;
         animation-delay: 6.099935s;
         animation-timing-function: linear;
       }
    @keyframes keyframes9 {
      from {
       stroke: black;
       stroke-dashoffset: 622;
       stroke-width: 128;
       }
       67% {
       animation-timing-function: step-end;
       stroke: black;
       stroke-dashoffset: 0;
       stroke-width: 128;
       }
       to {
       stroke: black;
       stroke-width: 1024;
       }
       }
       #make-me-a-hanzi-animation-9 {
         animation: keyframes9 0.756185s both;
         animation-delay: 7.093750s;
         animation-timing-function: linear;
       }
    @keyframes keyframes10 {
      from {
       stroke: black;
       stroke-dashoffset: 748;
       stroke-width: 128;
       }
       71% {
       animation-timing-function: step-end;
       stroke: black;
       stroke-dashoffset: 0;
       stroke-width: 128;
       }
       to {
       stroke: black;
       stroke-width: 1024;
       }
       }
       #make-me-a-hanzi-animation-10 {
         animation: keyframes10 0.858724s both;
         animation-delay: 7.849935s;
         animation-timing-function: linear;
       }
    @keyframes keyframes11 {
      from {
       stroke: black;
       stroke-dashoffset: 782;
       stroke-width: 128;
       }
       72% {
       animation-timing-function: step-end;
       stroke: black;
       stroke-dashoffset: 0;
       stroke-width: 128;
       }
       to {
       stroke: black;
       stroke-width: 1024;
       }
       }
       #make-me-a-hanzi-animation-11 {
         animation: keyframes11 0.886393s both;
         animation-delay: 8.708659s;
         animation-timing-function: linear;
       }
    @keyframes keyframes12 {
      from {
       stroke: black;
       stroke-dashoffset: 924;
       stroke-width: 128;
       }
       75% {
       animation-timing-function: step-end;
       stroke: black;
       stroke-dashoffset: 0;
       stroke-width: 128;
       }
       to {
       stroke: black;
       stroke-width: 1024;
       }
       }
       #make-me-a-hanzi-animation-12 {
         animation: keyframes12 1.001953s both;
         animation-delay: 9.595052s;
         animation-timing-function: linear;
       }
    @keyframes keyframes13 {
      from {
       stroke: black;
       stroke-dashoffset: 401;
       stroke-width: 128;
       }
       57% {
       animation-timing-function: step-end;
       stroke: black;
       stroke-dashoffset: 0;
       stroke-width: 128;
       }
       to {
       stroke: black;
       stroke-width: 1024;
       }
       }
       #make-me-a-hanzi-animation-13 {
         animation: keyframes13 0.576335s both;
         animation-delay: 10.597005s;
         animation-timing-function: linear;
       }
    @keyframes keyframes14 {
      from {
       stroke: black;
       stroke-dashoffset: 796;
       stroke-width: 128;
       }
       72% {
       animation-timing-function: step-end;
       stroke: black;
       stroke-dashoffset: 0;
       stroke-width: 128;
       }
       to {
       stroke: black;
       stroke-width: 1024;
       }
       }
       #make-me-a-hanzi-animation-14 {
         animation: keyframes14 0.897786s both;
         animation-delay: 11.173340s;
         animation-timing-function: linear;
       }
    @keyframes keyframes15 {
      from {
       stroke: black;
       stroke-dashoffset: 1130;
       stroke-width: 128;
       }
       79% {
       animation-timing-function: step-end;
       stroke: black;
       stroke-dashoffset: 0;
       stroke-width: 128;
       }
       to {
       stroke: black;
       stroke-width: 1024;
       }
       }
       #make-me-a-hanzi-animation-15 {
         animation: keyframes15 1.169596s both;
         animation-delay: 12.071126s;
         animation-timing-function: linear;
       }
</style>
<path d="M 395 612 L 320 638 Q 299 642 300 633 Q 299 630 305 622 L 326 584 L 370 521 Q 379 510 391 504 Q 402 495 408 494 Q 414 492 423 496 Q 433 499 437 507 Q 442 514 442 534 Q 442 553 437 567 Q 433 581 418 595 Q 404 608 395 612 Z" fill="lightgray"></path> 
<path d="M 553 528 L 540 508 Q 534 497 538 495 Q 539 491 555 502 L 604 542 Q 625 558 646 582 L 675 611 Q 685 620 694 624 Q 704 627 704 630 Q 704 643 683 662 Q 664 673 652 676 Q 608 694 606 673 L 606 665 L 597 629 Q 593 609 572 573 L 553 528 Z" fill="lightgray"></path> 
<path d="M 835 509 L 782 499 Q 758 493 656 485 L 462 470 L 276 451 Q 216 443 128 443 L 96 441 L 86 438 Q 82 437 82 431 Q 82 424 89 418 Q 96 412 111 404 Q 126 395 144 391 Q 162 386 171 387 Q 180 387 222 398 Q 265 408 349 418 L 414 424 Q 430 423 492 430 L 551 436 Q 592 440 650 440 L 862 438 Q 919 436 928 444 Q 938 452 938 457 Q 939 462 925 474 L 893 491 Q 859 509 835 509 Z" fill="lightgray"></path> 
<path d="M 185 -98 L 190 -114 Q 198 -143 210 -145 Q 240 -145 254 70 L 254 82 L 258 161 L 258 184 L 264 284 C 266 314 266 318 264 319 L 232 329 Q 204 338 196 330 Q 192 318 198 311 Q 204 304 206 292 Q 214 276 214 233 L 214 196 Q 212 166 205 92 Q 198 17 196 4 L 188 -37 Q 177 -81 185 -98 Z" fill="lightgray"></path> 
<path d="M 420 77 L 416 -14 Q 416 -55 400 -65 Q 394 -67 378 -61 L 334 -46 Q 328 -44 325 -47 Q 322 -51 330 -59 L 372 -102 Q 394 -126 396 -132 L 408 -148 Q 422 -159 436 -145 Q 450 -131 461 -99 Q 473 -67 473 -28 L 471 179 L 473 220 Q 475 240 479 258 Q 480 270 487 284 Q 494 297 494 301 Q 494 305 486 318 L 466 336 Q 464 338 454 344 L 444 349 L 429 354 Q 424 354 408 348 Q 368 332 264 319 C 234 315 235 278 264 284 Q 358 303 396 308 Q 410 309 415 301 Q 420 292 420 277 L 418 196 L 420 180 L 420 98 L 420 77 Z" fill="lightgray"></path> 
<path d="M 258 161 L 280 157 Q 290 155 304 159 L 420 180 C 442 184 442 184 418 196 L 398 206 Q 388 213 356 208 L 258 184 C 229 177 228 166 258 161 Z" fill="lightgray"></path> 
<path d="M 254 70 L 267 63 Q 274 58 294 58 Q 314 58 330 62 L 420 77 C 450 82 449 90 420 98 L 398 104 Q 376 109 372 109 Q 368 109 347 104 L 290 88 Q 278 85 254 82 C 236 80 236 80 254 70 Z" fill="lightgray"></path> 
<path d="M 616 66 L 612 137 L 618 231 Q 618 243 623 255 Q 628 267 620 281 Q 612 288 604 291 L 580 300 Q 553 309 549 293 Q 549 286 554 274 Q 560 261 562 254 Q 562 238 566 226 L 566 98 L 561 68 Q 560 58 566 47 Q 572 33 580 24 Q 588 15 591 15 Q 595 14 605 33 Q 616 52 616 66 Z" fill="lightgray"></path> 
<path d="M 710 238 L 708 65 L 702 -34 Q 702 -56 696 -78 Q 690 -100 681 -104 Q 672 -109 648 -101 L 626 -92 L 610 -87 Q 603 -84 599 -88 Q 595 -92 601 -96 L 631 -126 L 656 -160 Q 680 -196 690 -196 Q 696 -196 701 -194 Q 706 -193 714 -190 Q 722 -187 732 -172 Q 763 -127 763 -25 L 761 258 Q 760 318 772 340 Q 778 353 776 360 Q 776 366 762 374 Q 748 381 744 382 L 717 388 Q 696 392 691 389 Q 687 385 687 378 Q 687 370 695 355 Q 704 340 706 298 L 710 238 Z" fill="lightgray"></path> 
<path d="M 1727 514 Q 1740 518 1757 520 Q 1806 530 1814 537 Q 1824 544 1819 554 Q 1812 566 1782 574 Q 1754 581 1727 571 L 1683 557 Q 1643 547 1602 536 Q 1592 535 1581 531 L 1534 524 Q 1495 520 1455 516 Q 1418 510 1443 492 Q 1479 473 1535 477 L 1580 485 Q 1631 495 1685 506 L 1727 514 Z" fill="lightgray"></path> 
<path d="M 1728 348 Q 1890 354 1895 359 Q 1895 360 1896 361 Q 1900 371 1885 385 Q 1834 421 1770 404 Q 1749 400 1728 394 L 1685 386 Q 1601 374 1569 366 L 1524 359 Q 1469 353 1411 343 Q 1392 340 1406 325 Q 1419 312 1437 308 Q 1447 307 1512 318 L 1561 328 Q 1621 343 1685 345 L 1728 348 Z" fill="lightgray"></path> 
<path d="M 1581 531 Q 1581 570 1583 608 Q 1587 626 1569 633 Q 1526 652 1514 648 Q 1498 644 1512 626 Q 1530 599 1534 524 L 1535 477 Q 1535 408 1524 359 L 1512 318 Q 1511 317 1511 314 Q 1495 266 1430 191 Q 1418 178 1415 172 Q 1414 165 1424 167 Q 1460 171 1509 233 Q 1536 267 1561 328 L 1569 366 Q 1575 405 1580 485 L 1581 531 Z" fill="lightgray"></path> 
<path d="M 1668 186 Q 1659 150 1683 97 Q 1689 81 1696 79 Q 1702 73 1708 80 Q 1715 84 1724 103 Q 1731 125 1731 152 Q 1730 179 1728 348 L 1728 394 Q 1727 449 1727 514 L 1727 571 Q 1728 638 1740 684 Q 1747 697 1745 710 Q 1738 717 1689 747 Q 1668 762 1650 747 Q 1646 743 1652 729 Q 1677 692 1680 654 Q 1681 609 1683 557 L 1685 506 Q 1685 448 1685 386 L 1685 345 Q 1685 249 1668 186 Z" fill="lightgray"></path> 
<path d="M 1283 670 Q 1308 645 1335 616 Q 1348 600 1366 600 Q 1378 600 1385 615 Q 1391 631 1382 664 Q 1378 685 1346 700 Q 1273 731 1256 725 Q 1250 721 1251 707 Q 1255 694 1283 670 Z" fill="lightgray"></path> 
<path d="M 1338 123 Q 1359 150 1349 196 Q 1342 217 1316 259 Q 1294 298 1328 355 Q 1347 389 1366 409 Q 1387 428 1368 443 Q 1347 459 1312 473 Q 1290 486 1272 468 Q 1238 443 1192 425 Q 1131 400 1111 403 Q 1104 404 1102 399 Q 1101 393 1109 389 Q 1152 371 1264 414 Q 1273 418 1282 407 Q 1303 385 1281 358 Q 1230 307 1276 245 Q 1315 179 1308 126 C 1306 96 1323 97 1338 123 Z" fill="lightgray"></path> 
<path d="M 1308 126 Q 1260 129 1212 112 Q 1173 97 1115 91 Q 1108 91 1105 83 Q 1102 76 1111 66 Q 1127 47 1152 36 Q 1164 29 1182 44 Q 1255 98 1329 84 Q 1395 71 1528 15 Q 1757 -87 1841 -57 Q 1902 -35 1955 4 Q 1977 20 1954 20 Q 1732 11 1584 48 Q 1503 70 1401 106 Q 1370 119 1338 123 L 1308 126 Z" fill="lightgray"></path> 
      <clipPath id="make-me-a-hanzi-clip-0">
      <path d="M 395 612 L 320 638 Q 299 642 300 633 Q 299 630 305 622 L 326 584 L 370 521 Q 379 510 391 504 Q 402 495 408 494 Q 414 492 423 496 Q 433 499 437 507 Q 442 514 442 534 Q 442 553 437 567 Q 433 581 418 595 Q 404 608 395 612 Z" fill="lightgray"></path>
      </clipPath>
      <path clip-path="url(#make-me-a-hanzi-clip-0)" d="M 309 631 L 386 570 L 418 517 " fill="none" id="make-me-a-hanzi-animation-0" stroke-dasharray="288 576" stroke-linecap="round"></path>

      <clipPath id="make-me-a-hanzi-clip-1">
      <path d="M 553 528 L 540 508 Q 534 497 538 495 Q 539 491 555 502 L 604 542 Q 625 558 646 582 L 675 611 Q 685 620 694 624 Q 704 627 704 630 Q 704 643 683 662 Q 664 673 652 676 Q 608 694 606 673 L 606 665 L 597 629 Q 593 609 572 573 L 553 528 Z" fill="lightgray"></path>
      </clipPath>
      <path clip-path="url(#make-me-a-hanzi-clip-1)" d="M 696 633 L 672 640 L 641 635 L 603 574 L 541 501 " fill="none" id="make-me-a-hanzi-animation-1" stroke-dasharray="352 704" stroke-linecap="round"></path>

      <clipPath id="make-me-a-hanzi-clip-2">
      <path d="M 835 509 L 782 499 Q 758 493 656 485 L 462 470 L 276 451 Q 216 443 128 443 L 96 441 L 86 438 Q 82 437 82 431 Q 82 424 89 418 Q 96 412 111 404 Q 126 395 144 391 Q 162 386 171 387 Q 180 387 222 398 Q 265 408 349 418 L 414 424 Q 430 423 492 430 L 551 436 Q 592 440 650 440 L 862 438 Q 919 436 928 444 Q 938 452 938 457 Q 939 462 925 474 L 893 491 Q 859 509 835 509 Z" fill="lightgray"></path>
      </clipPath>
      <path clip-path="url(#make-me-a-hanzi-clip-2)" d="M 94 429 L 167 415 L 410 445 L 835 474 L 929 457 " fill="none" id="make-me-a-hanzi-animation-2" stroke-dasharray="969 1938" stroke-linecap="round"></path>

      <clipPath id="make-me-a-hanzi-clip-3">
      <path d="M 185 -98 L 190 -114 Q 198 -143 210 -145 Q 240 -145 254 70 L 254 82 L 258 161 L 258 184 L 264 284 C 266 314 266 318 264 319 L 232 329 Q 204 338 196 330 Q 192 318 198 311 Q 204 304 206 292 Q 214 276 214 233 L 214 196 Q 212 166 205 92 Q 198 17 196 4 L 188 -37 Q 177 -81 185 -98 Z" fill="lightgray"></path>
      </clipPath>
      <path clip-path="url(#make-me-a-hanzi-clip-3)" d="M 204 323 L 235 297 L 238 250 L 227 29 L 210 -69 L 210 -136 " fill="none" id="make-me-a-hanzi-animation-3" stroke-dasharray="603 1206" stroke-linecap="round"></path>

      <clipPath id="make-me-a-hanzi-clip-4">
      <path d="M 420 77 L 416 -14 Q 416 -55 400 -65 Q 394 -67 378 -61 L 334 -46 Q 328 -44 325 -47 Q 322 -51 330 -59 L 372 -102 Q 394 -126 396 -132 L 408 -148 Q 422 -159 436 -145 Q 450 -131 461 -99 Q 473 -67 473 -28 L 471 179 L 473 220 Q 475 240 479 258 Q 480 270 487 284 Q 494 297 494 301 Q 494 305 486 318 L 466 336 Q 464 338 454 344 L 444 349 L 429 354 Q 424 354 408 348 Q 368 332 264 319 C 234 315 235 278 264 284 Q 358 303 396 308 Q 410 309 415 301 Q 420 292 420 277 L 418 196 L 420 180 L 420 98 L 420 77 Z" fill="lightgray"></path>
      </clipPath>
      <path clip-path="url(#make-me-a-hanzi-clip-4)" d="M 273 290 L 281 305 L 411 327 L 436 321 L 454 298 L 445 201 L 445 -20 L 436 -72 L 417 -98 L 330 -52 " fill="none" id="make-me-a-hanzi-animation-4" stroke-dasharray="834 1668" stroke-linecap="round"></path>

      <clipPath id="make-me-a-hanzi-clip-5">
      <path d="M 258 161 L 280 157 Q 290 155 304 159 L 420 180 C 442 184 442 184 418 196 L 398 206 Q 388 213 356 208 L 258 184 C 229 177 228 166 258 161 Z" fill="lightgray"></path>
      </clipPath>
      <path clip-path="url(#make-me-a-hanzi-clip-5)" d="M 265 167 L 272 173 L 366 190 L 388 192 L 412 183 " fill="none" id="make-me-a-hanzi-animation-5" stroke-dasharray="280 560" stroke-linecap="round"></path>

      <clipPath id="make-me-a-hanzi-clip-6">
      <path d="M 254 70 L 267 63 Q 274 58 294 58 Q 314 58 330 62 L 420 77 C 450 82 449 90 420 98 L 398 104 Q 376 109 372 109 Q 368 109 347 104 L 290 88 Q 278 85 254 82 C 236 80 236 80 254 70 Z" fill="lightgray"></path>
      </clipPath>
      <path clip-path="url(#make-me-a-hanzi-clip-6)" d="M 262 76 L 287 72 L 413 93 " fill="none" id="make-me-a-hanzi-animation-6" stroke-dasharray="281 562" stroke-linecap="round"></path>

      <clipPath id="make-me-a-hanzi-clip-7">
      <path d="M 616 66 L 612 137 L 618 231 Q 618 243 623 255 Q 628 267 620 281 Q 612 288 604 291 L 580 300 Q 553 309 549 293 Q 549 286 554 274 Q 560 261 562 254 Q 562 238 566 226 L 566 98 L 561 68 Q 560 58 566 47 Q 572 33 580 24 Q 588 15 591 15 Q 595 14 605 33 Q 616 52 616 66 Z" fill="lightgray"></path>
      </clipPath>
      <path clip-path="url(#make-me-a-hanzi-clip-7)" d="M 561 291 L 592 258 L 589 24 " fill="none" id="make-me-a-hanzi-animation-7" stroke-dasharray="407 814" stroke-linecap="round"></path>

      <clipPath id="make-me-a-hanzi-clip-8">
      <path d="M 710 238 L 708 65 L 702 -34 Q 702 -56 696 -78 Q 690 -100 681 -104 Q 672 -109 648 -101 L 626 -92 L 610 -87 Q 603 -84 599 -88 Q 595 -92 601 -96 L 631 -126 L 656 -160 Q 680 -196 690 -196 Q 696 -196 701 -194 Q 706 -193 714 -190 Q 722 -187 732 -172 Q 763 -127 763 -25 L 761 258 Q 760 318 772 340 Q 778 353 776 360 Q 776 366 762 374 Q 748 381 744 382 L 717 388 Q 696 392 691 389 Q 687 385 687 378 Q 687 370 695 355 Q 704 340 706 298 L 710 238 Z" fill="lightgray"></path>
      </clipPath>
      <path clip-path="url(#make-me-a-hanzi-clip-8)" d="M 697 381 L 736 347 L 731 -70 L 715 -123 L 695 -144 L 605 -91 " fill="none" id="make-me-a-hanzi-animation-8" stroke-dasharray="786 1572" stroke-linecap="round"></path>

      <clipPath id="make-me-a-hanzi-clip-9">
      <path d="M 1727 514 Q 1740 518 1757 520 Q 1806 530 1814 537 Q 1824 544 1819 554 Q 1812 566 1782 574 Q 1754 581 1727 571 L 1683 557 Q 1643 547 1602 536 Q 1592 535 1581 531 L 1534 524 Q 1495 520 1455 516 Q 1418 510 1443 492 Q 1479 473 1535 477 L 1580 485 Q 1631 495 1685 506 L 1727 514 Z" fill="lightgray"></path>
      </clipPath>
      <path clip-path="url(#make-me-a-hanzi-clip-9)" d="M 1447 505 L 1525 499 L 1751 548 L 1808 548 " fill="none" id="make-me-a-hanzi-animation-9" stroke-dasharray="494 988" stroke-linecap="round"></path>

      <clipPath id="make-me-a-hanzi-clip-10">
      <path d="M 1728 348 Q 1890 354 1895 359 Q 1895 360 1896 361 Q 1900 371 1885 385 Q 1834 421 1770 404 Q 1749 400 1728 394 L 1685 386 Q 1601 374 1569 366 L 1524 359 Q 1469 353 1411 343 Q 1392 340 1406 325 Q 1419 312 1437 308 Q 1447 307 1512 318 L 1561 328 Q 1621 343 1685 345 L 1728 348 Z" fill="lightgray"></path>
      </clipPath>
      <path clip-path="url(#make-me-a-hanzi-clip-10)" d="M 1409 334 L 1459 329 L 1625 359 L 1809 381 L 1869 374 L 1893 361 " fill="none" id="make-me-a-hanzi-animation-10" stroke-dasharray="620 1240" stroke-linecap="round"></path>

      <clipPath id="make-me-a-hanzi-clip-11">
      <path d="M 1581 531 Q 1581 570 1583 608 Q 1587 626 1569 633 Q 1526 652 1514 648 Q 1498 644 1512 626 Q 1530 599 1534 524 L 1535 477 Q 1535 408 1524 359 L 1512 318 Q 1511 317 1511 314 Q 1495 266 1430 191 Q 1418 178 1415 172 Q 1414 165 1424 167 Q 1460 171 1509 233 Q 1536 267 1561 328 L 1569 366 Q 1575 405 1580 485 L 1581 531 Z" fill="lightgray"></path>
      </clipPath>
      <path clip-path="url(#make-me-a-hanzi-clip-11)" d="M 1516 637 L 1536 626 L 1554 602 L 1558 477 L 1545 351 L 1526 296 L 1490 235 L 1455 196 L 1422 173 " fill="none" id="make-me-a-hanzi-animation-11" stroke-dasharray="654 1308" stroke-linecap="round"></path>

      <clipPath id="make-me-a-hanzi-clip-12">
      <path d="M 1668 186 Q 1659 150 1683 97 Q 1689 81 1696 79 Q 1702 73 1708 80 Q 1715 84 1724 103 Q 1731 125 1731 152 Q 1730 179 1728 348 L 1728 394 Q 1727 449 1727 514 L 1727 571 Q 1728 638 1740 684 Q 1747 697 1745 710 Q 1738 717 1689 747 Q 1668 762 1650 747 Q 1646 743 1652 729 Q 1677 692 1680 654 Q 1681 609 1683 557 L 1685 506 Q 1685 448 1685 386 L 1685 345 Q 1685 249 1668 186 Z" fill="lightgray"></path>
      </clipPath>
      <path clip-path="url(#make-me-a-hanzi-clip-12)" d="M 1661 741 L 1707 695 L 1708 311 L 1698 175 L 1701 92 " fill="none" id="make-me-a-hanzi-animation-12" stroke-dasharray="796 1592" stroke-linecap="round"></path>

      <clipPath id="make-me-a-hanzi-clip-13">
      <path d="M 1283 670 Q 1308 645 1335 616 Q 1348 600 1366 600 Q 1378 600 1385 615 Q 1391 631 1382 664 Q 1378 685 1346 700 Q 1273 731 1256 725 Q 1250 721 1251 707 Q 1255 694 1283 670 Z" fill="lightgray"></path>
      </clipPath>
      <path clip-path="url(#make-me-a-hanzi-clip-13)" d="M 1261 717 L 1343 660 L 1365 621 " fill="none" id="make-me-a-hanzi-animation-13" stroke-dasharray="273 546" stroke-linecap="round"></path>

      <clipPath id="make-me-a-hanzi-clip-14">
      <path d="M 1338 123 Q 1359 150 1349 196 Q 1342 217 1316 259 Q 1294 298 1328 355 Q 1347 389 1366 409 Q 1387 428 1368 443 Q 1347 459 1312 473 Q 1290 486 1272 468 Q 1238 443 1192 425 Q 1131 400 1111 403 Q 1104 404 1102 399 Q 1101 393 1109 389 Q 1152 371 1264 414 Q 1273 418 1282 407 Q 1303 385 1281 358 Q 1230 307 1276 245 Q 1315 179 1308 126 C 1306 96 1323 97 1338 123 Z" fill="lightgray"></path>
      </clipPath>
      <path clip-path="url(#make-me-a-hanzi-clip-14)" d="M 1109 396 L 1175 401 L 1282 441 L 1296 442 L 1320 425 L 1318 388 L 1283 316 L 1281 299 L 1289 264 L 1328 180 L 1328 143 L 1316 132 " fill="none" id="make-me-a-hanzi-animation-14" stroke-dasharray="668 1336" stroke-linecap="round"></path>

      <clipPath id="make-me-a-hanzi-clip-15">
      <path d="M 1308 126 Q 1260 129 1212 112 Q 1173 97 1115 91 Q 1108 91 1105 83 Q 1102 76 1111 66 Q 1127 47 1152 36 Q 1164 29 1182 44 Q 1255 98 1329 84 Q 1395 71 1528 15 Q 1757 -87 1841 -57 Q 1902 -35 1955 4 Q 1977 20 1954 20 Q 1732 11 1584 48 Q 1503 70 1401 106 Q 1370 119 1338 123 L 1308 126 Z" fill="lightgray"></path>
      </clipPath>
      <path clip-path="url(#make-me-a-hanzi-clip-15)" d="M 1116 79 L 1160 66 L 1250 102 L 1329 105 L 1403 85 L 1611 11 L 1700 -11 L 1789 -22 L 1848 -17 L 1958 12 " fill="none" id="make-me-a-hanzi-animation-15" stroke-dasharray="1002 2004" stroke-linecap="round"></path>

</g>
</svg>
