<svg version="1.1" viewBox="0 0 2048 1024" xmlns="http://www.w3.org/2000/svg">
  <g stroke="lightgray" stroke-dasharray="1,1" stroke-width="1" transform="scale(4, 4)">
    <line x1="0" y1="0" x2="256" y2="256"></line>
    <line x1="256" y1="0" x2="0" y2="256"></line>
    <line x1="128" y1="0" x2="128" y2="256"></line>
    <line x1="0" y1="128" x2="256" y2="128"></line>
    <line x1="256" y1="0" x2="512" y2="256"></line>
    <line x1="512" y1="0" x2="256" y2="256"></line>
    <line x1="384" y1="0" x2="384" y2="256"></line>
    <line x1="256" y1="128" x2="512" y2="128"></line>
  </g>
<g transform="scale(1, -1) translate(0, -850)">
   <style type="text/css">
    @keyframes keyframes0 {
      from {
       stroke: black;
       stroke-dashoffset: 1194;
       stroke-width: 128;
       }
       80% {
       animation-timing-function: step-end;
       stroke: black;
       stroke-dashoffset: 0;
       stroke-width: 128;
       }
       to {
       stroke: black;
       stroke-width: 1024;
       }
       }
       #make-me-a-hanzi-animation-0 {
         animation: keyframes0 1.221680s both;
         animation-delay: 0.000000s;
         animation-timing-function: linear;
       }
    @keyframes keyframes1 {
      from {
       stroke: black;
       stroke-dashoffset: 1085;
       stroke-width: 128;
       }
       78% {
       animation-timing-function: step-end;
       stroke: black;
       stroke-dashoffset: 0;
       stroke-width: 128;
       }
       to {
       stroke: black;
       stroke-width: 1024;
       }
       }
       #make-me-a-hanzi-animation-1 {
         animation: keyframes1 1.132975s both;
         animation-delay: 1.221680s;
         animation-timing-function: linear;
       }
    @keyframes keyframes2 {
      from {
       stroke: black;
       stroke-dashoffset: 619;
       stroke-width: 128;
       }
       67% {
       animation-timing-function: step-end;
       stroke: black;
       stroke-dashoffset: 0;
       stroke-width: 128;
       }
       to {
       stroke: black;
       stroke-width: 1024;
       }
       }
       #make-me-a-hanzi-animation-2 {
         animation: keyframes2 0.753743s both;
         animation-delay: 2.354655s;
         animation-timing-function: linear;
       }
    @keyframes keyframes3 {
      from {
       stroke: black;
       stroke-dashoffset: 787;
       stroke-width: 128;
       }
       72% {
       animation-timing-function: step-end;
       stroke: black;
       stroke-dashoffset: 0;
       stroke-width: 128;
       }
       to {
       stroke: black;
       stroke-width: 1024;
       }
       }
       #make-me-a-hanzi-animation-3 {
         animation: keyframes3 0.890462s both;
         animation-delay: 3.108398s;
         animation-timing-function: linear;
       }
    @keyframes keyframes4 {
      from {
       stroke: black;
       stroke-dashoffset: 449;
       stroke-width: 128;
       }
       59% {
       animation-timing-function: step-end;
       stroke: black;
       stroke-dashoffset: 0;
       stroke-width: 128;
       }
       to {
       stroke: black;
       stroke-width: 1024;
       }
       }
       #make-me-a-hanzi-animation-4 {
         animation: keyframes4 0.615397s both;
         animation-delay: 3.998860s;
         animation-timing-function: linear;
       }
    @keyframes keyframes5 {
      from {
       stroke: black;
       stroke-dashoffset: 561;
       stroke-width: 128;
       }
       65% {
       animation-timing-function: step-end;
       stroke: black;
       stroke-dashoffset: 0;
       stroke-width: 128;
       }
       to {
       stroke: black;
       stroke-width: 1024;
       }
       }
       #make-me-a-hanzi-animation-5 {
         animation: keyframes5 0.706543s both;
         animation-delay: 4.614257s;
         animation-timing-function: linear;
       }
    @keyframes keyframes6 {
      from {
       stroke: black;
       stroke-dashoffset: 443;
       stroke-width: 128;
       }
       59% {
       animation-timing-function: step-end;
       stroke: black;
       stroke-dashoffset: 0;
       stroke-width: 128;
       }
       to {
       stroke: black;
       stroke-width: 1024;
       }
       }
       #make-me-a-hanzi-animation-6 {
         animation: keyframes6 0.610514s both;
         animation-delay: 5.320800s;
         animation-timing-function: linear;
       }
    @keyframes keyframes7 {
      from {
       stroke: black;
       stroke-dashoffset: 701;
       stroke-width: 128;
       }
       70% {
       animation-timing-function: step-end;
       stroke: black;
       stroke-dashoffset: 0;
       stroke-width: 128;
       }
       to {
       stroke: black;
       stroke-width: 1024;
       }
       }
       #make-me-a-hanzi-animation-7 {
         animation: keyframes7 0.820475s both;
         animation-delay: 5.931314s;
         animation-timing-function: linear;
       }
    @keyframes keyframes8 {
      from {
       stroke: black;
       stroke-dashoffset: 548;
       stroke-width: 128;
       }
       64% {
       animation-timing-function: step-end;
       stroke: black;
       stroke-dashoffset: 0;
       stroke-width: 128;
       }
       to {
       stroke: black;
       stroke-width: 1024;
       }
       }
       #make-me-a-hanzi-animation-8 {
         animation: keyframes8 0.695964s both;
         animation-delay: 6.751789s;
         animation-timing-function: linear;
       }
    @keyframes keyframes9 {
      from {
       stroke: black;
       stroke-dashoffset: 997;
       stroke-width: 128;
       }
       76% {
       animation-timing-function: step-end;
       stroke: black;
       stroke-dashoffset: 0;
       stroke-width: 128;
       }
       to {
       stroke: black;
       stroke-width: 1024;
       }
       }
       #make-me-a-hanzi-animation-9 {
         animation: keyframes9 1.061361s both;
         animation-delay: 7.447753s;
         animation-timing-function: linear;
       }
    @keyframes keyframes10 {
      from {
       stroke: black;
       stroke-dashoffset: 545;
       stroke-width: 128;
       }
       64% {
       animation-timing-function: step-end;
       stroke: black;
       stroke-dashoffset: 0;
       stroke-width: 128;
       }
       to {
       stroke: black;
       stroke-width: 1024;
       }
       }
       #make-me-a-hanzi-animation-10 {
         animation: keyframes10 0.693522s both;
         animation-delay: 8.509114s;
         animation-timing-function: linear;
       }
    @keyframes keyframes11 {
      from {
       stroke: black;
       stroke-dashoffset: 457;
       stroke-width: 128;
       }
       60% {
       animation-timing-function: step-end;
       stroke: black;
       stroke-dashoffset: 0;
       stroke-width: 128;
       }
       to {
       stroke: black;
       stroke-width: 1024;
       }
       }
       #make-me-a-hanzi-animation-11 {
         animation: keyframes11 0.621908s both;
         animation-delay: 9.202636s;
         animation-timing-function: linear;
       }
    @keyframes keyframes12 {
      from {
       stroke: black;
       stroke-dashoffset: 398;
       stroke-width: 128;
       }
       56% {
       animation-timing-function: step-end;
       stroke: black;
       stroke-dashoffset: 0;
       stroke-width: 128;
       }
       to {
       stroke: black;
       stroke-width: 1024;
       }
       }
       #make-me-a-hanzi-animation-12 {
         animation: keyframes12 0.573893s both;
         animation-delay: 9.824544s;
         animation-timing-function: linear;
       }
    @keyframes keyframes13 {
      from {
       stroke: black;
       stroke-dashoffset: 763;
       stroke-width: 128;
       }
       71% {
       animation-timing-function: step-end;
       stroke: black;
       stroke-dashoffset: 0;
       stroke-width: 128;
       }
       to {
       stroke: black;
       stroke-width: 1024;
       }
       }
       #make-me-a-hanzi-animation-13 {
         animation: keyframes13 0.870931s both;
         animation-delay: 10.398437s;
         animation-timing-function: linear;
       }
    @keyframes keyframes14 {
      from {
       stroke: black;
       stroke-dashoffset: 1101;
       stroke-width: 128;
       }
       78% {
       animation-timing-function: step-end;
       stroke: black;
       stroke-dashoffset: 0;
       stroke-width: 128;
       }
       to {
       stroke: black;
       stroke-width: 1024;
       }
       }
       #make-me-a-hanzi-animation-14 {
         animation: keyframes14 1.145996s both;
         animation-delay: 11.269368s;
         animation-timing-function: linear;
       }
</style>
<path d="M 311.5 447.5 L 238.5 433.5 Q 224.5 429.5 188.5 426.5 L 172.5 425.5 Q 148.5 423.5 143.5 424.5 Q 139.5 424.5 136.5 421.5 L 134.5 414.5 Q 132.5 410.5 144.5 404.5 L 162.5 394.5 Q 183.5 380.5 204.5 388.5 L 234.5 398.5 L 304.5 416.5 L 364.5 428.5 L 433.5 439.5 Q 448.5 442.5 460.5 437.5 Q 472.5 432.5 474.5 426.5 Q 484.5 413.5 465.5 315.5 Q 447.5 216.5 443.5 203.5 Q 439.5 189.5 421.5 135.5 Q 404.5 81.5 389.5 70.5 Q 360.5 46.5 337.5 67.5 L 307.5 88.5 Q 302.5 90.5 299.5 88.5 Q 296.5 84.5 300.5 80.5 L 308.5 66.5 Q 333.5 35.5 340.5 8.5 Q 348.5 -19.5 355.5 -26.5 L 362.5 -33.5 Q 366.5 -34.5 370.5 -33.5 Q 389.5 -33.5 418.5 -4.5 Q 448.5 24.5 465.5 62.5 Q 485.5 106.5 500.5 184.5 L 522.5 297.5 L 531.5 354.5 Q 536.5 385.5 546.5 400.5 L 561.5 424.5 Q 566.5 432.5 566.5 435.5 Q 567.5 438.5 558.5 450.5 Q 544.5 464.5 540.5 466.5 L 515.5 482.5 Q 500.5 489.5 492.5 490.5 Q 485.5 490.5 474.5 486.5 L 446.5 476.5 L 374.5 458.5 L 311.5 447.5 Z" fill="lightgray"></path> 
<path d="M 341.5 703.5 L 346.5 682.5 Q 353.5 657.5 346.5 611.5 Q 344.5 583.5 334.5 545.5 Q 321.5 478.5 311.5 447.5 L 304.5 416.5 L 278.5 328.5 Q 272.5 307.5 246.5 248.5 Q 220.5 189.5 202.5 159.5 Q 185.5 128.5 156.5 85.5 Q 127.5 42.5 112.5 26.5 Q 102.5 12.5 84.5 -5.5 L 67.5 -23.5 Q 63.5 -28.5 65.5 -33.5 Q 67.5 -38.5 76.5 -33.5 L 90.5 -25.5 Q 114.5 -9.5 133.5 4.5 Q 152.5 18.5 187.5 60.5 Q 222.5 102.5 230.5 114.5 L 276.5 190.5 Q 286.5 206.5 304.5 252.5 Q 323.5 297.5 338.5 342.5 L 364.5 428.5 L 374.5 458.5 L 390.5 522.5 L 404.5 588.5 Q 409.5 603.5 410.5 613.5 Q 412.5 622.5 418.5 634.5 L 428.5 652.5 Q 432.5 657.5 433.5 662.5 Q 434.5 666.5 426.5 674.5 Q 411.5 699.5 361.5 712.5 Q 346.5 714.5 345.5 710.5 Q 343.5 709.5 341.5 703.5 Z" fill="lightgray"></path> 
<path d="M 652.5 411.5 L 633.5 416.5 Q 631.5 417.5 613.5 419.5 Q 595.5 420.5 591.5 416.5 Q 587.5 411.5 587.5 408.5 Q 588.5 405.5 599.5 391.5 Q 610.5 377.5 616.5 357.5 Q 622.5 336.5 622.5 333.5 L 644.5 104.5 Q 646.5 88.5 655.5 72.5 Q 662.5 56.5 669.5 58.5 Q 677.5 59.5 682.5 62.5 L 688.5 72.5 L 690.5 90.5 L 690.5 130.5 L 680.5 378.5 C 679.5 404.5 679.5 404.5 652.5 411.5 Z" fill="lightgray"></path> 
<path d="M 870.5 136.5 L 904.5 289.5 Q 911.5 314.5 917.5 328.5 L 936.5 374.5 Q 940.5 384.5 952.5 397.5 Q 960.5 409.5 960.5 412.5 Q 960.5 421.5 939.5 437.5 Q 918.5 452.5 913.5 454.5 Q 908.5 456.5 889.5 461.5 Q 871.5 466.5 865.5 464.5 Q 859.5 462.5 848.5 457.5 L 803.5 438.5 L 769.5 431.5 Q 744.5 426.5 740.5 426.5 L 652.5 411.5 C 622.5 406.5 650.5 373.5 680.5 378.5 L 843.5 406.5 Q 860.5 409.5 860.5 397.5 Q 860.5 393.5 859.5 388.5 L 820.5 152.5 C 815.5 122.5 863.5 107.5 870.5 136.5 Z" fill="lightgray"></path> 
<path d="M 893.5 116.5 Q 893.5 122.5 887.5 126.5 Q 872.5 136.5 870.5 136.5 C 843.5 149.5 833.5 154.5 820.5 152.5 L 782.5 145.5 Q 732.5 136.5 711.5 133.5 L 690.5 130.5 C 660.5 126.5 660.5 87.5 690.5 90.5 L 779.5 99.5 Q 785.5 99.5 812.5 103.5 Q 840.5 106.5 866.5 104.5 Q 893.5 102.5 893.5 116.5 Z" fill="lightgray"></path> 
<path d="M 1659.5 579.0 Q 1794.5 609.0 1801.5 613.0 Q 1810.5 620.0 1805.5 630.0 Q 1798.5 642.0 1768.5 649.0 Q 1740.5 655.0 1661.5 628.0 L 1615.5 616.0 Q 1561.5 606.0 1504.5 600.0 Q 1467.5 593.0 1493.5 576.0 Q 1538.5 552.0 1596.5 567.0 Q 1603.5 570.0 1617.5 570.0 L 1659.5 579.0 Z" fill="lightgray"></path> 
<path d="M 1479.5 471.0 Q 1469.5 475.0 1443.5 477.0 Q 1431.5 478.0 1429.5 474.0 Q 1423.5 468.0 1432.5 453.0 Q 1459.5 410.0 1479.5 336.0 Q 1483.5 314.0 1498.5 300.0 Q 1517.5 281.0 1520.5 296.0 Q 1521.5 302.0 1522.5 309.0 L 1519.5 339.0 Q 1515.5 348.0 1498.5 440.0 C 1493.5 467.0 1493.5 467.0 1479.5 471.0 Z" fill="lightgray"></path> 
<path d="M 1795.5 380.0 Q 1820.5 444.0 1847.5 460.0 Q 1863.5 478.0 1849.5 495.0 Q 1777.5 555.0 1727.5 526.0 Q 1690.5 514.0 1658.5 503.0 L 1617.5 494.0 Q 1550.5 481.0 1479.5 471.0 C 1449.5 467.0 1468.5 435.0 1498.5 440.0 Q 1508.5 441.0 1521.5 445.0 Q 1569.5 455.0 1616.5 464.0 L 1658.5 473.0 Q 1742.5 494.0 1756.5 481.0 Q 1763.5 474.0 1762.5 459.0 Q 1755.5 416.0 1744.5 381.0 C 1735.5 352.0 1784.5 352.0 1795.5 380.0 Z" fill="lightgray"></path> 
<path d="M 1657.5 329.0 Q 1721.5 339.0 1810.5 346.0 Q 1820.5 347.0 1821.5 355.0 Q 1821.5 362.0 1795.5 380.0 C 1782.5 389.0 1773.5 387.0 1744.5 381.0 Q 1698.5 371.0 1657.5 362.0 L 1615.5 354.0 Q 1564.5 347.0 1519.5 339.0 C 1489.5 334.0 1492.5 310.0 1522.5 309.0 Q 1532.5 308.0 1542.5 310.0 Q 1561.5 316.0 1588.5 319.0 L 1657.5 329.0 Z" fill="lightgray"></path> 
<path d="M 1613.5 264.0 Q 1609.5 203.0 1594.5 146.0 Q 1585.5 109.0 1608.5 54.0 Q 1614.5 38.0 1622.5 35.0 Q 1628.5 29.0 1634.5 36.0 Q 1641.5 40.0 1650.5 60.0 Q 1659.5 82.0 1658.5 111.0 Q 1657.5 141.0 1657.5 329.0 L 1657.5 362.0 Q 1657.5 413.0 1658.5 473.0 L 1658.5 503.0 Q 1658.5 540.0 1659.5 579.0 L 1661.5 628.0 Q 1664.5 674.0 1674.5 710.0 Q 1681.5 723.0 1679.5 736.0 Q 1673.5 745.0 1622.5 775.0 Q 1601.5 791.0 1582.5 776.0 Q 1578.5 772.0 1583.5 757.0 Q 1613.5 715.0 1614.5 672.0 Q 1614.5 645.0 1615.5 616.0 L 1617.5 570.0 Q 1617.5 533.0 1617.5 494.0 L 1616.5 464.0 Q 1615.5 412.0 1615.5 354.0 L 1613.5 264.0 Z" fill="lightgray"></path> 
<path d="M 1588.5 319.0 Q 1542.5 220.0 1409.5 120.0 Q 1397.5 110.0 1406.5 107.0 Q 1413.5 103.0 1426.5 107.0 Q 1511.5 137.0 1595.5 241.0 Q 1605.5 256.0 1613.5 264.0 C 1668.5 325.0 1604.5 352.0 1588.5 319.0 Z" fill="lightgray"></path> 
<path d="M 1712.5 236.0 Q 1767.5 193.0 1826.5 142.0 Q 1838.5 132.0 1850.5 131.0 Q 1859.5 132.0 1863.5 143.0 Q 1867.5 155.0 1860.5 179.0 Q 1848.5 233.0 1708.5 276.0 Q 1695.5 279.0 1690.5 277.0 Q 1686.5 273.0 1687.5 263.0 Q 1690.5 253.0 1712.5 236.0 Z" fill="lightgray"></path> 
<path d="M 1262.5 639.0 Q 1287.5 617.0 1315.5 591.0 Q 1331.5 576.0 1349.5 578.0 Q 1361.5 579.0 1366.5 594.0 Q 1370.5 612.0 1360.5 645.0 Q 1348.5 676.0 1255.5 693.0 Q 1237.5 697.0 1230.5 693.0 Q 1224.5 689.0 1227.5 674.0 Q 1231.5 661.0 1262.5 639.0 Z" fill="lightgray"></path> 
<path d="M 1324.5 113.0 Q 1337.5 123.0 1342.5 139.0 Q 1354.5 178.0 1310.5 243.0 Q 1279.5 300.0 1344.5 380.0 Q 1347.5 386.0 1353.5 391.0 Q 1374.5 410.0 1354.5 425.0 Q 1335.5 441.0 1299.5 455.0 Q 1277.5 467.0 1259.5 449.0 Q 1229.5 428.0 1191.5 414.0 Q 1139.5 393.0 1122.5 396.0 Q 1115.5 396.0 1113.5 391.0 Q 1112.5 387.0 1119.5 382.0 Q 1156.5 364.0 1249.5 396.0 Q 1259.5 399.0 1269.5 386.0 Q 1290.5 367.0 1271.5 338.0 Q 1226.5 290.0 1277.5 218.0 Q 1302.5 175.0 1303.5 146.0 Q 1304.5 127.0 1300.5 116.0 C 1295.5 87.0 1303.5 91.0 1324.5 113.0 Z" fill="lightgray"></path> 
<path d="M 1300.5 116.0 Q 1252.5 120.0 1206.5 104.0 Q 1172.5 91.0 1121.5 87.0 Q 1114.5 87.0 1111.5 79.0 Q 1108.5 72.0 1117.5 62.0 Q 1133.5 43.0 1158.5 32.0 Q 1170.5 25.0 1188.5 40.0 Q 1254.5 91.0 1322.5 74.0 Q 1386.5 58.0 1515.5 -4.0 Q 1737.5 -115.0 1822.5 -91.0 Q 1885.5 -72.0 1939.5 -35.0 Q 1963.5 -20.0 1939.5 -20.0 Q 1702.5 -20.0 1524.5 43.0 Q 1464.5 64.0 1395.5 93.0 Q 1359.5 109.0 1324.5 113.0 L 1300.5 116.0 Z" fill="lightgray"></path> 
      <clipPath id="make-me-a-hanzi-clip-0">
      <path d="M 311.5 447.5 L 238.5 433.5 Q 224.5 429.5 188.5 426.5 L 172.5 425.5 Q 148.5 423.5 143.5 424.5 Q 139.5 424.5 136.5 421.5 L 134.5 414.5 Q 132.5 410.5 144.5 404.5 L 162.5 394.5 Q 183.5 380.5 204.5 388.5 L 234.5 398.5 L 304.5 416.5 L 364.5 428.5 L 433.5 439.5 Q 448.5 442.5 460.5 437.5 Q 472.5 432.5 474.5 426.5 Q 484.5 413.5 465.5 315.5 Q 447.5 216.5 443.5 203.5 Q 439.5 189.5 421.5 135.5 Q 404.5 81.5 389.5 70.5 Q 360.5 46.5 337.5 67.5 L 307.5 88.5 Q 302.5 90.5 299.5 88.5 Q 296.5 84.5 300.5 80.5 L 308.5 66.5 Q 333.5 35.5 340.5 8.5 Q 348.5 -19.5 355.5 -26.5 L 362.5 -33.5 Q 366.5 -34.5 370.5 -33.5 Q 389.5 -33.5 418.5 -4.5 Q 448.5 24.5 465.5 62.5 Q 485.5 106.5 500.5 184.5 L 522.5 297.5 L 531.5 354.5 Q 536.5 385.5 546.5 400.5 L 561.5 424.5 Q 566.5 432.5 566.5 435.5 Q 567.5 438.5 558.5 450.5 Q 544.5 464.5 540.5 466.5 L 515.5 482.5 Q 500.5 489.5 492.5 490.5 Q 485.5 490.5 474.5 486.5 L 446.5 476.5 L 374.5 458.5 L 311.5 447.5 Z" fill="lightgray"></path>
      </clipPath>
      <path clip-path="url(#make-me-a-hanzi-clip-0)" d="M 143.5 415.5 L 186.5 405.5 L 460.5 459.5 L 490.5 457.5 L 517.5 431.5 L 469.5 180.5 L 446.5 103.5 L 426.5 60.5 L 383.5 19.5 L 342.5 44.5 L 303.5 84.5 " fill="none" id="make-me-a-hanzi-animation-0" stroke-dasharray="1066 2132" stroke-linecap="round"></path>

      <clipPath id="make-me-a-hanzi-clip-1">
      <path d="M 341.5 703.5 L 346.5 682.5 Q 353.5 657.5 346.5 611.5 Q 344.5 583.5 334.5 545.5 Q 321.5 478.5 311.5 447.5 L 304.5 416.5 L 278.5 328.5 Q 272.5 307.5 246.5 248.5 Q 220.5 189.5 202.5 159.5 Q 185.5 128.5 156.5 85.5 Q 127.5 42.5 112.5 26.5 Q 102.5 12.5 84.5 -5.5 L 67.5 -23.5 Q 63.5 -28.5 65.5 -33.5 Q 67.5 -38.5 76.5 -33.5 L 90.5 -25.5 Q 114.5 -9.5 133.5 4.5 Q 152.5 18.5 187.5 60.5 Q 222.5 102.5 230.5 114.5 L 276.5 190.5 Q 286.5 206.5 304.5 252.5 Q 323.5 297.5 338.5 342.5 L 364.5 428.5 L 374.5 458.5 L 390.5 522.5 L 404.5 588.5 Q 409.5 603.5 410.5 613.5 Q 412.5 622.5 418.5 634.5 L 428.5 652.5 Q 432.5 657.5 433.5 662.5 Q 434.5 666.5 426.5 674.5 Q 411.5 699.5 361.5 712.5 Q 346.5 714.5 345.5 710.5 Q 343.5 709.5 341.5 703.5 Z" fill="lightgray"></path>
      </clipPath>
      <path clip-path="url(#make-me-a-hanzi-clip-1)" d="M 353.5 701.5 L 377.5 677.5 L 387.5 657.5 L 345.5 459.5 L 293.5 293.5 L 271.5 237.5 L 209.5 124.5 L 144.5 37.5 L 71.5 -29.5 " fill="none" id="make-me-a-hanzi-animation-1" stroke-dasharray="957 1914" stroke-linecap="round"></path>

      <clipPath id="make-me-a-hanzi-clip-2">
      <path d="M 652.5 411.5 L 633.5 416.5 Q 631.5 417.5 613.5 419.5 Q 595.5 420.5 591.5 416.5 Q 587.5 411.5 587.5 408.5 Q 588.5 405.5 599.5 391.5 Q 610.5 377.5 616.5 357.5 Q 622.5 336.5 622.5 333.5 L 644.5 104.5 Q 646.5 88.5 655.5 72.5 Q 662.5 56.5 669.5 58.5 Q 677.5 59.5 682.5 62.5 L 688.5 72.5 L 690.5 90.5 L 690.5 130.5 L 680.5 378.5 C 679.5 404.5 679.5 404.5 652.5 411.5 Z" fill="lightgray"></path>
      </clipPath>
      <path clip-path="url(#make-me-a-hanzi-clip-2)" d="M 595.5 409.5 L 636.5 385.5 L 648.5 365.5 L 671.5 74.5 " fill="none" id="make-me-a-hanzi-animation-2" stroke-dasharray="491 982" stroke-linecap="round"></path>

      <clipPath id="make-me-a-hanzi-clip-3">
      <path d="M 870.5 136.5 L 904.5 289.5 Q 911.5 314.5 917.5 328.5 L 936.5 374.5 Q 940.5 384.5 952.5 397.5 Q 960.5 409.5 960.5 412.5 Q 960.5 421.5 939.5 437.5 Q 918.5 452.5 913.5 454.5 Q 908.5 456.5 889.5 461.5 Q 871.5 466.5 865.5 464.5 Q 859.5 462.5 848.5 457.5 L 803.5 438.5 L 769.5 431.5 Q 744.5 426.5 740.5 426.5 L 652.5 411.5 C 622.5 406.5 650.5 373.5 680.5 378.5 L 843.5 406.5 Q 860.5 409.5 860.5 397.5 Q 860.5 393.5 859.5 388.5 L 820.5 152.5 C 815.5 122.5 863.5 107.5 870.5 136.5 Z" fill="lightgray"></path>
      </clipPath>
      <path clip-path="url(#make-me-a-hanzi-clip-3)" d="M 660.5 408.5 L 699.5 399.5 L 871.5 433.5 L 904.5 408.5 L 874.5 297.5 L 850.5 171.5 L 866.5 145.5 " fill="none" id="make-me-a-hanzi-animation-3" stroke-dasharray="659 1318" stroke-linecap="round"></path>

      <clipPath id="make-me-a-hanzi-clip-4">
      <path d="M 893.5 116.5 Q 893.5 122.5 887.5 126.5 Q 872.5 136.5 870.5 136.5 C 843.5 149.5 833.5 154.5 820.5 152.5 L 782.5 145.5 Q 732.5 136.5 711.5 133.5 L 690.5 130.5 C 660.5 126.5 660.5 87.5 690.5 90.5 L 779.5 99.5 Q 785.5 99.5 812.5 103.5 Q 840.5 106.5 866.5 104.5 Q 893.5 102.5 893.5 116.5 Z" fill="lightgray"></path>
      </clipPath>
      <path clip-path="url(#make-me-a-hanzi-clip-4)" d="M 697.5 97.5 L 711.5 112.5 L 805.5 126.5 L 882.5 116.5 " fill="none" id="make-me-a-hanzi-animation-4" stroke-dasharray="321 642" stroke-linecap="round"></path>

      <clipPath id="make-me-a-hanzi-clip-5">
      <path d="M 1659.5 579.0 Q 1794.5 609.0 1801.5 613.0 Q 1810.5 620.0 1805.5 630.0 Q 1798.5 642.0 1768.5 649.0 Q 1740.5 655.0 1661.5 628.0 L 1615.5 616.0 Q 1561.5 606.0 1504.5 600.0 Q 1467.5 593.0 1493.5 576.0 Q 1538.5 552.0 1596.5 567.0 Q 1603.5 570.0 1617.5 570.0 L 1659.5 579.0 Z" fill="lightgray"></path>
      </clipPath>
      <path clip-path="url(#make-me-a-hanzi-clip-5)" d="M 1496.5 589.0 L 1518.5 583.0 L 1569.5 585.0 L 1754.5 626.0 L 1796.5 623.0 " fill="none" id="make-me-a-hanzi-animation-5" stroke-dasharray="433 866" stroke-linecap="round"></path>

      <clipPath id="make-me-a-hanzi-clip-6">
      <path d="M 1479.5 471.0 Q 1469.5 475.0 1443.5 477.0 Q 1431.5 478.0 1429.5 474.0 Q 1423.5 468.0 1432.5 453.0 Q 1459.5 410.0 1479.5 336.0 Q 1483.5 314.0 1498.5 300.0 Q 1517.5 281.0 1520.5 296.0 Q 1521.5 302.0 1522.5 309.0 L 1519.5 339.0 Q 1515.5 348.0 1498.5 440.0 C 1493.5 467.0 1493.5 467.0 1479.5 471.0 Z" fill="lightgray"></path>
      </clipPath>
      <path clip-path="url(#make-me-a-hanzi-clip-6)" d="M 1438.5 467.0 L 1461.5 451.0 L 1473.5 432.0 L 1509.5 300.0 " fill="none" id="make-me-a-hanzi-animation-6" stroke-dasharray="315 630" stroke-linecap="round"></path>

      <clipPath id="make-me-a-hanzi-clip-7">
      <path d="M 1795.5 380.0 Q 1820.5 444.0 1847.5 460.0 Q 1863.5 478.0 1849.5 495.0 Q 1777.5 555.0 1727.5 526.0 Q 1690.5 514.0 1658.5 503.0 L 1617.5 494.0 Q 1550.5 481.0 1479.5 471.0 C 1449.5 467.0 1468.5 435.0 1498.5 440.0 Q 1508.5 441.0 1521.5 445.0 Q 1569.5 455.0 1616.5 464.0 L 1658.5 473.0 Q 1742.5 494.0 1756.5 481.0 Q 1763.5 474.0 1762.5 459.0 Q 1755.5 416.0 1744.5 381.0 C 1735.5 352.0 1784.5 352.0 1795.5 380.0 Z" fill="lightgray"></path>
      </clipPath>
      <path clip-path="url(#make-me-a-hanzi-clip-7)" d="M 1487.5 469.0 L 1498.5 461.0 L 1525.5 461.0 L 1666.5 488.0 L 1726.5 506.0 L 1761.5 509.0 L 1781.5 501.0 L 1803.5 477.0 L 1776.5 405.0 L 1750.5 386.0 " fill="none" id="make-me-a-hanzi-animation-7" stroke-dasharray="573 1146" stroke-linecap="round"></path>

      <clipPath id="make-me-a-hanzi-clip-8">
      <path d="M 1657.5 329.0 Q 1721.5 339.0 1810.5 346.0 Q 1820.5 347.0 1821.5 355.0 Q 1821.5 362.0 1795.5 380.0 C 1782.5 389.0 1773.5 387.0 1744.5 381.0 Q 1698.5 371.0 1657.5 362.0 L 1615.5 354.0 Q 1564.5 347.0 1519.5 339.0 C 1489.5 334.0 1492.5 310.0 1522.5 309.0 Q 1532.5 308.0 1542.5 310.0 Q 1561.5 316.0 1588.5 319.0 L 1657.5 329.0 Z" fill="lightgray"></path>
      </clipPath>
      <path clip-path="url(#make-me-a-hanzi-clip-8)" d="M 1527.5 317.0 L 1554.5 330.0 L 1740.5 361.0 L 1788.5 363.0 L 1812.5 354.0 " fill="none" id="make-me-a-hanzi-animation-8" stroke-dasharray="420 840" stroke-linecap="round"></path>

      <clipPath id="make-me-a-hanzi-clip-9">
      <path d="M 1613.5 264.0 Q 1609.5 203.0 1594.5 146.0 Q 1585.5 109.0 1608.5 54.0 Q 1614.5 38.0 1622.5 35.0 Q 1628.5 29.0 1634.5 36.0 Q 1641.5 40.0 1650.5 60.0 Q 1659.5 82.0 1658.5 111.0 Q 1657.5 141.0 1657.5 329.0 L 1657.5 362.0 Q 1657.5 413.0 1658.5 473.0 L 1658.5 503.0 Q 1658.5 540.0 1659.5 579.0 L 1661.5 628.0 Q 1664.5 674.0 1674.5 710.0 Q 1681.5 723.0 1679.5 736.0 Q 1673.5 745.0 1622.5 775.0 Q 1601.5 791.0 1582.5 776.0 Q 1578.5 772.0 1583.5 757.0 Q 1613.5 715.0 1614.5 672.0 Q 1614.5 645.0 1615.5 616.0 L 1617.5 570.0 Q 1617.5 533.0 1617.5 494.0 L 1616.5 464.0 Q 1615.5 412.0 1615.5 354.0 L 1613.5 264.0 Z" fill="lightgray"></path>
      </clipPath>
      <path clip-path="url(#make-me-a-hanzi-clip-9)" d="M 1593.5 769.0 L 1641.5 722.0 L 1637.5 291.0 L 1624.5 125.0 L 1627.5 49.0 " fill="none" id="make-me-a-hanzi-animation-9" stroke-dasharray="869 1738" stroke-linecap="round"></path>

      <clipPath id="make-me-a-hanzi-clip-10">
      <path d="M 1588.5 319.0 Q 1542.5 220.0 1409.5 120.0 Q 1397.5 110.0 1406.5 107.0 Q 1413.5 103.0 1426.5 107.0 Q 1511.5 137.0 1595.5 241.0 Q 1605.5 256.0 1613.5 264.0 C 1668.5 325.0 1604.5 352.0 1588.5 319.0 Z" fill="lightgray"></path>
      </clipPath>
      <path clip-path="url(#make-me-a-hanzi-clip-10)" d="M 1609.5 316.0 L 1582.5 260.0 L 1539.5 208.0 L 1483.5 156.0 L 1412.5 113.0 " fill="none" id="make-me-a-hanzi-animation-10" stroke-dasharray="417 834" stroke-linecap="round"></path>

      <clipPath id="make-me-a-hanzi-clip-11">
      <path d="M 1712.5 236.0 Q 1767.5 193.0 1826.5 142.0 Q 1838.5 132.0 1850.5 131.0 Q 1859.5 132.0 1863.5 143.0 Q 1867.5 155.0 1860.5 179.0 Q 1848.5 233.0 1708.5 276.0 Q 1695.5 279.0 1690.5 277.0 Q 1686.5 273.0 1687.5 263.0 Q 1690.5 253.0 1712.5 236.0 Z" fill="lightgray"></path>
      </clipPath>
      <path clip-path="url(#make-me-a-hanzi-clip-11)" d="M 1694.5 269.0 L 1813.5 194.0 L 1832.5 175.0 L 1848.5 146.0 " fill="none" id="make-me-a-hanzi-animation-11" stroke-dasharray="329 658" stroke-linecap="round"></path>

      <clipPath id="make-me-a-hanzi-clip-12">
      <path d="M 1262.5 639.0 Q 1287.5 617.0 1315.5 591.0 Q 1331.5 576.0 1349.5 578.0 Q 1361.5 579.0 1366.5 594.0 Q 1370.5 612.0 1360.5 645.0 Q 1348.5 676.0 1255.5 693.0 Q 1237.5 697.0 1230.5 693.0 Q 1224.5 689.0 1227.5 674.0 Q 1231.5 661.0 1262.5 639.0 Z" fill="lightgray"></path>
      </clipPath>
      <path clip-path="url(#make-me-a-hanzi-clip-12)" d="M 1237.5 685.0 L 1317.5 638.0 L 1346.5 598.0 " fill="none" id="make-me-a-hanzi-animation-12" stroke-dasharray="270 540" stroke-linecap="round"></path>

      <clipPath id="make-me-a-hanzi-clip-13">
      <path d="M 1324.5 113.0 Q 1337.5 123.0 1342.5 139.0 Q 1354.5 178.0 1310.5 243.0 Q 1279.5 300.0 1344.5 380.0 Q 1347.5 386.0 1353.5 391.0 Q 1374.5 410.0 1354.5 425.0 Q 1335.5 441.0 1299.5 455.0 Q 1277.5 467.0 1259.5 449.0 Q 1229.5 428.0 1191.5 414.0 Q 1139.5 393.0 1122.5 396.0 Q 1115.5 396.0 1113.5 391.0 Q 1112.5 387.0 1119.5 382.0 Q 1156.5 364.0 1249.5 396.0 Q 1259.5 399.0 1269.5 386.0 Q 1290.5 367.0 1271.5 338.0 Q 1226.5 290.0 1277.5 218.0 Q 1302.5 175.0 1303.5 146.0 Q 1304.5 127.0 1300.5 116.0 C 1295.5 87.0 1303.5 91.0 1324.5 113.0 Z" fill="lightgray"></path>
      </clipPath>
      <path clip-path="url(#make-me-a-hanzi-clip-13)" d="M 1120.5 389.0 L 1145.5 386.0 L 1183.5 394.0 L 1268.5 422.0 L 1284.5 422.0 L 1309.5 404.0 L 1299.5 346.0 L 1283.5 319.0 L 1275.5 290.0 L 1281.5 254.0 L 1320.5 178.0 L 1324.5 149.0 L 1319.5 129.0 L 1307.5 121.0 " fill="none" id="make-me-a-hanzi-animation-13" stroke-dasharray="635 1270" stroke-linecap="round"></path>

      <clipPath id="make-me-a-hanzi-clip-14">
      <path d="M 1300.5 116.0 Q 1252.5 120.0 1206.5 104.0 Q 1172.5 91.0 1121.5 87.0 Q 1114.5 87.0 1111.5 79.0 Q 1108.5 72.0 1117.5 62.0 Q 1133.5 43.0 1158.5 32.0 Q 1170.5 25.0 1188.5 40.0 Q 1254.5 91.0 1322.5 74.0 Q 1386.5 58.0 1515.5 -4.0 Q 1737.5 -115.0 1822.5 -91.0 Q 1885.5 -72.0 1939.5 -35.0 Q 1963.5 -20.0 1939.5 -20.0 Q 1702.5 -20.0 1524.5 43.0 Q 1464.5 64.0 1395.5 93.0 Q 1359.5 109.0 1324.5 113.0 L 1300.5 116.0 Z" fill="lightgray"></path>
      </clipPath>
      <path clip-path="url(#make-me-a-hanzi-clip-14)" d="M 1122.5 75.0 L 1166.5 62.0 L 1220.5 86.0 L 1262.5 97.0 L 1328.5 93.0 L 1380.5 78.0 L 1600.5 -12.0 L 1690.5 -39.0 L 1769.5 -53.0 L 1831.5 -52.0 L 1930.5 -27.0 " fill="none" id="make-me-a-hanzi-animation-14" stroke-dasharray="973 1946" stroke-linecap="round"></path>

</g>
</svg>
