<svg version="1.1" viewBox="0 0 2048 1024" xmlns="http://www.w3.org/2000/svg">
  <g stroke="lightgray" stroke-dasharray="1,1" stroke-width="1" transform="scale(4, 4)">
    <line x1="0" y1="0" x2="256" y2="256"></line>
    <line x1="256" y1="0" x2="0" y2="256"></line>
    <line x1="128" y1="0" x2="128" y2="256"></line>
    <line x1="0" y1="128" x2="256" y2="128"></line>
    <line x1="256" y1="0" x2="512" y2="256"></line>
    <line x1="512" y1="0" x2="256" y2="256"></line>
    <line x1="384" y1="0" x2="384" y2="256"></line>
    <line x1="256" y1="128" x2="512" y2="128"></line>
  </g>
<g transform="scale(1, -1) translate(0, -850)">
   <style type="text/css">
    @keyframes keyframes0 {
      from {
       stroke: black;
       stroke-dashoffset: 684;
       stroke-width: 128;
       }
       69% {
       animation-timing-function: step-end;
       stroke: black;
       stroke-dashoffset: 0;
       stroke-width: 128;
       }
       to {
       stroke: black;
       stroke-width: 1024;
       }
       }
       #make-me-a-hanzi-animation-0 {
         animation: keyframes0 0.806641s both;
         animation-delay: 0.000000s;
         animation-timing-function: linear;
       }
    @keyframes keyframes1 {
      from {
       stroke: black;
       stroke-dashoffset: 503;
       stroke-width: 128;
       }
       62% {
       animation-timing-function: step-end;
       stroke: black;
       stroke-dashoffset: 0;
       stroke-width: 128;
       }
       to {
       stroke: black;
       stroke-width: 1024;
       }
       }
       #make-me-a-hanzi-animation-1 {
         animation: keyframes1 0.659342s both;
         animation-delay: 0.806641s;
         animation-timing-function: linear;
       }
    @keyframes keyframes2 {
      from {
       stroke: black;
       stroke-dashoffset: 519;
       stroke-width: 128;
       }
       63% {
       animation-timing-function: step-end;
       stroke: black;
       stroke-dashoffset: 0;
       stroke-width: 128;
       }
       to {
       stroke: black;
       stroke-width: 1024;
       }
       }
       #make-me-a-hanzi-animation-2 {
         animation: keyframes2 0.672363s both;
         animation-delay: 1.465983s;
         animation-timing-function: linear;
       }
    @keyframes keyframes3 {
      from {
       stroke: black;
       stroke-dashoffset: 390;
       stroke-width: 128;
       }
       56% {
       animation-timing-function: step-end;
       stroke: black;
       stroke-dashoffset: 0;
       stroke-width: 128;
       }
       to {
       stroke: black;
       stroke-width: 1024;
       }
       }
       #make-me-a-hanzi-animation-3 {
         animation: keyframes3 0.567383s both;
         animation-delay: 2.138346s;
         animation-timing-function: linear;
       }
    @keyframes keyframes4 {
      from {
       stroke: black;
       stroke-dashoffset: 426;
       stroke-width: 128;
       }
       58% {
       animation-timing-function: step-end;
       stroke: black;
       stroke-dashoffset: 0;
       stroke-width: 128;
       }
       to {
       stroke: black;
       stroke-width: 1024;
       }
       }
       #make-me-a-hanzi-animation-4 {
         animation: keyframes4 0.596680s both;
         animation-delay: 2.705729s;
         animation-timing-function: linear;
       }
    @keyframes keyframes5 {
      from {
       stroke: black;
       stroke-dashoffset: 637;
       stroke-width: 128;
       }
       67% {
       animation-timing-function: step-end;
       stroke: black;
       stroke-dashoffset: 0;
       stroke-width: 128;
       }
       to {
       stroke: black;
       stroke-width: 1024;
       }
       }
       #make-me-a-hanzi-animation-5 {
         animation: keyframes5 0.768392s both;
         animation-delay: 3.302409s;
         animation-timing-function: linear;
       }
    @keyframes keyframes6 {
      from {
       stroke: black;
       stroke-dashoffset: 526;
       stroke-width: 128;
       }
       63% {
       animation-timing-function: step-end;
       stroke: black;
       stroke-dashoffset: 0;
       stroke-width: 128;
       }
       to {
       stroke: black;
       stroke-width: 1024;
       }
       }
       #make-me-a-hanzi-animation-6 {
         animation: keyframes6 0.678060s both;
         animation-delay: 4.070801s;
         animation-timing-function: linear;
       }
    @keyframes keyframes7 {
      from {
       stroke: black;
       stroke-dashoffset: 496;
       stroke-width: 128;
       }
       62% {
       animation-timing-function: step-end;
       stroke: black;
       stroke-dashoffset: 0;
       stroke-width: 128;
       }
       to {
       stroke: black;
       stroke-width: 1024;
       }
       }
       #make-me-a-hanzi-animation-7 {
         animation: keyframes7 0.653646s both;
         animation-delay: 4.748861s;
         animation-timing-function: linear;
       }
    @keyframes keyframes8 {
      from {
       stroke: black;
       stroke-dashoffset: 520;
       stroke-width: 128;
       }
       63% {
       animation-timing-function: step-end;
       stroke: black;
       stroke-dashoffset: 0;
       stroke-width: 128;
       }
       to {
       stroke: black;
       stroke-width: 1024;
       }
       }
       #make-me-a-hanzi-animation-8 {
         animation: keyframes8 0.673177s both;
         animation-delay: 5.402507s;
         animation-timing-function: linear;
       }
    @keyframes keyframes9 {
      from {
       stroke: black;
       stroke-dashoffset: 703;
       stroke-width: 128;
       }
       70% {
       animation-timing-function: step-end;
       stroke: black;
       stroke-dashoffset: 0;
       stroke-width: 128;
       }
       to {
       stroke: black;
       stroke-width: 1024;
       }
       }
       #make-me-a-hanzi-animation-9 {
         animation: keyframes9 0.822103s both;
         animation-delay: 6.075684s;
         animation-timing-function: linear;
       }
    @keyframes keyframes10 {
      from {
       stroke: black;
       stroke-dashoffset: 650;
       stroke-width: 128;
       }
       68% {
       animation-timing-function: step-end;
       stroke: black;
       stroke-dashoffset: 0;
       stroke-width: 128;
       }
       to {
       stroke: black;
       stroke-width: 1024;
       }
       }
       #make-me-a-hanzi-animation-10 {
         animation: keyframes10 0.778971s both;
         animation-delay: 6.897786s;
         animation-timing-function: linear;
       }
    @keyframes keyframes11 {
      from {
       stroke: black;
       stroke-dashoffset: 1072;
       stroke-width: 128;
       }
       78% {
       animation-timing-function: step-end;
       stroke: black;
       stroke-dashoffset: 0;
       stroke-width: 128;
       }
       to {
       stroke: black;
       stroke-width: 1024;
       }
       }
       #make-me-a-hanzi-animation-11 {
         animation: keyframes11 1.122396s both;
         animation-delay: 7.676758s;
         animation-timing-function: linear;
       }
    @keyframes keyframes12 {
      from {
       stroke: black;
       stroke-dashoffset: 1055;
       stroke-width: 128;
       }
       77% {
       animation-timing-function: step-end;
       stroke: black;
       stroke-dashoffset: 0;
       stroke-width: 128;
       }
       to {
       stroke: black;
       stroke-width: 1024;
       }
       }
       #make-me-a-hanzi-animation-12 {
         animation: keyframes12 1.108561s both;
         animation-delay: 8.799154s;
         animation-timing-function: linear;
       }
    @keyframes keyframes13 {
      from {
       stroke: black;
       stroke-dashoffset: 774;
       stroke-width: 128;
       }
       72% {
       animation-timing-function: step-end;
       stroke: black;
       stroke-dashoffset: 0;
       stroke-width: 128;
       }
       to {
       stroke: black;
       stroke-width: 1024;
       }
       }
       #make-me-a-hanzi-animation-13 {
         animation: keyframes13 0.879883s both;
         animation-delay: 9.907715s;
         animation-timing-function: linear;
       }
    @keyframes keyframes14 {
      from {
       stroke: black;
       stroke-dashoffset: 1027;
       stroke-width: 128;
       }
       77% {
       animation-timing-function: step-end;
       stroke: black;
       stroke-dashoffset: 0;
       stroke-width: 128;
       }
       to {
       stroke: black;
       stroke-width: 1024;
       }
       }
       #make-me-a-hanzi-animation-14 {
         animation: keyframes14 1.085775s both;
         animation-delay: 10.787598s;
         animation-timing-function: linear;
       }
    @keyframes keyframes15 {
      from {
       stroke: black;
       stroke-dashoffset: 781;
       stroke-width: 128;
       }
       72% {
       animation-timing-function: step-end;
       stroke: black;
       stroke-dashoffset: 0;
       stroke-width: 128;
       }
       to {
       stroke: black;
       stroke-width: 1024;
       }
       }
       #make-me-a-hanzi-animation-15 {
         animation: keyframes15 0.885579s both;
         animation-delay: 11.873372s;
         animation-timing-function: linear;
       }
    @keyframes keyframes16 {
      from {
       stroke: black;
       stroke-dashoffset: 574;
       stroke-width: 128;
       }
       65% {
       animation-timing-function: step-end;
       stroke: black;
       stroke-dashoffset: 0;
       stroke-width: 128;
       }
       to {
       stroke: black;
       stroke-width: 1024;
       }
       }
       #make-me-a-hanzi-animation-16 {
         animation: keyframes16 0.717122s both;
         animation-delay: 12.758952s;
         animation-timing-function: linear;
       }
    @keyframes keyframes17 {
      from {
       stroke: black;
       stroke-dashoffset: 997;
       stroke-width: 128;
       }
       76% {
       animation-timing-function: step-end;
       stroke: black;
       stroke-dashoffset: 0;
       stroke-width: 128;
       }
       to {
       stroke: black;
       stroke-width: 1024;
       }
       }
       #make-me-a-hanzi-animation-17 {
         animation: keyframes17 1.061361s both;
         animation-delay: 13.476074s;
         animation-timing-function: linear;
       }
    @keyframes keyframes18 {
      from {
       stroke: black;
       stroke-dashoffset: 466;
       stroke-width: 128;
       }
       60% {
       animation-timing-function: step-end;
       stroke: black;
       stroke-dashoffset: 0;
       stroke-width: 128;
       }
       to {
       stroke: black;
       stroke-width: 1024;
       }
       }
       #make-me-a-hanzi-animation-18 {
         animation: keyframes18 0.629232s both;
         animation-delay: 14.537435s;
         animation-timing-function: linear;
       }
    @keyframes keyframes19 {
      from {
       stroke: black;
       stroke-dashoffset: 484;
       stroke-width: 128;
       }
       61% {
       animation-timing-function: step-end;
       stroke: black;
       stroke-dashoffset: 0;
       stroke-width: 128;
       }
       to {
       stroke: black;
       stroke-width: 1024;
       }
       }
       #make-me-a-hanzi-animation-19 {
         animation: keyframes19 0.643880s both;
         animation-delay: 15.166667s;
         animation-timing-function: linear;
       }
    @keyframes keyframes20 {
      from {
       stroke: black;
       stroke-dashoffset: 451;
       stroke-width: 128;
       }
       59% {
       animation-timing-function: step-end;
       stroke: black;
       stroke-dashoffset: 0;
       stroke-width: 128;
       }
       to {
       stroke: black;
       stroke-width: 1024;
       }
       }
       #make-me-a-hanzi-animation-20 {
         animation: keyframes20 0.617025s both;
         animation-delay: 15.810547s;
         animation-timing-function: linear;
       }
</style>
<path d="M 433 624 Q 487 631 535 636 Q 545 635 553 646 Q 554 656 533 666 Q 508 685 445 668 L 399 657 Q 363 653 292 635 L 249 629 Q 153 620 124 616 Q 99 613 118 597 Q 137 581 178 580 Q 212 589 256 595 L 294 602 Q 337 611 391 618 L 433 624 Z" fill="lightgray"></path> 
<path d="M 292 635 Q 292 710 289 713 Q 286 714 286 715 Q 273 724 249 731 Q 231 735 215 726 Q 206 719 219 708 Q 237 690 249 629 L 256 595 Q 256 594 257 589 Q 270 502 278 490 Q 284 481 290 488 Q 291 491 294 497 L 297 523 Q 297 547 294 602 L 292 635 Z" fill="lightgray"></path> 
<path d="M 411 550 Q 421 589 433 624 L 445 668 Q 446 680 477 754 Q 481 761 469 776 Q 445 797 427 803 Q 415 809 408 803 Q 401 799 405 786 Q 415 762 413 748 Q 407 705 399 657 L 391 618 Q 384 584 376 548 C 370 519 403 521 411 550 Z" fill="lightgray"></path> 
<path d="M 349 507 Q 380 514 428 521 Q 437 522 437 530 Q 437 536 411 550 C 404 554 404 554 376 548 Q 375 548 374 548 Q 331 532 297 523 C 268 515 264 497 294 497 Q 298 497 309 497 L 349 507 Z" fill="lightgray"></path> 
<path d="M 205 417 Q 193 421 165 425 Q 153 428 151 423 Q 145 416 154 402 Q 178 362 195 296 Q 199 277 212 264 Q 230 245 234 259 Q 237 268 236 282 L 232 312 Q 222 369 219 389 C 215 414 215 414 205 417 Z" fill="lightgray"></path> 
<path d="M 490 349 Q 512 398 535 411 Q 550 426 538 441 Q 525 453 482 474 Q 467 481 449 474 Q 407 458 368 447 L 326 437 Q 265 425 205 417 C 175 413 190 382 219 389 Q 273 402 327 411 L 367 419 Q 445 440 459 427 Q 465 421 463 409 Q 456 379 448 354 C 439 325 477 322 490 349 Z" fill="lightgray"></path> 
<path d="M 365 304 Q 422 313 501 320 Q 511 321 512 328 Q 512 335 490 349 L 448 354 Q 447 355 445 354 Q 403 345 365 335 L 326 327 Q 277 320 232 312 C 202 307 206 279 236 282 Q 240 282 245 283 Q 276 292 326 298 L 365 304 Z" fill="lightgray"></path> 
<path d="M 362 205 Q 390 214 423 220 Q 454 229 459 233 Q 466 239 462 245 Q 458 254 435 259 Q 414 263 363 244 L 325 233 Q 274 221 221 214 Q 194 210 214 197 Q 238 182 299 193 Q 309 196 324 198 L 362 205 Z" fill="lightgray"></path> 
<path d="M 361 126 Q 463 150 467 153 Q 474 159 470 165 Q 466 174 443 180 Q 416 186 361 162 L 323 152 Q 317 152 314 150 Q 266 140 210 134 Q 182 130 202 117 Q 235 96 278 110 Q 297 114 322 118 L 361 126 Z" fill="lightgray"></path> 
<path d="M 360 68 Q 360 98 361 126 L 361 162 Q 361 184 362 205 L 363 244 Q 363 275 365 304 L 365 335 Q 365 380 367 419 L 368 447 Q 372 484 368 491 Q 358 501 349 507 C 325 525 297 524 309 497 Q 322 472 326 437 L 327 411 Q 327 389 326 327 L 326 298 Q 325 270 325 233 L 324 198 Q 323 177 323 152 L 322 118 Q 322 90 322 58 C 322 28 360 38 360 68 Z" fill="lightgray"></path> 
<path d="M 322 58 Q 249 42 173 23 Q 151 17 117 20 Q 104 19 101 9 Q 98 -4 107 -12 Q 129 -30 161 -50 Q 171 -54 183 -46 Q 229 -16 278 2 Q 354 29 430 57 Q 458 67 480 82 Q 493 89 494 98 Q 490 102 477 101 Q 422 85 360 68 L 322 58 Z" fill="lightgray"></path> 
<path d="M 696 367 Q 739 376 781 380 Q 794 381 796 375 Q 803 359 801 320 Q 791 173 764 96 Q 751 47 734 32 Q 724 20 699 27 Q 674 33 650 39 Q 629 45 644 25 Q 681 -17 702 -50 Q 709 -68 728 -63 Q 746 -60 768 -36 Q 829 34 852 280 Q 856 335 877 369 Q 892 388 884 397 Q 871 413 838 427 Q 816 439 792 428 Q 755 413 703 400 L 648 388 Q 587 378 551 377 Q 535 378 535 370 Q 534 361 552 350 Q 574 335 594 343 Q 616 350 641 354 L 696 367 Z" fill="lightgray"></path> 
<path d="M 641 354 Q 640 351 640 347 Q 591 143 452 -47 Q 446 -54 444 -60 Q 441 -70 452 -69 Q 482 -63 575 62 Q 594 93 613 127 Q 671 247 696 367 L 703 400 Q 718 481 730 568 Q 742 632 743 634 Q 742 635 742 636 Q 726 655 695 670 Q 676 682 663 677 Q 650 670 656 656 Q 675 629 671 562 Q 668 544 667 522 Q 660 452 648 388 L 641 354 Z" fill="lightgray"></path> 
<path d="M 1486 502 L 1563 516 L 1585 519 Q 1636 529 1689 537 Q 1765 552 1777 561 Q 1787 570 1783 579 Q 1776 592 1745 601 Q 1712 610 1680 598 Q 1593 573 1502 552 L 1446 541 Q 1361 529 1268 523 Q 1228 519 1256 499 Q 1302 471 1360 482 Q 1391 488 1426 493 L 1486 502 Z" fill="lightgray"></path> 
<path d="M 1307 263 Q 1371 306 1406 359 Q 1466 452 1486 502 L 1502 552 Q 1503 555 1504 557 Q 1543 684 1567 721 Q 1579 739 1562 751 Q 1519 794 1487 788 Q 1472 785 1477 768 Q 1501 705 1446 541 L 1426 493 Q 1339 301 1154 218 L 1118 197 Q 1103 190 1116 184 Q 1173 180 1283 246 L 1307 263 Z" fill="lightgray"></path> 
<path d="M 1563 516 Q 1564 509 1574 499 Q 1677 375 1790 261 Q 1830 218 1989 240 Q 2007 241 2008 246 Q 2011 253 1997 259 Q 1814 337 1795 349 Q 1699 406 1594 512 Q 1588 516 1585 519 C 1562 538 1548 542 1563 516 Z" fill="lightgray"></path> 
<path d="M 1338 248 Q 1323 258 1307 263 C 1279 273 1268 272 1283 246 Q 1319 189 1330 43 Q 1331 -29 1372 -55 L 1375 -57 Q 1393 -61 1395 -34 L 1395 -3 Q 1394 21 1386 48 Q 1377 153 1373 209 C 1372 227 1364 232 1338 248 Z" fill="lightgray"></path> 
<path d="M 1597 -17 Q 1607 -42 1628 -87 Q 1637 -105 1647 -104 Q 1663 -101 1673 -76 Q 1698 -28 1720 148 Q 1720 197 1750 235 Q 1766 256 1754 270 Q 1732 292 1684 313 Q 1665 323 1631 311 Q 1526 271 1338 248 C 1308 244 1344 203 1373 209 Q 1377 209 1382 210 Q 1422 220 1475 229 L 1518 238 Q 1638 268 1655 252 Q 1676 212 1641 27 Q 1640 11 1632 8 Q 1628 4 1601 22 Q 1592 28 1589 24 C 1578 28 1585 11 1597 -17 Z" fill="lightgray"></path> 
<path d="M 1534 108 Q 1574 112 1608 115 Q 1633 118 1625 132 Q 1615 148 1588 154 Q 1567 158 1536 151 L 1484 139 L 1404 122 Q 1386 118 1407 102 Q 1417 95 1437 97 Q 1461 101 1485 102 L 1534 108 Z" fill="lightgray"></path> 
<path d="M 1529 17 Q 1530 66 1534 108 L 1536 151 Q 1542 220 1530 227 Q 1524 234 1518 238 C 1495 257 1465 257 1475 229 Q 1481 223 1484 139 L 1485 102 Q 1485 65 1487 10 C 1488 -20 1528 -13 1529 17 Z" fill="lightgray"></path> 
<path d="M 1395 -34 Q 1399 -35 1407 -34 Q 1468 -22 1597 -17 C 1627 -16 1618 18 1589 24 Q 1577 28 1557 23 Q 1542 22 1529 17 L 1487 10 Q 1436 4 1395 -3 C 1365 -8 1365 -32 1395 -34 Z" fill="lightgray"></path> 
      <clipPath id="make-me-a-hanzi-clip-0">
      <path d="M 433 624 Q 487 631 535 636 Q 545 635 553 646 Q 554 656 533 666 Q 508 685 445 668 L 399 657 Q 363 653 292 635 L 249 629 Q 153 620 124 616 Q 99 613 118 597 Q 137 581 178 580 Q 212 589 256 595 L 294 602 Q 337 611 391 618 L 433 624 Z" fill="lightgray"></path>
      </clipPath>
      <path clip-path="url(#make-me-a-hanzi-clip-0)" d="M 120 607 L 170 600 L 477 653 L 543 648 " fill="none" id="make-me-a-hanzi-animation-0" stroke-dasharray="556 1112" stroke-linecap="round"></path>

      <clipPath id="make-me-a-hanzi-clip-1">
      <path d="M 292 635 Q 292 710 289 713 Q 286 714 286 715 Q 273 724 249 731 Q 231 735 215 726 Q 206 719 219 708 Q 237 690 249 629 L 256 595 Q 256 594 257 589 Q 270 502 278 490 Q 284 481 290 488 Q 291 491 294 497 L 297 523 Q 297 547 294 602 L 292 635 Z" fill="lightgray"></path>
      </clipPath>
      <path clip-path="url(#make-me-a-hanzi-clip-1)" d="M 222 718 L 241 713 L 263 690 L 285 496 " fill="none" id="make-me-a-hanzi-animation-1" stroke-dasharray="375 750" stroke-linecap="round"></path>

      <clipPath id="make-me-a-hanzi-clip-2">
      <path d="M 411 550 Q 421 589 433 624 L 445 668 Q 446 680 477 754 Q 481 761 469 776 Q 445 797 427 803 Q 415 809 408 803 Q 401 799 405 786 Q 415 762 413 748 Q 407 705 399 657 L 391 618 Q 384 584 376 548 C 370 519 403 521 411 550 Z" fill="lightgray"></path>
      </clipPath>
      <path clip-path="url(#make-me-a-hanzi-clip-2)" d="M 416 793 L 445 753 L 401 578 L 393 561 L 381 554 " fill="none" id="make-me-a-hanzi-animation-2" stroke-dasharray="391 782" stroke-linecap="round"></path>

      <clipPath id="make-me-a-hanzi-clip-3">
      <path d="M 349 507 Q 380 514 428 521 Q 437 522 437 530 Q 437 536 411 550 C 404 554 404 554 376 548 Q 375 548 374 548 Q 331 532 297 523 C 268 515 264 497 294 497 Q 298 497 309 497 L 349 507 Z" fill="lightgray"></path>
      </clipPath>
      <path clip-path="url(#make-me-a-hanzi-clip-3)" d="M 302 503 L 310 512 L 373 530 L 412 534 L 429 529 " fill="none" id="make-me-a-hanzi-animation-3" stroke-dasharray="262 524" stroke-linecap="round"></path>

      <clipPath id="make-me-a-hanzi-clip-4">
      <path d="M 205 417 Q 193 421 165 425 Q 153 428 151 423 Q 145 416 154 402 Q 178 362 195 296 Q 199 277 212 264 Q 230 245 234 259 Q 237 268 236 282 L 232 312 Q 222 369 219 389 C 215 414 215 414 205 417 Z" fill="lightgray"></path>
      </clipPath>
      <path clip-path="url(#make-me-a-hanzi-clip-4)" d="M 159 416 L 187 395 L 194 380 L 224 265 " fill="none" id="make-me-a-hanzi-animation-4" stroke-dasharray="298 596" stroke-linecap="round"></path>

      <clipPath id="make-me-a-hanzi-clip-5">
      <path d="M 490 349 Q 512 398 535 411 Q 550 426 538 441 Q 525 453 482 474 Q 467 481 449 474 Q 407 458 368 447 L 326 437 Q 265 425 205 417 C 175 413 190 382 219 389 Q 273 402 327 411 L 367 419 Q 445 440 459 427 Q 465 421 463 409 Q 456 379 448 354 C 439 325 477 322 490 349 Z" fill="lightgray"></path>
      </clipPath>
      <path clip-path="url(#make-me-a-hanzi-clip-5)" d="M 213 412 L 239 407 L 461 453 L 478 447 L 497 423 L 477 373 L 456 359 " fill="none" id="make-me-a-hanzi-animation-5" stroke-dasharray="509 1018" stroke-linecap="round"></path>

      <clipPath id="make-me-a-hanzi-clip-6">
      <path d="M 365 304 Q 422 313 501 320 Q 511 321 512 328 Q 512 335 490 349 L 448 354 Q 447 355 445 354 Q 403 345 365 335 L 326 327 Q 277 320 232 312 C 202 307 206 279 236 282 Q 240 282 245 283 Q 276 292 326 298 L 365 304 Z" fill="lightgray"></path>
      </clipPath>
      <path clip-path="url(#make-me-a-hanzi-clip-6)" d="M 240 290 L 257 302 L 453 335 L 503 329 " fill="none" id="make-me-a-hanzi-animation-6" stroke-dasharray="398 796" stroke-linecap="round"></path>

      <clipPath id="make-me-a-hanzi-clip-7">
      <path d="M 362 205 Q 390 214 423 220 Q 454 229 459 233 Q 466 239 462 245 Q 458 254 435 259 Q 414 263 363 244 L 325 233 Q 274 221 221 214 Q 194 210 214 197 Q 238 182 299 193 Q 309 196 324 198 L 362 205 Z" fill="lightgray"></path>
      </clipPath>
      <path clip-path="url(#make-me-a-hanzi-clip-7)" d="M 215 206 L 270 204 L 410 238 L 451 241 " fill="none" id="make-me-a-hanzi-animation-7" stroke-dasharray="368 736" stroke-linecap="round"></path>

      <clipPath id="make-me-a-hanzi-clip-8">
      <path d="M 361 126 Q 463 150 467 153 Q 474 159 470 165 Q 466 174 443 180 Q 416 186 361 162 L 323 152 Q 317 152 314 150 Q 266 140 210 134 Q 182 130 202 117 Q 235 96 278 110 Q 297 114 322 118 L 361 126 Z" fill="lightgray"></path>
      </clipPath>
      <path clip-path="url(#make-me-a-hanzi-clip-8)" d="M 204 127 L 213 122 L 251 122 L 371 144 L 428 162 L 462 161 " fill="none" id="make-me-a-hanzi-animation-8" stroke-dasharray="392 784" stroke-linecap="round"></path>

      <clipPath id="make-me-a-hanzi-clip-9">
      <path d="M 360 68 Q 360 98 361 126 L 361 162 Q 361 184 362 205 L 363 244 Q 363 275 365 304 L 365 335 Q 365 380 367 419 L 368 447 Q 372 484 368 491 Q 358 501 349 507 C 325 525 297 524 309 497 Q 322 472 326 437 L 327 411 Q 327 389 326 327 L 326 298 Q 325 270 325 233 L 324 198 Q 323 177 323 152 L 322 118 Q 322 90 322 58 C 322 28 360 38 360 68 Z" fill="lightgray"></path>
      </clipPath>
      <path clip-path="url(#make-me-a-hanzi-clip-9)" d="M 317 493 L 345 476 L 347 459 L 342 90 L 327 66 " fill="none" id="make-me-a-hanzi-animation-9" stroke-dasharray="575 1150" stroke-linecap="round"></path>

      <clipPath id="make-me-a-hanzi-clip-10">
      <path d="M 322 58 Q 249 42 173 23 Q 151 17 117 20 Q 104 19 101 9 Q 98 -4 107 -12 Q 129 -30 161 -50 Q 171 -54 183 -46 Q 229 -16 278 2 Q 354 29 430 57 Q 458 67 480 82 Q 493 89 494 98 Q 490 102 477 101 Q 422 85 360 68 L 322 58 Z" fill="lightgray"></path>
      </clipPath>
      <path clip-path="url(#make-me-a-hanzi-clip-10)" d="M 116 4 L 169 -14 L 489 95 " fill="none" id="make-me-a-hanzi-animation-10" stroke-dasharray="522 1044" stroke-linecap="round"></path>

      <clipPath id="make-me-a-hanzi-clip-11">
      <path d="M 696 367 Q 739 376 781 380 Q 794 381 796 375 Q 803 359 801 320 Q 791 173 764 96 Q 751 47 734 32 Q 724 20 699 27 Q 674 33 650 39 Q 629 45 644 25 Q 681 -17 702 -50 Q 709 -68 728 -63 Q 746 -60 768 -36 Q 829 34 852 280 Q 856 335 877 369 Q 892 388 884 397 Q 871 413 838 427 Q 816 439 792 428 Q 755 413 703 400 L 648 388 Q 587 378 551 377 Q 535 378 535 370 Q 534 361 552 350 Q 574 335 594 343 Q 616 350 641 354 L 696 367 Z" fill="lightgray"></path>
      </clipPath>
      <path clip-path="url(#make-me-a-hanzi-clip-11)" d="M 544 368 L 576 359 L 808 403 L 837 382 L 808 149 L 788 72 L 769 25 L 747 -4 L 729 -16 L 654 29 " fill="none" id="make-me-a-hanzi-animation-11" stroke-dasharray="944 1888" stroke-linecap="round"></path>

      <clipPath id="make-me-a-hanzi-clip-12">
      <path d="M 641 354 Q 640 351 640 347 Q 591 143 452 -47 Q 446 -54 444 -60 Q 441 -70 452 -69 Q 482 -63 575 62 Q 594 93 613 127 Q 671 247 696 367 L 703 400 Q 718 481 730 568 Q 742 632 743 634 Q 742 635 742 636 Q 726 655 695 670 Q 676 682 663 677 Q 650 670 656 656 Q 675 629 671 562 Q 668 544 667 522 Q 660 452 648 388 L 641 354 Z" fill="lightgray"></path>
      </clipPath>
      <path clip-path="url(#make-me-a-hanzi-clip-12)" d="M 669 663 L 705 623 L 687 457 L 650 289 L 607 172 L 552 64 L 503 -5 L 452 -61 " fill="none" id="make-me-a-hanzi-animation-12" stroke-dasharray="927 1854" stroke-linecap="round"></path>

      <clipPath id="make-me-a-hanzi-clip-13">
      <path d="M 1486 502 L 1563 516 L 1585 519 Q 1636 529 1689 537 Q 1765 552 1777 561 Q 1787 570 1783 579 Q 1776 592 1745 601 Q 1712 610 1680 598 Q 1593 573 1502 552 L 1446 541 Q 1361 529 1268 523 Q 1228 519 1256 499 Q 1302 471 1360 482 Q 1391 488 1426 493 L 1486 502 Z" fill="lightgray"></path>
      </clipPath>
      <path clip-path="url(#make-me-a-hanzi-clip-13)" d="M 1259 513 L 1283 505 L 1348 504 L 1505 528 L 1705 573 L 1769 574 " fill="none" id="make-me-a-hanzi-animation-13" stroke-dasharray="646 1292" stroke-linecap="round"></path>

      <clipPath id="make-me-a-hanzi-clip-14">
      <path d="M 1307 263 Q 1371 306 1406 359 Q 1466 452 1486 502 L 1502 552 Q 1503 555 1504 557 Q 1543 684 1567 721 Q 1579 739 1562 751 Q 1519 794 1487 788 Q 1472 785 1477 768 Q 1501 705 1446 541 L 1426 493 Q 1339 301 1154 218 L 1118 197 Q 1103 190 1116 184 Q 1173 180 1283 246 L 1307 263 Z" fill="lightgray"></path>
      </clipPath>
      <path clip-path="url(#make-me-a-hanzi-clip-14)" d="M 1489 775 L 1513 752 L 1525 728 L 1485 575 L 1452 488 L 1411 411 L 1374 357 L 1302 285 L 1216 229 L 1121 190 " fill="none" id="make-me-a-hanzi-animation-14" stroke-dasharray="899 1798" stroke-linecap="round"></path>

      <clipPath id="make-me-a-hanzi-clip-15">
      <path d="M 1563 516 Q 1564 509 1574 499 Q 1677 375 1790 261 Q 1830 218 1989 240 Q 2007 241 2008 246 Q 2011 253 1997 259 Q 1814 337 1795 349 Q 1699 406 1594 512 Q 1588 516 1585 519 C 1562 538 1548 542 1563 516 Z" fill="lightgray"></path>
      </clipPath>
      <path clip-path="url(#make-me-a-hanzi-clip-15)" d="M 1569 514 L 1583 507 L 1729 361 L 1824 287 L 1911 262 L 2002 248 " fill="none" id="make-me-a-hanzi-animation-15" stroke-dasharray="653 1306" stroke-linecap="round"></path>

      <clipPath id="make-me-a-hanzi-clip-16">
      <path d="M 1338 248 Q 1323 258 1307 263 C 1279 273 1268 272 1283 246 Q 1319 189 1330 43 Q 1331 -29 1372 -55 L 1375 -57 Q 1393 -61 1395 -34 L 1395 -3 Q 1394 21 1386 48 Q 1377 153 1373 209 C 1372 227 1364 232 1338 248 Z" fill="lightgray"></path>
      </clipPath>
      <path clip-path="url(#make-me-a-hanzi-clip-16)" d="M 1292 246 L 1320 230 L 1340 195 L 1359 34 L 1380 -47 " fill="none" id="make-me-a-hanzi-animation-16" stroke-dasharray="446 892" stroke-linecap="round"></path>

      <clipPath id="make-me-a-hanzi-clip-17">
      <path d="M 1597 -17 Q 1607 -42 1628 -87 Q 1637 -105 1647 -104 Q 1663 -101 1673 -76 Q 1698 -28 1720 148 Q 1720 197 1750 235 Q 1766 256 1754 270 Q 1732 292 1684 313 Q 1665 323 1631 311 Q 1526 271 1338 248 C 1308 244 1344 203 1373 209 Q 1377 209 1382 210 Q 1422 220 1475 229 L 1518 238 Q 1638 268 1655 252 Q 1676 212 1641 27 Q 1640 11 1632 8 Q 1628 4 1601 22 Q 1592 28 1589 24 C 1578 28 1585 11 1597 -17 Z" fill="lightgray"></path>
      </clipPath>
      <path clip-path="url(#make-me-a-hanzi-clip-17)" d="M 1348 248 L 1358 239 L 1384 232 L 1647 286 L 1665 285 L 1689 269 L 1704 251 L 1684 97 L 1664 -3 L 1647 -30 L 1620 -14 L 1594 18 " fill="none" id="make-me-a-hanzi-animation-17" stroke-dasharray="869 1738" stroke-linecap="round"></path>

      <clipPath id="make-me-a-hanzi-clip-18">
      <path d="M 1534 108 Q 1574 112 1608 115 Q 1633 118 1625 132 Q 1615 148 1588 154 Q 1567 158 1536 151 L 1484 139 L 1404 122 Q 1386 118 1407 102 Q 1417 95 1437 97 Q 1461 101 1485 102 L 1534 108 Z" fill="lightgray"></path>
      </clipPath>
      <path clip-path="url(#make-me-a-hanzi-clip-18)" d="M 1405 112 L 1560 133 L 1590 134 L 1613 127 " fill="none" id="make-me-a-hanzi-animation-18" stroke-dasharray="338 676" stroke-linecap="round"></path>

      <clipPath id="make-me-a-hanzi-clip-19">
      <path d="M 1529 17 Q 1530 66 1534 108 L 1536 151 Q 1542 220 1530 227 Q 1524 234 1518 238 C 1495 257 1465 257 1475 229 Q 1481 223 1484 139 L 1485 102 Q 1485 65 1487 10 C 1488 -20 1528 -13 1529 17 Z" fill="lightgray"></path>
      </clipPath>
      <path clip-path="url(#make-me-a-hanzi-clip-19)" d="M 1482 230 L 1509 207 L 1511 187 L 1508 42 L 1493 19 " fill="none" id="make-me-a-hanzi-animation-19" stroke-dasharray="356 712" stroke-linecap="round"></path>

      <clipPath id="make-me-a-hanzi-clip-20">
      <path d="M 1395 -34 Q 1399 -35 1407 -34 Q 1468 -22 1597 -17 C 1627 -16 1618 18 1589 24 Q 1577 28 1557 23 Q 1542 22 1529 17 L 1487 10 Q 1436 4 1395 -3 C 1365 -8 1365 -32 1395 -34 Z" fill="lightgray"></path>
      </clipPath>
      <path clip-path="url(#make-me-a-hanzi-clip-20)" d="M 1401 -26 L 1419 -15 L 1552 2 L 1571 3 L 1586 -12 " fill="none" id="make-me-a-hanzi-animation-20" stroke-dasharray="323 646" stroke-linecap="round"></path>

</g>
</svg>
