<svg version="1.1" viewBox="0 0 4096 1024" xmlns="http://www.w3.org/2000/svg">
  <g stroke="lightgray" stroke-dasharray="1,1" stroke-width="1" transform="scale(4, 4)">
    <line x1="0" y1="0" x2="256" y2="256"></line>
    <line x1="256" y1="0" x2="0" y2="256"></line>
    <line x1="128" y1="0" x2="128" y2="256"></line>
    <line x1="0" y1="128" x2="256" y2="128"></line>
    <line x1="256" y1="0" x2="512" y2="256"></line>
    <line x1="512" y1="0" x2="256" y2="256"></line>
    <line x1="384" y1="0" x2="384" y2="256"></line>
    <line x1="256" y1="128" x2="512" y2="128"></line>
    <line x1="512" y1="0" x2="768" y2="256"></line>
    <line x1="768" y1="0" x2="512" y2="256"></line>
    <line x1="640" y1="0" x2="640" y2="256"></line>
    <line x1="512" y1="128" x2="768" y2="128"></line>
    <line x1="768" y1="0" x2="1024" y2="256"></line>
    <line x1="1024" y1="0" x2="768" y2="256"></line>
    <line x1="896" y1="0" x2="896" y2="256"></line>
    <line x1="768" y1="128" x2="1024" y2="128"></line>
  </g>
<g transform="scale(1, -1) translate(0, -850)">
   <style type="text/css">
    @keyframes keyframes0 {
      from {
       stroke: black;
       stroke-dashoffset: 657;
       stroke-width: 128;
       }
       68% {
       animation-timing-function: step-end;
       stroke: black;
       stroke-dashoffset: 0;
       stroke-width: 128;
       }
       to {
       stroke: black;
       stroke-width: 1024;
       }
       }
       #make-me-a-hanzi-animation-0 {
         animation: keyframes0 0.784668s both;
         animation-delay: 0.000000s;
         animation-timing-function: linear;
       }
    @keyframes keyframes1 {
      from {
       stroke: black;
       stroke-dashoffset: 1062;
       stroke-width: 128;
       }
       78% {
       animation-timing-function: step-end;
       stroke: black;
       stroke-dashoffset: 0;
       stroke-width: 128;
       }
       to {
       stroke: black;
       stroke-width: 1024;
       }
       }
       #make-me-a-hanzi-animation-1 {
         animation: keyframes1 1.114258s both;
         animation-delay: 0.784668s;
         animation-timing-function: linear;
       }
    @keyframes keyframes2 {
      from {
       stroke: black;
       stroke-dashoffset: 994;
       stroke-width: 128;
       }
       76% {
       animation-timing-function: step-end;
       stroke: black;
       stroke-dashoffset: 0;
       stroke-width: 128;
       }
       to {
       stroke: black;
       stroke-width: 1024;
       }
       }
       #make-me-a-hanzi-animation-2 {
         animation: keyframes2 1.058919s both;
         animation-delay: 1.898926s;
         animation-timing-function: linear;
       }
    @keyframes keyframes3 {
      from {
       stroke: black;
       stroke-dashoffset: 433;
       stroke-width: 128;
       }
       58% {
       animation-timing-function: step-end;
       stroke: black;
       stroke-dashoffset: 0;
       stroke-width: 128;
       }
       to {
       stroke: black;
       stroke-width: 1024;
       }
       }
       #make-me-a-hanzi-animation-3 {
         animation: keyframes3 0.602376s both;
         animation-delay: 2.957845s;
         animation-timing-function: linear;
       }
    @keyframes keyframes4 {
      from {
       stroke: black;
       stroke-dashoffset: 1063;
       stroke-width: 128;
       }
       78% {
       animation-timing-function: step-end;
       stroke: black;
       stroke-dashoffset: 0;
       stroke-width: 128;
       }
       to {
       stroke: black;
       stroke-width: 1024;
       }
       }
       #make-me-a-hanzi-animation-4 {
         animation: keyframes4 1.115072s both;
         animation-delay: 3.560221s;
         animation-timing-function: linear;
       }
    @keyframes keyframes5 {
      from {
       stroke: black;
       stroke-dashoffset: 956;
       stroke-width: 128;
       }
       76% {
       animation-timing-function: step-end;
       stroke: black;
       stroke-dashoffset: 0;
       stroke-width: 128;
       }
       to {
       stroke: black;
       stroke-width: 1024;
       }
       }
       #make-me-a-hanzi-animation-5 {
         animation: keyframes5 1.027995s both;
         animation-delay: 4.675293s;
         animation-timing-function: linear;
       }
    @keyframes keyframes6 {
      from {
       stroke: black;
       stroke-dashoffset: 932;
       stroke-width: 128;
       }
       75% {
       animation-timing-function: step-end;
       stroke: black;
       stroke-dashoffset: 0;
       stroke-width: 128;
       }
       to {
       stroke: black;
       stroke-width: 1024;
       }
       }
       #make-me-a-hanzi-animation-6 {
         animation: keyframes6 1.008464s both;
         animation-delay: 5.703288s;
         animation-timing-function: linear;
       }
    @keyframes keyframes7 {
      from {
       stroke: black;
       stroke-dashoffset: 1049;
       stroke-width: 128;
       }
       77% {
       animation-timing-function: step-end;
       stroke: black;
       stroke-dashoffset: 0;
       stroke-width: 128;
       }
       to {
       stroke: black;
       stroke-width: 1024;
       }
       }
       #make-me-a-hanzi-animation-7 {
         animation: keyframes7 1.103678s both;
         animation-delay: 6.711751s;
         animation-timing-function: linear;
       }
    @keyframes keyframes8 {
      from {
       stroke: black;
       stroke-dashoffset: 501;
       stroke-width: 128;
       }
       62% {
       animation-timing-function: step-end;
       stroke: black;
       stroke-dashoffset: 0;
       stroke-width: 128;
       }
       to {
       stroke: black;
       stroke-width: 1024;
       }
       }
       #make-me-a-hanzi-animation-8 {
         animation: keyframes8 0.657715s both;
         animation-delay: 7.815430s;
         animation-timing-function: linear;
       }
    @keyframes keyframes9 {
      from {
       stroke: black;
       stroke-dashoffset: 711;
       stroke-width: 128;
       }
       70% {
       animation-timing-function: step-end;
       stroke: black;
       stroke-dashoffset: 0;
       stroke-width: 128;
       }
       to {
       stroke: black;
       stroke-width: 1024;
       }
       }
       #make-me-a-hanzi-animation-9 {
         animation: keyframes9 0.828613s both;
         animation-delay: 8.473145s;
         animation-timing-function: linear;
       }
    @keyframes keyframes10 {
      from {
       stroke: black;
       stroke-dashoffset: 1076;
       stroke-width: 128;
       }
       78% {
       animation-timing-function: step-end;
       stroke: black;
       stroke-dashoffset: 0;
       stroke-width: 128;
       }
       to {
       stroke: black;
       stroke-width: 1024;
       }
       }
       #make-me-a-hanzi-animation-10 {
         animation: keyframes10 1.125651s both;
         animation-delay: 9.301758s;
         animation-timing-function: linear;
       }
    @keyframes keyframes11 {
      from {
       stroke: black;
       stroke-dashoffset: 566;
       stroke-width: 128;
       }
       65% {
       animation-timing-function: step-end;
       stroke: black;
       stroke-dashoffset: 0;
       stroke-width: 128;
       }
       to {
       stroke: black;
       stroke-width: 1024;
       }
       }
       #make-me-a-hanzi-animation-11 {
         animation: keyframes11 0.710612s both;
         animation-delay: 10.427409s;
         animation-timing-function: linear;
       }
    @keyframes keyframes12 {
      from {
       stroke: black;
       stroke-dashoffset: 559;
       stroke-width: 128;
       }
       65% {
       animation-timing-function: step-end;
       stroke: black;
       stroke-dashoffset: 0;
       stroke-width: 128;
       }
       to {
       stroke: black;
       stroke-width: 1024;
       }
       }
       #make-me-a-hanzi-animation-12 {
         animation: keyframes12 0.704915s both;
         animation-delay: 11.138021s;
         animation-timing-function: linear;
       }
    @keyframes keyframes13 {
      from {
       stroke: black;
       stroke-dashoffset: 413;
       stroke-width: 128;
       }
       57% {
       animation-timing-function: step-end;
       stroke: black;
       stroke-dashoffset: 0;
       stroke-width: 128;
       }
       to {
       stroke: black;
       stroke-width: 1024;
       }
       }
       #make-me-a-hanzi-animation-13 {
         animation: keyframes13 0.586100s both;
         animation-delay: 11.842936s;
         animation-timing-function: linear;
       }
    @keyframes keyframes14 {
      from {
       stroke: black;
       stroke-dashoffset: 930;
       stroke-width: 128;
       }
       75% {
       animation-timing-function: step-end;
       stroke: black;
       stroke-dashoffset: 0;
       stroke-width: 128;
       }
       to {
       stroke: black;
       stroke-width: 1024;
       }
       }
       #make-me-a-hanzi-animation-14 {
         animation: keyframes14 1.006836s both;
         animation-delay: 12.429036s;
         animation-timing-function: linear;
       }
    @keyframes keyframes15 {
      from {
       stroke: black;
       stroke-dashoffset: 764;
       stroke-width: 128;
       }
       71% {
       animation-timing-function: step-end;
       stroke: black;
       stroke-dashoffset: 0;
       stroke-width: 128;
       }
       to {
       stroke: black;
       stroke-width: 1024;
       }
       }
       #make-me-a-hanzi-animation-15 {
         animation: keyframes15 0.871745s both;
         animation-delay: 13.435872s;
         animation-timing-function: linear;
       }
    @keyframes keyframes16 {
      from {
       stroke: black;
       stroke-dashoffset: 1164;
       stroke-width: 128;
       }
       79% {
       animation-timing-function: step-end;
       stroke: black;
       stroke-dashoffset: 0;
       stroke-width: 128;
       }
       to {
       stroke: black;
       stroke-width: 1024;
       }
       }
       #make-me-a-hanzi-animation-16 {
         animation: keyframes16 1.197266s both;
         animation-delay: 14.307617s;
         animation-timing-function: linear;
       }
</style>
<path d="M 512 539 L 633 574 L 671 580 Q 687 582 687 595 Q 687 600 675 612 L 654 634 Q 638 647 618 659 Q 598 671 591 669 Q 585 666 578 656 Q 571 646 554 634 L 516 608 Q 508 604 474 583 L 416 552 L 359 525 L 301 501 Q 293 497 294 491 Q 295 485 306 487 L 321 488 L 359 495 Q 382 497 441 514 L 483 526 L 512 539 Z" fill="lightgray"></path> 
<path d="M 552 302 L 620 306 Q 659 310 736 307 Q 813 304 832 305 Q 852 306 868 305 Q 884 303 898 305 Q 933 314 914 337 Q 906 346 881 358 Q 857 369 840 374 Q 820 376 812 376 Q 804 376 691 359 L 554 345 L 492 343 L 334 323 L 155 306 L 116 305 Q 102 304 100 298 Q 99 292 114 277 Q 129 262 156 253 Q 183 244 185 245 Q 187 245 204 251 Q 221 256 260 266 L 291 273 Q 304 277 365 287 Q 427 296 490 296 L 552 302 Z" fill="lightgray"></path> 
<path d="M 488 -101 L 490 -144 Q 492 -177 494 -188 L 498 -202 Q 500 -210 507 -209 Q 515 -208 516 -202 L 521 -191 Q 541 -123 544 -32 L 552 302 L 554 345 L 560 461 L 568 482 Q 575 497 573 507 Q 571 516 550 524 L 512 539 C 484 550 477 553 483 526 L 488 502 Q 490 481 491 433 L 492 343 L 490 296 L 489 -22 L 488 -101 Z" fill="lightgray"></path> 
<path d="M 1595 485 L 1600 500 Q 1609 524 1590 570 Q 1585 580 1565 596 Q 1545 612 1526 621 Q 1508 630 1490 634 Q 1473 638 1469 634 Q 1463 626 1498 556 L 1523 512 L 1549 480 C 1568 457 1586 457 1595 485 Z" fill="lightgray"></path> 
<path d="M 1207 440 L 1169 439 Q 1140 436 1137 430 Q 1135 424 1139 418 Q 1145 410 1166 395 Q 1188 379 1201 378 Q 1215 376 1221 377 Q 1228 377 1258 388 Q 1289 399 1334 409 Q 1380 418 1391 419 L 1469 430 L 1508 436 L 1604 446 Q 1630 449 1697 451 L 1757 452 Q 1803 452 1837 453 Q 1871 453 1896 450 L 1925 448 Q 1943 446 1947 450 Q 1951 454 1951 461 Q 1951 467 1946 474 Q 1941 480 1918 496 Q 1896 512 1884 515 Q 1872 517 1830 511 L 1787 504 L 1595 485 L 1549 480 L 1316 452 Q 1255 442 1233 442 Q 1211 442 1207 440 Z" fill="lightgray"></path> 
<path d="M 1526 303 L 1537 295 Q 1554 282 1570 279 L 1635 267 Q 1655 263 1662 255 Q 1669 247 1669 226 Q 1669 205 1648 133 Q 1627 61 1617 38 Q 1580 -50 1549 -50 Q 1541 -51 1519 -42 L 1494 -31 L 1465 -16 Q 1457 -12 1454 -16 Q 1451 -20 1454 -24 L 1485 -69 Q 1488 -74 1494 -80 L 1525 -132 Q 1532 -143 1540 -148 Q 1548 -153 1572 -138 Q 1614 -116 1644 -61 L 1673 2 Q 1689 38 1719 159 Q 1728 190 1742 213 Q 1756 235 1759 244 L 1759 252 Q 1759 263 1731 285 Q 1704 306 1693 306 Q 1683 306 1675 305 L 1636 307 Q 1627 307 1601 311 Q 1575 315 1567 318 L 1539 325 C 1510 332 1502 321 1526 303 Z" fill="lightgray"></path> 
<path d="M 1469 430 L 1477 392 Q 1479 374 1468 338 Q 1460 301 1425 244 Q 1375 156 1273 54 Q 1237 19 1205 -3 L 1145 -45 L 1123 -58 Q 1117 -62 1118 -69 Q 1119 -77 1133 -72 L 1153 -64 Q 1196 -46 1228 -29 Q 1261 -13 1310 27 Q 1360 66 1400 110 Q 1441 154 1481 220 L 1526 303 L 1539 325 L 1549 345 L 1569 377 Q 1576 391 1559 405 Q 1543 418 1533 423 L 1508 436 C 1481 450 1463 459 1469 430 Z" fill="lightgray"></path> 
<path d="M 2552 538 L 2699 543 L 2825 545 Q 2897 545 2905 546 L 2945 548 Q 2970 548 2954 569 Q 2942 580 2931 587 Q 2888 611 2859 609 Q 2828 604 2795 597 Q 2762 589 2657 580 L 2541 571 L 2424 560 L 2316 548 Q 2291 545 2230 542 L 2174 539 Q 2159 538 2156 533 Q 2153 528 2159 520 Q 2164 511 2186 504 L 2206 495 Q 2220 489 2231 489 Q 2242 488 2273 497 Q 2351 518 2499 532 L 2552 538 Z" fill="lightgray"></path> 
<path d="M 2469 338 L 2505 378 Q 2525 398 2535 413 L 2577 475 L 2587 486 Q 2595 492 2596 496 Q 2596 499 2592 505 Q 2590 512 2585 516 L 2552 538 C 2527 555 2501 562 2499 532 L 2498 525 L 2505 507 Q 2506 503 2503 478 Q 2499 453 2476 406 Q 2453 358 2433 332 C 2415 308 2449 316 2469 338 Z" fill="lightgray"></path> 
<path d="M 2361 120 L 2359 81 L 2352 38 Q 2343 -29 2344 -49 Q 2344 -70 2365 -102 Q 2379 -121 2386 -119 Q 2393 -117 2394 -113 Q 2395 -110 2398 -90 L 2401 -70 L 2401 -34 L 2405 115 L 2405 146 L 2412 296 C 2413 326 2413 326 2405 328 L 2376 336 Q 2340 346 2337 334 Q 2334 328 2338 321 L 2348 307 Q 2353 300 2354 290 Q 2361 273 2361 252 L 2361 120 Z" fill="lightgray"></path> 
<path d="M 2677 -52 L 2702 -103 L 2714 -131 Q 2718 -140 2724 -142 Q 2731 -146 2745 -135 Q 2758 -125 2773 -104 Q 2796 -72 2796 -17 L 2787 102 L 2787 244 Q 2787 261 2788 267 L 2789 279 Q 2788 295 2796 310 L 2803 322 Q 2806 331 2805 335 Q 2799 349 2770 367 L 2744 382 Q 2726 392 2720 392 L 2641 371 L 2469 338 L 2433 332 L 2405 328 C 2375 324 2382 293 2412 296 L 2423 296 L 2534 317 Q 2593 327 2632 330 L 2677 332 Q 2699 331 2709 325 Q 2718 315 2720 305 Q 2722 295 2722 274 L 2722 164 L 2722 146 L 2722 118 Q 2722 51 2718 25 L 2711 -17 C 2706 -47 2664 -25 2677 -52 Z" fill="lightgray"></path> 
<path d="M 2405 115 L 2448 112 Q 2459 112 2504 118 L 2623 130 Q 2631 132 2648 133 L 2669 134 Q 2677 133 2700 138 L 2714 144 L 2722 146 C 2749 154 2749 154 2722 164 L 2709 169 Q 2671 180 2661 181 Q 2651 181 2618 175 L 2567 166 L 2405 146 C 2375 142 2375 117 2405 115 Z" fill="lightgray"></path> 
<path d="M 2401 -70 L 2417 -74 Q 2426 -77 2452 -74 L 2510 -66 L 2573 -61 L 2636 -54 L 2677 -52 C 2707 -51 2738 -31 2711 -17 L 2694 -8 Q 2677 4 2615 -9 L 2487 -27 L 2427 -31 L 2401 -34 C 2371 -37 2372 -63 2401 -70 Z" fill="lightgray"></path> 
<path d="M 3272 597 Q 3251 597 3251 593 Q 3251 587 3291 530 Q 3339 469 3371 469 Q 3396 469 3396 497 Q 3396 518 3385 539 Q 3369 570 3333 584 Q 3305 595 3272 597 Z" fill="lightgray"></path> 
<path d="M 3320 344 Q 3313 344 3281 325 Q 3222 290 3188 289 Q 3181 289 3156 293 Q 3148 292 3148 281 Q 3148 274 3169 261 Q 3196 249 3211 249 Q 3222 249 3291 272 Q 3299 272 3299 268 L 3289 82 Q 3285 15 3252 -30 Q 3240 -46 3240 -55 Q 3240 -74 3249 -93 Q 3262 -124 3276 -124 Q 3283 -124 3294 -105 Q 3343 -35 3417 29 Q 3459 68 3459 73 Q 3459 81 3448 81 Q 3441 81 3333 5 L 3350 211 Q 3354 253 3375 278 Q 3396 297 3396 300 Q 3396 315 3368 331 Q 3341 344 3320 344 Z" fill="lightgray"></path> 
<path d="M 3908 365 Q 3878 365 3847 358 Q 3794 349 3744 341 L 3687 332 Q 3637 324 3593 317 Q 3545 311 3492 308 Q 3461 308 3459 293 Q 3461 286 3480 278 Q 3512 262 3543 260 Q 3559 260 3596 267 Q 3637 272 3687 279 L 3744 285 Q 3768 287 3796 290 Q 3869 295 3956 297 Q 3987 297 3987 316 Q 3987 335 3964 350 Q 3938 365 3908 365 Z" fill="lightgray"></path> 
<path d="M 3744 341 L 3744 494 Q 3744 569 3753 600 Q 3761 631 3763 637 Q 3763 659 3716 683 Q 3681 696 3668 696 Q 3647 696 3647 684 Q 3647 682 3658 665 Q 3687 606 3687 518 L 3687 332 L 3687 279 L 3687 -179 Q 3687 -204 3700 -204 Q 3717 -204 3730 -140 Q 3744 -70 3744 -18 L 3744 285 L 3744 341 Z" fill="lightgray"></path> 
      <clipPath id="make-me-a-hanzi-clip-0">
      <path d="M 512 539 L 633 574 L 671 580 Q 687 582 687 595 Q 687 600 675 612 L 654 634 Q 638 647 618 659 Q 598 671 591 669 Q 585 666 578 656 Q 571 646 554 634 L 516 608 Q 508 604 474 583 L 416 552 L 359 525 L 301 501 Q 293 497 294 491 Q 295 485 306 487 L 321 488 L 359 495 Q 382 497 441 514 L 483 526 L 512 539 Z" fill="lightgray"></path>
      </clipPath>
      <path clip-path="url(#make-me-a-hanzi-clip-0)" d="M 675 594 L 603 614 L 426 531 L 301 493 " fill="none" id="make-me-a-hanzi-animation-0" stroke-dasharray="529 1058" stroke-linecap="round"></path>

      <clipPath id="make-me-a-hanzi-clip-1">
      <path d="M 552 302 L 620 306 Q 659 310 736 307 Q 813 304 832 305 Q 852 306 868 305 Q 884 303 898 305 Q 933 314 914 337 Q 906 346 881 358 Q 857 369 840 374 Q 820 376 812 376 Q 804 376 691 359 L 554 345 L 492 343 L 334 323 L 155 306 L 116 305 Q 102 304 100 298 Q 99 292 114 277 Q 129 262 156 253 Q 183 244 185 245 Q 187 245 204 251 Q 221 256 260 266 L 291 273 Q 304 277 365 287 Q 427 296 490 296 L 552 302 Z" fill="lightgray"></path>
      </clipPath>
      <path clip-path="url(#make-me-a-hanzi-clip-1)" d="M 107 296 L 184 277 L 423 315 L 708 336 L 835 340 L 905 324 " fill="none" id="make-me-a-hanzi-animation-1" stroke-dasharray="934 1868" stroke-linecap="round"></path>

      <clipPath id="make-me-a-hanzi-clip-2">
      <path d="M 488 -101 L 490 -144 Q 492 -177 494 -188 L 498 -202 Q 500 -210 507 -209 Q 515 -208 516 -202 L 521 -191 Q 541 -123 544 -32 L 552 302 L 554 345 L 560 461 L 568 482 Q 575 497 573 507 Q 571 516 550 524 L 512 539 C 484 550 477 553 483 526 L 488 502 Q 490 481 491 433 L 492 343 L 490 296 L 489 -22 L 488 -101 Z" fill="lightgray"></path>
      </clipPath>
      <path clip-path="url(#make-me-a-hanzi-clip-2)" d="M 494 522 L 512 511 L 528 489 L 517 -39 L 507 -200 " fill="none" id="make-me-a-hanzi-animation-2" stroke-dasharray="866 1732" stroke-linecap="round"></path>

      <clipPath id="make-me-a-hanzi-clip-3">
      <path d="M 1595 485 L 1600 500 Q 1609 524 1590 570 Q 1585 580 1565 596 Q 1545 612 1526 621 Q 1508 630 1490 634 Q 1473 638 1469 634 Q 1463 626 1498 556 L 1523 512 L 1549 480 C 1568 457 1586 457 1595 485 Z" fill="lightgray"></path>
      </clipPath>
      <path clip-path="url(#make-me-a-hanzi-clip-3)" d="M 1474 631 L 1544 560 L 1565 520 L 1586 496 " fill="none" id="make-me-a-hanzi-animation-3" stroke-dasharray="305 610" stroke-linecap="round"></path>

      <clipPath id="make-me-a-hanzi-clip-4">
      <path d="M 1207 440 L 1169 439 Q 1140 436 1137 430 Q 1135 424 1139 418 Q 1145 410 1166 395 Q 1188 379 1201 378 Q 1215 376 1221 377 Q 1228 377 1258 388 Q 1289 399 1334 409 Q 1380 418 1391 419 L 1469 430 L 1508 436 L 1604 446 Q 1630 449 1697 451 L 1757 452 Q 1803 452 1837 453 Q 1871 453 1896 450 L 1925 448 Q 1943 446 1947 450 Q 1951 454 1951 461 Q 1951 467 1946 474 Q 1941 480 1918 496 Q 1896 512 1884 515 Q 1872 517 1830 511 L 1787 504 L 1595 485 L 1549 480 L 1316 452 Q 1255 442 1233 442 Q 1211 442 1207 440 Z" fill="lightgray"></path>
      </clipPath>
      <path clip-path="url(#make-me-a-hanzi-clip-4)" d="M 1145 425 L 1210 408 L 1497 455 L 1860 484 L 1884 482 L 1940 459 " fill="none" id="make-me-a-hanzi-animation-4" stroke-dasharray="935 1870" stroke-linecap="round"></path>

      <clipPath id="make-me-a-hanzi-clip-5">
      <path d="M 1526 303 L 1537 295 Q 1554 282 1570 279 L 1635 267 Q 1655 263 1662 255 Q 1669 247 1669 226 Q 1669 205 1648 133 Q 1627 61 1617 38 Q 1580 -50 1549 -50 Q 1541 -51 1519 -42 L 1494 -31 L 1465 -16 Q 1457 -12 1454 -16 Q 1451 -20 1454 -24 L 1485 -69 Q 1488 -74 1494 -80 L 1525 -132 Q 1532 -143 1540 -148 Q 1548 -153 1572 -138 Q 1614 -116 1644 -61 L 1673 2 Q 1689 38 1719 159 Q 1728 190 1742 213 Q 1756 235 1759 244 L 1759 252 Q 1759 263 1731 285 Q 1704 306 1693 306 Q 1683 306 1675 305 L 1636 307 Q 1627 307 1601 311 Q 1575 315 1567 318 L 1539 325 C 1510 332 1502 321 1526 303 Z" fill="lightgray"></path>
      </clipPath>
      <path clip-path="url(#make-me-a-hanzi-clip-5)" d="M 1536 305 L 1547 307 L 1580 295 L 1682 277 L 1711 246 L 1651 34 L 1616 -40 L 1592 -73 L 1556 -95 L 1548 -92 L 1460 -20 " fill="none" id="make-me-a-hanzi-animation-5" stroke-dasharray="828 1656" stroke-linecap="round"></path>

      <clipPath id="make-me-a-hanzi-clip-6">
      <path d="M 1469 430 L 1477 392 Q 1479 374 1468 338 Q 1460 301 1425 244 Q 1375 156 1273 54 Q 1237 19 1205 -3 L 1145 -45 L 1123 -58 Q 1117 -62 1118 -69 Q 1119 -77 1133 -72 L 1153 -64 Q 1196 -46 1228 -29 Q 1261 -13 1310 27 Q 1360 66 1400 110 Q 1441 154 1481 220 L 1526 303 L 1539 325 L 1549 345 L 1569 377 Q 1576 391 1559 405 Q 1543 418 1533 423 L 1508 436 C 1481 450 1463 459 1469 430 Z" fill="lightgray"></path>
      </clipPath>
      <path clip-path="url(#make-me-a-hanzi-clip-6)" d="M 1476 425 L 1504 404 L 1520 380 L 1481 283 L 1417 176 L 1375 123 L 1277 27 L 1204 -24 L 1126 -66 " fill="none" id="make-me-a-hanzi-animation-6" stroke-dasharray="804 1608" stroke-linecap="round"></path>

      <clipPath id="make-me-a-hanzi-clip-7">
      <path d="M 2552 538 L 2699 543 L 2825 545 Q 2897 545 2905 546 L 2945 548 Q 2970 548 2954 569 Q 2942 580 2931 587 Q 2888 611 2859 609 Q 2828 604 2795 597 Q 2762 589 2657 580 L 2541 571 L 2424 560 L 2316 548 Q 2291 545 2230 542 L 2174 539 Q 2159 538 2156 533 Q 2153 528 2159 520 Q 2164 511 2186 504 L 2206 495 Q 2220 489 2231 489 Q 2242 488 2273 497 Q 2351 518 2499 532 L 2552 538 Z" fill="lightgray"></path>
      </clipPath>
      <path clip-path="url(#make-me-a-hanzi-clip-7)" d="M 2164 528 L 2228 515 L 2462 547 L 2864 577 L 2910 571 L 2950 558 " fill="none" id="make-me-a-hanzi-animation-7" stroke-dasharray="921 1842" stroke-linecap="round"></path>

      <clipPath id="make-me-a-hanzi-clip-8">
      <path d="M 2469 338 L 2505 378 Q 2525 398 2535 413 L 2577 475 L 2587 486 Q 2595 492 2596 496 Q 2596 499 2592 505 Q 2590 512 2585 516 L 2552 538 C 2527 555 2501 562 2499 532 L 2498 525 L 2505 507 Q 2506 503 2503 478 Q 2499 453 2476 406 Q 2453 358 2433 332 C 2415 308 2449 316 2469 338 Z" fill="lightgray"></path>
      </clipPath>
      <path clip-path="url(#make-me-a-hanzi-clip-8)" d="M 2506 527 L 2544 496 L 2537 475 L 2497 398 L 2461 350 L 2439 335 " fill="none" id="make-me-a-hanzi-animation-8" stroke-dasharray="373 746" stroke-linecap="round"></path>

      <clipPath id="make-me-a-hanzi-clip-9">
      <path d="M 2361 120 L 2359 81 L 2352 38 Q 2343 -29 2344 -49 Q 2344 -70 2365 -102 Q 2379 -121 2386 -119 Q 2393 -117 2394 -113 Q 2395 -110 2398 -90 L 2401 -70 L 2401 -34 L 2405 115 L 2405 146 L 2412 296 C 2413 326 2413 326 2405 328 L 2376 336 Q 2340 346 2337 334 Q 2334 328 2338 321 L 2348 307 Q 2353 300 2354 290 Q 2361 273 2361 252 L 2361 120 Z" fill="lightgray"></path>
      </clipPath>
      <path clip-path="url(#make-me-a-hanzi-clip-9)" d="M 2348 328 L 2376 309 L 2384 290 L 2383 93 L 2372 -45 L 2385 -109 " fill="none" id="make-me-a-hanzi-animation-9" stroke-dasharray="583 1166" stroke-linecap="round"></path>

      <clipPath id="make-me-a-hanzi-clip-10">
      <path d="M 2677 -52 L 2702 -103 L 2714 -131 Q 2718 -140 2724 -142 Q 2731 -146 2745 -135 Q 2758 -125 2773 -104 Q 2796 -72 2796 -17 L 2787 102 L 2787 244 Q 2787 261 2788 267 L 2789 279 Q 2788 295 2796 310 L 2803 322 Q 2806 331 2805 335 Q 2799 349 2770 367 L 2744 382 Q 2726 392 2720 392 L 2641 371 L 2469 338 L 2433 332 L 2405 328 C 2375 324 2382 293 2412 296 L 2423 296 L 2534 317 Q 2593 327 2632 330 L 2677 332 Q 2699 331 2709 325 Q 2718 315 2720 305 Q 2722 295 2722 274 L 2722 164 L 2722 146 L 2722 118 Q 2722 51 2718 25 L 2711 -17 C 2706 -47 2664 -25 2677 -52 Z" fill="lightgray"></path>
      </clipPath>
      <path clip-path="url(#make-me-a-hanzi-clip-10)" d="M 2413 324 L 2423 315 L 2455 318 L 2694 358 L 2722 356 L 2757 325 L 2754 -24 L 2738 -62 L 2729 -128 " fill="none" id="make-me-a-hanzi-animation-10" stroke-dasharray="948 1896" stroke-linecap="round"></path>

      <clipPath id="make-me-a-hanzi-clip-11">
      <path d="M 2405 115 L 2448 112 Q 2459 112 2504 118 L 2623 130 Q 2631 132 2648 133 L 2669 134 Q 2677 133 2700 138 L 2714 144 L 2722 146 C 2749 154 2749 154 2722 164 L 2709 169 Q 2671 180 2661 181 Q 2651 181 2618 175 L 2567 166 L 2405 146 C 2375 142 2375 117 2405 115 Z" fill="lightgray"></path>
      </clipPath>
      <path clip-path="url(#make-me-a-hanzi-clip-11)" d="M 2413 123 L 2422 131 L 2648 157 L 2709 156 L 2717 151 " fill="none" id="make-me-a-hanzi-animation-11" stroke-dasharray="438 876" stroke-linecap="round"></path>

      <clipPath id="make-me-a-hanzi-clip-12">
      <path d="M 2401 -70 L 2417 -74 Q 2426 -77 2452 -74 L 2510 -66 L 2573 -61 L 2636 -54 L 2677 -52 C 2707 -51 2738 -31 2711 -17 L 2694 -8 Q 2677 4 2615 -9 L 2487 -27 L 2427 -31 L 2401 -34 C 2371 -37 2372 -63 2401 -70 Z" fill="lightgray"></path>
      </clipPath>
      <path clip-path="url(#make-me-a-hanzi-clip-12)" d="M 2408 -40 L 2421 -52 L 2442 -53 L 2704 -19 " fill="none" id="make-me-a-hanzi-animation-12" stroke-dasharray="431 862" stroke-linecap="round"></path>

      <clipPath id="make-me-a-hanzi-clip-13">
      <path d="M 3272 597 Q 3251 597 3251 593 Q 3251 587 3291 530 Q 3339 469 3371 469 Q 3396 469 3396 497 Q 3396 518 3385 539 Q 3369 570 3333 584 Q 3305 595 3272 597 Z" fill="lightgray"></path>
      </clipPath>
      <path clip-path="url(#make-me-a-hanzi-clip-13)" d="M 3255 592 L 3332 541 L 3373 491 " fill="none" id="make-me-a-hanzi-animation-13" stroke-dasharray="285 570" stroke-linecap="round"></path>

      <clipPath id="make-me-a-hanzi-clip-14">
      <path d="M 3320 344 Q 3313 344 3281 325 Q 3222 290 3188 289 Q 3181 289 3156 293 Q 3148 292 3148 281 Q 3148 274 3169 261 Q 3196 249 3211 249 Q 3222 249 3291 272 Q 3299 272 3299 268 L 3289 82 Q 3285 15 3252 -30 Q 3240 -46 3240 -55 Q 3240 -74 3249 -93 Q 3262 -124 3276 -124 Q 3283 -124 3294 -105 Q 3343 -35 3417 29 Q 3459 68 3459 73 Q 3459 81 3448 81 Q 3441 81 3333 5 L 3350 211 Q 3354 253 3375 278 Q 3396 297 3396 300 Q 3396 315 3368 331 Q 3341 344 3320 344 Z" fill="lightgray"></path>
      </clipPath>
      <path clip-path="url(#make-me-a-hanzi-clip-14)" d="M 3159 282 L 3184 272 L 3216 271 L 3285 298 L 3324 302 L 3333 297 L 3306 15 L 3345 12 L 3354 -1 L 3339 -17 L 3303 -27 L 3288 -46 L 3279 -59 L 3275 -113 " fill="none" id="make-me-a-hanzi-animation-14" stroke-dasharray="802 1604" stroke-linecap="round"></path>

      <clipPath id="make-me-a-hanzi-clip-15">
      <path d="M 3908 365 Q 3878 365 3847 358 Q 3794 349 3744 341 L 3687 332 Q 3637 324 3593 317 Q 3545 311 3492 308 Q 3461 308 3459 293 Q 3461 286 3480 278 Q 3512 262 3543 260 Q 3559 260 3596 267 Q 3637 272 3687 279 L 3744 285 Q 3768 287 3796 290 Q 3869 295 3956 297 Q 3987 297 3987 316 Q 3987 335 3964 350 Q 3938 365 3908 365 Z" fill="lightgray"></path>
      </clipPath>
      <path clip-path="url(#make-me-a-hanzi-clip-15)" d="M 3467 294 L 3546 286 L 3875 329 L 3932 329 L 3970 316 " fill="none" id="make-me-a-hanzi-animation-15" stroke-dasharray="636 1272" stroke-linecap="round"></path>

      <clipPath id="make-me-a-hanzi-clip-16">
      <path d="M 3744 341 L 3744 494 Q 3744 569 3753 600 Q 3761 631 3763 637 Q 3763 659 3716 683 Q 3681 696 3668 696 Q 3647 696 3647 684 Q 3647 682 3658 665 Q 3687 606 3687 518 L 3687 332 L 3687 279 L 3687 -179 Q 3687 -204 3700 -204 Q 3717 -204 3730 -140 Q 3744 -70 3744 -18 L 3744 285 L 3744 341 Z" fill="lightgray"></path>
      </clipPath>
      <path clip-path="url(#make-me-a-hanzi-clip-16)" d="M 3656 685 L 3697 656 L 3716 631 L 3717 619 L 3716 -37 L 3709 -147 L 3700 -194 " fill="none" id="make-me-a-hanzi-animation-16" stroke-dasharray="1036 2072" stroke-linecap="round"></path>

</g>
</svg>
