<svg version="1.1" viewBox="0 0 2048 1024" xmlns="http://www.w3.org/2000/svg">
  <g stroke="lightgray" stroke-dasharray="1,1" stroke-width="1" transform="scale(4, 4)">
    <line x1="0" y1="0" x2="256" y2="256"></line>
    <line x1="256" y1="0" x2="0" y2="256"></line>
    <line x1="128" y1="0" x2="128" y2="256"></line>
    <line x1="0" y1="128" x2="256" y2="128"></line>
    <line x1="256" y1="0" x2="512" y2="256"></line>
    <line x1="512" y1="0" x2="256" y2="256"></line>
    <line x1="384" y1="0" x2="384" y2="256"></line>
    <line x1="256" y1="128" x2="512" y2="128"></line>
  </g>
<g transform="scale(1, -1) translate(0, -850)">
   <style type="text/css">
    @keyframes keyframes0 {
      from {
       stroke: black;
       stroke-dashoffset: 776;
       stroke-width: 128;
       }
       72% {
       animation-timing-function: step-end;
       stroke: black;
       stroke-dashoffset: 0;
       stroke-width: 128;
       }
       to {
       stroke: black;
       stroke-width: 1024;
       }
       }
       #make-me-a-hanzi-animation-0 {
         animation: keyframes0 0.881510s both;
         animation-delay: 0.000000s;
         animation-timing-function: linear;
       }
    @keyframes keyframes1 {
      from {
       stroke: black;
       stroke-dashoffset: 502;
       stroke-width: 128;
       }
       62% {
       animation-timing-function: step-end;
       stroke: black;
       stroke-dashoffset: 0;
       stroke-width: 128;
       }
       to {
       stroke: black;
       stroke-width: 1024;
       }
       }
       #make-me-a-hanzi-animation-1 {
         animation: keyframes1 0.658529s both;
         animation-delay: 0.881510s;
         animation-timing-function: linear;
       }
    @keyframes keyframes2 {
      from {
       stroke: black;
       stroke-dashoffset: 602;
       stroke-width: 128;
       }
       66% {
       animation-timing-function: step-end;
       stroke: black;
       stroke-dashoffset: 0;
       stroke-width: 128;
       }
       to {
       stroke: black;
       stroke-width: 1024;
       }
       }
       #make-me-a-hanzi-animation-2 {
         animation: keyframes2 0.739909s both;
         animation-delay: 1.540039s;
         animation-timing-function: linear;
       }
    @keyframes keyframes3 {
      from {
       stroke: black;
       stroke-dashoffset: 925;
       stroke-width: 128;
       }
       75% {
       animation-timing-function: step-end;
       stroke: black;
       stroke-dashoffset: 0;
       stroke-width: 128;
       }
       to {
       stroke: black;
       stroke-width: 1024;
       }
       }
       #make-me-a-hanzi-animation-3 {
         animation: keyframes3 1.002767s both;
         animation-delay: 2.279948s;
         animation-timing-function: linear;
       }
    @keyframes keyframes4 {
      from {
       stroke: black;
       stroke-dashoffset: 641;
       stroke-width: 128;
       }
       68% {
       animation-timing-function: step-end;
       stroke: black;
       stroke-dashoffset: 0;
       stroke-width: 128;
       }
       to {
       stroke: black;
       stroke-width: 1024;
       }
       }
       #make-me-a-hanzi-animation-4 {
         animation: keyframes4 0.771647s both;
         animation-delay: 3.282715s;
         animation-timing-function: linear;
       }
    @keyframes keyframes5 {
      from {
       stroke: black;
       stroke-dashoffset: 1144;
       stroke-width: 128;
       }
       79% {
       animation-timing-function: step-end;
       stroke: black;
       stroke-dashoffset: 0;
       stroke-width: 128;
       }
       to {
       stroke: black;
       stroke-width: 1024;
       }
       }
       #make-me-a-hanzi-animation-5 {
         animation: keyframes5 1.180990s both;
         animation-delay: 4.054362s;
         animation-timing-function: linear;
       }
    @keyframes keyframes6 {
      from {
       stroke: black;
       stroke-dashoffset: 585;
       stroke-width: 128;
       }
       66% {
       animation-timing-function: step-end;
       stroke: black;
       stroke-dashoffset: 0;
       stroke-width: 128;
       }
       to {
       stroke: black;
       stroke-width: 1024;
       }
       }
       #make-me-a-hanzi-animation-6 {
         animation: keyframes6 0.726074s both;
         animation-delay: 5.235352s;
         animation-timing-function: linear;
       }
</style>
<path d="M 493 175 L 495 408 L 497 432 L 501 520 Q 500 573 521 612 Q 529 624 531 630 Q 531 636 525 644 Q 519 655 474 674 Q 446 681 436 681 Q 411 682 411 664 Q 411 660 417 651 L 421 641 Q 424 636 427 633 Q 427 629 433 592 Q 439 555 439 508 L 437 168 C 437 138 493 145 493 175 Z" fill="lightgray"></path> 
<path d="M 495 408 L 533 403 Q 548 398 654 414 L 712 422 Q 726 422 742 430 Q 768 444 747 456 Q 717 471 711 471 L 697 475 Q 686 475 677 472 Q 582 445 497 432 C 467 427 465 412 495 408 Z" fill="lightgray"></path> 
<path d="M 235 169 Q 213 164 229 146 Q 245 128 254 106 Q 263 83 269 33 L 287 -119 Q 294 -172 317 -172 L 320 -172 Q 329 -168 333 -158 L 337 -144 L 335 -104 L 315 114 C 312 144 312 149 297 154 L 263 165 Q 252 169 235 169 Z" fill="lightgray"></path> 
<path d="M 705 -92 L 756 54 Q 772 95 782 105 L 796 118 Q 802 133 794 144 Q 786 155 761 172 L 728 195 Q 719 200 703 200 L 655 190 Q 638 189 634 188 Q 630 187 620 186 L 493 175 L 437 168 L 297 154 C 267 151 286 108 315 114 L 347 120 Q 360 120 418 129 Q 476 138 649 147 Q 670 147 674 144 Q 678 140 680 131 Q 680 114 674 76 L 651 -74 C 646 -104 695 -120 705 -92 Z" fill="lightgray"></path> 
<path d="M 337 -144 L 547 -131 L 630 -127 Q 693 -124 706 -124 Q 720 -124 724 -120 Q 733 -118 724 -104 Q 723 -101 705 -92 L 651 -74 L 630 -77 Q 615 -80 512 -88 L 382 -100 Q 349 -104 335 -104 C 305 -105 307 -146 337 -144 Z" fill="lightgray"></path> 
<path d="M 1426 399 L 1431 545 Q 1432 590 1435 600 Q 1439 609 1440 616 Q 1441 623 1446 633 Q 1451 642 1451 646 Q 1452 650 1447 659 Q 1443 667 1434 671 L 1412 682 L 1392 690 Q 1365 693 1360 688 Q 1358 683 1358 679 L 1364 662 Q 1369 650 1371 633 L 1375 598 Q 1376 591 1376 552 L 1366 45 L 1364 -4 L 1358 -50 L 1347 -108 L 1354 -158 Q 1357 -178 1370 -191 Q 1384 -214 1402 -187 Q 1411 -171 1414 -161 L 1424 -132 Q 1429 -119 1423 -23 L 1421 28 L 1426 379 L 1426 399 Z" fill="lightgray"></path> 
<path d="M 1426 379 L 1545 293 L 1643 214 Q 1668 194 1698 194 Q 1709 194 1714 199 Q 1720 203 1722 219 Q 1722 235 1709 262 Q 1697 288 1677 304 Q 1650 329 1555 362 L 1426 399 C 1397 407 1402 397 1426 379 Z" fill="lightgray"></path> 
      <clipPath id="make-me-a-hanzi-clip-0">
      <path d="M 493 175 L 495 408 L 497 432 L 501 520 Q 500 573 521 612 Q 529 624 531 630 Q 531 636 525 644 Q 519 655 474 674 Q 446 681 436 681 Q 411 682 411 664 Q 411 660 417 651 L 421 641 Q 424 636 427 633 Q 427 629 433 592 Q 439 555 439 508 L 437 168 C 437 138 493 145 493 175 Z" fill="lightgray"></path>
      </clipPath>
      <path clip-path="url(#make-me-a-hanzi-clip-0)" d="M 428 664 L 458 645 L 475 623 L 466 407 L 466 200 L 443 176 " fill="none" id="make-me-a-hanzi-animation-0" stroke-dasharray="648 1296" stroke-linecap="round"></path>

      <clipPath id="make-me-a-hanzi-clip-1">
      <path d="M 495 408 L 533 403 Q 548 398 654 414 L 712 422 Q 726 422 742 430 Q 768 444 747 456 Q 717 471 711 471 L 697 475 Q 686 475 677 472 Q 582 445 497 432 C 467 427 465 412 495 408 Z" fill="lightgray"></path>
      </clipPath>
      <path clip-path="url(#make-me-a-hanzi-clip-1)" d="M 502 413 L 510 420 L 577 424 L 676 445 L 743 443 " fill="none" id="make-me-a-hanzi-animation-1" stroke-dasharray="374 748" stroke-linecap="round"></path>

      <clipPath id="make-me-a-hanzi-clip-2">
      <path d="M 235 169 Q 213 164 229 146 Q 245 128 254 106 Q 263 83 269 33 L 287 -119 Q 294 -172 317 -172 L 320 -172 Q 329 -168 333 -158 L 337 -144 L 335 -104 L 315 114 C 312 144 312 149 297 154 L 263 165 Q 252 169 235 169 Z" fill="lightgray"></path>
      </clipPath>
      <path clip-path="url(#make-me-a-hanzi-clip-2)" d="M 234 157 L 272 134 L 287 104 L 319 -162 " fill="none" id="make-me-a-hanzi-animation-2" stroke-dasharray="474 948" stroke-linecap="round"></path>

      <clipPath id="make-me-a-hanzi-clip-3">
      <path d="M 705 -92 L 756 54 Q 772 95 782 105 L 796 118 Q 802 133 794 144 Q 786 155 761 172 L 728 195 Q 719 200 703 200 L 655 190 Q 638 189 634 188 Q 630 187 620 186 L 493 175 L 437 168 L 297 154 C 267 151 286 108 315 114 L 347 120 Q 360 120 418 129 Q 476 138 649 147 Q 670 147 674 144 Q 678 140 680 131 Q 680 114 674 76 L 651 -74 C 646 -104 695 -120 705 -92 Z" fill="lightgray"></path>
      </clipPath>
      <path clip-path="url(#make-me-a-hanzi-clip-3)" d="M 305 150 L 327 137 L 650 169 L 691 168 L 707 162 L 732 124 L 686 -53 L 701 -82 " fill="none" id="make-me-a-hanzi-animation-3" stroke-dasharray="797 1594" stroke-linecap="round"></path>

      <clipPath id="make-me-a-hanzi-clip-4">
      <path d="M 337 -144 L 547 -131 L 630 -127 Q 693 -124 706 -124 Q 720 -124 724 -120 Q 733 -118 724 -104 Q 723 -101 705 -92 L 651 -74 L 630 -77 Q 615 -80 512 -88 L 382 -100 Q 349 -104 335 -104 C 305 -105 307 -146 337 -144 Z" fill="lightgray"></path>
      </clipPath>
      <path clip-path="url(#make-me-a-hanzi-clip-4)" d="M 344 -137 L 355 -123 L 649 -100 L 720 -112 " fill="none" id="make-me-a-hanzi-animation-4" stroke-dasharray="513 1026" stroke-linecap="round"></path>

      <clipPath id="make-me-a-hanzi-clip-5">
      <path d="M 1426 399 L 1431 545 Q 1432 590 1435 600 Q 1439 609 1440 616 Q 1441 623 1446 633 Q 1451 642 1451 646 Q 1452 650 1447 659 Q 1443 667 1434 671 L 1412 682 L 1392 690 Q 1365 693 1360 688 Q 1358 683 1358 679 L 1364 662 Q 1369 650 1371 633 L 1375 598 Q 1376 591 1376 552 L 1366 45 L 1364 -4 L 1358 -50 L 1347 -108 L 1354 -158 Q 1357 -178 1370 -191 Q 1384 -214 1402 -187 Q 1411 -171 1414 -161 L 1424 -132 Q 1429 -119 1423 -23 L 1421 28 L 1426 379 L 1426 399 Z" fill="lightgray"></path>
      </clipPath>
      <path clip-path="url(#make-me-a-hanzi-clip-5)" d="M 1366 682 L 1383 671 L 1408 641 L 1399 417 L 1393 -38 L 1384 -187 " fill="none" id="make-me-a-hanzi-animation-5" stroke-dasharray="1016 2032" stroke-linecap="round"></path>

      <clipPath id="make-me-a-hanzi-clip-6">
      <path d="M 1426 379 L 1545 293 L 1643 214 Q 1668 194 1698 194 Q 1709 194 1714 199 Q 1720 203 1722 219 Q 1722 235 1709 262 Q 1697 288 1677 304 Q 1650 329 1555 362 L 1426 399 C 1397 407 1402 397 1426 379 Z" fill="lightgray"></path>
      </clipPath>
      <path clip-path="url(#make-me-a-hanzi-clip-6)" d="M 1432 394 L 1438 383 L 1554 328 L 1634 280 L 1701 213 " fill="none" id="make-me-a-hanzi-animation-6" stroke-dasharray="457 914" stroke-linecap="round"></path>

</g>
</svg>
