<svg version="1.1" viewBox="0 0 2048 1024" xmlns="http://www.w3.org/2000/svg">
  <g stroke="lightgray" stroke-dasharray="1,1" stroke-width="1" transform="scale(4, 4)">
    <line x1="0" y1="0" x2="256" y2="256"></line>
    <line x1="256" y1="0" x2="0" y2="256"></line>
    <line x1="128" y1="0" x2="128" y2="256"></line>
    <line x1="0" y1="128" x2="256" y2="128"></line>
    <line x1="256" y1="0" x2="512" y2="256"></line>
    <line x1="512" y1="0" x2="256" y2="256"></line>
    <line x1="384" y1="0" x2="384" y2="256"></line>
    <line x1="256" y1="128" x2="512" y2="128"></line>
  </g>
<g transform="scale(1, -1) translate(0, -850)">
   <style type="text/css">
    @keyframes keyframes0 {
      from {
       stroke: black;
       stroke-dashoffset: 621;
       stroke-width: 128;
       }
       67% {
       animation-timing-function: step-end;
       stroke: black;
       stroke-dashoffset: 0;
       stroke-width: 128;
       }
       to {
       stroke: black;
       stroke-width: 1024;
       }
       }
       #make-me-a-hanzi-animation-0 {
         animation: keyframes0 0.755371s both;
         animation-delay: 0.000000s;
         animation-timing-function: linear;
       }
    @keyframes keyframes1 {
      from {
       stroke: black;
       stroke-dashoffset: 995;
       stroke-width: 128;
       }
       76% {
       animation-timing-function: step-end;
       stroke: black;
       stroke-dashoffset: 0;
       stroke-width: 128;
       }
       to {
       stroke: black;
       stroke-width: 1024;
       }
       }
       #make-me-a-hanzi-animation-1 {
         animation: keyframes1 1.059733s both;
         animation-delay: 0.755371s;
         animation-timing-function: linear;
       }
    @keyframes keyframes2 {
      from {
       stroke: black;
       stroke-dashoffset: 1263;
       stroke-width: 128;
       }
       80% {
       animation-timing-function: step-end;
       stroke: black;
       stroke-dashoffset: 0;
       stroke-width: 128;
       }
       to {
       stroke: black;
       stroke-width: 1024;
       }
       }
       #make-me-a-hanzi-animation-2 {
         animation: keyframes2 1.277832s both;
         animation-delay: 1.815104s;
         animation-timing-function: linear;
       }
    @keyframes keyframes3 {
      from {
       stroke: black;
       stroke-dashoffset: 1057;
       stroke-width: 128;
       }
       77% {
       animation-timing-function: step-end;
       stroke: black;
       stroke-dashoffset: 0;
       stroke-width: 128;
       }
       to {
       stroke: black;
       stroke-width: 1024;
       }
       }
       #make-me-a-hanzi-animation-3 {
         animation: keyframes3 1.110189s both;
         animation-delay: 3.092936s;
         animation-timing-function: linear;
       }
    @keyframes keyframes4 {
      from {
       stroke: black;
       stroke-dashoffset: 811;
       stroke-width: 128;
       }
       73% {
       animation-timing-function: step-end;
       stroke: black;
       stroke-dashoffset: 0;
       stroke-width: 128;
       }
       to {
       stroke: black;
       stroke-width: 1024;
       }
       }
       #make-me-a-hanzi-animation-4 {
         animation: keyframes4 0.909993s both;
         animation-delay: 4.203125s;
         animation-timing-function: linear;
       }
    @keyframes keyframes5 {
      from {
       stroke: black;
       stroke-dashoffset: 1194;
       stroke-width: 128;
       }
       80% {
       animation-timing-function: step-end;
       stroke: black;
       stroke-dashoffset: 0;
       stroke-width: 128;
       }
       to {
       stroke: black;
       stroke-width: 1024;
       }
       }
       #make-me-a-hanzi-animation-5 {
         animation: keyframes5 1.221680s both;
         animation-delay: 5.113118s;
         animation-timing-function: linear;
       }
    @keyframes keyframes6 {
      from {
       stroke: black;
       stroke-dashoffset: 579;
       stroke-width: 128;
       }
       65% {
       animation-timing-function: step-end;
       stroke: black;
       stroke-dashoffset: 0;
       stroke-width: 128;
       }
       to {
       stroke: black;
       stroke-width: 1024;
       }
       }
       #make-me-a-hanzi-animation-6 {
         animation: keyframes6 0.721191s both;
         animation-delay: 6.334798s;
         animation-timing-function: linear;
       }
    @keyframes keyframes7 {
      from {
       stroke: black;
       stroke-dashoffset: 666;
       stroke-width: 128;
       }
       68% {
       animation-timing-function: step-end;
       stroke: black;
       stroke-dashoffset: 0;
       stroke-width: 128;
       }
       to {
       stroke: black;
       stroke-width: 1024;
       }
       }
       #make-me-a-hanzi-animation-7 {
         animation: keyframes7 0.791992s both;
         animation-delay: 7.055989s;
         animation-timing-function: linear;
       }
    @keyframes keyframes8 {
      from {
       stroke: black;
       stroke-dashoffset: 545;
       stroke-width: 128;
       }
       64% {
       animation-timing-function: step-end;
       stroke: black;
       stroke-dashoffset: 0;
       stroke-width: 128;
       }
       to {
       stroke: black;
       stroke-width: 1024;
       }
       }
       #make-me-a-hanzi-animation-8 {
         animation: keyframes8 0.693522s both;
         animation-delay: 7.847981s;
         animation-timing-function: linear;
       }
    @keyframes keyframes9 {
      from {
       stroke: black;
       stroke-dashoffset: 713;
       stroke-width: 128;
       }
       70% {
       animation-timing-function: step-end;
       stroke: black;
       stroke-dashoffset: 0;
       stroke-width: 128;
       }
       to {
       stroke: black;
       stroke-width: 1024;
       }
       }
       #make-me-a-hanzi-animation-9 {
         animation: keyframes9 0.830241s both;
         animation-delay: 8.541503s;
         animation-timing-function: linear;
       }
    @keyframes keyframes10 {
      from {
       stroke: black;
       stroke-dashoffset: 808;
       stroke-width: 128;
       }
       72% {
       animation-timing-function: step-end;
       stroke: black;
       stroke-dashoffset: 0;
       stroke-width: 128;
       }
       to {
       stroke: black;
       stroke-width: 1024;
       }
       }
       #make-me-a-hanzi-animation-10 {
         animation: keyframes10 0.907552s both;
         animation-delay: 9.371744s;
         animation-timing-function: linear;
       }
</style>
<path d="M 353.0 565.5 L 393.0 574.5 L 600.0 629.5 Q 623.0 635.5 659.0 643.5 L 684.0 649.5 Q 701.0 653.5 705.0 656.5 Q 709.0 658.5 709.0 666.5 Q 709.0 674.5 694.0 688.5 L 673.0 707.5 Q 666.0 712.5 647.0 723.5 Q 628.0 733.5 616.0 732.5 Q 605.0 731.5 581.0 714.5 Q 558.0 696.5 552.0 692.5 L 510.0 668.5 L 455.0 640.5 L 344.0 591.5 C 317.0 579.5 324.0 558.5 353.0 565.5 Z" fill="lightgray"></path> 
<path d="M 336.0 413.5 L 340.0 510.5 L 343.0 527.5 Q 344.0 546.5 353.0 565.5 C 360.0 584.5 360.0 584.5 344.0 591.5 L 319.0 602.5 Q 269.0 623.5 254.0 616.5 Q 249.0 612.5 247.0 605.5 Q 245.0 598.5 249.0 593.5 L 260.0 576.5 Q 279.0 542.5 268.0 400.5 Q 262.0 311.5 220.0 207.5 Q 198.0 162.5 172.0 119.5 Q 146.0 76.5 84.0 16.5 L 44.0 -17.5 Q 41.0 -20.5 42.0 -25.5 Q 44.0 -31.5 52.0 -26.5 L 72.0 -17.5 Q 166.0 18.5 236.0 119.5 Q 268.0 166.5 285.0 209.5 Q 303.0 250.5 311.0 292.5 Q 322.0 332.5 330.0 376.5 L 336.0 413.5 Z" fill="lightgray"></path> 
<path d="M 523.0 177.5 L 487.0 137.5 Q 473.0 121.5 445.0 100.5 Q 332.0 28.5 274.0 8.5 L 222.0 -9.5 Q 217.0 -11.5 216.0 -15.5 Q 216.0 -20.5 225.0 -20.5 L 245.0 -20.5 Q 303.0 -20.5 371.0 9.5 Q 440.0 38.5 464.0 56.5 Q 494.0 73.5 515.0 93.5 L 558.0 131.5 L 596.0 182.5 L 645.0 263.5 L 674.0 325.5 Q 699.0 373.5 712.0 391.5 L 729.0 413.5 Q 747.0 429.5 726.0 448.5 Q 714.0 458.5 698.0 463.5 Q 683.0 467.5 679.0 469.5 L 664.0 476.5 Q 660.0 477.5 650.0 476.5 Q 641.0 475.5 628.0 468.5 Q 616.0 461.5 603.0 458.5 L 558.0 447.5 Q 519.0 436.5 475.0 430.5 Q 431.0 424.5 424.0 422.5 L 410.0 419.5 Q 401.0 417.5 387.0 417.5 L 366.0 416.5 Q 349.0 415.5 336.0 413.5 C 306.0 410.5 358.0 371.5 388.0 374.5 L 420.0 377.5 L 556.0 408.5 Q 615.0 421.5 620.0 413.5 Q 626.0 407.5 624.0 390.5 Q 622.0 373.5 603.0 322.5 Q 584.0 271.5 553.0 218.5 L 523.0 177.5 Z" fill="lightgray"></path> 
<path d="M 330.0 376.5 L 356.0 359.5 Q 370.0 353.5 391.0 331.5 L 430.0 289.5 Q 460.0 259.5 460.0 258.5 L 523.0 177.5 L 558.0 131.5 L 589.0 97.5 L 637.0 33.5 Q 684.0 -28.5 716.0 -43.5 Q 743.0 -57.5 788.0 -55.5 L 865.0 -50.5 Q 922.0 -44.5 941.0 -41.5 L 966.0 -36.5 Q 975.0 -36.5 980.0 -30.5 Q 983.0 -24.5 971.0 -20.5 L 943.0 -10.5 Q 899.0 5.5 822.0 39.5 Q 684.0 103.5 637.0 145.5 L 596.0 182.5 L 553.0 218.5 L 465.0 305.5 Q 457.0 314.5 428.0 339.5 L 388.0 374.5 C 320.0 434.5 286.0 405.5 330.0 376.5 Z" fill="lightgray"></path> 
<path d="M 1192.0 641.0 Q 1176.0 640.0 1173.0 634.0 Q 1169.0 628.0 1187.0 618.0 Q 1221.0 603.0 1242.0 611.0 Q 1282.0 627.0 1378.0 646.0 Q 1394.0 649.0 1401.0 646.0 Q 1414.0 639.0 1409.0 597.0 Q 1387.0 440.0 1375.0 409.0 Q 1369.0 391.0 1376.0 376.0 Q 1382.0 361.0 1394.0 363.0 Q 1407.0 366.0 1413.0 380.0 Q 1431.0 408.0 1451.0 541.0 Q 1464.0 593.0 1497.0 625.0 Q 1515.0 641.0 1498.0 656.0 Q 1479.0 672.0 1428.0 694.0 Q 1416.0 700.0 1355.0 684.0 Q 1304.0 672.0 1261.0 659.0 Q 1219.0 646.0 1192.0 641.0 Z" fill="lightgray"></path> 
<path d="M 1263.0 269.0 Q 1287.0 294.0 1390.0 313.0 Q 1418.0 316.0 1431.0 305.0 Q 1443.0 293.0 1409.0 131.0 Q 1400.0 82.0 1377.0 51.0 Q 1370.0 39.0 1347.0 40.0 Q 1317.0 49.0 1290.0 55.0 Q 1277.0 59.0 1277.0 53.0 Q 1277.0 49.0 1285.0 41.0 Q 1334.0 -5.0 1351.0 -38.0 Q 1358.0 -57.0 1375.0 -48.0 Q 1432.0 -21.0 1447.0 45.0 Q 1468.0 132.0 1483.0 228.0 Q 1490.0 262.0 1508.0 292.0 Q 1521.0 308.0 1509.0 320.0 Q 1493.0 339.0 1458.0 359.0 Q 1437.0 371.0 1381.0 346.0 Q 1375.0 346.0 1295.0 321.0 Q 1273.0 315.0 1269.0 334.0 Q 1272.0 487.0 1285.0 522.0 Q 1291.0 537.0 1284.0 547.0 Q 1269.0 563.0 1246.0 572.0 Q 1230.0 579.0 1222.0 571.0 Q 1216.0 567.0 1223.0 555.0 Q 1241.0 510.0 1224.0 334.0 Q 1221.0 321.0 1218.0 307.0 Q 1212.0 288.0 1226.0 273.0 Q 1245.0 257.0 1263.0 269.0 Z" fill="lightgray"></path> 
<path d="M 1085.0 141.0 Q 1072.0 138.0 1071.0 128.0 Q 1070.0 115.0 1079.0 108.0 Q 1103.0 93.0 1137.0 77.0 Q 1147.0 74.0 1158.0 84.0 Q 1188.0 111.0 1339.0 192.0 Q 1361.0 204.0 1375.0 217.0 Q 1388.0 224.0 1387.0 234.0 Q 1383.0 240.0 1370.0 236.0 Q 1138.0 142.0 1085.0 141.0 Z" fill="lightgray"></path> 
<path d="M 1745.0 559.0 Q 1772.0 596.0 1806.0 650.0 Q 1824.0 680.0 1824.0 682.0 Q 1823.0 692.0 1809.0 703.0 Q 1775.0 733.0 1744.0 725.0 Q 1735.0 722.0 1738.0 710.0 Q 1747.0 661.0 1696.0 580.0 L 1673.0 542.0 Q 1627.0 479.0 1547.0 402.0 Q 1540.0 396.0 1549.0 394.0 Q 1615.0 406.0 1712.0 517.0 L 1745.0 559.0 Z" fill="lightgray"></path> 
<path d="M 1712.0 517.0 Q 1814.0 451.0 1819.0 451.0 Q 1826.0 451.0 1830.0 460.0 Q 1837.0 473.0 1820.0 505.0 Q 1808.0 532.0 1745.0 559.0 L 1696.0 580.0 Q 1620.0 608.0 1576.0 620.0 Q 1569.0 623.0 1569.0 612.0 Q 1570.0 602.0 1581.0 595.0 Q 1624.0 573.0 1673.0 542.0 L 1712.0 517.0 Z" fill="lightgray"></path> 
<path d="M 1726.0 195.0 Q 1765.0 265.0 1782.0 347.0 Q 1786.0 366.0 1791.0 374.0 Q 1798.0 381.0 1792.0 391.0 Q 1786.0 398.0 1757.0 410.0 Q 1726.0 426.0 1709.0 420.0 Q 1699.0 414.0 1707.0 398.0 Q 1735.0 323.0 1688.0 232.0 L 1662.0 194.0 Q 1617.0 143.0 1499.0 95.0 Q 1474.0 85.0 1503.0 82.0 Q 1585.0 78.0 1678.0 142.0 Q 1684.0 149.0 1692.0 155.0 L 1726.0 195.0 Z" fill="lightgray"></path> 
<path d="M 1692.0 155.0 Q 1734.0 103.0 1801.0 38.0 Q 1829.0 14.0 1872.0 21.0 Q 1927.0 28.0 1969.0 33.0 Q 1982.0 34.0 1995.0 40.0 Q 2002.0 47.0 1991.0 56.0 Q 1978.0 65.0 1860.0 107.0 Q 1791.0 134.0 1726.0 195.0 L 1688.0 232.0 Q 1652.0 271.0 1613.0 320.0 Q 1594.0 342.0 1563.0 349.0 Q 1550.0 352.0 1540.0 345.0 Q 1534.0 338.0 1544.0 329.0 Q 1587.0 296.0 1662.0 194.0 L 1692.0 155.0 Z" fill="lightgray"></path> 
      <clipPath id="make-me-a-hanzi-clip-0">
      <path d="M 353.0 565.5 L 393.0 574.5 L 600.0 629.5 Q 623.0 635.5 659.0 643.5 L 684.0 649.5 Q 701.0 653.5 705.0 656.5 Q 709.0 658.5 709.0 666.5 Q 709.0 674.5 694.0 688.5 L 673.0 707.5 Q 666.0 712.5 647.0 723.5 Q 628.0 733.5 616.0 732.5 Q 605.0 731.5 581.0 714.5 Q 558.0 696.5 552.0 692.5 L 510.0 668.5 L 455.0 640.5 L 344.0 591.5 C 317.0 579.5 324.0 558.5 353.0 565.5 Z" fill="lightgray"></path>
      </clipPath>
      <path clip-path="url(#make-me-a-hanzi-clip-0)" d="M 697.0 665.5 L 621.0 683.5 L 483.0 624.5 L 363.0 583.5 L 358.0 574.5 " fill="none" id="make-me-a-hanzi-animation-0" stroke-dasharray="493 986" stroke-linecap="round"></path>

      <clipPath id="make-me-a-hanzi-clip-1">
      <path d="M 336.0 413.5 L 340.0 510.5 L 343.0 527.5 Q 344.0 546.5 353.0 565.5 C 360.0 584.5 360.0 584.5 344.0 591.5 L 319.0 602.5 Q 269.0 623.5 254.0 616.5 Q 249.0 612.5 247.0 605.5 Q 245.0 598.5 249.0 593.5 L 260.0 576.5 Q 279.0 542.5 268.0 400.5 Q 262.0 311.5 220.0 207.5 Q 198.0 162.5 172.0 119.5 Q 146.0 76.5 84.0 16.5 L 44.0 -17.5 Q 41.0 -20.5 42.0 -25.5 Q 44.0 -31.5 52.0 -26.5 L 72.0 -17.5 Q 166.0 18.5 236.0 119.5 Q 268.0 166.5 285.0 209.5 Q 303.0 250.5 311.0 292.5 Q 322.0 332.5 330.0 376.5 L 336.0 413.5 Z" fill="lightgray"></path>
      </clipPath>
      <path clip-path="url(#make-me-a-hanzi-clip-1)" d="M 261.0 604.5 L 308.0 562.5 L 298.0 375.5 L 269.0 253.5 L 239.0 179.5 L 182.0 89.5 L 110.0 17.5 L 47.0 -22.5 " fill="none" id="make-me-a-hanzi-animation-1" stroke-dasharray="867 1734" stroke-linecap="round"></path>

      <clipPath id="make-me-a-hanzi-clip-2">
      <path d="M 523.0 177.5 L 487.0 137.5 Q 473.0 121.5 445.0 100.5 Q 332.0 28.5 274.0 8.5 L 222.0 -9.5 Q 217.0 -11.5 216.0 -15.5 Q 216.0 -20.5 225.0 -20.5 L 245.0 -20.5 Q 303.0 -20.5 371.0 9.5 Q 440.0 38.5 464.0 56.5 Q 494.0 73.5 515.0 93.5 L 558.0 131.5 L 596.0 182.5 L 645.0 263.5 L 674.0 325.5 Q 699.0 373.5 712.0 391.5 L 729.0 413.5 Q 747.0 429.5 726.0 448.5 Q 714.0 458.5 698.0 463.5 Q 683.0 467.5 679.0 469.5 L 664.0 476.5 Q 660.0 477.5 650.0 476.5 Q 641.0 475.5 628.0 468.5 Q 616.0 461.5 603.0 458.5 L 558.0 447.5 Q 519.0 436.5 475.0 430.5 Q 431.0 424.5 424.0 422.5 L 410.0 419.5 Q 401.0 417.5 387.0 417.5 L 366.0 416.5 Q 349.0 415.5 336.0 413.5 C 306.0 410.5 358.0 371.5 388.0 374.5 L 420.0 377.5 L 556.0 408.5 Q 615.0 421.5 620.0 413.5 Q 626.0 407.5 624.0 390.5 Q 622.0 373.5 603.0 322.5 Q 584.0 271.5 553.0 218.5 L 523.0 177.5 Z" fill="lightgray"></path>
      </clipPath>
      <path clip-path="url(#make-me-a-hanzi-clip-2)" d="M 343.0 412.5 L 394.0 396.5 L 413.0 397.5 L 616.0 439.5 L 650.0 437.5 L 671.0 419.5 L 642.0 332.5 L 593.0 230.5 L 560.0 179.5 L 502.0 115.5 L 430.0 62.5 L 342.0 17.5 L 289.0 -2.5 L 222.0 -15.5 " fill="none" id="make-me-a-hanzi-animation-2" stroke-dasharray="1135 2270" stroke-linecap="round"></path>

      <clipPath id="make-me-a-hanzi-clip-3">
      <path d="M 330.0 376.5 L 356.0 359.5 Q 370.0 353.5 391.0 331.5 L 430.0 289.5 Q 460.0 259.5 460.0 258.5 L 523.0 177.5 L 558.0 131.5 L 589.0 97.5 L 637.0 33.5 Q 684.0 -28.5 716.0 -43.5 Q 743.0 -57.5 788.0 -55.5 L 865.0 -50.5 Q 922.0 -44.5 941.0 -41.5 L 966.0 -36.5 Q 975.0 -36.5 980.0 -30.5 Q 983.0 -24.5 971.0 -20.5 L 943.0 -10.5 Q 899.0 5.5 822.0 39.5 Q 684.0 103.5 637.0 145.5 L 596.0 182.5 L 553.0 218.5 L 465.0 305.5 Q 457.0 314.5 428.0 339.5 L 388.0 374.5 C 320.0 434.5 286.0 405.5 330.0 376.5 Z" fill="lightgray"></path>
      </clipPath>
      <path clip-path="url(#make-me-a-hanzi-clip-3)" d="M 339.0 406.5 L 348.0 383.5 L 413.0 332.5 L 621.0 112.5 L 720.0 24.5 L 779.0 -1.5 L 971.0 -29.5 " fill="none" id="make-me-a-hanzi-animation-3" stroke-dasharray="929 1858" stroke-linecap="round"></path>

      <clipPath id="make-me-a-hanzi-clip-4">
      <path d="M 1192.0 641.0 Q 1176.0 640.0 1173.0 634.0 Q 1169.0 628.0 1187.0 618.0 Q 1221.0 603.0 1242.0 611.0 Q 1282.0 627.0 1378.0 646.0 Q 1394.0 649.0 1401.0 646.0 Q 1414.0 639.0 1409.0 597.0 Q 1387.0 440.0 1375.0 409.0 Q 1369.0 391.0 1376.0 376.0 Q 1382.0 361.0 1394.0 363.0 Q 1407.0 366.0 1413.0 380.0 Q 1431.0 408.0 1451.0 541.0 Q 1464.0 593.0 1497.0 625.0 Q 1515.0 641.0 1498.0 656.0 Q 1479.0 672.0 1428.0 694.0 Q 1416.0 700.0 1355.0 684.0 Q 1304.0 672.0 1261.0 659.0 Q 1219.0 646.0 1192.0 641.0 Z" fill="lightgray"></path>
      </clipPath>
      <path clip-path="url(#make-me-a-hanzi-clip-4)" d="M 1180.0 632.0 L 1232.0 629.0 L 1391.0 671.0 L 1419.0 668.0 L 1440.0 651.0 L 1451.0 637.0 L 1433.0 581.0 L 1409.0 440.0 L 1392.0 379.0 " fill="none" id="make-me-a-hanzi-animation-4" stroke-dasharray="683 1366" stroke-linecap="round"></path>

      <clipPath id="make-me-a-hanzi-clip-5">
      <path d="M 1263.0 269.0 Q 1287.0 294.0 1390.0 313.0 Q 1418.0 316.0 1431.0 305.0 Q 1443.0 293.0 1409.0 131.0 Q 1400.0 82.0 1377.0 51.0 Q 1370.0 39.0 1347.0 40.0 Q 1317.0 49.0 1290.0 55.0 Q 1277.0 59.0 1277.0 53.0 Q 1277.0 49.0 1285.0 41.0 Q 1334.0 -5.0 1351.0 -38.0 Q 1358.0 -57.0 1375.0 -48.0 Q 1432.0 -21.0 1447.0 45.0 Q 1468.0 132.0 1483.0 228.0 Q 1490.0 262.0 1508.0 292.0 Q 1521.0 308.0 1509.0 320.0 Q 1493.0 339.0 1458.0 359.0 Q 1437.0 371.0 1381.0 346.0 Q 1375.0 346.0 1295.0 321.0 Q 1273.0 315.0 1269.0 334.0 Q 1272.0 487.0 1285.0 522.0 Q 1291.0 537.0 1284.0 547.0 Q 1269.0 563.0 1246.0 572.0 Q 1230.0 579.0 1222.0 571.0 Q 1216.0 567.0 1223.0 555.0 Q 1241.0 510.0 1224.0 334.0 Q 1221.0 321.0 1218.0 307.0 Q 1212.0 288.0 1226.0 273.0 Q 1245.0 257.0 1263.0 269.0 Z" fill="lightgray"></path>
      </clipPath>
      <path clip-path="url(#make-me-a-hanzi-clip-5)" d="M 1230.0 563.0 L 1258.0 532.0 L 1247.0 344.0 L 1251.0 302.0 L 1302.0 306.0 L 1311.0 313.0 L 1367.0 326.0 L 1432.0 336.0 L 1449.0 330.0 L 1471.0 304.0 L 1428.0 88.0 L 1402.0 24.0 L 1376.0 1.0 L 1284.0 49.0 " fill="none" id="make-me-a-hanzi-animation-5" stroke-dasharray="1066 2132" stroke-linecap="round"></path>

      <clipPath id="make-me-a-hanzi-clip-6">
      <path d="M 1085.0 141.0 Q 1072.0 138.0 1071.0 128.0 Q 1070.0 115.0 1079.0 108.0 Q 1103.0 93.0 1137.0 77.0 Q 1147.0 74.0 1158.0 84.0 Q 1188.0 111.0 1339.0 192.0 Q 1361.0 204.0 1375.0 217.0 Q 1388.0 224.0 1387.0 234.0 Q 1383.0 240.0 1370.0 236.0 Q 1138.0 142.0 1085.0 141.0 Z" fill="lightgray"></path>
      </clipPath>
      <path clip-path="url(#make-me-a-hanzi-clip-6)" d="M 1086.0 126.0 L 1140.0 115.0 L 1381.0 231.0 " fill="none" id="make-me-a-hanzi-animation-6" stroke-dasharray="451 902" stroke-linecap="round"></path>

      <clipPath id="make-me-a-hanzi-clip-7">
      <path d="M 1745.0 559.0 Q 1772.0 596.0 1806.0 650.0 Q 1824.0 680.0 1824.0 682.0 Q 1823.0 692.0 1809.0 703.0 Q 1775.0 733.0 1744.0 725.0 Q 1735.0 722.0 1738.0 710.0 Q 1747.0 661.0 1696.0 580.0 L 1673.0 542.0 Q 1627.0 479.0 1547.0 402.0 Q 1540.0 396.0 1549.0 394.0 Q 1615.0 406.0 1712.0 517.0 L 1745.0 559.0 Z" fill="lightgray"></path>
      </clipPath>
      <path clip-path="url(#make-me-a-hanzi-clip-7)" d="M 1748.0 715.0 L 1767.0 698.0 L 1776.0 675.0 L 1742.0 603.0 L 1675.0 507.0 L 1625.0 454.0 L 1553.0 399.0 " fill="none" id="make-me-a-hanzi-animation-7" stroke-dasharray="538 1076" stroke-linecap="round"></path>

      <clipPath id="make-me-a-hanzi-clip-8">
      <path d="M 1712.0 517.0 Q 1814.0 451.0 1819.0 451.0 Q 1826.0 451.0 1830.0 460.0 Q 1837.0 473.0 1820.0 505.0 Q 1808.0 532.0 1745.0 559.0 L 1696.0 580.0 Q 1620.0 608.0 1576.0 620.0 Q 1569.0 623.0 1569.0 612.0 Q 1570.0 602.0 1581.0 595.0 Q 1624.0 573.0 1673.0 542.0 L 1712.0 517.0 Z" fill="lightgray"></path>
      </clipPath>
      <path clip-path="url(#make-me-a-hanzi-clip-8)" d="M 1579.0 610.0 L 1680.0 564.0 L 1773.0 513.0 L 1805.0 486.0 L 1821.0 460.0 " fill="none" id="make-me-a-hanzi-animation-8" stroke-dasharray="417 834" stroke-linecap="round"></path>

      <clipPath id="make-me-a-hanzi-clip-9">
      <path d="M 1726.0 195.0 Q 1765.0 265.0 1782.0 347.0 Q 1786.0 366.0 1791.0 374.0 Q 1798.0 381.0 1792.0 391.0 Q 1786.0 398.0 1757.0 410.0 Q 1726.0 426.0 1709.0 420.0 Q 1699.0 414.0 1707.0 398.0 Q 1735.0 323.0 1688.0 232.0 L 1662.0 194.0 Q 1617.0 143.0 1499.0 95.0 Q 1474.0 85.0 1503.0 82.0 Q 1585.0 78.0 1678.0 142.0 Q 1684.0 149.0 1692.0 155.0 L 1726.0 195.0 Z" fill="lightgray"></path>
      </clipPath>
      <path clip-path="url(#make-me-a-hanzi-clip-9)" d="M 1716.0 410.0 L 1751.0 374.0 L 1751.0 364.0 L 1739.0 290.0 L 1705.0 211.0 L 1673.0 170.0 L 1616.0 129.0 L 1562.0 104.0 L 1510.0 91.0 " fill="none" id="make-me-a-hanzi-animation-9" stroke-dasharray="585 1170" stroke-linecap="round"></path>

      <clipPath id="make-me-a-hanzi-clip-10">
      <path d="M 1692.0 155.0 Q 1734.0 103.0 1801.0 38.0 Q 1829.0 14.0 1872.0 21.0 Q 1927.0 28.0 1969.0 33.0 Q 1982.0 34.0 1995.0 40.0 Q 2002.0 47.0 1991.0 56.0 Q 1978.0 65.0 1860.0 107.0 Q 1791.0 134.0 1726.0 195.0 L 1688.0 232.0 Q 1652.0 271.0 1613.0 320.0 Q 1594.0 342.0 1563.0 349.0 Q 1550.0 352.0 1540.0 345.0 Q 1534.0 338.0 1544.0 329.0 Q 1587.0 296.0 1662.0 194.0 L 1692.0 155.0 Z" fill="lightgray"></path>
      </clipPath>
      <path clip-path="url(#make-me-a-hanzi-clip-10)" d="M 1549.0 339.0 L 1577.0 325.0 L 1603.0 302.0 L 1708.0 175.0 L 1824.0 75.0 L 1843.0 65.0 L 1988.0 47.0 " fill="none" id="make-me-a-hanzi-animation-10" stroke-dasharray="680 1360" stroke-linecap="round"></path>

</g>
</svg>
