<svg version="1.1" viewBox="0 0 2048 1024" xmlns="http://www.w3.org/2000/svg">
  <g stroke="lightgray" stroke-dasharray="1,1" stroke-width="1" transform="scale(4, 4)">
    <line x1="0" y1="0" x2="256" y2="256"></line>
    <line x1="256" y1="0" x2="0" y2="256"></line>
    <line x1="128" y1="0" x2="128" y2="256"></line>
    <line x1="0" y1="128" x2="256" y2="128"></line>
    <line x1="256" y1="0" x2="512" y2="256"></line>
    <line x1="512" y1="0" x2="256" y2="256"></line>
    <line x1="384" y1="0" x2="384" y2="256"></line>
    <line x1="256" y1="128" x2="512" y2="128"></line>
  </g>
<g transform="scale(1, -1) translate(0, -850)">
   <style type="text/css">
    @keyframes keyframes0 {
      from {
       stroke: black;
       stroke-dashoffset: 1018;
       stroke-width: 128;
       }
       77% {
       animation-timing-function: step-end;
       stroke: black;
       stroke-dashoffset: 0;
       stroke-width: 128;
       }
       to {
       stroke: black;
       stroke-width: 1024;
       }
       }
       #make-me-a-hanzi-animation-0 {
         animation: keyframes0 1.078451s both;
         animation-delay: 0.000000s;
         animation-timing-function: linear;
       }
    @keyframes keyframes1 {
      from {
       stroke: black;
       stroke-dashoffset: 1170;
       stroke-width: 128;
       }
       79% {
       animation-timing-function: step-end;
       stroke: black;
       stroke-dashoffset: 0;
       stroke-width: 128;
       }
       to {
       stroke: black;
       stroke-width: 1024;
       }
       }
       #make-me-a-hanzi-animation-1 {
         animation: keyframes1 1.202148s both;
         animation-delay: 1.078451s;
         animation-timing-function: linear;
       }
    @keyframes keyframes2 {
      from {
       stroke: black;
       stroke-dashoffset: 1077;
       stroke-width: 128;
       }
       78% {
       animation-timing-function: step-end;
       stroke: black;
       stroke-dashoffset: 0;
       stroke-width: 128;
       }
       to {
       stroke: black;
       stroke-width: 1024;
       }
       }
       #make-me-a-hanzi-animation-2 {
         animation: keyframes2 1.126465s both;
         animation-delay: 2.280599s;
         animation-timing-function: linear;
       }
    @keyframes keyframes3 {
      from {
       stroke: black;
       stroke-dashoffset: 906;
       stroke-width: 128;
       }
       75% {
       animation-timing-function: step-end;
       stroke: black;
       stroke-dashoffset: 0;
       stroke-width: 128;
       }
       to {
       stroke: black;
       stroke-width: 1024;
       }
       }
       #make-me-a-hanzi-animation-3 {
         animation: keyframes3 0.987305s both;
         animation-delay: 3.407064s;
         animation-timing-function: linear;
       }
    @keyframes keyframes4 {
      from {
       stroke: black;
       stroke-dashoffset: 408;
       stroke-width: 128;
       }
       57% {
       animation-timing-function: step-end;
       stroke: black;
       stroke-dashoffset: 0;
       stroke-width: 128;
       }
       to {
       stroke: black;
       stroke-width: 1024;
       }
       }
       #make-me-a-hanzi-animation-4 {
         animation: keyframes4 0.582031s both;
         animation-delay: 4.394369s;
         animation-timing-function: linear;
       }
    @keyframes keyframes5 {
      from {
       stroke: black;
       stroke-dashoffset: 528;
       stroke-width: 128;
       }
       63% {
       animation-timing-function: step-end;
       stroke: black;
       stroke-dashoffset: 0;
       stroke-width: 128;
       }
       to {
       stroke: black;
       stroke-width: 1024;
       }
       }
       #make-me-a-hanzi-animation-5 {
         animation: keyframes5 0.679688s both;
         animation-delay: 4.976400s;
         animation-timing-function: linear;
       }
    @keyframes keyframes6 {
      from {
       stroke: black;
       stroke-dashoffset: 1127;
       stroke-width: 128;
       }
       79% {
       animation-timing-function: step-end;
       stroke: black;
       stroke-dashoffset: 0;
       stroke-width: 128;
       }
       to {
       stroke: black;
       stroke-width: 1024;
       }
       }
       #make-me-a-hanzi-animation-6 {
         animation: keyframes6 1.167155s both;
         animation-delay: 5.656088s;
         animation-timing-function: linear;
       }
    @keyframes keyframes7 {
      from {
       stroke: black;
       stroke-dashoffset: 643;
       stroke-width: 128;
       }
       68% {
       animation-timing-function: step-end;
       stroke: black;
       stroke-dashoffset: 0;
       stroke-width: 128;
       }
       to {
       stroke: black;
       stroke-width: 1024;
       }
       }
       #make-me-a-hanzi-animation-7 {
         animation: keyframes7 0.773275s both;
         animation-delay: 6.823243s;
         animation-timing-function: linear;
       }
    @keyframes keyframes8 {
      from {
       stroke: black;
       stroke-dashoffset: 659;
       stroke-width: 128;
       }
       68% {
       animation-timing-function: step-end;
       stroke: black;
       stroke-dashoffset: 0;
       stroke-width: 128;
       }
       to {
       stroke: black;
       stroke-width: 1024;
       }
       }
       #make-me-a-hanzi-animation-8 {
         animation: keyframes8 0.786296s both;
         animation-delay: 7.596518s;
         animation-timing-function: linear;
       }
    @keyframes keyframes9 {
      from {
       stroke: black;
       stroke-dashoffset: 556;
       stroke-width: 128;
       }
       64% {
       animation-timing-function: step-end;
       stroke: black;
       stroke-dashoffset: 0;
       stroke-width: 128;
       }
       to {
       stroke: black;
       stroke-width: 1024;
       }
       }
       #make-me-a-hanzi-animation-9 {
         animation: keyframes9 0.702474s both;
         animation-delay: 8.382814s;
         animation-timing-function: linear;
       }
    @keyframes keyframes10 {
      from {
       stroke: black;
       stroke-dashoffset: 1000;
       stroke-width: 128;
       }
       76% {
       animation-timing-function: step-end;
       stroke: black;
       stroke-dashoffset: 0;
       stroke-width: 128;
       }
       to {
       stroke: black;
       stroke-width: 1024;
       }
       }
       #make-me-a-hanzi-animation-10 {
         animation: keyframes10 1.063802s both;
         animation-delay: 9.085288s;
         animation-timing-function: linear;
       }
    @keyframes keyframes11 {
      from {
       stroke: black;
       stroke-dashoffset: 685;
       stroke-width: 128;
       }
       69% {
       animation-timing-function: step-end;
       stroke: black;
       stroke-dashoffset: 0;
       stroke-width: 128;
       }
       to {
       stroke: black;
       stroke-width: 1024;
       }
       }
       #make-me-a-hanzi-animation-11 {
         animation: keyframes11 0.807454s both;
         animation-delay: 10.149090s;
         animation-timing-function: linear;
       }
    @keyframes keyframes12 {
      from {
       stroke: black;
       stroke-dashoffset: 672;
       stroke-width: 128;
       }
       69% {
       animation-timing-function: step-end;
       stroke: black;
       stroke-dashoffset: 0;
       stroke-width: 128;
       }
       to {
       stroke: black;
       stroke-width: 1024;
       }
       }
       #make-me-a-hanzi-animation-12 {
         animation: keyframes12 0.796875s both;
         animation-delay: 10.956544s;
         animation-timing-function: linear;
       }
    @keyframes keyframes13 {
      from {
       stroke: black;
       stroke-dashoffset: 439;
       stroke-width: 128;
       }
       59% {
       animation-timing-function: step-end;
       stroke: black;
       stroke-dashoffset: 0;
       stroke-width: 128;
       }
       to {
       stroke: black;
       stroke-width: 1024;
       }
       }
       #make-me-a-hanzi-animation-13 {
         animation: keyframes13 0.607259s both;
         animation-delay: 11.753419s;
         animation-timing-function: linear;
       }
    @keyframes keyframes14 {
      from {
       stroke: black;
       stroke-dashoffset: 704;
       stroke-width: 128;
       }
       70% {
       animation-timing-function: step-end;
       stroke: black;
       stroke-dashoffset: 0;
       stroke-width: 128;
       }
       to {
       stroke: black;
       stroke-width: 1024;
       }
       }
       #make-me-a-hanzi-animation-14 {
         animation: keyframes14 0.822917s both;
         animation-delay: 12.360678s;
         animation-timing-function: linear;
       }
    @keyframes keyframes15 {
      from {
       stroke: black;
       stroke-dashoffset: 451;
       stroke-width: 128;
       }
       59% {
       animation-timing-function: step-end;
       stroke: black;
       stroke-dashoffset: 0;
       stroke-width: 128;
       }
       to {
       stroke: black;
       stroke-width: 1024;
       }
       }
       #make-me-a-hanzi-animation-15 {
         animation: keyframes15 0.617025s both;
         animation-delay: 13.183595s;
         animation-timing-function: linear;
       }
</style>
<path d="M 466.5 423.5 Q 580.5 456.5 772.5 459.5 Q 797.5 456.5 808.5 465.5 Q 815.5 472.5 808.5 485.5 Q 801.5 498.5 755.5 520.5 Q 728.5 532.5 663.5 513.5 Q 582.5 500.5 486.5 473.5 L 425.5 455.5 Q 370.5 442.5 319.5 423.5 Q 303.5 416.5 299.5 421.5 Q 293.5 425.5 298.5 438.5 Q 317.5 511.5 329.5 533.5 Q 338.5 546.5 326.5 561.5 Q 308.5 586.5 277.5 602.5 Q 264.5 609.5 253.5 601.5 Q 246.5 597.5 255.5 577.5 Q 270.5 546.5 263.5 504.5 Q 250.5 443.5 221.5 416.5 Q 206.5 400.5 212.5 386.5 Q 221.5 364.5 240.5 344.5 Q 253.5 331.5 273.5 346.5 Q 321.5 386.5 405.5 408.5 L 466.5 423.5 Z" fill="lightgray"></path> 
<path d="M 408.5 303.5 Q 441.5 364.5 466.5 423.5 L 486.5 473.5 Q 526.5 608.5 531.5 633.5 Q 535.5 664.5 553.5 694.5 Q 566.5 715.5 545.5 728.5 Q 515.5 749.5 474.5 757.5 Q 455.5 761.5 446.5 755.5 Q 439.5 748.5 446.5 730.5 Q 501.5 637.5 425.5 455.5 L 405.5 408.5 Q 318.5 224.5 204.5 108.5 Q 155.5 62.5 91.5 8.5 Q 84.5 1.5 82.5 -4.5 Q 81.5 -11.5 97.5 -3.5 Q 281.5 78.5 397.5 281.5 L 408.5 303.5 Z" fill="lightgray"></path> 
<path d="M 580.5 100.5 Q 620.5 155.5 649.5 237.5 Q 659.5 274.5 681.5 293.5 Q 699.5 308.5 680.5 325.5 Q 658.5 344.5 622.5 360.5 Q 600.5 369.5 575.5 358.5 Q 517.5 324.5 433.5 308.5 Q 418.5 307.5 408.5 303.5 C 379.5 297.5 369.5 290.5 397.5 281.5 Q 398.5 280.5 403.5 278.5 Q 433.5 265.5 475.5 280.5 L 569.5 306.5 Q 585.5 313.5 588.5 294.5 Q 588.5 227.5 537.5 137.5 L 514.5 106.5 Q 496.5 85.5 475.5 65.5 Q 408.5 13.5 236.5 -31.5 Q 218.5 -34.5 228.5 -44.5 Q 235.5 -51.5 268.5 -49.5 Q 380.5 -39.5 445.5 -12.5 Q 505.5 14.5 551.5 65.5 L 580.5 100.5 Z" fill="lightgray"></path> 
<path d="M 551.5 65.5 Q 695.5 -78.5 727.5 -85.5 Q 827.5 -85.5 905.5 -71.5 Q 942.5 -65.5 940.5 -55.5 Q 937.5 -43.5 754.5 -0.5 Q 672.5 29.5 580.5 100.5 L 537.5 137.5 Q 503.5 167.5 470.5 200.5 Q 433.5 237.5 397.5 237.5 Q 379.5 238.5 376.5 232.5 Q 375.5 225.5 391.5 215.5 Q 428.5 194.5 514.5 106.5 L 551.5 65.5 Z" fill="lightgray"></path> 
<path d="M 666.5 641.5 Q 700.5 613.5 735.5 580.5 Q 748.5 568.5 763.5 568.5 Q 773.5 569.5 778.5 582.5 Q 782.5 595.5 774.5 624.5 Q 765.5 658.5 662.5 687.5 Q 647.5 691.5 641.5 688.5 Q 637.5 684.5 637.5 672.5 Q 641.5 662.5 666.5 641.5 Z" fill="lightgray"></path> 
<path d="M 1319.5 470.5 L 1286.5 463.5 L 1244.5 457.5 Q 1226.5 453.5 1214.5 453.5 L 1197.5 453.5 Q 1187.5 452.5 1184.5 449.5 Q 1179.5 437.5 1195.5 431.5 Q 1212.5 424.5 1220.5 423.5 L 1235.5 421.5 Q 1242.5 421.5 1263.5 423.5 L 1319.5 429.5 L 1363.5 437.5 L 1432.5 447.5 L 1449.5 451.5 Q 1464.5 453.5 1468.5 457.5 Q 1483.5 466.5 1461.5 479.5 Q 1439.5 492.5 1418.5 492.5 L 1367.5 479.5 L 1319.5 470.5 Z" fill="lightgray"></path> 
<path d="M 1314.5 658.5 L 1316.5 637.5 Q 1319.5 612.5 1319.5 590.5 L 1319.5 470.5 L 1319.5 429.5 L 1315.5 287.5 L 1311.5 236.5 L 1306.5 117.5 L 1302.5 68.5 Q 1300.5 51.5 1293.5 41.5 Q 1280.5 27.5 1261.5 34.5 Q 1242.5 41.5 1233.5 43.5 L 1209.5 49.5 Q 1203.5 51.5 1201.5 46.5 Q 1199.5 41.5 1205.5 38.5 L 1222.5 24.5 L 1266.5 -23.5 L 1292.5 -62.5 Q 1297.5 -66.5 1303.5 -67.5 Q 1309.5 -69.5 1328.5 -53.5 Q 1347.5 -38.5 1352.5 -12.5 L 1358.5 19.5 Q 1359.5 24.5 1359.5 45.5 Q 1361.5 64.5 1359.5 105.5 L 1357.5 159.5 L 1359.5 269.5 L 1360.5 311.5 L 1363.5 437.5 L 1367.5 479.5 L 1371.5 555.5 Q 1371.5 562.5 1375.5 591.5 L 1381.5 623.5 L 1387.5 643.5 Q 1392.5 661.5 1394.5 665.5 L 1400.5 674.5 Q 1407.5 688.5 1397.5 704.5 Q 1372.5 735.5 1315.5 745.5 Q 1309.5 745.5 1303.5 741.5 Q 1297.5 737.5 1304.5 707.5 Q 1310.5 689.5 1314.5 658.5 Z" fill="lightgray"></path> 
<path d="M 1315.5 287.5 L 1222.5 239.5 Q 1179.5 218.5 1167.5 214.5 L 1139.5 201.5 L 1113.5 197.5 L 1109.5 193.5 Q 1107.5 185.5 1111.5 181.5 Q 1114.5 175.5 1123.5 166.5 Q 1136.5 156.5 1144.5 151.5 Q 1172.5 126.5 1189.5 139.5 L 1227.5 173.5 Q 1250.5 191.5 1256.5 195.5 L 1311.5 236.5 L 1359.5 269.5 L 1451.5 337.5 Q 1469.5 349.5 1461.5 354.5 Q 1456.5 360.5 1444.5 355.5 L 1360.5 311.5 L 1315.5 287.5 Z" fill="lightgray"></path> 
<path d="M 1867.5 549.5 L 1888.5 603.5 Q 1895.5 627.5 1907.5 639.5 L 1915.5 647.5 Q 1922.5 654.5 1922.5 658.5 Q 1922.5 662.5 1916.5 673.5 Q 1911.5 679.5 1894.5 691.5 Q 1852.5 716.5 1840.5 712.5 L 1785.5 697.5 Q 1704.5 683.5 1675.5 679.5 L 1623.5 673.5 L 1591.5 671.5 C 1561.5 669.5 1569.5 637.5 1599.5 641.5 L 1793.5 667.5 Q 1799.5 668.5 1816.5 666.5 Q 1825.5 663.5 1828.5 656.5 Q 1831.5 649.5 1828.5 621.5 Q 1825.5 593.5 1811.5 557.5 C 1801.5 529.5 1856.5 521.5 1867.5 549.5 Z" fill="lightgray"></path> 
<path d="M 1584.5 492.5 L 1616.5 495.5 Q 1637.5 495.5 1691.5 502.5 L 1785.5 513.5 Q 1813.5 517.5 1840.5 517.5 L 1875.5 515.5 Q 1889.5 515.5 1890.5 523.5 Q 1891.5 530.5 1882.5 538.5 L 1867.5 549.5 C 1846.5 565.5 1840.5 563.5 1811.5 557.5 L 1779.5 550.5 Q 1750.5 543.5 1695.5 537.5 L 1588.5 524.5 C 1558.5 520.5 1554.5 489.5 1584.5 492.5 Z" fill="lightgray"></path> 
<path d="M 1575.5 675.5 L 1538.5 680.5 Q 1533.5 681.5 1525.5 679.5 Q 1517.5 672.5 1522.5 663.5 L 1529.5 646.5 Q 1534.5 638.5 1535.5 631.5 Q 1540.5 570.5 1531.5 503.5 L 1518.5 383.5 Q 1508.5 306.5 1476.5 185.5 L 1426.5 49.5 L 1394.5 -18.5 Q 1388.5 -30.5 1392.5 -33.5 Q 1396.5 -36.5 1401.5 -31.5 L 1424.5 -6.5 L 1446.5 22.5 Q 1518.5 123.5 1551.5 281.5 L 1570.5 391.5 Q 1569.5 391.5 1576.5 441.5 L 1584.5 492.5 L 1588.5 524.5 L 1592.5 564.5 Q 1592.5 578.5 1595.5 599.5 Q 1599.5 619.5 1599.5 641.5 C 1600.5 669.5 1600.5 669.5 1591.5 671.5 L 1575.5 675.5 Z" fill="lightgray"></path> 
<path d="M 1771.5 39.5 L 1781.5 236.5 L 1784.5 266.5 L 1789.5 377.5 Q 1791.5 393.5 1796.5 408.5 Q 1802.5 423.5 1801.5 426.5 Q 1801.5 442.5 1780.5 449.5 L 1766.5 454.5 L 1753.5 457.5 Q 1727.5 466.5 1718.5 452.5 Q 1714.5 446.5 1721.5 435.5 L 1726.5 427.5 Q 1729.5 421.5 1731.5 395.5 L 1733.5 365.5 L 1731.5 259.5 L 1731.5 225.5 L 1729.5 31.5 C 1729.5 1.5 1769.5 9.5 1771.5 39.5 Z" fill="lightgray"></path> 
<path d="M 1781.5 236.5 L 1826.5 244.5 L 1888.5 253.5 C 1918.5 257.5 1919.5 274.5 1889.5 273.5 L 1853.5 272.5 L 1794.5 266.5 L 1784.5 266.5 L 1731.5 259.5 L 1649.5 246.5 Q 1641.5 245.5 1636.5 248.5 Q 1631.5 251.5 1640.5 275.5 L 1652.5 320.5 Q 1653.5 325.5 1648.5 333.5 Q 1644.5 340.5 1630.5 349.5 L 1611.5 360.5 Q 1606.5 363.5 1599.5 362.5 Q 1592.5 360.5 1592.5 346.5 L 1598.5 327.5 L 1600.5 302.5 Q 1600.5 277.5 1584.5 249.5 L 1575.5 237.5 Q 1567.5 225.5 1574.5 208.5 Q 1582.5 191.5 1591.5 185.5 Q 1600.5 179.5 1603.5 178.5 Q 1607.5 177.5 1623.5 189.5 Q 1653.5 204.5 1695.5 217.5 L 1731.5 225.5 L 1781.5 236.5 Z" fill="lightgray"></path> 
<path d="M 1888.5 253.5 L 1884.5 223.5 Q 1879.5 192.5 1900.5 189.5 Q 1911.5 188.5 1918.5 199.5 Q 1934.5 230.5 1937.5 262.5 L 1943.5 307.5 L 1947.5 323.5 L 1959.5 353.5 Q 1959.5 367.5 1930.5 379.5 Q 1912.5 387.5 1900.5 386.5 Q 1888.5 385.5 1885.5 381.5 Q 1882.5 376.5 1886.5 365.5 L 1890.5 355.5 Q 1894.5 350.5 1894.5 336.5 L 1889.5 273.5 L 1888.5 253.5 Z" fill="lightgray"></path> 
<path d="M 1575.5 92.5 Q 1575.5 79.5 1576.5 77.5 L 1575.5 51.5 Q 1573.5 46.5 1571.5 33.5 L 1558.5 9.5 Q 1554.5 2.5 1553.5 -8.5 Q 1553.5 -20.5 1574.5 -46.5 Q 1587.5 -60.5 1602.5 -48.5 Q 1608.5 -43.5 1612.5 -41.5 Q 1616.5 -40.5 1628.5 -34.5 L 1657.5 -22.5 Q 1751.5 2.5 1774.5 4.5 Q 1798.5 6.5 1894.5 25.5 C 1923.5 31.5 1927.5 50.5 1897.5 48.5 L 1771.5 39.5 L 1729.5 31.5 L 1643.5 18.5 Q 1625.5 15.5 1621.5 18.5 Q 1618.5 21.5 1620.5 36.5 Q 1622.5 51.5 1627.5 59.5 L 1636.5 78.5 Q 1640.5 112.5 1602.5 127.5 Q 1584.5 135.5 1579.5 135.5 Q 1563.5 131.5 1567.5 121.5 Q 1567.5 116.5 1571.5 109.5 L 1575.5 92.5 Z" fill="lightgray"></path> 
<path d="M 1894.5 25.5 L 1890.5 -39.5 Q 1891.5 -47.5 1898.5 -50.5 Q 1912.5 -58.5 1922.5 -47.5 Q 1932.5 -37.5 1934.5 -24.5 L 1940.5 9.5 L 1947.5 62.5 Q 1947.5 70.5 1951.5 81.5 Q 1953.5 93.5 1955.5 99.5 L 1961.5 113.5 Q 1964.5 119.5 1964.5 123.5 Q 1964.5 127.5 1954.5 136.5 Q 1944.5 145.5 1921.5 153.5 Q 1899.5 160.5 1892.5 153.5 Q 1885.5 151.5 1890.5 137.5 L 1894.5 129.5 Q 1900.5 105.5 1900.5 81.5 L 1897.5 48.5 L 1894.5 25.5 Z" fill="lightgray"></path> 
      <clipPath id="make-me-a-hanzi-clip-0">
      <path d="M 466.5 423.5 Q 580.5 456.5 772.5 459.5 Q 797.5 456.5 808.5 465.5 Q 815.5 472.5 808.5 485.5 Q 801.5 498.5 755.5 520.5 Q 728.5 532.5 663.5 513.5 Q 582.5 500.5 486.5 473.5 L 425.5 455.5 Q 370.5 442.5 319.5 423.5 Q 303.5 416.5 299.5 421.5 Q 293.5 425.5 298.5 438.5 Q 317.5 511.5 329.5 533.5 Q 338.5 546.5 326.5 561.5 Q 308.5 586.5 277.5 602.5 Q 264.5 609.5 253.5 601.5 Q 246.5 597.5 255.5 577.5 Q 270.5 546.5 263.5 504.5 Q 250.5 443.5 221.5 416.5 Q 206.5 400.5 212.5 386.5 Q 221.5 364.5 240.5 344.5 Q 253.5 331.5 273.5 346.5 Q 321.5 386.5 405.5 408.5 L 466.5 423.5 Z" fill="lightgray"></path>
      </clipPath>
      <path clip-path="url(#make-me-a-hanzi-clip-0)" d="M 263.5 593.5 L 296.5 547.5 L 282.5 473.5 L 265.5 425.5 L 263.5 394.5 L 314.5 398.5 L 484.5 451.5 L 620.5 478.5 L 740.5 491.5 L 797.5 474.5 " fill="none" id="make-me-a-hanzi-animation-0" stroke-dasharray="890 1780" stroke-linecap="round"></path>

      <clipPath id="make-me-a-hanzi-clip-1">
      <path d="M 408.5 303.5 Q 441.5 364.5 466.5 423.5 L 486.5 473.5 Q 526.5 608.5 531.5 633.5 Q 535.5 664.5 553.5 694.5 Q 566.5 715.5 545.5 728.5 Q 515.5 749.5 474.5 757.5 Q 455.5 761.5 446.5 755.5 Q 439.5 748.5 446.5 730.5 Q 501.5 637.5 425.5 455.5 L 405.5 408.5 Q 318.5 224.5 204.5 108.5 Q 155.5 62.5 91.5 8.5 Q 84.5 1.5 82.5 -4.5 Q 81.5 -11.5 97.5 -3.5 Q 281.5 78.5 397.5 281.5 L 408.5 303.5 Z" fill="lightgray"></path>
      </clipPath>
      <path clip-path="url(#make-me-a-hanzi-clip-1)" d="M 455.5 746.5 L 506.5 700.5 L 497.5 613.5 L 467.5 492.5 L 404.5 348.5 L 344.5 243.5 L 265.5 141.5 L 188.5 67.5 L 89.5 0.5 " fill="none" id="make-me-a-hanzi-animation-1" stroke-dasharray="1042 2084" stroke-linecap="round"></path>

      <clipPath id="make-me-a-hanzi-clip-2">
      <path d="M 580.5 100.5 Q 620.5 155.5 649.5 237.5 Q 659.5 274.5 681.5 293.5 Q 699.5 308.5 680.5 325.5 Q 658.5 344.5 622.5 360.5 Q 600.5 369.5 575.5 358.5 Q 517.5 324.5 433.5 308.5 Q 418.5 307.5 408.5 303.5 C 379.5 297.5 369.5 290.5 397.5 281.5 Q 398.5 280.5 403.5 278.5 Q 433.5 265.5 475.5 280.5 L 569.5 306.5 Q 585.5 313.5 588.5 294.5 Q 588.5 227.5 537.5 137.5 L 514.5 106.5 Q 496.5 85.5 475.5 65.5 Q 408.5 13.5 236.5 -31.5 Q 218.5 -34.5 228.5 -44.5 Q 235.5 -51.5 268.5 -49.5 Q 380.5 -39.5 445.5 -12.5 Q 505.5 14.5 551.5 65.5 L 580.5 100.5 Z" fill="lightgray"></path>
      </clipPath>
      <path clip-path="url(#make-me-a-hanzi-clip-2)" d="M 403.5 285.5 L 462.5 295.5 L 591.5 334.5 L 606.5 330.5 L 632.5 305.5 L 605.5 210.5 L 581.5 156.5 L 545.5 100.5 L 497.5 49.5 L 453.5 19.5 L 397.5 -4.5 L 276.5 -36.5 L 235.5 -39.5 " fill="none" id="make-me-a-hanzi-animation-2" stroke-dasharray="949 1898" stroke-linecap="round"></path>

      <clipPath id="make-me-a-hanzi-clip-3">
      <path d="M 551.5 65.5 Q 695.5 -78.5 727.5 -85.5 Q 827.5 -85.5 905.5 -71.5 Q 942.5 -65.5 940.5 -55.5 Q 937.5 -43.5 754.5 -0.5 Q 672.5 29.5 580.5 100.5 L 537.5 137.5 Q 503.5 167.5 470.5 200.5 Q 433.5 237.5 397.5 237.5 Q 379.5 238.5 376.5 232.5 Q 375.5 225.5 391.5 215.5 Q 428.5 194.5 514.5 106.5 L 551.5 65.5 Z" fill="lightgray"></path>
      </clipPath>
      <path clip-path="url(#make-me-a-hanzi-clip-3)" d="M 382.5 230.5 L 431.5 209.5 L 576.5 71.5 L 648.5 14.5 L 723.5 -34.5 L 737.5 -41.5 L 797.5 -48.5 L 936.5 -57.5 " fill="none" id="make-me-a-hanzi-animation-3" stroke-dasharray="778 1556" stroke-linecap="round"></path>

      <clipPath id="make-me-a-hanzi-clip-4">
      <path d="M 666.5 641.5 Q 700.5 613.5 735.5 580.5 Q 748.5 568.5 763.5 568.5 Q 773.5 569.5 778.5 582.5 Q 782.5 595.5 774.5 624.5 Q 765.5 658.5 662.5 687.5 Q 647.5 691.5 641.5 688.5 Q 637.5 684.5 637.5 672.5 Q 641.5 662.5 666.5 641.5 Z" fill="lightgray"></path>
      </clipPath>
      <path clip-path="url(#make-me-a-hanzi-clip-4)" d="M 646.5 682.5 L 740.5 619.5 L 760.5 586.5 " fill="none" id="make-me-a-hanzi-animation-4" stroke-dasharray="280 560" stroke-linecap="round"></path>

      <clipPath id="make-me-a-hanzi-clip-5">
      <path d="M 1319.5 470.5 L 1286.5 463.5 L 1244.5 457.5 Q 1226.5 453.5 1214.5 453.5 L 1197.5 453.5 Q 1187.5 452.5 1184.5 449.5 Q 1179.5 437.5 1195.5 431.5 Q 1212.5 424.5 1220.5 423.5 L 1235.5 421.5 Q 1242.5 421.5 1263.5 423.5 L 1319.5 429.5 L 1363.5 437.5 L 1432.5 447.5 L 1449.5 451.5 Q 1464.5 453.5 1468.5 457.5 Q 1483.5 466.5 1461.5 479.5 Q 1439.5 492.5 1418.5 492.5 L 1367.5 479.5 L 1319.5 470.5 Z" fill="lightgray"></path>
      </clipPath>
      <path clip-path="url(#make-me-a-hanzi-clip-5)" d="M 1193.5 444.5 L 1230.5 437.5 L 1422.5 469.5 L 1462.5 467.5 " fill="none" id="make-me-a-hanzi-animation-5" stroke-dasharray="400 800" stroke-linecap="round"></path>

      <clipPath id="make-me-a-hanzi-clip-6">
      <path d="M 1314.5 658.5 L 1316.5 637.5 Q 1319.5 612.5 1319.5 590.5 L 1319.5 470.5 L 1319.5 429.5 L 1315.5 287.5 L 1311.5 236.5 L 1306.5 117.5 L 1302.5 68.5 Q 1300.5 51.5 1293.5 41.5 Q 1280.5 27.5 1261.5 34.5 Q 1242.5 41.5 1233.5 43.5 L 1209.5 49.5 Q 1203.5 51.5 1201.5 46.5 Q 1199.5 41.5 1205.5 38.5 L 1222.5 24.5 L 1266.5 -23.5 L 1292.5 -62.5 Q 1297.5 -66.5 1303.5 -67.5 Q 1309.5 -69.5 1328.5 -53.5 Q 1347.5 -38.5 1352.5 -12.5 L 1358.5 19.5 Q 1359.5 24.5 1359.5 45.5 Q 1361.5 64.5 1359.5 105.5 L 1357.5 159.5 L 1359.5 269.5 L 1360.5 311.5 L 1363.5 437.5 L 1367.5 479.5 L 1371.5 555.5 Q 1371.5 562.5 1375.5 591.5 L 1381.5 623.5 L 1387.5 643.5 Q 1392.5 661.5 1394.5 665.5 L 1400.5 674.5 Q 1407.5 688.5 1397.5 704.5 Q 1372.5 735.5 1315.5 745.5 Q 1309.5 745.5 1303.5 741.5 Q 1297.5 737.5 1304.5 707.5 Q 1310.5 689.5 1314.5 658.5 Z" fill="lightgray"></path>
      </clipPath>
      <path clip-path="url(#make-me-a-hanzi-clip-6)" d="M 1312.5 733.5 L 1354.5 684.5 L 1345.5 568.5 L 1327.5 37.5 L 1307.5 -4.5 L 1271.5 7.5 L 1206.5 44.5 " fill="none" id="make-me-a-hanzi-animation-6" stroke-dasharray="999 1998" stroke-linecap="round"></path>

      <clipPath id="make-me-a-hanzi-clip-7">
      <path d="M 1315.5 287.5 L 1222.5 239.5 Q 1179.5 218.5 1167.5 214.5 L 1139.5 201.5 L 1113.5 197.5 L 1109.5 193.5 Q 1107.5 185.5 1111.5 181.5 Q 1114.5 175.5 1123.5 166.5 Q 1136.5 156.5 1144.5 151.5 Q 1172.5 126.5 1189.5 139.5 L 1227.5 173.5 Q 1250.5 191.5 1256.5 195.5 L 1311.5 236.5 L 1359.5 269.5 L 1451.5 337.5 Q 1469.5 349.5 1461.5 354.5 Q 1456.5 360.5 1444.5 355.5 L 1360.5 311.5 L 1315.5 287.5 Z" fill="lightgray"></path>
      </clipPath>
      <path clip-path="url(#make-me-a-hanzi-clip-7)" d="M 1118.5 188.5 L 1173.5 175.5 L 1454.5 349.5 " fill="none" id="make-me-a-hanzi-animation-7" stroke-dasharray="515 1030" stroke-linecap="round"></path>

      <clipPath id="make-me-a-hanzi-clip-8">
      <path d="M 1867.5 549.5 L 1888.5 603.5 Q 1895.5 627.5 1907.5 639.5 L 1915.5 647.5 Q 1922.5 654.5 1922.5 658.5 Q 1922.5 662.5 1916.5 673.5 Q 1911.5 679.5 1894.5 691.5 Q 1852.5 716.5 1840.5 712.5 L 1785.5 697.5 Q 1704.5 683.5 1675.5 679.5 L 1623.5 673.5 L 1591.5 671.5 C 1561.5 669.5 1569.5 637.5 1599.5 641.5 L 1793.5 667.5 Q 1799.5 668.5 1816.5 666.5 Q 1825.5 663.5 1828.5 656.5 Q 1831.5 649.5 1828.5 621.5 Q 1825.5 593.5 1811.5 557.5 C 1801.5 529.5 1856.5 521.5 1867.5 549.5 Z" fill="lightgray"></path>
      </clipPath>
      <path clip-path="url(#make-me-a-hanzi-clip-8)" d="M 1597.5 665.5 L 1610.5 657.5 L 1776.5 682.5 L 1845.5 682.5 L 1870.5 658.5 L 1849.5 580.5 L 1819.5 562.5 " fill="none" id="make-me-a-hanzi-animation-8" stroke-dasharray="531 1062" stroke-linecap="round"></path>

      <clipPath id="make-me-a-hanzi-clip-9">
      <path d="M 1584.5 492.5 L 1616.5 495.5 Q 1637.5 495.5 1691.5 502.5 L 1785.5 513.5 Q 1813.5 517.5 1840.5 517.5 L 1875.5 515.5 Q 1889.5 515.5 1890.5 523.5 Q 1891.5 530.5 1882.5 538.5 L 1867.5 549.5 C 1846.5 565.5 1840.5 563.5 1811.5 557.5 L 1779.5 550.5 Q 1750.5 543.5 1695.5 537.5 L 1588.5 524.5 C 1558.5 520.5 1554.5 489.5 1584.5 492.5 Z" fill="lightgray"></path>
      </clipPath>
      <path clip-path="url(#make-me-a-hanzi-clip-9)" d="M 1589.5 497.5 L 1602.5 510.5 L 1613.5 512.5 L 1679.5 516.5 L 1815.5 537.5 L 1881.5 525.5 " fill="none" id="make-me-a-hanzi-animation-9" stroke-dasharray="428 856" stroke-linecap="round"></path>

      <clipPath id="make-me-a-hanzi-clip-10">
      <path d="M 1575.5 675.5 L 1538.5 680.5 Q 1533.5 681.5 1525.5 679.5 Q 1517.5 672.5 1522.5 663.5 L 1529.5 646.5 Q 1534.5 638.5 1535.5 631.5 Q 1540.5 570.5 1531.5 503.5 L 1518.5 383.5 Q 1508.5 306.5 1476.5 185.5 L 1426.5 49.5 L 1394.5 -18.5 Q 1388.5 -30.5 1392.5 -33.5 Q 1396.5 -36.5 1401.5 -31.5 L 1424.5 -6.5 L 1446.5 22.5 Q 1518.5 123.5 1551.5 281.5 L 1570.5 391.5 Q 1569.5 391.5 1576.5 441.5 L 1584.5 492.5 L 1588.5 524.5 L 1592.5 564.5 Q 1592.5 578.5 1595.5 599.5 Q 1599.5 619.5 1599.5 641.5 C 1600.5 669.5 1600.5 669.5 1591.5 671.5 L 1575.5 675.5 Z" fill="lightgray"></path>
      </clipPath>
      <path clip-path="url(#make-me-a-hanzi-clip-10)" d="M 1532.5 669.5 L 1565.5 644.5 L 1567.5 622.5 L 1557.5 490.5 L 1525.5 278.5 L 1505.5 197.5 L 1468.5 99.5 L 1425.5 15.5 L 1395.5 -26.5 " fill="none" id="make-me-a-hanzi-animation-10" stroke-dasharray="872 1744" stroke-linecap="round"></path>

      <clipPath id="make-me-a-hanzi-clip-11">
      <path d="M 1771.5 39.5 L 1781.5 236.5 L 1784.5 266.5 L 1789.5 377.5 Q 1791.5 393.5 1796.5 408.5 Q 1802.5 423.5 1801.5 426.5 Q 1801.5 442.5 1780.5 449.5 L 1766.5 454.5 L 1753.5 457.5 Q 1727.5 466.5 1718.5 452.5 Q 1714.5 446.5 1721.5 435.5 L 1726.5 427.5 Q 1729.5 421.5 1731.5 395.5 L 1733.5 365.5 L 1731.5 259.5 L 1731.5 225.5 L 1729.5 31.5 C 1729.5 1.5 1769.5 9.5 1771.5 39.5 Z" fill="lightgray"></path>
      </clipPath>
      <path clip-path="url(#make-me-a-hanzi-clip-11)" d="M 1730.5 446.5 L 1763.5 419.5 L 1751.5 63.5 L 1735.5 38.5 " fill="none" id="make-me-a-hanzi-animation-11" stroke-dasharray="557 1114" stroke-linecap="round"></path>

      <clipPath id="make-me-a-hanzi-clip-12">
      <path d="M 1781.5 236.5 L 1826.5 244.5 L 1888.5 253.5 C 1918.5 257.5 1919.5 274.5 1889.5 273.5 L 1853.5 272.5 L 1794.5 266.5 L 1784.5 266.5 L 1731.5 259.5 L 1649.5 246.5 Q 1641.5 245.5 1636.5 248.5 Q 1631.5 251.5 1640.5 275.5 L 1652.5 320.5 Q 1653.5 325.5 1648.5 333.5 Q 1644.5 340.5 1630.5 349.5 L 1611.5 360.5 Q 1606.5 363.5 1599.5 362.5 Q 1592.5 360.5 1592.5 346.5 L 1598.5 327.5 L 1600.5 302.5 Q 1600.5 277.5 1584.5 249.5 L 1575.5 237.5 Q 1567.5 225.5 1574.5 208.5 Q 1582.5 191.5 1591.5 185.5 Q 1600.5 179.5 1603.5 178.5 Q 1607.5 177.5 1623.5 189.5 Q 1653.5 204.5 1695.5 217.5 L 1731.5 225.5 L 1781.5 236.5 Z" fill="lightgray"></path>
      </clipPath>
      <path clip-path="url(#make-me-a-hanzi-clip-12)" d="M 1604.5 352.5 L 1625.5 320.5 L 1610.5 223.5 L 1648.5 223.5 L 1753.5 247.5 L 1877.5 261.5 L 1883.5 268.5 " fill="none" id="make-me-a-hanzi-animation-12" stroke-dasharray="544 1088" stroke-linecap="round"></path>

      <clipPath id="make-me-a-hanzi-clip-13">
      <path d="M 1888.5 253.5 L 1884.5 223.5 Q 1879.5 192.5 1900.5 189.5 Q 1911.5 188.5 1918.5 199.5 Q 1934.5 230.5 1937.5 262.5 L 1943.5 307.5 L 1947.5 323.5 L 1959.5 353.5 Q 1959.5 367.5 1930.5 379.5 Q 1912.5 387.5 1900.5 386.5 Q 1888.5 385.5 1885.5 381.5 Q 1882.5 376.5 1886.5 365.5 L 1890.5 355.5 Q 1894.5 350.5 1894.5 336.5 L 1889.5 273.5 L 1888.5 253.5 Z" fill="lightgray"></path>
      </clipPath>
      <path clip-path="url(#make-me-a-hanzi-clip-13)" d="M 1895.5 376.5 L 1924.5 348.5 L 1902.5 207.5 " fill="none" id="make-me-a-hanzi-animation-13" stroke-dasharray="311 622" stroke-linecap="round"></path>

      <clipPath id="make-me-a-hanzi-clip-14">
      <path d="M 1575.5 92.5 Q 1575.5 79.5 1576.5 77.5 L 1575.5 51.5 Q 1573.5 46.5 1571.5 33.5 L 1558.5 9.5 Q 1554.5 2.5 1553.5 -8.5 Q 1553.5 -20.5 1574.5 -46.5 Q 1587.5 -60.5 1602.5 -48.5 Q 1608.5 -43.5 1612.5 -41.5 Q 1616.5 -40.5 1628.5 -34.5 L 1657.5 -22.5 Q 1751.5 2.5 1774.5 4.5 Q 1798.5 6.5 1894.5 25.5 C 1923.5 31.5 1927.5 50.5 1897.5 48.5 L 1771.5 39.5 L 1729.5 31.5 L 1643.5 18.5 Q 1625.5 15.5 1621.5 18.5 Q 1618.5 21.5 1620.5 36.5 Q 1622.5 51.5 1627.5 59.5 L 1636.5 78.5 Q 1640.5 112.5 1602.5 127.5 Q 1584.5 135.5 1579.5 135.5 Q 1563.5 131.5 1567.5 121.5 Q 1567.5 116.5 1571.5 109.5 L 1575.5 92.5 Z" fill="lightgray"></path>
      </clipPath>
      <path clip-path="url(#make-me-a-hanzi-clip-14)" d="M 1578.5 124.5 L 1606.5 85.5 L 1592.5 14.5 L 1593.5 -7.5 L 1626.5 -8.5 L 1753.5 19.5 L 1881.5 32.5 L 1889.5 43.5 " fill="none" id="make-me-a-hanzi-animation-14" stroke-dasharray="576 1152" stroke-linecap="round"></path>

      <clipPath id="make-me-a-hanzi-clip-15">
      <path d="M 1894.5 25.5 L 1890.5 -39.5 Q 1891.5 -47.5 1898.5 -50.5 Q 1912.5 -58.5 1922.5 -47.5 Q 1932.5 -37.5 1934.5 -24.5 L 1940.5 9.5 L 1947.5 62.5 Q 1947.5 70.5 1951.5 81.5 Q 1953.5 93.5 1955.5 99.5 L 1961.5 113.5 Q 1964.5 119.5 1964.5 123.5 Q 1964.5 127.5 1954.5 136.5 Q 1944.5 145.5 1921.5 153.5 Q 1899.5 160.5 1892.5 153.5 Q 1885.5 151.5 1890.5 137.5 L 1894.5 129.5 Q 1900.5 105.5 1900.5 81.5 L 1897.5 48.5 L 1894.5 25.5 Z" fill="lightgray"></path>
      </clipPath>
      <path clip-path="url(#make-me-a-hanzi-clip-15)" d="M 1898.5 144.5 L 1928.5 116.5 L 1908.5 -36.5 " fill="none" id="make-me-a-hanzi-animation-15" stroke-dasharray="323 646" stroke-linecap="round"></path>

</g>
</svg>
