<svg version="1.1" viewBox="0 0 2048 1024" xmlns="http://www.w3.org/2000/svg">
  <g stroke="lightgray" stroke-dasharray="1,1" stroke-width="1" transform="scale(4, 4)">
    <line x1="0" y1="0" x2="256" y2="256"></line>
    <line x1="256" y1="0" x2="0" y2="256"></line>
    <line x1="128" y1="0" x2="128" y2="256"></line>
    <line x1="0" y1="128" x2="256" y2="128"></line>
    <line x1="256" y1="0" x2="512" y2="256"></line>
    <line x1="512" y1="0" x2="256" y2="256"></line>
    <line x1="384" y1="0" x2="384" y2="256"></line>
    <line x1="256" y1="128" x2="512" y2="128"></line>
  </g>
<g transform="scale(1, -1) translate(0, -850)">
   <style type="text/css">
    @keyframes keyframes0 {
      from {
       stroke: black;
       stroke-dashoffset: 987;
       stroke-width: 128;
       }
       76% {
       animation-timing-function: step-end;
       stroke: black;
       stroke-dashoffset: 0;
       stroke-width: 128;
       }
       to {
       stroke: black;
       stroke-width: 1024;
       }
       }
       #make-me-a-hanzi-animation-0 {
         animation: keyframes0 1.053223s both;
         animation-delay: 0.000000s;
         animation-timing-function: linear;
       }
    @keyframes keyframes1 {
      from {
       stroke: black;
       stroke-dashoffset: 1730;
       stroke-width: 128;
       }
       85% {
       animation-timing-function: step-end;
       stroke: black;
       stroke-dashoffset: 0;
       stroke-width: 128;
       }
       to {
       stroke: black;
       stroke-width: 1024;
       }
       }
       #make-me-a-hanzi-animation-1 {
         animation: keyframes1 1.657878s both;
         animation-delay: 1.053223s;
         animation-timing-function: linear;
       }
    @keyframes keyframes2 {
      from {
       stroke: black;
       stroke-dashoffset: 542;
       stroke-width: 128;
       }
       64% {
       animation-timing-function: step-end;
       stroke: black;
       stroke-dashoffset: 0;
       stroke-width: 128;
       }
       to {
       stroke: black;
       stroke-width: 1024;
       }
       }
       #make-me-a-hanzi-animation-2 {
         animation: keyframes2 0.691081s both;
         animation-delay: 2.711100s;
         animation-timing-function: linear;
       }
    @keyframes keyframes3 {
      from {
       stroke: black;
       stroke-dashoffset: 493;
       stroke-width: 128;
       }
       62% {
       animation-timing-function: step-end;
       stroke: black;
       stroke-dashoffset: 0;
       stroke-width: 128;
       }
       to {
       stroke: black;
       stroke-width: 1024;
       }
       }
       #make-me-a-hanzi-animation-3 {
         animation: keyframes3 0.651204s both;
         animation-delay: 3.402181s;
         animation-timing-function: linear;
       }
    @keyframes keyframes4 {
      from {
       stroke: black;
       stroke-dashoffset: 608;
       stroke-width: 128;
       }
       66% {
       animation-timing-function: step-end;
       stroke: black;
       stroke-dashoffset: 0;
       stroke-width: 128;
       }
       to {
       stroke: black;
       stroke-width: 1024;
       }
       }
       #make-me-a-hanzi-animation-4 {
         animation: keyframes4 0.744792s both;
         animation-delay: 4.053385s;
         animation-timing-function: linear;
       }
    @keyframes keyframes5 {
      from {
       stroke: black;
       stroke-dashoffset: 481;
       stroke-width: 128;
       }
       61% {
       animation-timing-function: step-end;
       stroke: black;
       stroke-dashoffset: 0;
       stroke-width: 128;
       }
       to {
       stroke: black;
       stroke-width: 1024;
       }
       }
       #make-me-a-hanzi-animation-5 {
         animation: keyframes5 0.641439s both;
         animation-delay: 4.798177s;
         animation-timing-function: linear;
       }
    @keyframes keyframes6 {
      from {
       stroke: black;
       stroke-dashoffset: 865;
       stroke-width: 128;
       }
       74% {
       animation-timing-function: step-end;
       stroke: black;
       stroke-dashoffset: 0;
       stroke-width: 128;
       }
       to {
       stroke: black;
       stroke-width: 1024;
       }
       }
       #make-me-a-hanzi-animation-6 {
         animation: keyframes6 0.953939s both;
         animation-delay: 5.439616s;
         animation-timing-function: linear;
       }
    @keyframes keyframes7 {
      from {
       stroke: black;
       stroke-dashoffset: 663;
       stroke-width: 128;
       }
       68% {
       animation-timing-function: step-end;
       stroke: black;
       stroke-dashoffset: 0;
       stroke-width: 128;
       }
       to {
       stroke: black;
       stroke-width: 1024;
       }
       }
       #make-me-a-hanzi-animation-7 {
         animation: keyframes7 0.789551s both;
         animation-delay: 6.393555s;
         animation-timing-function: linear;
       }
    @keyframes keyframes8 {
      from {
       stroke: black;
       stroke-dashoffset: 703;
       stroke-width: 128;
       }
       70% {
       animation-timing-function: step-end;
       stroke: black;
       stroke-dashoffset: 0;
       stroke-width: 128;
       }
       to {
       stroke: black;
       stroke-width: 1024;
       }
       }
       #make-me-a-hanzi-animation-8 {
         animation: keyframes8 0.822103s both;
         animation-delay: 7.183105s;
         animation-timing-function: linear;
       }
    @keyframes keyframes9 {
      from {
       stroke: black;
       stroke-dashoffset: 481;
       stroke-width: 128;
       }
       61% {
       animation-timing-function: step-end;
       stroke: black;
       stroke-dashoffset: 0;
       stroke-width: 128;
       }
       to {
       stroke: black;
       stroke-width: 1024;
       }
       }
       #make-me-a-hanzi-animation-9 {
         animation: keyframes9 0.641439s both;
         animation-delay: 8.005208s;
         animation-timing-function: linear;
       }
    @keyframes keyframes10 {
      from {
       stroke: black;
       stroke-dashoffset: 1029;
       stroke-width: 128;
       }
       77% {
       animation-timing-function: step-end;
       stroke: black;
       stroke-dashoffset: 0;
       stroke-width: 128;
       }
       to {
       stroke: black;
       stroke-width: 1024;
       }
       }
       #make-me-a-hanzi-animation-10 {
         animation: keyframes10 1.087402s both;
         animation-delay: 8.646647s;
         animation-timing-function: linear;
       }
    @keyframes keyframes11 {
      from {
       stroke: black;
       stroke-dashoffset: 401;
       stroke-width: 128;
       }
       57% {
       animation-timing-function: step-end;
       stroke: black;
       stroke-dashoffset: 0;
       stroke-width: 128;
       }
       to {
       stroke: black;
       stroke-width: 1024;
       }
       }
       #make-me-a-hanzi-animation-11 {
         animation: keyframes11 0.576335s both;
         animation-delay: 9.734049s;
         animation-timing-function: linear;
       }
    @keyframes keyframes12 {
      from {
       stroke: black;
       stroke-dashoffset: 475;
       stroke-width: 128;
       }
       61% {
       animation-timing-function: step-end;
       stroke: black;
       stroke-dashoffset: 0;
       stroke-width: 128;
       }
       to {
       stroke: black;
       stroke-width: 1024;
       }
       }
       #make-me-a-hanzi-animation-12 {
         animation: keyframes12 0.636556s both;
         animation-delay: 10.310384s;
         animation-timing-function: linear;
       }
</style>
<path d="M 268 590 L 253 598 Q 210 612 205 610 Q 198 610 194 606 Q 190 599 199 583 L 206 564 L 214 531 L 217 509 Q 218 501 218 476 L 215 363 Q 210 191 203 140 Q 197 68 184 19 Q 171 -30 170 -42 Q 169 -55 175 -73 Q 181 -91 195 -108 Q 209 -124 215 -123 Q 220 -122 226 -115 Q 233 -103 237 -86 Q 241 -68 241 -66 L 246 -6 L 253 96 Q 257 134 263 333 Q 269 531 269 548 C 270 578 270 589 268 590 Z" fill="lightgray"></path> 
<path d="M 269 548 L 353 562 Q 376 567 602 588 L 685 596 L 766 601 Q 774 602 786 600 Q 798 598 800 595 Q 809 586 809 554 L 811 442 L 811 240 Q 811 119 800 0 Q 794 -35 790 -45 Q 785 -56 773 -68 Q 760 -78 754 -79 Q 747 -79 727 -74 L 667 -54 Q 656 -52 655 -56 Q 654 -60 658 -64 L 673 -81 L 716 -126 L 743 -162 Q 752 -175 760 -182 Q 775 -197 801 -182 Q 874 -140 874 0 L 872 124 L 871 334 Q 870 436 871 467 L 874 512 Q 877 566 899 588 Q 901 600 900 602 Q 892 619 858 642 Q 823 665 813 665 Q 803 665 777 658 Q 751 650 654 634 Q 556 617 465 607 Q 373 597 368 597 L 268 590 C 238 588 239 543 269 548 Z" fill="lightgray"></path> 
<path d="M 616 427 Q 658 436 660 443 Q 662 444 660 449 Q 660 455 618 474 Q 598 479 588 478.5 Q 578 478 561.5 472.5 Q 545 467 495 457 Q 445 447 426 445 Q 407 443 374 438 Q 362 435 362 432.5 Q 362 430 367 422 Q 381 408 419 405 Q 457 402 549 417 L 616 427 Z" fill="lightgray"></path> 
<path d="M 412 284 L 383 294 L 368 297 Q 360 299 355 296 Q 349 292 351 286 Q 351 278 362 265 Q 373 252 374 217 L 378 164 Q 384 94 386 87 Q 387 80 391 70 Q 394 67 399 62 Q 404 56 408 56 Q 411 56 415 63 Q 419 70 419 76 Q 419 81 421 105 L 421 140 L 418 256 C 417 282 417 282 412 284 Z" fill="lightgray"></path> 
<path d="M 640 150 L 655 202 Q 656 206 665 227 Q 673 248 683 258 L 691 271 Q 692 280 682 290 Q 671 300 660 306 L 631 323 L 615 327 Q 609 328 590 321 Q 516 293 412 284 C 382 281 389 250 418 256 L 525 277 L 527 278 L 530 278 L 546 280 L 568 282 Q 593 282 597 262 L 597 257 L 596 248 L 595 237 L 582 160 C 577 130 632 121 640 150 Z" fill="lightgray"></path> 
<path d="M 421 105 L 603 119 L 649 120 Q 661 128 651 137 L 640 150 C 627 166 612 164 582 160 L 421 140 C 391 136 391 103 421 105 Z" fill="lightgray"></path> 
<path d="M 1496 506 L 1277 476 L 1231 471 Q 1221 469 1227 454.5 Q 1233 440 1280 429 Q 1290 426 1313 429 L 1377 442 L 1498 460 L 1566 468 L 1670 476 Q 1712 479 1754 480 L 1795 482 Q 1825 482 1843 488 Q 1850 492 1850 499 Q 1847 515 1818 530.5 Q 1789 546 1760 546 L 1716 538 L 1566 514 L 1496 506 Z" fill="lightgray"></path> 
<path d="M 1566 514 L 1568 603 Q 1568 632 1573 641 L 1581 664 Q 1581 680 1558 690 Q 1540 701 1516 704 Q 1491 706 1483 703 L 1476 695 Q 1474 690 1475 688 L 1481 672 Q 1487 657 1492 636 Q 1497 603 1497 580 L 1496 506 L 1498 460 L 1501 305 C 1502 275 1559 284 1560 314 L 1566 468 L 1566 514 Z" fill="lightgray"></path> 
<path d="M 1501 305 L 1350 286 Q 1312 280 1310 278 Q 1308 276 1307 274 L 1305 272 Q 1305 263 1330 251 Q 1355 239 1378 240 L 1458 254 L 1501 258 Q 1544 262 1567 266 Q 1579 266 1626.5 271 Q 1674 276 1711.5 274.5 Q 1749 273 1757 281 Q 1757 282 1759 284 L 1759 291 Q 1759 302 1730 317.5 Q 1701 333 1688 333 L 1672 331 Q 1658 329 1652 329 L 1560 314 L 1501 305 Z" fill="lightgray"></path> 
<path d="M 1245 117 Q 1240 137 1233 152 Q 1227 162 1223.5 160.5 Q 1220 159 1217 156 L 1206 113 Q 1202 101 1194.5 80 Q 1187 59 1181.5 52.5 Q 1176 46 1171.5 40 Q 1167 34 1158 22.5 Q 1149 11 1149 -1 Q 1149 -13 1151 -41 Q 1154 -52 1162 -66 Q 1175 -82 1183 -81 Q 1191 -80 1201 -70 Q 1232 -39 1244 35 Q 1249 66 1245 117 Z" fill="lightgray"></path> 
<path d="M 1741 42 Q 1728 54 1725 51.5 Q 1722 49 1728 34 L 1738 -3 L 1740 -14 L 1745 -24 L 1749 -45 Q 1751 -62 1750 -63 Q 1748 -75 1715 -84 Q 1687 -88 1679 -88 Q 1592 -94 1566 -88 Q 1507 -76 1464 -44 Q 1447 -32 1425.5 -6 Q 1404 20 1393 55 L 1378 106 Q 1371 132 1365 135 L 1362 138 Q 1361 138 1352.5 144.5 Q 1344 151 1336.5 150.5 Q 1329 150 1327 148 Q 1325 146 1327 136 L 1337 110 L 1352 59 Q 1365 6 1388 -30 Q 1457 -136 1580 -158 Q 1680 -175 1777 -153 Q 1833 -140 1849 -130 Q 1875 -111 1881 -103 Q 1889 -90 1888 -85 Q 1886 -66 1866 -54 L 1837 -38 Q 1823 -31 1788 -1 L 1774 11 L 1741 42 Z" fill="lightgray"></path> 
<path d="M 1520 100 Q 1547 64 1561 56 Q 1588 38 1604 48 Q 1610 54 1615 63 Q 1625 92 1606 124 Q 1598 136 1577 145.5 Q 1556 155 1537 159 L 1489 168 Q 1478 168 1478 156 Q 1478 154 1485 146 L 1520 100 Z" fill="lightgray"></path> 
<path d="M 1799 180 Q 1770 188 1769 184 Q 1766 181 1766 178 L 1769 172 L 1801 144 L 1900 41 Q 1907 34 1921 25 Q 1935 16 1944 18 Q 1964 24 1966 38 Q 1979 83 1945 117 Q 1936 124 1915 136 L 1879 156 Q 1863 163 1842 168 L 1799 180 Z" fill="lightgray"></path> 
      <clipPath id="make-me-a-hanzi-clip-0">
      <path d="M 268 590 L 253 598 Q 210 612 205 610 Q 198 610 194 606 Q 190 599 199 583 L 206 564 L 214 531 L 217 509 Q 218 501 218 476 L 215 363 Q 210 191 203 140 Q 197 68 184 19 Q 171 -30 170 -42 Q 169 -55 175 -73 Q 181 -91 195 -108 Q 209 -124 215 -123 Q 220 -122 226 -115 Q 233 -103 237 -86 Q 241 -68 241 -66 L 246 -6 L 253 96 Q 257 134 263 333 Q 269 531 269 548 C 270 578 270 589 268 590 Z" fill="lightgray"></path>
      </clipPath>
      <path clip-path="url(#make-me-a-hanzi-clip-0)" d="M 202 601 L 237 571 L 243 507 L 233 175 L 206 -48 L 215 -111 " fill="none" id="make-me-a-hanzi-animation-0" stroke-dasharray="859 1718" stroke-linecap="round"></path>

      <clipPath id="make-me-a-hanzi-clip-1">
      <path d="M 269 548 L 353 562 Q 376 567 602 588 L 685 596 L 766 601 Q 774 602 786 600 Q 798 598 800 595 Q 809 586 809 554 L 811 442 L 811 240 Q 811 119 800 0 Q 794 -35 790 -45 Q 785 -56 773 -68 Q 760 -78 754 -79 Q 747 -79 727 -74 L 667 -54 Q 656 -52 655 -56 Q 654 -60 658 -64 L 673 -81 L 716 -126 L 743 -162 Q 752 -175 760 -182 Q 775 -197 801 -182 Q 874 -140 874 0 L 872 124 L 871 334 Q 870 436 871 467 L 874 512 Q 877 566 899 588 Q 901 600 900 602 Q 892 619 858 642 Q 823 665 813 665 Q 803 665 777 658 Q 751 650 654 634 Q 556 617 465 607 Q 373 597 368 597 L 268 590 C 238 588 239 543 269 548 Z" fill="lightgray"></path>
      </clipPath>
      <path clip-path="url(#make-me-a-hanzi-clip-1)" d="M 275 555 L 291 572 L 587 602 L 793 630 L 818 625 L 849 594 L 840 464 L 840 69 L 837 -10 L 828 -61 L 811 -98 L 785 -126 L 746 -111 L 662 -58 " fill="none" id="make-me-a-hanzi-animation-1" stroke-dasharray="1602 3204" stroke-linecap="round"></path>

      <clipPath id="make-me-a-hanzi-clip-2">
      <path d="M 616 427 Q 658 436 660 443 Q 662 444 660 449 Q 660 455 618 474 Q 598 479 588 478.5 Q 578 478 561.5 472.5 Q 545 467 495 457 Q 445 447 426 445 Q 407 443 374 438 Q 362 435 362 432.5 Q 362 430 367 422 Q 381 408 419 405 Q 457 402 549 417 L 616 427 Z" fill="lightgray"></path>
      </clipPath>
      <path clip-path="url(#make-me-a-hanzi-clip-2)" d="M 370 430 L 412 424 L 455 427 L 586 451 L 653 446 " fill="none" id="make-me-a-hanzi-animation-2" stroke-dasharray="414 828" stroke-linecap="round"></path>

      <clipPath id="make-me-a-hanzi-clip-3">
      <path d="M 412 284 L 383 294 L 368 297 Q 360 299 355 296 Q 349 292 351 286 Q 351 278 362 265 Q 373 252 374 217 L 378 164 Q 384 94 386 87 Q 387 80 391 70 Q 394 67 399 62 Q 404 56 408 56 Q 411 56 415 63 Q 419 70 419 76 Q 419 81 421 105 L 421 140 L 418 256 C 417 282 417 282 412 284 Z" fill="lightgray"></path>
      </clipPath>
      <path clip-path="url(#make-me-a-hanzi-clip-3)" d="M 362 287 L 393 258 L 407 64 " fill="none" id="make-me-a-hanzi-animation-3" stroke-dasharray="365 730" stroke-linecap="round"></path>

      <clipPath id="make-me-a-hanzi-clip-4">
      <path d="M 640 150 L 655 202 Q 656 206 665 227 Q 673 248 683 258 L 691 271 Q 692 280 682 290 Q 671 300 660 306 L 631 323 L 615 327 Q 609 328 590 321 Q 516 293 412 284 C 382 281 389 250 418 256 L 525 277 L 527 278 L 530 278 L 546 280 L 568 282 Q 593 282 597 262 L 597 257 L 596 248 L 595 237 L 582 160 C 577 130 632 121 640 150 Z" fill="lightgray"></path>
      </clipPath>
      <path clip-path="url(#make-me-a-hanzi-clip-4)" d="M 421 279 L 429 272 L 562 297 L 613 296 L 638 266 L 618 185 L 591 166 " fill="none" id="make-me-a-hanzi-animation-4" stroke-dasharray="480 960" stroke-linecap="round"></path>

      <clipPath id="make-me-a-hanzi-clip-5">
      <path d="M 421 105 L 603 119 L 649 120 Q 661 128 651 137 L 640 150 C 627 166 612 164 582 160 L 421 140 C 391 136 391 103 421 105 Z" fill="lightgray"></path>
      </clipPath>
      <path clip-path="url(#make-me-a-hanzi-clip-5)" d="M 428 111 L 442 124 L 586 139 L 630 136 L 646 129 " fill="none" id="make-me-a-hanzi-animation-5" stroke-dasharray="353 706" stroke-linecap="round"></path>

      <clipPath id="make-me-a-hanzi-clip-6">
      <path d="M 1496 506 L 1277 476 L 1231 471 Q 1221 469 1227 454.5 Q 1233 440 1280 429 Q 1290 426 1313 429 L 1377 442 L 1498 460 L 1566 468 L 1670 476 Q 1712 479 1754 480 L 1795 482 Q 1825 482 1843 488 Q 1850 492 1850 499 Q 1847 515 1818 530.5 Q 1789 546 1760 546 L 1716 538 L 1566 514 L 1496 506 Z" fill="lightgray"></path>
      </clipPath>
      <path clip-path="url(#make-me-a-hanzi-clip-6)" d="M 1234 462 L 1294 453 L 1491 483 L 1758 513 L 1799 510 L 1837 499 " fill="none" id="make-me-a-hanzi-animation-6" stroke-dasharray="737 1474" stroke-linecap="round"></path>

      <clipPath id="make-me-a-hanzi-clip-7">
      <path d="M 1566 514 L 1568 603 Q 1568 632 1573 641 L 1581 664 Q 1581 680 1558 690 Q 1540 701 1516 704 Q 1491 706 1483 703 L 1476 695 Q 1474 690 1475 688 L 1481 672 Q 1487 657 1492 636 Q 1497 603 1497 580 L 1496 506 L 1498 460 L 1501 305 C 1502 275 1559 284 1560 314 L 1566 468 L 1566 514 Z" fill="lightgray"></path>
      </clipPath>
      <path clip-path="url(#make-me-a-hanzi-clip-7)" d="M 1489 691 L 1532 655 L 1531 340 L 1507 313 " fill="none" id="make-me-a-hanzi-animation-7" stroke-dasharray="535 1070" stroke-linecap="round"></path>

      <clipPath id="make-me-a-hanzi-clip-8">
      <path d="M 1501 305 L 1350 286 Q 1312 280 1310 278 Q 1308 276 1307 274 L 1305 272 Q 1305 263 1330 251 Q 1355 239 1378 240 L 1458 254 L 1501 258 Q 1544 262 1567 266 Q 1579 266 1626.5 271 Q 1674 276 1711.5 274.5 Q 1749 273 1757 281 Q 1757 282 1759 284 L 1759 291 Q 1759 302 1730 317.5 Q 1701 333 1688 333 L 1672 331 Q 1658 329 1652 329 L 1560 314 L 1501 305 Z" fill="lightgray"></path>
      </clipPath>
      <path clip-path="url(#make-me-a-hanzi-clip-8)" d="M 1309 270 L 1373 264 L 1688 304 L 1751 288 " fill="none" id="make-me-a-hanzi-animation-8" stroke-dasharray="575 1150" stroke-linecap="round"></path>

      <clipPath id="make-me-a-hanzi-clip-9">
      <path d="M 1245 117 Q 1240 137 1233 152 Q 1227 162 1223.5 160.5 Q 1220 159 1217 156 L 1206 113 Q 1202 101 1194.5 80 Q 1187 59 1181.5 52.5 Q 1176 46 1171.5 40 Q 1167 34 1158 22.5 Q 1149 11 1149 -1 Q 1149 -13 1151 -41 Q 1154 -52 1162 -66 Q 1175 -82 1183 -81 Q 1191 -80 1201 -70 Q 1232 -39 1244 35 Q 1249 66 1245 117 Z" fill="lightgray"></path>
      </clipPath>
      <path clip-path="url(#make-me-a-hanzi-clip-9)" d="M 1225 152 L 1226 108 L 1219 65 L 1191 -7 L 1183 -67 " fill="none" id="make-me-a-hanzi-animation-9" stroke-dasharray="353 706" stroke-linecap="round"></path>

      <clipPath id="make-me-a-hanzi-clip-10">
      <path d="M 1741 42 Q 1728 54 1725 51.5 Q 1722 49 1728 34 L 1738 -3 L 1740 -14 L 1745 -24 L 1749 -45 Q 1751 -62 1750 -63 Q 1748 -75 1715 -84 Q 1687 -88 1679 -88 Q 1592 -94 1566 -88 Q 1507 -76 1464 -44 Q 1447 -32 1425.5 -6 Q 1404 20 1393 55 L 1378 106 Q 1371 132 1365 135 L 1362 138 Q 1361 138 1352.5 144.5 Q 1344 151 1336.5 150.5 Q 1329 150 1327 148 Q 1325 146 1327 136 L 1337 110 L 1352 59 Q 1365 6 1388 -30 Q 1457 -136 1580 -158 Q 1680 -175 1777 -153 Q 1833 -140 1849 -130 Q 1875 -111 1881 -103 Q 1889 -90 1888 -85 Q 1886 -66 1866 -54 L 1837 -38 Q 1823 -31 1788 -1 L 1774 11 L 1741 42 Z" fill="lightgray"></path>
      </clipPath>
      <path clip-path="url(#make-me-a-hanzi-clip-10)" d="M 1334 142 L 1353 120 L 1391 6 L 1420 -37 L 1486 -91 L 1564 -121 L 1636 -128 L 1720 -123 L 1777 -106 L 1803 -85 L 1777 -30 L 1727 48 " fill="none" id="make-me-a-hanzi-animation-10" stroke-dasharray="901 1802" stroke-linecap="round"></path>

      <clipPath id="make-me-a-hanzi-clip-11">
      <path d="M 1520 100 Q 1547 64 1561 56 Q 1588 38 1604 48 Q 1610 54 1615 63 Q 1625 92 1606 124 Q 1598 136 1577 145.5 Q 1556 155 1537 159 L 1489 168 Q 1478 168 1478 156 Q 1478 154 1485 146 L 1520 100 Z" fill="lightgray"></path>
      </clipPath>
      <path clip-path="url(#make-me-a-hanzi-clip-11)" d="M 1488 158 L 1570 103 L 1593 63 " fill="none" id="make-me-a-hanzi-animation-11" stroke-dasharray="273 546" stroke-linecap="round"></path>

      <clipPath id="make-me-a-hanzi-clip-12">
      <path d="M 1799 180 Q 1770 188 1769 184 Q 1766 181 1766 178 L 1769 172 L 1801 144 L 1900 41 Q 1907 34 1921 25 Q 1935 16 1944 18 Q 1964 24 1966 38 Q 1979 83 1945 117 Q 1936 124 1915 136 L 1879 156 Q 1863 163 1842 168 L 1799 180 Z" fill="lightgray"></path>
      </clipPath>
      <path clip-path="url(#make-me-a-hanzi-clip-12)" d="M 1774 178 L 1880 115 L 1918 84 L 1941 43 " fill="none" id="make-me-a-hanzi-animation-12" stroke-dasharray="347 694" stroke-linecap="round"></path>

</g>
</svg>
