<svg version="1.1" viewBox="0 0 2048 1024" xmlns="http://www.w3.org/2000/svg">
  <g stroke="lightgray" stroke-dasharray="1,1" stroke-width="1" transform="scale(4, 4)">
    <line x1="0" y1="0" x2="256" y2="256"></line>
    <line x1="256" y1="0" x2="0" y2="256"></line>
    <line x1="128" y1="0" x2="128" y2="256"></line>
    <line x1="0" y1="128" x2="256" y2="128"></line>
    <line x1="256" y1="0" x2="512" y2="256"></line>
    <line x1="512" y1="0" x2="256" y2="256"></line>
    <line x1="384" y1="0" x2="384" y2="256"></line>
    <line x1="256" y1="128" x2="512" y2="128"></line>
  </g>
<g transform="scale(1, -1) translate(0, -850)">
   <style type="text/css">
    @keyframes keyframes0 {
      from {
       stroke: black;
       stroke-dashoffset: 987;
       stroke-width: 128;
       }
       76% {
       animation-timing-function: step-end;
       stroke: black;
       stroke-dashoffset: 0;
       stroke-width: 128;
       }
       to {
       stroke: black;
       stroke-width: 1024;
       }
       }
       #make-me-a-hanzi-animation-0 {
         animation: keyframes0 1.053223s both;
         animation-delay: 0.000000s;
         animation-timing-function: linear;
       }
    @keyframes keyframes1 {
      from {
       stroke: black;
       stroke-dashoffset: 1730;
       stroke-width: 128;
       }
       85% {
       animation-timing-function: step-end;
       stroke: black;
       stroke-dashoffset: 0;
       stroke-width: 128;
       }
       to {
       stroke: black;
       stroke-width: 1024;
       }
       }
       #make-me-a-hanzi-animation-1 {
         animation: keyframes1 1.657878s both;
         animation-delay: 1.053223s;
         animation-timing-function: linear;
       }
    @keyframes keyframes2 {
      from {
       stroke: black;
       stroke-dashoffset: 542;
       stroke-width: 128;
       }
       64% {
       animation-timing-function: step-end;
       stroke: black;
       stroke-dashoffset: 0;
       stroke-width: 128;
       }
       to {
       stroke: black;
       stroke-width: 1024;
       }
       }
       #make-me-a-hanzi-animation-2 {
         animation: keyframes2 0.691081s both;
         animation-delay: 2.711100s;
         animation-timing-function: linear;
       }
    @keyframes keyframes3 {
      from {
       stroke: black;
       stroke-dashoffset: 493;
       stroke-width: 128;
       }
       62% {
       animation-timing-function: step-end;
       stroke: black;
       stroke-dashoffset: 0;
       stroke-width: 128;
       }
       to {
       stroke: black;
       stroke-width: 1024;
       }
       }
       #make-me-a-hanzi-animation-3 {
         animation: keyframes3 0.651204s both;
         animation-delay: 3.402181s;
         animation-timing-function: linear;
       }
    @keyframes keyframes4 {
      from {
       stroke: black;
       stroke-dashoffset: 608;
       stroke-width: 128;
       }
       66% {
       animation-timing-function: step-end;
       stroke: black;
       stroke-dashoffset: 0;
       stroke-width: 128;
       }
       to {
       stroke: black;
       stroke-width: 1024;
       }
       }
       #make-me-a-hanzi-animation-4 {
         animation: keyframes4 0.744792s both;
         animation-delay: 4.053385s;
         animation-timing-function: linear;
       }
    @keyframes keyframes5 {
      from {
       stroke: black;
       stroke-dashoffset: 481;
       stroke-width: 128;
       }
       61% {
       animation-timing-function: step-end;
       stroke: black;
       stroke-dashoffset: 0;
       stroke-width: 128;
       }
       to {
       stroke: black;
       stroke-width: 1024;
       }
       }
       #make-me-a-hanzi-animation-5 {
         animation: keyframes5 0.641439s both;
         animation-delay: 4.798177s;
         animation-timing-function: linear;
       }
    @keyframes keyframes6 {
      from {
       stroke: black;
       stroke-dashoffset: 676;
       stroke-width: 128;
       }
       69% {
       animation-timing-function: step-end;
       stroke: black;
       stroke-dashoffset: 0;
       stroke-width: 128;
       }
       to {
       stroke: black;
       stroke-width: 1024;
       }
       }
       #make-me-a-hanzi-animation-6 {
         animation: keyframes6 0.800130s both;
         animation-delay: 5.439616s;
         animation-timing-function: linear;
       }
    @keyframes keyframes7 {
      from {
       stroke: black;
       stroke-dashoffset: 768;
       stroke-width: 128;
       }
       71% {
       animation-timing-function: step-end;
       stroke: black;
       stroke-dashoffset: 0;
       stroke-width: 128;
       }
       to {
       stroke: black;
       stroke-width: 1024;
       }
       }
       #make-me-a-hanzi-animation-7 {
         animation: keyframes7 0.875000s both;
         animation-delay: 6.239746s;
         animation-timing-function: linear;
       }
    @keyframes keyframes8 {
      from {
       stroke: black;
       stroke-dashoffset: 784;
       stroke-width: 128;
       }
       72% {
       animation-timing-function: step-end;
       stroke: black;
       stroke-dashoffset: 0;
       stroke-width: 128;
       }
       to {
       stroke: black;
       stroke-width: 1024;
       }
       }
       #make-me-a-hanzi-animation-8 {
         animation: keyframes8 0.888021s both;
         animation-delay: 7.114746s;
         animation-timing-function: linear;
       }
    @keyframes keyframes9 {
      from {
       stroke: black;
       stroke-dashoffset: 392;
       stroke-width: 128;
       }
       56% {
       animation-timing-function: step-end;
       stroke: black;
       stroke-dashoffset: 0;
       stroke-width: 128;
       }
       to {
       stroke: black;
       stroke-width: 1024;
       }
       }
       #make-me-a-hanzi-animation-9 {
         animation: keyframes9 0.569010s both;
         animation-delay: 8.002767s;
         animation-timing-function: linear;
       }
    @keyframes keyframes10 {
      from {
       stroke: black;
       stroke-dashoffset: 393;
       stroke-width: 128;
       }
       56% {
       animation-timing-function: step-end;
       stroke: black;
       stroke-dashoffset: 0;
       stroke-width: 128;
       }
       to {
       stroke: black;
       stroke-width: 1024;
       }
       }
       #make-me-a-hanzi-animation-10 {
         animation: keyframes10 0.569824s both;
         animation-delay: 8.571777s;
         animation-timing-function: linear;
       }
    @keyframes keyframes11 {
      from {
       stroke: black;
       stroke-dashoffset: 725;
       stroke-width: 128;
       }
       70% {
       animation-timing-function: step-end;
       stroke: black;
       stroke-dashoffset: 0;
       stroke-width: 128;
       }
       to {
       stroke: black;
       stroke-width: 1024;
       }
       }
       #make-me-a-hanzi-animation-11 {
         animation: keyframes11 0.840007s both;
         animation-delay: 9.141602s;
         animation-timing-function: linear;
       }
    @keyframes keyframes12 {
      from {
       stroke: black;
       stroke-dashoffset: 528;
       stroke-width: 128;
       }
       63% {
       animation-timing-function: step-end;
       stroke: black;
       stroke-dashoffset: 0;
       stroke-width: 128;
       }
       to {
       stroke: black;
       stroke-width: 1024;
       }
       }
       #make-me-a-hanzi-animation-12 {
         animation: keyframes12 0.679688s both;
         animation-delay: 9.981608s;
         animation-timing-function: linear;
       }
    @keyframes keyframes13 {
      from {
       stroke: black;
       stroke-dashoffset: 416;
       stroke-width: 128;
       }
       58% {
       animation-timing-function: step-end;
       stroke: black;
       stroke-dashoffset: 0;
       stroke-width: 128;
       }
       to {
       stroke: black;
       stroke-width: 1024;
       }
       }
       #make-me-a-hanzi-animation-13 {
         animation: keyframes13 0.588542s both;
         animation-delay: 10.661296s;
         animation-timing-function: linear;
       }
    @keyframes keyframes14 {
      from {
       stroke: black;
       stroke-dashoffset: 1006;
       stroke-width: 128;
       }
       77% {
       animation-timing-function: step-end;
       stroke: black;
       stroke-dashoffset: 0;
       stroke-width: 128;
       }
       to {
       stroke: black;
       stroke-width: 1024;
       }
       }
       #make-me-a-hanzi-animation-14 {
         animation: keyframes14 1.068685s both;
         animation-delay: 11.249837s;
         animation-timing-function: linear;
       }
    @keyframes keyframes15 {
      from {
       stroke: black;
       stroke-dashoffset: 1201;
       stroke-width: 128;
       }
       80% {
       animation-timing-function: step-end;
       stroke: black;
       stroke-dashoffset: 0;
       stroke-width: 128;
       }
       to {
       stroke: black;
       stroke-width: 1024;
       }
       }
       #make-me-a-hanzi-animation-15 {
         animation: keyframes15 1.227376s both;
         animation-delay: 12.318522s;
         animation-timing-function: linear;
       }
    @keyframes keyframes16 {
      from {
       stroke: black;
       stroke-dashoffset: 394;
       stroke-width: 128;
       }
       56% {
       animation-timing-function: step-end;
       stroke: black;
       stroke-dashoffset: 0;
       stroke-width: 128;
       }
       to {
       stroke: black;
       stroke-width: 1024;
       }
       }
       #make-me-a-hanzi-animation-16 {
         animation: keyframes16 0.570638s both;
         animation-delay: 13.545898s;
         animation-timing-function: linear;
       }
    @keyframes keyframes17 {
      from {
       stroke: black;
       stroke-dashoffset: 406;
       stroke-width: 128;
       }
       57% {
       animation-timing-function: step-end;
       stroke: black;
       stroke-dashoffset: 0;
       stroke-width: 128;
       }
       to {
       stroke: black;
       stroke-width: 1024;
       }
       }
       #make-me-a-hanzi-animation-17 {
         animation: keyframes17 0.580404s both;
         animation-delay: 14.116536s;
         animation-timing-function: linear;
       }
</style>
<path d="M 268 660 L 253 668 Q 210 682 205 680 Q 198 680 194 676 Q 190 669 199 653 L 206 634 L 214 601 L 217 579 Q 218 571 218 546 L 215 433 Q 210 261 203 210 Q 197 138 184 89 Q 171 40 170 28 Q 169 15 175 -3 Q 181 -21 195 -38 Q 209 -54 215 -53 Q 220 -52 226 -45 Q 233 -33 237 -16 Q 241 2 241 4 L 246 64 L 253 166 Q 257 204 263 403 Q 269 601 269 618 C 270 648 270 659 268 660 Z" fill="lightgray"></path> 
<path d="M 269 618 L 353 632 Q 376 637 602 658 L 685 666 L 766 671 Q 774 672 786 670 Q 798 668 800 665 Q 809 656 809 624 L 811 512 L 811 310 Q 811 189 800 70 Q 794 35 790 25 Q 785 14 773 2 Q 760 -8 754 -9 Q 747 -9 727 -4 L 667 16 Q 656 18 655 14 Q 654 10 658 6 L 673 -11 L 716 -56 L 743 -92 Q 752 -105 760 -112 Q 775 -127 801 -112 Q 874 -70 874 70 L 872 194 L 871 404 Q 870 506 871 537 L 874 582 Q 877 636 899 658 Q 901 670 900 672 Q 892 689 858 712 Q 823 735 813 735 Q 803 735 777 728 Q 751 720 654 704 Q 556 687 465 677 Q 373 667 368 667 L 268 660 C 238 658 239 613 269 618 Z" fill="lightgray"></path> 
<path d="M 616 497 Q 658 506 660 513 Q 662 514 660 519 Q 660 525 618 544 Q 598 549 588 548.5 Q 578 548 561.5 542.5 Q 545 537 495 527 Q 445 517 426 515 Q 407 513 374 508 Q 362 505 362 502.5 Q 362 500 367 492 Q 381 478 419 475 Q 457 472 549 487 L 616 497 Z" fill="lightgray"></path> 
<path d="M 412 354 L 383 364 L 368 367 Q 360 369 355 366 Q 349 362 351 356 Q 351 348 362 335 Q 373 322 374 287 L 378 234 Q 384 164 386 157 Q 387 150 391 140 Q 394 137 399 132 Q 404 126 408 126 Q 411 126 415 133 Q 419 140 419 146 Q 419 151 421 175 L 421 210 L 418 326 C 417 352 417 352 412 354 Z" fill="lightgray"></path> 
<path d="M 640 220 L 655 272 Q 656 276 665 297 Q 673 318 683 328 L 691 341 Q 692 350 682 360 Q 671 370 660 376 L 631 393 L 615 397 Q 609 398 590 391 Q 516 363 412 354 C 382 351 389 320 418 326 L 525 347 L 527 348 L 530 348 L 546 350 L 568 352 Q 593 352 597 332 L 597 327 L 596 318 L 595 307 L 582 230 C 577 200 632 191 640 220 Z" fill="lightgray"></path> 
<path d="M 421 175 L 603 189 L 649 190 Q 661 198 651 207 L 640 220 C 627 236 612 234 582 230 L 421 210 C 391 206 391 173 421 175 Z" fill="lightgray"></path> 
<path d="M 1249 480 L 1260 482 Q 1271 482 1274 484 L 1327 487 L 1467 506 L 1521 513 L 1578 526 Q 1595 529 1599 533 Q 1603 536 1606 542 Q 1606 546 1603 554 Q 1598 562 1578 567 Q 1558 571 1552 571 Q 1546 571 1524 565 L 1469 554 L 1400 540 Q 1390 537 1328 529 L 1274 522 L 1194 513 Q 1174 510 1172 509 Q 1170 507 1174 498 Q 1177 483 1226 479 Q 1237 478 1249 480 Z" fill="lightgray"></path> 
<path d="M 1274 484 L 1270 196 C 1270 166 1320 172 1320 202 L 1320 276 L 1322 306 L 1324 374 L 1325 404 L 1327 487 L 1328 529 L 1336 593 Q 1339 623 1349 643 Q 1359 663 1349 672 Q 1325 693 1296 698 Q 1282 703 1269 702 Q 1257 700 1253 695 Q 1249 690 1250 686 L 1259 666 Q 1266 648 1268 626 Q 1272 607 1272 586 L 1274 522 L 1274 484 Z" fill="lightgray"></path> 
<path d="M 1511 231 L 1521 513 L 1524 565 L 1530 632 Q 1530 652 1539 673 Q 1550 693 1548 698 Q 1548 705 1540 713 Q 1533 720 1501 733 Q 1469 746 1459 743 Q 1449 740 1448 735 Q 1447 730 1456 702 Q 1465 674 1468 632 L 1469 554 L 1467 506 L 1467 420 L 1467 395 L 1465 323 L 1465 296 L 1463 224 C 1462 194 1510 201 1511 231 Z" fill="lightgray"></path> 
<path d="M 1324 374 L 1354 372 Q 1363 369 1400 380 L 1467 395 C 1496 402 1496 414 1467 420 L 1446 424 Q 1434 427 1421 426 L 1386 417 Q 1352 408 1325 404 C 1295 399 1294 376 1324 374 Z" fill="lightgray"></path> 
<path d="M 1320 276 L 1344 276 Q 1361 274 1386 281 L 1465 296 C 1494 302 1494 316 1465 323 L 1443 328 Q 1430 330 1422 330 L 1385 320 Q 1345 310 1322 306 C 1292 301 1290 276 1320 276 Z" fill="lightgray"></path> 
<path d="M 1270 196 L 1136 179 Q 1124 179 1122 176 Q 1109 165 1144 146 Q 1169 132 1182 132 Q 1196 132 1217 137 L 1272 150 L 1452 181 Q 1483 185 1539 191 Q 1596 197 1599 200 Q 1608 212 1585 225 Q 1563 237 1542 235 L 1511 231 L 1463 224 L 1320 202 L 1270 196 Z" fill="lightgray"></path> 
<path d="M 1173 -44 L 1152 -62 Q 1145 -69 1146 -73 Q 1148 -78 1162 -73 L 1187 -62 Q 1201 -57 1230 -36 L 1277 -2 Q 1302 18 1318 34 Q 1334 50 1344 58 L 1367 75 Q 1380 82 1373 93 Q 1367 103 1348 111 Q 1300 128 1294 123 Q 1288 118 1286 99 Q 1284 80 1259 50 L 1224 9 L 1197 -18 L 1173 -44 Z" fill="lightgray"></path> 
<path d="M 1448 112 L 1456 102 Q 1456 98 1480 68 Q 1504 38 1511 26 L 1524 6 Q 1548 -20 1561 5 Q 1567 18 1566 42 Q 1565 66 1551 78 Q 1537 90 1513 104 Q 1490 117 1472 122 L 1456 128 Q 1444 133 1440 129 Q 1437 124 1448 112 Z" fill="lightgray"></path> 
<path d="M 1700 178 L 1705 223 L 1708 254 L 1714 316 Q 1715 324 1717 374 L 1717 404 L 1721 501 Q 1722 534 1725 543 L 1734 562 C 1744 585 1744 585 1721 596 L 1700 606 Q 1697 606 1681 612 Q 1666 618 1652 616 Q 1630 612 1643 590 Q 1660 556 1662 495 Q 1663 479 1663 437 L 1662 349 Q 1659 261 1647 190 Q 1635 119 1604 42 Q 1585 7 1580 0 L 1535 -62 L 1524 -75 Q 1516 -84 1517 -88 Q 1517 -98 1538 -85 L 1560 -70 Q 1571 -63 1600 -34 L 1639 14 Q 1676 71 1686 114 Q 1697 157 1700 178 Z" fill="lightgray"></path> 
<path d="M 1865 238 L 1863 146 Q 1861 134 1859 64 Q 1857 -7 1845 -14 Q 1839 -19 1826 -18 L 1806 -15 L 1761 -5 Q 1760 -4 1754 -6 Q 1748 -8 1748 -11 Q 1753 -16 1756 -18 L 1802 -58 Q 1817 -75 1830 -91 Q 1843 -107 1849 -110 Q 1857 -118 1866 -116 Q 1875 -116 1890 -97 Q 1914 -68 1925 -6 Q 1929 99 1923 179 Q 1920 256 1921 275 L 1924 445 Q 1924 511 1928 527 Q 1932 542 1941 559 Q 1951 575 1950 579 Q 1949 583 1940 595 Q 1913 622 1889 629 Q 1865 635 1861 634 L 1794 612 L 1758 603 L 1721 596 C 1692 590 1705 555 1734 562 L 1770 570 L 1822 579 Q 1844 583 1851 579 Q 1868 570 1868 526 L 1866 418 L 1865 398 L 1866 264 L 1865 238 Z" fill="lightgray"></path> 
<path d="M 1717 374 L 1732 372 Q 1752 367 1770 373 L 1865 398 C 1894 406 1895 410 1866 418 L 1833 427 Q 1806 433 1772 422 L 1717 404 C 1688 395 1687 378 1717 374 Z" fill="lightgray"></path> 
<path d="M 1705 223 L 1719 220 Q 1731 217 1740 218 Q 1749 218 1799 227 L 1865 238 C 1895 243 1895 258 1866 264 L 1838 270 Q 1821 274 1811 274 Q 1801 274 1776 268 Q 1752 262 1745 261 L 1708 254 C 1679 248 1676 229 1705 223 Z" fill="lightgray"></path> 
      <clipPath id="make-me-a-hanzi-clip-0">
      <path d="M 268 660 L 253 668 Q 210 682 205 680 Q 198 680 194 676 Q 190 669 199 653 L 206 634 L 214 601 L 217 579 Q 218 571 218 546 L 215 433 Q 210 261 203 210 Q 197 138 184 89 Q 171 40 170 28 Q 169 15 175 -3 Q 181 -21 195 -38 Q 209 -54 215 -53 Q 220 -52 226 -45 Q 233 -33 237 -16 Q 241 2 241 4 L 246 64 L 253 166 Q 257 204 263 403 Q 269 601 269 618 C 270 648 270 659 268 660 Z" fill="lightgray"></path>
      </clipPath>
      <path clip-path="url(#make-me-a-hanzi-clip-0)" d="M 202 671 L 237 641 L 243 577 L 233 245 L 206 22 L 215 -41 " fill="none" id="make-me-a-hanzi-animation-0" stroke-dasharray="859 1718" stroke-linecap="round"></path>

      <clipPath id="make-me-a-hanzi-clip-1">
      <path d="M 269 618 L 353 632 Q 376 637 602 658 L 685 666 L 766 671 Q 774 672 786 670 Q 798 668 800 665 Q 809 656 809 624 L 811 512 L 811 310 Q 811 189 800 70 Q 794 35 790 25 Q 785 14 773 2 Q 760 -8 754 -9 Q 747 -9 727 -4 L 667 16 Q 656 18 655 14 Q 654 10 658 6 L 673 -11 L 716 -56 L 743 -92 Q 752 -105 760 -112 Q 775 -127 801 -112 Q 874 -70 874 70 L 872 194 L 871 404 Q 870 506 871 537 L 874 582 Q 877 636 899 658 Q 901 670 900 672 Q 892 689 858 712 Q 823 735 813 735 Q 803 735 777 728 Q 751 720 654 704 Q 556 687 465 677 Q 373 667 368 667 L 268 660 C 238 658 239 613 269 618 Z" fill="lightgray"></path>
      </clipPath>
      <path clip-path="url(#make-me-a-hanzi-clip-1)" d="M 275 625 L 291 642 L 587 672 L 793 700 L 818 695 L 849 664 L 840 534 L 840 139 L 837 60 L 828 9 L 811 -28 L 785 -56 L 746 -41 L 662 12 " fill="none" id="make-me-a-hanzi-animation-1" stroke-dasharray="1602 3204" stroke-linecap="round"></path>

      <clipPath id="make-me-a-hanzi-clip-2">
      <path d="M 616 497 Q 658 506 660 513 Q 662 514 660 519 Q 660 525 618 544 Q 598 549 588 548.5 Q 578 548 561.5 542.5 Q 545 537 495 527 Q 445 517 426 515 Q 407 513 374 508 Q 362 505 362 502.5 Q 362 500 367 492 Q 381 478 419 475 Q 457 472 549 487 L 616 497 Z" fill="lightgray"></path>
      </clipPath>
      <path clip-path="url(#make-me-a-hanzi-clip-2)" d="M 370 500 L 412 494 L 455 497 L 586 521 L 653 516 " fill="none" id="make-me-a-hanzi-animation-2" stroke-dasharray="414 828" stroke-linecap="round"></path>

      <clipPath id="make-me-a-hanzi-clip-3">
      <path d="M 412 354 L 383 364 L 368 367 Q 360 369 355 366 Q 349 362 351 356 Q 351 348 362 335 Q 373 322 374 287 L 378 234 Q 384 164 386 157 Q 387 150 391 140 Q 394 137 399 132 Q 404 126 408 126 Q 411 126 415 133 Q 419 140 419 146 Q 419 151 421 175 L 421 210 L 418 326 C 417 352 417 352 412 354 Z" fill="lightgray"></path>
      </clipPath>
      <path clip-path="url(#make-me-a-hanzi-clip-3)" d="M 362 357 L 393 328 L 407 134 " fill="none" id="make-me-a-hanzi-animation-3" stroke-dasharray="365 730" stroke-linecap="round"></path>

      <clipPath id="make-me-a-hanzi-clip-4">
      <path d="M 640 220 L 655 272 Q 656 276 665 297 Q 673 318 683 328 L 691 341 Q 692 350 682 360 Q 671 370 660 376 L 631 393 L 615 397 Q 609 398 590 391 Q 516 363 412 354 C 382 351 389 320 418 326 L 525 347 L 527 348 L 530 348 L 546 350 L 568 352 Q 593 352 597 332 L 597 327 L 596 318 L 595 307 L 582 230 C 577 200 632 191 640 220 Z" fill="lightgray"></path>
      </clipPath>
      <path clip-path="url(#make-me-a-hanzi-clip-4)" d="M 421 349 L 429 342 L 562 367 L 613 366 L 638 336 L 618 255 L 591 236 " fill="none" id="make-me-a-hanzi-animation-4" stroke-dasharray="480 960" stroke-linecap="round"></path>

      <clipPath id="make-me-a-hanzi-clip-5">
      <path d="M 421 175 L 603 189 L 649 190 Q 661 198 651 207 L 640 220 C 627 236 612 234 582 230 L 421 210 C 391 206 391 173 421 175 Z" fill="lightgray"></path>
      </clipPath>
      <path clip-path="url(#make-me-a-hanzi-clip-5)" d="M 428 181 L 442 194 L 586 209 L 630 206 L 646 199 " fill="none" id="make-me-a-hanzi-animation-5" stroke-dasharray="353 706" stroke-linecap="round"></path>

      <clipPath id="make-me-a-hanzi-clip-6">
      <path d="M 1249 480 L 1260 482 Q 1271 482 1274 484 L 1327 487 L 1467 506 L 1521 513 L 1578 526 Q 1595 529 1599 533 Q 1603 536 1606 542 Q 1606 546 1603 554 Q 1598 562 1578 567 Q 1558 571 1552 571 Q 1546 571 1524 565 L 1469 554 L 1400 540 Q 1390 537 1328 529 L 1274 522 L 1194 513 Q 1174 510 1172 509 Q 1170 507 1174 498 Q 1177 483 1226 479 Q 1237 478 1249 480 Z" fill="lightgray"></path>
      </clipPath>
      <path clip-path="url(#make-me-a-hanzi-clip-6)" d="M 1177 504 L 1216 497 L 1306 505 L 1551 545 L 1593 545 " fill="none" id="make-me-a-hanzi-animation-6" stroke-dasharray="548 1096" stroke-linecap="round"></path>

      <clipPath id="make-me-a-hanzi-clip-7">
      <path d="M 1274 484 L 1270 196 C 1270 166 1320 172 1320 202 L 1320 276 L 1322 306 L 1324 374 L 1325 404 L 1327 487 L 1328 529 L 1336 593 Q 1339 623 1349 643 Q 1359 663 1349 672 Q 1325 693 1296 698 Q 1282 703 1269 702 Q 1257 700 1253 695 Q 1249 690 1250 686 L 1259 666 Q 1266 648 1268 626 Q 1272 607 1272 586 L 1274 522 L 1274 484 Z" fill="lightgray"></path>
      </clipPath>
      <path clip-path="url(#make-me-a-hanzi-clip-7)" d="M 1264 686 L 1283 676 L 1307 651 L 1296 224 L 1275 204 " fill="none" id="make-me-a-hanzi-animation-7" stroke-dasharray="640 1280" stroke-linecap="round"></path>

      <clipPath id="make-me-a-hanzi-clip-8">
      <path d="M 1511 231 L 1521 513 L 1524 565 L 1530 632 Q 1530 652 1539 673 Q 1550 693 1548 698 Q 1548 705 1540 713 Q 1533 720 1501 733 Q 1469 746 1459 743 Q 1449 740 1448 735 Q 1447 730 1456 702 Q 1465 674 1468 632 L 1469 554 L 1467 506 L 1467 420 L 1467 395 L 1465 323 L 1465 296 L 1463 224 C 1462 194 1510 201 1511 231 Z" fill="lightgray"></path>
      </clipPath>
      <path clip-path="url(#make-me-a-hanzi-clip-8)" d="M 1458 733 L 1501 689 L 1488 252 L 1468 231 " fill="none" id="make-me-a-hanzi-animation-8" stroke-dasharray="656 1312" stroke-linecap="round"></path>

      <clipPath id="make-me-a-hanzi-clip-9">
      <path d="M 1324 374 L 1354 372 Q 1363 369 1400 380 L 1467 395 C 1496 402 1496 414 1467 420 L 1446 424 Q 1434 427 1421 426 L 1386 417 Q 1352 408 1325 404 C 1295 399 1294 376 1324 374 Z" fill="lightgray"></path>
      </clipPath>
      <path clip-path="url(#make-me-a-hanzi-clip-9)" d="M 1332 381 L 1341 390 L 1452 407 L 1460 414 " fill="none" id="make-me-a-hanzi-animation-9" stroke-dasharray="264 528" stroke-linecap="round"></path>

      <clipPath id="make-me-a-hanzi-clip-10">
      <path d="M 1320 276 L 1344 276 Q 1361 274 1386 281 L 1465 296 C 1494 302 1494 316 1465 323 L 1443 328 Q 1430 330 1422 330 L 1385 320 Q 1345 310 1322 306 C 1292 301 1290 276 1320 276 Z" fill="lightgray"></path>
      </clipPath>
      <path clip-path="url(#make-me-a-hanzi-clip-10)" d="M 1326 283 L 1338 292 L 1458 316 " fill="none" id="make-me-a-hanzi-animation-10" stroke-dasharray="265 530" stroke-linecap="round"></path>

      <clipPath id="make-me-a-hanzi-clip-11">
      <path d="M 1270 196 L 1136 179 Q 1124 179 1122 176 Q 1109 165 1144 146 Q 1169 132 1182 132 Q 1196 132 1217 137 L 1272 150 L 1452 181 Q 1483 185 1539 191 Q 1596 197 1599 200 Q 1608 212 1585 225 Q 1563 237 1542 235 L 1511 231 L 1463 224 L 1320 202 L 1270 196 Z" fill="lightgray"></path>
      </clipPath>
      <path clip-path="url(#make-me-a-hanzi-clip-11)" d="M 1130 168 L 1186 158 L 1537 213 L 1594 207 " fill="none" id="make-me-a-hanzi-animation-11" stroke-dasharray="597 1194" stroke-linecap="round"></path>

      <clipPath id="make-me-a-hanzi-clip-12">
      <path d="M 1173 -44 L 1152 -62 Q 1145 -69 1146 -73 Q 1148 -78 1162 -73 L 1187 -62 Q 1201 -57 1230 -36 L 1277 -2 Q 1302 18 1318 34 Q 1334 50 1344 58 L 1367 75 Q 1380 82 1373 93 Q 1367 103 1348 111 Q 1300 128 1294 123 Q 1288 118 1286 99 Q 1284 80 1259 50 L 1224 9 L 1197 -18 L 1173 -44 Z" fill="lightgray"></path>
      </clipPath>
      <path clip-path="url(#make-me-a-hanzi-clip-12)" d="M 1364 86 L 1318 81 L 1258 12 L 1193 -44 L 1151 -69 " fill="none" id="make-me-a-hanzi-animation-12" stroke-dasharray="400 800" stroke-linecap="round"></path>

      <clipPath id="make-me-a-hanzi-clip-13">
      <path d="M 1448 112 L 1456 102 Q 1456 98 1480 68 Q 1504 38 1511 26 L 1524 6 Q 1548 -20 1561 5 Q 1567 18 1566 42 Q 1565 66 1551 78 Q 1537 90 1513 104 Q 1490 117 1472 122 L 1456 128 Q 1444 133 1440 129 Q 1437 124 1448 112 Z" fill="lightgray"></path>
      </clipPath>
      <path clip-path="url(#make-me-a-hanzi-clip-13)" d="M 1444 126 L 1533 51 L 1545 9 " fill="none" id="make-me-a-hanzi-animation-13" stroke-dasharray="288 576" stroke-linecap="round"></path>

      <clipPath id="make-me-a-hanzi-clip-14">
      <path d="M 1700 178 L 1705 223 L 1708 254 L 1714 316 Q 1715 324 1717 374 L 1717 404 L 1721 501 Q 1722 534 1725 543 L 1734 562 C 1744 585 1744 585 1721 596 L 1700 606 Q 1697 606 1681 612 Q 1666 618 1652 616 Q 1630 612 1643 590 Q 1660 556 1662 495 Q 1663 479 1663 437 L 1662 349 Q 1659 261 1647 190 Q 1635 119 1604 42 Q 1585 7 1580 0 L 1535 -62 L 1524 -75 Q 1516 -84 1517 -88 Q 1517 -98 1538 -85 L 1560 -70 Q 1571 -63 1600 -34 L 1639 14 Q 1676 71 1686 114 Q 1697 157 1700 178 Z" fill="lightgray"></path>
      </clipPath>
      <path clip-path="url(#make-me-a-hanzi-clip-14)" d="M 1652 601 L 1668 592 L 1692 564 L 1691 364 L 1675 188 L 1651 91 L 1626 33 L 1581 -29 L 1525 -84 " fill="none" id="make-me-a-hanzi-animation-14" stroke-dasharray="878 1756" stroke-linecap="round"></path>

      <clipPath id="make-me-a-hanzi-clip-15">
      <path d="M 1865 238 L 1863 146 Q 1861 134 1859 64 Q 1857 -7 1845 -14 Q 1839 -19 1826 -18 L 1806 -15 L 1761 -5 Q 1760 -4 1754 -6 Q 1748 -8 1748 -11 Q 1753 -16 1756 -18 L 1802 -58 Q 1817 -75 1830 -91 Q 1843 -107 1849 -110 Q 1857 -118 1866 -116 Q 1875 -116 1890 -97 Q 1914 -68 1925 -6 Q 1929 99 1923 179 Q 1920 256 1921 275 L 1924 445 Q 1924 511 1928 527 Q 1932 542 1941 559 Q 1951 575 1950 579 Q 1949 583 1940 595 Q 1913 622 1889 629 Q 1865 635 1861 634 L 1794 612 L 1758 603 L 1721 596 C 1692 590 1705 555 1734 562 L 1770 570 L 1822 579 Q 1844 583 1851 579 Q 1868 570 1868 526 L 1866 418 L 1865 398 L 1866 264 L 1865 238 Z" fill="lightgray"></path>
      </clipPath>
      <path clip-path="url(#make-me-a-hanzi-clip-15)" d="M 1728 592 L 1748 583 L 1863 605 L 1883 596 L 1903 571 L 1895 487 L 1894 85 L 1888 -8 L 1873 -45 L 1860 -57 L 1754 -12 " fill="none" id="make-me-a-hanzi-animation-15" stroke-dasharray="1073 2146" stroke-linecap="round"></path>

      <clipPath id="make-me-a-hanzi-clip-16">
      <path d="M 1717 374 L 1732 372 Q 1752 367 1770 373 L 1865 398 C 1894 406 1895 410 1866 418 L 1833 427 Q 1806 433 1772 422 L 1717 404 C 1688 395 1687 378 1717 374 Z" fill="lightgray"></path>
      </clipPath>
      <path clip-path="url(#make-me-a-hanzi-clip-16)" d="M 1726 382 L 1736 390 L 1859 413 " fill="none" id="make-me-a-hanzi-animation-16" stroke-dasharray="266 532" stroke-linecap="round"></path>

      <clipPath id="make-me-a-hanzi-clip-17">
      <path d="M 1705 223 L 1719 220 Q 1731 217 1740 218 Q 1749 218 1799 227 L 1865 238 C 1895 243 1895 258 1866 264 L 1838 270 Q 1821 274 1811 274 Q 1801 274 1776 268 Q 1752 262 1745 261 L 1708 254 C 1679 248 1676 229 1705 223 Z" fill="lightgray"></path>
      </clipPath>
      <path clip-path="url(#make-me-a-hanzi-clip-17)" d="M 1714 230 L 1726 238 L 1809 252 L 1850 251 L 1857 258 " fill="none" id="make-me-a-hanzi-animation-17" stroke-dasharray="278 556" stroke-linecap="round"></path>

</g>
</svg>
