<svg version="1.1" viewBox="0 0 2048 1024" xmlns="http://www.w3.org/2000/svg">
  <g stroke="lightgray" stroke-dasharray="1,1" stroke-width="1" transform="scale(4, 4)">
    <line x1="0" y1="0" x2="256" y2="256"></line>
    <line x1="256" y1="0" x2="0" y2="256"></line>
    <line x1="128" y1="0" x2="128" y2="256"></line>
    <line x1="0" y1="128" x2="256" y2="128"></line>
    <line x1="256" y1="0" x2="512" y2="256"></line>
    <line x1="512" y1="0" x2="256" y2="256"></line>
    <line x1="384" y1="0" x2="384" y2="256"></line>
    <line x1="256" y1="128" x2="512" y2="128"></line>
  </g>
<g transform="scale(1, -1) translate(0, -850)">
   <style type="text/css">
    @keyframes keyframes0 {
      from {
       stroke: black;
       stroke-dashoffset: 534;
       stroke-width: 128;
       }
       63% {
       animation-timing-function: step-end;
       stroke: black;
       stroke-dashoffset: 0;
       stroke-width: 128;
       }
       to {
       stroke: black;
       stroke-width: 1024;
       }
       }
       #make-me-a-hanzi-animation-0 {
         animation: keyframes0 0.684570s both;
         animation-delay: 0.000000s;
         animation-timing-function: linear;
       }
    @keyframes keyframes1 {
      from {
       stroke: black;
       stroke-dashoffset: 738;
       stroke-width: 128;
       }
       71% {
       animation-timing-function: step-end;
       stroke: black;
       stroke-dashoffset: 0;
       stroke-width: 128;
       }
       to {
       stroke: black;
       stroke-width: 1024;
       }
       }
       #make-me-a-hanzi-animation-1 {
         animation: keyframes1 0.850586s both;
         animation-delay: 0.684570s;
         animation-timing-function: linear;
       }
    @keyframes keyframes2 {
      from {
       stroke: black;
       stroke-dashoffset: 624;
       stroke-width: 128;
       }
       67% {
       animation-timing-function: step-end;
       stroke: black;
       stroke-dashoffset: 0;
       stroke-width: 128;
       }
       to {
       stroke: black;
       stroke-width: 1024;
       }
       }
       #make-me-a-hanzi-animation-2 {
         animation: keyframes2 0.757812s both;
         animation-delay: 1.535156s;
         animation-timing-function: linear;
       }
    @keyframes keyframes3 {
      from {
       stroke: black;
       stroke-dashoffset: 394;
       stroke-width: 128;
       }
       56% {
       animation-timing-function: step-end;
       stroke: black;
       stroke-dashoffset: 0;
       stroke-width: 128;
       }
       to {
       stroke: black;
       stroke-width: 1024;
       }
       }
       #make-me-a-hanzi-animation-3 {
         animation: keyframes3 0.570638s both;
         animation-delay: 2.292969s;
         animation-timing-function: linear;
       }
    @keyframes keyframes4 {
      from {
       stroke: black;
       stroke-dashoffset: 468;
       stroke-width: 128;
       }
       60% {
       animation-timing-function: step-end;
       stroke: black;
       stroke-dashoffset: 0;
       stroke-width: 128;
       }
       to {
       stroke: black;
       stroke-width: 1024;
       }
       }
       #make-me-a-hanzi-animation-4 {
         animation: keyframes4 0.630859s both;
         animation-delay: 2.863607s;
         animation-timing-function: linear;
       }
    @keyframes keyframes5 {
      from {
       stroke: black;
       stroke-dashoffset: 531;
       stroke-width: 128;
       }
       63% {
       animation-timing-function: step-end;
       stroke: black;
       stroke-dashoffset: 0;
       stroke-width: 128;
       }
       to {
       stroke: black;
       stroke-width: 1024;
       }
       }
       #make-me-a-hanzi-animation-5 {
         animation: keyframes5 0.682129s both;
         animation-delay: 3.494466s;
         animation-timing-function: linear;
       }
    @keyframes keyframes6 {
      from {
       stroke: black;
       stroke-dashoffset: 918;
       stroke-width: 128;
       }
       75% {
       animation-timing-function: step-end;
       stroke: black;
       stroke-dashoffset: 0;
       stroke-width: 128;
       }
       to {
       stroke: black;
       stroke-width: 1024;
       }
       }
       #make-me-a-hanzi-animation-6 {
         animation: keyframes6 0.997070s both;
         animation-delay: 4.176595s;
         animation-timing-function: linear;
       }
    @keyframes keyframes7 {
      from {
       stroke: black;
       stroke-dashoffset: 430;
       stroke-width: 128;
       }
       58% {
       animation-timing-function: step-end;
       stroke: black;
       stroke-dashoffset: 0;
       stroke-width: 128;
       }
       to {
       stroke: black;
       stroke-width: 1024;
       }
       }
       #make-me-a-hanzi-animation-7 {
         animation: keyframes7 0.599935s both;
         animation-delay: 5.173665s;
         animation-timing-function: linear;
       }
    @keyframes keyframes8 {
      from {
       stroke: black;
       stroke-dashoffset: 350;
       stroke-width: 128;
       }
       53% {
       animation-timing-function: step-end;
       stroke: black;
       stroke-dashoffset: 0;
       stroke-width: 128;
       }
       to {
       stroke: black;
       stroke-width: 1024;
       }
       }
       #make-me-a-hanzi-animation-8 {
         animation: keyframes8 0.534831s both;
         animation-delay: 5.773600s;
         animation-timing-function: linear;
       }
    @keyframes keyframes9 {
      from {
       stroke: black;
       stroke-dashoffset: 384;
       stroke-width: 128;
       }
       56% {
       animation-timing-function: step-end;
       stroke: black;
       stroke-dashoffset: 0;
       stroke-width: 128;
       }
       to {
       stroke: black;
       stroke-width: 1024;
       }
       }
       #make-me-a-hanzi-animation-9 {
         animation: keyframes9 0.562500s both;
         animation-delay: 6.308431s;
         animation-timing-function: linear;
       }
    @keyframes keyframes10 {
      from {
       stroke: black;
       stroke-dashoffset: 546;
       stroke-width: 128;
       }
       64% {
       animation-timing-function: step-end;
       stroke: black;
       stroke-dashoffset: 0;
       stroke-width: 128;
       }
       to {
       stroke: black;
       stroke-width: 1024;
       }
       }
       #make-me-a-hanzi-animation-10 {
         animation: keyframes10 0.694336s both;
         animation-delay: 6.870931s;
         animation-timing-function: linear;
       }
    @keyframes keyframes11 {
      from {
       stroke: black;
       stroke-dashoffset: 552;
       stroke-width: 128;
       }
       64% {
       animation-timing-function: step-end;
       stroke: black;
       stroke-dashoffset: 0;
       stroke-width: 128;
       }
       to {
       stroke: black;
       stroke-width: 1024;
       }
       }
       #make-me-a-hanzi-animation-11 {
         animation: keyframes11 0.699219s both;
         animation-delay: 7.565267s;
         animation-timing-function: linear;
       }
    @keyframes keyframes12 {
      from {
       stroke: black;
       stroke-dashoffset: 788;
       stroke-width: 128;
       }
       72% {
       animation-timing-function: step-end;
       stroke: black;
       stroke-dashoffset: 0;
       stroke-width: 128;
       }
       to {
       stroke: black;
       stroke-width: 1024;
       }
       }
       #make-me-a-hanzi-animation-12 {
         animation: keyframes12 0.891276s both;
         animation-delay: 8.264486s;
         animation-timing-function: linear;
       }
    @keyframes keyframes13 {
      from {
       stroke: black;
       stroke-dashoffset: 430;
       stroke-width: 128;
       }
       58% {
       animation-timing-function: step-end;
       stroke: black;
       stroke-dashoffset: 0;
       stroke-width: 128;
       }
       to {
       stroke: black;
       stroke-width: 1024;
       }
       }
       #make-me-a-hanzi-animation-13 {
         animation: keyframes13 0.599935s both;
         animation-delay: 9.155762s;
         animation-timing-function: linear;
       }
    @keyframes keyframes14 {
      from {
       stroke: black;
       stroke-dashoffset: 455;
       stroke-width: 128;
       }
       60% {
       animation-timing-function: step-end;
       stroke: black;
       stroke-dashoffset: 0;
       stroke-width: 128;
       }
       to {
       stroke: black;
       stroke-width: 1024;
       }
       }
       #make-me-a-hanzi-animation-14 {
         animation: keyframes14 0.620280s both;
         animation-delay: 9.755697s;
         animation-timing-function: linear;
       }
    @keyframes keyframes15 {
      from {
       stroke: black;
       stroke-dashoffset: 644;
       stroke-width: 128;
       }
       68% {
       animation-timing-function: step-end;
       stroke: black;
       stroke-dashoffset: 0;
       stroke-width: 128;
       }
       to {
       stroke: black;
       stroke-width: 1024;
       }
       }
       #make-me-a-hanzi-animation-15 {
         animation: keyframes15 0.774089s both;
         animation-delay: 10.375977s;
         animation-timing-function: linear;
       }
    @keyframes keyframes16 {
      from {
       stroke: black;
       stroke-dashoffset: 1035;
       stroke-width: 128;
       }
       77% {
       animation-timing-function: step-end;
       stroke: black;
       stroke-dashoffset: 0;
       stroke-width: 128;
       }
       to {
       stroke: black;
       stroke-width: 1024;
       }
       }
       #make-me-a-hanzi-animation-16 {
         animation: keyframes16 1.092285s both;
         animation-delay: 11.150065s;
         animation-timing-function: linear;
       }
    @keyframes keyframes17 {
      from {
       stroke: black;
       stroke-dashoffset: 381;
       stroke-width: 128;
       }
       55% {
       animation-timing-function: step-end;
       stroke: black;
       stroke-dashoffset: 0;
       stroke-width: 128;
       }
       to {
       stroke: black;
       stroke-width: 1024;
       }
       }
       #make-me-a-hanzi-animation-17 {
         animation: keyframes17 0.560059s both;
         animation-delay: 12.242350s;
         animation-timing-function: linear;
       }
    @keyframes keyframes18 {
      from {
       stroke: black;
       stroke-dashoffset: 718;
       stroke-width: 128;
       }
       70% {
       animation-timing-function: step-end;
       stroke: black;
       stroke-dashoffset: 0;
       stroke-width: 128;
       }
       to {
       stroke: black;
       stroke-width: 1024;
       }
       }
       #make-me-a-hanzi-animation-18 {
         animation: keyframes18 0.834310s both;
         animation-delay: 12.802409s;
         animation-timing-function: linear;
       }
    @keyframes keyframes19 {
      from {
       stroke: black;
       stroke-dashoffset: 1291;
       stroke-width: 128;
       }
       81% {
       animation-timing-function: step-end;
       stroke: black;
       stroke-dashoffset: 0;
       stroke-width: 128;
       }
       to {
       stroke: black;
       stroke-width: 1024;
       }
       }
       #make-me-a-hanzi-animation-19 {
         animation: keyframes19 1.300618s both;
         animation-delay: 13.636719s;
         animation-timing-function: linear;
       }
    @keyframes keyframes20 {
      from {
       stroke: black;
       stroke-dashoffset: 411;
       stroke-width: 128;
       }
       57% {
       animation-timing-function: step-end;
       stroke: black;
       stroke-dashoffset: 0;
       stroke-width: 128;
       }
       to {
       stroke: black;
       stroke-width: 1024;
       }
       }
       #make-me-a-hanzi-animation-20 {
         animation: keyframes20 0.584473s both;
         animation-delay: 14.937337s;
         animation-timing-function: linear;
       }
</style>
<path d="M 343 378 L 313 370 Q 304 368 299 364 L 244 352 L 120 330 Q 111 329 110 327 Q 109 323 112 317 Q 116 311 126 309 Q 136 307 162 304 Q 181 303 193 304 L 222 307 L 244 311 L 298 320 L 338 328 L 365 336 Q 398 341 399 352 Q 400 362 360 376 L 343 378 Z" fill="lightgray"></path> 
<path d="M 299 364 L 299 433 Q 299 448 300 456 L 306 499 L 309 509 Q 311 517 315 524 L 321 540 Q 325 546 323 552 Q 323 564 290 578 Q 258 592 250 594 Q 243 596 233 595 Q 223 593 220 589 Q 217 585 218 580 Q 219 575 220 573 Q 222 570 223 567 L 228 557 Q 232 550 237 535 Q 242 519 242 490 L 244 352 L 244 311 L 247 118 C 247 88 297 109 297 139 L 298 320 L 299 364 Z" fill="lightgray"></path> 
<path d="M 247 118 L 164 83 Q 157 79 134 71 L 102 60 Q 85 54 76 55 Q 68 56 65 52 Q 58 39 92 13 Q 127 -14 142 -10 Q 145 -9 151 -2 Q 158 5 174 16 Q 190 26 212 42 Q 235 58 262 75 L 326 116 Q 372 147 378 152 L 402 169 Q 409 174 407 181 Q 405 187 393 182 L 334 155 Q 301 140 297 139 L 247 118 Z" fill="lightgray"></path> 
<path d="M 486 589 L 465 595 Q 457 597 454 594 Q 451 591 455 583 L 465 563 Q 465 560 478 542 L 492 518 L 509 497 Q 535 463 556 471 Q 569 473 573 486 Q 588 534 552 561 Q 538 571 486 589 Z" fill="lightgray"></path> 
<path d="M 698 502 L 680 479 Q 675 473 678 470 Q 679 465 689 471 L 765 525 L 791 552 Q 813 572 836 587 L 846 593 Q 852 598 845 609 Q 838 619 821 628 L 801 637 L 780 642 Q 766 646 766 635 L 763 618 Q 763 610 750 587 L 737 562 L 721 536 Q 707 511 698 502 Z" fill="lightgray"></path> 
<path d="M 456 421 L 443 427 Q 435 431 413 433 Q 392 435 389 429 Q 387 421 401 413 Q 418 398 425 375 L 434 338 L 440 304 L 445 262 Q 445 252 452 223 Q 464 168 480 170 Q 486 169 491 178 L 497 192 L 495 227 L 490 257 Q 484 311 474 354 L 464 394 C 457 420 457 420 456 421 Z" fill="lightgray"></path> 
<path d="M 779 214 L 785 205 Q 789 198 799 196 Q 809 193 818 199 Q 832 206 850 251 L 884 335 Q 900 383 924 405 L 934 416 Q 937 418 935 423 Q 935 431 896 457 Q 858 482 836 482 L 791 471 Q 769 465 729 457 L 685 448 L 545 427 L 456 421 C 426 419 434 395 464 394 L 492 393 Q 503 393 528 396 L 574 401 Q 584 401 605 404 L 662 412 L 690 415 L 736 423 L 821 432 Q 846 432 834 392 L 828 360 Q 825 342 817 321 L 805 284 Q 797 251 787 248 C 770 225 770 225 779 214 Z" fill="lightgray"></path> 
<path d="M 605 404 L 610 386 Q 609 383 613 349 L 616 276 L 616 238 C 616 208 655 214 658 244 L 660 264 L 664 345 Q 668 385 670 390 L 672 401 L 662 412 C 642 434 597 433 605 404 Z" fill="lightgray"></path> 
<path d="M 495 355 L 514 317 Q 518 309 526 298 Q 540 274 557 274 Q 577 280 576 314 Q 575 326 572 330 Q 569 343 534 357 Q 499 371 495 367 Q 492 362 495 355 Z" fill="lightgray"></path> 
<path d="M 711 333 L 691 300 Q 683 290 688 288 Q 690 284 699 290 L 721 300 L 738 312 L 779 348 L 789 354 L 797 361 Q 797 364 793 371 Q 789 377 783 380 Q 780 383 757 394 Q 734 404 730 399 Q 726 394 726 388 L 726 372 Q 723 356 718 347 Q 713 338 711 333 Z" fill="lightgray"></path> 
<path d="M 497 192 L 522 192 Q 534 192 572 196 L 717 210 Q 718 210 779 214 C 809 216 817 245 787 248 Q 783 247 768 252 Q 753 257 750 257 L 658 244 L 616 238 L 579 233 L 495 227 C 465 225 467 192 497 192 Z" fill="lightgray"></path> 
<path d="M 505 -12 L 503 -54 L 492 -124 Q 492 -132 497 -148 Q 502 -165 513 -176 Q 519 -184 524 -182 Q 537 -175 538 -155 L 541 -142 L 543 -109 L 551 80 C 552 101 552 101 544 104 L 530 110 Q 522 114 508 116 Q 495 117 492 114 Q 490 111 499 88 Q 509 64 505 -12 Z" fill="lightgray"></path> 
<path d="M 721 -133 L 735 -157 L 746 -182 Q 754 -198 763 -198 Q 768 -198 785 -185 Q 802 -172 809 -148 Q 817 -124 817 -116 L 815 -81 Q 811 -54 810 -36 L 808 12 Q 807 34 808 52 L 810 75 L 819 103 L 816 111 Q 809 118 803 122 Q 790 133 764 145 Q 745 148 735 144 L 715 138 Q 699 132 668 126 Q 638 121 611 115 Q 585 109 544 104 C 514 100 522 74 551 80 L 611 92 L 683 100 L 725 102 Q 747 104 751 100 Q 756 96 758 83 L 757 13 L 758 -40 Q 758 -60 756 -70 Q 754 -81 753 -91 Q 753 -101 749 -102 C 741 -131 708 -111 721 -133 Z" fill="lightgray"></path> 
<path d="M 700 21 Q 695 21 683 18 Q 652 9 568 5 Q 557 5 556 -1 Q 556 -8 573 -16 Q 591 -28 607 -29 Q 609 -31 624 -27 Q 693 -19 701 -19 Q 710 -19 732 -12 Q 744 -7 745 4 Q 744 15 700 21 Z" fill="lightgray"></path> 
<path d="M 541 -142 L 561 -144 Q 566 -145 601 -143 Q 637 -141 651 -138 L 695 -134 Q 709 -134 721 -133 C 751 -131 779 -107 749 -102 Q 745 -103 734 -97 Q 723 -91 711 -91 L 543 -109 C 513 -112 511 -139 541 -142 Z" fill="lightgray"></path> 
<path d="M 1575 747 Q 1559 747 1559 729 Q 1554 706 1540 681 Q 1536 669 1502 628 Q 1451 564 1376 507 L 1334 478 Q 1326 473 1327 470 Q 1330 466 1339 469 L 1354 474 Q 1364 479 1369.5 479 Q 1375 479 1433 509 L 1454 520 L 1474 535 Q 1503 556 1515 566 L 1554 599 L 1586 633 L 1604 652 Q 1614 663 1622 668 L 1640 682 Q 1640 683 1642 685 Q 1649 692 1639 703 Q 1629 718 1623 722 L 1604 735 Q 1592 741 1586 745 L 1575 747 Z" fill="lightgray"></path> 
<path d="M 1510 402 L 1484 378 Q 1468 364 1416 329 Q 1364 294 1354 288 L 1327 271 Q 1317 265 1312 260 L 1296 252 Q 1290 247 1292 244 Q 1293 240 1297 241 L 1318 246 L 1360 260 Q 1368 264 1433 294 Q 1520 343 1568 384 Q 1616 424 1638 445 Q 1659 465 1706 515 Q 1746 561 1758 571 L 1782 595 L 1809 616 Q 1818 622 1819 625 Q 1822 640 1809 648 Q 1804 652 1794 660 Q 1784 668 1762 676 Q 1748 683 1739 683 Q 1730 682 1699 668 Q 1668 653 1640 646 L 1586 633 C 1557 626 1524 604 1554 599 Q 1581 590 1631 601 Q 1680 612 1685 610 Q 1697 607 1685 590 L 1660 557 Q 1654 549 1609 499 Q 1585 476 1578 467 Q 1571 457 1569 455 L 1540 425 L 1510 402 Z" fill="lightgray"></path> 
<path d="M 1433 509 L 1446 487 L 1465 449 Q 1473 434 1499 408 Q 1505 405 1510 402 C 1536 387 1540 395 1540 425 L 1540 446 L 1539 448 Q 1539 449 1539 450 Q 1533 482 1511 494 Q 1497 504 1486 508 L 1454 520 C 1426 531 1419 533 1433 509 Z" fill="lightgray"></path> 
<path d="M 1641 273 L 1666 298 Q 1680 312 1692 318.5 Q 1704 325 1705 330 Q 1707 333 1701.5 342.5 Q 1696 352 1687 359 Q 1676 372 1666 376 L 1653 383 Q 1633 391 1629 390 Q 1620 388 1620 374 Q 1620 342 1588 298 Q 1535 232 1485 192 Q 1478 187 1439 154.5 Q 1400 122 1378 111 L 1349 92 L 1336 85 Q 1331 80 1332 78 Q 1334 76 1339 77 L 1360 83 Q 1365 83 1388 91.5 Q 1411 100 1431 110 L 1460 124 L 1485 138 L 1503 153 Q 1546 184 1558 194 L 1608 235 L 1641 273 Z" fill="lightgray"></path> 
<path d="M 1567 -5 L 1537 -30 Q 1521 -44 1466 -81 Q 1410 -118 1382 -134 Q 1353 -149 1294 -178 Q 1235 -206 1224 -210 L 1212 -214 Q 1202 -220 1207 -225 Q 1211 -229 1216 -227 L 1231 -224 Q 1272 -220 1346 -191 Q 1472 -140 1583 -64 Q 1664 -6 1742 78 L 1804 148 Q 1817 162 1858 203 Q 1880 221 1897 232 Q 1914 242 1915 253 Q 1915 264 1897 279 Q 1878 294 1857 307 Q 1836 319 1824 320 Q 1812 321 1792 316 L 1756 301 Q 1748 298 1714 290 L 1641 273 C 1612 266 1578 237 1608 235 L 1649 232 L 1697 240 Q 1743 244 1758 248 Q 1773 252 1777 248 Q 1781 244 1779 230 Q 1776 215 1755 192 L 1704 126 L 1616 34 L 1596 18 L 1567 -5 Z" fill="lightgray"></path> 
<path d="M 1460 124 L 1498 64 Q 1533 14 1539 9 Q 1545 4 1567 -5 C 1595 -17 1596 -12 1596 18 L 1596 29 Q 1596 54 1583 83 Q 1568 118 1485 138 C 1456 145 1445 148 1460 124 Z" fill="lightgray"></path> 
      <clipPath id="make-me-a-hanzi-clip-0">
      <path d="M 343 378 L 313 370 Q 304 368 299 364 L 244 352 L 120 330 Q 111 329 110 327 Q 109 323 112 317 Q 116 311 126 309 Q 136 307 162 304 Q 181 303 193 304 L 222 307 L 244 311 L 298 320 L 338 328 L 365 336 Q 398 341 399 352 Q 400 362 360 376 L 343 378 Z" fill="lightgray"></path>
      </clipPath>
      <path clip-path="url(#make-me-a-hanzi-clip-0)" d="M 117 323 L 171 320 L 288 339 L 345 355 L 391 352 " fill="none" id="make-me-a-hanzi-animation-0" stroke-dasharray="406 812" stroke-linecap="round"></path>

      <clipPath id="make-me-a-hanzi-clip-1">
      <path d="M 299 364 L 299 433 Q 299 448 300 456 L 306 499 L 309 509 Q 311 517 315 524 L 321 540 Q 325 546 323 552 Q 323 564 290 578 Q 258 592 250 594 Q 243 596 233 595 Q 223 593 220 589 Q 217 585 218 580 Q 219 575 220 573 Q 222 570 223 567 L 228 557 Q 232 550 237 535 Q 242 519 242 490 L 244 352 L 244 311 L 247 118 C 247 88 297 109 297 139 L 298 320 L 299 364 Z" fill="lightgray"></path>
      </clipPath>
      <path clip-path="url(#make-me-a-hanzi-clip-1)" d="M 231 582 L 277 538 L 270 437 L 272 162 L 251 125 " fill="none" id="make-me-a-hanzi-animation-1" stroke-dasharray="610 1220" stroke-linecap="round"></path>

      <clipPath id="make-me-a-hanzi-clip-2">
      <path d="M 247 118 L 164 83 Q 157 79 134 71 L 102 60 Q 85 54 76 55 Q 68 56 65 52 Q 58 39 92 13 Q 127 -14 142 -10 Q 145 -9 151 -2 Q 158 5 174 16 Q 190 26 212 42 Q 235 58 262 75 L 326 116 Q 372 147 378 152 L 402 169 Q 409 174 407 181 Q 405 187 393 182 L 334 155 Q 301 140 297 139 L 247 118 Z" fill="lightgray"></path>
      </clipPath>
      <path clip-path="url(#make-me-a-hanzi-clip-2)" d="M 72 47 L 95 35 L 130 31 L 329 134 L 400 177 " fill="none" id="make-me-a-hanzi-animation-2" stroke-dasharray="496 992" stroke-linecap="round"></path>

      <clipPath id="make-me-a-hanzi-clip-3">
      <path d="M 486 589 L 465 595 Q 457 597 454 594 Q 451 591 455 583 L 465 563 Q 465 560 478 542 L 492 518 L 509 497 Q 535 463 556 471 Q 569 473 573 486 Q 588 534 552 561 Q 538 571 486 589 Z" fill="lightgray"></path>
      </clipPath>
      <path clip-path="url(#make-me-a-hanzi-clip-3)" d="M 460 589 L 537 523 L 554 491 " fill="none" id="make-me-a-hanzi-animation-3" stroke-dasharray="266 532" stroke-linecap="round"></path>

      <clipPath id="make-me-a-hanzi-clip-4">
      <path d="M 698 502 L 680 479 Q 675 473 678 470 Q 679 465 689 471 L 765 525 L 791 552 Q 813 572 836 587 L 846 593 Q 852 598 845 609 Q 838 619 821 628 L 801 637 L 780 642 Q 766 646 766 635 L 763 618 Q 763 610 750 587 L 737 562 L 721 536 Q 707 511 698 502 Z" fill="lightgray"></path>
      </clipPath>
      <path clip-path="url(#make-me-a-hanzi-clip-4)" d="M 837 600 L 795 601 L 726 513 L 683 474 " fill="none" id="make-me-a-hanzi-animation-4" stroke-dasharray="340 680" stroke-linecap="round"></path>

      <clipPath id="make-me-a-hanzi-clip-5">
      <path d="M 456 421 L 443 427 Q 435 431 413 433 Q 392 435 389 429 Q 387 421 401 413 Q 418 398 425 375 L 434 338 L 440 304 L 445 262 Q 445 252 452 223 Q 464 168 480 170 Q 486 169 491 178 L 497 192 L 495 227 L 490 257 Q 484 311 474 354 L 464 394 C 457 420 457 420 456 421 Z" fill="lightgray"></path>
      </clipPath>
      <path clip-path="url(#make-me-a-hanzi-clip-5)" d="M 395 426 L 437 405 L 446 382 L 480 182 " fill="none" id="make-me-a-hanzi-animation-5" stroke-dasharray="403 806" stroke-linecap="round"></path>

      <clipPath id="make-me-a-hanzi-clip-6">
      <path d="M 779 214 L 785 205 Q 789 198 799 196 Q 809 193 818 199 Q 832 206 850 251 L 884 335 Q 900 383 924 405 L 934 416 Q 937 418 935 423 Q 935 431 896 457 Q 858 482 836 482 L 791 471 Q 769 465 729 457 L 685 448 L 545 427 L 456 421 C 426 419 434 395 464 394 L 492 393 Q 503 393 528 396 L 574 401 Q 584 401 605 404 L 662 412 L 690 415 L 736 423 L 821 432 Q 846 432 834 392 L 828 360 Q 825 342 817 321 L 805 284 Q 797 251 787 248 C 770 225 770 225 779 214 Z" fill="lightgray"></path>
      </clipPath>
      <path clip-path="url(#make-me-a-hanzi-clip-6)" d="M 464 416 L 475 408 L 519 409 L 819 455 L 851 450 L 880 418 L 823 251 L 804 218 L 793 217 " fill="none" id="make-me-a-hanzi-animation-6" stroke-dasharray="790 1580" stroke-linecap="round"></path>

      <clipPath id="make-me-a-hanzi-clip-7">
      <path d="M 605 404 L 610 386 Q 609 383 613 349 L 616 276 L 616 238 C 616 208 655 214 658 244 L 660 264 L 664 345 Q 668 385 670 390 L 672 401 L 662 412 C 642 434 597 433 605 404 Z" fill="lightgray"></path>
      </clipPath>
      <path clip-path="url(#make-me-a-hanzi-clip-7)" d="M 613 401 L 639 377 L 638 263 L 622 244 " fill="none" id="make-me-a-hanzi-animation-7" stroke-dasharray="302 604" stroke-linecap="round"></path>

      <clipPath id="make-me-a-hanzi-clip-8">
      <path d="M 495 355 L 514 317 Q 518 309 526 298 Q 540 274 557 274 Q 577 280 576 314 Q 575 326 572 330 Q 569 343 534 357 Q 499 371 495 367 Q 492 362 495 355 Z" fill="lightgray"></path>
      </clipPath>
      <path clip-path="url(#make-me-a-hanzi-clip-8)" d="M 499 361 L 546 319 L 555 289 " fill="none" id="make-me-a-hanzi-animation-8" stroke-dasharray="222 444" stroke-linecap="round"></path>

      <clipPath id="make-me-a-hanzi-clip-9">
      <path d="M 711 333 L 691 300 Q 683 290 688 288 Q 690 284 699 290 L 721 300 L 738 312 L 779 348 L 789 354 L 797 361 Q 797 364 793 371 Q 789 377 783 380 Q 780 383 757 394 Q 734 404 730 399 Q 726 394 726 388 L 726 372 Q 723 356 718 347 Q 713 338 711 333 Z" fill="lightgray"></path>
      </clipPath>
      <path clip-path="url(#make-me-a-hanzi-clip-9)" d="M 788 363 L 754 364 L 717 314 L 693 293 " fill="none" id="make-me-a-hanzi-animation-9" stroke-dasharray="256 512" stroke-linecap="round"></path>

      <clipPath id="make-me-a-hanzi-clip-10">
      <path d="M 497 192 L 522 192 Q 534 192 572 196 L 717 210 Q 718 210 779 214 C 809 216 817 245 787 248 Q 783 247 768 252 Q 753 257 750 257 L 658 244 L 616 238 L 579 233 L 495 227 C 465 225 467 192 497 192 Z" fill="lightgray"></path>
      </clipPath>
      <path clip-path="url(#make-me-a-hanzi-clip-10)" d="M 502 222 L 513 210 L 525 210 L 714 232 L 761 232 L 783 243 " fill="none" id="make-me-a-hanzi-animation-10" stroke-dasharray="418 836" stroke-linecap="round"></path>

      <clipPath id="make-me-a-hanzi-clip-11">
      <path d="M 505 -12 L 503 -54 L 492 -124 Q 492 -132 497 -148 Q 502 -165 513 -176 Q 519 -184 524 -182 Q 537 -175 538 -155 L 541 -142 L 543 -109 L 551 80 C 552 101 552 101 544 104 L 530 110 Q 522 114 508 116 Q 495 117 492 114 Q 490 111 499 88 Q 509 64 505 -12 Z" fill="lightgray"></path>
      </clipPath>
      <path clip-path="url(#make-me-a-hanzi-clip-11)" d="M 496 110 L 524 87 L 528 73 L 525 -53 L 517 -121 L 523 -171 " fill="none" id="make-me-a-hanzi-animation-11" stroke-dasharray="424 848" stroke-linecap="round"></path>

      <clipPath id="make-me-a-hanzi-clip-12">
      <path d="M 721 -133 L 735 -157 L 746 -182 Q 754 -198 763 -198 Q 768 -198 785 -185 Q 802 -172 809 -148 Q 817 -124 817 -116 L 815 -81 Q 811 -54 810 -36 L 808 12 Q 807 34 808 52 L 810 75 L 819 103 L 816 111 Q 809 118 803 122 Q 790 133 764 145 Q 745 148 735 144 L 715 138 Q 699 132 668 126 Q 638 121 611 115 Q 585 109 544 104 C 514 100 522 74 551 80 L 611 92 L 683 100 L 725 102 Q 747 104 751 100 Q 756 96 758 83 L 757 13 L 758 -40 Q 758 -60 756 -70 Q 754 -81 753 -91 Q 753 -101 749 -102 C 741 -131 708 -111 721 -133 Z" fill="lightgray"></path>
      </clipPath>
      <path clip-path="url(#make-me-a-hanzi-clip-12)" d="M 553 100 L 571 95 L 745 124 L 762 121 L 782 104 L 784 -100 L 770 -138 L 763 -186 " fill="none" id="make-me-a-hanzi-animation-12" stroke-dasharray="660 1320" stroke-linecap="round"></path>

      <clipPath id="make-me-a-hanzi-clip-13">
      <path d="M 700 21 Q 695 21 683 18 Q 652 9 568 5 Q 557 5 556 -1 Q 556 -8 573 -16 Q 591 -28 607 -29 Q 609 -31 624 -27 Q 693 -19 701 -19 Q 710 -19 732 -12 Q 744 -7 745 4 Q 744 15 700 21 Z" fill="lightgray"></path>
      </clipPath>
      <path clip-path="url(#make-me-a-hanzi-clip-13)" d="M 564 -1 L 611 -11 L 736 2 " fill="none" id="make-me-a-hanzi-animation-13" stroke-dasharray="302 604" stroke-linecap="round"></path>

      <clipPath id="make-me-a-hanzi-clip-14">
      <path d="M 541 -142 L 561 -144 Q 566 -145 601 -143 Q 637 -141 651 -138 L 695 -134 Q 709 -134 721 -133 C 751 -131 779 -107 749 -102 Q 745 -103 734 -97 Q 723 -91 711 -91 L 543 -109 C 513 -112 511 -139 541 -142 Z" fill="lightgray"></path>
      </clipPath>
      <path clip-path="url(#make-me-a-hanzi-clip-14)" d="M 547 -137 L 565 -125 L 711 -112 L 740 -103 " fill="none" id="make-me-a-hanzi-animation-14" stroke-dasharray="327 654" stroke-linecap="round"></path>

      <clipPath id="make-me-a-hanzi-clip-15">
      <path d="M 1575 747 Q 1559 747 1559 729 Q 1554 706 1540 681 Q 1536 669 1502 628 Q 1451 564 1376 507 L 1334 478 Q 1326 473 1327 470 Q 1330 466 1339 469 L 1354 474 Q 1364 479 1369.5 479 Q 1375 479 1433 509 L 1454 520 L 1474 535 Q 1503 556 1515 566 L 1554 599 L 1586 633 L 1604 652 Q 1614 663 1622 668 L 1640 682 Q 1640 683 1642 685 Q 1649 692 1639 703 Q 1629 718 1623 722 L 1604 735 Q 1592 741 1586 745 L 1575 747 Z" fill="lightgray"></path>
      </clipPath>
      <path clip-path="url(#make-me-a-hanzi-clip-15)" d="M 1633 693 L 1591 695 L 1548 636 L 1480 567 L 1416 516 L 1333 472 " fill="none" id="make-me-a-hanzi-animation-15" stroke-dasharray="516 1032" stroke-linecap="round"></path>

      <clipPath id="make-me-a-hanzi-clip-16">
      <path d="M 1510 402 L 1484 378 Q 1468 364 1416 329 Q 1364 294 1354 288 L 1327 271 Q 1317 265 1312 260 L 1296 252 Q 1290 247 1292 244 Q 1293 240 1297 241 L 1318 246 L 1360 260 Q 1368 264 1433 294 Q 1520 343 1568 384 Q 1616 424 1638 445 Q 1659 465 1706 515 Q 1746 561 1758 571 L 1782 595 L 1809 616 Q 1818 622 1819 625 Q 1822 640 1809 648 Q 1804 652 1794 660 Q 1784 668 1762 676 Q 1748 683 1739 683 Q 1730 682 1699 668 Q 1668 653 1640 646 L 1586 633 C 1557 626 1524 604 1554 599 Q 1581 590 1631 601 Q 1680 612 1685 610 Q 1697 607 1685 590 L 1660 557 Q 1654 549 1609 499 Q 1585 476 1578 467 Q 1571 457 1569 455 L 1540 425 L 1510 402 Z" fill="lightgray"></path>
      </clipPath>
      <path clip-path="url(#make-me-a-hanzi-clip-16)" d="M 1561 603 L 1685 635 L 1739 627 L 1733 604 L 1704 560 L 1560 408 L 1446 324 L 1336 262 L 1296 246 " fill="none" id="make-me-a-hanzi-animation-16" stroke-dasharray="907 1814" stroke-linecap="round"></path>

      <clipPath id="make-me-a-hanzi-clip-17">
      <path d="M 1433 509 L 1446 487 L 1465 449 Q 1473 434 1499 408 Q 1505 405 1510 402 C 1536 387 1540 395 1540 425 L 1540 446 L 1539 448 Q 1539 449 1539 450 Q 1533 482 1511 494 Q 1497 504 1486 508 L 1454 520 C 1426 531 1419 533 1433 509 Z" fill="lightgray"></path>
      </clipPath>
      <path clip-path="url(#make-me-a-hanzi-clip-17)" d="M 1441 506 L 1457 501 L 1502 456 L 1510 440 L 1509 413 " fill="none" id="make-me-a-hanzi-animation-17" stroke-dasharray="253 506" stroke-linecap="round"></path>

      <clipPath id="make-me-a-hanzi-clip-18">
      <path d="M 1641 273 L 1666 298 Q 1680 312 1692 318.5 Q 1704 325 1705 330 Q 1707 333 1701.5 342.5 Q 1696 352 1687 359 Q 1676 372 1666 376 L 1653 383 Q 1633 391 1629 390 Q 1620 388 1620 374 Q 1620 342 1588 298 Q 1535 232 1485 192 Q 1478 187 1439 154.5 Q 1400 122 1378 111 L 1349 92 L 1336 85 Q 1331 80 1332 78 Q 1334 76 1339 77 L 1360 83 Q 1365 83 1388 91.5 Q 1411 100 1431 110 L 1460 124 L 1485 138 L 1503 153 Q 1546 184 1558 194 L 1608 235 L 1641 273 Z" fill="lightgray"></path>
      </clipPath>
      <path clip-path="url(#make-me-a-hanzi-clip-18)" d="M 1631 380 L 1653 339 L 1586 252 L 1469 152 L 1406 111 L 1336 80 " fill="none" id="make-me-a-hanzi-animation-18" stroke-dasharray="590 1180" stroke-linecap="round"></path>

      <clipPath id="make-me-a-hanzi-clip-19">
      <path d="M 1567 -5 L 1537 -30 Q 1521 -44 1466 -81 Q 1410 -118 1382 -134 Q 1353 -149 1294 -178 Q 1235 -206 1224 -210 L 1212 -214 Q 1202 -220 1207 -225 Q 1211 -229 1216 -227 L 1231 -224 Q 1272 -220 1346 -191 Q 1472 -140 1583 -64 Q 1664 -6 1742 78 L 1804 148 Q 1817 162 1858 203 Q 1880 221 1897 232 Q 1914 242 1915 253 Q 1915 264 1897 279 Q 1878 294 1857 307 Q 1836 319 1824 320 Q 1812 321 1792 316 L 1756 301 Q 1748 298 1714 290 L 1641 273 C 1612 266 1578 237 1608 235 L 1649 232 L 1697 240 Q 1743 244 1758 248 Q 1773 252 1777 248 Q 1781 244 1779 230 Q 1776 215 1755 192 L 1704 126 L 1616 34 L 1596 18 L 1567 -5 Z" fill="lightgray"></path>
      </clipPath>
      <path clip-path="url(#make-me-a-hanzi-clip-19)" d="M 1615 237 L 1653 255 L 1773 278 L 1815 274 L 1834 255 L 1800 193 L 1715 92 L 1595 -20 L 1511 -81 L 1390 -152 L 1284 -199 L 1213 -221 " fill="none" id="make-me-a-hanzi-animation-19" stroke-dasharray="1163 2326" stroke-linecap="round"></path>

      <clipPath id="make-me-a-hanzi-clip-20">
      <path d="M 1460 124 L 1498 64 Q 1533 14 1539 9 Q 1545 4 1567 -5 C 1595 -17 1596 -12 1596 18 L 1596 29 Q 1596 54 1583 83 Q 1568 118 1485 138 C 1456 145 1445 148 1460 124 Z" fill="lightgray"></path>
      </clipPath>
      <path clip-path="url(#make-me-a-hanzi-clip-20)" d="M 1470 122 L 1490 116 L 1518 94 L 1541 73 L 1560 38 L 1584 24 " fill="none" id="make-me-a-hanzi-animation-20" stroke-dasharray="283 566" stroke-linecap="round"></path>

</g>
</svg>
