<svg version="1.1" viewBox="0 0 2048 1024" xmlns="http://www.w3.org/2000/svg">
  <g stroke="lightgray" stroke-dasharray="1,1" stroke-width="1" transform="scale(4, 4)">
    <line x1="0" y1="0" x2="256" y2="256"></line>
    <line x1="256" y1="0" x2="0" y2="256"></line>
    <line x1="128" y1="0" x2="128" y2="256"></line>
    <line x1="0" y1="128" x2="256" y2="128"></line>
    <line x1="256" y1="0" x2="512" y2="256"></line>
    <line x1="512" y1="0" x2="256" y2="256"></line>
    <line x1="384" y1="0" x2="384" y2="256"></line>
    <line x1="256" y1="128" x2="512" y2="128"></line>
  </g>
<g transform="scale(1, -1) translate(0, -850)">
   <style type="text/css">
    @keyframes keyframes0 {
      from {
       stroke: black;
       stroke-dashoffset: 768;
       stroke-width: 128;
       }
       71% {
       animation-timing-function: step-end;
       stroke: black;
       stroke-dashoffset: 0;
       stroke-width: 128;
       }
       to {
       stroke: black;
       stroke-width: 1024;
       }
       }
       #make-me-a-hanzi-animation-0 {
         animation: keyframes0 0.875000s both;
         animation-delay: 0.000000s;
         animation-timing-function: linear;
       }
    @keyframes keyframes1 {
      from {
       stroke: black;
       stroke-dashoffset: 1041;
       stroke-width: 128;
       }
       77% {
       animation-timing-function: step-end;
       stroke: black;
       stroke-dashoffset: 0;
       stroke-width: 128;
       }
       to {
       stroke: black;
       stroke-width: 1024;
       }
       }
       #make-me-a-hanzi-animation-1 {
         animation: keyframes1 1.097168s both;
         animation-delay: 0.875000s;
         animation-timing-function: linear;
       }
    @keyframes keyframes2 {
      from {
       stroke: black;
       stroke-dashoffset: 1093;
       stroke-width: 128;
       }
       78% {
       animation-timing-function: step-end;
       stroke: black;
       stroke-dashoffset: 0;
       stroke-width: 128;
       }
       to {
       stroke: black;
       stroke-width: 1024;
       }
       }
       #make-me-a-hanzi-animation-2 {
         animation: keyframes2 1.139486s both;
         animation-delay: 1.972168s;
         animation-timing-function: linear;
       }
    @keyframes keyframes3 {
      from {
       stroke: black;
       stroke-dashoffset: 866;
       stroke-width: 128;
       }
       74% {
       animation-timing-function: step-end;
       stroke: black;
       stroke-dashoffset: 0;
       stroke-width: 128;
       }
       to {
       stroke: black;
       stroke-width: 1024;
       }
       }
       #make-me-a-hanzi-animation-3 {
         animation: keyframes3 0.954753s both;
         animation-delay: 3.111654s;
         animation-timing-function: linear;
       }
    @keyframes keyframes4 {
      from {
       stroke: black;
       stroke-dashoffset: 487;
       stroke-width: 128;
       }
       61% {
       animation-timing-function: step-end;
       stroke: black;
       stroke-dashoffset: 0;
       stroke-width: 128;
       }
       to {
       stroke: black;
       stroke-width: 1024;
       }
       }
       #make-me-a-hanzi-animation-4 {
         animation: keyframes4 0.646322s both;
         animation-delay: 4.066406s;
         animation-timing-function: linear;
       }
    @keyframes keyframes5 {
      from {
       stroke: black;
       stroke-dashoffset: 696;
       stroke-width: 128;
       }
       69% {
       animation-timing-function: step-end;
       stroke: black;
       stroke-dashoffset: 0;
       stroke-width: 128;
       }
       to {
       stroke: black;
       stroke-width: 1024;
       }
       }
       #make-me-a-hanzi-animation-5 {
         animation: keyframes5 0.816406s both;
         animation-delay: 4.712728s;
         animation-timing-function: linear;
       }
    @keyframes keyframes6 {
      from {
       stroke: black;
       stroke-dashoffset: 950;
       stroke-width: 128;
       }
       76% {
       animation-timing-function: step-end;
       stroke: black;
       stroke-dashoffset: 0;
       stroke-width: 128;
       }
       to {
       stroke: black;
       stroke-width: 1024;
       }
       }
       #make-me-a-hanzi-animation-6 {
         animation: keyframes6 1.023112s both;
         animation-delay: 5.529134s;
         animation-timing-function: linear;
       }
    @keyframes keyframes7 {
      from {
       stroke: black;
       stroke-dashoffset: 1161;
       stroke-width: 128;
       }
       79% {
       animation-timing-function: step-end;
       stroke: black;
       stroke-dashoffset: 0;
       stroke-width: 128;
       }
       to {
       stroke: black;
       stroke-width: 1024;
       }
       }
       #make-me-a-hanzi-animation-7 {
         animation: keyframes7 1.194824s both;
         animation-delay: 6.552246s;
         animation-timing-function: linear;
       }
    @keyframes keyframes8 {
      from {
       stroke: black;
       stroke-dashoffset: 702;
       stroke-width: 128;
       }
       70% {
       animation-timing-function: step-end;
       stroke: black;
       stroke-dashoffset: 0;
       stroke-width: 128;
       }
       to {
       stroke: black;
       stroke-width: 1024;
       }
       }
       #make-me-a-hanzi-animation-8 {
         animation: keyframes8 0.821289s both;
         animation-delay: 7.747070s;
         animation-timing-function: linear;
       }
</style>
<path d="M 261 469 Q 286 512 311 564 Q 332 613 352 637 Q 361 649 355 662 Q 349 675 318 695 Q 290 711 270 708 Q 251 704 262 683 Q 278 655 269 627 Q 227 477 92 276 Q 82 264 81 258 Q 78 246 93 250 Q 133 268 247 445 L 261 469 Z" fill="lightgray"></path> 
<path d="M 353 229 Q 393 301 432 404 Q 447 434 472 453 Q 487 463 486 472 Q 485 485 454 500 Q 417 521 402 519 Q 390 518 380 509 Q 307 476 266 471 Q 263 471 261 469 C 232 462 217 450 247 445 Q 283 433 330 456 Q 360 477 376 465 Q 385 461 367 398 Q 354 332 312 259 L 293 225 Q 209 98 73 10 Q 66 4 66 0 Q 67 -4 75 -3 Q 195 12 328 189 Q 331 195 334 198 L 353 229 Z" fill="lightgray"></path> 
<path d="M 334 198 L 356 182 Q 518 43 681 -40 Q 729 -56 924 -9 Q 937 -3 941 7 Q 944 17 920 17 Q 847 30 764 40 Q 590 62 371 217 Q 362 224 353 229 L 312 259 Q 279 292 229 299 Q 193 303 166 297 Q 156 291 161 282 Q 168 272 181 272 Q 230 268 288 229 Q 291 228 293 225 L 334 198 Z" fill="lightgray"></path> 
<path d="M 549 695 Q 576 644 581 596 Q 594 428 575 179 Q 576 146 585 124 Q 592 111 602 118 Q 623 140 625 227 Q 644 633 650 656 Q 660 678 646 692 Q 628 708 596 722 Q 571 732 546 721 Q 533 712 549 695 Z" fill="lightgray"></path> 
<path d="M 659 437 Q 720 388 795 316 Q 813 297 829 293 Q 838 292 845 303 Q 857 316 841 361 Q 820 422 658 469 Q 648 473 647 461 Q 648 448 659 437 Z" fill="lightgray"></path> 
<path d="M 1103 257 L 1121 264 Q 1135 267 1166 287 Q 1249 344 1294 390 Q 1328 429 1340 448 L 1374 497 Q 1391 523 1397 529 Q 1404 535 1406 539 L 1407 540 Q 1407 558 1380 581 Q 1353 604 1340 604 Q 1327 604 1325 601 Q 1323 598 1322 592 L 1318 561 Q 1316 539 1308 522 Q 1301 504 1280 468 Q 1237 405 1193 355 Q 1165 327 1146 310 L 1098 269 Q 1093 264 1095 260 Q 1098 255 1103 257 Z" fill="lightgray"></path> 
<path d="M 1819 330 L 1869 332 Q 1895 334 1919 337 L 1958 343 Q 1974 344 1974 352 Q 1974 360 1956 365 L 1933 372 Q 1872 391 1823 414 Q 1775 436 1729 472 Q 1683 507 1660 533 Q 1637 559 1591 618 Q 1546 676 1545 678 L 1526 697 Q 1507 715 1462 720 Q 1444 722 1440 721 L 1424 719 Q 1412 717 1408 712 Q 1405 707 1409 701 Q 1413 696 1435 694 Q 1457 691 1480 680 Q 1503 668 1508 663 Q 1513 657 1528 636 L 1565 583 Q 1595 540 1628 497 L 1665 448 L 1724 378 Q 1744 358 1753 350 Q 1781 328 1819 330 Z" fill="lightgray"></path> 
<path d="M 1553 292 L 1586 294 Q 1608 294 1618 285 Q 1628 276 1623 236 L 1614 174 Q 1585 41 1551 6 Q 1539 -3 1534 -5 Q 1516 -12 1498 -2 L 1460 26 Q 1447 33 1444 30 Q 1442 26 1450 18 L 1470 -13 Q 1481 -28 1493 -58 Q 1505 -89 1511 -98 Q 1519 -115 1541 -105 Q 1563 -95 1583 -75 Q 1604 -55 1614 -40 Q 1643 4 1658 80 L 1682 192 Q 1689 235 1700 254 L 1718 280 L 1720 287 L 1718 296 Q 1716 301 1703 312 Q 1691 324 1665 334 Q 1644 345 1632 345 L 1614 340 L 1592 332 Q 1509 313 1499 312 L 1416 298 Q 1344 285 1322 283 L 1285 280 L 1266 277 Q 1251 271 1270 260 Q 1302 239 1317 239 Q 1332 239 1367 254 L 1399 263 L 1510 286 Q 1536 290 1553 292 Z" fill="lightgray"></path> 
<path d="M 1367 254 L 1371 221 Q 1373 208 1366 187 Q 1361 163 1337 115 Q 1314 66 1277 29 L 1228 -18 Q 1194 -50 1188 -55 L 1166 -72 Q 1157 -79 1160 -84 Q 1164 -89 1172 -84 L 1189 -77 Q 1209 -68 1244 -47 Q 1279 -26 1302 -8 Q 1325 10 1360 50 Q 1394 98 1399 106 L 1429 160 Q 1438 175 1448 187 Q 1474 213 1464 224 L 1436 246 Q 1423 256 1399 263 C 1371 273 1365 275 1367 254 Z" fill="lightgray"></path> 
      <clipPath id="make-me-a-hanzi-clip-0">
      <path d="M 261 469 Q 286 512 311 564 Q 332 613 352 637 Q 361 649 355 662 Q 349 675 318 695 Q 290 711 270 708 Q 251 704 262 683 Q 278 655 269 627 Q 227 477 92 276 Q 82 264 81 258 Q 78 246 93 250 Q 133 268 247 445 L 261 469 Z" fill="lightgray"></path>
      </clipPath>
      <path clip-path="url(#make-me-a-hanzi-clip-0)" d="M 272 694 L 298 673 L 311 649 L 282 569 L 197 404 L 127 300 L 90 259 " fill="none" id="make-me-a-hanzi-animation-0" stroke-dasharray="640 1280" stroke-linecap="round"></path>

      <clipPath id="make-me-a-hanzi-clip-1">
      <path d="M 353 229 Q 393 301 432 404 Q 447 434 472 453 Q 487 463 486 472 Q 485 485 454 500 Q 417 521 402 519 Q 390 518 380 509 Q 307 476 266 471 Q 263 471 261 469 C 232 462 217 450 247 445 Q 283 433 330 456 Q 360 477 376 465 Q 385 461 367 398 Q 354 332 312 259 L 293 225 Q 209 98 73 10 Q 66 4 66 0 Q 67 -4 75 -3 Q 195 12 328 189 Q 331 195 334 198 L 353 229 Z" fill="lightgray"></path>
      </clipPath>
      <path clip-path="url(#make-me-a-hanzi-clip-1)" d="M 254 449 L 316 466 L 359 485 L 404 485 L 423 467 L 370 319 L 303 195 L 228 107 L 180 64 L 135 32 L 72 3 " fill="none" id="make-me-a-hanzi-animation-1" stroke-dasharray="913 1826" stroke-linecap="round"></path>

      <clipPath id="make-me-a-hanzi-clip-2">
      <path d="M 334 198 L 356 182 Q 518 43 681 -40 Q 729 -56 924 -9 Q 937 -3 941 7 Q 944 17 920 17 Q 847 30 764 40 Q 590 62 371 217 Q 362 224 353 229 L 312 259 Q 279 292 229 299 Q 193 303 166 297 Q 156 291 161 282 Q 168 272 181 272 Q 230 268 288 229 Q 291 228 293 225 L 334 198 Z" fill="lightgray"></path>
      </clipPath>
      <path clip-path="url(#make-me-a-hanzi-clip-2)" d="M 173 286 L 219 283 L 272 264 L 495 106 L 575 59 L 682 10 L 729 0 L 885 1 L 931 7 " fill="none" id="make-me-a-hanzi-animation-2" stroke-dasharray="965 1930" stroke-linecap="round"></path>

      <clipPath id="make-me-a-hanzi-clip-3">
      <path d="M 549 695 Q 576 644 581 596 Q 594 428 575 179 Q 576 146 585 124 Q 592 111 602 118 Q 623 140 625 227 Q 644 633 650 656 Q 660 678 646 692 Q 628 708 596 722 Q 571 732 546 721 Q 533 712 549 695 Z" fill="lightgray"></path>
      </clipPath>
      <path clip-path="url(#make-me-a-hanzi-clip-3)" d="M 556 709 L 582 696 L 608 667 L 611 634 L 610 353 L 595 126 " fill="none" id="make-me-a-hanzi-animation-3" stroke-dasharray="738 1476" stroke-linecap="round"></path>

      <clipPath id="make-me-a-hanzi-clip-4">
      <path d="M 659 437 Q 720 388 795 316 Q 813 297 829 293 Q 838 292 845 303 Q 857 316 841 361 Q 820 422 658 469 Q 648 473 647 461 Q 648 448 659 437 Z" fill="lightgray"></path>
      </clipPath>
      <path clip-path="url(#make-me-a-hanzi-clip-4)" d="M 658 457 L 782 378 L 815 342 L 829 310 " fill="none" id="make-me-a-hanzi-animation-4" stroke-dasharray="359 718" stroke-linecap="round"></path>

      <clipPath id="make-me-a-hanzi-clip-5">
      <path d="M 1103 257 L 1121 264 Q 1135 267 1166 287 Q 1249 344 1294 390 Q 1328 429 1340 448 L 1374 497 Q 1391 523 1397 529 Q 1404 535 1406 539 L 1407 540 Q 1407 558 1380 581 Q 1353 604 1340 604 Q 1327 604 1325 601 Q 1323 598 1322 592 L 1318 561 Q 1316 539 1308 522 Q 1301 504 1280 468 Q 1237 405 1193 355 Q 1165 327 1146 310 L 1098 269 Q 1093 264 1095 260 Q 1098 255 1103 257 Z" fill="lightgray"></path>
      </clipPath>
      <path clip-path="url(#make-me-a-hanzi-clip-5)" d="M 1334 593 L 1352 562 L 1356 541 L 1299 442 L 1263 397 L 1190 326 L 1101 263 " fill="none" id="make-me-a-hanzi-animation-5" stroke-dasharray="568 1136" stroke-linecap="round"></path>

      <clipPath id="make-me-a-hanzi-clip-6">
      <path d="M 1819 330 L 1869 332 Q 1895 334 1919 337 L 1958 343 Q 1974 344 1974 352 Q 1974 360 1956 365 L 1933 372 Q 1872 391 1823 414 Q 1775 436 1729 472 Q 1683 507 1660 533 Q 1637 559 1591 618 Q 1546 676 1545 678 L 1526 697 Q 1507 715 1462 720 Q 1444 722 1440 721 L 1424 719 Q 1412 717 1408 712 Q 1405 707 1409 701 Q 1413 696 1435 694 Q 1457 691 1480 680 Q 1503 668 1508 663 Q 1513 657 1528 636 L 1565 583 Q 1595 540 1628 497 L 1665 448 L 1724 378 Q 1744 358 1753 350 Q 1781 328 1819 330 Z" fill="lightgray"></path>
      </clipPath>
      <path clip-path="url(#make-me-a-hanzi-clip-6)" d="M 1416 707 L 1468 704 L 1518 679 L 1672 482 L 1784 383 L 1836 367 L 1967 352 " fill="none" id="make-me-a-hanzi-animation-6" stroke-dasharray="822 1644" stroke-linecap="round"></path>

      <clipPath id="make-me-a-hanzi-clip-7">
      <path d="M 1553 292 L 1586 294 Q 1608 294 1618 285 Q 1628 276 1623 236 L 1614 174 Q 1585 41 1551 6 Q 1539 -3 1534 -5 Q 1516 -12 1498 -2 L 1460 26 Q 1447 33 1444 30 Q 1442 26 1450 18 L 1470 -13 Q 1481 -28 1493 -58 Q 1505 -89 1511 -98 Q 1519 -115 1541 -105 Q 1563 -95 1583 -75 Q 1604 -55 1614 -40 Q 1643 4 1658 80 L 1682 192 Q 1689 235 1700 254 L 1718 280 L 1720 287 L 1718 296 Q 1716 301 1703 312 Q 1691 324 1665 334 Q 1644 345 1632 345 L 1614 340 L 1592 332 Q 1509 313 1499 312 L 1416 298 Q 1344 285 1322 283 L 1285 280 L 1266 277 Q 1251 271 1270 260 Q 1302 239 1317 239 Q 1332 239 1367 254 L 1399 263 L 1510 286 Q 1536 290 1553 292 Z" fill="lightgray"></path>
      </clipPath>
      <path clip-path="url(#make-me-a-hanzi-clip-7)" d="M 1268 269 L 1319 261 L 1407 283 L 1583 314 L 1636 312 L 1658 295 L 1666 283 L 1635 122 L 1614 46 L 1579 -22 L 1538 -50 L 1504 -29 L 1453 24 L 1447 24 " fill="none" id="make-me-a-hanzi-animation-7" stroke-dasharray="1033 2066" stroke-linecap="round"></path>

      <clipPath id="make-me-a-hanzi-clip-8">
      <path d="M 1367 254 L 1371 221 Q 1373 208 1366 187 Q 1361 163 1337 115 Q 1314 66 1277 29 L 1228 -18 Q 1194 -50 1188 -55 L 1166 -72 Q 1157 -79 1160 -84 Q 1164 -89 1172 -84 L 1189 -77 Q 1209 -68 1244 -47 Q 1279 -26 1302 -8 Q 1325 10 1360 50 Q 1394 98 1399 106 L 1429 160 Q 1438 175 1448 187 Q 1474 213 1464 224 L 1436 246 Q 1423 256 1399 263 C 1371 273 1365 275 1367 254 Z" fill="lightgray"></path>
      </clipPath>
      <path clip-path="url(#make-me-a-hanzi-clip-8)" d="M 1374 249 L 1406 224 L 1413 208 L 1346 73 L 1284 5 L 1202 -59 L 1166 -79 " fill="none" id="make-me-a-hanzi-animation-8" stroke-dasharray="574 1148" stroke-linecap="round"></path>

</g>
</svg>
