<svg version="1.1" viewBox="0 0 2048 1024" xmlns="http://www.w3.org/2000/svg">
  <g stroke="lightgray" stroke-dasharray="1,1" stroke-width="1" transform="scale(4, 4)">
    <line x1="0" y1="0" x2="256" y2="256"></line>
    <line x1="256" y1="0" x2="0" y2="256"></line>
    <line x1="128" y1="0" x2="128" y2="256"></line>
    <line x1="0" y1="128" x2="256" y2="128"></line>
    <line x1="256" y1="0" x2="512" y2="256"></line>
    <line x1="512" y1="0" x2="256" y2="256"></line>
    <line x1="384" y1="0" x2="384" y2="256"></line>
    <line x1="256" y1="128" x2="512" y2="128"></line>
  </g>
<g transform="scale(1, -1) translate(0, -850)">
   <style type="text/css">
    @keyframes keyframes0 {
      from {
       stroke: black;
       stroke-dashoffset: 892;
       stroke-width: 128;
       }
       74% {
       animation-timing-function: step-end;
       stroke: black;
       stroke-dashoffset: 0;
       stroke-width: 128;
       }
       to {
       stroke: black;
       stroke-width: 1024;
       }
       }
       #make-me-a-hanzi-animation-0 {
         animation: keyframes0 0.975911s both;
         animation-delay: 0.000000s;
         animation-timing-function: linear;
       }
    @keyframes keyframes1 {
      from {
       stroke: black;
       stroke-dashoffset: 375;
       stroke-width: 128;
       }
       55% {
       animation-timing-function: step-end;
       stroke: black;
       stroke-dashoffset: 0;
       stroke-width: 128;
       }
       to {
       stroke: black;
       stroke-width: 1024;
       }
       }
       #make-me-a-hanzi-animation-1 {
         animation: keyframes1 0.555176s both;
         animation-delay: 0.975911s;
         animation-timing-function: linear;
       }
    @keyframes keyframes2 {
      from {
       stroke: black;
       stroke-dashoffset: 570;
       stroke-width: 128;
       }
       65% {
       animation-timing-function: step-end;
       stroke: black;
       stroke-dashoffset: 0;
       stroke-width: 128;
       }
       to {
       stroke: black;
       stroke-width: 1024;
       }
       }
       #make-me-a-hanzi-animation-2 {
         animation: keyframes2 0.713867s both;
         animation-delay: 1.531087s;
         animation-timing-function: linear;
       }
    @keyframes keyframes3 {
      from {
       stroke: black;
       stroke-dashoffset: 878;
       stroke-width: 128;
       }
       74% {
       animation-timing-function: step-end;
       stroke: black;
       stroke-dashoffset: 0;
       stroke-width: 128;
       }
       to {
       stroke: black;
       stroke-width: 1024;
       }
       }
       #make-me-a-hanzi-animation-3 {
         animation: keyframes3 0.964518s both;
         animation-delay: 2.244954s;
         animation-timing-function: linear;
       }
    @keyframes keyframes4 {
      from {
       stroke: black;
       stroke-dashoffset: 540;
       stroke-width: 128;
       }
       64% {
       animation-timing-function: step-end;
       stroke: black;
       stroke-dashoffset: 0;
       stroke-width: 128;
       }
       to {
       stroke: black;
       stroke-width: 1024;
       }
       }
       #make-me-a-hanzi-animation-4 {
         animation: keyframes4 0.689453s both;
         animation-delay: 3.209472s;
         animation-timing-function: linear;
       }
    @keyframes keyframes5 {
      from {
       stroke: black;
       stroke-dashoffset: 542;
       stroke-width: 128;
       }
       64% {
       animation-timing-function: step-end;
       stroke: black;
       stroke-dashoffset: 0;
       stroke-width: 128;
       }
       to {
       stroke: black;
       stroke-width: 1024;
       }
       }
       #make-me-a-hanzi-animation-5 {
         animation: keyframes5 0.691081s both;
         animation-delay: 3.898925s;
         animation-timing-function: linear;
       }
    @keyframes keyframes6 {
      from {
       stroke: black;
       stroke-dashoffset: 545;
       stroke-width: 128;
       }
       64% {
       animation-timing-function: step-end;
       stroke: black;
       stroke-dashoffset: 0;
       stroke-width: 128;
       }
       to {
       stroke: black;
       stroke-width: 1024;
       }
       }
       #make-me-a-hanzi-animation-6 {
         animation: keyframes6 0.693522s both;
         animation-delay: 4.590006s;
         animation-timing-function: linear;
       }
    @keyframes keyframes7 {
      from {
       stroke: black;
       stroke-dashoffset: 741;
       stroke-width: 128;
       }
       71% {
       animation-timing-function: step-end;
       stroke: black;
       stroke-dashoffset: 0;
       stroke-width: 128;
       }
       to {
       stroke: black;
       stroke-width: 1024;
       }
       }
       #make-me-a-hanzi-animation-7 {
         animation: keyframes7 0.853027s both;
         animation-delay: 5.283528s;
         animation-timing-function: linear;
       }
    @keyframes keyframes8 {
      from {
       stroke: black;
       stroke-dashoffset: 1009;
       stroke-width: 128;
       }
       77% {
       animation-timing-function: step-end;
       stroke: black;
       stroke-dashoffset: 0;
       stroke-width: 128;
       }
       to {
       stroke: black;
       stroke-width: 1024;
       }
       }
       #make-me-a-hanzi-animation-8 {
         animation: keyframes8 1.071126s both;
         animation-delay: 6.136555s;
         animation-timing-function: linear;
       }
    @keyframes keyframes9 {
      from {
       stroke: black;
       stroke-dashoffset: 871;
       stroke-width: 128;
       }
       74% {
       animation-timing-function: step-end;
       stroke: black;
       stroke-dashoffset: 0;
       stroke-width: 128;
       }
       to {
       stroke: black;
       stroke-width: 1024;
       }
       }
       #make-me-a-hanzi-animation-9 {
         animation: keyframes9 0.958822s both;
         animation-delay: 7.207681s;
         animation-timing-function: linear;
       }
    @keyframes keyframes10 {
      from {
       stroke: black;
       stroke-dashoffset: 688;
       stroke-width: 128;
       }
       69% {
       animation-timing-function: step-end;
       stroke: black;
       stroke-dashoffset: 0;
       stroke-width: 128;
       }
       to {
       stroke: black;
       stroke-width: 1024;
       }
       }
       #make-me-a-hanzi-animation-10 {
         animation: keyframes10 0.809896s both;
         animation-delay: 8.166503s;
         animation-timing-function: linear;
       }
    @keyframes keyframes11 {
      from {
       stroke: black;
       stroke-dashoffset: 883;
       stroke-width: 128;
       }
       74% {
       animation-timing-function: step-end;
       stroke: black;
       stroke-dashoffset: 0;
       stroke-width: 128;
       }
       to {
       stroke: black;
       stroke-width: 1024;
       }
       }
       #make-me-a-hanzi-animation-11 {
         animation: keyframes11 0.968587s both;
         animation-delay: 8.976399s;
         animation-timing-function: linear;
       }
    @keyframes keyframes12 {
      from {
       stroke: black;
       stroke-dashoffset: 1034;
       stroke-width: 128;
       }
       77% {
       animation-timing-function: step-end;
       stroke: black;
       stroke-dashoffset: 0;
       stroke-width: 128;
       }
       to {
       stroke: black;
       stroke-width: 1024;
       }
       }
       #make-me-a-hanzi-animation-12 {
         animation: keyframes12 1.091471s both;
         animation-delay: 9.944986s;
         animation-timing-function: linear;
       }
    @keyframes keyframes13 {
      from {
       stroke: black;
       stroke-dashoffset: 867;
       stroke-width: 128;
       }
       74% {
       animation-timing-function: step-end;
       stroke: black;
       stroke-dashoffset: 0;
       stroke-width: 128;
       }
       to {
       stroke: black;
       stroke-width: 1024;
       }
       }
       #make-me-a-hanzi-animation-13 {
         animation: keyframes13 0.955566s both;
         animation-delay: 11.036457s;
         animation-timing-function: linear;
       }
</style>
<path d="M 479.5 719.5 L 523.5 722.5 Q 528.5 724.5 538.5 724.5 L 561.5 724.5 L 795.5 736.5 Q 812.5 733.5 817.5 740.5 Q 821.5 747.5 813.5 759.5 Q 805.5 771.5 780.5 780.5 Q 755.5 788.5 748.5 789.5 Q 741.5 789.5 719.5 786.5 Q 699.5 782.5 664.5 778.5 L 290.5 740.5 Q 243.5 734.5 227.5 734.5 Q 224.5 732.5 213.5 732.5 L 201.5 730.5 Q 185.5 728.5 180.5 729.5 Q 174.5 729.5 173.5 726.5 Q 165.5 719.5 186.5 706.5 Q 202.5 700.5 213.5 694.5 Q 223.5 688.5 236.5 688.5 Q 249.5 688.5 263.5 692.5 Q 276.5 696.5 299.5 698.5 Q 322.5 700.5 330.5 702.5 L 406.5 712.5 Q 426.5 712.5 434.5 714.5 L 479.5 719.5 Z" fill="lightgray"></path> 
<path d="M 441.5 626.5 L 459.5 644.5 Q 472.5 657.5 482.5 665.5 Q 487.5 674.5 499.5 681.5 Q 511.5 688.5 505.5 699.5 L 495.5 708.5 L 479.5 719.5 C 454.5 736.5 438.5 744.5 434.5 714.5 L 431.5 694.5 Q 431.5 689.5 428.5 676.5 Q 424.5 663.5 421.5 658.5 Q 418.5 653.5 417.5 648.5 Q 415.5 643.5 400.5 622.5 C 383.5 598.5 420.5 605.5 441.5 626.5 Z" fill="lightgray"></path> 
<path d="M 349.5 615.5 L 329.5 622.5 Q 310.5 625.5 303.5 627.5 Q 295.5 628.5 293.5 623.5 Q 288.5 619.5 290.5 614.5 L 297.5 594.5 Q 302.5 575.5 304.5 551.5 L 308.5 501.5 Q 309.5 495.5 309.5 441.5 L 306.5 349.5 Q 306.5 323.5 316.5 313.5 Q 326.5 302.5 332.5 302.5 Q 344.5 304.5 354.5 328.5 L 356.5 358.5 L 358.5 387.5 L 358.5 415.5 L 358.5 438.5 L 359.5 498.5 L 359.5 524.5 L 358.5 587.5 C 358.5 612.5 358.5 612.5 349.5 615.5 Z" fill="lightgray"></path> 
<path d="M 650.5 345.5 L 655.5 331.5 Q 659.5 318.5 662.5 315.5 Q 665.5 311.5 673.5 310.5 Q 681.5 308.5 690.5 315.5 Q 707.5 333.5 711.5 366.5 L 713.5 406.5 L 711.5 462.5 L 711.5 509.5 Q 710.5 576.5 723.5 600.5 L 728.5 610.5 Q 728.5 617.5 719.5 624.5 Q 708.5 636.5 697.5 640.5 Q 681.5 650.5 671.5 653.5 L 651.5 658.5 Q 640.5 658.5 625.5 655.5 L 545.5 640.5 L 491.5 633.5 Q 485.5 633.5 441.5 626.5 L 400.5 622.5 L 375.5 618.5 Q 370.5 616.5 349.5 615.5 C 319.5 613.5 328.5 585.5 358.5 587.5 L 376.5 588.5 Q 400.5 589.5 411.5 591.5 L 433.5 594.5 Q 435.5 594.5 454.5 599.5 Q 472.5 603.5 514.5 607.5 L 571.5 614.5 Q 598.5 618.5 619.5 618.5 Q 632.5 616.5 638.5 612.5 Q 645.5 604.5 647.5 600.5 Q 649.5 588.5 649.5 576.5 L 649.5 553.5 L 651.5 534.5 L 651.5 461.5 L 651.5 441.5 L 650.5 389.5 Q 650.5 376.5 648.5 376.5 C 646.5 357.5 646.5 357.5 650.5 345.5 Z" fill="lightgray"></path> 
<path d="M 359.5 498.5 L 376.5 495.5 Q 386.5 492.5 407.5 496.5 L 651.5 534.5 C 681.5 539.5 678.5 547.5 649.5 553.5 L 617.5 560.5 Q 606.5 564.5 595.5 564.5 Q 573.5 560.5 561.5 557.5 L 517.5 548.5 L 397.5 528.5 Q 379.5 528.5 359.5 524.5 C 329.5 519.5 329.5 503.5 359.5 498.5 Z" fill="lightgray"></path> 
<path d="M 358.5 415.5 L 377.5 412.5 Q 395.5 407.5 459.5 417.5 L 593.5 433.5 Q 621.5 434.5 629.5 436.5 L 651.5 441.5 C 680.5 448.5 680.5 454.5 651.5 461.5 L 606.5 472.5 Q 590.5 472.5 571.5 468.5 L 532.5 461.5 Q 508.5 454.5 476.5 451.5 L 358.5 438.5 C 328.5 435.5 328.5 420.5 358.5 415.5 Z" fill="lightgray"></path> 
<path d="M 354.5 328.5 L 365.5 327.5 L 398.5 327.5 L 431.5 328.5 Q 463.5 329.5 475.5 331.5 L 527.5 337.5 L 650.5 345.5 C 680.5 347.5 678.5 373.5 648.5 376.5 Q 646.5 375.5 638.5 377.5 Q 634.5 380.5 625.5 382.5 L 610.5 384.5 Q 607.5 384.5 583.5 380.5 Q 558.5 375.5 535.5 373.5 L 460.5 364.5 Q 448.5 362.5 419.5 362.5 L 356.5 358.5 C 326.5 356.5 324.5 331.5 354.5 328.5 Z" fill="lightgray"></path> 
<path d="M 365.5 327.5 L 365.5 309.5 Q 365.5 279.5 352.5 253.5 L 315.5 184.5 L 290.5 146.5 Q 282.5 133.5 246.5 90.5 Q 209.5 46.5 175.5 16.5 L 144.5 -12.5 L 116.5 -36.5 Q 110.5 -43.5 111.5 -47.5 Q 112.5 -51.5 123.5 -47.5 L 152.5 -31.5 Q 172.5 -21.5 192.5 -7.5 Q 260.5 38.5 315.5 104.5 L 345.5 142.5 Q 358.5 158.5 364.5 168.5 L 386.5 199.5 L 401.5 226.5 L 425.5 260.5 L 445.5 274.5 Q 447.5 281.5 440.5 293.5 Q 433.5 304.5 421.5 311.5 L 398.5 327.5 C 373.5 344.5 365.5 350.5 365.5 327.5 Z" fill="lightgray"></path> 
<path d="M 484.5 72.5 L 466.5 54.5 Q 451.5 42.5 429.5 26.5 L 383.5 -1.5 L 337.5 -23.5 Q 311.5 -35.5 303.5 -37.5 L 276.5 -47.5 Q 264.5 -52.5 264.5 -57.5 Q 264.5 -63.5 276.5 -63.5 L 308.5 -61.5 Q 323.5 -61.5 357.5 -51.5 L 409.5 -37.5 Q 426.5 -33.5 445.5 -22.5 L 479.5 -3.5 L 527.5 35.5 L 567.5 74.5 L 589.5 98.5 L 617.5 136.5 L 651.5 186.5 Q 677.5 222.5 691.5 232.5 Q 704.5 241.5 696.5 254.5 Q 688.5 267.5 667.5 278.5 Q 646.5 288.5 640.5 290.5 L 623.5 294.5 L 555.5 278.5 L 519.5 271.5 Q 481.5 260.5 425.5 260.5 C 395.5 259.5 372.5 233.5 401.5 226.5 L 411.5 222.5 Q 436.5 219.5 457.5 222.5 L 587.5 253.5 Q 601.5 256.5 604.5 253.5 Q 610.5 246.5 585.5 202.5 L 562.5 164.5 Q 548.5 143.5 541.5 136.5 L 519.5 107.5 L 484.5 72.5 Z" fill="lightgray"></path> 
<path d="M 364.5 168.5 L 374.5 165.5 Q 384.5 165.5 404.5 148.5 L 484.5 72.5 L 527.5 35.5 L 555.5 10.5 Q 574.5 -6.5 600.5 -27.5 L 641.5 -61.5 L 682.5 -91.5 Q 714.5 -113.5 747.5 -111.5 L 809.5 -107.5 L 874.5 -95.5 L 903.5 -87.5 Q 913.5 -86.5 913.5 -79.5 Q 913.5 -71.5 903.5 -68.5 L 707.5 -5.5 Q 696.5 -2.5 650.5 21.5 Q 603.5 45.5 567.5 74.5 L 519.5 107.5 L 426.5 187.5 Q 425.5 188.5 407.5 197.5 Q 395.5 199.5 386.5 199.5 C 356.5 202.5 335.5 176.5 364.5 168.5 Z" fill="lightgray"></path> 
<path d="M 1486.0 597.0 L 1679.0 632.0 Q 1697.0 637.0 1707.0 642.0 Q 1717.0 646.0 1715.0 652.0 Q 1715.0 662.0 1678.0 674.0 Q 1647.0 688.0 1633.0 687.0 Q 1620.0 685.0 1573.0 670.0 Q 1526.0 655.0 1487.0 649.0 L 1391.0 634.0 Q 1378.0 631.0 1325.0 628.0 L 1292.0 625.0 Q 1275.0 623.0 1272.0 620.0 Q 1270.0 617.0 1270.0 610.0 Q 1272.0 604.0 1286.0 595.0 Q 1300.0 586.0 1329.0 583.0 L 1353.0 583.0 L 1430.0 589.0 L 1486.0 597.0 Z" fill="lightgray"></path> 
<path d="M 1811.0 417.0 Q 1811.0 423.0 1805.0 427.0 L 1790.0 437.0 Q 1747.0 465.0 1724.0 465.0 Q 1716.0 465.0 1692.0 458.0 Q 1669.0 451.0 1643.0 448.0 L 1594.0 439.0 L 1513.0 428.0 L 1445.0 417.0 L 1329.0 404.0 L 1215.0 389.0 L 1184.0 387.0 Q 1174.0 385.0 1171.0 383.0 Q 1167.0 372.0 1187.0 360.0 L 1212.0 347.0 Q 1220.0 342.0 1234.0 340.0 Q 1249.0 337.0 1263.0 342.0 Q 1277.0 347.0 1286.0 349.0 L 1314.0 355.0 Q 1320.0 357.0 1354.0 361.0 L 1436.0 372.0 L 1514.0 383.0 L 1647.0 393.0 L 1765.0 400.0 L 1789.0 403.0 Q 1811.0 401.0 1811.0 417.0 Z" fill="lightgray"></path> 
<path d="M 1513.0 428.0 L 1515.0 492.0 L 1523.0 542.0 L 1528.0 559.0 Q 1528.0 565.0 1526.0 574.0 Q 1525.0 583.0 1486.0 597.0 C 1458.0 608.0 1417.0 616.0 1430.0 589.0 L 1437.0 575.0 Q 1441.0 569.0 1443.0 550.0 Q 1446.0 530.0 1446.0 524.0 L 1448.0 497.0 L 1445.0 417.0 L 1436.0 372.0 L 1432.0 357.0 Q 1426.0 332.0 1414.0 307.0 Q 1405.0 281.0 1378.0 233.0 Q 1352.0 184.0 1303.0 135.0 Q 1263.0 98.0 1209.0 63.0 Q 1156.0 27.0 1140.0 19.0 L 1109.0 3.0 Q 1105.0 2.0 1107.0 -4.0 Q 1106.0 -9.0 1112.0 -7.0 L 1131.0 -3.0 Q 1137.0 -2.0 1159.0 6.0 L 1173.0 11.0 Q 1180.0 13.0 1189.0 17.0 L 1213.0 27.0 Q 1282.0 59.0 1324.0 91.0 Q 1367.0 122.0 1386.0 143.0 Q 1406.0 164.0 1436.0 214.0 Q 1467.0 264.0 1477.0 295.0 Q 1488.0 326.0 1498.0 349.0 L 1513.0 428.0 Z" fill="lightgray"></path> 
<path d="M 1498.0 349.0 L 1534.0 283.0 L 1649.0 105.0 Q 1710.0 15.0 1734.0 3.0 Q 1772.0 -12.0 1818.0 -9.0 L 1883.0 -6.0 L 1942.0 1.0 L 1956.0 5.0 Q 1960.0 6.0 1964.0 12.0 Q 1967.0 18.0 1952.0 23.0 L 1939.0 29.0 Q 1791.0 88.0 1708.0 161.0 Q 1678.0 185.0 1648.0 219.0 L 1585.0 290.0 Q 1554.0 327.0 1542.0 345.0 Q 1534.0 355.0 1514.0 383.0 C 1496.0 407.0 1476.0 390.0 1498.0 349.0 Z" fill="lightgray"></path> 
      <clipPath id="make-me-a-hanzi-clip-0">
      <path d="M 479.5 719.5 L 523.5 722.5 Q 528.5 724.5 538.5 724.5 L 561.5 724.5 L 795.5 736.5 Q 812.5 733.5 817.5 740.5 Q 821.5 747.5 813.5 759.5 Q 805.5 771.5 780.5 780.5 Q 755.5 788.5 748.5 789.5 Q 741.5 789.5 719.5 786.5 Q 699.5 782.5 664.5 778.5 L 290.5 740.5 Q 243.5 734.5 227.5 734.5 Q 224.5 732.5 213.5 732.5 L 201.5 730.5 Q 185.5 728.5 180.5 729.5 Q 174.5 729.5 173.5 726.5 Q 165.5 719.5 186.5 706.5 Q 202.5 700.5 213.5 694.5 Q 223.5 688.5 236.5 688.5 Q 249.5 688.5 263.5 692.5 Q 276.5 696.5 299.5 698.5 Q 322.5 700.5 330.5 702.5 L 406.5 712.5 Q 426.5 712.5 434.5 714.5 L 479.5 719.5 Z" fill="lightgray"></path>
      </clipPath>
      <path clip-path="url(#make-me-a-hanzi-clip-0)" d="M 179.5 721.5 L 241.5 711.5 L 409.5 733.5 L 731.5 761.5 L 779.5 758.5 L 809.5 745.5 " fill="none" id="make-me-a-hanzi-animation-0" stroke-dasharray="764 1528" stroke-linecap="round"></path>

      <clipPath id="make-me-a-hanzi-clip-1">
      <path d="M 441.5 626.5 L 459.5 644.5 Q 472.5 657.5 482.5 665.5 Q 487.5 674.5 499.5 681.5 Q 511.5 688.5 505.5 699.5 L 495.5 708.5 L 479.5 719.5 C 454.5 736.5 438.5 744.5 434.5 714.5 L 431.5 694.5 Q 431.5 689.5 428.5 676.5 Q 424.5 663.5 421.5 658.5 Q 418.5 653.5 417.5 648.5 Q 415.5 643.5 400.5 622.5 C 383.5 598.5 420.5 605.5 441.5 626.5 Z" fill="lightgray"></path>
      </clipPath>
      <path clip-path="url(#make-me-a-hanzi-clip-1)" d="M 495.5 692.5 L 472.5 693.5 L 461.5 687.5 L 433.5 641.5 L 406.5 630.5 " fill="none" id="make-me-a-hanzi-animation-1" stroke-dasharray="247 494" stroke-linecap="round"></path>

      <clipPath id="make-me-a-hanzi-clip-2">
      <path d="M 349.5 615.5 L 329.5 622.5 Q 310.5 625.5 303.5 627.5 Q 295.5 628.5 293.5 623.5 Q 288.5 619.5 290.5 614.5 L 297.5 594.5 Q 302.5 575.5 304.5 551.5 L 308.5 501.5 Q 309.5 495.5 309.5 441.5 L 306.5 349.5 Q 306.5 323.5 316.5 313.5 Q 326.5 302.5 332.5 302.5 Q 344.5 304.5 354.5 328.5 L 356.5 358.5 L 358.5 387.5 L 358.5 415.5 L 358.5 438.5 L 359.5 498.5 L 359.5 524.5 L 358.5 587.5 C 358.5 612.5 358.5 612.5 349.5 615.5 Z" fill="lightgray"></path>
      </clipPath>
      <path clip-path="url(#make-me-a-hanzi-clip-2)" d="M 302.5 615.5 L 329.5 585.5 L 334.5 505.5 L 332.5 312.5 " fill="none" id="make-me-a-hanzi-animation-2" stroke-dasharray="442 884" stroke-linecap="round"></path>

      <clipPath id="make-me-a-hanzi-clip-3">
      <path d="M 650.5 345.5 L 655.5 331.5 Q 659.5 318.5 662.5 315.5 Q 665.5 311.5 673.5 310.5 Q 681.5 308.5 690.5 315.5 Q 707.5 333.5 711.5 366.5 L 713.5 406.5 L 711.5 462.5 L 711.5 509.5 Q 710.5 576.5 723.5 600.5 L 728.5 610.5 Q 728.5 617.5 719.5 624.5 Q 708.5 636.5 697.5 640.5 Q 681.5 650.5 671.5 653.5 L 651.5 658.5 Q 640.5 658.5 625.5 655.5 L 545.5 640.5 L 491.5 633.5 Q 485.5 633.5 441.5 626.5 L 400.5 622.5 L 375.5 618.5 Q 370.5 616.5 349.5 615.5 C 319.5 613.5 328.5 585.5 358.5 587.5 L 376.5 588.5 Q 400.5 589.5 411.5 591.5 L 433.5 594.5 Q 435.5 594.5 454.5 599.5 Q 472.5 603.5 514.5 607.5 L 571.5 614.5 Q 598.5 618.5 619.5 618.5 Q 632.5 616.5 638.5 612.5 Q 645.5 604.5 647.5 600.5 Q 649.5 588.5 649.5 576.5 L 649.5 553.5 L 651.5 534.5 L 651.5 461.5 L 651.5 441.5 L 650.5 389.5 Q 650.5 376.5 648.5 376.5 C 646.5 357.5 646.5 357.5 650.5 345.5 Z" fill="lightgray"></path>
      </clipPath>
      <path clip-path="url(#make-me-a-hanzi-clip-3)" d="M 358.5 610.5 L 368.5 602.5 L 622.5 637.5 L 650.5 633.5 L 674.5 617.5 L 684.5 605.5 L 684.5 594.5 L 682.5 401.5 L 673.5 325.5 " fill="none" id="make-me-a-hanzi-animation-3" stroke-dasharray="750 1500" stroke-linecap="round"></path>

      <clipPath id="make-me-a-hanzi-clip-4">
      <path d="M 359.5 498.5 L 376.5 495.5 Q 386.5 492.5 407.5 496.5 L 651.5 534.5 C 681.5 539.5 678.5 547.5 649.5 553.5 L 617.5 560.5 Q 606.5 564.5 595.5 564.5 Q 573.5 560.5 561.5 557.5 L 517.5 548.5 L 397.5 528.5 Q 379.5 528.5 359.5 524.5 C 329.5 519.5 329.5 503.5 359.5 498.5 Z" fill="lightgray"></path>
      </clipPath>
      <path clip-path="url(#make-me-a-hanzi-clip-4)" d="M 365.5 505.5 L 599.5 545.5 L 638.5 543.5 L 643.5 538.5 " fill="none" id="make-me-a-hanzi-animation-4" stroke-dasharray="412 824" stroke-linecap="round"></path>

      <clipPath id="make-me-a-hanzi-clip-5">
      <path d="M 358.5 415.5 L 377.5 412.5 Q 395.5 407.5 459.5 417.5 L 593.5 433.5 Q 621.5 434.5 629.5 436.5 L 651.5 441.5 C 680.5 448.5 680.5 454.5 651.5 461.5 L 606.5 472.5 Q 590.5 472.5 571.5 468.5 L 532.5 461.5 Q 508.5 454.5 476.5 451.5 L 358.5 438.5 C 328.5 435.5 328.5 420.5 358.5 415.5 Z" fill="lightgray"></path>
      </clipPath>
      <path clip-path="url(#make-me-a-hanzi-clip-5)" d="M 364.5 421.5 L 371.5 426.5 L 447.5 430.5 L 591.5 452.5 L 638.5 452.5 L 644.5 446.5 " fill="none" id="make-me-a-hanzi-animation-5" stroke-dasharray="414 828" stroke-linecap="round"></path>

      <clipPath id="make-me-a-hanzi-clip-6">
      <path d="M 354.5 328.5 L 365.5 327.5 L 398.5 327.5 L 431.5 328.5 Q 463.5 329.5 475.5 331.5 L 527.5 337.5 L 650.5 345.5 C 680.5 347.5 678.5 373.5 648.5 376.5 Q 646.5 375.5 638.5 377.5 Q 634.5 380.5 625.5 382.5 L 610.5 384.5 Q 607.5 384.5 583.5 380.5 Q 558.5 375.5 535.5 373.5 L 460.5 364.5 Q 448.5 362.5 419.5 362.5 L 356.5 358.5 C 326.5 356.5 324.5 331.5 354.5 328.5 Z" fill="lightgray"></path>
      </clipPath>
      <path clip-path="url(#make-me-a-hanzi-clip-6)" d="M 360.5 335.5 L 381.5 344.5 L 440.5 344.5 L 615.5 364.5 L 632.5 361.5 L 642.5 352.5 " fill="none" id="make-me-a-hanzi-animation-6" stroke-dasharray="417 834" stroke-linecap="round"></path>

      <clipPath id="make-me-a-hanzi-clip-7">
      <path d="M 365.5 327.5 L 365.5 309.5 Q 365.5 279.5 352.5 253.5 L 315.5 184.5 L 290.5 146.5 Q 282.5 133.5 246.5 90.5 Q 209.5 46.5 175.5 16.5 L 144.5 -12.5 L 116.5 -36.5 Q 110.5 -43.5 111.5 -47.5 Q 112.5 -51.5 123.5 -47.5 L 152.5 -31.5 Q 172.5 -21.5 192.5 -7.5 Q 260.5 38.5 315.5 104.5 L 345.5 142.5 Q 358.5 158.5 364.5 168.5 L 386.5 199.5 L 401.5 226.5 L 425.5 260.5 L 445.5 274.5 Q 447.5 281.5 440.5 293.5 Q 433.5 304.5 421.5 311.5 L 398.5 327.5 C 373.5 344.5 365.5 350.5 365.5 327.5 Z" fill="lightgray"></path>
      </clipPath>
      <path clip-path="url(#make-me-a-hanzi-clip-7)" d="M 371.5 323.5 L 390.5 300.5 L 397.5 281.5 L 330.5 162.5 L 244.5 57.5 L 190.5 8.5 L 117.5 -43.5 " fill="none" id="make-me-a-hanzi-animation-7" stroke-dasharray="613 1226" stroke-linecap="round"></path>

      <clipPath id="make-me-a-hanzi-clip-8">
      <path d="M 484.5 72.5 L 466.5 54.5 Q 451.5 42.5 429.5 26.5 L 383.5 -1.5 L 337.5 -23.5 Q 311.5 -35.5 303.5 -37.5 L 276.5 -47.5 Q 264.5 -52.5 264.5 -57.5 Q 264.5 -63.5 276.5 -63.5 L 308.5 -61.5 Q 323.5 -61.5 357.5 -51.5 L 409.5 -37.5 Q 426.5 -33.5 445.5 -22.5 L 479.5 -3.5 L 527.5 35.5 L 567.5 74.5 L 589.5 98.5 L 617.5 136.5 L 651.5 186.5 Q 677.5 222.5 691.5 232.5 Q 704.5 241.5 696.5 254.5 Q 688.5 267.5 667.5 278.5 Q 646.5 288.5 640.5 290.5 L 623.5 294.5 L 555.5 278.5 L 519.5 271.5 Q 481.5 260.5 425.5 260.5 C 395.5 259.5 372.5 233.5 401.5 226.5 L 411.5 222.5 Q 436.5 219.5 457.5 222.5 L 587.5 253.5 Q 601.5 256.5 604.5 253.5 Q 610.5 246.5 585.5 202.5 L 562.5 164.5 Q 548.5 143.5 541.5 136.5 L 519.5 107.5 L 484.5 72.5 Z" fill="lightgray"></path>
      </clipPath>
      <path clip-path="url(#make-me-a-hanzi-clip-8)" d="M 408.5 229.5 L 436.5 241.5 L 460.5 241.5 L 607.5 272.5 L 622.5 270.5 L 645.5 244.5 L 570.5 122.5 L 481.5 31.5 L 397.5 -18.5 L 331.5 -43.5 L 273.5 -55.5 " fill="none" id="make-me-a-hanzi-animation-8" stroke-dasharray="881 1762" stroke-linecap="round"></path>

      <clipPath id="make-me-a-hanzi-clip-9">
      <path d="M 364.5 168.5 L 374.5 165.5 Q 384.5 165.5 404.5 148.5 L 484.5 72.5 L 527.5 35.5 L 555.5 10.5 Q 574.5 -6.5 600.5 -27.5 L 641.5 -61.5 L 682.5 -91.5 Q 714.5 -113.5 747.5 -111.5 L 809.5 -107.5 L 874.5 -95.5 L 903.5 -87.5 Q 913.5 -86.5 913.5 -79.5 Q 913.5 -71.5 903.5 -68.5 L 707.5 -5.5 Q 696.5 -2.5 650.5 21.5 Q 603.5 45.5 567.5 74.5 L 519.5 107.5 L 426.5 187.5 Q 425.5 188.5 407.5 197.5 Q 395.5 199.5 386.5 199.5 C 356.5 202.5 335.5 176.5 364.5 168.5 Z" fill="lightgray"></path>
      </clipPath>
      <path clip-path="url(#make-me-a-hanzi-clip-9)" d="M 370.5 171.5 L 405.5 175.5 L 579.5 28.5 L 703.5 -51.5 L 741.5 -65.5 L 904.5 -77.5 " fill="none" id="make-me-a-hanzi-animation-9" stroke-dasharray="743 1486" stroke-linecap="round"></path>

      <clipPath id="make-me-a-hanzi-clip-10">
      <path d="M 1486.0 597.0 L 1679.0 632.0 Q 1697.0 637.0 1707.0 642.0 Q 1717.0 646.0 1715.0 652.0 Q 1715.0 662.0 1678.0 674.0 Q 1647.0 688.0 1633.0 687.0 Q 1620.0 685.0 1573.0 670.0 Q 1526.0 655.0 1487.0 649.0 L 1391.0 634.0 Q 1378.0 631.0 1325.0 628.0 L 1292.0 625.0 Q 1275.0 623.0 1272.0 620.0 Q 1270.0 617.0 1270.0 610.0 Q 1272.0 604.0 1286.0 595.0 Q 1300.0 586.0 1329.0 583.0 L 1353.0 583.0 L 1430.0 589.0 L 1486.0 597.0 Z" fill="lightgray"></path>
      </clipPath>
      <path clip-path="url(#make-me-a-hanzi-clip-10)" d="M 1279.0 613.0 L 1309.0 606.0 L 1359.0 606.0 L 1519.0 628.0 L 1626.0 654.0 L 1706.0 651.0 " fill="none" id="make-me-a-hanzi-animation-10" stroke-dasharray="560 1120" stroke-linecap="round"></path>

      <clipPath id="make-me-a-hanzi-clip-11">
      <path d="M 1811.0 417.0 Q 1811.0 423.0 1805.0 427.0 L 1790.0 437.0 Q 1747.0 465.0 1724.0 465.0 Q 1716.0 465.0 1692.0 458.0 Q 1669.0 451.0 1643.0 448.0 L 1594.0 439.0 L 1513.0 428.0 L 1445.0 417.0 L 1329.0 404.0 L 1215.0 389.0 L 1184.0 387.0 Q 1174.0 385.0 1171.0 383.0 Q 1167.0 372.0 1187.0 360.0 L 1212.0 347.0 Q 1220.0 342.0 1234.0 340.0 Q 1249.0 337.0 1263.0 342.0 Q 1277.0 347.0 1286.0 349.0 L 1314.0 355.0 Q 1320.0 357.0 1354.0 361.0 L 1436.0 372.0 L 1514.0 383.0 L 1647.0 393.0 L 1765.0 400.0 L 1789.0 403.0 Q 1811.0 401.0 1811.0 417.0 Z" fill="lightgray"></path>
      </clipPath>
      <path clip-path="url(#make-me-a-hanzi-clip-11)" d="M 1179.0 379.0 L 1215.0 368.0 L 1250.0 366.0 L 1311.0 379.0 L 1719.0 431.0 L 1798.0 416.0 " fill="none" id="make-me-a-hanzi-animation-11" stroke-dasharray="755 1510" stroke-linecap="round"></path>

      <clipPath id="make-me-a-hanzi-clip-12">
      <path d="M 1513.0 428.0 L 1515.0 492.0 L 1523.0 542.0 L 1528.0 559.0 Q 1528.0 565.0 1526.0 574.0 Q 1525.0 583.0 1486.0 597.0 C 1458.0 608.0 1417.0 616.0 1430.0 589.0 L 1437.0 575.0 Q 1441.0 569.0 1443.0 550.0 Q 1446.0 530.0 1446.0 524.0 L 1448.0 497.0 L 1445.0 417.0 L 1436.0 372.0 L 1432.0 357.0 Q 1426.0 332.0 1414.0 307.0 Q 1405.0 281.0 1378.0 233.0 Q 1352.0 184.0 1303.0 135.0 Q 1263.0 98.0 1209.0 63.0 Q 1156.0 27.0 1140.0 19.0 L 1109.0 3.0 Q 1105.0 2.0 1107.0 -4.0 Q 1106.0 -9.0 1112.0 -7.0 L 1131.0 -3.0 Q 1137.0 -2.0 1159.0 6.0 L 1173.0 11.0 Q 1180.0 13.0 1189.0 17.0 L 1213.0 27.0 Q 1282.0 59.0 1324.0 91.0 Q 1367.0 122.0 1386.0 143.0 Q 1406.0 164.0 1436.0 214.0 Q 1467.0 264.0 1477.0 295.0 Q 1488.0 326.0 1498.0 349.0 L 1513.0 428.0 Z" fill="lightgray"></path>
      </clipPath>
      <path clip-path="url(#make-me-a-hanzi-clip-12)" d="M 1438.0 584.0 L 1484.0 555.0 L 1479.0 428.0 L 1461.0 342.0 L 1416.0 237.0 L 1356.0 152.0 L 1287.0 91.0 L 1190.0 32.0 L 1112.0 -2.0 " fill="none" id="make-me-a-hanzi-animation-12" stroke-dasharray="906 1812" stroke-linecap="round"></path>

      <clipPath id="make-me-a-hanzi-clip-13">
      <path d="M 1498.0 349.0 L 1534.0 283.0 L 1649.0 105.0 Q 1710.0 15.0 1734.0 3.0 Q 1772.0 -12.0 1818.0 -9.0 L 1883.0 -6.0 L 1942.0 1.0 L 1956.0 5.0 Q 1960.0 6.0 1964.0 12.0 Q 1967.0 18.0 1952.0 23.0 L 1939.0 29.0 Q 1791.0 88.0 1708.0 161.0 Q 1678.0 185.0 1648.0 219.0 L 1585.0 290.0 Q 1554.0 327.0 1542.0 345.0 Q 1534.0 355.0 1514.0 383.0 C 1496.0 407.0 1476.0 390.0 1498.0 349.0 Z" fill="lightgray"></path>
      </clipPath>
      <path clip-path="url(#make-me-a-hanzi-clip-13)" d="M 1510.0 375.0 L 1517.0 350.0 L 1556.0 288.0 L 1639.0 180.0 L 1690.0 119.0 L 1760.0 54.0 L 1836.0 31.0 L 1956.0 13.0 " fill="none" id="make-me-a-hanzi-animation-13" stroke-dasharray="739 1478" stroke-linecap="round"></path>

</g>
</svg>
