<svg version="1.1" viewBox="0 0 2048 1024" xmlns="http://www.w3.org/2000/svg">
  <g stroke="lightgray" stroke-dasharray="1,1" stroke-width="1" transform="scale(4, 4)">
    <line x1="0" y1="0" x2="256" y2="256"></line>
    <line x1="256" y1="0" x2="0" y2="256"></line>
    <line x1="128" y1="0" x2="128" y2="256"></line>
    <line x1="0" y1="128" x2="256" y2="128"></line>
    <line x1="256" y1="0" x2="512" y2="256"></line>
    <line x1="512" y1="0" x2="256" y2="256"></line>
    <line x1="384" y1="0" x2="384" y2="256"></line>
    <line x1="256" y1="128" x2="512" y2="128"></line>
  </g>
<g transform="scale(1, -1) translate(0, -850)">
   <style type="text/css">
    @keyframes keyframes0 {
      from {
       stroke: black;
       stroke-dashoffset: 858;
       stroke-width: 128;
       }
       74% {
       animation-timing-function: step-end;
       stroke: black;
       stroke-dashoffset: 0;
       stroke-width: 128;
       }
       to {
       stroke: black;
       stroke-width: 1024;
       }
       }
       #make-me-a-hanzi-animation-0 {
         animation: keyframes0 0.948242s both;
         animation-delay: 0.000000s;
         animation-timing-function: linear;
       }
    @keyframes keyframes1 {
      from {
       stroke: black;
       stroke-dashoffset: 1197;
       stroke-width: 128;
       }
       80% {
       animation-timing-function: step-end;
       stroke: black;
       stroke-dashoffset: 0;
       stroke-width: 128;
       }
       to {
       stroke: black;
       stroke-width: 1024;
       }
       }
       #make-me-a-hanzi-animation-1 {
         animation: keyframes1 1.224121s both;
         animation-delay: 0.948242s;
         animation-timing-function: linear;
       }
    @keyframes keyframes2 {
      from {
       stroke: black;
       stroke-dashoffset: 899;
       stroke-width: 128;
       }
       75% {
       animation-timing-function: step-end;
       stroke: black;
       stroke-dashoffset: 0;
       stroke-width: 128;
       }
       to {
       stroke: black;
       stroke-width: 1024;
       }
       }
       #make-me-a-hanzi-animation-2 {
         animation: keyframes2 0.981608s both;
         animation-delay: 2.172363s;
         animation-timing-function: linear;
       }
    @keyframes keyframes3 {
      from {
       stroke: black;
       stroke-dashoffset: 813;
       stroke-width: 128;
       }
       73% {
       animation-timing-function: step-end;
       stroke: black;
       stroke-dashoffset: 0;
       stroke-width: 128;
       }
       to {
       stroke: black;
       stroke-width: 1024;
       }
       }
       #make-me-a-hanzi-animation-3 {
         animation: keyframes3 0.911621s both;
         animation-delay: 3.153971s;
         animation-timing-function: linear;
       }
    @keyframes keyframes4 {
      from {
       stroke: black;
       stroke-dashoffset: 509;
       stroke-width: 128;
       }
       62% {
       animation-timing-function: step-end;
       stroke: black;
       stroke-dashoffset: 0;
       stroke-width: 128;
       }
       to {
       stroke: black;
       stroke-width: 1024;
       }
       }
       #make-me-a-hanzi-animation-4 {
         animation: keyframes4 0.664225s both;
         animation-delay: 4.065592s;
         animation-timing-function: linear;
       }
    @keyframes keyframes5 {
      from {
       stroke: black;
       stroke-dashoffset: 638;
       stroke-width: 128;
       }
       67% {
       animation-timing-function: step-end;
       stroke: black;
       stroke-dashoffset: 0;
       stroke-width: 128;
       }
       to {
       stroke: black;
       stroke-width: 1024;
       }
       }
       #make-me-a-hanzi-animation-5 {
         animation: keyframes5 0.769206s both;
         animation-delay: 4.729817s;
         animation-timing-function: linear;
       }
    @keyframes keyframes6 {
      from {
       stroke: black;
       stroke-dashoffset: 770;
       stroke-width: 128;
       }
       71% {
       animation-timing-function: step-end;
       stroke: black;
       stroke-dashoffset: 0;
       stroke-width: 128;
       }
       to {
       stroke: black;
       stroke-width: 1024;
       }
       }
       #make-me-a-hanzi-animation-6 {
         animation: keyframes6 0.876628s both;
         animation-delay: 5.499023s;
         animation-timing-function: linear;
       }
    @keyframes keyframes7 {
      from {
       stroke: black;
       stroke-dashoffset: 384;
       stroke-width: 128;
       }
       56% {
       animation-timing-function: step-end;
       stroke: black;
       stroke-dashoffset: 0;
       stroke-width: 128;
       }
       to {
       stroke: black;
       stroke-width: 1024;
       }
       }
       #make-me-a-hanzi-animation-7 {
         animation: keyframes7 0.562500s both;
         animation-delay: 6.375651s;
         animation-timing-function: linear;
       }
    @keyframes keyframes8 {
      from {
       stroke: black;
       stroke-dashoffset: 674;
       stroke-width: 128;
       }
       69% {
       animation-timing-function: step-end;
       stroke: black;
       stroke-dashoffset: 0;
       stroke-width: 128;
       }
       to {
       stroke: black;
       stroke-width: 1024;
       }
       }
       #make-me-a-hanzi-animation-8 {
         animation: keyframes8 0.798503s both;
         animation-delay: 6.938151s;
         animation-timing-function: linear;
       }
    @keyframes keyframes9 {
      from {
       stroke: black;
       stroke-dashoffset: 855;
       stroke-width: 128;
       }
       74% {
       animation-timing-function: step-end;
       stroke: black;
       stroke-dashoffset: 0;
       stroke-width: 128;
       }
       to {
       stroke: black;
       stroke-width: 1024;
       }
       }
       #make-me-a-hanzi-animation-9 {
         animation: keyframes9 0.945801s both;
         animation-delay: 7.736654s;
         animation-timing-function: linear;
       }
</style>
<path d="M 365.5 432.0 L 178.5 408.0 Q 169.5 407.0 167.5 402.0 Q 163.5 389.0 209.5 370.0 Q 228.5 362.0 234.5 362.0 L 280.5 372.0 L 416.5 396.0 L 491.5 404.0 L 537.5 408.0 Q 578.5 413.0 621.5 416.0 L 701.5 421.0 L 744.5 425.0 Q 756.5 425.0 773.5 429.0 Q 780.5 432.0 781.5 439.0 Q 782.5 445.0 763.5 457.0 Q 745.5 469.0 724.5 476.0 Q 703.5 482.0 696.5 482.0 L 613.5 466.0 L 497.5 451.0 L 426.5 441.0 L 365.5 432.0 Z" fill="lightgray"></path> 
<path d="M 416.5 396.0 L 405.5 356.0 Q 362.5 214.0 257.5 109.0 Q 225.5 76.0 200.5 54.0 Q 165.5 25.0 152.5 16.0 L 68.5 -38.0 Q 65.5 -39.0 66.5 -45.0 Q 67.5 -50.0 73.5 -48.0 L 83.5 -45.0 Q 100.5 -42.0 151.5 -18.0 Q 203.5 6.0 245.5 32.0 Q 287.5 57.0 345.5 118.0 Q 410.5 194.0 428.5 234.0 Q 436.5 249.0 457.5 308.0 L 478.5 359.0 L 497.5 451.0 L 506.5 550.0 L 507.5 587.0 Q 509.5 616.0 511.5 625.0 Q 513.5 633.0 520.5 654.0 Q 528.5 674.0 526.5 683.0 Q 524.5 698.0 484.5 713.0 L 442.5 724.0 Q 422.5 726.0 416.5 723.0 Q 401.5 717.0 412.5 696.0 L 425.5 668.0 L 432.5 640.0 Q 435.5 632.0 433.5 590.0 Q 433.5 544.0 432.5 532.0 L 426.5 441.0 L 416.5 396.0 Z" fill="lightgray"></path> 
<path d="M 478.5 359.0 L 539.5 245.0 L 585.5 167.0 L 633.5 92.0 Q 689.5 8.0 721.5 -11.0 Q 769.5 -38.0 891.5 -20.0 L 932.5 -14.0 Q 939.5 -13.0 947.5 -8.0 Q 958.5 1.0 948.5 8.0 Q 945.5 10.0 929.5 16.0 Q 913.5 22.0 872.5 44.0 Q 826.5 66.0 795.5 85.0 Q 765.5 103.0 717.5 137.0 Q 680.5 165.0 588.5 267.0 Q 583.5 271.0 540.5 332.0 L 491.5 404.0 C 474.5 429.0 448.5 415.0 478.5 359.0 Z" fill="lightgray"></path> 
<path d="M 1642.0 619.0 Q 1679.0 624.0 1716.0 627.0 Q 1804.0 637.0 1873.0 643.0 Q 1893.0 645.0 1894.0 655.0 L 1894.0 656.0 Q 1894.0 667.0 1873.0 678.0 Q 1866.0 683.0 1851.0 689.0 Q 1839.0 693.0 1826.0 693.0 Q 1819.0 693.0 1811.0 692.0 Q 1732.0 675.0 1651.0 663.0 L 1648.0 663.0 L 1588.0 655.0 Q 1525.0 645.0 1468.0 639.0 Q 1407.0 631.0 1341.0 627.0 Q 1324.0 625.0 1324.0 618.0 Q 1324.0 613.0 1333.0 605.0 Q 1345.0 595.0 1360.0 586.0 Q 1370.0 581.0 1383.0 581.0 Q 1389.0 581.0 1396.0 582.0 Q 1485.0 599.0 1590.0 612.0 L 1642.0 619.0 Z" fill="lightgray"></path> 
<path d="M 1590.0 612.0 Q 1591.0 573.0 1591.0 528.0 C 1591.0 498.0 1627.0 503.0 1631.0 533.0 Q 1638.0 579.0 1642.0 619.0 L 1648.0 663.0 Q 1650.0 673.0 1651.0 682.0 Q 1654.0 700.0 1657.0 712.0 Q 1660.0 723.0 1663.0 730.0 L 1663.0 733.0 Q 1663.0 744.0 1647.0 753.0 Q 1613.0 774.0 1592.0 778.0 L 1585.0 778.0 Q 1573.0 778.0 1568.0 773.0 Q 1564.0 768.0 1564.0 763.0 Q 1564.0 757.0 1569.0 751.0 Q 1584.0 731.0 1584.0 718.0 Q 1587.0 688.0 1588.0 655.0 L 1590.0 612.0 Z" fill="lightgray"></path> 
<path d="M 1591.0 528.0 Q 1548.0 520.0 1511.0 516.0 Q 1470.0 510.0 1428.0 507.0 Q 1413.0 505.0 1413.0 499.0 Q 1413.0 494.0 1421.0 488.0 Q 1433.0 478.0 1445.0 472.0 Q 1453.0 468.0 1464.0 468.0 Q 1470.0 468.0 1476.0 469.0 Q 1566.0 486.0 1686.0 501.0 Q 1744.0 509.0 1789.0 512.0 Q 1807.0 514.0 1807.0 523.0 L 1807.0 524.0 Q 1807.0 534.0 1789.0 543.0 Q 1782.0 547.0 1769.0 551.0 Q 1758.0 555.0 1747.0 555.0 Q 1741.0 555.0 1735.0 554.0 Q 1683.0 542.0 1631.0 533.0 L 1591.0 528.0 Z" fill="lightgray"></path> 
<path d="M 1805.0 295.0 Q 1832.0 362.0 1853.0 386.0 Q 1861.0 396.0 1861.0 404.0 Q 1861.0 406.0 1860.0 408.0 Q 1853.0 426.0 1796.0 454.0 Q 1784.0 459.0 1774.0 459.0 Q 1770.0 459.0 1766.0 458.0 Q 1608.0 422.0 1418.0 400.0 C 1388.0 396.0 1406.0 361.0 1436.0 363.0 Q 1448.0 363.0 1469.0 366.0 Q 1518.0 379.0 1569.0 389.0 L 1601.0 395.0 Q 1658.0 408.0 1718.0 414.0 Q 1730.0 416.0 1740.0 416.0 Q 1757.0 416.0 1765.0 410.0 Q 1770.0 407.0 1770.0 397.0 L 1770.0 394.0 Q 1763.0 355.0 1751.0 303.0 C 1744.0 274.0 1794.0 267.0 1805.0 295.0 Z" fill="lightgray"></path> 
<path d="M 1569.0 389.0 Q 1572.0 384.0 1572.0 381.0 Q 1575.0 374.0 1575.0 365.0 L 1575.0 270.0 C 1575.0 240.0 1613.0 248.0 1619.0 277.0 Q 1625.0 308.0 1629.0 332.0 Q 1630.0 337.0 1631.0 340.0 Q 1634.0 350.0 1634.0 357.0 Q 1634.0 363.0 1631.0 366.0 Q 1616.0 386.0 1601.0 395.0 C 1576.0 411.0 1556.0 416.0 1569.0 389.0 Z" fill="lightgray"></path> 
<path d="M 1820.0 255.0 Q 1833.0 257.0 1834.0 266.0 Q 1833.0 276.0 1805.0 295.0 C 1783.0 311.0 1780.0 310.0 1751.0 303.0 L 1748.0 302.0 Q 1680.0 287.0 1619.0 277.0 L 1575.0 270.0 Q 1489.0 256.0 1417.0 250.0 C 1387.0 247.0 1380.0 215.0 1410.0 211.0 Q 1417.0 209.0 1425.0 209.0 Q 1430.0 209.0 1436.0 210.0 Q 1559.0 237.0 1820.0 255.0 Z" fill="lightgray"></path> 
<path d="M 1418.0 400.0 Q 1377.0 421.0 1364.0 421.0 L 1363.0 421.0 Q 1352.0 419.0 1352.0 411.0 Q 1352.0 405.0 1357.0 396.0 Q 1370.0 377.0 1370.0 347.0 Q 1370.0 340.0 1369.0 334.0 Q 1365.0 287.0 1355.0 191.0 Q 1347.0 128.0 1308.0 49.0 Q 1282.0 -4.0 1228.0 -50.0 Q 1210.0 -65.0 1197.0 -77.0 Q 1180.0 -89.0 1179.0 -95.0 Q 1178.0 -97.0 1178.0 -98.0 Q 1178.0 -102.0 1187.0 -102.0 Q 1203.0 -102.0 1224.0 -90.0 Q 1267.0 -66.0 1294.0 -42.0 Q 1334.0 -4.0 1358.0 38.0 Q 1383.0 84.0 1398.0 147.0 Q 1406.0 178.0 1410.0 211.0 L 1417.0 250.0 Q 1422.0 292.0 1428.0 334.0 Q 1435.0 354.0 1436.0 363.0 C 1442.0 388.0 1442.0 388.0 1418.0 400.0 Z" fill="lightgray"></path> 
      <clipPath id="make-me-a-hanzi-clip-0">
      <path d="M 365.5 432.0 L 178.5 408.0 Q 169.5 407.0 167.5 402.0 Q 163.5 389.0 209.5 370.0 Q 228.5 362.0 234.5 362.0 L 280.5 372.0 L 416.5 396.0 L 491.5 404.0 L 537.5 408.0 Q 578.5 413.0 621.5 416.0 L 701.5 421.0 L 744.5 425.0 Q 756.5 425.0 773.5 429.0 Q 780.5 432.0 781.5 439.0 Q 782.5 445.0 763.5 457.0 Q 745.5 469.0 724.5 476.0 Q 703.5 482.0 696.5 482.0 L 613.5 466.0 L 497.5 451.0 L 426.5 441.0 L 365.5 432.0 Z" fill="lightgray"></path>
      </clipPath>
      <path clip-path="url(#make-me-a-hanzi-clip-0)" d="M 175.5 400.0 L 235.5 389.0 L 493.5 428.0 L 697.5 451.0 L 771.5 439.0 " fill="none" id="make-me-a-hanzi-animation-0" stroke-dasharray="730 1460" stroke-linecap="round"></path>

      <clipPath id="make-me-a-hanzi-clip-1">
      <path d="M 416.5 396.0 L 405.5 356.0 Q 362.5 214.0 257.5 109.0 Q 225.5 76.0 200.5 54.0 Q 165.5 25.0 152.5 16.0 L 68.5 -38.0 Q 65.5 -39.0 66.5 -45.0 Q 67.5 -50.0 73.5 -48.0 L 83.5 -45.0 Q 100.5 -42.0 151.5 -18.0 Q 203.5 6.0 245.5 32.0 Q 287.5 57.0 345.5 118.0 Q 410.5 194.0 428.5 234.0 Q 436.5 249.0 457.5 308.0 L 478.5 359.0 L 497.5 451.0 L 506.5 550.0 L 507.5 587.0 Q 509.5 616.0 511.5 625.0 Q 513.5 633.0 520.5 654.0 Q 528.5 674.0 526.5 683.0 Q 524.5 698.0 484.5 713.0 L 442.5 724.0 Q 422.5 726.0 416.5 723.0 Q 401.5 717.0 412.5 696.0 L 425.5 668.0 L 432.5 640.0 Q 435.5 632.0 433.5 590.0 Q 433.5 544.0 432.5 532.0 L 426.5 441.0 L 416.5 396.0 Z" fill="lightgray"></path>
      </clipPath>
      <path clip-path="url(#make-me-a-hanzi-clip-1)" d="M 423.5 708.0 L 474.5 667.0 L 470.5 557.0 L 462.5 450.0 L 450.5 389.0 L 400.5 252.0 L 354.5 176.0 L 264.5 77.0 L 179.5 14.0 L 71.5 -43.0 " fill="none" id="make-me-a-hanzi-animation-1" stroke-dasharray="1069 2138" stroke-linecap="round"></path>

      <clipPath id="make-me-a-hanzi-clip-2">
      <path d="M 478.5 359.0 L 539.5 245.0 L 585.5 167.0 L 633.5 92.0 Q 689.5 8.0 721.5 -11.0 Q 769.5 -38.0 891.5 -20.0 L 932.5 -14.0 Q 939.5 -13.0 947.5 -8.0 Q 958.5 1.0 948.5 8.0 Q 945.5 10.0 929.5 16.0 Q 913.5 22.0 872.5 44.0 Q 826.5 66.0 795.5 85.0 Q 765.5 103.0 717.5 137.0 Q 680.5 165.0 588.5 267.0 Q 583.5 271.0 540.5 332.0 L 491.5 404.0 C 474.5 429.0 448.5 415.0 478.5 359.0 Z" fill="lightgray"></path>
      </clipPath>
      <path clip-path="url(#make-me-a-hanzi-clip-2)" d="M 490.5 395.0 L 497.5 361.0 L 583.5 227.0 L 656.5 133.0 L 726.5 61.0 L 762.5 36.0 L 804.5 22.0 L 944.5 0.0 " fill="none" id="make-me-a-hanzi-animation-2" stroke-dasharray="771 1542" stroke-linecap="round"></path>

      <clipPath id="make-me-a-hanzi-clip-3">
      <path d="M 1642.0 619.0 Q 1679.0 624.0 1716.0 627.0 Q 1804.0 637.0 1873.0 643.0 Q 1893.0 645.0 1894.0 655.0 L 1894.0 656.0 Q 1894.0 667.0 1873.0 678.0 Q 1866.0 683.0 1851.0 689.0 Q 1839.0 693.0 1826.0 693.0 Q 1819.0 693.0 1811.0 692.0 Q 1732.0 675.0 1651.0 663.0 L 1648.0 663.0 L 1588.0 655.0 Q 1525.0 645.0 1468.0 639.0 Q 1407.0 631.0 1341.0 627.0 Q 1324.0 625.0 1324.0 618.0 Q 1324.0 613.0 1333.0 605.0 Q 1345.0 595.0 1360.0 586.0 Q 1370.0 581.0 1383.0 581.0 Q 1389.0 581.0 1396.0 582.0 Q 1485.0 599.0 1590.0 612.0 L 1642.0 619.0 Z" fill="lightgray"></path>
      </clipPath>
      <path clip-path="url(#make-me-a-hanzi-clip-3)" d="M 1334.0 615.0 L 1379.0 605.0 L 1809.0 665.0 L 1848.0 665.0 L 1885.0 656.0 " fill="none" id="make-me-a-hanzi-animation-3" stroke-dasharray="685 1370" stroke-linecap="round"></path>

      <clipPath id="make-me-a-hanzi-clip-4">
      <path d="M 1590.0 612.0 Q 1591.0 573.0 1591.0 528.0 C 1591.0 498.0 1627.0 503.0 1631.0 533.0 Q 1638.0 579.0 1642.0 619.0 L 1648.0 663.0 Q 1650.0 673.0 1651.0 682.0 Q 1654.0 700.0 1657.0 712.0 Q 1660.0 723.0 1663.0 730.0 L 1663.0 733.0 Q 1663.0 744.0 1647.0 753.0 Q 1613.0 774.0 1592.0 778.0 L 1585.0 778.0 Q 1573.0 778.0 1568.0 773.0 Q 1564.0 768.0 1564.0 763.0 Q 1564.0 757.0 1569.0 751.0 Q 1584.0 731.0 1584.0 718.0 Q 1587.0 688.0 1588.0 655.0 L 1590.0 612.0 Z" fill="lightgray"></path>
      </clipPath>
      <path clip-path="url(#make-me-a-hanzi-clip-4)" d="M 1578.0 763.0 L 1601.0 749.0 L 1621.0 725.0 L 1613.0 559.0 L 1597.0 535.0 " fill="none" id="make-me-a-hanzi-animation-4" stroke-dasharray="381 762" stroke-linecap="round"></path>

      <clipPath id="make-me-a-hanzi-clip-5">
      <path d="M 1591.0 528.0 Q 1548.0 520.0 1511.0 516.0 Q 1470.0 510.0 1428.0 507.0 Q 1413.0 505.0 1413.0 499.0 Q 1413.0 494.0 1421.0 488.0 Q 1433.0 478.0 1445.0 472.0 Q 1453.0 468.0 1464.0 468.0 Q 1470.0 468.0 1476.0 469.0 Q 1566.0 486.0 1686.0 501.0 Q 1744.0 509.0 1789.0 512.0 Q 1807.0 514.0 1807.0 523.0 L 1807.0 524.0 Q 1807.0 534.0 1789.0 543.0 Q 1782.0 547.0 1769.0 551.0 Q 1758.0 555.0 1747.0 555.0 Q 1741.0 555.0 1735.0 554.0 Q 1683.0 542.0 1631.0 533.0 L 1591.0 528.0 Z" fill="lightgray"></path>
      </clipPath>
      <path clip-path="url(#make-me-a-hanzi-clip-5)" d="M 1421.0 497.0 L 1461.0 489.0 L 1743.0 532.0 L 1798.0 524.0 " fill="none" id="make-me-a-hanzi-animation-5" stroke-dasharray="510 1020" stroke-linecap="round"></path>

      <clipPath id="make-me-a-hanzi-clip-6">
      <path d="M 1805.0 295.0 Q 1832.0 362.0 1853.0 386.0 Q 1861.0 396.0 1861.0 404.0 Q 1861.0 406.0 1860.0 408.0 Q 1853.0 426.0 1796.0 454.0 Q 1784.0 459.0 1774.0 459.0 Q 1770.0 459.0 1766.0 458.0 Q 1608.0 422.0 1418.0 400.0 C 1388.0 396.0 1406.0 361.0 1436.0 363.0 Q 1448.0 363.0 1469.0 366.0 Q 1518.0 379.0 1569.0 389.0 L 1601.0 395.0 Q 1658.0 408.0 1718.0 414.0 Q 1730.0 416.0 1740.0 416.0 Q 1757.0 416.0 1765.0 410.0 Q 1770.0 407.0 1770.0 397.0 L 1770.0 394.0 Q 1763.0 355.0 1751.0 303.0 C 1744.0 274.0 1794.0 267.0 1805.0 295.0 Z" fill="lightgray"></path>
      </clipPath>
      <path clip-path="url(#make-me-a-hanzi-clip-6)" d="M 1427.0 397.0 L 1449.0 384.0 L 1471.0 386.0 L 1735.0 434.0 L 1776.0 433.0 L 1793.0 423.0 L 1810.0 396.0 L 1787.0 327.0 L 1759.0 310.0 " fill="none" id="make-me-a-hanzi-animation-6" stroke-dasharray="642 1284" stroke-linecap="round"></path>

      <clipPath id="make-me-a-hanzi-clip-7">
      <path d="M 1569.0 389.0 Q 1572.0 384.0 1572.0 381.0 Q 1575.0 374.0 1575.0 365.0 L 1575.0 270.0 C 1575.0 240.0 1613.0 248.0 1619.0 277.0 Q 1625.0 308.0 1629.0 332.0 Q 1630.0 337.0 1631.0 340.0 Q 1634.0 350.0 1634.0 357.0 Q 1634.0 363.0 1631.0 366.0 Q 1616.0 386.0 1601.0 395.0 C 1576.0 411.0 1556.0 416.0 1569.0 389.0 Z" fill="lightgray"></path>
      </clipPath>
      <path clip-path="url(#make-me-a-hanzi-clip-7)" d="M 1575.0 387.0 L 1596.0 371.0 L 1604.0 351.0 L 1599.0 298.0 L 1581.0 278.0 " fill="none" id="make-me-a-hanzi-animation-7" stroke-dasharray="256 512" stroke-linecap="round"></path>

      <clipPath id="make-me-a-hanzi-clip-8">
      <path d="M 1820.0 255.0 Q 1833.0 257.0 1834.0 266.0 Q 1833.0 276.0 1805.0 295.0 C 1783.0 311.0 1780.0 310.0 1751.0 303.0 L 1748.0 302.0 Q 1680.0 287.0 1619.0 277.0 L 1575.0 270.0 Q 1489.0 256.0 1417.0 250.0 C 1387.0 247.0 1380.0 215.0 1410.0 211.0 Q 1417.0 209.0 1425.0 209.0 Q 1430.0 209.0 1436.0 210.0 Q 1559.0 237.0 1820.0 255.0 Z" fill="lightgray"></path>
      </clipPath>
      <path clip-path="url(#make-me-a-hanzi-clip-8)" d="M 1418.0 216.0 L 1434.0 231.0 L 1456.0 235.0 L 1755.0 277.0 L 1802.0 274.0 L 1825.0 266.0 " fill="none" id="make-me-a-hanzi-animation-8" stroke-dasharray="546 1092" stroke-linecap="round"></path>

      <clipPath id="make-me-a-hanzi-clip-9">
      <path d="M 1418.0 400.0 Q 1377.0 421.0 1364.0 421.0 L 1363.0 421.0 Q 1352.0 419.0 1352.0 411.0 Q 1352.0 405.0 1357.0 396.0 Q 1370.0 377.0 1370.0 347.0 Q 1370.0 340.0 1369.0 334.0 Q 1365.0 287.0 1355.0 191.0 Q 1347.0 128.0 1308.0 49.0 Q 1282.0 -4.0 1228.0 -50.0 Q 1210.0 -65.0 1197.0 -77.0 Q 1180.0 -89.0 1179.0 -95.0 Q 1178.0 -97.0 1178.0 -98.0 Q 1178.0 -102.0 1187.0 -102.0 Q 1203.0 -102.0 1224.0 -90.0 Q 1267.0 -66.0 1294.0 -42.0 Q 1334.0 -4.0 1358.0 38.0 Q 1383.0 84.0 1398.0 147.0 Q 1406.0 178.0 1410.0 211.0 L 1417.0 250.0 Q 1422.0 292.0 1428.0 334.0 Q 1435.0 354.0 1436.0 363.0 C 1442.0 388.0 1442.0 388.0 1418.0 400.0 Z" fill="lightgray"></path>
      </clipPath>
      <path clip-path="url(#make-me-a-hanzi-clip-9)" d="M 1364.0 409.0 L 1396.0 380.0 L 1402.0 352.0 L 1384.0 208.0 L 1364.0 117.0 L 1339.0 55.0 L 1295.0 -11.0 L 1236.0 -65.0 L 1183.0 -98.0 " fill="none" id="make-me-a-hanzi-animation-9" stroke-dasharray="727 1454" stroke-linecap="round"></path>

</g>
</svg>
