<svg version="1.1" viewBox="0 0 2048 1024" xmlns="http://www.w3.org/2000/svg">
  <g stroke="lightgray" stroke-dasharray="1,1" stroke-width="1" transform="scale(4, 4)">
    <line x1="0" y1="0" x2="256" y2="256"></line>
    <line x1="256" y1="0" x2="0" y2="256"></line>
    <line x1="128" y1="0" x2="128" y2="256"></line>
    <line x1="0" y1="128" x2="256" y2="128"></line>
    <line x1="256" y1="0" x2="512" y2="256"></line>
    <line x1="512" y1="0" x2="256" y2="256"></line>
    <line x1="384" y1="0" x2="384" y2="256"></line>
    <line x1="256" y1="128" x2="512" y2="128"></line>
  </g>
<g transform="scale(1, -1) translate(0, -850)">
   <style type="text/css">
    @keyframes keyframes0 {
      from {
       stroke: black;
       stroke-dashoffset: 1070;
       stroke-width: 128;
       }
       78% {
       animation-timing-function: step-end;
       stroke: black;
       stroke-dashoffset: 0;
       stroke-width: 128;
       }
       to {
       stroke: black;
       stroke-width: 1024;
       }
       }
       #make-me-a-hanzi-animation-0 {
         animation: keyframes0 1.120768s both;
         animation-delay: 0.000000s;
         animation-timing-function: linear;
       }
    @keyframes keyframes1 {
      from {
       stroke: black;
       stroke-dashoffset: 619;
       stroke-width: 128;
       }
       67% {
       animation-timing-function: step-end;
       stroke: black;
       stroke-dashoffset: 0;
       stroke-width: 128;
       }
       to {
       stroke: black;
       stroke-width: 1024;
       }
       }
       #make-me-a-hanzi-animation-1 {
         animation: keyframes1 0.753743s both;
         animation-delay: 1.120768s;
         animation-timing-function: linear;
       }
    @keyframes keyframes2 {
      from {
       stroke: black;
       stroke-dashoffset: 711;
       stroke-width: 128;
       }
       70% {
       animation-timing-function: step-end;
       stroke: black;
       stroke-dashoffset: 0;
       stroke-width: 128;
       }
       to {
       stroke: black;
       stroke-width: 1024;
       }
       }
       #make-me-a-hanzi-animation-2 {
         animation: keyframes2 0.828613s both;
         animation-delay: 1.874511s;
         animation-timing-function: linear;
       }
    @keyframes keyframes3 {
      from {
       stroke: black;
       stroke-dashoffset: 1167;
       stroke-width: 128;
       }
       79% {
       animation-timing-function: step-end;
       stroke: black;
       stroke-dashoffset: 0;
       stroke-width: 128;
       }
       to {
       stroke: black;
       stroke-width: 1024;
       }
       }
       #make-me-a-hanzi-animation-3 {
         animation: keyframes3 1.199707s both;
         animation-delay: 2.703124s;
         animation-timing-function: linear;
       }
    @keyframes keyframes4 {
      from {
       stroke: black;
       stroke-dashoffset: 411;
       stroke-width: 128;
       }
       57% {
       animation-timing-function: step-end;
       stroke: black;
       stroke-dashoffset: 0;
       stroke-width: 128;
       }
       to {
       stroke: black;
       stroke-width: 1024;
       }
       }
       #make-me-a-hanzi-animation-4 {
         animation: keyframes4 0.584473s both;
         animation-delay: 3.902831s;
         animation-timing-function: linear;
       }
    @keyframes keyframes5 {
      from {
       stroke: black;
       stroke-dashoffset: 411;
       stroke-width: 128;
       }
       57% {
       animation-timing-function: step-end;
       stroke: black;
       stroke-dashoffset: 0;
       stroke-width: 128;
       }
       to {
       stroke: black;
       stroke-width: 1024;
       }
       }
       #make-me-a-hanzi-animation-5 {
         animation: keyframes5 0.584473s both;
         animation-delay: 4.487304s;
         animation-timing-function: linear;
       }
    @keyframes keyframes6 {
      from {
       stroke: black;
       stroke-dashoffset: 730;
       stroke-width: 128;
       }
       70% {
       animation-timing-function: step-end;
       stroke: black;
       stroke-dashoffset: 0;
       stroke-width: 128;
       }
       to {
       stroke: black;
       stroke-width: 1024;
       }
       }
       #make-me-a-hanzi-animation-6 {
         animation: keyframes6 0.844076s both;
         animation-delay: 5.071777s;
         animation-timing-function: linear;
       }
    @keyframes keyframes7 {
      from {
       stroke: black;
       stroke-dashoffset: 933;
       stroke-width: 128;
       }
       75% {
       animation-timing-function: step-end;
       stroke: black;
       stroke-dashoffset: 0;
       stroke-width: 128;
       }
       to {
       stroke: black;
       stroke-width: 1024;
       }
       }
       #make-me-a-hanzi-animation-7 {
         animation: keyframes7 1.009277s both;
         animation-delay: 5.915853s;
         animation-timing-function: linear;
       }
    @keyframes keyframes8 {
      from {
       stroke: black;
       stroke-dashoffset: 409;
       stroke-width: 128;
       }
       57% {
       animation-timing-function: step-end;
       stroke: black;
       stroke-dashoffset: 0;
       stroke-width: 128;
       }
       to {
       stroke: black;
       stroke-width: 1024;
       }
       }
       #make-me-a-hanzi-animation-8 {
         animation: keyframes8 0.582845s both;
         animation-delay: 6.925130s;
         animation-timing-function: linear;
       }
    @keyframes keyframes9 {
      from {
       stroke: black;
       stroke-dashoffset: 395;
       stroke-width: 128;
       }
       56% {
       animation-timing-function: step-end;
       stroke: black;
       stroke-dashoffset: 0;
       stroke-width: 128;
       }
       to {
       stroke: black;
       stroke-width: 1024;
       }
       }
       #make-me-a-hanzi-animation-9 {
         animation: keyframes9 0.571452s both;
         animation-delay: 7.507975s;
         animation-timing-function: linear;
       }
    @keyframes keyframes10 {
      from {
       stroke: black;
       stroke-dashoffset: 677;
       stroke-width: 128;
       }
       69% {
       animation-timing-function: step-end;
       stroke: black;
       stroke-dashoffset: 0;
       stroke-width: 128;
       }
       to {
       stroke: black;
       stroke-width: 1024;
       }
       }
       #make-me-a-hanzi-animation-10 {
         animation: keyframes10 0.800944s both;
         animation-delay: 8.079427s;
         animation-timing-function: linear;
       }
    @keyframes keyframes11 {
      from {
       stroke: black;
       stroke-dashoffset: 881;
       stroke-width: 128;
       }
       74% {
       animation-timing-function: step-end;
       stroke: black;
       stroke-dashoffset: 0;
       stroke-width: 128;
       }
       to {
       stroke: black;
       stroke-width: 1024;
       }
       }
       #make-me-a-hanzi-animation-11 {
         animation: keyframes11 0.966960s both;
         animation-delay: 8.880371s;
         animation-timing-function: linear;
       }
</style>
<path d="M 371.0 301.5 Q 408.0 365.5 432.0 449.5 Q 442.0 492.5 472.0 524.5 Q 491.0 543.5 472.0 556.5 Q 448.0 569.5 418.0 576.5 Q 390.0 585.5 364.0 568.5 Q 339.0 558.5 296.0 543.5 Q 248.0 531.5 198.0 524.5 Q 179.0 524.5 174.0 518.5 Q 170.0 505.5 196.0 489.5 Q 226.0 470.5 295.0 494.5 Q 353.0 522.5 360.0 522.5 Q 379.0 522.5 379.0 503.5 Q 360.0 397.5 329.0 334.5 L 305.0 290.5 Q 283.0 257.5 257.0 227.5 Q 203.0 169.5 98.0 107.5 Q 83.0 100.5 92.0 94.5 Q 99.0 91.5 121.0 100.5 Q 209.0 133.5 265.0 171.5 Q 302.0 198.5 339.0 250.5 L 371.0 301.5 Z" fill="lightgray"></path> 
<path d="M 339.0 250.5 Q 376.0 210.5 416.0 161.5 Q 429.0 142.5 442.0 137.5 Q 449.0 136.5 457.0 144.5 Q 469.0 154.5 460.0 194.5 Q 454.0 233.5 371.0 301.5 L 329.0 334.5 Q 250.0 395.5 205.0 425.5 Q 198.0 429.5 194.0 419.5 Q 193.0 407.5 202.0 398.5 Q 251.0 349.5 305.0 290.5 L 339.0 250.5 Z" fill="lightgray"></path> 
<path d="M 775.0 464.5 Q 790.0 470.5 918.0 483.5 Q 930.0 482.5 940.0 496.5 Q 941.0 509.5 916.0 521.5 Q 874.0 546.5 790.0 520.5 Q 783.0 519.5 776.0 516.5 L 724.0 504.5 Q 661.0 492.5 485.0 471.5 Q 452.0 467.5 478.0 447.5 Q 517.0 417.5 547.0 424.5 Q 626.0 442.5 724.0 456.5 L 775.0 464.5 Z" fill="lightgray"></path> 
<path d="M 724.0 456.5 Q 725.0 317.5 728.0 79.5 Q 728.0 57.5 715.0 47.5 Q 706.0 43.5 619.0 55.5 Q 583.0 65.5 587.0 54.5 Q 590.0 47.5 611.0 34.5 Q 687.0 -14.5 709.0 -44.5 Q 734.0 -78.5 752.0 -78.5 Q 767.0 -78.5 780.0 -42.5 Q 796.0 5.5 791.0 80.5 Q 775.0 272.5 775.0 464.5 L 776.0 516.5 Q 776.0 622.5 793.0 681.5 Q 809.0 712.5 752.0 736.5 Q 718.0 754.5 697.0 747.5 Q 678.0 740.5 696.0 716.5 Q 718.0 688.5 720.0 653.5 Q 721.0 637.5 724.0 504.5 L 724.0 456.5 Z" fill="lightgray"></path> 
<path d="M 514.0 297.5 Q 544.0 266.5 575.0 230.5 Q 588.0 215.5 604.0 215.5 Q 614.0 214.5 621.0 227.5 Q 627.0 240.5 621.0 272.5 Q 614.0 311.5 514.0 346.5 Q 499.0 350.5 492.0 349.5 Q 486.0 345.5 487.0 333.5 Q 490.0 321.5 514.0 297.5 Z" fill="lightgray"></path> 
<path d="M 1555.0 694.0 Q 1589.0 670.0 1625.0 641.0 Q 1640.0 629.0 1656.0 631.0 Q 1668.0 632.0 1672.0 647.0 Q 1675.0 663.0 1663.0 693.0 Q 1650.0 726.0 1546.0 743.0 Q 1530.0 746.0 1523.0 742.0 Q 1519.0 738.0 1521.0 724.0 Q 1525.0 714.0 1555.0 694.0 Z" fill="lightgray"></path> 
<path d="M 1393.0 493.0 Q 1406.0 487.0 1427.0 493.0 Q 1647.0 535.0 1833.0 554.0 Q 1845.0 553.0 1855.0 566.0 Q 1856.0 579.0 1832.0 591.0 Q 1793.0 615.0 1704.0 589.0 Q 1545.0 558.0 1477.0 549.0 Q 1426.0 546.0 1372.0 538.0 C 1342.0 534.0 1364.0 499.0 1393.0 493.0 Z" fill="lightgray"></path> 
<path d="M 1372.0 538.0 Q 1330.0 571.0 1311.0 564.0 Q 1298.0 557.0 1303.0 541.0 Q 1349.0 472.0 1260.0 182.0 Q 1254.0 172.0 1251.0 159.0 Q 1217.0 81.0 1132.0 -45.0 Q 1126.0 -52.0 1124.0 -58.0 Q 1120.0 -70.0 1132.0 -68.0 Q 1171.0 -62.0 1254.0 58.0 Q 1264.0 76.0 1275.0 94.0 Q 1345.0 229.0 1382.0 456.0 Q 1391.0 492.0 1393.0 493.0 C 1401.0 517.0 1396.0 520.0 1372.0 538.0 Z" fill="lightgray"></path> 
<path d="M 1413.0 222.0 Q 1438.0 186.0 1466.0 145.0 Q 1475.0 130.0 1490.0 127.0 Q 1500.0 126.0 1508.0 136.0 Q 1515.0 149.0 1514.0 179.0 Q 1514.0 201.0 1485.0 227.0 Q 1415.0 278.0 1399.0 274.0 Q 1395.0 271.0 1392.0 259.0 Q 1393.0 247.0 1413.0 222.0 Z" fill="lightgray"></path> 
<path d="M 1546.0 301.0 Q 1571.0 271.0 1595.0 235.0 Q 1605.0 222.0 1619.0 219.0 Q 1629.0 218.0 1636.0 228.0 Q 1643.0 241.0 1640.0 269.0 Q 1637.0 299.0 1551.0 345.0 Q 1538.0 351.0 1531.0 350.0 Q 1527.0 347.0 1525.0 335.0 Q 1526.0 325.0 1546.0 301.0 Z" fill="lightgray"></path> 
<path d="M 1672.0 40.0 Q 1706.0 80.0 1787.0 242.0 Q 1808.0 285.0 1846.0 339.0 Q 1864.0 354.0 1854.0 367.0 Q 1844.0 386.0 1807.0 410.0 Q 1791.0 423.0 1770.0 416.0 Q 1758.0 410.0 1765.0 397.0 Q 1780.0 328.0 1687.0 144.0 Q 1639.0 54.0 1638.0 36.0 C 1631.0 7.0 1654.0 16.0 1672.0 40.0 Z" fill="lightgray"></path> 
<path d="M 1627.0 -12.0 Q 1667.0 -11.0 1706.0 -6.0 Q 1802.0 4.0 1917.0 -9.0 Q 1939.0 -12.0 1945.0 -4.0 Q 1952.0 9.0 1941.0 21.0 Q 1878.0 78.0 1811.0 60.0 Q 1769.0 53.0 1727.0 46.0 Q 1697.0 45.0 1672.0 40.0 L 1638.0 36.0 Q 1571.0 33.0 1451.0 17.0 Q 1399.0 10.0 1321.0 9.0 Q 1308.0 9.0 1307.0 -2.0 Q 1306.0 -14.0 1324.0 -27.0 Q 1340.0 -39.0 1370.0 -51.0 Q 1380.0 -55.0 1398.0 -47.0 Q 1410.0 -43.0 1466.0 -34.0 Q 1538.0 -18.0 1627.0 -12.0 Z" fill="lightgray"></path> 
      <clipPath id="make-me-a-hanzi-clip-0">
      <path d="M 371.0 301.5 Q 408.0 365.5 432.0 449.5 Q 442.0 492.5 472.0 524.5 Q 491.0 543.5 472.0 556.5 Q 448.0 569.5 418.0 576.5 Q 390.0 585.5 364.0 568.5 Q 339.0 558.5 296.0 543.5 Q 248.0 531.5 198.0 524.5 Q 179.0 524.5 174.0 518.5 Q 170.0 505.5 196.0 489.5 Q 226.0 470.5 295.0 494.5 Q 353.0 522.5 360.0 522.5 Q 379.0 522.5 379.0 503.5 Q 360.0 397.5 329.0 334.5 L 305.0 290.5 Q 283.0 257.5 257.0 227.5 Q 203.0 169.5 98.0 107.5 Q 83.0 100.5 92.0 94.5 Q 99.0 91.5 121.0 100.5 Q 209.0 133.5 265.0 171.5 Q 302.0 198.5 339.0 250.5 L 371.0 301.5 Z" fill="lightgray"></path>
      </clipPath>
      <path clip-path="url(#make-me-a-hanzi-clip-0)" d="M 182.0 514.5 L 198.0 506.5 L 247.0 506.5 L 367.0 545.5 L 398.0 544.5 L 418.0 529.5 L 392.0 422.5 L 367.0 352.5 L 312.0 256.5 L 248.0 186.5 L 155.0 126.5 L 97.0 99.5 " fill="none" id="make-me-a-hanzi-animation-0" stroke-dasharray="942 1884" stroke-linecap="round"></path>

      <clipPath id="make-me-a-hanzi-clip-1">
      <path d="M 339.0 250.5 Q 376.0 210.5 416.0 161.5 Q 429.0 142.5 442.0 137.5 Q 449.0 136.5 457.0 144.5 Q 469.0 154.5 460.0 194.5 Q 454.0 233.5 371.0 301.5 L 329.0 334.5 Q 250.0 395.5 205.0 425.5 Q 198.0 429.5 194.0 419.5 Q 193.0 407.5 202.0 398.5 Q 251.0 349.5 305.0 290.5 L 339.0 250.5 Z" fill="lightgray"></path>
      </clipPath>
      <path clip-path="url(#make-me-a-hanzi-clip-1)" d="M 204.0 415.5 L 361.0 272.5 L 410.0 220.5 L 436.0 180.5 L 444.0 150.5 " fill="none" id="make-me-a-hanzi-animation-1" stroke-dasharray="491 982" stroke-linecap="round"></path>

      <clipPath id="make-me-a-hanzi-clip-2">
      <path d="M 775.0 464.5 Q 790.0 470.5 918.0 483.5 Q 930.0 482.5 940.0 496.5 Q 941.0 509.5 916.0 521.5 Q 874.0 546.5 790.0 520.5 Q 783.0 519.5 776.0 516.5 L 724.0 504.5 Q 661.0 492.5 485.0 471.5 Q 452.0 467.5 478.0 447.5 Q 517.0 417.5 547.0 424.5 Q 626.0 442.5 724.0 456.5 L 775.0 464.5 Z" fill="lightgray"></path>
      </clipPath>
      <path clip-path="url(#make-me-a-hanzi-clip-2)" d="M 479.0 460.5 L 531.0 449.5 L 857.0 505.5 L 928.0 498.5 " fill="none" id="make-me-a-hanzi-animation-2" stroke-dasharray="583 1166" stroke-linecap="round"></path>

      <clipPath id="make-me-a-hanzi-clip-3">
      <path d="M 724.0 456.5 Q 725.0 317.5 728.0 79.5 Q 728.0 57.5 715.0 47.5 Q 706.0 43.5 619.0 55.5 Q 583.0 65.5 587.0 54.5 Q 590.0 47.5 611.0 34.5 Q 687.0 -14.5 709.0 -44.5 Q 734.0 -78.5 752.0 -78.5 Q 767.0 -78.5 780.0 -42.5 Q 796.0 5.5 791.0 80.5 Q 775.0 272.5 775.0 464.5 L 776.0 516.5 Q 776.0 622.5 793.0 681.5 Q 809.0 712.5 752.0 736.5 Q 718.0 754.5 697.0 747.5 Q 678.0 740.5 696.0 716.5 Q 718.0 688.5 720.0 653.5 Q 721.0 637.5 724.0 504.5 L 724.0 456.5 Z" fill="lightgray"></path>
      </clipPath>
      <path clip-path="url(#make-me-a-hanzi-clip-3)" d="M 704.0 731.5 L 722.0 723.5 L 754.0 690.5 L 748.0 517.5 L 759.0 52.5 L 750.0 22.5 L 734.0 1.5 L 594.0 54.5 " fill="none" id="make-me-a-hanzi-animation-3" stroke-dasharray="1039 2078" stroke-linecap="round"></path>

      <clipPath id="make-me-a-hanzi-clip-4">
      <path d="M 514.0 297.5 Q 544.0 266.5 575.0 230.5 Q 588.0 215.5 604.0 215.5 Q 614.0 214.5 621.0 227.5 Q 627.0 240.5 621.0 272.5 Q 614.0 311.5 514.0 346.5 Q 499.0 350.5 492.0 349.5 Q 486.0 345.5 487.0 333.5 Q 490.0 321.5 514.0 297.5 Z" fill="lightgray"></path>
      </clipPath>
      <path clip-path="url(#make-me-a-hanzi-clip-4)" d="M 496.0 341.5 L 579.0 277.5 L 604.0 233.5 " fill="none" id="make-me-a-hanzi-animation-4" stroke-dasharray="283 566" stroke-linecap="round"></path>

      <clipPath id="make-me-a-hanzi-clip-5">
      <path d="M 1555.0 694.0 Q 1589.0 670.0 1625.0 641.0 Q 1640.0 629.0 1656.0 631.0 Q 1668.0 632.0 1672.0 647.0 Q 1675.0 663.0 1663.0 693.0 Q 1650.0 726.0 1546.0 743.0 Q 1530.0 746.0 1523.0 742.0 Q 1519.0 738.0 1521.0 724.0 Q 1525.0 714.0 1555.0 694.0 Z" fill="lightgray"></path>
      </clipPath>
      <path clip-path="url(#make-me-a-hanzi-clip-5)" d="M 1529.0 736.0 L 1619.0 689.0 L 1654.0 649.0 " fill="none" id="make-me-a-hanzi-animation-5" stroke-dasharray="283 566" stroke-linecap="round"></path>

      <clipPath id="make-me-a-hanzi-clip-6">
      <path d="M 1393.0 493.0 Q 1406.0 487.0 1427.0 493.0 Q 1647.0 535.0 1833.0 554.0 Q 1845.0 553.0 1855.0 566.0 Q 1856.0 579.0 1832.0 591.0 Q 1793.0 615.0 1704.0 589.0 Q 1545.0 558.0 1477.0 549.0 Q 1426.0 546.0 1372.0 538.0 C 1342.0 534.0 1364.0 499.0 1393.0 493.0 Z" fill="lightgray"></path>
      </clipPath>
      <path clip-path="url(#make-me-a-hanzi-clip-6)" d="M 1380.0 535.0 L 1411.0 517.0 L 1768.0 575.0 L 1802.0 576.0 L 1844.0 568.0 " fill="none" id="make-me-a-hanzi-animation-6" stroke-dasharray="602 1204" stroke-linecap="round"></path>

      <clipPath id="make-me-a-hanzi-clip-7">
      <path d="M 1372.0 538.0 Q 1330.0 571.0 1311.0 564.0 Q 1298.0 557.0 1303.0 541.0 Q 1349.0 472.0 1260.0 182.0 Q 1254.0 172.0 1251.0 159.0 Q 1217.0 81.0 1132.0 -45.0 Q 1126.0 -52.0 1124.0 -58.0 Q 1120.0 -70.0 1132.0 -68.0 Q 1171.0 -62.0 1254.0 58.0 Q 1264.0 76.0 1275.0 94.0 Q 1345.0 229.0 1382.0 456.0 Q 1391.0 492.0 1393.0 493.0 C 1401.0 517.0 1396.0 520.0 1372.0 538.0 Z" fill="lightgray"></path>
      </clipPath>
      <path clip-path="url(#make-me-a-hanzi-clip-7)" d="M 1317.0 550.0 L 1346.0 519.0 L 1354.0 491.0 L 1339.0 379.0 L 1301.0 224.0 L 1283.0 170.0 L 1229.0 60.0 L 1170.0 -22.0 L 1133.0 -59.0 " fill="none" id="make-me-a-hanzi-animation-7" stroke-dasharray="805 1610" stroke-linecap="round"></path>

      <clipPath id="make-me-a-hanzi-clip-8">
      <path d="M 1413.0 222.0 Q 1438.0 186.0 1466.0 145.0 Q 1475.0 130.0 1490.0 127.0 Q 1500.0 126.0 1508.0 136.0 Q 1515.0 149.0 1514.0 179.0 Q 1514.0 201.0 1485.0 227.0 Q 1415.0 278.0 1399.0 274.0 Q 1395.0 271.0 1392.0 259.0 Q 1393.0 247.0 1413.0 222.0 Z" fill="lightgray"></path>
      </clipPath>
      <path clip-path="url(#make-me-a-hanzi-clip-8)" d="M 1402.0 268.0 L 1476.0 189.0 L 1491.0 147.0 " fill="none" id="make-me-a-hanzi-animation-8" stroke-dasharray="281 562" stroke-linecap="round"></path>

      <clipPath id="make-me-a-hanzi-clip-9">
      <path d="M 1546.0 301.0 Q 1571.0 271.0 1595.0 235.0 Q 1605.0 222.0 1619.0 219.0 Q 1629.0 218.0 1636.0 228.0 Q 1643.0 241.0 1640.0 269.0 Q 1637.0 299.0 1551.0 345.0 Q 1538.0 351.0 1531.0 350.0 Q 1527.0 347.0 1525.0 335.0 Q 1526.0 325.0 1546.0 301.0 Z" fill="lightgray"></path>
      </clipPath>
      <path clip-path="url(#make-me-a-hanzi-clip-9)" d="M 1535.0 344.0 L 1607.0 270.0 L 1620.0 237.0 " fill="none" id="make-me-a-hanzi-animation-9" stroke-dasharray="267 534" stroke-linecap="round"></path>

      <clipPath id="make-me-a-hanzi-clip-10">
      <path d="M 1672.0 40.0 Q 1706.0 80.0 1787.0 242.0 Q 1808.0 285.0 1846.0 339.0 Q 1864.0 354.0 1854.0 367.0 Q 1844.0 386.0 1807.0 410.0 Q 1791.0 423.0 1770.0 416.0 Q 1758.0 410.0 1765.0 397.0 Q 1780.0 328.0 1687.0 144.0 Q 1639.0 54.0 1638.0 36.0 C 1631.0 7.0 1654.0 16.0 1672.0 40.0 Z" fill="lightgray"></path>
      </clipPath>
      <path clip-path="url(#make-me-a-hanzi-clip-10)" d="M 1774.0 405.0 L 1790.0 393.0 L 1808.0 356.0 L 1715.0 150.0 L 1663.0 56.0 L 1644.0 38.0 " fill="none" id="make-me-a-hanzi-animation-10" stroke-dasharray="549 1098" stroke-linecap="round"></path>

      <clipPath id="make-me-a-hanzi-clip-11">
      <path d="M 1627.0 -12.0 Q 1667.0 -11.0 1706.0 -6.0 Q 1802.0 4.0 1917.0 -9.0 Q 1939.0 -12.0 1945.0 -4.0 Q 1952.0 9.0 1941.0 21.0 Q 1878.0 78.0 1811.0 60.0 Q 1769.0 53.0 1727.0 46.0 Q 1697.0 45.0 1672.0 40.0 L 1638.0 36.0 Q 1571.0 33.0 1451.0 17.0 Q 1399.0 10.0 1321.0 9.0 Q 1308.0 9.0 1307.0 -2.0 Q 1306.0 -14.0 1324.0 -27.0 Q 1340.0 -39.0 1370.0 -51.0 Q 1380.0 -55.0 1398.0 -47.0 Q 1410.0 -43.0 1466.0 -34.0 Q 1538.0 -18.0 1627.0 -12.0 Z" fill="lightgray"></path>
      </clipPath>
      <path clip-path="url(#make-me-a-hanzi-clip-11)" d="M 1319.0 -3.0 L 1381.0 -20.0 L 1536.0 4.0 L 1836.0 31.0 L 1879.0 26.0 L 1934.0 5.0 " fill="none" id="make-me-a-hanzi-animation-11" stroke-dasharray="753 1506" stroke-linecap="round"></path>

</g>
</svg>
