<svg version="1.1" viewBox="0 0 2048 1024" xmlns="http://www.w3.org/2000/svg">
  <g stroke="lightgray" stroke-dasharray="1,1" stroke-width="1" transform="scale(4, 4)">
    <line x1="0" y1="0" x2="256" y2="256"></line>
    <line x1="256" y1="0" x2="0" y2="256"></line>
    <line x1="128" y1="0" x2="128" y2="256"></line>
    <line x1="0" y1="128" x2="256" y2="128"></line>
    <line x1="256" y1="0" x2="512" y2="256"></line>
    <line x1="512" y1="0" x2="256" y2="256"></line>
    <line x1="384" y1="0" x2="384" y2="256"></line>
    <line x1="256" y1="128" x2="512" y2="128"></line>
  </g>
<g transform="scale(1, -1) translate(0, -850)">
   <style type="text/css">
    @keyframes keyframes0 {
      from {
       stroke: black;
       stroke-dashoffset: 690;
       stroke-width: 128;
       }
       69% {
       animation-timing-function: step-end;
       stroke: black;
       stroke-dashoffset: 0;
       stroke-width: 128;
       }
       to {
       stroke: black;
       stroke-width: 1024;
       }
       }
       #make-me-a-hanzi-animation-0 {
         animation: keyframes0 0.811523s both;
         animation-delay: 0.000000s;
         animation-timing-function: linear;
       }
    @keyframes keyframes1 {
      from {
       stroke: black;
       stroke-dashoffset: 581;
       stroke-width: 128;
       }
       65% {
       animation-timing-function: step-end;
       stroke: black;
       stroke-dashoffset: 0;
       stroke-width: 128;
       }
       to {
       stroke: black;
       stroke-width: 1024;
       }
       }
       #make-me-a-hanzi-animation-1 {
         animation: keyframes1 0.722819s both;
         animation-delay: 0.811523s;
         animation-timing-function: linear;
       }
    @keyframes keyframes2 {
      from {
       stroke: black;
       stroke-dashoffset: 1051;
       stroke-width: 128;
       }
       77% {
       animation-timing-function: step-end;
       stroke: black;
       stroke-dashoffset: 0;
       stroke-width: 128;
       }
       to {
       stroke: black;
       stroke-width: 1024;
       }
       }
       #make-me-a-hanzi-animation-2 {
         animation: keyframes2 1.105306s both;
         animation-delay: 1.534342s;
         animation-timing-function: linear;
       }
    @keyframes keyframes3 {
      from {
       stroke: black;
       stroke-dashoffset: 456;
       stroke-width: 128;
       }
       60% {
       animation-timing-function: step-end;
       stroke: black;
       stroke-dashoffset: 0;
       stroke-width: 128;
       }
       to {
       stroke: black;
       stroke-width: 1024;
       }
       }
       #make-me-a-hanzi-animation-3 {
         animation: keyframes3 0.621094s both;
         animation-delay: 2.639648s;
         animation-timing-function: linear;
       }
    @keyframes keyframes4 {
      from {
       stroke: black;
       stroke-dashoffset: 580;
       stroke-width: 128;
       }
       65% {
       animation-timing-function: step-end;
       stroke: black;
       stroke-dashoffset: 0;
       stroke-width: 128;
       }
       to {
       stroke: black;
       stroke-width: 1024;
       }
       }
       #make-me-a-hanzi-animation-4 {
         animation: keyframes4 0.722005s both;
         animation-delay: 3.260742s;
         animation-timing-function: linear;
       }
    @keyframes keyframes5 {
      from {
       stroke: black;
       stroke-dashoffset: 426;
       stroke-width: 128;
       }
       58% {
       animation-timing-function: step-end;
       stroke: black;
       stroke-dashoffset: 0;
       stroke-width: 128;
       }
       to {
       stroke: black;
       stroke-width: 1024;
       }
       }
       #make-me-a-hanzi-animation-5 {
         animation: keyframes5 0.596680s both;
         animation-delay: 3.982747s;
         animation-timing-function: linear;
       }
    @keyframes keyframes6 {
      from {
       stroke: black;
       stroke-dashoffset: 1307;
       stroke-width: 128;
       }
       81% {
       animation-timing-function: step-end;
       stroke: black;
       stroke-dashoffset: 0;
       stroke-width: 128;
       }
       to {
       stroke: black;
       stroke-width: 1024;
       }
       }
       #make-me-a-hanzi-animation-6 {
         animation: keyframes6 1.313639s both;
         animation-delay: 4.579427s;
         animation-timing-function: linear;
       }
    @keyframes keyframes7 {
      from {
       stroke: black;
       stroke-dashoffset: 603;
       stroke-width: 128;
       }
       66% {
       animation-timing-function: step-end;
       stroke: black;
       stroke-dashoffset: 0;
       stroke-width: 128;
       }
       to {
       stroke: black;
       stroke-width: 1024;
       }
       }
       #make-me-a-hanzi-animation-7 {
         animation: keyframes7 0.740723s both;
         animation-delay: 5.893066s;
         animation-timing-function: linear;
       }
    @keyframes keyframes8 {
      from {
       stroke: black;
       stroke-dashoffset: 1016;
       stroke-width: 128;
       }
       77% {
       animation-timing-function: step-end;
       stroke: black;
       stroke-dashoffset: 0;
       stroke-width: 128;
       }
       to {
       stroke: black;
       stroke-width: 1024;
       }
       }
       #make-me-a-hanzi-animation-8 {
         animation: keyframes8 1.076823s both;
         animation-delay: 6.633789s;
         animation-timing-function: linear;
       }
    @keyframes keyframes9 {
      from {
       stroke: black;
       stroke-dashoffset: 1180;
       stroke-width: 128;
       }
       79% {
       animation-timing-function: step-end;
       stroke: black;
       stroke-dashoffset: 0;
       stroke-width: 128;
       }
       to {
       stroke: black;
       stroke-width: 1024;
       }
       }
       #make-me-a-hanzi-animation-9 {
         animation: keyframes9 1.210286s both;
         animation-delay: 7.710612s;
         animation-timing-function: linear;
       }
    @keyframes keyframes10 {
      from {
       stroke: black;
       stroke-dashoffset: 854;
       stroke-width: 128;
       }
       74% {
       animation-timing-function: step-end;
       stroke: black;
       stroke-dashoffset: 0;
       stroke-width: 128;
       }
       to {
       stroke: black;
       stroke-width: 1024;
       }
       }
       #make-me-a-hanzi-animation-10 {
         animation: keyframes10 0.944987s both;
         animation-delay: 8.920898s;
         animation-timing-function: linear;
       }
</style>
<path d="M 728.0 572.5 L 759.0 645.5 Q 765.0 659.5 770.0 669.5 Q 775.0 679.5 780.0 685.5 L 791.0 699.5 Q 794.0 703.5 794.0 707.5 Q 793.0 710.5 788.0 715.5 Q 783.0 721.5 764.0 731.5 Q 745.0 743.5 731.0 748.5 Q 717.0 754.5 706.0 754.5 Q 699.0 753.5 682.0 748.5 Q 665.0 743.5 613.0 732.5 Q 561.0 721.5 553.0 720.5 L 446.0 704.5 C 416.0 700.5 417.0 666.5 446.0 673.5 L 481.0 681.5 Q 513.0 687.5 561.0 695.5 Q 609.0 703.5 628.0 705.5 Q 647.0 707.5 661.0 708.5 L 668.0 708.5 Q 679.0 708.5 684.0 706.5 Q 691.0 703.5 694.0 697.5 Q 696.0 693.5 696.0 688.5 Q 696.0 685.5 695.0 681.5 Q 695.0 671.5 689.0 645.5 Q 683.0 621.5 679.0 609.5 L 671.0 587.5 C 661.0 559.5 716.0 544.5 728.0 572.5 Z" fill="lightgray"></path> 
<path d="M 417.0 513.5 L 637.0 538.5 Q 681.0 543.5 695.0 543.5 L 726.0 543.5 Q 741.0 543.5 744.0 547.5 Q 745.0 549.5 745.0 551.5 Q 745.0 554.5 743.0 559.5 Q 739.0 565.5 728.0 572.5 C 704.0 590.5 701.0 592.5 671.0 587.5 L 645.0 583.5 L 583.0 572.5 L 427.0 551.5 C 397.0 547.5 387.0 510.5 417.0 513.5 Z" fill="lightgray"></path> 
<path d="M 446.0 704.5 L 424.0 711.5 Q 417.0 713.5 398.0 715.5 Q 378.0 717.5 369.0 717.5 Q 358.0 715.5 356.0 712.5 Q 355.0 709.5 355.0 705.5 Q 356.0 702.5 365.0 682.5 Q 373.0 663.5 375.0 644.5 Q 375.0 629.5 373.0 599.5 Q 371.0 569.5 365.0 529.5 Q 360.0 491.5 349.0 445.5 Q 337.0 401.5 323.0 359.5 Q 307.0 318.5 289.0 279.5 Q 271.0 241.5 249.0 207.5 Q 228.0 175.5 203.0 144.5 Q 177.0 113.5 156.0 91.5 L 123.0 57.5 L 106.0 41.5 Q 99.0 34.5 99.0 30.5 L 99.0 28.5 Q 100.0 26.5 102.0 26.5 Q 105.0 26.5 112.0 30.5 L 131.0 40.5 Q 149.0 49.5 167.0 62.5 Q 185.0 75.5 212.0 97.5 Q 238.0 121.5 262.0 148.5 Q 286.0 175.5 307.0 208.5 Q 328.0 241.5 344.0 273.5 Q 359.0 306.5 367.0 325.5 Q 375.0 345.5 379.0 359.5 L 389.0 393.5 L 400.0 431.5 Q 403.0 442.5 408.0 467.5 L 417.0 513.5 L 427.0 551.5 L 446.0 673.5 C 451.0 703.5 451.0 703.5 446.0 704.5 Z" fill="lightgray"></path> 
<path d="M 439.0 249.5 L 422.0 252.5 Q 408.0 254.5 404.0 255.5 Q 399.0 255.5 396.0 253.5 Q 393.0 251.5 393.0 247.5 L 393.0 241.5 Q 393.0 239.5 401.0 233.5 Q 408.0 227.5 414.0 214.5 Q 420.0 201.5 423.0 179.5 L 436.0 95.5 Q 437.0 87.5 440.0 77.5 Q 443.0 67.5 448.0 62.5 Q 453.0 57.5 458.0 57.5 L 461.0 57.5 Q 467.0 59.5 469.0 71.5 L 471.0 83.5 L 469.0 116.5 L 455.0 221.5 C 452.0 247.5 452.0 247.5 439.0 249.5 Z" fill="lightgray"></path> 
<path d="M 636.0 116.5 L 654.0 175.5 Q 663.0 203.5 665.0 208.5 Q 667.0 213.5 671.0 221.5 Q 675.0 229.5 681.0 237.5 Q 686.0 243.5 687.0 247.5 Q 687.0 251.5 683.0 255.5 Q 679.0 261.5 663.0 270.5 Q 647.0 279.5 639.0 283.5 Q 631.0 287.5 623.0 288.5 Q 614.0 288.5 600.0 284.5 L 569.0 274.5 Q 555.0 270.5 533.0 265.5 Q 511.0 261.5 499.0 259.5 L 439.0 249.5 C 409.0 244.5 425.0 216.5 455.0 221.5 L 551.0 237.5 Q 556.0 237.5 574.0 239.5 Q 583.0 240.5 589.0 240.5 Q 595.0 240.5 597.0 239.5 Q 603.0 237.5 605.0 233.5 Q 607.0 229.5 607.0 224.5 Q 607.0 220.5 605.0 205.5 Q 603.0 189.5 603.0 187.5 L 592.0 130.5 C 586.0 101.5 627.0 87.5 636.0 116.5 Z" fill="lightgray"></path> 
<path d="M 471.0 83.5 L 555.0 89.5 L 611.0 94.5 L 633.0 95.5 Q 644.0 95.5 646.0 98.5 L 646.0 100.5 Q 646.0 102.5 644.0 106.5 Q 641.0 111.5 636.0 116.5 C 623.0 130.5 622.0 130.5 592.0 130.5 L 576.0 130.5 Q 573.0 130.5 563.0 129.5 L 537.0 124.5 L 469.0 116.5 C 439.0 112.5 441.0 81.5 471.0 83.5 Z" fill="lightgray"></path> 
<path d="M 379.0 359.5 L 405.0 355.5 L 408.0 355.5 Q 414.0 355.5 435.0 358.5 L 491.0 365.5 L 585.0 377.5 Q 647.0 385.5 690.0 389.5 Q 733.0 393.5 771.0 394.5 Q 781.0 395.5 790.0 395.5 Q 799.0 395.5 807.0 394.5 Q 823.0 393.5 828.0 389.5 Q 833.0 384.5 835.0 369.5 Q 837.0 355.5 838.0 337.5 Q 838.0 320.5 837.0 295.5 L 829.0 190.5 Q 825.0 156.5 819.0 125.5 Q 813.0 95.5 806.0 71.5 Q 799.0 48.5 790.0 35.5 Q 781.0 22.5 773.0 20.5 L 771.0 20.5 Q 764.0 20.5 751.0 24.5 L 723.0 33.5 L 695.0 45.5 Q 692.0 46.5 690.0 46.5 Q 687.0 46.5 685.0 44.5 Q 684.0 43.5 684.0 41.5 Q 684.0 39.5 686.0 37.5 L 704.0 9.5 L 725.0 -23.5 Q 742.0 -51.5 747.0 -63.5 Q 753.0 -75.5 759.0 -77.5 Q 761.0 -78.5 764.0 -78.5 Q 770.0 -78.5 782.0 -73.5 Q 799.0 -66.5 816.0 -50.5 Q 832.0 -34.5 847.0 -10.5 Q 863.0 13.5 870.0 40.5 Q 877.0 67.5 881.0 104.5 L 894.0 269.5 Q 896.0 295.5 901.0 316.5 Q 905.0 337.5 909.0 347.5 L 919.0 368.5 Q 924.0 377.5 925.0 381.5 Q 925.0 391.5 915.0 400.5 Q 906.0 409.5 883.0 425.5 Q 861.0 441.5 851.0 444.5 Q 843.0 447.5 837.0 447.5 Q 832.0 447.5 816.0 442.5 Q 800.0 437.5 767.0 433.5 Q 733.0 429.5 682.0 424.5 L 389.0 393.5 C 359.0 390.5 349.0 363.5 379.0 359.5 Z" fill="lightgray"></path> 
<path d="M 1609.0 701.0 Q 1616.0 682.0 1607.0 665.0 Q 1559.0 575.0 1450.0 470.0 Q 1440.0 461.0 1436.0 456.0 Q 1430.0 446.0 1445.0 446.0 Q 1455.0 446.0 1484.0 464.0 Q 1515.0 480.0 1554.0 514.0 Q 1597.0 547.0 1645.0 599.0 Q 1667.0 624.0 1683.0 635.0 Q 1693.0 644.0 1691.0 658.0 Q 1690.0 671.0 1665.0 698.0 Q 1641.0 720.0 1623.0 723.0 Q 1604.0 724.0 1609.0 701.0 Z" fill="lightgray"></path> 
<path d="M 1489.0 341.0 Q 1493.0 342.0 1501.0 343.0 Q 1552.0 347.0 1599.0 354.0 Q 1728.0 372.0 1860.0 360.0 Q 1885.0 359.0 1891.0 367.0 Q 1898.0 382.0 1885.0 393.0 Q 1854.0 421.0 1807.0 440.0 Q 1792.0 446.0 1766.0 437.0 Q 1678.0 416.0 1468.0 386.0 Q 1435.0 382.0 1408.0 378.0 L 1359.0 371.0 L 1135.0 346.0 Q 1120.0 346.0 1119.0 334.0 Q 1119.0 321.0 1139.0 307.0 Q 1157.0 294.0 1190.0 283.0 Q 1200.0 279.0 1220.0 288.0 Q 1257.0 303.0 1358.0 319.0 L 1407.0 329.0 Q 1422.0 333.0 1441.0 335.0 L 1489.0 341.0 Z" fill="lightgray"></path> 
<path d="M 1408.0 378.0 Q 1414.0 648.0 1422.0 670.0 Q 1429.0 692.0 1413.0 708.0 Q 1386.0 729.0 1356.0 736.0 Q 1322.0 745.0 1311.0 729.0 Q 1302.0 716.0 1318.0 701.0 Q 1340.0 682.0 1346.0 634.0 Q 1359.0 558.0 1359.0 371.0 L 1358.0 319.0 Q 1355.0 174.0 1344.0 93.0 Q 1340.0 42.0 1318.0 14.0 Q 1305.0 -8.0 1318.0 -32.0 Q 1334.0 -54.0 1355.0 -62.0 Q 1368.0 -69.0 1381.0 -49.0 Q 1400.0 -12.0 1510.0 114.0 Q 1538.0 139.0 1540.0 152.0 Q 1541.0 159.0 1535.0 161.0 Q 1532.0 161.0 1414.0 73.0 Q 1401.0 60.0 1398.0 78.0 Q 1402.0 201.0 1407.0 329.0 L 1408.0 378.0 Z" fill="lightgray"></path> 
<path d="M 1441.0 335.0 Q 1496.0 290.0 1579.0 182.0 Q 1699.0 38.0 1747.0 29.0 Q 1748.0 30.0 1751.0 29.0 Q 1841.0 25.0 1914.0 34.0 Q 1953.0 38.0 1949.0 48.0 Q 1948.0 54.0 1912.0 67.0 Q 1738.0 124.0 1693.0 153.0 Q 1611.0 205.0 1502.0 328.0 L 1489.0 341.0 C 1468.0 362.0 1418.0 355.0 1441.0 335.0 Z" fill="lightgray"></path> 
      <clipPath id="make-me-a-hanzi-clip-0">
      <path d="M 728.0 572.5 L 759.0 645.5 Q 765.0 659.5 770.0 669.5 Q 775.0 679.5 780.0 685.5 L 791.0 699.5 Q 794.0 703.5 794.0 707.5 Q 793.0 710.5 788.0 715.5 Q 783.0 721.5 764.0 731.5 Q 745.0 743.5 731.0 748.5 Q 717.0 754.5 706.0 754.5 Q 699.0 753.5 682.0 748.5 Q 665.0 743.5 613.0 732.5 Q 561.0 721.5 553.0 720.5 L 446.0 704.5 C 416.0 700.5 417.0 666.5 446.0 673.5 L 481.0 681.5 Q 513.0 687.5 561.0 695.5 Q 609.0 703.5 628.0 705.5 Q 647.0 707.5 661.0 708.5 L 668.0 708.5 Q 679.0 708.5 684.0 706.5 Q 691.0 703.5 694.0 697.5 Q 696.0 693.5 696.0 688.5 Q 696.0 685.5 695.0 681.5 Q 695.0 671.5 689.0 645.5 Q 683.0 621.5 679.0 609.5 L 671.0 587.5 C 661.0 559.5 716.0 544.5 728.0 572.5 Z" fill="lightgray"></path>
      </clipPath>
      <path clip-path="url(#make-me-a-hanzi-clip-0)" d="M 450.0 681.5 L 472.0 694.5 L 604.0 718.5 L 695.0 728.5 L 709.0 723.5 L 730.0 708.5 L 737.0 693.5 L 711.0 608.5 L 679.0 590.5 " fill="none" id="make-me-a-hanzi-animation-0" stroke-dasharray="562 1124" stroke-linecap="round"></path>

      <clipPath id="make-me-a-hanzi-clip-1">
      <path d="M 417.0 513.5 L 637.0 538.5 Q 681.0 543.5 695.0 543.5 L 726.0 543.5 Q 741.0 543.5 744.0 547.5 Q 745.0 549.5 745.0 551.5 Q 745.0 554.5 743.0 559.5 Q 739.0 565.5 728.0 572.5 C 704.0 590.5 701.0 592.5 671.0 587.5 L 645.0 583.5 L 583.0 572.5 L 427.0 551.5 C 397.0 547.5 387.0 510.5 417.0 513.5 Z" fill="lightgray"></path>
      </clipPath>
      <path clip-path="url(#make-me-a-hanzi-clip-1)" d="M 424.0 518.5 L 442.0 534.5 L 655.0 563.5 L 725.0 558.5 L 739.0 551.5 " fill="none" id="make-me-a-hanzi-animation-1" stroke-dasharray="453 906" stroke-linecap="round"></path>

      <clipPath id="make-me-a-hanzi-clip-2">
      <path d="M 446.0 704.5 L 424.0 711.5 Q 417.0 713.5 398.0 715.5 Q 378.0 717.5 369.0 717.5 Q 358.0 715.5 356.0 712.5 Q 355.0 709.5 355.0 705.5 Q 356.0 702.5 365.0 682.5 Q 373.0 663.5 375.0 644.5 Q 375.0 629.5 373.0 599.5 Q 371.0 569.5 365.0 529.5 Q 360.0 491.5 349.0 445.5 Q 337.0 401.5 323.0 359.5 Q 307.0 318.5 289.0 279.5 Q 271.0 241.5 249.0 207.5 Q 228.0 175.5 203.0 144.5 Q 177.0 113.5 156.0 91.5 L 123.0 57.5 L 106.0 41.5 Q 99.0 34.5 99.0 30.5 L 99.0 28.5 Q 100.0 26.5 102.0 26.5 Q 105.0 26.5 112.0 30.5 L 131.0 40.5 Q 149.0 49.5 167.0 62.5 Q 185.0 75.5 212.0 97.5 Q 238.0 121.5 262.0 148.5 Q 286.0 175.5 307.0 208.5 Q 328.0 241.5 344.0 273.5 Q 359.0 306.5 367.0 325.5 Q 375.0 345.5 379.0 359.5 L 389.0 393.5 L 400.0 431.5 Q 403.0 442.5 408.0 467.5 L 417.0 513.5 L 427.0 551.5 L 446.0 673.5 C 451.0 703.5 451.0 703.5 446.0 704.5 Z" fill="lightgray"></path>
      </clipPath>
      <path clip-path="url(#make-me-a-hanzi-clip-2)" d="M 365.0 707.5 L 402.0 681.5 L 408.0 655.5 L 387.0 495.5 L 345.0 341.5 L 312.0 266.5 L 259.0 179.5 L 195.0 105.5 L 102.0 29.5 " fill="none" id="make-me-a-hanzi-animation-2" stroke-dasharray="923 1846" stroke-linecap="round"></path>

      <clipPath id="make-me-a-hanzi-clip-3">
      <path d="M 439.0 249.5 L 422.0 252.5 Q 408.0 254.5 404.0 255.5 Q 399.0 255.5 396.0 253.5 Q 393.0 251.5 393.0 247.5 L 393.0 241.5 Q 393.0 239.5 401.0 233.5 Q 408.0 227.5 414.0 214.5 Q 420.0 201.5 423.0 179.5 L 436.0 95.5 Q 437.0 87.5 440.0 77.5 Q 443.0 67.5 448.0 62.5 Q 453.0 57.5 458.0 57.5 L 461.0 57.5 Q 467.0 59.5 469.0 71.5 L 471.0 83.5 L 469.0 116.5 L 455.0 221.5 C 452.0 247.5 452.0 247.5 439.0 249.5 Z" fill="lightgray"></path>
      </clipPath>
      <path clip-path="url(#make-me-a-hanzi-clip-3)" d="M 402.0 246.5 L 423.0 234.5 L 437.0 211.5 L 460.0 64.5 " fill="none" id="make-me-a-hanzi-animation-3" stroke-dasharray="328 656" stroke-linecap="round"></path>

      <clipPath id="make-me-a-hanzi-clip-4">
      <path d="M 636.0 116.5 L 654.0 175.5 Q 663.0 203.5 665.0 208.5 Q 667.0 213.5 671.0 221.5 Q 675.0 229.5 681.0 237.5 Q 686.0 243.5 687.0 247.5 Q 687.0 251.5 683.0 255.5 Q 679.0 261.5 663.0 270.5 Q 647.0 279.5 639.0 283.5 Q 631.0 287.5 623.0 288.5 Q 614.0 288.5 600.0 284.5 L 569.0 274.5 Q 555.0 270.5 533.0 265.5 Q 511.0 261.5 499.0 259.5 L 439.0 249.5 C 409.0 244.5 425.0 216.5 455.0 221.5 L 551.0 237.5 Q 556.0 237.5 574.0 239.5 Q 583.0 240.5 589.0 240.5 Q 595.0 240.5 597.0 239.5 Q 603.0 237.5 605.0 233.5 Q 607.0 229.5 607.0 224.5 Q 607.0 220.5 605.0 205.5 Q 603.0 189.5 603.0 187.5 L 592.0 130.5 C 586.0 101.5 627.0 87.5 636.0 116.5 Z" fill="lightgray"></path>
      </clipPath>
      <path clip-path="url(#make-me-a-hanzi-clip-4)" d="M 447.0 247.5 L 456.0 240.5 L 473.0 239.5 L 591.0 260.5 L 624.0 257.5 L 641.0 241.5 L 621.0 145.5 L 631.0 126.5 " fill="none" id="make-me-a-hanzi-animation-4" stroke-dasharray="452 904" stroke-linecap="round"></path>

      <clipPath id="make-me-a-hanzi-clip-5">
      <path d="M 471.0 83.5 L 555.0 89.5 L 611.0 94.5 L 633.0 95.5 Q 644.0 95.5 646.0 98.5 L 646.0 100.5 Q 646.0 102.5 644.0 106.5 Q 641.0 111.5 636.0 116.5 C 623.0 130.5 622.0 130.5 592.0 130.5 L 576.0 130.5 Q 573.0 130.5 563.0 129.5 L 537.0 124.5 L 469.0 116.5 C 439.0 112.5 441.0 81.5 471.0 83.5 Z" fill="lightgray"></path>
      </clipPath>
      <path clip-path="url(#make-me-a-hanzi-clip-5)" d="M 478.0 89.5 L 485.0 100.5 L 580.0 111.5 L 625.0 108.5 L 639.0 99.5 " fill="none" id="make-me-a-hanzi-animation-5" stroke-dasharray="298 596" stroke-linecap="round"></path>

      <clipPath id="make-me-a-hanzi-clip-6">
      <path d="M 379.0 359.5 L 405.0 355.5 L 408.0 355.5 Q 414.0 355.5 435.0 358.5 L 491.0 365.5 L 585.0 377.5 Q 647.0 385.5 690.0 389.5 Q 733.0 393.5 771.0 394.5 Q 781.0 395.5 790.0 395.5 Q 799.0 395.5 807.0 394.5 Q 823.0 393.5 828.0 389.5 Q 833.0 384.5 835.0 369.5 Q 837.0 355.5 838.0 337.5 Q 838.0 320.5 837.0 295.5 L 829.0 190.5 Q 825.0 156.5 819.0 125.5 Q 813.0 95.5 806.0 71.5 Q 799.0 48.5 790.0 35.5 Q 781.0 22.5 773.0 20.5 L 771.0 20.5 Q 764.0 20.5 751.0 24.5 L 723.0 33.5 L 695.0 45.5 Q 692.0 46.5 690.0 46.5 Q 687.0 46.5 685.0 44.5 Q 684.0 43.5 684.0 41.5 Q 684.0 39.5 686.0 37.5 L 704.0 9.5 L 725.0 -23.5 Q 742.0 -51.5 747.0 -63.5 Q 753.0 -75.5 759.0 -77.5 Q 761.0 -78.5 764.0 -78.5 Q 770.0 -78.5 782.0 -73.5 Q 799.0 -66.5 816.0 -50.5 Q 832.0 -34.5 847.0 -10.5 Q 863.0 13.5 870.0 40.5 Q 877.0 67.5 881.0 104.5 L 894.0 269.5 Q 896.0 295.5 901.0 316.5 Q 905.0 337.5 909.0 347.5 L 919.0 368.5 Q 924.0 377.5 925.0 381.5 Q 925.0 391.5 915.0 400.5 Q 906.0 409.5 883.0 425.5 Q 861.0 441.5 851.0 444.5 Q 843.0 447.5 837.0 447.5 Q 832.0 447.5 816.0 442.5 Q 800.0 437.5 767.0 433.5 Q 733.0 429.5 682.0 424.5 L 389.0 393.5 C 359.0 390.5 349.0 363.5 379.0 359.5 Z" fill="lightgray"></path>
      </clipPath>
      <path clip-path="url(#make-me-a-hanzi-clip-6)" d="M 386.0 363.5 L 407.0 375.5 L 692.0 408.5 L 830.0 418.5 L 859.0 402.5 L 877.0 378.5 L 854.0 144.5 L 830.0 33.5 L 805.0 -4.5 L 777.0 -24.5 L 689.0 41.5 " fill="none" id="make-me-a-hanzi-animation-6" stroke-dasharray="1179 2358" stroke-linecap="round"></path>

      <clipPath id="make-me-a-hanzi-clip-7">
      <path d="M 1609.0 701.0 Q 1616.0 682.0 1607.0 665.0 Q 1559.0 575.0 1450.0 470.0 Q 1440.0 461.0 1436.0 456.0 Q 1430.0 446.0 1445.0 446.0 Q 1455.0 446.0 1484.0 464.0 Q 1515.0 480.0 1554.0 514.0 Q 1597.0 547.0 1645.0 599.0 Q 1667.0 624.0 1683.0 635.0 Q 1693.0 644.0 1691.0 658.0 Q 1690.0 671.0 1665.0 698.0 Q 1641.0 720.0 1623.0 723.0 Q 1604.0 724.0 1609.0 701.0 Z" fill="lightgray"></path>
      </clipPath>
      <path clip-path="url(#make-me-a-hanzi-clip-7)" d="M 1621.0 709.0 L 1641.0 681.0 L 1644.0 653.0 L 1585.0 577.0 L 1534.0 525.0 L 1470.0 469.0 L 1444.0 454.0 " fill="none" id="make-me-a-hanzi-animation-7" stroke-dasharray="475 950" stroke-linecap="round"></path>

      <clipPath id="make-me-a-hanzi-clip-8">
      <path d="M 1489.0 341.0 Q 1493.0 342.0 1501.0 343.0 Q 1552.0 347.0 1599.0 354.0 Q 1728.0 372.0 1860.0 360.0 Q 1885.0 359.0 1891.0 367.0 Q 1898.0 382.0 1885.0 393.0 Q 1854.0 421.0 1807.0 440.0 Q 1792.0 446.0 1766.0 437.0 Q 1678.0 416.0 1468.0 386.0 Q 1435.0 382.0 1408.0 378.0 L 1359.0 371.0 L 1135.0 346.0 Q 1120.0 346.0 1119.0 334.0 Q 1119.0 321.0 1139.0 307.0 Q 1157.0 294.0 1190.0 283.0 Q 1200.0 279.0 1220.0 288.0 Q 1257.0 303.0 1358.0 319.0 L 1407.0 329.0 Q 1422.0 333.0 1441.0 335.0 L 1489.0 341.0 Z" fill="lightgray"></path>
      </clipPath>
      <path clip-path="url(#make-me-a-hanzi-clip-8)" d="M 1132.0 333.0 L 1198.0 317.0 L 1418.0 356.0 L 1784.0 403.0 L 1814.0 399.0 L 1879.0 376.0 " fill="none" id="make-me-a-hanzi-animation-8" stroke-dasharray="888 1776" stroke-linecap="round"></path>

      <clipPath id="make-me-a-hanzi-clip-9">
      <path d="M 1408.0 378.0 Q 1414.0 648.0 1422.0 670.0 Q 1429.0 692.0 1413.0 708.0 Q 1386.0 729.0 1356.0 736.0 Q 1322.0 745.0 1311.0 729.0 Q 1302.0 716.0 1318.0 701.0 Q 1340.0 682.0 1346.0 634.0 Q 1359.0 558.0 1359.0 371.0 L 1358.0 319.0 Q 1355.0 174.0 1344.0 93.0 Q 1340.0 42.0 1318.0 14.0 Q 1305.0 -8.0 1318.0 -32.0 Q 1334.0 -54.0 1355.0 -62.0 Q 1368.0 -69.0 1381.0 -49.0 Q 1400.0 -12.0 1510.0 114.0 Q 1538.0 139.0 1540.0 152.0 Q 1541.0 159.0 1535.0 161.0 Q 1532.0 161.0 1414.0 73.0 Q 1401.0 60.0 1398.0 78.0 Q 1402.0 201.0 1407.0 329.0 L 1408.0 378.0 Z" fill="lightgray"></path>
      </clipPath>
      <path clip-path="url(#make-me-a-hanzi-clip-9)" d="M 1327.0 719.0 L 1365.0 697.0 L 1380.0 679.0 L 1386.0 392.0 L 1370.0 82.0 L 1378.0 29.0 L 1395.0 32.0 L 1427.0 52.0 L 1536.0 156.0 " fill="none" id="make-me-a-hanzi-animation-9" stroke-dasharray="1052 2104" stroke-linecap="round"></path>

      <clipPath id="make-me-a-hanzi-clip-10">
      <path d="M 1441.0 335.0 Q 1496.0 290.0 1579.0 182.0 Q 1699.0 38.0 1747.0 29.0 Q 1748.0 30.0 1751.0 29.0 Q 1841.0 25.0 1914.0 34.0 Q 1953.0 38.0 1949.0 48.0 Q 1948.0 54.0 1912.0 67.0 Q 1738.0 124.0 1693.0 153.0 Q 1611.0 205.0 1502.0 328.0 L 1489.0 341.0 C 1468.0 362.0 1418.0 355.0 1441.0 335.0 Z" fill="lightgray"></path>
      </clipPath>
      <path clip-path="url(#make-me-a-hanzi-clip-10)" d="M 1447.0 334.0 L 1482.0 322.0 L 1621.0 171.0 L 1718.0 94.0 L 1761.0 73.0 L 1943.0 47.0 " fill="none" id="make-me-a-hanzi-animation-10" stroke-dasharray="726 1452" stroke-linecap="round"></path>

</g>
</svg>
