<svg version="1.1" viewBox="0 0 2048 1024" xmlns="http://www.w3.org/2000/svg">
  <g stroke="lightgray" stroke-dasharray="1,1" stroke-width="1" transform="scale(4, 4)">
    <line x1="0" y1="0" x2="256" y2="256"></line>
    <line x1="256" y1="0" x2="0" y2="256"></line>
    <line x1="128" y1="0" x2="128" y2="256"></line>
    <line x1="0" y1="128" x2="256" y2="128"></line>
    <line x1="256" y1="0" x2="512" y2="256"></line>
    <line x1="512" y1="0" x2="256" y2="256"></line>
    <line x1="384" y1="0" x2="384" y2="256"></line>
    <line x1="256" y1="128" x2="512" y2="128"></line>
  </g>
<g transform="scale(1, -1) translate(0, -850)">
   <style type="text/css">
    @keyframes keyframes0 {
      from {
       stroke: black;
       stroke-dashoffset: 735;
       stroke-width: 128;
       }
       71% {
       animation-timing-function: step-end;
       stroke: black;
       stroke-dashoffset: 0;
       stroke-width: 128;
       }
       to {
       stroke: black;
       stroke-width: 1024;
       }
       }
       #make-me-a-hanzi-animation-0 {
         animation: keyframes0 0.848145s both;
         animation-delay: 0.000000s;
         animation-timing-function: linear;
       }
    @keyframes keyframes1 {
      from {
       stroke: black;
       stroke-dashoffset: 616;
       stroke-width: 128;
       }
       67% {
       animation-timing-function: step-end;
       stroke: black;
       stroke-dashoffset: 0;
       stroke-width: 128;
       }
       to {
       stroke: black;
       stroke-width: 1024;
       }
       }
       #make-me-a-hanzi-animation-1 {
         animation: keyframes1 0.751302s both;
         animation-delay: 0.848145s;
         animation-timing-function: linear;
       }
    @keyframes keyframes2 {
      from {
       stroke: black;
       stroke-dashoffset: 1022;
       stroke-width: 128;
       }
       77% {
       animation-timing-function: step-end;
       stroke: black;
       stroke-dashoffset: 0;
       stroke-width: 128;
       }
       to {
       stroke: black;
       stroke-width: 1024;
       }
       }
       #make-me-a-hanzi-animation-2 {
         animation: keyframes2 1.081706s both;
         animation-delay: 1.599447s;
         animation-timing-function: linear;
       }
    @keyframes keyframes3 {
      from {
       stroke: black;
       stroke-dashoffset: 836;
       stroke-width: 128;
       }
       73% {
       animation-timing-function: step-end;
       stroke: black;
       stroke-dashoffset: 0;
       stroke-width: 128;
       }
       to {
       stroke: black;
       stroke-width: 1024;
       }
       }
       #make-me-a-hanzi-animation-3 {
         animation: keyframes3 0.930339s both;
         animation-delay: 2.681153s;
         animation-timing-function: linear;
       }
    @keyframes keyframes4 {
      from {
       stroke: black;
       stroke-dashoffset: 573;
       stroke-width: 128;
       }
       65% {
       animation-timing-function: step-end;
       stroke: black;
       stroke-dashoffset: 0;
       stroke-width: 128;
       }
       to {
       stroke: black;
       stroke-width: 1024;
       }
       }
       #make-me-a-hanzi-animation-4 {
         animation: keyframes4 0.716309s both;
         animation-delay: 3.611492s;
         animation-timing-function: linear;
       }
    @keyframes keyframes5 {
      from {
       stroke: black;
       stroke-dashoffset: 505;
       stroke-width: 128;
       }
       62% {
       animation-timing-function: step-end;
       stroke: black;
       stroke-dashoffset: 0;
       stroke-width: 128;
       }
       to {
       stroke: black;
       stroke-width: 1024;
       }
       }
       #make-me-a-hanzi-animation-5 {
         animation: keyframes5 0.660970s both;
         animation-delay: 4.327801s;
         animation-timing-function: linear;
       }
    @keyframes keyframes6 {
      from {
       stroke: black;
       stroke-dashoffset: 737;
       stroke-width: 128;
       }
       71% {
       animation-timing-function: step-end;
       stroke: black;
       stroke-dashoffset: 0;
       stroke-width: 128;
       }
       to {
       stroke: black;
       stroke-width: 1024;
       }
       }
       #make-me-a-hanzi-animation-6 {
         animation: keyframes6 0.849772s both;
         animation-delay: 4.988771s;
         animation-timing-function: linear;
       }
    @keyframes keyframes7 {
      from {
       stroke: black;
       stroke-dashoffset: 556;
       stroke-width: 128;
       }
       64% {
       animation-timing-function: step-end;
       stroke: black;
       stroke-dashoffset: 0;
       stroke-width: 128;
       }
       to {
       stroke: black;
       stroke-width: 1024;
       }
       }
       #make-me-a-hanzi-animation-7 {
         animation: keyframes7 0.702474s both;
         animation-delay: 5.838543s;
         animation-timing-function: linear;
       }
    @keyframes keyframes8 {
      from {
       stroke: black;
       stroke-dashoffset: 764;
       stroke-width: 128;
       }
       71% {
       animation-timing-function: step-end;
       stroke: black;
       stroke-dashoffset: 0;
       stroke-width: 128;
       }
       to {
       stroke: black;
       stroke-width: 1024;
       }
       }
       #make-me-a-hanzi-animation-8 {
         animation: keyframes8 0.871745s both;
         animation-delay: 6.541017s;
         animation-timing-function: linear;
       }
    @keyframes keyframes9 {
      from {
       stroke: black;
       stroke-dashoffset: 605;
       stroke-width: 128;
       }
       66% {
       animation-timing-function: step-end;
       stroke: black;
       stroke-dashoffset: 0;
       stroke-width: 128;
       }
       to {
       stroke: black;
       stroke-width: 1024;
       }
       }
       #make-me-a-hanzi-animation-9 {
         animation: keyframes9 0.742350s both;
         animation-delay: 7.412762s;
         animation-timing-function: linear;
       }
    @keyframes keyframes10 {
      from {
       stroke: black;
       stroke-dashoffset: 1167;
       stroke-width: 128;
       }
       79% {
       animation-timing-function: step-end;
       stroke: black;
       stroke-dashoffset: 0;
       stroke-width: 128;
       }
       to {
       stroke: black;
       stroke-width: 1024;
       }
       }
       #make-me-a-hanzi-animation-10 {
         animation: keyframes10 1.199707s both;
         animation-delay: 8.155112s;
         animation-timing-function: linear;
       }
    @keyframes keyframes11 {
      from {
       stroke: black;
       stroke-dashoffset: 728;
       stroke-width: 128;
       }
       70% {
       animation-timing-function: step-end;
       stroke: black;
       stroke-dashoffset: 0;
       stroke-width: 128;
       }
       to {
       stroke: black;
       stroke-width: 1024;
       }
       }
       #make-me-a-hanzi-animation-11 {
         animation: keyframes11 0.842448s both;
         animation-delay: 9.354819s;
         animation-timing-function: linear;
       }
    @keyframes keyframes12 {
      from {
       stroke: black;
       stroke-dashoffset: 1161;
       stroke-width: 128;
       }
       79% {
       animation-timing-function: step-end;
       stroke: black;
       stroke-dashoffset: 0;
       stroke-width: 128;
       }
       to {
       stroke: black;
       stroke-width: 1024;
       }
       }
       #make-me-a-hanzi-animation-12 {
         animation: keyframes12 1.194824s both;
         animation-delay: 10.197267s;
         animation-timing-function: linear;
       }
</style>
<path d="M 741.0 562.5 L 761.0 610.5 Q 778.0 647.5 781.0 658.5 L 795.0 678.5 Q 816.0 699.5 784.0 720.5 Q 753.0 733.5 753.0 734.5 Q 729.0 743.5 720.0 745.5 Q 711.0 747.5 689.0 739.5 Q 667.0 731.5 650.0 729.5 L 479.0 701.5 Q 473.0 699.5 416.0 691.5 C 386.0 687.5 387.0 657.5 417.0 662.5 L 486.0 673.5 L 641.0 694.5 Q 665.0 700.5 685.0 698.5 Q 706.0 699.5 708.0 682.5 Q 709.0 674.5 701.0 640.5 L 682.0 570.5 C 674.0 541.5 729.0 534.5 741.0 562.5 Z" fill="lightgray"></path> 
<path d="M 390.0 498.5 L 405.0 496.5 Q 413.0 494.5 431.0 497.5 L 619.0 520.5 Q 692.0 528.5 705.0 528.5 L 753.0 529.5 Q 762.0 529.5 764.0 537.5 Q 766.0 545.5 757.0 552.5 L 741.0 562.5 C 718.0 577.5 712.0 575.5 682.0 570.5 L 583.0 552.5 Q 443.0 531.5 394.0 529.5 C 364.0 527.5 360.0 502.5 390.0 498.5 Z" fill="lightgray"></path> 
<path d="M 370.0 704.5 L 345.0 706.5 Q 332.0 706.5 327.0 702.5 Q 324.0 698.5 327.0 686.5 L 338.0 662.5 Q 351.0 605.5 329.0 488.5 Q 303.0 294.5 170.0 121.5 Q 135.0 77.5 113.0 56.5 L 101.0 43.5 Q 95.0 39.5 96.0 33.5 Q 97.0 26.5 103.0 32.5 L 127.0 46.5 Q 150.0 59.5 182.0 84.5 Q 232.0 130.5 274.0 189.5 Q 309.0 240.5 339.0 310.5 L 348.0 332.5 L 359.0 370.5 Q 377.0 431.5 390.0 498.5 L 394.0 529.5 L 417.0 662.5 C 422.0 689.5 422.0 689.5 416.0 691.5 L 393.0 699.5 Q 387.0 701.5 370.0 704.5 Z" fill="lightgray"></path> 
<path d="M 339.0 310.5 L 361.0 298.5 Q 369.0 292.5 389.0 290.5 L 451.0 302.5 L 571.0 316.5 L 639.0 322.5 L 779.0 332.5 L 911.0 338.5 Q 927.0 338.5 928.0 341.5 Q 929.0 344.5 929.0 350.5 Q 929.0 356.5 904.0 373.5 Q 879.0 389.5 852.0 389.5 L 828.0 385.5 Q 810.0 380.5 769.0 376.5 L 725.0 370.5 L 648.0 363.5 L 575.0 355.5 L 348.0 332.5 C 318.0 329.5 313.0 324.5 339.0 310.5 Z" fill="lightgray"></path> 
<path d="M 571.0 316.5 L 551.0 184.5 C 547.0 154.5 601.0 163.5 608.0 192.5 L 639.0 322.5 L 648.0 363.5 L 651.0 380.5 L 657.0 400.5 Q 661.0 414.5 668.0 426.5 Q 675.0 437.5 675.0 442.5 Q 676.0 446.5 671.0 454.5 Q 663.0 463.5 653.0 470.5 L 626.0 484.5 Q 596.0 500.5 579.0 491.5 Q 569.0 483.5 576.0 463.5 Q 583.0 443.5 581.0 417.5 L 575.0 355.5 L 571.0 316.5 Z" fill="lightgray"></path> 
<path d="M 448.0 172.5 L 425.0 180.5 L 399.0 186.5 Q 388.0 186.5 384.0 182.5 Q 380.0 178.5 381.0 175.5 Q 382.0 172.5 389.0 162.5 Q 405.0 146.5 409.0 125.5 Q 413.0 115.5 416.0 88.5 L 431.0 -19.5 Q 439.0 -71.5 461.0 -65.5 Q 469.0 -64.5 472.0 -45.5 L 475.0 -34.5 L 473.0 4.5 L 461.0 144.5 C 459.0 168.5 459.0 168.5 448.0 172.5 Z" fill="lightgray"></path> 
<path d="M 551.0 184.5 L 448.0 172.5 C 418.0 169.5 431.0 140.5 461.0 144.5 L 633.0 167.5 Q 714.0 177.5 721.0 172.5 Q 728.0 166.5 728.0 157.5 Q 731.0 146.5 725.0 124.5 L 703.0 26.5 C 696.0 -2.5 751.0 -13.5 761.0 14.5 L 788.0 89.5 L 803.0 126.5 Q 803.0 131.5 816.0 144.5 Q 830.0 157.5 830.0 166.5 Q 828.0 179.5 804.0 193.5 Q 781.0 206.5 771.0 214.5 Q 762.0 221.5 747.0 221.5 L 735.0 218.5 Q 703.0 210.5 685.0 207.5 L 608.0 192.5 L 551.0 184.5 Z" fill="lightgray"></path> 
<path d="M 475.0 -34.5 L 735.0 -17.5 L 770.0 -19.5 Q 783.0 -18.5 785.0 -11.5 Q 787.0 -4.5 780.0 2.5 L 761.0 14.5 C 737.0 29.5 733.0 29.5 703.0 26.5 L 473.0 4.5 C 443.0 1.5 445.0 -36.5 475.0 -34.5 Z" fill="lightgray"></path> 
<path d="M 1598.0 564.5 L 1627.0 614.5 L 1644.0 636.5 Q 1660.0 655.5 1672.0 664.5 L 1681.0 672.5 Q 1683.0 680.5 1683.0 683.5 Q 1683.0 686.5 1670.0 698.5 L 1651.0 714.5 Q 1648.0 717.5 1637.0 722.5 Q 1626.0 726.5 1617.0 731.5 Q 1608.0 735.5 1597.0 738.5 Q 1587.0 741.5 1577.0 739.5 Q 1567.0 736.5 1557.0 734.5 L 1544.0 731.5 Q 1542.0 729.5 1493.0 722.5 L 1240.0 680.5 C 1210.0 675.5 1245.0 633.5 1274.0 642.5 L 1311.0 654.5 L 1443.0 681.5 Q 1462.0 685.5 1482.0 687.5 L 1521.0 690.5 Q 1567.0 691.5 1564.0 668.5 Q 1563.0 660.5 1557.0 641.5 L 1536.0 572.5 C 1527.0 543.5 1583.0 538.5 1598.0 564.5 Z" fill="lightgray"></path> 
<path d="M 1479.0 519.5 L 1538.0 526.5 L 1615.0 531.5 Q 1621.0 532.5 1620.0 540.5 Q 1619.0 548.5 1611.0 554.5 L 1598.0 564.5 C 1578.0 579.5 1566.0 577.5 1536.0 572.5 L 1356.0 540.5 Q 1335.0 535.5 1318.0 534.5 L 1270.0 528.5 C 1240.0 524.5 1235.0 481.5 1265.0 486.5 L 1423.0 510.5 L 1479.0 519.5 Z" fill="lightgray"></path> 
<path d="M 1194.0 627.5 L 1200.0 580.5 Q 1203.0 530.5 1204.0 484.5 Q 1206.0 438.5 1200.0 298.5 L 1193.0 211.5 Q 1184.0 129.5 1176.0 109.5 Q 1169.0 89.5 1157.0 75.5 Q 1145.0 60.5 1143.0 55.5 Q 1140.0 42.5 1143.0 32.5 Q 1147.0 22.5 1157.0 1.5 Q 1170.0 -24.5 1189.0 -24.5 Q 1195.0 -27.5 1208.0 -16.5 L 1273.0 40.5 L 1447.0 170.5 Q 1456.0 176.5 1453.0 182.5 Q 1450.0 187.5 1433.0 180.5 L 1286.0 106.5 Q 1254.0 85.5 1247.0 98.5 Q 1245.0 101.5 1246.0 135.5 L 1255.0 320.5 L 1257.0 344.5 L 1265.0 486.5 L 1270.0 528.5 L 1273.0 590.5 Q 1273.0 622.5 1274.0 642.5 C 1275.0 664.5 1267.0 668.5 1240.0 680.5 L 1218.0 690.5 Q 1182.0 707.5 1177.0 686.5 Q 1173.0 682.5 1181.0 661.5 Q 1191.0 645.5 1194.0 627.5 Z" fill="lightgray"></path> 
<path d="M 1255.0 320.5 L 1269.0 317.5 Q 1270.0 316.5 1279.0 316.5 L 1281.0 315.5 Q 1288.0 315.5 1303.0 318.5 L 1496.0 353.5 L 1549.0 360.5 L 1657.0 374.5 Q 1694.0 378.5 1714.0 378.5 Q 1735.0 378.5 1735.0 388.5 Q 1735.0 393.5 1731.0 397.5 Q 1710.0 427.5 1652.0 422.5 L 1540.0 399.5 L 1484.0 386.5 L 1408.0 372.5 Q 1350.0 359.5 1340.0 358.5 L 1257.0 344.5 C 1227.0 339.5 1226.0 327.5 1255.0 320.5 Z" fill="lightgray"></path> 
<path d="M 1496.0 353.5 L 1511.0 317.5 Q 1535.0 266.5 1555.0 229.5 Q 1612.0 127.5 1698.0 46.5 Q 1744.0 3.5 1778.0 -17.5 Q 1812.0 -39.5 1845.0 -52.5 Q 1879.0 -65.5 1896.0 -65.5 Q 1913.0 -65.5 1921.0 -63.5 Q 1930.0 -61.5 1931.0 -50.5 Q 1932.0 -40.5 1923.0 -13.5 Q 1915.0 12.5 1914.0 32.5 L 1908.0 132.5 L 1908.0 161.5 Q 1909.0 176.5 1905.0 177.5 Q 1902.0 179.5 1897.0 166.5 L 1889.0 142.5 L 1876.0 110.5 Q 1857.0 40.5 1843.0 31.5 Q 1838.0 28.5 1821.0 33.5 Q 1804.0 38.5 1763.0 71.5 L 1727.0 100.5 Q 1684.0 137.5 1646.0 188.5 Q 1608.0 239.5 1590.0 273.5 Q 1572.0 306.5 1569.0 314.5 L 1549.0 360.5 L 1540.0 399.5 L 1534.0 434.5 Q 1531.0 453.5 1530.0 473.5 Q 1529.0 492.5 1525.0 501.5 Q 1521.0 510.5 1479.0 519.5 C 1450.0 527.5 1405.0 534.5 1423.0 510.5 L 1433.0 496.5 Q 1443.0 485.5 1448.0 474.5 L 1472.0 420.5 L 1484.0 386.5 L 1496.0 353.5 Z" fill="lightgray"></path> 
      <clipPath id="make-me-a-hanzi-clip-0">
      <path d="M 741.0 562.5 L 761.0 610.5 Q 778.0 647.5 781.0 658.5 L 795.0 678.5 Q 816.0 699.5 784.0 720.5 Q 753.0 733.5 753.0 734.5 Q 729.0 743.5 720.0 745.5 Q 711.0 747.5 689.0 739.5 Q 667.0 731.5 650.0 729.5 L 479.0 701.5 Q 473.0 699.5 416.0 691.5 C 386.0 687.5 387.0 657.5 417.0 662.5 L 486.0 673.5 L 641.0 694.5 Q 665.0 700.5 685.0 698.5 Q 706.0 699.5 708.0 682.5 Q 709.0 674.5 701.0 640.5 L 682.0 570.5 C 674.0 541.5 729.0 534.5 741.0 562.5 Z" fill="lightgray"></path>
      </clipPath>
      <path clip-path="url(#make-me-a-hanzi-clip-0)" d="M 423.0 669.5 L 435.0 680.5 L 717.0 718.5 L 750.0 687.5 L 721.0 596.5 L 690.0 575.5 " fill="none" id="make-me-a-hanzi-animation-0" stroke-dasharray="607 1214" stroke-linecap="round"></path>

      <clipPath id="make-me-a-hanzi-clip-1">
      <path d="M 390.0 498.5 L 405.0 496.5 Q 413.0 494.5 431.0 497.5 L 619.0 520.5 Q 692.0 528.5 705.0 528.5 L 753.0 529.5 Q 762.0 529.5 764.0 537.5 Q 766.0 545.5 757.0 552.5 L 741.0 562.5 C 718.0 577.5 712.0 575.5 682.0 570.5 L 583.0 552.5 Q 443.0 531.5 394.0 529.5 C 364.0 527.5 360.0 502.5 390.0 498.5 Z" fill="lightgray"></path>
      </clipPath>
      <path clip-path="url(#make-me-a-hanzi-clip-1)" d="M 399.0 505.5 L 410.0 513.5 L 687.0 549.5 L 753.0 540.5 " fill="none" id="make-me-a-hanzi-animation-1" stroke-dasharray="488 976" stroke-linecap="round"></path>

      <clipPath id="make-me-a-hanzi-clip-2">
      <path d="M 370.0 704.5 L 345.0 706.5 Q 332.0 706.5 327.0 702.5 Q 324.0 698.5 327.0 686.5 L 338.0 662.5 Q 351.0 605.5 329.0 488.5 Q 303.0 294.5 170.0 121.5 Q 135.0 77.5 113.0 56.5 L 101.0 43.5 Q 95.0 39.5 96.0 33.5 Q 97.0 26.5 103.0 32.5 L 127.0 46.5 Q 150.0 59.5 182.0 84.5 Q 232.0 130.5 274.0 189.5 Q 309.0 240.5 339.0 310.5 L 348.0 332.5 L 359.0 370.5 Q 377.0 431.5 390.0 498.5 L 394.0 529.5 L 417.0 662.5 C 422.0 689.5 422.0 689.5 416.0 691.5 L 393.0 699.5 Q 387.0 701.5 370.0 704.5 Z" fill="lightgray"></path>
      </clipPath>
      <path clip-path="url(#make-me-a-hanzi-clip-2)" d="M 333.0 697.5 L 371.0 670.5 L 378.0 661.5 L 378.0 646.5 L 358.0 482.5 L 324.0 346.5 L 292.0 270.5 L 242.0 183.5 L 176.0 101.5 L 100.0 37.5 " fill="none" id="make-me-a-hanzi-animation-2" stroke-dasharray="894 1788" stroke-linecap="round"></path>

      <clipPath id="make-me-a-hanzi-clip-3">
      <path d="M 339.0 310.5 L 361.0 298.5 Q 369.0 292.5 389.0 290.5 L 451.0 302.5 L 571.0 316.5 L 639.0 322.5 L 779.0 332.5 L 911.0 338.5 Q 927.0 338.5 928.0 341.5 Q 929.0 344.5 929.0 350.5 Q 929.0 356.5 904.0 373.5 Q 879.0 389.5 852.0 389.5 L 828.0 385.5 Q 810.0 380.5 769.0 376.5 L 725.0 370.5 L 648.0 363.5 L 575.0 355.5 L 348.0 332.5 C 318.0 329.5 313.0 324.5 339.0 310.5 Z" fill="lightgray"></path>
      </clipPath>
      <path clip-path="url(#make-me-a-hanzi-clip-3)" d="M 348.0 313.5 L 393.0 313.5 L 539.0 333.5 L 850.0 362.5 L 901.0 355.5 L 923.0 346.5 " fill="none" id="make-me-a-hanzi-animation-3" stroke-dasharray="708 1416" stroke-linecap="round"></path>

      <clipPath id="make-me-a-hanzi-clip-4">
      <path d="M 571.0 316.5 L 551.0 184.5 C 547.0 154.5 601.0 163.5 608.0 192.5 L 639.0 322.5 L 648.0 363.5 L 651.0 380.5 L 657.0 400.5 Q 661.0 414.5 668.0 426.5 Q 675.0 437.5 675.0 442.5 Q 676.0 446.5 671.0 454.5 Q 663.0 463.5 653.0 470.5 L 626.0 484.5 Q 596.0 500.5 579.0 491.5 Q 569.0 483.5 576.0 463.5 Q 583.0 443.5 581.0 417.5 L 575.0 355.5 L 571.0 316.5 Z" fill="lightgray"></path>
      </clipPath>
      <path clip-path="url(#make-me-a-hanzi-clip-4)" d="M 589.0 479.5 L 625.0 436.5 L 586.0 220.5 L 557.0 191.5 " fill="none" id="make-me-a-hanzi-animation-4" stroke-dasharray="445 890" stroke-linecap="round"></path>

      <clipPath id="make-me-a-hanzi-clip-5">
      <path d="M 448.0 172.5 L 425.0 180.5 L 399.0 186.5 Q 388.0 186.5 384.0 182.5 Q 380.0 178.5 381.0 175.5 Q 382.0 172.5 389.0 162.5 Q 405.0 146.5 409.0 125.5 Q 413.0 115.5 416.0 88.5 L 431.0 -19.5 Q 439.0 -71.5 461.0 -65.5 Q 469.0 -64.5 472.0 -45.5 L 475.0 -34.5 L 473.0 4.5 L 461.0 144.5 C 459.0 168.5 459.0 168.5 448.0 172.5 Z" fill="lightgray"></path>
      </clipPath>
      <path clip-path="url(#make-me-a-hanzi-clip-5)" d="M 394.0 174.5 L 429.0 150.5 L 435.0 134.5 L 457.0 -53.5 " fill="none" id="make-me-a-hanzi-animation-5" stroke-dasharray="377 754" stroke-linecap="round"></path>

      <clipPath id="make-me-a-hanzi-clip-6">
      <path d="M 551.0 184.5 L 448.0 172.5 C 418.0 169.5 431.0 140.5 461.0 144.5 L 633.0 167.5 Q 714.0 177.5 721.0 172.5 Q 728.0 166.5 728.0 157.5 Q 731.0 146.5 725.0 124.5 L 703.0 26.5 C 696.0 -2.5 751.0 -13.5 761.0 14.5 L 788.0 89.5 L 803.0 126.5 Q 803.0 131.5 816.0 144.5 Q 830.0 157.5 830.0 166.5 Q 828.0 179.5 804.0 193.5 Q 781.0 206.5 771.0 214.5 Q 762.0 221.5 747.0 221.5 L 735.0 218.5 Q 703.0 210.5 685.0 207.5 L 608.0 192.5 L 551.0 184.5 Z" fill="lightgray"></path>
      </clipPath>
      <path clip-path="url(#make-me-a-hanzi-clip-6)" d="M 456.0 167.5 L 472.0 161.5 L 718.0 194.5 L 751.0 187.5 L 771.0 158.5 L 766.0 134.5 L 741.0 50.5 L 712.0 31.5 " fill="none" id="make-me-a-hanzi-animation-6" stroke-dasharray="609 1218" stroke-linecap="round"></path>

      <clipPath id="make-me-a-hanzi-clip-7">
      <path d="M 475.0 -34.5 L 735.0 -17.5 L 770.0 -19.5 Q 783.0 -18.5 785.0 -11.5 Q 787.0 -4.5 780.0 2.5 L 761.0 14.5 C 737.0 29.5 733.0 29.5 703.0 26.5 L 473.0 4.5 C 443.0 1.5 445.0 -36.5 475.0 -34.5 Z" fill="lightgray"></path>
      </clipPath>
      <path clip-path="url(#make-me-a-hanzi-clip-7)" d="M 482.0 -27.5 L 497.0 -13.5 L 706.0 3.5 L 775.0 -7.5 " fill="none" id="make-me-a-hanzi-animation-7" stroke-dasharray="428 856" stroke-linecap="round"></path>

      <clipPath id="make-me-a-hanzi-clip-8">
      <path d="M 1598.0 564.5 L 1627.0 614.5 L 1644.0 636.5 Q 1660.0 655.5 1672.0 664.5 L 1681.0 672.5 Q 1683.0 680.5 1683.0 683.5 Q 1683.0 686.5 1670.0 698.5 L 1651.0 714.5 Q 1648.0 717.5 1637.0 722.5 Q 1626.0 726.5 1617.0 731.5 Q 1608.0 735.5 1597.0 738.5 Q 1587.0 741.5 1577.0 739.5 Q 1567.0 736.5 1557.0 734.5 L 1544.0 731.5 Q 1542.0 729.5 1493.0 722.5 L 1240.0 680.5 C 1210.0 675.5 1245.0 633.5 1274.0 642.5 L 1311.0 654.5 L 1443.0 681.5 Q 1462.0 685.5 1482.0 687.5 L 1521.0 690.5 Q 1567.0 691.5 1564.0 668.5 Q 1563.0 660.5 1557.0 641.5 L 1536.0 572.5 C 1527.0 543.5 1583.0 538.5 1598.0 564.5 Z" fill="lightgray"></path>
      </clipPath>
      <path clip-path="url(#make-me-a-hanzi-clip-8)" d="M 1248.0 679.5 L 1286.0 667.5 L 1506.0 708.5 L 1581.0 706.5 L 1603.0 691.5 L 1613.0 674.5 L 1579.0 599.5 L 1545.0 577.5 " fill="none" id="make-me-a-hanzi-animation-8" stroke-dasharray="636 1272" stroke-linecap="round"></path>

      <clipPath id="make-me-a-hanzi-clip-9">
      <path d="M 1479.0 519.5 L 1538.0 526.5 L 1615.0 531.5 Q 1621.0 532.5 1620.0 540.5 Q 1619.0 548.5 1611.0 554.5 L 1598.0 564.5 C 1578.0 579.5 1566.0 577.5 1536.0 572.5 L 1356.0 540.5 Q 1335.0 535.5 1318.0 534.5 L 1270.0 528.5 C 1240.0 524.5 1235.0 481.5 1265.0 486.5 L 1423.0 510.5 L 1479.0 519.5 Z" fill="lightgray"></path>
      </clipPath>
      <path clip-path="url(#make-me-a-hanzi-clip-9)" d="M 1272.0 492.5 L 1289.0 510.5 L 1517.0 547.5 L 1588.0 548.5 L 1609.0 540.5 " fill="none" id="make-me-a-hanzi-animation-9" stroke-dasharray="477 954" stroke-linecap="round"></path>

      <clipPath id="make-me-a-hanzi-clip-10">
      <path d="M 1194.0 627.5 L 1200.0 580.5 Q 1203.0 530.5 1204.0 484.5 Q 1206.0 438.5 1200.0 298.5 L 1193.0 211.5 Q 1184.0 129.5 1176.0 109.5 Q 1169.0 89.5 1157.0 75.5 Q 1145.0 60.5 1143.0 55.5 Q 1140.0 42.5 1143.0 32.5 Q 1147.0 22.5 1157.0 1.5 Q 1170.0 -24.5 1189.0 -24.5 Q 1195.0 -27.5 1208.0 -16.5 L 1273.0 40.5 L 1447.0 170.5 Q 1456.0 176.5 1453.0 182.5 Q 1450.0 187.5 1433.0 180.5 L 1286.0 106.5 Q 1254.0 85.5 1247.0 98.5 Q 1245.0 101.5 1246.0 135.5 L 1255.0 320.5 L 1257.0 344.5 L 1265.0 486.5 L 1270.0 528.5 L 1273.0 590.5 Q 1273.0 622.5 1274.0 642.5 C 1275.0 664.5 1267.0 668.5 1240.0 680.5 L 1218.0 690.5 Q 1182.0 707.5 1177.0 686.5 Q 1173.0 682.5 1181.0 661.5 Q 1191.0 645.5 1194.0 627.5 Z" fill="lightgray"></path>
      </clipPath>
      <path clip-path="url(#make-me-a-hanzi-clip-10)" d="M 1192.0 683.5 L 1221.0 653.5 L 1233.0 631.5 L 1237.0 584.5 L 1228.0 298.5 L 1209.0 88.5 L 1211.0 57.5 L 1246.0 60.5 L 1277.0 73.5 L 1448.0 177.5 " fill="none" id="make-me-a-hanzi-animation-10" stroke-dasharray="1039 2078" stroke-linecap="round"></path>

      <clipPath id="make-me-a-hanzi-clip-11">
      <path d="M 1255.0 320.5 L 1269.0 317.5 Q 1270.0 316.5 1279.0 316.5 L 1281.0 315.5 Q 1288.0 315.5 1303.0 318.5 L 1496.0 353.5 L 1549.0 360.5 L 1657.0 374.5 Q 1694.0 378.5 1714.0 378.5 Q 1735.0 378.5 1735.0 388.5 Q 1735.0 393.5 1731.0 397.5 Q 1710.0 427.5 1652.0 422.5 L 1540.0 399.5 L 1484.0 386.5 L 1408.0 372.5 Q 1350.0 359.5 1340.0 358.5 L 1257.0 344.5 C 1227.0 339.5 1226.0 327.5 1255.0 320.5 Z" fill="lightgray"></path>
      </clipPath>
      <path clip-path="url(#make-me-a-hanzi-clip-11)" d="M 1263.0 325.5 L 1271.0 332.5 L 1650.0 398.5 L 1689.0 399.5 L 1725.0 389.5 " fill="none" id="make-me-a-hanzi-animation-11" stroke-dasharray="600 1200" stroke-linecap="round"></path>

      <clipPath id="make-me-a-hanzi-clip-12">
      <path d="M 1496.0 353.5 L 1511.0 317.5 Q 1535.0 266.5 1555.0 229.5 Q 1612.0 127.5 1698.0 46.5 Q 1744.0 3.5 1778.0 -17.5 Q 1812.0 -39.5 1845.0 -52.5 Q 1879.0 -65.5 1896.0 -65.5 Q 1913.0 -65.5 1921.0 -63.5 Q 1930.0 -61.5 1931.0 -50.5 Q 1932.0 -40.5 1923.0 -13.5 Q 1915.0 12.5 1914.0 32.5 L 1908.0 132.5 L 1908.0 161.5 Q 1909.0 176.5 1905.0 177.5 Q 1902.0 179.5 1897.0 166.5 L 1889.0 142.5 L 1876.0 110.5 Q 1857.0 40.5 1843.0 31.5 Q 1838.0 28.5 1821.0 33.5 Q 1804.0 38.5 1763.0 71.5 L 1727.0 100.5 Q 1684.0 137.5 1646.0 188.5 Q 1608.0 239.5 1590.0 273.5 Q 1572.0 306.5 1569.0 314.5 L 1549.0 360.5 L 1540.0 399.5 L 1534.0 434.5 Q 1531.0 453.5 1530.0 473.5 Q 1529.0 492.5 1525.0 501.5 Q 1521.0 510.5 1479.0 519.5 C 1450.0 527.5 1405.0 534.5 1423.0 510.5 L 1433.0 496.5 Q 1443.0 485.5 1448.0 474.5 L 1472.0 420.5 L 1484.0 386.5 L 1496.0 353.5 Z" fill="lightgray"></path>
      </clipPath>
      <path clip-path="url(#make-me-a-hanzi-clip-12)" d="M 1430.0 510.5 L 1491.0 476.5 L 1522.0 357.5 L 1556.0 281.5 L 1605.0 197.5 L 1680.0 104.5 L 1771.0 25.5 L 1828.0 -5.5 L 1871.0 -9.5 L 1884.0 37.5 L 1901.0 171.5 " fill="none" id="make-me-a-hanzi-animation-12" stroke-dasharray="1033 2066" stroke-linecap="round"></path>

</g>
</svg>
