<svg version="1.1" viewBox="0 0 2048 1024" xmlns="http://www.w3.org/2000/svg">
  <g stroke="lightgray" stroke-dasharray="1,1" stroke-width="1" transform="scale(4, 4)">
    <line x1="0" y1="0" x2="256" y2="256"></line>
    <line x1="256" y1="0" x2="0" y2="256"></line>
    <line x1="128" y1="0" x2="128" y2="256"></line>
    <line x1="0" y1="128" x2="256" y2="128"></line>
    <line x1="256" y1="0" x2="512" y2="256"></line>
    <line x1="512" y1="0" x2="256" y2="256"></line>
    <line x1="384" y1="0" x2="384" y2="256"></line>
    <line x1="256" y1="128" x2="512" y2="128"></line>
  </g>
<g transform="scale(1, -1) translate(0, -850)">
   <style type="text/css">
    @keyframes keyframes0 {
      from {
       stroke: black;
       stroke-dashoffset: 477;
       stroke-width: 128;
       }
       61% {
       animation-timing-function: step-end;
       stroke: black;
       stroke-dashoffset: 0;
       stroke-width: 128;
       }
       to {
       stroke: black;
       stroke-width: 1024;
       }
       }
       #make-me-a-hanzi-animation-0 {
         animation: keyframes0 0.638184s both;
         animation-delay: 0.000000s;
         animation-timing-function: linear;
       }
    @keyframes keyframes1 {
      from {
       stroke: black;
       stroke-dashoffset: 839;
       stroke-width: 128;
       }
       73% {
       animation-timing-function: step-end;
       stroke: black;
       stroke-dashoffset: 0;
       stroke-width: 128;
       }
       to {
       stroke: black;
       stroke-width: 1024;
       }
       }
       #make-me-a-hanzi-animation-1 {
         animation: keyframes1 0.932780s both;
         animation-delay: 0.638184s;
         animation-timing-function: linear;
       }
    @keyframes keyframes2 {
      from {
       stroke: black;
       stroke-dashoffset: 480;
       stroke-width: 128;
       }
       61% {
       animation-timing-function: step-end;
       stroke: black;
       stroke-dashoffset: 0;
       stroke-width: 128;
       }
       to {
       stroke: black;
       stroke-width: 1024;
       }
       }
       #make-me-a-hanzi-animation-2 {
         animation: keyframes2 0.640625s both;
         animation-delay: 1.570964s;
         animation-timing-function: linear;
       }
    @keyframes keyframes3 {
      from {
       stroke: black;
       stroke-dashoffset: 696;
       stroke-width: 128;
       }
       69% {
       animation-timing-function: step-end;
       stroke: black;
       stroke-dashoffset: 0;
       stroke-width: 128;
       }
       to {
       stroke: black;
       stroke-width: 1024;
       }
       }
       #make-me-a-hanzi-animation-3 {
         animation: keyframes3 0.816406s both;
         animation-delay: 2.211589s;
         animation-timing-function: linear;
       }
    @keyframes keyframes4 {
      from {
       stroke: black;
       stroke-dashoffset: 1179;
       stroke-width: 128;
       }
       79% {
       animation-timing-function: step-end;
       stroke: black;
       stroke-dashoffset: 0;
       stroke-width: 128;
       }
       to {
       stroke: black;
       stroke-width: 1024;
       }
       }
       #make-me-a-hanzi-animation-4 {
         animation: keyframes4 1.209473s both;
         animation-delay: 3.027995s;
         animation-timing-function: linear;
       }
    @keyframes keyframes5 {
      from {
       stroke: black;
       stroke-dashoffset: 429;
       stroke-width: 128;
       }
       58% {
       animation-timing-function: step-end;
       stroke: black;
       stroke-dashoffset: 0;
       stroke-width: 128;
       }
       to {
       stroke: black;
       stroke-width: 1024;
       }
       }
       #make-me-a-hanzi-animation-5 {
         animation: keyframes5 0.599121s both;
         animation-delay: 4.237468s;
         animation-timing-function: linear;
       }
    @keyframes keyframes6 {
      from {
       stroke: black;
       stroke-dashoffset: 1090;
       stroke-width: 128;
       }
       78% {
       animation-timing-function: step-end;
       stroke: black;
       stroke-dashoffset: 0;
       stroke-width: 128;
       }
       to {
       stroke: black;
       stroke-width: 1024;
       }
       }
       #make-me-a-hanzi-animation-6 {
         animation: keyframes6 1.137044s both;
         animation-delay: 4.836589s;
         animation-timing-function: linear;
       }
    @keyframes keyframes7 {
      from {
       stroke: black;
       stroke-dashoffset: 1409;
       stroke-width: 128;
       }
       82% {
       animation-timing-function: step-end;
       stroke: black;
       stroke-dashoffset: 0;
       stroke-width: 128;
       }
       to {
       stroke: black;
       stroke-width: 1024;
       }
       }
       #make-me-a-hanzi-animation-7 {
         animation: keyframes7 1.396647s both;
         animation-delay: 5.973633s;
         animation-timing-function: linear;
       }
    @keyframes keyframes8 {
      from {
       stroke: black;
       stroke-dashoffset: 515;
       stroke-width: 128;
       }
       63% {
       animation-timing-function: step-end;
       stroke: black;
       stroke-dashoffset: 0;
       stroke-width: 128;
       }
       to {
       stroke: black;
       stroke-width: 1024;
       }
       }
       #make-me-a-hanzi-animation-8 {
         animation: keyframes8 0.669108s both;
         animation-delay: 7.370280s;
         animation-timing-function: linear;
       }
    @keyframes keyframes9 {
      from {
       stroke: black;
       stroke-dashoffset: 524;
       stroke-width: 128;
       }
       63% {
       animation-timing-function: step-end;
       stroke: black;
       stroke-dashoffset: 0;
       stroke-width: 128;
       }
       to {
       stroke: black;
       stroke-width: 1024;
       }
       }
       #make-me-a-hanzi-animation-9 {
         animation: keyframes9 0.676432s both;
         animation-delay: 8.039388s;
         animation-timing-function: linear;
       }
</style>
<path d="M 557.0 562.0 L 577.0 688.0 Q 581.0 704.0 583.0 714.0 Q 587.0 723.0 589.0 729.0 Q 593.0 739.0 575.0 754.0 Q 544.0 772.0 522.0 777.0 Q 507.0 781.0 500.0 773.0 Q 493.0 766.0 500.0 752.0 Q 512.0 736.0 513.0 723.0 Q 519.0 647.0 518.0 556.0 C 518.0 526.0 552.0 532.0 557.0 562.0 Z" fill="lightgray"></path> 
<path d="M 462.0 507.0 Q 529.0 525.0 603.0 535.0 Q 688.0 548.0 722.0 544.0 C 752.0 543.0 753.0 581.0 723.0 579.0 Q 635.0 575.0 557.0 562.0 L 518.0 556.0 Q 437.0 546.0 367.0 527.0 Q 346.0 523.0 352.0 548.0 Q 356.0 579.0 363.0 613.0 Q 367.0 635.0 358.0 650.0 Q 324.0 689.0 300.0 685.0 Q 290.0 681.0 297.0 662.0 Q 315.0 617.0 307.0 574.0 Q 300.0 532.0 283.0 514.0 Q 264.0 498.0 271.0 484.0 Q 281.0 468.0 297.0 458.0 Q 310.0 449.0 320.0 457.0 Q 338.0 478.0 432.0 499.0 L 462.0 507.0 Z" fill="lightgray"></path> 
<path d="M 722.0 544.0 Q 723.0 525.0 729.0 510.0 Q 736.0 494.0 749.0 503.0 Q 776.0 525.0 792.0 604.0 Q 811.0 655.0 821.0 663.0 Q 831.0 676.0 823.0 691.0 Q 807.0 709.0 778.0 732.0 Q 766.0 741.0 754.0 736.0 Q 747.0 733.0 747.0 720.0 Q 756.0 708.0 751.0 646.0 Q 741.0 609.0 728.0 587.0 Q 725.0 584.0 723.0 579.0 L 722.0 544.0 Z" fill="lightgray"></path> 
<path d="M 368.0 290.0 L 444.0 369.0 L 462.0 390.0 Q 484.0 418.0 504.0 430.0 Q 514.0 437.0 511.0 451.0 Q 510.0 464.0 487.0 489.0 Q 474.0 502.0 462.0 507.0 C 436.0 522.0 425.0 528.0 432.0 499.0 Q 433.0 496.0 434.0 492.0 Q 441.0 465.0 429.0 445.0 Q 389.0 376.0 334.0 316.0 Q 280.0 258.0 211.0 195.0 Q 201.0 188.0 197.0 182.0 Q 193.0 172.0 205.0 172.0 Q 238.0 178.0 358.0 282.0 L 368.0 290.0 Z" fill="lightgray"></path> 
<path d="M 444.0 369.0 Q 490.0 339.0 601.0 370.0 Q 637.0 382.0 649.0 374.0 Q 658.0 368.0 633.0 303.0 Q 552.0 51.0 271.0 -90.0 Q 261.0 -94.0 262.0 -100.0 Q 263.0 -104.0 271.0 -105.0 Q 298.0 -104.0 357.0 -81.0 Q 409.0 -62.0 463.0 -21.0 Q 527.0 25.0 588.0 102.0 Q 648.0 180.0 706.0 303.0 Q 725.0 334.0 754.0 354.0 Q 772.0 363.0 772.0 373.0 Q 772.0 388.0 739.0 407.0 Q 699.0 432.0 684.0 433.0 Q 671.0 433.0 658.0 424.0 Q 543.0 391.0 478.0 390.0 Q 469.0 391.0 462.0 390.0 C 432.0 390.0 416.0 380.0 444.0 369.0 Z" fill="lightgray"></path> 
<path d="M 358.0 282.0 Q 358.0 272.0 367.0 264.0 Q 407.0 224.0 456.0 166.0 Q 469.0 147.0 482.0 143.0 Q 489.0 142.0 497.0 150.0 Q 507.0 162.0 498.0 200.0 Q 494.0 234.0 430.0 265.0 Q 390.0 283.0 368.0 290.0 C 356.0 294.0 356.0 294.0 358.0 282.0 Z" fill="lightgray"></path> 
<path d="M 1510.5 697.5 L 1490.5 709.5 Q 1475.5 718.5 1469.5 719.5 Q 1420.5 733.5 1414.5 721.5 Q 1410.5 718.5 1412.5 706.5 L 1424.5 675.5 Q 1428.5 666.5 1432.5 634.5 Q 1434.5 584.5 1434.5 571.5 L 1431.5 447.5 Q 1430.5 387.5 1415.5 293.5 Q 1400.5 210.5 1369.5 153.5 Q 1338.5 96.5 1321.5 74.5 Q 1305.5 52.5 1281.5 27.5 Q 1257.5 1.5 1248.5 -5.5 L 1234.5 -19.5 Q 1224.5 -26.5 1226.5 -30.5 Q 1228.5 -35.5 1234.5 -34.5 Q 1241.5 -34.5 1245.5 -30.5 L 1266.5 -19.5 Q 1276.5 -14.5 1302.5 4.5 Q 1328.5 22.5 1340.5 33.5 Q 1358.5 47.5 1384.5 78.5 Q 1425.5 129.5 1450.5 203.5 Q 1463.5 241.5 1463.5 244.5 L 1474.5 291.5 L 1480.5 322.5 L 1485.5 383.5 L 1490.5 473.5 L 1490.5 502.5 L 1493.5 579.5 Q 1493.5 608.5 1497.5 620.5 L 1509.5 653.5 Q 1512.5 657.5 1514.5 665.5 C 1523.5 689.5 1523.5 689.5 1510.5 697.5 Z" fill="lightgray"></path> 
<path d="M 1756.5 325.5 L 1750.5 131.5 L 1747.5 73.5 Q 1744.5 37.5 1723.5 30.5 Q 1717.5 26.5 1687.5 31.5 L 1617.5 45.5 Q 1607.5 47.5 1605.5 41.5 Q 1603.5 35.5 1611.5 30.5 L 1653.5 1.5 Q 1702.5 -38.5 1716.5 -52.5 Q 1736.5 -77.5 1748.5 -76.5 Q 1761.5 -75.5 1775.5 -57.5 Q 1789.5 -40.5 1800.5 -17.5 Q 1811.5 5.5 1815.5 73.5 L 1814.5 179.5 L 1819.5 565.5 Q 1819.5 622.5 1823.5 639.5 Q 1825.5 657.5 1836.5 677.5 Q 1847.5 696.5 1845.5 702.5 Q 1843.5 708.5 1837.5 713.5 Q 1831.5 718.5 1802.5 736.5 Q 1773.5 753.5 1759.5 753.5 Q 1746.5 753.5 1722.5 744.5 Q 1699.5 735.5 1670.5 727.5 Q 1642.5 719.5 1636.5 719.5 L 1510.5 697.5 C 1480.5 692.5 1485.5 659.5 1514.5 665.5 L 1552.5 673.5 Q 1577.5 679.5 1621.5 685.5 L 1692.5 695.5 Q 1736.5 700.5 1749.5 687.5 Q 1755.5 680.5 1756.5 659.5 L 1758.5 637.5 L 1757.5 524.5 L 1758.5 499.5 L 1756.5 339.5 L 1756.5 325.5 Z" fill="lightgray"></path> 
<path d="M 1490.5 473.5 L 1517.5 467.5 Q 1541.5 462.5 1615.5 476.5 L 1758.5 499.5 C 1788.5 504.5 1785.5 513.5 1757.5 524.5 L 1740.5 531.5 L 1723.5 536.5 Q 1710.5 540.5 1692.5 540.5 L 1490.5 502.5 C 1461.5 496.5 1461.5 480.5 1490.5 473.5 Z" fill="lightgray"></path> 
<path d="M 1526.5 283.5 L 1546.5 285.5 L 1586.5 293.5 L 1661.5 305.5 L 1712.5 311.5 Q 1734.5 313.5 1744.5 319.5 Q 1755.5 325.5 1756.5 325.5 C 1772.5 333.5 1772.5 333.5 1756.5 339.5 L 1733.5 348.5 Q 1703.5 357.5 1686.5 358.5 Q 1669.5 358.5 1640.5 350.5 Q 1611.5 342.5 1592.5 339.5 L 1560.5 334.5 Q 1526.5 328.5 1480.5 322.5 C 1450.5 318.5 1445.5 299.5 1474.5 291.5 L 1497.5 285.5 Q 1512.5 282.5 1526.5 283.5 Z" fill="lightgray"></path> 
      <clipPath id="make-me-a-hanzi-clip-0">
      <path d="M 557.0 562.0 L 577.0 688.0 Q 581.0 704.0 583.0 714.0 Q 587.0 723.0 589.0 729.0 Q 593.0 739.0 575.0 754.0 Q 544.0 772.0 522.0 777.0 Q 507.0 781.0 500.0 773.0 Q 493.0 766.0 500.0 752.0 Q 512.0 736.0 513.0 723.0 Q 519.0 647.0 518.0 556.0 C 518.0 526.0 552.0 532.0 557.0 562.0 Z" fill="lightgray"></path>
      </clipPath>
      <path clip-path="url(#make-me-a-hanzi-clip-0)" d="M 511.0 763.0 L 549.0 727.0 L 540.0 589.0 L 523.0 564.0 " fill="none" id="make-me-a-hanzi-animation-0" stroke-dasharray="349 698" stroke-linecap="round"></path>

      <clipPath id="make-me-a-hanzi-clip-1">
      <path d="M 462.0 507.0 Q 529.0 525.0 603.0 535.0 Q 688.0 548.0 722.0 544.0 C 752.0 543.0 753.0 581.0 723.0 579.0 Q 635.0 575.0 557.0 562.0 L 518.0 556.0 Q 437.0 546.0 367.0 527.0 Q 346.0 523.0 352.0 548.0 Q 356.0 579.0 363.0 613.0 Q 367.0 635.0 358.0 650.0 Q 324.0 689.0 300.0 685.0 Q 290.0 681.0 297.0 662.0 Q 315.0 617.0 307.0 574.0 Q 300.0 532.0 283.0 514.0 Q 264.0 498.0 271.0 484.0 Q 281.0 468.0 297.0 458.0 Q 310.0 449.0 320.0 457.0 Q 338.0 478.0 432.0 499.0 L 462.0 507.0 Z" fill="lightgray"></path>
      </clipPath>
      <path clip-path="url(#make-me-a-hanzi-clip-1)" d="M 305.0 675.0 L 335.0 634.0 L 324.0 505.0 L 375.0 506.0 L 553.0 545.0 L 654.0 559.0 L 700.0 562.0 L 718.0 550.0 " fill="none" id="make-me-a-hanzi-animation-1" stroke-dasharray="711 1422" stroke-linecap="round"></path>

      <clipPath id="make-me-a-hanzi-clip-2">
      <path d="M 722.0 544.0 Q 723.0 525.0 729.0 510.0 Q 736.0 494.0 749.0 503.0 Q 776.0 525.0 792.0 604.0 Q 811.0 655.0 821.0 663.0 Q 831.0 676.0 823.0 691.0 Q 807.0 709.0 778.0 732.0 Q 766.0 741.0 754.0 736.0 Q 747.0 733.0 747.0 720.0 Q 756.0 708.0 751.0 646.0 Q 741.0 609.0 728.0 587.0 Q 725.0 584.0 723.0 579.0 L 722.0 544.0 Z" fill="lightgray"></path>
      </clipPath>
      <path clip-path="url(#make-me-a-hanzi-clip-2)" d="M 762.0 723.0 L 787.0 678.0 L 741.0 512.0 " fill="none" id="make-me-a-hanzi-animation-2" stroke-dasharray="352 704" stroke-linecap="round"></path>

      <clipPath id="make-me-a-hanzi-clip-3">
      <path d="M 368.0 290.0 L 444.0 369.0 L 462.0 390.0 Q 484.0 418.0 504.0 430.0 Q 514.0 437.0 511.0 451.0 Q 510.0 464.0 487.0 489.0 Q 474.0 502.0 462.0 507.0 C 436.0 522.0 425.0 528.0 432.0 499.0 Q 433.0 496.0 434.0 492.0 Q 441.0 465.0 429.0 445.0 Q 389.0 376.0 334.0 316.0 Q 280.0 258.0 211.0 195.0 Q 201.0 188.0 197.0 182.0 Q 193.0 172.0 205.0 172.0 Q 238.0 178.0 358.0 282.0 L 368.0 290.0 Z" fill="lightgray"></path>
      </clipPath>
      <path clip-path="url(#make-me-a-hanzi-clip-3)" d="M 440.0 498.0 L 459.0 483.0 L 471.0 451.0 L 446.0 415.0 L 319.0 270.0 L 247.0 208.0 L 205.0 180.0 " fill="none" id="make-me-a-hanzi-animation-3" stroke-dasharray="568 1136" stroke-linecap="round"></path>

      <clipPath id="make-me-a-hanzi-clip-4">
      <path d="M 444.0 369.0 Q 490.0 339.0 601.0 370.0 Q 637.0 382.0 649.0 374.0 Q 658.0 368.0 633.0 303.0 Q 552.0 51.0 271.0 -90.0 Q 261.0 -94.0 262.0 -100.0 Q 263.0 -104.0 271.0 -105.0 Q 298.0 -104.0 357.0 -81.0 Q 409.0 -62.0 463.0 -21.0 Q 527.0 25.0 588.0 102.0 Q 648.0 180.0 706.0 303.0 Q 725.0 334.0 754.0 354.0 Q 772.0 363.0 772.0 373.0 Q 772.0 388.0 739.0 407.0 Q 699.0 432.0 684.0 433.0 Q 671.0 433.0 658.0 424.0 Q 543.0 391.0 478.0 390.0 Q 469.0 391.0 462.0 390.0 C 432.0 390.0 416.0 380.0 444.0 369.0 Z" fill="lightgray"></path>
      </clipPath>
      <path clip-path="url(#make-me-a-hanzi-clip-4)" d="M 452.0 371.0 L 529.0 374.0 L 655.0 399.0 L 684.0 392.0 L 700.0 373.0 L 617.0 192.0 L 572.0 123.0 L 520.0 61.0 L 406.0 -35.0 L 326.0 -79.0 L 269.0 -97.0 " fill="none" id="make-me-a-hanzi-animation-4" stroke-dasharray="1051 2102" stroke-linecap="round"></path>

      <clipPath id="make-me-a-hanzi-clip-5">
      <path d="M 358.0 282.0 Q 358.0 272.0 367.0 264.0 Q 407.0 224.0 456.0 166.0 Q 469.0 147.0 482.0 143.0 Q 489.0 142.0 497.0 150.0 Q 507.0 162.0 498.0 200.0 Q 494.0 234.0 430.0 265.0 Q 390.0 283.0 368.0 290.0 C 356.0 294.0 356.0 294.0 358.0 282.0 Z" fill="lightgray"></path>
      </clipPath>
      <path clip-path="url(#make-me-a-hanzi-clip-5)" d="M 368.0 279.0 L 453.0 216.0 L 466.0 202.0 L 483.0 157.0 " fill="none" id="make-me-a-hanzi-animation-5" stroke-dasharray="301 602" stroke-linecap="round"></path>

      <clipPath id="make-me-a-hanzi-clip-6">
      <path d="M 1510.5 697.5 L 1490.5 709.5 Q 1475.5 718.5 1469.5 719.5 Q 1420.5 733.5 1414.5 721.5 Q 1410.5 718.5 1412.5 706.5 L 1424.5 675.5 Q 1428.5 666.5 1432.5 634.5 Q 1434.5 584.5 1434.5 571.5 L 1431.5 447.5 Q 1430.5 387.5 1415.5 293.5 Q 1400.5 210.5 1369.5 153.5 Q 1338.5 96.5 1321.5 74.5 Q 1305.5 52.5 1281.5 27.5 Q 1257.5 1.5 1248.5 -5.5 L 1234.5 -19.5 Q 1224.5 -26.5 1226.5 -30.5 Q 1228.5 -35.5 1234.5 -34.5 Q 1241.5 -34.5 1245.5 -30.5 L 1266.5 -19.5 Q 1276.5 -14.5 1302.5 4.5 Q 1328.5 22.5 1340.5 33.5 Q 1358.5 47.5 1384.5 78.5 Q 1425.5 129.5 1450.5 203.5 Q 1463.5 241.5 1463.5 244.5 L 1474.5 291.5 L 1480.5 322.5 L 1485.5 383.5 L 1490.5 473.5 L 1490.5 502.5 L 1493.5 579.5 Q 1493.5 608.5 1497.5 620.5 L 1509.5 653.5 Q 1512.5 657.5 1514.5 665.5 C 1523.5 689.5 1523.5 689.5 1510.5 697.5 Z" fill="lightgray"></path>
      </clipPath>
      <path clip-path="url(#make-me-a-hanzi-clip-6)" d="M 1426.5 712.5 L 1452.5 692.5 L 1469.5 668.5 L 1456.5 378.5 L 1433.5 240.5 L 1403.5 159.5 L 1359.5 86.5 L 1274.5 -0.5 L 1233.5 -26.5 " fill="none" id="make-me-a-hanzi-animation-6" stroke-dasharray="962 1924" stroke-linecap="round"></path>

      <clipPath id="make-me-a-hanzi-clip-7">
      <path d="M 1756.5 325.5 L 1750.5 131.5 L 1747.5 73.5 Q 1744.5 37.5 1723.5 30.5 Q 1717.5 26.5 1687.5 31.5 L 1617.5 45.5 Q 1607.5 47.5 1605.5 41.5 Q 1603.5 35.5 1611.5 30.5 L 1653.5 1.5 Q 1702.5 -38.5 1716.5 -52.5 Q 1736.5 -77.5 1748.5 -76.5 Q 1761.5 -75.5 1775.5 -57.5 Q 1789.5 -40.5 1800.5 -17.5 Q 1811.5 5.5 1815.5 73.5 L 1814.5 179.5 L 1819.5 565.5 Q 1819.5 622.5 1823.5 639.5 Q 1825.5 657.5 1836.5 677.5 Q 1847.5 696.5 1845.5 702.5 Q 1843.5 708.5 1837.5 713.5 Q 1831.5 718.5 1802.5 736.5 Q 1773.5 753.5 1759.5 753.5 Q 1746.5 753.5 1722.5 744.5 Q 1699.5 735.5 1670.5 727.5 Q 1642.5 719.5 1636.5 719.5 L 1510.5 697.5 C 1480.5 692.5 1485.5 659.5 1514.5 665.5 L 1552.5 673.5 Q 1577.5 679.5 1621.5 685.5 L 1692.5 695.5 Q 1736.5 700.5 1749.5 687.5 Q 1755.5 680.5 1756.5 659.5 L 1758.5 637.5 L 1757.5 524.5 L 1758.5 499.5 L 1756.5 339.5 L 1756.5 325.5 Z" fill="lightgray"></path>
      </clipPath>
      <path clip-path="url(#make-me-a-hanzi-clip-7)" d="M 1519.5 671.5 L 1536.5 687.5 L 1724.5 720.5 L 1759.5 720.5 L 1777.5 710.5 L 1795.5 689.5 L 1788.5 601.5 L 1781.5 65.5 L 1774.5 30.5 L 1761.5 2.5 L 1746.5 -13.5 L 1708.5 -3.5 L 1613.5 38.5 " fill="none" id="make-me-a-hanzi-animation-7" stroke-dasharray="1281 2562" stroke-linecap="round"></path>

      <clipPath id="make-me-a-hanzi-clip-8">
      <path d="M 1490.5 473.5 L 1517.5 467.5 Q 1541.5 462.5 1615.5 476.5 L 1758.5 499.5 C 1788.5 504.5 1785.5 513.5 1757.5 524.5 L 1740.5 531.5 L 1723.5 536.5 Q 1710.5 540.5 1692.5 540.5 L 1490.5 502.5 C 1461.5 496.5 1461.5 480.5 1490.5 473.5 Z" fill="lightgray"></path>
      </clipPath>
      <path clip-path="url(#make-me-a-hanzi-clip-8)" d="M 1499.5 495.5 L 1508.5 487.5 L 1540.5 488.5 L 1699.5 515.5 L 1741.5 513.5 L 1750.5 505.5 " fill="none" id="make-me-a-hanzi-animation-8" stroke-dasharray="387 774" stroke-linecap="round"></path>

      <clipPath id="make-me-a-hanzi-clip-9">
      <path d="M 1526.5 283.5 L 1546.5 285.5 L 1586.5 293.5 L 1661.5 305.5 L 1712.5 311.5 Q 1734.5 313.5 1744.5 319.5 Q 1755.5 325.5 1756.5 325.5 C 1772.5 333.5 1772.5 333.5 1756.5 339.5 L 1733.5 348.5 Q 1703.5 357.5 1686.5 358.5 Q 1669.5 358.5 1640.5 350.5 Q 1611.5 342.5 1592.5 339.5 L 1560.5 334.5 Q 1526.5 328.5 1480.5 322.5 C 1450.5 318.5 1445.5 299.5 1474.5 291.5 L 1497.5 285.5 Q 1512.5 282.5 1526.5 283.5 Z" fill="lightgray"></path>
      </clipPath>
      <path clip-path="url(#make-me-a-hanzi-clip-9)" d="M 1482.5 298.5 L 1670.5 332.5 L 1747.5 332.5 " fill="none" id="make-me-a-hanzi-animation-9" stroke-dasharray="396 792" stroke-linecap="round"></path>

</g>
</svg>
