<svg version="1.1" viewBox="0 0 2048 1024" xmlns="http://www.w3.org/2000/svg">
  <g stroke="lightgray" stroke-dasharray="1,1" stroke-width="1" transform="scale(4, 4)">
    <line x1="0" y1="0" x2="256" y2="256"></line>
    <line x1="256" y1="0" x2="0" y2="256"></line>
    <line x1="128" y1="0" x2="128" y2="256"></line>
    <line x1="0" y1="128" x2="256" y2="128"></line>
    <line x1="256" y1="0" x2="512" y2="256"></line>
    <line x1="512" y1="0" x2="256" y2="256"></line>
    <line x1="384" y1="0" x2="384" y2="256"></line>
    <line x1="256" y1="128" x2="512" y2="128"></line>
  </g>
<g transform="scale(1, -1) translate(0, -850)">
   <style type="text/css">
    @keyframes keyframes0 {
      from {
       stroke: black;
       stroke-dashoffset: 681;
       stroke-width: 128;
       }
       69% {
       animation-timing-function: step-end;
       stroke: black;
       stroke-dashoffset: 0;
       stroke-width: 128;
       }
       to {
       stroke: black;
       stroke-width: 1024;
       }
       }
       #make-me-a-hanzi-animation-0 {
         animation: keyframes0 0.804199s both;
         animation-delay: 0.000000s;
         animation-timing-function: linear;
       }
    @keyframes keyframes1 {
      from {
       stroke: black;
       stroke-dashoffset: 604;
       stroke-width: 128;
       }
       66% {
       animation-timing-function: step-end;
       stroke: black;
       stroke-dashoffset: 0;
       stroke-width: 128;
       }
       to {
       stroke: black;
       stroke-width: 1024;
       }
       }
       #make-me-a-hanzi-animation-1 {
         animation: keyframes1 0.741536s both;
         animation-delay: 0.804199s;
         animation-timing-function: linear;
       }
    @keyframes keyframes2 {
      from {
       stroke: black;
       stroke-dashoffset: 981;
       stroke-width: 128;
       }
       76% {
       animation-timing-function: step-end;
       stroke: black;
       stroke-dashoffset: 0;
       stroke-width: 128;
       }
       to {
       stroke: black;
       stroke-width: 1024;
       }
       }
       #make-me-a-hanzi-animation-2 {
         animation: keyframes2 1.048340s both;
         animation-delay: 1.545735s;
         animation-timing-function: linear;
       }
    @keyframes keyframes3 {
      from {
       stroke: black;
       stroke-dashoffset: 1150;
       stroke-width: 128;
       }
       79% {
       animation-timing-function: step-end;
       stroke: black;
       stroke-dashoffset: 0;
       stroke-width: 128;
       }
       to {
       stroke: black;
       stroke-width: 1024;
       }
       }
       #make-me-a-hanzi-animation-3 {
         animation: keyframes3 1.185872s both;
         animation-delay: 2.594075s;
         animation-timing-function: linear;
       }
    @keyframes keyframes4 {
      from {
       stroke: black;
       stroke-dashoffset: 776;
       stroke-width: 128;
       }
       72% {
       animation-timing-function: step-end;
       stroke: black;
       stroke-dashoffset: 0;
       stroke-width: 128;
       }
       to {
       stroke: black;
       stroke-width: 1024;
       }
       }
       #make-me-a-hanzi-animation-4 {
         animation: keyframes4 0.881510s both;
         animation-delay: 3.779947s;
         animation-timing-function: linear;
       }
    @keyframes keyframes5 {
      from {
       stroke: black;
       stroke-dashoffset: 739;
       stroke-width: 128;
       }
       71% {
       animation-timing-function: step-end;
       stroke: black;
       stroke-dashoffset: 0;
       stroke-width: 128;
       }
       to {
       stroke: black;
       stroke-width: 1024;
       }
       }
       #make-me-a-hanzi-animation-5 {
         animation: keyframes5 0.851400s both;
         animation-delay: 4.661457s;
         animation-timing-function: linear;
       }
    @keyframes keyframes6 {
      from {
       stroke: black;
       stroke-dashoffset: 463;
       stroke-width: 128;
       }
       60% {
       animation-timing-function: step-end;
       stroke: black;
       stroke-dashoffset: 0;
       stroke-width: 128;
       }
       to {
       stroke: black;
       stroke-width: 1024;
       }
       }
       #make-me-a-hanzi-animation-6 {
         animation: keyframes6 0.626790s both;
         animation-delay: 5.512857s;
         animation-timing-function: linear;
       }
    @keyframes keyframes7 {
      from {
       stroke: black;
       stroke-dashoffset: 1051;
       stroke-width: 128;
       }
       77% {
       animation-timing-function: step-end;
       stroke: black;
       stroke-dashoffset: 0;
       stroke-width: 128;
       }
       to {
       stroke: black;
       stroke-width: 1024;
       }
       }
       #make-me-a-hanzi-animation-7 {
         animation: keyframes7 1.105306s both;
         animation-delay: 6.139647s;
         animation-timing-function: linear;
       }
    @keyframes keyframes8 {
      from {
       stroke: black;
       stroke-dashoffset: 385;
       stroke-width: 128;
       }
       56% {
       animation-timing-function: step-end;
       stroke: black;
       stroke-dashoffset: 0;
       stroke-width: 128;
       }
       to {
       stroke: black;
       stroke-width: 1024;
       }
       }
       #make-me-a-hanzi-animation-8 {
         animation: keyframes8 0.563314s both;
         animation-delay: 7.244953s;
         animation-timing-function: linear;
       }
    @keyframes keyframes9 {
      from {
       stroke: black;
       stroke-dashoffset: 565;
       stroke-width: 128;
       }
       65% {
       animation-timing-function: step-end;
       stroke: black;
       stroke-dashoffset: 0;
       stroke-width: 128;
       }
       to {
       stroke: black;
       stroke-width: 1024;
       }
       }
       #make-me-a-hanzi-animation-9 {
         animation: keyframes9 0.709798s both;
         animation-delay: 7.808267s;
         animation-timing-function: linear;
       }
    @keyframes keyframes10 {
      from {
       stroke: black;
       stroke-dashoffset: 601;
       stroke-width: 128;
       }
       66% {
       animation-timing-function: step-end;
       stroke: black;
       stroke-dashoffset: 0;
       stroke-width: 128;
       }
       to {
       stroke: black;
       stroke-width: 1024;
       }
       }
       #make-me-a-hanzi-animation-10 {
         animation: keyframes10 0.739095s both;
         animation-delay: 8.518065s;
         animation-timing-function: linear;
       }
    @keyframes keyframes11 {
      from {
       stroke: black;
       stroke-dashoffset: 593;
       stroke-width: 128;
       }
       66% {
       animation-timing-function: step-end;
       stroke: black;
       stroke-dashoffset: 0;
       stroke-width: 128;
       }
       to {
       stroke: black;
       stroke-width: 1024;
       }
       }
       #make-me-a-hanzi-animation-11 {
         animation: keyframes11 0.732585s both;
         animation-delay: 9.257160s;
         animation-timing-function: linear;
       }
    @keyframes keyframes12 {
      from {
       stroke: black;
       stroke-dashoffset: 924;
       stroke-width: 128;
       }
       75% {
       animation-timing-function: step-end;
       stroke: black;
       stroke-dashoffset: 0;
       stroke-width: 128;
       }
       to {
       stroke: black;
       stroke-width: 1024;
       }
       }
       #make-me-a-hanzi-animation-12 {
         animation: keyframes12 1.001953s both;
         animation-delay: 9.989745s;
         animation-timing-function: linear;
       }
    @keyframes keyframes13 {
      from {
       stroke: black;
       stroke-dashoffset: 842;
       stroke-width: 128;
       }
       73% {
       animation-timing-function: step-end;
       stroke: black;
       stroke-dashoffset: 0;
       stroke-width: 128;
       }
       to {
       stroke: black;
       stroke-width: 1024;
       }
       }
       #make-me-a-hanzi-animation-13 {
         animation: keyframes13 0.935221s both;
         animation-delay: 10.991698s;
         animation-timing-function: linear;
       }
</style>
<path d="M 590.5 643.0 L 600.5 673.0 Q 604.5 683.0 614.5 706.0 Q 624.5 729.0 632.5 737.0 L 648.5 754.0 Q 652.5 761.0 652.5 765.0 Q 651.5 769.0 644.5 776.0 Q 638.5 783.0 621.5 791.0 Q 605.5 799.0 591.5 803.0 Q 581.5 805.0 573.5 805.0 L 568.5 805.0 Q 563.5 804.0 547.5 797.0 Q 532.5 791.0 494.5 781.0 Q 456.5 772.0 435.5 768.0 Q 415.5 764.0 386.5 760.0 Q 358.5 756.0 337.5 755.0 L 303.5 752.0 Q 293.5 751.0 292.5 749.0 Q 291.5 748.0 291.5 747.0 Q 291.5 745.0 294.5 741.0 Q 298.5 734.0 312.5 727.0 Q 324.5 719.0 330.5 719.0 Q 332.5 718.0 336.5 718.0 Q 339.5 718.0 344.5 719.0 L 372.5 724.0 L 476.5 741.0 L 534.5 749.0 Q 542.5 751.0 546.5 751.0 Q 550.5 751.0 552.5 750.0 Q 553.5 749.0 555.5 746.0 L 557.5 740.0 Q 557.5 737.0 555.5 729.0 Q 553.5 721.0 550.5 702.0 Q 547.5 683.0 538.5 655.0 C 529.5 626.0 581.5 615.0 590.5 643.0 Z" fill="lightgray"></path> 
<path d="M 334.5 584.0 L 404.5 594.0 Q 440.5 599.0 498.5 603.0 L 562.5 608.0 Q 603.5 611.0 607.5 613.0 Q 611.5 615.0 613.5 619.0 L 613.5 620.0 Q 613.5 624.0 604.5 632.0 L 590.5 643.0 C 568.5 660.0 568.5 660.0 538.5 655.0 L 426.5 636.0 Q 380.5 628.0 337.5 624.0 L 272.5 617.0 Q 258.5 616.0 256.5 611.0 Q 255.5 610.0 255.5 608.0 Q 255.5 605.0 258.5 600.0 Q 262.5 593.0 274.5 587.0 L 334.5 584.0 Z" fill="lightgray"></path> 
<path d="M 274.5 587.0 L 279.5 573.0 Q 282.5 565.0 282.5 545.0 Q 282.5 543.0 280.5 512.0 Q 279.5 497.0 279.5 485.0 Q 279.5 474.0 280.5 467.0 Q 282.5 443.0 289.5 430.0 Q 297.5 417.0 314.5 405.0 Q 332.5 393.0 367.5 387.0 Q 403.5 381.0 444.5 379.0 Q 472.5 378.0 494.5 378.0 L 515.5 378.0 Q 560.5 378.0 598.5 382.0 Q 636.5 385.0 664.5 391.0 Q 692.5 397.0 722.5 407.0 Q 750.5 417.0 769.5 431.0 Q 787.5 445.0 790.5 455.0 Q 791.5 458.0 791.5 461.0 Q 791.5 467.0 788.5 474.0 L 774.5 499.0 Q 766.5 515.0 761.5 539.0 L 756.5 567.0 Q 751.5 588.0 746.5 588.0 L 745.5 588.0 Q 740.5 587.0 739.5 582.0 L 732.5 541.0 Q 729.5 521.0 722.5 503.0 Q 714.5 487.0 702.5 476.0 Q 690.5 465.0 663.5 457.0 Q 636.5 449.0 604.5 445.0 Q 574.5 441.0 509.5 439.0 L 430.5 439.0 Q 404.5 441.0 377.5 444.0 Q 351.5 447.0 341.5 453.0 Q 330.5 458.0 327.5 465.0 Q 324.5 471.0 324.5 484.0 L 324.5 491.0 L 326.5 523.0 Q 326.5 537.0 329.5 545.0 Q 331.5 553.0 334.5 558.0 L 338.5 564.0 Q 340.5 569.0 340.5 573.0 Q 339.5 577.0 334.5 584.0 C 329.5 614.0 265.5 616.0 274.5 587.0 Z" fill="lightgray"></path> 
<path d="M 636.5 219.0 L 656.5 220.0 L 749.5 223.0 L 924.5 223.0 Q 950.5 223.0 956.5 228.0 Q 966.5 235.0 966.5 240.0 L 966.5 241.0 Q 966.5 246.0 960.5 251.0 Q 954.5 258.0 934.5 270.0 Q 913.5 283.0 900.5 288.0 Q 887.5 293.0 874.5 293.0 Q 870.5 293.0 851.5 289.0 Q 832.5 285.0 816.5 283.0 Q 799.5 282.0 756.5 277.0 Q 712.5 271.0 681.5 269.0 Q 649.5 267.0 640.5 267.0 L 576.5 261.0 L 541.5 257.0 L 436.5 248.0 Q 414.5 245.0 409.5 245.0 Q 403.5 245.0 386.5 243.0 L 329.5 239.0 L 267.5 233.0 Q 241.5 231.0 203.5 228.0 Q 165.5 225.0 88.5 221.0 L 72.5 219.0 Q 62.5 219.0 58.5 214.0 Q 57.5 212.0 57.5 209.0 Q 57.5 207.0 58.5 204.0 Q 60.5 199.0 70.5 191.0 Q 80.5 183.0 94.5 175.0 Q 108.5 167.0 117.5 163.0 Q 126.5 159.0 134.5 159.0 Q 142.5 159.0 160.5 165.0 Q 178.5 171.0 194.5 175.0 Q 210.5 179.0 239.5 184.0 Q 268.5 189.0 289.5 191.0 Q 310.5 193.0 324.5 195.0 L 380.5 201.0 L 410.5 203.0 Q 426.5 205.0 483.5 210.0 Q 540.5 215.0 548.5 215.0 Q 557.5 215.0 574.5 216.0 L 636.5 219.0 Z" fill="lightgray"></path> 
<path d="M 386.5 243.0 L 392.5 277.0 Q 394.5 289.0 399.5 299.0 L 405.5 311.0 Q 405.5 317.0 396.5 325.0 Q 387.5 333.0 374.5 337.0 Q 362.5 341.0 349.5 343.0 Q 336.5 345.0 327.5 345.0 Q 318.5 343.0 315.5 341.0 Q 313.5 338.0 313.5 334.0 L 313.5 332.0 Q 313.5 327.0 318.5 316.0 Q 324.5 305.0 326.5 294.0 Q 328.5 284.0 329.5 268.0 L 329.5 239.0 L 324.5 195.0 L 318.5 161.0 Q 318.5 155.0 310.5 130.0 Q 302.5 106.0 289.5 77.0 Q 276.5 48.0 262.5 29.0 Q 248.5 11.0 230.5 -8.0 Q 212.5 -27.0 199.5 -37.0 Q 186.5 -47.0 166.5 -61.0 L 152.5 -71.0 Q 142.5 -77.0 141.5 -82.0 L 141.5 -84.0 Q 141.5 -87.0 144.5 -87.0 Q 145.5 -88.0 147.5 -88.0 Q 151.5 -88.0 156.5 -85.0 L 177.5 -79.0 Q 192.5 -73.0 213.5 -62.0 Q 234.5 -51.0 254.5 -35.0 Q 274.5 -20.0 296.5 7.0 Q 318.5 33.0 334.5 60.0 Q 349.5 87.0 358.5 113.0 Q 368.5 140.0 371.5 156.0 Q 374.5 171.0 376.5 180.0 Q 378.5 188.0 380.5 201.0 L 386.5 243.0 Z" fill="lightgray"></path> 
<path d="M 640.5 267.0 L 642.5 285.0 L 645.5 297.0 Q 648.5 305.0 650.5 309.0 Q 653.5 319.0 653.5 324.0 L 653.5 327.0 Q 652.5 333.0 643.5 339.0 Q 633.5 345.0 620.5 350.0 Q 606.5 355.0 592.5 358.0 Q 583.5 360.0 577.5 360.0 Q 573.5 360.0 570.5 359.0 Q 563.5 357.0 561.5 351.0 Q 560.5 349.0 560.5 346.0 Q 560.5 342.0 562.5 336.0 L 570.5 316.0 Q 572.5 307.0 573.5 294.0 Q 574.5 280.0 575.5 275.0 Q 575.5 269.0 576.5 261.0 L 574.5 216.0 L 572.5 25.0 L 572.5 -35.0 L 575.5 -76.0 Q 576.5 -89.0 578.5 -103.0 Q 580.5 -116.0 584.5 -123.0 Q 588.5 -129.0 592.5 -129.0 Q 595.5 -129.0 600.5 -123.0 Q 604.5 -118.0 608.5 -108.0 Q 612.5 -98.0 616.5 -85.0 Q 619.5 -73.0 623.5 -47.0 Q 628.5 -21.0 629.5 0.0 Q 630.5 21.0 632.5 68.0 L 636.5 213.0 L 636.5 219.0 L 640.5 267.0 Z" fill="lightgray"></path> 
<path d="M 1182.5 394.5 Q 1180.5 407.5 1179.5 428.5 Q 1174.5 445.5 1167.5 462.5 Q 1153.5 481.5 1149.5 455.5 Q 1147.5 441.5 1139.5 418.5 Q 1132.5 395.5 1129.5 390.5 L 1117.5 366.5 L 1090.5 329.5 Q 1087.5 325.5 1087.5 306.5 L 1089.5 278.5 Q 1092.5 266.5 1101.5 252.5 Q 1111.5 238.5 1119.5 240.5 Q 1129.5 240.5 1137.5 248.5 Q 1166.5 289.5 1179.5 351.5 Q 1182.5 376.5 1182.5 394.5 Z" fill="lightgray"></path> 
<path d="M 1294.5 40.5 L 1308.5 497.5 L 1311.5 518.5 L 1318.5 610.5 Q 1320.5 658.5 1332.5 679.5 L 1327.5 692.5 Q 1323.5 703.5 1301.5 717.5 Q 1279.5 731.5 1263.5 737.5 Q 1248.5 742.5 1240.5 735.5 Q 1233.5 727.5 1235.5 721.5 L 1243.5 703.5 Q 1248.5 691.5 1247.5 688.5 L 1255.5 639.5 Q 1259.5 607.5 1259.5 581.5 L 1258.5 480.5 L 1248.5 258.5 Q 1246.5 169.5 1235.5 103.5 L 1225.5 40.5 Q 1216.5 4.5 1232.5 -30.5 Q 1248.5 -66.5 1260.5 -66.5 L 1269.5 -59.5 Q 1285.5 -42.5 1288.5 -20.5 Q 1292.5 1.5 1294.5 40.5 Z" fill="lightgray"></path> 
<path d="M 1308.5 497.5 L 1376.5 416.5 Q 1387.5 404.5 1398.5 404.5 Q 1409.5 403.5 1413.5 408.5 Q 1419.5 418.5 1421.5 427.5 Q 1423.5 448.5 1422.5 454.5 Q 1421.5 460.5 1413.5 468.5 Q 1400.5 485.5 1367.5 499.5 L 1355.5 504.5 L 1311.5 518.5 C 1283.5 527.5 1289.5 520.5 1308.5 497.5 Z" fill="lightgray"></path> 
<path d="M 1534.5 430.5 L 1562.5 484.5 L 1580.5 514.5 Q 1585.5 520.5 1585.5 524.5 Q 1586.5 528.5 1577.5 542.5 Q 1569.5 552.5 1562.5 556.5 Q 1556.5 559.5 1535.5 572.5 Q 1514.5 580.5 1505.5 570.5 Q 1502.5 566.5 1504.5 549.5 Q 1506.5 531.5 1493.5 489.5 Q 1481.5 446.5 1475.5 431.5 L 1456.5 387.5 Q 1444.5 355.5 1433.5 336.5 L 1419.5 310.5 L 1410.5 296.5 Q 1410.5 292.5 1414.5 290.5 Q 1420.5 290.5 1431.5 300.5 L 1467.5 335.5 L 1498.5 374.5 L 1519.5 404.5 L 1534.5 430.5 Z" fill="lightgray"></path> 
<path d="M 1711.5 410.5 L 1765.5 416.5 L 1816.5 425.5 L 1853.5 433.5 Q 1875.5 436.5 1878.5 448.5 Q 1879.5 451.5 1872.5 458.5 Q 1866.5 465.5 1850.5 472.5 Q 1834.5 479.5 1829.5 480.5 Q 1824.5 481.5 1810.5 479.5 L 1775.5 468.5 L 1711.5 454.5 L 1650.5 445.5 L 1534.5 430.5 C 1504.5 426.5 1490.5 413.5 1519.5 404.5 L 1542.5 397.5 Q 1567.5 391.5 1590.5 394.5 L 1649.5 400.5 L 1711.5 410.5 Z" fill="lightgray"></path> 
<path d="M 1705.5 220.5 L 1816.5 234.5 Q 1859.5 241.5 1859.5 254.5 L 1857.5 258.5 L 1851.5 264.5 Q 1812.5 287.5 1751.5 272.5 Q 1725.5 267.5 1706.5 265.5 L 1649.5 256.5 L 1536.5 243.5 Q 1519.5 240.5 1512.5 238.5 Q 1509.5 236.5 1507.5 231.5 Q 1505.5 226.5 1516.5 219.5 Q 1527.5 211.5 1541.5 210.5 L 1574.5 208.5 Q 1593.5 208.5 1596.5 209.5 L 1647.5 215.5 L 1705.5 220.5 Z" fill="lightgray"></path> 
<path d="M 1704.5 68.5 L 1705.5 220.5 L 1706.5 265.5 L 1711.5 410.5 L 1711.5 454.5 L 1719.5 570.5 Q 1720.5 585.5 1726.5 628.5 L 1735.5 654.5 Q 1743.5 674.5 1741.5 683.5 Q 1737.5 691.5 1733.5 695.5 Q 1729.5 698.5 1711.5 708.5 Q 1693.5 717.5 1680.5 721.5 Q 1641.5 731.5 1634.5 724.5 Q 1631.5 723.5 1626.5 717.5 L 1624.5 710.5 Q 1623.5 707.5 1632.5 686.5 Q 1642.5 665.5 1648.5 616.5 L 1650.5 569.5 L 1650.5 445.5 L 1649.5 400.5 L 1649.5 256.5 L 1647.5 215.5 L 1647.5 63.5 C 1647.5 33.5 1704.5 38.5 1704.5 68.5 Z" fill="lightgray"></path> 
<path d="M 1855.5 82.5 L 1826.5 78.5 L 1704.5 68.5 L 1647.5 63.5 L 1441.5 44.5 L 1396.5 44.5 Q 1385.5 44.5 1383.5 39.5 Q 1381.5 33.5 1389.5 25.5 Q 1397.5 17.5 1408.5 12.5 L 1439.5 0.5 Q 1457.5 -4.5 1465.5 -4.5 Q 1473.5 -5.5 1513.5 4.5 Q 1553.5 13.5 1580.5 16.5 L 1639.5 20.5 L 1837.5 28.5 L 1905.5 26.5 L 1954.5 28.5 Q 1973.5 28.5 1978.5 34.5 Q 1983.5 40.5 1983.5 43.5 Q 1984.5 45.5 1977.5 52.5 Q 1971.5 62.5 1963.5 66.5 Q 1955.5 70.5 1933.5 78.5 Q 1912.5 86.5 1904.5 87.5 Q 1897.5 87.5 1855.5 82.5 Z" fill="lightgray"></path> 
      <clipPath id="make-me-a-hanzi-clip-0">
      <path d="M 590.5 643.0 L 600.5 673.0 Q 604.5 683.0 614.5 706.0 Q 624.5 729.0 632.5 737.0 L 648.5 754.0 Q 652.5 761.0 652.5 765.0 Q 651.5 769.0 644.5 776.0 Q 638.5 783.0 621.5 791.0 Q 605.5 799.0 591.5 803.0 Q 581.5 805.0 573.5 805.0 L 568.5 805.0 Q 563.5 804.0 547.5 797.0 Q 532.5 791.0 494.5 781.0 Q 456.5 772.0 435.5 768.0 Q 415.5 764.0 386.5 760.0 Q 358.5 756.0 337.5 755.0 L 303.5 752.0 Q 293.5 751.0 292.5 749.0 Q 291.5 748.0 291.5 747.0 Q 291.5 745.0 294.5 741.0 Q 298.5 734.0 312.5 727.0 Q 324.5 719.0 330.5 719.0 Q 332.5 718.0 336.5 718.0 Q 339.5 718.0 344.5 719.0 L 372.5 724.0 L 476.5 741.0 L 534.5 749.0 Q 542.5 751.0 546.5 751.0 Q 550.5 751.0 552.5 750.0 Q 553.5 749.0 555.5 746.0 L 557.5 740.0 Q 557.5 737.0 555.5 729.0 Q 553.5 721.0 550.5 702.0 Q 547.5 683.0 538.5 655.0 C 529.5 626.0 581.5 615.0 590.5 643.0 Z" fill="lightgray"></path>
      </clipPath>
      <path clip-path="url(#make-me-a-hanzi-clip-0)" d="M 296.5 746.0 L 338.5 736.0 L 539.5 772.0 L 575.5 773.0 L 595.5 756.0 L 593.5 743.0 L 573.5 675.0 L 546.5 660.0 " fill="none" id="make-me-a-hanzi-animation-0" stroke-dasharray="553 1106" stroke-linecap="round"></path>

      <clipPath id="make-me-a-hanzi-clip-1">
      <path d="M 334.5 584.0 L 404.5 594.0 Q 440.5 599.0 498.5 603.0 L 562.5 608.0 Q 603.5 611.0 607.5 613.0 Q 611.5 615.0 613.5 619.0 L 613.5 620.0 Q 613.5 624.0 604.5 632.0 L 590.5 643.0 C 568.5 660.0 568.5 660.0 538.5 655.0 L 426.5 636.0 Q 380.5 628.0 337.5 624.0 L 272.5 617.0 Q 258.5 616.0 256.5 611.0 Q 255.5 610.0 255.5 608.0 Q 255.5 605.0 258.5 600.0 Q 262.5 593.0 274.5 587.0 L 334.5 584.0 Z" fill="lightgray"></path>
      </clipPath>
      <path clip-path="url(#make-me-a-hanzi-clip-1)" d="M 263.5 607.0 L 277.5 602.0 L 352.5 605.0 L 535.5 631.0 L 607.5 620.0 " fill="none" id="make-me-a-hanzi-animation-1" stroke-dasharray="476 952" stroke-linecap="round"></path>

      <clipPath id="make-me-a-hanzi-clip-2">
      <path d="M 274.5 587.0 L 279.5 573.0 Q 282.5 565.0 282.5 545.0 Q 282.5 543.0 280.5 512.0 Q 279.5 497.0 279.5 485.0 Q 279.5 474.0 280.5 467.0 Q 282.5 443.0 289.5 430.0 Q 297.5 417.0 314.5 405.0 Q 332.5 393.0 367.5 387.0 Q 403.5 381.0 444.5 379.0 Q 472.5 378.0 494.5 378.0 L 515.5 378.0 Q 560.5 378.0 598.5 382.0 Q 636.5 385.0 664.5 391.0 Q 692.5 397.0 722.5 407.0 Q 750.5 417.0 769.5 431.0 Q 787.5 445.0 790.5 455.0 Q 791.5 458.0 791.5 461.0 Q 791.5 467.0 788.5 474.0 L 774.5 499.0 Q 766.5 515.0 761.5 539.0 L 756.5 567.0 Q 751.5 588.0 746.5 588.0 L 745.5 588.0 Q 740.5 587.0 739.5 582.0 L 732.5 541.0 Q 729.5 521.0 722.5 503.0 Q 714.5 487.0 702.5 476.0 Q 690.5 465.0 663.5 457.0 Q 636.5 449.0 604.5 445.0 Q 574.5 441.0 509.5 439.0 L 430.5 439.0 Q 404.5 441.0 377.5 444.0 Q 351.5 447.0 341.5 453.0 Q 330.5 458.0 327.5 465.0 Q 324.5 471.0 324.5 484.0 L 324.5 491.0 L 326.5 523.0 Q 326.5 537.0 329.5 545.0 Q 331.5 553.0 334.5 558.0 L 338.5 564.0 Q 340.5 569.0 340.5 573.0 Q 339.5 577.0 334.5 584.0 C 329.5 614.0 265.5 616.0 274.5 587.0 Z" fill="lightgray"></path>
      </clipPath>
      <path clip-path="url(#make-me-a-hanzi-clip-2)" d="M 281.5 582.0 L 307.5 560.0 L 301.5 481.0 L 306.5 452.0 L 318.5 436.0 L 340.5 423.0 L 379.5 414.0 L 510.5 408.0 L 641.5 419.0 L 691.5 431.0 L 726.5 448.0 L 742.5 460.0 L 747.5 476.0 L 746.5 583.0 " fill="none" id="make-me-a-hanzi-animation-2" stroke-dasharray="853 1706" stroke-linecap="round"></path>

      <clipPath id="make-me-a-hanzi-clip-3">
      <path d="M 636.5 219.0 L 656.5 220.0 L 749.5 223.0 L 924.5 223.0 Q 950.5 223.0 956.5 228.0 Q 966.5 235.0 966.5 240.0 L 966.5 241.0 Q 966.5 246.0 960.5 251.0 Q 954.5 258.0 934.5 270.0 Q 913.5 283.0 900.5 288.0 Q 887.5 293.0 874.5 293.0 Q 870.5 293.0 851.5 289.0 Q 832.5 285.0 816.5 283.0 Q 799.5 282.0 756.5 277.0 Q 712.5 271.0 681.5 269.0 Q 649.5 267.0 640.5 267.0 L 576.5 261.0 L 541.5 257.0 L 436.5 248.0 Q 414.5 245.0 409.5 245.0 Q 403.5 245.0 386.5 243.0 L 329.5 239.0 L 267.5 233.0 Q 241.5 231.0 203.5 228.0 Q 165.5 225.0 88.5 221.0 L 72.5 219.0 Q 62.5 219.0 58.5 214.0 Q 57.5 212.0 57.5 209.0 Q 57.5 207.0 58.5 204.0 Q 60.5 199.0 70.5 191.0 Q 80.5 183.0 94.5 175.0 Q 108.5 167.0 117.5 163.0 Q 126.5 159.0 134.5 159.0 Q 142.5 159.0 160.5 165.0 Q 178.5 171.0 194.5 175.0 Q 210.5 179.0 239.5 184.0 Q 268.5 189.0 289.5 191.0 Q 310.5 193.0 324.5 195.0 L 380.5 201.0 L 410.5 203.0 Q 426.5 205.0 483.5 210.0 Q 540.5 215.0 548.5 215.0 Q 557.5 215.0 574.5 216.0 L 636.5 219.0 Z" fill="lightgray"></path>
      </clipPath>
      <path clip-path="url(#make-me-a-hanzi-clip-3)" d="M 68.5 210.0 L 125.5 192.0 L 144.5 192.0 L 338.5 219.0 L 875.5 258.0 L 954.5 241.0 " fill="none" id="make-me-a-hanzi-animation-3" stroke-dasharray="1022 2044" stroke-linecap="round"></path>

      <clipPath id="make-me-a-hanzi-clip-4">
      <path d="M 386.5 243.0 L 392.5 277.0 Q 394.5 289.0 399.5 299.0 L 405.5 311.0 Q 405.5 317.0 396.5 325.0 Q 387.5 333.0 374.5 337.0 Q 362.5 341.0 349.5 343.0 Q 336.5 345.0 327.5 345.0 Q 318.5 343.0 315.5 341.0 Q 313.5 338.0 313.5 334.0 L 313.5 332.0 Q 313.5 327.0 318.5 316.0 Q 324.5 305.0 326.5 294.0 Q 328.5 284.0 329.5 268.0 L 329.5 239.0 L 324.5 195.0 L 318.5 161.0 Q 318.5 155.0 310.5 130.0 Q 302.5 106.0 289.5 77.0 Q 276.5 48.0 262.5 29.0 Q 248.5 11.0 230.5 -8.0 Q 212.5 -27.0 199.5 -37.0 Q 186.5 -47.0 166.5 -61.0 L 152.5 -71.0 Q 142.5 -77.0 141.5 -82.0 L 141.5 -84.0 Q 141.5 -87.0 144.5 -87.0 Q 145.5 -88.0 147.5 -88.0 Q 151.5 -88.0 156.5 -85.0 L 177.5 -79.0 Q 192.5 -73.0 213.5 -62.0 Q 234.5 -51.0 254.5 -35.0 Q 274.5 -20.0 296.5 7.0 Q 318.5 33.0 334.5 60.0 Q 349.5 87.0 358.5 113.0 Q 368.5 140.0 371.5 156.0 Q 374.5 171.0 376.5 180.0 Q 378.5 188.0 380.5 201.0 L 386.5 243.0 Z" fill="lightgray"></path>
      </clipPath>
      <path clip-path="url(#make-me-a-hanzi-clip-4)" d="M 324.5 335.0 L 361.5 303.0 L 351.5 190.0 L 327.5 102.0 L 305.5 56.0 L 266.5 2.0 L 221.5 -40.0 L 145.5 -83.0 " fill="none" id="make-me-a-hanzi-animation-4" stroke-dasharray="648 1296" stroke-linecap="round"></path>

      <clipPath id="make-me-a-hanzi-clip-5">
      <path d="M 640.5 267.0 L 642.5 285.0 L 645.5 297.0 Q 648.5 305.0 650.5 309.0 Q 653.5 319.0 653.5 324.0 L 653.5 327.0 Q 652.5 333.0 643.5 339.0 Q 633.5 345.0 620.5 350.0 Q 606.5 355.0 592.5 358.0 Q 583.5 360.0 577.5 360.0 Q 573.5 360.0 570.5 359.0 Q 563.5 357.0 561.5 351.0 Q 560.5 349.0 560.5 346.0 Q 560.5 342.0 562.5 336.0 L 570.5 316.0 Q 572.5 307.0 573.5 294.0 Q 574.5 280.0 575.5 275.0 Q 575.5 269.0 576.5 261.0 L 574.5 216.0 L 572.5 25.0 L 572.5 -35.0 L 575.5 -76.0 Q 576.5 -89.0 578.5 -103.0 Q 580.5 -116.0 584.5 -123.0 Q 588.5 -129.0 592.5 -129.0 Q 595.5 -129.0 600.5 -123.0 Q 604.5 -118.0 608.5 -108.0 Q 612.5 -98.0 616.5 -85.0 Q 619.5 -73.0 623.5 -47.0 Q 628.5 -21.0 629.5 0.0 Q 630.5 21.0 632.5 68.0 L 636.5 213.0 L 636.5 219.0 L 640.5 267.0 Z" fill="lightgray"></path>
      </clipPath>
      <path clip-path="url(#make-me-a-hanzi-clip-5)" d="M 574.5 346.0 L 610.5 313.0 L 601.5 -5.0 L 592.5 -121.0 " fill="none" id="make-me-a-hanzi-animation-5" stroke-dasharray="611 1222" stroke-linecap="round"></path>

      <clipPath id="make-me-a-hanzi-clip-6">
      <path d="M 1182.5 394.5 Q 1180.5 407.5 1179.5 428.5 Q 1174.5 445.5 1167.5 462.5 Q 1153.5 481.5 1149.5 455.5 Q 1147.5 441.5 1139.5 418.5 Q 1132.5 395.5 1129.5 390.5 L 1117.5 366.5 L 1090.5 329.5 Q 1087.5 325.5 1087.5 306.5 L 1089.5 278.5 Q 1092.5 266.5 1101.5 252.5 Q 1111.5 238.5 1119.5 240.5 Q 1129.5 240.5 1137.5 248.5 Q 1166.5 289.5 1179.5 351.5 Q 1182.5 376.5 1182.5 394.5 Z" fill="lightgray"></path>
      </clipPath>
      <path clip-path="url(#make-me-a-hanzi-clip-6)" d="M 1157.5 460.5 L 1161.5 429.5 L 1154.5 376.5 L 1127.5 313.5 L 1119.5 260.5 " fill="none" id="make-me-a-hanzi-animation-6" stroke-dasharray="335 670" stroke-linecap="round"></path>

      <clipPath id="make-me-a-hanzi-clip-7">
      <path d="M 1294.5 40.5 L 1308.5 497.5 L 1311.5 518.5 L 1318.5 610.5 Q 1320.5 658.5 1332.5 679.5 L 1327.5 692.5 Q 1323.5 703.5 1301.5 717.5 Q 1279.5 731.5 1263.5 737.5 Q 1248.5 742.5 1240.5 735.5 Q 1233.5 727.5 1235.5 721.5 L 1243.5 703.5 Q 1248.5 691.5 1247.5 688.5 L 1255.5 639.5 Q 1259.5 607.5 1259.5 581.5 L 1258.5 480.5 L 1248.5 258.5 Q 1246.5 169.5 1235.5 103.5 L 1225.5 40.5 Q 1216.5 4.5 1232.5 -30.5 Q 1248.5 -66.5 1260.5 -66.5 L 1269.5 -59.5 Q 1285.5 -42.5 1288.5 -20.5 Q 1292.5 1.5 1294.5 40.5 Z" fill="lightgray"></path>
      </clipPath>
      <path clip-path="url(#make-me-a-hanzi-clip-7)" d="M 1250.5 723.5 L 1278.5 695.5 L 1289.5 675.5 L 1272.5 175.5 L 1257.5 16.5 L 1260.5 -56.5 " fill="none" id="make-me-a-hanzi-animation-7" stroke-dasharray="923 1846" stroke-linecap="round"></path>

      <clipPath id="make-me-a-hanzi-clip-8">
      <path d="M 1308.5 497.5 L 1376.5 416.5 Q 1387.5 404.5 1398.5 404.5 Q 1409.5 403.5 1413.5 408.5 Q 1419.5 418.5 1421.5 427.5 Q 1423.5 448.5 1422.5 454.5 Q 1421.5 460.5 1413.5 468.5 Q 1400.5 485.5 1367.5 499.5 L 1355.5 504.5 L 1311.5 518.5 C 1283.5 527.5 1289.5 520.5 1308.5 497.5 Z" fill="lightgray"></path>
      </clipPath>
      <path clip-path="url(#make-me-a-hanzi-clip-8)" d="M 1317.5 512.5 L 1322.5 499.5 L 1382.5 457.5 L 1402.5 420.5 " fill="none" id="make-me-a-hanzi-animation-8" stroke-dasharray="257 514" stroke-linecap="round"></path>

      <clipPath id="make-me-a-hanzi-clip-9">
      <path d="M 1534.5 430.5 L 1562.5 484.5 L 1580.5 514.5 Q 1585.5 520.5 1585.5 524.5 Q 1586.5 528.5 1577.5 542.5 Q 1569.5 552.5 1562.5 556.5 Q 1556.5 559.5 1535.5 572.5 Q 1514.5 580.5 1505.5 570.5 Q 1502.5 566.5 1504.5 549.5 Q 1506.5 531.5 1493.5 489.5 Q 1481.5 446.5 1475.5 431.5 L 1456.5 387.5 Q 1444.5 355.5 1433.5 336.5 L 1419.5 310.5 L 1410.5 296.5 Q 1410.5 292.5 1414.5 290.5 Q 1420.5 290.5 1431.5 300.5 L 1467.5 335.5 L 1498.5 374.5 L 1519.5 404.5 L 1534.5 430.5 Z" fill="lightgray"></path>
      </clipPath>
      <path clip-path="url(#make-me-a-hanzi-clip-9)" d="M 1515.5 564.5 L 1541.5 524.5 L 1535.5 507.5 L 1478.5 382.5 L 1416.5 296.5 " fill="none" id="make-me-a-hanzi-animation-9" stroke-dasharray="437 874" stroke-linecap="round"></path>

      <clipPath id="make-me-a-hanzi-clip-10">
      <path d="M 1711.5 410.5 L 1765.5 416.5 L 1816.5 425.5 L 1853.5 433.5 Q 1875.5 436.5 1878.5 448.5 Q 1879.5 451.5 1872.5 458.5 Q 1866.5 465.5 1850.5 472.5 Q 1834.5 479.5 1829.5 480.5 Q 1824.5 481.5 1810.5 479.5 L 1775.5 468.5 L 1711.5 454.5 L 1650.5 445.5 L 1534.5 430.5 C 1504.5 426.5 1490.5 413.5 1519.5 404.5 L 1542.5 397.5 Q 1567.5 391.5 1590.5 394.5 L 1649.5 400.5 L 1711.5 410.5 Z" fill="lightgray"></path>
      </clipPath>
      <path clip-path="url(#make-me-a-hanzi-clip-10)" d="M 1527.5 408.5 L 1544.5 415.5 L 1653.5 422.5 L 1824.5 454.5 L 1867.5 448.5 " fill="none" id="make-me-a-hanzi-animation-10" stroke-dasharray="473 946" stroke-linecap="round"></path>

      <clipPath id="make-me-a-hanzi-clip-11">
      <path d="M 1705.5 220.5 L 1816.5 234.5 Q 1859.5 241.5 1859.5 254.5 L 1857.5 258.5 L 1851.5 264.5 Q 1812.5 287.5 1751.5 272.5 Q 1725.5 267.5 1706.5 265.5 L 1649.5 256.5 L 1536.5 243.5 Q 1519.5 240.5 1512.5 238.5 Q 1509.5 236.5 1507.5 231.5 Q 1505.5 226.5 1516.5 219.5 Q 1527.5 211.5 1541.5 210.5 L 1574.5 208.5 Q 1593.5 208.5 1596.5 209.5 L 1647.5 215.5 L 1705.5 220.5 Z" fill="lightgray"></path>
      </clipPath>
      <path clip-path="url(#make-me-a-hanzi-clip-11)" d="M 1517.5 229.5 L 1581.5 227.5 L 1779.5 254.5 L 1852.5 253.5 " fill="none" id="make-me-a-hanzi-animation-11" stroke-dasharray="465 930" stroke-linecap="round"></path>

      <clipPath id="make-me-a-hanzi-clip-12">
      <path d="M 1704.5 68.5 L 1705.5 220.5 L 1706.5 265.5 L 1711.5 410.5 L 1711.5 454.5 L 1719.5 570.5 Q 1720.5 585.5 1726.5 628.5 L 1735.5 654.5 Q 1743.5 674.5 1741.5 683.5 Q 1737.5 691.5 1733.5 695.5 Q 1729.5 698.5 1711.5 708.5 Q 1693.5 717.5 1680.5 721.5 Q 1641.5 731.5 1634.5 724.5 Q 1631.5 723.5 1626.5 717.5 L 1624.5 710.5 Q 1623.5 707.5 1632.5 686.5 Q 1642.5 665.5 1648.5 616.5 L 1650.5 569.5 L 1650.5 445.5 L 1649.5 400.5 L 1649.5 256.5 L 1647.5 215.5 L 1647.5 63.5 C 1647.5 33.5 1704.5 38.5 1704.5 68.5 Z" fill="lightgray"></path>
      </clipPath>
      <path clip-path="url(#make-me-a-hanzi-clip-12)" d="M 1640.5 709.5 L 1664.5 693.5 L 1688.5 663.5 L 1676.5 94.5 L 1654.5 71.5 " fill="none" id="make-me-a-hanzi-animation-12" stroke-dasharray="796 1592" stroke-linecap="round"></path>

      <clipPath id="make-me-a-hanzi-clip-13">
      <path d="M 1855.5 82.5 L 1826.5 78.5 L 1704.5 68.5 L 1647.5 63.5 L 1441.5 44.5 L 1396.5 44.5 Q 1385.5 44.5 1383.5 39.5 Q 1381.5 33.5 1389.5 25.5 Q 1397.5 17.5 1408.5 12.5 L 1439.5 0.5 Q 1457.5 -4.5 1465.5 -4.5 Q 1473.5 -5.5 1513.5 4.5 Q 1553.5 13.5 1580.5 16.5 L 1639.5 20.5 L 1837.5 28.5 L 1905.5 26.5 L 1954.5 28.5 Q 1973.5 28.5 1978.5 34.5 Q 1983.5 40.5 1983.5 43.5 Q 1984.5 45.5 1977.5 52.5 Q 1971.5 62.5 1963.5 66.5 Q 1955.5 70.5 1933.5 78.5 Q 1912.5 86.5 1904.5 87.5 Q 1897.5 87.5 1855.5 82.5 Z" fill="lightgray"></path>
      </clipPath>
      <path clip-path="url(#make-me-a-hanzi-clip-13)" d="M 1392.5 35.5 L 1442.5 22.5 L 1472.5 21.5 L 1577.5 37.5 L 1868.5 56.5 L 1915.5 55.5 L 1973.5 43.5 " fill="none" id="make-me-a-hanzi-animation-13" stroke-dasharray="714 1428" stroke-linecap="round"></path>

</g>
</svg>
