<svg version="1.1" viewBox="0 0 2048 1024" xmlns="http://www.w3.org/2000/svg">
  <g stroke="lightgray" stroke-dasharray="1,1" stroke-width="1" transform="scale(4, 4)">
    <line x1="0" y1="0" x2="256" y2="256"></line>
    <line x1="256" y1="0" x2="0" y2="256"></line>
    <line x1="128" y1="0" x2="128" y2="256"></line>
    <line x1="0" y1="128" x2="256" y2="128"></line>
    <line x1="256" y1="0" x2="512" y2="256"></line>
    <line x1="512" y1="0" x2="256" y2="256"></line>
    <line x1="384" y1="0" x2="384" y2="256"></line>
    <line x1="256" y1="128" x2="512" y2="128"></line>
  </g>
<g transform="scale(1, -1) translate(0, -850)">
   <style type="text/css">
    @keyframes keyframes0 {
      from {
       stroke: black;
       stroke-dashoffset: 620;
       stroke-width: 128;
       }
       67% {
       animation-timing-function: step-end;
       stroke: black;
       stroke-dashoffset: 0;
       stroke-width: 128;
       }
       to {
       stroke: black;
       stroke-width: 1024;
       }
       }
       #make-me-a-hanzi-animation-0 {
         animation: keyframes0 0.754557s both;
         animation-delay: 0.000000s;
         animation-timing-function: linear;
       }
    @keyframes keyframes1 {
      from {
       stroke: black;
       stroke-dashoffset: 1036;
       stroke-width: 128;
       }
       77% {
       animation-timing-function: step-end;
       stroke: black;
       stroke-dashoffset: 0;
       stroke-width: 128;
       }
       to {
       stroke: black;
       stroke-width: 1024;
       }
       }
       #make-me-a-hanzi-animation-1 {
         animation: keyframes1 1.093099s both;
         animation-delay: 0.754557s;
         animation-timing-function: linear;
       }
    @keyframes keyframes2 {
      from {
       stroke: black;
       stroke-dashoffset: 509;
       stroke-width: 128;
       }
       62% {
       animation-timing-function: step-end;
       stroke: black;
       stroke-dashoffset: 0;
       stroke-width: 128;
       }
       to {
       stroke: black;
       stroke-width: 1024;
       }
       }
       #make-me-a-hanzi-animation-2 {
         animation: keyframes2 0.664225s both;
         animation-delay: 1.847656s;
         animation-timing-function: linear;
       }
    @keyframes keyframes3 {
      from {
       stroke: black;
       stroke-dashoffset: 539;
       stroke-width: 128;
       }
       64% {
       animation-timing-function: step-end;
       stroke: black;
       stroke-dashoffset: 0;
       stroke-width: 128;
       }
       to {
       stroke: black;
       stroke-width: 1024;
       }
       }
       #make-me-a-hanzi-animation-3 {
         animation: keyframes3 0.688639s both;
         animation-delay: 2.511882s;
         animation-timing-function: linear;
       }
    @keyframes keyframes4 {
      from {
       stroke: black;
       stroke-dashoffset: 539;
       stroke-width: 128;
       }
       64% {
       animation-timing-function: step-end;
       stroke: black;
       stroke-dashoffset: 0;
       stroke-width: 128;
       }
       to {
       stroke: black;
       stroke-width: 1024;
       }
       }
       #make-me-a-hanzi-animation-4 {
         animation: keyframes4 0.688639s both;
         animation-delay: 3.200521s;
         animation-timing-function: linear;
       }
    @keyframes keyframes5 {
      from {
       stroke: black;
       stroke-dashoffset: 447;
       stroke-width: 128;
       }
       59% {
       animation-timing-function: step-end;
       stroke: black;
       stroke-dashoffset: 0;
       stroke-width: 128;
       }
       to {
       stroke: black;
       stroke-width: 1024;
       }
       }
       #make-me-a-hanzi-animation-5 {
         animation: keyframes5 0.613770s both;
         animation-delay: 3.889160s;
         animation-timing-function: linear;
       }
    @keyframes keyframes6 {
      from {
       stroke: black;
       stroke-dashoffset: 1027;
       stroke-width: 128;
       }
       77% {
       animation-timing-function: step-end;
       stroke: black;
       stroke-dashoffset: 0;
       stroke-width: 128;
       }
       to {
       stroke: black;
       stroke-width: 1024;
       }
       }
       #make-me-a-hanzi-animation-6 {
         animation: keyframes6 1.085775s both;
         animation-delay: 4.502930s;
         animation-timing-function: linear;
       }
    @keyframes keyframes7 {
      from {
       stroke: black;
       stroke-dashoffset: 385;
       stroke-width: 128;
       }
       56% {
       animation-timing-function: step-end;
       stroke: black;
       stroke-dashoffset: 0;
       stroke-width: 128;
       }
       to {
       stroke: black;
       stroke-width: 1024;
       }
       }
       #make-me-a-hanzi-animation-7 {
         animation: keyframes7 0.563314s both;
         animation-delay: 5.588704s;
         animation-timing-function: linear;
       }
    @keyframes keyframes8 {
      from {
       stroke: black;
       stroke-dashoffset: 468;
       stroke-width: 128;
       }
       60% {
       animation-timing-function: step-end;
       stroke: black;
       stroke-dashoffset: 0;
       stroke-width: 128;
       }
       to {
       stroke: black;
       stroke-width: 1024;
       }
       }
       #make-me-a-hanzi-animation-8 {
         animation: keyframes8 0.630859s both;
         animation-delay: 6.152018s;
         animation-timing-function: linear;
       }
    @keyframes keyframes9 {
      from {
       stroke: black;
       stroke-dashoffset: 606;
       stroke-width: 128;
       }
       66% {
       animation-timing-function: step-end;
       stroke: black;
       stroke-dashoffset: 0;
       stroke-width: 128;
       }
       to {
       stroke: black;
       stroke-width: 1024;
       }
       }
       #make-me-a-hanzi-animation-9 {
         animation: keyframes9 0.743164s both;
         animation-delay: 6.782878s;
         animation-timing-function: linear;
       }
    @keyframes keyframes10 {
      from {
       stroke: black;
       stroke-dashoffset: 635;
       stroke-width: 128;
       }
       67% {
       animation-timing-function: step-end;
       stroke: black;
       stroke-dashoffset: 0;
       stroke-width: 128;
       }
       to {
       stroke: black;
       stroke-width: 1024;
       }
       }
       #make-me-a-hanzi-animation-10 {
         animation: keyframes10 0.766764s both;
         animation-delay: 7.526042s;
         animation-timing-function: linear;
       }
    @keyframes keyframes11 {
      from {
       stroke: black;
       stroke-dashoffset: 1124;
       stroke-width: 128;
       }
       79% {
       animation-timing-function: step-end;
       stroke: black;
       stroke-dashoffset: 0;
       stroke-width: 128;
       }
       to {
       stroke: black;
       stroke-width: 1024;
       }
       }
       #make-me-a-hanzi-animation-11 {
         animation: keyframes11 1.164714s both;
         animation-delay: 8.292806s;
         animation-timing-function: linear;
       }
    @keyframes keyframes12 {
      from {
       stroke: black;
       stroke-dashoffset: 1214;
       stroke-width: 128;
       }
       80% {
       animation-timing-function: step-end;
       stroke: black;
       stroke-dashoffset: 0;
       stroke-width: 128;
       }
       to {
       stroke: black;
       stroke-width: 1024;
       }
       }
       #make-me-a-hanzi-animation-12 {
         animation: keyframes12 1.237956s both;
         animation-delay: 9.457520s;
         animation-timing-function: linear;
       }
    @keyframes keyframes13 {
      from {
       stroke: black;
       stroke-dashoffset: 605;
       stroke-width: 128;
       }
       66% {
       animation-timing-function: step-end;
       stroke: black;
       stroke-dashoffset: 0;
       stroke-width: 128;
       }
       to {
       stroke: black;
       stroke-width: 1024;
       }
       }
       #make-me-a-hanzi-animation-13 {
         animation: keyframes13 0.742350s both;
         animation-delay: 10.695475s;
         animation-timing-function: linear;
       }
    @keyframes keyframes14 {
      from {
       stroke: black;
       stroke-dashoffset: 1066;
       stroke-width: 128;
       }
       78% {
       animation-timing-function: step-end;
       stroke: black;
       stroke-dashoffset: 0;
       stroke-width: 128;
       }
       to {
       stroke: black;
       stroke-width: 1024;
       }
       }
       #make-me-a-hanzi-animation-14 {
         animation: keyframes14 1.117513s both;
         animation-delay: 11.437826s;
         animation-timing-function: linear;
       }
</style>
<path d="M 304 337 L 293 449 L 284 520 Q 276 579 279 593 C 281 617 279 618 250 625 L 222 632 Q 199 637 193 632 Q 185 623 186 619 Q 187 614 197 605 Q 208 596 216 576 Q 225 556 228 546 Q 232 536 237 495 L 260 315 Q 262 283 281 277 Q 290 271 296 277 Q 302 282 304 302 L 304 337 Z" fill="lightgray"></path> 
<path d="M 647 606 L 635 509 L 622 451 Q 610 401 593 351 L 585 319 L 587 310 Q 586 304 590 296 Q 606 275 634 300 Q 639 307 647 326 Q 662 373 679 419 L 719 547 Q 733 588 743 603 Q 753 618 753 622 Q 753 642 718 660 L 687 676 Q 674 684 666 686 Q 657 686 639 682 Q 622 677 593 673 L 512 660 L 250 625 C 220 621 249 589 279 593 L 400 610 L 467 618 L 576 628 Q 631 634 639 629 Q 647 623 647 606 Z" fill="lightgray"></path> 
<path d="M 480 465 L 585 477 Q 595 481 595 498 Q 596 527 494 506 Q 483 504 481 503 L 420 495 L 334 481 Q 319 478 319 470 Q 319 454 337 452 Q 346 451 363 453 Q 380 455 387 455 Q 394 454 422 458 L 480 465 Z" fill="lightgray"></path> 
<path d="M 479 352 L 480 465 L 481 503 L 482 539 Q 482 554 490 574 Q 498 593 497 596 Q 494 604 467 618 C 441 632 383 635 400 610 L 408 598 Q 412 593 414 583 Q 416 572 420 495 L 422 458 L 426 347 C 427 317 479 322 479 352 Z" fill="lightgray"></path> 
<path d="M 593 351 L 576 358 Q 554 358 544 360 Q 535 362 520 360 L 479 352 L 426 347 L 304 337 C 274 335 274 307 304 302 L 316 300 Q 337 298 430 309 Q 523 319 585 319 C 615 319 621 340 593 351 Z" fill="lightgray"></path> 
<path d="M 176 156 Q 174 174 165 187 Q 150 204 145 176 Q 135 116 98 75 L 90 66 Q 85 58 85 34 Q 85 10 100 -11 Q 115 -33 136 -14 Q 156 5 172 56 Q 189 107 176 156 Z" fill="lightgray"></path> 
<path d="M 695 99 L 672 125 Q 664 133 660 133 Q 652 133 660 112 L 668 88 L 679 46 Q 683 29 685 17 Q 687 4 679 -2 Q 646 -24 584 -24 Q 427 -26 356 45 Q 334 67 323 94 Q 313 120 305 143 Q 298 166 293 177 Q 276 203 260 198 Q 256 198 253 197 Q 250 196 250 192 L 254 176 Q 257 164 296 67 Q 305 46 326 13 Q 352 -29 430 -61 Q 509 -94 609 -92 Q 659 -92 690 -85 Q 867 -46 791 16 L 764 35 Q 730 63 695 99 Z" fill="lightgray"></path> 
<path d="M 410 200 L 441 164 Q 464 137 483 124 Q 530 92 539 136 Q 545 163 531 177 Q 511 200 480 207 L 440 217 Q 404 226 404 210 Q 404 206 410 200 Z" fill="lightgray"></path> 
<path d="M 755 252 L 731 262 Q 707 269 707 258 Q 706 256 718 243 Q 731 230 777 179 L 825 122 Q 835 110 851 101 Q 868 91 880 107 Q 892 122 892 140 Q 892 158 884 173 Q 861 216 785 244 L 755 252 Z" fill="lightgray"></path> 
<path d="M 1572 584 L 1608 589 Q 1630 591 1674 600 L 1713 608 Q 1726 611 1718 628 Q 1712 637 1687.5 646.5 Q 1663 656 1658 656 L 1572 635 L 1512 624 L 1477 618 Q 1417 609 1410 609 L 1378 606 Q 1360 605 1358 600 Q 1354 585 1383 574 Q 1398 571 1408.5 570 Q 1419 569 1462 572 L 1512 576 L 1572 584 Z" fill="lightgray"></path> 
<path d="M 1572 462 L 1572 584 L 1572 635 L 1573 691 Q 1573 729 1581 756 L 1587 772 L 1592 782 Q 1592 793 1579 802 Q 1566 810 1551 814 Q 1501 829 1493 817 Q 1490 812 1496 801 L 1499 791 Q 1512 757 1512 679 L 1512 624 L 1512 576 L 1511 456 C 1511 426 1572 432 1572 462 Z" fill="lightgray"></path> 
<path d="M 1246 424 L 1184 420 L 1158 418 Q 1135 414 1150 396 Q 1158 386 1183 373 Q 1208 360 1224.5 360 Q 1241 360 1250 363.5 Q 1259 367 1305 380 Q 1362 393 1366 394 L 1447 407 Q 1501 414 1510 415 L 1524 416 Q 1534 416 1536 417 L 1637 427 L 1668 429 Q 1738 436 1754 436 L 1848 440 Q 1899 444 1929 444 L 1999 443 Q 2020 442 2024 451 Q 2028 460 2020 472 Q 2011 489 1953 512 Q 1938 518 1928 517 L 1884 505 L 1842 497 Q 1841 497 1805.5 491.5 Q 1770 486 1752 482 L 1737 479 Q 1727 477 1720 477 L 1689 474 L 1590 464 L 1572 462 L 1511 456 L 1488 454 L 1319 432 Q 1316 432 1246 424 Z" fill="lightgray"></path> 
<path d="M 1536 417 L 1528 410 L 1506 394 Q 1462 357 1402 318 Q 1271 229 1176 186 L 1100 151 Q 1092 146 1094 137.5 Q 1096 129 1108 132 L 1138 138 Q 1251 163 1373 239 L 1431 274 L 1477 305 L 1501 320 Q 1504 323 1508 326 L 1528 341 Q 1604 398 1610 404 L 1637 427 L 1689 474 L 1829 608 Q 1850 629 1863.5 633.5 Q 1877 638 1879.5 642.5 Q 1882 647 1876.5 665 Q 1871 683 1852 696 Q 1831 717 1809 725 Q 1796 726 1794 725 Q 1793 722 1792 715.5 Q 1791 709 1781.5 681.5 Q 1772 654 1754 635 L 1710 580 L 1616 487 L 1590 464 L 1536 417 Z" fill="lightgray"></path> 
<path d="M 1431 274 L 1452 269 Q 1453 268 1475 265 L 1544 269 L 1718 285 Q 1733 286 1751 288 L 1774 290 Q 1792 292 1794 301 Q 1795 312 1778 321 Q 1757 330 1742 331 Q 1727 332 1706 332 L 1629 322 L 1477 305 C 1447 302 1402 281 1431 274 Z" fill="lightgray"></path> 
<path d="M 1475 265 L 1476 250 Q 1476 212 1454 177 Q 1447 167 1442 163 L 1433 154 Q 1432 150 1433 143 Q 1433 125 1449 109 Q 1457 103 1463 103 Q 1468 102 1492 118 Q 1515 133 1563 144 Q 1589 152 1608 154 L 1651 158 Q 1668 159 1680 158 Q 1700 153 1700 132 L 1698 98 Q 1695 58 1674 -10 Q 1651 -77 1616 -82 Q 1597 -85 1563 -64 L 1546 -54 Q 1538 -50 1534 -54 Q 1530 -58 1534 -64 L 1560 -102 Q 1572 -121 1575 -128 L 1588 -158 Q 1596 -178 1605 -180 Q 1612 -183 1636 -171 Q 1691 -143 1713 -96 Q 1725 -70 1740 -13 Q 1754 44 1754 46 L 1774 114 Q 1775 119 1784 127 Q 1792 135 1793 140 Q 1794 144 1781 156 Q 1767 173 1757 179 L 1728 196 Q 1702 210 1691 207 Q 1679 203 1644 195 L 1612 188 Q 1549 176 1532 176 Q 1513 172 1510 180 Q 1509 183 1515 193 Q 1526 206 1533 218 Q 1539 230 1547 238 Q 1554 245 1554 251 Q 1554 257 1544 269 C 1534 297 1475 295 1475 265 Z" fill="lightgray"></path> 
      <clipPath id="make-me-a-hanzi-clip-0">
      <path d="M 304 337 L 293 449 L 284 520 Q 276 579 279 593 C 281 617 279 618 250 625 L 222 632 Q 199 637 193 632 Q 185 623 186 619 Q 187 614 197 605 Q 208 596 216 576 Q 225 556 228 546 Q 232 536 237 495 L 260 315 Q 262 283 281 277 Q 290 271 296 277 Q 302 282 304 302 L 304 337 Z" fill="lightgray"></path>
      </clipPath>
      <path clip-path="url(#make-me-a-hanzi-clip-0)" d="M 197 621 L 235 601 L 248 580 L 270 440 L 282 308 L 289 287 " fill="none" id="make-me-a-hanzi-animation-0" stroke-dasharray="492 984" stroke-linecap="round"></path>

      <clipPath id="make-me-a-hanzi-clip-1">
      <path d="M 647 606 L 635 509 L 622 451 Q 610 401 593 351 L 585 319 L 587 310 Q 586 304 590 296 Q 606 275 634 300 Q 639 307 647 326 Q 662 373 679 419 L 719 547 Q 733 588 743 603 Q 753 618 753 622 Q 753 642 718 660 L 687 676 Q 674 684 666 686 Q 657 686 639 682 Q 622 677 593 673 L 512 660 L 250 625 C 220 621 249 589 279 593 L 400 610 L 467 618 L 576 628 Q 631 634 639 629 Q 647 623 647 606 Z" fill="lightgray"></path>
      </clipPath>
      <path clip-path="url(#make-me-a-hanzi-clip-1)" d="M 258 623 L 286 612 L 299 613 L 642 656 L 661 653 L 675 641 L 695 617 L 693 607 L 647 422 L 607 307 " fill="none" id="make-me-a-hanzi-animation-1" stroke-dasharray="908 1816" stroke-linecap="round"></path>

      <clipPath id="make-me-a-hanzi-clip-2">
      <path d="M 480 465 L 585 477 Q 595 481 595 498 Q 596 527 494 506 Q 483 504 481 503 L 420 495 L 334 481 Q 319 478 319 470 Q 319 454 337 452 Q 346 451 363 453 Q 380 455 387 455 Q 394 454 422 458 L 480 465 Z" fill="lightgray"></path>
      </clipPath>
      <path clip-path="url(#make-me-a-hanzi-clip-2)" d="M 332 467 L 535 494 L 575 494 L 582 499 " fill="none" id="make-me-a-hanzi-animation-2" stroke-dasharray="381 762" stroke-linecap="round"></path>

      <clipPath id="make-me-a-hanzi-clip-3">
      <path d="M 479 352 L 480 465 L 481 503 L 482 539 Q 482 554 490 574 Q 498 593 497 596 Q 494 604 467 618 C 441 632 383 635 400 610 L 408 598 Q 412 593 414 583 Q 416 572 420 495 L 422 458 L 426 347 C 427 317 479 322 479 352 Z" fill="lightgray"></path>
      </clipPath>
      <path clip-path="url(#make-me-a-hanzi-clip-3)" d="M 407 606 L 452 576 L 452 377 L 432 355 " fill="none" id="make-me-a-hanzi-animation-3" stroke-dasharray="411 822" stroke-linecap="round"></path>

      <clipPath id="make-me-a-hanzi-clip-4">
      <path d="M 593 351 L 576 358 Q 554 358 544 360 Q 535 362 520 360 L 479 352 L 426 347 L 304 337 C 274 335 274 307 304 302 L 316 300 Q 337 298 430 309 Q 523 319 585 319 C 615 319 621 340 593 351 Z" fill="lightgray"></path>
      </clipPath>
      <path clip-path="url(#make-me-a-hanzi-clip-4)" d="M 312 331 L 322 319 L 336 319 L 528 339 L 565 338 L 586 347 " fill="none" id="make-me-a-hanzi-animation-4" stroke-dasharray="411 822" stroke-linecap="round"></path>

      <clipPath id="make-me-a-hanzi-clip-5">
      <path d="M 176 156 Q 174 174 165 187 Q 150 204 145 176 Q 135 116 98 75 L 90 66 Q 85 58 85 34 Q 85 10 100 -11 Q 115 -33 136 -14 Q 156 5 172 56 Q 189 107 176 156 Z" fill="lightgray"></path>
      </clipPath>
      <path clip-path="url(#make-me-a-hanzi-clip-5)" d="M 155 182 L 156 120 L 146 84 L 124 40 L 118 -2 " fill="none" id="make-me-a-hanzi-animation-5" stroke-dasharray="319 638" stroke-linecap="round"></path>

      <clipPath id="make-me-a-hanzi-clip-6">
      <path d="M 695 99 L 672 125 Q 664 133 660 133 Q 652 133 660 112 L 668 88 L 679 46 Q 683 29 685 17 Q 687 4 679 -2 Q 646 -24 584 -24 Q 427 -26 356 45 Q 334 67 323 94 Q 313 120 305 143 Q 298 166 293 177 Q 276 203 260 198 Q 256 198 253 197 Q 250 196 250 192 L 254 176 Q 257 164 296 67 Q 305 46 326 13 Q 352 -29 430 -61 Q 509 -94 609 -92 Q 659 -92 690 -85 Q 867 -46 791 16 L 764 35 Q 730 63 695 99 Z" fill="lightgray"></path>
      </clipPath>
      <path clip-path="url(#make-me-a-hanzi-clip-6)" d="M 257 191 L 274 173 L 320 58 L 356 13 L 414 -25 L 499 -51 L 570 -58 L 657 -53 L 698 -42 L 737 -13 L 664 126 " fill="none" id="make-me-a-hanzi-animation-6" stroke-dasharray="899 1798" stroke-linecap="round"></path>

      <clipPath id="make-me-a-hanzi-clip-7">
      <path d="M 410 200 L 441 164 Q 464 137 483 124 Q 530 92 539 136 Q 545 163 531 177 Q 511 200 480 207 L 440 217 Q 404 226 404 210 Q 404 206 410 200 Z" fill="lightgray"></path>
      </clipPath>
      <path clip-path="url(#make-me-a-hanzi-clip-7)" d="M 415 210 L 486 168 L 505 152 L 515 133 " fill="none" id="make-me-a-hanzi-animation-7" stroke-dasharray="257 514" stroke-linecap="round"></path>

      <clipPath id="make-me-a-hanzi-clip-8">
      <path d="M 755 252 L 731 262 Q 707 269 707 258 Q 706 256 718 243 Q 731 230 777 179 L 825 122 Q 835 110 851 101 Q 868 91 880 107 Q 892 122 892 140 Q 892 158 884 173 Q 861 216 785 244 L 755 252 Z" fill="lightgray"></path>
      </clipPath>
      <path clip-path="url(#make-me-a-hanzi-clip-8)" d="M 713 258 L 784 215 L 831 176 L 853 148 L 863 117 " fill="none" id="make-me-a-hanzi-animation-8" stroke-dasharray="340 680" stroke-linecap="round"></path>

      <clipPath id="make-me-a-hanzi-clip-9">
      <path d="M 1572 584 L 1608 589 Q 1630 591 1674 600 L 1713 608 Q 1726 611 1718 628 Q 1712 637 1687.5 646.5 Q 1663 656 1658 656 L 1572 635 L 1512 624 L 1477 618 Q 1417 609 1410 609 L 1378 606 Q 1360 605 1358 600 Q 1354 585 1383 574 Q 1398 571 1408.5 570 Q 1419 569 1462 572 L 1512 576 L 1572 584 Z" fill="lightgray"></path>
      </clipPath>
      <path clip-path="url(#make-me-a-hanzi-clip-9)" d="M 1365 596 L 1393 589 L 1479 595 L 1669 627 L 1710 619 " fill="none" id="make-me-a-hanzi-animation-9" stroke-dasharray="478 956" stroke-linecap="round"></path>

      <clipPath id="make-me-a-hanzi-clip-10">
      <path d="M 1572 462 L 1572 584 L 1572 635 L 1573 691 Q 1573 729 1581 756 L 1587 772 L 1592 782 Q 1592 793 1579 802 Q 1566 810 1551 814 Q 1501 829 1493 817 Q 1490 812 1496 801 L 1499 791 Q 1512 757 1512 679 L 1512 624 L 1512 576 L 1511 456 C 1511 426 1572 432 1572 462 Z" fill="lightgray"></path>
      </clipPath>
      <path clip-path="url(#make-me-a-hanzi-clip-10)" d="M 1500 813 L 1545 773 L 1542 490 L 1518 463 " fill="none" id="make-me-a-hanzi-animation-10" stroke-dasharray="507 1014" stroke-linecap="round"></path>

      <clipPath id="make-me-a-hanzi-clip-11">
      <path d="M 1246 424 L 1184 420 L 1158 418 Q 1135 414 1150 396 Q 1158 386 1183 373 Q 1208 360 1224.5 360 Q 1241 360 1250 363.5 Q 1259 367 1305 380 Q 1362 393 1366 394 L 1447 407 Q 1501 414 1510 415 L 1524 416 Q 1534 416 1536 417 L 1637 427 L 1668 429 Q 1738 436 1754 436 L 1848 440 Q 1899 444 1929 444 L 1999 443 Q 2020 442 2024 451 Q 2028 460 2020 472 Q 2011 489 1953 512 Q 1938 518 1928 517 L 1884 505 L 1842 497 Q 1841 497 1805.5 491.5 Q 1770 486 1752 482 L 1737 479 Q 1727 477 1720 477 L 1689 474 L 1590 464 L 1572 462 L 1511 456 L 1488 454 L 1319 432 Q 1316 432 1246 424 Z" fill="lightgray"></path>
      </clipPath>
      <path clip-path="url(#make-me-a-hanzi-clip-11)" d="M 1156 406 L 1230 391 L 1483 433 L 1930 481 L 1986 469 L 2013 457 " fill="none" id="make-me-a-hanzi-animation-11" stroke-dasharray="996 1992" stroke-linecap="round"></path>

      <clipPath id="make-me-a-hanzi-clip-12">
      <path d="M 1536 417 L 1528 410 L 1506 394 Q 1462 357 1402 318 Q 1271 229 1176 186 L 1100 151 Q 1092 146 1094 137.5 Q 1096 129 1108 132 L 1138 138 Q 1251 163 1373 239 L 1431 274 L 1477 305 L 1501 320 Q 1504 323 1508 326 L 1528 341 Q 1604 398 1610 404 L 1637 427 L 1689 474 L 1829 608 Q 1850 629 1863.5 633.5 Q 1877 638 1879.5 642.5 Q 1882 647 1876.5 665 Q 1871 683 1852 696 Q 1831 717 1809 725 Q 1796 726 1794 725 Q 1793 722 1792 715.5 Q 1791 709 1781.5 681.5 Q 1772 654 1754 635 L 1710 580 L 1616 487 L 1590 464 L 1536 417 Z" fill="lightgray"></path>
      </clipPath>
      <path clip-path="url(#make-me-a-hanzi-clip-12)" d="M 1802 718 L 1820 672 L 1820 659 L 1809 643 L 1727 553 L 1586 421 L 1481 339 L 1338 246 L 1210 179 L 1104 141 " fill="none" id="make-me-a-hanzi-animation-12" stroke-dasharray="1086 2172" stroke-linecap="round"></path>

      <clipPath id="make-me-a-hanzi-clip-13">
      <path d="M 1431 274 L 1452 269 Q 1453 268 1475 265 L 1544 269 L 1718 285 Q 1733 286 1751 288 L 1774 290 Q 1792 292 1794 301 Q 1795 312 1778 321 Q 1757 330 1742 331 Q 1727 332 1706 332 L 1629 322 L 1477 305 C 1447 302 1402 281 1431 274 Z" fill="lightgray"></path>
      </clipPath>
      <path clip-path="url(#make-me-a-hanzi-clip-13)" d="M 1437 277 L 1487 287 L 1712 309 L 1784 303 " fill="none" id="make-me-a-hanzi-animation-13" stroke-dasharray="477 954" stroke-linecap="round"></path>

      <clipPath id="make-me-a-hanzi-clip-14">
      <path d="M 1475 265 L 1476 250 Q 1476 212 1454 177 Q 1447 167 1442 163 L 1433 154 Q 1432 150 1433 143 Q 1433 125 1449 109 Q 1457 103 1463 103 Q 1468 102 1492 118 Q 1515 133 1563 144 Q 1589 152 1608 154 L 1651 158 Q 1668 159 1680 158 Q 1700 153 1700 132 L 1698 98 Q 1695 58 1674 -10 Q 1651 -77 1616 -82 Q 1597 -85 1563 -64 L 1546 -54 Q 1538 -50 1534 -54 Q 1530 -58 1534 -64 L 1560 -102 Q 1572 -121 1575 -128 L 1588 -158 Q 1596 -178 1605 -180 Q 1612 -183 1636 -171 Q 1691 -143 1713 -96 Q 1725 -70 1740 -13 Q 1754 44 1754 46 L 1774 114 Q 1775 119 1784 127 Q 1792 135 1793 140 Q 1794 144 1781 156 Q 1767 173 1757 179 L 1728 196 Q 1702 210 1691 207 Q 1679 203 1644 195 L 1612 188 Q 1549 176 1532 176 Q 1513 172 1510 180 Q 1509 183 1515 193 Q 1526 206 1533 218 Q 1539 230 1547 238 Q 1554 245 1554 251 Q 1554 257 1544 269 C 1534 297 1475 295 1475 265 Z" fill="lightgray"></path>
      </clipPath>
      <path clip-path="url(#make-me-a-hanzi-clip-14)" d="M 1538 257 L 1506 235 L 1487 189 L 1483 155 L 1514 152 L 1605 172 L 1692 181 L 1709 175 L 1741 139 L 1707 -14 L 1686 -69 L 1663 -102 L 1622 -126 L 1540 -59 " fill="none" id="make-me-a-hanzi-animation-14" stroke-dasharray="938 1876" stroke-linecap="round"></path>

</g>
</svg>
