<svg version="1.1" viewBox="0 0 4096 1024" xmlns="http://www.w3.org/2000/svg">
  <g stroke="lightgray" stroke-dasharray="1,1" stroke-width="1" transform="scale(4, 4)">
    <line x1="0" y1="0" x2="256" y2="256"></line>
    <line x1="256" y1="0" x2="0" y2="256"></line>
    <line x1="128" y1="0" x2="128" y2="256"></line>
    <line x1="0" y1="128" x2="256" y2="128"></line>
    <line x1="256" y1="0" x2="512" y2="256"></line>
    <line x1="512" y1="0" x2="256" y2="256"></line>
    <line x1="384" y1="0" x2="384" y2="256"></line>
    <line x1="256" y1="128" x2="512" y2="128"></line>
    <line x1="512" y1="0" x2="768" y2="256"></line>
    <line x1="768" y1="0" x2="512" y2="256"></line>
    <line x1="640" y1="0" x2="640" y2="256"></line>
    <line x1="512" y1="128" x2="768" y2="128"></line>
    <line x1="768" y1="0" x2="1024" y2="256"></line>
    <line x1="1024" y1="0" x2="768" y2="256"></line>
    <line x1="896" y1="0" x2="896" y2="256"></line>
    <line x1="768" y1="128" x2="1024" y2="128"></line>
  </g>
<g transform="scale(1, -1) translate(0, -850)">
   <style type="text/css">
    @keyframes keyframes0 {
      from {
       stroke: black;
       stroke-dashoffset: 559;
       stroke-width: 128;
       }
       65% {
       animation-timing-function: step-end;
       stroke: black;
       stroke-dashoffset: 0;
       stroke-width: 128;
       }
       to {
       stroke: black;
       stroke-width: 1024;
       }
       }
       #make-me-a-hanzi-animation-0 {
         animation: keyframes0 0.704915s both;
         animation-delay: 0.000000s;
         animation-timing-function: linear;
       }
    @keyframes keyframes1 {
      from {
       stroke: black;
       stroke-dashoffset: 810;
       stroke-width: 128;
       }
       73% {
       animation-timing-function: step-end;
       stroke: black;
       stroke-dashoffset: 0;
       stroke-width: 128;
       }
       to {
       stroke: black;
       stroke-width: 1024;
       }
       }
       #make-me-a-hanzi-animation-1 {
         animation: keyframes1 0.909180s both;
         animation-delay: 0.704915s;
         animation-timing-function: linear;
       }
    @keyframes keyframes2 {
      from {
       stroke: black;
       stroke-dashoffset: 616;
       stroke-width: 128;
       }
       67% {
       animation-timing-function: step-end;
       stroke: black;
       stroke-dashoffset: 0;
       stroke-width: 128;
       }
       to {
       stroke: black;
       stroke-width: 1024;
       }
       }
       #make-me-a-hanzi-animation-2 {
         animation: keyframes2 0.751302s both;
         animation-delay: 1.614095s;
         animation-timing-function: linear;
       }
    @keyframes keyframes3 {
      from {
       stroke: black;
       stroke-dashoffset: 384;
       stroke-width: 128;
       }
       56% {
       animation-timing-function: step-end;
       stroke: black;
       stroke-dashoffset: 0;
       stroke-width: 128;
       }
       to {
       stroke: black;
       stroke-width: 1024;
       }
       }
       #make-me-a-hanzi-animation-3 {
         animation: keyframes3 0.562500s both;
         animation-delay: 2.365397s;
         animation-timing-function: linear;
       }
    @keyframes keyframes4 {
      from {
       stroke: black;
       stroke-dashoffset: 672;
       stroke-width: 128;
       }
       69% {
       animation-timing-function: step-end;
       stroke: black;
       stroke-dashoffset: 0;
       stroke-width: 128;
       }
       to {
       stroke: black;
       stroke-width: 1024;
       }
       }
       #make-me-a-hanzi-animation-4 {
         animation: keyframes4 0.796875s both;
         animation-delay: 2.927897s;
         animation-timing-function: linear;
       }
    @keyframes keyframes5 {
      from {
       stroke: black;
       stroke-dashoffset: 850;
       stroke-width: 128;
       }
       73% {
       animation-timing-function: step-end;
       stroke: black;
       stroke-dashoffset: 0;
       stroke-width: 128;
       }
       to {
       stroke: black;
       stroke-width: 1024;
       }
       }
       #make-me-a-hanzi-animation-5 {
         animation: keyframes5 0.941732s both;
         animation-delay: 3.724772s;
         animation-timing-function: linear;
       }
    @keyframes keyframes6 {
      from {
       stroke: black;
       stroke-dashoffset: 402;
       stroke-width: 128;
       }
       57% {
       animation-timing-function: step-end;
       stroke: black;
       stroke-dashoffset: 0;
       stroke-width: 128;
       }
       to {
       stroke: black;
       stroke-width: 1024;
       }
       }
       #make-me-a-hanzi-animation-6 {
         animation: keyframes6 0.577148s both;
         animation-delay: 4.666504s;
         animation-timing-function: linear;
       }
    @keyframes keyframes7 {
      from {
       stroke: black;
       stroke-dashoffset: 413;
       stroke-width: 128;
       }
       57% {
       animation-timing-function: step-end;
       stroke: black;
       stroke-dashoffset: 0;
       stroke-width: 128;
       }
       to {
       stroke: black;
       stroke-width: 1024;
       }
       }
       #make-me-a-hanzi-animation-7 {
         animation: keyframes7 0.586100s both;
         animation-delay: 5.243652s;
         animation-timing-function: linear;
       }
    @keyframes keyframes8 {
      from {
       stroke: black;
       stroke-dashoffset: 414;
       stroke-width: 128;
       }
       57% {
       animation-timing-function: step-end;
       stroke: black;
       stroke-dashoffset: 0;
       stroke-width: 128;
       }
       to {
       stroke: black;
       stroke-width: 1024;
       }
       }
       #make-me-a-hanzi-animation-8 {
         animation: keyframes8 0.586914s both;
         animation-delay: 5.829752s;
         animation-timing-function: linear;
       }
    @keyframes keyframes9 {
      from {
       stroke: black;
       stroke-dashoffset: 449;
       stroke-width: 128;
       }
       59% {
       animation-timing-function: step-end;
       stroke: black;
       stroke-dashoffset: 0;
       stroke-width: 128;
       }
       to {
       stroke: black;
       stroke-width: 1024;
       }
       }
       #make-me-a-hanzi-animation-9 {
         animation: keyframes9 0.615397s both;
         animation-delay: 6.416666s;
         animation-timing-function: linear;
       }
    @keyframes keyframes10 {
      from {
       stroke: black;
       stroke-dashoffset: 945;
       stroke-width: 128;
       }
       75% {
       animation-timing-function: step-end;
       stroke: black;
       stroke-dashoffset: 0;
       stroke-width: 128;
       }
       to {
       stroke: black;
       stroke-width: 1024;
       }
       }
       #make-me-a-hanzi-animation-10 {
         animation: keyframes10 1.019043s both;
         animation-delay: 7.032063s;
         animation-timing-function: linear;
       }
    @keyframes keyframes11 {
      from {
       stroke: black;
       stroke-dashoffset: 407;
       stroke-width: 128;
       }
       57% {
       animation-timing-function: step-end;
       stroke: black;
       stroke-dashoffset: 0;
       stroke-width: 128;
       }
       to {
       stroke: black;
       stroke-width: 1024;
       }
       }
       #make-me-a-hanzi-animation-11 {
         animation: keyframes11 0.581217s both;
         animation-delay: 8.051106s;
         animation-timing-function: linear;
       }
    @keyframes keyframes12 {
      from {
       stroke: black;
       stroke-dashoffset: 448;
       stroke-width: 128;
       }
       59% {
       animation-timing-function: step-end;
       stroke: black;
       stroke-dashoffset: 0;
       stroke-width: 128;
       }
       to {
       stroke: black;
       stroke-width: 1024;
       }
       }
       #make-me-a-hanzi-animation-12 {
         animation: keyframes12 0.614583s both;
         animation-delay: 8.632323s;
         animation-timing-function: linear;
       }
    @keyframes keyframes13 {
      from {
       stroke: black;
       stroke-dashoffset: 433;
       stroke-width: 128;
       }
       58% {
       animation-timing-function: step-end;
       stroke: black;
       stroke-dashoffset: 0;
       stroke-width: 128;
       }
       to {
       stroke: black;
       stroke-width: 1024;
       }
       }
       #make-me-a-hanzi-animation-13 {
         animation: keyframes13 0.602376s both;
         animation-delay: 9.246906s;
         animation-timing-function: linear;
       }
    @keyframes keyframes14 {
      from {
       stroke: black;
       stroke-dashoffset: 1063;
       stroke-width: 128;
       }
       78% {
       animation-timing-function: step-end;
       stroke: black;
       stroke-dashoffset: 0;
       stroke-width: 128;
       }
       to {
       stroke: black;
       stroke-width: 1024;
       }
       }
       #make-me-a-hanzi-animation-14 {
         animation: keyframes14 1.115072s both;
         animation-delay: 9.849282s;
         animation-timing-function: linear;
       }
    @keyframes keyframes15 {
      from {
       stroke: black;
       stroke-dashoffset: 956;
       stroke-width: 128;
       }
       76% {
       animation-timing-function: step-end;
       stroke: black;
       stroke-dashoffset: 0;
       stroke-width: 128;
       }
       to {
       stroke: black;
       stroke-width: 1024;
       }
       }
       #make-me-a-hanzi-animation-15 {
         animation: keyframes15 1.027995s both;
         animation-delay: 10.964354s;
         animation-timing-function: linear;
       }
    @keyframes keyframes16 {
      from {
       stroke: black;
       stroke-dashoffset: 932;
       stroke-width: 128;
       }
       75% {
       animation-timing-function: step-end;
       stroke: black;
       stroke-dashoffset: 0;
       stroke-width: 128;
       }
       to {
       stroke: black;
       stroke-width: 1024;
       }
       }
       #make-me-a-hanzi-animation-16 {
         animation: keyframes16 1.008464s both;
         animation-delay: 11.992349s;
         animation-timing-function: linear;
       }
    @keyframes keyframes17 {
      from {
       stroke: black;
       stroke-dashoffset: 410;
       stroke-width: 128;
       }
       57% {
       animation-timing-function: step-end;
       stroke: black;
       stroke-dashoffset: 0;
       stroke-width: 128;
       }
       to {
       stroke: black;
       stroke-width: 1024;
       }
       }
       #make-me-a-hanzi-animation-17 {
         animation: keyframes17 0.583659s both;
         animation-delay: 13.000813s;
         animation-timing-function: linear;
       }
    @keyframes keyframes18 {
      from {
       stroke: black;
       stroke-dashoffset: 916;
       stroke-width: 128;
       }
       75% {
       animation-timing-function: step-end;
       stroke: black;
       stroke-dashoffset: 0;
       stroke-width: 128;
       }
       to {
       stroke: black;
       stroke-width: 1024;
       }
       }
       #make-me-a-hanzi-animation-18 {
         animation: keyframes18 0.995443s both;
         animation-delay: 13.584472s;
         animation-timing-function: linear;
       }
    @keyframes keyframes19 {
      from {
       stroke: black;
       stroke-dashoffset: 646;
       stroke-width: 128;
       }
       68% {
       animation-timing-function: step-end;
       stroke: black;
       stroke-dashoffset: 0;
       stroke-width: 128;
       }
       to {
       stroke: black;
       stroke-width: 1024;
       }
       }
       #make-me-a-hanzi-animation-19 {
         animation: keyframes19 0.775716s both;
         animation-delay: 14.579915s;
         animation-timing-function: linear;
       }
    @keyframes keyframes20 {
      from {
       stroke: black;
       stroke-dashoffset: 838;
       stroke-width: 128;
       }
       73% {
       animation-timing-function: step-end;
       stroke: black;
       stroke-dashoffset: 0;
       stroke-width: 128;
       }
       to {
       stroke: black;
       stroke-width: 1024;
       }
       }
       #make-me-a-hanzi-animation-20 {
         animation: keyframes20 0.931966s both;
         animation-delay: 15.355631s;
         animation-timing-function: linear;
       }
    @keyframes keyframes21 {
      from {
       stroke: black;
       stroke-dashoffset: 1117;
       stroke-width: 128;
       }
       78% {
       animation-timing-function: step-end;
       stroke: black;
       stroke-dashoffset: 0;
       stroke-width: 128;
       }
       to {
       stroke: black;
       stroke-width: 1024;
       }
       }
       #make-me-a-hanzi-animation-21 {
         animation: keyframes21 1.159017s both;
         animation-delay: 16.287597s;
         animation-timing-function: linear;
       }
    @keyframes keyframes22 {
      from {
       stroke: black;
       stroke-dashoffset: 869;
       stroke-width: 128;
       }
       74% {
       animation-timing-function: step-end;
       stroke: black;
       stroke-dashoffset: 0;
       stroke-width: 128;
       }
       to {
       stroke: black;
       stroke-width: 1024;
       }
       }
       #make-me-a-hanzi-animation-22 {
         animation: keyframes22 0.957194s both;
         animation-delay: 17.446614s;
         animation-timing-function: linear;
       }
    @keyframes keyframes23 {
      from {
       stroke: black;
       stroke-dashoffset: 412;
       stroke-width: 128;
       }
       57% {
       animation-timing-function: step-end;
       stroke: black;
       stroke-dashoffset: 0;
       stroke-width: 128;
       }
       to {
       stroke: black;
       stroke-width: 1024;
       }
       }
       #make-me-a-hanzi-animation-23 {
         animation: keyframes23 0.585286s both;
         animation-delay: 18.403808s;
         animation-timing-function: linear;
       }
    @keyframes keyframes24 {
      from {
       stroke: black;
       stroke-dashoffset: 405;
       stroke-width: 128;
       }
       57% {
       animation-timing-function: step-end;
       stroke: black;
       stroke-dashoffset: 0;
       stroke-width: 128;
       }
       to {
       stroke: black;
       stroke-width: 1024;
       }
       }
       #make-me-a-hanzi-animation-24 {
         animation: keyframes24 0.579590s both;
         animation-delay: 18.989094s;
         animation-timing-function: linear;
       }
    @keyframes keyframes25 {
      from {
       stroke: black;
       stroke-dashoffset: 646;
       stroke-width: 128;
       }
       68% {
       animation-timing-function: step-end;
       stroke: black;
       stroke-dashoffset: 0;
       stroke-width: 128;
       }
       to {
       stroke: black;
       stroke-width: 1024;
       }
       }
       #make-me-a-hanzi-animation-25 {
         animation: keyframes25 0.775716s both;
         animation-delay: 19.568684s;
         animation-timing-function: linear;
       }
    @keyframes keyframes26 {
      from {
       stroke: black;
       stroke-dashoffset: 623;
       stroke-width: 128;
       }
       67% {
       animation-timing-function: step-end;
       stroke: black;
       stroke-dashoffset: 0;
       stroke-width: 128;
       }
       to {
       stroke: black;
       stroke-width: 1024;
       }
       }
       #make-me-a-hanzi-animation-26 {
         animation: keyframes26 0.756999s both;
         animation-delay: 20.344400s;
         animation-timing-function: linear;
       }
    @keyframes keyframes27 {
      from {
       stroke: black;
       stroke-dashoffset: 695;
       stroke-width: 128;
       }
       69% {
       animation-timing-function: step-end;
       stroke: black;
       stroke-dashoffset: 0;
       stroke-width: 128;
       }
       to {
       stroke: black;
       stroke-width: 1024;
       }
       }
       #make-me-a-hanzi-animation-27 {
         animation: keyframes27 0.815592s both;
         animation-delay: 21.101399s;
         animation-timing-function: linear;
       }
    @keyframes keyframes28 {
      from {
       stroke: black;
       stroke-dashoffset: 910;
       stroke-width: 128;
       }
       75% {
       animation-timing-function: step-end;
       stroke: black;
       stroke-dashoffset: 0;
       stroke-width: 128;
       }
       to {
       stroke: black;
       stroke-width: 1024;
       }
       }
       #make-me-a-hanzi-animation-28 {
         animation: keyframes28 0.990560s both;
         animation-delay: 21.916991s;
         animation-timing-function: linear;
       }
    @keyframes keyframes29 {
      from {
       stroke: black;
       stroke-dashoffset: 921;
       stroke-width: 128;
       }
       75% {
       animation-timing-function: step-end;
       stroke: black;
       stroke-dashoffset: 0;
       stroke-width: 128;
       }
       to {
       stroke: black;
       stroke-width: 1024;
       }
       }
       #make-me-a-hanzi-animation-29 {
         animation: keyframes29 0.999512s both;
         animation-delay: 22.907551s;
         animation-timing-function: linear;
       }
    @keyframes keyframes30 {
      from {
       stroke: black;
       stroke-dashoffset: 519;
       stroke-width: 128;
       }
       63% {
       animation-timing-function: step-end;
       stroke: black;
       stroke-dashoffset: 0;
       stroke-width: 128;
       }
       to {
       stroke: black;
       stroke-width: 1024;
       }
       }
       #make-me-a-hanzi-animation-30 {
         animation: keyframes30 0.672363s both;
         animation-delay: 23.907063s;
         animation-timing-function: linear;
       }
</style>
<path d="M 235.0 538.0 L 320.0 545.0 L 379.0 553.0 L 435.0 564.0 Q 453.0 569.0 472.0 571.0 Q 491.0 572.0 494.0 584.0 Q 497.0 590.0 484.0 597.0 Q 463.0 612.0 446.0 612.0 Q 430.0 611.0 413.0 606.0 L 381.0 598.0 L 334.0 590.0 L 316.0 585.0 Q 295.0 581.0 286.0 580.0 L 197.0 569.0 Q 181.0 568.0 179.0 564.0 Q 177.0 559.0 187.0 549.0 Q 198.0 538.0 235.0 538.0 Z" fill="lightgray"></path> 
<path d="M 328.0 452.0 L 328.0 414.0 Q 328.0 410.0 322.0 375.0 Q 318.0 336.0 313.0 324.0 L 305.0 295.0 Q 304.0 294.0 314.0 268.0 L 324.0 240.0 Q 333.0 214.0 343.0 214.0 Q 358.0 214.0 369.0 251.0 Q 377.0 270.0 378.0 282.0 L 373.0 420.0 Q 375.0 429.0 375.0 446.0 L 375.0 472.0 L 375.0 486.0 L 379.0 535.0 L 379.0 553.0 L 381.0 598.0 L 383.0 628.0 Q 383.0 680.0 389.0 694.0 L 402.0 722.0 Q 407.0 730.0 405.0 735.0 Q 405.0 741.0 395.0 748.0 Q 388.0 755.0 363.0 766.0 Q 339.0 777.0 329.0 773.0 Q 311.0 770.0 320.0 754.0 L 329.0 734.0 Q 338.0 714.0 337.0 684.0 L 334.0 590.0 L 328.0 452.0 Z" fill="lightgray"></path> 
<path d="M 320.0 545.0 L 299.0 503.0 L 269.0 450.0 L 231.0 391.0 Q 185.0 329.0 147.0 294.0 L 118.0 267.0 Q 107.0 260.0 111.0 256.0 Q 111.0 253.0 122.0 257.0 L 148.0 268.0 Q 153.0 270.0 186.0 294.0 Q 219.0 317.0 229.0 325.0 Q 239.0 333.0 262.0 361.0 Q 286.0 389.0 301.0 410.0 L 328.0 452.0 C 400.0 564.0 333.0 572.0 320.0 545.0 Z" fill="lightgray"></path> 
<path d="M 375.0 472.0 L 391.0 460.0 Q 406.0 449.0 435.0 416.0 Q 456.0 396.0 460.0 393.0 Q 474.0 385.0 480.0 387.0 Q 486.0 388.0 491.0 394.0 Q 500.0 409.0 498.0 420.0 Q 497.0 430.0 495.0 440.0 Q 493.0 445.0 485.0 451.0 Q 478.0 456.0 437.0 469.0 Q 396.0 482.0 375.0 486.0 C 349.0 491.0 351.0 490.0 375.0 472.0 Z" fill="lightgray"></path> 
<path d="M 587.0 658.0 L 566.0 667.0 Q 554.0 672.0 548.0 672.0 Q 532.0 670.0 536.0 656.0 L 544.0 634.0 Q 549.0 621.0 549.0 572.0 L 549.0 534.0 L 545.0 442.0 L 540.0 368.0 L 534.0 324.0 Q 527.0 300.0 534.0 278.0 L 539.0 261.0 L 546.0 246.0 Q 550.0 240.0 556.0 240.0 Q 563.0 240.0 567.0 243.0 Q 571.0 246.0 576.0 265.0 L 580.0 298.0 L 581.0 348.0 Q 581.0 355.0 584.0 398.0 L 585.0 421.0 L 588.0 502.0 L 588.0 526.0 L 593.0 628.0 C 594.0 655.0 594.0 655.0 587.0 658.0 Z" fill="lightgray"></path> 
<path d="M 740.0 276.0 L 746.0 260.0 Q 755.0 236.0 767.0 236.0 Q 773.0 236.0 786.0 258.0 Q 800.0 280.0 800.0 322.0 L 799.0 364.0 L 799.0 535.0 Q 799.0 600.0 808.0 618.0 L 816.0 636.0 Q 819.0 643.0 819.0 648.0 Q 815.0 660.0 791.0 676.0 L 780.0 682.0 Q 777.0 683.0 768.0 689.0 Q 760.0 694.0 749.0 694.0 L 669.0 674.0 L 587.0 658.0 C 558.0 652.0 563.0 623.0 593.0 628.0 L 601.0 628.0 L 673.0 648.0 Q 724.0 662.0 736.0 651.0 Q 740.0 645.0 744.0 609.0 L 747.0 536.0 L 747.0 525.0 L 748.0 426.0 L 748.0 414.0 L 749.0 386.0 L 747.0 354.0 Q 744.0 306.0 740.0 305.0 C 736.0 287.0 736.0 287.0 740.0 276.0 Z" fill="lightgray"></path> 
<path d="M 617.0 500.0 L 673.0 506.0 Q 705.0 509.0 720.0 515.0 Q 735.0 521.0 747.0 525.0 C 761.0 530.0 761.0 530.0 747.0 536.0 L 734.0 542.0 L 716.0 548.0 Q 698.0 554.0 682.0 549.0 L 619.0 532.0 L 588.0 526.0 C 559.0 520.0 558.0 504.0 588.0 502.0 L 617.0 500.0 Z" fill="lightgray"></path> 
<path d="M 584.0 398.0 L 601.0 396.0 Q 642.0 392.0 695.0 404.0 L 703.0 404.0 L 713.0 407.0 L 732.0 410.0 Q 746.0 413.0 748.0 414.0 C 763.0 418.0 763.0 418.0 748.0 426.0 L 736.0 432.0 L 695.0 444.0 L 585.0 421.0 C 556.0 415.0 554.0 402.0 584.0 398.0 Z" fill="lightgray"></path> 
<path d="M 609.0 265.0 L 740.0 276.0 C 770.0 279.0 770.0 309.0 740.0 305.0 Q 737.0 303.0 726.0 306.0 L 713.0 310.0 Q 708.0 312.0 687.0 310.0 L 580.0 298.0 C 550.0 295.0 546.0 265.0 576.0 265.0 L 599.0 265.0 Q 599.0 264.0 609.0 265.0 Z" fill="lightgray"></path> 
<path d="M 198.0 -52.0 Q 214.0 -57.0 232.0 -25.0 L 255.0 17.0 Q 268.0 48.0 272.0 64.0 Q 277.0 128.0 264.0 142.0 Q 260.0 156.0 255.0 158.0 Q 251.0 159.0 247.0 158.0 Q 243.0 158.0 240.0 143.0 Q 218.0 86.0 197.0 58.0 Q 176.0 29.0 175.0 23.0 L 172.0 8.0 Q 168.0 -31.0 180.0 -42.0 Q 186.0 -52.0 198.0 -52.0 Z" fill="lightgray"></path> 
<path d="M 353.0 129.0 L 369.0 74.0 Q 372.0 65.0 377.0 57.0 L 397.0 21.0 Q 409.0 0.0 430.0 -19.0 Q 485.0 -68.0 570.0 -85.0 Q 644.0 -101.0 738.0 -82.0 Q 833.0 -64.0 854.0 -38.0 Q 861.0 -25.0 851.0 -14.0 Q 848.0 -9.0 833.0 -1.0 L 805.0 13.0 L 783.0 27.0 L 727.0 69.0 L 707.0 88.0 Q 702.0 94.0 698.0 90.0 Q 697.0 87.0 698.0 83.0 L 708.0 64.0 Q 709.0 59.0 722.0 38.0 L 734.0 14.0 Q 740.0 1.0 738.0 -4.0 Q 733.0 -16.0 698.0 -22.0 Q 652.0 -33.0 610.0 -30.0 Q 488.0 -23.0 434.0 39.0 Q 421.0 53.0 408.0 79.0 Q 395.0 105.0 392.0 117.0 Q 389.0 129.0 385.0 141.0 Q 381.0 161.0 378.0 162.0 L 363.0 171.0 Q 339.0 179.0 336.0 168.0 Q 335.0 163.0 339.0 158.0 L 353.0 129.0 Z" fill="lightgray"></path> 
<path d="M 502.0 202.0 L 492.0 202.0 Q 491.0 201.0 493.0 191.0 Q 495.0 180.0 511.0 158.0 L 528.0 130.0 Q 549.0 89.0 570.0 75.0 Q 591.0 53.0 602.0 77.0 Q 613.0 100.0 600.0 137.0 Q 590.0 159.0 556.0 179.0 Q 523.0 198.0 502.0 202.0 Z" fill="lightgray"></path> 
<path d="M 785.0 181.0 L 767.0 186.0 Q 754.0 190.0 752.0 186.0 Q 751.0 182.0 758.0 175.0 L 773.0 160.0 Q 776.0 157.0 783.0 147.0 Q 790.0 137.0 815.0 110.0 L 865.0 48.0 Q 872.0 40.0 882.0 36.0 Q 893.0 31.0 900.0 34.0 Q 917.0 39.0 914.0 82.0 Q 912.0 105.0 888.0 126.0 Q 876.0 136.0 849.0 151.0 L 814.0 170.0 Q 807.0 173.0 785.0 181.0 Z" fill="lightgray"></path> 
<path d="M 1597.0 580.5 L 1602.0 595.5 Q 1611.0 619.5 1592.0 665.5 Q 1587.0 675.5 1567.0 691.5 Q 1547.0 707.5 1528.0 716.5 Q 1510.0 725.5 1492.0 729.5 Q 1475.0 733.5 1471.0 729.5 Q 1465.0 721.5 1500.0 651.5 L 1525.0 607.5 L 1551.0 575.5 C 1570.0 552.5 1588.0 552.5 1597.0 580.5 Z" fill="lightgray"></path> 
<path d="M 1209.0 535.5 L 1171.0 534.5 Q 1142.0 531.5 1139.0 525.5 Q 1137.0 519.5 1141.0 513.5 Q 1147.0 505.5 1168.0 490.5 Q 1190.0 474.5 1203.0 473.5 Q 1217.0 471.5 1223.0 472.5 Q 1230.0 472.5 1260.0 483.5 Q 1291.0 494.5 1336.0 504.5 Q 1382.0 513.5 1393.0 514.5 L 1471.0 525.5 L 1510.0 531.5 L 1606.0 541.5 Q 1632.0 544.5 1699.0 546.5 L 1759.0 547.5 Q 1805.0 547.5 1839.0 548.5 Q 1873.0 548.5 1898.0 545.5 L 1927.0 543.5 Q 1945.0 541.5 1949.0 545.5 Q 1953.0 549.5 1953.0 556.5 Q 1953.0 562.5 1948.0 569.5 Q 1943.0 575.5 1920.0 591.5 Q 1898.0 607.5 1886.0 610.5 Q 1874.0 612.5 1832.0 606.5 L 1789.0 599.5 L 1597.0 580.5 L 1551.0 575.5 L 1318.0 547.5 Q 1257.0 537.5 1235.0 537.5 Q 1213.0 537.5 1209.0 535.5 Z" fill="lightgray"></path> 
<path d="M 1528.0 398.5 L 1539.0 390.5 Q 1556.0 377.5 1572.0 374.5 L 1637.0 362.5 Q 1657.0 358.5 1664.0 350.5 Q 1671.0 342.5 1671.0 321.5 Q 1671.0 300.5 1650.0 228.5 Q 1629.0 156.5 1619.0 133.5 Q 1582.0 45.5 1551.0 45.5 Q 1543.0 44.5 1521.0 53.5 L 1496.0 64.5 L 1467.0 79.5 Q 1459.0 83.5 1456.0 79.5 Q 1453.0 75.5 1456.0 71.5 L 1487.0 26.5 Q 1490.0 21.5 1496.0 15.5 L 1527.0 -36.5 Q 1534.0 -47.5 1542.0 -52.5 Q 1550.0 -57.5 1574.0 -42.5 Q 1616.0 -20.5 1646.0 34.5 L 1675.0 97.5 Q 1691.0 133.5 1721.0 254.5 Q 1730.0 285.5 1744.0 308.5 Q 1758.0 330.5 1761.0 339.5 L 1761.0 347.5 Q 1761.0 358.5 1733.0 380.5 Q 1706.0 401.5 1695.0 401.5 Q 1685.0 401.5 1677.0 400.5 L 1638.0 402.5 Q 1629.0 402.5 1603.0 406.5 Q 1577.0 410.5 1569.0 413.5 L 1541.0 420.5 C 1512.0 427.5 1504.0 416.5 1528.0 398.5 Z" fill="lightgray"></path> 
<path d="M 1471.0 525.5 L 1479.0 487.5 Q 1481.0 469.5 1470.0 433.5 Q 1462.0 396.5 1427.0 339.5 Q 1377.0 251.5 1275.0 149.5 Q 1239.0 114.5 1207.0 92.5 L 1147.0 50.5 L 1125.0 37.5 Q 1119.0 33.5 1120.0 26.5 Q 1121.0 18.5 1135.0 23.5 L 1155.0 31.5 Q 1198.0 49.5 1230.0 66.5 Q 1263.0 82.5 1312.0 122.5 Q 1362.0 161.5 1402.0 205.5 Q 1443.0 249.5 1483.0 315.5 L 1528.0 398.5 L 1541.0 420.5 L 1551.0 440.5 L 1571.0 472.5 Q 1578.0 486.5 1561.0 500.5 Q 1545.0 513.5 1535.0 518.5 L 1510.0 531.5 C 1483.0 545.5 1465.0 554.5 1471.0 525.5 Z" fill="lightgray"></path> 
<path d="M 2234.5 682.0 Q 2213.5 682.0 2213.5 678.0 Q 2213.5 672.0 2251.5 615.0 Q 2295.5 554.0 2326.5 554.0 Q 2349.5 554.0 2349.5 582.0 Q 2349.5 603.0 2340.5 624.0 Q 2325.5 655.0 2292.5 669.0 Q 2265.5 680.0 2234.5 682.0 Z" fill="lightgray"></path> 
<path d="M 2282.5 429.0 Q 2276.5 429.0 2247.5 407.0 Q 2193.5 367.0 2162.5 366.0 Q 2155.5 366.0 2129.5 370.0 Q 2122.5 369.0 2122.5 357.0 Q 2122.5 351.0 2143.5 338.0 Q 2170.5 326.0 2185.5 326.0 Q 2194.5 326.0 2253.5 357.0 Q 2261.5 357.0 2261.5 353.0 L 2251.5 169.0 Q 2247.5 103.0 2211.5 58.0 Q 2198.5 43.0 2198.5 34.0 Q 2198.5 15.0 2208.5 -4.0 Q 2220.5 -35.0 2234.5 -35.0 Q 2240.5 -35.0 2251.5 -16.0 Q 2295.5 52.0 2363.5 114.0 Q 2402.5 153.0 2402.5 158.0 Q 2402.5 166.0 2389.5 166.0 Q 2384.5 166.0 2293.5 96.0 L 2309.5 297.0 Q 2313.5 338.0 2336.5 363.0 Q 2357.5 382.0 2357.5 385.0 Q 2357.5 400.0 2330.5 416.0 Q 2303.5 429.0 2282.5 429.0 Z" fill="lightgray"></path> 
<path d="M 2490.5 678.0 Q 2481.5 676.0 2481.5 666.0 Q 2481.5 663.0 2490.5 653.0 Q 2508.5 626.0 2509.5 590.0 Q 2509.5 491.0 2475.5 436.0 Q 2444.5 386.0 2385.5 353.0 Q 2385.5 349.0 2397.5 349.0 Q 2463.5 349.0 2521.5 434.0 Q 2561.5 507.0 2561.5 590.0 Q 2561.5 614.0 2555.5 634.0 L 2538.5 666.0 Q 2537.5 668.0 2533.5 670.0 Q 2512.5 678.0 2490.5 678.0 Z" fill="lightgray"></path> 
<path d="M 2555.5 634.0 Q 2576.5 636.0 2662.5 653.0 Q 2672.5 653.0 2674.5 641.0 Q 2666.5 580.0 2666.5 513.0 Q 2666.5 450.0 2704.5 427.0 Q 2738.5 410.0 2807.5 410.0 Q 2861.5 410.0 2888.5 419.0 Q 2914.5 430.0 2914.5 441.0 Q 2914.5 454.0 2901.5 465.0 Q 2891.5 475.0 2882.5 477.0 Q 2874.5 477.0 2859.5 471.0 Q 2831.5 462.0 2796.5 462.0 Q 2717.5 462.0 2714.5 513.0 Q 2714.5 563.0 2722.5 598.0 Q 2735.5 631.0 2760.5 652.0 Q 2777.5 670.0 2777.5 678.0 Q 2777.5 688.0 2750.5 706.0 Q 2723.5 722.0 2710.5 722.0 Q 2701.5 722.0 2676.5 706.0 Q 2636.5 678.0 2538.5 666.0 C 2508.5 662.0 2525.5 630.0 2555.5 634.0 Z" fill="lightgray"></path> 
<path d="M 2746.5 370.0 Q 2739.5 370.0 2704.5 354.0 Q 2621.5 326.0 2462.5 309.0 Q 2450.5 306.0 2450.5 301.0 Q 2450.5 295.0 2471.5 284.0 Q 2478.5 281.0 2488.5 279.0 L 2557.5 281.0 Q 2583.5 287.0 2626.5 299.0 Q 2685.5 313.0 2697.5 313.0 Q 2716.5 313.0 2718.5 301.0 Q 2718.5 290.0 2692.5 240.0 Q 2674.5 202.0 2649.5 168.0 L 2618.5 127.0 Q 2608.5 117.0 2599.5 108.0 Q 2506.5 18.0 2398.5 -17.0 Q 2366.5 -29.0 2366.5 -35.0 Q 2366.5 -39.0 2378.5 -39.0 Q 2434.5 -37.0 2492.5 -14.0 Q 2568.5 19.0 2634.5 79.0 Q 2639.5 83.0 2645.5 89.0 L 2685.5 130.0 Q 2726.5 177.0 2774.5 253.0 Q 2799.5 288.0 2814.5 298.0 Q 2821.5 304.0 2821.5 309.0 Q 2821.5 326.0 2791.5 347.0 Q 2765.5 370.0 2746.5 370.0 Z" fill="lightgray"></path> 
<path d="M 2488.5 279.0 Q 2488.5 278.0 2489.5 278.0 Q 2521.5 261.0 2618.5 127.0 L 2645.5 89.0 Q 2722.5 -16.0 2759.5 -37.0 Q 2774.5 -46.0 2794.5 -46.0 Q 2825.5 -46.0 2926.5 -37.0 Q 2997.5 -31.0 2997.5 -18.0 Q 2997.5 -12.0 2947.5 -4.0 Q 2850.5 11.0 2782.5 53.0 Q 2734.5 82.0 2685.5 130.0 L 2649.5 168.0 Q 2634.5 186.0 2616.5 209.0 Q 2578.5 260.0 2557.5 281.0 C 2537.5 303.0 2464.5 297.0 2488.5 279.0 Z" fill="lightgray"></path> 
<path d="M 3265.5 633.0 Q 3271.5 627.0 3289.5 604.0 L 3308.5 578.0 Q 3313.5 570.0 3334.0 551.5 Q 3354.5 533.0 3368.5 537.0 Q 3393.5 539.0 3390.5 581.0 Q 3389.5 601.0 3385.5 610.0 Q 3371.5 642.0 3291.5 663.0 L 3266.5 668.0 Q 3250.5 671.0 3249.0 666.0 Q 3247.5 661.0 3251.5 656.0 L 3265.5 633.0 Z" fill="lightgray"></path> 
<path d="M 3154.5 461.0 Q 3141.5 463.0 3140.5 459.0 Q 3136.5 454.0 3141.5 449.0 L 3157.5 426.0 Q 3169.5 405.0 3178.5 394.0 L 3204.5 363.0 Q 3230.5 333.0 3250.5 333.0 Q 3255.5 333.0 3260.5 338.0 Q 3273.5 343.0 3274.5 367.0 Q 3276.5 434.0 3181.5 456.0 L 3154.5 461.0 Z" fill="lightgray"></path> 
<path d="M 3328.5 305.0 L 3284.5 234.0 Q 3222.5 143.0 3197.5 117.0 Q 3191.5 111.0 3167.5 93.0 L 3140.5 73.0 Q 3128.5 64.0 3128.5 54.5 Q 3128.5 45.0 3133.5 20.0 Q 3141.5 -6.0 3144.0 -12.0 Q 3146.5 -18.0 3158.0 -36.5 Q 3169.5 -55.0 3175.5 -56.0 Q 3177.5 -57.0 3187.5 -52.0 Q 3195.5 -44.0 3200.5 -31.0 L 3212.5 -1.0 L 3275.5 139.0 L 3306.5 203.0 L 3346.5 296.0 Q 3350.5 308.0 3342.5 310.5 Q 3334.5 313.0 3328.5 305.0 Z" fill="lightgray"></path> 
<path d="M 3595.5 503.0 L 3555.5 497.0 Q 3550.5 495.0 3496.5 488.0 L 3468.5 484.0 Q 3456.5 483.0 3454.5 478.0 Q 3451.5 461.0 3471.5 455.0 Q 3481.5 452.0 3497.5 449.0 Q 3525.5 447.0 3528.5 447.0 L 3552.5 449.0 L 3597.5 452.0 L 3660.5 466.0 L 3752.5 483.0 Q 3753.5 483.0 3783.5 490.0 L 3815.5 499.0 Q 3823.5 502.0 3833.5 510.0 Q 3847.5 524.0 3829.0 532.5 Q 3810.5 541.0 3807.5 542.0 L 3783.5 550.0 L 3758.5 544.0 L 3705.5 529.0 L 3662.5 521.0 L 3595.5 503.0 Z" fill="lightgray"></path> 
<path d="M 3594.5 657.0 Q 3595.5 651.0 3595.5 633.0 L 3595.5 503.0 L 3597.5 452.0 L 3598.5 318.0 C 3598.5 288.0 3654.5 297.0 3655.5 327.0 L 3660.5 466.0 L 3662.5 521.0 L 3666.5 638.0 Q 3666.5 650.0 3669.5 665.0 Q 3670.5 682.0 3675.5 694.0 Q 3679.5 705.0 3678.5 711.0 Q 3678.5 729.0 3634.5 739.0 L 3598.5 745.0 Q 3571.5 745.0 3571.5 732.0 Q 3571.5 728.0 3576.5 716.0 L 3586.5 700.0 L 3590.5 681.0 L 3594.5 657.0 Z" fill="lightgray"></path> 
<path d="M 3598.5 318.0 L 3467.5 296.0 Q 3439.5 292.0 3423.5 290.0 L 3382.5 285.0 Q 3355.5 280.0 3379.5 267.0 L 3393.5 257.0 Q 3401.5 251.0 3415.5 246.5 Q 3429.5 242.0 3435.0 242.5 Q 3440.5 243.0 3464.5 252.0 Q 3488.5 261.0 3495.5 261.5 Q 3502.5 262.0 3520.5 266.0 L 3593.5 278.0 L 3619.5 284.0 L 3678.5 294.0 Q 3765.5 309.0 3837.5 312.0 L 3942.5 315.0 L 3998.5 319.0 Q 4030.5 319.0 4035.5 333.0 Q 4039.5 350.0 4007.5 364.0 Q 3991.5 371.0 3981.5 373.0 L 3964.5 379.0 Q 3943.5 384.0 3928.5 379.0 L 3856.5 364.0 L 3655.5 327.0 L 3598.5 318.0 Z" fill="lightgray"></path> 
<path d="M 3593.5 278.0 L 3584.5 253.0 Q 3583.5 244.0 3567.5 219.0 L 3543.5 181.0 L 3491.5 113.0 Q 3477.5 92.0 3456.5 70.0 Q 3435.5 48.0 3426.5 43.0 L 3401.5 25.0 Q 3392.5 18.0 3391.5 15.0 Q 3387.5 11.0 3390.5 -4.0 Q 3393.5 -19.0 3405.5 -36.0 L 3420.5 -53.0 Q 3423.5 -56.0 3430.5 -63.0 Q 3437.5 -69.0 3447.5 -67.0 Q 3457.5 -65.0 3471.5 -54.0 Q 3485.5 -43.0 3488.5 -42.0 L 3515.5 -31.0 L 3785.5 55.0 C 3814.5 64.0 3803.5 83.0 3774.5 76.0 L 3535.5 22.0 Q 3511.5 16.0 3503.5 19.0 Q 3485.5 25.0 3507.5 47.0 L 3605.5 153.0 L 3630.5 178.0 Q 3646.5 193.0 3657.5 198.0 Q 3667.5 202.0 3668.5 205.0 Q 3674.5 221.0 3656.5 243.0 Q 3653.5 251.0 3643.5 261.0 L 3619.5 284.0 C 3601.5 301.0 3601.5 301.0 3593.5 278.0 Z" fill="lightgray"></path> 
<path d="M 3785.5 55.0 L 3833.5 -17.0 Q 3846.5 -38.0 3855.5 -44.0 Q 3864.5 -50.0 3869.5 -55.0 Q 3880.5 -61.0 3883.5 -58.0 Q 3891.5 -58.0 3903.5 -43.0 Q 3909.5 -31.0 3909.5 -3.0 Q 3909.5 48.0 3849.5 100.0 Q 3821.5 125.0 3762.5 151.0 L 3731.5 163.0 Q 3718.5 169.0 3714.5 165.0 Q 3712.5 159.0 3716.5 155.0 L 3734.5 135.0 Q 3751.5 113.0 3774.5 76.0 L 3785.5 55.0 Z" fill="lightgray"></path> 
      <clipPath id="make-me-a-hanzi-clip-0">
      <path d="M 235.0 538.0 L 320.0 545.0 L 379.0 553.0 L 435.0 564.0 Q 453.0 569.0 472.0 571.0 Q 491.0 572.0 494.0 584.0 Q 497.0 590.0 484.0 597.0 Q 463.0 612.0 446.0 612.0 Q 430.0 611.0 413.0 606.0 L 381.0 598.0 L 334.0 590.0 L 316.0 585.0 Q 295.0 581.0 286.0 580.0 L 197.0 569.0 Q 181.0 568.0 179.0 564.0 Q 177.0 559.0 187.0 549.0 Q 198.0 538.0 235.0 538.0 Z" fill="lightgray"></path>
      </clipPath>
      <path clip-path="url(#make-me-a-hanzi-clip-0)" d="M 184.0 562.0 L 227.0 554.0 L 382.0 575.0 L 449.0 590.0 L 483.0 585.0 " fill="none" id="make-me-a-hanzi-animation-0" stroke-dasharray="431 862" stroke-linecap="round"></path>

      <clipPath id="make-me-a-hanzi-clip-1">
      <path d="M 328.0 452.0 L 328.0 414.0 Q 328.0 410.0 322.0 375.0 Q 318.0 336.0 313.0 324.0 L 305.0 295.0 Q 304.0 294.0 314.0 268.0 L 324.0 240.0 Q 333.0 214.0 343.0 214.0 Q 358.0 214.0 369.0 251.0 Q 377.0 270.0 378.0 282.0 L 373.0 420.0 Q 375.0 429.0 375.0 446.0 L 375.0 472.0 L 375.0 486.0 L 379.0 535.0 L 379.0 553.0 L 381.0 598.0 L 383.0 628.0 Q 383.0 680.0 389.0 694.0 L 402.0 722.0 Q 407.0 730.0 405.0 735.0 Q 405.0 741.0 395.0 748.0 Q 388.0 755.0 363.0 766.0 Q 339.0 777.0 329.0 773.0 Q 311.0 770.0 320.0 754.0 L 329.0 734.0 Q 338.0 714.0 337.0 684.0 L 334.0 590.0 L 328.0 452.0 Z" fill="lightgray"></path>
      </clipPath>
      <path clip-path="url(#make-me-a-hanzi-clip-1)" d="M 328.0 762.0 L 366.0 725.0 L 342.0 295.0 L 344.0 225.0 " fill="none" id="make-me-a-hanzi-animation-1" stroke-dasharray="682 1364" stroke-linecap="round"></path>

      <clipPath id="make-me-a-hanzi-clip-2">
      <path d="M 320.0 545.0 L 299.0 503.0 L 269.0 450.0 L 231.0 391.0 Q 185.0 329.0 147.0 294.0 L 118.0 267.0 Q 107.0 260.0 111.0 256.0 Q 111.0 253.0 122.0 257.0 L 148.0 268.0 Q 153.0 270.0 186.0 294.0 Q 219.0 317.0 229.0 325.0 Q 239.0 333.0 262.0 361.0 Q 286.0 389.0 301.0 410.0 L 328.0 452.0 C 400.0 564.0 333.0 572.0 320.0 545.0 Z" fill="lightgray"></path>
      </clipPath>
      <path clip-path="url(#make-me-a-hanzi-clip-2)" d="M 327.0 539.0 L 302.0 458.0 L 252.0 381.0 L 186.0 310.0 L 116.0 260.0 " fill="none" id="make-me-a-hanzi-animation-2" stroke-dasharray="488 976" stroke-linecap="round"></path>

      <clipPath id="make-me-a-hanzi-clip-3">
      <path d="M 375.0 472.0 L 391.0 460.0 Q 406.0 449.0 435.0 416.0 Q 456.0 396.0 460.0 393.0 Q 474.0 385.0 480.0 387.0 Q 486.0 388.0 491.0 394.0 Q 500.0 409.0 498.0 420.0 Q 497.0 430.0 495.0 440.0 Q 493.0 445.0 485.0 451.0 Q 478.0 456.0 437.0 469.0 Q 396.0 482.0 375.0 486.0 C 349.0 491.0 351.0 490.0 375.0 472.0 Z" fill="lightgray"></path>
      </clipPath>
      <path clip-path="url(#make-me-a-hanzi-clip-3)" d="M 378.0 479.0 L 467.0 427.0 L 477.0 404.0 " fill="none" id="make-me-a-hanzi-animation-3" stroke-dasharray="256 512" stroke-linecap="round"></path>

      <clipPath id="make-me-a-hanzi-clip-4">
      <path d="M 587.0 658.0 L 566.0 667.0 Q 554.0 672.0 548.0 672.0 Q 532.0 670.0 536.0 656.0 L 544.0 634.0 Q 549.0 621.0 549.0 572.0 L 549.0 534.0 L 545.0 442.0 L 540.0 368.0 L 534.0 324.0 Q 527.0 300.0 534.0 278.0 L 539.0 261.0 L 546.0 246.0 Q 550.0 240.0 556.0 240.0 Q 563.0 240.0 567.0 243.0 Q 571.0 246.0 576.0 265.0 L 580.0 298.0 L 581.0 348.0 Q 581.0 355.0 584.0 398.0 L 585.0 421.0 L 588.0 502.0 L 588.0 526.0 L 593.0 628.0 C 594.0 655.0 594.0 655.0 587.0 658.0 Z" fill="lightgray"></path>
      </clipPath>
      <path clip-path="url(#make-me-a-hanzi-clip-4)" d="M 547.0 661.0 L 566.0 641.0 L 571.0 593.0 L 555.0 312.0 L 558.0 253.0 " fill="none" id="make-me-a-hanzi-animation-4" stroke-dasharray="544 1088" stroke-linecap="round"></path>

      <clipPath id="make-me-a-hanzi-clip-5">
      <path d="M 740.0 276.0 L 746.0 260.0 Q 755.0 236.0 767.0 236.0 Q 773.0 236.0 786.0 258.0 Q 800.0 280.0 800.0 322.0 L 799.0 364.0 L 799.0 535.0 Q 799.0 600.0 808.0 618.0 L 816.0 636.0 Q 819.0 643.0 819.0 648.0 Q 815.0 660.0 791.0 676.0 L 780.0 682.0 Q 777.0 683.0 768.0 689.0 Q 760.0 694.0 749.0 694.0 L 669.0 674.0 L 587.0 658.0 C 558.0 652.0 563.0 623.0 593.0 628.0 L 601.0 628.0 L 673.0 648.0 Q 724.0 662.0 736.0 651.0 Q 740.0 645.0 744.0 609.0 L 747.0 536.0 L 747.0 525.0 L 748.0 426.0 L 748.0 414.0 L 749.0 386.0 L 747.0 354.0 Q 744.0 306.0 740.0 305.0 C 736.0 287.0 736.0 287.0 740.0 276.0 Z" fill="lightgray"></path>
      </clipPath>
      <path clip-path="url(#make-me-a-hanzi-clip-5)" d="M 595.0 652.0 L 606.0 645.0 L 733.0 672.0 L 754.0 668.0 L 776.0 642.0 L 775.0 387.0 L 765.0 247.0 " fill="none" id="make-me-a-hanzi-animation-5" stroke-dasharray="722 1444" stroke-linecap="round"></path>

      <clipPath id="make-me-a-hanzi-clip-6">
      <path d="M 617.0 500.0 L 673.0 506.0 Q 705.0 509.0 720.0 515.0 Q 735.0 521.0 747.0 525.0 C 761.0 530.0 761.0 530.0 747.0 536.0 L 734.0 542.0 L 716.0 548.0 Q 698.0 554.0 682.0 549.0 L 619.0 532.0 L 588.0 526.0 C 559.0 520.0 558.0 504.0 588.0 502.0 L 617.0 500.0 Z" fill="lightgray"></path>
      </clipPath>
      <path clip-path="url(#make-me-a-hanzi-clip-6)" d="M 596.0 508.0 L 602.0 515.0 L 691.0 530.0 L 738.0 531.0 " fill="none" id="make-me-a-hanzi-animation-6" stroke-dasharray="274 548" stroke-linecap="round"></path>

      <clipPath id="make-me-a-hanzi-clip-7">
      <path d="M 584.0 398.0 L 601.0 396.0 Q 642.0 392.0 695.0 404.0 L 703.0 404.0 L 713.0 407.0 L 732.0 410.0 Q 746.0 413.0 748.0 414.0 C 763.0 418.0 763.0 418.0 748.0 426.0 L 736.0 432.0 L 695.0 444.0 L 585.0 421.0 C 556.0 415.0 554.0 402.0 584.0 398.0 Z" fill="lightgray"></path>
      </clipPath>
      <path clip-path="url(#make-me-a-hanzi-clip-7)" d="M 589.0 404.0 L 598.0 410.0 L 692.0 424.0 L 743.0 420.0 " fill="none" id="make-me-a-hanzi-animation-7" stroke-dasharray="285 570" stroke-linecap="round"></path>

      <clipPath id="make-me-a-hanzi-clip-8">
      <path d="M 609.0 265.0 L 740.0 276.0 C 770.0 279.0 770.0 309.0 740.0 305.0 Q 737.0 303.0 726.0 306.0 L 713.0 310.0 Q 708.0 312.0 687.0 310.0 L 580.0 298.0 C 550.0 295.0 546.0 265.0 576.0 265.0 L 599.0 265.0 Q 599.0 264.0 609.0 265.0 Z" fill="lightgray"></path>
      </clipPath>
      <path clip-path="url(#make-me-a-hanzi-clip-8)" d="M 582.0 270.0 L 596.0 282.0 L 724.0 290.0 L 732.0 298.0 " fill="none" id="make-me-a-hanzi-animation-8" stroke-dasharray="286 572" stroke-linecap="round"></path>

      <clipPath id="make-me-a-hanzi-clip-9">
      <path d="M 198.0 -52.0 Q 214.0 -57.0 232.0 -25.0 L 255.0 17.0 Q 268.0 48.0 272.0 64.0 Q 277.0 128.0 264.0 142.0 Q 260.0 156.0 255.0 158.0 Q 251.0 159.0 247.0 158.0 Q 243.0 158.0 240.0 143.0 Q 218.0 86.0 197.0 58.0 Q 176.0 29.0 175.0 23.0 L 172.0 8.0 Q 168.0 -31.0 180.0 -42.0 Q 186.0 -52.0 198.0 -52.0 Z" fill="lightgray"></path>
      </clipPath>
      <path clip-path="url(#make-me-a-hanzi-clip-9)" d="M 251.0 150.0 L 252.0 113.0 L 244.0 77.0 L 209.0 8.0 L 197.0 -32.0 " fill="none" id="make-me-a-hanzi-animation-9" stroke-dasharray="321 642" stroke-linecap="round"></path>

      <clipPath id="make-me-a-hanzi-clip-10">
      <path d="M 353.0 129.0 L 369.0 74.0 Q 372.0 65.0 377.0 57.0 L 397.0 21.0 Q 409.0 0.0 430.0 -19.0 Q 485.0 -68.0 570.0 -85.0 Q 644.0 -101.0 738.0 -82.0 Q 833.0 -64.0 854.0 -38.0 Q 861.0 -25.0 851.0 -14.0 Q 848.0 -9.0 833.0 -1.0 L 805.0 13.0 L 783.0 27.0 L 727.0 69.0 L 707.0 88.0 Q 702.0 94.0 698.0 90.0 Q 697.0 87.0 698.0 83.0 L 708.0 64.0 Q 709.0 59.0 722.0 38.0 L 734.0 14.0 Q 740.0 1.0 738.0 -4.0 Q 733.0 -16.0 698.0 -22.0 Q 652.0 -33.0 610.0 -30.0 Q 488.0 -23.0 434.0 39.0 Q 421.0 53.0 408.0 79.0 Q 395.0 105.0 392.0 117.0 Q 389.0 129.0 385.0 141.0 Q 381.0 161.0 378.0 162.0 L 363.0 171.0 Q 339.0 179.0 336.0 168.0 Q 335.0 163.0 339.0 158.0 L 353.0 129.0 Z" fill="lightgray"></path>
      </clipPath>
      <path clip-path="url(#make-me-a-hanzi-clip-10)" d="M 345.0 165.0 L 364.0 149.0 L 391.0 70.0 L 410.0 36.0 L 440.0 1.0 L 510.0 -40.0 L 568.0 -56.0 L 635.0 -62.0 L 692.0 -57.0 L 742.0 -46.0 L 779.0 -25.0 L 754.0 23.0 L 702.0 87.0 " fill="none" id="make-me-a-hanzi-animation-10" stroke-dasharray="817 1634" stroke-linecap="round"></path>

      <clipPath id="make-me-a-hanzi-clip-11">
      <path d="M 502.0 202.0 L 492.0 202.0 Q 491.0 201.0 493.0 191.0 Q 495.0 180.0 511.0 158.0 L 528.0 130.0 Q 549.0 89.0 570.0 75.0 Q 591.0 53.0 602.0 77.0 Q 613.0 100.0 600.0 137.0 Q 590.0 159.0 556.0 179.0 Q 523.0 198.0 502.0 202.0 Z" fill="lightgray"></path>
      </clipPath>
      <path clip-path="url(#make-me-a-hanzi-clip-11)" d="M 497.0 197.0 L 565.0 132.0 L 587.0 80.0 " fill="none" id="make-me-a-hanzi-animation-11" stroke-dasharray="279 558" stroke-linecap="round"></path>

      <clipPath id="make-me-a-hanzi-clip-12">
      <path d="M 785.0 181.0 L 767.0 186.0 Q 754.0 190.0 752.0 186.0 Q 751.0 182.0 758.0 175.0 L 773.0 160.0 Q 776.0 157.0 783.0 147.0 Q 790.0 137.0 815.0 110.0 L 865.0 48.0 Q 872.0 40.0 882.0 36.0 Q 893.0 31.0 900.0 34.0 Q 917.0 39.0 914.0 82.0 Q 912.0 105.0 888.0 126.0 Q 876.0 136.0 849.0 151.0 L 814.0 170.0 Q 807.0 173.0 785.0 181.0 Z" fill="lightgray"></path>
      </clipPath>
      <path clip-path="url(#make-me-a-hanzi-clip-12)" d="M 760.0 183.0 L 790.0 165.0 L 870.0 97.0 L 894.0 51.0 " fill="none" id="make-me-a-hanzi-animation-12" stroke-dasharray="320 640" stroke-linecap="round"></path>

      <clipPath id="make-me-a-hanzi-clip-13">
      <path d="M 1597.0 580.5 L 1602.0 595.5 Q 1611.0 619.5 1592.0 665.5 Q 1587.0 675.5 1567.0 691.5 Q 1547.0 707.5 1528.0 716.5 Q 1510.0 725.5 1492.0 729.5 Q 1475.0 733.5 1471.0 729.5 Q 1465.0 721.5 1500.0 651.5 L 1525.0 607.5 L 1551.0 575.5 C 1570.0 552.5 1588.0 552.5 1597.0 580.5 Z" fill="lightgray"></path>
      </clipPath>
      <path clip-path="url(#make-me-a-hanzi-clip-13)" d="M 1476.0 726.5 L 1546.0 655.5 L 1567.0 615.5 L 1588.0 591.5 " fill="none" id="make-me-a-hanzi-animation-13" stroke-dasharray="305 610" stroke-linecap="round"></path>

      <clipPath id="make-me-a-hanzi-clip-14">
      <path d="M 1209.0 535.5 L 1171.0 534.5 Q 1142.0 531.5 1139.0 525.5 Q 1137.0 519.5 1141.0 513.5 Q 1147.0 505.5 1168.0 490.5 Q 1190.0 474.5 1203.0 473.5 Q 1217.0 471.5 1223.0 472.5 Q 1230.0 472.5 1260.0 483.5 Q 1291.0 494.5 1336.0 504.5 Q 1382.0 513.5 1393.0 514.5 L 1471.0 525.5 L 1510.0 531.5 L 1606.0 541.5 Q 1632.0 544.5 1699.0 546.5 L 1759.0 547.5 Q 1805.0 547.5 1839.0 548.5 Q 1873.0 548.5 1898.0 545.5 L 1927.0 543.5 Q 1945.0 541.5 1949.0 545.5 Q 1953.0 549.5 1953.0 556.5 Q 1953.0 562.5 1948.0 569.5 Q 1943.0 575.5 1920.0 591.5 Q 1898.0 607.5 1886.0 610.5 Q 1874.0 612.5 1832.0 606.5 L 1789.0 599.5 L 1597.0 580.5 L 1551.0 575.5 L 1318.0 547.5 Q 1257.0 537.5 1235.0 537.5 Q 1213.0 537.5 1209.0 535.5 Z" fill="lightgray"></path>
      </clipPath>
      <path clip-path="url(#make-me-a-hanzi-clip-14)" d="M 1147.0 520.5 L 1212.0 503.5 L 1499.0 550.5 L 1862.0 579.5 L 1886.0 577.5 L 1942.0 554.5 " fill="none" id="make-me-a-hanzi-animation-14" stroke-dasharray="935 1870" stroke-linecap="round"></path>

      <clipPath id="make-me-a-hanzi-clip-15">
      <path d="M 1528.0 398.5 L 1539.0 390.5 Q 1556.0 377.5 1572.0 374.5 L 1637.0 362.5 Q 1657.0 358.5 1664.0 350.5 Q 1671.0 342.5 1671.0 321.5 Q 1671.0 300.5 1650.0 228.5 Q 1629.0 156.5 1619.0 133.5 Q 1582.0 45.5 1551.0 45.5 Q 1543.0 44.5 1521.0 53.5 L 1496.0 64.5 L 1467.0 79.5 Q 1459.0 83.5 1456.0 79.5 Q 1453.0 75.5 1456.0 71.5 L 1487.0 26.5 Q 1490.0 21.5 1496.0 15.5 L 1527.0 -36.5 Q 1534.0 -47.5 1542.0 -52.5 Q 1550.0 -57.5 1574.0 -42.5 Q 1616.0 -20.5 1646.0 34.5 L 1675.0 97.5 Q 1691.0 133.5 1721.0 254.5 Q 1730.0 285.5 1744.0 308.5 Q 1758.0 330.5 1761.0 339.5 L 1761.0 347.5 Q 1761.0 358.5 1733.0 380.5 Q 1706.0 401.5 1695.0 401.5 Q 1685.0 401.5 1677.0 400.5 L 1638.0 402.5 Q 1629.0 402.5 1603.0 406.5 Q 1577.0 410.5 1569.0 413.5 L 1541.0 420.5 C 1512.0 427.5 1504.0 416.5 1528.0 398.5 Z" fill="lightgray"></path>
      </clipPath>
      <path clip-path="url(#make-me-a-hanzi-clip-15)" d="M 1538.0 400.5 L 1549.0 402.5 L 1582.0 390.5 L 1684.0 372.5 L 1713.0 341.5 L 1653.0 129.5 L 1618.0 55.5 L 1594.0 22.5 L 1558.0 0.5 L 1550.0 3.5 L 1462.0 75.5 " fill="none" id="make-me-a-hanzi-animation-15" stroke-dasharray="828 1656" stroke-linecap="round"></path>

      <clipPath id="make-me-a-hanzi-clip-16">
      <path d="M 1471.0 525.5 L 1479.0 487.5 Q 1481.0 469.5 1470.0 433.5 Q 1462.0 396.5 1427.0 339.5 Q 1377.0 251.5 1275.0 149.5 Q 1239.0 114.5 1207.0 92.5 L 1147.0 50.5 L 1125.0 37.5 Q 1119.0 33.5 1120.0 26.5 Q 1121.0 18.5 1135.0 23.5 L 1155.0 31.5 Q 1198.0 49.5 1230.0 66.5 Q 1263.0 82.5 1312.0 122.5 Q 1362.0 161.5 1402.0 205.5 Q 1443.0 249.5 1483.0 315.5 L 1528.0 398.5 L 1541.0 420.5 L 1551.0 440.5 L 1571.0 472.5 Q 1578.0 486.5 1561.0 500.5 Q 1545.0 513.5 1535.0 518.5 L 1510.0 531.5 C 1483.0 545.5 1465.0 554.5 1471.0 525.5 Z" fill="lightgray"></path>
      </clipPath>
      <path clip-path="url(#make-me-a-hanzi-clip-16)" d="M 1478.0 520.5 L 1506.0 499.5 L 1522.0 475.5 L 1483.0 378.5 L 1419.0 271.5 L 1377.0 218.5 L 1279.0 122.5 L 1206.0 71.5 L 1128.0 29.5 " fill="none" id="make-me-a-hanzi-animation-16" stroke-dasharray="804 1608" stroke-linecap="round"></path>

      <clipPath id="make-me-a-hanzi-clip-17">
      <path d="M 2234.5 682.0 Q 2213.5 682.0 2213.5 678.0 Q 2213.5 672.0 2251.5 615.0 Q 2295.5 554.0 2326.5 554.0 Q 2349.5 554.0 2349.5 582.0 Q 2349.5 603.0 2340.5 624.0 Q 2325.5 655.0 2292.5 669.0 Q 2265.5 680.0 2234.5 682.0 Z" fill="lightgray"></path>
      </clipPath>
      <path clip-path="url(#make-me-a-hanzi-clip-17)" d="M 2217.5 677.0 L 2294.5 623.0 L 2328.5 574.0 " fill="none" id="make-me-a-hanzi-animation-17" stroke-dasharray="282 564" stroke-linecap="round"></path>

      <clipPath id="make-me-a-hanzi-clip-18">
      <path d="M 2282.5 429.0 Q 2276.5 429.0 2247.5 407.0 Q 2193.5 367.0 2162.5 366.0 Q 2155.5 366.0 2129.5 370.0 Q 2122.5 369.0 2122.5 357.0 Q 2122.5 351.0 2143.5 338.0 Q 2170.5 326.0 2185.5 326.0 Q 2194.5 326.0 2253.5 357.0 Q 2261.5 357.0 2261.5 353.0 L 2251.5 169.0 Q 2247.5 103.0 2211.5 58.0 Q 2198.5 43.0 2198.5 34.0 Q 2198.5 15.0 2208.5 -4.0 Q 2220.5 -35.0 2234.5 -35.0 Q 2240.5 -35.0 2251.5 -16.0 Q 2295.5 52.0 2363.5 114.0 Q 2402.5 153.0 2402.5 158.0 Q 2402.5 166.0 2389.5 166.0 Q 2384.5 166.0 2293.5 96.0 L 2309.5 297.0 Q 2313.5 338.0 2336.5 363.0 Q 2357.5 382.0 2357.5 385.0 Q 2357.5 400.0 2330.5 416.0 Q 2303.5 429.0 2282.5 429.0 Z" fill="lightgray"></path>
      </clipPath>
      <path clip-path="url(#make-me-a-hanzi-clip-18)" d="M 2134.5 359.0 L 2157.5 349.0 L 2183.5 348.0 L 2252.5 382.0 L 2295.5 382.0 L 2267.5 106.0 L 2305.5 103.0 L 2313.5 93.0 L 2297.5 75.0 L 2264.5 69.0 L 2236.5 30.0 L 2233.5 -25.0 " fill="none" id="make-me-a-hanzi-animation-18" stroke-dasharray="788 1576" stroke-linecap="round"></path>

      <clipPath id="make-me-a-hanzi-clip-19">
      <path d="M 2490.5 678.0 Q 2481.5 676.0 2481.5 666.0 Q 2481.5 663.0 2490.5 653.0 Q 2508.5 626.0 2509.5 590.0 Q 2509.5 491.0 2475.5 436.0 Q 2444.5 386.0 2385.5 353.0 Q 2385.5 349.0 2397.5 349.0 Q 2463.5 349.0 2521.5 434.0 Q 2561.5 507.0 2561.5 590.0 Q 2561.5 614.0 2555.5 634.0 L 2538.5 666.0 Q 2537.5 668.0 2533.5 670.0 Q 2512.5 678.0 2490.5 678.0 Z" fill="lightgray"></path>
      </clipPath>
      <path clip-path="url(#make-me-a-hanzi-clip-19)" d="M 2494.5 666.0 L 2520.5 649.0 L 2534.5 609.0 L 2534.5 556.0 L 2521.5 489.0 L 2500.5 437.0 L 2458.5 387.0 L 2403.5 354.0 L 2393.5 356.0 " fill="none" id="make-me-a-hanzi-animation-19" stroke-dasharray="518 1036" stroke-linecap="round"></path>

      <clipPath id="make-me-a-hanzi-clip-20">
      <path d="M 2555.5 634.0 Q 2576.5 636.0 2662.5 653.0 Q 2672.5 653.0 2674.5 641.0 Q 2666.5 580.0 2666.5 513.0 Q 2666.5 450.0 2704.5 427.0 Q 2738.5 410.0 2807.5 410.0 Q 2861.5 410.0 2888.5 419.0 Q 2914.5 430.0 2914.5 441.0 Q 2914.5 454.0 2901.5 465.0 Q 2891.5 475.0 2882.5 477.0 Q 2874.5 477.0 2859.5 471.0 Q 2831.5 462.0 2796.5 462.0 Q 2717.5 462.0 2714.5 513.0 Q 2714.5 563.0 2722.5 598.0 Q 2735.5 631.0 2760.5 652.0 Q 2777.5 670.0 2777.5 678.0 Q 2777.5 688.0 2750.5 706.0 Q 2723.5 722.0 2710.5 722.0 Q 2701.5 722.0 2676.5 706.0 Q 2636.5 678.0 2538.5 666.0 C 2508.5 662.0 2525.5 630.0 2555.5 634.0 Z" fill="lightgray"></path>
      </clipPath>
      <path clip-path="url(#make-me-a-hanzi-clip-20)" d="M 2549.5 665.0 L 2565.5 652.0 L 2657.5 673.0 L 2705.5 675.0 L 2712.5 668.0 L 2696.5 604.0 L 2690.5 549.0 L 2693.5 489.0 L 2703.5 467.0 L 2729.5 447.0 L 2765.5 438.0 L 2831.5 437.0 L 2878.5 447.0 L 2897.5 443.0 " fill="none" id="make-me-a-hanzi-animation-20" stroke-dasharray="710 1420" stroke-linecap="round"></path>

      <clipPath id="make-me-a-hanzi-clip-21">
      <path d="M 2746.5 370.0 Q 2739.5 370.0 2704.5 354.0 Q 2621.5 326.0 2462.5 309.0 Q 2450.5 306.0 2450.5 301.0 Q 2450.5 295.0 2471.5 284.0 Q 2478.5 281.0 2488.5 279.0 L 2557.5 281.0 Q 2583.5 287.0 2626.5 299.0 Q 2685.5 313.0 2697.5 313.0 Q 2716.5 313.0 2718.5 301.0 Q 2718.5 290.0 2692.5 240.0 Q 2674.5 202.0 2649.5 168.0 L 2618.5 127.0 Q 2608.5 117.0 2599.5 108.0 Q 2506.5 18.0 2398.5 -17.0 Q 2366.5 -29.0 2366.5 -35.0 Q 2366.5 -39.0 2378.5 -39.0 Q 2434.5 -37.0 2492.5 -14.0 Q 2568.5 19.0 2634.5 79.0 Q 2639.5 83.0 2645.5 89.0 L 2685.5 130.0 Q 2726.5 177.0 2774.5 253.0 Q 2799.5 288.0 2814.5 298.0 Q 2821.5 304.0 2821.5 309.0 Q 2821.5 326.0 2791.5 347.0 Q 2765.5 370.0 2746.5 370.0 Z" fill="lightgray"></path>
      </clipPath>
      <path clip-path="url(#make-me-a-hanzi-clip-21)" d="M 2458.5 302.0 L 2480.5 296.0 L 2550.5 300.0 L 2724.5 335.0 L 2747.5 329.0 L 2762.5 312.0 L 2733.5 248.0 L 2692.5 183.0 L 2614.5 90.0 L 2579.5 60.0 L 2492.5 4.0 L 2372.5 -36.0 " fill="none" id="make-me-a-hanzi-animation-21" stroke-dasharray="989 1978" stroke-linecap="round"></path>

      <clipPath id="make-me-a-hanzi-clip-22">
      <path d="M 2488.5 279.0 Q 2488.5 278.0 2489.5 278.0 Q 2521.5 261.0 2618.5 127.0 L 2645.5 89.0 Q 2722.5 -16.0 2759.5 -37.0 Q 2774.5 -46.0 2794.5 -46.0 Q 2825.5 -46.0 2926.5 -37.0 Q 2997.5 -31.0 2997.5 -18.0 Q 2997.5 -12.0 2947.5 -4.0 Q 2850.5 11.0 2782.5 53.0 Q 2734.5 82.0 2685.5 130.0 L 2649.5 168.0 Q 2634.5 186.0 2616.5 209.0 Q 2578.5 260.0 2557.5 281.0 C 2537.5 303.0 2464.5 297.0 2488.5 279.0 Z" fill="lightgray"></path>
      </clipPath>
      <path clip-path="url(#make-me-a-hanzi-clip-22)" d="M 2499.5 275.0 L 2547.5 257.0 L 2675.5 97.0 L 2730.5 42.0 L 2786.5 -1.0 L 2893.5 -18.0 L 2993.5 -19.0 " fill="none" id="make-me-a-hanzi-animation-22" stroke-dasharray="741 1482" stroke-linecap="round"></path>

      <clipPath id="make-me-a-hanzi-clip-23">
      <path d="M 3265.5 633.0 Q 3271.5 627.0 3289.5 604.0 L 3308.5 578.0 Q 3313.5 570.0 3334.0 551.5 Q 3354.5 533.0 3368.5 537.0 Q 3393.5 539.0 3390.5 581.0 Q 3389.5 601.0 3385.5 610.0 Q 3371.5 642.0 3291.5 663.0 L 3266.5 668.0 Q 3250.5 671.0 3249.0 666.0 Q 3247.5 661.0 3251.5 656.0 L 3265.5 633.0 Z" fill="lightgray"></path>
      </clipPath>
      <path clip-path="url(#make-me-a-hanzi-clip-23)" d="M 3254.5 662.0 L 3336.5 605.0 L 3367.5 558.0 " fill="none" id="make-me-a-hanzi-animation-23" stroke-dasharray="284 568" stroke-linecap="round"></path>

      <clipPath id="make-me-a-hanzi-clip-24">
      <path d="M 3154.5 461.0 Q 3141.5 463.0 3140.5 459.0 Q 3136.5 454.0 3141.5 449.0 L 3157.5 426.0 Q 3169.5 405.0 3178.5 394.0 L 3204.5 363.0 Q 3230.5 333.0 3250.5 333.0 Q 3255.5 333.0 3260.5 338.0 Q 3273.5 343.0 3274.5 367.0 Q 3276.5 434.0 3181.5 456.0 L 3154.5 461.0 Z" fill="lightgray"></path>
      </clipPath>
      <path clip-path="url(#make-me-a-hanzi-clip-24)" d="M 3148.5 455.0 L 3226.5 396.0 L 3248.5 350.0 " fill="none" id="make-me-a-hanzi-animation-24" stroke-dasharray="277 554" stroke-linecap="round"></path>

      <clipPath id="make-me-a-hanzi-clip-25">
      <path d="M 3328.5 305.0 L 3284.5 234.0 Q 3222.5 143.0 3197.5 117.0 Q 3191.5 111.0 3167.5 93.0 L 3140.5 73.0 Q 3128.5 64.0 3128.5 54.5 Q 3128.5 45.0 3133.5 20.0 Q 3141.5 -6.0 3144.0 -12.0 Q 3146.5 -18.0 3158.0 -36.5 Q 3169.5 -55.0 3175.5 -56.0 Q 3177.5 -57.0 3187.5 -52.0 Q 3195.5 -44.0 3200.5 -31.0 L 3212.5 -1.0 L 3275.5 139.0 L 3306.5 203.0 L 3346.5 296.0 Q 3350.5 308.0 3342.5 310.5 Q 3334.5 313.0 3328.5 305.0 Z" fill="lightgray"></path>
      </clipPath>
      <path clip-path="url(#make-me-a-hanzi-clip-25)" d="M 3178.5 -44.0 L 3178.5 41.0 L 3226.5 102.0 L 3337.5 301.0 " fill="none" id="make-me-a-hanzi-animation-25" stroke-dasharray="518 1036" stroke-linecap="round"></path>

      <clipPath id="make-me-a-hanzi-clip-26">
      <path d="M 3595.5 503.0 L 3555.5 497.0 Q 3550.5 495.0 3496.5 488.0 L 3468.5 484.0 Q 3456.5 483.0 3454.5 478.0 Q 3451.5 461.0 3471.5 455.0 Q 3481.5 452.0 3497.5 449.0 Q 3525.5 447.0 3528.5 447.0 L 3552.5 449.0 L 3597.5 452.0 L 3660.5 466.0 L 3752.5 483.0 Q 3753.5 483.0 3783.5 490.0 L 3815.5 499.0 Q 3823.5 502.0 3833.5 510.0 Q 3847.5 524.0 3829.0 532.5 Q 3810.5 541.0 3807.5 542.0 L 3783.5 550.0 L 3758.5 544.0 L 3705.5 529.0 L 3662.5 521.0 L 3595.5 503.0 Z" fill="lightgray"></path>
      </clipPath>
      <path clip-path="url(#make-me-a-hanzi-clip-26)" d="M 3465.5 473.0 L 3525.5 469.0 L 3573.5 474.0 L 3781.5 519.0 L 3827.5 520.0 " fill="none" id="make-me-a-hanzi-animation-26" stroke-dasharray="495 990" stroke-linecap="round"></path>

      <clipPath id="make-me-a-hanzi-clip-27">
      <path d="M 3594.5 657.0 Q 3595.5 651.0 3595.5 633.0 L 3595.5 503.0 L 3597.5 452.0 L 3598.5 318.0 C 3598.5 288.0 3654.5 297.0 3655.5 327.0 L 3660.5 466.0 L 3662.5 521.0 L 3666.5 638.0 Q 3666.5 650.0 3669.5 665.0 Q 3670.5 682.0 3675.5 694.0 Q 3679.5 705.0 3678.5 711.0 Q 3678.5 729.0 3634.5 739.0 L 3598.5 745.0 Q 3571.5 745.0 3571.5 732.0 Q 3571.5 728.0 3576.5 716.0 L 3586.5 700.0 L 3590.5 681.0 L 3594.5 657.0 Z" fill="lightgray"></path>
      </clipPath>
      <path clip-path="url(#make-me-a-hanzi-clip-27)" d="M 3582.5 731.0 L 3631.5 694.0 L 3627.5 352.0 L 3604.5 325.0 " fill="none" id="make-me-a-hanzi-animation-27" stroke-dasharray="567 1134" stroke-linecap="round"></path>

      <clipPath id="make-me-a-hanzi-clip-28">
      <path d="M 3598.5 318.0 L 3467.5 296.0 Q 3439.5 292.0 3423.5 290.0 L 3382.5 285.0 Q 3355.5 280.0 3379.5 267.0 L 3393.5 257.0 Q 3401.5 251.0 3415.5 246.5 Q 3429.5 242.0 3435.0 242.5 Q 3440.5 243.0 3464.5 252.0 Q 3488.5 261.0 3495.5 261.5 Q 3502.5 262.0 3520.5 266.0 L 3593.5 278.0 L 3619.5 284.0 L 3678.5 294.0 Q 3765.5 309.0 3837.5 312.0 L 3942.5 315.0 L 3998.5 319.0 Q 4030.5 319.0 4035.5 333.0 Q 4039.5 350.0 4007.5 364.0 Q 3991.5 371.0 3981.5 373.0 L 3964.5 379.0 Q 3943.5 384.0 3928.5 379.0 L 3856.5 364.0 L 3655.5 327.0 L 3598.5 318.0 Z" fill="lightgray"></path>
      </clipPath>
      <path clip-path="url(#make-me-a-hanzi-clip-28)" d="M 3377.5 277.0 L 3432.5 267.0 L 3712.5 319.0 L 3927.5 347.0 L 3952.5 349.0 L 4022.5 337.0 " fill="none" id="make-me-a-hanzi-animation-28" stroke-dasharray="782 1564" stroke-linecap="round"></path>

      <clipPath id="make-me-a-hanzi-clip-29">
      <path d="M 3593.5 278.0 L 3584.5 253.0 Q 3583.5 244.0 3567.5 219.0 L 3543.5 181.0 L 3491.5 113.0 Q 3477.5 92.0 3456.5 70.0 Q 3435.5 48.0 3426.5 43.0 L 3401.5 25.0 Q 3392.5 18.0 3391.5 15.0 Q 3387.5 11.0 3390.5 -4.0 Q 3393.5 -19.0 3405.5 -36.0 L 3420.5 -53.0 Q 3423.5 -56.0 3430.5 -63.0 Q 3437.5 -69.0 3447.5 -67.0 Q 3457.5 -65.0 3471.5 -54.0 Q 3485.5 -43.0 3488.5 -42.0 L 3515.5 -31.0 L 3785.5 55.0 C 3814.5 64.0 3803.5 83.0 3774.5 76.0 L 3535.5 22.0 Q 3511.5 16.0 3503.5 19.0 Q 3485.5 25.0 3507.5 47.0 L 3605.5 153.0 L 3630.5 178.0 Q 3646.5 193.0 3657.5 198.0 Q 3667.5 202.0 3668.5 205.0 Q 3674.5 221.0 3656.5 243.0 Q 3653.5 251.0 3643.5 261.0 L 3619.5 284.0 C 3601.5 301.0 3601.5 301.0 3593.5 278.0 Z" fill="lightgray"></path>
      </clipPath>
      <path clip-path="url(#make-me-a-hanzi-clip-29)" d="M 3615.5 272.0 L 3618.5 223.0 L 3470.5 44.0 L 3453.5 -2.0 L 3482.5 -8.0 L 3515.5 -6.0 L 3767.5 63.0 L 3776.5 57.0 " fill="none" id="make-me-a-hanzi-animation-29" stroke-dasharray="793 1586" stroke-linecap="round"></path>

      <clipPath id="make-me-a-hanzi-clip-30">
      <path d="M 3785.5 55.0 L 3833.5 -17.0 Q 3846.5 -38.0 3855.5 -44.0 Q 3864.5 -50.0 3869.5 -55.0 Q 3880.5 -61.0 3883.5 -58.0 Q 3891.5 -58.0 3903.5 -43.0 Q 3909.5 -31.0 3909.5 -3.0 Q 3909.5 48.0 3849.5 100.0 Q 3821.5 125.0 3762.5 151.0 L 3731.5 163.0 Q 3718.5 169.0 3714.5 165.0 Q 3712.5 159.0 3716.5 155.0 L 3734.5 135.0 Q 3751.5 113.0 3774.5 76.0 L 3785.5 55.0 Z" fill="lightgray"></path>
      </clipPath>
      <path clip-path="url(#make-me-a-hanzi-clip-30)" d="M 3718.5 161.0 L 3775.5 119.0 L 3829.5 64.0 L 3867.5 7.0 L 3880.5 -38.0 " fill="none" id="make-me-a-hanzi-animation-30" stroke-dasharray="391 782" stroke-linecap="round"></path>

</g>
</svg>
