<svg version="1.1" viewBox="0 0 2048 1024" xmlns="http://www.w3.org/2000/svg">
  <g stroke="lightgray" stroke-dasharray="1,1" stroke-width="1" transform="scale(4, 4)">
    <line x1="0" y1="0" x2="256" y2="256"></line>
    <line x1="256" y1="0" x2="0" y2="256"></line>
    <line x1="128" y1="0" x2="128" y2="256"></line>
    <line x1="0" y1="128" x2="256" y2="128"></line>
    <line x1="256" y1="0" x2="512" y2="256"></line>
    <line x1="512" y1="0" x2="256" y2="256"></line>
    <line x1="384" y1="0" x2="384" y2="256"></line>
    <line x1="256" y1="128" x2="512" y2="128"></line>
  </g>
<g transform="scale(1, -1) translate(0, -850)">
   <style type="text/css">
    @keyframes keyframes0 {
      from {
       stroke: black;
       stroke-dashoffset: 532;
       stroke-width: 128;
       }
       63% {
       animation-timing-function: step-end;
       stroke: black;
       stroke-dashoffset: 0;
       stroke-width: 128;
       }
       to {
       stroke: black;
       stroke-width: 1024;
       }
       }
       #make-me-a-hanzi-animation-0 {
         animation: keyframes0 0.682943s both;
         animation-delay: 0.000000s;
         animation-timing-function: linear;
       }
    @keyframes keyframes1 {
      from {
       stroke: black;
       stroke-dashoffset: 478;
       stroke-width: 128;
       }
       61% {
       animation-timing-function: step-end;
       stroke: black;
       stroke-dashoffset: 0;
       stroke-width: 128;
       }
       to {
       stroke: black;
       stroke-width: 1024;
       }
       }
       #make-me-a-hanzi-animation-1 {
         animation: keyframes1 0.638997s both;
         animation-delay: 0.682943s;
         animation-timing-function: linear;
       }
    @keyframes keyframes2 {
      from {
       stroke: black;
       stroke-dashoffset: 775;
       stroke-width: 128;
       }
       72% {
       animation-timing-function: step-end;
       stroke: black;
       stroke-dashoffset: 0;
       stroke-width: 128;
       }
       to {
       stroke: black;
       stroke-width: 1024;
       }
       }
       #make-me-a-hanzi-animation-2 {
         animation: keyframes2 0.880697s both;
         animation-delay: 1.321940s;
         animation-timing-function: linear;
       }
    @keyframes keyframes3 {
      from {
       stroke: black;
       stroke-dashoffset: 422;
       stroke-width: 128;
       }
       58% {
       animation-timing-function: step-end;
       stroke: black;
       stroke-dashoffset: 0;
       stroke-width: 128;
       }
       to {
       stroke: black;
       stroke-width: 1024;
       }
       }
       #make-me-a-hanzi-animation-3 {
         animation: keyframes3 0.593424s both;
         animation-delay: 2.202637s;
         animation-timing-function: linear;
       }
    @keyframes keyframes4 {
      from {
       stroke: black;
       stroke-dashoffset: 527;
       stroke-width: 128;
       }
       63% {
       animation-timing-function: step-end;
       stroke: black;
       stroke-dashoffset: 0;
       stroke-width: 128;
       }
       to {
       stroke: black;
       stroke-width: 1024;
       }
       }
       #make-me-a-hanzi-animation-4 {
         animation: keyframes4 0.678874s both;
         animation-delay: 2.796061s;
         animation-timing-function: linear;
       }
    @keyframes keyframes5 {
      from {
       stroke: black;
       stroke-dashoffset: 547;
       stroke-width: 128;
       }
       64% {
       animation-timing-function: step-end;
       stroke: black;
       stroke-dashoffset: 0;
       stroke-width: 128;
       }
       to {
       stroke: black;
       stroke-width: 1024;
       }
       }
       #make-me-a-hanzi-animation-5 {
         animation: keyframes5 0.695150s both;
         animation-delay: 3.474935s;
         animation-timing-function: linear;
       }
    @keyframes keyframes6 {
      from {
       stroke: black;
       stroke-dashoffset: 402;
       stroke-width: 128;
       }
       57% {
       animation-timing-function: step-end;
       stroke: black;
       stroke-dashoffset: 0;
       stroke-width: 128;
       }
       to {
       stroke: black;
       stroke-width: 1024;
       }
       }
       #make-me-a-hanzi-animation-6 {
         animation: keyframes6 0.577148s both;
         animation-delay: 4.170085s;
         animation-timing-function: linear;
       }
    @keyframes keyframes7 {
      from {
       stroke: black;
       stroke-dashoffset: 358;
       stroke-width: 128;
       }
       54% {
       animation-timing-function: step-end;
       stroke: black;
       stroke-dashoffset: 0;
       stroke-width: 128;
       }
       to {
       stroke: black;
       stroke-width: 1024;
       }
       }
       #make-me-a-hanzi-animation-7 {
         animation: keyframes7 0.541341s both;
         animation-delay: 4.747233s;
         animation-timing-function: linear;
       }
    @keyframes keyframes8 {
      from {
       stroke: black;
       stroke-dashoffset: 644;
       stroke-width: 128;
       }
       68% {
       animation-timing-function: step-end;
       stroke: black;
       stroke-dashoffset: 0;
       stroke-width: 128;
       }
       to {
       stroke: black;
       stroke-width: 1024;
       }
       }
       #make-me-a-hanzi-animation-8 {
         animation: keyframes8 0.774089s both;
         animation-delay: 5.288574s;
         animation-timing-function: linear;
       }
    @keyframes keyframes9 {
      from {
       stroke: black;
       stroke-dashoffset: 899;
       stroke-width: 128;
       }
       75% {
       animation-timing-function: step-end;
       stroke: black;
       stroke-dashoffset: 0;
       stroke-width: 128;
       }
       to {
       stroke: black;
       stroke-width: 1024;
       }
       }
       #make-me-a-hanzi-animation-9 {
         animation: keyframes9 0.981608s both;
         animation-delay: 6.062663s;
         animation-timing-function: linear;
       }
    @keyframes keyframes10 {
      from {
       stroke: black;
       stroke-dashoffset: 364;
       stroke-width: 128;
       }
       54% {
       animation-timing-function: step-end;
       stroke: black;
       stroke-dashoffset: 0;
       stroke-width: 128;
       }
       to {
       stroke: black;
       stroke-width: 1024;
       }
       }
       #make-me-a-hanzi-animation-10 {
         animation: keyframes10 0.546224s both;
         animation-delay: 7.044271s;
         animation-timing-function: linear;
       }
    @keyframes keyframes11 {
      from {
       stroke: black;
       stroke-dashoffset: 418;
       stroke-width: 128;
       }
       58% {
       animation-timing-function: step-end;
       stroke: black;
       stroke-dashoffset: 0;
       stroke-width: 128;
       }
       to {
       stroke: black;
       stroke-width: 1024;
       }
       }
       #make-me-a-hanzi-animation-11 {
         animation: keyframes11 0.590169s both;
         animation-delay: 7.590495s;
         animation-timing-function: linear;
       }
    @keyframes keyframes12 {
      from {
       stroke: black;
       stroke-dashoffset: 957;
       stroke-width: 128;
       }
       76% {
       animation-timing-function: step-end;
       stroke: black;
       stroke-dashoffset: 0;
       stroke-width: 128;
       }
       to {
       stroke: black;
       stroke-width: 1024;
       }
       }
       #make-me-a-hanzi-animation-12 {
         animation: keyframes12 1.028809s both;
         animation-delay: 8.180664s;
         animation-timing-function: linear;
       }
    @keyframes keyframes13 {
      from {
       stroke: black;
       stroke-dashoffset: 381;
       stroke-width: 128;
       }
       55% {
       animation-timing-function: step-end;
       stroke: black;
       stroke-dashoffset: 0;
       stroke-width: 128;
       }
       to {
       stroke: black;
       stroke-width: 1024;
       }
       }
       #make-me-a-hanzi-animation-13 {
         animation: keyframes13 0.560059s both;
         animation-delay: 9.209473s;
         animation-timing-function: linear;
       }
    @keyframes keyframes14 {
      from {
       stroke: black;
       stroke-dashoffset: 410;
       stroke-width: 128;
       }
       57% {
       animation-timing-function: step-end;
       stroke: black;
       stroke-dashoffset: 0;
       stroke-width: 128;
       }
       to {
       stroke: black;
       stroke-width: 1024;
       }
       }
       #make-me-a-hanzi-animation-14 {
         animation: keyframes14 0.583659s both;
         animation-delay: 9.769532s;
         animation-timing-function: linear;
       }
    @keyframes keyframes15 {
      from {
       stroke: black;
       stroke-dashoffset: 377;
       stroke-width: 128;
       }
       55% {
       animation-timing-function: step-end;
       stroke: black;
       stroke-dashoffset: 0;
       stroke-width: 128;
       }
       to {
       stroke: black;
       stroke-width: 1024;
       }
       }
       #make-me-a-hanzi-animation-15 {
         animation: keyframes15 0.556803s both;
         animation-delay: 10.353191s;
         animation-timing-function: linear;
       }
    @keyframes keyframes16 {
      from {
       stroke: black;
       stroke-dashoffset: 903;
       stroke-width: 128;
       }
       75% {
       animation-timing-function: step-end;
       stroke: black;
       stroke-dashoffset: 0;
       stroke-width: 128;
       }
       to {
       stroke: black;
       stroke-width: 1024;
       }
       }
       #make-me-a-hanzi-animation-16 {
         animation: keyframes16 0.984863s both;
         animation-delay: 10.909994s;
         animation-timing-function: linear;
       }
    @keyframes keyframes17 {
      from {
       stroke: black;
       stroke-dashoffset: 1434;
       stroke-width: 128;
       }
       82% {
       animation-timing-function: step-end;
       stroke: black;
       stroke-dashoffset: 0;
       stroke-width: 128;
       }
       to {
       stroke: black;
       stroke-width: 1024;
       }
       }
       #make-me-a-hanzi-animation-17 {
         animation: keyframes17 1.416992s both;
         animation-delay: 11.894857s;
         animation-timing-function: linear;
       }
    @keyframes keyframes18 {
      from {
       stroke: black;
       stroke-dashoffset: 505;
       stroke-width: 128;
       }
       62% {
       animation-timing-function: step-end;
       stroke: black;
       stroke-dashoffset: 0;
       stroke-width: 128;
       }
       to {
       stroke: black;
       stroke-width: 1024;
       }
       }
       #make-me-a-hanzi-animation-18 {
         animation: keyframes18 0.660970s both;
         animation-delay: 13.311849s;
         animation-timing-function: linear;
       }
    @keyframes keyframes19 {
      from {
       stroke: black;
       stroke-dashoffset: 650;
       stroke-width: 128;
       }
       68% {
       animation-timing-function: step-end;
       stroke: black;
       stroke-dashoffset: 0;
       stroke-width: 128;
       }
       to {
       stroke: black;
       stroke-width: 1024;
       }
       }
       #make-me-a-hanzi-animation-19 {
         animation: keyframes19 0.778971s both;
         animation-delay: 13.972819s;
         animation-timing-function: linear;
       }
    @keyframes keyframes20 {
      from {
       stroke: black;
       stroke-dashoffset: 475;
       stroke-width: 128;
       }
       61% {
       animation-timing-function: step-end;
       stroke: black;
       stroke-dashoffset: 0;
       stroke-width: 128;
       }
       to {
       stroke: black;
       stroke-width: 1024;
       }
       }
       #make-me-a-hanzi-animation-20 {
         animation: keyframes20 0.636556s both;
         animation-delay: 14.751790s;
         animation-timing-function: linear;
       }
</style>
<path d="M 513.0 618.5 L 519.0 645.5 Q 521.0 653.5 524.0 660.5 L 548.0 694.5 Q 549.0 706.5 517.0 726.5 Q 502.0 735.5 492.0 735.5 Q 482.0 735.5 442.0 722.5 Q 402.0 709.5 315.0 703.5 C 285.0 701.5 284.0 668.5 313.0 674.5 L 343.0 680.5 L 387.0 691.5 L 433.0 697.5 Q 464.0 702.5 470.0 696.5 Q 475.0 692.5 471.0 668.5 Q 466.0 643.5 464.0 626.5 C 460.0 596.5 506.0 589.5 513.0 618.5 Z" fill="lightgray"></path> 
<path d="M 525.0 598.5 Q 525.0 607.5 513.0 618.5 C 500.0 631.5 494.0 630.5 464.0 626.5 L 437.0 622.5 L 387.0 611.5 Q 375.0 611.5 302.0 600.5 C 272.0 596.5 265.0 566.5 295.0 569.5 L 502.0 592.5 Q 522.0 592.5 525.0 598.5 Z" fill="lightgray"></path> 
<path d="M 315.0 703.5 L 303.0 708.5 Q 291.0 715.5 270.0 716.5 Q 249.0 717.5 243.0 712.5 Q 237.0 707.5 248.0 694.5 Q 258.0 680.5 259.0 660.5 Q 259.0 639.5 252.0 584.5 Q 242.0 507.5 204.0 418.5 Q 158.0 332.5 114.0 287.5 L 96.0 270.5 Q 88.0 262.5 91.0 258.5 Q 93.0 254.5 102.0 260.5 L 124.0 272.5 Q 161.0 294.5 202.0 343.5 Q 247.0 401.5 268.0 464.5 L 284.0 520.5 L 295.0 569.5 L 302.0 600.5 L 306.0 626.5 Q 308.0 635.5 309.0 648.5 L 313.0 674.5 C 317.0 702.5 317.0 702.5 315.0 703.5 Z" fill="lightgray"></path> 
<path d="M 425.0 496.5 L 455.0 500.5 Q 484.0 504.5 490.0 514.5 Q 490.0 520.5 482.0 526.5 Q 471.0 533.5 453.0 535.5 Q 435.0 536.5 427.0 535.5 L 394.0 527.5 Q 368.0 520.5 347.0 517.5 Q 326.0 515.5 318.0 510.5 Q 309.0 505.5 309.0 503.5 Q 308.0 501.5 317.0 496.5 Q 345.0 479.5 425.0 496.5 Z" fill="lightgray"></path> 
<path d="M 396.0 410.5 L 425.0 414.5 L 509.0 422.5 Q 534.0 423.5 538.0 429.5 Q 539.0 433.5 530.0 441.5 Q 508.0 463.5 458.0 453.5 L 398.0 441.5 L 268.0 418.5 Q 256.0 418.5 255.0 415.5 Q 254.0 411.5 259.0 408.5 Q 263.0 404.5 274.0 400.5 L 285.0 394.5 Q 294.0 390.5 302.0 391.5 L 370.0 406.5 L 396.0 410.5 Z" fill="lightgray"></path> 
<path d="M 358.0 243.5 L 301.0 254.5 Q 295.0 254.5 295.0 252.5 Q 295.0 249.5 301.0 245.5 L 336.0 211.5 Q 348.0 200.5 352.0 194.5 L 364.0 178.5 Q 371.0 170.5 384.0 171.5 Q 396.0 172.5 410.0 198.5 Q 417.0 208.5 419.0 225.5 Q 421.0 242.5 420.0 294.5 Q 418.0 346.5 425.0 367.5 L 429.0 378.5 Q 434.0 394.5 422.0 400.5 L 396.0 410.5 C 368.0 421.5 366.0 422.5 370.0 406.5 L 375.0 388.5 L 378.0 313.5 L 376.0 278.5 Q 375.0 259.5 370.0 251.5 Q 366.0 244.5 361.0 244.5 Q 360.0 243.5 358.0 243.5 Z" fill="lightgray"></path> 
<path d="M 228.0 275.5 L 210.0 256.5 Q 204.0 249.5 208.0 246.5 Q 211.0 242.5 217.0 246.5 L 242.0 257.5 Q 282.0 276.5 307.0 304.5 Q 315.0 313.5 319.0 316.5 L 327.0 324.5 Q 334.0 329.5 326.0 341.5 Q 317.0 352.5 300.0 358.5 Q 282.0 363.5 281.0 361.5 Q 279.0 358.5 273.0 334.5 Q 256.0 303.5 228.0 275.5 Z" fill="lightgray"></path> 
<path d="M 484.0 329.5 L 511.0 291.5 Q 528.0 269.5 545.0 274.5 Q 552.0 276.5 553.0 294.5 Q 554.0 311.5 550.0 322.5 Q 545.0 333.5 519.0 344.5 Q 506.0 353.5 487.0 359.5 Q 468.0 364.5 466.0 360.5 Q 463.0 355.5 484.0 329.5 Z" fill="lightgray"></path> 
<path d="M 712.0 572.5 L 577.0 557.5 Q 556.0 555.5 544.0 553.5 Q 530.0 553.5 530.0 550.5 Q 530.0 546.5 539.0 539.5 Q 547.0 531.5 560.0 527.5 Q 573.0 522.5 580.0 522.5 Q 587.0 521.5 609.0 526.5 Q 631.0 530.5 662.0 533.5 L 740.0 544.5 L 784.0 546.5 L 903.0 553.5 Q 928.0 553.5 932.0 563.5 Q 932.0 566.5 929.0 572.5 Q 926.0 578.5 917.0 582.5 Q 881.0 596.5 869.0 596.5 Q 857.0 596.5 841.0 594.5 L 806.0 588.5 Q 800.0 586.5 784.0 584.5 L 740.0 577.5 L 712.0 572.5 Z" fill="lightgray"></path> 
<path d="M 740.0 544.5 L 737.0 398.5 Q 733.0 306.5 724.0 279.5 Q 719.0 270.5 714.0 267.5 Q 705.0 262.5 682.0 272.5 L 643.0 289.5 Q 635.0 291.5 631.0 290.5 Q 627.0 288.5 635.0 280.5 L 669.0 245.5 L 712.0 181.5 Q 721.0 172.5 745.0 190.5 Q 769.0 208.5 779.0 239.5 Q 781.0 251.5 781.0 274.5 L 781.0 327.5 Q 780.0 352.5 781.0 375.5 L 784.0 546.5 L 784.0 584.5 L 787.0 629.5 Q 791.0 663.5 800.0 682.5 Q 808.0 700.5 808.0 706.5 Q 806.0 721.5 776.0 736.5 Q 746.0 750.5 731.0 748.5 Q 710.0 749.5 720.0 728.5 L 727.0 715.5 Q 730.0 707.5 734.0 690.5 L 738.0 656.5 Q 740.0 623.5 740.0 577.5 L 740.0 544.5 Z" fill="lightgray"></path> 
<path d="M 607.0 459.5 L 586.0 465.5 Q 578.0 467.5 577.0 464.5 Q 575.0 461.5 581.0 453.5 L 606.0 418.5 Q 612.0 411.5 620.0 398.5 Q 647.0 352.5 667.0 374.5 Q 671.0 379.5 675.0 396.5 Q 678.0 413.5 672.0 424.5 Q 657.0 442.5 607.0 459.5 Z" fill="lightgray"></path> 
<path d="M 193.0 122.5 L 178.0 93.5 Q 171.0 82.5 157.0 66.5 Q 144.0 49.5 142.0 42.5 Q 139.0 34.5 140.0 22.5 Q 146.0 -26.5 169.0 -26.5 Q 178.0 -26.5 191.0 -15.5 Q 203.0 -4.5 212.0 13.5 Q 241.0 71.5 232.0 119.5 Q 228.0 134.5 221.0 143.5 Q 214.0 152.5 212.0 152.5 Q 210.0 152.5 193.0 122.5 Z" fill="lightgray"></path> 
<path d="M 738.0 67.5 L 695.0 109.5 Q 686.0 115.5 683.0 113.5 Q 680.0 111.5 683.0 102.5 L 711.0 35.5 Q 713.0 22.5 712.0 17.5 Q 711.0 12.5 696.0 3.5 Q 680.0 -5.5 641.0 -8.5 Q 459.0 -22.5 386.0 67.5 Q 359.0 102.5 348.0 140.5 Q 344.0 168.5 336.0 175.5 Q 327.0 181.5 317.0 183.5 L 305.0 187.5 Q 297.0 187.5 296.0 184.5 Q 294.0 181.5 302.0 165.5 Q 309.0 149.5 320.0 118.5 Q 330.0 87.5 339.0 67.5 Q 404.0 -72.5 631.0 -72.5 Q 706.0 -74.5 759.0 -56.5 Q 812.0 -38.5 829.0 -22.5 Q 838.0 -9.5 827.0 6.5 Q 819.0 13.5 802.0 22.5 L 768.0 43.5 Q 750.0 56.5 738.0 67.5 Z" fill="lightgray"></path> 
<path d="M 473.0 208.5 Q 469.0 200.5 497.0 168.5 L 523.0 136.5 Q 553.0 96.5 579.0 105.5 Q 594.0 113.5 593.0 136.5 Q 591.0 159.5 583.0 170.5 Q 569.0 189.5 534.0 200.5 Q 499.0 210.5 486.0 209.5 Q 476.0 209.5 473.0 208.5 Z" fill="lightgray"></path> 
<path d="M 807.0 176.5 L 783.0 181.5 Q 774.0 183.5 773.0 181.5 Q 771.0 178.5 778.0 171.5 L 857.0 87.5 Q 880.0 64.5 901.0 64.5 Q 914.0 62.5 923.0 83.5 Q 936.0 111.5 916.0 132.5 Q 905.0 142.5 878.0 152.5 L 837.0 167.5 L 807.0 176.5 Z" fill="lightgray"></path> 
<path d="M 1326.0 711.5 L 1378.0 649.5 Q 1399.0 630.5 1418.0 628.5 Q 1434.0 627.5 1442.0 648.5 Q 1445.0 664.5 1434.0 688.5 Q 1422.0 707.5 1394.0 719.5 Q 1351.0 740.5 1332.0 743.5 Q 1322.0 746.5 1320.0 732.5 Q 1317.0 722.5 1326.0 711.5 Z" fill="lightgray"></path> 
<path d="M 1202.0 612.5 Q 1257.0 480.5 1218.0 194.5 Q 1211.0 148.5 1195.0 100.5 Q 1176.0 37.5 1215.0 -6.5 Q 1228.0 -22.5 1240.0 -6.5 Q 1274.0 35.5 1276.0 202.5 Q 1276.0 490.5 1289.0 576.5 Q 1292.0 597.5 1273.0 608.5 Q 1246.0 630.5 1216.0 639.5 Q 1204.0 640.5 1197.0 631.5 Q 1193.0 624.5 1202.0 612.5 Z" fill="lightgray"></path> 
<path d="M 1531.0 693.5 Q 1515.0 693.5 1519.0 683.5 Q 1526.0 670.5 1549.0 660.5 Q 1564.0 651.5 1587.0 657.5 Q 1779.0 712.5 1799.0 683.5 Q 1809.0 667.5 1815.0 608.5 Q 1833.0 367.5 1820.0 94.5 Q 1819.0 54.5 1804.0 42.5 Q 1785.0 29.5 1691.0 54.5 Q 1673.0 55.5 1675.0 46.5 Q 1676.0 39.5 1690.0 33.5 Q 1772.0 -15.5 1817.0 -55.5 Q 1839.0 -76.5 1853.0 -72.5 Q 1866.0 -69.5 1877.0 -39.5 Q 1893.0 8.5 1890.0 77.5 Q 1869.0 459.5 1871.0 602.5 Q 1872.0 642.5 1884.0 666.5 Q 1896.0 688.5 1885.0 700.5 Q 1875.0 716.5 1826.0 740.5 Q 1804.0 752.5 1741.0 731.5 Q 1612.0 701.5 1531.0 693.5 Z" fill="lightgray"></path> 
<path d="M 1425.0 434.5 Q 1412.0 438.5 1384.0 444.5 Q 1371.0 448.5 1368.0 442.5 Q 1361.0 436.5 1370.0 419.5 Q 1398.0 356.5 1416.0 254.5 Q 1419.0 224.5 1436.0 203.5 Q 1455.0 181.5 1460.0 196.5 Q 1466.0 212.5 1464.0 237.5 L 1460.0 271.5 Q 1444.0 371.5 1442.0 402.5 C 1440.0 430.5 1440.0 430.5 1425.0 434.5 Z" fill="lightgray"></path> 
<path d="M 1661.0 297.5 Q 1685.0 384.5 1718.0 409.5 Q 1734.0 428.5 1720.0 446.5 Q 1651.0 503.5 1593.0 474.5 Q 1521.0 450.5 1425.0 434.5 C 1395.0 429.5 1413.0 396.5 1442.0 402.5 L 1598.0 433.5 Q 1616.0 437.5 1623.0 430.5 Q 1633.0 421.5 1631.0 401.5 Q 1624.0 346.5 1611.0 300.5 C 1603.0 271.5 1653.0 268.5 1661.0 297.5 Z" fill="lightgray"></path> 
<path d="M 1464.0 237.5 Q 1468.0 237.5 1476.0 238.5 Q 1540.0 251.5 1676.0 261.5 Q 1686.0 262.5 1688.0 271.5 Q 1688.0 278.5 1661.0 297.5 C 1646.0 308.5 1640.0 307.5 1611.0 300.5 Q 1527.0 281.5 1460.0 271.5 C 1430.0 266.5 1434.0 235.5 1464.0 237.5 Z" fill="lightgray"></path> 
      <clipPath id="make-me-a-hanzi-clip-0">
      <path d="M 513.0 618.5 L 519.0 645.5 Q 521.0 653.5 524.0 660.5 L 548.0 694.5 Q 549.0 706.5 517.0 726.5 Q 502.0 735.5 492.0 735.5 Q 482.0 735.5 442.0 722.5 Q 402.0 709.5 315.0 703.5 C 285.0 701.5 284.0 668.5 313.0 674.5 L 343.0 680.5 L 387.0 691.5 L 433.0 697.5 Q 464.0 702.5 470.0 696.5 Q 475.0 692.5 471.0 668.5 Q 466.0 643.5 464.0 626.5 C 460.0 596.5 506.0 589.5 513.0 618.5 Z" fill="lightgray"></path>
      </clipPath>
      <path clip-path="url(#make-me-a-hanzi-clip-0)" d="M 319.0 681.5 L 328.0 691.5 L 344.0 694.5 L 457.0 713.5 L 485.0 712.5 L 506.0 694.5 L 493.0 647.5 L 471.0 631.5 " fill="none" id="make-me-a-hanzi-animation-0" stroke-dasharray="404 808" stroke-linecap="round"></path>

      <clipPath id="make-me-a-hanzi-clip-1">
      <path d="M 525.0 598.5 Q 525.0 607.5 513.0 618.5 C 500.0 631.5 494.0 630.5 464.0 626.5 L 437.0 622.5 L 387.0 611.5 Q 375.0 611.5 302.0 600.5 C 272.0 596.5 265.0 566.5 295.0 569.5 L 502.0 592.5 Q 522.0 592.5 525.0 598.5 Z" fill="lightgray"></path>
      </clipPath>
      <path clip-path="url(#make-me-a-hanzi-clip-1)" d="M 302.0 576.5 L 315.0 587.5 L 460.0 607.5 L 518.0 601.5 " fill="none" id="make-me-a-hanzi-animation-1" stroke-dasharray="350 700" stroke-linecap="round"></path>

      <clipPath id="make-me-a-hanzi-clip-2">
      <path d="M 315.0 703.5 L 303.0 708.5 Q 291.0 715.5 270.0 716.5 Q 249.0 717.5 243.0 712.5 Q 237.0 707.5 248.0 694.5 Q 258.0 680.5 259.0 660.5 Q 259.0 639.5 252.0 584.5 Q 242.0 507.5 204.0 418.5 Q 158.0 332.5 114.0 287.5 L 96.0 270.5 Q 88.0 262.5 91.0 258.5 Q 93.0 254.5 102.0 260.5 L 124.0 272.5 Q 161.0 294.5 202.0 343.5 Q 247.0 401.5 268.0 464.5 L 284.0 520.5 L 295.0 569.5 L 302.0 600.5 L 306.0 626.5 Q 308.0 635.5 309.0 648.5 L 313.0 674.5 C 317.0 702.5 317.0 702.5 315.0 703.5 Z" fill="lightgray"></path>
      </clipPath>
      <path clip-path="url(#make-me-a-hanzi-clip-2)" d="M 251.0 706.5 L 285.0 683.5 L 285.0 658.5 L 270.0 555.5 L 250.0 477.5 L 224.0 412.5 L 184.0 347.5 L 144.0 300.5 L 96.0 263.5 " fill="none" id="make-me-a-hanzi-animation-2" stroke-dasharray="647 1294" stroke-linecap="round"></path>

      <clipPath id="make-me-a-hanzi-clip-3">
      <path d="M 425.0 496.5 L 455.0 500.5 Q 484.0 504.5 490.0 514.5 Q 490.0 520.5 482.0 526.5 Q 471.0 533.5 453.0 535.5 Q 435.0 536.5 427.0 535.5 L 394.0 527.5 Q 368.0 520.5 347.0 517.5 Q 326.0 515.5 318.0 510.5 Q 309.0 505.5 309.0 503.5 Q 308.0 501.5 317.0 496.5 Q 345.0 479.5 425.0 496.5 Z" fill="lightgray"></path>
      </clipPath>
      <path clip-path="url(#make-me-a-hanzi-clip-3)" d="M 316.0 503.5 L 481.0 517.5 " fill="none" id="make-me-a-hanzi-animation-3" stroke-dasharray="294 588" stroke-linecap="round"></path>

      <clipPath id="make-me-a-hanzi-clip-4">
      <path d="M 396.0 410.5 L 425.0 414.5 L 509.0 422.5 Q 534.0 423.5 538.0 429.5 Q 539.0 433.5 530.0 441.5 Q 508.0 463.5 458.0 453.5 L 398.0 441.5 L 268.0 418.5 Q 256.0 418.5 255.0 415.5 Q 254.0 411.5 259.0 408.5 Q 263.0 404.5 274.0 400.5 L 285.0 394.5 Q 294.0 390.5 302.0 391.5 L 370.0 406.5 L 396.0 410.5 Z" fill="lightgray"></path>
      </clipPath>
      <path clip-path="url(#make-me-a-hanzi-clip-4)" d="M 262.0 414.5 L 298.0 407.5 L 470.0 437.5 L 530.0 433.5 " fill="none" id="make-me-a-hanzi-animation-4" stroke-dasharray="399 798" stroke-linecap="round"></path>

      <clipPath id="make-me-a-hanzi-clip-5">
      <path d="M 358.0 243.5 L 301.0 254.5 Q 295.0 254.5 295.0 252.5 Q 295.0 249.5 301.0 245.5 L 336.0 211.5 Q 348.0 200.5 352.0 194.5 L 364.0 178.5 Q 371.0 170.5 384.0 171.5 Q 396.0 172.5 410.0 198.5 Q 417.0 208.5 419.0 225.5 Q 421.0 242.5 420.0 294.5 Q 418.0 346.5 425.0 367.5 L 429.0 378.5 Q 434.0 394.5 422.0 400.5 L 396.0 410.5 C 368.0 421.5 366.0 422.5 370.0 406.5 L 375.0 388.5 L 378.0 313.5 L 376.0 278.5 Q 375.0 259.5 370.0 251.5 Q 366.0 244.5 361.0 244.5 Q 360.0 243.5 358.0 243.5 Z" fill="lightgray"></path>
      </clipPath>
      <path clip-path="url(#make-me-a-hanzi-clip-5)" d="M 377.0 403.5 L 401.0 379.5 L 398.0 266.5 L 391.0 231.5 L 380.0 215.5 L 372.0 216.5 L 299.0 250.5 " fill="none" id="make-me-a-hanzi-animation-5" stroke-dasharray="419 838" stroke-linecap="round"></path>

      <clipPath id="make-me-a-hanzi-clip-6">
      <path d="M 228.0 275.5 L 210.0 256.5 Q 204.0 249.5 208.0 246.5 Q 211.0 242.5 217.0 246.5 L 242.0 257.5 Q 282.0 276.5 307.0 304.5 Q 315.0 313.5 319.0 316.5 L 327.0 324.5 Q 334.0 329.5 326.0 341.5 Q 317.0 352.5 300.0 358.5 Q 282.0 363.5 281.0 361.5 Q 279.0 358.5 273.0 334.5 Q 256.0 303.5 228.0 275.5 Z" fill="lightgray"></path>
      </clipPath>
      <path clip-path="url(#make-me-a-hanzi-clip-6)" d="M 284.0 355.5 L 298.0 332.5 L 294.0 323.5 L 263.0 288.5 L 213.0 250.5 " fill="none" id="make-me-a-hanzi-animation-6" stroke-dasharray="274 548" stroke-linecap="round"></path>

      <clipPath id="make-me-a-hanzi-clip-7">
      <path d="M 484.0 329.5 L 511.0 291.5 Q 528.0 269.5 545.0 274.5 Q 552.0 276.5 553.0 294.5 Q 554.0 311.5 550.0 322.5 Q 545.0 333.5 519.0 344.5 Q 506.0 353.5 487.0 359.5 Q 468.0 364.5 466.0 360.5 Q 463.0 355.5 484.0 329.5 Z" fill="lightgray"></path>
      </clipPath>
      <path clip-path="url(#make-me-a-hanzi-clip-7)" d="M 470.0 358.5 L 517.0 321.5 L 539.0 285.5 " fill="none" id="make-me-a-hanzi-animation-7" stroke-dasharray="230 460" stroke-linecap="round"></path>

      <clipPath id="make-me-a-hanzi-clip-8">
      <path d="M 712.0 572.5 L 577.0 557.5 Q 556.0 555.5 544.0 553.5 Q 530.0 553.5 530.0 550.5 Q 530.0 546.5 539.0 539.5 Q 547.0 531.5 560.0 527.5 Q 573.0 522.5 580.0 522.5 Q 587.0 521.5 609.0 526.5 Q 631.0 530.5 662.0 533.5 L 740.0 544.5 L 784.0 546.5 L 903.0 553.5 Q 928.0 553.5 932.0 563.5 Q 932.0 566.5 929.0 572.5 Q 926.0 578.5 917.0 582.5 Q 881.0 596.5 869.0 596.5 Q 857.0 596.5 841.0 594.5 L 806.0 588.5 Q 800.0 586.5 784.0 584.5 L 740.0 577.5 L 712.0 572.5 Z" fill="lightgray"></path>
      </clipPath>
      <path clip-path="url(#make-me-a-hanzi-clip-8)" d="M 538.0 547.5 L 597.0 540.5 L 870.0 574.5 L 923.0 565.5 " fill="none" id="make-me-a-hanzi-animation-8" stroke-dasharray="516 1032" stroke-linecap="round"></path>

      <clipPath id="make-me-a-hanzi-clip-9">
      <path d="M 740.0 544.5 L 737.0 398.5 Q 733.0 306.5 724.0 279.5 Q 719.0 270.5 714.0 267.5 Q 705.0 262.5 682.0 272.5 L 643.0 289.5 Q 635.0 291.5 631.0 290.5 Q 627.0 288.5 635.0 280.5 L 669.0 245.5 L 712.0 181.5 Q 721.0 172.5 745.0 190.5 Q 769.0 208.5 779.0 239.5 Q 781.0 251.5 781.0 274.5 L 781.0 327.5 Q 780.0 352.5 781.0 375.5 L 784.0 546.5 L 784.0 584.5 L 787.0 629.5 Q 791.0 663.5 800.0 682.5 Q 808.0 700.5 808.0 706.5 Q 806.0 721.5 776.0 736.5 Q 746.0 750.5 731.0 748.5 Q 710.0 749.5 720.0 728.5 L 727.0 715.5 Q 730.0 707.5 734.0 690.5 L 738.0 656.5 Q 740.0 623.5 740.0 577.5 L 740.0 544.5 Z" fill="lightgray"></path>
      </clipPath>
      <path clip-path="url(#make-me-a-hanzi-clip-9)" d="M 727.0 737.5 L 769.0 700.5 L 752.0 267.5 L 743.0 245.5 L 728.0 229.5 L 688.0 249.5 L 637.0 287.5 " fill="none" id="make-me-a-hanzi-animation-9" stroke-dasharray="771 1542" stroke-linecap="round"></path>

      <clipPath id="make-me-a-hanzi-clip-10">
      <path d="M 607.0 459.5 L 586.0 465.5 Q 578.0 467.5 577.0 464.5 Q 575.0 461.5 581.0 453.5 L 606.0 418.5 Q 612.0 411.5 620.0 398.5 Q 647.0 352.5 667.0 374.5 Q 671.0 379.5 675.0 396.5 Q 678.0 413.5 672.0 424.5 Q 657.0 442.5 607.0 459.5 Z" fill="lightgray"></path>
      </clipPath>
      <path clip-path="url(#make-me-a-hanzi-clip-10)" d="M 582.0 460.5 L 644.0 412.5 L 653.0 384.5 " fill="none" id="make-me-a-hanzi-animation-10" stroke-dasharray="236 472" stroke-linecap="round"></path>

      <clipPath id="make-me-a-hanzi-clip-11">
      <path d="M 193.0 122.5 L 178.0 93.5 Q 171.0 82.5 157.0 66.5 Q 144.0 49.5 142.0 42.5 Q 139.0 34.5 140.0 22.5 Q 146.0 -26.5 169.0 -26.5 Q 178.0 -26.5 191.0 -15.5 Q 203.0 -4.5 212.0 13.5 Q 241.0 71.5 232.0 119.5 Q 228.0 134.5 221.0 143.5 Q 214.0 152.5 212.0 152.5 Q 210.0 152.5 193.0 122.5 Z" fill="lightgray"></path>
      </clipPath>
      <path clip-path="url(#make-me-a-hanzi-clip-11)" d="M 215.0 146.5 L 205.0 85.5 L 178.0 29.5 L 169.0 -7.5 " fill="none" id="make-me-a-hanzi-animation-11" stroke-dasharray="290 580" stroke-linecap="round"></path>

      <clipPath id="make-me-a-hanzi-clip-12">
      <path d="M 738.0 67.5 L 695.0 109.5 Q 686.0 115.5 683.0 113.5 Q 680.0 111.5 683.0 102.5 L 711.0 35.5 Q 713.0 22.5 712.0 17.5 Q 711.0 12.5 696.0 3.5 Q 680.0 -5.5 641.0 -8.5 Q 459.0 -22.5 386.0 67.5 Q 359.0 102.5 348.0 140.5 Q 344.0 168.5 336.0 175.5 Q 327.0 181.5 317.0 183.5 L 305.0 187.5 Q 297.0 187.5 296.0 184.5 Q 294.0 181.5 302.0 165.5 Q 309.0 149.5 320.0 118.5 Q 330.0 87.5 339.0 67.5 Q 404.0 -72.5 631.0 -72.5 Q 706.0 -74.5 759.0 -56.5 Q 812.0 -38.5 829.0 -22.5 Q 838.0 -9.5 827.0 6.5 Q 819.0 13.5 802.0 22.5 L 768.0 43.5 Q 750.0 56.5 738.0 67.5 Z" fill="lightgray"></path>
      </clipPath>
      <path clip-path="url(#make-me-a-hanzi-clip-12)" d="M 302.0 181.5 L 324.0 161.5 L 359.0 69.5 L 391.0 28.5 L 443.0 -8.5 L 497.0 -28.5 L 582.0 -41.5 L 640.0 -41.5 L 696.0 -34.5 L 740.0 -17.5 L 755.0 -6.5 L 752.0 4.5 L 688.0 108.5 " fill="none" id="make-me-a-hanzi-animation-12" stroke-dasharray="829 1658" stroke-linecap="round"></path>

      <clipPath id="make-me-a-hanzi-clip-13">
      <path d="M 473.0 208.5 Q 469.0 200.5 497.0 168.5 L 523.0 136.5 Q 553.0 96.5 579.0 105.5 Q 594.0 113.5 593.0 136.5 Q 591.0 159.5 583.0 170.5 Q 569.0 189.5 534.0 200.5 Q 499.0 210.5 486.0 209.5 Q 476.0 209.5 473.0 208.5 Z" fill="lightgray"></path>
      </clipPath>
      <path clip-path="url(#make-me-a-hanzi-clip-13)" d="M 480.0 205.5 L 550.0 156.5 L 571.0 123.5 " fill="none" id="make-me-a-hanzi-animation-13" stroke-dasharray="253 506" stroke-linecap="round"></path>

      <clipPath id="make-me-a-hanzi-clip-14">
      <path d="M 807.0 176.5 L 783.0 181.5 Q 774.0 183.5 773.0 181.5 Q 771.0 178.5 778.0 171.5 L 857.0 87.5 Q 880.0 64.5 901.0 64.5 Q 914.0 62.5 923.0 83.5 Q 936.0 111.5 916.0 132.5 Q 905.0 142.5 878.0 152.5 L 837.0 167.5 L 807.0 176.5 Z" fill="lightgray"></path>
      </clipPath>
      <path clip-path="url(#make-me-a-hanzi-clip-14)" d="M 778.0 177.5 L 874.0 118.5 L 892.0 104.5 L 900.0 87.5 " fill="none" id="make-me-a-hanzi-animation-14" stroke-dasharray="282 564" stroke-linecap="round"></path>

      <clipPath id="make-me-a-hanzi-clip-15">
      <path d="M 1326.0 711.5 L 1378.0 649.5 Q 1399.0 630.5 1418.0 628.5 Q 1434.0 627.5 1442.0 648.5 Q 1445.0 664.5 1434.0 688.5 Q 1422.0 707.5 1394.0 719.5 Q 1351.0 740.5 1332.0 743.5 Q 1322.0 746.5 1320.0 732.5 Q 1317.0 722.5 1326.0 711.5 Z" fill="lightgray"></path>
      </clipPath>
      <path clip-path="url(#make-me-a-hanzi-clip-15)" d="M 1329.0 734.5 L 1394.0 682.5 L 1418.0 653.5 " fill="none" id="make-me-a-hanzi-animation-15" stroke-dasharray="249 498" stroke-linecap="round"></path>

      <clipPath id="make-me-a-hanzi-clip-16">
      <path d="M 1202.0 612.5 Q 1257.0 480.5 1218.0 194.5 Q 1211.0 148.5 1195.0 100.5 Q 1176.0 37.5 1215.0 -6.5 Q 1228.0 -22.5 1240.0 -6.5 Q 1274.0 35.5 1276.0 202.5 Q 1276.0 490.5 1289.0 576.5 Q 1292.0 597.5 1273.0 608.5 Q 1246.0 630.5 1216.0 639.5 Q 1204.0 640.5 1197.0 631.5 Q 1193.0 624.5 1202.0 612.5 Z" fill="lightgray"></path>
      </clipPath>
      <path clip-path="url(#make-me-a-hanzi-clip-16)" d="M 1208.0 626.5 L 1217.0 622.5 L 1252.0 577.5 L 1255.0 528.5 L 1257.0 381.5 L 1250.0 214.5 L 1226.0 59.5 L 1228.0 -0.5 " fill="none" id="make-me-a-hanzi-animation-16" stroke-dasharray="775 1550" stroke-linecap="round"></path>

      <clipPath id="make-me-a-hanzi-clip-17">
      <path d="M 1531.0 693.5 Q 1515.0 693.5 1519.0 683.5 Q 1526.0 670.5 1549.0 660.5 Q 1564.0 651.5 1587.0 657.5 Q 1779.0 712.5 1799.0 683.5 Q 1809.0 667.5 1815.0 608.5 Q 1833.0 367.5 1820.0 94.5 Q 1819.0 54.5 1804.0 42.5 Q 1785.0 29.5 1691.0 54.5 Q 1673.0 55.5 1675.0 46.5 Q 1676.0 39.5 1690.0 33.5 Q 1772.0 -15.5 1817.0 -55.5 Q 1839.0 -76.5 1853.0 -72.5 Q 1866.0 -69.5 1877.0 -39.5 Q 1893.0 8.5 1890.0 77.5 Q 1869.0 459.5 1871.0 602.5 Q 1872.0 642.5 1884.0 666.5 Q 1896.0 688.5 1885.0 700.5 Q 1875.0 716.5 1826.0 740.5 Q 1804.0 752.5 1741.0 731.5 Q 1612.0 701.5 1531.0 693.5 Z" fill="lightgray"></path>
      </clipPath>
      <path clip-path="url(#make-me-a-hanzi-clip-17)" d="M 1529.0 684.5 L 1562.0 676.5 L 1595.0 678.5 L 1700.0 705.5 L 1793.0 717.5 L 1821.0 708.5 L 1845.0 677.5 L 1842.0 622.5 L 1855.0 175.5 L 1850.0 38.5 L 1833.0 -0.5 L 1785.0 7.5 L 1683.0 46.5 " fill="none" id="make-me-a-hanzi-animation-17" stroke-dasharray="1306 2612" stroke-linecap="round"></path>

      <clipPath id="make-me-a-hanzi-clip-18">
      <path d="M 1425.0 434.5 Q 1412.0 438.5 1384.0 444.5 Q 1371.0 448.5 1368.0 442.5 Q 1361.0 436.5 1370.0 419.5 Q 1398.0 356.5 1416.0 254.5 Q 1419.0 224.5 1436.0 203.5 Q 1455.0 181.5 1460.0 196.5 Q 1466.0 212.5 1464.0 237.5 L 1460.0 271.5 Q 1444.0 371.5 1442.0 402.5 C 1440.0 430.5 1440.0 430.5 1425.0 434.5 Z" fill="lightgray"></path>
      </clipPath>
      <path clip-path="url(#make-me-a-hanzi-clip-18)" d="M 1377.0 434.5 L 1402.0 413.5 L 1412.0 394.5 L 1449.0 203.5 " fill="none" id="make-me-a-hanzi-animation-18" stroke-dasharray="377 754" stroke-linecap="round"></path>

      <clipPath id="make-me-a-hanzi-clip-19">
      <path d="M 1661.0 297.5 Q 1685.0 384.5 1718.0 409.5 Q 1734.0 428.5 1720.0 446.5 Q 1651.0 503.5 1593.0 474.5 Q 1521.0 450.5 1425.0 434.5 C 1395.0 429.5 1413.0 396.5 1442.0 402.5 L 1598.0 433.5 Q 1616.0 437.5 1623.0 430.5 Q 1633.0 421.5 1631.0 401.5 Q 1624.0 346.5 1611.0 300.5 C 1603.0 271.5 1653.0 268.5 1661.0 297.5 Z" fill="lightgray"></path>
      </clipPath>
      <path clip-path="url(#make-me-a-hanzi-clip-19)" d="M 1434.0 432.5 L 1444.0 424.5 L 1462.0 422.5 L 1608.0 457.5 L 1647.0 451.5 L 1673.0 425.5 L 1643.0 323.5 L 1618.0 305.5 " fill="none" id="make-me-a-hanzi-animation-19" stroke-dasharray="522 1044" stroke-linecap="round"></path>

      <clipPath id="make-me-a-hanzi-clip-20">
      <path d="M 1464.0 237.5 Q 1468.0 237.5 1476.0 238.5 Q 1540.0 251.5 1676.0 261.5 Q 1686.0 262.5 1688.0 271.5 Q 1688.0 278.5 1661.0 297.5 C 1646.0 308.5 1640.0 307.5 1611.0 300.5 Q 1527.0 281.5 1460.0 271.5 C 1430.0 266.5 1434.0 235.5 1464.0 237.5 Z" fill="lightgray"></path>
      </clipPath>
      <path clip-path="url(#make-me-a-hanzi-clip-20)" d="M 1470.0 243.5 L 1483.0 258.5 L 1616.0 278.5 L 1654.0 279.5 L 1679.0 270.5 " fill="none" id="make-me-a-hanzi-animation-20" stroke-dasharray="347 694" stroke-linecap="round"></path>

</g>
</svg>
