<svg version="1.1" viewBox="0 0 2048 1024" xmlns="http://www.w3.org/2000/svg">
  <g stroke="lightgray" stroke-dasharray="1,1" stroke-width="1" transform="scale(4, 4)">
    <line x1="0" y1="0" x2="256" y2="256"></line>
    <line x1="256" y1="0" x2="0" y2="256"></line>
    <line x1="128" y1="0" x2="128" y2="256"></line>
    <line x1="0" y1="128" x2="256" y2="128"></line>
    <line x1="256" y1="0" x2="512" y2="256"></line>
    <line x1="512" y1="0" x2="256" y2="256"></line>
    <line x1="384" y1="0" x2="384" y2="256"></line>
    <line x1="256" y1="128" x2="512" y2="128"></line>
  </g>
<g transform="scale(1, -1) translate(0, -850)">
   <style type="text/css">
    @keyframes keyframes0 {
      from {
       stroke: black;
       stroke-dashoffset: 795;
       stroke-width: 128;
       }
       72% {
       animation-timing-function: step-end;
       stroke: black;
       stroke-dashoffset: 0;
       stroke-width: 128;
       }
       to {
       stroke: black;
       stroke-width: 1024;
       }
       }
       #make-me-a-hanzi-animation-0 {
         animation: keyframes0 0.896973s both;
         animation-delay: 0.000000s;
         animation-timing-function: linear;
       }
    @keyframes keyframes1 {
      from {
       stroke: black;
       stroke-dashoffset: 803;
       stroke-width: 128;
       }
       72% {
       animation-timing-function: step-end;
       stroke: black;
       stroke-dashoffset: 0;
       stroke-width: 128;
       }
       to {
       stroke: black;
       stroke-width: 1024;
       }
       }
       #make-me-a-hanzi-animation-1 {
         animation: keyframes1 0.903483s both;
         animation-delay: 0.896973s;
         animation-timing-function: linear;
       }
    @keyframes keyframes2 {
      from {
       stroke: black;
       stroke-dashoffset: 784;
       stroke-width: 128;
       }
       72% {
       animation-timing-function: step-end;
       stroke: black;
       stroke-dashoffset: 0;
       stroke-width: 128;
       }
       to {
       stroke: black;
       stroke-width: 1024;
       }
       }
       #make-me-a-hanzi-animation-2 {
         animation: keyframes2 0.888021s both;
         animation-delay: 1.800456s;
         animation-timing-function: linear;
       }
    @keyframes keyframes3 {
      from {
       stroke: black;
       stroke-dashoffset: 1387;
       stroke-width: 128;
       }
       82% {
       animation-timing-function: step-end;
       stroke: black;
       stroke-dashoffset: 0;
       stroke-width: 128;
       }
       to {
       stroke: black;
       stroke-width: 1024;
       }
       }
       #make-me-a-hanzi-animation-3 {
         animation: keyframes3 1.378743s both;
         animation-delay: 2.688477s;
         animation-timing-function: linear;
       }
    @keyframes keyframes4 {
      from {
       stroke: black;
       stroke-dashoffset: 856;
       stroke-width: 128;
       }
       74% {
       animation-timing-function: step-end;
       stroke: black;
       stroke-dashoffset: 0;
       stroke-width: 128;
       }
       to {
       stroke: black;
       stroke-width: 1024;
       }
       }
       #make-me-a-hanzi-animation-4 {
         animation: keyframes4 0.946615s both;
         animation-delay: 4.067220s;
         animation-timing-function: linear;
       }
    @keyframes keyframes5 {
      from {
       stroke: black;
       stroke-dashoffset: 413;
       stroke-width: 128;
       }
       57% {
       animation-timing-function: step-end;
       stroke: black;
       stroke-dashoffset: 0;
       stroke-width: 128;
       }
       to {
       stroke: black;
       stroke-width: 1024;
       }
       }
       #make-me-a-hanzi-animation-5 {
         animation: keyframes5 0.586100s both;
         animation-delay: 5.013835s;
         animation-timing-function: linear;
       }
    @keyframes keyframes6 {
      from {
       stroke: black;
       stroke-dashoffset: 478;
       stroke-width: 128;
       }
       61% {
       animation-timing-function: step-end;
       stroke: black;
       stroke-dashoffset: 0;
       stroke-width: 128;
       }
       to {
       stroke: black;
       stroke-width: 1024;
       }
       }
       #make-me-a-hanzi-animation-6 {
         animation: keyframes6 0.638997s both;
         animation-delay: 5.599935s;
         animation-timing-function: linear;
       }
    @keyframes keyframes7 {
      from {
       stroke: black;
       stroke-dashoffset: 727;
       stroke-width: 128;
       }
       70% {
       animation-timing-function: step-end;
       stroke: black;
       stroke-dashoffset: 0;
       stroke-width: 128;
       }
       to {
       stroke: black;
       stroke-width: 1024;
       }
       }
       #make-me-a-hanzi-animation-7 {
         animation: keyframes7 0.841634s both;
         animation-delay: 6.238932s;
         animation-timing-function: linear;
       }
    @keyframes keyframes8 {
      from {
       stroke: black;
       stroke-dashoffset: 575;
       stroke-width: 128;
       }
       65% {
       animation-timing-function: step-end;
       stroke: black;
       stroke-dashoffset: 0;
       stroke-width: 128;
       }
       to {
       stroke: black;
       stroke-width: 1024;
       }
       }
       #make-me-a-hanzi-animation-8 {
         animation: keyframes8 0.717936s both;
         animation-delay: 7.080566s;
         animation-timing-function: linear;
       }
    @keyframes keyframes9 {
      from {
       stroke: black;
       stroke-dashoffset: 625;
       stroke-width: 128;
       }
       67% {
       animation-timing-function: step-end;
       stroke: black;
       stroke-dashoffset: 0;
       stroke-width: 128;
       }
       to {
       stroke: black;
       stroke-width: 1024;
       }
       }
       #make-me-a-hanzi-animation-9 {
         animation: keyframes9 0.758626s both;
         animation-delay: 7.798503s;
         animation-timing-function: linear;
       }
    @keyframes keyframes10 {
      from {
       stroke: black;
       stroke-dashoffset: 969;
       stroke-width: 128;
       }
       76% {
       animation-timing-function: step-end;
       stroke: black;
       stroke-dashoffset: 0;
       stroke-width: 128;
       }
       to {
       stroke: black;
       stroke-width: 1024;
       }
       }
       #make-me-a-hanzi-animation-10 {
         animation: keyframes10 1.038574s both;
         animation-delay: 8.557129s;
         animation-timing-function: linear;
       }
    @keyframes keyframes11 {
      from {
       stroke: black;
       stroke-dashoffset: 896;
       stroke-width: 128;
       }
       74% {
       animation-timing-function: step-end;
       stroke: black;
       stroke-dashoffset: 0;
       stroke-width: 128;
       }
       to {
       stroke: black;
       stroke-width: 1024;
       }
       }
       #make-me-a-hanzi-animation-11 {
         animation: keyframes11 0.979167s both;
         animation-delay: 9.595703s;
         animation-timing-function: linear;
       }
    @keyframes keyframes12 {
      from {
       stroke: black;
       stroke-dashoffset: 499;
       stroke-width: 128;
       }
       62% {
       animation-timing-function: step-end;
       stroke: black;
       stroke-dashoffset: 0;
       stroke-width: 128;
       }
       to {
       stroke: black;
       stroke-width: 1024;
       }
       }
       #make-me-a-hanzi-animation-12 {
         animation: keyframes12 0.656087s both;
         animation-delay: 10.574870s;
         animation-timing-function: linear;
       }
</style>
<path d="M 204 396 Q 210 396 218 392 L 296 392 L 340 396 L 474 412 Q 486 412 516 417 L 563 425 L 678 444 L 708 453 Q 724 457 731 464 Q 739 471 734 477 Q 729 482 720 488 L 700 496 Q 686 500 681 500 Q 677 500 647 494 Q 618 487 617 486 Q 612 481 556 476 L 508 466 L 348 442 L 238 430 Q 233 428 208 427 Q 184 425 184 418 Q 181 411 204 396 Z" fill="lightgray"></path> 
<path d="M 218 392 L 226 377 Q 238 359 232 264 Q 231 237 222 198 Q 210 122 189 76 Q 168 26 140 -12 Q 112 -51 109 -54 L 84 -75 Q 78 -82 80 -85 Q 83 -88 90 -84 L 116 -70 Q 158 -47 194 -3 Q 233 48 252 104 Q 271 159 275 176 L 284 222 L 288 260 L 294 331 Q 296 334 297 348 Q 298 362 302 368 L 306 377 Q 307 379 302 384 Q 300 388 296 392 C 278 416 204 418 218 392 Z" fill="lightgray"></path> 
<path d="M 284 222 L 294 222 L 304 224 L 350 242 L 374 247 Q 401 252 406 251 Q 411 250 417 245 Q 423 240 418 219 L 412 166 L 401 110 Q 395 78 382 61 Q 375 48 370 46 Q 359 39 317 60 L 296 69 Q 290 72 288 67 Q 286 62 294 56 L 311 38 Q 312 35 326 17 Q 341 -1 342 -6 Q 344 -11 350 -18 Q 356 -26 362 -26 Q 369 -29 382 -21 Q 395 -13 404 -3 Q 414 6 430 36 Q 446 66 466 179 L 474 206 Q 478 224 485 235 Q 492 245 492 250 Q 492 254 486 262 L 446 287 Q 437 292 432 294 Q 427 295 416 290 L 404 285 Q 397 282 380 279 L 288 260 C 259 254 254 220 284 222 Z" fill="lightgray"></path> 
<path d="M 516 417 L 525 380 Q 540 304 550 277 Q 560 249 565 231 Q 570 212 582 185 L 605 130 Q 617 101 622 92 L 654 46 L 678 16 Q 693 -6 727 -41 Q 762 -76 789 -95 Q 817 -115 852 -127 Q 887 -140 912 -140 Q 927 -142 934 -136 Q 941 -130 941 -121 L 934 -99 L 926 -67 L 918 71 Q 919 81 913 83 Q 911 85 909 82 L 901 42 L 892 16 Q 887 1 886 -10 L 876 -31 Q 874 -39 869 -41 Q 865 -43 841 -37 Q 818 -31 764 16 L 726 53 Q 713 68 692 96 L 660 146 L 649 168 Q 635 194 626 213 L 586 325 L 563 425 L 556 476 L 552 506 L 548 555 L 546 608 L 546 649 Q 545 656 550 666 L 552 678 Q 553 690 538 698 Q 529 707 522 709 Q 516 710 507 713 L 488 719 Q 478 722 465 722 Q 453 721 450 718 Q 446 709 458 687 L 470 664 Q 486 621 492 560 Q 499 498 508 466 L 516 417 Z" fill="lightgray"></path> 
<path d="M 622 92 L 582 43 Q 558 14 538 -4 L 484 -50 Q 455 -73 442 -80 L 418 -97 Q 408 -104 410 -109 Q 412 -114 424 -108 L 454 -97 L 502 -76 Q 552 -52 609 1 L 654 46 L 692 96 L 731 157 L 784 255 L 806 286 Q 813 289 813 293 Q 816 302 796 322 Q 770 340 749 346 Q 728 352 722 349 Q 708 344 715 330 Q 722 315 722 310 L 720 290 Q 718 268 698 218 L 680 180 L 660 146 L 622 92 Z" fill="lightgray"></path> 
<path d="M 722 646 L 698 652 Q 688 653 687 651 Q 686 649 694 641 L 710 624 L 731 608 Q 732 603 752 582 L 780 554 Q 786 547 796 540 Q 819 525 832 544 Q 837 556 838 562 L 838 578 Q 838 584 836 594 Q 830 603 796 621 L 770 630 Q 738 642 722 646 Z" fill="lightgray"></path> 
<path d="M 1354 708 Q 1344 712 1321 716 Q 1311 720 1307 715 Q 1300 709 1309 694 Q 1334 639 1350 548 Q 1353 521 1369 503 Q 1385 482 1390 497 Q 1394 509 1394 529 L 1390 558 Q 1375 649 1373 678 C 1371 702 1371 702 1354 708 Z" fill="lightgray"></path> 
<path d="M 1692 598 Q 1714 667 1745 690 Q 1761 709 1747 726 Q 1731 739 1679 765 Q 1661 772 1640 764 Q 1522 721 1354 708 C 1324 706 1343 678 1373 678 Q 1392 677 1415 682 L 1614 717 Q 1639 723 1649 712 Q 1658 705 1657 687 Q 1651 641 1642 603 C 1635 574 1682 570 1692 598 Z" fill="lightgray"></path> 
<path d="M 1394 529 Q 1407 523 1426 526 Q 1514 545 1706 560 Q 1718 561 1719 570 Q 1719 579 1692 598 C 1678 608 1672 607 1642 603 Q 1641 604 1638 603 Q 1502 572 1392 560 Q 1391 560 1390 558 C 1361 549 1365 538 1394 529 Z" fill="lightgray"></path> 
<path d="M 1365 445 Q 1346 458 1325 464 Q 1318 465 1311 458 Q 1308 452 1315 443 Q 1345 365 1328 214 Q 1316 141 1317 134 Q 1327 103 1337 91 Q 1347 79 1357 92 Q 1379 119 1380 268 Q 1380 389 1384 413 C 1386 432 1386 432 1365 445 Z" fill="lightgray"></path> 
<path d="M 1678 153 Q 1671 131 1684 109 Q 1697 81 1706 82 Q 1719 83 1735 115 Q 1750 140 1748 160 Q 1738 239 1740 362 Q 1740 398 1760 428 Q 1770 444 1763 455 Q 1735 480 1686 502 Q 1670 508 1645 499 Q 1504 442 1365 445 C 1335 445 1354 408 1384 413 Q 1388 414 1392 414 Q 1467 427 1524 438 Q 1644 463 1670 446 Q 1680 424 1684 365 Q 1688 187 1678 153 Z" fill="lightgray"></path> 
<path d="M 1501 308 Q 1513 113 1462 41 Q 1419 -23 1270 -81 Q 1258 -84 1255 -87 Q 1249 -91 1264 -96 Q 1345 -102 1459 -35 Q 1478 -20 1494 -3 Q 1548 61 1553 234 Q 1557 313 1566 339 Q 1570 349 1562 356 Q 1544 371 1511 383 Q 1492 392 1476 386 Q 1458 379 1473 362 Q 1500 337 1501 308 Z" fill="lightgray"></path> 
<path d="M 1595 28 Q 1659 -24 1738 -103 Q 1756 -124 1772 -127 Q 1782 -128 1789 -117 Q 1802 -102 1786 -57 Q 1773 -12 1699 19 Q 1656 40 1595 61 Q 1585 65 1583 53 Q 1583 38 1595 28 Z" fill="lightgray"></path> 
      <clipPath id="make-me-a-hanzi-clip-0">
      <path d="M 204 396 Q 210 396 218 392 L 296 392 L 340 396 L 474 412 Q 486 412 516 417 L 563 425 L 678 444 L 708 453 Q 724 457 731 464 Q 739 471 734 477 Q 729 482 720 488 L 700 496 Q 686 500 681 500 Q 677 500 647 494 Q 618 487 617 486 Q 612 481 556 476 L 508 466 L 348 442 L 238 430 Q 233 428 208 427 Q 184 425 184 418 Q 181 411 204 396 Z" fill="lightgray"></path>
      </clipPath>
      <path clip-path="url(#make-me-a-hanzi-clip-0)" d="M 192 416 L 226 409 L 331 417 L 503 440 L 688 474 L 725 472 " fill="none" id="make-me-a-hanzi-animation-0" stroke-dasharray="667 1334" stroke-linecap="round"></path>

      <clipPath id="make-me-a-hanzi-clip-1">
      <path d="M 218 392 L 226 377 Q 238 359 232 264 Q 231 237 222 198 Q 210 122 189 76 Q 168 26 140 -12 Q 112 -51 109 -54 L 84 -75 Q 78 -82 80 -85 Q 83 -88 90 -84 L 116 -70 Q 158 -47 194 -3 Q 233 48 252 104 Q 271 159 275 176 L 284 222 L 288 260 L 294 331 Q 296 334 297 348 Q 298 362 302 368 L 306 377 Q 307 379 302 384 Q 300 388 296 392 C 278 416 204 418 218 392 Z" fill="lightgray"></path>
      </clipPath>
      <path clip-path="url(#make-me-a-hanzi-clip-1)" d="M 226 391 L 265 359 L 260 257 L 233 122 L 183 15 L 118 -60 L 85 -81 " fill="none" id="make-me-a-hanzi-animation-1" stroke-dasharray="675 1350" stroke-linecap="round"></path>

      <clipPath id="make-me-a-hanzi-clip-2">
      <path d="M 284 222 L 294 222 L 304 224 L 350 242 L 374 247 Q 401 252 406 251 Q 411 250 417 245 Q 423 240 418 219 L 412 166 L 401 110 Q 395 78 382 61 Q 375 48 370 46 Q 359 39 317 60 L 296 69 Q 290 72 288 67 Q 286 62 294 56 L 311 38 Q 312 35 326 17 Q 341 -1 342 -6 Q 344 -11 350 -18 Q 356 -26 362 -26 Q 369 -29 382 -21 Q 395 -13 404 -3 Q 414 6 430 36 Q 446 66 466 179 L 474 206 Q 478 224 485 235 Q 492 245 492 250 Q 492 254 486 262 L 446 287 Q 437 292 432 294 Q 427 295 416 290 L 404 285 Q 397 282 380 279 L 288 260 C 259 254 254 220 284 222 Z" fill="lightgray"></path>
      </clipPath>
      <path clip-path="url(#make-me-a-hanzi-clip-2)" d="M 289 228 L 315 248 L 404 268 L 429 268 L 453 243 L 422 86 L 392 27 L 367 13 L 293 63 " fill="none" id="make-me-a-hanzi-animation-2" stroke-dasharray="656 1312" stroke-linecap="round"></path>

      <clipPath id="make-me-a-hanzi-clip-3">
      <path d="M 516 417 L 525 380 Q 540 304 550 277 Q 560 249 565 231 Q 570 212 582 185 L 605 130 Q 617 101 622 92 L 654 46 L 678 16 Q 693 -6 727 -41 Q 762 -76 789 -95 Q 817 -115 852 -127 Q 887 -140 912 -140 Q 927 -142 934 -136 Q 941 -130 941 -121 L 934 -99 L 926 -67 L 918 71 Q 919 81 913 83 Q 911 85 909 82 L 901 42 L 892 16 Q 887 1 886 -10 L 876 -31 Q 874 -39 869 -41 Q 865 -43 841 -37 Q 818 -31 764 16 L 726 53 Q 713 68 692 96 L 660 146 L 649 168 Q 635 194 626 213 L 586 325 L 563 425 L 556 476 L 552 506 L 548 555 L 546 608 L 546 649 Q 545 656 550 666 L 552 678 Q 553 690 538 698 Q 529 707 522 709 Q 516 710 507 713 L 488 719 Q 478 722 465 722 Q 453 721 450 718 Q 446 709 458 687 L 470 664 Q 486 621 492 560 Q 499 498 508 466 L 516 417 Z" fill="lightgray"></path>
      </clipPath>
      <path clip-path="url(#make-me-a-hanzi-clip-3)" d="M 459 713 L 509 670 L 528 489 L 558 337 L 602 201 L 666 80 L 732 0 L 788 -49 L 826 -73 L 875 -87 L 882 -87 L 899 -45 L 913 76 " fill="none" id="make-me-a-hanzi-animation-3" stroke-dasharray="1259 2518" stroke-linecap="round"></path>

      <clipPath id="make-me-a-hanzi-clip-4">
      <path d="M 622 92 L 582 43 Q 558 14 538 -4 L 484 -50 Q 455 -73 442 -80 L 418 -97 Q 408 -104 410 -109 Q 412 -114 424 -108 L 454 -97 L 502 -76 Q 552 -52 609 1 L 654 46 L 692 96 L 731 157 L 784 255 L 806 286 Q 813 289 813 293 Q 816 302 796 322 Q 770 340 749 346 Q 728 352 722 349 Q 708 344 715 330 Q 722 315 722 310 L 720 290 Q 718 268 698 218 L 680 180 L 660 146 L 622 92 Z" fill="lightgray"></path>
      </clipPath>
      <path clip-path="url(#make-me-a-hanzi-clip-4)" d="M 724 337 L 746 320 L 762 295 L 718 191 L 666 106 L 617 45 L 553 -20 L 479 -72 L 417 -105 " fill="none" id="make-me-a-hanzi-animation-4" stroke-dasharray="728 1456" stroke-linecap="round"></path>

      <clipPath id="make-me-a-hanzi-clip-5">
      <path d="M 722 646 L 698 652 Q 688 653 687 651 Q 686 649 694 641 L 710 624 L 731 608 Q 732 603 752 582 L 780 554 Q 786 547 796 540 Q 819 525 832 544 Q 837 556 838 562 L 838 578 Q 838 584 836 594 Q 830 603 796 621 L 770 630 Q 738 642 722 646 Z" fill="lightgray"></path>
      </clipPath>
      <path clip-path="url(#make-me-a-hanzi-clip-5)" d="M 693 648 L 789 590 L 804 577 L 814 554 " fill="none" id="make-me-a-hanzi-animation-5" stroke-dasharray="285 570" stroke-linecap="round"></path>

      <clipPath id="make-me-a-hanzi-clip-6">
      <path d="M 1354 708 Q 1344 712 1321 716 Q 1311 720 1307 715 Q 1300 709 1309 694 Q 1334 639 1350 548 Q 1353 521 1369 503 Q 1385 482 1390 497 Q 1394 509 1394 529 L 1390 558 Q 1375 649 1373 678 C 1371 702 1371 702 1354 708 Z" fill="lightgray"></path>
      </clipPath>
      <path clip-path="url(#make-me-a-hanzi-clip-6)" d="M 1315 708 L 1335 691 L 1347 670 L 1380 502 " fill="none" id="make-me-a-hanzi-animation-6" stroke-dasharray="350 700" stroke-linecap="round"></path>

      <clipPath id="make-me-a-hanzi-clip-7">
      <path d="M 1692 598 Q 1714 667 1745 690 Q 1761 709 1747 726 Q 1731 739 1679 765 Q 1661 772 1640 764 Q 1522 721 1354 708 C 1324 706 1343 678 1373 678 Q 1392 677 1415 682 L 1614 717 Q 1639 723 1649 712 Q 1658 705 1657 687 Q 1651 641 1642 603 C 1635 574 1682 570 1692 598 Z" fill="lightgray"></path>
      </clipPath>
      <path clip-path="url(#make-me-a-hanzi-clip-7)" d="M 1363 707 L 1372 698 L 1392 694 L 1627 739 L 1661 739 L 1699 706 L 1674 626 L 1649 608 " fill="none" id="make-me-a-hanzi-animation-7" stroke-dasharray="599 1198" stroke-linecap="round"></path>

      <clipPath id="make-me-a-hanzi-clip-8">
      <path d="M 1394 529 Q 1407 523 1426 526 Q 1514 545 1706 560 Q 1718 561 1719 570 Q 1719 579 1692 598 C 1678 608 1672 607 1642 603 Q 1641 604 1638 603 Q 1502 572 1392 560 Q 1391 560 1390 558 C 1361 549 1365 538 1394 529 Z" fill="lightgray"></path>
      </clipPath>
      <path clip-path="url(#make-me-a-hanzi-clip-8)" d="M 1398 552 L 1411 543 L 1640 579 L 1684 579 L 1710 570 " fill="none" id="make-me-a-hanzi-animation-8" stroke-dasharray="447 894" stroke-linecap="round"></path>

      <clipPath id="make-me-a-hanzi-clip-9">
      <path d="M 1365 445 Q 1346 458 1325 464 Q 1318 465 1311 458 Q 1308 452 1315 443 Q 1345 365 1328 214 Q 1316 141 1317 134 Q 1327 103 1337 91 Q 1347 79 1357 92 Q 1379 119 1380 268 Q 1380 389 1384 413 C 1386 432 1386 432 1365 445 Z" fill="lightgray"></path>
      </clipPath>
      <path clip-path="url(#make-me-a-hanzi-clip-9)" d="M 1322 453 L 1347 427 L 1355 406 L 1357 256 L 1344 139 L 1347 96 " fill="none" id="make-me-a-hanzi-animation-9" stroke-dasharray="497 994" stroke-linecap="round"></path>

      <clipPath id="make-me-a-hanzi-clip-10">
      <path d="M 1678 153 Q 1671 131 1684 109 Q 1697 81 1706 82 Q 1719 83 1735 115 Q 1750 140 1748 160 Q 1738 239 1740 362 Q 1740 398 1760 428 Q 1770 444 1763 455 Q 1735 480 1686 502 Q 1670 508 1645 499 Q 1504 442 1365 445 C 1335 445 1354 408 1384 413 Q 1388 414 1392 414 Q 1467 427 1524 438 Q 1644 463 1670 446 Q 1680 424 1684 365 Q 1688 187 1678 153 Z" fill="lightgray"></path>
      </clipPath>
      <path clip-path="url(#make-me-a-hanzi-clip-10)" d="M 1373 442 L 1398 429 L 1534 449 L 1546 456 L 1659 477 L 1682 473 L 1706 453 L 1717 438 L 1711 377 L 1714 154 L 1707 93 " fill="none" id="make-me-a-hanzi-animation-10" stroke-dasharray="841 1682" stroke-linecap="round"></path>

      <clipPath id="make-me-a-hanzi-clip-11">
      <path d="M 1501 308 Q 1513 113 1462 41 Q 1419 -23 1270 -81 Q 1258 -84 1255 -87 Q 1249 -91 1264 -96 Q 1345 -102 1459 -35 Q 1478 -20 1494 -3 Q 1548 61 1553 234 Q 1557 313 1566 339 Q 1570 349 1562 356 Q 1544 371 1511 383 Q 1492 392 1476 386 Q 1458 379 1473 362 Q 1500 337 1501 308 Z" fill="lightgray"></path>
      </clipPath>
      <path clip-path="url(#make-me-a-hanzi-clip-11)" d="M 1479 373 L 1498 366 L 1530 337 L 1523 148 L 1498 51 L 1471 9 L 1423 -30 L 1334 -73 L 1260 -91 " fill="none" id="make-me-a-hanzi-animation-11" stroke-dasharray="768 1536" stroke-linecap="round"></path>

      <clipPath id="make-me-a-hanzi-clip-12">
      <path d="M 1595 28 Q 1659 -24 1738 -103 Q 1756 -124 1772 -127 Q 1782 -128 1789 -117 Q 1802 -102 1786 -57 Q 1773 -12 1699 19 Q 1656 40 1595 61 Q 1585 65 1583 53 Q 1583 38 1595 28 Z" fill="lightgray"></path>
      </clipPath>
      <path clip-path="url(#make-me-a-hanzi-clip-12)" d="M 1595 48 L 1729 -40 L 1759 -76 L 1773 -109 " fill="none" id="make-me-a-hanzi-animation-12" stroke-dasharray="371 742" stroke-linecap="round"></path>

</g>
</svg>
