<svg version="1.1" viewBox="0 0 2048 1024" xmlns="http://www.w3.org/2000/svg">
  <g stroke="lightgray" stroke-dasharray="1,1" stroke-width="1" transform="scale(4, 4)">
    <line x1="0" y1="0" x2="256" y2="256"></line>
    <line x1="256" y1="0" x2="0" y2="256"></line>
    <line x1="128" y1="0" x2="128" y2="256"></line>
    <line x1="0" y1="128" x2="256" y2="128"></line>
    <line x1="256" y1="0" x2="512" y2="256"></line>
    <line x1="512" y1="0" x2="256" y2="256"></line>
    <line x1="384" y1="0" x2="384" y2="256"></line>
    <line x1="256" y1="128" x2="512" y2="128"></line>
  </g>
<g transform="scale(1, -1) translate(0, -850)">
   <style type="text/css">
    @keyframes keyframes0 {
      from {
       stroke: black;
       stroke-dashoffset: 579;
       stroke-width: 128;
       }
       65% {
       animation-timing-function: step-end;
       stroke: black;
       stroke-dashoffset: 0;
       stroke-width: 128;
       }
       to {
       stroke: black;
       stroke-width: 1024;
       }
       }
       #make-me-a-hanzi-animation-0 {
         animation: keyframes0 0.721191s both;
         animation-delay: 0.000000s;
         animation-timing-function: linear;
       }
    @keyframes keyframes1 {
      from {
       stroke: black;
       stroke-dashoffset: 1135;
       stroke-width: 128;
       }
       79% {
       animation-timing-function: step-end;
       stroke: black;
       stroke-dashoffset: 0;
       stroke-width: 128;
       }
       to {
       stroke: black;
       stroke-width: 1024;
       }
       }
       #make-me-a-hanzi-animation-1 {
         animation: keyframes1 1.173665s both;
         animation-delay: 0.721191s;
         animation-timing-function: linear;
       }
    @keyframes keyframes2 {
      from {
       stroke: black;
       stroke-dashoffset: 688;
       stroke-width: 128;
       }
       69% {
       animation-timing-function: step-end;
       stroke: black;
       stroke-dashoffset: 0;
       stroke-width: 128;
       }
       to {
       stroke: black;
       stroke-width: 1024;
       }
       }
       #make-me-a-hanzi-animation-2 {
         animation: keyframes2 0.809896s both;
         animation-delay: 1.894857s;
         animation-timing-function: linear;
       }
    @keyframes keyframes3 {
      from {
       stroke: black;
       stroke-dashoffset: 695;
       stroke-width: 128;
       }
       69% {
       animation-timing-function: step-end;
       stroke: black;
       stroke-dashoffset: 0;
       stroke-width: 128;
       }
       to {
       stroke: black;
       stroke-width: 1024;
       }
       }
       #make-me-a-hanzi-animation-3 {
         animation: keyframes3 0.815592s both;
         animation-delay: 2.704753s;
         animation-timing-function: linear;
       }
    @keyframes keyframes4 {
      from {
       stroke: black;
       stroke-dashoffset: 906;
       stroke-width: 128;
       }
       75% {
       animation-timing-function: step-end;
       stroke: black;
       stroke-dashoffset: 0;
       stroke-width: 128;
       }
       to {
       stroke: black;
       stroke-width: 1024;
       }
       }
       #make-me-a-hanzi-animation-4 {
         animation: keyframes4 0.987305s both;
         animation-delay: 3.520345s;
         animation-timing-function: linear;
       }
    @keyframes keyframes5 {
      from {
       stroke: black;
       stroke-dashoffset: 649;
       stroke-width: 128;
       }
       68% {
       animation-timing-function: step-end;
       stroke: black;
       stroke-dashoffset: 0;
       stroke-width: 128;
       }
       to {
       stroke: black;
       stroke-width: 1024;
       }
       }
       #make-me-a-hanzi-animation-5 {
         animation: keyframes5 0.778158s both;
         animation-delay: 4.507650s;
         animation-timing-function: linear;
       }
    @keyframes keyframes6 {
      from {
       stroke: black;
       stroke-dashoffset: 1142;
       stroke-width: 128;
       }
       79% {
       animation-timing-function: step-end;
       stroke: black;
       stroke-dashoffset: 0;
       stroke-width: 128;
       }
       to {
       stroke: black;
       stroke-width: 1024;
       }
       }
       #make-me-a-hanzi-animation-6 {
         animation: keyframes6 1.179362s both;
         animation-delay: 5.285807s;
         animation-timing-function: linear;
       }
    @keyframes keyframes7 {
      from {
       stroke: black;
       stroke-dashoffset: 551;
       stroke-width: 128;
       }
       64% {
       animation-timing-function: step-end;
       stroke: black;
       stroke-dashoffset: 0;
       stroke-width: 128;
       }
       to {
       stroke: black;
       stroke-width: 1024;
       }
       }
       #make-me-a-hanzi-animation-7 {
         animation: keyframes7 0.698405s both;
         animation-delay: 6.465169s;
         animation-timing-function: linear;
       }
    @keyframes keyframes8 {
      from {
       stroke: black;
       stroke-dashoffset: 432;
       stroke-width: 128;
       }
       58% {
       animation-timing-function: step-end;
       stroke: black;
       stroke-dashoffset: 0;
       stroke-width: 128;
       }
       to {
       stroke: black;
       stroke-width: 1024;
       }
       }
       #make-me-a-hanzi-animation-8 {
         animation: keyframes8 0.601562s both;
         animation-delay: 7.163574s;
         animation-timing-function: linear;
       }
    @keyframes keyframes9 {
      from {
       stroke: black;
       stroke-dashoffset: 1464;
       stroke-width: 128;
       }
       83% {
       animation-timing-function: step-end;
       stroke: black;
       stroke-dashoffset: 0;
       stroke-width: 128;
       }
       to {
       stroke: black;
       stroke-width: 1024;
       }
       }
       #make-me-a-hanzi-animation-9 {
         animation: keyframes9 1.441406s both;
         animation-delay: 7.765137s;
         animation-timing-function: linear;
       }
</style>
<path d="M 364 482 Q 458 512 460 513 Q 469 522 464 530 Q 455 542 426 548 Q 395 552 366 539 L 316 520 Q 226 493 148 481 Q 111 472 138 457 Q 183 433 239 451 Q 276 461 315 470 L 364 482 Z" fill="lightgray"></path> 
<path d="M 312 282 Q 311 197 310 91 Q 309 67 297 59 Q 291 55 237 58 Q 204 68 207 59 Q 208 52 229 37 Q 284 -8 297 -34 Q 313 -64 327 -65 Q 342 -66 356 -31 Q 372 15 371 88 Q 364 202 362 316 L 362 349 Q 361 416 364 482 L 366 539 Q 366 638 386 707 Q 404 737 348 759 Q 314 778 295 771 Q 277 765 293 742 Q 315 714 316 681 Q 317 663 316 520 L 315 470 Q 314 409 313 325 L 312 282 Z" fill="lightgray"></path> 
<path d="M 362 316 Q 432 362 440 370 Q 447 383 436 383 Q 421 383 362 349 L 313 325 Q 213 277 126 231 Q 87 212 63 207 Q 50 201 46 193 Q 45 183 59 168 Q 78 150 102 140 Q 117 136 133 150 Q 199 208 312 282 L 362 316 Z" fill="lightgray"></path> 
<path d="M 709 467 Q 802 482 906 482 Q 925 483 929 492 Q 933 504 917 516 Q 860 555 805 534 Q 687 507 487 468 Q 466 465 483 449 Q 496 436 514 432 Q 535 428 550 434 Q 599 450 656 459 L 709 467 Z" fill="lightgray"></path> 
<path d="M 625 8 Q 598 15 565 22 Q 552 26 553 18 Q 554 9 565 0 Q 637 -52 684 -96 Q 697 -105 711 -88 Q 751 -31 745 51 Q 730 252 738 406 Q 744 434 738 445 Q 731 455 709 467 C 684 483 647 488 656 459 Q 671 411 673 388 Q 673 385 673 382 Q 688 37 668 8 Q 656 -1 625 8 Z" fill="lightgray"></path> 
<path d="M 1338 606 L 1310 558 Q 1297 531 1277 506 Q 1205 414 1170 388 L 1152 374 Q 1149 370 1150 367 Q 1151 363 1157 366 L 1174 372 Q 1212 389 1237 409 L 1252 419 L 1280 443 L 1299 463 L 1336 503 Q 1342 510 1359 535 L 1401 595 Q 1403 596 1407 603 Q 1412 610 1424 616 L 1427 621 Q 1430 624 1425 635 Q 1423 638 1408 653 Q 1394 667 1380 674 Q 1367 680 1362 680 Q 1349 681 1349 662 Q 1350 628 1338 606 Z" fill="lightgray"></path> 
<path d="M 1280 443 L 1301 431 Q 1314 424 1326 425 Q 1338 425 1361 434 Q 1384 443 1411 448 Q 1443 456 1511 465 Q 1579 474 1592 473 Q 1606 471 1615 463 Q 1624 454 1619 416 L 1615 368 Q 1615 350 1606 304 Q 1600 260 1596 248 L 1586 206 Q 1579 176 1568 160 Q 1558 144 1549 143 Q 1540 142 1525 149 L 1506 156 L 1471 174 Q 1468 176 1463 174 Q 1458 172 1464 166 L 1479 143 Q 1484 134 1500 113 L 1521 84 L 1532 66 Q 1539 52 1547 51 Q 1551 50 1568 61 Q 1585 72 1595 83 Q 1606 94 1623 125 Q 1641 155 1655 232 L 1687 392 L 1695 427 Q 1696 437 1699 440 L 1710 454 Q 1715 467 1714 474 Q 1714 480 1685 498 Q 1657 516 1648 520 Q 1632 525 1624 524 L 1579 510 L 1355 471 L 1299 463 C 1269 459 1255 457 1280 443 Z" fill="lightgray"></path> 
<path d="M 1394 172 L 1413 220 L 1443 272 L 1454 284 Q 1460 290 1462 297 Q 1464 314 1427 330 Q 1402 346 1382 343 Q 1377 343 1365 335 L 1330 320 Q 1316 314 1299 311 L 1239 298 C 1210 292 1212 259 1241 265 L 1352 288 Q 1362 290 1367 285 Q 1374 280 1369 265 L 1351 184 C 1344 155 1383 144 1394 172 Z" fill="lightgray"></path> 
<path d="M 1227 122 L 1243 120 L 1289 128 L 1340 134 Q 1375 139 1391 139 Q 1408 138 1412 149 Q 1414 152 1409 160 Q 1405 164 1394 172 C 1372 188 1372 188 1351 184 L 1321 178 L 1230 156 C 1201 149 1197 126 1227 122 Z" fill="lightgray"></path> 
<path d="M 1837 19 L 1825 -9 Q 1786 -102 1513 -102 Q 1468 -102 1387 -94 Q 1258 -81 1236 -27 Q 1225 -2 1225 47 L 1227 122 L 1230 156 L 1235 226 L 1241 265 C 1245 293 1245 293 1239 298 L 1229 307 L 1210 319 Q 1188 331 1174 321 Q 1170 318 1172 315 Q 1172 310 1175 307 Q 1179 303 1180 288 L 1185 240 L 1181 42 Q 1181 4 1185 -17 Q 1193 -75 1262 -117 Q 1347 -170 1509 -173 Q 1672 -176 1756 -153 Q 1880 -119 1903 -90 Q 1920 -72 1919 -65 Q 1918 -59 1903 -32 Q 1889 -6 1885 14 L 1880 36 L 1875 51 L 1870 80 L 1865 97 Q 1863 102 1859 102 Q 1855 102 1855 96 L 1841 34 Q 1841 29 1837 19 Z" fill="lightgray"></path> 
      <clipPath id="make-me-a-hanzi-clip-0">
      <path d="M 364 482 Q 458 512 460 513 Q 469 522 464 530 Q 455 542 426 548 Q 395 552 366 539 L 316 520 Q 226 493 148 481 Q 111 472 138 457 Q 183 433 239 451 Q 276 461 315 470 L 364 482 Z" fill="lightgray"></path>
      </clipPath>
      <path clip-path="url(#make-me-a-hanzi-clip-0)" d="M 140 470 L 163 465 L 212 468 L 405 523 L 455 522 " fill="none" id="make-me-a-hanzi-animation-0" stroke-dasharray="451 902" stroke-linecap="round"></path>

      <clipPath id="make-me-a-hanzi-clip-1">
      <path d="M 312 282 Q 311 197 310 91 Q 309 67 297 59 Q 291 55 237 58 Q 204 68 207 59 Q 208 52 229 37 Q 284 -8 297 -34 Q 313 -64 327 -65 Q 342 -66 356 -31 Q 372 15 371 88 Q 364 202 362 316 L 362 349 Q 361 416 364 482 L 366 539 Q 366 638 386 707 Q 404 737 348 759 Q 314 778 295 771 Q 277 765 293 742 Q 315 714 316 681 Q 317 663 316 520 L 315 470 Q 314 409 313 325 L 312 282 Z" fill="lightgray"></path>
      </clipPath>
      <path clip-path="url(#make-me-a-hanzi-clip-1)" d="M 301 756 L 318 748 L 349 716 L 337 410 L 338 63 L 317 17 L 213 57 " fill="none" id="make-me-a-hanzi-animation-1" stroke-dasharray="1007 2014" stroke-linecap="round"></path>

      <clipPath id="make-me-a-hanzi-clip-2">
      <path d="M 362 316 Q 432 362 440 370 Q 447 383 436 383 Q 421 383 362 349 L 313 325 Q 213 277 126 231 Q 87 212 63 207 Q 50 201 46 193 Q 45 183 59 168 Q 78 150 102 140 Q 117 136 133 150 Q 199 208 312 282 L 362 316 Z" fill="lightgray"></path>
      </clipPath>
      <path clip-path="url(#make-me-a-hanzi-clip-2)" d="M 57 190 L 108 180 L 434 375 " fill="none" id="make-me-a-hanzi-animation-2" stroke-dasharray="560 1120" stroke-linecap="round"></path>

      <clipPath id="make-me-a-hanzi-clip-3">
      <path d="M 709 467 Q 802 482 906 482 Q 925 483 929 492 Q 933 504 917 516 Q 860 555 805 534 Q 687 507 487 468 Q 466 465 483 449 Q 496 436 514 432 Q 535 428 550 434 Q 599 450 656 459 L 709 467 Z" fill="lightgray"></path>
      </clipPath>
      <path clip-path="url(#make-me-a-hanzi-clip-3)" d="M 485 459 L 532 453 L 607 472 L 841 511 L 917 497 " fill="none" id="make-me-a-hanzi-animation-3" stroke-dasharray="567 1134" stroke-linecap="round"></path>

      <clipPath id="make-me-a-hanzi-clip-4">
      <path d="M 625 8 Q 598 15 565 22 Q 552 26 553 18 Q 554 9 565 0 Q 637 -52 684 -96 Q 697 -105 711 -88 Q 751 -31 745 51 Q 730 252 738 406 Q 744 434 738 445 Q 731 455 709 467 C 684 483 647 488 656 459 Q 671 411 673 388 Q 673 385 673 382 Q 688 37 668 8 Q 656 -1 625 8 Z" fill="lightgray"></path>
      </clipPath>
      <path clip-path="url(#make-me-a-hanzi-clip-4)" d="M 664 451 L 693 436 L 704 420 L 708 8 L 687 -35 L 642 -24 L 560 16 " fill="none" id="make-me-a-hanzi-animation-4" stroke-dasharray="778 1556" stroke-linecap="round"></path>

      <clipPath id="make-me-a-hanzi-clip-5">
      <path d="M 1338 606 L 1310 558 Q 1297 531 1277 506 Q 1205 414 1170 388 L 1152 374 Q 1149 370 1150 367 Q 1151 363 1157 366 L 1174 372 Q 1212 389 1237 409 L 1252 419 L 1280 443 L 1299 463 L 1336 503 Q 1342 510 1359 535 L 1401 595 Q 1403 596 1407 603 Q 1412 610 1424 616 L 1427 621 Q 1430 624 1425 635 Q 1423 638 1408 653 Q 1394 667 1380 674 Q 1367 680 1362 680 Q 1349 681 1349 662 Q 1350 628 1338 606 Z" fill="lightgray"></path>
      </clipPath>
      <path clip-path="url(#make-me-a-hanzi-clip-5)" d="M 1362 666 L 1382 629 L 1325 530 L 1254 445 L 1203 399 L 1154 370 " fill="none" id="make-me-a-hanzi-animation-5" stroke-dasharray="521 1042" stroke-linecap="round"></path>

      <clipPath id="make-me-a-hanzi-clip-6">
      <path d="M 1280 443 L 1301 431 Q 1314 424 1326 425 Q 1338 425 1361 434 Q 1384 443 1411 448 Q 1443 456 1511 465 Q 1579 474 1592 473 Q 1606 471 1615 463 Q 1624 454 1619 416 L 1615 368 Q 1615 350 1606 304 Q 1600 260 1596 248 L 1586 206 Q 1579 176 1568 160 Q 1558 144 1549 143 Q 1540 142 1525 149 L 1506 156 L 1471 174 Q 1468 176 1463 174 Q 1458 172 1464 166 L 1479 143 Q 1484 134 1500 113 L 1521 84 L 1532 66 Q 1539 52 1547 51 Q 1551 50 1568 61 Q 1585 72 1595 83 Q 1606 94 1623 125 Q 1641 155 1655 232 L 1687 392 L 1695 427 Q 1696 437 1699 440 L 1710 454 Q 1715 467 1714 474 Q 1714 480 1685 498 Q 1657 516 1648 520 Q 1632 525 1624 524 L 1579 510 L 1355 471 L 1299 463 C 1269 459 1255 457 1280 443 Z" fill="lightgray"></path>
      </clipPath>
      <path clip-path="url(#make-me-a-hanzi-clip-6)" d="M 1288 445 L 1328 446 L 1440 471 L 1592 494 L 1633 491 L 1662 462 L 1624 227 L 1605 161 L 1589 133 L 1557 103 L 1511 131 L 1467 170 " fill="none" id="make-me-a-hanzi-animation-6" stroke-dasharray="1014 2028" stroke-linecap="round"></path>

      <clipPath id="make-me-a-hanzi-clip-7">
      <path d="M 1394 172 L 1413 220 L 1443 272 L 1454 284 Q 1460 290 1462 297 Q 1464 314 1427 330 Q 1402 346 1382 343 Q 1377 343 1365 335 L 1330 320 Q 1316 314 1299 311 L 1239 298 C 1210 292 1212 259 1241 265 L 1352 288 Q 1362 290 1367 285 Q 1374 280 1369 265 L 1351 184 C 1344 155 1383 144 1394 172 Z" fill="lightgray"></path>
      </clipPath>
      <path clip-path="url(#make-me-a-hanzi-clip-7)" d="M 1247 271 L 1265 288 L 1355 309 L 1394 308 L 1408 294 L 1408 284 L 1383 211 L 1360 189 " fill="none" id="make-me-a-hanzi-animation-7" stroke-dasharray="423 846" stroke-linecap="round"></path>

      <clipPath id="make-me-a-hanzi-clip-8">
      <path d="M 1227 122 L 1243 120 L 1289 128 L 1340 134 Q 1375 139 1391 139 Q 1408 138 1412 149 Q 1414 152 1409 160 Q 1405 164 1394 172 C 1372 188 1372 188 1351 184 L 1321 178 L 1230 156 C 1201 149 1197 126 1227 122 Z" fill="lightgray"></path>
      </clipPath>
      <path clip-path="url(#make-me-a-hanzi-clip-8)" d="M 1232 127 L 1257 143 L 1352 160 L 1401 152 " fill="none" id="make-me-a-hanzi-animation-8" stroke-dasharray="304 608" stroke-linecap="round"></path>

      <clipPath id="make-me-a-hanzi-clip-9">
      <path d="M 1837 19 L 1825 -9 Q 1786 -102 1513 -102 Q 1468 -102 1387 -94 Q 1258 -81 1236 -27 Q 1225 -2 1225 47 L 1227 122 L 1230 156 L 1235 226 L 1241 265 C 1245 293 1245 293 1239 298 L 1229 307 L 1210 319 Q 1188 331 1174 321 Q 1170 318 1172 315 Q 1172 310 1175 307 Q 1179 303 1180 288 L 1185 240 L 1181 42 Q 1181 4 1185 -17 Q 1193 -75 1262 -117 Q 1347 -170 1509 -173 Q 1672 -176 1756 -153 Q 1880 -119 1903 -90 Q 1920 -72 1919 -65 Q 1918 -59 1903 -32 Q 1889 -6 1885 14 L 1880 36 L 1875 51 L 1870 80 L 1865 97 Q 1863 102 1859 102 Q 1855 102 1855 96 L 1841 34 Q 1841 29 1837 19 Z" fill="lightgray"></path>
      </clipPath>
      <path clip-path="url(#make-me-a-hanzi-clip-9)" d="M 1183 315 L 1197 306 L 1212 269 L 1202 49 L 1212 -30 L 1223 -52 L 1253 -82 L 1314 -111 L 1431 -133 L 1558 -138 L 1697 -126 L 1779 -104 L 1829 -80 L 1857 -59 L 1860 97 " fill="none" id="make-me-a-hanzi-animation-9" stroke-dasharray="1336 2672" stroke-linecap="round"></path>

</g>
</svg>
