<svg version="1.1" viewBox="0 0 2048 1024" xmlns="http://www.w3.org/2000/svg">
  <g stroke="lightgray" stroke-dasharray="1,1" stroke-width="1" transform="scale(4, 4)">
    <line x1="0" y1="0" x2="256" y2="256"></line>
    <line x1="256" y1="0" x2="0" y2="256"></line>
    <line x1="128" y1="0" x2="128" y2="256"></line>
    <line x1="0" y1="128" x2="256" y2="128"></line>
    <line x1="256" y1="0" x2="512" y2="256"></line>
    <line x1="512" y1="0" x2="256" y2="256"></line>
    <line x1="384" y1="0" x2="384" y2="256"></line>
    <line x1="256" y1="128" x2="512" y2="128"></line>
  </g>
<g transform="scale(1, -1) translate(0, -850)">
   <style type="text/css">
    @keyframes keyframes0 {
      from {
       stroke: black;
       stroke-dashoffset: 579;
       stroke-width: 128;
       }
       65% {
       animation-timing-function: step-end;
       stroke: black;
       stroke-dashoffset: 0;
       stroke-width: 128;
       }
       to {
       stroke: black;
       stroke-width: 1024;
       }
       }
       #make-me-a-hanzi-animation-0 {
         animation: keyframes0 0.721191s both;
         animation-delay: 0.000000s;
         animation-timing-function: linear;
       }
    @keyframes keyframes1 {
      from {
       stroke: black;
       stroke-dashoffset: 1135;
       stroke-width: 128;
       }
       79% {
       animation-timing-function: step-end;
       stroke: black;
       stroke-dashoffset: 0;
       stroke-width: 128;
       }
       to {
       stroke: black;
       stroke-width: 1024;
       }
       }
       #make-me-a-hanzi-animation-1 {
         animation: keyframes1 1.173665s both;
         animation-delay: 0.721191s;
         animation-timing-function: linear;
       }
    @keyframes keyframes2 {
      from {
       stroke: black;
       stroke-dashoffset: 688;
       stroke-width: 128;
       }
       69% {
       animation-timing-function: step-end;
       stroke: black;
       stroke-dashoffset: 0;
       stroke-width: 128;
       }
       to {
       stroke: black;
       stroke-width: 1024;
       }
       }
       #make-me-a-hanzi-animation-2 {
         animation: keyframes2 0.809896s both;
         animation-delay: 1.894856s;
         animation-timing-function: linear;
       }
    @keyframes keyframes3 {
      from {
       stroke: black;
       stroke-dashoffset: 695;
       stroke-width: 128;
       }
       69% {
       animation-timing-function: step-end;
       stroke: black;
       stroke-dashoffset: 0;
       stroke-width: 128;
       }
       to {
       stroke: black;
       stroke-width: 1024;
       }
       }
       #make-me-a-hanzi-animation-3 {
         animation: keyframes3 0.815592s both;
         animation-delay: 2.704752s;
         animation-timing-function: linear;
       }
    @keyframes keyframes4 {
      from {
       stroke: black;
       stroke-dashoffset: 906;
       stroke-width: 128;
       }
       75% {
       animation-timing-function: step-end;
       stroke: black;
       stroke-dashoffset: 0;
       stroke-width: 128;
       }
       to {
       stroke: black;
       stroke-width: 1024;
       }
       }
       #make-me-a-hanzi-animation-4 {
         animation: keyframes4 0.987305s both;
         animation-delay: 3.520344s;
         animation-timing-function: linear;
       }
    @keyframes keyframes5 {
      from {
       stroke: black;
       stroke-dashoffset: 771;
       stroke-width: 128;
       }
       72% {
       animation-timing-function: step-end;
       stroke: black;
       stroke-dashoffset: 0;
       stroke-width: 128;
       }
       to {
       stroke: black;
       stroke-width: 1024;
       }
       }
       #make-me-a-hanzi-animation-5 {
         animation: keyframes5 0.877441s both;
         animation-delay: 4.507649s;
         animation-timing-function: linear;
       }
    @keyframes keyframes6 {
      from {
       stroke: black;
       stroke-dashoffset: 643;
       stroke-width: 128;
       }
       68% {
       animation-timing-function: step-end;
       stroke: black;
       stroke-dashoffset: 0;
       stroke-width: 128;
       }
       to {
       stroke: black;
       stroke-width: 1024;
       }
       }
       #make-me-a-hanzi-animation-6 {
         animation: keyframes6 0.773275s both;
         animation-delay: 5.385090s;
         animation-timing-function: linear;
       }
    @keyframes keyframes7 {
      from {
       stroke: black;
       stroke-dashoffset: 1106;
       stroke-width: 128;
       }
       78% {
       animation-timing-function: step-end;
       stroke: black;
       stroke-dashoffset: 0;
       stroke-width: 128;
       }
       to {
       stroke: black;
       stroke-width: 1024;
       }
       }
       #make-me-a-hanzi-animation-7 {
         animation: keyframes7 1.150065s both;
         animation-delay: 6.158365s;
         animation-timing-function: linear;
       }
</style>
<path d="M 387.0 483.5 Q 481.0 513.5 483.0 514.5 Q 492.0 523.5 487.0 531.5 Q 478.0 543.5 449.0 549.5 Q 418.0 553.5 389.0 540.5 L 339.0 521.5 Q 249.0 494.5 171.0 482.5 Q 134.0 473.5 161.0 458.5 Q 206.0 434.5 262.0 452.5 Q 299.0 462.5 338.0 471.5 L 387.0 483.5 Z" fill="lightgray"></path> 
<path d="M 335.0 283.5 Q 334.0 198.5 333.0 92.5 Q 332.0 68.5 320.0 60.5 Q 314.0 56.5 260.0 59.5 Q 227.0 69.5 230.0 60.5 Q 231.0 53.5 252.0 38.5 Q 307.0 -6.5 320.0 -32.5 Q 336.0 -62.5 350.0 -63.5 Q 365.0 -64.5 379.0 -29.5 Q 395.0 16.5 394.0 89.5 Q 387.0 203.5 385.0 317.5 L 385.0 350.5 Q 384.0 417.5 387.0 483.5 L 389.0 540.5 Q 389.0 639.5 409.0 708.5 Q 427.0 738.5 371.0 760.5 Q 337.0 779.5 318.0 772.5 Q 300.0 766.5 316.0 743.5 Q 338.0 715.5 339.0 682.5 Q 340.0 664.5 339.0 521.5 L 338.0 471.5 Q 337.0 410.5 336.0 326.5 L 335.0 283.5 Z" fill="lightgray"></path> 
<path d="M 385.0 317.5 Q 455.0 363.5 463.0 371.5 Q 470.0 384.5 459.0 384.5 Q 444.0 384.5 385.0 350.5 L 336.0 326.5 Q 236.0 278.5 149.0 232.5 Q 110.0 213.5 86.0 208.5 Q 73.0 202.5 69.0 194.5 Q 68.0 184.5 82.0 169.5 Q 101.0 151.5 125.0 141.5 Q 140.0 137.5 156.0 151.5 Q 222.0 209.5 335.0 283.5 L 385.0 317.5 Z" fill="lightgray"></path> 
<path d="M 732.0 468.5 Q 825.0 483.5 929.0 483.5 Q 948.0 484.5 952.0 493.5 Q 956.0 505.5 940.0 517.5 Q 883.0 556.5 828.0 535.5 Q 710.0 508.5 510.0 469.5 Q 489.0 466.5 506.0 450.5 Q 519.0 437.5 537.0 433.5 Q 558.0 429.5 573.0 435.5 Q 622.0 451.5 679.0 460.5 L 732.0 468.5 Z" fill="lightgray"></path> 
<path d="M 648.0 9.5 Q 621.0 16.5 588.0 23.5 Q 575.0 27.5 576.0 19.5 Q 577.0 10.5 588.0 1.5 Q 660.0 -50.5 707.0 -94.5 Q 720.0 -103.5 734.0 -86.5 Q 774.0 -29.5 768.0 52.5 Q 753.0 253.5 761.0 407.5 Q 767.0 435.5 761.0 446.5 Q 754.0 456.5 732.0 468.5 C 707.0 484.5 670.0 489.5 679.0 460.5 Q 694.0 412.5 696.0 389.5 Q 696.0 386.5 696.0 383.5 Q 711.0 38.5 691.0 9.5 Q 679.0 0.5 648.0 9.5 Z" fill="lightgray"></path> 
<path d="M 1537.0 519.5 L 1639.0 532.5 Q 1689.0 537.5 1721.0 544.5 L 1763.0 552.5 Q 1776.0 555.5 1777.0 562.5 Q 1778.0 568.5 1771.0 575.5 Q 1764.0 581.5 1738.0 592.5 Q 1713.0 602.5 1707.0 602.5 Q 1701.0 602.5 1676.0 597.5 Q 1627.0 584.5 1566.0 575.5 L 1489.0 564.5 L 1403.0 554.5 Q 1327.0 544.5 1299.0 542.5 L 1270.0 540.5 Q 1259.0 539.5 1250.0 536.5 Q 1249.0 530.5 1253.0 524.5 Q 1256.0 515.5 1277.0 509.5 Q 1294.0 502.5 1311.0 502.5 Q 1329.0 501.5 1368.0 503.5 Q 1386.0 505.5 1454.0 510.5 L 1537.0 519.5 Z" fill="lightgray"></path> 
<path d="M 1454.0 510.5 L 1467.0 493.5 Q 1479.0 482.5 1482.0 394.5 L 1487.0 156.5 C 1488.0 126.5 1548.0 132.5 1549.0 162.5 L 1555.0 403.5 Q 1555.0 443.5 1561.0 464.5 Q 1567.0 484.5 1567.0 493.5 Q 1567.0 501.5 1559.0 506.5 Q 1552.0 513.5 1537.0 519.5 C 1510.0 532.5 1436.0 534.5 1454.0 510.5 Z" fill="lightgray"></path> 
<path d="M 1487.0 156.5 L 1241.0 137.5 Q 1170.0 134.5 1144.0 132.5 L 1118.0 130.5 Q 1095.0 126.5 1114.0 107.5 Q 1133.0 88.5 1158.0 82.5 Q 1183.0 76.5 1195.0 75.5 Q 1208.0 73.5 1253.0 85.5 Q 1299.0 97.5 1397.0 105.5 L 1490.0 114.5 Q 1498.0 115.5 1637.0 121.5 Q 1776.0 127.5 1849.0 124.5 L 1933.0 120.5 L 1958.0 122.5 Q 1977.0 124.5 1975.0 140.5 Q 1974.0 146.5 1960.0 157.5 Q 1913.0 190.5 1874.0 195.5 Q 1866.0 196.5 1826.0 189.5 Q 1786.0 181.5 1765.0 179.5 L 1549.0 162.5 L 1487.0 156.5 Z" fill="lightgray"></path> 
      <clipPath id="make-me-a-hanzi-clip-0">
      <path d="M 387.0 483.5 Q 481.0 513.5 483.0 514.5 Q 492.0 523.5 487.0 531.5 Q 478.0 543.5 449.0 549.5 Q 418.0 553.5 389.0 540.5 L 339.0 521.5 Q 249.0 494.5 171.0 482.5 Q 134.0 473.5 161.0 458.5 Q 206.0 434.5 262.0 452.5 Q 299.0 462.5 338.0 471.5 L 387.0 483.5 Z" fill="lightgray"></path>
      </clipPath>
      <path clip-path="url(#make-me-a-hanzi-clip-0)" d="M 163.0 471.5 L 186.0 466.5 L 235.0 469.5 L 428.0 524.5 L 478.0 523.5 " fill="none" id="make-me-a-hanzi-animation-0" stroke-dasharray="451 902" stroke-linecap="round"></path>

      <clipPath id="make-me-a-hanzi-clip-1">
      <path d="M 335.0 283.5 Q 334.0 198.5 333.0 92.5 Q 332.0 68.5 320.0 60.5 Q 314.0 56.5 260.0 59.5 Q 227.0 69.5 230.0 60.5 Q 231.0 53.5 252.0 38.5 Q 307.0 -6.5 320.0 -32.5 Q 336.0 -62.5 350.0 -63.5 Q 365.0 -64.5 379.0 -29.5 Q 395.0 16.5 394.0 89.5 Q 387.0 203.5 385.0 317.5 L 385.0 350.5 Q 384.0 417.5 387.0 483.5 L 389.0 540.5 Q 389.0 639.5 409.0 708.5 Q 427.0 738.5 371.0 760.5 Q 337.0 779.5 318.0 772.5 Q 300.0 766.5 316.0 743.5 Q 338.0 715.5 339.0 682.5 Q 340.0 664.5 339.0 521.5 L 338.0 471.5 Q 337.0 410.5 336.0 326.5 L 335.0 283.5 Z" fill="lightgray"></path>
      </clipPath>
      <path clip-path="url(#make-me-a-hanzi-clip-1)" d="M 324.0 757.5 L 341.0 749.5 L 372.0 717.5 L 360.0 411.5 L 361.0 64.5 L 340.0 18.5 L 236.0 58.5 " fill="none" id="make-me-a-hanzi-animation-1" stroke-dasharray="1007 2014" stroke-linecap="round"></path>

      <clipPath id="make-me-a-hanzi-clip-2">
      <path d="M 385.0 317.5 Q 455.0 363.5 463.0 371.5 Q 470.0 384.5 459.0 384.5 Q 444.0 384.5 385.0 350.5 L 336.0 326.5 Q 236.0 278.5 149.0 232.5 Q 110.0 213.5 86.0 208.5 Q 73.0 202.5 69.0 194.5 Q 68.0 184.5 82.0 169.5 Q 101.0 151.5 125.0 141.5 Q 140.0 137.5 156.0 151.5 Q 222.0 209.5 335.0 283.5 L 385.0 317.5 Z" fill="lightgray"></path>
      </clipPath>
      <path clip-path="url(#make-me-a-hanzi-clip-2)" d="M 80.0 191.5 L 131.0 181.5 L 457.0 376.5 " fill="none" id="make-me-a-hanzi-animation-2" stroke-dasharray="560 1120" stroke-linecap="round"></path>

      <clipPath id="make-me-a-hanzi-clip-3">
      <path d="M 732.0 468.5 Q 825.0 483.5 929.0 483.5 Q 948.0 484.5 952.0 493.5 Q 956.0 505.5 940.0 517.5 Q 883.0 556.5 828.0 535.5 Q 710.0 508.5 510.0 469.5 Q 489.0 466.5 506.0 450.5 Q 519.0 437.5 537.0 433.5 Q 558.0 429.5 573.0 435.5 Q 622.0 451.5 679.0 460.5 L 732.0 468.5 Z" fill="lightgray"></path>
      </clipPath>
      <path clip-path="url(#make-me-a-hanzi-clip-3)" d="M 508.0 460.5 L 555.0 454.5 L 630.0 473.5 L 864.0 512.5 L 940.0 498.5 " fill="none" id="make-me-a-hanzi-animation-3" stroke-dasharray="567 1134" stroke-linecap="round"></path>

      <clipPath id="make-me-a-hanzi-clip-4">
      <path d="M 648.0 9.5 Q 621.0 16.5 588.0 23.5 Q 575.0 27.5 576.0 19.5 Q 577.0 10.5 588.0 1.5 Q 660.0 -50.5 707.0 -94.5 Q 720.0 -103.5 734.0 -86.5 Q 774.0 -29.5 768.0 52.5 Q 753.0 253.5 761.0 407.5 Q 767.0 435.5 761.0 446.5 Q 754.0 456.5 732.0 468.5 C 707.0 484.5 670.0 489.5 679.0 460.5 Q 694.0 412.5 696.0 389.5 Q 696.0 386.5 696.0 383.5 Q 711.0 38.5 691.0 9.5 Q 679.0 0.5 648.0 9.5 Z" fill="lightgray"></path>
      </clipPath>
      <path clip-path="url(#make-me-a-hanzi-clip-4)" d="M 687.0 452.5 L 716.0 437.5 L 727.0 421.5 L 731.0 9.5 L 710.0 -33.5 L 665.0 -22.5 L 583.0 17.5 " fill="none" id="make-me-a-hanzi-animation-4" stroke-dasharray="778 1556" stroke-linecap="round"></path>

      <clipPath id="make-me-a-hanzi-clip-5">
      <path d="M 1537.0 519.5 L 1639.0 532.5 Q 1689.0 537.5 1721.0 544.5 L 1763.0 552.5 Q 1776.0 555.5 1777.0 562.5 Q 1778.0 568.5 1771.0 575.5 Q 1764.0 581.5 1738.0 592.5 Q 1713.0 602.5 1707.0 602.5 Q 1701.0 602.5 1676.0 597.5 Q 1627.0 584.5 1566.0 575.5 L 1489.0 564.5 L 1403.0 554.5 Q 1327.0 544.5 1299.0 542.5 L 1270.0 540.5 Q 1259.0 539.5 1250.0 536.5 Q 1249.0 530.5 1253.0 524.5 Q 1256.0 515.5 1277.0 509.5 Q 1294.0 502.5 1311.0 502.5 Q 1329.0 501.5 1368.0 503.5 Q 1386.0 505.5 1454.0 510.5 L 1537.0 519.5 Z" fill="lightgray"></path>
      </clipPath>
      <path clip-path="url(#make-me-a-hanzi-clip-5)" d="M 1256.0 531.5 L 1288.0 523.5 L 1328.0 523.5 L 1527.0 543.5 L 1705.0 572.5 L 1766.0 565.5 " fill="none" id="make-me-a-hanzi-animation-5" stroke-dasharray="643 1286" stroke-linecap="round"></path>

      <clipPath id="make-me-a-hanzi-clip-6">
      <path d="M 1454.0 510.5 L 1467.0 493.5 Q 1479.0 482.5 1482.0 394.5 L 1487.0 156.5 C 1488.0 126.5 1548.0 132.5 1549.0 162.5 L 1555.0 403.5 Q 1555.0 443.5 1561.0 464.5 Q 1567.0 484.5 1567.0 493.5 Q 1567.0 501.5 1559.0 506.5 Q 1552.0 513.5 1537.0 519.5 C 1510.0 532.5 1436.0 534.5 1454.0 510.5 Z" fill="lightgray"></path>
      </clipPath>
      <path clip-path="url(#make-me-a-hanzi-clip-6)" d="M 1461.0 509.5 L 1519.0 474.5 L 1518.0 191.5 L 1494.0 164.5 " fill="none" id="make-me-a-hanzi-animation-6" stroke-dasharray="515 1030" stroke-linecap="round"></path>

      <clipPath id="make-me-a-hanzi-clip-7">
      <path d="M 1487.0 156.5 L 1241.0 137.5 Q 1170.0 134.5 1144.0 132.5 L 1118.0 130.5 Q 1095.0 126.5 1114.0 107.5 Q 1133.0 88.5 1158.0 82.5 Q 1183.0 76.5 1195.0 75.5 Q 1208.0 73.5 1253.0 85.5 Q 1299.0 97.5 1397.0 105.5 L 1490.0 114.5 Q 1498.0 115.5 1637.0 121.5 Q 1776.0 127.5 1849.0 124.5 L 1933.0 120.5 L 1958.0 122.5 Q 1977.0 124.5 1975.0 140.5 Q 1974.0 146.5 1960.0 157.5 Q 1913.0 190.5 1874.0 195.5 Q 1866.0 196.5 1826.0 189.5 Q 1786.0 181.5 1765.0 179.5 L 1549.0 162.5 L 1487.0 156.5 Z" fill="lightgray"></path>
      </clipPath>
      <path clip-path="url(#make-me-a-hanzi-clip-7)" d="M 1117.0 118.5 L 1150.0 109.5 L 1206.0 105.5 L 1528.0 139.5 L 1856.0 159.5 L 1896.0 155.5 L 1961.0 137.5 " fill="none" id="make-me-a-hanzi-animation-7" stroke-dasharray="978 1956" stroke-linecap="round"></path>

</g>
</svg>
