<svg version="1.1" viewBox="0 0 2048 1024" xmlns="http://www.w3.org/2000/svg">
  <g stroke="lightgray" stroke-dasharray="1,1" stroke-width="1" transform="scale(4, 4)">
    <line x1="0" y1="0" x2="256" y2="256"></line>
    <line x1="256" y1="0" x2="0" y2="256"></line>
    <line x1="128" y1="0" x2="128" y2="256"></line>
    <line x1="0" y1="128" x2="256" y2="128"></line>
    <line x1="256" y1="0" x2="512" y2="256"></line>
    <line x1="512" y1="0" x2="256" y2="256"></line>
    <line x1="384" y1="0" x2="384" y2="256"></line>
    <line x1="256" y1="128" x2="512" y2="128"></line>
  </g>
<g transform="scale(1, -1) translate(0, -850)">
   <style type="text/css">
    @keyframes keyframes0 {
      from {
       stroke: black;
       stroke-dashoffset: 579;
       stroke-width: 128;
       }
       65% {
       animation-timing-function: step-end;
       stroke: black;
       stroke-dashoffset: 0;
       stroke-width: 128;
       }
       to {
       stroke: black;
       stroke-width: 1024;
       }
       }
       #make-me-a-hanzi-animation-0 {
         animation: keyframes0 0.721191s both;
         animation-delay: 0.000000s;
         animation-timing-function: linear;
       }
    @keyframes keyframes1 {
      from {
       stroke: black;
       stroke-dashoffset: 1135;
       stroke-width: 128;
       }
       79% {
       animation-timing-function: step-end;
       stroke: black;
       stroke-dashoffset: 0;
       stroke-width: 128;
       }
       to {
       stroke: black;
       stroke-width: 1024;
       }
       }
       #make-me-a-hanzi-animation-1 {
         animation: keyframes1 1.173665s both;
         animation-delay: 0.721191s;
         animation-timing-function: linear;
       }
    @keyframes keyframes2 {
      from {
       stroke: black;
       stroke-dashoffset: 688;
       stroke-width: 128;
       }
       69% {
       animation-timing-function: step-end;
       stroke: black;
       stroke-dashoffset: 0;
       stroke-width: 128;
       }
       to {
       stroke: black;
       stroke-width: 1024;
       }
       }
       #make-me-a-hanzi-animation-2 {
         animation: keyframes2 0.809896s both;
         animation-delay: 1.894857s;
         animation-timing-function: linear;
       }
    @keyframes keyframes3 {
      from {
       stroke: black;
       stroke-dashoffset: 695;
       stroke-width: 128;
       }
       69% {
       animation-timing-function: step-end;
       stroke: black;
       stroke-dashoffset: 0;
       stroke-width: 128;
       }
       to {
       stroke: black;
       stroke-width: 1024;
       }
       }
       #make-me-a-hanzi-animation-3 {
         animation: keyframes3 0.815592s both;
         animation-delay: 2.704753s;
         animation-timing-function: linear;
       }
    @keyframes keyframes4 {
      from {
       stroke: black;
       stroke-dashoffset: 906;
       stroke-width: 128;
       }
       75% {
       animation-timing-function: step-end;
       stroke: black;
       stroke-dashoffset: 0;
       stroke-width: 128;
       }
       to {
       stroke: black;
       stroke-width: 1024;
       }
       }
       #make-me-a-hanzi-animation-4 {
         animation: keyframes4 0.987305s both;
         animation-delay: 3.520345s;
         animation-timing-function: linear;
       }
    @keyframes keyframes5 {
      from {
       stroke: black;
       stroke-dashoffset: 495;
       stroke-width: 128;
       }
       62% {
       animation-timing-function: step-end;
       stroke: black;
       stroke-dashoffset: 0;
       stroke-width: 128;
       }
       to {
       stroke: black;
       stroke-width: 1024;
       }
       }
       #make-me-a-hanzi-animation-5 {
         animation: keyframes5 0.652832s both;
         animation-delay: 4.507650s;
         animation-timing-function: linear;
       }
    @keyframes keyframes6 {
      from {
       stroke: black;
       stroke-dashoffset: 490;
       stroke-width: 128;
       }
       61% {
       animation-timing-function: step-end;
       stroke: black;
       stroke-dashoffset: 0;
       stroke-width: 128;
       }
       to {
       stroke: black;
       stroke-width: 1024;
       }
       }
       #make-me-a-hanzi-animation-6 {
         animation: keyframes6 0.648763s both;
         animation-delay: 5.160482s;
         animation-timing-function: linear;
       }
    @keyframes keyframes7 {
      from {
       stroke: black;
       stroke-dashoffset: 631;
       stroke-width: 128;
       }
       67% {
       animation-timing-function: step-end;
       stroke: black;
       stroke-dashoffset: 0;
       stroke-width: 128;
       }
       to {
       stroke: black;
       stroke-width: 1024;
       }
       }
       #make-me-a-hanzi-animation-7 {
         animation: keyframes7 0.763509s both;
         animation-delay: 5.809245s;
         animation-timing-function: linear;
       }
    @keyframes keyframes8 {
      from {
       stroke: black;
       stroke-dashoffset: 578;
       stroke-width: 128;
       }
       65% {
       animation-timing-function: step-end;
       stroke: black;
       stroke-dashoffset: 0;
       stroke-width: 128;
       }
       to {
       stroke: black;
       stroke-width: 1024;
       }
       }
       #make-me-a-hanzi-animation-8 {
         animation: keyframes8 0.720378s both;
         animation-delay: 6.572754s;
         animation-timing-function: linear;
       }
    @keyframes keyframes9 {
      from {
       stroke: black;
       stroke-dashoffset: 591;
       stroke-width: 128;
       }
       66% {
       animation-timing-function: step-end;
       stroke: black;
       stroke-dashoffset: 0;
       stroke-width: 128;
       }
       to {
       stroke: black;
       stroke-width: 1024;
       }
       }
       #make-me-a-hanzi-animation-9 {
         animation: keyframes9 0.730957s both;
         animation-delay: 7.293132s;
         animation-timing-function: linear;
       }
    @keyframes keyframes10 {
      from {
       stroke: black;
       stroke-dashoffset: 1180;
       stroke-width: 128;
       }
       79% {
       animation-timing-function: step-end;
       stroke: black;
       stroke-dashoffset: 0;
       stroke-width: 128;
       }
       to {
       stroke: black;
       stroke-width: 1024;
       }
       }
       #make-me-a-hanzi-animation-10 {
         animation: keyframes10 1.210286s both;
         animation-delay: 8.024089s;
         animation-timing-function: linear;
       }
    @keyframes keyframes11 {
      from {
       stroke: black;
       stroke-dashoffset: 360;
       stroke-width: 128;
       }
       54% {
       animation-timing-function: step-end;
       stroke: black;
       stroke-dashoffset: 0;
       stroke-width: 128;
       }
       to {
       stroke: black;
       stroke-width: 1024;
       }
       }
       #make-me-a-hanzi-animation-11 {
         animation: keyframes11 0.542969s both;
         animation-delay: 9.234375s;
         animation-timing-function: linear;
       }
    @keyframes keyframes12 {
      from {
       stroke: black;
       stroke-dashoffset: 499;
       stroke-width: 128;
       }
       62% {
       animation-timing-function: step-end;
       stroke: black;
       stroke-dashoffset: 0;
       stroke-width: 128;
       }
       to {
       stroke: black;
       stroke-width: 1024;
       }
       }
       #make-me-a-hanzi-animation-12 {
         animation: keyframes12 0.656087s both;
         animation-delay: 9.777344s;
         animation-timing-function: linear;
       }
    @keyframes keyframes13 {
      from {
       stroke: black;
       stroke-dashoffset: 467;
       stroke-width: 128;
       }
       60% {
       animation-timing-function: step-end;
       stroke: black;
       stroke-dashoffset: 0;
       stroke-width: 128;
       }
       to {
       stroke: black;
       stroke-width: 1024;
       }
       }
       #make-me-a-hanzi-animation-13 {
         animation: keyframes13 0.630046s both;
         animation-delay: 10.433431s;
         animation-timing-function: linear;
       }
    @keyframes keyframes14 {
      from {
       stroke: black;
       stroke-dashoffset: 696;
       stroke-width: 128;
       }
       69% {
       animation-timing-function: step-end;
       stroke: black;
       stroke-dashoffset: 0;
       stroke-width: 128;
       }
       to {
       stroke: black;
       stroke-width: 1024;
       }
       }
       #make-me-a-hanzi-animation-14 {
         animation: keyframes14 0.816406s both;
         animation-delay: 11.063477s;
         animation-timing-function: linear;
       }
    @keyframes keyframes15 {
      from {
       stroke: black;
       stroke-dashoffset: 394;
       stroke-width: 128;
       }
       56% {
       animation-timing-function: step-end;
       stroke: black;
       stroke-dashoffset: 0;
       stroke-width: 128;
       }
       to {
       stroke: black;
       stroke-width: 1024;
       }
       }
       #make-me-a-hanzi-animation-15 {
         animation: keyframes15 0.570638s both;
         animation-delay: 11.879883s;
         animation-timing-function: linear;
       }
</style>
<path d="M 364 482 Q 458 512 460 513 Q 469 522 464 530 Q 455 542 426 548 Q 395 552 366 539 L 316 520 Q 226 493 148 481 Q 111 472 138 457 Q 183 433 239 451 Q 276 461 315 470 L 364 482 Z" fill="lightgray"></path> 
<path d="M 312 282 Q 311 197 310 91 Q 309 67 297 59 Q 291 55 237 58 Q 204 68 207 59 Q 208 52 229 37 Q 284 -8 297 -34 Q 313 -64 327 -65 Q 342 -66 356 -31 Q 372 15 371 88 Q 364 202 362 316 L 362 349 Q 361 416 364 482 L 366 539 Q 366 638 386 707 Q 404 737 348 759 Q 314 778 295 771 Q 277 765 293 742 Q 315 714 316 681 Q 317 663 316 520 L 315 470 Q 314 409 313 325 L 312 282 Z" fill="lightgray"></path> 
<path d="M 362 316 Q 432 362 440 370 Q 447 383 436 383 Q 421 383 362 349 L 313 325 Q 213 277 126 231 Q 87 212 63 207 Q 50 201 46 193 Q 45 183 59 168 Q 78 150 102 140 Q 117 136 133 150 Q 199 208 312 282 L 362 316 Z" fill="lightgray"></path> 
<path d="M 709 467 Q 802 482 906 482 Q 925 483 929 492 Q 933 504 917 516 Q 860 555 805 534 Q 687 507 487 468 Q 466 465 483 449 Q 496 436 514 432 Q 535 428 550 434 Q 599 450 656 459 L 709 467 Z" fill="lightgray"></path> 
<path d="M 625 8 Q 598 15 565 22 Q 552 26 553 18 Q 554 9 565 0 Q 637 -52 684 -96 Q 697 -105 711 -88 Q 751 -31 745 51 Q 730 252 738 406 Q 744 434 738 445 Q 731 455 709 467 C 684 483 647 488 656 459 Q 671 411 673 388 Q 673 385 673 382 Q 688 37 668 8 Q 656 -1 625 8 Z" fill="lightgray"></path> 
<path d="M 1302 561 Q 1407 594 1410 597 Q 1417 606 1412 614 Q 1405 626 1374 630 Q 1353 633 1274 602 Q 1202 583 1178 577 Q 1141 567 1170 553 Q 1210 535 1258 548 L 1302 561 Z" fill="lightgray"></path> 
<path d="M 1314 353 Q 1392 380 1393 380 Q 1400 389 1396 396 Q 1389 406 1361 410 Q 1336 413 1315 402 L 1269 383 Q 1227 368 1169 357 Q 1136 348 1162 335 Q 1198 317 1259 337 Q 1263 338 1269 339 L 1314 353 Z" fill="lightgray"></path> 
<path d="M 1309 196 Q 1310 280 1314 353 L 1315 402 Q 1318 546 1319 547 L 1318 548 Q 1311 555 1302 561 C 1278 579 1251 577 1258 548 Q 1270 509 1269 383 L 1269 339 Q 1268 275 1268 182 C 1268 152 1309 166 1309 196 Z" fill="lightgray"></path> 
<path d="M 1268 182 Q 1214 166 1157 145 Q 1141 139 1112 139 Q 1099 138 1098 127 Q 1097 114 1106 107 Q 1128 92 1160 76 Q 1170 73 1181 82 Q 1205 104 1364 185 Q 1386 197 1401 209 Q 1414 216 1413 226 Q 1409 230 1396 228 Q 1354 213 1309 196 L 1268 182 Z" fill="lightgray"></path> 
<path d="M 1646 503 Q 1671 509 1776 529 Q 1786 528 1794 541 Q 1795 551 1773 561 Q 1731 577 1661 550 Q 1654 549 1647 546 L 1600 533 Q 1563 524 1529 518 Q 1495 512 1459 505 Q 1431 501 1453 485 Q 1486 466 1524 474 Q 1558 483 1601 493 L 1646 503 Z" fill="lightgray"></path> 
<path d="M 1645 342 Q 1644 424 1646 503 L 1647 546 Q 1647 651 1665 717 Q 1681 745 1628 767 Q 1595 785 1577 778 Q 1561 772 1576 750 Q 1597 725 1598 691 Q 1599 675 1600 533 L 1601 493 Q 1600 340 1600 66 Q 1599 41 1586 32 Q 1580 26 1512 35 Q 1481 45 1483 35 Q 1484 28 1505 15 Q 1566 -28 1583 -55 Q 1602 -85 1617 -86 Q 1630 -86 1644 -53 Q 1660 -10 1656 61 Q 1649 182 1646 304 L 1645 342 Z" fill="lightgray"></path> 
<path d="M 1461 364 Q 1504 319 1528 310 Q 1541 307 1548 319 Q 1552 329 1550 343 Q 1540 377 1489 391 Q 1456 400 1449 397 Q 1445 396 1446 385 Q 1447 376 1461 364 Z" fill="lightgray"></path> 
<path d="M 1365 149 Q 1352 146 1353 131 Q 1357 112 1384 99 Q 1412 83 1426 83 Q 1436 84 1444 106 Q 1480 152 1566 246 Q 1573 253 1569 260 Q 1566 264 1558 259 Q 1414 157 1365 149 Z" fill="lightgray"></path> 
<path d="M 1689 301 Q 1795 377 1847 406 Q 1865 410 1861 421 Q 1857 437 1838 456 Q 1820 475 1798 477 Q 1783 477 1783 458 Q 1784 445 1776 429 Q 1742 383 1675 314 C 1654 292 1665 284 1689 301 Z" fill="lightgray"></path> 
<path d="M 1675 314 Q 1657 333 1645 342 C 1622 361 1628 328 1646 304 Q 1716 214 1794 131 Q 1816 107 1853 105 Q 1920 99 1992 110 Q 2011 111 2012 116 Q 2015 122 2000 128 Q 1819 206 1818 207 Q 1755 243 1689 301 L 1675 314 Z" fill="lightgray"></path> 
<path d="M 1778 662 Q 1806 640 1836 614 Q 1849 602 1866 604 Q 1876 605 1881 618 Q 1885 634 1874 663 Q 1867 682 1836 694 Q 1766 718 1748 709 Q 1744 705 1745 692 Q 1749 682 1778 662 Z" fill="lightgray"></path> 
      <clipPath id="make-me-a-hanzi-clip-0">
      <path d="M 364 482 Q 458 512 460 513 Q 469 522 464 530 Q 455 542 426 548 Q 395 552 366 539 L 316 520 Q 226 493 148 481 Q 111 472 138 457 Q 183 433 239 451 Q 276 461 315 470 L 364 482 Z" fill="lightgray"></path>
      </clipPath>
      <path clip-path="url(#make-me-a-hanzi-clip-0)" d="M 140 470 L 163 465 L 212 468 L 405 523 L 455 522 " fill="none" id="make-me-a-hanzi-animation-0" stroke-dasharray="451 902" stroke-linecap="round"></path>

      <clipPath id="make-me-a-hanzi-clip-1">
      <path d="M 312 282 Q 311 197 310 91 Q 309 67 297 59 Q 291 55 237 58 Q 204 68 207 59 Q 208 52 229 37 Q 284 -8 297 -34 Q 313 -64 327 -65 Q 342 -66 356 -31 Q 372 15 371 88 Q 364 202 362 316 L 362 349 Q 361 416 364 482 L 366 539 Q 366 638 386 707 Q 404 737 348 759 Q 314 778 295 771 Q 277 765 293 742 Q 315 714 316 681 Q 317 663 316 520 L 315 470 Q 314 409 313 325 L 312 282 Z" fill="lightgray"></path>
      </clipPath>
      <path clip-path="url(#make-me-a-hanzi-clip-1)" d="M 301 756 L 318 748 L 349 716 L 337 410 L 338 63 L 317 17 L 213 57 " fill="none" id="make-me-a-hanzi-animation-1" stroke-dasharray="1007 2014" stroke-linecap="round"></path>

      <clipPath id="make-me-a-hanzi-clip-2">
      <path d="M 362 316 Q 432 362 440 370 Q 447 383 436 383 Q 421 383 362 349 L 313 325 Q 213 277 126 231 Q 87 212 63 207 Q 50 201 46 193 Q 45 183 59 168 Q 78 150 102 140 Q 117 136 133 150 Q 199 208 312 282 L 362 316 Z" fill="lightgray"></path>
      </clipPath>
      <path clip-path="url(#make-me-a-hanzi-clip-2)" d="M 57 190 L 108 180 L 434 375 " fill="none" id="make-me-a-hanzi-animation-2" stroke-dasharray="560 1120" stroke-linecap="round"></path>

      <clipPath id="make-me-a-hanzi-clip-3">
      <path d="M 709 467 Q 802 482 906 482 Q 925 483 929 492 Q 933 504 917 516 Q 860 555 805 534 Q 687 507 487 468 Q 466 465 483 449 Q 496 436 514 432 Q 535 428 550 434 Q 599 450 656 459 L 709 467 Z" fill="lightgray"></path>
      </clipPath>
      <path clip-path="url(#make-me-a-hanzi-clip-3)" d="M 485 459 L 532 453 L 607 472 L 841 511 L 917 497 " fill="none" id="make-me-a-hanzi-animation-3" stroke-dasharray="567 1134" stroke-linecap="round"></path>

      <clipPath id="make-me-a-hanzi-clip-4">
      <path d="M 625 8 Q 598 15 565 22 Q 552 26 553 18 Q 554 9 565 0 Q 637 -52 684 -96 Q 697 -105 711 -88 Q 751 -31 745 51 Q 730 252 738 406 Q 744 434 738 445 Q 731 455 709 467 C 684 483 647 488 656 459 Q 671 411 673 388 Q 673 385 673 382 Q 688 37 668 8 Q 656 -1 625 8 Z" fill="lightgray"></path>
      </clipPath>
      <path clip-path="url(#make-me-a-hanzi-clip-4)" d="M 664 451 L 693 436 L 704 420 L 708 8 L 687 -35 L 642 -24 L 560 16 " fill="none" id="make-me-a-hanzi-animation-4" stroke-dasharray="778 1556" stroke-linecap="round"></path>

      <clipPath id="make-me-a-hanzi-clip-5">
      <path d="M 1302 561 Q 1407 594 1410 597 Q 1417 606 1412 614 Q 1405 626 1374 630 Q 1353 633 1274 602 Q 1202 583 1178 577 Q 1141 567 1170 553 Q 1210 535 1258 548 L 1302 561 Z" fill="lightgray"></path>
      </clipPath>
      <path clip-path="url(#make-me-a-hanzi-clip-5)" d="M 1171 566 L 1232 566 L 1356 604 L 1404 605 " fill="none" id="make-me-a-hanzi-animation-5" stroke-dasharray="367 734" stroke-linecap="round"></path>

      <clipPath id="make-me-a-hanzi-clip-6">
      <path d="M 1314 353 Q 1392 380 1393 380 Q 1400 389 1396 396 Q 1389 406 1361 410 Q 1336 413 1315 402 L 1269 383 Q 1227 368 1169 357 Q 1136 348 1162 335 Q 1198 317 1259 337 Q 1263 338 1269 339 L 1314 353 Z" fill="lightgray"></path>
      </clipPath>
      <path clip-path="url(#make-me-a-hanzi-clip-6)" d="M 1163 347 L 1193 344 L 1242 353 L 1352 390 L 1390 387 " fill="none" id="make-me-a-hanzi-animation-6" stroke-dasharray="362 724" stroke-linecap="round"></path>

      <clipPath id="make-me-a-hanzi-clip-7">
      <path d="M 1309 196 Q 1310 280 1314 353 L 1315 402 Q 1318 546 1319 547 L 1318 548 Q 1311 555 1302 561 C 1278 579 1251 577 1258 548 Q 1270 509 1269 383 L 1269 339 Q 1268 275 1268 182 C 1268 152 1309 166 1309 196 Z" fill="lightgray"></path>
      </clipPath>
      <path clip-path="url(#make-me-a-hanzi-clip-7)" d="M 1317 546 L 1290 529 L 1290 238 L 1284 203 L 1273 191 " fill="none" id="make-me-a-hanzi-animation-7" stroke-dasharray="503 1006" stroke-linecap="round"></path>

      <clipPath id="make-me-a-hanzi-clip-8">
      <path d="M 1268 182 Q 1214 166 1157 145 Q 1141 139 1112 139 Q 1099 138 1098 127 Q 1097 114 1106 107 Q 1128 92 1160 76 Q 1170 73 1181 82 Q 1205 104 1364 185 Q 1386 197 1401 209 Q 1414 216 1413 226 Q 1409 230 1396 228 Q 1354 213 1309 196 L 1268 182 Z" fill="lightgray"></path>
      </clipPath>
      <path clip-path="url(#make-me-a-hanzi-clip-8)" d="M 1111 126 L 1164 112 L 1408 222 " fill="none" id="make-me-a-hanzi-animation-8" stroke-dasharray="450 900" stroke-linecap="round"></path>

      <clipPath id="make-me-a-hanzi-clip-9">
      <path d="M 1646 503 Q 1671 509 1776 529 Q 1786 528 1794 541 Q 1795 551 1773 561 Q 1731 577 1661 550 Q 1654 549 1647 546 L 1600 533 Q 1563 524 1529 518 Q 1495 512 1459 505 Q 1431 501 1453 485 Q 1486 466 1524 474 Q 1558 483 1601 493 L 1646 503 Z" fill="lightgray"></path>
      </clipPath>
      <path clip-path="url(#make-me-a-hanzi-clip-9)" d="M 1454 496 L 1498 492 L 1707 540 L 1753 546 L 1783 542 " fill="none" id="make-me-a-hanzi-animation-9" stroke-dasharray="463 926" stroke-linecap="round"></path>

      <clipPath id="make-me-a-hanzi-clip-10">
      <path d="M 1645 342 Q 1644 424 1646 503 L 1647 546 Q 1647 651 1665 717 Q 1681 745 1628 767 Q 1595 785 1577 778 Q 1561 772 1576 750 Q 1597 725 1598 691 Q 1599 675 1600 533 L 1601 493 Q 1600 340 1600 66 Q 1599 41 1586 32 Q 1580 26 1512 35 Q 1481 45 1483 35 Q 1484 28 1505 15 Q 1566 -28 1583 -55 Q 1602 -85 1617 -86 Q 1630 -86 1644 -53 Q 1660 -10 1656 61 Q 1649 182 1646 304 L 1645 342 Z" fill="lightgray"></path>
      </clipPath>
      <path clip-path="url(#make-me-a-hanzi-clip-10)" d="M 1584 764 L 1625 733 L 1630 719 L 1622 573 L 1628 51 L 1623 21 L 1607 -10 L 1490 33 " fill="none" id="make-me-a-hanzi-animation-10" stroke-dasharray="1052 2104" stroke-linecap="round"></path>

      <clipPath id="make-me-a-hanzi-clip-11">
      <path d="M 1461 364 Q 1504 319 1528 310 Q 1541 307 1548 319 Q 1552 329 1550 343 Q 1540 377 1489 391 Q 1456 400 1449 397 Q 1445 396 1446 385 Q 1447 376 1461 364 Z" fill="lightgray"></path>
      </clipPath>
      <path clip-path="url(#make-me-a-hanzi-clip-11)" d="M 1453 390 L 1504 359 L 1533 326 " fill="none" id="make-me-a-hanzi-animation-11" stroke-dasharray="232 464" stroke-linecap="round"></path>

      <clipPath id="make-me-a-hanzi-clip-12">
      <path d="M 1365 149 Q 1352 146 1353 131 Q 1357 112 1384 99 Q 1412 83 1426 83 Q 1436 84 1444 106 Q 1480 152 1566 246 Q 1573 253 1569 260 Q 1566 264 1558 259 Q 1414 157 1365 149 Z" fill="lightgray"></path>
      </clipPath>
      <path clip-path="url(#make-me-a-hanzi-clip-12)" d="M 1368 134 L 1409 126 L 1420 132 L 1564 254 " fill="none" id="make-me-a-hanzi-animation-12" stroke-dasharray="371 742" stroke-linecap="round"></path>

      <clipPath id="make-me-a-hanzi-clip-13">
      <path d="M 1689 301 Q 1795 377 1847 406 Q 1865 410 1861 421 Q 1857 437 1838 456 Q 1820 475 1798 477 Q 1783 477 1783 458 Q 1784 445 1776 429 Q 1742 383 1675 314 C 1654 292 1665 284 1689 301 Z" fill="lightgray"></path>
      </clipPath>
      <path clip-path="url(#make-me-a-hanzi-clip-13)" d="M 1849 418 L 1814 429 L 1693 315 L 1685 318 " fill="none" id="make-me-a-hanzi-animation-13" stroke-dasharray="339 678" stroke-linecap="round"></path>

      <clipPath id="make-me-a-hanzi-clip-14">
      <path d="M 1675 314 Q 1657 333 1645 342 C 1622 361 1628 328 1646 304 Q 1716 214 1794 131 Q 1816 107 1853 105 Q 1920 99 1992 110 Q 2011 111 2012 116 Q 2015 122 2000 128 Q 1819 206 1818 207 Q 1755 243 1689 301 L 1675 314 Z" fill="lightgray"></path>
      </clipPath>
      <path clip-path="url(#make-me-a-hanzi-clip-14)" d="M 1647 336 L 1661 306 L 1714 252 L 1827 157 L 1877 140 L 2006 118 " fill="none" id="make-me-a-hanzi-animation-14" stroke-dasharray="568 1136" stroke-linecap="round"></path>

      <clipPath id="make-me-a-hanzi-clip-15">
      <path d="M 1778 662 Q 1806 640 1836 614 Q 1849 602 1866 604 Q 1876 605 1881 618 Q 1885 634 1874 663 Q 1867 682 1836 694 Q 1766 718 1748 709 Q 1744 705 1745 692 Q 1749 682 1778 662 Z" fill="lightgray"></path>
      </clipPath>
      <path clip-path="url(#make-me-a-hanzi-clip-15)" d="M 1754 703 L 1830 662 L 1863 622 " fill="none" id="make-me-a-hanzi-animation-15" stroke-dasharray="266 532" stroke-linecap="round"></path>

</g>
</svg>
