<svg version="1.1" viewBox="0 0 2048 1024" xmlns="http://www.w3.org/2000/svg">
  <g stroke="lightgray" stroke-dasharray="1,1" stroke-width="1" transform="scale(4, 4)">
    <line x1="0" y1="0" x2="256" y2="256"></line>
    <line x1="256" y1="0" x2="0" y2="256"></line>
    <line x1="128" y1="0" x2="128" y2="256"></line>
    <line x1="0" y1="128" x2="256" y2="128"></line>
    <line x1="256" y1="0" x2="512" y2="256"></line>
    <line x1="512" y1="0" x2="256" y2="256"></line>
    <line x1="384" y1="0" x2="384" y2="256"></line>
    <line x1="256" y1="128" x2="512" y2="128"></line>
  </g>
<g transform="scale(1, -1) translate(0, -850)">
   <style type="text/css">
    @keyframes keyframes0 {
      from {
       stroke: black;
       stroke-dashoffset: 538;
       stroke-width: 128;
       }
       64% {
       animation-timing-function: step-end;
       stroke: black;
       stroke-dashoffset: 0;
       stroke-width: 128;
       }
       to {
       stroke: black;
       stroke-width: 1024;
       }
       }
       #make-me-a-hanzi-animation-0 {
         animation: keyframes0 0.687826s both;
         animation-delay: 0.000000s;
         animation-timing-function: linear;
       }
    @keyframes keyframes1 {
      from {
       stroke: black;
       stroke-dashoffset: 1133;
       stroke-width: 128;
       }
       79% {
       animation-timing-function: step-end;
       stroke: black;
       stroke-dashoffset: 0;
       stroke-width: 128;
       }
       to {
       stroke: black;
       stroke-width: 1024;
       }
       }
       #make-me-a-hanzi-animation-1 {
         animation: keyframes1 1.172038s both;
         animation-delay: 0.687826s;
         animation-timing-function: linear;
       }
    @keyframes keyframes2 {
      from {
       stroke: black;
       stroke-dashoffset: 642;
       stroke-width: 128;
       }
       68% {
       animation-timing-function: step-end;
       stroke: black;
       stroke-dashoffset: 0;
       stroke-width: 128;
       }
       to {
       stroke: black;
       stroke-width: 1024;
       }
       }
       #make-me-a-hanzi-animation-2 {
         animation: keyframes2 0.772461s both;
         animation-delay: 1.859863s;
         animation-timing-function: linear;
       }
    @keyframes keyframes3 {
      from {
       stroke: black;
       stroke-dashoffset: 413;
       stroke-width: 128;
       }
       57% {
       animation-timing-function: step-end;
       stroke: black;
       stroke-dashoffset: 0;
       stroke-width: 128;
       }
       to {
       stroke: black;
       stroke-width: 1024;
       }
       }
       #make-me-a-hanzi-animation-3 {
         animation: keyframes3 0.586100s both;
         animation-delay: 2.632324s;
         animation-timing-function: linear;
       }
    @keyframes keyframes4 {
      from {
       stroke: black;
       stroke-dashoffset: 610;
       stroke-width: 128;
       }
       67% {
       animation-timing-function: step-end;
       stroke: black;
       stroke-dashoffset: 0;
       stroke-width: 128;
       }
       to {
       stroke: black;
       stroke-width: 1024;
       }
       }
       #make-me-a-hanzi-animation-4 {
         animation: keyframes4 0.746419s both;
         animation-delay: 3.218424s;
         animation-timing-function: linear;
       }
    @keyframes keyframes5 {
      from {
       stroke: black;
       stroke-dashoffset: 887;
       stroke-width: 128;
       }
       74% {
       animation-timing-function: step-end;
       stroke: black;
       stroke-dashoffset: 0;
       stroke-width: 128;
       }
       to {
       stroke: black;
       stroke-width: 1024;
       }
       }
       #make-me-a-hanzi-animation-5 {
         animation: keyframes5 0.971842s both;
         animation-delay: 3.964844s;
         animation-timing-function: linear;
       }
    @keyframes keyframes6 {
      from {
       stroke: black;
       stroke-dashoffset: 630;
       stroke-width: 128;
       }
       67% {
       animation-timing-function: step-end;
       stroke: black;
       stroke-dashoffset: 0;
       stroke-width: 128;
       }
       to {
       stroke: black;
       stroke-width: 1024;
       }
       }
       #make-me-a-hanzi-animation-6 {
         animation: keyframes6 0.762695s both;
         animation-delay: 4.936686s;
         animation-timing-function: linear;
       }
    @keyframes keyframes7 {
      from {
       stroke: black;
       stroke-dashoffset: 535;
       stroke-width: 128;
       }
       64% {
       animation-timing-function: step-end;
       stroke: black;
       stroke-dashoffset: 0;
       stroke-width: 128;
       }
       to {
       stroke: black;
       stroke-width: 1024;
       }
       }
       #make-me-a-hanzi-animation-7 {
         animation: keyframes7 0.685384s both;
         animation-delay: 5.699382s;
         animation-timing-function: linear;
       }
    @keyframes keyframes8 {
      from {
       stroke: black;
       stroke-dashoffset: 576;
       stroke-width: 128;
       }
       65% {
       animation-timing-function: step-end;
       stroke: black;
       stroke-dashoffset: 0;
       stroke-width: 128;
       }
       to {
       stroke: black;
       stroke-width: 1024;
       }
       }
       #make-me-a-hanzi-animation-8 {
         animation: keyframes8 0.718750s both;
         animation-delay: 6.384766s;
         animation-timing-function: linear;
       }
    @keyframes keyframes9 {
      from {
       stroke: black;
       stroke-dashoffset: 756;
       stroke-width: 128;
       }
       71% {
       animation-timing-function: step-end;
       stroke: black;
       stroke-dashoffset: 0;
       stroke-width: 128;
       }
       to {
       stroke: black;
       stroke-width: 1024;
       }
       }
       #make-me-a-hanzi-animation-9 {
         animation: keyframes9 0.865234s both;
         animation-delay: 7.103516s;
         animation-timing-function: linear;
       }
    @keyframes keyframes10 {
      from {
       stroke: black;
       stroke-dashoffset: 677;
       stroke-width: 128;
       }
       69% {
       animation-timing-function: step-end;
       stroke: black;
       stroke-dashoffset: 0;
       stroke-width: 128;
       }
       to {
       stroke: black;
       stroke-width: 1024;
       }
       }
       #make-me-a-hanzi-animation-10 {
         animation: keyframes10 0.800944s both;
         animation-delay: 7.968750s;
         animation-timing-function: linear;
       }
    @keyframes keyframes11 {
      from {
       stroke: black;
       stroke-dashoffset: 884;
       stroke-width: 128;
       }
       74% {
       animation-timing-function: step-end;
       stroke: black;
       stroke-dashoffset: 0;
       stroke-width: 128;
       }
       to {
       stroke: black;
       stroke-width: 1024;
       }
       }
       #make-me-a-hanzi-animation-11 {
         animation: keyframes11 0.969401s both;
         animation-delay: 8.769694s;
         animation-timing-function: linear;
       }
    @keyframes keyframes12 {
      from {
       stroke: black;
       stroke-dashoffset: 399;
       stroke-width: 128;
       }
       56% {
       animation-timing-function: step-end;
       stroke: black;
       stroke-dashoffset: 0;
       stroke-width: 128;
       }
       to {
       stroke: black;
       stroke-width: 1024;
       }
       }
       #make-me-a-hanzi-animation-12 {
         animation: keyframes12 0.574707s both;
         animation-delay: 9.739095s;
         animation-timing-function: linear;
       }
    @keyframes keyframes13 {
      from {
       stroke: black;
       stroke-dashoffset: 407;
       stroke-width: 128;
       }
       57% {
       animation-timing-function: step-end;
       stroke: black;
       stroke-dashoffset: 0;
       stroke-width: 128;
       }
       to {
       stroke: black;
       stroke-width: 1024;
       }
       }
       #make-me-a-hanzi-animation-13 {
         animation: keyframes13 0.581217s both;
         animation-delay: 10.313802s;
         animation-timing-function: linear;
       }
    @keyframes keyframes14 {
      from {
       stroke: black;
       stroke-dashoffset: 700;
       stroke-width: 128;
       }
       69% {
       animation-timing-function: step-end;
       stroke: black;
       stroke-dashoffset: 0;
       stroke-width: 128;
       }
       to {
       stroke: black;
       stroke-width: 1024;
       }
       }
       #make-me-a-hanzi-animation-14 {
         animation: keyframes14 0.819661s both;
         animation-delay: 10.895020s;
         animation-timing-function: linear;
       }
    @keyframes keyframes15 {
      from {
       stroke: black;
       stroke-dashoffset: 541;
       stroke-width: 128;
       }
       64% {
       animation-timing-function: step-end;
       stroke: black;
       stroke-dashoffset: 0;
       stroke-width: 128;
       }
       to {
       stroke: black;
       stroke-width: 1024;
       }
       }
       #make-me-a-hanzi-animation-15 {
         animation: keyframes15 0.690267s both;
         animation-delay: 11.714681s;
         animation-timing-function: linear;
       }
    @keyframes keyframes16 {
      from {
       stroke: black;
       stroke-dashoffset: 809;
       stroke-width: 128;
       }
       72% {
       animation-timing-function: step-end;
       stroke: black;
       stroke-dashoffset: 0;
       stroke-width: 128;
       }
       to {
       stroke: black;
       stroke-width: 1024;
       }
       }
       #make-me-a-hanzi-animation-16 {
         animation: keyframes16 0.908366s both;
         animation-delay: 12.404948s;
         animation-timing-function: linear;
       }
    @keyframes keyframes17 {
      from {
       stroke: black;
       stroke-dashoffset: 812;
       stroke-width: 128;
       }
       73% {
       animation-timing-function: step-end;
       stroke: black;
       stroke-dashoffset: 0;
       stroke-width: 128;
       }
       to {
       stroke: black;
       stroke-width: 1024;
       }
       }
       #make-me-a-hanzi-animation-17 {
         animation: keyframes17 0.910807s both;
         animation-delay: 13.313314s;
         animation-timing-function: linear;
       }
</style>
<path d="M 335 400 Q 414 424 416 425 Q 425 434 420 442 Q 413 454 382 460 Q 358 463 338 456 L 286 437 Q 184 410 144 404 Q 107 397 134 381 Q 179 357 238 376 Q 260 383 285 387 L 335 400 Z" fill="lightgray"></path> 
<path d="M 280 200 Q 279 113 277 4 Q 276 -18 264 -28 Q 255 -32 197 -20 Q 164 -7 167 -17 Q 168 -24 188 -40 Q 246 -91 260 -118 Q 276 -151 291 -153 Q 306 -154 321 -119 Q 340 -74 339 -1 Q 332 120 332 242 L 332 275 Q 332 339 335 400 L 338 456 Q 338 535 358 602 Q 374 633 320 655 Q 286 674 267 668 Q 249 661 265 638 Q 287 611 287 577 Q 288 561 286 437 L 285 387 Q 284 326 281 244 L 280 200 Z" fill="lightgray"></path> 
<path d="M 281 244 Q 197 195 125 147 Q 91 126 67 119 Q 54 113 53 105 Q 52 95 67 82 Q 86 66 110 59 Q 126 55 137 68 Q 209 146 280 200 L 332 242 Q 389 290 393 294 Q 399 307 388 306 Q 373 306 332 275 L 281 244 Z" fill="lightgray"></path> 
<path d="M 649 601 L 722 548 Q 738 535 754 538 Q 764 539 769 554 Q 772 570 759 600 Q 746 634 639 651 Q 623 652 616 649 Q 612 645 614 631 Q 618 621 649 601 Z" fill="lightgray"></path> 
<path d="M 558 393 Q 571 392 586 397 Q 724 431 886 458 Q 896 457 906 470 Q 907 483 882 492 Q 843 514 761 484 Q 740 480 721 473 Q 697 467 541 438 C 512 433 528 392 558 393 Z" fill="lightgray"></path> 
<path d="M 541 438 Q 492 460 477 457 Q 456 453 474 431 Q 504 376 491 174 Q 484 122 459 57 Q 441 9 367 -77 Q 343 -95 337 -110 Q 336 -117 348 -116 Q 385 -116 454 -41 Q 524 41 542 171 Q 555 252 556 373 Q 557 385 558 393 C 561 423 562 429 541 438 Z" fill="lightgray"></path> 
<path d="M 1452 451 L 1538 471 Q 1546 472 1548 477 Q 1550 482 1544 489 Q 1538 502 1491 506 Q 1480 507 1459 501 L 1402 488 L 1292 466 L 1246 462 L 1188 452 L 1171 451 L 1162 447 Q 1157 443 1170 435 Q 1193 419 1226 422 L 1250 424 L 1294 428 L 1399 442 L 1452 451 Z" fill="lightgray"></path> 
<path d="M 1292 466 L 1290 522 Q 1290 544 1293 556 L 1297 572 Q 1298 575 1286 581 Q 1277 588 1266 591 L 1239 597 Q 1236 598 1228 596 Q 1219 594 1222 587 Q 1225 579 1229 571 Q 1234 563 1236 543 L 1246 462 L 1250 424 L 1261 318 C 1264 288 1304 296 1302 326 L 1294 428 L 1292 466 Z" fill="lightgray"></path> 
<path d="M 1436 348 L 1452 451 L 1459 501 L 1472 562 Q 1476 581 1478 585 L 1484 597 Q 1492 614 1476 628 Q 1457 647 1413 656 Q 1398 656 1398 646 Q 1402 640 1404 620 L 1408 602 L 1408 578 L 1402 488 L 1399 442 L 1392 340 C 1390 310 1431 318 1436 348 Z" fill="lightgray"></path> 
<path d="M 1522 354 L 1509 357 Q 1499 359 1479 355 Q 1459 350 1436 348 L 1392 340 L 1302 326 L 1261 318 L 1092 293 L 1068 291 Q 1056 288 1054 282 Q 1054 278 1060 270 Q 1082 249 1108 248 Q 1121 246 1157 256 L 1223 273 Q 1256 282 1317 291 Q 1464 316 1513 318 Q 1562 319 1563 328 Q 1565 334 1554 344 Q 1543 354 1522 354 Z" fill="lightgray"></path> 
<path d="M 1280 219 L 1259 226 L 1235 231 Q 1226 232 1221 229 Q 1213 222 1226 204 Q 1235 186 1235 163 L 1234 81 L 1229 -7 Q 1205 -123 1204 -140 Q 1203 -158 1211 -171 Q 1225 -203 1234 -194 Q 1247 -181 1261 -104 L 1271 -26 L 1273 5 L 1276 80 L 1276 106 L 1279 152 L 1279 180 Q 1279 188 1282 192 C 1288 216 1288 216 1280 219 Z" fill="lightgray"></path> 
<path d="M 1352 231 L 1280 219 C 1250 214 1252 188 1282 192 L 1353 202 Q 1357 204 1365 204 L 1410 207 Q 1418 206 1422 202 Q 1426 198 1428 174 L 1428 121 L 1428 98 L 1428 20 L 1428 -4 L 1427 -73 Q 1425 -111 1415 -121 Q 1409 -125 1403 -123 Q 1398 -122 1383 -114 L 1364 -105 Q 1356 -103 1355 -107 Q 1351 -110 1359 -118 L 1374 -135 L 1393 -165 Q 1411 -190 1415 -200 Q 1420 -210 1424 -212 Q 1429 -214 1438 -208 Q 1447 -204 1459 -178 Q 1472 -152 1472 -103 L 1473 132 L 1475 156 Q 1478 177 1479 178 Q 1480 179 1485 190 Q 1491 200 1491 204 Q 1492 208 1488 215 Q 1484 222 1465 239 Q 1446 255 1434 255 Q 1423 255 1395 244 Q 1368 232 1352 231 Z" fill="lightgray"></path> 
<path d="M 1276 80 L 1286 77 Q 1294 75 1300 76 L 1413 96 Q 1418 98 1428 98 C 1458 99 1456 110 1428 121 L 1411 128 Q 1396 137 1368 127 L 1334 118 L 1276 106 C 1247 100 1247 89 1276 80 Z" fill="lightgray"></path> 
<path d="M 1271 -26 L 1292 -26 Q 1300 -28 1329 -22 L 1428 -4 C 1458 1 1457 12 1428 20 L 1404 27 Q 1392 30 1358 21 L 1331 14 L 1297 10 L 1273 5 C 1244 -1 1241 -26 1271 -26 Z" fill="lightgray"></path> 
<path d="M 1646 322 L 1664 355 L 1708 444 L 1737 515 L 1750 540 L 1758 550 Q 1762 556 1761 564 Q 1760 571 1757 573 Q 1745 588 1723 602 Q 1690 620 1682 617 Q 1677 613 1678 597 Q 1683 578 1670 532 Q 1663 483 1623 380 L 1588 302 Q 1576 271 1562 250 L 1546 223 Q 1542 213 1544 209 Q 1546 204 1556 213 L 1576 232 Q 1579 233 1595 254 L 1624 288 L 1646 322 Z" fill="lightgray"></path> 
<path d="M 1869 386 L 1847 388 Q 1839 388 1814 380 Q 1802 375 1783 369 L 1646 322 C 1618 312 1594 290 1624 288 L 1640 287 Q 1650 284 1677 293 L 1708 302 L 1744 314 L 1844 337 Q 1870 344 1886 344 Q 1902 343 1910 348 Q 1914 352 1915 360 Q 1916 367 1904 372 L 1869 386 Z" fill="lightgray"></path> 
<path d="M 1708 302 L 1714 284 Q 1724 241 1717 191 Q 1711 141 1706 125 L 1695 80 L 1674 37 L 1658 8 Q 1645 -22 1612 -53 Q 1579 -84 1526 -102 L 1504 -110 Q 1496 -113 1498 -118 Q 1500 -123 1508 -123 L 1526 -123 Q 1543 -123 1552 -121 Q 1562 -120 1598 -108 Q 1648 -88 1679 -57 Q 1710 -26 1714 -9 L 1736 32 L 1751 76 Q 1762 103 1768 145 L 1778 213 Q 1779 226 1782 231 L 1788 244 Q 1792 257 1792 263 Q 1792 268 1785 279 Q 1778 289 1771 294 L 1744 314 C 1720 332 1699 330 1708 302 Z" fill="lightgray"></path> 
<path d="M 1695 80 L 1663 115 Q 1632 147 1630 148 L 1614 158 L 1598 162 Q 1573 165 1562 154 Q 1558 150 1559 148 Q 1559 143 1572 138 Q 1571 140 1589 128 L 1609 116 L 1617 108 Q 1644 86 1655 68 L 1674 37 L 1714 -9 L 1738 -41 L 1782 -94 Q 1804 -120 1829 -145 Q 1854 -170 1898 -168 Q 1968 -164 1990 -154 L 2007 -149 Q 2015 -146 2014 -141 Q 2013 -136 2007 -134 L 1992 -128 Q 1868 -83 1822 -48 Q 1800 -32 1780 -13 L 1736 32 L 1695 80 Z" fill="lightgray"></path> 
      <clipPath id="make-me-a-hanzi-clip-0">
      <path d="M 335 400 Q 414 424 416 425 Q 425 434 420 442 Q 413 454 382 460 Q 358 463 338 456 L 286 437 Q 184 410 144 404 Q 107 397 134 381 Q 179 357 238 376 Q 260 383 285 387 L 335 400 Z" fill="lightgray"></path>
      </clipPath>
      <path clip-path="url(#make-me-a-hanzi-clip-0)" d="M 136 394 L 184 389 L 351 433 L 386 438 L 411 434 " fill="none" id="make-me-a-hanzi-animation-0" stroke-dasharray="410 820" stroke-linecap="round"></path>

      <clipPath id="make-me-a-hanzi-clip-1">
      <path d="M 280 200 Q 279 113 277 4 Q 276 -18 264 -28 Q 255 -32 197 -20 Q 164 -7 167 -17 Q 168 -24 188 -40 Q 246 -91 260 -118 Q 276 -151 291 -153 Q 306 -154 321 -119 Q 340 -74 339 -1 Q 332 120 332 242 L 332 275 Q 332 339 335 400 L 338 456 Q 338 535 358 602 Q 374 633 320 655 Q 286 674 267 668 Q 249 661 265 638 Q 287 611 287 577 Q 288 561 286 437 L 285 387 Q 284 326 281 244 L 280 200 Z" fill="lightgray"></path>
      </clipPath>
      <path clip-path="url(#make-me-a-hanzi-clip-1)" d="M 274 652 L 290 644 L 321 612 L 307 320 L 308 -10 L 286 -71 L 186 -27 L 184 -20 L 173 -20 " fill="none" id="make-me-a-hanzi-animation-1" stroke-dasharray="1005 2010" stroke-linecap="round"></path>

      <clipPath id="make-me-a-hanzi-clip-2">
      <path d="M 281 244 Q 197 195 125 147 Q 91 126 67 119 Q 54 113 53 105 Q 52 95 67 82 Q 86 66 110 59 Q 126 55 137 68 Q 209 146 280 200 L 332 242 Q 389 290 393 294 Q 399 307 388 306 Q 373 306 332 275 L 281 244 Z" fill="lightgray"></path>
      </clipPath>
      <path clip-path="url(#make-me-a-hanzi-clip-2)" d="M 66 103 L 114 98 L 194 162 L 386 298 " fill="none" id="make-me-a-hanzi-animation-2" stroke-dasharray="514 1028" stroke-linecap="round"></path>

      <clipPath id="make-me-a-hanzi-clip-3">
      <path d="M 649 601 L 722 548 Q 738 535 754 538 Q 764 539 769 554 Q 772 570 759 600 Q 746 634 639 651 Q 623 652 616 649 Q 612 645 614 631 Q 618 621 649 601 Z" fill="lightgray"></path>
      </clipPath>
      <path clip-path="url(#make-me-a-hanzi-clip-3)" d="M 622 643 L 718 594 L 750 557 " fill="none" id="make-me-a-hanzi-animation-3" stroke-dasharray="285 570" stroke-linecap="round"></path>

      <clipPath id="make-me-a-hanzi-clip-4">
      <path d="M 558 393 Q 571 392 586 397 Q 724 431 886 458 Q 896 457 906 470 Q 907 483 882 492 Q 843 514 761 484 Q 740 480 721 473 Q 697 467 541 438 C 512 433 528 392 558 393 Z" fill="lightgray"></path>
      </clipPath>
      <path clip-path="url(#make-me-a-hanzi-clip-4)" d="M 554 437 L 574 419 L 826 474 L 851 477 L 895 471 " fill="none" id="make-me-a-hanzi-animation-4" stroke-dasharray="482 964" stroke-linecap="round"></path>

      <clipPath id="make-me-a-hanzi-clip-5">
      <path d="M 541 438 Q 492 460 477 457 Q 456 453 474 431 Q 504 376 491 174 Q 484 122 459 57 Q 441 9 367 -77 Q 343 -95 337 -110 Q 336 -117 348 -116 Q 385 -116 454 -41 Q 524 41 542 171 Q 555 252 556 373 Q 557 385 558 393 C 561 423 562 429 541 438 Z" fill="lightgray"></path>
      </clipPath>
      <path clip-path="url(#make-me-a-hanzi-clip-5)" d="M 478 444 L 515 414 L 523 389 L 525 279 L 510 134 L 483 49 L 449 -10 L 384 -84 L 345 -108 " fill="none" id="make-me-a-hanzi-animation-5" stroke-dasharray="759 1518" stroke-linecap="round"></path>

      <clipPath id="make-me-a-hanzi-clip-6">
      <path d="M 1452 451 L 1538 471 Q 1546 472 1548 477 Q 1550 482 1544 489 Q 1538 502 1491 506 Q 1480 507 1459 501 L 1402 488 L 1292 466 L 1246 462 L 1188 452 L 1171 451 L 1162 447 Q 1157 443 1170 435 Q 1193 419 1226 422 L 1250 424 L 1294 428 L 1399 442 L 1452 451 Z" fill="lightgray"></path>
      </clipPath>
      <path clip-path="url(#make-me-a-hanzi-clip-6)" d="M 1169 443 L 1231 440 L 1299 447 L 1487 483 L 1539 481 " fill="none" id="make-me-a-hanzi-animation-6" stroke-dasharray="502 1004" stroke-linecap="round"></path>

      <clipPath id="make-me-a-hanzi-clip-7">
      <path d="M 1292 466 L 1290 522 Q 1290 544 1293 556 L 1297 572 Q 1298 575 1286 581 Q 1277 588 1266 591 L 1239 597 Q 1236 598 1228 596 Q 1219 594 1222 587 Q 1225 579 1229 571 Q 1234 563 1236 543 L 1246 462 L 1250 424 L 1261 318 C 1264 288 1304 296 1302 326 L 1294 428 L 1292 466 Z" fill="lightgray"></path>
      </clipPath>
      <path clip-path="url(#make-me-a-hanzi-clip-7)" d="M 1232 587 L 1263 556 L 1280 346 L 1266 326 " fill="none" id="make-me-a-hanzi-animation-7" stroke-dasharray="407 814" stroke-linecap="round"></path>

      <clipPath id="make-me-a-hanzi-clip-8">
      <path d="M 1436 348 L 1452 451 L 1459 501 L 1472 562 Q 1476 581 1478 585 L 1484 597 Q 1492 614 1476 628 Q 1457 647 1413 656 Q 1398 656 1398 646 Q 1402 640 1404 620 L 1408 602 L 1408 578 L 1402 488 L 1399 442 L 1392 340 C 1390 310 1431 318 1436 348 Z" fill="lightgray"></path>
      </clipPath>
      <path clip-path="url(#make-me-a-hanzi-clip-8)" d="M 1410 645 L 1446 604 L 1416 367 L 1398 347 " fill="none" id="make-me-a-hanzi-animation-8" stroke-dasharray="448 896" stroke-linecap="round"></path>

      <clipPath id="make-me-a-hanzi-clip-9">
      <path d="M 1522 354 L 1509 357 Q 1499 359 1479 355 Q 1459 350 1436 348 L 1392 340 L 1302 326 L 1261 318 L 1092 293 L 1068 291 Q 1056 288 1054 282 Q 1054 278 1060 270 Q 1082 249 1108 248 Q 1121 246 1157 256 L 1223 273 Q 1256 282 1317 291 Q 1464 316 1513 318 Q 1562 319 1563 328 Q 1565 334 1554 344 Q 1543 354 1522 354 Z" fill="lightgray"></path>
      </clipPath>
      <path clip-path="url(#make-me-a-hanzi-clip-9)" d="M 1063 279 L 1096 272 L 1129 274 L 1476 335 L 1535 336 L 1556 330 " fill="none" id="make-me-a-hanzi-animation-9" stroke-dasharray="628 1256" stroke-linecap="round"></path>

      <clipPath id="make-me-a-hanzi-clip-10">
      <path d="M 1280 219 L 1259 226 L 1235 231 Q 1226 232 1221 229 Q 1213 222 1226 204 Q 1235 186 1235 163 L 1234 81 L 1229 -7 Q 1205 -123 1204 -140 Q 1203 -158 1211 -171 Q 1225 -203 1234 -194 Q 1247 -181 1261 -104 L 1271 -26 L 1273 5 L 1276 80 L 1276 106 L 1279 152 L 1279 180 Q 1279 188 1282 192 C 1288 216 1288 216 1280 219 Z" fill="lightgray"></path>
      </clipPath>
      <path clip-path="url(#make-me-a-hanzi-clip-10)" d="M 1229 221 L 1256 197 L 1257 146 L 1250 -17 L 1227 -147 L 1229 -186 " fill="none" id="make-me-a-hanzi-animation-10" stroke-dasharray="549 1098" stroke-linecap="round"></path>

      <clipPath id="make-me-a-hanzi-clip-11">
      <path d="M 1352 231 L 1280 219 C 1250 214 1252 188 1282 192 L 1353 202 Q 1357 204 1365 204 L 1410 207 Q 1418 206 1422 202 Q 1426 198 1428 174 L 1428 121 L 1428 98 L 1428 20 L 1428 -4 L 1427 -73 Q 1425 -111 1415 -121 Q 1409 -125 1403 -123 Q 1398 -122 1383 -114 L 1364 -105 Q 1356 -103 1355 -107 Q 1351 -110 1359 -118 L 1374 -135 L 1393 -165 Q 1411 -190 1415 -200 Q 1420 -210 1424 -212 Q 1429 -214 1438 -208 Q 1447 -204 1459 -178 Q 1472 -152 1472 -103 L 1473 132 L 1475 156 Q 1478 177 1479 178 Q 1480 179 1485 190 Q 1491 200 1491 204 Q 1492 208 1488 215 Q 1484 222 1465 239 Q 1446 255 1434 255 Q 1423 255 1395 244 Q 1368 232 1352 231 Z" fill="lightgray"></path>
      </clipPath>
      <path clip-path="url(#make-me-a-hanzi-clip-11)" d="M 1288 199 L 1295 208 L 1410 229 L 1435 226 L 1456 204 L 1450 128 L 1450 -79 L 1444 -128 L 1433 -151 L 1425 -154 L 1398 -141 L 1361 -111 " fill="none" id="make-me-a-hanzi-animation-11" stroke-dasharray="756 1512" stroke-linecap="round"></path>

      <clipPath id="make-me-a-hanzi-clip-12">
      <path d="M 1276 80 L 1286 77 Q 1294 75 1300 76 L 1413 96 Q 1418 98 1428 98 C 1458 99 1456 110 1428 121 L 1411 128 Q 1396 137 1368 127 L 1334 118 L 1276 106 C 1247 100 1247 89 1276 80 Z" fill="lightgray"></path>
      </clipPath>
      <path clip-path="url(#make-me-a-hanzi-clip-12)" d="M 1285 100 L 1293 92 L 1393 113 L 1413 111 L 1420 104 " fill="none" id="make-me-a-hanzi-animation-12" stroke-dasharray="271 542" stroke-linecap="round"></path>

      <clipPath id="make-me-a-hanzi-clip-13">
      <path d="M 1271 -26 L 1292 -26 Q 1300 -28 1329 -22 L 1428 -4 C 1458 1 1457 12 1428 20 L 1404 27 Q 1392 30 1358 21 L 1331 14 L 1297 10 L 1273 5 C 1244 -1 1241 -26 1271 -26 Z" fill="lightgray"></path>
      </clipPath>
      <path clip-path="url(#make-me-a-hanzi-clip-13)" d="M 1276 -19 L 1294 -8 L 1372 6 L 1413 9 L 1420 2 " fill="none" id="make-me-a-hanzi-animation-13" stroke-dasharray="279 558" stroke-linecap="round"></path>

      <clipPath id="make-me-a-hanzi-clip-14">
      <path d="M 1646 322 L 1664 355 L 1708 444 L 1737 515 L 1750 540 L 1758 550 Q 1762 556 1761 564 Q 1760 571 1757 573 Q 1745 588 1723 602 Q 1690 620 1682 617 Q 1677 613 1678 597 Q 1683 578 1670 532 Q 1663 483 1623 380 L 1588 302 Q 1576 271 1562 250 L 1546 223 Q 1542 213 1544 209 Q 1546 204 1556 213 L 1576 232 Q 1579 233 1595 254 L 1624 288 L 1646 322 Z" fill="lightgray"></path>
      </clipPath>
      <path clip-path="url(#make-me-a-hanzi-clip-14)" d="M 1686 611 L 1716 559 L 1684 462 L 1606 294 L 1581 252 L 1549 216 " fill="none" id="make-me-a-hanzi-animation-14" stroke-dasharray="572 1144" stroke-linecap="round"></path>

      <clipPath id="make-me-a-hanzi-clip-15">
      <path d="M 1869 386 L 1847 388 Q 1839 388 1814 380 Q 1802 375 1783 369 L 1646 322 C 1618 312 1594 290 1624 288 L 1640 287 Q 1650 284 1677 293 L 1708 302 L 1744 314 L 1844 337 Q 1870 344 1886 344 Q 1902 343 1910 348 Q 1914 352 1915 360 Q 1916 367 1904 372 L 1869 386 Z" fill="lightgray"></path>
      </clipPath>
      <path clip-path="url(#make-me-a-hanzi-clip-15)" d="M 1628 293 L 1672 312 L 1840 362 L 1902 359 " fill="none" id="make-me-a-hanzi-animation-15" stroke-dasharray="413 826" stroke-linecap="round"></path>

      <clipPath id="make-me-a-hanzi-clip-16">
      <path d="M 1708 302 L 1714 284 Q 1724 241 1717 191 Q 1711 141 1706 125 L 1695 80 L 1674 37 L 1658 8 Q 1645 -22 1612 -53 Q 1579 -84 1526 -102 L 1504 -110 Q 1496 -113 1498 -118 Q 1500 -123 1508 -123 L 1526 -123 Q 1543 -123 1552 -121 Q 1562 -120 1598 -108 Q 1648 -88 1679 -57 Q 1710 -26 1714 -9 L 1736 32 L 1751 76 Q 1762 103 1768 145 L 1778 213 Q 1779 226 1782 231 L 1788 244 Q 1792 257 1792 263 Q 1792 268 1785 279 Q 1778 289 1771 294 L 1744 314 C 1720 332 1699 330 1708 302 Z" fill="lightgray"></path>
      </clipPath>
      <path clip-path="url(#make-me-a-hanzi-clip-16)" d="M 1716 300 L 1740 286 L 1755 259 L 1735 122 L 1700 25 L 1667 -32 L 1626 -71 L 1565 -103 L 1505 -117 " fill="none" id="make-me-a-hanzi-animation-16" stroke-dasharray="681 1362" stroke-linecap="round"></path>

      <clipPath id="make-me-a-hanzi-clip-17">
      <path d="M 1695 80 L 1663 115 Q 1632 147 1630 148 L 1614 158 L 1598 162 Q 1573 165 1562 154 Q 1558 150 1559 148 Q 1559 143 1572 138 Q 1571 140 1589 128 L 1609 116 L 1617 108 Q 1644 86 1655 68 L 1674 37 L 1714 -9 L 1738 -41 L 1782 -94 Q 1804 -120 1829 -145 Q 1854 -170 1898 -168 Q 1968 -164 1990 -154 L 2007 -149 Q 2015 -146 2014 -141 Q 2013 -136 2007 -134 L 1992 -128 Q 1868 -83 1822 -48 Q 1800 -32 1780 -13 L 1736 32 L 1695 80 Z" fill="lightgray"></path>
      </clipPath>
      <path clip-path="url(#make-me-a-hanzi-clip-17)" d="M 1565 149 L 1598 144 L 1643 113 L 1761 -31 L 1860 -118 L 1890 -130 L 1944 -139 L 2007 -141 " fill="none" id="make-me-a-hanzi-animation-17" stroke-dasharray="684 1368" stroke-linecap="round"></path>

</g>
</svg>
