<svg version="1.1" viewBox="0 0 2048 1024" xmlns="http://www.w3.org/2000/svg">
  <g stroke="lightgray" stroke-dasharray="1,1" stroke-width="1" transform="scale(4, 4)">
    <line x1="0" y1="0" x2="256" y2="256"></line>
    <line x1="256" y1="0" x2="0" y2="256"></line>
    <line x1="128" y1="0" x2="128" y2="256"></line>
    <line x1="0" y1="128" x2="256" y2="128"></line>
    <line x1="256" y1="0" x2="512" y2="256"></line>
    <line x1="512" y1="0" x2="256" y2="256"></line>
    <line x1="384" y1="0" x2="384" y2="256"></line>
    <line x1="256" y1="128" x2="512" y2="128"></line>
  </g>
<g transform="scale(1, -1) translate(0, -850)">
   <style type="text/css">
    @keyframes keyframes0 {
      from {
       stroke: black;
       stroke-dashoffset: 580;
       stroke-width: 128;
       }
       65% {
       animation-timing-function: step-end;
       stroke: black;
       stroke-dashoffset: 0;
       stroke-width: 128;
       }
       to {
       stroke: black;
       stroke-width: 1024;
       }
       }
       #make-me-a-hanzi-animation-0 {
         animation: keyframes0 0.722005s both;
         animation-delay: 0.000000s;
         animation-timing-function: linear;
       }
    @keyframes keyframes1 {
      from {
       stroke: black;
       stroke-dashoffset: 1156;
       stroke-width: 128;
       }
       79% {
       animation-timing-function: step-end;
       stroke: black;
       stroke-dashoffset: 0;
       stroke-width: 128;
       }
       to {
       stroke: black;
       stroke-width: 1024;
       }
       }
       #make-me-a-hanzi-animation-1 {
         animation: keyframes1 1.190755s both;
         animation-delay: 0.722005s;
         animation-timing-function: linear;
       }
    @keyframes keyframes2 {
      from {
       stroke: black;
       stroke-dashoffset: 651;
       stroke-width: 128;
       }
       68% {
       animation-timing-function: step-end;
       stroke: black;
       stroke-dashoffset: 0;
       stroke-width: 128;
       }
       to {
       stroke: black;
       stroke-width: 1024;
       }
       }
       #make-me-a-hanzi-animation-2 {
         animation: keyframes2 0.779785s both;
         animation-delay: 1.912760s;
         animation-timing-function: linear;
       }
    @keyframes keyframes3 {
      from {
       stroke: black;
       stroke-dashoffset: 1046;
       stroke-width: 128;
       }
       77% {
       animation-timing-function: step-end;
       stroke: black;
       stroke-dashoffset: 0;
       stroke-width: 128;
       }
       to {
       stroke: black;
       stroke-width: 1024;
       }
       }
       #make-me-a-hanzi-animation-3 {
         animation: keyframes3 1.101237s both;
         animation-delay: 2.692545s;
         animation-timing-function: linear;
       }
    @keyframes keyframes4 {
      from {
       stroke: black;
       stroke-dashoffset: 679;
       stroke-width: 128;
       }
       69% {
       animation-timing-function: step-end;
       stroke: black;
       stroke-dashoffset: 0;
       stroke-width: 128;
       }
       to {
       stroke: black;
       stroke-width: 1024;
       }
       }
       #make-me-a-hanzi-animation-4 {
         animation: keyframes4 0.802572s both;
         animation-delay: 3.793782s;
         animation-timing-function: linear;
       }
    @keyframes keyframes5 {
      from {
       stroke: black;
       stroke-dashoffset: 828;
       stroke-width: 128;
       }
       73% {
       animation-timing-function: step-end;
       stroke: black;
       stroke-dashoffset: 0;
       stroke-width: 128;
       }
       to {
       stroke: black;
       stroke-width: 1024;
       }
       }
       #make-me-a-hanzi-animation-5 {
         animation: keyframes5 0.923828s both;
         animation-delay: 4.596354s;
         animation-timing-function: linear;
       }
    @keyframes keyframes6 {
      from {
       stroke: black;
       stroke-dashoffset: 849;
       stroke-width: 128;
       }
       73% {
       animation-timing-function: step-end;
       stroke: black;
       stroke-dashoffset: 0;
       stroke-width: 128;
       }
       to {
       stroke: black;
       stroke-width: 1024;
       }
       }
       #make-me-a-hanzi-animation-6 {
         animation: keyframes6 0.940918s both;
         animation-delay: 5.520182s;
         animation-timing-function: linear;
       }
    @keyframes keyframes7 {
      from {
       stroke: black;
       stroke-dashoffset: 388;
       stroke-width: 128;
       }
       56% {
       animation-timing-function: step-end;
       stroke: black;
       stroke-dashoffset: 0;
       stroke-width: 128;
       }
       to {
       stroke: black;
       stroke-width: 1024;
       }
       }
       #make-me-a-hanzi-animation-7 {
         animation: keyframes7 0.565755s both;
         animation-delay: 6.461100s;
         animation-timing-function: linear;
       }
    @keyframes keyframes8 {
      from {
       stroke: black;
       stroke-dashoffset: 418;
       stroke-width: 128;
       }
       58% {
       animation-timing-function: step-end;
       stroke: black;
       stroke-dashoffset: 0;
       stroke-width: 128;
       }
       to {
       stroke: black;
       stroke-width: 1024;
       }
       }
       #make-me-a-hanzi-animation-8 {
         animation: keyframes8 0.590169s both;
         animation-delay: 7.026855s;
         animation-timing-function: linear;
       }
    @keyframes keyframes9 {
      from {
       stroke: black;
       stroke-dashoffset: 1039;
       stroke-width: 128;
       }
       77% {
       animation-timing-function: step-end;
       stroke: black;
       stroke-dashoffset: 0;
       stroke-width: 128;
       }
       to {
       stroke: black;
       stroke-width: 1024;
       }
       }
       #make-me-a-hanzi-animation-9 {
         animation: keyframes9 1.095540s both;
         animation-delay: 7.617024s;
         animation-timing-function: linear;
       }
    @keyframes keyframes10 {
      from {
       stroke: black;
       stroke-dashoffset: 1212;
       stroke-width: 128;
       }
       80% {
       animation-timing-function: step-end;
       stroke: black;
       stroke-dashoffset: 0;
       stroke-width: 128;
       }
       to {
       stroke: black;
       stroke-width: 1024;
       }
       }
       #make-me-a-hanzi-animation-10 {
         animation: keyframes10 1.236328s both;
         animation-delay: 8.712564s;
         animation-timing-function: linear;
       }
    @keyframes keyframes11 {
      from {
       stroke: black;
       stroke-dashoffset: 557;
       stroke-width: 128;
       }
       64% {
       animation-timing-function: step-end;
       stroke: black;
       stroke-dashoffset: 0;
       stroke-width: 128;
       }
       to {
       stroke: black;
       stroke-width: 1024;
       }
       }
       #make-me-a-hanzi-animation-11 {
         animation: keyframes11 0.703288s both;
         animation-delay: 9.948892s;
         animation-timing-function: linear;
       }
</style>
<path d="M 322.0 483.5 L 410.0 501.5 L 426.0 506.5 Q 446.0 511.5 446.0 520.5 Q 450.0 539.5 410.0 549.5 Q 392.0 554.5 389.0 553.5 L 324.0 534.5 L 276.0 524.5 L 190.0 508.5 Q 163.0 502.5 135.0 499.5 L 116.0 497.5 Q 99.0 494.5 110.0 481.5 Q 119.0 465.5 150.0 463.5 L 172.0 461.5 L 276.0 475.5 L 322.0 483.5 Z" fill="lightgray"></path> 
<path d="M 267.0 265.5 L 261.0 107.5 Q 262.0 99.5 258.0 74.5 L 256.0 46.5 Q 253.0 29.5 240.0 20.5 Q 232.0 18.5 221.0 21.5 L 168.0 33.5 Q 165.0 35.5 158.0 30.5 Q 156.0 27.5 164.0 19.5 L 194.0 -6.5 Q 205.0 -14.5 225.0 -40.5 Q 245.0 -66.5 246.0 -70.5 Q 254.0 -89.5 267.0 -85.5 Q 285.0 -83.5 305.0 -42.5 Q 313.0 -22.5 315.0 -11.5 Q 318.0 -1.5 318.0 30.5 L 314.0 150.5 L 318.0 299.5 L 318.0 336.5 L 322.0 483.5 L 324.0 534.5 L 328.0 581.5 Q 328.0 589.5 333.0 628.5 Q 339.0 667.5 347.0 679.5 L 356.0 689.5 Q 372.0 716.5 327.0 742.5 Q 305.0 755.5 284.0 760.5 Q 264.0 765.5 256.0 757.5 Q 250.0 750.5 257.0 724.5 L 265.0 696.5 L 274.0 623.5 L 276.0 585.5 L 276.0 524.5 L 276.0 475.5 L 272.0 313.5 L 267.0 265.5 Z" fill="lightgray"></path> 
<path d="M 80.0 217.5 L 50.0 209.5 Q 46.0 206.5 45.0 198.5 Q 45.0 190.5 54.0 183.5 L 97.0 153.5 Q 106.0 147.5 126.0 152.5 L 128.0 154.5 Q 135.0 163.5 154.0 179.5 L 204.0 219.5 L 267.0 265.5 L 318.0 299.5 L 398.0 360.5 Q 414.0 371.5 408.0 375.5 Q 402.0 379.5 391.0 375.5 L 318.0 336.5 L 272.0 313.5 L 115.0 232.5 Q 96.0 221.5 80.0 217.5 Z" fill="lightgray"></path> 
<path d="M 772.0 96.5 L 778.0 114.5 Q 784.0 128.5 790.0 171.5 L 809.0 278.5 L 820.0 326.5 L 830.0 382.5 L 838.0 418.5 Q 851.0 496.5 872.0 517.5 Q 874.0 525.5 867.0 532.5 Q 860.0 539.5 831.0 560.5 Q 802.0 581.5 785.0 578.5 Q 780.0 578.5 763.0 572.5 L 732.0 560.5 L 692.0 549.5 L 628.0 535.5 L 578.0 527.5 Q 529.0 518.5 513.0 517.5 L 477.0 512.5 Q 467.0 509.5 466.0 505.5 Q 465.0 501.5 469.0 495.5 Q 474.0 489.5 482.0 485.5 Q 496.0 475.5 506.0 476.5 Q 517.0 476.5 538.0 481.5 L 574.0 487.5 L 608.0 495.5 L 719.0 518.5 Q 726.0 519.5 737.0 521.5 L 750.0 522.5 Q 759.0 522.5 765.0 519.5 Q 772.0 518.5 774.0 514.5 Q 777.0 509.5 776.0 485.5 Q 775.0 460.5 772.0 443.5 L 758.0 320.5 L 750.0 275.5 L 736.0 187.5 L 721.0 119.5 L 721.0 108.5 L 723.0 93.5 C 725.0 63.5 762.0 68.5 772.0 96.5 Z" fill="lightgray"></path> 
<path d="M 574.0 487.5 L 576.0 456.5 Q 575.0 455.5 575.0 448.5 L 572.0 392.5 L 559.0 297.5 L 553.0 255.5 L 530.0 73.5 C 526.0 43.5 571.0 48.5 576.0 78.5 L 606.0 261.5 L 612.0 301.5 L 628.0 383.5 Q 628.0 400.5 634.0 409.5 Q 635.0 418.5 643.0 432.5 Q 652.0 445.5 651.0 450.5 Q 650.0 455.5 631.0 474.5 Q 613.0 492.5 608.0 495.5 C 585.0 514.5 572.0 517.5 574.0 487.5 Z" fill="lightgray"></path> 
<path d="M 809.0 278.5 L 868.0 282.5 L 964.0 285.5 Q 974.0 286.5 975.0 293.5 Q 977.0 301.5 971.0 310.5 Q 962.0 321.5 939.0 331.5 Q 917.0 341.5 900.0 341.5 L 820.0 326.5 L 758.0 320.5 L 612.0 301.5 L 559.0 297.5 L 410.0 282.5 Q 399.0 281.5 391.0 277.5 Q 384.0 272.5 400.0 259.5 Q 426.0 241.5 440.0 242.5 Q 455.0 242.5 461.0 240.5 L 498.0 247.5 Q 510.0 247.5 522.0 251.5 L 553.0 255.5 L 606.0 261.5 L 648.0 266.5 Q 673.0 269.5 750.0 275.5 L 809.0 278.5 Z" fill="lightgray"></path> 
<path d="M 973.0 67.5 Q 968.0 77.5 944.0 95.5 Q 921.0 113.5 888.0 108.5 L 876.0 107.5 Q 865.0 104.5 805.0 99.5 L 772.0 96.5 L 723.0 93.5 L 576.0 78.5 L 530.0 73.5 L 456.0 65.5 L 378.0 59.5 Q 372.0 59.5 370.0 53.5 Q 370.0 49.5 376.0 41.5 L 393.0 27.5 Q 409.0 17.5 424.0 11.5 Q 440.0 4.5 473.0 14.5 L 513.0 24.5 Q 575.0 34.5 599.0 39.5 Q 624.0 43.5 733.0 48.5 Q 842.0 53.5 891.0 50.5 L 962.0 47.5 Q 973.0 45.5 975.0 53.5 Q 979.0 57.5 973.0 67.5 Z" fill="lightgray"></path> 
<path d="M 1354.0 620.0 Q 1435.0 542.0 1464.0 544.0 Q 1480.0 544.0 1485.0 567.0 Q 1485.0 583.0 1472.0 606.0 Q 1456.0 625.0 1426.0 634.0 Q 1377.0 650.0 1357.0 652.0 Q 1345.0 653.0 1346.0 639.0 Q 1345.0 629.0 1354.0 620.0 Z" fill="lightgray"></path> 
<path d="M 1311.0 454.0 L 1383.0 392.0 Q 1398.0 379.0 1414.0 380.0 Q 1426.0 380.0 1431.0 394.0 Q 1435.0 410.0 1425.0 441.0 Q 1413.0 477.0 1305.0 505.0 Q 1289.0 508.0 1282.0 505.0 Q 1276.0 501.0 1278.0 487.0 Q 1282.0 477.0 1311.0 454.0 Z" fill="lightgray"></path> 
<path d="M 1574.0 282.0 Q 1649.0 288.0 1908.0 289.0 Q 1932.0 289.0 1937.0 299.0 Q 1944.0 312.0 1924.0 329.0 Q 1863.0 377.0 1819.0 366.0 Q 1728.0 348.0 1585.0 327.0 L 1523.0 319.0 Q 1522.0 320.0 1520.0 319.0 Q 1351.0 298.0 1153.0 276.0 Q 1128.0 273.0 1146.0 253.0 Q 1162.0 237.0 1184.0 230.0 Q 1209.0 223.0 1228.0 229.0 Q 1367.0 265.0 1512.0 276.0 L 1574.0 282.0 Z" fill="lightgray"></path> 
<path d="M 1512.0 276.0 Q 1469.0 117.0 1302.0 24.0 L 1212.0 -19.0 Q 1197.0 -23.0 1193.0 -28.0 Q 1186.0 -34.0 1205.0 -38.0 Q 1302.0 -44.0 1448.0 56.0 Q 1475.0 78.0 1496.0 104.0 Q 1535.0 152.0 1574.0 282.0 L 1585.0 327.0 Q 1585.0 328.0 1619.0 553.0 Q 1623.0 602.0 1645.0 660.0 Q 1652.0 673.0 1642.0 682.0 Q 1623.0 701.0 1582.0 720.0 Q 1558.0 733.0 1539.0 727.0 Q 1515.0 720.0 1533.0 699.0 Q 1564.0 663.0 1562.0 629.0 Q 1553.0 443.0 1523.0 319.0 L 1512.0 276.0 Z" fill="lightgray"></path> 
<path d="M 1631.0 155.0 Q 1707.0 80.0 1798.0 -27.0 Q 1816.0 -51.0 1832.0 -56.0 Q 1842.0 -57.0 1851.0 -47.0 Q 1866.0 -34.0 1854.0 17.0 Q 1841.0 86.0 1634.0 190.0 Q 1624.0 197.0 1621.0 182.0 Q 1620.0 167.0 1631.0 155.0 Z" fill="lightgray"></path> 
      <clipPath id="make-me-a-hanzi-clip-0">
      <path d="M 322.0 483.5 L 410.0 501.5 L 426.0 506.5 Q 446.0 511.5 446.0 520.5 Q 450.0 539.5 410.0 549.5 Q 392.0 554.5 389.0 553.5 L 324.0 534.5 L 276.0 524.5 L 190.0 508.5 Q 163.0 502.5 135.0 499.5 L 116.0 497.5 Q 99.0 494.5 110.0 481.5 Q 119.0 465.5 150.0 463.5 L 172.0 461.5 L 276.0 475.5 L 322.0 483.5 Z" fill="lightgray"></path>
      </clipPath>
      <path clip-path="url(#make-me-a-hanzi-clip-0)" d="M 114.0 489.5 L 131.0 482.5 L 168.0 482.5 L 295.0 502.5 L 390.0 525.5 L 432.0 523.5 " fill="none" id="make-me-a-hanzi-animation-0" stroke-dasharray="452 904" stroke-linecap="round"></path>

      <clipPath id="make-me-a-hanzi-clip-1">
      <path d="M 267.0 265.5 L 261.0 107.5 Q 262.0 99.5 258.0 74.5 L 256.0 46.5 Q 253.0 29.5 240.0 20.5 Q 232.0 18.5 221.0 21.5 L 168.0 33.5 Q 165.0 35.5 158.0 30.5 Q 156.0 27.5 164.0 19.5 L 194.0 -6.5 Q 205.0 -14.5 225.0 -40.5 Q 245.0 -66.5 246.0 -70.5 Q 254.0 -89.5 267.0 -85.5 Q 285.0 -83.5 305.0 -42.5 Q 313.0 -22.5 315.0 -11.5 Q 318.0 -1.5 318.0 30.5 L 314.0 150.5 L 318.0 299.5 L 318.0 336.5 L 322.0 483.5 L 324.0 534.5 L 328.0 581.5 Q 328.0 589.5 333.0 628.5 Q 339.0 667.5 347.0 679.5 L 356.0 689.5 Q 372.0 716.5 327.0 742.5 Q 305.0 755.5 284.0 760.5 Q 264.0 765.5 256.0 757.5 Q 250.0 750.5 257.0 724.5 L 265.0 696.5 L 274.0 623.5 L 276.0 585.5 L 276.0 524.5 L 276.0 475.5 L 272.0 313.5 L 267.0 265.5 Z" fill="lightgray"></path>
      </clipPath>
      <path clip-path="url(#make-me-a-hanzi-clip-1)" d="M 266.0 749.5 L 309.0 702.5 L 303.0 649.5 L 287.0 36.5 L 280.0 7.5 L 265.0 -18.5 L 165.0 26.5 " fill="none" id="make-me-a-hanzi-animation-1" stroke-dasharray="1028 2056" stroke-linecap="round"></path>

      <clipPath id="make-me-a-hanzi-clip-2">
      <path d="M 80.0 217.5 L 50.0 209.5 Q 46.0 206.5 45.0 198.5 Q 45.0 190.5 54.0 183.5 L 97.0 153.5 Q 106.0 147.5 126.0 152.5 L 128.0 154.5 Q 135.0 163.5 154.0 179.5 L 204.0 219.5 L 267.0 265.5 L 318.0 299.5 L 398.0 360.5 Q 414.0 371.5 408.0 375.5 Q 402.0 379.5 391.0 375.5 L 318.0 336.5 L 272.0 313.5 L 115.0 232.5 Q 96.0 221.5 80.0 217.5 Z" fill="lightgray"></path>
      </clipPath>
      <path clip-path="url(#make-me-a-hanzi-clip-2)" d="M 60.0 198.5 L 114.0 191.5 L 403.0 372.5 " fill="none" id="make-me-a-hanzi-animation-2" stroke-dasharray="523 1046" stroke-linecap="round"></path>

      <clipPath id="make-me-a-hanzi-clip-3">
      <path d="M 772.0 96.5 L 778.0 114.5 Q 784.0 128.5 790.0 171.5 L 809.0 278.5 L 820.0 326.5 L 830.0 382.5 L 838.0 418.5 Q 851.0 496.5 872.0 517.5 Q 874.0 525.5 867.0 532.5 Q 860.0 539.5 831.0 560.5 Q 802.0 581.5 785.0 578.5 Q 780.0 578.5 763.0 572.5 L 732.0 560.5 L 692.0 549.5 L 628.0 535.5 L 578.0 527.5 Q 529.0 518.5 513.0 517.5 L 477.0 512.5 Q 467.0 509.5 466.0 505.5 Q 465.0 501.5 469.0 495.5 Q 474.0 489.5 482.0 485.5 Q 496.0 475.5 506.0 476.5 Q 517.0 476.5 538.0 481.5 L 574.0 487.5 L 608.0 495.5 L 719.0 518.5 Q 726.0 519.5 737.0 521.5 L 750.0 522.5 Q 759.0 522.5 765.0 519.5 Q 772.0 518.5 774.0 514.5 Q 777.0 509.5 776.0 485.5 Q 775.0 460.5 772.0 443.5 L 758.0 320.5 L 750.0 275.5 L 736.0 187.5 L 721.0 119.5 L 721.0 108.5 L 723.0 93.5 C 725.0 63.5 762.0 68.5 772.0 96.5 Z" fill="lightgray"></path>
      </clipPath>
      <path clip-path="url(#make-me-a-hanzi-clip-3)" d="M 475.0 502.5 L 503.0 496.5 L 528.0 499.5 L 767.0 546.5 L 791.0 544.5 L 817.0 518.5 L 761.0 165.5 L 751.0 123.5 L 729.0 101.5 " fill="none" id="make-me-a-hanzi-animation-3" stroke-dasharray="918 1836" stroke-linecap="round"></path>

      <clipPath id="make-me-a-hanzi-clip-4">
      <path d="M 574.0 487.5 L 576.0 456.5 Q 575.0 455.5 575.0 448.5 L 572.0 392.5 L 559.0 297.5 L 553.0 255.5 L 530.0 73.5 C 526.0 43.5 571.0 48.5 576.0 78.5 L 606.0 261.5 L 612.0 301.5 L 628.0 383.5 Q 628.0 400.5 634.0 409.5 Q 635.0 418.5 643.0 432.5 Q 652.0 445.5 651.0 450.5 Q 650.0 455.5 631.0 474.5 Q 613.0 492.5 608.0 495.5 C 585.0 514.5 572.0 517.5 574.0 487.5 Z" fill="lightgray"></path>
      </clipPath>
      <path clip-path="url(#make-me-a-hanzi-clip-4)" d="M 582.0 480.5 L 605.0 461.5 L 610.0 445.5 L 558.0 105.5 L 537.0 80.5 " fill="none" id="make-me-a-hanzi-animation-4" stroke-dasharray="551 1102" stroke-linecap="round"></path>

      <clipPath id="make-me-a-hanzi-clip-5">
      <path d="M 809.0 278.5 L 868.0 282.5 L 964.0 285.5 Q 974.0 286.5 975.0 293.5 Q 977.0 301.5 971.0 310.5 Q 962.0 321.5 939.0 331.5 Q 917.0 341.5 900.0 341.5 L 820.0 326.5 L 758.0 320.5 L 612.0 301.5 L 559.0 297.5 L 410.0 282.5 Q 399.0 281.5 391.0 277.5 Q 384.0 272.5 400.0 259.5 Q 426.0 241.5 440.0 242.5 Q 455.0 242.5 461.0 240.5 L 498.0 247.5 Q 510.0 247.5 522.0 251.5 L 553.0 255.5 L 606.0 261.5 L 648.0 266.5 Q 673.0 269.5 750.0 275.5 L 809.0 278.5 Z" fill="lightgray"></path>
      </clipPath>
      <path clip-path="url(#make-me-a-hanzi-clip-5)" d="M 398.0 272.5 L 437.0 263.5 L 475.0 265.5 L 899.0 312.5 L 936.0 308.5 L 964.0 297.5 " fill="none" id="make-me-a-hanzi-animation-5" stroke-dasharray="700 1400" stroke-linecap="round"></path>

      <clipPath id="make-me-a-hanzi-clip-6">
      <path d="M 973.0 67.5 Q 968.0 77.5 944.0 95.5 Q 921.0 113.5 888.0 108.5 L 876.0 107.5 Q 865.0 104.5 805.0 99.5 L 772.0 96.5 L 723.0 93.5 L 576.0 78.5 L 530.0 73.5 L 456.0 65.5 L 378.0 59.5 Q 372.0 59.5 370.0 53.5 Q 370.0 49.5 376.0 41.5 L 393.0 27.5 Q 409.0 17.5 424.0 11.5 Q 440.0 4.5 473.0 14.5 L 513.0 24.5 Q 575.0 34.5 599.0 39.5 Q 624.0 43.5 733.0 48.5 Q 842.0 53.5 891.0 50.5 L 962.0 47.5 Q 973.0 45.5 975.0 53.5 Q 979.0 57.5 973.0 67.5 Z" fill="lightgray"></path>
      </clipPath>
      <path clip-path="url(#make-me-a-hanzi-clip-6)" d="M 379.0 50.5 L 447.0 36.5 L 615.0 62.5 L 884.0 79.5 L 924.0 76.5 L 965.0 59.5 " fill="none" id="make-me-a-hanzi-animation-6" stroke-dasharray="721 1442" stroke-linecap="round"></path>

      <clipPath id="make-me-a-hanzi-clip-7">
      <path d="M 1354.0 620.0 Q 1435.0 542.0 1464.0 544.0 Q 1480.0 544.0 1485.0 567.0 Q 1485.0 583.0 1472.0 606.0 Q 1456.0 625.0 1426.0 634.0 Q 1377.0 650.0 1357.0 652.0 Q 1345.0 653.0 1346.0 639.0 Q 1345.0 629.0 1354.0 620.0 Z" fill="lightgray"></path>
      </clipPath>
      <path clip-path="url(#make-me-a-hanzi-clip-7)" d="M 1355.0 642.0 L 1438.0 592.0 L 1462.0 566.0 " fill="none" id="make-me-a-hanzi-animation-7" stroke-dasharray="260 520" stroke-linecap="round"></path>

      <clipPath id="make-me-a-hanzi-clip-8">
      <path d="M 1311.0 454.0 L 1383.0 392.0 Q 1398.0 379.0 1414.0 380.0 Q 1426.0 380.0 1431.0 394.0 Q 1435.0 410.0 1425.0 441.0 Q 1413.0 477.0 1305.0 505.0 Q 1289.0 508.0 1282.0 505.0 Q 1276.0 501.0 1278.0 487.0 Q 1282.0 477.0 1311.0 454.0 Z" fill="lightgray"></path>
      </clipPath>
      <path clip-path="url(#make-me-a-hanzi-clip-8)" d="M 1288.0 497.0 L 1382.0 439.0 L 1414.0 398.0 " fill="none" id="make-me-a-hanzi-animation-8" stroke-dasharray="290 580" stroke-linecap="round"></path>

      <clipPath id="make-me-a-hanzi-clip-9">
      <path d="M 1574.0 282.0 Q 1649.0 288.0 1908.0 289.0 Q 1932.0 289.0 1937.0 299.0 Q 1944.0 312.0 1924.0 329.0 Q 1863.0 377.0 1819.0 366.0 Q 1728.0 348.0 1585.0 327.0 L 1523.0 319.0 Q 1522.0 320.0 1520.0 319.0 Q 1351.0 298.0 1153.0 276.0 Q 1128.0 273.0 1146.0 253.0 Q 1162.0 237.0 1184.0 230.0 Q 1209.0 223.0 1228.0 229.0 Q 1367.0 265.0 1512.0 276.0 L 1574.0 282.0 Z" fill="lightgray"></path>
      </clipPath>
      <path clip-path="url(#make-me-a-hanzi-clip-9)" d="M 1150.0 264.0 L 1208.0 254.0 L 1414.0 287.0 L 1831.0 328.0 L 1883.0 321.0 L 1924.0 306.0 " fill="none" id="make-me-a-hanzi-animation-9" stroke-dasharray="911 1822" stroke-linecap="round"></path>

      <clipPath id="make-me-a-hanzi-clip-10">
      <path d="M 1512.0 276.0 Q 1469.0 117.0 1302.0 24.0 L 1212.0 -19.0 Q 1197.0 -23.0 1193.0 -28.0 Q 1186.0 -34.0 1205.0 -38.0 Q 1302.0 -44.0 1448.0 56.0 Q 1475.0 78.0 1496.0 104.0 Q 1535.0 152.0 1574.0 282.0 L 1585.0 327.0 Q 1585.0 328.0 1619.0 553.0 Q 1623.0 602.0 1645.0 660.0 Q 1652.0 673.0 1642.0 682.0 Q 1623.0 701.0 1582.0 720.0 Q 1558.0 733.0 1539.0 727.0 Q 1515.0 720.0 1533.0 699.0 Q 1564.0 663.0 1562.0 629.0 Q 1553.0 443.0 1523.0 319.0 L 1512.0 276.0 Z" fill="lightgray"></path>
      </clipPath>
      <path clip-path="url(#make-me-a-hanzi-clip-10)" d="M 1540.0 712.0 L 1577.0 690.0 L 1596.0 668.0 L 1600.0 647.0 L 1560.0 352.0 L 1544.0 281.0 L 1514.0 198.0 L 1468.0 119.0 L 1393.0 51.0 L 1291.0 -4.0 L 1200.0 -31.0 " fill="none" id="make-me-a-hanzi-animation-10" stroke-dasharray="1084 2168" stroke-linecap="round"></path>

      <clipPath id="make-me-a-hanzi-clip-11">
      <path d="M 1631.0 155.0 Q 1707.0 80.0 1798.0 -27.0 Q 1816.0 -51.0 1832.0 -56.0 Q 1842.0 -57.0 1851.0 -47.0 Q 1866.0 -34.0 1854.0 17.0 Q 1841.0 86.0 1634.0 190.0 Q 1624.0 197.0 1621.0 182.0 Q 1620.0 167.0 1631.0 155.0 Z" fill="lightgray"></path>
      </clipPath>
      <path clip-path="url(#make-me-a-hanzi-clip-11)" d="M 1633.0 176.0 L 1726.0 104.0 L 1791.0 43.0 L 1816.0 11.0 L 1834.0 -39.0 " fill="none" id="make-me-a-hanzi-animation-11" stroke-dasharray="429 858" stroke-linecap="round"></path>

</g>
</svg>
