<svg version="1.1" viewBox="0 0 2048 1024" xmlns="http://www.w3.org/2000/svg">
  <g stroke="lightgray" stroke-dasharray="1,1" stroke-width="1" transform="scale(4, 4)">
    <line x1="0" y1="0" x2="256" y2="256"></line>
    <line x1="256" y1="0" x2="0" y2="256"></line>
    <line x1="128" y1="0" x2="128" y2="256"></line>
    <line x1="0" y1="128" x2="256" y2="128"></line>
    <line x1="256" y1="0" x2="512" y2="256"></line>
    <line x1="512" y1="0" x2="256" y2="256"></line>
    <line x1="384" y1="0" x2="384" y2="256"></line>
    <line x1="256" y1="128" x2="512" y2="128"></line>
  </g>
<g transform="scale(1, -1) translate(0, -850)">
   <style type="text/css">
    @keyframes keyframes0 {
      from {
       stroke: black;
       stroke-dashoffset: 564;
       stroke-width: 128;
       }
       65% {
       animation-timing-function: step-end;
       stroke: black;
       stroke-dashoffset: 0;
       stroke-width: 128;
       }
       to {
       stroke: black;
       stroke-width: 1024;
       }
       }
       #make-me-a-hanzi-animation-0 {
         animation: keyframes0 0.708984s both;
         animation-delay: 0.000000s;
         animation-timing-function: linear;
       }
    @keyframes keyframes1 {
      from {
       stroke: black;
       stroke-dashoffset: 1126;
       stroke-width: 128;
       }
       79% {
       animation-timing-function: step-end;
       stroke: black;
       stroke-dashoffset: 0;
       stroke-width: 128;
       }
       to {
       stroke: black;
       stroke-width: 1024;
       }
       }
       #make-me-a-hanzi-animation-1 {
         animation: keyframes1 1.166341s both;
         animation-delay: 0.708984s;
         animation-timing-function: linear;
       }
    @keyframes keyframes2 {
      from {
       stroke: black;
       stroke-dashoffset: 670;
       stroke-width: 128;
       }
       69% {
       animation-timing-function: step-end;
       stroke: black;
       stroke-dashoffset: 0;
       stroke-width: 128;
       }
       to {
       stroke: black;
       stroke-width: 1024;
       }
       }
       #make-me-a-hanzi-animation-2 {
         animation: keyframes2 0.795247s both;
         animation-delay: 1.875326s;
         animation-timing-function: linear;
       }
    @keyframes keyframes3 {
      from {
       stroke: black;
       stroke-dashoffset: 404;
       stroke-width: 128;
       }
       57% {
       animation-timing-function: step-end;
       stroke: black;
       stroke-dashoffset: 0;
       stroke-width: 128;
       }
       to {
       stroke: black;
       stroke-width: 1024;
       }
       }
       #make-me-a-hanzi-animation-3 {
         animation: keyframes3 0.578776s both;
         animation-delay: 2.670573s;
         animation-timing-function: linear;
       }
    @keyframes keyframes4 {
      from {
       stroke: black;
       stroke-dashoffset: 665;
       stroke-width: 128;
       }
       68% {
       animation-timing-function: step-end;
       stroke: black;
       stroke-dashoffset: 0;
       stroke-width: 128;
       }
       to {
       stroke: black;
       stroke-width: 1024;
       }
       }
       #make-me-a-hanzi-animation-4 {
         animation: keyframes4 0.791178s both;
         animation-delay: 3.249349s;
         animation-timing-function: linear;
       }
    @keyframes keyframes5 {
      from {
       stroke: black;
       stroke-dashoffset: 543;
       stroke-width: 128;
       }
       64% {
       animation-timing-function: step-end;
       stroke: black;
       stroke-dashoffset: 0;
       stroke-width: 128;
       }
       to {
       stroke: black;
       stroke-width: 1024;
       }
       }
       #make-me-a-hanzi-animation-5 {
         animation: keyframes5 0.691895s both;
         animation-delay: 4.040527s;
         animation-timing-function: linear;
       }
    @keyframes keyframes6 {
      from {
       stroke: black;
       stroke-dashoffset: 888;
       stroke-width: 128;
       }
       74% {
       animation-timing-function: step-end;
       stroke: black;
       stroke-dashoffset: 0;
       stroke-width: 128;
       }
       to {
       stroke: black;
       stroke-width: 1024;
       }
       }
       #make-me-a-hanzi-animation-6 {
         animation: keyframes6 0.972656s both;
         animation-delay: 4.732422s;
         animation-timing-function: linear;
       }
    @keyframes keyframes7 {
      from {
       stroke: black;
       stroke-dashoffset: 1118;
       stroke-width: 128;
       }
       78% {
       animation-timing-function: step-end;
       stroke: black;
       stroke-dashoffset: 0;
       stroke-width: 128;
       }
       to {
       stroke: black;
       stroke-width: 1024;
       }
       }
       #make-me-a-hanzi-animation-7 {
         animation: keyframes7 1.159831s both;
         animation-delay: 5.705078s;
         animation-timing-function: linear;
       }
    @keyframes keyframes8 {
      from {
       stroke: black;
       stroke-dashoffset: 959;
       stroke-width: 128;
       }
       76% {
       animation-timing-function: step-end;
       stroke: black;
       stroke-dashoffset: 0;
       stroke-width: 128;
       }
       to {
       stroke: black;
       stroke-width: 1024;
       }
       }
       #make-me-a-hanzi-animation-8 {
         animation: keyframes8 1.030436s both;
         animation-delay: 6.864909s;
         animation-timing-function: linear;
       }
    @keyframes keyframes9 {
      from {
       stroke: black;
       stroke-dashoffset: 831;
       stroke-width: 128;
       }
       73% {
       animation-timing-function: step-end;
       stroke: black;
       stroke-dashoffset: 0;
       stroke-width: 128;
       }
       to {
       stroke: black;
       stroke-width: 1024;
       }
       }
       #make-me-a-hanzi-animation-9 {
         animation: keyframes9 0.926270s both;
         animation-delay: 7.895345s;
         animation-timing-function: linear;
       }
</style>
<path d="M 346 523 Q 365 530 386 535 Q 423 547 429 553 Q 438 562 432 570 Q 425 582 394 586 Q 369 590 349 581 L 297 560 Q 221 530 130 513 Q 93 503 122 489 Q 170 468 222 487 Q 258 497 296 508 L 346 523 Z" fill="lightgray"></path> 
<path d="M 290 337 Q 289 249 285 136 Q 284 114 272 105 Q 266 102 205 115 Q 172 128 175 119 Q 176 112 195 96 Q 253 44 267 15 Q 283 -19 298 -21 Q 311 -22 328 12 Q 347 58 348 131 Q 341 255 342 379 L 342 410 Q 343 468 346 523 L 349 581 Q 349 656 370 726 Q 386 756 332 779 Q 298 798 279 792 Q 261 785 277 762 Q 298 735 299 701 Q 300 685 297 560 L 296 508 Q 295 453 292 378 L 290 337 Z" fill="lightgray"></path> 
<path d="M 292 378 Q 195 318 110 260 Q 77 241 56 233 Q 44 226 42 219 Q 41 210 56 197 Q 75 184 97 176 Q 113 173 122 185 Q 195 264 290 337 L 342 379 Q 393 418 401 430 Q 407 443 396 442 Q 384 442 342 410 L 292 378 Z" fill="lightgray"></path> 
<path d="M 613 697 Q 644 675 678 648 Q 693 636 710 638 Q 720 639 725 654 Q 728 670 716 700 Q 701 734 603 746 Q 587 749 580 745 Q 576 741 578 727 Q 582 717 613 697 Z" fill="lightgray"></path> 
<path d="M 804 430 Q 829 494 865 517 Q 883 536 867 555 Q 849 570 794 597 Q 775 604 752 596 Q 670 557 541 532 C 512 526 520 490 549 497 Q 756 548 767 540 Q 779 525 746 429 C 736 401 793 402 804 430 Z" fill="lightgray"></path> 
<path d="M 535 352 Q 541 346 563 351 Q 645 373 821 395 Q 831 396 832 405 Q 832 414 804 430 C 788 440 775 436 746 429 Q 628 399 538 383 C 508 378 507 362 535 352 Z" fill="lightgray"></path> 
<path d="M 541 532 Q 528 544 504 553 Q 485 563 474 557 Q 462 550 469 537 Q 517 479 460 206 Q 456 191 452 176 Q 424 92 358 -24 Q 354 -31 351 -37 Q 350 -47 359 -45 Q 389 -39 456 74 Q 466 95 477 118 Q 517 220 535 352 L 538 383 Q 539 396 540 408 Q 543 480 549 497 C 554 523 554 523 541 532 Z" fill="lightgray"></path> 
<path d="M 1476 346 L 1268 319 Q 1231 314 1208 312 L 1170 310 L 1115 305 Q 1102 304 1100 298 Q 1096 288 1122 270 Q 1148 252 1166 246 Q 1184 240 1189 241 Q 1195 241 1215 250 Q 1236 258 1270 264 L 1335 276 L 1476 298 L 1542 304 L 1705 314 Q 1743 316 1830 314 L 1956 314 Q 1964 314 1968 320 Q 1971 326 1961 341 Q 1951 356 1914 372 L 1888 382 Q 1869 389 1822 382 Q 1775 374 1754 372 L 1678 364 Q 1615 357 1606 357 L 1542 352 L 1476 346 Z" fill="lightgray"></path> 
<path d="M 1560 604 Q 1566 625 1572 638 L 1580 653 Q 1582 660 1581 663 Q 1580 666 1568 677 Q 1557 688 1529 700 Q 1502 712 1476 713 Q 1450 713 1447 700 Q 1444 693 1460 673 Q 1476 652 1476 597 L 1476 346 L 1476 298 L 1476 27 C 1476 -3 1538 2 1538 32 L 1542 304 L 1542 352 L 1552 538 Q 1554 589 1560 604 Z" fill="lightgray"></path> 
<path d="M 1476 27 L 1370 16 Q 1356 15 1337 12 L 1303 8 L 1240 6 Q 1231 6 1230 -1 Q 1228 -6 1236 -14 Q 1244 -22 1257 -28 Q 1270 -34 1291 -39 Q 1313 -44 1319 -43 L 1338 -38 Q 1380 -26 1461 -19 Q 1542 -12 1579 -11 Q 1616 -10 1641 -8 L 1806 -6 Q 1817 -6 1820 1 Q 1823 8 1816 18 Q 1809 28 1777 42 Q 1746 56 1735 56 Q 1724 56 1666 46 L 1622 40 L 1570 36 Q 1543 32 1538 32 L 1476 27 Z" fill="lightgray"></path> 
      <clipPath id="make-me-a-hanzi-clip-0">
      <path d="M 346 523 Q 365 530 386 535 Q 423 547 429 553 Q 438 562 432 570 Q 425 582 394 586 Q 369 590 349 581 L 297 560 Q 221 530 130 513 Q 93 503 122 489 Q 170 468 222 487 Q 258 497 296 508 L 346 523 Z" fill="lightgray"></path>
      </clipPath>
      <path clip-path="url(#make-me-a-hanzi-clip-0)" d="M 123 502 L 183 501 L 364 558 L 422 563 " fill="none" id="make-me-a-hanzi-animation-0" stroke-dasharray="436 872" stroke-linecap="round"></path>

      <clipPath id="make-me-a-hanzi-clip-1">
      <path d="M 290 337 Q 289 249 285 136 Q 284 114 272 105 Q 266 102 205 115 Q 172 128 175 119 Q 176 112 195 96 Q 253 44 267 15 Q 283 -19 298 -21 Q 311 -22 328 12 Q 347 58 348 131 Q 341 255 342 379 L 342 410 Q 343 468 346 523 L 349 581 Q 349 656 370 726 Q 386 756 332 779 Q 298 798 279 792 Q 261 785 277 762 Q 298 735 299 701 Q 300 685 297 560 L 296 508 Q 295 453 292 378 L 290 337 Z" fill="lightgray"></path>
      </clipPath>
      <path clip-path="url(#make-me-a-hanzi-clip-1)" d="M 286 776 L 302 768 L 333 736 L 321 573 L 313 104 L 293 62 L 193 109 L 192 116 L 181 116 " fill="none" id="make-me-a-hanzi-animation-1" stroke-dasharray="998 1996" stroke-linecap="round"></path>

      <clipPath id="make-me-a-hanzi-clip-2">
      <path d="M 292 378 Q 195 318 110 260 Q 77 241 56 233 Q 44 226 42 219 Q 41 210 56 197 Q 75 184 97 176 Q 113 173 122 185 Q 195 264 290 337 L 342 379 Q 393 418 401 430 Q 407 443 396 442 Q 384 442 342 410 L 292 378 Z" fill="lightgray"></path>
      </clipPath>
      <path clip-path="url(#make-me-a-hanzi-clip-2)" d="M 53 217 L 100 214 L 228 315 L 394 434 " fill="none" id="make-me-a-hanzi-animation-2" stroke-dasharray="542 1084" stroke-linecap="round"></path>

      <clipPath id="make-me-a-hanzi-clip-3">
      <path d="M 613 697 Q 644 675 678 648 Q 693 636 710 638 Q 720 639 725 654 Q 728 670 716 700 Q 701 734 603 746 Q 587 749 580 745 Q 576 741 578 727 Q 582 717 613 697 Z" fill="lightgray"></path>
      </clipPath>
      <path clip-path="url(#make-me-a-hanzi-clip-3)" d="M 586 739 L 679 691 L 706 657 " fill="none" id="make-me-a-hanzi-animation-3" stroke-dasharray="276 552" stroke-linecap="round"></path>

      <clipPath id="make-me-a-hanzi-clip-4">
      <path d="M 804 430 Q 829 494 865 517 Q 883 536 867 555 Q 849 570 794 597 Q 775 604 752 596 Q 670 557 541 532 C 512 526 520 490 549 497 Q 756 548 767 540 Q 779 525 746 429 C 736 401 793 402 804 430 Z" fill="lightgray"></path>
      </clipPath>
      <path clip-path="url(#make-me-a-hanzi-clip-4)" d="M 551 528 L 564 517 L 757 569 L 789 565 L 815 535 L 785 458 L 753 439 " fill="none" id="make-me-a-hanzi-animation-4" stroke-dasharray="537 1074" stroke-linecap="round"></path>

      <clipPath id="make-me-a-hanzi-clip-5">
      <path d="M 535 352 Q 541 346 563 351 Q 645 373 821 395 Q 831 396 832 405 Q 832 414 804 430 C 788 440 775 436 746 429 Q 628 399 538 383 C 508 378 507 362 535 352 Z" fill="lightgray"></path>
      </clipPath>
      <path clip-path="url(#make-me-a-hanzi-clip-5)" d="M 543 359 L 561 370 L 743 407 L 797 412 L 822 405 " fill="none" id="make-me-a-hanzi-animation-5" stroke-dasharray="415 830" stroke-linecap="round"></path>

      <clipPath id="make-me-a-hanzi-clip-6">
      <path d="M 541 532 Q 528 544 504 553 Q 485 563 474 557 Q 462 550 469 537 Q 517 479 460 206 Q 456 191 452 176 Q 424 92 358 -24 Q 354 -31 351 -37 Q 350 -47 359 -45 Q 389 -39 456 74 Q 466 95 477 118 Q 517 220 535 352 L 538 383 Q 539 396 540 408 Q 543 480 549 497 C 554 523 554 523 541 532 Z" fill="lightgray"></path>
      </clipPath>
      <path clip-path="url(#make-me-a-hanzi-clip-6)" d="M 479 545 L 511 518 L 517 497 L 512 362 L 494 255 L 469 157 L 434 73 L 392 3 L 360 -36 " fill="none" id="make-me-a-hanzi-animation-6" stroke-dasharray="760 1520" stroke-linecap="round"></path>

      <clipPath id="make-me-a-hanzi-clip-7">
      <path d="M 1476 346 L 1268 319 Q 1231 314 1208 312 L 1170 310 L 1115 305 Q 1102 304 1100 298 Q 1096 288 1122 270 Q 1148 252 1166 246 Q 1184 240 1189 241 Q 1195 241 1215 250 Q 1236 258 1270 264 L 1335 276 L 1476 298 L 1542 304 L 1705 314 Q 1743 316 1830 314 L 1956 314 Q 1964 314 1968 320 Q 1971 326 1961 341 Q 1951 356 1914 372 L 1888 382 Q 1869 389 1822 382 Q 1775 374 1754 372 L 1678 364 Q 1615 357 1606 357 L 1542 352 L 1476 346 Z" fill="lightgray"></path>
      </clipPath>
      <path clip-path="url(#make-me-a-hanzi-clip-7)" d="M 1108 295 L 1183 276 L 1472 322 L 1850 350 L 1911 343 L 1959 324 " fill="none" id="make-me-a-hanzi-animation-7" stroke-dasharray="990 1980" stroke-linecap="round"></path>

      <clipPath id="make-me-a-hanzi-clip-8">
      <path d="M 1560 604 Q 1566 625 1572 638 L 1580 653 Q 1582 660 1581 663 Q 1580 666 1568 677 Q 1557 688 1529 700 Q 1502 712 1476 713 Q 1450 713 1447 700 Q 1444 693 1460 673 Q 1476 652 1476 597 L 1476 346 L 1476 298 L 1476 27 C 1476 -3 1538 2 1538 32 L 1542 304 L 1542 352 L 1552 538 Q 1554 589 1560 604 Z" fill="lightgray"></path>
      </clipPath>
      <path clip-path="url(#make-me-a-hanzi-clip-8)" d="M 1460 697 L 1499 674 L 1522 648 L 1509 385 L 1507 61 L 1483 35 " fill="none" id="make-me-a-hanzi-animation-8" stroke-dasharray="831 1662" stroke-linecap="round"></path>

      <clipPath id="make-me-a-hanzi-clip-9">
      <path d="M 1476 27 L 1370 16 Q 1356 15 1337 12 L 1303 8 L 1240 6 Q 1231 6 1230 -1 Q 1228 -6 1236 -14 Q 1244 -22 1257 -28 Q 1270 -34 1291 -39 Q 1313 -44 1319 -43 L 1338 -38 Q 1380 -26 1461 -19 Q 1542 -12 1579 -11 Q 1616 -10 1641 -8 L 1806 -6 Q 1817 -6 1820 1 Q 1823 8 1816 18 Q 1809 28 1777 42 Q 1746 56 1735 56 Q 1724 56 1666 46 L 1622 40 L 1570 36 Q 1543 32 1538 32 L 1476 27 Z" fill="lightgray"></path>
      </clipPath>
      <path clip-path="url(#make-me-a-hanzi-clip-9)" d="M 1240 -4 L 1317 -17 L 1440 2 L 1716 24 L 1758 22 L 1809 6 " fill="none" id="make-me-a-hanzi-animation-9" stroke-dasharray="703 1406" stroke-linecap="round"></path>

</g>
</svg>
