<svg version="1.1" viewBox="0 0 2048 1024" xmlns="http://www.w3.org/2000/svg">
  <g stroke="lightgray" stroke-dasharray="1,1" stroke-width="1" transform="scale(4, 4)">
    <line x1="0" y1="0" x2="256" y2="256"></line>
    <line x1="256" y1="0" x2="0" y2="256"></line>
    <line x1="128" y1="0" x2="128" y2="256"></line>
    <line x1="0" y1="128" x2="256" y2="128"></line>
    <line x1="256" y1="0" x2="512" y2="256"></line>
    <line x1="512" y1="0" x2="256" y2="256"></line>
    <line x1="384" y1="0" x2="384" y2="256"></line>
    <line x1="256" y1="128" x2="512" y2="128"></line>
  </g>
<g transform="scale(1, -1) translate(0, -850)">
   <style type="text/css">
    @keyframes keyframes0 {
      from {
       stroke: black;
       stroke-dashoffset: 572;
       stroke-width: 128;
       }
       65% {
       animation-timing-function: step-end;
       stroke: black;
       stroke-dashoffset: 0;
       stroke-width: 128;
       }
       to {
       stroke: black;
       stroke-width: 1024;
       }
       }
       #make-me-a-hanzi-animation-0 {
         animation: keyframes0 0.715495s both;
         animation-delay: 0.000000s;
         animation-timing-function: linear;
       }
    @keyframes keyframes1 {
      from {
       stroke: black;
       stroke-dashoffset: 1137;
       stroke-width: 128;
       }
       79% {
       animation-timing-function: step-end;
       stroke: black;
       stroke-dashoffset: 0;
       stroke-width: 128;
       }
       to {
       stroke: black;
       stroke-width: 1024;
       }
       }
       #make-me-a-hanzi-animation-1 {
         animation: keyframes1 1.175293s both;
         animation-delay: 0.715495s;
         animation-timing-function: linear;
       }
    @keyframes keyframes2 {
      from {
       stroke: black;
       stroke-dashoffset: 686;
       stroke-width: 128;
       }
       69% {
       animation-timing-function: step-end;
       stroke: black;
       stroke-dashoffset: 0;
       stroke-width: 128;
       }
       to {
       stroke: black;
       stroke-width: 1024;
       }
       }
       #make-me-a-hanzi-animation-2 {
         animation: keyframes2 0.808268s both;
         animation-delay: 1.890788s;
         animation-timing-function: linear;
       }
    @keyframes keyframes3 {
      from {
       stroke: black;
       stroke-dashoffset: 496;
       stroke-width: 128;
       }
       62% {
       animation-timing-function: step-end;
       stroke: black;
       stroke-dashoffset: 0;
       stroke-width: 128;
       }
       to {
       stroke: black;
       stroke-width: 1024;
       }
       }
       #make-me-a-hanzi-animation-3 {
         animation: keyframes3 0.653646s both;
         animation-delay: 2.699056s;
         animation-timing-function: linear;
       }
    @keyframes keyframes4 {
      from {
       stroke: black;
       stroke-dashoffset: 680;
       stroke-width: 128;
       }
       69% {
       animation-timing-function: step-end;
       stroke: black;
       stroke-dashoffset: 0;
       stroke-width: 128;
       }
       to {
       stroke: black;
       stroke-width: 1024;
       }
       }
       #make-me-a-hanzi-animation-4 {
         animation: keyframes4 0.803385s both;
         animation-delay: 3.352702s;
         animation-timing-function: linear;
       }
    @keyframes keyframes5 {
      from {
       stroke: black;
       stroke-dashoffset: 489;
       stroke-width: 128;
       }
       61% {
       animation-timing-function: step-end;
       stroke: black;
       stroke-dashoffset: 0;
       stroke-width: 128;
       }
       to {
       stroke: black;
       stroke-width: 1024;
       }
       }
       #make-me-a-hanzi-animation-5 {
         animation: keyframes5 0.647949s both;
         animation-delay: 4.156087s;
         animation-timing-function: linear;
       }
    @keyframes keyframes6 {
      from {
       stroke: black;
       stroke-dashoffset: 1158;
       stroke-width: 128;
       }
       79% {
       animation-timing-function: step-end;
       stroke: black;
       stroke-dashoffset: 0;
       stroke-width: 128;
       }
       to {
       stroke: black;
       stroke-width: 1024;
       }
       }
       #make-me-a-hanzi-animation-6 {
         animation: keyframes6 1.192383s both;
         animation-delay: 4.804036s;
         animation-timing-function: linear;
       }
    @keyframes keyframes7 {
      from {
       stroke: black;
       stroke-dashoffset: 660;
       stroke-width: 128;
       }
       68% {
       animation-timing-function: step-end;
       stroke: black;
       stroke-dashoffset: 0;
       stroke-width: 128;
       }
       to {
       stroke: black;
       stroke-width: 1024;
       }
       }
       #make-me-a-hanzi-animation-7 {
         animation: keyframes7 0.787109s both;
         animation-delay: 5.996419s;
         animation-timing-function: linear;
       }
    @keyframes keyframes8 {
      from {
       stroke: black;
       stroke-dashoffset: 398;
       stroke-width: 128;
       }
       56% {
       animation-timing-function: step-end;
       stroke: black;
       stroke-dashoffset: 0;
       stroke-width: 128;
       }
       to {
       stroke: black;
       stroke-width: 1024;
       }
       }
       #make-me-a-hanzi-animation-8 {
         animation: keyframes8 0.573893s both;
         animation-delay: 6.783528s;
         animation-timing-function: linear;
       }
    @keyframes keyframes9 {
      from {
       stroke: black;
       stroke-dashoffset: 907;
       stroke-width: 128;
       }
       75% {
       animation-timing-function: step-end;
       stroke: black;
       stroke-dashoffset: 0;
       stroke-width: 128;
       }
       to {
       stroke: black;
       stroke-width: 1024;
       }
       }
       #make-me-a-hanzi-animation-9 {
         animation: keyframes9 0.988118s both;
         animation-delay: 7.357421s;
         animation-timing-function: linear;
       }
    @keyframes keyframes10 {
      from {
       stroke: black;
       stroke-dashoffset: 463;
       stroke-width: 128;
       }
       60% {
       animation-timing-function: step-end;
       stroke: black;
       stroke-dashoffset: 0;
       stroke-width: 128;
       }
       to {
       stroke: black;
       stroke-width: 1024;
       }
       }
       #make-me-a-hanzi-animation-10 {
         animation: keyframes10 0.626790s both;
         animation-delay: 8.345539s;
         animation-timing-function: linear;
       }
    @keyframes keyframes11 {
      from {
       stroke: black;
       stroke-dashoffset: 470;
       stroke-width: 128;
       }
       60% {
       animation-timing-function: step-end;
       stroke: black;
       stroke-dashoffset: 0;
       stroke-width: 128;
       }
       to {
       stroke: black;
       stroke-width: 1024;
       }
       }
       #make-me-a-hanzi-animation-11 {
         animation: keyframes11 0.632487s both;
         animation-delay: 8.972329s;
         animation-timing-function: linear;
       }
    @keyframes keyframes12 {
      from {
       stroke: black;
       stroke-dashoffset: 442;
       stroke-width: 128;
       }
       59% {
       animation-timing-function: step-end;
       stroke: black;
       stroke-dashoffset: 0;
       stroke-width: 128;
       }
       to {
       stroke: black;
       stroke-width: 1024;
       }
       }
       #make-me-a-hanzi-animation-12 {
         animation: keyframes12 0.609701s both;
         animation-delay: 9.604816s;
         animation-timing-function: linear;
       }
    @keyframes keyframes13 {
      from {
       stroke: black;
       stroke-dashoffset: 468;
       stroke-width: 128;
       }
       60% {
       animation-timing-function: step-end;
       stroke: black;
       stroke-dashoffset: 0;
       stroke-width: 128;
       }
       to {
       stroke: black;
       stroke-width: 1024;
       }
       }
       #make-me-a-hanzi-animation-13 {
         animation: keyframes13 0.630859s both;
         animation-delay: 10.214517s;
         animation-timing-function: linear;
       }
    @keyframes keyframes14 {
      from {
       stroke: black;
       stroke-dashoffset: 662;
       stroke-width: 128;
       }
       68% {
       animation-timing-function: step-end;
       stroke: black;
       stroke-dashoffset: 0;
       stroke-width: 128;
       }
       to {
       stroke: black;
       stroke-width: 1024;
       }
       }
       #make-me-a-hanzi-animation-14 {
         animation: keyframes14 0.788737s both;
         animation-delay: 10.845376s;
         animation-timing-function: linear;
       }
    @keyframes keyframes15 {
      from {
       stroke: black;
       stroke-dashoffset: 542;
       stroke-width: 128;
       }
       64% {
       animation-timing-function: step-end;
       stroke: black;
       stroke-dashoffset: 0;
       stroke-width: 128;
       }
       to {
       stroke: black;
       stroke-width: 1024;
       }
       }
       #make-me-a-hanzi-animation-15 {
         animation: keyframes15 0.691081s both;
         animation-delay: 11.634113s;
         animation-timing-function: linear;
       }
    @keyframes keyframes16 {
      from {
       stroke: black;
       stroke-dashoffset: 1185;
       stroke-width: 128;
       }
       79% {
       animation-timing-function: step-end;
       stroke: black;
       stroke-dashoffset: 0;
       stroke-width: 128;
       }
       to {
       stroke: black;
       stroke-width: 1024;
       }
       }
       #make-me-a-hanzi-animation-16 {
         animation: keyframes16 1.214355s both;
         animation-delay: 12.325194s;
         animation-timing-function: linear;
       }
</style>
<path d="M 318.5 495.0 L 288.5 489.0 L 165.5 473.0 L 156.5 470.0 Q 146.5 463.0 159.5 453.0 Q 177.5 437.0 225.5 438.0 Q 242.5 439.0 249.5 440.0 L 319.5 451.0 L 364.5 457.0 L 460.5 475.0 Q 472.5 477.0 477.5 482.0 Q 493.5 494.0 478.5 504.0 Q 463.5 513.0 450.5 516.0 L 431.5 521.0 Q 424.5 522.0 416.5 520.0 L 366.5 507.0 L 318.5 495.0 Z" fill="lightgray"></path> 
<path d="M 366.5 507.0 L 373.5 597.0 Q 379.5 664.0 392.5 677.0 L 400.5 689.0 Q 405.5 699.0 403.5 704.0 L 399.5 713.0 Q 398.5 717.0 393.5 724.0 Q 389.5 730.0 372.5 741.0 Q 355.5 751.0 340.5 757.0 Q 325.5 762.0 310.5 761.0 Q 295.5 760.0 295.5 747.0 Q 295.5 741.0 301.5 726.0 Q 307.5 713.0 309.5 696.0 Q 320.5 658.0 320.5 591.0 L 318.5 495.0 L 319.5 451.0 L 313.5 307.0 L 311.5 251.0 L 299.5 94.0 Q 297.5 59.0 285.5 47.0 Q 282.5 44.0 269.5 44.0 Q 262.5 42.0 249.5 47.0 L 207.5 59.0 Q 197.5 60.0 196.5 57.0 Q 195.5 53.0 202.5 47.0 L 235.5 15.0 Q 271.5 -21.0 278.5 -33.0 Q 285.5 -46.0 290.5 -51.0 Q 306.5 -74.0 337.5 -29.0 Q 355.5 -4.0 357.5 15.0 Q 359.5 34.0 359.5 55.0 L 357.5 131.0 L 360.5 290.0 L 360.5 332.0 L 364.5 457.0 L 366.5 507.0 Z" fill="lightgray"></path> 
<path d="M 313.5 307.0 L 154.5 217.0 L 108.5 197.0 L 89.5 194.0 Q 82.5 192.0 79.5 189.0 Q 71.5 176.0 91.5 161.0 Q 111.5 142.0 128.5 134.0 Q 145.5 125.0 152.5 127.0 Q 159.5 128.0 172.5 137.0 L 218.5 179.0 L 244.5 201.0 L 311.5 251.0 L 360.5 290.0 L 453.5 364.0 Q 466.5 376.0 461.5 382.0 Q 456.5 387.0 446.5 381.0 L 360.5 332.0 L 313.5 307.0 Z" fill="lightgray"></path> 
<path d="M 583.5 631.0 L 566.5 635.0 Q 558.5 638.0 540.5 638.0 L 529.5 635.0 Q 527.5 629.0 528.5 626.0 L 537.5 615.0 Q 546.5 607.0 556.5 588.0 Q 560.5 574.0 563.5 555.0 L 580.5 451.0 Q 584.5 423.0 584.5 419.0 Q 585.5 414.0 593.5 406.0 Q 599.5 399.0 604.5 399.0 Q 618.5 398.0 620.5 415.0 L 622.5 431.0 L 620.5 468.0 L 603.5 593.0 C 599.5 623.0 598.5 627.0 583.5 631.0 Z" fill="lightgray"></path> 
<path d="M 741.5 659.0 L 583.5 631.0 C 553.5 626.0 574.5 584.0 603.5 593.0 L 660.5 610.0 Q 693.5 620.0 739.5 626.0 L 791.5 631.0 Q 813.5 629.0 813.5 613.0 L 815.5 607.0 L 790.5 495.0 C 783.5 466.0 827.5 458.0 840.5 485.0 L 866.5 539.0 Q 866.5 545.0 878.5 567.0 Q 885.5 577.0 899.5 595.0 Q 910.5 604.0 911.5 609.0 Q 917.5 617.0 905.5 633.0 Q 893.5 649.0 873.5 661.0 Q 853.5 672.0 849.5 676.0 Q 845.5 679.0 827.5 679.0 L 780.5 667.0 L 741.5 659.0 Z" fill="lightgray"></path> 
<path d="M 622.5 431.0 L 664.5 433.0 L 706.5 439.0 L 847.5 454.0 Q 858.5 455.0 860.5 457.0 Q 862.5 459.0 855.5 470.0 L 840.5 485.0 C 822.5 503.0 819.5 502.0 790.5 495.0 L 774.5 491.0 L 711.5 480.0 Q 670.5 473.0 667.5 473.0 L 643.5 471.0 Q 626.5 470.0 620.5 468.0 C 591.5 462.0 592.5 430.0 622.5 431.0 Z" fill="lightgray"></path> 
<path d="M 669.5 288.0 L 806.5 307.0 Q 848.5 313.0 861.5 292.0 Q 867.5 281.0 860.5 238.0 L 853.5 197.0 L 842.5 146.0 Q 815.5 44.0 799.5 25.0 Q 792.5 13.0 783.5 9.0 Q 775.5 4.0 753.5 8.0 Q 732.5 11.0 721.5 17.0 L 696.5 26.0 Q 690.5 28.0 685.5 23.0 Q 682.5 19.0 687.5 14.0 L 705.5 -2.0 L 730.5 -34.0 L 749.5 -64.0 Q 751.5 -66.0 755.5 -74.0 Q 760.5 -83.0 767.5 -83.0 Q 775.5 -86.0 795.5 -74.0 Q 815.5 -62.0 835.5 -41.0 Q 854.5 -16.0 869.5 24.0 Q 885.5 63.0 893.5 99.0 L 921.5 238.0 Q 923.5 256.0 927.5 269.0 Q 931.5 282.0 946.5 297.0 Q 952.5 308.0 949.5 311.0 L 945.5 321.0 Q 942.5 327.0 926.5 337.0 Q 910.5 347.0 891.5 353.0 L 868.5 360.0 Q 864.5 360.0 845.5 353.0 L 827.5 348.0 Q 813.5 343.0 797.5 340.0 L 700.5 321.0 L 626.5 309.0 Q 620.5 309.0 576.5 303.0 Q 563.5 303.0 537.5 299.0 L 517.5 296.0 L 492.5 295.0 Q 485.5 294.0 479.5 291.0 Q 477.5 289.0 482.5 283.0 Q 493.5 268.0 509.5 261.0 Q 525.5 254.0 531.5 254.0 Q 538.5 253.0 560.5 260.0 Q 583.5 266.0 620.5 274.0 L 669.5 288.0 Z" fill="lightgray"></path> 
<path d="M 620.5 274.0 L 618.5 255.0 Q 618.5 239.0 614.5 227.0 Q 604.5 185.0 574.5 138.0 Q 545.5 90.0 521.5 63.0 L 473.5 13.0 L 427.5 -25.0 Q 419.5 -31.0 420.5 -37.0 Q 422.5 -44.0 435.5 -37.0 L 463.5 -24.0 Q 497.5 -9.0 524.5 9.0 Q 554.5 33.0 582.5 61.0 Q 623.5 107.0 666.5 189.0 L 677.5 215.0 Q 679.5 224.0 689.5 231.0 Q 700.5 237.0 702.5 242.0 Q 712.5 255.0 687.5 277.0 Q 682.5 277.0 680.5 280.0 L 669.5 288.0 C 645.5 306.0 623.5 304.0 620.5 274.0 Z" fill="lightgray"></path> 
<path d="M 1485.0 759.5 L 1548.0 714.5 Q 1563.0 704.5 1579.0 705.5 Q 1589.0 706.5 1593.0 721.5 Q 1596.0 737.5 1583.0 765.5 Q 1570.0 793.5 1473.0 806.5 Q 1457.0 807.5 1452.0 804.5 Q 1448.0 800.5 1450.0 787.5 Q 1456.0 777.5 1485.0 759.5 Z" fill="lightgray"></path> 
<path d="M 1611.0 638.5 Q 1632.0 642.5 1846.0 658.5 Q 1859.0 655.5 1870.0 670.5 Q 1873.0 683.5 1846.0 698.5 Q 1807.0 720.5 1777.0 715.5 Q 1537.0 667.5 1322.0 653.5 Q 1271.0 652.5 1219.0 646.5 Q 1185.0 645.5 1210.0 622.5 Q 1247.0 589.5 1281.0 595.5 Q 1341.0 605.5 1412.0 614.5 L 1444.0 617.5 Q 1505.0 627.5 1574.0 634.5 L 1611.0 638.5 Z" fill="lightgray"></path> 
<path d="M 1412.0 614.5 Q 1412.0 613.5 1415.0 609.5 Q 1433.0 555.5 1412.0 491.5 Q 1397.0 449.5 1424.0 416.5 Q 1433.0 406.5 1441.0 416.5 Q 1459.0 437.5 1466.0 521.5 Q 1470.0 570.5 1474.0 582.5 Q 1475.0 595.5 1463.0 604.5 Q 1454.0 613.5 1444.0 617.5 C 1417.0 630.5 1398.0 639.5 1412.0 614.5 Z" fill="lightgray"></path> 
<path d="M 1574.0 634.5 Q 1589.0 597.5 1577.0 516.5 Q 1565.0 465.5 1591.0 426.5 Q 1600.0 414.5 1610.0 425.5 Q 1619.0 437.5 1625.0 483.5 Q 1632.0 583.5 1634.0 591.5 Q 1638.0 609.5 1634.0 616.5 Q 1633.0 628.5 1611.0 638.5 C 1584.0 651.5 1564.0 661.5 1574.0 634.5 Z" fill="lightgray"></path> 
<path d="M 1330.0 529.5 Q 1287.0 480.5 1234.0 439.5 Q 1206.0 415.5 1209.0 377.5 Q 1210.0 358.5 1235.0 362.5 Q 1298.0 380.5 1335.0 466.5 Q 1351.0 494.5 1353.0 521.5 Q 1352.0 531.5 1346.0 533.5 Q 1337.0 534.5 1330.0 529.5 Z" fill="lightgray"></path> 
<path d="M 1703.0 528.5 Q 1760.0 485.5 1829.0 423.5 Q 1845.0 404.5 1862.0 402.5 Q 1871.0 401.5 1877.0 412.5 Q 1887.0 425.5 1871.0 468.5 Q 1853.0 525.5 1702.0 558.5 Q 1692.0 562.5 1691.0 550.5 Q 1692.0 537.5 1703.0 528.5 Z" fill="lightgray"></path> 
<path d="M 1668.0 281.5 Q 1690.0 323.5 1717.0 333.5 Q 1735.0 349.5 1722.0 367.5 Q 1656.0 425.5 1601.0 402.5 Q 1502.0 369.5 1369.0 361.5 Q 1353.0 360.5 1355.0 350.5 Q 1356.0 343.5 1374.0 336.5 Q 1398.0 326.5 1431.0 335.5 Q 1519.0 348.5 1603.0 362.5 Q 1625.0 366.5 1633.0 357.5 Q 1639.0 348.5 1618.0 285.5 C 1609.0 256.5 1653.0 255.5 1668.0 281.5 Z" fill="lightgray"></path> 
<path d="M 1400.0 213.5 Q 1488.0 232.5 1680.0 249.5 Q 1690.0 250.5 1691.0 258.5 Q 1691.0 265.5 1668.0 281.5 C 1652.0 292.5 1647.0 291.5 1618.0 285.5 Q 1494.0 258.5 1394.0 244.5 C 1364.0 240.5 1371.0 207.5 1400.0 213.5 Z" fill="lightgray"></path> 
<path d="M 1338.0 70.5 Q 1383.0 106.5 1616.0 130.5 Q 1656.0 136.5 1671.0 133.5 Q 1684.0 130.5 1687.0 117.5 Q 1691.0 102.5 1625.0 -20.5 Q 1615.0 -41.5 1591.0 -33.5 Q 1563.0 -24.5 1526.0 -14.5 Q 1498.0 -4.5 1516.0 -32.5 Q 1568.0 -89.5 1578.0 -116.5 Q 1584.0 -131.5 1598.0 -130.5 Q 1611.0 -131.5 1628.0 -120.5 Q 1667.0 -90.5 1695.0 -31.5 Q 1731.0 55.5 1767.0 82.5 Q 1789.0 101.5 1777.0 116.5 Q 1755.0 146.5 1721.0 175.5 Q 1705.0 191.5 1630.0 174.5 Q 1533.0 167.5 1411.0 137.5 Q 1363.0 131.5 1365.0 141.5 Q 1364.0 144.5 1365.0 147.5 Q 1386.0 204.5 1400.0 213.5 C 1410.0 227.5 1410.0 227.5 1394.0 244.5 Q 1381.0 262.5 1359.0 277.5 Q 1349.0 287.5 1336.0 281.5 Q 1326.0 277.5 1333.0 256.5 Q 1340.0 228.5 1325.0 190.5 Q 1303.0 148.5 1285.0 134.5 Q 1272.0 118.5 1280.0 99.5 Q 1287.0 71.5 1301.0 61.5 Q 1311.0 54.5 1338.0 70.5 Z" fill="lightgray"></path> 
      <clipPath id="make-me-a-hanzi-clip-0">
      <path d="M 318.5 495.0 L 288.5 489.0 L 165.5 473.0 L 156.5 470.0 Q 146.5 463.0 159.5 453.0 Q 177.5 437.0 225.5 438.0 Q 242.5 439.0 249.5 440.0 L 319.5 451.0 L 364.5 457.0 L 460.5 475.0 Q 472.5 477.0 477.5 482.0 Q 493.5 494.0 478.5 504.0 Q 463.5 513.0 450.5 516.0 L 431.5 521.0 Q 424.5 522.0 416.5 520.0 L 366.5 507.0 L 318.5 495.0 Z" fill="lightgray"></path>
      </clipPath>
      <path clip-path="url(#make-me-a-hanzi-clip-0)" d="M 161.5 462.0 L 231.5 459.0 L 416.5 494.0 L 474.5 493.0 " fill="none" id="make-me-a-hanzi-animation-0" stroke-dasharray="444 888" stroke-linecap="round"></path>

      <clipPath id="make-me-a-hanzi-clip-1">
      <path d="M 366.5 507.0 L 373.5 597.0 Q 379.5 664.0 392.5 677.0 L 400.5 689.0 Q 405.5 699.0 403.5 704.0 L 399.5 713.0 Q 398.5 717.0 393.5 724.0 Q 389.5 730.0 372.5 741.0 Q 355.5 751.0 340.5 757.0 Q 325.5 762.0 310.5 761.0 Q 295.5 760.0 295.5 747.0 Q 295.5 741.0 301.5 726.0 Q 307.5 713.0 309.5 696.0 Q 320.5 658.0 320.5 591.0 L 318.5 495.0 L 319.5 451.0 L 313.5 307.0 L 311.5 251.0 L 299.5 94.0 Q 297.5 59.0 285.5 47.0 Q 282.5 44.0 269.5 44.0 Q 262.5 42.0 249.5 47.0 L 207.5 59.0 Q 197.5 60.0 196.5 57.0 Q 195.5 53.0 202.5 47.0 L 235.5 15.0 Q 271.5 -21.0 278.5 -33.0 Q 285.5 -46.0 290.5 -51.0 Q 306.5 -74.0 337.5 -29.0 Q 355.5 -4.0 357.5 15.0 Q 359.5 34.0 359.5 55.0 L 357.5 131.0 L 360.5 290.0 L 360.5 332.0 L 364.5 457.0 L 366.5 507.0 Z" fill="lightgray"></path>
      </clipPath>
      <path clip-path="url(#make-me-a-hanzi-clip-1)" d="M 308.5 748.0 L 327.5 734.0 L 354.5 700.0 L 343.5 542.0 L 327.5 62.0 L 318.5 25.0 L 306.5 6.0 L 256.5 22.0 L 202.5 54.0 " fill="none" id="make-me-a-hanzi-animation-1" stroke-dasharray="1009 2018" stroke-linecap="round"></path>

      <clipPath id="make-me-a-hanzi-clip-2">
      <path d="M 313.5 307.0 L 154.5 217.0 L 108.5 197.0 L 89.5 194.0 Q 82.5 192.0 79.5 189.0 Q 71.5 176.0 91.5 161.0 Q 111.5 142.0 128.5 134.0 Q 145.5 125.0 152.5 127.0 Q 159.5 128.0 172.5 137.0 L 218.5 179.0 L 244.5 201.0 L 311.5 251.0 L 360.5 290.0 L 453.5 364.0 Q 466.5 376.0 461.5 382.0 Q 456.5 387.0 446.5 381.0 L 360.5 332.0 L 313.5 307.0 Z" fill="lightgray"></path>
      </clipPath>
      <path clip-path="url(#make-me-a-hanzi-clip-2)" d="M 89.5 181.0 L 148.5 170.0 L 454.5 378.0 " fill="none" id="make-me-a-hanzi-animation-2" stroke-dasharray="558 1116" stroke-linecap="round"></path>

      <clipPath id="make-me-a-hanzi-clip-3">
      <path d="M 583.5 631.0 L 566.5 635.0 Q 558.5 638.0 540.5 638.0 L 529.5 635.0 Q 527.5 629.0 528.5 626.0 L 537.5 615.0 Q 546.5 607.0 556.5 588.0 Q 560.5 574.0 563.5 555.0 L 580.5 451.0 Q 584.5 423.0 584.5 419.0 Q 585.5 414.0 593.5 406.0 Q 599.5 399.0 604.5 399.0 Q 618.5 398.0 620.5 415.0 L 622.5 431.0 L 620.5 468.0 L 603.5 593.0 C 599.5 623.0 598.5 627.0 583.5 631.0 Z" fill="lightgray"></path>
      </clipPath>
      <path clip-path="url(#make-me-a-hanzi-clip-3)" d="M 536.5 630.0 L 565.5 614.0 L 580.5 589.0 L 605.5 413.0 " fill="none" id="make-me-a-hanzi-animation-3" stroke-dasharray="368 736" stroke-linecap="round"></path>

      <clipPath id="make-me-a-hanzi-clip-4">
      <path d="M 741.5 659.0 L 583.5 631.0 C 553.5 626.0 574.5 584.0 603.5 593.0 L 660.5 610.0 Q 693.5 620.0 739.5 626.0 L 791.5 631.0 Q 813.5 629.0 813.5 613.0 L 815.5 607.0 L 790.5 495.0 C 783.5 466.0 827.5 458.0 840.5 485.0 L 866.5 539.0 Q 866.5 545.0 878.5 567.0 Q 885.5 577.0 899.5 595.0 Q 910.5 604.0 911.5 609.0 Q 917.5 617.0 905.5 633.0 Q 893.5 649.0 873.5 661.0 Q 853.5 672.0 849.5 676.0 Q 845.5 679.0 827.5 679.0 L 780.5 667.0 L 741.5 659.0 Z" fill="lightgray"></path>
      </clipPath>
      <path clip-path="url(#make-me-a-hanzi-clip-4)" d="M 591.5 627.0 L 613.5 616.0 L 790.5 651.0 L 834.5 645.0 L 859.5 616.0 L 825.5 517.0 L 798.5 501.0 " fill="none" id="make-me-a-hanzi-animation-4" stroke-dasharray="552 1104" stroke-linecap="round"></path>

      <clipPath id="make-me-a-hanzi-clip-5">
      <path d="M 622.5 431.0 L 664.5 433.0 L 706.5 439.0 L 847.5 454.0 Q 858.5 455.0 860.5 457.0 Q 862.5 459.0 855.5 470.0 L 840.5 485.0 C 822.5 503.0 819.5 502.0 790.5 495.0 L 774.5 491.0 L 711.5 480.0 Q 670.5 473.0 667.5 473.0 L 643.5 471.0 Q 626.5 470.0 620.5 468.0 C 591.5 462.0 592.5 430.0 622.5 431.0 Z" fill="lightgray"></path>
      </clipPath>
      <path clip-path="url(#make-me-a-hanzi-clip-5)" d="M 626.5 462.0 L 640.5 451.0 L 790.5 471.0 L 831.5 470.0 L 852.5 461.0 " fill="none" id="make-me-a-hanzi-animation-5" stroke-dasharray="361 722" stroke-linecap="round"></path>

      <clipPath id="make-me-a-hanzi-clip-6">
      <path d="M 669.5 288.0 L 806.5 307.0 Q 848.5 313.0 861.5 292.0 Q 867.5 281.0 860.5 238.0 L 853.5 197.0 L 842.5 146.0 Q 815.5 44.0 799.5 25.0 Q 792.5 13.0 783.5 9.0 Q 775.5 4.0 753.5 8.0 Q 732.5 11.0 721.5 17.0 L 696.5 26.0 Q 690.5 28.0 685.5 23.0 Q 682.5 19.0 687.5 14.0 L 705.5 -2.0 L 730.5 -34.0 L 749.5 -64.0 Q 751.5 -66.0 755.5 -74.0 Q 760.5 -83.0 767.5 -83.0 Q 775.5 -86.0 795.5 -74.0 Q 815.5 -62.0 835.5 -41.0 Q 854.5 -16.0 869.5 24.0 Q 885.5 63.0 893.5 99.0 L 921.5 238.0 Q 923.5 256.0 927.5 269.0 Q 931.5 282.0 946.5 297.0 Q 952.5 308.0 949.5 311.0 L 945.5 321.0 Q 942.5 327.0 926.5 337.0 Q 910.5 347.0 891.5 353.0 L 868.5 360.0 Q 864.5 360.0 845.5 353.0 L 827.5 348.0 Q 813.5 343.0 797.5 340.0 L 700.5 321.0 L 626.5 309.0 Q 620.5 309.0 576.5 303.0 Q 563.5 303.0 537.5 299.0 L 517.5 296.0 L 492.5 295.0 Q 485.5 294.0 479.5 291.0 Q 477.5 289.0 482.5 283.0 Q 493.5 268.0 509.5 261.0 Q 525.5 254.0 531.5 254.0 Q 538.5 253.0 560.5 260.0 Q 583.5 266.0 620.5 274.0 L 669.5 288.0 Z" fill="lightgray"></path>
      </clipPath>
      <path clip-path="url(#make-me-a-hanzi-clip-6)" d="M 487.5 289.0 L 531.5 276.0 L 847.5 329.0 L 876.5 324.0 L 900.5 305.0 L 862.5 99.0 L 837.5 28.0 L 817.5 -7.0 L 779.5 -35.0 L 692.5 20.0 " fill="none" id="make-me-a-hanzi-animation-6" stroke-dasharray="1030 2060" stroke-linecap="round"></path>

      <clipPath id="make-me-a-hanzi-clip-7">
      <path d="M 620.5 274.0 L 618.5 255.0 Q 618.5 239.0 614.5 227.0 Q 604.5 185.0 574.5 138.0 Q 545.5 90.0 521.5 63.0 L 473.5 13.0 L 427.5 -25.0 Q 419.5 -31.0 420.5 -37.0 Q 422.5 -44.0 435.5 -37.0 L 463.5 -24.0 Q 497.5 -9.0 524.5 9.0 Q 554.5 33.0 582.5 61.0 Q 623.5 107.0 666.5 189.0 L 677.5 215.0 Q 679.5 224.0 689.5 231.0 Q 700.5 237.0 702.5 242.0 Q 712.5 255.0 687.5 277.0 Q 682.5 277.0 680.5 280.0 L 669.5 288.0 C 645.5 306.0 623.5 304.0 620.5 274.0 Z" fill="lightgray"></path>
      </clipPath>
      <path clip-path="url(#make-me-a-hanzi-clip-7)" d="M 688.5 251.0 L 673.5 253.0 L 652.5 245.0 L 621.5 164.0 L 550.5 61.0 L 488.5 5.0 L 428.5 -33.0 " fill="none" id="make-me-a-hanzi-animation-7" stroke-dasharray="532 1064" stroke-linecap="round"></path>

      <clipPath id="make-me-a-hanzi-clip-8">
      <path d="M 1485.0 759.5 L 1548.0 714.5 Q 1563.0 704.5 1579.0 705.5 Q 1589.0 706.5 1593.0 721.5 Q 1596.0 737.5 1583.0 765.5 Q 1570.0 793.5 1473.0 806.5 Q 1457.0 807.5 1452.0 804.5 Q 1448.0 800.5 1450.0 787.5 Q 1456.0 777.5 1485.0 759.5 Z" fill="lightgray"></path>
      </clipPath>
      <path clip-path="url(#make-me-a-hanzi-clip-8)" d="M 1458.0 798.5 L 1543.0 758.5 L 1575.0 722.5 " fill="none" id="make-me-a-hanzi-animation-8" stroke-dasharray="270 540" stroke-linecap="round"></path>

      <clipPath id="make-me-a-hanzi-clip-9">
      <path d="M 1611.0 638.5 Q 1632.0 642.5 1846.0 658.5 Q 1859.0 655.5 1870.0 670.5 Q 1873.0 683.5 1846.0 698.5 Q 1807.0 720.5 1777.0 715.5 Q 1537.0 667.5 1322.0 653.5 Q 1271.0 652.5 1219.0 646.5 Q 1185.0 645.5 1210.0 622.5 Q 1247.0 589.5 1281.0 595.5 Q 1341.0 605.5 1412.0 614.5 L 1444.0 617.5 Q 1505.0 627.5 1574.0 634.5 L 1611.0 638.5 Z" fill="lightgray"></path>
      </clipPath>
      <path clip-path="url(#make-me-a-hanzi-clip-9)" d="M 1212.0 635.5 L 1255.0 623.5 L 1283.0 623.5 L 1785.0 685.5 L 1857.0 673.5 " fill="none" id="make-me-a-hanzi-animation-9" stroke-dasharray="779 1558" stroke-linecap="round"></path>

      <clipPath id="make-me-a-hanzi-clip-10">
      <path d="M 1412.0 614.5 Q 1412.0 613.5 1415.0 609.5 Q 1433.0 555.5 1412.0 491.5 Q 1397.0 449.5 1424.0 416.5 Q 1433.0 406.5 1441.0 416.5 Q 1459.0 437.5 1466.0 521.5 Q 1470.0 570.5 1474.0 582.5 Q 1475.0 595.5 1463.0 604.5 Q 1454.0 613.5 1444.0 617.5 C 1417.0 630.5 1398.0 639.5 1412.0 614.5 Z" fill="lightgray"></path>
      </clipPath>
      <path clip-path="url(#make-me-a-hanzi-clip-10)" d="M 1417.0 614.5 L 1448.0 583.5 L 1446.0 534.5 L 1431.0 455.5 L 1433.0 421.5 " fill="none" id="make-me-a-hanzi-animation-10" stroke-dasharray="335 670" stroke-linecap="round"></path>

      <clipPath id="make-me-a-hanzi-clip-11">
      <path d="M 1574.0 634.5 Q 1589.0 597.5 1577.0 516.5 Q 1565.0 465.5 1591.0 426.5 Q 1600.0 414.5 1610.0 425.5 Q 1619.0 437.5 1625.0 483.5 Q 1632.0 583.5 1634.0 591.5 Q 1638.0 609.5 1634.0 616.5 Q 1633.0 628.5 1611.0 638.5 C 1584.0 651.5 1564.0 661.5 1574.0 634.5 Z" fill="lightgray"></path>
      </clipPath>
      <path clip-path="url(#make-me-a-hanzi-clip-11)" d="M 1581.0 631.5 L 1607.0 610.5 L 1609.0 602.5 L 1599.0 490.5 L 1601.0 430.5 " fill="none" id="make-me-a-hanzi-animation-11" stroke-dasharray="342 684" stroke-linecap="round"></path>

      <clipPath id="make-me-a-hanzi-clip-12">
      <path d="M 1330.0 529.5 Q 1287.0 480.5 1234.0 439.5 Q 1206.0 415.5 1209.0 377.5 Q 1210.0 358.5 1235.0 362.5 Q 1298.0 380.5 1335.0 466.5 Q 1351.0 494.5 1353.0 521.5 Q 1352.0 531.5 1346.0 533.5 Q 1337.0 534.5 1330.0 529.5 Z" fill="lightgray"></path>
      </clipPath>
      <path clip-path="url(#make-me-a-hanzi-clip-12)" d="M 1342.0 523.5 L 1299.0 455.5 L 1227.0 378.5 " fill="none" id="make-me-a-hanzi-animation-12" stroke-dasharray="314 628" stroke-linecap="round"></path>

      <clipPath id="make-me-a-hanzi-clip-13">
      <path d="M 1703.0 528.5 Q 1760.0 485.5 1829.0 423.5 Q 1845.0 404.5 1862.0 402.5 Q 1871.0 401.5 1877.0 412.5 Q 1887.0 425.5 1871.0 468.5 Q 1853.0 525.5 1702.0 558.5 Q 1692.0 562.5 1691.0 550.5 Q 1692.0 537.5 1703.0 528.5 Z" fill="lightgray"></path>
      </clipPath>
      <path clip-path="url(#make-me-a-hanzi-clip-13)" d="M 1702.0 547.5 L 1826.0 473.5 L 1863.0 417.5 " fill="none" id="make-me-a-hanzi-animation-13" stroke-dasharray="340 680" stroke-linecap="round"></path>

      <clipPath id="make-me-a-hanzi-clip-14">
      <path d="M 1668.0 281.5 Q 1690.0 323.5 1717.0 333.5 Q 1735.0 349.5 1722.0 367.5 Q 1656.0 425.5 1601.0 402.5 Q 1502.0 369.5 1369.0 361.5 Q 1353.0 360.5 1355.0 350.5 Q 1356.0 343.5 1374.0 336.5 Q 1398.0 326.5 1431.0 335.5 Q 1519.0 348.5 1603.0 362.5 Q 1625.0 366.5 1633.0 357.5 Q 1639.0 348.5 1618.0 285.5 C 1609.0 256.5 1653.0 255.5 1668.0 281.5 Z" fill="lightgray"></path>
      </clipPath>
      <path clip-path="url(#make-me-a-hanzi-clip-14)" d="M 1364.0 351.5 L 1437.0 350.5 L 1625.0 386.5 L 1657.0 375.5 L 1674.0 354.5 L 1651.0 308.5 L 1625.0 295.5 " fill="none" id="make-me-a-hanzi-animation-14" stroke-dasharray="534 1068" stroke-linecap="round"></path>

      <clipPath id="make-me-a-hanzi-clip-15">
      <path d="M 1400.0 213.5 Q 1488.0 232.5 1680.0 249.5 Q 1690.0 250.5 1691.0 258.5 Q 1691.0 265.5 1668.0 281.5 C 1652.0 292.5 1647.0 291.5 1618.0 285.5 Q 1494.0 258.5 1394.0 244.5 C 1364.0 240.5 1371.0 207.5 1400.0 213.5 Z" fill="lightgray"></path>
      </clipPath>
      <path clip-path="url(#make-me-a-hanzi-clip-15)" d="M 1403.0 222.5 L 1430.0 235.5 L 1597.0 262.5 L 1660.0 265.5 L 1682.0 257.5 " fill="none" id="make-me-a-hanzi-animation-15" stroke-dasharray="414 828" stroke-linecap="round"></path>

      <clipPath id="make-me-a-hanzi-clip-16">
      <path d="M 1338.0 70.5 Q 1383.0 106.5 1616.0 130.5 Q 1656.0 136.5 1671.0 133.5 Q 1684.0 130.5 1687.0 117.5 Q 1691.0 102.5 1625.0 -20.5 Q 1615.0 -41.5 1591.0 -33.5 Q 1563.0 -24.5 1526.0 -14.5 Q 1498.0 -4.5 1516.0 -32.5 Q 1568.0 -89.5 1578.0 -116.5 Q 1584.0 -131.5 1598.0 -130.5 Q 1611.0 -131.5 1628.0 -120.5 Q 1667.0 -90.5 1695.0 -31.5 Q 1731.0 55.5 1767.0 82.5 Q 1789.0 101.5 1777.0 116.5 Q 1755.0 146.5 1721.0 175.5 Q 1705.0 191.5 1630.0 174.5 Q 1533.0 167.5 1411.0 137.5 Q 1363.0 131.5 1365.0 141.5 Q 1364.0 144.5 1365.0 147.5 Q 1386.0 204.5 1400.0 213.5 C 1410.0 227.5 1410.0 227.5 1394.0 244.5 Q 1381.0 262.5 1359.0 277.5 Q 1349.0 287.5 1336.0 281.5 Q 1326.0 277.5 1333.0 256.5 Q 1340.0 228.5 1325.0 190.5 Q 1303.0 148.5 1285.0 134.5 Q 1272.0 118.5 1280.0 99.5 Q 1287.0 71.5 1301.0 61.5 Q 1311.0 54.5 1338.0 70.5 Z" fill="lightgray"></path>
      </clipPath>
      <path clip-path="url(#make-me-a-hanzi-clip-16)" d="M 1344.0 269.5 L 1366.0 230.5 L 1336.0 153.5 L 1329.0 116.5 L 1351.0 111.5 L 1390.0 114.5 L 1538.0 143.5 L 1646.0 157.5 L 1695.0 154.5 L 1722.0 126.5 L 1730.0 107.5 L 1654.0 -38.5 L 1625.0 -69.5 L 1609.0 -79.5 L 1518.0 -21.5 " fill="none" id="make-me-a-hanzi-animation-16" stroke-dasharray="1057 2114" stroke-linecap="round"></path>

</g>
</svg>
