<svg version="1.1" viewBox="0 0 2048 1024" xmlns="http://www.w3.org/2000/svg">
  <g stroke="lightgray" stroke-dasharray="1,1" stroke-width="1" transform="scale(4, 4)">
    <line x1="0" y1="0" x2="256" y2="256"></line>
    <line x1="256" y1="0" x2="0" y2="256"></line>
    <line x1="128" y1="0" x2="128" y2="256"></line>
    <line x1="0" y1="128" x2="256" y2="128"></line>
    <line x1="256" y1="0" x2="512" y2="256"></line>
    <line x1="512" y1="0" x2="256" y2="256"></line>
    <line x1="384" y1="0" x2="384" y2="256"></line>
    <line x1="256" y1="128" x2="512" y2="128"></line>
  </g>
<g transform="scale(1, -1) translate(0, -850)">
   <style type="text/css">
    @keyframes keyframes0 {
      from {
       stroke: black;
       stroke-dashoffset: 553;
       stroke-width: 128;
       }
       64% {
       animation-timing-function: step-end;
       stroke: black;
       stroke-dashoffset: 0;
       stroke-width: 128;
       }
       to {
       stroke: black;
       stroke-width: 1024;
       }
       }
       #make-me-a-hanzi-animation-0 {
         animation: keyframes0 0.700033s both;
         animation-delay: 0.000000s;
         animation-timing-function: linear;
       }
    @keyframes keyframes1 {
      from {
       stroke: black;
       stroke-dashoffset: 1125;
       stroke-width: 128;
       }
       79% {
       animation-timing-function: step-end;
       stroke: black;
       stroke-dashoffset: 0;
       stroke-width: 128;
       }
       to {
       stroke: black;
       stroke-width: 1024;
       }
       }
       #make-me-a-hanzi-animation-1 {
         animation: keyframes1 1.165527s both;
         animation-delay: 0.700033s;
         animation-timing-function: linear;
       }
    @keyframes keyframes2 {
      from {
       stroke: black;
       stroke-dashoffset: 640;
       stroke-width: 128;
       }
       68% {
       animation-timing-function: step-end;
       stroke: black;
       stroke-dashoffset: 0;
       stroke-width: 128;
       }
       to {
       stroke: black;
       stroke-width: 1024;
       }
       }
       #make-me-a-hanzi-animation-2 {
         animation: keyframes2 0.770833s both;
         animation-delay: 1.865560s;
         animation-timing-function: linear;
       }
    @keyframes keyframes3 {
      from {
       stroke: black;
       stroke-dashoffset: 406;
       stroke-width: 128;
       }
       57% {
       animation-timing-function: step-end;
       stroke: black;
       stroke-dashoffset: 0;
       stroke-width: 128;
       }
       to {
       stroke: black;
       stroke-width: 1024;
       }
       }
       #make-me-a-hanzi-animation-3 {
         animation: keyframes3 0.580404s both;
         animation-delay: 2.636393s;
         animation-timing-function: linear;
       }
    @keyframes keyframes4 {
      from {
       stroke: black;
       stroke-dashoffset: 424;
       stroke-width: 128;
       }
       58% {
       animation-timing-function: step-end;
       stroke: black;
       stroke-dashoffset: 0;
       stroke-width: 128;
       }
       to {
       stroke: black;
       stroke-width: 1024;
       }
       }
       #make-me-a-hanzi-animation-4 {
         animation: keyframes4 0.595052s both;
         animation-delay: 3.216797s;
         animation-timing-function: linear;
       }
    @keyframes keyframes5 {
      from {
       stroke: black;
       stroke-dashoffset: 739;
       stroke-width: 128;
       }
       71% {
       animation-timing-function: step-end;
       stroke: black;
       stroke-dashoffset: 0;
       stroke-width: 128;
       }
       to {
       stroke: black;
       stroke-width: 1024;
       }
       }
       #make-me-a-hanzi-animation-5 {
         animation: keyframes5 0.851400s both;
         animation-delay: 3.811849s;
         animation-timing-function: linear;
       }
    @keyframes keyframes6 {
      from {
       stroke: black;
       stroke-dashoffset: 982;
       stroke-width: 128;
       }
       76% {
       animation-timing-function: step-end;
       stroke: black;
       stroke-dashoffset: 0;
       stroke-width: 128;
       }
       to {
       stroke: black;
       stroke-width: 1024;
       }
       }
       #make-me-a-hanzi-animation-6 {
         animation: keyframes6 1.049154s both;
         animation-delay: 4.663249s;
         animation-timing-function: linear;
       }
    @keyframes keyframes7 {
      from {
       stroke: black;
       stroke-dashoffset: 831;
       stroke-width: 128;
       }
       73% {
       animation-timing-function: step-end;
       stroke: black;
       stroke-dashoffset: 0;
       stroke-width: 128;
       }
       to {
       stroke: black;
       stroke-width: 1024;
       }
       }
       #make-me-a-hanzi-animation-7 {
         animation: keyframes7 0.926270s both;
         animation-delay: 5.712402s;
         animation-timing-function: linear;
       }
    @keyframes keyframes8 {
      from {
       stroke: black;
       stroke-dashoffset: 871;
       stroke-width: 128;
       }
       74% {
       animation-timing-function: step-end;
       stroke: black;
       stroke-dashoffset: 0;
       stroke-width: 128;
       }
       to {
       stroke: black;
       stroke-width: 1024;
       }
       }
       #make-me-a-hanzi-animation-8 {
         animation: keyframes8 0.958822s both;
         animation-delay: 6.638672s;
         animation-timing-function: linear;
       }
    @keyframes keyframes9 {
      from {
       stroke: black;
       stroke-dashoffset: 796;
       stroke-width: 128;
       }
       72% {
       animation-timing-function: step-end;
       stroke: black;
       stroke-dashoffset: 0;
       stroke-width: 128;
       }
       to {
       stroke: black;
       stroke-width: 1024;
       }
       }
       #make-me-a-hanzi-animation-9 {
         animation: keyframes9 0.897786s both;
         animation-delay: 7.597493s;
         animation-timing-function: linear;
       }
    @keyframes keyframes10 {
      from {
       stroke: black;
       stroke-dashoffset: 931;
       stroke-width: 128;
       }
       75% {
       animation-timing-function: step-end;
       stroke: black;
       stroke-dashoffset: 0;
       stroke-width: 128;
       }
       to {
       stroke: black;
       stroke-width: 1024;
       }
       }
       #make-me-a-hanzi-animation-10 {
         animation: keyframes10 1.007650s both;
         animation-delay: 8.495280s;
         animation-timing-function: linear;
       }
    @keyframes keyframes11 {
      from {
       stroke: black;
       stroke-dashoffset: 357;
       stroke-width: 128;
       }
       54% {
       animation-timing-function: step-end;
       stroke: black;
       stroke-dashoffset: 0;
       stroke-width: 128;
       }
       to {
       stroke: black;
       stroke-width: 1024;
       }
       }
       #make-me-a-hanzi-animation-11 {
         animation: keyframes11 0.540527s both;
         animation-delay: 9.502930s;
         animation-timing-function: linear;
       }
    @keyframes keyframes12 {
      from {
       stroke: black;
       stroke-dashoffset: 371;
       stroke-width: 128;
       }
       55% {
       animation-timing-function: step-end;
       stroke: black;
       stroke-dashoffset: 0;
       stroke-width: 128;
       }
       to {
       stroke: black;
       stroke-width: 1024;
       }
       }
       #make-me-a-hanzi-animation-12 {
         animation: keyframes12 0.551921s both;
         animation-delay: 10.043457s;
         animation-timing-function: linear;
       }
    @keyframes keyframes13 {
      from {
       stroke: black;
       stroke-dashoffset: 760;
       stroke-width: 128;
       }
       71% {
       animation-timing-function: step-end;
       stroke: black;
       stroke-dashoffset: 0;
       stroke-width: 128;
       }
       to {
       stroke: black;
       stroke-width: 1024;
       }
       }
       #make-me-a-hanzi-animation-13 {
         animation: keyframes13 0.868490s both;
         animation-delay: 10.595378s;
         animation-timing-function: linear;
       }
    @keyframes keyframes14 {
      from {
       stroke: black;
       stroke-dashoffset: 1190;
       stroke-width: 128;
       }
       79% {
       animation-timing-function: step-end;
       stroke: black;
       stroke-dashoffset: 0;
       stroke-width: 128;
       }
       to {
       stroke: black;
       stroke-width: 1024;
       }
       }
       #make-me-a-hanzi-animation-14 {
         animation: keyframes14 1.218424s both;
         animation-delay: 11.463867s;
         animation-timing-function: linear;
       }
    @keyframes keyframes15 {
      from {
       stroke: black;
       stroke-dashoffset: 410;
       stroke-width: 128;
       }
       57% {
       animation-timing-function: step-end;
       stroke: black;
       stroke-dashoffset: 0;
       stroke-width: 128;
       }
       to {
       stroke: black;
       stroke-width: 1024;
       }
       }
       #make-me-a-hanzi-animation-15 {
         animation: keyframes15 0.583659s both;
         animation-delay: 12.682292s;
         animation-timing-function: linear;
       }
</style>
<path d="M 226 420 L 280 429 L 325 438 L 386 453 Q 408 458 417 465 Q 427 472 426 478 Q 425 484 410 494 Q 395 504 370 504 L 352 499 Q 337 491 330 491 L 280 475 L 204 458 L 125 444 Q 107 440 122 425 Q 137 410 168 413 L 193 415 Q 208 415 226 420 Z" fill="lightgray"></path> 
<path d="M 280 429 L 276 293 L 274 248 L 261 64 Q 259 40 256 32 Q 251 16 236 16 Q 229 14 208 20 L 170 31 Q 164 33 162 28 Q 160 22 167 18 L 182 6 L 223 -36 L 256 -88 Q 265 -97 284 -78 Q 296 -69 303 -55 Q 320 -25 320 0 L 320 14 Q 320 22 322 28 L 320 80 Q 318 147 319 164 L 322 281 L 322 320 L 325 438 L 330 491 L 332 526 Q 332 536 336 558 L 340 597 Q 345 622 355 642 L 360 652 Q 361 652 364 666 Q 364 673 357 683 Q 332 708 302 719 Q 272 729 263 722 Q 255 715 261 690 Q 268 664 272 656 Q 274 642 276 616 L 279 569 L 280 475 L 280 429 Z" fill="lightgray"></path> 
<path d="M 276 293 L 160 228 Q 122 206 114 203 L 76 186 L 52 182 L 48 178 Q 46 169 48 167 L 61 149 Q 68 141 79 134 Q 88 126 101 123 Q 114 120 119 121 Q 125 122 132 131 Q 139 139 160 156 L 274 248 L 322 281 L 380 332 Q 394 343 388 349 Q 383 354 372 349 L 322 320 L 276 293 Z" fill="lightgray"></path> 
<path d="M 697 544 L 704 561 Q 708 570 708 588 Q 708 633 658 655 Q 635 665 620 670 L 605 676 Q 595 680 590 676 Q 586 672 592 656 L 601 633 Q 604 620 616 600 L 632 570 Q 640 551 656 536 C 677 515 686 516 697 544 Z" fill="lightgray"></path> 
<path d="M 508 515 L 504 529 Q 498 549 488 547 Q 483 546 482 542 L 465 488 Q 458 465 452 457 Q 446 449 441 439 L 433 422 Q 426 412 426 408 Q 421 400 423 388 Q 424 377 426 372 Q 442 349 462 368 Q 485 381 501 432 L 509 463 Q 510 468 510 485 L 508 515 Z" fill="lightgray"></path> 
<path d="M 656 536 L 508 515 C 478 511 480 484 510 485 L 535 486 L 568 492 L 790 522 Q 797 522 800 523 Q 816 523 818 512 Q 820 505 811 482 L 786 424 Q 782 414 786 411 Q 786 410 789 411 Q 793 411 796 413 L 810 424 Q 821 434 828 438 L 853 456 L 884 475 Q 896 483 902 485 L 920 491 Q 930 494 932 502 Q 935 520 899 541 Q 881 552 870 556 L 842 565 Q 831 569 824 569 L 697 544 L 656 536 Z" fill="lightgray"></path> 
<path d="M 602 272 L 626 329 Q 635 358 646 376 L 650 386 Q 657 404 636 416 Q 604 438 584 442 Q 565 445 560 435 Q 559 433 564 414 Q 569 394 568 382 Q 566 324 560 301 Q 557 285 553 275 L 550 264 L 538 228 L 518 182 L 494 144 Q 486 130 500 121 L 532 108 L 610 73 L 656 44 L 689 24 L 720 2 L 830 -87 Q 845 -98 861 -88 Q 868 -84 869 -68 Q 871 -53 863 -33 Q 857 -20 845 -6 Q 827 12 817 17 Q 808 21 773 42 L 732 62 Q 722 67 689 81 L 633 102 L 538 136 L 565 186 Q 578 212 588 235 L 602 272 Z" fill="lightgray"></path> 
<path d="M 788 287 L 779 301 Q 778 304 761 318 Q 743 334 734 336 L 723 339 Q 709 340 708 332 L 713 304 Q 714 300 712 280 L 706 245 L 700 224 Q 695 206 672 163 Q 650 119 633 102 L 610 73 L 590 54 Q 580 43 546 22 Q 513 1 500 -4 L 456 -21 Q 433 -32 419 -34 L 397 -40 Q 390 -39 388 -48 Q 384 -55 400 -55 L 416 -55 Q 529 -55 622 10 L 656 44 L 689 81 L 702 102 Q 716 123 732 152 Q 748 180 756 205 L 773 248 C 784 276 788 287 788 287 Z" fill="lightgray"></path> 
<path d="M 866 302 L 788 287 L 712 280 L 602 272 L 550 264 L 441 253 Q 397 249 380 249 L 355 248 Q 346 248 344 242 Q 336 233 357 223 L 370 216 Q 394 204 406 203 Q 418 201 436 206 L 487 219 L 538 228 L 588 235 L 706 245 L 773 248 L 848 249 L 950 244 Q 967 242 972 250 Q 976 254 971 267 Q 967 279 950 286 Q 913 304 887 304 Q 882 302 866 302 Z" fill="lightgray"></path> 
<path d="M 1220 612 Q 1202 630 1180 636 Q 1170 640 1158 637 Q 1151 631 1157 619 Q 1175 541 1177 537 Q 1177 533 1178 525 Q 1190 318 1159 196 Q 1144 141 1181 94 Q 1191 81 1203 93 Q 1213 109 1215 127 L 1219 161 Q 1220 183 1220 215 Q 1221 297 1222 359 L 1223 390 Q 1226 558 1228 572 Q 1229 579 1229 585 C 1230 603 1230 603 1220 612 Z" fill="lightgray"></path> 
<path d="M 1332 138 Q 1342 122 1354 105 Q 1370 81 1377 84 Q 1389 87 1403 120 Q 1413 148 1409 266 Q 1394 557 1416 594 Q 1426 612 1418 623 Q 1411 633 1362 648 Q 1340 657 1322 647 Q 1267 622 1220 612 C 1191 605 1200 579 1229 585 Q 1332 606 1335 606 Q 1338 606 1342 602 Q 1355 589 1356 534 Q 1360 311 1351 188 Q 1354 169 1339 167 C 1324 150 1324 150 1332 138 Z" fill="lightgray"></path> 
<path d="M 1222 359 Q 1276 372 1318 380 Q 1339 386 1330 397 Q 1318 410 1294 411 Q 1248 414 1223 390 C 1201 370 1193 352 1222 359 Z" fill="lightgray"></path> 
<path d="M 1215 127 Q 1222 136 1332 138 C 1362 139 1362 147 1339 167 Q 1335 171 1328 175 Q 1312 184 1219 161 C 1190 154 1189 112 1215 127 Z" fill="lightgray"></path> 
<path d="M 1773 476 L 1942 501 L 1948 507 Q 1949 520 1925 532 Q 1883 556 1796 530 Q 1784 527 1774 524 L 1724 513 Q 1723 514 1721 513 Q 1685 507 1449 475 Q 1418 472 1442 452 Q 1478 422 1509 430 Q 1603 449 1724 469 L 1773 476 Z" fill="lightgray"></path> 
<path d="M 1724 469 Q 1725 321 1726 58 Q 1725 33 1712 24 Q 1706 20 1625 33 Q 1592 43 1595 33 Q 1596 26 1618 12 Q 1688 -36 1707 -65 Q 1729 -99 1745 -98 Q 1760 -99 1773 -64 Q 1789 -18 1785 54 Q 1770 265 1773 476 L 1774 524 Q 1774 641 1791 697 Q 1807 728 1752 749 Q 1718 768 1699 760 Q 1681 753 1698 731 Q 1720 704 1721 670 Q 1722 652 1724 513 L 1724 469 Z" fill="lightgray"></path> 
<path d="M 1507 288 Q 1537 258 1567 223 Q 1580 210 1596 208 Q 1606 208 1613 221 Q 1619 236 1612 266 Q 1606 300 1506 336 Q 1490 340 1484 339 Q 1478 335 1479 322 Q 1482 312 1507 288 Z" fill="lightgray"></path> 
      <clipPath id="make-me-a-hanzi-clip-0">
      <path d="M 226 420 L 280 429 L 325 438 L 386 453 Q 408 458 417 465 Q 427 472 426 478 Q 425 484 410 494 Q 395 504 370 504 L 352 499 Q 337 491 330 491 L 280 475 L 204 458 L 125 444 Q 107 440 122 425 Q 137 410 168 413 L 193 415 Q 208 415 226 420 Z" fill="lightgray"></path>
      </clipPath>
      <path clip-path="url(#make-me-a-hanzi-clip-0)" d="M 124 434 L 159 430 L 270 449 L 376 478 L 415 476 " fill="none" id="make-me-a-hanzi-animation-0" stroke-dasharray="425 850" stroke-linecap="round"></path>

      <clipPath id="make-me-a-hanzi-clip-1">
      <path d="M 280 429 L 276 293 L 274 248 L 261 64 Q 259 40 256 32 Q 251 16 236 16 Q 229 14 208 20 L 170 31 Q 164 33 162 28 Q 160 22 167 18 L 182 6 L 223 -36 L 256 -88 Q 265 -97 284 -78 Q 296 -69 303 -55 Q 320 -25 320 0 L 320 14 Q 320 22 322 28 L 320 80 Q 318 147 319 164 L 322 281 L 322 320 L 325 438 L 330 491 L 332 526 Q 332 536 336 558 L 340 597 Q 345 622 355 642 L 360 652 Q 361 652 364 666 Q 364 673 357 683 Q 332 708 302 719 Q 272 729 263 722 Q 255 715 261 690 Q 268 664 272 656 Q 274 642 276 616 L 279 569 L 280 475 L 280 429 Z" fill="lightgray"></path>
      </clipPath>
      <path clip-path="url(#make-me-a-hanzi-clip-1)" d="M 271 713 L 316 661 L 305 530 L 289 26 L 281 -3 L 268 -22 L 222 -6 L 168 25 " fill="none" id="make-me-a-hanzi-animation-1" stroke-dasharray="997 1994" stroke-linecap="round"></path>

      <clipPath id="make-me-a-hanzi-clip-2">
      <path d="M 276 293 L 160 228 Q 122 206 114 203 L 76 186 L 52 182 L 48 178 Q 46 169 48 167 L 61 149 Q 68 141 79 134 Q 88 126 101 123 Q 114 120 119 121 Q 125 122 132 131 Q 139 139 160 156 L 274 248 L 322 281 L 380 332 Q 394 343 388 349 Q 383 354 372 349 L 322 320 L 276 293 Z" fill="lightgray"></path>
      </clipPath>
      <path clip-path="url(#make-me-a-hanzi-clip-2)" d="M 58 173 L 82 162 L 109 160 L 383 345 " fill="none" id="make-me-a-hanzi-animation-2" stroke-dasharray="512 1024" stroke-linecap="round"></path>

      <clipPath id="make-me-a-hanzi-clip-3">
      <path d="M 697 544 L 704 561 Q 708 570 708 588 Q 708 633 658 655 Q 635 665 620 670 L 605 676 Q 595 680 590 676 Q 586 672 592 656 L 601 633 Q 604 620 616 600 L 632 570 Q 640 551 656 536 C 677 515 686 516 697 544 Z" fill="lightgray"></path>
      </clipPath>
      <path clip-path="url(#make-me-a-hanzi-clip-3)" d="M 598 671 L 656 611 L 670 576 L 688 553 " fill="none" id="make-me-a-hanzi-animation-3" stroke-dasharray="278 556" stroke-linecap="round"></path>

      <clipPath id="make-me-a-hanzi-clip-4">
      <path d="M 508 515 L 504 529 Q 498 549 488 547 Q 483 546 482 542 L 465 488 Q 458 465 452 457 Q 446 449 441 439 L 433 422 Q 426 412 426 408 Q 421 400 423 388 Q 424 377 426 372 Q 442 349 462 368 Q 485 381 501 432 L 509 463 Q 510 468 510 485 L 508 515 Z" fill="lightgray"></path>
      </clipPath>
      <path clip-path="url(#make-me-a-hanzi-clip-4)" d="M 490 539 L 484 464 L 445 380 " fill="none" id="make-me-a-hanzi-animation-4" stroke-dasharray="296 592" stroke-linecap="round"></path>

      <clipPath id="make-me-a-hanzi-clip-5">
      <path d="M 656 536 L 508 515 C 478 511 480 484 510 485 L 535 486 L 568 492 L 790 522 Q 797 522 800 523 Q 816 523 818 512 Q 820 505 811 482 L 786 424 Q 782 414 786 411 Q 786 410 789 411 Q 793 411 796 413 L 810 424 Q 821 434 828 438 L 853 456 L 884 475 Q 896 483 902 485 L 920 491 Q 930 494 932 502 Q 935 520 899 541 Q 881 552 870 556 L 842 565 Q 831 569 824 569 L 697 544 L 656 536 Z" fill="lightgray"></path>
      </clipPath>
      <path clip-path="url(#make-me-a-hanzi-clip-5)" d="M 516 493 L 532 503 L 562 508 L 793 543 L 825 543 L 862 512 L 788 418 " fill="none" id="make-me-a-hanzi-animation-5" stroke-dasharray="611 1222" stroke-linecap="round"></path>

      <clipPath id="make-me-a-hanzi-clip-6">
      <path d="M 602 272 L 626 329 Q 635 358 646 376 L 650 386 Q 657 404 636 416 Q 604 438 584 442 Q 565 445 560 435 Q 559 433 564 414 Q 569 394 568 382 Q 566 324 560 301 Q 557 285 553 275 L 550 264 L 538 228 L 518 182 L 494 144 Q 486 130 500 121 L 532 108 L 610 73 L 656 44 L 689 24 L 720 2 L 830 -87 Q 845 -98 861 -88 Q 868 -84 869 -68 Q 871 -53 863 -33 Q 857 -20 845 -6 Q 827 12 817 17 Q 808 21 773 42 L 732 62 Q 722 67 689 81 L 633 102 L 538 136 L 565 186 Q 578 212 588 235 L 602 272 Z" fill="lightgray"></path>
      </clipPath>
      <path clip-path="url(#make-me-a-hanzi-clip-6)" d="M 569 433 L 591 413 L 607 386 L 574 262 L 538 176 L 516 139 L 532 123 L 633 82 L 740 25 L 815 -27 L 848 -72 " fill="none" id="make-me-a-hanzi-animation-6" stroke-dasharray="854 1708" stroke-linecap="round"></path>

      <clipPath id="make-me-a-hanzi-clip-7">
      <path d="M 788 287 L 779 301 Q 778 304 761 318 Q 743 334 734 336 L 723 339 Q 709 340 708 332 L 713 304 Q 714 300 712 280 L 706 245 L 700 224 Q 695 206 672 163 Q 650 119 633 102 L 610 73 L 590 54 Q 580 43 546 22 Q 513 1 500 -4 L 456 -21 Q 433 -32 419 -34 L 397 -40 Q 390 -39 388 -48 Q 384 -55 400 -55 L 416 -55 Q 529 -55 622 10 L 656 44 L 689 81 L 702 102 Q 716 123 732 152 Q 748 180 756 205 L 773 248 C 784 276 788 287 788 287 Z" fill="lightgray"></path>
      </clipPath>
      <path clip-path="url(#make-me-a-hanzi-clip-7)" d="M 719 328 L 734 312 L 748 280 L 741 253 L 722 197 L 696 146 L 648 76 L 589 18 L 523 -17 L 439 -42 L 396 -48 " fill="none" id="make-me-a-hanzi-animation-7" stroke-dasharray="703 1406" stroke-linecap="round"></path>

      <clipPath id="make-me-a-hanzi-clip-8">
      <path d="M 866 302 L 788 287 L 712 280 L 602 272 L 550 264 L 441 253 Q 397 249 380 249 L 355 248 Q 346 248 344 242 Q 336 233 357 223 L 370 216 Q 394 204 406 203 Q 418 201 436 206 L 487 219 L 538 228 L 588 235 L 706 245 L 773 248 L 848 249 L 950 244 Q 967 242 972 250 Q 976 254 971 267 Q 967 279 950 286 Q 913 304 887 304 Q 882 302 866 302 Z" fill="lightgray"></path>
      </clipPath>
      <path clip-path="url(#make-me-a-hanzi-clip-8)" d="M 354 237 L 423 227 L 585 253 L 891 276 L 934 269 L 962 256 " fill="none" id="make-me-a-hanzi-animation-8" stroke-dasharray="743 1486" stroke-linecap="round"></path>

      <clipPath id="make-me-a-hanzi-clip-9">
      <path d="M 1220 612 Q 1202 630 1180 636 Q 1170 640 1158 637 Q 1151 631 1157 619 Q 1175 541 1177 537 Q 1177 533 1178 525 Q 1190 318 1159 196 Q 1144 141 1181 94 Q 1191 81 1203 93 Q 1213 109 1215 127 L 1219 161 Q 1220 183 1220 215 Q 1221 297 1222 359 L 1223 390 Q 1226 558 1228 572 Q 1229 579 1229 585 C 1230 603 1230 603 1220 612 Z" fill="lightgray"></path>
      </clipPath>
      <path clip-path="url(#make-me-a-hanzi-clip-9)" d="M 1165 629 L 1194 592 L 1202 540 L 1204 404 L 1187 168 L 1192 100 " fill="none" id="make-me-a-hanzi-animation-9" stroke-dasharray="668 1336" stroke-linecap="round"></path>

      <clipPath id="make-me-a-hanzi-clip-10">
      <path d="M 1332 138 Q 1342 122 1354 105 Q 1370 81 1377 84 Q 1389 87 1403 120 Q 1413 148 1409 266 Q 1394 557 1416 594 Q 1426 612 1418 623 Q 1411 633 1362 648 Q 1340 657 1322 647 Q 1267 622 1220 612 C 1191 605 1200 579 1229 585 Q 1332 606 1335 606 Q 1338 606 1342 602 Q 1355 589 1356 534 Q 1360 311 1351 188 Q 1354 169 1339 167 C 1324 150 1324 150 1332 138 Z" fill="lightgray"></path>
      </clipPath>
      <path clip-path="url(#make-me-a-hanzi-clip-10)" d="M 1228 607 L 1245 602 L 1342 629 L 1381 604 L 1384 278 L 1379 165 L 1372 141 L 1376 95 " fill="none" id="make-me-a-hanzi-animation-10" stroke-dasharray="803 1606" stroke-linecap="round"></path>

      <clipPath id="make-me-a-hanzi-clip-11">
      <path d="M 1222 359 Q 1276 372 1318 380 Q 1339 386 1330 397 Q 1318 410 1294 411 Q 1248 414 1223 390 C 1201 370 1193 352 1222 359 Z" fill="lightgray"></path>
      </clipPath>
      <path clip-path="url(#make-me-a-hanzi-clip-11)" d="M 1228 367 L 1240 381 L 1259 389 L 1321 391 " fill="none" id="make-me-a-hanzi-animation-11" stroke-dasharray="229 458" stroke-linecap="round"></path>

      <clipPath id="make-me-a-hanzi-clip-12">
      <path d="M 1215 127 Q 1222 136 1332 138 C 1362 139 1362 147 1339 167 Q 1335 171 1328 175 Q 1312 184 1219 161 C 1190 154 1189 112 1215 127 Z" fill="lightgray"></path>
      </clipPath>
      <path clip-path="url(#make-me-a-hanzi-clip-12)" d="M 1220 134 L 1236 151 L 1327 162 " fill="none" id="make-me-a-hanzi-animation-12" stroke-dasharray="243 486" stroke-linecap="round"></path>

      <clipPath id="make-me-a-hanzi-clip-13">
      <path d="M 1773 476 L 1942 501 L 1948 507 Q 1949 520 1925 532 Q 1883 556 1796 530 Q 1784 527 1774 524 L 1724 513 Q 1723 514 1721 513 Q 1685 507 1449 475 Q 1418 472 1442 452 Q 1478 422 1509 430 Q 1603 449 1724 469 L 1773 476 Z" fill="lightgray"></path>
      </clipPath>
      <path clip-path="url(#make-me-a-hanzi-clip-13)" d="M 1443 464 L 1499 455 L 1845 515 L 1912 517 L 1940 509 " fill="none" id="make-me-a-hanzi-animation-13" stroke-dasharray="632 1264" stroke-linecap="round"></path>

      <clipPath id="make-me-a-hanzi-clip-14">
      <path d="M 1724 469 Q 1725 321 1726 58 Q 1725 33 1712 24 Q 1706 20 1625 33 Q 1592 43 1595 33 Q 1596 26 1618 12 Q 1688 -36 1707 -65 Q 1729 -99 1745 -98 Q 1760 -99 1773 -64 Q 1789 -18 1785 54 Q 1770 265 1773 476 L 1774 524 Q 1774 641 1791 697 Q 1807 728 1752 749 Q 1718 768 1699 760 Q 1681 753 1698 731 Q 1720 704 1721 670 Q 1722 652 1724 513 L 1724 469 Z" fill="lightgray"></path>
      </clipPath>
      <path clip-path="url(#make-me-a-hanzi-clip-14)" d="M 1705 745 L 1734 727 L 1754 702 L 1747 527 L 1755 44 L 1750 13 L 1734 -20 L 1602 31 " fill="none" id="make-me-a-hanzi-animation-14" stroke-dasharray="1062 2124" stroke-linecap="round"></path>

      <clipPath id="make-me-a-hanzi-clip-15">
      <path d="M 1507 288 Q 1537 258 1567 223 Q 1580 210 1596 208 Q 1606 208 1613 221 Q 1619 236 1612 266 Q 1606 300 1506 336 Q 1490 340 1484 339 Q 1478 335 1479 322 Q 1482 312 1507 288 Z" fill="lightgray"></path>
      </clipPath>
      <path clip-path="url(#make-me-a-hanzi-clip-15)" d="M 1488 332 L 1576 264 L 1595 226 " fill="none" id="make-me-a-hanzi-animation-15" stroke-dasharray="282 564" stroke-linecap="round"></path>

</g>
</svg>
