<svg version="1.1" viewBox="0 0 2048 1024" xmlns="http://www.w3.org/2000/svg">
  <g stroke="lightgray" stroke-dasharray="1,1" stroke-width="1" transform="scale(4, 4)">
    <line x1="0" y1="0" x2="256" y2="256"></line>
    <line x1="256" y1="0" x2="0" y2="256"></line>
    <line x1="128" y1="0" x2="128" y2="256"></line>
    <line x1="0" y1="128" x2="256" y2="128"></line>
    <line x1="256" y1="0" x2="512" y2="256"></line>
    <line x1="512" y1="0" x2="256" y2="256"></line>
    <line x1="384" y1="0" x2="384" y2="256"></line>
    <line x1="256" y1="128" x2="512" y2="128"></line>
  </g>
<g transform="scale(1, -1) translate(0, -850)">
   <style type="text/css">
    @keyframes keyframes0 {
      from {
       stroke: black;
       stroke-dashoffset: 526;
       stroke-width: 128;
       }
       63% {
       animation-timing-function: step-end;
       stroke: black;
       stroke-dashoffset: 0;
       stroke-width: 128;
       }
       to {
       stroke: black;
       stroke-width: 1024;
       }
       }
       #make-me-a-hanzi-animation-0 {
         animation: keyframes0 0.678060s both;
         animation-delay: 0.000000s;
         animation-timing-function: linear;
       }
    @keyframes keyframes1 {
      from {
       stroke: black;
       stroke-dashoffset: 1160;
       stroke-width: 128;
       }
       79% {
       animation-timing-function: step-end;
       stroke: black;
       stroke-dashoffset: 0;
       stroke-width: 128;
       }
       to {
       stroke: black;
       stroke-width: 1024;
       }
       }
       #make-me-a-hanzi-animation-1 {
         animation: keyframes1 1.194010s both;
         animation-delay: 0.678060s;
         animation-timing-function: linear;
       }
    @keyframes keyframes2 {
      from {
       stroke: black;
       stroke-dashoffset: 634;
       stroke-width: 128;
       }
       67% {
       animation-timing-function: step-end;
       stroke: black;
       stroke-dashoffset: 0;
       stroke-width: 128;
       }
       to {
       stroke: black;
       stroke-width: 1024;
       }
       }
       #make-me-a-hanzi-animation-2 {
         animation: keyframes2 0.765951s both;
         animation-delay: 1.872070s;
         animation-timing-function: linear;
       }
    @keyframes keyframes3 {
      from {
       stroke: black;
       stroke-dashoffset: 550;
       stroke-width: 128;
       }
       64% {
       animation-timing-function: step-end;
       stroke: black;
       stroke-dashoffset: 0;
       stroke-width: 128;
       }
       to {
       stroke: black;
       stroke-width: 1024;
       }
       }
       #make-me-a-hanzi-animation-3 {
         animation: keyframes3 0.697591s both;
         animation-delay: 2.638021s;
         animation-timing-function: linear;
       }
    @keyframes keyframes4 {
      from {
       stroke: black;
       stroke-dashoffset: 376;
       stroke-width: 128;
       }
       55% {
       animation-timing-function: step-end;
       stroke: black;
       stroke-dashoffset: 0;
       stroke-width: 128;
       }
       to {
       stroke: black;
       stroke-width: 1024;
       }
       }
       #make-me-a-hanzi-animation-4 {
         animation: keyframes4 0.555990s both;
         animation-delay: 3.335612s;
         animation-timing-function: linear;
       }
    @keyframes keyframes5 {
      from {
       stroke: black;
       stroke-dashoffset: 347;
       stroke-width: 128;
       }
       53% {
       animation-timing-function: step-end;
       stroke: black;
       stroke-dashoffset: 0;
       stroke-width: 128;
       }
       to {
       stroke: black;
       stroke-width: 1024;
       }
       }
       #make-me-a-hanzi-animation-5 {
         animation: keyframes5 0.532389s both;
         animation-delay: 3.891602s;
         animation-timing-function: linear;
       }
    @keyframes keyframes6 {
      from {
       stroke: black;
       stroke-dashoffset: 491;
       stroke-width: 128;
       }
       62% {
       animation-timing-function: step-end;
       stroke: black;
       stroke-dashoffset: 0;
       stroke-width: 128;
       }
       to {
       stroke: black;
       stroke-width: 1024;
       }
       }
       #make-me-a-hanzi-animation-6 {
         animation: keyframes6 0.649577s both;
         animation-delay: 4.423991s;
         animation-timing-function: linear;
       }
    @keyframes keyframes7 {
      from {
       stroke: black;
       stroke-dashoffset: 479;
       stroke-width: 128;
       }
       61% {
       animation-timing-function: step-end;
       stroke: black;
       stroke-dashoffset: 0;
       stroke-width: 128;
       }
       to {
       stroke: black;
       stroke-width: 1024;
       }
       }
       #make-me-a-hanzi-animation-7 {
         animation: keyframes7 0.639811s both;
         animation-delay: 5.073568s;
         animation-timing-function: linear;
       }
    @keyframes keyframes8 {
      from {
       stroke: black;
       stroke-dashoffset: 531;
       stroke-width: 128;
       }
       63% {
       animation-timing-function: step-end;
       stroke: black;
       stroke-dashoffset: 0;
       stroke-width: 128;
       }
       to {
       stroke: black;
       stroke-width: 1024;
       }
       }
       #make-me-a-hanzi-animation-8 {
         animation: keyframes8 0.682129s both;
         animation-delay: 5.713379s;
         animation-timing-function: linear;
       }
    @keyframes keyframes9 {
      from {
       stroke: black;
       stroke-dashoffset: 788;
       stroke-width: 128;
       }
       72% {
       animation-timing-function: step-end;
       stroke: black;
       stroke-dashoffset: 0;
       stroke-width: 128;
       }
       to {
       stroke: black;
       stroke-width: 1024;
       }
       }
       #make-me-a-hanzi-animation-9 {
         animation: keyframes9 0.891276s both;
         animation-delay: 6.395508s;
         animation-timing-function: linear;
       }
    @keyframes keyframes10 {
      from {
       stroke: black;
       stroke-dashoffset: 568;
       stroke-width: 128;
       }
       65% {
       animation-timing-function: step-end;
       stroke: black;
       stroke-dashoffset: 0;
       stroke-width: 128;
       }
       to {
       stroke: black;
       stroke-width: 1024;
       }
       }
       #make-me-a-hanzi-animation-10 {
         animation: keyframes10 0.712240s both;
         animation-delay: 7.286784s;
         animation-timing-function: linear;
       }
    @keyframes keyframes11 {
      from {
       stroke: black;
       stroke-dashoffset: 751;
       stroke-width: 128;
       }
       71% {
       animation-timing-function: step-end;
       stroke: black;
       stroke-dashoffset: 0;
       stroke-width: 128;
       }
       to {
       stroke: black;
       stroke-width: 1024;
       }
       }
       #make-me-a-hanzi-animation-11 {
         animation: keyframes11 0.861165s both;
         animation-delay: 7.999023s;
         animation-timing-function: linear;
       }
    @keyframes keyframes12 {
      from {
       stroke: black;
       stroke-dashoffset: 479;
       stroke-width: 128;
       }
       61% {
       animation-timing-function: step-end;
       stroke: black;
       stroke-dashoffset: 0;
       stroke-width: 128;
       }
       to {
       stroke: black;
       stroke-width: 1024;
       }
       }
       #make-me-a-hanzi-animation-12 {
         animation: keyframes12 0.639811s both;
         animation-delay: 8.860189s;
         animation-timing-function: linear;
       }
    @keyframes keyframes13 {
      from {
       stroke: black;
       stroke-dashoffset: 528;
       stroke-width: 128;
       }
       63% {
       animation-timing-function: step-end;
       stroke: black;
       stroke-dashoffset: 0;
       stroke-width: 128;
       }
       to {
       stroke: black;
       stroke-width: 1024;
       }
       }
       #make-me-a-hanzi-animation-13 {
         animation: keyframes13 0.679688s both;
         animation-delay: 9.500000s;
         animation-timing-function: linear;
       }
    @keyframes keyframes14 {
      from {
       stroke: black;
       stroke-dashoffset: 797;
       stroke-width: 128;
       }
       72% {
       animation-timing-function: step-end;
       stroke: black;
       stroke-dashoffset: 0;
       stroke-width: 128;
       }
       to {
       stroke: black;
       stroke-width: 1024;
       }
       }
       #make-me-a-hanzi-animation-14 {
         animation: keyframes14 0.898600s both;
         animation-delay: 10.179688s;
         animation-timing-function: linear;
       }
    @keyframes keyframes15 {
      from {
       stroke: black;
       stroke-dashoffset: 476;
       stroke-width: 128;
       }
       61% {
       animation-timing-function: step-end;
       stroke: black;
       stroke-dashoffset: 0;
       stroke-width: 128;
       }
       to {
       stroke: black;
       stroke-width: 1024;
       }
       }
       #make-me-a-hanzi-animation-15 {
         animation: keyframes15 0.637370s both;
         animation-delay: 11.078288s;
         animation-timing-function: linear;
       }
    @keyframes keyframes16 {
      from {
       stroke: black;
       stroke-dashoffset: 444;
       stroke-width: 128;
       }
       59% {
       animation-timing-function: step-end;
       stroke: black;
       stroke-dashoffset: 0;
       stroke-width: 128;
       }
       to {
       stroke: black;
       stroke-width: 1024;
       }
       }
       #make-me-a-hanzi-animation-16 {
         animation: keyframes16 0.611328s both;
         animation-delay: 11.715658s;
         animation-timing-function: linear;
       }
    @keyframes keyframes17 {
      from {
       stroke: black;
       stroke-dashoffset: 440;
       stroke-width: 128;
       }
       59% {
       animation-timing-function: step-end;
       stroke: black;
       stroke-dashoffset: 0;
       stroke-width: 128;
       }
       to {
       stroke: black;
       stroke-width: 1024;
       }
       }
       #make-me-a-hanzi-animation-17 {
         animation: keyframes17 0.608073s both;
         animation-delay: 12.326986s;
         animation-timing-function: linear;
       }
    @keyframes keyframes18 {
      from {
       stroke: black;
       stroke-dashoffset: 376;
       stroke-width: 128;
       }
       55% {
       animation-timing-function: step-end;
       stroke: black;
       stroke-dashoffset: 0;
       stroke-width: 128;
       }
       to {
       stroke: black;
       stroke-width: 1024;
       }
       }
       #make-me-a-hanzi-animation-18 {
         animation: keyframes18 0.555990s both;
         animation-delay: 12.935059s;
         animation-timing-function: linear;
       }
    @keyframes keyframes19 {
      from {
       stroke: black;
       stroke-dashoffset: 468;
       stroke-width: 128;
       }
       60% {
       animation-timing-function: step-end;
       stroke: black;
       stroke-dashoffset: 0;
       stroke-width: 128;
       }
       to {
       stroke: black;
       stroke-width: 1024;
       }
       }
       #make-me-a-hanzi-animation-19 {
         animation: keyframes19 0.630859s both;
         animation-delay: 13.491048s;
         animation-timing-function: linear;
       }
    @keyframes keyframes20 {
      from {
       stroke: black;
       stroke-dashoffset: 920;
       stroke-width: 128;
       }
       75% {
       animation-timing-function: step-end;
       stroke: black;
       stroke-dashoffset: 0;
       stroke-width: 128;
       }
       to {
       stroke: black;
       stroke-width: 1024;
       }
       }
       #make-me-a-hanzi-animation-20 {
         animation: keyframes20 0.998698s both;
         animation-delay: 14.121908s;
         animation-timing-function: linear;
       }
    @keyframes keyframes21 {
      from {
       stroke: black;
       stroke-dashoffset: 700;
       stroke-width: 128;
       }
       69% {
       animation-timing-function: step-end;
       stroke: black;
       stroke-dashoffset: 0;
       stroke-width: 128;
       }
       to {
       stroke: black;
       stroke-width: 1024;
       }
       }
       #make-me-a-hanzi-animation-21 {
         animation: keyframes21 0.819661s both;
         animation-delay: 15.120605s;
         animation-timing-function: linear;
       }
    @keyframes keyframes22 {
      from {
       stroke: black;
       stroke-dashoffset: 1083;
       stroke-width: 128;
       }
       78% {
       animation-timing-function: step-end;
       stroke: black;
       stroke-dashoffset: 0;
       stroke-width: 128;
       }
       to {
       stroke: black;
       stroke-width: 1024;
       }
       }
       #make-me-a-hanzi-animation-22 {
         animation: keyframes22 1.131348s both;
         animation-delay: 15.940267s;
         animation-timing-function: linear;
       }
</style>
<path d="M 327 462 Q 343 468 360 471 Q 391 481 397 485 Q 404 494 400 502 Q 393 514 362 519 Q 346 522 329 518 L 279 501 Q 204 477 132 465 Q 95 456 122 441 Q 158 422 234 439 Q 255 445 278 450 L 327 462 Z" fill="lightgray"></path> 
<path d="M 273 277 Q 270 187 269 74 Q 268 50 255 41 Q 246 38 185 55 Q 152 68 155 59 Q 156 52 175 35 Q 235 -19 249 -48 Q 265 -82 281 -85 Q 296 -86 311 -52 Q 330 -6 331 68 Q 324 195 324 320 L 324 350 Q 324 407 327 462 L 329 518 Q 329 620 350 690 Q 366 721 312 743 Q 278 762 259 755 Q 241 749 257 726 Q 279 699 279 665 Q 280 647 279 501 L 278 450 Q 277 392 274 317 L 273 277 Z" fill="lightgray"></path> 
<path d="M 274 317 Q 187 262 112 209 Q 81 188 59 180 Q 47 174 45 166 Q 45 157 59 145 Q 78 132 101 125 Q 117 121 126 134 Q 168 183 273 277 L 324 320 Q 331 327 342 335 Q 361 348 369 362 Q 375 375 364 374 Q 358 373 324 350 L 274 317 Z" fill="lightgray"></path> 
<path d="M 627 719 Q 579 677 457 621 Q 453 612 457 610 Q 505 610 634 663 Q 656 678 722 692 Q 738 693 741 700 Q 744 710 733 720 Q 714 735 673 750 Q 660 757 647 756 Q 640 752 640 742 Q 639 729 627 719 Z" fill="lightgray"></path> 
<path d="M 462 528 Q 484 506 506 478 Q 516 465 530 464 Q 540 464 545 475 Q 551 487 546 514 Q 539 542 463 570 Q 450 574 444 573 Q 440 570 439 559 Q 442 549 462 528 Z" fill="lightgray"></path> 
<path d="M 564 581 Q 604 514 627 510 Q 639 507 646 522 Q 649 532 643 552 Q 628 585 571 604 Q 564 607 561 597 Q 560 590 564 581 Z" fill="lightgray"></path> 
<path d="M 780 608 Q 744 556 671 479 Q 665 472 671 465 Q 678 464 686 468 Q 798 553 852 586 Q 870 590 866 601 Q 860 617 842 636 Q 823 654 801 656 Q 786 656 787 637 Q 790 624 780 608 Z" fill="lightgray"></path> 
<path d="M 524 370 Q 531 386 541 398 Q 548 408 536 420 Q 500 445 479 440 Q 470 437 473 426 Q 488 357 423 275 Q 407 256 400 244 Q 394 231 406 236 Q 443 240 502 330 Q 508 345 511 348 L 524 370 Z" fill="lightgray"></path> 
<path d="M 633 346 Q 789 382 795 387 Q 804 394 799 403 Q 792 413 764 420 Q 734 426 705 413 Q 666 400 623 388 Q 577 378 524 370 C 494 365 484 362 511 348 Q 544 329 594 337 L 633 346 Z" fill="lightgray"></path> 
<path d="M 660 203 Q 739 215 853 218 Q 910 218 916 228 Q 920 240 905 252 Q 853 288 792 272 Q 737 260 661 243 L 609 233 Q 506 217 383 196 Q 364 193 379 177 Q 392 164 410 160 Q 431 156 446 160 Q 521 184 610 196 L 660 203 Z" fill="lightgray"></path> 
<path d="M 654 39 Q 657 129 660 203 L 661 243 Q 662 256 663 269 Q 666 315 662 322 Q 647 337 633 346 C 608 363 586 366 594 337 Q 606 298 609 238 Q 608 237 609 233 L 610 196 Q 610 136 611 32 C 611 2 653 9 654 39 Z" fill="lightgray"></path> 
<path d="M 803 57 Q 724 51 654 39 L 611 32 Q 550 25 497 9 Q 484 8 489 22 Q 496 46 506 71 Q 513 92 506 106 Q 496 124 476 140 Q 467 147 457 147 Q 447 146 451 127 Q 461 85 448 49 Q 438 13 419 0 Q 401 -13 406 -27 Q 415 -43 430 -54 Q 440 -61 451 -55 Q 487 -24 690 13 Q 774 26 798 20 C 828 17 833 59 803 57 Z" fill="lightgray"></path> 
<path d="M 798 20 Q 794 1 820 -38 Q 830 -50 838 -39 Q 848 -24 849 112 Q 850 127 854 139 Q 860 152 849 163 Q 830 173 801 185 Q 789 189 780 183 Q 774 179 778 168 Q 802 144 803 57 L 798 20 Z" fill="lightgray"></path> 
<path d="M 1329 620 L 1315 625 Q 1306 628 1289 630 Q 1272 631 1264 627 Q 1256 623 1258 617 Q 1258 610 1269 603 Q 1280 595 1288 575 Q 1297 555 1299 544 L 1317 426 Q 1321 377 1338 365 Q 1358 346 1366 380 L 1365 410 L 1360 483 L 1357 510 L 1348 588 C 1345 614 1345 614 1329 620 Z" fill="lightgray"></path> 
<path d="M 1560 397 L 1567 382 Q 1568 376 1579 373 Q 1590 370 1605 382 Q 1620 394 1636 438 L 1667 530 Q 1685 579 1692 591 Q 1700 603 1700 606 Q 1701 609 1699 616 Q 1689 626 1682 632 Q 1676 638 1655 649 L 1623 664 L 1604 670 Q 1599 670 1592 666 L 1568 657 Q 1556 652 1522 648 L 1440 634 L 1329 620 C 1299 616 1318 584 1348 588 L 1446 602 Q 1538 614 1554 615 Q 1571 616 1582 611 Q 1600 604 1594 574 L 1588 533 L 1585 510 L 1566 424 C 1560 397 1560 397 1560 397 Z" fill="lightgray"></path> 
<path d="M 1423 518 L 1357 510 C 1327 506 1330 481 1360 483 L 1407 486 Q 1452 488 1508 497 Q 1564 505 1566 507 Q 1568 509 1585 510 C 1615 512 1617 524 1588 533 L 1566 540 Q 1556 543 1546 543 Q 1536 543 1490 533 Q 1457 523 1423 518 Z" fill="lightgray"></path> 
<path d="M 1366 380 L 1419 386 Q 1434 386 1448 388 L 1560 397 C 1590 399 1593 411 1566 424 L 1553 430 Q 1550 434 1533 432 L 1420 418 Q 1389 414 1365 410 C 1335 405 1336 377 1366 380 Z" fill="lightgray"></path> 
<path d="M 1500 194 L 1506 282 Q 1512 317 1516 325 Q 1520 333 1520 340 Q 1520 346 1507 353 Q 1494 360 1468 366 Q 1443 372 1436 365 L 1433 353 L 1438 343 Q 1438 341 1444 324 Q 1451 307 1452 279 L 1454 188 C 1455 158 1498 164 1500 194 Z" fill="lightgray"></path> 
<path d="M 1260 315 L 1294 268 Q 1304 254 1310 247 L 1329 230 Q 1340 222 1355 224 Q 1370 225 1373 252 Q 1376 278 1359 291 Q 1343 304 1318 311 L 1282 323 L 1269 326 Q 1260 328 1258 323 Q 1256 318 1260 315 Z" fill="lightgray"></path> 
<path d="M 1575 259 L 1564 252 Q 1555 247 1560 242 Q 1566 236 1573 241 L 1674 290 L 1720 311 Q 1731 315 1750 319 Q 1758 324 1758 332 Q 1756 338 1748 350 Q 1718 380 1704 385 Q 1690 390 1688 389 Q 1685 387 1680 371 Q 1676 355 1625 302 L 1575 259 Z" fill="lightgray"></path> 
<path d="M 1556 163 L 1731 174 Q 1779 174 1792 177 L 1812 179 Q 1820 180 1821 185 Q 1824 195 1796 212 L 1772 226 Q 1755 229 1745 230 Q 1736 230 1687 222 L 1631 212 L 1500 194 L 1454 188 L 1360 177 Q 1356 175 1276 165 Q 1197 154 1172 154 L 1156 152 Q 1148 152 1148 146 Q 1148 139 1158 130 Q 1168 120 1191 116 Q 1214 112 1229 115 L 1258 123 L 1374 142 L 1406 148 L 1461 154 Q 1476 154 1506 158 L 1556 163 Z" fill="lightgray"></path> 
<path d="M 1374 142 L 1364 100 Q 1364 95 1339 60 Q 1315 24 1292 1 Q 1270 -23 1222 -58 Q 1175 -93 1140 -112 L 1090 -137 Q 1085 -139 1083 -143 Q 1082 -147 1085 -149 Q 1087 -150 1094 -148 L 1112 -144 L 1175 -126 Q 1190 -122 1234 -97 Q 1325 -45 1376 17 Q 1406 54 1411 62 L 1423 80 L 1438 91 Q 1447 96 1441 108 Q 1435 120 1427 128 L 1406 148 C 1384 169 1381 171 1374 142 Z" fill="lightgray"></path> 
<path d="M 1512 124 L 1512 113 Q 1514 86 1513 80 L 1507 -2 Q 1503 -69 1524 -102 Q 1534 -118 1564 -136 Q 1594 -154 1634 -161 Q 1675 -169 1715 -171 Q 1756 -174 1825 -167 Q 1894 -160 1938 -138 Q 1983 -116 1985 -94 Q 1986 -85 1975 -64 Q 1963 -44 1962 -34 Q 1962 -25 1960 -14 L 1950 62 L 1950 74 Q 1949 82 1944 83 Q 1940 83 1937 74 L 1926 25 Q 1910 -61 1856 -82 Q 1826 -103 1736 -105 Q 1695 -106 1672 -102 Q 1634 -99 1607 -89 Q 1581 -80 1567 -58 Q 1554 -36 1567 38 L 1576 96 L 1588 126 Q 1588 144 1556 163 C 1532 181 1500 187 1506 158 L 1510 137 Q 1511 136 1512 124 Z" fill="lightgray"></path> 
      <clipPath id="make-me-a-hanzi-clip-0">
      <path d="M 327 462 Q 343 468 360 471 Q 391 481 397 485 Q 404 494 400 502 Q 393 514 362 519 Q 346 522 329 518 L 279 501 Q 204 477 132 465 Q 95 456 122 441 Q 158 422 234 439 Q 255 445 278 450 L 327 462 Z" fill="lightgray"></path>
      </clipPath>
      <path clip-path="url(#make-me-a-hanzi-clip-0)" d="M 124 454 L 162 450 L 203 456 L 346 495 L 388 495 " fill="none" id="make-me-a-hanzi-animation-0" stroke-dasharray="398 796" stroke-linecap="round"></path>

      <clipPath id="make-me-a-hanzi-clip-1">
      <path d="M 273 277 Q 270 187 269 74 Q 268 50 255 41 Q 246 38 185 55 Q 152 68 155 59 Q 156 52 175 35 Q 235 -19 249 -48 Q 265 -82 281 -85 Q 296 -86 311 -52 Q 330 -6 331 68 Q 324 195 324 320 L 324 350 Q 324 407 327 462 L 329 518 Q 329 620 350 690 Q 366 721 312 743 Q 278 762 259 755 Q 241 749 257 726 Q 279 699 279 665 Q 280 647 279 501 L 278 450 Q 277 392 274 317 L 273 277 Z" fill="lightgray"></path>
      </clipPath>
      <path clip-path="url(#make-me-a-hanzi-clip-1)" d="M 265 740 L 282 732 L 313 700 L 303 538 L 300 60 L 293 28 L 276 -2 L 174 48 L 172 56 L 161 56 " fill="none" id="make-me-a-hanzi-animation-1" stroke-dasharray="1032 2064" stroke-linecap="round"></path>

      <clipPath id="make-me-a-hanzi-clip-2">
      <path d="M 274 317 Q 187 262 112 209 Q 81 188 59 180 Q 47 174 45 166 Q 45 157 59 145 Q 78 132 101 125 Q 117 121 126 134 Q 168 183 273 277 L 324 320 Q 331 327 342 335 Q 361 348 369 362 Q 375 375 364 374 Q 358 373 324 350 L 274 317 Z" fill="lightgray"></path>
      </clipPath>
      <path clip-path="url(#make-me-a-hanzi-clip-2)" d="M 56 164 L 103 162 L 363 367 " fill="none" id="make-me-a-hanzi-animation-2" stroke-dasharray="506 1012" stroke-linecap="round"></path>

      <clipPath id="make-me-a-hanzi-clip-3">
      <path d="M 627 719 Q 579 677 457 621 Q 453 612 457 610 Q 505 610 634 663 Q 656 678 722 692 Q 738 693 741 700 Q 744 710 733 720 Q 714 735 673 750 Q 660 757 647 756 Q 640 752 640 742 Q 639 729 627 719 Z" fill="lightgray"></path>
      </clipPath>
      <path clip-path="url(#make-me-a-hanzi-clip-3)" d="M 731 705 L 668 715 L 578 660 L 461 616 " fill="none" id="make-me-a-hanzi-animation-3" stroke-dasharray="422 844" stroke-linecap="round"></path>

      <clipPath id="make-me-a-hanzi-clip-4">
      <path d="M 462 528 Q 484 506 506 478 Q 516 465 530 464 Q 540 464 545 475 Q 551 487 546 514 Q 539 542 463 570 Q 450 574 444 573 Q 440 570 439 559 Q 442 549 462 528 Z" fill="lightgray"></path>
      </clipPath>
      <path clip-path="url(#make-me-a-hanzi-clip-4)" d="M 448 564 L 507 520 L 530 480 " fill="none" id="make-me-a-hanzi-animation-4" stroke-dasharray="248 496" stroke-linecap="round"></path>

      <clipPath id="make-me-a-hanzi-clip-5">
      <path d="M 564 581 Q 604 514 627 510 Q 639 507 646 522 Q 649 532 643 552 Q 628 585 571 604 Q 564 607 561 597 Q 560 590 564 581 Z" fill="lightgray"></path>
      </clipPath>
      <path clip-path="url(#make-me-a-hanzi-clip-5)" d="M 571 594 L 608 559 L 630 526 " fill="none" id="make-me-a-hanzi-animation-5" stroke-dasharray="219 438" stroke-linecap="round"></path>

      <clipPath id="make-me-a-hanzi-clip-6">
      <path d="M 780 608 Q 744 556 671 479 Q 665 472 671 465 Q 678 464 686 468 Q 798 553 852 586 Q 870 590 866 601 Q 860 617 842 636 Q 823 654 801 656 Q 786 656 787 637 Q 790 624 780 608 Z" fill="lightgray"></path>
      </clipPath>
      <path clip-path="url(#make-me-a-hanzi-clip-6)" d="M 801 642 L 819 608 L 677 472 " fill="none" id="make-me-a-hanzi-animation-6" stroke-dasharray="363 726" stroke-linecap="round"></path>

      <clipPath id="make-me-a-hanzi-clip-7">
      <path d="M 524 370 Q 531 386 541 398 Q 548 408 536 420 Q 500 445 479 440 Q 470 437 473 426 Q 488 357 423 275 Q 407 256 400 244 Q 394 231 406 236 Q 443 240 502 330 Q 508 345 511 348 L 524 370 Z" fill="lightgray"></path>
      </clipPath>
      <path clip-path="url(#make-me-a-hanzi-clip-7)" d="M 485 429 L 506 400 L 481 330 L 449 283 L 409 244 " fill="none" id="make-me-a-hanzi-animation-7" stroke-dasharray="351 702" stroke-linecap="round"></path>

      <clipPath id="make-me-a-hanzi-clip-8">
      <path d="M 633 346 Q 789 382 795 387 Q 804 394 799 403 Q 792 413 764 420 Q 734 426 705 413 Q 666 400 623 388 Q 577 378 524 370 C 494 365 484 362 511 348 Q 544 329 594 337 L 633 346 Z" fill="lightgray"></path>
      </clipPath>
      <path clip-path="url(#make-me-a-hanzi-clip-8)" d="M 519 351 L 642 368 L 754 399 L 789 397 " fill="none" id="make-me-a-hanzi-animation-8" stroke-dasharray="403 806" stroke-linecap="round"></path>

      <clipPath id="make-me-a-hanzi-clip-9">
      <path d="M 660 203 Q 739 215 853 218 Q 910 218 916 228 Q 920 240 905 252 Q 853 288 792 272 Q 737 260 661 243 L 609 233 Q 506 217 383 196 Q 364 193 379 177 Q 392 164 410 160 Q 431 156 446 160 Q 521 184 610 196 L 660 203 Z" fill="lightgray"></path>
      </clipPath>
      <path clip-path="url(#make-me-a-hanzi-clip-9)" d="M 382 186 L 437 182 L 563 208 L 805 246 L 875 243 L 907 233 " fill="none" id="make-me-a-hanzi-animation-9" stroke-dasharray="660 1320" stroke-linecap="round"></path>

      <clipPath id="make-me-a-hanzi-clip-10">
      <path d="M 654 39 Q 657 129 660 203 L 661 243 Q 662 256 663 269 Q 666 315 662 322 Q 647 337 633 346 C 608 363 586 366 594 337 Q 606 298 609 238 Q 608 237 609 233 L 610 196 Q 610 136 611 32 C 611 2 653 9 654 39 Z" fill="lightgray"></path>
      </clipPath>
      <path clip-path="url(#make-me-a-hanzi-clip-10)" d="M 602 333 L 627 317 L 635 281 L 633 64 L 617 41 " fill="none" id="make-me-a-hanzi-animation-10" stroke-dasharray="440 880" stroke-linecap="round"></path>

      <clipPath id="make-me-a-hanzi-clip-11">
      <path d="M 803 57 Q 724 51 654 39 L 611 32 Q 550 25 497 9 Q 484 8 489 22 Q 496 46 506 71 Q 513 92 506 106 Q 496 124 476 140 Q 467 147 457 147 Q 447 146 451 127 Q 461 85 448 49 Q 438 13 419 0 Q 401 -13 406 -27 Q 415 -43 430 -54 Q 440 -61 451 -55 Q 487 -24 690 13 Q 774 26 798 20 C 828 17 833 59 803 57 Z" fill="lightgray"></path>
      </clipPath>
      <path clip-path="url(#make-me-a-hanzi-clip-11)" d="M 460 137 L 482 93 L 463 14 L 463 -6 L 474 -10 L 502 -11 L 692 30 L 773 37 L 787 40 L 796 52 " fill="none" id="make-me-a-hanzi-animation-11" stroke-dasharray="623 1246" stroke-linecap="round"></path>

      <clipPath id="make-me-a-hanzi-clip-12">
      <path d="M 798 20 Q 794 1 820 -38 Q 830 -50 838 -39 Q 848 -24 849 112 Q 850 127 854 139 Q 860 152 849 163 Q 830 173 801 185 Q 789 189 780 183 Q 774 179 778 168 Q 802 144 803 57 L 798 20 Z" fill="lightgray"></path>
      </clipPath>
      <path clip-path="url(#make-me-a-hanzi-clip-12)" d="M 789 174 L 824 140 L 822 9 L 829 -34 " fill="none" id="make-me-a-hanzi-animation-12" stroke-dasharray="351 702" stroke-linecap="round"></path>

      <clipPath id="make-me-a-hanzi-clip-13">
      <path d="M 1329 620 L 1315 625 Q 1306 628 1289 630 Q 1272 631 1264 627 Q 1256 623 1258 617 Q 1258 610 1269 603 Q 1280 595 1288 575 Q 1297 555 1299 544 L 1317 426 Q 1321 377 1338 365 Q 1358 346 1366 380 L 1365 410 L 1360 483 L 1357 510 L 1348 588 C 1345 614 1345 614 1329 620 Z" fill="lightgray"></path>
      </clipPath>
      <path clip-path="url(#make-me-a-hanzi-clip-13)" d="M 1269 617 L 1303 602 L 1320 577 L 1344 393 L 1351 375 " fill="none" id="make-me-a-hanzi-animation-13" stroke-dasharray="400 800" stroke-linecap="round"></path>

      <clipPath id="make-me-a-hanzi-clip-14">
      <path d="M 1560 397 L 1567 382 Q 1568 376 1579 373 Q 1590 370 1605 382 Q 1620 394 1636 438 L 1667 530 Q 1685 579 1692 591 Q 1700 603 1700 606 Q 1701 609 1699 616 Q 1689 626 1682 632 Q 1676 638 1655 649 L 1623 664 L 1604 670 Q 1599 670 1592 666 L 1568 657 Q 1556 652 1522 648 L 1440 634 L 1329 620 C 1299 616 1318 584 1348 588 L 1446 602 Q 1538 614 1554 615 Q 1571 616 1582 611 Q 1600 604 1594 574 L 1588 533 L 1585 510 L 1566 424 C 1560 397 1560 397 1560 397 Z" fill="lightgray"></path>
      </clipPath>
      <path clip-path="url(#make-me-a-hanzi-clip-14)" d="M 1337 618 L 1367 607 L 1534 633 L 1596 637 L 1623 623 L 1643 600 L 1641 586 L 1595 416 L 1587 401 L 1577 400 " fill="none" id="make-me-a-hanzi-animation-14" stroke-dasharray="669 1338" stroke-linecap="round"></path>

      <clipPath id="make-me-a-hanzi-clip-15">
      <path d="M 1423 518 L 1357 510 C 1327 506 1330 481 1360 483 L 1407 486 Q 1452 488 1508 497 Q 1564 505 1566 507 Q 1568 509 1585 510 C 1615 512 1617 524 1588 533 L 1566 540 Q 1556 543 1546 543 Q 1536 543 1490 533 Q 1457 523 1423 518 Z" fill="lightgray"></path>
      </clipPath>
      <path clip-path="url(#make-me-a-hanzi-clip-15)" d="M 1364 504 L 1373 498 L 1426 502 L 1580 528 " fill="none" id="make-me-a-hanzi-animation-15" stroke-dasharray="348 696" stroke-linecap="round"></path>

      <clipPath id="make-me-a-hanzi-clip-16">
      <path d="M 1366 380 L 1419 386 Q 1434 386 1448 388 L 1560 397 C 1590 399 1593 411 1566 424 L 1553 430 Q 1550 434 1533 432 L 1420 418 Q 1389 414 1365 410 C 1335 405 1336 377 1366 380 Z" fill="lightgray"></path>
      </clipPath>
      <path clip-path="url(#make-me-a-hanzi-clip-16)" d="M 1372 388 L 1386 398 L 1556 419 " fill="none" id="make-me-a-hanzi-animation-16" stroke-dasharray="316 632" stroke-linecap="round"></path>

      <clipPath id="make-me-a-hanzi-clip-17">
      <path d="M 1500 194 L 1506 282 Q 1512 317 1516 325 Q 1520 333 1520 340 Q 1520 346 1507 353 Q 1494 360 1468 366 Q 1443 372 1436 365 L 1433 353 L 1438 343 Q 1438 341 1444 324 Q 1451 307 1452 279 L 1454 188 C 1455 158 1498 164 1500 194 Z" fill="lightgray"></path>
      </clipPath>
      <path clip-path="url(#make-me-a-hanzi-clip-17)" d="M 1444 357 L 1480 327 L 1478 215 L 1461 196 " fill="none" id="make-me-a-hanzi-animation-17" stroke-dasharray="312 624" stroke-linecap="round"></path>

      <clipPath id="make-me-a-hanzi-clip-18">
      <path d="M 1260 315 L 1294 268 Q 1304 254 1310 247 L 1329 230 Q 1340 222 1355 224 Q 1370 225 1373 252 Q 1376 278 1359 291 Q 1343 304 1318 311 L 1282 323 L 1269 326 Q 1260 328 1258 323 Q 1256 318 1260 315 Z" fill="lightgray"></path>
      </clipPath>
      <path clip-path="url(#make-me-a-hanzi-clip-18)" d="M 1265 320 L 1340 264 L 1353 241 " fill="none" id="make-me-a-hanzi-animation-18" stroke-dasharray="248 496" stroke-linecap="round"></path>

      <clipPath id="make-me-a-hanzi-clip-19">
      <path d="M 1575 259 L 1564 252 Q 1555 247 1560 242 Q 1566 236 1573 241 L 1674 290 L 1720 311 Q 1731 315 1750 319 Q 1758 324 1758 332 Q 1756 338 1748 350 Q 1718 380 1704 385 Q 1690 390 1688 389 Q 1685 387 1680 371 Q 1676 355 1625 302 L 1575 259 Z" fill="lightgray"></path>
      </clipPath>
      <path clip-path="url(#make-me-a-hanzi-clip-19)" d="M 1690 384 L 1702 357 L 1701 338 L 1567 245 " fill="none" id="make-me-a-hanzi-animation-19" stroke-dasharray="340 680" stroke-linecap="round"></path>

      <clipPath id="make-me-a-hanzi-clip-20">
      <path d="M 1556 163 L 1731 174 Q 1779 174 1792 177 L 1812 179 Q 1820 180 1821 185 Q 1824 195 1796 212 L 1772 226 Q 1755 229 1745 230 Q 1736 230 1687 222 L 1631 212 L 1500 194 L 1454 188 L 1360 177 Q 1356 175 1276 165 Q 1197 154 1172 154 L 1156 152 Q 1148 152 1148 146 Q 1148 139 1158 130 Q 1168 120 1191 116 Q 1214 112 1229 115 L 1258 123 L 1374 142 L 1406 148 L 1461 154 Q 1476 154 1506 158 L 1556 163 Z" fill="lightgray"></path>
      </clipPath>
      <path clip-path="url(#make-me-a-hanzi-clip-20)" d="M 1156 144 L 1212 135 L 1385 163 L 1735 202 L 1765 201 L 1813 187 " fill="none" id="make-me-a-hanzi-animation-20" stroke-dasharray="792 1584" stroke-linecap="round"></path>

      <clipPath id="make-me-a-hanzi-clip-21">
      <path d="M 1374 142 L 1364 100 Q 1364 95 1339 60 Q 1315 24 1292 1 Q 1270 -23 1222 -58 Q 1175 -93 1140 -112 L 1090 -137 Q 1085 -139 1083 -143 Q 1082 -147 1085 -149 Q 1087 -150 1094 -148 L 1112 -144 L 1175 -126 Q 1190 -122 1234 -97 Q 1325 -45 1376 17 Q 1406 54 1411 62 L 1423 80 L 1438 91 Q 1447 96 1441 108 Q 1435 120 1427 128 L 1406 148 C 1384 169 1381 171 1374 142 Z" fill="lightgray"></path>
      </clipPath>
      <path clip-path="url(#make-me-a-hanzi-clip-21)" d="M 1381 133 L 1401 106 L 1362 42 L 1305 -20 L 1245 -67 L 1181 -107 L 1089 -144 " fill="none" id="make-me-a-hanzi-animation-21" stroke-dasharray="572 1144" stroke-linecap="round"></path>

      <clipPath id="make-me-a-hanzi-clip-22">
      <path d="M 1512 124 L 1512 113 Q 1514 86 1513 80 L 1507 -2 Q 1503 -69 1524 -102 Q 1534 -118 1564 -136 Q 1594 -154 1634 -161 Q 1675 -169 1715 -171 Q 1756 -174 1825 -167 Q 1894 -160 1938 -138 Q 1983 -116 1985 -94 Q 1986 -85 1975 -64 Q 1963 -44 1962 -34 Q 1962 -25 1960 -14 L 1950 62 L 1950 74 Q 1949 82 1944 83 Q 1940 83 1937 74 L 1926 25 Q 1910 -61 1856 -82 Q 1826 -103 1736 -105 Q 1695 -106 1672 -102 Q 1634 -99 1607 -89 Q 1581 -80 1567 -58 Q 1554 -36 1567 38 L 1576 96 L 1588 126 Q 1588 144 1556 163 C 1532 181 1500 187 1506 158 L 1510 137 Q 1511 136 1512 124 Z" fill="lightgray"></path>
      </clipPath>
      <path clip-path="url(#make-me-a-hanzi-clip-22)" d="M 1513 154 L 1548 124 L 1533 -12 L 1539 -67 L 1551 -88 L 1573 -106 L 1633 -129 L 1723 -139 L 1812 -134 L 1884 -115 L 1924 -92 L 1931 -86 L 1944 76 " fill="none" id="make-me-a-hanzi-animation-22" stroke-dasharray="955 1910" stroke-linecap="round"></path>

</g>
</svg>
