<svg version="1.1" viewBox="0 0 2048 1024" xmlns="http://www.w3.org/2000/svg">
  <g stroke="lightgray" stroke-dasharray="1,1" stroke-width="1" transform="scale(4, 4)">
    <line x1="0" y1="0" x2="256" y2="256"></line>
    <line x1="256" y1="0" x2="0" y2="256"></line>
    <line x1="128" y1="0" x2="128" y2="256"></line>
    <line x1="0" y1="128" x2="256" y2="128"></line>
    <line x1="256" y1="0" x2="512" y2="256"></line>
    <line x1="512" y1="0" x2="256" y2="256"></line>
    <line x1="384" y1="0" x2="384" y2="256"></line>
    <line x1="256" y1="128" x2="512" y2="128"></line>
  </g>
<g transform="scale(1, -1) translate(0, -850)">
   <style type="text/css">
    @keyframes keyframes0 {
      from {
       stroke: black;
       stroke-dashoffset: 503;
       stroke-width: 128;
       }
       62% {
       animation-timing-function: step-end;
       stroke: black;
       stroke-dashoffset: 0;
       stroke-width: 128;
       }
       to {
       stroke: black;
       stroke-width: 1024;
       }
       }
       #make-me-a-hanzi-animation-0 {
         animation: keyframes0 0.659342s both;
         animation-delay: 0.000000s;
         animation-timing-function: linear;
       }
    @keyframes keyframes1 {
      from {
       stroke: black;
       stroke-dashoffset: 570;
       stroke-width: 128;
       }
       65% {
       animation-timing-function: step-end;
       stroke: black;
       stroke-dashoffset: 0;
       stroke-width: 128;
       }
       to {
       stroke: black;
       stroke-width: 1024;
       }
       }
       #make-me-a-hanzi-animation-1 {
         animation: keyframes1 0.713867s both;
         animation-delay: 0.659342s;
         animation-timing-function: linear;
       }
    @keyframes keyframes2 {
      from {
       stroke: black;
       stroke-dashoffset: 722;
       stroke-width: 128;
       }
       70% {
       animation-timing-function: step-end;
       stroke: black;
       stroke-dashoffset: 0;
       stroke-width: 128;
       }
       to {
       stroke: black;
       stroke-width: 1024;
       }
       }
       #make-me-a-hanzi-animation-2 {
         animation: keyframes2 0.837565s both;
         animation-delay: 1.373210s;
         animation-timing-function: linear;
       }
    @keyframes keyframes3 {
      from {
       stroke: black;
       stroke-dashoffset: 950;
       stroke-width: 128;
       }
       76% {
       animation-timing-function: step-end;
       stroke: black;
       stroke-dashoffset: 0;
       stroke-width: 128;
       }
       to {
       stroke: black;
       stroke-width: 1024;
       }
       }
       #make-me-a-hanzi-animation-3 {
         animation: keyframes3 1.023112s both;
         animation-delay: 2.210775s;
         animation-timing-function: linear;
       }
    @keyframes keyframes4 {
      from {
       stroke: black;
       stroke-dashoffset: 520;
       stroke-width: 128;
       }
       63% {
       animation-timing-function: step-end;
       stroke: black;
       stroke-dashoffset: 0;
       stroke-width: 128;
       }
       to {
       stroke: black;
       stroke-width: 1024;
       }
       }
       #make-me-a-hanzi-animation-4 {
         animation: keyframes4 0.673177s both;
         animation-delay: 3.233887s;
         animation-timing-function: linear;
       }
    @keyframes keyframes5 {
      from {
       stroke: black;
       stroke-dashoffset: 656;
       stroke-width: 128;
       }
       68% {
       animation-timing-function: step-end;
       stroke: black;
       stroke-dashoffset: 0;
       stroke-width: 128;
       }
       to {
       stroke: black;
       stroke-width: 1024;
       }
       }
       #make-me-a-hanzi-animation-5 {
         animation: keyframes5 0.783854s both;
         animation-delay: 3.907064s;
         animation-timing-function: linear;
       }
    @keyframes keyframes6 {
      from {
       stroke: black;
       stroke-dashoffset: 622;
       stroke-width: 128;
       }
       67% {
       animation-timing-function: step-end;
       stroke: black;
       stroke-dashoffset: 0;
       stroke-width: 128;
       }
       to {
       stroke: black;
       stroke-width: 1024;
       }
       }
       #make-me-a-hanzi-animation-6 {
         animation: keyframes6 0.756185s both;
         animation-delay: 4.690918s;
         animation-timing-function: linear;
       }
    @keyframes keyframes7 {
      from {
       stroke: black;
       stroke-dashoffset: 754;
       stroke-width: 128;
       }
       71% {
       animation-timing-function: step-end;
       stroke: black;
       stroke-dashoffset: 0;
       stroke-width: 128;
       }
       to {
       stroke: black;
       stroke-width: 1024;
       }
       }
       #make-me-a-hanzi-animation-7 {
         animation: keyframes7 0.863607s both;
         animation-delay: 5.447103s;
         animation-timing-function: linear;
       }
    @keyframes keyframes8 {
      from {
       stroke: black;
       stroke-dashoffset: 540;
       stroke-width: 128;
       }
       64% {
       animation-timing-function: step-end;
       stroke: black;
       stroke-dashoffset: 0;
       stroke-width: 128;
       }
       to {
       stroke: black;
       stroke-width: 1024;
       }
       }
       #make-me-a-hanzi-animation-8 {
         animation: keyframes8 0.689453s both;
         animation-delay: 6.310710s;
         animation-timing-function: linear;
       }
    @keyframes keyframes9 {
      from {
       stroke: black;
       stroke-dashoffset: 819;
       stroke-width: 128;
       }
       73% {
       animation-timing-function: step-end;
       stroke: black;
       stroke-dashoffset: 0;
       stroke-width: 128;
       }
       to {
       stroke: black;
       stroke-width: 1024;
       }
       }
       #make-me-a-hanzi-animation-9 {
         animation: keyframes9 0.916504s both;
         animation-delay: 7.000163s;
         animation-timing-function: linear;
       }
    @keyframes keyframes10 {
      from {
       stroke: black;
       stroke-dashoffset: 790;
       stroke-width: 128;
       }
       72% {
       animation-timing-function: step-end;
       stroke: black;
       stroke-dashoffset: 0;
       stroke-width: 128;
       }
       to {
       stroke: black;
       stroke-width: 1024;
       }
       }
       #make-me-a-hanzi-animation-10 {
         animation: keyframes10 0.892904s both;
         animation-delay: 7.916667s;
         animation-timing-function: linear;
       }
    @keyframes keyframes11 {
      from {
       stroke: black;
       stroke-dashoffset: 388;
       stroke-width: 128;
       }
       56% {
       animation-timing-function: step-end;
       stroke: black;
       stroke-dashoffset: 0;
       stroke-width: 128;
       }
       to {
       stroke: black;
       stroke-width: 1024;
       }
       }
       #make-me-a-hanzi-animation-11 {
         animation: keyframes11 0.565755s both;
         animation-delay: 8.809570s;
         animation-timing-function: linear;
       }
    @keyframes keyframes12 {
      from {
       stroke: black;
       stroke-dashoffset: 377;
       stroke-width: 128;
       }
       55% {
       animation-timing-function: step-end;
       stroke: black;
       stroke-dashoffset: 0;
       stroke-width: 128;
       }
       to {
       stroke: black;
       stroke-width: 1024;
       }
       }
       #make-me-a-hanzi-animation-12 {
         animation: keyframes12 0.556803s both;
         animation-delay: 9.375326s;
         animation-timing-function: linear;
       }
    @keyframes keyframes13 {
      from {
       stroke: black;
       stroke-dashoffset: 476;
       stroke-width: 128;
       }
       61% {
       animation-timing-function: step-end;
       stroke: black;
       stroke-dashoffset: 0;
       stroke-width: 128;
       }
       to {
       stroke: black;
       stroke-width: 1024;
       }
       }
       #make-me-a-hanzi-animation-13 {
         animation: keyframes13 0.637370s both;
         animation-delay: 9.932129s;
         animation-timing-function: linear;
       }
    @keyframes keyframes14 {
      from {
       stroke: black;
       stroke-dashoffset: 447;
       stroke-width: 128;
       }
       59% {
       animation-timing-function: step-end;
       stroke: black;
       stroke-dashoffset: 0;
       stroke-width: 128;
       }
       to {
       stroke: black;
       stroke-width: 1024;
       }
       }
       #make-me-a-hanzi-animation-14 {
         animation: keyframes14 0.613770s both;
         animation-delay: 10.569499s;
         animation-timing-function: linear;
       }
    @keyframes keyframes15 {
      from {
       stroke: black;
       stroke-dashoffset: 982;
       stroke-width: 128;
       }
       76% {
       animation-timing-function: step-end;
       stroke: black;
       stroke-dashoffset: 0;
       stroke-width: 128;
       }
       to {
       stroke: black;
       stroke-width: 1024;
       }
       }
       #make-me-a-hanzi-animation-15 {
         animation: keyframes15 1.049154s both;
         animation-delay: 11.183268s;
         animation-timing-function: linear;
       }
    @keyframes keyframes16 {
      from {
       stroke: black;
       stroke-dashoffset: 716;
       stroke-width: 128;
       }
       70% {
       animation-timing-function: step-end;
       stroke: black;
       stroke-dashoffset: 0;
       stroke-width: 128;
       }
       to {
       stroke: black;
       stroke-width: 1024;
       }
       }
       #make-me-a-hanzi-animation-16 {
         animation: keyframes16 0.832682s both;
         animation-delay: 12.232422s;
         animation-timing-function: linear;
       }
    @keyframes keyframes17 {
      from {
       stroke: black;
       stroke-dashoffset: 705;
       stroke-width: 128;
       }
       70% {
       animation-timing-function: step-end;
       stroke: black;
       stroke-dashoffset: 0;
       stroke-width: 128;
       }
       to {
       stroke: black;
       stroke-width: 1024;
       }
       }
       #make-me-a-hanzi-animation-17 {
         animation: keyframes17 0.823730s both;
         animation-delay: 13.065104s;
         animation-timing-function: linear;
       }
    @keyframes keyframes18 {
      from {
       stroke: black;
       stroke-dashoffset: 995;
       stroke-width: 128;
       }
       76% {
       animation-timing-function: step-end;
       stroke: black;
       stroke-dashoffset: 0;
       stroke-width: 128;
       }
       to {
       stroke: black;
       stroke-width: 1024;
       }
       }
       #make-me-a-hanzi-animation-18 {
         animation: keyframes18 1.059733s both;
         animation-delay: 13.888835s;
         animation-timing-function: linear;
       }
</style>
<path d="M 365 471 L 412 480 Q 456 489 456 499 Q 456 504 441 515 Q 426 525 415 527 Q 404 528 397 526 L 365 516 L 317 506 L 281 500 L 206 492 Q 191 488 194 479 Q 197 470 212 464 Q 228 457 249 457 L 313 461 L 365 471 Z" fill="lightgray"></path> 
<path d="M 361 372 L 365 471 L 365 516 L 370 582 Q 371 599 376 612 Q 382 624 381 629 Q 381 634 370 644 Q 348 659 324 668 Q 291 674 289 663 Q 286 660 292 648 L 300 634 L 309 603 Q 314 589 314 569 L 317 506 L 313 461 L 314 402 L 313 362 C 312 332 360 342 361 372 Z" fill="lightgray"></path> 
<path d="M 395 378 L 361 372 L 313 362 L 257 353 Q 231 348 210 346 Q 171 339 133 336 L 115 333 Q 94 330 93 329 Q 80 322 101 306 Q 127 293 134 291 Q 142 288 153 288 Q 164 288 179 293 Q 194 298 218 304 L 280 319 L 358 333 L 433 344 L 498 352 Q 525 356 548 356 Q 566 354 570 362 Q 575 369 572 377 Q 567 393 520 397 Q 506 398 470 392 L 395 378 Z" fill="lightgray"></path> 
<path d="M 467 528 L 464 507 Q 463 497 457 478 Q 455 476 447 459 Q 440 441 423 416 Q 406 390 395 378 L 358 333 L 306 277 Q 297 265 249 223 Q 201 181 166 153 Q 131 124 84 98 L 37 70 Q 34 68 34 65 Q 35 61 44 62 L 65 66 Q 86 69 111 82 Q 198 125 256 168 L 290 196 L 328 231 L 370 273 Q 385 288 433 344 L 470 392 L 529 472 L 542 486 Q 558 502 511 540 L 502 548 L 485 556 Q 467 557 467 542 L 467 528 Z" fill="lightgray"></path> 
<path d="M 290 196 L 306 190 Q 308 188 317 192 L 336 202 L 375 216 Q 388 222 397 220 Q 415 215 399 192 L 366 140 C 350 115 361 107 385 126 L 432 163 L 475 190 L 502 202 Q 504 210 504 213 Q 505 216 497 224 Q 490 232 474 239 L 449 252 Q 428 259 422 260 Q 417 261 393 249 Q 369 237 328 231 C 298 226 262 207 290 196 Z" fill="lightgray"></path> 
<path d="M 366 140 L 347 142 Q 330 145 326 142 L 321 137 Q 319 135 332 122 Q 346 109 346 88 L 347 60 L 347 24 L 346 -53 Q 346 -72 340 -88 Q 334 -104 326 -109 Q 313 -114 296 -108 L 275 -99 L 263 -96 Q 256 -94 254 -99 Q 253 -105 256 -106 L 269 -115 L 304 -151 Q 314 -160 321 -178 Q 329 -197 333 -199 Q 337 -201 353 -192 Q 390 -171 390 -90 L 392 44 L 392 76 L 392 110 Q 393 112 385 126 C 379 139 379 139 366 140 Z" fill="lightgray"></path> 
<path d="M 347 60 L 185 11 Q 170 6 157 8 Q 145 9 142 6 Q 139 -5 148 -13 L 176 -38 Q 197 -55 210 -46 L 224 -33 L 347 24 L 392 44 L 493 90 Q 502 93 499 101 Q 497 108 485 104 L 392 76 L 347 60 Z" fill="lightgray"></path> 
<path d="M 647 346 L 660 369 Q 683 408 701 446 L 745 550 Q 754 575 766 587 Q 779 598 766 616 Q 759 628 741 639 Q 723 650 710 653 Q 698 655 696 651 Q 694 647 695 630 Q 697 613 693 599 Q 688 564 655 479 L 620 394 Q 583 321 555 279 Q 532 239 525 231 L 514 218 Q 509 212 513 209 Q 518 206 523 209 L 542 223 Q 558 233 572 250 Q 593 271 604 286 L 626 315 L 647 346 Z" fill="lightgray"></path> 
<path d="M 737 332 L 809 346 Q 820 348 848 355 Q 876 362 893 364 Q 911 365 914 368 Q 918 371 919 379 Q 919 388 891 396 Q 864 404 845 404 Q 827 404 788 388 Q 750 371 678 353 L 647 346 C 618 339 597 322 626 315 L 638 312 Q 653 310 659 311 Q 665 311 708 326 L 737 332 Z" fill="lightgray"></path> 
<path d="M 708 326 L 715 288 Q 718 267 710 207 Q 703 147 701 137 Q 699 126 689 104 L 668 63 L 655 40 Q 636 6 596 -26 Q 556 -58 524 -71 L 490 -85 L 472 -90 Q 467 -92 468 -97 Q 470 -102 476 -102 L 493 -101 Q 562 -96 607 -72 Q 639 -52 657 -32 L 697 9 L 722 56 L 741 103 L 754 169 Q 762 208 764 224 Q 767 240 773 255 L 782 280 Q 785 297 769 308 L 752 322 Q 749 324 745 328 Q 741 332 737 332 C 712 349 703 355 708 326 Z" fill="lightgray"></path> 
<path d="M 689 104 L 647 163 Q 633 181 622 188 L 603 198 L 600 198 Q 576 201 571 196 Q 567 183 580 179 Q 593 174 598 168 Q 604 162 625 130 Q 634 117 650 96 L 668 63 L 697 9 L 752 -74 Q 763 -92 778 -109 Q 811 -150 889 -141 L 927 -138 Q 956 -136 964 -132 L 983 -127 Q 987 -126 986 -120 Q 986 -114 983 -113 L 959 -104 Q 922 -92 897 -80 Q 872 -68 832 -42 Q 792 -17 774 1 Q 756 18 722 56 L 689 104 Z" fill="lightgray"></path> 
<path d="M 1335 551 Q 1356 526 1378 496 Q 1388 481 1404 480 Q 1414 479 1421 491 Q 1428 504 1423 534 Q 1419 564 1337 597 Q 1322 603 1316 601 Q 1312 598 1311 585 Q 1312 575 1335 551 Z" fill="lightgray"></path> 
<path d="M 1480 614 Q 1499 587 1519 555 Q 1528 542 1541 539 Q 1550 538 1557 547 Q 1564 559 1563 585 Q 1560 615 1486 655 Q 1474 662 1468 661 Q 1464 658 1462 647 Q 1463 637 1480 614 Z" fill="lightgray"></path> 
<path d="M 1693 640 Q 1666 594 1610 520 Q 1604 513 1611 505 Q 1618 504 1627 509 Q 1724 591 1773 622 Q 1792 629 1787 640 Q 1780 656 1758 676 Q 1736 694 1712 695 Q 1696 694 1698 672 Q 1702 657 1693 640 Z" fill="lightgray"></path> 
<path d="M 1265 420 Q 1255 439 1246 446 Q 1227 459 1225 434 Q 1231 397 1172 336 Q 1153 315 1179 257 Q 1194 230 1214 258 L 1270 392 C 1275 403 1275 403 1265 420 Z" fill="lightgray"></path> 
<path d="M 1270 392 Q 1300 374 1334 385 Q 1496 430 1732 447 Q 1769 450 1785 447 Q 1800 440 1799 433 Q 1799 432 1751 353 Q 1744 340 1749 334 Q 1756 330 1774 340 Q 1837 377 1886 386 Q 1928 396 1927 406 Q 1926 416 1856 475 Q 1832 496 1769 483 Q 1622 470 1389 434 Q 1331 425 1272 421 Q 1268 421 1265 420 C 1235 417 1242 404 1270 392 Z" fill="lightgray"></path> 
<path d="M 1540 190 Q 1543 191 1623 252 Q 1660 280 1687 289 Q 1706 295 1700 311 Q 1697 327 1634 362 Q 1616 372 1594 364 Q 1534 342 1444 317 Q 1420 310 1363 312 Q 1341 313 1348 293 Q 1355 281 1374 270 Q 1402 254 1435 272 Q 1457 281 1570 319 Q 1583 325 1594 318 Q 1606 311 1600 297 L 1532 196 C 1517 174 1517 174 1540 190 Z" fill="lightgray"></path> 
<path d="M 1562 165 Q 1553 180 1540 190 L 1532 196 Q 1526 200 1522 202 Q 1512 209 1507 201 Q 1503 197 1510 184 Q 1514 174 1519 160 L 1530 117 Q 1542 33 1532 -25 Q 1526 -62 1516 -70 Q 1513 -73 1432 -57 Q 1422 -54 1416 -58 Q 1412 -59 1426 -71 Q 1478 -119 1506 -158 Q 1522 -176 1540 -167 Q 1562 -155 1579 -103 Q 1603 -13 1581 120 L 1562 165 Z" fill="lightgray"></path> 
<path d="M 1581 120 Q 1725 139 1902 123 Q 1926 120 1932 129 Q 1939 142 1927 154 Q 1899 182 1855 202 Q 1840 208 1814 200 Q 1766 191 1562 165 L 1519 160 Q 1408 151 1352 144 Q 1288 134 1194 134 Q 1181 134 1179 123 Q 1178 110 1197 96 Q 1213 83 1244 71 Q 1256 67 1273 75 Q 1289 81 1356 91 Q 1432 109 1530 117 L 1581 120 Z" fill="lightgray"></path> 
      <clipPath id="make-me-a-hanzi-clip-0">
      <path d="M 365 471 L 412 480 Q 456 489 456 499 Q 456 504 441 515 Q 426 525 415 527 Q 404 528 397 526 L 365 516 L 317 506 L 281 500 L 206 492 Q 191 488 194 479 Q 197 470 212 464 Q 228 457 249 457 L 313 461 L 365 471 Z" fill="lightgray"></path>
      </clipPath>
      <path clip-path="url(#make-me-a-hanzi-clip-0)" d="M 205 481 L 280 479 L 409 504 L 449 499 " fill="none" id="make-me-a-hanzi-animation-0" stroke-dasharray="375 750" stroke-linecap="round"></path>

      <clipPath id="make-me-a-hanzi-clip-1">
      <path d="M 361 372 L 365 471 L 365 516 L 370 582 Q 371 599 376 612 Q 382 624 381 629 Q 381 634 370 644 Q 348 659 324 668 Q 291 674 289 663 Q 286 660 292 648 L 300 634 L 309 603 Q 314 589 314 569 L 317 506 L 313 461 L 314 402 L 313 362 C 312 332 360 342 361 372 Z" fill="lightgray"></path>
      </clipPath>
      <path clip-path="url(#make-me-a-hanzi-clip-1)" d="M 301 658 L 321 644 L 342 614 L 338 391 L 318 369 " fill="none" id="make-me-a-hanzi-animation-1" stroke-dasharray="442 884" stroke-linecap="round"></path>

      <clipPath id="make-me-a-hanzi-clip-2">
      <path d="M 395 378 L 361 372 L 313 362 L 257 353 Q 231 348 210 346 Q 171 339 133 336 L 115 333 Q 94 330 93 329 Q 80 322 101 306 Q 127 293 134 291 Q 142 288 153 288 Q 164 288 179 293 Q 194 298 218 304 L 280 319 L 358 333 L 433 344 L 498 352 Q 525 356 548 356 Q 566 354 570 362 Q 575 369 572 377 Q 567 393 520 397 Q 506 398 470 392 L 395 378 Z" fill="lightgray"></path>
      </clipPath>
      <path clip-path="url(#make-me-a-hanzi-clip-2)" d="M 98 321 L 166 314 L 481 373 L 528 377 L 557 371 " fill="none" id="make-me-a-hanzi-animation-2" stroke-dasharray="594 1188" stroke-linecap="round"></path>

      <clipPath id="make-me-a-hanzi-clip-3">
      <path d="M 467 528 L 464 507 Q 463 497 457 478 Q 455 476 447 459 Q 440 441 423 416 Q 406 390 395 378 L 358 333 L 306 277 Q 297 265 249 223 Q 201 181 166 153 Q 131 124 84 98 L 37 70 Q 34 68 34 65 Q 35 61 44 62 L 65 66 Q 86 69 111 82 Q 198 125 256 168 L 290 196 L 328 231 L 370 273 Q 385 288 433 344 L 470 392 L 529 472 L 542 486 Q 558 502 511 540 L 502 548 L 485 556 Q 467 557 467 542 L 467 528 Z" fill="lightgray"></path>
      </clipPath>
      <path clip-path="url(#make-me-a-hanzi-clip-3)" d="M 481 543 L 499 507 L 497 487 L 436 389 L 348 285 L 269 209 L 193 149 L 128 106 L 39 65 " fill="none" id="make-me-a-hanzi-animation-3" stroke-dasharray="822 1644" stroke-linecap="round"></path>

      <clipPath id="make-me-a-hanzi-clip-4">
      <path d="M 290 196 L 306 190 Q 308 188 317 192 L 336 202 L 375 216 Q 388 222 397 220 Q 415 215 399 192 L 366 140 C 350 115 361 107 385 126 L 432 163 L 475 190 L 502 202 Q 504 210 504 213 Q 505 216 497 224 Q 490 232 474 239 L 449 252 Q 428 259 422 260 Q 417 261 393 249 Q 369 237 328 231 C 298 226 262 207 290 196 Z" fill="lightgray"></path>
      </clipPath>
      <path clip-path="url(#make-me-a-hanzi-clip-4)" d="M 296 199 L 317 204 L 332 217 L 393 234 L 410 237 L 432 227 L 443 214 L 433 197 L 385 144 L 376 143 " fill="none" id="make-me-a-hanzi-animation-4" stroke-dasharray="392 784" stroke-linecap="round"></path>

      <clipPath id="make-me-a-hanzi-clip-5">
      <path d="M 366 140 L 347 142 Q 330 145 326 142 L 321 137 Q 319 135 332 122 Q 346 109 346 88 L 347 60 L 347 24 L 346 -53 Q 346 -72 340 -88 Q 334 -104 326 -109 Q 313 -114 296 -108 L 275 -99 L 263 -96 Q 256 -94 254 -99 Q 253 -105 256 -106 L 269 -115 L 304 -151 Q 314 -160 321 -178 Q 329 -197 333 -199 Q 337 -201 353 -192 Q 390 -171 390 -90 L 392 44 L 392 76 L 392 110 Q 393 112 385 126 C 379 139 379 139 366 140 Z" fill="lightgray"></path>
      </clipPath>
      <path clip-path="url(#make-me-a-hanzi-clip-5)" d="M 327 136 L 359 120 L 368 104 L 365 -100 L 346 -142 L 314 -132 L 260 -101 " fill="none" id="make-me-a-hanzi-animation-5" stroke-dasharray="528 1056" stroke-linecap="round"></path>

      <clipPath id="make-me-a-hanzi-clip-6">
      <path d="M 347 60 L 185 11 Q 170 6 157 8 Q 145 9 142 6 Q 139 -5 148 -13 L 176 -38 Q 197 -55 210 -46 L 224 -33 L 347 24 L 392 44 L 493 90 Q 502 93 499 101 Q 497 108 485 104 L 392 76 L 347 60 Z" fill="lightgray"></path>
      </clipPath>
      <path clip-path="url(#make-me-a-hanzi-clip-6)" d="M 150 1 L 197 -17 L 491 98 " fill="none" id="make-me-a-hanzi-animation-6" stroke-dasharray="494 988" stroke-linecap="round"></path>

      <clipPath id="make-me-a-hanzi-clip-7">
      <path d="M 647 346 L 660 369 Q 683 408 701 446 L 745 550 Q 754 575 766 587 Q 779 598 766 616 Q 759 628 741 639 Q 723 650 710 653 Q 698 655 696 651 Q 694 647 695 630 Q 697 613 693 599 Q 688 564 655 479 L 620 394 Q 583 321 555 279 Q 532 239 525 231 L 514 218 Q 509 212 513 209 Q 518 206 523 209 L 542 223 Q 558 233 572 250 Q 593 271 604 286 L 626 315 L 647 346 Z" fill="lightgray"></path>
      </clipPath>
      <path clip-path="url(#make-me-a-hanzi-clip-7)" d="M 704 646 L 730 600 L 674 451 L 644 387 L 593 302 L 518 213 " fill="none" id="make-me-a-hanzi-animation-7" stroke-dasharray="626 1252" stroke-linecap="round"></path>

      <clipPath id="make-me-a-hanzi-clip-8">
      <path d="M 737 332 L 809 346 Q 820 348 848 355 Q 876 362 893 364 Q 911 365 914 368 Q 918 371 919 379 Q 919 388 891 396 Q 864 404 845 404 Q 827 404 788 388 Q 750 371 678 353 L 647 346 C 618 339 597 322 626 315 L 638 312 Q 653 310 659 311 Q 665 311 708 326 L 737 332 Z" fill="lightgray"></path>
      </clipPath>
      <path clip-path="url(#make-me-a-hanzi-clip-8)" d="M 633 318 L 658 330 L 842 379 L 908 377 " fill="none" id="make-me-a-hanzi-animation-8" stroke-dasharray="412 824" stroke-linecap="round"></path>

      <clipPath id="make-me-a-hanzi-clip-9">
      <path d="M 708 326 L 715 288 Q 718 267 710 207 Q 703 147 701 137 Q 699 126 689 104 L 668 63 L 655 40 Q 636 6 596 -26 Q 556 -58 524 -71 L 490 -85 L 472 -90 Q 467 -92 468 -97 Q 470 -102 476 -102 L 493 -101 Q 562 -96 607 -72 Q 639 -52 657 -32 L 697 9 L 722 56 L 741 103 L 754 169 Q 762 208 764 224 Q 767 240 773 255 L 782 280 Q 785 297 769 308 L 752 322 Q 749 324 745 328 Q 741 332 737 332 C 712 349 703 355 708 326 Z" fill="lightgray"></path>
      </clipPath>
      <path clip-path="url(#make-me-a-hanzi-clip-9)" d="M 717 321 L 734 308 L 748 283 L 747 272 L 717 106 L 678 27 L 637 -20 L 592 -56 L 532 -84 L 474 -96 " fill="none" id="make-me-a-hanzi-animation-9" stroke-dasharray="691 1382" stroke-linecap="round"></path>

      <clipPath id="make-me-a-hanzi-clip-10">
      <path d="M 689 104 L 647 163 Q 633 181 622 188 L 603 198 L 600 198 Q 576 201 571 196 Q 567 183 580 179 Q 593 174 598 168 Q 604 162 625 130 Q 634 117 650 96 L 668 63 L 697 9 L 752 -74 Q 763 -92 778 -109 Q 811 -150 889 -141 L 927 -138 Q 956 -136 964 -132 L 983 -127 Q 987 -126 986 -120 Q 986 -114 983 -113 L 959 -104 Q 922 -92 897 -80 Q 872 -68 832 -42 Q 792 -17 774 1 Q 756 18 722 56 L 689 104 Z" fill="lightgray"></path>
      </clipPath>
      <path clip-path="url(#make-me-a-hanzi-clip-10)" d="M 578 191 L 616 172 L 714 27 L 768 -38 L 819 -87 L 862 -105 L 976 -120 " fill="none" id="make-me-a-hanzi-animation-10" stroke-dasharray="662 1324" stroke-linecap="round"></path>

      <clipPath id="make-me-a-hanzi-clip-11">
      <path d="M 1335 551 Q 1356 526 1378 496 Q 1388 481 1404 480 Q 1414 479 1421 491 Q 1428 504 1423 534 Q 1419 564 1337 597 Q 1322 603 1316 601 Q 1312 598 1311 585 Q 1312 575 1335 551 Z" fill="lightgray"></path>
      </clipPath>
      <path clip-path="url(#make-me-a-hanzi-clip-11)" d="M 1320 595 L 1331 580 L 1382 541 L 1405 498 " fill="none" id="make-me-a-hanzi-animation-11" stroke-dasharray="260 520" stroke-linecap="round"></path>

      <clipPath id="make-me-a-hanzi-clip-12">
      <path d="M 1480 614 Q 1499 587 1519 555 Q 1528 542 1541 539 Q 1550 538 1557 547 Q 1564 559 1563 585 Q 1560 615 1486 655 Q 1474 662 1468 661 Q 1464 658 1462 647 Q 1463 637 1480 614 Z" fill="lightgray"></path>
      </clipPath>
      <path clip-path="url(#make-me-a-hanzi-clip-12)" d="M 1471 652 L 1524 598 L 1542 556 " fill="none" id="make-me-a-hanzi-animation-12" stroke-dasharray="249 498" stroke-linecap="round"></path>

      <clipPath id="make-me-a-hanzi-clip-13">
      <path d="M 1693 640 Q 1666 594 1610 520 Q 1604 513 1611 505 Q 1618 504 1627 509 Q 1724 591 1773 622 Q 1792 629 1787 640 Q 1780 656 1758 676 Q 1736 694 1712 695 Q 1696 694 1698 672 Q 1702 657 1693 640 Z" fill="lightgray"></path>
      </clipPath>
      <path clip-path="url(#make-me-a-hanzi-clip-13)" d="M 1714 678 L 1736 644 L 1643 538 L 1614 513 " fill="none" id="make-me-a-hanzi-animation-13" stroke-dasharray="348 696" stroke-linecap="round"></path>

      <clipPath id="make-me-a-hanzi-clip-14">
      <path d="M 1265 420 Q 1255 439 1246 446 Q 1227 459 1225 434 Q 1231 397 1172 336 Q 1153 315 1179 257 Q 1194 230 1214 258 L 1270 392 C 1275 403 1275 403 1265 420 Z" fill="lightgray"></path>
      </clipPath>
      <path clip-path="url(#make-me-a-hanzi-clip-14)" d="M 1236 438 L 1245 416 L 1244 395 L 1199 314 L 1195 261 " fill="none" id="make-me-a-hanzi-animation-14" stroke-dasharray="319 638" stroke-linecap="round"></path>

      <clipPath id="make-me-a-hanzi-clip-15">
      <path d="M 1270 392 Q 1300 374 1334 385 Q 1496 430 1732 447 Q 1769 450 1785 447 Q 1800 440 1799 433 Q 1799 432 1751 353 Q 1744 340 1749 334 Q 1756 330 1774 340 Q 1837 377 1886 386 Q 1928 396 1927 406 Q 1926 416 1856 475 Q 1832 496 1769 483 Q 1622 470 1389 434 Q 1331 425 1272 421 Q 1268 421 1265 420 C 1235 417 1242 404 1270 392 Z" fill="lightgray"></path>
      </clipPath>
      <path clip-path="url(#make-me-a-hanzi-clip-15)" d="M 1269 414 L 1303 402 L 1610 452 L 1783 467 L 1824 456 L 1845 423 L 1754 339 " fill="none" id="make-me-a-hanzi-animation-15" stroke-dasharray="854 1708" stroke-linecap="round"></path>

      <clipPath id="make-me-a-hanzi-clip-16">
      <path d="M 1540 190 Q 1543 191 1623 252 Q 1660 280 1687 289 Q 1706 295 1700 311 Q 1697 327 1634 362 Q 1616 372 1594 364 Q 1534 342 1444 317 Q 1420 310 1363 312 Q 1341 313 1348 293 Q 1355 281 1374 270 Q 1402 254 1435 272 Q 1457 281 1570 319 Q 1583 325 1594 318 Q 1606 311 1600 297 L 1532 196 C 1517 174 1517 174 1540 190 Z" fill="lightgray"></path>
      </clipPath>
      <path clip-path="url(#make-me-a-hanzi-clip-16)" d="M 1358 300 L 1379 290 L 1407 287 L 1581 341 L 1617 337 L 1641 312 L 1639 307 L 1601 258 L 1538 196 " fill="none" id="make-me-a-hanzi-animation-16" stroke-dasharray="588 1176" stroke-linecap="round"></path>

      <clipPath id="make-me-a-hanzi-clip-17">
      <path d="M 1562 165 Q 1553 180 1540 190 L 1532 196 Q 1526 200 1522 202 Q 1512 209 1507 201 Q 1503 197 1510 184 Q 1514 174 1519 160 L 1530 117 Q 1542 33 1532 -25 Q 1526 -62 1516 -70 Q 1513 -73 1432 -57 Q 1422 -54 1416 -58 Q 1412 -59 1426 -71 Q 1478 -119 1506 -158 Q 1522 -176 1540 -167 Q 1562 -155 1579 -103 Q 1603 -13 1581 120 L 1562 165 Z" fill="lightgray"></path>
      </clipPath>
      <path clip-path="url(#make-me-a-hanzi-clip-17)" d="M 1515 196 L 1538 166 L 1558 107 L 1564 6 L 1552 -77 L 1528 -113 L 1420 -59 " fill="none" id="make-me-a-hanzi-animation-17" stroke-dasharray="577 1154" stroke-linecap="round"></path>

      <clipPath id="make-me-a-hanzi-clip-18">
      <path d="M 1581 120 Q 1725 139 1902 123 Q 1926 120 1932 129 Q 1939 142 1927 154 Q 1899 182 1855 202 Q 1840 208 1814 200 Q 1766 191 1562 165 L 1519 160 Q 1408 151 1352 144 Q 1288 134 1194 134 Q 1181 134 1179 123 Q 1178 110 1197 96 Q 1213 83 1244 71 Q 1256 67 1273 75 Q 1289 81 1356 91 Q 1432 109 1530 117 L 1581 120 Z" fill="lightgray"></path>
      </clipPath>
      <path clip-path="url(#make-me-a-hanzi-clip-18)" d="M 1192 121 L 1255 103 L 1473 135 L 1839 166 L 1920 138 " fill="none" id="make-me-a-hanzi-animation-18" stroke-dasharray="867 1734" stroke-linecap="round"></path>

</g>
</svg>
