<svg version="1.1" viewBox="0 0 2048 1024" xmlns="http://www.w3.org/2000/svg">
  <g stroke="lightgray" stroke-dasharray="1,1" stroke-width="1" transform="scale(4, 4)">
    <line x1="0" y1="0" x2="256" y2="256"></line>
    <line x1="256" y1="0" x2="0" y2="256"></line>
    <line x1="128" y1="0" x2="128" y2="256"></line>
    <line x1="0" y1="128" x2="256" y2="128"></line>
    <line x1="256" y1="0" x2="512" y2="256"></line>
    <line x1="512" y1="0" x2="256" y2="256"></line>
    <line x1="384" y1="0" x2="384" y2="256"></line>
    <line x1="256" y1="128" x2="512" y2="128"></line>
  </g>
<g transform="scale(1, -1) translate(0, -850)">
   <style type="text/css">
    @keyframes keyframes0 {
      from {
       stroke: black;
       stroke-dashoffset: 680;
       stroke-width: 128;
       }
       69% {
       animation-timing-function: step-end;
       stroke: black;
       stroke-dashoffset: 0;
       stroke-width: 128;
       }
       to {
       stroke: black;
       stroke-width: 1024;
       }
       }
       #make-me-a-hanzi-animation-0 {
         animation: keyframes0 0.803385s both;
         animation-delay: 0.000000s;
         animation-timing-function: linear;
       }
    @keyframes keyframes1 {
      from {
       stroke: black;
       stroke-dashoffset: 930;
       stroke-width: 128;
       }
       75% {
       animation-timing-function: step-end;
       stroke: black;
       stroke-dashoffset: 0;
       stroke-width: 128;
       }
       to {
       stroke: black;
       stroke-width: 1024;
       }
       }
       #make-me-a-hanzi-animation-1 {
         animation: keyframes1 1.006836s both;
         animation-delay: 0.803385s;
         animation-timing-function: linear;
       }
    @keyframes keyframes2 {
      from {
       stroke: black;
       stroke-dashoffset: 1036;
       stroke-width: 128;
       }
       77% {
       animation-timing-function: step-end;
       stroke: black;
       stroke-dashoffset: 0;
       stroke-width: 128;
       }
       to {
       stroke: black;
       stroke-width: 1024;
       }
       }
       #make-me-a-hanzi-animation-2 {
         animation: keyframes2 1.093099s both;
         animation-delay: 1.810221s;
         animation-timing-function: linear;
       }
    @keyframes keyframes3 {
      from {
       stroke: black;
       stroke-dashoffset: 1097;
       stroke-width: 128;
       }
       78% {
       animation-timing-function: step-end;
       stroke: black;
       stroke-dashoffset: 0;
       stroke-width: 128;
       }
       to {
       stroke: black;
       stroke-width: 1024;
       }
       }
       #make-me-a-hanzi-animation-3 {
         animation: keyframes3 1.142741s both;
         animation-delay: 2.903320s;
         animation-timing-function: linear;
       }
    @keyframes keyframes4 {
      from {
       stroke: black;
       stroke-dashoffset: 370;
       stroke-width: 128;
       }
       55% {
       animation-timing-function: step-end;
       stroke: black;
       stroke-dashoffset: 0;
       stroke-width: 128;
       }
       to {
       stroke: black;
       stroke-width: 1024;
       }
       }
       #make-me-a-hanzi-animation-4 {
         animation: keyframes4 0.551107s both;
         animation-delay: 4.046061s;
         animation-timing-function: linear;
       }
    @keyframes keyframes5 {
      from {
       stroke: black;
       stroke-dashoffset: 391;
       stroke-width: 128;
       }
       56% {
       animation-timing-function: step-end;
       stroke: black;
       stroke-dashoffset: 0;
       stroke-width: 128;
       }
       to {
       stroke: black;
       stroke-width: 1024;
       }
       }
       #make-me-a-hanzi-animation-5 {
         animation: keyframes5 0.568197s both;
         animation-delay: 4.597168s;
         animation-timing-function: linear;
       }
    @keyframes keyframes6 {
      from {
       stroke: black;
       stroke-dashoffset: 667;
       stroke-width: 128;
       }
       68% {
       animation-timing-function: step-end;
       stroke: black;
       stroke-dashoffset: 0;
       stroke-width: 128;
       }
       to {
       stroke: black;
       stroke-width: 1024;
       }
       }
       #make-me-a-hanzi-animation-6 {
         animation: keyframes6 0.792806s both;
         animation-delay: 5.165365s;
         animation-timing-function: linear;
       }
    @keyframes keyframes7 {
      from {
       stroke: black;
       stroke-dashoffset: 697;
       stroke-width: 128;
       }
       69% {
       animation-timing-function: step-end;
       stroke: black;
       stroke-dashoffset: 0;
       stroke-width: 128;
       }
       to {
       stroke: black;
       stroke-width: 1024;
       }
       }
       #make-me-a-hanzi-animation-7 {
         animation: keyframes7 0.817220s both;
         animation-delay: 5.958171s;
         animation-timing-function: linear;
       }
    @keyframes keyframes8 {
      from {
       stroke: black;
       stroke-dashoffset: 541;
       stroke-width: 128;
       }
       64% {
       animation-timing-function: step-end;
       stroke: black;
       stroke-dashoffset: 0;
       stroke-width: 128;
       }
       to {
       stroke: black;
       stroke-width: 1024;
       }
       }
       #make-me-a-hanzi-animation-8 {
         animation: keyframes8 0.690267s both;
         animation-delay: 6.775391s;
         animation-timing-function: linear;
       }
    @keyframes keyframes9 {
      from {
       stroke: black;
       stroke-dashoffset: 344;
       stroke-width: 128;
       }
       53% {
       animation-timing-function: step-end;
       stroke: black;
       stroke-dashoffset: 0;
       stroke-width: 128;
       }
       to {
       stroke: black;
       stroke-width: 1024;
       }
       }
       #make-me-a-hanzi-animation-9 {
         animation: keyframes9 0.529948s both;
         animation-delay: 7.465658s;
         animation-timing-function: linear;
       }
    @keyframes keyframes10 {
      from {
       stroke: black;
       stroke-dashoffset: 779;
       stroke-width: 128;
       }
       72% {
       animation-timing-function: step-end;
       stroke: black;
       stroke-dashoffset: 0;
       stroke-width: 128;
       }
       to {
       stroke: black;
       stroke-width: 1024;
       }
       }
       #make-me-a-hanzi-animation-10 {
         animation: keyframes10 0.883952s both;
         animation-delay: 7.995605s;
         animation-timing-function: linear;
       }
    @keyframes keyframes11 {
      from {
       stroke: black;
       stroke-dashoffset: 746;
       stroke-width: 128;
       }
       71% {
       animation-timing-function: step-end;
       stroke: black;
       stroke-dashoffset: 0;
       stroke-width: 128;
       }
       to {
       stroke: black;
       stroke-width: 1024;
       }
       }
       #make-me-a-hanzi-animation-11 {
         animation: keyframes11 0.857096s both;
         animation-delay: 8.879557s;
         animation-timing-function: linear;
       }
    @keyframes keyframes12 {
      from {
       stroke: black;
       stroke-dashoffset: 594;
       stroke-width: 128;
       }
       66% {
       animation-timing-function: step-end;
       stroke: black;
       stroke-dashoffset: 0;
       stroke-width: 128;
       }
       to {
       stroke: black;
       stroke-width: 1024;
       }
       }
       #make-me-a-hanzi-animation-12 {
         animation: keyframes12 0.733398s both;
         animation-delay: 9.736654s;
         animation-timing-function: linear;
       }
    @keyframes keyframes13 {
      from {
       stroke: black;
       stroke-dashoffset: 691;
       stroke-width: 128;
       }
       69% {
       animation-timing-function: step-end;
       stroke: black;
       stroke-dashoffset: 0;
       stroke-width: 128;
       }
       to {
       stroke: black;
       stroke-width: 1024;
       }
       }
       #make-me-a-hanzi-animation-13 {
         animation: keyframes13 0.812337s both;
         animation-delay: 10.470052s;
         animation-timing-function: linear;
       }
    @keyframes keyframes14 {
      from {
       stroke: black;
       stroke-dashoffset: 556;
       stroke-width: 128;
       }
       64% {
       animation-timing-function: step-end;
       stroke: black;
       stroke-dashoffset: 0;
       stroke-width: 128;
       }
       to {
       stroke: black;
       stroke-width: 1024;
       }
       }
       #make-me-a-hanzi-animation-14 {
         animation: keyframes14 0.702474s both;
         animation-delay: 11.282389s;
         animation-timing-function: linear;
       }
    @keyframes keyframes15 {
      from {
       stroke: black;
       stroke-dashoffset: 726;
       stroke-width: 128;
       }
       70% {
       animation-timing-function: step-end;
       stroke: black;
       stroke-dashoffset: 0;
       stroke-width: 128;
       }
       to {
       stroke: black;
       stroke-width: 1024;
       }
       }
       #make-me-a-hanzi-animation-15 {
         animation: keyframes15 0.840820s both;
         animation-delay: 11.984863s;
         animation-timing-function: linear;
       }
    @keyframes keyframes16 {
      from {
       stroke: black;
       stroke-dashoffset: 818;
       stroke-width: 128;
       }
       73% {
       animation-timing-function: step-end;
       stroke: black;
       stroke-dashoffset: 0;
       stroke-width: 128;
       }
       to {
       stroke: black;
       stroke-width: 1024;
       }
       }
       #make-me-a-hanzi-animation-16 {
         animation: keyframes16 0.915690s both;
         animation-delay: 12.825684s;
         animation-timing-function: linear;
       }
</style>
<path d="M 486 659 Q 567 674 655 687 Q 716 699 725 706 Q 735 713 731 723 Q 724 736 694 744 Q 667 750 557 720 Q 415 690 308 684 Q 271 680 296 661 Q 339 636 408 648 Q 421 651 437 651 L 486 659 Z" fill="lightgray"></path> 
<path d="M 473 411 Q 584 427 754 430 Q 826 430 833 441 Q 839 454 819 471 Q 756 513 716 503 Q 629 484 486 458 L 424 448 Q 300 430 162 409 Q 138 405 156 386 Q 172 371 193 365 Q 218 359 236 365 Q 320 390 413 402 L 473 411 Z" fill="lightgray"></path> 
<path d="M 413 402 Q 409 389 406 373 Q 349 154 154 36 Q 136 24 131 18 Q 128 11 141 9 Q 186 3 284 76 Q 398 166 466 385 Q 469 398 473 411 L 486 458 Q 513 581 523 605 Q 533 626 512 641 Q 497 651 486 659 C 461 676 430 680 437 651 Q 456 597 424 448 L 413 402 Z" fill="lightgray"></path> 
<path d="M 926 68 Q 910 114 899 195 Q 898 211 890 217 Q 881 223 877 201 Q 858 104 842 86 Q 811 53 684 48 Q 615 49 585 61 Q 558 74 553 91 Q 543 119 546 192 Q 553 273 569 310 Q 582 341 563 359 Q 511 399 495 396 Q 479 390 486 372 Q 507 332 501 274 Q 492 96 515 57 Q 539 15 627 2 Q 688 -7 785 -3 Q 873 1 907 20 Q 938 36 926 68 Z" fill="lightgray"></path> 
<path d="M 1264 606 Q 1286 585 1308 561 Q 1318 551 1332 550 Q 1341 550 1345 561 Q 1349 573 1343 597 Q 1339 613 1315 627 Q 1257 651 1244 647 Q 1240 643 1240 633 Q 1243 623 1264 606 Z" fill="lightgray"></path> 
<path d="M 1512 670 Q 1496 643 1463 603 Q 1459 597 1463 591 Q 1469 590 1475 594 Q 1539 637 1571 653 Q 1586 657 1582 666 Q 1578 679 1562 693 Q 1547 708 1529 710 Q 1517 709 1518 694 Q 1519 684 1512 670 Z" fill="lightgray"></path> 
<path d="M 1425 498 Q 1428 499 1563 520 Q 1573 519 1581 531 Q 1582 541 1561 551 Q 1527 572 1433 541 Q 1430 541 1428 540 L 1390 529 Q 1356 522 1172 491 Q 1144 487 1166 471 Q 1199 447 1224 455 Q 1279 468 1346 481 L 1425 498 Z" fill="lightgray"></path> 
<path d="M 1387 463 Q 1383 405 1376 376 Q 1375 364 1390 326 Q 1399 311 1413 319 Q 1423 328 1424 480 Q 1424 489 1425 498 L 1428 540 Q 1434 655 1460 704 Q 1466 713 1455 726 Q 1404 766 1378 758 Q 1365 754 1371 740 Q 1396 698 1392 632 Q 1392 575 1390 529 L 1387 463 Z" fill="lightgray"></path> 
<path d="M 1346 481 Q 1289 390 1169 302 Q 1154 292 1168 290 Q 1178 289 1211 303 Q 1248 316 1280 341 Q 1308 363 1342 401 Q 1367 431 1384 457 Q 1385 461 1387 463 C 1405 496 1379 532 1346 481 Z" fill="lightgray"></path> 
<path d="M 1461 440 Q 1504 379 1527 375 Q 1539 372 1545 388 Q 1546 400 1540 418 Q 1533 433 1512 442 Q 1481 460 1467 463 Q 1460 464 1457 455 Q 1456 448 1461 440 Z" fill="lightgray"></path> 
<path d="M 1381 240 Q 1390 261 1399 273 Q 1408 280 1405 288 Q 1401 301 1367 326 Q 1357 333 1347 330 Q 1337 327 1343 313 Q 1349 295 1331 233 L 1316 190 Q 1298 148 1281 122 Q 1272 106 1275 95 Q 1276 86 1292 83 Q 1338 68 1369 45 L 1408 18 Q 1442 -9 1491 -52 Q 1513 -71 1529 -72 Q 1548 -72 1549 -54 Q 1549 -36 1525 6 Q 1515 27 1443 58 L 1398 76 Q 1361 92 1333 100 Q 1314 104 1324 123 Q 1346 172 1362 202 L 1381 240 Z" fill="lightgray"></path> 
<path d="M 1369 45 Q 1359 38 1349 28 Q 1301 -9 1198 -49 Q 1185 -56 1201 -58 Q 1327 -61 1408 18 L 1443 58 Q 1485 124 1503 201 Q 1510 238 1519 250 Q 1526 260 1519 269 Q 1509 281 1486 286 Q 1470 293 1453 289 Q 1443 285 1449 273 Q 1453 266 1456 253 L 1459 227 Q 1459 155 1398 76 L 1369 45 Z" fill="lightgray"></path> 
<path d="M 1456 253 Q 1419 249 1381 240 L 1331 233 Q 1261 226 1184 213 Q 1163 209 1129 215 Q 1116 215 1113 206 Q 1109 194 1117 185 Q 1136 166 1164 144 Q 1174 140 1186 146 Q 1249 177 1316 190 L 1362 202 Q 1399 212 1440 222 Q 1449 225 1459 227 C 1488 234 1486 257 1456 253 Z" fill="lightgray"></path> 
<path d="M 1638 419 Q 1689 506 1731 622 Q 1744 664 1759 686 Q 1766 698 1758 710 Q 1751 722 1718 737 Q 1688 749 1670 745 Q 1654 739 1665 720 Q 1713 660 1572 363 Q 1565 351 1564 345 Q 1563 333 1576 339 Q 1591 345 1626 400 L 1638 419 Z" fill="lightgray"></path> 
<path d="M 1775 404 Q 1925 447 1928 449 Q 1937 456 1932 465 Q 1925 475 1896 482 Q 1874 485 1762 447 Q 1677 426 1639 420 Q 1638 420 1638 419 C 1609 411 1604 410 1626 400 Q 1627 400 1630 398 Q 1675 377 1725 392 Q 1726 393 1729 393 L 1775 404 Z" fill="lightgray"></path> 
<path d="M 1736 140 Q 1778 213 1798 339 Q 1802 361 1806 371 Q 1813 377 1807 387 Q 1803 394 1775 404 C 1747 415 1721 422 1729 393 Q 1756 312 1705 182 Q 1704 182 1703 179 L 1679 141 Q 1645 92 1539 37 Q 1517 24 1544 25 Q 1610 22 1694 87 L 1707 100 L 1736 140 Z" fill="lightgray"></path> 
<path d="M 1707 100 Q 1804 -35 1849 -47 Q 1862 -50 1979 -46 Q 1992 -45 2005 -41 Q 2014 -34 2003 -25 Q 1988 -15 1875 33 Q 1806 61 1736 140 L 1703 179 Q 1670 219 1637 268 Q 1621 293 1588 302 Q 1576 306 1566 300 Q 1560 293 1569 285 Q 1576 278 1582 273 Q 1604 260 1679 141 L 1707 100 Z" fill="lightgray"></path> 
      <clipPath id="make-me-a-hanzi-clip-0">
      <path d="M 486 659 Q 567 674 655 687 Q 716 699 725 706 Q 735 713 731 723 Q 724 736 694 744 Q 667 750 557 720 Q 415 690 308 684 Q 271 680 296 661 Q 339 636 408 648 Q 421 651 437 651 L 486 659 Z" fill="lightgray"></path>
      </clipPath>
      <path clip-path="url(#make-me-a-hanzi-clip-0)" d="M 300 674 L 330 667 L 381 667 L 651 715 L 719 718 " fill="none" id="make-me-a-hanzi-animation-0" stroke-dasharray="552 1104" stroke-linecap="round"></path>

      <clipPath id="make-me-a-hanzi-clip-1">
      <path d="M 473 411 Q 584 427 754 430 Q 826 430 833 441 Q 839 454 819 471 Q 756 513 716 503 Q 629 484 486 458 L 424 448 Q 300 430 162 409 Q 138 405 156 386 Q 172 371 193 365 Q 218 359 236 365 Q 320 390 413 402 L 473 411 Z" fill="lightgray"></path>
      </clipPath>
      <path clip-path="url(#make-me-a-hanzi-clip-1)" d="M 160 397 L 216 389 L 345 415 L 718 466 L 780 461 L 825 447 " fill="none" id="make-me-a-hanzi-animation-1" stroke-dasharray="802 1604" stroke-linecap="round"></path>

      <clipPath id="make-me-a-hanzi-clip-2">
      <path d="M 413 402 Q 409 389 406 373 Q 349 154 154 36 Q 136 24 131 18 Q 128 11 141 9 Q 186 3 284 76 Q 398 166 466 385 Q 469 398 473 411 L 486 458 Q 513 581 523 605 Q 533 626 512 641 Q 497 651 486 659 C 461 676 430 680 437 651 Q 456 597 424 448 L 413 402 Z" fill="lightgray"></path>
      </clipPath>
      <path clip-path="url(#make-me-a-hanzi-clip-2)" d="M 444 648 L 478 623 L 483 613 L 480 585 L 445 412 L 415 313 L 388 251 L 334 163 L 262 86 L 174 29 L 139 17 " fill="none" id="make-me-a-hanzi-animation-2" stroke-dasharray="908 1816" stroke-linecap="round"></path>

      <clipPath id="make-me-a-hanzi-clip-3">
      <path d="M 926 68 Q 910 114 899 195 Q 898 211 890 217 Q 881 223 877 201 Q 858 104 842 86 Q 811 53 684 48 Q 615 49 585 61 Q 558 74 553 91 Q 543 119 546 192 Q 553 273 569 310 Q 582 341 563 359 Q 511 399 495 396 Q 479 390 486 372 Q 507 332 501 274 Q 492 96 515 57 Q 539 15 627 2 Q 688 -7 785 -3 Q 873 1 907 20 Q 938 36 926 68 Z" fill="lightgray"></path>
      </clipPath>
      <path clip-path="url(#make-me-a-hanzi-clip-3)" d="M 498 382 L 534 340 L 537 328 L 522 215 L 526 100 L 538 66 L 572 40 L 622 27 L 706 22 L 813 32 L 869 51 L 880 59 L 884 87 L 887 208 " fill="none" id="make-me-a-hanzi-animation-3" stroke-dasharray="969 1938" stroke-linecap="round"></path>

      <clipPath id="make-me-a-hanzi-clip-4">
      <path d="M 1264 606 Q 1286 585 1308 561 Q 1318 551 1332 550 Q 1341 550 1345 561 Q 1349 573 1343 597 Q 1339 613 1315 627 Q 1257 651 1244 647 Q 1240 643 1240 633 Q 1243 623 1264 606 Z" fill="lightgray"></path>
      </clipPath>
      <path clip-path="url(#make-me-a-hanzi-clip-4)" d="M 1248 638 L 1307 601 L 1331 564 " fill="none" id="make-me-a-hanzi-animation-4" stroke-dasharray="242 484" stroke-linecap="round"></path>

      <clipPath id="make-me-a-hanzi-clip-5">
      <path d="M 1512 670 Q 1496 643 1463 603 Q 1459 597 1463 591 Q 1469 590 1475 594 Q 1539 637 1571 653 Q 1586 657 1582 666 Q 1578 679 1562 693 Q 1547 708 1529 710 Q 1517 709 1518 694 Q 1519 684 1512 670 Z" fill="lightgray"></path>
      </clipPath>
      <path clip-path="url(#make-me-a-hanzi-clip-5)" d="M 1572 663 L 1543 671 L 1468 597 " fill="none" id="make-me-a-hanzi-animation-5" stroke-dasharray="263 526" stroke-linecap="round"></path>

      <clipPath id="make-me-a-hanzi-clip-6">
      <path d="M 1425 498 Q 1428 499 1563 520 Q 1573 519 1581 531 Q 1582 541 1561 551 Q 1527 572 1433 541 Q 1430 541 1428 540 L 1390 529 Q 1356 522 1172 491 Q 1144 487 1166 471 Q 1199 447 1224 455 Q 1279 468 1346 481 L 1425 498 Z" fill="lightgray"></path>
      </clipPath>
      <path clip-path="url(#make-me-a-hanzi-clip-6)" d="M 1167 482 L 1196 475 L 1226 477 L 1485 532 L 1525 537 L 1571 532 " fill="none" id="make-me-a-hanzi-animation-6" stroke-dasharray="539 1078" stroke-linecap="round"></path>

      <clipPath id="make-me-a-hanzi-clip-7">
      <path d="M 1387 463 Q 1383 405 1376 376 Q 1375 364 1390 326 Q 1399 311 1413 319 Q 1423 328 1424 480 Q 1424 489 1425 498 L 1428 540 Q 1434 655 1460 704 Q 1466 713 1455 726 Q 1404 766 1378 758 Q 1365 754 1371 740 Q 1396 698 1392 632 Q 1392 575 1390 529 L 1387 463 Z" fill="lightgray"></path>
      </clipPath>
      <path clip-path="url(#make-me-a-hanzi-clip-7)" d="M 1380 747 L 1398 736 L 1422 707 L 1399 374 L 1405 326 " fill="none" id="make-me-a-hanzi-animation-7" stroke-dasharray="569 1138" stroke-linecap="round"></path>

      <clipPath id="make-me-a-hanzi-clip-8">
      <path d="M 1346 481 Q 1289 390 1169 302 Q 1154 292 1168 290 Q 1178 289 1211 303 Q 1248 316 1280 341 Q 1308 363 1342 401 Q 1367 431 1384 457 Q 1385 461 1387 463 C 1405 496 1379 532 1346 481 Z" fill="lightgray"></path>
      </clipPath>
      <path clip-path="url(#make-me-a-hanzi-clip-8)" d="M 1382 484 L 1321 409 L 1251 342 L 1172 296 " fill="none" id="make-me-a-hanzi-animation-8" stroke-dasharray="413 826" stroke-linecap="round"></path>

      <clipPath id="make-me-a-hanzi-clip-9">
      <path d="M 1461 440 Q 1504 379 1527 375 Q 1539 372 1545 388 Q 1546 400 1540 418 Q 1533 433 1512 442 Q 1481 460 1467 463 Q 1460 464 1457 455 Q 1456 448 1461 440 Z" fill="lightgray"></path>
      </clipPath>
      <path clip-path="url(#make-me-a-hanzi-clip-9)" d="M 1468 452 L 1517 410 L 1530 390 " fill="none" id="make-me-a-hanzi-animation-9" stroke-dasharray="216 432" stroke-linecap="round"></path>

      <clipPath id="make-me-a-hanzi-clip-10">
      <path d="M 1381 240 Q 1390 261 1399 273 Q 1408 280 1405 288 Q 1401 301 1367 326 Q 1357 333 1347 330 Q 1337 327 1343 313 Q 1349 295 1331 233 L 1316 190 Q 1298 148 1281 122 Q 1272 106 1275 95 Q 1276 86 1292 83 Q 1338 68 1369 45 L 1408 18 Q 1442 -9 1491 -52 Q 1513 -71 1529 -72 Q 1548 -72 1549 -54 Q 1549 -36 1525 6 Q 1515 27 1443 58 L 1398 76 Q 1361 92 1333 100 Q 1314 104 1324 123 Q 1346 172 1362 202 L 1381 240 Z" fill="lightgray"></path>
      </clipPath>
      <path clip-path="url(#make-me-a-hanzi-clip-10)" d="M 1351 320 L 1364 307 L 1372 284 L 1298 105 L 1471 9 L 1532 -55 " fill="none" id="make-me-a-hanzi-animation-10" stroke-dasharray="651 1302" stroke-linecap="round"></path>

      <clipPath id="make-me-a-hanzi-clip-11">
      <path d="M 1369 45 Q 1359 38 1349 28 Q 1301 -9 1198 -49 Q 1185 -56 1201 -58 Q 1327 -61 1408 18 L 1443 58 Q 1485 124 1503 201 Q 1510 238 1519 250 Q 1526 260 1519 269 Q 1509 281 1486 286 Q 1470 293 1453 289 Q 1443 285 1449 273 Q 1453 266 1456 253 L 1459 227 Q 1459 155 1398 76 L 1369 45 Z" fill="lightgray"></path>
      </clipPath>
      <path clip-path="url(#make-me-a-hanzi-clip-11)" d="M 1456 280 L 1487 254 L 1483 214 L 1463 142 L 1428 76 L 1387 29 L 1341 -5 L 1274 -36 L 1209 -50 " fill="none" id="make-me-a-hanzi-animation-11" stroke-dasharray="618 1236" stroke-linecap="round"></path>

      <clipPath id="make-me-a-hanzi-clip-12">
      <path d="M 1456 253 Q 1419 249 1381 240 L 1331 233 Q 1261 226 1184 213 Q 1163 209 1129 215 Q 1116 215 1113 206 Q 1109 194 1117 185 Q 1136 166 1164 144 Q 1174 140 1186 146 Q 1249 177 1316 190 L 1362 202 Q 1399 212 1440 222 Q 1449 225 1459 227 C 1488 234 1486 257 1456 253 Z" fill="lightgray"></path>
      </clipPath>
      <path clip-path="url(#make-me-a-hanzi-clip-12)" d="M 1127 201 L 1175 178 L 1436 237 L 1453 233 " fill="none" id="make-me-a-hanzi-animation-12" stroke-dasharray="466 932" stroke-linecap="round"></path>

      <clipPath id="make-me-a-hanzi-clip-13">
      <path d="M 1638 419 Q 1689 506 1731 622 Q 1744 664 1759 686 Q 1766 698 1758 710 Q 1751 722 1718 737 Q 1688 749 1670 745 Q 1654 739 1665 720 Q 1713 660 1572 363 Q 1565 351 1564 345 Q 1563 333 1576 339 Q 1591 345 1626 400 L 1638 419 Z" fill="lightgray"></path>
      </clipPath>
      <path clip-path="url(#make-me-a-hanzi-clip-13)" d="M 1675 731 L 1701 713 L 1716 693 L 1697 607 L 1632 447 L 1597 379 L 1572 346 " fill="none" id="make-me-a-hanzi-animation-13" stroke-dasharray="563 1126" stroke-linecap="round"></path>

      <clipPath id="make-me-a-hanzi-clip-14">
      <path d="M 1775 404 Q 1925 447 1928 449 Q 1937 456 1932 465 Q 1925 475 1896 482 Q 1874 485 1762 447 Q 1677 426 1639 420 Q 1638 420 1638 419 C 1609 411 1604 410 1626 400 Q 1627 400 1630 398 Q 1675 377 1725 392 Q 1726 393 1729 393 L 1775 404 Z" fill="lightgray"></path>
      </clipPath>
      <path clip-path="url(#make-me-a-hanzi-clip-14)" d="M 1630 404 L 1698 408 L 1870 456 L 1923 458 " fill="none" id="make-me-a-hanzi-animation-14" stroke-dasharray="428 856" stroke-linecap="round"></path>

      <clipPath id="make-me-a-hanzi-clip-15">
      <path d="M 1736 140 Q 1778 213 1798 339 Q 1802 361 1806 371 Q 1813 377 1807 387 Q 1803 394 1775 404 C 1747 415 1721 422 1729 393 Q 1756 312 1705 182 Q 1704 182 1703 179 L 1679 141 Q 1645 92 1539 37 Q 1517 24 1544 25 Q 1610 22 1694 87 L 1707 100 L 1736 140 Z" fill="lightgray"></path>
      </clipPath>
      <path clip-path="url(#make-me-a-hanzi-clip-15)" d="M 1738 389 L 1770 366 L 1758 270 L 1724 167 L 1692 119 L 1660 88 L 1596 49 L 1550 35 " fill="none" id="make-me-a-hanzi-animation-15" stroke-dasharray="598 1196" stroke-linecap="round"></path>

      <clipPath id="make-me-a-hanzi-clip-16">
      <path d="M 1707 100 Q 1804 -35 1849 -47 Q 1862 -50 1979 -46 Q 1992 -45 2005 -41 Q 2014 -34 2003 -25 Q 1988 -15 1875 33 Q 1806 61 1736 140 L 1703 179 Q 1670 219 1637 268 Q 1621 293 1588 302 Q 1576 306 1566 300 Q 1560 293 1569 285 Q 1576 278 1582 273 Q 1604 260 1679 141 L 1707 100 Z" fill="lightgray"></path>
      </clipPath>
      <path clip-path="url(#make-me-a-hanzi-clip-16)" d="M 1574 294 L 1619 263 L 1749 86 L 1817 21 L 1859 -6 L 2000 -34 " fill="none" id="make-me-a-hanzi-animation-16" stroke-dasharray="690 1380" stroke-linecap="round"></path>

</g>
</svg>
