<svg version="1.1" viewBox="0 0 2048 1024" xmlns="http://www.w3.org/2000/svg">
  <g stroke="lightgray" stroke-dasharray="1,1" stroke-width="1" transform="scale(4, 4)">
    <line x1="0" y1="0" x2="256" y2="256"></line>
    <line x1="256" y1="0" x2="0" y2="256"></line>
    <line x1="128" y1="0" x2="128" y2="256"></line>
    <line x1="0" y1="128" x2="256" y2="128"></line>
    <line x1="256" y1="0" x2="512" y2="256"></line>
    <line x1="512" y1="0" x2="256" y2="256"></line>
    <line x1="384" y1="0" x2="384" y2="256"></line>
    <line x1="256" y1="128" x2="512" y2="128"></line>
  </g>
<g transform="scale(1, -1) translate(0, -850)">
   <style type="text/css">
    @keyframes keyframes0 {
      from {
       stroke: black;
       stroke-dashoffset: 750;
       stroke-width: 128;
       }
       71% {
       animation-timing-function: step-end;
       stroke: black;
       stroke-dashoffset: 0;
       stroke-width: 128;
       }
       to {
       stroke: black;
       stroke-width: 1024;
       }
       }
       #make-me-a-hanzi-animation-0 {
         animation: keyframes0 0.860352s both;
         animation-delay: 0.000000s;
         animation-timing-function: linear;
       }
    @keyframes keyframes1 {
      from {
       stroke: black;
       stroke-dashoffset: 912;
       stroke-width: 128;
       }
       75% {
       animation-timing-function: step-end;
       stroke: black;
       stroke-dashoffset: 0;
       stroke-width: 128;
       }
       to {
       stroke: black;
       stroke-width: 1024;
       }
       }
       #make-me-a-hanzi-animation-1 {
         animation: keyframes1 0.992188s both;
         animation-delay: 0.860352s;
         animation-timing-function: linear;
       }
    @keyframes keyframes2 {
      from {
       stroke: black;
       stroke-dashoffset: 371;
       stroke-width: 128;
       }
       55% {
       animation-timing-function: step-end;
       stroke: black;
       stroke-dashoffset: 0;
       stroke-width: 128;
       }
       to {
       stroke: black;
       stroke-width: 1024;
       }
       }
       #make-me-a-hanzi-animation-2 {
         animation: keyframes2 0.551921s both;
         animation-delay: 1.852539s;
         animation-timing-function: linear;
       }
    @keyframes keyframes3 {
      from {
       stroke: black;
       stroke-dashoffset: 376;
       stroke-width: 128;
       }
       55% {
       animation-timing-function: step-end;
       stroke: black;
       stroke-dashoffset: 0;
       stroke-width: 128;
       }
       to {
       stroke: black;
       stroke-width: 1024;
       }
       }
       #make-me-a-hanzi-animation-3 {
         animation: keyframes3 0.555990s both;
         animation-delay: 2.404460s;
         animation-timing-function: linear;
       }
    @keyframes keyframes4 {
      from {
       stroke: black;
       stroke-dashoffset: 574;
       stroke-width: 128;
       }
       65% {
       animation-timing-function: step-end;
       stroke: black;
       stroke-dashoffset: 0;
       stroke-width: 128;
       }
       to {
       stroke: black;
       stroke-width: 1024;
       }
       }
       #make-me-a-hanzi-animation-4 {
         animation: keyframes4 0.717122s both;
         animation-delay: 2.960449s;
         animation-timing-function: linear;
       }
    @keyframes keyframes5 {
      from {
       stroke: black;
       stroke-dashoffset: 595;
       stroke-width: 128;
       }
       66% {
       animation-timing-function: step-end;
       stroke: black;
       stroke-dashoffset: 0;
       stroke-width: 128;
       }
       to {
       stroke: black;
       stroke-width: 1024;
       }
       }
       #make-me-a-hanzi-animation-5 {
         animation: keyframes5 0.734212s both;
         animation-delay: 3.677572s;
         animation-timing-function: linear;
       }
    @keyframes keyframes6 {
      from {
       stroke: black;
       stroke-dashoffset: 474;
       stroke-width: 128;
       }
       61% {
       animation-timing-function: step-end;
       stroke: black;
       stroke-dashoffset: 0;
       stroke-width: 128;
       }
       to {
       stroke: black;
       stroke-width: 1024;
       }
       }
       #make-me-a-hanzi-animation-6 {
         animation: keyframes6 0.635742s both;
         animation-delay: 4.411784s;
         animation-timing-function: linear;
       }
    @keyframes keyframes7 {
      from {
       stroke: black;
       stroke-dashoffset: 766;
       stroke-width: 128;
       }
       71% {
       animation-timing-function: step-end;
       stroke: black;
       stroke-dashoffset: 0;
       stroke-width: 128;
       }
       to {
       stroke: black;
       stroke-width: 1024;
       }
       }
       #make-me-a-hanzi-animation-7 {
         animation: keyframes7 0.873372s both;
         animation-delay: 5.047526s;
         animation-timing-function: linear;
       }
    @keyframes keyframes8 {
      from {
       stroke: black;
       stroke-dashoffset: 563;
       stroke-width: 128;
       }
       65% {
       animation-timing-function: step-end;
       stroke: black;
       stroke-dashoffset: 0;
       stroke-width: 128;
       }
       to {
       stroke: black;
       stroke-width: 1024;
       }
       }
       #make-me-a-hanzi-animation-8 {
         animation: keyframes8 0.708171s both;
         animation-delay: 5.920898s;
         animation-timing-function: linear;
       }
    @keyframes keyframes9 {
      from {
       stroke: black;
       stroke-dashoffset: 880;
       stroke-width: 128;
       }
       74% {
       animation-timing-function: step-end;
       stroke: black;
       stroke-dashoffset: 0;
       stroke-width: 128;
       }
       to {
       stroke: black;
       stroke-width: 1024;
       }
       }
       #make-me-a-hanzi-animation-9 {
         animation: keyframes9 0.966146s both;
         animation-delay: 6.629069s;
         animation-timing-function: linear;
       }
    @keyframes keyframes10 {
      from {
       stroke: black;
       stroke-dashoffset: 977;
       stroke-width: 128;
       }
       76% {
       animation-timing-function: step-end;
       stroke: black;
       stroke-dashoffset: 0;
       stroke-width: 128;
       }
       to {
       stroke: black;
       stroke-width: 1024;
       }
       }
       #make-me-a-hanzi-animation-10 {
         animation: keyframes10 1.045085s both;
         animation-delay: 7.595215s;
         animation-timing-function: linear;
       }
    @keyframes keyframes11 {
      from {
       stroke: black;
       stroke-dashoffset: 817;
       stroke-width: 128;
       }
       73% {
       animation-timing-function: step-end;
       stroke: black;
       stroke-dashoffset: 0;
       stroke-width: 128;
       }
       to {
       stroke: black;
       stroke-width: 1024;
       }
       }
       #make-me-a-hanzi-animation-11 {
         animation: keyframes11 0.914876s both;
         animation-delay: 8.640299s;
         animation-timing-function: linear;
       }
    @keyframes keyframes12 {
      from {
       stroke: black;
       stroke-dashoffset: 586;
       stroke-width: 128;
       }
       66% {
       animation-timing-function: step-end;
       stroke: black;
       stroke-dashoffset: 0;
       stroke-width: 128;
       }
       to {
       stroke: black;
       stroke-width: 1024;
       }
       }
       #make-me-a-hanzi-animation-12 {
         animation: keyframes12 0.726888s both;
         animation-delay: 9.555176s;
         animation-timing-function: linear;
       }
    @keyframes keyframes13 {
      from {
       stroke: black;
       stroke-dashoffset: 763;
       stroke-width: 128;
       }
       71% {
       animation-timing-function: step-end;
       stroke: black;
       stroke-dashoffset: 0;
       stroke-width: 128;
       }
       to {
       stroke: black;
       stroke-width: 1024;
       }
       }
       #make-me-a-hanzi-animation-13 {
         animation: keyframes13 0.870931s both;
         animation-delay: 10.282064s;
         animation-timing-function: linear;
       }
    @keyframes keyframes14 {
      from {
       stroke: black;
       stroke-dashoffset: 521;
       stroke-width: 128;
       }
       63% {
       animation-timing-function: step-end;
       stroke: black;
       stroke-dashoffset: 0;
       stroke-width: 128;
       }
       to {
       stroke: black;
       stroke-width: 1024;
       }
       }
       #make-me-a-hanzi-animation-14 {
         animation: keyframes14 0.673991s both;
         animation-delay: 11.152995s;
         animation-timing-function: linear;
       }
    @keyframes keyframes15 {
      from {
       stroke: black;
       stroke-dashoffset: 920;
       stroke-width: 128;
       }
       75% {
       animation-timing-function: step-end;
       stroke: black;
       stroke-dashoffset: 0;
       stroke-width: 128;
       }
       to {
       stroke: black;
       stroke-width: 1024;
       }
       }
       #make-me-a-hanzi-animation-15 {
         animation: keyframes15 0.998698s both;
         animation-delay: 11.826986s;
         animation-timing-function: linear;
       }
    @keyframes keyframes16 {
      from {
       stroke: black;
       stroke-dashoffset: 985;
       stroke-width: 128;
       }
       76% {
       animation-timing-function: step-end;
       stroke: black;
       stroke-dashoffset: 0;
       stroke-width: 128;
       }
       to {
       stroke: black;
       stroke-width: 1024;
       }
       }
       #make-me-a-hanzi-animation-16 {
         animation: keyframes16 1.051595s both;
         animation-delay: 12.825684s;
         animation-timing-function: linear;
       }
    @keyframes keyframes17 {
      from {
       stroke: black;
       stroke-dashoffset: 750;
       stroke-width: 128;
       }
       71% {
       animation-timing-function: step-end;
       stroke: black;
       stroke-dashoffset: 0;
       stroke-width: 128;
       }
       to {
       stroke: black;
       stroke-width: 1024;
       }
       }
       #make-me-a-hanzi-animation-17 {
         animation: keyframes17 0.860352s both;
         animation-delay: 13.877279s;
         animation-timing-function: linear;
       }
</style>
<path d="M 105 504 L 107 458 L 100 286 Q 100 281 96 240 Q 92 199 86 171 L 79 137 Q 79 131 81 120 Q 83 109 89 97 Q 96 85 99 82 Q 107 69 114 70 Q 122 71 126 84 L 132 102 L 136 136 L 145 328 L 146 352 L 150 534 C 151 561 151 561 146 563 L 124 572 Q 104 577 100 576 Q 84 572 94 548 Q 104 528 105 504 Z" fill="lightgray"></path> 
<path d="M 231 114 L 241 93 L 250 67 Q 257 53 262 52 Q 268 50 279 57 Q 290 64 298 82 Q 307 100 309 114 L 314 157 L 313 236 L 314 389 L 319 506 Q 320 523 326 534 Q 332 550 332 557 Q 332 563 325 572 Q 319 581 305 588 L 283 600 Q 268 607 247 596 L 146 563 C 117 554 122 524 150 534 L 170 541 Q 182 545 205 550 L 242 555 Q 258 555 264 550 Q 269 544 271 534 L 268 360 L 268 336 L 266 249 L 263 206 Q 261 167 256 144 C 251 114 218 141 231 114 Z" fill="lightgray"></path> 
<path d="M 145 328 L 167 324 L 221 332 Q 253 336 268 336 C 298 337 295 347 268 360 L 252 368 Q 247 371 233 371 L 212 368 L 146 352 C 117 345 115 333 145 328 Z" fill="lightgray"></path> 
<path d="M 132 102 L 210 114 L 231 114 C 261 114 282 130 256 144 L 241 152 Q 220 155 188 148 L 136 136 C 107 129 102 97 132 102 Z" fill="lightgray"></path> 
<path d="M 539 610 L 573 662 Q 582 680 590 686 L 600 694 Q 603 707 591 720 Q 568 744 554 744 Q 540 744 538 741 Q 536 734 537 721 Q 539 708 518 665 L 491 616 L 466 578 L 438 541 L 399 498 Q 392 492 390 488 Q 381 478 393 478 Q 397 478 404 482 L 419 492 Q 440 506 461 525 Q 489 546 518 583 L 539 610 Z" fill="lightgray"></path> 
<path d="M 587 454 L 638 510 L 680 560 Q 704 585 706 586 L 729 600 Q 737 610 737 615 Q 737 630 703 644 Q 669 658 661 653 L 617 633 Q 589 619 539 610 C 510 604 488 587 518 583 L 538 580 Q 555 575 596 586 Q 611 592 615 593 Q 619 594 623 592 Q 627 589 618 571 L 600 538 L 546 447 C 531 421 567 432 587 454 Z" fill="lightgray"></path> 
<path d="M 409 424 L 391 430 Q 376 433 365 432 Q 355 430 354 426 Q 353 419 359 413 L 370 400 Q 379 390 388 339 L 403 242 Q 402 224 415 214 L 423 212 Q 437 219 439 232 L 439 264 L 428 386 C 425 416 425 419 409 424 Z" fill="lightgray"></path> 
<path d="M 741 285 L 778 365 Q 786 384 793 392 Q 799 402 810 412 Q 821 421 822 425 Q 823 428 815 439 Q 808 449 790 462 Q 772 474 756 479 Q 740 483 735 483 Q 730 482 711 475 Q 693 467 658 463 L 587 454 L 546 447 L 409 424 C 379 419 399 377 428 386 L 447 392 Q 495 408 523 412 L 567 421 L 606 427 L 661 432 Q 696 434 705 434 Q 715 434 718 430 Q 721 426 718 408 Q 714 396 714 390 L 691 296 C 684 267 728 258 741 285 Z" fill="lightgray"></path> 
<path d="M 586 246 L 655 254 L 734 257 Q 753 257 754 264 Q 756 271 748 278 L 741 285 C 725 301 721 300 691 296 L 567 278 L 521 272 L 496 270 Q 492 268 473 267 L 439 264 C 409 261 409 229 439 232 L 494 237 L 510 237 L 560 243 L 576 245 L 586 246 Z" fill="lightgray"></path> 
<path d="M 510 237 L 502 210 Q 469 114 406 50 Q 384 29 374 21 L 343 -3 Q 322 -19 283 -39 L 248 -58 Q 243 -63 244 -66 Q 246 -70 256 -69 L 271 -66 Q 306 -60 358 -34 Q 427 11 469 60 Q 483 78 508 119 Q 533 159 544 197 L 560 243 L 567 278 L 589 358 L 598 375 Q 605 389 603 395 Q 602 401 593 407 L 567 421 C 541 435 513 440 523 412 L 529 396 L 533 371 L 531 342 Q 530 315 527 302 L 521 272 L 510 237 Z" fill="lightgray"></path> 
<path d="M 908 52 L 907 67 L 901 107 Q 899 116 897 118 Q 889 126 886 108 L 877 53 Q 867 2 854 -13 Q 841 -28 826 -32 Q 732 -61 664 -37 Q 635 -26 630 -12 Q 624 2 624 22 Q 622 37 625 65 Q 628 93 627 111 Q 627 129 646 180 Q 653 193 653 204 Q 652 219 624 232 L 607 240 Q 600 240 586 246 C 577 249 577 249 576 245 L 571 240 Q 566 235 575 220 L 582 200 Q 582 194 584 181 Q 586 167 584 156 L 580 82 Q 577 15 582 -12 Q 591 -51 620 -72 Q 675 -110 808 -95 Q 900 -80 932 -44 Q 941 -31 941 -27 Q 937 -19 929 -7 Q 921 5 918 18 Q 915 31 908 52 Z" fill="lightgray"></path> 
<path d="M 1283 529 Q 1365 679 1375 688 Q 1384 700 1378 714 Q 1374 727 1342 749 Q 1312 765 1293 765 Q 1274 761 1283 739 Q 1301 706 1289 677 Q 1229 503 1077 299 Q 1067 287 1065 281 Q 1062 268 1077 272 Q 1143 299 1274 515 L 1283 529 Z" fill="lightgray"></path> 
<path d="M 1274 515 Q 1289 505 1364 520 Q 1400 535 1405 527 Q 1409 524 1405 516 Q 1380 449 1361 417 Q 1355 404 1354 398 Q 1353 388 1364 394 Q 1376 400 1429 464 Q 1462 504 1494 528 Q 1510 538 1499 550 Q 1486 560 1450 579 Q 1434 583 1421 573 Q 1411 569 1334 541 Q 1312 534 1283 529 C 1253 524 1249 523 1274 515 Z" fill="lightgray"></path> 
<path d="M 1326 355 Q 1332 368 1322 379 Q 1300 401 1278 413 Q 1260 420 1251 416 Q 1241 410 1249 395 Q 1282 319 1261 158 Q 1257 110 1216 62 Q 1204 47 1211 25 Q 1220 -2 1232 -13 Q 1245 -22 1257 -5 Q 1273 22 1413 135 Q 1431 147 1436 156 Q 1440 166 1430 166 Q 1414 165 1315 113 Q 1305 107 1304 116 Q 1317 225 1320 309 Q 1321 334 1326 355 Z" fill="lightgray"></path> 
<path d="M 1617 553 Q 1710 584 1760 612 Q 1803 634 1841 644 Q 1857 645 1861 654 Q 1864 664 1851 675 Q 1791 711 1755 707 Q 1748 703 1748 691 Q 1749 660 1602 569 C 1577 553 1589 543 1617 553 Z" fill="lightgray"></path> 
<path d="M 1599 374 Q 1612 519 1616 539 Q 1617 546 1617 553 C 1618 561 1618 561 1602 569 Q 1556 594 1540 592 Q 1521 588 1536 566 Q 1552 536 1553 497 Q 1557 443 1545 333 Q 1538 258 1499 170 Q 1463 91 1380 21 Q 1365 8 1362 2 Q 1361 -5 1372 -5 Q 1411 -5 1484 70 Q 1568 160 1596 355 L 1599 374 Z" fill="lightgray"></path> 
<path d="M 1760 143 Q 1797 194 1842 335 Q 1852 363 1871 383 Q 1889 401 1875 413 Q 1862 425 1829 434 Q 1811 438 1741 408 Q 1657 384 1606 376 Q 1602 376 1599 374 C 1570 368 1567 363 1596 355 Q 1600 355 1603 353 Q 1640 340 1687 357 Q 1751 382 1762 382 Q 1787 381 1782 353 Q 1767 269 1723 180 L 1700 146 Q 1634 68 1527 30 Q 1514 24 1526 18 Q 1532 12 1572 15 Q 1653 24 1731 106 L 1760 143 Z" fill="lightgray"></path> 
<path d="M 1731 106 Q 1785 37 1833 -18 Q 1848 -36 1871 -35 Q 1998 -23 2006 -12 Q 2010 -6 2000 -3 Q 1847 61 1760 143 L 1723 180 Q 1695 211 1661 250 Q 1651 263 1636 265 Q 1611 266 1603 258 Q 1600 252 1609 247 Q 1639 231 1700 146 L 1731 106 Z" fill="lightgray"></path> 
      <clipPath id="make-me-a-hanzi-clip-0">
      <path d="M 105 504 L 107 458 L 100 286 Q 100 281 96 240 Q 92 199 86 171 L 79 137 Q 79 131 81 120 Q 83 109 89 97 Q 96 85 99 82 Q 107 69 114 70 Q 122 71 126 84 L 132 102 L 136 136 L 145 328 L 146 352 L 150 534 C 151 561 151 561 146 563 L 124 572 Q 104 577 100 576 Q 84 572 94 548 Q 104 528 105 504 Z" fill="lightgray"></path>
      </clipPath>
      <path clip-path="url(#make-me-a-hanzi-clip-0)" d="M 103 563 L 123 545 L 128 481 L 122 277 L 107 129 L 113 79 " fill="none" id="make-me-a-hanzi-animation-0" stroke-dasharray="622 1244" stroke-linecap="round"></path>

      <clipPath id="make-me-a-hanzi-clip-1">
      <path d="M 231 114 L 241 93 L 250 67 Q 257 53 262 52 Q 268 50 279 57 Q 290 64 298 82 Q 307 100 309 114 L 314 157 L 313 236 L 314 389 L 319 506 Q 320 523 326 534 Q 332 550 332 557 Q 332 563 325 572 Q 319 581 305 588 L 283 600 Q 268 607 247 596 L 146 563 C 117 554 122 524 150 534 L 170 541 Q 182 545 205 550 L 242 555 Q 258 555 264 550 Q 269 544 271 534 L 268 360 L 268 336 L 266 249 L 263 206 Q 261 167 256 144 C 251 114 218 141 231 114 Z" fill="lightgray"></path>
      </clipPath>
      <path clip-path="url(#make-me-a-hanzi-clip-1)" d="M 153 542 L 162 553 L 186 562 L 262 577 L 276 574 L 299 553 L 287 165 L 265 62 " fill="none" id="make-me-a-hanzi-animation-1" stroke-dasharray="784 1568" stroke-linecap="round"></path>

      <clipPath id="make-me-a-hanzi-clip-2">
      <path d="M 145 328 L 167 324 L 221 332 Q 253 336 268 336 C 298 337 295 347 268 360 L 252 368 Q 247 371 233 371 L 212 368 L 146 352 C 117 345 115 333 145 328 Z" fill="lightgray"></path>
      </clipPath>
      <path clip-path="url(#make-me-a-hanzi-clip-2)" d="M 152 334 L 160 340 L 238 353 L 262 342 " fill="none" id="make-me-a-hanzi-animation-2" stroke-dasharray="243 486" stroke-linecap="round"></path>

      <clipPath id="make-me-a-hanzi-clip-3">
      <path d="M 132 102 L 210 114 L 231 114 C 261 114 282 130 256 144 L 241 152 Q 220 155 188 148 L 136 136 C 107 129 102 97 132 102 Z" fill="lightgray"></path>
      </clipPath>
      <path clip-path="url(#make-me-a-hanzi-clip-3)" d="M 139 107 L 152 122 L 250 141 " fill="none" id="make-me-a-hanzi-animation-3" stroke-dasharray="248 496" stroke-linecap="round"></path>

      <clipPath id="make-me-a-hanzi-clip-4">
      <path d="M 539 610 L 573 662 Q 582 680 590 686 L 600 694 Q 603 707 591 720 Q 568 744 554 744 Q 540 744 538 741 Q 536 734 537 721 Q 539 708 518 665 L 491 616 L 466 578 L 438 541 L 399 498 Q 392 492 390 488 Q 381 478 393 478 Q 397 478 404 482 L 419 492 Q 440 506 461 525 Q 489 546 518 583 L 539 610 Z" fill="lightgray"></path>
      </clipPath>
      <path clip-path="url(#make-me-a-hanzi-clip-4)" d="M 543 736 L 555 726 L 565 704 L 541 655 L 473 557 L 397 485 " fill="none" id="make-me-a-hanzi-animation-4" stroke-dasharray="446 892" stroke-linecap="round"></path>

      <clipPath id="make-me-a-hanzi-clip-5">
      <path d="M 587 454 L 638 510 L 680 560 Q 704 585 706 586 L 729 600 Q 737 610 737 615 Q 737 630 703 644 Q 669 658 661 653 L 617 633 Q 589 619 539 610 C 510 604 488 587 518 583 L 538 580 Q 555 575 596 586 Q 611 592 615 593 Q 619 594 623 592 Q 627 589 618 571 L 600 538 L 546 447 C 531 421 567 432 587 454 Z" fill="lightgray"></path>
      </clipPath>
      <path clip-path="url(#make-me-a-hanzi-clip-5)" d="M 524 586 L 622 613 L 664 607 L 653 574 L 624 530 L 578 468 L 552 452 " fill="none" id="make-me-a-hanzi-animation-5" stroke-dasharray="467 934" stroke-linecap="round"></path>

      <clipPath id="make-me-a-hanzi-clip-6">
      <path d="M 409 424 L 391 430 Q 376 433 365 432 Q 355 430 354 426 Q 353 419 359 413 L 370 400 Q 379 390 388 339 L 403 242 Q 402 224 415 214 L 423 212 Q 437 219 439 232 L 439 264 L 428 386 C 425 416 425 419 409 424 Z" fill="lightgray"></path>
      </clipPath>
      <path clip-path="url(#make-me-a-hanzi-clip-6)" d="M 363 422 L 389 409 L 404 382 L 422 225 " fill="none" id="make-me-a-hanzi-animation-6" stroke-dasharray="346 692" stroke-linecap="round"></path>

      <clipPath id="make-me-a-hanzi-clip-7">
      <path d="M 741 285 L 778 365 Q 786 384 793 392 Q 799 402 810 412 Q 821 421 822 425 Q 823 428 815 439 Q 808 449 790 462 Q 772 474 756 479 Q 740 483 735 483 Q 730 482 711 475 Q 693 467 658 463 L 587 454 L 546 447 L 409 424 C 379 419 399 377 428 386 L 447 392 Q 495 408 523 412 L 567 421 L 606 427 L 661 432 Q 696 434 705 434 Q 715 434 718 430 Q 721 426 718 408 Q 714 396 714 390 L 691 296 C 684 267 728 258 741 285 Z" fill="lightgray"></path>
      </clipPath>
      <path clip-path="url(#make-me-a-hanzi-clip-7)" d="M 417 420 L 438 410 L 597 440 L 737 453 L 764 427 L 725 317 L 699 301 " fill="none" id="make-me-a-hanzi-animation-7" stroke-dasharray="638 1276" stroke-linecap="round"></path>

      <clipPath id="make-me-a-hanzi-clip-8">
      <path d="M 586 246 L 655 254 L 734 257 Q 753 257 754 264 Q 756 271 748 278 L 741 285 C 725 301 721 300 691 296 L 567 278 L 521 272 L 496 270 Q 492 268 473 267 L 439 264 C 409 261 409 229 439 232 L 494 237 L 510 237 L 560 243 L 576 245 L 586 246 Z" fill="lightgray"></path>
      </clipPath>
      <path clip-path="url(#make-me-a-hanzi-clip-8)" d="M 445 237 L 457 250 L 670 275 L 745 268 " fill="none" id="make-me-a-hanzi-animation-8" stroke-dasharray="435 870" stroke-linecap="round"></path>

      <clipPath id="make-me-a-hanzi-clip-9">
      <path d="M 510 237 L 502 210 Q 469 114 406 50 Q 384 29 374 21 L 343 -3 Q 322 -19 283 -39 L 248 -58 Q 243 -63 244 -66 Q 246 -70 256 -69 L 271 -66 Q 306 -60 358 -34 Q 427 11 469 60 Q 483 78 508 119 Q 533 159 544 197 L 560 243 L 567 278 L 589 358 L 598 375 Q 605 389 603 395 Q 602 401 593 407 L 567 421 C 541 435 513 440 523 412 L 529 396 L 533 371 L 531 342 Q 530 315 527 302 L 521 272 L 510 237 Z" fill="lightgray"></path>
      </clipPath>
      <path clip-path="url(#make-me-a-hanzi-clip-9)" d="M 531 410 L 562 388 L 564 377 L 537 245 L 517 185 L 486 122 L 450 68 L 403 21 L 343 -25 L 251 -64 " fill="none" id="make-me-a-hanzi-animation-9" stroke-dasharray="752 1504" stroke-linecap="round"></path>

      <clipPath id="make-me-a-hanzi-clip-10">
      <path d="M 908 52 L 907 67 L 901 107 Q 899 116 897 118 Q 889 126 886 108 L 877 53 Q 867 2 854 -13 Q 841 -28 826 -32 Q 732 -61 664 -37 Q 635 -26 630 -12 Q 624 2 624 22 Q 622 37 625 65 Q 628 93 627 111 Q 627 129 646 180 Q 653 193 653 204 Q 652 219 624 232 L 607 240 Q 600 240 586 246 C 577 249 577 249 576 245 L 571 240 Q 566 235 575 220 L 582 200 Q 582 194 584 181 Q 586 167 584 156 L 580 82 Q 577 15 582 -12 Q 591 -51 620 -72 Q 675 -110 808 -95 Q 900 -80 932 -44 Q 941 -31 941 -27 Q 937 -19 929 -7 Q 921 5 918 18 Q 915 31 908 52 Z" fill="lightgray"></path>
      </clipPath>
      <path clip-path="url(#make-me-a-hanzi-clip-10)" d="M 582 234 L 616 198 L 600 51 L 606 -14 L 630 -49 L 655 -62 L 723 -73 L 795 -70 L 846 -57 L 882 -37 L 894 -25 L 894 111 " fill="none" id="make-me-a-hanzi-animation-10" stroke-dasharray="849 1698" stroke-linecap="round"></path>

      <clipPath id="make-me-a-hanzi-clip-11">
      <path d="M 1283 529 Q 1365 679 1375 688 Q 1384 700 1378 714 Q 1374 727 1342 749 Q 1312 765 1293 765 Q 1274 761 1283 739 Q 1301 706 1289 677 Q 1229 503 1077 299 Q 1067 287 1065 281 Q 1062 268 1077 272 Q 1143 299 1274 515 L 1283 529 Z" fill="lightgray"></path>
      </clipPath>
      <path clip-path="url(#make-me-a-hanzi-clip-11)" d="M 1295 749 L 1312 736 L 1335 703 L 1280 577 L 1179 407 L 1115 321 L 1074 281 " fill="none" id="make-me-a-hanzi-animation-11" stroke-dasharray="689 1378" stroke-linecap="round"></path>

      <clipPath id="make-me-a-hanzi-clip-12">
      <path d="M 1274 515 Q 1289 505 1364 520 Q 1400 535 1405 527 Q 1409 524 1405 516 Q 1380 449 1361 417 Q 1355 404 1354 398 Q 1353 388 1364 394 Q 1376 400 1429 464 Q 1462 504 1494 528 Q 1510 538 1499 550 Q 1486 560 1450 579 Q 1434 583 1421 573 Q 1411 569 1334 541 Q 1312 534 1283 529 C 1253 524 1249 523 1274 515 Z" fill="lightgray"></path>
      </clipPath>
      <path clip-path="url(#make-me-a-hanzi-clip-12)" d="M 1279 517 L 1391 546 L 1420 547 L 1443 538 L 1395 445 L 1361 400 " fill="none" id="make-me-a-hanzi-animation-12" stroke-dasharray="458 916" stroke-linecap="round"></path>

      <clipPath id="make-me-a-hanzi-clip-13">
      <path d="M 1326 355 Q 1332 368 1322 379 Q 1300 401 1278 413 Q 1260 420 1251 416 Q 1241 410 1249 395 Q 1282 319 1261 158 Q 1257 110 1216 62 Q 1204 47 1211 25 Q 1220 -2 1232 -13 Q 1245 -22 1257 -5 Q 1273 22 1413 135 Q 1431 147 1436 156 Q 1440 166 1430 166 Q 1414 165 1315 113 Q 1305 107 1304 116 Q 1317 225 1320 309 Q 1321 334 1326 355 Z" fill="lightgray"></path>
      </clipPath>
      <path clip-path="url(#make-me-a-hanzi-clip-13)" d="M 1258 405 L 1280 383 L 1294 354 L 1293 235 L 1277 115 L 1282 80 L 1321 89 L 1429 158 " fill="none" id="make-me-a-hanzi-animation-13" stroke-dasharray="635 1270" stroke-linecap="round"></path>

      <clipPath id="make-me-a-hanzi-clip-14">
      <path d="M 1617 553 Q 1710 584 1760 612 Q 1803 634 1841 644 Q 1857 645 1861 654 Q 1864 664 1851 675 Q 1791 711 1755 707 Q 1748 703 1748 691 Q 1749 660 1602 569 C 1577 553 1589 543 1617 553 Z" fill="lightgray"></path>
      </clipPath>
      <path clip-path="url(#make-me-a-hanzi-clip-14)" d="M 1850 658 L 1833 664 L 1780 664 L 1742 633 L 1655 582 L 1623 569 L 1615 574 " fill="none" id="make-me-a-hanzi-animation-14" stroke-dasharray="393 786" stroke-linecap="round"></path>

      <clipPath id="make-me-a-hanzi-clip-15">
      <path d="M 1599 374 Q 1612 519 1616 539 Q 1617 546 1617 553 C 1618 561 1618 561 1602 569 Q 1556 594 1540 592 Q 1521 588 1536 566 Q 1552 536 1553 497 Q 1557 443 1545 333 Q 1538 258 1499 170 Q 1463 91 1380 21 Q 1365 8 1362 2 Q 1361 -5 1372 -5 Q 1411 -5 1484 70 Q 1568 160 1596 355 L 1599 374 Z" fill="lightgray"></path>
      </clipPath>
      <path clip-path="url(#make-me-a-hanzi-clip-15)" d="M 1542 578 L 1579 546 L 1582 536 L 1577 389 L 1551 245 L 1526 174 L 1488 106 L 1423 36 L 1370 2 " fill="none" id="make-me-a-hanzi-animation-15" stroke-dasharray="792 1584" stroke-linecap="round"></path>

      <clipPath id="make-me-a-hanzi-clip-16">
      <path d="M 1760 143 Q 1797 194 1842 335 Q 1852 363 1871 383 Q 1889 401 1875 413 Q 1862 425 1829 434 Q 1811 438 1741 408 Q 1657 384 1606 376 Q 1602 376 1599 374 C 1570 368 1567 363 1596 355 Q 1600 355 1603 353 Q 1640 340 1687 357 Q 1751 382 1762 382 Q 1787 381 1782 353 Q 1767 269 1723 180 L 1700 146 Q 1634 68 1527 30 Q 1514 24 1526 18 Q 1532 12 1572 15 Q 1653 24 1731 106 L 1760 143 Z" fill="lightgray"></path>
      </clipPath>
      <path clip-path="url(#make-me-a-hanzi-clip-16)" d="M 1601 359 L 1694 375 L 1757 400 L 1780 401 L 1821 390 L 1783 248 L 1750 176 L 1717 127 L 1624 51 L 1560 26 L 1533 23 " fill="none" id="make-me-a-hanzi-animation-16" stroke-dasharray="857 1714" stroke-linecap="round"></path>

      <clipPath id="make-me-a-hanzi-clip-17">
      <path d="M 1731 106 Q 1785 37 1833 -18 Q 1848 -36 1871 -35 Q 1998 -23 2006 -12 Q 2010 -6 2000 -3 Q 1847 61 1760 143 L 1723 180 Q 1695 211 1661 250 Q 1651 263 1636 265 Q 1611 266 1603 258 Q 1600 252 1609 247 Q 1639 231 1700 146 L 1731 106 Z" fill="lightgray"></path>
      </clipPath>
      <path clip-path="url(#make-me-a-hanzi-clip-17)" d="M 1610 255 L 1644 243 L 1754 114 L 1868 10 L 2001 -9 " fill="none" id="make-me-a-hanzi-animation-17" stroke-dasharray="622 1244" stroke-linecap="round"></path>

</g>
</svg>
