<svg version="1.1" viewBox="0 0 2048 1024" xmlns="http://www.w3.org/2000/svg">
  <g stroke="lightgray" stroke-dasharray="1,1" stroke-width="1" transform="scale(4, 4)">
    <line x1="0" y1="0" x2="256" y2="256"></line>
    <line x1="256" y1="0" x2="0" y2="256"></line>
    <line x1="128" y1="0" x2="128" y2="256"></line>
    <line x1="0" y1="128" x2="256" y2="128"></line>
    <line x1="256" y1="0" x2="512" y2="256"></line>
    <line x1="512" y1="0" x2="256" y2="256"></line>
    <line x1="384" y1="0" x2="384" y2="256"></line>
    <line x1="256" y1="128" x2="512" y2="128"></line>
  </g>
<g transform="scale(1, -1) translate(0, -850)">
   <style type="text/css">
    @keyframes keyframes0 {
      from {
       stroke: black;
       stroke-dashoffset: 1090;
       stroke-width: 128;
       }
       78% {
       animation-timing-function: step-end;
       stroke: black;
       stroke-dashoffset: 0;
       stroke-width: 128;
       }
       to {
       stroke: black;
       stroke-width: 1024;
       }
       }
       #make-me-a-hanzi-animation-0 {
         animation: keyframes0 1.137044s both;
         animation-delay: 0.000000s;
         animation-timing-function: linear;
       }
    @keyframes keyframes1 {
      from {
       stroke: black;
       stroke-dashoffset: 1409;
       stroke-width: 128;
       }
       82% {
       animation-timing-function: step-end;
       stroke: black;
       stroke-dashoffset: 0;
       stroke-width: 128;
       }
       to {
       stroke: black;
       stroke-width: 1024;
       }
       }
       #make-me-a-hanzi-animation-1 {
         animation: keyframes1 1.396647s both;
         animation-delay: 1.137044s;
         animation-timing-function: linear;
       }
    @keyframes keyframes2 {
      from {
       stroke: black;
       stroke-dashoffset: 515;
       stroke-width: 128;
       }
       63% {
       animation-timing-function: step-end;
       stroke: black;
       stroke-dashoffset: 0;
       stroke-width: 128;
       }
       to {
       stroke: black;
       stroke-width: 1024;
       }
       }
       #make-me-a-hanzi-animation-2 {
         animation: keyframes2 0.669108s both;
         animation-delay: 2.533691s;
         animation-timing-function: linear;
       }
    @keyframes keyframes3 {
      from {
       stroke: black;
       stroke-dashoffset: 524;
       stroke-width: 128;
       }
       63% {
       animation-timing-function: step-end;
       stroke: black;
       stroke-dashoffset: 0;
       stroke-width: 128;
       }
       to {
       stroke: black;
       stroke-width: 1024;
       }
       }
       #make-me-a-hanzi-animation-3 {
         animation: keyframes3 0.676432s both;
         animation-delay: 3.202799s;
         animation-timing-function: linear;
       }
    @keyframes keyframes4 {
      from {
       stroke: black;
       stroke-dashoffset: 399;
       stroke-width: 128;
       }
       56% {
       animation-timing-function: step-end;
       stroke: black;
       stroke-dashoffset: 0;
       stroke-width: 128;
       }
       to {
       stroke: black;
       stroke-width: 1024;
       }
       }
       #make-me-a-hanzi-animation-4 {
         animation: keyframes4 0.574707s both;
         animation-delay: 3.879231s;
         animation-timing-function: linear;
       }
    @keyframes keyframes5 {
      from {
       stroke: black;
       stroke-dashoffset: 1066;
       stroke-width: 128;
       }
       78% {
       animation-timing-function: step-end;
       stroke: black;
       stroke-dashoffset: 0;
       stroke-width: 128;
       }
       to {
       stroke: black;
       stroke-width: 1024;
       }
       }
       #make-me-a-hanzi-animation-5 {
         animation: keyframes5 1.117513s both;
         animation-delay: 4.453938s;
         animation-timing-function: linear;
       }
    @keyframes keyframes6 {
      from {
       stroke: black;
       stroke-dashoffset: 645;
       stroke-width: 128;
       }
       68% {
       animation-timing-function: step-end;
       stroke: black;
       stroke-dashoffset: 0;
       stroke-width: 128;
       }
       to {
       stroke: black;
       stroke-width: 1024;
       }
       }
       #make-me-a-hanzi-animation-6 {
         animation: keyframes6 0.774902s both;
         animation-delay: 5.571451s;
         animation-timing-function: linear;
       }
    @keyframes keyframes7 {
      from {
       stroke: black;
       stroke-dashoffset: 378;
       stroke-width: 128;
       }
       55% {
       animation-timing-function: step-end;
       stroke: black;
       stroke-dashoffset: 0;
       stroke-width: 128;
       }
       to {
       stroke: black;
       stroke-width: 1024;
       }
       }
       #make-me-a-hanzi-animation-7 {
         animation: keyframes7 0.557617s both;
         animation-delay: 6.346353s;
         animation-timing-function: linear;
       }
    @keyframes keyframes8 {
      from {
       stroke: black;
       stroke-dashoffset: 391;
       stroke-width: 128;
       }
       56% {
       animation-timing-function: step-end;
       stroke: black;
       stroke-dashoffset: 0;
       stroke-width: 128;
       }
       to {
       stroke: black;
       stroke-width: 1024;
       }
       }
       #make-me-a-hanzi-animation-8 {
         animation: keyframes8 0.568197s both;
         animation-delay: 6.903970s;
         animation-timing-function: linear;
       }
    @keyframes keyframes9 {
      from {
       stroke: black;
       stroke-dashoffset: 1230;
       stroke-width: 128;
       }
       80% {
       animation-timing-function: step-end;
       stroke: black;
       stroke-dashoffset: 0;
       stroke-width: 128;
       }
       to {
       stroke: black;
       stroke-width: 1024;
       }
       }
       #make-me-a-hanzi-animation-9 {
         animation: keyframes9 1.250977s both;
         animation-delay: 7.472167s;
         animation-timing-function: linear;
       }
    @keyframes keyframes10 {
      from {
       stroke: black;
       stroke-dashoffset: 818;
       stroke-width: 128;
       }
       73% {
       animation-timing-function: step-end;
       stroke: black;
       stroke-dashoffset: 0;
       stroke-width: 128;
       }
       to {
       stroke: black;
       stroke-width: 1024;
       }
       }
       #make-me-a-hanzi-animation-10 {
         animation: keyframes10 0.915690s both;
         animation-delay: 8.723144s;
         animation-timing-function: linear;
       }
</style>
<path d="M 486.5 697.5 L 466.5 709.5 Q 451.5 718.5 445.5 719.5 Q 396.5 733.5 390.5 721.5 Q 386.5 718.5 388.5 706.5 L 400.5 675.5 Q 404.5 666.5 408.5 634.5 Q 410.5 584.5 410.5 571.5 L 407.5 447.5 Q 406.5 387.5 391.5 293.5 Q 376.5 210.5 345.5 153.5 Q 314.5 96.5 297.5 74.5 Q 281.5 52.5 257.5 27.5 Q 233.5 1.5 224.5 -5.5 L 210.5 -19.5 Q 200.5 -26.5 202.5 -30.5 Q 204.5 -35.5 210.5 -34.5 Q 217.5 -34.5 221.5 -30.5 L 242.5 -19.5 Q 252.5 -14.5 278.5 4.5 Q 304.5 22.5 316.5 33.5 Q 334.5 47.5 360.5 78.5 Q 401.5 129.5 426.5 203.5 Q 439.5 241.5 439.5 244.5 L 450.5 291.5 L 456.5 322.5 L 461.5 383.5 L 466.5 473.5 L 466.5 502.5 L 469.5 579.5 Q 469.5 608.5 473.5 620.5 L 485.5 653.5 Q 488.5 657.5 490.5 665.5 C 499.5 689.5 499.5 689.5 486.5 697.5 Z" fill="lightgray"></path> 
<path d="M 732.5 325.5 L 726.5 131.5 L 723.5 73.5 Q 720.5 37.5 699.5 30.5 Q 693.5 26.5 663.5 31.5 L 593.5 45.5 Q 583.5 47.5 581.5 41.5 Q 579.5 35.5 587.5 30.5 L 629.5 1.5 Q 678.5 -38.5 692.5 -52.5 Q 712.5 -77.5 724.5 -76.5 Q 737.5 -75.5 751.5 -57.5 Q 765.5 -40.5 776.5 -17.5 Q 787.5 5.5 791.5 73.5 L 790.5 179.5 L 795.5 565.5 Q 795.5 622.5 799.5 639.5 Q 801.5 657.5 812.5 677.5 Q 823.5 696.5 821.5 702.5 Q 819.5 708.5 813.5 713.5 Q 807.5 718.5 778.5 736.5 Q 749.5 753.5 735.5 753.5 Q 722.5 753.5 698.5 744.5 Q 675.5 735.5 646.5 727.5 Q 618.5 719.5 612.5 719.5 L 486.5 697.5 C 456.5 692.5 461.5 659.5 490.5 665.5 L 528.5 673.5 Q 553.5 679.5 597.5 685.5 L 668.5 695.5 Q 712.5 700.5 725.5 687.5 Q 731.5 680.5 732.5 659.5 L 734.5 637.5 L 733.5 524.5 L 734.5 499.5 L 732.5 339.5 L 732.5 325.5 Z" fill="lightgray"></path> 
<path d="M 466.5 473.5 L 493.5 467.5 Q 517.5 462.5 591.5 476.5 L 734.5 499.5 C 764.5 504.5 761.5 513.5 733.5 524.5 L 716.5 531.5 L 699.5 536.5 Q 686.5 540.5 668.5 540.5 L 466.5 502.5 C 437.5 496.5 437.5 480.5 466.5 473.5 Z" fill="lightgray"></path> 
<path d="M 502.5 283.5 L 522.5 285.5 L 562.5 293.5 L 637.5 305.5 L 688.5 311.5 Q 710.5 313.5 720.5 319.5 Q 731.5 325.5 732.5 325.5 C 748.5 333.5 748.5 333.5 732.5 339.5 L 709.5 348.5 Q 679.5 357.5 662.5 358.5 Q 645.5 358.5 616.5 350.5 Q 587.5 342.5 568.5 339.5 L 536.5 334.5 Q 502.5 328.5 456.5 322.5 C 426.5 318.5 421.5 299.5 450.5 291.5 L 473.5 285.5 Q 488.5 282.5 502.5 283.5 Z" fill="lightgray"></path> 
<path d="M 1382.5 706.5 Q 1390.5 693.5 1408.5 672.5 Q 1424.5 651.5 1434.5 637.5 Q 1445.5 623.5 1452.5 619.5 Q 1462.5 613.5 1470.5 613.5 L 1474.5 613.5 Q 1484.5 615.5 1490.5 621.5 Q 1496.5 626.5 1500.5 639.5 Q 1504.5 649.5 1504.5 658.5 Q 1504.5 665.5 1502.5 671.5 Q 1498.5 686.5 1492.5 694.5 Q 1486.5 702.5 1474.5 708.5 L 1448.5 718.5 L 1422.5 727.5 Q 1409.5 732.5 1400.5 733.5 L 1376.5 739.5 Q 1370.5 739.5 1368.5 735.5 Q 1367.5 734.5 1367.5 732.5 Q 1367.5 728.5 1370.5 724.5 L 1382.5 706.5 Z" fill="lightgray"></path> 
<path d="M 1362.5 343.5 L 1378.5 360.5 L 1392.5 376.5 L 1448.5 436.5 Q 1464.5 453.5 1476.5 462.5 L 1502.5 481.5 Q 1513.5 489.5 1514.5 496.5 Q 1515.5 498.5 1515.5 500.5 Q 1515.5 505.5 1510.5 512.5 Q 1505.5 522.5 1494.5 527.5 Q 1484.5 533.5 1466.5 542.5 Q 1448.5 551.5 1442.5 552.5 Q 1438.5 552.5 1424.5 545.5 Q 1411.5 538.5 1390.5 531.5 L 1348.5 519.5 Q 1326.5 512.5 1304.5 507.5 L 1250.5 497.5 Q 1218.5 492.5 1200.5 491.5 L 1174.5 488.5 L 1160.5 488.5 Q 1152.5 486.5 1152.5 481.5 L 1152.5 480.5 Q 1152.5 477.5 1156.5 472.5 Q 1160.5 465.5 1166.5 461.5 Q 1174.5 456.5 1188.5 448.5 Q 1204.5 439.5 1210.5 439.5 Q 1216.5 439.5 1226.5 443.5 L 1258.5 452.5 L 1340.5 476.5 Q 1370.5 485.5 1386.5 491.5 Q 1403.5 497.5 1410.5 497.5 Q 1417.5 497.5 1418.5 493.5 Q 1420.5 490.5 1420.5 485.5 Q 1418.5 479.5 1408.5 470.5 Q 1400.5 461.5 1374.5 428.5 Q 1350.5 395.5 1324.5 367.5 L 1270.5 313.5 L 1216.5 256.5 Q 1196.5 235.5 1168.5 213.5 Q 1142.5 191.5 1126.5 180.5 L 1104.5 165.5 Q 1098.5 161.5 1098.5 156.5 Q 1100.5 151.5 1104.5 151.5 Q 1105.5 150.5 1106.5 150.5 Q 1109.5 150.5 1114.5 153.5 L 1132.5 161.5 Q 1148.5 167.5 1178.5 183.5 Q 1208.5 201.5 1224.5 212.5 Q 1239.5 223.5 1262.5 243.5 Q 1282.5 261.5 1296.5 275.5 Q 1311.5 288.5 1320.5 298.5 L 1336.5 317.5 L 1362.5 343.5 Z" fill="lightgray"></path> 
<path d="M 1336.5 317.5 L 1338.5 300.5 Q 1340.5 291.5 1340.5 283.5 L 1340.5 256.5 Q 1342.5 227.5 1342.5 225.5 L 1336.5 137.5 Q 1336.5 123.5 1332.5 103.5 Q 1328.5 83.5 1326.5 72.5 Q 1324.5 61.5 1318.5 43.5 Q 1314.5 25.5 1314.5 18.5 L 1314.5 3.5 Q 1316.5 -4.5 1324.5 -24.5 Q 1332.5 -42.5 1338.5 -53.5 Q 1346.5 -63.5 1352.5 -63.5 L 1353.5 -63.5 Q 1359.5 -63.5 1366.5 -52.5 Q 1372.5 -41.5 1376.5 -29.5 Q 1381.5 -16.5 1382.5 -4.5 Q 1386.5 7.5 1386.5 17.5 L 1384.5 75.5 L 1388.5 222.5 Q 1388.5 235.5 1390.5 249.5 Q 1392.5 263.5 1392.5 267.5 Q 1393.5 271.5 1394.5 279.5 C 1397.5 299.5 1399.5 297.5 1398.5 298.5 L 1388.5 315.5 Q 1387.5 320.5 1378.5 327.5 Q 1371.5 335.5 1362.5 343.5 C 1340.5 364.5 1332.5 347.5 1336.5 317.5 Z" fill="lightgray"></path> 
<path d="M 1432.5 287.5 L 1456.5 301.5 L 1486.5 318.5 Q 1503.5 326.5 1510.5 329.5 Q 1518.5 333.5 1522.5 335.5 L 1526.5 339.5 L 1526.5 341.5 Q 1526.5 345.5 1520.5 353.5 Q 1514.5 363.5 1506.5 369.5 Q 1500.5 375.5 1488.5 381.5 Q 1478.5 387.5 1473.5 387.5 Q 1468.5 387.5 1466.5 384.5 Q 1464.5 381.5 1462.5 373.5 Q 1460.5 365.5 1458.5 359.5 Q 1456.5 353.5 1450.5 344.5 L 1438.5 324.5 Q 1430.5 313.5 1414.5 293.5 C 1395.5 270.5 1406.5 272.5 1432.5 287.5 Z" fill="lightgray"></path> 
<path d="M 1394.5 279.5 L 1420.5 251.5 L 1448.5 220.5 Q 1462.5 203.5 1474.5 193.5 Q 1486.5 182.5 1496.5 181.5 Q 1506.5 181.5 1516.5 189.5 Q 1524.5 197.5 1524.5 211.5 L 1524.5 213.5 Q 1524.5 226.5 1512.5 239.5 Q 1500.5 253.5 1486.5 261.5 Q 1473.5 269.5 1458.5 276.5 Q 1444.5 283.5 1432.5 287.5 L 1414.5 293.5 L 1406.5 296.5 L 1398.5 298.5 C 1370.5 305.5 1374.5 301.5 1394.5 279.5 Z" fill="lightgray"></path> 
<path d="M 1722.5 475.5 L 1826.5 493.5 Q 1839.5 496.5 1850.5 496.5 Q 1855.5 496.5 1860.5 495.5 Q 1875.5 494.5 1880.5 490.5 Q 1885.5 486.5 1886.5 478.5 Q 1889.5 472.5 1889.5 455.5 Q 1889.5 446.5 1888.5 435.5 Q 1886.5 401.5 1874.5 329.5 L 1852.5 197.5 Q 1848.5 165.5 1834.5 131.5 Q 1823.5 97.5 1812.5 85.5 Q 1802.5 72.5 1792.5 70.5 Q 1790.5 69.5 1786.5 69.5 Q 1777.5 69.5 1762.5 76.5 Q 1743.5 85.5 1738.5 87.5 L 1718.5 97.5 Q 1710.5 102.5 1705.5 102.5 Q 1703.5 102.5 1702.5 101.5 L 1702.5 100.5 Q 1702.5 96.5 1706.5 91.5 L 1726.5 63.5 Q 1742.5 43.5 1748.5 34.5 Q 1755.5 25.5 1766.5 6.5 Q 1776.5 -12.5 1780.5 -15.5 Q 1785.5 -18.5 1788.5 -19.5 Q 1790.5 -20.5 1793.5 -20.5 Q 1799.5 -20.5 1806.5 -16.5 Q 1818.5 -11.5 1834.5 2.5 Q 1848.5 15.5 1872.5 51.5 Q 1898.5 87.5 1914.5 205.5 L 1940.5 385.5 Q 1944.5 403.5 1948.5 419.5 Q 1950.5 435.5 1954.5 445.5 Q 1958.5 455.5 1964.5 467.5 Q 1972.5 479.5 1972.5 482.5 Q 1973.5 486.5 1973.5 491.5 Q 1973.5 495.5 1972.5 500.5 Q 1968.5 511.5 1940.5 529.5 Q 1912.5 547.5 1898.5 547.5 Q 1888.5 547.5 1864.5 539.5 Q 1839.5 529.5 1814.5 525.5 Q 1790.5 519.5 1746.5 512.5 L 1684.5 501.5 Q 1640.5 493.5 1618.5 491.5 L 1590.5 488.5 Q 1574.5 486.5 1572.5 484.5 Q 1570.5 482.5 1570.5 477.5 Q 1572.5 472.5 1584.5 465.5 L 1608.5 452.5 Q 1618.5 447.5 1625.5 447.5 Q 1632.5 447.5 1644.5 451.5 Q 1657.5 456.5 1662.5 457.5 L 1686.5 465.5 L 1722.5 475.5 Z" fill="lightgray"></path> 
<path d="M 1686.5 465.5 L 1690.5 441.5 L 1690.5 439.5 Q 1690.5 432.5 1686.5 407.5 Q 1682.5 379.5 1674.5 351.5 Q 1666.5 324.5 1646.5 279.5 Q 1627.5 233.5 1612.5 207.5 Q 1599.5 181.5 1578.5 152.5 Q 1558.5 123.5 1540.5 101.5 L 1496.5 51.5 L 1468.5 24.5 Q 1454.5 8.5 1454.5 6.5 Q 1455.5 4.5 1456.5 1.5 L 1457.5 1.5 Q 1461.5 1.5 1478.5 10.5 L 1506.5 27.5 Q 1532.5 42.5 1552.5 58.5 Q 1574.5 75.5 1596.5 99.5 Q 1619.5 124.5 1638.5 155.5 Q 1660.5 186.5 1670.5 206.5 Q 1683.5 226.5 1690.5 244.5 Q 1699.5 261.5 1720.5 309.5 Q 1741.5 356.5 1748.5 376.5 Q 1756.5 395.5 1766.5 407.5 Q 1776.5 418.5 1776.5 421.5 Q 1778.5 425.5 1778.5 429.5 Q 1778.5 433.5 1776.5 437.5 Q 1772.5 444.5 1762.5 452.5 Q 1751.5 461.5 1722.5 475.5 C 1695.5 489.5 1681.5 495.5 1686.5 465.5 Z" fill="lightgray"></path> 
      <clipPath id="make-me-a-hanzi-clip-0">
      <path d="M 486.5 697.5 L 466.5 709.5 Q 451.5 718.5 445.5 719.5 Q 396.5 733.5 390.5 721.5 Q 386.5 718.5 388.5 706.5 L 400.5 675.5 Q 404.5 666.5 408.5 634.5 Q 410.5 584.5 410.5 571.5 L 407.5 447.5 Q 406.5 387.5 391.5 293.5 Q 376.5 210.5 345.5 153.5 Q 314.5 96.5 297.5 74.5 Q 281.5 52.5 257.5 27.5 Q 233.5 1.5 224.5 -5.5 L 210.5 -19.5 Q 200.5 -26.5 202.5 -30.5 Q 204.5 -35.5 210.5 -34.5 Q 217.5 -34.5 221.5 -30.5 L 242.5 -19.5 Q 252.5 -14.5 278.5 4.5 Q 304.5 22.5 316.5 33.5 Q 334.5 47.5 360.5 78.5 Q 401.5 129.5 426.5 203.5 Q 439.5 241.5 439.5 244.5 L 450.5 291.5 L 456.5 322.5 L 461.5 383.5 L 466.5 473.5 L 466.5 502.5 L 469.5 579.5 Q 469.5 608.5 473.5 620.5 L 485.5 653.5 Q 488.5 657.5 490.5 665.5 C 499.5 689.5 499.5 689.5 486.5 697.5 Z" fill="lightgray"></path>
      </clipPath>
      <path clip-path="url(#make-me-a-hanzi-clip-0)" d="M 402.5 712.5 L 428.5 692.5 L 445.5 668.5 L 432.5 378.5 L 409.5 240.5 L 379.5 159.5 L 335.5 86.5 L 250.5 -0.5 L 209.5 -26.5 " fill="none" id="make-me-a-hanzi-animation-0" stroke-dasharray="962 1924" stroke-linecap="round"></path>

      <clipPath id="make-me-a-hanzi-clip-1">
      <path d="M 732.5 325.5 L 726.5 131.5 L 723.5 73.5 Q 720.5 37.5 699.5 30.5 Q 693.5 26.5 663.5 31.5 L 593.5 45.5 Q 583.5 47.5 581.5 41.5 Q 579.5 35.5 587.5 30.5 L 629.5 1.5 Q 678.5 -38.5 692.5 -52.5 Q 712.5 -77.5 724.5 -76.5 Q 737.5 -75.5 751.5 -57.5 Q 765.5 -40.5 776.5 -17.5 Q 787.5 5.5 791.5 73.5 L 790.5 179.5 L 795.5 565.5 Q 795.5 622.5 799.5 639.5 Q 801.5 657.5 812.5 677.5 Q 823.5 696.5 821.5 702.5 Q 819.5 708.5 813.5 713.5 Q 807.5 718.5 778.5 736.5 Q 749.5 753.5 735.5 753.5 Q 722.5 753.5 698.5 744.5 Q 675.5 735.5 646.5 727.5 Q 618.5 719.5 612.5 719.5 L 486.5 697.5 C 456.5 692.5 461.5 659.5 490.5 665.5 L 528.5 673.5 Q 553.5 679.5 597.5 685.5 L 668.5 695.5 Q 712.5 700.5 725.5 687.5 Q 731.5 680.5 732.5 659.5 L 734.5 637.5 L 733.5 524.5 L 734.5 499.5 L 732.5 339.5 L 732.5 325.5 Z" fill="lightgray"></path>
      </clipPath>
      <path clip-path="url(#make-me-a-hanzi-clip-1)" d="M 495.5 671.5 L 512.5 687.5 L 700.5 720.5 L 735.5 720.5 L 753.5 710.5 L 771.5 689.5 L 764.5 601.5 L 757.5 65.5 L 750.5 30.5 L 737.5 2.5 L 722.5 -13.5 L 684.5 -3.5 L 589.5 38.5 " fill="none" id="make-me-a-hanzi-animation-1" stroke-dasharray="1281 2562" stroke-linecap="round"></path>

      <clipPath id="make-me-a-hanzi-clip-2">
      <path d="M 466.5 473.5 L 493.5 467.5 Q 517.5 462.5 591.5 476.5 L 734.5 499.5 C 764.5 504.5 761.5 513.5 733.5 524.5 L 716.5 531.5 L 699.5 536.5 Q 686.5 540.5 668.5 540.5 L 466.5 502.5 C 437.5 496.5 437.5 480.5 466.5 473.5 Z" fill="lightgray"></path>
      </clipPath>
      <path clip-path="url(#make-me-a-hanzi-clip-2)" d="M 475.5 495.5 L 484.5 487.5 L 516.5 488.5 L 675.5 515.5 L 717.5 513.5 L 726.5 505.5 " fill="none" id="make-me-a-hanzi-animation-2" stroke-dasharray="387 774" stroke-linecap="round"></path>

      <clipPath id="make-me-a-hanzi-clip-3">
      <path d="M 502.5 283.5 L 522.5 285.5 L 562.5 293.5 L 637.5 305.5 L 688.5 311.5 Q 710.5 313.5 720.5 319.5 Q 731.5 325.5 732.5 325.5 C 748.5 333.5 748.5 333.5 732.5 339.5 L 709.5 348.5 Q 679.5 357.5 662.5 358.5 Q 645.5 358.5 616.5 350.5 Q 587.5 342.5 568.5 339.5 L 536.5 334.5 Q 502.5 328.5 456.5 322.5 C 426.5 318.5 421.5 299.5 450.5 291.5 L 473.5 285.5 Q 488.5 282.5 502.5 283.5 Z" fill="lightgray"></path>
      </clipPath>
      <path clip-path="url(#make-me-a-hanzi-clip-3)" d="M 458.5 298.5 L 646.5 332.5 L 723.5 332.5 " fill="none" id="make-me-a-hanzi-animation-3" stroke-dasharray="396 792" stroke-linecap="round"></path>

      <clipPath id="make-me-a-hanzi-clip-4">
      <path d="M 1382.5 706.5 Q 1390.5 693.5 1408.5 672.5 Q 1424.5 651.5 1434.5 637.5 Q 1445.5 623.5 1452.5 619.5 Q 1462.5 613.5 1470.5 613.5 L 1474.5 613.5 Q 1484.5 615.5 1490.5 621.5 Q 1496.5 626.5 1500.5 639.5 Q 1504.5 649.5 1504.5 658.5 Q 1504.5 665.5 1502.5 671.5 Q 1498.5 686.5 1492.5 694.5 Q 1486.5 702.5 1474.5 708.5 L 1448.5 718.5 L 1422.5 727.5 Q 1409.5 732.5 1400.5 733.5 L 1376.5 739.5 Q 1370.5 739.5 1368.5 735.5 Q 1367.5 734.5 1367.5 732.5 Q 1367.5 728.5 1370.5 724.5 L 1382.5 706.5 Z" fill="lightgray"></path>
      </clipPath>
      <path clip-path="url(#make-me-a-hanzi-clip-4)" d="M 1375.5 731.5 L 1460.5 670.5 L 1472.5 634.5 " fill="none" id="make-me-a-hanzi-animation-4" stroke-dasharray="271 542" stroke-linecap="round"></path>

      <clipPath id="make-me-a-hanzi-clip-5">
      <path d="M 1362.5 343.5 L 1378.5 360.5 L 1392.5 376.5 L 1448.5 436.5 Q 1464.5 453.5 1476.5 462.5 L 1502.5 481.5 Q 1513.5 489.5 1514.5 496.5 Q 1515.5 498.5 1515.5 500.5 Q 1515.5 505.5 1510.5 512.5 Q 1505.5 522.5 1494.5 527.5 Q 1484.5 533.5 1466.5 542.5 Q 1448.5 551.5 1442.5 552.5 Q 1438.5 552.5 1424.5 545.5 Q 1411.5 538.5 1390.5 531.5 L 1348.5 519.5 Q 1326.5 512.5 1304.5 507.5 L 1250.5 497.5 Q 1218.5 492.5 1200.5 491.5 L 1174.5 488.5 L 1160.5 488.5 Q 1152.5 486.5 1152.5 481.5 L 1152.5 480.5 Q 1152.5 477.5 1156.5 472.5 Q 1160.5 465.5 1166.5 461.5 Q 1174.5 456.5 1188.5 448.5 Q 1204.5 439.5 1210.5 439.5 Q 1216.5 439.5 1226.5 443.5 L 1258.5 452.5 L 1340.5 476.5 Q 1370.5 485.5 1386.5 491.5 Q 1403.5 497.5 1410.5 497.5 Q 1417.5 497.5 1418.5 493.5 Q 1420.5 490.5 1420.5 485.5 Q 1418.5 479.5 1408.5 470.5 Q 1400.5 461.5 1374.5 428.5 Q 1350.5 395.5 1324.5 367.5 L 1270.5 313.5 L 1216.5 256.5 Q 1196.5 235.5 1168.5 213.5 Q 1142.5 191.5 1126.5 180.5 L 1104.5 165.5 Q 1098.5 161.5 1098.5 156.5 Q 1100.5 151.5 1104.5 151.5 Q 1105.5 150.5 1106.5 150.5 Q 1109.5 150.5 1114.5 153.5 L 1132.5 161.5 Q 1148.5 167.5 1178.5 183.5 Q 1208.5 201.5 1224.5 212.5 Q 1239.5 223.5 1262.5 243.5 Q 1282.5 261.5 1296.5 275.5 Q 1311.5 288.5 1320.5 298.5 L 1336.5 317.5 L 1362.5 343.5 Z" fill="lightgray"></path>
      </clipPath>
      <path clip-path="url(#make-me-a-hanzi-clip-5)" d="M 1160.5 481.5 L 1213.5 466.5 L 1417.5 518.5 L 1444.5 515.5 L 1458.5 500.5 L 1435.5 459.5 L 1266.5 275.5 L 1178.5 200.5 L 1105.5 158.5 " fill="none" id="make-me-a-hanzi-animation-5" stroke-dasharray="938 1876" stroke-linecap="round"></path>

      <clipPath id="make-me-a-hanzi-clip-6">
      <path d="M 1336.5 317.5 L 1338.5 300.5 Q 1340.5 291.5 1340.5 283.5 L 1340.5 256.5 Q 1342.5 227.5 1342.5 225.5 L 1336.5 137.5 Q 1336.5 123.5 1332.5 103.5 Q 1328.5 83.5 1326.5 72.5 Q 1324.5 61.5 1318.5 43.5 Q 1314.5 25.5 1314.5 18.5 L 1314.5 3.5 Q 1316.5 -4.5 1324.5 -24.5 Q 1332.5 -42.5 1338.5 -53.5 Q 1346.5 -63.5 1352.5 -63.5 L 1353.5 -63.5 Q 1359.5 -63.5 1366.5 -52.5 Q 1372.5 -41.5 1376.5 -29.5 Q 1381.5 -16.5 1382.5 -4.5 Q 1386.5 7.5 1386.5 17.5 L 1384.5 75.5 L 1388.5 222.5 Q 1388.5 235.5 1390.5 249.5 Q 1392.5 263.5 1392.5 267.5 Q 1393.5 271.5 1394.5 279.5 C 1397.5 299.5 1399.5 297.5 1398.5 298.5 L 1388.5 315.5 Q 1387.5 320.5 1378.5 327.5 Q 1371.5 335.5 1362.5 343.5 C 1340.5 364.5 1332.5 347.5 1336.5 317.5 Z" fill="lightgray"></path>
      </clipPath>
      <path clip-path="url(#make-me-a-hanzi-clip-6)" d="M 1362.5 334.5 L 1368.5 289.5 L 1349.5 8.5 L 1353.5 -53.5 " fill="none" id="make-me-a-hanzi-animation-6" stroke-dasharray="517 1034" stroke-linecap="round"></path>

      <clipPath id="make-me-a-hanzi-clip-7">
      <path d="M 1432.5 287.5 L 1456.5 301.5 L 1486.5 318.5 Q 1503.5 326.5 1510.5 329.5 Q 1518.5 333.5 1522.5 335.5 L 1526.5 339.5 L 1526.5 341.5 Q 1526.5 345.5 1520.5 353.5 Q 1514.5 363.5 1506.5 369.5 Q 1500.5 375.5 1488.5 381.5 Q 1478.5 387.5 1473.5 387.5 Q 1468.5 387.5 1466.5 384.5 Q 1464.5 381.5 1462.5 373.5 Q 1460.5 365.5 1458.5 359.5 Q 1456.5 353.5 1450.5 344.5 L 1438.5 324.5 Q 1430.5 313.5 1414.5 293.5 C 1395.5 270.5 1406.5 272.5 1432.5 287.5 Z" fill="lightgray"></path>
      </clipPath>
      <path clip-path="url(#make-me-a-hanzi-clip-7)" d="M 1521.5 340.5 L 1485.5 349.5 L 1444.5 308.5 L 1430.5 297.5 L 1421.5 298.5 " fill="none" id="make-me-a-hanzi-animation-7" stroke-dasharray="250 500" stroke-linecap="round"></path>

      <clipPath id="make-me-a-hanzi-clip-8">
      <path d="M 1394.5 279.5 L 1420.5 251.5 L 1448.5 220.5 Q 1462.5 203.5 1474.5 193.5 Q 1486.5 182.5 1496.5 181.5 Q 1506.5 181.5 1516.5 189.5 Q 1524.5 197.5 1524.5 211.5 L 1524.5 213.5 Q 1524.5 226.5 1512.5 239.5 Q 1500.5 253.5 1486.5 261.5 Q 1473.5 269.5 1458.5 276.5 Q 1444.5 283.5 1432.5 287.5 L 1414.5 293.5 L 1406.5 296.5 L 1398.5 298.5 C 1370.5 305.5 1374.5 301.5 1394.5 279.5 Z" fill="lightgray"></path>
      </clipPath>
      <path clip-path="url(#make-me-a-hanzi-clip-8)" d="M 1401.5 292.5 L 1407.5 282.5 L 1480.5 229.5 L 1493.5 216.5 L 1497.5 202.5 " fill="none" id="make-me-a-hanzi-animation-8" stroke-dasharray="263 526" stroke-linecap="round"></path>

      <clipPath id="make-me-a-hanzi-clip-9">
      <path d="M 1722.5 475.5 L 1826.5 493.5 Q 1839.5 496.5 1850.5 496.5 Q 1855.5 496.5 1860.5 495.5 Q 1875.5 494.5 1880.5 490.5 Q 1885.5 486.5 1886.5 478.5 Q 1889.5 472.5 1889.5 455.5 Q 1889.5 446.5 1888.5 435.5 Q 1886.5 401.5 1874.5 329.5 L 1852.5 197.5 Q 1848.5 165.5 1834.5 131.5 Q 1823.5 97.5 1812.5 85.5 Q 1802.5 72.5 1792.5 70.5 Q 1790.5 69.5 1786.5 69.5 Q 1777.5 69.5 1762.5 76.5 Q 1743.5 85.5 1738.5 87.5 L 1718.5 97.5 Q 1710.5 102.5 1705.5 102.5 Q 1703.5 102.5 1702.5 101.5 L 1702.5 100.5 Q 1702.5 96.5 1706.5 91.5 L 1726.5 63.5 Q 1742.5 43.5 1748.5 34.5 Q 1755.5 25.5 1766.5 6.5 Q 1776.5 -12.5 1780.5 -15.5 Q 1785.5 -18.5 1788.5 -19.5 Q 1790.5 -20.5 1793.5 -20.5 Q 1799.5 -20.5 1806.5 -16.5 Q 1818.5 -11.5 1834.5 2.5 Q 1848.5 15.5 1872.5 51.5 Q 1898.5 87.5 1914.5 205.5 L 1940.5 385.5 Q 1944.5 403.5 1948.5 419.5 Q 1950.5 435.5 1954.5 445.5 Q 1958.5 455.5 1964.5 467.5 Q 1972.5 479.5 1972.5 482.5 Q 1973.5 486.5 1973.5 491.5 Q 1973.5 495.5 1972.5 500.5 Q 1968.5 511.5 1940.5 529.5 Q 1912.5 547.5 1898.5 547.5 Q 1888.5 547.5 1864.5 539.5 Q 1839.5 529.5 1814.5 525.5 Q 1790.5 519.5 1746.5 512.5 L 1684.5 501.5 Q 1640.5 493.5 1618.5 491.5 L 1590.5 488.5 Q 1574.5 486.5 1572.5 484.5 Q 1570.5 482.5 1570.5 477.5 Q 1572.5 472.5 1584.5 465.5 L 1608.5 452.5 Q 1618.5 447.5 1625.5 447.5 Q 1632.5 447.5 1644.5 451.5 Q 1657.5 456.5 1662.5 457.5 L 1686.5 465.5 L 1722.5 475.5 Z" fill="lightgray"></path>
      </clipPath>
      <path clip-path="url(#make-me-a-hanzi-clip-9)" d="M 1577.5 479.5 L 1621.5 470.5 L 1642.5 472.5 L 1878.5 518.5 L 1898.5 516.5 L 1925.5 491.5 L 1880.5 176.5 L 1846.5 73.5 L 1801.5 29.5 L 1771.5 45.5 L 1704.5 101.5 " fill="none" id="make-me-a-hanzi-animation-9" stroke-dasharray="1102 2204" stroke-linecap="round"></path>

      <clipPath id="make-me-a-hanzi-clip-10">
      <path d="M 1686.5 465.5 L 1690.5 441.5 L 1690.5 439.5 Q 1690.5 432.5 1686.5 407.5 Q 1682.5 379.5 1674.5 351.5 Q 1666.5 324.5 1646.5 279.5 Q 1627.5 233.5 1612.5 207.5 Q 1599.5 181.5 1578.5 152.5 Q 1558.5 123.5 1540.5 101.5 L 1496.5 51.5 L 1468.5 24.5 Q 1454.5 8.5 1454.5 6.5 Q 1455.5 4.5 1456.5 1.5 L 1457.5 1.5 Q 1461.5 1.5 1478.5 10.5 L 1506.5 27.5 Q 1532.5 42.5 1552.5 58.5 Q 1574.5 75.5 1596.5 99.5 Q 1619.5 124.5 1638.5 155.5 Q 1660.5 186.5 1670.5 206.5 Q 1683.5 226.5 1690.5 244.5 Q 1699.5 261.5 1720.5 309.5 Q 1741.5 356.5 1748.5 376.5 Q 1756.5 395.5 1766.5 407.5 Q 1776.5 418.5 1776.5 421.5 Q 1778.5 425.5 1778.5 429.5 Q 1778.5 433.5 1776.5 437.5 Q 1772.5 444.5 1762.5 452.5 Q 1751.5 461.5 1722.5 475.5 C 1695.5 489.5 1681.5 495.5 1686.5 465.5 Z" fill="lightgray"></path>
      </clipPath>
      <path clip-path="url(#make-me-a-hanzi-clip-10)" d="M 1694.5 460.5 L 1722.5 440.5 L 1728.5 422.5 L 1698.5 329.5 L 1652.5 226.5 L 1575.5 108.5 L 1517.5 50.5 L 1457.5 4.5 " fill="none" id="make-me-a-hanzi-animation-10" stroke-dasharray="690 1380" stroke-linecap="round"></path>

</g>
</svg>
