<svg version="1.1" viewBox="0 0 2048 1024" xmlns="http://www.w3.org/2000/svg">
  <g stroke="lightgray" stroke-dasharray="1,1" stroke-width="1" transform="scale(4, 4)">
    <line x1="0" y1="0" x2="256" y2="256"></line>
    <line x1="256" y1="0" x2="0" y2="256"></line>
    <line x1="128" y1="0" x2="128" y2="256"></line>
    <line x1="0" y1="128" x2="256" y2="128"></line>
    <line x1="256" y1="0" x2="512" y2="256"></line>
    <line x1="512" y1="0" x2="256" y2="256"></line>
    <line x1="384" y1="0" x2="384" y2="256"></line>
    <line x1="256" y1="128" x2="512" y2="128"></line>
  </g>
<g transform="scale(1, -1) translate(0, -850)">
   <style type="text/css">
    @keyframes keyframes0 {
      from {
       stroke: black;
       stroke-dashoffset: 1020;
       stroke-width: 128;
       }
       77% {
       animation-timing-function: step-end;
       stroke: black;
       stroke-dashoffset: 0;
       stroke-width: 128;
       }
       to {
       stroke: black;
       stroke-width: 1024;
       }
       }
       #make-me-a-hanzi-animation-0 {
         animation: keyframes0 1.080078s both;
         animation-delay: 0.000000s;
         animation-timing-function: linear;
       }
    @keyframes keyframes1 {
      from {
       stroke: black;
       stroke-dashoffset: 1046;
       stroke-width: 128;
       }
       77% {
       animation-timing-function: step-end;
       stroke: black;
       stroke-dashoffset: 0;
       stroke-width: 128;
       }
       to {
       stroke: black;
       stroke-width: 1024;
       }
       }
       #make-me-a-hanzi-animation-1 {
         animation: keyframes1 1.101237s both;
         animation-delay: 1.080078s;
         animation-timing-function: linear;
       }
    @keyframes keyframes2 {
      from {
       stroke: black;
       stroke-dashoffset: 716;
       stroke-width: 128;
       }
       70% {
       animation-timing-function: step-end;
       stroke: black;
       stroke-dashoffset: 0;
       stroke-width: 128;
       }
       to {
       stroke: black;
       stroke-width: 1024;
       }
       }
       #make-me-a-hanzi-animation-2 {
         animation: keyframes2 0.832682s both;
         animation-delay: 2.181315s;
         animation-timing-function: linear;
       }
    @keyframes keyframes3 {
      from {
       stroke: black;
       stroke-dashoffset: 1168;
       stroke-width: 128;
       }
       79% {
       animation-timing-function: step-end;
       stroke: black;
       stroke-dashoffset: 0;
       stroke-width: 128;
       }
       to {
       stroke: black;
       stroke-width: 1024;
       }
       }
       #make-me-a-hanzi-animation-3 {
         animation: keyframes3 1.200521s both;
         animation-delay: 3.013997s;
         animation-timing-function: linear;
       }
    @keyframes keyframes4 {
      from {
       stroke: black;
       stroke-dashoffset: 504;
       stroke-width: 128;
       }
       62% {
       animation-timing-function: step-end;
       stroke: black;
       stroke-dashoffset: 0;
       stroke-width: 128;
       }
       to {
       stroke: black;
       stroke-width: 1024;
       }
       }
       #make-me-a-hanzi-animation-4 {
         animation: keyframes4 0.660156s both;
         animation-delay: 4.214518s;
         animation-timing-function: linear;
       }
    @keyframes keyframes5 {
      from {
       stroke: black;
       stroke-dashoffset: 501;
       stroke-width: 128;
       }
       62% {
       animation-timing-function: step-end;
       stroke: black;
       stroke-dashoffset: 0;
       stroke-width: 128;
       }
       to {
       stroke: black;
       stroke-width: 1024;
       }
       }
       #make-me-a-hanzi-animation-5 {
         animation: keyframes5 0.657715s both;
         animation-delay: 4.874674s;
         animation-timing-function: linear;
       }
    @keyframes keyframes6 {
      from {
       stroke: black;
       stroke-dashoffset: 390;
       stroke-width: 128;
       }
       56% {
       animation-timing-function: step-end;
       stroke: black;
       stroke-dashoffset: 0;
       stroke-width: 128;
       }
       to {
       stroke: black;
       stroke-width: 1024;
       }
       }
       #make-me-a-hanzi-animation-6 {
         animation: keyframes6 0.567383s both;
         animation-delay: 5.532389s;
         animation-timing-function: linear;
       }
    @keyframes keyframes7 {
      from {
       stroke: black;
       stroke-dashoffset: 436;
       stroke-width: 128;
       }
       59% {
       animation-timing-function: step-end;
       stroke: black;
       stroke-dashoffset: 0;
       stroke-width: 128;
       }
       to {
       stroke: black;
       stroke-width: 1024;
       }
       }
       #make-me-a-hanzi-animation-7 {
         animation: keyframes7 0.604818s both;
         animation-delay: 6.099772s;
         animation-timing-function: linear;
       }
    @keyframes keyframes8 {
      from {
       stroke: black;
       stroke-dashoffset: 989;
       stroke-width: 128;
       }
       76% {
       animation-timing-function: step-end;
       stroke: black;
       stroke-dashoffset: 0;
       stroke-width: 128;
       }
       to {
       stroke: black;
       stroke-width: 1024;
       }
       }
       #make-me-a-hanzi-animation-8 {
         animation: keyframes8 1.054850s both;
         animation-delay: 6.704590s;
         animation-timing-function: linear;
       }
    @keyframes keyframes9 {
      from {
       stroke: black;
       stroke-dashoffset: 589;
       stroke-width: 128;
       }
       66% {
       animation-timing-function: step-end;
       stroke: black;
       stroke-dashoffset: 0;
       stroke-width: 128;
       }
       to {
       stroke: black;
       stroke-width: 1024;
       }
       }
       #make-me-a-hanzi-animation-9 {
         animation: keyframes9 0.729329s both;
         animation-delay: 7.759440s;
         animation-timing-function: linear;
       }
    @keyframes keyframes10 {
      from {
       stroke: black;
       stroke-dashoffset: 692;
       stroke-width: 128;
       }
       69% {
       animation-timing-function: step-end;
       stroke: black;
       stroke-dashoffset: 0;
       stroke-width: 128;
       }
       to {
       stroke: black;
       stroke-width: 1024;
       }
       }
       #make-me-a-hanzi-animation-10 {
         animation: keyframes10 0.813151s both;
         animation-delay: 8.488770s;
         animation-timing-function: linear;
       }
    @keyframes keyframes11 {
      from {
       stroke: black;
       stroke-dashoffset: 966;
       stroke-width: 128;
       }
       76% {
       animation-timing-function: step-end;
       stroke: black;
       stroke-dashoffset: 0;
       stroke-width: 128;
       }
       to {
       stroke: black;
       stroke-width: 1024;
       }
       }
       #make-me-a-hanzi-animation-11 {
         animation: keyframes11 1.036133s both;
         animation-delay: 9.301921s;
         animation-timing-function: linear;
       }
    @keyframes keyframes12 {
      from {
       stroke: black;
       stroke-dashoffset: 710;
       stroke-width: 128;
       }
       70% {
       animation-timing-function: step-end;
       stroke: black;
       stroke-dashoffset: 0;
       stroke-width: 128;
       }
       to {
       stroke: black;
       stroke-width: 1024;
       }
       }
       #make-me-a-hanzi-animation-12 {
         animation: keyframes12 0.827799s both;
         animation-delay: 10.338053s;
         animation-timing-function: linear;
       }
    @keyframes keyframes13 {
      from {
       stroke: black;
       stroke-dashoffset: 473;
       stroke-width: 128;
       }
       61% {
       animation-timing-function: step-end;
       stroke: black;
       stroke-dashoffset: 0;
       stroke-width: 128;
       }
       to {
       stroke: black;
       stroke-width: 1024;
       }
       }
       #make-me-a-hanzi-animation-13 {
         animation: keyframes13 0.634928s both;
         animation-delay: 11.165853s;
         animation-timing-function: linear;
       }
    @keyframes keyframes14 {
      from {
       stroke: black;
       stroke-dashoffset: 713;
       stroke-width: 128;
       }
       70% {
       animation-timing-function: step-end;
       stroke: black;
       stroke-dashoffset: 0;
       stroke-width: 128;
       }
       to {
       stroke: black;
       stroke-width: 1024;
       }
       }
       #make-me-a-hanzi-animation-14 {
         animation: keyframes14 0.830241s both;
         animation-delay: 11.800781s;
         animation-timing-function: linear;
       }
    @keyframes keyframes15 {
      from {
       stroke: black;
       stroke-dashoffset: 535;
       stroke-width: 128;
       }
       64% {
       animation-timing-function: step-end;
       stroke: black;
       stroke-dashoffset: 0;
       stroke-width: 128;
       }
       to {
       stroke: black;
       stroke-width: 1024;
       }
       }
       #make-me-a-hanzi-animation-15 {
         animation: keyframes15 0.685384s both;
         animation-delay: 12.631022s;
         animation-timing-function: linear;
       }
</style>
<path d="M 489 452 L 587 462 L 714 472 Q 771 476 787 478 L 875 480 L 906 482 Q 920 485 920 495 Q 911 517 874 530 Q 838 542 828 543 Q 819 543 799 538 L 760 530 Q 747 526 711 523 L 504 495 L 431 484 L 221 458 Q 209 456 179 454 Q 149 451 147 447 Q 141 435 167 421 Q 201 406 215 407 Q 229 408 256 414 Q 283 420 295 422 L 418 443 L 489 452 Z" fill="lightgray"></path> 
<path d="M 415 305 L 443 355 Q 452 372 466 402 L 489 452 L 504 495 L 532 575 Q 542 604 547 611 L 556 626 Q 560 633 560 639 Q 560 645 550 656 Q 540 666 532 670 L 505 683 Q 477 694 466 683 Q 463 679 466 659 Q 469 639 468 632 Q 468 624 466 607 Q 464 589 463 586 L 459 570 Q 457 557 443 516 L 431 484 L 418 443 L 405 412 Q 399 395 377 354 Q 356 311 335 282 Q 283 212 229 162 L 130 78 L 113 66 Q 99 55 101 53 L 106 49 Q 107 48 117 50 L 134 56 Q 153 62 183 79 Q 312 151 387 265 L 415 305 Z" fill="lightgray"></path> 
<path d="M 387 265 L 395 246 L 399 184 Q 401 135 401 86 Q 401 36 389 -34 Q 384 -59 375 -81 Q 367 -104 367 -108 Q 369 -110 369 -123 Q 372 -137 376 -144 Q 379 -154 388 -165 Q 397 -176 406 -167 Q 415 -158 416 -155 L 422 -147 Q 427 -142 429 -130 L 433 -116 L 440 -73 L 448 26 L 451 56 Q 452 129 453 150 L 454 184 Q 455 270 452 271 C 444 341 360 328 387 265 Z" fill="lightgray"></path> 
<path d="M 704 185 L 704 80 L 703 57 L 700 -36 Q 698 -72 691 -87 Q 685 -103 672 -108 Q 667 -111 651 -109 Q 637 -107 588 -96 Q 579 -94 578 -100 Q 576 -106 588 -115 L 615 -134 L 658 -179 Q 682 -204 690 -206 Q 714 -208 739 -167 Q 765 -126 764 -71 Q 764 -42 760 57 Q 757 155 758 206 Q 760 256 773 279 Q 787 302 786 310 Q 785 317 774 324 Q 764 333 738 346 Q 712 358 705 358 Q 698 358 678 351 Q 658 344 643 341 Q 629 337 489 314 L 415 305 C 385 301 423 265 452 271 L 601 299 Q 619 302 672 307 Q 697 309 700 293 L 703 267 L 705 208 L 704 185 Z" fill="lightgray"></path> 
<path d="M 453 150 L 475 148 Q 490 146 501 148 Q 513 149 600 164 Q 687 179 704 185 C 733 193 734 202 705 208 L 670 215 Q 658 218 637 216 Q 513 193 454 184 C 424 179 423 153 453 150 Z" fill="lightgray"></path> 
<path d="M 448 26 L 459 24 Q 471 21 479 22 Q 487 22 703 57 C 733 62 732 69 704 80 Q 665 97 636 93 Q 626 93 570 81 Q 514 68 451 56 C 422 50 418 31 448 26 Z" fill="lightgray"></path> 
<path d="M 1548 555 L 1563 573 Q 1568 578 1567 602 Q 1567 625 1537 649 Q 1508 672 1482 675 Q 1457 677 1455 673 Q 1453 669 1453 665 Q 1454 661 1470 632 L 1495 581 Q 1499 569 1505 564 L 1521 550 C 1534 538 1534 538 1548 555 Z" fill="lightgray"></path> 
<path d="M 1253 537 L 1245 556 Q 1242 566 1239 571 Q 1236 575 1230 575 Q 1225 574 1219 563 L 1209 540 Q 1205 527 1197 507 Q 1189 486 1174 460 Q 1159 434 1155 425 Q 1152 411 1152 399 Q 1153 386 1168 375 Q 1184 364 1203 377 Q 1227 391 1245 442 Q 1252 467 1252 474 Q 1253 480 1258 497 C 1263 514 1263 514 1253 537 Z" fill="lightgray"></path> 
<path d="M 1258 497 L 1290 494 Q 1295 493 1318 496 L 1369 504 L 1590 531 L 1758 545 Q 1786 546 1790 532 Q 1794 518 1750 470 L 1739 454 Q 1734 448 1734 445 Q 1734 442 1754 447 L 1785 457 Q 1810 464 1857 471 Q 1904 478 1912 486 Q 1920 499 1912 513 Q 1905 527 1879 550 Q 1835 584 1817 590 Q 1801 592 1777 586 Q 1753 580 1741 578 L 1548 555 L 1521 550 L 1356 539 L 1253 537 C 1223 536 1228 500 1258 497 Z" fill="lightgray"></path> 
<path d="M 1533 362 L 1663 396 Q 1668 400 1669 405 Q 1671 410 1663 421 Q 1655 431 1636 443 Q 1618 455 1612 452 L 1582 433 Q 1576 427 1565 422 L 1537 409 L 1472 384 L 1416 365 Q 1398 360 1365 353 L 1342 348 Q 1332 347 1329 344 Q 1329 341 1330 338 Q 1332 335 1347 335 L 1359 335 Q 1367 335 1372 336 L 1425 341 L 1472 350 L 1533 362 Z" fill="lightgray"></path> 
<path d="M 1533 254 L 1729 268 Q 1740 271 1728 285 Q 1715 297 1706 302 L 1683 312 Q 1670 315 1647 312 Q 1638 308 1612 305 L 1533 293 L 1471 284 L 1334 272 L 1299 270 Q 1286 270 1284 265 Q 1280 261 1284 254 Q 1288 246 1303 240 Q 1318 236 1329 234 L 1475 246 L 1533 254 Z" fill="lightgray"></path> 
<path d="M 1645 132 L 1761 134 L 1863 132 Q 1867 131 1879 134 Q 1883 136 1884 144 Q 1886 152 1871 164 Q 1846 188 1803 193 Q 1785 193 1763 189 Q 1741 185 1721 183 L 1531 168 L 1477 163 L 1336 148 Q 1225 136 1213 136 L 1175 135 Q 1166 135 1164 130 Q 1164 121 1191 100 L 1213 87 Q 1230 74 1308 98 L 1413 114 Q 1437 118 1476 121 L 1530 125 Q 1616 131 1645 132 Z" fill="lightgray"></path> 
<path d="M 1531 168 L 1533 254 L 1533 293 L 1533 362 L 1537 409 L 1540 435 L 1546 450 Q 1549 457 1549 462 Q 1549 474 1528 482 Q 1507 490 1500 492 L 1485 496 L 1469 496 Q 1456 496 1453 491 Q 1451 486 1461 460 Q 1472 434 1472 398 L 1472 384 L 1472 350 L 1471 284 L 1475 246 L 1477 163 L 1476 121 L 1476 106 L 1479 76 Q 1479 62 1488 46 C 1498 24 1498 24 1511 49 Q 1517 60 1518 63 L 1524 81 L 1527 96 Q 1529 101 1530 125 L 1531 168 Z" fill="lightgray"></path> 
<path d="M 1379 32 L 1355 38 Q 1335 42 1325 39 Q 1319 35 1318 30 Q 1317 25 1325 16 Q 1333 6 1339 -4 L 1345 -22 L 1367 -140 Q 1369 -163 1376 -175 Q 1398 -198 1407 -169 L 1409 -158 L 1407 -122 L 1401 -52 Q 1399 -42 1394 -4 C 1390 26 1390 29 1379 32 Z" fill="lightgray"></path> 
<path d="M 1488 46 L 1379 32 C 1349 28 1364 -8 1394 -4 L 1462 6 Q 1498 12 1567 21 Q 1636 29 1644 22 Q 1656 11 1639 -44 L 1622 -104 C 1614 -133 1660 -141 1673 -114 L 1708 -44 Q 1716 -31 1727 -18 L 1753 6 Q 1766 16 1746 32 Q 1711 59 1687 70 Q 1675 73 1667 73 L 1623 62 L 1511 49 L 1488 46 Z" fill="lightgray"></path> 
<path d="M 1409 -158 L 1639 -146 Q 1665 -144 1677 -145 Q 1690 -147 1691 -144 Q 1696 -142 1696 -137 Q 1696 -132 1688 -126 L 1673 -114 C 1656 -101 1652 -101 1622 -104 L 1517 -114 Q 1445 -118 1407 -122 C 1377 -125 1379 -160 1409 -158 Z" fill="lightgray"></path> 
      <clipPath id="make-me-a-hanzi-clip-0">
      <path d="M 489 452 L 587 462 L 714 472 Q 771 476 787 478 L 875 480 L 906 482 Q 920 485 920 495 Q 911 517 874 530 Q 838 542 828 543 Q 819 543 799 538 L 760 530 Q 747 526 711 523 L 504 495 L 431 484 L 221 458 Q 209 456 179 454 Q 149 451 147 447 Q 141 435 167 421 Q 201 406 215 407 Q 229 408 256 414 Q 283 420 295 422 L 418 443 L 489 452 Z" fill="lightgray"></path>
      </clipPath>
      <path clip-path="url(#make-me-a-hanzi-clip-0)" d="M 152 443 L 218 432 L 544 480 L 827 511 L 908 495 " fill="none" id="make-me-a-hanzi-animation-0" stroke-dasharray="892 1784" stroke-linecap="round"></path>

      <clipPath id="make-me-a-hanzi-clip-1">
      <path d="M 415 305 L 443 355 Q 452 372 466 402 L 489 452 L 504 495 L 532 575 Q 542 604 547 611 L 556 626 Q 560 633 560 639 Q 560 645 550 656 Q 540 666 532 670 L 505 683 Q 477 694 466 683 Q 463 679 466 659 Q 469 639 468 632 Q 468 624 466 607 Q 464 589 463 586 L 459 570 Q 457 557 443 516 L 431 484 L 418 443 L 405 412 Q 399 395 377 354 Q 356 311 335 282 Q 283 212 229 162 L 130 78 L 113 66 Q 99 55 101 53 L 106 49 Q 107 48 117 50 L 134 56 Q 153 62 183 79 Q 312 151 387 265 L 415 305 Z" fill="lightgray"></path>
      </clipPath>
      <path clip-path="url(#make-me-a-hanzi-clip-1)" d="M 475 677 L 511 633 L 481 526 L 447 433 L 389 316 L 327 227 L 277 174 L 195 107 L 105 53 " fill="none" id="make-me-a-hanzi-animation-1" stroke-dasharray="918 1836" stroke-linecap="round"></path>

      <clipPath id="make-me-a-hanzi-clip-2">
      <path d="M 387 265 L 395 246 L 399 184 Q 401 135 401 86 Q 401 36 389 -34 Q 384 -59 375 -81 Q 367 -104 367 -108 Q 369 -110 369 -123 Q 372 -137 376 -144 Q 379 -154 388 -165 Q 397 -176 406 -167 Q 415 -158 416 -155 L 422 -147 Q 427 -142 429 -130 L 433 -116 L 440 -73 L 448 26 L 451 56 Q 452 129 453 150 L 454 184 Q 455 270 452 271 C 444 341 360 328 387 265 Z" fill="lightgray"></path>
      </clipPath>
      <path clip-path="url(#make-me-a-hanzi-clip-2)" d="M 416 297 L 425 240 L 427 89 L 420 -7 L 400 -114 L 398 -160 " fill="none" id="make-me-a-hanzi-animation-2" stroke-dasharray="588 1176" stroke-linecap="round"></path>

      <clipPath id="make-me-a-hanzi-clip-3">
      <path d="M 704 185 L 704 80 L 703 57 L 700 -36 Q 698 -72 691 -87 Q 685 -103 672 -108 Q 667 -111 651 -109 Q 637 -107 588 -96 Q 579 -94 578 -100 Q 576 -106 588 -115 L 615 -134 L 658 -179 Q 682 -204 690 -206 Q 714 -208 739 -167 Q 765 -126 764 -71 Q 764 -42 760 57 Q 757 155 758 206 Q 760 256 773 279 Q 787 302 786 310 Q 785 317 774 324 Q 764 333 738 346 Q 712 358 705 358 Q 698 358 678 351 Q 658 344 643 341 Q 629 337 489 314 L 415 305 C 385 301 423 265 452 271 L 601 299 Q 619 302 672 307 Q 697 309 700 293 L 703 267 L 705 208 L 704 185 Z" fill="lightgray"></path>
      </clipPath>
      <path clip-path="url(#make-me-a-hanzi-clip-3)" d="M 423 304 L 458 291 L 704 330 L 739 300 L 731 201 L 731 -60 L 717 -123 L 695 -149 L 681 -147 L 585 -102 " fill="none" id="make-me-a-hanzi-animation-3" stroke-dasharray="1040 2080" stroke-linecap="round"></path>

      <clipPath id="make-me-a-hanzi-clip-4">
      <path d="M 453 150 L 475 148 Q 490 146 501 148 Q 513 149 600 164 Q 687 179 704 185 C 733 193 734 202 705 208 L 670 215 Q 658 218 637 216 Q 513 193 454 184 C 424 179 423 153 453 150 Z" fill="lightgray"></path>
      </clipPath>
      <path clip-path="url(#make-me-a-hanzi-clip-4)" d="M 459 155 L 471 166 L 645 195 L 690 196 L 698 203 " fill="none" id="make-me-a-hanzi-animation-4" stroke-dasharray="376 752" stroke-linecap="round"></path>

      <clipPath id="make-me-a-hanzi-clip-5">
      <path d="M 448 26 L 459 24 Q 471 21 479 22 Q 487 22 703 57 C 733 62 732 69 704 80 Q 665 97 636 93 Q 626 93 570 81 Q 514 68 451 56 C 422 50 418 31 448 26 Z" fill="lightgray"></path>
      </clipPath>
      <path clip-path="url(#make-me-a-hanzi-clip-5)" d="M 455 33 L 468 40 L 585 62 L 643 71 L 685 68 L 693 75 " fill="none" id="make-me-a-hanzi-animation-5" stroke-dasharray="373 746" stroke-linecap="round"></path>

      <clipPath id="make-me-a-hanzi-clip-6">
      <path d="M 1548 555 L 1563 573 Q 1568 578 1567 602 Q 1567 625 1537 649 Q 1508 672 1482 675 Q 1457 677 1455 673 Q 1453 669 1453 665 Q 1454 661 1470 632 L 1495 581 Q 1499 569 1505 564 L 1521 550 C 1534 538 1534 538 1548 555 Z" fill="lightgray"></path>
      </clipPath>
      <path clip-path="url(#make-me-a-hanzi-clip-6)" d="M 1461 667 L 1493 646 L 1525 608 L 1530 590 L 1526 563 " fill="none" id="make-me-a-hanzi-animation-6" stroke-dasharray="262 524" stroke-linecap="round"></path>

      <clipPath id="make-me-a-hanzi-clip-7">
      <path d="M 1253 537 L 1245 556 Q 1242 566 1239 571 Q 1236 575 1230 575 Q 1225 574 1219 563 L 1209 540 Q 1205 527 1197 507 Q 1189 486 1174 460 Q 1159 434 1155 425 Q 1152 411 1152 399 Q 1153 386 1168 375 Q 1184 364 1203 377 Q 1227 391 1245 442 Q 1252 467 1252 474 Q 1253 480 1258 497 C 1263 514 1263 514 1253 537 Z" fill="lightgray"></path>
      </clipPath>
      <path clip-path="url(#make-me-a-hanzi-clip-7)" d="M 1232 567 L 1227 498 L 1183 396 " fill="none" id="make-me-a-hanzi-animation-7" stroke-dasharray="308 616" stroke-linecap="round"></path>

      <clipPath id="make-me-a-hanzi-clip-8">
      <path d="M 1258 497 L 1290 494 Q 1295 493 1318 496 L 1369 504 L 1590 531 L 1758 545 Q 1786 546 1790 532 Q 1794 518 1750 470 L 1739 454 Q 1734 448 1734 445 Q 1734 442 1754 447 L 1785 457 Q 1810 464 1857 471 Q 1904 478 1912 486 Q 1920 499 1912 513 Q 1905 527 1879 550 Q 1835 584 1817 590 Q 1801 592 1777 586 Q 1753 580 1741 578 L 1548 555 L 1521 550 L 1356 539 L 1253 537 C 1223 536 1228 500 1258 497 Z" fill="lightgray"></path>
      </clipPath>
      <path clip-path="url(#make-me-a-hanzi-clip-8)" d="M 1260 531 L 1277 517 L 1306 516 L 1760 564 L 1802 562 L 1815 555 L 1839 518 L 1746 449 L 1737 449 " fill="none" id="make-me-a-hanzi-animation-8" stroke-dasharray="861 1722" stroke-linecap="round"></path>

      <clipPath id="make-me-a-hanzi-clip-9">
      <path d="M 1533 362 L 1663 396 Q 1668 400 1669 405 Q 1671 410 1663 421 Q 1655 431 1636 443 Q 1618 455 1612 452 L 1582 433 Q 1576 427 1565 422 L 1537 409 L 1472 384 L 1416 365 Q 1398 360 1365 353 L 1342 348 Q 1332 347 1329 344 Q 1329 341 1330 338 Q 1332 335 1347 335 L 1359 335 Q 1367 335 1372 336 L 1425 341 L 1472 350 L 1533 362 Z" fill="lightgray"></path>
      </clipPath>
      <path clip-path="url(#make-me-a-hanzi-clip-9)" d="M 1656 407 L 1614 416 L 1477 367 L 1365 343 L 1335 342 " fill="none" id="make-me-a-hanzi-animation-9" stroke-dasharray="461 922" stroke-linecap="round"></path>

      <clipPath id="make-me-a-hanzi-clip-10">
      <path d="M 1533 254 L 1729 268 Q 1740 271 1728 285 Q 1715 297 1706 302 L 1683 312 Q 1670 315 1647 312 Q 1638 308 1612 305 L 1533 293 L 1471 284 L 1334 272 L 1299 270 Q 1286 270 1284 265 Q 1280 261 1284 254 Q 1288 246 1303 240 Q 1318 236 1329 234 L 1475 246 L 1533 254 Z" fill="lightgray"></path>
      </clipPath>
      <path clip-path="url(#make-me-a-hanzi-clip-10)" d="M 1294 260 L 1327 253 L 1379 256 L 1667 289 L 1726 276 " fill="none" id="make-me-a-hanzi-animation-10" stroke-dasharray="564 1128" stroke-linecap="round"></path>

      <clipPath id="make-me-a-hanzi-clip-11">
      <path d="M 1645 132 L 1761 134 L 1863 132 Q 1867 131 1879 134 Q 1883 136 1884 144 Q 1886 152 1871 164 Q 1846 188 1803 193 Q 1785 193 1763 189 Q 1741 185 1721 183 L 1531 168 L 1477 163 L 1336 148 Q 1225 136 1213 136 L 1175 135 Q 1166 135 1164 130 Q 1164 121 1191 100 L 1213 87 Q 1230 74 1308 98 L 1413 114 Q 1437 118 1476 121 L 1530 125 Q 1616 131 1645 132 Z" fill="lightgray"></path>
      </clipPath>
      <path clip-path="url(#make-me-a-hanzi-clip-11)" d="M 1171 129 L 1193 118 L 1233 110 L 1456 141 L 1774 163 L 1819 162 L 1872 144 " fill="none" id="make-me-a-hanzi-animation-11" stroke-dasharray="838 1676" stroke-linecap="round"></path>

      <clipPath id="make-me-a-hanzi-clip-12">
      <path d="M 1531 168 L 1533 254 L 1533 293 L 1533 362 L 1537 409 L 1540 435 L 1546 450 Q 1549 457 1549 462 Q 1549 474 1528 482 Q 1507 490 1500 492 L 1485 496 L 1469 496 Q 1456 496 1453 491 Q 1451 486 1461 460 Q 1472 434 1472 398 L 1472 384 L 1472 350 L 1471 284 L 1475 246 L 1477 163 L 1476 121 L 1476 106 L 1479 76 Q 1479 62 1488 46 C 1498 24 1498 24 1511 49 Q 1517 60 1518 63 L 1524 81 L 1527 96 Q 1529 101 1530 125 L 1531 168 Z" fill="lightgray"></path>
      </clipPath>
      <path clip-path="url(#make-me-a-hanzi-clip-12)" d="M 1459 488 L 1486 469 L 1504 447 L 1504 133 L 1499 66 L 1492 57 " fill="none" id="make-me-a-hanzi-animation-12" stroke-dasharray="582 1164" stroke-linecap="round"></path>

      <clipPath id="make-me-a-hanzi-clip-13">
      <path d="M 1379 32 L 1355 38 Q 1335 42 1325 39 Q 1319 35 1318 30 Q 1317 25 1325 16 Q 1333 6 1339 -4 L 1345 -22 L 1367 -140 Q 1369 -163 1376 -175 Q 1398 -198 1407 -169 L 1409 -158 L 1407 -122 L 1401 -52 Q 1399 -42 1394 -4 C 1390 26 1390 29 1379 32 Z" fill="lightgray"></path>
      </clipPath>
      <path clip-path="url(#make-me-a-hanzi-clip-13)" d="M 1331 28 L 1360 10 L 1371 -16 L 1391 -169 " fill="none" id="make-me-a-hanzi-animation-13" stroke-dasharray="345 690" stroke-linecap="round"></path>

      <clipPath id="make-me-a-hanzi-clip-14">
      <path d="M 1488 46 L 1379 32 C 1349 28 1364 -8 1394 -4 L 1462 6 Q 1498 12 1567 21 Q 1636 29 1644 22 Q 1656 11 1639 -44 L 1622 -104 C 1614 -133 1660 -141 1673 -114 L 1708 -44 Q 1716 -31 1727 -18 L 1753 6 Q 1766 16 1746 32 Q 1711 59 1687 70 Q 1675 73 1667 73 L 1623 62 L 1511 49 L 1488 46 Z" fill="lightgray"></path>
      </clipPath>
      <path clip-path="url(#make-me-a-hanzi-clip-14)" d="M 1387 28 L 1412 17 L 1590 41 L 1669 41 L 1694 13 L 1658 -82 L 1630 -98 " fill="none" id="make-me-a-hanzi-animation-14" stroke-dasharray="585 1170" stroke-linecap="round"></path>

      <clipPath id="make-me-a-hanzi-clip-15">
      <path d="M 1409 -158 L 1639 -146 Q 1665 -144 1677 -145 Q 1690 -147 1691 -144 Q 1696 -142 1696 -137 Q 1696 -132 1688 -126 L 1673 -114 C 1656 -101 1652 -101 1622 -104 L 1517 -114 Q 1445 -118 1407 -122 C 1377 -125 1379 -160 1409 -158 Z" fill="lightgray"></path>
      </clipPath>
      <path clip-path="url(#make-me-a-hanzi-clip-15)" d="M 1416 -152 L 1425 -139 L 1440 -137 L 1624 -125 L 1687 -135 " fill="none" id="make-me-a-hanzi-animation-15" stroke-dasharray="407 814" stroke-linecap="round"></path>

</g>
</svg>
