<svg version="1.1" viewBox="0 0 3072 1024" xmlns="http://www.w3.org/2000/svg">
  <g stroke="lightgray" stroke-dasharray="1,1" stroke-width="1" transform="scale(4, 4)">
    <line x1="0" y1="0" x2="256" y2="256"></line>
    <line x1="256" y1="0" x2="0" y2="256"></line>
    <line x1="128" y1="0" x2="128" y2="256"></line>
    <line x1="0" y1="128" x2="256" y2="128"></line>
    <line x1="256" y1="0" x2="512" y2="256"></line>
    <line x1="512" y1="0" x2="256" y2="256"></line>
    <line x1="384" y1="0" x2="384" y2="256"></line>
    <line x1="256" y1="128" x2="512" y2="128"></line>
    <line x1="512" y1="0" x2="768" y2="256"></line>
    <line x1="768" y1="0" x2="512" y2="256"></line>
    <line x1="640" y1="0" x2="640" y2="256"></line>
    <line x1="512" y1="128" x2="768" y2="128"></line>
  </g>
<g transform="scale(1, -1) translate(0, -850)">
   <style type="text/css">
    @keyframes keyframes0 {
      from {
       stroke: black;
       stroke-dashoffset: 592;
       stroke-width: 128;
       }
       66% {
       animation-timing-function: step-end;
       stroke: black;
       stroke-dashoffset: 0;
       stroke-width: 128;
       }
       to {
       stroke: black;
       stroke-width: 1024;
       }
       }
       #make-me-a-hanzi-animation-0 {
         animation: keyframes0 0.731771s both;
         animation-delay: 0.000000s;
         animation-timing-function: linear;
       }
    @keyframes keyframes1 {
      from {
       stroke: black;
       stroke-dashoffset: 1095;
       stroke-width: 128;
       }
       78% {
       animation-timing-function: step-end;
       stroke: black;
       stroke-dashoffset: 0;
       stroke-width: 128;
       }
       to {
       stroke: black;
       stroke-width: 1024;
       }
       }
       #make-me-a-hanzi-animation-1 {
         animation: keyframes1 1.141113s both;
         animation-delay: 0.731771s;
         animation-timing-function: linear;
       }
    @keyframes keyframes2 {
      from {
       stroke: black;
       stroke-dashoffset: 673;
       stroke-width: 128;
       }
       69% {
       animation-timing-function: step-end;
       stroke: black;
       stroke-dashoffset: 0;
       stroke-width: 128;
       }
       to {
       stroke: black;
       stroke-width: 1024;
       }
       }
       #make-me-a-hanzi-animation-2 {
         animation: keyframes2 0.797689s both;
         animation-delay: 1.872884s;
         animation-timing-function: linear;
       }
    @keyframes keyframes3 {
      from {
       stroke: black;
       stroke-dashoffset: 345;
       stroke-width: 128;
       }
       53% {
       animation-timing-function: step-end;
       stroke: black;
       stroke-dashoffset: 0;
       stroke-width: 128;
       }
       to {
       stroke: black;
       stroke-width: 1024;
       }
       }
       #make-me-a-hanzi-animation-3 {
         animation: keyframes3 0.530762s both;
         animation-delay: 2.670573s;
         animation-timing-function: linear;
       }
    @keyframes keyframes4 {
      from {
       stroke: black;
       stroke-dashoffset: 848;
       stroke-width: 128;
       }
       73% {
       animation-timing-function: step-end;
       stroke: black;
       stroke-dashoffset: 0;
       stroke-width: 128;
       }
       to {
       stroke: black;
       stroke-width: 1024;
       }
       }
       #make-me-a-hanzi-animation-4 {
         animation: keyframes4 0.940104s both;
         animation-delay: 3.201335s;
         animation-timing-function: linear;
       }
    @keyframes keyframes5 {
      from {
       stroke: black;
       stroke-dashoffset: 1297;
       stroke-width: 128;
       }
       81% {
       animation-timing-function: step-end;
       stroke: black;
       stroke-dashoffset: 0;
       stroke-width: 128;
       }
       to {
       stroke: black;
       stroke-width: 1024;
       }
       }
       #make-me-a-hanzi-animation-5 {
         animation: keyframes5 1.305501s both;
         animation-delay: 4.141439s;
         animation-timing-function: linear;
       }
    @keyframes keyframes6 {
      from {
       stroke: black;
       stroke-dashoffset: 517;
       stroke-width: 128;
       }
       63% {
       animation-timing-function: step-end;
       stroke: black;
       stroke-dashoffset: 0;
       stroke-width: 128;
       }
       to {
       stroke: black;
       stroke-width: 1024;
       }
       }
       #make-me-a-hanzi-animation-6 {
         animation: keyframes6 0.670736s both;
         animation-delay: 5.446940s;
         animation-timing-function: linear;
       }
    @keyframes keyframes7 {
      from {
       stroke: black;
       stroke-dashoffset: 640;
       stroke-width: 128;
       }
       68% {
       animation-timing-function: step-end;
       stroke: black;
       stroke-dashoffset: 0;
       stroke-width: 128;
       }
       to {
       stroke: black;
       stroke-width: 1024;
       }
       }
       #make-me-a-hanzi-animation-7 {
         animation: keyframes7 0.770833s both;
         animation-delay: 6.117676s;
         animation-timing-function: linear;
       }
    @keyframes keyframes8 {
      from {
       stroke: black;
       stroke-dashoffset: 748;
       stroke-width: 128;
       }
       71% {
       animation-timing-function: step-end;
       stroke: black;
       stroke-dashoffset: 0;
       stroke-width: 128;
       }
       to {
       stroke: black;
       stroke-width: 1024;
       }
       }
       #make-me-a-hanzi-animation-8 {
         animation: keyframes8 0.858724s both;
         animation-delay: 6.888509s;
         animation-timing-function: linear;
       }
    @keyframes keyframes9 {
      from {
       stroke: black;
       stroke-dashoffset: 410;
       stroke-width: 128;
       }
       57% {
       animation-timing-function: step-end;
       stroke: black;
       stroke-dashoffset: 0;
       stroke-width: 128;
       }
       to {
       stroke: black;
       stroke-width: 1024;
       }
       }
       #make-me-a-hanzi-animation-9 {
         animation: keyframes9 0.583659s both;
         animation-delay: 7.747233s;
         animation-timing-function: linear;
       }
    @keyframes keyframes10 {
      from {
       stroke: black;
       stroke-dashoffset: 1189;
       stroke-width: 128;
       }
       79% {
       animation-timing-function: step-end;
       stroke: black;
       stroke-dashoffset: 0;
       stroke-width: 128;
       }
       to {
       stroke: black;
       stroke-width: 1024;
       }
       }
       #make-me-a-hanzi-animation-10 {
         animation: keyframes10 1.217611s both;
         animation-delay: 8.330892s;
         animation-timing-function: linear;
       }
    @keyframes keyframes11 {
      from {
       stroke: black;
       stroke-dashoffset: 1074;
       stroke-width: 128;
       }
       78% {
       animation-timing-function: step-end;
       stroke: black;
       stroke-dashoffset: 0;
       stroke-width: 128;
       }
       to {
       stroke: black;
       stroke-width: 1024;
       }
       }
       #make-me-a-hanzi-animation-11 {
         animation: keyframes11 1.124023s both;
         animation-delay: 9.548503s;
         animation-timing-function: linear;
       }
    @keyframes keyframes12 {
      from {
       stroke: black;
       stroke-dashoffset: 726;
       stroke-width: 128;
       }
       70% {
       animation-timing-function: step-end;
       stroke: black;
       stroke-dashoffset: 0;
       stroke-width: 128;
       }
       to {
       stroke: black;
       stroke-width: 1024;
       }
       }
       #make-me-a-hanzi-animation-12 {
         animation: keyframes12 0.840820s both;
         animation-delay: 10.672526s;
         animation-timing-function: linear;
       }
    @keyframes keyframes13 {
      from {
       stroke: black;
       stroke-dashoffset: 1180;
       stroke-width: 128;
       }
       79% {
       animation-timing-function: step-end;
       stroke: black;
       stroke-dashoffset: 0;
       stroke-width: 128;
       }
       to {
       stroke: black;
       stroke-width: 1024;
       }
       }
       #make-me-a-hanzi-animation-13 {
         animation: keyframes13 1.210286s both;
         animation-delay: 11.513346s;
         animation-timing-function: linear;
       }
    @keyframes keyframes14 {
      from {
       stroke: black;
       stroke-dashoffset: 1069;
       stroke-width: 128;
       }
       78% {
       animation-timing-function: step-end;
       stroke: black;
       stroke-dashoffset: 0;
       stroke-width: 128;
       }
       to {
       stroke: black;
       stroke-width: 1024;
       }
       }
       #make-me-a-hanzi-animation-14 {
         animation: keyframes14 1.119954s both;
         animation-delay: 12.723632s;
         animation-timing-function: linear;
       }
    @keyframes keyframes15 {
      from {
       stroke: black;
       stroke-dashoffset: 837;
       stroke-width: 128;
       }
       73% {
       animation-timing-function: step-end;
       stroke: black;
       stroke-dashoffset: 0;
       stroke-width: 128;
       }
       to {
       stroke: black;
       stroke-width: 1024;
       }
       }
       #make-me-a-hanzi-animation-15 {
         animation: keyframes15 0.931152s both;
         animation-delay: 13.843586s;
         animation-timing-function: linear;
       }
</style>
<path d="M 321.0 458.5 Q 408.0 485.5 410.0 486.5 Q 417.0 493.5 413.0 502.5 Q 406.0 512.5 378.0 519.5 Q 350.0 523.5 322.0 513.5 L 276.0 496.5 Q 168.0 465.5 86.0 453.5 Q 52.0 446.5 77.0 431.5 Q 113.0 410.5 182.0 426.5 Q 216.0 435.5 257.0 442.5 L 321.0 458.5 Z" fill="lightgray"></path> 
<path d="M 272.0 366.5 Q 268.0 281.5 267.0 186.5 Q 261.0 110.5 240.0 38.5 Q 228.0 -0.5 253.0 -63.5 Q 260.0 -82.5 268.0 -85.5 Q 274.0 -92.5 282.0 -83.5 Q 289.0 -79.5 300.0 -58.5 Q 310.0 -33.5 310.0 -2.5 Q 309.0 45.5 321.0 458.5 L 322.0 513.5 Q 322.0 514.5 323.0 515.5 Q 324.0 612.5 344.0 676.5 Q 353.0 692.5 350.0 705.5 Q 343.0 715.5 288.0 750.5 Q 264.0 768.5 243.0 752.5 Q 239.0 748.5 244.0 732.5 Q 275.0 683.5 276.0 634.5 Q 276.0 570.5 276.0 496.5 L 272.0 366.5 Z" fill="lightgray"></path> 
<path d="M 257.0 442.5 Q 208.0 304.5 44.0 93.5 Q 40.0 83.5 50.0 83.5 Q 56.0 82.5 64.0 90.5 Q 193.0 201.5 272.0 366.5 C 321.0 467.5 267.0 470.5 257.0 442.5 Z" fill="lightgray"></path> 
<path d="M 337.0 341.5 Q 385.0 281.5 409.0 278.5 Q 421.0 277.5 427.0 293.5 Q 428.0 305.5 420.0 322.5 Q 410.0 338.5 389.0 346.5 Q 355.0 362.5 341.0 364.5 Q 332.0 365.5 332.0 356.5 Q 331.0 349.5 337.0 341.5 Z" fill="lightgray"></path> 
<path d="M 531.0 505.5 Q 483.0 526.5 469.0 524.5 Q 451.0 520.5 466.0 501.5 Q 496.0 453.5 483.0 258.5 Q 476.0 207.5 453.0 148.5 Q 431.0 85.5 356.0 10.5 Q 343.0 -1.5 340.0 -7.5 Q 339.0 -14.5 350.0 -13.5 Q 389.0 -10.5 447.0 58.5 Q 513.0 136.5 528.0 259.5 Q 538.0 335.5 538.0 450.5 Q 541.0 469.5 542.0 479.5 C 545.0 499.5 545.0 499.5 531.0 505.5 Z" fill="lightgray"></path> 
<path d="M 953.0 -1.5 Q 984.0 8.5 972.0 41.5 Q 950.0 96.5 947.0 183.5 Q 946.0 208.5 940.0 212.5 Q 930.0 218.5 927.0 202.5 Q 903.0 76.5 877.0 56.5 Q 862.0 46.5 827.0 46.5 Q 743.0 46.5 703.0 112.5 Q 642.0 212.5 689.0 419.5 Q 708.0 486.5 746.0 520.5 Q 771.0 544.5 740.0 555.5 Q 724.0 562.5 687.0 572.5 Q 666.0 578.5 617.0 546.5 Q 568.0 521.5 531.0 505.5 C 504.0 493.5 513.0 471.5 542.0 479.5 Q 570.0 486.5 629.0 507.5 Q 641.0 513.5 647.0 509.5 Q 653.0 500.5 637.0 351.5 Q 601.0 93.5 744.0 4.5 Q 789.0 -22.5 855.0 -23.5 Q 904.0 -22.5 953.0 -1.5 Z" fill="lightgray"></path> 
<path d="M 1275.0 569.5 Q 1235.0 562.5 1264.0 543.5 Q 1312.0 516.5 1375.0 533.5 L 1499.0 560.5 Q 1527.0 567.5 1532.0 571.5 Q 1542.0 580.5 1537.0 590.5 Q 1528.0 603.5 1495.0 610.5 Q 1461.0 617.5 1427.0 602.5 Q 1396.0 592.5 1360.0 582.5 Q 1321.0 573.5 1275.0 569.5 Z" fill="lightgray"></path> 
<path d="M 1376.0 372.5 Q 1434.0 384.5 1508.0 393.5 Q 1526.0 394.5 1526.0 403.5 Q 1527.0 416.5 1509.0 426.5 Q 1481.0 439.5 1458.0 433.5 Q 1220.0 384.5 1143.0 379.5 Q 1130.0 378.5 1126.0 370.5 Q 1123.0 358.5 1138.0 347.5 Q 1180.0 319.5 1222.0 331.5 Q 1273.0 347.5 1316.0 358.5 L 1376.0 372.5 Z" fill="lightgray"></path> 
<path d="M 1472.0 211.5 Q 1385.0 190.5 1293.0 164.5 Q 1286.0 163.5 1285.0 164.5 Q 1282.0 167.5 1288.0 175.5 Q 1358.0 307.5 1389.0 343.5 Q 1401.0 356.5 1391.0 365.5 Q 1385.0 369.5 1376.0 372.5 C 1349.0 385.5 1309.0 387.5 1316.0 358.5 Q 1317.0 357.5 1318.0 352.5 Q 1331.0 309.5 1265.0 203.5 Q 1246.0 172.5 1205.0 141.5 Q 1180.0 128.5 1181.0 118.5 Q 1182.0 102.5 1193.0 84.5 Q 1205.0 66.5 1218.0 63.5 Q 1225.0 62.5 1235.0 67.5 Q 1284.0 112.5 1479.0 193.5 Q 1479.0 194.5 1481.0 194.5 C 1509.0 206.5 1501.0 218.5 1472.0 211.5 Z" fill="lightgray"></path> 
<path d="M 1481.0 194.5 Q 1506.0 148.5 1518.0 142.5 Q 1527.0 141.5 1534.0 148.5 Q 1543.0 158.5 1544.0 184.5 Q 1547.0 206.5 1522.0 236.5 Q 1494.0 261.5 1462.0 286.5 Q 1452.0 293.5 1446.0 293.5 Q 1440.0 292.5 1438.0 282.5 Q 1438.0 276.5 1472.0 211.5 L 1481.0 194.5 Z" fill="lightgray"></path> 
<path d="M 1721.0 394.5 Q 1773.0 410.5 1827.0 418.5 Q 1842.0 419.5 1845.0 412.5 Q 1852.0 397.5 1849.0 355.5 Q 1837.0 204.5 1808.0 123.5 Q 1793.0 74.5 1776.0 57.5 Q 1764.0 44.5 1738.0 52.5 Q 1699.0 64.5 1665.0 76.5 Q 1641.0 83.5 1658.0 61.5 Q 1707.0 9.5 1735.0 -30.5 Q 1745.0 -52.5 1768.0 -46.5 Q 1787.0 -43.5 1810.0 -18.5 Q 1877.0 50.5 1905.0 312.5 Q 1911.0 370.5 1933.0 404.5 Q 1949.0 426.5 1941.0 436.5 Q 1925.0 455.5 1889.0 470.5 Q 1864.0 483.5 1837.0 470.5 Q 1791.0 448.5 1729.0 430.5 L 1667.0 415.5 Q 1597.0 400.5 1555.0 398.5 Q 1536.0 399.5 1536.0 389.5 Q 1535.0 379.5 1557.0 367.5 Q 1584.0 351.5 1607.0 360.5 Q 1631.0 369.5 1658.0 376.5 L 1721.0 394.5 Z" fill="lightgray"></path> 
<path d="M 1658.0 376.5 Q 1613.0 196.5 1522.0 68.5 Q 1495.0 25.5 1466.0 -15.5 Q 1460.0 -22.5 1458.0 -28.5 Q 1454.0 -41.5 1466.0 -39.5 Q 1502.0 -33.5 1595.0 93.5 L 1634.0 158.5 Q 1679.0 246.5 1721.0 394.5 L 1729.0 430.5 Q 1747.0 577.5 1767.0 636.5 Q 1767.0 642.5 1770.0 647.5 Q 1780.0 663.5 1774.0 678.5 Q 1756.0 697.5 1722.0 715.5 Q 1701.0 728.5 1687.0 723.5 Q 1674.0 716.5 1680.0 700.5 Q 1698.0 675.5 1694.0 604.5 Q 1691.0 586.5 1690.0 564.5 Q 1681.0 486.5 1667.0 415.5 L 1658.0 376.5 Z" fill="lightgray"></path> 
<path d="M 2500.0 559.5 Q 2606.0 575.5 2718.0 589.5 Q 2785.0 599.5 2796.0 608.5 Q 2806.0 615.5 2802.0 626.5 Q 2795.0 641.5 2763.0 651.5 Q 2729.0 661.5 2695.0 650.5 Q 2617.0 628.5 2534.0 614.5 Q 2530.0 614.5 2525.0 612.5 L 2472.0 605.5 Q 2405.0 599.5 2334.0 596.5 Q 2292.0 593.5 2321.0 572.5 Q 2366.0 539.5 2432.0 551.5 Q 2439.0 552.5 2449.0 553.5 L 2500.0 559.5 Z" fill="lightgray"></path> 
<path d="M 2539.0 369.5 Q 2481.0 362.5 2418.0 353.5 Q 2402.0 352.5 2400.0 355.5 Q 2399.0 358.5 2406.0 371.5 Q 2442.0 438.5 2500.0 559.5 L 2525.0 612.5 Q 2558.0 690.5 2587.0 710.5 Q 2606.0 723.5 2596.0 736.5 Q 2545.0 790.5 2519.0 789.5 Q 2509.0 789.5 2514.0 766.5 Q 2521.0 724.5 2472.0 605.5 L 2449.0 553.5 Q 2388.0 409.5 2334.0 365.5 Q 2312.0 349.5 2324.0 300.5 Q 2328.0 284.5 2346.0 290.5 Q 2418.0 314.5 2540.0 327.5 L 2586.0 333.5 Q 2628.0 342.5 2760.0 348.5 Q 2802.0 349.5 2804.0 362.5 Q 2805.0 377.5 2776.0 395.5 Q 2752.0 410.5 2686.0 395.5 L 2587.0 376.5 L 2539.0 369.5 Z" fill="lightgray"></path> 
<path d="M 2539.0 203.5 Q 2508.0 203.5 2335.0 182.5 Q 2268.0 172.5 2165.0 172.5 Q 2150.0 172.5 2148.0 160.5 Q 2148.0 147.5 2168.0 131.5 Q 2186.0 118.5 2220.0 104.5 Q 2232.0 100.5 2251.0 108.5 Q 2267.0 114.5 2340.0 125.5 Q 2428.0 144.5 2537.0 153.5 L 2586.0 157.5 Q 2802.0 175.5 2901.0 163.5 Q 2958.0 163.5 2962.0 165.5 Q 2962.0 166.5 2963.0 166.5 Q 2972.0 181.5 2959.0 194.5 Q 2881.0 264.5 2818.0 239.5 Q 2757.0 230.5 2586.0 208.5 L 2539.0 203.5 Z" fill="lightgray"></path> 
<path d="M 2587.0 376.5 Q 2588.0 409.5 2592.0 428.5 Q 2595.0 440.5 2587.0 446.5 Q 2563.0 467.5 2544.0 476.5 Q 2531.0 480.5 2522.0 472.5 Q 2516.0 468.5 2524.0 458.5 Q 2533.0 443.5 2539.0 369.5 L 2540.0 327.5 Q 2541.0 278.5 2540.0 216.5 Q 2539.0 210.5 2539.0 203.5 L 2537.0 153.5 Q 2528.0 17.5 2522.0 -0.5 Q 2513.0 -39.5 2548.0 -90.5 Q 2560.0 -109.5 2568.0 -113.5 Q 2580.0 -114.5 2585.0 -101.5 Q 2597.0 -68.5 2593.0 -38.5 Q 2589.0 64.5 2586.0 157.5 L 2586.0 208.5 L 2586.0 333.5 L 2587.0 376.5 Z" fill="lightgray"></path> 
      <clipPath id="make-me-a-hanzi-clip-0">
      <path d="M 321.0 458.5 Q 408.0 485.5 410.0 486.5 Q 417.0 493.5 413.0 502.5 Q 406.0 512.5 378.0 519.5 Q 350.0 523.5 322.0 513.5 L 276.0 496.5 Q 168.0 465.5 86.0 453.5 Q 52.0 446.5 77.0 431.5 Q 113.0 410.5 182.0 426.5 Q 216.0 435.5 257.0 442.5 L 321.0 458.5 Z" fill="lightgray"></path>
      </clipPath>
      <path clip-path="url(#make-me-a-hanzi-clip-0)" d="M 79.0 443.5 L 99.0 438.5 L 150.0 442.5 L 358.0 496.5 L 394.0 498.5 L 406.0 493.5 " fill="none" id="make-me-a-hanzi-animation-0" stroke-dasharray="464 928" stroke-linecap="round"></path>

      <clipPath id="make-me-a-hanzi-clip-1">
      <path d="M 272.0 366.5 Q 268.0 281.5 267.0 186.5 Q 261.0 110.5 240.0 38.5 Q 228.0 -0.5 253.0 -63.5 Q 260.0 -82.5 268.0 -85.5 Q 274.0 -92.5 282.0 -83.5 Q 289.0 -79.5 300.0 -58.5 Q 310.0 -33.5 310.0 -2.5 Q 309.0 45.5 321.0 458.5 L 322.0 513.5 Q 322.0 514.5 323.0 515.5 Q 324.0 612.5 344.0 676.5 Q 353.0 692.5 350.0 705.5 Q 343.0 715.5 288.0 750.5 Q 264.0 768.5 243.0 752.5 Q 239.0 748.5 244.0 732.5 Q 275.0 683.5 276.0 634.5 Q 276.0 570.5 276.0 496.5 L 272.0 366.5 Z" fill="lightgray"></path>
      </clipPath>
      <path clip-path="url(#make-me-a-hanzi-clip-1)" d="M 255.0 745.5 L 307.0 690.5 L 291.0 189.5 L 273.0 14.5 L 273.0 -71.5 " fill="none" id="make-me-a-hanzi-animation-1" stroke-dasharray="967 1934" stroke-linecap="round"></path>

      <clipPath id="make-me-a-hanzi-clip-2">
      <path d="M 257.0 442.5 Q 208.0 304.5 44.0 93.5 Q 40.0 83.5 50.0 83.5 Q 56.0 82.5 64.0 90.5 Q 193.0 201.5 272.0 366.5 C 321.0 467.5 267.0 470.5 257.0 442.5 Z" fill="lightgray"></path>
      </clipPath>
      <path clip-path="url(#make-me-a-hanzi-clip-2)" d="M 271.0 440.5 L 263.0 434.5 L 250.0 368.5 L 212.0 298.5 L 152.0 207.5 L 54.0 92.5 " fill="none" id="make-me-a-hanzi-animation-2" stroke-dasharray="545 1090" stroke-linecap="round"></path>

      <clipPath id="make-me-a-hanzi-clip-3">
      <path d="M 337.0 341.5 Q 385.0 281.5 409.0 278.5 Q 421.0 277.5 427.0 293.5 Q 428.0 305.5 420.0 322.5 Q 410.0 338.5 389.0 346.5 Q 355.0 362.5 341.0 364.5 Q 332.0 365.5 332.0 356.5 Q 331.0 349.5 337.0 341.5 Z" fill="lightgray"></path>
      </clipPath>
      <path clip-path="url(#make-me-a-hanzi-clip-3)" d="M 343.0 353.5 L 392.0 317.5 L 409.0 295.5 " fill="none" id="make-me-a-hanzi-animation-3" stroke-dasharray="217 434" stroke-linecap="round"></path>

      <clipPath id="make-me-a-hanzi-clip-4">
      <path d="M 531.0 505.5 Q 483.0 526.5 469.0 524.5 Q 451.0 520.5 466.0 501.5 Q 496.0 453.5 483.0 258.5 Q 476.0 207.5 453.0 148.5 Q 431.0 85.5 356.0 10.5 Q 343.0 -1.5 340.0 -7.5 Q 339.0 -14.5 350.0 -13.5 Q 389.0 -10.5 447.0 58.5 Q 513.0 136.5 528.0 259.5 Q 538.0 335.5 538.0 450.5 Q 541.0 469.5 542.0 479.5 C 545.0 499.5 545.0 499.5 531.0 505.5 Z" fill="lightgray"></path>
      </clipPath>
      <path clip-path="url(#make-me-a-hanzi-clip-4)" d="M 470.0 512.5 L 487.0 503.5 L 510.0 475.5 L 511.0 323.5 L 496.0 206.5 L 471.0 134.5 L 437.0 75.5 L 390.0 22.5 L 347.0 -6.5 " fill="none" id="make-me-a-hanzi-animation-4" stroke-dasharray="720 1440" stroke-linecap="round"></path>

      <clipPath id="make-me-a-hanzi-clip-5">
      <path d="M 953.0 -1.5 Q 984.0 8.5 972.0 41.5 Q 950.0 96.5 947.0 183.5 Q 946.0 208.5 940.0 212.5 Q 930.0 218.5 927.0 202.5 Q 903.0 76.5 877.0 56.5 Q 862.0 46.5 827.0 46.5 Q 743.0 46.5 703.0 112.5 Q 642.0 212.5 689.0 419.5 Q 708.0 486.5 746.0 520.5 Q 771.0 544.5 740.0 555.5 Q 724.0 562.5 687.0 572.5 Q 666.0 578.5 617.0 546.5 Q 568.0 521.5 531.0 505.5 C 504.0 493.5 513.0 471.5 542.0 479.5 Q 570.0 486.5 629.0 507.5 Q 641.0 513.5 647.0 509.5 Q 653.0 500.5 637.0 351.5 Q 601.0 93.5 744.0 4.5 Q 789.0 -22.5 855.0 -23.5 Q 904.0 -22.5 953.0 -1.5 Z" fill="lightgray"></path>
      </clipPath>
      <path clip-path="url(#make-me-a-hanzi-clip-5)" d="M 540.0 501.5 L 551.0 497.5 L 656.0 537.5 L 679.0 533.5 L 690.0 524.5 L 655.0 363.5 L 648.0 257.5 L 651.0 203.5 L 665.0 141.5 L 682.0 103.5 L 704.0 70.5 L 732.0 45.5 L 764.0 26.5 L 821.0 12.5 L 873.0 14.5 L 918.0 32.5 L 925.0 45.5 L 935.0 205.5 " fill="none" id="make-me-a-hanzi-animation-5" stroke-dasharray="1169 2338" stroke-linecap="round"></path>

      <clipPath id="make-me-a-hanzi-clip-6">
      <path d="M 1275.0 569.5 Q 1235.0 562.5 1264.0 543.5 Q 1312.0 516.5 1375.0 533.5 L 1499.0 560.5 Q 1527.0 567.5 1532.0 571.5 Q 1542.0 580.5 1537.0 590.5 Q 1528.0 603.5 1495.0 610.5 Q 1461.0 617.5 1427.0 602.5 Q 1396.0 592.5 1360.0 582.5 Q 1321.0 573.5 1275.0 569.5 Z" fill="lightgray"></path>
      </clipPath>
      <path clip-path="url(#make-me-a-hanzi-clip-6)" d="M 1267.0 557.5 L 1330.0 551.5 L 1464.0 583.5 L 1524.0 583.5 " fill="none" id="make-me-a-hanzi-animation-6" stroke-dasharray="389 778" stroke-linecap="round"></path>

      <clipPath id="make-me-a-hanzi-clip-7">
      <path d="M 1376.0 372.5 Q 1434.0 384.5 1508.0 393.5 Q 1526.0 394.5 1526.0 403.5 Q 1527.0 416.5 1509.0 426.5 Q 1481.0 439.5 1458.0 433.5 Q 1220.0 384.5 1143.0 379.5 Q 1130.0 378.5 1126.0 370.5 Q 1123.0 358.5 1138.0 347.5 Q 1180.0 319.5 1222.0 331.5 Q 1273.0 347.5 1316.0 358.5 L 1376.0 372.5 Z" fill="lightgray"></path>
      </clipPath>
      <path clip-path="url(#make-me-a-hanzi-clip-7)" d="M 1137.0 365.5 L 1200.0 356.5 L 1427.0 406.5 L 1475.0 412.5 L 1514.0 406.5 " fill="none" id="make-me-a-hanzi-animation-7" stroke-dasharray="512 1024" stroke-linecap="round"></path>

      <clipPath id="make-me-a-hanzi-clip-8">
      <path d="M 1472.0 211.5 Q 1385.0 190.5 1293.0 164.5 Q 1286.0 163.5 1285.0 164.5 Q 1282.0 167.5 1288.0 175.5 Q 1358.0 307.5 1389.0 343.5 Q 1401.0 356.5 1391.0 365.5 Q 1385.0 369.5 1376.0 372.5 C 1349.0 385.5 1309.0 387.5 1316.0 358.5 Q 1317.0 357.5 1318.0 352.5 Q 1331.0 309.5 1265.0 203.5 Q 1246.0 172.5 1205.0 141.5 Q 1180.0 128.5 1181.0 118.5 Q 1182.0 102.5 1193.0 84.5 Q 1205.0 66.5 1218.0 63.5 Q 1225.0 62.5 1235.0 67.5 Q 1284.0 112.5 1479.0 193.5 Q 1479.0 194.5 1481.0 194.5 C 1509.0 206.5 1501.0 218.5 1472.0 211.5 Z" fill="lightgray"></path>
      </clipPath>
      <path clip-path="url(#make-me-a-hanzi-clip-8)" d="M 1382.0 355.5 L 1348.0 336.5 L 1325.0 278.5 L 1262.0 162.5 L 1259.0 133.5 L 1289.0 136.5 L 1453.0 196.5 L 1478.0 198.5 " fill="none" id="make-me-a-hanzi-animation-8" stroke-dasharray="620 1240" stroke-linecap="round"></path>

      <clipPath id="make-me-a-hanzi-clip-9">
      <path d="M 1481.0 194.5 Q 1506.0 148.5 1518.0 142.5 Q 1527.0 141.5 1534.0 148.5 Q 1543.0 158.5 1544.0 184.5 Q 1547.0 206.5 1522.0 236.5 Q 1494.0 261.5 1462.0 286.5 Q 1452.0 293.5 1446.0 293.5 Q 1440.0 292.5 1438.0 282.5 Q 1438.0 276.5 1472.0 211.5 L 1481.0 194.5 Z" fill="lightgray"></path>
      </clipPath>
      <path clip-path="url(#make-me-a-hanzi-clip-9)" d="M 1447.0 284.5 L 1505.0 212.5 L 1519.0 179.5 L 1521.0 153.5 " fill="none" id="make-me-a-hanzi-animation-9" stroke-dasharray="282 564" stroke-linecap="round"></path>

      <clipPath id="make-me-a-hanzi-clip-10">
      <path d="M 1721.0 394.5 Q 1773.0 410.5 1827.0 418.5 Q 1842.0 419.5 1845.0 412.5 Q 1852.0 397.5 1849.0 355.5 Q 1837.0 204.5 1808.0 123.5 Q 1793.0 74.5 1776.0 57.5 Q 1764.0 44.5 1738.0 52.5 Q 1699.0 64.5 1665.0 76.5 Q 1641.0 83.5 1658.0 61.5 Q 1707.0 9.5 1735.0 -30.5 Q 1745.0 -52.5 1768.0 -46.5 Q 1787.0 -43.5 1810.0 -18.5 Q 1877.0 50.5 1905.0 312.5 Q 1911.0 370.5 1933.0 404.5 Q 1949.0 426.5 1941.0 436.5 Q 1925.0 455.5 1889.0 470.5 Q 1864.0 483.5 1837.0 470.5 Q 1791.0 448.5 1729.0 430.5 L 1667.0 415.5 Q 1597.0 400.5 1555.0 398.5 Q 1536.0 399.5 1536.0 389.5 Q 1535.0 379.5 1557.0 367.5 Q 1584.0 351.5 1607.0 360.5 Q 1631.0 369.5 1658.0 376.5 L 1721.0 394.5 Z" fill="lightgray"></path>
      </clipPath>
      <path clip-path="url(#make-me-a-hanzi-clip-10)" d="M 1546.0 387.5 L 1596.0 380.5 L 1842.0 444.5 L 1870.0 439.5 L 1890.0 420.5 L 1860.0 198.5 L 1844.0 129.5 L 1807.0 38.5 L 1787.0 16.5 L 1766.0 5.5 L 1658.0 70.5 " fill="none" id="make-me-a-hanzi-animation-10" stroke-dasharray="1061 2122" stroke-linecap="round"></path>

      <clipPath id="make-me-a-hanzi-clip-11">
      <path d="M 1658.0 376.5 Q 1613.0 196.5 1522.0 68.5 Q 1495.0 25.5 1466.0 -15.5 Q 1460.0 -22.5 1458.0 -28.5 Q 1454.0 -41.5 1466.0 -39.5 Q 1502.0 -33.5 1595.0 93.5 L 1634.0 158.5 Q 1679.0 246.5 1721.0 394.5 L 1729.0 430.5 Q 1747.0 577.5 1767.0 636.5 Q 1767.0 642.5 1770.0 647.5 Q 1780.0 663.5 1774.0 678.5 Q 1756.0 697.5 1722.0 715.5 Q 1701.0 728.5 1687.0 723.5 Q 1674.0 716.5 1680.0 700.5 Q 1698.0 675.5 1694.0 604.5 Q 1691.0 586.5 1690.0 564.5 Q 1681.0 486.5 1667.0 415.5 L 1658.0 376.5 Z" fill="lightgray"></path>
      </clipPath>
      <path clip-path="url(#make-me-a-hanzi-clip-11)" d="M 1694.0 708.5 L 1733.0 662.5 L 1702.0 444.5 L 1677.0 340.5 L 1620.0 186.5 L 1570.0 96.5 L 1509.0 14.5 L 1467.0 -30.5 " fill="none" id="make-me-a-hanzi-animation-11" stroke-dasharray="946 1892" stroke-linecap="round"></path>

      <clipPath id="make-me-a-hanzi-clip-12">
      <path d="M 2500.0 559.5 Q 2606.0 575.5 2718.0 589.5 Q 2785.0 599.5 2796.0 608.5 Q 2806.0 615.5 2802.0 626.5 Q 2795.0 641.5 2763.0 651.5 Q 2729.0 661.5 2695.0 650.5 Q 2617.0 628.5 2534.0 614.5 Q 2530.0 614.5 2525.0 612.5 L 2472.0 605.5 Q 2405.0 599.5 2334.0 596.5 Q 2292.0 593.5 2321.0 572.5 Q 2366.0 539.5 2432.0 551.5 Q 2439.0 552.5 2449.0 553.5 L 2500.0 559.5 Z" fill="lightgray"></path>
      </clipPath>
      <path clip-path="url(#make-me-a-hanzi-clip-12)" d="M 2324.0 586.5 L 2394.0 573.5 L 2519.0 586.5 L 2729.0 624.5 L 2789.0 620.5 " fill="none" id="make-me-a-hanzi-animation-12" stroke-dasharray="598 1196" stroke-linecap="round"></path>

      <clipPath id="make-me-a-hanzi-clip-13">
      <path d="M 2539.0 369.5 Q 2481.0 362.5 2418.0 353.5 Q 2402.0 352.5 2400.0 355.5 Q 2399.0 358.5 2406.0 371.5 Q 2442.0 438.5 2500.0 559.5 L 2525.0 612.5 Q 2558.0 690.5 2587.0 710.5 Q 2606.0 723.5 2596.0 736.5 Q 2545.0 790.5 2519.0 789.5 Q 2509.0 789.5 2514.0 766.5 Q 2521.0 724.5 2472.0 605.5 L 2449.0 553.5 Q 2388.0 409.5 2334.0 365.5 Q 2312.0 349.5 2324.0 300.5 Q 2328.0 284.5 2346.0 290.5 Q 2418.0 314.5 2540.0 327.5 L 2586.0 333.5 Q 2628.0 342.5 2760.0 348.5 Q 2802.0 349.5 2804.0 362.5 Q 2805.0 377.5 2776.0 395.5 Q 2752.0 410.5 2686.0 395.5 L 2587.0 376.5 L 2539.0 369.5 Z" fill="lightgray"></path>
      </clipPath>
      <path clip-path="url(#make-me-a-hanzi-clip-13)" d="M 2522.0 779.5 L 2542.0 750.5 L 2549.0 725.5 L 2462.0 527.5 L 2373.0 363.5 L 2366.0 336.5 L 2412.0 330.5 L 2720.0 374.5 L 2755.0 375.5 L 2793.0 365.5 " fill="none" id="make-me-a-hanzi-animation-13" stroke-dasharray="1052 2104" stroke-linecap="round"></path>

      <clipPath id="make-me-a-hanzi-clip-14">
      <path d="M 2539.0 203.5 Q 2508.0 203.5 2335.0 182.5 Q 2268.0 172.5 2165.0 172.5 Q 2150.0 172.5 2148.0 160.5 Q 2148.0 147.5 2168.0 131.5 Q 2186.0 118.5 2220.0 104.5 Q 2232.0 100.5 2251.0 108.5 Q 2267.0 114.5 2340.0 125.5 Q 2428.0 144.5 2537.0 153.5 L 2586.0 157.5 Q 2802.0 175.5 2901.0 163.5 Q 2958.0 163.5 2962.0 165.5 Q 2962.0 166.5 2963.0 166.5 Q 2972.0 181.5 2959.0 194.5 Q 2881.0 264.5 2818.0 239.5 Q 2757.0 230.5 2586.0 208.5 L 2539.0 203.5 Z" fill="lightgray"></path>
      </clipPath>
      <path clip-path="url(#make-me-a-hanzi-clip-14)" d="M 2161.0 158.5 L 2229.0 138.5 L 2420.0 167.5 L 2844.0 206.5 L 2920.0 191.5 L 2949.0 180.5 L 2959.0 169.5 " fill="none" id="make-me-a-hanzi-animation-14" stroke-dasharray="941 1882" stroke-linecap="round"></path>

      <clipPath id="make-me-a-hanzi-clip-15">
      <path d="M 2587.0 376.5 Q 2588.0 409.5 2592.0 428.5 Q 2595.0 440.5 2587.0 446.5 Q 2563.0 467.5 2544.0 476.5 Q 2531.0 480.5 2522.0 472.5 Q 2516.0 468.5 2524.0 458.5 Q 2533.0 443.5 2539.0 369.5 L 2540.0 327.5 Q 2541.0 278.5 2540.0 216.5 Q 2539.0 210.5 2539.0 203.5 L 2537.0 153.5 Q 2528.0 17.5 2522.0 -0.5 Q 2513.0 -39.5 2548.0 -90.5 Q 2560.0 -109.5 2568.0 -113.5 Q 2580.0 -114.5 2585.0 -101.5 Q 2597.0 -68.5 2593.0 -38.5 Q 2589.0 64.5 2586.0 157.5 L 2586.0 208.5 L 2586.0 333.5 L 2587.0 376.5 Z" fill="lightgray"></path>
      </clipPath>
      <path clip-path="url(#make-me-a-hanzi-clip-15)" d="M 2531.0 466.5 L 2562.0 428.5 L 2564.0 216.5 L 2556.0 -19.5 L 2571.0 -101.5 " fill="none" id="make-me-a-hanzi-animation-15" stroke-dasharray="709 1418" stroke-linecap="round"></path>

</g>
</svg>
