<svg version="1.1" viewBox="0 0 2048 1024" xmlns="http://www.w3.org/2000/svg">
  <g stroke="lightgray" stroke-dasharray="1,1" stroke-width="1" transform="scale(4, 4)">
    <line x1="0" y1="0" x2="256" y2="256"></line>
    <line x1="256" y1="0" x2="0" y2="256"></line>
    <line x1="128" y1="0" x2="128" y2="256"></line>
    <line x1="0" y1="128" x2="256" y2="128"></line>
    <line x1="256" y1="0" x2="512" y2="256"></line>
    <line x1="512" y1="0" x2="256" y2="256"></line>
    <line x1="384" y1="0" x2="384" y2="256"></line>
    <line x1="256" y1="128" x2="512" y2="128"></line>
  </g>
<g transform="scale(1, -1) translate(0, -850)">
   <style type="text/css">
    @keyframes keyframes0 {
      from {
       stroke: black;
       stroke-dashoffset: 592;
       stroke-width: 128;
       }
       66% {
       animation-timing-function: step-end;
       stroke: black;
       stroke-dashoffset: 0;
       stroke-width: 128;
       }
       to {
       stroke: black;
       stroke-width: 1024;
       }
       }
       #make-me-a-hanzi-animation-0 {
         animation: keyframes0 0.731771s both;
         animation-delay: 0.000000s;
         animation-timing-function: linear;
       }
    @keyframes keyframes1 {
      from {
       stroke: black;
       stroke-dashoffset: 1095;
       stroke-width: 128;
       }
       78% {
       animation-timing-function: step-end;
       stroke: black;
       stroke-dashoffset: 0;
       stroke-width: 128;
       }
       to {
       stroke: black;
       stroke-width: 1024;
       }
       }
       #make-me-a-hanzi-animation-1 {
         animation: keyframes1 1.141113s both;
         animation-delay: 0.731771s;
         animation-timing-function: linear;
       }
    @keyframes keyframes2 {
      from {
       stroke: black;
       stroke-dashoffset: 673;
       stroke-width: 128;
       }
       69% {
       animation-timing-function: step-end;
       stroke: black;
       stroke-dashoffset: 0;
       stroke-width: 128;
       }
       to {
       stroke: black;
       stroke-width: 1024;
       }
       }
       #make-me-a-hanzi-animation-2 {
         animation: keyframes2 0.797689s both;
         animation-delay: 1.872884s;
         animation-timing-function: linear;
       }
    @keyframes keyframes3 {
      from {
       stroke: black;
       stroke-dashoffset: 345;
       stroke-width: 128;
       }
       53% {
       animation-timing-function: step-end;
       stroke: black;
       stroke-dashoffset: 0;
       stroke-width: 128;
       }
       to {
       stroke: black;
       stroke-width: 1024;
       }
       }
       #make-me-a-hanzi-animation-3 {
         animation: keyframes3 0.530762s both;
         animation-delay: 2.670573s;
         animation-timing-function: linear;
       }
    @keyframes keyframes4 {
      from {
       stroke: black;
       stroke-dashoffset: 848;
       stroke-width: 128;
       }
       73% {
       animation-timing-function: step-end;
       stroke: black;
       stroke-dashoffset: 0;
       stroke-width: 128;
       }
       to {
       stroke: black;
       stroke-width: 1024;
       }
       }
       #make-me-a-hanzi-animation-4 {
         animation: keyframes4 0.940104s both;
         animation-delay: 3.201335s;
         animation-timing-function: linear;
       }
    @keyframes keyframes5 {
      from {
       stroke: black;
       stroke-dashoffset: 1297;
       stroke-width: 128;
       }
       81% {
       animation-timing-function: step-end;
       stroke: black;
       stroke-dashoffset: 0;
       stroke-width: 128;
       }
       to {
       stroke: black;
       stroke-width: 1024;
       }
       }
       #make-me-a-hanzi-animation-5 {
         animation: keyframes5 1.305501s both;
         animation-delay: 4.141439s;
         animation-timing-function: linear;
       }
    @keyframes keyframes6 {
      from {
       stroke: black;
       stroke-dashoffset: 846;
       stroke-width: 128;
       }
       73% {
       animation-timing-function: step-end;
       stroke: black;
       stroke-dashoffset: 0;
       stroke-width: 128;
       }
       to {
       stroke: black;
       stroke-width: 1024;
       }
       }
       #make-me-a-hanzi-animation-6 {
         animation: keyframes6 0.938477s both;
         animation-delay: 5.446940s;
         animation-timing-function: linear;
       }
    @keyframes keyframes7 {
      from {
       stroke: black;
       stroke-dashoffset: 518;
       stroke-width: 128;
       }
       63% {
       animation-timing-function: step-end;
       stroke: black;
       stroke-dashoffset: 0;
       stroke-width: 128;
       }
       to {
       stroke: black;
       stroke-width: 1024;
       }
       }
       #make-me-a-hanzi-animation-7 {
         animation: keyframes7 0.671549s both;
         animation-delay: 6.385417s;
         animation-timing-function: linear;
       }
    @keyframes keyframes8 {
      from {
       stroke: black;
       stroke-dashoffset: 608;
       stroke-width: 128;
       }
       66% {
       animation-timing-function: step-end;
       stroke: black;
       stroke-dashoffset: 0;
       stroke-width: 128;
       }
       to {
       stroke: black;
       stroke-width: 1024;
       }
       }
       #make-me-a-hanzi-animation-8 {
         animation: keyframes8 0.744792s both;
         animation-delay: 7.056966s;
         animation-timing-function: linear;
       }
    @keyframes keyframes9 {
      from {
       stroke: black;
       stroke-dashoffset: 410;
       stroke-width: 128;
       }
       57% {
       animation-timing-function: step-end;
       stroke: black;
       stroke-dashoffset: 0;
       stroke-width: 128;
       }
       to {
       stroke: black;
       stroke-width: 1024;
       }
       }
       #make-me-a-hanzi-animation-9 {
         animation: keyframes9 0.583659s both;
         animation-delay: 7.801758s;
         animation-timing-function: linear;
       }
    @keyframes keyframes10 {
      from {
       stroke: black;
       stroke-dashoffset: 486;
       stroke-width: 128;
       }
       61% {
       animation-timing-function: step-end;
       stroke: black;
       stroke-dashoffset: 0;
       stroke-width: 128;
       }
       to {
       stroke: black;
       stroke-width: 1024;
       }
       }
       #make-me-a-hanzi-animation-10 {
         animation: keyframes10 0.645508s both;
         animation-delay: 8.385417s;
         animation-timing-function: linear;
       }
    @keyframes keyframes11 {
      from {
       stroke: black;
       stroke-dashoffset: 874;
       stroke-width: 128;
       }
       74% {
       animation-timing-function: step-end;
       stroke: black;
       stroke-dashoffset: 0;
       stroke-width: 128;
       }
       to {
       stroke: black;
       stroke-width: 1024;
       }
       }
       #make-me-a-hanzi-animation-11 {
         animation: keyframes11 0.961263s both;
         animation-delay: 9.030924s;
         animation-timing-function: linear;
       }
    @keyframes keyframes12 {
      from {
       stroke: black;
       stroke-dashoffset: 772;
       stroke-width: 128;
       }
       72% {
       animation-timing-function: step-end;
       stroke: black;
       stroke-dashoffset: 0;
       stroke-width: 128;
       }
       to {
       stroke: black;
       stroke-width: 1024;
       }
       }
       #make-me-a-hanzi-animation-12 {
         animation: keyframes12 0.878255s both;
         animation-delay: 9.992188s;
         animation-timing-function: linear;
       }
</style>
<path d="M 331 463 Q 418 490 420 491 Q 427 498 423 507 Q 416 517 388 524 Q 360 528 332 518 L 286 501 Q 178 470 96 458 Q 62 451 87 436 Q 123 415 192 431 Q 226 440 267 447 L 331 463 Z" fill="lightgray"></path> 
<path d="M 282 371 Q 278 286 277 191 Q 271 115 250 43 Q 238 4 263 -59 Q 270 -78 278 -81 Q 284 -88 292 -79 Q 299 -75 310 -54 Q 320 -29 320 2 Q 319 50 331 463 L 332 518 Q 332 519 333 520 Q 334 617 354 681 Q 363 697 360 710 Q 353 720 298 755 Q 274 773 253 757 Q 249 753 254 737 Q 285 688 286 639 Q 286 575 286 501 L 282 371 Z" fill="lightgray"></path> 
<path d="M 267 447 Q 218 309 54 98 Q 50 88 60 88 Q 66 87 74 95 Q 203 206 282 371 C 331 472 277 475 267 447 Z" fill="lightgray"></path> 
<path d="M 347 346 Q 395 286 419 283 Q 431 282 437 298 Q 438 310 430 327 Q 420 343 399 351 Q 365 367 351 369 Q 342 370 342 361 Q 341 354 347 346 Z" fill="lightgray"></path> 
<path d="M 541 510 Q 493 531 479 529 Q 461 525 476 506 Q 506 458 493 263 Q 486 212 463 153 Q 441 90 366 15 Q 353 3 350 -3 Q 349 -10 360 -9 Q 399 -6 457 63 Q 523 141 538 264 Q 548 340 548 455 Q 551 474 552 484 C 555 504 555 504 541 510 Z" fill="lightgray"></path> 
<path d="M 963 3 Q 994 13 982 46 Q 960 101 957 188 Q 956 213 950 217 Q 940 223 937 207 Q 913 81 887 61 Q 872 51 837 51 Q 753 51 713 117 Q 652 217 699 424 Q 718 491 756 525 Q 781 549 750 560 Q 734 567 697 577 Q 676 583 627 551 Q 578 526 541 510 C 514 498 523 476 552 484 Q 580 491 639 512 Q 651 518 657 514 Q 663 505 647 356 Q 611 98 754 9 Q 799 -18 865 -19 Q 914 -18 963 3 Z" fill="lightgray"></path> 
<path d="M 1689 474 Q 1725 612 1774 649 Q 1793 670 1777 691 Q 1758 707 1698 738 Q 1677 748 1651 738 Q 1530 693 1364 681 Q 1346 680 1348 670 Q 1349 661 1370 654 Q 1397 641 1435 652 Q 1534 668 1628 684 Q 1653 688 1662 679 Q 1675 664 1671 634 Q 1652 549 1630 481 C 1621 452 1681 445 1689 474 Z" fill="lightgray"></path> 
<path d="M 1344 563 Q 1316 559 1338 542 Q 1350 532 1364 524 Q 1373 520 1430 529 Q 1514 544 1589 552 Q 1599 551 1609 564 Q 1610 576 1587 586 Q 1560 607 1474 583 Q 1470 583 1466 581 Q 1436 575 1344 563 Z" fill="lightgray"></path> 
<path d="M 1630 481 Q 1482 445 1361 432 Q 1339 429 1352 410 Q 1359 400 1371 396 Q 1383 393 1398 396 Q 1494 418 1702 436 Q 1714 437 1715 447 Q 1715 454 1689 474 C 1669 490 1659 488 1630 481 Z" fill="lightgray"></path> 
<path d="M 1267 306 Q 1297 276 1327 241 Q 1340 228 1356 226 Q 1366 226 1373 239 Q 1379 254 1372 284 Q 1366 318 1266 354 Q 1250 358 1244 357 Q 1238 353 1239 340 Q 1242 330 1267 306 Z" fill="lightgray"></path> 
<path d="M 1751 377 Q 1709 340 1631 284 Q 1622 278 1626 269 Q 1633 265 1644 268 Q 1767 319 1825 334 Q 1846 335 1844 348 Q 1843 367 1826 392 Q 1810 417 1786 426 Q 1770 429 1766 408 Q 1765 392 1751 377 Z" fill="lightgray"></path> 
<path d="M 1540 237 Q 1547 264 1554 295 Q 1558 320 1566 331 Q 1573 338 1567 351 Q 1560 360 1527 372 Q 1490 391 1472 384 Q 1459 377 1470 359 Q 1503 292 1465 188 Q 1423 73 1289 7 Q 1246 -14 1183 -38 Q 1153 -50 1187 -54 Q 1209 -55 1254 -43 Q 1312 -31 1360 -8 Q 1406 11 1443 49 Q 1501 109 1532 206 L 1540 237 Z" fill="lightgray"></path> 
<path d="M 1532 206 Q 1620 82 1730 -49 Q 1751 -71 1785 -71 Q 1903 -67 1940 -61 Q 1950 -58 1952 -53 Q 1953 -47 1937 -39 Q 1792 16 1717 72 Q 1633 142 1540 237 C 1519 258 1515 230 1532 206 Z" fill="lightgray"></path> 
      <clipPath id="make-me-a-hanzi-clip-0">
      <path d="M 331 463 Q 418 490 420 491 Q 427 498 423 507 Q 416 517 388 524 Q 360 528 332 518 L 286 501 Q 178 470 96 458 Q 62 451 87 436 Q 123 415 192 431 Q 226 440 267 447 L 331 463 Z" fill="lightgray"></path>
      </clipPath>
      <path clip-path="url(#make-me-a-hanzi-clip-0)" d="M 89 448 L 109 443 L 160 447 L 368 501 L 404 503 L 416 498 " fill="none" id="make-me-a-hanzi-animation-0" stroke-dasharray="464 928" stroke-linecap="round"></path>

      <clipPath id="make-me-a-hanzi-clip-1">
      <path d="M 282 371 Q 278 286 277 191 Q 271 115 250 43 Q 238 4 263 -59 Q 270 -78 278 -81 Q 284 -88 292 -79 Q 299 -75 310 -54 Q 320 -29 320 2 Q 319 50 331 463 L 332 518 Q 332 519 333 520 Q 334 617 354 681 Q 363 697 360 710 Q 353 720 298 755 Q 274 773 253 757 Q 249 753 254 737 Q 285 688 286 639 Q 286 575 286 501 L 282 371 Z" fill="lightgray"></path>
      </clipPath>
      <path clip-path="url(#make-me-a-hanzi-clip-1)" d="M 265 750 L 317 695 L 301 194 L 283 19 L 283 -67 " fill="none" id="make-me-a-hanzi-animation-1" stroke-dasharray="967 1934" stroke-linecap="round"></path>

      <clipPath id="make-me-a-hanzi-clip-2">
      <path d="M 267 447 Q 218 309 54 98 Q 50 88 60 88 Q 66 87 74 95 Q 203 206 282 371 C 331 472 277 475 267 447 Z" fill="lightgray"></path>
      </clipPath>
      <path clip-path="url(#make-me-a-hanzi-clip-2)" d="M 281 445 L 273 439 L 260 373 L 222 303 L 162 212 L 64 97 " fill="none" id="make-me-a-hanzi-animation-2" stroke-dasharray="545 1090" stroke-linecap="round"></path>

      <clipPath id="make-me-a-hanzi-clip-3">
      <path d="M 347 346 Q 395 286 419 283 Q 431 282 437 298 Q 438 310 430 327 Q 420 343 399 351 Q 365 367 351 369 Q 342 370 342 361 Q 341 354 347 346 Z" fill="lightgray"></path>
      </clipPath>
      <path clip-path="url(#make-me-a-hanzi-clip-3)" d="M 353 358 L 402 322 L 419 300 " fill="none" id="make-me-a-hanzi-animation-3" stroke-dasharray="217 434" stroke-linecap="round"></path>

      <clipPath id="make-me-a-hanzi-clip-4">
      <path d="M 541 510 Q 493 531 479 529 Q 461 525 476 506 Q 506 458 493 263 Q 486 212 463 153 Q 441 90 366 15 Q 353 3 350 -3 Q 349 -10 360 -9 Q 399 -6 457 63 Q 523 141 538 264 Q 548 340 548 455 Q 551 474 552 484 C 555 504 555 504 541 510 Z" fill="lightgray"></path>
      </clipPath>
      <path clip-path="url(#make-me-a-hanzi-clip-4)" d="M 480 517 L 497 508 L 520 480 L 521 328 L 506 211 L 481 139 L 447 80 L 400 27 L 357 -2 " fill="none" id="make-me-a-hanzi-animation-4" stroke-dasharray="720 1440" stroke-linecap="round"></path>

      <clipPath id="make-me-a-hanzi-clip-5">
      <path d="M 963 3 Q 994 13 982 46 Q 960 101 957 188 Q 956 213 950 217 Q 940 223 937 207 Q 913 81 887 61 Q 872 51 837 51 Q 753 51 713 117 Q 652 217 699 424 Q 718 491 756 525 Q 781 549 750 560 Q 734 567 697 577 Q 676 583 627 551 Q 578 526 541 510 C 514 498 523 476 552 484 Q 580 491 639 512 Q 651 518 657 514 Q 663 505 647 356 Q 611 98 754 9 Q 799 -18 865 -19 Q 914 -18 963 3 Z" fill="lightgray"></path>
      </clipPath>
      <path clip-path="url(#make-me-a-hanzi-clip-5)" d="M 550 506 L 561 502 L 666 542 L 689 538 L 700 529 L 665 368 L 658 262 L 661 208 L 675 146 L 692 108 L 714 75 L 742 50 L 774 31 L 831 17 L 883 19 L 928 37 L 935 50 L 945 210 " fill="none" id="make-me-a-hanzi-animation-5" stroke-dasharray="1169 2338" stroke-linecap="round"></path>

      <clipPath id="make-me-a-hanzi-clip-6">
      <path d="M 1689 474 Q 1725 612 1774 649 Q 1793 670 1777 691 Q 1758 707 1698 738 Q 1677 748 1651 738 Q 1530 693 1364 681 Q 1346 680 1348 670 Q 1349 661 1370 654 Q 1397 641 1435 652 Q 1534 668 1628 684 Q 1653 688 1662 679 Q 1675 664 1671 634 Q 1652 549 1630 481 C 1621 452 1681 445 1689 474 Z" fill="lightgray"></path>
      </clipPath>
      <path clip-path="url(#make-me-a-hanzi-clip-6)" d="M 1358 671 L 1411 666 L 1654 711 L 1676 710 L 1691 702 L 1717 674 L 1719 661 L 1668 505 L 1638 486 " fill="none" id="make-me-a-hanzi-animation-6" stroke-dasharray="718 1436" stroke-linecap="round"></path>

      <clipPath id="make-me-a-hanzi-clip-7">
      <path d="M 1344 563 Q 1316 559 1338 542 Q 1350 532 1364 524 Q 1373 520 1430 529 Q 1514 544 1589 552 Q 1599 551 1609 564 Q 1610 576 1587 586 Q 1560 607 1474 583 Q 1470 583 1466 581 Q 1436 575 1344 563 Z" fill="lightgray"></path>
      </clipPath>
      <path clip-path="url(#make-me-a-hanzi-clip-7)" d="M 1339 553 L 1374 545 L 1551 572 L 1598 566 " fill="none" id="make-me-a-hanzi-animation-7" stroke-dasharray="390 780" stroke-linecap="round"></path>

      <clipPath id="make-me-a-hanzi-clip-8">
      <path d="M 1630 481 Q 1482 445 1361 432 Q 1339 429 1352 410 Q 1359 400 1371 396 Q 1383 393 1398 396 Q 1494 418 1702 436 Q 1714 437 1715 447 Q 1715 454 1689 474 C 1669 490 1659 488 1630 481 Z" fill="lightgray"></path>
      </clipPath>
      <path clip-path="url(#make-me-a-hanzi-clip-8)" d="M 1359 420 L 1389 415 L 1628 455 L 1679 455 L 1706 447 " fill="none" id="make-me-a-hanzi-animation-8" stroke-dasharray="480 960" stroke-linecap="round"></path>

      <clipPath id="make-me-a-hanzi-clip-9">
      <path d="M 1267 306 Q 1297 276 1327 241 Q 1340 228 1356 226 Q 1366 226 1373 239 Q 1379 254 1372 284 Q 1366 318 1266 354 Q 1250 358 1244 357 Q 1238 353 1239 340 Q 1242 330 1267 306 Z" fill="lightgray"></path>
      </clipPath>
      <path clip-path="url(#make-me-a-hanzi-clip-9)" d="M 1248 350 L 1336 282 L 1355 244 " fill="none" id="make-me-a-hanzi-animation-9" stroke-dasharray="282 564" stroke-linecap="round"></path>

      <clipPath id="make-me-a-hanzi-clip-10">
      <path d="M 1751 377 Q 1709 340 1631 284 Q 1622 278 1626 269 Q 1633 265 1644 268 Q 1767 319 1825 334 Q 1846 335 1844 348 Q 1843 367 1826 392 Q 1810 417 1786 426 Q 1770 429 1766 408 Q 1765 392 1751 377 Z" fill="lightgray"></path>
      </clipPath>
      <path clip-path="url(#make-me-a-hanzi-clip-10)" d="M 1783 409 L 1794 367 L 1632 275 " fill="none" id="make-me-a-hanzi-animation-10" stroke-dasharray="358 716" stroke-linecap="round"></path>

      <clipPath id="make-me-a-hanzi-clip-11">
      <path d="M 1540 237 Q 1547 264 1554 295 Q 1558 320 1566 331 Q 1573 338 1567 351 Q 1560 360 1527 372 Q 1490 391 1472 384 Q 1459 377 1470 359 Q 1503 292 1465 188 Q 1423 73 1289 7 Q 1246 -14 1183 -38 Q 1153 -50 1187 -54 Q 1209 -55 1254 -43 Q 1312 -31 1360 -8 Q 1406 11 1443 49 Q 1501 109 1532 206 L 1540 237 Z" fill="lightgray"></path>
      </clipPath>
      <path clip-path="url(#make-me-a-hanzi-clip-11)" d="M 1480 371 L 1522 329 L 1520 295 L 1497 192 L 1452 103 L 1409 54 L 1368 23 L 1274 -21 L 1179 -47 " fill="none" id="make-me-a-hanzi-animation-11" stroke-dasharray="746 1492" stroke-linecap="round"></path>

      <clipPath id="make-me-a-hanzi-clip-12">
      <path d="M 1532 206 Q 1620 82 1730 -49 Q 1751 -71 1785 -71 Q 1903 -67 1940 -61 Q 1950 -58 1952 -53 Q 1953 -47 1937 -39 Q 1792 16 1717 72 Q 1633 142 1540 237 C 1519 258 1515 230 1532 206 Z" fill="lightgray"></path>
      </clipPath>
      <path clip-path="url(#make-me-a-hanzi-clip-12)" d="M 1545 230 L 1548 208 L 1605 141 L 1701 40 L 1767 -17 L 1943 -53 " fill="none" id="make-me-a-hanzi-animation-12" stroke-dasharray="644 1288" stroke-linecap="round"></path>

</g>
</svg>
