<svg version="1.1" viewBox="0 0 2048 1024" xmlns="http://www.w3.org/2000/svg">
  <g stroke="lightgray" stroke-dasharray="1,1" stroke-width="1" transform="scale(4, 4)">
    <line x1="0" y1="0" x2="256" y2="256"></line>
    <line x1="256" y1="0" x2="0" y2="256"></line>
    <line x1="128" y1="0" x2="128" y2="256"></line>
    <line x1="0" y1="128" x2="256" y2="128"></line>
    <line x1="256" y1="0" x2="512" y2="256"></line>
    <line x1="512" y1="0" x2="256" y2="256"></line>
    <line x1="384" y1="0" x2="384" y2="256"></line>
    <line x1="256" y1="128" x2="512" y2="128"></line>
  </g>
<g transform="scale(1, -1) translate(0, -850)">
   <style type="text/css">
    @keyframes keyframes0 {
      from {
       stroke: black;
       stroke-dashoffset: 555;
       stroke-width: 128;
       }
       64% {
       animation-timing-function: step-end;
       stroke: black;
       stroke-dashoffset: 0;
       stroke-width: 128;
       }
       to {
       stroke: black;
       stroke-width: 1024;
       }
       }
       #make-me-a-hanzi-animation-0 {
         animation: keyframes0 0.701660s both;
         animation-delay: 0.000000s;
         animation-timing-function: linear;
       }
    @keyframes keyframes1 {
      from {
       stroke: black;
       stroke-dashoffset: 1092;
       stroke-width: 128;
       }
       78% {
       animation-timing-function: step-end;
       stroke: black;
       stroke-dashoffset: 0;
       stroke-width: 128;
       }
       to {
       stroke: black;
       stroke-width: 1024;
       }
       }
       #make-me-a-hanzi-animation-1 {
         animation: keyframes1 1.138672s both;
         animation-delay: 0.701660s;
         animation-timing-function: linear;
       }
    @keyframes keyframes2 {
      from {
       stroke: black;
       stroke-dashoffset: 675;
       stroke-width: 128;
       }
       69% {
       animation-timing-function: step-end;
       stroke: black;
       stroke-dashoffset: 0;
       stroke-width: 128;
       }
       to {
       stroke: black;
       stroke-width: 1024;
       }
       }
       #make-me-a-hanzi-animation-2 {
         animation: keyframes2 0.799316s both;
         animation-delay: 1.840332s;
         animation-timing-function: linear;
       }
    @keyframes keyframes3 {
      from {
       stroke: black;
       stroke-dashoffset: 363;
       stroke-width: 128;
       }
       54% {
       animation-timing-function: step-end;
       stroke: black;
       stroke-dashoffset: 0;
       stroke-width: 128;
       }
       to {
       stroke: black;
       stroke-width: 1024;
       }
       }
       #make-me-a-hanzi-animation-3 {
         animation: keyframes3 0.545410s both;
         animation-delay: 2.639648s;
         animation-timing-function: linear;
       }
    @keyframes keyframes4 {
      from {
       stroke: black;
       stroke-dashoffset: 854;
       stroke-width: 128;
       }
       74% {
       animation-timing-function: step-end;
       stroke: black;
       stroke-dashoffset: 0;
       stroke-width: 128;
       }
       to {
       stroke: black;
       stroke-width: 1024;
       }
       }
       #make-me-a-hanzi-animation-4 {
         animation: keyframes4 0.944987s both;
         animation-delay: 3.185059s;
         animation-timing-function: linear;
       }
    @keyframes keyframes5 {
      from {
       stroke: black;
       stroke-dashoffset: 1521;
       stroke-width: 128;
       }
       83% {
       animation-timing-function: step-end;
       stroke: black;
       stroke-dashoffset: 0;
       stroke-width: 128;
       }
       to {
       stroke: black;
       stroke-width: 1024;
       }
       }
       #make-me-a-hanzi-animation-5 {
         animation: keyframes5 1.487793s both;
         animation-delay: 4.130046s;
         animation-timing-function: linear;
       }
    @keyframes keyframes6 {
      from {
       stroke: black;
       stroke-dashoffset: 811;
       stroke-width: 128;
       }
       73% {
       animation-timing-function: step-end;
       stroke: black;
       stroke-dashoffset: 0;
       stroke-width: 128;
       }
       to {
       stroke: black;
       stroke-width: 1024;
       }
       }
       #make-me-a-hanzi-animation-6 {
         animation: keyframes6 0.909993s both;
         animation-delay: 5.617839s;
         animation-timing-function: linear;
       }
    @keyframes keyframes7 {
      from {
       stroke: black;
       stroke-dashoffset: 409;
       stroke-width: 128;
       }
       57% {
       animation-timing-function: step-end;
       stroke: black;
       stroke-dashoffset: 0;
       stroke-width: 128;
       }
       to {
       stroke: black;
       stroke-width: 1024;
       }
       }
       #make-me-a-hanzi-animation-7 {
         animation: keyframes7 0.582845s both;
         animation-delay: 6.527832s;
         animation-timing-function: linear;
       }
    @keyframes keyframes8 {
      from {
       stroke: black;
       stroke-dashoffset: 1212;
       stroke-width: 128;
       }
       80% {
       animation-timing-function: step-end;
       stroke: black;
       stroke-dashoffset: 0;
       stroke-width: 128;
       }
       to {
       stroke: black;
       stroke-width: 1024;
       }
       }
       #make-me-a-hanzi-animation-8 {
         animation: keyframes8 1.236328s both;
         animation-delay: 7.110677s;
         animation-timing-function: linear;
       }
    @keyframes keyframes9 {
      from {
       stroke: black;
       stroke-dashoffset: 1514;
       stroke-width: 128;
       }
       83% {
       animation-timing-function: step-end;
       stroke: black;
       stroke-dashoffset: 0;
       stroke-width: 128;
       }
       to {
       stroke: black;
       stroke-width: 1024;
       }
       }
       #make-me-a-hanzi-animation-9 {
         animation: keyframes9 1.482096s both;
         animation-delay: 8.347005s;
         animation-timing-function: linear;
       }
    @keyframes keyframes10 {
      from {
       stroke: black;
       stroke-dashoffset: 404;
       stroke-width: 128;
       }
       57% {
       animation-timing-function: step-end;
       stroke: black;
       stroke-dashoffset: 0;
       stroke-width: 128;
       }
       to {
       stroke: black;
       stroke-width: 1024;
       }
       }
       #make-me-a-hanzi-animation-10 {
         animation: keyframes10 0.578776s both;
         animation-delay: 9.829102s;
         animation-timing-function: linear;
       }
</style>
<path d="M 316 400 Q 340 409 368 416 Q 404 428 409 433 Q 418 442 412 450 Q 405 462 374 467 Q 344 470 318 457 L 271 438 Q 181 410 119 397 Q 82 387 110 373 Q 153 355 239 379 Q 248 382 259 384 L 316 400 Z" fill="lightgray"></path> 
<path d="M 314 321 Q 314 360 316 400 L 318 457 Q 319 542 338 602 Q 347 617 344 630 Q 337 640 282 675 Q 258 693 237 677 Q 233 673 238 656 Q 269 608 271 560 L 271 438 L 267 270 Q 260 78 257 54 Q 250 11 238 -33 Q 226 -73 252 -136 Q 258 -154 266 -157 Q 272 -164 280 -155 Q 307 -139 308 -73 Q 307 -31 313 293 L 314 321 Z" fill="lightgray"></path> 
<path d="M 259 384 Q 211 240 53 24 Q 47 14 60 13 Q 67 12 76 22 Q 193 127 267 270 C 343 415 269 412 259 384 Z" fill="lightgray"></path> 
<path d="M 313 293 Q 370 224 389 224 Q 402 223 409 240 Q 410 252 402 272 Q 378 309 316 321 Q 313 322 314 321 C 288 323 294 316 313 293 Z" fill="lightgray"></path> 
<path d="M 496 447 Q 496 446 506 416 Q 515 386 477 222 Q 476 219 475 214 Q 432 64 325 -65 Q 321 -71 317 -76 Q 313 -86 324 -86 Q 367 -80 446 33 Q 450 40 456 48 Q 487 100 512 163 Q 513 167 514 170 L 520 188 Q 539 246 553 304 Q 562 352 574 385 Q 584 398 579 411 Q 561 435 529 451 C 503 466 487 475 496 447 Z" fill="lightgray"></path> 
<path d="M 647 26 Q 563 -61 443 -108 Q 418 -117 420 -121 Q 423 -133 489 -112 Q 591 -82 680 -14 L 718 24 Q 790 111 815 222 Q 825 264 847 284 Q 851 288 850 296 Q 849 306 833 317 Q 815 330 794 338 Q 775 345 750 332 Q 738 323 697 311 Q 670 301 691 346 Q 754 470 774 483 Q 792 493 795 504 Q 799 517 756 539 Q 710 564 670 541 Q 607 504 465 481 Q 462 481 460 480 Q 438 479 440 467 Q 441 457 473 449 Q 482 448 496 447 L 529 451 Q 589 473 668 498 Q 684 502 688 494 Q 695 476 653 367 Q 637 340 622 322 Q 609 306 616 290 Q 625 275 636 268 Q 645 261 652 262 Q 731 292 748 285 Q 752 284 756 280 Q 765 271 758 237 Q 736 134 694 80 Q 687 70 679 60 L 647 26 Z" fill="lightgray"></path> 
<path d="M 514 170 Q 550 152 573 119 Q 610 70 647 26 L 680 -14 L 777 -124 Q 793 -143 820 -142 Q 961 -130 974 -116 Q 978 -109 967 -106 Q 805 -48 722 21 Q 719 22 718 24 L 679 60 Q 628 108 569 172 Q 553 194 520 188 C 490 186 488 185 514 170 Z" fill="lightgray"></path> 
<path d="M 1348 694 Q 1373 663 1402 625 Q 1414 609 1430 607 Q 1440 606 1449 619 Q 1456 634 1452 666 Q 1446 705 1351 744 Q 1335 751 1328 749 Q 1322 746 1322 732 Q 1323 720 1348 694 Z" fill="lightgray"></path> 
<path d="M 1484 486 Q 1391 321 1381 304 Q 1377 301 1374 295 Q 1287 177 1139 48 Q 1132 44 1128 37 Q 1122 27 1134 25 Q 1167 22 1290 125 Q 1332 162 1373 210 Q 1473 331 1551 499 L 1566 532 L 1598 612 Q 1638 715 1654 741 Q 1667 754 1663 770 Q 1651 794 1622 818 Q 1604 836 1589 834 Q 1574 830 1577 813 Q 1587 776 1576 725 Q 1564 694 1552 654 Q 1527 584 1499 520 L 1484 486 Z" fill="lightgray"></path> 
<path d="M 1499 520 Q 1483 519 1467 515 Q 1322 494 1240 497 Q 1218 500 1216 487 Q 1215 475 1240 458 Q 1271 436 1301 444 Q 1392 469 1484 486 L 1551 499 Q 1636 515 1723 524 Q 1751 525 1757 511 Q 1766 492 1762 444 Q 1749 266 1716 171 Q 1698 111 1679 93 Q 1666 78 1637 86 Q 1595 99 1557 111 Q 1532 118 1550 95 Q 1605 40 1636 -4 Q 1648 -29 1672 -21 Q 1694 -17 1720 13 Q 1796 91 1822 396 Q 1828 463 1853 504 Q 1872 529 1862 541 Q 1843 563 1802 581 Q 1772 596 1741 581 Q 1665 553 1566 532 L 1499 520 Z" fill="lightgray"></path> 
<path d="M 1520 311 Q 1548 281 1578 246 Q 1588 233 1604 232 Q 1614 231 1621 243 Q 1627 256 1622 286 Q 1615 322 1521 358 Q 1506 362 1500 361 Q 1496 358 1495 345 Q 1496 335 1520 311 Z" fill="lightgray"></path> 
      <clipPath id="make-me-a-hanzi-clip-0">
      <path d="M 316 400 Q 340 409 368 416 Q 404 428 409 433 Q 418 442 412 450 Q 405 462 374 467 Q 344 470 318 457 L 271 438 Q 181 410 119 397 Q 82 387 110 373 Q 153 355 239 379 Q 248 382 259 384 L 316 400 Z" fill="lightgray"></path>
      </clipPath>
      <path clip-path="url(#make-me-a-hanzi-clip-0)" d="M 111 386 L 163 385 L 224 398 L 345 438 L 402 443 " fill="none" id="make-me-a-hanzi-animation-0" stroke-dasharray="427 854" stroke-linecap="round"></path>

      <clipPath id="make-me-a-hanzi-clip-1">
      <path d="M 314 321 Q 314 360 316 400 L 318 457 Q 319 542 338 602 Q 347 617 344 630 Q 337 640 282 675 Q 258 693 237 677 Q 233 673 238 656 Q 269 608 271 560 L 271 438 L 267 270 Q 260 78 257 54 Q 250 11 238 -33 Q 226 -73 252 -136 Q 258 -154 266 -157 Q 272 -164 280 -155 Q 307 -139 308 -73 Q 307 -31 313 293 L 314 321 Z" fill="lightgray"></path>
      </clipPath>
      <path clip-path="url(#make-me-a-hanzi-clip-1)" d="M 249 670 L 301 616 L 286 93 L 271 -54 L 271 -144 " fill="none" id="make-me-a-hanzi-animation-1" stroke-dasharray="964 1928" stroke-linecap="round"></path>

      <clipPath id="make-me-a-hanzi-clip-2">
      <path d="M 259 384 Q 211 240 53 24 Q 47 14 60 13 Q 67 12 76 22 Q 193 127 267 270 C 343 415 269 412 259 384 Z" fill="lightgray"></path>
      </clipPath>
      <path clip-path="url(#make-me-a-hanzi-clip-2)" d="M 266 380 L 241 275 L 219 234 L 134 106 L 62 22 " fill="none" id="make-me-a-hanzi-animation-2" stroke-dasharray="547 1094" stroke-linecap="round"></path>

      <clipPath id="make-me-a-hanzi-clip-3">
      <path d="M 313 293 Q 370 224 389 224 Q 402 223 409 240 Q 410 252 402 272 Q 378 309 316 321 Q 313 322 314 321 C 288 323 294 316 313 293 Z" fill="lightgray"></path>
      </clipPath>
      <path clip-path="url(#make-me-a-hanzi-clip-3)" d="M 315 314 L 323 313 L 334 295 L 371 268 L 390 242 " fill="none" id="make-me-a-hanzi-animation-3" stroke-dasharray="235 470" stroke-linecap="round"></path>

      <clipPath id="make-me-a-hanzi-clip-4">
      <path d="M 496 447 Q 496 446 506 416 Q 515 386 477 222 Q 476 219 475 214 Q 432 64 325 -65 Q 321 -71 317 -76 Q 313 -86 324 -86 Q 367 -80 446 33 Q 450 40 456 48 Q 487 100 512 163 Q 513 167 514 170 L 520 188 Q 539 246 553 304 Q 562 352 574 385 Q 584 398 579 411 Q 561 435 529 451 C 503 466 487 475 496 447 Z" fill="lightgray"></path>
      </clipPath>
      <path clip-path="url(#make-me-a-hanzi-clip-4)" d="M 502 447 L 533 419 L 542 399 L 521 289 L 486 164 L 423 35 L 356 -52 L 326 -77 " fill="none" id="make-me-a-hanzi-animation-4" stroke-dasharray="726 1452" stroke-linecap="round"></path>

      <clipPath id="make-me-a-hanzi-clip-5">
      <path d="M 647 26 Q 563 -61 443 -108 Q 418 -117 420 -121 Q 423 -133 489 -112 Q 591 -82 680 -14 L 718 24 Q 790 111 815 222 Q 825 264 847 284 Q 851 288 850 296 Q 849 306 833 317 Q 815 330 794 338 Q 775 345 750 332 Q 738 323 697 311 Q 670 301 691 346 Q 754 470 774 483 Q 792 493 795 504 Q 799 517 756 539 Q 710 564 670 541 Q 607 504 465 481 Q 462 481 460 480 Q 438 479 440 467 Q 441 457 473 449 Q 482 448 496 447 L 529 451 Q 589 473 668 498 Q 684 502 688 494 Q 695 476 653 367 Q 637 340 622 322 Q 609 306 616 290 Q 625 275 636 268 Q 645 261 652 262 Q 731 292 748 285 Q 752 284 756 280 Q 765 271 758 237 Q 736 134 694 80 Q 687 70 679 60 L 647 26 Z" fill="lightgray"></path>
      </clipPath>
      <path clip-path="url(#make-me-a-hanzi-clip-5)" d="M 449 468 L 521 470 L 687 523 L 715 517 L 731 503 L 730 497 L 650 302 L 677 291 L 769 308 L 798 290 L 768 163 L 735 94 L 703 47 L 659 1 L 560 -68 L 475 -109 L 424 -120 " fill="none" id="make-me-a-hanzi-animation-5" stroke-dasharray="1393 2786" stroke-linecap="round"></path>

      <clipPath id="make-me-a-hanzi-clip-6">
      <path d="M 514 170 Q 550 152 573 119 Q 610 70 647 26 L 680 -14 L 777 -124 Q 793 -143 820 -142 Q 961 -130 974 -116 Q 978 -109 967 -106 Q 805 -48 722 21 Q 719 22 718 24 L 679 60 Q 628 108 569 172 Q 553 194 520 188 C 490 186 488 185 514 170 Z" fill="lightgray"></path>
      </clipPath>
      <path clip-path="url(#make-me-a-hanzi-clip-6)" d="M 524 172 L 540 174 L 564 156 L 705 -2 L 816 -94 L 899 -108 L 968 -112 " fill="none" id="make-me-a-hanzi-animation-6" stroke-dasharray="683 1366" stroke-linecap="round"></path>

      <clipPath id="make-me-a-hanzi-clip-7">
      <path d="M 1348 694 Q 1373 663 1402 625 Q 1414 609 1430 607 Q 1440 606 1449 619 Q 1456 634 1452 666 Q 1446 705 1351 744 Q 1335 751 1328 749 Q 1322 746 1322 732 Q 1323 720 1348 694 Z" fill="lightgray"></path>
      </clipPath>
      <path clip-path="url(#make-me-a-hanzi-clip-7)" d="M 1332 741 L 1407 675 L 1430 627 " fill="none" id="make-me-a-hanzi-animation-7" stroke-dasharray="281 562" stroke-linecap="round"></path>

      <clipPath id="make-me-a-hanzi-clip-8">
      <path d="M 1484 486 Q 1391 321 1381 304 Q 1377 301 1374 295 Q 1287 177 1139 48 Q 1132 44 1128 37 Q 1122 27 1134 25 Q 1167 22 1290 125 Q 1332 162 1373 210 Q 1473 331 1551 499 L 1566 532 L 1598 612 Q 1638 715 1654 741 Q 1667 754 1663 770 Q 1651 794 1622 818 Q 1604 836 1589 834 Q 1574 830 1577 813 Q 1587 776 1576 725 Q 1564 694 1552 654 Q 1527 584 1499 520 L 1484 486 Z" fill="lightgray"></path>
      </clipPath>
      <path clip-path="url(#make-me-a-hanzi-clip-8)" d="M 1592 818 L 1621 763 L 1609 722 L 1516 488 L 1448 364 L 1401 288 L 1309 177 L 1231 102 L 1137 34 " fill="none" id="make-me-a-hanzi-animation-8" stroke-dasharray="1084 2168" stroke-linecap="round"></path>

      <clipPath id="make-me-a-hanzi-clip-9">
      <path d="M 1499 520 Q 1483 519 1467 515 Q 1322 494 1240 497 Q 1218 500 1216 487 Q 1215 475 1240 458 Q 1271 436 1301 444 Q 1392 469 1484 486 L 1551 499 Q 1636 515 1723 524 Q 1751 525 1757 511 Q 1766 492 1762 444 Q 1749 266 1716 171 Q 1698 111 1679 93 Q 1666 78 1637 86 Q 1595 99 1557 111 Q 1532 118 1550 95 Q 1605 40 1636 -4 Q 1648 -29 1672 -21 Q 1694 -17 1720 13 Q 1796 91 1822 396 Q 1828 463 1853 504 Q 1872 529 1862 541 Q 1843 563 1802 581 Q 1772 596 1741 581 Q 1665 553 1566 532 L 1499 520 Z" fill="lightgray"></path>
      </clipPath>
      <path clip-path="url(#make-me-a-hanzi-clip-9)" d="M 1227 485 L 1290 469 L 1744 552 L 1775 549 L 1801 529 L 1806 522 L 1770 239 L 1745 143 L 1721 84 L 1695 50 L 1670 35 L 1550 104 " fill="none" id="make-me-a-hanzi-animation-9" stroke-dasharray="1386 2772" stroke-linecap="round"></path>

      <clipPath id="make-me-a-hanzi-clip-10">
      <path d="M 1520 311 Q 1548 281 1578 246 Q 1588 233 1604 232 Q 1614 231 1621 243 Q 1627 256 1622 286 Q 1615 322 1521 358 Q 1506 362 1500 361 Q 1496 358 1495 345 Q 1496 335 1520 311 Z" fill="lightgray"></path>
      </clipPath>
      <path clip-path="url(#make-me-a-hanzi-clip-10)" d="M 1504 355 L 1579 293 L 1605 250 " fill="none" id="make-me-a-hanzi-animation-10" stroke-dasharray="276 552" stroke-linecap="round"></path>

</g>
</svg>
