<svg version="1.1" viewBox="0 0 2048 1024" xmlns="http://www.w3.org/2000/svg">
  <g stroke="lightgray" stroke-dasharray="1,1" stroke-width="1" transform="scale(4, 4)">
    <line x1="0" y1="0" x2="256" y2="256"></line>
    <line x1="256" y1="0" x2="0" y2="256"></line>
    <line x1="128" y1="0" x2="128" y2="256"></line>
    <line x1="0" y1="128" x2="256" y2="128"></line>
    <line x1="256" y1="0" x2="512" y2="256"></line>
    <line x1="512" y1="0" x2="256" y2="256"></line>
    <line x1="384" y1="0" x2="384" y2="256"></line>
    <line x1="256" y1="128" x2="512" y2="128"></line>
  </g>
<g transform="scale(1, -1) translate(0, -850)">
   <style type="text/css">
    @keyframes keyframes0 {
      from {
       stroke: black;
       stroke-dashoffset: 928;
       stroke-width: 128;
       }
       75% {
       animation-timing-function: step-end;
       stroke: black;
       stroke-dashoffset: 0;
       stroke-width: 128;
       }
       to {
       stroke: black;
       stroke-width: 1024;
       }
       }
       #make-me-a-hanzi-animation-0 {
         animation: keyframes0 1.005208s both;
         animation-delay: 0.000000s;
         animation-timing-function: linear;
       }
    @keyframes keyframes1 {
      from {
       stroke: black;
       stroke-dashoffset: 477;
       stroke-width: 128;
       }
       61% {
       animation-timing-function: step-end;
       stroke: black;
       stroke-dashoffset: 0;
       stroke-width: 128;
       }
       to {
       stroke: black;
       stroke-width: 1024;
       }
       }
       #make-me-a-hanzi-animation-1 {
         animation: keyframes1 0.638184s both;
         animation-delay: 1.005208s;
         animation-timing-function: linear;
       }
    @keyframes keyframes2 {
      from {
       stroke: black;
       stroke-dashoffset: 665;
       stroke-width: 128;
       }
       68% {
       animation-timing-function: step-end;
       stroke: black;
       stroke-dashoffset: 0;
       stroke-width: 128;
       }
       to {
       stroke: black;
       stroke-width: 1024;
       }
       }
       #make-me-a-hanzi-animation-2 {
         animation: keyframes2 0.791178s both;
         animation-delay: 1.643392s;
         animation-timing-function: linear;
       }
    @keyframes keyframes3 {
      from {
       stroke: black;
       stroke-dashoffset: 1076;
       stroke-width: 128;
       }
       78% {
       animation-timing-function: step-end;
       stroke: black;
       stroke-dashoffset: 0;
       stroke-width: 128;
       }
       to {
       stroke: black;
       stroke-width: 1024;
       }
       }
       #make-me-a-hanzi-animation-3 {
         animation: keyframes3 1.125651s both;
         animation-delay: 2.434570s;
         animation-timing-function: linear;
       }
    @keyframes keyframes4 {
      from {
       stroke: black;
       stroke-dashoffset: 592;
       stroke-width: 128;
       }
       66% {
       animation-timing-function: step-end;
       stroke: black;
       stroke-dashoffset: 0;
       stroke-width: 128;
       }
       to {
       stroke: black;
       stroke-width: 1024;
       }
       }
       #make-me-a-hanzi-animation-4 {
         animation: keyframes4 0.731771s both;
         animation-delay: 3.560221s;
         animation-timing-function: linear;
       }
    @keyframes keyframes5 {
      from {
       stroke: black;
       stroke-dashoffset: 465;
       stroke-width: 128;
       }
       60% {
       animation-timing-function: step-end;
       stroke: black;
       stroke-dashoffset: 0;
       stroke-width: 128;
       }
       to {
       stroke: black;
       stroke-width: 1024;
       }
       }
       #make-me-a-hanzi-animation-5 {
         animation: keyframes5 0.628418s both;
         animation-delay: 4.291992s;
         animation-timing-function: linear;
       }
    @keyframes keyframes6 {
      from {
       stroke: black;
       stroke-dashoffset: 493;
       stroke-width: 128;
       }
       62% {
       animation-timing-function: step-end;
       stroke: black;
       stroke-dashoffset: 0;
       stroke-width: 128;
       }
       to {
       stroke: black;
       stroke-width: 1024;
       }
       }
       #make-me-a-hanzi-animation-6 {
         animation: keyframes6 0.651204s both;
         animation-delay: 4.920410s;
         animation-timing-function: linear;
       }
    @keyframes keyframes7 {
      from {
       stroke: black;
       stroke-dashoffset: 1114;
       stroke-width: 128;
       }
       78% {
       animation-timing-function: step-end;
       stroke: black;
       stroke-dashoffset: 0;
       stroke-width: 128;
       }
       to {
       stroke: black;
       stroke-width: 1024;
       }
       }
       #make-me-a-hanzi-animation-7 {
         animation: keyframes7 1.156576s both;
         animation-delay: 5.571614s;
         animation-timing-function: linear;
       }
    @keyframes keyframes8 {
      from {
       stroke: black;
       stroke-dashoffset: 551;
       stroke-width: 128;
       }
       64% {
       animation-timing-function: step-end;
       stroke: black;
       stroke-dashoffset: 0;
       stroke-width: 128;
       }
       to {
       stroke: black;
       stroke-width: 1024;
       }
       }
       #make-me-a-hanzi-animation-8 {
         animation: keyframes8 0.698405s both;
         animation-delay: 6.728190s;
         animation-timing-function: linear;
       }
    @keyframes keyframes9 {
      from {
       stroke: black;
       stroke-dashoffset: 516;
       stroke-width: 128;
       }
       63% {
       animation-timing-function: step-end;
       stroke: black;
       stroke-dashoffset: 0;
       stroke-width: 128;
       }
       to {
       stroke: black;
       stroke-width: 1024;
       }
       }
       #make-me-a-hanzi-animation-9 {
         animation: keyframes9 0.669922s both;
         animation-delay: 7.426595s;
         animation-timing-function: linear;
       }
    @keyframes keyframes10 {
      from {
       stroke: black;
       stroke-dashoffset: 1077;
       stroke-width: 128;
       }
       78% {
       animation-timing-function: step-end;
       stroke: black;
       stroke-dashoffset: 0;
       stroke-width: 128;
       }
       to {
       stroke: black;
       stroke-width: 1024;
       }
       }
       #make-me-a-hanzi-animation-10 {
         animation: keyframes10 1.126465s both;
         animation-delay: 8.096517s;
         animation-timing-function: linear;
       }
</style>
<path d="M 568.0 59.0 L 570.0 362.0 L 570.0 386.0 L 570.0 480.0 Q 570.0 519.0 576.0 571.0 Q 582.0 623.0 591.0 646.0 Q 601.0 668.0 600.0 671.0 Q 599.0 673.0 589.0 685.0 Q 580.0 696.0 565.0 702.0 L 534.0 714.0 Q 525.0 718.0 503.0 720.0 Q 482.0 721.0 482.0 705.0 Q 481.0 703.0 486.0 690.0 Q 492.0 676.0 495.0 662.0 L 503.0 632.0 L 506.0 581.0 L 508.0 512.0 L 511.0 53.0 C 511.0 23.0 568.0 29.0 568.0 59.0 Z" fill="lightgray"></path> 
<path d="M 570.0 362.0 L 597.0 357.0 Q 612.0 353.0 641.0 357.0 L 745.0 375.0 Q 785.0 380.0 795.0 389.0 Q 803.0 394.0 803.0 397.0 Q 806.0 413.0 747.0 432.0 Q 731.0 438.0 721.0 434.0 L 694.0 423.0 L 570.0 386.0 C 541.0 377.0 541.0 367.0 570.0 362.0 Z" fill="lightgray"></path> 
<path d="M 369.0 308.0 L 371.0 346.0 Q 373.0 370.0 377.0 384.0 Q 381.0 398.0 380.0 400.0 Q 378.0 411.0 337.0 427.0 Q 296.0 442.0 283.0 429.0 Q 279.0 426.0 281.0 421.0 Q 281.0 415.0 287.0 402.0 Q 294.0 389.0 296.0 376.0 Q 298.0 363.0 304.0 289.0 L 320.0 33.0 C 322.0 3.0 373.0 9.0 373.0 39.0 L 369.0 308.0 Z" fill="lightgray"></path> 
<path d="M 320.0 33.0 L 262.0 26.0 L 105.0 15.0 Q 100.0 15.0 93.0 8.0 Q 90.0 2.0 97.0 -7.0 Q 104.0 -15.0 125.0 -25.0 Q 147.0 -36.0 159.0 -39.0 Q 171.0 -43.0 181.0 -44.0 Q 191.0 -45.0 212.0 -37.0 L 290.0 -17.0 Q 354.0 -2.0 440.0 5.0 Q 527.0 12.0 587.0 19.0 Q 647.0 26.0 758.0 24.0 Q 869.0 21.0 872.0 22.0 L 907.0 23.0 Q 934.0 23.0 934.0 43.0 Q 933.0 52.0 923.0 61.0 Q 913.0 69.0 877.0 84.0 Q 841.0 98.0 834.0 97.0 Q 827.0 95.0 819.0 94.0 L 796.0 90.0 Q 782.0 86.0 723.0 78.0 Q 664.0 70.0 653.0 69.0 L 568.0 59.0 L 511.0 53.0 L 373.0 39.0 L 320.0 33.0 Z" fill="lightgray"></path> 
<path d="M 1579.0 490.0 L 1583.0 627.0 L 1585.0 660.0 L 1586.0 696.0 L 1587.0 723.0 Q 1589.0 737.0 1595.0 756.0 Q 1601.0 774.0 1599.0 779.0 Q 1597.0 784.0 1579.0 795.0 Q 1561.0 805.0 1535.0 807.0 L 1519.0 810.0 Q 1509.0 810.0 1505.0 807.0 Q 1501.0 804.0 1500.0 804.0 Q 1497.0 800.0 1500.0 793.0 L 1511.0 770.0 Q 1514.0 761.0 1518.0 718.0 L 1518.0 690.0 L 1524.0 487.0 C 1525.0 457.0 1578.0 460.0 1579.0 490.0 Z" fill="lightgray"></path> 
<path d="M 1583.0 627.0 L 1602.0 628.0 Q 1633.0 629.0 1645.0 631.0 L 1774.0 652.0 Q 1799.0 655.0 1800.0 672.0 Q 1800.0 680.0 1787.0 687.0 Q 1750.0 704.0 1740.0 702.0 Q 1729.0 700.0 1716.0 694.0 Q 1702.0 688.0 1682.0 684.0 L 1646.0 674.0 L 1585.0 660.0 C 1556.0 653.0 1553.0 625.0 1583.0 627.0 Z" fill="lightgray"></path> 
<path d="M 1390.0 473.0 L 1391.0 573.0 Q 1391.0 623.0 1397.0 639.0 Q 1402.0 655.0 1402.0 660.0 Q 1396.0 679.0 1348.0 688.0 L 1328.0 692.0 Q 1317.0 693.0 1308.0 690.0 Q 1302.0 686.0 1302.0 682.0 Q 1302.0 677.0 1310.0 663.0 Q 1318.0 649.0 1322.0 620.0 L 1329.0 573.0 L 1335.0 466.0 C 1337.0 436.0 1390.0 443.0 1390.0 473.0 Z" fill="lightgray"></path> 
<path d="M 1145.0 452.0 L 1140.0 451.0 L 1114.0 448.0 Q 1101.0 448.0 1099.0 442.0 Q 1097.0 432.0 1116.5 420.0 Q 1136.0 408.0 1141.0 406.0 Q 1146.0 404.0 1171.0 398.0 L 1193.0 396.0 Q 1201.0 396.0 1219.0 402.0 Q 1285.0 418.0 1285.0 419.0 Q 1335.0 429.0 1342.0 430.0 L 1497.0 448.0 L 1553.0 453.0 L 1648.0 460.0 Q 1813.0 467.0 1879.0 464.0 L 1922.0 464.0 L 1954.0 466.0 Q 1975.0 468.0 1971.0 483.0 Q 1969.0 499.0 1923.5 516.5 Q 1878.0 534.0 1850.0 524.0 Q 1838.0 520.0 1811.0 517.0 L 1745.0 508.0 L 1684.0 501.0 L 1579.0 490.0 L 1524.0 487.0 L 1390.0 473.0 L 1335.0 466.0 L 1268.0 458.0 Q 1216.0 453.0 1186.0 453.0 L 1145.0 452.0 Z" fill="lightgray"></path> 
<path d="M 1497.0 448.0 L 1510.0 435.0 Q 1512.0 431.0 1517.0 412.0 Q 1522.0 393.0 1522.0 380.0 L 1523.0 323.0 Q 1523.0 270.0 1517.0 251.0 Q 1510.0 232.0 1510.0 227.0 Q 1510.0 222.0 1518.0 195.0 Q 1525.0 168.0 1543.0 166.0 Q 1550.0 166.0 1561.0 181.0 Q 1572.0 196.0 1572.0 218.0 L 1570.0 255.0 L 1571.0 340.0 Q 1571.0 374.0 1581.0 398.0 Q 1590.0 422.0 1590.0 426.0 Q 1586.0 440.0 1553.0 453.0 C 1525.0 465.0 1476.0 469.0 1497.0 448.0 Z" fill="lightgray"></path> 
<path d="M 1213.0 159.0 Q 1208.0 153.0 1209.5 148.0 Q 1211.0 143.0 1228.0 152.0 L 1247.0 162.0 Q 1261.0 166.0 1277.0 180.0 Q 1297.0 193.0 1322.0 220.5 Q 1347.0 248.0 1361.5 270.5 Q 1376.0 293.0 1391.5 305.0 Q 1407.0 317.0 1394.0 330.0 Q 1388.0 340.0 1377.0 346.0 Q 1365.0 356.0 1352.0 360.0 Q 1334.0 369.0 1330.0 365.0 Q 1326.0 361.0 1325.0 350.0 Q 1319.0 312.0 1278.0 247.0 L 1245.0 196.0 L 1213.0 159.0 Z" fill="lightgray"></path> 
<path d="M 1722.0 366.0 Q 1722.0 360.0 1718.0 338.0 Q 1714.0 316.0 1710.0 308.0 Q 1707.0 296.0 1678.0 256.5 Q 1649.0 217.0 1569.0 142.0 Q 1522.0 101.0 1488.0 77.0 Q 1367.0 -16.0 1250.0 -77.0 L 1204.0 -100.0 Q 1199.0 -102.0 1175.0 -114.0 L 1160.0 -120.0 Q 1153.0 -124.0 1155.0 -129.0 Q 1157.0 -134.0 1167.0 -132.0 L 1179.0 -129.0 L 1202.0 -125.0 Q 1215.0 -123.0 1283.0 -97.0 Q 1351.0 -71.0 1364.5 -64.5 Q 1378.0 -58.0 1433.0 -28.0 Q 1532.0 30.0 1595.0 84.0 Q 1658.0 138.0 1673.0 153.0 L 1731.0 213.0 Q 1772.0 257.0 1782.0 270.5 Q 1792.0 284.0 1799.0 288.0 L 1817.0 301.0 Q 1829.0 313.0 1822.0 322.5 Q 1815.0 332.0 1814.5 333.0 Q 1814.0 334.0 1812.5 336.0 Q 1811.0 338.0 1809.0 340.0 Q 1807.0 342.0 1801.0 350.5 Q 1795.0 359.0 1769.5 374.5 Q 1744.0 390.0 1736.0 388.0 Q 1724.0 388.0 1722.0 366.0 Z" fill="lightgray"></path> 
      <clipPath id="make-me-a-hanzi-clip-0">
      <path d="M 568.0 59.0 L 570.0 362.0 L 570.0 386.0 L 570.0 480.0 Q 570.0 519.0 576.0 571.0 Q 582.0 623.0 591.0 646.0 Q 601.0 668.0 600.0 671.0 Q 599.0 673.0 589.0 685.0 Q 580.0 696.0 565.0 702.0 L 534.0 714.0 Q 525.0 718.0 503.0 720.0 Q 482.0 721.0 482.0 705.0 Q 481.0 703.0 486.0 690.0 Q 492.0 676.0 495.0 662.0 L 503.0 632.0 L 506.0 581.0 L 508.0 512.0 L 511.0 53.0 C 511.0 23.0 568.0 29.0 568.0 59.0 Z" fill="lightgray"></path>
      </clipPath>
      <path clip-path="url(#make-me-a-hanzi-clip-0)" d="M 498.0 705.0 L 545.0 656.0 L 539.0 502.0 L 540.0 85.0 L 517.0 61.0 " fill="none" id="make-me-a-hanzi-animation-0" stroke-dasharray="800 1600" stroke-linecap="round"></path>

      <clipPath id="make-me-a-hanzi-clip-1">
      <path d="M 570.0 362.0 L 597.0 357.0 Q 612.0 353.0 641.0 357.0 L 745.0 375.0 Q 785.0 380.0 795.0 389.0 Q 803.0 394.0 803.0 397.0 Q 806.0 413.0 747.0 432.0 Q 731.0 438.0 721.0 434.0 L 694.0 423.0 L 570.0 386.0 C 541.0 377.0 541.0 367.0 570.0 362.0 Z" fill="lightgray"></path>
      </clipPath>
      <path clip-path="url(#make-me-a-hanzi-clip-1)" d="M 578.0 368.0 L 585.0 375.0 L 616.0 376.0 L 731.0 404.0 L 793.0 399.0 " fill="none" id="make-me-a-hanzi-animation-1" stroke-dasharray="349 698" stroke-linecap="round"></path>

      <clipPath id="make-me-a-hanzi-clip-2">
      <path d="M 369.0 308.0 L 371.0 346.0 Q 373.0 370.0 377.0 384.0 Q 381.0 398.0 380.0 400.0 Q 378.0 411.0 337.0 427.0 Q 296.0 442.0 283.0 429.0 Q 279.0 426.0 281.0 421.0 Q 281.0 415.0 287.0 402.0 Q 294.0 389.0 296.0 376.0 Q 298.0 363.0 304.0 289.0 L 320.0 33.0 C 322.0 3.0 373.0 9.0 373.0 39.0 L 369.0 308.0 Z" fill="lightgray"></path>
      </clipPath>
      <path clip-path="url(#make-me-a-hanzi-clip-2)" d="M 292.0 422.0 L 336.0 384.0 L 346.0 64.0 L 326.0 41.0 " fill="none" id="make-me-a-hanzi-animation-2" stroke-dasharray="537 1074" stroke-linecap="round"></path>

      <clipPath id="make-me-a-hanzi-clip-3">
      <path d="M 320.0 33.0 L 262.0 26.0 L 105.0 15.0 Q 100.0 15.0 93.0 8.0 Q 90.0 2.0 97.0 -7.0 Q 104.0 -15.0 125.0 -25.0 Q 147.0 -36.0 159.0 -39.0 Q 171.0 -43.0 181.0 -44.0 Q 191.0 -45.0 212.0 -37.0 L 290.0 -17.0 Q 354.0 -2.0 440.0 5.0 Q 527.0 12.0 587.0 19.0 Q 647.0 26.0 758.0 24.0 Q 869.0 21.0 872.0 22.0 L 907.0 23.0 Q 934.0 23.0 934.0 43.0 Q 933.0 52.0 923.0 61.0 Q 913.0 69.0 877.0 84.0 Q 841.0 98.0 834.0 97.0 Q 827.0 95.0 819.0 94.0 L 796.0 90.0 Q 782.0 86.0 723.0 78.0 Q 664.0 70.0 653.0 69.0 L 568.0 59.0 L 511.0 53.0 L 373.0 39.0 L 320.0 33.0 Z" fill="lightgray"></path>
      </clipPath>
      <path clip-path="url(#make-me-a-hanzi-clip-3)" d="M 104.0 3.0 L 184.0 -12.0 L 355.0 17.0 L 834.0 59.0 L 917.0 42.0 " fill="none" id="make-me-a-hanzi-animation-3" stroke-dasharray="948 1896" stroke-linecap="round"></path>

      <clipPath id="make-me-a-hanzi-clip-4">
      <path d="M 1579.0 490.0 L 1583.0 627.0 L 1585.0 660.0 L 1586.0 696.0 L 1587.0 723.0 Q 1589.0 737.0 1595.0 756.0 Q 1601.0 774.0 1599.0 779.0 Q 1597.0 784.0 1579.0 795.0 Q 1561.0 805.0 1535.0 807.0 L 1519.0 810.0 Q 1509.0 810.0 1505.0 807.0 Q 1501.0 804.0 1500.0 804.0 Q 1497.0 800.0 1500.0 793.0 L 1511.0 770.0 Q 1514.0 761.0 1518.0 718.0 L 1518.0 690.0 L 1524.0 487.0 C 1525.0 457.0 1578.0 460.0 1579.0 490.0 Z" fill="lightgray"></path>
      </clipPath>
      <path clip-path="url(#make-me-a-hanzi-clip-4)" d="M 1507.0 799.0 L 1554.0 761.0 L 1552.0 517.0 L 1530.0 495.0 " fill="none" id="make-me-a-hanzi-animation-4" stroke-dasharray="464 928" stroke-linecap="round"></path>

      <clipPath id="make-me-a-hanzi-clip-5">
      <path d="M 1583.0 627.0 L 1602.0 628.0 Q 1633.0 629.0 1645.0 631.0 L 1774.0 652.0 Q 1799.0 655.0 1800.0 672.0 Q 1800.0 680.0 1787.0 687.0 Q 1750.0 704.0 1740.0 702.0 Q 1729.0 700.0 1716.0 694.0 Q 1702.0 688.0 1682.0 684.0 L 1646.0 674.0 L 1585.0 660.0 C 1556.0 653.0 1553.0 625.0 1583.0 627.0 Z" fill="lightgray"></path>
      </clipPath>
      <path clip-path="url(#make-me-a-hanzi-clip-5)" d="M 1587.0 632.0 L 1602.0 646.0 L 1745.0 675.0 L 1787.0 671.0 " fill="none" id="make-me-a-hanzi-animation-5" stroke-dasharray="337 674" stroke-linecap="round"></path>

      <clipPath id="make-me-a-hanzi-clip-6">
      <path d="M 1390.0 473.0 L 1391.0 573.0 Q 1391.0 623.0 1397.0 639.0 Q 1402.0 655.0 1402.0 660.0 Q 1396.0 679.0 1348.0 688.0 L 1328.0 692.0 Q 1317.0 693.0 1308.0 690.0 Q 1302.0 686.0 1302.0 682.0 Q 1302.0 677.0 1310.0 663.0 Q 1318.0 649.0 1322.0 620.0 L 1329.0 573.0 L 1335.0 466.0 C 1337.0 436.0 1390.0 443.0 1390.0 473.0 Z" fill="lightgray"></path>
      </clipPath>
      <path clip-path="url(#make-me-a-hanzi-clip-6)" d="M 1312.0 681.0 L 1358.0 645.0 L 1362.0 498.0 L 1341.0 474.0 " fill="none" id="make-me-a-hanzi-animation-6" stroke-dasharray="365 730" stroke-linecap="round"></path>

      <clipPath id="make-me-a-hanzi-clip-7">
      <path d="M 1145.0 452.0 L 1140.0 451.0 L 1114.0 448.0 Q 1101.0 448.0 1099.0 442.0 Q 1097.0 432.0 1116.5 420.0 Q 1136.0 408.0 1141.0 406.0 Q 1146.0 404.0 1171.0 398.0 L 1193.0 396.0 Q 1201.0 396.0 1219.0 402.0 Q 1285.0 418.0 1285.0 419.0 Q 1335.0 429.0 1342.0 430.0 L 1497.0 448.0 L 1553.0 453.0 L 1648.0 460.0 Q 1813.0 467.0 1879.0 464.0 L 1922.0 464.0 L 1954.0 466.0 Q 1975.0 468.0 1971.0 483.0 Q 1969.0 499.0 1923.5 516.5 Q 1878.0 534.0 1850.0 524.0 Q 1838.0 520.0 1811.0 517.0 L 1745.0 508.0 L 1684.0 501.0 L 1579.0 490.0 L 1524.0 487.0 L 1390.0 473.0 L 1335.0 466.0 L 1268.0 458.0 Q 1216.0 453.0 1186.0 453.0 L 1145.0 452.0 Z" fill="lightgray"></path>
      </clipPath>
      <path clip-path="url(#make-me-a-hanzi-clip-7)" d="M 1107.0 439.0 L 1190.0 425.0 L 1414.0 458.0 L 1863.0 496.0 L 1924.0 490.0 L 1958.0 479.0 " fill="none" id="make-me-a-hanzi-animation-7" stroke-dasharray="986 1972" stroke-linecap="round"></path>

      <clipPath id="make-me-a-hanzi-clip-8">
      <path d="M 1497.0 448.0 L 1510.0 435.0 Q 1512.0 431.0 1517.0 412.0 Q 1522.0 393.0 1522.0 380.0 L 1523.0 323.0 Q 1523.0 270.0 1517.0 251.0 Q 1510.0 232.0 1510.0 227.0 Q 1510.0 222.0 1518.0 195.0 Q 1525.0 168.0 1543.0 166.0 Q 1550.0 166.0 1561.0 181.0 Q 1572.0 196.0 1572.0 218.0 L 1570.0 255.0 L 1571.0 340.0 Q 1571.0 374.0 1581.0 398.0 Q 1590.0 422.0 1590.0 426.0 Q 1586.0 440.0 1553.0 453.0 C 1525.0 465.0 1476.0 469.0 1497.0 448.0 Z" fill="lightgray"></path>
      </clipPath>
      <path clip-path="url(#make-me-a-hanzi-clip-8)" d="M 1504.0 449.0 L 1549.0 420.0 L 1551.0 413.0 L 1542.0 179.0 " fill="none" id="make-me-a-hanzi-animation-8" stroke-dasharray="423 846" stroke-linecap="round"></path>

      <clipPath id="make-me-a-hanzi-clip-9">
      <path d="M 1213.0 159.0 Q 1208.0 153.0 1209.5 148.0 Q 1211.0 143.0 1228.0 152.0 L 1247.0 162.0 Q 1261.0 166.0 1277.0 180.0 Q 1297.0 193.0 1322.0 220.5 Q 1347.0 248.0 1361.5 270.5 Q 1376.0 293.0 1391.5 305.0 Q 1407.0 317.0 1394.0 330.0 Q 1388.0 340.0 1377.0 346.0 Q 1365.0 356.0 1352.0 360.0 Q 1334.0 369.0 1330.0 365.0 Q 1326.0 361.0 1325.0 350.0 Q 1319.0 312.0 1278.0 247.0 L 1245.0 196.0 L 1213.0 159.0 Z" fill="lightgray"></path>
      </clipPath>
      <path clip-path="url(#make-me-a-hanzi-clip-9)" d="M 1335.0 355.0 L 1354.0 319.0 L 1341.0 295.0 L 1271.0 199.0 L 1214.0 153.0 " fill="none" id="make-me-a-hanzi-animation-9" stroke-dasharray="388 776" stroke-linecap="round"></path>

      <clipPath id="make-me-a-hanzi-clip-10">
      <path d="M 1722.0 366.0 Q 1722.0 360.0 1718.0 338.0 Q 1714.0 316.0 1710.0 308.0 Q 1707.0 296.0 1678.0 256.5 Q 1649.0 217.0 1569.0 142.0 Q 1522.0 101.0 1488.0 77.0 Q 1367.0 -16.0 1250.0 -77.0 L 1204.0 -100.0 Q 1199.0 -102.0 1175.0 -114.0 L 1160.0 -120.0 Q 1153.0 -124.0 1155.0 -129.0 Q 1157.0 -134.0 1167.0 -132.0 L 1179.0 -129.0 L 1202.0 -125.0 Q 1215.0 -123.0 1283.0 -97.0 Q 1351.0 -71.0 1364.5 -64.5 Q 1378.0 -58.0 1433.0 -28.0 Q 1532.0 30.0 1595.0 84.0 Q 1658.0 138.0 1673.0 153.0 L 1731.0 213.0 Q 1772.0 257.0 1782.0 270.5 Q 1792.0 284.0 1799.0 288.0 L 1817.0 301.0 Q 1829.0 313.0 1822.0 322.5 Q 1815.0 332.0 1814.5 333.0 Q 1814.0 334.0 1812.5 336.0 Q 1811.0 338.0 1809.0 340.0 Q 1807.0 342.0 1801.0 350.5 Q 1795.0 359.0 1769.5 374.5 Q 1744.0 390.0 1736.0 388.0 Q 1724.0 388.0 1722.0 366.0 Z" fill="lightgray"></path>
      </clipPath>
      <path clip-path="url(#make-me-a-hanzi-clip-10)" d="M 1738.0 373.0 L 1762.0 325.0 L 1748.0 292.0 L 1674.0 200.0 L 1582.0 113.0 L 1482.0 35.0 L 1393.0 -23.0 L 1288.0 -78.0 L 1162.0 -127.0 " fill="none" id="make-me-a-hanzi-animation-10" stroke-dasharray="949 1898" stroke-linecap="round"></path>

</g>
</svg>
