<svg version="1.1" viewBox="0 0 2048 1024" xmlns="http://www.w3.org/2000/svg">
  <g stroke="lightgray" stroke-dasharray="1,1" stroke-width="1" transform="scale(4, 4)">
    <line x1="0" y1="0" x2="256" y2="256"></line>
    <line x1="256" y1="0" x2="0" y2="256"></line>
    <line x1="128" y1="0" x2="128" y2="256"></line>
    <line x1="0" y1="128" x2="256" y2="128"></line>
    <line x1="256" y1="0" x2="512" y2="256"></line>
    <line x1="512" y1="0" x2="256" y2="256"></line>
    <line x1="384" y1="0" x2="384" y2="256"></line>
    <line x1="256" y1="128" x2="512" y2="128"></line>
  </g>
<g transform="scale(1, -1) translate(0, -850)">
   <style type="text/css">
    @keyframes keyframes0 {
      from {
       stroke: black;
       stroke-dashoffset: 410;
       stroke-width: 128;
       }
       57% {
       animation-timing-function: step-end;
       stroke: black;
       stroke-dashoffset: 0;
       stroke-width: 128;
       }
       to {
       stroke: black;
       stroke-width: 1024;
       }
       }
       #make-me-a-hanzi-animation-0 {
         animation: keyframes0 0.583659s both;
         animation-delay: 0.000000s;
         animation-timing-function: linear;
       }
    @keyframes keyframes1 {
      from {
       stroke: black;
       stroke-dashoffset: 808;
       stroke-width: 128;
       }
       72% {
       animation-timing-function: step-end;
       stroke: black;
       stroke-dashoffset: 0;
       stroke-width: 128;
       }
       to {
       stroke: black;
       stroke-width: 1024;
       }
       }
       #make-me-a-hanzi-animation-1 {
         animation: keyframes1 0.907552s both;
         animation-delay: 0.583659s;
         animation-timing-function: linear;
       }
    @keyframes keyframes2 {
      from {
       stroke: black;
       stroke-dashoffset: 514;
       stroke-width: 128;
       }
       63% {
       animation-timing-function: step-end;
       stroke: black;
       stroke-dashoffset: 0;
       stroke-width: 128;
       }
       to {
       stroke: black;
       stroke-width: 1024;
       }
       }
       #make-me-a-hanzi-animation-2 {
         animation: keyframes2 0.668294s both;
         animation-delay: 1.491211s;
         animation-timing-function: linear;
       }
    @keyframes keyframes3 {
      from {
       stroke: black;
       stroke-dashoffset: 1006;
       stroke-width: 128;
       }
       77% {
       animation-timing-function: step-end;
       stroke: black;
       stroke-dashoffset: 0;
       stroke-width: 128;
       }
       to {
       stroke: black;
       stroke-width: 1024;
       }
       }
       #make-me-a-hanzi-animation-3 {
         animation: keyframes3 1.068685s both;
         animation-delay: 2.159505s;
         animation-timing-function: linear;
       }
    @keyframes keyframes4 {
      from {
       stroke: black;
       stroke-dashoffset: 1039;
       stroke-width: 128;
       }
       77% {
       animation-timing-function: step-end;
       stroke: black;
       stroke-dashoffset: 0;
       stroke-width: 128;
       }
       to {
       stroke: black;
       stroke-width: 1024;
       }
       }
       #make-me-a-hanzi-animation-4 {
         animation: keyframes4 1.095540s both;
         animation-delay: 3.228190s;
         animation-timing-function: linear;
       }
    @keyframes keyframes5 {
      from {
       stroke: black;
       stroke-dashoffset: 763;
       stroke-width: 128;
       }
       71% {
       animation-timing-function: step-end;
       stroke: black;
       stroke-dashoffset: 0;
       stroke-width: 128;
       }
       to {
       stroke: black;
       stroke-width: 1024;
       }
       }
       #make-me-a-hanzi-animation-5 {
         animation: keyframes5 0.870931s both;
         animation-delay: 4.323730s;
         animation-timing-function: linear;
       }
    @keyframes keyframes6 {
      from {
       stroke: black;
       stroke-dashoffset: 832;
       stroke-width: 128;
       }
       73% {
       animation-timing-function: step-end;
       stroke: black;
       stroke-dashoffset: 0;
       stroke-width: 128;
       }
       to {
       stroke: black;
       stroke-width: 1024;
       }
       }
       #make-me-a-hanzi-animation-6 {
         animation: keyframes6 0.927083s both;
         animation-delay: 5.194661s;
         animation-timing-function: linear;
       }
    @keyframes keyframes7 {
      from {
       stroke: black;
       stroke-dashoffset: 910;
       stroke-width: 128;
       }
       75% {
       animation-timing-function: step-end;
       stroke: black;
       stroke-dashoffset: 0;
       stroke-width: 128;
       }
       to {
       stroke: black;
       stroke-width: 1024;
       }
       }
       #make-me-a-hanzi-animation-7 {
         animation: keyframes7 0.990560s both;
         animation-delay: 6.121745s;
         animation-timing-function: linear;
       }
    @keyframes keyframes8 {
      from {
       stroke: black;
       stroke-dashoffset: 416;
       stroke-width: 128;
       }
       58% {
       animation-timing-function: step-end;
       stroke: black;
       stroke-dashoffset: 0;
       stroke-width: 128;
       }
       to {
       stroke: black;
       stroke-width: 1024;
       }
       }
       #make-me-a-hanzi-animation-8 {
         animation: keyframes8 0.588542s both;
         animation-delay: 7.112305s;
         animation-timing-function: linear;
       }
    @keyframes keyframes9 {
      from {
       stroke: black;
       stroke-dashoffset: 519;
       stroke-width: 128;
       }
       63% {
       animation-timing-function: step-end;
       stroke: black;
       stroke-dashoffset: 0;
       stroke-width: 128;
       }
       to {
       stroke: black;
       stroke-width: 1024;
       }
       }
       #make-me-a-hanzi-animation-9 {
         animation: keyframes9 0.672363s both;
         animation-delay: 7.700846s;
         animation-timing-function: linear;
       }
    @keyframes keyframes10 {
      from {
       stroke: black;
       stroke-dashoffset: 1051;
       stroke-width: 128;
       }
       77% {
       animation-timing-function: step-end;
       stroke: black;
       stroke-dashoffset: 0;
       stroke-width: 128;
       }
       to {
       stroke: black;
       stroke-width: 1024;
       }
       }
       #make-me-a-hanzi-animation-10 {
         animation: keyframes10 1.105306s both;
         animation-delay: 8.373210s;
         animation-timing-function: linear;
       }
</style>
<path d="M 296 538 L 298 538 Q 319 531 340 531 Q 354 531 452 563 Q 464 568 464 582 Q 464 601 427 602 Q 418 602 404 597 Q 341 572 297 559 C 268 550 267 544 296 538 Z" fill="lightgray"></path> 
<path d="M 248 707 Q 231 707 231 695 Q 259 635 259 595 L 259 504 Q 259 437 219 385 Q 208 368 208 359 Q 208 346 215 327 Q 227 311 240 311 Q 248 311 268 325 Q 316 365 443 445 Q 468 458 468 462 Q 468 470 464 470 L 292 407 L 296 538 L 297 559 Q 299 604 305 632 Q 311 659 311 667 Q 311 680 288 692 Q 260 707 248 707 Z" fill="lightgray"></path> 
<path d="M 553 543 Q 626 563 683 596 Q 731 626 770 647 Q 787 654 787 659 Q 787 674 745 696 Q 717 710 703 710 Q 698 710 694 706 Q 691 701 691 695 Q 691 679 662 648 Q 620 606 567 573 L 553 565 C 527 550 524 535 553 543 Z" fill="lightgray"></path> 
<path d="M 512 762 Q 492 762 492 743 Q 512 704 512 659 Q 504 502 504 479 Q 504 422 526 393 Q 540 370 573 359 Q 611 342 665 342 Q 757 342 811 372 Q 848 397 848 414 Q 848 423 839 434 Q 829 450 816 509 Q 812 546 804 546 Q 799 546 790 503 Q 776 448 749 428 Q 715 407 644 407 Q 592 407 571 421 Q 552 436 552 479 Q 552 505 553 543 L 553 565 Q 554 577 554 591 Q 565 680 575 701 Q 584 716 584 718 Q 584 734 551 751 Q 526 762 512 762 Z" fill="lightgray"></path> 
<path d="M 475 216 Q 422 210 355 203 Q 210 185 128 179 Q 116 175 116 166 Q 117 162 141 147 Q 161 135 175 135 Q 189 135 234 144 Q 342 161 475 172 L 531 176 Q 655 187 760 187 L 804 185 Q 856 179 880 179 Q 913 180 915 198 Q 912 216 883 234 Q 854 250 831 250 Q 815 250 787 247 Q 740 242 691 239 Q 651 236 531 223 L 475 216 Z" fill="lightgray"></path> 
<path d="M 460 363 Q 447 363 447 351 Q 447 349 457 334 Q 472 308 475 266 L 475 216 L 475 172 L 475 -94 Q 479 -142 492 -142 Q 505 -142 520 -106 Q 531 -61 531 22 L 531 176 L 531 223 L 531 267 Q 531 277 540 311 Q 540 323 504 348 Q 479 363 460 363 Z" fill="lightgray"></path> 
<path d="M 1453 40 Q 1444 451 1460 535 Q 1464 562 1449 577 Q 1424 599 1392 610 Q 1376 617 1365 610 Q 1356 603 1363 586 Q 1394 513 1404 436 Q 1410 357 1407 36 C 1407 6 1454 10 1453 40 Z" fill="lightgray"></path> 
<path d="M 1627 52 Q 1639 286 1646 499 Q 1652 551 1657 587 Q 1666 618 1671 641 Q 1675 653 1652 670 Q 1613 691 1587 695 Q 1569 699 1560 689 Q 1551 682 1561 665 Q 1595 610 1595 574 Q 1602 330 1582 48 C 1580 18 1625 22 1627 52 Z" fill="lightgray"></path> 
<path d="M 1234 309 Q 1265 276 1297 237 Q 1310 221 1326 220 Q 1338 220 1345 233 Q 1352 248 1346 280 Q 1339 319 1235 359 Q 1219 365 1212 363 Q 1206 359 1206 346 Q 1209 334 1234 309 Z" fill="lightgray"></path> 
<path d="M 1793 418 Q 1759 363 1691 276 Q 1684 267 1691 259 Q 1701 258 1710 263 Q 1828 359 1886 395 Q 1908 402 1903 416 Q 1894 435 1870 458 Q 1845 480 1816 481 Q 1797 480 1800 455 Q 1804 439 1793 418 Z" fill="lightgray"></path> 
<path d="M 1541 -3 Q 1593 -2 1644 2 Q 1776 12 1918 -8 Q 1943 -12 1950 -3 Q 1959 12 1946 25 Q 1870 101 1816 75 Q 1774 69 1627 52 L 1582 48 Q 1539 47 1510 43 Q 1479 42 1453 40 L 1407 36 Q 1358 35 1327 30 Q 1260 21 1158 24 Q 1143 25 1141 12 Q 1140 -1 1160 -17 Q 1208 -53 1244 -41 Q 1302 -26 1431 -12 Q 1482 -6 1541 -3 Z" fill="lightgray"></path> 
      <clipPath id="make-me-a-hanzi-clip-0">
      <path d="M 296 538 L 298 538 Q 319 531 340 531 Q 354 531 452 563 Q 464 568 464 582 Q 464 601 427 602 Q 418 602 404 597 Q 341 572 297 559 C 268 550 267 544 296 538 Z" fill="lightgray"></path>
      </clipPath>
      <path clip-path="url(#make-me-a-hanzi-clip-0)" d="M 297 543 L 446 581 " fill="none" id="make-me-a-hanzi-animation-0" stroke-dasharray="282 564" stroke-linecap="round"></path>

      <clipPath id="make-me-a-hanzi-clip-1">
      <path d="M 248 707 Q 231 707 231 695 Q 259 635 259 595 L 259 504 Q 259 437 219 385 Q 208 368 208 359 Q 208 346 215 327 Q 227 311 240 311 Q 248 311 268 325 Q 316 365 443 445 Q 468 458 468 462 Q 468 470 464 470 L 292 407 L 296 538 L 297 559 Q 299 604 305 632 Q 311 659 311 667 Q 311 680 288 692 Q 260 707 248 707 Z" fill="lightgray"></path>
      </clipPath>
      <path clip-path="url(#make-me-a-hanzi-clip-1)" d="M 244 694 L 269 674 L 280 646 L 278 502 L 264 375 L 303 383 L 417 443 L 451 453 L 461 463 " fill="none" id="make-me-a-hanzi-animation-1" stroke-dasharray="680 1360" stroke-linecap="round"></path>

      <clipPath id="make-me-a-hanzi-clip-2">
      <path d="M 553 543 Q 626 563 683 596 Q 731 626 770 647 Q 787 654 787 659 Q 787 674 745 696 Q 717 710 703 710 Q 698 710 694 706 Q 691 701 691 695 Q 691 679 662 648 Q 620 606 567 573 L 553 565 C 527 550 524 535 553 543 Z" fill="lightgray"></path>
      </clipPath>
      <path clip-path="url(#make-me-a-hanzi-clip-2)" d="M 779 661 L 721 663 L 641 598 L 564 558 L 560 549 " fill="none" id="make-me-a-hanzi-animation-2" stroke-dasharray="386 772" stroke-linecap="round"></path>

      <clipPath id="make-me-a-hanzi-clip-3">
      <path d="M 512 762 Q 492 762 492 743 Q 512 704 512 659 Q 504 502 504 479 Q 504 422 526 393 Q 540 370 573 359 Q 611 342 665 342 Q 757 342 811 372 Q 848 397 848 414 Q 848 423 839 434 Q 829 450 816 509 Q 812 546 804 546 Q 799 546 790 503 Q 776 448 749 428 Q 715 407 644 407 Q 592 407 571 421 Q 552 436 552 479 Q 552 505 553 543 L 553 565 Q 554 577 554 591 Q 565 680 575 701 Q 584 716 584 718 Q 584 734 551 751 Q 526 762 512 762 Z" fill="lightgray"></path>
      </clipPath>
      <path clip-path="url(#make-me-a-hanzi-clip-3)" d="M 509 745 L 541 716 L 529 559 L 529 455 L 539 420 L 565 392 L 614 378 L 675 375 L 746 386 L 787 406 L 799 419 L 805 542 " fill="none" id="make-me-a-hanzi-animation-3" stroke-dasharray="878 1756" stroke-linecap="round"></path>

      <clipPath id="make-me-a-hanzi-clip-4">
      <path d="M 475 216 Q 422 210 355 203 Q 210 185 128 179 Q 116 175 116 166 Q 117 162 141 147 Q 161 135 175 135 Q 189 135 234 144 Q 342 161 475 172 L 531 176 Q 655 187 760 187 L 804 185 Q 856 179 880 179 Q 913 180 915 198 Q 912 216 883 234 Q 854 250 831 250 Q 815 250 787 247 Q 740 242 691 239 Q 651 236 531 223 L 475 216 Z" fill="lightgray"></path>
      </clipPath>
      <path clip-path="url(#make-me-a-hanzi-clip-4)" d="M 124 167 L 178 159 L 348 182 L 714 214 L 826 217 L 901 198 " fill="none" id="make-me-a-hanzi-animation-4" stroke-dasharray="911 1822" stroke-linecap="round"></path>

      <clipPath id="make-me-a-hanzi-clip-5">
      <path d="M 460 363 Q 447 363 447 351 Q 447 349 457 334 Q 472 308 475 266 L 475 216 L 475 172 L 475 -94 Q 479 -142 492 -142 Q 505 -142 520 -106 Q 531 -61 531 22 L 531 176 L 531 223 L 531 267 Q 531 277 540 311 Q 540 323 504 348 Q 479 363 460 363 Z" fill="lightgray"></path>
      </clipPath>
      <path clip-path="url(#make-me-a-hanzi-clip-5)" d="M 457 353 L 485 332 L 504 305 L 503 -35 L 493 -133 " fill="none" id="make-me-a-hanzi-animation-5" stroke-dasharray="635 1270" stroke-linecap="round"></path>

      <clipPath id="make-me-a-hanzi-clip-6">
      <path d="M 1453 40 Q 1444 451 1460 535 Q 1464 562 1449 577 Q 1424 599 1392 610 Q 1376 617 1365 610 Q 1356 603 1363 586 Q 1394 513 1404 436 Q 1410 357 1407 36 C 1407 6 1454 10 1453 40 Z" fill="lightgray"></path>
      </clipPath>
      <path clip-path="url(#make-me-a-hanzi-clip-6)" d="M 1375 599 L 1419 550 L 1424 507 L 1431 79 L 1428 58 L 1414 48 " fill="none" id="make-me-a-hanzi-animation-6" stroke-dasharray="704 1408" stroke-linecap="round"></path>

      <clipPath id="make-me-a-hanzi-clip-7">
      <path d="M 1627 52 Q 1639 286 1646 499 Q 1652 551 1657 587 Q 1666 618 1671 641 Q 1675 653 1652 670 Q 1613 691 1587 695 Q 1569 699 1560 689 Q 1551 682 1561 665 Q 1595 610 1595 574 Q 1602 330 1582 48 C 1580 18 1625 22 1627 52 Z" fill="lightgray"></path>
      </clipPath>
      <path clip-path="url(#make-me-a-hanzi-clip-7)" d="M 1573 678 L 1625 636 L 1626 619 L 1607 78 L 1589 56 " fill="none" id="make-me-a-hanzi-animation-7" stroke-dasharray="782 1564" stroke-linecap="round"></path>

      <clipPath id="make-me-a-hanzi-clip-8">
      <path d="M 1234 309 Q 1265 276 1297 237 Q 1310 221 1326 220 Q 1338 220 1345 233 Q 1352 248 1346 280 Q 1339 319 1235 359 Q 1219 365 1212 363 Q 1206 359 1206 346 Q 1209 334 1234 309 Z" fill="lightgray"></path>
      </clipPath>
      <path clip-path="url(#make-me-a-hanzi-clip-8)" d="M 1217 355 L 1303 285 L 1325 241 " fill="none" id="make-me-a-hanzi-animation-8" stroke-dasharray="288 576" stroke-linecap="round"></path>

      <clipPath id="make-me-a-hanzi-clip-9">
      <path d="M 1793 418 Q 1759 363 1691 276 Q 1684 267 1691 259 Q 1701 258 1710 263 Q 1828 359 1886 395 Q 1908 402 1903 416 Q 1894 435 1870 458 Q 1845 480 1816 481 Q 1797 480 1800 455 Q 1804 439 1793 418 Z" fill="lightgray"></path>
      </clipPath>
      <path clip-path="url(#make-me-a-hanzi-clip-9)" d="M 1817 462 L 1835 442 L 1843 421 L 1696 266 " fill="none" id="make-me-a-hanzi-animation-9" stroke-dasharray="391 782" stroke-linecap="round"></path>

      <clipPath id="make-me-a-hanzi-clip-10">
      <path d="M 1541 -3 Q 1593 -2 1644 2 Q 1776 12 1918 -8 Q 1943 -12 1950 -3 Q 1959 12 1946 25 Q 1870 101 1816 75 Q 1774 69 1627 52 L 1582 48 Q 1539 47 1510 43 Q 1479 42 1453 40 L 1407 36 Q 1358 35 1327 30 Q 1260 21 1158 24 Q 1143 25 1141 12 Q 1140 -1 1160 -17 Q 1208 -53 1244 -41 Q 1302 -26 1431 -12 Q 1482 -6 1541 -3 Z" fill="lightgray"></path>
      </clipPath>
      <path clip-path="url(#make-me-a-hanzi-clip-10)" d="M 1155 11 L 1182 -2 L 1231 -10 L 1432 14 L 1846 41 L 1887 31 L 1938 8 " fill="none" id="make-me-a-hanzi-animation-10" stroke-dasharray="923 1846" stroke-linecap="round"></path>

</g>
</svg>
