<svg version="1.1" viewBox="0 0 4096 1024" xmlns="http://www.w3.org/2000/svg">
  <g stroke="lightgray" stroke-dasharray="1,1" stroke-width="1" transform="scale(4, 4)">
    <line x1="0" y1="0" x2="256" y2="256"></line>
    <line x1="256" y1="0" x2="0" y2="256"></line>
    <line x1="128" y1="0" x2="128" y2="256"></line>
    <line x1="0" y1="128" x2="256" y2="128"></line>
    <line x1="256" y1="0" x2="512" y2="256"></line>
    <line x1="512" y1="0" x2="256" y2="256"></line>
    <line x1="384" y1="0" x2="384" y2="256"></line>
    <line x1="256" y1="128" x2="512" y2="128"></line>
    <line x1="512" y1="0" x2="768" y2="256"></line>
    <line x1="768" y1="0" x2="512" y2="256"></line>
    <line x1="640" y1="0" x2="640" y2="256"></line>
    <line x1="512" y1="128" x2="768" y2="128"></line>
    <line x1="768" y1="0" x2="1024" y2="256"></line>
    <line x1="1024" y1="0" x2="768" y2="256"></line>
    <line x1="896" y1="0" x2="896" y2="256"></line>
    <line x1="768" y1="128" x2="1024" y2="128"></line>
  </g>
<g transform="scale(1, -1) translate(0, -850)">
   <style type="text/css">
    @keyframes keyframes0 {
      from {
       stroke: black;
       stroke-dashoffset: 1170;
       stroke-width: 128;
       }
       79% {
       animation-timing-function: step-end;
       stroke: black;
       stroke-dashoffset: 0;
       stroke-width: 128;
       }
       to {
       stroke: black;
       stroke-width: 1024;
       }
       }
       #make-me-a-hanzi-animation-0 {
         animation: keyframes0 1.202148s both;
         animation-delay: 0.000000s;
         animation-timing-function: linear;
       }
    @keyframes keyframes1 {
      from {
       stroke: black;
       stroke-dashoffset: 1010;
       stroke-width: 128;
       }
       77% {
       animation-timing-function: step-end;
       stroke: black;
       stroke-dashoffset: 0;
       stroke-width: 128;
       }
       to {
       stroke: black;
       stroke-width: 1024;
       }
       }
       #make-me-a-hanzi-animation-1 {
         animation: keyframes1 1.071940s both;
         animation-delay: 1.202148s;
         animation-timing-function: linear;
       }
    @keyframes keyframes2 {
      from {
       stroke: black;
       stroke-dashoffset: 575;
       stroke-width: 128;
       }
       65% {
       animation-timing-function: step-end;
       stroke: black;
       stroke-dashoffset: 0;
       stroke-width: 128;
       }
       to {
       stroke: black;
       stroke-width: 1024;
       }
       }
       #make-me-a-hanzi-animation-2 {
         animation: keyframes2 0.717936s both;
         animation-delay: 2.274089s;
         animation-timing-function: linear;
       }
    @keyframes keyframes3 {
      from {
       stroke: black;
       stroke-dashoffset: 812;
       stroke-width: 128;
       }
       73% {
       animation-timing-function: step-end;
       stroke: black;
       stroke-dashoffset: 0;
       stroke-width: 128;
       }
       to {
       stroke: black;
       stroke-width: 1024;
       }
       }
       #make-me-a-hanzi-animation-3 {
         animation: keyframes3 0.910807s both;
         animation-delay: 2.992025s;
         animation-timing-function: linear;
       }
    @keyframes keyframes4 {
      from {
       stroke: black;
       stroke-dashoffset: 397;
       stroke-width: 128;
       }
       56% {
       animation-timing-function: step-end;
       stroke: black;
       stroke-dashoffset: 0;
       stroke-width: 128;
       }
       to {
       stroke: black;
       stroke-width: 1024;
       }
       }
       #make-me-a-hanzi-animation-4 {
         animation: keyframes4 0.573079s both;
         animation-delay: 3.902832s;
         animation-timing-function: linear;
       }
    @keyframes keyframes5 {
      from {
       stroke: black;
       stroke-dashoffset: 398;
       stroke-width: 128;
       }
       56% {
       animation-timing-function: step-end;
       stroke: black;
       stroke-dashoffset: 0;
       stroke-width: 128;
       }
       to {
       stroke: black;
       stroke-width: 1024;
       }
       }
       #make-me-a-hanzi-animation-5 {
         animation: keyframes5 0.573893s both;
         animation-delay: 4.475911s;
         animation-timing-function: linear;
       }
    @keyframes keyframes6 {
      from {
       stroke: black;
       stroke-dashoffset: 580;
       stroke-width: 128;
       }
       65% {
       animation-timing-function: step-end;
       stroke: black;
       stroke-dashoffset: 0;
       stroke-width: 128;
       }
       to {
       stroke: black;
       stroke-width: 1024;
       }
       }
       #make-me-a-hanzi-animation-6 {
         animation: keyframes6 0.722005s both;
         animation-delay: 5.049805s;
         animation-timing-function: linear;
       }
    @keyframes keyframes7 {
      from {
       stroke: black;
       stroke-dashoffset: 603;
       stroke-width: 128;
       }
       66% {
       animation-timing-function: step-end;
       stroke: black;
       stroke-dashoffset: 0;
       stroke-width: 128;
       }
       to {
       stroke: black;
       stroke-width: 1024;
       }
       }
       #make-me-a-hanzi-animation-7 {
         animation: keyframes7 0.740723s both;
         animation-delay: 5.771810s;
         animation-timing-function: linear;
       }
    @keyframes keyframes8 {
      from {
       stroke: black;
       stroke-dashoffset: 387;
       stroke-width: 128;
       }
       56% {
       animation-timing-function: step-end;
       stroke: black;
       stroke-dashoffset: 0;
       stroke-width: 128;
       }
       to {
       stroke: black;
       stroke-width: 1024;
       }
       }
       #make-me-a-hanzi-animation-8 {
         animation: keyframes8 0.564941s both;
         animation-delay: 6.512533s;
         animation-timing-function: linear;
       }
    @keyframes keyframes9 {
      from {
       stroke: black;
       stroke-dashoffset: 1027;
       stroke-width: 128;
       }
       77% {
       animation-timing-function: step-end;
       stroke: black;
       stroke-dashoffset: 0;
       stroke-width: 128;
       }
       to {
       stroke: black;
       stroke-width: 1024;
       }
       }
       #make-me-a-hanzi-animation-9 {
         animation: keyframes9 1.085775s both;
         animation-delay: 7.077474s;
         animation-timing-function: linear;
       }
    @keyframes keyframes10 {
      from {
       stroke: black;
       stroke-dashoffset: 544;
       stroke-width: 128;
       }
       64% {
       animation-timing-function: step-end;
       stroke: black;
       stroke-dashoffset: 0;
       stroke-width: 128;
       }
       to {
       stroke: black;
       stroke-width: 1024;
       }
       }
       #make-me-a-hanzi-animation-10 {
         animation: keyframes10 0.692708s both;
         animation-delay: 8.163249s;
         animation-timing-function: linear;
       }
    @keyframes keyframes11 {
      from {
       stroke: black;
       stroke-dashoffset: 669;
       stroke-width: 128;
       }
       69% {
       animation-timing-function: step-end;
       stroke: black;
       stroke-dashoffset: 0;
       stroke-width: 128;
       }
       to {
       stroke: black;
       stroke-width: 1024;
       }
       }
       #make-me-a-hanzi-animation-11 {
         animation: keyframes11 0.794434s both;
         animation-delay: 8.855957s;
         animation-timing-function: linear;
       }
    @keyframes keyframes12 {
      from {
       stroke: black;
       stroke-dashoffset: 1141;
       stroke-width: 128;
       }
       79% {
       animation-timing-function: step-end;
       stroke: black;
       stroke-dashoffset: 0;
       stroke-width: 128;
       }
       to {
       stroke: black;
       stroke-width: 1024;
       }
       }
       #make-me-a-hanzi-animation-12 {
         animation: keyframes12 1.178548s both;
         animation-delay: 9.650391s;
         animation-timing-function: linear;
       }
    @keyframes keyframes13 {
      from {
       stroke: black;
       stroke-dashoffset: 742;
       stroke-width: 128;
       }
       71% {
       animation-timing-function: step-end;
       stroke: black;
       stroke-dashoffset: 0;
       stroke-width: 128;
       }
       to {
       stroke: black;
       stroke-width: 1024;
       }
       }
       #make-me-a-hanzi-animation-13 {
         animation: keyframes13 0.853841s both;
         animation-delay: 10.828939s;
         animation-timing-function: linear;
       }
    @keyframes keyframes14 {
      from {
       stroke: black;
       stroke-dashoffset: 458;
       stroke-width: 128;
       }
       60% {
       animation-timing-function: step-end;
       stroke: black;
       stroke-dashoffset: 0;
       stroke-width: 128;
       }
       to {
       stroke: black;
       stroke-width: 1024;
       }
       }
       #make-me-a-hanzi-animation-14 {
         animation: keyframes14 0.622721s both;
         animation-delay: 11.682780s;
         animation-timing-function: linear;
       }
    @keyframes keyframes15 {
      from {
       stroke: black;
       stroke-dashoffset: 895;
       stroke-width: 128;
       }
       74% {
       animation-timing-function: step-end;
       stroke: black;
       stroke-dashoffset: 0;
       stroke-width: 128;
       }
       to {
       stroke: black;
       stroke-width: 1024;
       }
       }
       #make-me-a-hanzi-animation-15 {
         animation: keyframes15 0.978353s both;
         animation-delay: 12.305501s;
         animation-timing-function: linear;
       }
    @keyframes keyframes16 {
      from {
       stroke: black;
       stroke-dashoffset: 1091;
       stroke-width: 128;
       }
       78% {
       animation-timing-function: step-end;
       stroke: black;
       stroke-dashoffset: 0;
       stroke-width: 128;
       }
       to {
       stroke: black;
       stroke-width: 1024;
       }
       }
       #make-me-a-hanzi-animation-16 {
         animation: keyframes16 1.137858s both;
         animation-delay: 13.283854s;
         animation-timing-function: linear;
       }
    @keyframes keyframes17 {
      from {
       stroke: black;
       stroke-dashoffset: 359;
       stroke-width: 128;
       }
       54% {
       animation-timing-function: step-end;
       stroke: black;
       stroke-dashoffset: 0;
       stroke-width: 128;
       }
       to {
       stroke: black;
       stroke-width: 1024;
       }
       }
       #make-me-a-hanzi-animation-17 {
         animation: keyframes17 0.542155s both;
         animation-delay: 14.421712s;
         animation-timing-function: linear;
       }
    @keyframes keyframes18 {
      from {
       stroke: black;
       stroke-dashoffset: 358;
       stroke-width: 128;
       }
       54% {
       animation-timing-function: step-end;
       stroke: black;
       stroke-dashoffset: 0;
       stroke-width: 128;
       }
       to {
       stroke: black;
       stroke-width: 1024;
       }
       }
       #make-me-a-hanzi-animation-18 {
         animation: keyframes18 0.541341s both;
         animation-delay: 14.963867s;
         animation-timing-function: linear;
       }
    @keyframes keyframes19 {
      from {
       stroke: black;
       stroke-dashoffset: 696;
       stroke-width: 128;
       }
       69% {
       animation-timing-function: step-end;
       stroke: black;
       stroke-dashoffset: 0;
       stroke-width: 128;
       }
       to {
       stroke: black;
       stroke-width: 1024;
       }
       }
       #make-me-a-hanzi-animation-19 {
         animation: keyframes19 0.816406s both;
         animation-delay: 15.505208s;
         animation-timing-function: linear;
       }
    @keyframes keyframes20 {
      from {
       stroke: black;
       stroke-dashoffset: 618;
       stroke-width: 128;
       }
       67% {
       animation-timing-function: step-end;
       stroke: black;
       stroke-dashoffset: 0;
       stroke-width: 128;
       }
       to {
       stroke: black;
       stroke-width: 1024;
       }
       }
       #make-me-a-hanzi-animation-20 {
         animation: keyframes20 0.752930s both;
         animation-delay: 16.321615s;
         animation-timing-function: linear;
       }
    @keyframes keyframes21 {
      from {
       stroke: black;
       stroke-dashoffset: 711;
       stroke-width: 128;
       }
       70% {
       animation-timing-function: step-end;
       stroke: black;
       stroke-dashoffset: 0;
       stroke-width: 128;
       }
       to {
       stroke: black;
       stroke-width: 1024;
       }
       }
       #make-me-a-hanzi-animation-21 {
         animation: keyframes21 0.828613s both;
         animation-delay: 17.074544s;
         animation-timing-function: linear;
       }
    @keyframes keyframes22 {
      from {
       stroke: black;
       stroke-dashoffset: 519;
       stroke-width: 128;
       }
       63% {
       animation-timing-function: step-end;
       stroke: black;
       stroke-dashoffset: 0;
       stroke-width: 128;
       }
       to {
       stroke: black;
       stroke-width: 1024;
       }
       }
       #make-me-a-hanzi-animation-22 {
         animation: keyframes22 0.672363s both;
         animation-delay: 17.903158s;
         animation-timing-function: linear;
       }
    @keyframes keyframes23 {
      from {
       stroke: black;
       stroke-dashoffset: 681;
       stroke-width: 128;
       }
       69% {
       animation-timing-function: step-end;
       stroke: black;
       stroke-dashoffset: 0;
       stroke-width: 128;
       }
       to {
       stroke: black;
       stroke-width: 1024;
       }
       }
       #make-me-a-hanzi-animation-23 {
         animation: keyframes23 0.804199s both;
         animation-delay: 18.575521s;
         animation-timing-function: linear;
       }
    @keyframes keyframes24 {
      from {
       stroke: black;
       stroke-dashoffset: 492;
       stroke-width: 128;
       }
       62% {
       animation-timing-function: step-end;
       stroke: black;
       stroke-dashoffset: 0;
       stroke-width: 128;
       }
       to {
       stroke: black;
       stroke-width: 1024;
       }
       }
       #make-me-a-hanzi-animation-24 {
         animation: keyframes24 0.650391s both;
         animation-delay: 19.379720s;
         animation-timing-function: linear;
       }
    @keyframes keyframes25 {
      from {
       stroke: black;
       stroke-dashoffset: 398;
       stroke-width: 128;
       }
       56% {
       animation-timing-function: step-end;
       stroke: black;
       stroke-dashoffset: 0;
       stroke-width: 128;
       }
       to {
       stroke: black;
       stroke-width: 1024;
       }
       }
       #make-me-a-hanzi-animation-25 {
         animation: keyframes25 0.573893s both;
         animation-delay: 20.030111s;
         animation-timing-function: linear;
       }
    @keyframes keyframes26 {
      from {
       stroke: black;
       stroke-dashoffset: 879;
       stroke-width: 128;
       }
       74% {
       animation-timing-function: step-end;
       stroke: black;
       stroke-dashoffset: 0;
       stroke-width: 128;
       }
       to {
       stroke: black;
       stroke-width: 1024;
       }
       }
       #make-me-a-hanzi-animation-26 {
         animation: keyframes26 0.965332s both;
         animation-delay: 20.604004s;
         animation-timing-function: linear;
       }
    @keyframes keyframes27 {
      from {
       stroke: black;
       stroke-dashoffset: 437;
       stroke-width: 128;
       }
       59% {
       animation-timing-function: step-end;
       stroke: black;
       stroke-dashoffset: 0;
       stroke-width: 128;
       }
       to {
       stroke: black;
       stroke-width: 1024;
       }
       }
       #make-me-a-hanzi-animation-27 {
         animation: keyframes27 0.605632s both;
         animation-delay: 21.569336s;
         animation-timing-function: linear;
       }
    @keyframes keyframes28 {
      from {
       stroke: black;
       stroke-dashoffset: 576;
       stroke-width: 128;
       }
       65% {
       animation-timing-function: step-end;
       stroke: black;
       stroke-dashoffset: 0;
       stroke-width: 128;
       }
       to {
       stroke: black;
       stroke-width: 1024;
       }
       }
       #make-me-a-hanzi-animation-28 {
         animation: keyframes28 0.718750s both;
         animation-delay: 22.174967s;
         animation-timing-function: linear;
       }
    @keyframes keyframes29 {
      from {
       stroke: black;
       stroke-dashoffset: 448;
       stroke-width: 128;
       }
       59% {
       animation-timing-function: step-end;
       stroke: black;
       stroke-dashoffset: 0;
       stroke-width: 128;
       }
       to {
       stroke: black;
       stroke-width: 1024;
       }
       }
       #make-me-a-hanzi-animation-29 {
         animation: keyframes29 0.614583s both;
         animation-delay: 22.893717s;
         animation-timing-function: linear;
       }
    @keyframes keyframes30 {
      from {
       stroke: black;
       stroke-dashoffset: 633;
       stroke-width: 128;
       }
       67% {
       animation-timing-function: step-end;
       stroke: black;
       stroke-dashoffset: 0;
       stroke-width: 128;
       }
       to {
       stroke: black;
       stroke-width: 1024;
       }
       }
       #make-me-a-hanzi-animation-30 {
         animation: keyframes30 0.765137s both;
         animation-delay: 23.508301s;
         animation-timing-function: linear;
       }
    @keyframes keyframes31 {
      from {
       stroke: black;
       stroke-dashoffset: 1358;
       stroke-width: 128;
       }
       82% {
       animation-timing-function: step-end;
       stroke: black;
       stroke-dashoffset: 0;
       stroke-width: 128;
       }
       to {
       stroke: black;
       stroke-width: 1024;
       }
       }
       #make-me-a-hanzi-animation-31 {
         animation: keyframes31 1.355143s both;
         animation-delay: 24.273438s;
         animation-timing-function: linear;
       }
    @keyframes keyframes32 {
      from {
       stroke: black;
       stroke-dashoffset: 433;
       stroke-width: 128;
       }
       58% {
       animation-timing-function: step-end;
       stroke: black;
       stroke-dashoffset: 0;
       stroke-width: 128;
       }
       to {
       stroke: black;
       stroke-width: 1024;
       }
       }
       #make-me-a-hanzi-animation-32 {
         animation: keyframes32 0.602376s both;
         animation-delay: 25.628581s;
         animation-timing-function: linear;
       }
    @keyframes keyframes33 {
      from {
       stroke: black;
       stroke-dashoffset: 563;
       stroke-width: 128;
       }
       65% {
       animation-timing-function: step-end;
       stroke: black;
       stroke-dashoffset: 0;
       stroke-width: 128;
       }
       to {
       stroke: black;
       stroke-width: 1024;
       }
       }
       #make-me-a-hanzi-animation-33 {
         animation: keyframes33 0.708171s both;
         animation-delay: 26.230957s;
         animation-timing-function: linear;
       }
    @keyframes keyframes34 {
      from {
       stroke: black;
       stroke-dashoffset: 438;
       stroke-width: 128;
       }
       59% {
       animation-timing-function: step-end;
       stroke: black;
       stroke-dashoffset: 0;
       stroke-width: 128;
       }
       to {
       stroke: black;
       stroke-width: 1024;
       }
       }
       #make-me-a-hanzi-animation-34 {
         animation: keyframes34 0.606445s both;
         animation-delay: 26.939128s;
         animation-timing-function: linear;
       }
</style>
<path d="M 513 298 L 523 458 Q 525 496 528 517 L 533 534 Q 533 548 543 570 Q 554 592 552 597 Q 551 602 544 613 Q 537 623 520 630 L 486 644 Q 452 658 445 653 Q 441 652 437 646 Q 435 639 438 632 L 444 612 Q 448 591 451 564 Q 452 531 454 517 L 456 469 Q 457 454 457 410 L 451 82 Q 452 65 450 13 L 447 -31 Q 446 -46 440 -52 Q 426 -64 411 -61 Q 397 -59 362 -51 L 332 -45 Q 322 -42 319 -47 Q 317 -52 325 -58 L 356 -82 Q 377 -99 381 -104 Q 386 -109 417 -146 Q 449 -184 460 -184 Q 470 -185 488 -162 L 503 -132 Q 516 -107 518 -64 L 514 39 L 512 251 L 513 298 Z" fill="lightgray"></path> 
<path d="M 59 -25 L 81 -18 Q 102 -12 136 6 Q 171 24 195 45 Q 220 66 259 111 Q 298 156 339 226 L 369 277 L 383 294 L 405 317 Q 413 324 415 329 Q 415 336 411 341 Q 407 346 392 361 Q 378 375 367 382 L 357 387 Q 355 387 353 389 L 351 390 Q 346 390 318 379 Q 290 368 261 364 Q 226 355 188 350 L 157 346 Q 152 344 140 344 L 114 342 Q 96 341 92 335 Q 89 328 109 316 Q 132 298 149 298 Q 167 298 188 304 L 281 328 Q 291 332 303 333 Q 315 334 316 331 Q 318 328 314 313 Q 311 298 296 270 Q 281 242 246 190 Q 212 137 191 115 Q 171 92 145 66 L 101 28 Q 74 2 71 1 L 53 -12 Q 41 -21 44 -25 Q 45 -29 59 -25 Z" fill="lightgray"></path> 
<path d="M 688 506 L 682 480 Q 677 456 617 390 L 577 348 L 520 292 C 499 271 502 270 528 284 L 636 343 Q 648 350 682 374 L 736 414 Q 763 433 779 439 Q 796 445 797 449 L 799 456 Q 799 470 768 489 Q 737 507 719 510 Q 702 512 700 514 L 698 514 Q 688 508 688 506 Z" fill="lightgray"></path> 
<path d="M 520 292 L 513 298 C 491 318 493 274 512 251 L 604 137 Q 640 92 650 82 L 696 32 Q 726 -2 742 -11 Q 758 -20 787 -22 L 897 -16 L 933 -9 L 965 -1 Q 977 4 977 8 Q 977 13 966 17 L 939 28 L 879 48 L 825 72 Q 772 97 711 130 Q 632 180 528 284 L 520 292 Z" fill="lightgray"></path> 
<path d="M 1195 572 Q 1176 572 1176 568 Q 1176 563 1209 509 Q 1248 449 1276 449 Q 1299 449 1299 476 Q 1299 497 1291 517 Q 1278 547 1247 560 Q 1224 571 1195 572 Z" fill="lightgray"></path> 
<path d="M 1104 360 Q 1083 360 1083 356 Q 1083 351 1119 300 Q 1162 245 1192 245 Q 1215 245 1215 276 Q 1215 295 1206 312 Q 1192 338 1159 349 Q 1135 359 1104 360 Z" fill="lightgray"></path> 
<path d="M 1268 184 Q 1266 184 1201 65 Q 1170 5 1140 -11 Q 1119 -18 1119 -32 Q 1119 -56 1142 -96 Q 1164 -135 1180 -135 Q 1194 -135 1199 -112 Q 1203 -82 1241 42 Q 1276 161 1276 176 Q 1276 184 1268 184 Z" fill="lightgray"></path> 
<path d="M 1492 593 Q 1488 593 1478 585 Q 1462 573 1414 556 Q 1369 539 1352 537 Q 1323 537 1323 524 Q 1323 517 1339 510 Q 1364 501 1379 501 Q 1385 501 1416 517 Q 1447 532 1459 532 Q 1480 532 1480 509 Q 1470 425 1463 404 L 1461 396 C 1453 367 1492 363 1501 392 Q 1532 494 1555 516 Q 1568 525 1568 537 Q 1568 554 1539 574 Q 1511 593 1492 593 Z" fill="lightgray"></path> 
<path d="M 1461 396 Q 1458 396 1448 390 Q 1426 378 1374 367 C 1345 361 1353 338 1383 334 Q 1390 333 1396 333 Q 1401 333 1409 336 Q 1422 340 1463 352 Q 1483 355 1504 365 Q 1514 370 1516 381 Q 1514 388 1501 392 L 1461 396 Z" fill="lightgray"></path> 
<path d="M 1374 367 Q 1371 371 1365 374 Q 1348 381 1335 381 Q 1323 381 1323 369 Q 1323 357 1331 345 Q 1343 327 1343 293 Q 1343 253 1315 208 Q 1299 185 1299 169 Q 1299 140 1316 140 Q 1322 140 1343 156 Q 1398 193 1440 193 Q 1459 193 1459 169 Q 1459 114 1449 25 Q 1421 -68 1392 -68 Q 1379 -68 1320 -32 L 1316 -36 Q 1347 -86 1376 -150 Q 1384 -164 1392 -164 Q 1423 -164 1460 -109 Q 1494 -57 1504 91 Q 1509 173 1524 193 Q 1532 199 1532 205 Q 1532 215 1508 232 Q 1487 245 1476 245 Q 1464 245 1447 236 Q 1434 228 1388 216 Q 1379 216 1379 220 Q 1383 250 1383 334 C 1383 362 1383 362 1374 367 Z" fill="lightgray"></path> 
<path d="M 1666 352 L 1667 352 Q 1734 387 1786 449 Q 1825 498 1857 534 Q 1872 545 1872 553 Q 1872 565 1835 584 Q 1811 597 1799 597 Q 1794 597 1791 592 Q 1788 587 1788 581 Q 1788 557 1763 510 Q 1730 446 1687 396 Q 1674 383 1666 373 C 1647 350 1639 339 1666 352 Z" fill="lightgray"></path> 
<path d="M 1792 260 L 1833 259 Q 1881 256 1904 256 Q 1934 257 1935 272 Q 1932 289 1905 305 Q 1877 321 1855 321 Q 1847 321 1834 318 Q 1812 314 1789 312 Q 1762 309 1665 293 L 1629 287 L 1628 287 Q 1559 273 1520 268 Q 1507 266 1507 260 Q 1508 256 1531 241 Q 1549 228 1564 228 Q 1569 228 1586 234 Q 1607 240 1629 244 L 1665 250 Q 1677 251 1691 253 L 1694 253 L 1723 256 Q 1759 260 1792 260 Z" fill="lightgray"></path> 
<path d="M 1665 293 Q 1665 324 1666 352 L 1666 373 Q 1669 502 1677 555 Q 1683 582 1683 589 Q 1683 606 1656 622 Q 1621 640 1595 640 Q 1579 640 1579 625 Q 1579 613 1593 593 Q 1610 566 1615 530 Q 1629 449 1629 287 L 1629 244 Q 1628 103 1618 25 Q 1610 -39 1580 -83 Q 1568 -106 1568 -120 Q 1568 -137 1580 -154 Q 1594 -171 1608 -171 Q 1616 -171 1623 -154 Q 1640 -120 1723 -20 Q 1736 -6 1736 0 Q 1736 4 1732 4 Q 1729 4 1658 -49 Q 1664 72 1665 250 L 1665 293 Z" fill="lightgray"></path> 
<path d="M 1694 253 Q 1696 249 1702 238 Q 1712 214 1748 110 Q 1794 -28 1812 -58 Q 1826 -87 1851 -87 Q 1925 -87 1973 -78 Q 2015 -73 2015 -63 Q 2015 -58 1970 -41 Q 1901 -11 1862 25 Q 1824 61 1777 161 Q 1740 233 1723 256 C 1706 281 1680 279 1694 253 Z" fill="lightgray"></path> 
<path d="M 2365 472 L 2454 596 L 2469 612 Q 2469 616 2466 620 L 2460 629 Q 2447 642 2423 647 Q 2399 651 2391 647 L 2390 620 L 2385 600 Q 2383 587 2376 563 L 2364 528 L 2354 504 Q 2352 496 2341 475 Q 2342 469 2338 465 C 2325 438 2348 448 2365 472 Z" fill="lightgray"></path> 
<path d="M 2312 459 L 2294 468 Q 2257 482 2248 473 Q 2244 461 2249 454 Q 2255 446 2257 433 L 2260 415 Q 2262 411 2262 384 L 2262 328 L 2258 210 L 2255 160 L 2254 135 L 2251 113 Q 2247 88 2238 52 Q 2226 12 2219 -3 L 2192 -60 Q 2187 -70 2173 -88 L 2149 -118 Q 2133 -143 2154 -132 L 2172 -121 Q 2181 -117 2206 -92 Q 2251 -47 2273 14 Q 2295 74 2300 132 L 2304 172 L 2307 217 L 2311 344 Q 2310 393 2319 414 L 2324 428 C 2332 449 2332 449 2312 459 Z" fill="lightgray"></path> 
<path d="M 2438 -4 L 2437 -30 Q 2438 -34 2434 -66 Q 2431 -79 2424 -82 Q 2418 -85 2399 -79 L 2370 -68 Q 2359 -65 2354 -68 Q 2350 -72 2362 -82 L 2389 -115 Q 2413 -143 2420 -154 Q 2427 -166 2430 -170 Q 2434 -174 2439 -174 Q 2445 -174 2455 -167 Q 2465 -161 2476 -140 Q 2497 -105 2497 -40 L 2494 218 L 2494 246 L 2500 391 Q 2500 410 2508 430 Q 2517 449 2517 453 Q 2518 456 2507 465 Q 2486 487 2473 492 L 2451 500 L 2448 500 L 2432 493 Q 2426 489 2412 485 Q 2398 480 2395 480 L 2365 472 L 2338 465 L 2312 459 C 2283 452 2295 421 2324 428 L 2397 446 Q 2408 450 2420 450 Q 2429 452 2435 447 Q 2440 443 2442 424 L 2444 395 L 2444 238 L 2444 206 L 2439 -3 L 2438 -4 Z" fill="lightgray"></path> 
<path d="M 2379 342 L 2342 358 Q 2332 361 2331 357 Q 2330 352 2334 346 L 2339 334 Q 2339 332 2345 319 Q 2351 305 2356 298 L 2364 284 Q 2367 277 2376 268 Q 2386 258 2392 258 Q 2398 258 2405 266 Q 2412 273 2413 294 Q 2415 315 2405 325 Q 2396 335 2379 342 Z" fill="lightgray"></path> 
<path d="M 2399 98 Q 2381 116 2371 120 L 2340 132 Q 2327 134 2325 130 Q 2324 126 2324 123 Q 2324 120 2333 102 L 2341 84 L 2352 64 Q 2365 40 2367 38 Q 2379 23 2389 24 Q 2400 25 2406 35 Q 2420 68 2399 98 Z" fill="lightgray"></path> 
<path d="M 2494 218 L 2540 230 Q 2562 236 2558 245 Q 2551 257 2536 252 L 2494 246 L 2444 238 L 2307 217 L 2258 210 L 2234 206 Q 2231 202 2190 202 Q 2174 199 2151 204 L 2124 210 Q 2099 204 2148 157 Q 2171 135 2179 136 Q 2187 136 2203 141 L 2214 145 Q 2251 158 2255 160 L 2304 172 L 2444 206 L 2494 218 Z" fill="lightgray"></path> 
<path d="M 2668 366 L 2670 379 Q 2670 405 2674 432 L 2687 486 Q 2684 497 2656 506 L 2632 512 Q 2618 513 2612 510 Q 2607 507 2607 504 Q 2605 502 2611 493 Q 2617 484 2621 465 Q 2625 446 2625 439 L 2623 384 Q 2617 311 2590 246 Q 2577 215 2564 202 L 2553 190 Q 2545 183 2549 178 Q 2553 173 2561 179 L 2578 188 Q 2590 198 2599 208 Q 2618 230 2629 247 Q 2640 263 2654 304 Q 2668 345 2668 366 Z" fill="lightgray"></path> 
<path d="M 2797 475 L 2790 333 Q 2788 295 2790 276 Q 2792 257 2803 244 Q 2817 230 2830 224 Q 2843 218 2885 214 Q 2940 214 2968 221 Q 2996 227 2999 234 Q 3003 240 3000 251 Q 2997 262 2978 273 Q 2959 284 2951 283 Q 2944 281 2931 275 Q 2918 269 2897 268 Q 2876 266 2866 268 Q 2837 271 2840 310 L 2843 356 Q 2843 385 2854 463 L 2862 485 Q 2870 503 2868 508 Q 2866 515 2852 525 Q 2838 535 2817 538 Q 2797 541 2792 538 Q 2788 535 2788 531 Q 2788 526 2791 520 Q 2794 514 2796 497 L 2797 475 Z" fill="lightgray"></path> 
<path d="M 2592 120 Q 2577 120 2578 116 Q 2577 112 2589 93 Q 2602 74 2605 39 L 2620 -102 Q 2622 -119 2630 -131 Q 2638 -144 2646 -142 Q 2654 -140 2656 -131 Q 2661 -123 2662 -114 L 2660 -78 L 2654 80 C 2653 109 2653 109 2635 113 L 2611 118 Q 2598 118 2592 120 Z" fill="lightgray"></path> 
<path d="M 2881 -63 L 2920 42 Q 2924 54 2933 68 L 2948 90 Q 2955 102 2940 113 L 2908 140 Q 2888 150 2884 153 Q 2880 156 2870 156 L 2857 154 L 2840 148 L 2635 113 C 2605 108 2625 72 2654 80 L 2689 90 Q 2719 96 2734 98 L 2829 110 Q 2842 110 2846 106 Q 2851 101 2851 90 Q 2851 78 2849 48 L 2838 -54 C 2835 -84 2871 -91 2881 -63 Z" fill="lightgray"></path> 
<path d="M 2662 -114 L 2698 -113 L 2849 -98 Q 2884 -96 2887 -97 Q 2891 -98 2901 -95 Q 2912 -92 2897 -77 L 2881 -63 C 2866 -50 2866 -50 2838 -54 L 2660 -78 C 2630 -82 2632 -115 2662 -114 Z" fill="lightgray"></path> 
<path d="M 3615 577 L 3620 588 L 3622 602 Q 3627 646 3585 667 L 3559 677 L 3521 687 Q 3504 690 3499 686 Q 3495 682 3504 668 L 3527 635 Q 3530 629 3546 608 Q 3562 587 3566 583 L 3576 572 C 3596 550 3603 550 3615 577 Z" fill="lightgray"></path> 
<path d="M 3705 543 L 3737 545 L 3834 546 Q 3860 547 3875 553 Q 3899 566 3878 579 Q 3868 588 3847 598 Q 3826 608 3814 608 Q 3802 608 3781 602 Q 3760 595 3743 594 L 3642 579 L 3615 577 L 3576 572 L 3378 547 L 3259 537 Q 3253 536 3251 533 Q 3250 530 3254 522 Q 3258 513 3274 505 Q 3290 497 3290 496 L 3308 490 Q 3321 486 3327 486 L 3355 497 L 3378 503 L 3419 511 Q 3513 526 3594 535 Q 3676 543 3705 543 Z" fill="lightgray"></path> 
<path d="M 3458 307 L 3458 305 L 3467 291 Q 3474 284 3475 282 Q 3480 280 3481 281 Q 3486 281 3488 286 Q 3491 290 3496 307 L 3494 336 L 3489 416 C 3487 441 3487 441 3467 446 L 3429 455 Q 3426 456 3418 454 Q 3411 452 3409 447 Q 3408 442 3413 439 Q 3418 436 3419 434 Q 3437 418 3441 396 L 3450 344 L 3453 335 Q 3454 329 3454 322 Q 3454 314 3458 307 Z" fill="lightgray"></path> 
<path d="M 3675 338 L 3706 390 Q 3712 401 3726 411 Q 3741 420 3739 426 Q 3737 432 3710 454 Q 3683 476 3662 476 Q 3654 477 3630 471 L 3620 468 L 3467 446 C 3437 442 3461 407 3489 416 L 3504 421 Q 3576 438 3616 438 L 3635 436 Q 3645 435 3647 430 Q 3650 418 3643 392 L 3630 344 C 3622 315 3660 312 3675 338 Z" fill="lightgray"></path> 
<path d="M 3496 307 L 3513 305 Q 3531 304 3568 308 Q 3606 312 3645 310 L 3670 310 Q 3687 310 3695 312 Q 3704 319 3692 326 L 3675 338 C 3664 345 3660 345 3630 344 L 3584 342 Q 3558 338 3543 338 Q 3535 337 3520 337 L 3494 336 C 3464 335 3466 311 3496 307 Z" fill="lightgray"></path> 
<path d="M 3289 210 L 3256 222 Q 3234 231 3220 220 Q 3216 208 3226 194 Q 3237 179 3239 170 Q 3243 162 3246 144 L 3255 99 L 3261 4 Q 3262 -1 3260 -39 L 3256 -98 Q 3256 -112 3270 -133 Q 3285 -154 3291 -154 Q 3298 -155 3305 -142 Q 3321 -110 3321 -88 L 3305 172 C 3303 202 3303 205 3289 210 Z" fill="lightgray"></path> 
<path d="M 3783 -86 L 3747 -74 Q 3736 -69 3735 -70 L 3712 -61 Q 3706 -58 3701 -60 Q 3697 -63 3702 -68 L 3739 -112 L 3759 -140 Q 3764 -147 3773 -167 Q 3783 -187 3789 -190 Q 3796 -193 3816 -185 Q 3836 -177 3850 -162 Q 3865 -147 3879 -119 Q 3894 -91 3897 -70 Q 3901 -49 3907 -3 L 3915 101 Q 3915 106 3916 109 L 3918 123 Q 3925 163 3931 176 L 3943 197 Q 3943 200 3946 206 Q 3946 219 3905 243 Q 3865 267 3859 268 Q 3853 269 3841 266 Q 3829 263 3796 258 L 3739 252 Q 3656 245 3557 234 L 3289 210 C 3259 207 3275 167 3305 172 L 3353 180 Q 3403 187 3412 187 L 3534 199 L 3798 216 Q 3836 217 3843 210 Q 3851 203 3854 192 Q 3858 181 3857 137 L 3856 78 Q 3854 41 3847 4 Q 3831 -81 3810 -88 Q 3800 -92 3783 -86 Z" fill="lightgray"></path> 
<path d="M 3491 -35 L 3499 -16 C 3500 -14 3498 -18 3496 12 L 3490 92 C 3488 119 3488 119 3470 123 L 3434 131 Q 3432 132 3425 131 Q 3418 129 3416 125 Q 3414 120 3418 116 L 3429 108 Q 3432 106 3438 94 L 3445 73 L 3459 -6 Q 3467 -42 3482 -42 Q 3487 -42 3491 -35 Z" fill="lightgray"></path> 
<path d="M 3664 15 L 3695 67 Q 3699 77 3710 86 Q 3721 92 3723 94 Q 3725 101 3723 106 Q 3722 110 3708 122 Q 3668 160 3635 149 L 3603 142 L 3470 123 C 3440 119 3462 82 3490 92 L 3504 97 Q 3508 101 3571 110 Q 3634 119 3639 106 Q 3642 97 3635 68 L 3622 20 C 3614 -9 3649 -11 3664 15 Z" fill="lightgray"></path> 
<path d="M 3499 -16 L 3513 -18 Q 3524 -20 3555 -16 Q 3586 -13 3637 -13 L 3661 -13 Q 3679 -13 3685 -11 L 3687 -5 Q 3687 -2 3681 4 L 3664 15 L 3622 20 L 3609 21 L 3608 20 L 3583 19 L 3524 13 Q 3504 14 3496 12 C 3466 7 3469 -12 3499 -16 Z" fill="lightgray"></path> 
      <clipPath id="make-me-a-hanzi-clip-0">
      <path d="M 513 298 L 523 458 Q 525 496 528 517 L 533 534 Q 533 548 543 570 Q 554 592 552 597 Q 551 602 544 613 Q 537 623 520 630 L 486 644 Q 452 658 445 653 Q 441 652 437 646 Q 435 639 438 632 L 444 612 Q 448 591 451 564 Q 452 531 454 517 L 456 469 Q 457 454 457 410 L 451 82 Q 452 65 450 13 L 447 -31 Q 446 -46 440 -52 Q 426 -64 411 -61 Q 397 -59 362 -51 L 332 -45 Q 322 -42 319 -47 Q 317 -52 325 -58 L 356 -82 Q 377 -99 381 -104 Q 386 -109 417 -146 Q 449 -184 460 -184 Q 470 -185 488 -162 L 503 -132 Q 516 -107 518 -64 L 514 39 L 512 251 L 513 298 Z" fill="lightgray"></path>
      </clipPath>
      <path clip-path="url(#make-me-a-hanzi-clip-0)" d="M 449 640 L 497 587 L 484 307 L 480 -58 L 473 -82 L 455 -107 L 326 -50 " fill="none" id="make-me-a-hanzi-animation-0" stroke-dasharray="1042 2084" stroke-linecap="round"></path>

      <clipPath id="make-me-a-hanzi-clip-1">
      <path d="M 59 -25 L 81 -18 Q 102 -12 136 6 Q 171 24 195 45 Q 220 66 259 111 Q 298 156 339 226 L 369 277 L 383 294 L 405 317 Q 413 324 415 329 Q 415 336 411 341 Q 407 346 392 361 Q 378 375 367 382 L 357 387 Q 355 387 353 389 L 351 390 Q 346 390 318 379 Q 290 368 261 364 Q 226 355 188 350 L 157 346 Q 152 344 140 344 L 114 342 Q 96 341 92 335 Q 89 328 109 316 Q 132 298 149 298 Q 167 298 188 304 L 281 328 Q 291 332 303 333 Q 315 334 316 331 Q 318 328 314 313 Q 311 298 296 270 Q 281 242 246 190 Q 212 137 191 115 Q 171 92 145 66 L 101 28 Q 74 2 71 1 L 53 -12 Q 41 -21 44 -25 Q 45 -29 59 -25 Z" fill="lightgray"></path>
      </clipPath>
      <path clip-path="url(#make-me-a-hanzi-clip-1)" d="M 99 333 L 154 321 L 319 355 L 349 349 L 360 332 L 310 233 L 221 108 L 155 44 L 52 -21 " fill="none" id="make-me-a-hanzi-animation-1" stroke-dasharray="882 1764" stroke-linecap="round"></path>

      <clipPath id="make-me-a-hanzi-clip-2">
      <path d="M 688 506 L 682 480 Q 677 456 617 390 L 577 348 L 520 292 C 499 271 502 270 528 284 L 636 343 Q 648 350 682 374 L 736 414 Q 763 433 779 439 Q 796 445 797 449 L 799 456 Q 799 470 768 489 Q 737 507 719 510 Q 702 512 700 514 L 698 514 Q 688 508 688 506 Z" fill="lightgray"></path>
      </clipPath>
      <path clip-path="url(#make-me-a-hanzi-clip-2)" d="M 786 456 L 762 462 L 724 461 L 635 372 L 530 294 " fill="none" id="make-me-a-hanzi-animation-2" stroke-dasharray="447 894" stroke-linecap="round"></path>

      <clipPath id="make-me-a-hanzi-clip-3">
      <path d="M 520 292 L 513 298 C 491 318 493 274 512 251 L 604 137 Q 640 92 650 82 L 696 32 Q 726 -2 742 -11 Q 758 -20 787 -22 L 897 -16 L 933 -9 L 965 -1 Q 977 4 977 8 Q 977 13 966 17 L 939 28 L 879 48 L 825 72 Q 772 97 711 130 Q 632 180 528 284 L 520 292 Z" fill="lightgray"></path>
      </clipPath>
      <path clip-path="url(#make-me-a-hanzi-clip-3)" d="M 520 284 L 530 256 L 634 147 L 763 41 L 792 30 L 876 15 L 968 8 " fill="none" id="make-me-a-hanzi-animation-3" stroke-dasharray="684 1368" stroke-linecap="round"></path>

      <clipPath id="make-me-a-hanzi-clip-4">
      <path d="M 1195 572 Q 1176 572 1176 568 Q 1176 563 1209 509 Q 1248 449 1276 449 Q 1299 449 1299 476 Q 1299 497 1291 517 Q 1278 547 1247 560 Q 1224 571 1195 572 Z" fill="lightgray"></path>
      </clipPath>
      <path clip-path="url(#make-me-a-hanzi-clip-4)" d="M 1180 567 L 1239 527 L 1278 469 " fill="none" id="make-me-a-hanzi-animation-4" stroke-dasharray="269 538" stroke-linecap="round"></path>

      <clipPath id="make-me-a-hanzi-clip-5">
      <path d="M 1104 360 Q 1083 360 1083 356 Q 1083 351 1119 300 Q 1162 245 1192 245 Q 1215 245 1215 276 Q 1215 295 1206 312 Q 1192 338 1159 349 Q 1135 359 1104 360 Z" fill="lightgray"></path>
      </clipPath>
      <path clip-path="url(#make-me-a-hanzi-clip-5)" d="M 1087 355 L 1161 308 L 1194 265 " fill="none" id="make-me-a-hanzi-animation-5" stroke-dasharray="270 540" stroke-linecap="round"></path>

      <clipPath id="make-me-a-hanzi-clip-6">
      <path d="M 1268 184 Q 1266 184 1201 65 Q 1170 5 1140 -11 Q 1119 -18 1119 -32 Q 1119 -56 1142 -96 Q 1164 -135 1180 -135 Q 1194 -135 1199 -112 Q 1203 -82 1241 42 Q 1276 161 1276 176 Q 1276 184 1268 184 Z" fill="lightgray"></path>
      </clipPath>
      <path clip-path="url(#make-me-a-hanzi-clip-6)" d="M 1180 -120 L 1168 -47 L 1205 15 L 1272 180 " fill="none" id="make-me-a-hanzi-animation-6" stroke-dasharray="452 904" stroke-linecap="round"></path>

      <clipPath id="make-me-a-hanzi-clip-7">
      <path d="M 1492 593 Q 1488 593 1478 585 Q 1462 573 1414 556 Q 1369 539 1352 537 Q 1323 537 1323 524 Q 1323 517 1339 510 Q 1364 501 1379 501 Q 1385 501 1416 517 Q 1447 532 1459 532 Q 1480 532 1480 509 Q 1470 425 1463 404 L 1461 396 C 1453 367 1492 363 1501 392 Q 1532 494 1555 516 Q 1568 525 1568 537 Q 1568 554 1539 574 Q 1511 593 1492 593 Z" fill="lightgray"></path>
      </clipPath>
      <path clip-path="url(#make-me-a-hanzi-clip-7)" d="M 1332 525 L 1365 520 L 1462 553 L 1503 552 L 1516 537 L 1513 514 L 1487 414 L 1468 399 " fill="none" id="make-me-a-hanzi-animation-7" stroke-dasharray="475 950" stroke-linecap="round"></path>

      <clipPath id="make-me-a-hanzi-clip-8">
      <path d="M 1461 396 Q 1458 396 1448 390 Q 1426 378 1374 367 C 1345 361 1353 338 1383 334 Q 1390 333 1396 333 Q 1401 333 1409 336 Q 1422 340 1463 352 Q 1483 355 1504 365 Q 1514 370 1516 381 Q 1514 388 1501 392 L 1461 396 Z" fill="lightgray"></path>
      </clipPath>
      <path clip-path="url(#make-me-a-hanzi-clip-8)" d="M 1385 364 L 1398 352 L 1463 374 L 1507 379 " fill="none" id="make-me-a-hanzi-animation-8" stroke-dasharray="259 518" stroke-linecap="round"></path>

      <clipPath id="make-me-a-hanzi-clip-9">
      <path d="M 1374 367 Q 1371 371 1365 374 Q 1348 381 1335 381 Q 1323 381 1323 369 Q 1323 357 1331 345 Q 1343 327 1343 293 Q 1343 253 1315 208 Q 1299 185 1299 169 Q 1299 140 1316 140 Q 1322 140 1343 156 Q 1398 193 1440 193 Q 1459 193 1459 169 Q 1459 114 1449 25 Q 1421 -68 1392 -68 Q 1379 -68 1320 -32 L 1316 -36 Q 1347 -86 1376 -150 Q 1384 -164 1392 -164 Q 1423 -164 1460 -109 Q 1494 -57 1504 91 Q 1509 173 1524 193 Q 1532 199 1532 205 Q 1532 215 1508 232 Q 1487 245 1476 245 Q 1464 245 1447 236 Q 1434 228 1388 216 Q 1379 216 1379 220 Q 1383 250 1383 334 C 1383 362 1383 362 1374 367 Z" fill="lightgray"></path>
      </clipPath>
      <path clip-path="url(#make-me-a-hanzi-clip-9)" d="M 1334 371 L 1354 351 L 1363 324 L 1361 258 L 1350 200 L 1389 198 L 1422 209 L 1466 214 L 1487 202 L 1487 178 L 1474 22 L 1452 -53 L 1432 -87 L 1405 -110 L 1332 -50 L 1329 -38 L 1323 -39 " fill="none" id="make-me-a-hanzi-animation-9" stroke-dasharray="899 1798" stroke-linecap="round"></path>

      <clipPath id="make-me-a-hanzi-clip-10">
      <path d="M 1666 352 L 1667 352 Q 1734 387 1786 449 Q 1825 498 1857 534 Q 1872 545 1872 553 Q 1872 565 1835 584 Q 1811 597 1799 597 Q 1794 597 1791 592 Q 1788 587 1788 581 Q 1788 557 1763 510 Q 1730 446 1687 396 Q 1674 383 1666 373 C 1647 350 1639 339 1666 352 Z" fill="lightgray"></path>
      </clipPath>
      <path clip-path="url(#make-me-a-hanzi-clip-10)" d="M 1861 553 L 1821 549 L 1754 446 L 1667 357 " fill="none" id="make-me-a-hanzi-animation-10" stroke-dasharray="416 832" stroke-linecap="round"></path>

      <clipPath id="make-me-a-hanzi-clip-11">
      <path d="M 1792 260 L 1833 259 Q 1881 256 1904 256 Q 1934 257 1935 272 Q 1932 289 1905 305 Q 1877 321 1855 321 Q 1847 321 1834 318 Q 1812 314 1789 312 Q 1762 309 1665 293 L 1629 287 L 1628 287 Q 1559 273 1520 268 Q 1507 266 1507 260 Q 1508 256 1531 241 Q 1549 228 1564 228 Q 1569 228 1586 234 Q 1607 240 1629 244 L 1665 250 Q 1677 251 1691 253 L 1694 253 L 1723 256 Q 1759 260 1792 260 Z" fill="lightgray"></path>
      </clipPath>
      <path clip-path="url(#make-me-a-hanzi-clip-11)" d="M 1515 261 L 1562 251 L 1680 275 L 1831 289 L 1865 289 L 1922 273 " fill="none" id="make-me-a-hanzi-animation-11" stroke-dasharray="541 1082" stroke-linecap="round"></path>

      <clipPath id="make-me-a-hanzi-clip-12">
      <path d="M 1665 293 Q 1665 324 1666 352 L 1666 373 Q 1669 502 1677 555 Q 1683 582 1683 589 Q 1683 606 1656 622 Q 1621 640 1595 640 Q 1579 640 1579 625 Q 1579 613 1593 593 Q 1610 566 1615 530 Q 1629 449 1629 287 L 1629 244 Q 1628 103 1618 25 Q 1610 -39 1580 -83 Q 1568 -106 1568 -120 Q 1568 -137 1580 -154 Q 1594 -171 1608 -171 Q 1616 -171 1623 -154 Q 1640 -120 1723 -20 Q 1736 -6 1736 0 Q 1736 4 1732 4 Q 1729 4 1658 -49 Q 1664 72 1665 250 L 1665 293 Z" fill="lightgray"></path>
      </clipPath>
      <path clip-path="url(#make-me-a-hanzi-clip-12)" d="M 1593 626 L 1633 595 L 1644 570 L 1647 152 L 1631 -41 L 1671 -43 L 1676 -52 L 1664 -67 L 1629 -75 L 1602 -122 L 1606 -158 " fill="none" id="make-me-a-hanzi-animation-12" stroke-dasharray="1013 2026" stroke-linecap="round"></path>

      <clipPath id="make-me-a-hanzi-clip-13">
      <path d="M 1694 253 Q 1696 249 1702 238 Q 1712 214 1748 110 Q 1794 -28 1812 -58 Q 1826 -87 1851 -87 Q 1925 -87 1973 -78 Q 2015 -73 2015 -63 Q 2015 -58 1970 -41 Q 1901 -11 1862 25 Q 1824 61 1777 161 Q 1740 233 1723 256 C 1706 281 1680 279 1694 253 Z" fill="lightgray"></path>
      </clipPath>
      <path clip-path="url(#make-me-a-hanzi-clip-13)" d="M 1701 253 L 1716 240 L 1731 212 L 1810 33 L 1853 -31 L 1923 -54 L 2010 -64 " fill="none" id="make-me-a-hanzi-animation-13" stroke-dasharray="614 1228" stroke-linecap="round"></path>

      <clipPath id="make-me-a-hanzi-clip-14">
      <path d="M 2365 472 L 2454 596 L 2469 612 Q 2469 616 2466 620 L 2460 629 Q 2447 642 2423 647 Q 2399 651 2391 647 L 2390 620 L 2385 600 Q 2383 587 2376 563 L 2364 528 L 2354 504 Q 2352 496 2341 475 Q 2342 469 2338 465 C 2325 438 2348 448 2365 472 Z" fill="lightgray"></path>
      </clipPath>
      <path clip-path="url(#make-me-a-hanzi-clip-14)" d="M 2397 640 L 2423 612 L 2368 498 L 2344 469 " fill="none" id="make-me-a-hanzi-animation-14" stroke-dasharray="330 660" stroke-linecap="round"></path>

      <clipPath id="make-me-a-hanzi-clip-15">
      <path d="M 2312 459 L 2294 468 Q 2257 482 2248 473 Q 2244 461 2249 454 Q 2255 446 2257 433 L 2260 415 Q 2262 411 2262 384 L 2262 328 L 2258 210 L 2255 160 L 2254 135 L 2251 113 Q 2247 88 2238 52 Q 2226 12 2219 -3 L 2192 -60 Q 2187 -70 2173 -88 L 2149 -118 Q 2133 -143 2154 -132 L 2172 -121 Q 2181 -117 2206 -92 Q 2251 -47 2273 14 Q 2295 74 2300 132 L 2304 172 L 2307 217 L 2311 344 Q 2310 393 2319 414 L 2324 428 C 2332 449 2332 449 2312 459 Z" fill="lightgray"></path>
      </clipPath>
      <path clip-path="url(#make-me-a-hanzi-clip-15)" d="M 2256 466 L 2277 451 L 2290 425 L 2284 226 L 2273 99 L 2239 -13 L 2201 -77 L 2155 -124 " fill="none" id="make-me-a-hanzi-animation-15" stroke-dasharray="767 1534" stroke-linecap="round"></path>

      <clipPath id="make-me-a-hanzi-clip-16">
      <path d="M 2438 -4 L 2437 -30 Q 2438 -34 2434 -66 Q 2431 -79 2424 -82 Q 2418 -85 2399 -79 L 2370 -68 Q 2359 -65 2354 -68 Q 2350 -72 2362 -82 L 2389 -115 Q 2413 -143 2420 -154 Q 2427 -166 2430 -170 Q 2434 -174 2439 -174 Q 2445 -174 2455 -167 Q 2465 -161 2476 -140 Q 2497 -105 2497 -40 L 2494 218 L 2494 246 L 2500 391 Q 2500 410 2508 430 Q 2517 449 2517 453 Q 2518 456 2507 465 Q 2486 487 2473 492 L 2451 500 L 2448 500 L 2432 493 Q 2426 489 2412 485 Q 2398 480 2395 480 L 2365 472 L 2338 465 L 2312 459 C 2283 452 2295 421 2324 428 L 2397 446 Q 2408 450 2420 450 Q 2429 452 2435 447 Q 2440 443 2442 424 L 2444 395 L 2444 238 L 2444 206 L 2439 -3 L 2438 -4 Z" fill="lightgray"></path>
      </clipPath>
      <path clip-path="url(#make-me-a-hanzi-clip-16)" d="M 2320 456 L 2342 448 L 2446 471 L 2458 467 L 2475 446 L 2464 -78 L 2443 -117 L 2412 -107 L 2358 -71 " fill="none" id="make-me-a-hanzi-animation-16" stroke-dasharray="963 1926" stroke-linecap="round"></path>

      <clipPath id="make-me-a-hanzi-clip-17">
      <path d="M 2379 342 L 2342 358 Q 2332 361 2331 357 Q 2330 352 2334 346 L 2339 334 Q 2339 332 2345 319 Q 2351 305 2356 298 L 2364 284 Q 2367 277 2376 268 Q 2386 258 2392 258 Q 2398 258 2405 266 Q 2412 273 2413 294 Q 2415 315 2405 325 Q 2396 335 2379 342 Z" fill="lightgray"></path>
      </clipPath>
      <path clip-path="url(#make-me-a-hanzi-clip-17)" d="M 2337 353 L 2385 305 L 2393 271 " fill="none" id="make-me-a-hanzi-animation-17" stroke-dasharray="231 462" stroke-linecap="round"></path>

      <clipPath id="make-me-a-hanzi-clip-18">
      <path d="M 2399 98 Q 2381 116 2371 120 L 2340 132 Q 2327 134 2325 130 Q 2324 126 2324 123 Q 2324 120 2333 102 L 2341 84 L 2352 64 Q 2365 40 2367 38 Q 2379 23 2389 24 Q 2400 25 2406 35 Q 2420 68 2399 98 Z" fill="lightgray"></path>
      </clipPath>
      <path clip-path="url(#make-me-a-hanzi-clip-18)" d="M 2333 125 L 2378 77 L 2388 42 " fill="none" id="make-me-a-hanzi-animation-18" stroke-dasharray="230 460" stroke-linecap="round"></path>

      <clipPath id="make-me-a-hanzi-clip-19">
      <path d="M 2494 218 L 2540 230 Q 2562 236 2558 245 Q 2551 257 2536 252 L 2494 246 L 2444 238 L 2307 217 L 2258 210 L 2234 206 Q 2231 202 2190 202 Q 2174 199 2151 204 L 2124 210 Q 2099 204 2148 157 Q 2171 135 2179 136 Q 2187 136 2203 141 L 2214 145 Q 2251 158 2255 160 L 2304 172 L 2444 206 L 2494 218 Z" fill="lightgray"></path>
      </clipPath>
      <path clip-path="url(#make-me-a-hanzi-clip-19)" d="M 2125 200 L 2152 180 L 2183 169 L 2549 243 " fill="none" id="make-me-a-hanzi-animation-19" stroke-dasharray="568 1136" stroke-linecap="round"></path>

      <clipPath id="make-me-a-hanzi-clip-20">
      <path d="M 2668 366 L 2670 379 Q 2670 405 2674 432 L 2687 486 Q 2684 497 2656 506 L 2632 512 Q 2618 513 2612 510 Q 2607 507 2607 504 Q 2605 502 2611 493 Q 2617 484 2621 465 Q 2625 446 2625 439 L 2623 384 Q 2617 311 2590 246 Q 2577 215 2564 202 L 2553 190 Q 2545 183 2549 178 Q 2553 173 2561 179 L 2578 188 Q 2590 198 2599 208 Q 2618 230 2629 247 Q 2640 263 2654 304 Q 2668 345 2668 366 Z" fill="lightgray"></path>
      </clipPath>
      <path clip-path="url(#make-me-a-hanzi-clip-20)" d="M 2616 501 L 2652 473 L 2641 337 L 2607 243 L 2575 199 L 2555 183 " fill="none" id="make-me-a-hanzi-animation-20" stroke-dasharray="490 980" stroke-linecap="round"></path>

      <clipPath id="make-me-a-hanzi-clip-21">
      <path d="M 2797 475 L 2790 333 Q 2788 295 2790 276 Q 2792 257 2803 244 Q 2817 230 2830 224 Q 2843 218 2885 214 Q 2940 214 2968 221 Q 2996 227 2999 234 Q 3003 240 3000 251 Q 2997 262 2978 273 Q 2959 284 2951 283 Q 2944 281 2931 275 Q 2918 269 2897 268 Q 2876 266 2866 268 Q 2837 271 2840 310 L 2843 356 Q 2843 385 2854 463 L 2862 485 Q 2870 503 2868 508 Q 2866 515 2852 525 Q 2838 535 2817 538 Q 2797 541 2792 538 Q 2788 535 2788 531 Q 2788 526 2791 520 Q 2794 514 2796 497 L 2797 475 Z" fill="lightgray"></path>
      </clipPath>
      <path clip-path="url(#make-me-a-hanzi-clip-21)" d="M 2798 530 L 2830 498 L 2814 307 L 2822 264 L 2838 249 L 2862 242 L 2910 241 L 2957 250 L 2987 242 " fill="none" id="make-me-a-hanzi-animation-21" stroke-dasharray="583 1166" stroke-linecap="round"></path>

      <clipPath id="make-me-a-hanzi-clip-22">
      <path d="M 2592 120 Q 2577 120 2578 116 Q 2577 112 2589 93 Q 2602 74 2605 39 L 2620 -102 Q 2622 -119 2630 -131 Q 2638 -144 2646 -142 Q 2654 -140 2656 -131 Q 2661 -123 2662 -114 L 2660 -78 L 2654 80 C 2653 109 2653 109 2635 113 L 2611 118 Q 2598 118 2592 120 Z" fill="lightgray"></path>
      </clipPath>
      <path clip-path="url(#make-me-a-hanzi-clip-22)" d="M 2586 114 L 2619 91 L 2627 69 L 2644 -130 " fill="none" id="make-me-a-hanzi-animation-22" stroke-dasharray="391 782" stroke-linecap="round"></path>

      <clipPath id="make-me-a-hanzi-clip-23">
      <path d="M 2881 -63 L 2920 42 Q 2924 54 2933 68 L 2948 90 Q 2955 102 2940 113 L 2908 140 Q 2888 150 2884 153 Q 2880 156 2870 156 L 2857 154 L 2840 148 L 2635 113 C 2605 108 2625 72 2654 80 L 2689 90 Q 2719 96 2734 98 L 2829 110 Q 2842 110 2846 106 Q 2851 101 2851 90 Q 2851 78 2849 48 L 2838 -54 C 2835 -84 2871 -91 2881 -63 Z" fill="lightgray"></path>
      </clipPath>
      <path clip-path="url(#make-me-a-hanzi-clip-23)" d="M 2644 111 L 2667 101 L 2836 129 L 2872 124 L 2896 93 L 2864 -35 L 2847 -48 " fill="none" id="make-me-a-hanzi-animation-23" stroke-dasharray="553 1106" stroke-linecap="round"></path>

      <clipPath id="make-me-a-hanzi-clip-24">
      <path d="M 2662 -114 L 2698 -113 L 2849 -98 Q 2884 -96 2887 -97 Q 2891 -98 2901 -95 Q 2912 -92 2897 -77 L 2881 -63 C 2866 -50 2866 -50 2838 -54 L 2660 -78 C 2630 -82 2632 -115 2662 -114 Z" fill="lightgray"></path>
      </clipPath>
      <path clip-path="url(#make-me-a-hanzi-clip-24)" d="M 2668 -108 L 2685 -93 L 2819 -78 L 2870 -78 L 2896 -87 " fill="none" id="make-me-a-hanzi-animation-24" stroke-dasharray="364 728" stroke-linecap="round"></path>

      <clipPath id="make-me-a-hanzi-clip-25">
      <path d="M 3615 577 L 3620 588 L 3622 602 Q 3627 646 3585 667 L 3559 677 L 3521 687 Q 3504 690 3499 686 Q 3495 682 3504 668 L 3527 635 Q 3530 629 3546 608 Q 3562 587 3566 583 L 3576 572 C 3596 550 3603 550 3615 577 Z" fill="lightgray"></path>
      </clipPath>
      <path clip-path="url(#make-me-a-hanzi-clip-25)" d="M 3504 682 L 3574 632 L 3607 587 " fill="none" id="make-me-a-hanzi-animation-25" stroke-dasharray="270 540" stroke-linecap="round"></path>

      <clipPath id="make-me-a-hanzi-clip-26">
      <path d="M 3705 543 L 3737 545 L 3834 546 Q 3860 547 3875 553 Q 3899 566 3878 579 Q 3868 588 3847 598 Q 3826 608 3814 608 Q 3802 608 3781 602 Q 3760 595 3743 594 L 3642 579 L 3615 577 L 3576 572 L 3378 547 L 3259 537 Q 3253 536 3251 533 Q 3250 530 3254 522 Q 3258 513 3274 505 Q 3290 497 3290 496 L 3308 490 Q 3321 486 3327 486 L 3355 497 L 3378 503 L 3419 511 Q 3513 526 3594 535 Q 3676 543 3705 543 Z" fill="lightgray"></path>
      </clipPath>
      <path clip-path="url(#make-me-a-hanzi-clip-26)" d="M 3258 529 L 3321 515 L 3540 549 L 3805 577 L 3875 566 " fill="none" id="make-me-a-hanzi-animation-26" stroke-dasharray="751 1502" stroke-linecap="round"></path>

      <clipPath id="make-me-a-hanzi-clip-27">
      <path d="M 3458 307 L 3458 305 L 3467 291 Q 3474 284 3475 282 Q 3480 280 3481 281 Q 3486 281 3488 286 Q 3491 290 3496 307 L 3494 336 L 3489 416 C 3487 441 3487 441 3467 446 L 3429 455 Q 3426 456 3418 454 Q 3411 452 3409 447 Q 3408 442 3413 439 Q 3418 436 3419 434 Q 3437 418 3441 396 L 3450 344 L 3453 335 Q 3454 329 3454 322 Q 3454 314 3458 307 Z" fill="lightgray"></path>
      </clipPath>
      <path clip-path="url(#make-me-a-hanzi-clip-27)" d="M 3417 446 L 3454 426 L 3464 407 L 3480 291 " fill="none" id="make-me-a-hanzi-animation-27" stroke-dasharray="309 618" stroke-linecap="round"></path>

      <clipPath id="make-me-a-hanzi-clip-28">
      <path d="M 3675 338 L 3706 390 Q 3712 401 3726 411 Q 3741 420 3739 426 Q 3737 432 3710 454 Q 3683 476 3662 476 Q 3654 477 3630 471 L 3620 468 L 3467 446 C 3437 442 3461 407 3489 416 L 3504 421 Q 3576 438 3616 438 L 3635 436 Q 3645 435 3647 430 Q 3650 418 3643 392 L 3630 344 C 3622 315 3660 312 3675 338 Z" fill="lightgray"></path>
      </clipPath>
      <path clip-path="url(#make-me-a-hanzi-clip-28)" d="M 3475 444 L 3495 435 L 3641 455 L 3670 447 L 3684 429 L 3683 416 L 3662 365 L 3638 348 " fill="none" id="make-me-a-hanzi-animation-28" stroke-dasharray="448 896" stroke-linecap="round"></path>

      <clipPath id="make-me-a-hanzi-clip-29">
      <path d="M 3496 307 L 3513 305 Q 3531 304 3568 308 Q 3606 312 3645 310 L 3670 310 Q 3687 310 3695 312 Q 3704 319 3692 326 L 3675 338 C 3664 345 3660 345 3630 344 L 3584 342 Q 3558 338 3543 338 Q 3535 337 3520 337 L 3494 336 C 3464 335 3466 311 3496 307 Z" fill="lightgray"></path>
      </clipPath>
      <path clip-path="url(#make-me-a-hanzi-clip-29)" d="M 3501 329 L 3511 321 L 3635 327 L 3689 318 " fill="none" id="make-me-a-hanzi-animation-29" stroke-dasharray="320 640" stroke-linecap="round"></path>

      <clipPath id="make-me-a-hanzi-clip-30">
      <path d="M 3289 210 L 3256 222 Q 3234 231 3220 220 Q 3216 208 3226 194 Q 3237 179 3239 170 Q 3243 162 3246 144 L 3255 99 L 3261 4 Q 3262 -1 3260 -39 L 3256 -98 Q 3256 -112 3270 -133 Q 3285 -154 3291 -154 Q 3298 -155 3305 -142 Q 3321 -110 3321 -88 L 3305 172 C 3303 202 3303 205 3289 210 Z" fill="lightgray"></path>
      </clipPath>
      <path clip-path="url(#make-me-a-hanzi-clip-30)" d="M 3230 213 L 3266 186 L 3275 162 L 3285 71 L 3291 -144 " fill="none" id="make-me-a-hanzi-animation-30" stroke-dasharray="505 1010" stroke-linecap="round"></path>

      <clipPath id="make-me-a-hanzi-clip-31">
      <path d="M 3783 -86 L 3747 -74 Q 3736 -69 3735 -70 L 3712 -61 Q 3706 -58 3701 -60 Q 3697 -63 3702 -68 L 3739 -112 L 3759 -140 Q 3764 -147 3773 -167 Q 3783 -187 3789 -190 Q 3796 -193 3816 -185 Q 3836 -177 3850 -162 Q 3865 -147 3879 -119 Q 3894 -91 3897 -70 Q 3901 -49 3907 -3 L 3915 101 Q 3915 106 3916 109 L 3918 123 Q 3925 163 3931 176 L 3943 197 Q 3943 200 3946 206 Q 3946 219 3905 243 Q 3865 267 3859 268 Q 3853 269 3841 266 Q 3829 263 3796 258 L 3739 252 Q 3656 245 3557 234 L 3289 210 C 3259 207 3275 167 3305 172 L 3353 180 Q 3403 187 3412 187 L 3534 199 L 3798 216 Q 3836 217 3843 210 Q 3851 203 3854 192 Q 3858 181 3857 137 L 3856 78 Q 3854 41 3847 4 Q 3831 -81 3810 -88 Q 3800 -92 3783 -86 Z" fill="lightgray"></path>
      </clipPath>
      <path clip-path="url(#make-me-a-hanzi-clip-31)" d="M 3297 206 L 3320 193 L 3762 235 L 3841 239 L 3866 231 L 3895 197 L 3876 -8 L 3851 -97 L 3828 -125 L 3810 -135 L 3706 -63 " fill="none" id="make-me-a-hanzi-animation-31" stroke-dasharray="1230 2460" stroke-linecap="round"></path>

      <clipPath id="make-me-a-hanzi-clip-32">
      <path d="M 3491 -35 L 3499 -16 C 3500 -14 3498 -18 3496 12 L 3490 92 C 3488 119 3488 119 3470 123 L 3434 131 Q 3432 132 3425 131 Q 3418 129 3416 125 Q 3414 120 3418 116 L 3429 108 Q 3432 106 3438 94 L 3445 73 L 3459 -6 Q 3467 -42 3482 -42 Q 3487 -42 3491 -35 Z" fill="lightgray"></path>
      </clipPath>
      <path clip-path="url(#make-me-a-hanzi-clip-32)" d="M 3424 122 L 3457 104 L 3467 84 L 3481 -32 " fill="none" id="make-me-a-hanzi-animation-32" stroke-dasharray="305 610" stroke-linecap="round"></path>

      <clipPath id="make-me-a-hanzi-clip-33">
      <path d="M 3664 15 L 3695 67 Q 3699 77 3710 86 Q 3721 92 3723 94 Q 3725 101 3723 106 Q 3722 110 3708 122 Q 3668 160 3635 149 L 3603 142 L 3470 123 C 3440 119 3462 82 3490 92 L 3504 97 Q 3508 101 3571 110 Q 3634 119 3639 106 Q 3642 97 3635 68 L 3622 20 C 3614 -9 3649 -11 3664 15 Z" fill="lightgray"></path>
      </clipPath>
      <path clip-path="url(#make-me-a-hanzi-clip-33)" d="M 3478 121 L 3500 112 L 3622 130 L 3645 130 L 3661 123 L 3676 103 L 3652 40 L 3630 24 " fill="none" id="make-me-a-hanzi-animation-33" stroke-dasharray="435 870" stroke-linecap="round"></path>

      <clipPath id="make-me-a-hanzi-clip-34">
      <path d="M 3499 -16 L 3513 -18 Q 3524 -20 3555 -16 Q 3586 -13 3637 -13 L 3661 -13 Q 3679 -13 3685 -11 L 3687 -5 Q 3687 -2 3681 4 L 3664 15 L 3622 20 L 3609 21 L 3608 20 L 3583 19 L 3524 13 Q 3504 14 3496 12 C 3466 7 3469 -12 3499 -16 Z" fill="lightgray"></path>
      </clipPath>
      <path clip-path="url(#make-me-a-hanzi-clip-34)" d="M 3502 6 L 3519 -3 L 3615 4 L 3655 2 L 3680 -6 " fill="none" id="make-me-a-hanzi-animation-34" stroke-dasharray="310 620" stroke-linecap="round"></path>

</g>
</svg>
