<svg version="1.1" viewBox="0 0 2048 1024" xmlns="http://www.w3.org/2000/svg">
  <g stroke="lightgray" stroke-dasharray="1,1" stroke-width="1" transform="scale(4, 4)">
    <line x1="0" y1="0" x2="256" y2="256"></line>
    <line x1="256" y1="0" x2="0" y2="256"></line>
    <line x1="128" y1="0" x2="128" y2="256"></line>
    <line x1="0" y1="128" x2="256" y2="128"></line>
    <line x1="256" y1="0" x2="512" y2="256"></line>
    <line x1="512" y1="0" x2="256" y2="256"></line>
    <line x1="384" y1="0" x2="384" y2="256"></line>
    <line x1="256" y1="128" x2="512" y2="128"></line>
  </g>
<g transform="scale(1, -1) translate(0, -850)">
   <style type="text/css">
    @keyframes keyframes0 {
      from {
       stroke: black;
       stroke-dashoffset: 396;
       stroke-width: 128;
       }
       56% {
       animation-timing-function: step-end;
       stroke: black;
       stroke-dashoffset: 0;
       stroke-width: 128;
       }
       to {
       stroke: black;
       stroke-width: 1024;
       }
       }
       #make-me-a-hanzi-animation-0 {
         animation: keyframes0 0.572266s both;
         animation-delay: 0.000000s;
         animation-timing-function: linear;
       }
    @keyframes keyframes1 {
      from {
       stroke: black;
       stroke-dashoffset: 387;
       stroke-width: 128;
       }
       56% {
       animation-timing-function: step-end;
       stroke: black;
       stroke-dashoffset: 0;
       stroke-width: 128;
       }
       to {
       stroke: black;
       stroke-width: 1024;
       }
       }
       #make-me-a-hanzi-animation-1 {
         animation: keyframes1 0.564941s both;
         animation-delay: 0.572266s;
         animation-timing-function: linear;
       }
    @keyframes keyframes2 {
      from {
       stroke: black;
       stroke-dashoffset: 581;
       stroke-width: 128;
       }
       65% {
       animation-timing-function: step-end;
       stroke: black;
       stroke-dashoffset: 0;
       stroke-width: 128;
       }
       to {
       stroke: black;
       stroke-width: 1024;
       }
       }
       #make-me-a-hanzi-animation-2 {
         animation: keyframes2 0.722819s both;
         animation-delay: 1.137207s;
         animation-timing-function: linear;
       }
    @keyframes keyframes3 {
      from {
       stroke: black;
       stroke-dashoffset: 1123;
       stroke-width: 128;
       }
       79% {
       animation-timing-function: step-end;
       stroke: black;
       stroke-dashoffset: 0;
       stroke-width: 128;
       }
       to {
       stroke: black;
       stroke-width: 1024;
       }
       }
       #make-me-a-hanzi-animation-3 {
         animation: keyframes3 1.163900s both;
         animation-delay: 1.860026s;
         animation-timing-function: linear;
       }
    @keyframes keyframes4 {
      from {
       stroke: black;
       stroke-dashoffset: 817;
       stroke-width: 128;
       }
       73% {
       animation-timing-function: step-end;
       stroke: black;
       stroke-dashoffset: 0;
       stroke-width: 128;
       }
       to {
       stroke: black;
       stroke-width: 1024;
       }
       }
       #make-me-a-hanzi-animation-4 {
         animation: keyframes4 0.914876s both;
         animation-delay: 3.023926s;
         animation-timing-function: linear;
       }
    @keyframes keyframes5 {
      from {
       stroke: black;
       stroke-dashoffset: 1337;
       stroke-width: 128;
       }
       81% {
       animation-timing-function: step-end;
       stroke: black;
       stroke-dashoffset: 0;
       stroke-width: 128;
       }
       to {
       stroke: black;
       stroke-width: 1024;
       }
       }
       #make-me-a-hanzi-animation-5 {
         animation: keyframes5 1.338053s both;
         animation-delay: 3.938802s;
         animation-timing-function: linear;
       }
    @keyframes keyframes6 {
      from {
       stroke: black;
       stroke-dashoffset: 901;
       stroke-width: 128;
       }
       75% {
       animation-timing-function: step-end;
       stroke: black;
       stroke-dashoffset: 0;
       stroke-width: 128;
       }
       to {
       stroke: black;
       stroke-width: 1024;
       }
       }
       #make-me-a-hanzi-animation-6 {
         animation: keyframes6 0.983236s both;
         animation-delay: 5.276855s;
         animation-timing-function: linear;
       }
    @keyframes keyframes7 {
      from {
       stroke: black;
       stroke-dashoffset: 948;
       stroke-width: 128;
       }
       76% {
       animation-timing-function: step-end;
       stroke: black;
       stroke-dashoffset: 0;
       stroke-width: 128;
       }
       to {
       stroke: black;
       stroke-width: 1024;
       }
       }
       #make-me-a-hanzi-animation-7 {
         animation: keyframes7 1.021484s both;
         animation-delay: 6.260091s;
         animation-timing-function: linear;
       }
    @keyframes keyframes8 {
      from {
       stroke: black;
       stroke-dashoffset: 1108;
       stroke-width: 128;
       }
       78% {
       animation-timing-function: step-end;
       stroke: black;
       stroke-dashoffset: 0;
       stroke-width: 128;
       }
       to {
       stroke: black;
       stroke-width: 1024;
       }
       }
       #make-me-a-hanzi-animation-8 {
         animation: keyframes8 1.151693s both;
         animation-delay: 7.281576s;
         animation-timing-function: linear;
       }
</style>
<path d="M 229 605 Q 251 583 277 555 Q 292 539 310 539 Q 322 540 328 555 Q 335 571 325 606 Q 316 636 225 660 Q 207 664 200 661 Q 194 657 195 642 Q 199 629 229 605 Z" fill="lightgray"></path> 
<path d="M 134 415 Q 180 355 216 337 Q 232 333 243 347 Q 250 360 248 378 Q 238 423 149 456 Q 133 462 122 459 Q 115 458 117 444 Q 118 431 134 415 Z" fill="lightgray"></path> 
<path d="M 148 81 Q 136 77 138 60 Q 150 -13 183 -35 Q 190 -42 200 -40 Q 207 -39 210 -14 Q 216 25 304 242 Q 311 258 311 264 Q 310 274 301 268 Q 286 259 184 113 Q 172 97 148 81 Z" fill="lightgray"></path> 
<path d="M 430 330 Q 467 352 538 389 L 588 415 Q 640 443 708 478 Q 727 485 733 474 Q 739 465 706 325 Q 697 286 671 298 Q 652 308 630 318 Q 615 322 618 313 Q 622 301 679 230 Q 700 202 720 223 Q 768 275 793 426 Q 803 463 833 497 Q 846 515 829 527 Q 810 539 756 548 Q 735 552 721 537 Q 691 509 591 454 L 541 429 Q 466 396 432 379 L 385 359 Q 336 340 304 328 Q 291 325 290 315 Q 289 308 334 296 Q 362 287 385 303 Q 385 304 386 304 L 430 330 Z" fill="lightgray"></path> 
<path d="M 538 389 Q 534 322 529 270 Q 529 237 537 215 Q 544 202 554 208 Q 573 229 584 356 Q 585 387 588 415 L 591 454 Q 604 653 616 697 Q 626 719 613 733 Q 595 749 564 765 Q 540 775 514 765 Q 501 756 516 738 Q 540 690 543 648 Q 547 557 541 429 L 538 389 Z" fill="lightgray"></path> 
<path d="M 991 134 Q 979 159 967 238 Q 968 254 961 260 Q 955 264 949 246 Q 913 164 893 140 Q 874 110 809 91 Q 740 72 656 75 Q 583 76 524 102 Q 470 127 454 161 Q 426 212 430 330 L 432 379 Q 435 425 441 475 Q 445 494 432 504 Q 417 517 393 524 Q 380 528 371 522 Q 364 518 371 500 Q 387 460 386 422 Q 385 389 385 359 L 386 304 Q 390 181 406 138 Q 416 98 452 66 Q 563 -24 798 10 Q 831 17 866 27 Q 926 48 982 95 Q 1001 108 991 134 Z" fill="lightgray"></path> 
<path d="M 1556 480 L 1687 581 Q 1708 597 1745 618 Q 1783 639 1783 644 Q 1790 664 1730 700 Q 1696 720 1675 720 Q 1655 720 1623 710 Q 1591 700 1577 698 L 1523 688 Q 1479 680 1414 673 Q 1350 666 1338 666 L 1312 664 Q 1294 664 1294 657 Q 1292 653 1300 645 Q 1342 613 1360 617 Q 1369 617 1384 622 L 1452 636 L 1586 658 Q 1633 665 1646 660 Q 1657 652 1644 631 L 1622 603 L 1533 497 C 1514 474 1532 462 1556 480 Z" fill="lightgray"></path> 
<path d="M 1524 312 L 1526 259 L 1524 180 Q 1521 101 1507 39 Q 1501 5 1481 -1 Q 1474 -5 1457 0 L 1420 10 Q 1400 14 1394 9 Q 1392 4 1399 0 L 1442 -44 Q 1467 -71 1480 -88 Q 1493 -105 1498 -108 Q 1510 -118 1524 -104 Q 1531 -99 1544 -78 Q 1556 -61 1562 -40 Q 1579 34 1579 78 L 1583 174 L 1579 314 L 1575 359 L 1570 438 Q 1568 461 1565 467 L 1556 480 C 1549 492 1549 492 1533 497 L 1518 502 L 1498 506 Q 1488 508 1484 504 Q 1480 503 1480 498 Q 1480 493 1488 487 Q 1500 473 1502 469 Q 1517 439 1519 410 L 1523 356 L 1524 312 Z" fill="lightgray"></path> 
<path d="M 1523 356 L 1199 330 Q 1185 328 1169 328 L 1139 328 L 1115 326 Q 1092 327 1105 306 Q 1111 297 1136 281 Q 1162 265 1183 268 L 1281 288 Q 1331 299 1451 308 L 1524 312 L 1579 314 L 1699 319 L 1896 318 L 1939 319 Q 1956 319 1960 323 Q 1966 325 1968 333 Q 1970 340 1959 353 Q 1948 365 1890 386 Q 1879 390 1862 390 L 1754 374 Q 1709 369 1688 368 L 1575 359 L 1523 356 Z" fill="lightgray"></path> 
      <clipPath id="make-me-a-hanzi-clip-0">
      <path d="M 229 605 Q 251 583 277 555 Q 292 539 310 539 Q 322 540 328 555 Q 335 571 325 606 Q 316 636 225 660 Q 207 664 200 661 Q 194 657 195 642 Q 199 629 229 605 Z" fill="lightgray"></path>
      </clipPath>
      <path clip-path="url(#make-me-a-hanzi-clip-0)" d="M 206 652 L 291 594 L 307 560 " fill="none" id="make-me-a-hanzi-animation-0" stroke-dasharray="268 536" stroke-linecap="round"></path>

      <clipPath id="make-me-a-hanzi-clip-1">
      <path d="M 134 415 Q 180 355 216 337 Q 232 333 243 347 Q 250 360 248 378 Q 238 423 149 456 Q 133 462 122 459 Q 115 458 117 444 Q 118 431 134 415 Z" fill="lightgray"></path>
      </clipPath>
      <path clip-path="url(#make-me-a-hanzi-clip-1)" d="M 129 448 L 202 390 L 223 359 " fill="none" id="make-me-a-hanzi-animation-1" stroke-dasharray="259 518" stroke-linecap="round"></path>

      <clipPath id="make-me-a-hanzi-clip-2">
      <path d="M 148 81 Q 136 77 138 60 Q 150 -13 183 -35 Q 190 -42 200 -40 Q 207 -39 210 -14 Q 216 25 304 242 Q 311 258 311 264 Q 310 274 301 268 Q 286 259 184 113 Q 172 97 148 81 Z" fill="lightgray"></path>
      </clipPath>
      <path clip-path="url(#make-me-a-hanzi-clip-2)" d="M 196 -30 L 187 -8 L 184 52 L 304 261 " fill="none" id="make-me-a-hanzi-animation-2" stroke-dasharray="453 906" stroke-linecap="round"></path>

      <clipPath id="make-me-a-hanzi-clip-3">
      <path d="M 430 330 Q 467 352 538 389 L 588 415 Q 640 443 708 478 Q 727 485 733 474 Q 739 465 706 325 Q 697 286 671 298 Q 652 308 630 318 Q 615 322 618 313 Q 622 301 679 230 Q 700 202 720 223 Q 768 275 793 426 Q 803 463 833 497 Q 846 515 829 527 Q 810 539 756 548 Q 735 552 721 537 Q 691 509 591 454 L 541 429 Q 466 396 432 379 L 385 359 Q 336 340 304 328 Q 291 325 290 315 Q 289 308 334 296 Q 362 287 385 303 Q 385 304 386 304 L 430 330 Z" fill="lightgray"></path>
      </clipPath>
      <path clip-path="url(#make-me-a-hanzi-clip-3)" d="M 297 317 L 366 323 L 598 438 L 715 503 L 751 509 L 774 497 L 744 347 L 720 281 L 698 261 L 625 313 " fill="none" id="make-me-a-hanzi-animation-3" stroke-dasharray="995 1990" stroke-linecap="round"></path>

      <clipPath id="make-me-a-hanzi-clip-4">
      <path d="M 538 389 Q 534 322 529 270 Q 529 237 537 215 Q 544 202 554 208 Q 573 229 584 356 Q 585 387 588 415 L 591 454 Q 604 653 616 697 Q 626 719 613 733 Q 595 749 564 765 Q 540 775 514 765 Q 501 756 516 738 Q 540 690 543 648 Q 547 557 541 429 L 538 389 Z" fill="lightgray"></path>
      </clipPath>
      <path clip-path="url(#make-me-a-hanzi-clip-4)" d="M 524 752 L 556 732 L 575 704 L 569 468 L 548 216 " fill="none" id="make-me-a-hanzi-animation-4" stroke-dasharray="689 1378" stroke-linecap="round"></path>

      <clipPath id="make-me-a-hanzi-clip-5">
      <path d="M 991 134 Q 979 159 967 238 Q 968 254 961 260 Q 955 264 949 246 Q 913 164 893 140 Q 874 110 809 91 Q 740 72 656 75 Q 583 76 524 102 Q 470 127 454 161 Q 426 212 430 330 L 432 379 Q 435 425 441 475 Q 445 494 432 504 Q 417 517 393 524 Q 380 528 371 522 Q 364 518 371 500 Q 387 460 386 422 Q 385 389 385 359 L 386 304 Q 390 181 406 138 Q 416 98 452 66 Q 563 -24 798 10 Q 831 17 866 27 Q 926 48 982 95 Q 1001 108 991 134 Z" fill="lightgray"></path>
      </clipPath>
      <path clip-path="url(#make-me-a-hanzi-clip-5)" d="M 380 513 L 410 481 L 407 294 L 412 219 L 424 167 L 439 130 L 460 103 L 518 66 L 607 42 L 688 37 L 782 46 L 859 66 L 904 90 L 942 125 L 959 253 " fill="none" id="make-me-a-hanzi-animation-5" stroke-dasharray="1209 2418" stroke-linecap="round"></path>

      <clipPath id="make-me-a-hanzi-clip-6">
      <path d="M 1556 480 L 1687 581 Q 1708 597 1745 618 Q 1783 639 1783 644 Q 1790 664 1730 700 Q 1696 720 1675 720 Q 1655 720 1623 710 Q 1591 700 1577 698 L 1523 688 Q 1479 680 1414 673 Q 1350 666 1338 666 L 1312 664 Q 1294 664 1294 657 Q 1292 653 1300 645 Q 1342 613 1360 617 Q 1369 617 1384 622 L 1452 636 L 1586 658 Q 1633 665 1646 660 Q 1657 652 1644 631 L 1622 603 L 1533 497 C 1514 474 1532 462 1556 480 Z" fill="lightgray"></path>
      </clipPath>
      <path clip-path="url(#make-me-a-hanzi-clip-6)" d="M 1303 654 L 1362 642 L 1620 686 L 1651 689 L 1682 679 L 1703 655 L 1690 633 L 1575 517 L 1556 500 L 1543 499 " fill="none" id="make-me-a-hanzi-animation-6" stroke-dasharray="773 1546" stroke-linecap="round"></path>

      <clipPath id="make-me-a-hanzi-clip-7">
      <path d="M 1524 312 L 1526 259 L 1524 180 Q 1521 101 1507 39 Q 1501 5 1481 -1 Q 1474 -5 1457 0 L 1420 10 Q 1400 14 1394 9 Q 1392 4 1399 0 L 1442 -44 Q 1467 -71 1480 -88 Q 1493 -105 1498 -108 Q 1510 -118 1524 -104 Q 1531 -99 1544 -78 Q 1556 -61 1562 -40 Q 1579 34 1579 78 L 1583 174 L 1579 314 L 1575 359 L 1570 438 Q 1568 461 1565 467 L 1556 480 C 1549 492 1549 492 1533 497 L 1518 502 L 1498 506 Q 1488 508 1484 504 Q 1480 503 1480 498 Q 1480 493 1488 487 Q 1500 473 1502 469 Q 1517 439 1519 410 L 1523 356 L 1524 312 Z" fill="lightgray"></path>
      </clipPath>
      <path clip-path="url(#make-me-a-hanzi-clip-7)" d="M 1489 496 L 1519 481 L 1535 463 L 1546 413 L 1554 181 L 1542 38 L 1524 -22 L 1505 -43 L 1468 -32 L 1400 6 " fill="none" id="make-me-a-hanzi-animation-7" stroke-dasharray="820 1640" stroke-linecap="round"></path>

      <clipPath id="make-me-a-hanzi-clip-8">
      <path d="M 1523 356 L 1199 330 Q 1185 328 1169 328 L 1139 328 L 1115 326 Q 1092 327 1105 306 Q 1111 297 1136 281 Q 1162 265 1183 268 L 1281 288 Q 1331 299 1451 308 L 1524 312 L 1579 314 L 1699 319 L 1896 318 L 1939 319 Q 1956 319 1960 323 Q 1966 325 1968 333 Q 1970 340 1959 353 Q 1948 365 1890 386 Q 1879 390 1862 390 L 1754 374 Q 1709 369 1688 368 L 1575 359 L 1523 356 Z" fill="lightgray"></path>
      </clipPath>
      <path clip-path="url(#make-me-a-hanzi-clip-8)" d="M 1111 316 L 1141 304 L 1184 298 L 1424 328 L 1858 354 L 1925 345 L 1955 335 " fill="none" id="make-me-a-hanzi-animation-8" stroke-dasharray="980 1960" stroke-linecap="round"></path>

</g>
</svg>
