<svg version="1.1" viewBox="0 0 2048 1024" xmlns="http://www.w3.org/2000/svg">
  <g stroke="lightgray" stroke-dasharray="1,1" stroke-width="1" transform="scale(4, 4)">
    <line x1="0" y1="0" x2="256" y2="256"></line>
    <line x1="256" y1="0" x2="0" y2="256"></line>
    <line x1="128" y1="0" x2="128" y2="256"></line>
    <line x1="0" y1="128" x2="256" y2="128"></line>
    <line x1="256" y1="0" x2="512" y2="256"></line>
    <line x1="512" y1="0" x2="256" y2="256"></line>
    <line x1="384" y1="0" x2="384" y2="256"></line>
    <line x1="256" y1="128" x2="512" y2="128"></line>
  </g>
<g transform="scale(1, -1) translate(0, -850)">
   <style type="text/css">
    @keyframes keyframes0 {
      from {
       stroke: black;
       stroke-dashoffset: 395;
       stroke-width: 128;
       }
       56% {
       animation-timing-function: step-end;
       stroke: black;
       stroke-dashoffset: 0;
       stroke-width: 128;
       }
       to {
       stroke: black;
       stroke-width: 1024;
       }
       }
       #make-me-a-hanzi-animation-0 {
         animation: keyframes0 0.571452s both;
         animation-delay: 0.000000s;
         animation-timing-function: linear;
       }
    @keyframes keyframes1 {
      from {
       stroke: black;
       stroke-dashoffset: 383;
       stroke-width: 128;
       }
       55% {
       animation-timing-function: step-end;
       stroke: black;
       stroke-dashoffset: 0;
       stroke-width: 128;
       }
       to {
       stroke: black;
       stroke-width: 1024;
       }
       }
       #make-me-a-hanzi-animation-1 {
         animation: keyframes1 0.561686s both;
         animation-delay: 0.571452s;
         animation-timing-function: linear;
       }
    @keyframes keyframes2 {
      from {
       stroke: black;
       stroke-dashoffset: 604;
       stroke-width: 128;
       }
       66% {
       animation-timing-function: step-end;
       stroke: black;
       stroke-dashoffset: 0;
       stroke-width: 128;
       }
       to {
       stroke: black;
       stroke-width: 1024;
       }
       }
       #make-me-a-hanzi-animation-2 {
         animation: keyframes2 0.741536s both;
         animation-delay: 1.133138s;
         animation-timing-function: linear;
       }
    @keyframes keyframes3 {
      from {
       stroke: black;
       stroke-dashoffset: 658;
       stroke-width: 128;
       }
       68% {
       animation-timing-function: step-end;
       stroke: black;
       stroke-dashoffset: 0;
       stroke-width: 128;
       }
       to {
       stroke: black;
       stroke-width: 1024;
       }
       }
       #make-me-a-hanzi-animation-3 {
         animation: keyframes3 0.785482s both;
         animation-delay: 1.874674s;
         animation-timing-function: linear;
       }
    @keyframes keyframes4 {
      from {
       stroke: black;
       stroke-dashoffset: 1346;
       stroke-width: 128;
       }
       81% {
       animation-timing-function: step-end;
       stroke: black;
       stroke-dashoffset: 0;
       stroke-width: 128;
       }
       to {
       stroke: black;
       stroke-width: 1024;
       }
       }
       #make-me-a-hanzi-animation-4 {
         animation: keyframes4 1.345378s both;
         animation-delay: 2.660156s;
         animation-timing-function: linear;
       }
    @keyframes keyframes5 {
      from {
       stroke: black;
       stroke-dashoffset: 697;
       stroke-width: 128;
       }
       69% {
       animation-timing-function: step-end;
       stroke: black;
       stroke-dashoffset: 0;
       stroke-width: 128;
       }
       to {
       stroke: black;
       stroke-width: 1024;
       }
       }
       #make-me-a-hanzi-animation-5 {
         animation: keyframes5 0.817220s both;
         animation-delay: 4.005534s;
         animation-timing-function: linear;
       }
    @keyframes keyframes6 {
      from {
       stroke: black;
       stroke-dashoffset: 398;
       stroke-width: 128;
       }
       56% {
       animation-timing-function: step-end;
       stroke: black;
       stroke-dashoffset: 0;
       stroke-width: 128;
       }
       to {
       stroke: black;
       stroke-width: 1024;
       }
       }
       #make-me-a-hanzi-animation-6 {
         animation: keyframes6 0.573893s both;
         animation-delay: 4.822754s;
         animation-timing-function: linear;
       }
    @keyframes keyframes7 {
      from {
       stroke: black;
       stroke-dashoffset: 706;
       stroke-width: 128;
       }
       70% {
       animation-timing-function: step-end;
       stroke: black;
       stroke-dashoffset: 0;
       stroke-width: 128;
       }
       to {
       stroke: black;
       stroke-width: 1024;
       }
       }
       #make-me-a-hanzi-animation-7 {
         animation: keyframes7 0.824544s both;
         animation-delay: 5.396647s;
         animation-timing-function: linear;
       }
    @keyframes keyframes8 {
      from {
       stroke: black;
       stroke-dashoffset: 368;
       stroke-width: 128;
       }
       55% {
       animation-timing-function: step-end;
       stroke: black;
       stroke-dashoffset: 0;
       stroke-width: 128;
       }
       to {
       stroke: black;
       stroke-width: 1024;
       }
       }
       #make-me-a-hanzi-animation-8 {
         animation: keyframes8 0.549479s both;
         animation-delay: 6.221191s;
         animation-timing-function: linear;
       }
    @keyframes keyframes9 {
      from {
       stroke: black;
       stroke-dashoffset: 648;
       stroke-width: 128;
       }
       68% {
       animation-timing-function: step-end;
       stroke: black;
       stroke-dashoffset: 0;
       stroke-width: 128;
       }
       to {
       stroke: black;
       stroke-width: 1024;
       }
       }
       #make-me-a-hanzi-animation-9 {
         animation: keyframes9 0.777344s both;
         animation-delay: 6.770671s;
         animation-timing-function: linear;
       }
    @keyframes keyframes10 {
      from {
       stroke: black;
       stroke-dashoffset: 1093;
       stroke-width: 128;
       }
       78% {
       animation-timing-function: step-end;
       stroke: black;
       stroke-dashoffset: 0;
       stroke-width: 128;
       }
       to {
       stroke: black;
       stroke-width: 1024;
       }
       }
       #make-me-a-hanzi-animation-10 {
         animation: keyframes10 1.139486s both;
         animation-delay: 7.548014s;
         animation-timing-function: linear;
       }
    @keyframes keyframes11 {
      from {
       stroke: black;
       stroke-dashoffset: 446;
       stroke-width: 128;
       }
       59% {
       animation-timing-function: step-end;
       stroke: black;
       stroke-dashoffset: 0;
       stroke-width: 128;
       }
       to {
       stroke: black;
       stroke-width: 1024;
       }
       }
       #make-me-a-hanzi-animation-11 {
         animation: keyframes11 0.612956s both;
         animation-delay: 8.687500s;
         animation-timing-function: linear;
       }
    @keyframes keyframes12 {
      from {
       stroke: black;
       stroke-dashoffset: 463;
       stroke-width: 128;
       }
       60% {
       animation-timing-function: step-end;
       stroke: black;
       stroke-dashoffset: 0;
       stroke-width: 128;
       }
       to {
       stroke: black;
       stroke-width: 1024;
       }
       }
       #make-me-a-hanzi-animation-12 {
         animation: keyframes12 0.626790s both;
         animation-delay: 9.300456s;
         animation-timing-function: linear;
       }
    @keyframes keyframes13 {
      from {
       stroke: black;
       stroke-dashoffset: 622;
       stroke-width: 128;
       }
       67% {
       animation-timing-function: step-end;
       stroke: black;
       stroke-dashoffset: 0;
       stroke-width: 128;
       }
       to {
       stroke: black;
       stroke-width: 1024;
       }
       }
       #make-me-a-hanzi-animation-13 {
         animation: keyframes13 0.756185s both;
         animation-delay: 9.927246s;
         animation-timing-function: linear;
       }
    @keyframes keyframes14 {
      from {
       stroke: black;
       stroke-dashoffset: 404;
       stroke-width: 128;
       }
       57% {
       animation-timing-function: step-end;
       stroke: black;
       stroke-dashoffset: 0;
       stroke-width: 128;
       }
       to {
       stroke: black;
       stroke-width: 1024;
       }
       }
       #make-me-a-hanzi-animation-14 {
         animation: keyframes14 0.578776s both;
         animation-delay: 10.683431s;
         animation-timing-function: linear;
       }
    @keyframes keyframes15 {
      from {
       stroke: black;
       stroke-dashoffset: 791;
       stroke-width: 128;
       }
       72% {
       animation-timing-function: step-end;
       stroke: black;
       stroke-dashoffset: 0;
       stroke-width: 128;
       }
       to {
       stroke: black;
       stroke-width: 1024;
       }
       }
       #make-me-a-hanzi-animation-15 {
         animation: keyframes15 0.893717s both;
         animation-delay: 11.262207s;
         animation-timing-function: linear;
       }
    @keyframes keyframes16 {
      from {
       stroke: black;
       stroke-dashoffset: 1088;
       stroke-width: 128;
       }
       78% {
       animation-timing-function: step-end;
       stroke: black;
       stroke-dashoffset: 0;
       stroke-width: 128;
       }
       to {
       stroke: black;
       stroke-width: 1024;
       }
       }
       #make-me-a-hanzi-animation-16 {
         animation: keyframes16 1.135417s both;
         animation-delay: 12.155924s;
         animation-timing-function: linear;
       }
</style>
<path d="M 232 643 Q 254 621 279 594 Q 294 579 311 580 Q 323 580 328 595 Q 334 611 325 644 Q 321 663 290 677 Q 220 704 204 697 Q 198 693 200 679 Q 204 666 232 643 Z" fill="lightgray"></path> 
<path d="M 141 459 Q 193 408 231 394 Q 247 393 255 406 Q 259 419 256 437 Q 249 461 229 472 Q 181 500 137 501 Q 130 501 125 498 Q 118 497 122 484 Q 125 472 141 459 Z" fill="lightgray"></path> 
<path d="M 141 123 Q 128 119 132 101 Q 154 22 189 8 Q 196 1 208 5 Q 215 6 214 33 Q 217 81 287 317 Q 293 333 292 340 Q 291 350 281 343 Q 275 340 175 163 Q 165 144 141 123 Z" fill="lightgray"></path> 
<path d="M 452 526 Q 489 575 531 647 Q 549 683 565 700 Q 574 710 568 724 Q 564 737 534 757 Q 506 773 488 772 Q 469 769 479 748 Q 491 726 484 706 Q 463 637 428 573 Q 394 510 345 441 Q 335 431 334 424 Q 331 412 345 416 Q 370 423 441 511 L 452 526 Z" fill="lightgray"></path> 
<path d="M 669 38 Q 654 34 574 61 Q 564 64 563 57 Q 562 53 575 43 Q 623 -6 643 -41 Q 655 -63 669 -63 Q 691 -64 713 -42 Q 794 25 814 178 Q 830 286 841 450 Q 842 487 866 516 Q 879 531 879 540 Q 878 549 856 563 Q 828 585 788 596 Q 766 605 702 582 Q 513 537 452 526 C 423 520 416 519 441 511 Q 471 492 529 507 Q 752 546 761 539 Q 768 524 770 475 Q 771 192 708 77 Q 692 40 669 38 Z" fill="lightgray"></path> 
<path d="M 586 277 Q 520 264 450 242 Q 443 238 439 241 Q 438 244 442 253 Q 524 377 541 398 Q 551 408 546 420 Q 539 430 492 450 Q 476 456 468 452 Q 456 445 463 426 Q 487 369 393 255 Q 377 240 357 223 Q 345 211 349 201 Q 355 185 380 168 Q 390 158 403 170 Q 434 203 599 253 C 628 262 615 283 586 277 Z" fill="lightgray"></path> 
<path d="M 599 253 Q 626 202 637 197 Q 646 196 653 203 Q 662 213 663 239 Q 666 260 643 285 Q 582 339 573 336 Q 567 335 565 324 Q 564 315 586 277 L 599 253 Z" fill="lightgray"></path> 
<path d="M 1651 604 Q 1756 692 1791 701 Q 1810 708 1804 723 Q 1801 739 1737 773 Q 1718 783 1697 774 Q 1639 750 1549 723 Q 1527 716 1470 716 Q 1448 716 1456 697 Q 1463 684 1482 674 Q 1512 658 1544 678 Q 1565 687 1674 729 Q 1686 735 1697 729 Q 1709 722 1704 710 Q 1673 667 1638 616 C 1621 591 1628 585 1651 604 Z" fill="lightgray"></path> 
<path d="M 1638 616 Q 1608 634 1555 634 Q 1552 634 1552 633 Q 1548 629 1550 619 Q 1551 615 1625 558 Q 1637 548 1649 550 Q 1658 551 1661 562 Q 1665 589 1651 604 L 1638 616 Z" fill="lightgray"></path> 
<path d="M 1491 510 Q 1466 523 1449 523 Q 1436 519 1441 509 Q 1489 403 1437 232 Q 1406 178 1440 135 Q 1447 122 1456 127 Q 1490 148 1494 255 Q 1503 435 1508 477 C 1510 501 1510 501 1491 510 Z" fill="lightgray"></path> 
<path d="M 1629 507 Q 1683 520 1744 531 Q 1762 535 1771 526 Q 1780 522 1783 480 Q 1792 344 1784 188 Q 1783 166 1775 159 Q 1765 152 1712 162 Q 1697 166 1698 157 Q 1698 150 1710 144 Q 1756 104 1781 74 Q 1800 56 1811 59 Q 1823 60 1833 87 Q 1848 127 1848 186 Q 1830 474 1847 505 Q 1857 524 1849 534 Q 1839 547 1798 568 Q 1782 577 1712 555 Q 1517 516 1491 510 C 1462 504 1479 468 1508 477 Q 1511 480 1590 499 L 1629 507 Z" fill="lightgray"></path> 
<path d="M 1651 387 Q 1688 396 1721 402 Q 1743 408 1733 419 Q 1723 432 1698 435 Q 1680 436 1653 428 L 1605 410 Q 1569 398 1538 387 Q 1522 383 1542 369 Q 1552 363 1570 368 Q 1586 372 1605 376 L 1651 387 Z" fill="lightgray"></path> 
<path d="M 1648 277 Q 1693 286 1731 291 Q 1753 295 1745 307 Q 1735 320 1711 324 Q 1689 327 1650 316 Q 1649 316 1649 315 L 1605 302 Q 1565 292 1531 282 Q 1515 278 1534 265 Q 1544 258 1564 261 Q 1585 265 1605 268 L 1648 277 Z" fill="lightgray"></path> 
<path d="M 1607 171 Q 1611 152 1616 144 Q 1620 140 1626 141 Q 1636 147 1643 193 Q 1647 226 1648 277 L 1649 315 Q 1649 343 1651 387 L 1653 428 Q 1653 429 1654 430 Q 1654 437 1660 473 Q 1663 486 1652 494 Q 1639 504 1629 507 C 1602 519 1575 525 1590 499 Q 1605 481 1605 410 L 1605 376 Q 1605 343 1605 302 L 1605 268 Q 1605 196 1607 171 Z" fill="lightgray"></path> 
<path d="M 1248 658 Q 1276 636 1305 607 Q 1321 594 1339 594 Q 1351 595 1356 610 Q 1362 628 1350 661 Q 1338 692 1241 713 Q 1223 717 1216 713 Q 1210 709 1212 694 Q 1216 681 1248 658 Z" fill="lightgray"></path> 
<path d="M 1329 127 Q 1347 151 1336 195 Q 1329 217 1304 259 Q 1282 301 1319 355 Q 1341 392 1360 411 Q 1382 429 1363 445 Q 1344 461 1308 476 Q 1286 489 1268 472 Q 1234 447 1190 430 Q 1130 405 1111 407 Q 1104 408 1102 403 Q 1101 397 1109 393 Q 1149 375 1260 418 Q 1267 422 1277 413 Q 1298 389 1274 360 Q 1222 312 1271 231 Q 1304 165 1299 130 C 1299 100 1315 100 1329 127 Z" fill="lightgray"></path> 
<path d="M 1299 130 Q 1253 133 1204 116 Q 1176 106 1131 103 Q 1124 103 1121 95 Q 1118 88 1127 78 Q 1143 59 1168 48 Q 1180 41 1198 56 Q 1253 102 1321 87 Q 1385 74 1518 17 Q 1746 -85 1829 -57 Q 1890 -35 1943 4 Q 1967 20 1942 19 Q 1720 10 1558 54 Q 1483 76 1393 109 Q 1362 122 1329 127 L 1299 130 Z" fill="lightgray"></path> 
      <clipPath id="make-me-a-hanzi-clip-0">
      <path d="M 232 643 Q 254 621 279 594 Q 294 579 311 580 Q 323 580 328 595 Q 334 611 325 644 Q 321 663 290 677 Q 220 704 204 697 Q 198 693 200 679 Q 204 666 232 643 Z" fill="lightgray"></path>
      </clipPath>
      <path clip-path="url(#make-me-a-hanzi-clip-0)" d="M 209 689 L 281 643 L 310 598 " fill="none" id="make-me-a-hanzi-animation-0" stroke-dasharray="267 534" stroke-linecap="round"></path>

      <clipPath id="make-me-a-hanzi-clip-1">
      <path d="M 141 459 Q 193 408 231 394 Q 247 393 255 406 Q 259 419 256 437 Q 249 461 229 472 Q 181 500 137 501 Q 130 501 125 498 Q 118 497 122 484 Q 125 472 141 459 Z" fill="lightgray"></path>
      </clipPath>
      <path clip-path="url(#make-me-a-hanzi-clip-1)" d="M 134 489 L 215 441 L 236 416 " fill="none" id="make-me-a-hanzi-animation-1" stroke-dasharray="255 510" stroke-linecap="round"></path>

      <clipPath id="make-me-a-hanzi-clip-2">
      <path d="M 141 123 Q 128 119 132 101 Q 154 22 189 8 Q 196 1 208 5 Q 215 6 214 33 Q 217 81 287 317 Q 293 333 292 340 Q 291 350 281 343 Q 275 340 175 163 Q 165 144 141 123 Z" fill="lightgray"></path>
      </clipPath>
      <path clip-path="url(#make-me-a-hanzi-clip-2)" d="M 201 15 L 187 44 L 180 98 L 285 337 " fill="none" id="make-me-a-hanzi-animation-2" stroke-dasharray="476 952" stroke-linecap="round"></path>

      <clipPath id="make-me-a-hanzi-clip-3">
      <path d="M 452 526 Q 489 575 531 647 Q 549 683 565 700 Q 574 710 568 724 Q 564 737 534 757 Q 506 773 488 772 Q 469 769 479 748 Q 491 726 484 706 Q 463 637 428 573 Q 394 510 345 441 Q 335 431 334 424 Q 331 412 345 416 Q 370 423 441 511 L 452 526 Z" fill="lightgray"></path>
      </clipPath>
      <path clip-path="url(#make-me-a-hanzi-clip-3)" d="M 489 758 L 506 745 L 526 714 L 507 670 L 419 514 L 343 425 " fill="none" id="make-me-a-hanzi-animation-3" stroke-dasharray="530 1060" stroke-linecap="round"></path>

      <clipPath id="make-me-a-hanzi-clip-4">
      <path d="M 669 38 Q 654 34 574 61 Q 564 64 563 57 Q 562 53 575 43 Q 623 -6 643 -41 Q 655 -63 669 -63 Q 691 -64 713 -42 Q 794 25 814 178 Q 830 286 841 450 Q 842 487 866 516 Q 879 531 879 540 Q 878 549 856 563 Q 828 585 788 596 Q 766 605 702 582 Q 513 537 452 526 C 423 520 416 519 441 511 Q 471 492 529 507 Q 752 546 761 539 Q 768 524 770 475 Q 771 192 708 77 Q 692 40 669 38 Z" fill="lightgray"></path>
      </clipPath>
      <path clip-path="url(#make-me-a-hanzi-clip-4)" d="M 448 512 L 541 524 L 753 569 L 786 562 L 815 531 L 786 213 L 763 109 L 735 45 L 706 8 L 679 -9 L 569 57 " fill="none" id="make-me-a-hanzi-animation-4" stroke-dasharray="1218 2436" stroke-linecap="round"></path>

      <clipPath id="make-me-a-hanzi-clip-5">
      <path d="M 586 277 Q 520 264 450 242 Q 443 238 439 241 Q 438 244 442 253 Q 524 377 541 398 Q 551 408 546 420 Q 539 430 492 450 Q 476 456 468 452 Q 456 445 463 426 Q 487 369 393 255 Q 377 240 357 223 Q 345 211 349 201 Q 355 185 380 168 Q 390 158 403 170 Q 434 203 599 253 C 628 262 615 283 586 277 Z" fill="lightgray"></path>
      </clipPath>
      <path clip-path="url(#make-me-a-hanzi-clip-5)" d="M 475 439 L 503 407 L 499 391 L 461 314 L 417 251 L 409 219 L 439 218 L 567 259 L 578 261 L 586 254 " fill="none" id="make-me-a-hanzi-animation-5" stroke-dasharray="569 1138" stroke-linecap="round"></path>

      <clipPath id="make-me-a-hanzi-clip-6">
      <path d="M 599 253 Q 626 202 637 197 Q 646 196 653 203 Q 662 213 663 239 Q 666 260 643 285 Q 582 339 573 336 Q 567 335 565 324 Q 564 315 586 277 L 599 253 Z" fill="lightgray"></path>
      </clipPath>
      <path clip-path="url(#make-me-a-hanzi-clip-6)" d="M 574 327 L 632 253 L 640 206 " fill="none" id="make-me-a-hanzi-animation-6" stroke-dasharray="270 540" stroke-linecap="round"></path>

      <clipPath id="make-me-a-hanzi-clip-7">
      <path d="M 1651 604 Q 1756 692 1791 701 Q 1810 708 1804 723 Q 1801 739 1737 773 Q 1718 783 1697 774 Q 1639 750 1549 723 Q 1527 716 1470 716 Q 1448 716 1456 697 Q 1463 684 1482 674 Q 1512 658 1544 678 Q 1565 687 1674 729 Q 1686 735 1697 729 Q 1709 722 1704 710 Q 1673 667 1638 616 C 1621 591 1628 585 1651 604 Z" fill="lightgray"></path>
      </clipPath>
      <path clip-path="url(#make-me-a-hanzi-clip-7)" d="M 1466 704 L 1487 695 L 1526 694 L 1685 751 L 1717 750 L 1745 724 L 1724 693 L 1660 629 L 1656 618 L 1647 619 " fill="none" id="make-me-a-hanzi-animation-7" stroke-dasharray="578 1156" stroke-linecap="round"></path>

      <clipPath id="make-me-a-hanzi-clip-8">
      <path d="M 1638 616 Q 1608 634 1555 634 Q 1552 634 1552 633 Q 1548 629 1550 619 Q 1551 615 1625 558 Q 1637 548 1649 550 Q 1658 551 1661 562 Q 1665 589 1651 604 L 1638 616 Z" fill="lightgray"></path>
      </clipPath>
      <path clip-path="url(#make-me-a-hanzi-clip-8)" d="M 1556 625 L 1623 593 L 1647 564 " fill="none" id="make-me-a-hanzi-animation-8" stroke-dasharray="240 480" stroke-linecap="round"></path>

      <clipPath id="make-me-a-hanzi-clip-9">
      <path d="M 1491 510 Q 1466 523 1449 523 Q 1436 519 1441 509 Q 1489 403 1437 232 Q 1406 178 1440 135 Q 1447 122 1456 127 Q 1490 148 1494 255 Q 1503 435 1508 477 C 1510 501 1510 501 1491 510 Z" fill="lightgray"></path>
      </clipPath>
      <path clip-path="url(#make-me-a-hanzi-clip-9)" d="M 1449 514 L 1473 493 L 1483 449 L 1479 316 L 1453 182 L 1451 137 " fill="none" id="make-me-a-hanzi-animation-9" stroke-dasharray="520 1040" stroke-linecap="round"></path>

      <clipPath id="make-me-a-hanzi-clip-10">
      <path d="M 1629 507 Q 1683 520 1744 531 Q 1762 535 1771 526 Q 1780 522 1783 480 Q 1792 344 1784 188 Q 1783 166 1775 159 Q 1765 152 1712 162 Q 1697 166 1698 157 Q 1698 150 1710 144 Q 1756 104 1781 74 Q 1800 56 1811 59 Q 1823 60 1833 87 Q 1848 127 1848 186 Q 1830 474 1847 505 Q 1857 524 1849 534 Q 1839 547 1798 568 Q 1782 577 1712 555 Q 1517 516 1491 510 C 1462 504 1479 468 1508 477 Q 1511 480 1590 499 L 1629 507 Z" fill="lightgray"></path>
      </clipPath>
      <path clip-path="url(#make-me-a-hanzi-clip-10)" d="M 1494 505 L 1520 498 L 1764 551 L 1787 545 L 1808 527 L 1813 517 L 1817 252 L 1811 150 L 1798 121 L 1755 133 L 1706 157 " fill="none" id="make-me-a-hanzi-animation-10" stroke-dasharray="965 1930" stroke-linecap="round"></path>

      <clipPath id="make-me-a-hanzi-clip-11">
      <path d="M 1651 387 Q 1688 396 1721 402 Q 1743 408 1733 419 Q 1723 432 1698 435 Q 1680 436 1653 428 L 1605 410 Q 1569 398 1538 387 Q 1522 383 1542 369 Q 1552 363 1570 368 Q 1586 372 1605 376 L 1651 387 Z" fill="lightgray"></path>
      </clipPath>
      <path clip-path="url(#make-me-a-hanzi-clip-11)" d="M 1540 378 L 1666 412 L 1702 417 L 1725 412 " fill="none" id="make-me-a-hanzi-animation-11" stroke-dasharray="318 636" stroke-linecap="round"></path>

      <clipPath id="make-me-a-hanzi-clip-12">
      <path d="M 1648 277 Q 1693 286 1731 291 Q 1753 295 1745 307 Q 1735 320 1711 324 Q 1689 327 1650 316 Q 1649 316 1649 315 L 1605 302 Q 1565 292 1531 282 Q 1515 278 1534 265 Q 1544 258 1564 261 Q 1585 265 1605 268 L 1648 277 Z" fill="lightgray"></path>
      </clipPath>
      <path clip-path="url(#make-me-a-hanzi-clip-12)" d="M 1532 273 L 1596 282 L 1664 301 L 1714 307 L 1735 301 " fill="none" id="make-me-a-hanzi-animation-12" stroke-dasharray="335 670" stroke-linecap="round"></path>

      <clipPath id="make-me-a-hanzi-clip-13">
      <path d="M 1607 171 Q 1611 152 1616 144 Q 1620 140 1626 141 Q 1636 147 1643 193 Q 1647 226 1648 277 L 1649 315 Q 1649 343 1651 387 L 1653 428 Q 1653 429 1654 430 Q 1654 437 1660 473 Q 1663 486 1652 494 Q 1639 504 1629 507 C 1602 519 1575 525 1590 499 Q 1605 481 1605 410 L 1605 376 Q 1605 343 1605 302 L 1605 268 Q 1605 196 1607 171 Z" fill="lightgray"></path>
      </clipPath>
      <path clip-path="url(#make-me-a-hanzi-clip-13)" d="M 1597 498 L 1626 479 L 1631 467 L 1623 149 " fill="none" id="make-me-a-hanzi-animation-13" stroke-dasharray="494 988" stroke-linecap="round"></path>

      <clipPath id="make-me-a-hanzi-clip-14">
      <path d="M 1248 658 Q 1276 636 1305 607 Q 1321 594 1339 594 Q 1351 595 1356 610 Q 1362 628 1350 661 Q 1338 692 1241 713 Q 1223 717 1216 713 Q 1210 709 1212 694 Q 1216 681 1248 658 Z" fill="lightgray"></path>
      </clipPath>
      <path clip-path="url(#make-me-a-hanzi-clip-14)" d="M 1223 704 L 1313 650 L 1336 614 " fill="none" id="make-me-a-hanzi-animation-14" stroke-dasharray="276 552" stroke-linecap="round"></path>

      <clipPath id="make-me-a-hanzi-clip-15">
      <path d="M 1329 127 Q 1347 151 1336 195 Q 1329 217 1304 259 Q 1282 301 1319 355 Q 1341 392 1360 411 Q 1382 429 1363 445 Q 1344 461 1308 476 Q 1286 489 1268 472 Q 1234 447 1190 430 Q 1130 405 1111 407 Q 1104 408 1102 403 Q 1101 397 1109 393 Q 1149 375 1260 418 Q 1267 422 1277 413 Q 1298 389 1274 360 Q 1222 312 1271 231 Q 1304 165 1299 130 C 1299 100 1315 100 1329 127 Z" fill="lightgray"></path>
      </clipPath>
      <path clip-path="url(#make-me-a-hanzi-clip-15)" d="M 1109 400 L 1158 402 L 1278 445 L 1302 440 L 1315 428 L 1312 389 L 1279 330 L 1272 303 L 1277 265 L 1299 226 L 1319 169 L 1318 148 L 1307 135 " fill="none" id="make-me-a-hanzi-animation-15" stroke-dasharray="663 1326" stroke-linecap="round"></path>

      <clipPath id="make-me-a-hanzi-clip-16">
      <path d="M 1299 130 Q 1253 133 1204 116 Q 1176 106 1131 103 Q 1124 103 1121 95 Q 1118 88 1127 78 Q 1143 59 1168 48 Q 1180 41 1198 56 Q 1253 102 1321 87 Q 1385 74 1518 17 Q 1746 -85 1829 -57 Q 1890 -35 1943 4 Q 1967 20 1942 19 Q 1720 10 1558 54 Q 1483 76 1393 109 Q 1362 122 1329 127 L 1299 130 Z" fill="lightgray"></path>
      </clipPath>
      <path clip-path="url(#make-me-a-hanzi-clip-16)" d="M 1132 91 L 1177 78 L 1255 108 L 1332 106 L 1395 88 L 1561 25 L 1643 1 L 1740 -18 L 1823 -20 L 1933 11 " fill="none" id="make-me-a-hanzi-animation-16" stroke-dasharray="960 1920" stroke-linecap="round"></path>

</g>
</svg>
