<svg version="1.1" viewBox="0 0 2048 1024" xmlns="http://www.w3.org/2000/svg">
  <g stroke="lightgray" stroke-dasharray="1,1" stroke-width="1" transform="scale(4, 4)">
    <line x1="0" y1="0" x2="256" y2="256"></line>
    <line x1="256" y1="0" x2="0" y2="256"></line>
    <line x1="128" y1="0" x2="128" y2="256"></line>
    <line x1="0" y1="128" x2="256" y2="128"></line>
    <line x1="256" y1="0" x2="512" y2="256"></line>
    <line x1="512" y1="0" x2="256" y2="256"></line>
    <line x1="384" y1="0" x2="384" y2="256"></line>
    <line x1="256" y1="128" x2="512" y2="128"></line>
  </g>
<g transform="scale(1, -1) translate(0, -850)">
   <style type="text/css">
    @keyframes keyframes0 {
      from {
       stroke: black;
       stroke-dashoffset: 394;
       stroke-width: 128;
       }
       56% {
       animation-timing-function: step-end;
       stroke: black;
       stroke-dashoffset: 0;
       stroke-width: 128;
       }
       to {
       stroke: black;
       stroke-width: 1024;
       }
       }
       #make-me-a-hanzi-animation-0 {
         animation: keyframes0 0.570638s both;
         animation-delay: 0.000000s;
         animation-timing-function: linear;
       }
    @keyframes keyframes1 {
      from {
       stroke: black;
       stroke-dashoffset: 406;
       stroke-width: 128;
       }
       57% {
       animation-timing-function: step-end;
       stroke: black;
       stroke-dashoffset: 0;
       stroke-width: 128;
       }
       to {
       stroke: black;
       stroke-width: 1024;
       }
       }
       #make-me-a-hanzi-animation-1 {
         animation: keyframes1 0.580404s both;
         animation-delay: 0.570638s;
         animation-timing-function: linear;
       }
    @keyframes keyframes2 {
      from {
       stroke: black;
       stroke-dashoffset: 613;
       stroke-width: 128;
       }
       67% {
       animation-timing-function: step-end;
       stroke: black;
       stroke-dashoffset: 0;
       stroke-width: 128;
       }
       to {
       stroke: black;
       stroke-width: 1024;
       }
       }
       #make-me-a-hanzi-animation-2 {
         animation: keyframes2 0.748861s both;
         animation-delay: 1.151042s;
         animation-timing-function: linear;
       }
    @keyframes keyframes3 {
      from {
       stroke: black;
       stroke-dashoffset: 524;
       stroke-width: 128;
       }
       63% {
       animation-timing-function: step-end;
       stroke: black;
       stroke-dashoffset: 0;
       stroke-width: 128;
       }
       to {
       stroke: black;
       stroke-width: 1024;
       }
       }
       #make-me-a-hanzi-animation-3 {
         animation: keyframes3 0.676432s both;
         animation-delay: 1.899902s;
         animation-timing-function: linear;
       }
    @keyframes keyframes4 {
      from {
       stroke: black;
       stroke-dashoffset: 625;
       stroke-width: 128;
       }
       67% {
       animation-timing-function: step-end;
       stroke: black;
       stroke-dashoffset: 0;
       stroke-width: 128;
       }
       to {
       stroke: black;
       stroke-width: 1024;
       }
       }
       #make-me-a-hanzi-animation-4 {
         animation: keyframes4 0.758626s both;
         animation-delay: 2.576335s;
         animation-timing-function: linear;
       }
    @keyframes keyframes5 {
      from {
       stroke: black;
       stroke-dashoffset: 691;
       stroke-width: 128;
       }
       69% {
       animation-timing-function: step-end;
       stroke: black;
       stroke-dashoffset: 0;
       stroke-width: 128;
       }
       to {
       stroke: black;
       stroke-width: 1024;
       }
       }
       #make-me-a-hanzi-animation-5 {
         animation: keyframes5 0.812337s both;
         animation-delay: 3.334961s;
         animation-timing-function: linear;
       }
    @keyframes keyframes6 {
      from {
       stroke: black;
       stroke-dashoffset: 812;
       stroke-width: 128;
       }
       73% {
       animation-timing-function: step-end;
       stroke: black;
       stroke-dashoffset: 0;
       stroke-width: 128;
       }
       to {
       stroke: black;
       stroke-width: 1024;
       }
       }
       #make-me-a-hanzi-animation-6 {
         animation: keyframes6 0.910807s both;
         animation-delay: 4.147298s;
         animation-timing-function: linear;
       }
    @keyframes keyframes7 {
      from {
       stroke: black;
       stroke-dashoffset: 725;
       stroke-width: 128;
       }
       70% {
       animation-timing-function: step-end;
       stroke: black;
       stroke-dashoffset: 0;
       stroke-width: 128;
       }
       to {
       stroke: black;
       stroke-width: 1024;
       }
       }
       #make-me-a-hanzi-animation-7 {
         animation: keyframes7 0.840007s both;
         animation-delay: 5.058105s;
         animation-timing-function: linear;
       }
    @keyframes keyframes8 {
      from {
       stroke: black;
       stroke-dashoffset: 1050;
       stroke-width: 128;
       }
       77% {
       animation-timing-function: step-end;
       stroke: black;
       stroke-dashoffset: 0;
       stroke-width: 128;
       }
       to {
       stroke: black;
       stroke-width: 1024;
       }
       }
       #make-me-a-hanzi-animation-8 {
         animation: keyframes8 1.104492s both;
         animation-delay: 5.898112s;
         animation-timing-function: linear;
       }
    @keyframes keyframes9 {
      from {
       stroke: black;
       stroke-dashoffset: 396;
       stroke-width: 128;
       }
       56% {
       animation-timing-function: step-end;
       stroke: black;
       stroke-dashoffset: 0;
       stroke-width: 128;
       }
       to {
       stroke: black;
       stroke-width: 1024;
       }
       }
       #make-me-a-hanzi-animation-9 {
         animation: keyframes9 0.572266s both;
         animation-delay: 7.002604s;
         animation-timing-function: linear;
       }
    @keyframes keyframes10 {
      from {
       stroke: black;
       stroke-dashoffset: 365;
       stroke-width: 128;
       }
       54% {
       animation-timing-function: step-end;
       stroke: black;
       stroke-dashoffset: 0;
       stroke-width: 128;
       }
       to {
       stroke: black;
       stroke-width: 1024;
       }
       }
       #make-me-a-hanzi-animation-10 {
         animation: keyframes10 0.547038s both;
         animation-delay: 7.574870s;
         animation-timing-function: linear;
       }
    @keyframes keyframes11 {
      from {
       stroke: black;
       stroke-dashoffset: 623;
       stroke-width: 128;
       }
       67% {
       animation-timing-function: step-end;
       stroke: black;
       stroke-dashoffset: 0;
       stroke-width: 128;
       }
       to {
       stroke: black;
       stroke-width: 1024;
       }
       }
       #make-me-a-hanzi-animation-11 {
         animation: keyframes11 0.756999s both;
         animation-delay: 8.121908s;
         animation-timing-function: linear;
       }
    @keyframes keyframes12 {
      from {
       stroke: black;
       stroke-dashoffset: 438;
       stroke-width: 128;
       }
       59% {
       animation-timing-function: step-end;
       stroke: black;
       stroke-dashoffset: 0;
       stroke-width: 128;
       }
       to {
       stroke: black;
       stroke-width: 1024;
       }
       }
       #make-me-a-hanzi-animation-12 {
         animation: keyframes12 0.606445s both;
         animation-delay: 8.878906s;
         animation-timing-function: linear;
       }
    @keyframes keyframes13 {
      from {
       stroke: black;
       stroke-dashoffset: 595;
       stroke-width: 128;
       }
       66% {
       animation-timing-function: step-end;
       stroke: black;
       stroke-dashoffset: 0;
       stroke-width: 128;
       }
       to {
       stroke: black;
       stroke-width: 1024;
       }
       }
       #make-me-a-hanzi-animation-13 {
         animation: keyframes13 0.734212s both;
         animation-delay: 9.485352s;
         animation-timing-function: linear;
       }
    @keyframes keyframes14 {
      from {
       stroke: black;
       stroke-dashoffset: 448;
       stroke-width: 128;
       }
       59% {
       animation-timing-function: step-end;
       stroke: black;
       stroke-dashoffset: 0;
       stroke-width: 128;
       }
       to {
       stroke: black;
       stroke-width: 1024;
       }
       }
       #make-me-a-hanzi-animation-14 {
         animation: keyframes14 0.614583s both;
         animation-delay: 10.219564s;
         animation-timing-function: linear;
       }
    @keyframes keyframes15 {
      from {
       stroke: black;
       stroke-dashoffset: 415;
       stroke-width: 128;
       }
       57% {
       animation-timing-function: step-end;
       stroke: black;
       stroke-dashoffset: 0;
       stroke-width: 128;
       }
       to {
       stroke: black;
       stroke-width: 1024;
       }
       }
       #make-me-a-hanzi-animation-15 {
         animation: keyframes15 0.587728s both;
         animation-delay: 10.834147s;
         animation-timing-function: linear;
       }
    @keyframes keyframes16 {
      from {
       stroke: black;
       stroke-dashoffset: 488;
       stroke-width: 128;
       }
       61% {
       animation-timing-function: step-end;
       stroke: black;
       stroke-dashoffset: 0;
       stroke-width: 128;
       }
       to {
       stroke: black;
       stroke-width: 1024;
       }
       }
       #make-me-a-hanzi-animation-16 {
         animation: keyframes16 0.647135s both;
         animation-delay: 11.421875s;
         animation-timing-function: linear;
       }
    @keyframes keyframes17 {
      from {
       stroke: black;
       stroke-dashoffset: 389;
       stroke-width: 128;
       }
       56% {
       animation-timing-function: step-end;
       stroke: black;
       stroke-dashoffset: 0;
       stroke-width: 128;
       }
       to {
       stroke: black;
       stroke-width: 1024;
       }
       }
       #make-me-a-hanzi-animation-17 {
         animation: keyframes17 0.566569s both;
         animation-delay: 12.069010s;
         animation-timing-function: linear;
       }
    @keyframes keyframes18 {
      from {
       stroke: black;
       stroke-dashoffset: 409;
       stroke-width: 128;
       }
       57% {
       animation-timing-function: step-end;
       stroke: black;
       stroke-dashoffset: 0;
       stroke-width: 128;
       }
       to {
       stroke: black;
       stroke-width: 1024;
       }
       }
       #make-me-a-hanzi-animation-18 {
         animation: keyframes18 0.582845s both;
         animation-delay: 12.635579s;
         animation-timing-function: linear;
       }
    @keyframes keyframes19 {
      from {
       stroke: black;
       stroke-dashoffset: 502;
       stroke-width: 128;
       }
       62% {
       animation-timing-function: step-end;
       stroke: black;
       stroke-dashoffset: 0;
       stroke-width: 128;
       }
       to {
       stroke: black;
       stroke-width: 1024;
       }
       }
       #make-me-a-hanzi-animation-19 {
         animation: keyframes19 0.658529s both;
         animation-delay: 13.218424s;
         animation-timing-function: linear;
       }
    @keyframes keyframes20 {
      from {
       stroke: black;
       stroke-dashoffset: 403;
       stroke-width: 128;
       }
       57% {
       animation-timing-function: step-end;
       stroke: black;
       stroke-dashoffset: 0;
       stroke-width: 128;
       }
       to {
       stroke: black;
       stroke-width: 1024;
       }
       }
       #make-me-a-hanzi-animation-20 {
         animation: keyframes20 0.577962s both;
         animation-delay: 13.876953s;
         animation-timing-function: linear;
       }
    @keyframes keyframes21 {
      from {
       stroke: black;
       stroke-dashoffset: 814;
       stroke-width: 128;
       }
       73% {
       animation-timing-function: step-end;
       stroke: black;
       stroke-dashoffset: 0;
       stroke-width: 128;
       }
       to {
       stroke: black;
       stroke-width: 1024;
       }
       }
       #make-me-a-hanzi-animation-21 {
         animation: keyframes21 0.912435s both;
         animation-delay: 14.454915s;
         animation-timing-function: linear;
       }
    @keyframes keyframes22 {
      from {
       stroke: black;
       stroke-dashoffset: 712;
       stroke-width: 128;
       }
       70% {
       animation-timing-function: step-end;
       stroke: black;
       stroke-dashoffset: 0;
       stroke-width: 128;
       }
       to {
       stroke: black;
       stroke-width: 1024;
       }
       }
       #make-me-a-hanzi-animation-22 {
         animation: keyframes22 0.829427s both;
         animation-delay: 15.367350s;
         animation-timing-function: linear;
       }
    @keyframes keyframes23 {
      from {
       stroke: black;
       stroke-dashoffset: 625;
       stroke-width: 128;
       }
       67% {
       animation-timing-function: step-end;
       stroke: black;
       stroke-dashoffset: 0;
       stroke-width: 128;
       }
       to {
       stroke: black;
       stroke-width: 1024;
       }
       }
       #make-me-a-hanzi-animation-23 {
         animation: keyframes23 0.758626s both;
         animation-delay: 16.196777s;
         animation-timing-function: linear;
       }
    @keyframes keyframes24 {
      from {
       stroke: black;
       stroke-dashoffset: 714;
       stroke-width: 128;
       }
       70% {
       animation-timing-function: step-end;
       stroke: black;
       stroke-dashoffset: 0;
       stroke-width: 128;
       }
       to {
       stroke: black;
       stroke-width: 1024;
       }
       }
       #make-me-a-hanzi-animation-24 {
         animation: keyframes24 0.831055s both;
         animation-delay: 16.955404s;
         animation-timing-function: linear;
       }
</style>
<path d="M 224 502 Q 258 466 282 468 Q 311 468 311 504 Q 311 530 299.5 540.5 Q 288 551 253 564 Q 213 576 212 576 L 175 583 Q 167 583 165 577.5 Q 163 572 170 565 L 224 502 Z" fill="lightgray"></path> 
<path d="M 89 340 L 111 317 Q 131 292 140.5 281.5 Q 150 271 166.5 266.5 Q 183 262 187 262 Q 191 262 195 266 Q 201 268 206 280 Q 217 305 203 329.5 Q 189 354 147 363 L 108 374 L 79 380 Q 70 382 67 376 Q 62 370 71 361 L 89 340 Z" fill="lightgray"></path> 
<path d="M 163 92 Q 137 56 111 36.5 Q 85 17 83 12 Q 79 -2 83 -18 L 94 -54 Q 109 -102 126 -102 Q 128 -104 133 -102 Q 146 -98 161.5 -46 Q 177 6 190 34 Q 203 62 213 88 L 245 170 L 264 226 Q 267 238 261 241 Q 255 244 249 233 L 163 92 Z" fill="lightgray"></path> 
<path d="M 437 421 L 481 500 Q 483 507 482.5 512 Q 482 517 465 530 Q 448 543 429 549 Q 410 555 406 553 Q 402 551 398.5 548 Q 395 545 397 520.5 Q 399 496 394 466 L 385 430 L 355 354 L 337 324 Q 329 307 332.5 302.5 Q 336 298 349 310 L 387 344 Q 392 352 406 371 L 427 402 L 437 421 Z" fill="lightgray"></path> 
<path d="M 614 424 L 675 438 Q 683 439 707 445 Q 730 451 762 455 L 794 460 Q 800 460 802 468 Q 802 477 791 481 Q 778 489 767 492 L 740 500 L 726 501 L 719 502 L 718 502 Q 717 501 695 493 L 659 480 L 614 466 L 549 449 L 496 435 L 485 433 L 437 421 C 408 414 398 410 427 402 L 461 392 Q 468 388 487 391 L 515 399 L 549 410 L 614 424 Z" fill="lightgray"></path> 
<path d="M 611 283 L 614 424 L 614 466 L 619 581 Q 620 590 623 610 L 635 651 Q 635 655 630 663 Q 625 670 591 687 L 567 695 L 544 701 Q 523 703 523 686 Q 521 680 533 657 Q 544 634 544 582 L 549 449 L 549 410 L 553 272 C 554 242 610 253 611 283 Z" fill="lightgray"></path> 
<path d="M 322 231 Q 310 226 320 217 Q 321 213 333.5 206.5 Q 346 200 355 198 Q 367 192 393 200 L 423 208 L 470 218 L 501 225 L 536 231 L 563 238 Q 590 242 599 242 L 659 254 L 701 258 Q 719 261 773 264 L 829 266 L 875 268 Q 890 268 890 280 Q 892 288 880 297 Q 868 306 860 308 Q 828 327 806 321 L 700 298 L 611 283 L 553 272 L 500 260 L 424 248 Q 365 240 361 239 L 337 236 L 322 231 Z" fill="lightgray"></path> 
<path d="M 470 218 L 467 188 Q 462 146 429 93 Q 396 40 377 17 Q 358 -6 328 -37 Q 297 -68 281 -80 Q 264 -92 238 -107 L 217 -120 Q 210 -126 212 -131 Q 213 -135 221 -132 L 257 -123 Q 263 -122 286 -112 Q 340 -89 393 -38 Q 413 -21 441 16 Q 469 53 491 90 Q 512 127 518 138 Q 523 149 533 161 Q 542 172 542 173 Q 548 188 529 204 L 501 225 C 477 243 473 246 470 218 Z" fill="lightgray"></path> 
<path d="M 599 242 L 606 224 Q 612 207 611 156 L 605 53 Q 603 0 604 -13 Q 604 -53 616 -78 Q 627 -102 657 -120 Q 687 -137 729 -142 Q 870 -156 955 -112 Q 991 -93 1004 -68 Q 1011 -51 996 -27 L 978 1 Q 970 20 968 29 L 955 70 Q 951 81 946 81 Q 942 80 940 74 L 930 24 Q 919 -27 902 -44 Q 895 -51 873 -62 Q 845 -72 810 -77 Q 774 -81 713 -68 Q 679 -61 667 -42 Q 661 -32 662 -8 Q 662 16 668 78 L 673 130 Q 678 172 687 195 Q 695 218 693 224 Q 689 239 659 254 C 633 270 589 270 599 242 Z" fill="lightgray"></path> 
<path d="M 1214 592 Q 1239 568 1265 539 Q 1278 526 1295 525 Q 1307 525 1313 539 Q 1319 554 1310 586 Q 1306 605 1275 621 Q 1206 652 1188 645 Q 1182 641 1183 628 Q 1187 615 1214 592 Z" fill="lightgray"></path> 
<path d="M 1148 397 Q 1184 343 1213 331 Q 1229 327 1239 339 Q 1246 352 1245 369 Q 1241 394 1223 408 Q 1184 438 1145 439 Q 1141 440 1138 438 Q 1131 437 1133 425 Q 1134 412 1148 397 Z" fill="lightgray"></path> 
<path d="M 1124 12 Q 1112 8 1116 -8 Q 1134 -81 1167 -96 Q 1174 -103 1184 -99 Q 1191 -98 1191 -73 Q 1195 -22 1282 231 Q 1289 247 1287 252 Q 1286 262 1277 255 Q 1268 251 1162 57 Q 1152 35 1124 12 Z" fill="lightgray"></path> 
<path d="M 1476 629 Q 1467 633 1434 637 Q 1424 638 1420 634 Q 1416 628 1424 614 Q 1449 572 1470 502 Q 1474 480 1489 467 Q 1505 449 1510 463 Q 1511 470 1511 481 L 1507 510 Q 1491 574 1487 600 C 1483 627 1483 627 1476 629 Z" fill="lightgray"></path> 
<path d="M 1695 525 Q 1725 582 1750 590 Q 1768 606 1755 624 Q 1742 637 1695 665 Q 1679 674 1658 668 Q 1595 646 1476 629 C 1446 625 1458 594 1487 600 Q 1497 603 1641 625 Q 1659 629 1666 621 Q 1672 614 1668 599 L 1644 534 C 1634 506 1681 499 1695 525 Z" fill="lightgray"></path> 
<path d="M 1511 481 Q 1518 481 1529 482 Q 1583 492 1701 500 Q 1710 501 1711 508 Q 1711 514 1695 525 C 1674 540 1673 540 1644 534 Q 1568 518 1507 510 C 1477 506 1481 480 1511 481 Z" fill="lightgray"></path> 
<path d="M 1376 384 Q 1366 388 1336 393 Q 1326 394 1324 391 Q 1320 387 1327 374 Q 1348 337 1363 273 Q 1367 254 1379 243 Q 1394 227 1397 239 Q 1398 246 1399 256 L 1396 279 Q 1387 337 1382 360 C 1377 384 1377 384 1376 384 Z" fill="lightgray"></path> 
<path d="M 1525 298 Q 1538 346 1555 360 Q 1574 382 1555 394 L 1516 418 Q 1500 428 1485 418 Q 1461 405 1431 397 Q 1406 390 1376 384 C 1347 378 1354 350 1382 360 Q 1385 363 1461 377 Q 1483 381 1489 373 Q 1492 370 1481 301 C 1476 271 1517 269 1525 298 Z" fill="lightgray"></path> 
<path d="M 1399 256 Q 1406 256 1414 257 Q 1451 267 1532 276 Q 1539 277 1540 283 Q 1540 287 1525 298 C 1510 309 1510 309 1481 301 Q 1433 288 1396 279 C 1367 272 1369 255 1399 256 Z" fill="lightgray"></path> 
<path d="M 1639 418 Q 1629 422 1608 426 Q 1598 429 1594 425 Q 1590 421 1596 406 Q 1614 370 1626 310 Q 1627 292 1639 280 Q 1652 261 1658 274 L 1660 286 L 1659 315 Q 1653 373 1653 392 C 1653 413 1653 413 1639 418 Z" fill="lightgray"></path> 
<path d="M 1801 327 Q 1819 376 1836 390 Q 1858 412 1837 427 Q 1819 437 1795 455 Q 1777 465 1760 456 Q 1720 432 1639 418 C 1609 413 1624 383 1653 392 Q 1668 398 1738 410 Q 1760 414 1765 405 Q 1769 401 1753 335 C 1746 306 1790 299 1801 327 Z" fill="lightgray"></path> 
<path d="M 1660 286 Q 1672 283 1684 286 Q 1724 293 1808 298 Q 1818 299 1820 307 Q 1820 314 1801 327 L 1753 335 Q 1750 336 1748 335 Q 1699 322 1659 315 C 1629 310 1631 292 1660 286 Z" fill="lightgray"></path> 
<path d="M 1597 151 Q 1636 154 1856 155 Q 1874 155 1878 162 Q 1882 172 1869 186 Q 1821 222 1789 214 Q 1717 201 1599 184 L 1547 178 Q 1441 168 1319 154 Q 1300 153 1314 136 Q 1344 109 1376 117 Q 1437 133 1508 141 L 1597 151 Z" fill="lightgray"></path> 
<path d="M 1596 148 Q 1596 149 1597 151 L 1599 184 Q 1602 217 1598 221 Q 1576 240 1557 250 Q 1545 254 1536 247 Q 1530 243 1537 234 Q 1546 219 1547 178 L 1547 108 Q 1535 -96 1530 -107 Q 1518 -140 1553 -194 Q 1563 -212 1572 -216 Q 1582 -217 1588 -205 Q 1600 -174 1597 -144 Q 1597 -102 1596 114 L 1596 148 Z" fill="lightgray"></path> 
<path d="M 1508 141 Q 1478 39 1270 -95 Q 1254 -105 1268 -108 Q 1278 -109 1315 -96 Q 1361 -81 1404 -50 Q 1441 -22 1483 24 Q 1487 30 1547 108 C 1579 149 1526 193 1508 141 Z" fill="lightgray"></path> 
<path d="M 1596 114 Q 1669 23 1750 -60 Q 1775 -85 1816 -85 Q 1891 -89 1969 -73 Q 1988 -72 1990 -65 Q 1993 -58 1976 -52 Q 1930 -36 1876 -21 Q 1765 15 1618 132 Q 1603 142 1596 148 C 1572 166 1577 137 1596 114 Z" fill="lightgray"></path> 
      <clipPath id="make-me-a-hanzi-clip-0">
      <path d="M 224 502 Q 258 466 282 468 Q 311 468 311 504 Q 311 530 299.5 540.5 Q 288 551 253 564 Q 213 576 212 576 L 175 583 Q 167 583 165 577.5 Q 163 572 170 565 L 224 502 Z" fill="lightgray"></path>
      </clipPath>
      <path clip-path="url(#make-me-a-hanzi-clip-0)" d="M 174 574 L 271 513 L 284 493 " fill="none" id="make-me-a-hanzi-animation-0" stroke-dasharray="266 532" stroke-linecap="round"></path>

      <clipPath id="make-me-a-hanzi-clip-1">
      <path d="M 89 340 L 111 317 Q 131 292 140.5 281.5 Q 150 271 166.5 266.5 Q 183 262 187 262 Q 191 262 195 266 Q 201 268 206 280 Q 217 305 203 329.5 Q 189 354 147 363 L 108 374 L 79 380 Q 70 382 67 376 Q 62 370 71 361 L 89 340 Z" fill="lightgray"></path>
      </clipPath>
      <path clip-path="url(#make-me-a-hanzi-clip-1)" d="M 76 370 L 162 317 L 183 287 L 185 275 " fill="none" id="make-me-a-hanzi-animation-1" stroke-dasharray="278 556" stroke-linecap="round"></path>

      <clipPath id="make-me-a-hanzi-clip-2">
      <path d="M 163 92 Q 137 56 111 36.5 Q 85 17 83 12 Q 79 -2 83 -18 L 94 -54 Q 109 -102 126 -102 Q 128 -104 133 -102 Q 146 -98 161.5 -46 Q 177 6 190 34 Q 203 62 213 88 L 245 170 L 264 226 Q 267 238 261 241 Q 255 244 249 233 L 163 92 Z" fill="lightgray"></path>
      </clipPath>
      <path clip-path="url(#make-me-a-hanzi-clip-2)" d="M 130 -90 L 126 -11 L 183 77 L 258 233 " fill="none" id="make-me-a-hanzi-animation-2" stroke-dasharray="485 970" stroke-linecap="round"></path>

      <clipPath id="make-me-a-hanzi-clip-3">
      <path d="M 437 421 L 481 500 Q 483 507 482.5 512 Q 482 517 465 530 Q 448 543 429 549 Q 410 555 406 553 Q 402 551 398.5 548 Q 395 545 397 520.5 Q 399 496 394 466 L 385 430 L 355 354 L 337 324 Q 329 307 332.5 302.5 Q 336 298 349 310 L 387 344 Q 392 352 406 371 L 427 402 L 437 421 Z" fill="lightgray"></path>
      </clipPath>
      <path clip-path="url(#make-me-a-hanzi-clip-3)" d="M 409 541 L 432 511 L 432 484 L 408 418 L 372 351 L 336 307 " fill="none" id="make-me-a-hanzi-animation-3" stroke-dasharray="396 792" stroke-linecap="round"></path>

      <clipPath id="make-me-a-hanzi-clip-4">
      <path d="M 614 424 L 675 438 Q 683 439 707 445 Q 730 451 762 455 L 794 460 Q 800 460 802 468 Q 802 477 791 481 Q 778 489 767 492 L 740 500 L 726 501 L 719 502 L 718 502 Q 717 501 695 493 L 659 480 L 614 466 L 549 449 L 496 435 L 485 433 L 437 421 C 408 414 398 410 427 402 L 461 392 Q 468 388 487 391 L 515 399 L 549 410 L 614 424 Z" fill="lightgray"></path>
      </clipPath>
      <path clip-path="url(#make-me-a-hanzi-clip-4)" d="M 434 404 L 446 410 L 489 412 L 712 473 L 740 476 L 793 469 " fill="none" id="make-me-a-hanzi-animation-4" stroke-dasharray="497 994" stroke-linecap="round"></path>

      <clipPath id="make-me-a-hanzi-clip-5">
      <path d="M 611 283 L 614 424 L 614 466 L 619 581 Q 620 590 623 610 L 635 651 Q 635 655 630 663 Q 625 670 591 687 L 567 695 L 544 701 Q 523 703 523 686 Q 521 680 533 657 Q 544 634 544 582 L 549 449 L 549 410 L 553 272 C 554 242 610 253 611 283 Z" fill="lightgray"></path>
      </clipPath>
      <path clip-path="url(#make-me-a-hanzi-clip-5)" d="M 538 687 L 585 640 L 582 308 L 559 280 " fill="none" id="make-me-a-hanzi-animation-5" stroke-dasharray="563 1126" stroke-linecap="round"></path>

      <clipPath id="make-me-a-hanzi-clip-6">
      <path d="M 322 231 Q 310 226 320 217 Q 321 213 333.5 206.5 Q 346 200 355 198 Q 367 192 393 200 L 423 208 L 470 218 L 501 225 L 536 231 L 563 238 Q 590 242 599 242 L 659 254 L 701 258 Q 719 261 773 264 L 829 266 L 875 268 Q 890 268 890 280 Q 892 288 880 297 Q 868 306 860 308 Q 828 327 806 321 L 700 298 L 611 283 L 553 272 L 500 260 L 424 248 Q 365 240 361 239 L 337 236 L 322 231 Z" fill="lightgray"></path>
      </clipPath>
      <path clip-path="url(#make-me-a-hanzi-clip-6)" d="M 331 223 L 365 217 L 563 257 L 804 293 L 842 291 L 878 280 " fill="none" id="make-me-a-hanzi-animation-6" stroke-dasharray="684 1368" stroke-linecap="round"></path>

      <clipPath id="make-me-a-hanzi-clip-7">
      <path d="M 470 218 L 467 188 Q 462 146 429 93 Q 396 40 377 17 Q 358 -6 328 -37 Q 297 -68 281 -80 Q 264 -92 238 -107 L 217 -120 Q 210 -126 212 -131 Q 213 -135 221 -132 L 257 -123 Q 263 -122 286 -112 Q 340 -89 393 -38 Q 413 -21 441 16 Q 469 53 491 90 Q 512 127 518 138 Q 523 149 533 161 Q 542 172 542 173 Q 548 188 529 204 L 501 225 C 477 243 473 246 470 218 Z" fill="lightgray"></path>
      </clipPath>
      <path clip-path="url(#make-me-a-hanzi-clip-7)" d="M 480 209 L 495 196 L 502 180 L 464 98 L 406 12 L 329 -66 L 272 -105 L 217 -127 " fill="none" id="make-me-a-hanzi-animation-7" stroke-dasharray="597 1194" stroke-linecap="round"></path>

      <clipPath id="make-me-a-hanzi-clip-8">
      <path d="M 599 242 L 606 224 Q 612 207 611 156 L 605 53 Q 603 0 604 -13 Q 604 -53 616 -78 Q 627 -102 657 -120 Q 687 -137 729 -142 Q 870 -156 955 -112 Q 991 -93 1004 -68 Q 1011 -51 996 -27 L 978 1 Q 970 20 968 29 L 955 70 Q 951 81 946 81 Q 942 80 940 74 L 930 24 Q 919 -27 902 -44 Q 895 -51 873 -62 Q 845 -72 810 -77 Q 774 -81 713 -68 Q 679 -61 667 -42 Q 661 -32 662 -8 Q 662 16 668 78 L 673 130 Q 678 172 687 195 Q 695 218 693 224 Q 689 239 659 254 C 633 270 589 270 599 242 Z" fill="lightgray"></path>
      </clipPath>
      <path clip-path="url(#make-me-a-hanzi-clip-8)" d="M 607 240 L 650 211 L 633 -20 L 642 -61 L 668 -88 L 726 -107 L 794 -112 L 865 -103 L 921 -82 L 955 -53 L 948 73 " fill="none" id="make-me-a-hanzi-animation-8" stroke-dasharray="922 1844" stroke-linecap="round"></path>

      <clipPath id="make-me-a-hanzi-clip-9">
      <path d="M 1214 592 Q 1239 568 1265 539 Q 1278 526 1295 525 Q 1307 525 1313 539 Q 1319 554 1310 586 Q 1306 605 1275 621 Q 1206 652 1188 645 Q 1182 641 1183 628 Q 1187 615 1214 592 Z" fill="lightgray"></path>
      </clipPath>
      <path clip-path="url(#make-me-a-hanzi-clip-9)" d="M 1193 637 L 1272 582 L 1294 544 " fill="none" id="make-me-a-hanzi-animation-9" stroke-dasharray="268 536" stroke-linecap="round"></path>

      <clipPath id="make-me-a-hanzi-clip-10">
      <path d="M 1148 397 Q 1184 343 1213 331 Q 1229 327 1239 339 Q 1246 352 1245 369 Q 1241 394 1223 408 Q 1184 438 1145 439 Q 1141 440 1138 438 Q 1131 437 1133 425 Q 1134 412 1148 397 Z" fill="lightgray"></path>
      </clipPath>
      <path clip-path="url(#make-me-a-hanzi-clip-10)" d="M 1143 429 L 1198 386 L 1220 354 " fill="none" id="make-me-a-hanzi-animation-10" stroke-dasharray="237 474" stroke-linecap="round"></path>

      <clipPath id="make-me-a-hanzi-clip-11">
      <path d="M 1124 12 Q 1112 8 1116 -8 Q 1134 -81 1167 -96 Q 1174 -103 1184 -99 Q 1191 -98 1191 -73 Q 1195 -22 1282 231 Q 1289 247 1287 252 Q 1286 262 1277 255 Q 1268 251 1162 57 Q 1152 35 1124 12 Z" fill="lightgray"></path>
      </clipPath>
      <path clip-path="url(#make-me-a-hanzi-clip-11)" d="M 1178 -89 L 1166 -62 L 1161 -12 L 1281 249 " fill="none" id="make-me-a-hanzi-animation-11" stroke-dasharray="495 990" stroke-linecap="round"></path>

      <clipPath id="make-me-a-hanzi-clip-12">
      <path d="M 1476 629 Q 1467 633 1434 637 Q 1424 638 1420 634 Q 1416 628 1424 614 Q 1449 572 1470 502 Q 1474 480 1489 467 Q 1505 449 1510 463 Q 1511 470 1511 481 L 1507 510 Q 1491 574 1487 600 C 1483 627 1483 627 1476 629 Z" fill="lightgray"></path>
      </clipPath>
      <path clip-path="url(#make-me-a-hanzi-clip-12)" d="M 1428 629 L 1456 608 L 1464 591 L 1500 468 " fill="none" id="make-me-a-hanzi-animation-12" stroke-dasharray="310 620" stroke-linecap="round"></path>

      <clipPath id="make-me-a-hanzi-clip-13">
      <path d="M 1695 525 Q 1725 582 1750 590 Q 1768 606 1755 624 Q 1742 637 1695 665 Q 1679 674 1658 668 Q 1595 646 1476 629 C 1446 625 1458 594 1487 600 Q 1497 603 1641 625 Q 1659 629 1666 621 Q 1672 614 1668 599 L 1644 534 C 1634 506 1681 499 1695 525 Z" fill="lightgray"></path>
      </clipPath>
      <path clip-path="url(#make-me-a-hanzi-clip-13)" d="M 1487 608 L 1508 620 L 1599 632 L 1659 647 L 1676 645 L 1690 637 L 1709 610 L 1680 555 L 1651 539 " fill="none" id="make-me-a-hanzi-animation-13" stroke-dasharray="467 934" stroke-linecap="round"></path>

      <clipPath id="make-me-a-hanzi-clip-14">
      <path d="M 1511 481 Q 1518 481 1529 482 Q 1583 492 1701 500 Q 1710 501 1711 508 Q 1711 514 1695 525 C 1674 540 1673 540 1644 534 Q 1568 518 1507 510 C 1477 506 1481 480 1511 481 Z" fill="lightgray"></path>
      </clipPath>
      <path clip-path="url(#make-me-a-hanzi-clip-14)" d="M 1515 489 L 1530 498 L 1639 515 L 1703 508 " fill="none" id="make-me-a-hanzi-animation-14" stroke-dasharray="320 640" stroke-linecap="round"></path>

      <clipPath id="make-me-a-hanzi-clip-15">
      <path d="M 1376 384 Q 1366 388 1336 393 Q 1326 394 1324 391 Q 1320 387 1327 374 Q 1348 337 1363 273 Q 1367 254 1379 243 Q 1394 227 1397 239 Q 1398 246 1399 256 L 1396 279 Q 1387 337 1382 360 C 1377 384 1377 384 1376 384 Z" fill="lightgray"></path>
      </clipPath>
      <path clip-path="url(#make-me-a-hanzi-clip-15)" d="M 1331 386 L 1359 361 L 1388 243 " fill="none" id="make-me-a-hanzi-animation-15" stroke-dasharray="287 574" stroke-linecap="round"></path>

      <clipPath id="make-me-a-hanzi-clip-16">
      <path d="M 1525 298 Q 1538 346 1555 360 Q 1574 382 1555 394 L 1516 418 Q 1500 428 1485 418 Q 1461 405 1431 397 Q 1406 390 1376 384 C 1347 378 1354 350 1382 360 Q 1385 363 1461 377 Q 1483 381 1489 373 Q 1492 370 1481 301 C 1476 271 1517 269 1525 298 Z" fill="lightgray"></path>
      </clipPath>
      <path clip-path="url(#make-me-a-hanzi-clip-16)" d="M 1381 366 L 1400 378 L 1501 397 L 1523 375 L 1508 322 L 1489 313 " fill="none" id="make-me-a-hanzi-animation-16" stroke-dasharray="360 720" stroke-linecap="round"></path>

      <clipPath id="make-me-a-hanzi-clip-17">
      <path d="M 1399 256 Q 1406 256 1414 257 Q 1451 267 1532 276 Q 1539 277 1540 283 Q 1540 287 1525 298 C 1510 309 1510 309 1481 301 Q 1433 288 1396 279 C 1367 272 1369 255 1399 256 Z" fill="lightgray"></path>
      </clipPath>
      <path clip-path="url(#make-me-a-hanzi-clip-17)" d="M 1404 274 L 1410 269 L 1477 285 L 1533 283 " fill="none" id="make-me-a-hanzi-animation-17" stroke-dasharray="261 522" stroke-linecap="round"></path>

      <clipPath id="make-me-a-hanzi-clip-18">
      <path d="M 1639 418 Q 1629 422 1608 426 Q 1598 429 1594 425 Q 1590 421 1596 406 Q 1614 370 1626 310 Q 1627 292 1639 280 Q 1652 261 1658 274 L 1660 286 L 1659 315 Q 1653 373 1653 392 C 1653 413 1653 413 1639 418 Z" fill="lightgray"></path>
      </clipPath>
      <path clip-path="url(#make-me-a-hanzi-clip-18)" d="M 1601 420 L 1630 385 L 1649 279 " fill="none" id="make-me-a-hanzi-animation-18" stroke-dasharray="281 562" stroke-linecap="round"></path>

      <clipPath id="make-me-a-hanzi-clip-19">
      <path d="M 1801 327 Q 1819 376 1836 390 Q 1858 412 1837 427 Q 1819 437 1795 455 Q 1777 465 1760 456 Q 1720 432 1639 418 C 1609 413 1624 383 1653 392 Q 1668 398 1738 410 Q 1760 414 1765 405 Q 1769 401 1753 335 C 1746 306 1790 299 1801 327 Z" fill="lightgray"></path>
      </clipPath>
      <path clip-path="url(#make-me-a-hanzi-clip-19)" d="M 1650 415 L 1661 408 L 1766 433 L 1784 428 L 1802 406 L 1784 356 L 1761 346 " fill="none" id="make-me-a-hanzi-animation-19" stroke-dasharray="374 748" stroke-linecap="round"></path>

      <clipPath id="make-me-a-hanzi-clip-20">
      <path d="M 1660 286 Q 1672 283 1684 286 Q 1724 293 1808 298 Q 1818 299 1820 307 Q 1820 314 1801 327 L 1753 335 Q 1750 336 1748 335 Q 1699 322 1659 315 C 1629 310 1631 292 1660 286 Z" fill="lightgray"></path>
      </clipPath>
      <path clip-path="url(#make-me-a-hanzi-clip-20)" d="M 1667 294 L 1683 303 L 1751 315 L 1810 307 " fill="none" id="make-me-a-hanzi-animation-20" stroke-dasharray="275 550" stroke-linecap="round"></path>

      <clipPath id="make-me-a-hanzi-clip-21">
      <path d="M 1597 151 Q 1636 154 1856 155 Q 1874 155 1878 162 Q 1882 172 1869 186 Q 1821 222 1789 214 Q 1717 201 1599 184 L 1547 178 Q 1441 168 1319 154 Q 1300 153 1314 136 Q 1344 109 1376 117 Q 1437 133 1508 141 L 1597 151 Z" fill="lightgray"></path>
      </clipPath>
      <path clip-path="url(#make-me-a-hanzi-clip-21)" d="M 1317 145 L 1367 137 L 1610 170 L 1804 185 L 1869 167 " fill="none" id="make-me-a-hanzi-animation-21" stroke-dasharray="686 1372" stroke-linecap="round"></path>

      <clipPath id="make-me-a-hanzi-clip-22">
      <path d="M 1596 148 Q 1596 149 1597 151 L 1599 184 Q 1602 217 1598 221 Q 1576 240 1557 250 Q 1545 254 1536 247 Q 1530 243 1537 234 Q 1546 219 1547 178 L 1547 108 Q 1535 -96 1530 -107 Q 1518 -140 1553 -194 Q 1563 -212 1572 -216 Q 1582 -217 1588 -205 Q 1600 -174 1597 -144 Q 1597 -102 1596 114 L 1596 148 Z" fill="lightgray"></path>
      </clipPath>
      <path clip-path="url(#make-me-a-hanzi-clip-22)" d="M 1544 241 L 1568 215 L 1574 195 L 1562 -128 L 1574 -204 " fill="none" id="make-me-a-hanzi-animation-22" stroke-dasharray="584 1168" stroke-linecap="round"></path>

      <clipPath id="make-me-a-hanzi-clip-23">
      <path d="M 1508 141 Q 1478 39 1270 -95 Q 1254 -105 1268 -108 Q 1278 -109 1315 -96 Q 1361 -81 1404 -50 Q 1441 -22 1483 24 Q 1487 30 1547 108 C 1579 149 1526 193 1508 141 Z" fill="lightgray"></path>
      </clipPath>
      <path clip-path="url(#make-me-a-hanzi-clip-23)" d="M 1541 139 L 1463 31 L 1418 -13 L 1352 -61 L 1271 -102 " fill="none" id="make-me-a-hanzi-animation-23" stroke-dasharray="497 994" stroke-linecap="round"></path>

      <clipPath id="make-me-a-hanzi-clip-24">
      <path d="M 1596 114 Q 1669 23 1750 -60 Q 1775 -85 1816 -85 Q 1891 -89 1969 -73 Q 1988 -72 1990 -65 Q 1993 -58 1976 -52 Q 1930 -36 1876 -21 Q 1765 15 1618 132 Q 1603 142 1596 148 C 1572 166 1577 137 1596 114 Z" fill="lightgray"></path>
      </clipPath>
      <path clip-path="url(#make-me-a-hanzi-clip-24)" d="M 1599 142 L 1612 117 L 1634 95 L 1789 -34 L 1853 -51 L 1983 -63 " fill="none" id="make-me-a-hanzi-animation-24" stroke-dasharray="586 1172" stroke-linecap="round"></path>

</g>
</svg>
