<svg version="1.1" viewBox="0 0 2048 1024" xmlns="http://www.w3.org/2000/svg">
  <g stroke="lightgray" stroke-dasharray="1,1" stroke-width="1" transform="scale(4, 4)">
    <line x1="0" y1="0" x2="256" y2="256"></line>
    <line x1="256" y1="0" x2="0" y2="256"></line>
    <line x1="128" y1="0" x2="128" y2="256"></line>
    <line x1="0" y1="128" x2="256" y2="128"></line>
    <line x1="256" y1="0" x2="512" y2="256"></line>
    <line x1="512" y1="0" x2="256" y2="256"></line>
    <line x1="384" y1="0" x2="384" y2="256"></line>
    <line x1="256" y1="128" x2="512" y2="128"></line>
  </g>
<g transform="scale(1, -1) translate(0, -850)">
   <style type="text/css">
    @keyframes keyframes0 {
      from {
       stroke: black;
       stroke-dashoffset: 391;
       stroke-width: 128;
       }
       56% {
       animation-timing-function: step-end;
       stroke: black;
       stroke-dashoffset: 0;
       stroke-width: 128;
       }
       to {
       stroke: black;
       stroke-width: 1024;
       }
       }
       #make-me-a-hanzi-animation-0 {
         animation: keyframes0 0.568197s both;
         animation-delay: 0.000000s;
         animation-timing-function: linear;
       }
    @keyframes keyframes1 {
      from {
       stroke: black;
       stroke-dashoffset: 382;
       stroke-width: 128;
       }
       55% {
       animation-timing-function: step-end;
       stroke: black;
       stroke-dashoffset: 0;
       stroke-width: 128;
       }
       to {
       stroke: black;
       stroke-width: 1024;
       }
       }
       #make-me-a-hanzi-animation-1 {
         animation: keyframes1 0.560872s both;
         animation-delay: 0.568197s;
         animation-timing-function: linear;
       }
    @keyframes keyframes2 {
      from {
       stroke: black;
       stroke-dashoffset: 577;
       stroke-width: 128;
       }
       65% {
       animation-timing-function: step-end;
       stroke: black;
       stroke-dashoffset: 0;
       stroke-width: 128;
       }
       to {
       stroke: black;
       stroke-width: 1024;
       }
       }
       #make-me-a-hanzi-animation-2 {
         animation: keyframes2 0.719564s both;
         animation-delay: 1.129069s;
         animation-timing-function: linear;
       }
    @keyframes keyframes3 {
      from {
       stroke: black;
       stroke-dashoffset: 707;
       stroke-width: 128;
       }
       70% {
       animation-timing-function: step-end;
       stroke: black;
       stroke-dashoffset: 0;
       stroke-width: 128;
       }
       to {
       stroke: black;
       stroke-width: 1024;
       }
       }
       #make-me-a-hanzi-animation-3 {
         animation: keyframes3 0.825358s both;
         animation-delay: 1.848633s;
         animation-timing-function: linear;
       }
    @keyframes keyframes4 {
      from {
       stroke: black;
       stroke-dashoffset: 883;
       stroke-width: 128;
       }
       74% {
       animation-timing-function: step-end;
       stroke: black;
       stroke-dashoffset: 0;
       stroke-width: 128;
       }
       to {
       stroke: black;
       stroke-width: 1024;
       }
       }
       #make-me-a-hanzi-animation-4 {
         animation: keyframes4 0.968587s both;
         animation-delay: 2.673991s;
         animation-timing-function: linear;
       }
    @keyframes keyframes5 {
      from {
       stroke: black;
       stroke-dashoffset: 895;
       stroke-width: 128;
       }
       74% {
       animation-timing-function: step-end;
       stroke: black;
       stroke-dashoffset: 0;
       stroke-width: 128;
       }
       to {
       stroke: black;
       stroke-width: 1024;
       }
       }
       #make-me-a-hanzi-animation-5 {
         animation: keyframes5 0.978353s both;
         animation-delay: 3.642578s;
         animation-timing-function: linear;
       }
    @keyframes keyframes6 {
      from {
       stroke: black;
       stroke-dashoffset: 448;
       stroke-width: 128;
       }
       59% {
       animation-timing-function: step-end;
       stroke: black;
       stroke-dashoffset: 0;
       stroke-width: 128;
       }
       to {
       stroke: black;
       stroke-width: 1024;
       }
       }
       #make-me-a-hanzi-animation-6 {
         animation: keyframes6 0.614583s both;
         animation-delay: 4.620931s;
         animation-timing-function: linear;
       }
    @keyframes keyframes7 {
      from {
       stroke: black;
       stroke-dashoffset: 633;
       stroke-width: 128;
       }
       67% {
       animation-timing-function: step-end;
       stroke: black;
       stroke-dashoffset: 0;
       stroke-width: 128;
       }
       to {
       stroke: black;
       stroke-width: 1024;
       }
       }
       #make-me-a-hanzi-animation-7 {
         animation: keyframes7 0.765137s both;
         animation-delay: 5.235514s;
         animation-timing-function: linear;
       }
    @keyframes keyframes8 {
      from {
       stroke: black;
       stroke-dashoffset: 1189;
       stroke-width: 128;
       }
       79% {
       animation-timing-function: step-end;
       stroke: black;
       stroke-dashoffset: 0;
       stroke-width: 128;
       }
       to {
       stroke: black;
       stroke-width: 1024;
       }
       }
       #make-me-a-hanzi-animation-8 {
         animation: keyframes8 1.217611s both;
         animation-delay: 6.000651s;
         animation-timing-function: linear;
       }
    @keyframes keyframes9 {
      from {
       stroke: black;
       stroke-dashoffset: 519;
       stroke-width: 128;
       }
       63% {
       animation-timing-function: step-end;
       stroke: black;
       stroke-dashoffset: 0;
       stroke-width: 128;
       }
       to {
       stroke: black;
       stroke-width: 1024;
       }
       }
       #make-me-a-hanzi-animation-9 {
         animation: keyframes9 0.672363s both;
         animation-delay: 7.218262s;
         animation-timing-function: linear;
       }
    @keyframes keyframes10 {
      from {
       stroke: black;
       stroke-dashoffset: 840;
       stroke-width: 128;
       }
       73% {
       animation-timing-function: step-end;
       stroke: black;
       stroke-dashoffset: 0;
       stroke-width: 128;
       }
       to {
       stroke: black;
       stroke-width: 1024;
       }
       }
       #make-me-a-hanzi-animation-10 {
         animation: keyframes10 0.933594s both;
         animation-delay: 7.890625s;
         animation-timing-function: linear;
       }
    @keyframes keyframes11 {
      from {
       stroke: black;
       stroke-dashoffset: 546;
       stroke-width: 128;
       }
       64% {
       animation-timing-function: step-end;
       stroke: black;
       stroke-dashoffset: 0;
       stroke-width: 128;
       }
       to {
       stroke: black;
       stroke-width: 1024;
       }
       }
       #make-me-a-hanzi-animation-11 {
         animation: keyframes11 0.694336s both;
         animation-delay: 8.824219s;
         animation-timing-function: linear;
       }
    @keyframes keyframes12 {
      from {
       stroke: black;
       stroke-dashoffset: 502;
       stroke-width: 128;
       }
       62% {
       animation-timing-function: step-end;
       stroke: black;
       stroke-dashoffset: 0;
       stroke-width: 128;
       }
       to {
       stroke: black;
       stroke-width: 1024;
       }
       }
       #make-me-a-hanzi-animation-12 {
         animation: keyframes12 0.658529s both;
         animation-delay: 9.518555s;
         animation-timing-function: linear;
       }
    @keyframes keyframes13 {
      from {
       stroke: black;
       stroke-dashoffset: 1090;
       stroke-width: 128;
       }
       78% {
       animation-timing-function: step-end;
       stroke: black;
       stroke-dashoffset: 0;
       stroke-width: 128;
       }
       to {
       stroke: black;
       stroke-width: 1024;
       }
       }
       #make-me-a-hanzi-animation-13 {
         animation: keyframes13 1.137044s both;
         animation-delay: 10.177083s;
         animation-timing-function: linear;
       }
    @keyframes keyframes14 {
      from {
       stroke: black;
       stroke-dashoffset: 522;
       stroke-width: 128;
       }
       63% {
       animation-timing-function: step-end;
       stroke: black;
       stroke-dashoffset: 0;
       stroke-width: 128;
       }
       to {
       stroke: black;
       stroke-width: 1024;
       }
       }
       #make-me-a-hanzi-animation-14 {
         animation: keyframes14 0.674805s both;
         animation-delay: 11.314128s;
         animation-timing-function: linear;
       }
    @keyframes keyframes15 {
      from {
       stroke: black;
       stroke-dashoffset: 891;
       stroke-width: 128;
       }
       74% {
       animation-timing-function: step-end;
       stroke: black;
       stroke-dashoffset: 0;
       stroke-width: 128;
       }
       to {
       stroke: black;
       stroke-width: 1024;
       }
       }
       #make-me-a-hanzi-animation-15 {
         animation: keyframes15 0.975098s both;
         animation-delay: 11.988932s;
         animation-timing-function: linear;
       }
    @keyframes keyframes16 {
      from {
       stroke: black;
       stroke-dashoffset: 482;
       stroke-width: 128;
       }
       61% {
       animation-timing-function: step-end;
       stroke: black;
       stroke-dashoffset: 0;
       stroke-width: 128;
       }
       to {
       stroke: black;
       stroke-width: 1024;
       }
       }
       #make-me-a-hanzi-animation-16 {
         animation: keyframes16 0.642253s both;
         animation-delay: 12.964030s;
         animation-timing-function: linear;
       }
    @keyframes keyframes17 {
      from {
       stroke: black;
       stroke-dashoffset: 548;
       stroke-width: 128;
       }
       64% {
       animation-timing-function: step-end;
       stroke: black;
       stroke-dashoffset: 0;
       stroke-width: 128;
       }
       to {
       stroke: black;
       stroke-width: 1024;
       }
       }
       #make-me-a-hanzi-animation-17 {
         animation: keyframes17 0.695964s both;
         animation-delay: 13.606283s;
         animation-timing-function: linear;
       }
    @keyframes keyframes18 {
      from {
       stroke: black;
       stroke-dashoffset: 635;
       stroke-width: 128;
       }
       67% {
       animation-timing-function: step-end;
       stroke: black;
       stroke-dashoffset: 0;
       stroke-width: 128;
       }
       to {
       stroke: black;
       stroke-width: 1024;
       }
       }
       #make-me-a-hanzi-animation-18 {
         animation: keyframes18 0.766764s both;
         animation-delay: 14.302246s;
         animation-timing-function: linear;
       }
    @keyframes keyframes19 {
      from {
       stroke: black;
       stroke-dashoffset: 648;
       stroke-width: 128;
       }
       68% {
       animation-timing-function: step-end;
       stroke: black;
       stroke-dashoffset: 0;
       stroke-width: 128;
       }
       to {
       stroke: black;
       stroke-width: 1024;
       }
       }
       #make-me-a-hanzi-animation-19 {
         animation: keyframes19 0.777344s both;
         animation-delay: 15.069010s;
         animation-timing-function: linear;
       }
    @keyframes keyframes20 {
      from {
       stroke: black;
       stroke-dashoffset: 943;
       stroke-width: 128;
       }
       75% {
       animation-timing-function: step-end;
       stroke: black;
       stroke-dashoffset: 0;
       stroke-width: 128;
       }
       to {
       stroke: black;
       stroke-width: 1024;
       }
       }
       #make-me-a-hanzi-animation-20 {
         animation: keyframes20 1.017415s both;
         animation-delay: 15.846354s;
         animation-timing-function: linear;
       }
</style>
<path d="M 200 651 Q 179 651 179 647 Q 179 641 212 588 Q 250 531 275 531 Q 299 531 299 558 Q 299 578 292 597 Q 278 626 250 638 Q 227 649 200 651 Z" fill="lightgray"></path> 
<path d="M 124 454 Q 103 454 103 451 Q 103 446 137 403 Q 176 355 204 355 Q 227 355 227 382 Q 227 398 219 413 Q 206 436 175 445 Q 152 454 124 454 Z" fill="lightgray"></path> 
<path d="M 263 283 Q 261 283 195 162 Q 163 103 131 86 Q 116 79 116 67 Q 116 43 136 7 Q 157 -29 171 -29 Q 183 -29 187 -10 Q 191 20 233 142 Q 271 259 271 275 Q 271 283 263 283 Z" fill="lightgray"></path> 
<path d="M 347 630 Q 336 629 336 619 Q 336 616 348 590 Q 359 563 359 531 L 359 382 Q 359 323 350 269 Q 340 245 340 235 Q 340 221 350 198 Q 365 170 372 170 Q 388 170 395 194 Q 398 223 399 263 L 399 487 Q 399 525 406 576 C 409 599 409 599 403 604 Q 398 612 379 620 Q 358 630 347 630 Z" fill="lightgray"></path> 
<path d="M 406 576 Q 407 575 408 575 Q 419 575 486 588 Q 541 598 552 598 Q 575 598 575 546 L 575 383 Q 575 345 574 300 Q 571 250 571 214 Q 571 209 583 189 Q 594 174 607 174 Q 618 174 623 211 Q 624 239 624 463 Q 624 554 636 589 Q 643 610 643 615 Q 643 625 620 643 Q 594 663 575 663 Q 567 663 530 644 Q 479 619 403 604 C 374 598 376 574 406 576 Z" fill="lightgray"></path> 
<path d="M 456 495 Q 443 495 443 487 Q 443 481 450 469 Q 468 438 468 395 Q 468 281 443 198 Q 424 125 391 76 Q 359 24 292 -29 Q 263 -47 263 -54 Q 263 -58 271 -58 Q 299 -58 352 -17 Q 410 30 440 89 Q 482 159 509 318 Q 520 399 528 423 Q 536 445 536 451 Q 536 468 502 483 Q 474 495 456 495 Z" fill="lightgray"></path> 
<path d="M 508 151 Q 504 151 504 143 Q 504 138 529 103 Q 554 69 588 14 Q 610 -25 628 -25 Q 655 -25 655 11 Q 655 31 641 58 Q 621 88 553 130 Q 519 151 508 151 Z" fill="lightgray"></path> 
<path d="M 703 575 Q 691 575 691 567 Q 691 564 699 548 Q 716 519 716 483 Q 715 361 712 317 Q 695 259 695 246 Q 695 237 703 216 Q 718 191 731 191 Q 742 191 748 205 Q 756 223 756 267 L 760 535 Q 760 555 745 564 Q 728 574 703 575 Z" fill="lightgray"></path> 
<path d="M 823 743 Q 811 743 811 730 Q 811 726 821 712 Q 848 679 848 607 L 848 42 Q 848 5 815 2 Q 815 5 784 15 Q 750 30 739 30 Q 735 30 735 27 Q 736 20 744 13 Q 765 -4 822 -91 Q 830 -105 840 -105 Q 872 -105 892 -65 Q 911 -16 911 34 Q 911 60 904 139 Q 899 202 899 558 Q 899 612 911 654 Q 918 678 920 682 Q 920 702 879 724 Q 846 743 823 743 Z" fill="lightgray"></path> 
<path d="M 1415 552 L 1407 623 L 1404 651 L 1392 714 C 1386 743 1386 745 1386 745 L 1359 753 Q 1315 766 1313 756 Q 1310 745 1324 734 Q 1338 723 1345 699 L 1351 674 L 1369 564 Q 1371 538 1383 522 Q 1394 506 1400 507 Q 1406 508 1407 511 Q 1408 514 1415 521 C 1418 524 1418 524 1415 552 Z" fill="lightgray"></path> 
<path d="M 1696 648 L 1681 594 Q 1681 588 1671 567 C 1663 549 1663 549 1669 539 Q 1676 525 1677 525 Q 1678 524 1682 520 Q 1685 516 1688 518 Q 1690 520 1697 520 Q 1717 526 1727 553 Q 1736 579 1758 641 L 1778 692 Q 1784 707 1796 719 Q 1807 730 1807 735 Q 1807 751 1777 764 L 1745 780 L 1719 790 Q 1705 796 1699 792 Q 1692 788 1687 788 Q 1670 780 1641 775 Q 1611 769 1601 769 Q 1532 758 1515 756 L 1428 746 Q 1393 746 1386 745 C 1356 744 1362 711 1392 714 L 1629 738 Q 1675 742 1681 744 Q 1713 744 1709 709 Q 1708 699 1703 672 L 1696 648 Z" fill="lightgray"></path> 
<path d="M 1407 623 L 1419 621 L 1492 626 Q 1494 626 1527 630 Q 1560 633 1599 637 Q 1638 641 1651 643 L 1696 648 C 1726 651 1732 665 1703 672 L 1681 677 L 1648 683 L 1646 682 L 1644 682 L 1635 681 L 1625 680 L 1581 674 Q 1518 664 1499 663 L 1486 662 Q 1435 651 1404 651 C 1374 650 1377 628 1407 623 Z" fill="lightgray"></path> 
<path d="M 1671 567 L 1652 573 Q 1627 578 1621 577 L 1566 570 L 1464 559 L 1415 552 C 1385 548 1385 519 1415 521 L 1669 539 C 1699 541 1700 558 1671 567 Z" fill="lightgray"></path> 
<path d="M 1279 398 L 1346 410 Q 1400 419 1536 429.5 Q 1672 440 1789 440 L 1940 440 Q 1964 440 1976.5 445.5 Q 1989 451 1976 464 Q 1971 470 1940 487 Q 1909 504 1890.5 504 Q 1872 504 1857 500 Q 1845 500 1802 492 L 1733 485 L 1718 484 Q 1704 483 1669.5 480 Q 1635 477 1595 474 Q 1555 471 1450 460.5 Q 1345 450 1305 447 L 1229 444 L 1169 440 L 1146 440 Q 1138 440 1137 436 Q 1134 423 1155 412 L 1174 400 Q 1201 385 1218 385 Q 1223 384 1249 390 L 1279 398 Z" fill="lightgray"></path> 
<path d="M 1392 221 L 1377 316 C 1372 346 1372 349 1367 350 L 1325 359 Q 1317 361 1308 359 Q 1288 355 1300 343 L 1313 330 Q 1328 315 1331 290 Q 1335 281 1345 217 Q 1354 152 1357 134 Q 1360 115 1368 106 Q 1376 97 1385 100 Q 1393 102 1398 115 L 1401 148 L 1392 221 Z" fill="lightgray"></path> 
<path d="M 1581 334 L 1688 345 Q 1718 347 1723 339 Q 1735 323 1721 268 L 1707 198 Q 1700 166 1700 164 C 1695 137 1693 139 1694 138 L 1703 121 Q 1709 109 1722 108 Q 1748 108 1770 192 L 1786 252 Q 1797 300 1818 333 Q 1824 344 1824 349 Q 1824 365 1791 384 L 1777 392 Q 1752 407 1742 407 L 1725 403 Q 1719 398 1655 387 L 1631 383 Q 1613 380 1569 374 L 1367 350 C 1337 346 1347 314 1377 316 L 1518 327 L 1581 334 Z" fill="lightgray"></path> 
<path d="M 1577 230 L 1670 240 Q 1684 246 1664.5 263.5 Q 1645 281 1631.5 279.5 Q 1618 278 1610 277 L 1598 276 Q 1594 275 1593 275 L 1579 273 L 1519 265 L 1456 260 Q 1455 260 1444.5 260 Q 1434 260 1430 255.5 Q 1426 251 1429.5 243 Q 1433 235 1442.5 229 Q 1452 223 1484 221 L 1519 225 L 1577 230 Z" fill="lightgray"></path> 
<path d="M 1700 164 L 1675 176 Q 1660 185 1627 177 L 1575 167 L 1520 158 L 1401 148 C 1371 145 1368 114 1398 115 L 1451 116 Q 1464 116 1519 122 L 1574 129 L 1694 138 C 1724 140 1727 151 1700 164 Z" fill="lightgray"></path> 
<path d="M 1572 16 L 1619 18 L 1717 28 Q 1741 29 1745.5 30.5 Q 1750 32 1755 44 Q 1755 51 1734 62.5 Q 1713 74 1688 73 L 1650 67 L 1572 58 L 1519 50 L 1482 47 Q 1436 41 1403 39 L 1369 36 Q 1364 36 1362.5 32 Q 1361 28 1372 17 Q 1383 6 1404.5 5 Q 1426 4 1428 6 L 1518 10 L 1572 16 Z" fill="lightgray"></path> 
<path d="M 1579 273 L 1581 334 C 1582 364 1518 357 1518 327 L 1519 265 L 1519 225 L 1520 158 L 1519 122 L 1519 50 L 1518 10 L 1516 -55 C 1515 -85 1571 -80 1571 -50 L 1572 16 L 1572 58 L 1574 129 L 1575 167 Q 1576 178 1576 199 Q 1576 220 1577 230 L 1579 273 Z" fill="lightgray"></path> 
<path d="M 1516 -55 L 1445 -61 Q 1412 -64 1376 -66 Q 1340 -68 1273 -72 L 1231 -74 Q 1210 -74 1221 -86 Q 1222 -94 1236 -101 L 1262 -114 Q 1292 -126 1307 -121 L 1336 -115 Q 1398 -106 1420 -104 L 1498 -96 Q 1530 -92 1633.5 -88 Q 1737 -84 1749 -86 L 1843 -89 L 1889 -89 Q 1897 -90 1910 -87 Q 1945 -79 1898 -50 Q 1897 -50 1875.5 -38 Q 1854 -26 1845 -25.5 Q 1836 -25 1824 -26 L 1766 -34 Q 1750 -38 1690 -41 L 1571 -50 L 1516 -55 Z" fill="lightgray"></path> 
      <clipPath id="make-me-a-hanzi-clip-0">
      <path d="M 200 651 Q 179 651 179 647 Q 179 641 212 588 Q 250 531 275 531 Q 299 531 299 558 Q 299 578 292 597 Q 278 626 250 638 Q 227 649 200 651 Z" fill="lightgray"></path>
      </clipPath>
      <path clip-path="url(#make-me-a-hanzi-clip-0)" d="M 183 646 L 247 599 L 277 552 " fill="none" id="make-me-a-hanzi-animation-0" stroke-dasharray="263 526" stroke-linecap="round"></path>

      <clipPath id="make-me-a-hanzi-clip-1">
      <path d="M 124 454 Q 103 454 103 451 Q 103 446 137 403 Q 176 355 204 355 Q 227 355 227 382 Q 227 398 219 413 Q 206 436 175 445 Q 152 454 124 454 Z" fill="lightgray"></path>
      </clipPath>
      <path clip-path="url(#make-me-a-hanzi-clip-1)" d="M 107 450 L 171 413 L 206 375 " fill="none" id="make-me-a-hanzi-animation-1" stroke-dasharray="254 508" stroke-linecap="round"></path>

      <clipPath id="make-me-a-hanzi-clip-2">
      <path d="M 263 283 Q 261 283 195 162 Q 163 103 131 86 Q 116 79 116 67 Q 116 43 136 7 Q 157 -29 171 -29 Q 183 -29 187 -10 Q 191 20 233 142 Q 271 259 271 275 Q 271 283 263 283 Z" fill="lightgray"></path>
      </clipPath>
      <path clip-path="url(#make-me-a-hanzi-clip-2)" d="M 171 -16 L 160 55 L 209 137 L 267 279 " fill="none" id="make-me-a-hanzi-animation-2" stroke-dasharray="449 898" stroke-linecap="round"></path>

      <clipPath id="make-me-a-hanzi-clip-3">
      <path d="M 347 630 Q 336 629 336 619 Q 336 616 348 590 Q 359 563 359 531 L 359 382 Q 359 323 350 269 Q 340 245 340 235 Q 340 221 350 198 Q 365 170 372 170 Q 388 170 395 194 Q 398 223 399 263 L 399 487 Q 399 525 406 576 C 409 599 409 599 403 604 Q 398 612 379 620 Q 358 630 347 630 Z" fill="lightgray"></path>
      </clipPath>
      <path clip-path="url(#make-me-a-hanzi-clip-3)" d="M 348 618 L 377 591 L 381 571 L 378 315 L 369 233 L 374 181 " fill="none" id="make-me-a-hanzi-animation-3" stroke-dasharray="579 1158" stroke-linecap="round"></path>

      <clipPath id="make-me-a-hanzi-clip-4">
      <path d="M 406 576 Q 407 575 408 575 Q 419 575 486 588 Q 541 598 552 598 Q 575 598 575 546 L 575 383 Q 575 345 574 300 Q 571 250 571 214 Q 571 209 583 189 Q 594 174 607 174 Q 618 174 623 211 Q 624 239 624 463 Q 624 554 636 589 Q 643 610 643 615 Q 643 625 620 643 Q 594 663 575 663 Q 567 663 530 644 Q 479 619 403 604 C 374 598 376 574 406 576 Z" fill="lightgray"></path>
      </clipPath>
      <path clip-path="url(#make-me-a-hanzi-clip-4)" d="M 411 583 L 420 592 L 471 600 L 550 625 L 579 626 L 601 608 L 597 218 L 604 186 " fill="none" id="make-me-a-hanzi-animation-4" stroke-dasharray="755 1510" stroke-linecap="round"></path>

      <clipPath id="make-me-a-hanzi-clip-5">
      <path d="M 456 495 Q 443 495 443 487 Q 443 481 450 469 Q 468 438 468 395 Q 468 281 443 198 Q 424 125 391 76 Q 359 24 292 -29 Q 263 -47 263 -54 Q 263 -58 271 -58 Q 299 -58 352 -17 Q 410 30 440 89 Q 482 159 509 318 Q 520 399 528 423 Q 536 445 536 451 Q 536 468 502 483 Q 474 495 456 495 Z" fill="lightgray"></path>
      </clipPath>
      <path clip-path="url(#make-me-a-hanzi-clip-5)" d="M 453 485 L 498 443 L 484 291 L 452 158 L 422 91 L 381 32 L 320 -24 L 268 -53 " fill="none" id="make-me-a-hanzi-animation-5" stroke-dasharray="767 1534" stroke-linecap="round"></path>

      <clipPath id="make-me-a-hanzi-clip-6">
      <path d="M 508 151 Q 504 151 504 143 Q 504 138 529 103 Q 554 69 588 14 Q 610 -25 628 -25 Q 655 -25 655 11 Q 655 31 641 58 Q 621 88 553 130 Q 519 151 508 151 Z" fill="lightgray"></path>
      </clipPath>
      <path clip-path="url(#make-me-a-hanzi-clip-6)" d="M 510 145 L 586 73 L 614 37 L 630 -2 " fill="none" id="make-me-a-hanzi-animation-6" stroke-dasharray="320 640" stroke-linecap="round"></path>

      <clipPath id="make-me-a-hanzi-clip-7">
      <path d="M 703 575 Q 691 575 691 567 Q 691 564 699 548 Q 716 519 716 483 Q 715 361 712 317 Q 695 259 695 246 Q 695 237 703 216 Q 718 191 731 191 Q 742 191 748 205 Q 756 223 756 267 L 760 535 Q 760 555 745 564 Q 728 574 703 575 Z" fill="lightgray"></path>
      </clipPath>
      <path clip-path="url(#make-me-a-hanzi-clip-7)" d="M 700 566 L 729 545 L 737 512 L 736 338 L 725 245 L 731 206 " fill="none" id="make-me-a-hanzi-animation-7" stroke-dasharray="505 1010" stroke-linecap="round"></path>

      <clipPath id="make-me-a-hanzi-clip-8">
      <path d="M 823 743 Q 811 743 811 730 Q 811 726 821 712 Q 848 679 848 607 L 848 42 Q 848 5 815 2 Q 815 5 784 15 Q 750 30 739 30 Q 735 30 735 27 Q 736 20 744 13 Q 765 -4 822 -91 Q 830 -105 840 -105 Q 872 -105 892 -65 Q 911 -16 911 34 Q 911 60 904 139 Q 899 202 899 558 Q 899 612 911 654 Q 918 678 920 682 Q 920 702 879 724 Q 846 743 823 743 Z" fill="lightgray"></path>
      </clipPath>
      <path clip-path="url(#make-me-a-hanzi-clip-8)" d="M 822 732 L 859 704 L 879 674 L 873 552 L 878 15 L 870 -9 L 848 -41 L 819 -30 L 770 9 L 740 25 " fill="none" id="make-me-a-hanzi-animation-8" stroke-dasharray="1061 2122" stroke-linecap="round"></path>

      <clipPath id="make-me-a-hanzi-clip-9">
      <path d="M 1415 552 L 1407 623 L 1404 651 L 1392 714 C 1386 743 1386 745 1386 745 L 1359 753 Q 1315 766 1313 756 Q 1310 745 1324 734 Q 1338 723 1345 699 L 1351 674 L 1369 564 Q 1371 538 1383 522 Q 1394 506 1400 507 Q 1406 508 1407 511 Q 1408 514 1415 521 C 1418 524 1418 524 1415 552 Z" fill="lightgray"></path>
      </clipPath>
      <path clip-path="url(#make-me-a-hanzi-clip-9)" d="M 1320 751 L 1343 742 L 1363 725 L 1400 516 " fill="none" id="make-me-a-hanzi-animation-9" stroke-dasharray="391 782" stroke-linecap="round"></path>

      <clipPath id="make-me-a-hanzi-clip-10">
      <path d="M 1696 648 L 1681 594 Q 1681 588 1671 567 C 1663 549 1663 549 1669 539 Q 1676 525 1677 525 Q 1678 524 1682 520 Q 1685 516 1688 518 Q 1690 520 1697 520 Q 1717 526 1727 553 Q 1736 579 1758 641 L 1778 692 Q 1784 707 1796 719 Q 1807 730 1807 735 Q 1807 751 1777 764 L 1745 780 L 1719 790 Q 1705 796 1699 792 Q 1692 788 1687 788 Q 1670 780 1641 775 Q 1611 769 1601 769 Q 1532 758 1515 756 L 1428 746 Q 1393 746 1386 745 C 1356 744 1362 711 1392 714 L 1629 738 Q 1675 742 1681 744 Q 1713 744 1709 709 Q 1708 699 1703 672 L 1696 648 Z" fill="lightgray"></path>
      </clipPath>
      <path clip-path="url(#make-me-a-hanzi-clip-10)" d="M 1390 738 L 1404 731 L 1430 731 L 1678 764 L 1716 762 L 1750 730 L 1727 641 L 1689 532 " fill="none" id="make-me-a-hanzi-animation-10" stroke-dasharray="712 1424" stroke-linecap="round"></path>

      <clipPath id="make-me-a-hanzi-clip-11">
      <path d="M 1407 623 L 1419 621 L 1492 626 Q 1494 626 1527 630 Q 1560 633 1599 637 Q 1638 641 1651 643 L 1696 648 C 1726 651 1732 665 1703 672 L 1681 677 L 1648 683 L 1646 682 L 1644 682 L 1635 681 L 1625 680 L 1581 674 Q 1518 664 1499 663 L 1486 662 Q 1435 651 1404 651 C 1374 650 1377 628 1407 623 Z" fill="lightgray"></path>
      </clipPath>
      <path clip-path="url(#make-me-a-hanzi-clip-11)" d="M 1410 645 L 1421 637 L 1440 637 L 1696 667 " fill="none" id="make-me-a-hanzi-animation-11" stroke-dasharray="418 836" stroke-linecap="round"></path>

      <clipPath id="make-me-a-hanzi-clip-12">
      <path d="M 1671 567 L 1652 573 Q 1627 578 1621 577 L 1566 570 L 1464 559 L 1415 552 C 1385 548 1385 519 1415 521 L 1669 539 C 1699 541 1700 558 1671 567 Z" fill="lightgray"></path>
      </clipPath>
      <path clip-path="url(#make-me-a-hanzi-clip-12)" d="M 1422 529 L 1436 539 L 1664 560 " fill="none" id="make-me-a-hanzi-animation-12" stroke-dasharray="374 748" stroke-linecap="round"></path>

      <clipPath id="make-me-a-hanzi-clip-13">
      <path d="M 1279 398 L 1346 410 Q 1400 419 1536 429.5 Q 1672 440 1789 440 L 1940 440 Q 1964 440 1976.5 445.5 Q 1989 451 1976 464 Q 1971 470 1940 487 Q 1909 504 1890.5 504 Q 1872 504 1857 500 Q 1845 500 1802 492 L 1733 485 L 1718 484 Q 1704 483 1669.5 480 Q 1635 477 1595 474 Q 1555 471 1450 460.5 Q 1345 450 1305 447 L 1229 444 L 1169 440 L 1146 440 Q 1138 440 1137 436 Q 1134 423 1155 412 L 1174 400 Q 1201 385 1218 385 Q 1223 384 1249 390 L 1279 398 Z" fill="lightgray"></path>
      </clipPath>
      <path clip-path="url(#make-me-a-hanzi-clip-13)" d="M 1145 431 L 1221 414 L 1533 450 L 1877 472 L 1973 455 " fill="none" id="make-me-a-hanzi-animation-13" stroke-dasharray="962 1924" stroke-linecap="round"></path>

      <clipPath id="make-me-a-hanzi-clip-14">
      <path d="M 1392 221 L 1377 316 C 1372 346 1372 349 1367 350 L 1325 359 Q 1317 361 1308 359 Q 1288 355 1300 343 L 1313 330 Q 1328 315 1331 290 Q 1335 281 1345 217 Q 1354 152 1357 134 Q 1360 115 1368 106 Q 1376 97 1385 100 Q 1393 102 1398 115 L 1401 148 L 1392 221 Z" fill="lightgray"></path>
      </clipPath>
      <path clip-path="url(#make-me-a-hanzi-clip-14)" d="M 1305 351 L 1347 328 L 1352 315 L 1381 113 " fill="none" id="make-me-a-hanzi-animation-14" stroke-dasharray="394 788" stroke-linecap="round"></path>

      <clipPath id="make-me-a-hanzi-clip-15">
      <path d="M 1581 334 L 1688 345 Q 1718 347 1723 339 Q 1735 323 1721 268 L 1707 198 Q 1700 166 1700 164 C 1695 137 1693 139 1694 138 L 1703 121 Q 1709 109 1722 108 Q 1748 108 1770 192 L 1786 252 Q 1797 300 1818 333 Q 1824 344 1824 349 Q 1824 365 1791 384 L 1777 392 Q 1752 407 1742 407 L 1725 403 Q 1719 398 1655 387 L 1631 383 Q 1613 380 1569 374 L 1367 350 C 1337 346 1347 314 1377 316 L 1518 327 L 1581 334 Z" fill="lightgray"></path>
      </clipPath>
      <path clip-path="url(#make-me-a-hanzi-clip-15)" d="M 1375 346 L 1385 337 L 1399 335 L 1692 370 L 1737 371 L 1752 364 L 1771 343 L 1722 126 " fill="none" id="make-me-a-hanzi-animation-15" stroke-dasharray="763 1526" stroke-linecap="round"></path>

      <clipPath id="make-me-a-hanzi-clip-16">
      <path d="M 1577 230 L 1670 240 Q 1684 246 1664.5 263.5 Q 1645 281 1631.5 279.5 Q 1618 278 1610 277 L 1598 276 Q 1594 275 1593 275 L 1579 273 L 1519 265 L 1456 260 Q 1455 260 1444.5 260 Q 1434 260 1430 255.5 Q 1426 251 1429.5 243 Q 1433 235 1442.5 229 Q 1452 223 1484 221 L 1519 225 L 1577 230 Z" fill="lightgray"></path>
      </clipPath>
      <path clip-path="url(#make-me-a-hanzi-clip-16)" d="M 1440 249 L 1476 241 L 1634 258 L 1663 251 " fill="none" id="make-me-a-hanzi-animation-16" stroke-dasharray="354 708" stroke-linecap="round"></path>

      <clipPath id="make-me-a-hanzi-clip-17">
      <path d="M 1700 164 L 1675 176 Q 1660 185 1627 177 L 1575 167 L 1520 158 L 1401 148 C 1371 145 1368 114 1398 115 L 1451 116 Q 1464 116 1519 122 L 1574 129 L 1694 138 C 1724 140 1727 151 1700 164 Z" fill="lightgray"></path>
      </clipPath>
      <path clip-path="url(#make-me-a-hanzi-clip-17)" d="M 1405 120 L 1425 134 L 1507 137 L 1639 157 L 1680 154 L 1690 159 " fill="none" id="make-me-a-hanzi-animation-17" stroke-dasharray="420 840" stroke-linecap="round"></path>

      <clipPath id="make-me-a-hanzi-clip-18">
      <path d="M 1572 16 L 1619 18 L 1717 28 Q 1741 29 1745.5 30.5 Q 1750 32 1755 44 Q 1755 51 1734 62.5 Q 1713 74 1688 73 L 1650 67 L 1572 58 L 1519 50 L 1482 47 Q 1436 41 1403 39 L 1369 36 Q 1364 36 1362.5 32 Q 1361 28 1372 17 Q 1383 6 1404.5 5 Q 1426 4 1428 6 L 1518 10 L 1572 16 Z" fill="lightgray"></path>
      </clipPath>
      <path clip-path="url(#make-me-a-hanzi-clip-18)" d="M 1368 30 L 1411 22 L 1685 49 L 1745 43 " fill="none" id="make-me-a-hanzi-animation-18" stroke-dasharray="507 1014" stroke-linecap="round"></path>

      <clipPath id="make-me-a-hanzi-clip-19">
      <path d="M 1579 273 L 1581 334 C 1582 364 1518 357 1518 327 L 1519 265 L 1519 225 L 1520 158 L 1519 122 L 1519 50 L 1518 10 L 1516 -55 C 1515 -85 1571 -80 1571 -50 L 1572 16 L 1572 58 L 1574 129 L 1575 167 Q 1576 178 1576 199 Q 1576 220 1577 230 L 1579 273 Z" fill="lightgray"></path>
      </clipPath>
      <path clip-path="url(#make-me-a-hanzi-clip-19)" d="M 1574 327 L 1550 297 L 1545 -17 L 1522 -49 " fill="none" id="make-me-a-hanzi-animation-19" stroke-dasharray="520 1040" stroke-linecap="round"></path>

      <clipPath id="make-me-a-hanzi-clip-20">
      <path d="M 1516 -55 L 1445 -61 Q 1412 -64 1376 -66 Q 1340 -68 1273 -72 L 1231 -74 Q 1210 -74 1221 -86 Q 1222 -94 1236 -101 L 1262 -114 Q 1292 -126 1307 -121 L 1336 -115 Q 1398 -106 1420 -104 L 1498 -96 Q 1530 -92 1633.5 -88 Q 1737 -84 1749 -86 L 1843 -89 L 1889 -89 Q 1897 -90 1910 -87 Q 1945 -79 1898 -50 Q 1897 -50 1875.5 -38 Q 1854 -26 1845 -25.5 Q 1836 -25 1824 -26 L 1766 -34 Q 1750 -38 1690 -41 L 1571 -50 L 1516 -55 Z" fill="lightgray"></path>
      </clipPath>
      <path clip-path="url(#make-me-a-hanzi-clip-20)" d="M 1232 -85 L 1292 -97 L 1538 -72 L 1831 -57 L 1901 -69 L 1913 -76 " fill="none" id="make-me-a-hanzi-animation-20" stroke-dasharray="815 1630" stroke-linecap="round"></path>

</g>
</svg>
