<svg version="1.1" viewBox="0 0 2048 1024" xmlns="http://www.w3.org/2000/svg">
  <g stroke="lightgray" stroke-dasharray="1,1" stroke-width="1" transform="scale(4, 4)">
    <line x1="0" y1="0" x2="256" y2="256"></line>
    <line x1="256" y1="0" x2="0" y2="256"></line>
    <line x1="128" y1="0" x2="128" y2="256"></line>
    <line x1="0" y1="128" x2="256" y2="128"></line>
    <line x1="256" y1="0" x2="512" y2="256"></line>
    <line x1="512" y1="0" x2="256" y2="256"></line>
    <line x1="384" y1="0" x2="384" y2="256"></line>
    <line x1="256" y1="128" x2="512" y2="128"></line>
  </g>
<g transform="scale(1, -1) translate(0, -850)">
   <style type="text/css">
    @keyframes keyframes0 {
      from {
       stroke: black;
       stroke-dashoffset: 390;
       stroke-width: 128;
       }
       56% {
       animation-timing-function: step-end;
       stroke: black;
       stroke-dashoffset: 0;
       stroke-width: 128;
       }
       to {
       stroke: black;
       stroke-width: 1024;
       }
       }
       #make-me-a-hanzi-animation-0 {
         animation: keyframes0 0.567383s both;
         animation-delay: 0.000000s;
         animation-timing-function: linear;
       }
    @keyframes keyframes1 {
      from {
       stroke: black;
       stroke-dashoffset: 397;
       stroke-width: 128;
       }
       56% {
       animation-timing-function: step-end;
       stroke: black;
       stroke-dashoffset: 0;
       stroke-width: 128;
       }
       to {
       stroke: black;
       stroke-width: 1024;
       }
       }
       #make-me-a-hanzi-animation-1 {
         animation: keyframes1 0.573079s both;
         animation-delay: 0.567383s;
         animation-timing-function: linear;
       }
    @keyframes keyframes2 {
      from {
       stroke: black;
       stroke-dashoffset: 628;
       stroke-width: 128;
       }
       67% {
       animation-timing-function: step-end;
       stroke: black;
       stroke-dashoffset: 0;
       stroke-width: 128;
       }
       to {
       stroke: black;
       stroke-width: 1024;
       }
       }
       #make-me-a-hanzi-animation-2 {
         animation: keyframes2 0.761068s both;
         animation-delay: 1.140462s;
         animation-timing-function: linear;
       }
    @keyframes keyframes3 {
      from {
       stroke: black;
       stroke-dashoffset: 381;
       stroke-width: 128;
       }
       55% {
       animation-timing-function: step-end;
       stroke: black;
       stroke-dashoffset: 0;
       stroke-width: 128;
       }
       to {
       stroke: black;
       stroke-width: 1024;
       }
       }
       #make-me-a-hanzi-animation-3 {
         animation: keyframes3 0.560059s both;
         animation-delay: 1.901530s;
         animation-timing-function: linear;
       }
    @keyframes keyframes4 {
      from {
       stroke: black;
       stroke-dashoffset: 497;
       stroke-width: 128;
       }
       62% {
       animation-timing-function: step-end;
       stroke: black;
       stroke-dashoffset: 0;
       stroke-width: 128;
       }
       to {
       stroke: black;
       stroke-width: 1024;
       }
       }
       #make-me-a-hanzi-animation-4 {
         animation: keyframes4 0.654460s both;
         animation-delay: 2.461589s;
         animation-timing-function: linear;
       }
    @keyframes keyframes5 {
      from {
       stroke: black;
       stroke-dashoffset: 784;
       stroke-width: 128;
       }
       72% {
       animation-timing-function: step-end;
       stroke: black;
       stroke-dashoffset: 0;
       stroke-width: 128;
       }
       to {
       stroke: black;
       stroke-width: 1024;
       }
       }
       #make-me-a-hanzi-animation-5 {
         animation: keyframes5 0.888021s both;
         animation-delay: 3.116048s;
         animation-timing-function: linear;
       }
    @keyframes keyframes6 {
      from {
       stroke: black;
       stroke-dashoffset: 480;
       stroke-width: 128;
       }
       61% {
       animation-timing-function: step-end;
       stroke: black;
       stroke-dashoffset: 0;
       stroke-width: 128;
       }
       to {
       stroke: black;
       stroke-width: 1024;
       }
       }
       #make-me-a-hanzi-animation-6 {
         animation: keyframes6 0.640625s both;
         animation-delay: 4.004069s;
         animation-timing-function: linear;
       }
    @keyframes keyframes7 {
      from {
       stroke: black;
       stroke-dashoffset: 369;
       stroke-width: 128;
       }
       55% {
       animation-timing-function: step-end;
       stroke: black;
       stroke-dashoffset: 0;
       stroke-width: 128;
       }
       to {
       stroke: black;
       stroke-width: 1024;
       }
       }
       #make-me-a-hanzi-animation-7 {
         animation: keyframes7 0.550293s both;
         animation-delay: 4.644694s;
         animation-timing-function: linear;
       }
    @keyframes keyframes8 {
      from {
       stroke: black;
       stroke-dashoffset: 490;
       stroke-width: 128;
       }
       61% {
       animation-timing-function: step-end;
       stroke: black;
       stroke-dashoffset: 0;
       stroke-width: 128;
       }
       to {
       stroke: black;
       stroke-width: 1024;
       }
       }
       #make-me-a-hanzi-animation-8 {
         animation: keyframes8 0.648763s both;
         animation-delay: 5.194987s;
         animation-timing-function: linear;
       }
    @keyframes keyframes9 {
      from {
       stroke: black;
       stroke-dashoffset: 843;
       stroke-width: 128;
       }
       73% {
       animation-timing-function: step-end;
       stroke: black;
       stroke-dashoffset: 0;
       stroke-width: 128;
       }
       to {
       stroke: black;
       stroke-width: 1024;
       }
       }
       #make-me-a-hanzi-animation-9 {
         animation: keyframes9 0.936035s both;
         animation-delay: 5.843750s;
         animation-timing-function: linear;
       }
    @keyframes keyframes10 {
      from {
       stroke: black;
       stroke-dashoffset: 731;
       stroke-width: 128;
       }
       70% {
       animation-timing-function: step-end;
       stroke: black;
       stroke-dashoffset: 0;
       stroke-width: 128;
       }
       to {
       stroke: black;
       stroke-width: 1024;
       }
       }
       #make-me-a-hanzi-animation-10 {
         animation: keyframes10 0.844889s both;
         animation-delay: 6.779785s;
         animation-timing-function: linear;
       }
    @keyframes keyframes11 {
      from {
       stroke: black;
       stroke-dashoffset: 822;
       stroke-width: 128;
       }
       73% {
       animation-timing-function: step-end;
       stroke: black;
       stroke-dashoffset: 0;
       stroke-width: 128;
       }
       to {
       stroke: black;
       stroke-width: 1024;
       }
       }
       #make-me-a-hanzi-animation-11 {
         animation: keyframes11 0.918945s both;
         animation-delay: 7.624674s;
         animation-timing-function: linear;
       }
    @keyframes keyframes12 {
      from {
       stroke: black;
       stroke-dashoffset: 755;
       stroke-width: 128;
       }
       71% {
       animation-timing-function: step-end;
       stroke: black;
       stroke-dashoffset: 0;
       stroke-width: 128;
       }
       to {
       stroke: black;
       stroke-width: 1024;
       }
       }
       #make-me-a-hanzi-animation-12 {
         animation: keyframes12 0.864421s both;
         animation-delay: 8.543620s;
         animation-timing-function: linear;
       }
    @keyframes keyframes13 {
      from {
       stroke: black;
       stroke-dashoffset: 568;
       stroke-width: 128;
       }
       65% {
       animation-timing-function: step-end;
       stroke: black;
       stroke-dashoffset: 0;
       stroke-width: 128;
       }
       to {
       stroke: black;
       stroke-width: 1024;
       }
       }
       #make-me-a-hanzi-animation-13 {
         animation: keyframes13 0.712240s both;
         animation-delay: 9.408040s;
         animation-timing-function: linear;
       }
    @keyframes keyframes14 {
      from {
       stroke: black;
       stroke-dashoffset: 1447;
       stroke-width: 128;
       }
       82% {
       animation-timing-function: step-end;
       stroke: black;
       stroke-dashoffset: 0;
       stroke-width: 128;
       }
       to {
       stroke: black;
       stroke-width: 1024;
       }
       }
       #make-me-a-hanzi-animation-14 {
         animation: keyframes14 1.427572s both;
         animation-delay: 10.120280s;
         animation-timing-function: linear;
       }
</style>
<path d="M 289 482 Q 315 482 315 519.5 Q 315 557 290 573 Q 269 584 254 588 L 217 598 L 194 602 Q 185 602 182 598 Q 178 590 185 583 L 203 561 Q 224 531 241 512 Q 271 482 289 482 Z" fill="lightgray"></path> 
<path d="M 201 260 Q 206 259 218 265 Q 229 272 229 294 Q 231 327 206 343 Q 196 349 179 354 L 127 370 L 107 375 Q 93 378 89 374 Q 86 370 93 357 L 109 337 Q 133 304 140.5 297 Q 148 290 157 283 Q 166 276 173 269.5 Q 180 263 190.5 262.5 Q 201 262 201 260 Z" fill="lightgray"></path> 
<path d="M 203 109 Q 196 98 190 88 L 175 68 L 149 35 Q 130 13 115 3.5 Q 100 -6 96 -10 Q 92 -14 91.5 -34 Q 91 -54 107 -93.5 Q 123 -133 137 -134 Q 141 -135 148.5 -131.5 Q 156 -128 160 -108.5 Q 164 -89 175 -56 L 203 6 L 225 64 L 287 212 Q 291 223 282.5 225 Q 274 227 269 219 L 203 109 Z" fill="lightgray"></path> 
<path d="M 395 554 Q 387 556 384 553.5 Q 381 551 385 544 L 389 531 Q 389 529 411 487.5 Q 433 446 446 439 Q 459 432 470.5 435.5 Q 482 439 483.5 469 Q 485 499 474 513.5 Q 463 528 443 537 Q 423 546 415 548 L 395 554 Z" fill="lightgray"></path> 
<path d="M 604 459 L 687 494 Q 768 530 769 531 L 800 542 Q 821 549 824 554 Q 826 558 823 572 Q 811 590 792 606 Q 772 621 759 621 Q 755 620 741 599 Q 727 577 720 568 Q 713 559 678 527 Q 643 495 606 476 C 580 462 576 447 604 459 Z" fill="lightgray"></path> 
<path d="M 554 601 Q 554 593 555 591 L 555 584 L 554 571 L 553 555 L 551 507 Q 551 501 541.5 445.5 Q 532 390 483 342 Q 454 314 406 290 L 379 275 Q 365 268 368 264 Q 369 261 380 262 L 408 266 Q 473 275 526 321 Q 551 343 557 350 Q 586 389 596 420 L 601 442 L 604 459 L 606 476 L 613 558 L 618 602 Q 619 621 625.5 637.5 Q 632 654 630 659 Q 629 665 618 670 L 593 680 L 567 686 Q 548 691 542 687 Q 530 682 536 666 L 549 635 Q 552 622 553 613 L 554 601 Z" fill="lightgray"></path> 
<path d="M 596 420 L 624 400 L 636 388 Q 652 374 660 366 L 697 326 L 723 302 Q 739 288 758 281 Q 777 273 781 277 Q 797 286 798 308 Q 798 347 747 380 Q 696 413 635 431 L 601 442 C 572 451 572 437 596 420 Z" fill="lightgray"></path> 
<path d="M 385 184 Q 372 188 366 184 Q 362 180 366 170 L 379 148 Q 385 134 391 122 L 409 94 Q 416 83 429 76 Q 442 69 454 74.5 Q 466 80 468.5 107.5 Q 471 135 459.5 147.5 Q 448 160 437 166 Q 414 175 408 177 L 385 184 Z" fill="lightgray"></path> 
<path d="M 615 88 L 767 148 L 804 160 L 821 167 Q 833 171 834 177 Q 837 189 808 218 L 785 236 Q 770 244 766 243 Q 762 242 757 240 Q 752 237 744 223 Q 713 176 656 132 Q 647 125 606 100 C 580 84 587 77 615 88 Z" fill="lightgray"></path> 
<path d="M 599 107 L 606 138 Q 606 144 610 165 L 614 202 Q 615 212 620 223 Q 622 232 627 240 Q 639 254 630 262.5 Q 621 271 615 272.5 Q 609 274 583 284 Q 547 294 540 289 Q 526 282 537 260 L 548 238 Q 552 227 553 210 Q 553 148 533 90 Q 502 4 414 -67 Q 380 -94 309 -132 L 283 -144 Q 270 -148 273 -156 Q 275 -160 290 -155 L 308 -150 Q 361 -134 376 -126 Q 412 -113 431 -99 Q 450 -85 477 -66.5 Q 504 -48 529 -18 Q 556 10 589 76 L 599 107 Z" fill="lightgray"></path> 
<path d="M 589 76 L 613 47 L 646 2 Q 672 -35 681 -44 L 718 -88 Q 746 -120 769 -144 Q 790 -160 804 -165 Q 817 -170 858 -168 Q 899 -165 925 -159 Q 959 -155 976 -144 Q 984 -139 982 -137 Q 982 -134 969 -130 L 943 -123 Q 936 -122 885 -100 L 823 -74 Q 816 -71 754 -30 Q 692 11 660 45 Q 642 61 615 88 L 606 100 L 599 107 C 579 129 570 99 589 76 Z" fill="lightgray"></path> 
<path d="M 1320 386 L 1336 410 L 1371 471 Q 1397 511 1402 524 Q 1408 536 1419 547 Q 1431 558 1431 569 Q 1431 579 1406 597 Q 1381 614 1366 619 Q 1352 623 1349 622 Q 1338 623 1338 614 Q 1336 611 1338 603 L 1338 580 Q 1339 568 1315 505 L 1285 439 Q 1250 368 1182 274 Q 1145 222 1139 216 Q 1091 168 1081 159 Q 1077 155 1077 149 Q 1075 137 1088 146 L 1107 156 Q 1166 189 1244 280 L 1294 342 L 1320 386 Z" fill="lightgray"></path> 
<path d="M 1332 -65 L 1348 267 Q 1348 283 1350 297 L 1356 330 Q 1356 341 1351 349 Q 1346 357 1334 370 Q 1322 383 1320 386 C 1300 409 1292 372 1294 342 L 1298 268 L 1288 94 Q 1287 54 1273 12 Q 1260 -30 1260 -42 Q 1260 -54 1266 -75 L 1279 -104 Q 1284 -117 1288 -124 Q 1292 -131 1302 -131 Q 1307 -133 1313 -123 Q 1319 -113 1325 -91 Q 1332 -70 1332 -65 Z" fill="lightgray"></path> 
<path d="M 1595 333 Q 1673 345 1724 354 Q 1852 376 1899 408 Q 1903 412 1895 432 Q 1887 452 1870 472 Q 1854 492 1841 497 Q 1829 501 1821 485 Q 1812 455 1721 409 Q 1684 390 1599 362 C 1571 353 1565 328 1595 333 Z" fill="lightgray"></path> 
<path d="M 1539 512 L 1539 430 L 1524 74 Q 1524 47 1537 4 Q 1571 -121 1748 -117 Q 1863 -115 1902 -100 Q 1919 -93 1941 -85 Q 1963 -78 1977 -66 Q 1992 -54 1991 -44 Q 1991 -35 1985 -16 Q 1968 15 1961 77 L 1951 141 Q 1951 146 1946 146 Q 1942 146 1940 141 L 1938 123 L 1926 64 Q 1913 12 1886 -10 Q 1859 -33 1834 -38 Q 1809 -44 1759 -44 Q 1709 -44 1667 -37 Q 1626 -30 1609 -8 Q 1592 13 1585 56 Q 1579 99 1579 122 L 1590 290 L 1595 333 L 1599 362 L 1610 458 Q 1612 470 1622 510 Q 1632 549 1632 554 Q 1635 568 1599 585 Q 1540 614 1527 596 L 1526 587 Q 1526 585 1531 564 Q 1537 542 1539 512 Z" fill="lightgray"></path> 
      <clipPath id="make-me-a-hanzi-clip-0">
      <path d="M 289 482 Q 315 482 315 519.5 Q 315 557 290 573 Q 269 584 254 588 L 217 598 L 194 602 Q 185 602 182 598 Q 178 590 185 583 L 203 561 Q 224 531 241 512 Q 271 482 289 482 Z" fill="lightgray"></path>
      </clipPath>
      <path clip-path="url(#make-me-a-hanzi-clip-0)" d="M 191 592 L 266 542 L 290 505 " fill="none" id="make-me-a-hanzi-animation-0" stroke-dasharray="262 524" stroke-linecap="round"></path>

      <clipPath id="make-me-a-hanzi-clip-1">
      <path d="M 201 260 Q 206 259 218 265 Q 229 272 229 294 Q 231 327 206 343 Q 196 349 179 354 L 127 370 L 107 375 Q 93 378 89 374 Q 86 370 93 357 L 109 337 Q 133 304 140.5 297 Q 148 290 157 283 Q 166 276 173 269.5 Q 180 263 190.5 262.5 Q 201 262 201 260 Z" fill="lightgray"></path>
      </clipPath>
      <path clip-path="url(#make-me-a-hanzi-clip-1)" d="M 94 370 L 187 309 L 204 284 " fill="none" id="make-me-a-hanzi-animation-1" stroke-dasharray="269 538" stroke-linecap="round"></path>

      <clipPath id="make-me-a-hanzi-clip-2">
      <path d="M 203 109 Q 196 98 190 88 L 175 68 L 149 35 Q 130 13 115 3.5 Q 100 -6 96 -10 Q 92 -14 91.5 -34 Q 91 -54 107 -93.5 Q 123 -133 137 -134 Q 141 -135 148.5 -131.5 Q 156 -128 160 -108.5 Q 164 -89 175 -56 L 203 6 L 225 64 L 287 212 Q 291 223 282.5 225 Q 274 227 269 219 L 203 109 Z" fill="lightgray"></path>
      </clipPath>
      <path clip-path="url(#make-me-a-hanzi-clip-2)" d="M 139 -118 L 135 -37 L 202 65 L 278 216 " fill="none" id="make-me-a-hanzi-animation-2" stroke-dasharray="500 1000" stroke-linecap="round"></path>

      <clipPath id="make-me-a-hanzi-clip-3">
      <path d="M 395 554 Q 387 556 384 553.5 Q 381 551 385 544 L 389 531 Q 389 529 411 487.5 Q 433 446 446 439 Q 459 432 470.5 435.5 Q 482 439 483.5 469 Q 485 499 474 513.5 Q 463 528 443 537 Q 423 546 415 548 L 395 554 Z" fill="lightgray"></path>
      </clipPath>
      <path clip-path="url(#make-me-a-hanzi-clip-3)" d="M 390 549 L 441 501 L 463 451 " fill="none" id="make-me-a-hanzi-animation-3" stroke-dasharray="253 506" stroke-linecap="round"></path>

      <clipPath id="make-me-a-hanzi-clip-4">
      <path d="M 604 459 L 687 494 Q 768 530 769 531 L 800 542 Q 821 549 824 554 Q 826 558 823 572 Q 811 590 792 606 Q 772 621 759 621 Q 755 620 741 599 Q 727 577 720 568 Q 713 559 678 527 Q 643 495 606 476 C 580 462 576 447 604 459 Z" fill="lightgray"></path>
      </clipPath>
      <path clip-path="url(#make-me-a-hanzi-clip-4)" d="M 814 559 L 768 571 L 693 513 L 615 474 L 611 463 " fill="none" id="make-me-a-hanzi-animation-4" stroke-dasharray="369 738" stroke-linecap="round"></path>

      <clipPath id="make-me-a-hanzi-clip-5">
      <path d="M 554 601 Q 554 593 555 591 L 555 584 L 554 571 L 553 555 L 551 507 Q 551 501 541.5 445.5 Q 532 390 483 342 Q 454 314 406 290 L 379 275 Q 365 268 368 264 Q 369 261 380 262 L 408 266 Q 473 275 526 321 Q 551 343 557 350 Q 586 389 596 420 L 601 442 L 604 459 L 606 476 L 613 558 L 618 602 Q 619 621 625.5 637.5 Q 632 654 630 659 Q 629 665 618 670 L 593 680 L 567 686 Q 548 691 542 687 Q 530 682 536 666 L 549 635 Q 552 622 553 613 L 554 601 Z" fill="lightgray"></path>
      </clipPath>
      <path clip-path="url(#make-me-a-hanzi-clip-5)" d="M 548 674 L 587 642 L 580 499 L 560 406 L 536 365 L 485 315 L 426 283 L 375 268 " fill="none" id="make-me-a-hanzi-animation-5" stroke-dasharray="656 1312" stroke-linecap="round"></path>

      <clipPath id="make-me-a-hanzi-clip-6">
      <path d="M 596 420 L 624 400 L 636 388 Q 652 374 660 366 L 697 326 L 723 302 Q 739 288 758 281 Q 777 273 781 277 Q 797 286 798 308 Q 798 347 747 380 Q 696 413 635 431 L 601 442 C 572 451 572 437 596 420 Z" fill="lightgray"></path>
      </clipPath>
      <path clip-path="url(#make-me-a-hanzi-clip-6)" d="M 605 435 L 610 425 L 676 388 L 736 342 L 775 294 " fill="none" id="make-me-a-hanzi-animation-6" stroke-dasharray="352 704" stroke-linecap="round"></path>

      <clipPath id="make-me-a-hanzi-clip-7">
      <path d="M 385 184 Q 372 188 366 184 Q 362 180 366 170 L 379 148 Q 385 134 391 122 L 409 94 Q 416 83 429 76 Q 442 69 454 74.5 Q 466 80 468.5 107.5 Q 471 135 459.5 147.5 Q 448 160 437 166 Q 414 175 408 177 L 385 184 Z" fill="lightgray"></path>
      </clipPath>
      <path clip-path="url(#make-me-a-hanzi-clip-7)" d="M 372 177 L 430 127 L 444 93 " fill="none" id="make-me-a-hanzi-animation-7" stroke-dasharray="241 482" stroke-linecap="round"></path>

      <clipPath id="make-me-a-hanzi-clip-8">
      <path d="M 615 88 L 767 148 L 804 160 L 821 167 Q 833 171 834 177 Q 837 189 808 218 L 785 236 Q 770 244 766 243 Q 762 242 757 240 Q 752 237 744 223 Q 713 176 656 132 Q 647 125 606 100 C 580 84 587 77 615 88 Z" fill="lightgray"></path>
      </clipPath>
      <path clip-path="url(#make-me-a-hanzi-clip-8)" d="M 824 180 L 773 193 L 685 133 L 618 100 " fill="none" id="make-me-a-hanzi-animation-8" stroke-dasharray="362 724" stroke-linecap="round"></path>

      <clipPath id="make-me-a-hanzi-clip-9">
      <path d="M 599 107 L 606 138 Q 606 144 610 165 L 614 202 Q 615 212 620 223 Q 622 232 627 240 Q 639 254 630 262.5 Q 621 271 615 272.5 Q 609 274 583 284 Q 547 294 540 289 Q 526 282 537 260 L 548 238 Q 552 227 553 210 Q 553 148 533 90 Q 502 4 414 -67 Q 380 -94 309 -132 L 283 -144 Q 270 -148 273 -156 Q 275 -160 290 -155 L 308 -150 Q 361 -134 376 -126 Q 412 -113 431 -99 Q 450 -85 477 -66.5 Q 504 -48 529 -18 Q 556 10 589 76 L 599 107 Z" fill="lightgray"></path>
      </clipPath>
      <path clip-path="url(#make-me-a-hanzi-clip-9)" d="M 547 276 L 579 251 L 586 230 L 570 111 L 535 32 L 479 -38 L 426 -81 L 380 -110 L 283 -152 " fill="none" id="make-me-a-hanzi-animation-9" stroke-dasharray="715 1430" stroke-linecap="round"></path>

      <clipPath id="make-me-a-hanzi-clip-10">
      <path d="M 589 76 L 613 47 L 646 2 Q 672 -35 681 -44 L 718 -88 Q 746 -120 769 -144 Q 790 -160 804 -165 Q 817 -170 858 -168 Q 899 -165 925 -159 Q 959 -155 976 -144 Q 984 -139 982 -137 Q 982 -134 969 -130 L 943 -123 Q 936 -122 885 -100 L 823 -74 Q 816 -71 754 -30 Q 692 11 660 45 Q 642 61 615 88 L 606 100 L 599 107 C 579 129 570 99 589 76 Z" fill="lightgray"></path>
      </clipPath>
      <path clip-path="url(#make-me-a-hanzi-clip-10)" d="M 600 101 L 604 79 L 681 -8 L 801 -113 L 818 -122 L 891 -135 L 930 -140 L 974 -136 " fill="none" id="make-me-a-hanzi-animation-10" stroke-dasharray="603 1206" stroke-linecap="round"></path>

      <clipPath id="make-me-a-hanzi-clip-11">
      <path d="M 1320 386 L 1336 410 L 1371 471 Q 1397 511 1402 524 Q 1408 536 1419 547 Q 1431 558 1431 569 Q 1431 579 1406 597 Q 1381 614 1366 619 Q 1352 623 1349 622 Q 1338 623 1338 614 Q 1336 611 1338 603 L 1338 580 Q 1339 568 1315 505 L 1285 439 Q 1250 368 1182 274 Q 1145 222 1139 216 Q 1091 168 1081 159 Q 1077 155 1077 149 Q 1075 137 1088 146 L 1107 156 Q 1166 189 1244 280 L 1294 342 L 1320 386 Z" fill="lightgray"></path>
      </clipPath>
      <path clip-path="url(#make-me-a-hanzi-clip-11)" d="M 1350 609 L 1379 565 L 1301 407 L 1268 352 L 1187 245 L 1135 191 L 1084 152 " fill="none" id="make-me-a-hanzi-animation-11" stroke-dasharray="694 1388" stroke-linecap="round"></path>

      <clipPath id="make-me-a-hanzi-clip-12">
      <path d="M 1332 -65 L 1348 267 Q 1348 283 1350 297 L 1356 330 Q 1356 341 1351 349 Q 1346 357 1334 370 Q 1322 383 1320 386 C 1300 409 1292 372 1294 342 L 1298 268 L 1288 94 Q 1287 54 1273 12 Q 1260 -30 1260 -42 Q 1260 -54 1266 -75 L 1279 -104 Q 1284 -117 1288 -124 Q 1292 -131 1302 -131 Q 1307 -133 1313 -123 Q 1319 -113 1325 -91 Q 1332 -70 1332 -65 Z" fill="lightgray"></path>
      </clipPath>
      <path clip-path="url(#make-me-a-hanzi-clip-12)" d="M 1318 380 L 1325 330 L 1313 71 L 1297 -36 L 1300 -117 " fill="none" id="make-me-a-hanzi-animation-12" stroke-dasharray="627 1254" stroke-linecap="round"></path>

      <clipPath id="make-me-a-hanzi-clip-13">
      <path d="M 1595 333 Q 1673 345 1724 354 Q 1852 376 1899 408 Q 1903 412 1895 432 Q 1887 452 1870 472 Q 1854 492 1841 497 Q 1829 501 1821 485 Q 1812 455 1721 409 Q 1684 390 1599 362 C 1571 353 1565 328 1595 333 Z" fill="lightgray"></path>
      </clipPath>
      <path clip-path="url(#make-me-a-hanzi-clip-13)" d="M 1890 413 L 1840 432 L 1813 415 L 1729 382 L 1613 352 L 1603 339 " fill="none" id="make-me-a-hanzi-animation-13" stroke-dasharray="440 880" stroke-linecap="round"></path>

      <clipPath id="make-me-a-hanzi-clip-14">
      <path d="M 1539 512 L 1539 430 L 1524 74 Q 1524 47 1537 4 Q 1571 -121 1748 -117 Q 1863 -115 1902 -100 Q 1919 -93 1941 -85 Q 1963 -78 1977 -66 Q 1992 -54 1991 -44 Q 1991 -35 1985 -16 Q 1968 15 1961 77 L 1951 141 Q 1951 146 1946 146 Q 1942 146 1940 141 L 1938 123 L 1926 64 Q 1913 12 1886 -10 Q 1859 -33 1834 -38 Q 1809 -44 1759 -44 Q 1709 -44 1667 -37 Q 1626 -30 1609 -8 Q 1592 13 1585 56 Q 1579 99 1579 122 L 1590 290 L 1595 333 L 1599 362 L 1610 458 Q 1612 470 1622 510 Q 1632 549 1632 554 Q 1635 568 1599 585 Q 1540 614 1527 596 L 1526 587 Q 1526 585 1531 564 Q 1537 542 1539 512 Z" fill="lightgray"></path>
      </clipPath>
      <path clip-path="url(#make-me-a-hanzi-clip-14)" d="M 1537 590 L 1574 553 L 1583 532 L 1564 328 L 1552 96 L 1562 20 L 1592 -36 L 1608 -51 L 1641 -67 L 1700 -79 L 1799 -80 L 1847 -74 L 1892 -58 L 1936 -32 L 1946 141 " fill="none" id="make-me-a-hanzi-animation-14" stroke-dasharray="1319 2638" stroke-linecap="round"></path>

</g>
</svg>
