<svg version="1.1" viewBox="0 0 2048 1024" xmlns="http://www.w3.org/2000/svg">
  <g stroke="lightgray" stroke-dasharray="1,1" stroke-width="1" transform="scale(4, 4)">
    <line x1="0" y1="0" x2="256" y2="256"></line>
    <line x1="256" y1="0" x2="0" y2="256"></line>
    <line x1="128" y1="0" x2="128" y2="256"></line>
    <line x1="0" y1="128" x2="256" y2="128"></line>
    <line x1="256" y1="0" x2="512" y2="256"></line>
    <line x1="512" y1="0" x2="256" y2="256"></line>
    <line x1="384" y1="0" x2="384" y2="256"></line>
    <line x1="256" y1="128" x2="512" y2="128"></line>
  </g>
<g transform="scale(1, -1) translate(0, -850)">
   <style type="text/css">
    @keyframes keyframes0 {
      from {
       stroke: black;
       stroke-dashoffset: 423;
       stroke-width: 128;
       }
       58% {
       animation-timing-function: step-end;
       stroke: black;
       stroke-dashoffset: 0;
       stroke-width: 128;
       }
       to {
       stroke: black;
       stroke-width: 1024;
       }
       }
       #make-me-a-hanzi-animation-0 {
         animation: keyframes0 0.594238s both;
         animation-delay: 0.000000s;
         animation-timing-function: linear;
       }
    @keyframes keyframes1 {
      from {
       stroke: black;
       stroke-dashoffset: 427;
       stroke-width: 128;
       }
       58% {
       animation-timing-function: step-end;
       stroke: black;
       stroke-dashoffset: 0;
       stroke-width: 128;
       }
       to {
       stroke: black;
       stroke-width: 1024;
       }
       }
       #make-me-a-hanzi-animation-1 {
         animation: keyframes1 0.597493s both;
         animation-delay: 0.594238s;
         animation-timing-function: linear;
       }
    @keyframes keyframes2 {
      from {
       stroke: black;
       stroke-dashoffset: 615;
       stroke-width: 128;
       }
       67% {
       animation-timing-function: step-end;
       stroke: black;
       stroke-dashoffset: 0;
       stroke-width: 128;
       }
       to {
       stroke: black;
       stroke-width: 1024;
       }
       }
       #make-me-a-hanzi-animation-2 {
         animation: keyframes2 0.750488s both;
         animation-delay: 1.191731s;
         animation-timing-function: linear;
       }
    @keyframes keyframes3 {
      from {
       stroke: black;
       stroke-dashoffset: 468;
       stroke-width: 128;
       }
       60% {
       animation-timing-function: step-end;
       stroke: black;
       stroke-dashoffset: 0;
       stroke-width: 128;
       }
       to {
       stroke: black;
       stroke-width: 1024;
       }
       }
       #make-me-a-hanzi-animation-3 {
         animation: keyframes3 0.630859s both;
         animation-delay: 1.942219s;
         animation-timing-function: linear;
       }
    @keyframes keyframes4 {
      from {
       stroke: black;
       stroke-dashoffset: 507;
       stroke-width: 128;
       }
       62% {
       animation-timing-function: step-end;
       stroke: black;
       stroke-dashoffset: 0;
       stroke-width: 128;
       }
       to {
       stroke: black;
       stroke-width: 1024;
       }
       }
       #make-me-a-hanzi-animation-4 {
         animation: keyframes4 0.662598s both;
         animation-delay: 2.573078s;
         animation-timing-function: linear;
       }
    @keyframes keyframes5 {
      from {
       stroke: black;
       stroke-dashoffset: 743;
       stroke-width: 128;
       }
       71% {
       animation-timing-function: step-end;
       stroke: black;
       stroke-dashoffset: 0;
       stroke-width: 128;
       }
       to {
       stroke: black;
       stroke-width: 1024;
       }
       }
       #make-me-a-hanzi-animation-5 {
         animation: keyframes5 0.854655s both;
         animation-delay: 3.235676s;
         animation-timing-function: linear;
       }
    @keyframes keyframes6 {
      from {
       stroke: black;
       stroke-dashoffset: 355;
       stroke-width: 128;
       }
       54% {
       animation-timing-function: step-end;
       stroke: black;
       stroke-dashoffset: 0;
       stroke-width: 128;
       }
       to {
       stroke: black;
       stroke-width: 1024;
       }
       }
       #make-me-a-hanzi-animation-6 {
         animation: keyframes6 0.538900s both;
         animation-delay: 4.090331s;
         animation-timing-function: linear;
       }
    @keyframes keyframes7 {
      from {
       stroke: black;
       stroke-dashoffset: 478;
       stroke-width: 128;
       }
       61% {
       animation-timing-function: step-end;
       stroke: black;
       stroke-dashoffset: 0;
       stroke-width: 128;
       }
       to {
       stroke: black;
       stroke-width: 1024;
       }
       }
       #make-me-a-hanzi-animation-7 {
         animation: keyframes7 0.638997s both;
         animation-delay: 4.629231s;
         animation-timing-function: linear;
       }
    @keyframes keyframes8 {
      from {
       stroke: black;
       stroke-dashoffset: 550;
       stroke-width: 128;
       }
       64% {
       animation-timing-function: step-end;
       stroke: black;
       stroke-dashoffset: 0;
       stroke-width: 128;
       }
       to {
       stroke: black;
       stroke-width: 1024;
       }
       }
       #make-me-a-hanzi-animation-8 {
         animation: keyframes8 0.697591s both;
         animation-delay: 5.268228s;
         animation-timing-function: linear;
       }
    @keyframes keyframes9 {
      from {
       stroke: black;
       stroke-dashoffset: 743;
       stroke-width: 128;
       }
       71% {
       animation-timing-function: step-end;
       stroke: black;
       stroke-dashoffset: 0;
       stroke-width: 128;
       }
       to {
       stroke: black;
       stroke-width: 1024;
       }
       }
       #make-me-a-hanzi-animation-9 {
         animation: keyframes9 0.854655s both;
         animation-delay: 5.965819s;
         animation-timing-function: linear;
       }
    @keyframes keyframes10 {
      from {
       stroke: black;
       stroke-dashoffset: 480;
       stroke-width: 128;
       }
       61% {
       animation-timing-function: step-end;
       stroke: black;
       stroke-dashoffset: 0;
       stroke-width: 128;
       }
       to {
       stroke: black;
       stroke-width: 1024;
       }
       }
       #make-me-a-hanzi-animation-10 {
         animation: keyframes10 0.640625s both;
         animation-delay: 6.820474s;
         animation-timing-function: linear;
       }
    @keyframes keyframes11 {
      from {
       stroke: black;
       stroke-dashoffset: 591;
       stroke-width: 128;
       }
       66% {
       animation-timing-function: step-end;
       stroke: black;
       stroke-dashoffset: 0;
       stroke-width: 128;
       }
       to {
       stroke: black;
       stroke-width: 1024;
       }
       }
       #make-me-a-hanzi-animation-11 {
         animation: keyframes11 0.730957s both;
         animation-delay: 7.461099s;
         animation-timing-function: linear;
       }
    @keyframes keyframes12 {
      from {
       stroke: black;
       stroke-dashoffset: 851;
       stroke-width: 128;
       }
       73% {
       animation-timing-function: step-end;
       stroke: black;
       stroke-dashoffset: 0;
       stroke-width: 128;
       }
       to {
       stroke: black;
       stroke-width: 1024;
       }
       }
       #make-me-a-hanzi-animation-12 {
         animation: keyframes12 0.942546s both;
         animation-delay: 8.192056s;
         animation-timing-function: linear;
       }
    @keyframes keyframes13 {
      from {
       stroke: black;
       stroke-dashoffset: 469;
       stroke-width: 128;
       }
       60% {
       animation-timing-function: step-end;
       stroke: black;
       stroke-dashoffset: 0;
       stroke-width: 128;
       }
       to {
       stroke: black;
       stroke-width: 1024;
       }
       }
       #make-me-a-hanzi-animation-13 {
         animation: keyframes13 0.631673s both;
         animation-delay: 9.134602s;
         animation-timing-function: linear;
       }
    @keyframes keyframes14 {
      from {
       stroke: black;
       stroke-dashoffset: 469;
       stroke-width: 128;
       }
       60% {
       animation-timing-function: step-end;
       stroke: black;
       stroke-dashoffset: 0;
       stroke-width: 128;
       }
       to {
       stroke: black;
       stroke-width: 1024;
       }
       }
       #make-me-a-hanzi-animation-14 {
         animation: keyframes14 0.631673s both;
         animation-delay: 9.766275s;
         animation-timing-function: linear;
       }
    @keyframes keyframes15 {
      from {
       stroke: black;
       stroke-dashoffset: 1487;
       stroke-width: 128;
       }
       83% {
       animation-timing-function: step-end;
       stroke: black;
       stroke-dashoffset: 0;
       stroke-width: 128;
       }
       to {
       stroke: black;
       stroke-width: 1024;
       }
       }
       #make-me-a-hanzi-animation-15 {
         animation: keyframes15 1.460124s both;
         animation-delay: 10.397948s;
         animation-timing-function: linear;
       }
    @keyframes keyframes16 {
      from {
       stroke: black;
       stroke-dashoffset: 1196;
       stroke-width: 128;
       }
       80% {
       animation-timing-function: step-end;
       stroke: black;
       stroke-dashoffset: 0;
       stroke-width: 128;
       }
       to {
       stroke: black;
       stroke-width: 1024;
       }
       }
       #make-me-a-hanzi-animation-16 {
         animation: keyframes16 1.223307s both;
         animation-delay: 11.858072s;
         animation-timing-function: linear;
       }
</style>
<path d="M 173.5 689.5 L 173.5 687.5 Q 173.5 679.5 184.5 668.5 Q 257.5 593.5 293.5 571.5 Q 300.5 567.5 307.5 567.5 Q 312.5 567.5 318.5 570.5 Q 327.5 577.5 327.5 592.5 Q 327.5 602.5 324.5 614.5 Q 319.5 635.5 310.5 642.5 Q 298.5 654.5 277.5 664.5 Q 245.5 682.5 190.5 695.5 Q 187.5 696.5 184.5 696.5 Q 175.5 696.5 173.5 689.5 Z" fill="lightgray"></path> 
<path d="M 112.5 476.5 L 112.5 474.5 Q 112.5 467.5 125.5 456.5 Q 204.5 384.5 243.5 363.5 Q 251.5 360.5 257.5 360.5 Q 263.5 360.5 267.5 363.5 Q 275.5 369.5 275.5 383.5 Q 275.5 393.5 271.5 407.5 Q 265.5 428.5 256.5 434.5 Q 243.5 446.5 221.5 456.5 Q 187.5 471.5 129.5 483.5 L 124.5 483.5 Q 114.5 483.5 112.5 476.5 Z" fill="lightgray"></path> 
<path d="M 117.5 68.5 Q 122.5 42.5 134.5 14.5 Q 147.5 -14.5 162.5 -23.5 Q 168.5 -27.5 174.5 -27.5 Q 177.5 -27.5 180.5 -26.5 Q 188.5 -24.5 188.5 -0.5 Q 192.5 39.5 216.5 99.5 L 290.5 286.5 Q 295.5 301.5 295.5 307.5 Q 294.5 313.5 291.5 313.5 Q 289.5 313.5 286.5 311.5 Q 274.5 303.5 265.5 288.5 L 166.5 127.5 Q 150.5 100.5 126.5 88.5 Q 116.5 84.5 116.5 74.5 Q 116.5 71.5 117.5 68.5 Z" fill="lightgray"></path> 
<path d="M 500.5 566.5 Q 529.5 571.5 559.5 575.5 Q 580.5 579.5 583.5 582.5 Q 589.5 588.5 589.5 593.5 Q 589.5 595.5 588.5 597.5 Q 580.5 610.5 553.5 616.5 Q 541.5 619.5 528.5 619.5 Q 516.5 619.5 504.5 616.5 L 451.5 602.5 Q 448.5 600.5 445.5 600.5 Q 416.5 594.5 383.5 593.5 Q 362.5 593.5 362.5 586.5 Q 362.5 581.5 373.5 572.5 Q 388.5 560.5 409.5 557.5 Q 418.5 556.5 429.5 556.5 Q 439.5 556.5 451.5 557.5 L 500.5 566.5 Z" fill="lightgray"></path> 
<path d="M 481.5 444.5 Q 494.5 448.5 506.5 449.5 Q 539.5 457.5 566.5 460.5 Q 583.5 464.5 583.5 473.5 Q 583.5 483.5 562.5 492.5 Q 555.5 496.5 540.5 500.5 Q 533.5 502.5 526.5 502.5 Q 516.5 502.5 505.5 498.5 Q 498.5 495.5 492.5 495.5 L 443.5 481.5 Q 407.5 472.5 379.5 466.5 Q 355.5 460.5 331.5 456.5 Q 317.5 453.5 317.5 447.5 Q 317.5 443.5 326.5 436.5 Q 338.5 428.5 353.5 422.5 Q 359.5 419.5 367.5 419.5 Q 376.5 419.5 386.5 422.5 Q 406.5 429.5 428.5 433.5 L 481.5 444.5 Z" fill="lightgray"></path> 
<path d="M 367.5 333.5 L 343.5 309.5 Q 330.5 296.5 329.5 292.5 L 329.5 290.5 Q 329.5 286.5 337.5 286.5 Q 351.5 287.5 369.5 299.5 Q 403.5 321.5 421.5 342.5 Q 449.5 371.5 465.5 404.5 L 474.5 427.5 L 481.5 444.5 L 492.5 495.5 Q 493.5 497.5 493.5 498.5 Q 499.5 530.5 500.5 566.5 L 504.5 616.5 Q 506.5 633.5 506.5 648.5 Q 511.5 667.5 512.5 676.5 Q 513.5 679.5 513.5 682.5 Q 513.5 696.5 498.5 703.5 Q 455.5 722.5 442.5 722.5 L 441.5 722.5 Q 431.5 719.5 431.5 713.5 Q 431.5 707.5 438.5 699.5 Q 452.5 681.5 452.5 650.5 Q 451.5 630.5 451.5 602.5 L 451.5 557.5 L 451.5 535.5 Q 449.5 508.5 443.5 481.5 L 428.5 433.5 Q 424.5 424.5 423.5 418.5 Q 406.5 373.5 367.5 333.5 Z" fill="lightgray"></path> 
<path d="M 465.5 404.5 L 527.5 352.5 Q 542.5 341.5 554.5 341.5 Q 568.5 343.5 569.5 356.5 Q 569.5 368.5 560.5 381.5 Q 547.5 401.5 522.5 410.5 Q 490.5 424.5 474.5 427.5 C 445.5 433.5 442.5 423.5 465.5 404.5 Z" fill="lightgray"></path> 
<path d="M 763.5 597.5 L 822.5 609.5 Q 846.5 615.5 849.5 618.5 Q 853.5 624.5 853.5 629.5 Q 853.5 631.5 852.5 634.5 Q 844.5 645.5 817.5 651.5 Q 807.5 653.5 797.5 653.5 Q 782.5 653.5 768.5 649.5 L 715.5 631.5 Q 709.5 629.5 705.5 628.5 Q 673.5 620.5 637.5 617.5 Q 617.5 616.5 617.5 609.5 Q 617.5 604.5 629.5 596.5 Q 644.5 586.5 665.5 583.5 Q 672.5 582.5 679.5 582.5 Q 694.5 582.5 713.5 586.5 L 763.5 597.5 Z" fill="lightgray"></path> 
<path d="M 844.5 499.5 Q 883.5 502.5 892.5 502.5 Q 906.5 503.5 909.5 509.5 Q 910.5 511.5 910.5 513.5 Q 910.5 520.5 900.5 526.5 Q 878.5 541.5 863.5 545.5 Q 858.5 546.5 852.5 546.5 Q 844.5 546.5 835.5 544.5 L 751.5 524.5 L 701.5 513.5 Q 658.5 503.5 613.5 494.5 Q 605.5 492.5 605.5 488.5 Q 605.5 484.5 610.5 480.5 Q 622.5 469.5 634.5 468.5 Q 640.5 467.5 645.5 467.5 Q 653.5 467.5 660.5 469.5 Q 673.5 474.5 688.5 477.5 L 740.5 487.5 L 744.5 487.5 Q 793.5 496.5 844.5 499.5 Z" fill="lightgray"></path> 
<path d="M 751.5 524.5 Q 753.5 530.5 753.5 533.5 Q 759.5 563.5 763.5 597.5 L 768.5 649.5 Q 770.5 667.5 771.5 683.5 Q 777.5 702.5 778.5 711.5 Q 779.5 715.5 779.5 719.5 Q 779.5 732.5 765.5 739.5 Q 723.5 759.5 710.5 759.5 L 709.5 759.5 Q 699.5 757.5 699.5 750.5 Q 699.5 744.5 705.5 736.5 Q 717.5 718.5 717.5 687.5 Q 716.5 665.5 715.5 631.5 L 713.5 586.5 Q 712.5 580.5 712.5 571.5 Q 710.5 543.5 701.5 513.5 L 688.5 477.5 Q 683.5 465.5 680.5 455.5 Q 661.5 411.5 621.5 372.5 Q 608.5 358.5 596.5 349.5 Q 582.5 336.5 581.5 332.5 L 581.5 330.5 Q 581.5 326.5 589.5 326.5 Q 604.5 326.5 622.5 338.5 Q 655.5 360.5 676.5 379.5 Q 706.5 409.5 724.5 445.5 L 724.5 446.5 L 733.5 468.5 Q 737.5 478.5 740.5 487.5 L 751.5 524.5 Z" fill="lightgray"></path> 
<path d="M 724.5 446.5 L 729.5 441.5 Q 790.5 388.5 862.5 313.5 Q 879.5 295.5 891.5 292.5 L 894.5 292.5 Q 901.5 292.5 907.5 299.5 Q 911.5 306.5 911.5 318.5 Q 911.5 331.5 906.5 352.5 Q 899.5 374.5 884.5 387.5 Q 863.5 406.5 815.5 430.5 Q 761.5 456.5 733.5 468.5 C 705.5 480.5 703.5 467.5 724.5 446.5 Z" fill="lightgray"></path> 
<path d="M 480.5 260.5 Q 462.5 270.5 447.5 273.5 L 444.5 273.5 Q 437.5 273.5 435.5 270.5 Q 434.5 268.5 434.5 266.5 Q 434.5 261.5 438.5 253.5 Q 444.5 240.5 447.5 227.5 Q 450.5 215.5 450.5 197.5 Q 452.5 146.5 452.5 113.5 L 452.5 93.5 Q 449.5 56.5 439.5 22.5 Q 435.5 6.5 435.5 -5.5 Q 435.5 -12.5 436.5 -18.5 Q 446.5 -49.5 455.5 -59.5 Q 460.5 -65.5 465.5 -65.5 Q 470.5 -65.5 474.5 -59.5 Q 481.5 -48.5 487.5 -29.5 L 494.5 4.5 Q 497.5 20.5 497.5 38.5 L 497.5 100.5 L 498.5 124.5 Q 501.5 207.5 504.5 226.5 L 504.5 231.5 C 505.5 247.5 505.5 247.5 480.5 260.5 Z" fill="lightgray"></path> 
<path d="M 771.5 190.5 Q 771.5 221.5 786.5 240.5 Q 791.5 247.5 791.5 252.5 Q 791.5 258.5 786.5 262.5 Q 768.5 281.5 720.5 305.5 Q 714.5 308.5 706.5 308.5 Q 698.5 308.5 688.5 304.5 Q 645.5 285.5 579.5 273.5 Q 508.5 260.5 480.5 260.5 C 450.5 258.5 474.5 229.5 504.5 231.5 Q 521.5 232.5 548.5 235.5 Q 615.5 247.5 672.5 256.5 Q 679.5 257.5 685.5 257.5 Q 699.5 257.5 705.5 251.5 Q 713.5 244.5 716.5 196.5 Q 717.5 176.5 717.5 152.5 L 717.5 121.5 L 717.5 86.5 Q 714.5 47.5 714.5 32.5 Q 711.5 19.5 705.5 18.5 C 691.5 -7.5 672.5 -5.5 678.5 -12.5 Q 698.5 -34.5 717.5 -67.5 Q 728.5 -83.5 738.5 -83.5 Q 754.5 -83.5 769.5 -50.5 Q 783.5 -19.5 783.5 16.5 L 783.5 29.5 Q 775.5 87.5 771.5 190.5 Z" fill="lightgray"></path> 
<path d="M 497.5 100.5 Q 504.5 97.5 513.5 97.5 Q 519.5 97.5 526.5 98.5 Q 638.5 114.5 717.5 121.5 C 747.5 124.5 744.5 139.5 717.5 152.5 Q 708.5 157.5 699.5 158.5 Q 692.5 159.5 682.5 159.5 Q 662.5 159.5 633.5 153.5 Q 561.5 136.5 498.5 124.5 C 469.5 118.5 468.5 109.5 497.5 100.5 Z" fill="lightgray"></path> 
<path d="M 487.5 -29.5 L 496.5 -29.5 Q 558.5 -18.5 678.5 -12.5 C 708.5 -10.5 730.5 1.5 705.5 18.5 Q 702.5 21.5 701.5 21.5 Q 690.5 27.5 674.5 27.5 Q 666.5 27.5 658.5 26.5 Q 567.5 10.5 494.5 4.5 C 464.5 1.5 457.5 -29.5 487.5 -29.5 Z" fill="lightgray"></path> 
<path d="M 1425.0 443.0 L 1506.0 459.0 L 1576.0 474.0 L 1694.0 493.0 Q 1748.0 498.0 1771.0 491.0 Q 1790.0 482.0 1790.0 463.0 L 1788.0 419.0 L 1761.0 241.0 Q 1737.0 73.0 1691.0 46.0 Q 1677.0 40.0 1665.0 41.0 Q 1654.0 41.0 1630.0 54.0 Q 1607.0 67.0 1604.0 68.0 L 1588.0 73.0 Q 1583.0 75.0 1579.0 74.0 Q 1576.0 72.0 1580.0 65.0 L 1588.0 57.0 L 1612.0 23.0 Q 1627.0 2.0 1640.0 -28.0 Q 1656.0 -60.0 1658.0 -62.0 Q 1679.0 -84.0 1725.0 -45.0 Q 1748.0 -24.0 1769.0 10.0 Q 1808.0 81.0 1820.0 157.0 L 1856.0 367.0 Q 1870.0 434.0 1886.0 458.0 Q 1902.0 481.0 1902.0 486.0 Q 1902.0 491.0 1894.0 502.0 Q 1886.0 513.0 1880.0 517.0 L 1856.0 535.0 Q 1820.0 557.0 1807.0 558.0 Q 1795.0 558.0 1774.0 550.0 L 1736.0 538.0 Q 1719.0 533.0 1680.0 526.0 L 1583.0 506.0 L 1512.0 495.0 L 1482.0 489.0 L 1413.0 479.0 L 1301.0 469.0 Q 1287.0 467.0 1285.0 463.0 Q 1283.0 459.0 1287.0 455.0 Q 1291.0 450.0 1296.0 449.0 L 1319.0 434.0 Q 1341.0 419.0 1350.0 420.0 Q 1359.0 421.0 1375.0 428.0 L 1394.0 435.0 L 1425.0 443.0 Z" fill="lightgray"></path> 
<path d="M 1506.0 459.0 L 1496.0 419.0 Q 1489.0 390.0 1472.0 341.0 Q 1455.0 291.0 1402.0 201.0 Q 1349.0 110.0 1236.0 16.0 L 1177.0 -27.0 Q 1170.0 -33.0 1173.0 -37.0 Q 1177.0 -41.0 1181.0 -39.0 L 1196.0 -35.0 Q 1225.0 -29.0 1253.0 -14.0 Q 1281.0 -2.0 1319.0 23.0 Q 1383.0 67.0 1434.0 138.0 Q 1485.0 209.0 1509.0 271.0 Q 1522.0 299.0 1544.0 361.0 L 1561.0 419.0 Q 1570.0 447.0 1576.0 474.0 L 1583.0 506.0 L 1598.0 576.0 Q 1598.0 590.0 1615.0 658.0 L 1634.0 704.0 Q 1634.0 719.0 1610.0 733.0 L 1582.0 748.0 Q 1565.0 755.0 1549.0 758.0 Q 1533.0 760.0 1526.0 755.0 Q 1522.0 751.0 1520.0 745.0 Q 1520.0 739.0 1528.0 719.0 Q 1536.0 698.0 1536.0 656.0 Q 1537.0 614.0 1528.0 573.0 L 1512.0 495.0 L 1506.0 459.0 Z" fill="lightgray"></path> 
      <clipPath id="make-me-a-hanzi-clip-0">
      <path d="M 173.5 689.5 L 173.5 687.5 Q 173.5 679.5 184.5 668.5 Q 257.5 593.5 293.5 571.5 Q 300.5 567.5 307.5 567.5 Q 312.5 567.5 318.5 570.5 Q 327.5 577.5 327.5 592.5 Q 327.5 602.5 324.5 614.5 Q 319.5 635.5 310.5 642.5 Q 298.5 654.5 277.5 664.5 Q 245.5 682.5 190.5 695.5 Q 187.5 696.5 184.5 696.5 Q 175.5 696.5 173.5 689.5 Z" fill="lightgray"></path>
      </clipPath>
      <path clip-path="url(#make-me-a-hanzi-clip-0)" d="M 181.5 688.5 L 288.5 617.5 L 308.5 584.5 " fill="none" id="make-me-a-hanzi-animation-0" stroke-dasharray="295 590" stroke-linecap="round"></path>

      <clipPath id="make-me-a-hanzi-clip-1">
      <path d="M 112.5 476.5 L 112.5 474.5 Q 112.5 467.5 125.5 456.5 Q 204.5 384.5 243.5 363.5 Q 251.5 360.5 257.5 360.5 Q 263.5 360.5 267.5 363.5 Q 275.5 369.5 275.5 383.5 Q 275.5 393.5 271.5 407.5 Q 265.5 428.5 256.5 434.5 Q 243.5 446.5 221.5 456.5 Q 187.5 471.5 129.5 483.5 L 124.5 483.5 Q 114.5 483.5 112.5 476.5 Z" fill="lightgray"></path>
      </clipPath>
      <path clip-path="url(#make-me-a-hanzi-clip-1)" d="M 121.5 475.5 L 223.5 417.5 L 258.5 376.5 " fill="none" id="make-me-a-hanzi-animation-1" stroke-dasharray="299 598" stroke-linecap="round"></path>

      <clipPath id="make-me-a-hanzi-clip-2">
      <path d="M 117.5 68.5 Q 122.5 42.5 134.5 14.5 Q 147.5 -14.5 162.5 -23.5 Q 168.5 -27.5 174.5 -27.5 Q 177.5 -27.5 180.5 -26.5 Q 188.5 -24.5 188.5 -0.5 Q 192.5 39.5 216.5 99.5 L 290.5 286.5 Q 295.5 301.5 295.5 307.5 Q 294.5 313.5 291.5 313.5 Q 289.5 313.5 286.5 311.5 Q 274.5 303.5 265.5 288.5 L 166.5 127.5 Q 150.5 100.5 126.5 88.5 Q 116.5 84.5 116.5 74.5 Q 116.5 71.5 117.5 68.5 Z" fill="lightgray"></path>
      </clipPath>
      <path clip-path="url(#make-me-a-hanzi-clip-2)" d="M 175.5 -16.5 L 162.5 18.5 L 160.5 59.5 L 290.5 308.5 " fill="none" id="make-me-a-hanzi-animation-2" stroke-dasharray="487 974" stroke-linecap="round"></path>

      <clipPath id="make-me-a-hanzi-clip-3">
      <path d="M 500.5 566.5 Q 529.5 571.5 559.5 575.5 Q 580.5 579.5 583.5 582.5 Q 589.5 588.5 589.5 593.5 Q 589.5 595.5 588.5 597.5 Q 580.5 610.5 553.5 616.5 Q 541.5 619.5 528.5 619.5 Q 516.5 619.5 504.5 616.5 L 451.5 602.5 Q 448.5 600.5 445.5 600.5 Q 416.5 594.5 383.5 593.5 Q 362.5 593.5 362.5 586.5 Q 362.5 581.5 373.5 572.5 Q 388.5 560.5 409.5 557.5 Q 418.5 556.5 429.5 556.5 Q 439.5 556.5 451.5 557.5 L 500.5 566.5 Z" fill="lightgray"></path>
      </clipPath>
      <path clip-path="url(#make-me-a-hanzi-clip-3)" d="M 368.5 585.5 L 424.5 576.5 L 523.5 595.5 L 577.5 592.5 " fill="none" id="make-me-a-hanzi-animation-3" stroke-dasharray="340 680" stroke-linecap="round"></path>

      <clipPath id="make-me-a-hanzi-clip-4">
      <path d="M 481.5 444.5 Q 494.5 448.5 506.5 449.5 Q 539.5 457.5 566.5 460.5 Q 583.5 464.5 583.5 473.5 Q 583.5 483.5 562.5 492.5 Q 555.5 496.5 540.5 500.5 Q 533.5 502.5 526.5 502.5 Q 516.5 502.5 505.5 498.5 Q 498.5 495.5 492.5 495.5 L 443.5 481.5 Q 407.5 472.5 379.5 466.5 Q 355.5 460.5 331.5 456.5 Q 317.5 453.5 317.5 447.5 Q 317.5 443.5 326.5 436.5 Q 338.5 428.5 353.5 422.5 Q 359.5 419.5 367.5 419.5 Q 376.5 419.5 386.5 422.5 Q 406.5 429.5 428.5 433.5 L 481.5 444.5 Z" fill="lightgray"></path>
      </clipPath>
      <path clip-path="url(#make-me-a-hanzi-clip-4)" d="M 326.5 445.5 L 376.5 442.5 L 517.5 477.5 L 573.5 474.5 " fill="none" id="make-me-a-hanzi-animation-4" stroke-dasharray="379 758" stroke-linecap="round"></path>

      <clipPath id="make-me-a-hanzi-clip-5">
      <path d="M 367.5 333.5 L 343.5 309.5 Q 330.5 296.5 329.5 292.5 L 329.5 290.5 Q 329.5 286.5 337.5 286.5 Q 351.5 287.5 369.5 299.5 Q 403.5 321.5 421.5 342.5 Q 449.5 371.5 465.5 404.5 L 474.5 427.5 L 481.5 444.5 L 492.5 495.5 Q 493.5 497.5 493.5 498.5 Q 499.5 530.5 500.5 566.5 L 504.5 616.5 Q 506.5 633.5 506.5 648.5 Q 511.5 667.5 512.5 676.5 Q 513.5 679.5 513.5 682.5 Q 513.5 696.5 498.5 703.5 Q 455.5 722.5 442.5 722.5 L 441.5 722.5 Q 431.5 719.5 431.5 713.5 Q 431.5 707.5 438.5 699.5 Q 452.5 681.5 452.5 650.5 Q 451.5 630.5 451.5 602.5 L 451.5 557.5 L 451.5 535.5 Q 449.5 508.5 443.5 481.5 L 428.5 433.5 Q 424.5 424.5 423.5 418.5 Q 406.5 373.5 367.5 333.5 Z" fill="lightgray"></path>
      </clipPath>
      <path clip-path="url(#make-me-a-hanzi-clip-5)" d="M 442.5 711.5 L 481.5 676.5 L 474.5 521.5 L 460.5 455.5 L 443.5 407.5 L 422.5 371.5 L 389.5 332.5 L 335.5 291.5 " fill="none" id="make-me-a-hanzi-animation-5" stroke-dasharray="615 1230" stroke-linecap="round"></path>

      <clipPath id="make-me-a-hanzi-clip-6">
      <path d="M 465.5 404.5 L 527.5 352.5 Q 542.5 341.5 554.5 341.5 Q 568.5 343.5 569.5 356.5 Q 569.5 368.5 560.5 381.5 Q 547.5 401.5 522.5 410.5 Q 490.5 424.5 474.5 427.5 C 445.5 433.5 442.5 423.5 465.5 404.5 Z" fill="lightgray"></path>
      </clipPath>
      <path clip-path="url(#make-me-a-hanzi-clip-6)" d="M 477.5 419.5 L 554.5 356.5 " fill="none" id="make-me-a-hanzi-animation-6" stroke-dasharray="227 454" stroke-linecap="round"></path>

      <clipPath id="make-me-a-hanzi-clip-7">
      <path d="M 763.5 597.5 L 822.5 609.5 Q 846.5 615.5 849.5 618.5 Q 853.5 624.5 853.5 629.5 Q 853.5 631.5 852.5 634.5 Q 844.5 645.5 817.5 651.5 Q 807.5 653.5 797.5 653.5 Q 782.5 653.5 768.5 649.5 L 715.5 631.5 Q 709.5 629.5 705.5 628.5 Q 673.5 620.5 637.5 617.5 Q 617.5 616.5 617.5 609.5 Q 617.5 604.5 629.5 596.5 Q 644.5 586.5 665.5 583.5 Q 672.5 582.5 679.5 582.5 Q 694.5 582.5 713.5 586.5 L 763.5 597.5 Z" fill="lightgray"></path>
      </clipPath>
      <path clip-path="url(#make-me-a-hanzi-clip-7)" d="M 623.5 609.5 L 683.5 602.5 L 791.5 628.5 L 841.5 629.5 " fill="none" id="make-me-a-hanzi-animation-7" stroke-dasharray="350 700" stroke-linecap="round"></path>

      <clipPath id="make-me-a-hanzi-clip-8">
      <path d="M 844.5 499.5 Q 883.5 502.5 892.5 502.5 Q 906.5 503.5 909.5 509.5 Q 910.5 511.5 910.5 513.5 Q 910.5 520.5 900.5 526.5 Q 878.5 541.5 863.5 545.5 Q 858.5 546.5 852.5 546.5 Q 844.5 546.5 835.5 544.5 L 751.5 524.5 L 701.5 513.5 Q 658.5 503.5 613.5 494.5 Q 605.5 492.5 605.5 488.5 Q 605.5 484.5 610.5 480.5 Q 622.5 469.5 634.5 468.5 Q 640.5 467.5 645.5 467.5 Q 653.5 467.5 660.5 469.5 Q 673.5 474.5 688.5 477.5 L 740.5 487.5 L 744.5 487.5 Q 793.5 496.5 844.5 499.5 Z" fill="lightgray"></path>
      </clipPath>
      <path clip-path="url(#make-me-a-hanzi-clip-8)" d="M 612.5 487.5 L 650.5 484.5 L 843.5 522.5 L 901.5 513.5 " fill="none" id="make-me-a-hanzi-animation-8" stroke-dasharray="422 844" stroke-linecap="round"></path>

      <clipPath id="make-me-a-hanzi-clip-9">
      <path d="M 751.5 524.5 Q 753.5 530.5 753.5 533.5 Q 759.5 563.5 763.5 597.5 L 768.5 649.5 Q 770.5 667.5 771.5 683.5 Q 777.5 702.5 778.5 711.5 Q 779.5 715.5 779.5 719.5 Q 779.5 732.5 765.5 739.5 Q 723.5 759.5 710.5 759.5 L 709.5 759.5 Q 699.5 757.5 699.5 750.5 Q 699.5 744.5 705.5 736.5 Q 717.5 718.5 717.5 687.5 Q 716.5 665.5 715.5 631.5 L 713.5 586.5 Q 712.5 580.5 712.5 571.5 Q 710.5 543.5 701.5 513.5 L 688.5 477.5 Q 683.5 465.5 680.5 455.5 Q 661.5 411.5 621.5 372.5 Q 608.5 358.5 596.5 349.5 Q 582.5 336.5 581.5 332.5 L 581.5 330.5 Q 581.5 326.5 589.5 326.5 Q 604.5 326.5 622.5 338.5 Q 655.5 360.5 676.5 379.5 Q 706.5 409.5 724.5 445.5 L 724.5 446.5 L 733.5 468.5 Q 737.5 478.5 740.5 487.5 L 751.5 524.5 Z" fill="lightgray"></path>
      </clipPath>
      <path clip-path="url(#make-me-a-hanzi-clip-9)" d="M 710.5 748.5 L 731.5 733.5 L 746.5 711.5 L 728.5 524.5 L 702.5 449.5 L 668.5 396.5 L 622.5 352.5 L 587.5 331.5 " fill="none" id="make-me-a-hanzi-animation-9" stroke-dasharray="615 1230" stroke-linecap="round"></path>

      <clipPath id="make-me-a-hanzi-clip-10">
      <path d="M 724.5 446.5 L 729.5 441.5 Q 790.5 388.5 862.5 313.5 Q 879.5 295.5 891.5 292.5 L 894.5 292.5 Q 901.5 292.5 907.5 299.5 Q 911.5 306.5 911.5 318.5 Q 911.5 331.5 906.5 352.5 Q 899.5 374.5 884.5 387.5 Q 863.5 406.5 815.5 430.5 Q 761.5 456.5 733.5 468.5 C 705.5 480.5 703.5 467.5 724.5 446.5 Z" fill="lightgray"></path>
      </clipPath>
      <path clip-path="url(#make-me-a-hanzi-clip-10)" d="M 736.5 460.5 L 744.5 447.5 L 859.5 365.5 L 893.5 307.5 " fill="none" id="make-me-a-hanzi-animation-10" stroke-dasharray="352 704" stroke-linecap="round"></path>

      <clipPath id="make-me-a-hanzi-clip-11">
      <path d="M 480.5 260.5 Q 462.5 270.5 447.5 273.5 L 444.5 273.5 Q 437.5 273.5 435.5 270.5 Q 434.5 268.5 434.5 266.5 Q 434.5 261.5 438.5 253.5 Q 444.5 240.5 447.5 227.5 Q 450.5 215.5 450.5 197.5 Q 452.5 146.5 452.5 113.5 L 452.5 93.5 Q 449.5 56.5 439.5 22.5 Q 435.5 6.5 435.5 -5.5 Q 435.5 -12.5 436.5 -18.5 Q 446.5 -49.5 455.5 -59.5 Q 460.5 -65.5 465.5 -65.5 Q 470.5 -65.5 474.5 -59.5 Q 481.5 -48.5 487.5 -29.5 L 494.5 4.5 Q 497.5 20.5 497.5 38.5 L 497.5 100.5 L 498.5 124.5 Q 501.5 207.5 504.5 226.5 L 504.5 231.5 C 505.5 247.5 505.5 247.5 480.5 260.5 Z" fill="lightgray"></path>
      </clipPath>
      <path clip-path="url(#make-me-a-hanzi-clip-11)" d="M 441.5 266.5 L 465.5 244.5 L 476.5 222.5 L 475.5 92.5 L 463.5 -1.5 L 465.5 -54.5 " fill="none" id="make-me-a-hanzi-animation-11" stroke-dasharray="463 926" stroke-linecap="round"></path>

      <clipPath id="make-me-a-hanzi-clip-12">
      <path d="M 771.5 190.5 Q 771.5 221.5 786.5 240.5 Q 791.5 247.5 791.5 252.5 Q 791.5 258.5 786.5 262.5 Q 768.5 281.5 720.5 305.5 Q 714.5 308.5 706.5 308.5 Q 698.5 308.5 688.5 304.5 Q 645.5 285.5 579.5 273.5 Q 508.5 260.5 480.5 260.5 C 450.5 258.5 474.5 229.5 504.5 231.5 Q 521.5 232.5 548.5 235.5 Q 615.5 247.5 672.5 256.5 Q 679.5 257.5 685.5 257.5 Q 699.5 257.5 705.5 251.5 Q 713.5 244.5 716.5 196.5 Q 717.5 176.5 717.5 152.5 L 717.5 121.5 L 717.5 86.5 Q 714.5 47.5 714.5 32.5 Q 711.5 19.5 705.5 18.5 C 691.5 -7.5 672.5 -5.5 678.5 -12.5 Q 698.5 -34.5 717.5 -67.5 Q 728.5 -83.5 738.5 -83.5 Q 754.5 -83.5 769.5 -50.5 Q 783.5 -19.5 783.5 16.5 L 783.5 29.5 Q 775.5 87.5 771.5 190.5 Z" fill="lightgray"></path>
      </clipPath>
      <path clip-path="url(#make-me-a-hanzi-clip-12)" d="M 485.5 256.5 L 511.5 247.5 L 538.5 249.5 L 707.5 281.5 L 742.5 254.5 L 748.5 23.5 L 735.5 -14.5 L 738.5 -67.5 " fill="none" id="make-me-a-hanzi-animation-12" stroke-dasharray="723 1446" stroke-linecap="round"></path>

      <clipPath id="make-me-a-hanzi-clip-13">
      <path d="M 497.5 100.5 Q 504.5 97.5 513.5 97.5 Q 519.5 97.5 526.5 98.5 Q 638.5 114.5 717.5 121.5 C 747.5 124.5 744.5 139.5 717.5 152.5 Q 708.5 157.5 699.5 158.5 Q 692.5 159.5 682.5 159.5 Q 662.5 159.5 633.5 153.5 Q 561.5 136.5 498.5 124.5 C 469.5 118.5 468.5 109.5 497.5 100.5 Z" fill="lightgray"></path>
      </clipPath>
      <path clip-path="url(#make-me-a-hanzi-clip-13)" d="M 503.5 106.5 L 522.5 114.5 L 656.5 136.5 L 693.5 139.5 L 710.5 129.5 " fill="none" id="make-me-a-hanzi-animation-13" stroke-dasharray="341 682" stroke-linecap="round"></path>

      <clipPath id="make-me-a-hanzi-clip-14">
      <path d="M 487.5 -29.5 L 496.5 -29.5 Q 558.5 -18.5 678.5 -12.5 C 708.5 -10.5 730.5 1.5 705.5 18.5 Q 702.5 21.5 701.5 21.5 Q 690.5 27.5 674.5 27.5 Q 666.5 27.5 658.5 26.5 Q 567.5 10.5 494.5 4.5 C 464.5 1.5 457.5 -29.5 487.5 -29.5 Z" fill="lightgray"></path>
      </clipPath>
      <path clip-path="url(#make-me-a-hanzi-clip-14)" d="M 492.5 -24.5 L 516.5 -9.5 L 699.5 14.5 " fill="none" id="make-me-a-hanzi-animation-14" stroke-dasharray="341 682" stroke-linecap="round"></path>

      <clipPath id="make-me-a-hanzi-clip-15">
      <path d="M 1425.0 443.0 L 1506.0 459.0 L 1576.0 474.0 L 1694.0 493.0 Q 1748.0 498.0 1771.0 491.0 Q 1790.0 482.0 1790.0 463.0 L 1788.0 419.0 L 1761.0 241.0 Q 1737.0 73.0 1691.0 46.0 Q 1677.0 40.0 1665.0 41.0 Q 1654.0 41.0 1630.0 54.0 Q 1607.0 67.0 1604.0 68.0 L 1588.0 73.0 Q 1583.0 75.0 1579.0 74.0 Q 1576.0 72.0 1580.0 65.0 L 1588.0 57.0 L 1612.0 23.0 Q 1627.0 2.0 1640.0 -28.0 Q 1656.0 -60.0 1658.0 -62.0 Q 1679.0 -84.0 1725.0 -45.0 Q 1748.0 -24.0 1769.0 10.0 Q 1808.0 81.0 1820.0 157.0 L 1856.0 367.0 Q 1870.0 434.0 1886.0 458.0 Q 1902.0 481.0 1902.0 486.0 Q 1902.0 491.0 1894.0 502.0 Q 1886.0 513.0 1880.0 517.0 L 1856.0 535.0 Q 1820.0 557.0 1807.0 558.0 Q 1795.0 558.0 1774.0 550.0 L 1736.0 538.0 Q 1719.0 533.0 1680.0 526.0 L 1583.0 506.0 L 1512.0 495.0 L 1482.0 489.0 L 1413.0 479.0 L 1301.0 469.0 Q 1287.0 467.0 1285.0 463.0 Q 1283.0 459.0 1287.0 455.0 Q 1291.0 450.0 1296.0 449.0 L 1319.0 434.0 Q 1341.0 419.0 1350.0 420.0 Q 1359.0 421.0 1375.0 428.0 L 1394.0 435.0 L 1425.0 443.0 Z" fill="lightgray"></path>
      </clipPath>
      <path clip-path="url(#make-me-a-hanzi-clip-15)" d="M 1291.0 460.0 L 1359.0 448.0 L 1692.0 512.0 L 1763.0 520.0 L 1805.0 517.0 L 1833.0 492.0 L 1840.0 482.0 L 1789.0 186.0 L 1769.0 101.0 L 1746.0 48.0 L 1713.0 7.0 L 1688.0 -9.0 L 1583.0 70.0 " fill="none" id="make-me-a-hanzi-animation-15" stroke-dasharray="1359 2718" stroke-linecap="round"></path>

      <clipPath id="make-me-a-hanzi-clip-16">
      <path d="M 1506.0 459.0 L 1496.0 419.0 Q 1489.0 390.0 1472.0 341.0 Q 1455.0 291.0 1402.0 201.0 Q 1349.0 110.0 1236.0 16.0 L 1177.0 -27.0 Q 1170.0 -33.0 1173.0 -37.0 Q 1177.0 -41.0 1181.0 -39.0 L 1196.0 -35.0 Q 1225.0 -29.0 1253.0 -14.0 Q 1281.0 -2.0 1319.0 23.0 Q 1383.0 67.0 1434.0 138.0 Q 1485.0 209.0 1509.0 271.0 Q 1522.0 299.0 1544.0 361.0 L 1561.0 419.0 Q 1570.0 447.0 1576.0 474.0 L 1583.0 506.0 L 1598.0 576.0 Q 1598.0 590.0 1615.0 658.0 L 1634.0 704.0 Q 1634.0 719.0 1610.0 733.0 L 1582.0 748.0 Q 1565.0 755.0 1549.0 758.0 Q 1533.0 760.0 1526.0 755.0 Q 1522.0 751.0 1520.0 745.0 Q 1520.0 739.0 1528.0 719.0 Q 1536.0 698.0 1536.0 656.0 Q 1537.0 614.0 1528.0 573.0 L 1512.0 495.0 L 1506.0 459.0 Z" fill="lightgray"></path>
      </clipPath>
      <path clip-path="url(#make-me-a-hanzi-clip-16)" d="M 1535.0 743.0 L 1557.0 726.0 L 1580.0 693.0 L 1576.0 656.0 L 1537.0 449.0 L 1513.0 363.0 L 1473.0 265.0 L 1415.0 162.0 L 1350.0 84.0 L 1262.0 11.0 L 1178.0 -33.0 " fill="none" id="make-me-a-hanzi-animation-16" stroke-dasharray="1068 2136" stroke-linecap="round"></path>

</g>
</svg>
