<svg version="1.1" viewBox="0 0 2048 1024" xmlns="http://www.w3.org/2000/svg">
  <g stroke="lightgray" stroke-dasharray="1,1" stroke-width="1" transform="scale(4, 4)">
    <line x1="0" y1="0" x2="256" y2="256"></line>
    <line x1="256" y1="0" x2="0" y2="256"></line>
    <line x1="128" y1="0" x2="128" y2="256"></line>
    <line x1="0" y1="128" x2="256" y2="128"></line>
    <line x1="256" y1="0" x2="512" y2="256"></line>
    <line x1="512" y1="0" x2="256" y2="256"></line>
    <line x1="384" y1="0" x2="384" y2="256"></line>
    <line x1="256" y1="128" x2="512" y2="128"></line>
  </g>
<g transform="scale(1, -1) translate(0, -850)">
   <style type="text/css">
    @keyframes keyframes0 {
      from {
       stroke: black;
       stroke-dashoffset: 409;
       stroke-width: 128;
       }
       57% {
       animation-timing-function: step-end;
       stroke: black;
       stroke-dashoffset: 0;
       stroke-width: 128;
       }
       to {
       stroke: black;
       stroke-width: 1024;
       }
       }
       #make-me-a-hanzi-animation-0 {
         animation: keyframes0 0.582845s both;
         animation-delay: 0.000000s;
         animation-timing-function: linear;
       }
    @keyframes keyframes1 {
      from {
       stroke: black;
       stroke-dashoffset: 438;
       stroke-width: 128;
       }
       59% {
       animation-timing-function: step-end;
       stroke: black;
       stroke-dashoffset: 0;
       stroke-width: 128;
       }
       to {
       stroke: black;
       stroke-width: 1024;
       }
       }
       #make-me-a-hanzi-animation-1 {
         animation: keyframes1 0.606445s both;
         animation-delay: 0.582845s;
         animation-timing-function: linear;
       }
    @keyframes keyframes2 {
      from {
       stroke: black;
       stroke-dashoffset: 1141;
       stroke-width: 128;
       }
       79% {
       animation-timing-function: step-end;
       stroke: black;
       stroke-dashoffset: 0;
       stroke-width: 128;
       }
       to {
       stroke: black;
       stroke-width: 1024;
       }
       }
       #make-me-a-hanzi-animation-2 {
         animation: keyframes2 1.178548s both;
         animation-delay: 1.189290s;
         animation-timing-function: linear;
       }
    @keyframes keyframes3 {
      from {
       stroke: black;
       stroke-dashoffset: 381;
       stroke-width: 128;
       }
       55% {
       animation-timing-function: step-end;
       stroke: black;
       stroke-dashoffset: 0;
       stroke-width: 128;
       }
       to {
       stroke: black;
       stroke-width: 1024;
       }
       }
       #make-me-a-hanzi-animation-3 {
         animation: keyframes3 0.560059s both;
         animation-delay: 2.367839s;
         animation-timing-function: linear;
       }
    @keyframes keyframes4 {
      from {
       stroke: black;
       stroke-dashoffset: 486;
       stroke-width: 128;
       }
       61% {
       animation-timing-function: step-end;
       stroke: black;
       stroke-dashoffset: 0;
       stroke-width: 128;
       }
       to {
       stroke: black;
       stroke-width: 1024;
       }
       }
       #make-me-a-hanzi-animation-4 {
         animation: keyframes4 0.645508s both;
         animation-delay: 2.927897s;
         animation-timing-function: linear;
       }
    @keyframes keyframes5 {
      from {
       stroke: black;
       stroke-dashoffset: 637;
       stroke-width: 128;
       }
       67% {
       animation-timing-function: step-end;
       stroke: black;
       stroke-dashoffset: 0;
       stroke-width: 128;
       }
       to {
       stroke: black;
       stroke-width: 1024;
       }
       }
       #make-me-a-hanzi-animation-5 {
         animation: keyframes5 0.768392s both;
         animation-delay: 3.573405s;
         animation-timing-function: linear;
       }
    @keyframes keyframes6 {
      from {
       stroke: black;
       stroke-dashoffset: 893;
       stroke-width: 128;
       }
       74% {
       animation-timing-function: step-end;
       stroke: black;
       stroke-dashoffset: 0;
       stroke-width: 128;
       }
       to {
       stroke: black;
       stroke-width: 1024;
       }
       }
       #make-me-a-hanzi-animation-6 {
         animation: keyframes6 0.976725s both;
         animation-delay: 4.341797s;
         animation-timing-function: linear;
       }
    @keyframes keyframes7 {
      from {
       stroke: black;
       stroke-dashoffset: 476;
       stroke-width: 128;
       }
       61% {
       animation-timing-function: step-end;
       stroke: black;
       stroke-dashoffset: 0;
       stroke-width: 128;
       }
       to {
       stroke: black;
       stroke-width: 1024;
       }
       }
       #make-me-a-hanzi-animation-7 {
         animation: keyframes7 0.637370s both;
         animation-delay: 5.318522s;
         animation-timing-function: linear;
       }
    @keyframes keyframes8 {
      from {
       stroke: black;
       stroke-dashoffset: 477;
       stroke-width: 128;
       }
       61% {
       animation-timing-function: step-end;
       stroke: black;
       stroke-dashoffset: 0;
       stroke-width: 128;
       }
       to {
       stroke: black;
       stroke-width: 1024;
       }
       }
       #make-me-a-hanzi-animation-8 {
         animation: keyframes8 0.638184s both;
         animation-delay: 5.955892s;
         animation-timing-function: linear;
       }
    @keyframes keyframes9 {
      from {
       stroke: black;
       stroke-dashoffset: 472;
       stroke-width: 128;
       }
       61% {
       animation-timing-function: step-end;
       stroke: black;
       stroke-dashoffset: 0;
       stroke-width: 128;
       }
       to {
       stroke: black;
       stroke-width: 1024;
       }
       }
       #make-me-a-hanzi-animation-9 {
         animation: keyframes9 0.634115s both;
         animation-delay: 6.594076s;
         animation-timing-function: linear;
       }
    @keyframes keyframes10 {
      from {
       stroke: black;
       stroke-dashoffset: 436;
       stroke-width: 128;
       }
       59% {
       animation-timing-function: step-end;
       stroke: black;
       stroke-dashoffset: 0;
       stroke-width: 128;
       }
       to {
       stroke: black;
       stroke-width: 1024;
       }
       }
       #make-me-a-hanzi-animation-10 {
         animation: keyframes10 0.604818s both;
         animation-delay: 7.228190s;
         animation-timing-function: linear;
       }
    @keyframes keyframes11 {
      from {
       stroke: black;
       stroke-dashoffset: 872;
       stroke-width: 128;
       }
       74% {
       animation-timing-function: step-end;
       stroke: black;
       stroke-dashoffset: 0;
       stroke-width: 128;
       }
       to {
       stroke: black;
       stroke-width: 1024;
       }
       }
       #make-me-a-hanzi-animation-11 {
         animation: keyframes11 0.959635s both;
         animation-delay: 7.833008s;
         animation-timing-function: linear;
       }
    @keyframes keyframes12 {
      from {
       stroke: black;
       stroke-dashoffset: 376;
       stroke-width: 128;
       }
       55% {
       animation-timing-function: step-end;
       stroke: black;
       stroke-dashoffset: 0;
       stroke-width: 128;
       }
       to {
       stroke: black;
       stroke-width: 1024;
       }
       }
       #make-me-a-hanzi-animation-12 {
         animation: keyframes12 0.555990s both;
         animation-delay: 8.792643s;
         animation-timing-function: linear;
       }
    @keyframes keyframes13 {
      from {
       stroke: black;
       stroke-dashoffset: 433;
       stroke-width: 128;
       }
       58% {
       animation-timing-function: step-end;
       stroke: black;
       stroke-dashoffset: 0;
       stroke-width: 128;
       }
       to {
       stroke: black;
       stroke-width: 1024;
       }
       }
       #make-me-a-hanzi-animation-13 {
         animation: keyframes13 0.602376s both;
         animation-delay: 9.348633s;
         animation-timing-function: linear;
       }
    @keyframes keyframes14 {
      from {
       stroke: black;
       stroke-dashoffset: 436;
       stroke-width: 128;
       }
       59% {
       animation-timing-function: step-end;
       stroke: black;
       stroke-dashoffset: 0;
       stroke-width: 128;
       }
       to {
       stroke: black;
       stroke-width: 1024;
       }
       }
       #make-me-a-hanzi-animation-14 {
         animation: keyframes14 0.604818s both;
         animation-delay: 9.951009s;
         animation-timing-function: linear;
       }
    @keyframes keyframes15 {
      from {
       stroke: black;
       stroke-dashoffset: 614;
       stroke-width: 128;
       }
       67% {
       animation-timing-function: step-end;
       stroke: black;
       stroke-dashoffset: 0;
       stroke-width: 128;
       }
       to {
       stroke: black;
       stroke-width: 1024;
       }
       }
       #make-me-a-hanzi-animation-15 {
         animation: keyframes15 0.749674s both;
         animation-delay: 10.555827s;
         animation-timing-function: linear;
       }
    @keyframes keyframes16 {
      from {
       stroke: black;
       stroke-dashoffset: 1200;
       stroke-width: 128;
       }
       80% {
       animation-timing-function: step-end;
       stroke: black;
       stroke-dashoffset: 0;
       stroke-width: 128;
       }
       to {
       stroke: black;
       stroke-width: 1024;
       }
       }
       #make-me-a-hanzi-animation-16 {
         animation: keyframes16 1.226562s both;
         animation-delay: 11.305501s;
         animation-timing-function: linear;
       }
    @keyframes keyframes17 {
      from {
       stroke: black;
       stroke-dashoffset: 892;
       stroke-width: 128;
       }
       74% {
       animation-timing-function: step-end;
       stroke: black;
       stroke-dashoffset: 0;
       stroke-width: 128;
       }
       to {
       stroke: black;
       stroke-width: 1024;
       }
       }
       #make-me-a-hanzi-animation-17 {
         animation: keyframes17 0.975911s both;
         animation-delay: 12.532064s;
         animation-timing-function: linear;
       }
</style>
<path d="M 93 341 L 103 311 L 119 275 Q 144 192 174 231 Q 182 246 185 259 Q 187 283 183 293 Q 176 321 157.5 339.5 Q 139 358 129 363 Q 96 384 88 378 Q 85 375 87 362.5 Q 89 350 93 341 Z" fill="lightgray"></path> 
<path d="M 307 357 L 398 426 Q 420 444 435 450 Q 450 456 450 463 Q 451 468 441 478 L 421 498 Q 415 504 401 511 Q 387 517 383 516 Q 369 512 368 499 Q 366 486 355 460 L 307 380 C 292 354 283 339 307 357 Z" fill="lightgray"></path> 
<path d="M 286 170 L 291 200 Q 298 244 298.5 257 Q 299 270 300 279 L 307 357 L 307 380 L 309 544 Q 309 573 312 586.5 Q 315 600 322.5 619.5 Q 330 639 329 645 Q 325 661 265 675 Q 225 684 225 661 L 233 640 Q 243 620 244 611.5 Q 245 603 248 585.5 Q 251 568 251 537 L 250 382 Q 247 280 231 178 Q 215 64 142 -48 Q 124 -76 95 -108 L 71 -136 Q 64 -143 65.5 -148.5 Q 67 -154 79 -148 L 99 -135 Q 114 -126 141 -102 Q 198 -53 226 0 Q 241 28 257 70 L 282 154 L 286 170 Z" fill="lightgray"></path> 
<path d="M 317 159 L 286 170 C 266 177 266 177 282 154 L 311 112 Q 339 70 355 58 Q 371 46 383 68 Q 390 80 389 98 Q 387 115 379 127 Q 371 138 350 145 L 317 159 Z" fill="lightgray"></path> 
<path d="M 549 520 L 580 554 Q 607 579 647 634 Q 665 655 670 659 L 687 670 Q 703 686 681 700 Q 670 707 662 710 Q 654 712 632 721 Q 612 727 610 714 L 610 710 L 609 705 L 609 702 L 602 674 Q 598 659 594 650 Q 589 640 588 636 Q 586 631 584 627 Q 582 622 578 611 Q 574 599 559 576 L 527 517 C 513 491 529 498 549 520 Z" fill="lightgray"></path> 
<path d="M 527 517 L 505 527 Q 483 535 477 529 Q 470 522 470 519 Q 469 516 474 504 Q 479 491 481 473 L 487 412 Q 487 411 490 337 Q 493 262 488 226 Q 483 190 484 178 Q 484 165 494 149 Q 501 134 510 135 Q 519 135 523 144 Q 526 153 531 168 L 529 202 L 529 269 L 530 299 L 529 377 L 531 406 L 530 482 C 530 512 530 516 527 517 Z" fill="lightgray"></path> 
<path d="M 752 183 L 760 160 Q 773 140 778 139 Q 782 138 794 146 Q 813 162 817 183 Q 820 203 818 268 Q 816 333 817 385 Q 817 437 818 457 Q 819 476 827 491 Q 836 514 836 517 Q 834 529 802 546 Q 769 562 761 563 Q 752 563 733 558 L 681 544 L 549 520 C 518 514 482 472 530 482 L 679 512 Q 680 513 706 517 Q 732 520 740 516 Q 748 511 752 502 L 752 484 L 755 438 L 754 412 L 756 326 L 756 295 L 755 211 L 752 183 Z" fill="lightgray"></path> 
<path d="M 529 377 L 546 374 Q 556 372 566 374 L 624 383 L 683 394 L 754 412 C 783 419 785 433 755 438 L 732 442 Q 705 445 703 445 Q 701 445 665 436 L 605 421 Q 581 416 531 406 C 502 400 499 382 529 377 Z" fill="lightgray"></path> 
<path d="M 529 269 L 565 267 Q 567 266 607 273 L 756 295 C 786 299 785 319 756 326 L 738 330 Q 723 331 721 333 Q 709 334 677 325 Q 644 316 625 314 L 530 299 C 500 294 499 271 529 269 Z" fill="lightgray"></path> 
<path d="M 531 168 L 571 170 L 691 178 Q 704 180 723 181 L 752 183 C 782 185 783 201 755 211 L 741 216 Q 727 224 669 214 Q 609 207 590 205 Q 571 202 529 202 C 499 202 501 167 531 168 Z" fill="lightgray"></path> 
<path d="M 423 72 L 418 66 Q 390 6 374.5 -18.5 Q 359 -43 353 -57.5 Q 347 -72 350.5 -88 Q 354 -104 361 -113 Q 381 -134 395 -115 Q 411 -97 418.5 -81 Q 426 -65 433.5 -39 Q 441 -13 439 21 Q 437 55 431 63.5 Q 425 72 423 72 Z" fill="lightgray"></path> 
<path d="M 804 20 Q 796 28 791.5 23.5 Q 787 19 792 11 L 815 -42 Q 825 -62 822.5 -71 Q 820 -80 811 -86 Q 797 -98 753.5 -100.5 Q 710 -103 672 -98 Q 634 -93 610.5 -79 Q 587 -65 561.5 -38.5 Q 536 -12 525 38 Q 522 54 519 58 Q 513 64 501 69 Q 489 74 485 70 Q 474 67 487.5 46 Q 501 25 507 -1 Q 513 -27 525 -50 Q 533 -69 552 -90.5 Q 571 -112 592 -125 Q 613 -138 665.5 -153 Q 718 -168 759 -168 Q 798 -170 823 -165 Q 848 -160 887 -147 Q 919 -134 930.5 -122.5 Q 942 -111 942.5 -104.5 Q 943 -98 941 -88 Q 939 -85 930 -76 Q 916 -66 903 -59 L 863 -35 Q 840 -19 823 0 L 804 20 Z" fill="lightgray"></path> 
<path d="M 603 105 Q 593 105 593 100 Q 591 97 594 92 Q 597 87 615 66 Q 638 43 641 39 Q 643 37 662 20.5 Q 681 4 688 4 Q 702 1 713 22 Q 724 43 712 65 Q 703 80 657 93 L 630 98 L 603 105 Z" fill="lightgray"></path> 
<path d="M 847 133 Q 845 132 849 125 Q 853 118 866.5 107.5 Q 880 97 908 67 L 941 34 Q 963 9 972 5 Q 981 1 989 6 Q 1008 16 1006 56 Q 1005 78 986 88 Q 966 102 953 107 L 922 120 L 884 129 Q 859 137 854 135 L 847 133 Z" fill="lightgray"></path> 
<path d="M 1192 414 L 1199 396 Q 1199 394 1207 382 L 1221 352 L 1240 318 L 1258 289 Q 1285 241 1309 257 Q 1320 262 1323 280 Q 1325 298 1322 314 Q 1315 393 1239 416 Q 1207 436 1192 425 Q 1187 423 1192 414 Z" fill="lightgray"></path> 
<path d="M 1502 252 L 1546 280 L 1599 310 Q 1609 316 1648 343 Q 1687 370 1694 376 L 1728 404 Q 1752 422 1772 426 Q 1791 430 1793 436 Q 1796 441 1787 456 Q 1778 471 1770 476 Q 1729 504 1709 509 Q 1689 513 1685 507 Q 1680 501 1680 485 Q 1677 454 1653 425 L 1618 383 Q 1569 328 1541 307 L 1492 269 C 1468 251 1477 236 1502 252 Z" fill="lightgray"></path> 
<path d="M 1428 585 L 1432 558 L 1434 530 L 1434 460 L 1430 374 Q 1425 282 1410 217 Q 1381 108 1323 45 Q 1265 -19 1207 -52 L 1168 -73 L 1112 -100 Q 1104 -105 1106 -111 Q 1108 -117 1118 -116 L 1134 -113 Q 1230 -90 1278 -62 Q 1325 -34 1358 -1 Q 1418 53 1451 138 Q 1460 164 1478 238 L 1485 278 L 1491 310 Q 1495 340 1496 363 Q 1501 409 1501 418 L 1506 518 L 1509 547 Q 1515 581 1522 601 Q 1532 618 1531 625 Q 1529 631 1516 637 Q 1497 649 1459 656 Q 1420 662 1411 656 Q 1401 650 1403 644 Q 1403 638 1415 621 Q 1426 604 1428 585 Z" fill="lightgray"></path> 
<path d="M 1478 238 L 1527 150 L 1558 98 L 1596 43 L 1647 -25 Q 1709 -106 1739 -116 Q 1769 -127 1860 -122 L 1940 -114 Q 1959 -113 1961 -104 Q 1963 -95 1956 -94 L 1944 -88 L 1897 -69 Q 1818 -34 1797 -23 Q 1775 -13 1748 4 Q 1721 21 1673 64 Q 1625 106 1605 126 Q 1590 142 1562 178 L 1502 252 L 1492 269 L 1485 278 C 1468 303 1463 264 1478 238 Z" fill="lightgray"></path> 
      <clipPath id="make-me-a-hanzi-clip-0">
      <path d="M 93 341 L 103 311 L 119 275 Q 144 192 174 231 Q 182 246 185 259 Q 187 283 183 293 Q 176 321 157.5 339.5 Q 139 358 129 363 Q 96 384 88 378 Q 85 375 87 362.5 Q 89 350 93 341 Z" fill="lightgray"></path>
      </clipPath>
      <path clip-path="url(#make-me-a-hanzi-clip-0)" d="M 93 370 L 111 353 L 146 299 L 155 236 " fill="none" id="make-me-a-hanzi-animation-0" stroke-dasharray="281 562" stroke-linecap="round"></path>

      <clipPath id="make-me-a-hanzi-clip-1">
      <path d="M 307 357 L 398 426 Q 420 444 435 450 Q 450 456 450 463 Q 451 468 441 478 L 421 498 Q 415 504 401 511 Q 387 517 383 516 Q 369 512 368 499 Q 366 486 355 460 L 307 380 C 292 354 283 339 307 357 Z" fill="lightgray"></path>
      </clipPath>
      <path clip-path="url(#make-me-a-hanzi-clip-1)" d="M 441 464 L 397 470 L 319 382 L 312 363 " fill="none" id="make-me-a-hanzi-animation-1" stroke-dasharray="310 620" stroke-linecap="round"></path>

      <clipPath id="make-me-a-hanzi-clip-2">
      <path d="M 286 170 L 291 200 Q 298 244 298.5 257 Q 299 270 300 279 L 307 357 L 307 380 L 309 544 Q 309 573 312 586.5 Q 315 600 322.5 619.5 Q 330 639 329 645 Q 325 661 265 675 Q 225 684 225 661 L 233 640 Q 243 620 244 611.5 Q 245 603 248 585.5 Q 251 568 251 537 L 250 382 Q 247 280 231 178 Q 215 64 142 -48 Q 124 -76 95 -108 L 71 -136 Q 64 -143 65.5 -148.5 Q 67 -154 79 -148 L 99 -135 Q 114 -126 141 -102 Q 198 -53 226 0 Q 241 28 257 70 L 282 154 L 286 170 Z" fill="lightgray"></path>
      </clipPath>
      <path clip-path="url(#make-me-a-hanzi-clip-2)" d="M 241 662 L 282 627 L 278 352 L 260 182 L 231 71 L 196 -5 L 137 -85 L 72 -144 " fill="none" id="make-me-a-hanzi-animation-2" stroke-dasharray="1013 2026" stroke-linecap="round"></path>

      <clipPath id="make-me-a-hanzi-clip-3">
      <path d="M 317 159 L 286 170 C 266 177 266 177 282 154 L 311 112 Q 339 70 355 58 Q 371 46 383 68 Q 390 80 389 98 Q 387 115 379 127 Q 371 138 350 145 L 317 159 Z" fill="lightgray"></path>
      </clipPath>
      <path clip-path="url(#make-me-a-hanzi-clip-3)" d="M 290 165 L 294 155 L 354 106 L 366 71 " fill="none" id="make-me-a-hanzi-animation-3" stroke-dasharray="253 506" stroke-linecap="round"></path>

      <clipPath id="make-me-a-hanzi-clip-4">
      <path d="M 549 520 L 580 554 Q 607 579 647 634 Q 665 655 670 659 L 687 670 Q 703 686 681 700 Q 670 707 662 710 Q 654 712 632 721 Q 612 727 610 714 L 610 710 L 609 705 L 609 702 L 602 674 Q 598 659 594 650 Q 589 640 588 636 Q 586 631 584 627 Q 582 622 578 611 Q 574 599 559 576 L 527 517 C 513 491 529 498 549 520 Z" fill="lightgray"></path>
      </clipPath>
      <path clip-path="url(#make-me-a-hanzi-clip-4)" d="M 621 712 L 640 680 L 587 587 L 557 544 L 532 522 " fill="none" id="make-me-a-hanzi-animation-4" stroke-dasharray="358 716" stroke-linecap="round"></path>

      <clipPath id="make-me-a-hanzi-clip-5">
      <path d="M 527 517 L 505 527 Q 483 535 477 529 Q 470 522 470 519 Q 469 516 474 504 Q 479 491 481 473 L 487 412 Q 487 411 490 337 Q 493 262 488 226 Q 483 190 484 178 Q 484 165 494 149 Q 501 134 510 135 Q 519 135 523 144 Q 526 153 531 168 L 529 202 L 529 269 L 530 299 L 529 377 L 531 406 L 530 482 C 530 512 530 516 527 517 Z" fill="lightgray"></path>
      </clipPath>
      <path clip-path="url(#make-me-a-hanzi-clip-5)" d="M 481 518 L 503 497 L 506 474 L 510 147 " fill="none" id="make-me-a-hanzi-animation-5" stroke-dasharray="509 1018" stroke-linecap="round"></path>

      <clipPath id="make-me-a-hanzi-clip-6">
      <path d="M 752 183 L 760 160 Q 773 140 778 139 Q 782 138 794 146 Q 813 162 817 183 Q 820 203 818 268 Q 816 333 817 385 Q 817 437 818 457 Q 819 476 827 491 Q 836 514 836 517 Q 834 529 802 546 Q 769 562 761 563 Q 752 563 733 558 L 681 544 L 549 520 C 518 514 482 472 530 482 L 679 512 Q 680 513 706 517 Q 732 520 740 516 Q 748 511 752 502 L 752 484 L 755 438 L 754 412 L 756 326 L 756 295 L 755 211 L 752 183 Z" fill="lightgray"></path>
      </clipPath>
      <path clip-path="url(#make-me-a-hanzi-clip-6)" d="M 536 488 L 545 503 L 731 538 L 765 532 L 791 507 L 785 417 L 788 238 L 779 148 " fill="none" id="make-me-a-hanzi-animation-6" stroke-dasharray="765 1530" stroke-linecap="round"></path>

      <clipPath id="make-me-a-hanzi-clip-7">
      <path d="M 529 377 L 546 374 Q 556 372 566 374 L 624 383 L 683 394 L 754 412 C 783 419 785 433 755 438 L 732 442 Q 705 445 703 445 Q 701 445 665 436 L 605 421 Q 581 416 531 406 C 502 400 499 382 529 377 Z" fill="lightgray"></path>
      </clipPath>
      <path clip-path="url(#make-me-a-hanzi-clip-7)" d="M 535 384 L 548 392 L 728 423 L 748 432 " fill="none" id="make-me-a-hanzi-animation-7" stroke-dasharray="348 696" stroke-linecap="round"></path>

      <clipPath id="make-me-a-hanzi-clip-8">
      <path d="M 529 269 L 565 267 Q 567 266 607 273 L 756 295 C 786 299 785 319 756 326 L 738 330 Q 723 331 721 333 Q 709 334 677 325 Q 644 316 625 314 L 530 299 C 500 294 499 271 529 269 Z" fill="lightgray"></path>
      </clipPath>
      <path clip-path="url(#make-me-a-hanzi-clip-8)" d="M 535 276 L 553 286 L 737 311 L 750 318 " fill="none" id="make-me-a-hanzi-animation-8" stroke-dasharray="349 698" stroke-linecap="round"></path>

      <clipPath id="make-me-a-hanzi-clip-9">
      <path d="M 531 168 L 571 170 L 691 178 Q 704 180 723 181 L 752 183 C 782 185 783 201 755 211 L 741 216 Q 727 224 669 214 Q 609 207 590 205 Q 571 202 529 202 C 499 202 501 167 531 168 Z" fill="lightgray"></path>
      </clipPath>
      <path clip-path="url(#make-me-a-hanzi-clip-9)" d="M 537 174 L 546 185 L 557 187 L 701 200 L 736 199 L 744 191 " fill="none" id="make-me-a-hanzi-animation-9" stroke-dasharray="344 688" stroke-linecap="round"></path>

      <clipPath id="make-me-a-hanzi-clip-10">
      <path d="M 423 72 L 418 66 Q 390 6 374.5 -18.5 Q 359 -43 353 -57.5 Q 347 -72 350.5 -88 Q 354 -104 361 -113 Q 381 -134 395 -115 Q 411 -97 418.5 -81 Q 426 -65 433.5 -39 Q 441 -13 439 21 Q 437 55 431 63.5 Q 425 72 423 72 Z" fill="lightgray"></path>
      </clipPath>
      <path clip-path="url(#make-me-a-hanzi-clip-10)" d="M 425 66 L 413 -4 L 382 -79 L 380 -107 " fill="none" id="make-me-a-hanzi-animation-10" stroke-dasharray="308 616" stroke-linecap="round"></path>

      <clipPath id="make-me-a-hanzi-clip-11">
      <path d="M 804 20 Q 796 28 791.5 23.5 Q 787 19 792 11 L 815 -42 Q 825 -62 822.5 -71 Q 820 -80 811 -86 Q 797 -98 753.5 -100.5 Q 710 -103 672 -98 Q 634 -93 610.5 -79 Q 587 -65 561.5 -38.5 Q 536 -12 525 38 Q 522 54 519 58 Q 513 64 501 69 Q 489 74 485 70 Q 474 67 487.5 46 Q 501 25 507 -1 Q 513 -27 525 -50 Q 533 -69 552 -90.5 Q 571 -112 592 -125 Q 613 -138 665.5 -153 Q 718 -168 759 -168 Q 798 -170 823 -165 Q 848 -160 887 -147 Q 919 -134 930.5 -122.5 Q 942 -111 942.5 -104.5 Q 943 -98 941 -88 Q 939 -85 930 -76 Q 916 -66 903 -59 L 863 -35 Q 840 -19 823 0 L 804 20 Z" fill="lightgray"></path>
      </clipPath>
      <path clip-path="url(#make-me-a-hanzi-clip-11)" d="M 491 61 L 509 41 L 537 -37 L 573 -81 L 600 -102 L 630 -115 L 697 -131 L 803 -131 L 852 -111 L 867 -98 L 844 -49 L 797 17 " fill="none" id="make-me-a-hanzi-animation-11" stroke-dasharray="744 1488" stroke-linecap="round"></path>

      <clipPath id="make-me-a-hanzi-clip-12">
      <path d="M 603 105 Q 593 105 593 100 Q 591 97 594 92 Q 597 87 615 66 Q 638 43 641 39 Q 643 37 662 20.5 Q 681 4 688 4 Q 702 1 713 22 Q 724 43 712 65 Q 703 80 657 93 L 630 98 L 603 105 Z" fill="lightgray"></path>
      </clipPath>
      <path clip-path="url(#make-me-a-hanzi-clip-12)" d="M 601 97 L 682 48 L 690 24 " fill="none" id="make-me-a-hanzi-animation-12" stroke-dasharray="248 496" stroke-linecap="round"></path>

      <clipPath id="make-me-a-hanzi-clip-13">
      <path d="M 847 133 Q 845 132 849 125 Q 853 118 866.5 107.5 Q 880 97 908 67 L 941 34 Q 963 9 972 5 Q 981 1 989 6 Q 1008 16 1006 56 Q 1005 78 986 88 Q 966 102 953 107 L 922 120 L 884 129 Q 859 137 854 135 L 847 133 Z" fill="lightgray"></path>
      </clipPath>
      <path clip-path="url(#make-me-a-hanzi-clip-13)" d="M 852 130 L 899 106 L 970 56 L 980 20 " fill="none" id="make-me-a-hanzi-animation-13" stroke-dasharray="305 610" stroke-linecap="round"></path>

      <clipPath id="make-me-a-hanzi-clip-14">
      <path d="M 1192 414 L 1199 396 Q 1199 394 1207 382 L 1221 352 L 1240 318 L 1258 289 Q 1285 241 1309 257 Q 1320 262 1323 280 Q 1325 298 1322 314 Q 1315 393 1239 416 Q 1207 436 1192 425 Q 1187 423 1192 414 Z" fill="lightgray"></path>
      </clipPath>
      <path clip-path="url(#make-me-a-hanzi-clip-14)" d="M 1200 420 L 1266 354 L 1285 317 L 1297 274 " fill="none" id="make-me-a-hanzi-animation-14" stroke-dasharray="308 616" stroke-linecap="round"></path>

      <clipPath id="make-me-a-hanzi-clip-15">
      <path d="M 1502 252 L 1546 280 L 1599 310 Q 1609 316 1648 343 Q 1687 370 1694 376 L 1728 404 Q 1752 422 1772 426 Q 1791 430 1793 436 Q 1796 441 1787 456 Q 1778 471 1770 476 Q 1729 504 1709 509 Q 1689 513 1685 507 Q 1680 501 1680 485 Q 1677 454 1653 425 L 1618 383 Q 1569 328 1541 307 L 1492 269 C 1468 251 1477 236 1502 252 Z" fill="lightgray"></path>
      </clipPath>
      <path clip-path="url(#make-me-a-hanzi-clip-15)" d="M 1784 440 L 1755 451 L 1720 453 L 1642 370 L 1572 312 L 1516 276 L 1505 259 " fill="none" id="make-me-a-hanzi-animation-15" stroke-dasharray="486 972" stroke-linecap="round"></path>

      <clipPath id="make-me-a-hanzi-clip-16">
      <path d="M 1428 585 L 1432 558 L 1434 530 L 1434 460 L 1430 374 Q 1425 282 1410 217 Q 1381 108 1323 45 Q 1265 -19 1207 -52 L 1168 -73 L 1112 -100 Q 1104 -105 1106 -111 Q 1108 -117 1118 -116 L 1134 -113 Q 1230 -90 1278 -62 Q 1325 -34 1358 -1 Q 1418 53 1451 138 Q 1460 164 1478 238 L 1485 278 L 1491 310 Q 1495 340 1496 363 Q 1501 409 1501 418 L 1506 518 L 1509 547 Q 1515 581 1522 601 Q 1532 618 1531 625 Q 1529 631 1516 637 Q 1497 649 1459 656 Q 1420 662 1411 656 Q 1401 650 1403 644 Q 1403 638 1415 621 Q 1426 604 1428 585 Z" fill="lightgray"></path>
      </clipPath>
      <path clip-path="url(#make-me-a-hanzi-clip-16)" d="M 1416 644 L 1446 628 L 1473 600 L 1460 321 L 1442 216 L 1419 142 L 1368 53 L 1305 -12 L 1218 -69 L 1114 -108 " fill="none" id="make-me-a-hanzi-animation-16" stroke-dasharray="1072 2144" stroke-linecap="round"></path>

      <clipPath id="make-me-a-hanzi-clip-17">
      <path d="M 1478 238 L 1527 150 L 1558 98 L 1596 43 L 1647 -25 Q 1709 -106 1739 -116 Q 1769 -127 1860 -122 L 1940 -114 Q 1959 -113 1961 -104 Q 1963 -95 1956 -94 L 1944 -88 L 1897 -69 Q 1818 -34 1797 -23 Q 1775 -13 1748 4 Q 1721 21 1673 64 Q 1625 106 1605 126 Q 1590 142 1562 178 L 1502 252 L 1492 269 L 1485 278 C 1468 303 1463 264 1478 238 Z" fill="lightgray"></path>
      </clipPath>
      <path clip-path="url(#make-me-a-hanzi-clip-17)" d="M 1485 271 L 1491 243 L 1576 118 L 1637 47 L 1728 -43 L 1777 -71 L 1952 -102 " fill="none" id="make-me-a-hanzi-animation-17" stroke-dasharray="764 1528" stroke-linecap="round"></path>

</g>
</svg>
