<svg version="1.1" viewBox="0 0 2048 1024" xmlns="http://www.w3.org/2000/svg">
  <g stroke="lightgray" stroke-dasharray="1,1" stroke-width="1" transform="scale(4, 4)">
    <line x1="0" y1="0" x2="256" y2="256"></line>
    <line x1="256" y1="0" x2="0" y2="256"></line>
    <line x1="128" y1="0" x2="128" y2="256"></line>
    <line x1="0" y1="128" x2="256" y2="128"></line>
    <line x1="256" y1="0" x2="512" y2="256"></line>
    <line x1="512" y1="0" x2="256" y2="256"></line>
    <line x1="384" y1="0" x2="384" y2="256"></line>
    <line x1="256" y1="128" x2="512" y2="128"></line>
  </g>
<g transform="scale(1, -1) translate(0, -850)">
   <style type="text/css">
    @keyframes keyframes0 {
      from {
       stroke: black;
       stroke-dashoffset: 394;
       stroke-width: 128;
       }
       56% {
       animation-timing-function: step-end;
       stroke: black;
       stroke-dashoffset: 0;
       stroke-width: 128;
       }
       to {
       stroke: black;
       stroke-width: 1024;
       }
       }
       #make-me-a-hanzi-animation-0 {
         animation: keyframes0 0.570638s both;
         animation-delay: 0.000000s;
         animation-timing-function: linear;
       }
    @keyframes keyframes1 {
      from {
       stroke: black;
       stroke-dashoffset: 435;
       stroke-width: 128;
       }
       59% {
       animation-timing-function: step-end;
       stroke: black;
       stroke-dashoffset: 0;
       stroke-width: 128;
       }
       to {
       stroke: black;
       stroke-width: 1024;
       }
       }
       #make-me-a-hanzi-animation-1 {
         animation: keyframes1 0.604004s both;
         animation-delay: 0.570638s;
         animation-timing-function: linear;
       }
    @keyframes keyframes2 {
      from {
       stroke: black;
       stroke-dashoffset: 947;
       stroke-width: 128;
       }
       76% {
       animation-timing-function: step-end;
       stroke: black;
       stroke-dashoffset: 0;
       stroke-width: 128;
       }
       to {
       stroke: black;
       stroke-width: 1024;
       }
       }
       #make-me-a-hanzi-animation-2 {
         animation: keyframes2 1.020671s both;
         animation-delay: 1.174642s;
         animation-timing-function: linear;
       }
    @keyframes keyframes3 {
      from {
       stroke: black;
       stroke-dashoffset: 514;
       stroke-width: 128;
       }
       63% {
       animation-timing-function: step-end;
       stroke: black;
       stroke-dashoffset: 0;
       stroke-width: 128;
       }
       to {
       stroke: black;
       stroke-width: 1024;
       }
       }
       #make-me-a-hanzi-animation-3 {
         animation: keyframes3 0.668294s both;
         animation-delay: 2.195313s;
         animation-timing-function: linear;
       }
    @keyframes keyframes4 {
      from {
       stroke: black;
       stroke-dashoffset: 605;
       stroke-width: 128;
       }
       66% {
       animation-timing-function: step-end;
       stroke: black;
       stroke-dashoffset: 0;
       stroke-width: 128;
       }
       to {
       stroke: black;
       stroke-width: 1024;
       }
       }
       #make-me-a-hanzi-animation-4 {
         animation: keyframes4 0.742350s both;
         animation-delay: 2.863607s;
         animation-timing-function: linear;
       }
    @keyframes keyframes5 {
      from {
       stroke: black;
       stroke-dashoffset: 984;
       stroke-width: 128;
       }
       76% {
       animation-timing-function: step-end;
       stroke: black;
       stroke-dashoffset: 0;
       stroke-width: 128;
       }
       to {
       stroke: black;
       stroke-width: 1024;
       }
       }
       #make-me-a-hanzi-animation-5 {
         animation: keyframes5 1.050781s both;
         animation-delay: 3.605957s;
         animation-timing-function: linear;
       }
    @keyframes keyframes6 {
      from {
       stroke: black;
       stroke-dashoffset: 952;
       stroke-width: 128;
       }
       76% {
       animation-timing-function: step-end;
       stroke: black;
       stroke-dashoffset: 0;
       stroke-width: 128;
       }
       to {
       stroke: black;
       stroke-width: 1024;
       }
       }
       #make-me-a-hanzi-animation-6 {
         animation: keyframes6 1.024740s both;
         animation-delay: 4.656738s;
         animation-timing-function: linear;
       }
    @keyframes keyframes7 {
      from {
       stroke: black;
       stroke-dashoffset: 394;
       stroke-width: 128;
       }
       56% {
       animation-timing-function: step-end;
       stroke: black;
       stroke-dashoffset: 0;
       stroke-width: 128;
       }
       to {
       stroke: black;
       stroke-width: 1024;
       }
       }
       #make-me-a-hanzi-animation-7 {
         animation: keyframes7 0.570638s both;
         animation-delay: 5.681478s;
         animation-timing-function: linear;
       }
    @keyframes keyframes8 {
      from {
       stroke: black;
       stroke-dashoffset: 435;
       stroke-width: 128;
       }
       59% {
       animation-timing-function: step-end;
       stroke: black;
       stroke-dashoffset: 0;
       stroke-width: 128;
       }
       to {
       stroke: black;
       stroke-width: 1024;
       }
       }
       #make-me-a-hanzi-animation-8 {
         animation: keyframes8 0.604004s both;
         animation-delay: 6.252116s;
         animation-timing-function: linear;
       }
    @keyframes keyframes9 {
      from {
       stroke: black;
       stroke-dashoffset: 947;
       stroke-width: 128;
       }
       76% {
       animation-timing-function: step-end;
       stroke: black;
       stroke-dashoffset: 0;
       stroke-width: 128;
       }
       to {
       stroke: black;
       stroke-width: 1024;
       }
       }
       #make-me-a-hanzi-animation-9 {
         animation: keyframes9 1.020671s both;
         animation-delay: 6.856120s;
         animation-timing-function: linear;
       }
    @keyframes keyframes10 {
      from {
       stroke: black;
       stroke-dashoffset: 514;
       stroke-width: 128;
       }
       63% {
       animation-timing-function: step-end;
       stroke: black;
       stroke-dashoffset: 0;
       stroke-width: 128;
       }
       to {
       stroke: black;
       stroke-width: 1024;
       }
       }
       #make-me-a-hanzi-animation-10 {
         animation: keyframes10 0.668294s both;
         animation-delay: 7.876791s;
         animation-timing-function: linear;
       }
    @keyframes keyframes11 {
      from {
       stroke: black;
       stroke-dashoffset: 605;
       stroke-width: 128;
       }
       66% {
       animation-timing-function: step-end;
       stroke: black;
       stroke-dashoffset: 0;
       stroke-width: 128;
       }
       to {
       stroke: black;
       stroke-width: 1024;
       }
       }
       #make-me-a-hanzi-animation-11 {
         animation: keyframes11 0.742350s both;
         animation-delay: 8.545085s;
         animation-timing-function: linear;
       }
    @keyframes keyframes12 {
      from {
       stroke: black;
       stroke-dashoffset: 984;
       stroke-width: 128;
       }
       76% {
       animation-timing-function: step-end;
       stroke: black;
       stroke-dashoffset: 0;
       stroke-width: 128;
       }
       to {
       stroke: black;
       stroke-width: 1024;
       }
       }
       #make-me-a-hanzi-animation-12 {
         animation: keyframes12 1.050781s both;
         animation-delay: 9.287435s;
         animation-timing-function: linear;
       }
    @keyframes keyframes13 {
      from {
       stroke: black;
       stroke-dashoffset: 952;
       stroke-width: 128;
       }
       76% {
       animation-timing-function: step-end;
       stroke: black;
       stroke-dashoffset: 0;
       stroke-width: 128;
       }
       to {
       stroke: black;
       stroke-width: 1024;
       }
       }
       #make-me-a-hanzi-animation-13 {
         animation: keyframes13 1.024740s both;
         animation-delay: 10.338216s;
         animation-timing-function: linear;
       }
</style>
<path d="M 562.5 660.5 L 569.5 675.5 Q 574.5 684.5 576.5 700.5 Q 577.5 715.5 571.5 726.5 Q 567.5 738.5 549.5 753.5 Q 531.5 768.5 527.5 770.5 L 496.5 783.5 Q 478.5 791.5 473.5 786.5 Q 463.5 781.5 485.5 732.5 L 511.5 676.5 Q 514.5 668.5 529.5 654.5 C 550.5 634.5 550.5 634.5 562.5 660.5 Z" fill="lightgray"></path> 
<path d="M 263.5 637.5 L 247.5 670.5 Q 239.5 676.5 236.5 675.5 Q 232.5 673.5 229.5 661.5 L 206.5 595.5 Q 195.5 573.5 181.5 548.5 L 173.5 535.5 Q 159.5 502.5 173.5 483.5 Q 177.5 474.5 197.5 472.5 Q 209.5 467.5 223.5 488.5 Q 236.5 509.5 243.5 527.5 L 255.5 562.5 L 264.5 599.5 C 270.5 623.5 270.5 623.5 263.5 637.5 Z" fill="lightgray"></path> 
<path d="M 752.5 688.5 L 728.5 684.5 Q 720.5 682.5 701.5 680.5 L 562.5 660.5 L 529.5 654.5 L 471.5 650.5 Q 468.5 649.5 398.5 643.5 Q 339.5 636.5 319.5 637.5 Q 299.5 637.5 263.5 637.5 C 233.5 637.5 234.5 602.5 264.5 599.5 L 284.5 597.5 Q 306.5 595.5 311.5 595.5 Q 316.5 595.5 356.5 603.5 L 468.5 619.5 Q 562.5 632.5 600.5 637.5 L 716.5 648.5 Q 748.5 653.5 753.5 648.5 Q 758.5 643.5 760.5 638.5 Q 762.5 632.5 760.5 627.5 Q 758.5 622.5 731.5 570.5 L 717.5 540.5 Q 716.5 536.5 717.5 532.5 Q 720.5 528.5 727.5 534.5 L 756.5 553.5 Q 772.5 563.5 788.5 568.5 Q 804.5 572.5 809.5 574.5 Q 813.5 575.5 823.5 578.5 Q 833.5 580.5 850.5 583.5 Q 867.5 585.5 873.5 590.5 Q 878.5 594.5 879.5 602.5 Q 880.5 610.5 859.5 635.5 Q 821.5 676.5 808.5 683.5 Q 788.5 698.5 765.5 690.5 L 752.5 688.5 Z" fill="lightgray"></path> 
<path d="M 372.5 404.5 L 408.5 467.5 Q 417.5 478.5 418.0 485.5 Q 418.5 492.5 408.5 501.5 Q 407.5 501.5 393.0 511.0 Q 378.5 520.5 361.5 526.5 Q 350.5 527.5 347.5 524.5 Q 341.5 522.5 341.5 496.5 Q 341.5 470.5 328.5 434.5 Q 315.5 398.5 305.5 379.5 Q 289.5 342.5 278.5 323.5 L 263.5 299.5 Q 257.5 289.5 262.0 285.0 Q 266.5 280.5 275.5 290.5 L 295.5 308.5 Q 318.5 331.5 326.5 341.0 Q 334.5 350.5 359.5 384.5 L 372.5 404.5 Z" fill="lightgray"></path> 
<path d="M 563.5 386.5 L 603.5 390.5 Q 623.5 392.5 643.5 396.5 L 691.5 404.5 Q 717.5 409.5 722.5 414.5 Q 726.5 418.5 724.5 423.5 Q 724.5 434.5 695.5 442.5 Q 682.5 448.5 670.5 448.5 L 563.5 430.5 L 503.5 419.5 L 372.5 404.5 C 342.5 401.5 333.5 399.5 359.5 384.5 L 375.5 375.5 Q 385.5 368.5 410.5 370.5 L 502.5 377.5 L 563.5 386.5 Z" fill="lightgray"></path> 
<path d="M 369.5 189.5 Q 373.5 190.5 379.5 190.5 L 498.5 202.5 L 557.5 204.5 L 609.5 209.5 L 745.5 212.5 Q 808.5 215.5 825.5 214.5 Q 876.5 210.5 880.5 222.5 Q 881.5 225.5 872.0 237.5 Q 862.5 249.5 854.5 254.5 Q 846.5 259.5 826.0 266.0 Q 805.5 272.5 793.0 272.5 Q 780.5 272.5 754.0 266.0 Q 727.5 259.5 679.5 255.5 L 558.5 244.5 L 501.5 241.5 L 302.5 218.5 L 158.5 208.5 Q 147.5 207.5 145.5 202.5 Q 142.5 191.5 170.5 176.0 Q 198.5 160.5 216.0 160.5 Q 233.5 160.5 251.5 165.5 Q 269.5 170.5 287.5 173.5 L 369.5 189.5 Z" fill="lightgray"></path> 
<path d="M 498.5 202.5 L 498.5 -28.5 L 500.5 -65.5 Q 502.5 -115.5 515.5 -115.5 Q 530.5 -115.5 541.0 -53.0 Q 551.5 9.5 552.5 54.5 L 557.5 204.5 L 558.5 244.5 L 563.5 386.5 L 563.5 430.5 L 567.5 478.5 Q 568.5 510.5 577.5 524.5 L 584.5 539.5 Q 584.5 567.5 531.5 574.5 L 522.5 576.5 Q 495.5 585.5 489.5 576.5 Q 487.5 568.5 487.5 566.5 Q 487.5 564.5 493.0 550.5 Q 498.5 536.5 500.5 518.5 L 502.5 488.5 L 503.5 419.5 L 502.5 377.5 L 501.5 241.5 L 498.5 202.5 Z" fill="lightgray"></path> 
<path d="M 1586.5 660.5 L 1593.5 675.5 Q 1598.5 684.5 1600.5 700.5 Q 1601.5 715.5 1595.5 726.5 Q 1591.5 738.5 1573.5 753.5 Q 1555.5 768.5 1551.5 770.5 L 1520.5 783.5 Q 1502.5 791.5 1497.5 786.5 Q 1487.5 781.5 1509.5 732.5 L 1535.5 676.5 Q 1538.5 668.5 1553.5 654.5 C 1574.5 634.5 1574.5 634.5 1586.5 660.5 Z" fill="lightgray"></path> 
<path d="M 1287.5 637.5 L 1271.5 670.5 Q 1263.5 676.5 1260.5 675.5 Q 1256.5 673.5 1253.5 661.5 L 1230.5 595.5 Q 1219.5 573.5 1205.5 548.5 L 1197.5 535.5 Q 1183.5 502.5 1197.5 483.5 Q 1201.5 474.5 1221.5 472.5 Q 1233.5 467.5 1247.5 488.5 Q 1260.5 509.5 1267.5 527.5 L 1279.5 562.5 L 1288.5 599.5 C 1294.5 623.5 1294.5 623.5 1287.5 637.5 Z" fill="lightgray"></path> 
<path d="M 1776.5 688.5 L 1752.5 684.5 Q 1744.5 682.5 1725.5 680.5 L 1586.5 660.5 L 1553.5 654.5 L 1495.5 650.5 Q 1492.5 649.5 1422.5 643.5 Q 1363.5 636.5 1343.5 637.5 Q 1323.5 637.5 1287.5 637.5 C 1257.5 637.5 1258.5 602.5 1288.5 599.5 L 1308.5 597.5 Q 1330.5 595.5 1335.5 595.5 Q 1340.5 595.5 1380.5 603.5 L 1492.5 619.5 Q 1586.5 632.5 1624.5 637.5 L 1740.5 648.5 Q 1772.5 653.5 1777.5 648.5 Q 1782.5 643.5 1784.5 638.5 Q 1786.5 632.5 1784.5 627.5 Q 1782.5 622.5 1755.5 570.5 L 1741.5 540.5 Q 1740.5 536.5 1741.5 532.5 Q 1744.5 528.5 1751.5 534.5 L 1780.5 553.5 Q 1796.5 563.5 1812.5 568.5 Q 1828.5 572.5 1833.5 574.5 Q 1837.5 575.5 1847.5 578.5 Q 1857.5 580.5 1874.5 583.5 Q 1891.5 585.5 1897.5 590.5 Q 1902.5 594.5 1903.5 602.5 Q 1904.5 610.5 1883.5 635.5 Q 1845.5 676.5 1832.5 683.5 Q 1812.5 698.5 1789.5 690.5 L 1776.5 688.5 Z" fill="lightgray"></path> 
<path d="M 1396.5 404.5 L 1432.5 467.5 Q 1441.5 478.5 1442.0 485.5 Q 1442.5 492.5 1432.5 501.5 Q 1431.5 501.5 1417.0 511.0 Q 1402.5 520.5 1385.5 526.5 Q 1374.5 527.5 1371.5 524.5 Q 1365.5 522.5 1365.5 496.5 Q 1365.5 470.5 1352.5 434.5 Q 1339.5 398.5 1329.5 379.5 Q 1313.5 342.5 1302.5 323.5 L 1287.5 299.5 Q 1281.5 289.5 1286.0 285.0 Q 1290.5 280.5 1299.5 290.5 L 1319.5 308.5 Q 1342.5 331.5 1350.5 341.0 Q 1358.5 350.5 1383.5 384.5 L 1396.5 404.5 Z" fill="lightgray"></path> 
<path d="M 1587.5 386.5 L 1627.5 390.5 Q 1647.5 392.5 1667.5 396.5 L 1715.5 404.5 Q 1741.5 409.5 1746.5 414.5 Q 1750.5 418.5 1748.5 423.5 Q 1748.5 434.5 1719.5 442.5 Q 1706.5 448.5 1694.5 448.5 L 1587.5 430.5 L 1527.5 419.5 L 1396.5 404.5 C 1366.5 401.5 1357.5 399.5 1383.5 384.5 L 1399.5 375.5 Q 1409.5 368.5 1434.5 370.5 L 1526.5 377.5 L 1587.5 386.5 Z" fill="lightgray"></path> 
<path d="M 1393.5 189.5 Q 1397.5 190.5 1403.5 190.5 L 1522.5 202.5 L 1581.5 204.5 L 1633.5 209.5 L 1769.5 212.5 Q 1832.5 215.5 1849.5 214.5 Q 1900.5 210.5 1904.5 222.5 Q 1905.5 225.5 1896.0 237.5 Q 1886.5 249.5 1878.5 254.5 Q 1870.5 259.5 1850.0 266.0 Q 1829.5 272.5 1817.0 272.5 Q 1804.5 272.5 1778.0 266.0 Q 1751.5 259.5 1703.5 255.5 L 1582.5 244.5 L 1525.5 241.5 L 1326.5 218.5 L 1182.5 208.5 Q 1171.5 207.5 1169.5 202.5 Q 1166.5 191.5 1194.5 176.0 Q 1222.5 160.5 1240.0 160.5 Q 1257.5 160.5 1275.5 165.5 Q 1293.5 170.5 1311.5 173.5 L 1393.5 189.5 Z" fill="lightgray"></path> 
<path d="M 1522.5 202.5 L 1522.5 -28.5 L 1524.5 -65.5 Q 1526.5 -115.5 1539.5 -115.5 Q 1554.5 -115.5 1565.0 -53.0 Q 1575.5 9.5 1576.5 54.5 L 1581.5 204.5 L 1582.5 244.5 L 1587.5 386.5 L 1587.5 430.5 L 1591.5 478.5 Q 1592.5 510.5 1601.5 524.5 L 1608.5 539.5 Q 1608.5 567.5 1555.5 574.5 L 1546.5 576.5 Q 1519.5 585.5 1513.5 576.5 Q 1511.5 568.5 1511.5 566.5 Q 1511.5 564.5 1517.0 550.5 Q 1522.5 536.5 1524.5 518.5 L 1526.5 488.5 L 1527.5 419.5 L 1526.5 377.5 L 1525.5 241.5 L 1522.5 202.5 Z" fill="lightgray"></path> 
      <clipPath id="make-me-a-hanzi-clip-0">
      <path d="M 562.5 660.5 L 569.5 675.5 Q 574.5 684.5 576.5 700.5 Q 577.5 715.5 571.5 726.5 Q 567.5 738.5 549.5 753.5 Q 531.5 768.5 527.5 770.5 L 496.5 783.5 Q 478.5 791.5 473.5 786.5 Q 463.5 781.5 485.5 732.5 L 511.5 676.5 Q 514.5 668.5 529.5 654.5 C 550.5 634.5 550.5 634.5 562.5 660.5 Z" fill="lightgray"></path>
      </clipPath>
      <path clip-path="url(#make-me-a-hanzi-clip-0)" d="M 479.5 779.5 L 530.5 722.5 L 539.5 706.5 L 540.5 687.5 L 555.5 668.5 " fill="none" id="make-me-a-hanzi-animation-0" stroke-dasharray="266 532" stroke-linecap="round"></path>

      <clipPath id="make-me-a-hanzi-clip-1">
      <path d="M 263.5 637.5 L 247.5 670.5 Q 239.5 676.5 236.5 675.5 Q 232.5 673.5 229.5 661.5 L 206.5 595.5 Q 195.5 573.5 181.5 548.5 L 173.5 535.5 Q 159.5 502.5 173.5 483.5 Q 177.5 474.5 197.5 472.5 Q 209.5 467.5 223.5 488.5 Q 236.5 509.5 243.5 527.5 L 255.5 562.5 L 264.5 599.5 C 270.5 623.5 270.5 623.5 263.5 637.5 Z" fill="lightgray"></path>
      </clipPath>
      <path clip-path="url(#make-me-a-hanzi-clip-1)" d="M 238.5 665.5 L 242.5 630.5 L 237.5 599.5 L 198.5 509.5 L 201.5 495.5 " fill="none" id="make-me-a-hanzi-animation-1" stroke-dasharray="307 614" stroke-linecap="round"></path>

      <clipPath id="make-me-a-hanzi-clip-2">
      <path d="M 752.5 688.5 L 728.5 684.5 Q 720.5 682.5 701.5 680.5 L 562.5 660.5 L 529.5 654.5 L 471.5 650.5 Q 468.5 649.5 398.5 643.5 Q 339.5 636.5 319.5 637.5 Q 299.5 637.5 263.5 637.5 C 233.5 637.5 234.5 602.5 264.5 599.5 L 284.5 597.5 Q 306.5 595.5 311.5 595.5 Q 316.5 595.5 356.5 603.5 L 468.5 619.5 Q 562.5 632.5 600.5 637.5 L 716.5 648.5 Q 748.5 653.5 753.5 648.5 Q 758.5 643.5 760.5 638.5 Q 762.5 632.5 760.5 627.5 Q 758.5 622.5 731.5 570.5 L 717.5 540.5 Q 716.5 536.5 717.5 532.5 Q 720.5 528.5 727.5 534.5 L 756.5 553.5 Q 772.5 563.5 788.5 568.5 Q 804.5 572.5 809.5 574.5 Q 813.5 575.5 823.5 578.5 Q 833.5 580.5 850.5 583.5 Q 867.5 585.5 873.5 590.5 Q 878.5 594.5 879.5 602.5 Q 880.5 610.5 859.5 635.5 Q 821.5 676.5 808.5 683.5 Q 788.5 698.5 765.5 690.5 L 752.5 688.5 Z" fill="lightgray"></path>
      </clipPath>
      <path clip-path="url(#make-me-a-hanzi-clip-2)" d="M 271.5 631.5 L 283.5 617.5 L 341.5 617.5 L 711.5 665.5 L 749.5 669.5 L 778.5 664.5 L 795.5 648.5 L 807.5 622.5 L 752.5 573.5 L 721.5 536.5 " fill="none" id="make-me-a-hanzi-animation-2" stroke-dasharray="819 1638" stroke-linecap="round"></path>

      <clipPath id="make-me-a-hanzi-clip-3">
      <path d="M 372.5 404.5 L 408.5 467.5 Q 417.5 478.5 418.0 485.5 Q 418.5 492.5 408.5 501.5 Q 407.5 501.5 393.0 511.0 Q 378.5 520.5 361.5 526.5 Q 350.5 527.5 347.5 524.5 Q 341.5 522.5 341.5 496.5 Q 341.5 470.5 328.5 434.5 Q 315.5 398.5 305.5 379.5 Q 289.5 342.5 278.5 323.5 L 263.5 299.5 Q 257.5 289.5 262.0 285.0 Q 266.5 280.5 275.5 290.5 L 295.5 308.5 Q 318.5 331.5 326.5 341.0 Q 334.5 350.5 359.5 384.5 L 372.5 404.5 Z" fill="lightgray"></path>
      </clipPath>
      <path clip-path="url(#make-me-a-hanzi-clip-3)" d="M 356.5 514.5 L 375.5 478.5 L 370.5 464.5 L 315.5 355.5 L 267.5 291.5 " fill="none" id="make-me-a-hanzi-animation-3" stroke-dasharray="386 772" stroke-linecap="round"></path>

      <clipPath id="make-me-a-hanzi-clip-4">
      <path d="M 563.5 386.5 L 603.5 390.5 Q 623.5 392.5 643.5 396.5 L 691.5 404.5 Q 717.5 409.5 722.5 414.5 Q 726.5 418.5 724.5 423.5 Q 724.5 434.5 695.5 442.5 Q 682.5 448.5 670.5 448.5 L 563.5 430.5 L 503.5 419.5 L 372.5 404.5 C 342.5 401.5 333.5 399.5 359.5 384.5 L 375.5 375.5 Q 385.5 368.5 410.5 370.5 L 502.5 377.5 L 563.5 386.5 Z" fill="lightgray"></path>
      </clipPath>
      <path clip-path="url(#make-me-a-hanzi-clip-4)" d="M 366.5 387.5 L 493.5 396.5 L 673.5 425.5 L 712.5 421.5 " fill="none" id="make-me-a-hanzi-animation-4" stroke-dasharray="477 954" stroke-linecap="round"></path>

      <clipPath id="make-me-a-hanzi-clip-5">
      <path d="M 369.5 189.5 Q 373.5 190.5 379.5 190.5 L 498.5 202.5 L 557.5 204.5 L 609.5 209.5 L 745.5 212.5 Q 808.5 215.5 825.5 214.5 Q 876.5 210.5 880.5 222.5 Q 881.5 225.5 872.0 237.5 Q 862.5 249.5 854.5 254.5 Q 846.5 259.5 826.0 266.0 Q 805.5 272.5 793.0 272.5 Q 780.5 272.5 754.0 266.0 Q 727.5 259.5 679.5 255.5 L 558.5 244.5 L 501.5 241.5 L 302.5 218.5 L 158.5 208.5 Q 147.5 207.5 145.5 202.5 Q 142.5 191.5 170.5 176.0 Q 198.5 160.5 216.0 160.5 Q 233.5 160.5 251.5 165.5 Q 269.5 170.5 287.5 173.5 L 369.5 189.5 Z" fill="lightgray"></path>
      </clipPath>
      <path clip-path="url(#make-me-a-hanzi-clip-5)" d="M 154.5 200.5 L 170.5 192.5 L 220.5 186.5 L 495.5 222.5 L 795.5 243.5 L 874.5 223.5 " fill="none" id="make-me-a-hanzi-animation-5" stroke-dasharray="856 1712" stroke-linecap="round"></path>

      <clipPath id="make-me-a-hanzi-clip-6">
      <path d="M 498.5 202.5 L 498.5 -28.5 L 500.5 -65.5 Q 502.5 -115.5 515.5 -115.5 Q 530.5 -115.5 541.0 -53.0 Q 551.5 9.5 552.5 54.5 L 557.5 204.5 L 558.5 244.5 L 563.5 386.5 L 563.5 430.5 L 567.5 478.5 Q 568.5 510.5 577.5 524.5 L 584.5 539.5 Q 584.5 567.5 531.5 574.5 L 522.5 576.5 Q 495.5 585.5 489.5 576.5 Q 487.5 568.5 487.5 566.5 Q 487.5 564.5 493.0 550.5 Q 498.5 536.5 500.5 518.5 L 502.5 488.5 L 503.5 419.5 L 502.5 377.5 L 501.5 241.5 L 498.5 202.5 Z" fill="lightgray"></path>
      </clipPath>
      <path clip-path="url(#make-me-a-hanzi-clip-6)" d="M 498.5 569.5 L 538.5 533.5 L 526.5 62.5 L 515.5 -108.5 " fill="none" id="make-me-a-hanzi-animation-6" stroke-dasharray="824 1648" stroke-linecap="round"></path>

      <clipPath id="make-me-a-hanzi-clip-7">
      <path d="M 1586.5 660.5 L 1593.5 675.5 Q 1598.5 684.5 1600.5 700.5 Q 1601.5 715.5 1595.5 726.5 Q 1591.5 738.5 1573.5 753.5 Q 1555.5 768.5 1551.5 770.5 L 1520.5 783.5 Q 1502.5 791.5 1497.5 786.5 Q 1487.5 781.5 1509.5 732.5 L 1535.5 676.5 Q 1538.5 668.5 1553.5 654.5 C 1574.5 634.5 1574.5 634.5 1586.5 660.5 Z" fill="lightgray"></path>
      </clipPath>
      <path clip-path="url(#make-me-a-hanzi-clip-7)" d="M 1503.5 779.5 L 1554.5 722.5 L 1563.5 706.5 L 1564.5 687.5 L 1579.5 668.5 " fill="none" id="make-me-a-hanzi-animation-7" stroke-dasharray="266 532" stroke-linecap="round"></path>

      <clipPath id="make-me-a-hanzi-clip-8">
      <path d="M 1287.5 637.5 L 1271.5 670.5 Q 1263.5 676.5 1260.5 675.5 Q 1256.5 673.5 1253.5 661.5 L 1230.5 595.5 Q 1219.5 573.5 1205.5 548.5 L 1197.5 535.5 Q 1183.5 502.5 1197.5 483.5 Q 1201.5 474.5 1221.5 472.5 Q 1233.5 467.5 1247.5 488.5 Q 1260.5 509.5 1267.5 527.5 L 1279.5 562.5 L 1288.5 599.5 C 1294.5 623.5 1294.5 623.5 1287.5 637.5 Z" fill="lightgray"></path>
      </clipPath>
      <path clip-path="url(#make-me-a-hanzi-clip-8)" d="M 1262.5 665.5 L 1266.5 630.5 L 1261.5 599.5 L 1222.5 509.5 L 1225.5 495.5 " fill="none" id="make-me-a-hanzi-animation-8" stroke-dasharray="307 614" stroke-linecap="round"></path>

      <clipPath id="make-me-a-hanzi-clip-9">
      <path d="M 1776.5 688.5 L 1752.5 684.5 Q 1744.5 682.5 1725.5 680.5 L 1586.5 660.5 L 1553.5 654.5 L 1495.5 650.5 Q 1492.5 649.5 1422.5 643.5 Q 1363.5 636.5 1343.5 637.5 Q 1323.5 637.5 1287.5 637.5 C 1257.5 637.5 1258.5 602.5 1288.5 599.5 L 1308.5 597.5 Q 1330.5 595.5 1335.5 595.5 Q 1340.5 595.5 1380.5 603.5 L 1492.5 619.5 Q 1586.5 632.5 1624.5 637.5 L 1740.5 648.5 Q 1772.5 653.5 1777.5 648.5 Q 1782.5 643.5 1784.5 638.5 Q 1786.5 632.5 1784.5 627.5 Q 1782.5 622.5 1755.5 570.5 L 1741.5 540.5 Q 1740.5 536.5 1741.5 532.5 Q 1744.5 528.5 1751.5 534.5 L 1780.5 553.5 Q 1796.5 563.5 1812.5 568.5 Q 1828.5 572.5 1833.5 574.5 Q 1837.5 575.5 1847.5 578.5 Q 1857.5 580.5 1874.5 583.5 Q 1891.5 585.5 1897.5 590.5 Q 1902.5 594.5 1903.5 602.5 Q 1904.5 610.5 1883.5 635.5 Q 1845.5 676.5 1832.5 683.5 Q 1812.5 698.5 1789.5 690.5 L 1776.5 688.5 Z" fill="lightgray"></path>
      </clipPath>
      <path clip-path="url(#make-me-a-hanzi-clip-9)" d="M 1295.5 631.5 L 1307.5 617.5 L 1365.5 617.5 L 1735.5 665.5 L 1773.5 669.5 L 1802.5 664.5 L 1819.5 648.5 L 1831.5 622.5 L 1776.5 573.5 L 1745.5 536.5 " fill="none" id="make-me-a-hanzi-animation-9" stroke-dasharray="819 1638" stroke-linecap="round"></path>

      <clipPath id="make-me-a-hanzi-clip-10">
      <path d="M 1396.5 404.5 L 1432.5 467.5 Q 1441.5 478.5 1442.0 485.5 Q 1442.5 492.5 1432.5 501.5 Q 1431.5 501.5 1417.0 511.0 Q 1402.5 520.5 1385.5 526.5 Q 1374.5 527.5 1371.5 524.5 Q 1365.5 522.5 1365.5 496.5 Q 1365.5 470.5 1352.5 434.5 Q 1339.5 398.5 1329.5 379.5 Q 1313.5 342.5 1302.5 323.5 L 1287.5 299.5 Q 1281.5 289.5 1286.0 285.0 Q 1290.5 280.5 1299.5 290.5 L 1319.5 308.5 Q 1342.5 331.5 1350.5 341.0 Q 1358.5 350.5 1383.5 384.5 L 1396.5 404.5 Z" fill="lightgray"></path>
      </clipPath>
      <path clip-path="url(#make-me-a-hanzi-clip-10)" d="M 1380.5 514.5 L 1399.5 478.5 L 1394.5 464.5 L 1339.5 355.5 L 1291.5 291.5 " fill="none" id="make-me-a-hanzi-animation-10" stroke-dasharray="386 772" stroke-linecap="round"></path>

      <clipPath id="make-me-a-hanzi-clip-11">
      <path d="M 1587.5 386.5 L 1627.5 390.5 Q 1647.5 392.5 1667.5 396.5 L 1715.5 404.5 Q 1741.5 409.5 1746.5 414.5 Q 1750.5 418.5 1748.5 423.5 Q 1748.5 434.5 1719.5 442.5 Q 1706.5 448.5 1694.5 448.5 L 1587.5 430.5 L 1527.5 419.5 L 1396.5 404.5 C 1366.5 401.5 1357.5 399.5 1383.5 384.5 L 1399.5 375.5 Q 1409.5 368.5 1434.5 370.5 L 1526.5 377.5 L 1587.5 386.5 Z" fill="lightgray"></path>
      </clipPath>
      <path clip-path="url(#make-me-a-hanzi-clip-11)" d="M 1390.5 387.5 L 1517.5 396.5 L 1697.5 425.5 L 1736.5 421.5 " fill="none" id="make-me-a-hanzi-animation-11" stroke-dasharray="477 954" stroke-linecap="round"></path>

      <clipPath id="make-me-a-hanzi-clip-12">
      <path d="M 1393.5 189.5 Q 1397.5 190.5 1403.5 190.5 L 1522.5 202.5 L 1581.5 204.5 L 1633.5 209.5 L 1769.5 212.5 Q 1832.5 215.5 1849.5 214.5 Q 1900.5 210.5 1904.5 222.5 Q 1905.5 225.5 1896.0 237.5 Q 1886.5 249.5 1878.5 254.5 Q 1870.5 259.5 1850.0 266.0 Q 1829.5 272.5 1817.0 272.5 Q 1804.5 272.5 1778.0 266.0 Q 1751.5 259.5 1703.5 255.5 L 1582.5 244.5 L 1525.5 241.5 L 1326.5 218.5 L 1182.5 208.5 Q 1171.5 207.5 1169.5 202.5 Q 1166.5 191.5 1194.5 176.0 Q 1222.5 160.5 1240.0 160.5 Q 1257.5 160.5 1275.5 165.5 Q 1293.5 170.5 1311.5 173.5 L 1393.5 189.5 Z" fill="lightgray"></path>
      </clipPath>
      <path clip-path="url(#make-me-a-hanzi-clip-12)" d="M 1178.5 200.5 L 1194.5 192.5 L 1244.5 186.5 L 1519.5 222.5 L 1819.5 243.5 L 1898.5 223.5 " fill="none" id="make-me-a-hanzi-animation-12" stroke-dasharray="856 1712" stroke-linecap="round"></path>

      <clipPath id="make-me-a-hanzi-clip-13">
      <path d="M 1522.5 202.5 L 1522.5 -28.5 L 1524.5 -65.5 Q 1526.5 -115.5 1539.5 -115.5 Q 1554.5 -115.5 1565.0 -53.0 Q 1575.5 9.5 1576.5 54.5 L 1581.5 204.5 L 1582.5 244.5 L 1587.5 386.5 L 1587.5 430.5 L 1591.5 478.5 Q 1592.5 510.5 1601.5 524.5 L 1608.5 539.5 Q 1608.5 567.5 1555.5 574.5 L 1546.5 576.5 Q 1519.5 585.5 1513.5 576.5 Q 1511.5 568.5 1511.5 566.5 Q 1511.5 564.5 1517.0 550.5 Q 1522.5 536.5 1524.5 518.5 L 1526.5 488.5 L 1527.5 419.5 L 1526.5 377.5 L 1525.5 241.5 L 1522.5 202.5 Z" fill="lightgray"></path>
      </clipPath>
      <path clip-path="url(#make-me-a-hanzi-clip-13)" d="M 1522.5 569.5 L 1562.5 533.5 L 1550.5 62.5 L 1539.5 -108.5 " fill="none" id="make-me-a-hanzi-animation-13" stroke-dasharray="824 1648" stroke-linecap="round"></path>

</g>
</svg>
