<svg version="1.1" viewBox="0 0 2048 1024" xmlns="http://www.w3.org/2000/svg">
  <g stroke="lightgray" stroke-dasharray="1,1" stroke-width="1" transform="scale(4, 4)">
    <line x1="0" y1="0" x2="256" y2="256"></line>
    <line x1="256" y1="0" x2="0" y2="256"></line>
    <line x1="128" y1="0" x2="128" y2="256"></line>
    <line x1="0" y1="128" x2="256" y2="128"></line>
    <line x1="256" y1="0" x2="512" y2="256"></line>
    <line x1="512" y1="0" x2="256" y2="256"></line>
    <line x1="384" y1="0" x2="384" y2="256"></line>
    <line x1="256" y1="128" x2="512" y2="128"></line>
  </g>
<g transform="scale(1, -1) translate(0, -850)">
   <style type="text/css">
    @keyframes keyframes0 {
      from {
       stroke: black;
       stroke-dashoffset: 1088;
       stroke-width: 128;
       }
       78% {
       animation-timing-function: step-end;
       stroke: black;
       stroke-dashoffset: 0;
       stroke-width: 128;
       }
       to {
       stroke: black;
       stroke-width: 1024;
       }
       }
       #make-me-a-hanzi-animation-0 {
         animation: keyframes0 1.135417s both;
         animation-delay: 0.000000s;
         animation-timing-function: linear;
       }
    @keyframes keyframes1 {
      from {
       stroke: black;
       stroke-dashoffset: 917;
       stroke-width: 128;
       }
       75% {
       animation-timing-function: step-end;
       stroke: black;
       stroke-dashoffset: 0;
       stroke-width: 128;
       }
       to {
       stroke: black;
       stroke-width: 1024;
       }
       }
       #make-me-a-hanzi-animation-1 {
         animation: keyframes1 0.996257s both;
         animation-delay: 1.135417s;
         animation-timing-function: linear;
       }
    @keyframes keyframes2 {
      from {
       stroke: black;
       stroke-dashoffset: 1018;
       stroke-width: 128;
       }
       77% {
       animation-timing-function: step-end;
       stroke: black;
       stroke-dashoffset: 0;
       stroke-width: 128;
       }
       to {
       stroke: black;
       stroke-width: 1024;
       }
       }
       #make-me-a-hanzi-animation-2 {
         animation: keyframes2 1.078451s both;
         animation-delay: 2.131674s;
         animation-timing-function: linear;
       }
    @keyframes keyframes3 {
      from {
       stroke: black;
       stroke-dashoffset: 502;
       stroke-width: 128;
       }
       62% {
       animation-timing-function: step-end;
       stroke: black;
       stroke-dashoffset: 0;
       stroke-width: 128;
       }
       to {
       stroke: black;
       stroke-width: 1024;
       }
       }
       #make-me-a-hanzi-animation-3 {
         animation: keyframes3 0.658529s both;
         animation-delay: 3.210125s;
         animation-timing-function: linear;
       }
    @keyframes keyframes4 {
      from {
       stroke: black;
       stroke-dashoffset: 488;
       stroke-width: 128;
       }
       61% {
       animation-timing-function: step-end;
       stroke: black;
       stroke-dashoffset: 0;
       stroke-width: 128;
       }
       to {
       stroke: black;
       stroke-width: 1024;
       }
       }
       #make-me-a-hanzi-animation-4 {
         animation: keyframes4 0.647135s both;
         animation-delay: 3.868654s;
         animation-timing-function: linear;
       }
    @keyframes keyframes5 {
      from {
       stroke: black;
       stroke-dashoffset: 474;
       stroke-width: 128;
       }
       61% {
       animation-timing-function: step-end;
       stroke: black;
       stroke-dashoffset: 0;
       stroke-width: 128;
       }
       to {
       stroke: black;
       stroke-width: 1024;
       }
       }
       #make-me-a-hanzi-animation-5 {
         animation: keyframes5 0.635742s both;
         animation-delay: 4.515789s;
         animation-timing-function: linear;
       }
    @keyframes keyframes6 {
      from {
       stroke: black;
       stroke-dashoffset: 1118;
       stroke-width: 128;
       }
       78% {
       animation-timing-function: step-end;
       stroke: black;
       stroke-dashoffset: 0;
       stroke-width: 128;
       }
       to {
       stroke: black;
       stroke-width: 1024;
       }
       }
       #make-me-a-hanzi-animation-6 {
         animation: keyframes6 1.159831s both;
         animation-delay: 5.151531s;
         animation-timing-function: linear;
       }
    @keyframes keyframes7 {
      from {
       stroke: black;
       stroke-dashoffset: 422;
       stroke-width: 128;
       }
       58% {
       animation-timing-function: step-end;
       stroke: black;
       stroke-dashoffset: 0;
       stroke-width: 128;
       }
       to {
       stroke: black;
       stroke-width: 1024;
       }
       }
       #make-me-a-hanzi-animation-7 {
         animation: keyframes7 0.593424s both;
         animation-delay: 6.311362s;
         animation-timing-function: linear;
       }
    @keyframes keyframes8 {
      from {
       stroke: black;
       stroke-dashoffset: 501;
       stroke-width: 128;
       }
       62% {
       animation-timing-function: step-end;
       stroke: black;
       stroke-dashoffset: 0;
       stroke-width: 128;
       }
       to {
       stroke: black;
       stroke-width: 1024;
       }
       }
       #make-me-a-hanzi-animation-8 {
         animation: keyframes8 0.657715s both;
         animation-delay: 6.904786s;
         animation-timing-function: linear;
       }
</style>
<path d="M 332.0 438.5 L 288.0 433.5 L 102.0 422.5 Q 92.0 420.5 88.0 418.5 Q 84.0 415.5 84.0 408.5 Q 84.0 400.5 96.0 393.5 L 121.0 380.5 Q 131.0 373.5 150.0 370.5 Q 164.0 365.5 179.0 367.5 L 332.0 399.5 L 389.0 404.5 L 636.0 421.5 L 698.0 422.5 L 904.0 423.5 Q 937.0 421.5 938.0 439.5 Q 940.0 444.5 933.0 452.5 Q 892.0 489.5 847.0 493.5 Q 837.0 494.5 792.0 486.5 L 698.0 472.5 L 636.0 467.5 L 389.0 445.5 L 332.0 438.5 Z" fill="lightgray"></path> 
<path d="M 315.0 631.5 L 323.0 605.5 Q 333.0 586.5 333.0 503.5 L 332.0 438.5 L 332.0 399.5 L 328.0 157.5 Q 328.0 103.5 322.0 81.5 Q 316.0 58.5 316.0 46.5 Q 314.0 32.5 332.0 -3.5 Q 342.0 -26.5 361.0 -26.5 Q 370.0 -26.5 378.0 -0.5 L 388.0 29.5 L 387.0 74.5 L 385.0 227.5 L 388.0 259.5 L 389.0 404.5 L 389.0 445.5 L 393.0 508.5 Q 393.0 527.5 395.0 535.5 L 412.0 595.5 Q 412.0 605.5 391.0 621.5 L 372.0 631.5 L 355.0 637.5 Q 315.0 652.5 315.0 631.5 Z" fill="lightgray"></path> 
<path d="M 591.0 49.5 L 604.0 24.5 Q 614.0 4.5 619.0 -12.5 Q 625.0 -29.5 632.0 -38.5 Q 637.0 -44.5 640.0 -45.5 Q 643.0 -46.5 657.0 -39.5 Q 667.0 -31.5 679.0 -7.5 Q 691.0 26.5 696.0 83.5 L 696.0 363.5 L 697.0 363.5 L 698.0 422.5 L 698.0 472.5 L 703.0 554.5 Q 710.0 626.5 715.0 638.5 Q 721.0 650.5 727.0 667.5 Q 727.0 673.5 721.0 682.5 Q 718.0 693.5 689.0 704.5 Q 660.0 715.5 633.0 719.5 Q 618.0 722.5 614.0 705.5 Q 612.0 699.5 623.0 667.5 Q 634.0 635.5 636.0 551.5 L 636.0 467.5 L 636.0 421.5 L 634.0 280.5 L 634.0 247.5 L 626.0 79.5 C 625.0 49.5 577.0 76.5 591.0 49.5 Z" fill="lightgray"></path> 
<path d="M 488.0 233.5 L 634.0 247.5 C 664.0 250.5 663.0 271.5 634.0 280.5 L 614.0 286.5 Q 607.0 289.5 586.0 289.5 Q 567.0 287.5 522.0 280.5 Q 457.0 267.5 423.0 264.5 Q 390.0 260.5 388.0 259.5 C 358.0 254.5 355.0 227.5 385.0 227.5 L 402.0 227.5 L 488.0 233.5 Z" fill="lightgray"></path> 
<path d="M 388.0 29.5 L 591.0 49.5 C 621.0 52.5 653.0 67.5 626.0 79.5 L 606.0 88.5 Q 595.0 93.5 578.0 94.5 Q 562.0 95.5 515.0 89.5 L 444.0 79.5 L 387.0 74.5 C 357.0 71.5 358.0 26.5 388.0 29.5 Z" fill="lightgray"></path> 
<path d="M 1180.5 422.5 Q 1178.5 409.5 1174.5 392.5 L 1164.5 364.5 L 1151.5 338.5 Q 1137.5 308.5 1125.5 296.5 Q 1122.5 286.5 1125.5 243.5 Q 1127.5 233.5 1137.5 219.5 Q 1148.5 204.5 1155.5 204.5 Q 1163.5 203.5 1177.5 212.5 Q 1184.5 218.5 1196.5 240.5 Q 1209.5 262.5 1214.5 278.5 Q 1219.5 294.5 1222.5 333.5 Q 1225.5 372.5 1216.5 392.5 Q 1217.5 398.5 1205.5 423.5 Q 1198.5 442.5 1191.5 442.5 Q 1180.5 443.5 1180.5 422.5 Z" fill="lightgray"></path> 
<path d="M 1788.5 278.5 L 1737.5 336.5 Q 1729.5 348.5 1722.5 344.5 Q 1715.5 339.5 1720.5 325.5 L 1745.5 248.5 Q 1758.5 210.5 1745.5 188.5 Q 1741.5 180.5 1720.5 173.5 Q 1699.5 165.5 1669.5 164.5 L 1610.5 164.5 Q 1575.5 165.5 1553.5 168.5 Q 1531.5 170.5 1503.5 183.5 Q 1453.5 205.5 1412.5 252.5 Q 1377.5 296.5 1364.5 350.5 L 1353.5 396.5 Q 1350.5 413.5 1347.5 419.5 Q 1340.5 428.5 1321.5 440.5 Q 1309.5 445.5 1302.5 436.5 Q 1300.5 428.5 1304.5 419.5 L 1315.5 392.5 L 1327.5 340.5 Q 1327.5 334.5 1340.5 297.5 Q 1356.5 258.5 1365.5 239.5 Q 1374.5 220.5 1395.5 195.5 Q 1437.5 143.5 1494.5 119.5 Q 1523.5 106.5 1578.5 96.5 Q 1633.5 85.5 1678.5 86.5 Q 1723.5 86.5 1783.5 98.5 Q 1843.5 110.5 1864.5 126.5 Q 1893.5 142.5 1897.5 152.5 Q 1902.5 162.5 1903.5 169.5 Q 1903.5 189.5 1882.5 206.5 L 1819.5 248.5 Q 1807.5 257.5 1788.5 278.5 Z" fill="lightgray"></path> 
<path d="M 1433.5 574.5 L 1501.5 482.5 Q 1520.5 461.5 1528.5 453.5 Q 1537.5 444.5 1544.5 446.5 Q 1565.5 450.5 1572.5 482.5 Q 1583.5 539.5 1536.5 558.5 Q 1506.5 572.5 1491.5 576.5 L 1468.5 584.5 L 1441.5 589.5 Q 1436.5 590.5 1432.5 586.5 Q 1428.5 582.5 1433.5 574.5 Z" fill="lightgray"></path> 
<path d="M 1793.5 503.5 L 1851.5 428.5 Q 1872.5 400.5 1891.5 385.5 Q 1908.5 375.5 1912.5 375.5 Q 1916.5 374.5 1930.5 379.5 Q 1945.5 392.5 1949.5 424.5 Q 1949.5 444.5 1942.5 459.5 Q 1936.5 474.5 1912.5 494.5 Q 1889.5 514.5 1850.5 532.5 L 1780.5 563.5 Q 1751.5 575.5 1743.5 567.5 Q 1741.5 564.5 1747.5 554.5 L 1793.5 503.5 Z" fill="lightgray"></path> 
      <clipPath id="make-me-a-hanzi-clip-0">
      <path d="M 332.0 438.5 L 288.0 433.5 L 102.0 422.5 Q 92.0 420.5 88.0 418.5 Q 84.0 415.5 84.0 408.5 Q 84.0 400.5 96.0 393.5 L 121.0 380.5 Q 131.0 373.5 150.0 370.5 Q 164.0 365.5 179.0 367.5 L 332.0 399.5 L 389.0 404.5 L 636.0 421.5 L 698.0 422.5 L 904.0 423.5 Q 937.0 421.5 938.0 439.5 Q 940.0 444.5 933.0 452.5 Q 892.0 489.5 847.0 493.5 Q 837.0 494.5 792.0 486.5 L 698.0 472.5 L 636.0 467.5 L 389.0 445.5 L 332.0 438.5 Z" fill="lightgray"></path>
      </clipPath>
      <path clip-path="url(#make-me-a-hanzi-clip-0)" d="M 97.0 409.5 L 171.0 396.5 L 384.0 425.5 L 838.0 458.5 L 872.0 455.5 L 922.0 440.5 " fill="none" id="make-me-a-hanzi-animation-0" stroke-dasharray="960 1920" stroke-linecap="round"></path>

      <clipPath id="make-me-a-hanzi-clip-1">
      <path d="M 315.0 631.5 L 323.0 605.5 Q 333.0 586.5 333.0 503.5 L 332.0 438.5 L 332.0 399.5 L 328.0 157.5 Q 328.0 103.5 322.0 81.5 Q 316.0 58.5 316.0 46.5 Q 314.0 32.5 332.0 -3.5 Q 342.0 -26.5 361.0 -26.5 Q 370.0 -26.5 378.0 -0.5 L 388.0 29.5 L 387.0 74.5 L 385.0 227.5 L 388.0 259.5 L 389.0 404.5 L 389.0 445.5 L 393.0 508.5 Q 393.0 527.5 395.0 535.5 L 412.0 595.5 Q 412.0 605.5 391.0 621.5 L 372.0 631.5 L 355.0 637.5 Q 315.0 652.5 315.0 631.5 Z" fill="lightgray"></path>
      </clipPath>
      <path clip-path="url(#make-me-a-hanzi-clip-1)" d="M 328.0 631.5 L 369.0 583.5 L 362.0 514.5 L 352.0 55.5 L 358.0 -13.5 " fill="none" id="make-me-a-hanzi-animation-1" stroke-dasharray="789 1578" stroke-linecap="round"></path>

      <clipPath id="make-me-a-hanzi-clip-2">
      <path d="M 591.0 49.5 L 604.0 24.5 Q 614.0 4.5 619.0 -12.5 Q 625.0 -29.5 632.0 -38.5 Q 637.0 -44.5 640.0 -45.5 Q 643.0 -46.5 657.0 -39.5 Q 667.0 -31.5 679.0 -7.5 Q 691.0 26.5 696.0 83.5 L 696.0 363.5 L 697.0 363.5 L 698.0 422.5 L 698.0 472.5 L 703.0 554.5 Q 710.0 626.5 715.0 638.5 Q 721.0 650.5 727.0 667.5 Q 727.0 673.5 721.0 682.5 Q 718.0 693.5 689.0 704.5 Q 660.0 715.5 633.0 719.5 Q 618.0 722.5 614.0 705.5 Q 612.0 699.5 623.0 667.5 Q 634.0 635.5 636.0 551.5 L 636.0 467.5 L 636.0 421.5 L 634.0 280.5 L 634.0 247.5 L 626.0 79.5 C 625.0 49.5 577.0 76.5 591.0 49.5 Z" fill="lightgray"></path>
      </clipPath>
      <path clip-path="url(#make-me-a-hanzi-clip-2)" d="M 629.0 704.5 L 673.0 660.5 L 662.0 91.5 L 658.0 61.5 L 646.0 38.5 L 648.0 0.5 L 641.0 -35.5 " fill="none" id="make-me-a-hanzi-animation-2" stroke-dasharray="890 1780" stroke-linecap="round"></path>

      <clipPath id="make-me-a-hanzi-clip-3">
      <path d="M 488.0 233.5 L 634.0 247.5 C 664.0 250.5 663.0 271.5 634.0 280.5 L 614.0 286.5 Q 607.0 289.5 586.0 289.5 Q 567.0 287.5 522.0 280.5 Q 457.0 267.5 423.0 264.5 Q 390.0 260.5 388.0 259.5 C 358.0 254.5 355.0 227.5 385.0 227.5 L 402.0 227.5 L 488.0 233.5 Z" fill="lightgray"></path>
      </clipPath>
      <path clip-path="url(#make-me-a-hanzi-clip-3)" d="M 389.0 232.5 L 416.0 247.5 L 575.0 265.5 L 610.0 265.5 L 626.0 253.5 " fill="none" id="make-me-a-hanzi-animation-3" stroke-dasharray="374 748" stroke-linecap="round"></path>

      <clipPath id="make-me-a-hanzi-clip-4">
      <path d="M 388.0 29.5 L 591.0 49.5 C 621.0 52.5 653.0 67.5 626.0 79.5 L 606.0 88.5 Q 595.0 93.5 578.0 94.5 Q 562.0 95.5 515.0 89.5 L 444.0 79.5 L 387.0 74.5 C 357.0 71.5 358.0 26.5 388.0 29.5 Z" fill="lightgray"></path>
      </clipPath>
      <path clip-path="url(#make-me-a-hanzi-clip-4)" d="M 395.0 37.5 L 408.0 52.5 L 425.0 55.5 L 619.0 76.5 " fill="none" id="make-me-a-hanzi-animation-4" stroke-dasharray="360 720" stroke-linecap="round"></path>

      <clipPath id="make-me-a-hanzi-clip-5">
      <path d="M 1180.5 422.5 Q 1178.5 409.5 1174.5 392.5 L 1164.5 364.5 L 1151.5 338.5 Q 1137.5 308.5 1125.5 296.5 Q 1122.5 286.5 1125.5 243.5 Q 1127.5 233.5 1137.5 219.5 Q 1148.5 204.5 1155.5 204.5 Q 1163.5 203.5 1177.5 212.5 Q 1184.5 218.5 1196.5 240.5 Q 1209.5 262.5 1214.5 278.5 Q 1219.5 294.5 1222.5 333.5 Q 1225.5 372.5 1216.5 392.5 Q 1217.5 398.5 1205.5 423.5 Q 1198.5 442.5 1191.5 442.5 Q 1180.5 443.5 1180.5 422.5 Z" fill="lightgray"></path>
      </clipPath>
      <path clip-path="url(#make-me-a-hanzi-clip-5)" d="M 1190.5 433.5 L 1195.5 370.5 L 1161.5 255.5 L 1157.5 220.5 " fill="none" id="make-me-a-hanzi-animation-5" stroke-dasharray="346 692" stroke-linecap="round"></path>

      <clipPath id="make-me-a-hanzi-clip-6">
      <path d="M 1788.5 278.5 L 1737.5 336.5 Q 1729.5 348.5 1722.5 344.5 Q 1715.5 339.5 1720.5 325.5 L 1745.5 248.5 Q 1758.5 210.5 1745.5 188.5 Q 1741.5 180.5 1720.5 173.5 Q 1699.5 165.5 1669.5 164.5 L 1610.5 164.5 Q 1575.5 165.5 1553.5 168.5 Q 1531.5 170.5 1503.5 183.5 Q 1453.5 205.5 1412.5 252.5 Q 1377.5 296.5 1364.5 350.5 L 1353.5 396.5 Q 1350.5 413.5 1347.5 419.5 Q 1340.5 428.5 1321.5 440.5 Q 1309.5 445.5 1302.5 436.5 Q 1300.5 428.5 1304.5 419.5 L 1315.5 392.5 L 1327.5 340.5 Q 1327.5 334.5 1340.5 297.5 Q 1356.5 258.5 1365.5 239.5 Q 1374.5 220.5 1395.5 195.5 Q 1437.5 143.5 1494.5 119.5 Q 1523.5 106.5 1578.5 96.5 Q 1633.5 85.5 1678.5 86.5 Q 1723.5 86.5 1783.5 98.5 Q 1843.5 110.5 1864.5 126.5 Q 1893.5 142.5 1897.5 152.5 Q 1902.5 162.5 1903.5 169.5 Q 1903.5 189.5 1882.5 206.5 L 1819.5 248.5 Q 1807.5 257.5 1788.5 278.5 Z" fill="lightgray"></path>
      </clipPath>
      <path clip-path="url(#make-me-a-hanzi-clip-6)" d="M 1311.5 431.5 L 1333.5 399.5 L 1353.5 313.5 L 1393.5 236.5 L 1464.5 169.5 L 1500.5 150.5 L 1545.5 136.5 L 1621.5 126.5 L 1712.5 128.5 L 1766.5 142.5 L 1811.5 174.5 L 1726.5 337.5 " fill="none" id="make-me-a-hanzi-animation-6" stroke-dasharray="990 1980" stroke-linecap="round"></path>

      <clipPath id="make-me-a-hanzi-clip-7">
      <path d="M 1433.5 574.5 L 1501.5 482.5 Q 1520.5 461.5 1528.5 453.5 Q 1537.5 444.5 1544.5 446.5 Q 1565.5 450.5 1572.5 482.5 Q 1583.5 539.5 1536.5 558.5 Q 1506.5 572.5 1491.5 576.5 L 1468.5 584.5 L 1441.5 589.5 Q 1436.5 590.5 1432.5 586.5 Q 1428.5 582.5 1433.5 574.5 Z" fill="lightgray"></path>
      </clipPath>
      <path clip-path="url(#make-me-a-hanzi-clip-7)" d="M 1439.5 581.5 L 1528.5 515.5 L 1542.5 482.5 L 1542.5 463.5 " fill="none" id="make-me-a-hanzi-animation-7" stroke-dasharray="294 588" stroke-linecap="round"></path>

      <clipPath id="make-me-a-hanzi-clip-8">
      <path d="M 1793.5 503.5 L 1851.5 428.5 Q 1872.5 400.5 1891.5 385.5 Q 1908.5 375.5 1912.5 375.5 Q 1916.5 374.5 1930.5 379.5 Q 1945.5 392.5 1949.5 424.5 Q 1949.5 444.5 1942.5 459.5 Q 1936.5 474.5 1912.5 494.5 Q 1889.5 514.5 1850.5 532.5 L 1780.5 563.5 Q 1751.5 575.5 1743.5 567.5 Q 1741.5 564.5 1747.5 554.5 L 1793.5 503.5 Z" fill="lightgray"></path>
      </clipPath>
      <path clip-path="url(#make-me-a-hanzi-clip-8)" d="M 1750.5 562.5 L 1830.5 507.5 L 1889.5 454.5 L 1904.5 434.5 L 1914.5 392.5 " fill="none" id="make-me-a-hanzi-animation-8" stroke-dasharray="373 746" stroke-linecap="round"></path>

</g>
</svg>
