<svg version="1.1" viewBox="0 0 2048 1024" xmlns="http://www.w3.org/2000/svg">
  <g stroke="lightgray" stroke-dasharray="1,1" stroke-width="1" transform="scale(4, 4)">
    <line x1="0" y1="0" x2="256" y2="256"></line>
    <line x1="256" y1="0" x2="0" y2="256"></line>
    <line x1="128" y1="0" x2="128" y2="256"></line>
    <line x1="0" y1="128" x2="256" y2="128"></line>
    <line x1="256" y1="0" x2="512" y2="256"></line>
    <line x1="512" y1="0" x2="256" y2="256"></line>
    <line x1="384" y1="0" x2="384" y2="256"></line>
    <line x1="256" y1="128" x2="512" y2="128"></line>
  </g>
<g transform="scale(1, -1) translate(0, -850)">
   <style type="text/css">
    @keyframes keyframes0 {
      from {
       stroke: black;
       stroke-dashoffset: 746;
       stroke-width: 128;
       }
       71% {
       animation-timing-function: step-end;
       stroke: black;
       stroke-dashoffset: 0;
       stroke-width: 128;
       }
       to {
       stroke: black;
       stroke-width: 1024;
       }
       }
       #make-me-a-hanzi-animation-0 {
         animation: keyframes0 0.857096s both;
         animation-delay: 0.000000s;
         animation-timing-function: linear;
       }
    @keyframes keyframes1 {
      from {
       stroke: black;
       stroke-dashoffset: 1343;
       stroke-width: 128;
       }
       81% {
       animation-timing-function: step-end;
       stroke: black;
       stroke-dashoffset: 0;
       stroke-width: 128;
       }
       to {
       stroke: black;
       stroke-width: 1024;
       }
       }
       #make-me-a-hanzi-animation-1 {
         animation: keyframes1 1.342936s both;
         animation-delay: 0.857096s;
         animation-timing-function: linear;
       }
    @keyframes keyframes2 {
      from {
       stroke: black;
       stroke-dashoffset: 619;
       stroke-width: 128;
       }
       67% {
       animation-timing-function: step-end;
       stroke: black;
       stroke-dashoffset: 0;
       stroke-width: 128;
       }
       to {
       stroke: black;
       stroke-width: 1024;
       }
       }
       #make-me-a-hanzi-animation-2 {
         animation: keyframes2 0.753743s both;
         animation-delay: 2.200032s;
         animation-timing-function: linear;
       }
    @keyframes keyframes3 {
      from {
       stroke: black;
       stroke-dashoffset: 960;
       stroke-width: 128;
       }
       76% {
       animation-timing-function: step-end;
       stroke: black;
       stroke-dashoffset: 0;
       stroke-width: 128;
       }
       to {
       stroke: black;
       stroke-width: 1024;
       }
       }
       #make-me-a-hanzi-animation-3 {
         animation: keyframes3 1.031250s both;
         animation-delay: 2.953775s;
         animation-timing-function: linear;
       }
    @keyframes keyframes4 {
      from {
       stroke: black;
       stroke-dashoffset: 645;
       stroke-width: 128;
       }
       68% {
       animation-timing-function: step-end;
       stroke: black;
       stroke-dashoffset: 0;
       stroke-width: 128;
       }
       to {
       stroke: black;
       stroke-width: 1024;
       }
       }
       #make-me-a-hanzi-animation-4 {
         animation: keyframes4 0.774902s both;
         animation-delay: 3.985025s;
         animation-timing-function: linear;
       }
    @keyframes keyframes5 {
      from {
       stroke: black;
       stroke-dashoffset: 399;
       stroke-width: 128;
       }
       56% {
       animation-timing-function: step-end;
       stroke: black;
       stroke-dashoffset: 0;
       stroke-width: 128;
       }
       to {
       stroke: black;
       stroke-width: 1024;
       }
       }
       #make-me-a-hanzi-animation-5 {
         animation: keyframes5 0.574707s both;
         animation-delay: 4.759927s;
         animation-timing-function: linear;
       }
    @keyframes keyframes6 {
      from {
       stroke: black;
       stroke-dashoffset: 929;
       stroke-width: 128;
       }
       75% {
       animation-timing-function: step-end;
       stroke: black;
       stroke-dashoffset: 0;
       stroke-width: 128;
       }
       to {
       stroke: black;
       stroke-width: 1024;
       }
       }
       #make-me-a-hanzi-animation-6 {
         animation: keyframes6 1.006022s both;
         animation-delay: 5.334634s;
         animation-timing-function: linear;
       }
    @keyframes keyframes7 {
      from {
       stroke: black;
       stroke-dashoffset: 457;
       stroke-width: 128;
       }
       60% {
       animation-timing-function: step-end;
       stroke: black;
       stroke-dashoffset: 0;
       stroke-width: 128;
       }
       to {
       stroke: black;
       stroke-width: 1024;
       }
       }
       #make-me-a-hanzi-animation-7 {
         animation: keyframes7 0.621908s both;
         animation-delay: 6.340656s;
         animation-timing-function: linear;
       }
    @keyframes keyframes8 {
      from {
       stroke: black;
       stroke-dashoffset: 776;
       stroke-width: 128;
       }
       72% {
       animation-timing-function: step-end;
       stroke: black;
       stroke-dashoffset: 0;
       stroke-width: 128;
       }
       to {
       stroke: black;
       stroke-width: 1024;
       }
       }
       #make-me-a-hanzi-animation-8 {
         animation: keyframes8 0.881510s both;
         animation-delay: 6.962564s;
         animation-timing-function: linear;
       }
    @keyframes keyframes9 {
      from {
       stroke: black;
       stroke-dashoffset: 614;
       stroke-width: 128;
       }
       67% {
       animation-timing-function: step-end;
       stroke: black;
       stroke-dashoffset: 0;
       stroke-width: 128;
       }
       to {
       stroke: black;
       stroke-width: 1024;
       }
       }
       #make-me-a-hanzi-animation-9 {
         animation: keyframes9 0.749674s both;
         animation-delay: 7.844074s;
         animation-timing-function: linear;
       }
    @keyframes keyframes10 {
      from {
       stroke: black;
       stroke-dashoffset: 577;
       stroke-width: 128;
       }
       65% {
       animation-timing-function: step-end;
       stroke: black;
       stroke-dashoffset: 0;
       stroke-width: 128;
       }
       to {
       stroke: black;
       stroke-width: 1024;
       }
       }
       #make-me-a-hanzi-animation-10 {
         animation: keyframes10 0.719564s both;
         animation-delay: 8.593748s;
         animation-timing-function: linear;
       }
    @keyframes keyframes11 {
      from {
       stroke: black;
       stroke-dashoffset: 733;
       stroke-width: 128;
       }
       70% {
       animation-timing-function: step-end;
       stroke: black;
       stroke-dashoffset: 0;
       stroke-width: 128;
       }
       to {
       stroke: black;
       stroke-width: 1024;
       }
       }
       #make-me-a-hanzi-animation-11 {
         animation: keyframes11 0.846517s both;
         animation-delay: 9.313312s;
         animation-timing-function: linear;
       }
    @keyframes keyframes12 {
      from {
       stroke: black;
       stroke-dashoffset: 669;
       stroke-width: 128;
       }
       69% {
       animation-timing-function: step-end;
       stroke: black;
       stroke-dashoffset: 0;
       stroke-width: 128;
       }
       to {
       stroke: black;
       stroke-width: 1024;
       }
       }
       #make-me-a-hanzi-animation-12 {
         animation: keyframes12 0.794434s both;
         animation-delay: 10.159829s;
         animation-timing-function: linear;
       }
    @keyframes keyframes13 {
      from {
       stroke: black;
       stroke-dashoffset: 427;
       stroke-width: 128;
       }
       58% {
       animation-timing-function: step-end;
       stroke: black;
       stroke-dashoffset: 0;
       stroke-width: 128;
       }
       to {
       stroke: black;
       stroke-width: 1024;
       }
       }
       #make-me-a-hanzi-animation-13 {
         animation: keyframes13 0.597493s both;
         animation-delay: 10.954263s;
         animation-timing-function: linear;
       }
    @keyframes keyframes14 {
      from {
       stroke: black;
       stroke-dashoffset: 783;
       stroke-width: 128;
       }
       72% {
       animation-timing-function: step-end;
       stroke: black;
       stroke-dashoffset: 0;
       stroke-width: 128;
       }
       to {
       stroke: black;
       stroke-width: 1024;
       }
       }
       #make-me-a-hanzi-animation-14 {
         animation: keyframes14 0.887207s both;
         animation-delay: 11.551756s;
         animation-timing-function: linear;
       }
</style>
<path d="M 234.5 444.0 L 165.5 447.0 Q 160.5 442.0 160.5 437.0 Q 160.5 432.0 169.5 420.0 Q 206.5 362.0 215.5 248.0 L 237.5 22.0 Q 238.5 -8.0 259.5 -32.0 Q 263.5 -38.0 266.5 -37.0 L 278.5 -33.0 Q 283.5 -30.0 288.5 -8.0 L 289.5 38.0 L 278.5 208.0 L 253.5 408.0 C 249.5 438.0 249.5 443.0 234.5 444.0 Z" fill="lightgray"></path> 
<path d="M 808.5 487.0 Q 780.5 506.0 765.5 506.0 Q 751.5 506.0 736.5 502.0 Q 721.5 497.0 692.5 494.0 L 638.5 486.0 L 521.5 472.0 L 459.5 467.0 L 234.5 444.0 C 204.5 441.0 223.5 406.0 253.5 408.0 L 282.5 410.0 L 334.5 418.0 L 459.5 432.0 L 524.5 439.0 L 675.5 448.0 Q 738.5 452.0 751.5 442.0 Q 756.5 437.0 757.5 421.0 Q 759.5 405.0 758.5 396.0 L 749.5 266.0 L 740.5 188.0 L 721.5 89.0 Q 713.5 59.0 708.5 56.0 Q 703.5 53.0 683.5 61.0 C 653.5 60.0 658.5 48.0 670.5 20.0 L 677.5 5.0 Q 680.5 1.0 690.5 -32.0 Q 700.5 -65.0 713.5 -68.0 L 730.5 -63.0 Q 740.5 -58.0 756.5 -30.0 Q 790.5 36.0 800.5 128.0 L 824.5 334.0 Q 828.5 376.0 840.5 398.0 Q 852.5 420.0 856.5 425.0 Q 863.5 440.0 849.5 454.0 Q 836.5 468.0 808.5 487.0 Z" fill="lightgray"></path> 
<path d="M 324.5 228.0 Q 357.5 198.0 437.5 206.0 L 459.5 209.0 L 516.5 216.0 L 629.5 229.0 Q 674.5 235.0 682.5 240.0 Q 694.5 250.0 688.5 259.0 Q 677.5 277.0 641.5 285.0 Q 606.5 293.0 581.5 286.0 Q 556.5 278.0 518.5 270.0 L 459.5 261.0 Q 401.5 255.0 337.5 253.0 Q 315.5 255.0 311.5 249.0 Q 307.5 243.0 324.5 228.0 Z" fill="lightgray"></path> 
<path d="M 521.5 472.0 L 524.5 568.0 Q 528.5 634.0 545.5 674.0 Q 550.5 686.0 549.5 692.0 Q 549.5 698.0 544.5 706.0 Q 540.5 716.0 513.5 729.0 Q 487.5 741.0 466.5 743.0 Q 445.5 744.0 440.5 740.0 Q 435.5 736.0 436.5 723.0 L 449.5 674.0 Q 452.5 667.0 457.5 570.0 L 459.5 467.0 L 459.5 432.0 L 459.5 261.0 L 459.5 209.0 L 459.5 50.0 C 459.5 20.0 512.5 24.0 513.5 54.0 L 516.5 216.0 L 518.5 270.0 L 524.5 439.0 L 521.5 472.0 Z" fill="lightgray"></path> 
<path d="M 288.5 -8.0 L 670.5 20.0 C 700.5 22.0 711.5 51.0 683.5 61.0 Q 664.5 68.0 656.5 68.0 L 614.5 66.0 Q 549.5 62.0 513.5 54.0 L 459.5 50.0 L 289.5 38.0 C 259.5 36.0 258.5 -10.0 288.5 -8.0 Z" fill="lightgray"></path> 
<path d="M 1579.0 658.0 L 1589.0 679.0 Q 1592.0 683.0 1592.0 692.0 Q 1592.0 698.0 1590.0 707.0 Q 1585.0 727.0 1581.0 734.0 Q 1577.0 741.0 1566.0 747.0 Q 1556.0 755.0 1547.0 759.0 L 1527.0 768.0 Q 1513.0 774.0 1510.0 775.0 L 1490.0 781.0 Q 1488.0 782.0 1487.0 782.0 Q 1484.0 782.0 1483.0 779.0 Q 1481.0 777.0 1481.0 774.0 Q 1481.0 771.0 1483.0 767.0 L 1493.0 749.0 L 1509.0 720.0 Q 1515.0 709.0 1523.0 692.0 Q 1530.0 675.0 1533.0 670.0 Q 1537.0 665.0 1547.0 655.0 C 1568.0 634.0 1568.0 634.0 1579.0 658.0 Z" fill="lightgray"></path> 
<path d="M 1547.0 655.0 L 1527.0 653.0 Q 1525.0 652.0 1503.0 649.0 L 1423.0 641.0 L 1335.0 630.0 Q 1293.0 625.0 1261.0 623.0 Q 1229.0 621.0 1221.0 621.0 L 1211.0 620.0 Q 1204.0 619.0 1202.0 615.0 Q 1201.0 614.0 1201.0 613.0 Q 1201.0 610.0 1204.0 606.0 Q 1207.0 601.0 1221.0 594.0 L 1240.0 583.0 Q 1249.0 579.0 1261.0 576.0 Q 1273.0 573.0 1279.0 573.0 Q 1285.0 573.0 1295.0 577.0 Q 1305.0 581.0 1311.0 583.0 Q 1317.0 585.0 1343.0 590.0 Q 1369.0 595.0 1383.0 597.0 Q 1397.0 599.0 1454.0 605.0 Q 1511.0 611.0 1553.0 615.0 L 1641.0 623.0 Q 1687.0 625.0 1733.0 628.0 Q 1779.0 631.0 1801.0 632.0 L 1828.0 633.0 Q 1859.0 634.0 1871.0 640.0 Q 1883.0 645.0 1883.0 651.0 Q 1883.0 657.0 1873.0 665.0 Q 1863.0 673.0 1855.0 676.0 Q 1846.0 680.0 1827.0 686.0 Q 1811.0 691.0 1801.0 691.0 L 1798.0 691.0 Q 1794.0 691.0 1777.0 686.0 Q 1761.0 681.0 1731.0 677.0 L 1675.0 669.0 Q 1671.0 668.0 1635.0 664.0 Q 1599.0 660.0 1579.0 658.0 L 1547.0 655.0 Z" fill="lightgray"></path> 
<path d="M 1358.0 501.0 L 1325.0 507.0 Q 1321.0 508.0 1318.0 508.0 Q 1314.0 508.0 1311.0 507.0 Q 1306.0 505.0 1304.0 501.0 L 1304.0 499.0 Q 1304.0 496.0 1307.0 491.0 L 1317.0 483.0 Q 1322.0 479.0 1328.0 465.0 Q 1333.0 452.0 1337.0 433.0 L 1349.0 365.0 Q 1353.0 339.0 1357.0 332.0 Q 1361.0 325.0 1367.0 319.0 Q 1373.0 313.0 1376.0 313.0 Q 1379.0 313.0 1382.0 315.0 Q 1385.0 318.0 1387.0 323.0 Q 1389.0 329.0 1393.0 338.0 L 1393.0 369.0 L 1383.0 469.0 C 1380.0 497.0 1380.0 497.0 1358.0 501.0 Z" fill="lightgray"></path> 
<path d="M 1745.0 388.0 L 1775.0 447.0 Q 1778.0 453.0 1787.0 464.0 Q 1797.0 474.0 1804.0 480.0 Q 1812.0 486.0 1813.0 488.0 Q 1816.0 492.0 1816.0 497.0 L 1816.0 500.0 Q 1815.0 507.0 1804.0 517.0 Q 1793.0 527.0 1781.0 535.0 Q 1767.0 543.0 1754.0 549.0 Q 1742.0 554.0 1731.0 554.0 L 1728.0 554.0 Q 1723.0 553.0 1704.0 548.0 Q 1686.0 543.0 1659.0 540.0 Q 1633.0 537.0 1611.0 534.0 Q 1590.0 532.0 1575.0 531.0 L 1522.0 524.0 L 1358.0 501.0 C 1328.0 497.0 1353.0 464.0 1383.0 469.0 L 1470.0 485.0 L 1495.0 488.0 Q 1504.0 489.0 1521.0 492.0 L 1573.0 499.0 L 1599.0 502.0 Q 1632.0 505.0 1649.0 507.0 Q 1667.0 507.0 1683.0 506.0 Q 1699.0 505.0 1705.0 501.0 Q 1709.0 497.0 1711.0 491.0 Q 1711.0 488.0 1709.0 479.0 L 1703.0 449.0 L 1691.0 397.0 C 1684.0 368.0 1731.0 361.0 1745.0 388.0 Z" fill="lightgray"></path> 
<path d="M 1463.0 341.0 L 1494.0 343.0 Q 1498.0 343.0 1522.0 345.0 L 1562.0 349.0 L 1587.0 351.0 Q 1659.0 357.0 1686.0 357.0 L 1729.0 359.0 Q 1755.0 359.0 1758.0 361.0 Q 1760.0 363.0 1761.0 367.0 L 1761.0 368.0 Q 1761.0 372.0 1757.0 377.0 L 1745.0 388.0 C 1731.0 401.0 1721.0 400.0 1691.0 397.0 L 1652.0 393.0 Q 1629.0 391.0 1613.0 389.0 Q 1596.0 387.0 1567.0 383.0 L 1521.0 379.0 L 1495.0 377.0 Q 1479.0 375.0 1453.0 373.0 Q 1427.0 371.0 1393.0 369.0 C 1363.0 367.0 1363.0 338.0 1393.0 338.0 L 1422.0 338.0 Q 1426.0 338.0 1436.0 339.0 L 1463.0 341.0 Z" fill="lightgray"></path> 
<path d="M 1522.0 345.0 L 1523.0 333.0 L 1525.0 317.0 Q 1525.0 306.0 1528.0 296.0 Q 1531.0 286.0 1537.0 285.0 Q 1542.0 285.0 1549.0 299.0 Q 1555.0 313.0 1557.0 327.0 Q 1560.0 341.0 1562.0 349.0 L 1567.0 383.0 L 1570.0 425.0 Q 1571.0 431.0 1571.0 456.0 Q 1572.0 481.0 1573.0 499.0 L 1575.0 531.0 L 1577.0 545.0 Q 1577.0 553.0 1583.0 565.0 Q 1586.0 573.0 1586.0 577.0 L 1586.0 579.0 Q 1585.0 583.0 1577.0 591.0 Q 1569.0 599.0 1553.0 605.0 Q 1537.0 611.0 1527.0 612.0 L 1524.0 612.0 Q 1517.0 612.0 1515.0 609.0 Q 1512.0 607.0 1512.0 603.0 L 1512.0 601.0 Q 1512.0 598.0 1513.0 593.0 Q 1515.0 587.0 1517.0 578.0 L 1521.0 551.0 Q 1521.0 543.0 1522.0 537.0 L 1522.0 524.0 L 1521.0 492.0 L 1520.0 395.0 L 1521.0 379.0 L 1522.0 345.0 Z" fill="lightgray"></path> 
<path d="M 1436.0 339.0 L 1435.0 325.0 Q 1434.0 319.0 1429.0 311.0 Q 1423.0 302.0 1413.0 290.0 L 1389.0 264.0 Q 1376.0 250.0 1359.0 235.0 Q 1343.0 219.0 1313.0 194.0 L 1269.0 157.0 L 1219.0 121.0 L 1169.0 86.0 Q 1154.0 76.0 1137.0 67.0 L 1115.0 57.0 Q 1099.0 49.0 1099.0 47.0 L 1099.0 42.0 Q 1100.0 41.0 1102.0 41.0 Q 1107.0 41.0 1117.0 44.0 L 1139.0 51.0 Q 1161.0 57.0 1186.0 67.0 Q 1210.0 76.0 1242.0 91.0 Q 1273.0 107.0 1293.0 120.0 Q 1313.0 133.0 1332.0 147.0 L 1358.0 166.0 L 1385.0 189.0 L 1411.0 215.0 L 1435.0 238.0 L 1455.0 259.0 L 1476.0 281.0 L 1489.0 290.0 Q 1495.0 294.0 1497.0 297.0 Q 1499.0 300.0 1499.0 306.0 Q 1498.0 311.0 1492.0 317.0 Q 1487.0 322.0 1479.0 327.0 L 1463.0 341.0 C 1440.0 361.0 1438.0 363.0 1436.0 339.0 Z" fill="lightgray"></path> 
<path d="M 1358.0 166.0 L 1361.0 159.0 Q 1364.0 153.0 1365.0 149.0 L 1365.0 129.0 L 1367.0 96.0 L 1366.0 33.0 Q 1365.0 9.0 1365.0 1.0 Q 1364.0 -9.0 1362.0 -17.0 Q 1359.0 -25.0 1354.0 -36.0 Q 1349.0 -47.0 1349.0 -52.0 Q 1349.0 -57.0 1351.0 -63.0 L 1360.0 -81.0 Q 1367.0 -97.0 1372.0 -101.0 Q 1376.0 -106.0 1383.0 -106.0 L 1385.0 -106.0 Q 1390.0 -106.0 1395.0 -101.0 Q 1403.0 -96.0 1411.0 -87.0 Q 1420.0 -79.0 1440.0 -57.0 L 1473.0 -25.0 L 1549.0 45.0 Q 1556.0 53.0 1556.0 58.0 Q 1556.0 60.0 1555.0 62.0 Q 1553.0 64.0 1550.0 64.0 Q 1545.0 64.0 1538.0 60.0 L 1459.0 9.0 Q 1443.0 -1.0 1434.0 -5.0 Q 1428.0 -8.0 1424.0 -8.0 Q 1422.0 -8.0 1421.0 -7.0 Q 1419.0 -5.0 1419.0 1.0 L 1419.0 96.0 L 1421.0 119.0 Q 1421.0 139.0 1423.0 143.0 Q 1428.0 157.0 1428.0 161.0 L 1428.0 162.0 Q 1428.0 165.0 1425.0 169.0 Q 1421.0 174.0 1409.0 179.0 Q 1397.0 185.0 1395.0 185.0 Q 1393.0 187.0 1385.0 189.0 C 1357.0 200.0 1346.0 193.0 1358.0 166.0 Z" fill="lightgray"></path> 
<path d="M 1651.0 168.0 L 1657.0 172.0 Q 1657.0 173.0 1673.0 181.0 Q 1689.0 189.0 1707.0 201.0 L 1737.0 221.0 Q 1749.0 229.0 1757.0 235.0 Q 1767.0 240.0 1774.0 243.0 Q 1782.0 245.0 1786.0 247.0 Q 1789.0 249.0 1791.0 253.0 Q 1791.0 257.0 1786.0 263.0 Q 1781.0 270.0 1775.0 275.0 L 1755.0 292.0 Q 1743.0 303.0 1737.0 305.0 Q 1734.0 306.0 1731.0 306.0 Q 1727.0 306.0 1725.0 304.0 Q 1722.0 302.0 1719.0 297.0 L 1707.0 274.0 Q 1703.0 268.0 1695.0 255.0 L 1673.0 225.0 Q 1660.0 206.0 1653.0 198.0 Q 1645.0 189.0 1637.0 181.0 C 1616.0 160.0 1626.0 151.0 1651.0 168.0 Z" fill="lightgray"></path> 
<path d="M 1637.0 181.0 L 1611.0 201.0 Q 1609.0 202.0 1599.0 209.0 L 1576.0 225.0 Q 1562.0 234.0 1555.0 238.0 L 1536.0 245.0 Q 1525.0 247.0 1518.0 247.0 Q 1512.0 247.0 1509.0 245.0 Q 1506.0 243.0 1505.0 241.0 Q 1503.0 238.0 1503.0 234.0 Q 1503.0 232.0 1504.0 230.0 Q 1507.0 225.0 1518.0 221.0 Q 1529.0 218.0 1539.0 213.0 L 1563.0 195.0 L 1589.0 175.0 L 1617.0 147.0 Q 1635.0 128.0 1679.0 85.0 L 1727.0 35.0 Q 1751.0 11.0 1770.0 -5.0 Q 1789.0 -22.0 1803.0 -26.0 Q 1814.0 -30.0 1827.0 -30.0 L 1833.0 -30.0 Q 1847.0 -30.0 1869.0 -26.0 Q 1891.0 -23.0 1923.0 -14.0 L 1964.0 -3.0 Q 1973.0 -1.0 1973.0 5.0 L 1973.0 6.0 Q 1973.0 11.0 1960.0 15.0 L 1921.0 27.0 Q 1869.0 41.0 1855.0 46.0 Q 1841.0 51.0 1813.0 62.0 Q 1787.0 73.0 1769.0 83.0 Q 1752.0 93.0 1719.0 116.0 Q 1687.0 139.0 1673.0 151.0 L 1661.0 161.0 Q 1657.0 163.0 1651.0 168.0 L 1637.0 181.0 Z" fill="lightgray"></path> 
      <clipPath id="make-me-a-hanzi-clip-0">
      <path d="M 234.5 444.0 L 165.5 447.0 Q 160.5 442.0 160.5 437.0 Q 160.5 432.0 169.5 420.0 Q 206.5 362.0 215.5 248.0 L 237.5 22.0 Q 238.5 -8.0 259.5 -32.0 Q 263.5 -38.0 266.5 -37.0 L 278.5 -33.0 Q 283.5 -30.0 288.5 -8.0 L 289.5 38.0 L 278.5 208.0 L 253.5 408.0 C 249.5 438.0 249.5 443.0 234.5 444.0 Z" fill="lightgray"></path>
      </clipPath>
      <path clip-path="url(#make-me-a-hanzi-clip-0)" d="M 172.5 437.0 L 213.5 411.0 L 224.5 379.0 L 242.5 274.0 L 269.5 -26.0 " fill="none" id="make-me-a-hanzi-animation-0" stroke-dasharray="618 1236" stroke-linecap="round"></path>

      <clipPath id="make-me-a-hanzi-clip-1">
      <path d="M 808.5 487.0 Q 780.5 506.0 765.5 506.0 Q 751.5 506.0 736.5 502.0 Q 721.5 497.0 692.5 494.0 L 638.5 486.0 L 521.5 472.0 L 459.5 467.0 L 234.5 444.0 C 204.5 441.0 223.5 406.0 253.5 408.0 L 282.5 410.0 L 334.5 418.0 L 459.5 432.0 L 524.5 439.0 L 675.5 448.0 Q 738.5 452.0 751.5 442.0 Q 756.5 437.0 757.5 421.0 Q 759.5 405.0 758.5 396.0 L 749.5 266.0 L 740.5 188.0 L 721.5 89.0 Q 713.5 59.0 708.5 56.0 Q 703.5 53.0 683.5 61.0 C 653.5 60.0 658.5 48.0 670.5 20.0 L 677.5 5.0 Q 680.5 1.0 690.5 -32.0 Q 700.5 -65.0 713.5 -68.0 L 730.5 -63.0 Q 740.5 -58.0 756.5 -30.0 Q 790.5 36.0 800.5 128.0 L 824.5 334.0 Q 828.5 376.0 840.5 398.0 Q 852.5 420.0 856.5 425.0 Q 863.5 440.0 849.5 454.0 Q 836.5 468.0 808.5 487.0 Z" fill="lightgray"></path>
      </clipPath>
      <path clip-path="url(#make-me-a-hanzi-clip-1)" d="M 242.5 441.0 L 264.5 428.0 L 737.5 475.0 L 765.5 473.0 L 781.5 462.0 L 804.5 430.0 L 792.5 372.0 L 774.5 187.0 L 753.5 66.0 L 744.5 40.0 L 724.5 12.0 L 714.5 -57.0 " fill="none" id="make-me-a-hanzi-animation-1" stroke-dasharray="1215 2430" stroke-linecap="round"></path>

      <clipPath id="make-me-a-hanzi-clip-2">
      <path d="M 324.5 228.0 Q 357.5 198.0 437.5 206.0 L 459.5 209.0 L 516.5 216.0 L 629.5 229.0 Q 674.5 235.0 682.5 240.0 Q 694.5 250.0 688.5 259.0 Q 677.5 277.0 641.5 285.0 Q 606.5 293.0 581.5 286.0 Q 556.5 278.0 518.5 270.0 L 459.5 261.0 Q 401.5 255.0 337.5 253.0 Q 315.5 255.0 311.5 249.0 Q 307.5 243.0 324.5 228.0 Z" fill="lightgray"></path>
      </clipPath>
      <path clip-path="url(#make-me-a-hanzi-clip-2)" d="M 318.5 246.0 L 357.5 232.0 L 409.5 230.0 L 614.5 259.0 L 676.5 252.0 " fill="none" id="make-me-a-hanzi-animation-2" stroke-dasharray="491 982" stroke-linecap="round"></path>

      <clipPath id="make-me-a-hanzi-clip-3">
      <path d="M 521.5 472.0 L 524.5 568.0 Q 528.5 634.0 545.5 674.0 Q 550.5 686.0 549.5 692.0 Q 549.5 698.0 544.5 706.0 Q 540.5 716.0 513.5 729.0 Q 487.5 741.0 466.5 743.0 Q 445.5 744.0 440.5 740.0 Q 435.5 736.0 436.5 723.0 L 449.5 674.0 Q 452.5 667.0 457.5 570.0 L 459.5 467.0 L 459.5 432.0 L 459.5 261.0 L 459.5 209.0 L 459.5 50.0 C 459.5 20.0 512.5 24.0 513.5 54.0 L 516.5 216.0 L 518.5 270.0 L 524.5 439.0 L 521.5 472.0 Z" fill="lightgray"></path>
      </clipPath>
      <path clip-path="url(#make-me-a-hanzi-clip-3)" d="M 447.5 732.0 L 497.5 683.0 L 490.5 609.0 L 486.5 79.0 L 465.5 58.0 " fill="none" id="make-me-a-hanzi-animation-3" stroke-dasharray="832 1664" stroke-linecap="round"></path>

      <clipPath id="make-me-a-hanzi-clip-4">
      <path d="M 288.5 -8.0 L 670.5 20.0 C 700.5 22.0 711.5 51.0 683.5 61.0 Q 664.5 68.0 656.5 68.0 L 614.5 66.0 Q 549.5 62.0 513.5 54.0 L 459.5 50.0 L 289.5 38.0 C 259.5 36.0 258.5 -10.0 288.5 -8.0 Z" fill="lightgray"></path>
      </clipPath>
      <path clip-path="url(#make-me-a-hanzi-clip-4)" d="M 295.5 0.0 L 314.5 17.0 L 644.5 42.0 L 673.5 57.0 " fill="none" id="make-me-a-hanzi-animation-4" stroke-dasharray="517 1034" stroke-linecap="round"></path>

      <clipPath id="make-me-a-hanzi-clip-5">
      <path d="M 1579.0 658.0 L 1589.0 679.0 Q 1592.0 683.0 1592.0 692.0 Q 1592.0 698.0 1590.0 707.0 Q 1585.0 727.0 1581.0 734.0 Q 1577.0 741.0 1566.0 747.0 Q 1556.0 755.0 1547.0 759.0 L 1527.0 768.0 Q 1513.0 774.0 1510.0 775.0 L 1490.0 781.0 Q 1488.0 782.0 1487.0 782.0 Q 1484.0 782.0 1483.0 779.0 Q 1481.0 777.0 1481.0 774.0 Q 1481.0 771.0 1483.0 767.0 L 1493.0 749.0 L 1509.0 720.0 Q 1515.0 709.0 1523.0 692.0 Q 1530.0 675.0 1533.0 670.0 Q 1537.0 665.0 1547.0 655.0 C 1568.0 634.0 1568.0 634.0 1579.0 658.0 Z" fill="lightgray"></path>
      </clipPath>
      <path clip-path="url(#make-me-a-hanzi-clip-5)" d="M 1487.0 778.0 L 1551.0 715.0 L 1560.0 684.0 L 1573.0 667.0 " fill="none" id="make-me-a-hanzi-animation-5" stroke-dasharray="271 542" stroke-linecap="round"></path>

      <clipPath id="make-me-a-hanzi-clip-6">
      <path d="M 1547.0 655.0 L 1527.0 653.0 Q 1525.0 652.0 1503.0 649.0 L 1423.0 641.0 L 1335.0 630.0 Q 1293.0 625.0 1261.0 623.0 Q 1229.0 621.0 1221.0 621.0 L 1211.0 620.0 Q 1204.0 619.0 1202.0 615.0 Q 1201.0 614.0 1201.0 613.0 Q 1201.0 610.0 1204.0 606.0 Q 1207.0 601.0 1221.0 594.0 L 1240.0 583.0 Q 1249.0 579.0 1261.0 576.0 Q 1273.0 573.0 1279.0 573.0 Q 1285.0 573.0 1295.0 577.0 Q 1305.0 581.0 1311.0 583.0 Q 1317.0 585.0 1343.0 590.0 Q 1369.0 595.0 1383.0 597.0 Q 1397.0 599.0 1454.0 605.0 Q 1511.0 611.0 1553.0 615.0 L 1641.0 623.0 Q 1687.0 625.0 1733.0 628.0 Q 1779.0 631.0 1801.0 632.0 L 1828.0 633.0 Q 1859.0 634.0 1871.0 640.0 Q 1883.0 645.0 1883.0 651.0 Q 1883.0 657.0 1873.0 665.0 Q 1863.0 673.0 1855.0 676.0 Q 1846.0 680.0 1827.0 686.0 Q 1811.0 691.0 1801.0 691.0 L 1798.0 691.0 Q 1794.0 691.0 1777.0 686.0 Q 1761.0 681.0 1731.0 677.0 L 1675.0 669.0 Q 1671.0 668.0 1635.0 664.0 Q 1599.0 660.0 1579.0 658.0 L 1547.0 655.0 Z" fill="lightgray"></path>
      </clipPath>
      <path clip-path="url(#make-me-a-hanzi-clip-6)" d="M 1207.0 611.0 L 1278.0 599.0 L 1389.0 618.0 L 1791.0 661.0 L 1875.0 652.0 " fill="none" id="make-me-a-hanzi-animation-6" stroke-dasharray="801 1602" stroke-linecap="round"></path>

      <clipPath id="make-me-a-hanzi-clip-7">
      <path d="M 1358.0 501.0 L 1325.0 507.0 Q 1321.0 508.0 1318.0 508.0 Q 1314.0 508.0 1311.0 507.0 Q 1306.0 505.0 1304.0 501.0 L 1304.0 499.0 Q 1304.0 496.0 1307.0 491.0 L 1317.0 483.0 Q 1322.0 479.0 1328.0 465.0 Q 1333.0 452.0 1337.0 433.0 L 1349.0 365.0 Q 1353.0 339.0 1357.0 332.0 Q 1361.0 325.0 1367.0 319.0 Q 1373.0 313.0 1376.0 313.0 Q 1379.0 313.0 1382.0 315.0 Q 1385.0 318.0 1387.0 323.0 Q 1389.0 329.0 1393.0 338.0 L 1393.0 369.0 L 1383.0 469.0 C 1380.0 497.0 1380.0 497.0 1358.0 501.0 Z" fill="lightgray"></path>
      </clipPath>
      <path clip-path="url(#make-me-a-hanzi-clip-7)" d="M 1311.0 500.0 L 1346.0 480.0 L 1358.0 457.0 L 1376.0 323.0 " fill="none" id="make-me-a-hanzi-animation-7" stroke-dasharray="329 658" stroke-linecap="round"></path>

      <clipPath id="make-me-a-hanzi-clip-8">
      <path d="M 1745.0 388.0 L 1775.0 447.0 Q 1778.0 453.0 1787.0 464.0 Q 1797.0 474.0 1804.0 480.0 Q 1812.0 486.0 1813.0 488.0 Q 1816.0 492.0 1816.0 497.0 L 1816.0 500.0 Q 1815.0 507.0 1804.0 517.0 Q 1793.0 527.0 1781.0 535.0 Q 1767.0 543.0 1754.0 549.0 Q 1742.0 554.0 1731.0 554.0 L 1728.0 554.0 Q 1723.0 553.0 1704.0 548.0 Q 1686.0 543.0 1659.0 540.0 Q 1633.0 537.0 1611.0 534.0 Q 1590.0 532.0 1575.0 531.0 L 1522.0 524.0 L 1358.0 501.0 C 1328.0 497.0 1353.0 464.0 1383.0 469.0 L 1470.0 485.0 L 1495.0 488.0 Q 1504.0 489.0 1521.0 492.0 L 1573.0 499.0 L 1599.0 502.0 Q 1632.0 505.0 1649.0 507.0 Q 1667.0 507.0 1683.0 506.0 Q 1699.0 505.0 1705.0 501.0 Q 1709.0 497.0 1711.0 491.0 Q 1711.0 488.0 1709.0 479.0 L 1703.0 449.0 L 1691.0 397.0 C 1684.0 368.0 1731.0 361.0 1745.0 388.0 Z" fill="lightgray"></path>
      </clipPath>
      <path clip-path="url(#make-me-a-hanzi-clip-8)" d="M 1366.0 499.0 L 1390.0 488.0 L 1570.0 515.0 L 1718.0 525.0 L 1744.0 512.0 L 1756.0 497.0 L 1728.0 422.0 L 1699.0 402.0 " fill="none" id="make-me-a-hanzi-animation-8" stroke-dasharray="648 1296" stroke-linecap="round"></path>

      <clipPath id="make-me-a-hanzi-clip-9">
      <path d="M 1463.0 341.0 L 1494.0 343.0 Q 1498.0 343.0 1522.0 345.0 L 1562.0 349.0 L 1587.0 351.0 Q 1659.0 357.0 1686.0 357.0 L 1729.0 359.0 Q 1755.0 359.0 1758.0 361.0 Q 1760.0 363.0 1761.0 367.0 L 1761.0 368.0 Q 1761.0 372.0 1757.0 377.0 L 1745.0 388.0 C 1731.0 401.0 1721.0 400.0 1691.0 397.0 L 1652.0 393.0 Q 1629.0 391.0 1613.0 389.0 Q 1596.0 387.0 1567.0 383.0 L 1521.0 379.0 L 1495.0 377.0 Q 1479.0 375.0 1453.0 373.0 Q 1427.0 371.0 1393.0 369.0 C 1363.0 367.0 1363.0 338.0 1393.0 338.0 L 1422.0 338.0 Q 1426.0 338.0 1436.0 339.0 L 1463.0 341.0 Z" fill="lightgray"></path>
      </clipPath>
      <path clip-path="url(#make-me-a-hanzi-clip-9)" d="M 1400.0 346.0 L 1409.0 354.0 L 1686.0 377.0 L 1753.0 368.0 " fill="none" id="make-me-a-hanzi-animation-9" stroke-dasharray="486 972" stroke-linecap="round"></path>

      <clipPath id="make-me-a-hanzi-clip-10">
      <path d="M 1522.0 345.0 L 1523.0 333.0 L 1525.0 317.0 Q 1525.0 306.0 1528.0 296.0 Q 1531.0 286.0 1537.0 285.0 Q 1542.0 285.0 1549.0 299.0 Q 1555.0 313.0 1557.0 327.0 Q 1560.0 341.0 1562.0 349.0 L 1567.0 383.0 L 1570.0 425.0 Q 1571.0 431.0 1571.0 456.0 Q 1572.0 481.0 1573.0 499.0 L 1575.0 531.0 L 1577.0 545.0 Q 1577.0 553.0 1583.0 565.0 Q 1586.0 573.0 1586.0 577.0 L 1586.0 579.0 Q 1585.0 583.0 1577.0 591.0 Q 1569.0 599.0 1553.0 605.0 Q 1537.0 611.0 1527.0 612.0 L 1524.0 612.0 Q 1517.0 612.0 1515.0 609.0 Q 1512.0 607.0 1512.0 603.0 L 1512.0 601.0 Q 1512.0 598.0 1513.0 593.0 Q 1515.0 587.0 1517.0 578.0 L 1521.0 551.0 Q 1521.0 543.0 1522.0 537.0 L 1522.0 524.0 L 1521.0 492.0 L 1520.0 395.0 L 1521.0 379.0 L 1522.0 345.0 Z" fill="lightgray"></path>
      </clipPath>
      <path clip-path="url(#make-me-a-hanzi-clip-10)" d="M 1522.0 602.0 L 1551.0 571.0 L 1536.0 293.0 " fill="none" id="make-me-a-hanzi-animation-10" stroke-dasharray="449 898" stroke-linecap="round"></path>

      <clipPath id="make-me-a-hanzi-clip-11">
      <path d="M 1436.0 339.0 L 1435.0 325.0 Q 1434.0 319.0 1429.0 311.0 Q 1423.0 302.0 1413.0 290.0 L 1389.0 264.0 Q 1376.0 250.0 1359.0 235.0 Q 1343.0 219.0 1313.0 194.0 L 1269.0 157.0 L 1219.0 121.0 L 1169.0 86.0 Q 1154.0 76.0 1137.0 67.0 L 1115.0 57.0 Q 1099.0 49.0 1099.0 47.0 L 1099.0 42.0 Q 1100.0 41.0 1102.0 41.0 Q 1107.0 41.0 1117.0 44.0 L 1139.0 51.0 Q 1161.0 57.0 1186.0 67.0 Q 1210.0 76.0 1242.0 91.0 Q 1273.0 107.0 1293.0 120.0 Q 1313.0 133.0 1332.0 147.0 L 1358.0 166.0 L 1385.0 189.0 L 1411.0 215.0 L 1435.0 238.0 L 1455.0 259.0 L 1476.0 281.0 L 1489.0 290.0 Q 1495.0 294.0 1497.0 297.0 Q 1499.0 300.0 1499.0 306.0 Q 1498.0 311.0 1492.0 317.0 Q 1487.0 322.0 1479.0 327.0 L 1463.0 341.0 C 1440.0 361.0 1438.0 363.0 1436.0 339.0 Z" fill="lightgray"></path>
      </clipPath>
      <path clip-path="url(#make-me-a-hanzi-clip-11)" d="M 1443.0 331.0 L 1458.0 311.0 L 1451.0 294.0 L 1331.0 176.0 L 1227.0 103.0 L 1164.0 69.0 L 1102.0 45.0 " fill="none" id="make-me-a-hanzi-animation-11" stroke-dasharray="605 1210" stroke-linecap="round"></path>

      <clipPath id="make-me-a-hanzi-clip-12">
      <path d="M 1358.0 166.0 L 1361.0 159.0 Q 1364.0 153.0 1365.0 149.0 L 1365.0 129.0 L 1367.0 96.0 L 1366.0 33.0 Q 1365.0 9.0 1365.0 1.0 Q 1364.0 -9.0 1362.0 -17.0 Q 1359.0 -25.0 1354.0 -36.0 Q 1349.0 -47.0 1349.0 -52.0 Q 1349.0 -57.0 1351.0 -63.0 L 1360.0 -81.0 Q 1367.0 -97.0 1372.0 -101.0 Q 1376.0 -106.0 1383.0 -106.0 L 1385.0 -106.0 Q 1390.0 -106.0 1395.0 -101.0 Q 1403.0 -96.0 1411.0 -87.0 Q 1420.0 -79.0 1440.0 -57.0 L 1473.0 -25.0 L 1549.0 45.0 Q 1556.0 53.0 1556.0 58.0 Q 1556.0 60.0 1555.0 62.0 Q 1553.0 64.0 1550.0 64.0 Q 1545.0 64.0 1538.0 60.0 L 1459.0 9.0 Q 1443.0 -1.0 1434.0 -5.0 Q 1428.0 -8.0 1424.0 -8.0 Q 1422.0 -8.0 1421.0 -7.0 Q 1419.0 -5.0 1419.0 1.0 L 1419.0 96.0 L 1421.0 119.0 Q 1421.0 139.0 1423.0 143.0 Q 1428.0 157.0 1428.0 161.0 L 1428.0 162.0 Q 1428.0 165.0 1425.0 169.0 Q 1421.0 174.0 1409.0 179.0 Q 1397.0 185.0 1395.0 185.0 Q 1393.0 187.0 1385.0 189.0 C 1357.0 200.0 1346.0 193.0 1358.0 166.0 Z" fill="lightgray"></path>
      </clipPath>
      <path clip-path="url(#make-me-a-hanzi-clip-12)" d="M 1366.0 165.0 L 1395.0 153.0 L 1392.0 -10.0 L 1397.0 -42.0 L 1442.0 -26.0 L 1551.0 59.0 " fill="none" id="make-me-a-hanzi-animation-12" stroke-dasharray="541 1082" stroke-linecap="round"></path>

      <clipPath id="make-me-a-hanzi-clip-13">
      <path d="M 1651.0 168.0 L 1657.0 172.0 Q 1657.0 173.0 1673.0 181.0 Q 1689.0 189.0 1707.0 201.0 L 1737.0 221.0 Q 1749.0 229.0 1757.0 235.0 Q 1767.0 240.0 1774.0 243.0 Q 1782.0 245.0 1786.0 247.0 Q 1789.0 249.0 1791.0 253.0 Q 1791.0 257.0 1786.0 263.0 Q 1781.0 270.0 1775.0 275.0 L 1755.0 292.0 Q 1743.0 303.0 1737.0 305.0 Q 1734.0 306.0 1731.0 306.0 Q 1727.0 306.0 1725.0 304.0 Q 1722.0 302.0 1719.0 297.0 L 1707.0 274.0 Q 1703.0 268.0 1695.0 255.0 L 1673.0 225.0 Q 1660.0 206.0 1653.0 198.0 Q 1645.0 189.0 1637.0 181.0 C 1616.0 160.0 1626.0 151.0 1651.0 168.0 Z" fill="lightgray"></path>
      </clipPath>
      <path clip-path="url(#make-me-a-hanzi-clip-13)" d="M 1783.0 255.0 L 1739.0 263.0 L 1662.0 188.0 L 1644.0 182.0 " fill="none" id="make-me-a-hanzi-animation-13" stroke-dasharray="299 598" stroke-linecap="round"></path>

      <clipPath id="make-me-a-hanzi-clip-14">
      <path d="M 1637.0 181.0 L 1611.0 201.0 Q 1609.0 202.0 1599.0 209.0 L 1576.0 225.0 Q 1562.0 234.0 1555.0 238.0 L 1536.0 245.0 Q 1525.0 247.0 1518.0 247.0 Q 1512.0 247.0 1509.0 245.0 Q 1506.0 243.0 1505.0 241.0 Q 1503.0 238.0 1503.0 234.0 Q 1503.0 232.0 1504.0 230.0 Q 1507.0 225.0 1518.0 221.0 Q 1529.0 218.0 1539.0 213.0 L 1563.0 195.0 L 1589.0 175.0 L 1617.0 147.0 Q 1635.0 128.0 1679.0 85.0 L 1727.0 35.0 Q 1751.0 11.0 1770.0 -5.0 Q 1789.0 -22.0 1803.0 -26.0 Q 1814.0 -30.0 1827.0 -30.0 L 1833.0 -30.0 Q 1847.0 -30.0 1869.0 -26.0 Q 1891.0 -23.0 1923.0 -14.0 L 1964.0 -3.0 Q 1973.0 -1.0 1973.0 5.0 L 1973.0 6.0 Q 1973.0 11.0 1960.0 15.0 L 1921.0 27.0 Q 1869.0 41.0 1855.0 46.0 Q 1841.0 51.0 1813.0 62.0 Q 1787.0 73.0 1769.0 83.0 Q 1752.0 93.0 1719.0 116.0 Q 1687.0 139.0 1673.0 151.0 L 1661.0 161.0 Q 1657.0 163.0 1651.0 168.0 L 1637.0 181.0 Z" fill="lightgray"></path>
      </clipPath>
      <path clip-path="url(#make-me-a-hanzi-clip-14)" d="M 1513.0 234.0 L 1545.0 227.0 L 1573.0 208.0 L 1744.0 61.0 L 1810.0 17.0 L 1881.0 6.0 L 1965.0 6.0 " fill="none" id="make-me-a-hanzi-animation-14" stroke-dasharray="655 1310" stroke-linecap="round"></path>

</g>
</svg>
