<svg version="1.1" viewBox="0 0 2048 1024" xmlns="http://www.w3.org/2000/svg">
  <g stroke="lightgray" stroke-dasharray="1,1" stroke-width="1" transform="scale(4, 4)">
    <line x1="0" y1="0" x2="256" y2="256"></line>
    <line x1="256" y1="0" x2="0" y2="256"></line>
    <line x1="128" y1="0" x2="128" y2="256"></line>
    <line x1="0" y1="128" x2="256" y2="128"></line>
    <line x1="256" y1="0" x2="512" y2="256"></line>
    <line x1="512" y1="0" x2="256" y2="256"></line>
    <line x1="384" y1="0" x2="384" y2="256"></line>
    <line x1="256" y1="128" x2="512" y2="128"></line>
  </g>
<g transform="scale(1, -1) translate(0, -850)">
   <style type="text/css">
    @keyframes keyframes0 {
      from {
       stroke: black;
       stroke-dashoffset: 1049;
       stroke-width: 128;
       }
       77% {
       animation-timing-function: step-end;
       stroke: black;
       stroke-dashoffset: 0;
       stroke-width: 128;
       }
       to {
       stroke: black;
       stroke-width: 1024;
       }
       }
       #make-me-a-hanzi-animation-0 {
         animation: keyframes0 1.103678s both;
         animation-delay: 0.000000s;
         animation-timing-function: linear;
       }
    @keyframes keyframes1 {
      from {
       stroke: black;
       stroke-dashoffset: 501;
       stroke-width: 128;
       }
       62% {
       animation-timing-function: step-end;
       stroke: black;
       stroke-dashoffset: 0;
       stroke-width: 128;
       }
       to {
       stroke: black;
       stroke-width: 1024;
       }
       }
       #make-me-a-hanzi-animation-1 {
         animation: keyframes1 0.657715s both;
         animation-delay: 1.103678s;
         animation-timing-function: linear;
       }
    @keyframes keyframes2 {
      from {
       stroke: black;
       stroke-dashoffset: 711;
       stroke-width: 128;
       }
       70% {
       animation-timing-function: step-end;
       stroke: black;
       stroke-dashoffset: 0;
       stroke-width: 128;
       }
       to {
       stroke: black;
       stroke-width: 1024;
       }
       }
       #make-me-a-hanzi-animation-2 {
         animation: keyframes2 0.828613s both;
         animation-delay: 1.761393s;
         animation-timing-function: linear;
       }
    @keyframes keyframes3 {
      from {
       stroke: black;
       stroke-dashoffset: 1076;
       stroke-width: 128;
       }
       78% {
       animation-timing-function: step-end;
       stroke: black;
       stroke-dashoffset: 0;
       stroke-width: 128;
       }
       to {
       stroke: black;
       stroke-width: 1024;
       }
       }
       #make-me-a-hanzi-animation-3 {
         animation: keyframes3 1.125651s both;
         animation-delay: 2.590007s;
         animation-timing-function: linear;
       }
    @keyframes keyframes4 {
      from {
       stroke: black;
       stroke-dashoffset: 566;
       stroke-width: 128;
       }
       65% {
       animation-timing-function: step-end;
       stroke: black;
       stroke-dashoffset: 0;
       stroke-width: 128;
       }
       to {
       stroke: black;
       stroke-width: 1024;
       }
       }
       #make-me-a-hanzi-animation-4 {
         animation: keyframes4 0.710612s both;
         animation-delay: 3.715658s;
         animation-timing-function: linear;
       }
    @keyframes keyframes5 {
      from {
       stroke: black;
       stroke-dashoffset: 559;
       stroke-width: 128;
       }
       65% {
       animation-timing-function: step-end;
       stroke: black;
       stroke-dashoffset: 0;
       stroke-width: 128;
       }
       to {
       stroke: black;
       stroke-width: 1024;
       }
       }
       #make-me-a-hanzi-animation-5 {
         animation: keyframes5 0.704915s both;
         animation-delay: 4.426270s;
         animation-timing-function: linear;
       }
    @keyframes keyframes6 {
      from {
       stroke: black;
       stroke-dashoffset: 653;
       stroke-width: 128;
       }
       68% {
       animation-timing-function: step-end;
       stroke: black;
       stroke-dashoffset: 0;
       stroke-width: 128;
       }
       to {
       stroke: black;
       stroke-width: 1024;
       }
       }
       #make-me-a-hanzi-animation-6 {
         animation: keyframes6 0.781413s both;
         animation-delay: 5.131185s;
         animation-timing-function: linear;
       }
    @keyframes keyframes7 {
      from {
       stroke: black;
       stroke-dashoffset: 485;
       stroke-width: 128;
       }
       61% {
       animation-timing-function: step-end;
       stroke: black;
       stroke-dashoffset: 0;
       stroke-width: 128;
       }
       to {
       stroke: black;
       stroke-width: 1024;
       }
       }
       #make-me-a-hanzi-animation-7 {
         animation: keyframes7 0.644694s both;
         animation-delay: 5.912598s;
         animation-timing-function: linear;
       }
    @keyframes keyframes8 {
      from {
       stroke: black;
       stroke-dashoffset: 621;
       stroke-width: 128;
       }
       67% {
       animation-timing-function: step-end;
       stroke: black;
       stroke-dashoffset: 0;
       stroke-width: 128;
       }
       to {
       stroke: black;
       stroke-width: 1024;
       }
       }
       #make-me-a-hanzi-animation-8 {
         animation: keyframes8 0.755371s both;
         animation-delay: 6.557292s;
         animation-timing-function: linear;
       }
    @keyframes keyframes9 {
      from {
       stroke: black;
       stroke-dashoffset: 975;
       stroke-width: 128;
       }
       76% {
       animation-timing-function: step-end;
       stroke: black;
       stroke-dashoffset: 0;
       stroke-width: 128;
       }
       to {
       stroke: black;
       stroke-width: 1024;
       }
       }
       #make-me-a-hanzi-animation-9 {
         animation: keyframes9 1.043457s both;
         animation-delay: 7.312663s;
         animation-timing-function: linear;
       }
    @keyframes keyframes10 {
      from {
       stroke: black;
       stroke-dashoffset: 606;
       stroke-width: 128;
       }
       66% {
       animation-timing-function: step-end;
       stroke: black;
       stroke-dashoffset: 0;
       stroke-width: 128;
       }
       to {
       stroke: black;
       stroke-width: 1024;
       }
       }
       #make-me-a-hanzi-animation-10 {
         animation: keyframes10 0.743164s both;
         animation-delay: 8.356120s;
         animation-timing-function: linear;
       }
    @keyframes keyframes11 {
      from {
       stroke: black;
       stroke-dashoffset: 813;
       stroke-width: 128;
       }
       73% {
       animation-timing-function: step-end;
       stroke: black;
       stroke-dashoffset: 0;
       stroke-width: 128;
       }
       to {
       stroke: black;
       stroke-width: 1024;
       }
       }
       #make-me-a-hanzi-animation-11 {
         animation: keyframes11 0.911621s both;
         animation-delay: 9.099284s;
         animation-timing-function: linear;
       }
    @keyframes keyframes12 {
      from {
       stroke: black;
       stroke-dashoffset: 850;
       stroke-width: 128;
       }
       73% {
       animation-timing-function: step-end;
       stroke: black;
       stroke-dashoffset: 0;
       stroke-width: 128;
       }
       to {
       stroke: black;
       stroke-width: 1024;
       }
       }
       #make-me-a-hanzi-animation-12 {
         animation: keyframes12 0.941732s both;
         animation-delay: 10.010905s;
         animation-timing-function: linear;
       }
    @keyframes keyframes13 {
      from {
       stroke: black;
       stroke-dashoffset: 475;
       stroke-width: 128;
       }
       61% {
       animation-timing-function: step-end;
       stroke: black;
       stroke-dashoffset: 0;
       stroke-width: 128;
       }
       to {
       stroke: black;
       stroke-width: 1024;
       }
       }
       #make-me-a-hanzi-animation-13 {
         animation: keyframes13 0.636556s both;
         animation-delay: 10.952637s;
         animation-timing-function: linear;
       }
</style>
<path d="M 504 608 L 651 613 L 777 615 Q 849 615 857 616 L 897 618 Q 922 618 906 639 Q 894 650 883 657 Q 840 681 811 679 Q 780 674 747 667 Q 714 659 609 650 L 493 641 L 376 630 L 268 618 Q 243 615 182 612 L 126 609 Q 111 608 108 603 Q 105 598 111 590 Q 116 581 138 574 L 158 565 Q 172 559 183 559 Q 194 558 225 567 Q 303 588 451 602 L 504 608 Z" fill="lightgray"></path> 
<path d="M 421 408 L 457 448 Q 477 468 487 483 L 529 545 L 539 556 Q 547 562 548 566 Q 548 569 544 575 Q 542 582 537 586 L 504 608 C 479 625 453 632 451 602 L 450 595 L 457 577 Q 458 573 455 548 Q 451 523 428 476 Q 405 428 385 402 C 367 378 401 386 421 408 Z" fill="lightgray"></path> 
<path d="M 313 190 L 311 151 L 304 108 Q 295 41 296 21 Q 296 0 317 -32 Q 331 -51 338 -49 Q 345 -47 346 -43 Q 347 -40 350 -20 L 353 0 L 353 36 L 357 185 L 357 216 L 364 366 C 365 396 365 396 357 398 L 328 406 Q 292 416 289 404 Q 286 398 290 391 L 300 377 Q 305 370 306 360 Q 313 343 313 322 L 313 190 Z" fill="lightgray"></path> 
<path d="M 629 18 L 654 -33 L 666 -61 Q 670 -70 676 -72 Q 683 -76 697 -65 Q 710 -55 725 -34 Q 748 -2 748 53 L 739 172 L 739 314 Q 739 331 740 337 L 741 349 Q 740 365 748 380 L 755 392 Q 758 401 757 405 Q 751 419 722 437 L 696 452 Q 678 462 672 462 L 593 441 L 421 408 L 385 402 L 357 398 C 327 394 334 363 364 366 L 375 366 L 486 387 Q 545 397 584 400 L 629 402 Q 651 401 661 395 Q 670 385 672 375 Q 674 365 674 344 L 674 234 L 674 216 L 674 188 Q 674 121 670 95 L 663 53 C 658 23 616 45 629 18 Z" fill="lightgray"></path> 
<path d="M 357 185 L 400 182 Q 411 182 456 188 L 575 200 Q 583 202 600 203 L 621 204 Q 629 203 652 208 L 666 214 L 674 216 C 701 224 701 224 674 234 L 661 239 Q 623 250 613 251 Q 603 251 570 245 L 519 236 L 357 216 C 327 212 327 187 357 185 Z" fill="lightgray"></path> 
<path d="M 353 0 L 369 -4 Q 378 -7 404 -4 L 462 4 L 525 9 L 588 16 L 629 18 C 659 19 690 39 663 53 L 646 62 Q 629 74 567 61 L 439 43 L 379 39 L 353 36 C 323 33 324 7 353 0 Z" fill="lightgray"></path> 
<path d="M 1329 643 Q 1383 704 1406 719 Q 1416 726 1414 739 Q 1413 751 1391 775 Q 1372 794 1355 798 Q 1339 799 1342 779 Q 1348 754 1336 737 Q 1275 637 1134 515 Q 1124 508 1121 503 Q 1117 494 1129 494 Q 1165 494 1303 617 L 1329 643 Z" fill="lightgray"></path> 
<path d="M 1303 617 Q 1319 578 1297 474 Q 1287 435 1316 399 Q 1316 398 1318 396 Q 1331 383 1341 404 Q 1353 437 1352 474 Q 1355 562 1359 582 Q 1365 606 1329 643 C 1308 665 1293 645 1303 617 Z" fill="lightgray"></path> 
<path d="M 1538 605 Q 1502 587 1458 565 Q 1451 559 1464 556 Q 1503 563 1541 577 L 1582 593 Q 1681 642 1746 689 Q 1762 702 1785 712 Q 1797 718 1795 726 Q 1792 733 1776 743 Q 1739 762 1718 760 Q 1709 760 1709 749 Q 1702 707 1580 629 L 1538 605 Z" fill="lightgray"></path> 
<path d="M 1541 577 Q 1541 543 1578 515 Q 1627 478 1808 488 Q 1889 494 1920 512 Q 1948 527 1935 555 Q 1919 592 1906 657 Q 1905 672 1897 676 Q 1890 680 1887 662 Q 1874 583 1862 568 Q 1832 535 1713 531 Q 1646 531 1618 541 Q 1585 557 1582 593 L 1580 629 Q 1580 687 1598 730 Q 1608 758 1592 773 Q 1546 807 1532 803 Q 1519 799 1525 782 Q 1543 748 1539 698 Q 1538 640 1538 605 L 1541 577 Z" fill="lightgray"></path> 
<path d="M 1423 417 Q 1407 433 1375 442 Q 1366 443 1361 436 Q 1358 432 1365 422 Q 1401 340 1373 186 Q 1361 156 1367 130 Q 1376 100 1386 89 Q 1396 77 1405 90 Q 1426 120 1427 273 Q 1427 357 1429 387 C 1430 411 1430 411 1423 417 Z" fill="lightgray"></path> 
<path d="M 1639 165 Q 1632 143 1646 120 Q 1661 92 1670 92 Q 1685 93 1700 127 Q 1715 154 1713 174 Q 1703 238 1704 336 Q 1703 364 1719 390 Q 1729 406 1722 416 Q 1694 441 1646 461 Q 1630 467 1607 458 Q 1528 427 1423 417 C 1393 414 1399 383 1429 387 Q 1517 399 1607 412 Q 1619 412 1625 407 Q 1634 389 1639 341 Q 1646 194 1639 165 Z" fill="lightgray"></path> 
<path d="M 1504 280 Q 1504 84 1425 11 Q 1410 -1 1393 -14 Q 1356 -39 1274 -71 Q 1262 -74 1259 -77 Q 1253 -81 1267 -86 Q 1339 -92 1446 -33 Q 1465 -20 1480 -4 Q 1540 63 1557 249 Q 1558 276 1571 306 Q 1577 316 1569 324 Q 1553 340 1520 354 Q 1501 364 1485 359 Q 1466 353 1481 336 Q 1506 308 1504 280 Z" fill="lightgray"></path> 
<path d="M 1588 47 Q 1640 -5 1703 -82 Q 1718 -103 1733 -107 Q 1740 -108 1749 -100 Q 1762 -87 1752 -43 Q 1740 15 1602 72 Q 1595 75 1590 77 Q 1581 83 1579 71 Q 1578 58 1588 47 Z" fill="lightgray"></path> 
      <clipPath id="make-me-a-hanzi-clip-0">
      <path d="M 504 608 L 651 613 L 777 615 Q 849 615 857 616 L 897 618 Q 922 618 906 639 Q 894 650 883 657 Q 840 681 811 679 Q 780 674 747 667 Q 714 659 609 650 L 493 641 L 376 630 L 268 618 Q 243 615 182 612 L 126 609 Q 111 608 108 603 Q 105 598 111 590 Q 116 581 138 574 L 158 565 Q 172 559 183 559 Q 194 558 225 567 Q 303 588 451 602 L 504 608 Z" fill="lightgray"></path>
      </clipPath>
      <path clip-path="url(#make-me-a-hanzi-clip-0)" d="M 116 598 L 180 585 L 414 617 L 816 647 L 862 641 L 902 628 " fill="none" id="make-me-a-hanzi-animation-0" stroke-dasharray="921 1842" stroke-linecap="round"></path>

      <clipPath id="make-me-a-hanzi-clip-1">
      <path d="M 421 408 L 457 448 Q 477 468 487 483 L 529 545 L 539 556 Q 547 562 548 566 Q 548 569 544 575 Q 542 582 537 586 L 504 608 C 479 625 453 632 451 602 L 450 595 L 457 577 Q 458 573 455 548 Q 451 523 428 476 Q 405 428 385 402 C 367 378 401 386 421 408 Z" fill="lightgray"></path>
      </clipPath>
      <path clip-path="url(#make-me-a-hanzi-clip-1)" d="M 458 597 L 496 566 L 489 545 L 449 468 L 413 420 L 391 405 " fill="none" id="make-me-a-hanzi-animation-1" stroke-dasharray="373 746" stroke-linecap="round"></path>

      <clipPath id="make-me-a-hanzi-clip-2">
      <path d="M 313 190 L 311 151 L 304 108 Q 295 41 296 21 Q 296 0 317 -32 Q 331 -51 338 -49 Q 345 -47 346 -43 Q 347 -40 350 -20 L 353 0 L 353 36 L 357 185 L 357 216 L 364 366 C 365 396 365 396 357 398 L 328 406 Q 292 416 289 404 Q 286 398 290 391 L 300 377 Q 305 370 306 360 Q 313 343 313 322 L 313 190 Z" fill="lightgray"></path>
      </clipPath>
      <path clip-path="url(#make-me-a-hanzi-clip-2)" d="M 300 398 L 328 379 L 336 360 L 335 163 L 324 25 L 337 -39 " fill="none" id="make-me-a-hanzi-animation-2" stroke-dasharray="583 1166" stroke-linecap="round"></path>

      <clipPath id="make-me-a-hanzi-clip-3">
      <path d="M 629 18 L 654 -33 L 666 -61 Q 670 -70 676 -72 Q 683 -76 697 -65 Q 710 -55 725 -34 Q 748 -2 748 53 L 739 172 L 739 314 Q 739 331 740 337 L 741 349 Q 740 365 748 380 L 755 392 Q 758 401 757 405 Q 751 419 722 437 L 696 452 Q 678 462 672 462 L 593 441 L 421 408 L 385 402 L 357 398 C 327 394 334 363 364 366 L 375 366 L 486 387 Q 545 397 584 400 L 629 402 Q 651 401 661 395 Q 670 385 672 375 Q 674 365 674 344 L 674 234 L 674 216 L 674 188 Q 674 121 670 95 L 663 53 C 658 23 616 45 629 18 Z" fill="lightgray"></path>
      </clipPath>
      <path clip-path="url(#make-me-a-hanzi-clip-3)" d="M 365 394 L 375 385 L 407 388 L 646 428 L 674 426 L 709 395 L 706 46 L 690 8 L 681 -58 " fill="none" id="make-me-a-hanzi-animation-3" stroke-dasharray="948 1896" stroke-linecap="round"></path>

      <clipPath id="make-me-a-hanzi-clip-4">
      <path d="M 357 185 L 400 182 Q 411 182 456 188 L 575 200 Q 583 202 600 203 L 621 204 Q 629 203 652 208 L 666 214 L 674 216 C 701 224 701 224 674 234 L 661 239 Q 623 250 613 251 Q 603 251 570 245 L 519 236 L 357 216 C 327 212 327 187 357 185 Z" fill="lightgray"></path>
      </clipPath>
      <path clip-path="url(#make-me-a-hanzi-clip-4)" d="M 365 193 L 374 201 L 600 227 L 661 226 L 669 221 " fill="none" id="make-me-a-hanzi-animation-4" stroke-dasharray="438 876" stroke-linecap="round"></path>

      <clipPath id="make-me-a-hanzi-clip-5">
      <path d="M 353 0 L 369 -4 Q 378 -7 404 -4 L 462 4 L 525 9 L 588 16 L 629 18 C 659 19 690 39 663 53 L 646 62 Q 629 74 567 61 L 439 43 L 379 39 L 353 36 C 323 33 324 7 353 0 Z" fill="lightgray"></path>
      </clipPath>
      <path clip-path="url(#make-me-a-hanzi-clip-5)" d="M 360 30 L 373 18 L 394 17 L 656 51 " fill="none" id="make-me-a-hanzi-animation-5" stroke-dasharray="431 862" stroke-linecap="round"></path>

      <clipPath id="make-me-a-hanzi-clip-6">
      <path d="M 1329 643 Q 1383 704 1406 719 Q 1416 726 1414 739 Q 1413 751 1391 775 Q 1372 794 1355 798 Q 1339 799 1342 779 Q 1348 754 1336 737 Q 1275 637 1134 515 Q 1124 508 1121 503 Q 1117 494 1129 494 Q 1165 494 1303 617 L 1329 643 Z" fill="lightgray"></path>
      </clipPath>
      <path clip-path="url(#make-me-a-hanzi-clip-6)" d="M 1353 785 L 1369 763 L 1375 740 L 1355 712 L 1280 624 L 1230 576 L 1157 517 L 1128 501 " fill="none" id="make-me-a-hanzi-animation-6" stroke-dasharray="525 1050" stroke-linecap="round"></path>

      <clipPath id="make-me-a-hanzi-clip-7">
      <path d="M 1303 617 Q 1319 578 1297 474 Q 1287 435 1316 399 Q 1316 398 1318 396 Q 1331 383 1341 404 Q 1353 437 1352 474 Q 1355 562 1359 582 Q 1365 606 1329 643 C 1308 665 1293 645 1303 617 Z" fill="lightgray"></path>
      </clipPath>
      <path clip-path="url(#make-me-a-hanzi-clip-7)" d="M 1331 632 L 1328 611 L 1334 573 L 1323 462 L 1328 404 " fill="none" id="make-me-a-hanzi-animation-7" stroke-dasharray="357 714" stroke-linecap="round"></path>

      <clipPath id="make-me-a-hanzi-clip-8">
      <path d="M 1538 605 Q 1502 587 1458 565 Q 1451 559 1464 556 Q 1503 563 1541 577 L 1582 593 Q 1681 642 1746 689 Q 1762 702 1785 712 Q 1797 718 1795 726 Q 1792 733 1776 743 Q 1739 762 1718 760 Q 1709 760 1709 749 Q 1702 707 1580 629 L 1538 605 Z" fill="lightgray"></path>
      </clipPath>
      <path clip-path="url(#make-me-a-hanzi-clip-8)" d="M 1785 724 L 1736 724 L 1681 673 L 1628 637 L 1530 585 L 1467 565 " fill="none" id="make-me-a-hanzi-animation-8" stroke-dasharray="493 986" stroke-linecap="round"></path>

      <clipPath id="make-me-a-hanzi-clip-9">
      <path d="M 1541 577 Q 1541 543 1578 515 Q 1627 478 1808 488 Q 1889 494 1920 512 Q 1948 527 1935 555 Q 1919 592 1906 657 Q 1905 672 1897 676 Q 1890 680 1887 662 Q 1874 583 1862 568 Q 1832 535 1713 531 Q 1646 531 1618 541 Q 1585 557 1582 593 L 1580 629 Q 1580 687 1598 730 Q 1608 758 1592 773 Q 1546 807 1532 803 Q 1519 799 1525 782 Q 1543 748 1539 698 Q 1538 640 1538 605 L 1541 577 Z" fill="lightgray"></path>
      </clipPath>
      <path clip-path="url(#make-me-a-hanzi-clip-9)" d="M 1536 791 L 1570 745 L 1559 654 L 1563 573 L 1576 546 L 1606 523 L 1636 514 L 1731 508 L 1833 518 L 1875 532 L 1896 546 L 1896 669 " fill="none" id="make-me-a-hanzi-animation-9" stroke-dasharray="847 1694" stroke-linecap="round"></path>

      <clipPath id="make-me-a-hanzi-clip-10">
      <path d="M 1423 417 Q 1407 433 1375 442 Q 1366 443 1361 436 Q 1358 432 1365 422 Q 1401 340 1373 186 Q 1361 156 1367 130 Q 1376 100 1386 89 Q 1396 77 1405 90 Q 1426 120 1427 273 Q 1427 357 1429 387 C 1430 411 1430 411 1423 417 Z" fill="lightgray"></path>
      </clipPath>
      <path clip-path="url(#make-me-a-hanzi-clip-10)" d="M 1371 431 L 1400 399 L 1406 351 L 1407 261 L 1392 140 L 1395 94 " fill="none" id="make-me-a-hanzi-animation-10" stroke-dasharray="478 956" stroke-linecap="round"></path>

      <clipPath id="make-me-a-hanzi-clip-11">
      <path d="M 1639 165 Q 1632 143 1646 120 Q 1661 92 1670 92 Q 1685 93 1700 127 Q 1715 154 1713 174 Q 1703 238 1704 336 Q 1703 364 1719 390 Q 1729 406 1722 416 Q 1694 441 1646 461 Q 1630 467 1607 458 Q 1528 427 1423 417 C 1393 414 1399 383 1429 387 Q 1517 399 1607 412 Q 1619 412 1625 407 Q 1634 389 1639 341 Q 1646 194 1639 165 Z" fill="lightgray"></path>
      </clipPath>
      <path clip-path="url(#make-me-a-hanzi-clip-11)" d="M 1432 411 L 1441 404 L 1464 406 L 1630 436 L 1664 411 L 1674 398 L 1677 169 L 1671 103 " fill="none" id="make-me-a-hanzi-animation-11" stroke-dasharray="685 1370" stroke-linecap="round"></path>

      <clipPath id="make-me-a-hanzi-clip-12">
      <path d="M 1504 280 Q 1504 84 1425 11 Q 1410 -1 1393 -14 Q 1356 -39 1274 -71 Q 1262 -74 1259 -77 Q 1253 -81 1267 -86 Q 1339 -92 1446 -33 Q 1465 -20 1480 -4 Q 1540 63 1557 249 Q 1558 276 1571 306 Q 1577 316 1569 324 Q 1553 340 1520 354 Q 1501 364 1485 359 Q 1466 353 1481 336 Q 1506 308 1504 280 Z" fill="lightgray"></path>
      </clipPath>
      <path clip-path="url(#make-me-a-hanzi-clip-12)" d="M 1486 347 L 1506 338 L 1535 308 L 1521 163 L 1492 62 L 1464 16 L 1411 -28 L 1336 -63 L 1264 -80 " fill="none" id="make-me-a-hanzi-animation-12" stroke-dasharray="722 1444" stroke-linecap="round"></path>

      <clipPath id="make-me-a-hanzi-clip-13">
      <path d="M 1588 47 Q 1640 -5 1703 -82 Q 1718 -103 1733 -107 Q 1740 -108 1749 -100 Q 1762 -87 1752 -43 Q 1740 15 1602 72 Q 1595 75 1590 77 Q 1581 83 1579 71 Q 1578 58 1588 47 Z" fill="lightgray"></path>
      </clipPath>
      <path clip-path="url(#make-me-a-hanzi-clip-13)" d="M 1589 66 L 1693 -16 L 1719 -48 L 1734 -91 " fill="none" id="make-me-a-hanzi-animation-13" stroke-dasharray="347 694" stroke-linecap="round"></path>

</g>
</svg>
