<svg version="1.1" viewBox="0 0 2048 1024" xmlns="http://www.w3.org/2000/svg">
  <g stroke="lightgray" stroke-dasharray="1,1" stroke-width="1" transform="scale(4, 4)">
    <line x1="0" y1="0" x2="256" y2="256"></line>
    <line x1="256" y1="0" x2="0" y2="256"></line>
    <line x1="128" y1="0" x2="128" y2="256"></line>
    <line x1="0" y1="128" x2="256" y2="128"></line>
    <line x1="256" y1="0" x2="512" y2="256"></line>
    <line x1="512" y1="0" x2="256" y2="256"></line>
    <line x1="384" y1="0" x2="384" y2="256"></line>
    <line x1="256" y1="128" x2="512" y2="128"></line>
  </g>
<g transform="scale(1, -1) translate(0, -850)">
   <style type="text/css">
    @keyframes keyframes0 {
      from {
       stroke: black;
       stroke-dashoffset: 502;
       stroke-width: 128;
       }
       62% {
       animation-timing-function: step-end;
       stroke: black;
       stroke-dashoffset: 0;
       stroke-width: 128;
       }
       to {
       stroke: black;
       stroke-width: 1024;
       }
       }
       #make-me-a-hanzi-animation-0 {
         animation: keyframes0 0.658529s both;
         animation-delay: 0.000000s;
         animation-timing-function: linear;
       }
    @keyframes keyframes1 {
      from {
       stroke: black;
       stroke-dashoffset: 549;
       stroke-width: 128;
       }
       64% {
       animation-timing-function: step-end;
       stroke: black;
       stroke-dashoffset: 0;
       stroke-width: 128;
       }
       to {
       stroke: black;
       stroke-width: 1024;
       }
       }
       #make-me-a-hanzi-animation-1 {
         animation: keyframes1 0.696777s both;
         animation-delay: 0.658529s;
         animation-timing-function: linear;
       }
    @keyframes keyframes2 {
      from {
       stroke: black;
       stroke-dashoffset: 898;
       stroke-width: 128;
       }
       75% {
       animation-timing-function: step-end;
       stroke: black;
       stroke-dashoffset: 0;
       stroke-width: 128;
       }
       to {
       stroke: black;
       stroke-width: 1024;
       }
       }
       #make-me-a-hanzi-animation-2 {
         animation: keyframes2 0.980794s both;
         animation-delay: 1.355306s;
         animation-timing-function: linear;
       }
    @keyframes keyframes3 {
      from {
       stroke: black;
       stroke-dashoffset: 543;
       stroke-width: 128;
       }
       64% {
       animation-timing-function: step-end;
       stroke: black;
       stroke-dashoffset: 0;
       stroke-width: 128;
       }
       to {
       stroke: black;
       stroke-width: 1024;
       }
       }
       #make-me-a-hanzi-animation-3 {
         animation: keyframes3 0.691895s both;
         animation-delay: 2.336100s;
         animation-timing-function: linear;
       }
    @keyframes keyframes4 {
      from {
       stroke: black;
       stroke-dashoffset: 511;
       stroke-width: 128;
       }
       62% {
       animation-timing-function: step-end;
       stroke: black;
       stroke-dashoffset: 0;
       stroke-width: 128;
       }
       to {
       stroke: black;
       stroke-width: 1024;
       }
       }
       #make-me-a-hanzi-animation-4 {
         animation: keyframes4 0.665853s both;
         animation-delay: 3.027995s;
         animation-timing-function: linear;
       }
    @keyframes keyframes5 {
      from {
       stroke: black;
       stroke-dashoffset: 661;
       stroke-width: 128;
       }
       68% {
       animation-timing-function: step-end;
       stroke: black;
       stroke-dashoffset: 0;
       stroke-width: 128;
       }
       to {
       stroke: black;
       stroke-width: 1024;
       }
       }
       #make-me-a-hanzi-animation-5 {
         animation: keyframes5 0.787923s both;
         animation-delay: 3.693848s;
         animation-timing-function: linear;
       }
    @keyframes keyframes6 {
      from {
       stroke: black;
       stroke-dashoffset: 630;
       stroke-width: 128;
       }
       67% {
       animation-timing-function: step-end;
       stroke: black;
       stroke-dashoffset: 0;
       stroke-width: 128;
       }
       to {
       stroke: black;
       stroke-width: 1024;
       }
       }
       #make-me-a-hanzi-animation-6 {
         animation: keyframes6 0.762695s both;
         animation-delay: 4.481771s;
         animation-timing-function: linear;
       }
    @keyframes keyframes7 {
      from {
       stroke: black;
       stroke-dashoffset: 496;
       stroke-width: 128;
       }
       62% {
       animation-timing-function: step-end;
       stroke: black;
       stroke-dashoffset: 0;
       stroke-width: 128;
       }
       to {
       stroke: black;
       stroke-width: 1024;
       }
       }
       #make-me-a-hanzi-animation-7 {
         animation: keyframes7 0.653646s both;
         animation-delay: 5.244466s;
         animation-timing-function: linear;
       }
    @keyframes keyframes8 {
      from {
       stroke: black;
       stroke-dashoffset: 1000;
       stroke-width: 128;
       }
       76% {
       animation-timing-function: step-end;
       stroke: black;
       stroke-dashoffset: 0;
       stroke-width: 128;
       }
       to {
       stroke: black;
       stroke-width: 1024;
       }
       }
       #make-me-a-hanzi-animation-8 {
         animation: keyframes8 1.063802s both;
         animation-delay: 5.898112s;
         animation-timing-function: linear;
       }
    @keyframes keyframes9 {
      from {
       stroke: black;
       stroke-dashoffset: 904;
       stroke-width: 128;
       }
       75% {
       animation-timing-function: step-end;
       stroke: black;
       stroke-dashoffset: 0;
       stroke-width: 128;
       }
       to {
       stroke: black;
       stroke-width: 1024;
       }
       }
       #make-me-a-hanzi-animation-9 {
         animation: keyframes9 0.985677s both;
         animation-delay: 6.961914s;
         animation-timing-function: linear;
       }
    @keyframes keyframes10 {
      from {
       stroke: black;
       stroke-dashoffset: 495;
       stroke-width: 128;
       }
       62% {
       animation-timing-function: step-end;
       stroke: black;
       stroke-dashoffset: 0;
       stroke-width: 128;
       }
       to {
       stroke: black;
       stroke-width: 1024;
       }
       }
       #make-me-a-hanzi-animation-10 {
         animation: keyframes10 0.652832s both;
         animation-delay: 7.947591s;
         animation-timing-function: linear;
       }
    @keyframes keyframes11 {
      from {
       stroke: black;
       stroke-dashoffset: 1125;
       stroke-width: 128;
       }
       79% {
       animation-timing-function: step-end;
       stroke: black;
       stroke-dashoffset: 0;
       stroke-width: 128;
       }
       to {
       stroke: black;
       stroke-width: 1024;
       }
       }
       #make-me-a-hanzi-animation-11 {
         animation: keyframes11 1.165527s both;
         animation-delay: 8.600423s;
         animation-timing-function: linear;
       }
</style>
<path d="M 418.0 580.0 L 500.0 649.0 L 533.0 680.0 Q 546.0 693.0 556.0 699.0 L 572.0 709.0 Q 590.0 719.0 569.0 738.0 L 545.0 757.0 Q 508.0 775.0 500.0 774.0 Q 491.0 772.0 489.0 770.0 L 481.0 733.0 Q 437.0 639.0 378.0 576.0 C 358.0 554.0 395.0 561.0 418.0 580.0 Z" fill="lightgray"></path> 
<path d="M 338.0 571.0 L 304.0 583.0 Q 285.0 588.0 268.0 582.0 Q 254.0 574.0 273.0 558.0 Q 284.0 547.0 290.0 537.0 Q 295.0 526.0 305.0 477.0 L 320.0 364.0 Q 325.0 316.0 344.0 301.0 Q 355.0 289.0 364.0 303.0 L 368.0 314.0 L 370.0 345.0 L 366.0 425.0 L 360.0 460.0 L 355.0 499.0 L 351.0 547.0 C 349.0 567.0 349.0 567.0 338.0 571.0 Z" fill="lightgray"></path> 
<path d="M 626.0 335.0 L 633.0 317.0 Q 639.0 297.0 663.0 310.0 Q 675.0 316.0 678.0 325.0 Q 681.0 334.0 692.0 361.0 L 732.0 503.0 Q 736.0 529.0 753.0 556.0 L 766.0 573.0 Q 770.0 583.0 769.0 587.0 Q 768.0 595.0 752.0 604.0 Q 739.0 613.0 716.0 622.0 Q 692.0 631.0 680.0 632.0 Q 662.0 636.0 650.0 636.0 Q 637.0 636.0 606.0 625.0 L 546.0 607.0 Q 514.0 597.0 500.0 595.0 L 418.0 580.0 L 378.0 576.0 L 338.0 571.0 C 308.0 567.0 321.0 546.0 351.0 547.0 L 385.0 548.0 Q 385.0 549.0 400.0 551.0 L 418.0 553.0 Q 451.0 557.0 456.0 559.0 L 636.0 593.0 Q 644.0 593.0 650.0 589.0 Q 655.0 585.0 656.0 581.0 L 659.0 571.0 L 656.0 493.0 L 652.0 469.0 L 646.0 441.0 Q 643.0 420.0 636.0 400.0 L 629.0 367.0 L 626.0 335.0 Z" fill="lightgray"></path> 
<path d="M 502.0 485.0 L 360.0 460.0 C 330.0 455.0 336.0 427.0 366.0 425.0 L 382.0 424.0 Q 387.0 422.0 412.0 427.0 L 465.0 435.0 Q 466.0 434.0 528.0 446.0 L 652.0 469.0 C 681.0 474.0 684.0 483.0 656.0 493.0 L 642.0 498.0 Q 610.0 509.0 567.0 499.0 Q 523.0 489.0 502.0 485.0 Z" fill="lightgray"></path> 
<path d="M 385.0 311.0 L 473.0 321.0 L 607.0 333.0 Q 620.0 333.0 626.0 335.0 C 655.0 341.0 658.0 358.0 629.0 367.0 Q 603.0 376.0 583.0 373.0 Q 562.0 369.0 515.0 363.0 L 462.0 355.0 L 370.0 345.0 C 340.0 342.0 338.0 319.0 368.0 314.0 L 385.0 311.0 Z" fill="lightgray"></path> 
<path d="M 529.0 211.0 L 630.0 222.0 L 690.0 231.0 Q 708.0 232.0 709.0 237.0 Q 712.0 252.0 658.0 273.0 L 642.0 275.0 Q 641.0 276.0 621.0 271.0 L 599.0 264.0 Q 589.0 261.0 568.0 259.0 Q 523.0 251.0 455.0 246.0 L 390.0 240.0 Q 359.0 236.0 338.0 236.0 L 306.0 235.0 Q 294.0 235.0 291.0 228.0 Q 287.0 220.0 298.0 212.0 Q 309.0 204.0 328.0 201.0 L 364.0 199.0 L 470.0 206.0 L 529.0 211.0 Z" fill="lightgray"></path> 
<path d="M 525.0 71.0 L 652.0 82.0 L 678.0 87.0 Q 695.0 91.0 697.0 98.0 Q 702.0 113.0 663.0 123.0 Q 644.0 127.0 634.0 127.0 Q 623.0 127.0 600.0 123.0 Q 576.0 118.0 548.0 116.0 L 524.0 114.0 L 470.0 107.0 L 328.0 93.0 Q 318.0 92.0 314.0 88.0 L 308.0 81.0 Q 308.0 77.0 321.0 67.0 Q 334.0 57.0 357.0 57.0 Q 379.0 57.0 435.0 63.0 L 470.0 65.0 L 525.0 71.0 Z" fill="lightgray"></path> 
<path d="M 524.0 -22.0 L 525.0 71.0 L 524.0 114.0 L 529.0 211.0 C 531.0 241.0 470.0 236.0 470.0 206.0 L 470.0 107.0 L 470.0 65.0 L 468.0 -25.0 C 467.0 -55.0 524.0 -52.0 524.0 -22.0 Z" fill="lightgray"></path> 
<path d="M 240.0 -42.0 L 148.0 -46.0 Q 132.0 -48.0 130.0 -53.0 Q 129.0 -59.0 141.0 -71.0 Q 151.0 -80.0 174.0 -89.0 Q 196.0 -99.0 209.0 -99.0 Q 221.0 -99.0 244.0 -93.0 L 341.0 -79.0 Q 410.0 -70.0 524.0 -67.0 L 626.0 -63.0 Q 636.0 -64.0 726.0 -59.0 L 858.0 -58.0 Q 878.0 -58.0 882.0 -55.0 Q 895.0 -43.0 875.0 -26.0 Q 846.0 -4.0 795.0 2.0 L 524.0 -22.0 L 468.0 -25.0 L 306.0 -39.0 Q 283.0 -41.0 240.0 -42.0 Z" fill="lightgray"></path> 
<path d="M 1462.0 631.5 L 1468.0 540.5 Q 1469.0 527.5 1469.0 486.5 L 1467.0 67.5 C 1467.0 37.5 1524.0 43.5 1525.0 73.5 L 1533.0 382.5 L 1533.0 412.5 L 1536.0 498.5 Q 1537.0 516.5 1537.0 542.5 L 1541.0 574.5 L 1548.0 610.5 L 1563.0 646.5 Q 1563.0 664.5 1531.0 679.5 L 1490.0 696.5 Q 1482.0 699.5 1463.0 703.5 Q 1443.0 706.5 1443.0 693.5 Q 1443.0 688.5 1445.0 680.5 L 1453.0 661.5 Q 1460.0 645.5 1462.0 631.5 Z" fill="lightgray"></path> 
<path d="M 1533.0 382.5 L 1567.0 379.5 Q 1570.0 378.5 1607.0 380.5 L 1758.0 403.5 Q 1787.0 407.5 1788.0 423.5 Q 1789.0 428.5 1781.0 436.5 Q 1772.0 444.5 1756.0 449.5 Q 1722.0 462.5 1704.0 453.5 L 1673.0 443.5 Q 1642.0 433.5 1625.0 431.5 L 1533.0 412.5 C 1504.0 406.5 1503.0 385.5 1533.0 382.5 Z" fill="lightgray"></path> 
<path d="M 1467.0 67.5 L 1178.0 39.5 L 1104.0 34.5 Q 1098.0 34.5 1096.0 29.5 Q 1094.0 24.5 1102.0 15.5 Q 1107.0 6.5 1124.0 -4.5 Q 1140.0 -16.5 1152.0 -22.5 Q 1174.0 -30.5 1180.0 -29.5 Q 1185.0 -29.5 1211.0 -20.5 Q 1237.0 -11.5 1275.0 -7.5 L 1422.0 12.5 L 1581.0 24.5 Q 1656.0 26.5 1677.0 30.5 Q 1725.0 40.5 1909.0 32.5 L 1936.0 31.5 Q 1948.0 30.5 1965.0 32.5 Q 1972.0 35.5 1975.0 41.5 Q 1978.0 46.5 1966.0 62.5 Q 1954.0 78.5 1943.0 83.5 Q 1932.0 92.5 1911.0 100.5 Q 1889.0 108.5 1883.0 108.5 Q 1876.0 108.5 1864.0 105.5 Q 1851.0 101.5 1829.0 99.5 L 1758.0 92.5 L 1525.0 73.5 L 1467.0 67.5 Z" fill="lightgray"></path> 
      <clipPath id="make-me-a-hanzi-clip-0">
      <path d="M 418.0 580.0 L 500.0 649.0 L 533.0 680.0 Q 546.0 693.0 556.0 699.0 L 572.0 709.0 Q 590.0 719.0 569.0 738.0 L 545.0 757.0 Q 508.0 775.0 500.0 774.0 Q 491.0 772.0 489.0 770.0 L 481.0 733.0 Q 437.0 639.0 378.0 576.0 C 358.0 554.0 395.0 561.0 418.0 580.0 Z" fill="lightgray"></path>
      </clipPath>
      <path clip-path="url(#make-me-a-hanzi-clip-0)" d="M 498.0 762.0 L 521.0 724.0 L 486.0 675.0 L 424.0 606.0 L 410.0 592.0 L 384.0 580.0 " fill="none" id="make-me-a-hanzi-animation-0" stroke-dasharray="374 748" stroke-linecap="round"></path>

      <clipPath id="make-me-a-hanzi-clip-1">
      <path d="M 338.0 571.0 L 304.0 583.0 Q 285.0 588.0 268.0 582.0 Q 254.0 574.0 273.0 558.0 Q 284.0 547.0 290.0 537.0 Q 295.0 526.0 305.0 477.0 L 320.0 364.0 Q 325.0 316.0 344.0 301.0 Q 355.0 289.0 364.0 303.0 L 368.0 314.0 L 370.0 345.0 L 366.0 425.0 L 360.0 460.0 L 355.0 499.0 L 351.0 547.0 C 349.0 567.0 349.0 567.0 338.0 571.0 Z" fill="lightgray"></path>
      </clipPath>
      <path clip-path="url(#make-me-a-hanzi-clip-1)" d="M 275.0 571.0 L 302.0 560.0 L 322.0 539.0 L 354.0 306.0 " fill="none" id="make-me-a-hanzi-animation-1" stroke-dasharray="421 842" stroke-linecap="round"></path>

      <clipPath id="make-me-a-hanzi-clip-2">
      <path d="M 626.0 335.0 L 633.0 317.0 Q 639.0 297.0 663.0 310.0 Q 675.0 316.0 678.0 325.0 Q 681.0 334.0 692.0 361.0 L 732.0 503.0 Q 736.0 529.0 753.0 556.0 L 766.0 573.0 Q 770.0 583.0 769.0 587.0 Q 768.0 595.0 752.0 604.0 Q 739.0 613.0 716.0 622.0 Q 692.0 631.0 680.0 632.0 Q 662.0 636.0 650.0 636.0 Q 637.0 636.0 606.0 625.0 L 546.0 607.0 Q 514.0 597.0 500.0 595.0 L 418.0 580.0 L 378.0 576.0 L 338.0 571.0 C 308.0 567.0 321.0 546.0 351.0 547.0 L 385.0 548.0 Q 385.0 549.0 400.0 551.0 L 418.0 553.0 Q 451.0 557.0 456.0 559.0 L 636.0 593.0 Q 644.0 593.0 650.0 589.0 Q 655.0 585.0 656.0 581.0 L 659.0 571.0 L 656.0 493.0 L 652.0 469.0 L 646.0 441.0 Q 643.0 420.0 636.0 400.0 L 629.0 367.0 L 626.0 335.0 Z" fill="lightgray"></path>
      </clipPath>
      <path clip-path="url(#make-me-a-hanzi-clip-2)" d="M 345.0 567.0 L 368.0 560.0 L 461.0 573.0 L 637.0 614.0 L 655.0 613.0 L 680.0 601.0 L 708.0 573.0 L 650.0 322.0 " fill="none" id="make-me-a-hanzi-animation-2" stroke-dasharray="770 1540" stroke-linecap="round"></path>

      <clipPath id="make-me-a-hanzi-clip-3">
      <path d="M 502.0 485.0 L 360.0 460.0 C 330.0 455.0 336.0 427.0 366.0 425.0 L 382.0 424.0 Q 387.0 422.0 412.0 427.0 L 465.0 435.0 Q 466.0 434.0 528.0 446.0 L 652.0 469.0 C 681.0 474.0 684.0 483.0 656.0 493.0 L 642.0 498.0 Q 610.0 509.0 567.0 499.0 Q 523.0 489.0 502.0 485.0 Z" fill="lightgray"></path>
      </clipPath>
      <path clip-path="url(#make-me-a-hanzi-clip-3)" d="M 368.0 455.0 L 380.0 445.0 L 399.0 445.0 L 594.0 481.0 L 638.0 482.0 L 646.0 488.0 " fill="none" id="make-me-a-hanzi-animation-3" stroke-dasharray="415 830" stroke-linecap="round"></path>

      <clipPath id="make-me-a-hanzi-clip-4">
      <path d="M 385.0 311.0 L 473.0 321.0 L 607.0 333.0 Q 620.0 333.0 626.0 335.0 C 655.0 341.0 658.0 358.0 629.0 367.0 Q 603.0 376.0 583.0 373.0 Q 562.0 369.0 515.0 363.0 L 462.0 355.0 L 370.0 345.0 C 340.0 342.0 338.0 319.0 368.0 314.0 L 385.0 311.0 Z" fill="lightgray"></path>
      </clipPath>
      <path clip-path="url(#make-me-a-hanzi-clip-4)" d="M 374.0 321.0 L 395.0 331.0 L 591.0 353.0 L 609.0 352.0 L 621.0 341.0 " fill="none" id="make-me-a-hanzi-animation-4" stroke-dasharray="383 766" stroke-linecap="round"></path>

      <clipPath id="make-me-a-hanzi-clip-5">
      <path d="M 529.0 211.0 L 630.0 222.0 L 690.0 231.0 Q 708.0 232.0 709.0 237.0 Q 712.0 252.0 658.0 273.0 L 642.0 275.0 Q 641.0 276.0 621.0 271.0 L 599.0 264.0 Q 589.0 261.0 568.0 259.0 Q 523.0 251.0 455.0 246.0 L 390.0 240.0 Q 359.0 236.0 338.0 236.0 L 306.0 235.0 Q 294.0 235.0 291.0 228.0 Q 287.0 220.0 298.0 212.0 Q 309.0 204.0 328.0 201.0 L 364.0 199.0 L 470.0 206.0 L 529.0 211.0 Z" fill="lightgray"></path>
      </clipPath>
      <path clip-path="url(#make-me-a-hanzi-clip-5)" d="M 301.0 224.0 L 370.0 218.0 L 520.0 230.0 L 662.0 250.0 L 703.0 240.0 " fill="none" id="make-me-a-hanzi-animation-5" stroke-dasharray="533 1066" stroke-linecap="round"></path>

      <clipPath id="make-me-a-hanzi-clip-6">
      <path d="M 525.0 71.0 L 652.0 82.0 L 678.0 87.0 Q 695.0 91.0 697.0 98.0 Q 702.0 113.0 663.0 123.0 Q 644.0 127.0 634.0 127.0 Q 623.0 127.0 600.0 123.0 Q 576.0 118.0 548.0 116.0 L 524.0 114.0 L 470.0 107.0 L 328.0 93.0 Q 318.0 92.0 314.0 88.0 L 308.0 81.0 Q 308.0 77.0 321.0 67.0 Q 334.0 57.0 357.0 57.0 Q 379.0 57.0 435.0 63.0 L 470.0 65.0 L 525.0 71.0 Z" fill="lightgray"></path>
      </clipPath>
      <path clip-path="url(#make-me-a-hanzi-clip-6)" d="M 315.0 81.0 L 362.0 76.0 L 631.0 104.0 L 687.0 101.0 " fill="none" id="make-me-a-hanzi-animation-6" stroke-dasharray="502 1004" stroke-linecap="round"></path>

      <clipPath id="make-me-a-hanzi-clip-7">
      <path d="M 524.0 -22.0 L 525.0 71.0 L 524.0 114.0 L 529.0 211.0 C 531.0 241.0 470.0 236.0 470.0 206.0 L 470.0 107.0 L 470.0 65.0 L 468.0 -25.0 C 467.0 -55.0 524.0 -52.0 524.0 -22.0 Z" fill="lightgray"></path>
      </clipPath>
      <path clip-path="url(#make-me-a-hanzi-clip-7)" d="M 522.0 204.0 L 499.0 178.0 L 497.0 5.0 L 475.0 -18.0 " fill="none" id="make-me-a-hanzi-animation-7" stroke-dasharray="368 736" stroke-linecap="round"></path>

      <clipPath id="make-me-a-hanzi-clip-8">
      <path d="M 240.0 -42.0 L 148.0 -46.0 Q 132.0 -48.0 130.0 -53.0 Q 129.0 -59.0 141.0 -71.0 Q 151.0 -80.0 174.0 -89.0 Q 196.0 -99.0 209.0 -99.0 Q 221.0 -99.0 244.0 -93.0 L 341.0 -79.0 Q 410.0 -70.0 524.0 -67.0 L 626.0 -63.0 Q 636.0 -64.0 726.0 -59.0 L 858.0 -58.0 Q 878.0 -58.0 882.0 -55.0 Q 895.0 -43.0 875.0 -26.0 Q 846.0 -4.0 795.0 2.0 L 524.0 -22.0 L 468.0 -25.0 L 306.0 -39.0 Q 283.0 -41.0 240.0 -42.0 Z" fill="lightgray"></path>
      </clipPath>
      <path clip-path="url(#make-me-a-hanzi-clip-8)" d="M 136.0 -55.0 L 212.0 -71.0 L 389.0 -52.0 L 790.0 -28.0 L 826.0 -31.0 L 875.0 -45.0 " fill="none" id="make-me-a-hanzi-animation-8" stroke-dasharray="872 1744" stroke-linecap="round"></path>

      <clipPath id="make-me-a-hanzi-clip-9">
      <path d="M 1462.0 631.5 L 1468.0 540.5 Q 1469.0 527.5 1469.0 486.5 L 1467.0 67.5 C 1467.0 37.5 1524.0 43.5 1525.0 73.5 L 1533.0 382.5 L 1533.0 412.5 L 1536.0 498.5 Q 1537.0 516.5 1537.0 542.5 L 1541.0 574.5 L 1548.0 610.5 L 1563.0 646.5 Q 1563.0 664.5 1531.0 679.5 L 1490.0 696.5 Q 1482.0 699.5 1463.0 703.5 Q 1443.0 706.5 1443.0 693.5 Q 1443.0 688.5 1445.0 680.5 L 1453.0 661.5 Q 1460.0 645.5 1462.0 631.5 Z" fill="lightgray"></path>
      </clipPath>
      <path clip-path="url(#make-me-a-hanzi-clip-9)" d="M 1456.0 692.5 L 1509.0 638.5 L 1502.0 550.5 L 1497.0 100.5 L 1474.0 75.5 " fill="none" id="make-me-a-hanzi-animation-9" stroke-dasharray="776 1552" stroke-linecap="round"></path>

      <clipPath id="make-me-a-hanzi-clip-10">
      <path d="M 1533.0 382.5 L 1567.0 379.5 Q 1570.0 378.5 1607.0 380.5 L 1758.0 403.5 Q 1787.0 407.5 1788.0 423.5 Q 1789.0 428.5 1781.0 436.5 Q 1772.0 444.5 1756.0 449.5 Q 1722.0 462.5 1704.0 453.5 L 1673.0 443.5 Q 1642.0 433.5 1625.0 431.5 L 1533.0 412.5 C 1504.0 406.5 1503.0 385.5 1533.0 382.5 Z" fill="lightgray"></path>
      </clipPath>
      <path clip-path="url(#make-me-a-hanzi-clip-10)" d="M 1539.0 390.5 L 1551.0 398.5 L 1626.0 406.5 L 1721.0 427.5 L 1773.0 423.5 " fill="none" id="make-me-a-hanzi-animation-10" stroke-dasharray="367 734" stroke-linecap="round"></path>

      <clipPath id="make-me-a-hanzi-clip-11">
      <path d="M 1467.0 67.5 L 1178.0 39.5 L 1104.0 34.5 Q 1098.0 34.5 1096.0 29.5 Q 1094.0 24.5 1102.0 15.5 Q 1107.0 6.5 1124.0 -4.5 Q 1140.0 -16.5 1152.0 -22.5 Q 1174.0 -30.5 1180.0 -29.5 Q 1185.0 -29.5 1211.0 -20.5 Q 1237.0 -11.5 1275.0 -7.5 L 1422.0 12.5 L 1581.0 24.5 Q 1656.0 26.5 1677.0 30.5 Q 1725.0 40.5 1909.0 32.5 L 1936.0 31.5 Q 1948.0 30.5 1965.0 32.5 Q 1972.0 35.5 1975.0 41.5 Q 1978.0 46.5 1966.0 62.5 Q 1954.0 78.5 1943.0 83.5 Q 1932.0 92.5 1911.0 100.5 Q 1889.0 108.5 1883.0 108.5 Q 1876.0 108.5 1864.0 105.5 Q 1851.0 101.5 1829.0 99.5 L 1758.0 92.5 L 1525.0 73.5 L 1467.0 67.5 Z" fill="lightgray"></path>
      </clipPath>
      <path clip-path="url(#make-me-a-hanzi-clip-11)" d="M 1104.0 24.5 L 1178.0 5.5 L 1416.0 37.5 L 1881.0 70.5 L 1922.0 62.5 L 1963.0 44.5 " fill="none" id="make-me-a-hanzi-animation-11" stroke-dasharray="997 1994" stroke-linecap="round"></path>

</g>
</svg>
