<svg version="1.1" viewBox="0 0 2048 1024" xmlns="http://www.w3.org/2000/svg">
  <g stroke="lightgray" stroke-dasharray="1,1" stroke-width="1" transform="scale(4, 4)">
    <line x1="0" y1="0" x2="256" y2="256"></line>
    <line x1="256" y1="0" x2="0" y2="256"></line>
    <line x1="128" y1="0" x2="128" y2="256"></line>
    <line x1="0" y1="128" x2="256" y2="128"></line>
    <line x1="256" y1="0" x2="512" y2="256"></line>
    <line x1="512" y1="0" x2="256" y2="256"></line>
    <line x1="384" y1="0" x2="384" y2="256"></line>
    <line x1="256" y1="128" x2="512" y2="128"></line>
  </g>
<g transform="scale(1, -1) translate(0, -850)">
   <style type="text/css">
    @keyframes keyframes0 {
      from {
       stroke: black;
       stroke-dashoffset: 882;
       stroke-width: 128;
       }
       74% {
       animation-timing-function: step-end;
       stroke: black;
       stroke-dashoffset: 0;
       stroke-width: 128;
       }
       to {
       stroke: black;
       stroke-width: 1024;
       }
       }
       #make-me-a-hanzi-animation-0 {
         animation: keyframes0 0.967773s both;
         animation-delay: 0.000000s;
         animation-timing-function: linear;
       }
    @keyframes keyframes1 {
      from {
       stroke: black;
       stroke-dashoffset: 1228;
       stroke-width: 128;
       }
       80% {
       animation-timing-function: step-end;
       stroke: black;
       stroke-dashoffset: 0;
       stroke-width: 128;
       }
       to {
       stroke: black;
       stroke-width: 1024;
       }
       }
       #make-me-a-hanzi-animation-1 {
         animation: keyframes1 1.249349s both;
         animation-delay: 0.967773s;
         animation-timing-function: linear;
       }
    @keyframes keyframes2 {
      from {
       stroke: black;
       stroke-dashoffset: 553;
       stroke-width: 128;
       }
       64% {
       animation-timing-function: step-end;
       stroke: black;
       stroke-dashoffset: 0;
       stroke-width: 128;
       }
       to {
       stroke: black;
       stroke-width: 1024;
       }
       }
       #make-me-a-hanzi-animation-2 {
         animation: keyframes2 0.700033s both;
         animation-delay: 2.217122s;
         animation-timing-function: linear;
       }
    @keyframes keyframes3 {
      from {
       stroke: black;
       stroke-dashoffset: 560;
       stroke-width: 128;
       }
       65% {
       animation-timing-function: step-end;
       stroke: black;
       stroke-dashoffset: 0;
       stroke-width: 128;
       }
       to {
       stroke: black;
       stroke-width: 1024;
       }
       }
       #make-me-a-hanzi-animation-3 {
         animation: keyframes3 0.705729s both;
         animation-delay: 2.917155s;
         animation-timing-function: linear;
       }
    @keyframes keyframes4 {
      from {
       stroke: black;
       stroke-dashoffset: 567;
       stroke-width: 128;
       }
       65% {
       animation-timing-function: step-end;
       stroke: black;
       stroke-dashoffset: 0;
       stroke-width: 128;
       }
       to {
       stroke: black;
       stroke-width: 1024;
       }
       }
       #make-me-a-hanzi-animation-4 {
         animation: keyframes4 0.711426s both;
         animation-delay: 3.622884s;
         animation-timing-function: linear;
       }
    @keyframes keyframes5 {
      from {
       stroke: black;
       stroke-dashoffset: 651;
       stroke-width: 128;
       }
       68% {
       animation-timing-function: step-end;
       stroke: black;
       stroke-dashoffset: 0;
       stroke-width: 128;
       }
       to {
       stroke: black;
       stroke-width: 1024;
       }
       }
       #make-me-a-hanzi-animation-5 {
         animation: keyframes5 0.779785s both;
         animation-delay: 4.334310s;
         animation-timing-function: linear;
       }
    @keyframes keyframes6 {
      from {
       stroke: black;
       stroke-dashoffset: 389;
       stroke-width: 128;
       }
       56% {
       animation-timing-function: step-end;
       stroke: black;
       stroke-dashoffset: 0;
       stroke-width: 128;
       }
       to {
       stroke: black;
       stroke-width: 1024;
       }
       }
       #make-me-a-hanzi-animation-6 {
         animation: keyframes6 0.566569s both;
         animation-delay: 5.114095s;
         animation-timing-function: linear;
       }
    @keyframes keyframes7 {
      from {
       stroke: black;
       stroke-dashoffset: 492;
       stroke-width: 128;
       }
       62% {
       animation-timing-function: step-end;
       stroke: black;
       stroke-dashoffset: 0;
       stroke-width: 128;
       }
       to {
       stroke: black;
       stroke-width: 1024;
       }
       }
       #make-me-a-hanzi-animation-7 {
         animation: keyframes7 0.650391s both;
         animation-delay: 5.680664s;
         animation-timing-function: linear;
       }
    @keyframes keyframes8 {
      from {
       stroke: black;
       stroke-dashoffset: 940;
       stroke-width: 128;
       }
       75% {
       animation-timing-function: step-end;
       stroke: black;
       stroke-dashoffset: 0;
       stroke-width: 128;
       }
       to {
       stroke: black;
       stroke-width: 1024;
       }
       }
       #make-me-a-hanzi-animation-8 {
         animation: keyframes8 1.014974s both;
         animation-delay: 6.331055s;
         animation-timing-function: linear;
       }
    @keyframes keyframes9 {
      from {
       stroke: black;
       stroke-dashoffset: 743;
       stroke-width: 128;
       }
       71% {
       animation-timing-function: step-end;
       stroke: black;
       stroke-dashoffset: 0;
       stroke-width: 128;
       }
       to {
       stroke: black;
       stroke-width: 1024;
       }
       }
       #make-me-a-hanzi-animation-9 {
         animation: keyframes9 0.854655s both;
         animation-delay: 7.346029s;
         animation-timing-function: linear;
       }
    @keyframes keyframes10 {
      from {
       stroke: black;
       stroke-dashoffset: 1157;
       stroke-width: 128;
       }
       79% {
       animation-timing-function: step-end;
       stroke: black;
       stroke-dashoffset: 0;
       stroke-width: 128;
       }
       to {
       stroke: black;
       stroke-width: 1024;
       }
       }
       #make-me-a-hanzi-animation-10 {
         animation: keyframes10 1.191569s both;
         animation-delay: 8.200684s;
         animation-timing-function: linear;
       }
</style>
<path d="M 355 530 L 330 532 L 304 536 Q 294 538 288 533 Q 271 523 290 504 L 302 485 Q 305 466 306 452 L 308 429 L 308 385 L 302 155 Q 302 144 296 95 Q 290 46 282 16 Q 274 -14 284 -37 Q 292 -66 313 -87 Q 320 -97 326 -95 Q 333 -94 334 -82 L 340 -59 L 344 -16 L 355 145 L 357 177 L 361 310 L 362 343 L 367 496 C 368 526 368 529 355 530 Z" fill="lightgray"></path> 
<path d="M 734 544 Q 722 557 696 572 Q 671 586 662 587 Q 653 587 632 582 Q 544 557 485 549 L 355 530 C 325 526 337 492 367 496 L 399 500 Q 416 499 470 513 L 489 518 L 553 525 Q 579 528 588 528 L 622 526 Q 645 526 649 522 Q 662 515 662 471 L 663 374 L 662 340 L 662 206 L 662 170 L 656 63 L 654 4 C 653 -26 615 -12 630 -38 L 645 -64 L 654 -88 Q 660 -109 671 -110 Q 675 -111 687 -106 Q 706 -98 727 -52 Q 735 -29 736 -9 Q 737 10 732 53 Q 728 96 723 162 Q 719 228 720 246 L 724 421 Q 724 441 729 479 Q 734 497 737 503 Q 748 523 734 544 Z" fill="lightgray"></path> 
<path d="M 361 310 L 382 307 Q 386 306 413 309 L 484 317 Q 531 320 569 326 L 662 340 C 692 344 691 365 663 374 L 645 380 Q 634 385 614 383 L 574 376 Q 561 371 525 366 L 362 343 C 332 339 331 314 361 310 Z" fill="lightgray"></path> 
<path d="M 355 145 L 372 142 Q 383 140 440 146 L 598 164 Q 616 165 662 170 C 692 173 691 197 662 206 L 649 210 Q 636 214 614 214 Q 601 212 569 205 Q 537 198 408 182 L 357 177 C 327 174 325 150 355 145 Z" fill="lightgray"></path> 
<path d="M 340 -59 L 380 -59 L 438 -53 Q 444 -52 490 -50 Q 536 -49 548 -46 L 630 -38 C 660 -35 683 -4 654 4 L 635 9 Q 624 13 564 6 Q 505 -2 472 -5 L 412 -11 Q 389 -14 344 -16 C 314 -17 310 -59 340 -59 Z" fill="lightgray"></path> 
<path d="M 1518 280 L 1523 429 L 1529 514 Q 1530 528 1534 555 Q 1539 582 1545 594 L 1552 608 Q 1553 614 1552 621 Q 1549 626 1541 634 Q 1531 643 1521 646 L 1471 659 Q 1457 661 1450 657 Q 1443 652 1442 650 L 1444 638 L 1454 613 Q 1465 568 1465 543 Q 1466 518 1465 486 L 1462 276 C 1462 246 1517 250 1518 280 Z" fill="lightgray"></path> 
<path d="M 1395 397 Q 1395 410 1390 424 Q 1384 435 1374 444 Q 1365 453 1344 460 L 1302 474 L 1285 478 Q 1272 481 1269 479 Q 1266 476 1266 471 Q 1266 466 1268 464 L 1317 386 Q 1339 352 1362 352 Q 1398 352 1395 397 Z" fill="lightgray"></path> 
<path d="M 1619 448 L 1568 401 Q 1560 393 1564 391 Q 1564 388 1573 390 L 1597 398 Q 1599 398 1623 408 L 1777 469 Q 1792 474 1784 490 Q 1776 505 1766 511 L 1715 548 Q 1698 551 1695 547 Q 1692 543 1685 530 Q 1679 516 1657 491 L 1619 448 Z" fill="lightgray"></path> 
<path d="M 1564 246 L 1748 246 L 1811 248 Q 1843 249 1847 264 Q 1848 270 1831 282 L 1806 295 Q 1792 301 1777 304 Q 1755 310 1747 310 Q 1739 310 1712 302 Q 1686 294 1643 292 L 1518 280 L 1462 276 L 1325 259 Q 1256 250 1222 250 L 1186 248 Q 1182 248 1167 246 Q 1153 244 1152 241 Q 1149 230 1180 213 Q 1211 196 1222 196 Q 1234 196 1253 200 L 1364 222 L 1422 233 L 1500 240 L 1564 246 Z" fill="lightgray"></path> 
<path d="M 1364 222 L 1363 199 Q 1363 185 1321 92 Q 1311 74 1285 38 Q 1262 1 1241 -20 Q 1182 -83 1131 -123 L 1112 -135 Q 1104 -140 1107 -146 Q 1111 -153 1117 -150 L 1131 -146 Q 1186 -129 1217 -106 Q 1248 -84 1278 -58 Q 1328 -7 1367 59 L 1419 147 Q 1432 170 1442 182 Q 1452 193 1448 203 L 1438 216 Q 1428 222 1422 233 C 1403 257 1365 252 1364 222 Z" fill="lightgray"></path> 
<path d="M 1513 187 L 1515 148 L 1513 5 Q 1512 -32 1524 -69 Q 1537 -106 1560 -129 Q 1583 -152 1620 -167 Q 1658 -182 1729 -182 Q 1881 -182 1937 -126 Q 1950 -113 1954 -105 Q 1958 -98 1962 -88 L 1960 -80 L 1940 -33 Q 1934 -18 1927 16 L 1913 87 Q 1911 95 1906 97 Q 1901 99 1899 85 L 1892 43 Q 1884 9 1883 -1 Q 1882 -12 1873 -36 Q 1864 -60 1853 -73 Q 1843 -86 1820 -95 Q 1800 -105 1749 -109 Q 1698 -113 1647 -101 Q 1596 -90 1579 -46 Q 1569 -26 1569 16 L 1575 99 Q 1577 127 1599 191 L 1605 205 Q 1605 213 1599 220 Q 1589 229 1583 232 Q 1581 236 1564 246 C 1540 263 1491 269 1500 240 L 1506 223 Q 1510 212 1513 187 Z" fill="lightgray"></path> 
      <clipPath id="make-me-a-hanzi-clip-0">
      <path d="M 355 530 L 330 532 L 304 536 Q 294 538 288 533 Q 271 523 290 504 L 302 485 Q 305 466 306 452 L 308 429 L 308 385 L 302 155 Q 302 144 296 95 Q 290 46 282 16 Q 274 -14 284 -37 Q 292 -66 313 -87 Q 320 -97 326 -95 Q 333 -94 334 -82 L 340 -59 L 344 -16 L 355 145 L 357 177 L 361 310 L 362 343 L 367 496 C 368 526 368 529 355 530 Z" fill="lightgray"></path>
      </clipPath>
      <path clip-path="url(#make-me-a-hanzi-clip-0)" d="M 296 519 L 331 499 L 335 489 L 331 185 L 311 -15 L 324 -84 " fill="none" id="make-me-a-hanzi-animation-0" stroke-dasharray="754 1508" stroke-linecap="round"></path>

      <clipPath id="make-me-a-hanzi-clip-1">
      <path d="M 734 544 Q 722 557 696 572 Q 671 586 662 587 Q 653 587 632 582 Q 544 557 485 549 L 355 530 C 325 526 337 492 367 496 L 399 500 Q 416 499 470 513 L 489 518 L 553 525 Q 579 528 588 528 L 622 526 Q 645 526 649 522 Q 662 515 662 471 L 663 374 L 662 340 L 662 206 L 662 170 L 656 63 L 654 4 C 653 -26 615 -12 630 -38 L 645 -64 L 654 -88 Q 660 -109 671 -110 Q 675 -111 687 -106 Q 706 -98 727 -52 Q 735 -29 736 -9 Q 737 10 732 53 Q 728 96 723 162 Q 719 228 720 246 L 724 421 Q 724 441 729 479 Q 734 497 737 503 Q 748 523 734 544 Z" fill="lightgray"></path>
      </clipPath>
      <path clip-path="url(#make-me-a-hanzi-clip-1)" d="M 363 526 L 381 516 L 403 518 L 647 555 L 673 547 L 698 520 L 690 228 L 695 -3 L 673 -96 " fill="none" id="make-me-a-hanzi-animation-1" stroke-dasharray="1100 2200" stroke-linecap="round"></path>

      <clipPath id="make-me-a-hanzi-clip-2">
      <path d="M 361 310 L 382 307 Q 386 306 413 309 L 484 317 Q 531 320 569 326 L 662 340 C 692 344 691 365 663 374 L 645 380 Q 634 385 614 383 L 574 376 Q 561 371 525 366 L 362 343 C 332 339 331 314 361 310 Z" fill="lightgray"></path>
      </clipPath>
      <path clip-path="url(#make-me-a-hanzi-clip-2)" d="M 367 315 L 387 327 L 641 359 L 656 369 " fill="none" id="make-me-a-hanzi-animation-2" stroke-dasharray="425 850" stroke-linecap="round"></path>

      <clipPath id="make-me-a-hanzi-clip-3">
      <path d="M 355 145 L 372 142 Q 383 140 440 146 L 598 164 Q 616 165 662 170 C 692 173 691 197 662 206 L 649 210 Q 636 214 614 214 Q 601 212 569 205 Q 537 198 408 182 L 357 177 C 327 174 325 150 355 145 Z" fill="lightgray"></path>
      </clipPath>
      <path clip-path="url(#make-me-a-hanzi-clip-3)" d="M 360 150 L 378 161 L 620 190 L 639 190 L 653 176 " fill="none" id="make-me-a-hanzi-animation-3" stroke-dasharray="432 864" stroke-linecap="round"></path>

      <clipPath id="make-me-a-hanzi-clip-4">
      <path d="M 340 -59 L 380 -59 L 438 -53 Q 444 -52 490 -50 Q 536 -49 548 -46 L 630 -38 C 660 -35 683 -4 654 4 L 635 9 Q 624 13 564 6 Q 505 -2 472 -5 L 412 -11 Q 389 -14 344 -16 C 314 -17 310 -59 340 -59 Z" fill="lightgray"></path>
      </clipPath>
      <path clip-path="url(#make-me-a-hanzi-clip-4)" d="M 347 -52 L 364 -37 L 607 -16 L 648 0 " fill="none" id="make-me-a-hanzi-animation-4" stroke-dasharray="439 878" stroke-linecap="round"></path>

      <clipPath id="make-me-a-hanzi-clip-5">
      <path d="M 1518 280 L 1523 429 L 1529 514 Q 1530 528 1534 555 Q 1539 582 1545 594 L 1552 608 Q 1553 614 1552 621 Q 1549 626 1541 634 Q 1531 643 1521 646 L 1471 659 Q 1457 661 1450 657 Q 1443 652 1442 650 L 1444 638 L 1454 613 Q 1465 568 1465 543 Q 1466 518 1465 486 L 1462 276 C 1462 246 1517 250 1518 280 Z" fill="lightgray"></path>
      </clipPath>
      <path clip-path="url(#make-me-a-hanzi-clip-5)" d="M 1453 646 L 1502 605 L 1491 306 L 1469 283 " fill="none" id="make-me-a-hanzi-animation-5" stroke-dasharray="523 1046" stroke-linecap="round"></path>

      <clipPath id="make-me-a-hanzi-clip-6">
      <path d="M 1395 397 Q 1395 410 1390 424 Q 1384 435 1374 444 Q 1365 453 1344 460 L 1302 474 L 1285 478 Q 1272 481 1269 479 Q 1266 476 1266 471 Q 1266 466 1268 464 L 1317 386 Q 1339 352 1362 352 Q 1398 352 1395 397 Z" fill="lightgray"></path>
      </clipPath>
      <path clip-path="url(#make-me-a-hanzi-clip-6)" d="M 1273 473 L 1343 418 L 1366 381 " fill="none" id="make-me-a-hanzi-animation-6" stroke-dasharray="261 522" stroke-linecap="round"></path>

      <clipPath id="make-me-a-hanzi-clip-7">
      <path d="M 1619 448 L 1568 401 Q 1560 393 1564 391 Q 1564 388 1573 390 L 1597 398 Q 1599 398 1623 408 L 1777 469 Q 1792 474 1784 490 Q 1776 505 1766 511 L 1715 548 Q 1698 551 1695 547 Q 1692 543 1685 530 Q 1679 516 1657 491 L 1619 448 Z" fill="lightgray"></path>
      </clipPath>
      <path clip-path="url(#make-me-a-hanzi-clip-7)" d="M 1774 482 L 1715 493 L 1609 416 L 1569 395 " fill="none" id="make-me-a-hanzi-animation-7" stroke-dasharray="364 728" stroke-linecap="round"></path>

      <clipPath id="make-me-a-hanzi-clip-8">
      <path d="M 1564 246 L 1748 246 L 1811 248 Q 1843 249 1847 264 Q 1848 270 1831 282 L 1806 295 Q 1792 301 1777 304 Q 1755 310 1747 310 Q 1739 310 1712 302 Q 1686 294 1643 292 L 1518 280 L 1462 276 L 1325 259 Q 1256 250 1222 250 L 1186 248 Q 1182 248 1167 246 Q 1153 244 1152 241 Q 1149 230 1180 213 Q 1211 196 1222 196 Q 1234 196 1253 200 L 1364 222 L 1422 233 L 1500 240 L 1564 246 Z" fill="lightgray"></path>
      </clipPath>
      <path clip-path="url(#make-me-a-hanzi-clip-8)" d="M 1161 239 L 1179 230 L 1227 223 L 1426 253 L 1747 278 L 1838 264 " fill="none" id="make-me-a-hanzi-animation-8" stroke-dasharray="812 1624" stroke-linecap="round"></path>

      <clipPath id="make-me-a-hanzi-clip-9">
      <path d="M 1364 222 L 1363 199 Q 1363 185 1321 92 Q 1311 74 1285 38 Q 1262 1 1241 -20 Q 1182 -83 1131 -123 L 1112 -135 Q 1104 -140 1107 -146 Q 1111 -153 1117 -150 L 1131 -146 Q 1186 -129 1217 -106 Q 1248 -84 1278 -58 Q 1328 -7 1367 59 L 1419 147 Q 1432 170 1442 182 Q 1452 193 1448 203 L 1438 216 Q 1428 222 1422 233 C 1403 257 1365 252 1364 222 Z" fill="lightgray"></path>
      </clipPath>
      <path clip-path="url(#make-me-a-hanzi-clip-9)" d="M 1373 216 L 1400 188 L 1347 79 L 1307 19 L 1264 -35 L 1222 -74 L 1179 -108 L 1114 -143 " fill="none" id="make-me-a-hanzi-animation-9" stroke-dasharray="615 1230" stroke-linecap="round"></path>

      <clipPath id="make-me-a-hanzi-clip-10">
      <path d="M 1513 187 L 1515 148 L 1513 5 Q 1512 -32 1524 -69 Q 1537 -106 1560 -129 Q 1583 -152 1620 -167 Q 1658 -182 1729 -182 Q 1881 -182 1937 -126 Q 1950 -113 1954 -105 Q 1958 -98 1962 -88 L 1960 -80 L 1940 -33 Q 1934 -18 1927 16 L 1913 87 Q 1911 95 1906 97 Q 1901 99 1899 85 L 1892 43 Q 1884 9 1883 -1 Q 1882 -12 1873 -36 Q 1864 -60 1853 -73 Q 1843 -86 1820 -95 Q 1800 -105 1749 -109 Q 1698 -113 1647 -101 Q 1596 -90 1579 -46 Q 1569 -26 1569 16 L 1575 99 Q 1577 127 1599 191 L 1605 205 Q 1605 213 1599 220 Q 1589 229 1583 232 Q 1581 236 1564 246 C 1540 263 1491 269 1500 240 L 1506 223 Q 1510 212 1513 187 Z" fill="lightgray"></path>
      </clipPath>
      <path clip-path="url(#make-me-a-hanzi-clip-10)" d="M 1507 238 L 1548 207 L 1556 194 L 1542 60 L 1541 -2 L 1550 -54 L 1579 -103 L 1604 -122 L 1637 -136 L 1720 -147 L 1795 -142 L 1840 -131 L 1889 -104 L 1907 -80 L 1906 89 " fill="none" id="make-me-a-hanzi-animation-10" stroke-dasharray="1029 2058" stroke-linecap="round"></path>

</g>
</svg>
