<svg version="1.1" viewBox="0 0 2048 1024" xmlns="http://www.w3.org/2000/svg">
  <g stroke="lightgray" stroke-dasharray="1,1" stroke-width="1" transform="scale(4, 4)">
    <line x1="0" y1="0" x2="256" y2="256"></line>
    <line x1="256" y1="0" x2="0" y2="256"></line>
    <line x1="128" y1="0" x2="128" y2="256"></line>
    <line x1="0" y1="128" x2="256" y2="128"></line>
    <line x1="256" y1="0" x2="512" y2="256"></line>
    <line x1="512" y1="0" x2="256" y2="256"></line>
    <line x1="384" y1="0" x2="384" y2="256"></line>
    <line x1="256" y1="128" x2="512" y2="128"></line>
  </g>
<g transform="scale(1, -1) translate(0, -850)">
   <style type="text/css">
    @keyframes keyframes0 {
      from {
       stroke: black;
       stroke-dashoffset: 679;
       stroke-width: 128;
       }
       69% {
       animation-timing-function: step-end;
       stroke: black;
       stroke-dashoffset: 0;
       stroke-width: 128;
       }
       to {
       stroke: black;
       stroke-width: 1024;
       }
       }
       #make-me-a-hanzi-animation-0 {
         animation: keyframes0 0.802572s both;
         animation-delay: 0.000000s;
         animation-timing-function: linear;
       }
    @keyframes keyframes1 {
      from {
       stroke: black;
       stroke-dashoffset: 686;
       stroke-width: 128;
       }
       69% {
       animation-timing-function: step-end;
       stroke: black;
       stroke-dashoffset: 0;
       stroke-width: 128;
       }
       to {
       stroke: black;
       stroke-width: 1024;
       }
       }
       #make-me-a-hanzi-animation-1 {
         animation: keyframes1 0.808268s both;
         animation-delay: 0.802572s;
         animation-timing-function: linear;
       }
    @keyframes keyframes2 {
      from {
       stroke: black;
       stroke-dashoffset: 1085;
       stroke-width: 128;
       }
       78% {
       animation-timing-function: step-end;
       stroke: black;
       stroke-dashoffset: 0;
       stroke-width: 128;
       }
       to {
       stroke: black;
       stroke-width: 1024;
       }
       }
       #make-me-a-hanzi-animation-2 {
         animation: keyframes2 1.132975s both;
         animation-delay: 1.610840s;
         animation-timing-function: linear;
       }
    @keyframes keyframes3 {
      from {
       stroke: black;
       stroke-dashoffset: 1103;
       stroke-width: 128;
       }
       78% {
       animation-timing-function: step-end;
       stroke: black;
       stroke-dashoffset: 0;
       stroke-width: 128;
       }
       to {
       stroke: black;
       stroke-width: 1024;
       }
       }
       #make-me-a-hanzi-animation-3 {
         animation: keyframes3 1.147624s both;
         animation-delay: 2.743815s;
         animation-timing-function: linear;
       }
    @keyframes keyframes4 {
      from {
       stroke: black;
       stroke-dashoffset: 657;
       stroke-width: 128;
       }
       68% {
       animation-timing-function: step-end;
       stroke: black;
       stroke-dashoffset: 0;
       stroke-width: 128;
       }
       to {
       stroke: black;
       stroke-width: 1024;
       }
       }
       #make-me-a-hanzi-animation-4 {
         animation: keyframes4 0.784668s both;
         animation-delay: 3.891439s;
         animation-timing-function: linear;
       }
    @keyframes keyframes5 {
      from {
       stroke: black;
       stroke-dashoffset: 959;
       stroke-width: 128;
       }
       76% {
       animation-timing-function: step-end;
       stroke: black;
       stroke-dashoffset: 0;
       stroke-width: 128;
       }
       to {
       stroke: black;
       stroke-width: 1024;
       }
       }
       #make-me-a-hanzi-animation-5 {
         animation: keyframes5 1.030436s both;
         animation-delay: 4.676107s;
         animation-timing-function: linear;
       }
    @keyframes keyframes6 {
      from {
       stroke: black;
       stroke-dashoffset: 497;
       stroke-width: 128;
       }
       62% {
       animation-timing-function: step-end;
       stroke: black;
       stroke-dashoffset: 0;
       stroke-width: 128;
       }
       to {
       stroke: black;
       stroke-width: 1024;
       }
       }
       #make-me-a-hanzi-animation-6 {
         animation: keyframes6 0.654460s both;
         animation-delay: 5.706543s;
         animation-timing-function: linear;
       }
    @keyframes keyframes7 {
      from {
       stroke: black;
       stroke-dashoffset: 498;
       stroke-width: 128;
       }
       62% {
       animation-timing-function: step-end;
       stroke: black;
       stroke-dashoffset: 0;
       stroke-width: 128;
       }
       to {
       stroke: black;
       stroke-width: 1024;
       }
       }
       #make-me-a-hanzi-animation-7 {
         animation: keyframes7 0.655273s both;
         animation-delay: 6.361003s;
         animation-timing-function: linear;
       }
    @keyframes keyframes8 {
      from {
       stroke: black;
       stroke-dashoffset: 498;
       stroke-width: 128;
       }
       62% {
       animation-timing-function: step-end;
       stroke: black;
       stroke-dashoffset: 0;
       stroke-width: 128;
       }
       to {
       stroke: black;
       stroke-width: 1024;
       }
       }
       #make-me-a-hanzi-animation-8 {
         animation: keyframes8 0.655273s both;
         animation-delay: 7.016276s;
         animation-timing-function: linear;
       }
    @keyframes keyframes9 {
      from {
       stroke: black;
       stroke-dashoffset: 844;
       stroke-width: 128;
       }
       73% {
       animation-timing-function: step-end;
       stroke: black;
       stroke-dashoffset: 0;
       stroke-width: 128;
       }
       to {
       stroke: black;
       stroke-width: 1024;
       }
       }
       #make-me-a-hanzi-animation-9 {
         animation: keyframes9 0.936849s both;
         animation-delay: 7.671549s;
         animation-timing-function: linear;
       }
    @keyframes keyframes10 {
      from {
       stroke: black;
       stroke-dashoffset: 764;
       stroke-width: 128;
       }
       71% {
       animation-timing-function: step-end;
       stroke: black;
       stroke-dashoffset: 0;
       stroke-width: 128;
       }
       to {
       stroke: black;
       stroke-width: 1024;
       }
       }
       #make-me-a-hanzi-animation-10 {
         animation: keyframes10 0.871745s both;
         animation-delay: 8.608398s;
         animation-timing-function: linear;
       }
    @keyframes keyframes11 {
      from {
       stroke: black;
       stroke-dashoffset: 609;
       stroke-width: 128;
       }
       66% {
       animation-timing-function: step-end;
       stroke: black;
       stroke-dashoffset: 0;
       stroke-width: 128;
       }
       to {
       stroke: black;
       stroke-width: 1024;
       }
       }
       #make-me-a-hanzi-animation-11 {
         animation: keyframes11 0.745605s both;
         animation-delay: 9.480143s;
         animation-timing-function: linear;
       }
    @keyframes keyframes12 {
      from {
       stroke: black;
       stroke-dashoffset: 554;
       stroke-width: 128;
       }
       64% {
       animation-timing-function: step-end;
       stroke: black;
       stroke-dashoffset: 0;
       stroke-width: 128;
       }
       to {
       stroke: black;
       stroke-width: 1024;
       }
       }
       #make-me-a-hanzi-animation-12 {
         animation: keyframes12 0.700846s both;
         animation-delay: 10.225749s;
         animation-timing-function: linear;
       }
    @keyframes keyframes13 {
      from {
       stroke: black;
       stroke-dashoffset: 432;
       stroke-width: 128;
       }
       58% {
       animation-timing-function: step-end;
       stroke: black;
       stroke-dashoffset: 0;
       stroke-width: 128;
       }
       to {
       stroke: black;
       stroke-width: 1024;
       }
       }
       #make-me-a-hanzi-animation-13 {
         animation: keyframes13 0.601562s both;
         animation-delay: 10.926595s;
         animation-timing-function: linear;
       }
    @keyframes keyframes14 {
      from {
       stroke: black;
       stroke-dashoffset: 1026;
       stroke-width: 128;
       }
       77% {
       animation-timing-function: step-end;
       stroke: black;
       stroke-dashoffset: 0;
       stroke-width: 128;
       }
       to {
       stroke: black;
       stroke-width: 1024;
       }
       }
       #make-me-a-hanzi-animation-14 {
         animation: keyframes14 1.084961s both;
         animation-delay: 11.528158s;
         animation-timing-function: linear;
       }
    @keyframes keyframes15 {
      from {
       stroke: black;
       stroke-dashoffset: 480;
       stroke-width: 128;
       }
       61% {
       animation-timing-function: step-end;
       stroke: black;
       stroke-dashoffset: 0;
       stroke-width: 128;
       }
       to {
       stroke: black;
       stroke-width: 1024;
       }
       }
       #make-me-a-hanzi-animation-15 {
         animation: keyframes15 0.640625s both;
         animation-delay: 12.613118s;
         animation-timing-function: linear;
       }
</style>
<path d="M 566 607 L 619 625 L 746 674 Q 762 675 767.5 688 Q 773 701 739.5 727.5 Q 706 754 696.5 751.5 Q 687 749 672.5 731.5 Q 658 714 607 683 Q 565 660 550 652 L 492 628 Q 465 616 433 607 L 355 586 Q 346 585 347 576 Q 349 570 359 571 L 391 573 Q 408 573 427 577 L 466 582 Q 469 582 484 585 L 509 590 L 566 607 Z" fill="lightgray"></path> 
<path d="M 561 458 L 731 481 L 762 487 Q 783 491 784 497 Q 786 502 782.5 508 Q 779 514 751 522.5 Q 723 531 710.5 530 Q 698 529 670 523 L 635 516 L 578 507 L 505 495 L 463 489 L 412 484 L 368 477 L 354 476 Q 340 474 339 468 Q 336 462 345 454 Q 374 425 492 449 L 561 458 Z" fill="lightgray"></path> 
<path d="M 507 330 L 567 335 Q 588 336 609 337 Q 630 338 650.5 340 Q 671 342 739 343 L 916 344 L 949 344 Q 972 344 978 350 Q 983 353 985.5 360 Q 988 367 977 375 Q 966 386 953 390 Q 911 412 897 412 Q 883 412 869 408 L 791 395 L 729 387 Q 709 385 670 381 L 523 368 L 455 361 L 337 346 Q 324 344 275.5 340 Q 227 336 198 336 L 161 336 Q 144 336 142 330.5 Q 140 325 143.5 317.5 Q 147 310 177 297 Q 207 284 222.5 284 Q 238 284 259 290 L 305 300 Q 329 306 350 309 L 395 317 L 439 326 L 507 330 Z" fill="lightgray"></path> 
<path d="M 443 228 L 459 250 L 487 300 L 507 330 L 523 368 L 561 458 L 578 507 L 585 525 L 595 544 L 610 566 Q 611 571 603 579 Q 598 587 587 593 L 566 607 C 541 624 507 620 509 590 L 511 563 L 510 560 L 509 549 L 509 516 L 507 504 Q 505 496 505 495 L 492 449 L 479 418 Q 479 414 469 390 Q 456 365 455 361 L 439 326 L 427 302 Q 338 142 179 6 L 91 -61 Q 83 -66 85 -74 Q 86 -81 99 -76 L 131 -60 Q 154 -50 196 -24 Q 238 2 272 30 Q 345 90 379 137 L 423 196 L 443 228 Z" fill="lightgray"></path> 
<path d="M 431 172 L 432 164 L 433 152 Q 435 116 435 110 L 431 8 Q 430 -6 425 -31 L 415 -80 Q 410 -107 410 -112 Q 410 -134 434 -175 Q 442 -190 456 -190 Q 464 -188 467 -178 L 473 -156 L 475 -117 L 479 -86 L 479 -55 L 480 -48 L 481 -36 L 483 -8 L 487 75 L 488 110 L 488 140 Q 488 142 493 189 C 496 215 496 215 479 218 L 463 221 L 451 226 Q 447 226 443 228 C 414 237 412 224 423 196 L 431 175 Q 431 174 431 172 Z" fill="lightgray"></path> 
<path d="M 687 -142 L 714 -198 Q 733 -241 771 -192 Q 785 -174 796 -150 Q 806 -125 798 -74 Q 790 -22 791 -1 L 792 152 L 792 166 Q 792 180 795 184 L 802 200 Q 809 208 809 213 Q 809 218 802 226 Q 775 254 753 263 Q 730 271 726 270 L 611 241 L 571 233 L 479 218 C 449 213 463 184 493 189 L 584 204 Q 640 212 665 212 L 693 212 Q 712 212 722 206 Q 731 200 731 176 L 731 130 L 733 110 L 732 13 L 731 -13 L 729 -46 L 725 -79 Q 724 -94 720 -109 C 714 -138 674 -115 687 -142 Z" fill="lightgray"></path> 
<path d="M 487 75 L 509 72 L 527 72 Q 562 76 587 82 Q 611 87 652 91 Q 692 95 710 102 Q 727 108 733 110 C 759 119 759 119 731 130 L 716 136 L 694 141 Q 668 143 662 143 Q 656 143 571 123 Q 506 110 488 110 C 458 108 457 79 487 75 Z" fill="lightgray"></path> 
<path d="M 481 -36 L 500 -42 Q 510 -44 518 -44 Q 524 -42 538 -42 L 593 -36 L 643 -26 L 713 -16 Q 724 -14 731 -13 C 761 -8 761 5 732 13 L 695 23 Q 691 24 668 22 Q 645 20 622 15 L 578 6 L 533 0 Q 506 -3 483 -8 C 454 -14 452 -27 481 -36 Z" fill="lightgray"></path> 
<path d="M 473 -156 L 505 -156 Q 519 -156 555 -152 L 633 -146 Q 639 -146 687 -142 C 717 -140 747 -122 720 -109 L 705 -102 L 695 -100 L 670 -94 L 550 -108 Q 534 -108 475 -117 C 445 -121 443 -156 473 -156 Z" fill="lightgray"></path> 
<path d="M 1316 402 Q 1348 460 1350 465 Q 1352 470 1360 484 L 1389 540 Q 1409 580 1419 592 Q 1429 604 1433 612 Q 1437 632 1393 657 Q 1350 682 1344 661 L 1343 660 L 1342 641 Q 1331 536 1232 370 L 1185 299 Q 1154 253 1133 231 L 1093 184 Q 1085 174 1087 170 Q 1090 165 1103 172 L 1124 187 Q 1133 192 1160 216 Q 1188 239 1198 249 Q 1208 259 1231 285 L 1288 353 L 1316 402 Z" fill="lightgray"></path> 
<path d="M 1269 -76 L 1276 -94 Q 1291 -123 1297 -121 Q 1306 -123 1315 -102 Q 1327 -79 1329 -52 Q 1330 -51 1328 -20 L 1326 27 Q 1324 71 1325 72 L 1330 256 Q 1330 282 1336 313 Q 1342 344 1342 354 L 1339 366 L 1329 380 Q 1329 381 1326 384 Q 1324 386 1320 394 L 1316 402 C 1302 429 1288 383 1288 353 L 1288 295 L 1282 122 L 1279 95 Q 1279 49 1272 19 Q 1266 -12 1263 -22 Q 1261 -32 1261 -36 Q 1261 -41 1264 -56 L 1269 -76 Z" fill="lightgray"></path> 
<path d="M 1519 125 L 1519 292 Q 1518 352 1530 403 Q 1535 418 1534 424 Q 1533 433 1513 444 Q 1493 454 1483 454 Q 1460 458 1455 456 Q 1451 454 1447 449 Q 1443 444 1452 430 Q 1461 411 1462 400 L 1467 367 Q 1469 346 1471 292 L 1475 106 C 1476 76 1519 95 1519 125 Z" fill="lightgray"></path> 
<path d="M 1398 83 Q 1383 81 1383 67 Q 1383 52 1412 26 Q 1449 4 1455 6 Q 1462 7 1471 18 Q 1480 28 1509 52 L 1533 73 Q 1543 82 1572 104 L 1667 174 C 1691 192 1676 212 1651 196 Q 1642 190 1624 180 L 1519 125 L 1475 106 L 1448 94 L 1427 89 Q 1425 88 1421 88 Q 1417 88 1415 87 L 1404 84 Q 1401 83 1398 83 Z" fill="lightgray"></path> 
<path d="M 1667 174 Q 1672 166 1685 156 Q 1703 134 1722 153 Q 1758 217 1704 259 Q 1679 279 1653 287 L 1602 302 Q 1595 304 1589 301 Q 1584 298 1589 291 L 1602 275 L 1619 245 Q 1623 236 1644 208 L 1651 196 L 1667 174 Z" fill="lightgray"></path> 
<path d="M 1807 132 L 1826 162 Q 1873 245 1914 404 L 1928 454 Q 1932 469 1939 482 Q 1946 494 1946 499 Q 1950 514 1924 528 Q 1855 569 1845 540 L 1850 519 Q 1862 464 1839 353 Q 1790 168 1685 66 Q 1649 33 1590 -9 Q 1568 -21 1536 -40 L 1515 -52 Q 1505 -57 1507 -62 Q 1509 -67 1520 -64 L 1542 -59 Q 1573 -51 1585 -46 Q 1597 -42 1634 -24 Q 1671 -7 1695 14 L 1734 44 Q 1756 68 1792 112 L 1807 132 Z" fill="lightgray"></path> 
<path d="M 1792 112 L 1845 56 L 1867 26 L 1901 -16 Q 1933 -57 1952 -60 Q 1982 -65 1982 -16 Q 1981 -3 1973 21 Q 1965 45 1923 74 Q 1895 90 1883 98 L 1807 132 C 1780 144 1771 134 1792 112 Z" fill="lightgray"></path> 
      <clipPath id="make-me-a-hanzi-clip-0">
      <path d="M 566 607 L 619 625 L 746 674 Q 762 675 767.5 688 Q 773 701 739.5 727.5 Q 706 754 696.5 751.5 Q 687 749 672.5 731.5 Q 658 714 607 683 Q 565 660 550 652 L 492 628 Q 465 616 433 607 L 355 586 Q 346 585 347 576 Q 349 570 359 571 L 391 573 Q 408 573 427 577 L 466 582 Q 469 582 484 585 L 509 590 L 566 607 Z" fill="lightgray"></path>
      </clipPath>
      <path clip-path="url(#make-me-a-hanzi-clip-0)" d="M 752 692 L 703 703 L 657 675 L 552 627 L 475 601 L 355 578 " fill="none" id="make-me-a-hanzi-animation-0" stroke-dasharray="551 1102" stroke-linecap="round"></path>

      <clipPath id="make-me-a-hanzi-clip-1">
      <path d="M 561 458 L 731 481 L 762 487 Q 783 491 784 497 Q 786 502 782.5 508 Q 779 514 751 522.5 Q 723 531 710.5 530 Q 698 529 670 523 L 635 516 L 578 507 L 505 495 L 463 489 L 412 484 L 368 477 L 354 476 Q 340 474 339 468 Q 336 462 345 454 Q 374 425 492 449 L 561 458 Z" fill="lightgray"></path>
      </clipPath>
      <path clip-path="url(#make-me-a-hanzi-clip-1)" d="M 349 464 L 370 459 L 456 464 L 715 505 L 775 501 " fill="none" id="make-me-a-hanzi-animation-1" stroke-dasharray="558 1116" stroke-linecap="round"></path>

      <clipPath id="make-me-a-hanzi-clip-2">
      <path d="M 507 330 L 567 335 Q 588 336 609 337 Q 630 338 650.5 340 Q 671 342 739 343 L 916 344 L 949 344 Q 972 344 978 350 Q 983 353 985.5 360 Q 988 367 977 375 Q 966 386 953 390 Q 911 412 897 412 Q 883 412 869 408 L 791 395 L 729 387 Q 709 385 670 381 L 523 368 L 455 361 L 337 346 Q 324 344 275.5 340 Q 227 336 198 336 L 161 336 Q 144 336 142 330.5 Q 140 325 143.5 317.5 Q 147 310 177 297 Q 207 284 222.5 284 Q 238 284 259 290 L 305 300 Q 329 306 350 309 L 395 317 L 439 326 L 507 330 Z" fill="lightgray"></path>
      </clipPath>
      <path clip-path="url(#make-me-a-hanzi-clip-2)" d="M 150 325 L 226 310 L 435 343 L 892 378 L 972 362 " fill="none" id="make-me-a-hanzi-animation-2" stroke-dasharray="957 1914" stroke-linecap="round"></path>

      <clipPath id="make-me-a-hanzi-clip-3">
      <path d="M 443 228 L 459 250 L 487 300 L 507 330 L 523 368 L 561 458 L 578 507 L 585 525 L 595 544 L 610 566 Q 611 571 603 579 Q 598 587 587 593 L 566 607 C 541 624 507 620 509 590 L 511 563 L 510 560 L 509 549 L 509 516 L 507 504 Q 505 496 505 495 L 492 449 L 479 418 Q 479 414 469 390 Q 456 365 455 361 L 439 326 L 427 302 Q 338 142 179 6 L 91 -61 Q 83 -66 85 -74 Q 86 -81 99 -76 L 131 -60 Q 154 -50 196 -24 Q 238 2 272 30 Q 345 90 379 137 L 423 196 L 443 228 Z" fill="lightgray"></path>
      </clipPath>
      <path clip-path="url(#make-me-a-hanzi-clip-3)" d="M 597 567 L 554 559 L 529 463 L 479 341 L 434 260 L 348 139 L 278 65 L 207 4 L 93 -70 " fill="none" id="make-me-a-hanzi-animation-3" stroke-dasharray="975 1950" stroke-linecap="round"></path>

      <clipPath id="make-me-a-hanzi-clip-4">
      <path d="M 431 172 L 432 164 L 433 152 Q 435 116 435 110 L 431 8 Q 430 -6 425 -31 L 415 -80 Q 410 -107 410 -112 Q 410 -134 434 -175 Q 442 -190 456 -190 Q 464 -188 467 -178 L 473 -156 L 475 -117 L 479 -86 L 479 -55 L 480 -48 L 481 -36 L 483 -8 L 487 75 L 488 110 L 488 140 Q 488 142 493 189 C 496 215 496 215 479 218 L 463 221 L 451 226 Q 447 226 443 228 C 414 237 412 224 423 196 L 431 175 Q 431 174 431 172 Z" fill="lightgray"></path>
      </clipPath>
      <path clip-path="url(#make-me-a-hanzi-clip-4)" d="M 445 219 L 462 181 L 458 14 L 443 -114 L 453 -177 " fill="none" id="make-me-a-hanzi-animation-4" stroke-dasharray="529 1058" stroke-linecap="round"></path>

      <clipPath id="make-me-a-hanzi-clip-5">
      <path d="M 687 -142 L 714 -198 Q 733 -241 771 -192 Q 785 -174 796 -150 Q 806 -125 798 -74 Q 790 -22 791 -1 L 792 152 L 792 166 Q 792 180 795 184 L 802 200 Q 809 208 809 213 Q 809 218 802 226 Q 775 254 753 263 Q 730 271 726 270 L 611 241 L 571 233 L 479 218 C 449 213 463 184 493 189 L 584 204 Q 640 212 665 212 L 693 212 Q 712 212 722 206 Q 731 200 731 176 L 731 130 L 733 110 L 732 13 L 731 -13 L 729 -46 L 725 -79 Q 724 -94 720 -109 C 714 -138 674 -115 687 -142 Z" fill="lightgray"></path>
      </clipPath>
      <path clip-path="url(#make-me-a-hanzi-clip-5)" d="M 487 216 L 496 208 L 513 207 L 652 232 L 727 238 L 760 216 L 762 -104 L 759 -126 L 743 -154 L 737 -197 " fill="none" id="make-me-a-hanzi-animation-5" stroke-dasharray="831 1662" stroke-linecap="round"></path>

      <clipPath id="make-me-a-hanzi-clip-6">
      <path d="M 487 75 L 509 72 L 527 72 Q 562 76 587 82 Q 611 87 652 91 Q 692 95 710 102 Q 727 108 733 110 C 759 119 759 119 731 130 L 716 136 L 694 141 Q 668 143 662 143 Q 656 143 571 123 Q 506 110 488 110 C 458 108 457 79 487 75 Z" fill="lightgray"></path>
      </clipPath>
      <path clip-path="url(#make-me-a-hanzi-clip-6)" d="M 492 104 L 514 92 L 663 118 L 717 120 L 726 114 " fill="none" id="make-me-a-hanzi-animation-6" stroke-dasharray="369 738" stroke-linecap="round"></path>

      <clipPath id="make-me-a-hanzi-clip-7">
      <path d="M 481 -36 L 500 -42 Q 510 -44 518 -44 Q 524 -42 538 -42 L 593 -36 L 643 -26 L 713 -16 Q 724 -14 731 -13 C 761 -8 761 5 732 13 L 695 23 Q 691 24 668 22 Q 645 20 622 15 L 578 6 L 533 0 Q 506 -3 483 -8 C 454 -14 452 -27 481 -36 Z" fill="lightgray"></path>
      </clipPath>
      <path clip-path="url(#make-me-a-hanzi-clip-7)" d="M 488 -29 L 679 2 L 709 2 L 726 -6 " fill="none" id="make-me-a-hanzi-animation-7" stroke-dasharray="370 740" stroke-linecap="round"></path>

      <clipPath id="make-me-a-hanzi-clip-8">
      <path d="M 473 -156 L 505 -156 Q 519 -156 555 -152 L 633 -146 Q 639 -146 687 -142 C 717 -140 747 -122 720 -109 L 705 -102 L 695 -100 L 670 -94 L 550 -108 Q 534 -108 475 -117 C 445 -121 443 -156 473 -156 Z" fill="lightgray"></path>
      </clipPath>
      <path clip-path="url(#make-me-a-hanzi-clip-8)" d="M 478 -150 L 492 -137 L 509 -133 L 713 -113 " fill="none" id="make-me-a-hanzi-animation-8" stroke-dasharray="370 740" stroke-linecap="round"></path>

      <clipPath id="make-me-a-hanzi-clip-9">
      <path d="M 1316 402 Q 1348 460 1350 465 Q 1352 470 1360 484 L 1389 540 Q 1409 580 1419 592 Q 1429 604 1433 612 Q 1437 632 1393 657 Q 1350 682 1344 661 L 1343 660 L 1342 641 Q 1331 536 1232 370 L 1185 299 Q 1154 253 1133 231 L 1093 184 Q 1085 174 1087 170 Q 1090 165 1103 172 L 1124 187 Q 1133 192 1160 216 Q 1188 239 1198 249 Q 1208 259 1231 285 L 1288 353 L 1316 402 Z" fill="lightgray"></path>
      </clipPath>
      <path clip-path="url(#make-me-a-hanzi-clip-9)" d="M 1349 655 L 1362 651 L 1382 613 L 1298 426 L 1254 353 L 1193 273 L 1144 219 L 1092 176 " fill="none" id="make-me-a-hanzi-animation-9" stroke-dasharray="716 1432" stroke-linecap="round"></path>

      <clipPath id="make-me-a-hanzi-clip-10">
      <path d="M 1269 -76 L 1276 -94 Q 1291 -123 1297 -121 Q 1306 -123 1315 -102 Q 1327 -79 1329 -52 Q 1330 -51 1328 -20 L 1326 27 Q 1324 71 1325 72 L 1330 256 Q 1330 282 1336 313 Q 1342 344 1342 354 L 1339 366 L 1329 380 Q 1329 381 1326 384 Q 1324 386 1320 394 L 1316 402 C 1302 429 1288 383 1288 353 L 1288 295 L 1282 122 L 1279 95 Q 1279 49 1272 19 Q 1266 -12 1263 -22 Q 1261 -32 1261 -36 Q 1261 -41 1264 -56 L 1269 -76 Z" fill="lightgray"></path>
      </clipPath>
      <path clip-path="url(#make-me-a-hanzi-clip-10)" d="M 1313 396 L 1317 351 L 1308 271 L 1295 -36 L 1298 -111 " fill="none" id="make-me-a-hanzi-animation-10" stroke-dasharray="636 1272" stroke-linecap="round"></path>

      <clipPath id="make-me-a-hanzi-clip-11">
      <path d="M 1519 125 L 1519 292 Q 1518 352 1530 403 Q 1535 418 1534 424 Q 1533 433 1513 444 Q 1493 454 1483 454 Q 1460 458 1455 456 Q 1451 454 1447 449 Q 1443 444 1452 430 Q 1461 411 1462 400 L 1467 367 Q 1469 346 1471 292 L 1475 106 C 1476 76 1519 95 1519 125 Z" fill="lightgray"></path>
      </clipPath>
      <path clip-path="url(#make-me-a-hanzi-clip-11)" d="M 1458 444 L 1496 413 L 1497 140 L 1480 114 " fill="none" id="make-me-a-hanzi-animation-11" stroke-dasharray="481 962" stroke-linecap="round"></path>

      <clipPath id="make-me-a-hanzi-clip-12">
      <path d="M 1398 83 Q 1383 81 1383 67 Q 1383 52 1412 26 Q 1449 4 1455 6 Q 1462 7 1471 18 Q 1480 28 1509 52 L 1533 73 Q 1543 82 1572 104 L 1667 174 C 1691 192 1676 212 1651 196 Q 1642 190 1624 180 L 1519 125 L 1475 106 L 1448 94 L 1427 89 Q 1425 88 1421 88 Q 1417 88 1415 87 L 1404 84 Q 1401 83 1398 83 Z" fill="lightgray"></path>
      </clipPath>
      <path clip-path="url(#make-me-a-hanzi-clip-12)" d="M 1398 68 L 1447 52 L 1647 177 L 1657 175 " fill="none" id="make-me-a-hanzi-animation-12" stroke-dasharray="426 852" stroke-linecap="round"></path>

      <clipPath id="make-me-a-hanzi-clip-13">
      <path d="M 1667 174 Q 1672 166 1685 156 Q 1703 134 1722 153 Q 1758 217 1704 259 Q 1679 279 1653 287 L 1602 302 Q 1595 304 1589 301 Q 1584 298 1589 291 L 1602 275 L 1619 245 Q 1623 236 1644 208 L 1651 196 L 1667 174 Z" fill="lightgray"></path>
      </clipPath>
      <path clip-path="url(#make-me-a-hanzi-clip-13)" d="M 1596 296 L 1675 233 L 1693 210 L 1705 166 " fill="none" id="make-me-a-hanzi-animation-13" stroke-dasharray="304 608" stroke-linecap="round"></path>

      <clipPath id="make-me-a-hanzi-clip-14">
      <path d="M 1807 132 L 1826 162 Q 1873 245 1914 404 L 1928 454 Q 1932 469 1939 482 Q 1946 494 1946 499 Q 1950 514 1924 528 Q 1855 569 1845 540 L 1850 519 Q 1862 464 1839 353 Q 1790 168 1685 66 Q 1649 33 1590 -9 Q 1568 -21 1536 -40 L 1515 -52 Q 1505 -57 1507 -62 Q 1509 -67 1520 -64 L 1542 -59 Q 1573 -51 1585 -46 Q 1597 -42 1634 -24 Q 1671 -7 1695 14 L 1734 44 Q 1756 68 1792 112 L 1807 132 Z" fill="lightgray"></path>
      </clipPath>
      <path clip-path="url(#make-me-a-hanzi-clip-14)" d="M 1858 537 L 1893 501 L 1894 473 L 1854 302 L 1820 211 L 1799 172 L 1746 95 L 1675 27 L 1618 -13 L 1514 -59 " fill="none" id="make-me-a-hanzi-animation-14" stroke-dasharray="898 1796" stroke-linecap="round"></path>

      <clipPath id="make-me-a-hanzi-clip-15">
      <path d="M 1792 112 L 1845 56 L 1867 26 L 1901 -16 Q 1933 -57 1952 -60 Q 1982 -65 1982 -16 Q 1981 -3 1973 21 Q 1965 45 1923 74 Q 1895 90 1883 98 L 1807 132 C 1780 144 1771 134 1792 112 Z" fill="lightgray"></path>
      </clipPath>
      <path clip-path="url(#make-me-a-hanzi-clip-15)" d="M 1810 122 L 1812 113 L 1865 76 L 1920 25 L 1934 9 L 1957 -40 " fill="none" id="make-me-a-hanzi-animation-15" stroke-dasharray="352 704" stroke-linecap="round"></path>

</g>
</svg>
