<svg version="1.1" viewBox="0 0 3072 1024" xmlns="http://www.w3.org/2000/svg">
  <g stroke="lightgray" stroke-dasharray="1,1" stroke-width="1" transform="scale(4, 4)">
    <line x1="0" y1="0" x2="256" y2="256"></line>
    <line x1="256" y1="0" x2="0" y2="256"></line>
    <line x1="128" y1="0" x2="128" y2="256"></line>
    <line x1="0" y1="128" x2="256" y2="128"></line>
    <line x1="256" y1="0" x2="512" y2="256"></line>
    <line x1="512" y1="0" x2="256" y2="256"></line>
    <line x1="384" y1="0" x2="384" y2="256"></line>
    <line x1="256" y1="128" x2="512" y2="128"></line>
    <line x1="512" y1="0" x2="768" y2="256"></line>
    <line x1="768" y1="0" x2="512" y2="256"></line>
    <line x1="640" y1="0" x2="640" y2="256"></line>
    <line x1="512" y1="128" x2="768" y2="128"></line>
  </g>
<g transform="scale(1, -1) translate(0, -850)">
   <style type="text/css">
    @keyframes keyframes0 {
      from {
       stroke: black;
       stroke-dashoffset: 679;
       stroke-width: 128;
       }
       69% {
       animation-timing-function: step-end;
       stroke: black;
       stroke-dashoffset: 0;
       stroke-width: 128;
       }
       to {
       stroke: black;
       stroke-width: 1024;
       }
       }
       #make-me-a-hanzi-animation-0 {
         animation: keyframes0 0.802572s both;
         animation-delay: 0.000000s;
         animation-timing-function: linear;
       }
    @keyframes keyframes1 {
      from {
       stroke: black;
       stroke-dashoffset: 686;
       stroke-width: 128;
       }
       69% {
       animation-timing-function: step-end;
       stroke: black;
       stroke-dashoffset: 0;
       stroke-width: 128;
       }
       to {
       stroke: black;
       stroke-width: 1024;
       }
       }
       #make-me-a-hanzi-animation-1 {
         animation: keyframes1 0.808268s both;
         animation-delay: 0.802572s;
         animation-timing-function: linear;
       }
    @keyframes keyframes2 {
      from {
       stroke: black;
       stroke-dashoffset: 1085;
       stroke-width: 128;
       }
       78% {
       animation-timing-function: step-end;
       stroke: black;
       stroke-dashoffset: 0;
       stroke-width: 128;
       }
       to {
       stroke: black;
       stroke-width: 1024;
       }
       }
       #make-me-a-hanzi-animation-2 {
         animation: keyframes2 1.132975s both;
         animation-delay: 1.610840s;
         animation-timing-function: linear;
       }
    @keyframes keyframes3 {
      from {
       stroke: black;
       stroke-dashoffset: 1103;
       stroke-width: 128;
       }
       78% {
       animation-timing-function: step-end;
       stroke: black;
       stroke-dashoffset: 0;
       stroke-width: 128;
       }
       to {
       stroke: black;
       stroke-width: 1024;
       }
       }
       #make-me-a-hanzi-animation-3 {
         animation: keyframes3 1.147624s both;
         animation-delay: 2.743815s;
         animation-timing-function: linear;
       }
    @keyframes keyframes4 {
      from {
       stroke: black;
       stroke-dashoffset: 657;
       stroke-width: 128;
       }
       68% {
       animation-timing-function: step-end;
       stroke: black;
       stroke-dashoffset: 0;
       stroke-width: 128;
       }
       to {
       stroke: black;
       stroke-width: 1024;
       }
       }
       #make-me-a-hanzi-animation-4 {
         animation: keyframes4 0.784668s both;
         animation-delay: 3.891439s;
         animation-timing-function: linear;
       }
    @keyframes keyframes5 {
      from {
       stroke: black;
       stroke-dashoffset: 959;
       stroke-width: 128;
       }
       76% {
       animation-timing-function: step-end;
       stroke: black;
       stroke-dashoffset: 0;
       stroke-width: 128;
       }
       to {
       stroke: black;
       stroke-width: 1024;
       }
       }
       #make-me-a-hanzi-animation-5 {
         animation: keyframes5 1.030436s both;
         animation-delay: 4.676107s;
         animation-timing-function: linear;
       }
    @keyframes keyframes6 {
      from {
       stroke: black;
       stroke-dashoffset: 497;
       stroke-width: 128;
       }
       62% {
       animation-timing-function: step-end;
       stroke: black;
       stroke-dashoffset: 0;
       stroke-width: 128;
       }
       to {
       stroke: black;
       stroke-width: 1024;
       }
       }
       #make-me-a-hanzi-animation-6 {
         animation: keyframes6 0.654460s both;
         animation-delay: 5.706543s;
         animation-timing-function: linear;
       }
    @keyframes keyframes7 {
      from {
       stroke: black;
       stroke-dashoffset: 498;
       stroke-width: 128;
       }
       62% {
       animation-timing-function: step-end;
       stroke: black;
       stroke-dashoffset: 0;
       stroke-width: 128;
       }
       to {
       stroke: black;
       stroke-width: 1024;
       }
       }
       #make-me-a-hanzi-animation-7 {
         animation: keyframes7 0.655273s both;
         animation-delay: 6.361003s;
         animation-timing-function: linear;
       }
    @keyframes keyframes8 {
      from {
       stroke: black;
       stroke-dashoffset: 498;
       stroke-width: 128;
       }
       62% {
       animation-timing-function: step-end;
       stroke: black;
       stroke-dashoffset: 0;
       stroke-width: 128;
       }
       to {
       stroke: black;
       stroke-width: 1024;
       }
       }
       #make-me-a-hanzi-animation-8 {
         animation: keyframes8 0.655273s both;
         animation-delay: 7.016276s;
         animation-timing-function: linear;
       }
    @keyframes keyframes9 {
      from {
       stroke: black;
       stroke-dashoffset: 594;
       stroke-width: 128;
       }
       66% {
       animation-timing-function: step-end;
       stroke: black;
       stroke-dashoffset: 0;
       stroke-width: 128;
       }
       to {
       stroke: black;
       stroke-width: 1024;
       }
       }
       #make-me-a-hanzi-animation-9 {
         animation: keyframes9 0.733398s both;
         animation-delay: 7.671549s;
         animation-timing-function: linear;
       }
    @keyframes keyframes10 {
      from {
       stroke: black;
       stroke-dashoffset: 734;
       stroke-width: 128;
       }
       70% {
       animation-timing-function: step-end;
       stroke: black;
       stroke-dashoffset: 0;
       stroke-width: 128;
       }
       to {
       stroke: black;
       stroke-width: 1024;
       }
       }
       #make-me-a-hanzi-animation-10 {
         animation: keyframes10 0.847331s both;
         animation-delay: 8.404948s;
         animation-timing-function: linear;
       }
    @keyframes keyframes11 {
      from {
       stroke: black;
       stroke-dashoffset: 640;
       stroke-width: 128;
       }
       68% {
       animation-timing-function: step-end;
       stroke: black;
       stroke-dashoffset: 0;
       stroke-width: 128;
       }
       to {
       stroke: black;
       stroke-width: 1024;
       }
       }
       #make-me-a-hanzi-animation-11 {
         animation: keyframes11 0.770833s both;
         animation-delay: 9.252279s;
         animation-timing-function: linear;
       }
    @keyframes keyframes12 {
      from {
       stroke: black;
       stroke-dashoffset: 509;
       stroke-width: 128;
       }
       62% {
       animation-timing-function: step-end;
       stroke: black;
       stroke-dashoffset: 0;
       stroke-width: 128;
       }
       to {
       stroke: black;
       stroke-width: 1024;
       }
       }
       #make-me-a-hanzi-animation-12 {
         animation: keyframes12 0.664225s both;
         animation-delay: 10.023112s;
         animation-timing-function: linear;
       }
    @keyframes keyframes13 {
      from {
       stroke: black;
       stroke-dashoffset: 742;
       stroke-width: 128;
       }
       71% {
       animation-timing-function: step-end;
       stroke: black;
       stroke-dashoffset: 0;
       stroke-width: 128;
       }
       to {
       stroke: black;
       stroke-width: 1024;
       }
       }
       #make-me-a-hanzi-animation-13 {
         animation: keyframes13 0.853841s both;
         animation-delay: 10.687337s;
         animation-timing-function: linear;
       }
    @keyframes keyframes14 {
      from {
       stroke: black;
       stroke-dashoffset: 446;
       stroke-width: 128;
       }
       59% {
       animation-timing-function: step-end;
       stroke: black;
       stroke-dashoffset: 0;
       stroke-width: 128;
       }
       to {
       stroke: black;
       stroke-width: 1024;
       }
       }
       #make-me-a-hanzi-animation-14 {
         animation: keyframes14 0.612956s both;
         animation-delay: 11.541178s;
         animation-timing-function: linear;
       }
    @keyframes keyframes15 {
      from {
       stroke: black;
       stroke-dashoffset: 413;
       stroke-width: 128;
       }
       57% {
       animation-timing-function: step-end;
       stroke: black;
       stroke-dashoffset: 0;
       stroke-width: 128;
       }
       to {
       stroke: black;
       stroke-width: 1024;
       }
       }
       #make-me-a-hanzi-animation-15 {
         animation: keyframes15 0.586100s both;
         animation-delay: 12.154134s;
         animation-timing-function: linear;
       }
    @keyframes keyframes16 {
      from {
       stroke: black;
       stroke-dashoffset: 587;
       stroke-width: 128;
       }
       66% {
       animation-timing-function: step-end;
       stroke: black;
       stroke-dashoffset: 0;
       stroke-width: 128;
       }
       to {
       stroke: black;
       stroke-width: 1024;
       }
       }
       #make-me-a-hanzi-animation-16 {
         animation: keyframes16 0.727702s both;
         animation-delay: 12.740234s;
         animation-timing-function: linear;
       }
    @keyframes keyframes17 {
      from {
       stroke: black;
       stroke-dashoffset: 888;
       stroke-width: 128;
       }
       74% {
       animation-timing-function: step-end;
       stroke: black;
       stroke-dashoffset: 0;
       stroke-width: 128;
       }
       to {
       stroke: black;
       stroke-width: 1024;
       }
       }
       #make-me-a-hanzi-animation-17 {
         animation: keyframes17 0.972656s both;
         animation-delay: 13.467936s;
         animation-timing-function: linear;
       }
    @keyframes keyframes18 {
      from {
       stroke: black;
       stroke-dashoffset: 816;
       stroke-width: 128;
       }
       73% {
       animation-timing-function: step-end;
       stroke: black;
       stroke-dashoffset: 0;
       stroke-width: 128;
       }
       to {
       stroke: black;
       stroke-width: 1024;
       }
       }
       #make-me-a-hanzi-animation-18 {
         animation: keyframes18 0.914062s both;
         animation-delay: 14.440592s;
         animation-timing-function: linear;
       }
    @keyframes keyframes19 {
      from {
       stroke: black;
       stroke-dashoffset: 373;
       stroke-width: 128;
       }
       55% {
       animation-timing-function: step-end;
       stroke: black;
       stroke-dashoffset: 0;
       stroke-width: 128;
       }
       to {
       stroke: black;
       stroke-width: 1024;
       }
       }
       #make-me-a-hanzi-animation-19 {
         animation: keyframes19 0.553548s both;
         animation-delay: 15.354655s;
         animation-timing-function: linear;
       }
    @keyframes keyframes20 {
      from {
       stroke: black;
       stroke-dashoffset: 539;
       stroke-width: 128;
       }
       64% {
       animation-timing-function: step-end;
       stroke: black;
       stroke-dashoffset: 0;
       stroke-width: 128;
       }
       to {
       stroke: black;
       stroke-width: 1024;
       }
       }
       #make-me-a-hanzi-animation-20 {
         animation: keyframes20 0.688639s both;
         animation-delay: 15.908203s;
         animation-timing-function: linear;
       }
    @keyframes keyframes21 {
      from {
       stroke: black;
       stroke-dashoffset: 626;
       stroke-width: 128;
       }
       67% {
       animation-timing-function: step-end;
       stroke: black;
       stroke-dashoffset: 0;
       stroke-width: 128;
       }
       to {
       stroke: black;
       stroke-width: 1024;
       }
       }
       #make-me-a-hanzi-animation-21 {
         animation: keyframes21 0.759440s both;
         animation-delay: 16.596842s;
         animation-timing-function: linear;
       }
    @keyframes keyframes22 {
      from {
       stroke: black;
       stroke-dashoffset: 707;
       stroke-width: 128;
       }
       70% {
       animation-timing-function: step-end;
       stroke: black;
       stroke-dashoffset: 0;
       stroke-width: 128;
       }
       to {
       stroke: black;
       stroke-width: 1024;
       }
       }
       #make-me-a-hanzi-animation-22 {
         animation: keyframes22 0.825358s both;
         animation-delay: 17.356283s;
         animation-timing-function: linear;
       }
    @keyframes keyframes23 {
      from {
       stroke: black;
       stroke-dashoffset: 514;
       stroke-width: 128;
       }
       63% {
       animation-timing-function: step-end;
       stroke: black;
       stroke-dashoffset: 0;
       stroke-width: 128;
       }
       to {
       stroke: black;
       stroke-width: 1024;
       }
       }
       #make-me-a-hanzi-animation-23 {
         animation: keyframes23 0.668294s both;
         animation-delay: 18.181641s;
         animation-timing-function: linear;
       }
    @keyframes keyframes24 {
      from {
       stroke: black;
       stroke-dashoffset: 378;
       stroke-width: 128;
       }
       55% {
       animation-timing-function: step-end;
       stroke: black;
       stroke-dashoffset: 0;
       stroke-width: 128;
       }
       to {
       stroke: black;
       stroke-width: 1024;
       }
       }
       #make-me-a-hanzi-animation-24 {
         animation: keyframes24 0.557617s both;
         animation-delay: 18.849935s;
         animation-timing-function: linear;
       }
    @keyframes keyframes25 {
      from {
       stroke: black;
       stroke-dashoffset: 632;
       stroke-width: 128;
       }
       67% {
       animation-timing-function: step-end;
       stroke: black;
       stroke-dashoffset: 0;
       stroke-width: 128;
       }
       to {
       stroke: black;
       stroke-width: 1024;
       }
       }
       #make-me-a-hanzi-animation-25 {
         animation: keyframes25 0.764323s both;
         animation-delay: 19.407552s;
         animation-timing-function: linear;
       }
    @keyframes keyframes26 {
      from {
       stroke: black;
       stroke-dashoffset: 996;
       stroke-width: 128;
       }
       76% {
       animation-timing-function: step-end;
       stroke: black;
       stroke-dashoffset: 0;
       stroke-width: 128;
       }
       to {
       stroke: black;
       stroke-width: 1024;
       }
       }
       #make-me-a-hanzi-animation-26 {
         animation: keyframes26 1.060547s both;
         animation-delay: 20.171875s;
         animation-timing-function: linear;
       }
    @keyframes keyframes27 {
      from {
       stroke: black;
       stroke-dashoffset: 568;
       stroke-width: 128;
       }
       65% {
       animation-timing-function: step-end;
       stroke: black;
       stroke-dashoffset: 0;
       stroke-width: 128;
       }
       to {
       stroke: black;
       stroke-width: 1024;
       }
       }
       #make-me-a-hanzi-animation-27 {
         animation: keyframes27 0.712240s both;
         animation-delay: 21.232422s;
         animation-timing-function: linear;
       }
    @keyframes keyframes28 {
      from {
       stroke: black;
       stroke-dashoffset: 425;
       stroke-width: 128;
       }
       58% {
       animation-timing-function: step-end;
       stroke: black;
       stroke-dashoffset: 0;
       stroke-width: 128;
       }
       to {
       stroke: black;
       stroke-width: 1024;
       }
       }
       #make-me-a-hanzi-animation-28 {
         animation: keyframes28 0.595866s both;
         animation-delay: 21.944661s;
         animation-timing-function: linear;
       }
    @keyframes keyframes29 {
      from {
       stroke: black;
       stroke-dashoffset: 875;
       stroke-width: 128;
       }
       74% {
       animation-timing-function: step-end;
       stroke: black;
       stroke-dashoffset: 0;
       stroke-width: 128;
       }
       to {
       stroke: black;
       stroke-width: 1024;
       }
       }
       #make-me-a-hanzi-animation-29 {
         animation: keyframes29 0.962077s both;
         animation-delay: 22.540527s;
         animation-timing-function: linear;
       }
</style>
<path d="M 566 677 L 619 695 L 746 744 Q 762 745 767.5 758 Q 773 771 739.5 797.5 Q 706 824 696.5 821.5 Q 687 819 672.5 801.5 Q 658 784 607 753 Q 565 730 550 722 L 492 698 Q 465 686 433 677 L 355 656 Q 346 655 347 646 Q 349 640 359 641 L 391 643 Q 408 643 427 647 L 466 652 Q 469 652 484 655 L 509 660 L 566 677 Z" fill="lightgray"></path> 
<path d="M 561 528 L 731 551 L 762 557 Q 783 561 784 567 Q 786 572 782.5 578 Q 779 584 751 592.5 Q 723 601 710.5 600 Q 698 599 670 593 L 635 586 L 578 577 L 505 565 L 463 559 L 412 554 L 368 547 L 354 546 Q 340 544 339 538 Q 336 532 345 524 Q 374 495 492 519 L 561 528 Z" fill="lightgray"></path> 
<path d="M 507 400 L 567 405 Q 588 406 609 407 Q 630 408 650.5 410 Q 671 412 739 413 L 916 414 L 949 414 Q 972 414 978 420 Q 983 423 985.5 430 Q 988 437 977 445 Q 966 456 953 460 Q 911 482 897 482 Q 883 482 869 478 L 791 465 L 729 457 Q 709 455 670 451 L 523 438 L 455 431 L 337 416 Q 324 414 275.5 410 Q 227 406 198 406 L 161 406 Q 144 406 142 400.5 Q 140 395 143.5 387.5 Q 147 380 177 367 Q 207 354 222.5 354 Q 238 354 259 360 L 305 370 Q 329 376 350 379 L 395 387 L 439 396 L 507 400 Z" fill="lightgray"></path> 
<path d="M 443 298 L 459 320 L 487 370 L 507 400 L 523 438 L 561 528 L 578 577 L 585 595 L 595 614 L 610 636 Q 611 641 603 649 Q 598 657 587 663 L 566 677 C 541 694 507 690 509 660 L 511 633 L 510 630 L 509 619 L 509 586 L 507 574 Q 505 566 505 565 L 492 519 L 479 488 Q 479 484 469 460 Q 456 435 455 431 L 439 396 L 427 372 Q 338 212 179 76 L 91 9 Q 83 4 85 -4 Q 86 -11 99 -6 L 131 10 Q 154 20 196 46 Q 238 72 272 100 Q 345 160 379 207 L 423 266 L 443 298 Z" fill="lightgray"></path> 
<path d="M 431 242 L 432 234 L 433 222 Q 435 186 435 180 L 431 78 Q 430 64 425 39 L 415 -10 Q 410 -37 410 -42 Q 410 -64 434 -105 Q 442 -120 456 -120 Q 464 -118 467 -108 L 473 -86 L 475 -47 L 479 -16 L 479 15 L 480 22 L 481 34 L 483 62 L 487 145 L 488 180 L 488 210 Q 488 212 493 259 C 496 285 496 285 479 288 L 463 291 L 451 296 Q 447 296 443 298 C 414 307 412 294 423 266 L 431 245 Q 431 244 431 242 Z" fill="lightgray"></path> 
<path d="M 687 -72 L 714 -128 Q 733 -171 771 -122 Q 785 -104 796 -80 Q 806 -55 798 -4 Q 790 48 791 69 L 792 222 L 792 236 Q 792 250 795 254 L 802 270 Q 809 278 809 283 Q 809 288 802 296 Q 775 324 753 333 Q 730 341 726 340 L 611 311 L 571 303 L 479 288 C 449 283 463 254 493 259 L 584 274 Q 640 282 665 282 L 693 282 Q 712 282 722 276 Q 731 270 731 246 L 731 200 L 733 180 L 732 83 L 731 57 L 729 24 L 725 -9 Q 724 -24 720 -39 C 714 -68 674 -45 687 -72 Z" fill="lightgray"></path> 
<path d="M 487 145 L 509 142 L 527 142 Q 562 146 587 152 Q 611 157 652 161 Q 692 165 710 172 Q 727 178 733 180 C 759 189 759 189 731 200 L 716 206 L 694 211 Q 668 213 662 213 Q 656 213 571 193 Q 506 180 488 180 C 458 178 457 149 487 145 Z" fill="lightgray"></path> 
<path d="M 481 34 L 500 28 Q 510 26 518 26 Q 524 28 538 28 L 593 34 L 643 44 L 713 54 Q 724 56 731 57 C 761 62 761 75 732 83 L 695 93 Q 691 94 668 92 Q 645 90 622 85 L 578 76 L 533 70 Q 506 67 483 62 C 454 56 452 43 481 34 Z" fill="lightgray"></path> 
<path d="M 473 -86 L 505 -86 Q 519 -86 555 -82 L 633 -76 Q 639 -76 687 -72 C 717 -70 747 -52 720 -39 L 705 -32 L 695 -30 L 670 -24 L 550 -38 Q 534 -38 475 -47 C 445 -51 443 -86 473 -86 Z" fill="lightgray"></path> 
<path d="M 1325 586 L 1355 618 L 1369 636 L 1384 646 Q 1387 649 1389 658 Q 1391 666 1381 677 Q 1370 687 1348 701 Q 1325 715 1316 712 Q 1312 710 1310 705 L 1308 686 Q 1304 656 1278 616 L 1245 570 Q 1223 541 1209 527 L 1172 490 L 1146 468 Q 1134 457 1134 454 Q 1137 442 1158 455 L 1211 484 Q 1235 496 1283 544 L 1325 586 Z" fill="lightgray"></path> 
<path d="M 1069 148 L 1071 142 Q 1073 140 1090 148 L 1115 160 Q 1127 163 1150 182 L 1191 211 Q 1215 228 1230 244 Q 1251 262 1260 273 L 1281 294 L 1308 326 L 1334 360 Q 1342 369 1362 399 Q 1381 429 1390 438 L 1405 453 Q 1416 464 1406 478 Q 1396 491 1386 497 L 1361 512 Q 1332 526 1327 504 L 1325 476 Q 1324 462 1313 441 L 1289 396 L 1262 351 L 1224 302 L 1192 265 L 1155 226 Q 1136 204 1117 188 L 1086 164 Q 1069 150 1069 148 Z" fill="lightgray"></path> 
<path d="M 1281 294 L 1283 216 L 1274 98 Q 1272 73 1269 60 L 1259 28 Q 1251 7 1251 1 Q 1251 -5 1255 -18 L 1267 -52 Q 1275 -77 1284 -77 Q 1289 -79 1296 -73 Q 1302 -67 1307 -46 L 1314 -12 Q 1317 19 1318 53 L 1323 178 L 1336 252 Q 1340 276 1339 280 L 1329 297 L 1308 326 C 1290 350 1280 324 1281 294 Z" fill="lightgray"></path> 
<path d="M 1484 672 Q 1485 669 1498 656 Q 1512 650 1522 592 L 1537 489 Q 1537 486 1540 474 L 1544 458 Q 1549 440 1556 439 Q 1557 438 1559 439 Q 1565 438 1575 454 L 1577 488 L 1570 553 L 1569 578 L 1558 650 C 1554 674 1558 674 1556 674 L 1514 683 Q 1496 686 1491 686 Q 1485 686 1484 681 Q 1483 675 1484 672 Z" fill="lightgray"></path> 
<path d="M 1734 472 L 1743 454 Q 1745 451 1756 446 Q 1758 446 1767 449 Q 1776 452 1781 462 L 1790 476 Q 1795 485 1803 506 L 1836 594 Q 1856 644 1864 652 Q 1871 660 1872 660 L 1874 668 L 1869 678 Q 1862 686 1843 697 Q 1824 708 1809 714 Q 1786 719 1780 719 Q 1773 718 1750 712 L 1700 700 L 1556 674 C 1526 669 1528 649 1558 650 L 1591 651 Q 1605 652 1609 654 L 1726 672 Q 1752 676 1762 676 L 1776 672 Q 1781 668 1781 657 Q 1779 654 1779 650 L 1770 588 L 1766 568 L 1739 496 C 1732 477 1732 477 1734 472 Z" fill="lightgray"></path> 
<path d="M 1770 588 L 1725 601 L 1569 578 C 1539 574 1540 555 1570 553 L 1594 551 Q 1596 550 1621 553 L 1691 559 L 1744 566 Q 1760 566 1766 568 C 1795 574 1799 580 1770 588 Z" fill="lightgray"></path> 
<path d="M 1575 454 L 1734 472 C 1764 475 1766 483 1739 496 L 1722 504 Q 1716 506 1711 506 L 1695 506 L 1663 500 L 1577 488 C 1547 484 1545 451 1575 454 Z" fill="lightgray"></path> 
<path d="M 1559 331 Q 1580 331 1588 334 L 1681 345 L 1731 352 L 1797 362 Q 1836 367 1844 378 L 1846 386 Q 1843 398 1808 402 Q 1791 406 1782 406 L 1772 406 L 1676 386 L 1533 366 Q 1503 362 1501 358 Q 1498 353 1501 346 Q 1503 339 1523 337 Q 1543 335 1559 331 Z" fill="lightgray"></path> 
<path d="M 1696 264 L 1379 230 Q 1360 227 1360 219 Q 1361 215 1376 206 L 1393 196 L 1411 188 Q 1415 187 1437 192 Q 1459 197 1468 198 L 1525 208 L 1699 231 L 1754 235 L 1878 242 L 1959 243 Q 1965 242 1985 246 Q 1997 249 1999 254 L 1999 260 Q 1999 269 1982 279 Q 1965 288 1948 292 L 1926 297 L 1754 274 L 1696 264 Z" fill="lightgray"></path> 
<path d="M 1681 345 L 1693 302 L 1696 264 L 1699 231 L 1699 44 L 1695 6 Q 1696 -18 1688 -26 Q 1678 -47 1626 -28 L 1607 -22 Q 1591 -18 1588 -22 Q 1587 -26 1588 -30 L 1625 -63 L 1676 -120 Q 1684 -133 1692 -131 Q 1699 -130 1716 -118 Q 1732 -106 1744 -87 Q 1755 -68 1757 -35 Q 1758 -2 1758 38 L 1754 235 L 1754 274 L 1760 320 Q 1763 331 1762 335 Q 1757 347 1731 352 C 1702 360 1674 368 1681 345 Z" fill="lightgray"></path> 
<path d="M 1493 160 L 1537 100 Q 1549 83 1562 78 Q 1580 65 1592 80 Q 1597 84 1598 105 Q 1598 126 1590 137 Q 1581 148 1561 158 Q 1540 167 1532 169 L 1510 174 Q 1490 180 1489 174 Q 1488 173 1490 167 Q 1492 161 1493 160 Z" fill="lightgray"></path> 
<path d="M 2446 539 Q 2551 566 2556 571 Q 2563 578 2559 587 Q 2552 597 2524 604 Q 2496 608 2450 590 L 2396 572 Q 2299 554 2280 550 Q 2244 543 2271 528 Q 2304 507 2375 524 Q 2385 527 2397 528 L 2446 539 Z" fill="lightgray"></path> 
<path d="M 2437 428 Q 2441 486 2446 539 L 2450 590 Q 2450 657 2471 736 Q 2474 746 2454 762 Q 2418 781 2394 785 Q 2378 789 2370 780 Q 2363 773 2371 757 Q 2390 729 2391 709 Q 2395 643 2396 572 L 2397 528 Q 2397 476 2395 419 C 2394 389 2435 398 2437 428 Z" fill="lightgray"></path> 
<path d="M 2424 388 Q 2490 401 2569 411 Q 2585 412 2585 420 Q 2586 432 2570 441 Q 2545 451 2523 448 Q 2477 438 2437 428 L 2395 419 Q 2239 389 2137 378 Q 2125 377 2122 370 Q 2119 360 2133 349 Q 2170 322 2209 334 Q 2353 382 2383 381 L 2424 388 Z" fill="lightgray"></path> 
<path d="M 2437 133 Q 2441 199 2444 254 L 2446 284 Q 2449 365 2450 366 L 2449 367 Q 2436 380 2424 388 C 2400 406 2371 409 2383 381 Q 2392 369 2395 284 Q 2395 239 2395 158 C 2395 128 2435 103 2437 133 Z" fill="lightgray"></path> 
<path d="M 2444 254 Q 2447 254 2451 254 Q 2512 263 2558 268 Q 2583 272 2573 286 Q 2561 301 2535 305 Q 2496 309 2446 284 C 2419 271 2414 254 2444 254 Z" fill="lightgray"></path> 
<path d="M 2309 212 Q 2327 240 2346 264 Q 2356 277 2342 291 Q 2303 327 2276 323 Q 2264 322 2266 306 Q 2275 197 2150 70 Q 2141 67 2097 18 Q 2090 3 2104 7 Q 2161 16 2258 134 Q 2289 185 2293 187 L 2309 212 Z" fill="lightgray"></path> 
<path d="M 2293 187 Q 2449 63 2724 -70 Q 2758 -86 2820 -70 Q 2976 -22 2988 -9 Q 2988 -8 2989 -8 Q 2993 4 2974 3 Q 2881 9 2825 7 Q 2672 7 2472 115 Q 2454 124 2437 133 L 2395 158 Q 2352 185 2309 212 C 2284 228 2269 205 2293 187 Z" fill="lightgray"></path> 
<path d="M 2826 442 Q 2845 512 2867 533 Q 2889 558 2867 572 Q 2804 605 2802 605 Q 2792 605 2784 600 Q 2742 570 2652 556 Q 2640 556 2643 549 Q 2644 543 2657 537 Q 2672 530 2734 542 Q 2785 555 2792 546 Q 2799 540 2791 509 Q 2784 478 2775 441 C 2768 412 2818 413 2826 442 Z" fill="lightgray"></path> 
<path d="M 2688 383 Q 2695 392 2842 409 Q 2852 410 2853 419 Q 2853 426 2826 442 C 2811 451 2804 449 2775 441 Q 2717 425 2673 414 C 2644 407 2662 369 2688 383 Z" fill="lightgray"></path> 
<path d="M 2973 218 Q 2958 252 2946 310 Q 2945 323 2937 328 Q 2930 332 2927 314 Q 2915 244 2904 231 Q 2880 204 2778 204 Q 2723 205 2699 216 Q 2678 226 2674 241 Q 2670 257 2671 300 Q 2675 346 2685 369 Q 2688 376 2688 383 C 2693 401 2693 401 2673 414 Q 2633 442 2621 438 Q 2608 434 2615 418 Q 2633 387 2629 338 Q 2626 221 2658 193 Q 2682 175 2732 166 Q 2781 159 2859 160 Q 2929 161 2958 177 Q 2985 190 2973 218 Z" fill="lightgray"></path> 
      <clipPath id="make-me-a-hanzi-clip-0">
      <path d="M 566 677 L 619 695 L 746 744 Q 762 745 767.5 758 Q 773 771 739.5 797.5 Q 706 824 696.5 821.5 Q 687 819 672.5 801.5 Q 658 784 607 753 Q 565 730 550 722 L 492 698 Q 465 686 433 677 L 355 656 Q 346 655 347 646 Q 349 640 359 641 L 391 643 Q 408 643 427 647 L 466 652 Q 469 652 484 655 L 509 660 L 566 677 Z" fill="lightgray"></path>
      </clipPath>
      <path clip-path="url(#make-me-a-hanzi-clip-0)" d="M 752 762 L 703 773 L 657 745 L 552 697 L 475 671 L 355 648 " fill="none" id="make-me-a-hanzi-animation-0" stroke-dasharray="551 1102" stroke-linecap="round"></path>

      <clipPath id="make-me-a-hanzi-clip-1">
      <path d="M 561 528 L 731 551 L 762 557 Q 783 561 784 567 Q 786 572 782.5 578 Q 779 584 751 592.5 Q 723 601 710.5 600 Q 698 599 670 593 L 635 586 L 578 577 L 505 565 L 463 559 L 412 554 L 368 547 L 354 546 Q 340 544 339 538 Q 336 532 345 524 Q 374 495 492 519 L 561 528 Z" fill="lightgray"></path>
      </clipPath>
      <path clip-path="url(#make-me-a-hanzi-clip-1)" d="M 349 534 L 370 529 L 456 534 L 715 575 L 775 571 " fill="none" id="make-me-a-hanzi-animation-1" stroke-dasharray="558 1116" stroke-linecap="round"></path>

      <clipPath id="make-me-a-hanzi-clip-2">
      <path d="M 507 400 L 567 405 Q 588 406 609 407 Q 630 408 650.5 410 Q 671 412 739 413 L 916 414 L 949 414 Q 972 414 978 420 Q 983 423 985.5 430 Q 988 437 977 445 Q 966 456 953 460 Q 911 482 897 482 Q 883 482 869 478 L 791 465 L 729 457 Q 709 455 670 451 L 523 438 L 455 431 L 337 416 Q 324 414 275.5 410 Q 227 406 198 406 L 161 406 Q 144 406 142 400.5 Q 140 395 143.5 387.5 Q 147 380 177 367 Q 207 354 222.5 354 Q 238 354 259 360 L 305 370 Q 329 376 350 379 L 395 387 L 439 396 L 507 400 Z" fill="lightgray"></path>
      </clipPath>
      <path clip-path="url(#make-me-a-hanzi-clip-2)" d="M 150 395 L 226 380 L 435 413 L 892 448 L 972 432 " fill="none" id="make-me-a-hanzi-animation-2" stroke-dasharray="957 1914" stroke-linecap="round"></path>

      <clipPath id="make-me-a-hanzi-clip-3">
      <path d="M 443 298 L 459 320 L 487 370 L 507 400 L 523 438 L 561 528 L 578 577 L 585 595 L 595 614 L 610 636 Q 611 641 603 649 Q 598 657 587 663 L 566 677 C 541 694 507 690 509 660 L 511 633 L 510 630 L 509 619 L 509 586 L 507 574 Q 505 566 505 565 L 492 519 L 479 488 Q 479 484 469 460 Q 456 435 455 431 L 439 396 L 427 372 Q 338 212 179 76 L 91 9 Q 83 4 85 -4 Q 86 -11 99 -6 L 131 10 Q 154 20 196 46 Q 238 72 272 100 Q 345 160 379 207 L 423 266 L 443 298 Z" fill="lightgray"></path>
      </clipPath>
      <path clip-path="url(#make-me-a-hanzi-clip-3)" d="M 597 637 L 554 629 L 529 533 L 479 411 L 434 330 L 348 209 L 278 135 L 207 74 L 93 0 " fill="none" id="make-me-a-hanzi-animation-3" stroke-dasharray="975 1950" stroke-linecap="round"></path>

      <clipPath id="make-me-a-hanzi-clip-4">
      <path d="M 431 242 L 432 234 L 433 222 Q 435 186 435 180 L 431 78 Q 430 64 425 39 L 415 -10 Q 410 -37 410 -42 Q 410 -64 434 -105 Q 442 -120 456 -120 Q 464 -118 467 -108 L 473 -86 L 475 -47 L 479 -16 L 479 15 L 480 22 L 481 34 L 483 62 L 487 145 L 488 180 L 488 210 Q 488 212 493 259 C 496 285 496 285 479 288 L 463 291 L 451 296 Q 447 296 443 298 C 414 307 412 294 423 266 L 431 245 Q 431 244 431 242 Z" fill="lightgray"></path>
      </clipPath>
      <path clip-path="url(#make-me-a-hanzi-clip-4)" d="M 445 289 L 462 251 L 458 84 L 443 -44 L 453 -107 " fill="none" id="make-me-a-hanzi-animation-4" stroke-dasharray="529 1058" stroke-linecap="round"></path>

      <clipPath id="make-me-a-hanzi-clip-5">
      <path d="M 687 -72 L 714 -128 Q 733 -171 771 -122 Q 785 -104 796 -80 Q 806 -55 798 -4 Q 790 48 791 69 L 792 222 L 792 236 Q 792 250 795 254 L 802 270 Q 809 278 809 283 Q 809 288 802 296 Q 775 324 753 333 Q 730 341 726 340 L 611 311 L 571 303 L 479 288 C 449 283 463 254 493 259 L 584 274 Q 640 282 665 282 L 693 282 Q 712 282 722 276 Q 731 270 731 246 L 731 200 L 733 180 L 732 83 L 731 57 L 729 24 L 725 -9 Q 724 -24 720 -39 C 714 -68 674 -45 687 -72 Z" fill="lightgray"></path>
      </clipPath>
      <path clip-path="url(#make-me-a-hanzi-clip-5)" d="M 487 286 L 496 278 L 513 277 L 652 302 L 727 308 L 760 286 L 762 -34 L 759 -56 L 743 -84 L 737 -127 " fill="none" id="make-me-a-hanzi-animation-5" stroke-dasharray="831 1662" stroke-linecap="round"></path>

      <clipPath id="make-me-a-hanzi-clip-6">
      <path d="M 487 145 L 509 142 L 527 142 Q 562 146 587 152 Q 611 157 652 161 Q 692 165 710 172 Q 727 178 733 180 C 759 189 759 189 731 200 L 716 206 L 694 211 Q 668 213 662 213 Q 656 213 571 193 Q 506 180 488 180 C 458 178 457 149 487 145 Z" fill="lightgray"></path>
      </clipPath>
      <path clip-path="url(#make-me-a-hanzi-clip-6)" d="M 492 174 L 514 162 L 663 188 L 717 190 L 726 184 " fill="none" id="make-me-a-hanzi-animation-6" stroke-dasharray="369 738" stroke-linecap="round"></path>

      <clipPath id="make-me-a-hanzi-clip-7">
      <path d="M 481 34 L 500 28 Q 510 26 518 26 Q 524 28 538 28 L 593 34 L 643 44 L 713 54 Q 724 56 731 57 C 761 62 761 75 732 83 L 695 93 Q 691 94 668 92 Q 645 90 622 85 L 578 76 L 533 70 Q 506 67 483 62 C 454 56 452 43 481 34 Z" fill="lightgray"></path>
      </clipPath>
      <path clip-path="url(#make-me-a-hanzi-clip-7)" d="M 488 41 L 679 72 L 709 72 L 726 64 " fill="none" id="make-me-a-hanzi-animation-7" stroke-dasharray="370 740" stroke-linecap="round"></path>

      <clipPath id="make-me-a-hanzi-clip-8">
      <path d="M 473 -86 L 505 -86 Q 519 -86 555 -82 L 633 -76 Q 639 -76 687 -72 C 717 -70 747 -52 720 -39 L 705 -32 L 695 -30 L 670 -24 L 550 -38 Q 534 -38 475 -47 C 445 -51 443 -86 473 -86 Z" fill="lightgray"></path>
      </clipPath>
      <path clip-path="url(#make-me-a-hanzi-clip-8)" d="M 478 -80 L 492 -67 L 509 -63 L 713 -43 " fill="none" id="make-me-a-hanzi-animation-8" stroke-dasharray="370 740" stroke-linecap="round"></path>

      <clipPath id="make-me-a-hanzi-clip-9">
      <path d="M 1325 586 L 1355 618 L 1369 636 L 1384 646 Q 1387 649 1389 658 Q 1391 666 1381 677 Q 1370 687 1348 701 Q 1325 715 1316 712 Q 1312 710 1310 705 L 1308 686 Q 1304 656 1278 616 L 1245 570 Q 1223 541 1209 527 L 1172 490 L 1146 468 Q 1134 457 1134 454 Q 1137 442 1158 455 L 1211 484 Q 1235 496 1283 544 L 1325 586 Z" fill="lightgray"></path>
      </clipPath>
      <path clip-path="url(#make-me-a-hanzi-clip-9)" d="M 1320 703 L 1341 661 L 1318 623 L 1235 525 L 1140 454 " fill="none" id="make-me-a-hanzi-animation-9" stroke-dasharray="466 932" stroke-linecap="round"></path>

      <clipPath id="make-me-a-hanzi-clip-10">
      <path d="M 1069 148 L 1071 142 Q 1073 140 1090 148 L 1115 160 Q 1127 163 1150 182 L 1191 211 Q 1215 228 1230 244 Q 1251 262 1260 273 L 1281 294 L 1308 326 L 1334 360 Q 1342 369 1362 399 Q 1381 429 1390 438 L 1405 453 Q 1416 464 1406 478 Q 1396 491 1386 497 L 1361 512 Q 1332 526 1327 504 L 1325 476 Q 1324 462 1313 441 L 1289 396 L 1262 351 L 1224 302 L 1192 265 L 1155 226 Q 1136 204 1117 188 L 1086 164 Q 1069 150 1069 148 Z" fill="lightgray"></path>
      </clipPath>
      <path clip-path="url(#make-me-a-hanzi-clip-10)" d="M 1342 503 L 1362 464 L 1284 337 L 1186 230 L 1124 177 L 1074 146 " fill="none" id="make-me-a-hanzi-animation-10" stroke-dasharray="606 1212" stroke-linecap="round"></path>

      <clipPath id="make-me-a-hanzi-clip-11">
      <path d="M 1281 294 L 1283 216 L 1274 98 Q 1272 73 1269 60 L 1259 28 Q 1251 7 1251 1 Q 1251 -5 1255 -18 L 1267 -52 Q 1275 -77 1284 -77 Q 1289 -79 1296 -73 Q 1302 -67 1307 -46 L 1314 -12 Q 1317 19 1318 53 L 1323 178 L 1336 252 Q 1340 276 1339 280 L 1329 297 L 1308 326 C 1290 350 1280 324 1281 294 Z" fill="lightgray"></path>
      </clipPath>
      <path clip-path="url(#make-me-a-hanzi-clip-11)" d="M 1307 318 L 1307 219 L 1296 77 L 1283 -4 L 1286 -64 " fill="none" id="make-me-a-hanzi-animation-11" stroke-dasharray="512 1024" stroke-linecap="round"></path>

      <clipPath id="make-me-a-hanzi-clip-12">
      <path d="M 1484 672 Q 1485 669 1498 656 Q 1512 650 1522 592 L 1537 489 Q 1537 486 1540 474 L 1544 458 Q 1549 440 1556 439 Q 1557 438 1559 439 Q 1565 438 1575 454 L 1577 488 L 1570 553 L 1569 578 L 1558 650 C 1554 674 1558 674 1556 674 L 1514 683 Q 1496 686 1491 686 Q 1485 686 1484 681 Q 1483 675 1484 672 Z" fill="lightgray"></path>
      </clipPath>
      <path clip-path="url(#make-me-a-hanzi-clip-12)" d="M 1493 677 L 1532 653 L 1536 639 L 1547 582 L 1558 448 " fill="none" id="make-me-a-hanzi-animation-12" stroke-dasharray="381 762" stroke-linecap="round"></path>

      <clipPath id="make-me-a-hanzi-clip-13">
      <path d="M 1734 472 L 1743 454 Q 1745 451 1756 446 Q 1758 446 1767 449 Q 1776 452 1781 462 L 1790 476 Q 1795 485 1803 506 L 1836 594 Q 1856 644 1864 652 Q 1871 660 1872 660 L 1874 668 L 1869 678 Q 1862 686 1843 697 Q 1824 708 1809 714 Q 1786 719 1780 719 Q 1773 718 1750 712 L 1700 700 L 1556 674 C 1526 669 1528 649 1558 650 L 1591 651 Q 1605 652 1609 654 L 1726 672 Q 1752 676 1762 676 L 1776 672 Q 1781 668 1781 657 Q 1779 654 1779 650 L 1770 588 L 1766 568 L 1739 496 C 1732 477 1732 477 1734 472 Z" fill="lightgray"></path>
      </clipPath>
      <path clip-path="url(#make-me-a-hanzi-clip-13)" d="M 1563 656 L 1580 665 L 1764 697 L 1803 685 L 1822 662 L 1796 567 L 1757 463 " fill="none" id="make-me-a-hanzi-animation-13" stroke-dasharray="614 1228" stroke-linecap="round"></path>

      <clipPath id="make-me-a-hanzi-clip-14">
      <path d="M 1770 588 L 1725 601 L 1569 578 C 1539 574 1540 555 1570 553 L 1594 551 Q 1596 550 1621 553 L 1691 559 L 1744 566 Q 1760 566 1766 568 C 1795 574 1799 580 1770 588 Z" fill="lightgray"></path>
      </clipPath>
      <path clip-path="url(#make-me-a-hanzi-clip-14)" d="M 1577 560 L 1584 566 L 1728 583 L 1755 579 L 1761 585 " fill="none" id="make-me-a-hanzi-animation-14" stroke-dasharray="318 636" stroke-linecap="round"></path>

      <clipPath id="make-me-a-hanzi-clip-15">
      <path d="M 1575 454 L 1734 472 C 1764 475 1766 483 1739 496 L 1722 504 Q 1716 506 1711 506 L 1695 506 L 1663 500 L 1577 488 C 1547 484 1545 451 1575 454 Z" fill="lightgray"></path>
      </clipPath>
      <path clip-path="url(#make-me-a-hanzi-clip-15)" d="M 1582 459 L 1601 475 L 1732 491 " fill="none" id="make-me-a-hanzi-animation-15" stroke-dasharray="285 570" stroke-linecap="round"></path>

      <clipPath id="make-me-a-hanzi-clip-16">
      <path d="M 1559 331 Q 1580 331 1588 334 L 1681 345 L 1731 352 L 1797 362 Q 1836 367 1844 378 L 1846 386 Q 1843 398 1808 402 Q 1791 406 1782 406 L 1772 406 L 1676 386 L 1533 366 Q 1503 362 1501 358 Q 1498 353 1501 346 Q 1503 339 1523 337 Q 1543 335 1559 331 Z" fill="lightgray"></path>
      </clipPath>
      <path clip-path="url(#make-me-a-hanzi-clip-16)" d="M 1508 352 L 1567 350 L 1777 383 L 1836 384 " fill="none" id="make-me-a-hanzi-animation-16" stroke-dasharray="459 918" stroke-linecap="round"></path>

      <clipPath id="make-me-a-hanzi-clip-17">
      <path d="M 1696 264 L 1379 230 Q 1360 227 1360 219 Q 1361 215 1376 206 L 1393 196 L 1411 188 Q 1415 187 1437 192 Q 1459 197 1468 198 L 1525 208 L 1699 231 L 1754 235 L 1878 242 L 1959 243 Q 1965 242 1985 246 Q 1997 249 1999 254 L 1999 260 Q 1999 269 1982 279 Q 1965 288 1948 292 L 1926 297 L 1754 274 L 1696 264 Z" fill="lightgray"></path>
      </clipPath>
      <path clip-path="url(#make-me-a-hanzi-clip-17)" d="M 1366 220 L 1415 211 L 1750 255 L 1922 270 L 1992 257 " fill="none" id="make-me-a-hanzi-animation-17" stroke-dasharray="760 1520" stroke-linecap="round"></path>

      <clipPath id="make-me-a-hanzi-clip-18">
      <path d="M 1681 345 L 1693 302 L 1696 264 L 1699 231 L 1699 44 L 1695 6 Q 1696 -18 1688 -26 Q 1678 -47 1626 -28 L 1607 -22 Q 1591 -18 1588 -22 Q 1587 -26 1588 -30 L 1625 -63 L 1676 -120 Q 1684 -133 1692 -131 Q 1699 -130 1716 -118 Q 1732 -106 1744 -87 Q 1755 -68 1757 -35 Q 1758 -2 1758 38 L 1754 235 L 1754 274 L 1760 320 Q 1763 331 1762 335 Q 1757 347 1731 352 C 1702 360 1674 368 1681 345 Z" fill="lightgray"></path>
      </clipPath>
      <path clip-path="url(#make-me-a-hanzi-clip-18)" d="M 1688 339 L 1725 316 L 1725 -27 L 1713 -59 L 1696 -76 L 1645 -56 L 1593 -26 " fill="none" id="make-me-a-hanzi-animation-18" stroke-dasharray="688 1376" stroke-linecap="round"></path>

      <clipPath id="make-me-a-hanzi-clip-19">
      <path d="M 1493 160 L 1537 100 Q 1549 83 1562 78 Q 1580 65 1592 80 Q 1597 84 1598 105 Q 1598 126 1590 137 Q 1581 148 1561 158 Q 1540 167 1532 169 L 1510 174 Q 1490 180 1489 174 Q 1488 173 1490 167 Q 1492 161 1493 160 Z" fill="lightgray"></path>
      </clipPath>
      <path clip-path="url(#make-me-a-hanzi-clip-19)" d="M 1494 171 L 1553 129 L 1576 91 " fill="none" id="make-me-a-hanzi-animation-19" stroke-dasharray="245 490" stroke-linecap="round"></path>

      <clipPath id="make-me-a-hanzi-clip-20">
      <path d="M 2446 539 Q 2551 566 2556 571 Q 2563 578 2559 587 Q 2552 597 2524 604 Q 2496 608 2450 590 L 2396 572 Q 2299 554 2280 550 Q 2244 543 2271 528 Q 2304 507 2375 524 Q 2385 527 2397 528 L 2446 539 Z" fill="lightgray"></path>
      </clipPath>
      <path clip-path="url(#make-me-a-hanzi-clip-20)" d="M 2272 540 L 2328 537 L 2398 550 L 2507 581 L 2549 580 " fill="none" id="make-me-a-hanzi-animation-20" stroke-dasharray="411 822" stroke-linecap="round"></path>

      <clipPath id="make-me-a-hanzi-clip-21">
      <path d="M 2437 428 Q 2441 486 2446 539 L 2450 590 Q 2450 657 2471 736 Q 2474 746 2454 762 Q 2418 781 2394 785 Q 2378 789 2370 780 Q 2363 773 2371 757 Q 2390 729 2391 709 Q 2395 643 2396 572 L 2397 528 Q 2397 476 2395 419 C 2394 389 2435 398 2437 428 Z" fill="lightgray"></path>
      </clipPath>
      <path clip-path="url(#make-me-a-hanzi-clip-21)" d="M 2382 771 L 2428 731 L 2418 454 L 2401 427 " fill="none" id="make-me-a-hanzi-animation-21" stroke-dasharray="498 996" stroke-linecap="round"></path>

      <clipPath id="make-me-a-hanzi-clip-22">
      <path d="M 2424 388 Q 2490 401 2569 411 Q 2585 412 2585 420 Q 2586 432 2570 441 Q 2545 451 2523 448 Q 2477 438 2437 428 L 2395 419 Q 2239 389 2137 378 Q 2125 377 2122 370 Q 2119 360 2133 349 Q 2170 322 2209 334 Q 2353 382 2383 381 L 2424 388 Z" fill="lightgray"></path>
      </clipPath>
      <path clip-path="url(#make-me-a-hanzi-clip-22)" d="M 2132 366 L 2164 357 L 2196 358 L 2336 392 L 2505 424 L 2557 428 L 2574 423 " fill="none" id="make-me-a-hanzi-animation-22" stroke-dasharray="579 1158" stroke-linecap="round"></path>

      <clipPath id="make-me-a-hanzi-clip-23">
      <path d="M 2437 133 Q 2441 199 2444 254 L 2446 284 Q 2449 365 2450 366 L 2449 367 Q 2436 380 2424 388 C 2400 406 2371 409 2383 381 Q 2392 369 2395 284 Q 2395 239 2395 158 C 2395 128 2435 103 2437 133 Z" fill="lightgray"></path>
      </clipPath>
      <path clip-path="url(#make-me-a-hanzi-clip-23)" d="M 2390 381 L 2420 352 L 2417 171 L 2435 141 " fill="none" id="make-me-a-hanzi-animation-23" stroke-dasharray="386 772" stroke-linecap="round"></path>

      <clipPath id="make-me-a-hanzi-clip-24">
      <path d="M 2444 254 Q 2447 254 2451 254 Q 2512 263 2558 268 Q 2583 272 2573 286 Q 2561 301 2535 305 Q 2496 309 2446 284 C 2419 271 2414 254 2444 254 Z" fill="lightgray"></path>
      </clipPath>
      <path clip-path="url(#make-me-a-hanzi-clip-24)" d="M 2448 261 L 2462 274 L 2516 285 L 2563 279 " fill="none" id="make-me-a-hanzi-animation-24" stroke-dasharray="250 500" stroke-linecap="round"></path>

      <clipPath id="make-me-a-hanzi-clip-25">
      <path d="M 2309 212 Q 2327 240 2346 264 Q 2356 277 2342 291 Q 2303 327 2276 323 Q 2264 322 2266 306 Q 2275 197 2150 70 Q 2141 67 2097 18 Q 2090 3 2104 7 Q 2161 16 2258 134 Q 2289 185 2293 187 L 2309 212 Z" fill="lightgray"></path>
      </clipPath>
      <path clip-path="url(#make-me-a-hanzi-clip-25)" d="M 2277 311 L 2304 273 L 2248 156 L 2209 105 L 2161 56 L 2107 16 " fill="none" id="make-me-a-hanzi-animation-25" stroke-dasharray="504 1008" stroke-linecap="round"></path>

      <clipPath id="make-me-a-hanzi-clip-26">
      <path d="M 2293 187 Q 2449 63 2724 -70 Q 2758 -86 2820 -70 Q 2976 -22 2988 -9 Q 2988 -8 2989 -8 Q 2993 4 2974 3 Q 2881 9 2825 7 Q 2672 7 2472 115 Q 2454 124 2437 133 L 2395 158 Q 2352 185 2309 212 C 2284 228 2269 205 2293 187 Z" fill="lightgray"></path>
      </clipPath>
      <path clip-path="url(#make-me-a-hanzi-clip-26)" d="M 2311 202 L 2314 190 L 2360 158 L 2511 68 L 2631 11 L 2734 -28 L 2804 -33 L 2984 -4 " fill="none" id="make-me-a-hanzi-animation-26" stroke-dasharray="868 1736" stroke-linecap="round"></path>

      <clipPath id="make-me-a-hanzi-clip-27">
      <path d="M 2826 442 Q 2845 512 2867 533 Q 2889 558 2867 572 Q 2804 605 2802 605 Q 2792 605 2784 600 Q 2742 570 2652 556 Q 2640 556 2643 549 Q 2644 543 2657 537 Q 2672 530 2734 542 Q 2785 555 2792 546 Q 2799 540 2791 509 Q 2784 478 2775 441 C 2768 412 2818 413 2826 442 Z" fill="lightgray"></path>
      </clipPath>
      <path clip-path="url(#make-me-a-hanzi-clip-27)" d="M 2650 549 L 2671 546 L 2720 554 L 2793 575 L 2821 561 L 2831 549 L 2811 477 L 2806 466 L 2781 447 " fill="none" id="make-me-a-hanzi-animation-27" stroke-dasharray="440 880" stroke-linecap="round"></path>

      <clipPath id="make-me-a-hanzi-clip-28">
      <path d="M 2688 383 Q 2695 392 2842 409 Q 2852 410 2853 419 Q 2853 426 2826 442 C 2811 451 2804 449 2775 441 Q 2717 425 2673 414 C 2644 407 2662 369 2688 383 Z" fill="lightgray"></path>
      </clipPath>
      <path clip-path="url(#make-me-a-hanzi-clip-28)" d="M 2686 389 L 2696 404 L 2782 422 L 2820 424 L 2844 418 " fill="none" id="make-me-a-hanzi-animation-28" stroke-dasharray="297 594" stroke-linecap="round"></path>

      <clipPath id="make-me-a-hanzi-clip-29">
      <path d="M 2973 218 Q 2958 252 2946 310 Q 2945 323 2937 328 Q 2930 332 2927 314 Q 2915 244 2904 231 Q 2880 204 2778 204 Q 2723 205 2699 216 Q 2678 226 2674 241 Q 2670 257 2671 300 Q 2675 346 2685 369 Q 2688 376 2688 383 C 2693 401 2693 401 2673 414 Q 2633 442 2621 438 Q 2608 434 2615 418 Q 2633 387 2629 338 Q 2626 221 2658 193 Q 2682 175 2732 166 Q 2781 159 2859 160 Q 2929 161 2958 177 Q 2985 190 2973 218 Z" fill="lightgray"></path>
      </clipPath>
      <path clip-path="url(#make-me-a-hanzi-clip-29)" d="M 2624 426 L 2651 400 L 2656 386 L 2649 306 L 2654 241 L 2670 210 L 2698 195 L 2741 185 L 2814 182 L 2885 188 L 2932 206 L 2937 230 L 2936 321 " fill="none" id="make-me-a-hanzi-animation-29" stroke-dasharray="747 1494" stroke-linecap="round"></path>

</g>
</svg>
