<svg version="1.1" viewBox="0 0 2048 1024" xmlns="http://www.w3.org/2000/svg">
  <g stroke="lightgray" stroke-dasharray="1,1" stroke-width="1" transform="scale(4, 4)">
    <line x1="0" y1="0" x2="256" y2="256"></line>
    <line x1="256" y1="0" x2="0" y2="256"></line>
    <line x1="128" y1="0" x2="128" y2="256"></line>
    <line x1="0" y1="128" x2="256" y2="128"></line>
    <line x1="256" y1="0" x2="512" y2="256"></line>
    <line x1="512" y1="0" x2="256" y2="256"></line>
    <line x1="384" y1="0" x2="384" y2="256"></line>
    <line x1="256" y1="128" x2="512" y2="128"></line>
  </g>
<g transform="scale(1, -1) translate(0, -850)">
   <style type="text/css">
    @keyframes keyframes0 {
      from {
       stroke: black;
       stroke-dashoffset: 849;
       stroke-width: 128;
       }
       73% {
       animation-timing-function: step-end;
       stroke: black;
       stroke-dashoffset: 0;
       stroke-width: 128;
       }
       to {
       stroke: black;
       stroke-width: 1024;
       }
       }
       #make-me-a-hanzi-animation-0 {
         animation: keyframes0 0.940918s both;
         animation-delay: 0.000000s;
         animation-timing-function: linear;
       }
    @keyframes keyframes1 {
      from {
       stroke: black;
       stroke-dashoffset: 554;
       stroke-width: 128;
       }
       64% {
       animation-timing-function: step-end;
       stroke: black;
       stroke-dashoffset: 0;
       stroke-width: 128;
       }
       to {
       stroke: black;
       stroke-width: 1024;
       }
       }
       #make-me-a-hanzi-animation-1 {
         animation: keyframes1 0.700846s both;
         animation-delay: 0.940918s;
         animation-timing-function: linear;
       }
    @keyframes keyframes2 {
      from {
       stroke: black;
       stroke-dashoffset: 667;
       stroke-width: 128;
       }
       68% {
       animation-timing-function: step-end;
       stroke: black;
       stroke-dashoffset: 0;
       stroke-width: 128;
       }
       to {
       stroke: black;
       stroke-width: 1024;
       }
       }
       #make-me-a-hanzi-animation-2 {
         animation: keyframes2 0.792806s both;
         animation-delay: 1.641764s;
         animation-timing-function: linear;
       }
    @keyframes keyframes3 {
      from {
       stroke: black;
       stroke-dashoffset: 901;
       stroke-width: 128;
       }
       75% {
       animation-timing-function: step-end;
       stroke: black;
       stroke-dashoffset: 0;
       stroke-width: 128;
       }
       to {
       stroke: black;
       stroke-width: 1024;
       }
       }
       #make-me-a-hanzi-animation-3 {
         animation: keyframes3 0.983236s both;
         animation-delay: 2.434570s;
         animation-timing-function: linear;
       }
    @keyframes keyframes4 {
      from {
       stroke: black;
       stroke-dashoffset: 495;
       stroke-width: 128;
       }
       62% {
       animation-timing-function: step-end;
       stroke: black;
       stroke-dashoffset: 0;
       stroke-width: 128;
       }
       to {
       stroke: black;
       stroke-width: 1024;
       }
       }
       #make-me-a-hanzi-animation-4 {
         animation: keyframes4 0.652832s both;
         animation-delay: 3.417806s;
         animation-timing-function: linear;
       }
    @keyframes keyframes5 {
      from {
       stroke: black;
       stroke-dashoffset: 499;
       stroke-width: 128;
       }
       62% {
       animation-timing-function: step-end;
       stroke: black;
       stroke-dashoffset: 0;
       stroke-width: 128;
       }
       to {
       stroke: black;
       stroke-width: 1024;
       }
       }
       #make-me-a-hanzi-animation-5 {
         animation: keyframes5 0.656087s both;
         animation-delay: 4.070638s;
         animation-timing-function: linear;
       }
    @keyframes keyframes6 {
      from {
       stroke: black;
       stroke-dashoffset: 494;
       stroke-width: 128;
       }
       62% {
       animation-timing-function: step-end;
       stroke: black;
       stroke-dashoffset: 0;
       stroke-width: 128;
       }
       to {
       stroke: black;
       stroke-width: 1024;
       }
       }
       #make-me-a-hanzi-animation-6 {
         animation: keyframes6 0.652018s both;
         animation-delay: 4.726725s;
         animation-timing-function: linear;
       }
    @keyframes keyframes7 {
      from {
       stroke: black;
       stroke-dashoffset: 1063;
       stroke-width: 128;
       }
       78% {
       animation-timing-function: step-end;
       stroke: black;
       stroke-dashoffset: 0;
       stroke-width: 128;
       }
       to {
       stroke: black;
       stroke-width: 1024;
       }
       }
       #make-me-a-hanzi-animation-7 {
         animation: keyframes7 1.115072s both;
         animation-delay: 5.378743s;
         animation-timing-function: linear;
       }
    @keyframes keyframes8 {
      from {
       stroke: black;
       stroke-dashoffset: 567;
       stroke-width: 128;
       }
       65% {
       animation-timing-function: step-end;
       stroke: black;
       stroke-dashoffset: 0;
       stroke-width: 128;
       }
       to {
       stroke: black;
       stroke-width: 1024;
       }
       }
       #make-me-a-hanzi-animation-8 {
         animation: keyframes8 0.711426s both;
         animation-delay: 6.493815s;
         animation-timing-function: linear;
       }
    @keyframes keyframes9 {
      from {
       stroke: black;
       stroke-dashoffset: 503;
       stroke-width: 128;
       }
       62% {
       animation-timing-function: step-end;
       stroke: black;
       stroke-dashoffset: 0;
       stroke-width: 128;
       }
       to {
       stroke: black;
       stroke-width: 1024;
       }
       }
       #make-me-a-hanzi-animation-9 {
         animation: keyframes9 0.659342s both;
         animation-delay: 7.205241s;
         animation-timing-function: linear;
       }
    @keyframes keyframes10 {
      from {
       stroke: black;
       stroke-dashoffset: 800;
       stroke-width: 128;
       }
       72% {
       animation-timing-function: step-end;
       stroke: black;
       stroke-dashoffset: 0;
       stroke-width: 128;
       }
       to {
       stroke: black;
       stroke-width: 1024;
       }
       }
       #make-me-a-hanzi-animation-10 {
         animation: keyframes10 0.901042s both;
         animation-delay: 7.864583s;
         animation-timing-function: linear;
       }
    @keyframes keyframes11 {
      from {
       stroke: black;
       stroke-dashoffset: 793;
       stroke-width: 128;
       }
       72% {
       animation-timing-function: step-end;
       stroke: black;
       stroke-dashoffset: 0;
       stroke-width: 128;
       }
       to {
       stroke: black;
       stroke-width: 1024;
       }
       }
       #make-me-a-hanzi-animation-11 {
         animation: keyframes11 0.895345s both;
         animation-delay: 8.765625s;
         animation-timing-function: linear;
       }
    @keyframes keyframes12 {
      from {
       stroke: black;
       stroke-dashoffset: 886;
       stroke-width: 128;
       }
       74% {
       animation-timing-function: step-end;
       stroke: black;
       stroke-dashoffset: 0;
       stroke-width: 128;
       }
       to {
       stroke: black;
       stroke-width: 1024;
       }
       }
       #make-me-a-hanzi-animation-12 {
         animation: keyframes12 0.971029s both;
         animation-delay: 9.660970s;
         animation-timing-function: linear;
       }
    @keyframes keyframes13 {
      from {
       stroke: black;
       stroke-dashoffset: 619;
       stroke-width: 128;
       }
       67% {
       animation-timing-function: step-end;
       stroke: black;
       stroke-dashoffset: 0;
       stroke-width: 128;
       }
       to {
       stroke: black;
       stroke-width: 1024;
       }
       }
       #make-me-a-hanzi-animation-13 {
         animation: keyframes13 0.753743s both;
         animation-delay: 10.631999s;
         animation-timing-function: linear;
       }
    @keyframes keyframes14 {
      from {
       stroke: black;
       stroke-dashoffset: 387;
       stroke-width: 128;
       }
       56% {
       animation-timing-function: step-end;
       stroke: black;
       stroke-dashoffset: 0;
       stroke-width: 128;
       }
       to {
       stroke: black;
       stroke-width: 1024;
       }
       }
       #make-me-a-hanzi-animation-14 {
         animation: keyframes14 0.564941s both;
         animation-delay: 11.385742s;
         animation-timing-function: linear;
       }
    @keyframes keyframes15 {
      from {
       stroke: black;
       stroke-dashoffset: 390;
       stroke-width: 128;
       }
       56% {
       animation-timing-function: step-end;
       stroke: black;
       stroke-dashoffset: 0;
       stroke-width: 128;
       }
       to {
       stroke: black;
       stroke-width: 1024;
       }
       }
       #make-me-a-hanzi-animation-15 {
         animation: keyframes15 0.567383s both;
         animation-delay: 11.950683s;
         animation-timing-function: linear;
       }
    @keyframes keyframes16 {
      from {
       stroke: black;
       stroke-dashoffset: 401;
       stroke-width: 128;
       }
       57% {
       animation-timing-function: step-end;
       stroke: black;
       stroke-dashoffset: 0;
       stroke-width: 128;
       }
       to {
       stroke: black;
       stroke-width: 1024;
       }
       }
       #make-me-a-hanzi-animation-16 {
         animation: keyframes16 0.576335s both;
         animation-delay: 12.518066s;
         animation-timing-function: linear;
       }
    @keyframes keyframes17 {
      from {
       stroke: black;
       stroke-dashoffset: 581;
       stroke-width: 128;
       }
       65% {
       animation-timing-function: step-end;
       stroke: black;
       stroke-dashoffset: 0;
       stroke-width: 128;
       }
       to {
       stroke: black;
       stroke-width: 1024;
       }
       }
       #make-me-a-hanzi-animation-17 {
         animation: keyframes17 0.722819s both;
         animation-delay: 13.094401s;
         animation-timing-function: linear;
       }
    @keyframes keyframes18 {
      from {
       stroke: black;
       stroke-dashoffset: 468;
       stroke-width: 128;
       }
       60% {
       animation-timing-function: step-end;
       stroke: black;
       stroke-dashoffset: 0;
       stroke-width: 128;
       }
       to {
       stroke: black;
       stroke-width: 1024;
       }
       }
       #make-me-a-hanzi-animation-18 {
         animation: keyframes18 0.630859s both;
         animation-delay: 13.817220s;
         animation-timing-function: linear;
       }
    @keyframes keyframes19 {
      from {
       stroke: black;
       stroke-dashoffset: 927;
       stroke-width: 128;
       }
       75% {
       animation-timing-function: step-end;
       stroke: black;
       stroke-dashoffset: 0;
       stroke-width: 128;
       }
       to {
       stroke: black;
       stroke-width: 1024;
       }
       }
       #make-me-a-hanzi-animation-19 {
         animation: keyframes19 1.004395s both;
         animation-delay: 14.448079s;
         animation-timing-function: linear;
       }
    @keyframes keyframes20 {
      from {
       stroke: black;
       stroke-dashoffset: 800;
       stroke-width: 128;
       }
       72% {
       animation-timing-function: step-end;
       stroke: black;
       stroke-dashoffset: 0;
       stroke-width: 128;
       }
       to {
       stroke: black;
       stroke-width: 1024;
       }
       }
       #make-me-a-hanzi-animation-20 {
         animation: keyframes20 0.901042s both;
         animation-delay: 15.452474s;
         animation-timing-function: linear;
       }
</style>
<path d="M 532.0 626.0 L 649.0 637.0 Q 678.0 639.0 712.0 640.0 L 752.0 641.0 L 799.0 646.0 Q 814.0 646.0 815.0 653.0 Q 816.0 656.0 807.0 668.0 Q 780.0 695.0 741.0 701.0 Q 734.0 702.0 698.0 697.0 L 544.0 672.0 L 480.0 662.0 L 412.0 652.0 L 362.0 647.0 L 232.0 630.0 Q 217.0 629.0 215.0 624.0 Q 213.0 620.0 220.0 610.0 Q 230.0 600.0 252.0 593.0 Q 275.0 586.0 281.0 586.0 L 473.0 620.0 L 532.0 626.0 Z" fill="lightgray"></path> 
<path d="M 506.0 527.0 L 532.0 626.0 L 544.0 672.0 L 551.0 704.0 Q 551.0 706.0 557.0 721.0 Q 563.0 735.0 570.0 745.0 Q 577.0 754.0 577.0 761.0 Q 571.0 775.0 550.0 786.0 L 522.0 798.0 Q 507.0 808.0 494.0 806.0 Q 475.0 805.0 483.0 785.0 Q 493.0 744.0 492.0 733.0 Q 491.0 721.0 488.0 700.0 L 480.0 662.0 L 473.0 620.0 L 456.0 518.0 C 451.0 488.0 498.0 498.0 506.0 527.0 Z" fill="lightgray"></path> 
<path d="M 316.0 440.0 L 317.0 417.0 Q 317.0 415.0 318.0 414.0 L 324.0 116.0 C 325.0 86.0 374.0 95.0 375.0 125.0 L 377.0 190.0 L 378.0 218.0 L 378.0 282.0 L 378.0 314.0 L 380.0 378.0 L 382.0 411.0 L 383.0 446.0 Q 382.0 464.0 388.0 476.0 C 396.0 500.0 396.0 500.0 379.0 505.0 L 334.0 518.0 Q 307.0 525.0 299.0 515.0 Q 298.0 512.0 299.0 500.0 L 311.0 472.0 L 316.0 440.0 Z" fill="lightgray"></path> 
<path d="M 683.0 152.0 L 698.0 424.0 Q 698.0 459.0 707.0 478.0 Q 716.0 496.0 716.0 504.0 Q 717.0 511.0 704.0 524.0 L 681.0 540.0 L 630.0 559.0 Q 627.0 560.0 606.0 554.0 L 584.0 546.0 L 506.0 527.0 L 456.0 518.0 L 379.0 505.0 C 349.0 500.0 358.0 474.0 388.0 476.0 L 420.0 478.0 L 544.0 500.0 Q 583.0 508.0 610.0 504.0 Q 626.0 498.0 626.0 477.0 L 626.0 436.0 L 626.0 417.0 L 626.0 334.0 L 626.0 310.0 L 626.0 242.0 L 626.0 216.0 L 626.0 147.0 C 626.0 117.0 681.0 122.0 683.0 152.0 Z" fill="lightgray"></path> 
<path d="M 380.0 378.0 L 406.0 377.0 Q 422.0 373.0 474.0 384.0 Q 527.0 395.0 558.0 400.0 Q 590.0 404.0 626.0 417.0 C 654.0 427.0 655.0 429.0 626.0 436.0 L 591.0 445.0 Q 578.0 448.0 567.0 448.0 Q 556.0 448.0 532.0 442.0 Q 508.0 436.0 464.0 427.0 L 416.0 417.0 Q 403.0 414.0 382.0 411.0 C 352.0 407.0 350.0 379.0 380.0 378.0 Z" fill="lightgray"></path> 
<path d="M 378.0 282.0 L 403.0 280.0 Q 415.0 278.0 421.0 279.0 Q 427.0 279.0 463.0 284.0 L 542.0 294.0 L 626.0 310.0 C 655.0 316.0 655.0 325.0 626.0 334.0 L 599.0 342.0 Q 577.0 350.0 567.0 347.0 Q 557.0 344.0 551.0 343.0 L 526.0 338.0 Q 508.0 333.0 459.0 324.0 Q 411.0 315.0 408.0 315.0 L 378.0 314.0 C 348.0 313.0 348.0 284.0 378.0 282.0 Z" fill="lightgray"></path> 
<path d="M 377.0 190.0 L 387.0 186.0 Q 424.0 180.0 510.0 197.0 L 571.0 207.0 Q 598.0 210.0 626.0 216.0 C 655.0 222.0 654.0 231.0 626.0 242.0 L 610.0 248.0 Q 575.0 256.0 555.0 248.0 L 460.0 230.0 L 412.0 224.0 Q 410.0 225.0 378.0 218.0 C 349.0 212.0 349.0 201.0 377.0 190.0 Z" fill="lightgray"></path> 
<path d="M 324.0 116.0 L 284.0 113.0 Q 218.0 106.0 164.0 106.0 L 124.0 104.0 Q 105.0 106.0 103.0 97.0 Q 105.0 81.0 129.0 68.0 Q 161.0 50.0 179.0 50.0 Q 198.0 50.0 215.0 54.0 L 286.0 68.0 Q 334.0 78.0 355.0 80.0 L 419.0 86.0 Q 462.0 90.0 576.0 97.0 L 677.0 102.0 Q 753.0 102.0 782.0 101.0 Q 812.0 100.0 860.0 102.0 L 901.0 104.0 Q 918.0 106.0 919.0 112.0 Q 921.0 118.0 911.0 128.0 Q 905.0 137.0 888.0 148.0 Q 872.0 158.0 855.0 165.0 Q 838.0 172.0 825.0 173.0 Q 813.0 173.0 784.0 168.0 L 745.0 161.0 Q 725.0 156.0 683.0 152.0 L 626.0 147.0 L 375.0 125.0 L 324.0 116.0 Z" fill="lightgray"></path> 
<path d="M 174.0 -128.0 L 196.0 -122.0 Q 237.0 -108.0 279.0 -89.0 Q 333.0 -65.0 370.0 -39.0 Q 408.0 -14.0 417.0 -9.0 Q 426.0 -5.0 435.0 0.0 Q 444.0 9.0 443.0 13.0 Q 441.0 24.0 404.0 41.0 Q 367.0 58.0 350.0 52.0 Q 347.0 50.0 344.0 37.0 Q 341.0 24.0 334.0 16.0 Q 328.0 8.0 303.0 -16.0 Q 278.0 -40.0 267.0 -48.0 L 233.0 -75.0 Q 227.0 -81.0 188.0 -104.0 L 169.0 -116.0 Q 156.0 -123.0 158.0 -129.0 Q 160.0 -132.0 174.0 -128.0 Z" fill="lightgray"></path> 
<path d="M 590.0 56.0 L 652.0 -5.0 L 685.0 -44.0 Q 688.0 -48.0 713.0 -74.0 Q 738.0 -100.0 748.0 -107.0 Q 759.0 -114.0 766.0 -113.0 Q 774.0 -112.0 784.0 -95.0 Q 794.0 -79.0 789.0 -56.0 Q 784.0 -33.0 768.0 -13.0 Q 752.0 6.0 730.0 17.0 Q 709.0 28.0 622.0 63.0 L 597.0 70.0 Q 584.0 73.0 582.0 68.0 Q 580.0 63.0 590.0 56.0 Z" fill="lightgray"></path> 
<path d="M 1257.0 486.0 L 1282.0 532.0 Q 1299.0 559.0 1309.0 580.0 L 1330.0 627.0 Q 1336.0 643.0 1346.0 655.0 Q 1347.0 659.0 1359.0 675.0 Q 1368.0 683.0 1368.0 688.0 Q 1370.0 695.0 1364.0 705.0 Q 1356.0 716.0 1342.0 726.0 Q 1321.0 741.0 1317.0 742.0 Q 1311.0 745.0 1299.0 747.0 Q 1294.0 747.0 1286.0 745.0 Q 1282.0 744.0 1281.0 737.0 L 1283.0 729.0 L 1283.0 717.0 Q 1284.0 710.0 1282.0 687.0 L 1271.0 645.0 Q 1264.0 622.0 1250.0 590.0 L 1217.0 517.0 Q 1200.0 478.0 1179.0 445.0 L 1141.0 385.0 L 1127.0 365.0 Q 1125.0 361.0 1121.0 357.0 L 1113.0 348.0 L 1107.0 337.0 L 1065.0 285.0 Q 1060.0 279.0 1063.0 274.0 Q 1064.0 269.0 1072.0 274.0 L 1099.0 291.0 Q 1108.0 296.0 1131.0 317.0 Q 1150.0 335.0 1171.0 357.0 Q 1182.0 368.0 1204.0 401.0 Q 1209.0 405.0 1235.0 449.0 L 1257.0 486.0 Z" fill="lightgray"></path> 
<path d="M 1272.0 471.0 L 1257.0 486.0 C 1236.0 507.0 1233.0 479.0 1235.0 449.0 L 1238.0 399.0 Q 1240.0 361.0 1238.0 311.0 L 1231.0 165.0 Q 1229.0 134.0 1222.0 96.0 L 1205.0 12.0 L 1212.0 -10.0 L 1222.0 -34.0 Q 1229.0 -57.0 1233.0 -61.0 Q 1240.0 -71.0 1246.0 -70.0 Q 1253.0 -70.0 1260.0 -60.0 Q 1266.0 -52.0 1271.0 -29.0 Q 1275.0 -8.0 1276.0 9.0 L 1282.0 263.0 L 1282.0 327.0 Q 1282.0 337.0 1285.0 369.0 Q 1286.0 392.0 1291.0 415.0 L 1295.0 435.0 Q 1296.0 436.0 1287.0 450.0 L 1274.0 467.0 L 1272.0 471.0 Z" fill="lightgray"></path> 
<path d="M 1383.0 568.0 Q 1387.0 566.0 1389.0 548.0 Q 1393.0 520.0 1393.0 477.0 L 1389.0 256.0 L 1381.0 145.0 Q 1378.0 112.0 1369.0 71.0 L 1365.0 53.0 Q 1364.0 45.0 1362.0 40.0 L 1361.0 35.0 Q 1358.0 16.0 1362.0 4.0 L 1371.0 -24.0 Q 1376.0 -43.0 1381.0 -48.0 L 1390.0 -54.0 Q 1396.0 -56.0 1397.0 -55.0 Q 1398.0 -56.0 1403.0 -52.0 Q 1406.0 -50.0 1409.0 -35.0 L 1414.0 -13.0 Q 1416.0 -4.0 1418.0 42.0 L 1425.0 159.0 L 1425.0 178.0 L 1426.0 274.0 L 1428.0 297.0 L 1433.0 419.0 L 1432.0 453.0 L 1435.0 585.0 C 1436.0 615.0 1374.0 597.0 1383.0 568.0 Z" fill="lightgray"></path> 
<path d="M 1485.0 624.0 L 1446.0 613.0 Q 1431.0 609.0 1375.0 602.0 Q 1360.0 600.0 1357.0 596.0 Q 1351.0 591.0 1364.0 573.0 Q 1367.0 569.0 1373.0 569.0 Q 1383.0 569.0 1383.0 568.0 C 1405.0 566.0 1406.0 579.0 1435.0 585.0 L 1455.0 589.0 Q 1459.0 589.0 1480.0 595.0 Q 1493.0 598.0 1507.0 603.0 Q 1525.0 608.0 1529.0 604.0 Q 1534.0 601.0 1535.0 594.0 Q 1536.0 593.0 1534.0 574.0 L 1513.0 467.0 C 1507.0 438.0 1547.0 432.0 1555.0 461.0 L 1576.0 535.0 Q 1578.0 545.0 1588.0 566.0 L 1610.0 601.0 Q 1617.0 608.0 1615.0 616.0 Q 1616.0 622.0 1600.0 633.0 Q 1587.0 643.0 1570.0 647.0 Q 1554.0 653.0 1545.0 652.0 L 1534.0 649.0 L 1521.0 640.0 Q 1507.0 632.0 1499.0 629.0 Q 1495.0 627.0 1485.0 624.0 Z" fill="lightgray"></path> 
<path d="M 1433.0 419.0 L 1551.0 434.0 Q 1568.0 434.0 1570.0 439.0 Q 1572.0 445.0 1568.0 449.0 Q 1565.0 456.0 1555.0 461.0 C 1537.0 471.0 1537.0 471.0 1513.0 467.0 L 1432.0 453.0 C 1402.0 448.0 1403.0 415.0 1433.0 419.0 Z" fill="lightgray"></path> 
<path d="M 1426.0 274.0 L 1443.0 273.0 Q 1453.0 271.0 1462.0 273.0 L 1505.0 280.0 L 1528.0 285.0 Q 1556.0 289.0 1563.0 293.0 L 1572.0 301.0 Q 1573.0 302.0 1570.0 311.0 Q 1566.0 318.0 1551.0 323.0 Q 1533.0 329.0 1524.0 328.0 L 1516.0 325.0 Q 1515.0 324.0 1513.0 324.0 L 1463.0 309.0 Q 1459.0 307.0 1457.0 307.0 L 1428.0 297.0 C 1400.0 287.0 1396.0 276.0 1426.0 274.0 Z" fill="lightgray"></path> 
<path d="M 1425.0 159.0 L 1440.0 155.0 Q 1448.0 153.0 1472.0 156.0 L 1536.0 165.0 Q 1571.0 169.0 1580.0 172.0 Q 1584.0 174.0 1585.0 178.0 Q 1586.0 181.0 1582.0 187.0 Q 1568.0 196.0 1561.0 199.0 Q 1544.0 205.0 1540.0 205.0 L 1425.0 178.0 C 1396.0 171.0 1396.0 167.0 1425.0 159.0 Z" fill="lightgray"></path> 
<path d="M 1796.0 593.0 L 1778.0 497.0 C 1772.0 468.0 1814.0 461.0 1824.0 489.0 L 1850.0 560.0 Q 1850.0 562.0 1852.0 565.0 L 1860.0 587.0 Q 1867.0 603.0 1877.0 614.0 L 1889.0 629.0 Q 1891.0 637.0 1883.0 643.0 Q 1875.0 650.0 1863.0 656.0 L 1835.0 669.0 Q 1819.0 674.0 1809.0 673.0 Q 1800.0 670.0 1792.0 665.0 L 1768.0 653.0 Q 1747.0 646.0 1726.0 641.0 L 1686.0 633.0 L 1660.0 631.0 Q 1647.0 629.0 1646.0 626.0 Q 1644.0 620.0 1648.0 614.0 Q 1651.0 606.0 1670.0 601.0 Q 1688.0 596.0 1697.0 597.0 Q 1701.0 596.0 1710.0 601.0 L 1720.0 604.0 Q 1728.0 607.0 1738.0 609.0 Q 1756.0 612.0 1764.0 617.0 Q 1786.0 625.0 1790.0 621.0 Q 1797.0 618.0 1797.0 611.0 Q 1798.0 611.0 1796.0 593.0 Z" fill="lightgray"></path> 
<path d="M 1778.0 497.0 L 1732.0 485.0 Q 1698.0 476.0 1687.0 475.0 L 1641.0 467.0 Q 1628.0 466.0 1626.0 461.0 Q 1624.0 457.0 1626.0 452.0 Q 1629.0 446.0 1637.0 443.0 Q 1647.0 440.0 1657.0 439.0 Q 1672.0 438.0 1679.0 439.0 L 1793.0 456.0 Q 1797.0 457.0 1801.0 457.0 L 1834.0 458.0 Q 1848.0 459.0 1850.0 463.0 Q 1852.0 468.0 1847.0 476.0 Q 1839.0 484.0 1824.0 489.0 L 1778.0 497.0 Z" fill="lightgray"></path> 
<path d="M 1727.0 160.0 L 1708.0 137.0 Q 1689.0 114.0 1670.0 96.0 Q 1648.0 76.0 1618.0 55.0 Q 1586.0 34.0 1566.0 25.0 Q 1542.0 12.0 1524.0 7.0 L 1511.0 1.0 Q 1503.0 -2.0 1505.0 -7.0 Q 1507.0 -14.0 1513.0 -12.0 L 1530.0 -11.0 Q 1545.0 -12.0 1574.0 -1.0 Q 1609.0 10.0 1629.0 19.0 Q 1650.0 29.0 1685.0 53.0 Q 1718.0 75.0 1729.0 89.0 Q 1736.0 96.0 1751.0 115.0 L 1778.0 152.0 L 1810.0 210.0 L 1832.0 263.0 Q 1846.0 292.0 1852.0 303.0 Q 1861.0 313.0 1866.0 317.0 Q 1875.0 324.0 1877.0 332.0 Q 1878.0 339.0 1868.0 349.0 Q 1862.0 357.0 1849.0 365.0 Q 1835.0 374.0 1824.0 377.0 Q 1810.0 383.0 1804.0 382.0 Q 1798.0 381.0 1784.0 375.0 Q 1765.0 368.0 1748.0 363.0 L 1710.0 351.0 Q 1701.0 347.0 1677.0 343.0 Q 1658.0 339.0 1646.0 340.0 C 1616.0 338.0 1643.0 302.0 1672.0 309.0 L 1764.0 330.0 Q 1775.0 333.0 1779.0 329.0 Q 1784.0 326.0 1782.0 313.0 Q 1782.0 304.0 1774.0 281.0 L 1761.0 235.0 L 1742.0 193.0 L 1727.0 160.0 Z" fill="lightgray"></path> 
<path d="M 1751.0 115.0 L 1822.0 5.0 Q 1838.0 -14.0 1846.0 -19.0 Q 1857.0 -25.0 1870.0 -27.0 Q 1881.0 -30.0 1902.0 -28.0 Q 1927.0 -26.0 1941.0 -23.0 Q 1957.0 -21.0 1976.0 -16.0 L 1996.0 -11.0 Q 2002.0 -11.0 2008.0 -7.0 Q 2012.0 -4.0 2011.0 0.0 Q 2011.0 8.0 2000.0 9.0 L 1982.0 13.0 Q 1970.0 14.0 1945.0 25.0 L 1906.0 42.0 Q 1891.0 50.0 1873.0 63.0 Q 1841.0 86.0 1834.0 93.0 L 1805.0 122.0 L 1785.0 144.0 Q 1780.0 149.0 1778.0 152.0 L 1742.0 193.0 L 1672.0 309.0 C 1657.0 335.0 1654.0 339.0 1646.0 340.0 Q 1634.0 340.0 1630.0 341.0 Q 1621.0 343.0 1617.0 341.0 Q 1612.0 339.0 1611.0 337.0 Q 1609.0 331.0 1612.0 327.0 Q 1615.0 322.0 1626.0 311.0 Q 1635.0 304.0 1646.0 293.0 L 1666.0 263.0 L 1679.0 246.0 L 1688.0 231.0 L 1708.0 192.0 Q 1709.0 184.0 1727.0 160.0 L 1751.0 115.0 Z" fill="lightgray"></path> 
      <clipPath id="make-me-a-hanzi-clip-0">
      <path d="M 532.0 626.0 L 649.0 637.0 Q 678.0 639.0 712.0 640.0 L 752.0 641.0 L 799.0 646.0 Q 814.0 646.0 815.0 653.0 Q 816.0 656.0 807.0 668.0 Q 780.0 695.0 741.0 701.0 Q 734.0 702.0 698.0 697.0 L 544.0 672.0 L 480.0 662.0 L 412.0 652.0 L 362.0 647.0 L 232.0 630.0 Q 217.0 629.0 215.0 624.0 Q 213.0 620.0 220.0 610.0 Q 230.0 600.0 252.0 593.0 Q 275.0 586.0 281.0 586.0 L 473.0 620.0 L 532.0 626.0 Z" fill="lightgray"></path>
      </clipPath>
      <path clip-path="url(#make-me-a-hanzi-clip-0)" d="M 223.0 619.0 L 280.0 611.0 L 712.0 670.0 L 766.0 668.0 L 809.0 654.0 " fill="none" id="make-me-a-hanzi-animation-0" stroke-dasharray="721 1442" stroke-linecap="round"></path>

      <clipPath id="make-me-a-hanzi-clip-1">
      <path d="M 506.0 527.0 L 532.0 626.0 L 544.0 672.0 L 551.0 704.0 Q 551.0 706.0 557.0 721.0 Q 563.0 735.0 570.0 745.0 Q 577.0 754.0 577.0 761.0 Q 571.0 775.0 550.0 786.0 L 522.0 798.0 Q 507.0 808.0 494.0 806.0 Q 475.0 805.0 483.0 785.0 Q 493.0 744.0 492.0 733.0 Q 491.0 721.0 488.0 700.0 L 480.0 662.0 L 473.0 620.0 L 456.0 518.0 C 451.0 488.0 498.0 498.0 506.0 527.0 Z" fill="lightgray"></path>
      </clipPath>
      <path clip-path="url(#make-me-a-hanzi-clip-1)" d="M 492.0 793.0 L 500.0 790.0 L 529.0 751.0 L 488.0 554.0 L 461.0 525.0 " fill="none" id="make-me-a-hanzi-animation-1" stroke-dasharray="426 852" stroke-linecap="round"></path>

      <clipPath id="make-me-a-hanzi-clip-2">
      <path d="M 316.0 440.0 L 317.0 417.0 Q 317.0 415.0 318.0 414.0 L 324.0 116.0 C 325.0 86.0 374.0 95.0 375.0 125.0 L 377.0 190.0 L 378.0 218.0 L 378.0 282.0 L 378.0 314.0 L 380.0 378.0 L 382.0 411.0 L 383.0 446.0 Q 382.0 464.0 388.0 476.0 C 396.0 500.0 396.0 500.0 379.0 505.0 L 334.0 518.0 Q 307.0 525.0 299.0 515.0 Q 298.0 512.0 299.0 500.0 L 311.0 472.0 L 316.0 440.0 Z" fill="lightgray"></path>
      </clipPath>
      <path clip-path="url(#make-me-a-hanzi-clip-2)" d="M 309.0 508.0 L 347.0 478.0 L 350.0 441.0 L 350.0 147.0 L 329.0 124.0 " fill="none" id="make-me-a-hanzi-animation-2" stroke-dasharray="539 1078" stroke-linecap="round"></path>

      <clipPath id="make-me-a-hanzi-clip-3">
      <path d="M 683.0 152.0 L 698.0 424.0 Q 698.0 459.0 707.0 478.0 Q 716.0 496.0 716.0 504.0 Q 717.0 511.0 704.0 524.0 L 681.0 540.0 L 630.0 559.0 Q 627.0 560.0 606.0 554.0 L 584.0 546.0 L 506.0 527.0 L 456.0 518.0 L 379.0 505.0 C 349.0 500.0 358.0 474.0 388.0 476.0 L 420.0 478.0 L 544.0 500.0 Q 583.0 508.0 610.0 504.0 Q 626.0 498.0 626.0 477.0 L 626.0 436.0 L 626.0 417.0 L 626.0 334.0 L 626.0 310.0 L 626.0 242.0 L 626.0 216.0 L 626.0 147.0 C 626.0 117.0 681.0 122.0 683.0 152.0 Z" fill="lightgray"></path>
      </clipPath>
      <path clip-path="url(#make-me-a-hanzi-clip-3)" d="M 388.0 500.0 L 399.0 493.0 L 425.0 495.0 L 621.0 530.0 L 663.0 502.0 L 655.0 179.0 L 633.0 154.0 " fill="none" id="make-me-a-hanzi-animation-3" stroke-dasharray="773 1546" stroke-linecap="round"></path>

      <clipPath id="make-me-a-hanzi-clip-4">
      <path d="M 380.0 378.0 L 406.0 377.0 Q 422.0 373.0 474.0 384.0 Q 527.0 395.0 558.0 400.0 Q 590.0 404.0 626.0 417.0 C 654.0 427.0 655.0 429.0 626.0 436.0 L 591.0 445.0 Q 578.0 448.0 567.0 448.0 Q 556.0 448.0 532.0 442.0 Q 508.0 436.0 464.0 427.0 L 416.0 417.0 Q 403.0 414.0 382.0 411.0 C 352.0 407.0 350.0 379.0 380.0 378.0 Z" fill="lightgray"></path>
      </clipPath>
      <path clip-path="url(#make-me-a-hanzi-clip-4)" d="M 387.0 383.0 L 404.0 396.0 L 619.0 431.0 " fill="none" id="make-me-a-hanzi-animation-4" stroke-dasharray="367 734" stroke-linecap="round"></path>

      <clipPath id="make-me-a-hanzi-clip-5">
      <path d="M 378.0 282.0 L 403.0 280.0 Q 415.0 278.0 421.0 279.0 Q 427.0 279.0 463.0 284.0 L 542.0 294.0 L 626.0 310.0 C 655.0 316.0 655.0 325.0 626.0 334.0 L 599.0 342.0 Q 577.0 350.0 567.0 347.0 Q 557.0 344.0 551.0 343.0 L 526.0 338.0 Q 508.0 333.0 459.0 324.0 Q 411.0 315.0 408.0 315.0 L 378.0 314.0 C 348.0 313.0 348.0 284.0 378.0 282.0 Z" fill="lightgray"></path>
      </clipPath>
      <path clip-path="url(#make-me-a-hanzi-clip-5)" d="M 385.0 287.0 L 394.0 298.0 L 500.0 309.0 L 573.0 324.0 L 611.0 323.0 L 618.0 316.0 " fill="none" id="make-me-a-hanzi-animation-5" stroke-dasharray="371 742" stroke-linecap="round"></path>

      <clipPath id="make-me-a-hanzi-clip-6">
      <path d="M 377.0 190.0 L 387.0 186.0 Q 424.0 180.0 510.0 197.0 L 571.0 207.0 Q 598.0 210.0 626.0 216.0 C 655.0 222.0 654.0 231.0 626.0 242.0 L 610.0 248.0 Q 575.0 256.0 555.0 248.0 L 460.0 230.0 L 412.0 224.0 Q 410.0 225.0 378.0 218.0 C 349.0 212.0 349.0 201.0 377.0 190.0 Z" fill="lightgray"></path>
      </clipPath>
      <path clip-path="url(#make-me-a-hanzi-clip-6)" d="M 385.0 197.0 L 566.0 229.0 L 608.0 230.0 L 619.0 236.0 " fill="none" id="make-me-a-hanzi-animation-6" stroke-dasharray="366 732" stroke-linecap="round"></path>

      <clipPath id="make-me-a-hanzi-clip-7">
      <path d="M 324.0 116.0 L 284.0 113.0 Q 218.0 106.0 164.0 106.0 L 124.0 104.0 Q 105.0 106.0 103.0 97.0 Q 105.0 81.0 129.0 68.0 Q 161.0 50.0 179.0 50.0 Q 198.0 50.0 215.0 54.0 L 286.0 68.0 Q 334.0 78.0 355.0 80.0 L 419.0 86.0 Q 462.0 90.0 576.0 97.0 L 677.0 102.0 Q 753.0 102.0 782.0 101.0 Q 812.0 100.0 860.0 102.0 L 901.0 104.0 Q 918.0 106.0 919.0 112.0 Q 921.0 118.0 911.0 128.0 Q 905.0 137.0 888.0 148.0 Q 872.0 158.0 855.0 165.0 Q 838.0 172.0 825.0 173.0 Q 813.0 173.0 784.0 168.0 L 745.0 161.0 Q 725.0 156.0 683.0 152.0 L 626.0 147.0 L 375.0 125.0 L 324.0 116.0 Z" fill="lightgray"></path>
      </clipPath>
      <path clip-path="url(#make-me-a-hanzi-clip-7)" d="M 112.0 94.0 L 194.0 78.0 L 447.0 111.0 L 813.0 137.0 L 912.0 115.0 " fill="none" id="make-me-a-hanzi-animation-7" stroke-dasharray="935 1870" stroke-linecap="round"></path>

      <clipPath id="make-me-a-hanzi-clip-8">
      <path d="M 174.0 -128.0 L 196.0 -122.0 Q 237.0 -108.0 279.0 -89.0 Q 333.0 -65.0 370.0 -39.0 Q 408.0 -14.0 417.0 -9.0 Q 426.0 -5.0 435.0 0.0 Q 444.0 9.0 443.0 13.0 Q 441.0 24.0 404.0 41.0 Q 367.0 58.0 350.0 52.0 Q 347.0 50.0 344.0 37.0 Q 341.0 24.0 334.0 16.0 Q 328.0 8.0 303.0 -16.0 Q 278.0 -40.0 267.0 -48.0 L 233.0 -75.0 Q 227.0 -81.0 188.0 -104.0 L 169.0 -116.0 Q 156.0 -123.0 158.0 -129.0 Q 160.0 -132.0 174.0 -128.0 Z" fill="lightgray"></path>
      </clipPath>
      <path clip-path="url(#make-me-a-hanzi-clip-8)" d="M 432.0 11.0 L 374.0 8.0 L 278.0 -67.0 L 161.0 -127.0 " fill="none" id="make-me-a-hanzi-animation-8" stroke-dasharray="439 878" stroke-linecap="round"></path>

      <clipPath id="make-me-a-hanzi-clip-9">
      <path d="M 590.0 56.0 L 652.0 -5.0 L 685.0 -44.0 Q 688.0 -48.0 713.0 -74.0 Q 738.0 -100.0 748.0 -107.0 Q 759.0 -114.0 766.0 -113.0 Q 774.0 -112.0 784.0 -95.0 Q 794.0 -79.0 789.0 -56.0 Q 784.0 -33.0 768.0 -13.0 Q 752.0 6.0 730.0 17.0 Q 709.0 28.0 622.0 63.0 L 597.0 70.0 Q 584.0 73.0 582.0 68.0 Q 580.0 63.0 590.0 56.0 Z" fill="lightgray"></path>
      </clipPath>
      <path clip-path="url(#make-me-a-hanzi-clip-9)" d="M 590.0 65.0 L 645.0 33.0 L 724.0 -27.0 L 756.0 -67.0 L 764.0 -99.0 " fill="none" id="make-me-a-hanzi-animation-9" stroke-dasharray="375 750" stroke-linecap="round"></path>

      <clipPath id="make-me-a-hanzi-clip-10">
      <path d="M 1257.0 486.0 L 1282.0 532.0 Q 1299.0 559.0 1309.0 580.0 L 1330.0 627.0 Q 1336.0 643.0 1346.0 655.0 Q 1347.0 659.0 1359.0 675.0 Q 1368.0 683.0 1368.0 688.0 Q 1370.0 695.0 1364.0 705.0 Q 1356.0 716.0 1342.0 726.0 Q 1321.0 741.0 1317.0 742.0 Q 1311.0 745.0 1299.0 747.0 Q 1294.0 747.0 1286.0 745.0 Q 1282.0 744.0 1281.0 737.0 L 1283.0 729.0 L 1283.0 717.0 Q 1284.0 710.0 1282.0 687.0 L 1271.0 645.0 Q 1264.0 622.0 1250.0 590.0 L 1217.0 517.0 Q 1200.0 478.0 1179.0 445.0 L 1141.0 385.0 L 1127.0 365.0 Q 1125.0 361.0 1121.0 357.0 L 1113.0 348.0 L 1107.0 337.0 L 1065.0 285.0 Q 1060.0 279.0 1063.0 274.0 Q 1064.0 269.0 1072.0 274.0 L 1099.0 291.0 Q 1108.0 296.0 1131.0 317.0 Q 1150.0 335.0 1171.0 357.0 Q 1182.0 368.0 1204.0 401.0 Q 1209.0 405.0 1235.0 449.0 L 1257.0 486.0 Z" fill="lightgray"></path>
      </clipPath>
      <path clip-path="url(#make-me-a-hanzi-clip-10)" d="M 1292.0 736.0 L 1322.0 691.0 L 1276.0 577.0 L 1210.0 450.0 L 1171.0 391.0 L 1115.0 321.0 L 1068.0 279.0 " fill="none" id="make-me-a-hanzi-animation-10" stroke-dasharray="672 1344" stroke-linecap="round"></path>

      <clipPath id="make-me-a-hanzi-clip-11">
      <path d="M 1272.0 471.0 L 1257.0 486.0 C 1236.0 507.0 1233.0 479.0 1235.0 449.0 L 1238.0 399.0 Q 1240.0 361.0 1238.0 311.0 L 1231.0 165.0 Q 1229.0 134.0 1222.0 96.0 L 1205.0 12.0 L 1212.0 -10.0 L 1222.0 -34.0 Q 1229.0 -57.0 1233.0 -61.0 Q 1240.0 -71.0 1246.0 -70.0 Q 1253.0 -70.0 1260.0 -60.0 Q 1266.0 -52.0 1271.0 -29.0 Q 1275.0 -8.0 1276.0 9.0 L 1282.0 263.0 L 1282.0 327.0 Q 1282.0 337.0 1285.0 369.0 Q 1286.0 392.0 1291.0 415.0 L 1295.0 435.0 Q 1296.0 436.0 1287.0 450.0 L 1274.0 467.0 L 1272.0 471.0 Z" fill="lightgray"></path>
      </clipPath>
      <path clip-path="url(#make-me-a-hanzi-clip-11)" d="M 1256.0 478.0 L 1265.0 425.0 L 1258.0 208.0 L 1241.0 14.0 L 1245.0 -57.0 " fill="none" id="make-me-a-hanzi-animation-11" stroke-dasharray="665 1330" stroke-linecap="round"></path>

      <clipPath id="make-me-a-hanzi-clip-12">
      <path d="M 1383.0 568.0 Q 1387.0 566.0 1389.0 548.0 Q 1393.0 520.0 1393.0 477.0 L 1389.0 256.0 L 1381.0 145.0 Q 1378.0 112.0 1369.0 71.0 L 1365.0 53.0 Q 1364.0 45.0 1362.0 40.0 L 1361.0 35.0 Q 1358.0 16.0 1362.0 4.0 L 1371.0 -24.0 Q 1376.0 -43.0 1381.0 -48.0 L 1390.0 -54.0 Q 1396.0 -56.0 1397.0 -55.0 Q 1398.0 -56.0 1403.0 -52.0 Q 1406.0 -50.0 1409.0 -35.0 L 1414.0 -13.0 Q 1416.0 -4.0 1418.0 42.0 L 1425.0 159.0 L 1425.0 178.0 L 1426.0 274.0 L 1428.0 297.0 L 1433.0 419.0 L 1432.0 453.0 L 1435.0 585.0 C 1436.0 615.0 1374.0 597.0 1383.0 568.0 Z" fill="lightgray"></path>
      </clipPath>
      <path clip-path="url(#make-me-a-hanzi-clip-12)" d="M 1430.0 578.0 L 1411.0 554.0 L 1407.0 226.0 L 1388.0 24.0 L 1395.0 -44.0 " fill="none" id="make-me-a-hanzi-animation-12" stroke-dasharray="758 1516" stroke-linecap="round"></path>

      <clipPath id="make-me-a-hanzi-clip-13">
      <path d="M 1485.0 624.0 L 1446.0 613.0 Q 1431.0 609.0 1375.0 602.0 Q 1360.0 600.0 1357.0 596.0 Q 1351.0 591.0 1364.0 573.0 Q 1367.0 569.0 1373.0 569.0 Q 1383.0 569.0 1383.0 568.0 C 1405.0 566.0 1406.0 579.0 1435.0 585.0 L 1455.0 589.0 Q 1459.0 589.0 1480.0 595.0 Q 1493.0 598.0 1507.0 603.0 Q 1525.0 608.0 1529.0 604.0 Q 1534.0 601.0 1535.0 594.0 Q 1536.0 593.0 1534.0 574.0 L 1513.0 467.0 C 1507.0 438.0 1547.0 432.0 1555.0 461.0 L 1576.0 535.0 Q 1578.0 545.0 1588.0 566.0 L 1610.0 601.0 Q 1617.0 608.0 1615.0 616.0 Q 1616.0 622.0 1600.0 633.0 Q 1587.0 643.0 1570.0 647.0 Q 1554.0 653.0 1545.0 652.0 L 1534.0 649.0 L 1521.0 640.0 Q 1507.0 632.0 1499.0 629.0 Q 1495.0 627.0 1485.0 624.0 Z" fill="lightgray"></path>
      </clipPath>
      <path clip-path="url(#make-me-a-hanzi-clip-13)" d="M 1364.0 591.0 L 1380.0 585.0 L 1522.0 623.0 L 1554.0 621.0 L 1570.0 602.0 L 1540.0 489.0 L 1521.0 473.0 " fill="none" id="make-me-a-hanzi-animation-13" stroke-dasharray="491 982" stroke-linecap="round"></path>

      <clipPath id="make-me-a-hanzi-clip-14">
      <path d="M 1433.0 419.0 L 1551.0 434.0 Q 1568.0 434.0 1570.0 439.0 Q 1572.0 445.0 1568.0 449.0 Q 1565.0 456.0 1555.0 461.0 C 1537.0 471.0 1537.0 471.0 1513.0 467.0 L 1432.0 453.0 C 1402.0 448.0 1403.0 415.0 1433.0 419.0 Z" fill="lightgray"></path>
      </clipPath>
      <path clip-path="url(#make-me-a-hanzi-clip-14)" d="M 1440.0 425.0 L 1453.0 439.0 L 1509.0 448.0 L 1546.0 449.0 L 1563.0 443.0 " fill="none" id="make-me-a-hanzi-animation-14" stroke-dasharray="259 518" stroke-linecap="round"></path>

      <clipPath id="make-me-a-hanzi-clip-15">
      <path d="M 1426.0 274.0 L 1443.0 273.0 Q 1453.0 271.0 1462.0 273.0 L 1505.0 280.0 L 1528.0 285.0 Q 1556.0 289.0 1563.0 293.0 L 1572.0 301.0 Q 1573.0 302.0 1570.0 311.0 Q 1566.0 318.0 1551.0 323.0 Q 1533.0 329.0 1524.0 328.0 L 1516.0 325.0 Q 1515.0 324.0 1513.0 324.0 L 1463.0 309.0 Q 1459.0 307.0 1457.0 307.0 L 1428.0 297.0 C 1400.0 287.0 1396.0 276.0 1426.0 274.0 Z" fill="lightgray"></path>
      </clipPath>
      <path clip-path="url(#make-me-a-hanzi-clip-15)" d="M 1431.0 279.0 L 1527.0 307.0 L 1561.0 304.0 " fill="none" id="make-me-a-hanzi-animation-15" stroke-dasharray="262 524" stroke-linecap="round"></path>

      <clipPath id="make-me-a-hanzi-clip-16">
      <path d="M 1425.0 159.0 L 1440.0 155.0 Q 1448.0 153.0 1472.0 156.0 L 1536.0 165.0 Q 1571.0 169.0 1580.0 172.0 Q 1584.0 174.0 1585.0 178.0 Q 1586.0 181.0 1582.0 187.0 Q 1568.0 196.0 1561.0 199.0 Q 1544.0 205.0 1540.0 205.0 L 1425.0 178.0 C 1396.0 171.0 1396.0 167.0 1425.0 159.0 Z" fill="lightgray"></path>
      </clipPath>
      <path clip-path="url(#make-me-a-hanzi-clip-16)" d="M 1434.0 173.0 L 1445.0 168.0 L 1537.0 185.0 L 1576.0 180.0 " fill="none" id="make-me-a-hanzi-animation-16" stroke-dasharray="273 546" stroke-linecap="round"></path>

      <clipPath id="make-me-a-hanzi-clip-17">
      <path d="M 1796.0 593.0 L 1778.0 497.0 C 1772.0 468.0 1814.0 461.0 1824.0 489.0 L 1850.0 560.0 Q 1850.0 562.0 1852.0 565.0 L 1860.0 587.0 Q 1867.0 603.0 1877.0 614.0 L 1889.0 629.0 Q 1891.0 637.0 1883.0 643.0 Q 1875.0 650.0 1863.0 656.0 L 1835.0 669.0 Q 1819.0 674.0 1809.0 673.0 Q 1800.0 670.0 1792.0 665.0 L 1768.0 653.0 Q 1747.0 646.0 1726.0 641.0 L 1686.0 633.0 L 1660.0 631.0 Q 1647.0 629.0 1646.0 626.0 Q 1644.0 620.0 1648.0 614.0 Q 1651.0 606.0 1670.0 601.0 Q 1688.0 596.0 1697.0 597.0 Q 1701.0 596.0 1710.0 601.0 L 1720.0 604.0 Q 1728.0 607.0 1738.0 609.0 Q 1756.0 612.0 1764.0 617.0 Q 1786.0 625.0 1790.0 621.0 Q 1797.0 618.0 1797.0 611.0 Q 1798.0 611.0 1796.0 593.0 Z" fill="lightgray"></path>
      </clipPath>
      <path clip-path="url(#make-me-a-hanzi-clip-17)" d="M 1656.0 621.0 L 1692.0 615.0 L 1796.0 643.0 L 1827.0 633.0 L 1835.0 625.0 L 1833.0 611.0 L 1808.0 517.0 L 1787.0 502.0 " fill="none" id="make-me-a-hanzi-animation-17" stroke-dasharray="453 906" stroke-linecap="round"></path>

      <clipPath id="make-me-a-hanzi-clip-18">
      <path d="M 1778.0 497.0 L 1732.0 485.0 Q 1698.0 476.0 1687.0 475.0 L 1641.0 467.0 Q 1628.0 466.0 1626.0 461.0 Q 1624.0 457.0 1626.0 452.0 Q 1629.0 446.0 1637.0 443.0 Q 1647.0 440.0 1657.0 439.0 Q 1672.0 438.0 1679.0 439.0 L 1793.0 456.0 Q 1797.0 457.0 1801.0 457.0 L 1834.0 458.0 Q 1848.0 459.0 1850.0 463.0 Q 1852.0 468.0 1847.0 476.0 Q 1839.0 484.0 1824.0 489.0 L 1778.0 497.0 Z" fill="lightgray"></path>
      </clipPath>
      <path clip-path="url(#make-me-a-hanzi-clip-18)" d="M 1634.0 457.0 L 1674.0 455.0 L 1782.0 476.0 L 1843.0 468.0 " fill="none" id="make-me-a-hanzi-animation-18" stroke-dasharray="340 680" stroke-linecap="round"></path>

      <clipPath id="make-me-a-hanzi-clip-19">
      <path d="M 1727.0 160.0 L 1708.0 137.0 Q 1689.0 114.0 1670.0 96.0 Q 1648.0 76.0 1618.0 55.0 Q 1586.0 34.0 1566.0 25.0 Q 1542.0 12.0 1524.0 7.0 L 1511.0 1.0 Q 1503.0 -2.0 1505.0 -7.0 Q 1507.0 -14.0 1513.0 -12.0 L 1530.0 -11.0 Q 1545.0 -12.0 1574.0 -1.0 Q 1609.0 10.0 1629.0 19.0 Q 1650.0 29.0 1685.0 53.0 Q 1718.0 75.0 1729.0 89.0 Q 1736.0 96.0 1751.0 115.0 L 1778.0 152.0 L 1810.0 210.0 L 1832.0 263.0 Q 1846.0 292.0 1852.0 303.0 Q 1861.0 313.0 1866.0 317.0 Q 1875.0 324.0 1877.0 332.0 Q 1878.0 339.0 1868.0 349.0 Q 1862.0 357.0 1849.0 365.0 Q 1835.0 374.0 1824.0 377.0 Q 1810.0 383.0 1804.0 382.0 Q 1798.0 381.0 1784.0 375.0 Q 1765.0 368.0 1748.0 363.0 L 1710.0 351.0 Q 1701.0 347.0 1677.0 343.0 Q 1658.0 339.0 1646.0 340.0 C 1616.0 338.0 1643.0 302.0 1672.0 309.0 L 1764.0 330.0 Q 1775.0 333.0 1779.0 329.0 Q 1784.0 326.0 1782.0 313.0 Q 1782.0 304.0 1774.0 281.0 L 1761.0 235.0 L 1742.0 193.0 L 1727.0 160.0 Z" fill="lightgray"></path>
      </clipPath>
      <path clip-path="url(#make-me-a-hanzi-clip-19)" d="M 1653.0 337.0 L 1678.0 326.0 L 1785.0 352.0 L 1807.0 348.0 L 1823.0 333.0 L 1788.0 227.0 L 1760.0 170.0 L 1708.0 101.0 L 1655.0 56.0 L 1617.0 33.0 L 1561.0 7.0 L 1511.0 -6.0 " fill="none" id="make-me-a-hanzi-animation-19" stroke-dasharray="799 1598" stroke-linecap="round"></path>

      <clipPath id="make-me-a-hanzi-clip-20">
      <path d="M 1751.0 115.0 L 1822.0 5.0 Q 1838.0 -14.0 1846.0 -19.0 Q 1857.0 -25.0 1870.0 -27.0 Q 1881.0 -30.0 1902.0 -28.0 Q 1927.0 -26.0 1941.0 -23.0 Q 1957.0 -21.0 1976.0 -16.0 L 1996.0 -11.0 Q 2002.0 -11.0 2008.0 -7.0 Q 2012.0 -4.0 2011.0 0.0 Q 2011.0 8.0 2000.0 9.0 L 1982.0 13.0 Q 1970.0 14.0 1945.0 25.0 L 1906.0 42.0 Q 1891.0 50.0 1873.0 63.0 Q 1841.0 86.0 1834.0 93.0 L 1805.0 122.0 L 1785.0 144.0 Q 1780.0 149.0 1778.0 152.0 L 1742.0 193.0 L 1672.0 309.0 C 1657.0 335.0 1654.0 339.0 1646.0 340.0 Q 1634.0 340.0 1630.0 341.0 Q 1621.0 343.0 1617.0 341.0 Q 1612.0 339.0 1611.0 337.0 Q 1609.0 331.0 1612.0 327.0 Q 1615.0 322.0 1626.0 311.0 Q 1635.0 304.0 1646.0 293.0 L 1666.0 263.0 L 1679.0 246.0 L 1688.0 231.0 L 1708.0 192.0 Q 1709.0 184.0 1727.0 160.0 L 1751.0 115.0 Z" fill="lightgray"></path>
      </clipPath>
      <path clip-path="url(#make-me-a-hanzi-clip-20)" d="M 1618.0 333.0 L 1639.0 323.0 L 1657.0 305.0 L 1727.0 187.0 L 1774.0 121.0 L 1868.0 16.0 L 1920.0 3.0 L 2002.0 0.0 " fill="none" id="make-me-a-hanzi-animation-20" stroke-dasharray="672 1344" stroke-linecap="round"></path>

</g>
</svg>
