<svg version="1.1" viewBox="0 0 2048 1024" xmlns="http://www.w3.org/2000/svg">
  <g stroke="lightgray" stroke-dasharray="1,1" stroke-width="1" transform="scale(4, 4)">
    <line x1="0" y1="0" x2="256" y2="256"></line>
    <line x1="256" y1="0" x2="0" y2="256"></line>
    <line x1="128" y1="0" x2="128" y2="256"></line>
    <line x1="0" y1="128" x2="256" y2="128"></line>
    <line x1="256" y1="0" x2="512" y2="256"></line>
    <line x1="512" y1="0" x2="256" y2="256"></line>
    <line x1="384" y1="0" x2="384" y2="256"></line>
    <line x1="256" y1="128" x2="512" y2="128"></line>
  </g>
<g transform="scale(1, -1) translate(0, -850)">
   <style type="text/css">
    @keyframes keyframes0 {
      from {
       stroke: black;
       stroke-dashoffset: 574;
       stroke-width: 128;
       }
       65% {
       animation-timing-function: step-end;
       stroke: black;
       stroke-dashoffset: 0;
       stroke-width: 128;
       }
       to {
       stroke: black;
       stroke-width: 1024;
       }
       }
       #make-me-a-hanzi-animation-0 {
         animation: keyframes0 0.717122s both;
         animation-delay: 0.000000s;
         animation-timing-function: linear;
       }
    @keyframes keyframes1 {
      from {
       stroke: black;
       stroke-dashoffset: 756;
       stroke-width: 128;
       }
       71% {
       animation-timing-function: step-end;
       stroke: black;
       stroke-dashoffset: 0;
       stroke-width: 128;
       }
       to {
       stroke: black;
       stroke-width: 1024;
       }
       }
       #make-me-a-hanzi-animation-1 {
         animation: keyframes1 0.865234s both;
         animation-delay: 0.717122s;
         animation-timing-function: linear;
       }
    @keyframes keyframes2 {
      from {
       stroke: black;
       stroke-dashoffset: 461;
       stroke-width: 128;
       }
       60% {
       animation-timing-function: step-end;
       stroke: black;
       stroke-dashoffset: 0;
       stroke-width: 128;
       }
       to {
       stroke: black;
       stroke-width: 1024;
       }
       }
       #make-me-a-hanzi-animation-2 {
         animation: keyframes2 0.625163s both;
         animation-delay: 1.582356s;
         animation-timing-function: linear;
       }
    @keyframes keyframes3 {
      from {
       stroke: black;
       stroke-dashoffset: 586;
       stroke-width: 128;
       }
       66% {
       animation-timing-function: step-end;
       stroke: black;
       stroke-dashoffset: 0;
       stroke-width: 128;
       }
       to {
       stroke: black;
       stroke-width: 1024;
       }
       }
       #make-me-a-hanzi-animation-3 {
         animation: keyframes3 0.726888s both;
         animation-delay: 2.207519s;
         animation-timing-function: linear;
       }
    @keyframes keyframes4 {
      from {
       stroke: black;
       stroke-dashoffset: 409;
       stroke-width: 128;
       }
       57% {
       animation-timing-function: step-end;
       stroke: black;
       stroke-dashoffset: 0;
       stroke-width: 128;
       }
       to {
       stroke: black;
       stroke-width: 1024;
       }
       }
       #make-me-a-hanzi-animation-4 {
         animation: keyframes4 0.582845s both;
         animation-delay: 2.934407s;
         animation-timing-function: linear;
       }
    @keyframes keyframes5 {
      from {
       stroke: black;
       stroke-dashoffset: 404;
       stroke-width: 128;
       }
       57% {
       animation-timing-function: step-end;
       stroke: black;
       stroke-dashoffset: 0;
       stroke-width: 128;
       }
       to {
       stroke: black;
       stroke-width: 1024;
       }
       }
       #make-me-a-hanzi-animation-5 {
         animation: keyframes5 0.578776s both;
         animation-delay: 3.517252s;
         animation-timing-function: linear;
       }
    @keyframes keyframes6 {
      from {
       stroke: black;
       stroke-dashoffset: 499;
       stroke-width: 128;
       }
       62% {
       animation-timing-function: step-end;
       stroke: black;
       stroke-dashoffset: 0;
       stroke-width: 128;
       }
       to {
       stroke: black;
       stroke-width: 1024;
       }
       }
       #make-me-a-hanzi-animation-6 {
         animation: keyframes6 0.656087s both;
         animation-delay: 4.096028s;
         animation-timing-function: linear;
       }
    @keyframes keyframes7 {
      from {
       stroke: black;
       stroke-dashoffset: 670;
       stroke-width: 128;
       }
       69% {
       animation-timing-function: step-end;
       stroke: black;
       stroke-dashoffset: 0;
       stroke-width: 128;
       }
       to {
       stroke: black;
       stroke-width: 1024;
       }
       }
       #make-me-a-hanzi-animation-7 {
         animation: keyframes7 0.795247s both;
         animation-delay: 4.752115s;
         animation-timing-function: linear;
       }
    @keyframes keyframes8 {
      from {
       stroke: black;
       stroke-dashoffset: 685;
       stroke-width: 128;
       }
       69% {
       animation-timing-function: step-end;
       stroke: black;
       stroke-dashoffset: 0;
       stroke-width: 128;
       }
       to {
       stroke: black;
       stroke-width: 1024;
       }
       }
       #make-me-a-hanzi-animation-8 {
         animation: keyframes8 0.807454s both;
         animation-delay: 5.547362s;
         animation-timing-function: linear;
       }
    @keyframes keyframes9 {
      from {
       stroke: black;
       stroke-dashoffset: 694;
       stroke-width: 128;
       }
       69% {
       animation-timing-function: step-end;
       stroke: black;
       stroke-dashoffset: 0;
       stroke-width: 128;
       }
       to {
       stroke: black;
       stroke-width: 1024;
       }
       }
       #make-me-a-hanzi-animation-9 {
         animation: keyframes9 0.814779s both;
         animation-delay: 6.354816s;
         animation-timing-function: linear;
       }
    @keyframes keyframes10 {
      from {
       stroke: black;
       stroke-dashoffset: 392;
       stroke-width: 128;
       }
       56% {
       animation-timing-function: step-end;
       stroke: black;
       stroke-dashoffset: 0;
       stroke-width: 128;
       }
       to {
       stroke: black;
       stroke-width: 1024;
       }
       }
       #make-me-a-hanzi-animation-10 {
         animation: keyframes10 0.569010s both;
         animation-delay: 7.169595s;
         animation-timing-function: linear;
       }
    @keyframes keyframes11 {
      from {
       stroke: black;
       stroke-dashoffset: 474;
       stroke-width: 128;
       }
       61% {
       animation-timing-function: step-end;
       stroke: black;
       stroke-dashoffset: 0;
       stroke-width: 128;
       }
       to {
       stroke: black;
       stroke-width: 1024;
       }
       }
       #make-me-a-hanzi-animation-11 {
         animation: keyframes11 0.635742s both;
         animation-delay: 7.738605s;
         animation-timing-function: linear;
       }
    @keyframes keyframes12 {
      from {
       stroke: black;
       stroke-dashoffset: 892;
       stroke-width: 128;
       }
       74% {
       animation-timing-function: step-end;
       stroke: black;
       stroke-dashoffset: 0;
       stroke-width: 128;
       }
       to {
       stroke: black;
       stroke-width: 1024;
       }
       }
       #make-me-a-hanzi-animation-12 {
         animation: keyframes12 0.975911s both;
         animation-delay: 8.374347s;
         animation-timing-function: linear;
       }
    @keyframes keyframes13 {
      from {
       stroke: black;
       stroke-dashoffset: 904;
       stroke-width: 128;
       }
       75% {
       animation-timing-function: step-end;
       stroke: black;
       stroke-dashoffset: 0;
       stroke-width: 128;
       }
       to {
       stroke: black;
       stroke-width: 1024;
       }
       }
       #make-me-a-hanzi-animation-13 {
         animation: keyframes13 0.985677s both;
         animation-delay: 9.350258s;
         animation-timing-function: linear;
       }
    @keyframes keyframes14 {
      from {
       stroke: black;
       stroke-dashoffset: 495;
       stroke-width: 128;
       }
       62% {
       animation-timing-function: step-end;
       stroke: black;
       stroke-dashoffset: 0;
       stroke-width: 128;
       }
       to {
       stroke: black;
       stroke-width: 1024;
       }
       }
       #make-me-a-hanzi-animation-14 {
         animation: keyframes14 0.652832s both;
         animation-delay: 10.335935s;
         animation-timing-function: linear;
       }
    @keyframes keyframes15 {
      from {
       stroke: black;
       stroke-dashoffset: 1125;
       stroke-width: 128;
       }
       79% {
       animation-timing-function: step-end;
       stroke: black;
       stroke-dashoffset: 0;
       stroke-width: 128;
       }
       to {
       stroke: black;
       stroke-width: 1024;
       }
       }
       #make-me-a-hanzi-animation-15 {
         animation: keyframes15 1.165527s both;
         animation-delay: 10.988767s;
         animation-timing-function: linear;
       }
</style>
<path d="M 276.5 506.5 L 326.5 514.5 Q 330.5 514.5 374.5 524.5 L 422.5 536.5 Q 455.5 546.5 427.5 566.5 Q 391.5 590.5 367.5 581.5 Q 359.5 578.5 311.5 566.5 L 247.5 551.5 Q 211.5 543.5 192.5 541.5 L 139.5 534.5 L 116.5 532.5 Q 104.5 530.5 102.5 525.5 Q 100.5 517.5 110.5 510.5 Q 131.5 493.5 160.5 493.5 L 224.5 499.5 L 276.5 506.5 Z" fill="lightgray"></path> 
<path d="M 199.5 264.5 L 214.5 288.5 Q 216.5 292.5 238.5 341.5 L 263.5 394.5 Q 295.5 474.5 296.5 477.5 Q 296.5 479.5 290.5 490.5 Q 284.5 500.5 276.5 506.5 C 255.5 528.5 216.5 528.5 224.5 499.5 L 228.5 486.5 Q 229.5 484.5 227.5 469.5 Q 224.5 454.5 218.5 438.5 Q 212.5 421.5 202.5 387.5 Q 192.5 353.5 172.5 317.5 Q 152.5 281.5 135.5 246.5 Q 119.5 217.5 100.5 190.5 L 72.5 148.5 L 22.5 88.5 Q 16.5 78.5 18.5 73.5 Q 22.5 70.5 32.5 76.5 L 53.5 89.5 Q 74.5 100.5 84.5 112.5 Q 143.5 178.5 150.5 189.5 L 176.5 224.5 L 199.5 264.5 Z" fill="lightgray"></path> 
<path d="M 176.5 224.5 L 184.5 175.5 L 187.5 160.5 L 196.5 88.5 Q 203.5 52.5 209.5 46.5 Q 214.5 40.5 222.5 38.5 L 232.5 40.5 Q 237.5 43.5 238.5 49.5 L 238.5 68.5 L 238.5 106.5 L 236.5 134.5 L 232.5 170.5 L 229.5 214.5 Q 227.5 222.5 226.5 240.5 C 223.5 290.5 166.5 288.5 176.5 224.5 Z" fill="lightgray"></path> 
<path d="M 226.5 240.5 L 244.5 240.5 L 304.5 253.5 Q 337.5 262.5 341.5 252.5 Q 343.5 249.5 341.5 238.5 L 340.5 207.5 L 330.5 120.5 C 327.5 90.5 370.5 79.5 377.5 108.5 L 393.5 176.5 Q 398.5 210.5 412.5 237.5 L 419.5 250.5 Q 424.5 267.5 424.5 271.5 Q 423.5 275.5 417.5 278.5 Q 411.5 280.5 408.5 283.5 Q 405.5 285.5 398.5 289.5 Q 391.5 293.5 375.5 300.5 Q 359.5 307.5 356.5 307.5 Q 352.5 306.5 337.5 301.5 L 312.5 288.5 Q 310.5 287.5 302.5 285.5 L 279.5 278.5 L 242.5 270.5 Q 227.5 268.5 199.5 264.5 C 169.5 260.5 196.5 240.5 226.5 240.5 Z" fill="lightgray"></path> 
<path d="M 296.5 72.5 Q 320.5 72.5 355.5 77.5 L 383.5 77.5 Q 394.5 77.5 398.5 84.5 Q 402.5 90.5 393.5 97.5 L 377.5 108.5 L 330.5 120.5 L 318.5 120.5 L 299.5 115.5 Q 271.5 108.5 238.5 106.5 C 208.5 104.5 208.5 68.5 238.5 68.5 L 257.5 68.5 L 296.5 72.5 Z" fill="lightgray"></path> 
<path d="M 597.5 569.5 Q 597.5 616.5 566.5 633.5 Q 550.5 642.5 509.5 658.5 L 489.5 663.5 Q 477.5 666.5 472.5 661.5 Q 464.5 656.5 472.5 647.5 L 486.5 626.5 L 498.5 605.5 L 526.5 563.5 Q 544.5 538.5 552.5 532.5 Q 597.5 506.5 597.5 569.5 Z" fill="lightgray"></path> 
<path d="M 716.5 545.5 L 718.5 546.5 Q 753.5 581.5 788.5 616.5 L 818.5 653.5 Q 826.5 663.5 839.0 670.0 Q 851.5 676.5 853.5 682.5 Q 855.5 691.5 852.0 696.0 Q 848.5 700.5 833.5 710.5 Q 818.5 720.5 812.5 723.5 L 800.5 729.5 Q 792.5 734.5 777.5 738.0 Q 762.5 741.5 760.5 737.5 Q 757.5 735.5 755.5 723.5 L 751.5 694.5 L 743.5 662.5 Q 740.5 650.5 728.5 626.5 L 708.5 591.5 L 690.5 555.5 L 678.5 536.5 Q 672.5 525.5 676.5 521.5 Q 680.5 517.5 693.5 526.5 L 716.5 545.5 Z" fill="lightgray"></path> 
<path d="M 750.5 442.5 L 803.5 448.5 Q 841.5 454.5 848.5 456.5 L 867.5 461.5 Q 896.5 469.5 875.0 490.0 Q 853.5 510.5 815.5 510.5 L 752.5 496.5 L 678.5 484.5 L 605.5 470.5 Q 603.5 470.5 543.5 461.5 Q 478.5 456.5 477.5 456.5 L 460.5 454.5 Q 455.5 454.5 452.0 450.5 Q 448.5 446.5 458.0 436.0 Q 467.5 425.5 484.5 423.5 L 513.5 418.5 L 546.5 418.5 L 614.5 424.5 L 685.5 433.5 L 750.5 442.5 Z" fill="lightgray"></path> 
<path d="M 546.5 418.5 L 554.5 408.5 Q 559.5 398.5 559.5 372.5 L 561.5 344.5 L 561.5 338.5 L 562.5 326.5 L 563.5 312.5 L 570.5 3.5 C 571.5 -26.5 612.5 -21.5 612.5 8.5 L 616.5 283.5 Q 616.5 348.5 620.5 374.5 L 623.5 399.5 Q 626.5 411.5 614.5 424.5 C 597.5 449.5 528.5 442.5 546.5 418.5 Z" fill="lightgray"></path> 
<path d="M 770.5 404.5 Q 773.5 412.5 773.5 416.5 Q 773.5 430.5 750.5 442.5 C 725.5 458.5 668.5 458.5 685.5 433.5 L 693.5 423.5 Q 693.5 420.5 695.5 417.5 Q 704.5 404.5 704.5 355.5 Q 706.5 340.5 704.5 289.5 L 702.5 14.5 C 702.5 -15.5 745.5 -11.5 746.5 18.5 L 758.5 270.5 Q 760.5 294.5 760.5 355.5 L 770.5 404.5 Z" fill="lightgray"></path> 
<path d="M 456.5 267.5 Q 446.5 271.5 444.5 266.5 Q 443.5 262.5 444.5 258.5 L 452.5 237.5 Q 464.5 210.5 467.5 207.5 L 480.5 175.5 Q 496.5 130.5 517.5 130.5 Q 527.5 130.5 535.5 142.5 Q 541.5 156.5 541.0 177.0 Q 540.5 197.5 534.5 211.0 Q 528.5 224.5 512.5 237.5 Q 488.5 253.5 482.5 256.5 L 456.5 267.5 Z" fill="lightgray"></path> 
<path d="M 846.5 188.5 L 897.5 234.5 Q 899.5 236.5 903.0 239.0 Q 906.5 241.5 907.5 242.5 Q 908.5 243.5 914.5 249.0 Q 920.5 254.5 929.5 259.0 Q 938.5 263.5 941.0 266.5 Q 943.5 269.5 938.5 279.0 Q 933.5 288.5 925.5 295.5 L 902.5 314.5 L 877.5 330.5 Q 866.5 334.5 861.5 331.5 Q 857.5 328.5 854.5 314.0 Q 851.5 299.5 838.5 266.5 L 810.5 204.5 Q 806.5 197.5 802.5 190.5 L 779.5 150.5 Q 775.5 146.5 777.5 140.5 Q 779.5 138.5 789.5 144.5 L 846.5 188.5 Z" fill="lightgray"></path> 
<path d="M 570.5 3.5 L 505.5 -3.5 L 460.5 -9.5 Q 430.5 -12.5 410.5 -12.5 L 394.5 -12.5 Q 370.5 -12.5 367.5 -17.5 Q 360.5 -32.5 384.5 -43.5 L 420.5 -59.5 Q 441.5 -65.5 453.5 -65.0 Q 465.5 -64.5 494.0 -56.5 Q 522.5 -48.5 541.0 -45.0 Q 559.5 -41.5 592.5 -39.5 Q 625.5 -37.5 672.5 -33.5 L 782.5 -27.5 L 957.5 -27.5 Q 1001.5 -27.5 1005.5 -15.5 Q 1007.5 -11.5 1002.0 -2.0 Q 996.5 7.5 979.5 14.5 L 941.5 30.5 Q 920.5 39.5 911.5 40.5 L 884.5 34.5 L 882.5 34.5 Q 880.5 33.5 876.5 32.5 L 813.5 22.5 L 797.5 21.5 Q 773.5 20.5 746.5 18.5 L 702.5 14.5 L 612.5 8.5 L 570.5 3.5 Z" fill="lightgray"></path> 
<path d="M 1462.0 631.5 L 1468.0 540.5 Q 1469.0 527.5 1469.0 486.5 L 1467.0 67.5 C 1467.0 37.5 1524.0 43.5 1525.0 73.5 L 1533.0 382.5 L 1533.0 412.5 L 1536.0 498.5 Q 1537.0 516.5 1537.0 542.5 L 1541.0 574.5 L 1548.0 610.5 L 1563.0 646.5 Q 1563.0 664.5 1531.0 679.5 L 1490.0 696.5 Q 1482.0 699.5 1463.0 703.5 Q 1443.0 706.5 1443.0 693.5 Q 1443.0 688.5 1445.0 680.5 L 1453.0 661.5 Q 1460.0 645.5 1462.0 631.5 Z" fill="lightgray"></path> 
<path d="M 1533.0 382.5 L 1567.0 379.5 Q 1570.0 378.5 1607.0 380.5 L 1758.0 403.5 Q 1787.0 407.5 1788.0 423.5 Q 1789.0 428.5 1781.0 436.5 Q 1772.0 444.5 1756.0 449.5 Q 1722.0 462.5 1704.0 453.5 L 1673.0 443.5 Q 1642.0 433.5 1625.0 431.5 L 1533.0 412.5 C 1504.0 406.5 1503.0 385.5 1533.0 382.5 Z" fill="lightgray"></path> 
<path d="M 1467.0 67.5 L 1178.0 39.5 L 1104.0 34.5 Q 1098.0 34.5 1096.0 29.5 Q 1094.0 24.5 1102.0 15.5 Q 1107.0 6.5 1124.0 -4.5 Q 1140.0 -16.5 1152.0 -22.5 Q 1174.0 -30.5 1180.0 -29.5 Q 1185.0 -29.5 1211.0 -20.5 Q 1237.0 -11.5 1275.0 -7.5 L 1422.0 12.5 L 1581.0 24.5 Q 1656.0 26.5 1677.0 30.5 Q 1725.0 40.5 1909.0 32.5 L 1936.0 31.5 Q 1948.0 30.5 1965.0 32.5 Q 1972.0 35.5 1975.0 41.5 Q 1978.0 46.5 1966.0 62.5 Q 1954.0 78.5 1943.0 83.5 Q 1932.0 92.5 1911.0 100.5 Q 1889.0 108.5 1883.0 108.5 Q 1876.0 108.5 1864.0 105.5 Q 1851.0 101.5 1829.0 99.5 L 1758.0 92.5 L 1525.0 73.5 L 1467.0 67.5 Z" fill="lightgray"></path> 
      <clipPath id="make-me-a-hanzi-clip-0">
      <path d="M 276.5 506.5 L 326.5 514.5 Q 330.5 514.5 374.5 524.5 L 422.5 536.5 Q 455.5 546.5 427.5 566.5 Q 391.5 590.5 367.5 581.5 Q 359.5 578.5 311.5 566.5 L 247.5 551.5 Q 211.5 543.5 192.5 541.5 L 139.5 534.5 L 116.5 532.5 Q 104.5 530.5 102.5 525.5 Q 100.5 517.5 110.5 510.5 Q 131.5 493.5 160.5 493.5 L 224.5 499.5 L 276.5 506.5 Z" fill="lightgray"></path>
      </clipPath>
      <path clip-path="url(#make-me-a-hanzi-clip-0)" d="M 112.5 522.5 L 155.5 514.5 L 266.5 529.5 L 379.5 555.5 L 425.5 551.5 " fill="none" id="make-me-a-hanzi-animation-0" stroke-dasharray="446 892" stroke-linecap="round"></path>

      <clipPath id="make-me-a-hanzi-clip-1">
      <path d="M 199.5 264.5 L 214.5 288.5 Q 216.5 292.5 238.5 341.5 L 263.5 394.5 Q 295.5 474.5 296.5 477.5 Q 296.5 479.5 290.5 490.5 Q 284.5 500.5 276.5 506.5 C 255.5 528.5 216.5 528.5 224.5 499.5 L 228.5 486.5 Q 229.5 484.5 227.5 469.5 Q 224.5 454.5 218.5 438.5 Q 212.5 421.5 202.5 387.5 Q 192.5 353.5 172.5 317.5 Q 152.5 281.5 135.5 246.5 Q 119.5 217.5 100.5 190.5 L 72.5 148.5 L 22.5 88.5 Q 16.5 78.5 18.5 73.5 Q 22.5 70.5 32.5 76.5 L 53.5 89.5 Q 74.5 100.5 84.5 112.5 Q 143.5 178.5 150.5 189.5 L 176.5 224.5 L 199.5 264.5 Z" fill="lightgray"></path>
      </clipPath>
      <path clip-path="url(#make-me-a-hanzi-clip-1)" d="M 231.5 494.5 L 259.5 471.5 L 203.5 321.5 L 154.5 232.5 L 95.5 148.5 L 24.5 79.5 " fill="none" id="make-me-a-hanzi-animation-1" stroke-dasharray="628 1256" stroke-linecap="round"></path>

      <clipPath id="make-me-a-hanzi-clip-2">
      <path d="M 176.5 224.5 L 184.5 175.5 L 187.5 160.5 L 196.5 88.5 Q 203.5 52.5 209.5 46.5 Q 214.5 40.5 222.5 38.5 L 232.5 40.5 Q 237.5 43.5 238.5 49.5 L 238.5 68.5 L 238.5 106.5 L 236.5 134.5 L 232.5 170.5 L 229.5 214.5 Q 227.5 222.5 226.5 240.5 C 223.5 290.5 166.5 288.5 176.5 224.5 Z" fill="lightgray"></path>
      </clipPath>
      <path clip-path="url(#make-me-a-hanzi-clip-2)" d="M 199.5 255.5 L 217.5 82.5 L 225.5 52.5 " fill="none" id="make-me-a-hanzi-animation-2" stroke-dasharray="333 666" stroke-linecap="round"></path>

      <clipPath id="make-me-a-hanzi-clip-3">
      <path d="M 226.5 240.5 L 244.5 240.5 L 304.5 253.5 Q 337.5 262.5 341.5 252.5 Q 343.5 249.5 341.5 238.5 L 340.5 207.5 L 330.5 120.5 C 327.5 90.5 370.5 79.5 377.5 108.5 L 393.5 176.5 Q 398.5 210.5 412.5 237.5 L 419.5 250.5 Q 424.5 267.5 424.5 271.5 Q 423.5 275.5 417.5 278.5 Q 411.5 280.5 408.5 283.5 Q 405.5 285.5 398.5 289.5 Q 391.5 293.5 375.5 300.5 Q 359.5 307.5 356.5 307.5 Q 352.5 306.5 337.5 301.5 L 312.5 288.5 Q 310.5 287.5 302.5 285.5 L 279.5 278.5 L 242.5 270.5 Q 227.5 268.5 199.5 264.5 C 169.5 260.5 196.5 240.5 226.5 240.5 Z" fill="lightgray"></path>
      </clipPath>
      <path clip-path="url(#make-me-a-hanzi-clip-3)" d="M 208.5 265.5 L 231.5 254.5 L 341.5 279.5 L 369.5 268.5 L 379.5 256.5 L 358.5 140.5 L 373.5 116.5 " fill="none" id="make-me-a-hanzi-animation-3" stroke-dasharray="458 916" stroke-linecap="round"></path>

      <clipPath id="make-me-a-hanzi-clip-4">
      <path d="M 296.5 72.5 Q 320.5 72.5 355.5 77.5 L 383.5 77.5 Q 394.5 77.5 398.5 84.5 Q 402.5 90.5 393.5 97.5 L 377.5 108.5 L 330.5 120.5 L 318.5 120.5 L 299.5 115.5 Q 271.5 108.5 238.5 106.5 C 208.5 104.5 208.5 68.5 238.5 68.5 L 257.5 68.5 L 296.5 72.5 Z" fill="lightgray"></path>
      </clipPath>
      <path clip-path="url(#make-me-a-hanzi-clip-4)" d="M 243.5 74.5 L 256.5 87.5 L 324.5 97.5 L 389.5 88.5 " fill="none" id="make-me-a-hanzi-animation-4" stroke-dasharray="281 562" stroke-linecap="round"></path>

      <clipPath id="make-me-a-hanzi-clip-5">
      <path d="M 597.5 569.5 Q 597.5 616.5 566.5 633.5 Q 550.5 642.5 509.5 658.5 L 489.5 663.5 Q 477.5 666.5 472.5 661.5 Q 464.5 656.5 472.5 647.5 L 486.5 626.5 L 498.5 605.5 L 526.5 563.5 Q 544.5 538.5 552.5 532.5 Q 597.5 506.5 597.5 569.5 Z" fill="lightgray"></path>
      </clipPath>
      <path clip-path="url(#make-me-a-hanzi-clip-5)" d="M 479.5 654.5 L 552.5 595.5 L 574.5 545.5 " fill="none" id="make-me-a-hanzi-animation-5" stroke-dasharray="276 552" stroke-linecap="round"></path>

      <clipPath id="make-me-a-hanzi-clip-6">
      <path d="M 716.5 545.5 L 718.5 546.5 Q 753.5 581.5 788.5 616.5 L 818.5 653.5 Q 826.5 663.5 839.0 670.0 Q 851.5 676.5 853.5 682.5 Q 855.5 691.5 852.0 696.0 Q 848.5 700.5 833.5 710.5 Q 818.5 720.5 812.5 723.5 L 800.5 729.5 Q 792.5 734.5 777.5 738.0 Q 762.5 741.5 760.5 737.5 Q 757.5 735.5 755.5 723.5 L 751.5 694.5 L 743.5 662.5 Q 740.5 650.5 728.5 626.5 L 708.5 591.5 L 690.5 555.5 L 678.5 536.5 Q 672.5 525.5 676.5 521.5 Q 680.5 517.5 693.5 526.5 L 716.5 545.5 Z" fill="lightgray"></path>
      </clipPath>
      <path clip-path="url(#make-me-a-hanzi-clip-6)" d="M 840.5 687.5 L 792.5 686.5 L 763.5 631.5 L 703.5 549.5 L 680.5 528.5 " fill="none" id="make-me-a-hanzi-animation-6" stroke-dasharray="371 742" stroke-linecap="round"></path>

      <clipPath id="make-me-a-hanzi-clip-7">
      <path d="M 750.5 442.5 L 803.5 448.5 Q 841.5 454.5 848.5 456.5 L 867.5 461.5 Q 896.5 469.5 875.0 490.0 Q 853.5 510.5 815.5 510.5 L 752.5 496.5 L 678.5 484.5 L 605.5 470.5 Q 603.5 470.5 543.5 461.5 Q 478.5 456.5 477.5 456.5 L 460.5 454.5 Q 455.5 454.5 452.0 450.5 Q 448.5 446.5 458.0 436.0 Q 467.5 425.5 484.5 423.5 L 513.5 418.5 L 546.5 418.5 L 614.5 424.5 L 685.5 433.5 L 750.5 442.5 Z" fill="lightgray"></path>
      </clipPath>
      <path clip-path="url(#make-me-a-hanzi-clip-7)" d="M 459.5 445.5 L 541.5 439.5 L 822.5 481.5 L 869.5 476.5 " fill="none" id="make-me-a-hanzi-animation-7" stroke-dasharray="542 1084" stroke-linecap="round"></path>

      <clipPath id="make-me-a-hanzi-clip-8">
      <path d="M 546.5 418.5 L 554.5 408.5 Q 559.5 398.5 559.5 372.5 L 561.5 344.5 L 561.5 338.5 L 562.5 326.5 L 563.5 312.5 L 570.5 3.5 C 571.5 -26.5 612.5 -21.5 612.5 8.5 L 616.5 283.5 Q 616.5 348.5 620.5 374.5 L 623.5 399.5 Q 626.5 411.5 614.5 424.5 C 597.5 449.5 528.5 442.5 546.5 418.5 Z" fill="lightgray"></path>
      </clipPath>
      <path clip-path="url(#make-me-a-hanzi-clip-8)" d="M 553.5 415.5 L 590.5 390.5 L 591.5 31.5 L 576.5 11.5 " fill="none" id="make-me-a-hanzi-animation-8" stroke-dasharray="557 1114" stroke-linecap="round"></path>

      <clipPath id="make-me-a-hanzi-clip-9">
      <path d="M 770.5 404.5 Q 773.5 412.5 773.5 416.5 Q 773.5 430.5 750.5 442.5 C 725.5 458.5 668.5 458.5 685.5 433.5 L 693.5 423.5 Q 693.5 420.5 695.5 417.5 Q 704.5 404.5 704.5 355.5 Q 706.5 340.5 704.5 289.5 L 702.5 14.5 C 702.5 -15.5 745.5 -11.5 746.5 18.5 L 758.5 270.5 Q 760.5 294.5 760.5 355.5 L 770.5 404.5 Z" fill="lightgray"></path>
      </clipPath>
      <path clip-path="url(#make-me-a-hanzi-clip-9)" d="M 692.5 430.5 L 735.5 405.5 L 725.5 43.5 L 709.5 22.5 " fill="none" id="make-me-a-hanzi-animation-9" stroke-dasharray="566 1132" stroke-linecap="round"></path>

      <clipPath id="make-me-a-hanzi-clip-10">
      <path d="M 456.5 267.5 Q 446.5 271.5 444.5 266.5 Q 443.5 262.5 444.5 258.5 L 452.5 237.5 Q 464.5 210.5 467.5 207.5 L 480.5 175.5 Q 496.5 130.5 517.5 130.5 Q 527.5 130.5 535.5 142.5 Q 541.5 156.5 541.0 177.0 Q 540.5 197.5 534.5 211.0 Q 528.5 224.5 512.5 237.5 Q 488.5 253.5 482.5 256.5 L 456.5 267.5 Z" fill="lightgray"></path>
      </clipPath>
      <path clip-path="url(#make-me-a-hanzi-clip-10)" d="M 450.5 262.5 L 502.5 203.5 L 517.5 148.5 " fill="none" id="make-me-a-hanzi-animation-10" stroke-dasharray="264 528" stroke-linecap="round"></path>

      <clipPath id="make-me-a-hanzi-clip-11">
      <path d="M 846.5 188.5 L 897.5 234.5 Q 899.5 236.5 903.0 239.0 Q 906.5 241.5 907.5 242.5 Q 908.5 243.5 914.5 249.0 Q 920.5 254.5 929.5 259.0 Q 938.5 263.5 941.0 266.5 Q 943.5 269.5 938.5 279.0 Q 933.5 288.5 925.5 295.5 L 902.5 314.5 L 877.5 330.5 Q 866.5 334.5 861.5 331.5 Q 857.5 328.5 854.5 314.0 Q 851.5 299.5 838.5 266.5 L 810.5 204.5 Q 806.5 197.5 802.5 190.5 L 779.5 150.5 Q 775.5 146.5 777.5 140.5 Q 779.5 138.5 789.5 144.5 L 846.5 188.5 Z" fill="lightgray"></path>
      </clipPath>
      <path clip-path="url(#make-me-a-hanzi-clip-11)" d="M 866.5 324.5 L 883.5 275.5 L 829.5 198.5 L 782.5 144.5 " fill="none" id="make-me-a-hanzi-animation-11" stroke-dasharray="346 692" stroke-linecap="round"></path>

      <clipPath id="make-me-a-hanzi-clip-12">
      <path d="M 570.5 3.5 L 505.5 -3.5 L 460.5 -9.5 Q 430.5 -12.5 410.5 -12.5 L 394.5 -12.5 Q 370.5 -12.5 367.5 -17.5 Q 360.5 -32.5 384.5 -43.5 L 420.5 -59.5 Q 441.5 -65.5 453.5 -65.0 Q 465.5 -64.5 494.0 -56.5 Q 522.5 -48.5 541.0 -45.0 Q 559.5 -41.5 592.5 -39.5 Q 625.5 -37.5 672.5 -33.5 L 782.5 -27.5 L 957.5 -27.5 Q 1001.5 -27.5 1005.5 -15.5 Q 1007.5 -11.5 1002.0 -2.0 Q 996.5 7.5 979.5 14.5 L 941.5 30.5 Q 920.5 39.5 911.5 40.5 L 884.5 34.5 L 882.5 34.5 Q 880.5 33.5 876.5 32.5 L 813.5 22.5 L 797.5 21.5 Q 773.5 20.5 746.5 18.5 L 702.5 14.5 L 612.5 8.5 L 570.5 3.5 Z" fill="lightgray"></path>
      </clipPath>
      <path clip-path="url(#make-me-a-hanzi-clip-12)" d="M 375.5 -24.5 L 450.5 -37.5 L 621.5 -13.5 L 910.5 6.5 L 1000.5 -9.5 L 1000.5 -15.5 " fill="none" id="make-me-a-hanzi-animation-12" stroke-dasharray="764 1528" stroke-linecap="round"></path>

      <clipPath id="make-me-a-hanzi-clip-13">
      <path d="M 1462.0 631.5 L 1468.0 540.5 Q 1469.0 527.5 1469.0 486.5 L 1467.0 67.5 C 1467.0 37.5 1524.0 43.5 1525.0 73.5 L 1533.0 382.5 L 1533.0 412.5 L 1536.0 498.5 Q 1537.0 516.5 1537.0 542.5 L 1541.0 574.5 L 1548.0 610.5 L 1563.0 646.5 Q 1563.0 664.5 1531.0 679.5 L 1490.0 696.5 Q 1482.0 699.5 1463.0 703.5 Q 1443.0 706.5 1443.0 693.5 Q 1443.0 688.5 1445.0 680.5 L 1453.0 661.5 Q 1460.0 645.5 1462.0 631.5 Z" fill="lightgray"></path>
      </clipPath>
      <path clip-path="url(#make-me-a-hanzi-clip-13)" d="M 1456.0 692.5 L 1509.0 638.5 L 1502.0 550.5 L 1497.0 100.5 L 1474.0 75.5 " fill="none" id="make-me-a-hanzi-animation-13" stroke-dasharray="776 1552" stroke-linecap="round"></path>

      <clipPath id="make-me-a-hanzi-clip-14">
      <path d="M 1533.0 382.5 L 1567.0 379.5 Q 1570.0 378.5 1607.0 380.5 L 1758.0 403.5 Q 1787.0 407.5 1788.0 423.5 Q 1789.0 428.5 1781.0 436.5 Q 1772.0 444.5 1756.0 449.5 Q 1722.0 462.5 1704.0 453.5 L 1673.0 443.5 Q 1642.0 433.5 1625.0 431.5 L 1533.0 412.5 C 1504.0 406.5 1503.0 385.5 1533.0 382.5 Z" fill="lightgray"></path>
      </clipPath>
      <path clip-path="url(#make-me-a-hanzi-clip-14)" d="M 1539.0 390.5 L 1551.0 398.5 L 1626.0 406.5 L 1721.0 427.5 L 1773.0 423.5 " fill="none" id="make-me-a-hanzi-animation-14" stroke-dasharray="367 734" stroke-linecap="round"></path>

      <clipPath id="make-me-a-hanzi-clip-15">
      <path d="M 1467.0 67.5 L 1178.0 39.5 L 1104.0 34.5 Q 1098.0 34.5 1096.0 29.5 Q 1094.0 24.5 1102.0 15.5 Q 1107.0 6.5 1124.0 -4.5 Q 1140.0 -16.5 1152.0 -22.5 Q 1174.0 -30.5 1180.0 -29.5 Q 1185.0 -29.5 1211.0 -20.5 Q 1237.0 -11.5 1275.0 -7.5 L 1422.0 12.5 L 1581.0 24.5 Q 1656.0 26.5 1677.0 30.5 Q 1725.0 40.5 1909.0 32.5 L 1936.0 31.5 Q 1948.0 30.5 1965.0 32.5 Q 1972.0 35.5 1975.0 41.5 Q 1978.0 46.5 1966.0 62.5 Q 1954.0 78.5 1943.0 83.5 Q 1932.0 92.5 1911.0 100.5 Q 1889.0 108.5 1883.0 108.5 Q 1876.0 108.5 1864.0 105.5 Q 1851.0 101.5 1829.0 99.5 L 1758.0 92.5 L 1525.0 73.5 L 1467.0 67.5 Z" fill="lightgray"></path>
      </clipPath>
      <path clip-path="url(#make-me-a-hanzi-clip-15)" d="M 1104.0 24.5 L 1178.0 5.5 L 1416.0 37.5 L 1881.0 70.5 L 1922.0 62.5 L 1963.0 44.5 " fill="none" id="make-me-a-hanzi-animation-15" stroke-dasharray="997 1994" stroke-linecap="round"></path>

</g>
</svg>
