<svg version="1.1" viewBox="0 0 2048 1024" xmlns="http://www.w3.org/2000/svg">
  <g stroke="lightgray" stroke-dasharray="1,1" stroke-width="1" transform="scale(4, 4)">
    <line x1="0" y1="0" x2="256" y2="256"></line>
    <line x1="256" y1="0" x2="0" y2="256"></line>
    <line x1="128" y1="0" x2="128" y2="256"></line>
    <line x1="0" y1="128" x2="256" y2="128"></line>
    <line x1="256" y1="0" x2="512" y2="256"></line>
    <line x1="512" y1="0" x2="256" y2="256"></line>
    <line x1="384" y1="0" x2="384" y2="256"></line>
    <line x1="256" y1="128" x2="512" y2="128"></line>
  </g>
<g transform="scale(1, -1) translate(0, -850)">
   <style type="text/css">
    @keyframes keyframes0 {
      from {
       stroke: black;
       stroke-dashoffset: 568;
       stroke-width: 128;
       }
       65% {
       animation-timing-function: step-end;
       stroke: black;
       stroke-dashoffset: 0;
       stroke-width: 128;
       }
       to {
       stroke: black;
       stroke-width: 1024;
       }
       }
       #make-me-a-hanzi-animation-0 {
         animation: keyframes0 0.712240s both;
         animation-delay: 0.000000s;
         animation-timing-function: linear;
       }
    @keyframes keyframes1 {
      from {
       stroke: black;
       stroke-dashoffset: 719;
       stroke-width: 128;
       }
       70% {
       animation-timing-function: step-end;
       stroke: black;
       stroke-dashoffset: 0;
       stroke-width: 128;
       }
       to {
       stroke: black;
       stroke-width: 1024;
       }
       }
       #make-me-a-hanzi-animation-1 {
         animation: keyframes1 0.835124s both;
         animation-delay: 0.712240s;
         animation-timing-function: linear;
       }
    @keyframes keyframes2 {
      from {
       stroke: black;
       stroke-dashoffset: 447;
       stroke-width: 128;
       }
       59% {
       animation-timing-function: step-end;
       stroke: black;
       stroke-dashoffset: 0;
       stroke-width: 128;
       }
       to {
       stroke: black;
       stroke-width: 1024;
       }
       }
       #make-me-a-hanzi-animation-2 {
         animation: keyframes2 0.613770s both;
         animation-delay: 1.547364s;
         animation-timing-function: linear;
       }
    @keyframes keyframes3 {
      from {
       stroke: black;
       stroke-dashoffset: 545;
       stroke-width: 128;
       }
       64% {
       animation-timing-function: step-end;
       stroke: black;
       stroke-dashoffset: 0;
       stroke-width: 128;
       }
       to {
       stroke: black;
       stroke-width: 1024;
       }
       }
       #make-me-a-hanzi-animation-3 {
         animation: keyframes3 0.693522s both;
         animation-delay: 2.161134s;
         animation-timing-function: linear;
       }
    @keyframes keyframes4 {
      from {
       stroke: black;
       stroke-dashoffset: 395;
       stroke-width: 128;
       }
       56% {
       animation-timing-function: step-end;
       stroke: black;
       stroke-dashoffset: 0;
       stroke-width: 128;
       }
       to {
       stroke: black;
       stroke-width: 1024;
       }
       }
       #make-me-a-hanzi-animation-4 {
         animation: keyframes4 0.571452s both;
         animation-delay: 2.854656s;
         animation-timing-function: linear;
       }
    @keyframes keyframes5 {
      from {
       stroke: black;
       stroke-dashoffset: 500;
       stroke-width: 128;
       }
       62% {
       animation-timing-function: step-end;
       stroke: black;
       stroke-dashoffset: 0;
       stroke-width: 128;
       }
       to {
       stroke: black;
       stroke-width: 1024;
       }
       }
       #make-me-a-hanzi-animation-5 {
         animation: keyframes5 0.656901s both;
         animation-delay: 3.426108s;
         animation-timing-function: linear;
       }
    @keyframes keyframes6 {
      from {
       stroke: black;
       stroke-dashoffset: 524;
       stroke-width: 128;
       }
       63% {
       animation-timing-function: step-end;
       stroke: black;
       stroke-dashoffset: 0;
       stroke-width: 128;
       }
       to {
       stroke: black;
       stroke-width: 1024;
       }
       }
       #make-me-a-hanzi-animation-6 {
         animation: keyframes6 0.676432s both;
         animation-delay: 4.083009s;
         animation-timing-function: linear;
       }
    @keyframes keyframes7 {
      from {
       stroke: black;
       stroke-dashoffset: 544;
       stroke-width: 128;
       }
       64% {
       animation-timing-function: step-end;
       stroke: black;
       stroke-dashoffset: 0;
       stroke-width: 128;
       }
       to {
       stroke: black;
       stroke-width: 1024;
       }
       }
       #make-me-a-hanzi-animation-7 {
         animation: keyframes7 0.692708s both;
         animation-delay: 4.759441s;
         animation-timing-function: linear;
       }
    @keyframes keyframes8 {
      from {
       stroke: black;
       stroke-dashoffset: 553;
       stroke-width: 128;
       }
       64% {
       animation-timing-function: step-end;
       stroke: black;
       stroke-dashoffset: 0;
       stroke-width: 128;
       }
       to {
       stroke: black;
       stroke-width: 1024;
       }
       }
       #make-me-a-hanzi-animation-8 {
         animation: keyframes8 0.700033s both;
         animation-delay: 5.452149s;
         animation-timing-function: linear;
       }
    @keyframes keyframes9 {
      from {
       stroke: black;
       stroke-dashoffset: 580;
       stroke-width: 128;
       }
       65% {
       animation-timing-function: step-end;
       stroke: black;
       stroke-dashoffset: 0;
       stroke-width: 128;
       }
       to {
       stroke: black;
       stroke-width: 1024;
       }
       }
       #make-me-a-hanzi-animation-9 {
         animation: keyframes9 0.722005s both;
         animation-delay: 6.152182s;
         animation-timing-function: linear;
       }
    @keyframes keyframes10 {
      from {
       stroke: black;
       stroke-dashoffset: 758;
       stroke-width: 128;
       }
       71% {
       animation-timing-function: step-end;
       stroke: black;
       stroke-dashoffset: 0;
       stroke-width: 128;
       }
       to {
       stroke: black;
       stroke-width: 1024;
       }
       }
       #make-me-a-hanzi-animation-10 {
         animation: keyframes10 0.866862s both;
         animation-delay: 6.874187s;
         animation-timing-function: linear;
       }
    @keyframes keyframes11 {
      from {
       stroke: black;
       stroke-dashoffset: 386;
       stroke-width: 128;
       }
       56% {
       animation-timing-function: step-end;
       stroke: black;
       stroke-dashoffset: 0;
       stroke-width: 128;
       }
       to {
       stroke: black;
       stroke-width: 1024;
       }
       }
       #make-me-a-hanzi-animation-11 {
         animation: keyframes11 0.564128s both;
         animation-delay: 7.741049s;
         animation-timing-function: linear;
       }
    @keyframes keyframes12 {
      from {
       stroke: black;
       stroke-dashoffset: 600;
       stroke-width: 128;
       }
       66% {
       animation-timing-function: step-end;
       stroke: black;
       stroke-dashoffset: 0;
       stroke-width: 128;
       }
       to {
       stroke: black;
       stroke-width: 1024;
       }
       }
       #make-me-a-hanzi-animation-12 {
         animation: keyframes12 0.738281s both;
         animation-delay: 8.305177s;
         animation-timing-function: linear;
       }
    @keyframes keyframes13 {
      from {
       stroke: black;
       stroke-dashoffset: 805;
       stroke-width: 128;
       }
       72% {
       animation-timing-function: step-end;
       stroke: black;
       stroke-dashoffset: 0;
       stroke-width: 128;
       }
       to {
       stroke: black;
       stroke-width: 1024;
       }
       }
       #make-me-a-hanzi-animation-13 {
         animation: keyframes13 0.905111s both;
         animation-delay: 9.043458s;
         animation-timing-function: linear;
       }
    @keyframes keyframes14 {
      from {
       stroke: black;
       stroke-dashoffset: 454;
       stroke-width: 128;
       }
       60% {
       animation-timing-function: step-end;
       stroke: black;
       stroke-dashoffset: 0;
       stroke-width: 128;
       }
       to {
       stroke: black;
       stroke-width: 1024;
       }
       }
       #make-me-a-hanzi-animation-14 {
         animation: keyframes14 0.619466s both;
         animation-delay: 9.948569s;
         animation-timing-function: linear;
       }
    @keyframes keyframes15 {
      from {
       stroke: black;
       stroke-dashoffset: 598;
       stroke-width: 128;
       }
       66% {
       animation-timing-function: step-end;
       stroke: black;
       stroke-dashoffset: 0;
       stroke-width: 128;
       }
       to {
       stroke: black;
       stroke-width: 1024;
       }
       }
       #make-me-a-hanzi-animation-15 {
         animation: keyframes15 0.736654s both;
         animation-delay: 10.568035s;
         animation-timing-function: linear;
       }
    @keyframes keyframes16 {
      from {
       stroke: black;
       stroke-dashoffset: 467;
       stroke-width: 128;
       }
       60% {
       animation-timing-function: step-end;
       stroke: black;
       stroke-dashoffset: 0;
       stroke-width: 128;
       }
       to {
       stroke: black;
       stroke-width: 1024;
       }
       }
       #make-me-a-hanzi-animation-16 {
         animation: keyframes16 0.630046s both;
         animation-delay: 11.304689s;
         animation-timing-function: linear;
       }
    @keyframes keyframes17 {
      from {
       stroke: black;
       stroke-dashoffset: 1050;
       stroke-width: 128;
       }
       77% {
       animation-timing-function: step-end;
       stroke: black;
       stroke-dashoffset: 0;
       stroke-width: 128;
       }
       to {
       stroke: black;
       stroke-width: 1024;
       }
       }
       #make-me-a-hanzi-animation-17 {
         animation: keyframes17 1.104492s both;
         animation-delay: 11.934735s;
         animation-timing-function: linear;
       }
    @keyframes keyframes18 {
      from {
       stroke: black;
       stroke-dashoffset: 747;
       stroke-width: 128;
       }
       71% {
       animation-timing-function: step-end;
       stroke: black;
       stroke-dashoffset: 0;
       stroke-width: 128;
       }
       to {
       stroke: black;
       stroke-width: 1024;
       }
       }
       #make-me-a-hanzi-animation-18 {
         animation: keyframes18 0.857910s both;
         animation-delay: 13.039227s;
         animation-timing-function: linear;
       }
    @keyframes keyframes19 {
      from {
       stroke: black;
       stroke-dashoffset: 445;
       stroke-width: 128;
       }
       59% {
       animation-timing-function: step-end;
       stroke: black;
       stroke-dashoffset: 0;
       stroke-width: 128;
       }
       to {
       stroke: black;
       stroke-width: 1024;
       }
       }
       #make-me-a-hanzi-animation-19 {
         animation: keyframes19 0.612142s both;
         animation-delay: 13.897137s;
         animation-timing-function: linear;
       }
</style>
<path d="M 256.0 509.5 L 293.0 516.5 L 338.0 523.5 Q 365.0 527.5 391.0 533.5 L 415.0 539.5 Q 429.0 541.5 427.0 553.5 Q 425.0 560.5 409.5 570.5 Q 394.0 580.5 365.0 580.5 L 341.0 573.5 Q 340.0 573.5 339.0 572.5 L 326.0 568.5 L 305.0 562.5 L 260.0 552.5 L 202.0 542.5 Q 154.0 534.5 144.0 533.5 L 114.0 530.5 Q 104.0 530.5 101.0 527.5 Q 98.0 524.5 99.0 518.0 Q 100.0 511.5 124.0 505.0 Q 148.0 498.5 183.0 498.5 L 224.0 502.5 L 256.0 509.5 Z" fill="lightgray"></path> 
<path d="M 193.0 270.5 L 222.0 322.5 L 275.0 432.5 L 288.0 455.5 Q 295.0 470.5 289.0 480.5 Q 283.0 490.5 256.0 509.5 C 232.0 527.5 230.0 528.5 224.0 502.5 L 221.0 488.5 L 218.0 463.5 Q 212.0 413.5 144.0 278.5 L 109.0 221.5 L 73.0 168.5 Q 53.0 141.5 43.0 131.5 L 29.0 115.5 Q 19.0 106.5 24.0 101.5 Q 25.0 97.5 39.0 104.5 L 58.0 115.5 L 84.0 137.5 Q 114.0 165.5 116.0 167.5 Q 143.0 198.5 146.0 202.5 L 170.0 234.5 L 193.0 270.5 Z" fill="lightgray"></path> 
<path d="M 197.0 80.5 Q 198.0 77.5 200.0 70.5 Q 202.0 62.5 213.0 58.5 Q 224.0 54.5 227.0 65.5 L 231.0 82.5 L 230.0 112.5 L 226.0 148.5 L 221.0 184.5 L 215.0 221.5 L 215.0 227.5 L 214.0 236.5 L 213.0 246.5 C 209.0 290.5 155.0 292.5 170.0 234.5 L 173.0 222.5 L 180.0 196.5 L 194.0 95.5 L 197.0 80.5 Z" fill="lightgray"></path> 
<path d="M 353.0 132.5 L 370.0 200.5 Q 376.0 231.5 388.0 251.5 Q 400.0 270.5 400.0 272.5 Q 400.0 274.5 391.0 282.5 Q 382.0 294.5 373.0 299.5 Q 364.0 303.5 346.0 308.5 Q 328.0 313.5 325.0 312.5 Q 309.0 306.5 297.0 299.5 Q 285.0 291.5 255.0 282.5 L 193.0 270.5 C 164.0 264.5 184.0 240.5 213.0 246.5 L 234.0 250.5 L 256.0 255.5 L 286.0 261.5 Q 309.0 264.5 312.0 262.5 Q 314.0 259.5 314.0 249.5 L 314.0 230.5 L 307.0 137.5 C 305.0 107.5 346.0 103.5 353.0 132.5 Z" fill="lightgray"></path> 
<path d="M 231.0 82.5 L 264.0 88.5 L 313.0 96.5 Q 334.0 100.5 340.0 102.5 Q 368.0 102.5 373.0 107.5 Q 377.0 111.5 368.0 118.5 L 353.0 132.5 C 338.0 146.5 336.0 145.5 307.0 137.5 L 282.0 130.5 L 263.0 123.5 Q 260.0 120.5 251.0 118.5 L 230.0 112.5 C 201.0 104.5 201.0 77.5 231.0 82.5 Z" fill="lightgray"></path> 
<path d="M 592.0 524.5 Q 604.0 529.5 625.5 536.0 Q 647.0 542.5 658.5 550.5 Q 670.0 558.5 666.0 565.5 Q 664.0 574.5 651.0 571.5 L 591.0 560.5 L 542.0 550.5 L 472.0 536.5 Q 437.0 530.5 425.0 529.5 Q 413.0 528.5 413.0 525.5 Q 412.0 515.5 423.5 504.5 Q 435.0 493.5 458.5 487.5 Q 482.0 481.5 495.0 485.5 Q 532.0 501.5 548.0 506.5 L 592.0 524.5 Z" fill="lightgray"></path> 
<path d="M 591.0 560.5 L 588.0 651.5 Q 586.0 673.5 570.0 680.5 Q 541.0 693.5 529.0 696.0 Q 517.0 698.5 507.0 694.5 Q 485.0 686.5 505.5 659.0 Q 526.0 631.5 542.0 550.5 L 548.0 506.5 Q 552.0 491.5 552.5 470.0 Q 553.0 448.5 570.0 431.5 Q 585.0 419.5 589.0 431.5 Q 594.0 454.5 594.0 475.5 L 592.0 524.5 L 591.0 560.5 Z" fill="lightgray"></path> 
<path d="M 824.0 548.5 L 848.0 549.5 L 897.0 549.5 Q 910.0 549.5 918.0 550.5 Q 991.0 545.5 992.0 557.5 Q 996.0 565.5 981.5 580.0 Q 967.0 594.5 940.0 601.0 Q 913.0 607.5 890.0 603.5 L 841.0 594.5 L 786.0 586.5 Q 767.0 583.5 704.0 573.5 Q 677.0 570.5 696.0 557.0 Q 715.0 543.5 730.0 539.0 Q 745.0 534.5 774.0 540.5 L 824.0 548.5 Z" fill="lightgray"></path> 
<path d="M 841.0 594.5 Q 856.0 642.5 872.5 664.0 Q 889.0 685.5 881.0 693.5 Q 863.0 711.5 833.0 728.5 Q 814.0 737.5 799.0 728.5 Q 791.0 723.5 797.5 703.0 Q 804.0 682.5 801.0 656.5 Q 793.0 611.5 786.0 586.5 L 774.0 540.5 L 754.0 482.5 Q 748.0 458.5 748.0 445.5 Q 749.0 432.5 765.0 443.5 Q 780.0 455.5 799.5 495.0 Q 819.0 534.5 824.0 548.5 L 841.0 594.5 Z" fill="lightgray"></path> 
<path d="M 537.0 404.5 Q 530.0 411.5 519.0 411.5 Q 507.0 411.5 504.0 405.5 L 502.0 403.5 L 501.0 400.5 L 498.0 388.5 Q 496.0 374.5 490.0 357.5 L 474.0 316.5 Q 468.0 300.5 455.0 280.5 L 435.0 252.5 Q 426.0 240.5 412.0 232.5 Q 397.0 221.5 395.0 219.5 Q 393.0 211.5 393.0 208.5 Q 392.0 205.5 396.0 190.5 L 400.0 178.5 Q 404.0 170.5 407.0 168.5 Q 410.0 166.5 419.0 166.5 L 438.0 170.5 L 459.0 170.5 Q 460.0 170.5 482.0 168.5 L 523.0 156.5 C 552.0 148.5 560.0 161.5 533.0 174.5 L 481.0 200.5 L 475.0 205.5 Q 469.0 207.5 468.0 213.5 L 470.0 221.5 L 475.0 228.5 L 510.0 298.5 L 544.0 346.5 Q 546.0 350.5 552.0 355.5 Q 558.0 359.5 568.0 369.5 Q 570.0 371.5 563.0 381.5 Q 555.0 391.5 552.0 394.5 L 537.0 404.5 Z" fill="lightgray"></path> 
<path d="M 523.0 156.5 L 461.0 74.5 Q 451.0 59.5 435.0 43.5 Q 418.0 26.5 406.0 19.5 Q 394.0 12.5 394.0 11.5 Q 379.0 3.5 394.0 -17.5 L 409.0 -36.5 L 422.0 -49.5 Q 434.0 -61.5 438.0 -60.5 Q 442.0 -59.5 448.0 -52.5 L 460.0 -40.5 Q 472.0 -31.5 512.0 -14.5 L 592.0 18.5 C 620.0 29.5 615.0 46.5 586.0 38.5 L 504.0 16.5 Q 500.0 16.5 496.0 16.5 L 495.0 15.5 Q 488.0 15.5 487.0 17.5 L 486.0 22.5 Q 488.0 29.5 495.0 36.5 L 636.0 224.5 L 660.0 251.5 Q 667.0 260.5 670.0 264.5 Q 672.0 267.5 660.0 283.5 Q 647.0 299.5 646.0 300.5 L 645.0 302.5 Q 644.0 303.5 628.0 315.5 Q 608.0 327.5 603.0 315.5 Q 599.0 309.5 599.0 301.5 L 597.0 287.5 Q 597.0 280.5 589.0 261.5 Q 581.0 242.5 578.0 238.5 Q 574.0 234.5 570.0 228.5 L 533.0 174.5 L 523.0 156.5 Z" fill="lightgray"></path> 
<path d="M 592.0 18.5 L 605.0 -7.5 Q 618.0 -40.5 637.5 -36.5 Q 657.0 -32.5 657.0 5.0 Q 657.0 42.5 635.5 64.0 Q 614.0 85.5 607.0 88.5 L 582.0 100.5 Q 557.0 109.5 561.0 90.5 L 567.0 75.5 L 586.0 38.5 L 592.0 18.5 Z" fill="lightgray"></path> 
<path d="M 784.0 439.5 Q 781.0 439.5 775.0 428.5 Q 775.0 401.5 755.0 357.5 Q 735.0 312.5 708.0 274.5 Q 698.0 262.5 683.0 250.5 Q 667.0 238.5 665.0 232.5 Q 663.0 226.5 664.0 212.5 Q 670.0 183.5 684.0 178.5 Q 690.0 176.5 708.0 181.5 Q 726.0 185.5 762.0 180.5 L 804.0 171.5 C 833.0 165.5 846.0 178.5 819.0 191.5 L 764.0 217.5 Q 749.0 223.5 748.0 226.5 Q 745.0 234.5 755.0 249.5 L 798.0 327.5 Q 805.0 341.5 810.0 346.5 Q 814.0 353.5 823.0 362.5 Q 832.0 371.5 835.0 375.5 Q 838.0 379.5 842.0 383.5 Q 845.0 386.5 848.0 392.5 Q 849.0 398.5 843.0 406.5 L 829.0 420.5 L 810.0 433.5 L 784.0 439.5 Z" fill="lightgray"></path> 
<path d="M 804.0 171.5 L 759.0 103.5 Q 726.0 54.5 707.0 44.5 L 689.0 29.5 Q 678.0 21.5 678.0 16.5 Q 678.0 10.5 687.0 -4.5 Q 695.0 -19.5 714.0 -33.5 Q 723.0 -42.5 727.0 -42.5 Q 731.0 -41.5 739.0 -37.5 Q 746.0 -32.5 755.0 -27.5 L 756.0 -26.5 Q 762.0 -23.5 777.0 -17.5 L 808.0 -5.5 L 926.0 32.5 C 955.0 41.5 948.0 55.5 918.0 50.5 L 796.0 31.5 Q 779.0 30.5 777.0 33.5 Q 775.0 35.5 787.0 54.5 L 877.0 186.5 L 898.0 222.5 Q 905.0 233.5 911.0 239.5 L 933.0 265.5 L 943.0 275.5 Q 946.0 287.5 929.0 307.5 Q 912.0 327.5 899.0 333.5 Q 886.0 339.5 882.0 336.5 Q 877.0 332.5 873.0 318.5 Q 873.0 310.5 871.0 306.5 L 870.0 290.5 Q 865.0 280.5 862.0 270.5 Q 858.0 260.5 854.0 256.5 L 819.0 191.5 L 804.0 171.5 Z" fill="lightgray"></path> 
<path d="M 926.0 32.5 L 940.0 3.5 Q 973.0 -60.5 998.0 -24.5 Q 1005.0 -13.5 1004.5 14.5 Q 1004.0 42.5 983.5 63.5 Q 963.0 84.5 949.5 93.5 Q 936.0 102.5 916.0 112.5 L 884.0 128.5 L 879.0 130.5 L 874.0 130.5 Q 868.0 130.5 876.0 117.5 L 905.0 70.5 Q 910.0 60.5 918.0 50.5 L 926.0 32.5 Z" fill="lightgray"></path> 
<path d="M 1545.0 439.0 Q 1551.0 515.0 1556.0 585.0 L 1558.0 614.0 Q 1561.0 677.0 1575.0 722.0 Q 1579.0 734.0 1558.0 748.0 Q 1522.0 767.0 1498.0 771.0 Q 1482.0 775.0 1474.0 766.0 Q 1467.0 759.0 1475.0 743.0 Q 1494.0 716.0 1495.0 698.0 Q 1505.0 577.0 1503.0 434.0 C 1503.0 404.0 1543.0 409.0 1545.0 439.0 Z" fill="lightgray"></path> 
<path d="M 1556.0 585.0 Q 1607.0 567.0 1661.0 584.0 Q 1706.0 594.0 1753.0 607.0 Q 1774.0 613.0 1777.0 616.0 Q 1787.0 626.0 1781.0 635.0 Q 1771.0 648.0 1738.0 653.0 Q 1713.0 656.0 1625.0 627.0 Q 1595.0 620.0 1560.0 615.0 Q 1557.0 615.0 1558.0 614.0 C 1529.0 607.0 1527.0 594.0 1556.0 585.0 Z" fill="lightgray"></path> 
<path d="M 1532.0 397.0 Q 1626.0 407.0 1914.0 407.0 Q 1938.0 407.0 1943.0 417.0 Q 1950.0 430.0 1930.0 447.0 Q 1863.0 499.0 1795.0 479.0 Q 1695.0 461.0 1545.0 439.0 L 1503.0 434.0 Q 1338.0 415.0 1147.0 394.0 Q 1122.0 391.0 1140.0 371.0 Q 1156.0 355.0 1178.0 348.0 Q 1203.0 341.0 1222.0 347.0 Q 1340.0 377.0 1474.0 391.0 Q 1481.0 392.0 1489.0 392.0 L 1532.0 397.0 Z" fill="lightgray"></path> 
<path d="M 1489.0 392.0 Q 1513.0 349.0 1488.0 75.0 Q 1487.0 65.0 1485.0 53.0 Q 1484.0 28.0 1480.0 15.0 Q 1465.0 -24.0 1514.0 -89.0 Q 1518.0 -95.0 1524.0 -98.0 Q 1536.0 -99.0 1541.0 -86.0 Q 1554.0 -55.0 1550.0 -23.0 Q 1544.0 277.0 1555.0 363.0 Q 1558.0 376.0 1551.0 382.0 Q 1541.0 391.0 1532.0 397.0 C 1508.0 415.0 1479.0 420.0 1489.0 392.0 Z" fill="lightgray"></path> 
<path d="M 1594.0 274.0 Q 1643.0 240.0 1704.0 188.0 Q 1725.0 169.0 1741.0 167.0 Q 1751.0 167.0 1757.0 179.0 Q 1767.0 195.0 1748.0 239.0 Q 1732.0 281.0 1660.0 294.0 Q 1614.0 304.0 1590.0 307.0 Q 1580.0 311.0 1580.0 297.0 Q 1581.0 284.0 1594.0 274.0 Z" fill="lightgray"></path> 
      <clipPath id="make-me-a-hanzi-clip-0">
      <path d="M 256.0 509.5 L 293.0 516.5 L 338.0 523.5 Q 365.0 527.5 391.0 533.5 L 415.0 539.5 Q 429.0 541.5 427.0 553.5 Q 425.0 560.5 409.5 570.5 Q 394.0 580.5 365.0 580.5 L 341.0 573.5 Q 340.0 573.5 339.0 572.5 L 326.0 568.5 L 305.0 562.5 L 260.0 552.5 L 202.0 542.5 Q 154.0 534.5 144.0 533.5 L 114.0 530.5 Q 104.0 530.5 101.0 527.5 Q 98.0 524.5 99.0 518.0 Q 100.0 511.5 124.0 505.0 Q 148.0 498.5 183.0 498.5 L 224.0 502.5 L 256.0 509.5 Z" fill="lightgray"></path>
      </clipPath>
      <path clip-path="url(#make-me-a-hanzi-clip-0)" d="M 108.0 520.5 L 202.0 520.5 L 372.0 555.5 L 416.0 550.5 " fill="none" id="make-me-a-hanzi-animation-0" stroke-dasharray="440 880" stroke-linecap="round"></path>

      <clipPath id="make-me-a-hanzi-clip-1">
      <path d="M 193.0 270.5 L 222.0 322.5 L 275.0 432.5 L 288.0 455.5 Q 295.0 470.5 289.0 480.5 Q 283.0 490.5 256.0 509.5 C 232.0 527.5 230.0 528.5 224.0 502.5 L 221.0 488.5 L 218.0 463.5 Q 212.0 413.5 144.0 278.5 L 109.0 221.5 L 73.0 168.5 Q 53.0 141.5 43.0 131.5 L 29.0 115.5 Q 19.0 106.5 24.0 101.5 Q 25.0 97.5 39.0 104.5 L 58.0 115.5 L 84.0 137.5 Q 114.0 165.5 116.0 167.5 Q 143.0 198.5 146.0 202.5 L 170.0 234.5 L 193.0 270.5 Z" fill="lightgray"></path>
      </clipPath>
      <path clip-path="url(#make-me-a-hanzi-clip-1)" d="M 232.0 493.5 L 250.0 477.5 L 253.0 465.5 L 183.0 301.5 L 111.0 187.5 L 84.0 154.5 L 31.0 107.5 " fill="none" id="make-me-a-hanzi-animation-1" stroke-dasharray="591 1182" stroke-linecap="round"></path>

      <clipPath id="make-me-a-hanzi-clip-2">
      <path d="M 197.0 80.5 Q 198.0 77.5 200.0 70.5 Q 202.0 62.5 213.0 58.5 Q 224.0 54.5 227.0 65.5 L 231.0 82.5 L 230.0 112.5 L 226.0 148.5 L 221.0 184.5 L 215.0 221.5 L 215.0 227.5 L 214.0 236.5 L 213.0 246.5 C 209.0 290.5 155.0 292.5 170.0 234.5 L 173.0 222.5 L 180.0 196.5 L 194.0 95.5 L 197.0 80.5 Z" fill="lightgray"></path>
      </clipPath>
      <path clip-path="url(#make-me-a-hanzi-clip-2)" d="M 194.0 261.5 L 193.0 229.5 L 215.0 72.5 " fill="none" id="make-me-a-hanzi-animation-2" stroke-dasharray="319 638" stroke-linecap="round"></path>

      <clipPath id="make-me-a-hanzi-clip-3">
      <path d="M 353.0 132.5 L 370.0 200.5 Q 376.0 231.5 388.0 251.5 Q 400.0 270.5 400.0 272.5 Q 400.0 274.5 391.0 282.5 Q 382.0 294.5 373.0 299.5 Q 364.0 303.5 346.0 308.5 Q 328.0 313.5 325.0 312.5 Q 309.0 306.5 297.0 299.5 Q 285.0 291.5 255.0 282.5 L 193.0 270.5 C 164.0 264.5 184.0 240.5 213.0 246.5 L 234.0 250.5 L 256.0 255.5 L 286.0 261.5 Q 309.0 264.5 312.0 262.5 Q 314.0 259.5 314.0 249.5 L 314.0 230.5 L 307.0 137.5 C 305.0 107.5 346.0 103.5 353.0 132.5 Z" fill="lightgray"></path>
      </clipPath>
      <path clip-path="url(#make-me-a-hanzi-clip-3)" d="M 202.0 267.5 L 226.0 262.5 L 314.0 284.5 L 327.0 284.5 L 344.0 273.5 L 351.0 263.5 L 333.0 158.5 L 316.0 144.5 " fill="none" id="make-me-a-hanzi-animation-3" stroke-dasharray="417 834" stroke-linecap="round"></path>

      <clipPath id="make-me-a-hanzi-clip-4">
      <path d="M 231.0 82.5 L 264.0 88.5 L 313.0 96.5 Q 334.0 100.5 340.0 102.5 Q 368.0 102.5 373.0 107.5 Q 377.0 111.5 368.0 118.5 L 353.0 132.5 C 338.0 146.5 336.0 145.5 307.0 137.5 L 282.0 130.5 L 263.0 123.5 Q 260.0 120.5 251.0 118.5 L 230.0 112.5 C 201.0 104.5 201.0 77.5 231.0 82.5 Z" fill="lightgray"></path>
      </clipPath>
      <path clip-path="url(#make-me-a-hanzi-clip-4)" d="M 235.0 90.5 L 250.0 102.5 L 313.0 117.5 L 344.0 118.5 L 367.0 111.5 " fill="none" id="make-me-a-hanzi-animation-4" stroke-dasharray="267 534" stroke-linecap="round"></path>

      <clipPath id="make-me-a-hanzi-clip-5">
      <path d="M 592.0 524.5 Q 604.0 529.5 625.5 536.0 Q 647.0 542.5 658.5 550.5 Q 670.0 558.5 666.0 565.5 Q 664.0 574.5 651.0 571.5 L 591.0 560.5 L 542.0 550.5 L 472.0 536.5 Q 437.0 530.5 425.0 529.5 Q 413.0 528.5 413.0 525.5 Q 412.0 515.5 423.5 504.5 Q 435.0 493.5 458.5 487.5 Q 482.0 481.5 495.0 485.5 Q 532.0 501.5 548.0 506.5 L 592.0 524.5 Z" fill="lightgray"></path>
      </clipPath>
      <path clip-path="url(#make-me-a-hanzi-clip-5)" d="M 421.0 521.5 L 458.0 510.5 L 493.0 512.5 L 656.0 562.5 " fill="none" id="make-me-a-hanzi-animation-5" stroke-dasharray="372 744" stroke-linecap="round"></path>

      <clipPath id="make-me-a-hanzi-clip-6">
      <path d="M 591.0 560.5 L 588.0 651.5 Q 586.0 673.5 570.0 680.5 Q 541.0 693.5 529.0 696.0 Q 517.0 698.5 507.0 694.5 Q 485.0 686.5 505.5 659.0 Q 526.0 631.5 542.0 550.5 L 548.0 506.5 Q 552.0 491.5 552.5 470.0 Q 553.0 448.5 570.0 431.5 Q 585.0 419.5 589.0 431.5 Q 594.0 454.5 594.0 475.5 L 592.0 524.5 L 591.0 560.5 Z" fill="lightgray"></path>
      </clipPath>
      <path clip-path="url(#make-me-a-hanzi-clip-6)" d="M 510.0 680.5 L 536.0 664.5 L 554.0 642.5 L 580.0 435.5 " fill="none" id="make-me-a-hanzi-animation-6" stroke-dasharray="396 792" stroke-linecap="round"></path>

      <clipPath id="make-me-a-hanzi-clip-7">
      <path d="M 824.0 548.5 L 848.0 549.5 L 897.0 549.5 Q 910.0 549.5 918.0 550.5 Q 991.0 545.5 992.0 557.5 Q 996.0 565.5 981.5 580.0 Q 967.0 594.5 940.0 601.0 Q 913.0 607.5 890.0 603.5 L 841.0 594.5 L 786.0 586.5 Q 767.0 583.5 704.0 573.5 Q 677.0 570.5 696.0 557.0 Q 715.0 543.5 730.0 539.0 Q 745.0 534.5 774.0 540.5 L 824.0 548.5 Z" fill="lightgray"></path>
      </clipPath>
      <path clip-path="url(#make-me-a-hanzi-clip-7)" d="M 698.0 566.5 L 748.0 558.5 L 918.0 577.5 L 982.0 561.5 " fill="none" id="make-me-a-hanzi-animation-7" stroke-dasharray="416 832" stroke-linecap="round"></path>

      <clipPath id="make-me-a-hanzi-clip-8">
      <path d="M 841.0 594.5 Q 856.0 642.5 872.5 664.0 Q 889.0 685.5 881.0 693.5 Q 863.0 711.5 833.0 728.5 Q 814.0 737.5 799.0 728.5 Q 791.0 723.5 797.5 703.0 Q 804.0 682.5 801.0 656.5 Q 793.0 611.5 786.0 586.5 L 774.0 540.5 L 754.0 482.5 Q 748.0 458.5 748.0 445.5 Q 749.0 432.5 765.0 443.5 Q 780.0 455.5 799.5 495.0 Q 819.0 534.5 824.0 548.5 L 841.0 594.5 Z" fill="lightgray"></path>
      </clipPath>
      <path clip-path="url(#make-me-a-hanzi-clip-8)" d="M 809.0 718.5 L 839.0 679.5 L 801.0 552.5 L 757.0 446.5 " fill="none" id="make-me-a-hanzi-animation-8" stroke-dasharray="425 850" stroke-linecap="round"></path>

      <clipPath id="make-me-a-hanzi-clip-9">
      <path d="M 537.0 404.5 Q 530.0 411.5 519.0 411.5 Q 507.0 411.5 504.0 405.5 L 502.0 403.5 L 501.0 400.5 L 498.0 388.5 Q 496.0 374.5 490.0 357.5 L 474.0 316.5 Q 468.0 300.5 455.0 280.5 L 435.0 252.5 Q 426.0 240.5 412.0 232.5 Q 397.0 221.5 395.0 219.5 Q 393.0 211.5 393.0 208.5 Q 392.0 205.5 396.0 190.5 L 400.0 178.5 Q 404.0 170.5 407.0 168.5 Q 410.0 166.5 419.0 166.5 L 438.0 170.5 L 459.0 170.5 Q 460.0 170.5 482.0 168.5 L 523.0 156.5 C 552.0 148.5 560.0 161.5 533.0 174.5 L 481.0 200.5 L 475.0 205.5 Q 469.0 207.5 468.0 213.5 L 470.0 221.5 L 475.0 228.5 L 510.0 298.5 L 544.0 346.5 Q 546.0 350.5 552.0 355.5 Q 558.0 359.5 568.0 369.5 Q 570.0 371.5 563.0 381.5 Q 555.0 391.5 552.0 394.5 L 537.0 404.5 Z" fill="lightgray"></path>
      </clipPath>
      <path clip-path="url(#make-me-a-hanzi-clip-9)" d="M 508.0 400.5 L 521.0 388.5 L 526.0 371.5 L 434.0 205.5 L 517.0 169.5 L 524.0 173.5 " fill="none" id="make-me-a-hanzi-animation-9" stroke-dasharray="452 904" stroke-linecap="round"></path>

      <clipPath id="make-me-a-hanzi-clip-10">
      <path d="M 523.0 156.5 L 461.0 74.5 Q 451.0 59.5 435.0 43.5 Q 418.0 26.5 406.0 19.5 Q 394.0 12.5 394.0 11.5 Q 379.0 3.5 394.0 -17.5 L 409.0 -36.5 L 422.0 -49.5 Q 434.0 -61.5 438.0 -60.5 Q 442.0 -59.5 448.0 -52.5 L 460.0 -40.5 Q 472.0 -31.5 512.0 -14.5 L 592.0 18.5 C 620.0 29.5 615.0 46.5 586.0 38.5 L 504.0 16.5 Q 500.0 16.5 496.0 16.5 L 495.0 15.5 Q 488.0 15.5 487.0 17.5 L 486.0 22.5 Q 488.0 29.5 495.0 36.5 L 636.0 224.5 L 660.0 251.5 Q 667.0 260.5 670.0 264.5 Q 672.0 267.5 660.0 283.5 Q 647.0 299.5 646.0 300.5 L 645.0 302.5 Q 644.0 303.5 628.0 315.5 Q 608.0 327.5 603.0 315.5 Q 599.0 309.5 599.0 301.5 L 597.0 287.5 Q 597.0 280.5 589.0 261.5 Q 581.0 242.5 578.0 238.5 Q 574.0 234.5 570.0 228.5 L 533.0 174.5 L 523.0 156.5 Z" fill="lightgray"></path>
      </clipPath>
      <path clip-path="url(#make-me-a-hanzi-clip-10)" d="M 616.0 306.5 L 628.0 268.5 L 537.0 132.5 L 468.0 43.5 L 450.0 1.5 L 496.0 -3.5 L 578.0 24.5 L 581.0 31.5 " fill="none" id="make-me-a-hanzi-animation-10" stroke-dasharray="630 1260" stroke-linecap="round"></path>

      <clipPath id="make-me-a-hanzi-clip-11">
      <path d="M 592.0 18.5 L 605.0 -7.5 Q 618.0 -40.5 637.5 -36.5 Q 657.0 -32.5 657.0 5.0 Q 657.0 42.5 635.5 64.0 Q 614.0 85.5 607.0 88.5 L 582.0 100.5 Q 557.0 109.5 561.0 90.5 L 567.0 75.5 L 586.0 38.5 L 592.0 18.5 Z" fill="lightgray"></path>
      </clipPath>
      <path clip-path="url(#make-me-a-hanzi-clip-11)" d="M 572.0 93.5 L 611.0 51.5 L 634.0 -17.5 " fill="none" id="make-me-a-hanzi-animation-11" stroke-dasharray="258 516" stroke-linecap="round"></path>

      <clipPath id="make-me-a-hanzi-clip-12">
      <path d="M 784.0 439.5 Q 781.0 439.5 775.0 428.5 Q 775.0 401.5 755.0 357.5 Q 735.0 312.5 708.0 274.5 Q 698.0 262.5 683.0 250.5 Q 667.0 238.5 665.0 232.5 Q 663.0 226.5 664.0 212.5 Q 670.0 183.5 684.0 178.5 Q 690.0 176.5 708.0 181.5 Q 726.0 185.5 762.0 180.5 L 804.0 171.5 C 833.0 165.5 846.0 178.5 819.0 191.5 L 764.0 217.5 Q 749.0 223.5 748.0 226.5 Q 745.0 234.5 755.0 249.5 L 798.0 327.5 Q 805.0 341.5 810.0 346.5 Q 814.0 353.5 823.0 362.5 Q 832.0 371.5 835.0 375.5 Q 838.0 379.5 842.0 383.5 Q 845.0 386.5 848.0 392.5 Q 849.0 398.5 843.0 406.5 L 829.0 420.5 L 810.0 433.5 L 784.0 439.5 Z" fill="lightgray"></path>
      </clipPath>
      <path clip-path="url(#make-me-a-hanzi-clip-12)" d="M 788.0 427.5 L 805.0 394.5 L 709.0 221.5 L 739.0 204.5 L 798.0 185.5 L 810.0 190.5 " fill="none" id="make-me-a-hanzi-animation-12" stroke-dasharray="472 944" stroke-linecap="round"></path>

      <clipPath id="make-me-a-hanzi-clip-13">
      <path d="M 804.0 171.5 L 759.0 103.5 Q 726.0 54.5 707.0 44.5 L 689.0 29.5 Q 678.0 21.5 678.0 16.5 Q 678.0 10.5 687.0 -4.5 Q 695.0 -19.5 714.0 -33.5 Q 723.0 -42.5 727.0 -42.5 Q 731.0 -41.5 739.0 -37.5 Q 746.0 -32.5 755.0 -27.5 L 756.0 -26.5 Q 762.0 -23.5 777.0 -17.5 L 808.0 -5.5 L 926.0 32.5 C 955.0 41.5 948.0 55.5 918.0 50.5 L 796.0 31.5 Q 779.0 30.5 777.0 33.5 Q 775.0 35.5 787.0 54.5 L 877.0 186.5 L 898.0 222.5 Q 905.0 233.5 911.0 239.5 L 933.0 265.5 L 943.0 275.5 Q 946.0 287.5 929.0 307.5 Q 912.0 327.5 899.0 333.5 Q 886.0 339.5 882.0 336.5 Q 877.0 332.5 873.0 318.5 Q 873.0 310.5 871.0 306.5 L 870.0 290.5 Q 865.0 280.5 862.0 270.5 Q 858.0 260.5 854.0 256.5 L 819.0 191.5 L 804.0 171.5 Z" fill="lightgray"></path>
      </clipPath>
      <path clip-path="url(#make-me-a-hanzi-clip-13)" d="M 886.0 327.5 L 903.0 283.5 L 843.0 180.5 L 750.0 46.5 L 738.0 13.5 L 785.0 8.5 L 911.0 39.5 L 917.0 34.5 " fill="none" id="make-me-a-hanzi-animation-13" stroke-dasharray="677 1354" stroke-linecap="round"></path>

      <clipPath id="make-me-a-hanzi-clip-14">
      <path d="M 926.0 32.5 L 940.0 3.5 Q 973.0 -60.5 998.0 -24.5 Q 1005.0 -13.5 1004.5 14.5 Q 1004.0 42.5 983.5 63.5 Q 963.0 84.5 949.5 93.5 Q 936.0 102.5 916.0 112.5 L 884.0 128.5 L 879.0 130.5 L 874.0 130.5 Q 868.0 130.5 876.0 117.5 L 905.0 70.5 Q 910.0 60.5 918.0 50.5 L 926.0 32.5 Z" fill="lightgray"></path>
      </clipPath>
      <path clip-path="url(#make-me-a-hanzi-clip-14)" d="M 877.0 124.5 L 938.0 68.5 L 966.0 30.5 L 973.0 7.5 L 1002.0 6.5 L 1002.0 -8.5 " fill="none" id="make-me-a-hanzi-animation-14" stroke-dasharray="326 652" stroke-linecap="round"></path>

      <clipPath id="make-me-a-hanzi-clip-15">
      <path d="M 1545.0 439.0 Q 1551.0 515.0 1556.0 585.0 L 1558.0 614.0 Q 1561.0 677.0 1575.0 722.0 Q 1579.0 734.0 1558.0 748.0 Q 1522.0 767.0 1498.0 771.0 Q 1482.0 775.0 1474.0 766.0 Q 1467.0 759.0 1475.0 743.0 Q 1494.0 716.0 1495.0 698.0 Q 1505.0 577.0 1503.0 434.0 C 1503.0 404.0 1543.0 409.0 1545.0 439.0 Z" fill="lightgray"></path>
      </clipPath>
      <path clip-path="url(#make-me-a-hanzi-clip-15)" d="M 1486.0 757.0 L 1532.0 717.0 L 1526.0 463.0 L 1509.0 442.0 " fill="none" id="make-me-a-hanzi-animation-15" stroke-dasharray="470 940" stroke-linecap="round"></path>

      <clipPath id="make-me-a-hanzi-clip-16">
      <path d="M 1556.0 585.0 Q 1607.0 567.0 1661.0 584.0 Q 1706.0 594.0 1753.0 607.0 Q 1774.0 613.0 1777.0 616.0 Q 1787.0 626.0 1781.0 635.0 Q 1771.0 648.0 1738.0 653.0 Q 1713.0 656.0 1625.0 627.0 Q 1595.0 620.0 1560.0 615.0 Q 1557.0 615.0 1558.0 614.0 C 1529.0 607.0 1527.0 594.0 1556.0 585.0 Z" fill="lightgray"></path>
      </clipPath>
      <path clip-path="url(#make-me-a-hanzi-clip-16)" d="M 1563.0 606.0 L 1582.0 598.0 L 1621.0 600.0 L 1720.0 626.0 L 1769.0 628.0 " fill="none" id="make-me-a-hanzi-animation-16" stroke-dasharray="339 678" stroke-linecap="round"></path>

      <clipPath id="make-me-a-hanzi-clip-17">
      <path d="M 1532.0 397.0 Q 1626.0 407.0 1914.0 407.0 Q 1938.0 407.0 1943.0 417.0 Q 1950.0 430.0 1930.0 447.0 Q 1863.0 499.0 1795.0 479.0 Q 1695.0 461.0 1545.0 439.0 L 1503.0 434.0 Q 1338.0 415.0 1147.0 394.0 Q 1122.0 391.0 1140.0 371.0 Q 1156.0 355.0 1178.0 348.0 Q 1203.0 341.0 1222.0 347.0 Q 1340.0 377.0 1474.0 391.0 Q 1481.0 392.0 1489.0 392.0 L 1532.0 397.0 Z" fill="lightgray"></path>
      </clipPath>
      <path clip-path="url(#make-me-a-hanzi-clip-17)" d="M 1144.0 382.0 L 1202.0 372.0 L 1440.0 408.0 L 1822.0 446.0 L 1866.0 443.0 L 1930.0 424.0 " fill="none" id="make-me-a-hanzi-animation-17" stroke-dasharray="922 1844" stroke-linecap="round"></path>

      <clipPath id="make-me-a-hanzi-clip-18">
      <path d="M 1489.0 392.0 Q 1513.0 349.0 1488.0 75.0 Q 1487.0 65.0 1485.0 53.0 Q 1484.0 28.0 1480.0 15.0 Q 1465.0 -24.0 1514.0 -89.0 Q 1518.0 -95.0 1524.0 -98.0 Q 1536.0 -99.0 1541.0 -86.0 Q 1554.0 -55.0 1550.0 -23.0 Q 1544.0 277.0 1555.0 363.0 Q 1558.0 376.0 1551.0 382.0 Q 1541.0 391.0 1532.0 397.0 C 1508.0 415.0 1479.0 420.0 1489.0 392.0 Z" fill="lightgray"></path>
      </clipPath>
      <path clip-path="url(#make-me-a-hanzi-clip-18)" d="M 1496.0 392.0 L 1526.0 363.0 L 1513.0 -4.0 L 1526.0 -85.0 " fill="none" id="make-me-a-hanzi-animation-18" stroke-dasharray="619 1238" stroke-linecap="round"></path>

      <clipPath id="make-me-a-hanzi-clip-19">
      <path d="M 1594.0 274.0 Q 1643.0 240.0 1704.0 188.0 Q 1725.0 169.0 1741.0 167.0 Q 1751.0 167.0 1757.0 179.0 Q 1767.0 195.0 1748.0 239.0 Q 1732.0 281.0 1660.0 294.0 Q 1614.0 304.0 1590.0 307.0 Q 1580.0 311.0 1580.0 297.0 Q 1581.0 284.0 1594.0 274.0 Z" fill="lightgray"></path>
      </clipPath>
      <path clip-path="url(#make-me-a-hanzi-clip-19)" d="M 1593.0 294.0 L 1698.0 242.0 L 1722.0 217.0 L 1740.0 185.0 " fill="none" id="make-me-a-hanzi-animation-19" stroke-dasharray="317 634" stroke-linecap="round"></path>

</g>
</svg>
