<svg version="1.1" viewBox="0 0 2048 1024" xmlns="http://www.w3.org/2000/svg">
  <g stroke="lightgray" stroke-dasharray="1,1" stroke-width="1" transform="scale(4, 4)">
    <line x1="0" y1="0" x2="256" y2="256"></line>
    <line x1="256" y1="0" x2="0" y2="256"></line>
    <line x1="128" y1="0" x2="128" y2="256"></line>
    <line x1="0" y1="128" x2="256" y2="128"></line>
    <line x1="256" y1="0" x2="512" y2="256"></line>
    <line x1="512" y1="0" x2="256" y2="256"></line>
    <line x1="384" y1="0" x2="384" y2="256"></line>
    <line x1="256" y1="128" x2="512" y2="128"></line>
  </g>
<g transform="scale(1, -1) translate(0, -850)">
   <style type="text/css">
    @keyframes keyframes0 {
      from {
       stroke: black;
       stroke-dashoffset: 592;
       stroke-width: 128;
       }
       66% {
       animation-timing-function: step-end;
       stroke: black;
       stroke-dashoffset: 0;
       stroke-width: 128;
       }
       to {
       stroke: black;
       stroke-width: 1024;
       }
       }
       #make-me-a-hanzi-animation-0 {
         animation: keyframes0 0.731771s both;
         animation-delay: 0.000000s;
         animation-timing-function: linear;
       }
    @keyframes keyframes1 {
      from {
       stroke: black;
       stroke-dashoffset: 623;
       stroke-width: 128;
       }
       67% {
       animation-timing-function: step-end;
       stroke: black;
       stroke-dashoffset: 0;
       stroke-width: 128;
       }
       to {
       stroke: black;
       stroke-width: 1024;
       }
       }
       #make-me-a-hanzi-animation-1 {
         animation: keyframes1 0.756999s both;
         animation-delay: 0.731771s;
         animation-timing-function: linear;
       }
    @keyframes keyframes2 {
      from {
       stroke: black;
       stroke-dashoffset: 898;
       stroke-width: 128;
       }
       75% {
       animation-timing-function: step-end;
       stroke: black;
       stroke-dashoffset: 0;
       stroke-width: 128;
       }
       to {
       stroke: black;
       stroke-width: 1024;
       }
       }
       #make-me-a-hanzi-animation-2 {
         animation: keyframes2 0.980794s both;
         animation-delay: 1.488770s;
         animation-timing-function: linear;
       }
    @keyframes keyframes3 {
      from {
       stroke: black;
       stroke-dashoffset: 633;
       stroke-width: 128;
       }
       67% {
       animation-timing-function: step-end;
       stroke: black;
       stroke-dashoffset: 0;
       stroke-width: 128;
       }
       to {
       stroke: black;
       stroke-width: 1024;
       }
       }
       #make-me-a-hanzi-animation-3 {
         animation: keyframes3 0.765137s both;
         animation-delay: 2.469564s;
         animation-timing-function: linear;
       }
    @keyframes keyframes4 {
      from {
       stroke: black;
       stroke-dashoffset: 357;
       stroke-width: 128;
       }
       54% {
       animation-timing-function: step-end;
       stroke: black;
       stroke-dashoffset: 0;
       stroke-width: 128;
       }
       to {
       stroke: black;
       stroke-width: 1024;
       }
       }
       #make-me-a-hanzi-animation-4 {
         animation: keyframes4 0.540527s both;
         animation-delay: 3.234701s;
         animation-timing-function: linear;
       }
    @keyframes keyframes5 {
      from {
       stroke: black;
       stroke-dashoffset: 605;
       stroke-width: 128;
       }
       66% {
       animation-timing-function: step-end;
       stroke: black;
       stroke-dashoffset: 0;
       stroke-width: 128;
       }
       to {
       stroke: black;
       stroke-width: 1024;
       }
       }
       #make-me-a-hanzi-animation-5 {
         animation: keyframes5 0.742350s both;
         animation-delay: 3.775228s;
         animation-timing-function: linear;
       }
    @keyframes keyframes6 {
      from {
       stroke: black;
       stroke-dashoffset: 547;
       stroke-width: 128;
       }
       64% {
       animation-timing-function: step-end;
       stroke: black;
       stroke-dashoffset: 0;
       stroke-width: 128;
       }
       to {
       stroke: black;
       stroke-width: 1024;
       }
       }
       #make-me-a-hanzi-animation-6 {
         animation: keyframes6 0.695150s both;
         animation-delay: 4.517578s;
         animation-timing-function: linear;
       }
    @keyframes keyframes7 {
      from {
       stroke: black;
       stroke-dashoffset: 738;
       stroke-width: 128;
       }
       71% {
       animation-timing-function: step-end;
       stroke: black;
       stroke-dashoffset: 0;
       stroke-width: 128;
       }
       to {
       stroke: black;
       stroke-width: 1024;
       }
       }
       #make-me-a-hanzi-animation-7 {
         animation: keyframes7 0.850586s both;
         animation-delay: 5.212728s;
         animation-timing-function: linear;
       }
    @keyframes keyframes8 {
      from {
       stroke: black;
       stroke-dashoffset: 727;
       stroke-width: 128;
       }
       70% {
       animation-timing-function: step-end;
       stroke: black;
       stroke-dashoffset: 0;
       stroke-width: 128;
       }
       to {
       stroke: black;
       stroke-width: 1024;
       }
       }
       #make-me-a-hanzi-animation-8 {
         animation: keyframes8 0.841634s both;
         animation-delay: 6.063314s;
         animation-timing-function: linear;
       }
    @keyframes keyframes9 {
      from {
       stroke: black;
       stroke-dashoffset: 476;
       stroke-width: 128;
       }
       61% {
       animation-timing-function: step-end;
       stroke: black;
       stroke-dashoffset: 0;
       stroke-width: 128;
       }
       to {
       stroke: black;
       stroke-width: 1024;
       }
       }
       #make-me-a-hanzi-animation-9 {
         animation: keyframes9 0.637370s both;
         animation-delay: 6.904948s;
         animation-timing-function: linear;
       }
    @keyframes keyframes10 {
      from {
       stroke: black;
       stroke-dashoffset: 826;
       stroke-width: 128;
       }
       73% {
       animation-timing-function: step-end;
       stroke: black;
       stroke-dashoffset: 0;
       stroke-width: 128;
       }
       to {
       stroke: black;
       stroke-width: 1024;
       }
       }
       #make-me-a-hanzi-animation-10 {
         animation: keyframes10 0.922201s both;
         animation-delay: 7.542318s;
         animation-timing-function: linear;
       }
    @keyframes keyframes11 {
      from {
       stroke: black;
       stroke-dashoffset: 803;
       stroke-width: 128;
       }
       72% {
       animation-timing-function: step-end;
       stroke: black;
       stroke-dashoffset: 0;
       stroke-width: 128;
       }
       to {
       stroke: black;
       stroke-width: 1024;
       }
       }
       #make-me-a-hanzi-animation-11 {
         animation: keyframes11 0.903483s both;
         animation-delay: 8.464518s;
         animation-timing-function: linear;
       }
    @keyframes keyframes12 {
      from {
       stroke: black;
       stroke-dashoffset: 693;
       stroke-width: 128;
       }
       69% {
       animation-timing-function: step-end;
       stroke: black;
       stroke-dashoffset: 0;
       stroke-width: 128;
       }
       to {
       stroke: black;
       stroke-width: 1024;
       }
       }
       #make-me-a-hanzi-animation-12 {
         animation: keyframes12 0.813965s both;
         animation-delay: 9.368001s;
         animation-timing-function: linear;
       }
    @keyframes keyframes13 {
      from {
       stroke: black;
       stroke-dashoffset: 734;
       stroke-width: 128;
       }
       70% {
       animation-timing-function: step-end;
       stroke: black;
       stroke-dashoffset: 0;
       stroke-width: 128;
       }
       to {
       stroke: black;
       stroke-width: 1024;
       }
       }
       #make-me-a-hanzi-animation-13 {
         animation: keyframes13 0.847331s both;
         animation-delay: 10.181966s;
         animation-timing-function: linear;
       }
    @keyframes keyframes14 {
      from {
       stroke: black;
       stroke-dashoffset: 452;
       stroke-width: 128;
       }
       60% {
       animation-timing-function: step-end;
       stroke: black;
       stroke-dashoffset: 0;
       stroke-width: 128;
       }
       to {
       stroke: black;
       stroke-width: 1024;
       }
       }
       #make-me-a-hanzi-animation-14 {
         animation: keyframes14 0.617839s both;
         animation-delay: 11.029297s;
         animation-timing-function: linear;
       }
    @keyframes keyframes15 {
      from {
       stroke: black;
       stroke-dashoffset: 1096;
       stroke-width: 128;
       }
       78% {
       animation-timing-function: step-end;
       stroke: black;
       stroke-dashoffset: 0;
       stroke-width: 128;
       }
       to {
       stroke: black;
       stroke-width: 1024;
       }
       }
       #make-me-a-hanzi-animation-15 {
         animation: keyframes15 1.141927s both;
         animation-delay: 11.647135s;
         animation-timing-function: linear;
       }
    @keyframes keyframes16 {
      from {
       stroke: black;
       stroke-dashoffset: 446;
       stroke-width: 128;
       }
       59% {
       animation-timing-function: step-end;
       stroke: black;
       stroke-dashoffset: 0;
       stroke-width: 128;
       }
       to {
       stroke: black;
       stroke-width: 1024;
       }
       }
       #make-me-a-hanzi-animation-16 {
         animation: keyframes16 0.612956s both;
         animation-delay: 12.789062s;
         animation-timing-function: linear;
       }
    @keyframes keyframes17 {
      from {
       stroke: black;
       stroke-dashoffset: 527;
       stroke-width: 128;
       }
       63% {
       animation-timing-function: step-end;
       stroke: black;
       stroke-dashoffset: 0;
       stroke-width: 128;
       }
       to {
       stroke: black;
       stroke-width: 1024;
       }
       }
       #make-me-a-hanzi-animation-17 {
         animation: keyframes17 0.678874s both;
         animation-delay: 13.402018s;
         animation-timing-function: linear;
       }
    @keyframes keyframes18 {
      from {
       stroke: black;
       stroke-dashoffset: 409;
       stroke-width: 128;
       }
       57% {
       animation-timing-function: step-end;
       stroke: black;
       stroke-dashoffset: 0;
       stroke-width: 128;
       }
       to {
       stroke: black;
       stroke-width: 1024;
       }
       }
       #make-me-a-hanzi-animation-18 {
         animation: keyframes18 0.582845s both;
         animation-delay: 14.080892s;
         animation-timing-function: linear;
       }
    @keyframes keyframes19 {
      from {
       stroke: black;
       stroke-dashoffset: 865;
       stroke-width: 128;
       }
       74% {
       animation-timing-function: step-end;
       stroke: black;
       stroke-dashoffset: 0;
       stroke-width: 128;
       }
       to {
       stroke: black;
       stroke-width: 1024;
       }
       }
       #make-me-a-hanzi-animation-19 {
         animation: keyframes19 0.953939s both;
         animation-delay: 14.663737s;
         animation-timing-function: linear;
       }
</style>
<path d="M 308 630 Q 383 669 438 680 Q 454 681 457 688 Q 461 698 449 708 Q 398 747 363 743 Q 356 739 355 729 Q 356 689 141 589 Q 137 580 141 578 Q 162 578 252 610 Q 262 614 273 617 L 308 630 Z" fill="lightgray"></path> 
<path d="M 325 473 Q 371 486 427 498 Q 443 501 443 508 Q 443 521 425 527 Q 398 539 326 514 L 286 502 Q 148 465 78 451 Q 66 450 64 441 Q 61 431 76 421 Q 112 402 161 417 Q 216 441 263 454 L 325 473 Z" fill="lightgray"></path> 
<path d="M 323 389 Q 323 438 325 473 L 326 514 Q 327 568 334 595 Q 337 608 308 630 C 285 650 266 646 273 617 Q 280 599 286 502 L 284 394 Q 266 103 257 85 Q 248 49 281 -2 Q 291 -20 300 -24 Q 310 -25 316 -13 Q 328 18 325 48 Q 321 220 323 368 L 323 389 Z" fill="lightgray"></path> 
<path d="M 263 454 Q 206 325 63 146 Q 57 137 68 136 Q 74 135 82 143 Q 209 249 284 394 C 328 477 276 484 263 454 Z" fill="lightgray"></path> 
<path d="M 323 368 Q 329 362 343 352 Q 397 310 406 311 Q 413 312 417 322 Q 420 334 412 357 Q 403 376 337 389 Q 327 390 323 389 C 303 387 303 387 323 368 Z" fill="lightgray"></path> 
<path d="M 705 684 Q 774 759 774 763 Q 770 788 737 803 Q 721 812 711 811 Q 704 810 703 799 Q 706 766 658 702 L 632 671 Q 593 629 502 564 Q 495 560 503 557 Q 557 557 655 635 Q 656 639 670 649 L 705 684 Z" fill="lightgray"></path> 
<path d="M 670 649 Q 716 624 768 591 Q 783 579 794 579 Q 801 580 804 588 Q 811 600 793 628 Q 780 658 705 684 L 658 702 Q 580 730 537 740 Q 530 741 531 733 Q 532 723 542 718 Q 585 697 632 671 L 670 649 Z" fill="lightgray"></path> 
<path d="M 612 457 Q 625 464 717 474 Q 771 480 840 484 Q 891 488 897 495 Q 901 505 886 517 Q 832 550 777 532 Q 719 519 634 497 L 571 484 Q 498 471 418 455 Q 399 451 414 437 Q 427 425 444 422 Q 463 418 477 423 Q 513 436 552 444 L 612 457 Z" fill="lightgray"></path> 
<path d="M 524 327 Q 576 393 611 456 Q 611 457 612 457 L 634 497 Q 650 528 661 543 Q 668 555 665 563 Q 661 573 636 576 Q 611 580 600 576 Q 593 573 593 561 Q 592 530 572 485 Q 571 485 571 484 L 552 444 Q 492 341 358 194 Q 342 178 365 185 Q 416 200 498 293 L 524 327 Z" fill="lightgray"></path> 
<path d="M 538 319 Q 537 320 524 327 C 498 341 494 323 498 293 Q 510 203 488 159 Q 472 128 502 92 Q 509 82 517 87 Q 541 108 542 193 Q 542 265 545 287 C 548 313 548 313 538 319 Z" fill="lightgray"></path> 
<path d="M 691 313 Q 731 320 772 324 Q 800 325 802 307 Q 808 190 794 174 Q 785 168 743 172 Q 728 176 725 171 Q 722 165 733 156 Q 778 122 805 95 Q 818 82 831 96 Q 856 127 857 194 Q 854 278 862 314 Q 865 333 856 342 Q 829 366 812 375 Q 799 381 791 372 Q 785 365 695 344 Q 694 344 693 343 L 640 334 Q 600 330 538 319 C 508 314 515 285 545 287 Q 554 286 568 289 Q 602 298 640 304 L 691 313 Z" fill="lightgray"></path> 
<path d="M 640 -75 Q 644 -99 651 -107 Q 655 -114 663 -112 Q 675 -103 682 -50 Q 682 -46 691 313 L 693 343 Q 694 350 695 357 Q 698 375 701 389 Q 704 405 691 414 Q 661 433 648 436 Q 636 440 622 433 Q 613 426 620 416 Q 639 383 640 334 L 640 304 Q 640 207 637 70 Q 636 -39 640 -75 Z" fill="lightgray"></path> 
<path d="M 1710 597 L 1690 600 Q 1686 600 1666 594 Q 1646 588 1625 585 L 1550 572 L 1492 566 L 1318 546 Q 1299 544 1310 530 Q 1322 516 1343 514 Q 1364 512 1385 513 Q 1406 514 1427 514 L 1477 518 L 1541 525 L 1644 538 L 1732 552 L 1749 557 Q 1760 561 1760 568 Q 1762 576 1752 580 Q 1738 589 1731 591 L 1710 597 Z" fill="lightgray"></path> 
<path d="M 1550 572 L 1563 612 L 1573 638 L 1582 656 Q 1599 681 1562 696 Q 1513 725 1499 712 Q 1492 705 1497 691 Q 1502 676 1504 668 L 1504 640 Q 1505 616 1492 566 L 1477 518 L 1466 496 Q 1458 478 1434 451 Q 1411 423 1389 405 Q 1341 366 1316 357 L 1302 350 Q 1294 346 1296 341 Q 1298 336 1306 338 L 1318 342 Q 1345 347 1352 351 L 1379 362 Q 1398 369 1419 383 Q 1440 397 1467 425 Q 1495 453 1505 470 L 1530 506 L 1550 572 Z" fill="lightgray"></path> 
<path d="M 1530 506 L 1613 403 Q 1623 391 1639 378 Q 1656 365 1664 362 Q 1680 354 1695 370 Q 1702 378 1694 415 Q 1686 451 1643 478 L 1594 504 L 1541 525 C 1513 536 1511 529 1530 506 Z" fill="lightgray"></path> 
<path d="M 1710 296 L 1926 294 Q 1944 294 1952 298 Q 1960 302 1960 306 Q 1961 309 1957 316 Q 1953 323 1936 331 L 1902 348 Q 1879 357 1868 357 L 1746 340 Q 1704 333 1386 310 L 1190 294 L 1134 292 Q 1119 291 1114 290 Q 1110 288 1108 283 Q 1108 271 1142 255 L 1166 244 Q 1177 240 1186 241 Q 1196 241 1218 247 Q 1241 253 1255 255 Q 1270 256 1292 261 L 1399 276 L 1641 293 L 1710 296 Z" fill="lightgray"></path> 
<path d="M 1370 10 L 1372 20 L 1372 54 L 1366 145 C 1364 172 1364 172 1352 175 L 1303 186 Q 1281 188 1291 172 L 1308 152 L 1322 111 L 1333 41 Q 1337 12 1342 7 L 1350 0 Q 1367 -6 1370 10 Z" fill="lightgray"></path> 
<path d="M 1516 60 L 1534 116 Q 1542 141 1553 153 Q 1565 165 1568 173 Q 1568 180 1561 186 L 1516 211 Q 1503 217 1498 217 Q 1493 216 1475 208 Q 1457 199 1434 192 L 1396 182 L 1352 175 C 1322 170 1337 139 1366 145 L 1446 162 Q 1473 170 1479 159 Q 1482 155 1480 134 L 1472 73 C 1468 43 1507 31 1516 60 Z" fill="lightgray"></path> 
<path d="M 1372 20 L 1506 37 L 1526 37 Q 1531 39 1533 44 Q 1535 49 1527 54 L 1516 60 L 1472 73 L 1416 62 Q 1378 56 1372 54 C 1343 47 1342 16 1372 20 Z" fill="lightgray"></path> 
<path d="M 1641 293 L 1651 268 Q 1657 251 1662 190 L 1664 168 L 1664 85 Q 1664 50 1662 -10 L 1659 -62 Q 1658 -104 1640 -114 Q 1631 -119 1609 -115 L 1544 -103 Q 1535 -101 1533 -107 Q 1531 -113 1541 -120 L 1550 -126 L 1564 -138 Q 1571 -144 1579 -149 Q 1587 -155 1601 -176 L 1628 -214 Q 1637 -221 1645 -222 Q 1653 -224 1670 -216 Q 1683 -208 1696 -189 Q 1709 -170 1716 -139 Q 1723 -108 1723 -41 L 1722 172 Q 1722 190 1723 198 L 1726 232 Q 1729 252 1732 261 Q 1736 270 1736 272 Q 1736 274 1728 282 Q 1721 289 1710 296 C 1686 314 1630 321 1641 293 Z" fill="lightgray"></path> 
      <clipPath id="make-me-a-hanzi-clip-0">
      <path d="M 308 630 Q 383 669 438 680 Q 454 681 457 688 Q 461 698 449 708 Q 398 747 363 743 Q 356 739 355 729 Q 356 689 141 589 Q 137 580 141 578 Q 162 578 252 610 Q 262 614 273 617 L 308 630 Z" fill="lightgray"></path>
      </clipPath>
      <path clip-path="url(#make-me-a-hanzi-clip-0)" d="M 447 693 L 386 704 L 295 646 L 171 592 L 154 594 L 144 584 " fill="none" id="make-me-a-hanzi-animation-0" stroke-dasharray="464 928" stroke-linecap="round"></path>

      <clipPath id="make-me-a-hanzi-clip-1">
      <path d="M 325 473 Q 371 486 427 498 Q 443 501 443 508 Q 443 521 425 527 Q 398 539 326 514 L 286 502 Q 148 465 78 451 Q 66 450 64 441 Q 61 431 76 421 Q 112 402 161 417 Q 216 441 263 454 L 325 473 Z" fill="lightgray"></path>
      </clipPath>
      <path clip-path="url(#make-me-a-hanzi-clip-1)" d="M 77 438 L 110 434 L 147 439 L 375 508 L 433 510 " fill="none" id="make-me-a-hanzi-animation-1" stroke-dasharray="495 990" stroke-linecap="round"></path>

      <clipPath id="make-me-a-hanzi-clip-2">
      <path d="M 323 389 Q 323 438 325 473 L 326 514 Q 327 568 334 595 Q 337 608 308 630 C 285 650 266 646 273 617 Q 280 599 286 502 L 284 394 Q 266 103 257 85 Q 248 49 281 -2 Q 291 -20 300 -24 Q 310 -25 316 -13 Q 328 18 325 48 Q 321 220 323 368 L 323 389 Z" fill="lightgray"></path>
      </clipPath>
      <path clip-path="url(#make-me-a-hanzi-clip-2)" d="M 280 616 L 306 595 L 303 361 L 290 72 L 302 -12 " fill="none" id="make-me-a-hanzi-animation-2" stroke-dasharray="770 1540" stroke-linecap="round"></path>

      <clipPath id="make-me-a-hanzi-clip-3">
      <path d="M 263 454 Q 206 325 63 146 Q 57 137 68 136 Q 74 135 82 143 Q 209 249 284 394 C 328 477 276 484 263 454 Z" fill="lightgray"></path>
      </clipPath>
      <path clip-path="url(#make-me-a-hanzi-clip-3)" d="M 281 454 L 272 441 L 261 397 L 199 295 L 134 211 L 73 145 " fill="none" id="make-me-a-hanzi-animation-3" stroke-dasharray="505 1010" stroke-linecap="round"></path>

      <clipPath id="make-me-a-hanzi-clip-4">
      <path d="M 323 368 Q 329 362 343 352 Q 397 310 406 311 Q 413 312 417 322 Q 420 334 412 357 Q 403 376 337 389 Q 327 390 323 389 C 303 387 303 387 323 368 Z" fill="lightgray"></path>
      </clipPath>
      <path clip-path="url(#make-me-a-hanzi-clip-4)" d="M 330 384 L 337 374 L 393 344 L 406 322 " fill="none" id="make-me-a-hanzi-animation-4" stroke-dasharray="229 458" stroke-linecap="round"></path>

      <clipPath id="make-me-a-hanzi-clip-5">
      <path d="M 705 684 Q 774 759 774 763 Q 770 788 737 803 Q 721 812 711 811 Q 704 810 703 799 Q 706 766 658 702 L 632 671 Q 593 629 502 564 Q 495 560 503 557 Q 557 557 655 635 Q 656 639 670 649 L 705 684 Z" fill="lightgray"></path>
      </clipPath>
      <path clip-path="url(#make-me-a-hanzi-clip-5)" d="M 715 799 L 733 766 L 676 687 L 635 643 L 589 607 L 538 575 L 512 568 L 508 561 " fill="none" id="make-me-a-hanzi-animation-5" stroke-dasharray="477 954" stroke-linecap="round"></path>

      <clipPath id="make-me-a-hanzi-clip-6">
      <path d="M 670 649 Q 716 624 768 591 Q 783 579 794 579 Q 801 580 804 588 Q 811 600 793 628 Q 780 658 705 684 L 658 702 Q 580 730 537 740 Q 530 741 531 733 Q 532 723 542 718 Q 585 697 632 671 L 670 649 Z" fill="lightgray"></path>
      </clipPath>
      <path clip-path="url(#make-me-a-hanzi-clip-6)" d="M 540 731 L 643 689 L 738 641 L 780 610 L 791 592 " fill="none" id="make-me-a-hanzi-animation-6" stroke-dasharray="419 838" stroke-linecap="round"></path>

      <clipPath id="make-me-a-hanzi-clip-7">
      <path d="M 612 457 Q 625 464 717 474 Q 771 480 840 484 Q 891 488 897 495 Q 901 505 886 517 Q 832 550 777 532 Q 719 519 634 497 L 571 484 Q 498 471 418 455 Q 399 451 414 437 Q 427 425 444 422 Q 463 418 477 423 Q 513 436 552 444 L 612 457 Z" fill="lightgray"></path>
      </clipPath>
      <path clip-path="url(#make-me-a-hanzi-clip-7)" d="M 416 446 L 461 442 L 804 510 L 841 510 L 890 500 " fill="none" id="make-me-a-hanzi-animation-7" stroke-dasharray="610 1220" stroke-linecap="round"></path>

      <clipPath id="make-me-a-hanzi-clip-8">
      <path d="M 524 327 Q 576 393 611 456 Q 611 457 612 457 L 634 497 Q 650 528 661 543 Q 668 555 665 563 Q 661 573 636 576 Q 611 580 600 576 Q 593 573 593 561 Q 592 530 572 485 Q 571 485 571 484 L 552 444 Q 492 341 358 194 Q 342 178 365 185 Q 416 200 498 293 L 524 327 Z" fill="lightgray"></path>
      </clipPath>
      <path clip-path="url(#make-me-a-hanzi-clip-8)" d="M 652 558 L 624 545 L 574 436 L 513 346 L 437 255 L 367 194 " fill="none" id="make-me-a-hanzi-animation-8" stroke-dasharray="599 1198" stroke-linecap="round"></path>

      <clipPath id="make-me-a-hanzi-clip-9">
      <path d="M 538 319 Q 537 320 524 327 C 498 341 494 323 498 293 Q 510 203 488 159 Q 472 128 502 92 Q 509 82 517 87 Q 541 108 542 193 Q 542 265 545 287 C 548 313 548 313 538 319 Z" fill="lightgray"></path>
      </clipPath>
      <path clip-path="url(#make-me-a-hanzi-clip-9)" d="M 525 317 L 523 204 L 510 138 L 512 98 " fill="none" id="make-me-a-hanzi-animation-9" stroke-dasharray="348 696" stroke-linecap="round"></path>

      <clipPath id="make-me-a-hanzi-clip-10">
      <path d="M 691 313 Q 731 320 772 324 Q 800 325 802 307 Q 808 190 794 174 Q 785 168 743 172 Q 728 176 725 171 Q 722 165 733 156 Q 778 122 805 95 Q 818 82 831 96 Q 856 127 857 194 Q 854 278 862 314 Q 865 333 856 342 Q 829 366 812 375 Q 799 381 791 372 Q 785 365 695 344 Q 694 344 693 343 L 640 334 Q 600 330 538 319 C 508 314 515 285 545 287 Q 554 286 568 289 Q 602 298 640 304 L 691 313 Z" fill="lightgray"></path>
      </clipPath>
      <path clip-path="url(#make-me-a-hanzi-clip-10)" d="M 548 315 L 559 305 L 793 346 L 820 336 L 832 315 L 829 186 L 822 156 L 812 141 L 800 142 L 730 168 " fill="none" id="make-me-a-hanzi-animation-10" stroke-dasharray="698 1396" stroke-linecap="round"></path>

      <clipPath id="make-me-a-hanzi-clip-11">
      <path d="M 640 -75 Q 644 -99 651 -107 Q 655 -114 663 -112 Q 675 -103 682 -50 Q 682 -46 691 313 L 693 343 Q 694 350 695 357 Q 698 375 701 389 Q 704 405 691 414 Q 661 433 648 436 Q 636 440 622 433 Q 613 426 620 416 Q 639 383 640 334 L 640 304 Q 640 207 637 70 Q 636 -39 640 -75 Z" fill="lightgray"></path>
      </clipPath>
      <path clip-path="url(#make-me-a-hanzi-clip-11)" d="M 628 424 L 645 415 L 667 390 L 659 -104 " fill="none" id="make-me-a-hanzi-animation-11" stroke-dasharray="675 1350" stroke-linecap="round"></path>

      <clipPath id="make-me-a-hanzi-clip-12">
      <path d="M 1710 597 L 1690 600 Q 1686 600 1666 594 Q 1646 588 1625 585 L 1550 572 L 1492 566 L 1318 546 Q 1299 544 1310 530 Q 1322 516 1343 514 Q 1364 512 1385 513 Q 1406 514 1427 514 L 1477 518 L 1541 525 L 1644 538 L 1732 552 L 1749 557 Q 1760 561 1760 568 Q 1762 576 1752 580 Q 1738 589 1731 591 L 1710 597 Z" fill="lightgray"></path>
      </clipPath>
      <path clip-path="url(#make-me-a-hanzi-clip-12)" d="M 1315 538 L 1340 531 L 1420 535 L 1560 550 L 1681 571 L 1748 569 " fill="none" id="make-me-a-hanzi-animation-12" stroke-dasharray="565 1130" stroke-linecap="round"></path>

      <clipPath id="make-me-a-hanzi-clip-13">
      <path d="M 1550 572 L 1563 612 L 1573 638 L 1582 656 Q 1599 681 1562 696 Q 1513 725 1499 712 Q 1492 705 1497 691 Q 1502 676 1504 668 L 1504 640 Q 1505 616 1492 566 L 1477 518 L 1466 496 Q 1458 478 1434 451 Q 1411 423 1389 405 Q 1341 366 1316 357 L 1302 350 Q 1294 346 1296 341 Q 1298 336 1306 338 L 1318 342 Q 1345 347 1352 351 L 1379 362 Q 1398 369 1419 383 Q 1440 397 1467 425 Q 1495 453 1505 470 L 1530 506 L 1550 572 Z" fill="lightgray"></path>
      </clipPath>
      <path clip-path="url(#make-me-a-hanzi-clip-13)" d="M 1508 703 L 1537 673 L 1542 659 L 1519 560 L 1497 501 L 1459 446 L 1424 410 L 1368 371 L 1302 343 " fill="none" id="make-me-a-hanzi-animation-13" stroke-dasharray="606 1212" stroke-linecap="round"></path>

      <clipPath id="make-me-a-hanzi-clip-14">
      <path d="M 1530 506 L 1613 403 Q 1623 391 1639 378 Q 1656 365 1664 362 Q 1680 354 1695 370 Q 1702 378 1694 415 Q 1686 451 1643 478 L 1594 504 L 1541 525 C 1513 536 1511 529 1530 506 Z" fill="lightgray"></path>
      </clipPath>
      <path clip-path="url(#make-me-a-hanzi-clip-14)" d="M 1539 518 L 1629 443 L 1678 381 " fill="none" id="make-me-a-hanzi-animation-14" stroke-dasharray="324 648" stroke-linecap="round"></path>

      <clipPath id="make-me-a-hanzi-clip-15">
      <path d="M 1710 296 L 1926 294 Q 1944 294 1952 298 Q 1960 302 1960 306 Q 1961 309 1957 316 Q 1953 323 1936 331 L 1902 348 Q 1879 357 1868 357 L 1746 340 Q 1704 333 1386 310 L 1190 294 L 1134 292 Q 1119 291 1114 290 Q 1110 288 1108 283 Q 1108 271 1142 255 L 1166 244 Q 1177 240 1186 241 Q 1196 241 1218 247 Q 1241 253 1255 255 Q 1270 256 1292 261 L 1399 276 L 1641 293 L 1710 296 Z" fill="lightgray"></path>
      </clipPath>
      <path clip-path="url(#make-me-a-hanzi-clip-15)" d="M 1117 282 L 1178 267 L 1401 296 L 1865 326 L 1950 308 " fill="none" id="make-me-a-hanzi-animation-15" stroke-dasharray="968 1936" stroke-linecap="round"></path>

      <clipPath id="make-me-a-hanzi-clip-16">
      <path d="M 1370 10 L 1372 20 L 1372 54 L 1366 145 C 1364 172 1364 172 1352 175 L 1303 186 Q 1281 188 1291 172 L 1308 152 L 1322 111 L 1333 41 Q 1337 12 1342 7 L 1350 0 Q 1367 -6 1370 10 Z" fill="lightgray"></path>
      </clipPath>
      <path clip-path="url(#make-me-a-hanzi-clip-16)" d="M 1297 179 L 1329 159 L 1341 136 L 1357 11 " fill="none" id="make-me-a-hanzi-animation-16" stroke-dasharray="318 636" stroke-linecap="round"></path>

      <clipPath id="make-me-a-hanzi-clip-17">
      <path d="M 1516 60 L 1534 116 Q 1542 141 1553 153 Q 1565 165 1568 173 Q 1568 180 1561 186 L 1516 211 Q 1503 217 1498 217 Q 1493 216 1475 208 Q 1457 199 1434 192 L 1396 182 L 1352 175 C 1322 170 1337 139 1366 145 L 1446 162 Q 1473 170 1479 159 Q 1482 155 1480 134 L 1472 73 C 1468 43 1507 31 1516 60 Z" fill="lightgray"></path>
      </clipPath>
      <path clip-path="url(#make-me-a-hanzi-clip-17)" d="M 1360 173 L 1369 165 L 1383 164 L 1462 184 L 1499 184 L 1516 167 L 1500 93 L 1511 69 " fill="none" id="make-me-a-hanzi-animation-17" stroke-dasharray="399 798" stroke-linecap="round"></path>

      <clipPath id="make-me-a-hanzi-clip-18">
      <path d="M 1372 20 L 1506 37 L 1526 37 Q 1531 39 1533 44 Q 1535 49 1527 54 L 1516 60 L 1472 73 L 1416 62 Q 1378 56 1372 54 C 1343 47 1342 16 1372 20 Z" fill="lightgray"></path>
      </clipPath>
      <path clip-path="url(#make-me-a-hanzi-clip-18)" d="M 1379 26 L 1390 40 L 1474 53 L 1524 46 " fill="none" id="make-me-a-hanzi-animation-18" stroke-dasharray="281 562" stroke-linecap="round"></path>

      <clipPath id="make-me-a-hanzi-clip-19">
      <path d="M 1641 293 L 1651 268 Q 1657 251 1662 190 L 1664 168 L 1664 85 Q 1664 50 1662 -10 L 1659 -62 Q 1658 -104 1640 -114 Q 1631 -119 1609 -115 L 1544 -103 Q 1535 -101 1533 -107 Q 1531 -113 1541 -120 L 1550 -126 L 1564 -138 Q 1571 -144 1579 -149 Q 1587 -155 1601 -176 L 1628 -214 Q 1637 -221 1645 -222 Q 1653 -224 1670 -216 Q 1683 -208 1696 -189 Q 1709 -170 1716 -139 Q 1723 -108 1723 -41 L 1722 172 Q 1722 190 1723 198 L 1726 232 Q 1729 252 1732 261 Q 1736 270 1736 272 Q 1736 274 1728 282 Q 1721 289 1710 296 C 1686 314 1630 321 1641 293 Z" fill="lightgray"></path>
      </clipPath>
      <path clip-path="url(#make-me-a-hanzi-clip-19)" d="M 1648 289 L 1692 258 L 1694 43 L 1686 -109 L 1676 -136 L 1653 -163 L 1541 -111 " fill="none" id="make-me-a-hanzi-animation-19" stroke-dasharray="737 1474" stroke-linecap="round"></path>

</g>
</svg>
