<svg version="1.1" viewBox="0 0 2048 1024" xmlns="http://www.w3.org/2000/svg">
  <g stroke="lightgray" stroke-dasharray="1,1" stroke-width="1" transform="scale(4, 4)">
    <line x1="0" y1="0" x2="256" y2="256"></line>
    <line x1="256" y1="0" x2="0" y2="256"></line>
    <line x1="128" y1="0" x2="128" y2="256"></line>
    <line x1="0" y1="128" x2="256" y2="128"></line>
    <line x1="256" y1="0" x2="512" y2="256"></line>
    <line x1="512" y1="0" x2="256" y2="256"></line>
    <line x1="384" y1="0" x2="384" y2="256"></line>
    <line x1="256" y1="128" x2="512" y2="128"></line>
  </g>
<g transform="scale(1, -1) translate(0, -850)">
   <style type="text/css">
    @keyframes keyframes0 {
      from {
       stroke: black;
       stroke-dashoffset: 594;
       stroke-width: 128;
       }
       66% {
       animation-timing-function: step-end;
       stroke: black;
       stroke-dashoffset: 0;
       stroke-width: 128;
       }
       to {
       stroke: black;
       stroke-width: 1024;
       }
       }
       #make-me-a-hanzi-animation-0 {
         animation: keyframes0 0.733398s both;
         animation-delay: 0.000000s;
         animation-timing-function: linear;
       }
    @keyframes keyframes1 {
      from {
       stroke: black;
       stroke-dashoffset: 437;
       stroke-width: 128;
       }
       59% {
       animation-timing-function: step-end;
       stroke: black;
       stroke-dashoffset: 0;
       stroke-width: 128;
       }
       to {
       stroke: black;
       stroke-width: 1024;
       }
       }
       #make-me-a-hanzi-animation-1 {
         animation: keyframes1 0.605632s both;
         animation-delay: 0.733398s;
         animation-timing-function: linear;
       }
    @keyframes keyframes2 {
      from {
       stroke: black;
       stroke-dashoffset: 358;
       stroke-width: 128;
       }
       54% {
       animation-timing-function: step-end;
       stroke: black;
       stroke-dashoffset: 0;
       stroke-width: 128;
       }
       to {
       stroke: black;
       stroke-width: 1024;
       }
       }
       #make-me-a-hanzi-animation-2 {
         animation: keyframes2 0.541341s both;
         animation-delay: 1.339030s;
         animation-timing-function: linear;
       }
    @keyframes keyframes3 {
      from {
       stroke: black;
       stroke-dashoffset: 561;
       stroke-width: 128;
       }
       65% {
       animation-timing-function: step-end;
       stroke: black;
       stroke-dashoffset: 0;
       stroke-width: 128;
       }
       to {
       stroke: black;
       stroke-width: 1024;
       }
       }
       #make-me-a-hanzi-animation-3 {
         animation: keyframes3 0.706543s both;
         animation-delay: 1.880371s;
         animation-timing-function: linear;
       }
    @keyframes keyframes4 {
      from {
       stroke: black;
       stroke-dashoffset: 466;
       stroke-width: 128;
       }
       60% {
       animation-timing-function: step-end;
       stroke: black;
       stroke-dashoffset: 0;
       stroke-width: 128;
       }
       to {
       stroke: black;
       stroke-width: 1024;
       }
       }
       #make-me-a-hanzi-animation-4 {
         animation: keyframes4 0.629232s both;
         animation-delay: 2.586914s;
         animation-timing-function: linear;
       }
    @keyframes keyframes5 {
      from {
       stroke: black;
       stroke-dashoffset: 359;
       stroke-width: 128;
       }
       54% {
       animation-timing-function: step-end;
       stroke: black;
       stroke-dashoffset: 0;
       stroke-width: 128;
       }
       to {
       stroke: black;
       stroke-width: 1024;
       }
       }
       #make-me-a-hanzi-animation-5 {
         animation: keyframes5 0.542155s both;
         animation-delay: 3.216146s;
         animation-timing-function: linear;
       }
    @keyframes keyframes6 {
      from {
       stroke: black;
       stroke-dashoffset: 384;
       stroke-width: 128;
       }
       56% {
       animation-timing-function: step-end;
       stroke: black;
       stroke-dashoffset: 0;
       stroke-width: 128;
       }
       to {
       stroke: black;
       stroke-width: 1024;
       }
       }
       #make-me-a-hanzi-animation-6 {
         animation: keyframes6 0.562500s both;
         animation-delay: 3.758301s;
         animation-timing-function: linear;
       }
    @keyframes keyframes7 {
      from {
       stroke: black;
       stroke-dashoffset: 695;
       stroke-width: 128;
       }
       69% {
       animation-timing-function: step-end;
       stroke: black;
       stroke-dashoffset: 0;
       stroke-width: 128;
       }
       to {
       stroke: black;
       stroke-width: 1024;
       }
       }
       #make-me-a-hanzi-animation-7 {
         animation: keyframes7 0.815592s both;
         animation-delay: 4.320801s;
         animation-timing-function: linear;
       }
    @keyframes keyframes8 {
      from {
       stroke: black;
       stroke-dashoffset: 1190;
       stroke-width: 128;
       }
       79% {
       animation-timing-function: step-end;
       stroke: black;
       stroke-dashoffset: 0;
       stroke-width: 128;
       }
       to {
       stroke: black;
       stroke-width: 1024;
       }
       }
       #make-me-a-hanzi-animation-8 {
         animation: keyframes8 1.218424s both;
         animation-delay: 5.136393s;
         animation-timing-function: linear;
       }
    @keyframes keyframes9 {
      from {
       stroke: black;
       stroke-dashoffset: 526;
       stroke-width: 128;
       }
       63% {
       animation-timing-function: step-end;
       stroke: black;
       stroke-dashoffset: 0;
       stroke-width: 128;
       }
       to {
       stroke: black;
       stroke-width: 1024;
       }
       }
       #make-me-a-hanzi-animation-9 {
         animation: keyframes9 0.678060s both;
         animation-delay: 6.354818s;
         animation-timing-function: linear;
       }
    @keyframes keyframes10 {
      from {
       stroke: black;
       stroke-dashoffset: 690;
       stroke-width: 128;
       }
       69% {
       animation-timing-function: step-end;
       stroke: black;
       stroke-dashoffset: 0;
       stroke-width: 128;
       }
       to {
       stroke: black;
       stroke-width: 1024;
       }
       }
       #make-me-a-hanzi-animation-10 {
         animation: keyframes10 0.811523s both;
         animation-delay: 7.032878s;
         animation-timing-function: linear;
       }
    @keyframes keyframes11 {
      from {
       stroke: black;
       stroke-dashoffset: 399;
       stroke-width: 128;
       }
       56% {
       animation-timing-function: step-end;
       stroke: black;
       stroke-dashoffset: 0;
       stroke-width: 128;
       }
       to {
       stroke: black;
       stroke-width: 1024;
       }
       }
       #make-me-a-hanzi-animation-11 {
         animation: keyframes11 0.574707s both;
         animation-delay: 7.844401s;
         animation-timing-function: linear;
       }
    @keyframes keyframes12 {
      from {
       stroke: black;
       stroke-dashoffset: 387;
       stroke-width: 128;
       }
       56% {
       animation-timing-function: step-end;
       stroke: black;
       stroke-dashoffset: 0;
       stroke-width: 128;
       }
       to {
       stroke: black;
       stroke-width: 1024;
       }
       }
       #make-me-a-hanzi-animation-12 {
         animation: keyframes12 0.564941s both;
         animation-delay: 8.419108s;
         animation-timing-function: linear;
       }
    @keyframes keyframes13 {
      from {
       stroke: black;
       stroke-dashoffset: 822;
       stroke-width: 128;
       }
       73% {
       animation-timing-function: step-end;
       stroke: black;
       stroke-dashoffset: 0;
       stroke-width: 128;
       }
       to {
       stroke: black;
       stroke-width: 1024;
       }
       }
       #make-me-a-hanzi-animation-13 {
         animation: keyframes13 0.918945s both;
         animation-delay: 8.984049s;
         animation-timing-function: linear;
       }
    @keyframes keyframes14 {
      from {
       stroke: black;
       stroke-dashoffset: 755;
       stroke-width: 128;
       }
       71% {
       animation-timing-function: step-end;
       stroke: black;
       stroke-dashoffset: 0;
       stroke-width: 128;
       }
       to {
       stroke: black;
       stroke-width: 1024;
       }
       }
       #make-me-a-hanzi-animation-14 {
         animation: keyframes14 0.864421s both;
         animation-delay: 9.902995s;
         animation-timing-function: linear;
       }
    @keyframes keyframes15 {
      from {
       stroke: black;
       stroke-dashoffset: 568;
       stroke-width: 128;
       }
       65% {
       animation-timing-function: step-end;
       stroke: black;
       stroke-dashoffset: 0;
       stroke-width: 128;
       }
       to {
       stroke: black;
       stroke-width: 1024;
       }
       }
       #make-me-a-hanzi-animation-15 {
         animation: keyframes15 0.712240s both;
         animation-delay: 10.767415s;
         animation-timing-function: linear;
       }
    @keyframes keyframes16 {
      from {
       stroke: black;
       stroke-dashoffset: 1447;
       stroke-width: 128;
       }
       82% {
       animation-timing-function: step-end;
       stroke: black;
       stroke-dashoffset: 0;
       stroke-width: 128;
       }
       to {
       stroke: black;
       stroke-width: 1024;
       }
       }
       #make-me-a-hanzi-animation-16 {
         animation: keyframes16 1.427572s both;
         animation-delay: 11.479655s;
         animation-timing-function: linear;
       }
</style>
<path d="M 324 684 Q 319 684 317 681 Q 315 677 315 673 Q 315 644 287 588 Q 248 512 197 452 Q 167 421 160 404 Q 162 400 168 400 Q 241 442 298 517 Q 308 531 318 546 L 334 567 Q 356 596 376 621 Q 391 635 391 644 Q 391 656 357 673 Q 334 684 324 684 Z" fill="lightgray"></path> 
<path d="M 318 546 Q 322 544 329 542 Q 352 532 372 532 Q 377 532 387 536 Q 403 540 452 553 Q 473 556 498 566 Q 511 572 512 585 Q 509 599 456 600 Q 450 600 437 595 Q 409 580 334 567 C 304 562 290 557 318 546 Z" fill="lightgray"></path> 
<path d="M 328 493 Q 311 493 311 488 Q 311 485 342 455 Q 379 421 403 421 Q 424 421 424 444 Q 424 455 416 465 Q 403 480 376 486 Q 354 492 328 493 Z" fill="lightgray"></path> 
<path d="M 607 696 Q 602 696 598 691 Q 596 686 596 681 Q 596 655 571 603 Q 538 534 495 479 Q 470 451 464 436 Q 468 432 475 432 Q 542 470 594 538 Q 599 545 606 555 L 625 580 Q 645 607 665 632 Q 680 644 680 652 Q 680 666 643 684 Q 618 696 607 696 Z" fill="lightgray"></path> 
<path d="M 606 555 Q 607 555 609 554 Q 635 545 655 545 Q 664 545 679 547 Q 701 549 771 556 Q 795 560 821 570 Q 835 577 836 589 Q 833 607 771 608 Q 765 608 749 603 Q 714 592 625 580 C 595 576 578 565 606 555 Z" fill="lightgray"></path> 
<path d="M 640 520 Q 620 520 620 516 Q 620 513 649 478 Q 683 440 708 440 Q 731 440 731 469 Q 731 479 724 490 Q 712 507 685 514 Q 665 519 640 520 Z" fill="lightgray"></path> 
<path d="M 267 369 Q 252 369 252 365 Q 252 362 288 322 Q 333 276 359 276 Q 376 276 376 293 Q 376 321 365 337 Q 349 354 324 362 Q 295 369 267 369 Z" fill="lightgray"></path> 
<path d="M 219 260 Q 212 259 212 249 Q 212 244 217 239 Q 240 215 240 133 Q 240 -25 219 -90 Q 212 -109 212 -116 Q 212 -132 217 -153 Q 228 -183 236 -183 Q 252 -183 264 -154 Q 278 -127 280 133 Q 280 180 288 202 Q 294 213 296 220 Q 296 233 258 249 Q 240 258 219 260 Z" fill="lightgray"></path> 
<path d="M 716 413 Q 708 413 683 403 Q 634 384 586 376 Q 532 366 447 365 Q 435 364 435 356 Q 435 348 453 338 Q 471 326 487 325 Q 500 325 582 340 Q 674 352 695 352 Q 712 352 716 343 Q 724 328 724 284 Q 724 -49 718 -70 Q 713 -87 703 -87 Q 691 -87 654 -73 Q 630 -63 620 -63 Q 611 -63 611 -72 Q 611 -76 616 -81 Q 675 -146 700 -182 Q 715 -200 724 -200 Q 746 -200 771 -140 Q 787 -100 787 -25 Q 779 132 779 284 Q 779 317 795 336 Q 804 347 804 352 Q 804 371 767 394 Q 734 413 716 413 Z" fill="lightgray"></path> 
<path d="M 372 237 Q 368 237 368 224 Q 368 221 373 211 Q 389 176 389 100 Q 389 86 385 55 Q 376 15 376 4 Q 376 -4 385 -20 Q 400 -40 408 -40 Q 419 -40 420 -4 L 421 23 L 423 99 L 424 118 L 427 193 Q 427 195 426 198 L 416 221 Q 412 227 401 229 Q 381 237 372 237 Z" fill="lightgray"></path> 
<path d="M 542 3 Q 558 -23 564 -38 Q 571 -51 575 -51 Q 589 -51 608 -14 Q 621 12 621 90 L 621 121 Q 621 171 633 198 Q 640 209 640 213 Q 640 224 605 243 Q 578 256 563 256 Q 559 256 552 252 Q 539 246 483 233 Q 440 224 416 221 C 386 217 396 199 426 198 Q 428 197 431 197 Q 436 197 447 198 Q 461 199 540 205 Q 571 205 571 148 L 571 134 L 571 106 Q 570 72 568 53 Q 566 38 560 32 C 547 5 540 6 542 3 Z" fill="lightgray"></path> 
<path d="M 423 99 L 424 99 Q 445 92 464 92 Q 477 92 567 104 Q 569 104 571 106 C 598 118 598 120 571 134 Q 564 139 544 140 Q 535 140 523 137 Q 465 124 424 118 C 394 114 394 106 423 99 Z" fill="lightgray"></path> 
<path d="M 420 -4 Q 426 -7 435 -7 Q 487 -2 542 3 C 572 6 586 17 560 32 Q 558 33 555 35 Q 542 41 523 41 Q 518 41 421 23 C 392 18 392 7 420 -4 Z" fill="lightgray"></path> 
<path d="M 1320 386 L 1336 410 L 1371 471 Q 1397 511 1402 524 Q 1408 536 1419 547 Q 1431 558 1431 569 Q 1431 579 1406 597 Q 1381 614 1366 619 Q 1352 623 1349 622 Q 1338 623 1338 614 Q 1336 611 1338 603 L 1338 580 Q 1339 568 1315 505 L 1285 439 Q 1250 368 1182 274 Q 1145 222 1139 216 Q 1091 168 1081 159 Q 1077 155 1077 149 Q 1075 137 1088 146 L 1107 156 Q 1166 189 1244 280 L 1294 342 L 1320 386 Z" fill="lightgray"></path> 
<path d="M 1332 -65 L 1348 267 Q 1348 283 1350 297 L 1356 330 Q 1356 341 1351 349 Q 1346 357 1334 370 Q 1322 383 1320 386 C 1300 409 1292 372 1294 342 L 1298 268 L 1288 94 Q 1287 54 1273 12 Q 1260 -30 1260 -42 Q 1260 -54 1266 -75 L 1279 -104 Q 1284 -117 1288 -124 Q 1292 -131 1302 -131 Q 1307 -133 1313 -123 Q 1319 -113 1325 -91 Q 1332 -70 1332 -65 Z" fill="lightgray"></path> 
<path d="M 1595 333 Q 1673 345 1724 354 Q 1852 376 1899 408 Q 1903 412 1895 432 Q 1887 452 1870 472 Q 1854 492 1841 497 Q 1829 501 1821 485 Q 1812 455 1721 409 Q 1684 390 1599 362 C 1571 353 1565 328 1595 333 Z" fill="lightgray"></path> 
<path d="M 1539 512 L 1539 430 L 1524 74 Q 1524 47 1537 4 Q 1571 -121 1748 -117 Q 1863 -115 1902 -100 Q 1919 -93 1941 -85 Q 1963 -78 1977 -66 Q 1992 -54 1991 -44 Q 1991 -35 1985 -16 Q 1968 15 1961 77 L 1951 141 Q 1951 146 1946 146 Q 1942 146 1940 141 L 1938 123 L 1926 64 Q 1913 12 1886 -10 Q 1859 -33 1834 -38 Q 1809 -44 1759 -44 Q 1709 -44 1667 -37 Q 1626 -30 1609 -8 Q 1592 13 1585 56 Q 1579 99 1579 122 L 1590 290 L 1595 333 L 1599 362 L 1610 458 Q 1612 470 1622 510 Q 1632 549 1632 554 Q 1635 568 1599 585 Q 1540 614 1527 596 L 1526 587 Q 1526 585 1531 564 Q 1537 542 1539 512 Z" fill="lightgray"></path> 
      <clipPath id="make-me-a-hanzi-clip-0">
      <path d="M 324 684 Q 319 684 317 681 Q 315 677 315 673 Q 315 644 287 588 Q 248 512 197 452 Q 167 421 160 404 Q 162 400 168 400 Q 241 442 298 517 Q 308 531 318 546 L 334 567 Q 356 596 376 621 Q 391 635 391 644 Q 391 656 357 673 Q 334 684 324 684 Z" fill="lightgray"></path>
      </clipPath>
      <path clip-path="url(#make-me-a-hanzi-clip-0)" d="M 324 675 L 346 639 L 332 613 L 257 497 L 166 407 " fill="none" id="make-me-a-hanzi-animation-0" stroke-dasharray="466 932" stroke-linecap="round"></path>

      <clipPath id="make-me-a-hanzi-clip-1">
      <path d="M 318 546 Q 322 544 329 542 Q 352 532 372 532 Q 377 532 387 536 Q 403 540 452 553 Q 473 556 498 566 Q 511 572 512 585 Q 509 599 456 600 Q 450 600 437 595 Q 409 580 334 567 C 304 562 290 557 318 546 Z" fill="lightgray"></path>
      </clipPath>
      <path clip-path="url(#make-me-a-hanzi-clip-1)" d="M 325 549 L 374 553 L 450 576 L 502 582 " fill="none" id="make-me-a-hanzi-animation-1" stroke-dasharray="309 618" stroke-linecap="round"></path>

      <clipPath id="make-me-a-hanzi-clip-2">
      <path d="M 328 493 Q 311 493 311 488 Q 311 485 342 455 Q 379 421 403 421 Q 424 421 424 444 Q 424 455 416 465 Q 403 480 376 486 Q 354 492 328 493 Z" fill="lightgray"></path>
      </clipPath>
      <path clip-path="url(#make-me-a-hanzi-clip-2)" d="M 315 487 L 378 459 L 405 440 " fill="none" id="make-me-a-hanzi-animation-2" stroke-dasharray="230 460" stroke-linecap="round"></path>

      <clipPath id="make-me-a-hanzi-clip-3">
      <path d="M 607 696 Q 602 696 598 691 Q 596 686 596 681 Q 596 655 571 603 Q 538 534 495 479 Q 470 451 464 436 Q 468 432 475 432 Q 542 470 594 538 Q 599 545 606 555 L 625 580 Q 645 607 665 632 Q 680 644 680 652 Q 680 666 643 684 Q 618 696 607 696 Z" fill="lightgray"></path>
      </clipPath>
      <path clip-path="url(#make-me-a-hanzi-clip-3)" d="M 608 684 L 624 661 L 627 645 L 605 603 L 541 508 L 471 438 " fill="none" id="make-me-a-hanzi-animation-3" stroke-dasharray="433 866" stroke-linecap="round"></path>

      <clipPath id="make-me-a-hanzi-clip-4">
      <path d="M 606 555 Q 607 555 609 554 Q 635 545 655 545 Q 664 545 679 547 Q 701 549 771 556 Q 795 560 821 570 Q 835 577 836 589 Q 833 607 771 608 Q 765 608 749 603 Q 714 592 625 580 C 595 576 578 565 606 555 Z" fill="lightgray"></path>
      </clipPath>
      <path clip-path="url(#make-me-a-hanzi-clip-4)" d="M 619 557 L 632 565 L 825 587 " fill="none" id="make-me-a-hanzi-animation-4" stroke-dasharray="338 676" stroke-linecap="round"></path>

      <clipPath id="make-me-a-hanzi-clip-5">
      <path d="M 640 520 Q 620 520 620 516 Q 620 513 649 478 Q 683 440 708 440 Q 731 440 731 469 Q 731 479 724 490 Q 712 507 685 514 Q 665 519 640 520 Z" fill="lightgray"></path>
      </clipPath>
      <path clip-path="url(#make-me-a-hanzi-clip-5)" d="M 624 515 L 684 485 L 710 460 " fill="none" id="make-me-a-hanzi-animation-5" stroke-dasharray="231 462" stroke-linecap="round"></path>

      <clipPath id="make-me-a-hanzi-clip-6">
      <path d="M 267 369 Q 252 369 252 365 Q 252 362 288 322 Q 333 276 359 276 Q 376 276 376 293 Q 376 321 365 337 Q 349 354 324 362 Q 295 369 267 369 Z" fill="lightgray"></path>
      </clipPath>
      <path clip-path="url(#make-me-a-hanzi-clip-6)" d="M 260 367 L 334 323 L 361 291 " fill="none" id="make-me-a-hanzi-animation-6" stroke-dasharray="256 512" stroke-linecap="round"></path>

      <clipPath id="make-me-a-hanzi-clip-7">
      <path d="M 219 260 Q 212 259 212 249 Q 212 244 217 239 Q 240 215 240 133 Q 240 -25 219 -90 Q 212 -109 212 -116 Q 212 -132 217 -153 Q 228 -183 236 -183 Q 252 -183 264 -154 Q 278 -127 280 133 Q 280 180 288 202 Q 294 213 296 220 Q 296 233 258 249 Q 240 258 219 260 Z" fill="lightgray"></path>
      </clipPath>
      <path clip-path="url(#make-me-a-hanzi-clip-7)" d="M 224 249 L 261 215 L 259 18 L 238 -173 " fill="none" id="make-me-a-hanzi-animation-7" stroke-dasharray="567 1134" stroke-linecap="round"></path>

      <clipPath id="make-me-a-hanzi-clip-8">
      <path d="M 716 413 Q 708 413 683 403 Q 634 384 586 376 Q 532 366 447 365 Q 435 364 435 356 Q 435 348 453 338 Q 471 326 487 325 Q 500 325 582 340 Q 674 352 695 352 Q 712 352 716 343 Q 724 328 724 284 Q 724 -49 718 -70 Q 713 -87 703 -87 Q 691 -87 654 -73 Q 630 -63 620 -63 Q 611 -63 611 -72 Q 611 -76 616 -81 Q 675 -146 700 -182 Q 715 -200 724 -200 Q 746 -200 771 -140 Q 787 -100 787 -25 Q 779 132 779 284 Q 779 317 795 336 Q 804 347 804 352 Q 804 371 767 394 Q 734 413 716 413 Z" fill="lightgray"></path>
      </clipPath>
      <path clip-path="url(#make-me-a-hanzi-clip-8)" d="M 445 356 L 467 348 L 503 346 L 717 381 L 743 367 L 756 352 L 750 270 L 755 -19 L 751 -80 L 738 -113 L 720 -131 L 621 -73 " fill="none" id="make-me-a-hanzi-animation-8" stroke-dasharray="1062 2124" stroke-linecap="round"></path>

      <clipPath id="make-me-a-hanzi-clip-9">
      <path d="M 372 237 Q 368 237 368 224 Q 368 221 373 211 Q 389 176 389 100 Q 389 86 385 55 Q 376 15 376 4 Q 376 -4 385 -20 Q 400 -40 408 -40 Q 419 -40 420 -4 L 421 23 L 423 99 L 424 118 L 427 193 Q 427 195 426 198 L 416 221 Q 412 227 401 229 Q 381 237 372 237 Z" fill="lightgray"></path>
      </clipPath>
      <path clip-path="url(#make-me-a-hanzi-clip-9)" d="M 377 228 L 399 203 L 405 186 L 406 77 L 399 -5 L 407 -31 " fill="none" id="make-me-a-hanzi-animation-9" stroke-dasharray="398 796" stroke-linecap="round"></path>

      <clipPath id="make-me-a-hanzi-clip-10">
      <path d="M 542 3 Q 558 -23 564 -38 Q 571 -51 575 -51 Q 589 -51 608 -14 Q 621 12 621 90 L 621 121 Q 621 171 633 198 Q 640 209 640 213 Q 640 224 605 243 Q 578 256 563 256 Q 559 256 552 252 Q 539 246 483 233 Q 440 224 416 221 C 386 217 396 199 426 198 Q 428 197 431 197 Q 436 197 447 198 Q 461 199 540 205 Q 571 205 571 148 L 571 134 L 571 106 Q 570 72 568 53 Q 566 38 560 32 C 547 5 540 6 542 3 Z" fill="lightgray"></path>
      </clipPath>
      <path clip-path="url(#make-me-a-hanzi-clip-10)" d="M 422 217 L 441 211 L 566 227 L 597 205 L 595 60 L 580 2 L 577 -43 " fill="none" id="make-me-a-hanzi-animation-10" stroke-dasharray="562 1124" stroke-linecap="round"></path>

      <clipPath id="make-me-a-hanzi-clip-11">
      <path d="M 423 99 L 424 99 Q 445 92 464 92 Q 477 92 567 104 Q 569 104 571 106 C 598 118 598 120 571 134 Q 564 139 544 140 Q 535 140 523 137 Q 465 124 424 118 C 394 114 394 106 423 99 Z" fill="lightgray"></path>
      </clipPath>
      <path clip-path="url(#make-me-a-hanzi-clip-11)" d="M 424 104 L 541 120 L 565 113 " fill="none" id="make-me-a-hanzi-animation-11" stroke-dasharray="271 542" stroke-linecap="round"></path>

      <clipPath id="make-me-a-hanzi-clip-12">
      <path d="M 420 -4 Q 426 -7 435 -7 Q 487 -2 542 3 C 572 6 586 17 560 32 Q 558 33 555 35 Q 542 41 523 41 Q 518 41 421 23 C 392 18 392 7 420 -4 Z" fill="lightgray"></path>
      </clipPath>
      <path clip-path="url(#make-me-a-hanzi-clip-12)" d="M 429 2 L 439 11 L 555 29 " fill="none" id="make-me-a-hanzi-animation-12" stroke-dasharray="259 518" stroke-linecap="round"></path>

      <clipPath id="make-me-a-hanzi-clip-13">
      <path d="M 1320 386 L 1336 410 L 1371 471 Q 1397 511 1402 524 Q 1408 536 1419 547 Q 1431 558 1431 569 Q 1431 579 1406 597 Q 1381 614 1366 619 Q 1352 623 1349 622 Q 1338 623 1338 614 Q 1336 611 1338 603 L 1338 580 Q 1339 568 1315 505 L 1285 439 Q 1250 368 1182 274 Q 1145 222 1139 216 Q 1091 168 1081 159 Q 1077 155 1077 149 Q 1075 137 1088 146 L 1107 156 Q 1166 189 1244 280 L 1294 342 L 1320 386 Z" fill="lightgray"></path>
      </clipPath>
      <path clip-path="url(#make-me-a-hanzi-clip-13)" d="M 1350 609 L 1379 565 L 1301 407 L 1268 352 L 1187 245 L 1135 191 L 1084 152 " fill="none" id="make-me-a-hanzi-animation-13" stroke-dasharray="694 1388" stroke-linecap="round"></path>

      <clipPath id="make-me-a-hanzi-clip-14">
      <path d="M 1332 -65 L 1348 267 Q 1348 283 1350 297 L 1356 330 Q 1356 341 1351 349 Q 1346 357 1334 370 Q 1322 383 1320 386 C 1300 409 1292 372 1294 342 L 1298 268 L 1288 94 Q 1287 54 1273 12 Q 1260 -30 1260 -42 Q 1260 -54 1266 -75 L 1279 -104 Q 1284 -117 1288 -124 Q 1292 -131 1302 -131 Q 1307 -133 1313 -123 Q 1319 -113 1325 -91 Q 1332 -70 1332 -65 Z" fill="lightgray"></path>
      </clipPath>
      <path clip-path="url(#make-me-a-hanzi-clip-14)" d="M 1318 380 L 1325 330 L 1313 71 L 1297 -36 L 1300 -117 " fill="none" id="make-me-a-hanzi-animation-14" stroke-dasharray="627 1254" stroke-linecap="round"></path>

      <clipPath id="make-me-a-hanzi-clip-15">
      <path d="M 1595 333 Q 1673 345 1724 354 Q 1852 376 1899 408 Q 1903 412 1895 432 Q 1887 452 1870 472 Q 1854 492 1841 497 Q 1829 501 1821 485 Q 1812 455 1721 409 Q 1684 390 1599 362 C 1571 353 1565 328 1595 333 Z" fill="lightgray"></path>
      </clipPath>
      <path clip-path="url(#make-me-a-hanzi-clip-15)" d="M 1890 413 L 1840 432 L 1813 415 L 1729 382 L 1613 352 L 1603 339 " fill="none" id="make-me-a-hanzi-animation-15" stroke-dasharray="440 880" stroke-linecap="round"></path>

      <clipPath id="make-me-a-hanzi-clip-16">
      <path d="M 1539 512 L 1539 430 L 1524 74 Q 1524 47 1537 4 Q 1571 -121 1748 -117 Q 1863 -115 1902 -100 Q 1919 -93 1941 -85 Q 1963 -78 1977 -66 Q 1992 -54 1991 -44 Q 1991 -35 1985 -16 Q 1968 15 1961 77 L 1951 141 Q 1951 146 1946 146 Q 1942 146 1940 141 L 1938 123 L 1926 64 Q 1913 12 1886 -10 Q 1859 -33 1834 -38 Q 1809 -44 1759 -44 Q 1709 -44 1667 -37 Q 1626 -30 1609 -8 Q 1592 13 1585 56 Q 1579 99 1579 122 L 1590 290 L 1595 333 L 1599 362 L 1610 458 Q 1612 470 1622 510 Q 1632 549 1632 554 Q 1635 568 1599 585 Q 1540 614 1527 596 L 1526 587 Q 1526 585 1531 564 Q 1537 542 1539 512 Z" fill="lightgray"></path>
      </clipPath>
      <path clip-path="url(#make-me-a-hanzi-clip-16)" d="M 1537 590 L 1574 553 L 1583 532 L 1564 328 L 1552 96 L 1562 20 L 1592 -36 L 1608 -51 L 1641 -67 L 1700 -79 L 1799 -80 L 1847 -74 L 1892 -58 L 1936 -32 L 1946 141 " fill="none" id="make-me-a-hanzi-animation-16" stroke-dasharray="1319 2638" stroke-linecap="round"></path>

</g>
</svg>
