<svg version="1.1" viewBox="0 0 2048 1024" xmlns="http://www.w3.org/2000/svg">
  <g stroke="lightgray" stroke-dasharray="1,1" stroke-width="1" transform="scale(4, 4)">
    <line x1="0" y1="0" x2="256" y2="256"></line>
    <line x1="256" y1="0" x2="0" y2="256"></line>
    <line x1="128" y1="0" x2="128" y2="256"></line>
    <line x1="0" y1="128" x2="256" y2="128"></line>
    <line x1="256" y1="0" x2="512" y2="256"></line>
    <line x1="512" y1="0" x2="256" y2="256"></line>
    <line x1="384" y1="0" x2="384" y2="256"></line>
    <line x1="256" y1="128" x2="512" y2="128"></line>
  </g>
<g transform="scale(1, -1) translate(0, -850)">
   <style type="text/css">
    @keyframes keyframes0 {
      from {
       stroke: black;
       stroke-dashoffset: 631;
       stroke-width: 128;
       }
       67% {
       animation-timing-function: step-end;
       stroke: black;
       stroke-dashoffset: 0;
       stroke-width: 128;
       }
       to {
       stroke: black;
       stroke-width: 1024;
       }
       }
       #make-me-a-hanzi-animation-0 {
         animation: keyframes0 0.763509s both;
         animation-delay: 0.000000s;
         animation-timing-function: linear;
       }
    @keyframes keyframes1 {
      from {
       stroke: black;
       stroke-dashoffset: 492;
       stroke-width: 128;
       }
       62% {
       animation-timing-function: step-end;
       stroke: black;
       stroke-dashoffset: 0;
       stroke-width: 128;
       }
       to {
       stroke: black;
       stroke-width: 1024;
       }
       }
       #make-me-a-hanzi-animation-1 {
         animation: keyframes1 0.650391s both;
         animation-delay: 0.763509s;
         animation-timing-function: linear;
       }
    @keyframes keyframes2 {
      from {
       stroke: black;
       stroke-dashoffset: 826;
       stroke-width: 128;
       }
       73% {
       animation-timing-function: step-end;
       stroke: black;
       stroke-dashoffset: 0;
       stroke-width: 128;
       }
       to {
       stroke: black;
       stroke-width: 1024;
       }
       }
       #make-me-a-hanzi-animation-2 {
         animation: keyframes2 0.922201s both;
         animation-delay: 1.413900s;
         animation-timing-function: linear;
       }
    @keyframes keyframes3 {
      from {
       stroke: black;
       stroke-dashoffset: 751;
       stroke-width: 128;
       }
       71% {
       animation-timing-function: step-end;
       stroke: black;
       stroke-dashoffset: 0;
       stroke-width: 128;
       }
       to {
       stroke: black;
       stroke-width: 1024;
       }
       }
       #make-me-a-hanzi-animation-3 {
         animation: keyframes3 0.861165s both;
         animation-delay: 2.336100s;
         animation-timing-function: linear;
       }
    @keyframes keyframes4 {
      from {
       stroke: black;
       stroke-dashoffset: 626;
       stroke-width: 128;
       }
       67% {
       animation-timing-function: step-end;
       stroke: black;
       stroke-dashoffset: 0;
       stroke-width: 128;
       }
       to {
       stroke: black;
       stroke-width: 1024;
       }
       }
       #make-me-a-hanzi-animation-4 {
         animation: keyframes4 0.759440s both;
         animation-delay: 3.197266s;
         animation-timing-function: linear;
       }
    @keyframes keyframes5 {
      from {
       stroke: black;
       stroke-dashoffset: 876;
       stroke-width: 128;
       }
       74% {
       animation-timing-function: step-end;
       stroke: black;
       stroke-dashoffset: 0;
       stroke-width: 128;
       }
       to {
       stroke: black;
       stroke-width: 1024;
       }
       }
       #make-me-a-hanzi-animation-5 {
         animation: keyframes5 0.962891s both;
         animation-delay: 3.956706s;
         animation-timing-function: linear;
       }
    @keyframes keyframes6 {
      from {
       stroke: black;
       stroke-dashoffset: 444;
       stroke-width: 128;
       }
       59% {
       animation-timing-function: step-end;
       stroke: black;
       stroke-dashoffset: 0;
       stroke-width: 128;
       }
       to {
       stroke: black;
       stroke-width: 1024;
       }
       }
       #make-me-a-hanzi-animation-6 {
         animation: keyframes6 0.611328s both;
         animation-delay: 4.919596s;
         animation-timing-function: linear;
       }
    @keyframes keyframes7 {
      from {
       stroke: black;
       stroke-dashoffset: 606;
       stroke-width: 128;
       }
       66% {
       animation-timing-function: step-end;
       stroke: black;
       stroke-dashoffset: 0;
       stroke-width: 128;
       }
       to {
       stroke: black;
       stroke-width: 1024;
       }
       }
       #make-me-a-hanzi-animation-7 {
         animation: keyframes7 0.743164s both;
         animation-delay: 5.530924s;
         animation-timing-function: linear;
       }
    @keyframes keyframes8 {
      from {
       stroke: black;
       stroke-dashoffset: 420;
       stroke-width: 128;
       }
       58% {
       animation-timing-function: step-end;
       stroke: black;
       stroke-dashoffset: 0;
       stroke-width: 128;
       }
       to {
       stroke: black;
       stroke-width: 1024;
       }
       }
       #make-me-a-hanzi-animation-8 {
         animation: keyframes8 0.591797s both;
         animation-delay: 6.274089s;
         animation-timing-function: linear;
       }
    @keyframes keyframes9 {
      from {
       stroke: black;
       stroke-dashoffset: 424;
       stroke-width: 128;
       }
       58% {
       animation-timing-function: step-end;
       stroke: black;
       stroke-dashoffset: 0;
       stroke-width: 128;
       }
       to {
       stroke: black;
       stroke-width: 1024;
       }
       }
       #make-me-a-hanzi-animation-9 {
         animation: keyframes9 0.595052s both;
         animation-delay: 6.865885s;
         animation-timing-function: linear;
       }
    @keyframes keyframes10 {
      from {
       stroke: black;
       stroke-dashoffset: 424;
       stroke-width: 128;
       }
       58% {
       animation-timing-function: step-end;
       stroke: black;
       stroke-dashoffset: 0;
       stroke-width: 128;
       }
       to {
       stroke: black;
       stroke-width: 1024;
       }
       }
       #make-me-a-hanzi-animation-10 {
         animation: keyframes10 0.595052s both;
         animation-delay: 7.460938s;
         animation-timing-function: linear;
       }
    @keyframes keyframes11 {
      from {
       stroke: black;
       stroke-dashoffset: 636;
       stroke-width: 128;
       }
       67% {
       animation-timing-function: step-end;
       stroke: black;
       stroke-dashoffset: 0;
       stroke-width: 128;
       }
       to {
       stroke: black;
       stroke-width: 1024;
       }
       }
       #make-me-a-hanzi-animation-11 {
         animation: keyframes11 0.767578s both;
         animation-delay: 8.055990s;
         animation-timing-function: linear;
       }
    @keyframes keyframes12 {
      from {
       stroke: black;
       stroke-dashoffset: 598;
       stroke-width: 128;
       }
       66% {
       animation-timing-function: step-end;
       stroke: black;
       stroke-dashoffset: 0;
       stroke-width: 128;
       }
       to {
       stroke: black;
       stroke-width: 1024;
       }
       }
       #make-me-a-hanzi-animation-12 {
         animation: keyframes12 0.736654s both;
         animation-delay: 8.823568s;
         animation-timing-function: linear;
       }
    @keyframes keyframes13 {
      from {
       stroke: black;
       stroke-dashoffset: 565;
       stroke-width: 128;
       }
       65% {
       animation-timing-function: step-end;
       stroke: black;
       stroke-dashoffset: 0;
       stroke-width: 128;
       }
       to {
       stroke: black;
       stroke-width: 1024;
       }
       }
       #make-me-a-hanzi-animation-13 {
         animation: keyframes13 0.709798s both;
         animation-delay: 9.560221s;
         animation-timing-function: linear;
       }
    @keyframes keyframes14 {
      from {
       stroke: black;
       stroke-dashoffset: 758;
       stroke-width: 128;
       }
       71% {
       animation-timing-function: step-end;
       stroke: black;
       stroke-dashoffset: 0;
       stroke-width: 128;
       }
       to {
       stroke: black;
       stroke-width: 1024;
       }
       }
       #make-me-a-hanzi-animation-14 {
         animation: keyframes14 0.866862s both;
         animation-delay: 10.270020s;
         animation-timing-function: linear;
       }
    @keyframes keyframes15 {
      from {
       stroke: black;
       stroke-dashoffset: 1005;
       stroke-width: 128;
       }
       77% {
       animation-timing-function: step-end;
       stroke: black;
       stroke-dashoffset: 0;
       stroke-width: 128;
       }
       to {
       stroke: black;
       stroke-width: 1024;
       }
       }
       #make-me-a-hanzi-animation-15 {
         animation: keyframes15 1.067871s both;
         animation-delay: 11.136882s;
         animation-timing-function: linear;
       }
    @keyframes keyframes16 {
      from {
       stroke: black;
       stroke-dashoffset: 649;
       stroke-width: 128;
       }
       68% {
       animation-timing-function: step-end;
       stroke: black;
       stroke-dashoffset: 0;
       stroke-width: 128;
       }
       to {
       stroke: black;
       stroke-width: 1024;
       }
       }
       #make-me-a-hanzi-animation-16 {
         animation: keyframes16 0.778158s both;
         animation-delay: 12.204753s;
         animation-timing-function: linear;
       }
    @keyframes keyframes17 {
      from {
       stroke: black;
       stroke-dashoffset: 490;
       stroke-width: 128;
       }
       61% {
       animation-timing-function: step-end;
       stroke: black;
       stroke-dashoffset: 0;
       stroke-width: 128;
       }
       to {
       stroke: black;
       stroke-width: 1024;
       }
       }
       #make-me-a-hanzi-animation-17 {
         animation: keyframes17 0.648763s both;
         animation-delay: 12.982910s;
         animation-timing-function: linear;
       }
    @keyframes keyframes18 {
      from {
       stroke: black;
       stroke-dashoffset: 690;
       stroke-width: 128;
       }
       69% {
       animation-timing-function: step-end;
       stroke: black;
       stroke-dashoffset: 0;
       stroke-width: 128;
       }
       to {
       stroke: black;
       stroke-width: 1024;
       }
       }
       #make-me-a-hanzi-animation-18 {
         animation: keyframes18 0.811523s both;
         animation-delay: 13.631673s;
         animation-timing-function: linear;
       }
    @keyframes keyframes19 {
      from {
       stroke: black;
       stroke-dashoffset: 642;
       stroke-width: 128;
       }
       68% {
       animation-timing-function: step-end;
       stroke: black;
       stroke-dashoffset: 0;
       stroke-width: 128;
       }
       to {
       stroke: black;
       stroke-width: 1024;
       }
       }
       #make-me-a-hanzi-animation-19 {
         animation: keyframes19 0.772461s both;
         animation-delay: 14.443197s;
         animation-timing-function: linear;
       }
    @keyframes keyframes20 {
      from {
       stroke: black;
       stroke-dashoffset: 459;
       stroke-width: 128;
       }
       60% {
       animation-timing-function: step-end;
       stroke: black;
       stroke-dashoffset: 0;
       stroke-width: 128;
       }
       to {
       stroke: black;
       stroke-width: 1024;
       }
       }
       #make-me-a-hanzi-animation-20 {
         animation: keyframes20 0.623535s both;
         animation-delay: 15.215658s;
         animation-timing-function: linear;
       }
</style>
<path d="M 351 673 Q 340 672 340 660 Q 340 657 352 632 Q 364 605 364 572 L 364 463 Q 364 418 354 378 Q 343 360 343 352 Q 343 339 354 316 Q 369 289 376 289 Q 392 289 399 308 Q 402 332 403 364 L 403 549 Q 403 585 412 637 Q 412 650 383 662 Q 362 673 351 673 Z" fill="lightgray"></path> 
<path d="M 223 581 Q 212 581 212 572 Q 212 570 219 555 Q 236 524 236 488 Q 234 439 232 421 Q 219 398 219 392 Q 219 383 227 362 Q 242 337 256 337 Q 266 337 271 351 Q 280 369 280 413 L 280 541 Q 280 561 265 570 Q 249 580 223 581 Z" fill="lightgray"></path> 
<path d="M 511 347 Q 537 352 568 364 Q 604 378 633 400 L 673 442 Q 693 472 711 522 Q 725 569 744 594 Q 756 606 756 612 Q 756 620 725 637 Q 693 652 687 652 Q 677 651 662 644 Q 584 615 479 600 Q 468 598 468 593 Q 469 583 488 575 Q 489 574 493 573 L 528 569 Q 549 574 655 604 Q 668 604 668 597 Q 668 580 653 535 Q 644 502 631 476 L 604 435 Q 600 430 594 424 Q 562 393 504 371 C 476 360 482 340 511 347 Z" fill="lightgray"></path> 
<path d="M 633 400 Q 691 329 718 308 Q 734 297 743 297 Q 777 297 840 307 Q 911 318 911 329 Q 911 334 871 343 Q 797 361 744 393 Q 712 412 673 442 L 631 476 Q 594 507 551 548 Q 539 560 528 569 C 505 589 471 593 493 573 L 494 572 Q 503 568 552 503 Q 580 467 604 435 L 633 400 Z" fill="lightgray"></path> 
<path d="M 456 404 Q 452 404 452 396 Q 452 368 433 330 Q 417 292 386 259 Q 364 231 324 216 Q 309 209 307 193 Q 312 154 336 153 Q 341 153 355 161 Q 393 183 426 189 Q 447 195 478 199 C 508 203 543 231 513 229 Q 455 225 398 219 Q 427 251 442 270 Q 467 301 501 336 Q 508 342 511 347 C 518 355 518 355 504 371 Q 500 377 490 385 Q 468 404 456 404 Z" fill="lightgray"></path> 
<path d="M 478 199 Q 439 165 389 128 Q 344 96 292 85 Q 276 77 275 56 Q 275 46 284 37 Q 295 20 307 20 Q 325 20 355 31 Q 395 44 465 60 L 515 72 Q 574 84 650 97 C 680 102 666 120 636 117 Q 569 110 401 93 Q 574 225 617 253 Q 633 261 636 268 Q 634 284 612 304 Q 588 328 575 329 Q 563 328 563 312 Q 563 279 529 246 Q 521 238 513 229 L 478 199 Z" fill="lightgray"></path> 
<path d="M 650 97 L 662 81 Q 696 33 724 33 Q 739 33 739 65 Q 739 90 716 116 Q 693 146 647 167 Q 610 184 592 184 Q 588 184 588 180 Q 588 178 608 153 Q 623 134 636 117 L 650 97 Z" fill="lightgray"></path> 
<path d="M 465 60 Q 492 24 492 -3 L 492 -91 Q 492 -120 471 -120 Q 467 -120 435 -108 Q 410 -99 399 -99 Q 396 -100 395 -108 Q 424 -136 467 -189 Q 487 -215 496 -215 Q 513 -215 530 -181 Q 548 -143 548 -116 Q 548 -109 545 -84 Q 544 -40 544 4 L 544 28 Q 548 35 548 41 Q 548 51 520 69 Q 518 70 515 72 C 490 88 448 84 465 60 Z" fill="lightgray"></path> 
<path d="M 332 0 Q 326 0 318 -20 Q 310 -40 271 -78 Q 236 -111 236 -131 Q 236 -160 252 -160 Q 288 -160 324 -114 Q 347 -83 347 -59 Q 347 -43 344 -24 Q 341 0 332 0 Z" fill="lightgray"></path> 
<path d="M 636 4 Q 632 4 632 0 Q 632 -1 650 -26 Q 681 -66 697 -94 Q 727 -139 752 -139 Q 775 -139 775 -103 Q 775 -80 754 -57 Q 732 -31 688 -11 Q 653 4 636 4 Z" fill="lightgray"></path> 
<path d="M 1235 636 Q 1266 605 1301 568 Q 1316 552 1333 552 Q 1346 552 1352 567 Q 1359 583 1351 618 Q 1342 654 1233 691 Q 1215 695 1208 693 Q 1202 689 1203 674 Q 1206 661 1235 636 Z" fill="lightgray"></path> 
<path d="M 1157 144 Q 1144 140 1147 122 Q 1159 47 1196 25 Q 1203 18 1214 21 Q 1223 22 1223 49 Q 1232 103 1333 357 Q 1340 373 1339 380 Q 1338 390 1329 383 Q 1319 376 1306 359 Q 1249 268 1198 187 Q 1185 165 1157 144 Z" fill="lightgray"></path> 
<path d="M 1631 597 Q 1787 628 1794 635 Q 1803 642 1799 650 Q 1792 662 1764 670 Q 1740 674 1639 644 L 1582 631 Q 1524 621 1458 614 Q 1422 608 1447 592 Q 1481 571 1556 583 Q 1563 584 1575 586 L 1631 597 Z" fill="lightgray"></path> 
<path d="M 1562 519 Q 1516 512 1468 506 Q 1437 502 1459 486 Q 1498 465 1544 478 Q 1545 478 1550 478 L 1607 490 Q 1763 523 1771 530 Q 1778 537 1775 544 Q 1768 554 1743 560 Q 1718 566 1692 555 Q 1655 543 1618 532 L 1562 519 Z" fill="lightgray"></path> 
<path d="M 1531 421 Q 1461 412 1383 399 Q 1364 396 1378 381 Q 1391 368 1409 364 Q 1428 360 1443 364 Q 1477 374 1515 381 L 1571 391 Q 1596 400 1673 405 L 1704 407 Q 1756 411 1824 412 Q 1878 412 1884 421 Q 1888 433 1873 445 Q 1825 479 1789 471 Q 1722 455 1607 434 Q 1597 433 1588 430 L 1531 421 Z" fill="lightgray"></path> 
<path d="M 1639 644 Q 1646 678 1663 713 Q 1669 723 1661 732 Q 1645 750 1611 768 Q 1592 780 1574 776 Q 1555 770 1568 752 Q 1593 721 1589 690 Q 1586 660 1582 631 L 1575 586 Q 1569 552 1562 519 L 1550 478 Q 1541 450 1531 421 L 1515 381 Q 1451 264 1363 195 Q 1342 180 1317 162 Q 1304 156 1302 152 Q 1298 145 1313 145 Q 1323 144 1369 166 Q 1402 179 1453 222 Q 1472 238 1489 256 L 1494 262 Q 1542 326 1571 391 L 1588 430 Q 1598 460 1607 490 L 1618 532 Q 1624 562 1631 597 L 1639 644 Z" fill="lightgray"></path> 
<path d="M 1673 405 Q 1688 375 1809 240 Q 1854 195 2008 224 Q 2027 225 2028 231 Q 2029 238 2016 243 Q 1853 297 1777 349 Q 1758 364 1739 378 Q 1717 396 1704 407 C 1681 426 1658 431 1673 405 Z" fill="lightgray"></path> 
<path d="M 1489 256 Q 1492 244 1531 234 Q 1544 233 1560 233 L 1602 240 Q 1728 267 1731 270 Q 1738 277 1735 284 Q 1728 294 1703 300 Q 1678 306 1652 295 Q 1621 285 1588 277 Q 1551 270 1507 266 Q 1497 265 1494 262 C 1487 259 1487 259 1489 256 Z" fill="lightgray"></path> 
<path d="M 1552 139 Q 1482 127 1402 113 Q 1384 112 1398 97 Q 1411 85 1426 82 Q 1444 78 1458 82 Q 1495 94 1539 102 L 1597 111 Q 1669 124 1783 127 Q 1829 127 1836 136 Q 1840 146 1826 158 Q 1771 194 1726 175 Q 1678 165 1612 150 L 1552 139 Z" fill="lightgray"></path> 
<path d="M 1560 233 Q 1567 211 1552 139 L 1539 102 Q 1506 17 1386 -45 Q 1373 -51 1384 -55 Q 1462 -61 1541 16 Q 1541 22 1563 45 Q 1584 75 1597 111 L 1612 150 Q 1613 153 1614 154 Q 1620 175 1633 192 Q 1643 207 1630 216 Q 1618 231 1602 240 C 1577 256 1555 263 1560 233 Z" fill="lightgray"></path> 
<path d="M 1661 60 Q 1710 14 1770 -52 Q 1786 -71 1801 -76 Q 1810 -77 1817 -67 Q 1829 -54 1817 -11 Q 1808 25 1746 56 Q 1716 71 1662 90 Q 1653 96 1651 83 Q 1650 70 1661 60 Z" fill="lightgray"></path> 
      <clipPath id="make-me-a-hanzi-clip-0">
      <path d="M 351 673 Q 340 672 340 660 Q 340 657 352 632 Q 364 605 364 572 L 364 463 Q 364 418 354 378 Q 343 360 343 352 Q 343 339 354 316 Q 369 289 376 289 Q 392 289 399 308 Q 402 332 403 364 L 403 549 Q 403 585 412 637 Q 412 650 383 662 Q 362 673 351 673 Z" fill="lightgray"></path>
      </clipPath>
      <path clip-path="url(#make-me-a-hanzi-clip-0)" d="M 351 662 L 383 631 L 384 433 L 373 350 L 379 302 " fill="none" id="make-me-a-hanzi-animation-0" stroke-dasharray="503 1006" stroke-linecap="round"></path>

      <clipPath id="make-me-a-hanzi-clip-1">
      <path d="M 223 581 Q 212 581 212 572 Q 212 570 219 555 Q 236 524 236 488 Q 234 439 232 421 Q 219 398 219 392 Q 219 383 227 362 Q 242 337 256 337 Q 266 337 271 351 Q 280 369 280 413 L 280 541 Q 280 561 265 570 Q 249 580 223 581 Z" fill="lightgray"></path>
      </clipPath>
      <path clip-path="url(#make-me-a-hanzi-clip-1)" d="M 221 572 L 249 551 L 255 534 L 257 420 L 250 380 L 255 352 " fill="none" id="make-me-a-hanzi-animation-1" stroke-dasharray="364 728" stroke-linecap="round"></path>

      <clipPath id="make-me-a-hanzi-clip-2">
      <path d="M 511 347 Q 537 352 568 364 Q 604 378 633 400 L 673 442 Q 693 472 711 522 Q 725 569 744 594 Q 756 606 756 612 Q 756 620 725 637 Q 693 652 687 652 Q 677 651 662 644 Q 584 615 479 600 Q 468 598 468 593 Q 469 583 488 575 Q 489 574 493 573 L 528 569 Q 549 574 655 604 Q 668 604 668 597 Q 668 580 653 535 Q 644 502 631 476 L 604 435 Q 600 430 594 424 Q 562 393 504 371 C 476 360 482 340 511 347 Z" fill="lightgray"></path>
      </clipPath>
      <path clip-path="url(#make-me-a-hanzi-clip-2)" d="M 477 592 L 501 587 L 533 590 L 662 623 L 689 620 L 705 605 L 676 509 L 654 461 L 603 404 L 555 375 L 521 363 L 516 355 " fill="none" id="make-me-a-hanzi-animation-2" stroke-dasharray="698 1396" stroke-linecap="round"></path>

      <clipPath id="make-me-a-hanzi-clip-3">
      <path d="M 633 400 Q 691 329 718 308 Q 734 297 743 297 Q 777 297 840 307 Q 911 318 911 329 Q 911 334 871 343 Q 797 361 744 393 Q 712 412 673 442 L 631 476 Q 594 507 551 548 Q 539 560 528 569 C 505 589 471 593 493 573 L 494 572 Q 503 568 552 503 Q 580 467 604 435 L 633 400 Z" fill="lightgray"></path>
      </clipPath>
      <path clip-path="url(#make-me-a-hanzi-clip-3)" d="M 503 567 L 521 560 L 663 410 L 742 344 L 850 326 L 907 329 " fill="none" id="make-me-a-hanzi-animation-3" stroke-dasharray="623 1246" stroke-linecap="round"></path>

      <clipPath id="make-me-a-hanzi-clip-4">
      <path d="M 456 404 Q 452 404 452 396 Q 452 368 433 330 Q 417 292 386 259 Q 364 231 324 216 Q 309 209 307 193 Q 312 154 336 153 Q 341 153 355 161 Q 393 183 426 189 Q 447 195 478 199 C 508 203 543 231 513 229 Q 455 225 398 219 Q 427 251 442 270 Q 467 301 501 336 Q 508 342 511 347 C 518 355 518 355 504 371 Q 500 377 490 385 Q 468 404 456 404 Z" fill="lightgray"></path>
      </clipPath>
      <path clip-path="url(#make-me-a-hanzi-clip-4)" d="M 459 397 L 471 374 L 474 350 L 432 287 L 383 230 L 370 204 L 401 200 L 469 211 L 506 225 " fill="none" id="make-me-a-hanzi-animation-4" stroke-dasharray="498 996" stroke-linecap="round"></path>

      <clipPath id="make-me-a-hanzi-clip-5">
      <path d="M 478 199 Q 439 165 389 128 Q 344 96 292 85 Q 276 77 275 56 Q 275 46 284 37 Q 295 20 307 20 Q 325 20 355 31 Q 395 44 465 60 L 515 72 Q 574 84 650 97 C 680 102 666 120 636 117 Q 569 110 401 93 Q 574 225 617 253 Q 633 261 636 268 Q 634 284 612 304 Q 588 328 575 329 Q 563 328 563 312 Q 563 279 529 246 Q 521 238 513 229 L 478 199 Z" fill="lightgray"></path>
      </clipPath>
      <path clip-path="url(#make-me-a-hanzi-clip-5)" d="M 576 316 L 588 292 L 584 268 L 503 193 L 392 109 L 380 98 L 370 74 L 404 69 L 632 106 L 641 98 " fill="none" id="make-me-a-hanzi-animation-5" stroke-dasharray="748 1496" stroke-linecap="round"></path>

      <clipPath id="make-me-a-hanzi-clip-6">
      <path d="M 650 97 L 662 81 Q 696 33 724 33 Q 739 33 739 65 Q 739 90 716 116 Q 693 146 647 167 Q 610 184 592 184 Q 588 184 588 180 Q 588 178 608 153 Q 623 134 636 117 L 650 97 Z" fill="lightgray"></path>
      </clipPath>
      <path clip-path="url(#make-me-a-hanzi-clip-6)" d="M 592 180 L 666 125 L 723 48 " fill="none" id="make-me-a-hanzi-animation-6" stroke-dasharray="316 632" stroke-linecap="round"></path>

      <clipPath id="make-me-a-hanzi-clip-7">
      <path d="M 465 60 Q 492 24 492 -3 L 492 -91 Q 492 -120 471 -120 Q 467 -120 435 -108 Q 410 -99 399 -99 Q 396 -100 395 -108 Q 424 -136 467 -189 Q 487 -215 496 -215 Q 513 -215 530 -181 Q 548 -143 548 -116 Q 548 -109 545 -84 Q 544 -40 544 4 L 544 28 Q 548 35 548 41 Q 548 51 520 69 Q 518 70 515 72 C 490 88 448 84 465 60 Z" fill="lightgray"></path>
      </clipPath>
      <path clip-path="url(#make-me-a-hanzi-clip-7)" d="M 473 55 L 487 53 L 514 36 L 519 -107 L 511 -137 L 492 -157 L 403 -106 " fill="none" id="make-me-a-hanzi-animation-7" stroke-dasharray="478 956" stroke-linecap="round"></path>

      <clipPath id="make-me-a-hanzi-clip-8">
      <path d="M 332 0 Q 326 0 318 -20 Q 310 -40 271 -78 Q 236 -111 236 -131 Q 236 -160 252 -160 Q 288 -160 324 -114 Q 347 -83 347 -59 Q 347 -43 344 -24 Q 341 0 332 0 Z" fill="lightgray"></path>
      </clipPath>
      <path clip-path="url(#make-me-a-hanzi-clip-8)" d="M 332 -7 L 318 -70 L 252 -145 " fill="none" id="make-me-a-hanzi-animation-8" stroke-dasharray="292 584" stroke-linecap="round"></path>

      <clipPath id="make-me-a-hanzi-clip-9">
      <path d="M 636 4 Q 632 4 632 0 Q 632 -1 650 -26 Q 681 -66 697 -94 Q 727 -139 752 -139 Q 775 -139 775 -103 Q 775 -80 754 -57 Q 732 -31 688 -11 Q 653 4 636 4 Z" fill="lightgray"></path>
      </clipPath>
      <path clip-path="url(#make-me-a-hanzi-clip-9)" d="M 637 -1 L 673 -24 L 714 -62 L 753 -119 " fill="none" id="make-me-a-hanzi-animation-9" stroke-dasharray="296 592" stroke-linecap="round"></path>

      <clipPath id="make-me-a-hanzi-clip-10">
      <path d="M 1235 636 Q 1266 605 1301 568 Q 1316 552 1333 552 Q 1346 552 1352 567 Q 1359 583 1351 618 Q 1342 654 1233 691 Q 1215 695 1208 693 Q 1202 689 1203 674 Q 1206 661 1235 636 Z" fill="lightgray"></path>
      </clipPath>
      <path clip-path="url(#make-me-a-hanzi-clip-10)" d="M 1213 685 L 1306 617 L 1333 572 " fill="none" id="make-me-a-hanzi-animation-10" stroke-dasharray="296 592" stroke-linecap="round"></path>

      <clipPath id="make-me-a-hanzi-clip-11">
      <path d="M 1157 144 Q 1144 140 1147 122 Q 1159 47 1196 25 Q 1203 18 1214 21 Q 1223 22 1223 49 Q 1232 103 1333 357 Q 1340 373 1339 380 Q 1338 390 1329 383 Q 1319 376 1306 359 Q 1249 268 1198 187 Q 1185 165 1157 144 Z" fill="lightgray"></path>
      </clipPath>
      <path clip-path="url(#make-me-a-hanzi-clip-11)" d="M 1208 33 L 1196 64 L 1194 116 L 1332 376 " fill="none" id="make-me-a-hanzi-animation-11" stroke-dasharray="508 1016" stroke-linecap="round"></path>

      <clipPath id="make-me-a-hanzi-clip-12">
      <path d="M 1631 597 Q 1787 628 1794 635 Q 1803 642 1799 650 Q 1792 662 1764 670 Q 1740 674 1639 644 L 1582 631 Q 1524 621 1458 614 Q 1422 608 1447 592 Q 1481 571 1556 583 Q 1563 584 1575 586 L 1631 597 Z" fill="lightgray"></path>
      </clipPath>
      <path clip-path="url(#make-me-a-hanzi-clip-12)" d="M 1450 604 L 1480 598 L 1543 602 L 1718 641 L 1787 646 " fill="none" id="make-me-a-hanzi-animation-12" stroke-dasharray="470 940" stroke-linecap="round"></path>

      <clipPath id="make-me-a-hanzi-clip-13">
      <path d="M 1562 519 Q 1516 512 1468 506 Q 1437 502 1459 486 Q 1498 465 1544 478 Q 1545 478 1550 478 L 1607 490 Q 1763 523 1771 530 Q 1778 537 1775 544 Q 1768 554 1743 560 Q 1718 566 1692 555 Q 1655 543 1618 532 L 1562 519 Z" fill="lightgray"></path>
      </clipPath>
      <path clip-path="url(#make-me-a-hanzi-clip-13)" d="M 1461 497 L 1483 492 L 1532 494 L 1643 516 L 1724 540 L 1764 539 " fill="none" id="make-me-a-hanzi-animation-13" stroke-dasharray="437 874" stroke-linecap="round"></path>

      <clipPath id="make-me-a-hanzi-clip-14">
      <path d="M 1531 421 Q 1461 412 1383 399 Q 1364 396 1378 381 Q 1391 368 1409 364 Q 1428 360 1443 364 Q 1477 374 1515 381 L 1571 391 Q 1596 400 1673 405 L 1704 407 Q 1756 411 1824 412 Q 1878 412 1884 421 Q 1888 433 1873 445 Q 1825 479 1789 471 Q 1722 455 1607 434 Q 1597 433 1588 430 L 1531 421 Z" fill="lightgray"></path>
      </clipPath>
      <path clip-path="url(#make-me-a-hanzi-clip-14)" d="M 1381 390 L 1418 383 L 1619 419 L 1790 441 L 1825 440 L 1876 427 " fill="none" id="make-me-a-hanzi-animation-14" stroke-dasharray="630 1260" stroke-linecap="round"></path>

      <clipPath id="make-me-a-hanzi-clip-15">
      <path d="M 1639 644 Q 1646 678 1663 713 Q 1669 723 1661 732 Q 1645 750 1611 768 Q 1592 780 1574 776 Q 1555 770 1568 752 Q 1593 721 1589 690 Q 1586 660 1582 631 L 1575 586 Q 1569 552 1562 519 L 1550 478 Q 1541 450 1531 421 L 1515 381 Q 1451 264 1363 195 Q 1342 180 1317 162 Q 1304 156 1302 152 Q 1298 145 1313 145 Q 1323 144 1369 166 Q 1402 179 1453 222 Q 1472 238 1489 256 L 1494 262 Q 1542 326 1571 391 L 1588 430 Q 1598 460 1607 490 L 1618 532 Q 1624 562 1631 597 L 1639 644 Z" fill="lightgray"></path>
      </clipPath>
      <path clip-path="url(#make-me-a-hanzi-clip-15)" d="M 1576 763 L 1606 741 L 1624 714 L 1588 517 L 1551 405 L 1514 332 L 1474 274 L 1434 231 L 1354 171 L 1308 150 " fill="none" id="make-me-a-hanzi-animation-15" stroke-dasharray="877 1754" stroke-linecap="round"></path>

      <clipPath id="make-me-a-hanzi-clip-16">
      <path d="M 1673 405 Q 1688 375 1809 240 Q 1854 195 2008 224 Q 2027 225 2028 231 Q 2029 238 2016 243 Q 1853 297 1777 349 Q 1758 364 1739 378 Q 1717 396 1704 407 C 1681 426 1658 431 1673 405 Z" fill="lightgray"></path>
      </clipPath>
      <path clip-path="url(#make-me-a-hanzi-clip-16)" d="M 1683 401 L 1700 392 L 1809 289 L 1854 260 L 1931 242 L 2022 232 " fill="none" id="make-me-a-hanzi-animation-16" stroke-dasharray="521 1042" stroke-linecap="round"></path>

      <clipPath id="make-me-a-hanzi-clip-17">
      <path d="M 1489 256 Q 1492 244 1531 234 Q 1544 233 1560 233 L 1602 240 Q 1728 267 1731 270 Q 1738 277 1735 284 Q 1728 294 1703 300 Q 1678 306 1652 295 Q 1621 285 1588 277 Q 1551 270 1507 266 Q 1497 265 1494 262 C 1487 259 1487 259 1489 256 Z" fill="lightgray"></path>
      </clipPath>
      <path clip-path="url(#make-me-a-hanzi-clip-17)" d="M 1496 255 L 1553 251 L 1611 260 L 1684 281 L 1726 279 " fill="none" id="make-me-a-hanzi-animation-17" stroke-dasharray="362 724" stroke-linecap="round"></path>

      <clipPath id="make-me-a-hanzi-clip-18">
      <path d="M 1552 139 Q 1482 127 1402 113 Q 1384 112 1398 97 Q 1411 85 1426 82 Q 1444 78 1458 82 Q 1495 94 1539 102 L 1597 111 Q 1669 124 1783 127 Q 1829 127 1836 136 Q 1840 146 1826 158 Q 1771 194 1726 175 Q 1678 165 1612 150 L 1552 139 Z" fill="lightgray"></path>
      </clipPath>
      <path clip-path="url(#make-me-a-hanzi-clip-18)" d="M 1400 105 L 1443 100 L 1624 135 L 1759 154 L 1828 141 " fill="none" id="make-me-a-hanzi-animation-18" stroke-dasharray="562 1124" stroke-linecap="round"></path>

      <clipPath id="make-me-a-hanzi-clip-19">
      <path d="M 1560 233 Q 1567 211 1552 139 L 1539 102 Q 1506 17 1386 -45 Q 1373 -51 1384 -55 Q 1462 -61 1541 16 Q 1541 22 1563 45 Q 1584 75 1597 111 L 1612 150 Q 1613 153 1614 154 Q 1620 175 1633 192 Q 1643 207 1630 216 Q 1618 231 1602 240 C 1577 256 1555 263 1560 233 Z" fill="lightgray"></path>
      </clipPath>
      <path clip-path="url(#make-me-a-hanzi-clip-19)" d="M 1568 230 L 1597 201 L 1570 112 L 1548 64 L 1493 2 L 1443 -32 L 1391 -51 " fill="none" id="make-me-a-hanzi-animation-19" stroke-dasharray="514 1028" stroke-linecap="round"></path>

      <clipPath id="make-me-a-hanzi-clip-20">
      <path d="M 1661 60 Q 1710 14 1770 -52 Q 1786 -71 1801 -76 Q 1810 -77 1817 -67 Q 1829 -54 1817 -11 Q 1808 25 1746 56 Q 1716 71 1662 90 Q 1653 96 1651 83 Q 1650 70 1661 60 Z" fill="lightgray"></path>
      </clipPath>
      <path clip-path="url(#make-me-a-hanzi-clip-20)" d="M 1662 78 L 1771 -1 L 1790 -28 L 1802 -61 " fill="none" id="make-me-a-hanzi-animation-20" stroke-dasharray="331 662" stroke-linecap="round"></path>

</g>
</svg>
