<svg version="1.1" viewBox="0 0 2048 1024" xmlns="http://www.w3.org/2000/svg">
  <g stroke="lightgray" stroke-dasharray="1,1" stroke-width="1" transform="scale(4, 4)">
    <line x1="0" y1="0" x2="256" y2="256"></line>
    <line x1="256" y1="0" x2="0" y2="256"></line>
    <line x1="128" y1="0" x2="128" y2="256"></line>
    <line x1="0" y1="128" x2="256" y2="128"></line>
    <line x1="256" y1="0" x2="512" y2="256"></line>
    <line x1="512" y1="0" x2="256" y2="256"></line>
    <line x1="384" y1="0" x2="384" y2="256"></line>
    <line x1="256" y1="128" x2="512" y2="128"></line>
  </g>
<g transform="scale(1, -1) translate(0, -850)">
   <style type="text/css">
    @keyframes keyframes0 {
      from {
       stroke: black;
       stroke-dashoffset: 705;
       stroke-width: 128;
       }
       70% {
       animation-timing-function: step-end;
       stroke: black;
       stroke-dashoffset: 0;
       stroke-width: 128;
       }
       to {
       stroke: black;
       stroke-width: 1024;
       }
       }
       #make-me-a-hanzi-animation-0 {
         animation: keyframes0 0.823730s both;
         animation-delay: 0.000000s;
         animation-timing-function: linear;
       }
    @keyframes keyframes1 {
      from {
       stroke: black;
       stroke-dashoffset: 769;
       stroke-width: 128;
       }
       71% {
       animation-timing-function: step-end;
       stroke: black;
       stroke-dashoffset: 0;
       stroke-width: 128;
       }
       to {
       stroke: black;
       stroke-width: 1024;
       }
       }
       #make-me-a-hanzi-animation-1 {
         animation: keyframes1 0.875814s both;
         animation-delay: 0.823730s;
         animation-timing-function: linear;
       }
    @keyframes keyframes2 {
      from {
       stroke: black;
       stroke-dashoffset: 576;
       stroke-width: 128;
       }
       65% {
       animation-timing-function: step-end;
       stroke: black;
       stroke-dashoffset: 0;
       stroke-width: 128;
       }
       to {
       stroke: black;
       stroke-width: 1024;
       }
       }
       #make-me-a-hanzi-animation-2 {
         animation: keyframes2 0.718750s both;
         animation-delay: 1.699544s;
         animation-timing-function: linear;
       }
    @keyframes keyframes3 {
      from {
       stroke: black;
       stroke-dashoffset: 695;
       stroke-width: 128;
       }
       69% {
       animation-timing-function: step-end;
       stroke: black;
       stroke-dashoffset: 0;
       stroke-width: 128;
       }
       to {
       stroke: black;
       stroke-width: 1024;
       }
       }
       #make-me-a-hanzi-animation-3 {
         animation: keyframes3 0.815592s both;
         animation-delay: 2.418294s;
         animation-timing-function: linear;
       }
    @keyframes keyframes4 {
      from {
       stroke: black;
       stroke-dashoffset: 1022;
       stroke-width: 128;
       }
       77% {
       animation-timing-function: step-end;
       stroke: black;
       stroke-dashoffset: 0;
       stroke-width: 128;
       }
       to {
       stroke: black;
       stroke-width: 1024;
       }
       }
       #make-me-a-hanzi-animation-4 {
         animation: keyframes4 1.081706s both;
         animation-delay: 3.233886s;
         animation-timing-function: linear;
       }
    @keyframes keyframes5 {
      from {
       stroke: black;
       stroke-dashoffset: 813;
       stroke-width: 128;
       }
       73% {
       animation-timing-function: step-end;
       stroke: black;
       stroke-dashoffset: 0;
       stroke-width: 128;
       }
       to {
       stroke: black;
       stroke-width: 1024;
       }
       }
       #make-me-a-hanzi-animation-5 {
         animation: keyframes5 0.911621s both;
         animation-delay: 4.315592s;
         animation-timing-function: linear;
       }
    @keyframes keyframes6 {
      from {
       stroke: black;
       stroke-dashoffset: 426;
       stroke-width: 128;
       }
       58% {
       animation-timing-function: step-end;
       stroke: black;
       stroke-dashoffset: 0;
       stroke-width: 128;
       }
       to {
       stroke: black;
       stroke-width: 1024;
       }
       }
       #make-me-a-hanzi-animation-6 {
         animation: keyframes6 0.596680s both;
         animation-delay: 5.227213s;
         animation-timing-function: linear;
       }
    @keyframes keyframes7 {
      from {
       stroke: black;
       stroke-dashoffset: 481;
       stroke-width: 128;
       }
       61% {
       animation-timing-function: step-end;
       stroke: black;
       stroke-dashoffset: 0;
       stroke-width: 128;
       }
       to {
       stroke: black;
       stroke-width: 1024;
       }
       }
       #make-me-a-hanzi-animation-7 {
         animation: keyframes7 0.641439s both;
         animation-delay: 5.823893s;
         animation-timing-function: linear;
       }
    @keyframes keyframes8 {
      from {
       stroke: black;
       stroke-dashoffset: 580;
       stroke-width: 128;
       }
       65% {
       animation-timing-function: step-end;
       stroke: black;
       stroke-dashoffset: 0;
       stroke-width: 128;
       }
       to {
       stroke: black;
       stroke-width: 1024;
       }
       }
       #make-me-a-hanzi-animation-8 {
         animation: keyframes8 0.722005s both;
         animation-delay: 6.465332s;
         animation-timing-function: linear;
       }
    @keyframes keyframes9 {
      from {
       stroke: black;
       stroke-dashoffset: 452;
       stroke-width: 128;
       }
       60% {
       animation-timing-function: step-end;
       stroke: black;
       stroke-dashoffset: 0;
       stroke-width: 128;
       }
       to {
       stroke: black;
       stroke-width: 1024;
       }
       }
       #make-me-a-hanzi-animation-9 {
         animation: keyframes9 0.617839s both;
         animation-delay: 7.187337s;
         animation-timing-function: linear;
       }
    @keyframes keyframes10 {
      from {
       stroke: black;
       stroke-dashoffset: 494;
       stroke-width: 128;
       }
       62% {
       animation-timing-function: step-end;
       stroke: black;
       stroke-dashoffset: 0;
       stroke-width: 128;
       }
       to {
       stroke: black;
       stroke-width: 1024;
       }
       }
       #make-me-a-hanzi-animation-10 {
         animation: keyframes10 0.652018s both;
         animation-delay: 7.805176s;
         animation-timing-function: linear;
       }
    @keyframes keyframes11 {
      from {
       stroke: black;
       stroke-dashoffset: 714;
       stroke-width: 128;
       }
       70% {
       animation-timing-function: step-end;
       stroke: black;
       stroke-dashoffset: 0;
       stroke-width: 128;
       }
       to {
       stroke: black;
       stroke-width: 1024;
       }
       }
       #make-me-a-hanzi-animation-11 {
         animation: keyframes11 0.831055s both;
         animation-delay: 8.457194s;
         animation-timing-function: linear;
       }
    @keyframes keyframes12 {
      from {
       stroke: black;
       stroke-dashoffset: 558;
       stroke-width: 128;
       }
       64% {
       animation-timing-function: step-end;
       stroke: black;
       stroke-dashoffset: 0;
       stroke-width: 128;
       }
       to {
       stroke: black;
       stroke-width: 1024;
       }
       }
       #make-me-a-hanzi-animation-12 {
         animation: keyframes12 0.704102s both;
         animation-delay: 9.288249s;
         animation-timing-function: linear;
       }
    @keyframes keyframes13 {
      from {
       stroke: black;
       stroke-dashoffset: 459;
       stroke-width: 128;
       }
       60% {
       animation-timing-function: step-end;
       stroke: black;
       stroke-dashoffset: 0;
       stroke-width: 128;
       }
       to {
       stroke: black;
       stroke-width: 1024;
       }
       }
       #make-me-a-hanzi-animation-13 {
         animation: keyframes13 0.623535s both;
         animation-delay: 9.992351s;
         animation-timing-function: linear;
       }
    @keyframes keyframes14 {
      from {
       stroke: black;
       stroke-dashoffset: 386;
       stroke-width: 128;
       }
       56% {
       animation-timing-function: step-end;
       stroke: black;
       stroke-dashoffset: 0;
       stroke-width: 128;
       }
       to {
       stroke: black;
       stroke-width: 1024;
       }
       }
       #make-me-a-hanzi-animation-14 {
         animation: keyframes14 0.564128s both;
         animation-delay: 10.615886s;
         animation-timing-function: linear;
       }
    @keyframes keyframes15 {
      from {
       stroke: black;
       stroke-dashoffset: 398;
       stroke-width: 128;
       }
       56% {
       animation-timing-function: step-end;
       stroke: black;
       stroke-dashoffset: 0;
       stroke-width: 128;
       }
       to {
       stroke: black;
       stroke-width: 1024;
       }
       }
       #make-me-a-hanzi-animation-15 {
         animation: keyframes15 0.573893s both;
         animation-delay: 11.180014s;
         animation-timing-function: linear;
       }
    @keyframes keyframes16 {
      from {
       stroke: black;
       stroke-dashoffset: 508;
       stroke-width: 128;
       }
       62% {
       animation-timing-function: step-end;
       stroke: black;
       stroke-dashoffset: 0;
       stroke-width: 128;
       }
       to {
       stroke: black;
       stroke-width: 1024;
       }
       }
       #make-me-a-hanzi-animation-16 {
         animation: keyframes16 0.663411s both;
         animation-delay: 11.753907s;
         animation-timing-function: linear;
       }
</style>
<path d="M 269.5 439.5 Q 218.5 437.5 166.5 431.5 Q 203.5 492.5 221.5 527.5 Q 242.5 569.5 274.5 617.5 Q 283.5 632.5 283.5 641.5 Q 283.5 658.5 256.5 684.5 Q 228.5 710.5 211.5 710.5 Q 203.5 710.5 203.5 701.5 Q 203.5 659.5 190.5 604.5 Q 179.5 547.5 156.5 501.5 Q 141.5 459.5 111.5 437.5 Q 94.5 428.5 92.5 410.5 Q 97.5 363.5 123.5 361.5 Q 127.5 361.5 139.5 370.5 Q 168.5 389.5 194.5 396.5 Q 216.5 402.5 250.5 407.5 C 280.5 412.5 299.5 440.5 269.5 439.5 Z" fill="lightgray"></path> 
<path d="M 304.5 538.5 Q 291.5 537.5 291.5 521.5 Q 291.5 480.5 269.5 439.5 L 250.5 407.5 Q 217.5 351.5 168.5 288.5 Q 137.5 249.5 100.5 233.5 Q 84.5 232.5 83.5 229.5 Q 83.5 213.5 97.5 197.5 Q 114.5 170.5 136.5 170.5 Q 145.5 170.5 161.5 183.5 Q 211.5 224.5 344.5 282.5 Q 352.5 285.5 352.5 294.5 Q 352.5 301.5 331.5 301.5 Q 325.5 299.5 203.5 262.5 Q 321.5 424.5 351.5 459.5 Q 362.5 468.5 364.5 477.5 Q 362.5 493.5 340.5 513.5 Q 316.5 537.5 304.5 538.5 Z" fill="lightgray"></path> 
<path d="M 352.5 185.5 Q 347.5 185.5 296.5 160.5 Q 135.5 86.5 82.5 79.5 Q 60.5 76.5 60.5 66.5 Q 60.5 56.5 85.5 32.5 Q 117.5 5.5 140.5 5.5 Q 143.5 5.5 166.5 32.5 Q 207.5 68.5 327.5 143.5 Q 364.5 165.5 364.5 177.5 Q 364.5 185.5 352.5 185.5 Z" fill="lightgray"></path> 
<path d="M 520.5 769.5 Q 507.5 769.5 507.5 754.5 Q 511.5 737.5 511.5 718.5 Q 511.5 678.5 485.5 606.5 Q 447.5 508.5 379.5 416.5 Q 360.5 389.5 360.5 385.5 Q 360.5 382.5 364.5 382.5 Q 384.5 382.5 444.5 441.5 Q 461.5 459.5 476.5 478.5 L 493.5 501.5 Q 516.5 530.5 534.5 563.5 L 551.5 595.5 Q 554.5 602.5 559.5 610.5 Q 589.5 678.5 597.5 689.5 Q 604.5 698.5 604.5 701.5 Q 604.5 715.5 567.5 748.5 Q 529.5 769.5 520.5 769.5 Z" fill="lightgray"></path> 
<path d="M 571.5 386.5 Q 545.5 356.5 514.5 328.5 Q 437.5 259.5 340.5 215.5 Q 327.5 213.5 327.5 210.5 Q 327.5 206.5 348.5 206.5 Q 378.5 207.5 431.5 226.5 Q 521.5 265.5 606.5 348.5 L 640.5 387.5 Q 677.5 431.5 726.5 506.5 Q 755.5 547.5 779.5 566.5 Q 791.5 582.5 791.5 586.5 Q 791.5 598.5 752.5 627.5 Q 716.5 645.5 700.5 645.5 Q 689.5 645.5 652.5 628.5 Q 604.5 604.5 551.5 595.5 C 522.5 589.5 504.5 564.5 534.5 563.5 Q 541.5 561.5 547.5 561.5 Q 558.5 561.5 667.5 586.5 Q 683.5 586.5 683.5 569.5 Q 683.5 552.5 637.5 474.5 Q 621.5 449.5 602.5 423.5 L 571.5 386.5 Z" fill="lightgray"></path> 
<path d="M 476.5 478.5 Q 504.5 461.5 571.5 386.5 L 606.5 348.5 Q 688.5 255.5 725.5 237.5 Q 741.5 229.5 759.5 229.5 Q 791.5 229.5 891.5 239.5 Q 963.5 246.5 963.5 257.5 Q 963.5 262.5 914.5 268.5 Q 820.5 281.5 753.5 313.5 Q 697.5 340.5 640.5 387.5 L 602.5 423.5 Q 597.5 427.5 591.5 433.5 Q 540.5 488.5 521.5 496.5 Q 508.5 500.5 493.5 501.5 C 463.5 505.5 452.5 496.5 476.5 478.5 Z" fill="lightgray"></path> 
<path d="M 520.5 217.5 Q 507.5 217.5 507.5 206.5 Q 507.5 203.5 539.5 181.5 Q 570.5 160.5 611.5 126.5 Q 638.5 101.5 660.5 101.5 Q 692.5 101.5 692.5 145.5 Q 692.5 161.5 665.5 177.5 Q 635.5 198.5 584.5 209.5 Q 538.5 217.5 520.5 217.5 Z" fill="lightgray"></path> 
<path d="M 495.5 49.5 Q 488.5 49.5 488.5 42.5 Q 488.5 38.5 529.5 9.5 Q 569.5 -17.5 620.5 -62.5 Q 657.5 -93.5 683.5 -93.5 Q 711.5 -93.5 711.5 -53.5 Q 711.5 -32.5 679.5 -8.5 Q 640.5 22.5 577.5 37.5 Q 519.5 49.5 495.5 49.5 Z" fill="lightgray"></path> 
<path d="M 1543.0 428.0 Q 1547.0 485.0 1551.0 539.0 L 1553.0 570.0 Q 1556.0 649.0 1570.0 696.0 Q 1573.0 706.0 1553.0 721.0 Q 1517.0 740.0 1492.0 744.0 Q 1476.0 747.0 1468.0 738.0 Q 1461.0 731.0 1469.0 715.0 Q 1488.0 690.0 1489.0 673.0 Q 1501.0 558.0 1501.0 421.0 C 1501.0 391.0 1541.0 398.0 1543.0 428.0 Z" fill="lightgray"></path> 
<path d="M 1551.0 539.0 Q 1557.0 538.0 1569.0 539.0 Q 1666.0 555.0 1738.0 564.0 Q 1766.0 568.0 1755.0 584.0 Q 1743.0 600.0 1713.0 606.0 Q 1682.0 612.0 1553.0 570.0 C 1524.0 561.0 1521.0 541.0 1551.0 539.0 Z" fill="lightgray"></path> 
<path d="M 1389.0 407.0 Q 1374.0 413.0 1344.0 418.0 Q 1331.0 422.0 1327.0 416.0 Q 1320.0 410.0 1329.0 392.0 Q 1357.0 334.0 1373.0 238.0 Q 1376.0 210.0 1392.0 190.0 Q 1411.0 165.0 1418.0 183.0 Q 1421.0 192.0 1422.0 204.0 L 1420.0 244.0 L 1420.0 245.0 Q 1407.0 338.0 1404.0 370.0 C 1401.0 400.0 1401.0 403.0 1389.0 407.0 Z" fill="lightgray"></path> 
<path d="M 1700.0 270.0 Q 1725.0 351.0 1760.0 376.0 Q 1779.0 395.0 1763.0 416.0 Q 1685.0 477.0 1624.0 451.0 Q 1581.0 438.0 1543.0 428.0 L 1501.0 421.0 Q 1446.0 412.0 1389.0 407.0 C 1359.0 404.0 1374.0 366.0 1404.0 370.0 Q 1435.0 373.0 1622.0 404.0 Q 1647.0 408.0 1656.0 398.0 Q 1665.0 391.0 1664.0 371.0 Q 1657.0 322.0 1648.0 280.0 C 1642.0 251.0 1691.0 241.0 1700.0 270.0 Z" fill="lightgray"></path> 
<path d="M 1422.0 204.0 Q 1432.0 203.0 1446.0 204.0 Q 1531.0 220.0 1714.0 229.0 Q 1727.0 230.0 1729.0 240.0 Q 1729.0 249.0 1700.0 270.0 L 1648.0 280.0 Q 1644.0 281.0 1638.0 279.0 Q 1517.0 254.0 1420.0 244.0 C 1390.0 241.0 1392.0 205.0 1422.0 204.0 Z" fill="lightgray"></path> 
<path d="M 1270.0 139.0 Q 1234.0 75.0 1188.0 20.0 Q 1161.0 -16.0 1176.0 -52.0 Q 1182.0 -71.0 1206.0 -62.0 Q 1231.0 -47.0 1252.0 -15.0 Q 1282.0 31.0 1290.0 73.0 Q 1300.0 107.0 1296.0 136.0 Q 1292.0 146.0 1285.0 147.0 Q 1276.0 147.0 1270.0 139.0 Z" fill="lightgray"></path> 
<path d="M 1388.0 102.0 Q 1404.0 56.0 1422.0 10.0 Q 1432.0 -15.0 1449.0 -22.0 Q 1462.0 -29.0 1477.0 -13.0 Q 1484.0 0.0 1483.0 24.0 Q 1480.0 49.0 1457.0 74.0 Q 1423.0 114.0 1404.0 127.0 Q 1395.0 133.0 1389.0 122.0 Q 1385.0 115.0 1388.0 102.0 Z" fill="lightgray"></path> 
<path d="M 1557.0 117.0 Q 1593.0 5.0 1624.0 -10.0 Q 1637.0 -17.0 1652.0 -1.0 Q 1659.0 12.0 1658.0 39.0 Q 1654.0 66.0 1629.0 89.0 Q 1592.0 132.0 1573.0 144.0 Q 1563.0 150.0 1558.0 137.0 Q 1552.0 130.0 1557.0 117.0 Z" fill="lightgray"></path> 
<path d="M 1721.0 134.0 Q 1779.0 70.0 1845.0 -22.0 Q 1861.0 -46.0 1877.0 -52.0 Q 1886.0 -55.0 1895.0 -44.0 Q 1911.0 -31.0 1902.0 18.0 Q 1893.0 81.0 1726.0 168.0 Q 1716.0 175.0 1713.0 161.0 Q 1712.0 146.0 1721.0 134.0 Z" fill="lightgray"></path> 
      <clipPath id="make-me-a-hanzi-clip-0">
      <path d="M 269.5 439.5 Q 218.5 437.5 166.5 431.5 Q 203.5 492.5 221.5 527.5 Q 242.5 569.5 274.5 617.5 Q 283.5 632.5 283.5 641.5 Q 283.5 658.5 256.5 684.5 Q 228.5 710.5 211.5 710.5 Q 203.5 710.5 203.5 701.5 Q 203.5 659.5 190.5 604.5 Q 179.5 547.5 156.5 501.5 Q 141.5 459.5 111.5 437.5 Q 94.5 428.5 92.5 410.5 Q 97.5 363.5 123.5 361.5 Q 127.5 361.5 139.5 370.5 Q 168.5 389.5 194.5 396.5 Q 216.5 402.5 250.5 407.5 C 280.5 412.5 299.5 440.5 269.5 439.5 Z" fill="lightgray"></path>
      </clipPath>
      <path clip-path="url(#make-me-a-hanzi-clip-0)" d="M 214.5 699.5 L 240.5 640.5 L 197.5 533.5 L 144.5 437.5 L 136.5 411.5 L 166.5 408.5 L 240.5 420.5 L 262.5 436.5 " fill="none" id="make-me-a-hanzi-animation-0" stroke-dasharray="577 1154" stroke-linecap="round"></path>

      <clipPath id="make-me-a-hanzi-clip-1">
      <path d="M 304.5 538.5 Q 291.5 537.5 291.5 521.5 Q 291.5 480.5 269.5 439.5 L 250.5 407.5 Q 217.5 351.5 168.5 288.5 Q 137.5 249.5 100.5 233.5 Q 84.5 232.5 83.5 229.5 Q 83.5 213.5 97.5 197.5 Q 114.5 170.5 136.5 170.5 Q 145.5 170.5 161.5 183.5 Q 211.5 224.5 344.5 282.5 Q 352.5 285.5 352.5 294.5 Q 352.5 301.5 331.5 301.5 Q 325.5 299.5 203.5 262.5 Q 321.5 424.5 351.5 459.5 Q 362.5 468.5 364.5 477.5 Q 362.5 493.5 340.5 513.5 Q 316.5 537.5 304.5 538.5 Z" fill="lightgray"></path>
      </clipPath>
      <path clip-path="url(#make-me-a-hanzi-clip-1)" d="M 305.5 524.5 L 322.5 483.5 L 318.5 472.5 L 256.5 371.5 L 180.5 267.5 L 174.5 238.5 L 202.5 238.5 L 284.5 273.5 L 344.5 291.5 " fill="none" id="make-me-a-hanzi-animation-1" stroke-dasharray="641 1282" stroke-linecap="round"></path>

      <clipPath id="make-me-a-hanzi-clip-2">
      <path d="M 352.5 185.5 Q 347.5 185.5 296.5 160.5 Q 135.5 86.5 82.5 79.5 Q 60.5 76.5 60.5 66.5 Q 60.5 56.5 85.5 32.5 Q 117.5 5.5 140.5 5.5 Q 143.5 5.5 166.5 32.5 Q 207.5 68.5 327.5 143.5 Q 364.5 165.5 364.5 177.5 Q 364.5 185.5 352.5 185.5 Z" fill="lightgray"></path>
      </clipPath>
      <path clip-path="url(#make-me-a-hanzi-clip-2)" d="M 70.5 65.5 L 127.5 49.5 L 355.5 176.5 " fill="none" id="make-me-a-hanzi-animation-2" stroke-dasharray="448 896" stroke-linecap="round"></path>

      <clipPath id="make-me-a-hanzi-clip-3">
      <path d="M 520.5 769.5 Q 507.5 769.5 507.5 754.5 Q 511.5 737.5 511.5 718.5 Q 511.5 678.5 485.5 606.5 Q 447.5 508.5 379.5 416.5 Q 360.5 389.5 360.5 385.5 Q 360.5 382.5 364.5 382.5 Q 384.5 382.5 444.5 441.5 Q 461.5 459.5 476.5 478.5 L 493.5 501.5 Q 516.5 530.5 534.5 563.5 L 551.5 595.5 Q 554.5 602.5 559.5 610.5 Q 589.5 678.5 597.5 689.5 Q 604.5 698.5 604.5 701.5 Q 604.5 715.5 567.5 748.5 Q 529.5 769.5 520.5 769.5 Z" fill="lightgray"></path>
      </clipPath>
      <path clip-path="url(#make-me-a-hanzi-clip-3)" d="M 519.5 757.5 L 554.5 701.5 L 523.5 613.5 L 490.5 545.5 L 434.5 459.5 L 364.5 386.5 " fill="none" id="make-me-a-hanzi-animation-3" stroke-dasharray="567 1134" stroke-linecap="round"></path>

      <clipPath id="make-me-a-hanzi-clip-4">
      <path d="M 571.5 386.5 Q 545.5 356.5 514.5 328.5 Q 437.5 259.5 340.5 215.5 Q 327.5 213.5 327.5 210.5 Q 327.5 206.5 348.5 206.5 Q 378.5 207.5 431.5 226.5 Q 521.5 265.5 606.5 348.5 L 640.5 387.5 Q 677.5 431.5 726.5 506.5 Q 755.5 547.5 779.5 566.5 Q 791.5 582.5 791.5 586.5 Q 791.5 598.5 752.5 627.5 Q 716.5 645.5 700.5 645.5 Q 689.5 645.5 652.5 628.5 Q 604.5 604.5 551.5 595.5 C 522.5 589.5 504.5 564.5 534.5 563.5 Q 541.5 561.5 547.5 561.5 Q 558.5 561.5 667.5 586.5 Q 683.5 586.5 683.5 569.5 Q 683.5 552.5 637.5 474.5 Q 621.5 449.5 602.5 423.5 L 571.5 386.5 Z" fill="lightgray"></path>
      </clipPath>
      <path clip-path="url(#make-me-a-hanzi-clip-4)" d="M 541.5 566.5 L 562.5 581.5 L 670.5 611.5 L 701.5 609.5 L 728.5 585.5 L 713.5 546.5 L 662.5 461.5 L 583.5 360.5 L 478.5 272.5 L 418.5 237.5 L 375.5 219.5 L 349.5 215.5 L 340.5 207.5 " fill="none" id="make-me-a-hanzi-animation-4" stroke-dasharray="894 1788" stroke-linecap="round"></path>

      <clipPath id="make-me-a-hanzi-clip-5">
      <path d="M 476.5 478.5 Q 504.5 461.5 571.5 386.5 L 606.5 348.5 Q 688.5 255.5 725.5 237.5 Q 741.5 229.5 759.5 229.5 Q 791.5 229.5 891.5 239.5 Q 963.5 246.5 963.5 257.5 Q 963.5 262.5 914.5 268.5 Q 820.5 281.5 753.5 313.5 Q 697.5 340.5 640.5 387.5 L 602.5 423.5 Q 597.5 427.5 591.5 433.5 Q 540.5 488.5 521.5 496.5 Q 508.5 500.5 493.5 501.5 C 463.5 505.5 452.5 496.5 476.5 478.5 Z" fill="lightgray"></path>
      </clipPath>
      <path clip-path="url(#make-me-a-hanzi-clip-5)" d="M 483.5 482.5 L 501.5 482.5 L 520.5 471.5 L 648.5 343.5 L 741.5 274.5 L 839.5 257.5 L 960.5 256.5 " fill="none" id="make-me-a-hanzi-animation-5" stroke-dasharray="685 1370" stroke-linecap="round"></path>

      <clipPath id="make-me-a-hanzi-clip-6">
      <path d="M 520.5 217.5 Q 507.5 217.5 507.5 206.5 Q 507.5 203.5 539.5 181.5 Q 570.5 160.5 611.5 126.5 Q 638.5 101.5 660.5 101.5 Q 692.5 101.5 692.5 145.5 Q 692.5 161.5 665.5 177.5 Q 635.5 198.5 584.5 209.5 Q 538.5 217.5 520.5 217.5 Z" fill="lightgray"></path>
      </clipPath>
      <path clip-path="url(#make-me-a-hanzi-clip-6)" d="M 514.5 208.5 L 600.5 174.5 L 651.5 142.5 L 662.5 129.5 " fill="none" id="make-me-a-hanzi-animation-6" stroke-dasharray="298 596" stroke-linecap="round"></path>

      <clipPath id="make-me-a-hanzi-clip-7">
      <path d="M 495.5 49.5 Q 488.5 49.5 488.5 42.5 Q 488.5 38.5 529.5 9.5 Q 569.5 -17.5 620.5 -62.5 Q 657.5 -93.5 683.5 -93.5 Q 711.5 -93.5 711.5 -53.5 Q 711.5 -32.5 679.5 -8.5 Q 640.5 22.5 577.5 37.5 Q 519.5 49.5 495.5 49.5 Z" fill="lightgray"></path>
      </clipPath>
      <path clip-path="url(#make-me-a-hanzi-clip-7)" d="M 494.5 43.5 L 594.5 1.5 L 671.5 -51.5 L 685.5 -69.5 " fill="none" id="make-me-a-hanzi-animation-7" stroke-dasharray="353 706" stroke-linecap="round"></path>

      <clipPath id="make-me-a-hanzi-clip-8">
      <path d="M 1543.0 428.0 Q 1547.0 485.0 1551.0 539.0 L 1553.0 570.0 Q 1556.0 649.0 1570.0 696.0 Q 1573.0 706.0 1553.0 721.0 Q 1517.0 740.0 1492.0 744.0 Q 1476.0 747.0 1468.0 738.0 Q 1461.0 731.0 1469.0 715.0 Q 1488.0 690.0 1489.0 673.0 Q 1501.0 558.0 1501.0 421.0 C 1501.0 391.0 1541.0 398.0 1543.0 428.0 Z" fill="lightgray"></path>
      </clipPath>
      <path clip-path="url(#make-me-a-hanzi-clip-8)" d="M 1481.0 728.0 L 1519.0 699.0 L 1527.0 686.0 L 1524.0 454.0 L 1507.0 430.0 " fill="none" id="make-me-a-hanzi-animation-8" stroke-dasharray="452 904" stroke-linecap="round"></path>

      <clipPath id="make-me-a-hanzi-clip-9">
      <path d="M 1551.0 539.0 Q 1557.0 538.0 1569.0 539.0 Q 1666.0 555.0 1738.0 564.0 Q 1766.0 568.0 1755.0 584.0 Q 1743.0 600.0 1713.0 606.0 Q 1682.0 612.0 1553.0 570.0 C 1524.0 561.0 1521.0 541.0 1551.0 539.0 Z" fill="lightgray"></path>
      </clipPath>
      <path clip-path="url(#make-me-a-hanzi-clip-9)" d="M 1555.0 547.0 L 1571.0 558.0 L 1662.0 578.0 L 1715.0 583.0 L 1744.0 576.0 " fill="none" id="make-me-a-hanzi-animation-9" stroke-dasharray="324 648" stroke-linecap="round"></path>

      <clipPath id="make-me-a-hanzi-clip-10">
      <path d="M 1389.0 407.0 Q 1374.0 413.0 1344.0 418.0 Q 1331.0 422.0 1327.0 416.0 Q 1320.0 410.0 1329.0 392.0 Q 1357.0 334.0 1373.0 238.0 Q 1376.0 210.0 1392.0 190.0 Q 1411.0 165.0 1418.0 183.0 Q 1421.0 192.0 1422.0 204.0 L 1420.0 244.0 L 1420.0 245.0 Q 1407.0 338.0 1404.0 370.0 C 1401.0 400.0 1401.0 403.0 1389.0 407.0 Z" fill="lightgray"></path>
      </clipPath>
      <path clip-path="url(#make-me-a-hanzi-clip-10)" d="M 1335.0 408.0 L 1366.0 383.0 L 1373.0 365.0 L 1406.0 189.0 " fill="none" id="make-me-a-hanzi-animation-10" stroke-dasharray="366 732" stroke-linecap="round"></path>

      <clipPath id="make-me-a-hanzi-clip-11">
      <path d="M 1700.0 270.0 Q 1725.0 351.0 1760.0 376.0 Q 1779.0 395.0 1763.0 416.0 Q 1685.0 477.0 1624.0 451.0 Q 1581.0 438.0 1543.0 428.0 L 1501.0 421.0 Q 1446.0 412.0 1389.0 407.0 C 1359.0 404.0 1374.0 366.0 1404.0 370.0 Q 1435.0 373.0 1622.0 404.0 Q 1647.0 408.0 1656.0 398.0 Q 1665.0 391.0 1664.0 371.0 Q 1657.0 322.0 1648.0 280.0 C 1642.0 251.0 1691.0 241.0 1700.0 270.0 Z" fill="lightgray"></path>
      </clipPath>
      <path clip-path="url(#make-me-a-hanzi-clip-11)" d="M 1397.0 403.0 L 1418.0 391.0 L 1558.0 411.0 L 1639.0 430.0 L 1670.0 427.0 L 1710.0 395.0 L 1681.0 302.0 L 1656.0 286.0 " fill="none" id="make-me-a-hanzi-animation-11" stroke-dasharray="586 1172" stroke-linecap="round"></path>

      <clipPath id="make-me-a-hanzi-clip-12">
      <path d="M 1422.0 204.0 Q 1432.0 203.0 1446.0 204.0 Q 1531.0 220.0 1714.0 229.0 Q 1727.0 230.0 1729.0 240.0 Q 1729.0 249.0 1700.0 270.0 L 1648.0 280.0 Q 1644.0 281.0 1638.0 279.0 Q 1517.0 254.0 1420.0 244.0 C 1390.0 241.0 1392.0 205.0 1422.0 204.0 Z" fill="lightgray"></path>
      </clipPath>
      <path clip-path="url(#make-me-a-hanzi-clip-12)" d="M 1428.0 211.0 L 1441.0 225.0 L 1635.0 252.0 L 1689.0 250.0 L 1720.0 240.0 " fill="none" id="make-me-a-hanzi-animation-12" stroke-dasharray="430 860" stroke-linecap="round"></path>

      <clipPath id="make-me-a-hanzi-clip-13">
      <path d="M 1270.0 139.0 Q 1234.0 75.0 1188.0 20.0 Q 1161.0 -16.0 1176.0 -52.0 Q 1182.0 -71.0 1206.0 -62.0 Q 1231.0 -47.0 1252.0 -15.0 Q 1282.0 31.0 1290.0 73.0 Q 1300.0 107.0 1296.0 136.0 Q 1292.0 146.0 1285.0 147.0 Q 1276.0 147.0 1270.0 139.0 Z" fill="lightgray"></path>
      </clipPath>
      <path clip-path="url(#make-me-a-hanzi-clip-13)" d="M 1284.0 135.0 L 1257.0 60.0 L 1208.0 -14.0 L 1195.0 -46.0 " fill="none" id="make-me-a-hanzi-animation-13" stroke-dasharray="331 662" stroke-linecap="round"></path>

      <clipPath id="make-me-a-hanzi-clip-14">
      <path d="M 1388.0 102.0 Q 1404.0 56.0 1422.0 10.0 Q 1432.0 -15.0 1449.0 -22.0 Q 1462.0 -29.0 1477.0 -13.0 Q 1484.0 0.0 1483.0 24.0 Q 1480.0 49.0 1457.0 74.0 Q 1423.0 114.0 1404.0 127.0 Q 1395.0 133.0 1389.0 122.0 Q 1385.0 115.0 1388.0 102.0 Z" fill="lightgray"></path>
      </clipPath>
      <path clip-path="url(#make-me-a-hanzi-clip-14)" d="M 1400.0 115.0 L 1445.0 39.0 L 1458.0 -1.0 " fill="none" id="make-me-a-hanzi-animation-14" stroke-dasharray="258 516" stroke-linecap="round"></path>

      <clipPath id="make-me-a-hanzi-clip-15">
      <path d="M 1557.0 117.0 Q 1593.0 5.0 1624.0 -10.0 Q 1637.0 -17.0 1652.0 -1.0 Q 1659.0 12.0 1658.0 39.0 Q 1654.0 66.0 1629.0 89.0 Q 1592.0 132.0 1573.0 144.0 Q 1563.0 150.0 1558.0 137.0 Q 1552.0 130.0 1557.0 117.0 Z" fill="lightgray"></path>
      </clipPath>
      <path clip-path="url(#make-me-a-hanzi-clip-15)" d="M 1567.0 136.0 L 1618.0 52.0 L 1633.0 11.0 " fill="none" id="make-me-a-hanzi-animation-15" stroke-dasharray="270 540" stroke-linecap="round"></path>

      <clipPath id="make-me-a-hanzi-clip-16">
      <path d="M 1721.0 134.0 Q 1779.0 70.0 1845.0 -22.0 Q 1861.0 -46.0 1877.0 -52.0 Q 1886.0 -55.0 1895.0 -44.0 Q 1911.0 -31.0 1902.0 18.0 Q 1893.0 81.0 1726.0 168.0 Q 1716.0 175.0 1713.0 161.0 Q 1712.0 146.0 1721.0 134.0 Z" fill="lightgray"></path>
      </clipPath>
      <path clip-path="url(#make-me-a-hanzi-clip-16)" d="M 1725.0 155.0 L 1846.0 42.0 L 1870.0 3.0 L 1881.0 -36.0 " fill="none" id="make-me-a-hanzi-animation-16" stroke-dasharray="380 760" stroke-linecap="round"></path>

</g>
</svg>
