<svg version="1.1" viewBox="0 0 2048 1024" xmlns="http://www.w3.org/2000/svg">
  <g stroke="lightgray" stroke-dasharray="1,1" stroke-width="1" transform="scale(4, 4)">
    <line x1="0" y1="0" x2="256" y2="256"></line>
    <line x1="256" y1="0" x2="0" y2="256"></line>
    <line x1="128" y1="0" x2="128" y2="256"></line>
    <line x1="0" y1="128" x2="256" y2="128"></line>
    <line x1="256" y1="0" x2="512" y2="256"></line>
    <line x1="512" y1="0" x2="256" y2="256"></line>
    <line x1="384" y1="0" x2="384" y2="256"></line>
    <line x1="256" y1="128" x2="512" y2="128"></line>
  </g>
<g transform="scale(1, -1) translate(0, -850)">
   <style type="text/css">
    @keyframes keyframes0 {
      from {
       stroke: black;
       stroke-dashoffset: 723;
       stroke-width: 128;
       }
       70% {
       animation-timing-function: step-end;
       stroke: black;
       stroke-dashoffset: 0;
       stroke-width: 128;
       }
       to {
       stroke: black;
       stroke-width: 1024;
       }
       }
       #make-me-a-hanzi-animation-0 {
         animation: keyframes0 0.838379s both;
         animation-delay: 0.000000s;
         animation-timing-function: linear;
       }
    @keyframes keyframes1 {
      from {
       stroke: black;
       stroke-dashoffset: 808;
       stroke-width: 128;
       }
       72% {
       animation-timing-function: step-end;
       stroke: black;
       stroke-dashoffset: 0;
       stroke-width: 128;
       }
       to {
       stroke: black;
       stroke-width: 1024;
       }
       }
       #make-me-a-hanzi-animation-1 {
         animation: keyframes1 0.907552s both;
         animation-delay: 0.838379s;
         animation-timing-function: linear;
       }
    @keyframes keyframes2 {
      from {
       stroke: black;
       stroke-dashoffset: 593;
       stroke-width: 128;
       }
       66% {
       animation-timing-function: step-end;
       stroke: black;
       stroke-dashoffset: 0;
       stroke-width: 128;
       }
       to {
       stroke: black;
       stroke-width: 1024;
       }
       }
       #make-me-a-hanzi-animation-2 {
         animation: keyframes2 0.732585s both;
         animation-delay: 1.745931s;
         animation-timing-function: linear;
       }
    @keyframes keyframes3 {
      from {
       stroke: black;
       stroke-dashoffset: 397;
       stroke-width: 128;
       }
       56% {
       animation-timing-function: step-end;
       stroke: black;
       stroke-dashoffset: 0;
       stroke-width: 128;
       }
       to {
       stroke: black;
       stroke-width: 1024;
       }
       }
       #make-me-a-hanzi-animation-3 {
         animation: keyframes3 0.573079s both;
         animation-delay: 2.478516s;
         animation-timing-function: linear;
       }
    @keyframes keyframes4 {
      from {
       stroke: black;
       stroke-dashoffset: 442;
       stroke-width: 128;
       }
       59% {
       animation-timing-function: step-end;
       stroke: black;
       stroke-dashoffset: 0;
       stroke-width: 128;
       }
       to {
       stroke: black;
       stroke-width: 1024;
       }
       }
       #make-me-a-hanzi-animation-4 {
         animation: keyframes4 0.609701s both;
         animation-delay: 3.051595s;
         animation-timing-function: linear;
       }
    @keyframes keyframes5 {
      from {
       stroke: black;
       stroke-dashoffset: 777;
       stroke-width: 128;
       }
       72% {
       animation-timing-function: step-end;
       stroke: black;
       stroke-dashoffset: 0;
       stroke-width: 128;
       }
       to {
       stroke: black;
       stroke-width: 1024;
       }
       }
       #make-me-a-hanzi-animation-5 {
         animation: keyframes5 0.882324s both;
         animation-delay: 3.661296s;
         animation-timing-function: linear;
       }
    @keyframes keyframes6 {
      from {
       stroke: black;
       stroke-dashoffset: 608;
       stroke-width: 128;
       }
       66% {
       animation-timing-function: step-end;
       stroke: black;
       stroke-dashoffset: 0;
       stroke-width: 128;
       }
       to {
       stroke: black;
       stroke-width: 1024;
       }
       }
       #make-me-a-hanzi-animation-6 {
         animation: keyframes6 0.744792s both;
         animation-delay: 4.543620s;
         animation-timing-function: linear;
       }
    @keyframes keyframes7 {
      from {
       stroke: black;
       stroke-dashoffset: 664;
       stroke-width: 128;
       }
       68% {
       animation-timing-function: step-end;
       stroke: black;
       stroke-dashoffset: 0;
       stroke-width: 128;
       }
       to {
       stroke: black;
       stroke-width: 1024;
       }
       }
       #make-me-a-hanzi-animation-7 {
         animation: keyframes7 0.790365s both;
         animation-delay: 5.288412s;
         animation-timing-function: linear;
       }
    @keyframes keyframes8 {
      from {
       stroke: black;
       stroke-dashoffset: 588;
       stroke-width: 128;
       }
       66% {
       animation-timing-function: step-end;
       stroke: black;
       stroke-dashoffset: 0;
       stroke-width: 128;
       }
       to {
       stroke: black;
       stroke-width: 1024;
       }
       }
       #make-me-a-hanzi-animation-8 {
         animation: keyframes8 0.728516s both;
         animation-delay: 6.078777s;
         animation-timing-function: linear;
       }
    @keyframes keyframes9 {
      from {
       stroke: black;
       stroke-dashoffset: 389;
       stroke-width: 128;
       }
       56% {
       animation-timing-function: step-end;
       stroke: black;
       stroke-dashoffset: 0;
       stroke-width: 128;
       }
       to {
       stroke: black;
       stroke-width: 1024;
       }
       }
       #make-me-a-hanzi-animation-9 {
         animation: keyframes9 0.566569s both;
         animation-delay: 6.807293s;
         animation-timing-function: linear;
       }
    @keyframes keyframes10 {
      from {
       stroke: black;
       stroke-dashoffset: 599;
       stroke-width: 128;
       }
       66% {
       animation-timing-function: step-end;
       stroke: black;
       stroke-dashoffset: 0;
       stroke-width: 128;
       }
       to {
       stroke: black;
       stroke-width: 1024;
       }
       }
       #make-me-a-hanzi-animation-10 {
         animation: keyframes10 0.737467s both;
         animation-delay: 7.373862s;
         animation-timing-function: linear;
       }
    @keyframes keyframes11 {
      from {
       stroke: black;
       stroke-dashoffset: 814;
       stroke-width: 128;
       }
       73% {
       animation-timing-function: step-end;
       stroke: black;
       stroke-dashoffset: 0;
       stroke-width: 128;
       }
       to {
       stroke: black;
       stroke-width: 1024;
       }
       }
       #make-me-a-hanzi-animation-11 {
         animation: keyframes11 0.912435s both;
         animation-delay: 8.111329s;
         animation-timing-function: linear;
       }
    @keyframes keyframes12 {
      from {
       stroke: black;
       stroke-dashoffset: 409;
       stroke-width: 128;
       }
       57% {
       animation-timing-function: step-end;
       stroke: black;
       stroke-dashoffset: 0;
       stroke-width: 128;
       }
       to {
       stroke: black;
       stroke-width: 1024;
       }
       }
       #make-me-a-hanzi-animation-12 {
         animation: keyframes12 0.582845s both;
         animation-delay: 9.023764s;
         animation-timing-function: linear;
       }
    @keyframes keyframes13 {
      from {
       stroke: black;
       stroke-dashoffset: 409;
       stroke-width: 128;
       }
       57% {
       animation-timing-function: step-end;
       stroke: black;
       stroke-dashoffset: 0;
       stroke-width: 128;
       }
       to {
       stroke: black;
       stroke-width: 1024;
       }
       }
       #make-me-a-hanzi-animation-13 {
         animation: keyframes13 0.582845s both;
         animation-delay: 9.606609s;
         animation-timing-function: linear;
       }
    @keyframes keyframes14 {
      from {
       stroke: black;
       stroke-dashoffset: 1170;
       stroke-width: 128;
       }
       79% {
       animation-timing-function: step-end;
       stroke: black;
       stroke-dashoffset: 0;
       stroke-width: 128;
       }
       to {
       stroke: black;
       stroke-width: 1024;
       }
       }
       #make-me-a-hanzi-animation-14 {
         animation: keyframes14 1.202148s both;
         animation-delay: 10.189454s;
         animation-timing-function: linear;
       }
    @keyframes keyframes15 {
      from {
       stroke: black;
       stroke-dashoffset: 1010;
       stroke-width: 128;
       }
       77% {
       animation-timing-function: step-end;
       stroke: black;
       stroke-dashoffset: 0;
       stroke-width: 128;
       }
       to {
       stroke: black;
       stroke-width: 1024;
       }
       }
       #make-me-a-hanzi-animation-15 {
         animation: keyframes15 1.071940s both;
         animation-delay: 11.391602s;
         animation-timing-function: linear;
       }
    @keyframes keyframes16 {
      from {
       stroke: black;
       stroke-dashoffset: 575;
       stroke-width: 128;
       }
       65% {
       animation-timing-function: step-end;
       stroke: black;
       stroke-dashoffset: 0;
       stroke-width: 128;
       }
       to {
       stroke: black;
       stroke-width: 1024;
       }
       }
       #make-me-a-hanzi-animation-16 {
         animation: keyframes16 0.717936s both;
         animation-delay: 12.463542s;
         animation-timing-function: linear;
       }
    @keyframes keyframes17 {
      from {
       stroke: black;
       stroke-dashoffset: 812;
       stroke-width: 128;
       }
       73% {
       animation-timing-function: step-end;
       stroke: black;
       stroke-dashoffset: 0;
       stroke-width: 128;
       }
       to {
       stroke: black;
       stroke-width: 1024;
       }
       }
       #make-me-a-hanzi-animation-17 {
         animation: keyframes17 0.910807s both;
         animation-delay: 13.181478s;
         animation-timing-function: linear;
       }
</style>
<path d="M 276.5 446.5 Q 221.5 443.5 168.5 438.5 Q 210.5 508.5 229.5 548.5 Q 253.5 594.5 285.5 646.5 Q 296.5 661.5 296.5 671.5 Q 296.5 688.5 271.5 711.5 Q 246.5 736.5 231.5 736.5 Q 219.5 736.5 219.5 728.5 Q 219.5 681.5 204.5 621.5 Q 191.5 559.5 166.5 508.5 Q 148.5 462.5 116.5 440.5 Q 98.5 432.5 95.5 415.5 Q 101.5 373.5 128.5 371.5 Q 132.5 371.5 144.5 379.5 Q 176.5 400.5 204.5 406.5 Q 226.5 412.5 259.5 416.5 C 289.5 420.5 306.5 448.5 276.5 446.5 Z" fill="lightgray"></path> 
<path d="M 319.5 560.5 Q 307.5 559.5 307.5 543.5 Q 307.5 499.5 283.5 456.5 Q 280.5 451.5 276.5 446.5 L 259.5 416.5 Q 226.5 361.5 181.5 300.5 Q 149.5 259.5 112.5 243.5 Q 96.5 242.5 95.5 239.5 Q 95.5 224.5 107.5 209.5 Q 124.5 184.5 143.5 184.5 Q 154.5 184.5 172.5 197.5 Q 224.5 236.5 368.5 291.5 Q 376.5 294.5 376.5 304.5 Q 376.5 311.5 355.5 312.5 Q 348.5 310.5 204.5 269.5 Q 332.5 447.5 362.5 484.5 Q 374.5 493.5 376.5 503.5 Q 374.5 518.5 354.5 537.5 Q 331.5 559.5 319.5 560.5 Z" fill="lightgray"></path> 
<path d="M 376.5 188.5 Q 371.5 188.5 318.5 159.5 Q 149.5 78.5 95.5 70.5 Q 72.5 67.5 72.5 56.5 Q 72.5 47.5 94.5 24.5 Q 124.5 -0.5 143.5 -0.5 Q 147.5 -0.5 173.5 28.5 Q 217.5 66.5 348.5 147.5 Q 388.5 170.5 388.5 184.5 Q 388.5 188.5 376.5 188.5 Z" fill="lightgray"></path> 
<path d="M 592.5 759.5 L 571.5 759.5 Q 571.5 753.5 594.5 715.5 Q 626.5 654.5 653.5 642.5 C 670.5 633.5 670.5 633.5 679.5 646.5 Q 687.5 655.5 687.5 679.5 Q 687.5 699.5 675.5 718.5 Q 664.5 737.5 627.5 752.5 L 592.5 759.5 Z" fill="lightgray"></path> 
<path d="M 486.5 612.5 Q 485.5 626.5 476.5 641.5 Q 465.5 656.5 456.5 656.5 Q 451.5 656.5 446.5 629.5 Q 438.5 590.5 416.5 550.5 Q 395.5 514.5 395.5 484.5 Q 395.5 455.5 416.5 455.5 Q 444.5 455.5 469.5 530.5 Q 479.5 560.5 483.5 580.5 L 486.5 612.5 Z" fill="lightgray"></path> 
<path d="M 653.5 642.5 L 486.5 612.5 C 456.5 607.5 453.5 582.5 483.5 580.5 Q 493.5 579.5 504.5 579.5 Q 513.5 579.5 535.5 584.5 Q 588.5 599.5 699.5 614.5 Q 786.5 623.5 808.5 623.5 Q 827.5 623.5 827.5 612.5 Q 827.5 602.5 791.5 532.5 Q 791.5 528.5 800.5 528.5 Q 803.5 528.5 817.5 538.5 Q 892.5 587.5 927.5 600.5 Q 951.5 610.5 951.5 623.5 Q 951.5 638.5 914.5 663.5 Q 876.5 692.5 852.5 692.5 Q 845.5 692.5 825.5 680.5 Q 783.5 663.5 727.5 655.5 L 679.5 646.5 L 653.5 642.5 Z" fill="lightgray"></path> 
<path d="M 504.5 535.5 Q 491.5 535.5 491.5 524.5 Q 496.5 507.5 496.5 488.5 Q 496.5 457.5 473.5 403.5 Q 439.5 328.5 381.5 259.5 Q 363.5 238.5 363.5 235.5 Q 363.5 232.5 368.5 232.5 Q 385.5 232.5 437.5 278.5 Q 457.5 295.5 473.5 315.5 L 496.5 343.5 Q 519.5 371.5 536.5 406.5 Q 563.5 457.5 570.5 466.5 Q 575.5 473.5 575.5 476.5 Q 575.5 488.5 544.5 516.5 Q 511.5 535.5 504.5 535.5 Z" fill="lightgray"></path> 
<path d="M 473.5 315.5 Q 479.5 279.5 479.5 257.5 Q 479.5 130.5 473.5 62.5 Q 460.5 -13.5 460.5 -23.5 Q 461.5 -43.5 473.5 -62.5 Q 485.5 -83.5 500.5 -83.5 Q 511.5 -83.5 516.5 -61.5 Q 519.5 -38.5 519.5 -12.5 L 519.5 308.5 Q 519.5 323.5 500.5 339.5 Q 499.5 340.5 496.5 343.5 C 474.5 364.5 468.5 345.5 473.5 315.5 Z" fill="lightgray"></path> 
<path d="M 852.5 491.5 Q 832.5 491.5 813.5 485.5 Q 720.5 458.5 652.5 445.5 Q 621.5 438.5 588.5 436.5 Q 564.5 436.5 563.5 423.5 Q 565.5 418.5 578.5 412.5 Q 603.5 401.5 628.5 400.5 Q 638.5 400.5 661.5 406.5 L 689.5 412.5 L 730.5 420.5 Q 758.5 425.5 789.5 432.5 Q 835.5 438.5 892.5 440.5 Q 915.5 440.5 915.5 455.5 Q 915.5 469.5 897.5 481.5 Q 876.5 491.5 852.5 491.5 Z" fill="lightgray"></path> 
<path d="M 689.5 412.5 Q 691.5 404.5 691.5 396.5 Q 691.5 377.5 687.5 353.5 Q 682.5 320.5 674.5 294.5 Q 674.5 293.5 673.5 291.5 C 664.5 262.5 680.5 273.5 699.5 296.5 Q 701.5 298.5 705.5 304.5 Q 723.5 323.5 738.5 350.5 Q 754.5 375.5 759.5 385.5 Q 764.5 390.5 764.5 392.5 Q 764.5 402.5 730.5 420.5 C 704.5 434.5 683.5 441.5 689.5 412.5 Z" fill="lightgray"></path> 
<path d="M 646.5 287.5 Q 638.5 300.5 622.5 303.5 Q 599.5 312.5 588.5 312.5 Q 579.5 312.5 579.5 300.5 Q 579.5 295.5 588.5 282.5 Q 614.5 238.5 614.5 140.5 Q 614.5 121.5 610.5 83.5 Q 600.5 32.5 600.5 20.5 Q 600.5 8.5 612.5 -11.5 Q 630.5 -35.5 640.5 -35.5 Q 653.5 -35.5 655.5 5.5 L 655.5 39.5 L 655.5 149.5 L 655.5 168.5 L 655.5 255.5 Q 655.5 258.5 654.5 261.5 L 646.5 287.5 Z" fill="lightgray"></path> 
<path d="M 673.5 291.5 Q 658.5 288.5 646.5 287.5 C 616.5 283.5 624.5 256.5 654.5 261.5 Q 659.5 261.5 667.5 263.5 Q 684.5 267.5 783.5 283.5 Q 819.5 283.5 819.5 232.5 L 819.5 186.5 L 819.5 163.5 Q 818.5 106.5 816.5 76.5 Q 815.5 62.5 812.5 53.5 C 806.5 24.5 765.5 46.5 779.5 19.5 Q 804.5 -27.5 814.5 -55.5 Q 822.5 -75.5 827.5 -75.5 Q 843.5 -75.5 864.5 -25.5 Q 879.5 8.5 879.5 108.5 Q 879.5 131.5 878.5 156.5 Q 878.5 224.5 892.5 259.5 Q 900.5 274.5 900.5 279.5 Q 900.5 294.5 862.5 315.5 Q 831.5 331.5 815.5 331.5 Q 811.5 331.5 801.5 326.5 Q 786.5 318.5 720.5 302.5 Q 711.5 300.5 699.5 296.5 L 673.5 291.5 Z" fill="lightgray"></path> 
<path d="M 655.5 149.5 Q 674.5 144.5 691.5 144.5 Q 707.5 144.5 812.5 159.5 Q 816.5 160.5 819.5 163.5 C 835.5 174.5 835.5 174.5 819.5 186.5 Q 812.5 194.5 787.5 195.5 Q 777.5 195.5 765.5 192.5 Q 700.5 177.5 655.5 168.5 C 626.5 162.5 626.5 156.5 655.5 149.5 Z" fill="lightgray"></path> 
<path d="M 655.5 5.5 Q 658.5 4.5 663.5 4.5 Q 720.5 12.5 779.5 19.5 C 809.5 23.5 837.5 37.5 812.5 53.5 Q 810.5 54.5 806.5 57.5 Q 791.5 64.5 772.5 64.5 Q 766.5 64.5 655.5 39.5 C 626.5 32.5 625.5 10.5 655.5 5.5 Z" fill="lightgray"></path> 
<path d="M 1540.0 399.5 L 1550.0 559.5 Q 1552.0 597.5 1555.0 618.5 L 1560.0 635.5 Q 1560.0 649.5 1570.0 671.5 Q 1581.0 693.5 1579.0 698.5 Q 1578.0 703.5 1571.0 714.5 Q 1564.0 724.5 1547.0 731.5 L 1513.0 745.5 Q 1479.0 759.5 1472.0 754.5 Q 1468.0 753.5 1464.0 747.5 Q 1462.0 740.5 1465.0 733.5 L 1471.0 713.5 Q 1475.0 692.5 1478.0 665.5 Q 1479.0 632.5 1481.0 618.5 L 1483.0 570.5 Q 1484.0 555.5 1484.0 511.5 L 1478.0 183.5 Q 1479.0 166.5 1477.0 114.5 L 1474.0 70.5 Q 1473.0 55.5 1467.0 49.5 Q 1453.0 37.5 1438.0 40.5 Q 1424.0 42.5 1389.0 50.5 L 1359.0 56.5 Q 1349.0 59.5 1346.0 54.5 Q 1344.0 49.5 1352.0 43.5 L 1383.0 19.5 Q 1404.0 2.5 1408.0 -2.5 Q 1413.0 -7.5 1444.0 -44.5 Q 1476.0 -82.5 1487.0 -82.5 Q 1497.0 -83.5 1515.0 -60.5 L 1530.0 -30.5 Q 1543.0 -5.5 1545.0 37.5 L 1541.0 140.5 L 1539.0 352.5 L 1540.0 399.5 Z" fill="lightgray"></path> 
<path d="M 1086.0 76.5 L 1108.0 83.5 Q 1129.0 89.5 1163.0 107.5 Q 1198.0 125.5 1222.0 146.5 Q 1247.0 167.5 1286.0 212.5 Q 1325.0 257.5 1366.0 327.5 L 1396.0 378.5 L 1410.0 395.5 L 1432.0 418.5 Q 1440.0 425.5 1442.0 430.5 Q 1442.0 437.5 1438.0 442.5 Q 1434.0 447.5 1419.0 462.5 Q 1405.0 476.5 1394.0 483.5 L 1384.0 488.5 Q 1382.0 488.5 1380.0 490.5 L 1378.0 491.5 Q 1373.0 491.5 1345.0 480.5 Q 1317.0 469.5 1288.0 465.5 Q 1253.0 456.5 1215.0 451.5 L 1184.0 447.5 Q 1179.0 445.5 1167.0 445.5 L 1141.0 443.5 Q 1123.0 442.5 1119.0 436.5 Q 1116.0 429.5 1136.0 417.5 Q 1159.0 399.5 1176.0 399.5 Q 1194.0 399.5 1215.0 405.5 L 1308.0 429.5 Q 1318.0 433.5 1330.0 434.5 Q 1342.0 435.5 1343.0 432.5 Q 1345.0 429.5 1341.0 414.5 Q 1338.0 399.5 1323.0 371.5 Q 1308.0 343.5 1273.0 291.5 Q 1239.0 238.5 1218.0 216.5 Q 1198.0 193.5 1172.0 167.5 L 1128.0 129.5 Q 1101.0 103.5 1098.0 102.5 L 1080.0 89.5 Q 1068.0 80.5 1071.0 76.5 Q 1072.0 72.5 1086.0 76.5 Z" fill="lightgray"></path> 
<path d="M 1715.0 607.5 L 1709.0 581.5 Q 1704.0 557.5 1644.0 491.5 L 1604.0 449.5 L 1547.0 393.5 C 1526.0 372.5 1529.0 371.5 1555.0 385.5 L 1663.0 444.5 Q 1675.0 451.5 1709.0 475.5 L 1763.0 515.5 Q 1790.0 534.5 1806.0 540.5 Q 1823.0 546.5 1824.0 550.5 L 1826.0 557.5 Q 1826.0 571.5 1795.0 590.5 Q 1764.0 608.5 1746.0 611.5 Q 1729.0 613.5 1727.0 615.5 L 1725.0 615.5 Q 1715.0 609.5 1715.0 607.5 Z" fill="lightgray"></path> 
<path d="M 1547.0 393.5 L 1540.0 399.5 C 1518.0 419.5 1520.0 375.5 1539.0 352.5 L 1631.0 238.5 Q 1667.0 193.5 1677.0 183.5 L 1723.0 133.5 Q 1753.0 99.5 1769.0 90.5 Q 1785.0 81.5 1814.0 79.5 L 1924.0 85.5 L 1960.0 92.5 L 1992.0 100.5 Q 2004.0 105.5 2004.0 109.5 Q 2004.0 114.5 1993.0 118.5 L 1966.0 129.5 L 1906.0 149.5 L 1852.0 173.5 Q 1799.0 198.5 1738.0 231.5 Q 1659.0 281.5 1555.0 385.5 L 1547.0 393.5 Z" fill="lightgray"></path> 
      <clipPath id="make-me-a-hanzi-clip-0">
      <path d="M 276.5 446.5 Q 221.5 443.5 168.5 438.5 Q 210.5 508.5 229.5 548.5 Q 253.5 594.5 285.5 646.5 Q 296.5 661.5 296.5 671.5 Q 296.5 688.5 271.5 711.5 Q 246.5 736.5 231.5 736.5 Q 219.5 736.5 219.5 728.5 Q 219.5 681.5 204.5 621.5 Q 191.5 559.5 166.5 508.5 Q 148.5 462.5 116.5 440.5 Q 98.5 432.5 95.5 415.5 Q 101.5 373.5 128.5 371.5 Q 132.5 371.5 144.5 379.5 Q 176.5 400.5 204.5 406.5 Q 226.5 412.5 259.5 416.5 C 289.5 420.5 306.5 448.5 276.5 446.5 Z" fill="lightgray"></path>
      </clipPath>
      <path clip-path="url(#make-me-a-hanzi-clip-0)" d="M 232.5 721.5 L 254.5 671.5 L 198.5 529.5 L 146.5 438.5 L 141.5 417.5 L 249.5 429.5 L 268.5 444.5 " fill="none" id="make-me-a-hanzi-animation-0" stroke-dasharray="595 1190" stroke-linecap="round"></path>

      <clipPath id="make-me-a-hanzi-clip-1">
      <path d="M 319.5 560.5 Q 307.5 559.5 307.5 543.5 Q 307.5 499.5 283.5 456.5 Q 280.5 451.5 276.5 446.5 L 259.5 416.5 Q 226.5 361.5 181.5 300.5 Q 149.5 259.5 112.5 243.5 Q 96.5 242.5 95.5 239.5 Q 95.5 224.5 107.5 209.5 Q 124.5 184.5 143.5 184.5 Q 154.5 184.5 172.5 197.5 Q 224.5 236.5 368.5 291.5 Q 376.5 294.5 376.5 304.5 Q 376.5 311.5 355.5 312.5 Q 348.5 310.5 204.5 269.5 Q 332.5 447.5 362.5 484.5 Q 374.5 493.5 376.5 503.5 Q 374.5 518.5 354.5 537.5 Q 331.5 559.5 319.5 560.5 Z" fill="lightgray"></path>
      </clipPath>
      <path clip-path="url(#make-me-a-hanzi-clip-1)" d="M 320.5 547.5 L 337.5 507.5 L 332.5 495.5 L 272.5 396.5 L 189.5 282.5 L 178.5 244.5 L 204.5 244.5 L 248.5 264.5 L 367.5 301.5 " fill="none" id="make-me-a-hanzi-animation-1" stroke-dasharray="680 1360" stroke-linecap="round"></path>

      <clipPath id="make-me-a-hanzi-clip-2">
      <path d="M 376.5 188.5 Q 371.5 188.5 318.5 159.5 Q 149.5 78.5 95.5 70.5 Q 72.5 67.5 72.5 56.5 Q 72.5 47.5 94.5 24.5 Q 124.5 -0.5 143.5 -0.5 Q 147.5 -0.5 173.5 28.5 Q 217.5 66.5 348.5 147.5 Q 388.5 170.5 388.5 184.5 Q 388.5 188.5 376.5 188.5 Z" fill="lightgray"></path>
      </clipPath>
      <path clip-path="url(#make-me-a-hanzi-clip-2)" d="M 83.5 55.5 L 134.5 41.5 L 381.5 182.5 " fill="none" id="make-me-a-hanzi-animation-2" stroke-dasharray="465 930" stroke-linecap="round"></path>

      <clipPath id="make-me-a-hanzi-clip-3">
      <path d="M 592.5 759.5 L 571.5 759.5 Q 571.5 753.5 594.5 715.5 Q 626.5 654.5 653.5 642.5 C 670.5 633.5 670.5 633.5 679.5 646.5 Q 687.5 655.5 687.5 679.5 Q 687.5 699.5 675.5 718.5 Q 664.5 737.5 627.5 752.5 L 592.5 759.5 Z" fill="lightgray"></path>
      </clipPath>
      <path clip-path="url(#make-me-a-hanzi-clip-3)" d="M 576.5 758.5 L 634.5 712.5 L 671.5 656.5 " fill="none" id="make-me-a-hanzi-animation-3" stroke-dasharray="269 538" stroke-linecap="round"></path>

      <clipPath id="make-me-a-hanzi-clip-4">
      <path d="M 486.5 612.5 Q 485.5 626.5 476.5 641.5 Q 465.5 656.5 456.5 656.5 Q 451.5 656.5 446.5 629.5 Q 438.5 590.5 416.5 550.5 Q 395.5 514.5 395.5 484.5 Q 395.5 455.5 416.5 455.5 Q 444.5 455.5 469.5 530.5 Q 479.5 560.5 483.5 580.5 L 486.5 612.5 Z" fill="lightgray"></path>
      </clipPath>
      <path clip-path="url(#make-me-a-hanzi-clip-4)" d="M 459.5 649.5 L 465.5 615.5 L 458.5 580.5 L 415.5 473.5 " fill="none" id="make-me-a-hanzi-animation-4" stroke-dasharray="314 628" stroke-linecap="round"></path>

      <clipPath id="make-me-a-hanzi-clip-5">
      <path d="M 653.5 642.5 L 486.5 612.5 C 456.5 607.5 453.5 582.5 483.5 580.5 Q 493.5 579.5 504.5 579.5 Q 513.5 579.5 535.5 584.5 Q 588.5 599.5 699.5 614.5 Q 786.5 623.5 808.5 623.5 Q 827.5 623.5 827.5 612.5 Q 827.5 602.5 791.5 532.5 Q 791.5 528.5 800.5 528.5 Q 803.5 528.5 817.5 538.5 Q 892.5 587.5 927.5 600.5 Q 951.5 610.5 951.5 623.5 Q 951.5 638.5 914.5 663.5 Q 876.5 692.5 852.5 692.5 Q 845.5 692.5 825.5 680.5 Q 783.5 663.5 727.5 655.5 L 679.5 646.5 L 653.5 642.5 Z" fill="lightgray"></path>
      </clipPath>
      <path clip-path="url(#make-me-a-hanzi-clip-5)" d="M 489.5 585.5 L 502.5 597.5 L 603.5 617.5 L 814.5 649.5 L 856.5 648.5 L 874.5 630.5 L 869.5 618.5 L 847.5 586.5 L 799.5 538.5 " fill="none" id="make-me-a-hanzi-animation-5" stroke-dasharray="649 1298" stroke-linecap="round"></path>

      <clipPath id="make-me-a-hanzi-clip-6">
      <path d="M 504.5 535.5 Q 491.5 535.5 491.5 524.5 Q 496.5 507.5 496.5 488.5 Q 496.5 457.5 473.5 403.5 Q 439.5 328.5 381.5 259.5 Q 363.5 238.5 363.5 235.5 Q 363.5 232.5 368.5 232.5 Q 385.5 232.5 437.5 278.5 Q 457.5 295.5 473.5 315.5 L 496.5 343.5 Q 519.5 371.5 536.5 406.5 Q 563.5 457.5 570.5 466.5 Q 575.5 473.5 575.5 476.5 Q 575.5 488.5 544.5 516.5 Q 511.5 535.5 504.5 535.5 Z" fill="lightgray"></path>
      </clipPath>
      <path clip-path="url(#make-me-a-hanzi-clip-6)" d="M 502.5 525.5 L 522.5 500.5 L 532.5 475.5 L 516.5 429.5 L 454.5 323.5 L 406.5 268.5 L 368.5 237.5 " fill="none" id="make-me-a-hanzi-animation-6" stroke-dasharray="480 960" stroke-linecap="round"></path>

      <clipPath id="make-me-a-hanzi-clip-7">
      <path d="M 473.5 315.5 Q 479.5 279.5 479.5 257.5 Q 479.5 130.5 473.5 62.5 Q 460.5 -13.5 460.5 -23.5 Q 461.5 -43.5 473.5 -62.5 Q 485.5 -83.5 500.5 -83.5 Q 511.5 -83.5 516.5 -61.5 Q 519.5 -38.5 519.5 -12.5 L 519.5 308.5 Q 519.5 323.5 500.5 339.5 Q 499.5 340.5 496.5 343.5 C 474.5 364.5 468.5 345.5 473.5 315.5 Z" fill="lightgray"></path>
      </clipPath>
      <path clip-path="url(#make-me-a-hanzi-clip-7)" d="M 494.5 337.5 L 500.5 270.5 L 499.5 148.5 L 489.5 -26.5 L 498.5 -69.5 " fill="none" id="make-me-a-hanzi-animation-7" stroke-dasharray="536 1072" stroke-linecap="round"></path>

      <clipPath id="make-me-a-hanzi-clip-8">
      <path d="M 852.5 491.5 Q 832.5 491.5 813.5 485.5 Q 720.5 458.5 652.5 445.5 Q 621.5 438.5 588.5 436.5 Q 564.5 436.5 563.5 423.5 Q 565.5 418.5 578.5 412.5 Q 603.5 401.5 628.5 400.5 Q 638.5 400.5 661.5 406.5 L 689.5 412.5 L 730.5 420.5 Q 758.5 425.5 789.5 432.5 Q 835.5 438.5 892.5 440.5 Q 915.5 440.5 915.5 455.5 Q 915.5 469.5 897.5 481.5 Q 876.5 491.5 852.5 491.5 Z" fill="lightgray"></path>
      </clipPath>
      <path clip-path="url(#make-me-a-hanzi-clip-8)" d="M 571.5 425.5 L 630.5 420.5 L 847.5 465.5 L 898.5 457.5 " fill="none" id="make-me-a-hanzi-animation-8" stroke-dasharray="460 920" stroke-linecap="round"></path>

      <clipPath id="make-me-a-hanzi-clip-9">
      <path d="M 689.5 412.5 Q 691.5 404.5 691.5 396.5 Q 691.5 377.5 687.5 353.5 Q 682.5 320.5 674.5 294.5 Q 674.5 293.5 673.5 291.5 C 664.5 262.5 680.5 273.5 699.5 296.5 Q 701.5 298.5 705.5 304.5 Q 723.5 323.5 738.5 350.5 Q 754.5 375.5 759.5 385.5 Q 764.5 390.5 764.5 392.5 Q 764.5 402.5 730.5 420.5 C 704.5 434.5 683.5 441.5 689.5 412.5 Z" fill="lightgray"></path>
      </clipPath>
      <path clip-path="url(#make-me-a-hanzi-clip-9)" d="M 697.5 409.5 L 723.5 386.5 L 698.5 319.5 L 680.5 299.5 " fill="none" id="make-me-a-hanzi-animation-9" stroke-dasharray="261 522" stroke-linecap="round"></path>

      <clipPath id="make-me-a-hanzi-clip-10">
      <path d="M 646.5 287.5 Q 638.5 300.5 622.5 303.5 Q 599.5 312.5 588.5 312.5 Q 579.5 312.5 579.5 300.5 Q 579.5 295.5 588.5 282.5 Q 614.5 238.5 614.5 140.5 Q 614.5 121.5 610.5 83.5 Q 600.5 32.5 600.5 20.5 Q 600.5 8.5 612.5 -11.5 Q 630.5 -35.5 640.5 -35.5 Q 653.5 -35.5 655.5 5.5 L 655.5 39.5 L 655.5 149.5 L 655.5 168.5 L 655.5 255.5 Q 655.5 258.5 654.5 261.5 L 646.5 287.5 Z" fill="lightgray"></path>
      </clipPath>
      <path clip-path="url(#make-me-a-hanzi-clip-10)" d="M 591.5 300.5 L 623.5 273.5 L 629.5 248.5 L 635.5 141.5 L 628.5 15.5 L 639.5 -25.5 " fill="none" id="make-me-a-hanzi-animation-10" stroke-dasharray="471 942" stroke-linecap="round"></path>

      <clipPath id="make-me-a-hanzi-clip-11">
      <path d="M 673.5 291.5 Q 658.5 288.5 646.5 287.5 C 616.5 283.5 624.5 256.5 654.5 261.5 Q 659.5 261.5 667.5 263.5 Q 684.5 267.5 783.5 283.5 Q 819.5 283.5 819.5 232.5 L 819.5 186.5 L 819.5 163.5 Q 818.5 106.5 816.5 76.5 Q 815.5 62.5 812.5 53.5 C 806.5 24.5 765.5 46.5 779.5 19.5 Q 804.5 -27.5 814.5 -55.5 Q 822.5 -75.5 827.5 -75.5 Q 843.5 -75.5 864.5 -25.5 Q 879.5 8.5 879.5 108.5 Q 879.5 131.5 878.5 156.5 Q 878.5 224.5 892.5 259.5 Q 900.5 274.5 900.5 279.5 Q 900.5 294.5 862.5 315.5 Q 831.5 331.5 815.5 331.5 Q 811.5 331.5 801.5 326.5 Q 786.5 318.5 720.5 302.5 Q 711.5 300.5 699.5 296.5 L 673.5 291.5 Z" fill="lightgray"></path>
      </clipPath>
      <path clip-path="url(#make-me-a-hanzi-clip-11)" d="M 653.5 282.5 L 663.5 276.5 L 808.5 303.5 L 830.5 295.5 L 853.5 273.5 L 847.5 59.5 L 831.5 11.5 L 829.5 -67.5 " fill="none" id="make-me-a-hanzi-animation-11" stroke-dasharray="686 1372" stroke-linecap="round"></path>

      <clipPath id="make-me-a-hanzi-clip-12">
      <path d="M 655.5 149.5 Q 674.5 144.5 691.5 144.5 Q 707.5 144.5 812.5 159.5 Q 816.5 160.5 819.5 163.5 C 835.5 174.5 835.5 174.5 819.5 186.5 Q 812.5 194.5 787.5 195.5 Q 777.5 195.5 765.5 192.5 Q 700.5 177.5 655.5 168.5 C 626.5 162.5 626.5 156.5 655.5 149.5 Z" fill="lightgray"></path>
      </clipPath>
      <path clip-path="url(#make-me-a-hanzi-clip-12)" d="M 662.5 163.5 L 667.5 158.5 L 686.5 159.5 L 783.5 175.5 L 811.5 169.5 " fill="none" id="make-me-a-hanzi-animation-12" stroke-dasharray="281 562" stroke-linecap="round"></path>

      <clipPath id="make-me-a-hanzi-clip-13">
      <path d="M 655.5 5.5 Q 658.5 4.5 663.5 4.5 Q 720.5 12.5 779.5 19.5 C 809.5 23.5 837.5 37.5 812.5 53.5 Q 810.5 54.5 806.5 57.5 Q 791.5 64.5 772.5 64.5 Q 766.5 64.5 655.5 39.5 C 626.5 32.5 625.5 10.5 655.5 5.5 Z" fill="lightgray"></path>
      </clipPath>
      <path clip-path="url(#make-me-a-hanzi-clip-13)" d="M 660.5 11.5 L 675.5 26.5 L 805.5 49.5 " fill="none" id="make-me-a-hanzi-animation-13" stroke-dasharray="281 562" stroke-linecap="round"></path>

      <clipPath id="make-me-a-hanzi-clip-14">
      <path d="M 1540.0 399.5 L 1550.0 559.5 Q 1552.0 597.5 1555.0 618.5 L 1560.0 635.5 Q 1560.0 649.5 1570.0 671.5 Q 1581.0 693.5 1579.0 698.5 Q 1578.0 703.5 1571.0 714.5 Q 1564.0 724.5 1547.0 731.5 L 1513.0 745.5 Q 1479.0 759.5 1472.0 754.5 Q 1468.0 753.5 1464.0 747.5 Q 1462.0 740.5 1465.0 733.5 L 1471.0 713.5 Q 1475.0 692.5 1478.0 665.5 Q 1479.0 632.5 1481.0 618.5 L 1483.0 570.5 Q 1484.0 555.5 1484.0 511.5 L 1478.0 183.5 Q 1479.0 166.5 1477.0 114.5 L 1474.0 70.5 Q 1473.0 55.5 1467.0 49.5 Q 1453.0 37.5 1438.0 40.5 Q 1424.0 42.5 1389.0 50.5 L 1359.0 56.5 Q 1349.0 59.5 1346.0 54.5 Q 1344.0 49.5 1352.0 43.5 L 1383.0 19.5 Q 1404.0 2.5 1408.0 -2.5 Q 1413.0 -7.5 1444.0 -44.5 Q 1476.0 -82.5 1487.0 -82.5 Q 1497.0 -83.5 1515.0 -60.5 L 1530.0 -30.5 Q 1543.0 -5.5 1545.0 37.5 L 1541.0 140.5 L 1539.0 352.5 L 1540.0 399.5 Z" fill="lightgray"></path>
      </clipPath>
      <path clip-path="url(#make-me-a-hanzi-clip-14)" d="M 1476.0 741.5 L 1524.0 688.5 L 1511.0 408.5 L 1507.0 43.5 L 1500.0 19.5 L 1482.0 -5.5 L 1353.0 51.5 " fill="none" id="make-me-a-hanzi-animation-14" stroke-dasharray="1042 2084" stroke-linecap="round"></path>

      <clipPath id="make-me-a-hanzi-clip-15">
      <path d="M 1086.0 76.5 L 1108.0 83.5 Q 1129.0 89.5 1163.0 107.5 Q 1198.0 125.5 1222.0 146.5 Q 1247.0 167.5 1286.0 212.5 Q 1325.0 257.5 1366.0 327.5 L 1396.0 378.5 L 1410.0 395.5 L 1432.0 418.5 Q 1440.0 425.5 1442.0 430.5 Q 1442.0 437.5 1438.0 442.5 Q 1434.0 447.5 1419.0 462.5 Q 1405.0 476.5 1394.0 483.5 L 1384.0 488.5 Q 1382.0 488.5 1380.0 490.5 L 1378.0 491.5 Q 1373.0 491.5 1345.0 480.5 Q 1317.0 469.5 1288.0 465.5 Q 1253.0 456.5 1215.0 451.5 L 1184.0 447.5 Q 1179.0 445.5 1167.0 445.5 L 1141.0 443.5 Q 1123.0 442.5 1119.0 436.5 Q 1116.0 429.5 1136.0 417.5 Q 1159.0 399.5 1176.0 399.5 Q 1194.0 399.5 1215.0 405.5 L 1308.0 429.5 Q 1318.0 433.5 1330.0 434.5 Q 1342.0 435.5 1343.0 432.5 Q 1345.0 429.5 1341.0 414.5 Q 1338.0 399.5 1323.0 371.5 Q 1308.0 343.5 1273.0 291.5 Q 1239.0 238.5 1218.0 216.5 Q 1198.0 193.5 1172.0 167.5 L 1128.0 129.5 Q 1101.0 103.5 1098.0 102.5 L 1080.0 89.5 Q 1068.0 80.5 1071.0 76.5 Q 1072.0 72.5 1086.0 76.5 Z" fill="lightgray"></path>
      </clipPath>
      <path clip-path="url(#make-me-a-hanzi-clip-15)" d="M 1126.0 434.5 L 1181.0 422.5 L 1346.0 456.5 L 1376.0 450.5 L 1387.0 433.5 L 1337.0 334.5 L 1248.0 209.5 L 1182.0 145.5 L 1079.0 80.5 " fill="none" id="make-me-a-hanzi-animation-15" stroke-dasharray="882 1764" stroke-linecap="round"></path>

      <clipPath id="make-me-a-hanzi-clip-16">
      <path d="M 1715.0 607.5 L 1709.0 581.5 Q 1704.0 557.5 1644.0 491.5 L 1604.0 449.5 L 1547.0 393.5 C 1526.0 372.5 1529.0 371.5 1555.0 385.5 L 1663.0 444.5 Q 1675.0 451.5 1709.0 475.5 L 1763.0 515.5 Q 1790.0 534.5 1806.0 540.5 Q 1823.0 546.5 1824.0 550.5 L 1826.0 557.5 Q 1826.0 571.5 1795.0 590.5 Q 1764.0 608.5 1746.0 611.5 Q 1729.0 613.5 1727.0 615.5 L 1725.0 615.5 Q 1715.0 609.5 1715.0 607.5 Z" fill="lightgray"></path>
      </clipPath>
      <path clip-path="url(#make-me-a-hanzi-clip-16)" d="M 1813.0 557.5 L 1789.0 563.5 L 1751.0 562.5 L 1662.0 473.5 L 1557.0 395.5 " fill="none" id="make-me-a-hanzi-animation-16" stroke-dasharray="447 894" stroke-linecap="round"></path>

      <clipPath id="make-me-a-hanzi-clip-17">
      <path d="M 1547.0 393.5 L 1540.0 399.5 C 1518.0 419.5 1520.0 375.5 1539.0 352.5 L 1631.0 238.5 Q 1667.0 193.5 1677.0 183.5 L 1723.0 133.5 Q 1753.0 99.5 1769.0 90.5 Q 1785.0 81.5 1814.0 79.5 L 1924.0 85.5 L 1960.0 92.5 L 1992.0 100.5 Q 2004.0 105.5 2004.0 109.5 Q 2004.0 114.5 1993.0 118.5 L 1966.0 129.5 L 1906.0 149.5 L 1852.0 173.5 Q 1799.0 198.5 1738.0 231.5 Q 1659.0 281.5 1555.0 385.5 L 1547.0 393.5 Z" fill="lightgray"></path>
      </clipPath>
      <path clip-path="url(#make-me-a-hanzi-clip-17)" d="M 1547.0 385.5 L 1557.0 357.5 L 1661.0 248.5 L 1790.0 142.5 L 1819.0 131.5 L 1903.0 116.5 L 1995.0 109.5 " fill="none" id="make-me-a-hanzi-animation-17" stroke-dasharray="684 1368" stroke-linecap="round"></path>

</g>
</svg>
