<svg version="1.1" viewBox="0 0 2048 1024" xmlns="http://www.w3.org/2000/svg">
  <g stroke="lightgray" stroke-dasharray="1,1" stroke-width="1" transform="scale(4, 4)">
    <line x1="0" y1="0" x2="256" y2="256"></line>
    <line x1="256" y1="0" x2="0" y2="256"></line>
    <line x1="128" y1="0" x2="128" y2="256"></line>
    <line x1="0" y1="128" x2="256" y2="128"></line>
    <line x1="256" y1="0" x2="512" y2="256"></line>
    <line x1="512" y1="0" x2="256" y2="256"></line>
    <line x1="384" y1="0" x2="384" y2="256"></line>
    <line x1="256" y1="128" x2="512" y2="128"></line>
  </g>
<g transform="scale(1, -1) translate(0, -850)">
   <style type="text/css">
    @keyframes keyframes0 {
      from {
       stroke: black;
       stroke-dashoffset: 400;
       stroke-width: 128;
       }
       57% {
       animation-timing-function: step-end;
       stroke: black;
       stroke-dashoffset: 0;
       stroke-width: 128;
       }
       to {
       stroke: black;
       stroke-width: 1024;
       }
       }
       #make-me-a-hanzi-animation-0 {
         animation: keyframes0 0.575521s both;
         animation-delay: 0.000000s;
         animation-timing-function: linear;
       }
    @keyframes keyframes1 {
      from {
       stroke: black;
       stroke-dashoffset: 489;
       stroke-width: 128;
       }
       61% {
       animation-timing-function: step-end;
       stroke: black;
       stroke-dashoffset: 0;
       stroke-width: 128;
       }
       to {
       stroke: black;
       stroke-width: 1024;
       }
       }
       #make-me-a-hanzi-animation-1 {
         animation: keyframes1 0.647949s both;
         animation-delay: 0.575521s;
         animation-timing-function: linear;
       }
    @keyframes keyframes2 {
      from {
       stroke: black;
       stroke-dashoffset: 672;
       stroke-width: 128;
       }
       69% {
       animation-timing-function: step-end;
       stroke: black;
       stroke-dashoffset: 0;
       stroke-width: 128;
       }
       to {
       stroke: black;
       stroke-width: 1024;
       }
       }
       #make-me-a-hanzi-animation-2 {
         animation: keyframes2 0.796875s both;
         animation-delay: 1.223470s;
         animation-timing-function: linear;
       }
    @keyframes keyframes3 {
      from {
       stroke: black;
       stroke-dashoffset: 665;
       stroke-width: 128;
       }
       68% {
       animation-timing-function: step-end;
       stroke: black;
       stroke-dashoffset: 0;
       stroke-width: 128;
       }
       to {
       stroke: black;
       stroke-width: 1024;
       }
       }
       #make-me-a-hanzi-animation-3 {
         animation: keyframes3 0.791178s both;
         animation-delay: 2.020345s;
         animation-timing-function: linear;
       }
    @keyframes keyframes4 {
      from {
       stroke: black;
       stroke-dashoffset: 481;
       stroke-width: 128;
       }
       61% {
       animation-timing-function: step-end;
       stroke: black;
       stroke-dashoffset: 0;
       stroke-width: 128;
       }
       to {
       stroke: black;
       stroke-width: 1024;
       }
       }
       #make-me-a-hanzi-animation-4 {
         animation: keyframes4 0.641439s both;
         animation-delay: 2.811523s;
         animation-timing-function: linear;
       }
    @keyframes keyframes5 {
      from {
       stroke: black;
       stroke-dashoffset: 794;
       stroke-width: 128;
       }
       72% {
       animation-timing-function: step-end;
       stroke: black;
       stroke-dashoffset: 0;
       stroke-width: 128;
       }
       to {
       stroke: black;
       stroke-width: 1024;
       }
       }
       #make-me-a-hanzi-animation-5 {
         animation: keyframes5 0.896159s both;
         animation-delay: 3.452962s;
         animation-timing-function: linear;
       }
    @keyframes keyframes6 {
      from {
       stroke: black;
       stroke-dashoffset: 1086;
       stroke-width: 128;
       }
       78% {
       animation-timing-function: step-end;
       stroke: black;
       stroke-dashoffset: 0;
       stroke-width: 128;
       }
       to {
       stroke: black;
       stroke-width: 1024;
       }
       }
       #make-me-a-hanzi-animation-6 {
         animation: keyframes6 1.133789s both;
         animation-delay: 4.349121s;
         animation-timing-function: linear;
       }
    @keyframes keyframes7 {
      from {
       stroke: black;
       stroke-dashoffset: 850;
       stroke-width: 128;
       }
       73% {
       animation-timing-function: step-end;
       stroke: black;
       stroke-dashoffset: 0;
       stroke-width: 128;
       }
       to {
       stroke: black;
       stroke-width: 1024;
       }
       }
       #make-me-a-hanzi-animation-7 {
         animation: keyframes7 0.941732s both;
         animation-delay: 5.482910s;
         animation-timing-function: linear;
       }
    @keyframes keyframes8 {
      from {
       stroke: black;
       stroke-dashoffset: 592;
       stroke-width: 128;
       }
       66% {
       animation-timing-function: step-end;
       stroke: black;
       stroke-dashoffset: 0;
       stroke-width: 128;
       }
       to {
       stroke: black;
       stroke-width: 1024;
       }
       }
       #make-me-a-hanzi-animation-8 {
         animation: keyframes8 0.731771s both;
         animation-delay: 6.424642s;
         animation-timing-function: linear;
       }
    @keyframes keyframes9 {
      from {
       stroke: black;
       stroke-dashoffset: 612;
       stroke-width: 128;
       }
       67% {
       animation-timing-function: step-end;
       stroke: black;
       stroke-dashoffset: 0;
       stroke-width: 128;
       }
       to {
       stroke: black;
       stroke-width: 1024;
       }
       }
       #make-me-a-hanzi-animation-9 {
         animation: keyframes9 0.748047s both;
         animation-delay: 7.156413s;
         animation-timing-function: linear;
       }
    @keyframes keyframes10 {
      from {
       stroke: black;
       stroke-dashoffset: 885;
       stroke-width: 128;
       }
       74% {
       animation-timing-function: step-end;
       stroke: black;
       stroke-dashoffset: 0;
       stroke-width: 128;
       }
       to {
       stroke: black;
       stroke-width: 1024;
       }
       }
       #make-me-a-hanzi-animation-10 {
         animation: keyframes10 0.970215s both;
         animation-delay: 7.904460s;
         animation-timing-function: linear;
       }
    @keyframes keyframes11 {
      from {
       stroke: black;
       stroke-dashoffset: 774;
       stroke-width: 128;
       }
       72% {
       animation-timing-function: step-end;
       stroke: black;
       stroke-dashoffset: 0;
       stroke-width: 128;
       }
       to {
       stroke: black;
       stroke-width: 1024;
       }
       }
       #make-me-a-hanzi-animation-11 {
         animation: keyframes11 0.879883s both;
         animation-delay: 8.874675s;
         animation-timing-function: linear;
       }
    @keyframes keyframes12 {
      from {
       stroke: black;
       stroke-dashoffset: 1169;
       stroke-width: 128;
       }
       79% {
       animation-timing-function: step-end;
       stroke: black;
       stroke-dashoffset: 0;
       stroke-width: 128;
       }
       to {
       stroke: black;
       stroke-width: 1024;
       }
       }
       #make-me-a-hanzi-animation-12 {
         animation: keyframes12 1.201335s both;
         animation-delay: 9.754558s;
         animation-timing-function: linear;
       }
</style>
<path d="M 344.5 677.0 Q 346.5 672.0 360.5 652.0 L 377.5 630.0 Q 396.5 611.0 415.5 622.0 Q 424.5 625.0 430.5 641.5 Q 436.5 658.0 429.5 678.0 Q 422.5 698.0 413.5 708.0 Q 409.5 715.0 388.5 727.0 Q 354.5 750.0 331.5 754.0 Q 308.5 758.0 306.0 755.5 Q 303.5 753.0 305.5 747.0 L 309.5 737.0 L 344.5 677.0 Z" fill="lightgray"></path> 
<path d="M 563.5 651.0 Q 593.5 673.0 601.5 681.0 L 642.5 721.0 L 662.5 737.0 Q 667.5 741.0 678.0 747.5 Q 688.5 754.0 691.5 758.5 Q 694.5 763.0 679.5 775.0 Q 659.5 800.0 619.5 807.0 Q 601.5 810.0 599.5 798.0 Q 598.5 791.0 596.5 776.5 Q 594.5 762.0 573.5 720.0 L 529.5 649.0 Q 526.5 644.0 518.0 633.5 Q 509.5 623.0 513.5 620.0 Q 517.5 617.0 521.5 621.0 Q 534.5 628.0 563.5 651.0 Z" fill="lightgray"></path> 
<path d="M 505.5 550.0 L 519.5 552.0 Q 531.5 552.0 577.5 559.0 Q 622.5 563.0 667.5 576.0 L 689.5 581.0 Q 694.5 581.0 696.5 583.0 L 707.5 587.0 Q 720.5 592.0 703.5 608.0 Q 675.5 625.0 651.5 625.0 L 596.5 611.0 L 534.5 599.0 L 465.5 587.0 Q 357.5 573.0 323.5 570.0 L 291.5 566.0 Q 282.5 565.0 280.5 559.5 Q 278.5 554.0 289.5 547.0 Q 300.5 540.0 324.5 537.0 Q 364.5 535.0 388.5 537.0 L 412.5 539.0 L 441.5 543.0 L 505.5 550.0 Z" fill="lightgray"></path> 
<path d="M 524.5 427.0 L 684.5 453.0 Q 709.5 459.0 709.5 469.0 Q 710.5 476.0 694.5 484.0 Q 676.5 490.0 668.0 494.0 Q 659.5 498.0 648.5 496.0 L 629.5 493.0 L 609.5 486.0 L 573.5 478.0 L 527.5 469.0 L 458.5 459.0 L 401.5 454.0 L 313.5 443.0 L 295.5 442.0 Q 287.5 441.0 285.5 435.5 Q 283.5 430.0 289.5 423.0 Q 293.5 416.0 315.5 411.5 Q 337.5 407.0 382.5 412.0 L 461.5 419.0 L 524.5 427.0 Z" fill="lightgray"></path> 
<path d="M 523.5 343.0 L 524.5 427.0 L 527.5 469.0 L 529.5 491.0 L 537.5 527.0 Q 537.5 533.0 531.5 537.0 Q 524.5 544.0 521.5 545.0 Q 518.5 545.0 505.5 550.0 C 477.5 561.0 430.5 571.0 441.5 543.0 L 450.5 521.0 Q 454.5 513.0 458.5 459.0 L 461.5 419.0 L 464.5 337.0 C 465.5 307.0 523.5 313.0 523.5 343.0 Z" fill="lightgray"></path> 
<path d="M 471.5 299.0 L 492.5 302.0 Q 496.5 302.0 500.5 303.0 L 518.5 305.0 Q 644.5 319.0 699.5 319.0 L 737.5 319.0 Q 755.5 317.0 767.0 321.5 Q 778.5 326.0 778.5 329.5 Q 778.5 333.0 770.5 344.0 Q 759.5 355.0 740.0 362.0 Q 720.5 369.0 708.5 370.0 L 638.5 360.0 Q 605.5 355.0 602.5 354.0 L 523.5 343.0 L 464.5 337.0 L 444.5 335.0 L 357.5 325.0 Q 296.5 319.0 273.5 317.0 L 241.5 314.0 Q 230.5 312.0 229.5 309.0 Q 222.5 299.0 243.5 287.0 Q 271.5 274.0 292.5 277.0 L 318.5 281.0 L 375.5 287.0 L 421.5 294.0 Q 422.5 295.0 432.5 295.0 L 471.5 299.0 Z" fill="lightgray"></path> 
<path d="M 134.5 177.0 L 107.5 175.0 Q 98.5 175.0 93.5 169.0 Q 88.5 163.0 105.5 151.0 Q 156.5 112.0 198.5 127.0 L 225.5 133.0 Q 302.5 151.0 305.0 151.5 Q 307.5 152.0 430.5 169.0 L 487.5 174.0 L 601.5 181.0 Q 700.5 186.0 765.0 185.0 Q 829.5 184.0 847.5 185.0 L 911.5 188.0 Q 932.5 189.0 934.0 196.5 Q 935.5 204.0 919.5 219.5 Q 903.5 235.0 874.0 242.5 Q 844.5 250.0 834.5 250.5 Q 824.5 251.0 780.0 240.5 Q 735.5 230.0 635.5 222.0 L 499.5 211.0 L 440.5 207.0 L 345.5 195.0 L 265.5 186.0 Q 216.5 179.0 188.5 179.0 L 134.5 177.0 Z" fill="lightgray"></path> 
<path d="M 430.5 169.0 L 418.5 143.0 Q 412.5 124.0 390.5 93.0 Q 368.5 62.0 341.5 37.0 Q 313.5 11.0 280.5 -10.0 Q 247.5 -30.0 232.5 -36.0 Q 217.5 -42.0 131.5 -74.0 L 109.5 -83.0 Q 103.5 -86.0 105.5 -91.0 Q 106.5 -98.0 115.5 -96.0 L 132.5 -95.0 Q 160.5 -92.0 206.5 -83.0 Q 298.5 -60.0 359.5 -13.0 Q 417.5 34.0 447.5 87.0 L 470.5 131.0 L 487.5 174.0 L 499.5 211.0 L 508.5 238.0 Q 511.5 241.0 516.5 250.0 Q 520.5 258.0 521.5 263.0 Q 521.5 267.0 508.5 279.0 Q 495.5 291.0 487.5 293.0 Q 479.5 298.0 471.5 299.0 C 443.5 309.0 427.5 315.0 432.5 295.0 L 437.5 276.0 L 439.5 262.0 L 440.5 253.0 Q 442.5 249.0 442.5 232.0 Q 440.5 228.0 440.5 220.0 L 440.5 207.0 L 430.5 169.0 Z" fill="lightgray"></path> 
<path d="M 569.5 111.0 Q 552.5 111.0 565.5 95.0 Q 572.5 87.0 583.5 80.5 Q 594.5 74.0 627.5 47.0 L 667.5 13.0 L 763.5 -81.0 Q 772.5 -89.0 801.5 -111.0 Q 837.5 -134.0 854.5 -108.0 Q 863.5 -95.0 864.5 -71.0 Q 865.5 -47.0 843.0 -19.0 Q 820.5 9.0 761.5 42.0 Q 702.5 75.0 628.5 97.0 L 581.5 109.0 L 569.5 111.0 Z" fill="lightgray"></path> 
<path d="M 1342.5 652.0 L 1302.5 647.0 Q 1284.5 644.0 1302.5 628.0 Q 1315.5 613.0 1354.5 613.0 Q 1393.5 613.0 1414.5 617.0 L 1529.5 635.0 L 1635.5 658.0 Q 1653.5 663.0 1656.5 665.0 Q 1669.5 671.0 1655.5 683.0 Q 1643.5 695.0 1621.5 702.0 Q 1600.5 708.0 1597.5 707.0 L 1502.5 681.0 L 1381.5 657.0 Q 1363.5 653.0 1342.5 652.0 Z" fill="lightgray"></path> 
<path d="M 1413.5 420.0 L 1502.5 435.0 L 1565.5 445.0 L 1747.5 468.0 Q 1778.5 471.0 1791.5 471.0 Q 1804.5 471.0 1809.5 476.0 Q 1815.5 481.0 1814.5 486.0 Q 1813.5 491.0 1807.5 496.0 Q 1802.5 501.0 1772.5 513.0 Q 1742.5 525.0 1726.5 525.0 Q 1711.5 525.0 1704.5 523.0 Q 1698.5 521.0 1689.5 520.0 L 1647.5 510.0 L 1388.5 455.0 L 1186.5 420.0 Q 1176.5 418.0 1174.5 415.0 Q 1172.5 411.0 1175.5 405.0 Q 1181.5 397.0 1190.5 396.0 Q 1199.5 394.0 1201.5 393.0 L 1207.5 391.0 Q 1211.5 389.0 1231.5 387.0 Q 1252.5 384.0 1280.5 392.0 L 1357.5 409.0 L 1413.5 420.0 Z" fill="lightgray"></path> 
<path d="M 1351.5 332.0 Q 1348.5 317.0 1294.5 207.0 Q 1285.5 185.0 1264.5 162.0 Q 1233.5 118.0 1194.5 81.0 Q 1155.5 43.0 1146.5 37.0 L 1121.5 18.0 Q 1112.5 11.0 1115.5 5.0 Q 1118.5 -2.0 1126.5 3.0 L 1154.5 13.0 Q 1168.5 17.0 1186.5 29.0 L 1234.5 60.0 L 1270.5 90.0 Q 1286.5 103.0 1316.5 144.0 L 1358.5 209.0 L 1416.5 323.0 Q 1428.5 347.0 1436.5 358.0 Q 1445.5 368.0 1448.5 373.0 Q 1450.5 382.0 1446.5 387.0 Q 1441.5 397.0 1435.5 403.0 L 1413.5 420.0 C 1389.5 438.0 1352.5 439.0 1357.5 409.0 L 1360.5 393.0 Q 1360.5 367.0 1351.5 332.0 Z" fill="lightgray"></path> 
<path d="M 1502.5 435.0 L 1510.5 418.0 Q 1520.5 388.0 1521.5 369.0 Q 1522.5 350.0 1520.5 293.0 L 1517.5 166.0 Q 1516.5 150.0 1521.5 111.0 Q 1531.5 51.0 1572.5 17.0 Q 1623.5 -26.0 1745.5 -30.0 Q 1816.5 -32.0 1883.5 -7.0 Q 1913.5 7.0 1938.5 28.0 Q 1958.5 49.0 1958.5 66.0 Q 1959.5 82.0 1942.5 108.0 Q 1925.5 133.0 1918.5 174.0 L 1910.5 215.0 Q 1906.5 219.0 1904.5 222.0 Q 1902.5 225.0 1897.5 223.0 Q 1893.5 220.0 1892.5 217.0 L 1890.5 203.0 Q 1890.5 171.0 1879.5 134.0 Q 1868.5 97.0 1851.5 80.0 Q 1835.5 62.0 1804.5 52.0 Q 1773.5 41.0 1726.5 43.0 Q 1679.5 45.0 1654.5 52.0 Q 1630.5 58.0 1610.5 78.0 Q 1582.5 108.0 1583.5 192.0 L 1586.5 251.0 Q 1595.5 322.0 1598.5 334.0 L 1600.5 344.0 Q 1604.5 356.0 1612.5 375.0 Q 1620.5 394.0 1619.5 399.0 Q 1615.5 412.0 1593.5 427.0 L 1565.5 445.0 C 1540.5 461.0 1490.5 463.0 1502.5 435.0 Z" fill="lightgray"></path> 
      <clipPath id="make-me-a-hanzi-clip-0">
      <path d="M 344.5 677.0 Q 346.5 672.0 360.5 652.0 L 377.5 630.0 Q 396.5 611.0 415.5 622.0 Q 424.5 625.0 430.5 641.5 Q 436.5 658.0 429.5 678.0 Q 422.5 698.0 413.5 708.0 Q 409.5 715.0 388.5 727.0 Q 354.5 750.0 331.5 754.0 Q 308.5 758.0 306.0 755.5 Q 303.5 753.0 305.5 747.0 L 309.5 737.0 L 344.5 677.0 Z" fill="lightgray"></path>
      </clipPath>
      <path clip-path="url(#make-me-a-hanzi-clip-0)" d="M 310.5 751.0 L 378.5 691.0 L 397.5 663.0 L 401.5 644.0 " fill="none" id="make-me-a-hanzi-animation-0" stroke-dasharray="272 544" stroke-linecap="round"></path>

      <clipPath id="make-me-a-hanzi-clip-1">
      <path d="M 563.5 651.0 Q 593.5 673.0 601.5 681.0 L 642.5 721.0 L 662.5 737.0 Q 667.5 741.0 678.0 747.5 Q 688.5 754.0 691.5 758.5 Q 694.5 763.0 679.5 775.0 Q 659.5 800.0 619.5 807.0 Q 601.5 810.0 599.5 798.0 Q 598.5 791.0 596.5 776.5 Q 594.5 762.0 573.5 720.0 L 529.5 649.0 Q 526.5 644.0 518.0 633.5 Q 509.5 623.0 513.5 620.0 Q 517.5 617.0 521.5 621.0 Q 534.5 628.0 563.5 651.0 Z" fill="lightgray"></path>
      </clipPath>
      <path clip-path="url(#make-me-a-hanzi-clip-1)" d="M 684.5 760.0 L 632.5 763.0 L 584.5 695.0 L 539.5 643.0 L 516.5 626.0 " fill="none" id="make-me-a-hanzi-animation-1" stroke-dasharray="361 722" stroke-linecap="round"></path>

      <clipPath id="make-me-a-hanzi-clip-2">
      <path d="M 505.5 550.0 L 519.5 552.0 Q 531.5 552.0 577.5 559.0 Q 622.5 563.0 667.5 576.0 L 689.5 581.0 Q 694.5 581.0 696.5 583.0 L 707.5 587.0 Q 720.5 592.0 703.5 608.0 Q 675.5 625.0 651.5 625.0 L 596.5 611.0 L 534.5 599.0 L 465.5 587.0 Q 357.5 573.0 323.5 570.0 L 291.5 566.0 Q 282.5 565.0 280.5 559.5 Q 278.5 554.0 289.5 547.0 Q 300.5 540.0 324.5 537.0 Q 364.5 535.0 388.5 537.0 L 412.5 539.0 L 441.5 543.0 L 505.5 550.0 Z" fill="lightgray"></path>
      </clipPath>
      <path clip-path="url(#make-me-a-hanzi-clip-2)" d="M 289.5 557.0 L 319.5 553.0 L 404.5 558.0 L 582.5 583.0 L 655.5 599.0 L 701.5 597.0 " fill="none" id="make-me-a-hanzi-animation-2" stroke-dasharray="544 1088" stroke-linecap="round"></path>

      <clipPath id="make-me-a-hanzi-clip-3">
      <path d="M 524.5 427.0 L 684.5 453.0 Q 709.5 459.0 709.5 469.0 Q 710.5 476.0 694.5 484.0 Q 676.5 490.0 668.0 494.0 Q 659.5 498.0 648.5 496.0 L 629.5 493.0 L 609.5 486.0 L 573.5 478.0 L 527.5 469.0 L 458.5 459.0 L 401.5 454.0 L 313.5 443.0 L 295.5 442.0 Q 287.5 441.0 285.5 435.5 Q 283.5 430.0 289.5 423.0 Q 293.5 416.0 315.5 411.5 Q 337.5 407.0 382.5 412.0 L 461.5 419.0 L 524.5 427.0 Z" fill="lightgray"></path>
      </clipPath>
      <path clip-path="url(#make-me-a-hanzi-clip-3)" d="M 295.5 432.0 L 309.5 427.0 L 356.5 428.0 L 543.5 450.0 L 654.5 473.0 L 699.5 469.0 " fill="none" id="make-me-a-hanzi-animation-3" stroke-dasharray="537 1074" stroke-linecap="round"></path>

      <clipPath id="make-me-a-hanzi-clip-4">
      <path d="M 523.5 343.0 L 524.5 427.0 L 527.5 469.0 L 529.5 491.0 L 537.5 527.0 Q 537.5 533.0 531.5 537.0 Q 524.5 544.0 521.5 545.0 Q 518.5 545.0 505.5 550.0 C 477.5 561.0 430.5 571.0 441.5 543.0 L 450.5 521.0 Q 454.5 513.0 458.5 459.0 L 461.5 419.0 L 464.5 337.0 C 465.5 307.0 523.5 313.0 523.5 343.0 Z" fill="lightgray"></path>
      </clipPath>
      <path clip-path="url(#make-me-a-hanzi-clip-4)" d="M 448.5 539.0 L 493.5 505.0 L 493.5 370.0 L 471.5 344.0 " fill="none" id="make-me-a-hanzi-animation-4" stroke-dasharray="353 706" stroke-linecap="round"></path>

      <clipPath id="make-me-a-hanzi-clip-5">
      <path d="M 471.5 299.0 L 492.5 302.0 Q 496.5 302.0 500.5 303.0 L 518.5 305.0 Q 644.5 319.0 699.5 319.0 L 737.5 319.0 Q 755.5 317.0 767.0 321.5 Q 778.5 326.0 778.5 329.5 Q 778.5 333.0 770.5 344.0 Q 759.5 355.0 740.0 362.0 Q 720.5 369.0 708.5 370.0 L 638.5 360.0 Q 605.5 355.0 602.5 354.0 L 523.5 343.0 L 464.5 337.0 L 444.5 335.0 L 357.5 325.0 Q 296.5 319.0 273.5 317.0 L 241.5 314.0 Q 230.5 312.0 229.5 309.0 Q 222.5 299.0 243.5 287.0 Q 271.5 274.0 292.5 277.0 L 318.5 281.0 L 375.5 287.0 L 421.5 294.0 Q 422.5 295.0 432.5 295.0 L 471.5 299.0 Z" fill="lightgray"></path>
      </clipPath>
      <path clip-path="url(#make-me-a-hanzi-clip-5)" d="M 238.5 304.0 L 268.5 297.0 L 309.5 299.0 L 690.5 344.0 L 738.5 341.0 L 770.5 329.0 " fill="none" id="make-me-a-hanzi-animation-5" stroke-dasharray="666 1332" stroke-linecap="round"></path>

      <clipPath id="make-me-a-hanzi-clip-6">
      <path d="M 134.5 177.0 L 107.5 175.0 Q 98.5 175.0 93.5 169.0 Q 88.5 163.0 105.5 151.0 Q 156.5 112.0 198.5 127.0 L 225.5 133.0 Q 302.5 151.0 305.0 151.5 Q 307.5 152.0 430.5 169.0 L 487.5 174.0 L 601.5 181.0 Q 700.5 186.0 765.0 185.0 Q 829.5 184.0 847.5 185.0 L 911.5 188.0 Q 932.5 189.0 934.0 196.5 Q 935.5 204.0 919.5 219.5 Q 903.5 235.0 874.0 242.5 Q 844.5 250.0 834.5 250.5 Q 824.5 251.0 780.0 240.5 Q 735.5 230.0 635.5 222.0 L 499.5 211.0 L 440.5 207.0 L 345.5 195.0 L 265.5 186.0 Q 216.5 179.0 188.5 179.0 L 134.5 177.0 Z" fill="lightgray"></path>
      </clipPath>
      <path clip-path="url(#make-me-a-hanzi-clip-6)" d="M 103.5 166.0 L 149.5 152.0 L 177.5 151.0 L 434.5 188.0 L 823.5 217.0 L 884.5 213.0 L 925.5 199.0 " fill="none" id="make-me-a-hanzi-animation-6" stroke-dasharray="958 1916" stroke-linecap="round"></path>

      <clipPath id="make-me-a-hanzi-clip-7">
      <path d="M 430.5 169.0 L 418.5 143.0 Q 412.5 124.0 390.5 93.0 Q 368.5 62.0 341.5 37.0 Q 313.5 11.0 280.5 -10.0 Q 247.5 -30.0 232.5 -36.0 Q 217.5 -42.0 131.5 -74.0 L 109.5 -83.0 Q 103.5 -86.0 105.5 -91.0 Q 106.5 -98.0 115.5 -96.0 L 132.5 -95.0 Q 160.5 -92.0 206.5 -83.0 Q 298.5 -60.0 359.5 -13.0 Q 417.5 34.0 447.5 87.0 L 470.5 131.0 L 487.5 174.0 L 499.5 211.0 L 508.5 238.0 Q 511.5 241.0 516.5 250.0 Q 520.5 258.0 521.5 263.0 Q 521.5 267.0 508.5 279.0 Q 495.5 291.0 487.5 293.0 Q 479.5 298.0 471.5 299.0 C 443.5 309.0 427.5 315.0 432.5 295.0 L 437.5 276.0 L 439.5 262.0 L 440.5 253.0 Q 442.5 249.0 442.5 232.0 Q 440.5 228.0 440.5 220.0 L 440.5 207.0 L 430.5 169.0 Z" fill="lightgray"></path>
      </clipPath>
      <path clip-path="url(#make-me-a-hanzi-clip-7)" d="M 439.5 292.0 L 476.5 257.0 L 473.5 227.0 L 439.5 126.0 L 391.5 52.0 L 318.5 -13.0 L 255.5 -48.0 L 112.5 -89.0 " fill="none" id="make-me-a-hanzi-animation-7" stroke-dasharray="722 1444" stroke-linecap="round"></path>

      <clipPath id="make-me-a-hanzi-clip-8">
      <path d="M 569.5 111.0 Q 552.5 111.0 565.5 95.0 Q 572.5 87.0 583.5 80.5 Q 594.5 74.0 627.5 47.0 L 667.5 13.0 L 763.5 -81.0 Q 772.5 -89.0 801.5 -111.0 Q 837.5 -134.0 854.5 -108.0 Q 863.5 -95.0 864.5 -71.0 Q 865.5 -47.0 843.0 -19.0 Q 820.5 9.0 761.5 42.0 Q 702.5 75.0 628.5 97.0 L 581.5 109.0 L 569.5 111.0 Z" fill="lightgray"></path>
      </clipPath>
      <path clip-path="url(#make-me-a-hanzi-clip-8)" d="M 567.5 103.0 L 686.5 42.0 L 747.5 -2.0 L 808.5 -54.0 L 830.5 -95.0 " fill="none" id="make-me-a-hanzi-animation-8" stroke-dasharray="464 928" stroke-linecap="round"></path>

      <clipPath id="make-me-a-hanzi-clip-9">
      <path d="M 1342.5 652.0 L 1302.5 647.0 Q 1284.5 644.0 1302.5 628.0 Q 1315.5 613.0 1354.5 613.0 Q 1393.5 613.0 1414.5 617.0 L 1529.5 635.0 L 1635.5 658.0 Q 1653.5 663.0 1656.5 665.0 Q 1669.5 671.0 1655.5 683.0 Q 1643.5 695.0 1621.5 702.0 Q 1600.5 708.0 1597.5 707.0 L 1502.5 681.0 L 1381.5 657.0 Q 1363.5 653.0 1342.5 652.0 Z" fill="lightgray"></path>
      </clipPath>
      <path clip-path="url(#make-me-a-hanzi-clip-9)" d="M 1302.5 638.0 L 1363.5 633.0 L 1475.5 650.0 L 1597.5 679.0 L 1653.5 674.0 " fill="none" id="make-me-a-hanzi-animation-9" stroke-dasharray="484 968" stroke-linecap="round"></path>

      <clipPath id="make-me-a-hanzi-clip-10">
      <path d="M 1413.5 420.0 L 1502.5 435.0 L 1565.5 445.0 L 1747.5 468.0 Q 1778.5 471.0 1791.5 471.0 Q 1804.5 471.0 1809.5 476.0 Q 1815.5 481.0 1814.5 486.0 Q 1813.5 491.0 1807.5 496.0 Q 1802.5 501.0 1772.5 513.0 Q 1742.5 525.0 1726.5 525.0 Q 1711.5 525.0 1704.5 523.0 Q 1698.5 521.0 1689.5 520.0 L 1647.5 510.0 L 1388.5 455.0 L 1186.5 420.0 Q 1176.5 418.0 1174.5 415.0 Q 1172.5 411.0 1175.5 405.0 Q 1181.5 397.0 1190.5 396.0 Q 1199.5 394.0 1201.5 393.0 L 1207.5 391.0 Q 1211.5 389.0 1231.5 387.0 Q 1252.5 384.0 1280.5 392.0 L 1357.5 409.0 L 1413.5 420.0 Z" fill="lightgray"></path>
      </clipPath>
      <path clip-path="url(#make-me-a-hanzi-clip-10)" d="M 1183.5 411.0 L 1257.5 409.0 L 1702.5 493.0 L 1729.5 496.0 L 1803.5 485.0 " fill="none" id="make-me-a-hanzi-animation-10" stroke-dasharray="757 1514" stroke-linecap="round"></path>

      <clipPath id="make-me-a-hanzi-clip-11">
      <path d="M 1351.5 332.0 Q 1348.5 317.0 1294.5 207.0 Q 1285.5 185.0 1264.5 162.0 Q 1233.5 118.0 1194.5 81.0 Q 1155.5 43.0 1146.5 37.0 L 1121.5 18.0 Q 1112.5 11.0 1115.5 5.0 Q 1118.5 -2.0 1126.5 3.0 L 1154.5 13.0 Q 1168.5 17.0 1186.5 29.0 L 1234.5 60.0 L 1270.5 90.0 Q 1286.5 103.0 1316.5 144.0 L 1358.5 209.0 L 1416.5 323.0 Q 1428.5 347.0 1436.5 358.0 Q 1445.5 368.0 1448.5 373.0 Q 1450.5 382.0 1446.5 387.0 Q 1441.5 397.0 1435.5 403.0 L 1413.5 420.0 C 1389.5 438.0 1352.5 439.0 1357.5 409.0 L 1360.5 393.0 Q 1360.5 367.0 1351.5 332.0 Z" fill="lightgray"></path>
      </clipPath>
      <path clip-path="url(#make-me-a-hanzi-clip-11)" d="M 1365.5 406.0 L 1400.5 376.0 L 1372.5 301.0 L 1315.5 190.0 L 1249.5 103.0 L 1172.5 38.0 L 1122.5 10.0 " fill="none" id="make-me-a-hanzi-animation-11" stroke-dasharray="646 1292" stroke-linecap="round"></path>

      <clipPath id="make-me-a-hanzi-clip-12">
      <path d="M 1502.5 435.0 L 1510.5 418.0 Q 1520.5 388.0 1521.5 369.0 Q 1522.5 350.0 1520.5 293.0 L 1517.5 166.0 Q 1516.5 150.0 1521.5 111.0 Q 1531.5 51.0 1572.5 17.0 Q 1623.5 -26.0 1745.5 -30.0 Q 1816.5 -32.0 1883.5 -7.0 Q 1913.5 7.0 1938.5 28.0 Q 1958.5 49.0 1958.5 66.0 Q 1959.5 82.0 1942.5 108.0 Q 1925.5 133.0 1918.5 174.0 L 1910.5 215.0 Q 1906.5 219.0 1904.5 222.0 Q 1902.5 225.0 1897.5 223.0 Q 1893.5 220.0 1892.5 217.0 L 1890.5 203.0 Q 1890.5 171.0 1879.5 134.0 Q 1868.5 97.0 1851.5 80.0 Q 1835.5 62.0 1804.5 52.0 Q 1773.5 41.0 1726.5 43.0 Q 1679.5 45.0 1654.5 52.0 Q 1630.5 58.0 1610.5 78.0 Q 1582.5 108.0 1583.5 192.0 L 1586.5 251.0 Q 1595.5 322.0 1598.5 334.0 L 1600.5 344.0 Q 1604.5 356.0 1612.5 375.0 Q 1620.5 394.0 1619.5 399.0 Q 1615.5 412.0 1593.5 427.0 L 1565.5 445.0 C 1540.5 461.0 1490.5 463.0 1502.5 435.0 Z" fill="lightgray"></path>
      </clipPath>
      <path clip-path="url(#make-me-a-hanzi-clip-12)" d="M 1510.5 434.0 L 1557.5 402.0 L 1566.5 387.0 L 1552.5 253.0 L 1550.5 152.0 L 1564.5 85.0 L 1582.5 56.0 L 1613.5 31.0 L 1670.5 12.0 L 1737.5 6.0 L 1809.5 13.0 L 1869.5 36.0 L 1906.5 70.0 L 1900.5 216.0 " fill="none" id="make-me-a-hanzi-animation-12" stroke-dasharray="1041 2082" stroke-linecap="round"></path>

</g>
</svg>
