<svg version="1.1" viewBox="0 0 3072 1024" xmlns="http://www.w3.org/2000/svg">
  <g stroke="lightgray" stroke-dasharray="1,1" stroke-width="1" transform="scale(4, 4)">
    <line x1="0" y1="0" x2="256" y2="256"></line>
    <line x1="256" y1="0" x2="0" y2="256"></line>
    <line x1="128" y1="0" x2="128" y2="256"></line>
    <line x1="0" y1="128" x2="256" y2="128"></line>
    <line x1="256" y1="0" x2="512" y2="256"></line>
    <line x1="512" y1="0" x2="256" y2="256"></line>
    <line x1="384" y1="0" x2="384" y2="256"></line>
    <line x1="256" y1="128" x2="512" y2="128"></line>
    <line x1="512" y1="0" x2="768" y2="256"></line>
    <line x1="768" y1="0" x2="512" y2="256"></line>
    <line x1="640" y1="0" x2="640" y2="256"></line>
    <line x1="512" y1="128" x2="768" y2="128"></line>
  </g>
<g transform="scale(1, -1) translate(0, -850)">
   <style type="text/css">
    @keyframes keyframes0 {
      from {
       stroke: black;
       stroke-dashoffset: 590;
       stroke-width: 128;
       }
       66% {
       animation-timing-function: step-end;
       stroke: black;
       stroke-dashoffset: 0;
       stroke-width: 128;
       }
       to {
       stroke: black;
       stroke-width: 1024;
       }
       }
       #make-me-a-hanzi-animation-0 {
         animation: keyframes0 0.730143s both;
         animation-delay: 0.000000s;
         animation-timing-function: linear;
       }
    @keyframes keyframes1 {
      from {
       stroke: black;
       stroke-dashoffset: 630;
       stroke-width: 128;
       }
       67% {
       animation-timing-function: step-end;
       stroke: black;
       stroke-dashoffset: 0;
       stroke-width: 128;
       }
       to {
       stroke: black;
       stroke-width: 1024;
       }
       }
       #make-me-a-hanzi-animation-1 {
         animation: keyframes1 0.762695s both;
         animation-delay: 0.730143s;
         animation-timing-function: linear;
       }
    @keyframes keyframes2 {
      from {
       stroke: black;
       stroke-dashoffset: 1083;
       stroke-width: 128;
       }
       78% {
       animation-timing-function: step-end;
       stroke: black;
       stroke-dashoffset: 0;
       stroke-width: 128;
       }
       to {
       stroke: black;
       stroke-width: 1024;
       }
       }
       #make-me-a-hanzi-animation-2 {
         animation: keyframes2 1.131348s both;
         animation-delay: 1.492838s;
         animation-timing-function: linear;
       }
    @keyframes keyframes3 {
      from {
       stroke: black;
       stroke-dashoffset: 1144;
       stroke-width: 128;
       }
       79% {
       animation-timing-function: step-end;
       stroke: black;
       stroke-dashoffset: 0;
       stroke-width: 128;
       }
       to {
       stroke: black;
       stroke-width: 1024;
       }
       }
       #make-me-a-hanzi-animation-3 {
         animation: keyframes3 1.180990s both;
         animation-delay: 2.624186s;
         animation-timing-function: linear;
       }
    @keyframes keyframes4 {
      from {
       stroke: black;
       stroke-dashoffset: 537;
       stroke-width: 128;
       }
       64% {
       animation-timing-function: step-end;
       stroke: black;
       stroke-dashoffset: 0;
       stroke-width: 128;
       }
       to {
       stroke: black;
       stroke-width: 1024;
       }
       }
       #make-me-a-hanzi-animation-4 {
         animation: keyframes4 0.687012s both;
         animation-delay: 3.805176s;
         animation-timing-function: linear;
       }
    @keyframes keyframes5 {
      from {
       stroke: black;
       stroke-dashoffset: 876;
       stroke-width: 128;
       }
       74% {
       animation-timing-function: step-end;
       stroke: black;
       stroke-dashoffset: 0;
       stroke-width: 128;
       }
       to {
       stroke: black;
       stroke-width: 1024;
       }
       }
       #make-me-a-hanzi-animation-5 {
         animation: keyframes5 0.962891s both;
         animation-delay: 4.492188s;
         animation-timing-function: linear;
       }
    @keyframes keyframes6 {
      from {
       stroke: black;
       stroke-dashoffset: 388;
       stroke-width: 128;
       }
       56% {
       animation-timing-function: step-end;
       stroke: black;
       stroke-dashoffset: 0;
       stroke-width: 128;
       }
       to {
       stroke: black;
       stroke-width: 1024;
       }
       }
       #make-me-a-hanzi-animation-6 {
         animation: keyframes6 0.565755s both;
         animation-delay: 5.455079s;
         animation-timing-function: linear;
       }
    @keyframes keyframes7 {
      from {
       stroke: black;
       stroke-dashoffset: 418;
       stroke-width: 128;
       }
       58% {
       animation-timing-function: step-end;
       stroke: black;
       stroke-dashoffset: 0;
       stroke-width: 128;
       }
       to {
       stroke: black;
       stroke-width: 1024;
       }
       }
       #make-me-a-hanzi-animation-7 {
         animation: keyframes7 0.590169s both;
         animation-delay: 6.020834s;
         animation-timing-function: linear;
       }
    @keyframes keyframes8 {
      from {
       stroke: black;
       stroke-dashoffset: 1039;
       stroke-width: 128;
       }
       77% {
       animation-timing-function: step-end;
       stroke: black;
       stroke-dashoffset: 0;
       stroke-width: 128;
       }
       to {
       stroke: black;
       stroke-width: 1024;
       }
       }
       #make-me-a-hanzi-animation-8 {
         animation: keyframes8 1.095540s both;
         animation-delay: 6.611003s;
         animation-timing-function: linear;
       }
    @keyframes keyframes9 {
      from {
       stroke: black;
       stroke-dashoffset: 1212;
       stroke-width: 128;
       }
       80% {
       animation-timing-function: step-end;
       stroke: black;
       stroke-dashoffset: 0;
       stroke-width: 128;
       }
       to {
       stroke: black;
       stroke-width: 1024;
       }
       }
       #make-me-a-hanzi-animation-9 {
         animation: keyframes9 1.236328s both;
         animation-delay: 7.706543s;
         animation-timing-function: linear;
       }
    @keyframes keyframes10 {
      from {
       stroke: black;
       stroke-dashoffset: 557;
       stroke-width: 128;
       }
       64% {
       animation-timing-function: step-end;
       stroke: black;
       stroke-dashoffset: 0;
       stroke-width: 128;
       }
       to {
       stroke: black;
       stroke-width: 1024;
       }
       }
       #make-me-a-hanzi-animation-10 {
         animation: keyframes10 0.703288s both;
         animation-delay: 8.942871s;
         animation-timing-function: linear;
       }
    @keyframes keyframes11 {
      from {
       stroke: black;
       stroke-dashoffset: 988;
       stroke-width: 128;
       }
       76% {
       animation-timing-function: step-end;
       stroke: black;
       stroke-dashoffset: 0;
       stroke-width: 128;
       }
       to {
       stroke: black;
       stroke-width: 1024;
       }
       }
       #make-me-a-hanzi-animation-11 {
         animation: keyframes11 1.054036s both;
         animation-delay: 9.646159s;
         animation-timing-function: linear;
       }
    @keyframes keyframes12 {
      from {
       stroke: black;
       stroke-dashoffset: 1451;
       stroke-width: 128;
       }
       83% {
       animation-timing-function: step-end;
       stroke: black;
       stroke-dashoffset: 0;
       stroke-width: 128;
       }
       to {
       stroke: black;
       stroke-width: 1024;
       }
       }
       #make-me-a-hanzi-animation-12 {
         animation: keyframes12 1.430827s both;
         animation-delay: 10.700195s;
         animation-timing-function: linear;
       }
</style>
<path d="M 519.0 521.0 L 538.0 524.0 Q 542.0 526.0 575.0 530.0 Q 609.0 534.0 620.0 538.0 L 654.0 546.0 Q 661.0 548.0 662.0 553.0 Q 664.0 557.0 663.0 558.0 L 660.0 565.0 Q 658.0 572.0 634.0 581.0 Q 610.0 590.0 601.0 590.0 Q 592.0 590.0 577.0 586.0 L 550.0 578.0 L 519.0 571.0 L 465.0 560.0 L 431.0 554.0 Q 404.0 548.0 359.0 546.0 L 328.0 543.0 Q 298.0 541.0 313.0 524.0 Q 332.0 503.0 393.0 507.0 L 465.0 514.0 L 519.0 521.0 Z" fill="lightgray"></path> 
<path d="M 519.0 394.0 L 519.0 521.0 L 519.0 571.0 L 520.0 630.0 Q 520.0 688.0 530.0 704.0 Q 541.0 719.0 534.0 728.0 Q 528.0 736.0 523.0 738.0 Q 482.0 756.0 461.0 756.0 Q 438.0 753.0 447.0 740.0 L 452.0 726.0 Q 465.0 700.0 465.0 620.0 L 465.0 560.0 L 465.0 514.0 L 465.0 389.0 C 465.0 359.0 519.0 364.0 519.0 394.0 Z" fill="lightgray"></path> 
<path d="M 841.0 439.0 L 799.0 429.0 L 759.0 422.0 L 636.0 405.0 L 567.0 400.0 L 519.0 394.0 L 465.0 389.0 L 373.0 382.0 L 258.0 370.0 Q 208.0 366.0 192.0 366.0 L 129.0 364.0 L 105.0 362.0 Q 92.0 362.0 90.0 356.0 Q 89.0 350.0 96.0 342.0 Q 102.0 331.0 117.0 324.0 Q 133.0 313.0 150.0 309.0 Q 168.0 304.0 173.0 305.0 L 196.0 310.0 Q 212.0 316.0 243.0 322.0 Q 253.0 322.0 289.0 329.0 Q 325.0 336.0 380.0 342.0 L 529.0 359.0 L 604.0 364.0 L 764.0 368.0 L 841.0 368.0 L 906.0 365.0 Q 926.0 363.0 930.0 372.0 Q 935.0 380.0 929.0 392.0 Q 924.0 398.0 899.0 415.0 L 864.0 434.0 Q 851.0 440.0 841.0 439.0 Z" fill="lightgray"></path> 
<path d="M 636.0 405.0 L 747.0 534.0 Q 772.0 561.0 779.0 564.0 Q 786.0 567.0 788.0 573.0 Q 790.0 578.0 784.0 591.0 Q 779.0 604.0 763.0 619.0 Q 759.0 626.0 742.0 635.0 Q 726.0 644.0 723.0 644.0 Q 720.0 644.0 714.0 642.0 Q 710.0 638.0 709.0 634.0 L 703.0 606.0 Q 700.0 590.0 696.0 583.0 L 684.0 558.0 L 649.0 501.0 Q 635.0 481.0 612.0 455.0 Q 590.0 429.0 567.0 400.0 L 529.0 359.0 L 400.0 235.0 Q 353.0 192.0 306.0 159.0 Q 213.0 93.0 152.0 62.0 L 127.0 48.0 Q 113.0 40.0 116.0 35.0 Q 120.0 29.0 131.0 32.0 L 159.0 38.0 Q 174.0 41.0 242.0 72.0 Q 311.0 103.0 367.0 146.0 Q 423.0 188.0 437.0 200.0 L 479.0 238.0 L 511.0 267.0 L 604.0 364.0 L 636.0 405.0 Z" fill="lightgray"></path> 
<path d="M 488.0 73.0 Q 519.0 73.0 544.0 82.0 Q 619.0 102.0 676.0 134.0 Q 714.0 152.0 744.0 162.0 Q 757.0 164.0 760.0 175.0 Q 763.0 193.0 737.0 216.0 Q 709.0 236.0 700.0 240.0 Q 686.0 244.0 685.0 237.0 Q 678.0 207.0 665.0 199.0 Q 570.0 110.0 490.0 90.0 C 461.0 82.0 458.0 72.0 488.0 73.0 Z" fill="lightgray"></path> 
<path d="M 437.0 200.0 L 431.0 55.0 Q 431.0 14.0 436.0 -11.0 L 443.0 -28.0 Q 446.0 -34.0 459.0 -47.0 Q 481.0 -68.0 547.0 -76.0 L 557.0 -77.0 Q 566.0 -80.0 607.0 -80.0 L 640.0 -80.0 Q 718.0 -80.0 779.0 -63.0 L 822.0 -48.0 Q 844.0 -40.0 844.0 -30.0 Q 845.0 -26.0 840.0 -17.0 Q 835.0 -11.0 823.0 -2.0 Q 811.0 6.0 799.0 8.0 Q 788.0 10.0 783.0 9.0 Q 779.0 8.0 738.0 -9.0 Q 697.0 -26.0 629.0 -26.0 L 607.0 -28.0 Q 586.0 -28.0 567.0 -27.0 Q 549.0 -27.0 508.0 -10.0 L 487.0 11.0 Q 484.0 23.0 487.0 59.0 L 488.0 73.0 L 490.0 90.0 L 509.0 183.0 L 513.0 195.0 Q 514.0 209.0 507.0 215.0 L 479.0 238.0 C 456.0 257.0 438.0 230.0 437.0 200.0 Z" fill="lightgray"></path> 
<path d="M 1354.0 620.0 Q 1435.0 542.0 1464.0 544.0 Q 1480.0 544.0 1485.0 567.0 Q 1485.0 583.0 1472.0 606.0 Q 1456.0 625.0 1426.0 634.0 Q 1377.0 650.0 1357.0 652.0 Q 1345.0 653.0 1346.0 639.0 Q 1345.0 629.0 1354.0 620.0 Z" fill="lightgray"></path> 
<path d="M 1311.0 454.0 L 1383.0 392.0 Q 1398.0 379.0 1414.0 380.0 Q 1426.0 380.0 1431.0 394.0 Q 1435.0 410.0 1425.0 441.0 Q 1413.0 477.0 1305.0 505.0 Q 1289.0 508.0 1282.0 505.0 Q 1276.0 501.0 1278.0 487.0 Q 1282.0 477.0 1311.0 454.0 Z" fill="lightgray"></path> 
<path d="M 1574.0 282.0 Q 1649.0 288.0 1908.0 289.0 Q 1932.0 289.0 1937.0 299.0 Q 1944.0 312.0 1924.0 329.0 Q 1863.0 377.0 1819.0 366.0 Q 1728.0 348.0 1585.0 327.0 L 1523.0 319.0 Q 1522.0 320.0 1520.0 319.0 Q 1351.0 298.0 1153.0 276.0 Q 1128.0 273.0 1146.0 253.0 Q 1162.0 237.0 1184.0 230.0 Q 1209.0 223.0 1228.0 229.0 Q 1367.0 265.0 1512.0 276.0 L 1574.0 282.0 Z" fill="lightgray"></path> 
<path d="M 1512.0 276.0 Q 1469.0 117.0 1302.0 24.0 L 1212.0 -19.0 Q 1197.0 -23.0 1193.0 -28.0 Q 1186.0 -34.0 1205.0 -38.0 Q 1302.0 -44.0 1448.0 56.0 Q 1475.0 78.0 1496.0 104.0 Q 1535.0 152.0 1574.0 282.0 L 1585.0 327.0 Q 1585.0 328.0 1619.0 553.0 Q 1623.0 602.0 1645.0 660.0 Q 1652.0 673.0 1642.0 682.0 Q 1623.0 701.0 1582.0 720.0 Q 1558.0 733.0 1539.0 727.0 Q 1515.0 720.0 1533.0 699.0 Q 1564.0 663.0 1562.0 629.0 Q 1553.0 443.0 1523.0 319.0 L 1512.0 276.0 Z" fill="lightgray"></path> 
<path d="M 1631.0 155.0 Q 1707.0 80.0 1798.0 -27.0 Q 1816.0 -51.0 1832.0 -56.0 Q 1842.0 -57.0 1851.0 -47.0 Q 1866.0 -34.0 1854.0 17.0 Q 1841.0 86.0 1634.0 190.0 Q 1624.0 197.0 1621.0 182.0 Q 1620.0 167.0 1631.0 155.0 Z" fill="lightgray"></path> 
<path d="M 2332.0 596.0 Q 2366.0 521.0 2323.0 297.0 Q 2307.0 236.0 2272.0 166.0 Q 2241.0 100.0 2175.0 41.0 Q 2124.0 2.0 2114.0 -12.0 Q 2111.0 -21.0 2125.0 -21.0 Q 2144.0 -22.0 2168.0 -7.0 Q 2220.0 24.0 2254.0 55.0 Q 2362.0 163.0 2399.0 397.0 Q 2417.0 523.0 2423.0 560.0 Q 2432.0 582.0 2409.0 596.0 Q 2355.0 627.0 2338.0 625.0 Q 2316.0 622.0 2332.0 596.0 Z" fill="lightgray"></path> 
<path d="M 2562.0 568.0 Q 2565.0 496.0 2552.0 278.0 Q 2534.0 76.0 2587.0 14.0 Q 2632.0 -40.0 2824.0 -39.0 Q 2906.0 -38.0 2967.0 -15.0 Q 3009.0 -2.0 2994.0 29.0 Q 2969.0 86.0 2953.0 185.0 Q 2949.0 201.0 2943.0 209.0 Q 2933.0 218.0 2929.0 198.0 Q 2913.0 141.0 2898.0 98.0 Q 2891.0 67.0 2863.0 51.0 Q 2838.0 24.0 2710.0 32.0 Q 2637.0 38.0 2616.0 82.0 Q 2586.0 157.0 2623.0 491.0 Q 2632.0 576.0 2643.0 616.0 Q 2656.0 650.0 2567.0 701.0 Q 2545.0 716.0 2525.0 704.0 Q 2512.0 697.0 2535.0 664.0 Q 2562.0 624.0 2562.0 568.0 Z" fill="lightgray"></path> 
      <clipPath id="make-me-a-hanzi-clip-0">
      <path d="M 519.0 521.0 L 538.0 524.0 Q 542.0 526.0 575.0 530.0 Q 609.0 534.0 620.0 538.0 L 654.0 546.0 Q 661.0 548.0 662.0 553.0 Q 664.0 557.0 663.0 558.0 L 660.0 565.0 Q 658.0 572.0 634.0 581.0 Q 610.0 590.0 601.0 590.0 Q 592.0 590.0 577.0 586.0 L 550.0 578.0 L 519.0 571.0 L 465.0 560.0 L 431.0 554.0 Q 404.0 548.0 359.0 546.0 L 328.0 543.0 Q 298.0 541.0 313.0 524.0 Q 332.0 503.0 393.0 507.0 L 465.0 514.0 L 519.0 521.0 Z" fill="lightgray"></path>
      </clipPath>
      <path clip-path="url(#make-me-a-hanzi-clip-0)" d="M 321.0 533.0 L 383.0 526.0 L 590.0 561.0 L 652.0 558.0 " fill="none" id="make-me-a-hanzi-animation-0" stroke-dasharray="462 924" stroke-linecap="round"></path>

      <clipPath id="make-me-a-hanzi-clip-1">
      <path d="M 519.0 394.0 L 519.0 521.0 L 519.0 571.0 L 520.0 630.0 Q 520.0 688.0 530.0 704.0 Q 541.0 719.0 534.0 728.0 Q 528.0 736.0 523.0 738.0 Q 482.0 756.0 461.0 756.0 Q 438.0 753.0 447.0 740.0 L 452.0 726.0 Q 465.0 700.0 465.0 620.0 L 465.0 560.0 L 465.0 514.0 L 465.0 389.0 C 465.0 359.0 519.0 364.0 519.0 394.0 Z" fill="lightgray"></path>
      </clipPath>
      <path clip-path="url(#make-me-a-hanzi-clip-1)" d="M 456.0 746.0 L 494.0 711.0 L 492.0 419.0 L 471.0 397.0 " fill="none" id="make-me-a-hanzi-animation-1" stroke-dasharray="502 1004" stroke-linecap="round"></path>

      <clipPath id="make-me-a-hanzi-clip-2">
      <path d="M 841.0 439.0 L 799.0 429.0 L 759.0 422.0 L 636.0 405.0 L 567.0 400.0 L 519.0 394.0 L 465.0 389.0 L 373.0 382.0 L 258.0 370.0 Q 208.0 366.0 192.0 366.0 L 129.0 364.0 L 105.0 362.0 Q 92.0 362.0 90.0 356.0 Q 89.0 350.0 96.0 342.0 Q 102.0 331.0 117.0 324.0 Q 133.0 313.0 150.0 309.0 Q 168.0 304.0 173.0 305.0 L 196.0 310.0 Q 212.0 316.0 243.0 322.0 Q 253.0 322.0 289.0 329.0 Q 325.0 336.0 380.0 342.0 L 529.0 359.0 L 604.0 364.0 L 764.0 368.0 L 841.0 368.0 L 906.0 365.0 Q 926.0 363.0 930.0 372.0 Q 935.0 380.0 929.0 392.0 Q 924.0 398.0 899.0 415.0 L 864.0 434.0 Q 851.0 440.0 841.0 439.0 Z" fill="lightgray"></path>
      </clipPath>
      <path clip-path="url(#make-me-a-hanzi-clip-2)" d="M 99.0 351.0 L 164.0 335.0 L 382.0 363.0 L 842.0 404.0 L 917.0 380.0 " fill="none" id="make-me-a-hanzi-animation-2" stroke-dasharray="955 1910" stroke-linecap="round"></path>

      <clipPath id="make-me-a-hanzi-clip-3">
      <path d="M 636.0 405.0 L 747.0 534.0 Q 772.0 561.0 779.0 564.0 Q 786.0 567.0 788.0 573.0 Q 790.0 578.0 784.0 591.0 Q 779.0 604.0 763.0 619.0 Q 759.0 626.0 742.0 635.0 Q 726.0 644.0 723.0 644.0 Q 720.0 644.0 714.0 642.0 Q 710.0 638.0 709.0 634.0 L 703.0 606.0 Q 700.0 590.0 696.0 583.0 L 684.0 558.0 L 649.0 501.0 Q 635.0 481.0 612.0 455.0 Q 590.0 429.0 567.0 400.0 L 529.0 359.0 L 400.0 235.0 Q 353.0 192.0 306.0 159.0 Q 213.0 93.0 152.0 62.0 L 127.0 48.0 Q 113.0 40.0 116.0 35.0 Q 120.0 29.0 131.0 32.0 L 159.0 38.0 Q 174.0 41.0 242.0 72.0 Q 311.0 103.0 367.0 146.0 Q 423.0 188.0 437.0 200.0 L 479.0 238.0 L 511.0 267.0 L 604.0 364.0 L 636.0 405.0 Z" fill="lightgray"></path>
      </clipPath>
      <path clip-path="url(#make-me-a-hanzi-clip-3)" d="M 721.0 632.0 L 740.0 584.0 L 729.0 566.0 L 672.0 486.0 L 588.0 385.0 L 508.0 301.0 L 392.0 194.0 L 303.0 128.0 L 206.0 72.0 L 124.0 36.0 " fill="none" id="make-me-a-hanzi-animation-3" stroke-dasharray="1016 2032" stroke-linecap="round"></path>

      <clipPath id="make-me-a-hanzi-clip-4">
      <path d="M 488.0 73.0 Q 519.0 73.0 544.0 82.0 Q 619.0 102.0 676.0 134.0 Q 714.0 152.0 744.0 162.0 Q 757.0 164.0 760.0 175.0 Q 763.0 193.0 737.0 216.0 Q 709.0 236.0 700.0 240.0 Q 686.0 244.0 685.0 237.0 Q 678.0 207.0 665.0 199.0 Q 570.0 110.0 490.0 90.0 C 461.0 82.0 458.0 72.0 488.0 73.0 Z" fill="lightgray"></path>
      </clipPath>
      <path clip-path="url(#make-me-a-hanzi-clip-4)" d="M 695.0 224.0 L 708.0 190.0 L 699.0 182.0 L 593.0 116.0 L 549.0 96.0 L 499.0 83.0 L 495.0 76.0 " fill="none" id="make-me-a-hanzi-animation-4" stroke-dasharray="409 818" stroke-linecap="round"></path>

      <clipPath id="make-me-a-hanzi-clip-5">
      <path d="M 437.0 200.0 L 431.0 55.0 Q 431.0 14.0 436.0 -11.0 L 443.0 -28.0 Q 446.0 -34.0 459.0 -47.0 Q 481.0 -68.0 547.0 -76.0 L 557.0 -77.0 Q 566.0 -80.0 607.0 -80.0 L 640.0 -80.0 Q 718.0 -80.0 779.0 -63.0 L 822.0 -48.0 Q 844.0 -40.0 844.0 -30.0 Q 845.0 -26.0 840.0 -17.0 Q 835.0 -11.0 823.0 -2.0 Q 811.0 6.0 799.0 8.0 Q 788.0 10.0 783.0 9.0 Q 779.0 8.0 738.0 -9.0 Q 697.0 -26.0 629.0 -26.0 L 607.0 -28.0 Q 586.0 -28.0 567.0 -27.0 Q 549.0 -27.0 508.0 -10.0 L 487.0 11.0 Q 484.0 23.0 487.0 59.0 L 488.0 73.0 L 490.0 90.0 L 509.0 183.0 L 513.0 195.0 Q 514.0 209.0 507.0 215.0 L 479.0 238.0 C 456.0 257.0 438.0 230.0 437.0 200.0 Z" fill="lightgray"></path>
      </clipPath>
      <path clip-path="url(#make-me-a-hanzi-clip-5)" d="M 479.0 228.0 L 480.0 196.0 L 471.0 177.0 L 458.0 33.0 L 462.0 -1.0 L 487.0 -31.0 L 540.0 -50.0 L 600.0 -54.0 L 711.0 -47.0 L 796.0 -23.0 L 829.0 -28.0 " fill="none" id="make-me-a-hanzi-animation-5" stroke-dasharray="748 1496" stroke-linecap="round"></path>

      <clipPath id="make-me-a-hanzi-clip-6">
      <path d="M 1354.0 620.0 Q 1435.0 542.0 1464.0 544.0 Q 1480.0 544.0 1485.0 567.0 Q 1485.0 583.0 1472.0 606.0 Q 1456.0 625.0 1426.0 634.0 Q 1377.0 650.0 1357.0 652.0 Q 1345.0 653.0 1346.0 639.0 Q 1345.0 629.0 1354.0 620.0 Z" fill="lightgray"></path>
      </clipPath>
      <path clip-path="url(#make-me-a-hanzi-clip-6)" d="M 1355.0 642.0 L 1438.0 592.0 L 1462.0 566.0 " fill="none" id="make-me-a-hanzi-animation-6" stroke-dasharray="260 520" stroke-linecap="round"></path>

      <clipPath id="make-me-a-hanzi-clip-7">
      <path d="M 1311.0 454.0 L 1383.0 392.0 Q 1398.0 379.0 1414.0 380.0 Q 1426.0 380.0 1431.0 394.0 Q 1435.0 410.0 1425.0 441.0 Q 1413.0 477.0 1305.0 505.0 Q 1289.0 508.0 1282.0 505.0 Q 1276.0 501.0 1278.0 487.0 Q 1282.0 477.0 1311.0 454.0 Z" fill="lightgray"></path>
      </clipPath>
      <path clip-path="url(#make-me-a-hanzi-clip-7)" d="M 1288.0 497.0 L 1382.0 439.0 L 1414.0 398.0 " fill="none" id="make-me-a-hanzi-animation-7" stroke-dasharray="290 580" stroke-linecap="round"></path>

      <clipPath id="make-me-a-hanzi-clip-8">
      <path d="M 1574.0 282.0 Q 1649.0 288.0 1908.0 289.0 Q 1932.0 289.0 1937.0 299.0 Q 1944.0 312.0 1924.0 329.0 Q 1863.0 377.0 1819.0 366.0 Q 1728.0 348.0 1585.0 327.0 L 1523.0 319.0 Q 1522.0 320.0 1520.0 319.0 Q 1351.0 298.0 1153.0 276.0 Q 1128.0 273.0 1146.0 253.0 Q 1162.0 237.0 1184.0 230.0 Q 1209.0 223.0 1228.0 229.0 Q 1367.0 265.0 1512.0 276.0 L 1574.0 282.0 Z" fill="lightgray"></path>
      </clipPath>
      <path clip-path="url(#make-me-a-hanzi-clip-8)" d="M 1150.0 264.0 L 1208.0 254.0 L 1414.0 287.0 L 1831.0 328.0 L 1883.0 321.0 L 1924.0 306.0 " fill="none" id="make-me-a-hanzi-animation-8" stroke-dasharray="911 1822" stroke-linecap="round"></path>

      <clipPath id="make-me-a-hanzi-clip-9">
      <path d="M 1512.0 276.0 Q 1469.0 117.0 1302.0 24.0 L 1212.0 -19.0 Q 1197.0 -23.0 1193.0 -28.0 Q 1186.0 -34.0 1205.0 -38.0 Q 1302.0 -44.0 1448.0 56.0 Q 1475.0 78.0 1496.0 104.0 Q 1535.0 152.0 1574.0 282.0 L 1585.0 327.0 Q 1585.0 328.0 1619.0 553.0 Q 1623.0 602.0 1645.0 660.0 Q 1652.0 673.0 1642.0 682.0 Q 1623.0 701.0 1582.0 720.0 Q 1558.0 733.0 1539.0 727.0 Q 1515.0 720.0 1533.0 699.0 Q 1564.0 663.0 1562.0 629.0 Q 1553.0 443.0 1523.0 319.0 L 1512.0 276.0 Z" fill="lightgray"></path>
      </clipPath>
      <path clip-path="url(#make-me-a-hanzi-clip-9)" d="M 1540.0 712.0 L 1577.0 690.0 L 1596.0 668.0 L 1600.0 647.0 L 1560.0 352.0 L 1544.0 281.0 L 1514.0 198.0 L 1468.0 119.0 L 1393.0 51.0 L 1291.0 -4.0 L 1200.0 -31.0 " fill="none" id="make-me-a-hanzi-animation-9" stroke-dasharray="1084 2168" stroke-linecap="round"></path>

      <clipPath id="make-me-a-hanzi-clip-10">
      <path d="M 1631.0 155.0 Q 1707.0 80.0 1798.0 -27.0 Q 1816.0 -51.0 1832.0 -56.0 Q 1842.0 -57.0 1851.0 -47.0 Q 1866.0 -34.0 1854.0 17.0 Q 1841.0 86.0 1634.0 190.0 Q 1624.0 197.0 1621.0 182.0 Q 1620.0 167.0 1631.0 155.0 Z" fill="lightgray"></path>
      </clipPath>
      <path clip-path="url(#make-me-a-hanzi-clip-10)" d="M 1633.0 176.0 L 1726.0 104.0 L 1791.0 43.0 L 1816.0 11.0 L 1834.0 -39.0 " fill="none" id="make-me-a-hanzi-animation-10" stroke-dasharray="429 858" stroke-linecap="round"></path>

      <clipPath id="make-me-a-hanzi-clip-11">
      <path d="M 2332.0 596.0 Q 2366.0 521.0 2323.0 297.0 Q 2307.0 236.0 2272.0 166.0 Q 2241.0 100.0 2175.0 41.0 Q 2124.0 2.0 2114.0 -12.0 Q 2111.0 -21.0 2125.0 -21.0 Q 2144.0 -22.0 2168.0 -7.0 Q 2220.0 24.0 2254.0 55.0 Q 2362.0 163.0 2399.0 397.0 Q 2417.0 523.0 2423.0 560.0 Q 2432.0 582.0 2409.0 596.0 Q 2355.0 627.0 2338.0 625.0 Q 2316.0 622.0 2332.0 596.0 Z" fill="lightgray"></path>
      </clipPath>
      <path clip-path="url(#make-me-a-hanzi-clip-11)" d="M 2339.0 610.0 L 2368.0 586.0 L 2381.0 569.0 L 2383.0 554.0 L 2379.0 472.0 L 2363.0 355.0 L 2333.0 239.0 L 2299.0 160.0 L 2250.0 85.0 L 2204.0 40.0 L 2122.0 -14.0 " fill="none" id="make-me-a-hanzi-animation-11" stroke-dasharray="860 1720" stroke-linecap="round"></path>

      <clipPath id="make-me-a-hanzi-clip-12">
      <path d="M 2562.0 568.0 Q 2565.0 496.0 2552.0 278.0 Q 2534.0 76.0 2587.0 14.0 Q 2632.0 -40.0 2824.0 -39.0 Q 2906.0 -38.0 2967.0 -15.0 Q 3009.0 -2.0 2994.0 29.0 Q 2969.0 86.0 2953.0 185.0 Q 2949.0 201.0 2943.0 209.0 Q 2933.0 218.0 2929.0 198.0 Q 2913.0 141.0 2898.0 98.0 Q 2891.0 67.0 2863.0 51.0 Q 2838.0 24.0 2710.0 32.0 Q 2637.0 38.0 2616.0 82.0 Q 2586.0 157.0 2623.0 491.0 Q 2632.0 576.0 2643.0 616.0 Q 2656.0 650.0 2567.0 701.0 Q 2545.0 716.0 2525.0 704.0 Q 2512.0 697.0 2535.0 664.0 Q 2562.0 624.0 2562.0 568.0 Z" fill="lightgray"></path>
      </clipPath>
      <path clip-path="url(#make-me-a-hanzi-clip-12)" d="M 2535.0 693.0 L 2564.0 672.0 L 2600.0 621.0 L 2574.0 181.0 L 2584.0 88.0 L 2609.0 37.0 L 2646.0 13.0 L 2669.0 6.0 L 2749.0 -4.0 L 2846.0 0.0 L 2910.0 22.0 L 2930.0 33.0 L 2931.0 39.0 L 2940.0 174.0 L 2937.0 202.0 " fill="none" id="make-me-a-hanzi-animation-12" stroke-dasharray="1323 2646" stroke-linecap="round"></path>

</g>
</svg>
