<svg version="1.1" viewBox="0 0 2048 1024" xmlns="http://www.w3.org/2000/svg">
  <g stroke="lightgray" stroke-dasharray="1,1" stroke-width="1" transform="scale(4, 4)">
    <line x1="0" y1="0" x2="256" y2="256"></line>
    <line x1="256" y1="0" x2="0" y2="256"></line>
    <line x1="128" y1="0" x2="128" y2="256"></line>
    <line x1="0" y1="128" x2="256" y2="128"></line>
    <line x1="256" y1="0" x2="512" y2="256"></line>
    <line x1="512" y1="0" x2="256" y2="256"></line>
    <line x1="384" y1="0" x2="384" y2="256"></line>
    <line x1="256" y1="128" x2="512" y2="128"></line>
  </g>
<g transform="scale(1, -1) translate(0, -850)">
   <style type="text/css">
    @keyframes keyframes0 {
      from {
       stroke: black;
       stroke-dashoffset: 590;
       stroke-width: 128;
       }
       66% {
       animation-timing-function: step-end;
       stroke: black;
       stroke-dashoffset: 0;
       stroke-width: 128;
       }
       to {
       stroke: black;
       stroke-width: 1024;
       }
       }
       #make-me-a-hanzi-animation-0 {
         animation: keyframes0 0.730143s both;
         animation-delay: 0.000000s;
         animation-timing-function: linear;
       }
    @keyframes keyframes1 {
      from {
       stroke: black;
       stroke-dashoffset: 630;
       stroke-width: 128;
       }
       67% {
       animation-timing-function: step-end;
       stroke: black;
       stroke-dashoffset: 0;
       stroke-width: 128;
       }
       to {
       stroke: black;
       stroke-width: 1024;
       }
       }
       #make-me-a-hanzi-animation-1 {
         animation: keyframes1 0.762695s both;
         animation-delay: 0.730143s;
         animation-timing-function: linear;
       }
    @keyframes keyframes2 {
      from {
       stroke: black;
       stroke-dashoffset: 1083;
       stroke-width: 128;
       }
       78% {
       animation-timing-function: step-end;
       stroke: black;
       stroke-dashoffset: 0;
       stroke-width: 128;
       }
       to {
       stroke: black;
       stroke-width: 1024;
       }
       }
       #make-me-a-hanzi-animation-2 {
         animation: keyframes2 1.131348s both;
         animation-delay: 1.492839s;
         animation-timing-function: linear;
       }
    @keyframes keyframes3 {
      from {
       stroke: black;
       stroke-dashoffset: 1144;
       stroke-width: 128;
       }
       79% {
       animation-timing-function: step-end;
       stroke: black;
       stroke-dashoffset: 0;
       stroke-width: 128;
       }
       to {
       stroke: black;
       stroke-width: 1024;
       }
       }
       #make-me-a-hanzi-animation-3 {
         animation: keyframes3 1.180990s both;
         animation-delay: 2.624186s;
         animation-timing-function: linear;
       }
    @keyframes keyframes4 {
      from {
       stroke: black;
       stroke-dashoffset: 537;
       stroke-width: 128;
       }
       64% {
       animation-timing-function: step-end;
       stroke: black;
       stroke-dashoffset: 0;
       stroke-width: 128;
       }
       to {
       stroke: black;
       stroke-width: 1024;
       }
       }
       #make-me-a-hanzi-animation-4 {
         animation: keyframes4 0.687012s both;
         animation-delay: 3.805176s;
         animation-timing-function: linear;
       }
    @keyframes keyframes5 {
      from {
       stroke: black;
       stroke-dashoffset: 876;
       stroke-width: 128;
       }
       74% {
       animation-timing-function: step-end;
       stroke: black;
       stroke-dashoffset: 0;
       stroke-width: 128;
       }
       to {
       stroke: black;
       stroke-width: 1024;
       }
       }
       #make-me-a-hanzi-animation-5 {
         animation: keyframes5 0.962891s both;
         animation-delay: 4.492188s;
         animation-timing-function: linear;
       }
    @keyframes keyframes6 {
      from {
       stroke: black;
       stroke-dashoffset: 399;
       stroke-width: 128;
       }
       56% {
       animation-timing-function: step-end;
       stroke: black;
       stroke-dashoffset: 0;
       stroke-width: 128;
       }
       to {
       stroke: black;
       stroke-width: 1024;
       }
       }
       #make-me-a-hanzi-animation-6 {
         animation: keyframes6 0.574707s both;
         animation-delay: 5.455078s;
         animation-timing-function: linear;
       }
    @keyframes keyframes7 {
      from {
       stroke: black;
       stroke-dashoffset: 447;
       stroke-width: 128;
       }
       59% {
       animation-timing-function: step-end;
       stroke: black;
       stroke-dashoffset: 0;
       stroke-width: 128;
       }
       to {
       stroke: black;
       stroke-width: 1024;
       }
       }
       #make-me-a-hanzi-animation-7 {
         animation: keyframes7 0.613770s both;
         animation-delay: 6.029785s;
         animation-timing-function: linear;
       }
    @keyframes keyframes8 {
      from {
       stroke: black;
       stroke-dashoffset: 887;
       stroke-width: 128;
       }
       74% {
       animation-timing-function: step-end;
       stroke: black;
       stroke-dashoffset: 0;
       stroke-width: 128;
       }
       to {
       stroke: black;
       stroke-width: 1024;
       }
       }
       #make-me-a-hanzi-animation-8 {
         animation: keyframes8 0.971842s both;
         animation-delay: 6.643555s;
         animation-timing-function: linear;
       }
    @keyframes keyframes9 {
      from {
       stroke: black;
       stroke-dashoffset: 354;
       stroke-width: 128;
       }
       54% {
       animation-timing-function: step-end;
       stroke: black;
       stroke-dashoffset: 0;
       stroke-width: 128;
       }
       to {
       stroke: black;
       stroke-width: 1024;
       }
       }
       #make-me-a-hanzi-animation-9 {
         animation: keyframes9 0.538086s both;
         animation-delay: 7.615397s;
         animation-timing-function: linear;
       }
    @keyframes keyframes10 {
      from {
       stroke: black;
       stroke-dashoffset: 396;
       stroke-width: 128;
       }
       56% {
       animation-timing-function: step-end;
       stroke: black;
       stroke-dashoffset: 0;
       stroke-width: 128;
       }
       to {
       stroke: black;
       stroke-width: 1024;
       }
       }
       #make-me-a-hanzi-animation-10 {
         animation: keyframes10 0.572266s both;
         animation-delay: 8.153483s;
         animation-timing-function: linear;
       }
    @keyframes keyframes11 {
      from {
       stroke: black;
       stroke-dashoffset: 956;
       stroke-width: 128;
       }
       76% {
       animation-timing-function: step-end;
       stroke: black;
       stroke-dashoffset: 0;
       stroke-width: 128;
       }
       to {
       stroke: black;
       stroke-width: 1024;
       }
       }
       #make-me-a-hanzi-animation-11 {
         animation: keyframes11 1.027995s both;
         animation-delay: 8.725749s;
         animation-timing-function: linear;
       }
    @keyframes keyframes12 {
      from {
       stroke: black;
       stroke-dashoffset: 1071;
       stroke-width: 128;
       }
       78% {
       animation-timing-function: step-end;
       stroke: black;
       stroke-dashoffset: 0;
       stroke-width: 128;
       }
       to {
       stroke: black;
       stroke-width: 1024;
       }
       }
       #make-me-a-hanzi-animation-12 {
         animation: keyframes12 1.121582s both;
         animation-delay: 9.753743s;
         animation-timing-function: linear;
       }
    @keyframes keyframes13 {
      from {
       stroke: black;
       stroke-dashoffset: 494;
       stroke-width: 128;
       }
       62% {
       animation-timing-function: step-end;
       stroke: black;
       stroke-dashoffset: 0;
       stroke-width: 128;
       }
       to {
       stroke: black;
       stroke-width: 1024;
       }
       }
       #make-me-a-hanzi-animation-13 {
         animation: keyframes13 0.652018s both;
         animation-delay: 10.875326s;
         animation-timing-function: linear;
       }
</style>
<path d="M 518 505 L 537 508 Q 541 510 574 514 Q 608 518 619 522 L 653 530 Q 660 532 661 537 Q 663 541 662 542 L 659 549 Q 657 556 633 565 Q 609 574 600 574 Q 591 574 576 570 L 549 562 L 518 555 L 464 544 L 430 538 Q 403 532 358 530 L 327 527 Q 297 525 312 508 Q 331 487 392 491 L 464 498 L 518 505 Z" fill="lightgray"></path> 
<path d="M 518 378 L 518 505 L 518 555 L 519 614 Q 519 672 529 688 Q 540 703 533 712 Q 527 720 522 722 Q 481 740 460 740 Q 437 737 446 724 L 451 710 Q 464 684 464 604 L 464 544 L 464 498 L 464 373 C 464 343 518 348 518 378 Z" fill="lightgray"></path> 
<path d="M 840 423 L 798 413 L 758 406 L 635 389 L 566 384 L 518 378 L 464 373 L 372 366 L 257 354 Q 207 350 191 350 L 128 348 L 104 346 Q 91 346 89 340 Q 88 334 95 326 Q 101 315 116 308 Q 132 297 149 293 Q 167 288 172 289 L 195 294 Q 211 300 242 306 Q 252 306 288 313 Q 324 320 379 326 L 528 343 L 603 348 L 763 352 L 840 352 L 905 349 Q 925 347 929 356 Q 934 364 928 376 Q 923 382 898 399 L 863 418 Q 850 424 840 423 Z" fill="lightgray"></path> 
<path d="M 635 389 L 746 518 Q 771 545 778 548 Q 785 551 787 557 Q 789 562 783 575 Q 778 588 762 603 Q 758 610 741 619 Q 725 628 722 628 Q 719 628 713 626 Q 709 622 708 618 L 702 590 Q 699 574 695 567 L 683 542 L 648 485 Q 634 465 611 439 Q 589 413 566 384 L 528 343 L 399 219 Q 352 176 305 143 Q 212 77 151 46 L 126 32 Q 112 24 115 19 Q 119 13 130 16 L 158 22 Q 173 25 241 56 Q 310 87 366 130 Q 422 172 436 184 L 478 222 L 510 251 L 603 348 L 635 389 Z" fill="lightgray"></path> 
<path d="M 487 57 Q 518 57 543 66 Q 618 86 675 118 Q 713 136 743 146 Q 756 148 759 159 Q 762 177 736 200 Q 708 220 699 224 Q 685 228 684 221 Q 677 191 664 183 Q 569 94 489 74 C 460 66 457 56 487 57 Z" fill="lightgray"></path> 
<path d="M 436 184 L 430 39 Q 430 -2 435 -27 L 442 -44 Q 445 -50 458 -63 Q 480 -84 546 -92 L 556 -93 Q 565 -96 606 -96 L 639 -96 Q 717 -96 778 -79 L 821 -64 Q 843 -56 843 -46 Q 844 -42 839 -33 Q 834 -27 822 -18 Q 810 -10 798 -8 Q 787 -6 782 -7 Q 778 -8 737 -25 Q 696 -42 628 -42 L 606 -44 Q 585 -44 566 -43 Q 548 -43 507 -26 L 486 -5 Q 483 7 486 43 L 487 57 L 489 74 L 508 167 L 512 179 Q 513 193 506 199 L 478 222 C 455 241 437 214 436 184 Z" fill="lightgray"></path> 
<path d="M 1498 729 L 1557 677 Q 1572 664 1589 665 Q 1599 666 1605 680 Q 1609 696 1599 727 Q 1587 758 1491 779 Q 1475 782 1468 779 Q 1462 775 1465 761 Q 1469 751 1498 729 Z" fill="lightgray"></path> 
<path d="M 1303 579 Q 1294 597 1285 604 Q 1266 620 1263 593 Q 1267 566 1251 541 Q 1235 522 1210 501 Q 1200 489 1202 468 Q 1206 437 1215 419 Q 1230 391 1251 419 Q 1254 425 1306 541 Q 1307 542 1308 545 C 1314 558 1314 558 1303 579 Z" fill="lightgray"></path> 
<path d="M 1308 545 Q 1326 536 1377 548 Q 1507 585 1689 602 Q 1726 606 1741 604 Q 1759 591 1756 583 Q 1756 580 1728 503 Q 1722 488 1729 485 Q 1736 481 1753 494 Q 1805 537 1852 553 Q 1889 568 1887 576 Q 1886 586 1812 637 Q 1787 653 1711 638 Q 1582 622 1401 592 Q 1352 585 1303 579 C 1273 575 1279 551 1308 545 Z" fill="lightgray"></path> 
<path d="M 1370 447 Q 1431 386 1458 387 Q 1471 387 1475 406 Q 1475 419 1464 437 Q 1443 467 1372 473 Q 1362 474 1363 463 Q 1362 454 1370 447 Z" fill="lightgray"></path> 
<path d="M 1333 301 L 1396 255 Q 1409 245 1424 246 Q 1434 247 1437 260 Q 1440 273 1429 300 Q 1422 319 1390 331 Q 1314 349 1304 343 Q 1300 339 1302 327 Q 1306 317 1333 301 Z" fill="lightgray"></path> 
<path d="M 1579 193 Q 1681 203 1820 204 Q 1892 201 1900 213 Q 1906 226 1888 241 Q 1831 283 1791 272 Q 1712 256 1590 234 L 1532 224 Q 1529 225 1526 224 L 1201 180 Q 1179 177 1196 159 Q 1211 144 1230 139 Q 1252 133 1270 138 Q 1399 175 1522 186 L 1579 193 Z" fill="lightgray"></path> 
<path d="M 1522 186 Q 1476 54 1325 -25 Q 1280 -46 1220 -71 Q 1207 -75 1203 -78 Q 1197 -84 1213 -88 Q 1231 -91 1298 -74 Q 1347 -64 1418 -27 Q 1539 37 1579 193 L 1590 234 Q 1599 279 1616 392 Q 1620 426 1635 466 Q 1642 478 1633 486 Q 1581 538 1538 528 Q 1517 521 1533 502 Q 1561 469 1559 438 Q 1553 300 1532 224 L 1522 186 Z" fill="lightgray"></path> 
<path d="M 1631 64 Q 1692 12 1766 -66 Q 1784 -87 1800 -91 Q 1809 -92 1817 -81 Q 1830 -68 1815 -21 Q 1800 40 1631 97 Q 1621 101 1619 89 Q 1619 74 1631 64 Z" fill="lightgray"></path> 
      <clipPath id="make-me-a-hanzi-clip-0">
      <path d="M 518 505 L 537 508 Q 541 510 574 514 Q 608 518 619 522 L 653 530 Q 660 532 661 537 Q 663 541 662 542 L 659 549 Q 657 556 633 565 Q 609 574 600 574 Q 591 574 576 570 L 549 562 L 518 555 L 464 544 L 430 538 Q 403 532 358 530 L 327 527 Q 297 525 312 508 Q 331 487 392 491 L 464 498 L 518 505 Z" fill="lightgray"></path>
      </clipPath>
      <path clip-path="url(#make-me-a-hanzi-clip-0)" d="M 320 517 L 382 510 L 589 545 L 651 542 " fill="none" id="make-me-a-hanzi-animation-0" stroke-dasharray="462 924" stroke-linecap="round"></path>

      <clipPath id="make-me-a-hanzi-clip-1">
      <path d="M 518 378 L 518 505 L 518 555 L 519 614 Q 519 672 529 688 Q 540 703 533 712 Q 527 720 522 722 Q 481 740 460 740 Q 437 737 446 724 L 451 710 Q 464 684 464 604 L 464 544 L 464 498 L 464 373 C 464 343 518 348 518 378 Z" fill="lightgray"></path>
      </clipPath>
      <path clip-path="url(#make-me-a-hanzi-clip-1)" d="M 455 730 L 493 695 L 491 403 L 470 381 " fill="none" id="make-me-a-hanzi-animation-1" stroke-dasharray="502 1004" stroke-linecap="round"></path>

      <clipPath id="make-me-a-hanzi-clip-2">
      <path d="M 840 423 L 798 413 L 758 406 L 635 389 L 566 384 L 518 378 L 464 373 L 372 366 L 257 354 Q 207 350 191 350 L 128 348 L 104 346 Q 91 346 89 340 Q 88 334 95 326 Q 101 315 116 308 Q 132 297 149 293 Q 167 288 172 289 L 195 294 Q 211 300 242 306 Q 252 306 288 313 Q 324 320 379 326 L 528 343 L 603 348 L 763 352 L 840 352 L 905 349 Q 925 347 929 356 Q 934 364 928 376 Q 923 382 898 399 L 863 418 Q 850 424 840 423 Z" fill="lightgray"></path>
      </clipPath>
      <path clip-path="url(#make-me-a-hanzi-clip-2)" d="M 98 335 L 163 319 L 381 347 L 841 388 L 916 364 " fill="none" id="make-me-a-hanzi-animation-2" stroke-dasharray="955 1910" stroke-linecap="round"></path>

      <clipPath id="make-me-a-hanzi-clip-3">
      <path d="M 635 389 L 746 518 Q 771 545 778 548 Q 785 551 787 557 Q 789 562 783 575 Q 778 588 762 603 Q 758 610 741 619 Q 725 628 722 628 Q 719 628 713 626 Q 709 622 708 618 L 702 590 Q 699 574 695 567 L 683 542 L 648 485 Q 634 465 611 439 Q 589 413 566 384 L 528 343 L 399 219 Q 352 176 305 143 Q 212 77 151 46 L 126 32 Q 112 24 115 19 Q 119 13 130 16 L 158 22 Q 173 25 241 56 Q 310 87 366 130 Q 422 172 436 184 L 478 222 L 510 251 L 603 348 L 635 389 Z" fill="lightgray"></path>
      </clipPath>
      <path clip-path="url(#make-me-a-hanzi-clip-3)" d="M 720 616 L 739 568 L 728 550 L 671 470 L 587 369 L 507 285 L 391 178 L 302 112 L 205 56 L 123 20 " fill="none" id="make-me-a-hanzi-animation-3" stroke-dasharray="1016 2032" stroke-linecap="round"></path>

      <clipPath id="make-me-a-hanzi-clip-4">
      <path d="M 487 57 Q 518 57 543 66 Q 618 86 675 118 Q 713 136 743 146 Q 756 148 759 159 Q 762 177 736 200 Q 708 220 699 224 Q 685 228 684 221 Q 677 191 664 183 Q 569 94 489 74 C 460 66 457 56 487 57 Z" fill="lightgray"></path>
      </clipPath>
      <path clip-path="url(#make-me-a-hanzi-clip-4)" d="M 694 208 L 707 174 L 698 166 L 592 100 L 548 80 L 498 67 L 494 60 " fill="none" id="make-me-a-hanzi-animation-4" stroke-dasharray="409 818" stroke-linecap="round"></path>

      <clipPath id="make-me-a-hanzi-clip-5">
      <path d="M 436 184 L 430 39 Q 430 -2 435 -27 L 442 -44 Q 445 -50 458 -63 Q 480 -84 546 -92 L 556 -93 Q 565 -96 606 -96 L 639 -96 Q 717 -96 778 -79 L 821 -64 Q 843 -56 843 -46 Q 844 -42 839 -33 Q 834 -27 822 -18 Q 810 -10 798 -8 Q 787 -6 782 -7 Q 778 -8 737 -25 Q 696 -42 628 -42 L 606 -44 Q 585 -44 566 -43 Q 548 -43 507 -26 L 486 -5 Q 483 7 486 43 L 487 57 L 489 74 L 508 167 L 512 179 Q 513 193 506 199 L 478 222 C 455 241 437 214 436 184 Z" fill="lightgray"></path>
      </clipPath>
      <path clip-path="url(#make-me-a-hanzi-clip-5)" d="M 478 212 L 479 180 L 470 161 L 457 17 L 461 -17 L 486 -47 L 539 -66 L 599 -70 L 710 -63 L 795 -39 L 828 -44 " fill="none" id="make-me-a-hanzi-animation-5" stroke-dasharray="748 1496" stroke-linecap="round"></path>

      <clipPath id="make-me-a-hanzi-clip-6">
      <path d="M 1498 729 L 1557 677 Q 1572 664 1589 665 Q 1599 666 1605 680 Q 1609 696 1599 727 Q 1587 758 1491 779 Q 1475 782 1468 779 Q 1462 775 1465 761 Q 1469 751 1498 729 Z" fill="lightgray"></path>
      </clipPath>
      <path clip-path="url(#make-me-a-hanzi-clip-6)" d="M 1474 771 L 1563 718 L 1585 685 " fill="none" id="make-me-a-hanzi-animation-6" stroke-dasharray="271 542" stroke-linecap="round"></path>

      <clipPath id="make-me-a-hanzi-clip-7">
      <path d="M 1303 579 Q 1294 597 1285 604 Q 1266 620 1263 593 Q 1267 566 1251 541 Q 1235 522 1210 501 Q 1200 489 1202 468 Q 1206 437 1215 419 Q 1230 391 1251 419 Q 1254 425 1306 541 Q 1307 542 1308 545 C 1314 558 1314 558 1303 579 Z" fill="lightgray"></path>
      </clipPath>
      <path clip-path="url(#make-me-a-hanzi-clip-7)" d="M 1274 598 L 1283 578 L 1282 549 L 1267 516 L 1237 475 L 1232 422 " fill="none" id="make-me-a-hanzi-animation-7" stroke-dasharray="319 638" stroke-linecap="round"></path>

      <clipPath id="make-me-a-hanzi-clip-8">
      <path d="M 1308 545 Q 1326 536 1377 548 Q 1507 585 1689 602 Q 1726 606 1741 604 Q 1759 591 1756 583 Q 1756 580 1728 503 Q 1722 488 1729 485 Q 1736 481 1753 494 Q 1805 537 1852 553 Q 1889 568 1887 576 Q 1886 586 1812 637 Q 1787 653 1711 638 Q 1582 622 1401 592 Q 1352 585 1303 579 C 1273 575 1279 551 1308 545 Z" fill="lightgray"></path>
      </clipPath>
      <path clip-path="url(#make-me-a-hanzi-clip-8)" d="M 1311 574 L 1334 561 L 1515 596 L 1743 625 L 1783 610 L 1798 596 L 1802 581 L 1734 492 " fill="none" id="make-me-a-hanzi-animation-8" stroke-dasharray="759 1518" stroke-linecap="round"></path>

      <clipPath id="make-me-a-hanzi-clip-9">
      <path d="M 1370 447 Q 1431 386 1458 387 Q 1471 387 1475 406 Q 1475 419 1464 437 Q 1443 467 1372 473 Q 1362 474 1363 463 Q 1362 454 1370 447 Z" fill="lightgray"></path>
      </clipPath>
      <path clip-path="url(#make-me-a-hanzi-clip-9)" d="M 1376 461 L 1421 437 L 1456 406 " fill="none" id="make-me-a-hanzi-animation-9" stroke-dasharray="226 452" stroke-linecap="round"></path>

      <clipPath id="make-me-a-hanzi-clip-10">
      <path d="M 1333 301 L 1396 255 Q 1409 245 1424 246 Q 1434 247 1437 260 Q 1440 273 1429 300 Q 1422 319 1390 331 Q 1314 349 1304 343 Q 1300 339 1302 327 Q 1306 317 1333 301 Z" fill="lightgray"></path>
      </clipPath>
      <path clip-path="url(#make-me-a-hanzi-clip-10)" d="M 1308 338 L 1385 301 L 1422 261 " fill="none" id="make-me-a-hanzi-animation-10" stroke-dasharray="268 536" stroke-linecap="round"></path>

      <clipPath id="make-me-a-hanzi-clip-11">
      <path d="M 1579 193 Q 1681 203 1820 204 Q 1892 201 1900 213 Q 1906 226 1888 241 Q 1831 283 1791 272 Q 1712 256 1590 234 L 1532 224 Q 1529 225 1526 224 L 1201 180 Q 1179 177 1196 159 Q 1211 144 1230 139 Q 1252 133 1270 138 Q 1399 175 1522 186 L 1579 193 Z" fill="lightgray"></path>
      </clipPath>
      <path clip-path="url(#make-me-a-hanzi-clip-11)" d="M 1199 169 L 1252 161 L 1459 198 L 1803 239 L 1891 220 " fill="none" id="make-me-a-hanzi-animation-11" stroke-dasharray="828 1656" stroke-linecap="round"></path>

      <clipPath id="make-me-a-hanzi-clip-12">
      <path d="M 1522 186 Q 1476 54 1325 -25 Q 1280 -46 1220 -71 Q 1207 -75 1203 -78 Q 1197 -84 1213 -88 Q 1231 -91 1298 -74 Q 1347 -64 1418 -27 Q 1539 37 1579 193 L 1590 234 Q 1599 279 1616 392 Q 1620 426 1635 466 Q 1642 478 1633 486 Q 1581 538 1538 528 Q 1517 521 1533 502 Q 1561 469 1559 438 Q 1553 300 1532 224 L 1522 186 Z" fill="lightgray"></path>
      </clipPath>
      <path clip-path="url(#make-me-a-hanzi-clip-12)" d="M 1540 514 L 1581 488 L 1590 477 L 1594 453 L 1565 243 L 1542 160 L 1523 119 L 1465 41 L 1399 -10 L 1284 -63 L 1209 -82 " fill="none" id="make-me-a-hanzi-animation-12" stroke-dasharray="943 1886" stroke-linecap="round"></path>

      <clipPath id="make-me-a-hanzi-clip-13">
      <path d="M 1631 64 Q 1692 12 1766 -66 Q 1784 -87 1800 -91 Q 1809 -92 1817 -81 Q 1830 -68 1815 -21 Q 1800 40 1631 97 Q 1621 101 1619 89 Q 1619 74 1631 64 Z" fill="lightgray"></path>
      </clipPath>
      <path clip-path="url(#make-me-a-hanzi-clip-13)" d="M 1631 84 L 1757 -3 L 1780 -28 L 1801 -74 " fill="none" id="make-me-a-hanzi-animation-13" stroke-dasharray="366 732" stroke-linecap="round"></path>

</g>
</svg>
