<svg version="1.1" viewBox="0 0 2048 1024" xmlns="http://www.w3.org/2000/svg">
  <g stroke="lightgray" stroke-dasharray="1,1" stroke-width="1" transform="scale(4, 4)">
    <line x1="0" y1="0" x2="256" y2="256"></line>
    <line x1="256" y1="0" x2="0" y2="256"></line>
    <line x1="128" y1="0" x2="128" y2="256"></line>
    <line x1="0" y1="128" x2="256" y2="128"></line>
    <line x1="256" y1="0" x2="512" y2="256"></line>
    <line x1="512" y1="0" x2="256" y2="256"></line>
    <line x1="384" y1="0" x2="384" y2="256"></line>
    <line x1="256" y1="128" x2="512" y2="128"></line>
  </g>
<g transform="scale(1, -1) translate(0, -850)">
   <style type="text/css">
    @keyframes keyframes0 {
      from {
       stroke: black;
       stroke-dashoffset: 964;
       stroke-width: 128;
       }
       76% {
       animation-timing-function: step-end;
       stroke: black;
       stroke-dashoffset: 0;
       stroke-width: 128;
       }
       to {
       stroke: black;
       stroke-width: 1024;
       }
       }
       #make-me-a-hanzi-animation-0 {
         animation: keyframes0 1.034505s both;
         animation-delay: 0.000000s;
         animation-timing-function: linear;
       }
    @keyframes keyframes1 {
      from {
       stroke: black;
       stroke-dashoffset: 1127;
       stroke-width: 128;
       }
       79% {
       animation-timing-function: step-end;
       stroke: black;
       stroke-dashoffset: 0;
       stroke-width: 128;
       }
       to {
       stroke: black;
       stroke-width: 1024;
       }
       }
       #make-me-a-hanzi-animation-1 {
         animation: keyframes1 1.167155s both;
         animation-delay: 1.034505s;
         animation-timing-function: linear;
       }
    @keyframes keyframes2 {
      from {
       stroke: black;
       stroke-dashoffset: 377;
       stroke-width: 128;
       }
       55% {
       animation-timing-function: step-end;
       stroke: black;
       stroke-dashoffset: 0;
       stroke-width: 128;
       }
       to {
       stroke: black;
       stroke-width: 1024;
       }
       }
       #make-me-a-hanzi-animation-2 {
         animation: keyframes2 0.556803s both;
         animation-delay: 2.201660s;
         animation-timing-function: linear;
       }
    @keyframes keyframes3 {
      from {
       stroke: black;
       stroke-dashoffset: 407;
       stroke-width: 128;
       }
       57% {
       animation-timing-function: step-end;
       stroke: black;
       stroke-dashoffset: 0;
       stroke-width: 128;
       }
       to {
       stroke: black;
       stroke-width: 1024;
       }
       }
       #make-me-a-hanzi-animation-3 {
         animation: keyframes3 0.581217s both;
         animation-delay: 2.758463s;
         animation-timing-function: linear;
       }
    @keyframes keyframes4 {
      from {
       stroke: black;
       stroke-dashoffset: 375;
       stroke-width: 128;
       }
       55% {
       animation-timing-function: step-end;
       stroke: black;
       stroke-dashoffset: 0;
       stroke-width: 128;
       }
       to {
       stroke: black;
       stroke-width: 1024;
       }
       }
       #make-me-a-hanzi-animation-4 {
         animation: keyframes4 0.555176s both;
         animation-delay: 3.339680s;
         animation-timing-function: linear;
       }
    @keyframes keyframes5 {
      from {
       stroke: black;
       stroke-dashoffset: 463;
       stroke-width: 128;
       }
       60% {
       animation-timing-function: step-end;
       stroke: black;
       stroke-dashoffset: 0;
       stroke-width: 128;
       }
       to {
       stroke: black;
       stroke-width: 1024;
       }
       }
       #make-me-a-hanzi-animation-5 {
         animation: keyframes5 0.626790s both;
         animation-delay: 3.894856s;
         animation-timing-function: linear;
       }
    @keyframes keyframes6 {
      from {
       stroke: black;
       stroke-dashoffset: 604;
       stroke-width: 128;
       }
       66% {
       animation-timing-function: step-end;
       stroke: black;
       stroke-dashoffset: 0;
       stroke-width: 128;
       }
       to {
       stroke: black;
       stroke-width: 1024;
       }
       }
       #make-me-a-hanzi-animation-6 {
         animation: keyframes6 0.741536s both;
         animation-delay: 4.521646s;
         animation-timing-function: linear;
       }
    @keyframes keyframes7 {
      from {
       stroke: black;
       stroke-dashoffset: 798;
       stroke-width: 128;
       }
       72% {
       animation-timing-function: step-end;
       stroke: black;
       stroke-dashoffset: 0;
       stroke-width: 128;
       }
       to {
       stroke: black;
       stroke-width: 1024;
       }
       }
       #make-me-a-hanzi-animation-7 {
         animation: keyframes7 0.899414s both;
         animation-delay: 5.263182s;
         animation-timing-function: linear;
       }
    @keyframes keyframes8 {
      from {
       stroke: black;
       stroke-dashoffset: 1150;
       stroke-width: 128;
       }
       79% {
       animation-timing-function: step-end;
       stroke: black;
       stroke-dashoffset: 0;
       stroke-width: 128;
       }
       to {
       stroke: black;
       stroke-width: 1024;
       }
       }
       #make-me-a-hanzi-animation-8 {
         animation: keyframes8 1.185872s both;
         animation-delay: 6.162596s;
         animation-timing-function: linear;
       }
    @keyframes keyframes9 {
      from {
       stroke: black;
       stroke-dashoffset: 901;
       stroke-width: 128;
       }
       75% {
       animation-timing-function: step-end;
       stroke: black;
       stroke-dashoffset: 0;
       stroke-width: 128;
       }
       to {
       stroke: black;
       stroke-width: 1024;
       }
       }
       #make-me-a-hanzi-animation-9 {
         animation: keyframes9 0.983236s both;
         animation-delay: 7.348468s;
         animation-timing-function: linear;
       }
    @keyframes keyframes10 {
      from {
       stroke: black;
       stroke-dashoffset: 948;
       stroke-width: 128;
       }
       76% {
       animation-timing-function: step-end;
       stroke: black;
       stroke-dashoffset: 0;
       stroke-width: 128;
       }
       to {
       stroke: black;
       stroke-width: 1024;
       }
       }
       #make-me-a-hanzi-animation-10 {
         animation: keyframes10 1.021484s both;
         animation-delay: 8.331704s;
         animation-timing-function: linear;
       }
    @keyframes keyframes11 {
      from {
       stroke: black;
       stroke-dashoffset: 1108;
       stroke-width: 128;
       }
       78% {
       animation-timing-function: step-end;
       stroke: black;
       stroke-dashoffset: 0;
       stroke-width: 128;
       }
       to {
       stroke: black;
       stroke-width: 1024;
       }
       }
       #make-me-a-hanzi-animation-11 {
         animation: keyframes11 1.151693s both;
         animation-delay: 9.353188s;
         animation-timing-function: linear;
       }
</style>
<path d="M 179.5 495.0 L 177.5 425.0 Q 175.5 411.0 175.5 381.0 L 174.5 347.0 Q 172.5 312.0 166.5 279.0 Q 153.5 175.0 99.5 83.0 Q 82.5 54.0 77.5 47.0 L 57.5 23.0 Q 54.5 17.0 57.5 14.0 Q 58.5 8.0 68.5 15.0 L 90.5 31.0 Q 129.5 64.0 162.5 115.0 Q 197.5 179.0 207.5 236.0 L 217.5 293.0 L 219.5 314.0 L 221.5 335.0 L 227.5 461.0 Q 229.5 484.0 230.5 527.0 L 230.5 543.0 L 230.5 574.0 L 240.5 641.0 C 243.5 660.0 243.5 660.0 225.5 667.0 L 213.5 673.0 Q 206.5 674.0 193.5 679.0 L 173.5 683.0 Q 167.5 683.0 163.5 681.0 Q 159.5 678.0 166.5 656.0 Q 174.5 634.0 176.5 597.0 L 177.5 553.0 L 179.5 495.0 Z" fill="lightgray"></path> 
<path d="M 346.5 358.0 L 343.5 265.0 L 337.5 143.0 Q 332.5 97.0 321.5 93.0 Q 317.5 89.0 291.5 94.0 Q 265.5 98.0 265.5 103.0 L 244.5 108.0 Q 237.5 109.0 235.5 107.0 Q 234.5 103.0 238.5 100.0 L 276.5 61.0 L 309.5 19.0 Q 321.5 3.0 328.5 3.0 Q 347.5 -1.0 372.5 42.0 Q 384.5 61.0 388.5 77.0 Q 393.5 93.0 393.5 129.0 L 396.5 183.0 L 398.5 255.0 L 400.5 578.0 L 404.5 611.0 Q 407.5 625.0 413.5 638.0 Q 419.5 651.0 419.5 654.0 Q 415.5 666.0 393.5 682.0 L 370.5 698.0 Q 363.5 702.0 356.5 702.0 L 315.5 686.0 L 288.5 679.0 L 225.5 667.0 C 196.5 661.0 210.5 637.0 240.5 641.0 L 320.5 653.0 Q 323.5 654.0 334.5 654.0 Q 349.5 653.0 349.5 632.0 L 351.5 611.0 L 349.5 486.0 L 347.5 461.0 L 346.5 383.0 L 346.5 358.0 Z" fill="lightgray"></path> 
<path d="M 230.5 527.0 L 246.5 505.0 L 268.5 483.0 Q 288.5 463.0 300.5 454.0 Q 312.5 444.0 323.5 444.0 Q 335.5 443.0 340.5 448.0 L 347.5 461.0 C 355.5 477.0 355.5 477.0 349.5 486.0 L 342.5 496.0 Q 324.5 520.0 292.5 527.0 Q 277.5 534.0 258.5 537.0 Q 241.5 542.0 230.5 543.0 C 217.5 545.0 217.5 545.0 230.5 527.0 Z" fill="lightgray"></path> 
<path d="M 217.5 293.0 L 223.5 283.0 L 234.5 271.0 Q 251.5 256.0 256.5 259.0 L 279.5 287.0 Q 283.5 293.0 297.5 307.0 L 346.5 358.0 C 367.5 380.0 371.5 400.0 346.5 383.0 L 321.5 366.0 Q 266.5 332.0 219.5 314.0 C 207.5 309.0 207.5 309.0 217.5 293.0 Z" fill="lightgray"></path> 
<path d="M 569.5 539.0 Q 567.5 560.0 561.5 569.0 Q 556.5 578.0 540.5 591.0 Q 525.5 604.0 496.5 613.0 Q 468.5 621.0 465.5 618.0 Q 462.5 614.0 468.5 603.0 L 515.5 522.0 Q 528.5 498.0 542.5 499.0 Q 571.5 500.0 569.5 539.0 Z" fill="lightgray"></path> 
<path d="M 780.5 575.0 L 736.5 533.0 Q 730.5 529.0 732.5 524.0 Q 734.5 519.0 744.5 524.0 L 772.5 537.0 L 878.5 597.0 Q 884.5 600.0 898.5 605.0 Q 912.5 609.0 914.5 614.0 Q 917.5 626.0 889.5 654.0 Q 848.5 696.0 838.5 675.0 L 829.5 650.0 Q 823.5 630.0 802.5 604.0 L 780.5 575.0 Z" fill="lightgray"></path> 
<path d="M 684.5 426.0 L 775.5 440.0 L 817.5 449.0 Q 838.5 452.0 849.5 463.0 Q 849.5 473.0 816.5 487.0 Q 795.5 492.0 790.5 492.0 L 719.5 473.0 L 683.5 467.0 L 624.5 457.0 L 574.5 449.0 L 502.5 443.0 Q 479.5 441.0 496.5 424.0 Q 514.5 406.0 602.5 415.0 L 624.5 418.0 L 684.5 426.0 Z" fill="lightgray"></path> 
<path d="M 550.5 299.0 L 458.5 291.0 L 424.5 290.0 Q 400.5 288.0 417.5 271.0 Q 434.5 253.0 484.5 243.0 L 622.5 269.0 L 683.5 273.0 L 800.5 279.0 L 918.5 279.0 L 954.5 277.0 Q 965.5 277.0 966.5 283.0 Q 969.5 288.0 964.5 296.0 Q 953.5 315.0 916.5 329.0 Q 898.5 335.0 888.5 335.0 Q 879.5 335.0 858.5 332.0 L 802.5 324.0 Q 770.5 319.0 749.5 318.0 L 683.5 312.0 L 622.5 307.0 L 568.5 300.0 Q 559.5 300.0 550.5 299.0 Z" fill="lightgray"></path> 
<path d="M 622.5 269.0 L 620.5 55.0 Q 618.5 10.0 619.5 -1.0 Q 621.5 -109.0 638.5 -109.0 Q 643.5 -109.0 654.5 -91.0 Q 665.5 -74.0 670.5 -10.0 Q 677.5 48.0 677.5 84.0 L 679.5 105.0 L 683.5 273.0 L 683.5 312.0 L 684.5 426.0 L 683.5 467.0 L 685.5 618.0 Q 686.5 648.0 688.5 662.0 L 690.5 694.0 Q 692.5 713.0 698.5 724.0 Q 703.5 738.0 703.5 742.0 Q 701.5 754.0 655.5 770.0 Q 609.5 785.0 602.5 775.0 Q 599.5 771.0 603.5 760.0 L 612.5 742.0 L 620.5 718.0 Q 624.5 684.0 624.5 633.0 L 624.5 457.0 L 624.5 418.0 L 622.5 307.0 L 622.5 269.0 Z" fill="lightgray"></path> 
<path d="M 1561.0 517.0 L 1692.0 618.0 Q 1713.0 634.0 1750.0 655.0 Q 1788.0 676.0 1788.0 681.0 Q 1795.0 701.0 1735.0 737.0 Q 1701.0 757.0 1680.0 757.0 Q 1660.0 757.0 1628.0 747.0 Q 1596.0 737.0 1582.0 735.0 L 1528.0 725.0 Q 1484.0 717.0 1419.0 710.0 Q 1355.0 703.0 1343.0 703.0 L 1317.0 701.0 Q 1299.0 701.0 1299.0 694.0 Q 1297.0 690.0 1305.0 682.0 Q 1347.0 650.0 1365.0 654.0 Q 1374.0 654.0 1389.0 659.0 L 1457.0 673.0 L 1591.0 695.0 Q 1638.0 702.0 1651.0 697.0 Q 1662.0 689.0 1649.0 668.0 L 1627.0 640.0 L 1538.0 534.0 C 1519.0 511.0 1537.0 499.0 1561.0 517.0 Z" fill="lightgray"></path> 
<path d="M 1529.0 349.0 L 1531.0 296.0 L 1529.0 217.0 Q 1526.0 138.0 1512.0 76.0 Q 1506.0 42.0 1486.0 36.0 Q 1479.0 32.0 1462.0 37.0 L 1425.0 47.0 Q 1405.0 51.0 1399.0 46.0 Q 1397.0 41.0 1404.0 37.0 L 1447.0 -7.0 Q 1472.0 -34.0 1485.0 -51.0 Q 1498.0 -68.0 1503.0 -71.0 Q 1515.0 -81.0 1529.0 -67.0 Q 1536.0 -62.0 1549.0 -41.0 Q 1561.0 -24.0 1567.0 -3.0 Q 1584.0 71.0 1584.0 115.0 L 1588.0 211.0 L 1584.0 351.0 L 1580.0 396.0 L 1575.0 475.0 Q 1573.0 498.0 1570.0 504.0 L 1561.0 517.0 C 1554.0 529.0 1554.0 529.0 1538.0 534.0 L 1523.0 539.0 L 1503.0 543.0 Q 1493.0 545.0 1489.0 541.0 Q 1485.0 540.0 1485.0 535.0 Q 1485.0 530.0 1493.0 524.0 Q 1505.0 510.0 1507.0 506.0 Q 1522.0 476.0 1524.0 447.0 L 1528.0 393.0 L 1529.0 349.0 Z" fill="lightgray"></path> 
<path d="M 1528.0 393.0 L 1204.0 367.0 Q 1190.0 365.0 1174.0 365.0 L 1144.0 365.0 L 1120.0 363.0 Q 1097.0 364.0 1110.0 343.0 Q 1116.0 334.0 1141.0 318.0 Q 1167.0 302.0 1188.0 305.0 L 1286.0 325.0 Q 1336.0 336.0 1456.0 345.0 L 1529.0 349.0 L 1584.0 351.0 L 1704.0 356.0 L 1901.0 355.0 L 1944.0 356.0 Q 1961.0 356.0 1965.0 360.0 Q 1971.0 362.0 1973.0 370.0 Q 1975.0 377.0 1964.0 390.0 Q 1953.0 402.0 1895.0 423.0 Q 1884.0 427.0 1867.0 427.0 L 1759.0 411.0 Q 1714.0 406.0 1693.0 405.0 L 1580.0 396.0 L 1528.0 393.0 Z" fill="lightgray"></path> 
      <clipPath id="make-me-a-hanzi-clip-0">
      <path d="M 179.5 495.0 L 177.5 425.0 Q 175.5 411.0 175.5 381.0 L 174.5 347.0 Q 172.5 312.0 166.5 279.0 Q 153.5 175.0 99.5 83.0 Q 82.5 54.0 77.5 47.0 L 57.5 23.0 Q 54.5 17.0 57.5 14.0 Q 58.5 8.0 68.5 15.0 L 90.5 31.0 Q 129.5 64.0 162.5 115.0 Q 197.5 179.0 207.5 236.0 L 217.5 293.0 L 219.5 314.0 L 221.5 335.0 L 227.5 461.0 Q 229.5 484.0 230.5 527.0 L 230.5 543.0 L 230.5 574.0 L 240.5 641.0 C 243.5 660.0 243.5 660.0 225.5 667.0 L 213.5 673.0 Q 206.5 674.0 193.5 679.0 L 173.5 683.0 Q 167.5 683.0 163.5 681.0 Q 159.5 678.0 166.5 656.0 Q 174.5 634.0 176.5 597.0 L 177.5 553.0 L 179.5 495.0 Z" fill="lightgray"></path>
      </clipPath>
      <path clip-path="url(#make-me-a-hanzi-clip-0)" d="M 169.5 676.0 L 205.5 635.0 L 204.5 478.0 L 193.5 290.0 L 174.5 198.0 L 148.5 131.0 L 89.5 43.0 L 62.5 19.0 " fill="none" id="make-me-a-hanzi-animation-0" stroke-dasharray="836 1672" stroke-linecap="round"></path>

      <clipPath id="make-me-a-hanzi-clip-1">
      <path d="M 346.5 358.0 L 343.5 265.0 L 337.5 143.0 Q 332.5 97.0 321.5 93.0 Q 317.5 89.0 291.5 94.0 Q 265.5 98.0 265.5 103.0 L 244.5 108.0 Q 237.5 109.0 235.5 107.0 Q 234.5 103.0 238.5 100.0 L 276.5 61.0 L 309.5 19.0 Q 321.5 3.0 328.5 3.0 Q 347.5 -1.0 372.5 42.0 Q 384.5 61.0 388.5 77.0 Q 393.5 93.0 393.5 129.0 L 396.5 183.0 L 398.5 255.0 L 400.5 578.0 L 404.5 611.0 Q 407.5 625.0 413.5 638.0 Q 419.5 651.0 419.5 654.0 Q 415.5 666.0 393.5 682.0 L 370.5 698.0 Q 363.5 702.0 356.5 702.0 L 315.5 686.0 L 288.5 679.0 L 225.5 667.0 C 196.5 661.0 210.5 637.0 240.5 641.0 L 320.5 653.0 Q 323.5 654.0 334.5 654.0 Q 349.5 653.0 349.5 632.0 L 351.5 611.0 L 349.5 486.0 L 347.5 461.0 L 346.5 383.0 L 346.5 358.0 Z" fill="lightgray"></path>
      </clipPath>
      <path clip-path="url(#make-me-a-hanzi-clip-1)" d="M 232.5 663.0 L 247.5 657.0 L 343.5 674.0 L 360.5 672.0 L 380.5 648.0 L 369.5 205.0 L 360.5 96.0 L 351.5 74.0 L 333.5 54.0 L 240.5 105.0 " fill="none" id="make-me-a-hanzi-animation-1" stroke-dasharray="999 1998" stroke-linecap="round"></path>

      <clipPath id="make-me-a-hanzi-clip-2">
      <path d="M 230.5 527.0 L 246.5 505.0 L 268.5 483.0 Q 288.5 463.0 300.5 454.0 Q 312.5 444.0 323.5 444.0 Q 335.5 443.0 340.5 448.0 L 347.5 461.0 C 355.5 477.0 355.5 477.0 349.5 486.0 L 342.5 496.0 Q 324.5 520.0 292.5 527.0 Q 277.5 534.0 258.5 537.0 Q 241.5 542.0 230.5 543.0 C 217.5 545.0 217.5 545.0 230.5 527.0 Z" fill="lightgray"></path>
      </clipPath>
      <path clip-path="url(#make-me-a-hanzi-clip-2)" d="M 236.5 539.0 L 243.5 528.0 L 301.5 493.0 L 328.5 463.0 " fill="none" id="make-me-a-hanzi-animation-2" stroke-dasharray="249 498" stroke-linecap="round"></path>

      <clipPath id="make-me-a-hanzi-clip-3">
      <path d="M 217.5 293.0 L 223.5 283.0 L 234.5 271.0 Q 251.5 256.0 256.5 259.0 L 279.5 287.0 Q 283.5 293.0 297.5 307.0 L 346.5 358.0 C 367.5 380.0 371.5 400.0 346.5 383.0 L 321.5 366.0 Q 266.5 332.0 219.5 314.0 C 207.5 309.0 207.5 309.0 217.5 293.0 Z" fill="lightgray"></path>
      </clipPath>
      <path clip-path="url(#make-me-a-hanzi-clip-3)" d="M 254.5 269.0 L 250.5 296.0 L 337.5 364.0 L 341.5 377.0 " fill="none" id="make-me-a-hanzi-animation-3" stroke-dasharray="279 558" stroke-linecap="round"></path>

      <clipPath id="make-me-a-hanzi-clip-4">
      <path d="M 569.5 539.0 Q 567.5 560.0 561.5 569.0 Q 556.5 578.0 540.5 591.0 Q 525.5 604.0 496.5 613.0 Q 468.5 621.0 465.5 618.0 Q 462.5 614.0 468.5 603.0 L 515.5 522.0 Q 528.5 498.0 542.5 499.0 Q 571.5 500.0 569.5 539.0 Z" fill="lightgray"></path>
      </clipPath>
      <path clip-path="url(#make-me-a-hanzi-clip-4)" d="M 470.5 611.0 L 527.5 563.0 L 542.5 521.0 " fill="none" id="make-me-a-hanzi-animation-4" stroke-dasharray="247 494" stroke-linecap="round"></path>

      <clipPath id="make-me-a-hanzi-clip-5">
      <path d="M 780.5 575.0 L 736.5 533.0 Q 730.5 529.0 732.5 524.0 Q 734.5 519.0 744.5 524.0 L 772.5 537.0 L 878.5 597.0 Q 884.5 600.0 898.5 605.0 Q 912.5 609.0 914.5 614.0 Q 917.5 626.0 889.5 654.0 Q 848.5 696.0 838.5 675.0 L 829.5 650.0 Q 823.5 630.0 802.5 604.0 L 780.5 575.0 Z" fill="lightgray"></path>
      </clipPath>
      <path clip-path="url(#make-me-a-hanzi-clip-5)" d="M 906.5 618.0 L 861.5 630.0 L 821.5 590.0 L 738.5 527.0 " fill="none" id="make-me-a-hanzi-animation-5" stroke-dasharray="335 670" stroke-linecap="round"></path>

      <clipPath id="make-me-a-hanzi-clip-6">
      <path d="M 684.5 426.0 L 775.5 440.0 L 817.5 449.0 Q 838.5 452.0 849.5 463.0 Q 849.5 473.0 816.5 487.0 Q 795.5 492.0 790.5 492.0 L 719.5 473.0 L 683.5 467.0 L 624.5 457.0 L 574.5 449.0 L 502.5 443.0 Q 479.5 441.0 496.5 424.0 Q 514.5 406.0 602.5 415.0 L 624.5 418.0 L 684.5 426.0 Z" fill="lightgray"></path>
      </clipPath>
      <path clip-path="url(#make-me-a-hanzi-clip-6)" d="M 498.5 434.0 L 567.5 429.0 L 704.5 449.0 L 789.5 468.0 L 842.5 464.0 " fill="none" id="make-me-a-hanzi-animation-6" stroke-dasharray="476 952" stroke-linecap="round"></path>

      <clipPath id="make-me-a-hanzi-clip-7">
      <path d="M 550.5 299.0 L 458.5 291.0 L 424.5 290.0 Q 400.5 288.0 417.5 271.0 Q 434.5 253.0 484.5 243.0 L 622.5 269.0 L 683.5 273.0 L 800.5 279.0 L 918.5 279.0 L 954.5 277.0 Q 965.5 277.0 966.5 283.0 Q 969.5 288.0 964.5 296.0 Q 953.5 315.0 916.5 329.0 Q 898.5 335.0 888.5 335.0 Q 879.5 335.0 858.5 332.0 L 802.5 324.0 Q 770.5 319.0 749.5 318.0 L 683.5 312.0 L 622.5 307.0 L 568.5 300.0 Q 559.5 300.0 550.5 299.0 Z" fill="lightgray"></path>
      </clipPath>
      <path clip-path="url(#make-me-a-hanzi-clip-7)" d="M 420.5 281.0 L 487.5 268.0 L 618.5 288.0 L 870.5 307.0 L 911.5 304.0 L 956.5 288.0 " fill="none" id="make-me-a-hanzi-animation-7" stroke-dasharray="670 1340" stroke-linecap="round"></path>

      <clipPath id="make-me-a-hanzi-clip-8">
      <path d="M 622.5 269.0 L 620.5 55.0 Q 618.5 10.0 619.5 -1.0 Q 621.5 -109.0 638.5 -109.0 Q 643.5 -109.0 654.5 -91.0 Q 665.5 -74.0 670.5 -10.0 Q 677.5 48.0 677.5 84.0 L 679.5 105.0 L 683.5 273.0 L 683.5 312.0 L 684.5 426.0 L 683.5 467.0 L 685.5 618.0 Q 686.5 648.0 688.5 662.0 L 690.5 694.0 Q 692.5 713.0 698.5 724.0 Q 703.5 738.0 703.5 742.0 Q 701.5 754.0 655.5 770.0 Q 609.5 785.0 602.5 775.0 Q 599.5 771.0 603.5 760.0 L 612.5 742.0 L 620.5 718.0 Q 624.5 684.0 624.5 633.0 L 624.5 457.0 L 624.5 418.0 L 622.5 307.0 L 622.5 269.0 Z" fill="lightgray"></path>
      </clipPath>
      <path clip-path="url(#make-me-a-hanzi-clip-8)" d="M 610.5 768.0 L 658.5 727.0 L 651.5 129.0 L 638.5 -103.0 " fill="none" id="make-me-a-hanzi-animation-8" stroke-dasharray="1022 2044" stroke-linecap="round"></path>

      <clipPath id="make-me-a-hanzi-clip-9">
      <path d="M 1561.0 517.0 L 1692.0 618.0 Q 1713.0 634.0 1750.0 655.0 Q 1788.0 676.0 1788.0 681.0 Q 1795.0 701.0 1735.0 737.0 Q 1701.0 757.0 1680.0 757.0 Q 1660.0 757.0 1628.0 747.0 Q 1596.0 737.0 1582.0 735.0 L 1528.0 725.0 Q 1484.0 717.0 1419.0 710.0 Q 1355.0 703.0 1343.0 703.0 L 1317.0 701.0 Q 1299.0 701.0 1299.0 694.0 Q 1297.0 690.0 1305.0 682.0 Q 1347.0 650.0 1365.0 654.0 Q 1374.0 654.0 1389.0 659.0 L 1457.0 673.0 L 1591.0 695.0 Q 1638.0 702.0 1651.0 697.0 Q 1662.0 689.0 1649.0 668.0 L 1627.0 640.0 L 1538.0 534.0 C 1519.0 511.0 1537.0 499.0 1561.0 517.0 Z" fill="lightgray"></path>
      </clipPath>
      <path clip-path="url(#make-me-a-hanzi-clip-9)" d="M 1308.0 691.0 L 1367.0 679.0 L 1625.0 723.0 L 1656.0 726.0 L 1687.0 716.0 L 1708.0 692.0 L 1695.0 670.0 L 1580.0 554.0 L 1561.0 537.0 L 1548.0 536.0 " fill="none" id="make-me-a-hanzi-animation-9" stroke-dasharray="773 1546" stroke-linecap="round"></path>

      <clipPath id="make-me-a-hanzi-clip-10">
      <path d="M 1529.0 349.0 L 1531.0 296.0 L 1529.0 217.0 Q 1526.0 138.0 1512.0 76.0 Q 1506.0 42.0 1486.0 36.0 Q 1479.0 32.0 1462.0 37.0 L 1425.0 47.0 Q 1405.0 51.0 1399.0 46.0 Q 1397.0 41.0 1404.0 37.0 L 1447.0 -7.0 Q 1472.0 -34.0 1485.0 -51.0 Q 1498.0 -68.0 1503.0 -71.0 Q 1515.0 -81.0 1529.0 -67.0 Q 1536.0 -62.0 1549.0 -41.0 Q 1561.0 -24.0 1567.0 -3.0 Q 1584.0 71.0 1584.0 115.0 L 1588.0 211.0 L 1584.0 351.0 L 1580.0 396.0 L 1575.0 475.0 Q 1573.0 498.0 1570.0 504.0 L 1561.0 517.0 C 1554.0 529.0 1554.0 529.0 1538.0 534.0 L 1523.0 539.0 L 1503.0 543.0 Q 1493.0 545.0 1489.0 541.0 Q 1485.0 540.0 1485.0 535.0 Q 1485.0 530.0 1493.0 524.0 Q 1505.0 510.0 1507.0 506.0 Q 1522.0 476.0 1524.0 447.0 L 1528.0 393.0 L 1529.0 349.0 Z" fill="lightgray"></path>
      </clipPath>
      <path clip-path="url(#make-me-a-hanzi-clip-10)" d="M 1494.0 533.0 L 1524.0 518.0 L 1540.0 500.0 L 1551.0 450.0 L 1559.0 218.0 L 1547.0 75.0 L 1529.0 15.0 L 1510.0 -6.0 L 1473.0 5.0 L 1405.0 43.0 " fill="none" id="make-me-a-hanzi-animation-10" stroke-dasharray="820 1640" stroke-linecap="round"></path>

      <clipPath id="make-me-a-hanzi-clip-11">
      <path d="M 1528.0 393.0 L 1204.0 367.0 Q 1190.0 365.0 1174.0 365.0 L 1144.0 365.0 L 1120.0 363.0 Q 1097.0 364.0 1110.0 343.0 Q 1116.0 334.0 1141.0 318.0 Q 1167.0 302.0 1188.0 305.0 L 1286.0 325.0 Q 1336.0 336.0 1456.0 345.0 L 1529.0 349.0 L 1584.0 351.0 L 1704.0 356.0 L 1901.0 355.0 L 1944.0 356.0 Q 1961.0 356.0 1965.0 360.0 Q 1971.0 362.0 1973.0 370.0 Q 1975.0 377.0 1964.0 390.0 Q 1953.0 402.0 1895.0 423.0 Q 1884.0 427.0 1867.0 427.0 L 1759.0 411.0 Q 1714.0 406.0 1693.0 405.0 L 1580.0 396.0 L 1528.0 393.0 Z" fill="lightgray"></path>
      </clipPath>
      <path clip-path="url(#make-me-a-hanzi-clip-11)" d="M 1116.0 353.0 L 1146.0 341.0 L 1189.0 335.0 L 1429.0 365.0 L 1863.0 391.0 L 1930.0 382.0 L 1960.0 372.0 " fill="none" id="make-me-a-hanzi-animation-11" stroke-dasharray="980 1960" stroke-linecap="round"></path>

</g>
</svg>
