<svg version="1.1" viewBox="0 0 2048 1024" xmlns="http://www.w3.org/2000/svg">
  <g stroke="lightgray" stroke-dasharray="1,1" stroke-width="1" transform="scale(4, 4)">
    <line x1="0" y1="0" x2="256" y2="256"></line>
    <line x1="256" y1="0" x2="0" y2="256"></line>
    <line x1="128" y1="0" x2="128" y2="256"></line>
    <line x1="0" y1="128" x2="256" y2="128"></line>
    <line x1="256" y1="0" x2="512" y2="256"></line>
    <line x1="512" y1="0" x2="256" y2="256"></line>
    <line x1="384" y1="0" x2="384" y2="256"></line>
    <line x1="256" y1="128" x2="512" y2="128"></line>
  </g>
<g transform="scale(1, -1) translate(0, -850)">
   <style type="text/css">
    @keyframes keyframes0 {
      from {
       stroke: black;
       stroke-dashoffset: 651;
       stroke-width: 128;
       }
       68% {
       animation-timing-function: step-end;
       stroke: black;
       stroke-dashoffset: 0;
       stroke-width: 128;
       }
       to {
       stroke: black;
       stroke-width: 1024;
       }
       }
       #make-me-a-hanzi-animation-0 {
         animation: keyframes0 0.779785s both;
         animation-delay: 0.000000s;
         animation-timing-function: linear;
       }
    @keyframes keyframes1 {
      from {
       stroke: black;
       stroke-dashoffset: 737;
       stroke-width: 128;
       }
       71% {
       animation-timing-function: step-end;
       stroke: black;
       stroke-dashoffset: 0;
       stroke-width: 128;
       }
       to {
       stroke: black;
       stroke-width: 1024;
       }
       }
       #make-me-a-hanzi-animation-1 {
         animation: keyframes1 0.849772s both;
         animation-delay: 0.779785s;
         animation-timing-function: linear;
       }
    @keyframes keyframes2 {
      from {
       stroke: black;
       stroke-dashoffset: 512;
       stroke-width: 128;
       }
       63% {
       animation-timing-function: step-end;
       stroke: black;
       stroke-dashoffset: 0;
       stroke-width: 128;
       }
       to {
       stroke: black;
       stroke-width: 1024;
       }
       }
       #make-me-a-hanzi-animation-2 {
         animation: keyframes2 0.666667s both;
         animation-delay: 1.629557s;
         animation-timing-function: linear;
       }
    @keyframes keyframes3 {
      from {
       stroke: black;
       stroke-dashoffset: 668;
       stroke-width: 128;
       }
       68% {
       animation-timing-function: step-end;
       stroke: black;
       stroke-dashoffset: 0;
       stroke-width: 128;
       }
       to {
       stroke: black;
       stroke-width: 1024;
       }
       }
       #make-me-a-hanzi-animation-3 {
         animation: keyframes3 0.793620s both;
         animation-delay: 2.296224s;
         animation-timing-function: linear;
       }
    @keyframes keyframes4 {
      from {
       stroke: black;
       stroke-dashoffset: 462;
       stroke-width: 128;
       }
       60% {
       animation-timing-function: step-end;
       stroke: black;
       stroke-dashoffset: 0;
       stroke-width: 128;
       }
       to {
       stroke: black;
       stroke-width: 1024;
       }
       }
       #make-me-a-hanzi-animation-4 {
         animation: keyframes4 0.625977s both;
         animation-delay: 3.089844s;
         animation-timing-function: linear;
       }
    @keyframes keyframes5 {
      from {
       stroke: black;
       stroke-dashoffset: 989;
       stroke-width: 128;
       }
       76% {
       animation-timing-function: step-end;
       stroke: black;
       stroke-dashoffset: 0;
       stroke-width: 128;
       }
       to {
       stroke: black;
       stroke-width: 1024;
       }
       }
       #make-me-a-hanzi-animation-5 {
         animation: keyframes5 1.054850s both;
         animation-delay: 3.715820s;
         animation-timing-function: linear;
       }
    @keyframes keyframes6 {
      from {
       stroke: black;
       stroke-dashoffset: 1345;
       stroke-width: 128;
       }
       81% {
       animation-timing-function: step-end;
       stroke: black;
       stroke-dashoffset: 0;
       stroke-width: 128;
       }
       to {
       stroke: black;
       stroke-width: 1024;
       }
       }
       #make-me-a-hanzi-animation-6 {
         animation: keyframes6 1.344564s both;
         animation-delay: 4.770671s;
         animation-timing-function: linear;
       }
    @keyframes keyframes7 {
      from {
       stroke: black;
       stroke-dashoffset: 450;
       stroke-width: 128;
       }
       59% {
       animation-timing-function: step-end;
       stroke: black;
       stroke-dashoffset: 0;
       stroke-width: 128;
       }
       to {
       stroke: black;
       stroke-width: 1024;
       }
       }
       #make-me-a-hanzi-animation-7 {
         animation: keyframes7 0.616211s both;
         animation-delay: 6.115234s;
         animation-timing-function: linear;
       }
    @keyframes keyframes8 {
      from {
       stroke: black;
       stroke-dashoffset: 454;
       stroke-width: 128;
       }
       60% {
       animation-timing-function: step-end;
       stroke: black;
       stroke-dashoffset: 0;
       stroke-width: 128;
       }
       to {
       stroke: black;
       stroke-width: 1024;
       }
       }
       #make-me-a-hanzi-animation-8 {
         animation: keyframes8 0.619466s both;
         animation-delay: 6.731445s;
         animation-timing-function: linear;
       }
    @keyframes keyframes9 {
      from {
       stroke: black;
       stroke-dashoffset: 987;
       stroke-width: 128;
       }
       76% {
       animation-timing-function: step-end;
       stroke: black;
       stroke-dashoffset: 0;
       stroke-width: 128;
       }
       to {
       stroke: black;
       stroke-width: 1024;
       }
       }
       #make-me-a-hanzi-animation-9 {
         animation: keyframes9 1.053223s both;
         animation-delay: 7.350911s;
         animation-timing-function: linear;
       }
    @keyframes keyframes10 {
      from {
       stroke: black;
       stroke-dashoffset: 1730;
       stroke-width: 128;
       }
       85% {
       animation-timing-function: step-end;
       stroke: black;
       stroke-dashoffset: 0;
       stroke-width: 128;
       }
       to {
       stroke: black;
       stroke-width: 1024;
       }
       }
       #make-me-a-hanzi-animation-10 {
         animation: keyframes10 1.657878s both;
         animation-delay: 8.404134s;
         animation-timing-function: linear;
       }
    @keyframes keyframes11 {
      from {
       stroke: black;
       stroke-dashoffset: 542;
       stroke-width: 128;
       }
       64% {
       animation-timing-function: step-end;
       stroke: black;
       stroke-dashoffset: 0;
       stroke-width: 128;
       }
       to {
       stroke: black;
       stroke-width: 1024;
       }
       }
       #make-me-a-hanzi-animation-11 {
         animation: keyframes11 0.691081s both;
         animation-delay: 10.062012s;
         animation-timing-function: linear;
       }
    @keyframes keyframes12 {
      from {
       stroke: black;
       stroke-dashoffset: 493;
       stroke-width: 128;
       }
       62% {
       animation-timing-function: step-end;
       stroke: black;
       stroke-dashoffset: 0;
       stroke-width: 128;
       }
       to {
       stroke: black;
       stroke-width: 1024;
       }
       }
       #make-me-a-hanzi-animation-12 {
         animation: keyframes12 0.651204s both;
         animation-delay: 10.753092s;
         animation-timing-function: linear;
       }
    @keyframes keyframes13 {
      from {
       stroke: black;
       stroke-dashoffset: 608;
       stroke-width: 128;
       }
       66% {
       animation-timing-function: step-end;
       stroke: black;
       stroke-dashoffset: 0;
       stroke-width: 128;
       }
       to {
       stroke: black;
       stroke-width: 1024;
       }
       }
       #make-me-a-hanzi-animation-13 {
         animation: keyframes13 0.744792s both;
         animation-delay: 11.404297s;
         animation-timing-function: linear;
       }
    @keyframes keyframes14 {
      from {
       stroke: black;
       stroke-dashoffset: 481;
       stroke-width: 128;
       }
       61% {
       animation-timing-function: step-end;
       stroke: black;
       stroke-dashoffset: 0;
       stroke-width: 128;
       }
       to {
       stroke: black;
       stroke-width: 1024;
       }
       }
       #make-me-a-hanzi-animation-14 {
         animation: keyframes14 0.641439s both;
         animation-delay: 12.149089s;
         animation-timing-function: linear;
       }
</style>
<path d="M 190 444 Q 200 444 212 445 L 255 449 L 318 454 L 381 464 L 431 471 Q 509 481 527 494 Q 533 500 533 504.5 Q 533 509 524 516 Q 512 523 496 527.5 Q 480 532 473 532 L 392 512 L 326 501 Q 241 487 170 480 L 141 477 Q 128 475 126 471 L 126 468 Q 126 444 190 444 Z" fill="lightgray"></path> 
<path d="M 318 454 L 292 310 C 287 280 345 287 351 316 L 381 464 L 392 512 Q 414 638 420 663 Q 425 687 436 702 Q 447 716 447 721 Q 447 740 395 761 Q 368 775 354 775 Q 330 775 344 744 Q 350 731 352 716 Q 352 690 345 639 L 326 501 L 318 454 Z" fill="lightgray"></path> 
<path d="M 221 299 L 200 301 Q 161 307 161 295 Q 161 290 176 271 Q 191 252 195 223 L 210 99 Q 211 89 216 74 Q 229 36 250 54 Q 255 62 255 85 L 254 119 L 236 273 C 233 298 233 298 221 299 Z" fill="lightgray"></path> 
<path d="M 292 310 L 221 299 C 191 294 206 269 236 273 L 322 284 Q 379 290 415 290 Q 434 290 426 251 L 400 130 C 394 101 431 94 442 122 Q 476 205 486 226 Q 495 247 505 258 Q 514 268 516 271 Q 525 280 516 290 Q 506 299 483 315 Q 459 331 453 331 Q 447 331 402 325 L 351 316 L 292 310 Z" fill="lightgray"></path> 
<path d="M 255 85 L 455 93 Q 467 93 467 99 Q 467 102 463 105 Q 458 113 442 122 C 425 132 425 132 400 130 L 254 119 C 224 117 225 84 255 85 Z" fill="lightgray"></path> 
<path d="M 652 662 Q 645 667 626 675 Q 607 682 585 682 Q 571 682 573 668 Q 574 664 585 647 Q 595 629 599 597 Q 602 564 606 516 Q 604 429 601 371 Q 590 196 535 53 Q 529 37 531 20 Q 535 -18 559 -46 Q 576 -58 587 -36 Q 630 69 647 258 L 649 288 Q 653 352 656 422 L 657 454 Q 658 469 660 510 Q 661 551 666 587 Q 671 623 671 626 C 674 651 674 651 652 662 Z" fill="lightgray"></path> 
<path d="M 848 85 Q 846 47 843 31 Q 842 13 834 7 Q 826 2 799 6 L 764 9 L 741 14 L 726 18 Q 710 20 708 14 Q 706 9 714 4 L 733 -12 Q 772 -38 799 -68 Q 822 -91 829 -96 Q 844 -111 855 -110 Q 866 -109 880 -92 Q 908 -62 913 4 Q 918 32 918 64 L 917 86 L 916 124 L 915 168 L 913 295 L 915 471 Q 915 485 919 539 Q 922 593 926 606 Q 930 619 938 633 Q 946 646 945 650 Q 944 654 935 666 Q 926 675 899 693 Q 872 710 860 709 Q 848 708 839 703 Q 830 698 823 698 Q 816 698 813 695 L 764 684 Q 748 680 652 662 C 623 656 642 620 671 626 Q 738 641 813 649 Q 834 651 841 645 Q 851 639 853 629 Q 855 607 855 584 L 854 476 L 854 450 L 853 308 L 855 282 L 848 85 Z" fill="lightgray"></path> 
<path d="M 656 422 L 676 418 Q 684 416 725 424 L 829 446 L 854 450 C 884 455 883 467 854 476 L 835 482 Q 808 488 796 487 Q 784 486 764 480 L 702 464 L 657 454 C 628 447 627 428 656 422 Z" fill="lightgray"></path> 
<path d="M 647 258 L 662 254 Q 688 246 739 258 L 855 282 C 884 288 881 299 853 308 L 829 316 Q 817 320 798 320 L 767 313 L 703 296 Q 691 293 682 293 L 649 288 C 619 284 618 266 647 258 Z" fill="lightgray"></path> 
<path d="M 1292 660 L 1277 668 Q 1234 682 1229 680 Q 1222 680 1218 676 Q 1214 669 1223 653 L 1230 634 L 1238 601 L 1241 579 Q 1242 571 1242 546 L 1239 433 Q 1234 261 1227 210 Q 1221 138 1208 89 Q 1195 40 1194 28 Q 1193 15 1199 -3 Q 1205 -21 1219 -38 Q 1233 -54 1239 -53 Q 1244 -52 1250 -45 Q 1257 -33 1261 -16 Q 1265 2 1265 4 L 1270 64 L 1277 166 Q 1281 204 1287 403 Q 1293 601 1293 618 C 1294 648 1294 659 1292 660 Z" fill="lightgray"></path> 
<path d="M 1293 618 L 1377 632 Q 1400 637 1626 658 L 1709 666 L 1790 671 Q 1798 672 1810 670 Q 1822 668 1824 665 Q 1833 656 1833 624 L 1835 512 L 1835 310 Q 1835 189 1824 70 Q 1818 35 1814 25 Q 1809 14 1797 2 Q 1784 -8 1778 -9 Q 1771 -9 1751 -4 L 1691 16 Q 1680 18 1679 14 Q 1678 10 1682 6 L 1697 -11 L 1740 -56 L 1767 -92 Q 1776 -105 1784 -112 Q 1799 -127 1825 -112 Q 1898 -70 1898 70 L 1896 194 L 1895 404 Q 1894 506 1895 537 L 1898 582 Q 1901 636 1923 658 Q 1925 670 1924 672 Q 1916 689 1882 712 Q 1847 735 1837 735 Q 1827 735 1801 728 Q 1775 720 1678 704 Q 1580 687 1489 677 Q 1397 667 1392 667 L 1292 660 C 1262 658 1263 613 1293 618 Z" fill="lightgray"></path> 
<path d="M 1640 497 Q 1682 506 1684 513 Q 1686 514 1684 519 Q 1684 525 1642 544 Q 1622 549 1612 548.5 Q 1602 548 1585.5 542.5 Q 1569 537 1519 527 Q 1469 517 1450 515 Q 1431 513 1398 508 Q 1386 505 1386 502.5 Q 1386 500 1391 492 Q 1405 478 1443 475 Q 1481 472 1573 487 L 1640 497 Z" fill="lightgray"></path> 
<path d="M 1436 354 L 1407 364 L 1392 367 Q 1384 369 1379 366 Q 1373 362 1375 356 Q 1375 348 1386 335 Q 1397 322 1398 287 L 1402 234 Q 1408 164 1410 157 Q 1411 150 1415 140 Q 1418 137 1423 132 Q 1428 126 1432 126 Q 1435 126 1439 133 Q 1443 140 1443 146 Q 1443 151 1445 175 L 1445 210 L 1442 326 C 1441 352 1441 352 1436 354 Z" fill="lightgray"></path> 
<path d="M 1664 220 L 1679 272 Q 1680 276 1689 297 Q 1697 318 1707 328 L 1715 341 Q 1716 350 1706 360 Q 1695 370 1684 376 L 1655 393 L 1639 397 Q 1633 398 1614 391 Q 1540 363 1436 354 C 1406 351 1413 320 1442 326 L 1549 347 L 1551 348 L 1554 348 L 1570 350 L 1592 352 Q 1617 352 1621 332 L 1621 327 L 1620 318 L 1619 307 L 1606 230 C 1601 200 1656 191 1664 220 Z" fill="lightgray"></path> 
<path d="M 1445 175 L 1627 189 L 1673 190 Q 1685 198 1675 207 L 1664 220 C 1651 236 1636 234 1606 230 L 1445 210 C 1415 206 1415 173 1445 175 Z" fill="lightgray"></path> 
      <clipPath id="make-me-a-hanzi-clip-0">
      <path d="M 190 444 Q 200 444 212 445 L 255 449 L 318 454 L 381 464 L 431 471 Q 509 481 527 494 Q 533 500 533 504.5 Q 533 509 524 516 Q 512 523 496 527.5 Q 480 532 473 532 L 392 512 L 326 501 Q 241 487 170 480 L 141 477 Q 128 475 126 471 L 126 468 Q 126 444 190 444 Z" fill="lightgray"></path>
      </clipPath>
      <path clip-path="url(#make-me-a-hanzi-clip-0)" d="M 131 470 L 160 461 L 232 466 L 473 504 L 521 504 " fill="none" id="make-me-a-hanzi-animation-0" stroke-dasharray="523 1046" stroke-linecap="round"></path>

      <clipPath id="make-me-a-hanzi-clip-1">
      <path d="M 318 454 L 292 310 C 287 280 345 287 351 316 L 381 464 L 392 512 Q 414 638 420 663 Q 425 687 436 702 Q 447 716 447 721 Q 447 740 395 761 Q 368 775 354 775 Q 330 775 344 744 Q 350 731 352 716 Q 352 690 345 639 L 326 501 L 318 454 Z" fill="lightgray"></path>
      </clipPath>
      <path clip-path="url(#make-me-a-hanzi-clip-1)" d="M 351 763 L 394 715 L 331 359 L 326 341 L 299 316 " fill="none" id="make-me-a-hanzi-animation-1" stroke-dasharray="609 1218" stroke-linecap="round"></path>

      <clipPath id="make-me-a-hanzi-clip-2">
      <path d="M 221 299 L 200 301 Q 161 307 161 295 Q 161 290 176 271 Q 191 252 195 223 L 210 99 Q 211 89 216 74 Q 229 36 250 54 Q 255 62 255 85 L 254 119 L 236 273 C 233 298 233 298 221 299 Z" fill="lightgray"></path>
      </clipPath>
      <path clip-path="url(#make-me-a-hanzi-clip-2)" d="M 169 294 L 205 274 L 212 262 L 238 63 " fill="none" id="make-me-a-hanzi-animation-2" stroke-dasharray="384 768" stroke-linecap="round"></path>

      <clipPath id="make-me-a-hanzi-clip-3">
      <path d="M 292 310 L 221 299 C 191 294 206 269 236 273 L 322 284 Q 379 290 415 290 Q 434 290 426 251 L 400 130 C 394 101 431 94 442 122 Q 476 205 486 226 Q 495 247 505 258 Q 514 268 516 271 Q 525 280 516 290 Q 506 299 483 315 Q 459 331 453 331 Q 447 331 402 325 L 351 316 L 292 310 Z" fill="lightgray"></path>
      </clipPath>
      <path clip-path="url(#make-me-a-hanzi-clip-3)" d="M 229 295 L 244 289 L 414 310 L 450 301 L 468 276 L 432 160 L 425 146 L 408 136 " fill="none" id="make-me-a-hanzi-animation-3" stroke-dasharray="540 1080" stroke-linecap="round"></path>

      <clipPath id="make-me-a-hanzi-clip-4">
      <path d="M 255 85 L 455 93 Q 467 93 467 99 Q 467 102 463 105 Q 458 113 442 122 C 425 132 425 132 400 130 L 254 119 C 224 117 225 84 255 85 Z" fill="lightgray"></path>
      </clipPath>
      <path clip-path="url(#make-me-a-hanzi-clip-4)" d="M 262 91 L 270 102 L 394 111 L 442 107 L 460 99 " fill="none" id="make-me-a-hanzi-animation-4" stroke-dasharray="334 668" stroke-linecap="round"></path>

      <clipPath id="make-me-a-hanzi-clip-5">
      <path d="M 652 662 Q 645 667 626 675 Q 607 682 585 682 Q 571 682 573 668 Q 574 664 585 647 Q 595 629 599 597 Q 602 564 606 516 Q 604 429 601 371 Q 590 196 535 53 Q 529 37 531 20 Q 535 -18 559 -46 Q 576 -58 587 -36 Q 630 69 647 258 L 649 288 Q 653 352 656 422 L 657 454 Q 658 469 660 510 Q 661 551 666 587 Q 671 623 671 626 C 674 651 674 651 652 662 Z" fill="lightgray"></path>
      </clipPath>
      <path clip-path="url(#make-me-a-hanzi-clip-5)" d="M 583 672 L 626 637 L 633 618 L 633 502 L 618 251 L 593 112 L 569 27 L 570 -33 " fill="none" id="make-me-a-hanzi-animation-5" stroke-dasharray="861 1722" stroke-linecap="round"></path>

      <clipPath id="make-me-a-hanzi-clip-6">
      <path d="M 848 85 Q 846 47 843 31 Q 842 13 834 7 Q 826 2 799 6 L 764 9 L 741 14 L 726 18 Q 710 20 708 14 Q 706 9 714 4 L 733 -12 Q 772 -38 799 -68 Q 822 -91 829 -96 Q 844 -111 855 -110 Q 866 -109 880 -92 Q 908 -62 913 4 Q 918 32 918 64 L 917 86 L 916 124 L 915 168 L 913 295 L 915 471 Q 915 485 919 539 Q 922 593 926 606 Q 930 619 938 633 Q 946 646 945 650 Q 944 654 935 666 Q 926 675 899 693 Q 872 710 860 709 Q 848 708 839 703 Q 830 698 823 698 Q 816 698 813 695 L 764 684 Q 748 680 652 662 C 623 656 642 620 671 626 Q 738 641 813 649 Q 834 651 841 645 Q 851 639 853 629 Q 855 607 855 584 L 854 476 L 854 450 L 853 308 L 855 282 L 848 85 Z" fill="lightgray"></path>
      </clipPath>
      <path clip-path="url(#make-me-a-hanzi-clip-6)" d="M 664 661 L 681 648 L 856 675 L 873 666 L 894 643 L 884 483 L 883 68 L 875 -1 L 863 -28 L 847 -43 L 714 11 " fill="none" id="make-me-a-hanzi-animation-6" stroke-dasharray="1217 2434" stroke-linecap="round"></path>

      <clipPath id="make-me-a-hanzi-clip-7">
      <path d="M 656 422 L 676 418 Q 684 416 725 424 L 829 446 L 854 450 C 884 455 883 467 854 476 L 835 482 Q 808 488 796 487 Q 784 486 764 480 L 702 464 L 657 454 C 628 447 627 428 656 422 Z" fill="lightgray"></path>
      </clipPath>
      <path clip-path="url(#make-me-a-hanzi-clip-7)" d="M 662 427 L 675 437 L 801 464 L 838 464 L 847 457 " fill="none" id="make-me-a-hanzi-animation-7" stroke-dasharray="322 644" stroke-linecap="round"></path>

      <clipPath id="make-me-a-hanzi-clip-8">
      <path d="M 647 258 L 662 254 Q 688 246 739 258 L 855 282 C 884 288 881 299 853 308 L 829 316 Q 817 320 798 320 L 767 313 L 703 296 Q 691 293 682 293 L 649 288 C 619 284 618 266 647 258 Z" fill="lightgray"></path>
      </clipPath>
      <path clip-path="url(#make-me-a-hanzi-clip-8)" d="M 656 280 L 667 272 L 693 272 L 805 297 L 837 296 L 846 288 " fill="none" id="make-me-a-hanzi-animation-8" stroke-dasharray="326 652" stroke-linecap="round"></path>

      <clipPath id="make-me-a-hanzi-clip-9">
      <path d="M 1292 660 L 1277 668 Q 1234 682 1229 680 Q 1222 680 1218 676 Q 1214 669 1223 653 L 1230 634 L 1238 601 L 1241 579 Q 1242 571 1242 546 L 1239 433 Q 1234 261 1227 210 Q 1221 138 1208 89 Q 1195 40 1194 28 Q 1193 15 1199 -3 Q 1205 -21 1219 -38 Q 1233 -54 1239 -53 Q 1244 -52 1250 -45 Q 1257 -33 1261 -16 Q 1265 2 1265 4 L 1270 64 L 1277 166 Q 1281 204 1287 403 Q 1293 601 1293 618 C 1294 648 1294 659 1292 660 Z" fill="lightgray"></path>
      </clipPath>
      <path clip-path="url(#make-me-a-hanzi-clip-9)" d="M 1226 671 L 1261 641 L 1267 577 L 1257 245 L 1230 22 L 1239 -41 " fill="none" id="make-me-a-hanzi-animation-9" stroke-dasharray="859 1718" stroke-linecap="round"></path>

      <clipPath id="make-me-a-hanzi-clip-10">
      <path d="M 1293 618 L 1377 632 Q 1400 637 1626 658 L 1709 666 L 1790 671 Q 1798 672 1810 670 Q 1822 668 1824 665 Q 1833 656 1833 624 L 1835 512 L 1835 310 Q 1835 189 1824 70 Q 1818 35 1814 25 Q 1809 14 1797 2 Q 1784 -8 1778 -9 Q 1771 -9 1751 -4 L 1691 16 Q 1680 18 1679 14 Q 1678 10 1682 6 L 1697 -11 L 1740 -56 L 1767 -92 Q 1776 -105 1784 -112 Q 1799 -127 1825 -112 Q 1898 -70 1898 70 L 1896 194 L 1895 404 Q 1894 506 1895 537 L 1898 582 Q 1901 636 1923 658 Q 1925 670 1924 672 Q 1916 689 1882 712 Q 1847 735 1837 735 Q 1827 735 1801 728 Q 1775 720 1678 704 Q 1580 687 1489 677 Q 1397 667 1392 667 L 1292 660 C 1262 658 1263 613 1293 618 Z" fill="lightgray"></path>
      </clipPath>
      <path clip-path="url(#make-me-a-hanzi-clip-10)" d="M 1299 625 L 1315 642 L 1611 672 L 1817 700 L 1842 695 L 1873 664 L 1864 534 L 1864 139 L 1861 60 L 1852 9 L 1835 -28 L 1809 -56 L 1770 -41 L 1686 12 " fill="none" id="make-me-a-hanzi-animation-10" stroke-dasharray="1602 3204" stroke-linecap="round"></path>

      <clipPath id="make-me-a-hanzi-clip-11">
      <path d="M 1640 497 Q 1682 506 1684 513 Q 1686 514 1684 519 Q 1684 525 1642 544 Q 1622 549 1612 548.5 Q 1602 548 1585.5 542.5 Q 1569 537 1519 527 Q 1469 517 1450 515 Q 1431 513 1398 508 Q 1386 505 1386 502.5 Q 1386 500 1391 492 Q 1405 478 1443 475 Q 1481 472 1573 487 L 1640 497 Z" fill="lightgray"></path>
      </clipPath>
      <path clip-path="url(#make-me-a-hanzi-clip-11)" d="M 1394 500 L 1436 494 L 1479 497 L 1610 521 L 1677 516 " fill="none" id="make-me-a-hanzi-animation-11" stroke-dasharray="414 828" stroke-linecap="round"></path>

      <clipPath id="make-me-a-hanzi-clip-12">
      <path d="M 1436 354 L 1407 364 L 1392 367 Q 1384 369 1379 366 Q 1373 362 1375 356 Q 1375 348 1386 335 Q 1397 322 1398 287 L 1402 234 Q 1408 164 1410 157 Q 1411 150 1415 140 Q 1418 137 1423 132 Q 1428 126 1432 126 Q 1435 126 1439 133 Q 1443 140 1443 146 Q 1443 151 1445 175 L 1445 210 L 1442 326 C 1441 352 1441 352 1436 354 Z" fill="lightgray"></path>
      </clipPath>
      <path clip-path="url(#make-me-a-hanzi-clip-12)" d="M 1386 357 L 1417 328 L 1431 134 " fill="none" id="make-me-a-hanzi-animation-12" stroke-dasharray="365 730" stroke-linecap="round"></path>

      <clipPath id="make-me-a-hanzi-clip-13">
      <path d="M 1664 220 L 1679 272 Q 1680 276 1689 297 Q 1697 318 1707 328 L 1715 341 Q 1716 350 1706 360 Q 1695 370 1684 376 L 1655 393 L 1639 397 Q 1633 398 1614 391 Q 1540 363 1436 354 C 1406 351 1413 320 1442 326 L 1549 347 L 1551 348 L 1554 348 L 1570 350 L 1592 352 Q 1617 352 1621 332 L 1621 327 L 1620 318 L 1619 307 L 1606 230 C 1601 200 1656 191 1664 220 Z" fill="lightgray"></path>
      </clipPath>
      <path clip-path="url(#make-me-a-hanzi-clip-13)" d="M 1445 349 L 1453 342 L 1586 367 L 1637 366 L 1662 336 L 1642 255 L 1615 236 " fill="none" id="make-me-a-hanzi-animation-13" stroke-dasharray="480 960" stroke-linecap="round"></path>

      <clipPath id="make-me-a-hanzi-clip-14">
      <path d="M 1445 175 L 1627 189 L 1673 190 Q 1685 198 1675 207 L 1664 220 C 1651 236 1636 234 1606 230 L 1445 210 C 1415 206 1415 173 1445 175 Z" fill="lightgray"></path>
      </clipPath>
      <path clip-path="url(#make-me-a-hanzi-clip-14)" d="M 1452 181 L 1466 194 L 1610 209 L 1654 206 L 1670 199 " fill="none" id="make-me-a-hanzi-animation-14" stroke-dasharray="353 706" stroke-linecap="round"></path>

</g>
</svg>
