<svg version="1.1" viewBox="0 0 2048 1024" xmlns="http://www.w3.org/2000/svg">
  <g stroke="lightgray" stroke-dasharray="1,1" stroke-width="1" transform="scale(4, 4)">
    <line x1="0" y1="0" x2="256" y2="256"></line>
    <line x1="256" y1="0" x2="0" y2="256"></line>
    <line x1="128" y1="0" x2="128" y2="256"></line>
    <line x1="0" y1="128" x2="256" y2="128"></line>
    <line x1="256" y1="0" x2="512" y2="256"></line>
    <line x1="512" y1="0" x2="256" y2="256"></line>
    <line x1="384" y1="0" x2="384" y2="256"></line>
    <line x1="256" y1="128" x2="512" y2="128"></line>
  </g>
<g transform="scale(1, -1) translate(0, -850)">
   <style type="text/css">
    @keyframes keyframes0 {
      from {
       stroke: black;
       stroke-dashoffset: 928;
       stroke-width: 128;
       }
       75% {
       animation-timing-function: step-end;
       stroke: black;
       stroke-dashoffset: 0;
       stroke-width: 128;
       }
       to {
       stroke: black;
       stroke-width: 1024;
       }
       }
       #make-me-a-hanzi-animation-0 {
         animation: keyframes0 1.005208s both;
         animation-delay: 0.000000s;
         animation-timing-function: linear;
       }
    @keyframes keyframes1 {
      from {
       stroke: black;
       stroke-dashoffset: 1106;
       stroke-width: 128;
       }
       78% {
       animation-timing-function: step-end;
       stroke: black;
       stroke-dashoffset: 0;
       stroke-width: 128;
       }
       to {
       stroke: black;
       stroke-width: 1024;
       }
       }
       #make-me-a-hanzi-animation-1 {
         animation: keyframes1 1.150065s both;
         animation-delay: 1.005208s;
         animation-timing-function: linear;
       }
    @keyframes keyframes2 {
      from {
       stroke: black;
       stroke-dashoffset: 319;
       stroke-width: 128;
       }
       51% {
       animation-timing-function: step-end;
       stroke: black;
       stroke-dashoffset: 0;
       stroke-width: 128;
       }
       to {
       stroke: black;
       stroke-width: 1024;
       }
       }
       #make-me-a-hanzi-animation-2 {
         animation: keyframes2 0.509603s both;
         animation-delay: 2.155273s;
         animation-timing-function: linear;
       }
    @keyframes keyframes3 {
      from {
       stroke: black;
       stroke-dashoffset: 337;
       stroke-width: 128;
       }
       52% {
       animation-timing-function: step-end;
       stroke: black;
       stroke-dashoffset: 0;
       stroke-width: 128;
       }
       to {
       stroke: black;
       stroke-width: 1024;
       }
       }
       #make-me-a-hanzi-animation-3 {
         animation: keyframes3 0.524251s both;
         animation-delay: 2.664876s;
         animation-timing-function: linear;
       }
    @keyframes keyframes4 {
      from {
       stroke: black;
       stroke-dashoffset: 480;
       stroke-width: 128;
       }
       61% {
       animation-timing-function: step-end;
       stroke: black;
       stroke-dashoffset: 0;
       stroke-width: 128;
       }
       to {
       stroke: black;
       stroke-width: 1024;
       }
       }
       #make-me-a-hanzi-animation-4 {
         animation: keyframes4 0.640625s both;
         animation-delay: 3.189128s;
         animation-timing-function: linear;
       }
    @keyframes keyframes5 {
      from {
       stroke: black;
       stroke-dashoffset: 613;
       stroke-width: 128;
       }
       67% {
       animation-timing-function: step-end;
       stroke: black;
       stroke-dashoffset: 0;
       stroke-width: 128;
       }
       to {
       stroke: black;
       stroke-width: 1024;
       }
       }
       #make-me-a-hanzi-animation-5 {
         animation: keyframes5 0.748861s both;
         animation-delay: 3.829753s;
         animation-timing-function: linear;
       }
    @keyframes keyframes6 {
      from {
       stroke: black;
       stroke-dashoffset: 544;
       stroke-width: 128;
       }
       64% {
       animation-timing-function: step-end;
       stroke: black;
       stroke-dashoffset: 0;
       stroke-width: 128;
       }
       to {
       stroke: black;
       stroke-width: 1024;
       }
       }
       #make-me-a-hanzi-animation-6 {
         animation: keyframes6 0.692708s both;
         animation-delay: 4.578613s;
         animation-timing-function: linear;
       }
    @keyframes keyframes7 {
      from {
       stroke: black;
       stroke-dashoffset: 660;
       stroke-width: 128;
       }
       68% {
       animation-timing-function: step-end;
       stroke: black;
       stroke-dashoffset: 0;
       stroke-width: 128;
       }
       to {
       stroke: black;
       stroke-width: 1024;
       }
       }
       #make-me-a-hanzi-animation-7 {
         animation: keyframes7 0.787109s both;
         animation-delay: 5.271322s;
         animation-timing-function: linear;
       }
    @keyframes keyframes8 {
      from {
       stroke: black;
       stroke-dashoffset: 430;
       stroke-width: 128;
       }
       58% {
       animation-timing-function: step-end;
       stroke: black;
       stroke-dashoffset: 0;
       stroke-width: 128;
       }
       to {
       stroke: black;
       stroke-width: 1024;
       }
       }
       #make-me-a-hanzi-animation-8 {
         animation: keyframes8 0.599935s both;
         animation-delay: 6.058431s;
         animation-timing-function: linear;
       }
    @keyframes keyframes9 {
      from {
       stroke: black;
       stroke-dashoffset: 764;
       stroke-width: 128;
       }
       71% {
       animation-timing-function: step-end;
       stroke: black;
       stroke-dashoffset: 0;
       stroke-width: 128;
       }
       to {
       stroke: black;
       stroke-width: 1024;
       }
       }
       #make-me-a-hanzi-animation-9 {
         animation: keyframes9 0.871745s both;
         animation-delay: 6.658366s;
         animation-timing-function: linear;
       }
    @keyframes keyframes10 {
      from {
       stroke: black;
       stroke-dashoffset: 928;
       stroke-width: 128;
       }
       75% {
       animation-timing-function: step-end;
       stroke: black;
       stroke-dashoffset: 0;
       stroke-width: 128;
       }
       to {
       stroke: black;
       stroke-width: 1024;
       }
       }
       #make-me-a-hanzi-animation-10 {
         animation: keyframes10 1.005208s both;
         animation-delay: 7.530111s;
         animation-timing-function: linear;
       }
    @keyframes keyframes11 {
      from {
       stroke: black;
       stroke-dashoffset: 592;
       stroke-width: 128;
       }
       66% {
       animation-timing-function: step-end;
       stroke: black;
       stroke-dashoffset: 0;
       stroke-width: 128;
       }
       to {
       stroke: black;
       stroke-width: 1024;
       }
       }
       #make-me-a-hanzi-animation-11 {
         animation: keyframes11 0.731771s both;
         animation-delay: 8.535319s;
         animation-timing-function: linear;
       }
    @keyframes keyframes12 {
      from {
       stroke: black;
       stroke-dashoffset: 465;
       stroke-width: 128;
       }
       60% {
       animation-timing-function: step-end;
       stroke: black;
       stroke-dashoffset: 0;
       stroke-width: 128;
       }
       to {
       stroke: black;
       stroke-width: 1024;
       }
       }
       #make-me-a-hanzi-animation-12 {
         animation: keyframes12 0.628418s both;
         animation-delay: 9.267090s;
         animation-timing-function: linear;
       }
    @keyframes keyframes13 {
      from {
       stroke: black;
       stroke-dashoffset: 493;
       stroke-width: 128;
       }
       62% {
       animation-timing-function: step-end;
       stroke: black;
       stroke-dashoffset: 0;
       stroke-width: 128;
       }
       to {
       stroke: black;
       stroke-width: 1024;
       }
       }
       #make-me-a-hanzi-animation-13 {
         animation: keyframes13 0.651204s both;
         animation-delay: 9.895508s;
         animation-timing-function: linear;
       }
    @keyframes keyframes14 {
      from {
       stroke: black;
       stroke-dashoffset: 1114;
       stroke-width: 128;
       }
       78% {
       animation-timing-function: step-end;
       stroke: black;
       stroke-dashoffset: 0;
       stroke-width: 128;
       }
       to {
       stroke: black;
       stroke-width: 1024;
       }
       }
       #make-me-a-hanzi-animation-14 {
         animation: keyframes14 1.156576s both;
         animation-delay: 10.546712s;
         animation-timing-function: linear;
       }
    @keyframes keyframes15 {
      from {
       stroke: black;
       stroke-dashoffset: 551;
       stroke-width: 128;
       }
       64% {
       animation-timing-function: step-end;
       stroke: black;
       stroke-dashoffset: 0;
       stroke-width: 128;
       }
       to {
       stroke: black;
       stroke-width: 1024;
       }
       }
       #make-me-a-hanzi-animation-15 {
         animation: keyframes15 0.698405s both;
         animation-delay: 11.703288s;
         animation-timing-function: linear;
       }
    @keyframes keyframes16 {
      from {
       stroke: black;
       stroke-dashoffset: 516;
       stroke-width: 128;
       }
       63% {
       animation-timing-function: step-end;
       stroke: black;
       stroke-dashoffset: 0;
       stroke-width: 128;
       }
       to {
       stroke: black;
       stroke-width: 1024;
       }
       }
       #make-me-a-hanzi-animation-16 {
         animation: keyframes16 0.669922s both;
         animation-delay: 12.401693s;
         animation-timing-function: linear;
       }
    @keyframes keyframes17 {
      from {
       stroke: black;
       stroke-dashoffset: 1077;
       stroke-width: 128;
       }
       78% {
       animation-timing-function: step-end;
       stroke: black;
       stroke-dashoffset: 0;
       stroke-width: 128;
       }
       to {
       stroke: black;
       stroke-width: 1024;
       }
       }
       #make-me-a-hanzi-animation-17 {
         animation: keyframes17 1.126465s both;
         animation-delay: 13.071615s;
         animation-timing-function: linear;
       }
</style>
<path d="M 202 392 Q 208 417 211 504 L 211 537 Q 211 660 212 674 C 213 699 213 699 200 705 Q 185 714 165 720 Q 147 727 137 721 Q 127 714 134 702 Q 155 681 160 618 Q 160 606 162 593 Q 174 431 147 313 Q 120 207 63 90 Q 59 84 58 78 Q 57 68 66 72 Q 76 73 109 124 Q 172 211 197 360 L 202 392 Z" fill="lightgray"></path> 
<path d="M 212 674 Q 236 680 259 689 Q 278 693 284 683 Q 308 620 298 231 Q 291 123 285 116 Q 281 113 207 125 Q 188 131 189 121 Q 246 78 278 43 Q 291 25 306 21 Q 315 17 323 27 Q 359 75 358 126 Q 336 513 346 633 Q 349 658 357 673 Q 369 692 357 701 Q 336 719 302 733 Q 286 740 237 716 Q 222 712 200 705 C 171 696 183 666 212 674 Z" fill="lightgray"></path> 
<path d="M 211 504 Q 244 511 270 515 Q 291 521 282 531 Q 272 543 248 545 Q 232 545 211 537 C 183 527 182 498 211 504 Z" fill="lightgray"></path> 
<path d="M 197 360 Q 240 367 273 372 Q 294 376 285 387 Q 275 400 252 402 Q 233 403 202 392 C 174 382 167 355 197 360 Z" fill="lightgray"></path> 
<path d="M 533 535 Q 561 544 594 550 Q 619 557 624 560 Q 631 567 627 575 Q 620 585 593 592 Q 565 596 539 584 Q 538 584 537 583 C 510 571 508 570 493 568 Q 486 568 479 565 Q 445 558 403 552 Q 370 545 394 531 Q 433 513 487 525 Q 488 526 493 526 L 533 535 Z" fill="lightgray"></path> 
<path d="M 527 438 Q 530 487 533 535 L 537 583 Q 537 674 558 742 Q 561 752 543 765 Q 512 781 491 786 Q 478 789 470 781 Q 463 774 470 761 Q 489 733 490 715 Q 494 645 493 568 L 493 526 Q 492 480 490 430 C 489 400 525 408 527 438 Z" fill="lightgray"></path> 
<path d="M 525 397 Q 540 401 644 416 Q 654 415 661 426 Q 662 436 642 446 Q 609 470 531 439 Q 528 439 527 438 L 490 430 Q 469 427 371 412 Q 346 408 366 393 Q 396 372 443 382 Q 455 385 469 387 L 525 397 Z" fill="lightgray"></path> 
<path d="M 588 252 Q 525 236 459 213 Q 452 210 450 212 Q 447 215 452 223 Q 528 340 545 360 Q 555 370 549 381 Q 545 388 525 397 C 498 411 461 416 469 387 Q 468 387 469 386 Q 487 347 432 260 Q 413 227 372 194 Q 360 182 364 172 Q 371 157 395 141 Q 405 132 416 143 Q 446 173 587 226 Q 594 229 600 232 C 627 244 617 260 588 252 Z" fill="lightgray"></path> 
<path d="M 600 232 Q 636 171 639 168 Q 646 167 653 172 Q 665 179 664 214 Q 664 263 563 326 Q 557 332 553 323 Q 550 317 588 252 L 600 232 Z" fill="lightgray"></path> 
<path d="M 741 549 Q 828 579 840 581 Q 849 582 851 580 Q 861 567 860 531 Q 861 428 843 381 Q 831 353 808 354 Q 792 355 778 360 Q 756 366 772 345 Q 806 311 822 284 Q 843 266 857 285 Q 911 333 914 487 Q 914 566 928 591 Q 935 603 930 610 Q 921 617 878 630 Q 862 636 847 623 Q 826 605 739 579 C 710 570 713 539 741 549 Z" fill="lightgray"></path> 
<path d="M 739 579 Q 738 583 733 585 Q 702 606 687 608 Q 675 612 660 604 Q 651 597 659 586 Q 681 534 683 524 Q 683 -32 693 -53 Q 694 -59 698 -63 Q 704 -70 711 -68 Q 726 -59 730 -3 Q 731 28 733 266 Q 730 495 741 549 C 745 575 745 575 739 579 Z" fill="lightgray"></path> 
<path d="M 1603 396 L 1607 533 L 1609 566 L 1610 602 L 1611 629 Q 1613 643 1619 662 Q 1625 680 1623 685 Q 1621 690 1603 701 Q 1585 711 1559 713 L 1543 716 Q 1533 716 1529 713 Q 1525 710 1524 710 Q 1521 706 1524 699 L 1535 676 Q 1538 667 1542 624 L 1542 596 L 1548 393 C 1549 363 1602 366 1603 396 Z" fill="lightgray"></path> 
<path d="M 1607 533 L 1626 534 Q 1657 535 1669 537 L 1798 558 Q 1823 561 1824 578 Q 1824 586 1811 593 Q 1774 610 1764 608 Q 1753 606 1740 600 Q 1726 594 1706 590 L 1670 580 L 1609 566 C 1580 559 1577 531 1607 533 Z" fill="lightgray"></path> 
<path d="M 1414 379 L 1415 479 Q 1415 529 1421 545 Q 1426 561 1426 566 Q 1420 585 1372 594 L 1352 598 Q 1341 599 1332 596 Q 1326 592 1326 588 Q 1326 583 1334 569 Q 1342 555 1346 526 L 1353 479 L 1359 372 C 1361 342 1414 349 1414 379 Z" fill="lightgray"></path> 
<path d="M 1169 358 L 1164 357 L 1138 354 Q 1125 354 1123 348 Q 1121 338 1140.5 326 Q 1160 314 1165 312 Q 1170 310 1195 304 L 1217 302 Q 1225 302 1243 308 Q 1309 324 1309 325 Q 1359 335 1366 336 L 1521 354 L 1577 359 L 1672 366 Q 1837 373 1903 370 L 1946 370 L 1978 372 Q 1999 374 1995 389 Q 1993 405 1947.5 422.5 Q 1902 440 1874 430 Q 1862 426 1835 423 L 1769 414 L 1708 407 L 1603 396 L 1548 393 L 1414 379 L 1359 372 L 1292 364 Q 1240 359 1210 359 L 1169 358 Z" fill="lightgray"></path> 
<path d="M 1521 354 L 1534 341 Q 1536 337 1541 318 Q 1546 299 1546 286 L 1547 229 Q 1547 176 1541 157 Q 1534 138 1534 133 Q 1534 128 1542 101 Q 1549 74 1567 72 Q 1574 72 1585 87 Q 1596 102 1596 124 L 1594 161 L 1595 246 Q 1595 280 1605 304 Q 1614 328 1614 332 Q 1610 346 1577 359 C 1549 371 1500 375 1521 354 Z" fill="lightgray"></path> 
<path d="M 1237 65 Q 1232 59 1233.5 54 Q 1235 49 1252 58 L 1271 68 Q 1285 72 1301 86 Q 1321 99 1346 126.5 Q 1371 154 1385.5 176.5 Q 1400 199 1415.5 211 Q 1431 223 1418 236 Q 1412 246 1401 252 Q 1389 262 1376 266 Q 1358 275 1354 271 Q 1350 267 1349 256 Q 1343 218 1302 153 L 1269 102 L 1237 65 Z" fill="lightgray"></path> 
<path d="M 1746 272 Q 1746 266 1742 244 Q 1738 222 1734 214 Q 1731 202 1702 162.5 Q 1673 123 1593 48 Q 1546 7 1512 -17 Q 1391 -110 1274 -171 L 1228 -194 Q 1223 -196 1199 -208 L 1184 -214 Q 1177 -218 1179 -223 Q 1181 -228 1191 -226 L 1203 -223 L 1226 -219 Q 1239 -217 1307 -191 Q 1375 -165 1388.5 -158.5 Q 1402 -152 1457 -122 Q 1556 -64 1619 -10 Q 1682 44 1697 59 L 1755 119 Q 1796 163 1806 176.5 Q 1816 190 1823 194 L 1841 207 Q 1853 219 1846 228.5 Q 1839 238 1838.5 239 Q 1838 240 1836.5 242 Q 1835 244 1833 246 Q 1831 248 1825 256.5 Q 1819 265 1793.5 280.5 Q 1768 296 1760 294 Q 1748 294 1746 272 Z" fill="lightgray"></path> 
      <clipPath id="make-me-a-hanzi-clip-0">
      <path d="M 202 392 Q 208 417 211 504 L 211 537 Q 211 660 212 674 C 213 699 213 699 200 705 Q 185 714 165 720 Q 147 727 137 721 Q 127 714 134 702 Q 155 681 160 618 Q 160 606 162 593 Q 174 431 147 313 Q 120 207 63 90 Q 59 84 58 78 Q 57 68 66 72 Q 76 73 109 124 Q 172 211 197 360 L 202 392 Z" fill="lightgray"></path>
      </clipPath>
      <path clip-path="url(#make-me-a-hanzi-clip-0)" d="M 144 710 L 177 684 L 183 658 L 189 475 L 180 379 L 170 319 L 142 226 L 108 149 L 65 80 " fill="none" id="make-me-a-hanzi-animation-0" stroke-dasharray="800 1600" stroke-linecap="round"></path>

      <clipPath id="make-me-a-hanzi-clip-1">
      <path d="M 212 674 Q 236 680 259 689 Q 278 693 284 683 Q 308 620 298 231 Q 291 123 285 116 Q 281 113 207 125 Q 188 131 189 121 Q 246 78 278 43 Q 291 25 306 21 Q 315 17 323 27 Q 359 75 358 126 Q 336 513 346 633 Q 349 658 357 673 Q 369 692 357 701 Q 336 719 302 733 Q 286 740 237 716 Q 222 712 200 705 C 171 696 183 666 212 674 Z" fill="lightgray"></path>
      </clipPath>
      <path clip-path="url(#make-me-a-hanzi-clip-1)" d="M 208 702 L 225 695 L 283 711 L 312 696 L 322 681 L 326 183 L 321 109 L 304 78 L 198 119 " fill="none" id="make-me-a-hanzi-animation-1" stroke-dasharray="978 1956" stroke-linecap="round"></path>

      <clipPath id="make-me-a-hanzi-clip-2">
      <path d="M 211 504 Q 244 511 270 515 Q 291 521 282 531 Q 272 543 248 545 Q 232 545 211 537 C 183 527 182 498 211 504 Z" fill="lightgray"></path>
      </clipPath>
      <path clip-path="url(#make-me-a-hanzi-clip-2)" d="M 218 510 L 228 525 L 273 525 " fill="none" id="make-me-a-hanzi-animation-2" stroke-dasharray="191 382" stroke-linecap="round"></path>

      <clipPath id="make-me-a-hanzi-clip-3">
      <path d="M 197 360 Q 240 367 273 372 Q 294 376 285 387 Q 275 400 252 402 Q 233 403 202 392 C 174 382 167 355 197 360 Z" fill="lightgray"></path>
      </clipPath>
      <path clip-path="url(#make-me-a-hanzi-clip-3)" d="M 205 364 L 210 374 L 227 383 L 256 386 L 277 381 " fill="none" id="make-me-a-hanzi-animation-3" stroke-dasharray="209 418" stroke-linecap="round"></path>

      <clipPath id="make-me-a-hanzi-clip-4">
      <path d="M 533 535 Q 561 544 594 550 Q 619 557 624 560 Q 631 567 627 575 Q 620 585 593 592 Q 565 596 539 584 Q 538 584 537 583 C 510 571 508 570 493 568 Q 486 568 479 565 Q 445 558 403 552 Q 370 545 394 531 Q 433 513 487 525 Q 488 526 493 526 L 533 535 Z" fill="lightgray"></path>
      </clipPath>
      <path clip-path="url(#make-me-a-hanzi-clip-4)" d="M 396 543 L 459 540 L 574 570 L 616 569 " fill="none" id="make-me-a-hanzi-animation-4" stroke-dasharray="352 704" stroke-linecap="round"></path>

      <clipPath id="make-me-a-hanzi-clip-5">
      <path d="M 527 438 Q 530 487 533 535 L 537 583 Q 537 674 558 742 Q 561 752 543 765 Q 512 781 491 786 Q 478 789 470 781 Q 463 774 470 761 Q 489 733 490 715 Q 494 645 493 568 L 493 526 Q 492 480 490 430 C 489 400 525 408 527 438 Z" fill="lightgray"></path>
      </clipPath>
      <path clip-path="url(#make-me-a-hanzi-clip-5)" d="M 482 771 L 521 738 L 510 460 L 495 437 " fill="none" id="make-me-a-hanzi-animation-5" stroke-dasharray="485 970" stroke-linecap="round"></path>

      <clipPath id="make-me-a-hanzi-clip-6">
      <path d="M 525 397 Q 540 401 644 416 Q 654 415 661 426 Q 662 436 642 446 Q 609 470 531 439 Q 528 439 527 438 L 490 430 Q 469 427 371 412 Q 346 408 366 393 Q 396 372 443 382 Q 455 385 469 387 L 525 397 Z" fill="lightgray"></path>
      </clipPath>
      <path clip-path="url(#make-me-a-hanzi-clip-6)" d="M 367 403 L 416 398 L 599 433 L 651 428 " fill="none" id="make-me-a-hanzi-animation-6" stroke-dasharray="416 832" stroke-linecap="round"></path>

      <clipPath id="make-me-a-hanzi-clip-7">
      <path d="M 588 252 Q 525 236 459 213 Q 452 210 450 212 Q 447 215 452 223 Q 528 340 545 360 Q 555 370 549 381 Q 545 388 525 397 C 498 411 461 416 469 387 Q 468 387 469 386 Q 487 347 432 260 Q 413 227 372 194 Q 360 182 364 172 Q 371 157 395 141 Q 405 132 416 143 Q 446 173 587 226 Q 594 229 600 232 C 627 244 617 260 588 252 Z" fill="lightgray"></path>
      </clipPath>
      <path clip-path="url(#make-me-a-hanzi-clip-7)" d="M 476 387 L 503 355 L 478 299 L 428 219 L 422 191 L 458 192 L 556 230 L 582 238 L 591 234 " fill="none" id="make-me-a-hanzi-animation-7" stroke-dasharray="532 1064" stroke-linecap="round"></path>

      <clipPath id="make-me-a-hanzi-clip-8">
      <path d="M 600 232 Q 636 171 639 168 Q 646 167 653 172 Q 665 179 664 214 Q 664 263 563 326 Q 557 332 553 323 Q 550 317 588 252 L 600 232 Z" fill="lightgray"></path>
      </clipPath>
      <path clip-path="url(#make-me-a-hanzi-clip-8)" d="M 559 321 L 637 222 L 645 175 " fill="none" id="make-me-a-hanzi-animation-8" stroke-dasharray="302 604" stroke-linecap="round"></path>

      <clipPath id="make-me-a-hanzi-clip-9">
      <path d="M 741 549 Q 828 579 840 581 Q 849 582 851 580 Q 861 567 860 531 Q 861 428 843 381 Q 831 353 808 354 Q 792 355 778 360 Q 756 366 772 345 Q 806 311 822 284 Q 843 266 857 285 Q 911 333 914 487 Q 914 566 928 591 Q 935 603 930 610 Q 921 617 878 630 Q 862 636 847 623 Q 826 605 739 579 C 710 570 713 539 741 549 Z" fill="lightgray"></path>
      </clipPath>
      <path clip-path="url(#make-me-a-hanzi-clip-9)" d="M 751 557 L 755 570 L 847 600 L 868 603 L 888 588 L 884 438 L 876 388 L 862 350 L 841 323 L 772 354 " fill="none" id="make-me-a-hanzi-animation-9" stroke-dasharray="636 1272" stroke-linecap="round"></path>

      <clipPath id="make-me-a-hanzi-clip-10">
      <path d="M 739 579 Q 738 583 733 585 Q 702 606 687 608 Q 675 612 660 604 Q 651 597 659 586 Q 681 534 683 524 Q 683 -32 693 -53 Q 694 -59 698 -63 Q 704 -70 711 -68 Q 726 -59 730 -3 Q 731 28 733 266 Q 730 495 741 549 C 745 575 745 575 739 579 Z" fill="lightgray"></path>
      </clipPath>
      <path clip-path="url(#make-me-a-hanzi-clip-10)" d="M 667 595 L 706 562 L 710 534 L 707 -59 " fill="none" id="make-me-a-hanzi-animation-10" stroke-dasharray="800 1600" stroke-linecap="round"></path>

      <clipPath id="make-me-a-hanzi-clip-11">
      <path d="M 1603 396 L 1607 533 L 1609 566 L 1610 602 L 1611 629 Q 1613 643 1619 662 Q 1625 680 1623 685 Q 1621 690 1603 701 Q 1585 711 1559 713 L 1543 716 Q 1533 716 1529 713 Q 1525 710 1524 710 Q 1521 706 1524 699 L 1535 676 Q 1538 667 1542 624 L 1542 596 L 1548 393 C 1549 363 1602 366 1603 396 Z" fill="lightgray"></path>
      </clipPath>
      <path clip-path="url(#make-me-a-hanzi-clip-11)" d="M 1531 705 L 1578 667 L 1576 423 L 1554 401 " fill="none" id="make-me-a-hanzi-animation-11" stroke-dasharray="464 928" stroke-linecap="round"></path>

      <clipPath id="make-me-a-hanzi-clip-12">
      <path d="M 1607 533 L 1626 534 Q 1657 535 1669 537 L 1798 558 Q 1823 561 1824 578 Q 1824 586 1811 593 Q 1774 610 1764 608 Q 1753 606 1740 600 Q 1726 594 1706 590 L 1670 580 L 1609 566 C 1580 559 1577 531 1607 533 Z" fill="lightgray"></path>
      </clipPath>
      <path clip-path="url(#make-me-a-hanzi-clip-12)" d="M 1611 538 L 1626 552 L 1769 581 L 1811 577 " fill="none" id="make-me-a-hanzi-animation-12" stroke-dasharray="337 674" stroke-linecap="round"></path>

      <clipPath id="make-me-a-hanzi-clip-13">
      <path d="M 1414 379 L 1415 479 Q 1415 529 1421 545 Q 1426 561 1426 566 Q 1420 585 1372 594 L 1352 598 Q 1341 599 1332 596 Q 1326 592 1326 588 Q 1326 583 1334 569 Q 1342 555 1346 526 L 1353 479 L 1359 372 C 1361 342 1414 349 1414 379 Z" fill="lightgray"></path>
      </clipPath>
      <path clip-path="url(#make-me-a-hanzi-clip-13)" d="M 1336 587 L 1382 551 L 1386 404 L 1365 380 " fill="none" id="make-me-a-hanzi-animation-13" stroke-dasharray="365 730" stroke-linecap="round"></path>

      <clipPath id="make-me-a-hanzi-clip-14">
      <path d="M 1169 358 L 1164 357 L 1138 354 Q 1125 354 1123 348 Q 1121 338 1140.5 326 Q 1160 314 1165 312 Q 1170 310 1195 304 L 1217 302 Q 1225 302 1243 308 Q 1309 324 1309 325 Q 1359 335 1366 336 L 1521 354 L 1577 359 L 1672 366 Q 1837 373 1903 370 L 1946 370 L 1978 372 Q 1999 374 1995 389 Q 1993 405 1947.5 422.5 Q 1902 440 1874 430 Q 1862 426 1835 423 L 1769 414 L 1708 407 L 1603 396 L 1548 393 L 1414 379 L 1359 372 L 1292 364 Q 1240 359 1210 359 L 1169 358 Z" fill="lightgray"></path>
      </clipPath>
      <path clip-path="url(#make-me-a-hanzi-clip-14)" d="M 1131 345 L 1214 331 L 1438 364 L 1887 402 L 1948 396 L 1982 385 " fill="none" id="make-me-a-hanzi-animation-14" stroke-dasharray="986 1972" stroke-linecap="round"></path>

      <clipPath id="make-me-a-hanzi-clip-15">
      <path d="M 1521 354 L 1534 341 Q 1536 337 1541 318 Q 1546 299 1546 286 L 1547 229 Q 1547 176 1541 157 Q 1534 138 1534 133 Q 1534 128 1542 101 Q 1549 74 1567 72 Q 1574 72 1585 87 Q 1596 102 1596 124 L 1594 161 L 1595 246 Q 1595 280 1605 304 Q 1614 328 1614 332 Q 1610 346 1577 359 C 1549 371 1500 375 1521 354 Z" fill="lightgray"></path>
      </clipPath>
      <path clip-path="url(#make-me-a-hanzi-clip-15)" d="M 1528 355 L 1573 326 L 1575 319 L 1566 85 " fill="none" id="make-me-a-hanzi-animation-15" stroke-dasharray="423 846" stroke-linecap="round"></path>

      <clipPath id="make-me-a-hanzi-clip-16">
      <path d="M 1237 65 Q 1232 59 1233.5 54 Q 1235 49 1252 58 L 1271 68 Q 1285 72 1301 86 Q 1321 99 1346 126.5 Q 1371 154 1385.5 176.5 Q 1400 199 1415.5 211 Q 1431 223 1418 236 Q 1412 246 1401 252 Q 1389 262 1376 266 Q 1358 275 1354 271 Q 1350 267 1349 256 Q 1343 218 1302 153 L 1269 102 L 1237 65 Z" fill="lightgray"></path>
      </clipPath>
      <path clip-path="url(#make-me-a-hanzi-clip-16)" d="M 1359 261 L 1378 225 L 1365 201 L 1295 105 L 1238 59 " fill="none" id="make-me-a-hanzi-animation-16" stroke-dasharray="388 776" stroke-linecap="round"></path>

      <clipPath id="make-me-a-hanzi-clip-17">
      <path d="M 1746 272 Q 1746 266 1742 244 Q 1738 222 1734 214 Q 1731 202 1702 162.5 Q 1673 123 1593 48 Q 1546 7 1512 -17 Q 1391 -110 1274 -171 L 1228 -194 Q 1223 -196 1199 -208 L 1184 -214 Q 1177 -218 1179 -223 Q 1181 -228 1191 -226 L 1203 -223 L 1226 -219 Q 1239 -217 1307 -191 Q 1375 -165 1388.5 -158.5 Q 1402 -152 1457 -122 Q 1556 -64 1619 -10 Q 1682 44 1697 59 L 1755 119 Q 1796 163 1806 176.5 Q 1816 190 1823 194 L 1841 207 Q 1853 219 1846 228.5 Q 1839 238 1838.5 239 Q 1838 240 1836.5 242 Q 1835 244 1833 246 Q 1831 248 1825 256.5 Q 1819 265 1793.5 280.5 Q 1768 296 1760 294 Q 1748 294 1746 272 Z" fill="lightgray"></path>
      </clipPath>
      <path clip-path="url(#make-me-a-hanzi-clip-17)" d="M 1762 279 L 1786 231 L 1772 198 L 1698 106 L 1606 19 L 1506 -59 L 1417 -117 L 1312 -172 L 1186 -221 " fill="none" id="make-me-a-hanzi-animation-17" stroke-dasharray="949 1898" stroke-linecap="round"></path>

</g>
</svg>
