<svg version="1.1" viewBox="0 0 2048 1024" xmlns="http://www.w3.org/2000/svg">
  <g stroke="lightgray" stroke-dasharray="1,1" stroke-width="1" transform="scale(4, 4)">
    <line x1="0" y1="0" x2="256" y2="256"></line>
    <line x1="256" y1="0" x2="0" y2="256"></line>
    <line x1="128" y1="0" x2="128" y2="256"></line>
    <line x1="0" y1="128" x2="256" y2="128"></line>
    <line x1="256" y1="0" x2="512" y2="256"></line>
    <line x1="512" y1="0" x2="256" y2="256"></line>
    <line x1="384" y1="0" x2="384" y2="256"></line>
    <line x1="256" y1="128" x2="512" y2="128"></line>
  </g>
<g transform="scale(1, -1) translate(0, -850)">
   <style type="text/css">
    @keyframes keyframes0 {
      from {
       stroke: black;
       stroke-dashoffset: 458;
       stroke-width: 128;
       }
       60% {
       animation-timing-function: step-end;
       stroke: black;
       stroke-dashoffset: 0;
       stroke-width: 128;
       }
       to {
       stroke: black;
       stroke-width: 1024;
       }
       }
       #make-me-a-hanzi-animation-0 {
         animation: keyframes0 0.622721s both;
         animation-delay: 0.000000s;
         animation-timing-function: linear;
       }
    @keyframes keyframes1 {
      from {
       stroke: black;
       stroke-dashoffset: 895;
       stroke-width: 128;
       }
       74% {
       animation-timing-function: step-end;
       stroke: black;
       stroke-dashoffset: 0;
       stroke-width: 128;
       }
       to {
       stroke: black;
       stroke-width: 1024;
       }
       }
       #make-me-a-hanzi-animation-1 {
         animation: keyframes1 0.978353s both;
         animation-delay: 0.622721s;
         animation-timing-function: linear;
       }
    @keyframes keyframes2 {
      from {
       stroke: black;
       stroke-dashoffset: 1091;
       stroke-width: 128;
       }
       78% {
       animation-timing-function: step-end;
       stroke: black;
       stroke-dashoffset: 0;
       stroke-width: 128;
       }
       to {
       stroke: black;
       stroke-width: 1024;
       }
       }
       #make-me-a-hanzi-animation-2 {
         animation: keyframes2 1.137858s both;
         animation-delay: 1.601074s;
         animation-timing-function: linear;
       }
    @keyframes keyframes3 {
      from {
       stroke: black;
       stroke-dashoffset: 359;
       stroke-width: 128;
       }
       54% {
       animation-timing-function: step-end;
       stroke: black;
       stroke-dashoffset: 0;
       stroke-width: 128;
       }
       to {
       stroke: black;
       stroke-width: 1024;
       }
       }
       #make-me-a-hanzi-animation-3 {
         animation: keyframes3 0.542155s both;
         animation-delay: 2.738932s;
         animation-timing-function: linear;
       }
    @keyframes keyframes4 {
      from {
       stroke: black;
       stroke-dashoffset: 358;
       stroke-width: 128;
       }
       54% {
       animation-timing-function: step-end;
       stroke: black;
       stroke-dashoffset: 0;
       stroke-width: 128;
       }
       to {
       stroke: black;
       stroke-width: 1024;
       }
       }
       #make-me-a-hanzi-animation-4 {
         animation: keyframes4 0.541341s both;
         animation-delay: 3.281087s;
         animation-timing-function: linear;
       }
    @keyframes keyframes5 {
      from {
       stroke: black;
       stroke-dashoffset: 696;
       stroke-width: 128;
       }
       69% {
       animation-timing-function: step-end;
       stroke: black;
       stroke-dashoffset: 0;
       stroke-width: 128;
       }
       to {
       stroke: black;
       stroke-width: 1024;
       }
       }
       #make-me-a-hanzi-animation-5 {
         animation: keyframes5 0.816406s both;
         animation-delay: 3.822428s;
         animation-timing-function: linear;
       }
    @keyframes keyframes6 {
      from {
       stroke: black;
       stroke-dashoffset: 618;
       stroke-width: 128;
       }
       67% {
       animation-timing-function: step-end;
       stroke: black;
       stroke-dashoffset: 0;
       stroke-width: 128;
       }
       to {
       stroke: black;
       stroke-width: 1024;
       }
       }
       #make-me-a-hanzi-animation-6 {
         animation: keyframes6 0.752930s both;
         animation-delay: 4.638835s;
         animation-timing-function: linear;
       }
    @keyframes keyframes7 {
      from {
       stroke: black;
       stroke-dashoffset: 711;
       stroke-width: 128;
       }
       70% {
       animation-timing-function: step-end;
       stroke: black;
       stroke-dashoffset: 0;
       stroke-width: 128;
       }
       to {
       stroke: black;
       stroke-width: 1024;
       }
       }
       #make-me-a-hanzi-animation-7 {
         animation: keyframes7 0.828613s both;
         animation-delay: 5.391764s;
         animation-timing-function: linear;
       }
    @keyframes keyframes8 {
      from {
       stroke: black;
       stroke-dashoffset: 519;
       stroke-width: 128;
       }
       63% {
       animation-timing-function: step-end;
       stroke: black;
       stroke-dashoffset: 0;
       stroke-width: 128;
       }
       to {
       stroke: black;
       stroke-width: 1024;
       }
       }
       #make-me-a-hanzi-animation-8 {
         animation: keyframes8 0.672363s both;
         animation-delay: 6.220378s;
         animation-timing-function: linear;
       }
    @keyframes keyframes9 {
      from {
       stroke: black;
       stroke-dashoffset: 681;
       stroke-width: 128;
       }
       69% {
       animation-timing-function: step-end;
       stroke: black;
       stroke-dashoffset: 0;
       stroke-width: 128;
       }
       to {
       stroke: black;
       stroke-width: 1024;
       }
       }
       #make-me-a-hanzi-animation-9 {
         animation: keyframes9 0.804199s both;
         animation-delay: 6.892741s;
         animation-timing-function: linear;
       }
    @keyframes keyframes10 {
      from {
       stroke: black;
       stroke-dashoffset: 492;
       stroke-width: 128;
       }
       62% {
       animation-timing-function: step-end;
       stroke: black;
       stroke-dashoffset: 0;
       stroke-width: 128;
       }
       to {
       stroke: black;
       stroke-width: 1024;
       }
       }
       #make-me-a-hanzi-animation-10 {
         animation: keyframes10 0.650391s both;
         animation-delay: 7.696940s;
         animation-timing-function: linear;
       }
    @keyframes keyframes11 {
      from {
       stroke: black;
       stroke-dashoffset: 603;
       stroke-width: 128;
       }
       66% {
       animation-timing-function: step-end;
       stroke: black;
       stroke-dashoffset: 0;
       stroke-width: 128;
       }
       to {
       stroke: black;
       stroke-width: 1024;
       }
       }
       #make-me-a-hanzi-animation-11 {
         animation: keyframes11 0.740723s both;
         animation-delay: 8.347331s;
         animation-timing-function: linear;
       }
    @keyframes keyframes12 {
      from {
       stroke: black;
       stroke-dashoffset: 1016;
       stroke-width: 128;
       }
       77% {
       animation-timing-function: step-end;
       stroke: black;
       stroke-dashoffset: 0;
       stroke-width: 128;
       }
       to {
       stroke: black;
       stroke-width: 1024;
       }
       }
       #make-me-a-hanzi-animation-12 {
         animation: keyframes12 1.076823s both;
         animation-delay: 9.088053s;
         animation-timing-function: linear;
       }
    @keyframes keyframes13 {
      from {
       stroke: black;
       stroke-dashoffset: 1180;
       stroke-width: 128;
       }
       79% {
       animation-timing-function: step-end;
       stroke: black;
       stroke-dashoffset: 0;
       stroke-width: 128;
       }
       to {
       stroke: black;
       stroke-width: 1024;
       }
       }
       #make-me-a-hanzi-animation-13 {
         animation: keyframes13 1.210286s both;
         animation-delay: 10.164876s;
         animation-timing-function: linear;
       }
    @keyframes keyframes14 {
      from {
       stroke: black;
       stroke-dashoffset: 854;
       stroke-width: 128;
       }
       74% {
       animation-timing-function: step-end;
       stroke: black;
       stroke-dashoffset: 0;
       stroke-width: 128;
       }
       to {
       stroke: black;
       stroke-width: 1024;
       }
       }
       #make-me-a-hanzi-animation-14 {
         animation: keyframes14 0.944987s both;
         animation-delay: 11.375163s;
         animation-timing-function: linear;
       }
</style>
<path d="M 317 472 L 406 596 L 421 612 Q 421 616 418 620 L 412 629 Q 399 642 375 647 Q 351 651 343 647 L 342 620 L 337 600 Q 335 587 328 563 L 316 528 L 306 504 Q 304 496 293 475 Q 294 469 290 465 C 277 438 300 448 317 472 Z" fill="lightgray"></path> 
<path d="M 264 459 L 246 468 Q 209 482 200 473 Q 196 461 201 454 Q 207 446 209 433 L 212 415 Q 214 411 214 384 L 214 328 L 210 210 L 207 160 L 206 135 L 203 113 Q 199 88 190 52 Q 178 12 171 -3 L 144 -60 Q 139 -70 125 -88 L 101 -118 Q 85 -143 106 -132 L 124 -121 Q 133 -117 158 -92 Q 203 -47 225 14 Q 247 74 252 132 L 256 172 L 259 217 L 263 344 Q 262 393 271 414 L 276 428 C 284 449 284 449 264 459 Z" fill="lightgray"></path> 
<path d="M 390 -4 L 389 -30 Q 390 -34 386 -66 Q 383 -79 376 -82 Q 370 -85 351 -79 L 322 -68 Q 311 -65 306 -68 Q 302 -72 314 -82 L 341 -115 Q 365 -143 372 -154 Q 379 -166 382 -170 Q 386 -174 391 -174 Q 397 -174 407 -167 Q 417 -161 428 -140 Q 449 -105 449 -40 L 446 218 L 446 246 L 452 391 Q 452 410 460 430 Q 469 449 469 453 Q 470 456 459 465 Q 438 487 425 492 L 403 500 L 400 500 L 384 493 Q 378 489 364 485 Q 350 480 347 480 L 317 472 L 290 465 L 264 459 C 235 452 247 421 276 428 L 349 446 Q 360 450 372 450 Q 381 452 387 447 Q 392 443 394 424 L 396 395 L 396 238 L 396 206 L 391 -3 L 390 -4 Z" fill="lightgray"></path> 
<path d="M 331 342 L 294 358 Q 284 361 283 357 Q 282 352 286 346 L 291 334 Q 291 332 297 319 Q 303 305 308 298 L 316 284 Q 319 277 328 268 Q 338 258 344 258 Q 350 258 357 266 Q 364 273 365 294 Q 367 315 357 325 Q 348 335 331 342 Z" fill="lightgray"></path> 
<path d="M 351 98 Q 333 116 323 120 L 292 132 Q 279 134 277 130 Q 276 126 276 123 Q 276 120 285 102 L 293 84 L 304 64 Q 317 40 319 38 Q 331 23 341 24 Q 352 25 358 35 Q 372 68 351 98 Z" fill="lightgray"></path> 
<path d="M 446 218 L 492 230 Q 514 236 510 245 Q 503 257 488 252 L 446 246 L 396 238 L 259 217 L 210 210 L 186 206 Q 183 202 142 202 Q 126 199 103 204 L 76 210 Q 51 204 100 157 Q 123 135 131 136 Q 139 136 155 141 L 166 145 Q 203 158 207 160 L 256 172 L 396 206 L 446 218 Z" fill="lightgray"></path> 
<path d="M 620 366 L 622 379 Q 622 405 626 432 L 639 486 Q 636 497 608 506 L 584 512 Q 570 513 564 510 Q 559 507 559 504 Q 557 502 563 493 Q 569 484 573 465 Q 577 446 577 439 L 575 384 Q 569 311 542 246 Q 529 215 516 202 L 505 190 Q 497 183 501 178 Q 505 173 513 179 L 530 188 Q 542 198 551 208 Q 570 230 581 247 Q 592 263 606 304 Q 620 345 620 366 Z" fill="lightgray"></path> 
<path d="M 749 475 L 742 333 Q 740 295 742 276 Q 744 257 755 244 Q 769 230 782 224 Q 795 218 837 214 Q 892 214 920 221 Q 948 227 951 234 Q 955 240 952 251 Q 949 262 930 273 Q 911 284 903 283 Q 896 281 883 275 Q 870 269 849 268 Q 828 266 818 268 Q 789 271 792 310 L 795 356 Q 795 385 806 463 L 814 485 Q 822 503 820 508 Q 818 515 804 525 Q 790 535 769 538 Q 749 541 744 538 Q 740 535 740 531 Q 740 526 743 520 Q 746 514 748 497 L 749 475 Z" fill="lightgray"></path> 
<path d="M 544 120 Q 529 120 530 116 Q 529 112 541 93 Q 554 74 557 39 L 572 -102 Q 574 -119 582 -131 Q 590 -144 598 -142 Q 606 -140 608 -131 Q 613 -123 614 -114 L 612 -78 L 606 80 C 605 109 605 109 587 113 L 563 118 Q 550 118 544 120 Z" fill="lightgray"></path> 
<path d="M 833 -63 L 872 42 Q 876 54 885 68 L 900 90 Q 907 102 892 113 L 860 140 Q 840 150 836 153 Q 832 156 822 156 L 809 154 L 792 148 L 587 113 C 557 108 577 72 606 80 L 641 90 Q 671 96 686 98 L 781 110 Q 794 110 798 106 Q 803 101 803 90 Q 803 78 801 48 L 790 -54 C 787 -84 823 -91 833 -63 Z" fill="lightgray"></path> 
<path d="M 614 -114 L 650 -113 L 801 -98 Q 836 -96 839 -97 Q 843 -98 853 -95 Q 864 -92 849 -77 L 833 -63 C 818 -50 818 -50 790 -54 L 612 -78 C 582 -82 584 -115 614 -114 Z" fill="lightgray"></path> 
<path d="M 1642 606 Q 1649 587 1640 570 Q 1592 480 1483 375 Q 1473 366 1469 361 Q 1463 351 1478 351 Q 1488 351 1517 369 Q 1548 385 1587 419 Q 1630 452 1678 504 Q 1700 529 1716 540 Q 1726 549 1724 563 Q 1723 576 1698 603 Q 1674 625 1656 628 Q 1637 629 1642 606 Z" fill="lightgray"></path> 
<path d="M 1522 246 Q 1526 247 1534 248 Q 1585 252 1632 259 Q 1761 277 1893 265 Q 1918 264 1924 272 Q 1931 287 1918 298 Q 1887 326 1840 345 Q 1825 351 1799 342 Q 1711 321 1501 291 Q 1468 287 1441 283 L 1392 276 L 1168 251 Q 1153 251 1152 239 Q 1152 226 1172 212 Q 1190 199 1223 188 Q 1233 184 1253 193 Q 1290 208 1391 224 L 1440 234 Q 1455 238 1474 240 L 1522 246 Z" fill="lightgray"></path> 
<path d="M 1441 283 Q 1447 553 1455 575 Q 1462 597 1446 613 Q 1419 634 1389 641 Q 1355 650 1344 634 Q 1335 621 1351 606 Q 1373 587 1379 539 Q 1392 463 1392 276 L 1391 224 Q 1388 79 1377 -2 Q 1373 -53 1351 -81 Q 1338 -103 1351 -127 Q 1367 -149 1388 -157 Q 1401 -164 1414 -144 Q 1433 -107 1543 19 Q 1571 44 1573 57 Q 1574 64 1568 66 Q 1565 66 1447 -22 Q 1434 -35 1431 -17 Q 1435 106 1440 234 L 1441 283 Z" fill="lightgray"></path> 
<path d="M 1474 240 Q 1529 195 1612 87 Q 1732 -57 1780 -66 Q 1781 -65 1784 -66 Q 1874 -70 1947 -61 Q 1986 -57 1982 -47 Q 1981 -41 1945 -28 Q 1771 29 1726 58 Q 1644 110 1535 233 L 1522 246 C 1501 267 1451 260 1474 240 Z" fill="lightgray"></path> 
      <clipPath id="make-me-a-hanzi-clip-0">
      <path d="M 317 472 L 406 596 L 421 612 Q 421 616 418 620 L 412 629 Q 399 642 375 647 Q 351 651 343 647 L 342 620 L 337 600 Q 335 587 328 563 L 316 528 L 306 504 Q 304 496 293 475 Q 294 469 290 465 C 277 438 300 448 317 472 Z" fill="lightgray"></path>
      </clipPath>
      <path clip-path="url(#make-me-a-hanzi-clip-0)" d="M 349 640 L 375 612 L 320 498 L 296 469 " fill="none" id="make-me-a-hanzi-animation-0" stroke-dasharray="330 660" stroke-linecap="round"></path>

      <clipPath id="make-me-a-hanzi-clip-1">
      <path d="M 264 459 L 246 468 Q 209 482 200 473 Q 196 461 201 454 Q 207 446 209 433 L 212 415 Q 214 411 214 384 L 214 328 L 210 210 L 207 160 L 206 135 L 203 113 Q 199 88 190 52 Q 178 12 171 -3 L 144 -60 Q 139 -70 125 -88 L 101 -118 Q 85 -143 106 -132 L 124 -121 Q 133 -117 158 -92 Q 203 -47 225 14 Q 247 74 252 132 L 256 172 L 259 217 L 263 344 Q 262 393 271 414 L 276 428 C 284 449 284 449 264 459 Z" fill="lightgray"></path>
      </clipPath>
      <path clip-path="url(#make-me-a-hanzi-clip-1)" d="M 208 466 L 229 451 L 242 425 L 236 226 L 225 99 L 191 -13 L 153 -77 L 107 -124 " fill="none" id="make-me-a-hanzi-animation-1" stroke-dasharray="767 1534" stroke-linecap="round"></path>

      <clipPath id="make-me-a-hanzi-clip-2">
      <path d="M 390 -4 L 389 -30 Q 390 -34 386 -66 Q 383 -79 376 -82 Q 370 -85 351 -79 L 322 -68 Q 311 -65 306 -68 Q 302 -72 314 -82 L 341 -115 Q 365 -143 372 -154 Q 379 -166 382 -170 Q 386 -174 391 -174 Q 397 -174 407 -167 Q 417 -161 428 -140 Q 449 -105 449 -40 L 446 218 L 446 246 L 452 391 Q 452 410 460 430 Q 469 449 469 453 Q 470 456 459 465 Q 438 487 425 492 L 403 500 L 400 500 L 384 493 Q 378 489 364 485 Q 350 480 347 480 L 317 472 L 290 465 L 264 459 C 235 452 247 421 276 428 L 349 446 Q 360 450 372 450 Q 381 452 387 447 Q 392 443 394 424 L 396 395 L 396 238 L 396 206 L 391 -3 L 390 -4 Z" fill="lightgray"></path>
      </clipPath>
      <path clip-path="url(#make-me-a-hanzi-clip-2)" d="M 272 456 L 294 448 L 398 471 L 410 467 L 427 446 L 416 -78 L 395 -117 L 364 -107 L 310 -71 " fill="none" id="make-me-a-hanzi-animation-2" stroke-dasharray="963 1926" stroke-linecap="round"></path>

      <clipPath id="make-me-a-hanzi-clip-3">
      <path d="M 331 342 L 294 358 Q 284 361 283 357 Q 282 352 286 346 L 291 334 Q 291 332 297 319 Q 303 305 308 298 L 316 284 Q 319 277 328 268 Q 338 258 344 258 Q 350 258 357 266 Q 364 273 365 294 Q 367 315 357 325 Q 348 335 331 342 Z" fill="lightgray"></path>
      </clipPath>
      <path clip-path="url(#make-me-a-hanzi-clip-3)" d="M 289 353 L 337 305 L 345 271 " fill="none" id="make-me-a-hanzi-animation-3" stroke-dasharray="231 462" stroke-linecap="round"></path>

      <clipPath id="make-me-a-hanzi-clip-4">
      <path d="M 351 98 Q 333 116 323 120 L 292 132 Q 279 134 277 130 Q 276 126 276 123 Q 276 120 285 102 L 293 84 L 304 64 Q 317 40 319 38 Q 331 23 341 24 Q 352 25 358 35 Q 372 68 351 98 Z" fill="lightgray"></path>
      </clipPath>
      <path clip-path="url(#make-me-a-hanzi-clip-4)" d="M 285 125 L 330 77 L 340 42 " fill="none" id="make-me-a-hanzi-animation-4" stroke-dasharray="230 460" stroke-linecap="round"></path>

      <clipPath id="make-me-a-hanzi-clip-5">
      <path d="M 446 218 L 492 230 Q 514 236 510 245 Q 503 257 488 252 L 446 246 L 396 238 L 259 217 L 210 210 L 186 206 Q 183 202 142 202 Q 126 199 103 204 L 76 210 Q 51 204 100 157 Q 123 135 131 136 Q 139 136 155 141 L 166 145 Q 203 158 207 160 L 256 172 L 396 206 L 446 218 Z" fill="lightgray"></path>
      </clipPath>
      <path clip-path="url(#make-me-a-hanzi-clip-5)" d="M 77 200 L 104 180 L 135 169 L 501 243 " fill="none" id="make-me-a-hanzi-animation-5" stroke-dasharray="568 1136" stroke-linecap="round"></path>

      <clipPath id="make-me-a-hanzi-clip-6">
      <path d="M 620 366 L 622 379 Q 622 405 626 432 L 639 486 Q 636 497 608 506 L 584 512 Q 570 513 564 510 Q 559 507 559 504 Q 557 502 563 493 Q 569 484 573 465 Q 577 446 577 439 L 575 384 Q 569 311 542 246 Q 529 215 516 202 L 505 190 Q 497 183 501 178 Q 505 173 513 179 L 530 188 Q 542 198 551 208 Q 570 230 581 247 Q 592 263 606 304 Q 620 345 620 366 Z" fill="lightgray"></path>
      </clipPath>
      <path clip-path="url(#make-me-a-hanzi-clip-6)" d="M 568 501 L 604 473 L 593 337 L 559 243 L 527 199 L 507 183 " fill="none" id="make-me-a-hanzi-animation-6" stroke-dasharray="490 980" stroke-linecap="round"></path>

      <clipPath id="make-me-a-hanzi-clip-7">
      <path d="M 749 475 L 742 333 Q 740 295 742 276 Q 744 257 755 244 Q 769 230 782 224 Q 795 218 837 214 Q 892 214 920 221 Q 948 227 951 234 Q 955 240 952 251 Q 949 262 930 273 Q 911 284 903 283 Q 896 281 883 275 Q 870 269 849 268 Q 828 266 818 268 Q 789 271 792 310 L 795 356 Q 795 385 806 463 L 814 485 Q 822 503 820 508 Q 818 515 804 525 Q 790 535 769 538 Q 749 541 744 538 Q 740 535 740 531 Q 740 526 743 520 Q 746 514 748 497 L 749 475 Z" fill="lightgray"></path>
      </clipPath>
      <path clip-path="url(#make-me-a-hanzi-clip-7)" d="M 750 530 L 782 498 L 766 307 L 774 264 L 790 249 L 814 242 L 862 241 L 909 250 L 939 242 " fill="none" id="make-me-a-hanzi-animation-7" stroke-dasharray="583 1166" stroke-linecap="round"></path>

      <clipPath id="make-me-a-hanzi-clip-8">
      <path d="M 544 120 Q 529 120 530 116 Q 529 112 541 93 Q 554 74 557 39 L 572 -102 Q 574 -119 582 -131 Q 590 -144 598 -142 Q 606 -140 608 -131 Q 613 -123 614 -114 L 612 -78 L 606 80 C 605 109 605 109 587 113 L 563 118 Q 550 118 544 120 Z" fill="lightgray"></path>
      </clipPath>
      <path clip-path="url(#make-me-a-hanzi-clip-8)" d="M 538 114 L 571 91 L 579 69 L 596 -130 " fill="none" id="make-me-a-hanzi-animation-8" stroke-dasharray="391 782" stroke-linecap="round"></path>

      <clipPath id="make-me-a-hanzi-clip-9">
      <path d="M 833 -63 L 872 42 Q 876 54 885 68 L 900 90 Q 907 102 892 113 L 860 140 Q 840 150 836 153 Q 832 156 822 156 L 809 154 L 792 148 L 587 113 C 557 108 577 72 606 80 L 641 90 Q 671 96 686 98 L 781 110 Q 794 110 798 106 Q 803 101 803 90 Q 803 78 801 48 L 790 -54 C 787 -84 823 -91 833 -63 Z" fill="lightgray"></path>
      </clipPath>
      <path clip-path="url(#make-me-a-hanzi-clip-9)" d="M 596 111 L 619 101 L 788 129 L 824 124 L 848 93 L 816 -35 L 799 -48 " fill="none" id="make-me-a-hanzi-animation-9" stroke-dasharray="553 1106" stroke-linecap="round"></path>

      <clipPath id="make-me-a-hanzi-clip-10">
      <path d="M 614 -114 L 650 -113 L 801 -98 Q 836 -96 839 -97 Q 843 -98 853 -95 Q 864 -92 849 -77 L 833 -63 C 818 -50 818 -50 790 -54 L 612 -78 C 582 -82 584 -115 614 -114 Z" fill="lightgray"></path>
      </clipPath>
      <path clip-path="url(#make-me-a-hanzi-clip-10)" d="M 620 -108 L 637 -93 L 771 -78 L 822 -78 L 848 -87 " fill="none" id="make-me-a-hanzi-animation-10" stroke-dasharray="364 728" stroke-linecap="round"></path>

      <clipPath id="make-me-a-hanzi-clip-11">
      <path d="M 1642 606 Q 1649 587 1640 570 Q 1592 480 1483 375 Q 1473 366 1469 361 Q 1463 351 1478 351 Q 1488 351 1517 369 Q 1548 385 1587 419 Q 1630 452 1678 504 Q 1700 529 1716 540 Q 1726 549 1724 563 Q 1723 576 1698 603 Q 1674 625 1656 628 Q 1637 629 1642 606 Z" fill="lightgray"></path>
      </clipPath>
      <path clip-path="url(#make-me-a-hanzi-clip-11)" d="M 1654 614 L 1674 586 L 1677 558 L 1618 482 L 1567 430 L 1503 374 L 1477 359 " fill="none" id="make-me-a-hanzi-animation-11" stroke-dasharray="475 950" stroke-linecap="round"></path>

      <clipPath id="make-me-a-hanzi-clip-12">
      <path d="M 1522 246 Q 1526 247 1534 248 Q 1585 252 1632 259 Q 1761 277 1893 265 Q 1918 264 1924 272 Q 1931 287 1918 298 Q 1887 326 1840 345 Q 1825 351 1799 342 Q 1711 321 1501 291 Q 1468 287 1441 283 L 1392 276 L 1168 251 Q 1153 251 1152 239 Q 1152 226 1172 212 Q 1190 199 1223 188 Q 1233 184 1253 193 Q 1290 208 1391 224 L 1440 234 Q 1455 238 1474 240 L 1522 246 Z" fill="lightgray"></path>
      </clipPath>
      <path clip-path="url(#make-me-a-hanzi-clip-12)" d="M 1165 238 L 1231 222 L 1451 261 L 1817 308 L 1847 304 L 1912 281 " fill="none" id="make-me-a-hanzi-animation-12" stroke-dasharray="888 1776" stroke-linecap="round"></path>

      <clipPath id="make-me-a-hanzi-clip-13">
      <path d="M 1441 283 Q 1447 553 1455 575 Q 1462 597 1446 613 Q 1419 634 1389 641 Q 1355 650 1344 634 Q 1335 621 1351 606 Q 1373 587 1379 539 Q 1392 463 1392 276 L 1391 224 Q 1388 79 1377 -2 Q 1373 -53 1351 -81 Q 1338 -103 1351 -127 Q 1367 -149 1388 -157 Q 1401 -164 1414 -144 Q 1433 -107 1543 19 Q 1571 44 1573 57 Q 1574 64 1568 66 Q 1565 66 1447 -22 Q 1434 -35 1431 -17 Q 1435 106 1440 234 L 1441 283 Z" fill="lightgray"></path>
      </clipPath>
      <path clip-path="url(#make-me-a-hanzi-clip-13)" d="M 1360 624 L 1398 602 L 1413 584 L 1419 297 L 1403 -13 L 1411 -66 L 1428 -63 L 1460 -43 L 1569 61 " fill="none" id="make-me-a-hanzi-animation-13" stroke-dasharray="1052 2104" stroke-linecap="round"></path>

      <clipPath id="make-me-a-hanzi-clip-14">
      <path d="M 1474 240 Q 1529 195 1612 87 Q 1732 -57 1780 -66 Q 1781 -65 1784 -66 Q 1874 -70 1947 -61 Q 1986 -57 1982 -47 Q 1981 -41 1945 -28 Q 1771 29 1726 58 Q 1644 110 1535 233 L 1522 246 C 1501 267 1451 260 1474 240 Z" fill="lightgray"></path>
      </clipPath>
      <path clip-path="url(#make-me-a-hanzi-clip-14)" d="M 1480 239 L 1515 227 L 1654 76 L 1751 -1 L 1794 -22 L 1976 -48 " fill="none" id="make-me-a-hanzi-animation-14" stroke-dasharray="726 1452" stroke-linecap="round"></path>

</g>
</svg>
