<svg version="1.1" viewBox="0 0 3072 1024" xmlns="http://www.w3.org/2000/svg">
  <g stroke="lightgray" stroke-dasharray="1,1" stroke-width="1" transform="scale(4, 4)">
    <line x1="0" y1="0" x2="256" y2="256"></line>
    <line x1="256" y1="0" x2="0" y2="256"></line>
    <line x1="128" y1="0" x2="128" y2="256"></line>
    <line x1="0" y1="128" x2="256" y2="128"></line>
    <line x1="256" y1="0" x2="512" y2="256"></line>
    <line x1="512" y1="0" x2="256" y2="256"></line>
    <line x1="384" y1="0" x2="384" y2="256"></line>
    <line x1="256" y1="128" x2="512" y2="128"></line>
    <line x1="512" y1="0" x2="768" y2="256"></line>
    <line x1="768" y1="0" x2="512" y2="256"></line>
    <line x1="640" y1="0" x2="640" y2="256"></line>
    <line x1="512" y1="128" x2="768" y2="128"></line>
  </g>
<g transform="scale(1, -1) translate(0, -850)">
   <style type="text/css">
    @keyframes keyframes0 {
      from {
       stroke: black;
       stroke-dashoffset: 983;
       stroke-width: 128;
       }
       76% {
       animation-timing-function: step-end;
       stroke: black;
       stroke-dashoffset: 0;
       stroke-width: 128;
       }
       to {
       stroke: black;
       stroke-width: 1024;
       }
       }
       #make-me-a-hanzi-animation-0 {
         animation: keyframes0 1.049967s both;
         animation-delay: 0.000000s;
         animation-timing-function: linear;
       }
    @keyframes keyframes1 {
      from {
       stroke: black;
       stroke-dashoffset: 479;
       stroke-width: 128;
       }
       61% {
       animation-timing-function: step-end;
       stroke: black;
       stroke-dashoffset: 0;
       stroke-width: 128;
       }
       to {
       stroke: black;
       stroke-width: 1024;
       }
       }
       #make-me-a-hanzi-animation-1 {
         animation: keyframes1 0.639811s both;
         animation-delay: 1.049967s;
         animation-timing-function: linear;
       }
    @keyframes keyframes2 {
      from {
       stroke: black;
       stroke-dashoffset: 551;
       stroke-width: 128;
       }
       64% {
       animation-timing-function: step-end;
       stroke: black;
       stroke-dashoffset: 0;
       stroke-width: 128;
       }
       to {
       stroke: black;
       stroke-width: 1024;
       }
       }
       #make-me-a-hanzi-animation-2 {
         animation: keyframes2 0.698405s both;
         animation-delay: 1.689779s;
         animation-timing-function: linear;
       }
    @keyframes keyframes3 {
      from {
       stroke: black;
       stroke-dashoffset: 864;
       stroke-width: 128;
       }
       74% {
       animation-timing-function: step-end;
       stroke: black;
       stroke-dashoffset: 0;
       stroke-width: 128;
       }
       to {
       stroke: black;
       stroke-width: 1024;
       }
       }
       #make-me-a-hanzi-animation-3 {
         animation: keyframes3 0.953125s both;
         animation-delay: 2.388184s;
         animation-timing-function: linear;
       }
    @keyframes keyframes4 {
      from {
       stroke: black;
       stroke-dashoffset: 843;
       stroke-width: 128;
       }
       73% {
       animation-timing-function: step-end;
       stroke: black;
       stroke-dashoffset: 0;
       stroke-width: 128;
       }
       to {
       stroke: black;
       stroke-width: 1024;
       }
       }
       #make-me-a-hanzi-animation-4 {
         animation: keyframes4 0.936035s both;
         animation-delay: 3.341309s;
         animation-timing-function: linear;
       }
    @keyframes keyframes5 {
      from {
       stroke: black;
       stroke-dashoffset: 624;
       stroke-width: 128;
       }
       67% {
       animation-timing-function: step-end;
       stroke: black;
       stroke-dashoffset: 0;
       stroke-width: 128;
       }
       to {
       stroke: black;
       stroke-width: 1024;
       }
       }
       #make-me-a-hanzi-animation-5 {
         animation: keyframes5 0.757812s both;
         animation-delay: 4.277344s;
         animation-timing-function: linear;
       }
    @keyframes keyframes6 {
      from {
       stroke: black;
       stroke-dashoffset: 778;
       stroke-width: 128;
       }
       72% {
       animation-timing-function: step-end;
       stroke: black;
       stroke-dashoffset: 0;
       stroke-width: 128;
       }
       to {
       stroke: black;
       stroke-width: 1024;
       }
       }
       #make-me-a-hanzi-animation-6 {
         animation: keyframes6 0.883138s both;
         animation-delay: 5.035156s;
         animation-timing-function: linear;
       }
    @keyframes keyframes7 {
      from {
       stroke: black;
       stroke-dashoffset: 407;
       stroke-width: 128;
       }
       57% {
       animation-timing-function: step-end;
       stroke: black;
       stroke-dashoffset: 0;
       stroke-width: 128;
       }
       to {
       stroke: black;
       stroke-width: 1024;
       }
       }
       #make-me-a-hanzi-animation-7 {
         animation: keyframes7 0.581217s both;
         animation-delay: 5.918294s;
         animation-timing-function: linear;
       }
    @keyframes keyframes8 {
      from {
       stroke: black;
       stroke-dashoffset: 440;
       stroke-width: 128;
       }
       59% {
       animation-timing-function: step-end;
       stroke: black;
       stroke-dashoffset: 0;
       stroke-width: 128;
       }
       to {
       stroke: black;
       stroke-width: 1024;
       }
       }
       #make-me-a-hanzi-animation-8 {
         animation: keyframes8 0.608073s both;
         animation-delay: 6.499512s;
         animation-timing-function: linear;
       }
    @keyframes keyframes9 {
      from {
       stroke: black;
       stroke-dashoffset: 863;
       stroke-width: 128;
       }
       74% {
       animation-timing-function: step-end;
       stroke: black;
       stroke-dashoffset: 0;
       stroke-width: 128;
       }
       to {
       stroke: black;
       stroke-width: 1024;
       }
       }
       #make-me-a-hanzi-animation-9 {
         animation: keyframes9 0.952311s both;
         animation-delay: 7.107585s;
         animation-timing-function: linear;
       }
    @keyframes keyframes10 {
      from {
       stroke: black;
       stroke-dashoffset: 564;
       stroke-width: 128;
       }
       65% {
       animation-timing-function: step-end;
       stroke: black;
       stroke-dashoffset: 0;
       stroke-width: 128;
       }
       to {
       stroke: black;
       stroke-width: 1024;
       }
       }
       #make-me-a-hanzi-animation-10 {
         animation: keyframes10 0.708984s both;
         animation-delay: 8.059896s;
         animation-timing-function: linear;
       }
    @keyframes keyframes11 {
      from {
       stroke: black;
       stroke-dashoffset: 778;
       stroke-width: 128;
       }
       72% {
       animation-timing-function: step-end;
       stroke: black;
       stroke-dashoffset: 0;
       stroke-width: 128;
       }
       to {
       stroke: black;
       stroke-width: 1024;
       }
       }
       #make-me-a-hanzi-animation-11 {
         animation: keyframes11 0.883138s both;
         animation-delay: 8.768880s;
         animation-timing-function: linear;
       }
    @keyframes keyframes12 {
      from {
       stroke: black;
       stroke-dashoffset: 397;
       stroke-width: 128;
       }
       56% {
       animation-timing-function: step-end;
       stroke: black;
       stroke-dashoffset: 0;
       stroke-width: 128;
       }
       to {
       stroke: black;
       stroke-width: 1024;
       }
       }
       #make-me-a-hanzi-animation-12 {
         animation: keyframes12 0.573079s both;
         animation-delay: 9.652018s;
         animation-timing-function: linear;
       }
    @keyframes keyframes13 {
      from {
       stroke: black;
       stroke-dashoffset: 423;
       stroke-width: 128;
       }
       58% {
       animation-timing-function: step-end;
       stroke: black;
       stroke-dashoffset: 0;
       stroke-width: 128;
       }
       to {
       stroke: black;
       stroke-width: 1024;
       }
       }
       #make-me-a-hanzi-animation-13 {
         animation: keyframes13 0.594238s both;
         animation-delay: 10.225098s;
         animation-timing-function: linear;
       }
    @keyframes keyframes14 {
      from {
       stroke: black;
       stroke-dashoffset: 694;
       stroke-width: 128;
       }
       69% {
       animation-timing-function: step-end;
       stroke: black;
       stroke-dashoffset: 0;
       stroke-width: 128;
       }
       to {
       stroke: black;
       stroke-width: 1024;
       }
       }
       #make-me-a-hanzi-animation-14 {
         animation: keyframes14 0.814779s both;
         animation-delay: 10.819336s;
         animation-timing-function: linear;
       }
    @keyframes keyframes15 {
      from {
       stroke: black;
       stroke-dashoffset: 794;
       stroke-width: 128;
       }
       72% {
       animation-timing-function: step-end;
       stroke: black;
       stroke-dashoffset: 0;
       stroke-width: 128;
       }
       to {
       stroke: black;
       stroke-width: 1024;
       }
       }
       #make-me-a-hanzi-animation-15 {
         animation: keyframes15 0.896159s both;
         animation-delay: 11.634115s;
         animation-timing-function: linear;
       }
    @keyframes keyframes16 {
      from {
       stroke: black;
       stroke-dashoffset: 538;
       stroke-width: 128;
       }
       64% {
       animation-timing-function: step-end;
       stroke: black;
       stroke-dashoffset: 0;
       stroke-width: 128;
       }
       to {
       stroke: black;
       stroke-width: 1024;
       }
       }
       #make-me-a-hanzi-animation-16 {
         animation: keyframes16 0.687826s both;
         animation-delay: 12.530273s;
         animation-timing-function: linear;
       }
    @keyframes keyframes17 {
      from {
       stroke: black;
       stroke-dashoffset: 446;
       stroke-width: 128;
       }
       59% {
       animation-timing-function: step-end;
       stroke: black;
       stroke-dashoffset: 0;
       stroke-width: 128;
       }
       to {
       stroke: black;
       stroke-width: 1024;
       }
       }
       #make-me-a-hanzi-animation-17 {
         animation: keyframes17 0.612956s both;
         animation-delay: 13.218099s;
         animation-timing-function: linear;
       }
    @keyframes keyframes18 {
      from {
       stroke: black;
       stroke-dashoffset: 602;
       stroke-width: 128;
       }
       66% {
       animation-timing-function: step-end;
       stroke: black;
       stroke-dashoffset: 0;
       stroke-width: 128;
       }
       to {
       stroke: black;
       stroke-width: 1024;
       }
       }
       #make-me-a-hanzi-animation-18 {
         animation: keyframes18 0.739909s both;
         animation-delay: 13.831055s;
         animation-timing-function: linear;
       }
    @keyframes keyframes19 {
      from {
       stroke: black;
       stroke-dashoffset: 504;
       stroke-width: 128;
       }
       62% {
       animation-timing-function: step-end;
       stroke: black;
       stroke-dashoffset: 0;
       stroke-width: 128;
       }
       to {
       stroke: black;
       stroke-width: 1024;
       }
       }
       #make-me-a-hanzi-animation-19 {
         animation: keyframes19 0.660156s both;
         animation-delay: 14.570964s;
         animation-timing-function: linear;
       }
    @keyframes keyframes20 {
      from {
       stroke: black;
       stroke-dashoffset: 988;
       stroke-width: 128;
       }
       76% {
       animation-timing-function: step-end;
       stroke: black;
       stroke-dashoffset: 0;
       stroke-width: 128;
       }
       to {
       stroke: black;
       stroke-width: 1024;
       }
       }
       #make-me-a-hanzi-animation-20 {
         animation: keyframes20 1.054036s both;
         animation-delay: 15.231120s;
         animation-timing-function: linear;
       }
    @keyframes keyframes21 {
      from {
       stroke: black;
       stroke-dashoffset: 1451;
       stroke-width: 128;
       }
       83% {
       animation-timing-function: step-end;
       stroke: black;
       stroke-dashoffset: 0;
       stroke-width: 128;
       }
       to {
       stroke: black;
       stroke-width: 1024;
       }
       }
       #make-me-a-hanzi-animation-21 {
         animation: keyframes21 1.430827s both;
         animation-delay: 16.285156s;
         animation-timing-function: linear;
       }
</style>
<path d="M 378 588 Q 469 601 570 612 L 622 618 Q 731 627 846 628 Q 899 631 838 670 Q 783 698 726 676 Q 697 670 638 656 L 582 654 Q 483 635 378 628 L 334 624 Q 225 611 138 610 Q 108 604 141 579.5 Q 174 555 214 556 Q 271 570 340 582 L 378 588 Z" fill="lightgray"></path> 
<path d="M 354 528 Q 365 504 376 532 Q 377 555 378 588 L 378 628 Q 378 673 390 700 Q 395 714 365 725 Q 335 736 300 736 Q 281 727 292 716 Q 322 680 334 624 L 340 582 Q 342 576 354 528 Z" fill="lightgray"></path> 
<path d="M 570 612 Q 556 567 534 522 Q 526 505 532 505 Q 538 505 546 510 Q 570 535 591 568 Q 612 601 622 618 L 638 656 Q 659 703 690 736 Q 698 752 665.5 772 Q 633 792 604 794 Q 584 789 592 766 Q 599 723 582 654 L 570 612 Z" fill="lightgray"></path> 
<path d="M 430 566 Q 415 570 410 556 Q 416 541 408 508 Q 360 391 269.5 289 Q 179 187 60 114 Q 46 103 66 104 Q 226 177 316 275 Q 406 373 462 476 L 488 510 Q 499 528 477.5 542 Q 456 556 430 566 Z" fill="lightgray"></path> 
<path d="M 462 476 Q 609 320 738 204 Q 784 163 824 176 Q 877 178 903 182 Q 929 185 950 190 Q 965 203 954 208 Q 850 231 735 296 Q 619 361 488 496 L 488 510 C 483 540 441 498 462 476 Z" fill="lightgray"></path> 
<path d="M 498 158 Q 555 165 600.5 174 Q 646 183 660 190 Q 683 207 656 219.5 Q 629 232 592 226 Q 530 209 502 204 L 452 196 Q 379 180 294 176 Q 267 170 291.5 153.5 Q 316 137 354 140 Q 382 144 452 148 L 498 158 Z" fill="lightgray"></path> 
<path d="M 452 148 Q 454 62 448 -14 Q 440 -51 354 -20 Q 338 -20 346 -32 Q 415 -82 440 -135 Q 457 -157 479.5 -125 Q 502 -93 506 -42 Q 507 -6 504 49.5 Q 501 105 498 158 L 502 204 Q 501 245 522 286 Q 523 297 495 313 Q 467 329 444 334 Q 422 337 434 308 Q 453 265 452 214 L 452 196 L 452 148 Z" fill="lightgray"></path> 
<path d="M 242 -71 Q 268 -48 280 -21 Q 292 6 296 20 Q 302 45 295 73.5 Q 288 102 274 84 Q 251 34 204 -16 Q 192 -33 201.5 -60.5 Q 211 -88 242 -71 Z" fill="lightgray"></path> 
<path d="M 730 -59 Q 751 -70 759 -53.5 Q 767 -37 760 -12 Q 744 32 702 51.5 Q 660 71 618 78 Q 609 80 599 77.5 Q 589 75 604 60 Q 662 -8 730 -59 Z" fill="lightgray"></path> 
<path d="M 1296 539 Q 1378 699 1389 711 Q 1399 724 1392 738 Q 1386 751 1353 773 Q 1323 789 1303 787 Q 1284 783 1294 761 Q 1313 725 1302 693 Q 1244 512 1080 276 Q 1070 263 1069 257 Q 1066 244 1081 249 Q 1141 265 1285 519 L 1296 539 Z" fill="lightgray"></path> 
<path d="M 1285 519 Q 1304 513 1393 537 Q 1403 540 1406 538 Q 1409 535 1406 528 Q 1385 467 1372 439 Q 1368 427 1366 422 Q 1365 412 1376 418 Q 1386 424 1435 482 Q 1465 519 1495 541 Q 1511 551 1498 563 Q 1485 573 1449 591 Q 1433 595 1420 585 Q 1411 579 1336 551 Q 1318 544 1296 539 C 1267 532 1255 522 1285 519 Z" fill="lightgray"></path> 
<path d="M 1345 366 Q 1349 381 1340 392 Q 1315 414 1292 425 Q 1273 432 1264 427 Q 1254 420 1263 405 Q 1305 312 1282 138 Q 1275 98 1241 57 Q 1229 41 1237 17 Q 1247 -11 1261 -22 Q 1274 -29 1287 -13 Q 1300 15 1436 133 Q 1455 146 1460 156 Q 1464 166 1454 166 Q 1441 166 1343 112 Q 1333 106 1331 116 Q 1341 230 1341 318 Q 1340 345 1345 366 Z" fill="lightgray"></path> 
<path d="M 1655 715 Q 1686 693 1718 663 Q 1731 651 1746 653 Q 1756 654 1761 666 Q 1765 681 1755 709 Q 1743 740 1649 761 Q 1634 764 1628 761 Q 1624 757 1625 745 Q 1629 735 1655 715 Z" fill="lightgray"></path> 
<path d="M 1572 580 Q 1560 610 1539 621 Q 1535 625 1530 621 Q 1526 617 1525 606 Q 1529 576 1501 510 Q 1491 494 1492 476 Q 1496 457 1505 443 Q 1512 433 1518 440 Q 1530 443 1545 490 Q 1560 536 1568 552 Q 1568 553 1569 554 C 1577 569 1577 569 1572 580 Z" fill="lightgray"></path> 
<path d="M 1569 554 Q 1588 545 1642 560 Q 1727 594 1830 606 Q 1834 606 1838 606 Q 1851 594 1848 588 Q 1849 585 1845 572 Q 1821 506 1829 503 Q 1836 500 1851 512 Q 1899 549 1939 564 Q 1973 577 1971 585 Q 1970 595 1899 637 Q 1878 652 1792 629 Q 1750 628 1572 580 C 1543 572 1540 560 1569 554 Z" fill="lightgray"></path> 
<path d="M 1617 172 Q 1617 214 1618 257 L 1619 285 Q 1620 357 1625 385 C 1628 406 1628 406 1620 414 Q 1607 433 1563 446 Q 1553 447 1547 440 Q 1544 434 1552 423 Q 1597 311 1564 72 Q 1540 -28 1544 -43 Q 1553 -77 1564 -90 Q 1576 -103 1586 -89 Q 1601 -73 1612 3 L 1615 35 Q 1615 87 1617 142 L 1617 172 Z" fill="lightgray"></path> 
<path d="M 1795 320 Q 1811 378 1830 395 Q 1852 423 1829 436 Q 1808 448 1780 465 Q 1761 475 1742 463 Q 1717 447 1685 434 Q 1657 424 1620 414 C 1591 406 1595 380 1625 385 Q 1634 386 1646 390 Q 1686 402 1722 410 Q 1746 417 1751 407 Q 1757 403 1752 377 Q 1748 352 1740 322 C 1732 293 1787 291 1795 320 Z" fill="lightgray"></path> 
<path d="M 1618 257 Q 1625 256 1637 259 Q 1689 275 1804 295 Q 1813 296 1813 304 Q 1813 311 1795 320 C 1772 332 1769 331 1740 322 Q 1673 300 1619 285 C 1590 277 1588 258 1618 257 Z" fill="lightgray"></path> 
<path d="M 1837 72 Q 1858 133 1887 154 Q 1903 173 1888 191 Q 1870 204 1817 227 Q 1799 234 1778 225 Q 1723 200 1617 172 C 1588 164 1587 138 1617 142 Q 1629 142 1771 176 Q 1786 180 1792 174 Q 1804 162 1783 73 C 1776 44 1827 44 1837 72 Z" fill="lightgray"></path> 
<path d="M 1612 3 Q 1618 -3 1643 2 Q 1710 18 1856 33 Q 1866 34 1868 44 Q 1868 53 1837 72 C 1820 83 1812 81 1783 73 Q 1689 48 1615 35 C 1585 30 1584 14 1612 3 Z" fill="lightgray"></path> 
<path d="M 2363 513 Q 2397 438 2354 214 Q 2338 153 2303 83 Q 2272 17 2206 -42 Q 2155 -81 2145 -95 Q 2142 -104 2156 -104 Q 2175 -105 2199 -90 Q 2251 -59 2285 -28 Q 2393 80 2430 314 Q 2448 440 2454 477 Q 2463 499 2440 513 Q 2386 544 2369 542 Q 2347 539 2363 513 Z" fill="lightgray"></path> 
<path d="M 2593 485 Q 2596 413 2583 195 Q 2565 -7 2618 -69 Q 2663 -123 2855 -122 Q 2937 -121 2998 -98 Q 3040 -85 3025 -54 Q 3000 3 2984 102 Q 2980 118 2974 126 Q 2964 135 2960 115 Q 2944 58 2929 15 Q 2922 -16 2894 -32 Q 2869 -59 2741 -51 Q 2668 -45 2647 -1 Q 2617 74 2654 408 Q 2663 493 2674 533 Q 2687 567 2598 618 Q 2576 633 2556 621 Q 2543 614 2566 581 Q 2593 541 2593 485 Z" fill="lightgray"></path> 
      <clipPath id="make-me-a-hanzi-clip-0">
      <path d="M 378 588 Q 469 601 570 612 L 622 618 Q 731 627 846 628 Q 899 631 838 670 Q 783 698 726 676 Q 697 670 638 656 L 582 654 Q 483 635 378 628 L 334 624 Q 225 611 138 610 Q 108 604 141 579.5 Q 174 555 214 556 Q 271 570 340 582 L 378 588 Z" fill="lightgray"></path>
      </clipPath>
      <path clip-path="url(#make-me-a-hanzi-clip-0)" d="M 138 595 L 207 584 L 765 656 L 845 649 L 855 639 " fill="none" id="make-me-a-hanzi-animation-0" stroke-dasharray="855 1710" stroke-linecap="round"></path>

      <clipPath id="make-me-a-hanzi-clip-1">
      <path d="M 354 528 Q 365 504 376 532 Q 377 555 378 588 L 378 628 Q 378 673 390 700 Q 395 714 365 725 Q 335 736 300 736 Q 281 727 292 716 Q 322 680 334 624 L 340 582 Q 342 576 354 528 Z" fill="lightgray"></path>
      </clipPath>
      <path clip-path="url(#make-me-a-hanzi-clip-1)" d="M 300 724 L 348 694 L 365 528 " fill="none" id="make-me-a-hanzi-animation-1" stroke-dasharray="351 702" stroke-linecap="round"></path>

      <clipPath id="make-me-a-hanzi-clip-2">
      <path d="M 570 612 Q 556 567 534 522 Q 526 505 532 505 Q 538 505 546 510 Q 570 535 591 568 Q 612 601 622 618 L 638 656 Q 659 703 690 736 Q 698 752 665.5 772 Q 633 792 604 794 Q 584 789 592 766 Q 599 723 582 654 L 570 612 Z" fill="lightgray"></path>
      </clipPath>
      <path clip-path="url(#make-me-a-hanzi-clip-2)" d="M 607 776 L 631 749 L 634 728 L 581 585 L 538 511 " fill="none" id="make-me-a-hanzi-animation-2" stroke-dasharray="423 846" stroke-linecap="round"></path>

      <clipPath id="make-me-a-hanzi-clip-3">
      <path d="M 430 566 Q 415 570 410 556 Q 416 541 408 508 Q 360 391 269.5 289 Q 179 187 60 114 Q 46 103 66 104 Q 226 177 316 275 Q 406 373 462 476 L 488 510 Q 499 528 477.5 542 Q 456 556 430 566 Z" fill="lightgray"></path>
      </clipPath>
      <path clip-path="url(#make-me-a-hanzi-clip-3)" d="M 422 554 L 447 515 L 412 446 L 336 333 L 235 225 L 161 167 L 70 113 " fill="none" id="make-me-a-hanzi-animation-3" stroke-dasharray="736 1472" stroke-linecap="round"></path>

      <clipPath id="make-me-a-hanzi-clip-4">
      <path d="M 462 476 Q 609 320 738 204 Q 784 163 824 176 Q 877 178 903 182 Q 929 185 950 190 Q 965 203 954 208 Q 850 231 735 296 Q 619 361 488 496 L 488 510 C 483 540 441 498 462 476 Z" fill="lightgray"></path>
      </clipPath>
      <path clip-path="url(#make-me-a-hanzi-clip-4)" d="M 485 503 L 485 477 L 538 421 L 678 297 L 771 230 L 809 214 L 949 200 " fill="none" id="make-me-a-hanzi-animation-4" stroke-dasharray="715 1430" stroke-linecap="round"></path>

      <clipPath id="make-me-a-hanzi-clip-5">
      <path d="M 498 158 Q 555 165 600.5 174 Q 646 183 660 190 Q 683 207 656 219.5 Q 629 232 592 226 Q 530 209 502 204 L 452 196 Q 379 180 294 176 Q 267 170 291.5 153.5 Q 316 137 354 140 Q 382 144 452 148 L 498 158 Z" fill="lightgray"></path>
      </clipPath>
      <path clip-path="url(#make-me-a-hanzi-clip-5)" d="M 291 165 L 330 159 L 378 162 L 614 203 L 655 204 " fill="none" id="make-me-a-hanzi-animation-5" stroke-dasharray="496 992" stroke-linecap="round"></path>

      <clipPath id="make-me-a-hanzi-clip-6">
      <path d="M 452 148 Q 454 62 448 -14 Q 440 -51 354 -20 Q 338 -20 346 -32 Q 415 -82 440 -135 Q 457 -157 479.5 -125 Q 502 -93 506 -42 Q 507 -6 504 49.5 Q 501 105 498 158 L 502 204 Q 501 245 522 286 Q 523 297 495 313 Q 467 329 444 334 Q 422 337 434 308 Q 453 265 452 214 L 452 196 L 452 148 Z" fill="lightgray"></path>
      </clipPath>
      <path clip-path="url(#make-me-a-hanzi-clip-6)" d="M 441 320 L 465 301 L 480 278 L 477 -23 L 455 -72 L 374 -41 L 366 -29 L 358 -31 " fill="none" id="make-me-a-hanzi-animation-6" stroke-dasharray="650 1300" stroke-linecap="round"></path>

      <clipPath id="make-me-a-hanzi-clip-7">
      <path d="M 242 -71 Q 268 -48 280 -21 Q 292 6 296 20 Q 302 45 295 73.5 Q 288 102 274 84 Q 251 34 204 -16 Q 192 -33 201.5 -60.5 Q 211 -88 242 -71 Z" fill="lightgray"></path>
      </clipPath>
      <path clip-path="url(#make-me-a-hanzi-clip-7)" d="M 285 79 L 273 31 L 222 -57 " fill="none" id="make-me-a-hanzi-animation-7" stroke-dasharray="279 558" stroke-linecap="round"></path>

      <clipPath id="make-me-a-hanzi-clip-8">
      <path d="M 730 -59 Q 751 -70 759 -53.5 Q 767 -37 760 -12 Q 744 32 702 51.5 Q 660 71 618 78 Q 609 80 599 77.5 Q 589 75 604 60 Q 662 -8 730 -59 Z" fill="lightgray"></path>
      </clipPath>
      <path clip-path="url(#make-me-a-hanzi-clip-8)" d="M 605 70 L 708 5 L 734 -25 L 742 -46 " fill="none" id="make-me-a-hanzi-animation-8" stroke-dasharray="312 624" stroke-linecap="round"></path>

      <clipPath id="make-me-a-hanzi-clip-9">
      <path d="M 1296 539 Q 1378 699 1389 711 Q 1399 724 1392 738 Q 1386 751 1353 773 Q 1323 789 1303 787 Q 1284 783 1294 761 Q 1313 725 1302 693 Q 1244 512 1080 276 Q 1070 263 1069 257 Q 1066 244 1081 249 Q 1141 265 1285 519 L 1296 539 Z" fill="lightgray"></path>
      </clipPath>
      <path clip-path="url(#make-me-a-hanzi-clip-9)" d="M 1305 772 L 1340 739 L 1347 722 L 1301 607 L 1246 497 L 1179 385 L 1119 300 L 1078 258 " fill="none" id="make-me-a-hanzi-animation-9" stroke-dasharray="735 1470" stroke-linecap="round"></path>

      <clipPath id="make-me-a-hanzi-clip-10">
      <path d="M 1285 519 Q 1304 513 1393 537 Q 1403 540 1406 538 Q 1409 535 1406 528 Q 1385 467 1372 439 Q 1368 427 1366 422 Q 1365 412 1376 418 Q 1386 424 1435 482 Q 1465 519 1495 541 Q 1511 551 1498 563 Q 1485 573 1449 591 Q 1433 595 1420 585 Q 1411 579 1336 551 Q 1318 544 1296 539 C 1267 532 1255 522 1285 519 Z" fill="lightgray"></path>
      </clipPath>
      <path clip-path="url(#make-me-a-hanzi-clip-10)" d="M 1289 523 L 1408 558 L 1441 553 L 1444 548 L 1431 517 L 1372 423 " fill="none" id="make-me-a-hanzi-animation-10" stroke-dasharray="436 872" stroke-linecap="round"></path>

      <clipPath id="make-me-a-hanzi-clip-11">
      <path d="M 1345 366 Q 1349 381 1340 392 Q 1315 414 1292 425 Q 1273 432 1264 427 Q 1254 420 1263 405 Q 1305 312 1282 138 Q 1275 98 1241 57 Q 1229 41 1237 17 Q 1247 -11 1261 -22 Q 1274 -29 1287 -13 Q 1300 15 1436 133 Q 1455 146 1460 156 Q 1464 166 1454 166 Q 1441 166 1343 112 Q 1333 106 1331 116 Q 1341 230 1341 318 Q 1340 345 1345 366 Z" fill="lightgray"></path>
      </clipPath>
      <path clip-path="url(#make-me-a-hanzi-clip-11)" d="M 1272 416 L 1311 372 L 1316 269 L 1303 109 L 1308 78 L 1344 85 L 1453 159 " fill="none" id="make-me-a-hanzi-animation-11" stroke-dasharray="650 1300" stroke-linecap="round"></path>

      <clipPath id="make-me-a-hanzi-clip-12">
      <path d="M 1655 715 Q 1686 693 1718 663 Q 1731 651 1746 653 Q 1756 654 1761 666 Q 1765 681 1755 709 Q 1743 740 1649 761 Q 1634 764 1628 761 Q 1624 757 1625 745 Q 1629 735 1655 715 Z" fill="lightgray"></path>
      </clipPath>
      <path clip-path="url(#make-me-a-hanzi-clip-12)" d="M 1633 755 L 1714 708 L 1743 671 " fill="none" id="make-me-a-hanzi-animation-12" stroke-dasharray="269 538" stroke-linecap="round"></path>

      <clipPath id="make-me-a-hanzi-clip-13">
      <path d="M 1572 580 Q 1560 610 1539 621 Q 1535 625 1530 621 Q 1526 617 1525 606 Q 1529 576 1501 510 Q 1491 494 1492 476 Q 1496 457 1505 443 Q 1512 433 1518 440 Q 1530 443 1545 490 Q 1560 536 1568 552 Q 1568 553 1569 554 C 1577 569 1577 569 1572 580 Z" fill="lightgray"></path>
      </clipPath>
      <path clip-path="url(#make-me-a-hanzi-clip-13)" d="M 1535 611 L 1545 589 L 1546 563 L 1516 481 L 1514 452 " fill="none" id="make-me-a-hanzi-animation-13" stroke-dasharray="295 590" stroke-linecap="round"></path>

      <clipPath id="make-me-a-hanzi-clip-14">
      <path d="M 1569 554 Q 1588 545 1642 560 Q 1727 594 1830 606 Q 1834 606 1838 606 Q 1851 594 1848 588 Q 1849 585 1845 572 Q 1821 506 1829 503 Q 1836 500 1851 512 Q 1899 549 1939 564 Q 1973 577 1971 585 Q 1970 595 1899 637 Q 1878 652 1792 629 Q 1750 628 1572 580 C 1543 572 1540 560 1569 554 Z" fill="lightgray"></path>
      </clipPath>
      <path clip-path="url(#make-me-a-hanzi-clip-14)" d="M 1576 560 L 1589 569 L 1719 602 L 1847 623 L 1874 612 L 1892 591 L 1833 508 " fill="none" id="make-me-a-hanzi-animation-14" stroke-dasharray="566 1132" stroke-linecap="round"></path>

      <clipPath id="make-me-a-hanzi-clip-15">
      <path d="M 1617 172 Q 1617 214 1618 257 L 1619 285 Q 1620 357 1625 385 C 1628 406 1628 406 1620 414 Q 1607 433 1563 446 Q 1553 447 1547 440 Q 1544 434 1552 423 Q 1597 311 1564 72 Q 1540 -28 1544 -43 Q 1553 -77 1564 -90 Q 1576 -103 1586 -89 Q 1601 -73 1612 3 L 1615 35 Q 1615 87 1617 142 L 1617 172 Z" fill="lightgray"></path>
      </clipPath>
      <path clip-path="url(#make-me-a-hanzi-clip-15)" d="M 1555 436 L 1567 430 L 1592 400 L 1598 332 L 1596 150 L 1574 -37 L 1575 -84 " fill="none" id="make-me-a-hanzi-animation-15" stroke-dasharray="666 1332" stroke-linecap="round"></path>

      <clipPath id="make-me-a-hanzi-clip-16">
      <path d="M 1795 320 Q 1811 378 1830 395 Q 1852 423 1829 436 Q 1808 448 1780 465 Q 1761 475 1742 463 Q 1717 447 1685 434 Q 1657 424 1620 414 C 1591 406 1595 380 1625 385 Q 1634 386 1646 390 Q 1686 402 1722 410 Q 1746 417 1751 407 Q 1757 403 1752 377 Q 1748 352 1740 322 C 1732 293 1787 291 1795 320 Z" fill="lightgray"></path>
      </clipPath>
      <path clip-path="url(#make-me-a-hanzi-clip-16)" d="M 1629 393 L 1645 406 L 1748 438 L 1770 434 L 1792 412 L 1774 348 L 1747 328 " fill="none" id="make-me-a-hanzi-animation-16" stroke-dasharray="410 820" stroke-linecap="round"></path>

      <clipPath id="make-me-a-hanzi-clip-17">
      <path d="M 1618 257 Q 1625 256 1637 259 Q 1689 275 1804 295 Q 1813 296 1813 304 Q 1813 311 1795 320 C 1772 332 1769 331 1740 322 Q 1673 300 1619 285 C 1590 277 1588 258 1618 257 Z" fill="lightgray"></path>
      </clipPath>
      <path clip-path="url(#make-me-a-hanzi-clip-17)" d="M 1622 264 L 1633 274 L 1746 304 L 1804 304 " fill="none" id="make-me-a-hanzi-animation-17" stroke-dasharray="318 636" stroke-linecap="round"></path>

      <clipPath id="make-me-a-hanzi-clip-18">
      <path d="M 1837 72 Q 1858 133 1887 154 Q 1903 173 1888 191 Q 1870 204 1817 227 Q 1799 234 1778 225 Q 1723 200 1617 172 C 1588 164 1587 138 1617 142 Q 1629 142 1771 176 Q 1786 180 1792 174 Q 1804 162 1783 73 C 1776 44 1827 44 1837 72 Z" fill="lightgray"></path>
      </clipPath>
      <path clip-path="url(#make-me-a-hanzi-clip-18)" d="M 1618 150 L 1633 161 L 1782 201 L 1804 201 L 1839 169 L 1817 100 L 1790 84 " fill="none" id="make-me-a-hanzi-animation-18" stroke-dasharray="474 948" stroke-linecap="round"></path>

      <clipPath id="make-me-a-hanzi-clip-19">
      <path d="M 1612 3 Q 1618 -3 1643 2 Q 1710 18 1856 33 Q 1866 34 1868 44 Q 1868 53 1837 72 C 1820 83 1812 81 1783 73 Q 1689 48 1615 35 C 1585 30 1584 14 1612 3 Z" fill="lightgray"></path>
      </clipPath>
      <path clip-path="url(#make-me-a-hanzi-clip-19)" d="M 1619 8 L 1639 21 L 1780 49 L 1830 52 L 1859 44 " fill="none" id="make-me-a-hanzi-animation-19" stroke-dasharray="376 752" stroke-linecap="round"></path>

      <clipPath id="make-me-a-hanzi-clip-20">
      <path d="M 2363 513 Q 2397 438 2354 214 Q 2338 153 2303 83 Q 2272 17 2206 -42 Q 2155 -81 2145 -95 Q 2142 -104 2156 -104 Q 2175 -105 2199 -90 Q 2251 -59 2285 -28 Q 2393 80 2430 314 Q 2448 440 2454 477 Q 2463 499 2440 513 Q 2386 544 2369 542 Q 2347 539 2363 513 Z" fill="lightgray"></path>
      </clipPath>
      <path clip-path="url(#make-me-a-hanzi-clip-20)" d="M 2370 527 L 2399 503 L 2412 486 L 2414 471 L 2410 389 L 2394 272 L 2364 156 L 2330 77 L 2281 2 L 2235 -43 L 2153 -97 " fill="none" id="make-me-a-hanzi-animation-20" stroke-dasharray="860 1720" stroke-linecap="round"></path>

      <clipPath id="make-me-a-hanzi-clip-21">
      <path d="M 2593 485 Q 2596 413 2583 195 Q 2565 -7 2618 -69 Q 2663 -123 2855 -122 Q 2937 -121 2998 -98 Q 3040 -85 3025 -54 Q 3000 3 2984 102 Q 2980 118 2974 126 Q 2964 135 2960 115 Q 2944 58 2929 15 Q 2922 -16 2894 -32 Q 2869 -59 2741 -51 Q 2668 -45 2647 -1 Q 2617 74 2654 408 Q 2663 493 2674 533 Q 2687 567 2598 618 Q 2576 633 2556 621 Q 2543 614 2566 581 Q 2593 541 2593 485 Z" fill="lightgray"></path>
      </clipPath>
      <path clip-path="url(#make-me-a-hanzi-clip-21)" d="M 2566 610 L 2595 589 L 2631 538 L 2605 98 L 2615 5 L 2640 -46 L 2677 -70 L 2700 -77 L 2780 -87 L 2877 -83 L 2941 -61 L 2961 -50 L 2962 -44 L 2971 91 L 2968 119 " fill="none" id="make-me-a-hanzi-animation-21" stroke-dasharray="1323 2646" stroke-linecap="round"></path>

</g>
</svg>
