<svg version="1.1" viewBox="0 0 2048 1024" xmlns="http://www.w3.org/2000/svg">
  <g stroke="lightgray" stroke-dasharray="1,1" stroke-width="1" transform="scale(4, 4)">
    <line x1="0" y1="0" x2="256" y2="256"></line>
    <line x1="256" y1="0" x2="0" y2="256"></line>
    <line x1="128" y1="0" x2="128" y2="256"></line>
    <line x1="0" y1="128" x2="256" y2="128"></line>
    <line x1="256" y1="0" x2="512" y2="256"></line>
    <line x1="512" y1="0" x2="256" y2="256"></line>
    <line x1="384" y1="0" x2="384" y2="256"></line>
    <line x1="256" y1="128" x2="512" y2="128"></line>
  </g>
<g transform="scale(1, -1) translate(0, -850)">
   <style type="text/css">
    @keyframes keyframes0 {
      from {
       stroke: black;
       stroke-dashoffset: 609;
       stroke-width: 128;
       }
       66% {
       animation-timing-function: step-end;
       stroke: black;
       stroke-dashoffset: 0;
       stroke-width: 128;
       }
       to {
       stroke: black;
       stroke-width: 1024;
       }
       }
       #make-me-a-hanzi-animation-0 {
         animation: keyframes0 0.745605s both;
         animation-delay: 0.000000s;
         animation-timing-function: linear;
       }
    @keyframes keyframes1 {
      from {
       stroke: black;
       stroke-dashoffset: 724;
       stroke-width: 128;
       }
       70% {
       animation-timing-function: step-end;
       stroke: black;
       stroke-dashoffset: 0;
       stroke-width: 128;
       }
       to {
       stroke: black;
       stroke-width: 1024;
       }
       }
       #make-me-a-hanzi-animation-1 {
         animation: keyframes1 0.839193s both;
         animation-delay: 0.745605s;
         animation-timing-function: linear;
       }
    @keyframes keyframes2 {
      from {
       stroke: black;
       stroke-dashoffset: 632;
       stroke-width: 128;
       }
       67% {
       animation-timing-function: step-end;
       stroke: black;
       stroke-dashoffset: 0;
       stroke-width: 128;
       }
       to {
       stroke: black;
       stroke-width: 1024;
       }
       }
       #make-me-a-hanzi-animation-2 {
         animation: keyframes2 0.764323s both;
         animation-delay: 1.584798s;
         animation-timing-function: linear;
       }
    @keyframes keyframes3 {
      from {
       stroke: black;
       stroke-dashoffset: 528;
       stroke-width: 128;
       }
       63% {
       animation-timing-function: step-end;
       stroke: black;
       stroke-dashoffset: 0;
       stroke-width: 128;
       }
       to {
       stroke: black;
       stroke-width: 1024;
       }
       }
       #make-me-a-hanzi-animation-3 {
         animation: keyframes3 0.679688s both;
         animation-delay: 2.349121s;
         animation-timing-function: linear;
       }
    @keyframes keyframes4 {
      from {
       stroke: black;
       stroke-dashoffset: 822;
       stroke-width: 128;
       }
       73% {
       animation-timing-function: step-end;
       stroke: black;
       stroke-dashoffset: 0;
       stroke-width: 128;
       }
       to {
       stroke: black;
       stroke-width: 1024;
       }
       }
       #make-me-a-hanzi-animation-4 {
         animation: keyframes4 0.918945s both;
         animation-delay: 3.028809s;
         animation-timing-function: linear;
       }
    @keyframes keyframes5 {
      from {
       stroke: black;
       stroke-dashoffset: 847;
       stroke-width: 128;
       }
       73% {
       animation-timing-function: step-end;
       stroke: black;
       stroke-dashoffset: 0;
       stroke-width: 128;
       }
       to {
       stroke: black;
       stroke-width: 1024;
       }
       }
       #make-me-a-hanzi-animation-5 {
         animation: keyframes5 0.939290s both;
         animation-delay: 3.947754s;
         animation-timing-function: linear;
       }
    @keyframes keyframes6 {
      from {
       stroke: black;
       stroke-dashoffset: 667;
       stroke-width: 128;
       }
       68% {
       animation-timing-function: step-end;
       stroke: black;
       stroke-dashoffset: 0;
       stroke-width: 128;
       }
       to {
       stroke: black;
       stroke-width: 1024;
       }
       }
       #make-me-a-hanzi-animation-6 {
         animation: keyframes6 0.792806s both;
         animation-delay: 4.887044s;
         animation-timing-function: linear;
       }
    @keyframes keyframes7 {
      from {
       stroke: black;
       stroke-dashoffset: 642;
       stroke-width: 128;
       }
       68% {
       animation-timing-function: step-end;
       stroke: black;
       stroke-dashoffset: 0;
       stroke-width: 128;
       }
       to {
       stroke: black;
       stroke-width: 1024;
       }
       }
       #make-me-a-hanzi-animation-7 {
         animation: keyframes7 0.772461s both;
         animation-delay: 5.679850s;
         animation-timing-function: linear;
       }
    @keyframes keyframes8 {
      from {
       stroke: black;
       stroke-dashoffset: 993;
       stroke-width: 128;
       }
       76% {
       animation-timing-function: step-end;
       stroke: black;
       stroke-dashoffset: 0;
       stroke-width: 128;
       }
       to {
       stroke: black;
       stroke-width: 1024;
       }
       }
       #make-me-a-hanzi-animation-8 {
         animation: keyframes8 1.058105s both;
         animation-delay: 6.452311s;
         animation-timing-function: linear;
       }
    @keyframes keyframes9 {
      from {
       stroke: black;
       stroke-dashoffset: 555;
       stroke-width: 128;
       }
       64% {
       animation-timing-function: step-end;
       stroke: black;
       stroke-dashoffset: 0;
       stroke-width: 128;
       }
       to {
       stroke: black;
       stroke-width: 1024;
       }
       }
       #make-me-a-hanzi-animation-9 {
         animation: keyframes9 0.701660s both;
         animation-delay: 7.510416s;
         animation-timing-function: linear;
       }
    @keyframes keyframes10 {
      from {
       stroke: black;
       stroke-dashoffset: 454;
       stroke-width: 128;
       }
       60% {
       animation-timing-function: step-end;
       stroke: black;
       stroke-dashoffset: 0;
       stroke-width: 128;
       }
       to {
       stroke: black;
       stroke-width: 1024;
       }
       }
       #make-me-a-hanzi-animation-10 {
         animation: keyframes10 0.619466s both;
         animation-delay: 8.212076s;
         animation-timing-function: linear;
       }
    @keyframes keyframes11 {
      from {
       stroke: black;
       stroke-dashoffset: 671;
       stroke-width: 128;
       }
       69% {
       animation-timing-function: step-end;
       stroke: black;
       stroke-dashoffset: 0;
       stroke-width: 128;
       }
       to {
       stroke: black;
       stroke-width: 1024;
       }
       }
       #make-me-a-hanzi-animation-11 {
         animation: keyframes11 0.796061s both;
         animation-delay: 8.831542s;
         animation-timing-function: linear;
       }
    @keyframes keyframes12 {
      from {
       stroke: black;
       stroke-dashoffset: 930;
       stroke-width: 128;
       }
       75% {
       animation-timing-function: step-end;
       stroke: black;
       stroke-dashoffset: 0;
       stroke-width: 128;
       }
       to {
       stroke: black;
       stroke-width: 1024;
       }
       }
       #make-me-a-hanzi-animation-12 {
         animation: keyframes12 1.006836s both;
         animation-delay: 9.627603s;
         animation-timing-function: linear;
       }
</style>
<path d="M 308.0 761.5 Q 321.0 722.5 238.0 619.5 Q 199.0 571.5 148.0 519.5 Q 138.0 510.5 134.0 505.5 Q 130.0 495.5 143.0 496.5 Q 191.0 496.5 329.0 647.5 Q 362.0 689.5 379.0 701.5 Q 389.0 710.5 387.0 723.5 Q 384.0 736.5 361.0 760.5 Q 339.0 779.5 320.0 782.5 Q 304.0 782.5 308.0 761.5 Z" fill="lightgray"></path> 
<path d="M 259.0 365.5 Q 385.0 506.5 387.0 511.5 Q 386.0 515.5 386.0 518.5 Q 385.0 531.5 360.0 556.5 Q 338.0 577.5 319.0 579.5 Q 301.0 580.5 306.0 558.5 Q 315.0 530.5 301.0 507.5 Q 258.0 434.5 200.0 367.5 Q 143.0 303.5 68.0 235.5 Q 58.0 228.5 55.0 221.5 Q 51.0 211.5 64.0 212.5 Q 97.0 212.5 200.0 309.5 Q 213.0 322.5 230.0 336.5 L 259.0 365.5 Z" fill="lightgray"></path> 
<path d="M 230.0 336.5 Q 260.0 276.5 233.0 103.5 Q 209.0 19.5 252.0 -24.5 Q 268.0 -40.5 280.0 -14.5 Q 295.0 25.5 294.0 70.5 Q 293.0 250.5 298.0 290.5 Q 305.0 317.5 296.0 327.5 Q 263.0 363.5 259.0 365.5 C 237.0 385.5 218.0 364.5 230.0 336.5 Z" fill="lightgray"></path> 
<path d="M 535.0 622.5 Q 495.0 612.5 525.0 595.5 Q 573.0 571.5 636.0 589.5 Q 700.0 605.5 767.0 622.5 Q 798.0 631.5 803.0 635.5 Q 812.0 645.5 806.0 654.5 Q 797.0 667.5 764.0 673.5 Q 730.0 677.5 696.0 663.5 Q 662.0 650.5 625.0 639.5 Q 583.0 629.5 535.0 622.5 Z" fill="lightgray"></path> 
<path d="M 701.0 420.5 Q 782.0 433.5 900.0 437.5 Q 960.0 437.5 967.0 449.5 Q 973.0 462.5 954.0 475.5 Q 897.0 514.5 856.0 503.5 Q 720.0 467.5 402.0 411.5 Q 380.0 408.5 397.0 390.5 Q 433.0 360.5 473.0 373.5 Q 596.0 413.5 652.0 413.5 L 701.0 420.5 Z" fill="lightgray"></path> 
<path d="M 621.0 12.5 Q 599.0 19.5 571.0 27.5 Q 558.0 31.5 559.0 23.5 Q 559.0 16.5 569.0 4.5 Q 630.0 -50.5 669.0 -96.5 Q 682.0 -106.5 696.0 -89.5 Q 735.0 -38.5 736.0 68.5 Q 726.0 218.5 735.0 355.5 Q 742.0 383.5 735.0 394.5 Q 728.0 404.5 701.0 420.5 C 676.0 436.5 643.0 442.5 652.0 413.5 Q 667.0 367.5 669.0 338.5 Q 669.0 31.5 668.0 26.5 Q 665.0 17.5 660.0 10.5 Q 648.0 3.5 621.0 12.5 Z" fill="lightgray"></path> 
<path d="M 1535.5 536.5 L 1657.5 557.5 L 1683.5 563.5 Q 1708.5 569.5 1712.5 575.5 Q 1720.5 581.5 1718.5 586.5 Q 1718.5 597.5 1696.5 602.5 Q 1675.5 607.5 1673.5 608.5 Q 1660.5 613.5 1631.5 603.5 L 1605.5 595.5 Q 1588.5 588.5 1567.5 585.5 L 1535.5 580.5 L 1481.5 570.5 L 1461.5 567.5 Q 1399.5 555.5 1356.5 552.5 Q 1330.5 548.5 1323.5 548.5 L 1303.5 546.5 Q 1284.5 544.5 1295.5 529.5 Q 1325.5 498.5 1423.5 518.5 L 1481.5 527.5 L 1535.5 536.5 Z" fill="lightgray"></path> 
<path d="M 1532.5 410.5 L 1535.5 536.5 L 1535.5 580.5 L 1536.5 657.5 Q 1536.5 669.5 1538.5 695.5 Q 1543.5 722.5 1549.5 732.5 Q 1555.5 741.5 1555.5 747.5 Q 1555.5 753.5 1550.5 757.5 Q 1545.5 761.5 1521.5 772.5 Q 1498.5 782.5 1482.5 782.5 Q 1466.5 782.5 1465.5 778.5 Q 1460.5 772.5 1462.5 770.5 Q 1462.5 769.5 1468.5 760.5 Q 1474.5 750.5 1477.5 730.5 L 1481.5 691.5 L 1483.5 646.5 L 1481.5 570.5 L 1481.5 527.5 L 1479.5 404.5 C 1479.5 374.5 1531.5 380.5 1532.5 410.5 Z" fill="lightgray"></path> 
<path d="M 1511.5 366.5 L 1613.5 376.5 Q 1641.5 380.5 1657.5 380.5 L 1706.5 384.5 L 1836.5 390.5 Q 1869.5 389.5 1879.5 396.5 Q 1897.5 410.5 1876.5 422.5 L 1853.5 436.5 Q 1812.5 451.5 1804.5 451.5 Q 1797.5 451.5 1769.5 444.5 L 1698.5 431.5 L 1618.5 420.5 L 1532.5 410.5 L 1479.5 404.5 L 1292.5 381.5 Q 1253.5 375.5 1208.5 373.5 L 1170.5 371.5 L 1155.5 369.5 Q 1141.5 368.5 1137.5 364.5 Q 1135.5 357.5 1136.5 354.5 Q 1138.5 347.5 1155.5 337.5 Q 1173.5 327.5 1181.5 324.5 L 1200.5 319.5 Q 1214.5 314.5 1221.5 316.5 L 1240.5 321.5 Q 1257.5 328.5 1291.5 336.5 L 1347.5 348.5 Q 1368.5 352.5 1385.5 354.5 L 1420.5 358.5 Q 1444.5 358.5 1465.5 362.5 L 1511.5 366.5 Z" fill="lightgray"></path> 
<path d="M 1529.5 73.5 L 1531.5 206.5 L 1531.5 232.5 L 1532.5 271.5 Q 1537.5 313.5 1543.5 329.5 Q 1549.5 344.5 1535.5 352.5 L 1528.5 358.5 L 1511.5 366.5 C 1484.5 379.5 1460.5 390.5 1465.5 362.5 L 1467.5 350.5 L 1471.5 338.5 Q 1474.5 331.5 1479.5 279.5 L 1481.5 98.5 C 1481.5 68.5 1529.5 43.5 1529.5 73.5 Z" fill="lightgray"></path> 
<path d="M 1531.5 206.5 L 1561.5 196.5 Q 1575.5 193.5 1606.5 199.5 L 1652.5 206.5 Q 1666.5 208.5 1680.5 211.5 Q 1694.5 213.5 1710.5 217.5 L 1731.5 222.5 Q 1748.5 227.5 1737.5 244.5 Q 1731.5 252.5 1713.5 258.5 Q 1696.5 264.5 1687.5 264.5 Q 1671.5 261.5 1662.5 257.5 L 1635.5 248.5 L 1560.5 235.5 Q 1548.5 233.5 1542.5 233.5 L 1531.5 232.5 C 1501.5 229.5 1503.5 215.5 1531.5 206.5 Z" fill="lightgray"></path> 
<path d="M 1328.5 176.5 L 1355.5 219.5 L 1376.5 243.5 Q 1385.5 252.5 1377.5 266.5 Q 1370.5 279.5 1361.5 284.5 Q 1348.5 297.5 1327.5 306.5 Q 1306.5 315.5 1299.5 308.5 Q 1296.5 298.5 1295.5 298.5 L 1294.5 270.5 Q 1292.5 239.5 1271.5 184.5 Q 1225.5 93.5 1204.5 65.5 L 1189.5 44.5 Q 1184.5 38.5 1181.5 33.5 Q 1178.5 28.5 1162.5 9.5 L 1133.5 -27.5 Q 1121.5 -39.5 1125.5 -44.5 Q 1130.5 -49.5 1142.5 -41.5 L 1159.5 -29.5 Q 1199.5 0.5 1235.5 43.5 Q 1272.5 85.5 1273.5 87.5 L 1317.5 155.5 L 1328.5 176.5 Z" fill="lightgray"></path> 
<path d="M 1933.5 -32.5 L 1889.5 -28.5 Q 1858.5 -26.5 1790.5 -16.5 Q 1722.5 -6.5 1652.5 20.5 L 1579.5 50.5 L 1539.5 68.5 Q 1534.5 68.5 1529.5 73.5 L 1481.5 98.5 L 1382.5 150.5 Q 1372.5 156.5 1357.5 162.5 L 1328.5 176.5 C 1301.5 189.5 1293.5 172.5 1317.5 155.5 L 1326.5 149.5 Q 1334.5 142.5 1367.5 122.5 Q 1400.5 101.5 1435.5 77.5 L 1496.5 34.5 L 1555.5 -3.5 L 1658.5 -74.5 Q 1677.5 -86.5 1701.5 -95.5 Q 1726.5 -105.5 1732.5 -105.5 Q 1739.5 -106.5 1779.5 -98.5 Q 1819.5 -90.5 1827.5 -87.5 Q 1855.5 -84.5 1916.5 -60.5 L 1943.5 -49.5 Q 1950.5 -47.5 1950.5 -40.5 Q 1950.5 -34.5 1933.5 -32.5 Z" fill="lightgray"></path> 
      <clipPath id="make-me-a-hanzi-clip-0">
      <path d="M 308.0 761.5 Q 321.0 722.5 238.0 619.5 Q 199.0 571.5 148.0 519.5 Q 138.0 510.5 134.0 505.5 Q 130.0 495.5 143.0 496.5 Q 191.0 496.5 329.0 647.5 Q 362.0 689.5 379.0 701.5 Q 389.0 710.5 387.0 723.5 Q 384.0 736.5 361.0 760.5 Q 339.0 779.5 320.0 782.5 Q 304.0 782.5 308.0 761.5 Z" fill="lightgray"></path>
      </clipPath>
      <path clip-path="url(#make-me-a-hanzi-clip-0)" d="M 320.0 768.5 L 338.0 744.5 L 344.0 722.5 L 324.0 689.5 L 227.0 571.5 L 182.0 529.5 L 142.0 504.5 " fill="none" id="make-me-a-hanzi-animation-0" stroke-dasharray="481 962" stroke-linecap="round"></path>

      <clipPath id="make-me-a-hanzi-clip-1">
      <path d="M 259.0 365.5 Q 385.0 506.5 387.0 511.5 Q 386.0 515.5 386.0 518.5 Q 385.0 531.5 360.0 556.5 Q 338.0 577.5 319.0 579.5 Q 301.0 580.5 306.0 558.5 Q 315.0 530.5 301.0 507.5 Q 258.0 434.5 200.0 367.5 Q 143.0 303.5 68.0 235.5 Q 58.0 228.5 55.0 221.5 Q 51.0 211.5 64.0 212.5 Q 97.0 212.5 200.0 309.5 Q 213.0 322.5 230.0 336.5 L 259.0 365.5 Z" fill="lightgray"></path>
      </clipPath>
      <path clip-path="url(#make-me-a-hanzi-clip-1)" d="M 317.0 566.5 L 336.0 542.5 L 343.0 515.5 L 310.0 465.5 L 252.0 390.5 L 162.0 297.5 L 106.0 248.5 L 63.0 220.5 " fill="none" id="make-me-a-hanzi-animation-1" stroke-dasharray="596 1192" stroke-linecap="round"></path>

      <clipPath id="make-me-a-hanzi-clip-2">
      <path d="M 230.0 336.5 Q 260.0 276.5 233.0 103.5 Q 209.0 19.5 252.0 -24.5 Q 268.0 -40.5 280.0 -14.5 Q 295.0 25.5 294.0 70.5 Q 293.0 250.5 298.0 290.5 Q 305.0 317.5 296.0 327.5 Q 263.0 363.5 259.0 365.5 C 237.0 385.5 218.0 364.5 230.0 336.5 Z" fill="lightgray"></path>
      </clipPath>
      <path clip-path="url(#make-me-a-hanzi-clip-2)" d="M 256.0 358.5 L 271.0 303.5 L 269.0 171.5 L 258.0 45.5 L 264.0 -14.5 " fill="none" id="make-me-a-hanzi-animation-2" stroke-dasharray="504 1008" stroke-linecap="round"></path>

      <clipPath id="make-me-a-hanzi-clip-3">
      <path d="M 535.0 622.5 Q 495.0 612.5 525.0 595.5 Q 573.0 571.5 636.0 589.5 Q 700.0 605.5 767.0 622.5 Q 798.0 631.5 803.0 635.5 Q 812.0 645.5 806.0 654.5 Q 797.0 667.5 764.0 673.5 Q 730.0 677.5 696.0 663.5 Q 662.0 650.5 625.0 639.5 Q 583.0 629.5 535.0 622.5 Z" fill="lightgray"></path>
      </clipPath>
      <path clip-path="url(#make-me-a-hanzi-clip-3)" d="M 527.0 610.5 L 592.0 606.5 L 734.0 644.5 L 794.0 646.5 " fill="none" id="make-me-a-hanzi-animation-3" stroke-dasharray="400 800" stroke-linecap="round"></path>

      <clipPath id="make-me-a-hanzi-clip-4">
      <path d="M 701.0 420.5 Q 782.0 433.5 900.0 437.5 Q 960.0 437.5 967.0 449.5 Q 973.0 462.5 954.0 475.5 Q 897.0 514.5 856.0 503.5 Q 720.0 467.5 402.0 411.5 Q 380.0 408.5 397.0 390.5 Q 433.0 360.5 473.0 373.5 Q 596.0 413.5 652.0 413.5 L 701.0 420.5 Z" fill="lightgray"></path>
      </clipPath>
      <path clip-path="url(#make-me-a-hanzi-clip-4)" d="M 400.0 400.5 L 449.0 394.5 L 576.0 424.5 L 875.0 471.5 L 957.0 455.5 " fill="none" id="make-me-a-hanzi-animation-4" stroke-dasharray="694 1388" stroke-linecap="round"></path>

      <clipPath id="make-me-a-hanzi-clip-5">
      <path d="M 621.0 12.5 Q 599.0 19.5 571.0 27.5 Q 558.0 31.5 559.0 23.5 Q 559.0 16.5 569.0 4.5 Q 630.0 -50.5 669.0 -96.5 Q 682.0 -106.5 696.0 -89.5 Q 735.0 -38.5 736.0 68.5 Q 726.0 218.5 735.0 355.5 Q 742.0 383.5 735.0 394.5 Q 728.0 404.5 701.0 420.5 C 676.0 436.5 643.0 442.5 652.0 413.5 Q 667.0 367.5 669.0 338.5 Q 669.0 31.5 668.0 26.5 Q 665.0 17.5 660.0 10.5 Q 648.0 3.5 621.0 12.5 Z" fill="lightgray"></path>
      </clipPath>
      <path clip-path="url(#make-me-a-hanzi-clip-5)" d="M 659.0 406.5 L 694.0 386.5 L 701.0 376.5 L 703.0 59.5 L 698.0 9.5 L 675.0 -33.5 L 631.0 -18.5 L 566.0 21.5 " fill="none" id="make-me-a-hanzi-animation-5" stroke-dasharray="719 1438" stroke-linecap="round"></path>

      <clipPath id="make-me-a-hanzi-clip-6">
      <path d="M 1535.5 536.5 L 1657.5 557.5 L 1683.5 563.5 Q 1708.5 569.5 1712.5 575.5 Q 1720.5 581.5 1718.5 586.5 Q 1718.5 597.5 1696.5 602.5 Q 1675.5 607.5 1673.5 608.5 Q 1660.5 613.5 1631.5 603.5 L 1605.5 595.5 Q 1588.5 588.5 1567.5 585.5 L 1535.5 580.5 L 1481.5 570.5 L 1461.5 567.5 Q 1399.5 555.5 1356.5 552.5 Q 1330.5 548.5 1323.5 548.5 L 1303.5 546.5 Q 1284.5 544.5 1295.5 529.5 Q 1325.5 498.5 1423.5 518.5 L 1481.5 527.5 L 1535.5 536.5 Z" fill="lightgray"></path>
      </clipPath>
      <path clip-path="url(#make-me-a-hanzi-clip-6)" d="M 1300.5 537.5 L 1332.5 530.5 L 1390.5 533.5 L 1645.5 581.5 L 1706.5 585.5 " fill="none" id="make-me-a-hanzi-animation-6" stroke-dasharray="539 1078" stroke-linecap="round"></path>

      <clipPath id="make-me-a-hanzi-clip-7">
      <path d="M 1532.5 410.5 L 1535.5 536.5 L 1535.5 580.5 L 1536.5 657.5 Q 1536.5 669.5 1538.5 695.5 Q 1543.5 722.5 1549.5 732.5 Q 1555.5 741.5 1555.5 747.5 Q 1555.5 753.5 1550.5 757.5 Q 1545.5 761.5 1521.5 772.5 Q 1498.5 782.5 1482.5 782.5 Q 1466.5 782.5 1465.5 778.5 Q 1460.5 772.5 1462.5 770.5 Q 1462.5 769.5 1468.5 760.5 Q 1474.5 750.5 1477.5 730.5 L 1481.5 691.5 L 1483.5 646.5 L 1481.5 570.5 L 1481.5 527.5 L 1479.5 404.5 C 1479.5 374.5 1531.5 380.5 1532.5 410.5 Z" fill="lightgray"></path>
      </clipPath>
      <path clip-path="url(#make-me-a-hanzi-clip-7)" d="M 1473.5 770.5 L 1494.5 758.5 L 1512.5 737.5 L 1507.5 434.5 L 1485.5 412.5 " fill="none" id="make-me-a-hanzi-animation-7" stroke-dasharray="514 1028" stroke-linecap="round"></path>

      <clipPath id="make-me-a-hanzi-clip-8">
      <path d="M 1511.5 366.5 L 1613.5 376.5 Q 1641.5 380.5 1657.5 380.5 L 1706.5 384.5 L 1836.5 390.5 Q 1869.5 389.5 1879.5 396.5 Q 1897.5 410.5 1876.5 422.5 L 1853.5 436.5 Q 1812.5 451.5 1804.5 451.5 Q 1797.5 451.5 1769.5 444.5 L 1698.5 431.5 L 1618.5 420.5 L 1532.5 410.5 L 1479.5 404.5 L 1292.5 381.5 Q 1253.5 375.5 1208.5 373.5 L 1170.5 371.5 L 1155.5 369.5 Q 1141.5 368.5 1137.5 364.5 Q 1135.5 357.5 1136.5 354.5 Q 1138.5 347.5 1155.5 337.5 Q 1173.5 327.5 1181.5 324.5 L 1200.5 319.5 Q 1214.5 314.5 1221.5 316.5 L 1240.5 321.5 Q 1257.5 328.5 1291.5 336.5 L 1347.5 348.5 Q 1368.5 352.5 1385.5 354.5 L 1420.5 358.5 Q 1444.5 358.5 1465.5 362.5 L 1511.5 366.5 Z" fill="lightgray"></path>
      </clipPath>
      <path clip-path="url(#make-me-a-hanzi-clip-8)" d="M 1144.5 358.5 L 1218.5 345.5 L 1364.5 371.5 L 1803.5 420.5 L 1874.5 409.5 " fill="none" id="make-me-a-hanzi-animation-8" stroke-dasharray="865 1730" stroke-linecap="round"></path>

      <clipPath id="make-me-a-hanzi-clip-9">
      <path d="M 1529.5 73.5 L 1531.5 206.5 L 1531.5 232.5 L 1532.5 271.5 Q 1537.5 313.5 1543.5 329.5 Q 1549.5 344.5 1535.5 352.5 L 1528.5 358.5 L 1511.5 366.5 C 1484.5 379.5 1460.5 390.5 1465.5 362.5 L 1467.5 350.5 L 1471.5 338.5 Q 1474.5 331.5 1479.5 279.5 L 1481.5 98.5 C 1481.5 68.5 1529.5 43.5 1529.5 73.5 Z" fill="lightgray"></path>
      </clipPath>
      <path clip-path="url(#make-me-a-hanzi-clip-9)" d="M 1473.5 357.5 L 1507.5 330.5 L 1505.5 113.5 L 1525.5 80.5 " fill="none" id="make-me-a-hanzi-animation-9" stroke-dasharray="427 854" stroke-linecap="round"></path>

      <clipPath id="make-me-a-hanzi-clip-10">
      <path d="M 1531.5 206.5 L 1561.5 196.5 Q 1575.5 193.5 1606.5 199.5 L 1652.5 206.5 Q 1666.5 208.5 1680.5 211.5 Q 1694.5 213.5 1710.5 217.5 L 1731.5 222.5 Q 1748.5 227.5 1737.5 244.5 Q 1731.5 252.5 1713.5 258.5 Q 1696.5 264.5 1687.5 264.5 Q 1671.5 261.5 1662.5 257.5 L 1635.5 248.5 L 1560.5 235.5 Q 1548.5 233.5 1542.5 233.5 L 1531.5 232.5 C 1501.5 229.5 1503.5 215.5 1531.5 206.5 Z" fill="lightgray"></path>
      </clipPath>
      <path clip-path="url(#make-me-a-hanzi-clip-10)" d="M 1537.5 226.5 L 1547.5 218.5 L 1578.5 216.5 L 1689.5 239.5 L 1729.5 234.5 " fill="none" id="make-me-a-hanzi-animation-10" stroke-dasharray="326 652" stroke-linecap="round"></path>

      <clipPath id="make-me-a-hanzi-clip-11">
      <path d="M 1328.5 176.5 L 1355.5 219.5 L 1376.5 243.5 Q 1385.5 252.5 1377.5 266.5 Q 1370.5 279.5 1361.5 284.5 Q 1348.5 297.5 1327.5 306.5 Q 1306.5 315.5 1299.5 308.5 Q 1296.5 298.5 1295.5 298.5 L 1294.5 270.5 Q 1292.5 239.5 1271.5 184.5 Q 1225.5 93.5 1204.5 65.5 L 1189.5 44.5 Q 1184.5 38.5 1181.5 33.5 Q 1178.5 28.5 1162.5 9.5 L 1133.5 -27.5 Q 1121.5 -39.5 1125.5 -44.5 Q 1130.5 -49.5 1142.5 -41.5 L 1159.5 -29.5 Q 1199.5 0.5 1235.5 43.5 Q 1272.5 85.5 1273.5 87.5 L 1317.5 155.5 L 1328.5 176.5 Z" fill="lightgray"></path>
      </clipPath>
      <path clip-path="url(#make-me-a-hanzi-clip-11)" d="M 1307.5 299.5 L 1333.5 255.5 L 1296.5 173.5 L 1229.5 64.5 L 1188.5 14.5 L 1129.5 -41.5 " fill="none" id="make-me-a-hanzi-animation-11" stroke-dasharray="543 1086" stroke-linecap="round"></path>

      <clipPath id="make-me-a-hanzi-clip-12">
      <path d="M 1933.5 -32.5 L 1889.5 -28.5 Q 1858.5 -26.5 1790.5 -16.5 Q 1722.5 -6.5 1652.5 20.5 L 1579.5 50.5 L 1539.5 68.5 Q 1534.5 68.5 1529.5 73.5 L 1481.5 98.5 L 1382.5 150.5 Q 1372.5 156.5 1357.5 162.5 L 1328.5 176.5 C 1301.5 189.5 1293.5 172.5 1317.5 155.5 L 1326.5 149.5 Q 1334.5 142.5 1367.5 122.5 Q 1400.5 101.5 1435.5 77.5 L 1496.5 34.5 L 1555.5 -3.5 L 1658.5 -74.5 Q 1677.5 -86.5 1701.5 -95.5 Q 1726.5 -105.5 1732.5 -105.5 Q 1739.5 -106.5 1779.5 -98.5 Q 1819.5 -90.5 1827.5 -87.5 Q 1855.5 -84.5 1916.5 -60.5 L 1943.5 -49.5 Q 1950.5 -47.5 1950.5 -40.5 Q 1950.5 -34.5 1933.5 -32.5 Z" fill="lightgray"></path>
      </clipPath>
      <path clip-path="url(#make-me-a-hanzi-clip-12)" d="M 1330.5 168.5 L 1337.5 157.5 L 1515.5 51.5 L 1699.5 -44.5 L 1759.5 -57.5 L 1943.5 -42.5 " fill="none" id="make-me-a-hanzi-animation-12" stroke-dasharray="802 1604" stroke-linecap="round"></path>

</g>
</svg>
