<svg version="1.1" viewBox="0 0 2048 1024" xmlns="http://www.w3.org/2000/svg">
  <g stroke="lightgray" stroke-dasharray="1,1" stroke-width="1" transform="scale(4, 4)">
    <line x1="0" y1="0" x2="256" y2="256"></line>
    <line x1="256" y1="0" x2="0" y2="256"></line>
    <line x1="128" y1="0" x2="128" y2="256"></line>
    <line x1="0" y1="128" x2="256" y2="128"></line>
    <line x1="256" y1="0" x2="512" y2="256"></line>
    <line x1="512" y1="0" x2="256" y2="256"></line>
    <line x1="384" y1="0" x2="384" y2="256"></line>
    <line x1="256" y1="128" x2="512" y2="128"></line>
  </g>
<g transform="scale(1, -1) translate(0, -850)">
   <style type="text/css">
    @keyframes keyframes0 {
      from {
       stroke: black;
       stroke-dashoffset: 380;
       stroke-width: 128;
       }
       55% {
       animation-timing-function: step-end;
       stroke: black;
       stroke-dashoffset: 0;
       stroke-width: 128;
       }
       to {
       stroke: black;
       stroke-width: 1024;
       }
       }
       #make-me-a-hanzi-animation-0 {
         animation: keyframes0 0.559245s both;
         animation-delay: 0.000000s;
         animation-timing-function: linear;
       }
    @keyframes keyframes1 {
      from {
       stroke: black;
       stroke-dashoffset: 1023;
       stroke-width: 128;
       }
       77% {
       animation-timing-function: step-end;
       stroke: black;
       stroke-dashoffset: 0;
       stroke-width: 128;
       }
       to {
       stroke: black;
       stroke-width: 1024;
       }
       }
       #make-me-a-hanzi-animation-1 {
         animation: keyframes1 1.082520s both;
         animation-delay: 0.559245s;
         animation-timing-function: linear;
       }
    @keyframes keyframes2 {
      from {
       stroke: black;
       stroke-dashoffset: 647;
       stroke-width: 128;
       }
       68% {
       animation-timing-function: step-end;
       stroke: black;
       stroke-dashoffset: 0;
       stroke-width: 128;
       }
       to {
       stroke: black;
       stroke-width: 1024;
       }
       }
       #make-me-a-hanzi-animation-2 {
         animation: keyframes2 0.776530s both;
         animation-delay: 1.641765s;
         animation-timing-function: linear;
       }
    @keyframes keyframes3 {
      from {
       stroke: black;
       stroke-dashoffset: 371;
       stroke-width: 128;
       }
       55% {
       animation-timing-function: step-end;
       stroke: black;
       stroke-dashoffset: 0;
       stroke-width: 128;
       }
       to {
       stroke: black;
       stroke-width: 1024;
       }
       }
       #make-me-a-hanzi-animation-3 {
         animation: keyframes3 0.551921s both;
         animation-delay: 2.418295s;
         animation-timing-function: linear;
       }
    @keyframes keyframes4 {
      from {
       stroke: black;
       stroke-dashoffset: 373;
       stroke-width: 128;
       }
       55% {
       animation-timing-function: step-end;
       stroke: black;
       stroke-dashoffset: 0;
       stroke-width: 128;
       }
       to {
       stroke: black;
       stroke-width: 1024;
       }
       }
       #make-me-a-hanzi-animation-4 {
         animation: keyframes4 0.553548s both;
         animation-delay: 2.970216s;
         animation-timing-function: linear;
       }
    @keyframes keyframes5 {
      from {
       stroke: black;
       stroke-dashoffset: 542;
       stroke-width: 128;
       }
       64% {
       animation-timing-function: step-end;
       stroke: black;
       stroke-dashoffset: 0;
       stroke-width: 128;
       }
       to {
       stroke: black;
       stroke-width: 1024;
       }
       }
       #make-me-a-hanzi-animation-5 {
         animation: keyframes5 0.691081s both;
         animation-delay: 3.523764s;
         animation-timing-function: linear;
       }
    @keyframes keyframes6 {
      from {
       stroke: black;
       stroke-dashoffset: 840;
       stroke-width: 128;
       }
       73% {
       animation-timing-function: step-end;
       stroke: black;
       stroke-dashoffset: 0;
       stroke-width: 128;
       }
       to {
       stroke: black;
       stroke-width: 1024;
       }
       }
       #make-me-a-hanzi-animation-6 {
         animation: keyframes6 0.933594s both;
         animation-delay: 4.214845s;
         animation-timing-function: linear;
       }
    @keyframes keyframes7 {
      from {
       stroke: black;
       stroke-dashoffset: 444;
       stroke-width: 128;
       }
       59% {
       animation-timing-function: step-end;
       stroke: black;
       stroke-dashoffset: 0;
       stroke-width: 128;
       }
       to {
       stroke: black;
       stroke-width: 1024;
       }
       }
       #make-me-a-hanzi-animation-7 {
         animation: keyframes7 0.611328s both;
         animation-delay: 5.148439s;
         animation-timing-function: linear;
       }
    @keyframes keyframes8 {
      from {
       stroke: black;
       stroke-dashoffset: 467;
       stroke-width: 128;
       }
       60% {
       animation-timing-function: step-end;
       stroke: black;
       stroke-dashoffset: 0;
       stroke-width: 128;
       }
       to {
       stroke: black;
       stroke-width: 1024;
       }
       }
       #make-me-a-hanzi-animation-8 {
         animation: keyframes8 0.630046s both;
         animation-delay: 5.759767s;
         animation-timing-function: linear;
       }
    @keyframes keyframes9 {
      from {
       stroke: black;
       stroke-dashoffset: 779;
       stroke-width: 128;
       }
       72% {
       animation-timing-function: step-end;
       stroke: black;
       stroke-dashoffset: 0;
       stroke-width: 128;
       }
       to {
       stroke: black;
       stroke-width: 1024;
       }
       }
       #make-me-a-hanzi-animation-9 {
         animation: keyframes9 0.883952s both;
         animation-delay: 6.389813s;
         animation-timing-function: linear;
       }
    @keyframes keyframes10 {
      from {
       stroke: black;
       stroke-dashoffset: 975;
       stroke-width: 128;
       }
       76% {
       animation-timing-function: step-end;
       stroke: black;
       stroke-dashoffset: 0;
       stroke-width: 128;
       }
       to {
       stroke: black;
       stroke-width: 1024;
       }
       }
       #make-me-a-hanzi-animation-10 {
         animation: keyframes10 1.043457s both;
         animation-delay: 7.273765s;
         animation-timing-function: linear;
       }
    @keyframes keyframes11 {
      from {
       stroke: black;
       stroke-dashoffset: 623;
       stroke-width: 128;
       }
       67% {
       animation-timing-function: step-end;
       stroke: black;
       stroke-dashoffset: 0;
       stroke-width: 128;
       }
       to {
       stroke: black;
       stroke-width: 1024;
       }
       }
       #make-me-a-hanzi-animation-11 {
         animation: keyframes11 0.756999s both;
         animation-delay: 8.317222s;
         animation-timing-function: linear;
       }
    @keyframes keyframes12 {
      from {
       stroke: black;
       stroke-dashoffset: 674;
       stroke-width: 128;
       }
       69% {
       animation-timing-function: step-end;
       stroke: black;
       stroke-dashoffset: 0;
       stroke-width: 128;
       }
       to {
       stroke: black;
       stroke-width: 1024;
       }
       }
       #make-me-a-hanzi-animation-12 {
         animation: keyframes12 0.798503s both;
         animation-delay: 9.074221s;
         animation-timing-function: linear;
       }
    @keyframes keyframes13 {
      from {
       stroke: black;
       stroke-dashoffset: 590;
       stroke-width: 128;
       }
       66% {
       animation-timing-function: step-end;
       stroke: black;
       stroke-dashoffset: 0;
       stroke-width: 128;
       }
       to {
       stroke: black;
       stroke-width: 1024;
       }
       }
       #make-me-a-hanzi-animation-13 {
         animation: keyframes13 0.730143s both;
         animation-delay: 9.872724s;
         animation-timing-function: linear;
       }
    @keyframes keyframes14 {
      from {
       stroke: black;
       stroke-dashoffset: 456;
       stroke-width: 128;
       }
       60% {
       animation-timing-function: step-end;
       stroke: black;
       stroke-dashoffset: 0;
       stroke-width: 128;
       }
       to {
       stroke: black;
       stroke-width: 1024;
       }
       }
       #make-me-a-hanzi-animation-14 {
         animation: keyframes14 0.621094s both;
         animation-delay: 10.602867s;
         animation-timing-function: linear;
       }
    @keyframes keyframes15 {
      from {
       stroke: black;
       stroke-dashoffset: 907;
       stroke-width: 128;
       }
       75% {
       animation-timing-function: step-end;
       stroke: black;
       stroke-dashoffset: 0;
       stroke-width: 128;
       }
       to {
       stroke: black;
       stroke-width: 1024;
       }
       }
       #make-me-a-hanzi-animation-15 {
         animation: keyframes15 0.988118s both;
         animation-delay: 11.223961s;
         animation-timing-function: linear;
       }
    @keyframes keyframes16 {
      from {
       stroke: black;
       stroke-dashoffset: 546;
       stroke-width: 128;
       }
       64% {
       animation-timing-function: step-end;
       stroke: black;
       stroke-dashoffset: 0;
       stroke-width: 128;
       }
       to {
       stroke: black;
       stroke-width: 1024;
       }
       }
       #make-me-a-hanzi-animation-16 {
         animation: keyframes16 0.694336s both;
         animation-delay: 12.212079s;
         animation-timing-function: linear;
       }
    @keyframes keyframes17 {
      from {
       stroke: black;
       stroke-dashoffset: 330;
       stroke-width: 128;
       }
       52% {
       animation-timing-function: step-end;
       stroke: black;
       stroke-dashoffset: 0;
       stroke-width: 128;
       }
       to {
       stroke: black;
       stroke-width: 1024;
       }
       }
       #make-me-a-hanzi-animation-17 {
         animation: keyframes17 0.518555s both;
         animation-delay: 12.906415s;
         animation-timing-function: linear;
       }
    @keyframes keyframes18 {
      from {
       stroke: black;
       stroke-dashoffset: 335;
       stroke-width: 128;
       }
       52% {
       animation-timing-function: step-end;
       stroke: black;
       stroke-dashoffset: 0;
       stroke-width: 128;
       }
       to {
       stroke: black;
       stroke-width: 1024;
       }
       }
       #make-me-a-hanzi-animation-18 {
         animation: keyframes18 0.522624s both;
         animation-delay: 13.424970s;
         animation-timing-function: linear;
       }
    @keyframes keyframes19 {
      from {
       stroke: black;
       stroke-dashoffset: 335;
       stroke-width: 128;
       }
       52% {
       animation-timing-function: step-end;
       stroke: black;
       stroke-dashoffset: 0;
       stroke-width: 128;
       }
       to {
       stroke: black;
       stroke-width: 1024;
       }
       }
       #make-me-a-hanzi-animation-19 {
         animation: keyframes19 0.522624s both;
         animation-delay: 13.947594s;
         animation-timing-function: linear;
       }
    @keyframes keyframes20 {
      from {
       stroke: black;
       stroke-dashoffset: 342;
       stroke-width: 128;
       }
       53% {
       animation-timing-function: step-end;
       stroke: black;
       stroke-dashoffset: 0;
       stroke-width: 128;
       }
       to {
       stroke: black;
       stroke-width: 1024;
       }
       }
       #make-me-a-hanzi-animation-20 {
         animation: keyframes20 0.528320s both;
         animation-delay: 14.470218s;
         animation-timing-function: linear;
       }
    @keyframes keyframes21 {
      from {
       stroke: black;
       stroke-dashoffset: 419;
       stroke-width: 128;
       }
       58% {
       animation-timing-function: step-end;
       stroke: black;
       stroke-dashoffset: 0;
       stroke-width: 128;
       }
       to {
       stroke: black;
       stroke-width: 1024;
       }
       }
       #make-me-a-hanzi-animation-21 {
         animation: keyframes21 0.590983s both;
         animation-delay: 14.998538s;
         animation-timing-function: linear;
       }
    @keyframes keyframes22 {
      from {
       stroke: black;
       stroke-dashoffset: 515;
       stroke-width: 128;
       }
       63% {
       animation-timing-function: step-end;
       stroke: black;
       stroke-dashoffset: 0;
       stroke-width: 128;
       }
       to {
       stroke: black;
       stroke-width: 1024;
       }
       }
       #make-me-a-hanzi-animation-22 {
         animation: keyframes22 0.669108s both;
         animation-delay: 15.589521s;
         animation-timing-function: linear;
       }
    @keyframes keyframes23 {
      from {
       stroke: black;
       stroke-dashoffset: 396;
       stroke-width: 128;
       }
       56% {
       animation-timing-function: step-end;
       stroke: black;
       stroke-dashoffset: 0;
       stroke-width: 128;
       }
       to {
       stroke: black;
       stroke-width: 1024;
       }
       }
       #make-me-a-hanzi-animation-23 {
         animation: keyframes23 0.572266s both;
         animation-delay: 16.258629s;
         animation-timing-function: linear;
       }
    @keyframes keyframes24 {
      from {
       stroke: black;
       stroke-dashoffset: 474;
       stroke-width: 128;
       }
       61% {
       animation-timing-function: step-end;
       stroke: black;
       stroke-dashoffset: 0;
       stroke-width: 128;
       }
       to {
       stroke: black;
       stroke-width: 1024;
       }
       }
       #make-me-a-hanzi-animation-24 {
         animation: keyframes24 0.635742s both;
         animation-delay: 16.830895s;
         animation-timing-function: linear;
       }
    @keyframes keyframes25 {
      from {
       stroke: black;
       stroke-dashoffset: 343;
       stroke-width: 128;
       }
       53% {
       animation-timing-function: step-end;
       stroke: black;
       stroke-dashoffset: 0;
       stroke-width: 128;
       }
       to {
       stroke: black;
       stroke-width: 1024;
       }
       }
       #make-me-a-hanzi-animation-25 {
         animation: keyframes25 0.529134s both;
         animation-delay: 17.466637s;
         animation-timing-function: linear;
       }
    @keyframes keyframes26 {
      from {
       stroke: black;
       stroke-dashoffset: 433;
       stroke-width: 128;
       }
       58% {
       animation-timing-function: step-end;
       stroke: black;
       stroke-dashoffset: 0;
       stroke-width: 128;
       }
       to {
       stroke: black;
       stroke-width: 1024;
       }
       }
       #make-me-a-hanzi-animation-26 {
         animation: keyframes26 0.602376s both;
         animation-delay: 17.995771s;
         animation-timing-function: linear;
       }
    @keyframes keyframes27 {
      from {
       stroke: black;
       stroke-dashoffset: 578;
       stroke-width: 128;
       }
       65% {
       animation-timing-function: step-end;
       stroke: black;
       stroke-dashoffset: 0;
       stroke-width: 128;
       }
       to {
       stroke: black;
       stroke-width: 1024;
       }
       }
       #make-me-a-hanzi-animation-27 {
         animation: keyframes27 0.720378s both;
         animation-delay: 18.598147s;
         animation-timing-function: linear;
       }
    @keyframes keyframes28 {
      from {
       stroke: black;
       stroke-dashoffset: 481;
       stroke-width: 128;
       }
       61% {
       animation-timing-function: step-end;
       stroke: black;
       stroke-dashoffset: 0;
       stroke-width: 128;
       }
       to {
       stroke: black;
       stroke-width: 1024;
       }
       }
       #make-me-a-hanzi-animation-28 {
         animation: keyframes28 0.641439s both;
         animation-delay: 19.318525s;
         animation-timing-function: linear;
       }
    @keyframes keyframes29 {
      from {
       stroke: black;
       stroke-dashoffset: 827;
       stroke-width: 128;
       }
       73% {
       animation-timing-function: step-end;
       stroke: black;
       stroke-dashoffset: 0;
       stroke-width: 128;
       }
       to {
       stroke: black;
       stroke-width: 1024;
       }
       }
       #make-me-a-hanzi-animation-29 {
         animation: keyframes29 0.923014s both;
         animation-delay: 19.959964s;
         animation-timing-function: linear;
       }
    @keyframes keyframes30 {
      from {
       stroke: black;
       stroke-dashoffset: 750;
       stroke-width: 128;
       }
       71% {
       animation-timing-function: step-end;
       stroke: black;
       stroke-dashoffset: 0;
       stroke-width: 128;
       }
       to {
       stroke: black;
       stroke-width: 1024;
       }
       }
       #make-me-a-hanzi-animation-30 {
         animation: keyframes30 0.860352s both;
         animation-delay: 20.882978s;
         animation-timing-function: linear;
       }
    @keyframes keyframes31 {
      from {
       stroke: black;
       stroke-dashoffset: 452;
       stroke-width: 128;
       }
       60% {
       animation-timing-function: step-end;
       stroke: black;
       stroke-dashoffset: 0;
       stroke-width: 128;
       }
       to {
       stroke: black;
       stroke-width: 1024;
       }
       }
       #make-me-a-hanzi-animation-31 {
         animation: keyframes31 0.617839s both;
         animation-delay: 21.743330s;
         animation-timing-function: linear;
       }
    @keyframes keyframes32 {
      from {
       stroke: black;
       stroke-dashoffset: 580;
       stroke-width: 128;
       }
       65% {
       animation-timing-function: step-end;
       stroke: black;
       stroke-dashoffset: 0;
       stroke-width: 128;
       }
       to {
       stroke: black;
       stroke-width: 1024;
       }
       }
       #make-me-a-hanzi-animation-32 {
         animation: keyframes32 0.722005s both;
         animation-delay: 22.361169s;
         animation-timing-function: linear;
       }
    @keyframes keyframes33 {
      from {
       stroke: black;
       stroke-dashoffset: 453;
       stroke-width: 128;
       }
       60% {
       animation-timing-function: step-end;
       stroke: black;
       stroke-dashoffset: 0;
       stroke-width: 128;
       }
       to {
       stroke: black;
       stroke-width: 1024;
       }
       }
       #make-me-a-hanzi-animation-33 {
         animation: keyframes33 0.618652s both;
         animation-delay: 23.083174s;
         animation-timing-function: linear;
       }
</style>
<path d="M 257.5 756.0 L 215.5 764.0 Q 198.5 760.0 212.5 748.0 Q 257.5 686.0 280.5 666.0 Q 293.5 652.0 308.5 652.0 Q 335.5 655.0 337.5 690.0 Q 337.5 708.0 332.5 717.0 Q 327.5 726.0 313.5 735.0 Q 294.5 743.0 257.5 756.0 Z" fill="lightgray"></path> 
<path d="M 255.5 354.0 L 276.5 381.0 L 303.5 421.0 Q 339.5 474.0 372.5 500.0 Q 385.5 514.0 385.5 519.0 Q 386.5 524.0 374.5 538.0 Q 363.5 551.0 340.5 561.0 Q 318.5 570.0 314.5 569.0 Q 297.5 563.0 270.5 550.0 Q 244.5 537.0 194.5 522.0 L 141.5 510.0 Q 113.5 503.0 92.5 502.0 L 49.5 497.0 Q 46.5 497.0 46.5 490.0 Q 42.5 484.0 55.5 475.0 Q 69.5 465.0 86.5 459.0 Q 103.5 453.0 106.5 453.0 Q 110.5 453.0 127.5 460.0 Q 143.5 465.0 154.5 470.0 L 288.5 518.0 Q 303.5 522.0 295.5 502.0 Q 291.5 494.0 288.5 490.0 L 282.5 481.0 Q 218.5 386.0 174.5 325.0 L 129.5 268.0 Q 119.5 255.0 89.5 225.0 Q 60.5 195.0 51.5 188.0 L 34.5 172.0 Q 23.5 165.0 32.5 156.0 Q 36.5 156.0 43.5 160.0 L 62.5 169.0 Q 77.5 177.0 97.5 192.0 Q 142.5 222.0 160.5 244.0 Q 178.5 265.0 186.5 271.0 L 201.5 286.0 L 232.5 324.0 L 255.5 354.0 Z" fill="lightgray"></path> 
<path d="M 284.5 324.0 L 272.5 340.0 Q 271.5 340.0 269.5 342.0 L 255.5 354.0 C 232.5 374.0 229.5 354.0 232.5 324.0 L 234.5 301.0 Q 234.5 297.0 236.5 293.0 L 236.5 234.0 L 232.5 147.0 L 222.5 83.0 Q 222.5 80.0 213.5 54.0 Q 209.5 31.0 209.5 28.0 Q 205.5 20.0 219.5 -17.0 Q 233.5 -54.0 246.5 -54.0 Q 254.5 -54.0 266.5 -33.0 Q 278.5 -12.0 278.5 6.0 L 282.5 26.0 L 278.5 86.0 L 282.5 232.0 Q 282.5 249.0 288.5 283.0 Q 292.5 293.0 292.5 296.0 C 296.5 308.0 296.5 308.0 284.5 324.0 Z" fill="lightgray"></path> 
<path d="M 310.5 318.0 L 317.5 321.0 Q 318.5 321.0 324.5 326.0 Q 331.5 331.0 334.5 332.0 L 367.5 352.0 L 393.5 366.0 L 402.5 371.0 Q 416.5 380.0 387.5 406.0 Q 385.5 406.0 379.5 413.0 Q 373.5 419.0 370.5 419.0 Q 362.5 424.0 358.5 424.0 L 349.5 421.0 Q 346.5 415.0 344.5 406.0 Q 335.5 371.0 303.5 332.0 L 296.5 322.0 C 286.5 308.0 286.5 308.0 310.5 318.0 Z" fill="lightgray"></path> 
<path d="M 292.5 296.0 L 305.5 279.0 L 354.5 224.0 Q 362.5 216.0 371.5 216.0 Q 389.5 216.0 393.5 236.0 Q 398.5 256.0 385.5 272.0 Q 367.5 298.0 334.5 310.0 L 310.5 318.0 L 296.5 322.0 L 284.5 324.0 C 269.5 327.0 274.5 320.0 292.5 296.0 Z" fill="lightgray"></path> 
<path d="M 531.5 422.0 L 522.5 493.0 L 513.5 524.0 L 498.5 611.0 C 494.5 636.0 494.5 636.0 487.5 638.0 L 463.5 644.0 Q 454.5 646.0 442.5 646.0 Q 421.5 648.0 421.5 635.0 Q 420.5 631.0 431.5 622.0 Q 447.5 611.0 459.5 582.0 L 464.5 561.0 L 488.5 425.0 Q 495.5 367.0 513.5 367.0 Q 519.5 366.0 524.5 377.0 L 530.5 388.0 L 531.5 422.0 Z" fill="lightgray"></path> 
<path d="M 765.5 526.0 L 748.5 432.0 L 746.5 404.0 L 751.5 391.0 Q 750.5 388.0 764.5 386.0 Q 786.5 382.0 799.5 432.0 L 839.5 572.0 Q 845.5 601.0 863.5 622.0 Q 873.5 631.0 873.5 636.0 Q 871.5 649.0 847.5 668.0 Q 845.5 668.0 835.5 675.0 L 823.5 684.0 L 803.5 692.0 Q 786.5 698.0 781.5 698.0 Q 777.5 697.0 766.5 690.0 Q 755.5 683.0 734.5 680.0 Q 714.5 674.0 676.5 668.0 L 624.5 658.0 L 487.5 638.0 C 457.5 634.0 468.5 606.0 498.5 611.0 L 590.5 626.0 L 633.5 632.0 L 737.5 645.0 Q 772.5 650.0 776.5 638.0 Q 778.5 634.0 776.5 617.0 L 765.5 526.0 Z" fill="lightgray"></path> 
<path d="M 650.5 507.0 L 718.5 519.0 Q 758.5 529.0 740.5 544.0 Q 723.5 558.0 698.5 555.0 L 652.5 546.0 L 602.5 536.0 Q 553.5 530.0 545.5 525.0 Q 521.5 512.0 557.5 500.0 Q 573.5 495.0 581.5 496.0 L 602.5 500.0 L 650.5 507.0 Z" fill="lightgray"></path> 
<path d="M 748.5 432.0 L 734.5 436.0 L 706.5 440.0 L 650.5 434.0 L 602.5 428.0 L 564.5 422.0 L 531.5 422.0 C 501.5 422.0 500.5 387.0 530.5 388.0 L 599.5 391.0 L 649.5 396.0 L 746.5 404.0 C 776.5 406.0 777.5 424.0 748.5 432.0 Z" fill="lightgray"></path> 
<path d="M 462.5 255.0 L 499.5 266.0 L 563.5 277.0 Q 577.5 278.0 585.5 280.0 L 656.5 286.0 L 675.5 288.0 L 797.5 294.0 L 849.5 298.0 L 876.5 298.0 Q 924.5 302.0 924.5 314.0 Q 926.5 318.0 920.5 323.0 Q 915.5 328.0 911.5 331.0 L 904.5 336.0 Q 900.5 338.0 879.5 345.0 Q 858.5 352.0 848.5 351.0 Q 839.5 350.0 827.5 346.0 Q 816.5 342.0 788.5 338.0 L 738.5 330.0 L 648.5 321.0 L 600.5 316.0 L 589.5 315.0 Q 535.5 307.0 442.5 300.0 L 409.5 298.0 L 400.5 296.0 Q 392.5 297.0 391.5 293.0 Q 388.5 285.0 410.5 272.0 L 427.5 263.0 Q 455.5 253.0 462.5 255.0 Z" fill="lightgray"></path> 
<path d="M 650.5 434.0 L 650.5 507.0 L 652.5 546.0 L 654.5 564.0 Q 654.5 568.0 656.5 582.0 L 664.5 611.0 Q 664.5 615.0 658.5 622.0 Q 652.5 628.0 633.5 632.0 C 605.5 642.0 584.5 649.0 590.5 626.0 L 595.5 610.0 L 599.5 583.0 L 602.5 536.0 L 602.5 500.0 L 602.5 428.0 L 599.5 391.0 L 600.5 316.0 L 602.5 214.0 L 597.5 57.0 Q 596.5 43.0 592.5 20.0 Q 589.5 -3.0 589.5 -21.0 Q 589.5 -40.0 601.5 -63.0 Q 614.5 -86.0 618.5 -87.0 Q 622.5 -88.0 632.5 -78.0 Q 652.5 -58.0 652.5 8.0 L 649.5 71.0 L 648.5 256.0 L 648.5 321.0 L 649.5 396.0 L 650.5 434.0 Z" fill="lightgray"></path> 
<path d="M 585.5 280.0 L 571.5 255.0 L 540.5 210.0 L 495.5 156.0 Q 473.5 132.0 454.5 117.0 Q 429.5 95.0 400.5 74.0 L 355.5 40.0 L 341.5 32.0 Q 334.5 27.0 333.5 23.0 Q 332.5 18.0 345.5 21.0 L 366.5 27.0 Q 397.5 36.0 439.5 60.0 Q 516.5 107.0 560.5 162.0 L 602.5 214.0 C 661.5 287.0 600.5 306.0 585.5 280.0 Z" fill="lightgray"></path> 
<path d="M 648.5 256.0 L 732.5 140.0 Q 784.5 74.0 796.5 62.0 L 804.5 54.0 Q 825.5 35.0 847.5 30.0 Q 870.5 25.0 949.5 44.0 L 983.5 52.0 Q 1000.5 61.0 980.5 69.0 L 916.5 94.0 Q 889.5 105.0 869.5 114.0 L 817.5 144.0 Q 764.5 176.0 721.5 219.0 L 677.5 262.0 Q 657.5 284.0 656.5 286.0 C 637.5 309.0 624.5 289.0 648.5 256.0 Z" fill="lightgray"></path> 
<path d="M 1480.5 724.0 Q 1642.5 755.0 1644.5 756.0 Q 1651.5 763.0 1648.5 771.0 Q 1642.5 783.0 1616.5 790.0 Q 1597.5 796.0 1490.5 769.0 Q 1370.5 751.0 1320.5 747.0 Q 1286.5 743.0 1309.5 727.0 Q 1346.5 703.0 1411.5 715.0 Q 1424.5 718.0 1440.5 718.0 L 1480.5 724.0 Z" fill="lightgray"></path> 
<path d="M 1239.5 627.0 Q 1227.5 649.0 1216.5 656.0 Q 1198.5 669.0 1197.5 645.0 Q 1201.5 615.0 1169.5 567.0 Q 1127.5 513.0 1147.5 469.0 Q 1148.5 463.0 1153.5 457.0 Q 1168.5 432.0 1186.5 459.0 Q 1202.5 484.0 1215.5 524.0 Q 1234.5 597.0 1241.5 603.0 C 1247.5 613.0 1247.5 613.0 1239.5 627.0 Z" fill="lightgray"></path> 
<path d="M 1496.5 632.0 Q 1680.5 662.0 1713.5 654.0 Q 1729.5 651.0 1729.5 645.0 Q 1729.5 641.0 1690.5 583.0 Q 1681.5 571.0 1687.5 566.0 Q 1693.5 562.0 1710.5 570.0 Q 1765.5 595.0 1808.5 599.0 Q 1844.5 603.0 1844.5 612.0 Q 1843.5 622.0 1780.5 680.0 Q 1756.5 699.0 1689.5 688.0 Q 1590.5 678.0 1498.5 661.0 L 1453.5 655.0 Q 1407.5 651.0 1353.5 641.0 Q 1299.5 632.0 1245.5 628.0 Q 1241.5 628.0 1239.5 627.0 C 1209.5 624.0 1214.5 616.0 1241.5 603.0 Q 1265.5 585.0 1306.5 594.0 Q 1405.5 625.0 1455.5 625.0 L 1496.5 632.0 Z" fill="lightgray"></path> 
<path d="M 1455.5 625.0 Q 1455.5 580.0 1443.5 493.0 Q 1436.5 466.0 1459.5 432.0 Q 1466.5 423.0 1475.5 432.0 Q 1496.5 462.0 1494.5 502.0 Q 1493.5 530.0 1496.5 617.0 Q 1496.5 624.0 1496.5 632.0 L 1498.5 661.0 Q 1499.5 676.0 1502.5 690.0 Q 1508.5 709.0 1491.5 718.0 Q 1487.5 722.0 1480.5 724.0 C 1453.5 737.0 1430.5 746.0 1440.5 718.0 Q 1452.5 688.0 1453.5 655.0 L 1455.5 625.0 Z" fill="lightgray"></path> 
<path d="M 1318.5 553.0 Q 1376.5 520.0 1394.5 527.0 Q 1404.5 530.0 1403.5 544.0 Q 1400.5 554.0 1388.5 565.0 Q 1363.5 584.0 1313.5 572.0 Q 1306.5 571.0 1309.5 563.0 Q 1310.5 557.0 1318.5 553.0 Z" fill="lightgray"></path> 
<path d="M 1302.5 472.0 Q 1365.5 439.0 1381.5 443.0 Q 1391.5 446.0 1391.5 461.0 Q 1388.5 471.0 1376.5 483.0 Q 1363.5 493.0 1343.5 492.0 Q 1310.5 495.0 1298.5 493.0 Q 1291.5 492.0 1293.5 483.0 Q 1294.5 476.0 1302.5 472.0 Z" fill="lightgray"></path> 
<path d="M 1558.5 580.0 Q 1621.5 547.0 1637.5 551.0 Q 1647.5 554.0 1647.5 569.0 Q 1644.5 579.0 1632.5 591.0 Q 1619.5 601.0 1599.5 600.0 Q 1566.5 603.0 1554.5 601.0 Q 1547.5 600.0 1549.5 591.0 Q 1550.5 584.0 1558.5 580.0 Z" fill="lightgray"></path> 
<path d="M 1552.5 500.0 Q 1615.5 458.0 1633.5 460.0 Q 1643.5 461.0 1644.5 476.0 Q 1643.5 486.0 1632.5 498.0 Q 1620.5 511.0 1598.5 513.0 Q 1564.5 520.0 1550.5 519.0 Q 1543.5 519.0 1545.5 510.0 Q 1545.5 504.0 1552.5 500.0 Z" fill="lightgray"></path> 
<path d="M 1222.5 386.0 Q 1213.5 390.0 1190.5 393.0 Q 1180.5 394.0 1178.5 391.0 Q 1174.5 387.0 1181.5 374.0 Q 1202.5 335.0 1217.5 270.0 Q 1221.5 251.0 1233.5 239.0 Q 1248.5 223.0 1251.5 235.0 Q 1252.5 239.0 1253.5 245.0 L 1252.5 271.0 Q 1251.5 274.0 1251.5 277.0 Q 1238.5 343.0 1234.5 364.0 C 1230.5 383.0 1230.5 383.0 1222.5 386.0 Z" fill="lightgray"></path> 
<path d="M 1375.5 296.0 Q 1393.5 351.0 1411.5 367.0 Q 1430.5 388.0 1411.5 400.0 Q 1395.5 410.0 1373.5 425.0 Q 1358.5 434.0 1342.5 425.0 Q 1302.5 401.0 1222.5 386.0 C 1193.5 380.0 1204.5 360.0 1234.5 364.0 Q 1243.5 365.0 1254.5 367.0 Q 1291.5 377.0 1322.5 383.0 Q 1343.5 387.0 1348.5 380.0 Q 1352.5 376.0 1346.5 351.0 Q 1340.5 326.0 1331.5 294.0 C 1323.5 265.0 1365.5 268.0 1375.5 296.0 Z" fill="lightgray"></path> 
<path d="M 1297.5 253.0 Q 1331.5 260.0 1390.5 269.0 Q 1397.5 270.0 1399.5 278.0 Q 1399.5 284.0 1375.5 296.0 C 1362.5 303.0 1360.5 302.0 1331.5 294.0 Q 1285.5 281.0 1252.5 271.0 C 1223.5 262.0 1223.5 244.0 1253.5 245.0 Q 1259.5 245.0 1270.5 246.0 L 1297.5 253.0 Z" fill="lightgray"></path> 
<path d="M 1320.5 43.0 Q 1321.5 98.0 1325.5 144.0 L 1327.5 172.0 Q 1327.5 190.0 1329.5 207.0 Q 1335.5 222.0 1328.5 230.0 Q 1312.5 245.0 1297.5 253.0 C 1271.5 268.0 1259.5 274.0 1270.5 246.0 Q 1279.5 227.0 1283.5 157.0 Q 1283.5 115.0 1284.5 33.0 C 1284.5 3.0 1319.5 13.0 1320.5 43.0 Z" fill="lightgray"></path> 
<path d="M 1325.5 144.0 Q 1373.5 153.0 1409.5 161.0 Q 1428.5 165.0 1419.5 176.0 Q 1409.5 186.0 1388.5 189.0 Q 1369.5 190.0 1335.5 177.0 Q 1331.5 176.0 1327.5 172.0 C 1304.5 152.0 1296.5 138.0 1325.5 144.0 Z" fill="lightgray"></path> 
<path d="M 1229.5 19.0 Q 1213.5 130.0 1215.5 144.0 Q 1215.5 163.0 1203.5 171.0 Q 1184.5 183.0 1161.5 187.0 Q 1149.5 190.0 1143.5 184.0 Q 1139.5 180.0 1144.5 167.0 Q 1165.5 140.0 1197.5 12.0 C 1204.5 -17.0 1233.5 -11.0 1229.5 19.0 Z" fill="lightgray"></path> 
<path d="M 1197.5 12.0 Q 1143.5 0.0 1117.5 0.0 Q 1105.5 -1.0 1103.5 -10.0 Q 1102.5 -22.0 1109.5 -30.0 Q 1130.5 -45.0 1159.5 -63.0 Q 1168.5 -66.0 1179.5 -59.0 Q 1207.5 -38.0 1372.5 29.0 Q 1394.5 39.0 1411.5 50.0 Q 1423.5 57.0 1424.5 65.0 Q 1420.5 69.0 1408.5 68.0 Q 1365.5 56.0 1320.5 43.0 L 1284.5 33.0 Q 1256.5 29.0 1229.5 19.0 L 1197.5 12.0 Z" fill="lightgray"></path> 
<path d="M 1586.5 404.0 Q 1593.5 416.0 1589.5 423.0 Q 1585.5 433.0 1562.5 436.0 Q 1537.5 440.0 1528.5 436.0 Q 1521.5 433.0 1521.5 422.0 Q 1521.5 368.0 1424.5 249.0 Q 1409.5 233.0 1431.5 240.0 Q 1464.5 252.0 1509.5 300.0 Q 1509.5 301.0 1510.5 302.0 L 1523.5 316.0 Q 1542.5 340.0 1559.5 364.0 Q 1562.5 370.0 1565.5 374.0 L 1586.5 404.0 Z" fill="lightgray"></path> 
<path d="M 1584.5 242.0 Q 1506.5 160.0 1400.5 117.0 Q 1393.5 114.0 1392.5 110.0 Q 1393.5 106.0 1399.5 106.0 Q 1504.5 102.0 1617.5 216.0 L 1639.5 241.0 Q 1670.5 281.0 1705.5 337.0 Q 1720.5 359.0 1742.5 372.0 Q 1755.5 378.0 1756.5 385.0 Q 1756.5 395.0 1733.5 411.0 Q 1705.5 432.0 1694.5 433.0 Q 1684.5 433.0 1674.5 426.0 Q 1626.5 414.0 1586.5 404.0 C 1557.5 397.0 1535.5 372.0 1565.5 374.0 Q 1598.5 374.0 1639.5 389.0 Q 1658.5 393.0 1665.5 388.0 Q 1669.5 384.0 1651.5 342.0 Q 1629.5 291.0 1602.5 264.0 L 1584.5 242.0 Z" fill="lightgray"></path> 
<path d="M 1510.5 302.0 Q 1513.5 298.0 1584.5 242.0 L 1617.5 216.0 Q 1776.5 98.0 1807.5 92.0 Q 1873.5 92.0 1951.5 120.0 Q 1967.5 124.0 1968.5 129.0 Q 1969.5 135.0 1955.5 138.0 Q 1772.5 180.0 1729.5 198.0 Q 1698.5 208.0 1639.5 241.0 L 1602.5 264.0 Q 1587.5 279.0 1523.5 316.0 C 1497.5 331.0 1487.5 322.0 1510.5 302.0 Z" fill="lightgray"></path> 
<path d="M 1503.5 81.0 Q 1493.5 85.0 1469.5 91.0 Q 1459.5 94.0 1455.5 89.0 Q 1449.5 83.0 1456.5 69.0 Q 1478.5 20.0 1492.5 -59.0 Q 1493.5 -84.0 1508.5 -99.0 Q 1523.5 -120.0 1528.5 -105.0 Q 1532.5 -95.0 1532.5 -79.0 L 1529.5 -48.0 Q 1519.5 27.0 1517.5 52.0 C 1515.5 77.0 1515.5 77.0 1503.5 81.0 Z" fill="lightgray"></path> 
<path d="M 1710.5 -23.0 Q 1731.5 37.0 1758.5 55.0 Q 1773.5 71.0 1760.5 88.0 Q 1691.5 143.0 1652.5 118.0 Q 1595.5 99.0 1503.5 81.0 C 1474.5 75.0 1488.5 46.0 1517.5 52.0 Q 1526.5 53.0 1536.5 57.0 Q 1594.5 67.0 1652.5 78.0 Q 1667.5 82.0 1673.5 75.0 Q 1680.5 68.0 1679.5 52.0 Q 1672.5 12.0 1663.5 -22.0 C 1656.5 -51.0 1700.5 -51.0 1710.5 -23.0 Z" fill="lightgray"></path> 
<path d="M 1532.5 -79.0 Q 1538.5 -79.0 1546.5 -78.0 Q 1603.5 -66.0 1726.5 -58.0 Q 1736.5 -57.0 1737.5 -49.0 Q 1738.5 -42.0 1710.5 -23.0 C 1698.5 -15.0 1692.5 -16.0 1663.5 -22.0 Q 1588.5 -38.0 1529.5 -48.0 C 1499.5 -53.0 1502.5 -80.0 1532.5 -79.0 Z" fill="lightgray"></path> 
      <clipPath id="make-me-a-hanzi-clip-0">
      <path d="M 257.5 756.0 L 215.5 764.0 Q 198.5 760.0 212.5 748.0 Q 257.5 686.0 280.5 666.0 Q 293.5 652.0 308.5 652.0 Q 335.5 655.0 337.5 690.0 Q 337.5 708.0 332.5 717.0 Q 327.5 726.0 313.5 735.0 Q 294.5 743.0 257.5 756.0 Z" fill="lightgray"></path>
      </clipPath>
      <path clip-path="url(#make-me-a-hanzi-clip-0)" d="M 214.5 756.0 L 296.5 702.0 L 307.5 679.0 " fill="none" id="make-me-a-hanzi-animation-0" stroke-dasharray="252 504" stroke-linecap="round"></path>

      <clipPath id="make-me-a-hanzi-clip-1">
      <path d="M 255.5 354.0 L 276.5 381.0 L 303.5 421.0 Q 339.5 474.0 372.5 500.0 Q 385.5 514.0 385.5 519.0 Q 386.5 524.0 374.5 538.0 Q 363.5 551.0 340.5 561.0 Q 318.5 570.0 314.5 569.0 Q 297.5 563.0 270.5 550.0 Q 244.5 537.0 194.5 522.0 L 141.5 510.0 Q 113.5 503.0 92.5 502.0 L 49.5 497.0 Q 46.5 497.0 46.5 490.0 Q 42.5 484.0 55.5 475.0 Q 69.5 465.0 86.5 459.0 Q 103.5 453.0 106.5 453.0 Q 110.5 453.0 127.5 460.0 Q 143.5 465.0 154.5 470.0 L 288.5 518.0 Q 303.5 522.0 295.5 502.0 Q 291.5 494.0 288.5 490.0 L 282.5 481.0 Q 218.5 386.0 174.5 325.0 L 129.5 268.0 Q 119.5 255.0 89.5 225.0 Q 60.5 195.0 51.5 188.0 L 34.5 172.0 Q 23.5 165.0 32.5 156.0 Q 36.5 156.0 43.5 160.0 L 62.5 169.0 Q 77.5 177.0 97.5 192.0 Q 142.5 222.0 160.5 244.0 Q 178.5 265.0 186.5 271.0 L 201.5 286.0 L 232.5 324.0 L 255.5 354.0 Z" fill="lightgray"></path>
      </clipPath>
      <path clip-path="url(#make-me-a-hanzi-clip-1)" d="M 57.5 489.0 L 106.5 478.0 L 303.5 540.0 L 321.5 536.0 L 336.5 520.0 L 318.5 485.0 L 182.5 298.0 L 119.5 229.0 L 36.5 163.0 " fill="none" id="make-me-a-hanzi-animation-1" stroke-dasharray="895 1790" stroke-linecap="round"></path>

      <clipPath id="make-me-a-hanzi-clip-2">
      <path d="M 284.5 324.0 L 272.5 340.0 Q 271.5 340.0 269.5 342.0 L 255.5 354.0 C 232.5 374.0 229.5 354.0 232.5 324.0 L 234.5 301.0 Q 234.5 297.0 236.5 293.0 L 236.5 234.0 L 232.5 147.0 L 222.5 83.0 Q 222.5 80.0 213.5 54.0 Q 209.5 31.0 209.5 28.0 Q 205.5 20.0 219.5 -17.0 Q 233.5 -54.0 246.5 -54.0 Q 254.5 -54.0 266.5 -33.0 Q 278.5 -12.0 278.5 6.0 L 282.5 26.0 L 278.5 86.0 L 282.5 232.0 Q 282.5 249.0 288.5 283.0 Q 292.5 293.0 292.5 296.0 C 296.5 308.0 296.5 308.0 284.5 324.0 Z" fill="lightgray"></path>
      </clipPath>
      <path clip-path="url(#make-me-a-hanzi-clip-2)" d="M 255.5 346.0 L 264.5 297.0 L 245.5 39.0 L 246.5 -43.0 " fill="none" id="make-me-a-hanzi-animation-2" stroke-dasharray="519 1038" stroke-linecap="round"></path>

      <clipPath id="make-me-a-hanzi-clip-3">
      <path d="M 310.5 318.0 L 317.5 321.0 Q 318.5 321.0 324.5 326.0 Q 331.5 331.0 334.5 332.0 L 367.5 352.0 L 393.5 366.0 L 402.5 371.0 Q 416.5 380.0 387.5 406.0 Q 385.5 406.0 379.5 413.0 Q 373.5 419.0 370.5 419.0 Q 362.5 424.0 358.5 424.0 L 349.5 421.0 Q 346.5 415.0 344.5 406.0 Q 335.5 371.0 303.5 332.0 L 296.5 322.0 C 286.5 308.0 286.5 308.0 310.5 318.0 Z" fill="lightgray"></path>
      </clipPath>
      <path clip-path="url(#make-me-a-hanzi-clip-3)" d="M 358.5 410.0 L 368.5 385.0 L 304.5 324.0 " fill="none" id="make-me-a-hanzi-animation-3" stroke-dasharray="243 486" stroke-linecap="round"></path>

      <clipPath id="make-me-a-hanzi-clip-4">
      <path d="M 292.5 296.0 L 305.5 279.0 L 354.5 224.0 Q 362.5 216.0 371.5 216.0 Q 389.5 216.0 393.5 236.0 Q 398.5 256.0 385.5 272.0 Q 367.5 298.0 334.5 310.0 L 310.5 318.0 L 296.5 322.0 L 284.5 324.0 C 269.5 327.0 274.5 320.0 292.5 296.0 Z" fill="lightgray"></path>
      </clipPath>
      <path clip-path="url(#make-me-a-hanzi-clip-4)" d="M 289.5 318.0 L 343.5 277.0 L 372.5 237.0 " fill="none" id="make-me-a-hanzi-animation-4" stroke-dasharray="245 490" stroke-linecap="round"></path>

      <clipPath id="make-me-a-hanzi-clip-5">
      <path d="M 531.5 422.0 L 522.5 493.0 L 513.5 524.0 L 498.5 611.0 C 494.5 636.0 494.5 636.0 487.5 638.0 L 463.5 644.0 Q 454.5 646.0 442.5 646.0 Q 421.5 648.0 421.5 635.0 Q 420.5 631.0 431.5 622.0 Q 447.5 611.0 459.5 582.0 L 464.5 561.0 L 488.5 425.0 Q 495.5 367.0 513.5 367.0 Q 519.5 366.0 524.5 377.0 L 530.5 388.0 L 531.5 422.0 Z" fill="lightgray"></path>
      </clipPath>
      <path clip-path="url(#make-me-a-hanzi-clip-5)" d="M 431.5 636.0 L 469.5 617.0 L 477.5 598.0 L 510.5 427.0 L 513.5 378.0 " fill="none" id="make-me-a-hanzi-animation-5" stroke-dasharray="414 828" stroke-linecap="round"></path>

      <clipPath id="make-me-a-hanzi-clip-6">
      <path d="M 765.5 526.0 L 748.5 432.0 L 746.5 404.0 L 751.5 391.0 Q 750.5 388.0 764.5 386.0 Q 786.5 382.0 799.5 432.0 L 839.5 572.0 Q 845.5 601.0 863.5 622.0 Q 873.5 631.0 873.5 636.0 Q 871.5 649.0 847.5 668.0 Q 845.5 668.0 835.5 675.0 L 823.5 684.0 L 803.5 692.0 Q 786.5 698.0 781.5 698.0 Q 777.5 697.0 766.5 690.0 Q 755.5 683.0 734.5 680.0 Q 714.5 674.0 676.5 668.0 L 624.5 658.0 L 487.5 638.0 C 457.5 634.0 468.5 606.0 498.5 611.0 L 590.5 626.0 L 633.5 632.0 L 737.5 645.0 Q 772.5 650.0 776.5 638.0 Q 778.5 634.0 776.5 617.0 L 765.5 526.0 Z" fill="lightgray"></path>
      </clipPath>
      <path clip-path="url(#make-me-a-hanzi-clip-6)" d="M 495.5 634.0 L 507.5 626.0 L 519.5 627.0 L 772.5 667.0 L 787.5 667.0 L 808.5 652.0 L 820.5 635.0 L 774.5 428.0 L 763.5 403.0 " fill="none" id="make-me-a-hanzi-animation-6" stroke-dasharray="712 1424" stroke-linecap="round"></path>

      <clipPath id="make-me-a-hanzi-clip-7">
      <path d="M 650.5 507.0 L 718.5 519.0 Q 758.5 529.0 740.5 544.0 Q 723.5 558.0 698.5 555.0 L 652.5 546.0 L 602.5 536.0 Q 553.5 530.0 545.5 525.0 Q 521.5 512.0 557.5 500.0 Q 573.5 495.0 581.5 496.0 L 602.5 500.0 L 650.5 507.0 Z" fill="lightgray"></path>
      </clipPath>
      <path clip-path="url(#make-me-a-hanzi-clip-7)" d="M 550.5 512.0 L 706.5 537.0 L 736.5 535.0 " fill="none" id="make-me-a-hanzi-animation-7" stroke-dasharray="316 632" stroke-linecap="round"></path>

      <clipPath id="make-me-a-hanzi-clip-8">
      <path d="M 748.5 432.0 L 734.5 436.0 L 706.5 440.0 L 650.5 434.0 L 602.5 428.0 L 564.5 422.0 L 531.5 422.0 C 501.5 422.0 500.5 387.0 530.5 388.0 L 599.5 391.0 L 649.5 396.0 L 746.5 404.0 C 776.5 406.0 777.5 424.0 748.5 432.0 Z" fill="lightgray"></path>
      </clipPath>
      <path clip-path="url(#make-me-a-hanzi-clip-8)" d="M 537.5 393.0 L 546.5 405.0 L 673.5 418.0 L 730.5 420.0 L 738.5 412.0 " fill="none" id="make-me-a-hanzi-animation-8" stroke-dasharray="339 678" stroke-linecap="round"></path>

      <clipPath id="make-me-a-hanzi-clip-9">
      <path d="M 462.5 255.0 L 499.5 266.0 L 563.5 277.0 Q 577.5 278.0 585.5 280.0 L 656.5 286.0 L 675.5 288.0 L 797.5 294.0 L 849.5 298.0 L 876.5 298.0 Q 924.5 302.0 924.5 314.0 Q 926.5 318.0 920.5 323.0 Q 915.5 328.0 911.5 331.0 L 904.5 336.0 Q 900.5 338.0 879.5 345.0 Q 858.5 352.0 848.5 351.0 Q 839.5 350.0 827.5 346.0 Q 816.5 342.0 788.5 338.0 L 738.5 330.0 L 648.5 321.0 L 600.5 316.0 L 589.5 315.0 Q 535.5 307.0 442.5 300.0 L 409.5 298.0 L 400.5 296.0 Q 392.5 297.0 391.5 293.0 Q 388.5 285.0 410.5 272.0 L 427.5 263.0 Q 455.5 253.0 462.5 255.0 Z" fill="lightgray"></path>
      </clipPath>
      <path clip-path="url(#make-me-a-hanzi-clip-9)" d="M 397.5 290.0 L 459.5 278.0 L 586.5 298.0 L 852.5 325.0 L 915.5 315.0 " fill="none" id="make-me-a-hanzi-animation-9" stroke-dasharray="651 1302" stroke-linecap="round"></path>

      <clipPath id="make-me-a-hanzi-clip-10">
      <path d="M 650.5 434.0 L 650.5 507.0 L 652.5 546.0 L 654.5 564.0 Q 654.5 568.0 656.5 582.0 L 664.5 611.0 Q 664.5 615.0 658.5 622.0 Q 652.5 628.0 633.5 632.0 C 605.5 642.0 584.5 649.0 590.5 626.0 L 595.5 610.0 L 599.5 583.0 L 602.5 536.0 L 602.5 500.0 L 602.5 428.0 L 599.5 391.0 L 600.5 316.0 L 602.5 214.0 L 597.5 57.0 Q 596.5 43.0 592.5 20.0 Q 589.5 -3.0 589.5 -21.0 Q 589.5 -40.0 601.5 -63.0 Q 614.5 -86.0 618.5 -87.0 Q 622.5 -88.0 632.5 -78.0 Q 652.5 -58.0 652.5 8.0 L 649.5 71.0 L 648.5 256.0 L 648.5 321.0 L 649.5 396.0 L 650.5 434.0 Z" fill="lightgray"></path>
      </clipPath>
      <path clip-path="url(#make-me-a-hanzi-clip-10)" d="M 598.5 624.0 L 629.5 600.0 L 619.5 -80.0 " fill="none" id="make-me-a-hanzi-animation-10" stroke-dasharray="847 1694" stroke-linecap="round"></path>

      <clipPath id="make-me-a-hanzi-clip-11">
      <path d="M 585.5 280.0 L 571.5 255.0 L 540.5 210.0 L 495.5 156.0 Q 473.5 132.0 454.5 117.0 Q 429.5 95.0 400.5 74.0 L 355.5 40.0 L 341.5 32.0 Q 334.5 27.0 333.5 23.0 Q 332.5 18.0 345.5 21.0 L 366.5 27.0 Q 397.5 36.0 439.5 60.0 Q 516.5 107.0 560.5 162.0 L 602.5 214.0 C 661.5 287.0 600.5 306.0 585.5 280.0 Z" fill="lightgray"></path>
      </clipPath>
      <path clip-path="url(#make-me-a-hanzi-clip-11)" d="M 593.5 274.0 L 578.5 222.0 L 511.5 140.0 L 438.5 79.0 L 340.5 25.0 " fill="none" id="make-me-a-hanzi-animation-11" stroke-dasharray="495 990" stroke-linecap="round"></path>

      <clipPath id="make-me-a-hanzi-clip-12">
      <path d="M 648.5 256.0 L 732.5 140.0 Q 784.5 74.0 796.5 62.0 L 804.5 54.0 Q 825.5 35.0 847.5 30.0 Q 870.5 25.0 949.5 44.0 L 983.5 52.0 Q 1000.5 61.0 980.5 69.0 L 916.5 94.0 Q 889.5 105.0 869.5 114.0 L 817.5 144.0 Q 764.5 176.0 721.5 219.0 L 677.5 262.0 Q 657.5 284.0 656.5 286.0 C 637.5 309.0 624.5 289.0 648.5 256.0 Z" fill="lightgray"></path>
      </clipPath>
      <path clip-path="url(#make-me-a-hanzi-clip-12)" d="M 653.5 278.0 L 663.5 257.0 L 747.5 161.0 L 843.5 78.0 L 912.5 64.0 L 982.5 61.0 " fill="none" id="make-me-a-hanzi-animation-12" stroke-dasharray="546 1092" stroke-linecap="round"></path>

      <clipPath id="make-me-a-hanzi-clip-13">
      <path d="M 1480.5 724.0 Q 1642.5 755.0 1644.5 756.0 Q 1651.5 763.0 1648.5 771.0 Q 1642.5 783.0 1616.5 790.0 Q 1597.5 796.0 1490.5 769.0 Q 1370.5 751.0 1320.5 747.0 Q 1286.5 743.0 1309.5 727.0 Q 1346.5 703.0 1411.5 715.0 Q 1424.5 718.0 1440.5 718.0 L 1480.5 724.0 Z" fill="lightgray"></path>
      </clipPath>
      <path clip-path="url(#make-me-a-hanzi-clip-13)" d="M 1312.5 738.0 L 1331.5 732.0 L 1383.5 732.0 L 1491.5 745.0 L 1507.5 753.0 L 1597.5 769.0 L 1641.5 765.0 " fill="none" id="make-me-a-hanzi-animation-13" stroke-dasharray="462 924" stroke-linecap="round"></path>

      <clipPath id="make-me-a-hanzi-clip-14">
      <path d="M 1239.5 627.0 Q 1227.5 649.0 1216.5 656.0 Q 1198.5 669.0 1197.5 645.0 Q 1201.5 615.0 1169.5 567.0 Q 1127.5 513.0 1147.5 469.0 Q 1148.5 463.0 1153.5 457.0 Q 1168.5 432.0 1186.5 459.0 Q 1202.5 484.0 1215.5 524.0 Q 1234.5 597.0 1241.5 603.0 C 1247.5 613.0 1247.5 613.0 1239.5 627.0 Z" fill="lightgray"></path>
      </clipPath>
      <path clip-path="url(#make-me-a-hanzi-clip-14)" d="M 1207.5 650.0 L 1215.5 635.0 L 1216.5 609.0 L 1174.5 508.0 L 1168.5 461.0 " fill="none" id="make-me-a-hanzi-animation-14" stroke-dasharray="328 656" stroke-linecap="round"></path>

      <clipPath id="make-me-a-hanzi-clip-15">
      <path d="M 1496.5 632.0 Q 1680.5 662.0 1713.5 654.0 Q 1729.5 651.0 1729.5 645.0 Q 1729.5 641.0 1690.5 583.0 Q 1681.5 571.0 1687.5 566.0 Q 1693.5 562.0 1710.5 570.0 Q 1765.5 595.0 1808.5 599.0 Q 1844.5 603.0 1844.5 612.0 Q 1843.5 622.0 1780.5 680.0 Q 1756.5 699.0 1689.5 688.0 Q 1590.5 678.0 1498.5 661.0 L 1453.5 655.0 Q 1407.5 651.0 1353.5 641.0 Q 1299.5 632.0 1245.5 628.0 Q 1241.5 628.0 1239.5 627.0 C 1209.5 624.0 1214.5 616.0 1241.5 603.0 Q 1265.5 585.0 1306.5 594.0 Q 1405.5 625.0 1455.5 625.0 L 1496.5 632.0 Z" fill="lightgray"></path>
      </clipPath>
      <path clip-path="url(#make-me-a-hanzi-clip-15)" d="M 1243.5 621.0 L 1263.5 611.0 L 1295.5 612.0 L 1407.5 636.0 L 1653.5 670.0 L 1721.5 673.0 L 1749.5 664.0 L 1766.5 646.0 L 1769.5 634.0 L 1692.5 571.0 " fill="none" id="make-me-a-hanzi-animation-15" stroke-dasharray="779 1558" stroke-linecap="round"></path>

      <clipPath id="make-me-a-hanzi-clip-16">
      <path d="M 1455.5 625.0 Q 1455.5 580.0 1443.5 493.0 Q 1436.5 466.0 1459.5 432.0 Q 1466.5 423.0 1475.5 432.0 Q 1496.5 462.0 1494.5 502.0 Q 1493.5 530.0 1496.5 617.0 Q 1496.5 624.0 1496.5 632.0 L 1498.5 661.0 Q 1499.5 676.0 1502.5 690.0 Q 1508.5 709.0 1491.5 718.0 Q 1487.5 722.0 1480.5 724.0 C 1453.5 737.0 1430.5 746.0 1440.5 718.0 Q 1452.5 688.0 1453.5 655.0 L 1455.5 625.0 Z" fill="lightgray"></path>
      </clipPath>
      <path clip-path="url(#make-me-a-hanzi-clip-16)" d="M 1447.5 714.0 L 1476.5 687.0 L 1467.5 437.0 " fill="none" id="make-me-a-hanzi-animation-16" stroke-dasharray="418 836" stroke-linecap="round"></path>

      <clipPath id="make-me-a-hanzi-clip-17">
      <path d="M 1318.5 553.0 Q 1376.5 520.0 1394.5 527.0 Q 1404.5 530.0 1403.5 544.0 Q 1400.5 554.0 1388.5 565.0 Q 1363.5 584.0 1313.5 572.0 Q 1306.5 571.0 1309.5 563.0 Q 1310.5 557.0 1318.5 553.0 Z" fill="lightgray"></path>
      </clipPath>
      <path clip-path="url(#make-me-a-hanzi-clip-17)" d="M 1320.5 564.0 L 1367.5 552.0 L 1389.5 540.0 " fill="none" id="make-me-a-hanzi-animation-17" stroke-dasharray="202 404" stroke-linecap="round"></path>

      <clipPath id="make-me-a-hanzi-clip-18">
      <path d="M 1302.5 472.0 Q 1365.5 439.0 1381.5 443.0 Q 1391.5 446.0 1391.5 461.0 Q 1388.5 471.0 1376.5 483.0 Q 1363.5 493.0 1343.5 492.0 Q 1310.5 495.0 1298.5 493.0 Q 1291.5 492.0 1293.5 483.0 Q 1294.5 476.0 1302.5 472.0 Z" fill="lightgray"></path>
      </clipPath>
      <path clip-path="url(#make-me-a-hanzi-clip-18)" d="M 1304.5 484.0 L 1356.5 470.0 L 1377.5 456.0 " fill="none" id="make-me-a-hanzi-animation-18" stroke-dasharray="207 414" stroke-linecap="round"></path>

      <clipPath id="make-me-a-hanzi-clip-19">
      <path d="M 1558.5 580.0 Q 1621.5 547.0 1637.5 551.0 Q 1647.5 554.0 1647.5 569.0 Q 1644.5 579.0 1632.5 591.0 Q 1619.5 601.0 1599.5 600.0 Q 1566.5 603.0 1554.5 601.0 Q 1547.5 600.0 1549.5 591.0 Q 1550.5 584.0 1558.5 580.0 Z" fill="lightgray"></path>
      </clipPath>
      <path clip-path="url(#make-me-a-hanzi-clip-19)" d="M 1560.5 592.0 L 1612.5 578.0 L 1633.5 564.0 " fill="none" id="make-me-a-hanzi-animation-19" stroke-dasharray="207 414" stroke-linecap="round"></path>

      <clipPath id="make-me-a-hanzi-clip-20">
      <path d="M 1552.5 500.0 Q 1615.5 458.0 1633.5 460.0 Q 1643.5 461.0 1644.5 476.0 Q 1643.5 486.0 1632.5 498.0 Q 1620.5 511.0 1598.5 513.0 Q 1564.5 520.0 1550.5 519.0 Q 1543.5 519.0 1545.5 510.0 Q 1545.5 504.0 1552.5 500.0 Z" fill="lightgray"></path>
      </clipPath>
      <path clip-path="url(#make-me-a-hanzi-clip-20)" d="M 1554.5 511.0 L 1609.5 489.0 L 1630.5 473.0 " fill="none" id="make-me-a-hanzi-animation-20" stroke-dasharray="214 428" stroke-linecap="round"></path>

      <clipPath id="make-me-a-hanzi-clip-21">
      <path d="M 1222.5 386.0 Q 1213.5 390.0 1190.5 393.0 Q 1180.5 394.0 1178.5 391.0 Q 1174.5 387.0 1181.5 374.0 Q 1202.5 335.0 1217.5 270.0 Q 1221.5 251.0 1233.5 239.0 Q 1248.5 223.0 1251.5 235.0 Q 1252.5 239.0 1253.5 245.0 L 1252.5 271.0 Q 1251.5 274.0 1251.5 277.0 Q 1238.5 343.0 1234.5 364.0 C 1230.5 383.0 1230.5 383.0 1222.5 386.0 Z" fill="lightgray"></path>
      </clipPath>
      <path clip-path="url(#make-me-a-hanzi-clip-21)" d="M 1185.5 386.0 L 1208.5 368.0 L 1214.5 356.0 L 1242.5 239.0 " fill="none" id="make-me-a-hanzi-animation-21" stroke-dasharray="291 582" stroke-linecap="round"></path>

      <clipPath id="make-me-a-hanzi-clip-22">
      <path d="M 1375.5 296.0 Q 1393.5 351.0 1411.5 367.0 Q 1430.5 388.0 1411.5 400.0 Q 1395.5 410.0 1373.5 425.0 Q 1358.5 434.0 1342.5 425.0 Q 1302.5 401.0 1222.5 386.0 C 1193.5 380.0 1204.5 360.0 1234.5 364.0 Q 1243.5 365.0 1254.5 367.0 Q 1291.5 377.0 1322.5 383.0 Q 1343.5 387.0 1348.5 380.0 Q 1352.5 376.0 1346.5 351.0 Q 1340.5 326.0 1331.5 294.0 C 1323.5 265.0 1365.5 268.0 1375.5 296.0 Z" fill="lightgray"></path>
      </clipPath>
      <path clip-path="url(#make-me-a-hanzi-clip-22)" d="M 1232.5 385.0 L 1240.5 377.0 L 1347.5 404.0 L 1366.5 399.0 L 1380.5 380.0 L 1377.5 368.0 L 1360.5 317.0 L 1338.5 300.0 " fill="none" id="make-me-a-hanzi-animation-22" stroke-dasharray="387 774" stroke-linecap="round"></path>

      <clipPath id="make-me-a-hanzi-clip-23">
      <path d="M 1297.5 253.0 Q 1331.5 260.0 1390.5 269.0 Q 1397.5 270.0 1399.5 278.0 Q 1399.5 284.0 1375.5 296.0 C 1362.5 303.0 1360.5 302.0 1331.5 294.0 Q 1285.5 281.0 1252.5 271.0 C 1223.5 262.0 1223.5 244.0 1253.5 245.0 Q 1259.5 245.0 1270.5 246.0 L 1297.5 253.0 Z" fill="lightgray"></path>
      </clipPath>
      <path clip-path="url(#make-me-a-hanzi-clip-23)" d="M 1256.5 252.0 L 1273.5 262.0 L 1339.5 278.0 L 1368.5 282.0 L 1391.5 277.0 " fill="none" id="make-me-a-hanzi-animation-23" stroke-dasharray="268 536" stroke-linecap="round"></path>

      <clipPath id="make-me-a-hanzi-clip-24">
      <path d="M 1320.5 43.0 Q 1321.5 98.0 1325.5 144.0 L 1327.5 172.0 Q 1327.5 190.0 1329.5 207.0 Q 1335.5 222.0 1328.5 230.0 Q 1312.5 245.0 1297.5 253.0 C 1271.5 268.0 1259.5 274.0 1270.5 246.0 Q 1279.5 227.0 1283.5 157.0 Q 1283.5 115.0 1284.5 33.0 C 1284.5 3.0 1319.5 13.0 1320.5 43.0 Z" fill="lightgray"></path>
      </clipPath>
      <path clip-path="url(#make-me-a-hanzi-clip-24)" d="M 1278.5 244.0 L 1294.5 233.0 L 1304.5 216.0 L 1303.5 67.0 L 1302.5 57.0 L 1288.5 43.0 " fill="none" id="make-me-a-hanzi-animation-24" stroke-dasharray="346 692" stroke-linecap="round"></path>

      <clipPath id="make-me-a-hanzi-clip-25">
      <path d="M 1325.5 144.0 Q 1373.5 153.0 1409.5 161.0 Q 1428.5 165.0 1419.5 176.0 Q 1409.5 186.0 1388.5 189.0 Q 1369.5 190.0 1335.5 177.0 Q 1331.5 176.0 1327.5 172.0 C 1304.5 152.0 1296.5 138.0 1325.5 144.0 Z" fill="lightgray"></path>
      </clipPath>
      <path clip-path="url(#make-me-a-hanzi-clip-25)" d="M 1332.5 151.0 L 1348.5 166.0 L 1383.5 173.0 L 1412.5 170.0 " fill="none" id="make-me-a-hanzi-animation-25" stroke-dasharray="215 430" stroke-linecap="round"></path>

      <clipPath id="make-me-a-hanzi-clip-26">
      <path d="M 1229.5 19.0 Q 1213.5 130.0 1215.5 144.0 Q 1215.5 163.0 1203.5 171.0 Q 1184.5 183.0 1161.5 187.0 Q 1149.5 190.0 1143.5 184.0 Q 1139.5 180.0 1144.5 167.0 Q 1165.5 140.0 1197.5 12.0 C 1204.5 -17.0 1233.5 -11.0 1229.5 19.0 Z" fill="lightgray"></path>
      </clipPath>
      <path clip-path="url(#make-me-a-hanzi-clip-26)" d="M 1150.5 179.0 L 1186.5 147.0 L 1207.5 55.0 L 1209.5 32.0 L 1200.5 25.0 " fill="none" id="make-me-a-hanzi-animation-26" stroke-dasharray="305 610" stroke-linecap="round"></path>

      <clipPath id="make-me-a-hanzi-clip-27">
      <path d="M 1197.5 12.0 Q 1143.5 0.0 1117.5 0.0 Q 1105.5 -1.0 1103.5 -10.0 Q 1102.5 -22.0 1109.5 -30.0 Q 1130.5 -45.0 1159.5 -63.0 Q 1168.5 -66.0 1179.5 -59.0 Q 1207.5 -38.0 1372.5 29.0 Q 1394.5 39.0 1411.5 50.0 Q 1423.5 57.0 1424.5 65.0 Q 1420.5 69.0 1408.5 68.0 Q 1365.5 56.0 1320.5 43.0 L 1284.5 33.0 Q 1256.5 29.0 1229.5 19.0 L 1197.5 12.0 Z" fill="lightgray"></path>
      </clipPath>
      <path clip-path="url(#make-me-a-hanzi-clip-27)" d="M 1116.5 -13.0 L 1139.5 -23.0 L 1170.5 -26.0 L 1346.5 36.0 L 1356.5 35.0 L 1419.5 63.0 " fill="none" id="make-me-a-hanzi-animation-27" stroke-dasharray="450 900" stroke-linecap="round"></path>

      <clipPath id="make-me-a-hanzi-clip-28">
      <path d="M 1586.5 404.0 Q 1593.5 416.0 1589.5 423.0 Q 1585.5 433.0 1562.5 436.0 Q 1537.5 440.0 1528.5 436.0 Q 1521.5 433.0 1521.5 422.0 Q 1521.5 368.0 1424.5 249.0 Q 1409.5 233.0 1431.5 240.0 Q 1464.5 252.0 1509.5 300.0 Q 1509.5 301.0 1510.5 302.0 L 1523.5 316.0 Q 1542.5 340.0 1559.5 364.0 Q 1562.5 370.0 1565.5 374.0 L 1586.5 404.0 Z" fill="lightgray"></path>
      </clipPath>
      <path clip-path="url(#make-me-a-hanzi-clip-28)" d="M 1575.5 417.0 L 1551.5 407.0 L 1528.5 359.0 L 1491.5 305.0 L 1433.5 249.0 " fill="none" id="make-me-a-hanzi-animation-28" stroke-dasharray="353 706" stroke-linecap="round"></path>

      <clipPath id="make-me-a-hanzi-clip-29">
      <path d="M 1584.5 242.0 Q 1506.5 160.0 1400.5 117.0 Q 1393.5 114.0 1392.5 110.0 Q 1393.5 106.0 1399.5 106.0 Q 1504.5 102.0 1617.5 216.0 L 1639.5 241.0 Q 1670.5 281.0 1705.5 337.0 Q 1720.5 359.0 1742.5 372.0 Q 1755.5 378.0 1756.5 385.0 Q 1756.5 395.0 1733.5 411.0 Q 1705.5 432.0 1694.5 433.0 Q 1684.5 433.0 1674.5 426.0 Q 1626.5 414.0 1586.5 404.0 C 1557.5 397.0 1535.5 372.0 1565.5 374.0 Q 1598.5 374.0 1639.5 389.0 Q 1658.5 393.0 1665.5 388.0 Q 1669.5 384.0 1651.5 342.0 Q 1629.5 291.0 1602.5 264.0 L 1584.5 242.0 Z" fill="lightgray"></path>
      </clipPath>
      <path clip-path="url(#make-me-a-hanzi-clip-29)" d="M 1572.5 377.0 L 1597.5 392.0 L 1654.5 407.0 L 1695.5 400.0 L 1702.5 388.0 L 1641.5 279.0 L 1605.5 234.0 L 1556.5 187.0 L 1480.5 137.0 L 1398.5 112.0 " fill="none" id="make-me-a-hanzi-animation-29" stroke-dasharray="699 1398" stroke-linecap="round"></path>

      <clipPath id="make-me-a-hanzi-clip-30">
      <path d="M 1510.5 302.0 Q 1513.5 298.0 1584.5 242.0 L 1617.5 216.0 Q 1776.5 98.0 1807.5 92.0 Q 1873.5 92.0 1951.5 120.0 Q 1967.5 124.0 1968.5 129.0 Q 1969.5 135.0 1955.5 138.0 Q 1772.5 180.0 1729.5 198.0 Q 1698.5 208.0 1639.5 241.0 L 1602.5 264.0 Q 1587.5 279.0 1523.5 316.0 C 1497.5 331.0 1487.5 322.0 1510.5 302.0 Z" fill="lightgray"></path>
      </clipPath>
      <path clip-path="url(#make-me-a-hanzi-clip-30)" d="M 1515.5 304.0 L 1529.5 303.0 L 1657.5 207.0 L 1803.5 135.0 L 1878.5 127.0 L 1960.5 132.0 " fill="none" id="make-me-a-hanzi-animation-30" stroke-dasharray="622 1244" stroke-linecap="round"></path>

      <clipPath id="make-me-a-hanzi-clip-31">
      <path d="M 1503.5 81.0 Q 1493.5 85.0 1469.5 91.0 Q 1459.5 94.0 1455.5 89.0 Q 1449.5 83.0 1456.5 69.0 Q 1478.5 20.0 1492.5 -59.0 Q 1493.5 -84.0 1508.5 -99.0 Q 1523.5 -120.0 1528.5 -105.0 Q 1532.5 -95.0 1532.5 -79.0 L 1529.5 -48.0 Q 1519.5 27.0 1517.5 52.0 C 1515.5 77.0 1515.5 77.0 1503.5 81.0 Z" fill="lightgray"></path>
      </clipPath>
      <path clip-path="url(#make-me-a-hanzi-clip-31)" d="M 1463.5 82.0 L 1483.5 64.0 L 1492.5 46.0 L 1518.5 -101.0 " fill="none" id="make-me-a-hanzi-animation-31" stroke-dasharray="324 648" stroke-linecap="round"></path>

      <clipPath id="make-me-a-hanzi-clip-32">
      <path d="M 1710.5 -23.0 Q 1731.5 37.0 1758.5 55.0 Q 1773.5 71.0 1760.5 88.0 Q 1691.5 143.0 1652.5 118.0 Q 1595.5 99.0 1503.5 81.0 C 1474.5 75.0 1488.5 46.0 1517.5 52.0 Q 1526.5 53.0 1536.5 57.0 Q 1594.5 67.0 1652.5 78.0 Q 1667.5 82.0 1673.5 75.0 Q 1680.5 68.0 1679.5 52.0 Q 1672.5 12.0 1663.5 -22.0 C 1656.5 -51.0 1700.5 -51.0 1710.5 -23.0 Z" fill="lightgray"></path>
      </clipPath>
      <path clip-path="url(#make-me-a-hanzi-clip-32)" d="M 1513.5 80.0 L 1526.5 70.0 L 1673.5 102.0 L 1696.5 94.0 L 1717.5 68.0 L 1694.5 2.0 L 1671.5 -17.0 " fill="none" id="make-me-a-hanzi-animation-32" stroke-dasharray="452 904" stroke-linecap="round"></path>

      <clipPath id="make-me-a-hanzi-clip-33">
      <path d="M 1532.5 -79.0 Q 1538.5 -79.0 1546.5 -78.0 Q 1603.5 -66.0 1726.5 -58.0 Q 1736.5 -57.0 1737.5 -49.0 Q 1738.5 -42.0 1710.5 -23.0 C 1698.5 -15.0 1692.5 -16.0 1663.5 -22.0 Q 1588.5 -38.0 1529.5 -48.0 C 1499.5 -53.0 1502.5 -80.0 1532.5 -79.0 Z" fill="lightgray"></path>
      </clipPath>
      <path clip-path="url(#make-me-a-hanzi-clip-33)" d="M 1538.5 -71.0 L 1552.5 -60.0 L 1670.5 -41.0 L 1702.5 -40.0 L 1728.5 -49.0 " fill="none" id="make-me-a-hanzi-animation-33" stroke-dasharray="325 650" stroke-linecap="round"></path>

</g>
</svg>
