<svg version="1.1" viewBox="0 0 2048 1024" xmlns="http://www.w3.org/2000/svg">
  <g stroke="lightgray" stroke-dasharray="1,1" stroke-width="1" transform="scale(4, 4)">
    <line x1="0" y1="0" x2="256" y2="256"></line>
    <line x1="256" y1="0" x2="0" y2="256"></line>
    <line x1="128" y1="0" x2="128" y2="256"></line>
    <line x1="0" y1="128" x2="256" y2="128"></line>
    <line x1="256" y1="0" x2="512" y2="256"></line>
    <line x1="512" y1="0" x2="256" y2="256"></line>
    <line x1="384" y1="0" x2="384" y2="256"></line>
    <line x1="256" y1="128" x2="512" y2="128"></line>
  </g>
<g transform="scale(1, -1) translate(0, -850)">
   <style type="text/css">
    @keyframes keyframes0 {
      from {
       stroke: black;
       stroke-dashoffset: 704;
       stroke-width: 128;
       }
       70% {
       animation-timing-function: step-end;
       stroke: black;
       stroke-dashoffset: 0;
       stroke-width: 128;
       }
       to {
       stroke: black;
       stroke-width: 1024;
       }
       }
       #make-me-a-hanzi-animation-0 {
         animation: keyframes0 0.822917s both;
         animation-delay: 0.000000s;
         animation-timing-function: linear;
       }
    @keyframes keyframes1 {
      from {
       stroke: black;
       stroke-dashoffset: 484;
       stroke-width: 128;
       }
       61% {
       animation-timing-function: step-end;
       stroke: black;
       stroke-dashoffset: 0;
       stroke-width: 128;
       }
       to {
       stroke: black;
       stroke-width: 1024;
       }
       }
       #make-me-a-hanzi-animation-1 {
         animation: keyframes1 0.643880s both;
         animation-delay: 0.822917s;
         animation-timing-function: linear;
       }
    @keyframes keyframes2 {
      from {
       stroke: black;
       stroke-dashoffset: 952;
       stroke-width: 128;
       }
       76% {
       animation-timing-function: step-end;
       stroke: black;
       stroke-dashoffset: 0;
       stroke-width: 128;
       }
       to {
       stroke: black;
       stroke-width: 1024;
       }
       }
       #make-me-a-hanzi-animation-2 {
         animation: keyframes2 1.024740s both;
         animation-delay: 1.466797s;
         animation-timing-function: linear;
       }
    @keyframes keyframes3 {
      from {
       stroke: black;
       stroke-dashoffset: 546;
       stroke-width: 128;
       }
       64% {
       animation-timing-function: step-end;
       stroke: black;
       stroke-dashoffset: 0;
       stroke-width: 128;
       }
       to {
       stroke: black;
       stroke-width: 1024;
       }
       }
       #make-me-a-hanzi-animation-3 {
         animation: keyframes3 0.694336s both;
         animation-delay: 2.491536s;
         animation-timing-function: linear;
       }
    @keyframes keyframes4 {
      from {
       stroke: black;
       stroke-dashoffset: 557;
       stroke-width: 128;
       }
       64% {
       animation-timing-function: step-end;
       stroke: black;
       stroke-dashoffset: 0;
       stroke-width: 128;
       }
       to {
       stroke: black;
       stroke-width: 1024;
       }
       }
       #make-me-a-hanzi-animation-4 {
         animation: keyframes4 0.703288s both;
         animation-delay: 3.185872s;
         animation-timing-function: linear;
       }
    @keyframes keyframes5 {
      from {
       stroke: black;
       stroke-dashoffset: 622;
       stroke-width: 128;
       }
       67% {
       animation-timing-function: step-end;
       stroke: black;
       stroke-dashoffset: 0;
       stroke-width: 128;
       }
       to {
       stroke: black;
       stroke-width: 1024;
       }
       }
       #make-me-a-hanzi-animation-5 {
         animation: keyframes5 0.756185s both;
         animation-delay: 3.889160s;
         animation-timing-function: linear;
       }
    @keyframes keyframes6 {
      from {
       stroke: black;
       stroke-dashoffset: 987;
       stroke-width: 128;
       }
       76% {
       animation-timing-function: step-end;
       stroke: black;
       stroke-dashoffset: 0;
       stroke-width: 128;
       }
       to {
       stroke: black;
       stroke-width: 1024;
       }
       }
       #make-me-a-hanzi-animation-6 {
         animation: keyframes6 1.053223s both;
         animation-delay: 4.645345s;
         animation-timing-function: linear;
       }
    @keyframes keyframes7 {
      from {
       stroke: black;
       stroke-dashoffset: 935;
       stroke-width: 128;
       }
       75% {
       animation-timing-function: step-end;
       stroke: black;
       stroke-dashoffset: 0;
       stroke-width: 128;
       }
       to {
       stroke: black;
       stroke-width: 1024;
       }
       }
       #make-me-a-hanzi-animation-7 {
         animation: keyframes7 1.010905s both;
         animation-delay: 5.698568s;
         animation-timing-function: linear;
       }
    @keyframes keyframes8 {
      from {
       stroke: black;
       stroke-dashoffset: 1150;
       stroke-width: 128;
       }
       79% {
       animation-timing-function: step-end;
       stroke: black;
       stroke-dashoffset: 0;
       stroke-width: 128;
       }
       to {
       stroke: black;
       stroke-width: 1024;
       }
       }
       #make-me-a-hanzi-animation-8 {
         animation: keyframes8 1.185872s both;
         animation-delay: 6.709473s;
         animation-timing-function: linear;
       }
    @keyframes keyframes9 {
      from {
       stroke: black;
       stroke-dashoffset: 662;
       stroke-width: 128;
       }
       68% {
       animation-timing-function: step-end;
       stroke: black;
       stroke-dashoffset: 0;
       stroke-width: 128;
       }
       to {
       stroke: black;
       stroke-width: 1024;
       }
       }
       #make-me-a-hanzi-animation-9 {
         animation: keyframes9 0.788737s both;
         animation-delay: 7.895345s;
         animation-timing-function: linear;
       }
    @keyframes keyframes10 {
      from {
       stroke: black;
       stroke-dashoffset: 586;
       stroke-width: 128;
       }
       66% {
       animation-timing-function: step-end;
       stroke: black;
       stroke-dashoffset: 0;
       stroke-width: 128;
       }
       to {
       stroke: black;
       stroke-width: 1024;
       }
       }
       #make-me-a-hanzi-animation-10 {
         animation: keyframes10 0.726888s both;
         animation-delay: 8.684082s;
         animation-timing-function: linear;
       }
    @keyframes keyframes11 {
      from {
       stroke: black;
       stroke-dashoffset: 598;
       stroke-width: 128;
       }
       66% {
       animation-timing-function: step-end;
       stroke: black;
       stroke-dashoffset: 0;
       stroke-width: 128;
       }
       to {
       stroke: black;
       stroke-width: 1024;
       }
       }
       #make-me-a-hanzi-animation-11 {
         animation: keyframes11 0.736654s both;
         animation-delay: 9.410970s;
         animation-timing-function: linear;
       }
    @keyframes keyframes12 {
      from {
       stroke: black;
       stroke-dashoffset: 1097;
       stroke-width: 128;
       }
       78% {
       animation-timing-function: step-end;
       stroke: black;
       stroke-dashoffset: 0;
       stroke-width: 128;
       }
       to {
       stroke: black;
       stroke-width: 1024;
       }
       }
       #make-me-a-hanzi-animation-12 {
         animation: keyframes12 1.142741s both;
         animation-delay: 10.147624s;
         animation-timing-function: linear;
       }
    @keyframes keyframes13 {
      from {
       stroke: black;
       stroke-dashoffset: 521;
       stroke-width: 128;
       }
       63% {
       animation-timing-function: step-end;
       stroke: black;
       stroke-dashoffset: 0;
       stroke-width: 128;
       }
       to {
       stroke: black;
       stroke-width: 1024;
       }
       }
       #make-me-a-hanzi-animation-13 {
         animation: keyframes13 0.673991s both;
         animation-delay: 11.290365s;
         animation-timing-function: linear;
       }
    @keyframes keyframes14 {
      from {
       stroke: black;
       stroke-dashoffset: 834;
       stroke-width: 128;
       }
       73% {
       animation-timing-function: step-end;
       stroke: black;
       stroke-dashoffset: 0;
       stroke-width: 128;
       }
       to {
       stroke: black;
       stroke-width: 1024;
       }
       }
       #make-me-a-hanzi-animation-14 {
         animation: keyframes14 0.928711s both;
         animation-delay: 11.964355s;
         animation-timing-function: linear;
       }
    @keyframes keyframes15 {
      from {
       stroke: black;
       stroke-dashoffset: 390;
       stroke-width: 128;
       }
       56% {
       animation-timing-function: step-end;
       stroke: black;
       stroke-dashoffset: 0;
       stroke-width: 128;
       }
       to {
       stroke: black;
       stroke-width: 1024;
       }
       }
       #make-me-a-hanzi-animation-15 {
         animation: keyframes15 0.567383s both;
         animation-delay: 12.893066s;
         animation-timing-function: linear;
       }
    @keyframes keyframes16 {
      from {
       stroke: black;
       stroke-dashoffset: 606;
       stroke-width: 128;
       }
       66% {
       animation-timing-function: step-end;
       stroke: black;
       stroke-dashoffset: 0;
       stroke-width: 128;
       }
       to {
       stroke: black;
       stroke-width: 1024;
       }
       }
       #make-me-a-hanzi-animation-16 {
         animation: keyframes16 0.743164s both;
         animation-delay: 13.460449s;
         animation-timing-function: linear;
       }
    @keyframes keyframes17 {
      from {
       stroke: black;
       stroke-dashoffset: 476;
       stroke-width: 128;
       }
       61% {
       animation-timing-function: step-end;
       stroke: black;
       stroke-dashoffset: 0;
       stroke-width: 128;
       }
       to {
       stroke: black;
       stroke-width: 1024;
       }
       }
       #make-me-a-hanzi-animation-17 {
         animation: keyframes17 0.637370s both;
         animation-delay: 14.203613s;
         animation-timing-function: linear;
       }
    @keyframes keyframes18 {
      from {
       stroke: black;
       stroke-dashoffset: 445;
       stroke-width: 128;
       }
       59% {
       animation-timing-function: step-end;
       stroke: black;
       stroke-dashoffset: 0;
       stroke-width: 128;
       }
       to {
       stroke: black;
       stroke-width: 1024;
       }
       }
       #make-me-a-hanzi-animation-18 {
         animation: keyframes18 0.612142s both;
         animation-delay: 14.840983s;
         animation-timing-function: linear;
       }
</style>
<path d="M 604 693 L 632 695 L 679 703 L 706 706 Q 729 710 737 716 Q 744 723 743 730 Q 742 737 714 747 L 693 754 Q 680 756 677 755 L 651 748 L 624 742 L 459 716 L 347 707 Q 320 704 314 704 L 293 703 Q 282 702 280 698 Q 279 695 284.5 687 Q 290 679 309 673 Q 354 663 379 668 L 435 674 L 479 678 Q 503 679 517 682 L 552 687 L 604 693 Z" fill="lightgray"></path> 
<path d="M 289 539 L 253 548 Q 244 548 239 549 Q 233 549 228 545 Q 222 541 222 537 L 231 527 Q 245 514 247 512 Q 256 496 257 492 L 261 480 Q 264 471 265 466 L 278 391 Q 279 381 285 363 Q 291 344 298 335 Q 304 325 311 327 Q 318 329 321 337 L 324 350 L 324 381 L 304 503 C 299 533 298 537 289 539 Z" fill="lightgray"></path> 
<path d="M 691 375 L 695 361 Q 696 354 700 352 Q 705 344 717 346 Q 729 347 743 357 Q 757 367 762 385 L 798 495 Q 806 512 821 528 Q 836 543 838 548 Q 839 552 824 567 Q 809 582 802 586 Q 757 611 745 611 Q 691 593 683 593 L 666 588 L 622 582 L 561 570 L 453 556 L 399 548 L 289 539 C 259 537 274 499 304 503 L 341 508 Q 367 511 402 517 L 454 525 L 558 541 L 615 547 L 681 557 Q 707 559 714 558 Q 720 557 728 550 Q 735 542 728 507 L 714 450 L 701 404 C 693 375 690 378 691 375 Z" fill="lightgray"></path> 
<path d="M 379 668 L 387 647 Q 391 631 392 626 L 399 548 L 402 517 L 417 389 C 420 359 461 363 460 393 L 454 525 L 453 556 L 450 594 L 450 615 Q 450 631 454 644 Q 457 656 449 664 L 435 674 C 411 691 368 696 379 668 Z" fill="lightgray"></path> 
<path d="M 622 582 L 626 616 Q 628 628 631 634 L 641 650 Q 643 658 643 662 Q 643 666 635 671 Q 627 676 604 693 C 580 711 539 714 552 687 L 557 677 Q 561 670 563 653 L 563 620 L 561 570 L 558 541 L 549 403 C 547 373 588 380 593 410 L 615 547 L 622 582 Z" fill="lightgray"></path> 
<path d="M 465 356 L 511 362 L 691 375 C 721 377 727 389 701 404 L 687 412 Q 680 416 664 416 L 629 412 L 593 410 L 549 403 L 460 393 L 417 389 L 324 381 C 294 378 294 349 324 350 L 426 354 L 465 356 Z" fill="lightgray"></path> 
<path d="M 387 204 L 372 180 L 335 131 Q 326 122 327 118 Q 328 114 331 104 Q 334 94 350 92 Q 365 89 391 80 L 442 66 L 494 48 L 546 16 L 605 -20 L 718 -105 Q 742 -120 758 -120 Q 785 -120 787 -89 Q 787 -75 780 -61 Q 748 -3 645 39 L 591 62 L 526 83 L 486 94 L 441 103 Q 416 110 400 112 Q 384 113 383 118 Q 381 123 387 135 L 399 152 L 435 208 L 462 250 L 489 294 Q 497 302 502 306 Q 507 310 508 314 Q 509 317 505 325 Q 500 333 488 341 L 465 356 C 440 372 423 384 426 354 L 429 328 Q 429 327 426 312 L 421 288 L 417 272 Q 417 268 406 246 L 387 204 Z" fill="lightgray"></path> 
<path d="M 494 48 L 465 25 Q 425 -5 362 -33 Q 299 -60 236 -74 L 207 -81 Q 191 -84 189 -89 Q 187 -97 209 -99 L 245 -100 Q 272 -101 294 -98 Q 315 -94 384 -75 Q 453 -55 497 -20 Q 511 -11 546 16 L 591 62 L 607 87 Q 613 94 632 126 L 657 174 L 679 221 C 692 248 699 264 695 268 L 684 278 Q 681 279 668 292 Q 639 317 621 317 Q 608 314 607 310 Q 605 306 607 287 Q 611 276 611 262 L 605 219 L 595 190 Q 591 178 574 147 Q 556 115 550 108 Q 544 101 526 83 L 494 48 Z" fill="lightgray"></path> 
<path d="M 384 244 L 138 227 L 96 226 Q 82 226 81 222 Q 75 200 117 182 Q 127 178 138.5 172 Q 150 166 165 166 Q 167 167 208 178 L 225 182 Q 230 184 231 184 L 294 194 Q 331 200 343 201 L 375 203 Q 384 203 387 204 L 435 208 L 456 210 Q 477 212 501 213 L 538 215 Q 541 216 560 218 L 605 219 L 679 221 L 718 222 L 832 224 L 888 222 L 925 222 Q 962 221 978 226 Q 1000 239 983 252 Q 929 290 900 290 L 832 280 Q 809 277 773 274 L 716 270 Q 712 268 706 268 L 695 268 L 611 262 L 591 260 L 569 259 L 484 251 Q 481 250 462 250 L 406 246 L 384 244 Z" fill="lightgray"></path> 
<path d="M 1553 625 L 1583 630 Q 1595 630 1620.5 633.5 Q 1646 637 1663 638.5 Q 1680 640 1714 650 L 1732 654 Q 1735 654 1743 662 Q 1743 666 1738 671 Q 1723 683 1718 684 L 1701 690 L 1690 692 Q 1680 692 1668 688 L 1637 679 L 1593 671 L 1573 668 Q 1559 666 1553 664 L 1498 656 L 1473 653 L 1452 650 Q 1445 649 1435 648 L 1405 646 L 1344 640 Q 1326 639 1324 634 Q 1323 630 1330 621 Q 1351 600 1432 612 L 1465 615 Q 1478 615 1498 619 L 1553 625 Z" fill="lightgray"></path> 
<path d="M 1552 518 L 1566 519 L 1604 523 L 1639 528 Q 1675 534 1685 536 L 1699 540 Q 1707 542 1708.5 547.5 Q 1710 553 1705.5 557.5 Q 1701 562 1680 571.5 Q 1659 581 1642.5 575.5 Q 1626 570 1597 564 L 1552 557 L 1497 546 L 1479 544 Q 1441 538 1419 536 L 1400 536 Q 1394 536 1388 534 L 1383 534 L 1369 532 Q 1357 530 1362 520.5 Q 1367 511 1386 505.5 Q 1405 500 1436 503 L 1463 506 Q 1469 507 1477 508 L 1497 510 L 1552 518 Z" fill="lightgray"></path> 
<path d="M 1551 442 L 1552 518 L 1552 557 L 1553 625 L 1553 664 L 1556 689 L 1560 707 L 1567 724 Q 1568 726 1570 728 Q 1571 730 1571 739 Q 1571 748 1554 756 L 1531 766 Q 1512 773 1494 773 Q 1476 773 1480 759 L 1485 744 Q 1492 727 1493 719 L 1497 691 Q 1497 664 1498 656 L 1498 619 L 1497 546 L 1497 510 L 1497 439 C 1497 409 1551 412 1551 442 Z" fill="lightgray"></path> 
<path d="M 1495 410 L 1569 412 L 1729 420 L 1851 418 L 1938 418 Q 1959 418 1960.5 422 Q 1962 426 1957.5 435 Q 1953 444 1930 456.5 Q 1907 469 1895.5 473 Q 1884 477 1867 477 Q 1850 477 1809.5 469 Q 1769 461 1716 457 L 1637 450 Q 1589 446 1551 442 L 1497 439 L 1472 437 L 1465 436 L 1407 432 Q 1386 430 1323 423 Q 1260 416 1200 414 L 1147 412 L 1125 412 Q 1123 412 1113 410 Q 1103 405 1117 391 Q 1131 377 1166 368 L 1189 366 Q 1196 365 1212 368 L 1258 379 Q 1295 387 1324 391 L 1462 407 L 1495 410 Z" fill="lightgray"></path> 
<path d="M 1503 283 L 1413 311 L 1500 366 Q 1514 371 1517 379 Q 1520 386 1495 410 C 1476 429 1476 429 1462 407 L 1451 390 Q 1449 383 1437 371 Q 1429 361 1410 345 Q 1390 329 1384 326 Q 1378 322 1364 321 Q 1350 319 1350 311 Q 1348 308 1349 305 Q 1350 302 1352 280 Q 1358 262 1377 270 Q 1401 272 1413 272 L 1490 270 C 1520 269 1532 274 1503 283 Z" fill="lightgray"></path> 
<path d="M 1533 174 L 1554 180 L 1576 185 L 1656 205 C 1685 212 1673 224 1643 221 L 1487 204 Q 1446 199 1433 196 Q 1428 196 1428 202 L 1445 215 L 1600 301 Q 1630 319 1640 322 Q 1650 324 1654 327 Q 1658 330 1659 341 Q 1659 351 1650 367 Q 1640 383 1639 384 Q 1615 408 1610 395 L 1607 385 Q 1606 383 1605 377 Q 1603 370 1575 342 L 1542 313 L 1503 283 L 1490 270 L 1381 204 L 1365 196 L 1339 186 Q 1331 178 1350 156 Q 1368 134 1378 126 L 1381 126 L 1384 128 L 1402 135 Q 1422 144 1437 148 L 1466 157 L 1494 164 L 1533 174 Z" fill="lightgray"></path> 
<path d="M 1656 205 L 1686 173 Q 1703 155 1712 156.5 Q 1721 158 1727 165 Q 1733 172 1735.5 192.5 Q 1738 213 1719.5 228.5 Q 1701 244 1675.5 254 Q 1650 264 1642 265 L 1623 269 Q 1616 270 1613 267 Q 1611 263 1615 259 L 1643 221 L 1656 205 Z" fill="lightgray"></path> 
<path d="M 1494 164 L 1499 149 Q 1509 123 1509 68 L 1510 2 Q 1510 -18 1507 -30 Q 1502 -39 1498 -42 Q 1493 -44 1481 -42 L 1450 -38 L 1436 -34 Q 1427 -34 1426 -38 Q 1424 -42 1430 -48 L 1462 -74 Q 1473 -84 1491 -105 Q 1508 -126 1518 -127 Q 1527 -128 1543 -110 Q 1558 -92 1560 -81 Q 1561 -70 1565 -34 L 1566 70 L 1568 106 Q 1568 121 1569 122 L 1577 141 Q 1577 159 1533 174 C 1505 184 1485 192 1494 164 Z" fill="lightgray"></path> 
<path d="M 1227 -69 Q 1220 -73 1222 -80 Q 1224 -87 1233 -82 L 1254 -76 Q 1284 -69 1333 -31 L 1369 2 L 1388 15 Q 1401 22 1403 26 Q 1405 34 1404.5 38 Q 1404 42 1395 56 L 1383 68 Q 1377 74 1365 80 Q 1350 85 1347 84.5 Q 1344 84 1341 80.5 Q 1338 77 1337.5 65.5 Q 1337 54 1329.5 43.5 Q 1322 33 1297 2 Q 1269 -30 1265 -34 L 1239 -59 L 1227 -69 Z" fill="lightgray"></path> 
<path d="M 1666 80 Q 1685 62 1705 25 L 1736 -20 Q 1756 -50 1775 -50 Q 1784 -50 1792.5 -39 Q 1801 -28 1801 -12 Q 1801 40 1742 74 L 1701 95 L 1656 114 Q 1650 116 1647 111 Q 1644 106 1650 100 L 1666 80 Z" fill="lightgray"></path> 
      <clipPath id="make-me-a-hanzi-clip-0">
      <path d="M 604 693 L 632 695 L 679 703 L 706 706 Q 729 710 737 716 Q 744 723 743 730 Q 742 737 714 747 L 693 754 Q 680 756 677 755 L 651 748 L 624 742 L 459 716 L 347 707 Q 320 704 314 704 L 293 703 Q 282 702 280 698 Q 279 695 284.5 687 Q 290 679 309 673 Q 354 663 379 668 L 435 674 L 479 678 Q 503 679 517 682 L 552 687 L 604 693 Z" fill="lightgray"></path>
      </clipPath>
      <path clip-path="url(#make-me-a-hanzi-clip-0)" d="M 289 695 L 306 688 L 350 686 L 470 697 L 677 729 L 733 726 " fill="none" id="make-me-a-hanzi-animation-0" stroke-dasharray="576 1152" stroke-linecap="round"></path>

      <clipPath id="make-me-a-hanzi-clip-1">
      <path d="M 289 539 L 253 548 Q 244 548 239 549 Q 233 549 228 545 Q 222 541 222 537 L 231 527 Q 245 514 247 512 Q 256 496 257 492 L 261 480 Q 264 471 265 466 L 278 391 Q 279 381 285 363 Q 291 344 298 335 Q 304 325 311 327 Q 318 329 321 337 L 324 350 L 324 381 L 304 503 C 299 533 298 537 289 539 Z" fill="lightgray"></path>
      </clipPath>
      <path clip-path="url(#make-me-a-hanzi-clip-1)" d="M 231 536 L 266 523 L 280 500 L 309 339 " fill="none" id="make-me-a-hanzi-animation-1" stroke-dasharray="356 712" stroke-linecap="round"></path>

      <clipPath id="make-me-a-hanzi-clip-2">
      <path d="M 691 375 L 695 361 Q 696 354 700 352 Q 705 344 717 346 Q 729 347 743 357 Q 757 367 762 385 L 798 495 Q 806 512 821 528 Q 836 543 838 548 Q 839 552 824 567 Q 809 582 802 586 Q 757 611 745 611 Q 691 593 683 593 L 666 588 L 622 582 L 561 570 L 453 556 L 399 548 L 289 539 C 259 537 274 499 304 503 L 341 508 Q 367 511 402 517 L 454 525 L 558 541 L 615 547 L 681 557 Q 707 559 714 558 Q 720 557 728 550 Q 735 542 728 507 L 714 450 L 701 404 C 693 375 690 378 691 375 Z" fill="lightgray"></path>
      </clipPath>
      <path clip-path="url(#make-me-a-hanzi-clip-2)" d="M 297 535 L 320 523 L 711 579 L 747 576 L 777 547 L 734 402 L 713 361 " fill="none" id="make-me-a-hanzi-animation-2" stroke-dasharray="824 1648" stroke-linecap="round"></path>

      <clipPath id="make-me-a-hanzi-clip-3">
      <path d="M 379 668 L 387 647 Q 391 631 392 626 L 399 548 L 402 517 L 417 389 C 420 359 461 363 460 393 L 454 525 L 453 556 L 450 594 L 450 615 Q 450 631 454 644 Q 457 656 449 664 L 435 674 C 411 691 368 696 379 668 Z" fill="lightgray"></path>
      </clipPath>
      <path clip-path="url(#make-me-a-hanzi-clip-3)" d="M 386 665 L 421 637 L 436 413 L 423 397 " fill="none" id="make-me-a-hanzi-animation-3" stroke-dasharray="418 836" stroke-linecap="round"></path>

      <clipPath id="make-me-a-hanzi-clip-4">
      <path d="M 622 582 L 626 616 Q 628 628 631 634 L 641 650 Q 643 658 643 662 Q 643 666 635 671 Q 627 676 604 693 C 580 711 539 714 552 687 L 557 677 Q 561 670 563 653 L 563 620 L 561 570 L 558 541 L 549 403 C 547 373 588 380 593 410 L 615 547 L 622 582 Z" fill="lightgray"></path>
      </clipPath>
      <path clip-path="url(#make-me-a-hanzi-clip-4)" d="M 559 684 L 599 652 L 575 436 L 555 410 " fill="none" id="make-me-a-hanzi-animation-4" stroke-dasharray="429 858" stroke-linecap="round"></path>

      <clipPath id="make-me-a-hanzi-clip-5">
      <path d="M 465 356 L 511 362 L 691 375 C 721 377 727 389 701 404 L 687 412 Q 680 416 664 416 L 629 412 L 593 410 L 549 403 L 460 393 L 417 389 L 324 381 C 294 378 294 349 324 350 L 426 354 L 465 356 Z" fill="lightgray"></path>
      </clipPath>
      <path clip-path="url(#make-me-a-hanzi-clip-5)" d="M 331 358 L 349 368 L 693 399 " fill="none" id="make-me-a-hanzi-animation-5" stroke-dasharray="494 988" stroke-linecap="round"></path>

      <clipPath id="make-me-a-hanzi-clip-6">
      <path d="M 387 204 L 372 180 L 335 131 Q 326 122 327 118 Q 328 114 331 104 Q 334 94 350 92 Q 365 89 391 80 L 442 66 L 494 48 L 546 16 L 605 -20 L 718 -105 Q 742 -120 758 -120 Q 785 -120 787 -89 Q 787 -75 780 -61 Q 748 -3 645 39 L 591 62 L 526 83 L 486 94 L 441 103 Q 416 110 400 112 Q 384 113 383 118 Q 381 123 387 135 L 399 152 L 435 208 L 462 250 L 489 294 Q 497 302 502 306 Q 507 310 508 314 Q 509 317 505 325 Q 500 333 488 341 L 465 356 C 440 372 423 384 426 354 L 429 328 Q 429 327 426 312 L 421 288 L 417 272 Q 417 268 406 246 L 387 204 Z" fill="lightgray"></path>
      </clipPath>
      <path clip-path="url(#make-me-a-hanzi-clip-6)" d="M 433 348 L 462 317 L 427 236 L 358 123 L 360 112 L 391 97 L 501 69 L 612 17 L 705 -41 L 760 -95 " fill="none" id="make-me-a-hanzi-animation-6" stroke-dasharray="859 1718" stroke-linecap="round"></path>

      <clipPath id="make-me-a-hanzi-clip-7">
      <path d="M 494 48 L 465 25 Q 425 -5 362 -33 Q 299 -60 236 -74 L 207 -81 Q 191 -84 189 -89 Q 187 -97 209 -99 L 245 -100 Q 272 -101 294 -98 Q 315 -94 384 -75 Q 453 -55 497 -20 Q 511 -11 546 16 L 591 62 L 607 87 Q 613 94 632 126 L 657 174 L 679 221 C 692 248 699 264 695 268 L 684 278 Q 681 279 668 292 Q 639 317 621 317 Q 608 314 607 310 Q 605 306 607 287 Q 611 276 611 262 L 605 219 L 595 190 Q 591 178 574 147 Q 556 115 550 108 Q 544 101 526 83 L 494 48 Z" fill="lightgray"></path>
      </clipPath>
      <path clip-path="url(#make-me-a-hanzi-clip-7)" d="M 614 305 L 628 294 L 650 256 L 644 230 L 621 170 L 592 117 L 570 84 L 529 41 L 452 -17 L 386 -49 L 286 -80 L 194 -90 " fill="none" id="make-me-a-hanzi-animation-7" stroke-dasharray="807 1614" stroke-linecap="round"></path>

      <clipPath id="make-me-a-hanzi-clip-8">
      <path d="M 384 244 L 138 227 L 96 226 Q 82 226 81 222 Q 75 200 117 182 Q 127 178 138.5 172 Q 150 166 165 166 Q 167 167 208 178 L 225 182 Q 230 184 231 184 L 294 194 Q 331 200 343 201 L 375 203 Q 384 203 387 204 L 435 208 L 456 210 Q 477 212 501 213 L 538 215 Q 541 216 560 218 L 605 219 L 679 221 L 718 222 L 832 224 L 888 222 L 925 222 Q 962 221 978 226 Q 1000 239 983 252 Q 929 290 900 290 L 832 280 Q 809 277 773 274 L 716 270 Q 712 268 706 268 L 695 268 L 611 262 L 591 260 L 569 259 L 484 251 Q 481 250 462 250 L 406 246 L 384 244 Z" fill="lightgray"></path>
      </clipPath>
      <path clip-path="url(#make-me-a-hanzi-clip-8)" d="M 90 217 L 103 209 L 160 197 L 332 221 L 619 242 L 898 256 L 976 240 " fill="none" id="make-me-a-hanzi-animation-8" stroke-dasharray="1022 2044" stroke-linecap="round"></path>

      <clipPath id="make-me-a-hanzi-clip-9">
      <path d="M 1553 625 L 1583 630 Q 1595 630 1620.5 633.5 Q 1646 637 1663 638.5 Q 1680 640 1714 650 L 1732 654 Q 1735 654 1743 662 Q 1743 666 1738 671 Q 1723 683 1718 684 L 1701 690 L 1690 692 Q 1680 692 1668 688 L 1637 679 L 1593 671 L 1573 668 Q 1559 666 1553 664 L 1498 656 L 1473 653 L 1452 650 Q 1445 649 1435 648 L 1405 646 L 1344 640 Q 1326 639 1324 634 Q 1323 630 1330 621 Q 1351 600 1432 612 L 1465 615 Q 1478 615 1498 619 L 1553 625 Z" fill="lightgray"></path>
      </clipPath>
      <path clip-path="url(#make-me-a-hanzi-clip-9)" d="M 1331 630 L 1419 627 L 1691 668 L 1734 663 " fill="none" id="make-me-a-hanzi-animation-9" stroke-dasharray="534 1068" stroke-linecap="round"></path>

      <clipPath id="make-me-a-hanzi-clip-10">
      <path d="M 1552 518 L 1566 519 L 1604 523 L 1639 528 Q 1675 534 1685 536 L 1699 540 Q 1707 542 1708.5 547.5 Q 1710 553 1705.5 557.5 Q 1701 562 1680 571.5 Q 1659 581 1642.5 575.5 Q 1626 570 1597 564 L 1552 557 L 1497 546 L 1479 544 Q 1441 538 1419 536 L 1400 536 Q 1394 536 1388 534 L 1383 534 L 1369 532 Q 1357 530 1362 520.5 Q 1367 511 1386 505.5 Q 1405 500 1436 503 L 1463 506 Q 1469 507 1477 508 L 1497 510 L 1552 518 Z" fill="lightgray"></path>
      </clipPath>
      <path clip-path="url(#make-me-a-hanzi-clip-10)" d="M 1372 522 L 1427 519 L 1658 555 L 1699 550 " fill="none" id="make-me-a-hanzi-animation-10" stroke-dasharray="458 916" stroke-linecap="round"></path>

      <clipPath id="make-me-a-hanzi-clip-11">
      <path d="M 1551 442 L 1552 518 L 1552 557 L 1553 625 L 1553 664 L 1556 689 L 1560 707 L 1567 724 Q 1568 726 1570 728 Q 1571 730 1571 739 Q 1571 748 1554 756 L 1531 766 Q 1512 773 1494 773 Q 1476 773 1480 759 L 1485 744 Q 1492 727 1493 719 L 1497 691 Q 1497 664 1498 656 L 1498 619 L 1497 546 L 1497 510 L 1497 439 C 1497 409 1551 412 1551 442 Z" fill="lightgray"></path>
      </clipPath>
      <path clip-path="url(#make-me-a-hanzi-clip-11)" d="M 1490 763 L 1529 725 L 1524 468 L 1503 446 " fill="none" id="make-me-a-hanzi-animation-11" stroke-dasharray="470 940" stroke-linecap="round"></path>

      <clipPath id="make-me-a-hanzi-clip-12">
      <path d="M 1495 410 L 1569 412 L 1729 420 L 1851 418 L 1938 418 Q 1959 418 1960.5 422 Q 1962 426 1957.5 435 Q 1953 444 1930 456.5 Q 1907 469 1895.5 473 Q 1884 477 1867 477 Q 1850 477 1809.5 469 Q 1769 461 1716 457 L 1637 450 Q 1589 446 1551 442 L 1497 439 L 1472 437 L 1465 436 L 1407 432 Q 1386 430 1323 423 Q 1260 416 1200 414 L 1147 412 L 1125 412 Q 1123 412 1113 410 Q 1103 405 1117 391 Q 1131 377 1166 368 L 1189 366 Q 1196 365 1212 368 L 1258 379 Q 1295 387 1324 391 L 1462 407 L 1495 410 Z" fill="lightgray"></path>
      </clipPath>
      <path clip-path="url(#make-me-a-hanzi-clip-12)" d="M 1120 402 L 1164 390 L 1202 390 L 1444 421 L 1863 448 L 1913 441 L 1954 427 " fill="none" id="make-me-a-hanzi-animation-12" stroke-dasharray="969 1938" stroke-linecap="round"></path>

      <clipPath id="make-me-a-hanzi-clip-13">
      <path d="M 1503 283 L 1413 311 L 1500 366 Q 1514 371 1517 379 Q 1520 386 1495 410 C 1476 429 1476 429 1462 407 L 1451 390 Q 1449 383 1437 371 Q 1429 361 1410 345 Q 1390 329 1384 326 Q 1378 322 1364 321 Q 1350 319 1350 311 Q 1348 308 1349 305 Q 1350 302 1352 280 Q 1358 262 1377 270 Q 1401 272 1413 272 L 1490 270 C 1520 269 1532 274 1503 283 Z" fill="lightgray"></path>
      </clipPath>
      <path clip-path="url(#make-me-a-hanzi-clip-13)" d="M 1508 380 L 1487 386 L 1475 381 L 1402 321 L 1389 298 L 1483 278 L 1495 284 " fill="none" id="make-me-a-hanzi-animation-13" stroke-dasharray="393 786" stroke-linecap="round"></path>

      <clipPath id="make-me-a-hanzi-clip-14">
      <path d="M 1533 174 L 1554 180 L 1576 185 L 1656 205 C 1685 212 1673 224 1643 221 L 1487 204 Q 1446 199 1433 196 Q 1428 196 1428 202 L 1445 215 L 1600 301 Q 1630 319 1640 322 Q 1650 324 1654 327 Q 1658 330 1659 341 Q 1659 351 1650 367 Q 1640 383 1639 384 Q 1615 408 1610 395 L 1607 385 Q 1606 383 1605 377 Q 1603 370 1575 342 L 1542 313 L 1503 283 L 1490 270 L 1381 204 L 1365 196 L 1339 186 Q 1331 178 1350 156 Q 1368 134 1378 126 L 1381 126 L 1384 128 L 1402 135 Q 1422 144 1437 148 L 1466 157 L 1494 164 L 1533 174 Z" fill="lightgray"></path>
      </clipPath>
      <path clip-path="url(#make-me-a-hanzi-clip-14)" d="M 1619 387 L 1624 349 L 1497 258 L 1421 215 L 1410 202 L 1403 175 L 1437 172 L 1639 211 L 1649 206 " fill="none" id="make-me-a-hanzi-animation-14" stroke-dasharray="706 1412" stroke-linecap="round"></path>

      <clipPath id="make-me-a-hanzi-clip-15">
      <path d="M 1656 205 L 1686 173 Q 1703 155 1712 156.5 Q 1721 158 1727 165 Q 1733 172 1735.5 192.5 Q 1738 213 1719.5 228.5 Q 1701 244 1675.5 254 Q 1650 264 1642 265 L 1623 269 Q 1616 270 1613 267 Q 1611 263 1615 259 L 1643 221 L 1656 205 Z" fill="lightgray"></path>
      </clipPath>
      <path clip-path="url(#make-me-a-hanzi-clip-15)" d="M 1619 264 L 1696 208 L 1705 198 L 1711 173 " fill="none" id="make-me-a-hanzi-animation-15" stroke-dasharray="262 524" stroke-linecap="round"></path>

      <clipPath id="make-me-a-hanzi-clip-16">
      <path d="M 1494 164 L 1499 149 Q 1509 123 1509 68 L 1510 2 Q 1510 -18 1507 -30 Q 1502 -39 1498 -42 Q 1493 -44 1481 -42 L 1450 -38 L 1436 -34 Q 1427 -34 1426 -38 Q 1424 -42 1430 -48 L 1462 -74 Q 1473 -84 1491 -105 Q 1508 -126 1518 -127 Q 1527 -128 1543 -110 Q 1558 -92 1560 -81 Q 1561 -70 1565 -34 L 1566 70 L 1568 106 Q 1568 121 1569 122 L 1577 141 Q 1577 159 1533 174 C 1505 184 1485 192 1494 164 Z" fill="lightgray"></path>
      </clipPath>
      <path clip-path="url(#make-me-a-hanzi-clip-16)" d="M 1502 158 L 1538 136 L 1535 -41 L 1521 -73 L 1512 -76 L 1433 -41 " fill="none" id="make-me-a-hanzi-animation-16" stroke-dasharray="478 956" stroke-linecap="round"></path>

      <clipPath id="make-me-a-hanzi-clip-17">
      <path d="M 1227 -69 Q 1220 -73 1222 -80 Q 1224 -87 1233 -82 L 1254 -76 Q 1284 -69 1333 -31 L 1369 2 L 1388 15 Q 1401 22 1403 26 Q 1405 34 1404.5 38 Q 1404 42 1395 56 L 1383 68 Q 1377 74 1365 80 Q 1350 85 1347 84.5 Q 1344 84 1341 80.5 Q 1338 77 1337.5 65.5 Q 1337 54 1329.5 43.5 Q 1322 33 1297 2 Q 1269 -30 1265 -34 L 1239 -59 L 1227 -69 Z" fill="lightgray"></path>
      </clipPath>
      <path clip-path="url(#make-me-a-hanzi-clip-17)" d="M 1349 75 L 1365 39 L 1286 -41 L 1228 -76 " fill="none" id="make-me-a-hanzi-animation-17" stroke-dasharray="348 696" stroke-linecap="round"></path>

      <clipPath id="make-me-a-hanzi-clip-18">
      <path d="M 1666 80 Q 1685 62 1705 25 L 1736 -20 Q 1756 -50 1775 -50 Q 1784 -50 1792.5 -39 Q 1801 -28 1801 -12 Q 1801 40 1742 74 L 1701 95 L 1656 114 Q 1650 116 1647 111 Q 1644 106 1650 100 L 1666 80 Z" fill="lightgray"></path>
      </clipPath>
      <path clip-path="url(#make-me-a-hanzi-clip-18)" d="M 1653 107 L 1699 74 L 1743 32 L 1765 1 L 1774 -31 " fill="none" id="make-me-a-hanzi-animation-18" stroke-dasharray="317 634" stroke-linecap="round"></path>

</g>
</svg>
