<svg version="1.1" viewBox="0 0 2048 1024" xmlns="http://www.w3.org/2000/svg">
  <g stroke="lightgray" stroke-dasharray="1,1" stroke-width="1" transform="scale(4, 4)">
    <line x1="0" y1="0" x2="256" y2="256"></line>
    <line x1="256" y1="0" x2="0" y2="256"></line>
    <line x1="128" y1="0" x2="128" y2="256"></line>
    <line x1="0" y1="128" x2="256" y2="128"></line>
    <line x1="256" y1="0" x2="512" y2="256"></line>
    <line x1="512" y1="0" x2="256" y2="256"></line>
    <line x1="384" y1="0" x2="384" y2="256"></line>
    <line x1="256" y1="128" x2="512" y2="128"></line>
  </g>
<g transform="scale(1, -1) translate(0, -850)">
   <style type="text/css">
    @keyframes keyframes0 {
      from {
       stroke: black;
       stroke-dashoffset: 1059;
       stroke-width: 128;
       }
       78% {
       animation-timing-function: step-end;
       stroke: black;
       stroke-dashoffset: 0;
       stroke-width: 128;
       }
       to {
       stroke: black;
       stroke-width: 1024;
       }
       }
       #make-me-a-hanzi-animation-0 {
         animation: keyframes0 1.111816s both;
         animation-delay: 0.000000s;
         animation-timing-function: linear;
       }
    @keyframes keyframes1 {
      from {
       stroke: black;
       stroke-dashoffset: 620;
       stroke-width: 128;
       }
       67% {
       animation-timing-function: step-end;
       stroke: black;
       stroke-dashoffset: 0;
       stroke-width: 128;
       }
       to {
       stroke: black;
       stroke-width: 1024;
       }
       }
       #make-me-a-hanzi-animation-1 {
         animation: keyframes1 0.754557s both;
         animation-delay: 1.111816s;
         animation-timing-function: linear;
       }
    @keyframes keyframes2 {
      from {
       stroke: black;
       stroke-dashoffset: 689;
       stroke-width: 128;
       }
       69% {
       animation-timing-function: step-end;
       stroke: black;
       stroke-dashoffset: 0;
       stroke-width: 128;
       }
       to {
       stroke: black;
       stroke-width: 1024;
       }
       }
       #make-me-a-hanzi-animation-2 {
         animation: keyframes2 0.810710s both;
         animation-delay: 1.866374s;
         animation-timing-function: linear;
       }
    @keyframes keyframes3 {
      from {
       stroke: black;
       stroke-dashoffset: 938;
       stroke-width: 128;
       }
       75% {
       animation-timing-function: step-end;
       stroke: black;
       stroke-dashoffset: 0;
       stroke-width: 128;
       }
       to {
       stroke: black;
       stroke-width: 1024;
       }
       }
       #make-me-a-hanzi-animation-3 {
         animation: keyframes3 1.013346s both;
         animation-delay: 2.677083s;
         animation-timing-function: linear;
       }
    @keyframes keyframes4 {
      from {
       stroke: black;
       stroke-dashoffset: 965;
       stroke-width: 128;
       }
       76% {
       animation-timing-function: step-end;
       stroke: black;
       stroke-dashoffset: 0;
       stroke-width: 128;
       }
       to {
       stroke: black;
       stroke-width: 1024;
       }
       }
       #make-me-a-hanzi-animation-4 {
         animation: keyframes4 1.035319s both;
         animation-delay: 3.690430s;
         animation-timing-function: linear;
       }
    @keyframes keyframes5 {
      from {
       stroke: black;
       stroke-dashoffset: 1005;
       stroke-width: 128;
       }
       77% {
       animation-timing-function: step-end;
       stroke: black;
       stroke-dashoffset: 0;
       stroke-width: 128;
       }
       to {
       stroke: black;
       stroke-width: 1024;
       }
       }
       #make-me-a-hanzi-animation-5 {
         animation: keyframes5 1.067871s both;
         animation-delay: 4.725749s;
         animation-timing-function: linear;
       }
    @keyframes keyframes6 {
      from {
       stroke: black;
       stroke-dashoffset: 391;
       stroke-width: 128;
       }
       56% {
       animation-timing-function: step-end;
       stroke: black;
       stroke-dashoffset: 0;
       stroke-width: 128;
       }
       to {
       stroke: black;
       stroke-width: 1024;
       }
       }
       #make-me-a-hanzi-animation-6 {
         animation: keyframes6 0.568197s both;
         animation-delay: 5.793620s;
         animation-timing-function: linear;
       }
    @keyframes keyframes7 {
      from {
       stroke: black;
       stroke-dashoffset: 382;
       stroke-width: 128;
       }
       55% {
       animation-timing-function: step-end;
       stroke: black;
       stroke-dashoffset: 0;
       stroke-width: 128;
       }
       to {
       stroke: black;
       stroke-width: 1024;
       }
       }
       #make-me-a-hanzi-animation-7 {
         animation: keyframes7 0.560872s both;
         animation-delay: 6.361816s;
         animation-timing-function: linear;
       }
    @keyframes keyframes8 {
      from {
       stroke: black;
       stroke-dashoffset: 577;
       stroke-width: 128;
       }
       65% {
       animation-timing-function: step-end;
       stroke: black;
       stroke-dashoffset: 0;
       stroke-width: 128;
       }
       to {
       stroke: black;
       stroke-width: 1024;
       }
       }
       #make-me-a-hanzi-animation-8 {
         animation: keyframes8 0.719564s both;
         animation-delay: 6.922689s;
         animation-timing-function: linear;
       }
    @keyframes keyframes9 {
      from {
       stroke: black;
       stroke-dashoffset: 707;
       stroke-width: 128;
       }
       70% {
       animation-timing-function: step-end;
       stroke: black;
       stroke-dashoffset: 0;
       stroke-width: 128;
       }
       to {
       stroke: black;
       stroke-width: 1024;
       }
       }
       #make-me-a-hanzi-animation-9 {
         animation: keyframes9 0.825358s both;
         animation-delay: 7.642253s;
         animation-timing-function: linear;
       }
    @keyframes keyframes10 {
      from {
       stroke: black;
       stroke-dashoffset: 883;
       stroke-width: 128;
       }
       74% {
       animation-timing-function: step-end;
       stroke: black;
       stroke-dashoffset: 0;
       stroke-width: 128;
       }
       to {
       stroke: black;
       stroke-width: 1024;
       }
       }
       #make-me-a-hanzi-animation-10 {
         animation: keyframes10 0.968587s both;
         animation-delay: 8.467611s;
         animation-timing-function: linear;
       }
    @keyframes keyframes11 {
      from {
       stroke: black;
       stroke-dashoffset: 895;
       stroke-width: 128;
       }
       74% {
       animation-timing-function: step-end;
       stroke: black;
       stroke-dashoffset: 0;
       stroke-width: 128;
       }
       to {
       stroke: black;
       stroke-width: 1024;
       }
       }
       #make-me-a-hanzi-animation-11 {
         animation: keyframes11 0.978353s both;
         animation-delay: 9.436198s;
         animation-timing-function: linear;
       }
    @keyframes keyframes12 {
      from {
       stroke: black;
       stroke-dashoffset: 448;
       stroke-width: 128;
       }
       59% {
       animation-timing-function: step-end;
       stroke: black;
       stroke-dashoffset: 0;
       stroke-width: 128;
       }
       to {
       stroke: black;
       stroke-width: 1024;
       }
       }
       #make-me-a-hanzi-animation-12 {
         animation: keyframes12 0.614583s both;
         animation-delay: 10.414551s;
         animation-timing-function: linear;
       }
    @keyframes keyframes13 {
      from {
       stroke: black;
       stroke-dashoffset: 633;
       stroke-width: 128;
       }
       67% {
       animation-timing-function: step-end;
       stroke: black;
       stroke-dashoffset: 0;
       stroke-width: 128;
       }
       to {
       stroke: black;
       stroke-width: 1024;
       }
       }
       #make-me-a-hanzi-animation-13 {
         animation: keyframes13 0.765137s both;
         animation-delay: 11.029134s;
         animation-timing-function: linear;
       }
    @keyframes keyframes14 {
      from {
       stroke: black;
       stroke-dashoffset: 1189;
       stroke-width: 128;
       }
       79% {
       animation-timing-function: step-end;
       stroke: black;
       stroke-dashoffset: 0;
       stroke-width: 128;
       }
       to {
       stroke: black;
       stroke-width: 1024;
       }
       }
       #make-me-a-hanzi-animation-14 {
         animation: keyframes14 1.217611s both;
         animation-delay: 11.794271s;
         animation-timing-function: linear;
       }
</style>
<path d="M 347 472 Q 338 471 324 464 Q 250 432 152 417 Q 135 413 135 404 Q 137 392 162 384 Q 174 377 208 377 Q 216 378 311 409 Q 324 409 324 396 Q 324 368 305 293 Q 297 260 288 230 L 267 177 Q 249 134 226 109 Q 172 43 66 1 Q 47 -5 47 -11 Q 47 -18 76 -19 Q 123 -17 183 12 Q 245 45 286 99 Q 298 115 309 135 L 338 200 Q 351 234 362 278 Q 382 355 406 397 Q 420 418 420 428 Q 420 437 387 455 Q 354 472 347 472 Z" fill="lightgray"></path> 
<path d="M 288 230 L 287 231 Q 174 297 160 297 Q 152 297 152 293 Q 152 285 228 213 Q 249 195 267 177 L 309 135 Q 344 100 369 72 Q 403 33 420 33 Q 435 33 435 60 Q 435 134 338 200 L 288 230 Z" fill="lightgray"></path> 
<path d="M 468 577 Q 456 577 456 568 Q 456 566 464 551 Q 479 520 479 484 Q 479 334 476 280 Q 464 209 464 193 Q 464 182 471 163 Q 485 136 500 136 Q 511 136 515 152 Q 523 169 523 213 L 523 529 L 517 558 Q 515 563 510 566 Q 493 575 468 577 Z" fill="lightgray"></path> 
<path d="M 523 529 Q 546 531 623 551 Q 697 568 712 568 Q 739 568 739 516 L 739 353 Q 739 315 737 270 Q 731 220 731 184 Q 731 178 746 156 Q 759 140 775 140 Q 788 140 793 176 Q 794 204 794 427 Q 794 517 808 551 Q 815 571 815 577 Q 815 589 788 610 Q 757 633 735 633 Q 725 633 677 610 Q 612 578 517 558 C 488 552 493 524 523 529 Z" fill="lightgray"></path> 
<path d="M 599 453 Q 588 453 588 440 Q 588 437 594 422 Q 599 407 599 373 L 599 352 Q 599 208 559 113 Q 499 -31 384 -101 Q 332 -126 332 -135 Q 340 -139 347 -139 Q 418 -139 514 -50 Q 606 38 640 219 L 643 240 Q 664 358 670 380 Q 676 391 676 397 L 676 401 Q 676 414 641 434 Q 609 451 599 453 Z" fill="lightgray"></path> 
<path d="M 640 219 Q 647 191 647 180 L 647 -11 Q 647 -80 676 -106 Q 717 -147 793 -147 Q 882 -147 939 -120 Q 983 -100 983 -76 Q 983 -68 969 -49 Q 949 -11 932 47 Q 916 92 907 92 Q 904 92 903 72 Q 896 -13 884 -46 Q 878 -65 859 -78 Q 835 -95 793 -95 Q 741 -95 715 -76 Q 691 -54 691 -11 Q 691 103 699 164 Q 703 186 703 193 Q 703 206 680 222 Q 656 238 643 240 C 635 243 635 243 640 219 Z" fill="lightgray"></path> 
<path d="M 1224 581 Q 1203 581 1203 577 Q 1203 571 1236 518 Q 1274 461 1299 461 Q 1323 461 1323 488 Q 1323 508 1316 527 Q 1302 556 1274 568 Q 1251 579 1224 581 Z" fill="lightgray"></path> 
<path d="M 1148 384 Q 1127 384 1127 381 Q 1127 376 1161 333 Q 1200 285 1228 285 Q 1251 285 1251 312 Q 1251 328 1243 343 Q 1230 366 1199 375 Q 1176 384 1148 384 Z" fill="lightgray"></path> 
<path d="M 1287 213 Q 1285 213 1219 92 Q 1187 33 1155 16 Q 1140 9 1140 -3 Q 1140 -27 1160 -63 Q 1181 -99 1195 -99 Q 1207 -99 1211 -80 Q 1215 -50 1257 72 Q 1295 189 1295 205 Q 1295 213 1287 213 Z" fill="lightgray"></path> 
<path d="M 1371 560 Q 1360 559 1360 549 Q 1360 546 1372 520 Q 1383 493 1383 461 L 1383 312 Q 1383 253 1374 199 Q 1364 175 1364 165 Q 1364 151 1374 128 Q 1389 100 1396 100 Q 1412 100 1419 124 Q 1422 153 1423 193 L 1423 417 Q 1423 455 1430 506 C 1433 529 1433 529 1427 534 Q 1422 542 1403 550 Q 1382 560 1371 560 Z" fill="lightgray"></path> 
<path d="M 1430 506 Q 1431 505 1432 505 Q 1443 505 1510 518 Q 1565 528 1576 528 Q 1599 528 1599 476 L 1599 313 Q 1599 275 1598 230 Q 1595 180 1595 144 Q 1595 139 1607 119 Q 1618 104 1631 104 Q 1642 104 1647 141 Q 1648 169 1648 393 Q 1648 484 1660 519 Q 1667 540 1667 545 Q 1667 555 1644 573 Q 1618 593 1599 593 Q 1591 593 1554 574 Q 1503 549 1427 534 C 1398 528 1400 504 1430 506 Z" fill="lightgray"></path> 
<path d="M 1480 425 Q 1467 425 1467 417 Q 1467 411 1474 399 Q 1492 368 1492 325 Q 1492 211 1467 128 Q 1448 55 1415 6 Q 1383 -46 1316 -99 Q 1287 -117 1287 -124 Q 1287 -128 1295 -128 Q 1323 -128 1376 -87 Q 1434 -40 1464 19 Q 1506 89 1533 248 Q 1544 329 1552 353 Q 1560 375 1560 381 Q 1560 398 1526 413 Q 1498 425 1480 425 Z" fill="lightgray"></path> 
<path d="M 1532 81 Q 1528 81 1528 73 Q 1528 68 1553 33 Q 1578 -1 1612 -56 Q 1634 -95 1652 -95 Q 1679 -95 1679 -59 Q 1679 -39 1665 -12 Q 1645 18 1577 60 Q 1543 81 1532 81 Z" fill="lightgray"></path> 
<path d="M 1727 505 Q 1715 505 1715 497 Q 1715 494 1723 478 Q 1740 449 1740 413 Q 1739 291 1736 247 Q 1719 189 1719 176 Q 1719 167 1727 146 Q 1742 121 1755 121 Q 1766 121 1772 135 Q 1780 153 1780 197 L 1784 465 Q 1784 485 1769 494 Q 1752 504 1727 505 Z" fill="lightgray"></path> 
<path d="M 1847 673 Q 1835 673 1835 660 Q 1835 656 1845 642 Q 1872 609 1872 537 L 1872 -28 Q 1872 -65 1839 -68 Q 1839 -65 1808 -55 Q 1774 -40 1763 -40 Q 1759 -40 1759 -43 Q 1760 -50 1768 -57 Q 1789 -74 1846 -161 Q 1854 -175 1864 -175 Q 1896 -175 1916 -135 Q 1935 -86 1935 -36 Q 1935 -10 1928 69 Q 1923 132 1923 488 Q 1923 542 1935 584 Q 1942 608 1944 612 Q 1944 632 1903 654 Q 1870 673 1847 673 Z" fill="lightgray"></path> 
      <clipPath id="make-me-a-hanzi-clip-0">
      <path d="M 347 472 Q 338 471 324 464 Q 250 432 152 417 Q 135 413 135 404 Q 137 392 162 384 Q 174 377 208 377 Q 216 378 311 409 Q 324 409 324 396 Q 324 368 305 293 Q 297 260 288 230 L 267 177 Q 249 134 226 109 Q 172 43 66 1 Q 47 -5 47 -11 Q 47 -18 76 -19 Q 123 -17 183 12 Q 245 45 286 99 Q 298 115 309 135 L 338 200 Q 351 234 362 278 Q 382 355 406 397 Q 420 418 420 428 Q 420 437 387 455 Q 354 472 347 472 Z" fill="lightgray"></path>
      </clipPath>
      <path clip-path="url(#make-me-a-hanzi-clip-0)" d="M 144 404 L 205 401 L 329 435 L 347 433 L 365 412 L 317 227 L 287 153 L 261 110 L 224 69 L 166 27 L 108 1 L 53 -11 " fill="none" id="make-me-a-hanzi-animation-0" stroke-dasharray="931 1862" stroke-linecap="round"></path>

      <clipPath id="make-me-a-hanzi-clip-1">
      <path d="M 288 230 L 287 231 Q 174 297 160 297 Q 152 297 152 293 Q 152 285 228 213 Q 249 195 267 177 L 309 135 Q 344 100 369 72 Q 403 33 420 33 Q 435 33 435 60 Q 435 134 338 200 L 288 230 Z" fill="lightgray"></path>
      </clipPath>
      <path clip-path="url(#make-me-a-hanzi-clip-1)" d="M 157 293 L 263 218 L 353 143 L 395 93 L 419 47 " fill="none" id="make-me-a-hanzi-animation-1" stroke-dasharray="492 984" stroke-linecap="round"></path>

      <clipPath id="make-me-a-hanzi-clip-2">
      <path d="M 468 577 Q 456 577 456 568 Q 456 566 464 551 Q 479 520 479 484 Q 479 334 476 280 Q 464 209 464 193 Q 464 182 471 163 Q 485 136 500 136 Q 511 136 515 152 Q 523 169 523 213 L 523 529 L 517 558 Q 515 563 510 566 Q 493 575 468 577 Z" fill="lightgray"></path>
      </clipPath>
      <path clip-path="url(#make-me-a-hanzi-clip-2)" d="M 465 568 L 494 546 L 500 521 L 501 300 L 493 195 L 499 151 " fill="none" id="make-me-a-hanzi-animation-2" stroke-dasharray="561 1122" stroke-linecap="round"></path>

      <clipPath id="make-me-a-hanzi-clip-3">
      <path d="M 523 529 Q 546 531 623 551 Q 697 568 712 568 Q 739 568 739 516 L 739 353 Q 739 315 737 270 Q 731 220 731 184 Q 731 178 746 156 Q 759 140 775 140 Q 788 140 793 176 Q 794 204 794 427 Q 794 517 808 551 Q 815 571 815 577 Q 815 589 788 610 Q 757 633 735 633 Q 725 633 677 610 Q 612 578 517 558 C 488 552 493 524 523 529 Z" fill="lightgray"></path>
      </clipPath>
      <path clip-path="url(#make-me-a-hanzi-clip-3)" d="M 526 537 L 535 546 L 718 597 L 742 596 L 771 570 L 762 190 L 772 155 " fill="none" id="make-me-a-hanzi-animation-3" stroke-dasharray="810 1620" stroke-linecap="round"></path>

      <clipPath id="make-me-a-hanzi-clip-4">
      <path d="M 599 453 Q 588 453 588 440 Q 588 437 594 422 Q 599 407 599 373 L 599 352 Q 599 208 559 113 Q 499 -31 384 -101 Q 332 -126 332 -135 Q 340 -139 347 -139 Q 418 -139 514 -50 Q 606 38 640 219 L 643 240 Q 664 358 670 380 Q 676 391 676 397 L 676 401 Q 676 414 641 434 Q 609 451 599 453 Z" fill="lightgray"></path>
      </clipPath>
      <path clip-path="url(#make-me-a-hanzi-clip-4)" d="M 598 442 L 631 402 L 634 377 L 614 214 L 598 145 L 575 85 L 542 22 L 492 -41 L 423 -98 L 340 -136 " fill="none" id="make-me-a-hanzi-animation-4" stroke-dasharray="837 1674" stroke-linecap="round"></path>

      <clipPath id="make-me-a-hanzi-clip-5">
      <path d="M 640 219 Q 647 191 647 180 L 647 -11 Q 647 -80 676 -106 Q 717 -147 793 -147 Q 882 -147 939 -120 Q 983 -100 983 -76 Q 983 -68 969 -49 Q 949 -11 932 47 Q 916 92 907 92 Q 904 92 903 72 Q 896 -13 884 -46 Q 878 -65 859 -78 Q 835 -95 793 -95 Q 741 -95 715 -76 Q 691 -54 691 -11 Q 691 103 699 164 Q 703 186 703 193 Q 703 206 680 222 Q 656 238 643 240 C 635 243 635 243 640 219 Z" fill="lightgray"></path>
      </clipPath>
      <path clip-path="url(#make-me-a-hanzi-clip-5)" d="M 647 234 L 671 198 L 675 177 L 668 29 L 673 -50 L 685 -80 L 707 -100 L 754 -118 L 833 -119 L 875 -107 L 916 -82 L 926 -64 L 917 53 L 908 88 " fill="none" id="make-me-a-hanzi-animation-5" stroke-dasharray="877 1754" stroke-linecap="round"></path>

      <clipPath id="make-me-a-hanzi-clip-6">
      <path d="M 1224 581 Q 1203 581 1203 577 Q 1203 571 1236 518 Q 1274 461 1299 461 Q 1323 461 1323 488 Q 1323 508 1316 527 Q 1302 556 1274 568 Q 1251 579 1224 581 Z" fill="lightgray"></path>
      </clipPath>
      <path clip-path="url(#make-me-a-hanzi-clip-6)" d="M 1207 576 L 1271 529 L 1301 482 " fill="none" id="make-me-a-hanzi-animation-6" stroke-dasharray="263 526" stroke-linecap="round"></path>

      <clipPath id="make-me-a-hanzi-clip-7">
      <path d="M 1148 384 Q 1127 384 1127 381 Q 1127 376 1161 333 Q 1200 285 1228 285 Q 1251 285 1251 312 Q 1251 328 1243 343 Q 1230 366 1199 375 Q 1176 384 1148 384 Z" fill="lightgray"></path>
      </clipPath>
      <path clip-path="url(#make-me-a-hanzi-clip-7)" d="M 1131 380 L 1195 343 L 1230 305 " fill="none" id="make-me-a-hanzi-animation-7" stroke-dasharray="254 508" stroke-linecap="round"></path>

      <clipPath id="make-me-a-hanzi-clip-8">
      <path d="M 1287 213 Q 1285 213 1219 92 Q 1187 33 1155 16 Q 1140 9 1140 -3 Q 1140 -27 1160 -63 Q 1181 -99 1195 -99 Q 1207 -99 1211 -80 Q 1215 -50 1257 72 Q 1295 189 1295 205 Q 1295 213 1287 213 Z" fill="lightgray"></path>
      </clipPath>
      <path clip-path="url(#make-me-a-hanzi-clip-8)" d="M 1195 -86 L 1184 -15 L 1233 67 L 1291 209 " fill="none" id="make-me-a-hanzi-animation-8" stroke-dasharray="449 898" stroke-linecap="round"></path>

      <clipPath id="make-me-a-hanzi-clip-9">
      <path d="M 1371 560 Q 1360 559 1360 549 Q 1360 546 1372 520 Q 1383 493 1383 461 L 1383 312 Q 1383 253 1374 199 Q 1364 175 1364 165 Q 1364 151 1374 128 Q 1389 100 1396 100 Q 1412 100 1419 124 Q 1422 153 1423 193 L 1423 417 Q 1423 455 1430 506 C 1433 529 1433 529 1427 534 Q 1422 542 1403 550 Q 1382 560 1371 560 Z" fill="lightgray"></path>
      </clipPath>
      <path clip-path="url(#make-me-a-hanzi-clip-9)" d="M 1372 548 L 1401 521 L 1405 501 L 1402 245 L 1393 163 L 1398 111 " fill="none" id="make-me-a-hanzi-animation-9" stroke-dasharray="579 1158" stroke-linecap="round"></path>

      <clipPath id="make-me-a-hanzi-clip-10">
      <path d="M 1430 506 Q 1431 505 1432 505 Q 1443 505 1510 518 Q 1565 528 1576 528 Q 1599 528 1599 476 L 1599 313 Q 1599 275 1598 230 Q 1595 180 1595 144 Q 1595 139 1607 119 Q 1618 104 1631 104 Q 1642 104 1647 141 Q 1648 169 1648 393 Q 1648 484 1660 519 Q 1667 540 1667 545 Q 1667 555 1644 573 Q 1618 593 1599 593 Q 1591 593 1554 574 Q 1503 549 1427 534 C 1398 528 1400 504 1430 506 Z" fill="lightgray"></path>
      </clipPath>
      <path clip-path="url(#make-me-a-hanzi-clip-10)" d="M 1435 513 L 1444 522 L 1495 530 L 1574 555 L 1603 556 L 1625 538 L 1621 148 L 1628 116 " fill="none" id="make-me-a-hanzi-animation-10" stroke-dasharray="755 1510" stroke-linecap="round"></path>

      <clipPath id="make-me-a-hanzi-clip-11">
      <path d="M 1480 425 Q 1467 425 1467 417 Q 1467 411 1474 399 Q 1492 368 1492 325 Q 1492 211 1467 128 Q 1448 55 1415 6 Q 1383 -46 1316 -99 Q 1287 -117 1287 -124 Q 1287 -128 1295 -128 Q 1323 -128 1376 -87 Q 1434 -40 1464 19 Q 1506 89 1533 248 Q 1544 329 1552 353 Q 1560 375 1560 381 Q 1560 398 1526 413 Q 1498 425 1480 425 Z" fill="lightgray"></path>
      </clipPath>
      <path clip-path="url(#make-me-a-hanzi-clip-11)" d="M 1477 415 L 1522 373 L 1508 221 L 1476 88 L 1446 21 L 1405 -38 L 1344 -94 L 1292 -123 " fill="none" id="make-me-a-hanzi-animation-11" stroke-dasharray="767 1534" stroke-linecap="round"></path>

      <clipPath id="make-me-a-hanzi-clip-12">
      <path d="M 1532 81 Q 1528 81 1528 73 Q 1528 68 1553 33 Q 1578 -1 1612 -56 Q 1634 -95 1652 -95 Q 1679 -95 1679 -59 Q 1679 -39 1665 -12 Q 1645 18 1577 60 Q 1543 81 1532 81 Z" fill="lightgray"></path>
      </clipPath>
      <path clip-path="url(#make-me-a-hanzi-clip-12)" d="M 1534 75 L 1610 3 L 1638 -33 L 1654 -72 " fill="none" id="make-me-a-hanzi-animation-12" stroke-dasharray="320 640" stroke-linecap="round"></path>

      <clipPath id="make-me-a-hanzi-clip-13">
      <path d="M 1727 505 Q 1715 505 1715 497 Q 1715 494 1723 478 Q 1740 449 1740 413 Q 1739 291 1736 247 Q 1719 189 1719 176 Q 1719 167 1727 146 Q 1742 121 1755 121 Q 1766 121 1772 135 Q 1780 153 1780 197 L 1784 465 Q 1784 485 1769 494 Q 1752 504 1727 505 Z" fill="lightgray"></path>
      </clipPath>
      <path clip-path="url(#make-me-a-hanzi-clip-13)" d="M 1724 496 L 1753 475 L 1761 442 L 1760 268 L 1749 175 L 1755 136 " fill="none" id="make-me-a-hanzi-animation-13" stroke-dasharray="505 1010" stroke-linecap="round"></path>

      <clipPath id="make-me-a-hanzi-clip-14">
      <path d="M 1847 673 Q 1835 673 1835 660 Q 1835 656 1845 642 Q 1872 609 1872 537 L 1872 -28 Q 1872 -65 1839 -68 Q 1839 -65 1808 -55 Q 1774 -40 1763 -40 Q 1759 -40 1759 -43 Q 1760 -50 1768 -57 Q 1789 -74 1846 -161 Q 1854 -175 1864 -175 Q 1896 -175 1916 -135 Q 1935 -86 1935 -36 Q 1935 -10 1928 69 Q 1923 132 1923 488 Q 1923 542 1935 584 Q 1942 608 1944 612 Q 1944 632 1903 654 Q 1870 673 1847 673 Z" fill="lightgray"></path>
      </clipPath>
      <path clip-path="url(#make-me-a-hanzi-clip-14)" d="M 1846 662 L 1883 634 L 1903 604 L 1897 482 L 1902 -55 L 1894 -79 L 1872 -111 L 1843 -100 L 1794 -61 L 1764 -45 " fill="none" id="make-me-a-hanzi-animation-14" stroke-dasharray="1061 2122" stroke-linecap="round"></path>

</g>
</svg>
