<svg version="1.1" viewBox="0 0 2048 1024" xmlns="http://www.w3.org/2000/svg">
  <g stroke="lightgray" stroke-dasharray="1,1" stroke-width="1" transform="scale(4, 4)">
    <line x1="0" y1="0" x2="256" y2="256"></line>
    <line x1="256" y1="0" x2="0" y2="256"></line>
    <line x1="128" y1="0" x2="128" y2="256"></line>
    <line x1="0" y1="128" x2="256" y2="128"></line>
    <line x1="256" y1="0" x2="512" y2="256"></line>
    <line x1="512" y1="0" x2="256" y2="256"></line>
    <line x1="384" y1="0" x2="384" y2="256"></line>
    <line x1="256" y1="128" x2="512" y2="128"></line>
  </g>
<g transform="scale(1, -1) translate(0, -850)">
   <style type="text/css">
    @keyframes keyframes0 {
      from {
       stroke: black;
       stroke-dashoffset: 416;
       stroke-width: 128;
       }
       58% {
       animation-timing-function: step-end;
       stroke: black;
       stroke-dashoffset: 0;
       stroke-width: 128;
       }
       to {
       stroke: black;
       stroke-width: 1024;
       }
       }
       #make-me-a-hanzi-animation-0 {
         animation: keyframes0 0.588542s both;
         animation-delay: 0.000000s;
         animation-timing-function: linear;
       }
    @keyframes keyframes1 {
      from {
       stroke: black;
       stroke-dashoffset: 936;
       stroke-width: 128;
       }
       75% {
       animation-timing-function: step-end;
       stroke: black;
       stroke-dashoffset: 0;
       stroke-width: 128;
       }
       to {
       stroke: black;
       stroke-width: 1024;
       }
       }
       #make-me-a-hanzi-animation-1 {
         animation: keyframes1 1.011719s both;
         animation-delay: 0.588542s;
         animation-timing-function: linear;
       }
    @keyframes keyframes2 {
      from {
       stroke: black;
       stroke-dashoffset: 1070;
       stroke-width: 128;
       }
       78% {
       animation-timing-function: step-end;
       stroke: black;
       stroke-dashoffset: 0;
       stroke-width: 128;
       }
       to {
       stroke: black;
       stroke-width: 1024;
       }
       }
       #make-me-a-hanzi-animation-2 {
         animation: keyframes2 1.120768s both;
         animation-delay: 1.600260s;
         animation-timing-function: linear;
       }
    @keyframes keyframes3 {
      from {
       stroke: black;
       stroke-dashoffset: 848;
       stroke-width: 128;
       }
       73% {
       animation-timing-function: step-end;
       stroke: black;
       stroke-dashoffset: 0;
       stroke-width: 128;
       }
       to {
       stroke: black;
       stroke-width: 1024;
       }
       }
       #make-me-a-hanzi-animation-3 {
         animation: keyframes3 0.940104s both;
         animation-delay: 2.721029s;
         animation-timing-function: linear;
       }
    @keyframes keyframes4 {
      from {
       stroke: black;
       stroke-dashoffset: 401;
       stroke-width: 128;
       }
       57% {
       animation-timing-function: step-end;
       stroke: black;
       stroke-dashoffset: 0;
       stroke-width: 128;
       }
       to {
       stroke: black;
       stroke-width: 1024;
       }
       }
       #make-me-a-hanzi-animation-4 {
         animation: keyframes4 0.576335s both;
         animation-delay: 3.661133s;
         animation-timing-function: linear;
       }
    @keyframes keyframes5 {
      from {
       stroke: black;
       stroke-dashoffset: 438;
       stroke-width: 128;
       }
       59% {
       animation-timing-function: step-end;
       stroke: black;
       stroke-dashoffset: 0;
       stroke-width: 128;
       }
       to {
       stroke: black;
       stroke-width: 1024;
       }
       }
       #make-me-a-hanzi-animation-5 {
         animation: keyframes5 0.606445s both;
         animation-delay: 4.237467s;
         animation-timing-function: linear;
       }
    @keyframes keyframes6 {
      from {
       stroke: black;
       stroke-dashoffset: 920;
       stroke-width: 128;
       }
       75% {
       animation-timing-function: step-end;
       stroke: black;
       stroke-dashoffset: 0;
       stroke-width: 128;
       }
       to {
       stroke: black;
       stroke-width: 1024;
       }
       }
       #make-me-a-hanzi-animation-6 {
         animation: keyframes6 0.998698s both;
         animation-delay: 4.843913s;
         animation-timing-function: linear;
       }
    @keyframes keyframes7 {
      from {
       stroke: black;
       stroke-dashoffset: 583;
       stroke-width: 128;
       }
       65% {
       animation-timing-function: step-end;
       stroke: black;
       stroke-dashoffset: 0;
       stroke-width: 128;
       }
       to {
       stroke: black;
       stroke-width: 1024;
       }
       }
       #make-me-a-hanzi-animation-7 {
         animation: keyframes7 0.724447s both;
         animation-delay: 5.842611s;
         animation-timing-function: linear;
       }
    @keyframes keyframes8 {
      from {
       stroke: black;
       stroke-dashoffset: 576;
       stroke-width: 128;
       }
       65% {
       animation-timing-function: step-end;
       stroke: black;
       stroke-dashoffset: 0;
       stroke-width: 128;
       }
       to {
       stroke: black;
       stroke-width: 1024;
       }
       }
       #make-me-a-hanzi-animation-8 {
         animation: keyframes8 0.718750s both;
         animation-delay: 6.567057s;
         animation-timing-function: linear;
       }
    @keyframes keyframes9 {
      from {
       stroke: black;
       stroke-dashoffset: 443;
       stroke-width: 128;
       }
       59% {
       animation-timing-function: step-end;
       stroke: black;
       stroke-dashoffset: 0;
       stroke-width: 128;
       }
       to {
       stroke: black;
       stroke-width: 1024;
       }
       }
       #make-me-a-hanzi-animation-9 {
         animation: keyframes9 0.610514s both;
         animation-delay: 7.285807s;
         animation-timing-function: linear;
       }
    @keyframes keyframes10 {
      from {
       stroke: black;
       stroke-dashoffset: 679;
       stroke-width: 128;
       }
       69% {
       animation-timing-function: step-end;
       stroke: black;
       stroke-dashoffset: 0;
       stroke-width: 128;
       }
       to {
       stroke: black;
       stroke-width: 1024;
       }
       }
       #make-me-a-hanzi-animation-10 {
         animation: keyframes10 0.802572s both;
         animation-delay: 7.896322s;
         animation-timing-function: linear;
       }
    @keyframes keyframes11 {
      from {
       stroke: black;
       stroke-dashoffset: 940;
       stroke-width: 128;
       }
       75% {
       animation-timing-function: step-end;
       stroke: black;
       stroke-dashoffset: 0;
       stroke-width: 128;
       }
       to {
       stroke: black;
       stroke-width: 1024;
       }
       }
       #make-me-a-hanzi-animation-11 {
         animation: keyframes11 1.014974s both;
         animation-delay: 8.698893s;
         animation-timing-function: linear;
       }
</style>
<path d="M 200 597 Q 179 597 179 593 Q 179 587 221 530 Q 270 469 303 469 Q 328 469 328 497 Q 328 518 317 539 Q 300 570 263 584 Q 234 595 200 597 Z" fill="lightgray"></path> 
<path d="M 256 344 Q 249 344 215 322 Q 152 282 116 281 Q 109 281 84 285 Q 76 284 76 272 Q 76 266 97 253 Q 124 241 139 241 Q 151 241 227 272 Q 236 272 236 268 L 225 84 Q 221 18 188 -27 Q 175 -42 175 -51 Q 175 -70 185 -89 Q 199 -120 212 -120 Q 218 -120 229 -100 Q 278 -30 350 36 Q 391 76 391 81 Q 391 88 380 88 Q 374 88 269 10 L 286 212 Q 290 253 311 278 Q 332 297 332 300 Q 332 315 304 331 Q 278 344 256 344 Z" fill="lightgray"></path> 
<path d="M 548 625 Q 527 625 527 616 Q 527 608 536 593 Q 559 549 559 488 Q 559 342 531 237 Q 509 142 471 79 Q 435 11 356 -56 Q 324 -79 324 -87 Q 324 -91 336 -91 Q 368 -91 431 -40 Q 499 22 535 98 Q 571 165 599 297 L 607 340 Q 611 365 615 393 Q 629 498 639 529 Q 647 557 647 564 Q 647 588 606 608 Q 571 625 548 625 Z" fill="lightgray"></path> 
<path d="M 599 297 Q 616 261 662 157 Q 732 -10 759 -48 Q 780 -84 819 -84 Q 897 -84 947 -74 Q 991 -69 991 -59 Q 991 -53 933 -32 Q 843 4 793 49 Q 743 93 682 216 Q 625 322 608 339 L 607 340 C 588 363 586 324 599 297 Z" fill="lightgray"></path> 
<path d="M 1551 530 L 1560 545 Q 1572 570 1562 589 Q 1552 607 1537 615 Q 1489 646 1453 650 Q 1434 650 1433 646 Q 1432 639 1435 633 Q 1438 626 1465 585 Q 1492 543 1495 540 Q 1498 536 1515 524 C 1538 508 1538 508 1551 530 Z" fill="lightgray"></path> 
<path d="M 1280 506 L 1277 518 Q 1273 530 1266 537 Q 1260 543 1257 544 Q 1254 544 1250 535 L 1227 479 Q 1217 453 1203 434 Q 1190 415 1185 405 Q 1181 394 1181 377 Q 1182 359 1198 348 Q 1207 344 1213 344 Q 1220 344 1234 358 Q 1263 392 1271 424 Q 1280 455 1283 470 L 1280 506 Z" fill="lightgray"></path> 
<path d="M 1327 467 L 1374 475 Q 1392 477 1398 480 L 1593 508 L 1719 518 L 1730 518 Q 1741 518 1746 515 Q 1751 510 1752 505 Q 1754 499 1739 478 L 1704 428 Q 1694 416 1698 414 Q 1706 414 1712 416 L 1739 426 Q 1767 435 1807 443 Q 1848 450 1862 454 Q 1876 457 1881 466 Q 1885 475 1872 496 Q 1863 507 1829 534 Q 1795 561 1780 563 Q 1766 564 1746 560 Q 1727 555 1693 550 L 1551 530 L 1515 524 L 1375 512 L 1280 506 C 1250 504 1253 473 1283 470 L 1320 466 Q 1324 466 1327 467 Z" fill="lightgray"></path> 
<path d="M 1527 334 L 1658 354 Q 1679 358 1680 365 Q 1682 372 1670 378 Q 1632 404 1605 390 L 1517 372 L 1355 352 Q 1343 351 1341 346 Q 1339 341 1354 331 Q 1370 321 1398 324 L 1456 324 L 1527 334 Z" fill="lightgray"></path> 
<path d="M 1541 265 L 1551 310 Q 1551 316 1550 317 Q 1546 327 1527 334 C 1500 346 1436 346 1456 324 L 1462 318 Q 1473 307 1473 232 L 1475 48 C 1475 18 1527 -12 1529 18 L 1537 160 L 1537 188 L 1541 265 Z" fill="lightgray"></path> 
<path d="M 1537 160 L 1569 156 Q 1574 155 1614 161 L 1705 174 Q 1715 174 1725 180 Q 1735 186 1737 189 Q 1737 201 1715 211 Q 1693 220 1678 220 L 1537 188 C 1508 181 1507 164 1537 160 Z" fill="lightgray"></path> 
<path d="M 1335 130 L 1350 160 Q 1357 174 1367 188 Q 1368 192 1371 196 L 1375 202 Q 1376 204 1381 208 Q 1387 212 1384 222 L 1380 231 Q 1376 238 1353 253 Q 1305 283 1298 262 Q 1297 259 1299 235 Q 1302 211 1286 169 Q 1271 127 1250 92 Q 1230 56 1219 44 Q 1208 31 1179 0 Q 1151 -32 1136 -45 L 1108 -69 Q 1106 -76 1109 -77 Q 1111 -80 1118 -76 L 1141 -68 Q 1163 -60 1191 -41 Q 1220 -22 1237 -5 Q 1254 12 1279 44 Q 1305 76 1308 82 L 1323 106 L 1335 130 Z" fill="lightgray"></path> 
<path d="M 1475 48 L 1335 130 C 1309 145 1298 123 1323 106 L 1391 58 L 1490 -22 Q 1521 -47 1583 -88 Q 1644 -130 1670 -144 L 1708 -162 Q 1726 -168 1743 -169 Q 1760 -170 1803 -158 L 1873 -144 L 1949 -125 Q 1957 -123 1959 -121 Q 1967 -116 1951 -109 L 1935 -105 L 1884 -96 Q 1690 -65 1601 -19 L 1529 18 L 1475 48 Z" fill="lightgray"></path> 
      <clipPath id="make-me-a-hanzi-clip-0">
      <path d="M 200 597 Q 179 597 179 593 Q 179 587 221 530 Q 270 469 303 469 Q 328 469 328 497 Q 328 518 317 539 Q 300 570 263 584 Q 234 595 200 597 Z" fill="lightgray"></path>
      </clipPath>
      <path clip-path="url(#make-me-a-hanzi-clip-0)" d="M 183 592 L 263 541 L 305 491 " fill="none" id="make-me-a-hanzi-animation-0" stroke-dasharray="288 576" stroke-linecap="round"></path>

      <clipPath id="make-me-a-hanzi-clip-1">
      <path d="M 256 344 Q 249 344 215 322 Q 152 282 116 281 Q 109 281 84 285 Q 76 284 76 272 Q 76 266 97 253 Q 124 241 139 241 Q 151 241 227 272 Q 236 272 236 268 L 225 84 Q 221 18 188 -27 Q 175 -42 175 -51 Q 175 -70 185 -89 Q 199 -120 212 -120 Q 218 -120 229 -100 Q 278 -30 350 36 Q 391 76 391 81 Q 391 88 380 88 Q 374 88 269 10 L 286 212 Q 290 253 311 278 Q 332 297 332 300 Q 332 315 304 331 Q 278 344 256 344 Z" fill="lightgray"></path>
      </clipPath>
      <path clip-path="url(#make-me-a-hanzi-clip-1)" d="M 87 274 L 112 264 L 139 263 L 241 302 L 270 297 L 242 20 L 281 17 L 289 6 L 274 -12 L 238 -22 L 214 -56 L 211 -110 " fill="none" id="make-me-a-hanzi-animation-1" stroke-dasharray="808 1616" stroke-linecap="round"></path>

      <clipPath id="make-me-a-hanzi-clip-2">
      <path d="M 548 625 Q 527 625 527 616 Q 527 608 536 593 Q 559 549 559 488 Q 559 342 531 237 Q 509 142 471 79 Q 435 11 356 -56 Q 324 -79 324 -87 Q 324 -91 336 -91 Q 368 -91 431 -40 Q 499 22 535 98 Q 571 165 599 297 L 607 340 Q 611 365 615 393 Q 629 498 639 529 Q 647 557 647 564 Q 647 588 606 608 Q 571 625 548 625 Z" fill="lightgray"></path>
      </clipPath>
      <path clip-path="url(#make-me-a-hanzi-clip-2)" d="M 537 613 L 572 590 L 598 554 L 581 351 L 552 210 L 521 124 L 473 38 L 411 -33 L 331 -86 " fill="none" id="make-me-a-hanzi-animation-2" stroke-dasharray="942 1884" stroke-linecap="round"></path>

      <clipPath id="make-me-a-hanzi-clip-3">
      <path d="M 599 297 Q 616 261 662 157 Q 732 -10 759 -48 Q 780 -84 819 -84 Q 897 -84 947 -74 Q 991 -69 991 -59 Q 991 -53 933 -32 Q 843 4 793 49 Q 743 93 682 216 Q 625 322 608 339 L 607 340 C 588 363 586 324 599 297 Z" fill="lightgray"></path>
      </clipPath>
      <path clip-path="url(#make-me-a-hanzi-clip-3)" d="M 611 328 L 616 300 L 707 115 L 744 50 L 794 -14 L 813 -31 L 845 -40 L 986 -60 " fill="none" id="make-me-a-hanzi-animation-3" stroke-dasharray="720 1440" stroke-linecap="round"></path>

      <clipPath id="make-me-a-hanzi-clip-4">
      <path d="M 1551 530 L 1560 545 Q 1572 570 1562 589 Q 1552 607 1537 615 Q 1489 646 1453 650 Q 1434 650 1433 646 Q 1432 639 1435 633 Q 1438 626 1465 585 Q 1492 543 1495 540 Q 1498 536 1515 524 C 1538 508 1538 508 1551 530 Z" fill="lightgray"></path>
      </clipPath>
      <path clip-path="url(#make-me-a-hanzi-clip-4)" d="M 1440 640 L 1509 588 L 1543 540 " fill="none" id="make-me-a-hanzi-animation-4" stroke-dasharray="273 546" stroke-linecap="round"></path>

      <clipPath id="make-me-a-hanzi-clip-5">
      <path d="M 1280 506 L 1277 518 Q 1273 530 1266 537 Q 1260 543 1257 544 Q 1254 544 1250 535 L 1227 479 Q 1217 453 1203 434 Q 1190 415 1185 405 Q 1181 394 1181 377 Q 1182 359 1198 348 Q 1207 344 1213 344 Q 1220 344 1234 358 Q 1263 392 1271 424 Q 1280 455 1283 470 L 1280 506 Z" fill="lightgray"></path>
      </clipPath>
      <path clip-path="url(#make-me-a-hanzi-clip-5)" d="M 1258 536 L 1254 470 L 1238 427 L 1216 391 L 1210 364 " fill="none" id="make-me-a-hanzi-animation-5" stroke-dasharray="310 620" stroke-linecap="round"></path>

      <clipPath id="make-me-a-hanzi-clip-6">
      <path d="M 1327 467 L 1374 475 Q 1392 477 1398 480 L 1593 508 L 1719 518 L 1730 518 Q 1741 518 1746 515 Q 1751 510 1752 505 Q 1754 499 1739 478 L 1704 428 Q 1694 416 1698 414 Q 1706 414 1712 416 L 1739 426 Q 1767 435 1807 443 Q 1848 450 1862 454 Q 1876 457 1881 466 Q 1885 475 1872 496 Q 1863 507 1829 534 Q 1795 561 1780 563 Q 1766 564 1746 560 Q 1727 555 1693 550 L 1551 530 L 1515 524 L 1375 512 L 1280 506 C 1250 504 1253 473 1283 470 L 1320 466 Q 1324 466 1327 467 Z" fill="lightgray"></path>
      </clipPath>
      <path clip-path="url(#make-me-a-hanzi-clip-6)" d="M 1288 501 L 1298 489 L 1331 488 L 1671 532 L 1767 535 L 1786 520 L 1801 493 L 1704 420 " fill="none" id="make-me-a-hanzi-animation-6" stroke-dasharray="792 1584" stroke-linecap="round"></path>

      <clipPath id="make-me-a-hanzi-clip-7">
      <path d="M 1527 334 L 1658 354 Q 1679 358 1680 365 Q 1682 372 1670 378 Q 1632 404 1605 390 L 1517 372 L 1355 352 Q 1343 351 1341 346 Q 1339 341 1354 331 Q 1370 321 1398 324 L 1456 324 L 1527 334 Z" fill="lightgray"></path>
      </clipPath>
      <path clip-path="url(#make-me-a-hanzi-clip-7)" d="M 1349 346 L 1376 339 L 1405 340 L 1517 352 L 1624 372 L 1672 367 " fill="none" id="make-me-a-hanzi-animation-7" stroke-dasharray="455 910" stroke-linecap="round"></path>

      <clipPath id="make-me-a-hanzi-clip-8">
      <path d="M 1541 265 L 1551 310 Q 1551 316 1550 317 Q 1546 327 1527 334 C 1500 346 1436 346 1456 324 L 1462 318 Q 1473 307 1473 232 L 1475 48 C 1475 18 1527 -12 1529 18 L 1537 160 L 1537 188 L 1541 265 Z" fill="lightgray"></path>
      </clipPath>
      <path clip-path="url(#make-me-a-hanzi-clip-8)" d="M 1469 319 L 1508 293 L 1503 65 L 1525 26 " fill="none" id="make-me-a-hanzi-animation-8" stroke-dasharray="448 896" stroke-linecap="round"></path>

      <clipPath id="make-me-a-hanzi-clip-9">
      <path d="M 1537 160 L 1569 156 Q 1574 155 1614 161 L 1705 174 Q 1715 174 1725 180 Q 1735 186 1737 189 Q 1737 201 1715 211 Q 1693 220 1678 220 L 1537 188 C 1508 181 1507 164 1537 160 Z" fill="lightgray"></path>
      </clipPath>
      <path clip-path="url(#make-me-a-hanzi-clip-9)" d="M 1543 167 L 1562 176 L 1676 195 L 1726 191 " fill="none" id="make-me-a-hanzi-animation-9" stroke-dasharray="315 630" stroke-linecap="round"></path>

      <clipPath id="make-me-a-hanzi-clip-10">
      <path d="M 1335 130 L 1350 160 Q 1357 174 1367 188 Q 1368 192 1371 196 L 1375 202 Q 1376 204 1381 208 Q 1387 212 1384 222 L 1380 231 Q 1376 238 1353 253 Q 1305 283 1298 262 Q 1297 259 1299 235 Q 1302 211 1286 169 Q 1271 127 1250 92 Q 1230 56 1219 44 Q 1208 31 1179 0 Q 1151 -32 1136 -45 L 1108 -69 Q 1106 -76 1109 -77 Q 1111 -80 1118 -76 L 1141 -68 Q 1163 -60 1191 -41 Q 1220 -22 1237 -5 Q 1254 12 1279 44 Q 1305 76 1308 82 L 1323 106 L 1335 130 Z" fill="lightgray"></path>
      </clipPath>
      <path clip-path="url(#make-me-a-hanzi-clip-10)" d="M 1311 258 L 1329 235 L 1336 209 L 1277 84 L 1209 -1 L 1164 -41 L 1113 -72 " fill="none" id="make-me-a-hanzi-animation-10" stroke-dasharray="551 1102" stroke-linecap="round"></path>

      <clipPath id="make-me-a-hanzi-clip-11">
      <path d="M 1475 48 L 1335 130 C 1309 145 1298 123 1323 106 L 1391 58 L 1490 -22 Q 1521 -47 1583 -88 Q 1644 -130 1670 -144 L 1708 -162 Q 1726 -168 1743 -169 Q 1760 -170 1803 -158 L 1873 -144 L 1949 -125 Q 1957 -123 1959 -121 Q 1967 -116 1951 -109 L 1935 -105 L 1884 -96 Q 1690 -65 1601 -19 L 1529 18 L 1475 48 Z" fill="lightgray"></path>
      </clipPath>
      <path clip-path="url(#make-me-a-hanzi-clip-11)" d="M 1338 121 L 1348 105 L 1541 -23 L 1696 -105 L 1765 -121 L 1952 -117 " fill="none" id="make-me-a-hanzi-animation-11" stroke-dasharray="812 1624" stroke-linecap="round"></path>

</g>
</svg>
