<svg version="1.1" viewBox="0 0 2048 1024" xmlns="http://www.w3.org/2000/svg">
  <g stroke="lightgray" stroke-dasharray="1,1" stroke-width="1" transform="scale(4, 4)">
    <line x1="0" y1="0" x2="256" y2="256"></line>
    <line x1="256" y1="0" x2="0" y2="256"></line>
    <line x1="128" y1="0" x2="128" y2="256"></line>
    <line x1="0" y1="128" x2="256" y2="128"></line>
    <line x1="256" y1="0" x2="512" y2="256"></line>
    <line x1="512" y1="0" x2="256" y2="256"></line>
    <line x1="384" y1="0" x2="384" y2="256"></line>
    <line x1="256" y1="128" x2="512" y2="128"></line>
  </g>
<g transform="scale(1, -1) translate(0, -850)">
   <style type="text/css">
    @keyframes keyframes0 {
      from {
       stroke: black;
       stroke-dashoffset: 418;
       stroke-width: 128;
       }
       58% {
       animation-timing-function: step-end;
       stroke: black;
       stroke-dashoffset: 0;
       stroke-width: 128;
       }
       to {
       stroke: black;
       stroke-width: 1024;
       }
       }
       #make-me-a-hanzi-animation-0 {
         animation: keyframes0 0.590169s both;
         animation-delay: 0.000000s;
         animation-timing-function: linear;
       }
    @keyframes keyframes1 {
      from {
       stroke: black;
       stroke-dashoffset: 1072;
       stroke-width: 128;
       }
       78% {
       animation-timing-function: step-end;
       stroke: black;
       stroke-dashoffset: 0;
       stroke-width: 128;
       }
       to {
       stroke: black;
       stroke-width: 1024;
       }
       }
       #make-me-a-hanzi-animation-1 {
         animation: keyframes1 1.122396s both;
         animation-delay: 0.590169s;
         animation-timing-function: linear;
       }
    @keyframes keyframes2 {
      from {
       stroke: black;
       stroke-dashoffset: 358;
       stroke-width: 128;
       }
       54% {
       animation-timing-function: step-end;
       stroke: black;
       stroke-dashoffset: 0;
       stroke-width: 128;
       }
       to {
       stroke: black;
       stroke-width: 1024;
       }
       }
       #make-me-a-hanzi-animation-2 {
         animation: keyframes2 0.541341s both;
         animation-delay: 1.712565s;
         animation-timing-function: linear;
       }
    @keyframes keyframes3 {
      from {
       stroke: black;
       stroke-dashoffset: 1061;
       stroke-width: 128;
       }
       78% {
       animation-timing-function: step-end;
       stroke: black;
       stroke-dashoffset: 0;
       stroke-width: 128;
       }
       to {
       stroke: black;
       stroke-width: 1024;
       }
       }
       #make-me-a-hanzi-animation-3 {
         animation: keyframes3 1.113444s both;
         animation-delay: 2.253906s;
         animation-timing-function: linear;
       }
    @keyframes keyframes4 {
      from {
       stroke: black;
       stroke-dashoffset: 949;
       stroke-width: 128;
       }
       76% {
       animation-timing-function: step-end;
       stroke: black;
       stroke-dashoffset: 0;
       stroke-width: 128;
       }
       to {
       stroke: black;
       stroke-width: 1024;
       }
       }
       #make-me-a-hanzi-animation-4 {
         animation: keyframes4 1.022298s both;
         animation-delay: 3.367350s;
         animation-timing-function: linear;
       }
    @keyframes keyframes5 {
      from {
       stroke: black;
       stroke-dashoffset: 410;
       stroke-width: 128;
       }
       57% {
       animation-timing-function: step-end;
       stroke: black;
       stroke-dashoffset: 0;
       stroke-width: 128;
       }
       to {
       stroke: black;
       stroke-width: 1024;
       }
       }
       #make-me-a-hanzi-animation-5 {
         animation: keyframes5 0.583659s both;
         animation-delay: 4.389648s;
         animation-timing-function: linear;
       }
    @keyframes keyframes6 {
      from {
       stroke: black;
       stroke-dashoffset: 919;
       stroke-width: 128;
       }
       75% {
       animation-timing-function: step-end;
       stroke: black;
       stroke-dashoffset: 0;
       stroke-width: 128;
       }
       to {
       stroke: black;
       stroke-width: 1024;
       }
       }
       #make-me-a-hanzi-animation-6 {
         animation: keyframes6 0.997884s both;
         animation-delay: 4.973307s;
         animation-timing-function: linear;
       }
    @keyframes keyframes7 {
      from {
       stroke: black;
       stroke-dashoffset: 758;
       stroke-width: 128;
       }
       71% {
       animation-timing-function: step-end;
       stroke: black;
       stroke-dashoffset: 0;
       stroke-width: 128;
       }
       to {
       stroke: black;
       stroke-width: 1024;
       }
       }
       #make-me-a-hanzi-animation-7 {
         animation: keyframes7 0.866862s both;
         animation-delay: 5.971191s;
         animation-timing-function: linear;
       }
    @keyframes keyframes8 {
      from {
       stroke: black;
       stroke-dashoffset: 704;
       stroke-width: 128;
       }
       70% {
       animation-timing-function: step-end;
       stroke: black;
       stroke-dashoffset: 0;
       stroke-width: 128;
       }
       to {
       stroke: black;
       stroke-width: 1024;
       }
       }
       #make-me-a-hanzi-animation-8 {
         animation: keyframes8 0.822917s both;
         animation-delay: 6.838053s;
         animation-timing-function: linear;
       }
    @keyframes keyframes9 {
      from {
       stroke: black;
       stroke-dashoffset: 544;
       stroke-width: 128;
       }
       64% {
       animation-timing-function: step-end;
       stroke: black;
       stroke-dashoffset: 0;
       stroke-width: 128;
       }
       to {
       stroke: black;
       stroke-width: 1024;
       }
       }
       #make-me-a-hanzi-animation-9 {
         animation: keyframes9 0.692708s both;
         animation-delay: 7.660970s;
         animation-timing-function: linear;
       }
    @keyframes keyframes10 {
      from {
       stroke: black;
       stroke-dashoffset: 1101;
       stroke-width: 128;
       }
       78% {
       animation-timing-function: step-end;
       stroke: black;
       stroke-dashoffset: 0;
       stroke-width: 128;
       }
       to {
       stroke: black;
       stroke-width: 1024;
       }
       }
       #make-me-a-hanzi-animation-10 {
         animation: keyframes10 1.145996s both;
         animation-delay: 8.353678s;
         animation-timing-function: linear;
       }
</style>
<path d="M 285.0 658.5 Q 322.0 631.5 360.0 598.5 Q 376.0 585.5 392.0 586.5 Q 402.0 587.5 408.0 601.5 Q 412.0 617.5 401.0 648.5 Q 394.0 672.5 356.0 687.5 Q 269.0 718.5 255.0 708.5 Q 249.0 704.5 252.0 690.5 Q 256.0 680.5 285.0 658.5 Z" fill="lightgray"></path> 
<path d="M 155.0 408.5 Q 104.0 392.5 76.0 390.5 Q 61.0 390.5 59.0 382.5 Q 55.0 373.5 66.0 366.5 Q 102.0 344.5 142.0 355.5 Q 247.0 410.5 258.0 402.5 Q 267.0 396.5 260.0 284.5 Q 259.0 163.5 225.0 54.5 Q 206.0 21.5 251.0 -29.5 Q 261.0 -42.5 272.0 -35.5 Q 281.0 -28.5 292.0 -3.5 Q 335.0 51.5 427.0 144.5 Q 440.0 156.5 437.0 163.5 Q 436.0 172.5 424.0 162.5 Q 378.0 131.5 332.0 97.5 Q 284.0 58.5 293.0 117.5 Q 292.0 187.5 318.0 360.5 Q 322.0 385.5 345.0 409.5 Q 357.0 419.5 347.0 432.5 Q 337.0 448.5 297.0 466.5 Q 284.0 473.5 267.0 462.5 Q 197.0 422.5 155.0 408.5 Z" fill="lightgray"></path> 
<path d="M 536.0 541.5 Q 591.0 471.5 619.0 470.5 Q 632.0 469.5 640.0 488.5 Q 641.0 501.5 631.0 523.5 Q 621.0 539.5 596.0 549.5 Q 557.0 567.5 540.0 569.5 Q 530.0 570.5 529.0 559.5 Q 528.0 550.5 536.0 541.5 Z" fill="lightgray"></path> 
<path d="M 681.0 172.5 Q 735.0 320.5 761.0 462.5 Q 768.0 502.5 790.0 550.5 Q 797.0 560.5 789.0 570.5 Q 773.0 589.5 738.0 608.5 Q 719.0 620.5 700.0 616.5 Q 679.0 612.5 693.0 591.5 Q 718.0 558.5 714.0 527.5 Q 693.0 341.5 644.0 216.5 L 620.0 167.5 Q 610.0 154.5 601.0 139.5 Q 573.0 99.5 528.0 68.5 Q 485.0 35.5 395.0 -1.5 Q 382.0 -5.5 378.0 -8.5 Q 372.0 -14.5 388.0 -18.5 Q 464.0 -25.5 588.0 51.5 Q 612.0 69.5 630.0 90.5 Q 640.0 103.5 652.0 119.5 L 681.0 172.5 Z" fill="lightgray"></path> 
<path d="M 652.0 119.5 Q 731.0 2.5 751.0 -9.5 Q 814.0 -27.5 936.0 -27.5 Q 957.0 -28.5 965.0 -20.5 Q 969.0 -13.5 958.0 -7.5 Q 790.0 59.5 748.0 102.5 Q 724.0 123.5 681.0 172.5 L 644.0 216.5 Q 587.0 289.5 519.0 393.5 Q 507.0 417.5 487.0 421.5 Q 457.0 425.5 448.0 416.5 Q 444.0 410.5 453.0 403.5 Q 493.0 375.5 516.0 332.5 Q 570.0 244.5 620.0 167.5 L 652.0 119.5 Z" fill="lightgray"></path> 
<path d="M 1215.5 674.0 Q 1195.5 674.0 1195.5 670.0 Q 1195.5 664.0 1233.5 607.0 Q 1277.5 546.0 1308.5 546.0 Q 1331.5 546.0 1331.5 574.0 Q 1331.5 595.0 1322.5 616.0 Q 1307.5 647.0 1274.5 661.0 Q 1247.5 672.0 1215.5 674.0 Z" fill="lightgray"></path> 
<path d="M 1260.5 421.0 Q 1253.5 421.0 1223.5 399.0 Q 1165.5 359.0 1132.5 358.0 Q 1125.5 358.0 1100.5 362.0 Q 1092.5 361.0 1092.5 349.0 Q 1092.5 343.0 1113.5 330.0 Q 1140.5 318.0 1155.5 318.0 Q 1165.5 318.0 1232.5 349.0 Q 1239.5 349.0 1239.5 345.0 L 1229.5 163.0 Q 1225.5 99.0 1189.5 54.0 Q 1176.5 38.0 1176.5 30.0 Q 1176.5 10.0 1186.5 -11.0 Q 1198.5 -43.0 1211.5 -43.0 Q 1219.5 -43.0 1230.5 -22.0 Q 1278.5 55.0 1350.5 125.0 Q 1392.5 168.0 1392.5 173.0 Q 1392.5 181.0 1379.5 181.0 Q 1373.5 181.0 1271.5 97.0 L 1287.5 290.0 Q 1291.5 331.0 1314.5 356.0 Q 1335.5 374.0 1335.5 377.0 Q 1335.5 392.0 1308.5 408.0 Q 1281.5 421.0 1260.5 421.0 Z" fill="lightgray"></path> 
<path d="M 1587.5 746.0 Q 1572.5 746.0 1572.5 733.0 Q 1572.5 731.0 1574.5 723.0 Q 1579.5 710.0 1579.5 698.0 Q 1572.5 644.0 1522.5 545.0 Q 1461.5 438.0 1393.5 376.0 Q 1356.5 341.0 1356.5 337.0 Q 1356.5 333.0 1367.5 333.0 Q 1405.5 333.0 1487.5 414.0 Q 1560.5 488.0 1622.5 619.0 Q 1626.5 626.0 1631.5 635.0 L 1647.5 662.0 Q 1653.5 672.0 1658.5 681.0 Q 1667.5 694.0 1667.5 702.0 Q 1667.5 714.0 1633.5 731.0 Q 1606.5 746.0 1587.5 746.0 Z" fill="lightgray"></path> 
<path d="M 1631.5 635.0 Q 1638.5 622.0 1650.5 602.0 Q 1754.5 419.0 1790.5 382.0 Q 1803.5 370.0 1811.5 370.0 Q 1845.5 370.0 1908.5 380.0 Q 1979.5 391.0 1979.5 402.0 Q 1979.5 408.0 1944.5 418.0 Q 1876.5 438.0 1829.5 475.0 Q 1759.5 526.0 1655.5 651.0 Q 1652.5 656.0 1647.5 662.0 C 1629.5 686.0 1616.5 661.0 1631.5 635.0 Z" fill="lightgray"></path> 
<path d="M 1727.5 349.0 Q 1722.5 349.0 1718.5 344.0 Q 1715.5 339.0 1715.5 333.0 Q 1715.5 314.0 1679.5 275.0 Q 1628.5 220.0 1564.5 179.0 L 1562.5 178.0 C 1536.5 162.0 1533.5 139.0 1561.5 149.0 Q 1633.5 173.0 1693.5 214.0 Q 1747.5 254.0 1792.5 282.0 Q 1811.5 291.0 1811.5 297.0 Q 1811.5 313.0 1769.5 334.0 Q 1741.5 349.0 1727.5 349.0 Z" fill="lightgray"></path> 
<path d="M 1562.5 178.0 Q 1565.5 235.0 1572.5 273.0 Q 1579.5 295.0 1579.5 301.0 Q 1579.5 317.0 1552.5 335.0 Q 1521.5 358.0 1507.5 358.0 Q 1499.5 358.0 1499.5 349.0 Q 1511.5 301.0 1511.5 286.0 Q 1507.5 166.0 1507.5 97.0 Q 1507.5 14.0 1543.5 -20.0 Q 1593.5 -70.0 1688.5 -70.0 Q 1797.5 -70.0 1869.5 -41.0 Q 1923.5 -20.0 1923.5 5.0 Q 1923.5 14.0 1910.5 32.0 Q 1892.5 69.0 1877.5 125.0 Q 1864.5 169.0 1855.5 169.0 Q 1851.5 169.0 1848.5 149.0 Q 1838.5 66.0 1821.5 34.0 Q 1812.5 16.0 1785.5 3.0 Q 1749.5 -14.0 1688.5 -14.0 Q 1623.5 -14.0 1589.5 11.0 Q 1560.5 41.0 1560.5 97.0 Q 1560.5 123.0 1561.5 149.0 L 1562.5 178.0 Z" fill="lightgray"></path> 
      <clipPath id="make-me-a-hanzi-clip-0">
      <path d="M 285.0 658.5 Q 322.0 631.5 360.0 598.5 Q 376.0 585.5 392.0 586.5 Q 402.0 587.5 408.0 601.5 Q 412.0 617.5 401.0 648.5 Q 394.0 672.5 356.0 687.5 Q 269.0 718.5 255.0 708.5 Q 249.0 704.5 252.0 690.5 Q 256.0 680.5 285.0 658.5 Z" fill="lightgray"></path>
      </clipPath>
      <path clip-path="url(#make-me-a-hanzi-clip-0)" d="M 261.0 700.5 L 360.0 646.5 L 388.0 606.5 " fill="none" id="make-me-a-hanzi-animation-0" stroke-dasharray="290 580" stroke-linecap="round"></path>

      <clipPath id="make-me-a-hanzi-clip-1">
      <path d="M 155.0 408.5 Q 104.0 392.5 76.0 390.5 Q 61.0 390.5 59.0 382.5 Q 55.0 373.5 66.0 366.5 Q 102.0 344.5 142.0 355.5 Q 247.0 410.5 258.0 402.5 Q 267.0 396.5 260.0 284.5 Q 259.0 163.5 225.0 54.5 Q 206.0 21.5 251.0 -29.5 Q 261.0 -42.5 272.0 -35.5 Q 281.0 -28.5 292.0 -3.5 Q 335.0 51.5 427.0 144.5 Q 440.0 156.5 437.0 163.5 Q 436.0 172.5 424.0 162.5 Q 378.0 131.5 332.0 97.5 Q 284.0 58.5 293.0 117.5 Q 292.0 187.5 318.0 360.5 Q 322.0 385.5 345.0 409.5 Q 357.0 419.5 347.0 432.5 Q 337.0 448.5 297.0 466.5 Q 284.0 473.5 267.0 462.5 Q 197.0 422.5 155.0 408.5 Z" fill="lightgray"></path>
      </clipPath>
      <path clip-path="url(#make-me-a-hanzi-clip-1)" d="M 70.0 377.5 L 108.0 373.5 L 145.0 379.5 L 253.0 428.5 L 289.0 427.5 L 298.0 418.5 L 264.0 83.5 L 272.0 46.5 L 321.0 64.5 L 431.0 160.5 " fill="none" id="make-me-a-hanzi-animation-1" stroke-dasharray="944 1888" stroke-linecap="round"></path>

      <clipPath id="make-me-a-hanzi-clip-2">
      <path d="M 536.0 541.5 Q 591.0 471.5 619.0 470.5 Q 632.0 469.5 640.0 488.5 Q 641.0 501.5 631.0 523.5 Q 621.0 539.5 596.0 549.5 Q 557.0 567.5 540.0 569.5 Q 530.0 570.5 529.0 559.5 Q 528.0 550.5 536.0 541.5 Z" fill="lightgray"></path>
      </clipPath>
      <path clip-path="url(#make-me-a-hanzi-clip-2)" d="M 542.0 556.5 L 600.0 514.5 L 619.0 490.5 " fill="none" id="make-me-a-hanzi-animation-2" stroke-dasharray="230 460" stroke-linecap="round"></path>

      <clipPath id="make-me-a-hanzi-clip-3">
      <path d="M 681.0 172.5 Q 735.0 320.5 761.0 462.5 Q 768.0 502.5 790.0 550.5 Q 797.0 560.5 789.0 570.5 Q 773.0 589.5 738.0 608.5 Q 719.0 620.5 700.0 616.5 Q 679.0 612.5 693.0 591.5 Q 718.0 558.5 714.0 527.5 Q 693.0 341.5 644.0 216.5 L 620.0 167.5 Q 610.0 154.5 601.0 139.5 Q 573.0 99.5 528.0 68.5 Q 485.0 35.5 395.0 -1.5 Q 382.0 -5.5 378.0 -8.5 Q 372.0 -14.5 388.0 -18.5 Q 464.0 -25.5 588.0 51.5 Q 612.0 69.5 630.0 90.5 Q 640.0 103.5 652.0 119.5 L 681.0 172.5 Z" fill="lightgray"></path>
      </clipPath>
      <path clip-path="url(#make-me-a-hanzi-clip-3)" d="M 700.0 602.5 L 722.0 591.5 L 751.0 555.5 L 716.0 370.5 L 687.0 264.5 L 655.0 178.5 L 613.0 110.5 L 567.0 66.5 L 464.0 9.5 L 384.0 -12.5 " fill="none" id="make-me-a-hanzi-animation-3" stroke-dasharray="933 1866" stroke-linecap="round"></path>

      <clipPath id="make-me-a-hanzi-clip-4">
      <path d="M 652.0 119.5 Q 731.0 2.5 751.0 -9.5 Q 814.0 -27.5 936.0 -27.5 Q 957.0 -28.5 965.0 -20.5 Q 969.0 -13.5 958.0 -7.5 Q 790.0 59.5 748.0 102.5 Q 724.0 123.5 681.0 172.5 L 644.0 216.5 Q 587.0 289.5 519.0 393.5 Q 507.0 417.5 487.0 421.5 Q 457.0 425.5 448.0 416.5 Q 444.0 410.5 453.0 403.5 Q 493.0 375.5 516.0 332.5 Q 570.0 244.5 620.0 167.5 L 652.0 119.5 Z" fill="lightgray"></path>
      </clipPath>
      <path clip-path="url(#make-me-a-hanzi-clip-4)" d="M 456.0 412.5 L 477.0 407.5 L 499.0 390.5 L 662.0 152.5 L 756.0 43.5 L 772.0 30.5 L 811.0 16.5 L 956.0 -16.5 " fill="none" id="make-me-a-hanzi-animation-4" stroke-dasharray="821 1642" stroke-linecap="round"></path>

      <clipPath id="make-me-a-hanzi-clip-5">
      <path d="M 1215.5 674.0 Q 1195.5 674.0 1195.5 670.0 Q 1195.5 664.0 1233.5 607.0 Q 1277.5 546.0 1308.5 546.0 Q 1331.5 546.0 1331.5 574.0 Q 1331.5 595.0 1322.5 616.0 Q 1307.5 647.0 1274.5 661.0 Q 1247.5 672.0 1215.5 674.0 Z" fill="lightgray"></path>
      </clipPath>
      <path clip-path="url(#make-me-a-hanzi-clip-5)" d="M 1199.5 669.0 L 1276.5 615.0 L 1310.5 566.0 " fill="none" id="make-me-a-hanzi-animation-5" stroke-dasharray="282 564" stroke-linecap="round"></path>

      <clipPath id="make-me-a-hanzi-clip-6">
      <path d="M 1260.5 421.0 Q 1253.5 421.0 1223.5 399.0 Q 1165.5 359.0 1132.5 358.0 Q 1125.5 358.0 1100.5 362.0 Q 1092.5 361.0 1092.5 349.0 Q 1092.5 343.0 1113.5 330.0 Q 1140.5 318.0 1155.5 318.0 Q 1165.5 318.0 1232.5 349.0 Q 1239.5 349.0 1239.5 345.0 L 1229.5 163.0 Q 1225.5 99.0 1189.5 54.0 Q 1176.5 38.0 1176.5 30.0 Q 1176.5 10.0 1186.5 -11.0 Q 1198.5 -43.0 1211.5 -43.0 Q 1219.5 -43.0 1230.5 -22.0 Q 1278.5 55.0 1350.5 125.0 Q 1392.5 168.0 1392.5 173.0 Q 1392.5 181.0 1379.5 181.0 Q 1373.5 181.0 1271.5 97.0 L 1287.5 290.0 Q 1291.5 331.0 1314.5 356.0 Q 1335.5 374.0 1335.5 377.0 Q 1335.5 392.0 1308.5 408.0 Q 1281.5 421.0 1260.5 421.0 Z" fill="lightgray"></path>
      </clipPath>
      <path clip-path="url(#make-me-a-hanzi-clip-6)" d="M 1103.5 351.0 L 1128.5 341.0 L 1157.5 340.0 L 1228.5 374.0 L 1272.5 375.0 L 1246.5 107.0 L 1284.5 103.0 L 1292.5 94.0 L 1272.5 74.0 L 1243.5 66.0 L 1215.5 25.0 L 1210.5 -32.0 " fill="none" id="make-me-a-hanzi-animation-6" stroke-dasharray="791 1582" stroke-linecap="round"></path>

      <clipPath id="make-me-a-hanzi-clip-7">
      <path d="M 1587.5 746.0 Q 1572.5 746.0 1572.5 733.0 Q 1572.5 731.0 1574.5 723.0 Q 1579.5 710.0 1579.5 698.0 Q 1572.5 644.0 1522.5 545.0 Q 1461.5 438.0 1393.5 376.0 Q 1356.5 341.0 1356.5 337.0 Q 1356.5 333.0 1367.5 333.0 Q 1405.5 333.0 1487.5 414.0 Q 1560.5 488.0 1622.5 619.0 Q 1626.5 626.0 1631.5 635.0 L 1647.5 662.0 Q 1653.5 672.0 1658.5 681.0 Q 1667.5 694.0 1667.5 702.0 Q 1667.5 714.0 1633.5 731.0 Q 1606.5 746.0 1587.5 746.0 Z" fill="lightgray"></path>
      </clipPath>
      <path clip-path="url(#make-me-a-hanzi-clip-7)" d="M 1584.5 734.0 L 1619.5 693.0 L 1548.5 536.0 L 1465.5 421.0 L 1413.5 371.0 L 1362.5 336.0 " fill="none" id="make-me-a-hanzi-animation-7" stroke-dasharray="630 1260" stroke-linecap="round"></path>

      <clipPath id="make-me-a-hanzi-clip-8">
      <path d="M 1631.5 635.0 Q 1638.5 622.0 1650.5 602.0 Q 1754.5 419.0 1790.5 382.0 Q 1803.5 370.0 1811.5 370.0 Q 1845.5 370.0 1908.5 380.0 Q 1979.5 391.0 1979.5 402.0 Q 1979.5 408.0 1944.5 418.0 Q 1876.5 438.0 1829.5 475.0 Q 1759.5 526.0 1655.5 651.0 Q 1652.5 656.0 1647.5 662.0 C 1629.5 686.0 1616.5 661.0 1631.5 635.0 Z" fill="lightgray"></path>
      </clipPath>
      <path clip-path="url(#make-me-a-hanzi-clip-8)" d="M 1646.5 653.0 L 1653.5 628.0 L 1685.5 581.0 L 1768.5 476.0 L 1820.5 421.0 L 1917.5 402.0 L 1974.5 402.0 " fill="none" id="make-me-a-hanzi-animation-8" stroke-dasharray="576 1152" stroke-linecap="round"></path>

      <clipPath id="make-me-a-hanzi-clip-9">
      <path d="M 1727.5 349.0 Q 1722.5 349.0 1718.5 344.0 Q 1715.5 339.0 1715.5 333.0 Q 1715.5 314.0 1679.5 275.0 Q 1628.5 220.0 1564.5 179.0 L 1562.5 178.0 C 1536.5 162.0 1533.5 139.0 1561.5 149.0 Q 1633.5 173.0 1693.5 214.0 Q 1747.5 254.0 1792.5 282.0 Q 1811.5 291.0 1811.5 297.0 Q 1811.5 313.0 1769.5 334.0 Q 1741.5 349.0 1727.5 349.0 Z" fill="lightgray"></path>
      </clipPath>
      <path clip-path="url(#make-me-a-hanzi-clip-9)" d="M 1802.5 299.0 L 1747.5 301.0 L 1651.5 214.0 L 1576.5 169.0 L 1567.5 156.0 " fill="none" id="make-me-a-hanzi-animation-9" stroke-dasharray="416 832" stroke-linecap="round"></path>

      <clipPath id="make-me-a-hanzi-clip-10">
      <path d="M 1562.5 178.0 Q 1565.5 235.0 1572.5 273.0 Q 1579.5 295.0 1579.5 301.0 Q 1579.5 317.0 1552.5 335.0 Q 1521.5 358.0 1507.5 358.0 Q 1499.5 358.0 1499.5 349.0 Q 1511.5 301.0 1511.5 286.0 Q 1507.5 166.0 1507.5 97.0 Q 1507.5 14.0 1543.5 -20.0 Q 1593.5 -70.0 1688.5 -70.0 Q 1797.5 -70.0 1869.5 -41.0 Q 1923.5 -20.0 1923.5 5.0 Q 1923.5 14.0 1910.5 32.0 Q 1892.5 69.0 1877.5 125.0 Q 1864.5 169.0 1855.5 169.0 Q 1851.5 169.0 1848.5 149.0 Q 1838.5 66.0 1821.5 34.0 Q 1812.5 16.0 1785.5 3.0 Q 1749.5 -14.0 1688.5 -14.0 Q 1623.5 -14.0 1589.5 11.0 Q 1560.5 41.0 1560.5 97.0 Q 1560.5 123.0 1561.5 149.0 L 1562.5 178.0 Z" fill="lightgray"></path>
      </clipPath>
      <path clip-path="url(#make-me-a-hanzi-clip-10)" d="M 1509.5 348.0 L 1544.5 298.0 L 1533.5 115.0 L 1540.5 41.0 L 1559.5 3.0 L 1596.5 -25.0 L 1647.5 -40.0 L 1732.5 -40.0 L 1803.5 -26.0 L 1848.5 -3.0 L 1865.5 11.0 L 1862.5 131.0 L 1856.5 165.0 " fill="none" id="make-me-a-hanzi-animation-10" stroke-dasharray="973 1946" stroke-linecap="round"></path>

</g>
</svg>
