<svg version="1.1" viewBox="0 0 2048 1024" xmlns="http://www.w3.org/2000/svg">
  <g stroke="lightgray" stroke-dasharray="1,1" stroke-width="1" transform="scale(4, 4)">
    <line x1="0" y1="0" x2="256" y2="256"></line>
    <line x1="256" y1="0" x2="0" y2="256"></line>
    <line x1="128" y1="0" x2="128" y2="256"></line>
    <line x1="0" y1="128" x2="256" y2="128"></line>
    <line x1="256" y1="0" x2="512" y2="256"></line>
    <line x1="512" y1="0" x2="256" y2="256"></line>
    <line x1="384" y1="0" x2="384" y2="256"></line>
    <line x1="256" y1="128" x2="512" y2="128"></line>
  </g>
<g transform="scale(1, -1) translate(0, -850)">
   <style type="text/css">
    @keyframes keyframes0 {
      from {
       stroke: black;
       stroke-dashoffset: 412;
       stroke-width: 128;
       }
       57% {
       animation-timing-function: step-end;
       stroke: black;
       stroke-dashoffset: 0;
       stroke-width: 128;
       }
       to {
       stroke: black;
       stroke-width: 1024;
       }
       }
       #make-me-a-hanzi-animation-0 {
         animation: keyframes0 0.585286s both;
         animation-delay: 0.000000s;
         animation-timing-function: linear;
       }
    @keyframes keyframes1 {
      from {
       stroke: black;
       stroke-dashoffset: 928;
       stroke-width: 128;
       }
       75% {
       animation-timing-function: step-end;
       stroke: black;
       stroke-dashoffset: 0;
       stroke-width: 128;
       }
       to {
       stroke: black;
       stroke-width: 1024;
       }
       }
       #make-me-a-hanzi-animation-1 {
         animation: keyframes1 1.005208s both;
         animation-delay: 0.585286s;
         animation-timing-function: linear;
       }
    @keyframes keyframes2 {
      from {
       stroke: black;
       stroke-dashoffset: 582;
       stroke-width: 128;
       }
       65% {
       animation-timing-function: step-end;
       stroke: black;
       stroke-dashoffset: 0;
       stroke-width: 128;
       }
       to {
       stroke: black;
       stroke-width: 1024;
       }
       }
       #make-me-a-hanzi-animation-2 {
         animation: keyframes2 0.723633s both;
         animation-delay: 1.590495s;
         animation-timing-function: linear;
       }
    @keyframes keyframes3 {
      from {
       stroke: black;
       stroke-dashoffset: 524;
       stroke-width: 128;
       }
       63% {
       animation-timing-function: step-end;
       stroke: black;
       stroke-dashoffset: 0;
       stroke-width: 128;
       }
       to {
       stroke: black;
       stroke-width: 1024;
       }
       }
       #make-me-a-hanzi-animation-3 {
         animation: keyframes3 0.676432s both;
         animation-delay: 2.314128s;
         animation-timing-function: linear;
       }
    @keyframes keyframes4 {
      from {
       stroke: black;
       stroke-dashoffset: 627;
       stroke-width: 128;
       }
       67% {
       animation-timing-function: step-end;
       stroke: black;
       stroke-dashoffset: 0;
       stroke-width: 128;
       }
       to {
       stroke: black;
       stroke-width: 1024;
       }
       }
       #make-me-a-hanzi-animation-4 {
         animation: keyframes4 0.760254s both;
         animation-delay: 2.990560s;
         animation-timing-function: linear;
       }
    @keyframes keyframes5 {
      from {
       stroke: black;
       stroke-dashoffset: 856;
       stroke-width: 128;
       }
       74% {
       animation-timing-function: step-end;
       stroke: black;
       stroke-dashoffset: 0;
       stroke-width: 128;
       }
       to {
       stroke: black;
       stroke-width: 1024;
       }
       }
       #make-me-a-hanzi-animation-5 {
         animation: keyframes5 0.946615s both;
         animation-delay: 3.750814s;
         animation-timing-function: linear;
       }
    @keyframes keyframes6 {
      from {
       stroke: black;
       stroke-dashoffset: 720;
       stroke-width: 128;
       }
       70% {
       animation-timing-function: step-end;
       stroke: black;
       stroke-dashoffset: 0;
       stroke-width: 128;
       }
       to {
       stroke: black;
       stroke-width: 1024;
       }
       }
       #make-me-a-hanzi-animation-6 {
         animation: keyframes6 0.835938s both;
         animation-delay: 4.697428s;
         animation-timing-function: linear;
       }
    @keyframes keyframes7 {
      from {
       stroke: black;
       stroke-dashoffset: 954;
       stroke-width: 128;
       }
       76% {
       animation-timing-function: step-end;
       stroke: black;
       stroke-dashoffset: 0;
       stroke-width: 128;
       }
       to {
       stroke: black;
       stroke-width: 1024;
       }
       }
       #make-me-a-hanzi-animation-7 {
         animation: keyframes7 1.026367s both;
         animation-delay: 5.533366s;
         animation-timing-function: linear;
       }
    @keyframes keyframes8 {
      from {
       stroke: black;
       stroke-dashoffset: 431;
       stroke-width: 128;
       }
       58% {
       animation-timing-function: step-end;
       stroke: black;
       stroke-dashoffset: 0;
       stroke-width: 128;
       }
       to {
       stroke: black;
       stroke-width: 1024;
       }
       }
       #make-me-a-hanzi-animation-8 {
         animation: keyframes8 0.600749s both;
         animation-delay: 6.559733s;
         animation-timing-function: linear;
       }
    @keyframes keyframes9 {
      from {
       stroke: black;
       stroke-dashoffset: 442;
       stroke-width: 128;
       }
       59% {
       animation-timing-function: step-end;
       stroke: black;
       stroke-dashoffset: 0;
       stroke-width: 128;
       }
       to {
       stroke: black;
       stroke-width: 1024;
       }
       }
       #make-me-a-hanzi-animation-9 {
         animation: keyframes9 0.609701s both;
         animation-delay: 7.160482s;
         animation-timing-function: linear;
       }
    @keyframes keyframes10 {
      from {
       stroke: black;
       stroke-dashoffset: 614;
       stroke-width: 128;
       }
       67% {
       animation-timing-function: step-end;
       stroke: black;
       stroke-dashoffset: 0;
       stroke-width: 128;
       }
       to {
       stroke: black;
       stroke-width: 1024;
       }
       }
       #make-me-a-hanzi-animation-10 {
         animation: keyframes10 0.749674s both;
         animation-delay: 7.770182s;
         animation-timing-function: linear;
       }
    @keyframes keyframes11 {
      from {
       stroke: black;
       stroke-dashoffset: 393;
       stroke-width: 128;
       }
       56% {
       animation-timing-function: step-end;
       stroke: black;
       stroke-dashoffset: 0;
       stroke-width: 128;
       }
       to {
       stroke: black;
       stroke-width: 1024;
       }
       }
       #make-me-a-hanzi-animation-11 {
         animation: keyframes11 0.569824s both;
         animation-delay: 8.519857s;
         animation-timing-function: linear;
       }
    @keyframes keyframes12 {
      from {
       stroke: black;
       stroke-dashoffset: 593;
       stroke-width: 128;
       }
       66% {
       animation-timing-function: step-end;
       stroke: black;
       stroke-dashoffset: 0;
       stroke-width: 128;
       }
       to {
       stroke: black;
       stroke-width: 1024;
       }
       }
       #make-me-a-hanzi-animation-12 {
         animation: keyframes12 0.732585s both;
         animation-delay: 9.089681s;
         animation-timing-function: linear;
       }
    @keyframes keyframes13 {
      from {
       stroke: black;
       stroke-dashoffset: 412;
       stroke-width: 128;
       }
       57% {
       animation-timing-function: step-end;
       stroke: black;
       stroke-dashoffset: 0;
       stroke-width: 128;
       }
       to {
       stroke: black;
       stroke-width: 1024;
       }
       }
       #make-me-a-hanzi-animation-13 {
         animation: keyframes13 0.585286s both;
         animation-delay: 9.822266s;
         animation-timing-function: linear;
       }
    @keyframes keyframes14 {
      from {
       stroke: black;
       stroke-dashoffset: 658;
       stroke-width: 128;
       }
       68% {
       animation-timing-function: step-end;
       stroke: black;
       stroke-dashoffset: 0;
       stroke-width: 128;
       }
       to {
       stroke: black;
       stroke-width: 1024;
       }
       }
       #make-me-a-hanzi-animation-14 {
         animation: keyframes14 0.785482s both;
         animation-delay: 10.407552s;
         animation-timing-function: linear;
       }
    @keyframes keyframes15 {
      from {
       stroke: black;
       stroke-dashoffset: 944;
       stroke-width: 128;
       }
       75% {
       animation-timing-function: step-end;
       stroke: black;
       stroke-dashoffset: 0;
       stroke-width: 128;
       }
       to {
       stroke: black;
       stroke-width: 1024;
       }
       }
       #make-me-a-hanzi-animation-15 {
         animation: keyframes15 1.018229s both;
         animation-delay: 11.193034s;
         animation-timing-function: linear;
       }
    @keyframes keyframes16 {
      from {
       stroke: black;
       stroke-dashoffset: 988;
       stroke-width: 128;
       }
       76% {
       animation-timing-function: step-end;
       stroke: black;
       stroke-dashoffset: 0;
       stroke-width: 128;
       }
       to {
       stroke: black;
       stroke-width: 1024;
       }
       }
       #make-me-a-hanzi-animation-16 {
         animation: keyframes16 1.054036s both;
         animation-delay: 12.211263s;
         animation-timing-function: linear;
       }
</style>
<path d="M 196 597 Q 175 597 175 593 Q 175 587 214 530 Q 260 469 292 469 Q 315 469 315 497 Q 315 518 306 539 Q 290 570 256 584 Q 228 595 196 597 Z" fill="lightgray"></path> 
<path d="M 248 344 Q 241 344 209 322 Q 150 282 116 281 Q 109 281 84 285 Q 76 284 76 272 Q 76 266 97 253 Q 124 241 139 241 Q 150 241 219 272 Q 227 272 227 268 L 217 84 Q 213 18 177 -27 Q 164 -42 164 -51 Q 164 -70 173 -89 Q 186 -120 200 -120 Q 206 -120 216 -101 Q 261 -33 329 29 Q 368 68 368 73 Q 368 81 355 81 Q 350 81 259 11 L 275 212 Q 280 253 302 278 Q 324 297 324 300 Q 324 315 296 331 Q 269 344 248 344 Z" fill="lightgray"></path> 
<path d="M 724 597 Q 713 597 688 586 Q 672 579 647 570 L 586 555 Q 534 544 460 532 Q 447 531 447 524 Q 447 517 469 510 Q 495 501 515 501 Q 530 501 556 508 Q 568 510 589 515 L 643 526 Q 677 534 724 545 Q 746 548 773 558 Q 787 564 787 577 Q 784 596 724 597 Z" fill="lightgray"></path> 
<path d="M 592 458 Q 530 443 483 436 Q 468 434 468 428 Q 468 422 487 417 Q 513 409 536 409 Q 548 409 594 416 L 640 423 Q 682 429 743 440 Q 760 445 760 461 Q 760 483 720 484 Q 702 484 681 478 Q 662 473 641 468 L 592 458 Z" fill="lightgray"></path> 
<path d="M 647 570 Q 649 606 660 633 Q 664 642 664 648 Q 664 665 623 688 Q 583 709 555 709 Q 540 709 540 696 Q 540 692 549 683 Q 562 672 572 639 Q 581 613 586 555 L 589 515 Q 591 488 592 458 L 594 416 Q 595 387 596 354 C 597 324 640 331 640 361 L 640 423 L 641 468 Q 642 502 643 526 L 647 570 Z" fill="lightgray"></path> 
<path d="M 596 354 Q 563 349 524 342 Q 416 321 355 312 Q 343 310 343 304 Q 344 300 367 285 Q 385 272 399 272 Q 409 272 441 284 Q 525 307 630 321 Q 729 337 811 337 L 853 336 Q 901 333 924 333 Q 954 334 955 348 Q 952 365 925 381 Q 897 396 876 396 Q 863 396 843 392 Q 808 387 771 383 Q 740 379 640 361 L 596 354 Z" fill="lightgray"></path> 
<path d="M 543 238 Q 536 244 516 252 Q 497 262 475 264 Q 468 263 468 253 Q 468 248 473 243 Q 496 218 496 131 Q 496 -33 475 -101 Q 468 -120 468 -128 Q 468 -146 474 -170 Q 487 -204 496 -204 Q 512 -204 524 -172 Q 534 -152 539 -4 L 539 13 Q 540 53 540 103 L 540 122 L 540 131 Q 540 179 548 201 L 552 209 C 560 228 560 228 543 238 Z" fill="lightgray"></path> 
<path d="M 712 289 Q 705 288 682 278 Q 663 268 611 253 Q 569 242 543 238 C 513 233 523 201 552 209 Q 558 210 575 215 Q 603 223 637 231 Q 663 237 672 237 Q 691 237 702 232 Q 717 225 720 208 Q 722 183 723 157 L 725 126 Q 728 86 729 45 L 730 20 Q 731 -3 731 -27 Q 731 -53 726 -79 Q 722 -95 716 -95 Q 703 -95 670 -90 Q 647 -87 640 -87 Q 636 -87 636 -91 Q 637 -95 659 -115 Q 691 -148 706 -176 Q 720 -202 731 -204 Q 744 -204 759 -187 Q 776 -170 787 -128 Q 800 -87 800 -40 Q 800 -20 788 105 Q 783 177 783 188 Q 783 199 797 219 Q 804 230 804 232 Q 804 243 767 265 Q 729 289 712 289 Z" fill="lightgray"></path> 
<path d="M 723 157 Q 715 161 699 161 Q 687 161 673 156 Q 595 131 540 122 C 510 117 511 112 540 103 Q 561 96 580 96 Q 598 96 724 125 L 725 126 C 753 136 751 147 723 157 Z" fill="lightgray"></path> 
<path d="M 539 -4 L 540 -4 Q 561 -11 580 -11 Q 598 -11 724 16 Q 727 17 730 20 C 749 34 749 34 729 45 Q 722 51 699 52 Q 687 52 673 47 Q 594 24 539 13 C 510 7 510 4 539 -4 Z" fill="lightgray"></path> 
<path d="M 1284 312 L 1328 383 Q 1334 393 1343 400 Q 1352 407 1345 416 Q 1342 429 1319 449 L 1296 463 Q 1290 468 1281 468 Q 1265 468 1268 450 Q 1271 432 1269 427 L 1258 395 Q 1250 368 1229 318 L 1207 270 Q 1188 239 1176 221 L 1135 162 Q 1129 154 1132 151 Q 1135 148 1144 154 L 1174 179 Q 1204 202 1231 237 L 1259 272 Q 1265 282 1275 296 L 1284 312 Z" fill="lightgray"></path> 
<path d="M 1319 298 L 1284 312 C 1256 323 1257 320 1275 296 L 1288 279 Q 1288 275 1314 245 Q 1341 215 1347 206 Q 1354 196 1364 191 Q 1375 186 1383 188 Q 1399 193 1399 215 Q 1399 236 1397 244 Q 1389 270 1319 298 Z" fill="lightgray"></path> 
<path d="M 1689 327 L 1701 346 L 1724 388 Q 1743 417 1750 423 Q 1758 429 1756 439 Q 1754 449 1742 456 Q 1739 459 1718 472 Q 1705 482 1695 484 Q 1677 491 1677 472 L 1678 456 Q 1678 450 1673 429 L 1664 399 L 1618 298 Q 1615 289 1594 260 L 1553 198 Q 1546 191 1549 186 Q 1552 182 1563 191 L 1587 210 Q 1612 227 1622 239 Q 1641 254 1652 271 L 1679 306 L 1689 327 Z" fill="lightgray"></path> 
<path d="M 1760 300 L 1689 327 C 1661 338 1656 326 1679 306 L 1700 288 L 1731 258 L 1760 225 Q 1769 217 1787 203 Q 1806 189 1819 204 Q 1828 220 1825 239 Q 1823 258 1821 262 Q 1819 266 1803 278 Q 1787 289 1760 300 Z" fill="lightgray"></path> 
<path d="M 1383 50 L 1452 54 L 1507 60 L 1549 64 L 1633 77 Q 1681 84 1693 92 Q 1707 94 1696 106 Q 1692 112 1689 113 L 1652 131 Q 1636 134 1632 134 Q 1629 134 1619 130 Q 1610 126 1578 121 L 1507 108 L 1452 100 L 1292 86 Q 1280 84 1278 82 Q 1277 79 1284 67 Q 1292 58 1318 53 Q 1344 47 1383 50 Z" fill="lightgray"></path> 
<path d="M 1452 54 L 1451 -69 C 1451 -99 1502 -94 1503 -64 L 1507 60 L 1507 108 L 1512 304 Q 1512 323 1515 394 L 1520 451 Q 1522 499 1541 551 Q 1547 566 1535 577 Q 1527 587 1519 589 L 1491 598 Q 1442 616 1431 605 Q 1422 601 1433 581 Q 1445 560 1446 544 Q 1449 526 1451 504 L 1454 453 L 1452 100 L 1452 54 Z" fill="lightgray"></path> 
<path d="M 1451 -69 L 1229 -88 L 1188 -90 Q 1170 -90 1162 -92 Q 1149 -92 1147 -95 Q 1138 -102 1160 -120 L 1176 -132 Q 1197 -146 1210 -146 Q 1224 -146 1245 -139 Q 1266 -132 1296 -129 L 1396 -117 L 1488 -112 L 1601 -104 Q 1661 -101 1698 -100 L 1845 -104 L 1879 -108 Q 1890 -108 1891 -101 Q 1893 -94 1888 -86 Q 1883 -76 1868 -66 L 1860 -60 Q 1833 -42 1819 -42 L 1756 -48 L 1611 -58 L 1503 -64 L 1451 -69 Z" fill="lightgray"></path> 
      <clipPath id="make-me-a-hanzi-clip-0">
      <path d="M 196 597 Q 175 597 175 593 Q 175 587 214 530 Q 260 469 292 469 Q 315 469 315 497 Q 315 518 306 539 Q 290 570 256 584 Q 228 595 196 597 Z" fill="lightgray"></path>
      </clipPath>
      <path clip-path="url(#make-me-a-hanzi-clip-0)" d="M 179 592 L 259 537 L 294 489 " fill="none" id="make-me-a-hanzi-animation-0" stroke-dasharray="284 568" stroke-linecap="round"></path>

      <clipPath id="make-me-a-hanzi-clip-1">
      <path d="M 248 344 Q 241 344 209 322 Q 150 282 116 281 Q 109 281 84 285 Q 76 284 76 272 Q 76 266 97 253 Q 124 241 139 241 Q 150 241 219 272 Q 227 272 227 268 L 217 84 Q 213 18 177 -27 Q 164 -42 164 -51 Q 164 -70 173 -89 Q 186 -120 200 -120 Q 206 -120 216 -101 Q 261 -33 329 29 Q 368 68 368 73 Q 368 81 355 81 Q 350 81 259 11 L 275 212 Q 280 253 302 278 Q 324 297 324 300 Q 324 315 296 331 Q 269 344 248 344 Z" fill="lightgray"></path>
      </clipPath>
      <path clip-path="url(#make-me-a-hanzi-clip-1)" d="M 87 274 L 112 264 L 138 263 L 214 297 L 261 297 L 233 21 L 271 18 L 279 8 L 263 -10 L 230 -16 L 202 -56 L 198 -110 " fill="none" id="make-me-a-hanzi-animation-1" stroke-dasharray="800 1600" stroke-linecap="round"></path>

      <clipPath id="make-me-a-hanzi-clip-2">
      <path d="M 724 597 Q 713 597 688 586 Q 672 579 647 570 L 586 555 Q 534 544 460 532 Q 447 531 447 524 Q 447 517 469 510 Q 495 501 515 501 Q 530 501 556 508 Q 568 510 589 515 L 643 526 Q 677 534 724 545 Q 746 548 773 558 Q 787 564 787 577 Q 784 596 724 597 Z" fill="lightgray"></path>
      </clipPath>
      <path clip-path="url(#make-me-a-hanzi-clip-2)" d="M 455 525 L 481 520 L 543 525 L 656 550 L 716 570 L 774 575 " fill="none" id="make-me-a-hanzi-animation-2" stroke-dasharray="454 908" stroke-linecap="round"></path>

      <clipPath id="make-me-a-hanzi-clip-3">
      <path d="M 592 458 Q 530 443 483 436 Q 468 434 468 428 Q 468 422 487 417 Q 513 409 536 409 Q 548 409 594 416 L 640 423 Q 682 429 743 440 Q 760 445 760 461 Q 760 483 720 484 Q 702 484 681 478 Q 662 473 641 468 L 592 458 Z" fill="lightgray"></path>
      </clipPath>
      <path clip-path="url(#make-me-a-hanzi-clip-3)" d="M 474 428 L 548 428 L 739 461 " fill="none" id="make-me-a-hanzi-animation-3" stroke-dasharray="396 792" stroke-linecap="round"></path>

      <clipPath id="make-me-a-hanzi-clip-4">
      <path d="M 647 570 Q 649 606 660 633 Q 664 642 664 648 Q 664 665 623 688 Q 583 709 555 709 Q 540 709 540 696 Q 540 692 549 683 Q 562 672 572 639 Q 581 613 586 555 L 589 515 Q 591 488 592 458 L 594 416 Q 595 387 596 354 C 597 324 640 331 640 361 L 640 423 L 641 468 Q 642 502 643 526 L 647 570 Z" fill="lightgray"></path>
      </clipPath>
      <path clip-path="url(#make-me-a-hanzi-clip-4)" d="M 552 697 L 579 682 L 617 641 L 618 384 L 602 362 " fill="none" id="make-me-a-hanzi-animation-4" stroke-dasharray="499 998" stroke-linecap="round"></path>

      <clipPath id="make-me-a-hanzi-clip-5">
      <path d="M 596 354 Q 563 349 524 342 Q 416 321 355 312 Q 343 310 343 304 Q 344 300 367 285 Q 385 272 399 272 Q 409 272 441 284 Q 525 307 630 321 Q 729 337 811 337 L 853 336 Q 901 333 924 333 Q 954 334 955 348 Q 952 365 925 381 Q 897 396 876 396 Q 863 396 843 392 Q 808 387 771 383 Q 740 379 640 361 L 596 354 Z" fill="lightgray"></path>
      </clipPath>
      <path clip-path="url(#make-me-a-hanzi-clip-5)" d="M 351 305 L 397 295 L 564 331 L 781 361 L 873 366 L 942 349 " fill="none" id="make-me-a-hanzi-animation-5" stroke-dasharray="728 1456" stroke-linecap="round"></path>

      <clipPath id="make-me-a-hanzi-clip-6">
      <path d="M 543 238 Q 536 244 516 252 Q 497 262 475 264 Q 468 263 468 253 Q 468 248 473 243 Q 496 218 496 131 Q 496 -33 475 -101 Q 468 -120 468 -128 Q 468 -146 474 -170 Q 487 -204 496 -204 Q 512 -204 524 -172 Q 534 -152 539 -4 L 539 13 Q 540 53 540 103 L 540 122 L 540 131 Q 540 179 548 201 L 552 209 C 560 228 560 228 543 238 Z" fill="lightgray"></path>
      </clipPath>
      <path clip-path="url(#make-me-a-hanzi-clip-6)" d="M 480 253 L 514 224 L 519 212 L 516 -16 L 500 -128 L 498 -193 " fill="none" id="make-me-a-hanzi-animation-6" stroke-dasharray="592 1184" stroke-linecap="round"></path>

      <clipPath id="make-me-a-hanzi-clip-7">
      <path d="M 712 289 Q 705 288 682 278 Q 663 268 611 253 Q 569 242 543 238 C 513 233 523 201 552 209 Q 558 210 575 215 Q 603 223 637 231 Q 663 237 672 237 Q 691 237 702 232 Q 717 225 720 208 Q 722 183 723 157 L 725 126 Q 728 86 729 45 L 730 20 Q 731 -3 731 -27 Q 731 -53 726 -79 Q 722 -95 716 -95 Q 703 -95 670 -90 Q 647 -87 640 -87 Q 636 -87 636 -91 Q 637 -95 659 -115 Q 691 -148 706 -176 Q 720 -202 731 -204 Q 744 -204 759 -187 Q 776 -170 787 -128 Q 800 -87 800 -40 Q 800 -20 788 105 Q 783 177 783 188 Q 783 199 797 219 Q 804 230 804 232 Q 804 243 767 265 Q 729 289 712 289 Z" fill="lightgray"></path>
      </clipPath>
      <path clip-path="url(#make-me-a-hanzi-clip-7)" d="M 550 232 L 564 227 L 659 252 L 714 259 L 755 227 L 752 185 L 765 -49 L 753 -111 L 736 -137 L 640 -91 " fill="none" id="make-me-a-hanzi-animation-7" stroke-dasharray="826 1652" stroke-linecap="round"></path>

      <clipPath id="make-me-a-hanzi-clip-8">
      <path d="M 723 157 Q 715 161 699 161 Q 687 161 673 156 Q 595 131 540 122 C 510 117 511 112 540 103 Q 561 96 580 96 Q 598 96 724 125 L 725 126 C 753 136 751 147 723 157 Z" fill="lightgray"></path>
      </clipPath>
      <path clip-path="url(#make-me-a-hanzi-clip-8)" d="M 547 117 L 575 112 L 695 140 L 717 133 " fill="none" id="make-me-a-hanzi-animation-8" stroke-dasharray="303 606" stroke-linecap="round"></path>

      <clipPath id="make-me-a-hanzi-clip-9">
      <path d="M 539 -4 L 540 -4 Q 561 -11 580 -11 Q 598 -11 724 16 Q 727 17 730 20 C 749 34 749 34 729 45 Q 722 51 699 52 Q 687 52 673 47 Q 594 24 539 13 C 510 7 510 4 539 -4 Z" fill="lightgray"></path>
      </clipPath>
      <path clip-path="url(#make-me-a-hanzi-clip-9)" d="M 540 0 L 695 31 L 722 26 " fill="none" id="make-me-a-hanzi-animation-9" stroke-dasharray="314 628" stroke-linecap="round"></path>

      <clipPath id="make-me-a-hanzi-clip-10">
      <path d="M 1284 312 L 1328 383 Q 1334 393 1343 400 Q 1352 407 1345 416 Q 1342 429 1319 449 L 1296 463 Q 1290 468 1281 468 Q 1265 468 1268 450 Q 1271 432 1269 427 L 1258 395 Q 1250 368 1229 318 L 1207 270 Q 1188 239 1176 221 L 1135 162 Q 1129 154 1132 151 Q 1135 148 1144 154 L 1174 179 Q 1204 202 1231 237 L 1259 272 Q 1265 282 1275 296 L 1284 312 Z" fill="lightgray"></path>
      </clipPath>
      <path clip-path="url(#make-me-a-hanzi-clip-10)" d="M 1280 455 L 1303 419 L 1302 409 L 1229 267 L 1205 231 L 1137 155 " fill="none" id="make-me-a-hanzi-animation-10" stroke-dasharray="486 972" stroke-linecap="round"></path>

      <clipPath id="make-me-a-hanzi-clip-11">
      <path d="M 1319 298 L 1284 312 C 1256 323 1257 320 1275 296 L 1288 279 Q 1288 275 1314 245 Q 1341 215 1347 206 Q 1354 196 1364 191 Q 1375 186 1383 188 Q 1399 193 1399 215 Q 1399 236 1397 244 Q 1389 270 1319 298 Z" fill="lightgray"></path>
      </clipPath>
      <path clip-path="url(#make-me-a-hanzi-clip-11)" d="M 1288 305 L 1289 297 L 1360 242 L 1378 207 " fill="none" id="make-me-a-hanzi-animation-11" stroke-dasharray="265 530" stroke-linecap="round"></path>

      <clipPath id="make-me-a-hanzi-clip-12">
      <path d="M 1689 327 L 1701 346 L 1724 388 Q 1743 417 1750 423 Q 1758 429 1756 439 Q 1754 449 1742 456 Q 1739 459 1718 472 Q 1705 482 1695 484 Q 1677 491 1677 472 L 1678 456 Q 1678 450 1673 429 L 1664 399 L 1618 298 Q 1615 289 1594 260 L 1553 198 Q 1546 191 1549 186 Q 1552 182 1563 191 L 1587 210 Q 1612 227 1622 239 Q 1641 254 1652 271 L 1679 306 L 1689 327 Z" fill="lightgray"></path>
      </clipPath>
      <path clip-path="url(#make-me-a-hanzi-clip-12)" d="M 1688 475 L 1709 440 L 1702 412 L 1632 278 L 1555 191 " fill="none" id="make-me-a-hanzi-animation-12" stroke-dasharray="465 930" stroke-linecap="round"></path>

      <clipPath id="make-me-a-hanzi-clip-13">
      <path d="M 1760 300 L 1689 327 C 1661 338 1656 326 1679 306 L 1700 288 L 1731 258 L 1760 225 Q 1769 217 1787 203 Q 1806 189 1819 204 Q 1828 220 1825 239 Q 1823 258 1821 262 Q 1819 266 1803 278 Q 1787 289 1760 300 Z" fill="lightgray"></path>
      </clipPath>
      <path clip-path="url(#make-me-a-hanzi-clip-13)" d="M 1694 318 L 1696 309 L 1790 245 L 1804 215 " fill="none" id="make-me-a-hanzi-animation-13" stroke-dasharray="284 568" stroke-linecap="round"></path>

      <clipPath id="make-me-a-hanzi-clip-14">
      <path d="M 1383 50 L 1452 54 L 1507 60 L 1549 64 L 1633 77 Q 1681 84 1693 92 Q 1707 94 1696 106 Q 1692 112 1689 113 L 1652 131 Q 1636 134 1632 134 Q 1629 134 1619 130 Q 1610 126 1578 121 L 1507 108 L 1452 100 L 1292 86 Q 1280 84 1278 82 Q 1277 79 1284 67 Q 1292 58 1318 53 Q 1344 47 1383 50 Z" fill="lightgray"></path>
      </clipPath>
      <path clip-path="url(#make-me-a-hanzi-clip-14)" d="M 1286 81 L 1314 71 L 1374 71 L 1498 82 L 1633 105 L 1684 101 " fill="none" id="make-me-a-hanzi-animation-14" stroke-dasharray="530 1060" stroke-linecap="round"></path>

      <clipPath id="make-me-a-hanzi-clip-15">
      <path d="M 1452 54 L 1451 -69 C 1451 -99 1502 -94 1503 -64 L 1507 60 L 1507 108 L 1512 304 Q 1512 323 1515 394 L 1520 451 Q 1522 499 1541 551 Q 1547 566 1535 577 Q 1527 587 1519 589 L 1491 598 Q 1442 616 1431 605 Q 1422 601 1433 581 Q 1445 560 1446 544 Q 1449 526 1451 504 L 1454 453 L 1452 100 L 1452 54 Z" fill="lightgray"></path>
      </clipPath>
      <path clip-path="url(#make-me-a-hanzi-clip-15)" d="M 1440 595 L 1492 549 L 1483 368 L 1478 -40 L 1457 -61 " fill="none" id="make-me-a-hanzi-animation-15" stroke-dasharray="816 1632" stroke-linecap="round"></path>

      <clipPath id="make-me-a-hanzi-clip-16">
      <path d="M 1451 -69 L 1229 -88 L 1188 -90 Q 1170 -90 1162 -92 Q 1149 -92 1147 -95 Q 1138 -102 1160 -120 L 1176 -132 Q 1197 -146 1210 -146 Q 1224 -146 1245 -139 Q 1266 -132 1296 -129 L 1396 -117 L 1488 -112 L 1601 -104 Q 1661 -101 1698 -100 L 1845 -104 L 1879 -108 Q 1890 -108 1891 -101 Q 1893 -94 1888 -86 Q 1883 -76 1868 -66 L 1860 -60 Q 1833 -42 1819 -42 L 1756 -48 L 1611 -58 L 1503 -64 L 1451 -69 Z" fill="lightgray"></path>
      </clipPath>
      <path clip-path="url(#make-me-a-hanzi-clip-16)" d="M 1156 -101 L 1195 -115 L 1220 -117 L 1429 -92 L 1814 -72 L 1880 -95 " fill="none" id="make-me-a-hanzi-animation-16" stroke-dasharray="860 1720" stroke-linecap="round"></path>

</g>
</svg>
