<svg version="1.1" viewBox="0 0 2048 1024" xmlns="http://www.w3.org/2000/svg">
  <g stroke="lightgray" stroke-dasharray="1,1" stroke-width="1" transform="scale(4, 4)">
    <line x1="0" y1="0" x2="256" y2="256"></line>
    <line x1="256" y1="0" x2="0" y2="256"></line>
    <line x1="128" y1="0" x2="128" y2="256"></line>
    <line x1="0" y1="128" x2="256" y2="128"></line>
    <line x1="256" y1="0" x2="512" y2="256"></line>
    <line x1="512" y1="0" x2="256" y2="256"></line>
    <line x1="384" y1="0" x2="384" y2="256"></line>
    <line x1="256" y1="128" x2="512" y2="128"></line>
  </g>
<g transform="scale(1, -1) translate(0, -850)">
   <style type="text/css">
    @keyframes keyframes0 {
      from {
       stroke: black;
       stroke-dashoffset: 705;
       stroke-width: 128;
       }
       70% {
       animation-timing-function: step-end;
       stroke: black;
       stroke-dashoffset: 0;
       stroke-width: 128;
       }
       to {
       stroke: black;
       stroke-width: 1024;
       }
       }
       #make-me-a-hanzi-animation-0 {
         animation: keyframes0 0.823730s both;
         animation-delay: 0.000000s;
         animation-timing-function: linear;
       }
    @keyframes keyframes1 {
      from {
       stroke: black;
       stroke-dashoffset: 871;
       stroke-width: 128;
       }
       74% {
       animation-timing-function: step-end;
       stroke: black;
       stroke-dashoffset: 0;
       stroke-width: 128;
       }
       to {
       stroke: black;
       stroke-width: 1024;
       }
       }
       #make-me-a-hanzi-animation-1 {
         animation: keyframes1 0.958822s both;
         animation-delay: 0.823730s;
         animation-timing-function: linear;
       }
    @keyframes keyframes2 {
      from {
       stroke: black;
       stroke-dashoffset: 909;
       stroke-width: 128;
       }
       75% {
       animation-timing-function: step-end;
       stroke: black;
       stroke-dashoffset: 0;
       stroke-width: 128;
       }
       to {
       stroke: black;
       stroke-width: 1024;
       }
       }
       #make-me-a-hanzi-animation-2 {
         animation: keyframes2 0.989746s both;
         animation-delay: 1.782552s;
         animation-timing-function: linear;
       }
    @keyframes keyframes3 {
      from {
       stroke: black;
       stroke-dashoffset: 383;
       stroke-width: 128;
       }
       55% {
       animation-timing-function: step-end;
       stroke: black;
       stroke-dashoffset: 0;
       stroke-width: 128;
       }
       to {
       stroke: black;
       stroke-width: 1024;
       }
       }
       #make-me-a-hanzi-animation-3 {
         animation: keyframes3 0.561686s both;
         animation-delay: 2.772298s;
         animation-timing-function: linear;
       }
    @keyframes keyframes4 {
      from {
       stroke: black;
       stroke-dashoffset: 660;
       stroke-width: 128;
       }
       68% {
       animation-timing-function: step-end;
       stroke: black;
       stroke-dashoffset: 0;
       stroke-width: 128;
       }
       to {
       stroke: black;
       stroke-width: 1024;
       }
       }
       #make-me-a-hanzi-animation-4 {
         animation: keyframes4 0.787109s both;
         animation-delay: 3.333984s;
         animation-timing-function: linear;
       }
    @keyframes keyframes5 {
      from {
       stroke: black;
       stroke-dashoffset: 1170;
       stroke-width: 128;
       }
       79% {
       animation-timing-function: step-end;
       stroke: black;
       stroke-dashoffset: 0;
       stroke-width: 128;
       }
       to {
       stroke: black;
       stroke-width: 1024;
       }
       }
       #make-me-a-hanzi-animation-5 {
         animation: keyframes5 1.202148s both;
         animation-delay: 4.121093s;
         animation-timing-function: linear;
       }
    @keyframes keyframes6 {
      from {
       stroke: black;
       stroke-dashoffset: 620;
       stroke-width: 128;
       }
       67% {
       animation-timing-function: step-end;
       stroke: black;
       stroke-dashoffset: 0;
       stroke-width: 128;
       }
       to {
       stroke: black;
       stroke-width: 1024;
       }
       }
       #make-me-a-hanzi-animation-6 {
         animation: keyframes6 0.754557s both;
         animation-delay: 5.323241s;
         animation-timing-function: linear;
       }
    @keyframes keyframes7 {
      from {
       stroke: black;
       stroke-dashoffset: 785;
       stroke-width: 128;
       }
       72% {
       animation-timing-function: step-end;
       stroke: black;
       stroke-dashoffset: 0;
       stroke-width: 128;
       }
       to {
       stroke: black;
       stroke-width: 1024;
       }
       }
       #make-me-a-hanzi-animation-7 {
         animation: keyframes7 0.888835s both;
         animation-delay: 6.077798s;
         animation-timing-function: linear;
       }
    @keyframes keyframes8 {
      from {
       stroke: black;
       stroke-dashoffset: 856;
       stroke-width: 128;
       }
       74% {
       animation-timing-function: step-end;
       stroke: black;
       stroke-dashoffset: 0;
       stroke-width: 128;
       }
       to {
       stroke: black;
       stroke-width: 1024;
       }
       }
       #make-me-a-hanzi-animation-8 {
         animation: keyframes8 0.946615s both;
         animation-delay: 6.966633s;
         animation-timing-function: linear;
       }
    @keyframes keyframes9 {
      from {
       stroke: black;
       stroke-dashoffset: 610;
       stroke-width: 128;
       }
       67% {
       animation-timing-function: step-end;
       stroke: black;
       stroke-dashoffset: 0;
       stroke-width: 128;
       }
       to {
       stroke: black;
       stroke-width: 1024;
       }
       }
       #make-me-a-hanzi-animation-9 {
         animation: keyframes9 0.746419s both;
         animation-delay: 7.913248s;
         animation-timing-function: linear;
       }
    @keyframes keyframes10 {
      from {
       stroke: black;
       stroke-dashoffset: 939;
       stroke-width: 128;
       }
       75% {
       animation-timing-function: step-end;
       stroke: black;
       stroke-dashoffset: 0;
       stroke-width: 128;
       }
       to {
       stroke: black;
       stroke-width: 1024;
       }
       }
       #make-me-a-hanzi-animation-10 {
         animation: keyframes10 1.014160s both;
         animation-delay: 8.659667s;
         animation-timing-function: linear;
       }
    @keyframes keyframes11 {
      from {
       stroke: black;
       stroke-dashoffset: 489;
       stroke-width: 128;
       }
       61% {
       animation-timing-function: step-end;
       stroke: black;
       stroke-dashoffset: 0;
       stroke-width: 128;
       }
       to {
       stroke: black;
       stroke-width: 1024;
       }
       }
       #make-me-a-hanzi-animation-11 {
         animation: keyframes11 0.647949s both;
         animation-delay: 9.673827s;
         animation-timing-function: linear;
       }
    @keyframes keyframes12 {
      from {
       stroke: black;
       stroke-dashoffset: 562;
       stroke-width: 128;
       }
       65% {
       animation-timing-function: step-end;
       stroke: black;
       stroke-dashoffset: 0;
       stroke-width: 128;
       }
       to {
       stroke: black;
       stroke-width: 1024;
       }
       }
       #make-me-a-hanzi-animation-12 {
         animation: keyframes12 0.707357s both;
         animation-delay: 10.321776s;
         animation-timing-function: linear;
       }
    @keyframes keyframes13 {
      from {
       stroke: black;
       stroke-dashoffset: 484;
       stroke-width: 128;
       }
       61% {
       animation-timing-function: step-end;
       stroke: black;
       stroke-dashoffset: 0;
       stroke-width: 128;
       }
       to {
       stroke: black;
       stroke-width: 1024;
       }
       }
       #make-me-a-hanzi-animation-13 {
         animation: keyframes13 0.643880s both;
         animation-delay: 11.029133s;
         animation-timing-function: linear;
       }
    @keyframes keyframes14 {
      from {
       stroke: black;
       stroke-dashoffset: 808;
       stroke-width: 128;
       }
       72% {
       animation-timing-function: step-end;
       stroke: black;
       stroke-dashoffset: 0;
       stroke-width: 128;
       }
       to {
       stroke: black;
       stroke-width: 1024;
       }
       }
       #make-me-a-hanzi-animation-14 {
         animation: keyframes14 0.907552s both;
         animation-delay: 11.673013s;
         animation-timing-function: linear;
       }
</style>
<path d="M 217.0 623.0 Q 208.0 632.0 185.0 642.0 Q 175.0 646.0 164.0 642.0 Q 157.0 638.0 162.0 625.0 Q 183.0 561.0 178.0 425.0 Q 169.0 317.0 162.0 289.0 Q 147.0 235.0 182.0 190.0 Q 192.0 177.0 203.0 189.0 Q 218.0 210.0 220.0 293.0 Q 227.0 561.0 231.0 579.0 Q 232.0 589.0 232.0 596.0 C 233.0 611.0 233.0 611.0 217.0 623.0 Z" fill="lightgray"></path> 
<path d="M 390.0 277.0 Q 383.0 255.0 396.0 234.0 Q 409.0 206.0 418.0 207.0 Q 431.0 208.0 447.0 240.0 Q 460.0 265.0 460.0 285.0 Q 447.0 379.0 449.0 523.0 Q 449.0 566.0 472.0 601.0 Q 482.0 617.0 475.0 626.0 Q 448.0 648.0 404.0 667.0 Q 389.0 673.0 315.0 644.0 Q 279.0 632.0 217.0 623.0 C 187.0 618.0 203.0 589.0 232.0 596.0 Q 233.0 597.0 236.0 597.0 Q 276.0 606.0 306.0 613.0 Q 370.0 629.0 384.0 620.0 Q 394.0 595.0 400.0 525.0 Q 401.0 317.0 390.0 277.0 Z" fill="lightgray"></path> 
<path d="M 292.0 474.0 Q 304.0 206.0 235.0 98.0 Q 201.0 50.0 122.0 -5.0 Q 112.0 -9.0 109.0 -14.0 Q 105.0 -18.0 119.0 -20.0 Q 158.0 -20.0 238.0 41.0 Q 338.0 122.0 339.0 386.0 Q 339.0 455.0 352.0 503.0 Q 356.0 513.0 348.0 519.0 Q 332.0 532.0 300.0 544.0 Q 282.0 551.0 268.0 545.0 Q 252.0 538.0 265.0 524.0 Q 290.0 499.0 292.0 474.0 Z" fill="lightgray"></path> 
<path d="M 361.0 138.0 Q 383.0 113.0 406.0 82.0 Q 416.0 69.0 430.0 68.0 Q 439.0 67.0 445.0 78.0 Q 451.0 90.0 447.0 117.0 Q 446.0 136.0 419.0 153.0 Q 359.0 187.0 344.0 184.0 Q 340.0 181.0 339.0 170.0 Q 340.0 160.0 361.0 138.0 Z" fill="lightgray"></path> 
<path d="M 754.0 473.0 Q 802.0 485.0 898.0 500.0 Q 910.0 499.0 918.0 513.0 Q 919.0 526.0 894.0 535.0 Q 858.0 556.0 780.0 527.0 Q 767.0 524.0 755.0 519.0 L 703.0 504.0 Q 648.0 491.0 602.0 482.0 Q 560.0 476.0 515.0 467.0 Q 485.0 463.0 509.0 445.0 Q 546.0 421.0 574.0 428.0 Q 616.0 441.0 667.0 451.0 L 754.0 473.0 Z" fill="lightgray"></path> 
<path d="M 703.0 370.0 Q 703.0 247.0 703.0 70.0 Q 702.0 46.0 690.0 37.0 Q 681.0 31.0 618.0 44.0 Q 584.0 56.0 587.0 45.0 Q 588.0 38.0 609.0 23.0 Q 672.0 -29.0 687.0 -57.0 Q 706.0 -91.0 721.0 -92.0 Q 737.0 -93.0 751.0 -57.0 Q 770.0 -9.0 767.0 67.0 Q 752.0 271.0 754.0 473.0 L 755.0 519.0 Q 755.0 634.0 773.0 696.0 Q 789.0 727.0 732.0 750.0 Q 698.0 769.0 677.0 762.0 Q 658.0 755.0 675.0 731.0 Q 697.0 703.0 700.0 668.0 Q 701.0 650.0 703.0 504.0 L 703.0 370.0 Z" fill="lightgray"></path> 
<path d="M 667.0 451.0 Q 661.0 358.0 487.0 162.0 Q 469.0 144.0 495.0 152.0 Q 579.0 176.0 696.0 358.0 Q 697.0 365.0 703.0 370.0 C 773.0 475.0 673.0 503.0 667.0 451.0 Z" fill="lightgray"></path> 
<path d="M 1333.5 401.5 Q 1278.5 402.5 1231.5 401.5 Q 1194.5 401.5 1213.5 424.5 Q 1285.5 544.5 1354.5 633.5 Q 1370.5 652.5 1367.5 660.5 Q 1364.5 676.5 1322.5 709.5 Q 1306.5 724.5 1285.5 720.5 Q 1273.5 716.5 1280.5 700.5 Q 1301.5 640.5 1186.5 456.5 Q 1168.5 435.5 1143.5 411.5 Q 1124.5 395.5 1125.5 383.5 Q 1129.5 362.5 1144.5 343.5 Q 1156.5 331.5 1169.5 339.5 Q 1199.5 355.5 1299.5 372.5 Q 1305.5 373.5 1312.5 373.5 C 1342.5 376.5 1363.5 401.5 1333.5 401.5 Z" fill="lightgray"></path> 
<path d="M 1312.5 373.5 Q 1201.5 231.5 1180.5 220.5 Q 1167.5 210.5 1169.5 196.5 Q 1170.5 183.5 1197.5 162.5 Q 1207.5 149.5 1223.5 162.5 Q 1283.5 204.5 1410.5 248.5 Q 1429.5 252.5 1432.5 262.5 Q 1435.5 272.5 1414.5 269.5 Q 1350.5 257.5 1270.5 234.5 Q 1242.5 224.5 1260.5 247.5 Q 1303.5 305.5 1403.5 421.5 Q 1433.5 458.5 1459.5 480.5 Q 1472.5 490.5 1465.5 501.5 Q 1455.5 520.5 1421.5 540.5 Q 1405.5 550.5 1395.5 547.5 Q 1385.5 544.5 1387.5 528.5 Q 1388.5 491.5 1333.5 401.5 L 1312.5 373.5 Z" fill="lightgray"></path> 
<path d="M 1124.5 26.5 Q 1111.5 23.5 1110.5 12.5 Q 1110.5 -0.5 1121.5 -8.5 Q 1146.5 -21.5 1183.5 -36.5 Q 1193.5 -37.5 1205.5 -27.5 Q 1233.5 2.5 1396.5 105.5 Q 1418.5 118.5 1435.5 135.5 Q 1447.5 145.5 1446.5 154.5 Q 1440.5 158.5 1427.5 155.5 Q 1175.5 32.5 1124.5 26.5 Z" fill="lightgray"></path> 
<path d="M 1694.5 472.5 Q 1728.5 508.5 1762.5 550.5 Q 1783.5 578.5 1818.5 607.5 Q 1834.5 617.5 1829.5 628.5 Q 1828.5 638.5 1764.5 663.5 Q 1745.5 673.5 1725.5 660.5 Q 1653.5 621.5 1496.5 600.5 Q 1477.5 597.5 1490.5 582.5 Q 1515.5 563.5 1557.5 574.5 Q 1630.5 589.5 1685.5 602.5 Q 1701.5 606.5 1707.5 599.5 Q 1710.5 593.5 1699.5 576.5 Q 1633.5 459.5 1464.5 331.5 Q 1448.5 319.5 1463.5 318.5 Q 1529.5 318.5 1675.5 452.5 L 1694.5 472.5 Z" fill="lightgray"></path> 
<path d="M 1675.5 452.5 Q 1747.5 401.5 1835.5 328.5 Q 1853.5 312.5 1867.5 309.5 Q 1876.5 309.5 1882.5 320.5 Q 1892.5 333.5 1874.5 373.5 Q 1855.5 427.5 1694.5 472.5 C 1665.5 480.5 1651.5 469.5 1675.5 452.5 Z" fill="lightgray"></path> 
<path d="M 1644.5 242.5 Q 1806.5 270.5 1811.5 274.5 Q 1821.5 283.5 1816.5 292.5 Q 1809.5 305.5 1778.5 314.5 Q 1753.5 320.5 1642.5 292.5 Q 1561.5 280.5 1513.5 276.5 Q 1473.5 272.5 1501.5 252.5 Q 1543.5 225.5 1604.5 236.5 L 1644.5 242.5 Z" fill="lightgray"></path> 
<path d="M 1653.5 21.5 Q 1666.5 162.5 1673.5 188.5 Q 1682.5 212.5 1644.5 242.5 C 1621.5 261.5 1595.5 265.5 1604.5 236.5 Q 1613.5 215.5 1611.5 108.5 Q 1610.5 71.5 1608.5 17.5 C 1607.5 -12.5 1650.5 -8.5 1653.5 21.5 Z" fill="lightgray"></path> 
<path d="M 1608.5 17.5 Q 1511.5 10.5 1399.5 0.5 Q 1377.5 -0.5 1393.5 -19.5 Q 1406.5 -35.5 1426.5 -41.5 Q 1448.5 -48.5 1466.5 -44.5 Q 1655.5 -5.5 1927.5 -25.5 Q 1949.5 -26.5 1954.5 -17.5 Q 1961.5 -4.5 1944.5 10.5 Q 1889.5 55.5 1849.5 47.5 Q 1776.5 35.5 1653.5 21.5 L 1608.5 17.5 Z" fill="lightgray"></path> 
      <clipPath id="make-me-a-hanzi-clip-0">
      <path d="M 217.0 623.0 Q 208.0 632.0 185.0 642.0 Q 175.0 646.0 164.0 642.0 Q 157.0 638.0 162.0 625.0 Q 183.0 561.0 178.0 425.0 Q 169.0 317.0 162.0 289.0 Q 147.0 235.0 182.0 190.0 Q 192.0 177.0 203.0 189.0 Q 218.0 210.0 220.0 293.0 Q 227.0 561.0 231.0 579.0 Q 232.0 589.0 232.0 596.0 C 233.0 611.0 233.0 611.0 217.0 623.0 Z" fill="lightgray"></path>
      </clipPath>
      <path clip-path="url(#make-me-a-hanzi-clip-0)" d="M 171.0 633.0 L 197.0 603.0 L 202.0 582.0 L 199.0 363.0 L 187.0 253.0 L 193.0 195.0 " fill="none" id="make-me-a-hanzi-animation-0" stroke-dasharray="577 1154" stroke-linecap="round"></path>

      <clipPath id="make-me-a-hanzi-clip-1">
      <path d="M 390.0 277.0 Q 383.0 255.0 396.0 234.0 Q 409.0 206.0 418.0 207.0 Q 431.0 208.0 447.0 240.0 Q 460.0 265.0 460.0 285.0 Q 447.0 379.0 449.0 523.0 Q 449.0 566.0 472.0 601.0 Q 482.0 617.0 475.0 626.0 Q 448.0 648.0 404.0 667.0 Q 389.0 673.0 315.0 644.0 Q 279.0 632.0 217.0 623.0 C 187.0 618.0 203.0 589.0 232.0 596.0 Q 233.0 597.0 236.0 597.0 Q 276.0 606.0 306.0 613.0 Q 370.0 629.0 384.0 620.0 Q 394.0 595.0 400.0 525.0 Q 401.0 317.0 390.0 277.0 Z" fill="lightgray"></path>
      </clipPath>
      <path clip-path="url(#make-me-a-hanzi-clip-1)" d="M 226.0 619.0 L 239.0 612.0 L 315.0 627.0 L 331.0 636.0 L 388.0 643.0 L 401.0 641.0 L 429.0 609.0 L 423.0 537.0 L 426.0 280.0 L 419.0 218.0 " fill="none" id="make-me-a-hanzi-animation-1" stroke-dasharray="743 1486" stroke-linecap="round"></path>

      <clipPath id="make-me-a-hanzi-clip-2">
      <path d="M 292.0 474.0 Q 304.0 206.0 235.0 98.0 Q 201.0 50.0 122.0 -5.0 Q 112.0 -9.0 109.0 -14.0 Q 105.0 -18.0 119.0 -20.0 Q 158.0 -20.0 238.0 41.0 Q 338.0 122.0 339.0 386.0 Q 339.0 455.0 352.0 503.0 Q 356.0 513.0 348.0 519.0 Q 332.0 532.0 300.0 544.0 Q 282.0 551.0 268.0 545.0 Q 252.0 538.0 265.0 524.0 Q 290.0 499.0 292.0 474.0 Z" fill="lightgray"></path>
      </clipPath>
      <path clip-path="url(#make-me-a-hanzi-clip-2)" d="M 270.0 534.0 L 310.0 510.0 L 319.0 490.0 L 315.0 311.0 L 292.0 174.0 L 268.0 112.0 L 237.0 67.0 L 189.0 24.0 L 141.0 -5.0 L 117.0 -12.0 " fill="none" id="make-me-a-hanzi-animation-2" stroke-dasharray="781 1562" stroke-linecap="round"></path>

      <clipPath id="make-me-a-hanzi-clip-3">
      <path d="M 361.0 138.0 Q 383.0 113.0 406.0 82.0 Q 416.0 69.0 430.0 68.0 Q 439.0 67.0 445.0 78.0 Q 451.0 90.0 447.0 117.0 Q 446.0 136.0 419.0 153.0 Q 359.0 187.0 344.0 184.0 Q 340.0 181.0 339.0 170.0 Q 340.0 160.0 361.0 138.0 Z" fill="lightgray"></path>
      </clipPath>
      <path clip-path="url(#make-me-a-hanzi-clip-3)" d="M 347.0 175.0 L 410.0 125.0 L 431.0 83.0 " fill="none" id="make-me-a-hanzi-animation-3" stroke-dasharray="255 510" stroke-linecap="round"></path>

      <clipPath id="make-me-a-hanzi-clip-4">
      <path d="M 754.0 473.0 Q 802.0 485.0 898.0 500.0 Q 910.0 499.0 918.0 513.0 Q 919.0 526.0 894.0 535.0 Q 858.0 556.0 780.0 527.0 Q 767.0 524.0 755.0 519.0 L 703.0 504.0 Q 648.0 491.0 602.0 482.0 Q 560.0 476.0 515.0 467.0 Q 485.0 463.0 509.0 445.0 Q 546.0 421.0 574.0 428.0 Q 616.0 441.0 667.0 451.0 L 754.0 473.0 Z" fill="lightgray"></path>
      </clipPath>
      <path clip-path="url(#make-me-a-hanzi-clip-4)" d="M 510.0 457.0 L 565.0 451.0 L 843.0 518.0 L 906.0 514.0 " fill="none" id="make-me-a-hanzi-animation-4" stroke-dasharray="532 1064" stroke-linecap="round"></path>

      <clipPath id="make-me-a-hanzi-clip-5">
      <path d="M 703.0 370.0 Q 703.0 247.0 703.0 70.0 Q 702.0 46.0 690.0 37.0 Q 681.0 31.0 618.0 44.0 Q 584.0 56.0 587.0 45.0 Q 588.0 38.0 609.0 23.0 Q 672.0 -29.0 687.0 -57.0 Q 706.0 -91.0 721.0 -92.0 Q 737.0 -93.0 751.0 -57.0 Q 770.0 -9.0 767.0 67.0 Q 752.0 271.0 754.0 473.0 L 755.0 519.0 Q 755.0 634.0 773.0 696.0 Q 789.0 727.0 732.0 750.0 Q 698.0 769.0 677.0 762.0 Q 658.0 755.0 675.0 731.0 Q 697.0 703.0 700.0 668.0 Q 701.0 650.0 703.0 504.0 L 703.0 370.0 Z" fill="lightgray"></path>
      </clipPath>
      <path clip-path="url(#make-me-a-hanzi-clip-5)" d="M 684.0 746.0 L 734.0 705.0 L 727.0 517.0 L 735.0 57.0 L 729.0 24.0 L 713.0 -7.0 L 647.0 17.0 L 607.0 36.0 L 605.0 43.0 L 594.0 43.0 " fill="none" id="make-me-a-hanzi-animation-5" stroke-dasharray="1042 2084" stroke-linecap="round"></path>

      <clipPath id="make-me-a-hanzi-clip-6">
      <path d="M 667.0 451.0 Q 661.0 358.0 487.0 162.0 Q 469.0 144.0 495.0 152.0 Q 579.0 176.0 696.0 358.0 Q 697.0 365.0 703.0 370.0 C 773.0 475.0 673.0 503.0 667.0 451.0 Z" fill="lightgray"></path>
      </clipPath>
      <path clip-path="url(#make-me-a-hanzi-clip-6)" d="M 699.0 453.0 L 684.0 435.0 L 679.0 393.0 L 668.0 362.0 L 622.0 291.0 L 558.0 214.0 L 497.0 162.0 " fill="none" id="make-me-a-hanzi-animation-6" stroke-dasharray="492 984" stroke-linecap="round"></path>

      <clipPath id="make-me-a-hanzi-clip-7">
      <path d="M 1333.5 401.5 Q 1278.5 402.5 1231.5 401.5 Q 1194.5 401.5 1213.5 424.5 Q 1285.5 544.5 1354.5 633.5 Q 1370.5 652.5 1367.5 660.5 Q 1364.5 676.5 1322.5 709.5 Q 1306.5 724.5 1285.5 720.5 Q 1273.5 716.5 1280.5 700.5 Q 1301.5 640.5 1186.5 456.5 Q 1168.5 435.5 1143.5 411.5 Q 1124.5 395.5 1125.5 383.5 Q 1129.5 362.5 1144.5 343.5 Q 1156.5 331.5 1169.5 339.5 Q 1199.5 355.5 1299.5 372.5 Q 1305.5 373.5 1312.5 373.5 C 1342.5 376.5 1363.5 401.5 1333.5 401.5 Z" fill="lightgray"></path>
      </clipPath>
      <path clip-path="url(#make-me-a-hanzi-clip-7)" d="M 1289.5 708.5 L 1304.5 696.5 L 1322.5 656.5 L 1254.5 528.5 L 1180.5 410.5 L 1174.5 385.5 L 1227.5 379.5 L 1286.5 384.5 L 1304.5 386.5 L 1325.5 400.5 " fill="none" id="make-me-a-hanzi-animation-7" stroke-dasharray="657 1314" stroke-linecap="round"></path>

      <clipPath id="make-me-a-hanzi-clip-8">
      <path d="M 1312.5 373.5 Q 1201.5 231.5 1180.5 220.5 Q 1167.5 210.5 1169.5 196.5 Q 1170.5 183.5 1197.5 162.5 Q 1207.5 149.5 1223.5 162.5 Q 1283.5 204.5 1410.5 248.5 Q 1429.5 252.5 1432.5 262.5 Q 1435.5 272.5 1414.5 269.5 Q 1350.5 257.5 1270.5 234.5 Q 1242.5 224.5 1260.5 247.5 Q 1303.5 305.5 1403.5 421.5 Q 1433.5 458.5 1459.5 480.5 Q 1472.5 490.5 1465.5 501.5 Q 1455.5 520.5 1421.5 540.5 Q 1405.5 550.5 1395.5 547.5 Q 1385.5 544.5 1387.5 528.5 Q 1388.5 491.5 1333.5 401.5 L 1312.5 373.5 Z" fill="lightgray"></path>
      </clipPath>
      <path clip-path="url(#make-me-a-hanzi-clip-8)" d="M 1400.5 534.5 L 1418.5 493.5 L 1345.5 382.5 L 1247.5 263.5 L 1231.5 238.5 L 1224.5 208.5 L 1248.5 207.5 L 1278.5 215.5 L 1423.5 262.5 " fill="none" id="make-me-a-hanzi-animation-8" stroke-dasharray="728 1456" stroke-linecap="round"></path>

      <clipPath id="make-me-a-hanzi-clip-9">
      <path d="M 1124.5 26.5 Q 1111.5 23.5 1110.5 12.5 Q 1110.5 -0.5 1121.5 -8.5 Q 1146.5 -21.5 1183.5 -36.5 Q 1193.5 -37.5 1205.5 -27.5 Q 1233.5 2.5 1396.5 105.5 Q 1418.5 118.5 1435.5 135.5 Q 1447.5 145.5 1446.5 154.5 Q 1440.5 158.5 1427.5 155.5 Q 1175.5 32.5 1124.5 26.5 Z" fill="lightgray"></path>
      </clipPath>
      <path clip-path="url(#make-me-a-hanzi-clip-9)" d="M 1126.5 11.5 L 1183.5 4.5 L 1441.5 150.5 " fill="none" id="make-me-a-hanzi-animation-9" stroke-dasharray="482 964" stroke-linecap="round"></path>

      <clipPath id="make-me-a-hanzi-clip-10">
      <path d="M 1694.5 472.5 Q 1728.5 508.5 1762.5 550.5 Q 1783.5 578.5 1818.5 607.5 Q 1834.5 617.5 1829.5 628.5 Q 1828.5 638.5 1764.5 663.5 Q 1745.5 673.5 1725.5 660.5 Q 1653.5 621.5 1496.5 600.5 Q 1477.5 597.5 1490.5 582.5 Q 1515.5 563.5 1557.5 574.5 Q 1630.5 589.5 1685.5 602.5 Q 1701.5 606.5 1707.5 599.5 Q 1710.5 593.5 1699.5 576.5 Q 1633.5 459.5 1464.5 331.5 Q 1448.5 319.5 1463.5 318.5 Q 1529.5 318.5 1675.5 452.5 L 1694.5 472.5 Z" fill="lightgray"></path>
      </clipPath>
      <path clip-path="url(#make-me-a-hanzi-clip-10)" d="M 1494.5 591.5 L 1521.5 586.5 L 1562.5 592.5 L 1708.5 626.5 L 1738.5 623.5 L 1754.5 615.5 L 1723.5 553.5 L 1650.5 462.5 L 1546.5 371.5 L 1467.5 324.5 " fill="none" id="make-me-a-hanzi-animation-10" stroke-dasharray="811 1622" stroke-linecap="round"></path>

      <clipPath id="make-me-a-hanzi-clip-11">
      <path d="M 1675.5 452.5 Q 1747.5 401.5 1835.5 328.5 Q 1853.5 312.5 1867.5 309.5 Q 1876.5 309.5 1882.5 320.5 Q 1892.5 333.5 1874.5 373.5 Q 1855.5 427.5 1694.5 472.5 C 1665.5 480.5 1651.5 469.5 1675.5 452.5 Z" fill="lightgray"></path>
      </clipPath>
      <path clip-path="url(#make-me-a-hanzi-clip-11)" d="M 1684.5 453.5 L 1702.5 454.5 L 1723.5 444.5 L 1814.5 389.5 L 1843.5 364.5 L 1867.5 324.5 " fill="none" id="make-me-a-hanzi-animation-11" stroke-dasharray="361 722" stroke-linecap="round"></path>

      <clipPath id="make-me-a-hanzi-clip-12">
      <path d="M 1644.5 242.5 Q 1806.5 270.5 1811.5 274.5 Q 1821.5 283.5 1816.5 292.5 Q 1809.5 305.5 1778.5 314.5 Q 1753.5 320.5 1642.5 292.5 Q 1561.5 280.5 1513.5 276.5 Q 1473.5 272.5 1501.5 252.5 Q 1543.5 225.5 1604.5 236.5 L 1644.5 242.5 Z" fill="lightgray"></path>
      </clipPath>
      <path clip-path="url(#make-me-a-hanzi-clip-12)" d="M 1504.5 266.5 L 1527.5 258.5 L 1578.5 257.5 L 1767.5 290.5 L 1805.5 285.5 " fill="none" id="make-me-a-hanzi-animation-12" stroke-dasharray="434 868" stroke-linecap="round"></path>

      <clipPath id="make-me-a-hanzi-clip-13">
      <path d="M 1653.5 21.5 Q 1666.5 162.5 1673.5 188.5 Q 1682.5 212.5 1644.5 242.5 C 1621.5 261.5 1595.5 265.5 1604.5 236.5 Q 1613.5 215.5 1611.5 108.5 Q 1610.5 71.5 1608.5 17.5 C 1607.5 -12.5 1650.5 -8.5 1653.5 21.5 Z" fill="lightgray"></path>
      </clipPath>
      <path clip-path="url(#make-me-a-hanzi-clip-13)" d="M 1611.5 235.5 L 1636.5 213.5 L 1642.5 198.5 L 1631.5 42.5 L 1615.5 26.5 " fill="none" id="make-me-a-hanzi-animation-13" stroke-dasharray="356 712" stroke-linecap="round"></path>

      <clipPath id="make-me-a-hanzi-clip-14">
      <path d="M 1608.5 17.5 Q 1511.5 10.5 1399.5 0.5 Q 1377.5 -0.5 1393.5 -19.5 Q 1406.5 -35.5 1426.5 -41.5 Q 1448.5 -48.5 1466.5 -44.5 Q 1655.5 -5.5 1927.5 -25.5 Q 1949.5 -26.5 1954.5 -17.5 Q 1961.5 -4.5 1944.5 10.5 Q 1889.5 55.5 1849.5 47.5 Q 1776.5 35.5 1653.5 21.5 L 1608.5 17.5 Z" fill="lightgray"></path>
      </clipPath>
      <path clip-path="url(#make-me-a-hanzi-clip-14)" d="M 1396.5 -9.5 L 1449.5 -20.5 L 1632.5 -0.5 L 1858.5 13.5 L 1892.5 8.5 L 1942.5 -9.5 " fill="none" id="make-me-a-hanzi-animation-14" stroke-dasharray="680 1360" stroke-linecap="round"></path>

</g>
</svg>
