<svg version="1.1" viewBox="0 0 2048 1024" xmlns="http://www.w3.org/2000/svg">
  <g stroke="lightgray" stroke-dasharray="1,1" stroke-width="1" transform="scale(4, 4)">
    <line x1="0" y1="0" x2="256" y2="256"></line>
    <line x1="256" y1="0" x2="0" y2="256"></line>
    <line x1="128" y1="0" x2="128" y2="256"></line>
    <line x1="0" y1="128" x2="256" y2="128"></line>
    <line x1="256" y1="0" x2="512" y2="256"></line>
    <line x1="512" y1="0" x2="256" y2="256"></line>
    <line x1="384" y1="0" x2="384" y2="256"></line>
    <line x1="256" y1="128" x2="512" y2="128"></line>
  </g>
<g transform="scale(1, -1) translate(0, -850)">
   <style type="text/css">
    @keyframes keyframes0 {
      from {
       stroke: black;
       stroke-dashoffset: 653;
       stroke-width: 128;
       }
       68% {
       animation-timing-function: step-end;
       stroke: black;
       stroke-dashoffset: 0;
       stroke-width: 128;
       }
       to {
       stroke: black;
       stroke-width: 1024;
       }
       }
       #make-me-a-hanzi-animation-0 {
         animation: keyframes0 0.781413s both;
         animation-delay: 0.000000s;
         animation-timing-function: linear;
       }
    @keyframes keyframes1 {
      from {
       stroke: black;
       stroke-dashoffset: 485;
       stroke-width: 128;
       }
       61% {
       animation-timing-function: step-end;
       stroke: black;
       stroke-dashoffset: 0;
       stroke-width: 128;
       }
       to {
       stroke: black;
       stroke-width: 1024;
       }
       }
       #make-me-a-hanzi-animation-1 {
         animation: keyframes1 0.644694s both;
         animation-delay: 0.781413s;
         animation-timing-function: linear;
       }
    @keyframes keyframes2 {
      from {
       stroke: black;
       stroke-dashoffset: 621;
       stroke-width: 128;
       }
       67% {
       animation-timing-function: step-end;
       stroke: black;
       stroke-dashoffset: 0;
       stroke-width: 128;
       }
       to {
       stroke: black;
       stroke-width: 1024;
       }
       }
       #make-me-a-hanzi-animation-2 {
         animation: keyframes2 0.755371s both;
         animation-delay: 1.426107s;
         animation-timing-function: linear;
       }
    @keyframes keyframes3 {
      from {
       stroke: black;
       stroke-dashoffset: 975;
       stroke-width: 128;
       }
       76% {
       animation-timing-function: step-end;
       stroke: black;
       stroke-dashoffset: 0;
       stroke-width: 128;
       }
       to {
       stroke: black;
       stroke-width: 1024;
       }
       }
       #make-me-a-hanzi-animation-3 {
         animation: keyframes3 1.043457s both;
         animation-delay: 2.181478s;
         animation-timing-function: linear;
       }
    @keyframes keyframes4 {
      from {
       stroke: black;
       stroke-dashoffset: 606;
       stroke-width: 128;
       }
       66% {
       animation-timing-function: step-end;
       stroke: black;
       stroke-dashoffset: 0;
       stroke-width: 128;
       }
       to {
       stroke: black;
       stroke-width: 1024;
       }
       }
       #make-me-a-hanzi-animation-4 {
         animation: keyframes4 0.743164s both;
         animation-delay: 3.224935s;
         animation-timing-function: linear;
       }
    @keyframes keyframes5 {
      from {
       stroke: black;
       stroke-dashoffset: 813;
       stroke-width: 128;
       }
       73% {
       animation-timing-function: step-end;
       stroke: black;
       stroke-dashoffset: 0;
       stroke-width: 128;
       }
       to {
       stroke: black;
       stroke-width: 1024;
       }
       }
       #make-me-a-hanzi-animation-5 {
         animation: keyframes5 0.911621s both;
         animation-delay: 3.968099s;
         animation-timing-function: linear;
       }
    @keyframes keyframes6 {
      from {
       stroke: black;
       stroke-dashoffset: 850;
       stroke-width: 128;
       }
       73% {
       animation-timing-function: step-end;
       stroke: black;
       stroke-dashoffset: 0;
       stroke-width: 128;
       }
       to {
       stroke: black;
       stroke-width: 1024;
       }
       }
       #make-me-a-hanzi-animation-6 {
         animation: keyframes6 0.941732s both;
         animation-delay: 4.879720s;
         animation-timing-function: linear;
       }
    @keyframes keyframes7 {
      from {
       stroke: black;
       stroke-dashoffset: 475;
       stroke-width: 128;
       }
       61% {
       animation-timing-function: step-end;
       stroke: black;
       stroke-dashoffset: 0;
       stroke-width: 128;
       }
       to {
       stroke: black;
       stroke-width: 1024;
       }
       }
       #make-me-a-hanzi-animation-7 {
         animation: keyframes7 0.636556s both;
         animation-delay: 5.821452s;
         animation-timing-function: linear;
       }
    @keyframes keyframes8 {
      from {
       stroke: black;
       stroke-dashoffset: 511;
       stroke-width: 128;
       }
       62% {
       animation-timing-function: step-end;
       stroke: black;
       stroke-dashoffset: 0;
       stroke-width: 128;
       }
       to {
       stroke: black;
       stroke-width: 1024;
       }
       }
       #make-me-a-hanzi-animation-8 {
         animation: keyframes8 0.665853s both;
         animation-delay: 6.458008s;
         animation-timing-function: linear;
       }
    @keyframes keyframes9 {
      from {
       stroke: black;
       stroke-dashoffset: 722;
       stroke-width: 128;
       }
       70% {
       animation-timing-function: step-end;
       stroke: black;
       stroke-dashoffset: 0;
       stroke-width: 128;
       }
       to {
       stroke: black;
       stroke-width: 1024;
       }
       }
       #make-me-a-hanzi-animation-9 {
         animation: keyframes9 0.837565s both;
         animation-delay: 7.123861s;
         animation-timing-function: linear;
       }
    @keyframes keyframes10 {
      from {
       stroke: black;
       stroke-dashoffset: 745;
       stroke-width: 128;
       }
       71% {
       animation-timing-function: step-end;
       stroke: black;
       stroke-dashoffset: 0;
       stroke-width: 128;
       }
       to {
       stroke: black;
       stroke-width: 1024;
       }
       }
       #make-me-a-hanzi-animation-10 {
         animation: keyframes10 0.856283s both;
         animation-delay: 7.961426s;
         animation-timing-function: linear;
       }
    @keyframes keyframes11 {
      from {
       stroke: black;
       stroke-dashoffset: 464;
       stroke-width: 128;
       }
       60% {
       animation-timing-function: step-end;
       stroke: black;
       stroke-dashoffset: 0;
       stroke-width: 128;
       }
       to {
       stroke: black;
       stroke-width: 1024;
       }
       }
       #make-me-a-hanzi-animation-11 {
         animation: keyframes11 0.627604s both;
         animation-delay: 8.817708s;
         animation-timing-function: linear;
       }
    @keyframes keyframes12 {
      from {
       stroke: black;
       stroke-dashoffset: 400;
       stroke-width: 128;
       }
       57% {
       animation-timing-function: step-end;
       stroke: black;
       stroke-dashoffset: 0;
       stroke-width: 128;
       }
       to {
       stroke: black;
       stroke-width: 1024;
       }
       }
       #make-me-a-hanzi-animation-12 {
         animation: keyframes12 0.575521s both;
         animation-delay: 9.445312s;
         animation-timing-function: linear;
       }
    @keyframes keyframes13 {
      from {
       stroke: black;
       stroke-dashoffset: 792;
       stroke-width: 128;
       }
       72% {
       animation-timing-function: step-end;
       stroke: black;
       stroke-dashoffset: 0;
       stroke-width: 128;
       }
       to {
       stroke: black;
       stroke-width: 1024;
       }
       }
       #make-me-a-hanzi-animation-13 {
         animation: keyframes13 0.894531s both;
         animation-delay: 10.020833s;
         animation-timing-function: linear;
       }
    @keyframes keyframes14 {
      from {
       stroke: black;
       stroke-dashoffset: 1103;
       stroke-width: 128;
       }
       78% {
       animation-timing-function: step-end;
       stroke: black;
       stroke-dashoffset: 0;
       stroke-width: 128;
       }
       to {
       stroke: black;
       stroke-width: 1024;
       }
       }
       #make-me-a-hanzi-animation-14 {
         animation: keyframes14 1.147624s both;
         animation-delay: 10.915365s;
         animation-timing-function: linear;
       }
</style>
<path d="M 305 643 Q 359 704 382 719 Q 392 726 390 739 Q 389 751 367 775 Q 348 794 331 798 Q 315 799 318 779 Q 324 754 312 737 Q 251 637 110 515 Q 100 508 97 503 Q 93 494 105 494 Q 141 494 279 617 L 305 643 Z" fill="lightgray"></path> 
<path d="M 279 617 Q 295 578 273 474 Q 263 435 292 399 Q 292 398 294 396 Q 307 383 317 404 Q 329 437 328 474 Q 331 562 335 582 Q 341 606 305 643 C 284 665 269 645 279 617 Z" fill="lightgray"></path> 
<path d="M 514 605 Q 478 587 434 565 Q 427 559 440 556 Q 479 563 517 577 L 558 593 Q 657 642 722 689 Q 738 702 761 712 Q 773 718 771 726 Q 768 733 752 743 Q 715 762 694 760 Q 685 760 685 749 Q 678 707 556 629 L 514 605 Z" fill="lightgray"></path> 
<path d="M 517 577 Q 517 543 554 515 Q 603 478 784 488 Q 865 494 896 512 Q 924 527 911 555 Q 895 592 882 657 Q 881 672 873 676 Q 866 680 863 662 Q 850 583 838 568 Q 808 535 689 531 Q 622 531 594 541 Q 561 557 558 593 L 556 629 Q 556 687 574 730 Q 584 758 568 773 Q 522 807 508 803 Q 495 799 501 782 Q 519 748 515 698 Q 514 640 514 605 L 517 577 Z" fill="lightgray"></path> 
<path d="M 399 417 Q 383 433 351 442 Q 342 443 337 436 Q 334 432 341 422 Q 377 340 349 186 Q 337 156 343 130 Q 352 100 362 89 Q 372 77 381 90 Q 402 120 403 273 Q 403 357 405 387 C 406 411 406 411 399 417 Z" fill="lightgray"></path> 
<path d="M 615 165 Q 608 143 622 120 Q 637 92 646 92 Q 661 93 676 127 Q 691 154 689 174 Q 679 238 680 336 Q 679 364 695 390 Q 705 406 698 416 Q 670 441 622 461 Q 606 467 583 458 Q 504 427 399 417 C 369 414 375 383 405 387 Q 493 399 583 412 Q 595 412 601 407 Q 610 389 615 341 Q 622 194 615 165 Z" fill="lightgray"></path> 
<path d="M 480 280 Q 480 84 401 11 Q 386 -1 369 -14 Q 332 -39 250 -71 Q 238 -74 235 -77 Q 229 -81 243 -86 Q 315 -92 422 -33 Q 441 -20 456 -4 Q 516 63 533 249 Q 534 276 547 306 Q 553 316 545 324 Q 529 340 496 354 Q 477 364 461 359 Q 442 353 457 336 Q 482 308 480 280 Z" fill="lightgray"></path> 
<path d="M 564 47 Q 616 -5 679 -82 Q 694 -103 709 -107 Q 716 -108 725 -100 Q 738 -87 728 -43 Q 716 15 578 72 Q 571 75 566 77 Q 557 83 555 71 Q 554 58 564 47 Z" fill="lightgray"></path> 
<path d="M 1533 636 Q 1494 623 1525 610 Q 1568 594 1639 616 Q 1691 634 1748 653 Q 1776 663 1779 668 Q 1788 678 1781 686 Q 1771 698 1740 701 Q 1706 702 1676 685 Q 1646 670 1613 658 Q 1576 645 1533 636 Z" fill="lightgray"></path> 
<path d="M 1641 461 Q 1641 462 1643 462 Q 1673 468 1887 488 Q 1906 489 1909 497 Q 1913 509 1898 520 Q 1843 556 1786 536 Q 1666 506 1442 459 Q 1423 456 1438 441 Q 1465 420 1514 431 Q 1545 441 1586 450 L 1641 461 Z" fill="lightgray"></path> 
<path d="M 1778 290 Q 1561 260 1559 260 Q 1558 263 1562 271 Q 1631 395 1659 429 Q 1671 444 1662 451 Q 1655 458 1641 461 C 1613 472 1580 479 1586 450 Q 1586 446 1588 440 Q 1604 388 1513 271 Q 1450 222 1452 211 Q 1453 201 1461 186 Q 1471 168 1483 164 Q 1490 161 1500 167 Q 1584 219 1790 271 C 1819 278 1808 294 1778 290 Z" fill="lightgray"></path> 
<path d="M 1790 271 Q 1836 190 1849 183 Q 1856 180 1865 188 Q 1878 198 1876 239 Q 1876 287 1749 371 Q 1742 378 1738 367 Q 1735 355 1778 290 L 1790 271 Z" fill="lightgray"></path> 
<path d="M 1308 701 Q 1339 676 1371 647 Q 1386 635 1401 636 Q 1411 637 1417 650 Q 1421 666 1411 695 Q 1399 728 1302 749 Q 1286 752 1280 749 Q 1276 745 1277 732 Q 1281 722 1308 701 Z" fill="lightgray"></path> 
<path d="M 1358 147 Q 1379 174 1368 217 Q 1361 239 1334 280 Q 1304 337 1376 430 Q 1379 436 1383 439 Q 1414 464 1334 500 Q 1312 512 1295 495 Q 1261 473 1217 457 Q 1159 435 1140 439 Q 1133 439 1131 434 Q 1130 430 1138 425 Q 1177 407 1286 445 Q 1295 448 1304 436 Q 1326 412 1304 382 Q 1256 331 1298 262 Q 1332 201 1326 150 C 1325 120 1343 121 1358 147 Z" fill="lightgray"></path> 
<path d="M 1326 150 Q 1283 153 1236 139 Q 1202 126 1148 124 Q 1141 124 1138 115 Q 1134 108 1143 98 Q 1159 79 1183 67 Q 1195 60 1214 74 Q 1284 123 1352 107 Q 1416 92 1544 34 Q 1769 -71 1848 -44 Q 1911 -22 1964 14 Q 1988 30 1963 30 Q 1747 21 1571 76 Q 1504 97 1425 127 Q 1394 142 1358 147 L 1326 150 Z" fill="lightgray"></path> 
      <clipPath id="make-me-a-hanzi-clip-0">
      <path d="M 305 643 Q 359 704 382 719 Q 392 726 390 739 Q 389 751 367 775 Q 348 794 331 798 Q 315 799 318 779 Q 324 754 312 737 Q 251 637 110 515 Q 100 508 97 503 Q 93 494 105 494 Q 141 494 279 617 L 305 643 Z" fill="lightgray"></path>
      </clipPath>
      <path clip-path="url(#make-me-a-hanzi-clip-0)" d="M 329 785 L 345 763 L 351 740 L 331 712 L 256 624 L 206 576 L 133 517 L 104 501 " fill="none" id="make-me-a-hanzi-animation-0" stroke-dasharray="525 1050" stroke-linecap="round"></path>

      <clipPath id="make-me-a-hanzi-clip-1">
      <path d="M 279 617 Q 295 578 273 474 Q 263 435 292 399 Q 292 398 294 396 Q 307 383 317 404 Q 329 437 328 474 Q 331 562 335 582 Q 341 606 305 643 C 284 665 269 645 279 617 Z" fill="lightgray"></path>
      </clipPath>
      <path clip-path="url(#make-me-a-hanzi-clip-1)" d="M 307 632 L 304 611 L 310 573 L 299 462 L 304 404 " fill="none" id="make-me-a-hanzi-animation-1" stroke-dasharray="357 714" stroke-linecap="round"></path>

      <clipPath id="make-me-a-hanzi-clip-2">
      <path d="M 514 605 Q 478 587 434 565 Q 427 559 440 556 Q 479 563 517 577 L 558 593 Q 657 642 722 689 Q 738 702 761 712 Q 773 718 771 726 Q 768 733 752 743 Q 715 762 694 760 Q 685 760 685 749 Q 678 707 556 629 L 514 605 Z" fill="lightgray"></path>
      </clipPath>
      <path clip-path="url(#make-me-a-hanzi-clip-2)" d="M 761 724 L 712 724 L 657 673 L 604 637 L 506 585 L 443 565 " fill="none" id="make-me-a-hanzi-animation-2" stroke-dasharray="493 986" stroke-linecap="round"></path>

      <clipPath id="make-me-a-hanzi-clip-3">
      <path d="M 517 577 Q 517 543 554 515 Q 603 478 784 488 Q 865 494 896 512 Q 924 527 911 555 Q 895 592 882 657 Q 881 672 873 676 Q 866 680 863 662 Q 850 583 838 568 Q 808 535 689 531 Q 622 531 594 541 Q 561 557 558 593 L 556 629 Q 556 687 574 730 Q 584 758 568 773 Q 522 807 508 803 Q 495 799 501 782 Q 519 748 515 698 Q 514 640 514 605 L 517 577 Z" fill="lightgray"></path>
      </clipPath>
      <path clip-path="url(#make-me-a-hanzi-clip-3)" d="M 512 791 L 546 745 L 535 654 L 539 573 L 552 546 L 582 523 L 612 514 L 707 508 L 809 518 L 851 532 L 872 546 L 872 669 " fill="none" id="make-me-a-hanzi-animation-3" stroke-dasharray="847 1694" stroke-linecap="round"></path>

      <clipPath id="make-me-a-hanzi-clip-4">
      <path d="M 399 417 Q 383 433 351 442 Q 342 443 337 436 Q 334 432 341 422 Q 377 340 349 186 Q 337 156 343 130 Q 352 100 362 89 Q 372 77 381 90 Q 402 120 403 273 Q 403 357 405 387 C 406 411 406 411 399 417 Z" fill="lightgray"></path>
      </clipPath>
      <path clip-path="url(#make-me-a-hanzi-clip-4)" d="M 347 431 L 376 399 L 382 351 L 383 261 L 368 140 L 371 94 " fill="none" id="make-me-a-hanzi-animation-4" stroke-dasharray="478 956" stroke-linecap="round"></path>

      <clipPath id="make-me-a-hanzi-clip-5">
      <path d="M 615 165 Q 608 143 622 120 Q 637 92 646 92 Q 661 93 676 127 Q 691 154 689 174 Q 679 238 680 336 Q 679 364 695 390 Q 705 406 698 416 Q 670 441 622 461 Q 606 467 583 458 Q 504 427 399 417 C 369 414 375 383 405 387 Q 493 399 583 412 Q 595 412 601 407 Q 610 389 615 341 Q 622 194 615 165 Z" fill="lightgray"></path>
      </clipPath>
      <path clip-path="url(#make-me-a-hanzi-clip-5)" d="M 408 411 L 417 404 L 440 406 L 606 436 L 640 411 L 650 398 L 653 169 L 647 103 " fill="none" id="make-me-a-hanzi-animation-5" stroke-dasharray="685 1370" stroke-linecap="round"></path>

      <clipPath id="make-me-a-hanzi-clip-6">
      <path d="M 480 280 Q 480 84 401 11 Q 386 -1 369 -14 Q 332 -39 250 -71 Q 238 -74 235 -77 Q 229 -81 243 -86 Q 315 -92 422 -33 Q 441 -20 456 -4 Q 516 63 533 249 Q 534 276 547 306 Q 553 316 545 324 Q 529 340 496 354 Q 477 364 461 359 Q 442 353 457 336 Q 482 308 480 280 Z" fill="lightgray"></path>
      </clipPath>
      <path clip-path="url(#make-me-a-hanzi-clip-6)" d="M 462 347 L 482 338 L 511 308 L 497 163 L 468 62 L 440 16 L 387 -28 L 312 -63 L 240 -80 " fill="none" id="make-me-a-hanzi-animation-6" stroke-dasharray="722 1444" stroke-linecap="round"></path>

      <clipPath id="make-me-a-hanzi-clip-7">
      <path d="M 564 47 Q 616 -5 679 -82 Q 694 -103 709 -107 Q 716 -108 725 -100 Q 738 -87 728 -43 Q 716 15 578 72 Q 571 75 566 77 Q 557 83 555 71 Q 554 58 564 47 Z" fill="lightgray"></path>
      </clipPath>
      <path clip-path="url(#make-me-a-hanzi-clip-7)" d="M 565 66 L 669 -16 L 695 -48 L 710 -91 " fill="none" id="make-me-a-hanzi-animation-7" stroke-dasharray="347 694" stroke-linecap="round"></path>

      <clipPath id="make-me-a-hanzi-clip-8">
      <path d="M 1533 636 Q 1494 623 1525 610 Q 1568 594 1639 616 Q 1691 634 1748 653 Q 1776 663 1779 668 Q 1788 678 1781 686 Q 1771 698 1740 701 Q 1706 702 1676 685 Q 1646 670 1613 658 Q 1576 645 1533 636 Z" fill="lightgray"></path>
      </clipPath>
      <path clip-path="url(#make-me-a-hanzi-clip-8)" d="M 1526 624 L 1568 623 L 1609 631 L 1724 674 L 1772 678 " fill="none" id="make-me-a-hanzi-animation-8" stroke-dasharray="383 766" stroke-linecap="round"></path>

      <clipPath id="make-me-a-hanzi-clip-9">
      <path d="M 1641 461 Q 1641 462 1643 462 Q 1673 468 1887 488 Q 1906 489 1909 497 Q 1913 509 1898 520 Q 1843 556 1786 536 Q 1666 506 1442 459 Q 1423 456 1438 441 Q 1465 420 1514 431 Q 1545 441 1586 450 L 1641 461 Z" fill="lightgray"></path>
      </clipPath>
      <path clip-path="url(#make-me-a-hanzi-clip-9)" d="M 1440 450 L 1501 449 L 1659 486 L 1812 512 L 1855 512 L 1898 502 " fill="none" id="make-me-a-hanzi-animation-9" stroke-dasharray="594 1188" stroke-linecap="round"></path>

      <clipPath id="make-me-a-hanzi-clip-10">
      <path d="M 1778 290 Q 1561 260 1559 260 Q 1558 263 1562 271 Q 1631 395 1659 429 Q 1671 444 1662 451 Q 1655 458 1641 461 C 1613 472 1580 479 1586 450 Q 1586 446 1588 440 Q 1604 388 1513 271 Q 1450 222 1452 211 Q 1453 201 1461 186 Q 1471 168 1483 164 Q 1490 161 1500 167 Q 1584 219 1790 271 C 1819 278 1808 294 1778 290 Z" fill="lightgray"></path>
      </clipPath>
      <path clip-path="url(#make-me-a-hanzi-clip-10)" d="M 1651 441 L 1620 426 L 1601 375 L 1540 271 L 1559 266 L 1566 231 L 1709 268 L 1757 274 L 1764 281 L 1779 271 " fill="none" id="make-me-a-hanzi-animation-10" stroke-dasharray="617 1234" stroke-linecap="round"></path>

      <clipPath id="make-me-a-hanzi-clip-11">
      <path d="M 1790 271 Q 1836 190 1849 183 Q 1856 180 1865 188 Q 1878 198 1876 239 Q 1876 287 1749 371 Q 1742 378 1738 367 Q 1735 355 1778 290 L 1790 271 Z" fill="lightgray"></path>
      </clipPath>
      <path clip-path="url(#make-me-a-hanzi-clip-11)" d="M 1745 365 L 1842 247 L 1853 193 " fill="none" id="make-me-a-hanzi-animation-11" stroke-dasharray="336 672" stroke-linecap="round"></path>

      <clipPath id="make-me-a-hanzi-clip-12">
      <path d="M 1308 701 Q 1339 676 1371 647 Q 1386 635 1401 636 Q 1411 637 1417 650 Q 1421 666 1411 695 Q 1399 728 1302 749 Q 1286 752 1280 749 Q 1276 745 1277 732 Q 1281 722 1308 701 Z" fill="lightgray"></path>
      </clipPath>
      <path clip-path="url(#make-me-a-hanzi-clip-12)" d="M 1285 743 L 1368 693 L 1397 656 " fill="none" id="make-me-a-hanzi-animation-12" stroke-dasharray="272 544" stroke-linecap="round"></path>

      <clipPath id="make-me-a-hanzi-clip-13">
      <path d="M 1358 147 Q 1379 174 1368 217 Q 1361 239 1334 280 Q 1304 337 1376 430 Q 1379 436 1383 439 Q 1414 464 1334 500 Q 1312 512 1295 495 Q 1261 473 1217 457 Q 1159 435 1140 439 Q 1133 439 1131 434 Q 1130 430 1138 425 Q 1177 407 1286 445 Q 1295 448 1304 436 Q 1326 412 1304 382 Q 1256 331 1298 262 Q 1332 201 1326 150 C 1325 120 1343 121 1358 147 Z" fill="lightgray"></path>
      </clipPath>
      <path clip-path="url(#make-me-a-hanzi-clip-13)" d="M 1138 432 L 1163 429 L 1200 435 L 1303 470 L 1318 470 L 1342 451 L 1339 415 L 1308 352 L 1301 320 L 1349 192 L 1347 169 L 1332 156 " fill="none" id="make-me-a-hanzi-animation-13" stroke-dasharray="664 1328" stroke-linecap="round"></path>

      <clipPath id="make-me-a-hanzi-clip-14">
      <path d="M 1326 150 Q 1283 153 1236 139 Q 1202 126 1148 124 Q 1141 124 1138 115 Q 1134 108 1143 98 Q 1159 79 1183 67 Q 1195 60 1214 74 Q 1284 123 1352 107 Q 1416 92 1544 34 Q 1769 -71 1848 -44 Q 1911 -22 1964 14 Q 1988 30 1963 30 Q 1747 21 1571 76 Q 1504 97 1425 127 Q 1394 142 1358 147 L 1326 150 Z" fill="lightgray"></path>
      </clipPath>
      <path clip-path="url(#make-me-a-hanzi-clip-14)" d="M 1152 110 L 1194 98 L 1291 130 L 1362 126 L 1629 28 L 1775 -6 L 1856 -5 L 1968 22 " fill="none" id="make-me-a-hanzi-animation-14" stroke-dasharray="975 1950" stroke-linecap="round"></path>

</g>
</svg>
