<svg version="1.1" viewBox="0 0 2048 1024" xmlns="http://www.w3.org/2000/svg">
  <g stroke="lightgray" stroke-dasharray="1,1" stroke-width="1" transform="scale(4, 4)">
    <line x1="0" y1="0" x2="256" y2="256"></line>
    <line x1="256" y1="0" x2="0" y2="256"></line>
    <line x1="128" y1="0" x2="128" y2="256"></line>
    <line x1="0" y1="128" x2="256" y2="128"></line>
    <line x1="256" y1="0" x2="512" y2="256"></line>
    <line x1="512" y1="0" x2="256" y2="256"></line>
    <line x1="384" y1="0" x2="384" y2="256"></line>
    <line x1="256" y1="128" x2="512" y2="128"></line>
  </g>
<g transform="scale(1, -1) translate(0, -850)">
   <style type="text/css">
    @keyframes keyframes0 {
      from {
       stroke: black;
       stroke-dashoffset: 834;
       stroke-width: 128;
       }
       73% {
       animation-timing-function: step-end;
       stroke: black;
       stroke-dashoffset: 0;
       stroke-width: 128;
       }
       to {
       stroke: black;
       stroke-width: 1024;
       }
       }
       #make-me-a-hanzi-animation-0 {
         animation: keyframes0 0.928711s both;
         animation-delay: 0.000000s;
         animation-timing-function: linear;
       }
    @keyframes keyframes1 {
      from {
       stroke: black;
       stroke-dashoffset: 828;
       stroke-width: 128;
       }
       73% {
       animation-timing-function: step-end;
       stroke: black;
       stroke-dashoffset: 0;
       stroke-width: 128;
       }
       to {
       stroke: black;
       stroke-width: 1024;
       }
       }
       #make-me-a-hanzi-animation-1 {
         animation: keyframes1 0.923828s both;
         animation-delay: 0.928711s;
         animation-timing-function: linear;
       }
    @keyframes keyframes2 {
      from {
       stroke: black;
       stroke-dashoffset: 461;
       stroke-width: 128;
       }
       60% {
       animation-timing-function: step-end;
       stroke: black;
       stroke-dashoffset: 0;
       stroke-width: 128;
       }
       to {
       stroke: black;
       stroke-width: 1024;
       }
       }
       #make-me-a-hanzi-animation-2 {
         animation: keyframes2 0.625163s both;
         animation-delay: 1.852539s;
         animation-timing-function: linear;
       }
    @keyframes keyframes3 {
      from {
       stroke: black;
       stroke-dashoffset: 1034;
       stroke-width: 128;
       }
       77% {
       animation-timing-function: step-end;
       stroke: black;
       stroke-dashoffset: 0;
       stroke-width: 128;
       }
       to {
       stroke: black;
       stroke-width: 1024;
       }
       }
       #make-me-a-hanzi-animation-3 {
         animation: keyframes3 1.091471s both;
         animation-delay: 2.477702s;
         animation-timing-function: linear;
       }
    @keyframes keyframes4 {
      from {
       stroke: black;
       stroke-dashoffset: 569;
       stroke-width: 128;
       }
       65% {
       animation-timing-function: step-end;
       stroke: black;
       stroke-dashoffset: 0;
       stroke-width: 128;
       }
       to {
       stroke: black;
       stroke-width: 1024;
       }
       }
       #make-me-a-hanzi-animation-4 {
         animation: keyframes4 0.713053s both;
         animation-delay: 3.569173s;
         animation-timing-function: linear;
       }
    @keyframes keyframes5 {
      from {
       stroke: black;
       stroke-dashoffset: 832;
       stroke-width: 128;
       }
       73% {
       animation-timing-function: step-end;
       stroke: black;
       stroke-dashoffset: 0;
       stroke-width: 128;
       }
       to {
       stroke: black;
       stroke-width: 1024;
       }
       }
       #make-me-a-hanzi-animation-5 {
         animation: keyframes5 0.927083s both;
         animation-delay: 4.282226s;
         animation-timing-function: linear;
       }
    @keyframes keyframes6 {
      from {
       stroke: black;
       stroke-dashoffset: 792;
       stroke-width: 128;
       }
       72% {
       animation-timing-function: step-end;
       stroke: black;
       stroke-dashoffset: 0;
       stroke-width: 128;
       }
       to {
       stroke: black;
       stroke-width: 1024;
       }
       }
       #make-me-a-hanzi-animation-6 {
         animation: keyframes6 0.894531s both;
         animation-delay: 5.209309s;
         animation-timing-function: linear;
       }
    @keyframes keyframes7 {
      from {
       stroke: black;
       stroke-dashoffset: 469;
       stroke-width: 128;
       }
       60% {
       animation-timing-function: step-end;
       stroke: black;
       stroke-dashoffset: 0;
       stroke-width: 128;
       }
       to {
       stroke: black;
       stroke-width: 1024;
       }
       }
       #make-me-a-hanzi-animation-7 {
         animation: keyframes7 0.631673s both;
         animation-delay: 6.103840s;
         animation-timing-function: linear;
       }
    @keyframes keyframes8 {
      from {
       stroke: black;
       stroke-dashoffset: 706;
       stroke-width: 128;
       }
       70% {
       animation-timing-function: step-end;
       stroke: black;
       stroke-dashoffset: 0;
       stroke-width: 128;
       }
       to {
       stroke: black;
       stroke-width: 1024;
       }
       }
       #make-me-a-hanzi-animation-8 {
         animation: keyframes8 0.824544s both;
         animation-delay: 6.735513s;
         animation-timing-function: linear;
       }
    @keyframes keyframes9 {
      from {
       stroke: black;
       stroke-dashoffset: 368;
       stroke-width: 128;
       }
       55% {
       animation-timing-function: step-end;
       stroke: black;
       stroke-dashoffset: 0;
       stroke-width: 128;
       }
       to {
       stroke: black;
       stroke-width: 1024;
       }
       }
       #make-me-a-hanzi-animation-9 {
         animation: keyframes9 0.549479s both;
         animation-delay: 7.560057s;
         animation-timing-function: linear;
       }
    @keyframes keyframes10 {
      from {
       stroke: black;
       stroke-dashoffset: 648;
       stroke-width: 128;
       }
       68% {
       animation-timing-function: step-end;
       stroke: black;
       stroke-dashoffset: 0;
       stroke-width: 128;
       }
       to {
       stroke: black;
       stroke-width: 1024;
       }
       }
       #make-me-a-hanzi-animation-10 {
         animation: keyframes10 0.777344s both;
         animation-delay: 8.109536s;
         animation-timing-function: linear;
       }
    @keyframes keyframes11 {
      from {
       stroke: black;
       stroke-dashoffset: 1093;
       stroke-width: 128;
       }
       78% {
       animation-timing-function: step-end;
       stroke: black;
       stroke-dashoffset: 0;
       stroke-width: 128;
       }
       to {
       stroke: black;
       stroke-width: 1024;
       }
       }
       #make-me-a-hanzi-animation-11 {
         animation: keyframes11 1.139486s both;
         animation-delay: 8.886880s;
         animation-timing-function: linear;
       }
    @keyframes keyframes12 {
      from {
       stroke: black;
       stroke-dashoffset: 446;
       stroke-width: 128;
       }
       59% {
       animation-timing-function: step-end;
       stroke: black;
       stroke-dashoffset: 0;
       stroke-width: 128;
       }
       to {
       stroke: black;
       stroke-width: 1024;
       }
       }
       #make-me-a-hanzi-animation-12 {
         animation: keyframes12 0.612956s both;
         animation-delay: 10.026366s;
         animation-timing-function: linear;
       }
    @keyframes keyframes13 {
      from {
       stroke: black;
       stroke-dashoffset: 463;
       stroke-width: 128;
       }
       60% {
       animation-timing-function: step-end;
       stroke: black;
       stroke-dashoffset: 0;
       stroke-width: 128;
       }
       to {
       stroke: black;
       stroke-width: 1024;
       }
       }
       #make-me-a-hanzi-animation-13 {
         animation: keyframes13 0.626790s both;
         animation-delay: 10.639322s;
         animation-timing-function: linear;
       }
    @keyframes keyframes14 {
      from {
       stroke: black;
       stroke-dashoffset: 622;
       stroke-width: 128;
       }
       67% {
       animation-timing-function: step-end;
       stroke: black;
       stroke-dashoffset: 0;
       stroke-width: 128;
       }
       to {
       stroke: black;
       stroke-width: 1024;
       }
       }
       #make-me-a-hanzi-animation-14 {
         animation: keyframes14 0.756185s both;
         animation-delay: 11.266112s;
         animation-timing-function: linear;
       }
    @keyframes keyframes15 {
      from {
       stroke: black;
       stroke-dashoffset: 404;
       stroke-width: 128;
       }
       57% {
       animation-timing-function: step-end;
       stroke: black;
       stroke-dashoffset: 0;
       stroke-width: 128;
       }
       to {
       stroke: black;
       stroke-width: 1024;
       }
       }
       #make-me-a-hanzi-animation-15 {
         animation: keyframes15 0.578776s both;
         animation-delay: 12.022297s;
         animation-timing-function: linear;
       }
    @keyframes keyframes16 {
      from {
       stroke: black;
       stroke-dashoffset: 791;
       stroke-width: 128;
       }
       72% {
       animation-timing-function: step-end;
       stroke: black;
       stroke-dashoffset: 0;
       stroke-width: 128;
       }
       to {
       stroke: black;
       stroke-width: 1024;
       }
       }
       #make-me-a-hanzi-animation-16 {
         animation: keyframes16 0.893717s both;
         animation-delay: 12.601073s;
         animation-timing-function: linear;
       }
    @keyframes keyframes17 {
      from {
       stroke: black;
       stroke-dashoffset: 1088;
       stroke-width: 128;
       }
       78% {
       animation-timing-function: step-end;
       stroke: black;
       stroke-dashoffset: 0;
       stroke-width: 128;
       }
       to {
       stroke: black;
       stroke-width: 1024;
       }
       }
       #make-me-a-hanzi-animation-17 {
         animation: keyframes17 1.135417s both;
         animation-delay: 13.494790s;
         animation-timing-function: linear;
       }
</style>
<path d="M 364.0 722.5 Q 354.0 729.5 343.0 734.5 Q 325.0 741.5 322.0 733.5 Q 318.0 724.5 325.0 716.5 Q 343.0 691.5 339.0 658.5 Q 336.0 630.5 331.0 601.5 L 324.0 566.5 Q 315.0 518.5 275.0 475.5 Q 259.0 462.5 263.0 448.5 Q 267.0 435.5 284.0 422.5 Q 300.0 409.5 317.0 426.5 Q 368.0 474.5 544.0 475.5 Q 577.0 475.5 610.0 472.5 C 640.0 470.5 634.0 508.5 606.0 518.5 Q 588.0 533.5 513.0 519.5 Q 510.0 519.5 506.0 517.5 L 469.0 511.5 Q 415.0 502.5 347.0 483.5 Q 337.0 482.5 339.0 494.5 Q 351.0 531.5 362.0 572.5 L 370.0 605.5 Q 385.0 686.5 386.0 691.5 C 389.0 707.5 389.0 707.5 364.0 722.5 Z" fill="lightgray"></path> 
<path d="M 697.0 644.5 Q 706.0 675.5 729.0 698.5 Q 742.0 711.5 730.0 724.5 Q 715.0 740.5 673.0 767.5 Q 658.0 774.5 586.0 759.5 Q 579.0 759.5 461.0 739.5 Q 407.0 729.5 364.0 722.5 C 334.0 717.5 356.0 687.5 386.0 691.5 Q 390.0 691.5 398.0 692.5 Q 431.0 701.5 477.0 708.5 L 515.0 713.5 Q 552.0 720.5 597.0 725.5 Q 625.0 728.5 634.0 718.5 Q 649.0 702.5 646.0 686.5 Q 642.0 659.5 637.0 636.5 L 630.0 595.5 Q 617.0 529.5 606.0 518.5 C 592.0 491.5 591.0 489.5 610.0 472.5 Q 619.0 462.5 629.0 457.5 Q 639.0 450.5 654.0 471.5 Q 666.0 493.5 687.0 595.5 L 697.0 644.5 Z" fill="lightgray"></path> 
<path d="M 479.0 585.5 L 469.0 511.5 C 465.0 481.5 501.0 487.5 506.0 517.5 Q 513.0 557.5 520.0 589.5 L 527.0 622.5 Q 534.0 655.5 539.0 663.5 Q 546.0 681.5 536.0 693.5 Q 527.0 705.5 515.0 713.5 C 491.0 731.5 470.0 737.5 477.0 708.5 Q 484.0 681.5 486.0 654.5 Q 485.0 644.5 482.0 617.5 L 479.0 585.5 Z" fill="lightgray"></path> 
<path d="M 687.0 595.5 Q 780.0 599.5 884.0 594.5 Q 905.0 594.5 910.0 603.5 Q 916.0 615.5 899.0 630.5 Q 844.0 675.5 773.0 657.5 Q 737.0 653.5 697.0 644.5 L 637.0 636.5 Q 585.0 632.5 527.0 622.5 L 482.0 617.5 Q 427.0 613.5 370.0 605.5 L 331.0 601.5 Q 234.0 594.5 130.0 583.5 Q 108.0 582.5 123.0 563.5 Q 138.0 548.5 156.0 542.5 Q 178.0 536.5 195.0 540.5 Q 256.0 556.5 324.0 566.5 L 362.0 572.5 Q 431.0 585.5 479.0 585.5 L 520.0 589.5 Q 569.0 593.5 630.0 595.5 L 687.0 595.5 Z" fill="lightgray"></path> 
<path d="M 356.0 376.5 Q 343.0 383.5 329.0 388.5 Q 322.0 389.5 315.0 382.5 Q 312.0 378.5 319.0 367.5 Q 349.0 304.5 323.0 165.5 Q 311.0 141.5 318.0 115.5 Q 327.0 84.5 338.0 72.5 Q 348.0 59.5 357.0 72.5 Q 381.0 99.5 381.0 217.5 Q 384.0 280.5 388.0 345.5 C 389.0 359.5 383.0 363.5 356.0 376.5 Z" fill="lightgray"></path> 
<path d="M 606.0 150.5 Q 599.0 129.5 610.0 109.5 Q 622.0 81.5 630.0 82.5 Q 643.0 83.5 659.0 112.5 Q 672.0 136.5 672.0 154.5 Q 660.0 313.5 689.0 353.5 Q 699.0 369.5 692.0 378.5 Q 665.0 403.5 619.0 424.5 Q 603.0 430.5 580.0 422.5 Q 475.0 377.5 356.0 376.5 C 326.0 375.5 358.0 341.5 388.0 345.5 Q 392.0 345.5 398.0 346.5 Q 453.0 356.5 496.0 365.5 Q 584.0 384.5 604.0 372.5 Q 611.0 356.5 613.0 310.5 Q 614.0 175.5 606.0 150.5 Z" fill="lightgray"></path> 
<path d="M 466.0 235.5 Q 472.0 66.5 400.0 2.5 Q 390.0 -4.5 379.0 -13.5 Q 346.0 -37.5 271.0 -68.5 Q 258.0 -71.5 255.0 -74.5 Q 249.0 -78.5 264.0 -83.5 Q 339.0 -89.5 437.0 -32.5 Q 449.0 -22.5 460.0 -11.5 Q 508.0 43.5 520.0 181.5 Q 523.0 241.5 534.0 264.5 Q 538.0 274.5 531.0 282.5 Q 513.0 298.5 479.0 312.5 Q 458.0 321.5 443.0 316.5 Q 424.0 309.5 439.0 292.5 Q 466.0 264.5 466.0 235.5 Z" fill="lightgray"></path> 
<path d="M 545.0 42.5 Q 599.0 -5.5 662.0 -73.5 Q 678.0 -92.5 693.0 -97.5 Q 702.0 -98.5 709.0 -88.5 Q 721.0 -75.5 708.0 -32.5 Q 701.0 6.5 623.0 41.5 Q 574.0 63.5 546.0 72.5 Q 537.0 78.5 535.0 65.5 Q 535.0 52.5 545.0 42.5 Z" fill="lightgray"></path> 
<path d="M 1653.0 593.0 Q 1758.0 681.0 1793.0 690.0 Q 1812.0 697.0 1806.0 712.0 Q 1803.0 728.0 1739.0 762.0 Q 1720.0 772.0 1699.0 763.0 Q 1641.0 739.0 1551.0 712.0 Q 1529.0 705.0 1472.0 705.0 Q 1450.0 705.0 1458.0 686.0 Q 1465.0 673.0 1484.0 663.0 Q 1514.0 647.0 1546.0 667.0 Q 1567.0 676.0 1676.0 718.0 Q 1688.0 724.0 1699.0 718.0 Q 1711.0 711.0 1706.0 699.0 Q 1675.0 656.0 1640.0 605.0 C 1623.0 580.0 1630.0 574.0 1653.0 593.0 Z" fill="lightgray"></path> 
<path d="M 1640.0 605.0 Q 1610.0 623.0 1557.0 623.0 Q 1554.0 623.0 1554.0 622.0 Q 1550.0 618.0 1552.0 608.0 Q 1553.0 604.0 1627.0 547.0 Q 1639.0 537.0 1651.0 539.0 Q 1660.0 540.0 1663.0 551.0 Q 1667.0 578.0 1653.0 593.0 L 1640.0 605.0 Z" fill="lightgray"></path> 
<path d="M 1493.0 499.0 Q 1468.0 512.0 1451.0 512.0 Q 1438.0 508.0 1443.0 498.0 Q 1491.0 392.0 1439.0 221.0 Q 1408.0 167.0 1442.0 124.0 Q 1449.0 111.0 1458.0 116.0 Q 1492.0 137.0 1496.0 244.0 Q 1505.0 424.0 1510.0 466.0 C 1512.0 490.0 1512.0 490.0 1493.0 499.0 Z" fill="lightgray"></path> 
<path d="M 1631.0 496.0 Q 1685.0 509.0 1746.0 520.0 Q 1764.0 524.0 1773.0 515.0 Q 1782.0 511.0 1785.0 469.0 Q 1794.0 333.0 1786.0 177.0 Q 1785.0 155.0 1777.0 148.0 Q 1767.0 141.0 1714.0 151.0 Q 1699.0 155.0 1700.0 146.0 Q 1700.0 139.0 1712.0 133.0 Q 1758.0 93.0 1783.0 63.0 Q 1802.0 45.0 1813.0 48.0 Q 1825.0 49.0 1835.0 76.0 Q 1850.0 116.0 1850.0 175.0 Q 1832.0 463.0 1849.0 494.0 Q 1859.0 513.0 1851.0 523.0 Q 1841.0 536.0 1800.0 557.0 Q 1784.0 566.0 1714.0 544.0 Q 1519.0 505.0 1493.0 499.0 C 1464.0 493.0 1481.0 457.0 1510.0 466.0 Q 1513.0 469.0 1592.0 488.0 L 1631.0 496.0 Z" fill="lightgray"></path> 
<path d="M 1653.0 376.0 Q 1690.0 385.0 1723.0 391.0 Q 1745.0 397.0 1735.0 408.0 Q 1725.0 421.0 1700.0 424.0 Q 1682.0 425.0 1655.0 417.0 L 1607.0 399.0 Q 1571.0 387.0 1540.0 376.0 Q 1524.0 372.0 1544.0 358.0 Q 1554.0 352.0 1572.0 357.0 Q 1588.0 361.0 1607.0 365.0 L 1653.0 376.0 Z" fill="lightgray"></path> 
<path d="M 1650.0 266.0 Q 1695.0 275.0 1733.0 280.0 Q 1755.0 284.0 1747.0 296.0 Q 1737.0 309.0 1713.0 313.0 Q 1691.0 316.0 1652.0 305.0 Q 1651.0 305.0 1651.0 304.0 L 1607.0 291.0 Q 1567.0 281.0 1533.0 271.0 Q 1517.0 267.0 1536.0 254.0 Q 1546.0 247.0 1566.0 250.0 Q 1587.0 254.0 1607.0 257.0 L 1650.0 266.0 Z" fill="lightgray"></path> 
<path d="M 1609.0 160.0 Q 1613.0 141.0 1618.0 133.0 Q 1622.0 129.0 1628.0 130.0 Q 1638.0 136.0 1645.0 182.0 Q 1649.0 215.0 1650.0 266.0 L 1651.0 304.0 Q 1651.0 332.0 1653.0 376.0 L 1655.0 417.0 Q 1655.0 418.0 1656.0 419.0 Q 1656.0 426.0 1662.0 462.0 Q 1665.0 475.0 1654.0 483.0 Q 1641.0 493.0 1631.0 496.0 C 1604.0 508.0 1577.0 514.0 1592.0 488.0 Q 1607.0 470.0 1607.0 399.0 L 1607.0 365.0 Q 1607.0 332.0 1607.0 291.0 L 1607.0 257.0 Q 1607.0 185.0 1609.0 160.0 Z" fill="lightgray"></path> 
<path d="M 1250.0 647.0 Q 1278.0 625.0 1307.0 596.0 Q 1323.0 583.0 1341.0 583.0 Q 1353.0 584.0 1358.0 599.0 Q 1364.0 617.0 1352.0 650.0 Q 1340.0 681.0 1243.0 702.0 Q 1225.0 706.0 1218.0 702.0 Q 1212.0 698.0 1214.0 683.0 Q 1218.0 670.0 1250.0 647.0 Z" fill="lightgray"></path> 
<path d="M 1331.0 116.0 Q 1349.0 140.0 1338.0 184.0 Q 1331.0 206.0 1306.0 248.0 Q 1284.0 290.0 1321.0 344.0 Q 1343.0 381.0 1362.0 400.0 Q 1384.0 418.0 1365.0 434.0 Q 1346.0 450.0 1310.0 465.0 Q 1288.0 478.0 1270.0 461.0 Q 1236.0 436.0 1192.0 419.0 Q 1132.0 394.0 1113.0 396.0 Q 1106.0 397.0 1104.0 392.0 Q 1103.0 386.0 1111.0 382.0 Q 1151.0 364.0 1262.0 407.0 Q 1269.0 411.0 1279.0 402.0 Q 1300.0 378.0 1276.0 349.0 Q 1224.0 301.0 1273.0 220.0 Q 1306.0 154.0 1301.0 119.0 C 1301.0 89.0 1317.0 89.0 1331.0 116.0 Z" fill="lightgray"></path> 
<path d="M 1301.0 119.0 Q 1255.0 122.0 1206.0 105.0 Q 1178.0 95.0 1133.0 92.0 Q 1126.0 92.0 1123.0 84.0 Q 1120.0 77.0 1129.0 67.0 Q 1145.0 48.0 1170.0 37.0 Q 1182.0 30.0 1200.0 45.0 Q 1255.0 91.0 1323.0 76.0 Q 1387.0 63.0 1520.0 6.0 Q 1748.0 -96.0 1831.0 -68.0 Q 1892.0 -46.0 1945.0 -7.0 Q 1969.0 9.0 1944.0 8.0 Q 1722.0 -1.0 1560.0 43.0 Q 1485.0 65.0 1395.0 98.0 Q 1364.0 111.0 1331.0 116.0 L 1301.0 119.0 Z" fill="lightgray"></path> 
      <clipPath id="make-me-a-hanzi-clip-0">
      <path d="M 364.0 722.5 Q 354.0 729.5 343.0 734.5 Q 325.0 741.5 322.0 733.5 Q 318.0 724.5 325.0 716.5 Q 343.0 691.5 339.0 658.5 Q 336.0 630.5 331.0 601.5 L 324.0 566.5 Q 315.0 518.5 275.0 475.5 Q 259.0 462.5 263.0 448.5 Q 267.0 435.5 284.0 422.5 Q 300.0 409.5 317.0 426.5 Q 368.0 474.5 544.0 475.5 Q 577.0 475.5 610.0 472.5 C 640.0 470.5 634.0 508.5 606.0 518.5 Q 588.0 533.5 513.0 519.5 Q 510.0 519.5 506.0 517.5 L 469.0 511.5 Q 415.0 502.5 347.0 483.5 Q 337.0 482.5 339.0 494.5 Q 351.0 531.5 362.0 572.5 L 370.0 605.5 Q 385.0 686.5 386.0 691.5 C 389.0 707.5 389.0 707.5 364.0 722.5 Z" fill="lightgray"></path>
      </clipPath>
      <path clip-path="url(#make-me-a-hanzi-clip-0)" d="M 330.0 727.5 L 350.0 711.5 L 362.0 677.5 L 355.0 621.5 L 333.0 530.5 L 317.0 495.5 L 315.0 468.5 L 339.0 464.5 L 437.0 488.5 L 549.0 500.5 L 578.0 500.5 L 604.0 479.5 " fill="none" id="make-me-a-hanzi-animation-0" stroke-dasharray="706 1412" stroke-linecap="round"></path>

      <clipPath id="make-me-a-hanzi-clip-1">
      <path d="M 697.0 644.5 Q 706.0 675.5 729.0 698.5 Q 742.0 711.5 730.0 724.5 Q 715.0 740.5 673.0 767.5 Q 658.0 774.5 586.0 759.5 Q 579.0 759.5 461.0 739.5 Q 407.0 729.5 364.0 722.5 C 334.0 717.5 356.0 687.5 386.0 691.5 Q 390.0 691.5 398.0 692.5 Q 431.0 701.5 477.0 708.5 L 515.0 713.5 Q 552.0 720.5 597.0 725.5 Q 625.0 728.5 634.0 718.5 Q 649.0 702.5 646.0 686.5 Q 642.0 659.5 637.0 636.5 L 630.0 595.5 Q 617.0 529.5 606.0 518.5 C 592.0 491.5 591.0 489.5 610.0 472.5 Q 619.0 462.5 629.0 457.5 Q 639.0 450.5 654.0 471.5 Q 666.0 493.5 687.0 595.5 L 697.0 644.5 Z" fill="lightgray"></path>
      </clipPath>
      <path clip-path="url(#make-me-a-hanzi-clip-1)" d="M 371.0 719.5 L 394.0 709.5 L 477.0 728.5 L 600.0 745.5 L 639.0 744.5 L 665.0 733.5 L 685.0 709.5 L 684.0 700.5 L 638.0 515.5 L 635.0 476.5 " fill="none" id="make-me-a-hanzi-animation-1" stroke-dasharray="700 1400" stroke-linecap="round"></path>

      <clipPath id="make-me-a-hanzi-clip-2">
      <path d="M 479.0 585.5 L 469.0 511.5 C 465.0 481.5 501.0 487.5 506.0 517.5 Q 513.0 557.5 520.0 589.5 L 527.0 622.5 Q 534.0 655.5 539.0 663.5 Q 546.0 681.5 536.0 693.5 Q 527.0 705.5 515.0 713.5 C 491.0 731.5 470.0 737.5 477.0 708.5 Q 484.0 681.5 486.0 654.5 Q 485.0 644.5 482.0 617.5 L 479.0 585.5 Z" fill="lightgray"></path>
      </clipPath>
      <path clip-path="url(#make-me-a-hanzi-clip-2)" d="M 484.0 703.5 L 513.0 676.5 L 492.0 544.5 L 474.0 518.5 " fill="none" id="make-me-a-hanzi-animation-2" stroke-dasharray="333 666" stroke-linecap="round"></path>

      <clipPath id="make-me-a-hanzi-clip-3">
      <path d="M 687.0 595.5 Q 780.0 599.5 884.0 594.5 Q 905.0 594.5 910.0 603.5 Q 916.0 615.5 899.0 630.5 Q 844.0 675.5 773.0 657.5 Q 737.0 653.5 697.0 644.5 L 637.0 636.5 Q 585.0 632.5 527.0 622.5 L 482.0 617.5 Q 427.0 613.5 370.0 605.5 L 331.0 601.5 Q 234.0 594.5 130.0 583.5 Q 108.0 582.5 123.0 563.5 Q 138.0 548.5 156.0 542.5 Q 178.0 536.5 195.0 540.5 Q 256.0 556.5 324.0 566.5 L 362.0 572.5 Q 431.0 585.5 479.0 585.5 L 520.0 589.5 Q 569.0 593.5 630.0 595.5 L 687.0 595.5 Z" fill="lightgray"></path>
      </clipPath>
      <path clip-path="url(#make-me-a-hanzi-clip-3)" d="M 127.0 573.5 L 178.0 563.5 L 421.0 597.5 L 798.0 629.5 L 855.0 624.5 L 898.0 610.5 " fill="none" id="make-me-a-hanzi-animation-3" stroke-dasharray="906 1812" stroke-linecap="round"></path>

      <clipPath id="make-me-a-hanzi-clip-4">
      <path d="M 356.0 376.5 Q 343.0 383.5 329.0 388.5 Q 322.0 389.5 315.0 382.5 Q 312.0 378.5 319.0 367.5 Q 349.0 304.5 323.0 165.5 Q 311.0 141.5 318.0 115.5 Q 327.0 84.5 338.0 72.5 Q 348.0 59.5 357.0 72.5 Q 381.0 99.5 381.0 217.5 Q 384.0 280.5 388.0 345.5 C 389.0 359.5 383.0 363.5 356.0 376.5 Z" fill="lightgray"></path>
      </clipPath>
      <path clip-path="url(#make-me-a-hanzi-clip-4)" d="M 326.0 377.5 L 347.0 356.5 L 360.0 325.5 L 357.0 206.5 L 345.0 114.5 L 348.0 76.5 " fill="none" id="make-me-a-hanzi-animation-4" stroke-dasharray="441 882" stroke-linecap="round"></path>

      <clipPath id="make-me-a-hanzi-clip-5">
      <path d="M 606.0 150.5 Q 599.0 129.5 610.0 109.5 Q 622.0 81.5 630.0 82.5 Q 643.0 83.5 659.0 112.5 Q 672.0 136.5 672.0 154.5 Q 660.0 313.5 689.0 353.5 Q 699.0 369.5 692.0 378.5 Q 665.0 403.5 619.0 424.5 Q 603.0 430.5 580.0 422.5 Q 475.0 377.5 356.0 376.5 C 326.0 375.5 358.0 341.5 388.0 345.5 Q 392.0 345.5 398.0 346.5 Q 453.0 356.5 496.0 365.5 Q 584.0 384.5 604.0 372.5 Q 611.0 356.5 613.0 310.5 Q 614.0 175.5 606.0 150.5 Z" fill="lightgray"></path>
      </clipPath>
      <path clip-path="url(#make-me-a-hanzi-clip-5)" d="M 364.0 374.5 L 403.0 362.5 L 581.0 399.5 L 602.0 401.5 L 628.0 389.5 L 648.0 358.5 L 640.0 275.5 L 641.0 163.5 L 631.0 92.5 " fill="none" id="make-me-a-hanzi-animation-5" stroke-dasharray="704 1408" stroke-linecap="round"></path>

      <clipPath id="make-me-a-hanzi-clip-6">
      <path d="M 466.0 235.5 Q 472.0 66.5 400.0 2.5 Q 390.0 -4.5 379.0 -13.5 Q 346.0 -37.5 271.0 -68.5 Q 258.0 -71.5 255.0 -74.5 Q 249.0 -78.5 264.0 -83.5 Q 339.0 -89.5 437.0 -32.5 Q 449.0 -22.5 460.0 -11.5 Q 508.0 43.5 520.0 181.5 Q 523.0 241.5 534.0 264.5 Q 538.0 274.5 531.0 282.5 Q 513.0 298.5 479.0 312.5 Q 458.0 321.5 443.0 316.5 Q 424.0 309.5 439.0 292.5 Q 466.0 264.5 466.0 235.5 Z" fill="lightgray"></path>
      </clipPath>
      <path clip-path="url(#make-me-a-hanzi-clip-6)" d="M 445.0 303.5 L 466.0 294.5 L 497.0 259.5 L 489.0 135.5 L 470.0 58.5 L 437.0 1.5 L 417.0 -16.5 L 347.0 -54.5 L 260.0 -78.5 " fill="none" id="make-me-a-hanzi-animation-6" stroke-dasharray="664 1328" stroke-linecap="round"></path>

      <clipPath id="make-me-a-hanzi-clip-7">
      <path d="M 545.0 42.5 Q 599.0 -5.5 662.0 -73.5 Q 678.0 -92.5 693.0 -97.5 Q 702.0 -98.5 709.0 -88.5 Q 721.0 -75.5 708.0 -32.5 Q 701.0 6.5 623.0 41.5 Q 574.0 63.5 546.0 72.5 Q 537.0 78.5 535.0 65.5 Q 535.0 52.5 545.0 42.5 Z" fill="lightgray"></path>
      </clipPath>
      <path clip-path="url(#make-me-a-hanzi-clip-7)" d="M 545.0 61.5 L 664.0 -23.5 L 682.0 -49.5 L 694.0 -82.5 " fill="none" id="make-me-a-hanzi-animation-7" stroke-dasharray="341 682" stroke-linecap="round"></path>

      <clipPath id="make-me-a-hanzi-clip-8">
      <path d="M 1653.0 593.0 Q 1758.0 681.0 1793.0 690.0 Q 1812.0 697.0 1806.0 712.0 Q 1803.0 728.0 1739.0 762.0 Q 1720.0 772.0 1699.0 763.0 Q 1641.0 739.0 1551.0 712.0 Q 1529.0 705.0 1472.0 705.0 Q 1450.0 705.0 1458.0 686.0 Q 1465.0 673.0 1484.0 663.0 Q 1514.0 647.0 1546.0 667.0 Q 1567.0 676.0 1676.0 718.0 Q 1688.0 724.0 1699.0 718.0 Q 1711.0 711.0 1706.0 699.0 Q 1675.0 656.0 1640.0 605.0 C 1623.0 580.0 1630.0 574.0 1653.0 593.0 Z" fill="lightgray"></path>
      </clipPath>
      <path clip-path="url(#make-me-a-hanzi-clip-8)" d="M 1468.0 693.0 L 1489.0 684.0 L 1528.0 683.0 L 1687.0 740.0 L 1719.0 739.0 L 1747.0 713.0 L 1726.0 682.0 L 1662.0 618.0 L 1658.0 607.0 L 1649.0 608.0 " fill="none" id="make-me-a-hanzi-animation-8" stroke-dasharray="578 1156" stroke-linecap="round"></path>

      <clipPath id="make-me-a-hanzi-clip-9">
      <path d="M 1640.0 605.0 Q 1610.0 623.0 1557.0 623.0 Q 1554.0 623.0 1554.0 622.0 Q 1550.0 618.0 1552.0 608.0 Q 1553.0 604.0 1627.0 547.0 Q 1639.0 537.0 1651.0 539.0 Q 1660.0 540.0 1663.0 551.0 Q 1667.0 578.0 1653.0 593.0 L 1640.0 605.0 Z" fill="lightgray"></path>
      </clipPath>
      <path clip-path="url(#make-me-a-hanzi-clip-9)" d="M 1558.0 614.0 L 1625.0 582.0 L 1649.0 553.0 " fill="none" id="make-me-a-hanzi-animation-9" stroke-dasharray="240 480" stroke-linecap="round"></path>

      <clipPath id="make-me-a-hanzi-clip-10">
      <path d="M 1493.0 499.0 Q 1468.0 512.0 1451.0 512.0 Q 1438.0 508.0 1443.0 498.0 Q 1491.0 392.0 1439.0 221.0 Q 1408.0 167.0 1442.0 124.0 Q 1449.0 111.0 1458.0 116.0 Q 1492.0 137.0 1496.0 244.0 Q 1505.0 424.0 1510.0 466.0 C 1512.0 490.0 1512.0 490.0 1493.0 499.0 Z" fill="lightgray"></path>
      </clipPath>
      <path clip-path="url(#make-me-a-hanzi-clip-10)" d="M 1451.0 503.0 L 1475.0 482.0 L 1485.0 438.0 L 1481.0 305.0 L 1455.0 171.0 L 1453.0 126.0 " fill="none" id="make-me-a-hanzi-animation-10" stroke-dasharray="520 1040" stroke-linecap="round"></path>

      <clipPath id="make-me-a-hanzi-clip-11">
      <path d="M 1631.0 496.0 Q 1685.0 509.0 1746.0 520.0 Q 1764.0 524.0 1773.0 515.0 Q 1782.0 511.0 1785.0 469.0 Q 1794.0 333.0 1786.0 177.0 Q 1785.0 155.0 1777.0 148.0 Q 1767.0 141.0 1714.0 151.0 Q 1699.0 155.0 1700.0 146.0 Q 1700.0 139.0 1712.0 133.0 Q 1758.0 93.0 1783.0 63.0 Q 1802.0 45.0 1813.0 48.0 Q 1825.0 49.0 1835.0 76.0 Q 1850.0 116.0 1850.0 175.0 Q 1832.0 463.0 1849.0 494.0 Q 1859.0 513.0 1851.0 523.0 Q 1841.0 536.0 1800.0 557.0 Q 1784.0 566.0 1714.0 544.0 Q 1519.0 505.0 1493.0 499.0 C 1464.0 493.0 1481.0 457.0 1510.0 466.0 Q 1513.0 469.0 1592.0 488.0 L 1631.0 496.0 Z" fill="lightgray"></path>
      </clipPath>
      <path clip-path="url(#make-me-a-hanzi-clip-11)" d="M 1496.0 494.0 L 1522.0 487.0 L 1766.0 540.0 L 1789.0 534.0 L 1810.0 516.0 L 1815.0 506.0 L 1819.0 241.0 L 1813.0 139.0 L 1800.0 110.0 L 1757.0 122.0 L 1708.0 146.0 " fill="none" id="make-me-a-hanzi-animation-11" stroke-dasharray="965 1930" stroke-linecap="round"></path>

      <clipPath id="make-me-a-hanzi-clip-12">
      <path d="M 1653.0 376.0 Q 1690.0 385.0 1723.0 391.0 Q 1745.0 397.0 1735.0 408.0 Q 1725.0 421.0 1700.0 424.0 Q 1682.0 425.0 1655.0 417.0 L 1607.0 399.0 Q 1571.0 387.0 1540.0 376.0 Q 1524.0 372.0 1544.0 358.0 Q 1554.0 352.0 1572.0 357.0 Q 1588.0 361.0 1607.0 365.0 L 1653.0 376.0 Z" fill="lightgray"></path>
      </clipPath>
      <path clip-path="url(#make-me-a-hanzi-clip-12)" d="M 1542.0 367.0 L 1668.0 401.0 L 1704.0 406.0 L 1727.0 401.0 " fill="none" id="make-me-a-hanzi-animation-12" stroke-dasharray="318 636" stroke-linecap="round"></path>

      <clipPath id="make-me-a-hanzi-clip-13">
      <path d="M 1650.0 266.0 Q 1695.0 275.0 1733.0 280.0 Q 1755.0 284.0 1747.0 296.0 Q 1737.0 309.0 1713.0 313.0 Q 1691.0 316.0 1652.0 305.0 Q 1651.0 305.0 1651.0 304.0 L 1607.0 291.0 Q 1567.0 281.0 1533.0 271.0 Q 1517.0 267.0 1536.0 254.0 Q 1546.0 247.0 1566.0 250.0 Q 1587.0 254.0 1607.0 257.0 L 1650.0 266.0 Z" fill="lightgray"></path>
      </clipPath>
      <path clip-path="url(#make-me-a-hanzi-clip-13)" d="M 1534.0 262.0 L 1598.0 271.0 L 1666.0 290.0 L 1716.0 296.0 L 1737.0 290.0 " fill="none" id="make-me-a-hanzi-animation-13" stroke-dasharray="335 670" stroke-linecap="round"></path>

      <clipPath id="make-me-a-hanzi-clip-14">
      <path d="M 1609.0 160.0 Q 1613.0 141.0 1618.0 133.0 Q 1622.0 129.0 1628.0 130.0 Q 1638.0 136.0 1645.0 182.0 Q 1649.0 215.0 1650.0 266.0 L 1651.0 304.0 Q 1651.0 332.0 1653.0 376.0 L 1655.0 417.0 Q 1655.0 418.0 1656.0 419.0 Q 1656.0 426.0 1662.0 462.0 Q 1665.0 475.0 1654.0 483.0 Q 1641.0 493.0 1631.0 496.0 C 1604.0 508.0 1577.0 514.0 1592.0 488.0 Q 1607.0 470.0 1607.0 399.0 L 1607.0 365.0 Q 1607.0 332.0 1607.0 291.0 L 1607.0 257.0 Q 1607.0 185.0 1609.0 160.0 Z" fill="lightgray"></path>
      </clipPath>
      <path clip-path="url(#make-me-a-hanzi-clip-14)" d="M 1599.0 487.0 L 1628.0 468.0 L 1633.0 456.0 L 1625.0 138.0 " fill="none" id="make-me-a-hanzi-animation-14" stroke-dasharray="494 988" stroke-linecap="round"></path>

      <clipPath id="make-me-a-hanzi-clip-15">
      <path d="M 1250.0 647.0 Q 1278.0 625.0 1307.0 596.0 Q 1323.0 583.0 1341.0 583.0 Q 1353.0 584.0 1358.0 599.0 Q 1364.0 617.0 1352.0 650.0 Q 1340.0 681.0 1243.0 702.0 Q 1225.0 706.0 1218.0 702.0 Q 1212.0 698.0 1214.0 683.0 Q 1218.0 670.0 1250.0 647.0 Z" fill="lightgray"></path>
      </clipPath>
      <path clip-path="url(#make-me-a-hanzi-clip-15)" d="M 1225.0 693.0 L 1315.0 639.0 L 1338.0 603.0 " fill="none" id="make-me-a-hanzi-animation-15" stroke-dasharray="276 552" stroke-linecap="round"></path>

      <clipPath id="make-me-a-hanzi-clip-16">
      <path d="M 1331.0 116.0 Q 1349.0 140.0 1338.0 184.0 Q 1331.0 206.0 1306.0 248.0 Q 1284.0 290.0 1321.0 344.0 Q 1343.0 381.0 1362.0 400.0 Q 1384.0 418.0 1365.0 434.0 Q 1346.0 450.0 1310.0 465.0 Q 1288.0 478.0 1270.0 461.0 Q 1236.0 436.0 1192.0 419.0 Q 1132.0 394.0 1113.0 396.0 Q 1106.0 397.0 1104.0 392.0 Q 1103.0 386.0 1111.0 382.0 Q 1151.0 364.0 1262.0 407.0 Q 1269.0 411.0 1279.0 402.0 Q 1300.0 378.0 1276.0 349.0 Q 1224.0 301.0 1273.0 220.0 Q 1306.0 154.0 1301.0 119.0 C 1301.0 89.0 1317.0 89.0 1331.0 116.0 Z" fill="lightgray"></path>
      </clipPath>
      <path clip-path="url(#make-me-a-hanzi-clip-16)" d="M 1111.0 389.0 L 1160.0 391.0 L 1280.0 434.0 L 1304.0 429.0 L 1317.0 417.0 L 1314.0 378.0 L 1281.0 319.0 L 1274.0 292.0 L 1279.0 254.0 L 1301.0 215.0 L 1321.0 158.0 L 1320.0 137.0 L 1309.0 124.0 " fill="none" id="make-me-a-hanzi-animation-16" stroke-dasharray="663 1326" stroke-linecap="round"></path>

      <clipPath id="make-me-a-hanzi-clip-17">
      <path d="M 1301.0 119.0 Q 1255.0 122.0 1206.0 105.0 Q 1178.0 95.0 1133.0 92.0 Q 1126.0 92.0 1123.0 84.0 Q 1120.0 77.0 1129.0 67.0 Q 1145.0 48.0 1170.0 37.0 Q 1182.0 30.0 1200.0 45.0 Q 1255.0 91.0 1323.0 76.0 Q 1387.0 63.0 1520.0 6.0 Q 1748.0 -96.0 1831.0 -68.0 Q 1892.0 -46.0 1945.0 -7.0 Q 1969.0 9.0 1944.0 8.0 Q 1722.0 -1.0 1560.0 43.0 Q 1485.0 65.0 1395.0 98.0 Q 1364.0 111.0 1331.0 116.0 L 1301.0 119.0 Z" fill="lightgray"></path>
      </clipPath>
      <path clip-path="url(#make-me-a-hanzi-clip-17)" d="M 1134.0 80.0 L 1179.0 67.0 L 1257.0 97.0 L 1334.0 95.0 L 1397.0 77.0 L 1563.0 14.0 L 1645.0 -10.0 L 1742.0 -29.0 L 1825.0 -31.0 L 1935.0 0.0 " fill="none" id="make-me-a-hanzi-animation-17" stroke-dasharray="960 1920" stroke-linecap="round"></path>

</g>
</svg>
