<svg version="1.1" viewBox="0 0 2048 1024" xmlns="http://www.w3.org/2000/svg">
  <g stroke="lightgray" stroke-dasharray="1,1" stroke-width="1" transform="scale(4, 4)">
    <line x1="0" y1="0" x2="256" y2="256"></line>
    <line x1="256" y1="0" x2="0" y2="256"></line>
    <line x1="128" y1="0" x2="128" y2="256"></line>
    <line x1="0" y1="128" x2="256" y2="128"></line>
    <line x1="256" y1="0" x2="512" y2="256"></line>
    <line x1="512" y1="0" x2="256" y2="256"></line>
    <line x1="384" y1="0" x2="384" y2="256"></line>
    <line x1="256" y1="128" x2="512" y2="128"></line>
  </g>
<g transform="scale(1, -1) translate(0, -850)">
   <style type="text/css">
    @keyframes keyframes0 {
      from {
       stroke: black;
       stroke-dashoffset: 539;
       stroke-width: 128;
       }
       64% {
       animation-timing-function: step-end;
       stroke: black;
       stroke-dashoffset: 0;
       stroke-width: 128;
       }
       to {
       stroke: black;
       stroke-width: 1024;
       }
       }
       #make-me-a-hanzi-animation-0 {
         animation: keyframes0 0.688639s both;
         animation-delay: 0.000000s;
         animation-timing-function: linear;
       }
    @keyframes keyframes1 {
      from {
       stroke: black;
       stroke-dashoffset: 626;
       stroke-width: 128;
       }
       67% {
       animation-timing-function: step-end;
       stroke: black;
       stroke-dashoffset: 0;
       stroke-width: 128;
       }
       to {
       stroke: black;
       stroke-width: 1024;
       }
       }
       #make-me-a-hanzi-animation-1 {
         animation: keyframes1 0.759440s both;
         animation-delay: 0.688639s;
         animation-timing-function: linear;
       }
    @keyframes keyframes2 {
      from {
       stroke: black;
       stroke-dashoffset: 707;
       stroke-width: 128;
       }
       70% {
       animation-timing-function: step-end;
       stroke: black;
       stroke-dashoffset: 0;
       stroke-width: 128;
       }
       to {
       stroke: black;
       stroke-width: 1024;
       }
       }
       #make-me-a-hanzi-animation-2 {
         animation: keyframes2 0.825358s both;
         animation-delay: 1.448079s;
         animation-timing-function: linear;
       }
    @keyframes keyframes3 {
      from {
       stroke: black;
       stroke-dashoffset: 514;
       stroke-width: 128;
       }
       63% {
       animation-timing-function: step-end;
       stroke: black;
       stroke-dashoffset: 0;
       stroke-width: 128;
       }
       to {
       stroke: black;
       stroke-width: 1024;
       }
       }
       #make-me-a-hanzi-animation-3 {
         animation: keyframes3 0.668294s both;
         animation-delay: 2.273438s;
         animation-timing-function: linear;
       }
    @keyframes keyframes4 {
      from {
       stroke: black;
       stroke-dashoffset: 378;
       stroke-width: 128;
       }
       55% {
       animation-timing-function: step-end;
       stroke: black;
       stroke-dashoffset: 0;
       stroke-width: 128;
       }
       to {
       stroke: black;
       stroke-width: 1024;
       }
       }
       #make-me-a-hanzi-animation-4 {
         animation: keyframes4 0.557617s both;
         animation-delay: 2.941732s;
         animation-timing-function: linear;
       }
    @keyframes keyframes5 {
      from {
       stroke: black;
       stroke-dashoffset: 632;
       stroke-width: 128;
       }
       67% {
       animation-timing-function: step-end;
       stroke: black;
       stroke-dashoffset: 0;
       stroke-width: 128;
       }
       to {
       stroke: black;
       stroke-width: 1024;
       }
       }
       #make-me-a-hanzi-animation-5 {
         animation: keyframes5 0.764323s both;
         animation-delay: 3.499349s;
         animation-timing-function: linear;
       }
    @keyframes keyframes6 {
      from {
       stroke: black;
       stroke-dashoffset: 996;
       stroke-width: 128;
       }
       76% {
       animation-timing-function: step-end;
       stroke: black;
       stroke-dashoffset: 0;
       stroke-width: 128;
       }
       to {
       stroke: black;
       stroke-width: 1024;
       }
       }
       #make-me-a-hanzi-animation-6 {
         animation: keyframes6 1.060547s both;
         animation-delay: 4.263672s;
         animation-timing-function: linear;
       }
    @keyframes keyframes7 {
      from {
       stroke: black;
       stroke-dashoffset: 568;
       stroke-width: 128;
       }
       65% {
       animation-timing-function: step-end;
       stroke: black;
       stroke-dashoffset: 0;
       stroke-width: 128;
       }
       to {
       stroke: black;
       stroke-width: 1024;
       }
       }
       #make-me-a-hanzi-animation-7 {
         animation: keyframes7 0.712240s both;
         animation-delay: 5.324219s;
         animation-timing-function: linear;
       }
    @keyframes keyframes8 {
      from {
       stroke: black;
       stroke-dashoffset: 425;
       stroke-width: 128;
       }
       58% {
       animation-timing-function: step-end;
       stroke: black;
       stroke-dashoffset: 0;
       stroke-width: 128;
       }
       to {
       stroke: black;
       stroke-width: 1024;
       }
       }
       #make-me-a-hanzi-animation-8 {
         animation: keyframes8 0.595866s both;
         animation-delay: 6.036458s;
         animation-timing-function: linear;
       }
    @keyframes keyframes9 {
      from {
       stroke: black;
       stroke-dashoffset: 875;
       stroke-width: 128;
       }
       74% {
       animation-timing-function: step-end;
       stroke: black;
       stroke-dashoffset: 0;
       stroke-width: 128;
       }
       to {
       stroke: black;
       stroke-width: 1024;
       }
       }
       #make-me-a-hanzi-animation-9 {
         animation: keyframes9 0.962077s both;
         animation-delay: 6.632324s;
         animation-timing-function: linear;
       }
    @keyframes keyframes10 {
      from {
       stroke: black;
       stroke-dashoffset: 580;
       stroke-width: 128;
       }
       65% {
       animation-timing-function: step-end;
       stroke: black;
       stroke-dashoffset: 0;
       stroke-width: 128;
       }
       to {
       stroke: black;
       stroke-width: 1024;
       }
       }
       #make-me-a-hanzi-animation-10 {
         animation: keyframes10 0.722005s both;
         animation-delay: 7.594401s;
         animation-timing-function: linear;
       }
    @keyframes keyframes11 {
      from {
       stroke: black;
       stroke-dashoffset: 452;
       stroke-width: 128;
       }
       60% {
       animation-timing-function: step-end;
       stroke: black;
       stroke-dashoffset: 0;
       stroke-width: 128;
       }
       to {
       stroke: black;
       stroke-width: 1024;
       }
       }
       #make-me-a-hanzi-animation-11 {
         animation: keyframes11 0.617839s both;
         animation-delay: 8.316406s;
         animation-timing-function: linear;
       }
    @keyframes keyframes12 {
      from {
       stroke: black;
       stroke-dashoffset: 494;
       stroke-width: 128;
       }
       62% {
       animation-timing-function: step-end;
       stroke: black;
       stroke-dashoffset: 0;
       stroke-width: 128;
       }
       to {
       stroke: black;
       stroke-width: 1024;
       }
       }
       #make-me-a-hanzi-animation-12 {
         animation: keyframes12 0.652018s both;
         animation-delay: 8.934245s;
         animation-timing-function: linear;
       }
    @keyframes keyframes13 {
      from {
       stroke: black;
       stroke-dashoffset: 714;
       stroke-width: 128;
       }
       70% {
       animation-timing-function: step-end;
       stroke: black;
       stroke-dashoffset: 0;
       stroke-width: 128;
       }
       to {
       stroke: black;
       stroke-width: 1024;
       }
       }
       #make-me-a-hanzi-animation-13 {
         animation: keyframes13 0.831055s both;
         animation-delay: 9.586263s;
         animation-timing-function: linear;
       }
    @keyframes keyframes14 {
      from {
       stroke: black;
       stroke-dashoffset: 558;
       stroke-width: 128;
       }
       64% {
       animation-timing-function: step-end;
       stroke: black;
       stroke-dashoffset: 0;
       stroke-width: 128;
       }
       to {
       stroke: black;
       stroke-width: 1024;
       }
       }
       #make-me-a-hanzi-animation-14 {
         animation: keyframes14 0.704102s both;
         animation-delay: 10.417318s;
         animation-timing-function: linear;
       }
    @keyframes keyframes15 {
      from {
       stroke: black;
       stroke-dashoffset: 459;
       stroke-width: 128;
       }
       60% {
       animation-timing-function: step-end;
       stroke: black;
       stroke-dashoffset: 0;
       stroke-width: 128;
       }
       to {
       stroke: black;
       stroke-width: 1024;
       }
       }
       #make-me-a-hanzi-animation-15 {
         animation: keyframes15 0.623535s both;
         animation-delay: 11.121419s;
         animation-timing-function: linear;
       }
    @keyframes keyframes16 {
      from {
       stroke: black;
       stroke-dashoffset: 386;
       stroke-width: 128;
       }
       56% {
       animation-timing-function: step-end;
       stroke: black;
       stroke-dashoffset: 0;
       stroke-width: 128;
       }
       to {
       stroke: black;
       stroke-width: 1024;
       }
       }
       #make-me-a-hanzi-animation-16 {
         animation: keyframes16 0.564128s both;
         animation-delay: 11.744954s;
         animation-timing-function: linear;
       }
    @keyframes keyframes17 {
      from {
       stroke: black;
       stroke-dashoffset: 398;
       stroke-width: 128;
       }
       56% {
       animation-timing-function: step-end;
       stroke: black;
       stroke-dashoffset: 0;
       stroke-width: 128;
       }
       to {
       stroke: black;
       stroke-width: 1024;
       }
       }
       #make-me-a-hanzi-animation-17 {
         animation: keyframes17 0.573893s both;
         animation-delay: 12.309082s;
         animation-timing-function: linear;
       }
    @keyframes keyframes18 {
      from {
       stroke: black;
       stroke-dashoffset: 508;
       stroke-width: 128;
       }
       62% {
       animation-timing-function: step-end;
       stroke: black;
       stroke-dashoffset: 0;
       stroke-width: 128;
       }
       to {
       stroke: black;
       stroke-width: 1024;
       }
       }
       #make-me-a-hanzi-animation-18 {
         animation: keyframes18 0.663411s both;
         animation-delay: 12.882975s;
         animation-timing-function: linear;
       }
</style>
<path d="M 398 539 Q 503 566 508 571 Q 515 578 511 587 Q 504 597 476 604 Q 448 608 402 590 L 348 572 Q 251 554 232 550 Q 196 543 223 528 Q 256 507 327 524 Q 337 527 349 528 L 398 539 Z" fill="lightgray"></path> 
<path d="M 389 428 Q 393 486 398 539 L 402 590 Q 402 657 423 736 Q 426 746 406 762 Q 370 781 346 785 Q 330 789 322 780 Q 315 773 323 757 Q 342 729 343 709 Q 347 643 348 572 L 349 528 Q 349 476 347 419 C 346 389 387 398 389 428 Z" fill="lightgray"></path> 
<path d="M 376 388 Q 442 401 521 411 Q 537 412 537 420 Q 538 432 522 441 Q 497 451 475 448 Q 429 438 389 428 L 347 419 Q 191 389 89 378 Q 77 377 74 370 Q 71 360 85 349 Q 122 322 161 334 Q 305 382 335 381 L 376 388 Z" fill="lightgray"></path> 
<path d="M 389 133 Q 393 199 396 254 L 398 284 Q 401 365 402 366 L 401 367 Q 388 380 376 388 C 352 406 323 409 335 381 Q 344 369 347 284 Q 347 239 347 158 C 347 128 387 103 389 133 Z" fill="lightgray"></path> 
<path d="M 396 254 Q 399 254 403 254 Q 464 263 510 268 Q 535 272 525 286 Q 513 301 487 305 Q 448 309 398 284 C 371 271 366 254 396 254 Z" fill="lightgray"></path> 
<path d="M 261 212 Q 279 240 298 264 Q 308 277 294 291 Q 255 327 228 323 Q 216 322 218 306 Q 227 197 102 70 Q 93 67 49 18 Q 42 3 56 7 Q 113 16 210 134 Q 241 185 245 187 L 261 212 Z" fill="lightgray"></path> 
<path d="M 245 187 Q 401 63 676 -70 Q 710 -86 772 -70 Q 928 -22 940 -9 Q 940 -8 941 -8 Q 945 4 926 3 Q 833 9 777 7 Q 624 7 424 115 Q 406 124 389 133 L 347 158 Q 304 185 261 212 C 236 228 221 205 245 187 Z" fill="lightgray"></path> 
<path d="M 778 442 Q 797 512 819 533 Q 841 558 819 572 Q 756 605 754 605 Q 744 605 736 600 Q 694 570 604 556 Q 592 556 595 549 Q 596 543 609 537 Q 624 530 686 542 Q 737 555 744 546 Q 751 540 743 509 Q 736 478 727 441 C 720 412 770 413 778 442 Z" fill="lightgray"></path> 
<path d="M 640 383 Q 647 392 794 409 Q 804 410 805 419 Q 805 426 778 442 C 763 451 756 449 727 441 Q 669 425 625 414 C 596 407 614 369 640 383 Z" fill="lightgray"></path> 
<path d="M 925 218 Q 910 252 898 310 Q 897 323 889 328 Q 882 332 879 314 Q 867 244 856 231 Q 832 204 730 204 Q 675 205 651 216 Q 630 226 626 241 Q 622 257 623 300 Q 627 346 637 369 Q 640 376 640 383 C 645 401 645 401 625 414 Q 585 442 573 438 Q 560 434 567 418 Q 585 387 581 338 Q 578 221 610 193 Q 634 175 684 166 Q 733 159 811 160 Q 881 161 910 177 Q 937 190 925 218 Z" fill="lightgray"></path> 
<path d="M 1557 457 Q 1561 514 1565 568 L 1567 599 Q 1570 678 1584 725 Q 1587 735 1567 750 Q 1531 769 1506 773 Q 1490 776 1482 767 Q 1475 760 1483 744 Q 1502 719 1503 702 Q 1515 587 1515 450 C 1515 420 1555 427 1557 457 Z" fill="lightgray"></path> 
<path d="M 1565 568 Q 1571 567 1583 568 Q 1680 584 1752 593 Q 1780 597 1769 613 Q 1757 629 1727 635 Q 1696 641 1567 599 C 1538 590 1535 570 1565 568 Z" fill="lightgray"></path> 
<path d="M 1403 436 Q 1388 442 1358 447 Q 1345 451 1341 445 Q 1334 439 1343 421 Q 1371 363 1387 267 Q 1390 239 1406 219 Q 1425 194 1432 212 Q 1435 221 1436 233 L 1434 273 L 1434 274 Q 1421 367 1418 399 C 1415 429 1415 432 1403 436 Z" fill="lightgray"></path> 
<path d="M 1714 299 Q 1739 380 1774 405 Q 1793 424 1777 445 Q 1699 506 1638 480 Q 1595 467 1557 457 L 1515 450 Q 1460 441 1403 436 C 1373 433 1388 395 1418 399 Q 1449 402 1636 433 Q 1661 437 1670 427 Q 1679 420 1678 400 Q 1671 351 1662 309 C 1656 280 1705 270 1714 299 Z" fill="lightgray"></path> 
<path d="M 1436 233 Q 1446 232 1460 233 Q 1545 249 1728 258 Q 1741 259 1743 269 Q 1743 278 1714 299 L 1662 309 Q 1658 310 1652 308 Q 1531 283 1434 273 C 1404 270 1406 234 1436 233 Z" fill="lightgray"></path> 
<path d="M 1284 168 Q 1248 104 1202 49 Q 1175 13 1190 -23 Q 1196 -42 1220 -33 Q 1245 -18 1266 14 Q 1296 60 1304 102 Q 1314 136 1310 165 Q 1306 175 1299 176 Q 1290 176 1284 168 Z" fill="lightgray"></path> 
<path d="M 1402 131 Q 1418 85 1436 39 Q 1446 14 1463 7 Q 1476 0 1491 16 Q 1498 29 1497 53 Q 1494 78 1471 103 Q 1437 143 1418 156 Q 1409 162 1403 151 Q 1399 144 1402 131 Z" fill="lightgray"></path> 
<path d="M 1571 146 Q 1607 34 1638 19 Q 1651 12 1666 28 Q 1673 41 1672 68 Q 1668 95 1643 118 Q 1606 161 1587 173 Q 1577 179 1572 166 Q 1566 159 1571 146 Z" fill="lightgray"></path> 
<path d="M 1735 163 Q 1793 99 1859 7 Q 1875 -17 1891 -23 Q 1900 -26 1909 -15 Q 1925 -2 1916 47 Q 1907 110 1740 197 Q 1730 204 1727 190 Q 1726 175 1735 163 Z" fill="lightgray"></path> 
      <clipPath id="make-me-a-hanzi-clip-0">
      <path d="M 398 539 Q 503 566 508 571 Q 515 578 511 587 Q 504 597 476 604 Q 448 608 402 590 L 348 572 Q 251 554 232 550 Q 196 543 223 528 Q 256 507 327 524 Q 337 527 349 528 L 398 539 Z" fill="lightgray"></path>
      </clipPath>
      <path clip-path="url(#make-me-a-hanzi-clip-0)" d="M 224 540 L 280 537 L 350 550 L 459 581 L 501 580 " fill="none" id="make-me-a-hanzi-animation-0" stroke-dasharray="411 822" stroke-linecap="round"></path>

      <clipPath id="make-me-a-hanzi-clip-1">
      <path d="M 389 428 Q 393 486 398 539 L 402 590 Q 402 657 423 736 Q 426 746 406 762 Q 370 781 346 785 Q 330 789 322 780 Q 315 773 323 757 Q 342 729 343 709 Q 347 643 348 572 L 349 528 Q 349 476 347 419 C 346 389 387 398 389 428 Z" fill="lightgray"></path>
      </clipPath>
      <path clip-path="url(#make-me-a-hanzi-clip-1)" d="M 334 771 L 380 731 L 370 454 L 353 427 " fill="none" id="make-me-a-hanzi-animation-1" stroke-dasharray="498 996" stroke-linecap="round"></path>

      <clipPath id="make-me-a-hanzi-clip-2">
      <path d="M 376 388 Q 442 401 521 411 Q 537 412 537 420 Q 538 432 522 441 Q 497 451 475 448 Q 429 438 389 428 L 347 419 Q 191 389 89 378 Q 77 377 74 370 Q 71 360 85 349 Q 122 322 161 334 Q 305 382 335 381 L 376 388 Z" fill="lightgray"></path>
      </clipPath>
      <path clip-path="url(#make-me-a-hanzi-clip-2)" d="M 84 366 L 116 357 L 148 358 L 288 392 L 457 424 L 509 428 L 526 423 " fill="none" id="make-me-a-hanzi-animation-2" stroke-dasharray="579 1158" stroke-linecap="round"></path>

      <clipPath id="make-me-a-hanzi-clip-3">
      <path d="M 389 133 Q 393 199 396 254 L 398 284 Q 401 365 402 366 L 401 367 Q 388 380 376 388 C 352 406 323 409 335 381 Q 344 369 347 284 Q 347 239 347 158 C 347 128 387 103 389 133 Z" fill="lightgray"></path>
      </clipPath>
      <path clip-path="url(#make-me-a-hanzi-clip-3)" d="M 342 381 L 372 352 L 369 171 L 387 141 " fill="none" id="make-me-a-hanzi-animation-3" stroke-dasharray="386 772" stroke-linecap="round"></path>

      <clipPath id="make-me-a-hanzi-clip-4">
      <path d="M 396 254 Q 399 254 403 254 Q 464 263 510 268 Q 535 272 525 286 Q 513 301 487 305 Q 448 309 398 284 C 371 271 366 254 396 254 Z" fill="lightgray"></path>
      </clipPath>
      <path clip-path="url(#make-me-a-hanzi-clip-4)" d="M 400 261 L 414 274 L 468 285 L 515 279 " fill="none" id="make-me-a-hanzi-animation-4" stroke-dasharray="250 500" stroke-linecap="round"></path>

      <clipPath id="make-me-a-hanzi-clip-5">
      <path d="M 261 212 Q 279 240 298 264 Q 308 277 294 291 Q 255 327 228 323 Q 216 322 218 306 Q 227 197 102 70 Q 93 67 49 18 Q 42 3 56 7 Q 113 16 210 134 Q 241 185 245 187 L 261 212 Z" fill="lightgray"></path>
      </clipPath>
      <path clip-path="url(#make-me-a-hanzi-clip-5)" d="M 229 311 L 256 273 L 200 156 L 161 105 L 113 56 L 59 16 " fill="none" id="make-me-a-hanzi-animation-5" stroke-dasharray="504 1008" stroke-linecap="round"></path>

      <clipPath id="make-me-a-hanzi-clip-6">
      <path d="M 245 187 Q 401 63 676 -70 Q 710 -86 772 -70 Q 928 -22 940 -9 Q 940 -8 941 -8 Q 945 4 926 3 Q 833 9 777 7 Q 624 7 424 115 Q 406 124 389 133 L 347 158 Q 304 185 261 212 C 236 228 221 205 245 187 Z" fill="lightgray"></path>
      </clipPath>
      <path clip-path="url(#make-me-a-hanzi-clip-6)" d="M 263 202 L 266 190 L 312 158 L 463 68 L 583 11 L 686 -28 L 756 -33 L 936 -4 " fill="none" id="make-me-a-hanzi-animation-6" stroke-dasharray="868 1736" stroke-linecap="round"></path>

      <clipPath id="make-me-a-hanzi-clip-7">
      <path d="M 778 442 Q 797 512 819 533 Q 841 558 819 572 Q 756 605 754 605 Q 744 605 736 600 Q 694 570 604 556 Q 592 556 595 549 Q 596 543 609 537 Q 624 530 686 542 Q 737 555 744 546 Q 751 540 743 509 Q 736 478 727 441 C 720 412 770 413 778 442 Z" fill="lightgray"></path>
      </clipPath>
      <path clip-path="url(#make-me-a-hanzi-clip-7)" d="M 602 549 L 623 546 L 672 554 L 745 575 L 773 561 L 783 549 L 763 477 L 758 466 L 733 447 " fill="none" id="make-me-a-hanzi-animation-7" stroke-dasharray="440 880" stroke-linecap="round"></path>

      <clipPath id="make-me-a-hanzi-clip-8">
      <path d="M 640 383 Q 647 392 794 409 Q 804 410 805 419 Q 805 426 778 442 C 763 451 756 449 727 441 Q 669 425 625 414 C 596 407 614 369 640 383 Z" fill="lightgray"></path>
      </clipPath>
      <path clip-path="url(#make-me-a-hanzi-clip-8)" d="M 638 389 L 648 404 L 734 422 L 772 424 L 796 418 " fill="none" id="make-me-a-hanzi-animation-8" stroke-dasharray="297 594" stroke-linecap="round"></path>

      <clipPath id="make-me-a-hanzi-clip-9">
      <path d="M 925 218 Q 910 252 898 310 Q 897 323 889 328 Q 882 332 879 314 Q 867 244 856 231 Q 832 204 730 204 Q 675 205 651 216 Q 630 226 626 241 Q 622 257 623 300 Q 627 346 637 369 Q 640 376 640 383 C 645 401 645 401 625 414 Q 585 442 573 438 Q 560 434 567 418 Q 585 387 581 338 Q 578 221 610 193 Q 634 175 684 166 Q 733 159 811 160 Q 881 161 910 177 Q 937 190 925 218 Z" fill="lightgray"></path>
      </clipPath>
      <path clip-path="url(#make-me-a-hanzi-clip-9)" d="M 576 426 L 603 400 L 608 386 L 601 306 L 606 241 L 622 210 L 650 195 L 693 185 L 766 182 L 837 188 L 884 206 L 889 230 L 888 321 " fill="none" id="make-me-a-hanzi-animation-9" stroke-dasharray="747 1494" stroke-linecap="round"></path>

      <clipPath id="make-me-a-hanzi-clip-10">
      <path d="M 1557 457 Q 1561 514 1565 568 L 1567 599 Q 1570 678 1584 725 Q 1587 735 1567 750 Q 1531 769 1506 773 Q 1490 776 1482 767 Q 1475 760 1483 744 Q 1502 719 1503 702 Q 1515 587 1515 450 C 1515 420 1555 427 1557 457 Z" fill="lightgray"></path>
      </clipPath>
      <path clip-path="url(#make-me-a-hanzi-clip-10)" d="M 1495 757 L 1533 728 L 1541 715 L 1538 483 L 1521 459 " fill="none" id="make-me-a-hanzi-animation-10" stroke-dasharray="452 904" stroke-linecap="round"></path>

      <clipPath id="make-me-a-hanzi-clip-11">
      <path d="M 1565 568 Q 1571 567 1583 568 Q 1680 584 1752 593 Q 1780 597 1769 613 Q 1757 629 1727 635 Q 1696 641 1567 599 C 1538 590 1535 570 1565 568 Z" fill="lightgray"></path>
      </clipPath>
      <path clip-path="url(#make-me-a-hanzi-clip-11)" d="M 1569 576 L 1585 587 L 1676 607 L 1729 612 L 1758 605 " fill="none" id="make-me-a-hanzi-animation-11" stroke-dasharray="324 648" stroke-linecap="round"></path>

      <clipPath id="make-me-a-hanzi-clip-12">
      <path d="M 1403 436 Q 1388 442 1358 447 Q 1345 451 1341 445 Q 1334 439 1343 421 Q 1371 363 1387 267 Q 1390 239 1406 219 Q 1425 194 1432 212 Q 1435 221 1436 233 L 1434 273 L 1434 274 Q 1421 367 1418 399 C 1415 429 1415 432 1403 436 Z" fill="lightgray"></path>
      </clipPath>
      <path clip-path="url(#make-me-a-hanzi-clip-12)" d="M 1349 437 L 1380 412 L 1387 394 L 1420 218 " fill="none" id="make-me-a-hanzi-animation-12" stroke-dasharray="366 732" stroke-linecap="round"></path>

      <clipPath id="make-me-a-hanzi-clip-13">
      <path d="M 1714 299 Q 1739 380 1774 405 Q 1793 424 1777 445 Q 1699 506 1638 480 Q 1595 467 1557 457 L 1515 450 Q 1460 441 1403 436 C 1373 433 1388 395 1418 399 Q 1449 402 1636 433 Q 1661 437 1670 427 Q 1679 420 1678 400 Q 1671 351 1662 309 C 1656 280 1705 270 1714 299 Z" fill="lightgray"></path>
      </clipPath>
      <path clip-path="url(#make-me-a-hanzi-clip-13)" d="M 1411 432 L 1432 420 L 1572 440 L 1653 459 L 1684 456 L 1724 424 L 1695 331 L 1670 315 " fill="none" id="make-me-a-hanzi-animation-13" stroke-dasharray="586 1172" stroke-linecap="round"></path>

      <clipPath id="make-me-a-hanzi-clip-14">
      <path d="M 1436 233 Q 1446 232 1460 233 Q 1545 249 1728 258 Q 1741 259 1743 269 Q 1743 278 1714 299 L 1662 309 Q 1658 310 1652 308 Q 1531 283 1434 273 C 1404 270 1406 234 1436 233 Z" fill="lightgray"></path>
      </clipPath>
      <path clip-path="url(#make-me-a-hanzi-clip-14)" d="M 1442 240 L 1455 254 L 1649 281 L 1703 279 L 1734 269 " fill="none" id="make-me-a-hanzi-animation-14" stroke-dasharray="430 860" stroke-linecap="round"></path>

      <clipPath id="make-me-a-hanzi-clip-15">
      <path d="M 1284 168 Q 1248 104 1202 49 Q 1175 13 1190 -23 Q 1196 -42 1220 -33 Q 1245 -18 1266 14 Q 1296 60 1304 102 Q 1314 136 1310 165 Q 1306 175 1299 176 Q 1290 176 1284 168 Z" fill="lightgray"></path>
      </clipPath>
      <path clip-path="url(#make-me-a-hanzi-clip-15)" d="M 1298 164 L 1271 89 L 1222 15 L 1209 -17 " fill="none" id="make-me-a-hanzi-animation-15" stroke-dasharray="331 662" stroke-linecap="round"></path>

      <clipPath id="make-me-a-hanzi-clip-16">
      <path d="M 1402 131 Q 1418 85 1436 39 Q 1446 14 1463 7 Q 1476 0 1491 16 Q 1498 29 1497 53 Q 1494 78 1471 103 Q 1437 143 1418 156 Q 1409 162 1403 151 Q 1399 144 1402 131 Z" fill="lightgray"></path>
      </clipPath>
      <path clip-path="url(#make-me-a-hanzi-clip-16)" d="M 1414 144 L 1459 68 L 1472 28 " fill="none" id="make-me-a-hanzi-animation-16" stroke-dasharray="258 516" stroke-linecap="round"></path>

      <clipPath id="make-me-a-hanzi-clip-17">
      <path d="M 1571 146 Q 1607 34 1638 19 Q 1651 12 1666 28 Q 1673 41 1672 68 Q 1668 95 1643 118 Q 1606 161 1587 173 Q 1577 179 1572 166 Q 1566 159 1571 146 Z" fill="lightgray"></path>
      </clipPath>
      <path clip-path="url(#make-me-a-hanzi-clip-17)" d="M 1581 165 L 1632 81 L 1647 40 " fill="none" id="make-me-a-hanzi-animation-17" stroke-dasharray="270 540" stroke-linecap="round"></path>

      <clipPath id="make-me-a-hanzi-clip-18">
      <path d="M 1735 163 Q 1793 99 1859 7 Q 1875 -17 1891 -23 Q 1900 -26 1909 -15 Q 1925 -2 1916 47 Q 1907 110 1740 197 Q 1730 204 1727 190 Q 1726 175 1735 163 Z" fill="lightgray"></path>
      </clipPath>
      <path clip-path="url(#make-me-a-hanzi-clip-18)" d="M 1739 184 L 1860 71 L 1884 32 L 1895 -7 " fill="none" id="make-me-a-hanzi-animation-18" stroke-dasharray="380 760" stroke-linecap="round"></path>

</g>
</svg>
