<svg version="1.1" viewBox="0 0 2048 1024" xmlns="http://www.w3.org/2000/svg">
  <g stroke="lightgray" stroke-dasharray="1,1" stroke-width="1" transform="scale(4, 4)">
    <line x1="0" y1="0" x2="256" y2="256"></line>
    <line x1="256" y1="0" x2="0" y2="256"></line>
    <line x1="128" y1="0" x2="128" y2="256"></line>
    <line x1="0" y1="128" x2="256" y2="128"></line>
    <line x1="256" y1="0" x2="512" y2="256"></line>
    <line x1="512" y1="0" x2="256" y2="256"></line>
    <line x1="384" y1="0" x2="384" y2="256"></line>
    <line x1="256" y1="128" x2="512" y2="128"></line>
  </g>
<g transform="scale(1, -1) translate(0, -850)">
   <style type="text/css">
    @keyframes keyframes0 {
      from {
       stroke: black;
       stroke-dashoffset: 492;
       stroke-width: 128;
       }
       62% {
       animation-timing-function: step-end;
       stroke: black;
       stroke-dashoffset: 0;
       stroke-width: 128;
       }
       to {
       stroke: black;
       stroke-width: 1024;
       }
       }
       #make-me-a-hanzi-animation-0 {
         animation: keyframes0 0.650391s both;
         animation-delay: 0.000000s;
         animation-timing-function: linear;
       }
    @keyframes keyframes1 {
      from {
       stroke: black;
       stroke-dashoffset: 631;
       stroke-width: 128;
       }
       67% {
       animation-timing-function: step-end;
       stroke: black;
       stroke-dashoffset: 0;
       stroke-width: 128;
       }
       to {
       stroke: black;
       stroke-width: 1024;
       }
       }
       #make-me-a-hanzi-animation-1 {
         animation: keyframes1 0.763509s both;
         animation-delay: 0.650391s;
         animation-timing-function: linear;
       }
    @keyframes keyframes2 {
      from {
       stroke: black;
       stroke-dashoffset: 1373;
       stroke-width: 128;
       }
       82% {
       animation-timing-function: step-end;
       stroke: black;
       stroke-dashoffset: 0;
       stroke-width: 128;
       }
       to {
       stroke: black;
       stroke-width: 1024;
       }
       }
       #make-me-a-hanzi-animation-2 {
         animation: keyframes2 1.367350s both;
         animation-delay: 1.413900s;
         animation-timing-function: linear;
       }
    @keyframes keyframes3 {
      from {
       stroke: black;
       stroke-dashoffset: 494;
       stroke-width: 128;
       }
       62% {
       animation-timing-function: step-end;
       stroke: black;
       stroke-dashoffset: 0;
       stroke-width: 128;
       }
       to {
       stroke: black;
       stroke-width: 1024;
       }
       }
       #make-me-a-hanzi-animation-3 {
         animation: keyframes3 0.652018s both;
         animation-delay: 2.781250s;
         animation-timing-function: linear;
       }
    @keyframes keyframes4 {
      from {
       stroke: black;
       stroke-dashoffset: 494;
       stroke-width: 128;
       }
       62% {
       animation-timing-function: step-end;
       stroke: black;
       stroke-dashoffset: 0;
       stroke-width: 128;
       }
       to {
       stroke: black;
       stroke-width: 1024;
       }
       }
       #make-me-a-hanzi-animation-4 {
         animation: keyframes4 0.652018s both;
         animation-delay: 3.433268s;
         animation-timing-function: linear;
       }
    @keyframes keyframes5 {
      from {
       stroke: black;
       stroke-dashoffset: 742;
       stroke-width: 128;
       }
       71% {
       animation-timing-function: step-end;
       stroke: black;
       stroke-dashoffset: 0;
       stroke-width: 128;
       }
       to {
       stroke: black;
       stroke-width: 1024;
       }
       }
       #make-me-a-hanzi-animation-5 {
         animation: keyframes5 0.853841s both;
         animation-delay: 4.085286s;
         animation-timing-function: linear;
       }
    @keyframes keyframes6 {
      from {
       stroke: black;
       stroke-dashoffset: 1193;
       stroke-width: 128;
       }
       80% {
       animation-timing-function: step-end;
       stroke: black;
       stroke-dashoffset: 0;
       stroke-width: 128;
       }
       to {
       stroke: black;
       stroke-width: 1024;
       }
       }
       #make-me-a-hanzi-animation-6 {
         animation: keyframes6 1.220866s both;
         animation-delay: 4.939127s;
         animation-timing-function: linear;
       }
    @keyframes keyframes7 {
      from {
       stroke: black;
       stroke-dashoffset: 474;
       stroke-width: 128;
       }
       61% {
       animation-timing-function: step-end;
       stroke: black;
       stroke-dashoffset: 0;
       stroke-width: 128;
       }
       to {
       stroke: black;
       stroke-width: 1024;
       }
       }
       #make-me-a-hanzi-animation-7 {
         animation: keyframes7 0.635742s both;
         animation-delay: 6.159993s;
         animation-timing-function: linear;
       }
    @keyframes keyframes8 {
      from {
       stroke: black;
       stroke-dashoffset: 1118;
       stroke-width: 128;
       }
       78% {
       animation-timing-function: step-end;
       stroke: black;
       stroke-dashoffset: 0;
       stroke-width: 128;
       }
       to {
       stroke: black;
       stroke-width: 1024;
       }
       }
       #make-me-a-hanzi-animation-8 {
         animation: keyframes8 1.159831s both;
         animation-delay: 6.795735s;
         animation-timing-function: linear;
       }
    @keyframes keyframes9 {
      from {
       stroke: black;
       stroke-dashoffset: 422;
       stroke-width: 128;
       }
       58% {
       animation-timing-function: step-end;
       stroke: black;
       stroke-dashoffset: 0;
       stroke-width: 128;
       }
       to {
       stroke: black;
       stroke-width: 1024;
       }
       }
       #make-me-a-hanzi-animation-9 {
         animation: keyframes9 0.593424s both;
         animation-delay: 7.955566s;
         animation-timing-function: linear;
       }
    @keyframes keyframes10 {
      from {
       stroke: black;
       stroke-dashoffset: 501;
       stroke-width: 128;
       }
       62% {
       animation-timing-function: step-end;
       stroke: black;
       stroke-dashoffset: 0;
       stroke-width: 128;
       }
       to {
       stroke: black;
       stroke-width: 1024;
       }
       }
       #make-me-a-hanzi-animation-10 {
         animation: keyframes10 0.657715s both;
         animation-delay: 8.548990s;
         animation-timing-function: linear;
       }
</style>
<path d="M 439.5 622.0 L 470.5 645.0 L 554.5 722.0 Q 567.5 733.0 580.5 741.0 Q 593.5 748.0 597.5 752.0 Q 602.5 756.0 603.5 763.0 Q 604.5 770.0 596.5 779.0 Q 588.5 788.0 571.5 796.0 L 550.5 805.0 L 525.5 812.0 Q 521.5 813.0 518.5 811.0 Q 516.5 808.0 515.5 796.0 Q 514.5 784.0 491.5 739.0 Q 468.5 694.0 444.5 665.0 Q 421.5 635.0 418.5 632.0 Q 415.5 629.0 409.5 619.0 C 393.5 594.0 415.5 604.0 439.5 622.0 Z" fill="lightgray"></path> 
<path d="M 409.5 619.0 L 378.5 623.0 L 352.5 631.0 Q 338.5 631.0 335.5 626.0 Q 332.5 621.0 339.5 607.0 Q 350.5 587.0 352.5 557.0 L 357.5 517.0 L 369.5 262.0 C 370.5 232.0 411.5 239.0 411.5 269.0 L 412.5 371.0 L 412.5 395.0 L 412.5 485.0 L 413.5 504.0 L 413.5 587.0 C 413.5 617.0 413.5 618.0 409.5 619.0 Z" fill="lightgray"></path> 
<path d="M 711.5 349.0 L 711.5 501.0 Q 712.5 571.0 734.5 610.0 Q 741.5 621.0 741.5 628.0 Q 739.5 647.0 674.5 670.0 Q 664.5 675.0 656.5 674.0 Q 649.5 673.0 636.5 666.0 Q 623.5 658.0 607.5 655.0 Q 593.5 649.0 579.5 647.0 L 537.5 639.0 Q 464.5 624.0 439.5 622.0 C 397.5 616.0 368.5 581.0 413.5 587.0 L 506.5 599.0 L 554.5 607.0 Q 618.5 617.0 621.5 617.0 Q 647.5 622.0 654.5 609.0 Q 661.5 596.0 659.5 582.0 Q 658.5 567.0 659.5 558.0 Q 661.5 549.0 661.5 527.0 L 661.5 513.0 L 659.5 414.0 L 659.5 400.0 L 657.5 311.0 L 654.5 216.0 L 649.5 83.0 L 641.5 -10.0 Q 640.5 -23.0 635.5 -29.0 Q 619.5 -48.0 603.5 -37.0 L 540.5 -16.0 Q 533.5 -15.0 530.5 -19.0 Q 526.5 -25.0 534.5 -31.0 L 582.5 -74.0 L 627.5 -123.0 Q 636.5 -135.0 642.5 -137.0 Q 667.5 -137.0 688.5 -83.0 Q 709.5 -29.0 709.5 55.0 L 709.5 267.0 L 711.5 349.0 Z" fill="lightgray"></path> 
<path d="M 460.5 475.0 Q 471.5 475.0 487.5 478.0 L 539.5 487.0 Q 584.5 494.0 636.5 507.0 L 661.5 513.0 C 680.5 518.0 680.5 518.0 661.5 527.0 L 638.5 538.0 Q 631.5 540.0 623.5 541.0 L 607.5 543.0 Q 602.5 543.0 589.5 538.0 Q 576.5 533.0 535.5 524.0 L 494.5 515.0 L 459.5 510.0 Q 436.5 506.0 413.5 504.0 C 383.5 501.0 385.5 498.0 412.5 485.0 L 419.5 482.0 Q 421.5 479.0 437.5 478.0 Q 454.5 477.0 460.5 475.0 Z" fill="lightgray"></path> 
<path d="M 412.5 371.0 L 429.5 366.0 Q 449.5 359.0 486.5 367.0 Q 523.5 375.0 527.5 375.0 L 585.5 385.0 Q 599.5 386.0 614.5 391.0 L 659.5 400.0 C 678.5 404.0 678.5 404.0 659.5 414.0 L 646.5 421.0 L 635.5 425.0 Q 618.5 435.0 608.5 434.0 Q 598.5 432.0 590.5 428.0 L 573.5 422.0 Q 570.5 423.0 527.5 413.0 L 490.5 405.0 L 446.5 399.0 Q 424.5 395.0 412.5 395.0 C 382.5 394.0 383.5 379.0 412.5 371.0 Z" fill="lightgray"></path> 
<path d="M 369.5 262.0 L 285.5 248.0 Q 240.5 241.0 201.5 246.0 L 189.5 248.0 Q 179.5 248.0 175.5 244.0 Q 171.5 240.0 176.5 228.0 Q 181.5 218.0 190.5 209.0 L 211.5 189.0 Q 240.5 168.0 245.5 169.0 Q 251.5 169.0 261.5 174.0 L 288.5 189.0 L 321.5 204.0 Q 331.5 208.0 347.5 211.0 L 636.5 277.0 C 675.5 286.0 687.5 316.0 657.5 311.0 L 411.5 269.0 L 369.5 262.0 Z" fill="lightgray"></path> 
<path d="M 834.5 508.0 L 819.5 513.0 L 809.5 509.0 Q 806.5 506.0 802.5 487.0 Q 793.5 447.0 766.5 414.0 L 735.5 376.0 L 711.5 349.0 L 636.5 277.0 L 619.5 261.0 Q 530.5 179.0 443.5 121.0 Q 357.5 63.0 327.5 45.0 L 224.5 -13.0 Q 202.5 -26.0 143.5 -55.0 L 129.5 -61.0 Q 125.5 -63.0 127.5 -69.0 Q 131.5 -75.0 136.5 -74.0 L 149.5 -71.0 Q 179.5 -67.0 233.5 -47.0 Q 288.5 -27.0 336.5 -2.0 Q 384.5 23.0 460.5 71.0 Q 536.5 118.0 586.5 160.0 L 654.5 216.0 L 709.5 267.0 L 722.5 278.0 L 849.5 405.0 Q 866.5 417.0 876.5 427.0 Q 886.5 436.0 896.5 441.0 Q 898.5 446.0 892.5 460.0 Q 886.5 473.0 865.5 489.0 Q 848.5 503.0 834.5 508.0 Z" fill="lightgray"></path> 
<path d="M 1180.5 422.5 Q 1178.5 409.5 1174.5 392.5 L 1164.5 364.5 L 1151.5 338.5 Q 1137.5 308.5 1125.5 296.5 Q 1122.5 286.5 1125.5 243.5 Q 1127.5 233.5 1137.5 219.5 Q 1148.5 204.5 1155.5 204.5 Q 1163.5 203.5 1177.5 212.5 Q 1184.5 218.5 1196.5 240.5 Q 1209.5 262.5 1214.5 278.5 Q 1219.5 294.5 1222.5 333.5 Q 1225.5 372.5 1216.5 392.5 Q 1217.5 398.5 1205.5 423.5 Q 1198.5 442.5 1191.5 442.5 Q 1180.5 443.5 1180.5 422.5 Z" fill="lightgray"></path> 
<path d="M 1788.5 278.5 L 1737.5 336.5 Q 1729.5 348.5 1722.5 344.5 Q 1715.5 339.5 1720.5 325.5 L 1745.5 248.5 Q 1758.5 210.5 1745.5 188.5 Q 1741.5 180.5 1720.5 173.5 Q 1699.5 165.5 1669.5 164.5 L 1610.5 164.5 Q 1575.5 165.5 1553.5 168.5 Q 1531.5 170.5 1503.5 183.5 Q 1453.5 205.5 1412.5 252.5 Q 1377.5 296.5 1364.5 350.5 L 1353.5 396.5 Q 1350.5 413.5 1347.5 419.5 Q 1340.5 428.5 1321.5 440.5 Q 1309.5 445.5 1302.5 436.5 Q 1300.5 428.5 1304.5 419.5 L 1315.5 392.5 L 1327.5 340.5 Q 1327.5 334.5 1340.5 297.5 Q 1356.5 258.5 1365.5 239.5 Q 1374.5 220.5 1395.5 195.5 Q 1437.5 143.5 1494.5 119.5 Q 1523.5 106.5 1578.5 96.5 Q 1633.5 85.5 1678.5 86.5 Q 1723.5 86.5 1783.5 98.5 Q 1843.5 110.5 1864.5 126.5 Q 1893.5 142.5 1897.5 152.5 Q 1902.5 162.5 1903.5 169.5 Q 1903.5 189.5 1882.5 206.5 L 1819.5 248.5 Q 1807.5 257.5 1788.5 278.5 Z" fill="lightgray"></path> 
<path d="M 1433.5 574.5 L 1501.5 482.5 Q 1520.5 461.5 1528.5 453.5 Q 1537.5 444.5 1544.5 446.5 Q 1565.5 450.5 1572.5 482.5 Q 1583.5 539.5 1536.5 558.5 Q 1506.5 572.5 1491.5 576.5 L 1468.5 584.5 L 1441.5 589.5 Q 1436.5 590.5 1432.5 586.5 Q 1428.5 582.5 1433.5 574.5 Z" fill="lightgray"></path> 
<path d="M 1793.5 503.5 L 1851.5 428.5 Q 1872.5 400.5 1891.5 385.5 Q 1908.5 375.5 1912.5 375.5 Q 1916.5 374.5 1930.5 379.5 Q 1945.5 392.5 1949.5 424.5 Q 1949.5 444.5 1942.5 459.5 Q 1936.5 474.5 1912.5 494.5 Q 1889.5 514.5 1850.5 532.5 L 1780.5 563.5 Q 1751.5 575.5 1743.5 567.5 Q 1741.5 564.5 1747.5 554.5 L 1793.5 503.5 Z" fill="lightgray"></path> 
      <clipPath id="make-me-a-hanzi-clip-0">
      <path d="M 439.5 622.0 L 470.5 645.0 L 554.5 722.0 Q 567.5 733.0 580.5 741.0 Q 593.5 748.0 597.5 752.0 Q 602.5 756.0 603.5 763.0 Q 604.5 770.0 596.5 779.0 Q 588.5 788.0 571.5 796.0 L 550.5 805.0 L 525.5 812.0 Q 521.5 813.0 518.5 811.0 Q 516.5 808.0 515.5 796.0 Q 514.5 784.0 491.5 739.0 Q 468.5 694.0 444.5 665.0 Q 421.5 635.0 418.5 632.0 Q 415.5 629.0 409.5 619.0 C 393.5 594.0 415.5 604.0 439.5 622.0 Z" fill="lightgray"></path>
      </clipPath>
      <path clip-path="url(#make-me-a-hanzi-clip-0)" d="M 523.5 802.0 L 545.5 763.0 L 456.5 653.0 L 416.5 624.0 " fill="none" id="make-me-a-hanzi-animation-0" stroke-dasharray="364 728" stroke-linecap="round"></path>

      <clipPath id="make-me-a-hanzi-clip-1">
      <path d="M 409.5 619.0 L 378.5 623.0 L 352.5 631.0 Q 338.5 631.0 335.5 626.0 Q 332.5 621.0 339.5 607.0 Q 350.5 587.0 352.5 557.0 L 357.5 517.0 L 369.5 262.0 C 370.5 232.0 411.5 239.0 411.5 269.0 L 412.5 371.0 L 412.5 395.0 L 412.5 485.0 L 413.5 504.0 L 413.5 587.0 C 413.5 617.0 413.5 618.0 409.5 619.0 Z" fill="lightgray"></path>
      </clipPath>
      <path clip-path="url(#make-me-a-hanzi-clip-1)" d="M 342.5 622.0 L 380.5 590.0 L 381.5 580.0 L 390.5 291.0 L 375.5 270.0 " fill="none" id="make-me-a-hanzi-animation-1" stroke-dasharray="503 1006" stroke-linecap="round"></path>

      <clipPath id="make-me-a-hanzi-clip-2">
      <path d="M 711.5 349.0 L 711.5 501.0 Q 712.5 571.0 734.5 610.0 Q 741.5 621.0 741.5 628.0 Q 739.5 647.0 674.5 670.0 Q 664.5 675.0 656.5 674.0 Q 649.5 673.0 636.5 666.0 Q 623.5 658.0 607.5 655.0 Q 593.5 649.0 579.5 647.0 L 537.5 639.0 Q 464.5 624.0 439.5 622.0 C 397.5 616.0 368.5 581.0 413.5 587.0 L 506.5 599.0 L 554.5 607.0 Q 618.5 617.0 621.5 617.0 Q 647.5 622.0 654.5 609.0 Q 661.5 596.0 659.5 582.0 Q 658.5 567.0 659.5 558.0 Q 661.5 549.0 661.5 527.0 L 661.5 513.0 L 659.5 414.0 L 659.5 400.0 L 657.5 311.0 L 654.5 216.0 L 649.5 83.0 L 641.5 -10.0 Q 640.5 -23.0 635.5 -29.0 Q 619.5 -48.0 603.5 -37.0 L 540.5 -16.0 Q 533.5 -15.0 530.5 -19.0 Q 526.5 -25.0 534.5 -31.0 L 582.5 -74.0 L 627.5 -123.0 Q 636.5 -135.0 642.5 -137.0 Q 667.5 -137.0 688.5 -83.0 Q 709.5 -29.0 709.5 55.0 L 709.5 267.0 L 711.5 349.0 Z" fill="lightgray"></path>
      </clipPath>
      <path clip-path="url(#make-me-a-hanzi-clip-2)" d="M 417.5 615.0 L 426.5 605.0 L 450.5 606.0 L 659.5 644.0 L 691.5 623.0 L 693.5 615.0 L 686.5 537.0 L 679.5 63.0 L 670.5 -30.0 L 644.5 -77.0 L 616.5 -70.0 L 537.5 -23.0 " fill="none" id="make-me-a-hanzi-animation-2" stroke-dasharray="1245 2490" stroke-linecap="round"></path>

      <clipPath id="make-me-a-hanzi-clip-3">
      <path d="M 460.5 475.0 Q 471.5 475.0 487.5 478.0 L 539.5 487.0 Q 584.5 494.0 636.5 507.0 L 661.5 513.0 C 680.5 518.0 680.5 518.0 661.5 527.0 L 638.5 538.0 Q 631.5 540.0 623.5 541.0 L 607.5 543.0 Q 602.5 543.0 589.5 538.0 Q 576.5 533.0 535.5 524.0 L 494.5 515.0 L 459.5 510.0 Q 436.5 506.0 413.5 504.0 C 383.5 501.0 385.5 498.0 412.5 485.0 L 419.5 482.0 Q 421.5 479.0 437.5 478.0 Q 454.5 477.0 460.5 475.0 Z" fill="lightgray"></path>
      </clipPath>
      <path clip-path="url(#make-me-a-hanzi-clip-3)" d="M 418.5 489.0 L 491.5 496.0 L 607.5 522.0 L 653.5 520.0 " fill="none" id="make-me-a-hanzi-animation-3" stroke-dasharray="366 732" stroke-linecap="round"></path>

      <clipPath id="make-me-a-hanzi-clip-4">
      <path d="M 412.5 371.0 L 429.5 366.0 Q 449.5 359.0 486.5 367.0 Q 523.5 375.0 527.5 375.0 L 585.5 385.0 Q 599.5 386.0 614.5 391.0 L 659.5 400.0 C 678.5 404.0 678.5 404.0 659.5 414.0 L 646.5 421.0 L 635.5 425.0 Q 618.5 435.0 608.5 434.0 Q 598.5 432.0 590.5 428.0 L 573.5 422.0 Q 570.5 423.0 527.5 413.0 L 490.5 405.0 L 446.5 399.0 Q 424.5 395.0 412.5 395.0 C 382.5 394.0 383.5 379.0 412.5 371.0 Z" fill="lightgray"></path>
      </clipPath>
      <path clip-path="url(#make-me-a-hanzi-clip-4)" d="M 417.5 389.0 L 448.5 380.0 L 609.5 412.0 L 650.5 407.0 " fill="none" id="make-me-a-hanzi-animation-4" stroke-dasharray="366 732" stroke-linecap="round"></path>

      <clipPath id="make-me-a-hanzi-clip-5">
      <path d="M 369.5 262.0 L 285.5 248.0 Q 240.5 241.0 201.5 246.0 L 189.5 248.0 Q 179.5 248.0 175.5 244.0 Q 171.5 240.0 176.5 228.0 Q 181.5 218.0 190.5 209.0 L 211.5 189.0 Q 240.5 168.0 245.5 169.0 Q 251.5 169.0 261.5 174.0 L 288.5 189.0 L 321.5 204.0 Q 331.5 208.0 347.5 211.0 L 636.5 277.0 C 675.5 286.0 687.5 316.0 657.5 311.0 L 411.5 269.0 L 369.5 262.0 Z" fill="lightgray"></path>
      </clipPath>
      <path clip-path="url(#make-me-a-hanzi-clip-5)" d="M 184.5 238.0 L 200.5 226.0 L 248.5 208.0 L 324.5 231.0 L 625.5 289.0 L 650.5 304.0 " fill="none" id="make-me-a-hanzi-animation-5" stroke-dasharray="614 1228" stroke-linecap="round"></path>

      <clipPath id="make-me-a-hanzi-clip-6">
      <path d="M 834.5 508.0 L 819.5 513.0 L 809.5 509.0 Q 806.5 506.0 802.5 487.0 Q 793.5 447.0 766.5 414.0 L 735.5 376.0 L 711.5 349.0 L 636.5 277.0 L 619.5 261.0 Q 530.5 179.0 443.5 121.0 Q 357.5 63.0 327.5 45.0 L 224.5 -13.0 Q 202.5 -26.0 143.5 -55.0 L 129.5 -61.0 Q 125.5 -63.0 127.5 -69.0 Q 131.5 -75.0 136.5 -74.0 L 149.5 -71.0 Q 179.5 -67.0 233.5 -47.0 Q 288.5 -27.0 336.5 -2.0 Q 384.5 23.0 460.5 71.0 Q 536.5 118.0 586.5 160.0 L 654.5 216.0 L 709.5 267.0 L 722.5 278.0 L 849.5 405.0 Q 866.5 417.0 876.5 427.0 Q 886.5 436.0 896.5 441.0 Q 898.5 446.0 892.5 460.0 Q 886.5 473.0 865.5 489.0 Q 848.5 503.0 834.5 508.0 Z" fill="lightgray"></path>
      </clipPath>
      <path clip-path="url(#make-me-a-hanzi-clip-6)" d="M 818.5 500.0 L 837.5 450.0 L 749.5 346.0 L 575.5 185.0 L 469.5 106.0 L 342.5 27.0 L 234.5 -29.0 L 134.5 -67.0 " fill="none" id="make-me-a-hanzi-animation-6" stroke-dasharray="1065 2130" stroke-linecap="round"></path>

      <clipPath id="make-me-a-hanzi-clip-7">
      <path d="M 1180.5 422.5 Q 1178.5 409.5 1174.5 392.5 L 1164.5 364.5 L 1151.5 338.5 Q 1137.5 308.5 1125.5 296.5 Q 1122.5 286.5 1125.5 243.5 Q 1127.5 233.5 1137.5 219.5 Q 1148.5 204.5 1155.5 204.5 Q 1163.5 203.5 1177.5 212.5 Q 1184.5 218.5 1196.5 240.5 Q 1209.5 262.5 1214.5 278.5 Q 1219.5 294.5 1222.5 333.5 Q 1225.5 372.5 1216.5 392.5 Q 1217.5 398.5 1205.5 423.5 Q 1198.5 442.5 1191.5 442.5 Q 1180.5 443.5 1180.5 422.5 Z" fill="lightgray"></path>
      </clipPath>
      <path clip-path="url(#make-me-a-hanzi-clip-7)" d="M 1190.5 433.5 L 1195.5 370.5 L 1161.5 255.5 L 1157.5 220.5 " fill="none" id="make-me-a-hanzi-animation-7" stroke-dasharray="346 692" stroke-linecap="round"></path>

      <clipPath id="make-me-a-hanzi-clip-8">
      <path d="M 1788.5 278.5 L 1737.5 336.5 Q 1729.5 348.5 1722.5 344.5 Q 1715.5 339.5 1720.5 325.5 L 1745.5 248.5 Q 1758.5 210.5 1745.5 188.5 Q 1741.5 180.5 1720.5 173.5 Q 1699.5 165.5 1669.5 164.5 L 1610.5 164.5 Q 1575.5 165.5 1553.5 168.5 Q 1531.5 170.5 1503.5 183.5 Q 1453.5 205.5 1412.5 252.5 Q 1377.5 296.5 1364.5 350.5 L 1353.5 396.5 Q 1350.5 413.5 1347.5 419.5 Q 1340.5 428.5 1321.5 440.5 Q 1309.5 445.5 1302.5 436.5 Q 1300.5 428.5 1304.5 419.5 L 1315.5 392.5 L 1327.5 340.5 Q 1327.5 334.5 1340.5 297.5 Q 1356.5 258.5 1365.5 239.5 Q 1374.5 220.5 1395.5 195.5 Q 1437.5 143.5 1494.5 119.5 Q 1523.5 106.5 1578.5 96.5 Q 1633.5 85.5 1678.5 86.5 Q 1723.5 86.5 1783.5 98.5 Q 1843.5 110.5 1864.5 126.5 Q 1893.5 142.5 1897.5 152.5 Q 1902.5 162.5 1903.5 169.5 Q 1903.5 189.5 1882.5 206.5 L 1819.5 248.5 Q 1807.5 257.5 1788.5 278.5 Z" fill="lightgray"></path>
      </clipPath>
      <path clip-path="url(#make-me-a-hanzi-clip-8)" d="M 1311.5 431.5 L 1333.5 399.5 L 1353.5 313.5 L 1393.5 236.5 L 1464.5 169.5 L 1500.5 150.5 L 1545.5 136.5 L 1621.5 126.5 L 1712.5 128.5 L 1766.5 142.5 L 1811.5 174.5 L 1726.5 337.5 " fill="none" id="make-me-a-hanzi-animation-8" stroke-dasharray="990 1980" stroke-linecap="round"></path>

      <clipPath id="make-me-a-hanzi-clip-9">
      <path d="M 1433.5 574.5 L 1501.5 482.5 Q 1520.5 461.5 1528.5 453.5 Q 1537.5 444.5 1544.5 446.5 Q 1565.5 450.5 1572.5 482.5 Q 1583.5 539.5 1536.5 558.5 Q 1506.5 572.5 1491.5 576.5 L 1468.5 584.5 L 1441.5 589.5 Q 1436.5 590.5 1432.5 586.5 Q 1428.5 582.5 1433.5 574.5 Z" fill="lightgray"></path>
      </clipPath>
      <path clip-path="url(#make-me-a-hanzi-clip-9)" d="M 1439.5 581.5 L 1528.5 515.5 L 1542.5 482.5 L 1542.5 463.5 " fill="none" id="make-me-a-hanzi-animation-9" stroke-dasharray="294 588" stroke-linecap="round"></path>

      <clipPath id="make-me-a-hanzi-clip-10">
      <path d="M 1793.5 503.5 L 1851.5 428.5 Q 1872.5 400.5 1891.5 385.5 Q 1908.5 375.5 1912.5 375.5 Q 1916.5 374.5 1930.5 379.5 Q 1945.5 392.5 1949.5 424.5 Q 1949.5 444.5 1942.5 459.5 Q 1936.5 474.5 1912.5 494.5 Q 1889.5 514.5 1850.5 532.5 L 1780.5 563.5 Q 1751.5 575.5 1743.5 567.5 Q 1741.5 564.5 1747.5 554.5 L 1793.5 503.5 Z" fill="lightgray"></path>
      </clipPath>
      <path clip-path="url(#make-me-a-hanzi-clip-10)" d="M 1750.5 562.5 L 1830.5 507.5 L 1889.5 454.5 L 1904.5 434.5 L 1914.5 392.5 " fill="none" id="make-me-a-hanzi-animation-10" stroke-dasharray="373 746" stroke-linecap="round"></path>

</g>
</svg>
