<svg version="1.1" viewBox="0 0 2048 1024" xmlns="http://www.w3.org/2000/svg">
  <g stroke="lightgray" stroke-dasharray="1,1" stroke-width="1" transform="scale(4, 4)">
    <line x1="0" y1="0" x2="256" y2="256"></line>
    <line x1="256" y1="0" x2="0" y2="256"></line>
    <line x1="128" y1="0" x2="128" y2="256"></line>
    <line x1="0" y1="128" x2="256" y2="128"></line>
    <line x1="256" y1="0" x2="512" y2="256"></line>
    <line x1="512" y1="0" x2="256" y2="256"></line>
    <line x1="384" y1="0" x2="384" y2="256"></line>
    <line x1="256" y1="128" x2="512" y2="128"></line>
  </g>
<g transform="scale(1, -1) translate(0, -850)">
   <style type="text/css">
    @keyframes keyframes0 {
      from {
       stroke: black;
       stroke-dashoffset: 492;
       stroke-width: 128;
       }
       62% {
       animation-timing-function: step-end;
       stroke: black;
       stroke-dashoffset: 0;
       stroke-width: 128;
       }
       to {
       stroke: black;
       stroke-width: 1024;
       }
       }
       #make-me-a-hanzi-animation-0 {
         animation: keyframes0 0.650391s both;
         animation-delay: 0.000000s;
         animation-timing-function: linear;
       }
    @keyframes keyframes1 {
      from {
       stroke: black;
       stroke-dashoffset: 631;
       stroke-width: 128;
       }
       67% {
       animation-timing-function: step-end;
       stroke: black;
       stroke-dashoffset: 0;
       stroke-width: 128;
       }
       to {
       stroke: black;
       stroke-width: 1024;
       }
       }
       #make-me-a-hanzi-animation-1 {
         animation: keyframes1 0.763509s both;
         animation-delay: 0.650391s;
         animation-timing-function: linear;
       }
    @keyframes keyframes2 {
      from {
       stroke: black;
       stroke-dashoffset: 1373;
       stroke-width: 128;
       }
       82% {
       animation-timing-function: step-end;
       stroke: black;
       stroke-dashoffset: 0;
       stroke-width: 128;
       }
       to {
       stroke: black;
       stroke-width: 1024;
       }
       }
       #make-me-a-hanzi-animation-2 {
         animation: keyframes2 1.367350s both;
         animation-delay: 1.413900s;
         animation-timing-function: linear;
       }
    @keyframes keyframes3 {
      from {
       stroke: black;
       stroke-dashoffset: 494;
       stroke-width: 128;
       }
       62% {
       animation-timing-function: step-end;
       stroke: black;
       stroke-dashoffset: 0;
       stroke-width: 128;
       }
       to {
       stroke: black;
       stroke-width: 1024;
       }
       }
       #make-me-a-hanzi-animation-3 {
         animation: keyframes3 0.652018s both;
         animation-delay: 2.781250s;
         animation-timing-function: linear;
       }
    @keyframes keyframes4 {
      from {
       stroke: black;
       stroke-dashoffset: 494;
       stroke-width: 128;
       }
       62% {
       animation-timing-function: step-end;
       stroke: black;
       stroke-dashoffset: 0;
       stroke-width: 128;
       }
       to {
       stroke: black;
       stroke-width: 1024;
       }
       }
       #make-me-a-hanzi-animation-4 {
         animation: keyframes4 0.652018s both;
         animation-delay: 3.433268s;
         animation-timing-function: linear;
       }
    @keyframes keyframes5 {
      from {
       stroke: black;
       stroke-dashoffset: 742;
       stroke-width: 128;
       }
       71% {
       animation-timing-function: step-end;
       stroke: black;
       stroke-dashoffset: 0;
       stroke-width: 128;
       }
       to {
       stroke: black;
       stroke-width: 1024;
       }
       }
       #make-me-a-hanzi-animation-5 {
         animation: keyframes5 0.853841s both;
         animation-delay: 4.085286s;
         animation-timing-function: linear;
       }
    @keyframes keyframes6 {
      from {
       stroke: black;
       stroke-dashoffset: 1193;
       stroke-width: 128;
       }
       80% {
       animation-timing-function: step-end;
       stroke: black;
       stroke-dashoffset: 0;
       stroke-width: 128;
       }
       to {
       stroke: black;
       stroke-width: 1024;
       }
       }
       #make-me-a-hanzi-animation-6 {
         animation: keyframes6 1.220866s both;
         animation-delay: 4.939127s;
         animation-timing-function: linear;
       }
    @keyframes keyframes7 {
      from {
       stroke: black;
       stroke-dashoffset: 478;
       stroke-width: 128;
       }
       61% {
       animation-timing-function: step-end;
       stroke: black;
       stroke-dashoffset: 0;
       stroke-width: 128;
       }
       to {
       stroke: black;
       stroke-width: 1024;
       }
       }
       #make-me-a-hanzi-animation-7 {
         animation: keyframes7 0.638997s both;
         animation-delay: 6.159993s;
         animation-timing-function: linear;
       }
    @keyframes keyframes8 {
      from {
       stroke: black;
       stroke-dashoffset: 696;
       stroke-width: 128;
       }
       69% {
       animation-timing-function: step-end;
       stroke: black;
       stroke-dashoffset: 0;
       stroke-width: 128;
       }
       to {
       stroke: black;
       stroke-width: 1024;
       }
       }
       #make-me-a-hanzi-animation-8 {
         animation: keyframes8 0.816406s both;
         animation-delay: 6.798990s;
         animation-timing-function: linear;
       }
    @keyframes keyframes9 {
      from {
       stroke: black;
       stroke-dashoffset: 427;
       stroke-width: 128;
       }
       58% {
       animation-timing-function: step-end;
       stroke: black;
       stroke-dashoffset: 0;
       stroke-width: 128;
       }
       to {
       stroke: black;
       stroke-width: 1024;
       }
       }
       #make-me-a-hanzi-animation-9 {
         animation: keyframes9 0.597493s both;
         animation-delay: 7.615396s;
         animation-timing-function: linear;
       }
    @keyframes keyframes10 {
      from {
       stroke: black;
       stroke-dashoffset: 398;
       stroke-width: 128;
       }
       56% {
       animation-timing-function: step-end;
       stroke: black;
       stroke-dashoffset: 0;
       stroke-width: 128;
       }
       to {
       stroke: black;
       stroke-width: 1024;
       }
       }
       #make-me-a-hanzi-animation-10 {
         animation: keyframes10 0.573893s both;
         animation-delay: 8.212889s;
         animation-timing-function: linear;
       }
    @keyframes keyframes11 {
      from {
       stroke: black;
       stroke-dashoffset: 328;
       stroke-width: 128;
       }
       52% {
       animation-timing-function: step-end;
       stroke: black;
       stroke-dashoffset: 0;
       stroke-width: 128;
       }
       to {
       stroke: black;
       stroke-width: 1024;
       }
       }
       #make-me-a-hanzi-animation-11 {
         animation: keyframes11 0.516927s both;
         animation-delay: 8.786782s;
         animation-timing-function: linear;
       }
    @keyframes keyframes12 {
      from {
       stroke: black;
       stroke-dashoffset: 815;
       stroke-width: 128;
       }
       73% {
       animation-timing-function: step-end;
       stroke: black;
       stroke-dashoffset: 0;
       stroke-width: 128;
       }
       to {
       stroke: black;
       stroke-width: 1024;
       }
       }
       #make-me-a-hanzi-animation-12 {
         animation: keyframes12 0.913249s both;
         animation-delay: 9.303709s;
         animation-timing-function: linear;
       }
    @keyframes keyframes13 {
      from {
       stroke: black;
       stroke-dashoffset: 410;
       stroke-width: 128;
       }
       57% {
       animation-timing-function: step-end;
       stroke: black;
       stroke-dashoffset: 0;
       stroke-width: 128;
       }
       to {
       stroke: black;
       stroke-width: 1024;
       }
       }
       #make-me-a-hanzi-animation-13 {
         animation: keyframes13 0.583659s both;
         animation-delay: 10.216958s;
         animation-timing-function: linear;
       }
    @keyframes keyframes14 {
      from {
       stroke: black;
       stroke-dashoffset: 568;
       stroke-width: 128;
       }
       65% {
       animation-timing-function: step-end;
       stroke: black;
       stroke-dashoffset: 0;
       stroke-width: 128;
       }
       to {
       stroke: black;
       stroke-width: 1024;
       }
       }
       #make-me-a-hanzi-animation-14 {
         animation: keyframes14 0.712240s both;
         animation-delay: 10.800617s;
         animation-timing-function: linear;
       }
    @keyframes keyframes15 {
      from {
       stroke: black;
       stroke-dashoffset: 438;
       stroke-width: 128;
       }
       59% {
       animation-timing-function: step-end;
       stroke: black;
       stroke-dashoffset: 0;
       stroke-width: 128;
       }
       to {
       stroke: black;
       stroke-width: 1024;
       }
       }
       #make-me-a-hanzi-animation-15 {
         animation: keyframes15 0.606445s both;
         animation-delay: 11.512857s;
         animation-timing-function: linear;
       }
    @keyframes keyframes16 {
      from {
       stroke: black;
       stroke-dashoffset: 569;
       stroke-width: 128;
       }
       65% {
       animation-timing-function: step-end;
       stroke: black;
       stroke-dashoffset: 0;
       stroke-width: 128;
       }
       to {
       stroke: black;
       stroke-width: 1024;
       }
       }
       #make-me-a-hanzi-animation-16 {
         animation: keyframes16 0.713053s both;
         animation-delay: 12.119302s;
         animation-timing-function: linear;
       }
    @keyframes keyframes17 {
      from {
       stroke: black;
       stroke-dashoffset: 403;
       stroke-width: 128;
       }
       57% {
       animation-timing-function: step-end;
       stroke: black;
       stroke-dashoffset: 0;
       stroke-width: 128;
       }
       to {
       stroke: black;
       stroke-width: 1024;
       }
       }
       #make-me-a-hanzi-animation-17 {
         animation: keyframes17 0.577962s both;
         animation-delay: 12.832355s;
         animation-timing-function: linear;
       }
    @keyframes keyframes18 {
      from {
       stroke: black;
       stroke-dashoffset: 396;
       stroke-width: 128;
       }
       56% {
       animation-timing-function: step-end;
       stroke: black;
       stroke-dashoffset: 0;
       stroke-width: 128;
       }
       to {
       stroke: black;
       stroke-width: 1024;
       }
       }
       #make-me-a-hanzi-animation-18 {
         animation: keyframes18 0.572266s both;
         animation-delay: 13.410317s;
         animation-timing-function: linear;
       }
    @keyframes keyframes19 {
      from {
       stroke: black;
       stroke-dashoffset: 576;
       stroke-width: 128;
       }
       65% {
       animation-timing-function: step-end;
       stroke: black;
       stroke-dashoffset: 0;
       stroke-width: 128;
       }
       to {
       stroke: black;
       stroke-width: 1024;
       }
       }
       #make-me-a-hanzi-animation-19 {
         animation: keyframes19 0.718750s both;
         animation-delay: 13.982583s;
         animation-timing-function: linear;
       }
    @keyframes keyframes20 {
      from {
       stroke: black;
       stroke-dashoffset: 591;
       stroke-width: 128;
       }
       66% {
       animation-timing-function: step-end;
       stroke: black;
       stroke-dashoffset: 0;
       stroke-width: 128;
       }
       to {
       stroke: black;
       stroke-width: 1024;
       }
       }
       #make-me-a-hanzi-animation-20 {
         animation: keyframes20 0.730957s both;
         animation-delay: 14.701333s;
         animation-timing-function: linear;
       }
    @keyframes keyframes21 {
      from {
       stroke: black;
       stroke-dashoffset: 749;
       stroke-width: 128;
       }
       71% {
       animation-timing-function: step-end;
       stroke: black;
       stroke-dashoffset: 0;
       stroke-width: 128;
       }
       to {
       stroke: black;
       stroke-width: 1024;
       }
       }
       #make-me-a-hanzi-animation-21 {
         animation: keyframes21 0.859538s both;
         animation-delay: 15.432290s;
         animation-timing-function: linear;
       }
</style>
<path d="M 439.5 622.0 L 470.5 645.0 L 554.5 722.0 Q 567.5 733.0 580.5 741.0 Q 593.5 748.0 597.5 752.0 Q 602.5 756.0 603.5 763.0 Q 604.5 770.0 596.5 779.0 Q 588.5 788.0 571.5 796.0 L 550.5 805.0 L 525.5 812.0 Q 521.5 813.0 518.5 811.0 Q 516.5 808.0 515.5 796.0 Q 514.5 784.0 491.5 739.0 Q 468.5 694.0 444.5 665.0 Q 421.5 635.0 418.5 632.0 Q 415.5 629.0 409.5 619.0 C 393.5 594.0 415.5 604.0 439.5 622.0 Z" fill="lightgray"></path> 
<path d="M 409.5 619.0 L 378.5 623.0 L 352.5 631.0 Q 338.5 631.0 335.5 626.0 Q 332.5 621.0 339.5 607.0 Q 350.5 587.0 352.5 557.0 L 357.5 517.0 L 369.5 262.0 C 370.5 232.0 411.5 239.0 411.5 269.0 L 412.5 371.0 L 412.5 395.0 L 412.5 485.0 L 413.5 504.0 L 413.5 587.0 C 413.5 617.0 413.5 618.0 409.5 619.0 Z" fill="lightgray"></path> 
<path d="M 711.5 349.0 L 711.5 501.0 Q 712.5 571.0 734.5 610.0 Q 741.5 621.0 741.5 628.0 Q 739.5 647.0 674.5 670.0 Q 664.5 675.0 656.5 674.0 Q 649.5 673.0 636.5 666.0 Q 623.5 658.0 607.5 655.0 Q 593.5 649.0 579.5 647.0 L 537.5 639.0 Q 464.5 624.0 439.5 622.0 C 397.5 616.0 368.5 581.0 413.5 587.0 L 506.5 599.0 L 554.5 607.0 Q 618.5 617.0 621.5 617.0 Q 647.5 622.0 654.5 609.0 Q 661.5 596.0 659.5 582.0 Q 658.5 567.0 659.5 558.0 Q 661.5 549.0 661.5 527.0 L 661.5 513.0 L 659.5 414.0 L 659.5 400.0 L 657.5 311.0 L 654.5 216.0 L 649.5 83.0 L 641.5 -10.0 Q 640.5 -23.0 635.5 -29.0 Q 619.5 -48.0 603.5 -37.0 L 540.5 -16.0 Q 533.5 -15.0 530.5 -19.0 Q 526.5 -25.0 534.5 -31.0 L 582.5 -74.0 L 627.5 -123.0 Q 636.5 -135.0 642.5 -137.0 Q 667.5 -137.0 688.5 -83.0 Q 709.5 -29.0 709.5 55.0 L 709.5 267.0 L 711.5 349.0 Z" fill="lightgray"></path> 
<path d="M 460.5 475.0 Q 471.5 475.0 487.5 478.0 L 539.5 487.0 Q 584.5 494.0 636.5 507.0 L 661.5 513.0 C 680.5 518.0 680.5 518.0 661.5 527.0 L 638.5 538.0 Q 631.5 540.0 623.5 541.0 L 607.5 543.0 Q 602.5 543.0 589.5 538.0 Q 576.5 533.0 535.5 524.0 L 494.5 515.0 L 459.5 510.0 Q 436.5 506.0 413.5 504.0 C 383.5 501.0 385.5 498.0 412.5 485.0 L 419.5 482.0 Q 421.5 479.0 437.5 478.0 Q 454.5 477.0 460.5 475.0 Z" fill="lightgray"></path> 
<path d="M 412.5 371.0 L 429.5 366.0 Q 449.5 359.0 486.5 367.0 Q 523.5 375.0 527.5 375.0 L 585.5 385.0 Q 599.5 386.0 614.5 391.0 L 659.5 400.0 C 678.5 404.0 678.5 404.0 659.5 414.0 L 646.5 421.0 L 635.5 425.0 Q 618.5 435.0 608.5 434.0 Q 598.5 432.0 590.5 428.0 L 573.5 422.0 Q 570.5 423.0 527.5 413.0 L 490.5 405.0 L 446.5 399.0 Q 424.5 395.0 412.5 395.0 C 382.5 394.0 383.5 379.0 412.5 371.0 Z" fill="lightgray"></path> 
<path d="M 369.5 262.0 L 285.5 248.0 Q 240.5 241.0 201.5 246.0 L 189.5 248.0 Q 179.5 248.0 175.5 244.0 Q 171.5 240.0 176.5 228.0 Q 181.5 218.0 190.5 209.0 L 211.5 189.0 Q 240.5 168.0 245.5 169.0 Q 251.5 169.0 261.5 174.0 L 288.5 189.0 L 321.5 204.0 Q 331.5 208.0 347.5 211.0 L 636.5 277.0 C 675.5 286.0 687.5 316.0 657.5 311.0 L 411.5 269.0 L 369.5 262.0 Z" fill="lightgray"></path> 
<path d="M 834.5 508.0 L 819.5 513.0 L 809.5 509.0 Q 806.5 506.0 802.5 487.0 Q 793.5 447.0 766.5 414.0 L 735.5 376.0 L 711.5 349.0 L 636.5 277.0 L 619.5 261.0 Q 530.5 179.0 443.5 121.0 Q 357.5 63.0 327.5 45.0 L 224.5 -13.0 Q 202.5 -26.0 143.5 -55.0 L 129.5 -61.0 Q 125.5 -63.0 127.5 -69.0 Q 131.5 -75.0 136.5 -74.0 L 149.5 -71.0 Q 179.5 -67.0 233.5 -47.0 Q 288.5 -27.0 336.5 -2.0 Q 384.5 23.0 460.5 71.0 Q 536.5 118.0 586.5 160.0 L 654.5 216.0 L 709.5 267.0 L 722.5 278.0 L 849.5 405.0 Q 866.5 417.0 876.5 427.0 Q 886.5 436.0 896.5 441.0 Q 898.5 446.0 892.5 460.0 Q 886.5 473.0 865.5 489.0 Q 848.5 503.0 834.5 508.0 Z" fill="lightgray"></path> 
<path d="M 1288.0 686.0 L 1234.0 690.0 Q 1229.0 686.0 1230.0 682.0 Q 1230.0 677.0 1242.0 671.0 Q 1254.0 664.0 1265.0 632.0 L 1276.0 597.0 L 1288.0 523.0 Q 1293.0 498.0 1296.0 493.0 Q 1305.0 476.0 1316.0 480.0 Q 1319.0 484.0 1322.0 491.0 C 1328.0 504.0 1328.0 504.0 1326.0 520.0 L 1318.0 582.0 L 1314.0 604.0 L 1302.0 664.0 C 1298.0 685.0 1298.0 685.0 1288.0 686.0 Z" fill="lightgray"></path> 
<path d="M 1470.0 506.0 L 1472.0 498.0 Q 1476.0 494.0 1477.0 492.0 L 1484.0 488.0 Q 1487.0 485.0 1494.0 487.0 Q 1501.0 488.0 1507.0 495.0 Q 1513.0 501.0 1524.0 530.0 L 1556.0 623.0 Q 1561.0 644.0 1569.0 654.0 L 1584.0 675.0 Q 1591.0 695.0 1570.0 706.0 Q 1560.0 709.0 1536.0 720.0 Q 1505.0 727.0 1492.0 727.0 Q 1479.0 727.0 1458.0 720.0 Q 1411.0 709.0 1394.0 706.0 L 1288.0 686.0 C 1259.0 680.0 1272.0 659.0 1302.0 664.0 L 1422.0 683.0 Q 1471.0 692.0 1481.0 691.0 Q 1490.0 689.0 1499.0 685.0 Q 1508.0 680.0 1504.0 662.0 L 1498.0 628.0 L 1494.0 606.0 L 1472.0 531.0 L 1470.0 506.0 Z" fill="lightgray"></path> 
<path d="M 1460.0 632.0 L 1314.0 604.0 C 1285.0 598.0 1288.0 579.0 1318.0 582.0 L 1378.0 589.0 Q 1402.0 589.0 1450.0 599.0 L 1482.0 602.0 L 1494.0 606.0 C 1522.0 615.0 1525.0 616.0 1498.0 628.0 L 1484.0 634.0 Q 1481.0 635.0 1460.0 632.0 Z" fill="lightgray"></path> 
<path d="M 1322.0 491.0 L 1470.0 506.0 C 1500.0 509.0 1501.0 523.0 1472.0 531.0 L 1454.0 536.0 Q 1451.0 537.0 1442.0 536.0 L 1406.0 532.0 L 1326.0 520.0 C 1296.0 516.0 1292.0 488.0 1322.0 491.0 Z" fill="lightgray"></path> 
<path d="M 1426.0 421.0 L 1432.0 432.0 Q 1437.0 443.0 1436.0 454.0 Q 1432.0 466.0 1421.0 472.0 Q 1410.0 477.0 1386.0 484.0 L 1374.0 488.0 Q 1366.0 490.0 1362.0 485.0 Q 1361.0 479.0 1363.0 477.0 Q 1364.0 474.0 1366.0 471.0 Q 1367.0 468.0 1370.0 463.0 L 1387.0 434.0 Q 1387.0 433.0 1402.0 418.0 C 1416.0 404.0 1416.0 404.0 1426.0 421.0 Z" fill="lightgray"></path> 
<path d="M 1402.0 418.0 L 1130.0 383.0 Q 1118.0 382.0 1118.0 377.0 L 1120.0 370.0 Q 1121.0 368.0 1142.0 356.0 Q 1154.0 347.0 1174.0 349.0 L 1188.0 349.0 L 1264.0 365.0 L 1319.0 374.0 L 1400.0 385.0 L 1482.0 394.0 Q 1530.0 400.0 1548.0 401.0 L 1620.0 405.0 Q 1680.0 408.0 1684.0 412.0 L 1688.0 422.0 Q 1690.0 424.0 1684.0 427.0 L 1656.0 440.0 Q 1641.0 449.0 1631.0 451.0 Q 1620.0 452.0 1600.0 447.0 L 1426.0 421.0 L 1402.0 418.0 Z" fill="lightgray"></path> 
<path d="M 1258.0 313.0 Q 1258.0 310.0 1260.0 308.0 L 1270.0 303.0 Q 1280.0 292.0 1284.0 286.0 Q 1287.0 280.0 1292.0 260.0 L 1304.0 209.0 L 1312.0 184.0 L 1319.0 176.0 Q 1326.0 173.0 1330.0 178.0 L 1336.0 184.0 C 1343.0 191.0 1343.0 191.0 1340.0 214.0 L 1330.0 293.0 C 1327.0 319.0 1327.0 319.0 1308.0 320.0 L 1280.0 322.0 Q 1258.0 322.0 1258.0 313.0 Z" fill="lightgray"></path> 
<path d="M 1516.0 218.0 L 1538.0 264.0 Q 1543.0 275.0 1564.0 296.0 Q 1570.0 300.0 1570.0 302.0 L 1572.0 307.0 Q 1573.0 316.0 1552.0 332.0 L 1526.0 349.0 Q 1513.0 355.0 1492.0 350.0 Q 1482.0 347.0 1378.0 332.0 L 1308.0 320.0 C 1278.0 315.0 1301.0 285.0 1330.0 293.0 L 1360.0 301.0 L 1398.0 308.0 L 1444.0 314.0 Q 1484.0 321.0 1490.0 307.0 Q 1494.0 304.0 1488.0 266.0 L 1482.0 226.0 C 1478.0 196.0 1503.0 191.0 1516.0 218.0 Z" fill="lightgray"></path> 
<path d="M 1336.0 184.0 L 1354.0 182.0 Q 1353.0 180.0 1365.0 182.0 Q 1376.0 184.0 1380.0 184.0 L 1424.0 188.0 L 1516.0 196.0 Q 1528.0 196.0 1528.0 203.0 Q 1529.0 205.0 1516.0 218.0 C 1506.0 228.0 1506.0 228.0 1482.0 226.0 L 1340.0 214.0 C 1310.0 211.0 1306.0 187.0 1336.0 184.0 Z" fill="lightgray"></path> 
<path d="M 1380.0 184.0 L 1390.0 158.0 Q 1394.0 139.0 1394.0 99.0 L 1394.0 52.0 Q 1394.0 6.0 1382.0 3.0 Q 1376.0 -2.0 1354.0 6.0 L 1330.0 10.0 L 1316.0 11.0 L 1316.0 6.0 L 1328.0 -6.0 L 1344.0 -19.0 Q 1349.0 -22.0 1360.0 -34.0 L 1376.0 -62.0 Q 1382.0 -70.0 1388.0 -71.0 Q 1393.0 -73.0 1401.0 -71.0 Q 1408.0 -69.0 1429.0 -41.0 Q 1442.0 -24.0 1442.0 33.0 L 1442.0 92.0 L 1444.0 118.0 L 1451.0 144.0 Q 1456.0 156.0 1454.0 165.0 Q 1452.0 175.0 1424.0 188.0 C 1397.0 201.0 1369.0 212.0 1380.0 184.0 Z" fill="lightgray"></path> 
<path d="M 1298.0 133.0 L 1298.0 145.0 Q 1297.0 150.0 1292.0 152.0 Q 1289.0 153.0 1283.0 146.0 L 1244.0 106.0 L 1214.0 80.0 Q 1211.0 77.0 1205.0 73.0 Q 1199.0 69.0 1195.0 60.0 Q 1180.0 20.0 1201.0 10.0 Q 1209.0 7.0 1220.0 12.0 Q 1248.0 18.0 1275.0 58.0 Q 1298.0 97.0 1298.0 133.0 Z" fill="lightgray"></path> 
<path d="M 1618.0 70.0 L 1613.0 98.0 Q 1613.0 105.0 1594.0 121.0 L 1554.0 143.0 L 1526.0 156.0 Q 1501.0 162.0 1498.0 159.0 L 1500.0 152.0 L 1538.0 99.0 Q 1553.0 81.0 1566.0 63.0 Q 1578.0 44.0 1586.0 40.0 Q 1604.0 33.0 1612.0 51.0 Q 1618.0 58.0 1618.0 70.0 Z" fill="lightgray"></path> 
<path d="M 1884.0 680.0 L 1888.0 686.0 L 1886.0 694.0 Q 1887.0 698.0 1868.0 717.0 L 1852.0 731.0 Q 1841.0 740.0 1832.0 742.0 Q 1812.0 749.0 1812.0 725.0 Q 1812.0 720.0 1804.0 693.0 L 1792.0 672.0 L 1778.0 642.0 Q 1751.0 601.0 1733.0 582.0 L 1684.0 527.0 L 1650.0 496.0 Q 1648.0 489.0 1649.0 487.0 Q 1649.0 485.0 1668.0 492.0 L 1690.0 502.0 Q 1717.0 513.0 1731.0 526.0 Q 1745.0 538.0 1760.0 549.0 L 1866.0 666.0 L 1884.0 680.0 Z" fill="lightgray"></path> 
<path d="M 1826.0 366.0 L 1856.0 396.0 L 1874.0 416.0 L 1888.0 429.0 L 1900.0 434.0 Q 1904.0 439.0 1904.0 452.0 Q 1904.0 464.0 1893.0 471.0 Q 1882.0 478.0 1872.0 488.0 Q 1849.0 506.0 1840.0 505.0 Q 1831.0 503.0 1830.0 499.0 Q 1826.0 495.0 1826.0 483.0 L 1826.0 471.0 Q 1827.0 467.0 1819.0 446.0 L 1782.0 393.0 Q 1756.0 358.0 1724.0 326.0 L 1690.0 294.0 L 1644.0 259.0 Q 1642.0 254.0 1644.0 249.0 Q 1645.0 244.0 1664.0 254.0 L 1700.0 270.0 Q 1731.0 286.0 1783.0 324.0 Q 1801.0 336.0 1826.0 366.0 Z" fill="lightgray"></path> 
<path d="M 1604.0 -28.0 L 1580.0 -44.0 Q 1567.0 -54.0 1568.0 -58.0 Q 1569.0 -70.0 1596.0 -60.0 L 1618.0 -50.0 Q 1650.0 -37.0 1688.0 -16.0 Q 1732.0 11.0 1754.0 29.0 Q 1814.0 72.0 1861.0 128.0 L 1920.0 197.0 Q 1930.0 208.0 1936.0 212.0 L 1945.0 218.0 Q 1954.0 223.0 1954.0 229.0 Q 1954.0 235.0 1948.0 248.0 Q 1942.0 260.0 1932.0 266.0 Q 1927.0 270.0 1910.0 279.0 Q 1893.0 288.0 1886.0 290.0 Q 1872.0 290.0 1870.0 281.0 L 1868.0 254.0 Q 1867.0 246.0 1856.0 225.0 Q 1844.0 204.0 1834.0 193.0 L 1762.0 101.0 L 1721.0 59.0 Q 1680.0 21.0 1604.0 -28.0 Z" fill="lightgray"></path> 
      <clipPath id="make-me-a-hanzi-clip-0">
      <path d="M 439.5 622.0 L 470.5 645.0 L 554.5 722.0 Q 567.5 733.0 580.5 741.0 Q 593.5 748.0 597.5 752.0 Q 602.5 756.0 603.5 763.0 Q 604.5 770.0 596.5 779.0 Q 588.5 788.0 571.5 796.0 L 550.5 805.0 L 525.5 812.0 Q 521.5 813.0 518.5 811.0 Q 516.5 808.0 515.5 796.0 Q 514.5 784.0 491.5 739.0 Q 468.5 694.0 444.5 665.0 Q 421.5 635.0 418.5 632.0 Q 415.5 629.0 409.5 619.0 C 393.5 594.0 415.5 604.0 439.5 622.0 Z" fill="lightgray"></path>
      </clipPath>
      <path clip-path="url(#make-me-a-hanzi-clip-0)" d="M 523.5 802.0 L 545.5 763.0 L 456.5 653.0 L 416.5 624.0 " fill="none" id="make-me-a-hanzi-animation-0" stroke-dasharray="364 728" stroke-linecap="round"></path>

      <clipPath id="make-me-a-hanzi-clip-1">
      <path d="M 409.5 619.0 L 378.5 623.0 L 352.5 631.0 Q 338.5 631.0 335.5 626.0 Q 332.5 621.0 339.5 607.0 Q 350.5 587.0 352.5 557.0 L 357.5 517.0 L 369.5 262.0 C 370.5 232.0 411.5 239.0 411.5 269.0 L 412.5 371.0 L 412.5 395.0 L 412.5 485.0 L 413.5 504.0 L 413.5 587.0 C 413.5 617.0 413.5 618.0 409.5 619.0 Z" fill="lightgray"></path>
      </clipPath>
      <path clip-path="url(#make-me-a-hanzi-clip-1)" d="M 342.5 622.0 L 380.5 590.0 L 381.5 580.0 L 390.5 291.0 L 375.5 270.0 " fill="none" id="make-me-a-hanzi-animation-1" stroke-dasharray="503 1006" stroke-linecap="round"></path>

      <clipPath id="make-me-a-hanzi-clip-2">
      <path d="M 711.5 349.0 L 711.5 501.0 Q 712.5 571.0 734.5 610.0 Q 741.5 621.0 741.5 628.0 Q 739.5 647.0 674.5 670.0 Q 664.5 675.0 656.5 674.0 Q 649.5 673.0 636.5 666.0 Q 623.5 658.0 607.5 655.0 Q 593.5 649.0 579.5 647.0 L 537.5 639.0 Q 464.5 624.0 439.5 622.0 C 397.5 616.0 368.5 581.0 413.5 587.0 L 506.5 599.0 L 554.5 607.0 Q 618.5 617.0 621.5 617.0 Q 647.5 622.0 654.5 609.0 Q 661.5 596.0 659.5 582.0 Q 658.5 567.0 659.5 558.0 Q 661.5 549.0 661.5 527.0 L 661.5 513.0 L 659.5 414.0 L 659.5 400.0 L 657.5 311.0 L 654.5 216.0 L 649.5 83.0 L 641.5 -10.0 Q 640.5 -23.0 635.5 -29.0 Q 619.5 -48.0 603.5 -37.0 L 540.5 -16.0 Q 533.5 -15.0 530.5 -19.0 Q 526.5 -25.0 534.5 -31.0 L 582.5 -74.0 L 627.5 -123.0 Q 636.5 -135.0 642.5 -137.0 Q 667.5 -137.0 688.5 -83.0 Q 709.5 -29.0 709.5 55.0 L 709.5 267.0 L 711.5 349.0 Z" fill="lightgray"></path>
      </clipPath>
      <path clip-path="url(#make-me-a-hanzi-clip-2)" d="M 417.5 615.0 L 426.5 605.0 L 450.5 606.0 L 659.5 644.0 L 691.5 623.0 L 693.5 615.0 L 686.5 537.0 L 679.5 63.0 L 670.5 -30.0 L 644.5 -77.0 L 616.5 -70.0 L 537.5 -23.0 " fill="none" id="make-me-a-hanzi-animation-2" stroke-dasharray="1245 2490" stroke-linecap="round"></path>

      <clipPath id="make-me-a-hanzi-clip-3">
      <path d="M 460.5 475.0 Q 471.5 475.0 487.5 478.0 L 539.5 487.0 Q 584.5 494.0 636.5 507.0 L 661.5 513.0 C 680.5 518.0 680.5 518.0 661.5 527.0 L 638.5 538.0 Q 631.5 540.0 623.5 541.0 L 607.5 543.0 Q 602.5 543.0 589.5 538.0 Q 576.5 533.0 535.5 524.0 L 494.5 515.0 L 459.5 510.0 Q 436.5 506.0 413.5 504.0 C 383.5 501.0 385.5 498.0 412.5 485.0 L 419.5 482.0 Q 421.5 479.0 437.5 478.0 Q 454.5 477.0 460.5 475.0 Z" fill="lightgray"></path>
      </clipPath>
      <path clip-path="url(#make-me-a-hanzi-clip-3)" d="M 418.5 489.0 L 491.5 496.0 L 607.5 522.0 L 653.5 520.0 " fill="none" id="make-me-a-hanzi-animation-3" stroke-dasharray="366 732" stroke-linecap="round"></path>

      <clipPath id="make-me-a-hanzi-clip-4">
      <path d="M 412.5 371.0 L 429.5 366.0 Q 449.5 359.0 486.5 367.0 Q 523.5 375.0 527.5 375.0 L 585.5 385.0 Q 599.5 386.0 614.5 391.0 L 659.5 400.0 C 678.5 404.0 678.5 404.0 659.5 414.0 L 646.5 421.0 L 635.5 425.0 Q 618.5 435.0 608.5 434.0 Q 598.5 432.0 590.5 428.0 L 573.5 422.0 Q 570.5 423.0 527.5 413.0 L 490.5 405.0 L 446.5 399.0 Q 424.5 395.0 412.5 395.0 C 382.5 394.0 383.5 379.0 412.5 371.0 Z" fill="lightgray"></path>
      </clipPath>
      <path clip-path="url(#make-me-a-hanzi-clip-4)" d="M 417.5 389.0 L 448.5 380.0 L 609.5 412.0 L 650.5 407.0 " fill="none" id="make-me-a-hanzi-animation-4" stroke-dasharray="366 732" stroke-linecap="round"></path>

      <clipPath id="make-me-a-hanzi-clip-5">
      <path d="M 369.5 262.0 L 285.5 248.0 Q 240.5 241.0 201.5 246.0 L 189.5 248.0 Q 179.5 248.0 175.5 244.0 Q 171.5 240.0 176.5 228.0 Q 181.5 218.0 190.5 209.0 L 211.5 189.0 Q 240.5 168.0 245.5 169.0 Q 251.5 169.0 261.5 174.0 L 288.5 189.0 L 321.5 204.0 Q 331.5 208.0 347.5 211.0 L 636.5 277.0 C 675.5 286.0 687.5 316.0 657.5 311.0 L 411.5 269.0 L 369.5 262.0 Z" fill="lightgray"></path>
      </clipPath>
      <path clip-path="url(#make-me-a-hanzi-clip-5)" d="M 184.5 238.0 L 200.5 226.0 L 248.5 208.0 L 324.5 231.0 L 625.5 289.0 L 650.5 304.0 " fill="none" id="make-me-a-hanzi-animation-5" stroke-dasharray="614 1228" stroke-linecap="round"></path>

      <clipPath id="make-me-a-hanzi-clip-6">
      <path d="M 834.5 508.0 L 819.5 513.0 L 809.5 509.0 Q 806.5 506.0 802.5 487.0 Q 793.5 447.0 766.5 414.0 L 735.5 376.0 L 711.5 349.0 L 636.5 277.0 L 619.5 261.0 Q 530.5 179.0 443.5 121.0 Q 357.5 63.0 327.5 45.0 L 224.5 -13.0 Q 202.5 -26.0 143.5 -55.0 L 129.5 -61.0 Q 125.5 -63.0 127.5 -69.0 Q 131.5 -75.0 136.5 -74.0 L 149.5 -71.0 Q 179.5 -67.0 233.5 -47.0 Q 288.5 -27.0 336.5 -2.0 Q 384.5 23.0 460.5 71.0 Q 536.5 118.0 586.5 160.0 L 654.5 216.0 L 709.5 267.0 L 722.5 278.0 L 849.5 405.0 Q 866.5 417.0 876.5 427.0 Q 886.5 436.0 896.5 441.0 Q 898.5 446.0 892.5 460.0 Q 886.5 473.0 865.5 489.0 Q 848.5 503.0 834.5 508.0 Z" fill="lightgray"></path>
      </clipPath>
      <path clip-path="url(#make-me-a-hanzi-clip-6)" d="M 818.5 500.0 L 837.5 450.0 L 749.5 346.0 L 575.5 185.0 L 469.5 106.0 L 342.5 27.0 L 234.5 -29.0 L 134.5 -67.0 " fill="none" id="make-me-a-hanzi-animation-6" stroke-dasharray="1065 2130" stroke-linecap="round"></path>

      <clipPath id="make-me-a-hanzi-clip-7">
      <path d="M 1288.0 686.0 L 1234.0 690.0 Q 1229.0 686.0 1230.0 682.0 Q 1230.0 677.0 1242.0 671.0 Q 1254.0 664.0 1265.0 632.0 L 1276.0 597.0 L 1288.0 523.0 Q 1293.0 498.0 1296.0 493.0 Q 1305.0 476.0 1316.0 480.0 Q 1319.0 484.0 1322.0 491.0 C 1328.0 504.0 1328.0 504.0 1326.0 520.0 L 1318.0 582.0 L 1314.0 604.0 L 1302.0 664.0 C 1298.0 685.0 1298.0 685.0 1288.0 686.0 Z" fill="lightgray"></path>
      </clipPath>
      <path clip-path="url(#make-me-a-hanzi-clip-7)" d="M 1238.0 683.0 L 1267.0 671.0 L 1280.0 658.0 L 1301.0 572.0 L 1312.0 489.0 " fill="none" id="make-me-a-hanzi-animation-7" stroke-dasharray="350 700" stroke-linecap="round"></path>

      <clipPath id="make-me-a-hanzi-clip-8">
      <path d="M 1470.0 506.0 L 1472.0 498.0 Q 1476.0 494.0 1477.0 492.0 L 1484.0 488.0 Q 1487.0 485.0 1494.0 487.0 Q 1501.0 488.0 1507.0 495.0 Q 1513.0 501.0 1524.0 530.0 L 1556.0 623.0 Q 1561.0 644.0 1569.0 654.0 L 1584.0 675.0 Q 1591.0 695.0 1570.0 706.0 Q 1560.0 709.0 1536.0 720.0 Q 1505.0 727.0 1492.0 727.0 Q 1479.0 727.0 1458.0 720.0 Q 1411.0 709.0 1394.0 706.0 L 1288.0 686.0 C 1259.0 680.0 1272.0 659.0 1302.0 664.0 L 1422.0 683.0 Q 1471.0 692.0 1481.0 691.0 Q 1490.0 689.0 1499.0 685.0 Q 1508.0 680.0 1504.0 662.0 L 1498.0 628.0 L 1494.0 606.0 L 1472.0 531.0 L 1470.0 506.0 Z" fill="lightgray"></path>
      </clipPath>
      <path clip-path="url(#make-me-a-hanzi-clip-8)" d="M 1296.0 684.0 L 1308.0 677.0 L 1338.0 681.0 L 1480.0 709.0 L 1507.0 705.0 L 1531.0 690.0 L 1541.0 678.0 L 1488.0 506.0 " fill="none" id="make-me-a-hanzi-animation-8" stroke-dasharray="568 1136" stroke-linecap="round"></path>

      <clipPath id="make-me-a-hanzi-clip-9">
      <path d="M 1460.0 632.0 L 1314.0 604.0 C 1285.0 598.0 1288.0 579.0 1318.0 582.0 L 1378.0 589.0 Q 1402.0 589.0 1450.0 599.0 L 1482.0 602.0 L 1494.0 606.0 C 1522.0 615.0 1525.0 616.0 1498.0 628.0 L 1484.0 634.0 Q 1481.0 635.0 1460.0 632.0 Z" fill="lightgray"></path>
      </clipPath>
      <path clip-path="url(#make-me-a-hanzi-clip-9)" d="M 1322.0 600.0 L 1328.0 595.0 L 1421.0 608.0 L 1488.0 624.0 " fill="none" id="make-me-a-hanzi-animation-9" stroke-dasharray="299 598" stroke-linecap="round"></path>

      <clipPath id="make-me-a-hanzi-clip-10">
      <path d="M 1322.0 491.0 L 1470.0 506.0 C 1500.0 509.0 1501.0 523.0 1472.0 531.0 L 1454.0 536.0 Q 1451.0 537.0 1442.0 536.0 L 1406.0 532.0 L 1326.0 520.0 C 1296.0 516.0 1292.0 488.0 1322.0 491.0 Z" fill="lightgray"></path>
      </clipPath>
      <path clip-path="url(#make-me-a-hanzi-clip-10)" d="M 1329.0 497.0 L 1348.0 509.0 L 1466.0 525.0 " fill="none" id="make-me-a-hanzi-animation-10" stroke-dasharray="270 540" stroke-linecap="round"></path>

      <clipPath id="make-me-a-hanzi-clip-11">
      <path d="M 1426.0 421.0 L 1432.0 432.0 Q 1437.0 443.0 1436.0 454.0 Q 1432.0 466.0 1421.0 472.0 Q 1410.0 477.0 1386.0 484.0 L 1374.0 488.0 Q 1366.0 490.0 1362.0 485.0 Q 1361.0 479.0 1363.0 477.0 Q 1364.0 474.0 1366.0 471.0 Q 1367.0 468.0 1370.0 463.0 L 1387.0 434.0 Q 1387.0 433.0 1402.0 418.0 C 1416.0 404.0 1416.0 404.0 1426.0 421.0 Z" fill="lightgray"></path>
      </clipPath>
      <path clip-path="url(#make-me-a-hanzi-clip-11)" d="M 1369.0 482.0 L 1410.0 448.0 L 1419.0 432.0 " fill="none" id="make-me-a-hanzi-animation-11" stroke-dasharray="200 400" stroke-linecap="round"></path>

      <clipPath id="make-me-a-hanzi-clip-12">
      <path d="M 1402.0 418.0 L 1130.0 383.0 Q 1118.0 382.0 1118.0 377.0 L 1120.0 370.0 Q 1121.0 368.0 1142.0 356.0 Q 1154.0 347.0 1174.0 349.0 L 1188.0 349.0 L 1264.0 365.0 L 1319.0 374.0 L 1400.0 385.0 L 1482.0 394.0 Q 1530.0 400.0 1548.0 401.0 L 1620.0 405.0 Q 1680.0 408.0 1684.0 412.0 L 1688.0 422.0 Q 1690.0 424.0 1684.0 427.0 L 1656.0 440.0 Q 1641.0 449.0 1631.0 451.0 Q 1620.0 452.0 1600.0 447.0 L 1426.0 421.0 L 1402.0 418.0 Z" fill="lightgray"></path>
      </clipPath>
      <path clip-path="url(#make-me-a-hanzi-clip-12)" d="M 1126.0 376.0 L 1160.0 368.0 L 1192.0 370.0 L 1321.0 392.0 L 1612.0 427.0 L 1680.0 420.0 " fill="none" id="make-me-a-hanzi-animation-12" stroke-dasharray="687 1374" stroke-linecap="round"></path>

      <clipPath id="make-me-a-hanzi-clip-13">
      <path d="M 1258.0 313.0 Q 1258.0 310.0 1260.0 308.0 L 1270.0 303.0 Q 1280.0 292.0 1284.0 286.0 Q 1287.0 280.0 1292.0 260.0 L 1304.0 209.0 L 1312.0 184.0 L 1319.0 176.0 Q 1326.0 173.0 1330.0 178.0 L 1336.0 184.0 C 1343.0 191.0 1343.0 191.0 1340.0 214.0 L 1330.0 293.0 C 1327.0 319.0 1327.0 319.0 1308.0 320.0 L 1280.0 322.0 Q 1258.0 322.0 1258.0 313.0 Z" fill="lightgray"></path>
      </clipPath>
      <path clip-path="url(#make-me-a-hanzi-clip-13)" d="M 1265.0 313.0 L 1298.0 301.0 L 1310.0 282.0 L 1323.0 186.0 " fill="none" id="make-me-a-hanzi-animation-13" stroke-dasharray="282 564" stroke-linecap="round"></path>

      <clipPath id="make-me-a-hanzi-clip-14">
      <path d="M 1516.0 218.0 L 1538.0 264.0 Q 1543.0 275.0 1564.0 296.0 Q 1570.0 300.0 1570.0 302.0 L 1572.0 307.0 Q 1573.0 316.0 1552.0 332.0 L 1526.0 349.0 Q 1513.0 355.0 1492.0 350.0 Q 1482.0 347.0 1378.0 332.0 L 1308.0 320.0 C 1278.0 315.0 1301.0 285.0 1330.0 293.0 L 1360.0 301.0 L 1398.0 308.0 L 1444.0 314.0 Q 1484.0 321.0 1490.0 307.0 Q 1494.0 304.0 1488.0 266.0 L 1482.0 226.0 C 1478.0 196.0 1503.0 191.0 1516.0 218.0 Z" fill="lightgray"></path>
      </clipPath>
      <path clip-path="url(#make-me-a-hanzi-clip-14)" d="M 1315.0 319.0 L 1336.0 309.0 L 1392.0 323.0 L 1467.0 331.0 L 1495.0 330.0 L 1517.0 321.0 L 1526.0 308.0 L 1523.0 297.0 L 1506.0 244.0 L 1489.0 232.0 " fill="none" id="make-me-a-hanzi-animation-14" stroke-dasharray="440 880" stroke-linecap="round"></path>

      <clipPath id="make-me-a-hanzi-clip-15">
      <path d="M 1336.0 184.0 L 1354.0 182.0 Q 1353.0 180.0 1365.0 182.0 Q 1376.0 184.0 1380.0 184.0 L 1424.0 188.0 L 1516.0 196.0 Q 1528.0 196.0 1528.0 203.0 Q 1529.0 205.0 1516.0 218.0 C 1506.0 228.0 1506.0 228.0 1482.0 226.0 L 1340.0 214.0 C 1310.0 211.0 1306.0 187.0 1336.0 184.0 Z" fill="lightgray"></path>
      </clipPath>
      <path clip-path="url(#make-me-a-hanzi-clip-15)" d="M 1341.0 191.0 L 1355.0 199.0 L 1484.0 210.0 L 1520.0 202.0 " fill="none" id="make-me-a-hanzi-animation-15" stroke-dasharray="310 620" stroke-linecap="round"></path>

      <clipPath id="make-me-a-hanzi-clip-16">
      <path d="M 1380.0 184.0 L 1390.0 158.0 Q 1394.0 139.0 1394.0 99.0 L 1394.0 52.0 Q 1394.0 6.0 1382.0 3.0 Q 1376.0 -2.0 1354.0 6.0 L 1330.0 10.0 L 1316.0 11.0 L 1316.0 6.0 L 1328.0 -6.0 L 1344.0 -19.0 Q 1349.0 -22.0 1360.0 -34.0 L 1376.0 -62.0 Q 1382.0 -70.0 1388.0 -71.0 Q 1393.0 -73.0 1401.0 -71.0 Q 1408.0 -69.0 1429.0 -41.0 Q 1442.0 -24.0 1442.0 33.0 L 1442.0 92.0 L 1444.0 118.0 L 1451.0 144.0 Q 1456.0 156.0 1454.0 165.0 Q 1452.0 175.0 1424.0 188.0 C 1397.0 201.0 1369.0 212.0 1380.0 184.0 Z" fill="lightgray"></path>
      </clipPath>
      <path clip-path="url(#make-me-a-hanzi-clip-16)" d="M 1388.0 180.0 L 1422.0 154.0 L 1417.0 20.0 L 1411.0 -9.0 L 1397.0 -28.0 L 1323.0 9.0 " fill="none" id="make-me-a-hanzi-animation-16" stroke-dasharray="441 882" stroke-linecap="round"></path>

      <clipPath id="make-me-a-hanzi-clip-17">
      <path d="M 1298.0 133.0 L 1298.0 145.0 Q 1297.0 150.0 1292.0 152.0 Q 1289.0 153.0 1283.0 146.0 L 1244.0 106.0 L 1214.0 80.0 Q 1211.0 77.0 1205.0 73.0 Q 1199.0 69.0 1195.0 60.0 Q 1180.0 20.0 1201.0 10.0 Q 1209.0 7.0 1220.0 12.0 Q 1248.0 18.0 1275.0 58.0 Q 1298.0 97.0 1298.0 133.0 Z" fill="lightgray"></path>
      </clipPath>
      <path clip-path="url(#make-me-a-hanzi-clip-17)" d="M 1290.0 145.0 L 1264.0 90.0 L 1207.0 26.0 " fill="none" id="make-me-a-hanzi-animation-17" stroke-dasharray="275 550" stroke-linecap="round"></path>

      <clipPath id="make-me-a-hanzi-clip-18">
      <path d="M 1618.0 70.0 L 1613.0 98.0 Q 1613.0 105.0 1594.0 121.0 L 1554.0 143.0 L 1526.0 156.0 Q 1501.0 162.0 1498.0 159.0 L 1500.0 152.0 L 1538.0 99.0 Q 1553.0 81.0 1566.0 63.0 Q 1578.0 44.0 1586.0 40.0 Q 1604.0 33.0 1612.0 51.0 Q 1618.0 58.0 1618.0 70.0 Z" fill="lightgray"></path>
      </clipPath>
      <path clip-path="url(#make-me-a-hanzi-clip-18)" d="M 1503.0 157.0 L 1581.0 93.0 L 1595.0 56.0 " fill="none" id="make-me-a-hanzi-animation-18" stroke-dasharray="268 536" stroke-linecap="round"></path>

      <clipPath id="make-me-a-hanzi-clip-19">
      <path d="M 1884.0 680.0 L 1888.0 686.0 L 1886.0 694.0 Q 1887.0 698.0 1868.0 717.0 L 1852.0 731.0 Q 1841.0 740.0 1832.0 742.0 Q 1812.0 749.0 1812.0 725.0 Q 1812.0 720.0 1804.0 693.0 L 1792.0 672.0 L 1778.0 642.0 Q 1751.0 601.0 1733.0 582.0 L 1684.0 527.0 L 1650.0 496.0 Q 1648.0 489.0 1649.0 487.0 Q 1649.0 485.0 1668.0 492.0 L 1690.0 502.0 Q 1717.0 513.0 1731.0 526.0 Q 1745.0 538.0 1760.0 549.0 L 1866.0 666.0 L 1884.0 680.0 Z" fill="lightgray"></path>
      </clipPath>
      <path clip-path="url(#make-me-a-hanzi-clip-19)" d="M 1825.0 730.0 L 1840.0 691.0 L 1800.0 630.0 L 1706.0 526.0 L 1651.0 491.0 " fill="none" id="make-me-a-hanzi-animation-19" stroke-dasharray="448 896" stroke-linecap="round"></path>

      <clipPath id="make-me-a-hanzi-clip-20">
      <path d="M 1826.0 366.0 L 1856.0 396.0 L 1874.0 416.0 L 1888.0 429.0 L 1900.0 434.0 Q 1904.0 439.0 1904.0 452.0 Q 1904.0 464.0 1893.0 471.0 Q 1882.0 478.0 1872.0 488.0 Q 1849.0 506.0 1840.0 505.0 Q 1831.0 503.0 1830.0 499.0 Q 1826.0 495.0 1826.0 483.0 L 1826.0 471.0 Q 1827.0 467.0 1819.0 446.0 L 1782.0 393.0 Q 1756.0 358.0 1724.0 326.0 L 1690.0 294.0 L 1644.0 259.0 Q 1642.0 254.0 1644.0 249.0 Q 1645.0 244.0 1664.0 254.0 L 1700.0 270.0 Q 1731.0 286.0 1783.0 324.0 Q 1801.0 336.0 1826.0 366.0 Z" fill="lightgray"></path>
      </clipPath>
      <path clip-path="url(#make-me-a-hanzi-clip-20)" d="M 1841.0 491.0 L 1859.0 451.0 L 1831.0 411.0 L 1751.0 324.0 L 1648.0 254.0 " fill="none" id="make-me-a-hanzi-animation-20" stroke-dasharray="463 926" stroke-linecap="round"></path>

      <clipPath id="make-me-a-hanzi-clip-21">
      <path d="M 1604.0 -28.0 L 1580.0 -44.0 Q 1567.0 -54.0 1568.0 -58.0 Q 1569.0 -70.0 1596.0 -60.0 L 1618.0 -50.0 Q 1650.0 -37.0 1688.0 -16.0 Q 1732.0 11.0 1754.0 29.0 Q 1814.0 72.0 1861.0 128.0 L 1920.0 197.0 Q 1930.0 208.0 1936.0 212.0 L 1945.0 218.0 Q 1954.0 223.0 1954.0 229.0 Q 1954.0 235.0 1948.0 248.0 Q 1942.0 260.0 1932.0 266.0 Q 1927.0 270.0 1910.0 279.0 Q 1893.0 288.0 1886.0 290.0 Q 1872.0 290.0 1870.0 281.0 L 1868.0 254.0 Q 1867.0 246.0 1856.0 225.0 Q 1844.0 204.0 1834.0 193.0 L 1762.0 101.0 L 1721.0 59.0 Q 1680.0 21.0 1604.0 -28.0 Z" fill="lightgray"></path>
      </clipPath>
      <path clip-path="url(#make-me-a-hanzi-clip-21)" d="M 1883.0 277.0 L 1904.0 237.0 L 1797.0 100.0 L 1747.0 51.0 L 1687.0 5.0 L 1575.0 -58.0 " fill="none" id="make-me-a-hanzi-animation-21" stroke-dasharray="621 1242" stroke-linecap="round"></path>

</g>
</svg>
