<svg version="1.1" viewBox="0 0 2048 1024" xmlns="http://www.w3.org/2000/svg">
  <g stroke="lightgray" stroke-dasharray="1,1" stroke-width="1" transform="scale(4, 4)">
    <line x1="0" y1="0" x2="256" y2="256"></line>
    <line x1="256" y1="0" x2="0" y2="256"></line>
    <line x1="128" y1="0" x2="128" y2="256"></line>
    <line x1="0" y1="128" x2="256" y2="128"></line>
    <line x1="256" y1="0" x2="512" y2="256"></line>
    <line x1="512" y1="0" x2="256" y2="256"></line>
    <line x1="384" y1="0" x2="384" y2="256"></line>
    <line x1="256" y1="128" x2="512" y2="128"></line>
  </g>
<g transform="scale(1, -1) translate(0, -850)">
   <style type="text/css">
    @keyframes keyframes0 {
      from {
       stroke: black;
       stroke-dashoffset: 552;
       stroke-width: 128;
       }
       64% {
       animation-timing-function: step-end;
       stroke: black;
       stroke-dashoffset: 0;
       stroke-width: 128;
       }
       to {
       stroke: black;
       stroke-width: 1024;
       }
       }
       #make-me-a-hanzi-animation-0 {
         animation: keyframes0 0.699219s both;
         animation-delay: 0.000000s;
         animation-timing-function: linear;
       }
    @keyframes keyframes1 {
      from {
       stroke: black;
       stroke-dashoffset: 950;
       stroke-width: 128;
       }
       76% {
       animation-timing-function: step-end;
       stroke: black;
       stroke-dashoffset: 0;
       stroke-width: 128;
       }
       to {
       stroke: black;
       stroke-width: 1024;
       }
       }
       #make-me-a-hanzi-animation-1 {
         animation: keyframes1 1.023112s both;
         animation-delay: 0.699219s;
         animation-timing-function: linear;
       }
    @keyframes keyframes2 {
      from {
       stroke: black;
       stroke-dashoffset: 804;
       stroke-width: 128;
       }
       72% {
       animation-timing-function: step-end;
       stroke: black;
       stroke-dashoffset: 0;
       stroke-width: 128;
       }
       to {
       stroke: black;
       stroke-width: 1024;
       }
       }
       #make-me-a-hanzi-animation-2 {
         animation: keyframes2 0.904297s both;
         animation-delay: 1.722331s;
         animation-timing-function: linear;
       }
    @keyframes keyframes3 {
      from {
       stroke: black;
       stroke-dashoffset: 622;
       stroke-width: 128;
       }
       67% {
       animation-timing-function: step-end;
       stroke: black;
       stroke-dashoffset: 0;
       stroke-width: 128;
       }
       to {
       stroke: black;
       stroke-width: 1024;
       }
       }
       #make-me-a-hanzi-animation-3 {
         animation: keyframes3 0.756185s both;
         animation-delay: 2.626628s;
         animation-timing-function: linear;
       }
    @keyframes keyframes4 {
      from {
       stroke: black;
       stroke-dashoffset: 562;
       stroke-width: 128;
       }
       65% {
       animation-timing-function: step-end;
       stroke: black;
       stroke-dashoffset: 0;
       stroke-width: 128;
       }
       to {
       stroke: black;
       stroke-width: 1024;
       }
       }
       #make-me-a-hanzi-animation-4 {
         animation: keyframes4 0.707357s both;
         animation-delay: 3.382813s;
         animation-timing-function: linear;
       }
    @keyframes keyframes5 {
      from {
       stroke: black;
       stroke-dashoffset: 740;
       stroke-width: 128;
       }
       71% {
       animation-timing-function: step-end;
       stroke: black;
       stroke-dashoffset: 0;
       stroke-width: 128;
       }
       to {
       stroke: black;
       stroke-width: 1024;
       }
       }
       #make-me-a-hanzi-animation-5 {
         animation: keyframes5 0.852214s both;
         animation-delay: 4.090169s;
         animation-timing-function: linear;
       }
    @keyframes keyframes6 {
      from {
       stroke: black;
       stroke-dashoffset: 1250;
       stroke-width: 128;
       }
       80% {
       animation-timing-function: step-end;
       stroke: black;
       stroke-dashoffset: 0;
       stroke-width: 128;
       }
       to {
       stroke: black;
       stroke-width: 1024;
       }
       }
       #make-me-a-hanzi-animation-6 {
         animation: keyframes6 1.267253s both;
         animation-delay: 4.942383s;
         animation-timing-function: linear;
       }
    @keyframes keyframes7 {
      from {
       stroke: black;
       stroke-dashoffset: 511;
       stroke-width: 128;
       }
       62% {
       animation-timing-function: step-end;
       stroke: black;
       stroke-dashoffset: 0;
       stroke-width: 128;
       }
       to {
       stroke: black;
       stroke-width: 1024;
       }
       }
       #make-me-a-hanzi-animation-7 {
         animation: keyframes7 0.665853s both;
         animation-delay: 6.209635s;
         animation-timing-function: linear;
       }
    @keyframes keyframes8 {
      from {
       stroke: black;
       stroke-dashoffset: 517;
       stroke-width: 128;
       }
       63% {
       animation-timing-function: step-end;
       stroke: black;
       stroke-dashoffset: 0;
       stroke-width: 128;
       }
       to {
       stroke: black;
       stroke-width: 1024;
       }
       }
       #make-me-a-hanzi-animation-8 {
         animation: keyframes8 0.670736s both;
         animation-delay: 6.875488s;
         animation-timing-function: linear;
       }
    @keyframes keyframes9 {
      from {
       stroke: black;
       stroke-dashoffset: 640;
       stroke-width: 128;
       }
       68% {
       animation-timing-function: step-end;
       stroke: black;
       stroke-dashoffset: 0;
       stroke-width: 128;
       }
       to {
       stroke: black;
       stroke-width: 1024;
       }
       }
       #make-me-a-hanzi-animation-9 {
         animation: keyframes9 0.770833s both;
         animation-delay: 7.546224s;
         animation-timing-function: linear;
       }
    @keyframes keyframes10 {
      from {
       stroke: black;
       stroke-dashoffset: 748;
       stroke-width: 128;
       }
       71% {
       animation-timing-function: step-end;
       stroke: black;
       stroke-dashoffset: 0;
       stroke-width: 128;
       }
       to {
       stroke: black;
       stroke-width: 1024;
       }
       }
       #make-me-a-hanzi-animation-10 {
         animation: keyframes10 0.858724s both;
         animation-delay: 8.317057s;
         animation-timing-function: linear;
       }
    @keyframes keyframes11 {
      from {
       stroke: black;
       stroke-dashoffset: 410;
       stroke-width: 128;
       }
       57% {
       animation-timing-function: step-end;
       stroke: black;
       stroke-dashoffset: 0;
       stroke-width: 128;
       }
       to {
       stroke: black;
       stroke-width: 1024;
       }
       }
       #make-me-a-hanzi-animation-11 {
         animation: keyframes11 0.583659s both;
         animation-delay: 9.175781s;
         animation-timing-function: linear;
       }
    @keyframes keyframes12 {
      from {
       stroke: black;
       stroke-dashoffset: 1189;
       stroke-width: 128;
       }
       79% {
       animation-timing-function: step-end;
       stroke: black;
       stroke-dashoffset: 0;
       stroke-width: 128;
       }
       to {
       stroke: black;
       stroke-width: 1024;
       }
       }
       #make-me-a-hanzi-animation-12 {
         animation: keyframes12 1.217611s both;
         animation-delay: 9.759440s;
         animation-timing-function: linear;
       }
    @keyframes keyframes13 {
      from {
       stroke: black;
       stroke-dashoffset: 1074;
       stroke-width: 128;
       }
       78% {
       animation-timing-function: step-end;
       stroke: black;
       stroke-dashoffset: 0;
       stroke-width: 128;
       }
       to {
       stroke: black;
       stroke-width: 1024;
       }
       }
       #make-me-a-hanzi-animation-13 {
         animation: keyframes13 1.124023s both;
         animation-delay: 10.977051s;
         animation-timing-function: linear;
       }
</style>
<path d="M 278 549 Q 435 589 440 593 Q 449 602 444 610 Q 437 622 406 628 Q 375 632 345 620 Q 323 613 302 604 L 249 589 Q 203 579 152 572 Q 115 565 143 549 Q 179 531 232 538 L 278 549 Z" fill="lightgray"></path> 
<path d="M 356 354 Q 381 360 408 362 Q 436 365 428 378 Q 418 391 402 397 Q 384 403 359 391 L 312 378 Q 272 369 223 358 Q 210 355 208 358 Q 207 359 208 371 Q 236 452 278 549 L 302 604 Q 332 674 347 686 Q 359 699 343 718 Q 318 743 297 756 Q 284 763 274 761 Q 267 757 272 735 Q 281 708 249 589 L 232 538 Q 231 535 230 530 Q 179 395 141 356 Q 126 340 131 325 Q 138 306 149 295 Q 159 286 169 291 Q 203 312 289 337 Q 299 341 312 343 L 356 354 Z" fill="lightgray"></path> 
<path d="M 304 194 Q 289 55 283 41 Q 274 4 305 -46 Q 315 -64 324 -68 Q 334 -69 340 -57 Q 353 -26 350 3 Q 350 117 351 216 L 352 250 Q 352 286 356 354 L 359 391 Q 360 425 365 443 Q 368 455 361 461 Q 339 480 321 491 Q 309 495 300 488 Q 294 484 301 474 Q 310 458 312 378 L 312 343 Q 311 300 308 246 Q 307 242 307 235 L 304 194 Z" fill="lightgray"></path> 
<path d="M 351 216 Q 361 222 373 227 Q 398 239 417 253 Q 430 260 430 270 Q 424 276 412 272 Q 382 262 352 250 L 307 235 Q 121 174 85 173 Q 72 172 70 161 Q 69 148 78 140 Q 100 124 134 107 Q 144 104 156 113 Q 198 146 304 194 L 351 216 Z" fill="lightgray"></path> 
<path d="M 632 500 Q 693 516 755 530 Q 794 540 800 547 Q 807 554 803 563 Q 796 573 768 580 Q 738 584 710 572 Q 676 560 641 548 L 596 535 Q 550 525 500 518 Q 464 511 491 496 Q 530 472 585 489 Q 586 490 590 490 L 632 500 Z" fill="lightgray"></path> 
<path d="M 601 343 Q 701 374 896 374 Q 917 374 921 384 Q 925 396 909 408 Q 852 445 794 426 Q 701 405 609 384 L 568 376 Q 504 366 435 352 Q 414 349 431 333 Q 444 320 462 316 Q 471 315 557 334 L 601 343 Z" fill="lightgray"></path> 
<path d="M 670 49 Q 704 86 774 174 Q 804 210 823 218 Q 844 228 845 238 Q 845 248 830 261 Q 809 279 787 290 Q 763 300 728 283 Q 655 261 606 256 Q 584 250 588 275 Q 594 309 601 343 L 609 384 Q 619 442 632 500 L 641 548 Q 666 686 685 708 Q 697 723 678 736 Q 656 752 614 767 Q 598 773 591 765 Q 582 758 596 738 Q 617 707 596 535 L 590 490 Q 583 438 568 376 L 557 334 Q 548 286 524 260 Q 500 233 522 196 Q 529 186 547 198 Q 601 234 719 246 Q 741 247 741 244 Q 740 240 738 234 Q 684 126 652 62 C 639 35 650 27 670 49 Z" fill="lightgray"></path> 
<path d="M 652 62 Q 636 78 557 125 Q 550 129 547 119 Q 546 107 554 97 Q 617 30 691 -66 Q 704 -85 717 -90 Q 724 -91 733 -84 Q 746 -72 737 -32 Q 731 5 670 49 L 652 62 Z" fill="lightgray"></path> 
<path d="M 1266 568 Q 1226 561 1255 542 Q 1303 515 1366 532 L 1490 559 Q 1518 566 1523 570 Q 1533 579 1528 589 Q 1519 602 1486 609 Q 1452 616 1418 601 Q 1387 591 1351 581 Q 1312 572 1266 568 Z" fill="lightgray"></path> 
<path d="M 1367 371 Q 1425 383 1499 392 Q 1517 393 1517 402 Q 1518 415 1500 425 Q 1472 438 1449 432 Q 1211 383 1134 378 Q 1121 377 1117 369 Q 1114 357 1129 346 Q 1171 318 1213 330 Q 1264 346 1307 357 L 1367 371 Z" fill="lightgray"></path> 
<path d="M 1463 210 Q 1376 189 1284 163 Q 1277 162 1276 163 Q 1273 166 1279 174 Q 1349 306 1380 342 Q 1392 355 1382 364 Q 1376 368 1367 371 C 1340 384 1300 386 1307 357 Q 1308 356 1309 351 Q 1322 308 1256 202 Q 1237 171 1196 140 Q 1171 127 1172 117 Q 1173 101 1184 83 Q 1196 65 1209 62 Q 1216 61 1226 66 Q 1275 111 1470 192 Q 1470 193 1472 193 C 1500 205 1492 217 1463 210 Z" fill="lightgray"></path> 
<path d="M 1472 193 Q 1497 147 1509 141 Q 1518 140 1525 147 Q 1534 157 1535 183 Q 1538 205 1513 235 Q 1485 260 1453 285 Q 1443 292 1437 292 Q 1431 291 1429 281 Q 1429 275 1463 210 L 1472 193 Z" fill="lightgray"></path> 
<path d="M 1712 393 Q 1764 409 1818 417 Q 1833 418 1836 411 Q 1843 396 1840 354 Q 1828 203 1799 122 Q 1784 73 1767 56 Q 1755 43 1729 51 Q 1690 63 1656 75 Q 1632 82 1649 60 Q 1698 8 1726 -32 Q 1736 -54 1759 -48 Q 1778 -45 1801 -20 Q 1868 49 1896 311 Q 1902 369 1924 403 Q 1940 425 1932 435 Q 1916 454 1880 469 Q 1855 482 1828 469 Q 1782 447 1720 429 L 1658 414 Q 1588 399 1546 397 Q 1527 398 1527 388 Q 1526 378 1548 366 Q 1575 350 1598 359 Q 1622 368 1649 375 L 1712 393 Z" fill="lightgray"></path> 
<path d="M 1649 375 Q 1604 195 1513 67 Q 1486 24 1457 -17 Q 1451 -24 1449 -30 Q 1445 -43 1457 -41 Q 1493 -35 1586 92 L 1625 157 Q 1670 245 1712 393 L 1720 429 Q 1738 576 1758 635 Q 1758 641 1761 646 Q 1771 662 1765 677 Q 1747 696 1713 714 Q 1692 727 1678 722 Q 1665 715 1671 699 Q 1689 674 1685 603 Q 1682 585 1681 563 Q 1672 485 1658 414 L 1649 375 Z" fill="lightgray"></path> 
      <clipPath id="make-me-a-hanzi-clip-0">
      <path d="M 278 549 Q 435 589 440 593 Q 449 602 444 610 Q 437 622 406 628 Q 375 632 345 620 Q 323 613 302 604 L 249 589 Q 203 579 152 572 Q 115 565 143 549 Q 179 531 232 538 L 278 549 Z" fill="lightgray"></path>
      </clipPath>
      <path clip-path="url(#make-me-a-hanzi-clip-0)" d="M 144 562 L 206 558 L 286 573 L 385 604 L 434 603 " fill="none" id="make-me-a-hanzi-animation-0" stroke-dasharray="424 848" stroke-linecap="round"></path>

      <clipPath id="make-me-a-hanzi-clip-1">
      <path d="M 356 354 Q 381 360 408 362 Q 436 365 428 378 Q 418 391 402 397 Q 384 403 359 391 L 312 378 Q 272 369 223 358 Q 210 355 208 358 Q 207 359 208 371 Q 236 452 278 549 L 302 604 Q 332 674 347 686 Q 359 699 343 718 Q 318 743 297 756 Q 284 763 274 761 Q 267 757 272 735 Q 281 708 249 589 L 232 538 Q 231 535 230 530 Q 179 395 141 356 Q 126 340 131 325 Q 138 306 149 295 Q 159 286 169 291 Q 203 312 289 337 Q 299 341 312 343 L 356 354 Z" fill="lightgray"></path>
      </clipPath>
      <path clip-path="url(#make-me-a-hanzi-clip-1)" d="M 279 753 L 299 725 L 309 697 L 239 500 L 183 371 L 177 337 L 224 337 L 373 377 L 393 380 L 416 374 " fill="none" id="make-me-a-hanzi-animation-1" stroke-dasharray="822 1644" stroke-linecap="round"></path>

      <clipPath id="make-me-a-hanzi-clip-2">
      <path d="M 304 194 Q 289 55 283 41 Q 274 4 305 -46 Q 315 -64 324 -68 Q 334 -69 340 -57 Q 353 -26 350 3 Q 350 117 351 216 L 352 250 Q 352 286 356 354 L 359 391 Q 360 425 365 443 Q 368 455 361 461 Q 339 480 321 491 Q 309 495 300 488 Q 294 484 301 474 Q 310 458 312 378 L 312 343 Q 311 300 308 246 Q 307 242 307 235 L 304 194 Z" fill="lightgray"></path>
      </clipPath>
      <path clip-path="url(#make-me-a-hanzi-clip-2)" d="M 309 482 L 336 444 L 330 234 L 315 22 L 326 -56 " fill="none" id="make-me-a-hanzi-animation-2" stroke-dasharray="676 1352" stroke-linecap="round"></path>

      <clipPath id="make-me-a-hanzi-clip-3">
      <path d="M 351 216 Q 361 222 373 227 Q 398 239 417 253 Q 430 260 430 270 Q 424 276 412 272 Q 382 262 352 250 L 307 235 Q 121 174 85 173 Q 72 172 70 161 Q 69 148 78 140 Q 100 124 134 107 Q 144 104 156 113 Q 198 146 304 194 L 351 216 Z" fill="lightgray"></path>
      </clipPath>
      <path clip-path="url(#make-me-a-hanzi-clip-3)" d="M 84 159 L 139 146 L 424 267 " fill="none" id="make-me-a-hanzi-animation-3" stroke-dasharray="494 988" stroke-linecap="round"></path>

      <clipPath id="make-me-a-hanzi-clip-4">
      <path d="M 632 500 Q 693 516 755 530 Q 794 540 800 547 Q 807 554 803 563 Q 796 573 768 580 Q 738 584 710 572 Q 676 560 641 548 L 596 535 Q 550 525 500 518 Q 464 511 491 496 Q 530 472 585 489 Q 586 490 590 490 L 632 500 Z" fill="lightgray"></path>
      </clipPath>
      <path clip-path="url(#make-me-a-hanzi-clip-4)" d="M 492 508 L 517 502 L 567 507 L 737 553 L 791 557 " fill="none" id="make-me-a-hanzi-animation-4" stroke-dasharray="434 868" stroke-linecap="round"></path>

      <clipPath id="make-me-a-hanzi-clip-5">
      <path d="M 601 343 Q 701 374 896 374 Q 917 374 921 384 Q 925 396 909 408 Q 852 445 794 426 Q 701 405 609 384 L 568 376 Q 504 366 435 352 Q 414 349 431 333 Q 444 320 462 316 Q 471 315 557 334 L 601 343 Z" fill="lightgray"></path>
      </clipPath>
      <path clip-path="url(#make-me-a-hanzi-clip-5)" d="M 433 343 L 454 337 L 487 340 L 713 387 L 820 402 L 853 402 L 909 389 " fill="none" id="make-me-a-hanzi-animation-5" stroke-dasharray="612 1224" stroke-linecap="round"></path>

      <clipPath id="make-me-a-hanzi-clip-6">
      <path d="M 670 49 Q 704 86 774 174 Q 804 210 823 218 Q 844 228 845 238 Q 845 248 830 261 Q 809 279 787 290 Q 763 300 728 283 Q 655 261 606 256 Q 584 250 588 275 Q 594 309 601 343 L 609 384 Q 619 442 632 500 L 641 548 Q 666 686 685 708 Q 697 723 678 736 Q 656 752 614 767 Q 598 773 591 765 Q 582 758 596 738 Q 617 707 596 535 L 590 490 Q 583 438 568 376 L 557 334 Q 548 286 524 260 Q 500 233 522 196 Q 529 186 547 198 Q 601 234 719 246 Q 741 247 741 244 Q 740 240 738 234 Q 684 126 652 62 C 639 35 650 27 670 49 Z" fill="lightgray"></path>
      </clipPath>
      <path clip-path="url(#make-me-a-hanzi-clip-6)" d="M 601 756 L 643 713 L 606 467 L 558 244 L 606 240 L 746 267 L 772 259 L 783 243 L 671 72 L 669 57 " fill="none" id="make-me-a-hanzi-animation-6" stroke-dasharray="1122 2244" stroke-linecap="round"></path>

      <clipPath id="make-me-a-hanzi-clip-7">
      <path d="M 652 62 Q 636 78 557 125 Q 550 129 547 119 Q 546 107 554 97 Q 617 30 691 -66 Q 704 -85 717 -90 Q 724 -91 733 -84 Q 746 -72 737 -32 Q 731 5 670 49 L 652 62 Z" fill="lightgray"></path>
      </clipPath>
      <path clip-path="url(#make-me-a-hanzi-clip-7)" d="M 557 114 L 684 -4 L 712 -46 L 719 -76 " fill="none" id="make-me-a-hanzi-animation-7" stroke-dasharray="383 766" stroke-linecap="round"></path>

      <clipPath id="make-me-a-hanzi-clip-8">
      <path d="M 1266 568 Q 1226 561 1255 542 Q 1303 515 1366 532 L 1490 559 Q 1518 566 1523 570 Q 1533 579 1528 589 Q 1519 602 1486 609 Q 1452 616 1418 601 Q 1387 591 1351 581 Q 1312 572 1266 568 Z" fill="lightgray"></path>
      </clipPath>
      <path clip-path="url(#make-me-a-hanzi-clip-8)" d="M 1258 556 L 1321 550 L 1455 582 L 1515 582 " fill="none" id="make-me-a-hanzi-animation-8" stroke-dasharray="389 778" stroke-linecap="round"></path>

      <clipPath id="make-me-a-hanzi-clip-9">
      <path d="M 1367 371 Q 1425 383 1499 392 Q 1517 393 1517 402 Q 1518 415 1500 425 Q 1472 438 1449 432 Q 1211 383 1134 378 Q 1121 377 1117 369 Q 1114 357 1129 346 Q 1171 318 1213 330 Q 1264 346 1307 357 L 1367 371 Z" fill="lightgray"></path>
      </clipPath>
      <path clip-path="url(#make-me-a-hanzi-clip-9)" d="M 1128 364 L 1191 355 L 1418 405 L 1466 411 L 1505 405 " fill="none" id="make-me-a-hanzi-animation-9" stroke-dasharray="512 1024" stroke-linecap="round"></path>

      <clipPath id="make-me-a-hanzi-clip-10">
      <path d="M 1463 210 Q 1376 189 1284 163 Q 1277 162 1276 163 Q 1273 166 1279 174 Q 1349 306 1380 342 Q 1392 355 1382 364 Q 1376 368 1367 371 C 1340 384 1300 386 1307 357 Q 1308 356 1309 351 Q 1322 308 1256 202 Q 1237 171 1196 140 Q 1171 127 1172 117 Q 1173 101 1184 83 Q 1196 65 1209 62 Q 1216 61 1226 66 Q 1275 111 1470 192 Q 1470 193 1472 193 C 1500 205 1492 217 1463 210 Z" fill="lightgray"></path>
      </clipPath>
      <path clip-path="url(#make-me-a-hanzi-clip-10)" d="M 1373 354 L 1339 335 L 1316 277 L 1253 161 L 1250 132 L 1280 135 L 1444 195 L 1469 197 " fill="none" id="make-me-a-hanzi-animation-10" stroke-dasharray="620 1240" stroke-linecap="round"></path>

      <clipPath id="make-me-a-hanzi-clip-11">
      <path d="M 1472 193 Q 1497 147 1509 141 Q 1518 140 1525 147 Q 1534 157 1535 183 Q 1538 205 1513 235 Q 1485 260 1453 285 Q 1443 292 1437 292 Q 1431 291 1429 281 Q 1429 275 1463 210 L 1472 193 Z" fill="lightgray"></path>
      </clipPath>
      <path clip-path="url(#make-me-a-hanzi-clip-11)" d="M 1438 283 L 1496 211 L 1510 178 L 1512 152 " fill="none" id="make-me-a-hanzi-animation-11" stroke-dasharray="282 564" stroke-linecap="round"></path>

      <clipPath id="make-me-a-hanzi-clip-12">
      <path d="M 1712 393 Q 1764 409 1818 417 Q 1833 418 1836 411 Q 1843 396 1840 354 Q 1828 203 1799 122 Q 1784 73 1767 56 Q 1755 43 1729 51 Q 1690 63 1656 75 Q 1632 82 1649 60 Q 1698 8 1726 -32 Q 1736 -54 1759 -48 Q 1778 -45 1801 -20 Q 1868 49 1896 311 Q 1902 369 1924 403 Q 1940 425 1932 435 Q 1916 454 1880 469 Q 1855 482 1828 469 Q 1782 447 1720 429 L 1658 414 Q 1588 399 1546 397 Q 1527 398 1527 388 Q 1526 378 1548 366 Q 1575 350 1598 359 Q 1622 368 1649 375 L 1712 393 Z" fill="lightgray"></path>
      </clipPath>
      <path clip-path="url(#make-me-a-hanzi-clip-12)" d="M 1537 386 L 1587 379 L 1833 443 L 1861 438 L 1881 419 L 1851 197 L 1835 128 L 1798 37 L 1778 15 L 1757 4 L 1649 69 " fill="none" id="make-me-a-hanzi-animation-12" stroke-dasharray="1061 2122" stroke-linecap="round"></path>

      <clipPath id="make-me-a-hanzi-clip-13">
      <path d="M 1649 375 Q 1604 195 1513 67 Q 1486 24 1457 -17 Q 1451 -24 1449 -30 Q 1445 -43 1457 -41 Q 1493 -35 1586 92 L 1625 157 Q 1670 245 1712 393 L 1720 429 Q 1738 576 1758 635 Q 1758 641 1761 646 Q 1771 662 1765 677 Q 1747 696 1713 714 Q 1692 727 1678 722 Q 1665 715 1671 699 Q 1689 674 1685 603 Q 1682 585 1681 563 Q 1672 485 1658 414 L 1649 375 Z" fill="lightgray"></path>
      </clipPath>
      <path clip-path="url(#make-me-a-hanzi-clip-13)" d="M 1685 707 L 1724 661 L 1693 443 L 1668 339 L 1611 185 L 1561 95 L 1500 13 L 1458 -32 " fill="none" id="make-me-a-hanzi-animation-13" stroke-dasharray="946 1892" stroke-linecap="round"></path>

</g>
</svg>
