<svg version="1.1" viewBox="0 0 2048 1024" xmlns="http://www.w3.org/2000/svg">
  <g stroke="lightgray" stroke-dasharray="1,1" stroke-width="1" transform="scale(4, 4)">
    <line x1="0" y1="0" x2="256" y2="256"></line>
    <line x1="256" y1="0" x2="0" y2="256"></line>
    <line x1="128" y1="0" x2="128" y2="256"></line>
    <line x1="0" y1="128" x2="256" y2="128"></line>
    <line x1="256" y1="0" x2="512" y2="256"></line>
    <line x1="512" y1="0" x2="256" y2="256"></line>
    <line x1="384" y1="0" x2="384" y2="256"></line>
    <line x1="256" y1="128" x2="512" y2="128"></line>
  </g>
<g transform="scale(1, -1) translate(0, -850)">
   <style type="text/css">
    @keyframes keyframes0 {
      from {
       stroke: black;
       stroke-dashoffset: 543;
       stroke-width: 128;
       }
       64% {
       animation-timing-function: step-end;
       stroke: black;
       stroke-dashoffset: 0;
       stroke-width: 128;
       }
       to {
       stroke: black;
       stroke-width: 1024;
       }
       }
       #make-me-a-hanzi-animation-0 {
         animation: keyframes0 0.691895s both;
         animation-delay: 0.000000s;
         animation-timing-function: linear;
       }
    @keyframes keyframes1 {
      from {
       stroke: black;
       stroke-dashoffset: 998;
       stroke-width: 128;
       }
       76% {
       animation-timing-function: step-end;
       stroke: black;
       stroke-dashoffset: 0;
       stroke-width: 128;
       }
       to {
       stroke: black;
       stroke-width: 1024;
       }
       }
       #make-me-a-hanzi-animation-1 {
         animation: keyframes1 1.062174s both;
         animation-delay: 0.691895s;
         animation-timing-function: linear;
       }
    @keyframes keyframes2 {
      from {
       stroke: black;
       stroke-dashoffset: 760;
       stroke-width: 128;
       }
       71% {
       animation-timing-function: step-end;
       stroke: black;
       stroke-dashoffset: 0;
       stroke-width: 128;
       }
       to {
       stroke: black;
       stroke-width: 1024;
       }
       }
       #make-me-a-hanzi-animation-2 {
         animation: keyframes2 0.868490s both;
         animation-delay: 1.754069s;
         animation-timing-function: linear;
       }
    @keyframes keyframes3 {
      from {
       stroke: black;
       stroke-dashoffset: 646;
       stroke-width: 128;
       }
       68% {
       animation-timing-function: step-end;
       stroke: black;
       stroke-dashoffset: 0;
       stroke-width: 128;
       }
       to {
       stroke: black;
       stroke-width: 1024;
       }
       }
       #make-me-a-hanzi-animation-3 {
         animation: keyframes3 0.775716s both;
         animation-delay: 2.622559s;
         animation-timing-function: linear;
       }
    @keyframes keyframes4 {
      from {
       stroke: black;
       stroke-dashoffset: 906;
       stroke-width: 128;
       }
       75% {
       animation-timing-function: step-end;
       stroke: black;
       stroke-dashoffset: 0;
       stroke-width: 128;
       }
       to {
       stroke: black;
       stroke-width: 1024;
       }
       }
       #make-me-a-hanzi-animation-4 {
         animation: keyframes4 0.987305s both;
         animation-delay: 3.398275s;
         animation-timing-function: linear;
       }
    @keyframes keyframes5 {
      from {
       stroke: black;
       stroke-dashoffset: 464;
       stroke-width: 128;
       }
       60% {
       animation-timing-function: step-end;
       stroke: black;
       stroke-dashoffset: 0;
       stroke-width: 128;
       }
       to {
       stroke: black;
       stroke-width: 1024;
       }
       }
       #make-me-a-hanzi-animation-5 {
         animation: keyframes5 0.627604s both;
         animation-delay: 4.385580s;
         animation-timing-function: linear;
       }
    @keyframes keyframes6 {
      from {
       stroke: black;
       stroke-dashoffset: 547;
       stroke-width: 128;
       }
       64% {
       animation-timing-function: step-end;
       stroke: black;
       stroke-dashoffset: 0;
       stroke-width: 128;
       }
       to {
       stroke: black;
       stroke-width: 1024;
       }
       }
       #make-me-a-hanzi-animation-6 {
         animation: keyframes6 0.695150s both;
         animation-delay: 5.013184s;
         animation-timing-function: linear;
       }
    @keyframes keyframes7 {
      from {
       stroke: black;
       stroke-dashoffset: 471;
       stroke-width: 128;
       }
       61% {
       animation-timing-function: step-end;
       stroke: black;
       stroke-dashoffset: 0;
       stroke-width: 128;
       }
       to {
       stroke: black;
       stroke-width: 1024;
       }
       }
       #make-me-a-hanzi-animation-7 {
         animation: keyframes7 0.633301s both;
         animation-delay: 5.708334s;
         animation-timing-function: linear;
       }
    @keyframes keyframes8 {
      from {
       stroke: black;
       stroke-dashoffset: 779;
       stroke-width: 128;
       }
       72% {
       animation-timing-function: step-end;
       stroke: black;
       stroke-dashoffset: 0;
       stroke-width: 128;
       }
       to {
       stroke: black;
       stroke-width: 1024;
       }
       }
       #make-me-a-hanzi-animation-8 {
         animation: keyframes8 0.883952s both;
         animation-delay: 6.341635s;
         animation-timing-function: linear;
       }
    @keyframes keyframes9 {
      from {
       stroke: black;
       stroke-dashoffset: 577;
       stroke-width: 128;
       }
       65% {
       animation-timing-function: step-end;
       stroke: black;
       stroke-dashoffset: 0;
       stroke-width: 128;
       }
       to {
       stroke: black;
       stroke-width: 1024;
       }
       }
       #make-me-a-hanzi-animation-9 {
         animation: keyframes9 0.719564s both;
         animation-delay: 7.225587s;
         animation-timing-function: linear;
       }
    @keyframes keyframes10 {
      from {
       stroke: black;
       stroke-dashoffset: 1110;
       stroke-width: 128;
       }
       78% {
       animation-timing-function: step-end;
       stroke: black;
       stroke-dashoffset: 0;
       stroke-width: 128;
       }
       to {
       stroke: black;
       stroke-width: 1024;
       }
       }
       #make-me-a-hanzi-animation-10 {
         animation: keyframes10 1.153320s both;
         animation-delay: 7.945151s;
         animation-timing-function: linear;
       }
    @keyframes keyframes11 {
      from {
       stroke: black;
       stroke-dashoffset: 675;
       stroke-width: 128;
       }
       69% {
       animation-timing-function: step-end;
       stroke: black;
       stroke-dashoffset: 0;
       stroke-width: 128;
       }
       to {
       stroke: black;
       stroke-width: 1024;
       }
       }
       #make-me-a-hanzi-animation-11 {
         animation: keyframes11 0.799316s both;
         animation-delay: 9.098471s;
         animation-timing-function: linear;
       }
    @keyframes keyframes12 {
      from {
       stroke: black;
       stroke-dashoffset: 379;
       stroke-width: 128;
       }
       55% {
       animation-timing-function: step-end;
       stroke: black;
       stroke-dashoffset: 0;
       stroke-width: 128;
       }
       to {
       stroke: black;
       stroke-width: 1024;
       }
       }
       #make-me-a-hanzi-animation-12 {
         animation: keyframes12 0.558431s both;
         animation-delay: 9.897787s;
         animation-timing-function: linear;
       }
    @keyframes keyframes13 {
      from {
       stroke: black;
       stroke-dashoffset: 507;
       stroke-width: 128;
       }
       62% {
       animation-timing-function: step-end;
       stroke: black;
       stroke-dashoffset: 0;
       stroke-width: 128;
       }
       to {
       stroke: black;
       stroke-width: 1024;
       }
       }
       #make-me-a-hanzi-animation-13 {
         animation: keyframes13 0.662598s both;
         animation-delay: 10.456218s;
         animation-timing-function: linear;
       }
    @keyframes keyframes14 {
      from {
       stroke: black;
       stroke-dashoffset: 777;
       stroke-width: 128;
       }
       72% {
       animation-timing-function: step-end;
       stroke: black;
       stroke-dashoffset: 0;
       stroke-width: 128;
       }
       to {
       stroke: black;
       stroke-width: 1024;
       }
       }
       #make-me-a-hanzi-animation-14 {
         animation: keyframes14 0.882324s both;
         animation-delay: 11.118816s;
         animation-timing-function: linear;
       }
    @keyframes keyframes15 {
      from {
       stroke: black;
       stroke-dashoffset: 823;
       stroke-width: 128;
       }
       73% {
       animation-timing-function: step-end;
       stroke: black;
       stroke-dashoffset: 0;
       stroke-width: 128;
       }
       to {
       stroke: black;
       stroke-width: 1024;
       }
       }
       #make-me-a-hanzi-animation-15 {
         animation: keyframes15 0.919759s both;
         animation-delay: 12.001140s;
         animation-timing-function: linear;
       }
    @keyframes keyframes16 {
      from {
       stroke: black;
       stroke-dashoffset: 493;
       stroke-width: 128;
       }
       62% {
       animation-timing-function: step-end;
       stroke: black;
       stroke-dashoffset: 0;
       stroke-width: 128;
       }
       to {
       stroke: black;
       stroke-width: 1024;
       }
       }
       #make-me-a-hanzi-animation-16 {
         animation: keyframes16 0.651204s both;
         animation-delay: 12.920899s;
         animation-timing-function: linear;
       }
</style>
<path d="M 323.0 531.5 Q 449.0 568.5 451.0 569.5 Q 460.0 576.5 455.0 585.5 Q 448.0 595.5 419.0 602.5 Q 398.0 605.5 350.0 589.5 L 296.0 570.5 Q 286.0 569.5 278.0 565.5 Q 230.0 552.5 174.0 544.5 Q 140.0 537.5 165.0 522.5 Q 210.0 503.5 276.0 520.5 Q 277.0 520.5 279.0 520.5 L 323.0 531.5 Z" fill="lightgray"></path> 
<path d="M 377.0 306.5 Q 408.0 313.5 439.0 316.5 Q 467.0 319.5 459.0 332.5 Q 449.0 345.5 433.0 351.5 Q 418.0 357.5 379.0 342.5 L 330.0 329.5 Q 293.0 322.5 250.0 312.5 Q 238.0 309.5 236.0 312.5 Q 235.0 313.5 237.0 324.5 Q 273.0 418.5 323.0 531.5 L 350.0 589.5 Q 371.0 652.5 399.0 678.5 Q 414.0 691.5 397.0 711.5 Q 372.0 738.5 353.0 751.5 Q 340.0 758.5 330.0 756.5 Q 321.0 752.5 327.0 731.5 Q 334.0 694.5 296.0 570.5 L 279.0 520.5 Q 275.0 511.5 272.0 501.5 Q 206.0 345.5 169.0 310.5 Q 154.0 294.5 159.0 280.5 Q 166.0 261.5 176.0 250.5 Q 186.0 240.5 196.0 245.5 Q 250.0 278.5 330.0 294.5 L 377.0 306.5 Z" fill="lightgray"></path> 
<path d="M 322.0 152.5 Q 313.0 49.5 306.0 27.5 Q 297.0 -9.5 328.0 -59.5 Q 338.0 -77.5 347.0 -81.5 Q 357.0 -82.5 363.0 -70.5 Q 376.0 -39.5 373.0 -10.5 Q 372.0 88.5 373.0 174.5 L 374.0 209.5 Q 374.0 260.5 377.0 306.5 L 379.0 342.5 Q 380.0 370.5 385.0 385.5 Q 386.0 397.5 380.0 403.5 Q 358.0 422.5 340.0 433.5 Q 328.0 436.5 319.0 429.5 Q 313.0 426.5 320.0 416.5 Q 329.0 401.5 330.0 329.5 L 330.0 294.5 Q 327.0 203.5 325.0 194.5 L 322.0 152.5 Z" fill="lightgray"></path> 
<path d="M 373.0 174.5 Q 386.0 181.5 404.0 188.5 Q 432.0 200.5 452.0 215.5 Q 465.0 222.5 465.0 232.5 Q 459.0 238.5 447.0 235.5 Q 411.0 223.5 374.0 209.5 L 325.0 194.5 Q 243.0 169.5 152.0 141.5 Q 131.0 134.5 97.0 135.5 Q 84.0 134.5 82.0 123.5 Q 81.0 110.5 89.0 102.5 Q 111.0 86.5 145.0 67.5 Q 155.0 64.5 167.0 73.5 Q 215.0 109.5 322.0 152.5 L 373.0 174.5 Z" fill="lightgray"></path> 
<path d="M 693.0 455.5 Q 730.0 494.5 768.0 541.5 Q 787.0 568.5 822.0 595.5 Q 838.0 605.5 832.0 615.5 Q 831.0 624.5 771.0 649.5 Q 753.0 658.5 713.0 636.5 Q 619.0 606.5 526.0 594.5 Q 507.0 593.5 520.0 577.5 Q 542.0 559.5 583.0 569.5 Q 647.0 581.5 695.0 592.5 Q 711.0 596.5 716.0 589.5 Q 720.0 582.5 708.0 565.5 Q 648.0 453.5 477.0 326.5 Q 462.0 314.5 477.0 313.5 Q 487.0 313.5 533.0 334.5 Q 570.0 350.5 611.0 382.5 Q 642.0 407.5 673.0 436.5 L 693.0 455.5 Z" fill="lightgray"></path> 
<path d="M 673.0 436.5 Q 739.0 394.5 820.0 329.5 Q 836.0 314.5 851.0 313.5 Q 858.0 313.5 864.0 323.5 Q 873.0 336.5 855.0 372.5 Q 839.0 417.5 693.0 455.5 C 664.0 463.5 648.0 452.5 673.0 436.5 Z" fill="lightgray"></path> 
<path d="M 657.0 240.5 Q 798.0 265.5 805.0 269.5 Q 814.0 276.5 809.0 284.5 Q 803.0 296.5 775.0 304.5 Q 751.0 310.5 648.0 283.5 Q 545.0 270.5 521.0 267.5 Q 487.0 263.5 510.0 246.5 Q 549.0 219.5 606.0 233.5 Q 609.0 233.5 615.0 233.5 L 657.0 240.5 Z" fill="lightgray"></path> 
<path d="M 659.0 30.5 Q 674.0 180.5 678.0 193.5 Q 685.0 209.5 678.0 220.5 Q 668.0 232.5 657.0 240.5 C 633.0 259.5 610.0 263.5 615.0 233.5 Q 621.0 215.5 615.0 26.5 C 614.0 -3.5 656.0 0.5 659.0 30.5 Z" fill="lightgray"></path> 
<path d="M 615.0 26.5 Q 521.0 17.5 412.0 6.5 Q 391.0 5.5 406.0 -12.5 Q 419.0 -27.5 438.0 -32.5 Q 459.0 -39.5 475.0 -34.5 Q 682.0 11.5 912.0 -7.5 Q 931.0 -7.5 937.0 0.5 Q 943.0 12.5 927.0 26.5 Q 870.0 72.5 818.0 55.5 Q 755.0 45.5 659.0 30.5 L 615.0 26.5 Z" fill="lightgray"></path> 
<path d="M 1346.0 443.5 Q 1371.0 450.5 1401.0 456.5 Q 1441.0 466.5 1447.0 472.5 Q 1456.0 482.5 1451.0 490.5 Q 1442.0 503.5 1411.0 510.5 Q 1378.0 514.5 1348.0 501.5 L 1308.0 487.5 Q 1211.0 457.5 1132.0 447.5 Q 1093.0 440.5 1122.0 422.5 Q 1167.0 398.5 1227.0 415.5 Q 1255.0 422.5 1290.0 429.5 L 1346.0 443.5 Z" fill="lightgray"></path> 
<path d="M 1342.0 329.5 Q 1343.0 383.5 1346.0 443.5 L 1348.0 501.5 Q 1348.0 607.5 1371.0 685.5 Q 1381.0 700.5 1378.0 713.5 Q 1371.0 722.5 1317.0 757.5 Q 1295.0 773.5 1274.0 759.5 Q 1270.0 755.5 1275.0 739.5 Q 1308.0 688.5 1308.0 639.5 Q 1308.0 569.5 1308.0 487.5 L 1300.0 334.5 Q 1296.0 259.5 1295.0 179.5 Q 1289.0 100.5 1267.0 28.5 Q 1254.0 -13.5 1280.0 -70.5 Q 1286.0 -88.5 1294.0 -91.5 Q 1300.0 -97.5 1307.0 -89.5 Q 1334.0 -73.5 1335.0 -10.5 Q 1334.0 28.5 1341.0 299.5 L 1342.0 329.5 Z" fill="lightgray"></path> 
<path d="M 1290.0 429.5 Q 1233.0 288.5 1069.0 81.5 Q 1063.0 71.5 1075.0 70.5 Q 1082.0 69.5 1091.0 77.5 Q 1220.0 185.5 1300.0 334.5 C 1366.0 456.5 1302.0 457.5 1290.0 429.5 Z" fill="lightgray"></path> 
<path d="M 1341.0 299.5 Q 1411.0 229.5 1419.0 226.5 L 1422.0 226.5 Q 1431.0 225.5 1436.0 236.5 Q 1440.0 248.5 1436.0 272.5 Q 1430.0 299.5 1353.0 327.5 Q 1346.0 328.5 1342.0 329.5 C 1313.0 335.5 1320.0 320.5 1341.0 299.5 Z" fill="lightgray"></path> 
<path d="M 1524.0 499.5 Q 1536.0 466.5 1482.0 380.5 Q 1481.0 379.5 1480.0 377.5 Q 1464.0 355.5 1424.0 310.5 Q 1417.0 304.5 1426.0 303.5 Q 1487.0 303.5 1590.0 451.5 Q 1594.0 457.5 1598.0 460.5 Q 1605.0 464.5 1603.0 474.5 Q 1594.0 499.5 1559.0 509.5 Q 1540.0 515.5 1530.0 513.5 Q 1523.0 510.5 1524.0 499.5 Z" fill="lightgray"></path> 
<path d="M 1628.0 646.5 Q 1658.0 624.5 1674.0 589.5 Q 1756.0 441.5 1824.0 337.5 Q 1836.0 316.5 1860.0 314.5 Q 1948.0 308.5 1983.0 311.5 Q 1999.0 311.5 2005.0 317.5 Q 2009.0 323.5 2001.0 328.5 Q 1877.0 400.5 1838.0 441.5 Q 1774.0 505.5 1686.0 642.5 Q 1677.0 658.5 1662.0 662.5 Q 1634.0 668.5 1623.0 659.5 Q 1619.0 653.5 1628.0 646.5 Z" fill="lightgray"></path> 
<path d="M 1757.0 117.5 Q 1664.0 107.5 1564.0 87.5 Q 1554.0 83.5 1550.0 86.5 Q 1547.0 98.5 1635.0 229.5 Q 1683.0 307.5 1684.0 308.5 Q 1678.0 324.5 1620.0 348.5 Q 1602.0 355.5 1592.0 350.5 Q 1579.0 343.5 1587.0 321.5 Q 1608.0 273.5 1516.0 123.5 Q 1494.0 96.5 1456.0 68.5 Q 1443.0 55.5 1447.0 43.5 Q 1453.0 25.5 1481.0 5.5 Q 1490.0 -1.5 1515.0 12.5 Q 1563.0 42.5 1749.0 87.5 Q 1761.0 90.5 1770.0 94.5 C 1798.0 104.5 1787.0 120.5 1757.0 117.5 Z" fill="lightgray"></path> 
<path d="M 1770.0 94.5 Q 1815.0 7.5 1826.0 1.5 Q 1833.0 -2.5 1844.0 5.5 Q 1860.0 15.5 1860.0 61.5 Q 1860.0 116.5 1722.0 223.5 Q 1715.0 230.5 1709.0 219.5 Q 1705.0 206.5 1712.0 193.5 Q 1734.0 159.5 1757.0 117.5 L 1770.0 94.5 Z" fill="lightgray"></path> 
      <clipPath id="make-me-a-hanzi-clip-0">
      <path d="M 323.0 531.5 Q 449.0 568.5 451.0 569.5 Q 460.0 576.5 455.0 585.5 Q 448.0 595.5 419.0 602.5 Q 398.0 605.5 350.0 589.5 L 296.0 570.5 Q 286.0 569.5 278.0 565.5 Q 230.0 552.5 174.0 544.5 Q 140.0 537.5 165.0 522.5 Q 210.0 503.5 276.0 520.5 Q 277.0 520.5 279.0 520.5 L 323.0 531.5 Z" fill="lightgray"></path>
      </clipPath>
      <path clip-path="url(#make-me-a-hanzi-clip-0)" d="M 167.0 534.5 L 230.0 532.5 L 330.0 555.5 L 406.0 580.5 L 447.0 578.5 " fill="none" id="make-me-a-hanzi-animation-0" stroke-dasharray="415 830" stroke-linecap="round"></path>

      <clipPath id="make-me-a-hanzi-clip-1">
      <path d="M 377.0 306.5 Q 408.0 313.5 439.0 316.5 Q 467.0 319.5 459.0 332.5 Q 449.0 345.5 433.0 351.5 Q 418.0 357.5 379.0 342.5 L 330.0 329.5 Q 293.0 322.5 250.0 312.5 Q 238.0 309.5 236.0 312.5 Q 235.0 313.5 237.0 324.5 Q 273.0 418.5 323.0 531.5 L 350.0 589.5 Q 371.0 652.5 399.0 678.5 Q 414.0 691.5 397.0 711.5 Q 372.0 738.5 353.0 751.5 Q 340.0 758.5 330.0 756.5 Q 321.0 752.5 327.0 731.5 Q 334.0 694.5 296.0 570.5 L 279.0 520.5 Q 275.0 511.5 272.0 501.5 Q 206.0 345.5 169.0 310.5 Q 154.0 294.5 159.0 280.5 Q 166.0 261.5 176.0 250.5 Q 186.0 240.5 196.0 245.5 Q 250.0 278.5 330.0 294.5 L 377.0 306.5 Z" fill="lightgray"></path>
      </clipPath>
      <path clip-path="url(#make-me-a-hanzi-clip-1)" d="M 335.0 747.5 L 363.0 694.5 L 291.0 500.5 L 215.0 333.5 L 204.0 292.5 L 250.0 291.5 L 419.0 334.5 L 447.0 328.5 " fill="none" id="make-me-a-hanzi-animation-1" stroke-dasharray="870 1740" stroke-linecap="round"></path>

      <clipPath id="make-me-a-hanzi-clip-2">
      <path d="M 322.0 152.5 Q 313.0 49.5 306.0 27.5 Q 297.0 -9.5 328.0 -59.5 Q 338.0 -77.5 347.0 -81.5 Q 357.0 -82.5 363.0 -70.5 Q 376.0 -39.5 373.0 -10.5 Q 372.0 88.5 373.0 174.5 L 374.0 209.5 Q 374.0 260.5 377.0 306.5 L 379.0 342.5 Q 380.0 370.5 385.0 385.5 Q 386.0 397.5 380.0 403.5 Q 358.0 422.5 340.0 433.5 Q 328.0 436.5 319.0 429.5 Q 313.0 426.5 320.0 416.5 Q 329.0 401.5 330.0 329.5 L 330.0 294.5 Q 327.0 203.5 325.0 194.5 L 322.0 152.5 Z" fill="lightgray"></path>
      </clipPath>
      <path clip-path="url(#make-me-a-hanzi-clip-2)" d="M 328.0 423.5 L 356.0 386.5 L 338.0 8.5 L 349.0 -69.5 " fill="none" id="make-me-a-hanzi-animation-2" stroke-dasharray="632 1264" stroke-linecap="round"></path>

      <clipPath id="make-me-a-hanzi-clip-3">
      <path d="M 373.0 174.5 Q 386.0 181.5 404.0 188.5 Q 432.0 200.5 452.0 215.5 Q 465.0 222.5 465.0 232.5 Q 459.0 238.5 447.0 235.5 Q 411.0 223.5 374.0 209.5 L 325.0 194.5 Q 243.0 169.5 152.0 141.5 Q 131.0 134.5 97.0 135.5 Q 84.0 134.5 82.0 123.5 Q 81.0 110.5 89.0 102.5 Q 111.0 86.5 145.0 67.5 Q 155.0 64.5 167.0 73.5 Q 215.0 109.5 322.0 152.5 L 373.0 174.5 Z" fill="lightgray"></path>
      </clipPath>
      <path clip-path="url(#make-me-a-hanzi-clip-3)" d="M 96.0 121.5 L 151.0 104.5 L 459.0 229.5 " fill="none" id="make-me-a-hanzi-animation-3" stroke-dasharray="518 1036" stroke-linecap="round"></path>

      <clipPath id="make-me-a-hanzi-clip-4">
      <path d="M 693.0 455.5 Q 730.0 494.5 768.0 541.5 Q 787.0 568.5 822.0 595.5 Q 838.0 605.5 832.0 615.5 Q 831.0 624.5 771.0 649.5 Q 753.0 658.5 713.0 636.5 Q 619.0 606.5 526.0 594.5 Q 507.0 593.5 520.0 577.5 Q 542.0 559.5 583.0 569.5 Q 647.0 581.5 695.0 592.5 Q 711.0 596.5 716.0 589.5 Q 720.0 582.5 708.0 565.5 Q 648.0 453.5 477.0 326.5 Q 462.0 314.5 477.0 313.5 Q 487.0 313.5 533.0 334.5 Q 570.0 350.5 611.0 382.5 Q 642.0 407.5 673.0 436.5 L 693.0 455.5 Z" fill="lightgray"></path>
      </clipPath>
      <path clip-path="url(#make-me-a-hanzi-clip-4)" d="M 523.0 585.5 L 571.0 583.5 L 711.0 615.5 L 735.0 614.5 L 761.0 603.5 L 731.0 543.5 L 652.0 448.5 L 568.0 373.5 L 480.0 320.5 " fill="none" id="make-me-a-hanzi-animation-4" stroke-dasharray="778 1556" stroke-linecap="round"></path>

      <clipPath id="make-me-a-hanzi-clip-5">
      <path d="M 673.0 436.5 Q 739.0 394.5 820.0 329.5 Q 836.0 314.5 851.0 313.5 Q 858.0 313.5 864.0 323.5 Q 873.0 336.5 855.0 372.5 Q 839.0 417.5 693.0 455.5 C 664.0 463.5 648.0 452.5 673.0 436.5 Z" fill="lightgray"></path>
      </clipPath>
      <path clip-path="url(#make-me-a-hanzi-clip-5)" d="M 682.0 437.5 L 701.0 439.5 L 787.0 393.5 L 826.0 363.5 L 849.0 328.5 " fill="none" id="make-me-a-hanzi-animation-5" stroke-dasharray="336 672" stroke-linecap="round"></path>

      <clipPath id="make-me-a-hanzi-clip-6">
      <path d="M 657.0 240.5 Q 798.0 265.5 805.0 269.5 Q 814.0 276.5 809.0 284.5 Q 803.0 296.5 775.0 304.5 Q 751.0 310.5 648.0 283.5 Q 545.0 270.5 521.0 267.5 Q 487.0 263.5 510.0 246.5 Q 549.0 219.5 606.0 233.5 Q 609.0 233.5 615.0 233.5 L 657.0 240.5 Z" fill="lightgray"></path>
      </clipPath>
      <path clip-path="url(#make-me-a-hanzi-clip-6)" d="M 513.0 258.5 L 522.0 253.5 L 580.0 251.5 L 747.0 281.5 L 800.0 278.5 " fill="none" id="make-me-a-hanzi-animation-6" stroke-dasharray="419 838" stroke-linecap="round"></path>

      <clipPath id="make-me-a-hanzi-clip-7">
      <path d="M 659.0 30.5 Q 674.0 180.5 678.0 193.5 Q 685.0 209.5 678.0 220.5 Q 668.0 232.5 657.0 240.5 C 633.0 259.5 610.0 263.5 615.0 233.5 Q 621.0 215.5 615.0 26.5 C 614.0 -3.5 656.0 0.5 659.0 30.5 Z" fill="lightgray"></path>
      </clipPath>
      <path clip-path="url(#make-me-a-hanzi-clip-7)" d="M 622.0 233.5 L 649.0 206.5 L 639.0 51.5 L 621.0 40.5 " fill="none" id="make-me-a-hanzi-animation-7" stroke-dasharray="343 686" stroke-linecap="round"></path>

      <clipPath id="make-me-a-hanzi-clip-8">
      <path d="M 615.0 26.5 Q 521.0 17.5 412.0 6.5 Q 391.0 5.5 406.0 -12.5 Q 419.0 -27.5 438.0 -32.5 Q 459.0 -39.5 475.0 -34.5 Q 682.0 11.5 912.0 -7.5 Q 931.0 -7.5 937.0 0.5 Q 943.0 12.5 927.0 26.5 Q 870.0 72.5 818.0 55.5 Q 755.0 45.5 659.0 30.5 L 615.0 26.5 Z" fill="lightgray"></path>
      </clipPath>
      <path clip-path="url(#make-me-a-hanzi-clip-8)" d="M 409.0 -3.5 L 465.0 -12.5 L 595.0 6.5 L 849.0 28.5 L 926.0 7.5 " fill="none" id="make-me-a-hanzi-animation-8" stroke-dasharray="651 1302" stroke-linecap="round"></path>

      <clipPath id="make-me-a-hanzi-clip-9">
      <path d="M 1346.0 443.5 Q 1371.0 450.5 1401.0 456.5 Q 1441.0 466.5 1447.0 472.5 Q 1456.0 482.5 1451.0 490.5 Q 1442.0 503.5 1411.0 510.5 Q 1378.0 514.5 1348.0 501.5 L 1308.0 487.5 Q 1211.0 457.5 1132.0 447.5 Q 1093.0 440.5 1122.0 422.5 Q 1167.0 398.5 1227.0 415.5 Q 1255.0 422.5 1290.0 429.5 L 1346.0 443.5 Z" fill="lightgray"></path>
      </clipPath>
      <path clip-path="url(#make-me-a-hanzi-clip-9)" d="M 1124.0 436.5 L 1147.0 430.5 L 1213.0 436.5 L 1377.0 481.5 L 1438.0 483.5 " fill="none" id="make-me-a-hanzi-animation-9" stroke-dasharray="449 898" stroke-linecap="round"></path>

      <clipPath id="make-me-a-hanzi-clip-10">
      <path d="M 1342.0 329.5 Q 1343.0 383.5 1346.0 443.5 L 1348.0 501.5 Q 1348.0 607.5 1371.0 685.5 Q 1381.0 700.5 1378.0 713.5 Q 1371.0 722.5 1317.0 757.5 Q 1295.0 773.5 1274.0 759.5 Q 1270.0 755.5 1275.0 739.5 Q 1308.0 688.5 1308.0 639.5 Q 1308.0 569.5 1308.0 487.5 L 1300.0 334.5 Q 1296.0 259.5 1295.0 179.5 Q 1289.0 100.5 1267.0 28.5 Q 1254.0 -13.5 1280.0 -70.5 Q 1286.0 -88.5 1294.0 -91.5 Q 1300.0 -97.5 1307.0 -89.5 Q 1334.0 -73.5 1335.0 -10.5 Q 1334.0 28.5 1341.0 299.5 L 1342.0 329.5 Z" fill="lightgray"></path>
      </clipPath>
      <path clip-path="url(#make-me-a-hanzi-clip-10)" d="M 1285.0 753.5 L 1336.0 699.5 L 1317.0 168.5 L 1299.0 10.5 L 1299.0 -78.5 " fill="none" id="make-me-a-hanzi-animation-10" stroke-dasharray="982 1964" stroke-linecap="round"></path>

      <clipPath id="make-me-a-hanzi-clip-11">
      <path d="M 1290.0 429.5 Q 1233.0 288.5 1069.0 81.5 Q 1063.0 71.5 1075.0 70.5 Q 1082.0 69.5 1091.0 77.5 Q 1220.0 185.5 1300.0 334.5 C 1366.0 456.5 1302.0 457.5 1290.0 429.5 Z" fill="lightgray"></path>
      </clipPath>
      <path clip-path="url(#make-me-a-hanzi-clip-11)" d="M 1299.0 426.5 L 1275.0 339.5 L 1244.0 285.5 L 1163.0 172.5 L 1077.0 78.5 " fill="none" id="make-me-a-hanzi-animation-11" stroke-dasharray="547 1094" stroke-linecap="round"></path>

      <clipPath id="make-me-a-hanzi-clip-12">
      <path d="M 1341.0 299.5 Q 1411.0 229.5 1419.0 226.5 L 1422.0 226.5 Q 1431.0 225.5 1436.0 236.5 Q 1440.0 248.5 1436.0 272.5 Q 1430.0 299.5 1353.0 327.5 Q 1346.0 328.5 1342.0 329.5 C 1313.0 335.5 1320.0 320.5 1341.0 299.5 Z" fill="lightgray"></path>
      </clipPath>
      <path clip-path="url(#make-me-a-hanzi-clip-12)" d="M 1346.0 321.5 L 1362.0 301.5 L 1406.0 272.5 L 1422.0 244.5 L 1421.0 232.5 " fill="none" id="make-me-a-hanzi-animation-12" stroke-dasharray="251 502" stroke-linecap="round"></path>

      <clipPath id="make-me-a-hanzi-clip-13">
      <path d="M 1524.0 499.5 Q 1536.0 466.5 1482.0 380.5 Q 1481.0 379.5 1480.0 377.5 Q 1464.0 355.5 1424.0 310.5 Q 1417.0 304.5 1426.0 303.5 Q 1487.0 303.5 1590.0 451.5 Q 1594.0 457.5 1598.0 460.5 Q 1605.0 464.5 1603.0 474.5 Q 1594.0 499.5 1559.0 509.5 Q 1540.0 515.5 1530.0 513.5 Q 1523.0 510.5 1524.0 499.5 Z" fill="lightgray"></path>
      </clipPath>
      <path clip-path="url(#make-me-a-hanzi-clip-13)" d="M 1536.0 502.5 L 1560.0 471.5 L 1546.0 438.5 L 1502.0 371.5 L 1462.0 330.5 L 1430.0 308.5 " fill="none" id="make-me-a-hanzi-animation-13" stroke-dasharray="379 758" stroke-linecap="round"></path>

      <clipPath id="make-me-a-hanzi-clip-14">
      <path d="M 1628.0 646.5 Q 1658.0 624.5 1674.0 589.5 Q 1756.0 441.5 1824.0 337.5 Q 1836.0 316.5 1860.0 314.5 Q 1948.0 308.5 1983.0 311.5 Q 1999.0 311.5 2005.0 317.5 Q 2009.0 323.5 2001.0 328.5 Q 1877.0 400.5 1838.0 441.5 Q 1774.0 505.5 1686.0 642.5 Q 1677.0 658.5 1662.0 662.5 Q 1634.0 668.5 1623.0 659.5 Q 1619.0 653.5 1628.0 646.5 Z" fill="lightgray"></path>
      </clipPath>
      <path clip-path="url(#make-me-a-hanzi-clip-14)" d="M 1631.0 655.5 L 1652.0 649.5 L 1667.0 637.5 L 1786.0 453.5 L 1864.0 360.5 L 1998.0 321.5 " fill="none" id="make-me-a-hanzi-animation-14" stroke-dasharray="649 1298" stroke-linecap="round"></path>

      <clipPath id="make-me-a-hanzi-clip-15">
      <path d="M 1757.0 117.5 Q 1664.0 107.5 1564.0 87.5 Q 1554.0 83.5 1550.0 86.5 Q 1547.0 98.5 1635.0 229.5 Q 1683.0 307.5 1684.0 308.5 Q 1678.0 324.5 1620.0 348.5 Q 1602.0 355.5 1592.0 350.5 Q 1579.0 343.5 1587.0 321.5 Q 1608.0 273.5 1516.0 123.5 Q 1494.0 96.5 1456.0 68.5 Q 1443.0 55.5 1447.0 43.5 Q 1453.0 25.5 1481.0 5.5 Q 1490.0 -1.5 1515.0 12.5 Q 1563.0 42.5 1749.0 87.5 Q 1761.0 90.5 1770.0 94.5 C 1798.0 104.5 1787.0 120.5 1757.0 117.5 Z" fill="lightgray"></path>
      </clipPath>
      <path clip-path="url(#make-me-a-hanzi-clip-15)" d="M 1679.0 310.5 L 1631.0 299.5 L 1593.0 209.5 L 1523.0 89.5 L 1516.0 60.5 L 1555.0 59.5 L 1723.0 98.5 L 1763.0 98.5 " fill="none" id="make-me-a-hanzi-animation-15" stroke-dasharray="695 1390" stroke-linecap="round"></path>

      <clipPath id="make-me-a-hanzi-clip-16">
      <path d="M 1770.0 94.5 Q 1815.0 7.5 1826.0 1.5 Q 1833.0 -2.5 1844.0 5.5 Q 1860.0 15.5 1860.0 61.5 Q 1860.0 116.5 1722.0 223.5 Q 1715.0 230.5 1709.0 219.5 Q 1705.0 206.5 1712.0 193.5 Q 1734.0 159.5 1757.0 117.5 L 1770.0 94.5 Z" fill="lightgray"></path>
      </clipPath>
      <path clip-path="url(#make-me-a-hanzi-clip-16)" d="M 1718.0 212.5 L 1816.0 83.5 L 1829.0 52.5 L 1831.0 11.5 " fill="none" id="make-me-a-hanzi-animation-16" stroke-dasharray="365 730" stroke-linecap="round"></path>

</g>
</svg>
