<svg version="1.1" viewBox="0 0 2048 1024" xmlns="http://www.w3.org/2000/svg">
  <g stroke="lightgray" stroke-dasharray="1,1" stroke-width="1" transform="scale(4, 4)">
    <line x1="0" y1="0" x2="256" y2="256"></line>
    <line x1="256" y1="0" x2="0" y2="256"></line>
    <line x1="128" y1="0" x2="128" y2="256"></line>
    <line x1="0" y1="128" x2="256" y2="128"></line>
    <line x1="256" y1="0" x2="512" y2="256"></line>
    <line x1="512" y1="0" x2="256" y2="256"></line>
    <line x1="384" y1="0" x2="384" y2="256"></line>
    <line x1="256" y1="128" x2="512" y2="128"></line>
  </g>
<g transform="scale(1, -1) translate(0, -850)">
   <style type="text/css">
    @keyframes keyframes0 {
      from {
       stroke: black;
       stroke-dashoffset: 389;
       stroke-width: 128;
       }
       56% {
       animation-timing-function: step-end;
       stroke: black;
       stroke-dashoffset: 0;
       stroke-width: 128;
       }
       to {
       stroke: black;
       stroke-width: 1024;
       }
       }
       #make-me-a-hanzi-animation-0 {
         animation: keyframes0 0.566569s both;
         animation-delay: 0.000000s;
         animation-timing-function: linear;
       }
    @keyframes keyframes1 {
      from {
       stroke: black;
       stroke-dashoffset: 502;
       stroke-width: 128;
       }
       62% {
       animation-timing-function: step-end;
       stroke: black;
       stroke-dashoffset: 0;
       stroke-width: 128;
       }
       to {
       stroke: black;
       stroke-width: 1024;
       }
       }
       #make-me-a-hanzi-animation-1 {
         animation: keyframes1 0.658529s both;
         animation-delay: 0.566569s;
         animation-timing-function: linear;
       }
    @keyframes keyframes2 {
      from {
       stroke: black;
       stroke-dashoffset: 364;
       stroke-width: 128;
       }
       54% {
       animation-timing-function: step-end;
       stroke: black;
       stroke-dashoffset: 0;
       stroke-width: 128;
       }
       to {
       stroke: black;
       stroke-width: 1024;
       }
       }
       #make-me-a-hanzi-animation-2 {
         animation: keyframes2 0.546224s both;
         animation-delay: 1.225098s;
         animation-timing-function: linear;
       }
    @keyframes keyframes3 {
      from {
       stroke: black;
       stroke-dashoffset: 425;
       stroke-width: 128;
       }
       58% {
       animation-timing-function: step-end;
       stroke: black;
       stroke-dashoffset: 0;
       stroke-width: 128;
       }
       to {
       stroke: black;
       stroke-width: 1024;
       }
       }
       #make-me-a-hanzi-animation-3 {
         animation: keyframes3 0.595866s both;
         animation-delay: 1.771322s;
         animation-timing-function: linear;
       }
    @keyframes keyframes4 {
      from {
       stroke: black;
       stroke-dashoffset: 576;
       stroke-width: 128;
       }
       65% {
       animation-timing-function: step-end;
       stroke: black;
       stroke-dashoffset: 0;
       stroke-width: 128;
       }
       to {
       stroke: black;
       stroke-width: 1024;
       }
       }
       #make-me-a-hanzi-animation-4 {
         animation: keyframes4 0.718750s both;
         animation-delay: 2.367188s;
         animation-timing-function: linear;
       }
    @keyframes keyframes5 {
      from {
       stroke: black;
       stroke-dashoffset: 520;
       stroke-width: 128;
       }
       63% {
       animation-timing-function: step-end;
       stroke: black;
       stroke-dashoffset: 0;
       stroke-width: 128;
       }
       to {
       stroke: black;
       stroke-width: 1024;
       }
       }
       #make-me-a-hanzi-animation-5 {
         animation: keyframes5 0.673177s both;
         animation-delay: 3.085938s;
         animation-timing-function: linear;
       }
    @keyframes keyframes6 {
      from {
       stroke: black;
       stroke-dashoffset: 706;
       stroke-width: 128;
       }
       70% {
       animation-timing-function: step-end;
       stroke: black;
       stroke-dashoffset: 0;
       stroke-width: 128;
       }
       to {
       stroke: black;
       stroke-width: 1024;
       }
       }
       #make-me-a-hanzi-animation-6 {
         animation: keyframes6 0.824544s both;
         animation-delay: 3.759115s;
         animation-timing-function: linear;
       }
    @keyframes keyframes7 {
      from {
       stroke: black;
       stroke-dashoffset: 642;
       stroke-width: 128;
       }
       68% {
       animation-timing-function: step-end;
       stroke: black;
       stroke-dashoffset: 0;
       stroke-width: 128;
       }
       to {
       stroke: black;
       stroke-width: 1024;
       }
       }
       #make-me-a-hanzi-animation-7 {
         animation: keyframes7 0.772461s both;
         animation-delay: 4.583659s;
         animation-timing-function: linear;
       }
    @keyframes keyframes8 {
      from {
       stroke: black;
       stroke-dashoffset: 748;
       stroke-width: 128;
       }
       71% {
       animation-timing-function: step-end;
       stroke: black;
       stroke-dashoffset: 0;
       stroke-width: 128;
       }
       to {
       stroke: black;
       stroke-width: 1024;
       }
       }
       #make-me-a-hanzi-animation-8 {
         animation: keyframes8 0.858724s both;
         animation-delay: 5.356120s;
         animation-timing-function: linear;
       }
    @keyframes keyframes9 {
      from {
       stroke: black;
       stroke-dashoffset: 556;
       stroke-width: 128;
       }
       64% {
       animation-timing-function: step-end;
       stroke: black;
       stroke-dashoffset: 0;
       stroke-width: 128;
       }
       to {
       stroke: black;
       stroke-width: 1024;
       }
       }
       #make-me-a-hanzi-animation-9 {
         animation: keyframes9 0.702474s both;
         animation-delay: 6.214844s;
         animation-timing-function: linear;
       }
    @keyframes keyframes10 {
      from {
       stroke: black;
       stroke-dashoffset: 380;
       stroke-width: 128;
       }
       55% {
       animation-timing-function: step-end;
       stroke: black;
       stroke-dashoffset: 0;
       stroke-width: 128;
       }
       to {
       stroke: black;
       stroke-width: 1024;
       }
       }
       #make-me-a-hanzi-animation-10 {
         animation: keyframes10 0.559245s both;
         animation-delay: 6.917318s;
         animation-timing-function: linear;
       }
    @keyframes keyframes11 {
      from {
       stroke: black;
       stroke-dashoffset: 497;
       stroke-width: 128;
       }
       62% {
       animation-timing-function: step-end;
       stroke: black;
       stroke-dashoffset: 0;
       stroke-width: 128;
       }
       to {
       stroke: black;
       stroke-width: 1024;
       }
       }
       #make-me-a-hanzi-animation-11 {
         animation: keyframes11 0.654460s both;
         animation-delay: 7.476562s;
         animation-timing-function: linear;
       }
    @keyframes keyframes12 {
      from {
       stroke: black;
       stroke-dashoffset: 341;
       stroke-width: 128;
       }
       53% {
       animation-timing-function: step-end;
       stroke: black;
       stroke-dashoffset: 0;
       stroke-width: 128;
       }
       to {
       stroke: black;
       stroke-width: 1024;
       }
       }
       #make-me-a-hanzi-animation-12 {
         animation: keyframes12 0.527507s both;
         animation-delay: 8.131022s;
         animation-timing-function: linear;
       }
    @keyframes keyframes13 {
      from {
       stroke: black;
       stroke-dashoffset: 418;
       stroke-width: 128;
       }
       58% {
       animation-timing-function: step-end;
       stroke: black;
       stroke-dashoffset: 0;
       stroke-width: 128;
       }
       to {
       stroke: black;
       stroke-width: 1024;
       }
       }
       #make-me-a-hanzi-animation-13 {
         animation: keyframes13 0.590169s both;
         animation-delay: 8.658529s;
         animation-timing-function: linear;
       }
    @keyframes keyframes14 {
      from {
       stroke: black;
       stroke-dashoffset: 631;
       stroke-width: 128;
       }
       67% {
       animation-timing-function: step-end;
       stroke: black;
       stroke-dashoffset: 0;
       stroke-width: 128;
       }
       to {
       stroke: black;
       stroke-width: 1024;
       }
       }
       #make-me-a-hanzi-animation-14 {
         animation: keyframes14 0.763509s both;
         animation-delay: 9.248698s;
         animation-timing-function: linear;
       }
    @keyframes keyframes15 {
      from {
       stroke: black;
       stroke-dashoffset: 582;
       stroke-width: 128;
       }
       65% {
       animation-timing-function: step-end;
       stroke: black;
       stroke-dashoffset: 0;
       stroke-width: 128;
       }
       to {
       stroke: black;
       stroke-width: 1024;
       }
       }
       #make-me-a-hanzi-animation-15 {
         animation: keyframes15 0.723633s both;
         animation-delay: 10.012207s;
         animation-timing-function: linear;
       }
    @keyframes keyframes16 {
      from {
       stroke: black;
       stroke-dashoffset: 759;
       stroke-width: 128;
       }
       71% {
       animation-timing-function: step-end;
       stroke: black;
       stroke-dashoffset: 0;
       stroke-width: 128;
       }
       to {
       stroke: black;
       stroke-width: 1024;
       }
       }
       #make-me-a-hanzi-animation-16 {
         animation: keyframes16 0.867676s both;
         animation-delay: 10.735840s;
         animation-timing-function: linear;
       }
    @keyframes keyframes17 {
      from {
       stroke: black;
       stroke-dashoffset: 901;
       stroke-width: 128;
       }
       75% {
       animation-timing-function: step-end;
       stroke: black;
       stroke-dashoffset: 0;
       stroke-width: 128;
       }
       to {
       stroke: black;
       stroke-width: 1024;
       }
       }
       #make-me-a-hanzi-animation-17 {
         animation: keyframes17 0.983236s both;
         animation-delay: 11.603516s;
         animation-timing-function: linear;
       }
    @keyframes keyframes18 {
      from {
       stroke: black;
       stroke-dashoffset: 948;
       stroke-width: 128;
       }
       76% {
       animation-timing-function: step-end;
       stroke: black;
       stroke-dashoffset: 0;
       stroke-width: 128;
       }
       to {
       stroke: black;
       stroke-width: 1024;
       }
       }
       #make-me-a-hanzi-animation-18 {
         animation: keyframes18 1.021484s both;
         animation-delay: 12.586751s;
         animation-timing-function: linear;
       }
    @keyframes keyframes19 {
      from {
       stroke: black;
       stroke-dashoffset: 1108;
       stroke-width: 128;
       }
       78% {
       animation-timing-function: step-end;
       stroke: black;
       stroke-dashoffset: 0;
       stroke-width: 128;
       }
       to {
       stroke: black;
       stroke-width: 1024;
       }
       }
       #make-me-a-hanzi-animation-19 {
         animation: keyframes19 1.151693s both;
         animation-delay: 13.608236s;
         animation-timing-function: linear;
       }
</style>
<path d="M 231 652 Q 212 652 212 648 Q 212 645 248 601 Q 293 553 319 553 Q 340 553 340 572 Q 340 601 329 620 Q 313 638 288 646 Q 259 652 231 652 Z" fill="lightgray"></path> 
<path d="M 355 524 Q 341 524 321 517 Q 214 482 143 469 Q 128 466 128 461 Q 128 454 147 449 Q 173 440 196 440 Q 219 440 380 480 Q 395 485 395 501 Q 395 523 355 524 Z" fill="lightgray"></path> 
<path d="M 152 404 Q 147 404 147 400 Q 147 396 160 370 Q 191 297 212 297 Q 236 297 236 344 Q 236 367 201 385 Q 161 404 152 404 Z" fill="lightgray"></path> 
<path d="M 307 444 Q 299 444 299 436 Q 303 422 303 409 Q 303 386 295 356 Q 284 317 268 285 C 255 258 275 268 295 291 Q 297 293 301 298 Q 322 322 339 353 Q 356 384 362 395 Q 368 402 368 404 Q 368 414 338 431 Q 313 444 307 444 Z" fill="lightgray"></path> 
<path d="M 268 285 Q 220 274 159 262 Q 110 254 59 253 Q 43 251 43 241 Q 43 229 68 215 Q 89 201 103 201 Q 116 201 137 208 Q 179 222 226 237 L 270 249 Q 314 261 364 272 Q 378 275 380 289 Q 380 303 355 304 Q 343 304 295 291 L 268 285 Z" fill="lightgray"></path> 
<path d="M 244 158 Q 195 141 112 125 Q 99 123 99 117 Q 99 109 122 101 Q 146 92 168 92 Q 178 92 196 99 Q 210 102 239 112 L 287 125 Q 298 128 311 132 Q 335 136 361 146 Q 375 153 376 165 Q 373 183 311 184 Q 306 184 294 179 L 244 158 Z" fill="lightgray"></path> 
<path d="M 226 237 Q 244 204 244 172 L 244 158 L 239 112 Q 229 52 201 -5 Q 162 -85 114 -124 Q 95 -137 95 -139 Q 95 -143 103 -143 Q 121 -143 156 -116 Q 213 -67 252 16 Q 276 66 287 125 L 294 179 Q 296 199 296 220 Q 296 236 271 249 L 270 249 C 244 264 213 264 226 237 Z" fill="lightgray"></path> 
<path d="M 536 372 Q 495 365 456 353 Q 484 408 498 439 Q 516 479 543 525 Q 552 540 552 549 Q 552 563 529 586 Q 505 608 492 608 Q 483 608 483 600 Q 483 559 471 506 Q 462 451 442 406 Q 428 365 403 344 Q 389 337 387 321 Q 392 282 416 281 Q 419 281 428 291 Q 453 318 473 326 Q 493 335 522 341 C 551 348 566 377 536 372 Z" fill="lightgray"></path> 
<path d="M 563 465 Q 552 464 552 449 Q 552 410 536 372 L 522 341 Q 493 278 449 205 Q 423 164 391 148 Q 377 147 376 144 Q 376 129 387 117 Q 404 92 424 92 Q 431 92 445 106 Q 485 147 596 205 Q 603 208 603 216 Q 603 220 588 220 Q 582 218 474 177 Q 580 355 605 392 Q 614 402 615 413 Q 614 426 596 443 Q 574 464 563 465 Z" fill="lightgray"></path> 
<path d="M 607 121 Q 603 121 558 92 Q 412 14 364 6 Q 343 3 343 -7 Q 343 -16 365 -37 Q 392 -59 412 -59 Q 415 -59 436 -33 Q 474 4 586 81 Q 620 103 620 117 Q 620 121 607 121 Z" fill="lightgray"></path> 
<path d="M 687 677 Q 672 677 672 673 Q 672 670 705 628 Q 746 581 771 581 Q 787 581 787 597 Q 787 625 777 643 Q 763 662 740 670 Q 713 677 687 677 Z" fill="lightgray"></path> 
<path d="M 823 560 Q 816 560 800 553 Q 758 532 643 512 Q 632 511 632 505 Q 632 497 653 489 Q 679 480 699 480 Q 709 480 724 485 Q 749 490 823 509 Q 847 512 873 522 Q 887 528 888 541 Q 885 559 823 560 Z" fill="lightgray"></path> 
<path d="M 651 440 Q 647 440 647 436 Q 647 433 657 412 Q 683 352 699 352 Q 724 352 724 396 Q 724 413 694 427 Q 659 440 651 440 Z" fill="lightgray"></path> 
<path d="M 819 488 Q 811 488 811 476 Q 811 465 806 441 Q 798 403 785 374 Q 776 350 767 336 C 751 310 786 324 808 345 Q 838 373 863 421 Q 874 438 877 441 Q 880 443 880 444 Q 880 456 854 473 Q 831 488 819 488 Z" fill="lightgray"></path> 
<path d="M 767 336 Q 718 325 676 317 Q 640 311 599 308 Q 577 308 575 297 Q 577 293 590 288 Q 613 278 636 276 Q 647 276 676 284 Q 692 287 710 290 L 754 298 Q 786 303 826 309 Q 882 315 947 316 Q 968 316 968 333 Q 968 345 950 355 Q 933 365 911 365 Q 890 365 866 358 Q 837 351 808 345 L 767 336 Z" fill="lightgray"></path> 
<path d="M 731 194 Q 706 188 683 184 Q 653 178 620 176 Q 597 176 596 165 Q 597 160 610 154 Q 636 142 659 140 Q 670 140 693 146 Q 711 150 731 153 L 783 162 Q 800 164 818 167 Q 864 171 920 172 Q 943 172 943 188 Q 943 203 925 214 Q 904 224 880 224 Q 861 224 842 219 Q 812 211 783 205 L 731 194 Z" fill="lightgray"></path> 
<path d="M 710 290 Q 712 288 715 281 Q 728 254 731 211 L 731 194 L 731 153 L 731 -160 Q 735 -204 748 -204 Q 760 -204 773 -167 Q 783 -121 783 -35 L 783 162 L 783 205 L 783 220 Q 783 229 792 260 Q 792 271 760 294 L 754 298 C 729 315 696 317 710 290 Z" fill="lightgray"></path> 
<path d="M 1556 410 L 1687 511 Q 1708 527 1745 548 Q 1783 569 1783 574 Q 1790 594 1730 630 Q 1696 650 1675 650 Q 1655 650 1623 640 Q 1591 630 1577 628 L 1523 618 Q 1479 610 1414 603 Q 1350 596 1338 596 L 1312 594 Q 1294 594 1294 587 Q 1292 583 1300 575 Q 1342 543 1360 547 Q 1369 547 1384 552 L 1452 566 L 1586 588 Q 1633 595 1646 590 Q 1657 582 1644 561 L 1622 533 L 1533 427 C 1514 404 1532 392 1556 410 Z" fill="lightgray"></path> 
<path d="M 1524 242 L 1526 189 L 1524 110 Q 1521 31 1507 -31 Q 1501 -65 1481 -71 Q 1474 -75 1457 -70 L 1420 -60 Q 1400 -56 1394 -61 Q 1392 -66 1399 -70 L 1442 -114 Q 1467 -141 1480 -158 Q 1493 -175 1498 -178 Q 1510 -188 1524 -174 Q 1531 -169 1544 -148 Q 1556 -131 1562 -110 Q 1579 -36 1579 8 L 1583 104 L 1579 244 L 1575 289 L 1570 368 Q 1568 391 1565 397 L 1556 410 C 1549 422 1549 422 1533 427 L 1518 432 L 1498 436 Q 1488 438 1484 434 Q 1480 433 1480 428 Q 1480 423 1488 417 Q 1500 403 1502 399 Q 1517 369 1519 340 L 1523 286 L 1524 242 Z" fill="lightgray"></path> 
<path d="M 1523 286 L 1199 260 Q 1185 258 1169 258 L 1139 258 L 1115 256 Q 1092 257 1105 236 Q 1111 227 1136 211 Q 1162 195 1183 198 L 1281 218 Q 1331 229 1451 238 L 1524 242 L 1579 244 L 1699 249 L 1896 248 L 1939 249 Q 1956 249 1960 253 Q 1966 255 1968 263 Q 1970 270 1959 283 Q 1948 295 1890 316 Q 1879 320 1862 320 L 1754 304 Q 1709 299 1688 298 L 1575 289 L 1523 286 Z" fill="lightgray"></path> 
      <clipPath id="make-me-a-hanzi-clip-0">
      <path d="M 231 652 Q 212 652 212 648 Q 212 645 248 601 Q 293 553 319 553 Q 340 553 340 572 Q 340 601 329 620 Q 313 638 288 646 Q 259 652 231 652 Z" fill="lightgray"></path>
      </clipPath>
      <path clip-path="url(#make-me-a-hanzi-clip-0)" d="M 216 647 L 295 604 L 322 570 " fill="none" id="make-me-a-hanzi-animation-0" stroke-dasharray="261 522" stroke-linecap="round"></path>

      <clipPath id="make-me-a-hanzi-clip-1">
      <path d="M 355 524 Q 341 524 321 517 Q 214 482 143 469 Q 128 466 128 461 Q 128 454 147 449 Q 173 440 196 440 Q 219 440 380 480 Q 395 485 395 501 Q 395 523 355 524 Z" fill="lightgray"></path>
      </clipPath>
      <path clip-path="url(#make-me-a-hanzi-clip-1)" d="M 134 460 L 197 460 L 352 499 L 375 500 " fill="none" id="make-me-a-hanzi-animation-1" stroke-dasharray="374 748" stroke-linecap="round"></path>

      <clipPath id="make-me-a-hanzi-clip-2">
      <path d="M 152 404 Q 147 404 147 400 Q 147 396 160 370 Q 191 297 212 297 Q 236 297 236 344 Q 236 367 201 385 Q 161 404 152 404 Z" fill="lightgray"></path>
      </clipPath>
      <path clip-path="url(#make-me-a-hanzi-clip-2)" d="M 152 399 L 206 344 L 213 314 " fill="none" id="make-me-a-hanzi-animation-2" stroke-dasharray="236 472" stroke-linecap="round"></path>

      <clipPath id="make-me-a-hanzi-clip-3">
      <path d="M 307 444 Q 299 444 299 436 Q 303 422 303 409 Q 303 386 295 356 Q 284 317 268 285 C 255 258 275 268 295 291 Q 297 293 301 298 Q 322 322 339 353 Q 356 384 362 395 Q 368 402 368 404 Q 368 414 338 431 Q 313 444 307 444 Z" fill="lightgray"></path>
      </clipPath>
      <path clip-path="url(#make-me-a-hanzi-clip-3)" d="M 308 435 L 332 402 L 307 333 L 289 302 L 274 290 " fill="none" id="make-me-a-hanzi-animation-3" stroke-dasharray="297 594" stroke-linecap="round"></path>

      <clipPath id="make-me-a-hanzi-clip-4">
      <path d="M 268 285 Q 220 274 159 262 Q 110 254 59 253 Q 43 251 43 241 Q 43 229 68 215 Q 89 201 103 201 Q 116 201 137 208 Q 179 222 226 237 L 270 249 Q 314 261 364 272 Q 378 275 380 289 Q 380 303 355 304 Q 343 304 295 291 L 268 285 Z" fill="lightgray"></path>
      </clipPath>
      <path clip-path="url(#make-me-a-hanzi-clip-4)" d="M 54 240 L 112 229 L 366 288 " fill="none" id="make-me-a-hanzi-animation-4" stroke-dasharray="448 896" stroke-linecap="round"></path>

      <clipPath id="make-me-a-hanzi-clip-5">
      <path d="M 244 158 Q 195 141 112 125 Q 99 123 99 117 Q 99 109 122 101 Q 146 92 168 92 Q 178 92 196 99 Q 210 102 239 112 L 287 125 Q 298 128 311 132 Q 335 136 361 146 Q 375 153 376 165 Q 373 183 311 184 Q 306 184 294 179 L 244 158 Z" fill="lightgray"></path>
      </clipPath>
      <path clip-path="url(#make-me-a-hanzi-clip-5)" d="M 108 117 L 171 114 L 308 157 L 365 163 " fill="none" id="make-me-a-hanzi-animation-5" stroke-dasharray="392 784" stroke-linecap="round"></path>

      <clipPath id="make-me-a-hanzi-clip-6">
      <path d="M 226 237 Q 244 204 244 172 L 244 158 L 239 112 Q 229 52 201 -5 Q 162 -85 114 -124 Q 95 -137 95 -139 Q 95 -143 103 -143 Q 121 -143 156 -116 Q 213 -67 252 16 Q 276 66 287 125 L 294 179 Q 296 199 296 220 Q 296 236 271 249 L 270 249 C 244 264 213 264 226 237 Z" fill="lightgray"></path>
      </clipPath>
      <path clip-path="url(#make-me-a-hanzi-clip-6)" d="M 235 233 L 267 217 L 269 201 L 264 122 L 243 43 L 219 -11 L 172 -83 L 129 -126 L 100 -139 " fill="none" id="make-me-a-hanzi-animation-6" stroke-dasharray="578 1156" stroke-linecap="round"></path>

      <clipPath id="make-me-a-hanzi-clip-7">
      <path d="M 536 372 Q 495 365 456 353 Q 484 408 498 439 Q 516 479 543 525 Q 552 540 552 549 Q 552 563 529 586 Q 505 608 492 608 Q 483 608 483 600 Q 483 559 471 506 Q 462 451 442 406 Q 428 365 403 344 Q 389 337 387 321 Q 392 282 416 281 Q 419 281 428 291 Q 453 318 473 326 Q 493 335 522 341 C 551 348 566 377 536 372 Z" fill="lightgray"></path>
      </clipPath>
      <path clip-path="url(#make-me-a-hanzi-clip-7)" d="M 494 596 L 515 547 L 473 430 L 439 361 L 434 335 L 512 352 L 530 369 " fill="none" id="make-me-a-hanzi-animation-7" stroke-dasharray="514 1028" stroke-linecap="round"></path>

      <clipPath id="make-me-a-hanzi-clip-8">
      <path d="M 563 465 Q 552 464 552 449 Q 552 410 536 372 L 522 341 Q 493 278 449 205 Q 423 164 391 148 Q 377 147 376 144 Q 376 129 387 117 Q 404 92 424 92 Q 431 92 445 106 Q 485 147 596 205 Q 603 208 603 216 Q 603 220 588 220 Q 582 218 474 177 Q 580 355 605 392 Q 614 402 615 413 Q 614 426 596 443 Q 574 464 563 465 Z" fill="lightgray"></path>
      </clipPath>
      <path clip-path="url(#make-me-a-hanzi-clip-8)" d="M 564 454 L 581 413 L 530 308 L 459 189 L 451 154 L 473 156 L 594 214 " fill="none" id="make-me-a-hanzi-animation-8" stroke-dasharray="620 1240" stroke-linecap="round"></path>

      <clipPath id="make-me-a-hanzi-clip-9">
      <path d="M 607 121 Q 603 121 558 92 Q 412 14 364 6 Q 343 3 343 -7 Q 343 -16 365 -37 Q 392 -59 412 -59 Q 415 -59 436 -33 Q 474 4 586 81 Q 620 103 620 117 Q 620 121 607 121 Z" fill="lightgray"></path>
      </clipPath>
      <path clip-path="url(#make-me-a-hanzi-clip-9)" d="M 353 -8 L 401 -20 L 571 84 L 612 115 " fill="none" id="make-me-a-hanzi-animation-9" stroke-dasharray="428 856" stroke-linecap="round"></path>

      <clipPath id="make-me-a-hanzi-clip-10">
      <path d="M 687 677 Q 672 677 672 673 Q 672 670 705 628 Q 746 581 771 581 Q 787 581 787 597 Q 787 625 777 643 Q 763 662 740 670 Q 713 677 687 677 Z" fill="lightgray"></path>
      </clipPath>
      <path clip-path="url(#make-me-a-hanzi-clip-10)" d="M 680 674 L 735 640 L 773 595 " fill="none" id="make-me-a-hanzi-animation-10" stroke-dasharray="252 504" stroke-linecap="round"></path>

      <clipPath id="make-me-a-hanzi-clip-11">
      <path d="M 823 560 Q 816 560 800 553 Q 758 532 643 512 Q 632 511 632 505 Q 632 497 653 489 Q 679 480 699 480 Q 709 480 724 485 Q 749 490 823 509 Q 847 512 873 522 Q 887 528 888 541 Q 885 559 823 560 Z" fill="lightgray"></path>
      </clipPath>
      <path clip-path="url(#make-me-a-hanzi-clip-11)" d="M 640 505 L 702 501 L 823 535 L 876 539 " fill="none" id="make-me-a-hanzi-animation-11" stroke-dasharray="369 738" stroke-linecap="round"></path>

      <clipPath id="make-me-a-hanzi-clip-12">
      <path d="M 651 440 Q 647 440 647 436 Q 647 433 657 412 Q 683 352 699 352 Q 724 352 724 396 Q 724 413 694 427 Q 659 440 651 440 Z" fill="lightgray"></path>
      </clipPath>
      <path clip-path="url(#make-me-a-hanzi-clip-12)" d="M 653 434 L 696 393 L 701 368 " fill="none" id="make-me-a-hanzi-animation-12" stroke-dasharray="213 426" stroke-linecap="round"></path>

      <clipPath id="make-me-a-hanzi-clip-13">
      <path d="M 819 488 Q 811 488 811 476 Q 811 465 806 441 Q 798 403 785 374 Q 776 350 767 336 C 751 310 786 324 808 345 Q 838 373 863 421 Q 874 438 877 441 Q 880 443 880 444 Q 880 456 854 473 Q 831 488 819 488 Z" fill="lightgray"></path>
      </clipPath>
      <path clip-path="url(#make-me-a-hanzi-clip-13)" d="M 822 477 L 835 456 L 833 427 L 800 363 L 773 339 " fill="none" id="make-me-a-hanzi-animation-13" stroke-dasharray="290 580" stroke-linecap="round"></path>

      <clipPath id="make-me-a-hanzi-clip-14">
      <path d="M 767 336 Q 718 325 676 317 Q 640 311 599 308 Q 577 308 575 297 Q 577 293 590 288 Q 613 278 636 276 Q 647 276 676 284 Q 692 287 710 290 L 754 298 Q 786 303 826 309 Q 882 315 947 316 Q 968 316 968 333 Q 968 345 950 355 Q 933 365 911 365 Q 890 365 866 358 Q 837 351 808 345 L 767 336 Z" fill="lightgray"></path>
      </clipPath>
      <path clip-path="url(#make-me-a-hanzi-clip-14)" d="M 581 299 L 649 295 L 879 338 L 926 340 L 951 333 " fill="none" id="make-me-a-hanzi-animation-14" stroke-dasharray="503 1006" stroke-linecap="round"></path>

      <clipPath id="make-me-a-hanzi-clip-15">
      <path d="M 731 194 Q 706 188 683 184 Q 653 178 620 176 Q 597 176 596 165 Q 597 160 610 154 Q 636 142 659 140 Q 670 140 693 146 Q 711 150 731 153 L 783 162 Q 800 164 818 167 Q 864 171 920 172 Q 943 172 943 188 Q 943 203 925 214 Q 904 224 880 224 Q 861 224 842 219 Q 812 211 783 205 L 731 194 Z" fill="lightgray"></path>
      </clipPath>
      <path clip-path="url(#make-me-a-hanzi-clip-15)" d="M 603 166 L 670 161 L 875 198 L 925 189 " fill="none" id="make-me-a-hanzi-animation-15" stroke-dasharray="454 908" stroke-linecap="round"></path>

      <clipPath id="make-me-a-hanzi-clip-16">
      <path d="M 710 290 Q 712 288 715 281 Q 728 254 731 211 L 731 194 L 731 153 L 731 -160 Q 735 -204 748 -204 Q 760 -204 773 -167 Q 783 -121 783 -35 L 783 162 L 783 205 L 783 220 Q 783 229 792 260 Q 792 271 760 294 L 754 298 C 729 315 696 317 710 290 Z" fill="lightgray"></path>
      </clipPath>
      <path clip-path="url(#make-me-a-hanzi-clip-16)" d="M 718 288 L 752 266 L 757 255 L 757 -94 L 748 -195 " fill="none" id="make-me-a-hanzi-animation-16" stroke-dasharray="631 1262" stroke-linecap="round"></path>

      <clipPath id="make-me-a-hanzi-clip-17">
      <path d="M 1556 410 L 1687 511 Q 1708 527 1745 548 Q 1783 569 1783 574 Q 1790 594 1730 630 Q 1696 650 1675 650 Q 1655 650 1623 640 Q 1591 630 1577 628 L 1523 618 Q 1479 610 1414 603 Q 1350 596 1338 596 L 1312 594 Q 1294 594 1294 587 Q 1292 583 1300 575 Q 1342 543 1360 547 Q 1369 547 1384 552 L 1452 566 L 1586 588 Q 1633 595 1646 590 Q 1657 582 1644 561 L 1622 533 L 1533 427 C 1514 404 1532 392 1556 410 Z" fill="lightgray"></path>
      </clipPath>
      <path clip-path="url(#make-me-a-hanzi-clip-17)" d="M 1303 584 L 1362 572 L 1620 616 L 1651 619 L 1682 609 L 1703 585 L 1690 563 L 1575 447 L 1556 430 L 1543 429 " fill="none" id="make-me-a-hanzi-animation-17" stroke-dasharray="773 1546" stroke-linecap="round"></path>

      <clipPath id="make-me-a-hanzi-clip-18">
      <path d="M 1524 242 L 1526 189 L 1524 110 Q 1521 31 1507 -31 Q 1501 -65 1481 -71 Q 1474 -75 1457 -70 L 1420 -60 Q 1400 -56 1394 -61 Q 1392 -66 1399 -70 L 1442 -114 Q 1467 -141 1480 -158 Q 1493 -175 1498 -178 Q 1510 -188 1524 -174 Q 1531 -169 1544 -148 Q 1556 -131 1562 -110 Q 1579 -36 1579 8 L 1583 104 L 1579 244 L 1575 289 L 1570 368 Q 1568 391 1565 397 L 1556 410 C 1549 422 1549 422 1533 427 L 1518 432 L 1498 436 Q 1488 438 1484 434 Q 1480 433 1480 428 Q 1480 423 1488 417 Q 1500 403 1502 399 Q 1517 369 1519 340 L 1523 286 L 1524 242 Z" fill="lightgray"></path>
      </clipPath>
      <path clip-path="url(#make-me-a-hanzi-clip-18)" d="M 1489 426 L 1519 411 L 1535 393 L 1546 343 L 1554 111 L 1542 -32 L 1524 -92 L 1505 -113 L 1468 -102 L 1400 -64 " fill="none" id="make-me-a-hanzi-animation-18" stroke-dasharray="820 1640" stroke-linecap="round"></path>

      <clipPath id="make-me-a-hanzi-clip-19">
      <path d="M 1523 286 L 1199 260 Q 1185 258 1169 258 L 1139 258 L 1115 256 Q 1092 257 1105 236 Q 1111 227 1136 211 Q 1162 195 1183 198 L 1281 218 Q 1331 229 1451 238 L 1524 242 L 1579 244 L 1699 249 L 1896 248 L 1939 249 Q 1956 249 1960 253 Q 1966 255 1968 263 Q 1970 270 1959 283 Q 1948 295 1890 316 Q 1879 320 1862 320 L 1754 304 Q 1709 299 1688 298 L 1575 289 L 1523 286 Z" fill="lightgray"></path>
      </clipPath>
      <path clip-path="url(#make-me-a-hanzi-clip-19)" d="M 1111 246 L 1141 234 L 1184 228 L 1424 258 L 1858 284 L 1925 275 L 1955 265 " fill="none" id="make-me-a-hanzi-animation-19" stroke-dasharray="980 1960" stroke-linecap="round"></path>

</g>
</svg>
