<svg version="1.1" viewBox="0 0 4096 1024" xmlns="http://www.w3.org/2000/svg">
  <g stroke="lightgray" stroke-dasharray="1,1" stroke-width="1" transform="scale(4, 4)">
    <line x1="0" y1="0" x2="256" y2="256"></line>
    <line x1="256" y1="0" x2="0" y2="256"></line>
    <line x1="128" y1="0" x2="128" y2="256"></line>
    <line x1="0" y1="128" x2="256" y2="128"></line>
    <line x1="256" y1="0" x2="512" y2="256"></line>
    <line x1="512" y1="0" x2="256" y2="256"></line>
    <line x1="384" y1="0" x2="384" y2="256"></line>
    <line x1="256" y1="128" x2="512" y2="128"></line>
    <line x1="512" y1="0" x2="768" y2="256"></line>
    <line x1="768" y1="0" x2="512" y2="256"></line>
    <line x1="640" y1="0" x2="640" y2="256"></line>
    <line x1="512" y1="128" x2="768" y2="128"></line>
    <line x1="768" y1="0" x2="1024" y2="256"></line>
    <line x1="1024" y1="0" x2="768" y2="256"></line>
    <line x1="896" y1="0" x2="896" y2="256"></line>
    <line x1="768" y1="128" x2="1024" y2="128"></line>
  </g>
<g transform="scale(1, -1) translate(0, -850)">
   <style type="text/css">
    @keyframes keyframes0 {
      from {
       stroke: black;
       stroke-dashoffset: 402;
       stroke-width: 128;
       }
       57% {
       animation-timing-function: step-end;
       stroke: black;
       stroke-dashoffset: 0;
       stroke-width: 128;
       }
       to {
       stroke: black;
       stroke-width: 1024;
       }
       }
       #make-me-a-hanzi-animation-0 {
         animation: keyframes0 0.577148s both;
         animation-delay: 0.000000s;
         animation-timing-function: linear;
       }
    @keyframes keyframes1 {
      from {
       stroke: black;
       stroke-dashoffset: 668;
       stroke-width: 128;
       }
       68% {
       animation-timing-function: step-end;
       stroke: black;
       stroke-dashoffset: 0;
       stroke-width: 128;
       }
       to {
       stroke: black;
       stroke-width: 1024;
       }
       }
       #make-me-a-hanzi-animation-1 {
         animation: keyframes1 0.793620s both;
         animation-delay: 0.577148s;
         animation-timing-function: linear;
       }
    @keyframes keyframes2 {
      from {
       stroke: black;
       stroke-dashoffset: 756;
       stroke-width: 128;
       }
       71% {
       animation-timing-function: step-end;
       stroke: black;
       stroke-dashoffset: 0;
       stroke-width: 128;
       }
       to {
       stroke: black;
       stroke-width: 1024;
       }
       }
       #make-me-a-hanzi-animation-2 {
         animation: keyframes2 0.865234s both;
         animation-delay: 1.370768s;
         animation-timing-function: linear;
       }
    @keyframes keyframes3 {
      from {
       stroke: black;
       stroke-dashoffset: 681;
       stroke-width: 128;
       }
       69% {
       animation-timing-function: step-end;
       stroke: black;
       stroke-dashoffset: 0;
       stroke-width: 128;
       }
       to {
       stroke: black;
       stroke-width: 1024;
       }
       }
       #make-me-a-hanzi-animation-3 {
         animation: keyframes3 0.804199s both;
         animation-delay: 2.236003s;
         animation-timing-function: linear;
       }
    @keyframes keyframes4 {
      from {
       stroke: black;
       stroke-dashoffset: 410;
       stroke-width: 128;
       }
       57% {
       animation-timing-function: step-end;
       stroke: black;
       stroke-dashoffset: 0;
       stroke-width: 128;
       }
       to {
       stroke: black;
       stroke-width: 1024;
       }
       }
       #make-me-a-hanzi-animation-4 {
         animation: keyframes4 0.583659s both;
         animation-delay: 3.040202s;
         animation-timing-function: linear;
       }
    @keyframes keyframes5 {
      from {
       stroke: black;
       stroke-dashoffset: 795;
       stroke-width: 128;
       }
       72% {
       animation-timing-function: step-end;
       stroke: black;
       stroke-dashoffset: 0;
       stroke-width: 128;
       }
       to {
       stroke: black;
       stroke-width: 1024;
       }
       }
       #make-me-a-hanzi-animation-5 {
         animation: keyframes5 0.896973s both;
         animation-delay: 3.623861s;
         animation-timing-function: linear;
       }
    @keyframes keyframes6 {
      from {
       stroke: black;
       stroke-dashoffset: 1100;
       stroke-width: 128;
       }
       78% {
       animation-timing-function: step-end;
       stroke: black;
       stroke-dashoffset: 0;
       stroke-width: 128;
       }
       to {
       stroke: black;
       stroke-width: 1024;
       }
       }
       #make-me-a-hanzi-animation-6 {
         animation: keyframes6 1.145182s both;
         animation-delay: 4.520833s;
         animation-timing-function: linear;
       }
    @keyframes keyframes7 {
      from {
       stroke: black;
       stroke-dashoffset: 571;
       stroke-width: 128;
       }
       65% {
       animation-timing-function: step-end;
       stroke: black;
       stroke-dashoffset: 0;
       stroke-width: 128;
       }
       to {
       stroke: black;
       stroke-width: 1024;
       }
       }
       #make-me-a-hanzi-animation-7 {
         animation: keyframes7 0.714681s both;
         animation-delay: 5.666016s;
         animation-timing-function: linear;
       }
    @keyframes keyframes8 {
      from {
       stroke: black;
       stroke-dashoffset: 1096;
       stroke-width: 128;
       }
       78% {
       animation-timing-function: step-end;
       stroke: black;
       stroke-dashoffset: 0;
       stroke-width: 128;
       }
       to {
       stroke: black;
       stroke-width: 1024;
       }
       }
       #make-me-a-hanzi-animation-8 {
         animation: keyframes8 1.141927s both;
         animation-delay: 6.380697s;
         animation-timing-function: linear;
       }
    @keyframes keyframes9 {
      from {
       stroke: black;
       stroke-dashoffset: 700;
       stroke-width: 128;
       }
       69% {
       animation-timing-function: step-end;
       stroke: black;
       stroke-dashoffset: 0;
       stroke-width: 128;
       }
       to {
       stroke: black;
       stroke-width: 1024;
       }
       }
       #make-me-a-hanzi-animation-9 {
         animation: keyframes9 0.819661s both;
         animation-delay: 7.522624s;
         animation-timing-function: linear;
       }
    @keyframes keyframes10 {
      from {
       stroke: black;
       stroke-dashoffset: 393;
       stroke-width: 128;
       }
       56% {
       animation-timing-function: step-end;
       stroke: black;
       stroke-dashoffset: 0;
       stroke-width: 128;
       }
       to {
       stroke: black;
       stroke-width: 1024;
       }
       }
       #make-me-a-hanzi-animation-10 {
         animation: keyframes10 0.569824s both;
         animation-delay: 8.342285s;
         animation-timing-function: linear;
       }
    @keyframes keyframes11 {
      from {
       stroke: black;
       stroke-dashoffset: 375;
       stroke-width: 128;
       }
       55% {
       animation-timing-function: step-end;
       stroke: black;
       stroke-dashoffset: 0;
       stroke-width: 128;
       }
       to {
       stroke: black;
       stroke-width: 1024;
       }
       }
       #make-me-a-hanzi-animation-11 {
         animation: keyframes11 0.555176s both;
         animation-delay: 8.912109s;
         animation-timing-function: linear;
       }
    @keyframes keyframes12 {
      from {
       stroke: black;
       stroke-dashoffset: 459;
       stroke-width: 128;
       }
       60% {
       animation-timing-function: step-end;
       stroke: black;
       stroke-dashoffset: 0;
       stroke-width: 128;
       }
       to {
       stroke: black;
       stroke-width: 1024;
       }
       }
       #make-me-a-hanzi-animation-12 {
         animation: keyframes12 0.623535s both;
         animation-delay: 9.467285s;
         animation-timing-function: linear;
       }
    @keyframes keyframes13 {
      from {
       stroke: black;
       stroke-dashoffset: 571;
       stroke-width: 128;
       }
       65% {
       animation-timing-function: step-end;
       stroke: black;
       stroke-dashoffset: 0;
       stroke-width: 128;
       }
       to {
       stroke: black;
       stroke-width: 1024;
       }
       }
       #make-me-a-hanzi-animation-13 {
         animation: keyframes13 0.714681s both;
         animation-delay: 10.090820s;
         animation-timing-function: linear;
       }
    @keyframes keyframes14 {
      from {
       stroke: black;
       stroke-dashoffset: 553;
       stroke-width: 128;
       }
       64% {
       animation-timing-function: step-end;
       stroke: black;
       stroke-dashoffset: 0;
       stroke-width: 128;
       }
       to {
       stroke: black;
       stroke-width: 1024;
       }
       }
       #make-me-a-hanzi-animation-14 {
         animation: keyframes14 0.700033s both;
         animation-delay: 10.805501s;
         animation-timing-function: linear;
       }
    @keyframes keyframes15 {
      from {
       stroke: black;
       stroke-dashoffset: 789;
       stroke-width: 128;
       }
       72% {
       animation-timing-function: step-end;
       stroke: black;
       stroke-dashoffset: 0;
       stroke-width: 128;
       }
       to {
       stroke: black;
       stroke-width: 1024;
       }
       }
       #make-me-a-hanzi-animation-15 {
         animation: keyframes15 0.892090s both;
         animation-delay: 11.505534s;
         animation-timing-function: linear;
       }
    @keyframes keyframes16 {
      from {
       stroke: black;
       stroke-dashoffset: 876;
       stroke-width: 128;
       }
       74% {
       animation-timing-function: step-end;
       stroke: black;
       stroke-dashoffset: 0;
       stroke-width: 128;
       }
       to {
       stroke: black;
       stroke-width: 1024;
       }
       }
       #make-me-a-hanzi-animation-16 {
         animation: keyframes16 0.962891s both;
         animation-delay: 12.397624s;
         animation-timing-function: linear;
       }
    @keyframes keyframes17 {
      from {
       stroke: black;
       stroke-dashoffset: 1030;
       stroke-width: 128;
       }
       77% {
       animation-timing-function: step-end;
       stroke: black;
       stroke-dashoffset: 0;
       stroke-width: 128;
       }
       to {
       stroke: black;
       stroke-width: 1024;
       }
       }
       #make-me-a-hanzi-animation-17 {
         animation: keyframes17 1.088216s both;
         animation-delay: 13.360514s;
         animation-timing-function: linear;
       }
    @keyframes keyframes18 {
      from {
       stroke: black;
       stroke-dashoffset: 608;
       stroke-width: 128;
       }
       66% {
       animation-timing-function: step-end;
       stroke: black;
       stroke-dashoffset: 0;
       stroke-width: 128;
       }
       to {
       stroke: black;
       stroke-width: 1024;
       }
       }
       #make-me-a-hanzi-animation-18 {
         animation: keyframes18 0.744792s both;
         animation-delay: 14.448730s;
         animation-timing-function: linear;
       }
    @keyframes keyframes19 {
      from {
       stroke: black;
       stroke-dashoffset: 399;
       stroke-width: 128;
       }
       56% {
       animation-timing-function: step-end;
       stroke: black;
       stroke-dashoffset: 0;
       stroke-width: 128;
       }
       to {
       stroke: black;
       stroke-width: 1024;
       }
       }
       #make-me-a-hanzi-animation-19 {
         animation: keyframes19 0.574707s both;
         animation-delay: 15.193522s;
         animation-timing-function: linear;
       }
    @keyframes keyframes20 {
      from {
       stroke: black;
       stroke-dashoffset: 457;
       stroke-width: 128;
       }
       60% {
       animation-timing-function: step-end;
       stroke: black;
       stroke-dashoffset: 0;
       stroke-width: 128;
       }
       to {
       stroke: black;
       stroke-width: 1024;
       }
       }
       #make-me-a-hanzi-animation-20 {
         animation: keyframes20 0.621908s both;
         animation-delay: 15.768229s;
         animation-timing-function: linear;
       }
    @keyframes keyframes21 {
      from {
       stroke: black;
       stroke-dashoffset: 828;
       stroke-width: 128;
       }
       73% {
       animation-timing-function: step-end;
       stroke: black;
       stroke-dashoffset: 0;
       stroke-width: 128;
       }
       to {
       stroke: black;
       stroke-width: 1024;
       }
       }
       #make-me-a-hanzi-animation-21 {
         animation: keyframes21 0.923828s both;
         animation-delay: 16.390137s;
         animation-timing-function: linear;
       }
    @keyframes keyframes22 {
      from {
       stroke: black;
       stroke-dashoffset: 1147;
       stroke-width: 128;
       }
       79% {
       animation-timing-function: step-end;
       stroke: black;
       stroke-dashoffset: 0;
       stroke-width: 128;
       }
       to {
       stroke: black;
       stroke-width: 1024;
       }
       }
       #make-me-a-hanzi-animation-22 {
         animation: keyframes22 1.183431s both;
         animation-delay: 17.313965s;
         animation-timing-function: linear;
       }
    @keyframes keyframes23 {
      from {
       stroke: black;
       stroke-dashoffset: 741;
       stroke-width: 128;
       }
       71% {
       animation-timing-function: step-end;
       stroke: black;
       stroke-dashoffset: 0;
       stroke-width: 128;
       }
       to {
       stroke: black;
       stroke-width: 1024;
       }
       }
       #make-me-a-hanzi-animation-23 {
         animation: keyframes23 0.853027s both;
         animation-delay: 18.497396s;
         animation-timing-function: linear;
       }
    @keyframes keyframes24 {
      from {
       stroke: black;
       stroke-dashoffset: 755;
       stroke-width: 128;
       }
       71% {
       animation-timing-function: step-end;
       stroke: black;
       stroke-dashoffset: 0;
       stroke-width: 128;
       }
       to {
       stroke: black;
       stroke-width: 1024;
       }
       }
       #make-me-a-hanzi-animation-24 {
         animation: keyframes24 0.864421s both;
         animation-delay: 19.350423s;
         animation-timing-function: linear;
       }
</style>
<path d="M 549 730 Q 633 646 665 648 Q 681 648 688 671 Q 688 687 674 712 Q 658 734 625 743 Q 573 762 551 764 Q 539 765 540 751 Q 539 741 549 730 Z" fill="lightgray"></path> 
<path d="M 712 540 Q 740 552 846 567 Q 856 566 866 581 Q 867 594 841 604 Q 807 625 733 598 Q 526 547 455 534 Q 424 528 449 510 Q 485 486 526 496 Q 587 514 666 531 L 712 540 Z" fill="lightgray"></path> 
<path d="M 664 307 Q 677 329 722 436 Q 731 464 747 486 Q 759 502 744 514 Q 729 529 712 540 C 688 557 659 560 666 531 Q 685 477 630 353 Q 627 350 626 345 Q 623 341 619 334 L 596 298 Q 535 223 430 174 Q 417 167 428 162 Q 441 159 478 167 Q 526 180 564 205 Q 607 230 633 263 Q 633 264 634 265 L 664 307 Z" fill="lightgray"></path> 
<path d="M 634 265 Q 706 202 763 137 Q 776 118 792 109 Q 804 103 815 121 Q 822 137 817 168 Q 814 213 664 307 L 619 334 Q 496 415 481 411 Q 475 410 475 397 Q 476 388 493 377 Q 547 338 596 298 L 634 265 Z" fill="lightgray"></path> 
<path d="M 269 676 Q 296 651 325 619 Q 340 603 358 604 Q 370 604 376 619 Q 383 635 374 670 Q 365 703 265 731 Q 247 735 240 733 Q 234 729 235 714 Q 239 701 269 676 Z" fill="lightgray"></path> 
<path d="M 330 147 Q 339 156 344 168 Q 356 208 312 279 Q 282 331 349 422 Q 355 431 362 438 Q 384 456 364 472 Q 345 488 309 502 Q 287 515 269 497 Q 235 475 192 459 Q 134 437 116 440 Q 109 440 106 435 Q 105 431 113 426 Q 155 405 259 444 Q 269 447 278 435 Q 300 413 278 382 Q 230 328 271 266 Q 304 208 303 176 Q 303 160 299 149 C 293 120 312 123 330 147 Z" fill="lightgray"></path> 
<path d="M 299 149 Q 256 152 212 137 Q 172 121 111 115 Q 104 115 101 107 Q 98 100 107 90 Q 123 71 148 59 Q 160 53 178 67 Q 254 121 328 107 Q 392 94 519 36 Q 741 -67 820 -40 Q 883 -18 936 19 Q 958 35 935 34 Q 713 34 593 64 Q 508 88 401 128 Q 365 143 330 147 L 299 149 Z" fill="lightgray"></path> 
<path d="M 1351 485 Q 1432 515 1433 515 Q 1440 522 1436 531 Q 1429 541 1399 547 Q 1374 551 1353 541 L 1310 523 Q 1201 487 1130 475 Q 1096 466 1122 452 Q 1168 431 1217 448 Q 1254 458 1295 469 L 1351 485 Z" fill="lightgray"></path> 
<path d="M 1349 400 Q 1349 440 1351 485 L 1353 541 Q 1354 634 1373 696 Q 1382 711 1379 724 Q 1372 734 1318 767 Q 1296 783 1275 769 Q 1271 765 1276 749 Q 1309 700 1309 651 Q 1309 591 1310 523 L 1306 369 Q 1302 287 1301 200 Q 1297 122 1275 51 Q 1263 8 1289 -48 Q 1295 -66 1303 -69 Q 1309 -76 1316 -67 Q 1323 -63 1334 -43 Q 1344 -18 1343 12 Q 1342 54 1348 368 L 1349 400 Z" fill="lightgray"></path> 
<path d="M 1295 469 Q 1243 322 1074 92 Q 1068 82 1080 81 Q 1086 80 1096 89 Q 1225 204 1306 369 C 1371 499 1305 497 1295 469 Z" fill="lightgray"></path> 
<path d="M 1348 368 Q 1424 292 1432 289 L 1435 289 Q 1444 288 1449 299 Q 1453 311 1449 335 Q 1446 354 1418 372 Q 1358 400 1349 400 C 1319 405 1327 389 1348 368 Z" fill="lightgray"></path> 
<path d="M 1529 667 Q 1550 645 1572 620 Q 1584 607 1598 607 Q 1608 607 1613 619 Q 1617 632 1612 660 Q 1605 687 1528 711 Q 1515 715 1508 713 Q 1504 709 1504 698 Q 1505 688 1529 667 Z" fill="lightgray"></path> 
<path d="M 1748 737 Q 1724 692 1674 623 Q 1670 616 1675 609 Q 1682 608 1690 613 Q 1778 692 1822 723 Q 1838 730 1834 740 Q 1827 755 1806 772 Q 1785 788 1763 788 Q 1748 787 1751 767 Q 1755 754 1748 737 Z" fill="lightgray"></path> 
<path d="M 1661 503 Q 1821 542 1827 547 Q 1836 554 1831 563 Q 1824 573 1796 580 Q 1769 586 1680 554 Q 1563 527 1520 522 Q 1486 515 1511 500 Q 1550 479 1607 491 L 1661 503 Z" fill="lightgray"></path> 
<path d="M 1684 354 Q 1714 363 1796 373 Q 1806 372 1814 385 Q 1815 395 1793 405 Q 1760 423 1688 400 Q 1687 400 1685 399 L 1631 385 Q 1574 376 1515 365 Q 1488 361 1510 345 Q 1538 324 1580 332 Q 1602 338 1631 343 L 1684 354 Z" fill="lightgray"></path> 
<path d="M 1681 208 Q 1774 223 1931 223 Q 1952 224 1956 233 Q 1962 246 1944 259 Q 1884 301 1823 281 Q 1765 269 1682 252 L 1630 243 Q 1531 227 1420 209 Q 1398 206 1415 189 Q 1446 162 1497 174 Q 1557 192 1629 201 L 1681 208 Z" fill="lightgray"></path> 
<path d="M 1630 -81 Q 1636 -106 1642 -115 Q 1648 -122 1655 -120 Q 1673 -108 1676 -53 Q 1680 -5 1681 208 L 1682 252 Q 1682 298 1684 354 L 1685 399 Q 1688 433 1696 461 Q 1699 479 1685 488 Q 1672 498 1661 503 C 1635 518 1596 519 1607 491 Q 1629 440 1631 385 L 1631 343 Q 1631 297 1630 243 L 1629 201 Q 1623 -13 1630 -81 Z" fill="lightgray"></path> 
<path d="M 2764 260 L 2926 257 Q 2949 257 2953 274 Q 2953 279 2952 281 Q 2945 298 2908 317 Q 2871 336 2852 336 Q 2832 336 2810 331 Q 2788 326 2767 324 L 2606 307 L 2353 278 Q 2289 270 2285 269 L 2178 260 Q 2164 259 2163 253 Q 2161 246 2167 239 Q 2172 232 2198 211 Q 2231 190 2246 191 Q 2260 191 2289 203 Q 2359 227 2485 242 Q 2684 260 2764 260 Z" fill="lightgray"></path> 
<path d="M 3595 515 L 3706 533 Q 3754 541 3760 547 Q 3766 553 3766 559 Q 3766 562 3765 564 Q 3758 577 3728 584 Q 3715 588 3702 588 Q 3684 588 3667 581 Q 3633 571 3600 564 L 3553 554 Q 3490 541 3421 537 L 3418 537 Q 3399 537 3399 530 Q 3399 525 3411 516 Q 3426 503 3448 499 Q 3459 497 3473 497 Q 3489 497 3509 500 Q 3532 505 3554 509 L 3595 515 Z" fill="lightgray"></path> 
<path d="M 3378 445 Q 3377 444 3377 442 Q 3377 436 3384 426 Q 3437 350 3464 326 Q 3471 320 3478 320 Q 3481 320 3484 321 Q 3496 327 3496 347 Q 3496 351 3495 356 Q 3494 374 3488 381 Q 3479 393 3464 406 Q 3438 426 3393 447 Q 3388 449 3385 449 Q 3380 449 3378 445 Z" fill="lightgray"></path> 
<path d="M 3641 349 Q 3639 345 3639 342 Q 3639 338 3642 336 Q 3644 334 3647 334 Q 3651 334 3656 338 Q 3751 411 3796 436 Q 3809 444 3809 450 L 3809 452 Q 3802 468 3784 486 Q 3764 504 3743 504 Q 3729 503 3729 490 L 3729 481 Q 3729 469 3723 456 Q 3695 413 3641 349 Z" fill="lightgray"></path> 
<path d="M 3602 259 Q 3675 267 3753 267 Q 3833 270 3852 270 Q 3874 270 3877 279 Q 3879 282 3879 286 Q 3879 295 3865 305 Q 3835 328 3813 334 Q 3802 337 3789 337 Q 3781 337 3772 336 Q 3704 322 3595 304 L 3554 297 Q 3438 277 3303 259 Q 3290 258 3290 252 Q 3290 247 3298 239 Q 3313 224 3331 220 Q 3344 218 3354 218 Q 3362 218 3369 219 Q 3442 236 3523 248 L 3602 259 Z" fill="lightgray"></path> 
<path d="M 3595 304 L 3595 515 L 3600 564 Q 3604 599 3613 627 Q 3619 639 3619 648 Q 3619 652 3618 655 Q 3615 666 3558 699 Q 3546 705 3536 705 Q 3524 705 3514 697 Q 3510 694 3510 689 Q 3510 684 3515 677 Q 3552 625 3553 574 L 3553 554 L 3554 509 Q 3555 461 3555 410 Q 3554 354 3554 297 L 3554 196 Q 3553 145 3553 91 Q 3551 7 3530 -68 Q 3525 -88 3525 -102 Q 3525 -114 3528 -122 L 3546 -167 Q 3553 -185 3559 -189 Q 3563 -191 3566 -191 Q 3571 -191 3575 -187 Q 3581 -179 3590 -160 Q 3599 -136 3599 -106 Q 3596 -64 3595 227 L 3595 304 Z" fill="lightgray"></path> 
<path d="M 3523 248 Q 3479 174 3440 134 Q 3396 91 3353 55 Q 3306 16 3191 -54 Q 3180 -61 3180 -65 Q 3180 -68 3183 -69 Q 3187 -70 3192 -70 Q 3198 -70 3207 -68 Q 3255 -55 3304 -30 Q 3356 -1 3401 35 Q 3443 71 3504 140 Q 3550 192 3553 195 L 3554 196 C 3607 254 3546 286 3523 248 Z" fill="lightgray"></path> 
<path d="M 3595 227 Q 3685 110 3796 -13 Q 3817 -32 3846 -32 L 3849 -32 Q 3961 -25 3994 -19 Q 4006 -15 4006 -11 Q 4006 -2 3991 2 Q 3926 24 3875 43 Q 3861 48 3833 63 Q 3809 75 3791 90 Q 3702 160 3602 259 C 3581 280 3568 261 3595 227 Z" fill="lightgray"></path> 
      <clipPath id="make-me-a-hanzi-clip-0">
      <path d="M 549 730 Q 633 646 665 648 Q 681 648 688 671 Q 688 687 674 712 Q 658 734 625 743 Q 573 762 551 764 Q 539 765 540 751 Q 539 741 549 730 Z" fill="lightgray"></path>
      </clipPath>
      <path clip-path="url(#make-me-a-hanzi-clip-0)" d="M 549 754 L 644 694 L 665 668 " fill="none" id="make-me-a-hanzi-animation-0" stroke-dasharray="274 548" stroke-linecap="round"></path>

      <clipPath id="make-me-a-hanzi-clip-1">
      <path d="M 712 540 Q 740 552 846 567 Q 856 566 866 581 Q 867 594 841 604 Q 807 625 733 598 Q 526 547 455 534 Q 424 528 449 510 Q 485 486 526 496 Q 587 514 666 531 L 712 540 Z" fill="lightgray"></path>
      </clipPath>
      <path clip-path="url(#make-me-a-hanzi-clip-1)" d="M 450 522 L 514 519 L 798 587 L 854 582 " fill="none" id="make-me-a-hanzi-animation-1" stroke-dasharray="540 1080" stroke-linecap="round"></path>

      <clipPath id="make-me-a-hanzi-clip-2">
      <path d="M 664 307 Q 677 329 722 436 Q 731 464 747 486 Q 759 502 744 514 Q 729 529 712 540 C 688 557 659 560 666 531 Q 685 477 630 353 Q 627 350 626 345 Q 623 341 619 334 L 596 298 Q 535 223 430 174 Q 417 167 428 162 Q 441 159 478 167 Q 526 180 564 205 Q 607 230 633 263 Q 633 264 634 265 L 664 307 Z" fill="lightgray"></path>
      </clipPath>
      <path clip-path="url(#make-me-a-hanzi-clip-2)" d="M 674 528 L 706 501 L 706 485 L 662 361 L 625 295 L 592 255 L 535 211 L 482 183 L 433 167 " fill="none" id="make-me-a-hanzi-animation-2" stroke-dasharray="628 1256" stroke-linecap="round"></path>

      <clipPath id="make-me-a-hanzi-clip-3">
      <path d="M 634 265 Q 706 202 763 137 Q 776 118 792 109 Q 804 103 815 121 Q 822 137 817 168 Q 814 213 664 307 L 619 334 Q 496 415 481 411 Q 475 410 475 397 Q 476 388 493 377 Q 547 338 596 298 L 634 265 Z" fill="lightgray"></path>
      </clipPath>
      <path clip-path="url(#make-me-a-hanzi-clip-3)" d="M 483 402 L 576 342 L 715 235 L 771 182 L 798 126 " fill="none" id="make-me-a-hanzi-animation-3" stroke-dasharray="553 1106" stroke-linecap="round"></path>

      <clipPath id="make-me-a-hanzi-clip-4">
      <path d="M 269 676 Q 296 651 325 619 Q 340 603 358 604 Q 370 604 376 619 Q 383 635 374 670 Q 365 703 265 731 Q 247 735 240 733 Q 234 729 235 714 Q 239 701 269 676 Z" fill="lightgray"></path>
      </clipPath>
      <path clip-path="url(#make-me-a-hanzi-clip-4)" d="M 245 725 L 339 659 L 357 624 " fill="none" id="make-me-a-hanzi-animation-4" stroke-dasharray="282 564" stroke-linecap="round"></path>

      <clipPath id="make-me-a-hanzi-clip-5">
      <path d="M 330 147 Q 339 156 344 168 Q 356 208 312 279 Q 282 331 349 422 Q 355 431 362 438 Q 384 456 364 472 Q 345 488 309 502 Q 287 515 269 497 Q 235 475 192 459 Q 134 437 116 440 Q 109 440 106 435 Q 105 431 113 426 Q 155 405 259 444 Q 269 447 278 435 Q 300 413 278 382 Q 230 328 271 266 Q 304 208 303 176 Q 303 160 299 149 C 293 120 312 123 330 147 Z" fill="lightgray"></path>
      </clipPath>
      <path clip-path="url(#make-me-a-hanzi-clip-5)" d="M 113 433 L 139 430 L 176 436 L 278 470 L 293 470 L 318 451 L 313 407 L 284 350 L 277 320 L 280 297 L 308 244 L 324 194 L 321 167 L 307 154 " fill="none" id="make-me-a-hanzi-animation-5" stroke-dasharray="667 1334" stroke-linecap="round"></path>

      <clipPath id="make-me-a-hanzi-clip-6">
      <path d="M 299 149 Q 256 152 212 137 Q 172 121 111 115 Q 104 115 101 107 Q 98 100 107 90 Q 123 71 148 59 Q 160 53 178 67 Q 254 121 328 107 Q 392 94 519 36 Q 741 -67 820 -40 Q 883 -18 936 19 Q 958 35 935 34 Q 713 34 593 64 Q 508 88 401 128 Q 365 143 330 147 L 299 149 Z" fill="lightgray"></path>
      </clipPath>
      <path clip-path="url(#make-me-a-hanzi-clip-6)" d="M 112 103 L 157 91 L 252 126 L 307 129 L 402 107 L 583 37 L 722 2 L 814 -2 L 925 26 " fill="none" id="make-me-a-hanzi-animation-6" stroke-dasharray="972 1944" stroke-linecap="round"></path>

      <clipPath id="make-me-a-hanzi-clip-7">
      <path d="M 1351 485 Q 1432 515 1433 515 Q 1440 522 1436 531 Q 1429 541 1399 547 Q 1374 551 1353 541 L 1310 523 Q 1201 487 1130 475 Q 1096 466 1122 452 Q 1168 431 1217 448 Q 1254 458 1295 469 L 1351 485 Z" fill="lightgray"></path>
      </clipPath>
      <path clip-path="url(#make-me-a-hanzi-clip-7)" d="M 1123 464 L 1189 464 L 1389 525 L 1429 522 " fill="none" id="make-me-a-hanzi-animation-7" stroke-dasharray="443 886" stroke-linecap="round"></path>

      <clipPath id="make-me-a-hanzi-clip-8">
      <path d="M 1349 400 Q 1349 440 1351 485 L 1353 541 Q 1354 634 1373 696 Q 1382 711 1379 724 Q 1372 734 1318 767 Q 1296 783 1275 769 Q 1271 765 1276 749 Q 1309 700 1309 651 Q 1309 591 1310 523 L 1306 369 Q 1302 287 1301 200 Q 1297 122 1275 51 Q 1263 8 1289 -48 Q 1295 -66 1303 -69 Q 1309 -76 1316 -67 Q 1323 -63 1334 -43 Q 1344 -18 1343 12 Q 1342 54 1348 368 L 1349 400 Z" fill="lightgray"></path>
      </clipPath>
      <path clip-path="url(#make-me-a-hanzi-clip-8)" d="M 1286 763 L 1328 723 L 1338 699 L 1325 234 L 1307 29 L 1308 -56 " fill="none" id="make-me-a-hanzi-animation-8" stroke-dasharray="968 1936" stroke-linecap="round"></path>

      <clipPath id="make-me-a-hanzi-clip-9">
      <path d="M 1295 469 Q 1243 322 1074 92 Q 1068 82 1080 81 Q 1086 80 1096 89 Q 1225 204 1306 369 C 1371 499 1305 497 1295 469 Z" fill="lightgray"></path>
      </clipPath>
      <path clip-path="url(#make-me-a-hanzi-clip-9)" d="M 1303 466 L 1283 377 L 1243 302 L 1155 173 L 1082 89 " fill="none" id="make-me-a-hanzi-animation-9" stroke-dasharray="572 1144" stroke-linecap="round"></path>

      <clipPath id="make-me-a-hanzi-clip-10">
      <path d="M 1348 368 Q 1424 292 1432 289 L 1435 289 Q 1444 288 1449 299 Q 1453 311 1449 335 Q 1446 354 1418 372 Q 1358 400 1349 400 C 1319 405 1327 389 1348 368 Z" fill="lightgray"></path>
      </clipPath>
      <path clip-path="url(#make-me-a-hanzi-clip-10)" d="M 1351 395 L 1369 371 L 1397 356 L 1423 332 L 1435 307 L 1434 295 " fill="none" id="make-me-a-hanzi-animation-10" stroke-dasharray="265 530" stroke-linecap="round"></path>

      <clipPath id="make-me-a-hanzi-clip-11">
      <path d="M 1529 667 Q 1550 645 1572 620 Q 1584 607 1598 607 Q 1608 607 1613 619 Q 1617 632 1612 660 Q 1605 687 1528 711 Q 1515 715 1508 713 Q 1504 709 1504 698 Q 1505 688 1529 667 Z" fill="lightgray"></path>
      </clipPath>
      <path clip-path="url(#make-me-a-hanzi-clip-11)" d="M 1513 704 L 1573 662 L 1597 623 " fill="none" id="make-me-a-hanzi-animation-11" stroke-dasharray="247 494" stroke-linecap="round"></path>

      <clipPath id="make-me-a-hanzi-clip-12">
      <path d="M 1748 737 Q 1724 692 1674 623 Q 1670 616 1675 609 Q 1682 608 1690 613 Q 1778 692 1822 723 Q 1838 730 1834 740 Q 1827 755 1806 772 Q 1785 788 1763 788 Q 1748 787 1751 767 Q 1755 754 1748 737 Z" fill="lightgray"></path>
      </clipPath>
      <path clip-path="url(#make-me-a-hanzi-clip-12)" d="M 1764 773 L 1787 742 L 1681 616 " fill="none" id="make-me-a-hanzi-animation-12" stroke-dasharray="331 662" stroke-linecap="round"></path>

      <clipPath id="make-me-a-hanzi-clip-13">
      <path d="M 1661 503 Q 1821 542 1827 547 Q 1836 554 1831 563 Q 1824 573 1796 580 Q 1769 586 1680 554 Q 1563 527 1520 522 Q 1486 515 1511 500 Q 1550 479 1607 491 L 1661 503 Z" fill="lightgray"></path>
      </clipPath>
      <path clip-path="url(#make-me-a-hanzi-clip-13)" d="M 1513 512 L 1533 507 L 1595 511 L 1784 558 L 1821 557 " fill="none" id="make-me-a-hanzi-animation-13" stroke-dasharray="443 886" stroke-linecap="round"></path>

      <clipPath id="make-me-a-hanzi-clip-14">
      <path d="M 1684 354 Q 1714 363 1796 373 Q 1806 372 1814 385 Q 1815 395 1793 405 Q 1760 423 1688 400 Q 1687 400 1685 399 L 1631 385 Q 1574 376 1515 365 Q 1488 361 1510 345 Q 1538 324 1580 332 Q 1602 338 1631 343 L 1684 354 Z" fill="lightgray"></path>
      </clipPath>
      <path clip-path="url(#make-me-a-hanzi-clip-14)" d="M 1510 356 L 1569 352 L 1737 389 L 1803 386 " fill="none" id="make-me-a-hanzi-animation-14" stroke-dasharray="425 850" stroke-linecap="round"></path>

      <clipPath id="make-me-a-hanzi-clip-15">
      <path d="M 1681 208 Q 1774 223 1931 223 Q 1952 224 1956 233 Q 1962 246 1944 259 Q 1884 301 1823 281 Q 1765 269 1682 252 L 1630 243 Q 1531 227 1420 209 Q 1398 206 1415 189 Q 1446 162 1497 174 Q 1557 192 1629 201 L 1681 208 Z" fill="lightgray"></path>
      </clipPath>
      <path clip-path="url(#make-me-a-hanzi-clip-15)" d="M 1417 199 L 1472 193 L 1597 218 L 1861 255 L 1943 240 " fill="none" id="make-me-a-hanzi-animation-15" stroke-dasharray="661 1322" stroke-linecap="round"></path>

      <clipPath id="make-me-a-hanzi-clip-16">
      <path d="M 1630 -81 Q 1636 -106 1642 -115 Q 1648 -122 1655 -120 Q 1673 -108 1676 -53 Q 1680 -5 1681 208 L 1682 252 Q 1682 298 1684 354 L 1685 399 Q 1688 433 1696 461 Q 1699 479 1685 488 Q 1672 498 1661 503 C 1635 518 1596 519 1607 491 Q 1629 440 1631 385 L 1631 343 Q 1631 297 1630 243 L 1629 201 Q 1623 -13 1630 -81 Z" fill="lightgray"></path>
      </clipPath>
      <path clip-path="url(#make-me-a-hanzi-clip-16)" d="M 1615 486 L 1657 462 L 1651 -110 " fill="none" id="make-me-a-hanzi-animation-16" stroke-dasharray="748 1496" stroke-linecap="round"></path>

      <clipPath id="make-me-a-hanzi-clip-17">
      <path d="M 2764 260 L 2926 257 Q 2949 257 2953 274 Q 2953 279 2952 281 Q 2945 298 2908 317 Q 2871 336 2852 336 Q 2832 336 2810 331 Q 2788 326 2767 324 L 2606 307 L 2353 278 Q 2289 270 2285 269 L 2178 260 Q 2164 259 2163 253 Q 2161 246 2167 239 Q 2172 232 2198 211 Q 2231 190 2246 191 Q 2260 191 2289 203 Q 2359 227 2485 242 Q 2684 260 2764 260 Z" fill="lightgray"></path>
      </clipPath>
      <path clip-path="url(#make-me-a-hanzi-clip-17)" d="M 2173 248 L 2244 228 L 2459 265 L 2836 297 L 2885 292 L 2937 275 " fill="none" id="make-me-a-hanzi-animation-17" stroke-dasharray="902 1804" stroke-linecap="round"></path>

      <clipPath id="make-me-a-hanzi-clip-18">
      <path d="M 3595 515 L 3706 533 Q 3754 541 3760 547 Q 3766 553 3766 559 Q 3766 562 3765 564 Q 3758 577 3728 584 Q 3715 588 3702 588 Q 3684 588 3667 581 Q 3633 571 3600 564 L 3553 554 Q 3490 541 3421 537 L 3418 537 Q 3399 537 3399 530 Q 3399 525 3411 516 Q 3426 503 3448 499 Q 3459 497 3473 497 Q 3489 497 3509 500 Q 3532 505 3554 509 L 3595 515 Z" fill="lightgray"></path>
      </clipPath>
      <path clip-path="url(#make-me-a-hanzi-clip-18)" d="M 3405 529 L 3467 518 L 3690 559 L 3752 559 " fill="none" id="make-me-a-hanzi-animation-18" stroke-dasharray="480 960" stroke-linecap="round"></path>

      <clipPath id="make-me-a-hanzi-clip-19">
      <path d="M 3378 445 Q 3377 444 3377 442 Q 3377 436 3384 426 Q 3437 350 3464 326 Q 3471 320 3478 320 Q 3481 320 3484 321 Q 3496 327 3496 347 Q 3496 351 3495 356 Q 3494 374 3488 381 Q 3479 393 3464 406 Q 3438 426 3393 447 Q 3388 449 3385 449 Q 3380 449 3378 445 Z" fill="lightgray"></path>
      </clipPath>
      <path clip-path="url(#make-me-a-hanzi-clip-19)" d="M 3385 441 L 3458 374 L 3479 335 " fill="none" id="make-me-a-hanzi-animation-19" stroke-dasharray="271 542" stroke-linecap="round"></path>

      <clipPath id="make-me-a-hanzi-clip-20">
      <path d="M 3641 349 Q 3639 345 3639 342 Q 3639 338 3642 336 Q 3644 334 3647 334 Q 3651 334 3656 338 Q 3751 411 3796 436 Q 3809 444 3809 450 L 3809 452 Q 3802 468 3784 486 Q 3764 504 3743 504 Q 3729 503 3729 490 L 3729 481 Q 3729 469 3723 456 Q 3695 413 3641 349 Z" fill="lightgray"></path>
      </clipPath>
      <path clip-path="url(#make-me-a-hanzi-clip-20)" d="M 3742 491 L 3762 458 L 3648 343 " fill="none" id="make-me-a-hanzi-animation-20" stroke-dasharray="329 658" stroke-linecap="round"></path>

      <clipPath id="make-me-a-hanzi-clip-21">
      <path d="M 3602 259 Q 3675 267 3753 267 Q 3833 270 3852 270 Q 3874 270 3877 279 Q 3879 282 3879 286 Q 3879 295 3865 305 Q 3835 328 3813 334 Q 3802 337 3789 337 Q 3781 337 3772 336 Q 3704 322 3595 304 L 3554 297 Q 3438 277 3303 259 Q 3290 258 3290 252 Q 3290 247 3298 239 Q 3313 224 3331 220 Q 3344 218 3354 218 Q 3362 218 3369 219 Q 3442 236 3523 248 L 3602 259 Z" fill="lightgray"></path>
      </clipPath>
      <path clip-path="url(#make-me-a-hanzi-clip-21)" d="M 3300 249 L 3360 242 L 3550 275 L 3773 302 L 3808 302 L 3865 286 " fill="none" id="make-me-a-hanzi-animation-21" stroke-dasharray="700 1400" stroke-linecap="round"></path>

      <clipPath id="make-me-a-hanzi-clip-22">
      <path d="M 3595 304 L 3595 515 L 3600 564 Q 3604 599 3613 627 Q 3619 639 3619 648 Q 3619 652 3618 655 Q 3615 666 3558 699 Q 3546 705 3536 705 Q 3524 705 3514 697 Q 3510 694 3510 689 Q 3510 684 3515 677 Q 3552 625 3553 574 L 3553 554 L 3554 509 Q 3555 461 3555 410 Q 3554 354 3554 297 L 3554 196 Q 3553 145 3553 91 Q 3551 7 3530 -68 Q 3525 -88 3525 -102 Q 3525 -114 3528 -122 L 3546 -167 Q 3553 -185 3559 -189 Q 3563 -191 3566 -191 Q 3571 -191 3575 -187 Q 3581 -179 3590 -160 Q 3599 -136 3599 -106 Q 3596 -64 3595 227 L 3595 304 Z" fill="lightgray"></path>
      </clipPath>
      <path clip-path="url(#make-me-a-hanzi-clip-22)" d="M 3523 687 L 3554 669 L 3569 653 L 3578 631 L 3576 92 L 3562 -94 L 3566 -178 " fill="none" id="make-me-a-hanzi-animation-22" stroke-dasharray="1019 2038" stroke-linecap="round"></path>

      <clipPath id="make-me-a-hanzi-clip-23">
      <path d="M 3523 248 Q 3479 174 3440 134 Q 3396 91 3353 55 Q 3306 16 3191 -54 Q 3180 -61 3180 -65 Q 3180 -68 3183 -69 Q 3187 -70 3192 -70 Q 3198 -70 3207 -68 Q 3255 -55 3304 -30 Q 3356 -1 3401 35 Q 3443 71 3504 140 Q 3550 192 3553 195 L 3554 196 C 3607 254 3546 286 3523 248 Z" fill="lightgray"></path>
      </clipPath>
      <path clip-path="url(#make-me-a-hanzi-clip-23)" d="M 3547 245 L 3534 230 L 3528 206 L 3497 163 L 3399 63 L 3360 31 L 3263 -31 L 3199 -62 L 3188 -62 " fill="none" id="make-me-a-hanzi-animation-23" stroke-dasharray="613 1226" stroke-linecap="round"></path>

      <clipPath id="make-me-a-hanzi-clip-24">
      <path d="M 3595 227 Q 3685 110 3796 -13 Q 3817 -32 3846 -32 L 3849 -32 Q 3961 -25 3994 -19 Q 4006 -15 4006 -11 Q 4006 -2 3991 2 Q 3926 24 3875 43 Q 3861 48 3833 63 Q 3809 75 3791 90 Q 3702 160 3602 259 C 3581 280 3568 261 3595 227 Z" fill="lightgray"></path>
      </clipPath>
      <path clip-path="url(#make-me-a-hanzi-clip-24)" d="M 3600 250 L 3611 230 L 3671 163 L 3771 63 L 3827 17 L 3857 7 L 3997 -11 " fill="none" id="make-me-a-hanzi-animation-24" stroke-dasharray="627 1254" stroke-linecap="round"></path>

</g>
</svg>
