<svg version="1.1" viewBox="0 0 2048 1024" xmlns="http://www.w3.org/2000/svg">
  <g stroke="lightgray" stroke-dasharray="1,1" stroke-width="1" transform="scale(4, 4)">
    <line x1="0" y1="0" x2="256" y2="256"></line>
    <line x1="256" y1="0" x2="0" y2="256"></line>
    <line x1="128" y1="0" x2="128" y2="256"></line>
    <line x1="0" y1="128" x2="256" y2="128"></line>
    <line x1="256" y1="0" x2="512" y2="256"></line>
    <line x1="512" y1="0" x2="256" y2="256"></line>
    <line x1="384" y1="0" x2="384" y2="256"></line>
    <line x1="256" y1="128" x2="512" y2="128"></line>
  </g>
<g transform="scale(1, -1) translate(0, -850)">
   <style type="text/css">
    @keyframes keyframes0 {
      from {
       stroke: black;
       stroke-dashoffset: 402;
       stroke-width: 128;
       }
       57% {
       animation-timing-function: step-end;
       stroke: black;
       stroke-dashoffset: 0;
       stroke-width: 128;
       }
       to {
       stroke: black;
       stroke-width: 1024;
       }
       }
       #make-me-a-hanzi-animation-0 {
         animation: keyframes0 0.577148s both;
         animation-delay: 0.000000s;
         animation-timing-function: linear;
       }
    @keyframes keyframes1 {
      from {
       stroke: black;
       stroke-dashoffset: 668;
       stroke-width: 128;
       }
       68% {
       animation-timing-function: step-end;
       stroke: black;
       stroke-dashoffset: 0;
       stroke-width: 128;
       }
       to {
       stroke: black;
       stroke-width: 1024;
       }
       }
       #make-me-a-hanzi-animation-1 {
         animation: keyframes1 0.793620s both;
         animation-delay: 0.577148s;
         animation-timing-function: linear;
       }
    @keyframes keyframes2 {
      from {
       stroke: black;
       stroke-dashoffset: 756;
       stroke-width: 128;
       }
       71% {
       animation-timing-function: step-end;
       stroke: black;
       stroke-dashoffset: 0;
       stroke-width: 128;
       }
       to {
       stroke: black;
       stroke-width: 1024;
       }
       }
       #make-me-a-hanzi-animation-2 {
         animation: keyframes2 0.865234s both;
         animation-delay: 1.370768s;
         animation-timing-function: linear;
       }
    @keyframes keyframes3 {
      from {
       stroke: black;
       stroke-dashoffset: 681;
       stroke-width: 128;
       }
       69% {
       animation-timing-function: step-end;
       stroke: black;
       stroke-dashoffset: 0;
       stroke-width: 128;
       }
       to {
       stroke: black;
       stroke-width: 1024;
       }
       }
       #make-me-a-hanzi-animation-3 {
         animation: keyframes3 0.804199s both;
         animation-delay: 2.236002s;
         animation-timing-function: linear;
       }
    @keyframes keyframes4 {
      from {
       stroke: black;
       stroke-dashoffset: 410;
       stroke-width: 128;
       }
       57% {
       animation-timing-function: step-end;
       stroke: black;
       stroke-dashoffset: 0;
       stroke-width: 128;
       }
       to {
       stroke: black;
       stroke-width: 1024;
       }
       }
       #make-me-a-hanzi-animation-4 {
         animation: keyframes4 0.583659s both;
         animation-delay: 3.040201s;
         animation-timing-function: linear;
       }
    @keyframes keyframes5 {
      from {
       stroke: black;
       stroke-dashoffset: 795;
       stroke-width: 128;
       }
       72% {
       animation-timing-function: step-end;
       stroke: black;
       stroke-dashoffset: 0;
       stroke-width: 128;
       }
       to {
       stroke: black;
       stroke-width: 1024;
       }
       }
       #make-me-a-hanzi-animation-5 {
         animation: keyframes5 0.896973s both;
         animation-delay: 3.623860s;
         animation-timing-function: linear;
       }
    @keyframes keyframes6 {
      from {
       stroke: black;
       stroke-dashoffset: 1100;
       stroke-width: 128;
       }
       78% {
       animation-timing-function: step-end;
       stroke: black;
       stroke-dashoffset: 0;
       stroke-width: 128;
       }
       to {
       stroke: black;
       stroke-width: 1024;
       }
       }
       #make-me-a-hanzi-animation-6 {
         animation: keyframes6 1.145182s both;
         animation-delay: 4.520833s;
         animation-timing-function: linear;
       }
    @keyframes keyframes7 {
      from {
       stroke: black;
       stroke-dashoffset: 571;
       stroke-width: 128;
       }
       65% {
       animation-timing-function: step-end;
       stroke: black;
       stroke-dashoffset: 0;
       stroke-width: 128;
       }
       to {
       stroke: black;
       stroke-width: 1024;
       }
       }
       #make-me-a-hanzi-animation-7 {
         animation: keyframes7 0.714681s both;
         animation-delay: 5.666015s;
         animation-timing-function: linear;
       }
    @keyframes keyframes8 {
      from {
       stroke: black;
       stroke-dashoffset: 1096;
       stroke-width: 128;
       }
       78% {
       animation-timing-function: step-end;
       stroke: black;
       stroke-dashoffset: 0;
       stroke-width: 128;
       }
       to {
       stroke: black;
       stroke-width: 1024;
       }
       }
       #make-me-a-hanzi-animation-8 {
         animation: keyframes8 1.141927s both;
         animation-delay: 6.380696s;
         animation-timing-function: linear;
       }
    @keyframes keyframes9 {
      from {
       stroke: black;
       stroke-dashoffset: 700;
       stroke-width: 128;
       }
       69% {
       animation-timing-function: step-end;
       stroke: black;
       stroke-dashoffset: 0;
       stroke-width: 128;
       }
       to {
       stroke: black;
       stroke-width: 1024;
       }
       }
       #make-me-a-hanzi-animation-9 {
         animation: keyframes9 0.819661s both;
         animation-delay: 7.522623s;
         animation-timing-function: linear;
       }
    @keyframes keyframes10 {
      from {
       stroke: black;
       stroke-dashoffset: 393;
       stroke-width: 128;
       }
       56% {
       animation-timing-function: step-end;
       stroke: black;
       stroke-dashoffset: 0;
       stroke-width: 128;
       }
       to {
       stroke: black;
       stroke-width: 1024;
       }
       }
       #make-me-a-hanzi-animation-10 {
         animation: keyframes10 0.569824s both;
         animation-delay: 8.342284s;
         animation-timing-function: linear;
       }
    @keyframes keyframes11 {
      from {
       stroke: black;
       stroke-dashoffset: 375;
       stroke-width: 128;
       }
       55% {
       animation-timing-function: step-end;
       stroke: black;
       stroke-dashoffset: 0;
       stroke-width: 128;
       }
       to {
       stroke: black;
       stroke-width: 1024;
       }
       }
       #make-me-a-hanzi-animation-11 {
         animation: keyframes11 0.555176s both;
         animation-delay: 8.912108s;
         animation-timing-function: linear;
       }
    @keyframes keyframes12 {
      from {
       stroke: black;
       stroke-dashoffset: 459;
       stroke-width: 128;
       }
       60% {
       animation-timing-function: step-end;
       stroke: black;
       stroke-dashoffset: 0;
       stroke-width: 128;
       }
       to {
       stroke: black;
       stroke-width: 1024;
       }
       }
       #make-me-a-hanzi-animation-12 {
         animation: keyframes12 0.623535s both;
         animation-delay: 9.467284s;
         animation-timing-function: linear;
       }
    @keyframes keyframes13 {
      from {
       stroke: black;
       stroke-dashoffset: 571;
       stroke-width: 128;
       }
       65% {
       animation-timing-function: step-end;
       stroke: black;
       stroke-dashoffset: 0;
       stroke-width: 128;
       }
       to {
       stroke: black;
       stroke-width: 1024;
       }
       }
       #make-me-a-hanzi-animation-13 {
         animation: keyframes13 0.714681s both;
         animation-delay: 10.090819s;
         animation-timing-function: linear;
       }
    @keyframes keyframes14 {
      from {
       stroke: black;
       stroke-dashoffset: 553;
       stroke-width: 128;
       }
       64% {
       animation-timing-function: step-end;
       stroke: black;
       stroke-dashoffset: 0;
       stroke-width: 128;
       }
       to {
       stroke: black;
       stroke-width: 1024;
       }
       }
       #make-me-a-hanzi-animation-14 {
         animation: keyframes14 0.700033s both;
         animation-delay: 10.805500s;
         animation-timing-function: linear;
       }
    @keyframes keyframes15 {
      from {
       stroke: black;
       stroke-dashoffset: 789;
       stroke-width: 128;
       }
       72% {
       animation-timing-function: step-end;
       stroke: black;
       stroke-dashoffset: 0;
       stroke-width: 128;
       }
       to {
       stroke: black;
       stroke-width: 1024;
       }
       }
       #make-me-a-hanzi-animation-15 {
         animation: keyframes15 0.892090s both;
         animation-delay: 11.505533s;
         animation-timing-function: linear;
       }
    @keyframes keyframes16 {
      from {
       stroke: black;
       stroke-dashoffset: 876;
       stroke-width: 128;
       }
       74% {
       animation-timing-function: step-end;
       stroke: black;
       stroke-dashoffset: 0;
       stroke-width: 128;
       }
       to {
       stroke: black;
       stroke-width: 1024;
       }
       }
       #make-me-a-hanzi-animation-16 {
         animation: keyframes16 0.962891s both;
         animation-delay: 12.397623s;
         animation-timing-function: linear;
       }
</style>
<path d="M 533.0 719.0 Q 617.0 635.0 649.0 637.0 Q 665.0 637.0 672.0 660.0 Q 672.0 676.0 658.0 701.0 Q 642.0 723.0 609.0 732.0 Q 557.0 751.0 535.0 753.0 Q 523.0 754.0 524.0 740.0 Q 523.0 730.0 533.0 719.0 Z" fill="lightgray"></path> 
<path d="M 696.0 529.0 Q 724.0 541.0 830.0 556.0 Q 840.0 555.0 850.0 570.0 Q 851.0 583.0 825.0 593.0 Q 791.0 614.0 717.0 587.0 Q 510.0 536.0 439.0 523.0 Q 408.0 517.0 433.0 499.0 Q 469.0 475.0 510.0 485.0 Q 571.0 503.0 650.0 520.0 L 696.0 529.0 Z" fill="lightgray"></path> 
<path d="M 648.0 296.0 Q 661.0 318.0 706.0 425.0 Q 715.0 453.0 731.0 475.0 Q 743.0 491.0 728.0 503.0 Q 713.0 518.0 696.0 529.0 C 672.0 546.0 643.0 549.0 650.0 520.0 Q 669.0 466.0 614.0 342.0 Q 611.0 339.0 610.0 334.0 Q 607.0 330.0 603.0 323.0 L 580.0 287.0 Q 519.0 212.0 414.0 163.0 Q 401.0 156.0 412.0 151.0 Q 425.0 148.0 462.0 156.0 Q 510.0 169.0 548.0 194.0 Q 591.0 219.0 617.0 252.0 Q 617.0 253.0 618.0 254.0 L 648.0 296.0 Z" fill="lightgray"></path> 
<path d="M 618.0 254.0 Q 690.0 191.0 747.0 126.0 Q 760.0 107.0 776.0 98.0 Q 788.0 92.0 799.0 110.0 Q 806.0 126.0 801.0 157.0 Q 798.0 202.0 648.0 296.0 L 603.0 323.0 Q 480.0 404.0 465.0 400.0 Q 459.0 399.0 459.0 386.0 Q 460.0 377.0 477.0 366.0 Q 531.0 327.0 580.0 287.0 L 618.0 254.0 Z" fill="lightgray"></path> 
<path d="M 253.0 665.0 Q 280.0 640.0 309.0 608.0 Q 324.0 592.0 342.0 593.0 Q 354.0 593.0 360.0 608.0 Q 367.0 624.0 358.0 659.0 Q 349.0 692.0 249.0 720.0 Q 231.0 724.0 224.0 722.0 Q 218.0 718.0 219.0 703.0 Q 223.0 690.0 253.0 665.0 Z" fill="lightgray"></path> 
<path d="M 314.0 136.0 Q 323.0 145.0 328.0 157.0 Q 340.0 197.0 296.0 268.0 Q 266.0 320.0 333.0 411.0 Q 339.0 420.0 346.0 427.0 Q 368.0 445.0 348.0 461.0 Q 329.0 477.0 293.0 491.0 Q 271.0 504.0 253.0 486.0 Q 219.0 464.0 176.0 448.0 Q 118.0 426.0 100.0 429.0 Q 93.0 429.0 90.0 424.0 Q 89.0 420.0 97.0 415.0 Q 139.0 394.0 243.0 433.0 Q 253.0 436.0 262.0 424.0 Q 284.0 402.0 262.0 371.0 Q 214.0 317.0 255.0 255.0 Q 288.0 197.0 287.0 165.0 Q 287.0 149.0 283.0 138.0 C 277.0 109.0 296.0 112.0 314.0 136.0 Z" fill="lightgray"></path> 
<path d="M 283.0 138.0 Q 240.0 141.0 196.0 126.0 Q 156.0 110.0 95.0 104.0 Q 88.0 104.0 85.0 96.0 Q 82.0 89.0 91.0 79.0 Q 107.0 60.0 132.0 48.0 Q 144.0 42.0 162.0 56.0 Q 238.0 110.0 312.0 96.0 Q 376.0 83.0 503.0 25.0 Q 725.0 -78.0 804.0 -51.0 Q 867.0 -29.0 920.0 8.0 Q 942.0 24.0 919.0 23.0 Q 697.0 23.0 577.0 53.0 Q 492.0 77.0 385.0 117.0 Q 349.0 132.0 314.0 136.0 L 283.0 138.0 Z" fill="lightgray"></path> 
<path d="M 1372.0 490.0 Q 1453.0 520.0 1454.0 520.0 Q 1461.0 527.0 1457.0 536.0 Q 1450.0 546.0 1420.0 552.0 Q 1395.0 556.0 1374.0 546.0 L 1331.0 528.0 Q 1222.0 492.0 1151.0 480.0 Q 1117.0 471.0 1143.0 457.0 Q 1189.0 436.0 1238.0 453.0 Q 1275.0 463.0 1316.0 474.0 L 1372.0 490.0 Z" fill="lightgray"></path> 
<path d="M 1370.0 405.0 Q 1370.0 445.0 1372.0 490.0 L 1374.0 546.0 Q 1375.0 639.0 1394.0 701.0 Q 1403.0 716.0 1400.0 729.0 Q 1393.0 739.0 1339.0 772.0 Q 1317.0 788.0 1296.0 774.0 Q 1292.0 770.0 1297.0 754.0 Q 1330.0 705.0 1330.0 656.0 Q 1330.0 596.0 1331.0 528.0 L 1327.0 374.0 Q 1323.0 292.0 1322.0 205.0 Q 1318.0 127.0 1296.0 56.0 Q 1284.0 13.0 1310.0 -43.0 Q 1316.0 -61.0 1324.0 -64.0 Q 1330.0 -71.0 1337.0 -62.0 Q 1344.0 -58.0 1355.0 -38.0 Q 1365.0 -13.0 1364.0 17.0 Q 1363.0 59.0 1369.0 373.0 L 1370.0 405.0 Z" fill="lightgray"></path> 
<path d="M 1316.0 474.0 Q 1264.0 327.0 1095.0 97.0 Q 1089.0 87.0 1101.0 86.0 Q 1107.0 85.0 1117.0 94.0 Q 1246.0 209.0 1327.0 374.0 C 1392.0 504.0 1326.0 502.0 1316.0 474.0 Z" fill="lightgray"></path> 
<path d="M 1369.0 373.0 Q 1445.0 297.0 1453.0 294.0 L 1456.0 294.0 Q 1465.0 293.0 1470.0 304.0 Q 1474.0 316.0 1470.0 340.0 Q 1467.0 359.0 1439.0 377.0 Q 1379.0 405.0 1370.0 405.0 C 1340.0 410.0 1348.0 394.0 1369.0 373.0 Z" fill="lightgray"></path> 
<path d="M 1550.0 672.0 Q 1571.0 650.0 1593.0 625.0 Q 1605.0 612.0 1619.0 612.0 Q 1629.0 612.0 1634.0 624.0 Q 1638.0 637.0 1633.0 665.0 Q 1626.0 692.0 1549.0 716.0 Q 1536.0 720.0 1529.0 718.0 Q 1525.0 714.0 1525.0 703.0 Q 1526.0 693.0 1550.0 672.0 Z" fill="lightgray"></path> 
<path d="M 1769.0 742.0 Q 1745.0 697.0 1695.0 628.0 Q 1691.0 621.0 1696.0 614.0 Q 1703.0 613.0 1711.0 618.0 Q 1799.0 697.0 1843.0 728.0 Q 1859.0 735.0 1855.0 745.0 Q 1848.0 760.0 1827.0 777.0 Q 1806.0 793.0 1784.0 793.0 Q 1769.0 792.0 1772.0 772.0 Q 1776.0 759.0 1769.0 742.0 Z" fill="lightgray"></path> 
<path d="M 1682.0 508.0 Q 1842.0 547.0 1848.0 552.0 Q 1857.0 559.0 1852.0 568.0 Q 1845.0 578.0 1817.0 585.0 Q 1790.0 591.0 1701.0 559.0 Q 1584.0 532.0 1541.0 527.0 Q 1507.0 520.0 1532.0 505.0 Q 1571.0 484.0 1628.0 496.0 L 1682.0 508.0 Z" fill="lightgray"></path> 
<path d="M 1705.0 359.0 Q 1735.0 368.0 1817.0 378.0 Q 1827.0 377.0 1835.0 390.0 Q 1836.0 400.0 1814.0 410.0 Q 1781.0 428.0 1709.0 405.0 Q 1708.0 405.0 1706.0 404.0 L 1652.0 390.0 Q 1595.0 381.0 1536.0 370.0 Q 1509.0 366.0 1531.0 350.0 Q 1559.0 329.0 1601.0 337.0 Q 1623.0 343.0 1652.0 348.0 L 1705.0 359.0 Z" fill="lightgray"></path> 
<path d="M 1702.0 213.0 Q 1795.0 228.0 1952.0 228.0 Q 1973.0 229.0 1977.0 238.0 Q 1983.0 251.0 1965.0 264.0 Q 1905.0 306.0 1844.0 286.0 Q 1786.0 274.0 1703.0 257.0 L 1651.0 248.0 Q 1552.0 232.0 1441.0 214.0 Q 1419.0 211.0 1436.0 194.0 Q 1467.0 167.0 1518.0 179.0 Q 1578.0 197.0 1650.0 206.0 L 1702.0 213.0 Z" fill="lightgray"></path> 
<path d="M 1651.0 -76.0 Q 1657.0 -101.0 1663.0 -110.0 Q 1669.0 -117.0 1676.0 -115.0 Q 1694.0 -103.0 1697.0 -48.0 Q 1701.0 0.0 1702.0 213.0 L 1703.0 257.0 Q 1703.0 303.0 1705.0 359.0 L 1706.0 404.0 Q 1709.0 438.0 1717.0 466.0 Q 1720.0 484.0 1706.0 493.0 Q 1693.0 503.0 1682.0 508.0 C 1656.0 523.0 1617.0 524.0 1628.0 496.0 Q 1650.0 445.0 1652.0 390.0 L 1652.0 348.0 Q 1652.0 302.0 1651.0 248.0 L 1650.0 206.0 Q 1644.0 -8.0 1651.0 -76.0 Z" fill="lightgray"></path> 
      <clipPath id="make-me-a-hanzi-clip-0">
      <path d="M 533.0 719.0 Q 617.0 635.0 649.0 637.0 Q 665.0 637.0 672.0 660.0 Q 672.0 676.0 658.0 701.0 Q 642.0 723.0 609.0 732.0 Q 557.0 751.0 535.0 753.0 Q 523.0 754.0 524.0 740.0 Q 523.0 730.0 533.0 719.0 Z" fill="lightgray"></path>
      </clipPath>
      <path clip-path="url(#make-me-a-hanzi-clip-0)" d="M 533.0 743.0 L 628.0 683.0 L 649.0 657.0 " fill="none" id="make-me-a-hanzi-animation-0" stroke-dasharray="274 548" stroke-linecap="round"></path>

      <clipPath id="make-me-a-hanzi-clip-1">
      <path d="M 696.0 529.0 Q 724.0 541.0 830.0 556.0 Q 840.0 555.0 850.0 570.0 Q 851.0 583.0 825.0 593.0 Q 791.0 614.0 717.0 587.0 Q 510.0 536.0 439.0 523.0 Q 408.0 517.0 433.0 499.0 Q 469.0 475.0 510.0 485.0 Q 571.0 503.0 650.0 520.0 L 696.0 529.0 Z" fill="lightgray"></path>
      </clipPath>
      <path clip-path="url(#make-me-a-hanzi-clip-1)" d="M 434.0 511.0 L 498.0 508.0 L 782.0 576.0 L 838.0 571.0 " fill="none" id="make-me-a-hanzi-animation-1" stroke-dasharray="540 1080" stroke-linecap="round"></path>

      <clipPath id="make-me-a-hanzi-clip-2">
      <path d="M 648.0 296.0 Q 661.0 318.0 706.0 425.0 Q 715.0 453.0 731.0 475.0 Q 743.0 491.0 728.0 503.0 Q 713.0 518.0 696.0 529.0 C 672.0 546.0 643.0 549.0 650.0 520.0 Q 669.0 466.0 614.0 342.0 Q 611.0 339.0 610.0 334.0 Q 607.0 330.0 603.0 323.0 L 580.0 287.0 Q 519.0 212.0 414.0 163.0 Q 401.0 156.0 412.0 151.0 Q 425.0 148.0 462.0 156.0 Q 510.0 169.0 548.0 194.0 Q 591.0 219.0 617.0 252.0 Q 617.0 253.0 618.0 254.0 L 648.0 296.0 Z" fill="lightgray"></path>
      </clipPath>
      <path clip-path="url(#make-me-a-hanzi-clip-2)" d="M 658.0 517.0 L 690.0 490.0 L 690.0 474.0 L 646.0 350.0 L 609.0 284.0 L 576.0 244.0 L 519.0 200.0 L 466.0 172.0 L 417.0 156.0 " fill="none" id="make-me-a-hanzi-animation-2" stroke-dasharray="628 1256" stroke-linecap="round"></path>

      <clipPath id="make-me-a-hanzi-clip-3">
      <path d="M 618.0 254.0 Q 690.0 191.0 747.0 126.0 Q 760.0 107.0 776.0 98.0 Q 788.0 92.0 799.0 110.0 Q 806.0 126.0 801.0 157.0 Q 798.0 202.0 648.0 296.0 L 603.0 323.0 Q 480.0 404.0 465.0 400.0 Q 459.0 399.0 459.0 386.0 Q 460.0 377.0 477.0 366.0 Q 531.0 327.0 580.0 287.0 L 618.0 254.0 Z" fill="lightgray"></path>
      </clipPath>
      <path clip-path="url(#make-me-a-hanzi-clip-3)" d="M 467.0 391.0 L 560.0 331.0 L 699.0 224.0 L 755.0 171.0 L 782.0 115.0 " fill="none" id="make-me-a-hanzi-animation-3" stroke-dasharray="553 1106" stroke-linecap="round"></path>

      <clipPath id="make-me-a-hanzi-clip-4">
      <path d="M 253.0 665.0 Q 280.0 640.0 309.0 608.0 Q 324.0 592.0 342.0 593.0 Q 354.0 593.0 360.0 608.0 Q 367.0 624.0 358.0 659.0 Q 349.0 692.0 249.0 720.0 Q 231.0 724.0 224.0 722.0 Q 218.0 718.0 219.0 703.0 Q 223.0 690.0 253.0 665.0 Z" fill="lightgray"></path>
      </clipPath>
      <path clip-path="url(#make-me-a-hanzi-clip-4)" d="M 229.0 714.0 L 323.0 648.0 L 341.0 613.0 " fill="none" id="make-me-a-hanzi-animation-4" stroke-dasharray="282 564" stroke-linecap="round"></path>

      <clipPath id="make-me-a-hanzi-clip-5">
      <path d="M 314.0 136.0 Q 323.0 145.0 328.0 157.0 Q 340.0 197.0 296.0 268.0 Q 266.0 320.0 333.0 411.0 Q 339.0 420.0 346.0 427.0 Q 368.0 445.0 348.0 461.0 Q 329.0 477.0 293.0 491.0 Q 271.0 504.0 253.0 486.0 Q 219.0 464.0 176.0 448.0 Q 118.0 426.0 100.0 429.0 Q 93.0 429.0 90.0 424.0 Q 89.0 420.0 97.0 415.0 Q 139.0 394.0 243.0 433.0 Q 253.0 436.0 262.0 424.0 Q 284.0 402.0 262.0 371.0 Q 214.0 317.0 255.0 255.0 Q 288.0 197.0 287.0 165.0 Q 287.0 149.0 283.0 138.0 C 277.0 109.0 296.0 112.0 314.0 136.0 Z" fill="lightgray"></path>
      </clipPath>
      <path clip-path="url(#make-me-a-hanzi-clip-5)" d="M 97.0 422.0 L 123.0 419.0 L 160.0 425.0 L 262.0 459.0 L 277.0 459.0 L 302.0 440.0 L 297.0 396.0 L 268.0 339.0 L 261.0 309.0 L 264.0 286.0 L 292.0 233.0 L 308.0 183.0 L 305.0 156.0 L 291.0 143.0 " fill="none" id="make-me-a-hanzi-animation-5" stroke-dasharray="667 1334" stroke-linecap="round"></path>

      <clipPath id="make-me-a-hanzi-clip-6">
      <path d="M 283.0 138.0 Q 240.0 141.0 196.0 126.0 Q 156.0 110.0 95.0 104.0 Q 88.0 104.0 85.0 96.0 Q 82.0 89.0 91.0 79.0 Q 107.0 60.0 132.0 48.0 Q 144.0 42.0 162.0 56.0 Q 238.0 110.0 312.0 96.0 Q 376.0 83.0 503.0 25.0 Q 725.0 -78.0 804.0 -51.0 Q 867.0 -29.0 920.0 8.0 Q 942.0 24.0 919.0 23.0 Q 697.0 23.0 577.0 53.0 Q 492.0 77.0 385.0 117.0 Q 349.0 132.0 314.0 136.0 L 283.0 138.0 Z" fill="lightgray"></path>
      </clipPath>
      <path clip-path="url(#make-me-a-hanzi-clip-6)" d="M 96.0 92.0 L 141.0 80.0 L 236.0 115.0 L 291.0 118.0 L 386.0 96.0 L 567.0 26.0 L 706.0 -9.0 L 798.0 -13.0 L 909.0 15.0 " fill="none" id="make-me-a-hanzi-animation-6" stroke-dasharray="972 1944" stroke-linecap="round"></path>

      <clipPath id="make-me-a-hanzi-clip-7">
      <path d="M 1372.0 490.0 Q 1453.0 520.0 1454.0 520.0 Q 1461.0 527.0 1457.0 536.0 Q 1450.0 546.0 1420.0 552.0 Q 1395.0 556.0 1374.0 546.0 L 1331.0 528.0 Q 1222.0 492.0 1151.0 480.0 Q 1117.0 471.0 1143.0 457.0 Q 1189.0 436.0 1238.0 453.0 Q 1275.0 463.0 1316.0 474.0 L 1372.0 490.0 Z" fill="lightgray"></path>
      </clipPath>
      <path clip-path="url(#make-me-a-hanzi-clip-7)" d="M 1144.0 469.0 L 1210.0 469.0 L 1410.0 530.0 L 1450.0 527.0 " fill="none" id="make-me-a-hanzi-animation-7" stroke-dasharray="443 886" stroke-linecap="round"></path>

      <clipPath id="make-me-a-hanzi-clip-8">
      <path d="M 1370.0 405.0 Q 1370.0 445.0 1372.0 490.0 L 1374.0 546.0 Q 1375.0 639.0 1394.0 701.0 Q 1403.0 716.0 1400.0 729.0 Q 1393.0 739.0 1339.0 772.0 Q 1317.0 788.0 1296.0 774.0 Q 1292.0 770.0 1297.0 754.0 Q 1330.0 705.0 1330.0 656.0 Q 1330.0 596.0 1331.0 528.0 L 1327.0 374.0 Q 1323.0 292.0 1322.0 205.0 Q 1318.0 127.0 1296.0 56.0 Q 1284.0 13.0 1310.0 -43.0 Q 1316.0 -61.0 1324.0 -64.0 Q 1330.0 -71.0 1337.0 -62.0 Q 1344.0 -58.0 1355.0 -38.0 Q 1365.0 -13.0 1364.0 17.0 Q 1363.0 59.0 1369.0 373.0 L 1370.0 405.0 Z" fill="lightgray"></path>
      </clipPath>
      <path clip-path="url(#make-me-a-hanzi-clip-8)" d="M 1307.0 768.0 L 1349.0 728.0 L 1359.0 704.0 L 1346.0 239.0 L 1328.0 34.0 L 1329.0 -51.0 " fill="none" id="make-me-a-hanzi-animation-8" stroke-dasharray="968 1936" stroke-linecap="round"></path>

      <clipPath id="make-me-a-hanzi-clip-9">
      <path d="M 1316.0 474.0 Q 1264.0 327.0 1095.0 97.0 Q 1089.0 87.0 1101.0 86.0 Q 1107.0 85.0 1117.0 94.0 Q 1246.0 209.0 1327.0 374.0 C 1392.0 504.0 1326.0 502.0 1316.0 474.0 Z" fill="lightgray"></path>
      </clipPath>
      <path clip-path="url(#make-me-a-hanzi-clip-9)" d="M 1324.0 471.0 L 1304.0 382.0 L 1264.0 307.0 L 1176.0 178.0 L 1103.0 94.0 " fill="none" id="make-me-a-hanzi-animation-9" stroke-dasharray="572 1144" stroke-linecap="round"></path>

      <clipPath id="make-me-a-hanzi-clip-10">
      <path d="M 1369.0 373.0 Q 1445.0 297.0 1453.0 294.0 L 1456.0 294.0 Q 1465.0 293.0 1470.0 304.0 Q 1474.0 316.0 1470.0 340.0 Q 1467.0 359.0 1439.0 377.0 Q 1379.0 405.0 1370.0 405.0 C 1340.0 410.0 1348.0 394.0 1369.0 373.0 Z" fill="lightgray"></path>
      </clipPath>
      <path clip-path="url(#make-me-a-hanzi-clip-10)" d="M 1372.0 400.0 L 1390.0 376.0 L 1418.0 361.0 L 1444.0 337.0 L 1456.0 312.0 L 1455.0 300.0 " fill="none" id="make-me-a-hanzi-animation-10" stroke-dasharray="265 530" stroke-linecap="round"></path>

      <clipPath id="make-me-a-hanzi-clip-11">
      <path d="M 1550.0 672.0 Q 1571.0 650.0 1593.0 625.0 Q 1605.0 612.0 1619.0 612.0 Q 1629.0 612.0 1634.0 624.0 Q 1638.0 637.0 1633.0 665.0 Q 1626.0 692.0 1549.0 716.0 Q 1536.0 720.0 1529.0 718.0 Q 1525.0 714.0 1525.0 703.0 Q 1526.0 693.0 1550.0 672.0 Z" fill="lightgray"></path>
      </clipPath>
      <path clip-path="url(#make-me-a-hanzi-clip-11)" d="M 1534.0 709.0 L 1594.0 667.0 L 1618.0 628.0 " fill="none" id="make-me-a-hanzi-animation-11" stroke-dasharray="247 494" stroke-linecap="round"></path>

      <clipPath id="make-me-a-hanzi-clip-12">
      <path d="M 1769.0 742.0 Q 1745.0 697.0 1695.0 628.0 Q 1691.0 621.0 1696.0 614.0 Q 1703.0 613.0 1711.0 618.0 Q 1799.0 697.0 1843.0 728.0 Q 1859.0 735.0 1855.0 745.0 Q 1848.0 760.0 1827.0 777.0 Q 1806.0 793.0 1784.0 793.0 Q 1769.0 792.0 1772.0 772.0 Q 1776.0 759.0 1769.0 742.0 Z" fill="lightgray"></path>
      </clipPath>
      <path clip-path="url(#make-me-a-hanzi-clip-12)" d="M 1785.0 778.0 L 1808.0 747.0 L 1702.0 621.0 " fill="none" id="make-me-a-hanzi-animation-12" stroke-dasharray="331 662" stroke-linecap="round"></path>

      <clipPath id="make-me-a-hanzi-clip-13">
      <path d="M 1682.0 508.0 Q 1842.0 547.0 1848.0 552.0 Q 1857.0 559.0 1852.0 568.0 Q 1845.0 578.0 1817.0 585.0 Q 1790.0 591.0 1701.0 559.0 Q 1584.0 532.0 1541.0 527.0 Q 1507.0 520.0 1532.0 505.0 Q 1571.0 484.0 1628.0 496.0 L 1682.0 508.0 Z" fill="lightgray"></path>
      </clipPath>
      <path clip-path="url(#make-me-a-hanzi-clip-13)" d="M 1534.0 517.0 L 1554.0 512.0 L 1616.0 516.0 L 1805.0 563.0 L 1842.0 562.0 " fill="none" id="make-me-a-hanzi-animation-13" stroke-dasharray="443 886" stroke-linecap="round"></path>

      <clipPath id="make-me-a-hanzi-clip-14">
      <path d="M 1705.0 359.0 Q 1735.0 368.0 1817.0 378.0 Q 1827.0 377.0 1835.0 390.0 Q 1836.0 400.0 1814.0 410.0 Q 1781.0 428.0 1709.0 405.0 Q 1708.0 405.0 1706.0 404.0 L 1652.0 390.0 Q 1595.0 381.0 1536.0 370.0 Q 1509.0 366.0 1531.0 350.0 Q 1559.0 329.0 1601.0 337.0 Q 1623.0 343.0 1652.0 348.0 L 1705.0 359.0 Z" fill="lightgray"></path>
      </clipPath>
      <path clip-path="url(#make-me-a-hanzi-clip-14)" d="M 1531.0 361.0 L 1590.0 357.0 L 1758.0 394.0 L 1824.0 391.0 " fill="none" id="make-me-a-hanzi-animation-14" stroke-dasharray="425 850" stroke-linecap="round"></path>

      <clipPath id="make-me-a-hanzi-clip-15">
      <path d="M 1702.0 213.0 Q 1795.0 228.0 1952.0 228.0 Q 1973.0 229.0 1977.0 238.0 Q 1983.0 251.0 1965.0 264.0 Q 1905.0 306.0 1844.0 286.0 Q 1786.0 274.0 1703.0 257.0 L 1651.0 248.0 Q 1552.0 232.0 1441.0 214.0 Q 1419.0 211.0 1436.0 194.0 Q 1467.0 167.0 1518.0 179.0 Q 1578.0 197.0 1650.0 206.0 L 1702.0 213.0 Z" fill="lightgray"></path>
      </clipPath>
      <path clip-path="url(#make-me-a-hanzi-clip-15)" d="M 1438.0 204.0 L 1493.0 198.0 L 1618.0 223.0 L 1882.0 260.0 L 1964.0 245.0 " fill="none" id="make-me-a-hanzi-animation-15" stroke-dasharray="661 1322" stroke-linecap="round"></path>

      <clipPath id="make-me-a-hanzi-clip-16">
      <path d="M 1651.0 -76.0 Q 1657.0 -101.0 1663.0 -110.0 Q 1669.0 -117.0 1676.0 -115.0 Q 1694.0 -103.0 1697.0 -48.0 Q 1701.0 0.0 1702.0 213.0 L 1703.0 257.0 Q 1703.0 303.0 1705.0 359.0 L 1706.0 404.0 Q 1709.0 438.0 1717.0 466.0 Q 1720.0 484.0 1706.0 493.0 Q 1693.0 503.0 1682.0 508.0 C 1656.0 523.0 1617.0 524.0 1628.0 496.0 Q 1650.0 445.0 1652.0 390.0 L 1652.0 348.0 Q 1652.0 302.0 1651.0 248.0 L 1650.0 206.0 Q 1644.0 -8.0 1651.0 -76.0 Z" fill="lightgray"></path>
      </clipPath>
      <path clip-path="url(#make-me-a-hanzi-clip-16)" d="M 1636.0 491.0 L 1678.0 467.0 L 1672.0 -105.0 " fill="none" id="make-me-a-hanzi-animation-16" stroke-dasharray="748 1496" stroke-linecap="round"></path>

</g>
</svg>
