<svg version="1.1" viewBox="0 0 2048 1024" xmlns="http://www.w3.org/2000/svg">
  <g stroke="lightgray" stroke-dasharray="1,1" stroke-width="1" transform="scale(4, 4)">
    <line x1="0" y1="0" x2="256" y2="256"></line>
    <line x1="256" y1="0" x2="0" y2="256"></line>
    <line x1="128" y1="0" x2="128" y2="256"></line>
    <line x1="0" y1="128" x2="256" y2="128"></line>
    <line x1="256" y1="0" x2="512" y2="256"></line>
    <line x1="512" y1="0" x2="256" y2="256"></line>
    <line x1="384" y1="0" x2="384" y2="256"></line>
    <line x1="256" y1="128" x2="512" y2="128"></line>
  </g>
<g transform="scale(1, -1) translate(0, -850)">
   <style type="text/css">
    @keyframes keyframes0 {
      from {
       stroke: black;
       stroke-dashoffset: 773;
       stroke-width: 128;
       }
       72% {
       animation-timing-function: step-end;
       stroke: black;
       stroke-dashoffset: 0;
       stroke-width: 128;
       }
       to {
       stroke: black;
       stroke-width: 1024;
       }
       }
       #make-me-a-hanzi-animation-0 {
         animation: keyframes0 0.879069s both;
         animation-delay: 0.000000s;
         animation-timing-function: linear;
       }
    @keyframes keyframes1 {
      from {
       stroke: black;
       stroke-dashoffset: 374;
       stroke-width: 128;
       }
       55% {
       animation-timing-function: step-end;
       stroke: black;
       stroke-dashoffset: 0;
       stroke-width: 128;
       }
       to {
       stroke: black;
       stroke-width: 1024;
       }
       }
       #make-me-a-hanzi-animation-1 {
         animation: keyframes1 0.554362s both;
         animation-delay: 0.879069s;
         animation-timing-function: linear;
       }
    @keyframes keyframes2 {
      from {
       stroke: black;
       stroke-dashoffset: 424;
       stroke-width: 128;
       }
       58% {
       animation-timing-function: step-end;
       stroke: black;
       stroke-dashoffset: 0;
       stroke-width: 128;
       }
       to {
       stroke: black;
       stroke-width: 1024;
       }
       }
       #make-me-a-hanzi-animation-2 {
         animation: keyframes2 0.595052s both;
         animation-delay: 1.433431s;
         animation-timing-function: linear;
       }
    @keyframes keyframes3 {
      from {
       stroke: black;
       stroke-dashoffset: 1023;
       stroke-width: 128;
       }
       77% {
       animation-timing-function: step-end;
       stroke: black;
       stroke-dashoffset: 0;
       stroke-width: 128;
       }
       to {
       stroke: black;
       stroke-width: 1024;
       }
       }
       #make-me-a-hanzi-animation-3 {
         animation: keyframes3 1.082520s both;
         animation-delay: 2.028483s;
         animation-timing-function: linear;
       }
    @keyframes keyframes4 {
      from {
       stroke: black;
       stroke-dashoffset: 533;
       stroke-width: 128;
       }
       63% {
       animation-timing-function: step-end;
       stroke: black;
       stroke-dashoffset: 0;
       stroke-width: 128;
       }
       to {
       stroke: black;
       stroke-width: 1024;
       }
       }
       #make-me-a-hanzi-animation-4 {
         animation: keyframes4 0.683757s both;
         animation-delay: 3.111003s;
         animation-timing-function: linear;
       }
    @keyframes keyframes5 {
      from {
       stroke: black;
       stroke-dashoffset: 534;
       stroke-width: 128;
       }
       63% {
       animation-timing-function: step-end;
       stroke: black;
       stroke-dashoffset: 0;
       stroke-width: 128;
       }
       to {
       stroke: black;
       stroke-width: 1024;
       }
       }
       #make-me-a-hanzi-animation-5 {
         animation: keyframes5 0.684570s both;
         animation-delay: 3.794760s;
         animation-timing-function: linear;
       }
    @keyframes keyframes6 {
      from {
       stroke: black;
       stroke-dashoffset: 391;
       stroke-width: 128;
       }
       56% {
       animation-timing-function: step-end;
       stroke: black;
       stroke-dashoffset: 0;
       stroke-width: 128;
       }
       to {
       stroke: black;
       stroke-width: 1024;
       }
       }
       #make-me-a-hanzi-animation-6 {
         animation: keyframes6 0.568197s both;
         animation-delay: 4.479330s;
         animation-timing-function: linear;
       }
    @keyframes keyframes7 {
      from {
       stroke: black;
       stroke-dashoffset: 714;
       stroke-width: 128;
       }
       70% {
       animation-timing-function: step-end;
       stroke: black;
       stroke-dashoffset: 0;
       stroke-width: 128;
       }
       to {
       stroke: black;
       stroke-width: 1024;
       }
       }
       #make-me-a-hanzi-animation-7 {
         animation: keyframes7 0.831055s both;
         animation-delay: 5.047527s;
         animation-timing-function: linear;
       }
    @keyframes keyframes8 {
      from {
       stroke: black;
       stroke-dashoffset: 1216;
       stroke-width: 128;
       }
       80% {
       animation-timing-function: step-end;
       stroke: black;
       stroke-dashoffset: 0;
       stroke-width: 128;
       }
       to {
       stroke: black;
       stroke-width: 1024;
       }
       }
       #make-me-a-hanzi-animation-8 {
         animation: keyframes8 1.239583s both;
         animation-delay: 5.878582s;
         animation-timing-function: linear;
       }
    @keyframes keyframes9 {
      from {
       stroke: black;
       stroke-dashoffset: 425;
       stroke-width: 128;
       }
       58% {
       animation-timing-function: step-end;
       stroke: black;
       stroke-dashoffset: 0;
       stroke-width: 128;
       }
       to {
       stroke: black;
       stroke-width: 1024;
       }
       }
       #make-me-a-hanzi-animation-9 {
         animation: keyframes9 0.595866s both;
         animation-delay: 7.118165s;
         animation-timing-function: linear;
       }
    @keyframes keyframes10 {
      from {
       stroke: black;
       stroke-dashoffset: 1061;
       stroke-width: 128;
       }
       78% {
       animation-timing-function: step-end;
       stroke: black;
       stroke-dashoffset: 0;
       stroke-width: 128;
       }
       to {
       stroke: black;
       stroke-width: 1024;
       }
       }
       #make-me-a-hanzi-animation-10 {
         animation: keyframes10 1.113444s both;
         animation-delay: 7.714031s;
         animation-timing-function: linear;
       }
    @keyframes keyframes11 {
      from {
       stroke: black;
       stroke-dashoffset: 817;
       stroke-width: 128;
       }
       73% {
       animation-timing-function: step-end;
       stroke: black;
       stroke-dashoffset: 0;
       stroke-width: 128;
       }
       to {
       stroke: black;
       stroke-width: 1024;
       }
       }
       #make-me-a-hanzi-animation-11 {
         animation: keyframes11 0.914876s both;
         animation-delay: 8.827475s;
         animation-timing-function: linear;
       }
    @keyframes keyframes12 {
      from {
       stroke: black;
       stroke-dashoffset: 459;
       stroke-width: 128;
       }
       60% {
       animation-timing-function: step-end;
       stroke: black;
       stroke-dashoffset: 0;
       stroke-width: 128;
       }
       to {
       stroke: black;
       stroke-width: 1024;
       }
       }
       #make-me-a-hanzi-animation-12 {
         animation: keyframes12 0.623535s both;
         animation-delay: 9.742351s;
         animation-timing-function: linear;
       }
    @keyframes keyframes13 {
      from {
       stroke: black;
       stroke-dashoffset: 772;
       stroke-width: 128;
       }
       72% {
       animation-timing-function: step-end;
       stroke: black;
       stroke-dashoffset: 0;
       stroke-width: 128;
       }
       to {
       stroke: black;
       stroke-width: 1024;
       }
       }
       #make-me-a-hanzi-animation-13 {
         animation: keyframes13 0.878255s both;
         animation-delay: 10.365886s;
         animation-timing-function: linear;
       }
</style>
<path d="M 690.0 416.5 Q 708.0 442.5 718.0 492.5 Q 727.0 619.5 782.0 678.5 Q 796.0 705.5 744.0 731.5 Q 692.0 756.5 668.0 744.5 Q 649.0 735.5 603.0 720.5 Q 557.0 705.5 508.0 696.5 C 479.0 690.5 476.0 661.5 506.0 666.5 Q 540.0 672.5 589.0 683.5 Q 638.0 694.5 666.0 698.5 Q 694.0 697.5 692.0 670.5 Q 692.0 646.5 684.0 576.5 Q 676.0 505.5 674.0 488.5 C 671.0 458.5 645.0 480.5 654.0 452.5 Q 663.0 423.5 666.0 422.5 Q 670.0 406.5 679.0 408.5 Q 688.0 410.5 690.0 416.5 Z" fill="lightgray"></path> 
<path d="M 506.0 546.5 Q 537.0 542.5 572.0 550.5 Q 607.0 557.5 624.0 564.5 Q 644.0 573.5 631.0 586.5 Q 617.0 599.5 592.0 598.5 Q 565.0 588.5 506.0 578.5 C 476.0 573.5 476.0 549.5 506.0 546.5 Z" fill="lightgray"></path> 
<path d="M 506.0 422.5 Q 598.0 444.5 654.0 452.5 C 684.0 456.5 703.0 494.5 674.0 488.5 Q 567.0 466.5 506.0 454.5 C 477.0 448.5 477.0 415.5 506.0 422.5 Z" fill="lightgray"></path> 
<path d="M 508.0 696.5 Q 476.0 696.5 448.0 702.5 Q 431.0 699.5 436.0 688.5 Q 454.0 657.5 460.0 612.5 Q 469.0 412.5 460.0 222.5 Q 453.0 175.5 438.0 156.5 Q 431.0 132.5 461.0 95.5 Q 490.0 57.5 504.0 74.5 Q 532.0 112.5 560.0 143.5 Q 588.0 174.5 654.0 236.5 Q 657.0 239.5 658.0 247.5 Q 658.0 254.5 638.0 246.5 Q 572.0 207.5 512.0 184.5 Q 499.0 177.5 502.0 200.5 Q 508.0 308.5 506.0 422.5 L 506.0 454.5 Q 506.0 483.5 506.0 546.5 L 506.0 578.5 Q 506.0 590.5 506.0 618.5 Q 506.0 646.5 506.0 666.5 C 506.0 696.5 510.0 696.5 508.0 696.5 Z" fill="lightgray"></path> 
<path d="M 754.0 462.5 Q 754.0 451.5 752.0 440.5 Q 731.0 407.5 582.0 326.5 C 556.0 312.5 586.0 316.5 614.0 326.5 Q 770.0 380.5 854.0 414.5 Q 886.0 434.5 830.0 457.5 Q 773.0 480.5 754.0 462.5 Z" fill="lightgray"></path> 
<path d="M 582.0 326.5 Q 531.0 331.5 562.0 312.5 Q 747.0 229.5 828.0 204.5 Q 858.0 202.5 849.5 236.5 Q 841.0 270.5 800.0 286.5 Q 710.0 312.5 614.0 326.5 L 582.0 326.5 Z" fill="lightgray"></path> 
<path d="M 254.0 528.5 Q 281.0 524.5 287.0 548.0 Q 293.0 571.5 288.0 586.5 Q 269.0 621.5 237.0 632.0 Q 205.0 642.5 178.0 648.5 Q 138.0 655.5 158.0 632.5 Q 177.0 600.5 204.0 568.5 Q 231.0 536.5 254.0 528.5 Z" fill="lightgray"></path> 
<path d="M 230.0 124.5 Q 236.0 145.5 222.0 188.5 Q 205.0 219.5 193.0 234.5 Q 181.0 249.5 186.0 262.5 Q 206.0 309.5 268.0 360.5 Q 291.0 383.5 251.0 406.5 Q 210.0 428.5 184.0 418.5 Q 155.0 398.5 115.0 387.5 Q 74.0 375.5 40.0 372.5 Q 18.0 366.5 36.0 353.5 Q 54.0 339.5 78.0 342.5 Q 153.0 357.5 172.0 364.5 Q 184.0 363.5 176.0 336.5 Q 167.0 309.5 154.0 268.5 Q 141.0 246.5 158.0 230.5 Q 193.0 189.5 198.0 124.5 C 201.0 94.5 226.0 94.5 230.0 124.5 Z" fill="lightgray"></path> 
<path d="M 198.0 124.5 Q 175.0 123.5 129.0 110.5 Q 83.0 97.5 46.0 76.5 Q 35.0 68.5 56.5 58.5 Q 78.0 48.5 98.0 54.5 Q 114.0 64.5 146.5 79.0 Q 179.0 93.5 226.0 88.5 Q 260.0 81.5 330.5 59.0 Q 401.0 36.5 485.0 8.5 Q 569.0 -19.5 643.0 -42.0 Q 717.0 -64.5 760.0 -74.5 Q 812.0 -80.5 892.5 -50.5 Q 973.0 -20.5 994.0 -3.5 Q 1006.0 8.5 988.0 8.5 Q 910.0 3.5 824.0 4.0 Q 738.0 4.5 680.0 12.5 Q 541.0 34.5 416.5 73.0 Q 292.0 111.5 230.0 124.5 L 198.0 124.5 Z" fill="lightgray"></path> 
<path d="M 1329.5 664.0 Q 1366.5 637.0 1404.5 605.0 Q 1420.5 592.0 1438.5 593.0 Q 1451.5 594.0 1455.5 610.0 Q 1459.5 628.0 1447.5 661.0 Q 1434.5 697.0 1320.5 718.0 Q 1302.5 721.0 1295.5 717.0 Q 1289.5 713.0 1292.5 698.0 Q 1296.5 685.0 1329.5 664.0 Z" fill="lightgray"></path> 
<path d="M 1188.5 392.0 Q 1137.5 377.0 1109.5 375.0 Q 1094.5 375.0 1091.5 368.0 Q 1087.5 359.0 1099.5 351.0 Q 1121.5 336.0 1138.5 334.0 Q 1154.5 330.0 1265.5 382.0 Q 1292.5 395.0 1301.5 387.0 Q 1308.5 383.0 1301.5 273.0 Q 1297.5 156.0 1261.5 52.0 Q 1243.5 18.0 1288.5 -32.0 Q 1298.5 -45.0 1309.5 -38.0 Q 1316.5 -31.0 1328.5 -7.0 Q 1370.5 48.0 1455.5 141.0 Q 1468.5 153.0 1465.5 160.0 Q 1464.5 169.0 1452.5 159.0 Q 1409.5 129.0 1366.5 96.0 Q 1324.5 60.0 1331.5 113.0 Q 1332.5 180.0 1360.5 345.0 Q 1364.5 370.0 1388.5 393.0 Q 1401.5 403.0 1391.5 416.0 Q 1381.5 432.0 1341.5 451.0 Q 1329.5 458.0 1311.5 447.0 Q 1233.5 407.0 1188.5 392.0 Z" fill="lightgray"></path> 
<path d="M 1690.5 105.0 Q 1694.5 229.0 1699.5 346.0 L 1700.5 378.0 Q 1703.5 508.0 1724.5 598.0 Q 1728.5 611.0 1704.5 627.0 Q 1664.5 648.0 1637.5 652.0 Q 1618.5 656.0 1609.5 646.0 Q 1600.5 637.0 1610.5 620.0 Q 1641.5 577.0 1642.5 545.0 Q 1654.5 338.0 1643.5 98.0 C 1642.5 68.0 1689.5 75.0 1690.5 105.0 Z" fill="lightgray"></path> 
<path d="M 1699.5 346.0 Q 1747.5 342.0 1813.5 358.0 Q 1901.5 383.0 1904.5 385.0 Q 1913.5 394.0 1907.5 402.0 Q 1900.5 414.0 1869.5 419.0 Q 1838.5 423.0 1808.5 408.0 Q 1783.5 398.0 1756.5 390.0 Q 1729.5 384.0 1700.5 378.0 C 1671.5 372.0 1669.5 348.0 1699.5 346.0 Z" fill="lightgray"></path> 
<path d="M 1643.5 98.0 Q 1556.5 86.0 1460.5 73.0 Q 1438.5 72.0 1454.5 53.0 Q 1485.5 25.0 1536.5 36.0 Q 1668.5 72.0 1953.5 72.0 Q 1974.5 72.0 1978.5 81.0 Q 1984.5 93.0 1967.5 107.0 Q 1915.5 146.0 1873.5 138.0 Q 1806.5 123.0 1690.5 105.0 L 1643.5 98.0 Z" fill="lightgray"></path> 
      <clipPath id="make-me-a-hanzi-clip-0">
      <path d="M 690.0 416.5 Q 708.0 442.5 718.0 492.5 Q 727.0 619.5 782.0 678.5 Q 796.0 705.5 744.0 731.5 Q 692.0 756.5 668.0 744.5 Q 649.0 735.5 603.0 720.5 Q 557.0 705.5 508.0 696.5 C 479.0 690.5 476.0 661.5 506.0 666.5 Q 540.0 672.5 589.0 683.5 Q 638.0 694.5 666.0 698.5 Q 694.0 697.5 692.0 670.5 Q 692.0 646.5 684.0 576.5 Q 676.0 505.5 674.0 488.5 C 671.0 458.5 645.0 480.5 654.0 452.5 Q 663.0 423.5 666.0 422.5 Q 670.0 406.5 679.0 408.5 Q 688.0 410.5 690.0 416.5 Z" fill="lightgray"></path>
      </clipPath>
      <path clip-path="url(#make-me-a-hanzi-clip-0)" d="M 511.0 673.5 L 522.0 683.5 L 673.0 721.5 L 706.0 714.5 L 734.0 687.5 L 707.0 584.5 L 696.0 488.5 L 680.0 449.5 L 679.0 420.5 " fill="none" id="make-me-a-hanzi-animation-0" stroke-dasharray="645 1290" stroke-linecap="round"></path>

      <clipPath id="make-me-a-hanzi-clip-1">
      <path d="M 506.0 546.5 Q 537.0 542.5 572.0 550.5 Q 607.0 557.5 624.0 564.5 Q 644.0 573.5 631.0 586.5 Q 617.0 599.5 592.0 598.5 Q 565.0 588.5 506.0 578.5 C 476.0 573.5 476.0 549.5 506.0 546.5 Z" fill="lightgray"></path>
      </clipPath>
      <path clip-path="url(#make-me-a-hanzi-clip-1)" d="M 513.0 551.5 L 523.0 562.5 L 599.0 578.5 L 624.0 576.5 " fill="none" id="make-me-a-hanzi-animation-1" stroke-dasharray="246 492" stroke-linecap="round"></path>

      <clipPath id="make-me-a-hanzi-clip-2">
      <path d="M 506.0 422.5 Q 598.0 444.5 654.0 452.5 C 684.0 456.5 703.0 494.5 674.0 488.5 Q 567.0 466.5 506.0 454.5 C 477.0 448.5 477.0 415.5 506.0 422.5 Z" fill="lightgray"></path>
      </clipPath>
      <path clip-path="url(#make-me-a-hanzi-clip-2)" d="M 514.0 427.5 L 527.0 443.5 L 645.0 466.5 L 665.0 485.5 " fill="none" id="make-me-a-hanzi-animation-2" stroke-dasharray="296 592" stroke-linecap="round"></path>

      <clipPath id="make-me-a-hanzi-clip-3">
      <path d="M 508.0 696.5 Q 476.0 696.5 448.0 702.5 Q 431.0 699.5 436.0 688.5 Q 454.0 657.5 460.0 612.5 Q 469.0 412.5 460.0 222.5 Q 453.0 175.5 438.0 156.5 Q 431.0 132.5 461.0 95.5 Q 490.0 57.5 504.0 74.5 Q 532.0 112.5 560.0 143.5 Q 588.0 174.5 654.0 236.5 Q 657.0 239.5 658.0 247.5 Q 658.0 254.5 638.0 246.5 Q 572.0 207.5 512.0 184.5 Q 499.0 177.5 502.0 200.5 Q 508.0 308.5 506.0 422.5 L 506.0 454.5 Q 506.0 483.5 506.0 546.5 L 506.0 578.5 Q 506.0 590.5 506.0 618.5 Q 506.0 646.5 506.0 666.5 C 506.0 696.5 510.0 696.5 508.0 696.5 Z" fill="lightgray"></path>
      </clipPath>
      <path clip-path="url(#make-me-a-hanzi-clip-3)" d="M 446.0 692.5 L 477.0 668.5 L 484.0 610.5 L 485.0 286.5 L 477.0 174.5 L 484.0 143.5 L 491.0 137.5 L 520.0 150.5 L 651.0 243.5 " fill="none" id="make-me-a-hanzi-animation-3" stroke-dasharray="895 1790" stroke-linecap="round"></path>

      <clipPath id="make-me-a-hanzi-clip-4">
      <path d="M 754.0 462.5 Q 754.0 451.5 752.0 440.5 Q 731.0 407.5 582.0 326.5 C 556.0 312.5 586.0 316.5 614.0 326.5 Q 770.0 380.5 854.0 414.5 Q 886.0 434.5 830.0 457.5 Q 773.0 480.5 754.0 462.5 Z" fill="lightgray"></path>
      </clipPath>
      <path clip-path="url(#make-me-a-hanzi-clip-4)" d="M 850.0 429.5 L 788.0 428.5 L 707.0 377.5 L 609.0 332.5 L 598.0 332.5 " fill="none" id="make-me-a-hanzi-animation-4" stroke-dasharray="405 810" stroke-linecap="round"></path>

      <clipPath id="make-me-a-hanzi-clip-5">
      <path d="M 582.0 326.5 Q 531.0 331.5 562.0 312.5 Q 747.0 229.5 828.0 204.5 Q 858.0 202.5 849.5 236.5 Q 841.0 270.5 800.0 286.5 Q 710.0 312.5 614.0 326.5 L 582.0 326.5 Z" fill="lightgray"></path>
      </clipPath>
      <path clip-path="url(#make-me-a-hanzi-clip-5)" d="M 575.0 314.5 L 609.0 310.5 L 783.0 256.5 L 817.0 239.5 L 833.0 222.5 " fill="none" id="make-me-a-hanzi-animation-5" stroke-dasharray="406 812" stroke-linecap="round"></path>

      <clipPath id="make-me-a-hanzi-clip-6">
      <path d="M 254.0 528.5 Q 281.0 524.5 287.0 548.0 Q 293.0 571.5 288.0 586.5 Q 269.0 621.5 237.0 632.0 Q 205.0 642.5 178.0 648.5 Q 138.0 655.5 158.0 632.5 Q 177.0 600.5 204.0 568.5 Q 231.0 536.5 254.0 528.5 Z" fill="lightgray"></path>
      </clipPath>
      <path clip-path="url(#make-me-a-hanzi-clip-6)" d="M 166.0 643.5 L 235.0 591.5 L 263.0 551.5 " fill="none" id="make-me-a-hanzi-animation-6" stroke-dasharray="263 526" stroke-linecap="round"></path>

      <clipPath id="make-me-a-hanzi-clip-7">
      <path d="M 230.0 124.5 Q 236.0 145.5 222.0 188.5 Q 205.0 219.5 193.0 234.5 Q 181.0 249.5 186.0 262.5 Q 206.0 309.5 268.0 360.5 Q 291.0 383.5 251.0 406.5 Q 210.0 428.5 184.0 418.5 Q 155.0 398.5 115.0 387.5 Q 74.0 375.5 40.0 372.5 Q 18.0 366.5 36.0 353.5 Q 54.0 339.5 78.0 342.5 Q 153.0 357.5 172.0 364.5 Q 184.0 363.5 176.0 336.5 Q 167.0 309.5 154.0 268.5 Q 141.0 246.5 158.0 230.5 Q 193.0 189.5 198.0 124.5 C 201.0 94.5 226.0 94.5 230.0 124.5 Z" fill="lightgray"></path>
      </clipPath>
      <path clip-path="url(#make-me-a-hanzi-clip-7)" d="M 38.0 362.5 L 85.0 360.5 L 176.0 387.5 L 198.0 387.5 L 214.0 378.5 L 218.0 371.5 L 211.0 351.5 L 171.0 271.5 L 167.0 249.5 L 204.0 187.5 L 214.0 141.5 L 225.0 130.5 " fill="none" id="make-me-a-hanzi-animation-7" stroke-dasharray="586 1172" stroke-linecap="round"></path>

      <clipPath id="make-me-a-hanzi-clip-8">
      <path d="M 198.0 124.5 Q 175.0 123.5 129.0 110.5 Q 83.0 97.5 46.0 76.5 Q 35.0 68.5 56.5 58.5 Q 78.0 48.5 98.0 54.5 Q 114.0 64.5 146.5 79.0 Q 179.0 93.5 226.0 88.5 Q 260.0 81.5 330.5 59.0 Q 401.0 36.5 485.0 8.5 Q 569.0 -19.5 643.0 -42.0 Q 717.0 -64.5 760.0 -74.5 Q 812.0 -80.5 892.5 -50.5 Q 973.0 -20.5 994.0 -3.5 Q 1006.0 8.5 988.0 8.5 Q 910.0 3.5 824.0 4.0 Q 738.0 4.5 680.0 12.5 Q 541.0 34.5 416.5 73.0 Q 292.0 111.5 230.0 124.5 L 198.0 124.5 Z" fill="lightgray"></path>
      </clipPath>
      <path clip-path="url(#make-me-a-hanzi-clip-8)" d="M 54.0 69.5 L 88.0 73.5 L 173.0 104.5 L 231.0 106.5 L 574.0 5.5 L 769.0 -35.5 L 857.0 -29.5 L 986.0 0.5 " fill="none" id="make-me-a-hanzi-animation-8" stroke-dasharray="1088 2176" stroke-linecap="round"></path>

      <clipPath id="make-me-a-hanzi-clip-9">
      <path d="M 1329.5 664.0 Q 1366.5 637.0 1404.5 605.0 Q 1420.5 592.0 1438.5 593.0 Q 1451.5 594.0 1455.5 610.0 Q 1459.5 628.0 1447.5 661.0 Q 1434.5 697.0 1320.5 718.0 Q 1302.5 721.0 1295.5 717.0 Q 1289.5 713.0 1292.5 698.0 Q 1296.5 685.0 1329.5 664.0 Z" fill="lightgray"></path>
      </clipPath>
      <path clip-path="url(#make-me-a-hanzi-clip-9)" d="M 1302.5 709.0 L 1403.5 655.0 L 1436.5 612.0 " fill="none" id="make-me-a-hanzi-animation-9" stroke-dasharray="297 594" stroke-linecap="round"></path>

      <clipPath id="make-me-a-hanzi-clip-10">
      <path d="M 1188.5 392.0 Q 1137.5 377.0 1109.5 375.0 Q 1094.5 375.0 1091.5 368.0 Q 1087.5 359.0 1099.5 351.0 Q 1121.5 336.0 1138.5 334.0 Q 1154.5 330.0 1265.5 382.0 Q 1292.5 395.0 1301.5 387.0 Q 1308.5 383.0 1301.5 273.0 Q 1297.5 156.0 1261.5 52.0 Q 1243.5 18.0 1288.5 -32.0 Q 1298.5 -45.0 1309.5 -38.0 Q 1316.5 -31.0 1328.5 -7.0 Q 1370.5 48.0 1455.5 141.0 Q 1468.5 153.0 1465.5 160.0 Q 1464.5 169.0 1452.5 159.0 Q 1409.5 129.0 1366.5 96.0 Q 1324.5 60.0 1331.5 113.0 Q 1332.5 180.0 1360.5 345.0 Q 1364.5 370.0 1388.5 393.0 Q 1401.5 403.0 1391.5 416.0 Q 1381.5 432.0 1341.5 451.0 Q 1329.5 458.0 1311.5 447.0 Q 1233.5 407.0 1188.5 392.0 Z" fill="lightgray"></path>
      </clipPath>
      <path clip-path="url(#make-me-a-hanzi-clip-10)" d="M 1100.5 364.0 L 1149.5 358.0 L 1296.5 414.0 L 1332.5 412.0 L 1341.5 403.0 L 1303.5 94.0 L 1309.5 46.0 L 1354.5 61.0 L 1459.5 157.0 " fill="none" id="make-me-a-hanzi-animation-10" stroke-dasharray="933 1866" stroke-linecap="round"></path>

      <clipPath id="make-me-a-hanzi-clip-11">
      <path d="M 1690.5 105.0 Q 1694.5 229.0 1699.5 346.0 L 1700.5 378.0 Q 1703.5 508.0 1724.5 598.0 Q 1728.5 611.0 1704.5 627.0 Q 1664.5 648.0 1637.5 652.0 Q 1618.5 656.0 1609.5 646.0 Q 1600.5 637.0 1610.5 620.0 Q 1641.5 577.0 1642.5 545.0 Q 1654.5 338.0 1643.5 98.0 C 1642.5 68.0 1689.5 75.0 1690.5 105.0 Z" fill="lightgray"></path>
      </clipPath>
      <path clip-path="url(#make-me-a-hanzi-clip-11)" d="M 1623.5 634.0 L 1677.5 592.0 L 1669.5 144.0 L 1667.5 125.0 L 1650.5 106.0 " fill="none" id="make-me-a-hanzi-animation-11" stroke-dasharray="689 1378" stroke-linecap="round"></path>

      <clipPath id="make-me-a-hanzi-clip-12">
      <path d="M 1699.5 346.0 Q 1747.5 342.0 1813.5 358.0 Q 1901.5 383.0 1904.5 385.0 Q 1913.5 394.0 1907.5 402.0 Q 1900.5 414.0 1869.5 419.0 Q 1838.5 423.0 1808.5 408.0 Q 1783.5 398.0 1756.5 390.0 Q 1729.5 384.0 1700.5 378.0 C 1671.5 372.0 1669.5 348.0 1699.5 346.0 Z" fill="lightgray"></path>
      </clipPath>
      <path clip-path="url(#make-me-a-hanzi-clip-12)" d="M 1705.5 351.0 L 1715.5 362.0 L 1769.5 371.0 L 1837.5 392.0 L 1874.5 398.0 L 1898.5 394.0 " fill="none" id="make-me-a-hanzi-animation-12" stroke-dasharray="331 662" stroke-linecap="round"></path>

      <clipPath id="make-me-a-hanzi-clip-13">
      <path d="M 1643.5 98.0 Q 1556.5 86.0 1460.5 73.0 Q 1438.5 72.0 1454.5 53.0 Q 1485.5 25.0 1536.5 36.0 Q 1668.5 72.0 1953.5 72.0 Q 1974.5 72.0 1978.5 81.0 Q 1984.5 93.0 1967.5 107.0 Q 1915.5 146.0 1873.5 138.0 Q 1806.5 123.0 1690.5 105.0 L 1643.5 98.0 Z" fill="lightgray"></path>
      </clipPath>
      <path clip-path="url(#make-me-a-hanzi-clip-13)" d="M 1457.5 63.0 L 1479.5 57.0 L 1524.5 57.0 L 1638.5 77.0 L 1890.5 106.0 L 1966.5 87.0 " fill="none" id="make-me-a-hanzi-animation-13" stroke-dasharray="644 1288" stroke-linecap="round"></path>

</g>
</svg>
