<svg version="1.1" viewBox="0 0 2048 1024" xmlns="http://www.w3.org/2000/svg">
  <g stroke="lightgray" stroke-dasharray="1,1" stroke-width="1" transform="scale(4, 4)">
    <line x1="0" y1="0" x2="256" y2="256"></line>
    <line x1="256" y1="0" x2="0" y2="256"></line>
    <line x1="128" y1="0" x2="128" y2="256"></line>
    <line x1="0" y1="128" x2="256" y2="128"></line>
    <line x1="256" y1="0" x2="512" y2="256"></line>
    <line x1="512" y1="0" x2="256" y2="256"></line>
    <line x1="384" y1="0" x2="384" y2="256"></line>
    <line x1="256" y1="128" x2="512" y2="128"></line>
  </g>
<g transform="scale(1, -1) translate(0, -850)">
   <style type="text/css">
    @keyframes keyframes0 {
      from {
       stroke: black;
       stroke-dashoffset: 524;
       stroke-width: 128;
       }
       63% {
       animation-timing-function: step-end;
       stroke: black;
       stroke-dashoffset: 0;
       stroke-width: 128;
       }
       to {
       stroke: black;
       stroke-width: 1024;
       }
       }
       #make-me-a-hanzi-animation-0 {
         animation: keyframes0 0.676432s both;
         animation-delay: 0.000000s;
         animation-timing-function: linear;
       }
    @keyframes keyframes1 {
      from {
       stroke: black;
       stroke-dashoffset: 593;
       stroke-width: 128;
       }
       66% {
       animation-timing-function: step-end;
       stroke: black;
       stroke-dashoffset: 0;
       stroke-width: 128;
       }
       to {
       stroke: black;
       stroke-width: 1024;
       }
       }
       #make-me-a-hanzi-animation-1 {
         animation: keyframes1 0.732585s both;
         animation-delay: 0.676432s;
         animation-timing-function: linear;
       }
    @keyframes keyframes2 {
      from {
       stroke: black;
       stroke-dashoffset: 799;
       stroke-width: 128;
       }
       72% {
       animation-timing-function: step-end;
       stroke: black;
       stroke-dashoffset: 0;
       stroke-width: 128;
       }
       to {
       stroke: black;
       stroke-width: 1024;
       }
       }
       #make-me-a-hanzi-animation-2 {
         animation: keyframes2 0.900228s both;
         animation-delay: 1.409017s;
         animation-timing-function: linear;
       }
    @keyframes keyframes3 {
      from {
       stroke: black;
       stroke-dashoffset: 732;
       stroke-width: 128;
       }
       70% {
       animation-timing-function: step-end;
       stroke: black;
       stroke-dashoffset: 0;
       stroke-width: 128;
       }
       to {
       stroke: black;
       stroke-width: 1024;
       }
       }
       #make-me-a-hanzi-animation-3 {
         animation: keyframes3 0.845703s both;
         animation-delay: 2.309245s;
         animation-timing-function: linear;
       }
    @keyframes keyframes4 {
      from {
       stroke: black;
       stroke-dashoffset: 456;
       stroke-width: 128;
       }
       60% {
       animation-timing-function: step-end;
       stroke: black;
       stroke-dashoffset: 0;
       stroke-width: 128;
       }
       to {
       stroke: black;
       stroke-width: 1024;
       }
       }
       #make-me-a-hanzi-animation-4 {
         animation: keyframes4 0.621094s both;
         animation-delay: 3.154948s;
         animation-timing-function: linear;
       }
    @keyframes keyframes5 {
      from {
       stroke: black;
       stroke-dashoffset: 666;
       stroke-width: 128;
       }
       68% {
       animation-timing-function: step-end;
       stroke: black;
       stroke-dashoffset: 0;
       stroke-width: 128;
       }
       to {
       stroke: black;
       stroke-width: 1024;
       }
       }
       #make-me-a-hanzi-animation-5 {
         animation: keyframes5 0.791992s both;
         animation-delay: 3.776042s;
         animation-timing-function: linear;
       }
    @keyframes keyframes6 {
      from {
       stroke: black;
       stroke-dashoffset: 505;
       stroke-width: 128;
       }
       62% {
       animation-timing-function: step-end;
       stroke: black;
       stroke-dashoffset: 0;
       stroke-width: 128;
       }
       to {
       stroke: black;
       stroke-width: 1024;
       }
       }
       #make-me-a-hanzi-animation-6 {
         animation: keyframes6 0.660970s both;
         animation-delay: 4.568034s;
         animation-timing-function: linear;
       }
    @keyframes keyframes7 {
      from {
       stroke: black;
       stroke-dashoffset: 397;
       stroke-width: 128;
       }
       56% {
       animation-timing-function: step-end;
       stroke: black;
       stroke-dashoffset: 0;
       stroke-width: 128;
       }
       to {
       stroke: black;
       stroke-width: 1024;
       }
       }
       #make-me-a-hanzi-animation-7 {
         animation: keyframes7 0.573079s both;
         animation-delay: 5.229004s;
         animation-timing-function: linear;
       }
    @keyframes keyframes8 {
      from {
       stroke: black;
       stroke-dashoffset: 716;
       stroke-width: 128;
       }
       70% {
       animation-timing-function: step-end;
       stroke: black;
       stroke-dashoffset: 0;
       stroke-width: 128;
       }
       to {
       stroke: black;
       stroke-width: 1024;
       }
       }
       #make-me-a-hanzi-animation-8 {
         animation: keyframes8 0.832682s both;
         animation-delay: 5.802083s;
         animation-timing-function: linear;
       }
    @keyframes keyframes9 {
      from {
       stroke: black;
       stroke-dashoffset: 1166;
       stroke-width: 128;
       }
       79% {
       animation-timing-function: step-end;
       stroke: black;
       stroke-dashoffset: 0;
       stroke-width: 128;
       }
       to {
       stroke: black;
       stroke-width: 1024;
       }
       }
       #make-me-a-hanzi-animation-9 {
         animation: keyframes9 1.198893s both;
         animation-delay: 6.634766s;
         animation-timing-function: linear;
       }
    @keyframes keyframes10 {
      from {
       stroke: black;
       stroke-dashoffset: 405;
       stroke-width: 128;
       }
       57% {
       animation-timing-function: step-end;
       stroke: black;
       stroke-dashoffset: 0;
       stroke-width: 128;
       }
       to {
       stroke: black;
       stroke-width: 1024;
       }
       }
       #make-me-a-hanzi-animation-10 {
         animation: keyframes10 0.579590s both;
         animation-delay: 7.833659s;
         animation-timing-function: linear;
       }
    @keyframes keyframes11 {
      from {
       stroke: black;
       stroke-dashoffset: 694;
       stroke-width: 128;
       }
       69% {
       animation-timing-function: step-end;
       stroke: black;
       stroke-dashoffset: 0;
       stroke-width: 128;
       }
       to {
       stroke: black;
       stroke-width: 1024;
       }
       }
       #make-me-a-hanzi-animation-11 {
         animation: keyframes11 0.814779s both;
         animation-delay: 8.413249s;
         animation-timing-function: linear;
       }
    @keyframes keyframes12 {
      from {
       stroke: black;
       stroke-dashoffset: 443;
       stroke-width: 128;
       }
       59% {
       animation-timing-function: step-end;
       stroke: black;
       stroke-dashoffset: 0;
       stroke-width: 128;
       }
       to {
       stroke: black;
       stroke-width: 1024;
       }
       }
       #make-me-a-hanzi-animation-12 {
         animation: keyframes12 0.610514s both;
         animation-delay: 9.228027s;
         animation-timing-function: linear;
       }
    @keyframes keyframes13 {
      from {
       stroke: black;
       stroke-dashoffset: 566;
       stroke-width: 128;
       }
       65% {
       animation-timing-function: step-end;
       stroke: black;
       stroke-dashoffset: 0;
       stroke-width: 128;
       }
       to {
       stroke: black;
       stroke-width: 1024;
       }
       }
       #make-me-a-hanzi-animation-13 {
         animation: keyframes13 0.710612s both;
         animation-delay: 9.838542s;
         animation-timing-function: linear;
       }
    @keyframes keyframes14 {
      from {
       stroke: black;
       stroke-dashoffset: 415;
       stroke-width: 128;
       }
       57% {
       animation-timing-function: step-end;
       stroke: black;
       stroke-dashoffset: 0;
       stroke-width: 128;
       }
       to {
       stroke: black;
       stroke-width: 1024;
       }
       }
       #make-me-a-hanzi-animation-14 {
         animation: keyframes14 0.587728s both;
         animation-delay: 10.549154s;
         animation-timing-function: linear;
       }
    @keyframes keyframes15 {
      from {
       stroke: black;
       stroke-dashoffset: 648;
       stroke-width: 128;
       }
       68% {
       animation-timing-function: step-end;
       stroke: black;
       stroke-dashoffset: 0;
       stroke-width: 128;
       }
       to {
       stroke: black;
       stroke-width: 1024;
       }
       }
       #make-me-a-hanzi-animation-15 {
         animation: keyframes15 0.777344s both;
         animation-delay: 11.136882s;
         animation-timing-function: linear;
       }
    @keyframes keyframes16 {
      from {
       stroke: black;
       stroke-dashoffset: 459;
       stroke-width: 128;
       }
       60% {
       animation-timing-function: step-end;
       stroke: black;
       stroke-dashoffset: 0;
       stroke-width: 128;
       }
       to {
       stroke: black;
       stroke-width: 1024;
       }
       }
       #make-me-a-hanzi-animation-16 {
         animation: keyframes16 0.623535s both;
         animation-delay: 11.914225s;
         animation-timing-function: linear;
       }
    @keyframes keyframes17 {
      from {
       stroke: black;
       stroke-dashoffset: 369;
       stroke-width: 128;
       }
       55% {
       animation-timing-function: step-end;
       stroke: black;
       stroke-dashoffset: 0;
       stroke-width: 128;
       }
       to {
       stroke: black;
       stroke-width: 1024;
       }
       }
       #make-me-a-hanzi-animation-17 {
         animation: keyframes17 0.550293s both;
         animation-delay: 12.537760s;
         animation-timing-function: linear;
       }
    @keyframes keyframes18 {
      from {
       stroke: black;
       stroke-dashoffset: 567;
       stroke-width: 128;
       }
       65% {
       animation-timing-function: step-end;
       stroke: black;
       stroke-dashoffset: 0;
       stroke-width: 128;
       }
       to {
       stroke: black;
       stroke-width: 1024;
       }
       }
       #make-me-a-hanzi-animation-18 {
         animation: keyframes18 0.711426s both;
         animation-delay: 13.088053s;
         animation-timing-function: linear;
       }
    @keyframes keyframes19 {
      from {
       stroke: black;
       stroke-dashoffset: 1033;
       stroke-width: 128;
       }
       77% {
       animation-timing-function: step-end;
       stroke: black;
       stroke-dashoffset: 0;
       stroke-width: 128;
       }
       to {
       stroke: black;
       stroke-width: 1024;
       }
       }
       #make-me-a-hanzi-animation-19 {
         animation: keyframes19 1.090658s both;
         animation-delay: 13.799479s;
         animation-timing-function: linear;
       }
    @keyframes keyframes20 {
      from {
       stroke: black;
       stroke-dashoffset: 1019;
       stroke-width: 128;
       }
       77% {
       animation-timing-function: step-end;
       stroke: black;
       stroke-dashoffset: 0;
       stroke-width: 128;
       }
       to {
       stroke: black;
       stroke-width: 1024;
       }
       }
       #make-me-a-hanzi-animation-20 {
         animation: keyframes20 1.079264s both;
         animation-delay: 14.890137s;
         animation-timing-function: linear;
       }
    @keyframes keyframes21 {
      from {
       stroke: black;
       stroke-dashoffset: 382;
       stroke-width: 128;
       }
       55% {
       animation-timing-function: step-end;
       stroke: black;
       stroke-dashoffset: 0;
       stroke-width: 128;
       }
       to {
       stroke: black;
       stroke-width: 1024;
       }
       }
       #make-me-a-hanzi-animation-21 {
         animation: keyframes21 0.560872s both;
         animation-delay: 15.969401s;
         animation-timing-function: linear;
       }
</style>
<path d="M 465 444 Q 495 494 506 511 Q 511 518 516 521 Q 536 533 505 556 Q 470 584 456 581 Q 449 578 448 577 L 447 559 L 443 530 Q 441 513 430 481 Q 405 408 381 366 L 369 345 Q 363 338 367 335 Q 371 332 377 337 Q 405 361 421 379 Q 431 388 449 415 L 465 444 Z" fill="lightgray"></path> 
<path d="M 580 460 L 465 444 C 435 440 419 419 449 415 L 477 411 Q 497 407 512 408 L 580 413 L 636 423 L 704 434 L 761 446 Q 780 450 786 455 Q 797 463 796 468 Q 790 483 766 489 Q 742 497 734 497 Q 727 496 701 487 Q 679 479 638 471 L 580 460 Z" fill="lightgray"></path> 
<path d="M 580 302 L 369 276 Q 355 274 354 271 Q 353 268 355 262 Q 358 253 384 246 Q 411 238 418 239 L 431 240 L 524 255 Q 545 259 581 262 L 631 267 L 648 269 Q 734 278 787 280 L 867 282 Q 894 283 901 286 Q 908 288 909 292 Q 911 295 907 300 Q 904 304 900 307 Q 897 309 893 313 Q 865 334 837 337 Q 825 334 632 306 L 580 302 Z" fill="lightgray"></path> 
<path d="M 557 650 Q 558 644 564 631 L 572 611 L 575 600 Q 577 595 578 589 L 579 580 Q 580 577 580 569 L 580 460 L 580 413 L 580 302 L 581 262 L 586 198 L 588 191 C 593 161 616 164 621 194 L 622 201 Q 625 213 631 267 L 632 306 L 636 423 L 638 471 L 641 526 Q 641 582 652 607 Q 659 625 658 630 Q 654 643 628 653 L 611 659 L 588 664 Q 574 666 565 663 Q 557 659 557 650 Z" fill="lightgray"></path> 
<path d="M 509 64 Q 509 65 507 73 Q 505 81 503 101 L 499 145 C 496 175 496 177 478 179 Q 475 178 467 181 L 452 186 Q 433 189 423 186 Q 419 185 420 177 Q 421 169 428 161 Q 449 101 454 56 Q 456 -1 475 -18 Q 483 -27 500 -20 Q 509 -13 509 -2 L 510 23 L 509 64 Z" fill="lightgray"></path> 
<path d="M 499 145 L 546 151 L 663 163 Q 701 167 704 165 Q 711 156 707 118 Q 703 79 687 38 C 677 10 726 4 737 32 Q 745 53 764 92 Q 782 137 795 150 Q 813 163 798 174 Q 783 184 753 198 Q 725 210 695 206 L 621 194 L 588 191 L 565 187 Q 544 183 525 182 Q 507 180 478 179 C 448 178 469 141 499 145 Z" fill="lightgray"></path> 
<path d="M 687 38 L 510 23 C 480 20 479 1 509 -2 Q 516 -3 528 -3 L 754 5 Q 765 5 768 11 Q 767 17 754 25 Q 741 32 737 32 L 687 38 Z" fill="lightgray"></path> 
<path d="M 143 537 L 153 520 Q 157 513 177 491 L 202 462 Q 232 425 247 429 Q 264 434 270 455 Q 286 513 221 534 Q 180 547 163 549 L 147 551 Q 130 552 143 537 Z" fill="lightgray"></path> 
<path d="M 263 12 L 272 35 Q 276 46 275 67 Q 272 108 235 136 L 212 151 Q 202 157 202 162 Q 202 167 220 186 L 258 229 Q 266 241 273 246 L 290 259 Q 298 266 300 271 Q 300 283 270 304 Q 243 321 236 320 Q 229 319 219 314 Q 209 308 184 297 L 145 281 Q 132 276 116 274 L 84 265 Q 83 264 83 262 Q 81 254 100 249 Q 122 241 134 244 Q 147 246 177 254 Q 207 262 210 259 Q 212 255 204 233 L 178 175 Q 175 167 174 161 Q 174 155 184 148 Q 194 140 210 119 Q 246 72 237 12 C 234 -18 252 -16 263 12 Z" fill="lightgray"></path> 
<path d="M 237 12 L 208 11 L 160 6 Q 119 1 112 1 Q 95 -3 77 1 Q 59 5 56 3 Q 48 1 48 -3 Q 45 -8 58 -27 Q 62 -32 77 -44 Q 93 -56 101 -56 Q 110 -56 121 -50 Q 132 -44 145 -40 Q 222 -20 288 -29 Q 314 -35 387 -57 L 560 -118 Q 631 -144 664 -154 Q 698 -165 718 -164 Q 738 -164 806 -140 L 876 -114 Q 904 -105 917 -99 L 942 -86 Q 954 -81 951 -75 Q 949 -69 937 -69 L 892 -69 L 836 -71 Q 791 -73 745 -70 Q 587 -68 479 -40 L 401 -19 Q 301 8 263 12 L 237 12 Z" fill="lightgray"></path> 
<path d="M 1340 466 L 1347 483 Q 1349 488 1349 497 Q 1349 503 1348 511 Q 1345 534 1331 551 Q 1317 568 1298 578 Q 1278 588 1254 595 Q 1246 597 1242 597 Q 1239 597 1238 596 Q 1236 592 1236 585 Q 1236 578 1250 550 L 1276 498 Q 1285 480 1292 473 Q 1298 466 1308 460 C 1331 445 1331 445 1340 466 Z" fill="lightgray"></path> 
<path d="M 1308 460 L 1154 436 L 1098 429 Q 1086 428 1084 424 L 1084 422 Q 1084 418 1086 413 Q 1088 406 1104 399 Q 1119 391 1129 388 Q 1139 385 1147 385 Q 1154 386 1164 388 L 1220 403 Q 1244 409 1272 414 L 1346 427 L 1406 438 Q 1422 440 1471 445 L 1515 449 Q 1525 450 1528 455 L 1528 457 Q 1528 462 1523 470 Q 1516 480 1500 484 Q 1485 488 1476 488 Q 1466 488 1432 482 L 1340 466 L 1308 460 Z" fill="lightgray"></path> 
<path d="M 1222 322 L 1200 326 Q 1194 327 1190 327 Q 1185 327 1182 326 Q 1176 324 1173 321 Q 1172 319 1172 317 L 1172 315 Q 1172 312 1182 305 Q 1192 298 1196 288 Q 1202 276 1204 264 L 1218 190 Q 1220 172 1224 164 Q 1226 156 1231 150 Q 1235 144 1240 144 Q 1244 144 1251 154 L 1258 165 C 1261 170 1261 170 1258 198 L 1247 301 C 1245 318 1245 318 1222 322 Z" fill="lightgray"></path> 
<path d="M 1404 207 L 1424 266 Q 1426 274 1429 280 Q 1432 286 1438 296 Q 1444 306 1452 312 Q 1458 318 1460 322 L 1460 323 Q 1460 328 1454 336 Q 1448 344 1432 354 Q 1417 362 1406 366 Q 1397 368 1390 368 L 1386 368 Q 1383 366 1374 362 Q 1364 358 1344 351 Q 1323 344 1314 342 L 1222 322 C 1193 316 1218 295 1247 301 L 1336 318 Q 1358 321 1367 321 L 1370 321 Q 1376 320 1379 314 Q 1380 312 1380 308 Q 1380 303 1378 294 L 1368 242 Q 1366 233 1360 214 C 1351 185 1394 179 1404 207 Z" fill="lightgray"></path> 
<path d="M 1315 170 L 1410 180 Q 1422 182 1424 187 L 1424 188 Q 1424 194 1418 198 Q 1410 204 1404 207 C 1385 218 1385 218 1360 214 L 1258 198 C 1228 193 1228 163 1258 165 L 1277 166 L 1315 170 Z" fill="lightgray"></path> 
<path d="M 1277 166 L 1287 149 Q 1290 144 1294 126 Q 1297 108 1298 101 L 1298 0 Q 1298 -12 1296 -28 Q 1294 -44 1291 -57 Q 1288 -70 1283 -73 Q 1281 -74 1277 -74 Q 1273 -74 1268 -73 L 1250 -68 L 1226 -62 Q 1222 -61 1219 -61 Q 1215 -61 1214 -63 L 1214 -65 Q 1214 -68 1218 -73 L 1235 -94 L 1252 -116 Q 1269 -139 1276 -151 Q 1283 -163 1288 -164 L 1291 -164 Q 1297 -164 1304 -160 Q 1314 -155 1325 -140 Q 1336 -126 1340 -112 Q 1343 -98 1344 -82 L 1342 -33 L 1342 69 Q 1342 82 1345 102 Q 1348 122 1350 128 Q 1353 138 1353 143 L 1353 145 Q 1352 150 1342 157 Q 1332 164 1315 170 C 1287 181 1262 191 1277 166 Z" fill="lightgray"></path> 
<path d="M 1115 -64 Q 1131 -55 1143 -46 Q 1156 -37 1169 -23 Q 1183 -8 1194 6 Q 1205 20 1213 32 Q 1220 44 1227 49 Q 1233 54 1234 56 Q 1235 57 1235 59 Q 1235 62 1232 65 Q 1229 71 1222 78 L 1210 88 Q 1205 92 1195 96 Q 1185 100 1180 100 Q 1174 100 1172 98 Q 1170 96 1170 86 Q 1169 76 1167 64 Q 1165 52 1159 38 Q 1154 25 1144 8 Q 1135 -8 1125 -22 Q 1115 -37 1108 -46 L 1098 -59 Q 1092 -66 1092 -69 Q 1092 -72 1094 -73 L 1095 -73 Q 1098 -73 1102 -71 L 1115 -64 Z" fill="lightgray"></path> 
<path d="M 1423 40 Q 1426 34 1436 22 Q 1446 11 1453 10 Q 1457 9 1460 9 Q 1468 9 1474 15 Q 1482 24 1482 44 Q 1482 66 1474 78 Q 1465 92 1454 98 Q 1444 104 1425 113 Q 1406 121 1396 122 Q 1386 122 1383 118 Q 1382 117 1382 116 Q 1382 111 1391 97 L 1423 40 Z" fill="lightgray"></path> 
<path d="M 1606 342 L 1518 332 Q 1509 330 1507 326 L 1507 325 Q 1507 322 1510 316 Q 1514 310 1524 306 Q 1534 303 1540 302 L 1571 302 L 1598 301 L 1655 309 L 1779 331 L 1806 338 Q 1820 341 1824 345 Q 1828 348 1829 352 L 1829 354 Q 1829 357 1826 361 Q 1823 366 1806 372 Q 1790 379 1783 380 Q 1780 381 1776 381 Q 1772 381 1768 380 L 1732 369 L 1664 352 L 1606 342 Z" fill="lightgray"></path> 
<path d="M 1664 352 L 1678 470 L 1682 500 L 1686 524 Q 1687 530 1690 544 Q 1694 558 1698 566 Q 1704 576 1704 578 Q 1704 584 1696 593 Q 1688 602 1676 606 Q 1665 612 1652 614 Q 1638 618 1630 618 Q 1620 618 1617 615 Q 1614 612 1614 608 Q 1614 603 1618 592 Q 1623 580 1624 570 Q 1625 560 1626 544 Q 1626 520 1625 510 Q 1625 498 1622 473 Q 1620 448 1614 406 Q 1608 364 1606 342 L 1598 301 L 1591 262 Q 1588 244 1573 191 Q 1558 138 1544 102 Q 1531 66 1512 30 Q 1493 -7 1480 -24 Q 1468 -41 1448 -66 L 1432 -86 Q 1426 -93 1426 -97 Q 1426 -99 1427 -101 Q 1429 -102 1431 -102 Q 1436 -102 1445 -96 L 1464 -82 Q 1480 -72 1502 -49 Q 1524 -26 1547 8 Q 1570 43 1589 87 Q 1608 131 1620 175 L 1640 247 Q 1646 274 1655 309 L 1664 352 Z" fill="lightgray"></path> 
<path d="M 1702 10 L 1708 99 Q 1710 120 1712 133 Q 1714 146 1718 162 Q 1722 178 1727 193 Q 1732 208 1736 216 Q 1741 225 1741 230 L 1741 232 Q 1741 238 1729 248 Q 1716 258 1698 266 Q 1680 274 1666 274 Q 1658 274 1655 270 Q 1653 267 1653 263 L 1653 261 Q 1654 256 1659 244 Q 1664 232 1665 218 Q 1666 214 1666 207 Q 1666 201 1665 192 Q 1664 174 1664 160 L 1656 24 Q 1655 7 1655 -8 Q 1655 -36 1659 -52 Q 1664 -76 1682 -97 Q 1699 -118 1723 -128 Q 1748 -139 1774 -142 Q 1787 -143 1802 -143 Q 1816 -143 1832 -142 Q 1874 -141 1904 -134 Q 1934 -126 1956 -112 Q 1977 -97 1986 -83 Q 1991 -75 1991 -70 Q 1991 -68 1990 -67 Q 1990 -62 1983 -52 Q 1976 -42 1973 -33 Q 1969 -24 1964 -1 Q 1958 21 1958 31 L 1952 64 Q 1950 74 1947 74 L 1946 74 Q 1942 74 1940 66 L 1935 38 L 1929 5 Q 1924 -16 1918 -32 Q 1912 -48 1899 -59 Q 1886 -70 1864 -76 Q 1846 -80 1818 -80 L 1806 -80 Q 1782 -80 1764 -78 Q 1746 -76 1730 -66 Q 1715 -56 1709 -45 Q 1703 -34 1702 -22 L 1702 10 Z" fill="lightgray"></path> 
<path d="M 1802 448 Q 1814 432 1824 426 Q 1834 420 1842 420 Q 1845 419 1848 419 Q 1854 419 1860 423 Q 1868 427 1872 434 Q 1876 441 1876 453 Q 1876 465 1870 475 Q 1865 486 1857 492 Q 1848 499 1826 506 Q 1803 514 1793 516 Q 1784 518 1761 521 L 1755 521 Q 1749 521 1748 520 Q 1747 518 1747 516 L 1747 513 Q 1748 508 1766 489 L 1802 448 Z" fill="lightgray"></path> 
      <clipPath id="make-me-a-hanzi-clip-0">
      <path d="M 465 444 Q 495 494 506 511 Q 511 518 516 521 Q 536 533 505 556 Q 470 584 456 581 Q 449 578 448 577 L 447 559 L 443 530 Q 441 513 430 481 Q 405 408 381 366 L 369 345 Q 363 338 367 335 Q 371 332 377 337 Q 405 361 421 379 Q 431 388 449 415 L 465 444 Z" fill="lightgray"></path>
      </clipPath>
      <path clip-path="url(#make-me-a-hanzi-clip-0)" d="M 455 572 L 470 553 L 476 525 L 426 416 L 391 360 L 371 339 " fill="none" id="make-me-a-hanzi-animation-0" stroke-dasharray="396 792" stroke-linecap="round"></path>

      <clipPath id="make-me-a-hanzi-clip-1">
      <path d="M 580 460 L 465 444 C 435 440 419 419 449 415 L 477 411 Q 497 407 512 408 L 580 413 L 636 423 L 704 434 L 761 446 Q 780 450 786 455 Q 797 463 796 468 Q 790 483 766 489 Q 742 497 734 497 Q 727 496 701 487 Q 679 479 638 471 L 580 460 Z" fill="lightgray"></path>
      </clipPath>
      <path clip-path="url(#make-me-a-hanzi-clip-1)" d="M 456 417 L 476 429 L 572 435 L 735 469 L 786 468 " fill="none" id="make-me-a-hanzi-animation-1" stroke-dasharray="465 930" stroke-linecap="round"></path>

      <clipPath id="make-me-a-hanzi-clip-2">
      <path d="M 580 302 L 369 276 Q 355 274 354 271 Q 353 268 355 262 Q 358 253 384 246 Q 411 238 418 239 L 431 240 L 524 255 Q 545 259 581 262 L 631 267 L 648 269 Q 734 278 787 280 L 867 282 Q 894 283 901 286 Q 908 288 909 292 Q 911 295 907 300 Q 904 304 900 307 Q 897 309 893 313 Q 865 334 837 337 Q 825 334 632 306 L 580 302 Z" fill="lightgray"></path>
      </clipPath>
      <path clip-path="url(#make-me-a-hanzi-clip-2)" d="M 364 268 L 370 263 L 416 260 L 836 309 L 901 294 " fill="none" id="make-me-a-hanzi-animation-2" stroke-dasharray="671 1342" stroke-linecap="round"></path>

      <clipPath id="make-me-a-hanzi-clip-3">
      <path d="M 557 650 Q 558 644 564 631 L 572 611 L 575 600 Q 577 595 578 589 L 579 580 Q 580 577 580 569 L 580 460 L 580 413 L 580 302 L 581 262 L 586 198 L 588 191 C 593 161 616 164 621 194 L 622 201 Q 625 213 631 267 L 632 306 L 636 423 L 638 471 L 641 526 Q 641 582 652 607 Q 659 625 658 630 Q 654 643 628 653 L 611 659 L 588 664 Q 574 666 565 663 Q 557 659 557 650 Z" fill="lightgray"></path>
      </clipPath>
      <path clip-path="url(#make-me-a-hanzi-clip-3)" d="M 572 650 L 612 616 L 605 215 L 593 196 " fill="none" id="make-me-a-hanzi-animation-3" stroke-dasharray="604 1208" stroke-linecap="round"></path>

      <clipPath id="make-me-a-hanzi-clip-4">
      <path d="M 509 64 Q 509 65 507 73 Q 505 81 503 101 L 499 145 C 496 175 496 177 478 179 Q 475 178 467 181 L 452 186 Q 433 189 423 186 Q 419 185 420 177 Q 421 169 428 161 Q 449 101 454 56 Q 456 -1 475 -18 Q 483 -27 500 -20 Q 509 -13 509 -2 L 510 23 L 509 64 Z" fill="lightgray"></path>
      </clipPath>
      <path clip-path="url(#make-me-a-hanzi-clip-4)" d="M 430 179 L 460 153 L 469 135 L 489 -4 " fill="none" id="make-me-a-hanzi-animation-4" stroke-dasharray="328 656" stroke-linecap="round"></path>

      <clipPath id="make-me-a-hanzi-clip-5">
      <path d="M 499 145 L 546 151 L 663 163 Q 701 167 704 165 Q 711 156 707 118 Q 703 79 687 38 C 677 10 726 4 737 32 Q 745 53 764 92 Q 782 137 795 150 Q 813 163 798 174 Q 783 184 753 198 Q 725 210 695 206 L 621 194 L 588 191 L 565 187 Q 544 183 525 182 Q 507 180 478 179 C 448 178 469 141 499 145 Z" fill="lightgray"></path>
      </clipPath>
      <path clip-path="url(#make-me-a-hanzi-clip-5)" d="M 487 177 L 508 163 L 676 184 L 716 185 L 726 179 L 748 155 L 739 112 L 721 59 L 694 43 " fill="none" id="make-me-a-hanzi-animation-5" stroke-dasharray="538 1076" stroke-linecap="round"></path>

      <clipPath id="make-me-a-hanzi-clip-6">
      <path d="M 687 38 L 510 23 C 480 20 479 1 509 -2 Q 516 -3 528 -3 L 754 5 Q 765 5 768 11 Q 767 17 754 25 Q 741 32 737 32 L 687 38 Z" fill="lightgray"></path>
      </clipPath>
      <path clip-path="url(#make-me-a-hanzi-clip-6)" d="M 514 4 L 533 11 L 681 21 L 729 19 L 760 11 " fill="none" id="make-me-a-hanzi-animation-6" stroke-dasharray="377 754" stroke-linecap="round"></path>

      <clipPath id="make-me-a-hanzi-clip-7">
      <path d="M 143 537 L 153 520 Q 157 513 177 491 L 202 462 Q 232 425 247 429 Q 264 434 270 455 Q 286 513 221 534 Q 180 547 163 549 L 147 551 Q 130 552 143 537 Z" fill="lightgray"></path>
      </clipPath>
      <path clip-path="url(#make-me-a-hanzi-clip-7)" d="M 150 543 L 227 490 L 240 469 L 244 447 " fill="none" id="make-me-a-hanzi-animation-7" stroke-dasharray="269 538" stroke-linecap="round"></path>

      <clipPath id="make-me-a-hanzi-clip-8">
      <path d="M 263 12 L 272 35 Q 276 46 275 67 Q 272 108 235 136 L 212 151 Q 202 157 202 162 Q 202 167 220 186 L 258 229 Q 266 241 273 246 L 290 259 Q 298 266 300 271 Q 300 283 270 304 Q 243 321 236 320 Q 229 319 219 314 Q 209 308 184 297 L 145 281 Q 132 276 116 274 L 84 265 Q 83 264 83 262 Q 81 254 100 249 Q 122 241 134 244 Q 147 246 177 254 Q 207 262 210 259 Q 212 255 204 233 L 178 175 Q 175 167 174 161 Q 174 155 184 148 Q 194 140 210 119 Q 246 72 237 12 C 234 -18 252 -16 263 12 Z" fill="lightgray"></path>
      </clipPath>
      <path clip-path="url(#make-me-a-hanzi-clip-8)" d="M 91 261 L 148 263 L 216 284 L 236 283 L 246 274 L 234 241 L 188 165 L 203 143 L 232 118 L 252 84 L 257 50 L 253 26 L 244 20 " fill="none" id="make-me-a-hanzi-animation-8" stroke-dasharray="588 1176" stroke-linecap="round"></path>

      <clipPath id="make-me-a-hanzi-clip-9">
      <path d="M 237 12 L 208 11 L 160 6 Q 119 1 112 1 Q 95 -3 77 1 Q 59 5 56 3 Q 48 1 48 -3 Q 45 -8 58 -27 Q 62 -32 77 -44 Q 93 -56 101 -56 Q 110 -56 121 -50 Q 132 -44 145 -40 Q 222 -20 288 -29 Q 314 -35 387 -57 L 560 -118 Q 631 -144 664 -154 Q 698 -165 718 -164 Q 738 -164 806 -140 L 876 -114 Q 904 -105 917 -99 L 942 -86 Q 954 -81 951 -75 Q 949 -69 937 -69 L 892 -69 L 836 -71 Q 791 -73 745 -70 Q 587 -68 479 -40 L 401 -19 Q 301 8 263 12 L 237 12 Z" fill="lightgray"></path>
      </clipPath>
      <path clip-path="url(#make-me-a-hanzi-clip-9)" d="M 57 -6 L 84 -23 L 105 -28 L 192 -10 L 275 -8 L 600 -97 L 714 -117 L 801 -106 L 942 -77 " fill="none" id="make-me-a-hanzi-animation-9" stroke-dasharray="1038 2076" stroke-linecap="round"></path>

      <clipPath id="make-me-a-hanzi-clip-10">
      <path d="M 1340 466 L 1347 483 Q 1349 488 1349 497 Q 1349 503 1348 511 Q 1345 534 1331 551 Q 1317 568 1298 578 Q 1278 588 1254 595 Q 1246 597 1242 597 Q 1239 597 1238 596 Q 1236 592 1236 585 Q 1236 578 1250 550 L 1276 498 Q 1285 480 1292 473 Q 1298 466 1308 460 C 1331 445 1331 445 1340 466 Z" fill="lightgray"></path>
      </clipPath>
      <path clip-path="url(#make-me-a-hanzi-clip-10)" d="M 1242 590 L 1294 540 L 1333 474 " fill="none" id="make-me-a-hanzi-animation-10" stroke-dasharray="277 554" stroke-linecap="round"></path>

      <clipPath id="make-me-a-hanzi-clip-11">
      <path d="M 1308 460 L 1154 436 L 1098 429 Q 1086 428 1084 424 L 1084 422 Q 1084 418 1086 413 Q 1088 406 1104 399 Q 1119 391 1129 388 Q 1139 385 1147 385 Q 1154 386 1164 388 L 1220 403 Q 1244 409 1272 414 L 1346 427 L 1406 438 Q 1422 440 1471 445 L 1515 449 Q 1525 450 1528 455 L 1528 457 Q 1528 462 1523 470 Q 1516 480 1500 484 Q 1485 488 1476 488 Q 1466 488 1432 482 L 1340 466 L 1308 460 Z" fill="lightgray"></path>
      </clipPath>
      <path clip-path="url(#make-me-a-hanzi-clip-11)" d="M 1092 423 L 1105 415 L 1145 410 L 1473 467 L 1501 466 L 1520 456 " fill="none" id="make-me-a-hanzi-animation-11" stroke-dasharray="566 1132" stroke-linecap="round"></path>

      <clipPath id="make-me-a-hanzi-clip-12">
      <path d="M 1222 322 L 1200 326 Q 1194 327 1190 327 Q 1185 327 1182 326 Q 1176 324 1173 321 Q 1172 319 1172 317 L 1172 315 Q 1172 312 1182 305 Q 1192 298 1196 288 Q 1202 276 1204 264 L 1218 190 Q 1220 172 1224 164 Q 1226 156 1231 150 Q 1235 144 1240 144 Q 1244 144 1251 154 L 1258 165 C 1261 170 1261 170 1258 198 L 1247 301 C 1245 318 1245 318 1222 322 Z" fill="lightgray"></path>
      </clipPath>
      <path clip-path="url(#make-me-a-hanzi-clip-12)" d="M 1181 317 L 1203 309 L 1223 288 L 1241 155 " fill="none" id="make-me-a-hanzi-animation-12" stroke-dasharray="315 630" stroke-linecap="round"></path>

      <clipPath id="make-me-a-hanzi-clip-13">
      <path d="M 1404 207 L 1424 266 Q 1426 274 1429 280 Q 1432 286 1438 296 Q 1444 306 1452 312 Q 1458 318 1460 322 L 1460 323 Q 1460 328 1454 336 Q 1448 344 1432 354 Q 1417 362 1406 366 Q 1397 368 1390 368 L 1386 368 Q 1383 366 1374 362 Q 1364 358 1344 351 Q 1323 344 1314 342 L 1222 322 C 1193 316 1218 295 1247 301 L 1336 318 Q 1358 321 1367 321 L 1370 321 Q 1376 320 1379 314 Q 1380 312 1380 308 Q 1380 303 1378 294 L 1368 242 Q 1366 233 1360 214 C 1351 185 1394 179 1404 207 Z" fill="lightgray"></path>
      </clipPath>
      <path clip-path="url(#make-me-a-hanzi-clip-13)" d="M 1230 323 L 1252 314 L 1375 341 L 1400 336 L 1413 321 L 1410 306 L 1391 236 L 1369 220 " fill="none" id="make-me-a-hanzi-animation-13" stroke-dasharray="438 876" stroke-linecap="round"></path>

      <clipPath id="make-me-a-hanzi-clip-14">
      <path d="M 1315 170 L 1410 180 Q 1422 182 1424 187 L 1424 188 Q 1424 194 1418 198 Q 1410 204 1404 207 C 1385 218 1385 218 1360 214 L 1258 198 C 1228 193 1228 163 1258 165 L 1277 166 L 1315 170 Z" fill="lightgray"></path>
      </clipPath>
      <path clip-path="url(#make-me-a-hanzi-clip-14)" d="M 1262 171 L 1275 183 L 1326 191 L 1394 194 L 1415 188 " fill="none" id="make-me-a-hanzi-animation-14" stroke-dasharray="287 574" stroke-linecap="round"></path>

      <clipPath id="make-me-a-hanzi-clip-15">
      <path d="M 1277 166 L 1287 149 Q 1290 144 1294 126 Q 1297 108 1298 101 L 1298 0 Q 1298 -12 1296 -28 Q 1294 -44 1291 -57 Q 1288 -70 1283 -73 Q 1281 -74 1277 -74 Q 1273 -74 1268 -73 L 1250 -68 L 1226 -62 Q 1222 -61 1219 -61 Q 1215 -61 1214 -63 L 1214 -65 Q 1214 -68 1218 -73 L 1235 -94 L 1252 -116 Q 1269 -139 1276 -151 Q 1283 -163 1288 -164 L 1291 -164 Q 1297 -164 1304 -160 Q 1314 -155 1325 -140 Q 1336 -126 1340 -112 Q 1343 -98 1344 -82 L 1342 -33 L 1342 69 Q 1342 82 1345 102 Q 1348 122 1350 128 Q 1353 138 1353 143 L 1353 145 Q 1352 150 1342 157 Q 1332 164 1315 170 C 1287 181 1262 191 1277 166 Z" fill="lightgray"></path>
      </clipPath>
      <path clip-path="url(#make-me-a-hanzi-clip-15)" d="M 1284 164 L 1322 136 L 1320 -26 L 1313 -87 L 1297 -111 L 1217 -64 " fill="none" id="make-me-a-hanzi-animation-15" stroke-dasharray="520 1040" stroke-linecap="round"></path>

      <clipPath id="make-me-a-hanzi-clip-16">
      <path d="M 1115 -64 Q 1131 -55 1143 -46 Q 1156 -37 1169 -23 Q 1183 -8 1194 6 Q 1205 20 1213 32 Q 1220 44 1227 49 Q 1233 54 1234 56 Q 1235 57 1235 59 Q 1235 62 1232 65 Q 1229 71 1222 78 L 1210 88 Q 1205 92 1195 96 Q 1185 100 1180 100 Q 1174 100 1172 98 Q 1170 96 1170 86 Q 1169 76 1167 64 Q 1165 52 1159 38 Q 1154 25 1144 8 Q 1135 -8 1125 -22 Q 1115 -37 1108 -46 L 1098 -59 Q 1092 -66 1092 -69 Q 1092 -72 1094 -73 L 1095 -73 Q 1098 -73 1102 -71 L 1115 -64 Z" fill="lightgray"></path>
      </clipPath>
      <path clip-path="url(#make-me-a-hanzi-clip-16)" d="M 1178 91 L 1197 61 L 1189 43 L 1150 -17 L 1095 -70 " fill="none" id="make-me-a-hanzi-animation-16" stroke-dasharray="331 662" stroke-linecap="round"></path>

      <clipPath id="make-me-a-hanzi-clip-17">
      <path d="M 1423 40 Q 1426 34 1436 22 Q 1446 11 1453 10 Q 1457 9 1460 9 Q 1468 9 1474 15 Q 1482 24 1482 44 Q 1482 66 1474 78 Q 1465 92 1454 98 Q 1444 104 1425 113 Q 1406 121 1396 122 Q 1386 122 1383 118 Q 1382 117 1382 116 Q 1382 111 1391 97 L 1423 40 Z" fill="lightgray"></path>
      </clipPath>
      <path clip-path="url(#make-me-a-hanzi-clip-17)" d="M 1388 114 L 1441 70 L 1459 30 " fill="none" id="make-me-a-hanzi-animation-17" stroke-dasharray="241 482" stroke-linecap="round"></path>

      <clipPath id="make-me-a-hanzi-clip-18">
      <path d="M 1606 342 L 1518 332 Q 1509 330 1507 326 L 1507 325 Q 1507 322 1510 316 Q 1514 310 1524 306 Q 1534 303 1540 302 L 1571 302 L 1598 301 L 1655 309 L 1779 331 L 1806 338 Q 1820 341 1824 345 Q 1828 348 1829 352 L 1829 354 Q 1829 357 1826 361 Q 1823 366 1806 372 Q 1790 379 1783 380 Q 1780 381 1776 381 Q 1772 381 1768 380 L 1732 369 L 1664 352 L 1606 342 Z" fill="lightgray"></path>
      </clipPath>
      <path clip-path="url(#make-me-a-hanzi-clip-18)" d="M 1514 326 L 1532 319 L 1592 320 L 1775 356 L 1820 353 " fill="none" id="make-me-a-hanzi-animation-18" stroke-dasharray="439 878" stroke-linecap="round"></path>

      <clipPath id="make-me-a-hanzi-clip-19">
      <path d="M 1664 352 L 1678 470 L 1682 500 L 1686 524 Q 1687 530 1690 544 Q 1694 558 1698 566 Q 1704 576 1704 578 Q 1704 584 1696 593 Q 1688 602 1676 606 Q 1665 612 1652 614 Q 1638 618 1630 618 Q 1620 618 1617 615 Q 1614 612 1614 608 Q 1614 603 1618 592 Q 1623 580 1624 570 Q 1625 560 1626 544 Q 1626 520 1625 510 Q 1625 498 1622 473 Q 1620 448 1614 406 Q 1608 364 1606 342 L 1598 301 L 1591 262 Q 1588 244 1573 191 Q 1558 138 1544 102 Q 1531 66 1512 30 Q 1493 -7 1480 -24 Q 1468 -41 1448 -66 L 1432 -86 Q 1426 -93 1426 -97 Q 1426 -99 1427 -101 Q 1429 -102 1431 -102 Q 1436 -102 1445 -96 L 1464 -82 Q 1480 -72 1502 -49 Q 1524 -26 1547 8 Q 1570 43 1589 87 Q 1608 131 1620 175 L 1640 247 Q 1646 274 1655 309 L 1664 352 Z" fill="lightgray"></path>
      </clipPath>
      <path clip-path="url(#make-me-a-hanzi-clip-19)" d="M 1626 607 L 1661 572 L 1633 336 L 1603 203 L 1571 103 L 1547 49 L 1503 -23 L 1430 -98 " fill="none" id="make-me-a-hanzi-animation-19" stroke-dasharray="905 1810" stroke-linecap="round"></path>

      <clipPath id="make-me-a-hanzi-clip-20">
      <path d="M 1702 10 L 1708 99 Q 1710 120 1712 133 Q 1714 146 1718 162 Q 1722 178 1727 193 Q 1732 208 1736 216 Q 1741 225 1741 230 L 1741 232 Q 1741 238 1729 248 Q 1716 258 1698 266 Q 1680 274 1666 274 Q 1658 274 1655 270 Q 1653 267 1653 263 L 1653 261 Q 1654 256 1659 244 Q 1664 232 1665 218 Q 1666 214 1666 207 Q 1666 201 1665 192 Q 1664 174 1664 160 L 1656 24 Q 1655 7 1655 -8 Q 1655 -36 1659 -52 Q 1664 -76 1682 -97 Q 1699 -118 1723 -128 Q 1748 -139 1774 -142 Q 1787 -143 1802 -143 Q 1816 -143 1832 -142 Q 1874 -141 1904 -134 Q 1934 -126 1956 -112 Q 1977 -97 1986 -83 Q 1991 -75 1991 -70 Q 1991 -68 1990 -67 Q 1990 -62 1983 -52 Q 1976 -42 1973 -33 Q 1969 -24 1964 -1 Q 1958 21 1958 31 L 1952 64 Q 1950 74 1947 74 L 1946 74 Q 1942 74 1940 66 L 1935 38 L 1929 5 Q 1924 -16 1918 -32 Q 1912 -48 1899 -59 Q 1886 -70 1864 -76 Q 1846 -80 1818 -80 L 1806 -80 Q 1782 -80 1764 -78 Q 1746 -76 1730 -66 Q 1715 -56 1709 -45 Q 1703 -34 1702 -22 L 1702 10 Z" fill="lightgray"></path>
      </clipPath>
      <path clip-path="url(#make-me-a-hanzi-clip-20)" d="M 1663 264 L 1700 224 L 1684 106 L 1678 -17 L 1688 -60 L 1714 -90 L 1762 -109 L 1823 -112 L 1891 -103 L 1923 -88 L 1945 -68 L 1947 68 " fill="none" id="make-me-a-hanzi-animation-20" stroke-dasharray="891 1782" stroke-linecap="round"></path>

      <clipPath id="make-me-a-hanzi-clip-21">
      <path d="M 1802 448 Q 1814 432 1824 426 Q 1834 420 1842 420 Q 1845 419 1848 419 Q 1854 419 1860 423 Q 1868 427 1872 434 Q 1876 441 1876 453 Q 1876 465 1870 475 Q 1865 486 1857 492 Q 1848 499 1826 506 Q 1803 514 1793 516 Q 1784 518 1761 521 L 1755 521 Q 1749 521 1748 520 Q 1747 518 1747 516 L 1747 513 Q 1748 508 1766 489 L 1802 448 Z" fill="lightgray"></path>
      </clipPath>
      <path clip-path="url(#make-me-a-hanzi-clip-21)" d="M 1752 517 L 1830 468 L 1848 439 " fill="none" id="make-me-a-hanzi-animation-21" stroke-dasharray="254 508" stroke-linecap="round"></path>

</g>
</svg>
