<svg version="1.1" viewBox="0 0 2048 1024" xmlns="http://www.w3.org/2000/svg">
  <g stroke="lightgray" stroke-dasharray="1,1" stroke-width="1" transform="scale(4, 4)">
    <line x1="0" y1="0" x2="256" y2="256"></line>
    <line x1="256" y1="0" x2="0" y2="256"></line>
    <line x1="128" y1="0" x2="128" y2="256"></line>
    <line x1="0" y1="128" x2="256" y2="128"></line>
    <line x1="256" y1="0" x2="512" y2="256"></line>
    <line x1="512" y1="0" x2="256" y2="256"></line>
    <line x1="384" y1="0" x2="384" y2="256"></line>
    <line x1="256" y1="128" x2="512" y2="128"></line>
  </g>
<g transform="scale(1, -1) translate(0, -850)">
   <style type="text/css">
    @keyframes keyframes0 {
      from {
       stroke: black;
       stroke-dashoffset: 413;
       stroke-width: 128;
       }
       57% {
       animation-timing-function: step-end;
       stroke: black;
       stroke-dashoffset: 0;
       stroke-width: 128;
       }
       to {
       stroke: black;
       stroke-width: 1024;
       }
       }
       #make-me-a-hanzi-animation-0 {
         animation: keyframes0 0.586100s both;
         animation-delay: 0.000000s;
         animation-timing-function: linear;
       }
    @keyframes keyframes1 {
      from {
       stroke: black;
       stroke-dashoffset: 616;
       stroke-width: 128;
       }
       67% {
       animation-timing-function: step-end;
       stroke: black;
       stroke-dashoffset: 0;
       stroke-width: 128;
       }
       to {
       stroke: black;
       stroke-width: 1024;
       }
       }
       #make-me-a-hanzi-animation-1 {
         animation: keyframes1 0.751302s both;
         animation-delay: 0.586100s;
         animation-timing-function: linear;
       }
    @keyframes keyframes2 {
      from {
       stroke: black;
       stroke-dashoffset: 495;
       stroke-width: 128;
       }
       62% {
       animation-timing-function: step-end;
       stroke: black;
       stroke-dashoffset: 0;
       stroke-width: 128;
       }
       to {
       stroke: black;
       stroke-width: 1024;
       }
       }
       #make-me-a-hanzi-animation-2 {
         animation: keyframes2 0.652832s both;
         animation-delay: 1.337402s;
         animation-timing-function: linear;
       }
    @keyframes keyframes3 {
      from {
       stroke: black;
       stroke-dashoffset: 568;
       stroke-width: 128;
       }
       65% {
       animation-timing-function: step-end;
       stroke: black;
       stroke-dashoffset: 0;
       stroke-width: 128;
       }
       to {
       stroke: black;
       stroke-width: 1024;
       }
       }
       #make-me-a-hanzi-animation-3 {
         animation: keyframes3 0.712240s both;
         animation-delay: 1.990234s;
         animation-timing-function: linear;
       }
    @keyframes keyframes4 {
      from {
       stroke: black;
       stroke-dashoffset: 812;
       stroke-width: 128;
       }
       73% {
       animation-timing-function: step-end;
       stroke: black;
       stroke-dashoffset: 0;
       stroke-width: 128;
       }
       to {
       stroke: black;
       stroke-width: 1024;
       }
       }
       #make-me-a-hanzi-animation-4 {
         animation: keyframes4 0.910807s both;
         animation-delay: 2.702474s;
         animation-timing-function: linear;
       }
    @keyframes keyframes5 {
      from {
       stroke: black;
       stroke-dashoffset: 512;
       stroke-width: 128;
       }
       63% {
       animation-timing-function: step-end;
       stroke: black;
       stroke-dashoffset: 0;
       stroke-width: 128;
       }
       to {
       stroke: black;
       stroke-width: 1024;
       }
       }
       #make-me-a-hanzi-animation-5 {
         animation: keyframes5 0.666667s both;
         animation-delay: 3.613281s;
         animation-timing-function: linear;
       }
    @keyframes keyframes6 {
      from {
       stroke: black;
       stroke-dashoffset: 710;
       stroke-width: 128;
       }
       70% {
       animation-timing-function: step-end;
       stroke: black;
       stroke-dashoffset: 0;
       stroke-width: 128;
       }
       to {
       stroke: black;
       stroke-width: 1024;
       }
       }
       #make-me-a-hanzi-animation-6 {
         animation: keyframes6 0.827799s both;
         animation-delay: 4.279948s;
         animation-timing-function: linear;
       }
    @keyframes keyframes7 {
      from {
       stroke: black;
       stroke-dashoffset: 634;
       stroke-width: 128;
       }
       67% {
       animation-timing-function: step-end;
       stroke: black;
       stroke-dashoffset: 0;
       stroke-width: 128;
       }
       to {
       stroke: black;
       stroke-width: 1024;
       }
       }
       #make-me-a-hanzi-animation-7 {
         animation: keyframes7 0.765951s both;
         animation-delay: 5.107747s;
         animation-timing-function: linear;
       }
    @keyframes keyframes8 {
      from {
       stroke: black;
       stroke-dashoffset: 439;
       stroke-width: 128;
       }
       59% {
       animation-timing-function: step-end;
       stroke: black;
       stroke-dashoffset: 0;
       stroke-width: 128;
       }
       to {
       stroke: black;
       stroke-width: 1024;
       }
       }
       #make-me-a-hanzi-animation-8 {
         animation: keyframes8 0.607259s both;
         animation-delay: 5.873698s;
         animation-timing-function: linear;
       }
    @keyframes keyframes9 {
      from {
       stroke: black;
       stroke-dashoffset: 404;
       stroke-width: 128;
       }
       57% {
       animation-timing-function: step-end;
       stroke: black;
       stroke-dashoffset: 0;
       stroke-width: 128;
       }
       to {
       stroke: black;
       stroke-width: 1024;
       }
       }
       #make-me-a-hanzi-animation-9 {
         animation: keyframes9 0.578776s both;
         animation-delay: 6.480957s;
         animation-timing-function: linear;
       }
    @keyframes keyframes10 {
      from {
       stroke: black;
       stroke-dashoffset: 811;
       stroke-width: 128;
       }
       73% {
       animation-timing-function: step-end;
       stroke: black;
       stroke-dashoffset: 0;
       stroke-width: 128;
       }
       to {
       stroke: black;
       stroke-width: 1024;
       }
       }
       #make-me-a-hanzi-animation-10 {
         animation: keyframes10 0.909993s both;
         animation-delay: 7.059733s;
         animation-timing-function: linear;
       }
    @keyframes keyframes11 {
      from {
       stroke: black;
       stroke-dashoffset: 1098;
       stroke-width: 128;
       }
       78% {
       animation-timing-function: step-end;
       stroke: black;
       stroke-dashoffset: 0;
       stroke-width: 128;
       }
       to {
       stroke: black;
       stroke-width: 1024;
       }
       }
       #make-me-a-hanzi-animation-11 {
         animation: keyframes11 1.143555s both;
         animation-delay: 7.969727s;
         animation-timing-function: linear;
       }
    @keyframes keyframes12 {
      from {
       stroke: black;
       stroke-dashoffset: 524;
       stroke-width: 128;
       }
       63% {
       animation-timing-function: step-end;
       stroke: black;
       stroke-dashoffset: 0;
       stroke-width: 128;
       }
       to {
       stroke: black;
       stroke-width: 1024;
       }
       }
       #make-me-a-hanzi-animation-12 {
         animation: keyframes12 0.676432s both;
         animation-delay: 9.113281s;
         animation-timing-function: linear;
       }
    @keyframes keyframes13 {
      from {
       stroke: black;
       stroke-dashoffset: 772;
       stroke-width: 128;
       }
       72% {
       animation-timing-function: step-end;
       stroke: black;
       stroke-dashoffset: 0;
       stroke-width: 128;
       }
       to {
       stroke: black;
       stroke-width: 1024;
       }
       }
       #make-me-a-hanzi-animation-13 {
         animation: keyframes13 0.878255s both;
         animation-delay: 9.789714s;
         animation-timing-function: linear;
       }
    @keyframes keyframes14 {
      from {
       stroke: black;
       stroke-dashoffset: 619;
       stroke-width: 128;
       }
       67% {
       animation-timing-function: step-end;
       stroke: black;
       stroke-dashoffset: 0;
       stroke-width: 128;
       }
       to {
       stroke: black;
       stroke-width: 1024;
       }
       }
       #make-me-a-hanzi-animation-14 {
         animation: keyframes14 0.753743s both;
         animation-delay: 10.667969s;
         animation-timing-function: linear;
       }
    @keyframes keyframes15 {
      from {
       stroke: black;
       stroke-dashoffset: 894;
       stroke-width: 128;
       }
       74% {
       animation-timing-function: step-end;
       stroke: black;
       stroke-dashoffset: 0;
       stroke-width: 128;
       }
       to {
       stroke: black;
       stroke-width: 1024;
       }
       }
       #make-me-a-hanzi-animation-15 {
         animation: keyframes15 0.977539s both;
         animation-delay: 11.421712s;
         animation-timing-function: linear;
       }
    @keyframes keyframes16 {
      from {
       stroke: black;
       stroke-dashoffset: 459;
       stroke-width: 128;
       }
       60% {
       animation-timing-function: step-end;
       stroke: black;
       stroke-dashoffset: 0;
       stroke-width: 128;
       }
       to {
       stroke: black;
       stroke-width: 1024;
       }
       }
       #make-me-a-hanzi-animation-16 {
         animation: keyframes16 0.623535s both;
         animation-delay: 12.399251s;
         animation-timing-function: linear;
       }
    @keyframes keyframes17 {
      from {
       stroke: black;
       stroke-dashoffset: 586;
       stroke-width: 128;
       }
       66% {
       animation-timing-function: step-end;
       stroke: black;
       stroke-dashoffset: 0;
       stroke-width: 128;
       }
       to {
       stroke: black;
       stroke-width: 1024;
       }
       }
       #make-me-a-hanzi-animation-17 {
         animation: keyframes17 0.726888s both;
         animation-delay: 13.022786s;
         animation-timing-function: linear;
       }
    @keyframes keyframes18 {
      from {
       stroke: black;
       stroke-dashoffset: 824;
       stroke-width: 128;
       }
       73% {
       animation-timing-function: step-end;
       stroke: black;
       stroke-dashoffset: 0;
       stroke-width: 128;
       }
       to {
       stroke: black;
       stroke-width: 1024;
       }
       }
       #make-me-a-hanzi-animation-18 {
         animation: keyframes18 0.920573s both;
         animation-delay: 13.749674s;
         animation-timing-function: linear;
       }
</style>
<path d="M 476 672 Q 469 675 447 677 Q 437 678 434 674 Q 430 668 438 656 Q 460 620 478 560 Q 482 542 494 531 Q 510 513 513 527 Q 514 534 515 547 L 511 572 Q 499 624 496 644 C 492 667 492 667 476 672 Z" fill="lightgray"></path> 
<path d="M 743 599 Q 764 644 788 655 Q 803 671 790 687 Q 729 742 670 713 Q 651 707 633 701 L 582 689 Q 530 679 476 672 C 446 668 467 638 496 644 Q 577 660 583 661 L 632 670 Q 696 685 707 676 Q 711 672 710 660 Q 706 630 698 605 C 689 576 730 572 743 599 Z" fill="lightgray"></path> 
<path d="M 626 561 Q 677 568 750 574 Q 757 575 759 582 Q 759 588 743 599 C 727 611 727 611 698 605 Q 661 598 628 590 L 585 582 Q 545 578 511 572 C 481 567 485 544 515 547 Q 518 547 586 556 L 626 561 Z" fill="lightgray"></path> 
<path d="M 623 507 Q 624 535 626 561 L 628 590 Q 629 630 632 670 L 633 701 Q 633 711 640 747 Q 649 778 636 791 Q 633 792 632 794 Q 601 810 579 813 Q 566 816 558 808 Q 551 801 559 788 Q 577 764 582 689 L 583 661 Q 584 624 585 582 L 586 556 Q 586 531 586 502 C 586 472 622 477 623 507 Z" fill="lightgray"></path> 
<path d="M 586 502 Q 480 489 363 473 Q 344 472 358 457 Q 370 445 385 440 Q 404 436 417 440 Q 594 488 894 489 Q 895 489 897 489 Q 915 489 919 496 Q 923 506 909 518 Q 864 551 832 544 Q 756 528 623 507 L 586 502 Z" fill="lightgray"></path> 
<path d="M 501 407 Q 489 416 475 419 Q 468 420 464 414 Q 463 410 468 402 Q 498 323 473 226 Q 464 190 488 160 Q 497 150 504 161 Q 519 180 520 294 Q 519 363 521 381 C 522 393 522 393 501 407 Z" fill="lightgray"></path> 
<path d="M 690 228 Q 683 209 695 189 Q 705 164 714 165 Q 727 166 740 193 Q 753 215 753 233 Q 741 354 763 385 Q 772 398 766 408 Q 742 429 700 447 Q 687 451 667 445 Q 595 412 501 407 C 471 405 491 380 521 381 Q 528 380 538 382 Q 670 412 684 402 Q 690 389 693 354 Q 694 248 690 228 Z" fill="lightgray"></path> 
<path d="M 584 287 Q 587 163 526 116 Q 514 107 442 71 Q 438 67 450 63 Q 513 56 576 104 Q 579 107 582 110 Q 613 146 633 273 Q 634 291 644 310 Q 648 320 641 326 Q 626 341 597 354 Q 581 361 566 358 Q 550 352 562 337 Q 584 312 584 287 Z" fill="lightgray"></path> 
<path d="M 655 147 Q 700 107 753 46 Q 766 30 779 25 Q 786 24 793 32 Q 803 42 793 80 Q 781 131 656 173 Q 649 177 646 168 Q 646 156 655 147 Z" fill="lightgray"></path> 
<path d="M 235 652 Q 259 627 285 597 Q 300 581 317 580 Q 330 580 336 595 Q 343 611 335 646 Q 331 667 299 683 Q 224 716 208 709 Q 202 705 203 690 Q 206 677 235 652 Z" fill="lightgray"></path> 
<path d="M 306 92 Q 325 104 332 125 Q 344 173 296 247 Q 263 304 328 385 Q 332 394 339 400 Q 360 419 340 434 Q 319 449 284 462 Q 262 474 244 455 Q 211 431 170 414 Q 113 389 95 391 Q 88 392 86 387 Q 85 381 93 377 Q 135 359 236 401 Q 246 405 255 393 Q 277 374 257 345 Q 215 296 250 243 Q 292 177 291 134 Q 291 110 281 94 C 269 66 283 73 306 92 Z" fill="lightgray"></path> 
<path d="M 281 94 Q 233 98 184 81 Q 153 71 104 68 Q 97 67 93 59 Q 90 52 99 42 Q 115 23 140 11 Q 150 5 170 19 Q 231 65 300 53 Q 367 40 503 -15 Q 738 -114 819 -84 Q 877 -62 927 -25 Q 949 -10 926 -11 Q 701 -20 553 17 Q 471 39 368 75 Q 338 88 306 92 L 281 94 Z" fill="lightgray"></path> 
<path d="M 1331 388 Q 1358 397 1388 404 Q 1421 414 1425 419 Q 1432 426 1428 435 Q 1421 445 1391 451 Q 1363 454 1334 440 Q 1333 440 1333 439 L 1285 421 Q 1206 399 1162 391 Q 1128 382 1154 368 Q 1194 350 1266 370 Q 1273 373 1286 375 L 1331 388 Z" fill="lightgray"></path> 
<path d="M 1325 191 Q 1329 293 1331 388 L 1333 439 Q 1333 526 1353 635 Q 1357 647 1335 662 Q 1298 681 1273 684 Q 1257 688 1248 678 Q 1241 671 1249 655 Q 1279 613 1279 585 Q 1283 506 1285 421 L 1286 375 Q 1286 278 1282 173 C 1281 143 1324 161 1325 191 Z" fill="lightgray"></path> 
<path d="M 1282 173 Q 1222 149 1159 122 Q 1140 115 1108 111 Q 1095 108 1094 97 Q 1094 84 1104 76 Q 1129 63 1166 47 Q 1176 46 1188 55 Q 1230 97 1381 181 Q 1405 199 1430 216 Q 1442 226 1441 235 Q 1435 239 1423 236 Q 1375 214 1325 191 L 1282 173 Z" fill="lightgray"></path> 
<path d="M 1691 97 Q 1695 245 1697 383 L 1698 412 Q 1701 575 1721 666 Q 1725 679 1702 695 Q 1662 716 1634 720 Q 1615 724 1606 714 Q 1597 704 1608 688 Q 1642 636 1643 601 Q 1656 366 1644 90 C 1643 60 1690 67 1691 97 Z" fill="lightgray"></path> 
<path d="M 1697 383 Q 1737 368 1824 389 Q 1854 396 1887 405 Q 1906 411 1909 414 Q 1919 424 1913 433 Q 1903 446 1870 451 Q 1848 454 1766 427 Q 1742 420 1700 413 Q 1699 413 1698 412 C 1669 404 1668 392 1697 383 Z" fill="lightgray"></path> 
<path d="M 1561 80 Q 1546 294 1553 340 Q 1556 364 1540 376 Q 1516 395 1488 403 Q 1473 409 1464 402 Q 1457 395 1463 380 Q 1485 338 1496 294 Q 1503 251 1519 75 C 1522 45 1563 50 1561 80 Z" fill="lightgray"></path> 
<path d="M 1519 75 Q 1455 69 1389 61 Q 1367 60 1383 41 Q 1398 26 1416 21 Q 1438 14 1455 19 Q 1632 64 1893 57 Q 1912 57 1933 56 Q 1954 56 1959 65 Q 1965 77 1948 91 Q 1890 136 1846 122 Q 1783 112 1691 97 L 1644 90 Q 1602 86 1561 80 L 1519 75 Z" fill="lightgray"></path> 
      <clipPath id="make-me-a-hanzi-clip-0">
      <path d="M 476 672 Q 469 675 447 677 Q 437 678 434 674 Q 430 668 438 656 Q 460 620 478 560 Q 482 542 494 531 Q 510 513 513 527 Q 514 534 515 547 L 511 572 Q 499 624 496 644 C 492 667 492 667 476 672 Z" fill="lightgray"></path>
      </clipPath>
      <path clip-path="url(#make-me-a-hanzi-clip-0)" d="M 442 669 L 464 654 L 474 636 L 504 530 " fill="none" id="make-me-a-hanzi-animation-0" stroke-dasharray="285 570" stroke-linecap="round"></path>

      <clipPath id="make-me-a-hanzi-clip-1">
      <path d="M 743 599 Q 764 644 788 655 Q 803 671 790 687 Q 729 742 670 713 Q 651 707 633 701 L 582 689 Q 530 679 476 672 C 446 668 467 638 496 644 Q 577 660 583 661 L 632 670 Q 696 685 707 676 Q 711 672 710 660 Q 706 630 698 605 C 689 576 730 572 743 599 Z" fill="lightgray"></path>
      </clipPath>
      <path clip-path="url(#make-me-a-hanzi-clip-1)" d="M 484 671 L 506 659 L 641 685 L 684 699 L 719 698 L 748 672 L 729 626 L 706 610 " fill="none" id="make-me-a-hanzi-animation-1" stroke-dasharray="488 976" stroke-linecap="round"></path>

      <clipPath id="make-me-a-hanzi-clip-2">
      <path d="M 626 561 Q 677 568 750 574 Q 757 575 759 582 Q 759 588 743 599 C 727 611 727 611 698 605 Q 661 598 628 590 L 585 582 Q 545 578 511 572 C 481 567 485 544 515 547 Q 518 547 586 556 L 626 561 Z" fill="lightgray"></path>
      </clipPath>
      <path clip-path="url(#make-me-a-hanzi-clip-2)" d="M 516 554 L 526 561 L 694 587 L 751 582 " fill="none" id="make-me-a-hanzi-animation-2" stroke-dasharray="367 734" stroke-linecap="round"></path>

      <clipPath id="make-me-a-hanzi-clip-3">
      <path d="M 623 507 Q 624 535 626 561 L 628 590 Q 629 630 632 670 L 633 701 Q 633 711 640 747 Q 649 778 636 791 Q 633 792 632 794 Q 601 810 579 813 Q 566 816 558 808 Q 551 801 559 788 Q 577 764 582 689 L 583 661 Q 584 624 585 582 L 586 556 Q 586 531 586 502 C 586 472 622 477 623 507 Z" fill="lightgray"></path>
      </clipPath>
      <path clip-path="url(#make-me-a-hanzi-clip-3)" d="M 569 799 L 608 763 L 606 529 L 591 509 " fill="none" id="make-me-a-hanzi-animation-3" stroke-dasharray="440 880" stroke-linecap="round"></path>

      <clipPath id="make-me-a-hanzi-clip-4">
      <path d="M 586 502 Q 480 489 363 473 Q 344 472 358 457 Q 370 445 385 440 Q 404 436 417 440 Q 594 488 894 489 Q 895 489 897 489 Q 915 489 919 496 Q 923 506 909 518 Q 864 551 832 544 Q 756 528 623 507 L 586 502 Z" fill="lightgray"></path>
      </clipPath>
      <path clip-path="url(#make-me-a-hanzi-clip-4)" d="M 360 465 L 402 458 L 653 497 L 841 517 L 910 501 " fill="none" id="make-me-a-hanzi-animation-4" stroke-dasharray="684 1368" stroke-linecap="round"></path>

      <clipPath id="make-me-a-hanzi-clip-5">
      <path d="M 501 407 Q 489 416 475 419 Q 468 420 464 414 Q 463 410 468 402 Q 498 323 473 226 Q 464 190 488 160 Q 497 150 504 161 Q 519 180 520 294 Q 519 363 521 381 C 522 393 522 393 501 407 Z" fill="lightgray"></path>
      </clipPath>
      <path clip-path="url(#make-me-a-hanzi-clip-5)" d="M 472 410 L 491 392 L 499 369 L 504 305 L 493 206 L 496 164 " fill="none" id="make-me-a-hanzi-animation-5" stroke-dasharray="384 768" stroke-linecap="round"></path>

      <clipPath id="make-me-a-hanzi-clip-6">
      <path d="M 690 228 Q 683 209 695 189 Q 705 164 714 165 Q 727 166 740 193 Q 753 215 753 233 Q 741 354 763 385 Q 772 398 766 408 Q 742 429 700 447 Q 687 451 667 445 Q 595 412 501 407 C 471 405 491 380 521 381 Q 528 380 538 382 Q 670 412 684 402 Q 690 389 693 354 Q 694 248 690 228 Z" fill="lightgray"></path>
      </clipPath>
      <path clip-path="url(#make-me-a-hanzi-clip-6)" d="M 510 407 L 517 399 L 548 395 L 560 402 L 573 400 L 680 426 L 711 412 L 725 393 L 720 318 L 723 242 L 714 176 " fill="none" id="make-me-a-hanzi-animation-6" stroke-dasharray="582 1164" stroke-linecap="round"></path>

      <clipPath id="make-me-a-hanzi-clip-7">
      <path d="M 584 287 Q 587 163 526 116 Q 514 107 442 71 Q 438 67 450 63 Q 513 56 576 104 Q 579 107 582 110 Q 613 146 633 273 Q 634 291 644 310 Q 648 320 641 326 Q 626 341 597 354 Q 581 361 566 358 Q 550 352 562 337 Q 584 312 584 287 Z" fill="lightgray"></path>
      </clipPath>
      <path clip-path="url(#make-me-a-hanzi-clip-7)" d="M 568 347 L 611 312 L 607 244 L 586 162 L 564 122 L 533 97 L 471 72 L 454 75 " fill="none" id="make-me-a-hanzi-animation-7" stroke-dasharray="506 1012" stroke-linecap="round"></path>

      <clipPath id="make-me-a-hanzi-clip-8">
      <path d="M 655 147 Q 700 107 753 46 Q 766 30 779 25 Q 786 24 793 32 Q 803 42 793 80 Q 781 131 656 173 Q 649 177 646 168 Q 646 156 655 147 Z" fill="lightgray"></path>
      </clipPath>
      <path clip-path="url(#make-me-a-hanzi-clip-8)" d="M 654 164 L 746 98 L 765 76 L 781 39 " fill="none" id="make-me-a-hanzi-animation-8" stroke-dasharray="311 622" stroke-linecap="round"></path>

      <clipPath id="make-me-a-hanzi-clip-9">
      <path d="M 235 652 Q 259 627 285 597 Q 300 581 317 580 Q 330 580 336 595 Q 343 611 335 646 Q 331 667 299 683 Q 224 716 208 709 Q 202 705 203 690 Q 206 677 235 652 Z" fill="lightgray"></path>
      </clipPath>
      <path clip-path="url(#make-me-a-hanzi-clip-9)" d="M 213 701 L 295 642 L 317 600 " fill="none" id="make-me-a-hanzi-animation-9" stroke-dasharray="276 552" stroke-linecap="round"></path>

      <clipPath id="make-me-a-hanzi-clip-10">
      <path d="M 306 92 Q 325 104 332 125 Q 344 173 296 247 Q 263 304 328 385 Q 332 394 339 400 Q 360 419 340 434 Q 319 449 284 462 Q 262 474 244 455 Q 211 431 170 414 Q 113 389 95 391 Q 88 392 86 387 Q 85 381 93 377 Q 135 359 236 401 Q 246 405 255 393 Q 277 374 257 345 Q 215 296 250 243 Q 292 177 291 134 Q 291 110 281 94 C 269 66 283 73 306 92 Z" fill="lightgray"></path>
      </clipPath>
      <path clip-path="url(#make-me-a-hanzi-clip-10)" d="M 93 384 L 118 382 L 154 390 L 254 428 L 269 429 L 295 410 L 291 371 L 268 326 L 260 293 L 261 273 L 301 195 L 312 154 L 308 117 L 288 98 " fill="none" id="make-me-a-hanzi-animation-10" stroke-dasharray="683 1366" stroke-linecap="round"></path>

      <clipPath id="make-me-a-hanzi-clip-11">
      <path d="M 281 94 Q 233 98 184 81 Q 153 71 104 68 Q 97 67 93 59 Q 90 52 99 42 Q 115 23 140 11 Q 150 5 170 19 Q 231 65 300 53 Q 367 40 503 -15 Q 738 -114 819 -84 Q 877 -62 927 -25 Q 949 -10 926 -11 Q 701 -20 553 17 Q 471 39 368 75 Q 338 88 306 92 L 281 94 Z" fill="lightgray"></path>
      </clipPath>
      <path clip-path="url(#make-me-a-hanzi-clip-11)" d="M 105 55 L 148 41 L 235 73 L 309 72 L 586 -20 L 734 -49 L 804 -50 L 871 -36 L 917 -19 " fill="none" id="make-me-a-hanzi-animation-11" stroke-dasharray="970 1940" stroke-linecap="round"></path>

      <clipPath id="make-me-a-hanzi-clip-12">
      <path d="M 1331 388 Q 1358 397 1388 404 Q 1421 414 1425 419 Q 1432 426 1428 435 Q 1421 445 1391 451 Q 1363 454 1334 440 Q 1333 440 1333 439 L 1285 421 Q 1206 399 1162 391 Q 1128 382 1154 368 Q 1194 350 1266 370 Q 1273 373 1286 375 L 1331 388 Z" fill="lightgray"></path>
      </clipPath>
      <path clip-path="url(#make-me-a-hanzi-clip-12)" d="M 1155 380 L 1222 382 L 1351 421 L 1417 429 " fill="none" id="make-me-a-hanzi-animation-12" stroke-dasharray="396 792" stroke-linecap="round"></path>

      <clipPath id="make-me-a-hanzi-clip-13">
      <path d="M 1325 191 Q 1329 293 1331 388 L 1333 439 Q 1333 526 1353 635 Q 1357 647 1335 662 Q 1298 681 1273 684 Q 1257 688 1248 678 Q 1241 671 1249 655 Q 1279 613 1279 585 Q 1283 506 1285 421 L 1286 375 Q 1286 278 1282 173 C 1281 143 1324 161 1325 191 Z" fill="lightgray"></path>
      </clipPath>
      <path clip-path="url(#make-me-a-hanzi-clip-13)" d="M 1261 668 L 1310 629 L 1313 599 L 1304 205 L 1287 181 " fill="none" id="make-me-a-hanzi-animation-13" stroke-dasharray="644 1288" stroke-linecap="round"></path>

      <clipPath id="make-me-a-hanzi-clip-14">
      <path d="M 1282 173 Q 1222 149 1159 122 Q 1140 115 1108 111 Q 1095 108 1094 97 Q 1094 84 1104 76 Q 1129 63 1166 47 Q 1176 46 1188 55 Q 1230 97 1381 181 Q 1405 199 1430 216 Q 1442 226 1441 235 Q 1435 239 1423 236 Q 1375 214 1325 191 L 1282 173 Z" fill="lightgray"></path>
      </clipPath>
      <path clip-path="url(#make-me-a-hanzi-clip-14)" d="M 1110 96 L 1159 86 L 1175 90 L 1436 231 " fill="none" id="make-me-a-hanzi-animation-14" stroke-dasharray="491 982" stroke-linecap="round"></path>

      <clipPath id="make-me-a-hanzi-clip-15">
      <path d="M 1691 97 Q 1695 245 1697 383 L 1698 412 Q 1701 575 1721 666 Q 1725 679 1702 695 Q 1662 716 1634 720 Q 1615 724 1606 714 Q 1597 704 1608 688 Q 1642 636 1643 601 Q 1656 366 1644 90 C 1643 60 1690 67 1691 97 Z" fill="lightgray"></path>
      </clipPath>
      <path clip-path="url(#make-me-a-hanzi-clip-15)" d="M 1620 703 L 1674 660 L 1676 642 L 1670 138 L 1668 117 L 1651 98 " fill="none" id="make-me-a-hanzi-animation-15" stroke-dasharray="766 1532" stroke-linecap="round"></path>

      <clipPath id="make-me-a-hanzi-clip-16">
      <path d="M 1697 383 Q 1737 368 1824 389 Q 1854 396 1887 405 Q 1906 411 1909 414 Q 1919 424 1913 433 Q 1903 446 1870 451 Q 1848 454 1766 427 Q 1742 420 1700 413 Q 1699 413 1698 412 C 1669 404 1668 392 1697 383 Z" fill="lightgray"></path>
      </clipPath>
      <path clip-path="url(#make-me-a-hanzi-clip-16)" d="M 1703 405 L 1717 397 L 1741 398 L 1865 426 L 1901 426 " fill="none" id="make-me-a-hanzi-animation-16" stroke-dasharray="331 662" stroke-linecap="round"></path>

      <clipPath id="make-me-a-hanzi-clip-17">
      <path d="M 1561 80 Q 1546 294 1553 340 Q 1556 364 1540 376 Q 1516 395 1488 403 Q 1473 409 1464 402 Q 1457 395 1463 380 Q 1485 338 1496 294 Q 1503 251 1519 75 C 1522 45 1563 50 1561 80 Z" fill="lightgray"></path>
      </clipPath>
      <path clip-path="url(#make-me-a-hanzi-clip-17)" d="M 1473 393 L 1517 347 L 1538 97 L 1525 88 " fill="none" id="make-me-a-hanzi-animation-17" stroke-dasharray="458 916" stroke-linecap="round"></path>

      <clipPath id="make-me-a-hanzi-clip-18">
      <path d="M 1519 75 Q 1455 69 1389 61 Q 1367 60 1383 41 Q 1398 26 1416 21 Q 1438 14 1455 19 Q 1632 64 1893 57 Q 1912 57 1933 56 Q 1954 56 1959 65 Q 1965 77 1948 91 Q 1890 136 1846 122 Q 1783 112 1691 97 L 1644 90 Q 1602 86 1561 80 L 1519 75 Z" fill="lightgray"></path>
      </clipPath>
      <path clip-path="url(#make-me-a-hanzi-clip-18)" d="M 1386 51 L 1438 42 L 1670 74 L 1859 91 L 1896 88 L 1947 71 " fill="none" id="make-me-a-hanzi-animation-18" stroke-dasharray="696 1392" stroke-linecap="round"></path>

</g>
</svg>
