<svg version="1.1" viewBox="0 0 2048 1024" xmlns="http://www.w3.org/2000/svg">
  <g stroke="lightgray" stroke-dasharray="1,1" stroke-width="1" transform="scale(4, 4)">
    <line x1="0" y1="0" x2="256" y2="256"></line>
    <line x1="256" y1="0" x2="0" y2="256"></line>
    <line x1="128" y1="0" x2="128" y2="256"></line>
    <line x1="0" y1="128" x2="256" y2="128"></line>
    <line x1="256" y1="0" x2="512" y2="256"></line>
    <line x1="512" y1="0" x2="256" y2="256"></line>
    <line x1="384" y1="0" x2="384" y2="256"></line>
    <line x1="256" y1="128" x2="512" y2="128"></line>
  </g>
<g transform="scale(1, -1) translate(0, -850)">
   <style type="text/css">
    @keyframes keyframes0 {
      from {
       stroke: black;
       stroke-dashoffset: 603;
       stroke-width: 128;
       }
       66% {
       animation-timing-function: step-end;
       stroke: black;
       stroke-dashoffset: 0;
       stroke-width: 128;
       }
       to {
       stroke: black;
       stroke-width: 1024;
       }
       }
       #make-me-a-hanzi-animation-0 {
         animation: keyframes0 0.740723s both;
         animation-delay: 0.000000s;
         animation-timing-function: linear;
       }
    @keyframes keyframes1 {
      from {
       stroke: black;
       stroke-dashoffset: 1016;
       stroke-width: 128;
       }
       77% {
       animation-timing-function: step-end;
       stroke: black;
       stroke-dashoffset: 0;
       stroke-width: 128;
       }
       to {
       stroke: black;
       stroke-width: 1024;
       }
       }
       #make-me-a-hanzi-animation-1 {
         animation: keyframes1 1.076823s both;
         animation-delay: 0.740723s;
         animation-timing-function: linear;
       }
    @keyframes keyframes2 {
      from {
       stroke: black;
       stroke-dashoffset: 1180;
       stroke-width: 128;
       }
       79% {
       animation-timing-function: step-end;
       stroke: black;
       stroke-dashoffset: 0;
       stroke-width: 128;
       }
       to {
       stroke: black;
       stroke-width: 1024;
       }
       }
       #make-me-a-hanzi-animation-2 {
         animation: keyframes2 1.210286s both;
         animation-delay: 1.817546s;
         animation-timing-function: linear;
       }
    @keyframes keyframes3 {
      from {
       stroke: black;
       stroke-dashoffset: 854;
       stroke-width: 128;
       }
       74% {
       animation-timing-function: step-end;
       stroke: black;
       stroke-dashoffset: 0;
       stroke-width: 128;
       }
       to {
       stroke: black;
       stroke-width: 1024;
       }
       }
       #make-me-a-hanzi-animation-3 {
         animation: keyframes3 0.944987s both;
         animation-delay: 3.027832s;
         animation-timing-function: linear;
       }
    @keyframes keyframes4 {
      from {
       stroke: black;
       stroke-dashoffset: 386;
       stroke-width: 128;
       }
       56% {
       animation-timing-function: step-end;
       stroke: black;
       stroke-dashoffset: 0;
       stroke-width: 128;
       }
       to {
       stroke: black;
       stroke-width: 1024;
       }
       }
       #make-me-a-hanzi-animation-4 {
         animation: keyframes4 0.564128s both;
         animation-delay: 3.972819s;
         animation-timing-function: linear;
       }
    @keyframes keyframes5 {
      from {
       stroke: black;
       stroke-dashoffset: 649;
       stroke-width: 128;
       }
       68% {
       animation-timing-function: step-end;
       stroke: black;
       stroke-dashoffset: 0;
       stroke-width: 128;
       }
       to {
       stroke: black;
       stroke-width: 1024;
       }
       }
       #make-me-a-hanzi-animation-5 {
         animation: keyframes5 0.778158s both;
         animation-delay: 4.536947s;
         animation-timing-function: linear;
       }
    @keyframes keyframes6 {
      from {
       stroke: black;
       stroke-dashoffset: 529;
       stroke-width: 128;
       }
       63% {
       animation-timing-function: step-end;
       stroke: black;
       stroke-dashoffset: 0;
       stroke-width: 128;
       }
       to {
       stroke: black;
       stroke-width: 1024;
       }
       }
       #make-me-a-hanzi-animation-6 {
         animation: keyframes6 0.680501s both;
         animation-delay: 5.315105s;
         animation-timing-function: linear;
       }
    @keyframes keyframes7 {
      from {
       stroke: black;
       stroke-dashoffset: 378;
       stroke-width: 128;
       }
       55% {
       animation-timing-function: step-end;
       stroke: black;
       stroke-dashoffset: 0;
       stroke-width: 128;
       }
       to {
       stroke: black;
       stroke-width: 1024;
       }
       }
       #make-me-a-hanzi-animation-7 {
         animation: keyframes7 0.557617s both;
         animation-delay: 5.995606s;
         animation-timing-function: linear;
       }
    @keyframes keyframes8 {
      from {
       stroke: black;
       stroke-dashoffset: 753;
       stroke-width: 128;
       }
       71% {
       animation-timing-function: step-end;
       stroke: black;
       stroke-dashoffset: 0;
       stroke-width: 128;
       }
       to {
       stroke: black;
       stroke-width: 1024;
       }
       }
       #make-me-a-hanzi-animation-8 {
         animation: keyframes8 0.862793s both;
         animation-delay: 6.553223s;
         animation-timing-function: linear;
       }
    @keyframes keyframes9 {
      from {
       stroke: black;
       stroke-dashoffset: 522;
       stroke-width: 128;
       }
       63% {
       animation-timing-function: step-end;
       stroke: black;
       stroke-dashoffset: 0;
       stroke-width: 128;
       }
       to {
       stroke: black;
       stroke-width: 1024;
       }
       }
       #make-me-a-hanzi-animation-9 {
         animation: keyframes9 0.674805s both;
         animation-delay: 7.416016s;
         animation-timing-function: linear;
       }
    @keyframes keyframes10 {
      from {
       stroke: black;
       stroke-dashoffset: 700;
       stroke-width: 128;
       }
       69% {
       animation-timing-function: step-end;
       stroke: black;
       stroke-dashoffset: 0;
       stroke-width: 128;
       }
       to {
       stroke: black;
       stroke-width: 1024;
       }
       }
       #make-me-a-hanzi-animation-10 {
         animation: keyframes10 0.819661s both;
         animation-delay: 8.090821s;
         animation-timing-function: linear;
       }
    @keyframes keyframes11 {
      from {
       stroke: black;
       stroke-dashoffset: 551;
       stroke-width: 128;
       }
       64% {
       animation-timing-function: step-end;
       stroke: black;
       stroke-dashoffset: 0;
       stroke-width: 128;
       }
       to {
       stroke: black;
       stroke-width: 1024;
       }
       }
       #make-me-a-hanzi-animation-11 {
         animation: keyframes11 0.698405s both;
         animation-delay: 8.910482s;
         animation-timing-function: linear;
       }
    @keyframes keyframes12 {
      from {
       stroke: black;
       stroke-dashoffset: 850;
       stroke-width: 128;
       }
       73% {
       animation-timing-function: step-end;
       stroke: black;
       stroke-dashoffset: 0;
       stroke-width: 128;
       }
       to {
       stroke: black;
       stroke-width: 1024;
       }
       }
       #make-me-a-hanzi-animation-12 {
         animation: keyframes12 0.941732s both;
         animation-delay: 9.608887s;
         animation-timing-function: linear;
       }
    @keyframes keyframes13 {
      from {
       stroke: black;
       stroke-dashoffset: 815;
       stroke-width: 128;
       }
       73% {
       animation-timing-function: step-end;
       stroke: black;
       stroke-dashoffset: 0;
       stroke-width: 128;
       }
       to {
       stroke: black;
       stroke-width: 1024;
       }
       }
       #make-me-a-hanzi-animation-13 {
         animation: keyframes13 0.913249s both;
         animation-delay: 10.550619s;
         animation-timing-function: linear;
       }
</style>
<path d="M 585.0 701.0 Q 592.0 682.0 583.0 665.0 Q 535.0 575.0 426.0 470.0 Q 416.0 461.0 412.0 456.0 Q 406.0 446.0 421.0 446.0 Q 431.0 446.0 460.0 464.0 Q 491.0 480.0 530.0 514.0 Q 573.0 547.0 621.0 599.0 Q 643.0 624.0 659.0 635.0 Q 669.0 644.0 667.0 658.0 Q 666.0 671.0 641.0 698.0 Q 617.0 720.0 599.0 723.0 Q 580.0 724.0 585.0 701.0 Z" fill="lightgray"></path> 
<path d="M 465.0 341.0 Q 469.0 342.0 477.0 343.0 Q 528.0 347.0 575.0 354.0 Q 704.0 372.0 836.0 360.0 Q 861.0 359.0 867.0 367.0 Q 874.0 382.0 861.0 393.0 Q 830.0 421.0 783.0 440.0 Q 768.0 446.0 742.0 437.0 Q 654.0 416.0 444.0 386.0 Q 411.0 382.0 384.0 378.0 L 335.0 371.0 L 111.0 346.0 Q 96.0 346.0 95.0 334.0 Q 95.0 321.0 115.0 307.0 Q 133.0 294.0 166.0 283.0 Q 176.0 279.0 196.0 288.0 Q 233.0 303.0 334.0 319.0 L 383.0 329.0 Q 398.0 333.0 417.0 335.0 L 465.0 341.0 Z" fill="lightgray"></path> 
<path d="M 384.0 378.0 Q 390.0 648.0 398.0 670.0 Q 405.0 692.0 389.0 708.0 Q 362.0 729.0 332.0 736.0 Q 298.0 745.0 287.0 729.0 Q 278.0 716.0 294.0 701.0 Q 316.0 682.0 322.0 634.0 Q 335.0 558.0 335.0 371.0 L 334.0 319.0 Q 331.0 174.0 320.0 93.0 Q 316.0 42.0 294.0 14.0 Q 281.0 -8.0 294.0 -32.0 Q 310.0 -54.0 331.0 -62.0 Q 344.0 -69.0 357.0 -49.0 Q 376.0 -12.0 486.0 114.0 Q 514.0 139.0 516.0 152.0 Q 517.0 159.0 511.0 161.0 Q 508.0 161.0 390.0 73.0 Q 377.0 60.0 374.0 78.0 Q 378.0 201.0 383.0 329.0 L 384.0 378.0 Z" fill="lightgray"></path> 
<path d="M 417.0 335.0 Q 472.0 290.0 555.0 182.0 Q 675.0 38.0 723.0 29.0 Q 724.0 30.0 727.0 29.0 Q 817.0 25.0 890.0 34.0 Q 929.0 38.0 925.0 48.0 Q 924.0 54.0 888.0 67.0 Q 714.0 124.0 669.0 153.0 Q 587.0 205.0 478.0 328.0 L 465.0 341.0 C 444.0 362.0 394.0 355.0 417.0 335.0 Z" fill="lightgray"></path> 
<path d="M 1271.0 627.0 Q 1262.0 627.0 1258.0 628.0 Q 1255.0 629.0 1247.0 625.0 Q 1244.0 624.0 1250.0 607.0 L 1259.0 580.0 Q 1261.0 567.0 1269.0 557.0 Q 1277.0 547.0 1280.0 538.0 Q 1284.0 529.0 1290.0 523.0 L 1307.0 503.0 C 1324.0 483.0 1324.0 483.0 1338.0 509.0 L 1347.0 525.0 Q 1361.0 552.0 1348.0 575.0 Q 1343.0 585.0 1320.0 602.0 Q 1297.0 619.0 1271.0 627.0 Z" fill="lightgray"></path> 
<path d="M 1307.0 503.0 L 1250.0 493.0 Q 1239.0 489.0 1178.0 483.0 L 1151.0 479.0 L 1122.0 477.0 Q 1111.0 475.0 1108.0 469.0 Q 1106.0 463.0 1116.0 456.0 Q 1126.0 449.0 1140.0 448.0 Q 1155.0 446.0 1172.0 445.0 Q 1190.0 444.0 1257.0 453.0 L 1460.0 487.0 Q 1509.0 499.0 1513.0 510.0 Q 1513.0 513.0 1508.0 520.0 Q 1504.0 526.0 1488.0 533.0 Q 1472.0 539.0 1467.0 540.0 Q 1463.0 540.0 1443.0 535.0 L 1338.0 509.0 L 1307.0 503.0 Z" fill="lightgray"></path> 
<path d="M 1117.0 220.0 L 1103.0 207.0 Q 1096.0 199.0 1099.0 196.0 Q 1100.0 190.0 1113.0 198.0 L 1132.0 209.0 Q 1140.0 212.0 1168.0 233.0 Q 1197.0 253.0 1220.0 276.0 L 1264.0 322.0 Q 1298.0 359.0 1301.0 359.0 Q 1310.0 368.0 1310.0 375.0 Q 1305.0 394.0 1264.0 409.0 Q 1243.0 417.0 1238.0 412.0 Q 1233.0 410.0 1233.0 394.0 Q 1233.0 378.0 1222.0 359.0 Q 1186.0 288.0 1117.0 220.0 Z" fill="lightgray"></path> 
<path d="M 1369.0 415.0 L 1381.0 401.0 Q 1387.0 390.0 1403.0 372.0 Q 1416.0 354.0 1431.0 339.0 L 1443.0 328.0 Q 1451.0 320.0 1460.0 324.0 Q 1470.0 328.0 1475.0 338.0 Q 1480.0 348.0 1478.0 368.0 Q 1477.0 388.0 1456.0 403.0 Q 1454.0 403.0 1435.0 413.0 Q 1417.0 423.0 1409.0 423.0 L 1381.0 429.0 Q 1372.0 431.0 1367.0 426.0 Q 1365.0 422.0 1369.0 415.0 Z" fill="lightgray"></path> 
<path d="M 1301.0 133.0 L 1259.0 93.0 Q 1247.0 81.0 1191.0 40.0 Q 1136.0 -2.0 1095.0 -23.0 L 1069.0 -37.0 Q 1065.0 -38.0 1067.0 -47.0 Q 1069.0 -53.0 1080.0 -49.0 L 1101.0 -43.0 Q 1129.0 -35.0 1160.0 -19.0 L 1209.0 5.0 Q 1241.0 22.0 1279.0 52.0 L 1332.0 99.0 L 1372.0 152.0 L 1397.0 182.0 L 1420.0 213.0 Q 1440.0 235.0 1451.0 244.0 Q 1461.0 253.0 1451.0 263.0 Q 1447.0 272.0 1437.0 282.0 Q 1427.0 292.0 1414.0 297.0 Q 1390.0 310.0 1381.0 301.0 Q 1376.0 299.0 1376.0 295.0 Q 1373.0 294.0 1375.0 283.0 Q 1377.0 272.0 1372.0 259.0 L 1366.0 237.0 L 1355.0 212.0 Q 1343.0 188.0 1337.0 178.0 L 1301.0 133.0 Z" fill="lightgray"></path> 
<path d="M 1281.0 159.0 L 1301.0 133.0 L 1332.0 99.0 L 1365.0 63.0 Q 1371.0 56.0 1391.0 42.0 Q 1411.0 27.0 1423.0 31.0 Q 1433.0 32.0 1435.0 53.0 Q 1437.0 74.0 1423.0 97.0 Q 1409.0 120.0 1399.0 128.0 L 1372.0 152.0 L 1337.0 178.0 L 1250.0 231.0 L 1232.0 239.0 Q 1227.0 241.0 1224.0 237.0 Q 1221.0 233.0 1224.0 228.0 L 1255.0 189.0 Q 1274.0 170.0 1281.0 159.0 Z" fill="lightgray"></path> 
<path d="M 1624.0 447.0 L 1658.0 507.0 Q 1659.0 508.0 1685.0 566.0 Q 1711.0 623.0 1732.0 658.0 L 1739.0 668.0 Q 1740.0 681.0 1715.0 703.0 Q 1684.0 726.0 1674.0 728.0 Q 1665.0 729.0 1661.0 727.0 Q 1657.0 725.0 1657.0 703.0 Q 1661.0 691.0 1647.0 642.0 Q 1612.0 537.0 1584.0 475.0 Q 1543.0 394.0 1515.0 346.0 L 1507.0 337.0 Q 1501.0 329.0 1506.0 327.0 Q 1511.0 324.0 1515.0 327.0 L 1525.0 334.0 Q 1533.0 339.0 1556.0 362.0 L 1585.0 396.0 Q 1587.0 397.0 1593.0 405.0 L 1603.0 417.0 L 1624.0 447.0 Z" fill="lightgray"></path> 
<path d="M 1719.0 432.0 L 1775.0 447.0 L 1835.0 457.0 Q 1865.0 464.0 1885.0 464.0 Q 1901.0 466.0 1903.0 469.0 Q 1915.0 479.0 1877.0 495.0 Q 1855.0 505.0 1837.0 505.0 Q 1819.0 505.0 1762.0 487.0 L 1624.0 447.0 C 1595.0 439.0 1573.0 422.0 1603.0 417.0 L 1616.0 415.0 Q 1639.0 408.0 1679.0 422.0 L 1719.0 432.0 Z" fill="lightgray"></path> 
<path d="M 1679.0 422.0 L 1681.0 415.0 Q 1682.0 414.0 1685.0 402.0 Q 1689.0 389.0 1689.0 374.0 Q 1689.0 358.0 1684.0 313.0 Q 1679.0 268.0 1675.0 250.0 L 1664.0 217.0 L 1650.0 179.0 L 1631.0 144.0 Q 1619.0 121.0 1595.0 97.0 Q 1572.0 73.0 1554.0 62.0 Q 1537.0 50.0 1498.0 30.0 Q 1460.0 9.0 1439.0 5.0 L 1429.0 2.0 Q 1423.0 1.0 1423.0 -5.0 Q 1423.0 -11.0 1434.0 -11.0 L 1454.0 -11.0 Q 1463.0 -11.0 1500.0 -3.0 Q 1578.0 12.0 1629.0 57.0 Q 1654.0 77.0 1660.0 85.0 Q 1666.0 92.0 1687.0 123.0 L 1708.0 161.0 L 1715.0 177.0 Q 1731.0 221.0 1743.0 281.0 L 1757.0 347.0 L 1761.0 360.0 L 1771.0 382.0 Q 1773.0 392.0 1772.0 398.0 Q 1771.0 403.0 1761.0 409.0 Q 1757.0 412.0 1719.0 432.0 C 1692.0 446.0 1670.0 451.0 1679.0 422.0 Z" fill="lightgray"></path> 
<path d="M 1664.0 217.0 L 1624.0 270.0 Q 1618.0 279.0 1604.0 290.0 Q 1590.0 300.0 1580.0 303.0 Q 1556.0 306.0 1551.0 298.0 Q 1542.0 291.0 1559.0 281.0 L 1577.0 269.0 Q 1606.0 238.0 1624.0 212.0 L 1650.0 179.0 L 1687.0 123.0 L 1762.0 23.0 Q 1796.0 -23.0 1811.0 -29.0 Q 1848.0 -46.0 1921.0 -32.0 Q 1966.0 -21.0 1972.0 -21.0 L 1993.0 -15.0 Q 2002.0 -13.0 2004.0 -10.0 Q 2007.0 -8.0 2006.0 -2.0 Q 2005.0 3.0 1993.0 7.0 L 1883.0 43.0 Q 1870.0 48.0 1829.0 70.0 Q 1788.0 92.0 1761.0 115.0 L 1708.0 161.0 L 1664.0 217.0 Z" fill="lightgray"></path> 
      <clipPath id="make-me-a-hanzi-clip-0">
      <path d="M 585.0 701.0 Q 592.0 682.0 583.0 665.0 Q 535.0 575.0 426.0 470.0 Q 416.0 461.0 412.0 456.0 Q 406.0 446.0 421.0 446.0 Q 431.0 446.0 460.0 464.0 Q 491.0 480.0 530.0 514.0 Q 573.0 547.0 621.0 599.0 Q 643.0 624.0 659.0 635.0 Q 669.0 644.0 667.0 658.0 Q 666.0 671.0 641.0 698.0 Q 617.0 720.0 599.0 723.0 Q 580.0 724.0 585.0 701.0 Z" fill="lightgray"></path>
      </clipPath>
      <path clip-path="url(#make-me-a-hanzi-clip-0)" d="M 597.0 709.0 L 617.0 681.0 L 620.0 653.0 L 561.0 577.0 L 510.0 525.0 L 446.0 469.0 L 420.0 454.0 " fill="none" id="make-me-a-hanzi-animation-0" stroke-dasharray="475 950" stroke-linecap="round"></path>

      <clipPath id="make-me-a-hanzi-clip-1">
      <path d="M 465.0 341.0 Q 469.0 342.0 477.0 343.0 Q 528.0 347.0 575.0 354.0 Q 704.0 372.0 836.0 360.0 Q 861.0 359.0 867.0 367.0 Q 874.0 382.0 861.0 393.0 Q 830.0 421.0 783.0 440.0 Q 768.0 446.0 742.0 437.0 Q 654.0 416.0 444.0 386.0 Q 411.0 382.0 384.0 378.0 L 335.0 371.0 L 111.0 346.0 Q 96.0 346.0 95.0 334.0 Q 95.0 321.0 115.0 307.0 Q 133.0 294.0 166.0 283.0 Q 176.0 279.0 196.0 288.0 Q 233.0 303.0 334.0 319.0 L 383.0 329.0 Q 398.0 333.0 417.0 335.0 L 465.0 341.0 Z" fill="lightgray"></path>
      </clipPath>
      <path clip-path="url(#make-me-a-hanzi-clip-1)" d="M 108.0 333.0 L 174.0 317.0 L 394.0 356.0 L 760.0 403.0 L 790.0 399.0 L 855.0 376.0 " fill="none" id="make-me-a-hanzi-animation-1" stroke-dasharray="888 1776" stroke-linecap="round"></path>

      <clipPath id="make-me-a-hanzi-clip-2">
      <path d="M 384.0 378.0 Q 390.0 648.0 398.0 670.0 Q 405.0 692.0 389.0 708.0 Q 362.0 729.0 332.0 736.0 Q 298.0 745.0 287.0 729.0 Q 278.0 716.0 294.0 701.0 Q 316.0 682.0 322.0 634.0 Q 335.0 558.0 335.0 371.0 L 334.0 319.0 Q 331.0 174.0 320.0 93.0 Q 316.0 42.0 294.0 14.0 Q 281.0 -8.0 294.0 -32.0 Q 310.0 -54.0 331.0 -62.0 Q 344.0 -69.0 357.0 -49.0 Q 376.0 -12.0 486.0 114.0 Q 514.0 139.0 516.0 152.0 Q 517.0 159.0 511.0 161.0 Q 508.0 161.0 390.0 73.0 Q 377.0 60.0 374.0 78.0 Q 378.0 201.0 383.0 329.0 L 384.0 378.0 Z" fill="lightgray"></path>
      </clipPath>
      <path clip-path="url(#make-me-a-hanzi-clip-2)" d="M 303.0 719.0 L 341.0 697.0 L 356.0 679.0 L 362.0 392.0 L 346.0 82.0 L 354.0 29.0 L 371.0 32.0 L 403.0 52.0 L 512.0 156.0 " fill="none" id="make-me-a-hanzi-animation-2" stroke-dasharray="1052 2104" stroke-linecap="round"></path>

      <clipPath id="make-me-a-hanzi-clip-3">
      <path d="M 417.0 335.0 Q 472.0 290.0 555.0 182.0 Q 675.0 38.0 723.0 29.0 Q 724.0 30.0 727.0 29.0 Q 817.0 25.0 890.0 34.0 Q 929.0 38.0 925.0 48.0 Q 924.0 54.0 888.0 67.0 Q 714.0 124.0 669.0 153.0 Q 587.0 205.0 478.0 328.0 L 465.0 341.0 C 444.0 362.0 394.0 355.0 417.0 335.0 Z" fill="lightgray"></path>
      </clipPath>
      <path clip-path="url(#make-me-a-hanzi-clip-3)" d="M 423.0 334.0 L 458.0 322.0 L 597.0 171.0 L 694.0 94.0 L 737.0 73.0 L 919.0 47.0 " fill="none" id="make-me-a-hanzi-animation-3" stroke-dasharray="726 1452" stroke-linecap="round"></path>

      <clipPath id="make-me-a-hanzi-clip-4">
      <path d="M 1271.0 627.0 Q 1262.0 627.0 1258.0 628.0 Q 1255.0 629.0 1247.0 625.0 Q 1244.0 624.0 1250.0 607.0 L 1259.0 580.0 Q 1261.0 567.0 1269.0 557.0 Q 1277.0 547.0 1280.0 538.0 Q 1284.0 529.0 1290.0 523.0 L 1307.0 503.0 C 1324.0 483.0 1324.0 483.0 1338.0 509.0 L 1347.0 525.0 Q 1361.0 552.0 1348.0 575.0 Q 1343.0 585.0 1320.0 602.0 Q 1297.0 619.0 1271.0 627.0 Z" fill="lightgray"></path>
      </clipPath>
      <path clip-path="url(#make-me-a-hanzi-clip-4)" d="M 1254.0 621.0 L 1313.0 559.0 L 1318.0 537.0 L 1312.0 516.0 " fill="none" id="make-me-a-hanzi-animation-4" stroke-dasharray="258 516" stroke-linecap="round"></path>

      <clipPath id="make-me-a-hanzi-clip-5">
      <path d="M 1307.0 503.0 L 1250.0 493.0 Q 1239.0 489.0 1178.0 483.0 L 1151.0 479.0 L 1122.0 477.0 Q 1111.0 475.0 1108.0 469.0 Q 1106.0 463.0 1116.0 456.0 Q 1126.0 449.0 1140.0 448.0 Q 1155.0 446.0 1172.0 445.0 Q 1190.0 444.0 1257.0 453.0 L 1460.0 487.0 Q 1509.0 499.0 1513.0 510.0 Q 1513.0 513.0 1508.0 520.0 Q 1504.0 526.0 1488.0 533.0 Q 1472.0 539.0 1467.0 540.0 Q 1463.0 540.0 1443.0 535.0 L 1338.0 509.0 L 1307.0 503.0 Z" fill="lightgray"></path>
      </clipPath>
      <path clip-path="url(#make-me-a-hanzi-clip-5)" d="M 1117.0 465.0 L 1168.0 463.0 L 1242.0 470.0 L 1457.0 513.0 L 1505.0 512.0 " fill="none" id="make-me-a-hanzi-animation-5" stroke-dasharray="521 1042" stroke-linecap="round"></path>

      <clipPath id="make-me-a-hanzi-clip-6">
      <path d="M 1117.0 220.0 L 1103.0 207.0 Q 1096.0 199.0 1099.0 196.0 Q 1100.0 190.0 1113.0 198.0 L 1132.0 209.0 Q 1140.0 212.0 1168.0 233.0 Q 1197.0 253.0 1220.0 276.0 L 1264.0 322.0 Q 1298.0 359.0 1301.0 359.0 Q 1310.0 368.0 1310.0 375.0 Q 1305.0 394.0 1264.0 409.0 Q 1243.0 417.0 1238.0 412.0 Q 1233.0 410.0 1233.0 394.0 Q 1233.0 378.0 1222.0 359.0 Q 1186.0 288.0 1117.0 220.0 Z" fill="lightgray"></path>
      </clipPath>
      <path clip-path="url(#make-me-a-hanzi-clip-6)" d="M 1244.0 404.0 L 1264.0 372.0 L 1251.0 349.0 L 1175.0 258.0 L 1106.0 200.0 " fill="none" id="make-me-a-hanzi-animation-6" stroke-dasharray="401 802" stroke-linecap="round"></path>

      <clipPath id="make-me-a-hanzi-clip-7">
      <path d="M 1369.0 415.0 L 1381.0 401.0 Q 1387.0 390.0 1403.0 372.0 Q 1416.0 354.0 1431.0 339.0 L 1443.0 328.0 Q 1451.0 320.0 1460.0 324.0 Q 1470.0 328.0 1475.0 338.0 Q 1480.0 348.0 1478.0 368.0 Q 1477.0 388.0 1456.0 403.0 Q 1454.0 403.0 1435.0 413.0 Q 1417.0 423.0 1409.0 423.0 L 1381.0 429.0 Q 1372.0 431.0 1367.0 426.0 Q 1365.0 422.0 1369.0 415.0 Z" fill="lightgray"></path>
      </clipPath>
      <path clip-path="url(#make-me-a-hanzi-clip-7)" d="M 1375.0 422.0 L 1441.0 375.0 L 1452.0 356.0 L 1454.0 337.0 " fill="none" id="make-me-a-hanzi-animation-7" stroke-dasharray="250 500" stroke-linecap="round"></path>

      <clipPath id="make-me-a-hanzi-clip-8">
      <path d="M 1301.0 133.0 L 1259.0 93.0 Q 1247.0 81.0 1191.0 40.0 Q 1136.0 -2.0 1095.0 -23.0 L 1069.0 -37.0 Q 1065.0 -38.0 1067.0 -47.0 Q 1069.0 -53.0 1080.0 -49.0 L 1101.0 -43.0 Q 1129.0 -35.0 1160.0 -19.0 L 1209.0 5.0 Q 1241.0 22.0 1279.0 52.0 L 1332.0 99.0 L 1372.0 152.0 L 1397.0 182.0 L 1420.0 213.0 Q 1440.0 235.0 1451.0 244.0 Q 1461.0 253.0 1451.0 263.0 Q 1447.0 272.0 1437.0 282.0 Q 1427.0 292.0 1414.0 297.0 Q 1390.0 310.0 1381.0 301.0 Q 1376.0 299.0 1376.0 295.0 Q 1373.0 294.0 1375.0 283.0 Q 1377.0 272.0 1372.0 259.0 L 1366.0 237.0 L 1355.0 212.0 Q 1343.0 188.0 1337.0 178.0 L 1301.0 133.0 Z" fill="lightgray"></path>
      </clipPath>
      <path clip-path="url(#make-me-a-hanzi-clip-8)" d="M 1391.0 288.0 L 1409.0 256.0 L 1359.0 171.0 L 1312.0 111.0 L 1260.0 64.0 L 1205.0 25.0 L 1147.0 -11.0 L 1074.0 -43.0 " fill="none" id="make-me-a-hanzi-animation-8" stroke-dasharray="625 1250" stroke-linecap="round"></path>

      <clipPath id="make-me-a-hanzi-clip-9">
      <path d="M 1281.0 159.0 L 1301.0 133.0 L 1332.0 99.0 L 1365.0 63.0 Q 1371.0 56.0 1391.0 42.0 Q 1411.0 27.0 1423.0 31.0 Q 1433.0 32.0 1435.0 53.0 Q 1437.0 74.0 1423.0 97.0 Q 1409.0 120.0 1399.0 128.0 L 1372.0 152.0 L 1337.0 178.0 L 1250.0 231.0 L 1232.0 239.0 Q 1227.0 241.0 1224.0 237.0 Q 1221.0 233.0 1224.0 228.0 L 1255.0 189.0 Q 1274.0 170.0 1281.0 159.0 Z" fill="lightgray"></path>
      </clipPath>
      <path clip-path="url(#make-me-a-hanzi-clip-9)" d="M 1229.0 233.0 L 1372.0 107.0 L 1418.0 47.0 " fill="none" id="make-me-a-hanzi-animation-9" stroke-dasharray="394 788" stroke-linecap="round"></path>

      <clipPath id="make-me-a-hanzi-clip-10">
      <path d="M 1624.0 447.0 L 1658.0 507.0 Q 1659.0 508.0 1685.0 566.0 Q 1711.0 623.0 1732.0 658.0 L 1739.0 668.0 Q 1740.0 681.0 1715.0 703.0 Q 1684.0 726.0 1674.0 728.0 Q 1665.0 729.0 1661.0 727.0 Q 1657.0 725.0 1657.0 703.0 Q 1661.0 691.0 1647.0 642.0 Q 1612.0 537.0 1584.0 475.0 Q 1543.0 394.0 1515.0 346.0 L 1507.0 337.0 Q 1501.0 329.0 1506.0 327.0 Q 1511.0 324.0 1515.0 327.0 L 1525.0 334.0 Q 1533.0 339.0 1556.0 362.0 L 1585.0 396.0 Q 1587.0 397.0 1593.0 405.0 L 1603.0 417.0 L 1624.0 447.0 Z" fill="lightgray"></path>
      </clipPath>
      <path clip-path="url(#make-me-a-hanzi-clip-10)" d="M 1668.0 720.0 L 1694.0 670.0 L 1654.0 567.0 L 1589.0 434.0 L 1541.0 363.0 L 1511.0 332.0 " fill="none" id="make-me-a-hanzi-animation-10" stroke-dasharray="572 1144" stroke-linecap="round"></path>

      <clipPath id="make-me-a-hanzi-clip-11">
      <path d="M 1719.0 432.0 L 1775.0 447.0 L 1835.0 457.0 Q 1865.0 464.0 1885.0 464.0 Q 1901.0 466.0 1903.0 469.0 Q 1915.0 479.0 1877.0 495.0 Q 1855.0 505.0 1837.0 505.0 Q 1819.0 505.0 1762.0 487.0 L 1624.0 447.0 C 1595.0 439.0 1573.0 422.0 1603.0 417.0 L 1616.0 415.0 Q 1639.0 408.0 1679.0 422.0 L 1719.0 432.0 Z" fill="lightgray"></path>
      </clipPath>
      <path clip-path="url(#make-me-a-hanzi-clip-11)" d="M 1610.0 420.0 L 1798.0 475.0 L 1841.0 482.0 L 1896.0 475.0 " fill="none" id="make-me-a-hanzi-animation-11" stroke-dasharray="423 846" stroke-linecap="round"></path>

      <clipPath id="make-me-a-hanzi-clip-12">
      <path d="M 1679.0 422.0 L 1681.0 415.0 Q 1682.0 414.0 1685.0 402.0 Q 1689.0 389.0 1689.0 374.0 Q 1689.0 358.0 1684.0 313.0 Q 1679.0 268.0 1675.0 250.0 L 1664.0 217.0 L 1650.0 179.0 L 1631.0 144.0 Q 1619.0 121.0 1595.0 97.0 Q 1572.0 73.0 1554.0 62.0 Q 1537.0 50.0 1498.0 30.0 Q 1460.0 9.0 1439.0 5.0 L 1429.0 2.0 Q 1423.0 1.0 1423.0 -5.0 Q 1423.0 -11.0 1434.0 -11.0 L 1454.0 -11.0 Q 1463.0 -11.0 1500.0 -3.0 Q 1578.0 12.0 1629.0 57.0 Q 1654.0 77.0 1660.0 85.0 Q 1666.0 92.0 1687.0 123.0 L 1708.0 161.0 L 1715.0 177.0 Q 1731.0 221.0 1743.0 281.0 L 1757.0 347.0 L 1761.0 360.0 L 1771.0 382.0 Q 1773.0 392.0 1772.0 398.0 Q 1771.0 403.0 1761.0 409.0 Q 1757.0 412.0 1719.0 432.0 C 1692.0 446.0 1670.0 451.0 1679.0 422.0 Z" fill="lightgray"></path>
      </clipPath>
      <path clip-path="url(#make-me-a-hanzi-clip-12)" d="M 1686.0 420.0 L 1717.0 400.0 L 1728.0 382.0 L 1705.0 247.0 L 1689.0 193.0 L 1658.0 130.0 L 1619.0 83.0 L 1562.0 40.0 L 1487.0 6.0 L 1430.0 -5.0 " fill="none" id="make-me-a-hanzi-animation-12" stroke-dasharray="722 1444" stroke-linecap="round"></path>

      <clipPath id="make-me-a-hanzi-clip-13">
      <path d="M 1664.0 217.0 L 1624.0 270.0 Q 1618.0 279.0 1604.0 290.0 Q 1590.0 300.0 1580.0 303.0 Q 1556.0 306.0 1551.0 298.0 Q 1542.0 291.0 1559.0 281.0 L 1577.0 269.0 Q 1606.0 238.0 1624.0 212.0 L 1650.0 179.0 L 1687.0 123.0 L 1762.0 23.0 Q 1796.0 -23.0 1811.0 -29.0 Q 1848.0 -46.0 1921.0 -32.0 Q 1966.0 -21.0 1972.0 -21.0 L 1993.0 -15.0 Q 2002.0 -13.0 2004.0 -10.0 Q 2007.0 -8.0 2006.0 -2.0 Q 2005.0 3.0 1993.0 7.0 L 1883.0 43.0 Q 1870.0 48.0 1829.0 70.0 Q 1788.0 92.0 1761.0 115.0 L 1708.0 161.0 L 1664.0 217.0 Z" fill="lightgray"></path>
      </clipPath>
      <path clip-path="url(#make-me-a-hanzi-clip-13)" d="M 1559.0 291.0 L 1572.0 290.0 L 1599.0 272.0 L 1691.0 150.0 L 1763.0 73.0 L 1825.0 19.0 L 1872.0 3.0 L 1995.0 -4.0 " fill="none" id="make-me-a-hanzi-animation-13" stroke-dasharray="687 1374" stroke-linecap="round"></path>

</g>
</svg>
