<svg version="1.1" viewBox="0 0 2048 1024" xmlns="http://www.w3.org/2000/svg">
  <g stroke="lightgray" stroke-dasharray="1,1" stroke-width="1" transform="scale(4, 4)">
    <line x1="0" y1="0" x2="256" y2="256"></line>
    <line x1="256" y1="0" x2="0" y2="256"></line>
    <line x1="128" y1="0" x2="128" y2="256"></line>
    <line x1="0" y1="128" x2="256" y2="128"></line>
    <line x1="256" y1="0" x2="512" y2="256"></line>
    <line x1="512" y1="0" x2="256" y2="256"></line>
    <line x1="384" y1="0" x2="384" y2="256"></line>
    <line x1="256" y1="128" x2="512" y2="128"></line>
  </g>
<g transform="scale(1, -1) translate(0, -850)">
   <style type="text/css">
    @keyframes keyframes0 {
      from {
       stroke: black;
       stroke-dashoffset: 392;
       stroke-width: 128;
       }
       56% {
       animation-timing-function: step-end;
       stroke: black;
       stroke-dashoffset: 0;
       stroke-width: 128;
       }
       to {
       stroke: black;
       stroke-width: 1024;
       }
       }
       #make-me-a-hanzi-animation-0 {
         animation: keyframes0 0.569010s both;
         animation-delay: 0.000000s;
         animation-timing-function: linear;
       }
    @keyframes keyframes1 {
      from {
       stroke: black;
       stroke-dashoffset: 926;
       stroke-width: 128;
       }
       75% {
       animation-timing-function: step-end;
       stroke: black;
       stroke-dashoffset: 0;
       stroke-width: 128;
       }
       to {
       stroke: black;
       stroke-width: 1024;
       }
       }
       #make-me-a-hanzi-animation-1 {
         animation: keyframes1 1.003581s both;
         animation-delay: 0.569010s;
         animation-timing-function: linear;
       }
    @keyframes keyframes2 {
      from {
       stroke: black;
       stroke-dashoffset: 1382;
       stroke-width: 128;
       }
       82% {
       animation-timing-function: step-end;
       stroke: black;
       stroke-dashoffset: 0;
       stroke-width: 128;
       }
       to {
       stroke: black;
       stroke-width: 1024;
       }
       }
       #make-me-a-hanzi-animation-2 {
         animation: keyframes2 1.374674s both;
         animation-delay: 1.572591s;
         animation-timing-function: linear;
       }
    @keyframes keyframes3 {
      from {
       stroke: black;
       stroke-dashoffset: 735;
       stroke-width: 128;
       }
       71% {
       animation-timing-function: step-end;
       stroke: black;
       stroke-dashoffset: 0;
       stroke-width: 128;
       }
       to {
       stroke: black;
       stroke-width: 1024;
       }
       }
       #make-me-a-hanzi-animation-3 {
         animation: keyframes3 0.848145s both;
         animation-delay: 2.947265s;
         animation-timing-function: linear;
       }
    @keyframes keyframes4 {
      from {
       stroke: black;
       stroke-dashoffset: 1062;
       stroke-width: 128;
       }
       78% {
       animation-timing-function: step-end;
       stroke: black;
       stroke-dashoffset: 0;
       stroke-width: 128;
       }
       to {
       stroke: black;
       stroke-width: 1024;
       }
       }
       #make-me-a-hanzi-animation-4 {
         animation: keyframes4 1.114258s both;
         animation-delay: 3.795410s;
         animation-timing-function: linear;
       }
    @keyframes keyframes5 {
      from {
       stroke: black;
       stroke-dashoffset: 674;
       stroke-width: 128;
       }
       69% {
       animation-timing-function: step-end;
       stroke: black;
       stroke-dashoffset: 0;
       stroke-width: 128;
       }
       to {
       stroke: black;
       stroke-width: 1024;
       }
       }
       #make-me-a-hanzi-animation-5 {
         animation: keyframes5 0.798503s both;
         animation-delay: 4.909668s;
         animation-timing-function: linear;
       }
</style>
<path d="M 317.5 706.5 Q 377.5 615.5 406.5 611.5 Q 422.5 607.5 433.5 629.5 Q 437.5 645.5 427.5 671.5 Q 417.5 693.5 389.5 707.5 Q 346.5 734.5 326.5 739.5 Q 314.5 743.5 312.5 728.5 Q 309.5 718.5 317.5 706.5 Z" fill="lightgray"></path> 
<path d="M 198.5 642.5 Q 223.5 582.5 222.5 510.5 Q 223.5 237.5 179.5 106.5 Q 157.5 43.5 196.5 -1.5 Q 209.5 -17.5 221.5 -1.5 Q 260.5 40.5 262.5 203.5 Q 268.5 524.5 285.5 604.5 Q 288.5 625.5 269.5 636.5 Q 244.5 658.5 212.5 668.5 Q 202.5 671.5 194.5 661.5 Q 190.5 654.5 198.5 642.5 Z" fill="lightgray"></path> 
<path d="M 537.5 709.5 Q 518.5 710.5 523.5 698.5 Q 530.5 685.5 555.5 672.5 Q 571.5 662.5 636.5 679.5 Q 750.5 715.5 772.5 677.5 Q 779.5 658.5 783.5 608.5 Q 801.5 365.5 787.5 88.5 Q 786.5 48.5 771.5 36.5 Q 756.5 26.5 684.5 45.5 Q 668.5 49.5 668.5 39.5 Q 669.5 32.5 682.5 24.5 Q 746.5 -23.5 780.5 -60.5 Q 802.5 -81.5 815.5 -78.5 Q 828.5 -75.5 840.5 -45.5 Q 856.5 0.5 855.5 70.5 Q 837.5 458.5 840.5 602.5 Q 840.5 645.5 853.5 669.5 Q 866.5 693.5 854.5 705.5 Q 844.5 721.5 793.5 747.5 Q 772.5 757.5 707.5 739.5 Q 616.5 718.5 537.5 709.5 Z" fill="lightgray"></path> 
<path d="M 1316.5 536.0 L 1302.5 544.0 L 1284.5 551.0 L 1261.5 557.0 Q 1236.5 565.0 1227.5 549.0 Q 1224.5 541.0 1239.5 521.0 Q 1261.5 490.0 1270.5 401.0 L 1296.5 139.0 Q 1299.5 103.0 1310.5 89.0 Q 1321.5 74.0 1331.5 76.0 Q 1341.5 77.0 1345.5 87.0 Q 1351.5 97.0 1351.5 106.0 L 1351.5 129.0 L 1351.5 177.0 L 1330.5 454.0 L 1332.5 489.0 L 1329.5 499.0 C 1324.5 529.0 1324.5 532.0 1316.5 536.0 Z" fill="lightgray"></path> 
<path d="M 1740.5 199.0 L 1797.5 440.0 L 1805.5 465.0 Q 1811.5 482.0 1816.5 487.0 Q 1820.5 495.0 1832.5 506.0 Q 1845.5 517.0 1846.5 522.0 Q 1847.5 527.0 1843.5 534.0 Q 1839.5 544.0 1789.5 579.0 Q 1751.5 602.0 1737.5 601.0 Q 1724.5 599.0 1709.5 592.0 Q 1694.5 585.0 1627.5 573.0 L 1543.5 560.0 L 1316.5 536.0 C 1286.5 533.0 1299.5 494.0 1329.5 499.0 L 1441.5 516.0 L 1610.5 535.0 L 1664.5 538.0 L 1698.5 543.0 Q 1724.5 536.0 1716.5 504.0 L 1710.5 477.0 L 1664.5 209.0 C 1659.5 179.0 1733.5 170.0 1740.5 199.0 Z" fill="lightgray"></path> 
<path d="M 1682.5 151.0 L 1734.5 153.0 Q 1750.5 153.0 1764.5 155.0 Q 1778.5 157.0 1774.5 169.0 Q 1773.5 175.0 1757.5 187.0 L 1740.5 199.0 L 1664.5 209.0 L 1460.5 186.0 L 1351.5 177.0 C 1321.5 175.0 1321.5 127.0 1351.5 129.0 L 1682.5 151.0 Z" fill="lightgray"></path> 
      <clipPath id="make-me-a-hanzi-clip-0">
      <path d="M 317.5 706.5 Q 377.5 615.5 406.5 611.5 Q 422.5 607.5 433.5 629.5 Q 437.5 645.5 427.5 671.5 Q 417.5 693.5 389.5 707.5 Q 346.5 734.5 326.5 739.5 Q 314.5 743.5 312.5 728.5 Q 309.5 718.5 317.5 706.5 Z" fill="lightgray"></path>
      </clipPath>
      <path clip-path="url(#make-me-a-hanzi-clip-0)" d="M 322.5 730.5 L 391.5 664.5 L 411.5 629.5 " fill="none" id="make-me-a-hanzi-animation-0" stroke-dasharray="264 528" stroke-linecap="round"></path>

      <clipPath id="make-me-a-hanzi-clip-1">
      <path d="M 198.5 642.5 Q 223.5 582.5 222.5 510.5 Q 223.5 237.5 179.5 106.5 Q 157.5 43.5 196.5 -1.5 Q 209.5 -17.5 221.5 -1.5 Q 260.5 40.5 262.5 203.5 Q 268.5 524.5 285.5 604.5 Q 288.5 625.5 269.5 636.5 Q 244.5 658.5 212.5 668.5 Q 202.5 671.5 194.5 661.5 Q 190.5 654.5 198.5 642.5 Z" fill="lightgray"></path>
      </clipPath>
      <path clip-path="url(#make-me-a-hanzi-clip-1)" d="M 205.5 655.5 L 237.5 624.5 L 248.5 606.5 L 249.5 591.5 L 237.5 240.5 L 208.5 53.5 L 209.5 4.5 " fill="none" id="make-me-a-hanzi-animation-1" stroke-dasharray="798 1596" stroke-linecap="round"></path>

      <clipPath id="make-me-a-hanzi-clip-2">
      <path d="M 537.5 709.5 Q 518.5 710.5 523.5 698.5 Q 530.5 685.5 555.5 672.5 Q 571.5 662.5 636.5 679.5 Q 750.5 715.5 772.5 677.5 Q 779.5 658.5 783.5 608.5 Q 801.5 365.5 787.5 88.5 Q 786.5 48.5 771.5 36.5 Q 756.5 26.5 684.5 45.5 Q 668.5 49.5 668.5 39.5 Q 669.5 32.5 682.5 24.5 Q 746.5 -23.5 780.5 -60.5 Q 802.5 -81.5 815.5 -78.5 Q 828.5 -75.5 840.5 -45.5 Q 856.5 0.5 855.5 70.5 Q 837.5 458.5 840.5 602.5 Q 840.5 645.5 853.5 669.5 Q 866.5 693.5 854.5 705.5 Q 844.5 721.5 793.5 747.5 Q 772.5 757.5 707.5 739.5 Q 616.5 718.5 537.5 709.5 Z" fill="lightgray"></path>
      </clipPath>
      <path clip-path="url(#make-me-a-hanzi-clip-2)" d="M 532.5 701.5 L 561.5 692.5 L 588.5 692.5 L 703.5 717.5 L 757.5 721.5 L 787.5 713.5 L 811.5 691.5 L 814.5 681.5 L 819.5 46.5 L 798.5 -6.5 L 743.5 7.5 L 676.5 39.5 " fill="none" id="make-me-a-hanzi-animation-2" stroke-dasharray="1254 2508" stroke-linecap="round"></path>

      <clipPath id="make-me-a-hanzi-clip-3">
      <path d="M 1316.5 536.0 L 1302.5 544.0 L 1284.5 551.0 L 1261.5 557.0 Q 1236.5 565.0 1227.5 549.0 Q 1224.5 541.0 1239.5 521.0 Q 1261.5 490.0 1270.5 401.0 L 1296.5 139.0 Q 1299.5 103.0 1310.5 89.0 Q 1321.5 74.0 1331.5 76.0 Q 1341.5 77.0 1345.5 87.0 Q 1351.5 97.0 1351.5 106.0 L 1351.5 129.0 L 1351.5 177.0 L 1330.5 454.0 L 1332.5 489.0 L 1329.5 499.0 C 1324.5 529.0 1324.5 532.0 1316.5 536.0 Z" fill="lightgray"></path>
      </clipPath>
      <path clip-path="url(#make-me-a-hanzi-clip-3)" d="M 1239.5 545.0 L 1285.5 511.0 L 1294.5 484.0 L 1330.5 92.0 " fill="none" id="make-me-a-hanzi-animation-3" stroke-dasharray="607 1214" stroke-linecap="round"></path>

      <clipPath id="make-me-a-hanzi-clip-4">
      <path d="M 1740.5 199.0 L 1797.5 440.0 L 1805.5 465.0 Q 1811.5 482.0 1816.5 487.0 Q 1820.5 495.0 1832.5 506.0 Q 1845.5 517.0 1846.5 522.0 Q 1847.5 527.0 1843.5 534.0 Q 1839.5 544.0 1789.5 579.0 Q 1751.5 602.0 1737.5 601.0 Q 1724.5 599.0 1709.5 592.0 Q 1694.5 585.0 1627.5 573.0 L 1543.5 560.0 L 1316.5 536.0 C 1286.5 533.0 1299.5 494.0 1329.5 499.0 L 1441.5 516.0 L 1610.5 535.0 L 1664.5 538.0 L 1698.5 543.0 Q 1724.5 536.0 1716.5 504.0 L 1710.5 477.0 L 1664.5 209.0 C 1659.5 179.0 1733.5 170.0 1740.5 199.0 Z" fill="lightgray"></path>
      </clipPath>
      <path clip-path="url(#make-me-a-hanzi-clip-4)" d="M 1324.5 532.0 L 1347.5 520.0 L 1692.5 565.0 L 1728.5 565.0 L 1747.5 556.0 L 1773.5 522.0 L 1754.5 460.0 L 1710.5 243.0 L 1673.5 216.0 " fill="none" id="make-me-a-hanzi-animation-4" stroke-dasharray="934 1868" stroke-linecap="round"></path>

      <clipPath id="make-me-a-hanzi-clip-5">
      <path d="M 1682.5 151.0 L 1734.5 153.0 Q 1750.5 153.0 1764.5 155.0 Q 1778.5 157.0 1774.5 169.0 Q 1773.5 175.0 1757.5 187.0 L 1740.5 199.0 L 1664.5 209.0 L 1460.5 186.0 L 1351.5 177.0 C 1321.5 175.0 1321.5 127.0 1351.5 129.0 L 1682.5 151.0 Z" fill="lightgray"></path>
      </clipPath>
      <path clip-path="url(#make-me-a-hanzi-clip-5)" d="M 1359.5 135.0 L 1376.5 155.0 L 1668.5 180.0 L 1731.5 177.0 L 1765.5 165.0 " fill="none" id="make-me-a-hanzi-animation-5" stroke-dasharray="546 1092" stroke-linecap="round"></path>

</g>
</svg>
