<svg version="1.1" viewBox="0 0 2048 1024" xmlns="http://www.w3.org/2000/svg">
  <g stroke="lightgray" stroke-dasharray="1,1" stroke-width="1" transform="scale(4, 4)">
    <line x1="0" y1="0" x2="256" y2="256"></line>
    <line x1="256" y1="0" x2="0" y2="256"></line>
    <line x1="128" y1="0" x2="128" y2="256"></line>
    <line x1="0" y1="128" x2="256" y2="128"></line>
    <line x1="256" y1="0" x2="512" y2="256"></line>
    <line x1="512" y1="0" x2="256" y2="256"></line>
    <line x1="384" y1="0" x2="384" y2="256"></line>
    <line x1="256" y1="128" x2="512" y2="128"></line>
  </g>
<g transform="scale(1, -1) translate(0, -850)">
   <style type="text/css">
    @keyframes keyframes0 {
      from {
       stroke: black;
       stroke-dashoffset: 801;
       stroke-width: 128;
       }
       72% {
       animation-timing-function: step-end;
       stroke: black;
       stroke-dashoffset: 0;
       stroke-width: 128;
       }
       to {
       stroke: black;
       stroke-width: 1024;
       }
       }
       #make-me-a-hanzi-animation-0 {
         animation: keyframes0 0.901855s both;
         animation-delay: 0.000000s;
         animation-timing-function: linear;
       }
    @keyframes keyframes1 {
      from {
       stroke: black;
       stroke-dashoffset: 918;
       stroke-width: 128;
       }
       75% {
       animation-timing-function: step-end;
       stroke: black;
       stroke-dashoffset: 0;
       stroke-width: 128;
       }
       to {
       stroke: black;
       stroke-width: 1024;
       }
       }
       #make-me-a-hanzi-animation-1 {
         animation: keyframes1 0.997070s both;
         animation-delay: 0.901855s;
         animation-timing-function: linear;
       }
    @keyframes keyframes2 {
      from {
       stroke: black;
       stroke-dashoffset: 539;
       stroke-width: 128;
       }
       64% {
       animation-timing-function: step-end;
       stroke: black;
       stroke-dashoffset: 0;
       stroke-width: 128;
       }
       to {
       stroke: black;
       stroke-width: 1024;
       }
       }
       #make-me-a-hanzi-animation-2 {
         animation: keyframes2 0.688639s both;
         animation-delay: 1.898925s;
         animation-timing-function: linear;
       }
    @keyframes keyframes3 {
      from {
       stroke: black;
       stroke-dashoffset: 1320;
       stroke-width: 128;
       }
       81% {
       animation-timing-function: step-end;
       stroke: black;
       stroke-dashoffset: 0;
       stroke-width: 128;
       }
       to {
       stroke: black;
       stroke-width: 1024;
       }
       }
       #make-me-a-hanzi-animation-3 {
         animation: keyframes3 1.324219s both;
         animation-delay: 2.587564s;
         animation-timing-function: linear;
       }
    @keyframes keyframes4 {
      from {
       stroke: black;
       stroke-dashoffset: 400;
       stroke-width: 128;
       }
       57% {
       animation-timing-function: step-end;
       stroke: black;
       stroke-dashoffset: 0;
       stroke-width: 128;
       }
       to {
       stroke: black;
       stroke-width: 1024;
       }
       }
       #make-me-a-hanzi-animation-4 {
         animation: keyframes4 0.575521s both;
         animation-delay: 3.911783s;
         animation-timing-function: linear;
       }
    @keyframes keyframes5 {
      from {
       stroke: black;
       stroke-dashoffset: 458;
       stroke-width: 128;
       }
       60% {
       animation-timing-function: step-end;
       stroke: black;
       stroke-dashoffset: 0;
       stroke-width: 128;
       }
       to {
       stroke: black;
       stroke-width: 1024;
       }
       }
       #make-me-a-hanzi-animation-5 {
         animation: keyframes5 0.622721s both;
         animation-delay: 4.487304s;
         animation-timing-function: linear;
       }
    @keyframes keyframes6 {
      from {
       stroke: black;
       stroke-dashoffset: 615;
       stroke-width: 128;
       }
       67% {
       animation-timing-function: step-end;
       stroke: black;
       stroke-dashoffset: 0;
       stroke-width: 128;
       }
       to {
       stroke: black;
       stroke-width: 1024;
       }
       }
       #make-me-a-hanzi-animation-6 {
         animation: keyframes6 0.750488s both;
         animation-delay: 5.110025s;
         animation-timing-function: linear;
       }
    @keyframes keyframes7 {
      from {
       stroke: black;
       stroke-dashoffset: 504;
       stroke-width: 128;
       }
       62% {
       animation-timing-function: step-end;
       stroke: black;
       stroke-dashoffset: 0;
       stroke-width: 128;
       }
       to {
       stroke: black;
       stroke-width: 1024;
       }
       }
       #make-me-a-hanzi-animation-7 {
         animation: keyframes7 0.660156s both;
         animation-delay: 5.860513s;
         animation-timing-function: linear;
       }
    @keyframes keyframes8 {
      from {
       stroke: black;
       stroke-dashoffset: 644;
       stroke-width: 128;
       }
       68% {
       animation-timing-function: step-end;
       stroke: black;
       stroke-dashoffset: 0;
       stroke-width: 128;
       }
       to {
       stroke: black;
       stroke-width: 1024;
       }
       }
       #make-me-a-hanzi-animation-8 {
         animation: keyframes8 0.774089s both;
         animation-delay: 6.520669s;
         animation-timing-function: linear;
       }
    @keyframes keyframes9 {
      from {
       stroke: black;
       stroke-dashoffset: 418;
       stroke-width: 128;
       }
       58% {
       animation-timing-function: step-end;
       stroke: black;
       stroke-dashoffset: 0;
       stroke-width: 128;
       }
       to {
       stroke: black;
       stroke-width: 1024;
       }
       }
       #make-me-a-hanzi-animation-9 {
         animation: keyframes9 0.590169s both;
         animation-delay: 7.294758s;
         animation-timing-function: linear;
       }
    @keyframes keyframes10 {
      from {
       stroke: black;
       stroke-dashoffset: 568;
       stroke-width: 128;
       }
       65% {
       animation-timing-function: step-end;
       stroke: black;
       stroke-dashoffset: 0;
       stroke-width: 128;
       }
       to {
       stroke: black;
       stroke-width: 1024;
       }
       }
       #make-me-a-hanzi-animation-10 {
         animation: keyframes10 0.712240s both;
         animation-delay: 7.884927s;
         animation-timing-function: linear;
       }
    @keyframes keyframes11 {
      from {
       stroke: black;
       stroke-dashoffset: 695;
       stroke-width: 128;
       }
       69% {
       animation-timing-function: step-end;
       stroke: black;
       stroke-dashoffset: 0;
       stroke-width: 128;
       }
       to {
       stroke: black;
       stroke-width: 1024;
       }
       }
       #make-me-a-hanzi-animation-11 {
         animation: keyframes11 0.815592s both;
         animation-delay: 8.597167s;
         animation-timing-function: linear;
       }
    @keyframes keyframes12 {
      from {
       stroke: black;
       stroke-dashoffset: 969;
       stroke-width: 128;
       }
       76% {
       animation-timing-function: step-end;
       stroke: black;
       stroke-dashoffset: 0;
       stroke-width: 128;
       }
       to {
       stroke: black;
       stroke-width: 1024;
       }
       }
       #make-me-a-hanzi-animation-12 {
         animation: keyframes12 1.038574s both;
         animation-delay: 9.412759s;
         animation-timing-function: linear;
       }
    @keyframes keyframes13 {
      from {
       stroke: black;
       stroke-dashoffset: 592;
       stroke-width: 128;
       }
       66% {
       animation-timing-function: step-end;
       stroke: black;
       stroke-dashoffset: 0;
       stroke-width: 128;
       }
       to {
       stroke: black;
       stroke-width: 1024;
       }
       }
       #make-me-a-hanzi-animation-13 {
         animation: keyframes13 0.731771s both;
         animation-delay: 10.451333s;
         animation-timing-function: linear;
       }
    @keyframes keyframes14 {
      from {
       stroke: black;
       stroke-dashoffset: 609;
       stroke-width: 128;
       }
       66% {
       animation-timing-function: step-end;
       stroke: black;
       stroke-dashoffset: 0;
       stroke-width: 128;
       }
       to {
       stroke: black;
       stroke-width: 1024;
       }
       }
       #make-me-a-hanzi-animation-14 {
         animation: keyframes14 0.745605s both;
         animation-delay: 11.183104s;
         animation-timing-function: linear;
       }
    @keyframes keyframes15 {
      from {
       stroke: black;
       stroke-dashoffset: 417;
       stroke-width: 128;
       }
       58% {
       animation-timing-function: step-end;
       stroke: black;
       stroke-dashoffset: 0;
       stroke-width: 128;
       }
       to {
       stroke: black;
       stroke-width: 1024;
       }
       }
       #make-me-a-hanzi-animation-15 {
         animation: keyframes15 0.589355s both;
         animation-delay: 11.928709s;
         animation-timing-function: linear;
       }
    @keyframes keyframes16 {
      from {
       stroke: black;
       stroke-dashoffset: 493;
       stroke-width: 128;
       }
       62% {
       animation-timing-function: step-end;
       stroke: black;
       stroke-dashoffset: 0;
       stroke-width: 128;
       }
       to {
       stroke: black;
       stroke-width: 1024;
       }
       }
       #make-me-a-hanzi-animation-16 {
         animation: keyframes16 0.651204s both;
         animation-delay: 12.518064s;
         animation-timing-function: linear;
       }
    @keyframes keyframes17 {
      from {
       stroke: black;
       stroke-dashoffset: 385;
       stroke-width: 128;
       }
       56% {
       animation-timing-function: step-end;
       stroke: black;
       stroke-dashoffset: 0;
       stroke-width: 128;
       }
       to {
       stroke: black;
       stroke-width: 1024;
       }
       }
       #make-me-a-hanzi-animation-17 {
         animation: keyframes17 0.563314s both;
         animation-delay: 13.169268s;
         animation-timing-function: linear;
       }
    @keyframes keyframes18 {
      from {
       stroke: black;
       stroke-dashoffset: 549;
       stroke-width: 128;
       }
       64% {
       animation-timing-function: step-end;
       stroke: black;
       stroke-dashoffset: 0;
       stroke-width: 128;
       }
       to {
       stroke: black;
       stroke-width: 1024;
       }
       }
       #make-me-a-hanzi-animation-18 {
         animation: keyframes18 0.696777s both;
         animation-delay: 13.732582s;
         animation-timing-function: linear;
       }
    @keyframes keyframes19 {
      from {
       stroke: black;
       stroke-dashoffset: 490;
       stroke-width: 128;
       }
       61% {
       animation-timing-function: step-end;
       stroke: black;
       stroke-dashoffset: 0;
       stroke-width: 128;
       }
       to {
       stroke: black;
       stroke-width: 1024;
       }
       }
       #make-me-a-hanzi-animation-19 {
         animation: keyframes19 0.648763s both;
         animation-delay: 14.429359s;
         animation-timing-function: linear;
       }
    @keyframes keyframes20 {
      from {
       stroke: black;
       stroke-dashoffset: 325;
       stroke-width: 128;
       }
       51% {
       animation-timing-function: step-end;
       stroke: black;
       stroke-dashoffset: 0;
       stroke-width: 128;
       }
       to {
       stroke: black;
       stroke-width: 1024;
       }
       }
       #make-me-a-hanzi-animation-20 {
         animation: keyframes20 0.514486s both;
         animation-delay: 15.078122s;
         animation-timing-function: linear;
       }
    @keyframes keyframes21 {
      from {
       stroke: black;
       stroke-dashoffset: 524;
       stroke-width: 128;
       }
       63% {
       animation-timing-function: step-end;
       stroke: black;
       stroke-dashoffset: 0;
       stroke-width: 128;
       }
       to {
       stroke: black;
       stroke-width: 1024;
       }
       }
       #make-me-a-hanzi-animation-21 {
         animation: keyframes21 0.676432s both;
         animation-delay: 15.592608s;
         animation-timing-function: linear;
       }
    @keyframes keyframes22 {
      from {
       stroke: black;
       stroke-dashoffset: 377;
       stroke-width: 128;
       }
       55% {
       animation-timing-function: step-end;
       stroke: black;
       stroke-dashoffset: 0;
       stroke-width: 128;
       }
       to {
       stroke: black;
       stroke-width: 1024;
       }
       }
       #make-me-a-hanzi-animation-22 {
         animation: keyframes22 0.556803s both;
         animation-delay: 16.269040s;
         animation-timing-function: linear;
       }
    @keyframes keyframes23 {
      from {
       stroke: black;
       stroke-dashoffset: 719;
       stroke-width: 128;
       }
       70% {
       animation-timing-function: step-end;
       stroke: black;
       stroke-dashoffset: 0;
       stroke-width: 128;
       }
       to {
       stroke: black;
       stroke-width: 1024;
       }
       }
       #make-me-a-hanzi-animation-23 {
         animation: keyframes23 0.835124s both;
         animation-delay: 16.825843s;
         animation-timing-function: linear;
       }
    @keyframes keyframes24 {
      from {
       stroke: black;
       stroke-dashoffset: 727;
       stroke-width: 128;
       }
       70% {
       animation-timing-function: step-end;
       stroke: black;
       stroke-dashoffset: 0;
       stroke-width: 128;
       }
       to {
       stroke: black;
       stroke-width: 1024;
       }
       }
       #make-me-a-hanzi-animation-24 {
         animation: keyframes24 0.841634s both;
         animation-delay: 17.660967s;
         animation-timing-function: linear;
       }
</style>
<path d="M 212.5 600.0 Q 246.5 604.0 285.5 619.0 Q 300.5 626.0 308.5 617.0 Q 311.5 614.0 277.5 524.0 Q 264.5 502.0 277.5 483.0 Q 307.5 432.0 314.5 404.0 Q 318.5 388.0 311.5 379.0 Q 307.5 372.0 289.5 374.0 Q 267.5 377.0 244.5 377.0 Q 222.5 378.0 246.5 364.0 Q 288.5 337.0 326.5 306.0 Q 339.5 293.0 351.5 305.0 Q 364.5 314.0 372.5 337.0 Q 379.5 358.0 366.5 397.0 Q 351.5 440.0 321.5 475.0 Q 297.5 508.0 313.5 529.0 Q 359.5 596.0 383.5 612.0 Q 402.5 624.0 394.5 637.0 Q 381.5 655.0 346.5 675.0 Q 327.5 684.0 312.5 674.0 Q 267.5 641.0 196.5 629.0 C 167.5 623.0 182.5 595.0 212.5 600.0 Z" fill="lightgray"></path> 
<path d="M 196.5 629.0 Q 184.5 641.0 159.5 649.0 Q 149.5 655.0 135.5 650.0 Q 128.5 644.0 134.5 630.0 Q 156.5 560.0 161.5 520.0 Q 160.5 517.0 161.5 512.0 Q 179.5 262.0 139.5 97.0 Q 124.5 37.0 164.5 -12.0 Q 176.5 -27.0 187.5 -13.0 Q 206.5 14.0 205.5 133.0 Q 208.5 553.0 211.5 581.0 Q 212.5 593.0 212.5 600.0 C 213.5 617.0 213.5 617.0 196.5 629.0 Z" fill="lightgray"></path> 
<path d="M 525.5 557.0 Q 574.5 623.0 601.5 666.0 Q 611.5 688.0 623.5 700.0 Q 630.5 710.0 625.5 723.0 Q 619.5 735.0 591.5 753.0 Q 564.5 766.0 547.5 765.0 Q 529.5 761.0 539.5 742.0 Q 566.5 706.0 471.5 531.0 Q 464.5 521.0 461.5 515.0 Q 460.5 505.0 472.5 508.0 Q 482.5 511.0 504.5 534.0 Q 507.5 538.0 511.5 541.0 L 525.5 557.0 Z" fill="lightgray"></path> 
<path d="M 511.5 541.0 Q 541.5 532.0 611.5 543.0 Q 779.5 571.0 785.5 565.0 Q 806.5 532.0 811.5 313.0 Q 811.5 145.0 772.5 54.0 Q 759.5 15.0 733.5 6.0 Q 723.5 3.0 665.5 24.0 Q 655.5 28.0 655.5 22.0 Q 654.5 18.0 665.5 7.0 Q 704.5 -38.0 721.5 -70.0 Q 730.5 -89.0 742.5 -90.0 Q 766.5 -86.0 787.5 -58.0 Q 820.5 -24.0 840.5 30.0 Q 882.5 144.0 868.5 483.0 Q 867.5 523.0 886.5 552.0 Q 899.5 567.0 897.5 576.0 Q 896.5 583.0 875.5 596.0 Q 847.5 615.0 809.5 624.0 Q 785.5 630.0 715.5 604.0 Q 706.5 603.0 697.5 599.0 Q 604.5 572.0 525.5 557.0 C 496.5 551.0 481.5 545.0 511.5 541.0 Z" fill="lightgray"></path> 
<path d="M 491.5 422.0 Q 503.5 440.0 515.5 455.0 Q 522.5 465.0 518.5 473.0 Q 514.5 483.0 492.5 484.0 Q 468.5 487.0 460.5 483.0 Q 454.5 480.0 454.5 469.0 Q 457.5 439.0 406.5 361.0 Q 393.5 345.0 412.5 353.0 Q 427.5 356.0 471.5 398.0 L 491.5 422.0 Z" fill="lightgray"></path> 
<path d="M 552.5 397.0 Q 600.5 410.0 654.5 421.0 Q 679.5 428.0 684.5 431.0 Q 691.5 438.0 687.5 445.0 Q 680.5 454.0 657.5 459.0 Q 633.5 463.0 609.5 453.0 Q 579.5 443.0 547.5 434.0 L 491.5 422.0 C 462.5 416.0 443.5 410.0 471.5 398.0 Q 490.5 389.0 512.5 391.0 L 552.5 397.0 Z" fill="lightgray"></path> 
<path d="M 575.5 295.0 Q 630.5 305.0 711.5 308.0 Q 750.5 308.0 755.5 315.0 Q 759.5 324.0 747.5 332.0 Q 707.5 362.0 654.5 342.0 Q 620.5 336.0 576.5 324.0 L 526.5 314.0 Q 462.5 304.0 388.5 290.0 Q 373.5 287.0 384.5 276.0 Q 394.5 267.0 407.5 265.0 Q 420.5 261.0 432.5 265.0 Q 475.5 280.0 526.5 287.0 L 575.5 295.0 Z" fill="lightgray"></path> 
<path d="M 568.5 159.0 Q 571.5 234.0 575.5 295.0 L 576.5 324.0 Q 576.5 337.0 578.5 351.0 Q 587.5 375.0 552.5 397.0 C 527.5 414.0 501.5 419.0 512.5 391.0 Q 521.5 373.0 526.5 314.0 L 526.5 287.0 Q 526.5 239.0 528.5 151.0 C 529.5 121.0 567.5 129.0 568.5 159.0 Z" fill="lightgray"></path> 
<path d="M 659.5 173.0 Q 610.5 169.0 568.5 159.0 L 528.5 151.0 Q 477.5 141.0 435.5 128.0 Q 425.5 127.0 428.5 139.0 Q 443.5 188.0 437.5 200.0 Q 415.5 236.0 392.5 236.0 Q 383.5 233.0 387.5 217.0 Q 396.5 186.0 387.5 156.0 Q 380.5 128.0 366.5 117.0 Q 350.5 104.0 356.5 92.0 Q 363.5 79.0 377.5 70.0 Q 387.5 63.0 396.5 69.0 Q 423.5 97.0 584.5 132.0 Q 653.5 147.0 672.5 142.0 C 702.5 139.0 689.5 176.0 659.5 173.0 Z" fill="lightgray"></path> 
<path d="M 672.5 142.0 Q 687.5 102.0 700.5 95.0 Q 707.5 91.0 717.5 100.0 Q 727.5 109.0 732.5 135.0 Q 741.5 174.0 657.5 255.0 Q 647.5 264.0 641.5 264.0 Q 635.5 263.0 631.5 253.0 Q 630.5 247.0 659.5 173.0 L 672.5 142.0 Z" fill="lightgray"></path> 
<path d="M 1351.0 655.5 Q 1468.0 685.5 1473.0 687.5 Q 1480.0 694.5 1477.0 702.5 Q 1470.0 712.5 1444.0 719.5 Q 1423.0 723.5 1312.0 689.5 Q 1257.0 674.5 1170.0 663.5 Q 1136.0 657.5 1161.0 642.5 Q 1188.0 627.5 1222.0 627.5 L 1259.0 634.5 Q 1283.0 640.5 1309.0 645.5 L 1351.0 655.5 Z" fill="lightgray"></path> 
<path d="M 1170.0 494.5 Q 1169.0 495.5 1168.0 496.5 Q 1149.0 511.5 1126.0 518.5 Q 1119.0 519.5 1113.0 512.5 Q 1110.0 508.5 1116.0 498.5 Q 1155.0 408.5 1131.0 217.5 Q 1127.0 186.5 1117.0 153.5 Q 1111.0 131.5 1115.0 115.5 Q 1122.0 87.5 1133.0 76.5 Q 1143.0 64.5 1151.0 76.5 Q 1160.0 88.5 1165.0 113.5 L 1170.0 142.5 Q 1173.0 167.5 1174.0 307.5 Q 1174.0 430.5 1179.0 467.5 C 1181.0 486.5 1181.0 486.5 1170.0 494.5 Z" fill="lightgray"></path> 
<path d="M 1380.0 131.5 Q 1404.0 100.5 1422.0 71.5 Q 1429.0 56.5 1439.0 57.5 Q 1452.0 58.5 1466.0 86.5 Q 1481.0 117.5 1478.0 158.5 Q 1471.0 258.5 1465.0 447.5 Q 1464.0 474.5 1478.0 493.5 Q 1485.0 503.5 1477.0 513.5 Q 1461.0 529.5 1416.0 549.5 Q 1401.0 555.5 1354.0 534.5 L 1323.0 524.5 Q 1298.0 520.5 1276.0 512.5 L 1241.0 505.5 Q 1195.0 498.5 1170.0 494.5 C 1140.0 489.5 1149.0 465.5 1179.0 467.5 Q 1197.0 466.5 1229.0 474.5 Q 1233.0 475.5 1241.0 476.5 L 1273.0 483.5 Q 1295.0 489.5 1322.0 494.5 L 1352.0 500.5 Q 1388.0 515.5 1407.0 500.5 Q 1417.0 491.5 1422.0 413.5 Q 1422.0 401.5 1423.0 388.5 L 1424.0 360.5 Q 1424.0 300.5 1417.0 160.5 Q 1414.0 151.5 1410.0 149.5 C 1400.0 121.5 1364.0 153.5 1380.0 131.5 Z" fill="lightgray"></path> 
<path d="M 1222.0 627.5 Q 1234.0 615.5 1238.0 573.5 Q 1241.0 539.5 1241.0 505.5 L 1241.0 476.5 Q 1235.0 410.5 1200.0 322.5 Q 1197.0 318.5 1196.0 314.5 Q 1196.0 307.5 1202.0 309.5 Q 1212.0 312.5 1227.0 339.5 Q 1272.0 400.5 1273.0 483.5 L 1276.0 512.5 Q 1277.0 536.5 1277.0 559.5 Q 1274.0 592.5 1277.0 607.5 Q 1281.0 617.5 1276.0 624.5 Q 1269.0 630.5 1259.0 634.5 C 1232.0 647.5 1205.0 652.5 1222.0 627.5 Z" fill="lightgray"></path> 
<path d="M 1354.0 534.5 Q 1357.0 579.5 1371.0 630.5 Q 1374.0 640.5 1367.0 648.5 Q 1361.0 652.5 1351.0 655.5 C 1323.0 666.5 1293.0 671.5 1309.0 645.5 Q 1327.0 627.5 1323.0 524.5 L 1322.0 494.5 Q 1313.0 388.5 1350.0 357.5 Q 1360.0 350.5 1402.0 354.5 Q 1415.0 355.5 1424.0 360.5 C 1452.0 371.5 1453.0 386.5 1423.0 388.5 Q 1419.0 389.5 1416.0 389.5 Q 1380.0 386.5 1372.0 391.5 Q 1348.0 407.5 1352.0 500.5 L 1354.0 534.5 Z" fill="lightgray"></path> 
<path d="M 1213.0 253.5 Q 1197.0 250.5 1216.0 236.5 Q 1223.0 230.5 1239.0 232.5 Q 1314.0 244.5 1369.0 250.5 Q 1391.0 254.5 1383.0 266.5 Q 1373.0 279.5 1349.0 284.5 Q 1325.0 287.5 1213.0 253.5 Z" fill="lightgray"></path> 
<path d="M 1165.0 113.5 Q 1166.0 113.5 1168.0 112.5 Q 1178.0 109.5 1190.0 112.5 Q 1251.0 124.5 1380.0 131.5 C 1410.0 133.5 1426.0 134.5 1410.0 149.5 Q 1404.0 156.5 1386.0 169.5 Q 1371.0 178.5 1342.0 172.5 Q 1248.0 151.5 1170.0 142.5 C 1140.0 138.5 1136.0 121.5 1165.0 113.5 Z" fill="lightgray"></path> 
<path d="M 1651.0 739.5 Q 1676.0 720.5 1704.0 697.5 Q 1717.0 685.5 1733.0 687.5 Q 1743.0 688.5 1747.0 701.5 Q 1750.0 716.5 1740.0 744.5 Q 1727.0 774.5 1643.0 785.5 Q 1627.0 786.5 1622.0 784.5 Q 1618.0 780.5 1620.0 768.5 Q 1624.0 758.5 1651.0 739.5 Z" fill="lightgray"></path> 
<path d="M 1553.0 623.5 Q 1520.0 617.5 1544.0 602.5 Q 1584.0 584.5 1645.0 597.5 Q 1718.0 615.5 1798.0 632.5 Q 1835.0 642.5 1841.0 647.5 Q 1850.0 654.5 1845.0 662.5 Q 1838.0 672.5 1811.0 679.5 Q 1787.0 683.5 1698.0 652.5 Q 1623.0 633.5 1553.0 623.5 Z" fill="lightgray"></path> 
<path d="M 1590.0 445.5 Q 1593.0 457.5 1629.0 515.5 Q 1636.0 525.5 1625.0 536.5 Q 1588.0 558.5 1572.0 554.5 Q 1565.0 553.5 1567.0 541.5 Q 1582.0 472.5 1511.0 383.5 Q 1495.0 362.5 1486.0 350.5 Q 1482.0 338.5 1492.0 343.5 Q 1529.0 352.5 1577.0 424.5 L 1590.0 445.5 Z" fill="lightgray"></path> 
<path d="M 1577.0 424.5 Q 1626.0 375.5 1644.0 374.5 Q 1654.0 374.5 1658.0 387.5 Q 1658.0 397.5 1651.0 412.5 Q 1639.0 427.5 1590.0 445.5 C 1562.0 455.5 1556.0 445.5 1577.0 424.5 Z" fill="lightgray"></path> 
<path d="M 1685.0 364.5 Q 1716.0 379.5 1771.0 450.5 L 1782.0 468.5 Q 1789.0 481.5 1797.0 494.5 Q 1815.0 531.5 1832.0 561.5 Q 1839.0 571.5 1826.0 583.5 Q 1790.0 608.5 1769.0 602.5 Q 1760.0 599.5 1763.0 588.5 Q 1778.0 522.5 1705.0 412.5 Q 1695.0 402.5 1674.0 371.5 Q 1673.0 370.5 1672.0 367.5 C 1663.0 351.5 1663.0 351.5 1685.0 364.5 Z" fill="lightgray"></path> 
<path d="M 1771.0 450.5 Q 1775.0 443.5 1793.0 431.5 Q 1826.0 409.5 1861.0 382.5 Q 1871.0 372.5 1884.0 374.5 Q 1891.0 375.5 1895.0 385.5 Q 1898.0 397.5 1890.0 419.5 Q 1878.0 452.5 1787.0 468.5 Q 1784.0 469.5 1782.0 468.5 C 1758.0 468.5 1758.0 468.5 1771.0 450.5 Z" fill="lightgray"></path> 
<path d="M 1718.0 250.5 Q 1790.0 262.5 1902.0 264.5 Q 1951.0 264.5 1958.0 274.5 Q 1962.0 284.5 1947.0 296.5 Q 1893.0 333.5 1834.0 312.5 Q 1786.0 303.5 1719.0 287.5 L 1666.0 278.5 Q 1587.0 265.5 1496.0 249.5 Q 1477.0 246.5 1492.0 232.5 Q 1505.0 220.5 1521.0 216.5 Q 1540.0 212.5 1555.0 216.5 Q 1607.0 232.5 1667.0 241.5 L 1718.0 250.5 Z" fill="lightgray"></path> 
<path d="M 1670.0 -73.5 Q 1674.0 -95.5 1681.0 -104.5 Q 1685.0 -110.5 1693.0 -108.5 Q 1720.0 -87.5 1716.0 54.5 Q 1715.0 96.5 1718.0 250.5 L 1719.0 287.5 Q 1722.0 299.5 1726.0 322.5 Q 1729.0 338.5 1717.0 346.5 Q 1698.0 359.5 1685.0 364.5 L 1672.0 367.5 Q 1662.0 371.5 1650.0 364.5 Q 1643.0 357.5 1648.0 347.5 Q 1666.0 323.5 1666.0 278.5 L 1667.0 241.5 Q 1667.0 -52.5 1670.0 -73.5 Z" fill="lightgray"></path> 
      <clipPath id="make-me-a-hanzi-clip-0">
      <path d="M 212.5 600.0 Q 246.5 604.0 285.5 619.0 Q 300.5 626.0 308.5 617.0 Q 311.5 614.0 277.5 524.0 Q 264.5 502.0 277.5 483.0 Q 307.5 432.0 314.5 404.0 Q 318.5 388.0 311.5 379.0 Q 307.5 372.0 289.5 374.0 Q 267.5 377.0 244.5 377.0 Q 222.5 378.0 246.5 364.0 Q 288.5 337.0 326.5 306.0 Q 339.5 293.0 351.5 305.0 Q 364.5 314.0 372.5 337.0 Q 379.5 358.0 366.5 397.0 Q 351.5 440.0 321.5 475.0 Q 297.5 508.0 313.5 529.0 Q 359.5 596.0 383.5 612.0 Q 402.5 624.0 394.5 637.0 Q 381.5 655.0 346.5 675.0 Q 327.5 684.0 312.5 674.0 Q 267.5 641.0 196.5 629.0 C 167.5 623.0 182.5 595.0 212.5 600.0 Z" fill="lightgray"></path>
      </clipPath>
      <path clip-path="url(#make-me-a-hanzi-clip-0)" d="M 205.5 628.0 L 214.5 620.0 L 230.5 619.0 L 323.5 645.0 L 345.5 630.0 L 294.5 531.0 L 289.5 503.0 L 337.5 409.0 L 342.5 380.0 L 338.5 355.0 L 332.5 348.0 L 314.5 349.0 L 251.5 371.0 " fill="none" id="make-me-a-hanzi-animation-0" stroke-dasharray="673 1346" stroke-linecap="round"></path>

      <clipPath id="make-me-a-hanzi-clip-1">
      <path d="M 196.5 629.0 Q 184.5 641.0 159.5 649.0 Q 149.5 655.0 135.5 650.0 Q 128.5 644.0 134.5 630.0 Q 156.5 560.0 161.5 520.0 Q 160.5 517.0 161.5 512.0 Q 179.5 262.0 139.5 97.0 Q 124.5 37.0 164.5 -12.0 Q 176.5 -27.0 187.5 -13.0 Q 206.5 14.0 205.5 133.0 Q 208.5 553.0 211.5 581.0 Q 212.5 593.0 212.5 600.0 C 213.5 617.0 213.5 617.0 196.5 629.0 Z" fill="lightgray"></path>
      </clipPath>
      <path clip-path="url(#make-me-a-hanzi-clip-1)" d="M 143.5 641.0 L 172.5 609.0 L 180.5 589.0 L 184.5 541.0 L 187.5 278.0 L 169.5 70.0 L 176.5 -7.0 " fill="none" id="make-me-a-hanzi-animation-1" stroke-dasharray="790 1580" stroke-linecap="round"></path>

      <clipPath id="make-me-a-hanzi-clip-2">
      <path d="M 525.5 557.0 Q 574.5 623.0 601.5 666.0 Q 611.5 688.0 623.5 700.0 Q 630.5 710.0 625.5 723.0 Q 619.5 735.0 591.5 753.0 Q 564.5 766.0 547.5 765.0 Q 529.5 761.0 539.5 742.0 Q 566.5 706.0 471.5 531.0 Q 464.5 521.0 461.5 515.0 Q 460.5 505.0 472.5 508.0 Q 482.5 511.0 504.5 534.0 Q 507.5 538.0 511.5 541.0 L 525.5 557.0 Z" fill="lightgray"></path>
      </clipPath>
      <path clip-path="url(#make-me-a-hanzi-clip-2)" d="M 548.5 752.0 L 572.5 732.0 L 583.5 712.0 L 581.5 705.0 L 525.5 590.0 L 469.5 515.0 " fill="none" id="make-me-a-hanzi-animation-2" stroke-dasharray="411 822" stroke-linecap="round"></path>

      <clipPath id="make-me-a-hanzi-clip-3">
      <path d="M 511.5 541.0 Q 541.5 532.0 611.5 543.0 Q 779.5 571.0 785.5 565.0 Q 806.5 532.0 811.5 313.0 Q 811.5 145.0 772.5 54.0 Q 759.5 15.0 733.5 6.0 Q 723.5 3.0 665.5 24.0 Q 655.5 28.0 655.5 22.0 Q 654.5 18.0 665.5 7.0 Q 704.5 -38.0 721.5 -70.0 Q 730.5 -89.0 742.5 -90.0 Q 766.5 -86.0 787.5 -58.0 Q 820.5 -24.0 840.5 30.0 Q 882.5 144.0 868.5 483.0 Q 867.5 523.0 886.5 552.0 Q 899.5 567.0 897.5 576.0 Q 896.5 583.0 875.5 596.0 Q 847.5 615.0 809.5 624.0 Q 785.5 630.0 715.5 604.0 Q 706.5 603.0 697.5 599.0 Q 604.5 572.0 525.5 557.0 C 496.5 551.0 481.5 545.0 511.5 541.0 Z" fill="lightgray"></path>
      </clipPath>
      <path clip-path="url(#make-me-a-hanzi-clip-3)" d="M 516.5 543.0 L 623.5 559.0 L 781.5 595.0 L 808.5 590.0 L 837.5 563.0 L 840.5 234.0 L 829.5 133.0 L 812.5 59.0 L 785.5 0.0 L 751.5 -34.0 L 711.5 -15.0 L 660.5 21.0 " fill="none" id="make-me-a-hanzi-animation-3" stroke-dasharray="1192 2384" stroke-linecap="round"></path>

      <clipPath id="make-me-a-hanzi-clip-4">
      <path d="M 491.5 422.0 Q 503.5 440.0 515.5 455.0 Q 522.5 465.0 518.5 473.0 Q 514.5 483.0 492.5 484.0 Q 468.5 487.0 460.5 483.0 Q 454.5 480.0 454.5 469.0 Q 457.5 439.0 406.5 361.0 Q 393.5 345.0 412.5 353.0 Q 427.5 356.0 471.5 398.0 L 491.5 422.0 Z" fill="lightgray"></path>
      </clipPath>
      <path clip-path="url(#make-me-a-hanzi-clip-4)" d="M 504.5 467.0 L 481.5 455.0 L 452.5 402.0 L 413.5 360.0 " fill="none" id="make-me-a-hanzi-animation-4" stroke-dasharray="272 544" stroke-linecap="round"></path>

      <clipPath id="make-me-a-hanzi-clip-5">
      <path d="M 552.5 397.0 Q 600.5 410.0 654.5 421.0 Q 679.5 428.0 684.5 431.0 Q 691.5 438.0 687.5 445.0 Q 680.5 454.0 657.5 459.0 Q 633.5 463.0 609.5 453.0 Q 579.5 443.0 547.5 434.0 L 491.5 422.0 C 462.5 416.0 443.5 410.0 471.5 398.0 Q 490.5 389.0 512.5 391.0 L 552.5 397.0 Z" fill="lightgray"></path>
      </clipPath>
      <path clip-path="url(#make-me-a-hanzi-clip-5)" d="M 480.5 401.0 L 631.5 438.0 L 677.5 440.0 " fill="none" id="make-me-a-hanzi-animation-5" stroke-dasharray="330 660" stroke-linecap="round"></path>

      <clipPath id="make-me-a-hanzi-clip-6">
      <path d="M 575.5 295.0 Q 630.5 305.0 711.5 308.0 Q 750.5 308.0 755.5 315.0 Q 759.5 324.0 747.5 332.0 Q 707.5 362.0 654.5 342.0 Q 620.5 336.0 576.5 324.0 L 526.5 314.0 Q 462.5 304.0 388.5 290.0 Q 373.5 287.0 384.5 276.0 Q 394.5 267.0 407.5 265.0 Q 420.5 261.0 432.5 265.0 Q 475.5 280.0 526.5 287.0 L 575.5 295.0 Z" fill="lightgray"></path>
      </clipPath>
      <path clip-path="url(#make-me-a-hanzi-clip-6)" d="M 395.5 280.0 L 423.5 279.0 L 683.5 328.0 L 707.5 329.0 L 748.5 319.0 " fill="none" id="make-me-a-hanzi-animation-6" stroke-dasharray="487 974" stroke-linecap="round"></path>

      <clipPath id="make-me-a-hanzi-clip-7">
      <path d="M 568.5 159.0 Q 571.5 234.0 575.5 295.0 L 576.5 324.0 Q 576.5 337.0 578.5 351.0 Q 587.5 375.0 552.5 397.0 C 527.5 414.0 501.5 419.0 512.5 391.0 Q 521.5 373.0 526.5 314.0 L 526.5 287.0 Q 526.5 239.0 528.5 151.0 C 529.5 121.0 567.5 129.0 568.5 159.0 Z" fill="lightgray"></path>
      </clipPath>
      <path clip-path="url(#make-me-a-hanzi-clip-7)" d="M 519.5 389.0 L 550.5 360.0 L 549.5 184.0 L 545.5 171.0 L 533.5 161.0 " fill="none" id="make-me-a-hanzi-animation-7" stroke-dasharray="376 752" stroke-linecap="round"></path>

      <clipPath id="make-me-a-hanzi-clip-8">
      <path d="M 659.5 173.0 Q 610.5 169.0 568.5 159.0 L 528.5 151.0 Q 477.5 141.0 435.5 128.0 Q 425.5 127.0 428.5 139.0 Q 443.5 188.0 437.5 200.0 Q 415.5 236.0 392.5 236.0 Q 383.5 233.0 387.5 217.0 Q 396.5 186.0 387.5 156.0 Q 380.5 128.0 366.5 117.0 Q 350.5 104.0 356.5 92.0 Q 363.5 79.0 377.5 70.0 Q 387.5 63.0 396.5 69.0 Q 423.5 97.0 584.5 132.0 Q 653.5 147.0 672.5 142.0 C 702.5 139.0 689.5 176.0 659.5 173.0 Z" fill="lightgray"></path>
      </clipPath>
      <path clip-path="url(#make-me-a-hanzi-clip-8)" d="M 396.5 226.0 L 415.5 191.0 L 405.5 141.0 L 407.5 113.0 L 437.5 110.0 L 506.5 131.0 L 621.5 155.0 L 646.5 156.0 L 669.5 147.0 " fill="none" id="make-me-a-hanzi-animation-8" stroke-dasharray="516 1032" stroke-linecap="round"></path>

      <clipPath id="make-me-a-hanzi-clip-9">
      <path d="M 672.5 142.0 Q 687.5 102.0 700.5 95.0 Q 707.5 91.0 717.5 100.0 Q 727.5 109.0 732.5 135.0 Q 741.5 174.0 657.5 255.0 Q 647.5 264.0 641.5 264.0 Q 635.5 263.0 631.5 253.0 Q 630.5 247.0 659.5 173.0 L 672.5 142.0 Z" fill="lightgray"></path>
      </clipPath>
      <path clip-path="url(#make-me-a-hanzi-clip-9)" d="M 641.5 254.0 L 698.5 159.0 L 705.5 108.0 " fill="none" id="make-me-a-hanzi-animation-9" stroke-dasharray="290 580" stroke-linecap="round"></path>

      <clipPath id="make-me-a-hanzi-clip-10">
      <path d="M 1351.0 655.5 Q 1468.0 685.5 1473.0 687.5 Q 1480.0 694.5 1477.0 702.5 Q 1470.0 712.5 1444.0 719.5 Q 1423.0 723.5 1312.0 689.5 Q 1257.0 674.5 1170.0 663.5 Q 1136.0 657.5 1161.0 642.5 Q 1188.0 627.5 1222.0 627.5 L 1259.0 634.5 Q 1283.0 640.5 1309.0 645.5 L 1351.0 655.5 Z" fill="lightgray"></path>
      </clipPath>
      <path clip-path="url(#make-me-a-hanzi-clip-10)" d="M 1163.0 654.5 L 1173.0 649.5 L 1224.0 649.5 L 1436.0 699.5 L 1468.0 696.5 " fill="none" id="make-me-a-hanzi-animation-10" stroke-dasharray="440 880" stroke-linecap="round"></path>

      <clipPath id="make-me-a-hanzi-clip-11">
      <path d="M 1170.0 494.5 Q 1169.0 495.5 1168.0 496.5 Q 1149.0 511.5 1126.0 518.5 Q 1119.0 519.5 1113.0 512.5 Q 1110.0 508.5 1116.0 498.5 Q 1155.0 408.5 1131.0 217.5 Q 1127.0 186.5 1117.0 153.5 Q 1111.0 131.5 1115.0 115.5 Q 1122.0 87.5 1133.0 76.5 Q 1143.0 64.5 1151.0 76.5 Q 1160.0 88.5 1165.0 113.5 L 1170.0 142.5 Q 1173.0 167.5 1174.0 307.5 Q 1174.0 430.5 1179.0 467.5 C 1181.0 486.5 1181.0 486.5 1170.0 494.5 Z" fill="lightgray"></path>
      </clipPath>
      <path clip-path="url(#make-me-a-hanzi-clip-11)" d="M 1123.0 507.5 L 1149.0 478.5 L 1155.0 447.5 L 1158.0 295.5 L 1153.0 212.5 L 1140.0 131.5 L 1142.0 80.5 " fill="none" id="make-me-a-hanzi-animation-11" stroke-dasharray="567 1134" stroke-linecap="round"></path>

      <clipPath id="make-me-a-hanzi-clip-12">
      <path d="M 1380.0 131.5 Q 1404.0 100.5 1422.0 71.5 Q 1429.0 56.5 1439.0 57.5 Q 1452.0 58.5 1466.0 86.5 Q 1481.0 117.5 1478.0 158.5 Q 1471.0 258.5 1465.0 447.5 Q 1464.0 474.5 1478.0 493.5 Q 1485.0 503.5 1477.0 513.5 Q 1461.0 529.5 1416.0 549.5 Q 1401.0 555.5 1354.0 534.5 L 1323.0 524.5 Q 1298.0 520.5 1276.0 512.5 L 1241.0 505.5 Q 1195.0 498.5 1170.0 494.5 C 1140.0 489.5 1149.0 465.5 1179.0 467.5 Q 1197.0 466.5 1229.0 474.5 Q 1233.0 475.5 1241.0 476.5 L 1273.0 483.5 Q 1295.0 489.5 1322.0 494.5 L 1352.0 500.5 Q 1388.0 515.5 1407.0 500.5 Q 1417.0 491.5 1422.0 413.5 Q 1422.0 401.5 1423.0 388.5 L 1424.0 360.5 Q 1424.0 300.5 1417.0 160.5 Q 1414.0 151.5 1410.0 149.5 C 1400.0 121.5 1364.0 153.5 1380.0 131.5 Z" fill="lightgray"></path>
      </clipPath>
      <path clip-path="url(#make-me-a-hanzi-clip-12)" d="M 1176.0 489.5 L 1193.0 482.5 L 1205.0 484.5 L 1327.0 509.5 L 1370.0 525.5 L 1403.0 528.5 L 1444.0 498.5 L 1448.0 161.5 L 1437.0 120.5 L 1438.0 71.5 " fill="none" id="make-me-a-hanzi-animation-12" stroke-dasharray="841 1682" stroke-linecap="round"></path>

      <clipPath id="make-me-a-hanzi-clip-13">
      <path d="M 1222.0 627.5 Q 1234.0 615.5 1238.0 573.5 Q 1241.0 539.5 1241.0 505.5 L 1241.0 476.5 Q 1235.0 410.5 1200.0 322.5 Q 1197.0 318.5 1196.0 314.5 Q 1196.0 307.5 1202.0 309.5 Q 1212.0 312.5 1227.0 339.5 Q 1272.0 400.5 1273.0 483.5 L 1276.0 512.5 Q 1277.0 536.5 1277.0 559.5 Q 1274.0 592.5 1277.0 607.5 Q 1281.0 617.5 1276.0 624.5 Q 1269.0 630.5 1259.0 634.5 C 1232.0 647.5 1205.0 652.5 1222.0 627.5 Z" fill="lightgray"></path>
      </clipPath>
      <path clip-path="url(#make-me-a-hanzi-clip-13)" d="M 1229.0 626.5 L 1255.0 610.5 L 1258.0 475.5 L 1240.0 390.5 L 1217.0 335.5 L 1203.0 316.5 " fill="none" id="make-me-a-hanzi-animation-13" stroke-dasharray="464 928" stroke-linecap="round"></path>

      <clipPath id="make-me-a-hanzi-clip-14">
      <path d="M 1354.0 534.5 Q 1357.0 579.5 1371.0 630.5 Q 1374.0 640.5 1367.0 648.5 Q 1361.0 652.5 1351.0 655.5 C 1323.0 666.5 1293.0 671.5 1309.0 645.5 Q 1327.0 627.5 1323.0 524.5 L 1322.0 494.5 Q 1313.0 388.5 1350.0 357.5 Q 1360.0 350.5 1402.0 354.5 Q 1415.0 355.5 1424.0 360.5 C 1452.0 371.5 1453.0 386.5 1423.0 388.5 Q 1419.0 389.5 1416.0 389.5 Q 1380.0 386.5 1372.0 391.5 Q 1348.0 407.5 1352.0 500.5 L 1354.0 534.5 Z" fill="lightgray"></path>
      </clipPath>
      <path clip-path="url(#make-me-a-hanzi-clip-14)" d="M 1316.0 646.5 L 1344.0 627.5 L 1335.0 461.5 L 1344.0 398.5 L 1365.0 372.5 L 1391.0 369.5 L 1418.0 381.5 " fill="none" id="make-me-a-hanzi-animation-14" stroke-dasharray="481 962" stroke-linecap="round"></path>

      <clipPath id="make-me-a-hanzi-clip-15">
      <path d="M 1213.0 253.5 Q 1197.0 250.5 1216.0 236.5 Q 1223.0 230.5 1239.0 232.5 Q 1314.0 244.5 1369.0 250.5 Q 1391.0 254.5 1383.0 266.5 Q 1373.0 279.5 1349.0 284.5 Q 1325.0 287.5 1213.0 253.5 Z" fill="lightgray"></path>
      </clipPath>
      <path clip-path="url(#make-me-a-hanzi-clip-15)" d="M 1214.0 244.5 L 1340.0 266.5 L 1373.0 260.5 " fill="none" id="make-me-a-hanzi-animation-15" stroke-dasharray="289 578" stroke-linecap="round"></path>

      <clipPath id="make-me-a-hanzi-clip-16">
      <path d="M 1165.0 113.5 Q 1166.0 113.5 1168.0 112.5 Q 1178.0 109.5 1190.0 112.5 Q 1251.0 124.5 1380.0 131.5 C 1410.0 133.5 1426.0 134.5 1410.0 149.5 Q 1404.0 156.5 1386.0 169.5 Q 1371.0 178.5 1342.0 172.5 Q 1248.0 151.5 1170.0 142.5 C 1140.0 138.5 1136.0 121.5 1165.0 113.5 Z" fill="lightgray"></path>
      </clipPath>
      <path clip-path="url(#make-me-a-hanzi-clip-16)" d="M 1169.0 120.5 L 1208.0 132.5 L 1321.0 148.5 L 1403.0 150.5 " fill="none" id="make-me-a-hanzi-animation-16" stroke-dasharray="365 730" stroke-linecap="round"></path>

      <clipPath id="make-me-a-hanzi-clip-17">
      <path d="M 1651.0 739.5 Q 1676.0 720.5 1704.0 697.5 Q 1717.0 685.5 1733.0 687.5 Q 1743.0 688.5 1747.0 701.5 Q 1750.0 716.5 1740.0 744.5 Q 1727.0 774.5 1643.0 785.5 Q 1627.0 786.5 1622.0 784.5 Q 1618.0 780.5 1620.0 768.5 Q 1624.0 758.5 1651.0 739.5 Z" fill="lightgray"></path>
      </clipPath>
      <path clip-path="url(#make-me-a-hanzi-clip-17)" d="M 1627.0 778.5 L 1707.0 735.5 L 1730.0 704.5 " fill="none" id="make-me-a-hanzi-animation-17" stroke-dasharray="257 514" stroke-linecap="round"></path>

      <clipPath id="make-me-a-hanzi-clip-18">
      <path d="M 1553.0 623.5 Q 1520.0 617.5 1544.0 602.5 Q 1584.0 584.5 1645.0 597.5 Q 1718.0 615.5 1798.0 632.5 Q 1835.0 642.5 1841.0 647.5 Q 1850.0 654.5 1845.0 662.5 Q 1838.0 672.5 1811.0 679.5 Q 1787.0 683.5 1698.0 652.5 Q 1623.0 633.5 1553.0 623.5 Z" fill="lightgray"></path>
      </clipPath>
      <path clip-path="url(#make-me-a-hanzi-clip-18)" d="M 1546.0 614.5 L 1590.0 610.5 L 1633.0 615.5 L 1782.0 653.5 L 1834.0 657.5 " fill="none" id="make-me-a-hanzi-animation-18" stroke-dasharray="421 842" stroke-linecap="round"></path>

      <clipPath id="make-me-a-hanzi-clip-19">
      <path d="M 1590.0 445.5 Q 1593.0 457.5 1629.0 515.5 Q 1636.0 525.5 1625.0 536.5 Q 1588.0 558.5 1572.0 554.5 Q 1565.0 553.5 1567.0 541.5 Q 1582.0 472.5 1511.0 383.5 Q 1495.0 362.5 1486.0 350.5 Q 1482.0 338.5 1492.0 343.5 Q 1529.0 352.5 1577.0 424.5 L 1590.0 445.5 Z" fill="lightgray"></path>
      </clipPath>
      <path clip-path="url(#make-me-a-hanzi-clip-19)" d="M 1577.0 545.5 L 1598.0 518.5 L 1588.0 485.5 L 1549.0 408.5 L 1494.0 351.5 " fill="none" id="make-me-a-hanzi-animation-19" stroke-dasharray="362 724" stroke-linecap="round"></path>

      <clipPath id="make-me-a-hanzi-clip-20">
      <path d="M 1577.0 424.5 Q 1626.0 375.5 1644.0 374.5 Q 1654.0 374.5 1658.0 387.5 Q 1658.0 397.5 1651.0 412.5 Q 1639.0 427.5 1590.0 445.5 C 1562.0 455.5 1556.0 445.5 1577.0 424.5 Z" fill="lightgray"></path>
      </clipPath>
      <path clip-path="url(#make-me-a-hanzi-clip-20)" d="M 1596.0 434.5 L 1597.0 425.5 L 1629.0 405.5 L 1644.0 388.5 " fill="none" id="make-me-a-hanzi-animation-20" stroke-dasharray="197 394" stroke-linecap="round"></path>

      <clipPath id="make-me-a-hanzi-clip-21">
      <path d="M 1685.0 364.5 Q 1716.0 379.5 1771.0 450.5 L 1782.0 468.5 Q 1789.0 481.5 1797.0 494.5 Q 1815.0 531.5 1832.0 561.5 Q 1839.0 571.5 1826.0 583.5 Q 1790.0 608.5 1769.0 602.5 Q 1760.0 599.5 1763.0 588.5 Q 1778.0 522.5 1705.0 412.5 Q 1695.0 402.5 1674.0 371.5 Q 1673.0 370.5 1672.0 367.5 C 1663.0 351.5 1663.0 351.5 1685.0 364.5 Z" fill="lightgray"></path>
      </clipPath>
      <path clip-path="url(#make-me-a-hanzi-clip-21)" d="M 1776.0 591.5 L 1797.0 564.5 L 1780.0 511.5 L 1740.0 435.5 L 1679.0 366.5 " fill="none" id="make-me-a-hanzi-animation-21" stroke-dasharray="396 792" stroke-linecap="round"></path>

      <clipPath id="make-me-a-hanzi-clip-22">
      <path d="M 1771.0 450.5 Q 1775.0 443.5 1793.0 431.5 Q 1826.0 409.5 1861.0 382.5 Q 1871.0 372.5 1884.0 374.5 Q 1891.0 375.5 1895.0 385.5 Q 1898.0 397.5 1890.0 419.5 Q 1878.0 452.5 1787.0 468.5 Q 1784.0 469.5 1782.0 468.5 C 1758.0 468.5 1758.0 468.5 1771.0 450.5 Z" fill="lightgray"></path>
      </clipPath>
      <path clip-path="url(#make-me-a-hanzi-clip-22)" d="M 1780.0 451.5 L 1792.0 452.5 L 1852.0 422.5 L 1879.0 390.5 " fill="none" id="make-me-a-hanzi-animation-22" stroke-dasharray="249 498" stroke-linecap="round"></path>

      <clipPath id="make-me-a-hanzi-clip-23">
      <path d="M 1718.0 250.5 Q 1790.0 262.5 1902.0 264.5 Q 1951.0 264.5 1958.0 274.5 Q 1962.0 284.5 1947.0 296.5 Q 1893.0 333.5 1834.0 312.5 Q 1786.0 303.5 1719.0 287.5 L 1666.0 278.5 Q 1587.0 265.5 1496.0 249.5 Q 1477.0 246.5 1492.0 232.5 Q 1505.0 220.5 1521.0 216.5 Q 1540.0 212.5 1555.0 216.5 Q 1607.0 232.5 1667.0 241.5 L 1718.0 250.5 Z" fill="lightgray"></path>
      </clipPath>
      <path clip-path="url(#make-me-a-hanzi-clip-23)" d="M 1494.0 241.5 L 1539.0 235.5 L 1861.0 291.5 L 1905.0 290.5 L 1950.0 279.5 " fill="none" id="make-me-a-hanzi-animation-23" stroke-dasharray="591 1182" stroke-linecap="round"></path>

      <clipPath id="make-me-a-hanzi-clip-24">
      <path d="M 1670.0 -73.5 Q 1674.0 -95.5 1681.0 -104.5 Q 1685.0 -110.5 1693.0 -108.5 Q 1720.0 -87.5 1716.0 54.5 Q 1715.0 96.5 1718.0 250.5 L 1719.0 287.5 Q 1722.0 299.5 1726.0 322.5 Q 1729.0 338.5 1717.0 346.5 Q 1698.0 359.5 1685.0 364.5 L 1672.0 367.5 Q 1662.0 371.5 1650.0 364.5 Q 1643.0 357.5 1648.0 347.5 Q 1666.0 323.5 1666.0 278.5 L 1667.0 241.5 Q 1667.0 -52.5 1670.0 -73.5 Z" fill="lightgray"></path>
      </clipPath>
      <path clip-path="url(#make-me-a-hanzi-clip-24)" d="M 1659.0 354.5 L 1674.0 346.5 L 1694.0 321.5 L 1689.0 -100.5 " fill="none" id="make-me-a-hanzi-animation-24" stroke-dasharray="599 1198" stroke-linecap="round"></path>

</g>
</svg>
