<svg version="1.1" viewBox="0 0 2048 1024" xmlns="http://www.w3.org/2000/svg">
  <g stroke="lightgray" stroke-dasharray="1,1" stroke-width="1" transform="scale(4, 4)">
    <line x1="0" y1="0" x2="256" y2="256"></line>
    <line x1="256" y1="0" x2="0" y2="256"></line>
    <line x1="128" y1="0" x2="128" y2="256"></line>
    <line x1="0" y1="128" x2="256" y2="128"></line>
    <line x1="256" y1="0" x2="512" y2="256"></line>
    <line x1="512" y1="0" x2="256" y2="256"></line>
    <line x1="384" y1="0" x2="384" y2="256"></line>
    <line x1="256" y1="128" x2="512" y2="128"></line>
  </g>
<g transform="scale(1, -1) translate(0, -850)">
   <style type="text/css">
    @keyframes keyframes0 {
      from {
       stroke: black;
       stroke-dashoffset: 800;
       stroke-width: 128;
       }
       72% {
       animation-timing-function: step-end;
       stroke: black;
       stroke-dashoffset: 0;
       stroke-width: 128;
       }
       to {
       stroke: black;
       stroke-width: 1024;
       }
       }
       #make-me-a-hanzi-animation-0 {
         animation: keyframes0 0.901042s both;
         animation-delay: 0.000000s;
         animation-timing-function: linear;
       }
    @keyframes keyframes1 {
      from {
       stroke: black;
       stroke-dashoffset: 631;
       stroke-width: 128;
       }
       67% {
       animation-timing-function: step-end;
       stroke: black;
       stroke-dashoffset: 0;
       stroke-width: 128;
       }
       to {
       stroke: black;
       stroke-width: 1024;
       }
       }
       #make-me-a-hanzi-animation-1 {
         animation: keyframes1 0.763509s both;
         animation-delay: 0.901042s;
         animation-timing-function: linear;
       }
    @keyframes keyframes2 {
      from {
       stroke: black;
       stroke-dashoffset: 949;
       stroke-width: 128;
       }
       76% {
       animation-timing-function: step-end;
       stroke: black;
       stroke-dashoffset: 0;
       stroke-width: 128;
       }
       to {
       stroke: black;
       stroke-width: 1024;
       }
       }
       #make-me-a-hanzi-animation-2 {
         animation: keyframes2 1.022298s both;
         animation-delay: 1.664551s;
         animation-timing-function: linear;
       }
    @keyframes keyframes3 {
      from {
       stroke: black;
       stroke-dashoffset: 632;
       stroke-width: 128;
       }
       67% {
       animation-timing-function: step-end;
       stroke: black;
       stroke-dashoffset: 0;
       stroke-width: 128;
       }
       to {
       stroke: black;
       stroke-width: 1024;
       }
       }
       #make-me-a-hanzi-animation-3 {
         animation: keyframes3 0.764323s both;
         animation-delay: 2.686849s;
         animation-timing-function: linear;
       }
    @keyframes keyframes4 {
      from {
       stroke: black;
       stroke-dashoffset: 391;
       stroke-width: 128;
       }
       56% {
       animation-timing-function: step-end;
       stroke: black;
       stroke-dashoffset: 0;
       stroke-width: 128;
       }
       to {
       stroke: black;
       stroke-width: 1024;
       }
       }
       #make-me-a-hanzi-animation-4 {
         animation: keyframes4 0.568197s both;
         animation-delay: 3.451172s;
         animation-timing-function: linear;
       }
    @keyframes keyframes5 {
      from {
       stroke: black;
       stroke-dashoffset: 639;
       stroke-width: 128;
       }
       68% {
       animation-timing-function: step-end;
       stroke: black;
       stroke-dashoffset: 0;
       stroke-width: 128;
       }
       to {
       stroke: black;
       stroke-width: 1024;
       }
       }
       #make-me-a-hanzi-animation-5 {
         animation: keyframes5 0.770020s both;
         animation-delay: 4.019368s;
         animation-timing-function: linear;
       }
    @keyframes keyframes6 {
      from {
       stroke: black;
       stroke-dashoffset: 865;
       stroke-width: 128;
       }
       74% {
       animation-timing-function: step-end;
       stroke: black;
       stroke-dashoffset: 0;
       stroke-width: 128;
       }
       to {
       stroke: black;
       stroke-width: 1024;
       }
       }
       #make-me-a-hanzi-animation-6 {
         animation: keyframes6 0.953939s both;
         animation-delay: 4.789388s;
         animation-timing-function: linear;
       }
    @keyframes keyframes7 {
      from {
       stroke: black;
       stroke-dashoffset: 879;
       stroke-width: 128;
       }
       74% {
       animation-timing-function: step-end;
       stroke: black;
       stroke-dashoffset: 0;
       stroke-width: 128;
       }
       to {
       stroke: black;
       stroke-width: 1024;
       }
       }
       #make-me-a-hanzi-animation-7 {
         animation: keyframes7 0.965332s both;
         animation-delay: 5.743327s;
         animation-timing-function: linear;
       }
    @keyframes keyframes8 {
      from {
       stroke: black;
       stroke-dashoffset: 479;
       stroke-width: 128;
       }
       61% {
       animation-timing-function: step-end;
       stroke: black;
       stroke-dashoffset: 0;
       stroke-width: 128;
       }
       to {
       stroke: black;
       stroke-width: 1024;
       }
       }
       #make-me-a-hanzi-animation-8 {
         animation: keyframes8 0.639811s both;
         animation-delay: 6.708659s;
         animation-timing-function: linear;
       }
    @keyframes keyframes9 {
      from {
       stroke: black;
       stroke-dashoffset: 564;
       stroke-width: 128;
       }
       65% {
       animation-timing-function: step-end;
       stroke: black;
       stroke-dashoffset: 0;
       stroke-width: 128;
       }
       to {
       stroke: black;
       stroke-width: 1024;
       }
       }
       #make-me-a-hanzi-animation-9 {
         animation: keyframes9 0.708984s both;
         animation-delay: 7.348470s;
         animation-timing-function: linear;
       }
    @keyframes keyframes10 {
      from {
       stroke: black;
       stroke-dashoffset: 740;
       stroke-width: 128;
       }
       71% {
       animation-timing-function: step-end;
       stroke: black;
       stroke-dashoffset: 0;
       stroke-width: 128;
       }
       to {
       stroke: black;
       stroke-width: 1024;
       }
       }
       #make-me-a-hanzi-animation-10 {
         animation: keyframes10 0.852214s both;
         animation-delay: 8.057454s;
         animation-timing-function: linear;
       }
    @keyframes keyframes11 {
      from {
       stroke: black;
       stroke-dashoffset: 915;
       stroke-width: 128;
       }
       75% {
       animation-timing-function: step-end;
       stroke: black;
       stroke-dashoffset: 0;
       stroke-width: 128;
       }
       to {
       stroke: black;
       stroke-width: 1024;
       }
       }
       #make-me-a-hanzi-animation-11 {
         animation: keyframes11 0.994629s both;
         animation-delay: 8.909668s;
         animation-timing-function: linear;
       }
    @keyframes keyframes12 {
      from {
       stroke: black;
       stroke-dashoffset: 706;
       stroke-width: 128;
       }
       70% {
       animation-timing-function: step-end;
       stroke: black;
       stroke-dashoffset: 0;
       stroke-width: 128;
       }
       to {
       stroke: black;
       stroke-width: 1024;
       }
       }
       #make-me-a-hanzi-animation-12 {
         animation: keyframes12 0.824544s both;
         animation-delay: 9.904297s;
         animation-timing-function: linear;
       }
    @keyframes keyframes13 {
      from {
       stroke: black;
       stroke-dashoffset: 387;
       stroke-width: 128;
       }
       56% {
       animation-timing-function: step-end;
       stroke: black;
       stroke-dashoffset: 0;
       stroke-width: 128;
       }
       to {
       stroke: black;
       stroke-width: 1024;
       }
       }
       #make-me-a-hanzi-animation-13 {
         animation: keyframes13 0.564941s both;
         animation-delay: 10.728841s;
         animation-timing-function: linear;
       }
    @keyframes keyframes14 {
      from {
       stroke: black;
       stroke-dashoffset: 589;
       stroke-width: 128;
       }
       66% {
       animation-timing-function: step-end;
       stroke: black;
       stroke-dashoffset: 0;
       stroke-width: 128;
       }
       to {
       stroke: black;
       stroke-width: 1024;
       }
       }
       #make-me-a-hanzi-animation-14 {
         animation: keyframes14 0.729329s both;
         animation-delay: 11.293783s;
         animation-timing-function: linear;
       }
    @keyframes keyframes15 {
      from {
       stroke: black;
       stroke-dashoffset: 1158;
       stroke-width: 128;
       }
       79% {
       animation-timing-function: step-end;
       stroke: black;
       stroke-dashoffset: 0;
       stroke-width: 128;
       }
       to {
       stroke: black;
       stroke-width: 1024;
       }
       }
       #make-me-a-hanzi-animation-15 {
         animation: keyframes15 1.192383s both;
         animation-delay: 12.023112s;
         animation-timing-function: linear;
       }
</style>
<path d="M 133 596 Q 179 539 142 318 Q 139 303 135 286 Q 114 205 64 110 Q 60 104 59 98 Q 58 88 66 91 Q 78 92 107 135 Q 204 258 205 497 Q 205 518 210 564 Q 217 577 209 588 Q 193 601 165 612 Q 147 621 137 615 Q 127 608 133 596 Z" fill="lightgray"></path> 
<path d="M 267 584 Q 300 502 269 301 Q 251 270 285 220 Q 292 211 301 220 Q 319 248 320 340 Q 320 505 328 558 Q 334 577 317 586 Q 304 595 289 603 Q 279 607 271 602 Q 264 596 267 584 Z" fill="lightgray"></path> 
<path d="M 382 142 Q 373 106 395 53 Q 401 38 408 35 Q 414 29 420 36 Q 427 40 436 59 Q 443 81 443 108 Q 442 150 445 532 Q 445 611 459 664 Q 466 677 464 689 Q 458 698 409 727 Q 388 742 370 728 Q 366 724 372 710 Q 399 671 400 631 Q 401 573 403 506 Q 402 391 401 263 Q 397 200 382 142 Z" fill="lightgray"></path> 
<path d="M 677 666 Q 752 684 877 696 Q 887 695 897 708 Q 898 720 875 730 Q 845 751 763 727 Q 739 723 716 716 Q 644 701 520 687 Q 492 683 514 666 Q 544 639 578 648 Q 602 654 633 658 L 677 666 Z" fill="lightgray"></path> 
<path d="M 624 538 Q 687 617 703 630 Q 718 643 705 653 Q 695 662 677 666 C 648 673 628 678 633 658 Q 642 640 601 535 C 590 507 605 515 624 538 Z" fill="lightgray"></path> 
<path d="M 570 532 Q 569 535 564 536 Q 557 543 544 547 Q 535 551 525 548 Q 519 544 524 532 Q 525 525 529 518 Q 538 503 538 310 Q 535 283 528 250 Q 515 201 547 163 Q 557 151 566 162 Q 579 181 580 251 Q 583 477 585 493 Q 586 500 586 505 C 587 519 587 519 570 532 Z" fill="lightgray"></path> 
<path d="M 772 219 Q 765 198 777 178 Q 790 151 798 152 Q 811 153 826 183 Q 839 207 838 226 Q 810 455 850 512 Q 868 539 782 578 Q 767 584 745 576 Q 736 573 624 538 L 601 535 Q 585 534 570 532 C 540 529 556 501 586 505 Q 598 505 677 522 Q 749 540 765 529 Q 775 505 780 443 Q 781 256 772 219 Z" fill="lightgray"></path> 
<path d="M 658 393 Q 667 137 581 49 Q 575 43 569 37 Q 539 7 472 -32 Q 460 -36 458 -41 Q 454 -45 468 -48 Q 535 -48 627 33 Q 639 46 648 60 Q 702 138 706 310 Q 709 389 720 422 Q 724 432 717 439 Q 669 478 634 468 Q 616 461 631 445 Q 656 420 658 393 Z" fill="lightgray"></path> 
<path d="M 717 89 Q 775 37 844 -37 Q 859 -56 873 -60 Q 882 -61 889 -51 Q 901 -39 888 3 Q 875 60 717 118 Q 710 122 707 111 Q 706 98 717 89 Z" fill="lightgray"></path> 
<path d="M 1433 526 L 1506 554 Q 1511 554 1521 558 L 1532 563 L 1554 570 Q 1570 574 1559 594 Q 1552 602 1533 618 L 1504 636 Q 1492 640 1489 640 L 1481 636 L 1455 612 Q 1442 599 1408 572 Q 1373 548 1346 532 L 1297 505 L 1268 492 Q 1258 488 1261 481 Q 1264 473 1276 476 L 1290 478 Q 1339 489 1364 499 L 1401 512 L 1433 526 Z" fill="lightgray"></path> 
<path d="M 1468 336 L 1596 353 Q 1613 355 1619 358 Q 1626 359 1628 366 Q 1628 370 1616 383 Q 1598 403 1539 390 L 1471 379 L 1419 367 L 1194 334 L 1155 330 Q 1139 328 1138 325 Q 1134 311 1157 299 L 1178 288 Q 1195 277 1203 278 L 1396 324 L 1468 336 Z" fill="lightgray"></path> 
<path d="M 1462 268 L 1462 272 Q 1466 276 1468 336 L 1471 379 L 1474 424 Q 1476 443 1483 460 Q 1489 476 1488 483 Q 1486 490 1477 500 Q 1468 509 1457 513 L 1433 526 C 1407 540 1392 541 1401 512 L 1410 484 Q 1411 482 1419 367 L 1415 250 L 1404 78 Q 1400 21 1391 -13 Q 1382 -48 1381 -62 Q 1380 -94 1405 -137 Q 1414 -151 1427 -136 Q 1433 -129 1442 -106 Q 1450 -83 1451 -76 Q 1451 -56 1450 -37 Q 1448 -19 1453 65 L 1459 228 L 1462 268 Z" fill="lightgray"></path> 
<path d="M 1396 324 L 1384 295 Q 1377 278 1339 221 Q 1300 163 1268 125 Q 1235 86 1191 48 L 1126 -4 Q 1116 -12 1121 -15 Q 1125 -19 1136 -14 L 1158 -4 Q 1185 8 1206 21 Q 1226 34 1272 69 Q 1299 92 1326 128 Q 1366 176 1378 194 L 1415 250 C 1475 341 1408 352 1396 324 Z" fill="lightgray"></path> 
<path d="M 1459 228 L 1503 174 Q 1505 173 1508 170 L 1520 160 Q 1543 138 1555 141 Q 1567 143 1569 146 Q 1592 170 1565 220 Q 1555 228 1534 242 Q 1513 258 1491 260 Q 1469 262 1466 265 Q 1463 268 1462 268 C 1438 286 1440 251 1459 228 Z" fill="lightgray"></path> 
<path d="M 1704 194 Q 1701 175 1704 170 L 1712 150 Q 1718 136 1729 125 Q 1730 122 1739 128 Q 1748 136 1749 140 Q 1750 144 1755 154 Q 1760 163 1760 179 L 1762 386 Q 1762 406 1768 421 Q 1773 436 1771 440 Q 1766 453 1745 460 L 1724 468 Q 1707 474 1702 471 Q 1691 464 1694 456 L 1704 425 Q 1709 407 1709 386 L 1709 258 Q 1709 239 1708 234 L 1707 222 Q 1707 197 1704 194 Z" fill="lightgray"></path> 
<path d="M 1787 -45 L 1777 -41 Q 1766 -38 1762 -42 Q 1761 -45 1764 -50 L 1777 -64 Q 1780 -68 1801 -89 L 1849 -140 Q 1864 -160 1871 -164 Q 1887 -182 1904 -166 Q 1913 -160 1917 -146 L 1928 -122 Q 1933 -97 1933 -80 L 1929 -18 Q 1926 24 1926 46 L 1926 458 L 1930 519 Q 1931 552 1933 560 Q 1935 568 1943 583 Q 1950 597 1949 606 Q 1947 614 1935 626 Q 1923 638 1902 645 Q 1860 665 1839 662 Q 1829 658 1827 652 Q 1825 643 1829 638 L 1839 620 Q 1846 607 1852 580 L 1863 530 Q 1865 522 1865 488 L 1868 65 Q 1871 -45 1859 -55 Q 1846 -65 1809 -50 L 1787 -45 Z" fill="lightgray"></path> 
      <clipPath id="make-me-a-hanzi-clip-0">
      <path d="M 133 596 Q 179 539 142 318 Q 139 303 135 286 Q 114 205 64 110 Q 60 104 59 98 Q 58 88 66 91 Q 78 92 107 135 Q 204 258 205 497 Q 205 518 210 564 Q 217 577 209 588 Q 193 601 165 612 Q 147 621 137 615 Q 127 608 133 596 Z" fill="lightgray"></path>
      </clipPath>
      <path clip-path="url(#make-me-a-hanzi-clip-0)" d="M 144 604 L 172 580 L 181 558 L 182 468 L 173 362 L 158 285 L 130 206 L 92 132 L 67 99 " fill="none" id="make-me-a-hanzi-animation-0" stroke-dasharray="672 1344" stroke-linecap="round"></path>

      <clipPath id="make-me-a-hanzi-clip-1">
      <path d="M 267 584 Q 300 502 269 301 Q 251 270 285 220 Q 292 211 301 220 Q 319 248 320 340 Q 320 505 328 558 Q 334 577 317 586 Q 304 595 289 603 Q 279 607 271 602 Q 264 596 267 584 Z" fill="lightgray"></path>
      </clipPath>
      <path clip-path="url(#make-me-a-hanzi-clip-1)" d="M 279 592 L 301 564 L 303 537 L 303 435 L 289 265 L 293 225 " fill="none" id="make-me-a-hanzi-animation-1" stroke-dasharray="503 1006" stroke-linecap="round"></path>

      <clipPath id="make-me-a-hanzi-clip-2">
      <path d="M 382 142 Q 373 106 395 53 Q 401 38 408 35 Q 414 29 420 36 Q 427 40 436 59 Q 443 81 443 108 Q 442 150 445 532 Q 445 611 459 664 Q 466 677 464 689 Q 458 698 409 727 Q 388 742 370 728 Q 366 724 372 710 Q 399 671 400 631 Q 401 573 403 506 Q 402 391 401 263 Q 397 200 382 142 Z" fill="lightgray"></path>
      </clipPath>
      <path clip-path="url(#make-me-a-hanzi-clip-2)" d="M 381 722 L 406 702 L 427 665 L 423 269 L 411 131 L 413 47 " fill="none" id="make-me-a-hanzi-animation-2" stroke-dasharray="821 1642" stroke-linecap="round"></path>

      <clipPath id="make-me-a-hanzi-clip-3">
      <path d="M 677 666 Q 752 684 877 696 Q 887 695 897 708 Q 898 720 875 730 Q 845 751 763 727 Q 739 723 716 716 Q 644 701 520 687 Q 492 683 514 666 Q 544 639 578 648 Q 602 654 633 658 L 677 666 Z" fill="lightgray"></path>
      </clipPath>
      <path clip-path="url(#make-me-a-hanzi-clip-3)" d="M 515 677 L 559 668 L 826 715 L 886 710 " fill="none" id="make-me-a-hanzi-animation-3" stroke-dasharray="504 1008" stroke-linecap="round"></path>

      <clipPath id="make-me-a-hanzi-clip-4">
      <path d="M 624 538 Q 687 617 703 630 Q 718 643 705 653 Q 695 662 677 666 C 648 673 628 678 633 658 Q 642 640 601 535 C 590 507 605 515 624 538 Z" fill="lightgray"></path>
      </clipPath>
      <path clip-path="url(#make-me-a-hanzi-clip-4)" d="M 698 642 L 663 633 L 635 574 L 626 567 L 624 553 L 617 549 " fill="none" id="make-me-a-hanzi-animation-4" stroke-dasharray="263 526" stroke-linecap="round"></path>

      <clipPath id="make-me-a-hanzi-clip-5">
      <path d="M 570 532 Q 569 535 564 536 Q 557 543 544 547 Q 535 551 525 548 Q 519 544 524 532 Q 525 525 529 518 Q 538 503 538 310 Q 535 283 528 250 Q 515 201 547 163 Q 557 151 566 162 Q 579 181 580 251 Q 583 477 585 493 Q 586 500 586 505 C 587 519 587 519 570 532 Z" fill="lightgray"></path>
      </clipPath>
      <path clip-path="url(#make-me-a-hanzi-clip-5)" d="M 531 541 L 548 524 L 559 500 L 561 317 L 551 215 L 557 168 " fill="none" id="make-me-a-hanzi-animation-5" stroke-dasharray="511 1022" stroke-linecap="round"></path>

      <clipPath id="make-me-a-hanzi-clip-6">
      <path d="M 772 219 Q 765 198 777 178 Q 790 151 798 152 Q 811 153 826 183 Q 839 207 838 226 Q 810 455 850 512 Q 868 539 782 578 Q 767 584 745 576 Q 736 573 624 538 L 601 535 Q 585 534 570 532 C 540 529 556 501 586 505 Q 598 505 677 522 Q 749 540 765 529 Q 775 505 780 443 Q 781 256 772 219 Z" fill="lightgray"></path>
      </clipPath>
      <path clip-path="url(#make-me-a-hanzi-clip-6)" d="M 578 528 L 594 521 L 621 523 L 766 556 L 784 550 L 809 518 L 803 431 L 806 222 L 799 162 " fill="none" id="make-me-a-hanzi-animation-6" stroke-dasharray="737 1474" stroke-linecap="round"></path>

      <clipPath id="make-me-a-hanzi-clip-7">
      <path d="M 658 393 Q 667 137 581 49 Q 575 43 569 37 Q 539 7 472 -32 Q 460 -36 458 -41 Q 454 -45 468 -48 Q 535 -48 627 33 Q 639 46 648 60 Q 702 138 706 310 Q 709 389 720 422 Q 724 432 717 439 Q 669 478 634 468 Q 616 461 631 445 Q 656 420 658 393 Z" fill="lightgray"></path>
      </clipPath>
      <path clip-path="url(#make-me-a-hanzi-clip-7)" d="M 636 456 L 669 439 L 686 415 L 679 245 L 655 128 L 637 86 L 606 42 L 540 -10 L 464 -43 " fill="none" id="make-me-a-hanzi-animation-7" stroke-dasharray="751 1502" stroke-linecap="round"></path>

      <clipPath id="make-me-a-hanzi-clip-8">
      <path d="M 717 89 Q 775 37 844 -37 Q 859 -56 873 -60 Q 882 -61 889 -51 Q 901 -39 888 3 Q 875 60 717 118 Q 710 122 707 111 Q 706 98 717 89 Z" fill="lightgray"></path>
      </clipPath>
      <path clip-path="url(#make-me-a-hanzi-clip-8)" d="M 718 107 L 831 25 L 854 1 L 874 -45 " fill="none" id="make-me-a-hanzi-animation-8" stroke-dasharray="351 702" stroke-linecap="round"></path>

      <clipPath id="make-me-a-hanzi-clip-9">
      <path d="M 1433 526 L 1506 554 Q 1511 554 1521 558 L 1532 563 L 1554 570 Q 1570 574 1559 594 Q 1552 602 1533 618 L 1504 636 Q 1492 640 1489 640 L 1481 636 L 1455 612 Q 1442 599 1408 572 Q 1373 548 1346 532 L 1297 505 L 1268 492 Q 1258 488 1261 481 Q 1264 473 1276 476 L 1290 478 Q 1339 489 1364 499 L 1401 512 L 1433 526 Z" fill="lightgray"></path>
      </clipPath>
      <path clip-path="url(#make-me-a-hanzi-clip-9)" d="M 1551 583 L 1495 593 L 1387 531 L 1270 483 " fill="none" id="make-me-a-hanzi-animation-9" stroke-dasharray="436 872" stroke-linecap="round"></path>

      <clipPath id="make-me-a-hanzi-clip-10">
      <path d="M 1468 336 L 1596 353 Q 1613 355 1619 358 Q 1626 359 1628 366 Q 1628 370 1616 383 Q 1598 403 1539 390 L 1471 379 L 1419 367 L 1194 334 L 1155 330 Q 1139 328 1138 325 Q 1134 311 1157 299 L 1178 288 Q 1195 277 1203 278 L 1396 324 L 1468 336 Z" fill="lightgray"></path>
      </clipPath>
      <path clip-path="url(#make-me-a-hanzi-clip-10)" d="M 1144 321 L 1203 307 L 1554 371 L 1595 373 L 1620 366 " fill="none" id="make-me-a-hanzi-animation-10" stroke-dasharray="612 1224" stroke-linecap="round"></path>

      <clipPath id="make-me-a-hanzi-clip-11">
      <path d="M 1462 268 L 1462 272 Q 1466 276 1468 336 L 1471 379 L 1474 424 Q 1476 443 1483 460 Q 1489 476 1488 483 Q 1486 490 1477 500 Q 1468 509 1457 513 L 1433 526 C 1407 540 1392 541 1401 512 L 1410 484 Q 1411 482 1419 367 L 1415 250 L 1404 78 Q 1400 21 1391 -13 Q 1382 -48 1381 -62 Q 1380 -94 1405 -137 Q 1414 -151 1427 -136 Q 1433 -129 1442 -106 Q 1450 -83 1451 -76 Q 1451 -56 1450 -37 Q 1448 -19 1453 65 L 1459 228 L 1462 268 Z" fill="lightgray"></path>
      </clipPath>
      <path clip-path="url(#make-me-a-hanzi-clip-11)" d="M 1410 507 L 1438 492 L 1448 474 L 1416 -132 " fill="none" id="make-me-a-hanzi-animation-11" stroke-dasharray="787 1574" stroke-linecap="round"></path>

      <clipPath id="make-me-a-hanzi-clip-12">
      <path d="M 1396 324 L 1384 295 Q 1377 278 1339 221 Q 1300 163 1268 125 Q 1235 86 1191 48 L 1126 -4 Q 1116 -12 1121 -15 Q 1125 -19 1136 -14 L 1158 -4 Q 1185 8 1206 21 Q 1226 34 1272 69 Q 1299 92 1326 128 Q 1366 176 1378 194 L 1415 250 C 1475 341 1408 352 1396 324 Z" fill="lightgray"></path>
      </clipPath>
      <path clip-path="url(#make-me-a-hanzi-clip-12)" d="M 1413 320 L 1403 312 L 1392 257 L 1284 109 L 1218 49 L 1128 -12 " fill="none" id="make-me-a-hanzi-animation-12" stroke-dasharray="578 1156" stroke-linecap="round"></path>

      <clipPath id="make-me-a-hanzi-clip-13">
      <path d="M 1459 228 L 1503 174 Q 1505 173 1508 170 L 1520 160 Q 1543 138 1555 141 Q 1567 143 1569 146 Q 1592 170 1565 220 Q 1555 228 1534 242 Q 1513 258 1491 260 Q 1469 262 1466 265 Q 1463 268 1462 268 C 1438 286 1440 251 1459 228 Z" fill="lightgray"></path>
      </clipPath>
      <path clip-path="url(#make-me-a-hanzi-clip-13)" d="M 1468 258 L 1484 236 L 1531 200 L 1555 163 " fill="none" id="make-me-a-hanzi-animation-13" stroke-dasharray="259 518" stroke-linecap="round"></path>

      <clipPath id="make-me-a-hanzi-clip-14">
      <path d="M 1704 194 Q 1701 175 1704 170 L 1712 150 Q 1718 136 1729 125 Q 1730 122 1739 128 Q 1748 136 1749 140 Q 1750 144 1755 154 Q 1760 163 1760 179 L 1762 386 Q 1762 406 1768 421 Q 1773 436 1771 440 Q 1766 453 1745 460 L 1724 468 Q 1707 474 1702 471 Q 1691 464 1694 456 L 1704 425 Q 1709 407 1709 386 L 1709 258 Q 1709 239 1708 234 L 1707 222 Q 1707 197 1704 194 Z" fill="lightgray"></path>
      </clipPath>
      <path clip-path="url(#make-me-a-hanzi-clip-14)" d="M 1706 459 L 1736 425 L 1731 137 " fill="none" id="make-me-a-hanzi-animation-14" stroke-dasharray="461 922" stroke-linecap="round"></path>

      <clipPath id="make-me-a-hanzi-clip-15">
      <path d="M 1787 -45 L 1777 -41 Q 1766 -38 1762 -42 Q 1761 -45 1764 -50 L 1777 -64 Q 1780 -68 1801 -89 L 1849 -140 Q 1864 -160 1871 -164 Q 1887 -182 1904 -166 Q 1913 -160 1917 -146 L 1928 -122 Q 1933 -97 1933 -80 L 1929 -18 Q 1926 24 1926 46 L 1926 458 L 1930 519 Q 1931 552 1933 560 Q 1935 568 1943 583 Q 1950 597 1949 606 Q 1947 614 1935 626 Q 1923 638 1902 645 Q 1860 665 1839 662 Q 1829 658 1827 652 Q 1825 643 1829 638 L 1839 620 Q 1846 607 1852 580 L 1863 530 Q 1865 522 1865 488 L 1868 65 Q 1871 -45 1859 -55 Q 1846 -65 1809 -50 L 1787 -45 Z" fill="lightgray"></path>
      </clipPath>
      <path clip-path="url(#make-me-a-hanzi-clip-15)" d="M 1841 647 L 1869 627 L 1897 596 L 1897 -59 L 1881 -101 L 1835 -86 L 1770 -44 " fill="none" id="make-me-a-hanzi-animation-15" stroke-dasharray="1030 2060" stroke-linecap="round"></path>

</g>
</svg>
