<svg version="1.1" viewBox="0 0 2048 1024" xmlns="http://www.w3.org/2000/svg">
  <g stroke="lightgray" stroke-dasharray="1,1" stroke-width="1" transform="scale(4, 4)">
    <line x1="0" y1="0" x2="256" y2="256"></line>
    <line x1="256" y1="0" x2="0" y2="256"></line>
    <line x1="128" y1="0" x2="128" y2="256"></line>
    <line x1="0" y1="128" x2="256" y2="128"></line>
    <line x1="256" y1="0" x2="512" y2="256"></line>
    <line x1="512" y1="0" x2="256" y2="256"></line>
    <line x1="384" y1="0" x2="384" y2="256"></line>
    <line x1="256" y1="128" x2="512" y2="128"></line>
  </g>
<g transform="scale(1, -1) translate(0, -850)">
   <style type="text/css">
    @keyframes keyframes0 {
      from {
       stroke: black;
       stroke-dashoffset: 800;
       stroke-width: 128;
       }
       72% {
       animation-timing-function: step-end;
       stroke: black;
       stroke-dashoffset: 0;
       stroke-width: 128;
       }
       to {
       stroke: black;
       stroke-width: 1024;
       }
       }
       #make-me-a-hanzi-animation-0 {
         animation: keyframes0 0.901042s both;
         animation-delay: 0.000000s;
         animation-timing-function: linear;
       }
    @keyframes keyframes1 {
      from {
       stroke: black;
       stroke-dashoffset: 631;
       stroke-width: 128;
       }
       67% {
       animation-timing-function: step-end;
       stroke: black;
       stroke-dashoffset: 0;
       stroke-width: 128;
       }
       to {
       stroke: black;
       stroke-width: 1024;
       }
       }
       #make-me-a-hanzi-animation-1 {
         animation: keyframes1 0.763509s both;
         animation-delay: 0.901042s;
         animation-timing-function: linear;
       }
    @keyframes keyframes2 {
      from {
       stroke: black;
       stroke-dashoffset: 949;
       stroke-width: 128;
       }
       76% {
       animation-timing-function: step-end;
       stroke: black;
       stroke-dashoffset: 0;
       stroke-width: 128;
       }
       to {
       stroke: black;
       stroke-width: 1024;
       }
       }
       #make-me-a-hanzi-animation-2 {
         animation: keyframes2 1.022298s both;
         animation-delay: 1.664551s;
         animation-timing-function: linear;
       }
    @keyframes keyframes3 {
      from {
       stroke: black;
       stroke-dashoffset: 632;
       stroke-width: 128;
       }
       67% {
       animation-timing-function: step-end;
       stroke: black;
       stroke-dashoffset: 0;
       stroke-width: 128;
       }
       to {
       stroke: black;
       stroke-width: 1024;
       }
       }
       #make-me-a-hanzi-animation-3 {
         animation: keyframes3 0.764323s both;
         animation-delay: 2.686849s;
         animation-timing-function: linear;
       }
    @keyframes keyframes4 {
      from {
       stroke: black;
       stroke-dashoffset: 391;
       stroke-width: 128;
       }
       56% {
       animation-timing-function: step-end;
       stroke: black;
       stroke-dashoffset: 0;
       stroke-width: 128;
       }
       to {
       stroke: black;
       stroke-width: 1024;
       }
       }
       #make-me-a-hanzi-animation-4 {
         animation: keyframes4 0.568197s both;
         animation-delay: 3.451172s;
         animation-timing-function: linear;
       }
    @keyframes keyframes5 {
      from {
       stroke: black;
       stroke-dashoffset: 639;
       stroke-width: 128;
       }
       68% {
       animation-timing-function: step-end;
       stroke: black;
       stroke-dashoffset: 0;
       stroke-width: 128;
       }
       to {
       stroke: black;
       stroke-width: 1024;
       }
       }
       #make-me-a-hanzi-animation-5 {
         animation: keyframes5 0.770020s both;
         animation-delay: 4.019368s;
         animation-timing-function: linear;
       }
    @keyframes keyframes6 {
      from {
       stroke: black;
       stroke-dashoffset: 865;
       stroke-width: 128;
       }
       74% {
       animation-timing-function: step-end;
       stroke: black;
       stroke-dashoffset: 0;
       stroke-width: 128;
       }
       to {
       stroke: black;
       stroke-width: 1024;
       }
       }
       #make-me-a-hanzi-animation-6 {
         animation: keyframes6 0.953939s both;
         animation-delay: 4.789388s;
         animation-timing-function: linear;
       }
    @keyframes keyframes7 {
      from {
       stroke: black;
       stroke-dashoffset: 879;
       stroke-width: 128;
       }
       74% {
       animation-timing-function: step-end;
       stroke: black;
       stroke-dashoffset: 0;
       stroke-width: 128;
       }
       to {
       stroke: black;
       stroke-width: 1024;
       }
       }
       #make-me-a-hanzi-animation-7 {
         animation: keyframes7 0.965332s both;
         animation-delay: 5.743327s;
         animation-timing-function: linear;
       }
    @keyframes keyframes8 {
      from {
       stroke: black;
       stroke-dashoffset: 479;
       stroke-width: 128;
       }
       61% {
       animation-timing-function: step-end;
       stroke: black;
       stroke-dashoffset: 0;
       stroke-width: 128;
       }
       to {
       stroke: black;
       stroke-width: 1024;
       }
       }
       #make-me-a-hanzi-animation-8 {
         animation: keyframes8 0.639811s both;
         animation-delay: 6.708659s;
         animation-timing-function: linear;
       }
    @keyframes keyframes9 {
      from {
       stroke: black;
       stroke-dashoffset: 469;
       stroke-width: 128;
       }
       60% {
       animation-timing-function: step-end;
       stroke: black;
       stroke-dashoffset: 0;
       stroke-width: 128;
       }
       to {
       stroke: black;
       stroke-width: 1024;
       }
       }
       #make-me-a-hanzi-animation-9 {
         animation: keyframes9 0.631673s both;
         animation-delay: 7.348470s;
         animation-timing-function: linear;
       }
    @keyframes keyframes10 {
      from {
       stroke: black;
       stroke-dashoffset: 593;
       stroke-width: 128;
       }
       66% {
       animation-timing-function: step-end;
       stroke: black;
       stroke-dashoffset: 0;
       stroke-width: 128;
       }
       to {
       stroke: black;
       stroke-width: 1024;
       }
       }
       #make-me-a-hanzi-animation-10 {
         animation: keyframes10 0.732585s both;
         animation-delay: 7.980143s;
         animation-timing-function: linear;
       }
    @keyframes keyframes11 {
      from {
       stroke: black;
       stroke-dashoffset: 429;
       stroke-width: 128;
       }
       58% {
       animation-timing-function: step-end;
       stroke: black;
       stroke-dashoffset: 0;
       stroke-width: 128;
       }
       to {
       stroke: black;
       stroke-width: 1024;
       }
       }
       #make-me-a-hanzi-animation-11 {
         animation: keyframes11 0.599121s both;
         animation-delay: 8.712728s;
         animation-timing-function: linear;
       }
    @keyframes keyframes12 {
      from {
       stroke: black;
       stroke-dashoffset: 542;
       stroke-width: 128;
       }
       64% {
       animation-timing-function: step-end;
       stroke: black;
       stroke-dashoffset: 0;
       stroke-width: 128;
       }
       to {
       stroke: black;
       stroke-width: 1024;
       }
       }
       #make-me-a-hanzi-animation-12 {
         animation: keyframes12 0.691081s both;
         animation-delay: 9.311849s;
         animation-timing-function: linear;
       }
    @keyframes keyframes13 {
      from {
       stroke: black;
       stroke-dashoffset: 360;
       stroke-width: 128;
       }
       54% {
       animation-timing-function: step-end;
       stroke: black;
       stroke-dashoffset: 0;
       stroke-width: 128;
       }
       to {
       stroke: black;
       stroke-width: 1024;
       }
       }
       #make-me-a-hanzi-animation-13 {
         animation: keyframes13 0.542969s both;
         animation-delay: 10.002930s;
         animation-timing-function: linear;
       }
    @keyframes keyframes14 {
      from {
       stroke: black;
       stroke-dashoffset: 472;
       stroke-width: 128;
       }
       61% {
       animation-timing-function: step-end;
       stroke: black;
       stroke-dashoffset: 0;
       stroke-width: 128;
       }
       to {
       stroke: black;
       stroke-width: 1024;
       }
       }
       #make-me-a-hanzi-animation-14 {
         animation: keyframes14 0.634115s both;
         animation-delay: 10.545898s;
         animation-timing-function: linear;
       }
    @keyframes keyframes15 {
      from {
       stroke: black;
       stroke-dashoffset: 617;
       stroke-width: 128;
       }
       67% {
       animation-timing-function: step-end;
       stroke: black;
       stroke-dashoffset: 0;
       stroke-width: 128;
       }
       to {
       stroke: black;
       stroke-width: 1024;
       }
       }
       #make-me-a-hanzi-animation-15 {
         animation: keyframes15 0.752116s both;
         animation-delay: 11.180013s;
         animation-timing-function: linear;
       }
    @keyframes keyframes16 {
      from {
       stroke: black;
       stroke-dashoffset: 651;
       stroke-width: 128;
       }
       68% {
       animation-timing-function: step-end;
       stroke: black;
       stroke-dashoffset: 0;
       stroke-width: 128;
       }
       to {
       stroke: black;
       stroke-width: 1024;
       }
       }
       #make-me-a-hanzi-animation-16 {
         animation: keyframes16 0.779785s both;
         animation-delay: 11.932129s;
         animation-timing-function: linear;
       }
    @keyframes keyframes17 {
      from {
       stroke: black;
       stroke-dashoffset: 1023;
       stroke-width: 128;
       }
       77% {
       animation-timing-function: step-end;
       stroke: black;
       stroke-dashoffset: 0;
       stroke-width: 128;
       }
       to {
       stroke: black;
       stroke-width: 1024;
       }
       }
       #make-me-a-hanzi-animation-17 {
         animation: keyframes17 1.082520s both;
         animation-delay: 12.711914s;
         animation-timing-function: linear;
       }
    @keyframes keyframes18 {
      from {
       stroke: black;
       stroke-dashoffset: 841;
       stroke-width: 128;
       }
       73% {
       animation-timing-function: step-end;
       stroke: black;
       stroke-dashoffset: 0;
       stroke-width: 128;
       }
       to {
       stroke: black;
       stroke-width: 1024;
       }
       }
       #make-me-a-hanzi-animation-18 {
         animation: keyframes18 0.934408s both;
         animation-delay: 13.794434s;
         animation-timing-function: linear;
       }
    @keyframes keyframes19 {
      from {
       stroke: black;
       stroke-dashoffset: 508;
       stroke-width: 128;
       }
       62% {
       animation-timing-function: step-end;
       stroke: black;
       stroke-dashoffset: 0;
       stroke-width: 128;
       }
       to {
       stroke: black;
       stroke-width: 1024;
       }
       }
       #make-me-a-hanzi-animation-19 {
         animation: keyframes19 0.663411s both;
         animation-delay: 14.728841s;
         animation-timing-function: linear;
       }
    @keyframes keyframes20 {
      from {
       stroke: black;
       stroke-dashoffset: 662;
       stroke-width: 128;
       }
       68% {
       animation-timing-function: step-end;
       stroke: black;
       stroke-dashoffset: 0;
       stroke-width: 128;
       }
       to {
       stroke: black;
       stroke-width: 1024;
       }
       }
       #make-me-a-hanzi-animation-20 {
         animation: keyframes20 0.788737s both;
         animation-delay: 15.392253s;
         animation-timing-function: linear;
       }
    @keyframes keyframes21 {
      from {
       stroke: black;
       stroke-dashoffset: 497;
       stroke-width: 128;
       }
       62% {
       animation-timing-function: step-end;
       stroke: black;
       stroke-dashoffset: 0;
       stroke-width: 128;
       }
       to {
       stroke: black;
       stroke-width: 1024;
       }
       }
       #make-me-a-hanzi-animation-21 {
         animation: keyframes21 0.654460s both;
         animation-delay: 16.180990s;
         animation-timing-function: linear;
       }
</style>
<path d="M 133 596 Q 179 539 142 318 Q 139 303 135 286 Q 114 205 64 110 Q 60 104 59 98 Q 58 88 66 91 Q 78 92 107 135 Q 204 258 205 497 Q 205 518 210 564 Q 217 577 209 588 Q 193 601 165 612 Q 147 621 137 615 Q 127 608 133 596 Z" fill="lightgray"></path> 
<path d="M 267 584 Q 300 502 269 301 Q 251 270 285 220 Q 292 211 301 220 Q 319 248 320 340 Q 320 505 328 558 Q 334 577 317 586 Q 304 595 289 603 Q 279 607 271 602 Q 264 596 267 584 Z" fill="lightgray"></path> 
<path d="M 382 142 Q 373 106 395 53 Q 401 38 408 35 Q 414 29 420 36 Q 427 40 436 59 Q 443 81 443 108 Q 442 150 445 532 Q 445 611 459 664 Q 466 677 464 689 Q 458 698 409 727 Q 388 742 370 728 Q 366 724 372 710 Q 399 671 400 631 Q 401 573 403 506 Q 402 391 401 263 Q 397 200 382 142 Z" fill="lightgray"></path> 
<path d="M 677 666 Q 752 684 877 696 Q 887 695 897 708 Q 898 720 875 730 Q 845 751 763 727 Q 739 723 716 716 Q 644 701 520 687 Q 492 683 514 666 Q 544 639 578 648 Q 602 654 633 658 L 677 666 Z" fill="lightgray"></path> 
<path d="M 624 538 Q 687 617 703 630 Q 718 643 705 653 Q 695 662 677 666 C 648 673 628 678 633 658 Q 642 640 601 535 C 590 507 605 515 624 538 Z" fill="lightgray"></path> 
<path d="M 570 532 Q 569 535 564 536 Q 557 543 544 547 Q 535 551 525 548 Q 519 544 524 532 Q 525 525 529 518 Q 538 503 538 310 Q 535 283 528 250 Q 515 201 547 163 Q 557 151 566 162 Q 579 181 580 251 Q 583 477 585 493 Q 586 500 586 505 C 587 519 587 519 570 532 Z" fill="lightgray"></path> 
<path d="M 772 219 Q 765 198 777 178 Q 790 151 798 152 Q 811 153 826 183 Q 839 207 838 226 Q 810 455 850 512 Q 868 539 782 578 Q 767 584 745 576 Q 736 573 624 538 L 601 535 Q 585 534 570 532 C 540 529 556 501 586 505 Q 598 505 677 522 Q 749 540 765 529 Q 775 505 780 443 Q 781 256 772 219 Z" fill="lightgray"></path> 
<path d="M 658 393 Q 667 137 581 49 Q 575 43 569 37 Q 539 7 472 -32 Q 460 -36 458 -41 Q 454 -45 468 -48 Q 535 -48 627 33 Q 639 46 648 60 Q 702 138 706 310 Q 709 389 720 422 Q 724 432 717 439 Q 669 478 634 468 Q 616 461 631 445 Q 656 420 658 393 Z" fill="lightgray"></path> 
<path d="M 717 89 Q 775 37 844 -37 Q 859 -56 873 -60 Q 882 -61 889 -51 Q 901 -39 888 3 Q 875 60 717 118 Q 710 122 707 111 Q 706 98 717 89 Z" fill="lightgray"></path> 
<path d="M 1219 652 Q 1207 658 1181 663 Q 1168 667 1165 662 Q 1158 656 1166 640 Q 1191 588 1203 501 Q 1206 476 1220 458 Q 1236 436 1243 451 Q 1246 458 1247 468 L 1247 498 Q 1241 519 1234 624 C 1232 646 1232 646 1219 652 Z" fill="lightgray"></path> 
<path d="M 1409 525 Q 1431 604 1456 625 Q 1481 650 1457 667 Q 1396 706 1387 704 Q 1378 704 1371 699 Q 1325 671 1219 652 C 1189 647 1206 614 1234 624 Q 1235 627 1339 648 Q 1370 655 1377 642 Q 1384 636 1375 605 Q 1366 569 1354 526 C 1346 497 1401 496 1409 525 Z" fill="lightgray"></path> 
<path d="M 1321 483 Q 1358 492 1419 499 Q 1428 500 1429 508 Q 1429 514 1409 525 C 1391 536 1383 534 1354 526 Q 1293 510 1247 498 C 1218 490 1217 469 1247 468 Q 1253 467 1261 469 Q 1268 472 1279 474 L 1321 483 Z" fill="lightgray"></path> 
<path d="M 1335 211 Q 1338 284 1342 344 L 1344 378 Q 1345 394 1346 410 Q 1350 456 1346 462 Q 1333 475 1321 483 C 1297 501 1273 503 1279 474 Q 1288 434 1291 356 Q 1291 299 1291 194 C 1291 164 1334 181 1335 211 Z" fill="lightgray"></path> 
<path d="M 1342 344 L 1440 359 Q 1464 366 1454 378 Q 1441 393 1414 395 Q 1390 395 1344 378 C 1316 368 1312 339 1342 344 Z" fill="lightgray"></path> 
<path d="M 1223 170 Q 1214 279 1219 315 Q 1220 337 1207 347 Q 1185 363 1158 372 Q 1145 376 1136 370 Q 1129 364 1136 349 Q 1152 324 1161 295 Q 1167 267 1184 157 C 1189 127 1225 140 1223 170 Z" fill="lightgray"></path> 
<path d="M 1184 157 Q 1115 136 1095 135 Q 1082 134 1080 122 Q 1079 109 1089 100 Q 1114 85 1149 68 Q 1159 65 1172 75 Q 1202 102 1376 193 Q 1400 206 1417 221 Q 1430 228 1430 239 Q 1420 246 1335 211 L 1291 194 Q 1257 184 1223 170 L 1184 157 Z" fill="lightgray"></path> 
<path d="M 1599 612 Q 1648 708 1659 718 Q 1666 730 1661 742 Q 1657 754 1626 773 Q 1599 788 1581 785 Q 1563 782 1573 762 Q 1586 740 1580 720 Q 1562 653 1531 588 Q 1500 527 1455 456 Q 1448 446 1445 439 Q 1444 429 1456 432 Q 1469 436 1518 492 L 1531 510 Q 1549 534 1587 593 L 1599 612 Z" fill="lightgray"></path> 
<path d="M 1466 180 Q 1566 261 1650 369 L 1675 404 Q 1718 465 1762 535 Q 1781 563 1816 594 Q 1831 606 1825 615 Q 1824 625 1760 647 Q 1747 654 1702 635 Q 1621 616 1599 612 C 1570 606 1561 604 1587 593 Q 1615 572 1678 592 Q 1703 598 1711 588 Q 1718 570 1637 436 L 1617 405 Q 1512 264 1381 144 Q 1368 131 1382 132 Q 1392 133 1458 174 L 1466 180 Z" fill="lightgray"></path> 
<path d="M 1650 369 Q 1738 275 1813 202 Q 1832 183 1859 186 Q 2009 208 2017 224 Q 2021 231 2010 234 Q 1844 280 1762 337 Q 1722 365 1675 404 L 1637 436 Q 1607 464 1574 495 Q 1561 511 1542 512 Q 1535 512 1531 510 C 1501 508 1491 505 1518 492 Q 1554 479 1617 405 L 1650 369 Z" fill="lightgray"></path> 
<path d="M 1517 168 Q 1483 186 1466 180 C 1457 179 1457 179 1458 174 Q 1457 168 1463 155 Q 1491 92 1505 -10 Q 1506 -41 1524 -62 Q 1542 -84 1547 -69 Q 1553 -54 1551 -29 L 1547 7 Q 1532 104 1530 136 C 1528 162 1528 162 1517 168 Z" fill="lightgray"></path> 
<path d="M 1770 30 Q 1797 114 1829 136 Q 1845 155 1831 174 Q 1815 187 1761 214 Q 1742 223 1720 214 Q 1645 187 1517 168 C 1487 163 1501 130 1530 136 Q 1537 137 1547 140 Q 1626 153 1702 166 Q 1721 170 1729 162 Q 1739 152 1737 132 Q 1727 80 1716 37 C 1709 8 1761 2 1770 30 Z" fill="lightgray"></path> 
<path d="M 1551 -29 Q 1558 -30 1570 -28 Q 1637 -15 1782 -6 Q 1794 -5 1795 4 Q 1795 11 1770 30 L 1716 37 Q 1715 37 1714 37 Q 1620 16 1547 7 C 1517 3 1521 -28 1551 -29 Z" fill="lightgray"></path> 
      <clipPath id="make-me-a-hanzi-clip-0">
      <path d="M 133 596 Q 179 539 142 318 Q 139 303 135 286 Q 114 205 64 110 Q 60 104 59 98 Q 58 88 66 91 Q 78 92 107 135 Q 204 258 205 497 Q 205 518 210 564 Q 217 577 209 588 Q 193 601 165 612 Q 147 621 137 615 Q 127 608 133 596 Z" fill="lightgray"></path>
      </clipPath>
      <path clip-path="url(#make-me-a-hanzi-clip-0)" d="M 144 604 L 172 580 L 181 558 L 182 468 L 173 362 L 158 285 L 130 206 L 92 132 L 67 99 " fill="none" id="make-me-a-hanzi-animation-0" stroke-dasharray="672 1344" stroke-linecap="round"></path>

      <clipPath id="make-me-a-hanzi-clip-1">
      <path d="M 267 584 Q 300 502 269 301 Q 251 270 285 220 Q 292 211 301 220 Q 319 248 320 340 Q 320 505 328 558 Q 334 577 317 586 Q 304 595 289 603 Q 279 607 271 602 Q 264 596 267 584 Z" fill="lightgray"></path>
      </clipPath>
      <path clip-path="url(#make-me-a-hanzi-clip-1)" d="M 279 592 L 301 564 L 303 537 L 303 435 L 289 265 L 293 225 " fill="none" id="make-me-a-hanzi-animation-1" stroke-dasharray="503 1006" stroke-linecap="round"></path>

      <clipPath id="make-me-a-hanzi-clip-2">
      <path d="M 382 142 Q 373 106 395 53 Q 401 38 408 35 Q 414 29 420 36 Q 427 40 436 59 Q 443 81 443 108 Q 442 150 445 532 Q 445 611 459 664 Q 466 677 464 689 Q 458 698 409 727 Q 388 742 370 728 Q 366 724 372 710 Q 399 671 400 631 Q 401 573 403 506 Q 402 391 401 263 Q 397 200 382 142 Z" fill="lightgray"></path>
      </clipPath>
      <path clip-path="url(#make-me-a-hanzi-clip-2)" d="M 381 722 L 406 702 L 427 665 L 423 269 L 411 131 L 413 47 " fill="none" id="make-me-a-hanzi-animation-2" stroke-dasharray="821 1642" stroke-linecap="round"></path>

      <clipPath id="make-me-a-hanzi-clip-3">
      <path d="M 677 666 Q 752 684 877 696 Q 887 695 897 708 Q 898 720 875 730 Q 845 751 763 727 Q 739 723 716 716 Q 644 701 520 687 Q 492 683 514 666 Q 544 639 578 648 Q 602 654 633 658 L 677 666 Z" fill="lightgray"></path>
      </clipPath>
      <path clip-path="url(#make-me-a-hanzi-clip-3)" d="M 515 677 L 559 668 L 826 715 L 886 710 " fill="none" id="make-me-a-hanzi-animation-3" stroke-dasharray="504 1008" stroke-linecap="round"></path>

      <clipPath id="make-me-a-hanzi-clip-4">
      <path d="M 624 538 Q 687 617 703 630 Q 718 643 705 653 Q 695 662 677 666 C 648 673 628 678 633 658 Q 642 640 601 535 C 590 507 605 515 624 538 Z" fill="lightgray"></path>
      </clipPath>
      <path clip-path="url(#make-me-a-hanzi-clip-4)" d="M 698 642 L 663 633 L 635 574 L 626 567 L 624 553 L 617 549 " fill="none" id="make-me-a-hanzi-animation-4" stroke-dasharray="263 526" stroke-linecap="round"></path>

      <clipPath id="make-me-a-hanzi-clip-5">
      <path d="M 570 532 Q 569 535 564 536 Q 557 543 544 547 Q 535 551 525 548 Q 519 544 524 532 Q 525 525 529 518 Q 538 503 538 310 Q 535 283 528 250 Q 515 201 547 163 Q 557 151 566 162 Q 579 181 580 251 Q 583 477 585 493 Q 586 500 586 505 C 587 519 587 519 570 532 Z" fill="lightgray"></path>
      </clipPath>
      <path clip-path="url(#make-me-a-hanzi-clip-5)" d="M 531 541 L 548 524 L 559 500 L 561 317 L 551 215 L 557 168 " fill="none" id="make-me-a-hanzi-animation-5" stroke-dasharray="511 1022" stroke-linecap="round"></path>

      <clipPath id="make-me-a-hanzi-clip-6">
      <path d="M 772 219 Q 765 198 777 178 Q 790 151 798 152 Q 811 153 826 183 Q 839 207 838 226 Q 810 455 850 512 Q 868 539 782 578 Q 767 584 745 576 Q 736 573 624 538 L 601 535 Q 585 534 570 532 C 540 529 556 501 586 505 Q 598 505 677 522 Q 749 540 765 529 Q 775 505 780 443 Q 781 256 772 219 Z" fill="lightgray"></path>
      </clipPath>
      <path clip-path="url(#make-me-a-hanzi-clip-6)" d="M 578 528 L 594 521 L 621 523 L 766 556 L 784 550 L 809 518 L 803 431 L 806 222 L 799 162 " fill="none" id="make-me-a-hanzi-animation-6" stroke-dasharray="737 1474" stroke-linecap="round"></path>

      <clipPath id="make-me-a-hanzi-clip-7">
      <path d="M 658 393 Q 667 137 581 49 Q 575 43 569 37 Q 539 7 472 -32 Q 460 -36 458 -41 Q 454 -45 468 -48 Q 535 -48 627 33 Q 639 46 648 60 Q 702 138 706 310 Q 709 389 720 422 Q 724 432 717 439 Q 669 478 634 468 Q 616 461 631 445 Q 656 420 658 393 Z" fill="lightgray"></path>
      </clipPath>
      <path clip-path="url(#make-me-a-hanzi-clip-7)" d="M 636 456 L 669 439 L 686 415 L 679 245 L 655 128 L 637 86 L 606 42 L 540 -10 L 464 -43 " fill="none" id="make-me-a-hanzi-animation-7" stroke-dasharray="751 1502" stroke-linecap="round"></path>

      <clipPath id="make-me-a-hanzi-clip-8">
      <path d="M 717 89 Q 775 37 844 -37 Q 859 -56 873 -60 Q 882 -61 889 -51 Q 901 -39 888 3 Q 875 60 717 118 Q 710 122 707 111 Q 706 98 717 89 Z" fill="lightgray"></path>
      </clipPath>
      <path clip-path="url(#make-me-a-hanzi-clip-8)" d="M 718 107 L 831 25 L 854 1 L 874 -45 " fill="none" id="make-me-a-hanzi-animation-8" stroke-dasharray="351 702" stroke-linecap="round"></path>

      <clipPath id="make-me-a-hanzi-clip-9">
      <path d="M 1219 652 Q 1207 658 1181 663 Q 1168 667 1165 662 Q 1158 656 1166 640 Q 1191 588 1203 501 Q 1206 476 1220 458 Q 1236 436 1243 451 Q 1246 458 1247 468 L 1247 498 Q 1241 519 1234 624 C 1232 646 1232 646 1219 652 Z" fill="lightgray"></path>
      </clipPath>
      <path clip-path="url(#make-me-a-hanzi-clip-9)" d="M 1172 654 L 1200 630 L 1209 610 L 1232 458 " fill="none" id="make-me-a-hanzi-animation-9" stroke-dasharray="341 682" stroke-linecap="round"></path>

      <clipPath id="make-me-a-hanzi-clip-10">
      <path d="M 1409 525 Q 1431 604 1456 625 Q 1481 650 1457 667 Q 1396 706 1387 704 Q 1378 704 1371 699 Q 1325 671 1219 652 C 1189 647 1206 614 1234 624 Q 1235 627 1339 648 Q 1370 655 1377 642 Q 1384 636 1375 605 Q 1366 569 1354 526 C 1346 497 1401 496 1409 525 Z" fill="lightgray"></path>
      </clipPath>
      <path clip-path="url(#make-me-a-hanzi-clip-10)" d="M 1230 649 L 1241 641 L 1379 673 L 1409 657 L 1419 644 L 1389 552 L 1361 532 " fill="none" id="make-me-a-hanzi-animation-10" stroke-dasharray="465 930" stroke-linecap="round"></path>

      <clipPath id="make-me-a-hanzi-clip-11">
      <path d="M 1321 483 Q 1358 492 1419 499 Q 1428 500 1429 508 Q 1429 514 1409 525 C 1391 536 1383 534 1354 526 Q 1293 510 1247 498 C 1218 490 1217 469 1247 468 Q 1253 467 1261 469 Q 1268 472 1279 474 L 1321 483 Z" fill="lightgray"></path>
      </clipPath>
      <path clip-path="url(#make-me-a-hanzi-clip-11)" d="M 1254 476 L 1271 488 L 1333 504 L 1402 512 L 1420 507 " fill="none" id="make-me-a-hanzi-animation-11" stroke-dasharray="301 602" stroke-linecap="round"></path>

      <clipPath id="make-me-a-hanzi-clip-12">
      <path d="M 1335 211 Q 1338 284 1342 344 L 1344 378 Q 1345 394 1346 410 Q 1350 456 1346 462 Q 1333 475 1321 483 C 1297 501 1273 503 1279 474 Q 1288 434 1291 356 Q 1291 299 1291 194 C 1291 164 1334 181 1335 211 Z" fill="lightgray"></path>
      </clipPath>
      <path clip-path="url(#make-me-a-hanzi-clip-12)" d="M 1287 470 L 1314 450 L 1317 439 L 1314 236 L 1296 203 " fill="none" id="make-me-a-hanzi-animation-12" stroke-dasharray="414 828" stroke-linecap="round"></path>

      <clipPath id="make-me-a-hanzi-clip-13">
      <path d="M 1342 344 L 1440 359 Q 1464 366 1454 378 Q 1441 393 1414 395 Q 1390 395 1344 378 C 1316 368 1312 339 1342 344 Z" fill="lightgray"></path>
      </clipPath>
      <path clip-path="url(#make-me-a-hanzi-clip-13)" d="M 1348 349 L 1356 360 L 1374 368 L 1410 375 L 1444 371 " fill="none" id="make-me-a-hanzi-animation-13" stroke-dasharray="232 464" stroke-linecap="round"></path>

      <clipPath id="make-me-a-hanzi-clip-14">
      <path d="M 1223 170 Q 1214 279 1219 315 Q 1220 337 1207 347 Q 1185 363 1158 372 Q 1145 376 1136 370 Q 1129 364 1136 349 Q 1152 324 1161 295 Q 1167 267 1184 157 C 1189 127 1225 140 1223 170 Z" fill="lightgray"></path>
      </clipPath>
      <path clip-path="url(#make-me-a-hanzi-clip-14)" d="M 1145 361 L 1187 320 L 1201 185 L 1187 169 " fill="none" id="make-me-a-hanzi-animation-14" stroke-dasharray="344 688" stroke-linecap="round"></path>

      <clipPath id="make-me-a-hanzi-clip-15">
      <path d="M 1184 157 Q 1115 136 1095 135 Q 1082 134 1080 122 Q 1079 109 1089 100 Q 1114 85 1149 68 Q 1159 65 1172 75 Q 1202 102 1376 193 Q 1400 206 1417 221 Q 1430 228 1430 239 Q 1420 246 1335 211 L 1291 194 Q 1257 184 1223 170 L 1184 157 Z" fill="lightgray"></path>
      </clipPath>
      <path clip-path="url(#make-me-a-hanzi-clip-15)" d="M 1095 120 L 1153 108 L 1427 235 " fill="none" id="make-me-a-hanzi-animation-15" stroke-dasharray="489 978" stroke-linecap="round"></path>

      <clipPath id="make-me-a-hanzi-clip-16">
      <path d="M 1599 612 Q 1648 708 1659 718 Q 1666 730 1661 742 Q 1657 754 1626 773 Q 1599 788 1581 785 Q 1563 782 1573 762 Q 1586 740 1580 720 Q 1562 653 1531 588 Q 1500 527 1455 456 Q 1448 446 1445 439 Q 1444 429 1456 432 Q 1469 436 1518 492 L 1531 510 Q 1549 534 1587 593 L 1599 612 Z" fill="lightgray"></path>
      </clipPath>
      <path clip-path="url(#make-me-a-hanzi-clip-16)" d="M 1582 772 L 1606 754 L 1620 731 L 1613 709 L 1554 581 L 1487 476 L 1453 440 " fill="none" id="make-me-a-hanzi-animation-16" stroke-dasharray="523 1046" stroke-linecap="round"></path>

      <clipPath id="make-me-a-hanzi-clip-17">
      <path d="M 1466 180 Q 1566 261 1650 369 L 1675 404 Q 1718 465 1762 535 Q 1781 563 1816 594 Q 1831 606 1825 615 Q 1824 625 1760 647 Q 1747 654 1702 635 Q 1621 616 1599 612 C 1570 606 1561 604 1587 593 Q 1615 572 1678 592 Q 1703 598 1711 588 Q 1718 570 1637 436 L 1617 405 Q 1512 264 1381 144 Q 1368 131 1382 132 Q 1392 133 1458 174 L 1466 180 Z" fill="lightgray"></path>
      </clipPath>
      <path clip-path="url(#make-me-a-hanzi-clip-17)" d="M 1595 595 L 1695 615 L 1723 614 L 1756 601 L 1708 502 L 1607 352 L 1473 207 L 1383 138 " fill="none" id="make-me-a-hanzi-animation-17" stroke-dasharray="895 1790" stroke-linecap="round"></path>

      <clipPath id="make-me-a-hanzi-clip-18">
      <path d="M 1650 369 Q 1738 275 1813 202 Q 1832 183 1859 186 Q 2009 208 2017 224 Q 2021 231 2010 234 Q 1844 280 1762 337 Q 1722 365 1675 404 L 1637 436 Q 1607 464 1574 495 Q 1561 511 1542 512 Q 1535 512 1531 510 C 1501 508 1491 505 1518 492 Q 1554 479 1617 405 L 1650 369 Z" fill="lightgray"></path>
      </clipPath>
      <path clip-path="url(#make-me-a-hanzi-clip-18)" d="M 1524 494 L 1539 498 L 1552 493 L 1733 322 L 1846 238 L 1914 228 L 2011 227 " fill="none" id="make-me-a-hanzi-animation-18" stroke-dasharray="713 1426" stroke-linecap="round"></path>

      <clipPath id="make-me-a-hanzi-clip-19">
      <path d="M 1517 168 Q 1483 186 1466 180 C 1457 179 1457 179 1458 174 Q 1457 168 1463 155 Q 1491 92 1505 -10 Q 1506 -41 1524 -62 Q 1542 -84 1547 -69 Q 1553 -54 1551 -29 L 1547 7 Q 1532 104 1530 136 C 1528 162 1528 162 1517 168 Z" fill="lightgray"></path>
      </clipPath>
      <path clip-path="url(#make-me-a-hanzi-clip-19)" d="M 1467 171 L 1496 147 L 1503 130 L 1536 -63 " fill="none" id="make-me-a-hanzi-animation-19" stroke-dasharray="380 760" stroke-linecap="round"></path>

      <clipPath id="make-me-a-hanzi-clip-20">
      <path d="M 1770 30 Q 1797 114 1829 136 Q 1845 155 1831 174 Q 1815 187 1761 214 Q 1742 223 1720 214 Q 1645 187 1517 168 C 1487 163 1501 130 1530 136 Q 1537 137 1547 140 Q 1626 153 1702 166 Q 1721 170 1729 162 Q 1739 152 1737 132 Q 1727 80 1716 37 C 1709 8 1761 2 1770 30 Z" fill="lightgray"></path>
      </clipPath>
      <path clip-path="url(#make-me-a-hanzi-clip-20)" d="M 1527 166 L 1540 155 L 1552 156 L 1697 186 L 1746 188 L 1781 153 L 1751 61 L 1723 42 " fill="none" id="make-me-a-hanzi-animation-20" stroke-dasharray="534 1068" stroke-linecap="round"></path>

      <clipPath id="make-me-a-hanzi-clip-21">
      <path d="M 1551 -29 Q 1558 -30 1570 -28 Q 1637 -15 1782 -6 Q 1794 -5 1795 4 Q 1795 11 1770 30 L 1716 37 Q 1715 37 1714 37 Q 1620 16 1547 7 C 1517 3 1521 -28 1551 -29 Z" fill="lightgray"></path>
      </clipPath>
      <path clip-path="url(#make-me-a-hanzi-clip-21)" d="M 1555 -22 L 1567 -9 L 1710 13 L 1761 12 L 1787 4 " fill="none" id="make-me-a-hanzi-animation-21" stroke-dasharray="369 738" stroke-linecap="round"></path>

</g>
</svg>
