<svg version="1.1" viewBox="0 0 2048 1024" xmlns="http://www.w3.org/2000/svg">
  <g stroke="lightgray" stroke-dasharray="1,1" stroke-width="1" transform="scale(4, 4)">
    <line x1="0" y1="0" x2="256" y2="256"></line>
    <line x1="256" y1="0" x2="0" y2="256"></line>
    <line x1="128" y1="0" x2="128" y2="256"></line>
    <line x1="0" y1="128" x2="256" y2="128"></line>
    <line x1="256" y1="0" x2="512" y2="256"></line>
    <line x1="512" y1="0" x2="256" y2="256"></line>
    <line x1="384" y1="0" x2="384" y2="256"></line>
    <line x1="256" y1="128" x2="512" y2="128"></line>
  </g>
<g transform="scale(1, -1) translate(0, -850)">
   <style type="text/css">
    @keyframes keyframes0 {
      from {
       stroke: black;
       stroke-dashoffset: 876;
       stroke-width: 128;
       }
       74% {
       animation-timing-function: step-end;
       stroke: black;
       stroke-dashoffset: 0;
       stroke-width: 128;
       }
       to {
       stroke: black;
       stroke-width: 1024;
       }
       }
       #make-me-a-hanzi-animation-0 {
         animation: keyframes0 0.962891s both;
         animation-delay: 0.000000s;
         animation-timing-function: linear;
       }
    @keyframes keyframes1 {
      from {
       stroke: black;
       stroke-dashoffset: 405;
       stroke-width: 128;
       }
       57% {
       animation-timing-function: step-end;
       stroke: black;
       stroke-dashoffset: 0;
       stroke-width: 128;
       }
       to {
       stroke: black;
       stroke-width: 1024;
       }
       }
       #make-me-a-hanzi-animation-1 {
         animation: keyframes1 0.579590s both;
         animation-delay: 0.962891s;
         animation-timing-function: linear;
       }
    @keyframes keyframes2 {
      from {
       stroke: black;
       stroke-dashoffset: 352;
       stroke-width: 128;
       }
       53% {
       animation-timing-function: step-end;
       stroke: black;
       stroke-dashoffset: 0;
       stroke-width: 128;
       }
       to {
       stroke: black;
       stroke-width: 1024;
       }
       }
       #make-me-a-hanzi-animation-2 {
         animation: keyframes2 0.536458s both;
         animation-delay: 1.542480s;
         animation-timing-function: linear;
       }
    @keyframes keyframes3 {
      from {
       stroke: black;
       stroke-dashoffset: 690;
       stroke-width: 128;
       }
       69% {
       animation-timing-function: step-end;
       stroke: black;
       stroke-dashoffset: 0;
       stroke-width: 128;
       }
       to {
       stroke: black;
       stroke-width: 1024;
       }
       }
       #make-me-a-hanzi-animation-3 {
         animation: keyframes3 0.811523s both;
         animation-delay: 2.078939s;
         animation-timing-function: linear;
       }
    @keyframes keyframes4 {
      from {
       stroke: black;
       stroke-dashoffset: 453;
       stroke-width: 128;
       }
       60% {
       animation-timing-function: step-end;
       stroke: black;
       stroke-dashoffset: 0;
       stroke-width: 128;
       }
       to {
       stroke: black;
       stroke-width: 1024;
       }
       }
       #make-me-a-hanzi-animation-4 {
         animation: keyframes4 0.618652s both;
         animation-delay: 2.890462s;
         animation-timing-function: linear;
       }
    @keyframes keyframes5 {
      from {
       stroke: black;
       stroke-dashoffset: 655;
       stroke-width: 128;
       }
       68% {
       animation-timing-function: step-end;
       stroke: black;
       stroke-dashoffset: 0;
       stroke-width: 128;
       }
       to {
       stroke: black;
       stroke-width: 1024;
       }
       }
       #make-me-a-hanzi-animation-5 {
         animation: keyframes5 0.783040s both;
         animation-delay: 3.509115s;
         animation-timing-function: linear;
       }
    @keyframes keyframes6 {
      from {
       stroke: black;
       stroke-dashoffset: 430;
       stroke-width: 128;
       }
       58% {
       animation-timing-function: step-end;
       stroke: black;
       stroke-dashoffset: 0;
       stroke-width: 128;
       }
       to {
       stroke: black;
       stroke-width: 1024;
       }
       }
       #make-me-a-hanzi-animation-6 {
         animation: keyframes6 0.599935s both;
         animation-delay: 4.292155s;
         animation-timing-function: linear;
       }
    @keyframes keyframes7 {
      from {
       stroke: black;
       stroke-dashoffset: 626;
       stroke-width: 128;
       }
       67% {
       animation-timing-function: step-end;
       stroke: black;
       stroke-dashoffset: 0;
       stroke-width: 128;
       }
       to {
       stroke: black;
       stroke-width: 1024;
       }
       }
       #make-me-a-hanzi-animation-7 {
         animation: keyframes7 0.759440s both;
         animation-delay: 4.892090s;
         animation-timing-function: linear;
       }
    @keyframes keyframes8 {
      from {
       stroke: black;
       stroke-dashoffset: 850;
       stroke-width: 128;
       }
       73% {
       animation-timing-function: step-end;
       stroke: black;
       stroke-dashoffset: 0;
       stroke-width: 128;
       }
       to {
       stroke: black;
       stroke-width: 1024;
       }
       }
       #make-me-a-hanzi-animation-8 {
         animation: keyframes8 0.941732s both;
         animation-delay: 5.651530s;
         animation-timing-function: linear;
       }
    @keyframes keyframes9 {
      from {
       stroke: black;
       stroke-dashoffset: 868;
       stroke-width: 128;
       }
       74% {
       animation-timing-function: step-end;
       stroke: black;
       stroke-dashoffset: 0;
       stroke-width: 128;
       }
       to {
       stroke: black;
       stroke-width: 1024;
       }
       }
       #make-me-a-hanzi-animation-9 {
         animation: keyframes9 0.956380s both;
         animation-delay: 6.593262s;
         animation-timing-function: linear;
       }
    @keyframes keyframes10 {
      from {
       stroke: black;
       stroke-dashoffset: 491;
       stroke-width: 128;
       }
       62% {
       animation-timing-function: step-end;
       stroke: black;
       stroke-dashoffset: 0;
       stroke-width: 128;
       }
       to {
       stroke: black;
       stroke-width: 1024;
       }
       }
       #make-me-a-hanzi-animation-10 {
         animation: keyframes10 0.649577s both;
         animation-delay: 7.549642s;
         animation-timing-function: linear;
       }
    @keyframes keyframes11 {
      from {
       stroke: black;
       stroke-dashoffset: 466;
       stroke-width: 128;
       }
       60% {
       animation-timing-function: step-end;
       stroke: black;
       stroke-dashoffset: 0;
       stroke-width: 128;
       }
       to {
       stroke: black;
       stroke-width: 1024;
       }
       }
       #make-me-a-hanzi-animation-11 {
         animation: keyframes11 0.629232s both;
         animation-delay: 8.199219s;
         animation-timing-function: linear;
       }
    @keyframes keyframes12 {
      from {
       stroke: black;
       stroke-dashoffset: 885;
       stroke-width: 128;
       }
       74% {
       animation-timing-function: step-end;
       stroke: black;
       stroke-dashoffset: 0;
       stroke-width: 128;
       }
       to {
       stroke: black;
       stroke-width: 1024;
       }
       }
       #make-me-a-hanzi-animation-12 {
         animation: keyframes12 0.970215s both;
         animation-delay: 8.828451s;
         animation-timing-function: linear;
       }
    @keyframes keyframes13 {
      from {
       stroke: black;
       stroke-dashoffset: 687;
       stroke-width: 128;
       }
       69% {
       animation-timing-function: step-end;
       stroke: black;
       stroke-dashoffset: 0;
       stroke-width: 128;
       }
       to {
       stroke: black;
       stroke-width: 1024;
       }
       }
       #make-me-a-hanzi-animation-13 {
         animation: keyframes13 0.809082s both;
         animation-delay: 9.798665s;
         animation-timing-function: linear;
       }
    @keyframes keyframes14 {
      from {
       stroke: black;
       stroke-dashoffset: 989;
       stroke-width: 128;
       }
       76% {
       animation-timing-function: step-end;
       stroke: black;
       stroke-dashoffset: 0;
       stroke-width: 128;
       }
       to {
       stroke: black;
       stroke-width: 1024;
       }
       }
       #make-me-a-hanzi-animation-14 {
         animation: keyframes14 1.054850s both;
         animation-delay: 10.607747s;
         animation-timing-function: linear;
       }
    @keyframes keyframes15 {
      from {
       stroke: black;
       stroke-dashoffset: 934;
       stroke-width: 128;
       }
       75% {
       animation-timing-function: step-end;
       stroke: black;
       stroke-dashoffset: 0;
       stroke-width: 128;
       }
       to {
       stroke: black;
       stroke-width: 1024;
       }
       }
       #make-me-a-hanzi-animation-15 {
         animation: keyframes15 1.010091s both;
         animation-delay: 11.662598s;
         animation-timing-function: linear;
       }
    @keyframes keyframes16 {
      from {
       stroke: black;
       stroke-dashoffset: 773;
       stroke-width: 128;
       }
       72% {
       animation-timing-function: step-end;
       stroke: black;
       stroke-dashoffset: 0;
       stroke-width: 128;
       }
       to {
       stroke: black;
       stroke-width: 1024;
       }
       }
       #make-me-a-hanzi-animation-16 {
         animation: keyframes16 0.879069s both;
         animation-delay: 12.672689s;
         animation-timing-function: linear;
       }
</style>
<path d="M 364 583 Q 377 610 389 624 Q 396 637 387 653 Q 368 681 349 694 Q 333 706 316 705 Q 298 705 305 683 Q 336 532 49 208 Q 31 190 31 183 Q 31 177 37 178 Q 71 184 153 267 Q 154 270 157 272 Q 269 392 348 551 Q 349 557 353 561 L 364 583 Z" fill="lightgray"></path> 
<path d="M 353 561 Q 396 530 448 481 Q 463 466 476 464 Q 483 463 489 472 Q 498 485 484 520 Q 472 553 412 571 Q 384 580 364 583 C 334 588 329 579 353 561 Z" fill="lightgray"></path> 
<path d="M 304 400 Q 361 336 382 335 Q 395 334 401 352 Q 402 365 392 384 Q 382 400 359 408 Q 323 424 308 426 Q 299 427 298 416 Q 297 409 304 400 Z" fill="lightgray"></path> 
<path d="M 353 76 Q 443 199 481 222 Q 499 231 491 245 Q 487 261 420 288 Q 405 294 339 268 Q 252 235 197 232 Q 175 231 184 212 Q 191 200 210 190 Q 240 175 274 196 Q 364 251 387 237 Q 400 227 394 212 Q 367 154 338 85 C 326 57 335 52 353 76 Z" fill="lightgray"></path> 
<path d="M 338 85 Q 316 100 245 130 Q 238 134 235 123 Q 234 111 243 101 Q 292 55 350 -12 Q 363 -31 378 -35 Q 385 -36 393 -28 Q 405 -16 394 24 Q 388 57 353 76 L 338 85 Z" fill="lightgray"></path> 
<path d="M 660 600 Q 703 616 859 623 Q 902 623 909 633 Q 913 645 897 656 Q 840 693 783 671 L 510 611 Q 491 608 506 593 Q 521 581 537 577 Q 556 573 572 579 Q 596 586 624 593 L 660 600 Z" fill="lightgray"></path> 
<path d="M 610 441 Q 628 460 664 515 Q 673 528 687 544 Q 700 554 694 565 Q 685 581 660 600 C 636 618 615 622 624 593 L 625 592 Q 632 564 594 467 Q 587 449 585 437 C 579 408 590 419 610 441 Z" fill="lightgray"></path> 
<path d="M 561 434 L 559 436 Q 538 452 515 458 Q 506 459 501 452 Q 498 448 505 438 Q 541 357 516 194 Q 504 140 507 126 Q 516 96 526 85 Q 536 73 545 86 Q 566 116 567 280 Q 567 371 570 404 C 572 426 572 426 561 434 Z" fill="lightgray"></path> 
<path d="M 768 150 Q 761 126 774 104 Q 789 76 798 76 Q 813 77 828 111 Q 843 136 841 158 Q 814 359 851 413 Q 861 429 853 440 Q 825 465 775 485 Q 759 491 735 482 Q 716 473 610 441 L 585 437 Q 572 436 561 434 C 531 430 541 399 570 404 Q 573 404 665 423 Q 740 442 757 431 Q 767 410 771 354 Q 777 183 768 150 Z" fill="lightgray"></path> 
<path d="M 639 275 Q 643 56 569 -35 Q 557 -45 544 -58 Q 513 -86 441 -125 Q 429 -129 426 -133 Q 422 -137 436 -140 Q 479 -144 570 -91 Q 678 -19 689 202 Q 689 257 705 304 Q 709 314 702 321 Q 684 337 652 350 Q 633 359 616 353 Q 598 346 613 330 Q 638 303 639 275 Z" fill="lightgray"></path> 
<path d="M 716 21 Q 771 -36 836 -116 Q 852 -138 867 -144 Q 877 -145 885 -135 Q 898 -122 888 -75 Q 884 -50 867 -32 Q 848 -13 801 12 Q 749 40 719 53 Q 710 60 707 47 Q 706 32 716 21 Z" fill="lightgray"></path> 
<path d="M 1315 617 Q 1305 642 1293 650 Q 1274 666 1271 639 Q 1277 602 1224 544 Q 1187 510 1215 445 Q 1230 417 1251 445 Q 1270 470 1284 510 Q 1300 556 1313 584 C 1321 602 1321 602 1315 617 Z" fill="lightgray"></path> 
<path d="M 1313 584 Q 1334 574 1393 587 Q 1543 623 1713 636 Q 1735 637 1745 635 Q 1761 626 1759 619 Q 1759 615 1719 541 Q 1710 528 1717 523 Q 1724 519 1742 529 Q 1800 566 1849 577 Q 1889 587 1888 597 Q 1887 607 1816 664 Q 1791 685 1696 667 Q 1618 661 1409 629 Q 1361 622 1315 617 C 1285 614 1284 590 1313 584 Z" fill="lightgray"></path> 
<path d="M 1477 384 Q 1732 427 1746 437 Q 1755 444 1751 454 Q 1744 467 1714 475 Q 1684 482 1653 471 Q 1583 449 1506 433 Q 1503 433 1500 432 L 1443 422 Q 1385 416 1323 411 Q 1286 407 1312 388 Q 1351 361 1414 374 Q 1417 375 1425 375 L 1477 384 Z" fill="lightgray"></path> 
<path d="M 1571 213 Q 1640 222 1685 224 Q 1725 225 1728 237 Q 1729 250 1700 269 Q 1681 281 1573 259 L 1525 249 L 1422 234 Q 1407 233 1406 236 Q 1405 239 1411 251 L 1477 384 L 1500 432 Q 1519 481 1542 498 Q 1561 511 1551 523 Q 1503 574 1477 573 Q 1467 573 1472 552 Q 1478 519 1443 422 L 1425 375 Q 1386 279 1342 245 Q 1321 230 1334 184 Q 1338 168 1355 174 Q 1418 195 1525 207 L 1571 213 Z" fill="lightgray"></path> 
<path d="M 1523 111 Q 1382 98 1219 80 Q 1194 79 1212 57 Q 1228 41 1250 34 Q 1275 27 1294 32 Q 1393 56 1504 65 Q 1511 66 1521 66 L 1570 71 Q 1723 83 1869 73 Q 1893 73 1899 83 Q 1906 96 1886 113 Q 1825 161 1781 152 Q 1699 136 1570 118 L 1523 111 Z" fill="lightgray"></path> 
<path d="M 1573 259 Q 1574 284 1578 299 Q 1581 311 1574 317 Q 1552 336 1533 346 Q 1521 350 1512 343 Q 1506 339 1513 330 Q 1523 312 1525 249 L 1525 207 Q 1525 159 1523 111 L 1521 66 Q 1512 -51 1505 -71 Q 1496 -107 1529 -158 Q 1539 -176 1548 -180 Q 1558 -181 1564 -169 Q 1576 -138 1573 -108 Q 1570 -14 1570 71 L 1570 118 Q 1570 166 1571 213 L 1573 259 Z" fill="lightgray"></path> 
      <clipPath id="make-me-a-hanzi-clip-0">
      <path d="M 364 583 Q 377 610 389 624 Q 396 637 387 653 Q 368 681 349 694 Q 333 706 316 705 Q 298 705 305 683 Q 336 532 49 208 Q 31 190 31 183 Q 31 177 37 178 Q 71 184 153 267 Q 154 270 157 272 Q 269 392 348 551 Q 349 557 353 561 L 364 583 Z" fill="lightgray"></path>
      </clipPath>
      <path clip-path="url(#make-me-a-hanzi-clip-0)" d="M 315 692 L 331 677 L 348 637 L 313 542 L 285 487 L 220 384 L 157 302 L 80 219 L 38 186 " fill="none" id="make-me-a-hanzi-animation-0" stroke-dasharray="748 1496" stroke-linecap="round"></path>

      <clipPath id="make-me-a-hanzi-clip-1">
      <path d="M 353 561 Q 396 530 448 481 Q 463 466 476 464 Q 483 463 489 472 Q 498 485 484 520 Q 472 553 412 571 Q 384 580 364 583 C 334 588 329 579 353 561 Z" fill="lightgray"></path>
      </clipPath>
      <path clip-path="url(#make-me-a-hanzi-clip-1)" d="M 363 563 L 373 566 L 439 529 L 463 504 L 476 479 " fill="none" id="make-me-a-hanzi-animation-1" stroke-dasharray="277 554" stroke-linecap="round"></path>

      <clipPath id="make-me-a-hanzi-clip-2">
      <path d="M 304 400 Q 361 336 382 335 Q 395 334 401 352 Q 402 365 392 384 Q 382 400 359 408 Q 323 424 308 426 Q 299 427 298 416 Q 297 409 304 400 Z" fill="lightgray"></path>
      </clipPath>
      <path clip-path="url(#make-me-a-hanzi-clip-2)" d="M 310 414 L 363 377 L 382 352 " fill="none" id="make-me-a-hanzi-animation-2" stroke-dasharray="224 448" stroke-linecap="round"></path>

      <clipPath id="make-me-a-hanzi-clip-3">
      <path d="M 353 76 Q 443 199 481 222 Q 499 231 491 245 Q 487 261 420 288 Q 405 294 339 268 Q 252 235 197 232 Q 175 231 184 212 Q 191 200 210 190 Q 240 175 274 196 Q 364 251 387 237 Q 400 227 394 212 Q 367 154 338 85 C 326 57 335 52 353 76 Z" fill="lightgray"></path>
      </clipPath>
      <path clip-path="url(#make-me-a-hanzi-clip-3)" d="M 193 220 L 239 210 L 355 257 L 392 261 L 419 252 L 434 237 L 432 228 L 354 91 L 346 90 " fill="none" id="make-me-a-hanzi-animation-3" stroke-dasharray="562 1124" stroke-linecap="round"></path>

      <clipPath id="make-me-a-hanzi-clip-4">
      <path d="M 338 85 Q 316 100 245 130 Q 238 134 235 123 Q 234 111 243 101 Q 292 55 350 -12 Q 363 -31 378 -35 Q 385 -36 393 -28 Q 405 -16 394 24 Q 388 57 353 76 L 338 85 Z" fill="lightgray"></path>
      </clipPath>
      <path clip-path="url(#make-me-a-hanzi-clip-4)" d="M 246 119 L 350 39 L 370 9 L 379 -19 " fill="none" id="make-me-a-hanzi-animation-4" stroke-dasharray="325 650" stroke-linecap="round"></path>

      <clipPath id="make-me-a-hanzi-clip-5">
      <path d="M 660 600 Q 703 616 859 623 Q 902 623 909 633 Q 913 645 897 656 Q 840 693 783 671 L 510 611 Q 491 608 506 593 Q 521 581 537 577 Q 556 573 572 579 Q 596 586 624 593 L 660 600 Z" fill="lightgray"></path>
      </clipPath>
      <path clip-path="url(#make-me-a-hanzi-clip-5)" d="M 508 602 L 561 599 L 688 629 L 820 650 L 901 638 " fill="none" id="make-me-a-hanzi-animation-5" stroke-dasharray="527 1054" stroke-linecap="round"></path>

      <clipPath id="make-me-a-hanzi-clip-6">
      <path d="M 610 441 Q 628 460 664 515 Q 673 528 687 544 Q 700 554 694 565 Q 685 581 660 600 C 636 618 615 622 624 593 L 625 592 Q 632 564 594 467 Q 587 449 585 437 C 579 408 590 419 610 441 Z" fill="lightgray"></path>
      </clipPath>
      <path clip-path="url(#make-me-a-hanzi-clip-6)" d="M 632 589 L 657 559 L 609 462 L 590 443 " fill="none" id="make-me-a-hanzi-animation-6" stroke-dasharray="302 604" stroke-linecap="round"></path>

      <clipPath id="make-me-a-hanzi-clip-7">
      <path d="M 561 434 L 559 436 Q 538 452 515 458 Q 506 459 501 452 Q 498 448 505 438 Q 541 357 516 194 Q 504 140 507 126 Q 516 96 526 85 Q 536 73 545 86 Q 566 116 567 280 Q 567 371 570 404 C 572 426 572 426 561 434 Z" fill="lightgray"></path>
      </clipPath>
      <path clip-path="url(#make-me-a-hanzi-clip-7)" d="M 511 447 L 532 428 L 544 401 L 548 291 L 532 132 L 535 90 " fill="none" id="make-me-a-hanzi-animation-7" stroke-dasharray="498 996" stroke-linecap="round"></path>

      <clipPath id="make-me-a-hanzi-clip-8">
      <path d="M 768 150 Q 761 126 774 104 Q 789 76 798 76 Q 813 77 828 111 Q 843 136 841 158 Q 814 359 851 413 Q 861 429 853 440 Q 825 465 775 485 Q 759 491 735 482 Q 716 473 610 441 L 585 437 Q 572 436 561 434 C 531 430 541 399 570 404 Q 573 404 665 423 Q 740 442 757 431 Q 767 410 771 354 Q 777 183 768 150 Z" fill="lightgray"></path>
      </clipPath>
      <path clip-path="url(#make-me-a-hanzi-clip-8)" d="M 568 428 L 581 421 L 608 425 L 684 447 L 759 460 L 785 447 L 804 424 L 800 294 L 806 164 L 799 87 " fill="none" id="make-me-a-hanzi-animation-8" stroke-dasharray="722 1444" stroke-linecap="round"></path>

      <clipPath id="make-me-a-hanzi-clip-9">
      <path d="M 639 275 Q 643 56 569 -35 Q 557 -45 544 -58 Q 513 -86 441 -125 Q 429 -129 426 -133 Q 422 -137 436 -140 Q 479 -144 570 -91 Q 678 -19 689 202 Q 689 257 705 304 Q 709 314 702 321 Q 684 337 652 350 Q 633 359 616 353 Q 598 346 613 330 Q 638 303 639 275 Z" fill="lightgray"></path>
      </clipPath>
      <path clip-path="url(#make-me-a-hanzi-clip-9)" d="M 618 341 L 639 332 L 669 303 L 661 152 L 648 80 L 629 21 L 604 -27 L 551 -80 L 486 -117 L 432 -135 " fill="none" id="make-me-a-hanzi-animation-9" stroke-dasharray="740 1480" stroke-linecap="round"></path>

      <clipPath id="make-me-a-hanzi-clip-10">
      <path d="M 716 21 Q 771 -36 836 -116 Q 852 -138 867 -144 Q 877 -145 885 -135 Q 898 -122 888 -75 Q 884 -50 867 -32 Q 848 -13 801 12 Q 749 40 719 53 Q 710 60 707 47 Q 706 32 716 21 Z" fill="lightgray"></path>
      </clipPath>
      <path clip-path="url(#make-me-a-hanzi-clip-10)" d="M 717 41 L 842 -62 L 858 -91 L 869 -129 " fill="none" id="make-me-a-hanzi-animation-10" stroke-dasharray="363 726" stroke-linecap="round"></path>

      <clipPath id="make-me-a-hanzi-clip-11">
      <path d="M 1315 617 Q 1305 642 1293 650 Q 1274 666 1271 639 Q 1277 602 1224 544 Q 1187 510 1215 445 Q 1230 417 1251 445 Q 1270 470 1284 510 Q 1300 556 1313 584 C 1321 602 1321 602 1315 617 Z" fill="lightgray"></path>
      </clipPath>
      <path clip-path="url(#make-me-a-hanzi-clip-11)" d="M 1282 644 L 1292 613 L 1288 591 L 1242 505 L 1232 448 " fill="none" id="make-me-a-hanzi-animation-11" stroke-dasharray="338 676" stroke-linecap="round"></path>

      <clipPath id="make-me-a-hanzi-clip-12">
      <path d="M 1313 584 Q 1334 574 1393 587 Q 1543 623 1713 636 Q 1735 637 1745 635 Q 1761 626 1759 619 Q 1759 615 1719 541 Q 1710 528 1717 523 Q 1724 519 1742 529 Q 1800 566 1849 577 Q 1889 587 1888 597 Q 1887 607 1816 664 Q 1791 685 1696 667 Q 1618 661 1409 629 Q 1361 622 1315 617 C 1285 614 1284 590 1313 584 Z" fill="lightgray"></path>
      </clipPath>
      <path clip-path="url(#make-me-a-hanzi-clip-12)" d="M 1319 589 L 1333 599 L 1587 640 L 1732 655 L 1778 646 L 1793 635 L 1805 613 L 1722 529 " fill="none" id="make-me-a-hanzi-animation-12" stroke-dasharray="757 1514" stroke-linecap="round"></path>

      <clipPath id="make-me-a-hanzi-clip-13">
      <path d="M 1477 384 Q 1732 427 1746 437 Q 1755 444 1751 454 Q 1744 467 1714 475 Q 1684 482 1653 471 Q 1583 449 1506 433 Q 1503 433 1500 432 L 1443 422 Q 1385 416 1323 411 Q 1286 407 1312 388 Q 1351 361 1414 374 Q 1417 375 1425 375 L 1477 384 Z" fill="lightgray"></path>
      </clipPath>
      <path clip-path="url(#make-me-a-hanzi-clip-13)" d="M 1315 401 L 1360 392 L 1402 394 L 1514 411 L 1691 451 L 1739 448 " fill="none" id="make-me-a-hanzi-animation-13" stroke-dasharray="559 1118" stroke-linecap="round"></path>

      <clipPath id="make-me-a-hanzi-clip-14">
      <path d="M 1571 213 Q 1640 222 1685 224 Q 1725 225 1728 237 Q 1729 250 1700 269 Q 1681 281 1573 259 L 1525 249 L 1422 234 Q 1407 233 1406 236 Q 1405 239 1411 251 L 1477 384 L 1500 432 Q 1519 481 1542 498 Q 1561 511 1551 523 Q 1503 574 1477 573 Q 1467 573 1472 552 Q 1478 519 1443 422 L 1425 375 Q 1386 279 1342 245 Q 1321 230 1334 184 Q 1338 168 1355 174 Q 1418 195 1525 207 L 1571 213 Z" fill="lightgray"></path>
      </clipPath>
      <path clip-path="url(#make-me-a-hanzi-clip-14)" d="M 1480 563 L 1507 516 L 1436 346 L 1371 219 L 1409 211 L 1667 248 L 1719 239 " fill="none" id="make-me-a-hanzi-animation-14" stroke-dasharray="861 1722" stroke-linecap="round"></path>

      <clipPath id="make-me-a-hanzi-clip-15">
      <path d="M 1523 111 Q 1382 98 1219 80 Q 1194 79 1212 57 Q 1228 41 1250 34 Q 1275 27 1294 32 Q 1393 56 1504 65 Q 1511 66 1521 66 L 1570 71 Q 1723 83 1869 73 Q 1893 73 1899 83 Q 1906 96 1886 113 Q 1825 161 1781 152 Q 1699 136 1570 118 L 1523 111 Z" fill="lightgray"></path>
      </clipPath>
      <path clip-path="url(#make-me-a-hanzi-clip-15)" d="M 1216 68 L 1283 58 L 1475 85 L 1791 115 L 1822 112 L 1886 90 " fill="none" id="make-me-a-hanzi-animation-15" stroke-dasharray="806 1612" stroke-linecap="round"></path>

      <clipPath id="make-me-a-hanzi-clip-16">
      <path d="M 1573 259 Q 1574 284 1578 299 Q 1581 311 1574 317 Q 1552 336 1533 346 Q 1521 350 1512 343 Q 1506 339 1513 330 Q 1523 312 1525 249 L 1525 207 Q 1525 159 1523 111 L 1521 66 Q 1512 -51 1505 -71 Q 1496 -107 1529 -158 Q 1539 -176 1548 -180 Q 1558 -181 1564 -169 Q 1576 -138 1573 -108 Q 1570 -14 1570 71 L 1570 118 Q 1570 166 1571 213 L 1573 259 Z" fill="lightgray"></path>
      </clipPath>
      <path clip-path="url(#make-me-a-hanzi-clip-16)" d="M 1520 337 L 1550 301 L 1538 -97 L 1550 -168 " fill="none" id="make-me-a-hanzi-animation-16" stroke-dasharray="645 1290" stroke-linecap="round"></path>

</g>
</svg>
