<svg version="1.1" viewBox="0 0 2048 1024" xmlns="http://www.w3.org/2000/svg">
  <g stroke="lightgray" stroke-dasharray="1,1" stroke-width="1" transform="scale(4, 4)">
    <line x1="0" y1="0" x2="256" y2="256"></line>
    <line x1="256" y1="0" x2="0" y2="256"></line>
    <line x1="128" y1="0" x2="128" y2="256"></line>
    <line x1="0" y1="128" x2="256" y2="128"></line>
    <line x1="256" y1="0" x2="512" y2="256"></line>
    <line x1="512" y1="0" x2="256" y2="256"></line>
    <line x1="384" y1="0" x2="384" y2="256"></line>
    <line x1="256" y1="128" x2="512" y2="128"></line>
  </g>
<g transform="scale(1, -1) translate(0, -850)">
   <style type="text/css">
    @keyframes keyframes0 {
      from {
       stroke: black;
       stroke-dashoffset: 1710;
       stroke-width: 128;
       }
       85% {
       animation-timing-function: step-end;
       stroke: black;
       stroke-dashoffset: 0;
       stroke-width: 128;
       }
       to {
       stroke: black;
       stroke-width: 1024;
       }
       }
       #make-me-a-hanzi-animation-0 {
         animation: keyframes0 1.641602s both;
         animation-delay: 0.000000s;
         animation-timing-function: linear;
       }
    @keyframes keyframes1 {
      from {
       stroke: black;
       stroke-dashoffset: 498;
       stroke-width: 128;
       }
       62% {
       animation-timing-function: step-end;
       stroke: black;
       stroke-dashoffset: 0;
       stroke-width: 128;
       }
       to {
       stroke: black;
       stroke-width: 1024;
       }
       }
       #make-me-a-hanzi-animation-1 {
         animation: keyframes1 0.655273s both;
         animation-delay: 1.641602s;
         animation-timing-function: linear;
       }
    @keyframes keyframes2 {
      from {
       stroke: black;
       stroke-dashoffset: 516;
       stroke-width: 128;
       }
       63% {
       animation-timing-function: step-end;
       stroke: black;
       stroke-dashoffset: 0;
       stroke-width: 128;
       }
       to {
       stroke: black;
       stroke-width: 1024;
       }
       }
       #make-me-a-hanzi-animation-2 {
         animation: keyframes2 0.669922s both;
         animation-delay: 2.296875s;
         animation-timing-function: linear;
       }
    @keyframes keyframes3 {
      from {
       stroke: black;
       stroke-dashoffset: 373;
       stroke-width: 128;
       }
       55% {
       animation-timing-function: step-end;
       stroke: black;
       stroke-dashoffset: 0;
       stroke-width: 128;
       }
       to {
       stroke: black;
       stroke-width: 1024;
       }
       }
       #make-me-a-hanzi-animation-3 {
         animation: keyframes3 0.553548s both;
         animation-delay: 2.966797s;
         animation-timing-function: linear;
       }
    @keyframes keyframes4 {
      from {
       stroke: black;
       stroke-dashoffset: 473;
       stroke-width: 128;
       }
       61% {
       animation-timing-function: step-end;
       stroke: black;
       stroke-dashoffset: 0;
       stroke-width: 128;
       }
       to {
       stroke: black;
       stroke-width: 1024;
       }
       }
       #make-me-a-hanzi-animation-4 {
         animation: keyframes4 0.634928s both;
         animation-delay: 3.520345s;
         animation-timing-function: linear;
       }
    @keyframes keyframes5 {
      from {
       stroke: black;
       stroke-dashoffset: 521;
       stroke-width: 128;
       }
       63% {
       animation-timing-function: step-end;
       stroke: black;
       stroke-dashoffset: 0;
       stroke-width: 128;
       }
       to {
       stroke: black;
       stroke-width: 1024;
       }
       }
       #make-me-a-hanzi-animation-5 {
         animation: keyframes5 0.673991s both;
         animation-delay: 4.155273s;
         animation-timing-function: linear;
       }
    @keyframes keyframes6 {
      from {
       stroke: black;
       stroke-dashoffset: 487;
       stroke-width: 128;
       }
       61% {
       animation-timing-function: step-end;
       stroke: black;
       stroke-dashoffset: 0;
       stroke-width: 128;
       }
       to {
       stroke: black;
       stroke-width: 1024;
       }
       }
       #make-me-a-hanzi-animation-6 {
         animation: keyframes6 0.646322s both;
         animation-delay: 4.829264s;
         animation-timing-function: linear;
       }
    @keyframes keyframes7 {
      from {
       stroke: black;
       stroke-dashoffset: 611;
       stroke-width: 128;
       }
       67% {
       animation-timing-function: step-end;
       stroke: black;
       stroke-dashoffset: 0;
       stroke-width: 128;
       }
       to {
       stroke: black;
       stroke-width: 1024;
       }
       }
       #make-me-a-hanzi-animation-7 {
         animation: keyframes7 0.747233s both;
         animation-delay: 5.475586s;
         animation-timing-function: linear;
       }
    @keyframes keyframes8 {
      from {
       stroke: black;
       stroke-dashoffset: 850;
       stroke-width: 128;
       }
       73% {
       animation-timing-function: step-end;
       stroke: black;
       stroke-dashoffset: 0;
       stroke-width: 128;
       }
       to {
       stroke: black;
       stroke-width: 1024;
       }
       }
       #make-me-a-hanzi-animation-8 {
         animation: keyframes8 0.941732s both;
         animation-delay: 6.222819s;
         animation-timing-function: linear;
       }
    @keyframes keyframes9 {
      from {
       stroke: black;
       stroke-dashoffset: 1018;
       stroke-width: 128;
       }
       77% {
       animation-timing-function: step-end;
       stroke: black;
       stroke-dashoffset: 0;
       stroke-width: 128;
       }
       to {
       stroke: black;
       stroke-width: 1024;
       }
       }
       #make-me-a-hanzi-animation-9 {
         animation: keyframes9 1.078451s both;
         animation-delay: 7.164551s;
         animation-timing-function: linear;
       }
    @keyframes keyframes10 {
      from {
       stroke: black;
       stroke-dashoffset: 350;
       stroke-width: 128;
       }
       53% {
       animation-timing-function: step-end;
       stroke: black;
       stroke-dashoffset: 0;
       stroke-width: 128;
       }
       to {
       stroke: black;
       stroke-width: 1024;
       }
       }
       #make-me-a-hanzi-animation-10 {
         animation: keyframes10 0.534831s both;
         animation-delay: 8.243001s;
         animation-timing-function: linear;
       }
    @keyframes keyframes11 {
      from {
       stroke: black;
       stroke-dashoffset: 458;
       stroke-width: 128;
       }
       60% {
       animation-timing-function: step-end;
       stroke: black;
       stroke-dashoffset: 0;
       stroke-width: 128;
       }
       to {
       stroke: black;
       stroke-width: 1024;
       }
       }
       #make-me-a-hanzi-animation-11 {
         animation: keyframes11 0.622721s both;
         animation-delay: 8.777832s;
         animation-timing-function: linear;
       }
    @keyframes keyframes12 {
      from {
       stroke: black;
       stroke-dashoffset: 1128;
       stroke-width: 128;
       }
       79% {
       animation-timing-function: step-end;
       stroke: black;
       stroke-dashoffset: 0;
       stroke-width: 128;
       }
       to {
       stroke: black;
       stroke-width: 1024;
       }
       }
       #make-me-a-hanzi-animation-12 {
         animation: keyframes12 1.167969s both;
         animation-delay: 9.400553s;
         animation-timing-function: linear;
       }
    @keyframes keyframes13 {
      from {
       stroke: black;
       stroke-dashoffset: 376;
       stroke-width: 128;
       }
       55% {
       animation-timing-function: step-end;
       stroke: black;
       stroke-dashoffset: 0;
       stroke-width: 128;
       }
       to {
       stroke: black;
       stroke-width: 1024;
       }
       }
       #make-me-a-hanzi-animation-13 {
         animation: keyframes13 0.555990s both;
         animation-delay: 10.568522s;
         animation-timing-function: linear;
       }
    @keyframes keyframes14 {
      from {
       stroke: black;
       stroke-dashoffset: 481;
       stroke-width: 128;
       }
       61% {
       animation-timing-function: step-end;
       stroke: black;
       stroke-dashoffset: 0;
       stroke-width: 128;
       }
       to {
       stroke: black;
       stroke-width: 1024;
       }
       }
       #make-me-a-hanzi-animation-14 {
         animation: keyframes14 0.641439s both;
         animation-delay: 11.124512s;
         animation-timing-function: linear;
       }
</style>
<path d="M 592 344 Q 583 530 664 593 Q 680 603 677 618 Q 673 631 606 659 Q 584 669 563 654 Q 487 609 369 578 Q 236 544 131 533 Q 106 532 121 514 Q 134 499 162 489 Q 189 479 220 495 Q 302 529 538 593 Q 562 600 559 576 Q 513 287 596 119 Q 612 86 635 61 Q 681 6 756 -29 Q 814 -57 872 -55 Q 921 -54 948 -36 Q 961 -30 955 -9 Q 931 52 914 137 Q 908 164 900 139 Q 875 36 864 25 Q 849 10 826 19 Q 688 46 629 177 Q 604 234 595 314 L 592 344 Z" fill="lightgray"></path> 
<path d="M 719 498 Q 707 476 627 378 Q 617 359 635 363 Q 695 399 766 450 Q 785 468 812 479 Q 834 489 823 509 Q 808 528 780 543 Q 755 558 740 555 Q 727 554 731 538 Q 735 519 719 498 Z" fill="lightgray"></path> 
<path d="M 595 314 Q 677 268 776 195 Q 795 179 810 177 Q 819 178 824 189 Q 834 204 813 244 Q 788 304 592 344 C 563 350 569 329 595 314 Z" fill="lightgray"></path> 
<path d="M 1247 668 Q 1263 646 1281 618 Q 1290 605 1304 602 Q 1314 601 1321 611 Q 1328 624 1326 652 Q 1323 679 1252 712 Q 1239 718 1232 717 Q 1228 714 1226 702 Q 1227 692 1247 668 Z" fill="lightgray"></path> 
<path d="M 1451 729 Q 1426 678 1370 598 Q 1366 591 1371 585 Q 1378 584 1385 590 Q 1476 681 1522 718 Q 1538 725 1533 734 Q 1526 749 1506 763 Q 1487 778 1465 777 Q 1452 776 1454 757 Q 1458 744 1451 729 Z" fill="lightgray"></path> 
<path d="M 1349 492 Q 1464 523 1468 526 Q 1475 533 1471 540 Q 1464 550 1439 555 Q 1415 559 1331 528 Q 1249 509 1210 502 Q 1179 496 1202 482 Q 1238 461 1288 478 Q 1295 481 1306 481 L 1349 492 Z" fill="lightgray"></path> 
<path d="M 1368 371 Q 1368 372 1371 372 Q 1402 378 1428 382 Q 1435 382 1443 393 Q 1443 402 1424 409 Q 1403 422 1376 415 Q 1372 415 1372 413 C 1344 402 1340 400 1319 396 Q 1300 392 1210 373 Q 1188 369 1206 356 Q 1230 338 1267 347 Q 1289 353 1317 359 L 1368 371 Z" fill="lightgray"></path> 
<path d="M 1351 257 Q 1391 269 1439 278 Q 1455 281 1455 288 Q 1455 301 1437 307 Q 1412 317 1358 300 L 1309 285 Q 1168 246 1102 235 Q 1090 234 1088 225 Q 1085 215 1100 205 Q 1136 186 1186 201 Q 1288 243 1303 243 L 1351 257 Z" fill="lightgray"></path> 
<path d="M 1303 243 Q 1273 102 1148 -10 Q 1135 -20 1131 -26 Q 1130 -33 1140 -33 Q 1173 -36 1245 31 Q 1320 103 1346 231 Q 1347 244 1351 257 L 1358 300 Q 1362 334 1368 371 L 1372 413 Q 1376 434 1380 453 Q 1387 472 1368 482 Q 1358 488 1349 492 C 1322 506 1296 509 1306 481 Q 1318 457 1319 396 L 1317 359 Q 1314 328 1309 285 L 1303 243 Z" fill="lightgray"></path> 
<path d="M 1652 230 Q 1648 500 1658 524 Q 1670 542 1660 552 Q 1641 568 1611 580 Q 1595 586 1582 580 Q 1563 567 1550 562 Q 1531 555 1490 547 Q 1477 546 1485 538 Q 1492 529 1505 525 Q 1526 521 1575 541 Q 1591 545 1596 538 Q 1617 481 1603 143 Q 1593 70 1592 68 Q 1588 64 1571 67 Q 1544 74 1517 81 Q 1499 85 1501 78 Q 1555 35 1585 3 Q 1597 -13 1609 -17 Q 1616 -21 1624 -12 Q 1657 27 1657 92 Q 1653 144 1652 205 L 1652 230 Z" fill="lightgray"></path> 
<path d="M 1494 404 Q 1542 361 1550 361 Q 1557 361 1562 371 Q 1565 381 1559 403 Q 1555 416 1535 426 Q 1487 444 1476 440 Q 1472 439 1473 428 Q 1476 421 1494 404 Z" fill="lightgray"></path> 
<path d="M 1419 208 Q 1409 207 1410 192 Q 1414 177 1438 167 Q 1462 154 1474 155 Q 1483 156 1489 176 Q 1514 215 1579 296 Q 1583 302 1581 308 Q 1578 311 1571 306 Q 1459 219 1423 209 Q 1420 209 1419 208 Z" fill="lightgray"></path> 
<path d="M 1836 332 Q 1837 79 1822 54 Q 1818 50 1799 53 Q 1766 63 1734 72 Q 1715 79 1716 70 Q 1777 19 1813 -19 Q 1826 -37 1840 -42 Q 1849 -46 1857 -36 Q 1896 15 1895 62 Q 1885 222 1884 485 Q 1883 540 1897 564 Q 1907 583 1897 593 Q 1876 611 1841 625 Q 1825 632 1809 625 Q 1767 598 1691 589 Q 1676 588 1685 580 Q 1692 570 1707 564 Q 1723 561 1799 581 Q 1818 585 1823 576 Q 1832 552 1836 353 L 1836 332 Z" fill="lightgray"></path> 
<path d="M 1697 431 Q 1722 410 1750 385 Q 1760 375 1773 376 Q 1782 376 1785 387 Q 1789 397 1782 421 Q 1773 448 1693 468 Q 1680 471 1676 469 Q 1672 465 1673 455 Q 1676 448 1697 431 Z" fill="lightgray"></path> 
<path d="M 1836 353 Q 1704 245 1681 237 Q 1653 237 1652 230 C 1638 218 1638 218 1652 205 Q 1680 177 1710 179 Q 1719 180 1725 199 Q 1756 244 1836 332 C 1856 354 1859 372 1836 353 Z" fill="lightgray"></path> 
      <clipPath id="make-me-a-hanzi-clip-0">
      <path d="M 592 344 Q 583 530 664 593 Q 680 603 677 618 Q 673 631 606 659 Q 584 669 563 654 Q 487 609 369 578 Q 236 544 131 533 Q 106 532 121 514 Q 134 499 162 489 Q 189 479 220 495 Q 302 529 538 593 Q 562 600 559 576 Q 513 287 596 119 Q 612 86 635 61 Q 681 6 756 -29 Q 814 -57 872 -55 Q 921 -54 948 -36 Q 961 -30 955 -9 Q 931 52 914 137 Q 908 164 900 139 Q 875 36 864 25 Q 849 10 826 19 Q 688 46 629 177 Q 604 234 595 314 L 592 344 Z" fill="lightgray"></path>
      </clipPath>
      <path clip-path="url(#make-me-a-hanzi-clip-0)" d="M 126 524 L 175 512 L 203 515 L 421 575 L 531 614 L 589 619 L 604 604 L 571 469 L 567 350 L 577 261 L 590 207 L 631 114 L 690 47 L 736 16 L 803 -11 L 852 -19 L 902 -4 L 905 126 " fill="none" id="make-me-a-hanzi-animation-0" stroke-dasharray="1582 3164" stroke-linecap="round"></path>

      <clipPath id="make-me-a-hanzi-clip-1">
      <path d="M 719 498 Q 707 476 627 378 Q 617 359 635 363 Q 695 399 766 450 Q 785 468 812 479 Q 834 489 823 509 Q 808 528 780 543 Q 755 558 740 555 Q 727 554 731 538 Q 735 519 719 498 Z" fill="lightgray"></path>
      </clipPath>
      <path clip-path="url(#make-me-a-hanzi-clip-1)" d="M 740 544 L 760 523 L 768 503 L 741 471 L 631 370 " fill="none" id="make-me-a-hanzi-animation-1" stroke-dasharray="370 740" stroke-linecap="round"></path>

      <clipPath id="make-me-a-hanzi-clip-2">
      <path d="M 595 314 Q 677 268 776 195 Q 795 179 810 177 Q 819 178 824 189 Q 834 204 813 244 Q 788 304 592 344 C 563 350 569 329 595 314 Z" fill="lightgray"></path>
      </clipPath>
      <path clip-path="url(#make-me-a-hanzi-clip-2)" d="M 603 338 L 609 324 L 681 295 L 757 253 L 791 222 L 808 192 " fill="none" id="make-me-a-hanzi-animation-2" stroke-dasharray="388 776" stroke-linecap="round"></path>

      <clipPath id="make-me-a-hanzi-clip-3">
      <path d="M 1247 668 Q 1263 646 1281 618 Q 1290 605 1304 602 Q 1314 601 1321 611 Q 1328 624 1326 652 Q 1323 679 1252 712 Q 1239 718 1232 717 Q 1228 714 1226 702 Q 1227 692 1247 668 Z" fill="lightgray"></path>
      </clipPath>
      <path clip-path="url(#make-me-a-hanzi-clip-3)" d="M 1236 711 L 1297 648 L 1305 620 " fill="none" id="make-me-a-hanzi-animation-3" stroke-dasharray="245 490" stroke-linecap="round"></path>

      <clipPath id="make-me-a-hanzi-clip-4">
      <path d="M 1451 729 Q 1426 678 1370 598 Q 1366 591 1371 585 Q 1378 584 1385 590 Q 1476 681 1522 718 Q 1538 725 1533 734 Q 1526 749 1506 763 Q 1487 778 1465 777 Q 1452 776 1454 757 Q 1458 744 1451 729 Z" fill="lightgray"></path>
      </clipPath>
      <path clip-path="url(#make-me-a-hanzi-clip-4)" d="M 1467 763 L 1488 734 L 1376 592 " fill="none" id="make-me-a-hanzi-animation-4" stroke-dasharray="345 690" stroke-linecap="round"></path>

      <clipPath id="make-me-a-hanzi-clip-5">
      <path d="M 1349 492 Q 1464 523 1468 526 Q 1475 533 1471 540 Q 1464 550 1439 555 Q 1415 559 1331 528 Q 1249 509 1210 502 Q 1179 496 1202 482 Q 1238 461 1288 478 Q 1295 481 1306 481 L 1349 492 Z" fill="lightgray"></path>
      </clipPath>
      <path clip-path="url(#make-me-a-hanzi-clip-5)" d="M 1204 493 L 1225 488 L 1261 491 L 1418 533 L 1463 534 " fill="none" id="make-me-a-hanzi-animation-5" stroke-dasharray="393 786" stroke-linecap="round"></path>

      <clipPath id="make-me-a-hanzi-clip-6">
      <path d="M 1368 371 Q 1368 372 1371 372 Q 1402 378 1428 382 Q 1435 382 1443 393 Q 1443 402 1424 409 Q 1403 422 1376 415 Q 1372 415 1372 413 C 1344 402 1340 400 1319 396 Q 1300 392 1210 373 Q 1188 369 1206 356 Q 1230 338 1267 347 Q 1289 353 1317 359 L 1368 371 Z" fill="lightgray"></path>
      </clipPath>
      <path clip-path="url(#make-me-a-hanzi-clip-6)" d="M 1207 365 L 1242 361 L 1371 393 L 1434 394 " fill="none" id="make-me-a-hanzi-animation-6" stroke-dasharray="359 718" stroke-linecap="round"></path>

      <clipPath id="make-me-a-hanzi-clip-7">
      <path d="M 1351 257 Q 1391 269 1439 278 Q 1455 281 1455 288 Q 1455 301 1437 307 Q 1412 317 1358 300 L 1309 285 Q 1168 246 1102 235 Q 1090 234 1088 225 Q 1085 215 1100 205 Q 1136 186 1186 201 Q 1288 243 1303 243 L 1351 257 Z" fill="lightgray"></path>
      </clipPath>
      <path clip-path="url(#make-me-a-hanzi-clip-7)" d="M 1101 222 L 1158 220 L 1373 285 L 1418 293 L 1445 290 " fill="none" id="make-me-a-hanzi-animation-7" stroke-dasharray="483 966" stroke-linecap="round"></path>

      <clipPath id="make-me-a-hanzi-clip-8">
      <path d="M 1303 243 Q 1273 102 1148 -10 Q 1135 -20 1131 -26 Q 1130 -33 1140 -33 Q 1173 -36 1245 31 Q 1320 103 1346 231 Q 1347 244 1351 257 L 1358 300 Q 1362 334 1368 371 L 1372 413 Q 1376 434 1380 453 Q 1387 472 1368 482 Q 1358 488 1349 492 C 1322 506 1296 509 1306 481 Q 1318 457 1319 396 L 1317 359 Q 1314 328 1309 285 L 1303 243 Z" fill="lightgray"></path>
      </clipPath>
      <path clip-path="url(#make-me-a-hanzi-clip-8)" d="M 1314 479 L 1345 458 L 1347 439 L 1330 268 L 1310 181 L 1274 103 L 1224 37 L 1170 -10 L 1138 -26 " fill="none" id="make-me-a-hanzi-animation-8" stroke-dasharray="722 1444" stroke-linecap="round"></path>

      <clipPath id="make-me-a-hanzi-clip-9">
      <path d="M 1652 230 Q 1648 500 1658 524 Q 1670 542 1660 552 Q 1641 568 1611 580 Q 1595 586 1582 580 Q 1563 567 1550 562 Q 1531 555 1490 547 Q 1477 546 1485 538 Q 1492 529 1505 525 Q 1526 521 1575 541 Q 1591 545 1596 538 Q 1617 481 1603 143 Q 1593 70 1592 68 Q 1588 64 1571 67 Q 1544 74 1517 81 Q 1499 85 1501 78 Q 1555 35 1585 3 Q 1597 -13 1609 -17 Q 1616 -21 1624 -12 Q 1657 27 1657 92 Q 1653 144 1652 205 L 1652 230 Z" fill="lightgray"></path>
      </clipPath>
      <path clip-path="url(#make-me-a-hanzi-clip-9)" d="M 1494 539 L 1530 540 L 1593 562 L 1609 557 L 1629 536 L 1631 244 L 1622 56 L 1608 33 L 1510 75 " fill="none" id="make-me-a-hanzi-animation-9" stroke-dasharray="890 1780" stroke-linecap="round"></path>

      <clipPath id="make-me-a-hanzi-clip-10">
      <path d="M 1494 404 Q 1542 361 1550 361 Q 1557 361 1562 371 Q 1565 381 1559 403 Q 1555 416 1535 426 Q 1487 444 1476 440 Q 1472 439 1473 428 Q 1476 421 1494 404 Z" fill="lightgray"></path>
      </clipPath>
      <path clip-path="url(#make-me-a-hanzi-clip-10)" d="M 1481 432 L 1529 404 L 1551 372 " fill="none" id="make-me-a-hanzi-animation-10" stroke-dasharray="222 444" stroke-linecap="round"></path>

      <clipPath id="make-me-a-hanzi-clip-11">
      <path d="M 1419 208 Q 1409 207 1410 192 Q 1414 177 1438 167 Q 1462 154 1474 155 Q 1483 156 1489 176 Q 1514 215 1579 296 Q 1583 302 1581 308 Q 1578 311 1571 306 Q 1459 219 1423 209 Q 1420 209 1419 208 Z" fill="lightgray"></path>
      </clipPath>
      <path clip-path="url(#make-me-a-hanzi-clip-11)" d="M 1421 196 L 1458 190 L 1577 303 " fill="none" id="make-me-a-hanzi-animation-11" stroke-dasharray="330 660" stroke-linecap="round"></path>

      <clipPath id="make-me-a-hanzi-clip-12">
      <path d="M 1836 332 Q 1837 79 1822 54 Q 1818 50 1799 53 Q 1766 63 1734 72 Q 1715 79 1716 70 Q 1777 19 1813 -19 Q 1826 -37 1840 -42 Q 1849 -46 1857 -36 Q 1896 15 1895 62 Q 1885 222 1884 485 Q 1883 540 1897 564 Q 1907 583 1897 593 Q 1876 611 1841 625 Q 1825 632 1809 625 Q 1767 598 1691 589 Q 1676 588 1685 580 Q 1692 570 1707 564 Q 1723 561 1799 581 Q 1818 585 1823 576 Q 1832 552 1836 353 L 1836 332 Z" fill="lightgray"></path>
      </clipPath>
      <path clip-path="url(#make-me-a-hanzi-clip-12)" d="M 1694 580 L 1729 579 L 1821 605 L 1848 591 L 1861 574 L 1858 47 L 1839 15 L 1810 23 L 1725 67 " fill="none" id="make-me-a-hanzi-animation-12" stroke-dasharray="1000 2000" stroke-linecap="round"></path>

      <clipPath id="make-me-a-hanzi-clip-13">
      <path d="M 1697 431 Q 1722 410 1750 385 Q 1760 375 1773 376 Q 1782 376 1785 387 Q 1789 397 1782 421 Q 1773 448 1693 468 Q 1680 471 1676 469 Q 1672 465 1673 455 Q 1676 448 1697 431 Z" fill="lightgray"></path>
      </clipPath>
      <path clip-path="url(#make-me-a-hanzi-clip-13)" d="M 1680 461 L 1743 425 L 1773 388 " fill="none" id="make-me-a-hanzi-animation-13" stroke-dasharray="248 496" stroke-linecap="round"></path>

      <clipPath id="make-me-a-hanzi-clip-14">
      <path d="M 1836 353 Q 1704 245 1681 237 Q 1653 237 1652 230 C 1638 218 1638 218 1652 205 Q 1680 177 1710 179 Q 1719 180 1725 199 Q 1756 244 1836 332 C 1856 354 1859 372 1836 353 Z" fill="lightgray"></path>
      </clipPath>
      <path clip-path="url(#make-me-a-hanzi-clip-14)" d="M 1662 224 L 1686 211 L 1702 215 L 1795 308 L 1809 315 L 1811 325 L 1825 328 L 1827 337 " fill="none" id="make-me-a-hanzi-animation-14" stroke-dasharray="353 706" stroke-linecap="round"></path>

</g>
</svg>
