<svg version="1.1" viewBox="0 0 2048 1024" xmlns="http://www.w3.org/2000/svg">
  <g stroke="lightgray" stroke-dasharray="1,1" stroke-width="1" transform="scale(4, 4)">
    <line x1="0" y1="0" x2="256" y2="256"></line>
    <line x1="256" y1="0" x2="0" y2="256"></line>
    <line x1="128" y1="0" x2="128" y2="256"></line>
    <line x1="0" y1="128" x2="256" y2="128"></line>
    <line x1="256" y1="0" x2="512" y2="256"></line>
    <line x1="512" y1="0" x2="256" y2="256"></line>
    <line x1="384" y1="0" x2="384" y2="256"></line>
    <line x1="256" y1="128" x2="512" y2="128"></line>
  </g>
<g transform="scale(1, -1) translate(0, -850)">
   <style type="text/css">
    @keyframes keyframes0 {
      from {
       stroke: black;
       stroke-dashoffset: 398;
       stroke-width: 128;
       }
       56% {
       animation-timing-function: step-end;
       stroke: black;
       stroke-dashoffset: 0;
       stroke-width: 128;
       }
       to {
       stroke: black;
       stroke-width: 1024;
       }
       }
       #make-me-a-hanzi-animation-0 {
         animation: keyframes0 0.573893s both;
         animation-delay: 0.000000s;
         animation-timing-function: linear;
       }
    @keyframes keyframes1 {
      from {
       stroke: black;
       stroke-dashoffset: 879;
       stroke-width: 128;
       }
       74% {
       animation-timing-function: step-end;
       stroke: black;
       stroke-dashoffset: 0;
       stroke-width: 128;
       }
       to {
       stroke: black;
       stroke-width: 1024;
       }
       }
       #make-me-a-hanzi-animation-1 {
         animation: keyframes1 0.965332s both;
         animation-delay: 0.573893s;
         animation-timing-function: linear;
       }
    @keyframes keyframes2 {
      from {
       stroke: black;
       stroke-dashoffset: 437;
       stroke-width: 128;
       }
       59% {
       animation-timing-function: step-end;
       stroke: black;
       stroke-dashoffset: 0;
       stroke-width: 128;
       }
       to {
       stroke: black;
       stroke-width: 1024;
       }
       }
       #make-me-a-hanzi-animation-2 {
         animation: keyframes2 0.605632s both;
         animation-delay: 1.539225s;
         animation-timing-function: linear;
       }
    @keyframes keyframes3 {
      from {
       stroke: black;
       stroke-dashoffset: 576;
       stroke-width: 128;
       }
       65% {
       animation-timing-function: step-end;
       stroke: black;
       stroke-dashoffset: 0;
       stroke-width: 128;
       }
       to {
       stroke: black;
       stroke-width: 1024;
       }
       }
       #make-me-a-hanzi-animation-3 {
         animation: keyframes3 0.718750s both;
         animation-delay: 2.144857s;
         animation-timing-function: linear;
       }
    @keyframes keyframes4 {
      from {
       stroke: black;
       stroke-dashoffset: 448;
       stroke-width: 128;
       }
       59% {
       animation-timing-function: step-end;
       stroke: black;
       stroke-dashoffset: 0;
       stroke-width: 128;
       }
       to {
       stroke: black;
       stroke-width: 1024;
       }
       }
       #make-me-a-hanzi-animation-4 {
         animation: keyframes4 0.614583s both;
         animation-delay: 2.863607s;
         animation-timing-function: linear;
       }
    @keyframes keyframes5 {
      from {
       stroke: black;
       stroke-dashoffset: 633;
       stroke-width: 128;
       }
       67% {
       animation-timing-function: step-end;
       stroke: black;
       stroke-dashoffset: 0;
       stroke-width: 128;
       }
       to {
       stroke: black;
       stroke-width: 1024;
       }
       }
       #make-me-a-hanzi-animation-5 {
         animation: keyframes5 0.765137s both;
         animation-delay: 3.478190s;
         animation-timing-function: linear;
       }
    @keyframes keyframes6 {
      from {
       stroke: black;
       stroke-dashoffset: 1358;
       stroke-width: 128;
       }
       82% {
       animation-timing-function: step-end;
       stroke: black;
       stroke-dashoffset: 0;
       stroke-width: 128;
       }
       to {
       stroke: black;
       stroke-width: 1024;
       }
       }
       #make-me-a-hanzi-animation-6 {
         animation: keyframes6 1.355143s both;
         animation-delay: 4.243327s;
         animation-timing-function: linear;
       }
    @keyframes keyframes7 {
      from {
       stroke: black;
       stroke-dashoffset: 433;
       stroke-width: 128;
       }
       58% {
       animation-timing-function: step-end;
       stroke: black;
       stroke-dashoffset: 0;
       stroke-width: 128;
       }
       to {
       stroke: black;
       stroke-width: 1024;
       }
       }
       #make-me-a-hanzi-animation-7 {
         animation: keyframes7 0.602376s both;
         animation-delay: 5.598470s;
         animation-timing-function: linear;
       }
    @keyframes keyframes8 {
      from {
       stroke: black;
       stroke-dashoffset: 563;
       stroke-width: 128;
       }
       65% {
       animation-timing-function: step-end;
       stroke: black;
       stroke-dashoffset: 0;
       stroke-width: 128;
       }
       to {
       stroke: black;
       stroke-width: 1024;
       }
       }
       #make-me-a-hanzi-animation-8 {
         animation: keyframes8 0.708171s both;
         animation-delay: 6.200846s;
         animation-timing-function: linear;
       }
    @keyframes keyframes9 {
      from {
       stroke: black;
       stroke-dashoffset: 438;
       stroke-width: 128;
       }
       59% {
       animation-timing-function: step-end;
       stroke: black;
       stroke-dashoffset: 0;
       stroke-width: 128;
       }
       to {
       stroke: black;
       stroke-width: 1024;
       }
       }
       #make-me-a-hanzi-animation-9 {
         animation: keyframes9 0.606445s both;
         animation-delay: 6.909017s;
         animation-timing-function: linear;
       }
    @keyframes keyframes10 {
      from {
       stroke: black;
       stroke-dashoffset: 664;
       stroke-width: 128;
       }
       68% {
       animation-timing-function: step-end;
       stroke: black;
       stroke-dashoffset: 0;
       stroke-width: 128;
       }
       to {
       stroke: black;
       stroke-width: 1024;
       }
       }
       #make-me-a-hanzi-animation-10 {
         animation: keyframes10 0.790365s both;
         animation-delay: 7.515462s;
         animation-timing-function: linear;
       }
    @keyframes keyframes11 {
      from {
       stroke: black;
       stroke-dashoffset: 728;
       stroke-width: 128;
       }
       70% {
       animation-timing-function: step-end;
       stroke: black;
       stroke-dashoffset: 0;
       stroke-width: 128;
       }
       to {
       stroke: black;
       stroke-width: 1024;
       }
       }
       #make-me-a-hanzi-animation-11 {
         animation: keyframes11 0.842448s both;
         animation-delay: 8.305827s;
         animation-timing-function: linear;
       }
    @keyframes keyframes12 {
      from {
       stroke: black;
       stroke-dashoffset: 1021;
       stroke-width: 128;
       }
       77% {
       animation-timing-function: step-end;
       stroke: black;
       stroke-dashoffset: 0;
       stroke-width: 128;
       }
       to {
       stroke: black;
       stroke-width: 1024;
       }
       }
       #make-me-a-hanzi-animation-12 {
         animation: keyframes12 1.080892s both;
         animation-delay: 9.148275s;
         animation-timing-function: linear;
       }
    @keyframes keyframes13 {
      from {
       stroke: black;
       stroke-dashoffset: 1060;
       stroke-width: 128;
       }
       78% {
       animation-timing-function: step-end;
       stroke: black;
       stroke-dashoffset: 0;
       stroke-width: 128;
       }
       to {
       stroke: black;
       stroke-width: 1024;
       }
       }
       #make-me-a-hanzi-animation-13 {
         animation: keyframes13 1.112630s both;
         animation-delay: 10.229167s;
         animation-timing-function: linear;
       }
</style>
<path d="M 543 647 L 548 658 L 550 672 Q 555 716 513 737 L 487 747 L 449 757 Q 432 760 427 756 Q 423 752 432 738 L 455 705 Q 458 699 474 678 Q 490 657 494 653 L 504 642 C 524 620 531 620 543 647 Z" fill="lightgray"></path> 
<path d="M 633 613 L 665 615 L 762 616 Q 788 617 803 623 Q 827 636 806 649 Q 796 658 775 668 Q 754 678 742 678 Q 730 678 709 672 Q 688 665 671 664 L 570 649 L 543 647 L 504 642 L 306 617 L 187 607 Q 181 606 179 603 Q 178 600 182 592 Q 186 583 202 575 Q 218 567 218 566 L 236 560 Q 249 556 255 556 L 283 567 L 306 573 L 347 581 Q 441 596 522 605 Q 604 613 633 613 Z" fill="lightgray"></path> 
<path d="M 386 377 L 386 375 L 395 361 Q 402 354 403 352 Q 408 350 409 351 Q 414 351 416 356 Q 419 360 424 377 L 422 406 L 417 486 C 415 511 415 511 395 516 L 357 525 Q 354 526 346 524 Q 339 522 337 517 Q 336 512 341 509 Q 346 506 347 504 Q 365 488 369 466 L 378 414 L 381 405 Q 382 399 382 392 Q 382 384 386 377 Z" fill="lightgray"></path> 
<path d="M 603 408 L 634 460 Q 640 471 654 481 Q 669 490 667 496 Q 665 502 638 524 Q 611 546 590 546 Q 582 547 558 541 L 548 538 L 395 516 C 365 512 389 477 417 486 L 432 491 Q 504 508 544 508 L 563 506 Q 573 505 575 500 Q 578 488 571 462 L 558 414 C 550 385 588 382 603 408 Z" fill="lightgray"></path> 
<path d="M 424 377 L 441 375 Q 459 374 496 378 Q 534 382 573 380 L 598 380 Q 615 380 623 382 Q 632 389 620 396 L 603 408 C 592 415 588 415 558 414 L 512 412 Q 486 408 471 408 Q 463 407 448 407 L 422 406 C 392 405 394 381 424 377 Z" fill="lightgray"></path> 
<path d="M 217 280 L 184 292 Q 162 301 148 290 Q 144 278 154 264 Q 165 249 167 240 Q 171 232 174 214 L 183 169 L 189 74 Q 190 69 188 31 L 184 -28 Q 184 -42 198 -63 Q 213 -84 219 -84 Q 226 -85 233 -72 Q 249 -40 249 -18 L 233 242 C 231 272 231 275 217 280 Z" fill="lightgray"></path> 
<path d="M 711 -16 L 675 -4 Q 664 1 663 0 L 640 9 Q 634 12 629 10 Q 625 7 630 2 L 667 -42 L 687 -70 Q 692 -77 701 -97 Q 711 -117 717 -120 Q 724 -123 744 -115 Q 764 -107 778 -92 Q 793 -77 807 -49 Q 822 -21 825 0 Q 829 21 835 67 L 843 171 Q 843 176 844 179 L 846 193 Q 853 233 859 246 L 871 267 Q 871 270 874 276 Q 874 289 833 313 Q 793 337 787 338 Q 781 339 769 336 Q 757 333 724 328 L 667 322 Q 584 315 485 304 L 217 280 C 187 277 203 237 233 242 L 281 250 Q 331 257 340 257 L 462 269 L 726 286 Q 764 287 771 280 Q 779 273 782 262 Q 786 251 785 207 L 784 148 Q 782 111 775 74 Q 759 -11 738 -18 Q 728 -22 711 -16 Z" fill="lightgray"></path> 
<path d="M 419 35 L 427 54 C 428 56 426 52 424 82 L 418 162 C 416 189 416 189 398 193 L 362 201 Q 360 202 353 201 Q 346 199 344 195 Q 342 190 346 186 L 357 178 Q 360 176 366 164 L 373 143 L 387 64 Q 395 28 410 28 Q 415 28 419 35 Z" fill="lightgray"></path> 
<path d="M 592 85 L 623 137 Q 627 147 638 156 Q 649 162 651 164 Q 653 171 651 176 Q 650 180 636 192 Q 596 230 563 219 L 531 212 L 398 193 C 368 189 390 152 418 162 L 432 167 Q 436 171 499 180 Q 562 189 567 176 Q 570 167 563 138 L 550 90 C 542 61 577 59 592 85 Z" fill="lightgray"></path> 
<path d="M 427 54 L 441 52 Q 452 50 483 54 Q 514 57 565 57 L 589 57 Q 607 57 613 59 L 615 65 Q 615 68 609 74 L 592 85 L 550 90 L 537 91 L 536 90 L 511 89 L 452 83 Q 432 84 424 82 C 394 77 397 58 427 54 Z" fill="lightgray"></path> 
<path d="M 1539 618 L 1631 656 L 1652 666 Q 1654 666 1674 671 Q 1694 676 1681 697 Q 1675 707 1670 712 L 1647 728 Q 1627 741 1619 742 Q 1611 743 1603 732 Q 1582 703 1544 681 L 1497 653 Q 1488 647 1457 633 L 1408 612 L 1359 594 Q 1339 587 1320 584 L 1288 575 Q 1283 572 1285 570 Q 1285 563 1297 565 L 1323 566 Q 1336 565 1369 570 L 1416 577 L 1494 599 L 1539 618 Z" fill="lightgray"></path> 
<path d="M 1575 444 L 1605 448 Q 1637 451 1689 462 L 1731 471 L 1754 479 Q 1764 484 1765 487 Q 1765 492 1761 496 Q 1759 502 1745 508 Q 1714 528 1683 516 L 1614 499 L 1572 491 L 1517 482 L 1447 470 Q 1435 470 1413 466 L 1369 459 L 1297 451 Q 1285 450 1284 447 Q 1283 443 1291 432 Q 1305 423 1319 418 Q 1333 413 1389 419 L 1441 426 L 1485 430 L 1519 435 L 1575 444 Z" fill="lightgray"></path> 
<path d="M 1204 296 L 1170 294 Q 1163 294 1150 292 Q 1139 289 1143 280 Q 1148 271 1161 264 L 1181 254 L 1204 247 Q 1212 243 1224 245 L 1343 268 Q 1358 272 1402 276 L 1525 290 L 1577 295 L 1798 302 L 1875 302 Q 1900 302 1911 303 Q 1923 304 1925 310 Q 1930 324 1911 336 Q 1885 349 1860 358 L 1838 362 Q 1825 362 1812 358 Q 1788 355 1760 350 Q 1733 345 1691 342 L 1577 331 L 1523 327 L 1270 301 Q 1225 296 1204 296 Z" fill="lightgray"></path> 
<path d="M 1525 290 L 1525 228 L 1523 172 L 1512 40 Q 1505 -19 1492 -23 Q 1486 -25 1479 -24 L 1459 -18 L 1436 -14 L 1411 -6 Q 1402 -3 1399 -6 Q 1397 -10 1404 -16 L 1427 -36 L 1471 -78 L 1493 -106 Q 1505 -119 1511 -119 Q 1517 -120 1529 -112 Q 1549 -93 1563 -43 Q 1569 -22 1571 14 Q 1575 51 1576 88 L 1576 124 Q 1576 145 1578 161 L 1577 295 L 1577 331 L 1575 444 L 1572 491 L 1567 597 Q 1565 603 1559 606 L 1550 610 L 1539 618 C 1513 633 1483 627 1494 599 L 1504 573 Q 1508 559 1509 543 Q 1514 526 1517 482 L 1519 435 L 1523 327 L 1525 290 Z" fill="lightgray"></path> 
      <clipPath id="make-me-a-hanzi-clip-0">
      <path d="M 543 647 L 548 658 L 550 672 Q 555 716 513 737 L 487 747 L 449 757 Q 432 760 427 756 Q 423 752 432 738 L 455 705 Q 458 699 474 678 Q 490 657 494 653 L 504 642 C 524 620 531 620 543 647 Z" fill="lightgray"></path>
      </clipPath>
      <path clip-path="url(#make-me-a-hanzi-clip-0)" d="M 432 752 L 502 702 L 535 657 " fill="none" id="make-me-a-hanzi-animation-0" stroke-dasharray="270 540" stroke-linecap="round"></path>

      <clipPath id="make-me-a-hanzi-clip-1">
      <path d="M 633 613 L 665 615 L 762 616 Q 788 617 803 623 Q 827 636 806 649 Q 796 658 775 668 Q 754 678 742 678 Q 730 678 709 672 Q 688 665 671 664 L 570 649 L 543 647 L 504 642 L 306 617 L 187 607 Q 181 606 179 603 Q 178 600 182 592 Q 186 583 202 575 Q 218 567 218 566 L 236 560 Q 249 556 255 556 L 283 567 L 306 573 L 347 581 Q 441 596 522 605 Q 604 613 633 613 Z" fill="lightgray"></path>
      </clipPath>
      <path clip-path="url(#make-me-a-hanzi-clip-1)" d="M 186 599 L 249 585 L 468 619 L 733 647 L 803 636 " fill="none" id="make-me-a-hanzi-animation-1" stroke-dasharray="751 1502" stroke-linecap="round"></path>

      <clipPath id="make-me-a-hanzi-clip-2">
      <path d="M 386 377 L 386 375 L 395 361 Q 402 354 403 352 Q 408 350 409 351 Q 414 351 416 356 Q 419 360 424 377 L 422 406 L 417 486 C 415 511 415 511 395 516 L 357 525 Q 354 526 346 524 Q 339 522 337 517 Q 336 512 341 509 Q 346 506 347 504 Q 365 488 369 466 L 378 414 L 381 405 Q 382 399 382 392 Q 382 384 386 377 Z" fill="lightgray"></path>
      </clipPath>
      <path clip-path="url(#make-me-a-hanzi-clip-2)" d="M 345 516 L 382 496 L 392 477 L 408 361 " fill="none" id="make-me-a-hanzi-animation-2" stroke-dasharray="309 618" stroke-linecap="round"></path>

      <clipPath id="make-me-a-hanzi-clip-3">
      <path d="M 603 408 L 634 460 Q 640 471 654 481 Q 669 490 667 496 Q 665 502 638 524 Q 611 546 590 546 Q 582 547 558 541 L 548 538 L 395 516 C 365 512 389 477 417 486 L 432 491 Q 504 508 544 508 L 563 506 Q 573 505 575 500 Q 578 488 571 462 L 558 414 C 550 385 588 382 603 408 Z" fill="lightgray"></path>
      </clipPath>
      <path clip-path="url(#make-me-a-hanzi-clip-3)" d="M 403 514 L 423 505 L 569 525 L 598 517 L 612 499 L 611 486 L 590 435 L 566 418 " fill="none" id="make-me-a-hanzi-animation-3" stroke-dasharray="448 896" stroke-linecap="round"></path>

      <clipPath id="make-me-a-hanzi-clip-4">
      <path d="M 424 377 L 441 375 Q 459 374 496 378 Q 534 382 573 380 L 598 380 Q 615 380 623 382 Q 632 389 620 396 L 603 408 C 592 415 588 415 558 414 L 512 412 Q 486 408 471 408 Q 463 407 448 407 L 422 406 C 392 405 394 381 424 377 Z" fill="lightgray"></path>
      </clipPath>
      <path clip-path="url(#make-me-a-hanzi-clip-4)" d="M 429 399 L 439 391 L 563 397 L 617 388 " fill="none" id="make-me-a-hanzi-animation-4" stroke-dasharray="320 640" stroke-linecap="round"></path>

      <clipPath id="make-me-a-hanzi-clip-5">
      <path d="M 217 280 L 184 292 Q 162 301 148 290 Q 144 278 154 264 Q 165 249 167 240 Q 171 232 174 214 L 183 169 L 189 74 Q 190 69 188 31 L 184 -28 Q 184 -42 198 -63 Q 213 -84 219 -84 Q 226 -85 233 -72 Q 249 -40 249 -18 L 233 242 C 231 272 231 275 217 280 Z" fill="lightgray"></path>
      </clipPath>
      <path clip-path="url(#make-me-a-hanzi-clip-5)" d="M 158 283 L 194 256 L 203 232 L 213 141 L 219 -74 " fill="none" id="make-me-a-hanzi-animation-5" stroke-dasharray="505 1010" stroke-linecap="round"></path>

      <clipPath id="make-me-a-hanzi-clip-6">
      <path d="M 711 -16 L 675 -4 Q 664 1 663 0 L 640 9 Q 634 12 629 10 Q 625 7 630 2 L 667 -42 L 687 -70 Q 692 -77 701 -97 Q 711 -117 717 -120 Q 724 -123 744 -115 Q 764 -107 778 -92 Q 793 -77 807 -49 Q 822 -21 825 0 Q 829 21 835 67 L 843 171 Q 843 176 844 179 L 846 193 Q 853 233 859 246 L 871 267 Q 871 270 874 276 Q 874 289 833 313 Q 793 337 787 338 Q 781 339 769 336 Q 757 333 724 328 L 667 322 Q 584 315 485 304 L 217 280 C 187 277 203 237 233 242 L 281 250 Q 331 257 340 257 L 462 269 L 726 286 Q 764 287 771 280 Q 779 273 782 262 Q 786 251 785 207 L 784 148 Q 782 111 775 74 Q 759 -11 738 -18 Q 728 -22 711 -16 Z" fill="lightgray"></path>
      </clipPath>
      <path clip-path="url(#make-me-a-hanzi-clip-6)" d="M 225 276 L 248 263 L 690 305 L 769 309 L 794 301 L 823 267 L 804 62 L 779 -27 L 756 -55 L 738 -65 L 634 7 " fill="none" id="make-me-a-hanzi-animation-6" stroke-dasharray="1230 2460" stroke-linecap="round"></path>

      <clipPath id="make-me-a-hanzi-clip-7">
      <path d="M 419 35 L 427 54 C 428 56 426 52 424 82 L 418 162 C 416 189 416 189 398 193 L 362 201 Q 360 202 353 201 Q 346 199 344 195 Q 342 190 346 186 L 357 178 Q 360 176 366 164 L 373 143 L 387 64 Q 395 28 410 28 Q 415 28 419 35 Z" fill="lightgray"></path>
      </clipPath>
      <path clip-path="url(#make-me-a-hanzi-clip-7)" d="M 352 192 L 385 174 L 395 154 L 409 38 " fill="none" id="make-me-a-hanzi-animation-7" stroke-dasharray="305 610" stroke-linecap="round"></path>

      <clipPath id="make-me-a-hanzi-clip-8">
      <path d="M 592 85 L 623 137 Q 627 147 638 156 Q 649 162 651 164 Q 653 171 651 176 Q 650 180 636 192 Q 596 230 563 219 L 531 212 L 398 193 C 368 189 390 152 418 162 L 432 167 Q 436 171 499 180 Q 562 189 567 176 Q 570 167 563 138 L 550 90 C 542 61 577 59 592 85 Z" fill="lightgray"></path>
      </clipPath>
      <path clip-path="url(#make-me-a-hanzi-clip-8)" d="M 406 191 L 428 182 L 550 200 L 573 200 L 589 193 L 604 173 L 580 110 L 558 94 " fill="none" id="make-me-a-hanzi-animation-8" stroke-dasharray="435 870" stroke-linecap="round"></path>

      <clipPath id="make-me-a-hanzi-clip-9">
      <path d="M 427 54 L 441 52 Q 452 50 483 54 Q 514 57 565 57 L 589 57 Q 607 57 613 59 L 615 65 Q 615 68 609 74 L 592 85 L 550 90 L 537 91 L 536 90 L 511 89 L 452 83 Q 432 84 424 82 C 394 77 397 58 427 54 Z" fill="lightgray"></path>
      </clipPath>
      <path clip-path="url(#make-me-a-hanzi-clip-9)" d="M 430 76 L 447 67 L 543 74 L 583 72 L 608 64 " fill="none" id="make-me-a-hanzi-animation-9" stroke-dasharray="310 620" stroke-linecap="round"></path>

      <clipPath id="make-me-a-hanzi-clip-10">
      <path d="M 1539 618 L 1631 656 L 1652 666 Q 1654 666 1674 671 Q 1694 676 1681 697 Q 1675 707 1670 712 L 1647 728 Q 1627 741 1619 742 Q 1611 743 1603 732 Q 1582 703 1544 681 L 1497 653 Q 1488 647 1457 633 L 1408 612 L 1359 594 Q 1339 587 1320 584 L 1288 575 Q 1283 572 1285 570 Q 1285 563 1297 565 L 1323 566 Q 1336 565 1369 570 L 1416 577 L 1494 599 L 1539 618 Z" fill="lightgray"></path>
      </clipPath>
      <path clip-path="url(#make-me-a-hanzi-clip-10)" d="M 1672 685 L 1624 696 L 1574 664 L 1456 609 L 1375 584 L 1292 569 " fill="none" id="make-me-a-hanzi-animation-10" stroke-dasharray="536 1072" stroke-linecap="round"></path>

      <clipPath id="make-me-a-hanzi-clip-11">
      <path d="M 1575 444 L 1605 448 Q 1637 451 1689 462 L 1731 471 L 1754 479 Q 1764 484 1765 487 Q 1765 492 1761 496 Q 1759 502 1745 508 Q 1714 528 1683 516 L 1614 499 L 1572 491 L 1517 482 L 1447 470 Q 1435 470 1413 466 L 1369 459 L 1297 451 Q 1285 450 1284 447 Q 1283 443 1291 432 Q 1305 423 1319 418 Q 1333 413 1389 419 L 1441 426 L 1485 430 L 1519 435 L 1575 444 Z" fill="lightgray"></path>
      </clipPath>
      <path clip-path="url(#make-me-a-hanzi-clip-11)" d="M 1292 446 L 1304 438 L 1358 436 L 1619 474 L 1704 493 L 1756 488 " fill="none" id="make-me-a-hanzi-animation-11" stroke-dasharray="600 1200" stroke-linecap="round"></path>

      <clipPath id="make-me-a-hanzi-clip-12">
      <path d="M 1204 296 L 1170 294 Q 1163 294 1150 292 Q 1139 289 1143 280 Q 1148 271 1161 264 L 1181 254 L 1204 247 Q 1212 243 1224 245 L 1343 268 Q 1358 272 1402 276 L 1525 290 L 1577 295 L 1798 302 L 1875 302 Q 1900 302 1911 303 Q 1923 304 1925 310 Q 1930 324 1911 336 Q 1885 349 1860 358 L 1838 362 Q 1825 362 1812 358 Q 1788 355 1760 350 Q 1733 345 1691 342 L 1577 331 L 1523 327 L 1270 301 Q 1225 296 1204 296 Z" fill="lightgray"></path>
      </clipPath>
      <path clip-path="url(#make-me-a-hanzi-clip-12)" d="M 1154 282 L 1215 270 L 1500 306 L 1834 332 L 1913 316 " fill="none" id="make-me-a-hanzi-animation-12" stroke-dasharray="893 1786" stroke-linecap="round"></path>

      <clipPath id="make-me-a-hanzi-clip-13">
      <path d="M 1525 290 L 1525 228 L 1523 172 L 1512 40 Q 1505 -19 1492 -23 Q 1486 -25 1479 -24 L 1459 -18 L 1436 -14 L 1411 -6 Q 1402 -3 1399 -6 Q 1397 -10 1404 -16 L 1427 -36 L 1471 -78 L 1493 -106 Q 1505 -119 1511 -119 Q 1517 -120 1529 -112 Q 1549 -93 1563 -43 Q 1569 -22 1571 14 Q 1575 51 1576 88 L 1576 124 Q 1576 145 1578 161 L 1577 295 L 1577 331 L 1575 444 L 1572 491 L 1567 597 Q 1565 603 1559 606 L 1550 610 L 1539 618 C 1513 633 1483 627 1494 599 L 1504 573 Q 1508 559 1509 543 Q 1514 526 1517 482 L 1519 435 L 1523 327 L 1525 290 Z" fill="lightgray"></path>
      </clipPath>
      <path clip-path="url(#make-me-a-hanzi-clip-13)" d="M 1502 595 L 1535 581 L 1547 450 L 1552 213 L 1537 -7 L 1526 -42 L 1512 -61 L 1405 -9 " fill="none" id="make-me-a-hanzi-animation-13" stroke-dasharray="932 1864" stroke-linecap="round"></path>

</g>
</svg>
