<?xml version="1.0" standalone="no"?>
<!DOCTYPE svg PUBLIC "-//W3C//DTD SVG 1.1//EN"
 "http://www.w3.org/Graphics/SVG/1.1/DTD/svg11.dtd">
<!-- generate by Japanese dictionary app com.asnsami.kanjidictionary -->

<svg xmlns="http://www.w3.org/2000/svg" xmlns:sodipodi="http://sodipodi.sourceforge.net/DTD/sodipodi-0.dtd" version="1.1" width="640" height="128" viewBox="0 0 5120 1024">
	<g id="id0:id0" transform="translate(0.0,0)">
		<g id="id0:id0:id0" transform="matrix(1.0,0,0,1.0,0,0.0)">			<g stroke="lightgray" stroke-width="4" transform="scale(4, 4)"> <rect x="0" y="0" width="256" height="256" fill="white" stroke-width="4"/></g>
			<g transform="scale(0.92, -0.92) translate(60, -920)">					<path d="M 343 510 Q 467 561 522 591 Q 588 621 611 626 Q 634 631 638 633.5 Q 642 636 644 643.5 Q 646 651 639.5 658 Q 633 665 599 691 Q 565 717 546 712 Q 538 710 522 691 Q 509 671 482 650 L 439 617 Q 436 615 396 588 L 334 551 Q 300 529 279 519 L 242 502 L 223 495 Q 213 491 216 483 Q 220 476 234 479 L 251 482 Q 258 484 343 510 Z" fill="red"></path>
				<path d="M 430 516 Q 413 516 408 511.5 Q 403 507 409 496.5 Q 415 486 469 443 Q 485 430 506 425 Q 538 416 540 444 Q 541 458 534 474 Q 527 486 515 495 Q 497 506 430 516 Z" fill="lightgray"></path>
				<path d="M 336 102 L 367 116 Q 383 121 441 155 L 527 206 Q 576 238 601 257 L 722 348 L 747 362 L 766 376 Q 778 382 779 386 Q 780 389 782 393 Q 782 401 775 408 Q 767 414 747 424 L 722 434 L 697 440 Q 674 445 669 445 Q 663 444 637 432 Q 611 420 514 395 Q 417 370 371 357 Q 324 344 260 336 L 231 333 Q 205 330 204 325 Q 202 320 203 318 Q 203 315 228 297 Q 252 279 270 279 Q 287 279 300 283 L 334 296 L 611 378 Q 635 386 637 381 Q 638 376 627 365 L 602 340 Q 588 325 554 298 L 502 256 Q 456 217 416 189 L 346 144 L 279 105 C 253 90 309 90 336 102 Z" fill="lightgray"></path>
				<path d="M 100 102 L 90 102 Q 78 99 76 91 Q 76 85 84 71 L 101 50 Q 108 43 120 40 Q 135 33 156.5 40.5 Q 178 48 196 51 Q 314 78 415 24 L 577 -54 L 638 -86 Q 711 -123 751 -127 Q 768 -128 846 -101 L 914 -76 L 988 -40 Q 995 -36 994 -30 Q 992 -24 984 -23 L 947 -20 Q 781 -18 690 -5.5 Q 599 7 493 42 L 336 102 L 279 105 L 206 101 L 172 98 Q 144 96 136 97 L 110 100 Q 102 101 100 102 Z" fill="lightgray"></path>
</g>
		<text x="40" y="140" font-size="128" fill="#999999">1</text></g>
		<g id="id0:id1:id1" transform="matrix(1.0,0,0,1.0,1024,0.0)">			<g stroke="lightgray" stroke-width="4" transform="scale(4, 4)"> <rect x="0" y="0" width="256" height="256" fill="white" stroke-width="4"/></g>
			<g transform="scale(0.92, -0.92) translate(60, -920)">					<path d="M 343 510 Q 467 561 522 591 Q 588 621 611 626 Q 634 631 638 633.5 Q 642 636 644 643.5 Q 646 651 639.5 658 Q 633 665 599 691 Q 565 717 546 712 Q 538 710 522 691 Q 509 671 482 650 L 439 617 Q 436 615 396 588 L 334 551 Q 300 529 279 519 L 242 502 L 223 495 Q 213 491 216 483 Q 220 476 234 479 L 251 482 Q 258 484 343 510 Z" fill="black"></path>
				<path d="M 430 516 Q 413 516 408 511.5 Q 403 507 409 496.5 Q 415 486 469 443 Q 485 430 506 425 Q 538 416 540 444 Q 541 458 534 474 Q 527 486 515 495 Q 497 506 430 516 Z" fill="red"></path>
				<path d="M 336 102 L 367 116 Q 383 121 441 155 L 527 206 Q 576 238 601 257 L 722 348 L 747 362 L 766 376 Q 778 382 779 386 Q 780 389 782 393 Q 782 401 775 408 Q 767 414 747 424 L 722 434 L 697 440 Q 674 445 669 445 Q 663 444 637 432 Q 611 420 514 395 Q 417 370 371 357 Q 324 344 260 336 L 231 333 Q 205 330 204 325 Q 202 320 203 318 Q 203 315 228 297 Q 252 279 270 279 Q 287 279 300 283 L 334 296 L 611 378 Q 635 386 637 381 Q 638 376 627 365 L 602 340 Q 588 325 554 298 L 502 256 Q 456 217 416 189 L 346 144 L 279 105 C 253 90 309 90 336 102 Z" fill="lightgray"></path>
				<path d="M 100 102 L 90 102 Q 78 99 76 91 Q 76 85 84 71 L 101 50 Q 108 43 120 40 Q 135 33 156.5 40.5 Q 178 48 196 51 Q 314 78 415 24 L 577 -54 L 638 -86 Q 711 -123 751 -127 Q 768 -128 846 -101 L 914 -76 L 988 -40 Q 995 -36 994 -30 Q 992 -24 984 -23 L 947 -20 Q 781 -18 690 -5.5 Q 599 7 493 42 L 336 102 L 279 105 L 206 101 L 172 98 Q 144 96 136 97 L 110 100 Q 102 101 100 102 Z" fill="lightgray"></path>
</g>
		<text x="40" y="140" font-size="128" fill="#999999">2</text></g>
		<g id="id0:id2:id2" transform="matrix(1.0,0,0,1.0,2048,0.0)">			<g stroke="lightgray" stroke-width="4" transform="scale(4, 4)"> <rect x="0" y="0" width="256" height="256" fill="white" stroke-width="4"/></g>
			<g transform="scale(0.92, -0.92) translate(60, -920)">					<path d="M 343 510 Q 467 561 522 591 Q 588 621 611 626 Q 634 631 638 633.5 Q 642 636 644 643.5 Q 646 651 639.5 658 Q 633 665 599 691 Q 565 717 546 712 Q 538 710 522 691 Q 509 671 482 650 L 439 617 Q 436 615 396 588 L 334 551 Q 300 529 279 519 L 242 502 L 223 495 Q 213 491 216 483 Q 220 476 234 479 L 251 482 Q 258 484 343 510 Z" fill="black"></path>
				<path d="M 430 516 Q 413 516 408 511.5 Q 403 507 409 496.5 Q 415 486 469 443 Q 485 430 506 425 Q 538 416 540 444 Q 541 458 534 474 Q 527 486 515 495 Q 497 506 430 516 Z" fill="black"></path>
				<path d="M 336 102 L 367 116 Q 383 121 441 155 L 527 206 Q 576 238 601 257 L 722 348 L 747 362 L 766 376 Q 778 382 779 386 Q 780 389 782 393 Q 782 401 775 408 Q 767 414 747 424 L 722 434 L 697 440 Q 674 445 669 445 Q 663 444 637 432 Q 611 420 514 395 Q 417 370 371 357 Q 324 344 260 336 L 231 333 Q 205 330 204 325 Q 202 320 203 318 Q 203 315 228 297 Q 252 279 270 279 Q 287 279 300 283 L 334 296 L 611 378 Q 635 386 637 381 Q 638 376 627 365 L 602 340 Q 588 325 554 298 L 502 256 Q 456 217 416 189 L 346 144 L 279 105 C 253 90 309 90 336 102 Z" fill="red"></path>
				<path d="M 100 102 L 90 102 Q 78 99 76 91 Q 76 85 84 71 L 101 50 Q 108 43 120 40 Q 135 33 156.5 40.5 Q 178 48 196 51 Q 314 78 415 24 L 577 -54 L 638 -86 Q 711 -123 751 -127 Q 768 -128 846 -101 L 914 -76 L 988 -40 Q 995 -36 994 -30 Q 992 -24 984 -23 L 947 -20 Q 781 -18 690 -5.5 Q 599 7 493 42 L 336 102 L 279 105 L 206 101 L 172 98 Q 144 96 136 97 L 110 100 Q 102 101 100 102 Z" fill="lightgray"></path>
</g>
		<text x="40" y="140" font-size="128" fill="#999999">3</text></g>
		<g id="id0:id3:id3" transform="matrix(1.0,0,0,1.0,3072,0.0)">			<g stroke="lightgray" stroke-width="4" transform="scale(4, 4)"> <rect x="0" y="0" width="256" height="256" fill="white" stroke-width="4"/></g>
			<g transform="scale(0.92, -0.92) translate(60, -920)">					<path d="M 343 510 Q 467 561 522 591 Q 588 621 611 626 Q 634 631 638 633.5 Q 642 636 644 643.5 Q 646 651 639.5 658 Q 633 665 599 691 Q 565 717 546 712 Q 538 710 522 691 Q 509 671 482 650 L 439 617 Q 436 615 396 588 L 334 551 Q 300 529 279 519 L 242 502 L 223 495 Q 213 491 216 483 Q 220 476 234 479 L 251 482 Q 258 484 343 510 Z" fill="black"></path>
				<path d="M 430 516 Q 413 516 408 511.5 Q 403 507 409 496.5 Q 415 486 469 443 Q 485 430 506 425 Q 538 416 540 444 Q 541 458 534 474 Q 527 486 515 495 Q 497 506 430 516 Z" fill="black"></path>
				<path d="M 336 102 L 367 116 Q 383 121 441 155 L 527 206 Q 576 238 601 257 L 722 348 L 747 362 L 766 376 Q 778 382 779 386 Q 780 389 782 393 Q 782 401 775 408 Q 767 414 747 424 L 722 434 L 697 440 Q 674 445 669 445 Q 663 444 637 432 Q 611 420 514 395 Q 417 370 371 357 Q 324 344 260 336 L 231 333 Q 205 330 204 325 Q 202 320 203 318 Q 203 315 228 297 Q 252 279 270 279 Q 287 279 300 283 L 334 296 L 611 378 Q 635 386 637 381 Q 638 376 627 365 L 602 340 Q 588 325 554 298 L 502 256 Q 456 217 416 189 L 346 144 L 279 105 C 253 90 309 90 336 102 Z" fill="black"></path>
				<path d="M 100 102 L 90 102 Q 78 99 76 91 Q 76 85 84 71 L 101 50 Q 108 43 120 40 Q 135 33 156.5 40.5 Q 178 48 196 51 Q 314 78 415 24 L 577 -54 L 638 -86 Q 711 -123 751 -127 Q 768 -128 846 -101 L 914 -76 L 988 -40 Q 995 -36 994 -30 Q 992 -24 984 -23 L 947 -20 Q 781 -18 690 -5.5 Q 599 7 493 42 L 336 102 L 279 105 L 206 101 L 172 98 Q 144 96 136 97 L 110 100 Q 102 101 100 102 Z" fill="red"></path>
</g>
		<text x="40" y="140" font-size="128" fill="#999999">4</text></g>
		<g id="id0:id4:id4" transform="matrix(1.0,0,0,1.0,4096,0.0)">			<g stroke="white" stroke-width="4" transform="scale(4, 4)"> <rect x="1" y="1" width="255" height="255" fill="white" stroke-width="0"/></g>
</g>
</g>
</svg>
