<?xml version="1.0" standalone="no"?>
<!DOCTYPE svg PUBLIC "-//W3C//DTD SVG 1.1//EN"
 "http://www.w3.org/Graphics/SVG/1.1/DTD/svg11.dtd">
<!-- generate by Japanese dictionary app com.asnsami.kanjidictionary -->

<svg xmlns="http://www.w3.org/2000/svg" xmlns:sodipodi="http://sodipodi.sourceforge.net/DTD/sodipodi-0.dtd" version="1.1" width="640" height="128" viewBox="0 0 5120 1024">
	<g id="id0:id0" transform="translate(0.0,0)">
		<g id="id0:id0:id0" transform="matrix(1.0,0,0,1.0,0,0.0)">			<g stroke="lightgray" stroke-width="4" transform="scale(4, 4)"> <rect x="0" y="0" width="256" height="256" fill="white" stroke-width="4"/></g>
			<g transform="scale(0.92, -0.92) translate(60, -920)">					<path d="M 351 518 L 442 562 L 460 573 Q 478 577 491 579 Q 504 581 504 590 Q 504 608 485 627 Q 466 646 456 652 L 443 660 Q 429 671 415 640 Q 400 610 351 576 Q 264 520 235 508 L 194 492 Q 188 489 188 483 Q 188 476 198 476 L 209 476 Q 216 476 229 479 L 283 491 L 315 500 L 351 518 Z" fill="red"></path>
				<path d="M 954 339 Q 954 355 926 373 Q 899 390 851 400 L 760 384 L 675 374 L 610 371 L 396 353 L 334 348 L 168 330 Q 159 329 136 329 L 76 330 Q 67 326 67 319 Q 67 303 96 292 Q 124 280 136 276 Q 148 271 177 279 L 208 284 L 264 297 L 333 305 L 395 312 L 610 326 L 672 327 L 765 330 Q 770 332 843 330 L 913 326 Q 954 326 954 339 Z" fill="lightgray"></path>
				<path d="M 396 353 L 400 429 Q 400 439 404 450 L 410 465 Q 411 467 411 472 Q 411 477 410 478 Q 410 488 374 509 Q 367 511 351 518 C 323 529 302 527 315 500 L 324 482 Q 333 467 333 418 Q 333 368 334 348 L 333 305 L 333 268 Q 332 244 324 198 Q 316 151 305 124 Q 294 97 267 57 Q 240 16 208 -16 L 165 -51 Q 160 -56 162 -59 Q 165 -62 168 -62 L 183 -57 Q 234 -47 299 22 Q 337 65 354 100 Q 381 165 388 248 L 395 312 L 396 353 Z" fill="lightgray"></path>
				<path d="M 675 374 L 678 563 L 680 606 Q 681 616 681 635 Q 681 653 694 673 Q 699 685 699 688 Q 696 704 667 715 Q 638 726 632 727 Q 593 735 593 718 L 605 687 Q 612 640 612 634 L 614 598 L 610 371 L 610 326 L 607 -63 Q 607 -127 616 -148 L 622 -164 Q 624 -169 630 -169 Q 636 -169 641 -160 L 649 -144 L 656 -112 L 666 -28 L 672 327 L 675 374 Z" fill="lightgray"></path>
</g>
		<text x="40" y="140" font-size="128" fill="#999999">1</text></g>
		<g id="id0:id1:id1" transform="matrix(1.0,0,0,1.0,1024,0.0)">			<g stroke="lightgray" stroke-width="4" transform="scale(4, 4)"> <rect x="0" y="0" width="256" height="256" fill="white" stroke-width="4"/></g>
			<g transform="scale(0.92, -0.92) translate(60, -920)">					<path d="M 351 518 L 442 562 L 460 573 Q 478 577 491 579 Q 504 581 504 590 Q 504 608 485 627 Q 466 646 456 652 L 443 660 Q 429 671 415 640 Q 400 610 351 576 Q 264 520 235 508 L 194 492 Q 188 489 188 483 Q 188 476 198 476 L 209 476 Q 216 476 229 479 L 283 491 L 315 500 L 351 518 Z" fill="black"></path>
				<path d="M 954 339 Q 954 355 926 373 Q 899 390 851 400 L 760 384 L 675 374 L 610 371 L 396 353 L 334 348 L 168 330 Q 159 329 136 329 L 76 330 Q 67 326 67 319 Q 67 303 96 292 Q 124 280 136 276 Q 148 271 177 279 L 208 284 L 264 297 L 333 305 L 395 312 L 610 326 L 672 327 L 765 330 Q 770 332 843 330 L 913 326 Q 954 326 954 339 Z" fill="red"></path>
				<path d="M 396 353 L 400 429 Q 400 439 404 450 L 410 465 Q 411 467 411 472 Q 411 477 410 478 Q 410 488 374 509 Q 367 511 351 518 C 323 529 302 527 315 500 L 324 482 Q 333 467 333 418 Q 333 368 334 348 L 333 305 L 333 268 Q 332 244 324 198 Q 316 151 305 124 Q 294 97 267 57 Q 240 16 208 -16 L 165 -51 Q 160 -56 162 -59 Q 165 -62 168 -62 L 183 -57 Q 234 -47 299 22 Q 337 65 354 100 Q 381 165 388 248 L 395 312 L 396 353 Z" fill="lightgray"></path>
				<path d="M 675 374 L 678 563 L 680 606 Q 681 616 681 635 Q 681 653 694 673 Q 699 685 699 688 Q 696 704 667 715 Q 638 726 632 727 Q 593 735 593 718 L 605 687 Q 612 640 612 634 L 614 598 L 610 371 L 610 326 L 607 -63 Q 607 -127 616 -148 L 622 -164 Q 624 -169 630 -169 Q 636 -169 641 -160 L 649 -144 L 656 -112 L 666 -28 L 672 327 L 675 374 Z" fill="lightgray"></path>
</g>
		<text x="40" y="140" font-size="128" fill="#999999">2</text></g>
		<g id="id0:id2:id2" transform="matrix(1.0,0,0,1.0,2048,0.0)">			<g stroke="lightgray" stroke-width="4" transform="scale(4, 4)"> <rect x="0" y="0" width="256" height="256" fill="white" stroke-width="4"/></g>
			<g transform="scale(0.92, -0.92) translate(60, -920)">					<path d="M 351 518 L 442 562 L 460 573 Q 478 577 491 579 Q 504 581 504 590 Q 504 608 485 627 Q 466 646 456 652 L 443 660 Q 429 671 415 640 Q 400 610 351 576 Q 264 520 235 508 L 194 492 Q 188 489 188 483 Q 188 476 198 476 L 209 476 Q 216 476 229 479 L 283 491 L 315 500 L 351 518 Z" fill="black"></path>
				<path d="M 954 339 Q 954 355 926 373 Q 899 390 851 400 L 760 384 L 675 374 L 610 371 L 396 353 L 334 348 L 168 330 Q 159 329 136 329 L 76 330 Q 67 326 67 319 Q 67 303 96 292 Q 124 280 136 276 Q 148 271 177 279 L 208 284 L 264 297 L 333 305 L 395 312 L 610 326 L 672 327 L 765 330 Q 770 332 843 330 L 913 326 Q 954 326 954 339 Z" fill="black"></path>
				<path d="M 396 353 L 400 429 Q 400 439 404 450 L 410 465 Q 411 467 411 472 Q 411 477 410 478 Q 410 488 374 509 Q 367 511 351 518 C 323 529 302 527 315 500 L 324 482 Q 333 467 333 418 Q 333 368 334 348 L 333 305 L 333 268 Q 332 244 324 198 Q 316 151 305 124 Q 294 97 267 57 Q 240 16 208 -16 L 165 -51 Q 160 -56 162 -59 Q 165 -62 168 -62 L 183 -57 Q 234 -47 299 22 Q 337 65 354 100 Q 381 165 388 248 L 395 312 L 396 353 Z" fill="red"></path>
				<path d="M 675 374 L 678 563 L 680 606 Q 681 616 681 635 Q 681 653 694 673 Q 699 685 699 688 Q 696 704 667 715 Q 638 726 632 727 Q 593 735 593 718 L 605 687 Q 612 640 612 634 L 614 598 L 610 371 L 610 326 L 607 -63 Q 607 -127 616 -148 L 622 -164 Q 624 -169 630 -169 Q 636 -169 641 -160 L 649 -144 L 656 -112 L 666 -28 L 672 327 L 675 374 Z" fill="lightgray"></path>
</g>
		<text x="40" y="140" font-size="128" fill="#999999">3</text></g>
		<g id="id0:id3:id3" transform="matrix(1.0,0,0,1.0,3072,0.0)">			<g stroke="lightgray" stroke-width="4" transform="scale(4, 4)"> <rect x="0" y="0" width="256" height="256" fill="white" stroke-width="4"/></g>
			<g transform="scale(0.92, -0.92) translate(60, -920)">					<path d="M 351 518 L 442 562 L 460 573 Q 478 577 491 579 Q 504 581 504 590 Q 504 608 485 627 Q 466 646 456 652 L 443 660 Q 429 671 415 640 Q 400 610 351 576 Q 264 520 235 508 L 194 492 Q 188 489 188 483 Q 188 476 198 476 L 209 476 Q 216 476 229 479 L 283 491 L 315 500 L 351 518 Z" fill="black"></path>
				<path d="M 954 339 Q 954 355 926 373 Q 899 390 851 400 L 760 384 L 675 374 L 610 371 L 396 353 L 334 348 L 168 330 Q 159 329 136 329 L 76 330 Q 67 326 67 319 Q 67 303 96 292 Q 124 280 136 276 Q 148 271 177 279 L 208 284 L 264 297 L 333 305 L 395 312 L 610 326 L 672 327 L 765 330 Q 770 332 843 330 L 913 326 Q 954 326 954 339 Z" fill="black"></path>
				<path d="M 396 353 L 400 429 Q 400 439 404 450 L 410 465 Q 411 467 411 472 Q 411 477 410 478 Q 410 488 374 509 Q 367 511 351 518 C 323 529 302 527 315 500 L 324 482 Q 333 467 333 418 Q 333 368 334 348 L 333 305 L 333 268 Q 332 244 324 198 Q 316 151 305 124 Q 294 97 267 57 Q 240 16 208 -16 L 165 -51 Q 160 -56 162 -59 Q 165 -62 168 -62 L 183 -57 Q 234 -47 299 22 Q 337 65 354 100 Q 381 165 388 248 L 395 312 L 396 353 Z" fill="black"></path>
				<path d="M 675 374 L 678 563 L 680 606 Q 681 616 681 635 Q 681 653 694 673 Q 699 685 699 688 Q 696 704 667 715 Q 638 726 632 727 Q 593 735 593 718 L 605 687 Q 612 640 612 634 L 614 598 L 610 371 L 610 326 L 607 -63 Q 607 -127 616 -148 L 622 -164 Q 624 -169 630 -169 Q 636 -169 641 -160 L 649 -144 L 656 -112 L 666 -28 L 672 327 L 675 374 Z" fill="red"></path>
</g>
		<text x="40" y="140" font-size="128" fill="#999999">4</text></g>
		<g id="id0:id4:id4" transform="matrix(1.0,0,0,1.0,4096,0.0)">			<g stroke="white" stroke-width="4" transform="scale(4, 4)"> <rect x="1" y="1" width="255" height="255" fill="white" stroke-width="0"/></g>
</g>
</g>
</svg>
