<?xml version="1.0" standalone="no"?>
<!DOCTYPE svg PUBLIC "-//W3C//DTD SVG 1.1//EN"
 "http://www.w3.org/Graphics/SVG/1.1/DTD/svg11.dtd">
<!-- generate by Japanese dictionary app com.asnsami.kanjidictionary -->

<svg xmlns="http://www.w3.org/2000/svg" xmlns:sodipodi="http://sodipodi.sourceforge.net/DTD/sodipodi-0.dtd" version="1.1" width="640" height="128" viewBox="0 0 5120 1024">
	<g id="id0:id0" transform="translate(0.0,0)">
		<g id="id0:id0:id0" transform="matrix(1.0,0,0,1.0,0,0.0)">			<g stroke="lightgray" stroke-width="4" transform="scale(4, 4)"> <rect x="0" y="0" width="256" height="256" fill="white" stroke-width="4"/></g>
			<g transform="scale(0.92, -0.92) translate(60, -920)">					<path d="M 394 603 Q 427 590 505 599 L 755 643 Q 818 656 827 664 Q 837 673 832 682 Q 825 695 792 705 Q 761 714 655 681 Q 502 648 387 636 C 357 633 365 611 394 603 Z" fill="red"></path>
				<path d="M 387 636 Q 384 639 380 641 Q 329 669 313 667 Q 291 664 307 639 Q 346 563 301 329 Q 286 274 256 209 Q 226 145 123 49 Q 107 36 103 30 Q 100 23 113 22 Q 155 19 237 100 Q 324 185 357 340 Q 376 434 387 574 Q 391 592 394 603 C 400 628 400 628 387 636 Z" fill="lightgray"></path>
				<path d="M 567 409 Q 675 433 899 465 Q 912 464 922 478 Q 923 491 897 503 Q 858 527 781 502 Q 534 451 434 437 Q 418 436 402 433 Q 369 429 394 409 Q 430 382 477 390 Q 498 396 525 400 L 567 409 Z" fill="lightgray"></path>
				<path d="M 581 306 Q 582 309 584 312 Q 594 337 607 362 Q 614 372 608 382 Q 602 391 567 409 C 541 423 521 430 525 400 Q 525 399 526 397 Q 544 250 383 79 Q 311 12 319 7 Q 353 1 445 82 Q 520 146 570 273 L 581 306 Z" fill="lightgray"></path>
				<path d="M 570 273 Q 645 273 674 277 Q 710 287 728 273 Q 747 249 705 108 Q 681 38 654 28 Q 636 22 586 47 Q 547 65 543 58 Q 537 48 555 36 Q 606 -3 623 -49 Q 629 -67 641 -73 Q 654 -77 689 -54 Q 728 -21 757 69 Q 802 250 812 263 Q 822 270 822 280 Q 822 290 794 309 Q 748 339 700 318 Q 630 303 581 306 C 551 307 540 273 570 273 Z" fill="lightgray"></path>
</g>
		<text x="40" y="140" font-size="128" fill="#999999">1</text></g>
		<g id="id0:id1:id1" transform="matrix(1.0,0,0,1.0,1024,0.0)">			<g stroke="lightgray" stroke-width="4" transform="scale(4, 4)"> <rect x="0" y="0" width="256" height="256" fill="white" stroke-width="4"/></g>
			<g transform="scale(0.92, -0.92) translate(60, -920)">					<path d="M 394 603 Q 427 590 505 599 L 755 643 Q 818 656 827 664 Q 837 673 832 682 Q 825 695 792 705 Q 761 714 655 681 Q 502 648 387 636 C 357 633 365 611 394 603 Z" fill="black"></path>
				<path d="M 387 636 Q 384 639 380 641 Q 329 669 313 667 Q 291 664 307 639 Q 346 563 301 329 Q 286 274 256 209 Q 226 145 123 49 Q 107 36 103 30 Q 100 23 113 22 Q 155 19 237 100 Q 324 185 357 340 Q 376 434 387 574 Q 391 592 394 603 C 400 628 400 628 387 636 Z" fill="red"></path>
				<path d="M 567 409 Q 675 433 899 465 Q 912 464 922 478 Q 923 491 897 503 Q 858 527 781 502 Q 534 451 434 437 Q 418 436 402 433 Q 369 429 394 409 Q 430 382 477 390 Q 498 396 525 400 L 567 409 Z" fill="lightgray"></path>
				<path d="M 581 306 Q 582 309 584 312 Q 594 337 607 362 Q 614 372 608 382 Q 602 391 567 409 C 541 423 521 430 525 400 Q 525 399 526 397 Q 544 250 383 79 Q 311 12 319 7 Q 353 1 445 82 Q 520 146 570 273 L 581 306 Z" fill="lightgray"></path>
				<path d="M 570 273 Q 645 273 674 277 Q 710 287 728 273 Q 747 249 705 108 Q 681 38 654 28 Q 636 22 586 47 Q 547 65 543 58 Q 537 48 555 36 Q 606 -3 623 -49 Q 629 -67 641 -73 Q 654 -77 689 -54 Q 728 -21 757 69 Q 802 250 812 263 Q 822 270 822 280 Q 822 290 794 309 Q 748 339 700 318 Q 630 303 581 306 C 551 307 540 273 570 273 Z" fill="lightgray"></path>
</g>
		<text x="40" y="140" font-size="128" fill="#999999">2</text></g>
		<g id="id0:id2:id2" transform="matrix(1.0,0,0,1.0,2048,0.0)">			<g stroke="lightgray" stroke-width="4" transform="scale(4, 4)"> <rect x="0" y="0" width="256" height="256" fill="white" stroke-width="4"/></g>
			<g transform="scale(0.92, -0.92) translate(60, -920)">					<path d="M 394 603 Q 427 590 505 599 L 755 643 Q 818 656 827 664 Q 837 673 832 682 Q 825 695 792 705 Q 761 714 655 681 Q 502 648 387 636 C 357 633 365 611 394 603 Z" fill="black"></path>
				<path d="M 387 636 Q 384 639 380 641 Q 329 669 313 667 Q 291 664 307 639 Q 346 563 301 329 Q 286 274 256 209 Q 226 145 123 49 Q 107 36 103 30 Q 100 23 113 22 Q 155 19 237 100 Q 324 185 357 340 Q 376 434 387 574 Q 391 592 394 603 C 400 628 400 628 387 636 Z" fill="black"></path>
				<path d="M 567 409 Q 675 433 899 465 Q 912 464 922 478 Q 923 491 897 503 Q 858 527 781 502 Q 534 451 434 437 Q 418 436 402 433 Q 369 429 394 409 Q 430 382 477 390 Q 498 396 525 400 L 567 409 Z" fill="red"></path>
				<path d="M 581 306 Q 582 309 584 312 Q 594 337 607 362 Q 614 372 608 382 Q 602 391 567 409 C 541 423 521 430 525 400 Q 525 399 526 397 Q 544 250 383 79 Q 311 12 319 7 Q 353 1 445 82 Q 520 146 570 273 L 581 306 Z" fill="lightgray"></path>
				<path d="M 570 273 Q 645 273 674 277 Q 710 287 728 273 Q 747 249 705 108 Q 681 38 654 28 Q 636 22 586 47 Q 547 65 543 58 Q 537 48 555 36 Q 606 -3 623 -49 Q 629 -67 641 -73 Q 654 -77 689 -54 Q 728 -21 757 69 Q 802 250 812 263 Q 822 270 822 280 Q 822 290 794 309 Q 748 339 700 318 Q 630 303 581 306 C 551 307 540 273 570 273 Z" fill="lightgray"></path>
</g>
		<text x="40" y="140" font-size="128" fill="#999999">3</text></g>
		<g id="id0:id3:id3" transform="matrix(1.0,0,0,1.0,3072,0.0)">			<g stroke="lightgray" stroke-width="4" transform="scale(4, 4)"> <rect x="0" y="0" width="256" height="256" fill="white" stroke-width="4"/></g>
			<g transform="scale(0.92, -0.92) translate(60, -920)">					<path d="M 394 603 Q 427 590 505 599 L 755 643 Q 818 656 827 664 Q 837 673 832 682 Q 825 695 792 705 Q 761 714 655 681 Q 502 648 387 636 C 357 633 365 611 394 603 Z" fill="black"></path>
				<path d="M 387 636 Q 384 639 380 641 Q 329 669 313 667 Q 291 664 307 639 Q 346 563 301 329 Q 286 274 256 209 Q 226 145 123 49 Q 107 36 103 30 Q 100 23 113 22 Q 155 19 237 100 Q 324 185 357 340 Q 376 434 387 574 Q 391 592 394 603 C 400 628 400 628 387 636 Z" fill="black"></path>
				<path d="M 567 409 Q 675 433 899 465 Q 912 464 922 478 Q 923 491 897 503 Q 858 527 781 502 Q 534 451 434 437 Q 418 436 402 433 Q 369 429 394 409 Q 430 382 477 390 Q 498 396 525 400 L 567 409 Z" fill="black"></path>
				<path d="M 581 306 Q 582 309 584 312 Q 594 337 607 362 Q 614 372 608 382 Q 602 391 567 409 C 541 423 521 430 525 400 Q 525 399 526 397 Q 544 250 383 79 Q 311 12 319 7 Q 353 1 445 82 Q 520 146 570 273 L 581 306 Z" fill="red"></path>
				<path d="M 570 273 Q 645 273 674 277 Q 710 287 728 273 Q 747 249 705 108 Q 681 38 654 28 Q 636 22 586 47 Q 547 65 543 58 Q 537 48 555 36 Q 606 -3 623 -49 Q 629 -67 641 -73 Q 654 -77 689 -54 Q 728 -21 757 69 Q 802 250 812 263 Q 822 270 822 280 Q 822 290 794 309 Q 748 339 700 318 Q 630 303 581 306 C 551 307 540 273 570 273 Z" fill="lightgray"></path>
</g>
		<text x="40" y="140" font-size="128" fill="#999999">4</text></g>
		<g id="id0:id4:id4" transform="matrix(1.0,0,0,1.0,4096,0.0)">			<g stroke="lightgray" stroke-width="4" transform="scale(4, 4)"> <rect x="0" y="0" width="256" height="256" fill="white" stroke-width="4"/></g>
			<g transform="scale(0.92, -0.92) translate(60, -920)">					<path d="M 394 603 Q 427 590 505 599 L 755 643 Q 818 656 827 664 Q 837 673 832 682 Q 825 695 792 705 Q 761 714 655 681 Q 502 648 387 636 C 357 633 365 611 394 603 Z" fill="black"></path>
				<path d="M 387 636 Q 384 639 380 641 Q 329 669 313 667 Q 291 664 307 639 Q 346 563 301 329 Q 286 274 256 209 Q 226 145 123 49 Q 107 36 103 30 Q 100 23 113 22 Q 155 19 237 100 Q 324 185 357 340 Q 376 434 387 574 Q 391 592 394 603 C 400 628 400 628 387 636 Z" fill="black"></path>
				<path d="M 567 409 Q 675 433 899 465 Q 912 464 922 478 Q 923 491 897 503 Q 858 527 781 502 Q 534 451 434 437 Q 418 436 402 433 Q 369 429 394 409 Q 430 382 477 390 Q 498 396 525 400 L 567 409 Z" fill="black"></path>
				<path d="M 581 306 Q 582 309 584 312 Q 594 337 607 362 Q 614 372 608 382 Q 602 391 567 409 C 541 423 521 430 525 400 Q 525 399 526 397 Q 544 250 383 79 Q 311 12 319 7 Q 353 1 445 82 Q 520 146 570 273 L 581 306 Z" fill="black"></path>
				<path d="M 570 273 Q 645 273 674 277 Q 710 287 728 273 Q 747 249 705 108 Q 681 38 654 28 Q 636 22 586 47 Q 547 65 543 58 Q 537 48 555 36 Q 606 -3 623 -49 Q 629 -67 641 -73 Q 654 -77 689 -54 Q 728 -21 757 69 Q 802 250 812 263 Q 822 270 822 280 Q 822 290 794 309 Q 748 339 700 318 Q 630 303 581 306 C 551 307 540 273 570 273 Z" fill="red"></path>
</g>
		<text x="40" y="140" font-size="128" fill="#999999">5</text></g>
</g>
</svg>
