<?xml version="1.0" standalone="no"?>
<!DOCTYPE svg PUBLIC "-//W3C//DTD SVG 1.1//EN"
 "http://www.w3.org/Graphics/SVG/1.1/DTD/svg11.dtd">
<!-- generate by Japanese dictionary app com.asnsami.kanjidictionary -->

<svg xmlns="http://www.w3.org/2000/svg" xmlns:sodipodi="http://sodipodi.sourceforge.net/DTD/sodipodi-0.dtd" version="1.1" width="640" height="256" viewBox="0 0 5120 2048">
	<g id="id0:id0" transform="translate(0.0,0)">
		<g id="id0:id0:id0" transform="matrix(1.0,0,0,1.0,0,0.0)">			<g stroke="lightgray" stroke-width="4" transform="scale(4, 4)"> <rect x="0" y="0" width="256" height="256" fill="white" stroke-width="4"/></g>
			<g transform="scale(0.92, -0.92) translate(60, -920)">					<path d="M 297 689 Q 291 682 301 667 Q 330 621 357 541 Q 363 519 381 503 Q 399 484 401 500 Q 402 506 402 517 L 397 550 Q 396 551 370 655 C 363 684 307 717 297 689 Z" fill="red"></path>
				<path d="M 675 576 Q 707 637 737 650 Q 756 668 744 689 Q 727 705 675 737 Q 655 748 634 740 Q 491 695 310 693 Q 297 694 297 689 C 268 681 341 649 370 655 Q 380 656 388 659 L 604 690 Q 631 694 643 684 Q 652 670 624 590 C 614 562 661 550 675 576 Z" fill="lightgray"></path>
				<path d="M 402 517 Q 409 516 419 517 Q 501 536 680 549 Q 690 551 692 559 Q 691 566 675 576 C 651 593 651 593 624 590 Q 623 592 619 590 Q 496 563 397 550 C 367 546 372 518 402 517 Z" fill="lightgray"></path>
				<path d="M 385 446 L 374 454 L 360 459 Q 351 462 346 456 Q 340 450 344 442 L 351 425 Q 360 413 358 363 L 356 295 Q 355 233 351 207 L 342 117 Q 341 72 362 51 Q 367 46 371 48 Q 374 49 381 61 L 389 74 L 401 115 L 407 209 L 409 230 L 412 307 L 413 331 L 414 409 C 414 425 409 428 385 446 Z" fill="lightgray"></path>
				<path d="M 708 128 L 706 172 Q 700 250 704 331 Q 706 406 708 415 Q 708 419 714 437 Q 719 454 719 458 Q 718 466 693 485 L 671 502 Q 661 509 653 509 L 563 482 L 483 465 Q 421 451 385 446 C 355 441 384 406 414 409 L 430 410 L 559 438 Q 620 452 633 435 Q 640 426 640 353 L 639 333 L 640 257 L 639 229 L 637 192 Q 636 152 633 142 L 633 104 L 654 42 Q 659 31 666 32 Q 672 33 689 57 Q 704 85 708 128 Z" fill="lightgray"></path>
				<path d="M 412 307 L 419 298 Q 419 296 431 294 Q 439 294 496 303 L 585 319 Q 625 324 626 325 L 639 333 C 660 346 660 346 640 353 L 623 359 Q 614 363 598 363 L 437 333 Q 434 332 429 332 L 413 331 C 394 330 394 330 412 307 Z" fill="lightgray"></path>
				<path d="M 407 209 L 421 198 Q 429 196 439 196 L 639 229 C 669 234 668 246 640 257 L 623 264 Q 611 268 581 262 L 465 240 Q 426 232 409 230 C 384 227 384 227 407 209 Z" fill="lightgray"></path>
				<path d="M 389 74 L 426 77 L 452 80 L 633 104 C 663 108 662 135 633 142 L 617 146 L 610 149 Q 607 150 604 150 L 598 150 Q 596 149 591 148 L 581 146 Q 571 145 495 131 Q 419 117 401 115 C 371 111 359 72 389 74 Z" fill="lightgray"></path>
				<path d="M 426 77 L 425 50 Q 424 42 412 22 Q 400 1 394 -8 L 369 -45 Q 334 -96 300 -131 Q 297 -137 301 -141 Q 305 -145 313 -140 L 357 -116 Q 365 -112 386 -92 Q 397 -84 406 -75 L 473 -2 Q 484 11 492 18 L 505 27 Q 511 37 504 49 Q 496 61 487 64 L 452 80 C 427 92 427 92 426 77 Z" fill="lightgray"></path>
				<path d="M 565 39 L 577 26 L 604 -10 Q 625 -39 640 -62 L 669 -106 Q 671 -111 687 -131 Q 703 -151 710 -153 Q 717 -155 721 -151 Q 726 -147 729 -130 Q 732 -113 730 -100 Q 724 -72 713 -54 Q 702 -36 681 -16 Q 675 -10 646 10 Q 616 30 609 32 L 568 49 Q 563 49 563 45 Q 562 40 565 39 Z" fill="lightgray"></path>
</g>
		<text x="40" y="140" font-size="128" fill="#999999">1</text></g>
		<g id="id0:id1:id1" transform="matrix(1.0,0,0,1.0,1024,0.0)">			<g stroke="lightgray" stroke-width="4" transform="scale(4, 4)"> <rect x="0" y="0" width="256" height="256" fill="white" stroke-width="4"/></g>
			<g transform="scale(0.92, -0.92) translate(60, -920)">					<path d="M 297 689 Q 291 682 301 667 Q 330 621 357 541 Q 363 519 381 503 Q 399 484 401 500 Q 402 506 402 517 L 397 550 Q 396 551 370 655 C 363 684 307 717 297 689 Z" fill="black"></path>
				<path d="M 675 576 Q 707 637 737 650 Q 756 668 744 689 Q 727 705 675 737 Q 655 748 634 740 Q 491 695 310 693 Q 297 694 297 689 C 268 681 341 649 370 655 Q 380 656 388 659 L 604 690 Q 631 694 643 684 Q 652 670 624 590 C 614 562 661 550 675 576 Z" fill="red"></path>
				<path d="M 402 517 Q 409 516 419 517 Q 501 536 680 549 Q 690 551 692 559 Q 691 566 675 576 C 651 593 651 593 624 590 Q 623 592 619 590 Q 496 563 397 550 C 367 546 372 518 402 517 Z" fill="lightgray"></path>
				<path d="M 385 446 L 374 454 L 360 459 Q 351 462 346 456 Q 340 450 344 442 L 351 425 Q 360 413 358 363 L 356 295 Q 355 233 351 207 L 342 117 Q 341 72 362 51 Q 367 46 371 48 Q 374 49 381 61 L 389 74 L 401 115 L 407 209 L 409 230 L 412 307 L 413 331 L 414 409 C 414 425 409 428 385 446 Z" fill="lightgray"></path>
				<path d="M 708 128 L 706 172 Q 700 250 704 331 Q 706 406 708 415 Q 708 419 714 437 Q 719 454 719 458 Q 718 466 693 485 L 671 502 Q 661 509 653 509 L 563 482 L 483 465 Q 421 451 385 446 C 355 441 384 406 414 409 L 430 410 L 559 438 Q 620 452 633 435 Q 640 426 640 353 L 639 333 L 640 257 L 639 229 L 637 192 Q 636 152 633 142 L 633 104 L 654 42 Q 659 31 666 32 Q 672 33 689 57 Q 704 85 708 128 Z" fill="lightgray"></path>
				<path d="M 412 307 L 419 298 Q 419 296 431 294 Q 439 294 496 303 L 585 319 Q 625 324 626 325 L 639 333 C 660 346 660 346 640 353 L 623 359 Q 614 363 598 363 L 437 333 Q 434 332 429 332 L 413 331 C 394 330 394 330 412 307 Z" fill="lightgray"></path>
				<path d="M 407 209 L 421 198 Q 429 196 439 196 L 639 229 C 669 234 668 246 640 257 L 623 264 Q 611 268 581 262 L 465 240 Q 426 232 409 230 C 384 227 384 227 407 209 Z" fill="lightgray"></path>
				<path d="M 389 74 L 426 77 L 452 80 L 633 104 C 663 108 662 135 633 142 L 617 146 L 610 149 Q 607 150 604 150 L 598 150 Q 596 149 591 148 L 581 146 Q 571 145 495 131 Q 419 117 401 115 C 371 111 359 72 389 74 Z" fill="lightgray"></path>
				<path d="M 426 77 L 425 50 Q 424 42 412 22 Q 400 1 394 -8 L 369 -45 Q 334 -96 300 -131 Q 297 -137 301 -141 Q 305 -145 313 -140 L 357 -116 Q 365 -112 386 -92 Q 397 -84 406 -75 L 473 -2 Q 484 11 492 18 L 505 27 Q 511 37 504 49 Q 496 61 487 64 L 452 80 C 427 92 427 92 426 77 Z" fill="lightgray"></path>
				<path d="M 565 39 L 577 26 L 604 -10 Q 625 -39 640 -62 L 669 -106 Q 671 -111 687 -131 Q 703 -151 710 -153 Q 717 -155 721 -151 Q 726 -147 729 -130 Q 732 -113 730 -100 Q 724 -72 713 -54 Q 702 -36 681 -16 Q 675 -10 646 10 Q 616 30 609 32 L 568 49 Q 563 49 563 45 Q 562 40 565 39 Z" fill="lightgray"></path>
</g>
		<text x="40" y="140" font-size="128" fill="#999999">2</text></g>
		<g id="id0:id2:id2" transform="matrix(1.0,0,0,1.0,2048,0.0)">			<g stroke="lightgray" stroke-width="4" transform="scale(4, 4)"> <rect x="0" y="0" width="256" height="256" fill="white" stroke-width="4"/></g>
			<g transform="scale(0.92, -0.92) translate(60, -920)">					<path d="M 297 689 Q 291 682 301 667 Q 330 621 357 541 Q 363 519 381 503 Q 399 484 401 500 Q 402 506 402 517 L 397 550 Q 396 551 370 655 C 363 684 307 717 297 689 Z" fill="black"></path>
				<path d="M 675 576 Q 707 637 737 650 Q 756 668 744 689 Q 727 705 675 737 Q 655 748 634 740 Q 491 695 310 693 Q 297 694 297 689 C 268 681 341 649 370 655 Q 380 656 388 659 L 604 690 Q 631 694 643 684 Q 652 670 624 590 C 614 562 661 550 675 576 Z" fill="black"></path>
				<path d="M 402 517 Q 409 516 419 517 Q 501 536 680 549 Q 690 551 692 559 Q 691 566 675 576 C 651 593 651 593 624 590 Q 623 592 619 590 Q 496 563 397 550 C 367 546 372 518 402 517 Z" fill="red"></path>
				<path d="M 385 446 L 374 454 L 360 459 Q 351 462 346 456 Q 340 450 344 442 L 351 425 Q 360 413 358 363 L 356 295 Q 355 233 351 207 L 342 117 Q 341 72 362 51 Q 367 46 371 48 Q 374 49 381 61 L 389 74 L 401 115 L 407 209 L 409 230 L 412 307 L 413 331 L 414 409 C 414 425 409 428 385 446 Z" fill="lightgray"></path>
				<path d="M 708 128 L 706 172 Q 700 250 704 331 Q 706 406 708 415 Q 708 419 714 437 Q 719 454 719 458 Q 718 466 693 485 L 671 502 Q 661 509 653 509 L 563 482 L 483 465 Q 421 451 385 446 C 355 441 384 406 414 409 L 430 410 L 559 438 Q 620 452 633 435 Q 640 426 640 353 L 639 333 L 640 257 L 639 229 L 637 192 Q 636 152 633 142 L 633 104 L 654 42 Q 659 31 666 32 Q 672 33 689 57 Q 704 85 708 128 Z" fill="lightgray"></path>
				<path d="M 412 307 L 419 298 Q 419 296 431 294 Q 439 294 496 303 L 585 319 Q 625 324 626 325 L 639 333 C 660 346 660 346 640 353 L 623 359 Q 614 363 598 363 L 437 333 Q 434 332 429 332 L 413 331 C 394 330 394 330 412 307 Z" fill="lightgray"></path>
				<path d="M 407 209 L 421 198 Q 429 196 439 196 L 639 229 C 669 234 668 246 640 257 L 623 264 Q 611 268 581 262 L 465 240 Q 426 232 409 230 C 384 227 384 227 407 209 Z" fill="lightgray"></path>
				<path d="M 389 74 L 426 77 L 452 80 L 633 104 C 663 108 662 135 633 142 L 617 146 L 610 149 Q 607 150 604 150 L 598 150 Q 596 149 591 148 L 581 146 Q 571 145 495 131 Q 419 117 401 115 C 371 111 359 72 389 74 Z" fill="lightgray"></path>
				<path d="M 426 77 L 425 50 Q 424 42 412 22 Q 400 1 394 -8 L 369 -45 Q 334 -96 300 -131 Q 297 -137 301 -141 Q 305 -145 313 -140 L 357 -116 Q 365 -112 386 -92 Q 397 -84 406 -75 L 473 -2 Q 484 11 492 18 L 505 27 Q 511 37 504 49 Q 496 61 487 64 L 452 80 C 427 92 427 92 426 77 Z" fill="lightgray"></path>
				<path d="M 565 39 L 577 26 L 604 -10 Q 625 -39 640 -62 L 669 -106 Q 671 -111 687 -131 Q 703 -151 710 -153 Q 717 -155 721 -151 Q 726 -147 729 -130 Q 732 -113 730 -100 Q 724 -72 713 -54 Q 702 -36 681 -16 Q 675 -10 646 10 Q 616 30 609 32 L 568 49 Q 563 49 563 45 Q 562 40 565 39 Z" fill="lightgray"></path>
</g>
		<text x="40" y="140" font-size="128" fill="#999999">3</text></g>
		<g id="id0:id3:id3" transform="matrix(1.0,0,0,1.0,3072,0.0)">			<g stroke="lightgray" stroke-width="4" transform="scale(4, 4)"> <rect x="0" y="0" width="256" height="256" fill="white" stroke-width="4"/></g>
			<g transform="scale(0.92, -0.92) translate(60, -920)">					<path d="M 297 689 Q 291 682 301 667 Q 330 621 357 541 Q 363 519 381 503 Q 399 484 401 500 Q 402 506 402 517 L 397 550 Q 396 551 370 655 C 363 684 307 717 297 689 Z" fill="black"></path>
				<path d="M 675 576 Q 707 637 737 650 Q 756 668 744 689 Q 727 705 675 737 Q 655 748 634 740 Q 491 695 310 693 Q 297 694 297 689 C 268 681 341 649 370 655 Q 380 656 388 659 L 604 690 Q 631 694 643 684 Q 652 670 624 590 C 614 562 661 550 675 576 Z" fill="black"></path>
				<path d="M 402 517 Q 409 516 419 517 Q 501 536 680 549 Q 690 551 692 559 Q 691 566 675 576 C 651 593 651 593 624 590 Q 623 592 619 590 Q 496 563 397 550 C 367 546 372 518 402 517 Z" fill="black"></path>
				<path d="M 385 446 L 374 454 L 360 459 Q 351 462 346 456 Q 340 450 344 442 L 351 425 Q 360 413 358 363 L 356 295 Q 355 233 351 207 L 342 117 Q 341 72 362 51 Q 367 46 371 48 Q 374 49 381 61 L 389 74 L 401 115 L 407 209 L 409 230 L 412 307 L 413 331 L 414 409 C 414 425 409 428 385 446 Z" fill="red"></path>
				<path d="M 708 128 L 706 172 Q 700 250 704 331 Q 706 406 708 415 Q 708 419 714 437 Q 719 454 719 458 Q 718 466 693 485 L 671 502 Q 661 509 653 509 L 563 482 L 483 465 Q 421 451 385 446 C 355 441 384 406 414 409 L 430 410 L 559 438 Q 620 452 633 435 Q 640 426 640 353 L 639 333 L 640 257 L 639 229 L 637 192 Q 636 152 633 142 L 633 104 L 654 42 Q 659 31 666 32 Q 672 33 689 57 Q 704 85 708 128 Z" fill="lightgray"></path>
				<path d="M 412 307 L 419 298 Q 419 296 431 294 Q 439 294 496 303 L 585 319 Q 625 324 626 325 L 639 333 C 660 346 660 346 640 353 L 623 359 Q 614 363 598 363 L 437 333 Q 434 332 429 332 L 413 331 C 394 330 394 330 412 307 Z" fill="lightgray"></path>
				<path d="M 407 209 L 421 198 Q 429 196 439 196 L 639 229 C 669 234 668 246 640 257 L 623 264 Q 611 268 581 262 L 465 240 Q 426 232 409 230 C 384 227 384 227 407 209 Z" fill="lightgray"></path>
				<path d="M 389 74 L 426 77 L 452 80 L 633 104 C 663 108 662 135 633 142 L 617 146 L 610 149 Q 607 150 604 150 L 598 150 Q 596 149 591 148 L 581 146 Q 571 145 495 131 Q 419 117 401 115 C 371 111 359 72 389 74 Z" fill="lightgray"></path>
				<path d="M 426 77 L 425 50 Q 424 42 412 22 Q 400 1 394 -8 L 369 -45 Q 334 -96 300 -131 Q 297 -137 301 -141 Q 305 -145 313 -140 L 357 -116 Q 365 -112 386 -92 Q 397 -84 406 -75 L 473 -2 Q 484 11 492 18 L 505 27 Q 511 37 504 49 Q 496 61 487 64 L 452 80 C 427 92 427 92 426 77 Z" fill="lightgray"></path>
				<path d="M 565 39 L 577 26 L 604 -10 Q 625 -39 640 -62 L 669 -106 Q 671 -111 687 -131 Q 703 -151 710 -153 Q 717 -155 721 -151 Q 726 -147 729 -130 Q 732 -113 730 -100 Q 724 -72 713 -54 Q 702 -36 681 -16 Q 675 -10 646 10 Q 616 30 609 32 L 568 49 Q 563 49 563 45 Q 562 40 565 39 Z" fill="lightgray"></path>
</g>
		<text x="40" y="140" font-size="128" fill="#999999">4</text></g>
		<g id="id0:id4:id4" transform="matrix(1.0,0,0,1.0,4096,0.0)">			<g stroke="lightgray" stroke-width="4" transform="scale(4, 4)"> <rect x="0" y="0" width="256" height="256" fill="white" stroke-width="4"/></g>
			<g transform="scale(0.92, -0.92) translate(60, -920)">					<path d="M 297 689 Q 291 682 301 667 Q 330 621 357 541 Q 363 519 381 503 Q 399 484 401 500 Q 402 506 402 517 L 397 550 Q 396 551 370 655 C 363 684 307 717 297 689 Z" fill="black"></path>
				<path d="M 675 576 Q 707 637 737 650 Q 756 668 744 689 Q 727 705 675 737 Q 655 748 634 740 Q 491 695 310 693 Q 297 694 297 689 C 268 681 341 649 370 655 Q 380 656 388 659 L 604 690 Q 631 694 643 684 Q 652 670 624 590 C 614 562 661 550 675 576 Z" fill="black"></path>
				<path d="M 402 517 Q 409 516 419 517 Q 501 536 680 549 Q 690 551 692 559 Q 691 566 675 576 C 651 593 651 593 624 590 Q 623 592 619 590 Q 496 563 397 550 C 367 546 372 518 402 517 Z" fill="black"></path>
				<path d="M 385 446 L 374 454 L 360 459 Q 351 462 346 456 Q 340 450 344 442 L 351 425 Q 360 413 358 363 L 356 295 Q 355 233 351 207 L 342 117 Q 341 72 362 51 Q 367 46 371 48 Q 374 49 381 61 L 389 74 L 401 115 L 407 209 L 409 230 L 412 307 L 413 331 L 414 409 C 414 425 409 428 385 446 Z" fill="black"></path>
				<path d="M 708 128 L 706 172 Q 700 250 704 331 Q 706 406 708 415 Q 708 419 714 437 Q 719 454 719 458 Q 718 466 693 485 L 671 502 Q 661 509 653 509 L 563 482 L 483 465 Q 421 451 385 446 C 355 441 384 406 414 409 L 430 410 L 559 438 Q 620 452 633 435 Q 640 426 640 353 L 639 333 L 640 257 L 639 229 L 637 192 Q 636 152 633 142 L 633 104 L 654 42 Q 659 31 666 32 Q 672 33 689 57 Q 704 85 708 128 Z" fill="red"></path>
				<path d="M 412 307 L 419 298 Q 419 296 431 294 Q 439 294 496 303 L 585 319 Q 625 324 626 325 L 639 333 C 660 346 660 346 640 353 L 623 359 Q 614 363 598 363 L 437 333 Q 434 332 429 332 L 413 331 C 394 330 394 330 412 307 Z" fill="lightgray"></path>
				<path d="M 407 209 L 421 198 Q 429 196 439 196 L 639 229 C 669 234 668 246 640 257 L 623 264 Q 611 268 581 262 L 465 240 Q 426 232 409 230 C 384 227 384 227 407 209 Z" fill="lightgray"></path>
				<path d="M 389 74 L 426 77 L 452 80 L 633 104 C 663 108 662 135 633 142 L 617 146 L 610 149 Q 607 150 604 150 L 598 150 Q 596 149 591 148 L 581 146 Q 571 145 495 131 Q 419 117 401 115 C 371 111 359 72 389 74 Z" fill="lightgray"></path>
				<path d="M 426 77 L 425 50 Q 424 42 412 22 Q 400 1 394 -8 L 369 -45 Q 334 -96 300 -131 Q 297 -137 301 -141 Q 305 -145 313 -140 L 357 -116 Q 365 -112 386 -92 Q 397 -84 406 -75 L 473 -2 Q 484 11 492 18 L 505 27 Q 511 37 504 49 Q 496 61 487 64 L 452 80 C 427 92 427 92 426 77 Z" fill="lightgray"></path>
				<path d="M 565 39 L 577 26 L 604 -10 Q 625 -39 640 -62 L 669 -106 Q 671 -111 687 -131 Q 703 -151 710 -153 Q 717 -155 721 -151 Q 726 -147 729 -130 Q 732 -113 730 -100 Q 724 -72 713 -54 Q 702 -36 681 -16 Q 675 -10 646 10 Q 616 30 609 32 L 568 49 Q 563 49 563 45 Q 562 40 565 39 Z" fill="lightgray"></path>
</g>
		<text x="40" y="140" font-size="128" fill="#999999">5</text></g>
</g>
	<g id="id1:id1" transform="translate(0.0,1024)">
		<g id="id1:id0:id0" transform="matrix(1.0,0,0,1.0,0,0.0)">			<g stroke="lightgray" stroke-width="4" transform="scale(4, 4)"> <rect x="0" y="0" width="256" height="256" fill="white" stroke-width="4"/></g>
			<g transform="scale(0.92, -0.92) translate(60, -920)">					<path d="M 297 689 Q 291 682 301 667 Q 330 621 357 541 Q 363 519 381 503 Q 399 484 401 500 Q 402 506 402 517 L 397 550 Q 396 551 370 655 C 363 684 307 717 297 689 Z" fill="black"></path>
				<path d="M 675 576 Q 707 637 737 650 Q 756 668 744 689 Q 727 705 675 737 Q 655 748 634 740 Q 491 695 310 693 Q 297 694 297 689 C 268 681 341 649 370 655 Q 380 656 388 659 L 604 690 Q 631 694 643 684 Q 652 670 624 590 C 614 562 661 550 675 576 Z" fill="black"></path>
				<path d="M 402 517 Q 409 516 419 517 Q 501 536 680 549 Q 690 551 692 559 Q 691 566 675 576 C 651 593 651 593 624 590 Q 623 592 619 590 Q 496 563 397 550 C 367 546 372 518 402 517 Z" fill="black"></path>
				<path d="M 385 446 L 374 454 L 360 459 Q 351 462 346 456 Q 340 450 344 442 L 351 425 Q 360 413 358 363 L 356 295 Q 355 233 351 207 L 342 117 Q 341 72 362 51 Q 367 46 371 48 Q 374 49 381 61 L 389 74 L 401 115 L 407 209 L 409 230 L 412 307 L 413 331 L 414 409 C 414 425 409 428 385 446 Z" fill="black"></path>
				<path d="M 708 128 L 706 172 Q 700 250 704 331 Q 706 406 708 415 Q 708 419 714 437 Q 719 454 719 458 Q 718 466 693 485 L 671 502 Q 661 509 653 509 L 563 482 L 483 465 Q 421 451 385 446 C 355 441 384 406 414 409 L 430 410 L 559 438 Q 620 452 633 435 Q 640 426 640 353 L 639 333 L 640 257 L 639 229 L 637 192 Q 636 152 633 142 L 633 104 L 654 42 Q 659 31 666 32 Q 672 33 689 57 Q 704 85 708 128 Z" fill="black"></path>
				<path d="M 412 307 L 419 298 Q 419 296 431 294 Q 439 294 496 303 L 585 319 Q 625 324 626 325 L 639 333 C 660 346 660 346 640 353 L 623 359 Q 614 363 598 363 L 437 333 Q 434 332 429 332 L 413 331 C 394 330 394 330 412 307 Z" fill="red"></path>
				<path d="M 407 209 L 421 198 Q 429 196 439 196 L 639 229 C 669 234 668 246 640 257 L 623 264 Q 611 268 581 262 L 465 240 Q 426 232 409 230 C 384 227 384 227 407 209 Z" fill="lightgray"></path>
				<path d="M 389 74 L 426 77 L 452 80 L 633 104 C 663 108 662 135 633 142 L 617 146 L 610 149 Q 607 150 604 150 L 598 150 Q 596 149 591 148 L 581 146 Q 571 145 495 131 Q 419 117 401 115 C 371 111 359 72 389 74 Z" fill="lightgray"></path>
				<path d="M 426 77 L 425 50 Q 424 42 412 22 Q 400 1 394 -8 L 369 -45 Q 334 -96 300 -131 Q 297 -137 301 -141 Q 305 -145 313 -140 L 357 -116 Q 365 -112 386 -92 Q 397 -84 406 -75 L 473 -2 Q 484 11 492 18 L 505 27 Q 511 37 504 49 Q 496 61 487 64 L 452 80 C 427 92 427 92 426 77 Z" fill="lightgray"></path>
				<path d="M 565 39 L 577 26 L 604 -10 Q 625 -39 640 -62 L 669 -106 Q 671 -111 687 -131 Q 703 -151 710 -153 Q 717 -155 721 -151 Q 726 -147 729 -130 Q 732 -113 730 -100 Q 724 -72 713 -54 Q 702 -36 681 -16 Q 675 -10 646 10 Q 616 30 609 32 L 568 49 Q 563 49 563 45 Q 562 40 565 39 Z" fill="lightgray"></path>
</g>
		<text x="40" y="140" font-size="128" fill="#999999">6</text></g>
		<g id="id1:id1:id1" transform="matrix(1.0,0,0,1.0,1024,0.0)">			<g stroke="lightgray" stroke-width="4" transform="scale(4, 4)"> <rect x="0" y="0" width="256" height="256" fill="white" stroke-width="4"/></g>
			<g transform="scale(0.92, -0.92) translate(60, -920)">					<path d="M 297 689 Q 291 682 301 667 Q 330 621 357 541 Q 363 519 381 503 Q 399 484 401 500 Q 402 506 402 517 L 397 550 Q 396 551 370 655 C 363 684 307 717 297 689 Z" fill="black"></path>
				<path d="M 675 576 Q 707 637 737 650 Q 756 668 744 689 Q 727 705 675 737 Q 655 748 634 740 Q 491 695 310 693 Q 297 694 297 689 C 268 681 341 649 370 655 Q 380 656 388 659 L 604 690 Q 631 694 643 684 Q 652 670 624 590 C 614 562 661 550 675 576 Z" fill="black"></path>
				<path d="M 402 517 Q 409 516 419 517 Q 501 536 680 549 Q 690 551 692 559 Q 691 566 675 576 C 651 593 651 593 624 590 Q 623 592 619 590 Q 496 563 397 550 C 367 546 372 518 402 517 Z" fill="black"></path>
				<path d="M 385 446 L 374 454 L 360 459 Q 351 462 346 456 Q 340 450 344 442 L 351 425 Q 360 413 358 363 L 356 295 Q 355 233 351 207 L 342 117 Q 341 72 362 51 Q 367 46 371 48 Q 374 49 381 61 L 389 74 L 401 115 L 407 209 L 409 230 L 412 307 L 413 331 L 414 409 C 414 425 409 428 385 446 Z" fill="black"></path>
				<path d="M 708 128 L 706 172 Q 700 250 704 331 Q 706 406 708 415 Q 708 419 714 437 Q 719 454 719 458 Q 718 466 693 485 L 671 502 Q 661 509 653 509 L 563 482 L 483 465 Q 421 451 385 446 C 355 441 384 406 414 409 L 430 410 L 559 438 Q 620 452 633 435 Q 640 426 640 353 L 639 333 L 640 257 L 639 229 L 637 192 Q 636 152 633 142 L 633 104 L 654 42 Q 659 31 666 32 Q 672 33 689 57 Q 704 85 708 128 Z" fill="black"></path>
				<path d="M 412 307 L 419 298 Q 419 296 431 294 Q 439 294 496 303 L 585 319 Q 625 324 626 325 L 639 333 C 660 346 660 346 640 353 L 623 359 Q 614 363 598 363 L 437 333 Q 434 332 429 332 L 413 331 C 394 330 394 330 412 307 Z" fill="black"></path>
				<path d="M 407 209 L 421 198 Q 429 196 439 196 L 639 229 C 669 234 668 246 640 257 L 623 264 Q 611 268 581 262 L 465 240 Q 426 232 409 230 C 384 227 384 227 407 209 Z" fill="red"></path>
				<path d="M 389 74 L 426 77 L 452 80 L 633 104 C 663 108 662 135 633 142 L 617 146 L 610 149 Q 607 150 604 150 L 598 150 Q 596 149 591 148 L 581 146 Q 571 145 495 131 Q 419 117 401 115 C 371 111 359 72 389 74 Z" fill="lightgray"></path>
				<path d="M 426 77 L 425 50 Q 424 42 412 22 Q 400 1 394 -8 L 369 -45 Q 334 -96 300 -131 Q 297 -137 301 -141 Q 305 -145 313 -140 L 357 -116 Q 365 -112 386 -92 Q 397 -84 406 -75 L 473 -2 Q 484 11 492 18 L 505 27 Q 511 37 504 49 Q 496 61 487 64 L 452 80 C 427 92 427 92 426 77 Z" fill="lightgray"></path>
				<path d="M 565 39 L 577 26 L 604 -10 Q 625 -39 640 -62 L 669 -106 Q 671 -111 687 -131 Q 703 -151 710 -153 Q 717 -155 721 -151 Q 726 -147 729 -130 Q 732 -113 730 -100 Q 724 -72 713 -54 Q 702 -36 681 -16 Q 675 -10 646 10 Q 616 30 609 32 L 568 49 Q 563 49 563 45 Q 562 40 565 39 Z" fill="lightgray"></path>
</g>
		<text x="40" y="140" font-size="128" fill="#999999">7</text></g>
		<g id="id1:id2:id2" transform="matrix(1.0,0,0,1.0,2048,0.0)">			<g stroke="lightgray" stroke-width="4" transform="scale(4, 4)"> <rect x="0" y="0" width="256" height="256" fill="white" stroke-width="4"/></g>
			<g transform="scale(0.92, -0.92) translate(60, -920)">					<path d="M 297 689 Q 291 682 301 667 Q 330 621 357 541 Q 363 519 381 503 Q 399 484 401 500 Q 402 506 402 517 L 397 550 Q 396 551 370 655 C 363 684 307 717 297 689 Z" fill="black"></path>
				<path d="M 675 576 Q 707 637 737 650 Q 756 668 744 689 Q 727 705 675 737 Q 655 748 634 740 Q 491 695 310 693 Q 297 694 297 689 C 268 681 341 649 370 655 Q 380 656 388 659 L 604 690 Q 631 694 643 684 Q 652 670 624 590 C 614 562 661 550 675 576 Z" fill="black"></path>
				<path d="M 402 517 Q 409 516 419 517 Q 501 536 680 549 Q 690 551 692 559 Q 691 566 675 576 C 651 593 651 593 624 590 Q 623 592 619 590 Q 496 563 397 550 C 367 546 372 518 402 517 Z" fill="black"></path>
				<path d="M 385 446 L 374 454 L 360 459 Q 351 462 346 456 Q 340 450 344 442 L 351 425 Q 360 413 358 363 L 356 295 Q 355 233 351 207 L 342 117 Q 341 72 362 51 Q 367 46 371 48 Q 374 49 381 61 L 389 74 L 401 115 L 407 209 L 409 230 L 412 307 L 413 331 L 414 409 C 414 425 409 428 385 446 Z" fill="black"></path>
				<path d="M 708 128 L 706 172 Q 700 250 704 331 Q 706 406 708 415 Q 708 419 714 437 Q 719 454 719 458 Q 718 466 693 485 L 671 502 Q 661 509 653 509 L 563 482 L 483 465 Q 421 451 385 446 C 355 441 384 406 414 409 L 430 410 L 559 438 Q 620 452 633 435 Q 640 426 640 353 L 639 333 L 640 257 L 639 229 L 637 192 Q 636 152 633 142 L 633 104 L 654 42 Q 659 31 666 32 Q 672 33 689 57 Q 704 85 708 128 Z" fill="black"></path>
				<path d="M 412 307 L 419 298 Q 419 296 431 294 Q 439 294 496 303 L 585 319 Q 625 324 626 325 L 639 333 C 660 346 660 346 640 353 L 623 359 Q 614 363 598 363 L 437 333 Q 434 332 429 332 L 413 331 C 394 330 394 330 412 307 Z" fill="black"></path>
				<path d="M 407 209 L 421 198 Q 429 196 439 196 L 639 229 C 669 234 668 246 640 257 L 623 264 Q 611 268 581 262 L 465 240 Q 426 232 409 230 C 384 227 384 227 407 209 Z" fill="black"></path>
				<path d="M 389 74 L 426 77 L 452 80 L 633 104 C 663 108 662 135 633 142 L 617 146 L 610 149 Q 607 150 604 150 L 598 150 Q 596 149 591 148 L 581 146 Q 571 145 495 131 Q 419 117 401 115 C 371 111 359 72 389 74 Z" fill="red"></path>
				<path d="M 426 77 L 425 50 Q 424 42 412 22 Q 400 1 394 -8 L 369 -45 Q 334 -96 300 -131 Q 297 -137 301 -141 Q 305 -145 313 -140 L 357 -116 Q 365 -112 386 -92 Q 397 -84 406 -75 L 473 -2 Q 484 11 492 18 L 505 27 Q 511 37 504 49 Q 496 61 487 64 L 452 80 C 427 92 427 92 426 77 Z" fill="lightgray"></path>
				<path d="M 565 39 L 577 26 L 604 -10 Q 625 -39 640 -62 L 669 -106 Q 671 -111 687 -131 Q 703 -151 710 -153 Q 717 -155 721 -151 Q 726 -147 729 -130 Q 732 -113 730 -100 Q 724 -72 713 -54 Q 702 -36 681 -16 Q 675 -10 646 10 Q 616 30 609 32 L 568 49 Q 563 49 563 45 Q 562 40 565 39 Z" fill="lightgray"></path>
</g>
		<text x="40" y="140" font-size="128" fill="#999999">8</text></g>
		<g id="id1:id3:id3" transform="matrix(1.0,0,0,1.0,3072,0.0)">			<g stroke="lightgray" stroke-width="4" transform="scale(4, 4)"> <rect x="0" y="0" width="256" height="256" fill="white" stroke-width="4"/></g>
			<g transform="scale(0.92, -0.92) translate(60, -920)">					<path d="M 297 689 Q 291 682 301 667 Q 330 621 357 541 Q 363 519 381 503 Q 399 484 401 500 Q 402 506 402 517 L 397 550 Q 396 551 370 655 C 363 684 307 717 297 689 Z" fill="black"></path>
				<path d="M 675 576 Q 707 637 737 650 Q 756 668 744 689 Q 727 705 675 737 Q 655 748 634 740 Q 491 695 310 693 Q 297 694 297 689 C 268 681 341 649 370 655 Q 380 656 388 659 L 604 690 Q 631 694 643 684 Q 652 670 624 590 C 614 562 661 550 675 576 Z" fill="black"></path>
				<path d="M 402 517 Q 409 516 419 517 Q 501 536 680 549 Q 690 551 692 559 Q 691 566 675 576 C 651 593 651 593 624 590 Q 623 592 619 590 Q 496 563 397 550 C 367 546 372 518 402 517 Z" fill="black"></path>
				<path d="M 385 446 L 374 454 L 360 459 Q 351 462 346 456 Q 340 450 344 442 L 351 425 Q 360 413 358 363 L 356 295 Q 355 233 351 207 L 342 117 Q 341 72 362 51 Q 367 46 371 48 Q 374 49 381 61 L 389 74 L 401 115 L 407 209 L 409 230 L 412 307 L 413 331 L 414 409 C 414 425 409 428 385 446 Z" fill="black"></path>
				<path d="M 708 128 L 706 172 Q 700 250 704 331 Q 706 406 708 415 Q 708 419 714 437 Q 719 454 719 458 Q 718 466 693 485 L 671 502 Q 661 509 653 509 L 563 482 L 483 465 Q 421 451 385 446 C 355 441 384 406 414 409 L 430 410 L 559 438 Q 620 452 633 435 Q 640 426 640 353 L 639 333 L 640 257 L 639 229 L 637 192 Q 636 152 633 142 L 633 104 L 654 42 Q 659 31 666 32 Q 672 33 689 57 Q 704 85 708 128 Z" fill="black"></path>
				<path d="M 412 307 L 419 298 Q 419 296 431 294 Q 439 294 496 303 L 585 319 Q 625 324 626 325 L 639 333 C 660 346 660 346 640 353 L 623 359 Q 614 363 598 363 L 437 333 Q 434 332 429 332 L 413 331 C 394 330 394 330 412 307 Z" fill="black"></path>
				<path d="M 407 209 L 421 198 Q 429 196 439 196 L 639 229 C 669 234 668 246 640 257 L 623 264 Q 611 268 581 262 L 465 240 Q 426 232 409 230 C 384 227 384 227 407 209 Z" fill="black"></path>
				<path d="M 389 74 L 426 77 L 452 80 L 633 104 C 663 108 662 135 633 142 L 617 146 L 610 149 Q 607 150 604 150 L 598 150 Q 596 149 591 148 L 581 146 Q 571 145 495 131 Q 419 117 401 115 C 371 111 359 72 389 74 Z" fill="black"></path>
				<path d="M 426 77 L 425 50 Q 424 42 412 22 Q 400 1 394 -8 L 369 -45 Q 334 -96 300 -131 Q 297 -137 301 -141 Q 305 -145 313 -140 L 357 -116 Q 365 -112 386 -92 Q 397 -84 406 -75 L 473 -2 Q 484 11 492 18 L 505 27 Q 511 37 504 49 Q 496 61 487 64 L 452 80 C 427 92 427 92 426 77 Z" fill="red"></path>
				<path d="M 565 39 L 577 26 L 604 -10 Q 625 -39 640 -62 L 669 -106 Q 671 -111 687 -131 Q 703 -151 710 -153 Q 717 -155 721 -151 Q 726 -147 729 -130 Q 732 -113 730 -100 Q 724 -72 713 -54 Q 702 -36 681 -16 Q 675 -10 646 10 Q 616 30 609 32 L 568 49 Q 563 49 563 45 Q 562 40 565 39 Z" fill="lightgray"></path>
</g>
		<text x="40" y="140" font-size="128" fill="#999999">9</text></g>
		<g id="id1:id4:id4" transform="matrix(1.0,0,0,1.0,4096,0.0)">			<g stroke="lightgray" stroke-width="4" transform="scale(4, 4)"> <rect x="0" y="0" width="256" height="256" fill="white" stroke-width="4"/></g>
			<g transform="scale(0.92, -0.92) translate(60, -920)">					<path d="M 297 689 Q 291 682 301 667 Q 330 621 357 541 Q 363 519 381 503 Q 399 484 401 500 Q 402 506 402 517 L 397 550 Q 396 551 370 655 C 363 684 307 717 297 689 Z" fill="black"></path>
				<path d="M 675 576 Q 707 637 737 650 Q 756 668 744 689 Q 727 705 675 737 Q 655 748 634 740 Q 491 695 310 693 Q 297 694 297 689 C 268 681 341 649 370 655 Q 380 656 388 659 L 604 690 Q 631 694 643 684 Q 652 670 624 590 C 614 562 661 550 675 576 Z" fill="black"></path>
				<path d="M 402 517 Q 409 516 419 517 Q 501 536 680 549 Q 690 551 692 559 Q 691 566 675 576 C 651 593 651 593 624 590 Q 623 592 619 590 Q 496 563 397 550 C 367 546 372 518 402 517 Z" fill="black"></path>
				<path d="M 385 446 L 374 454 L 360 459 Q 351 462 346 456 Q 340 450 344 442 L 351 425 Q 360 413 358 363 L 356 295 Q 355 233 351 207 L 342 117 Q 341 72 362 51 Q 367 46 371 48 Q 374 49 381 61 L 389 74 L 401 115 L 407 209 L 409 230 L 412 307 L 413 331 L 414 409 C 414 425 409 428 385 446 Z" fill="black"></path>
				<path d="M 708 128 L 706 172 Q 700 250 704 331 Q 706 406 708 415 Q 708 419 714 437 Q 719 454 719 458 Q 718 466 693 485 L 671 502 Q 661 509 653 509 L 563 482 L 483 465 Q 421 451 385 446 C 355 441 384 406 414 409 L 430 410 L 559 438 Q 620 452 633 435 Q 640 426 640 353 L 639 333 L 640 257 L 639 229 L 637 192 Q 636 152 633 142 L 633 104 L 654 42 Q 659 31 666 32 Q 672 33 689 57 Q 704 85 708 128 Z" fill="black"></path>
				<path d="M 412 307 L 419 298 Q 419 296 431 294 Q 439 294 496 303 L 585 319 Q 625 324 626 325 L 639 333 C 660 346 660 346 640 353 L 623 359 Q 614 363 598 363 L 437 333 Q 434 332 429 332 L 413 331 C 394 330 394 330 412 307 Z" fill="black"></path>
				<path d="M 407 209 L 421 198 Q 429 196 439 196 L 639 229 C 669 234 668 246 640 257 L 623 264 Q 611 268 581 262 L 465 240 Q 426 232 409 230 C 384 227 384 227 407 209 Z" fill="black"></path>
				<path d="M 389 74 L 426 77 L 452 80 L 633 104 C 663 108 662 135 633 142 L 617 146 L 610 149 Q 607 150 604 150 L 598 150 Q 596 149 591 148 L 581 146 Q 571 145 495 131 Q 419 117 401 115 C 371 111 359 72 389 74 Z" fill="black"></path>
				<path d="M 426 77 L 425 50 Q 424 42 412 22 Q 400 1 394 -8 L 369 -45 Q 334 -96 300 -131 Q 297 -137 301 -141 Q 305 -145 313 -140 L 357 -116 Q 365 -112 386 -92 Q 397 -84 406 -75 L 473 -2 Q 484 11 492 18 L 505 27 Q 511 37 504 49 Q 496 61 487 64 L 452 80 C 427 92 427 92 426 77 Z" fill="black"></path>
				<path d="M 565 39 L 577 26 L 604 -10 Q 625 -39 640 -62 L 669 -106 Q 671 -111 687 -131 Q 703 -151 710 -153 Q 717 -155 721 -151 Q 726 -147 729 -130 Q 732 -113 730 -100 Q 724 -72 713 -54 Q 702 -36 681 -16 Q 675 -10 646 10 Q 616 30 609 32 L 568 49 Q 563 49 563 45 Q 562 40 565 39 Z" fill="red"></path>
</g>
		<text x="40" y="140" font-size="128" fill="#999999">10</text></g>
</g>
</svg>
