<?xml version="1.0" standalone="no"?>
<!DOCTYPE svg PUBLIC "-//W3C//DTD SVG 1.1//EN"
 "http://www.w3.org/Graphics/SVG/1.1/DTD/svg11.dtd">
<!-- generate by Japanese dictionary app com.asnsami.kanjidictionary -->

<svg xmlns="http://www.w3.org/2000/svg" xmlns:sodipodi="http://sodipodi.sourceforge.net/DTD/sodipodi-0.dtd" version="1.1" width="640" height="256" viewBox="0 0 5120 2048">
	<g id="id0:id0" transform="translate(0.0,0)">
		<g id="id0:id0:id0" transform="matrix(1.0,0,0,1.0,0,0.0)">			<g stroke="lightgray" stroke-width="4" transform="scale(4, 4)"> <rect x="0" y="0" width="256" height="256" fill="white" stroke-width="4"/></g>
			<g transform="scale(0.92, -0.92) translate(60, -920)">					<path d="M 179 647 Q 164 645 164 631 Q 164 627 180 597 Q 196 565 196 526 L 196 255 Q 196 144 184 45 Q 171 2 171 -18 Q 171 -34 185 -61 Q 204 -93 212 -93 Q 230 -93 239 -54 Q 240 -45 240 -34 L 242 -1 Q 244 25 244 57 L 244 426 Q 244 495 255 592 C 257 613 257 613 243 621 Q 236 627 219 634 Q 194 647 179 647 Z" fill="red"></path>
				<path d="M 736 -25 Q 767 -133 783 -133 Q 806 -133 825 -72 Q 848 -1 848 75 Q 848 86 835 280 Q 823 465 823 513 Q 823 561 841 593 Q 852 618 852 622 Q 852 639 800 672 Q 755 694 735 694 Q 725 694 703 687 Q 664 677 575 665 L 243 621 C 213 617 225 588 255 592 Q 289 596 422 612 Q 654 639 720 639 Q 734 639 745 627 Q 764 607 764 561 Q 777 356 779 131 Q 779 103 775 59 Q 766 10 756 10 L 735 26 Q 733 26 730 23 C 721 25 727 4 736 -25 Z" fill="lightgray"></path>
				<path d="M 404 390 Q 434 424 463 468 Q 481 494 495 516 L 507 536 Q 523 562 523 569 L 523 570 Q 523 581 492 592 Q 469 599 460 599 Q 446 599 443 587 L 443 567 Q 443 541 404 475 Q 354 389 267 303 Q 267 300 275 299 Q 304 301 355 341 Q 373 355 391 375 L 404 390 Z" fill="lightgray"></path>
				<path d="M 495 516 Q 500 508 509 493 Q 580 381 604 358 Q 614 350 620 350 Q 650 350 707 360 Q 771 369 771 379 Q 771 382 743 389 Q 690 400 653 423 Q 599 452 517 527 Q 513 531 507 536 C 484 556 479 542 495 516 Z" fill="lightgray"></path>
				<path d="M 552 354 Q 546 354 543 349 Q 540 345 540 339 Q 540 326 516 301 Q 485 267 443 241 C 418 225 414 208 443 216 Q 498 231 542 257 Q 581 280 613 298 Q 628 303 628 306 Q 628 321 590 341 Q 563 354 552 354 Z" fill="lightgray"></path>
				<path d="M 443 241 Q 444 296 451 328 Q 456 343 456 347 Q 456 360 431 376 Q 416 386 404 390 C 385 399 385 399 391 375 Q 399 346 399 335 L 399 215 Q 399 150 426 125 Q 464 87 534 87 Q 614 87 668 111 Q 708 129 708 150 Q 708 155 696 167 Q 682 189 670 223 Q 658 251 651 251 Q 648 251 646 237 Q 640 185 627 165 Q 622 154 601 145 Q 577 135 534 135 Q 488 135 465 153 Q 443 174 443 215 L 443 216 L 443 241 Z" fill="lightgray"></path>
				<path d="M 240 -34 Q 260 -40 280 -41 Q 297 -41 337 -38 Q 423 -34 552 -29 Q 630 -26 724 -26 Q 731 -26 736 -25 C 766 -23 757 10 730 23 Q 710 35 683 35 Q 652 35 618 31 Q 460 13 345 4 Q 296 0 242 -1 C 212 -2 211 -27 240 -34 Z" fill="lightgray"></path>
</g>
		<text x="40" y="140" font-size="128" fill="#999999">1</text></g>
		<g id="id0:id1:id1" transform="matrix(1.0,0,0,1.0,1024,0.0)">			<g stroke="lightgray" stroke-width="4" transform="scale(4, 4)"> <rect x="0" y="0" width="256" height="256" fill="white" stroke-width="4"/></g>
			<g transform="scale(0.92, -0.92) translate(60, -920)">					<path d="M 179 647 Q 164 645 164 631 Q 164 627 180 597 Q 196 565 196 526 L 196 255 Q 196 144 184 45 Q 171 2 171 -18 Q 171 -34 185 -61 Q 204 -93 212 -93 Q 230 -93 239 -54 Q 240 -45 240 -34 L 242 -1 Q 244 25 244 57 L 244 426 Q 244 495 255 592 C 257 613 257 613 243 621 Q 236 627 219 634 Q 194 647 179 647 Z" fill="black"></path>
				<path d="M 736 -25 Q 767 -133 783 -133 Q 806 -133 825 -72 Q 848 -1 848 75 Q 848 86 835 280 Q 823 465 823 513 Q 823 561 841 593 Q 852 618 852 622 Q 852 639 800 672 Q 755 694 735 694 Q 725 694 703 687 Q 664 677 575 665 L 243 621 C 213 617 225 588 255 592 Q 289 596 422 612 Q 654 639 720 639 Q 734 639 745 627 Q 764 607 764 561 Q 777 356 779 131 Q 779 103 775 59 Q 766 10 756 10 L 735 26 Q 733 26 730 23 C 721 25 727 4 736 -25 Z" fill="red"></path>
				<path d="M 404 390 Q 434 424 463 468 Q 481 494 495 516 L 507 536 Q 523 562 523 569 L 523 570 Q 523 581 492 592 Q 469 599 460 599 Q 446 599 443 587 L 443 567 Q 443 541 404 475 Q 354 389 267 303 Q 267 300 275 299 Q 304 301 355 341 Q 373 355 391 375 L 404 390 Z" fill="lightgray"></path>
				<path d="M 495 516 Q 500 508 509 493 Q 580 381 604 358 Q 614 350 620 350 Q 650 350 707 360 Q 771 369 771 379 Q 771 382 743 389 Q 690 400 653 423 Q 599 452 517 527 Q 513 531 507 536 C 484 556 479 542 495 516 Z" fill="lightgray"></path>
				<path d="M 552 354 Q 546 354 543 349 Q 540 345 540 339 Q 540 326 516 301 Q 485 267 443 241 C 418 225 414 208 443 216 Q 498 231 542 257 Q 581 280 613 298 Q 628 303 628 306 Q 628 321 590 341 Q 563 354 552 354 Z" fill="lightgray"></path>
				<path d="M 443 241 Q 444 296 451 328 Q 456 343 456 347 Q 456 360 431 376 Q 416 386 404 390 C 385 399 385 399 391 375 Q 399 346 399 335 L 399 215 Q 399 150 426 125 Q 464 87 534 87 Q 614 87 668 111 Q 708 129 708 150 Q 708 155 696 167 Q 682 189 670 223 Q 658 251 651 251 Q 648 251 646 237 Q 640 185 627 165 Q 622 154 601 145 Q 577 135 534 135 Q 488 135 465 153 Q 443 174 443 215 L 443 216 L 443 241 Z" fill="lightgray"></path>
				<path d="M 240 -34 Q 260 -40 280 -41 Q 297 -41 337 -38 Q 423 -34 552 -29 Q 630 -26 724 -26 Q 731 -26 736 -25 C 766 -23 757 10 730 23 Q 710 35 683 35 Q 652 35 618 31 Q 460 13 345 4 Q 296 0 242 -1 C 212 -2 211 -27 240 -34 Z" fill="lightgray"></path>
</g>
		<text x="40" y="140" font-size="128" fill="#999999">2</text></g>
		<g id="id0:id2:id2" transform="matrix(1.0,0,0,1.0,2048,0.0)">			<g stroke="lightgray" stroke-width="4" transform="scale(4, 4)"> <rect x="0" y="0" width="256" height="256" fill="white" stroke-width="4"/></g>
			<g transform="scale(0.92, -0.92) translate(60, -920)">					<path d="M 179 647 Q 164 645 164 631 Q 164 627 180 597 Q 196 565 196 526 L 196 255 Q 196 144 184 45 Q 171 2 171 -18 Q 171 -34 185 -61 Q 204 -93 212 -93 Q 230 -93 239 -54 Q 240 -45 240 -34 L 242 -1 Q 244 25 244 57 L 244 426 Q 244 495 255 592 C 257 613 257 613 243 621 Q 236 627 219 634 Q 194 647 179 647 Z" fill="black"></path>
				<path d="M 736 -25 Q 767 -133 783 -133 Q 806 -133 825 -72 Q 848 -1 848 75 Q 848 86 835 280 Q 823 465 823 513 Q 823 561 841 593 Q 852 618 852 622 Q 852 639 800 672 Q 755 694 735 694 Q 725 694 703 687 Q 664 677 575 665 L 243 621 C 213 617 225 588 255 592 Q 289 596 422 612 Q 654 639 720 639 Q 734 639 745 627 Q 764 607 764 561 Q 777 356 779 131 Q 779 103 775 59 Q 766 10 756 10 L 735 26 Q 733 26 730 23 C 721 25 727 4 736 -25 Z" fill="black"></path>
				<path d="M 404 390 Q 434 424 463 468 Q 481 494 495 516 L 507 536 Q 523 562 523 569 L 523 570 Q 523 581 492 592 Q 469 599 460 599 Q 446 599 443 587 L 443 567 Q 443 541 404 475 Q 354 389 267 303 Q 267 300 275 299 Q 304 301 355 341 Q 373 355 391 375 L 404 390 Z" fill="red"></path>
				<path d="M 495 516 Q 500 508 509 493 Q 580 381 604 358 Q 614 350 620 350 Q 650 350 707 360 Q 771 369 771 379 Q 771 382 743 389 Q 690 400 653 423 Q 599 452 517 527 Q 513 531 507 536 C 484 556 479 542 495 516 Z" fill="lightgray"></path>
				<path d="M 552 354 Q 546 354 543 349 Q 540 345 540 339 Q 540 326 516 301 Q 485 267 443 241 C 418 225 414 208 443 216 Q 498 231 542 257 Q 581 280 613 298 Q 628 303 628 306 Q 628 321 590 341 Q 563 354 552 354 Z" fill="lightgray"></path>
				<path d="M 443 241 Q 444 296 451 328 Q 456 343 456 347 Q 456 360 431 376 Q 416 386 404 390 C 385 399 385 399 391 375 Q 399 346 399 335 L 399 215 Q 399 150 426 125 Q 464 87 534 87 Q 614 87 668 111 Q 708 129 708 150 Q 708 155 696 167 Q 682 189 670 223 Q 658 251 651 251 Q 648 251 646 237 Q 640 185 627 165 Q 622 154 601 145 Q 577 135 534 135 Q 488 135 465 153 Q 443 174 443 215 L 443 216 L 443 241 Z" fill="lightgray"></path>
				<path d="M 240 -34 Q 260 -40 280 -41 Q 297 -41 337 -38 Q 423 -34 552 -29 Q 630 -26 724 -26 Q 731 -26 736 -25 C 766 -23 757 10 730 23 Q 710 35 683 35 Q 652 35 618 31 Q 460 13 345 4 Q 296 0 242 -1 C 212 -2 211 -27 240 -34 Z" fill="lightgray"></path>
</g>
		<text x="40" y="140" font-size="128" fill="#999999">3</text></g>
		<g id="id0:id3:id3" transform="matrix(1.0,0,0,1.0,3072,0.0)">			<g stroke="lightgray" stroke-width="4" transform="scale(4, 4)"> <rect x="0" y="0" width="256" height="256" fill="white" stroke-width="4"/></g>
			<g transform="scale(0.92, -0.92) translate(60, -920)">					<path d="M 179 647 Q 164 645 164 631 Q 164 627 180 597 Q 196 565 196 526 L 196 255 Q 196 144 184 45 Q 171 2 171 -18 Q 171 -34 185 -61 Q 204 -93 212 -93 Q 230 -93 239 -54 Q 240 -45 240 -34 L 242 -1 Q 244 25 244 57 L 244 426 Q 244 495 255 592 C 257 613 257 613 243 621 Q 236 627 219 634 Q 194 647 179 647 Z" fill="black"></path>
				<path d="M 736 -25 Q 767 -133 783 -133 Q 806 -133 825 -72 Q 848 -1 848 75 Q 848 86 835 280 Q 823 465 823 513 Q 823 561 841 593 Q 852 618 852 622 Q 852 639 800 672 Q 755 694 735 694 Q 725 694 703 687 Q 664 677 575 665 L 243 621 C 213 617 225 588 255 592 Q 289 596 422 612 Q 654 639 720 639 Q 734 639 745 627 Q 764 607 764 561 Q 777 356 779 131 Q 779 103 775 59 Q 766 10 756 10 L 735 26 Q 733 26 730 23 C 721 25 727 4 736 -25 Z" fill="black"></path>
				<path d="M 404 390 Q 434 424 463 468 Q 481 494 495 516 L 507 536 Q 523 562 523 569 L 523 570 Q 523 581 492 592 Q 469 599 460 599 Q 446 599 443 587 L 443 567 Q 443 541 404 475 Q 354 389 267 303 Q 267 300 275 299 Q 304 301 355 341 Q 373 355 391 375 L 404 390 Z" fill="black"></path>
				<path d="M 495 516 Q 500 508 509 493 Q 580 381 604 358 Q 614 350 620 350 Q 650 350 707 360 Q 771 369 771 379 Q 771 382 743 389 Q 690 400 653 423 Q 599 452 517 527 Q 513 531 507 536 C 484 556 479 542 495 516 Z" fill="red"></path>
				<path d="M 552 354 Q 546 354 543 349 Q 540 345 540 339 Q 540 326 516 301 Q 485 267 443 241 C 418 225 414 208 443 216 Q 498 231 542 257 Q 581 280 613 298 Q 628 303 628 306 Q 628 321 590 341 Q 563 354 552 354 Z" fill="lightgray"></path>
				<path d="M 443 241 Q 444 296 451 328 Q 456 343 456 347 Q 456 360 431 376 Q 416 386 404 390 C 385 399 385 399 391 375 Q 399 346 399 335 L 399 215 Q 399 150 426 125 Q 464 87 534 87 Q 614 87 668 111 Q 708 129 708 150 Q 708 155 696 167 Q 682 189 670 223 Q 658 251 651 251 Q 648 251 646 237 Q 640 185 627 165 Q 622 154 601 145 Q 577 135 534 135 Q 488 135 465 153 Q 443 174 443 215 L 443 216 L 443 241 Z" fill="lightgray"></path>
				<path d="M 240 -34 Q 260 -40 280 -41 Q 297 -41 337 -38 Q 423 -34 552 -29 Q 630 -26 724 -26 Q 731 -26 736 -25 C 766 -23 757 10 730 23 Q 710 35 683 35 Q 652 35 618 31 Q 460 13 345 4 Q 296 0 242 -1 C 212 -2 211 -27 240 -34 Z" fill="lightgray"></path>
</g>
		<text x="40" y="140" font-size="128" fill="#999999">4</text></g>
		<g id="id0:id4:id4" transform="matrix(1.0,0,0,1.0,4096,0.0)">			<g stroke="lightgray" stroke-width="4" transform="scale(4, 4)"> <rect x="0" y="0" width="256" height="256" fill="white" stroke-width="4"/></g>
			<g transform="scale(0.92, -0.92) translate(60, -920)">					<path d="M 179 647 Q 164 645 164 631 Q 164 627 180 597 Q 196 565 196 526 L 196 255 Q 196 144 184 45 Q 171 2 171 -18 Q 171 -34 185 -61 Q 204 -93 212 -93 Q 230 -93 239 -54 Q 240 -45 240 -34 L 242 -1 Q 244 25 244 57 L 244 426 Q 244 495 255 592 C 257 613 257 613 243 621 Q 236 627 219 634 Q 194 647 179 647 Z" fill="black"></path>
				<path d="M 736 -25 Q 767 -133 783 -133 Q 806 -133 825 -72 Q 848 -1 848 75 Q 848 86 835 280 Q 823 465 823 513 Q 823 561 841 593 Q 852 618 852 622 Q 852 639 800 672 Q 755 694 735 694 Q 725 694 703 687 Q 664 677 575 665 L 243 621 C 213 617 225 588 255 592 Q 289 596 422 612 Q 654 639 720 639 Q 734 639 745 627 Q 764 607 764 561 Q 777 356 779 131 Q 779 103 775 59 Q 766 10 756 10 L 735 26 Q 733 26 730 23 C 721 25 727 4 736 -25 Z" fill="black"></path>
				<path d="M 404 390 Q 434 424 463 468 Q 481 494 495 516 L 507 536 Q 523 562 523 569 L 523 570 Q 523 581 492 592 Q 469 599 460 599 Q 446 599 443 587 L 443 567 Q 443 541 404 475 Q 354 389 267 303 Q 267 300 275 299 Q 304 301 355 341 Q 373 355 391 375 L 404 390 Z" fill="black"></path>
				<path d="M 495 516 Q 500 508 509 493 Q 580 381 604 358 Q 614 350 620 350 Q 650 350 707 360 Q 771 369 771 379 Q 771 382 743 389 Q 690 400 653 423 Q 599 452 517 527 Q 513 531 507 536 C 484 556 479 542 495 516 Z" fill="black"></path>
				<path d="M 552 354 Q 546 354 543 349 Q 540 345 540 339 Q 540 326 516 301 Q 485 267 443 241 C 418 225 414 208 443 216 Q 498 231 542 257 Q 581 280 613 298 Q 628 303 628 306 Q 628 321 590 341 Q 563 354 552 354 Z" fill="red"></path>
				<path d="M 443 241 Q 444 296 451 328 Q 456 343 456 347 Q 456 360 431 376 Q 416 386 404 390 C 385 399 385 399 391 375 Q 399 346 399 335 L 399 215 Q 399 150 426 125 Q 464 87 534 87 Q 614 87 668 111 Q 708 129 708 150 Q 708 155 696 167 Q 682 189 670 223 Q 658 251 651 251 Q 648 251 646 237 Q 640 185 627 165 Q 622 154 601 145 Q 577 135 534 135 Q 488 135 465 153 Q 443 174 443 215 L 443 216 L 443 241 Z" fill="lightgray"></path>
				<path d="M 240 -34 Q 260 -40 280 -41 Q 297 -41 337 -38 Q 423 -34 552 -29 Q 630 -26 724 -26 Q 731 -26 736 -25 C 766 -23 757 10 730 23 Q 710 35 683 35 Q 652 35 618 31 Q 460 13 345 4 Q 296 0 242 -1 C 212 -2 211 -27 240 -34 Z" fill="lightgray"></path>
</g>
		<text x="40" y="140" font-size="128" fill="#999999">5</text></g>
</g>
	<g id="id1:id1" transform="translate(0.0,1024)">
		<g id="id1:id0:id0" transform="matrix(1.0,0,0,1.0,0,0.0)">			<g stroke="lightgray" stroke-width="4" transform="scale(4, 4)"> <rect x="0" y="0" width="256" height="256" fill="white" stroke-width="4"/></g>
			<g transform="scale(0.92, -0.92) translate(60, -920)">					<path d="M 179 647 Q 164 645 164 631 Q 164 627 180 597 Q 196 565 196 526 L 196 255 Q 196 144 184 45 Q 171 2 171 -18 Q 171 -34 185 -61 Q 204 -93 212 -93 Q 230 -93 239 -54 Q 240 -45 240 -34 L 242 -1 Q 244 25 244 57 L 244 426 Q 244 495 255 592 C 257 613 257 613 243 621 Q 236 627 219 634 Q 194 647 179 647 Z" fill="black"></path>
				<path d="M 736 -25 Q 767 -133 783 -133 Q 806 -133 825 -72 Q 848 -1 848 75 Q 848 86 835 280 Q 823 465 823 513 Q 823 561 841 593 Q 852 618 852 622 Q 852 639 800 672 Q 755 694 735 694 Q 725 694 703 687 Q 664 677 575 665 L 243 621 C 213 617 225 588 255 592 Q 289 596 422 612 Q 654 639 720 639 Q 734 639 745 627 Q 764 607 764 561 Q 777 356 779 131 Q 779 103 775 59 Q 766 10 756 10 L 735 26 Q 733 26 730 23 C 721 25 727 4 736 -25 Z" fill="black"></path>
				<path d="M 404 390 Q 434 424 463 468 Q 481 494 495 516 L 507 536 Q 523 562 523 569 L 523 570 Q 523 581 492 592 Q 469 599 460 599 Q 446 599 443 587 L 443 567 Q 443 541 404 475 Q 354 389 267 303 Q 267 300 275 299 Q 304 301 355 341 Q 373 355 391 375 L 404 390 Z" fill="black"></path>
				<path d="M 495 516 Q 500 508 509 493 Q 580 381 604 358 Q 614 350 620 350 Q 650 350 707 360 Q 771 369 771 379 Q 771 382 743 389 Q 690 400 653 423 Q 599 452 517 527 Q 513 531 507 536 C 484 556 479 542 495 516 Z" fill="black"></path>
				<path d="M 552 354 Q 546 354 543 349 Q 540 345 540 339 Q 540 326 516 301 Q 485 267 443 241 C 418 225 414 208 443 216 Q 498 231 542 257 Q 581 280 613 298 Q 628 303 628 306 Q 628 321 590 341 Q 563 354 552 354 Z" fill="black"></path>
				<path d="M 443 241 Q 444 296 451 328 Q 456 343 456 347 Q 456 360 431 376 Q 416 386 404 390 C 385 399 385 399 391 375 Q 399 346 399 335 L 399 215 Q 399 150 426 125 Q 464 87 534 87 Q 614 87 668 111 Q 708 129 708 150 Q 708 155 696 167 Q 682 189 670 223 Q 658 251 651 251 Q 648 251 646 237 Q 640 185 627 165 Q 622 154 601 145 Q 577 135 534 135 Q 488 135 465 153 Q 443 174 443 215 L 443 216 L 443 241 Z" fill="red"></path>
				<path d="M 240 -34 Q 260 -40 280 -41 Q 297 -41 337 -38 Q 423 -34 552 -29 Q 630 -26 724 -26 Q 731 -26 736 -25 C 766 -23 757 10 730 23 Q 710 35 683 35 Q 652 35 618 31 Q 460 13 345 4 Q 296 0 242 -1 C 212 -2 211 -27 240 -34 Z" fill="lightgray"></path>
</g>
		<text x="40" y="140" font-size="128" fill="#999999">6</text></g>
		<g id="id1:id1:id1" transform="matrix(1.0,0,0,1.0,1024,0.0)">			<g stroke="lightgray" stroke-width="4" transform="scale(4, 4)"> <rect x="0" y="0" width="256" height="256" fill="white" stroke-width="4"/></g>
			<g transform="scale(0.92, -0.92) translate(60, -920)">					<path d="M 179 647 Q 164 645 164 631 Q 164 627 180 597 Q 196 565 196 526 L 196 255 Q 196 144 184 45 Q 171 2 171 -18 Q 171 -34 185 -61 Q 204 -93 212 -93 Q 230 -93 239 -54 Q 240 -45 240 -34 L 242 -1 Q 244 25 244 57 L 244 426 Q 244 495 255 592 C 257 613 257 613 243 621 Q 236 627 219 634 Q 194 647 179 647 Z" fill="black"></path>
				<path d="M 736 -25 Q 767 -133 783 -133 Q 806 -133 825 -72 Q 848 -1 848 75 Q 848 86 835 280 Q 823 465 823 513 Q 823 561 841 593 Q 852 618 852 622 Q 852 639 800 672 Q 755 694 735 694 Q 725 694 703 687 Q 664 677 575 665 L 243 621 C 213 617 225 588 255 592 Q 289 596 422 612 Q 654 639 720 639 Q 734 639 745 627 Q 764 607 764 561 Q 777 356 779 131 Q 779 103 775 59 Q 766 10 756 10 L 735 26 Q 733 26 730 23 C 721 25 727 4 736 -25 Z" fill="black"></path>
				<path d="M 404 390 Q 434 424 463 468 Q 481 494 495 516 L 507 536 Q 523 562 523 569 L 523 570 Q 523 581 492 592 Q 469 599 460 599 Q 446 599 443 587 L 443 567 Q 443 541 404 475 Q 354 389 267 303 Q 267 300 275 299 Q 304 301 355 341 Q 373 355 391 375 L 404 390 Z" fill="black"></path>
				<path d="M 495 516 Q 500 508 509 493 Q 580 381 604 358 Q 614 350 620 350 Q 650 350 707 360 Q 771 369 771 379 Q 771 382 743 389 Q 690 400 653 423 Q 599 452 517 527 Q 513 531 507 536 C 484 556 479 542 495 516 Z" fill="black"></path>
				<path d="M 552 354 Q 546 354 543 349 Q 540 345 540 339 Q 540 326 516 301 Q 485 267 443 241 C 418 225 414 208 443 216 Q 498 231 542 257 Q 581 280 613 298 Q 628 303 628 306 Q 628 321 590 341 Q 563 354 552 354 Z" fill="black"></path>
				<path d="M 443 241 Q 444 296 451 328 Q 456 343 456 347 Q 456 360 431 376 Q 416 386 404 390 C 385 399 385 399 391 375 Q 399 346 399 335 L 399 215 Q 399 150 426 125 Q 464 87 534 87 Q 614 87 668 111 Q 708 129 708 150 Q 708 155 696 167 Q 682 189 670 223 Q 658 251 651 251 Q 648 251 646 237 Q 640 185 627 165 Q 622 154 601 145 Q 577 135 534 135 Q 488 135 465 153 Q 443 174 443 215 L 443 216 L 443 241 Z" fill="black"></path>
				<path d="M 240 -34 Q 260 -40 280 -41 Q 297 -41 337 -38 Q 423 -34 552 -29 Q 630 -26 724 -26 Q 731 -26 736 -25 C 766 -23 757 10 730 23 Q 710 35 683 35 Q 652 35 618 31 Q 460 13 345 4 Q 296 0 242 -1 C 212 -2 211 -27 240 -34 Z" fill="red"></path>
</g>
		<text x="40" y="140" font-size="128" fill="#999999">7</text></g>
		<g id="id1:id2:id2" transform="matrix(1.0,0,0,1.0,2048,0.0)">			<g stroke="white" stroke-width="4" transform="scale(4, 4)"> <rect x="1" y="1" width="255" height="255" fill="white" stroke-width="0"/></g>
</g>
		<g id="id1:id3:id3" transform="matrix(1.0,0,0,1.0,3072,0.0)">			<g stroke="white" stroke-width="4" transform="scale(4, 4)"> <rect x="1" y="1" width="255" height="255" fill="white" stroke-width="0"/></g>
</g>
		<g id="id1:id4:id4" transform="matrix(1.0,0,0,1.0,4096,0.0)">			<g stroke="white" stroke-width="4" transform="scale(4, 4)"> <rect x="1" y="1" width="255" height="255" fill="white" stroke-width="0"/></g>
</g>
</g>
</svg>
