<?xml version="1.0" standalone="no"?>
<!DOCTYPE svg PUBLIC "-//W3C//DTD SVG 1.1//EN"
 "http://www.w3.org/Graphics/SVG/1.1/DTD/svg11.dtd">
<!-- generate by Japanese dictionary app com.asnsami.kanjidictionary -->

<svg xmlns="http://www.w3.org/2000/svg" xmlns:sodipodi="http://sodipodi.sourceforge.net/DTD/sodipodi-0.dtd" version="1.1" width="640" height="256" viewBox="0 0 5120 2048">
	<g id="id0:id0" transform="translate(0.0,0)">
		<g id="id0:id0:id0" transform="matrix(1.0,0,0,1.0,0,0.0)">			<g stroke="lightgray" stroke-width="4" transform="scale(4, 4)"> <rect x="0" y="0" width="256" height="256" fill="white" stroke-width="4"/></g>
			<g transform="scale(0.92, -0.92) translate(60, -920)">					<path d="M 395 668 Q 411 693 430 712 Q 440 725 427 740 Q 387 776 358 774 Q 348 773 348 757 Q 357 667 242 551 Q 226 536 218 524 Q 208 509 224 513 Q 240 514 264 530 Q 336 579 378 643 Q 378 644 379 645 L 395 668 Z" fill="red"></path>
				<path d="M 379 645 Q 380 645 383 643 Q 425 616 488 632 Q 717 680 731 689 Q 741 698 735 707 Q 728 720 696 728 Q 666 734 569 701 Q 488 679 395 668 C 365 664 353 660 379 645 Z" fill="lightgray"></path>
				<path d="M 414 307 Q 415 311 416 317 L 416 343 Q 416 353 415 364 Q 411 389 409 411 L 405 437 Q 398 492 398 514 C 397 539 397 539 383 546 Q 373 552 345 558 Q 332 562 329 556 Q 322 550 330 534 Q 358 465 370 356 Q 370 317 391 296 C 408 277 408 278 414 307 Z" fill="lightgray"></path>
				<path d="M 600 338 Q 616 313 633 305 Q 643 296 659 319 Q 674 341 704 465 Q 714 496 737 522 Q 750 535 740 549 Q 724 565 681 593 Q 665 602 587 584 Q 557 584 383 546 C 354 540 369 506 398 514 Q 473 535 601 552 Q 629 556 641 547 Q 654 537 650 518 Q 626 379 606 368 C 592 349 592 349 600 338 Z" fill="lightgray"></path>
				<path d="M 409 411 L 414 411 Q 505 427 571 437 Q 593 441 585 453 Q 575 466 551 471 Q 527 474 405 437 C 376 428 379 410 409 411 Z" fill="lightgray"></path>
				<path d="M 416 317 L 426 317 Q 526 330 600 338 C 630 341 634 356 606 368 Q 600 371 594 372 Q 572 376 416 343 C 387 337 386 317 416 317 Z" fill="lightgray"></path>
				<path d="M 436 220 Q 445 235 460 245 Q 467 249 467 259 Q 467 268 457 280 Q 435 302 414 307 C 392 315 392 315 391 296 Q 395 227 265 100 Q 262 99 260 96 Q 223 62 130 -1 Q 123 -5 132 -9 Q 193 -9 315 91 L 362 137 L 375 151 Q 393 172 416 196 L 436 220 Z" fill="lightgray"></path>
				<path d="M 579 24 Q 619 78 657 154 Q 673 184 696 202 Q 718 217 705 233 Q 692 246 660 262 Q 635 272 559 244 Q 472 226 436 220 C 406 215 387 204 416 196 Q 458 180 512 194 Q 573 215 583 214 Q 604 211 597 189 Q 575 111 535 55 L 509 23 Q 424 -67 230 -112 Q 214 -115 226 -125 Q 233 -129 289 -127 Q 359 -123 439 -85 Q 500 -57 546 -13 L 579 24 Z" fill="lightgray"></path>
				<path d="M 546 -13 Q 592 -59 710 -148 Q 750 -172 921 -131 Q 961 -122 956 -111 Q 955 -107 915 -97 Q 699 -60 606 6 L 579 24 L 535 55 L 459 118 Q 416 155 380 152 Q 377 152 375 151 C 345 150 343 150 362 137 Q 447 80 509 23 L 546 -13 Z" fill="lightgray"></path>
</g>
		<text x="40" y="140" font-size="128" fill="#999999">1</text></g>
		<g id="id0:id1:id1" transform="matrix(1.0,0,0,1.0,1024,0.0)">			<g stroke="lightgray" stroke-width="4" transform="scale(4, 4)"> <rect x="0" y="0" width="256" height="256" fill="white" stroke-width="4"/></g>
			<g transform="scale(0.92, -0.92) translate(60, -920)">					<path d="M 395 668 Q 411 693 430 712 Q 440 725 427 740 Q 387 776 358 774 Q 348 773 348 757 Q 357 667 242 551 Q 226 536 218 524 Q 208 509 224 513 Q 240 514 264 530 Q 336 579 378 643 Q 378 644 379 645 L 395 668 Z" fill="black"></path>
				<path d="M 379 645 Q 380 645 383 643 Q 425 616 488 632 Q 717 680 731 689 Q 741 698 735 707 Q 728 720 696 728 Q 666 734 569 701 Q 488 679 395 668 C 365 664 353 660 379 645 Z" fill="red"></path>
				<path d="M 414 307 Q 415 311 416 317 L 416 343 Q 416 353 415 364 Q 411 389 409 411 L 405 437 Q 398 492 398 514 C 397 539 397 539 383 546 Q 373 552 345 558 Q 332 562 329 556 Q 322 550 330 534 Q 358 465 370 356 Q 370 317 391 296 C 408 277 408 278 414 307 Z" fill="lightgray"></path>
				<path d="M 600 338 Q 616 313 633 305 Q 643 296 659 319 Q 674 341 704 465 Q 714 496 737 522 Q 750 535 740 549 Q 724 565 681 593 Q 665 602 587 584 Q 557 584 383 546 C 354 540 369 506 398 514 Q 473 535 601 552 Q 629 556 641 547 Q 654 537 650 518 Q 626 379 606 368 C 592 349 592 349 600 338 Z" fill="lightgray"></path>
				<path d="M 409 411 L 414 411 Q 505 427 571 437 Q 593 441 585 453 Q 575 466 551 471 Q 527 474 405 437 C 376 428 379 410 409 411 Z" fill="lightgray"></path>
				<path d="M 416 317 L 426 317 Q 526 330 600 338 C 630 341 634 356 606 368 Q 600 371 594 372 Q 572 376 416 343 C 387 337 386 317 416 317 Z" fill="lightgray"></path>
				<path d="M 436 220 Q 445 235 460 245 Q 467 249 467 259 Q 467 268 457 280 Q 435 302 414 307 C 392 315 392 315 391 296 Q 395 227 265 100 Q 262 99 260 96 Q 223 62 130 -1 Q 123 -5 132 -9 Q 193 -9 315 91 L 362 137 L 375 151 Q 393 172 416 196 L 436 220 Z" fill="lightgray"></path>
				<path d="M 579 24 Q 619 78 657 154 Q 673 184 696 202 Q 718 217 705 233 Q 692 246 660 262 Q 635 272 559 244 Q 472 226 436 220 C 406 215 387 204 416 196 Q 458 180 512 194 Q 573 215 583 214 Q 604 211 597 189 Q 575 111 535 55 L 509 23 Q 424 -67 230 -112 Q 214 -115 226 -125 Q 233 -129 289 -127 Q 359 -123 439 -85 Q 500 -57 546 -13 L 579 24 Z" fill="lightgray"></path>
				<path d="M 546 -13 Q 592 -59 710 -148 Q 750 -172 921 -131 Q 961 -122 956 -111 Q 955 -107 915 -97 Q 699 -60 606 6 L 579 24 L 535 55 L 459 118 Q 416 155 380 152 Q 377 152 375 151 C 345 150 343 150 362 137 Q 447 80 509 23 L 546 -13 Z" fill="lightgray"></path>
</g>
		<text x="40" y="140" font-size="128" fill="#999999">2</text></g>
		<g id="id0:id2:id2" transform="matrix(1.0,0,0,1.0,2048,0.0)">			<g stroke="lightgray" stroke-width="4" transform="scale(4, 4)"> <rect x="0" y="0" width="256" height="256" fill="white" stroke-width="4"/></g>
			<g transform="scale(0.92, -0.92) translate(60, -920)">					<path d="M 395 668 Q 411 693 430 712 Q 440 725 427 740 Q 387 776 358 774 Q 348 773 348 757 Q 357 667 242 551 Q 226 536 218 524 Q 208 509 224 513 Q 240 514 264 530 Q 336 579 378 643 Q 378 644 379 645 L 395 668 Z" fill="black"></path>
				<path d="M 379 645 Q 380 645 383 643 Q 425 616 488 632 Q 717 680 731 689 Q 741 698 735 707 Q 728 720 696 728 Q 666 734 569 701 Q 488 679 395 668 C 365 664 353 660 379 645 Z" fill="black"></path>
				<path d="M 414 307 Q 415 311 416 317 L 416 343 Q 416 353 415 364 Q 411 389 409 411 L 405 437 Q 398 492 398 514 C 397 539 397 539 383 546 Q 373 552 345 558 Q 332 562 329 556 Q 322 550 330 534 Q 358 465 370 356 Q 370 317 391 296 C 408 277 408 278 414 307 Z" fill="red"></path>
				<path d="M 600 338 Q 616 313 633 305 Q 643 296 659 319 Q 674 341 704 465 Q 714 496 737 522 Q 750 535 740 549 Q 724 565 681 593 Q 665 602 587 584 Q 557 584 383 546 C 354 540 369 506 398 514 Q 473 535 601 552 Q 629 556 641 547 Q 654 537 650 518 Q 626 379 606 368 C 592 349 592 349 600 338 Z" fill="lightgray"></path>
				<path d="M 409 411 L 414 411 Q 505 427 571 437 Q 593 441 585 453 Q 575 466 551 471 Q 527 474 405 437 C 376 428 379 410 409 411 Z" fill="lightgray"></path>
				<path d="M 416 317 L 426 317 Q 526 330 600 338 C 630 341 634 356 606 368 Q 600 371 594 372 Q 572 376 416 343 C 387 337 386 317 416 317 Z" fill="lightgray"></path>
				<path d="M 436 220 Q 445 235 460 245 Q 467 249 467 259 Q 467 268 457 280 Q 435 302 414 307 C 392 315 392 315 391 296 Q 395 227 265 100 Q 262 99 260 96 Q 223 62 130 -1 Q 123 -5 132 -9 Q 193 -9 315 91 L 362 137 L 375 151 Q 393 172 416 196 L 436 220 Z" fill="lightgray"></path>
				<path d="M 579 24 Q 619 78 657 154 Q 673 184 696 202 Q 718 217 705 233 Q 692 246 660 262 Q 635 272 559 244 Q 472 226 436 220 C 406 215 387 204 416 196 Q 458 180 512 194 Q 573 215 583 214 Q 604 211 597 189 Q 575 111 535 55 L 509 23 Q 424 -67 230 -112 Q 214 -115 226 -125 Q 233 -129 289 -127 Q 359 -123 439 -85 Q 500 -57 546 -13 L 579 24 Z" fill="lightgray"></path>
				<path d="M 546 -13 Q 592 -59 710 -148 Q 750 -172 921 -131 Q 961 -122 956 -111 Q 955 -107 915 -97 Q 699 -60 606 6 L 579 24 L 535 55 L 459 118 Q 416 155 380 152 Q 377 152 375 151 C 345 150 343 150 362 137 Q 447 80 509 23 L 546 -13 Z" fill="lightgray"></path>
</g>
		<text x="40" y="140" font-size="128" fill="#999999">3</text></g>
		<g id="id0:id3:id3" transform="matrix(1.0,0,0,1.0,3072,0.0)">			<g stroke="lightgray" stroke-width="4" transform="scale(4, 4)"> <rect x="0" y="0" width="256" height="256" fill="white" stroke-width="4"/></g>
			<g transform="scale(0.92, -0.92) translate(60, -920)">					<path d="M 395 668 Q 411 693 430 712 Q 440 725 427 740 Q 387 776 358 774 Q 348 773 348 757 Q 357 667 242 551 Q 226 536 218 524 Q 208 509 224 513 Q 240 514 264 530 Q 336 579 378 643 Q 378 644 379 645 L 395 668 Z" fill="black"></path>
				<path d="M 379 645 Q 380 645 383 643 Q 425 616 488 632 Q 717 680 731 689 Q 741 698 735 707 Q 728 720 696 728 Q 666 734 569 701 Q 488 679 395 668 C 365 664 353 660 379 645 Z" fill="black"></path>
				<path d="M 414 307 Q 415 311 416 317 L 416 343 Q 416 353 415 364 Q 411 389 409 411 L 405 437 Q 398 492 398 514 C 397 539 397 539 383 546 Q 373 552 345 558 Q 332 562 329 556 Q 322 550 330 534 Q 358 465 370 356 Q 370 317 391 296 C 408 277 408 278 414 307 Z" fill="black"></path>
				<path d="M 600 338 Q 616 313 633 305 Q 643 296 659 319 Q 674 341 704 465 Q 714 496 737 522 Q 750 535 740 549 Q 724 565 681 593 Q 665 602 587 584 Q 557 584 383 546 C 354 540 369 506 398 514 Q 473 535 601 552 Q 629 556 641 547 Q 654 537 650 518 Q 626 379 606 368 C 592 349 592 349 600 338 Z" fill="red"></path>
				<path d="M 409 411 L 414 411 Q 505 427 571 437 Q 593 441 585 453 Q 575 466 551 471 Q 527 474 405 437 C 376 428 379 410 409 411 Z" fill="lightgray"></path>
				<path d="M 416 317 L 426 317 Q 526 330 600 338 C 630 341 634 356 606 368 Q 600 371 594 372 Q 572 376 416 343 C 387 337 386 317 416 317 Z" fill="lightgray"></path>
				<path d="M 436 220 Q 445 235 460 245 Q 467 249 467 259 Q 467 268 457 280 Q 435 302 414 307 C 392 315 392 315 391 296 Q 395 227 265 100 Q 262 99 260 96 Q 223 62 130 -1 Q 123 -5 132 -9 Q 193 -9 315 91 L 362 137 L 375 151 Q 393 172 416 196 L 436 220 Z" fill="lightgray"></path>
				<path d="M 579 24 Q 619 78 657 154 Q 673 184 696 202 Q 718 217 705 233 Q 692 246 660 262 Q 635 272 559 244 Q 472 226 436 220 C 406 215 387 204 416 196 Q 458 180 512 194 Q 573 215 583 214 Q 604 211 597 189 Q 575 111 535 55 L 509 23 Q 424 -67 230 -112 Q 214 -115 226 -125 Q 233 -129 289 -127 Q 359 -123 439 -85 Q 500 -57 546 -13 L 579 24 Z" fill="lightgray"></path>
				<path d="M 546 -13 Q 592 -59 710 -148 Q 750 -172 921 -131 Q 961 -122 956 -111 Q 955 -107 915 -97 Q 699 -60 606 6 L 579 24 L 535 55 L 459 118 Q 416 155 380 152 Q 377 152 375 151 C 345 150 343 150 362 137 Q 447 80 509 23 L 546 -13 Z" fill="lightgray"></path>
</g>
		<text x="40" y="140" font-size="128" fill="#999999">4</text></g>
		<g id="id0:id4:id4" transform="matrix(1.0,0,0,1.0,4096,0.0)">			<g stroke="lightgray" stroke-width="4" transform="scale(4, 4)"> <rect x="0" y="0" width="256" height="256" fill="white" stroke-width="4"/></g>
			<g transform="scale(0.92, -0.92) translate(60, -920)">					<path d="M 395 668 Q 411 693 430 712 Q 440 725 427 740 Q 387 776 358 774 Q 348 773 348 757 Q 357 667 242 551 Q 226 536 218 524 Q 208 509 224 513 Q 240 514 264 530 Q 336 579 378 643 Q 378 644 379 645 L 395 668 Z" fill="black"></path>
				<path d="M 379 645 Q 380 645 383 643 Q 425 616 488 632 Q 717 680 731 689 Q 741 698 735 707 Q 728 720 696 728 Q 666 734 569 701 Q 488 679 395 668 C 365 664 353 660 379 645 Z" fill="black"></path>
				<path d="M 414 307 Q 415 311 416 317 L 416 343 Q 416 353 415 364 Q 411 389 409 411 L 405 437 Q 398 492 398 514 C 397 539 397 539 383 546 Q 373 552 345 558 Q 332 562 329 556 Q 322 550 330 534 Q 358 465 370 356 Q 370 317 391 296 C 408 277 408 278 414 307 Z" fill="black"></path>
				<path d="M 600 338 Q 616 313 633 305 Q 643 296 659 319 Q 674 341 704 465 Q 714 496 737 522 Q 750 535 740 549 Q 724 565 681 593 Q 665 602 587 584 Q 557 584 383 546 C 354 540 369 506 398 514 Q 473 535 601 552 Q 629 556 641 547 Q 654 537 650 518 Q 626 379 606 368 C 592 349 592 349 600 338 Z" fill="black"></path>
				<path d="M 409 411 L 414 411 Q 505 427 571 437 Q 593 441 585 453 Q 575 466 551 471 Q 527 474 405 437 C 376 428 379 410 409 411 Z" fill="red"></path>
				<path d="M 416 317 L 426 317 Q 526 330 600 338 C 630 341 634 356 606 368 Q 600 371 594 372 Q 572 376 416 343 C 387 337 386 317 416 317 Z" fill="lightgray"></path>
				<path d="M 436 220 Q 445 235 460 245 Q 467 249 467 259 Q 467 268 457 280 Q 435 302 414 307 C 392 315 392 315 391 296 Q 395 227 265 100 Q 262 99 260 96 Q 223 62 130 -1 Q 123 -5 132 -9 Q 193 -9 315 91 L 362 137 L 375 151 Q 393 172 416 196 L 436 220 Z" fill="lightgray"></path>
				<path d="M 579 24 Q 619 78 657 154 Q 673 184 696 202 Q 718 217 705 233 Q 692 246 660 262 Q 635 272 559 244 Q 472 226 436 220 C 406 215 387 204 416 196 Q 458 180 512 194 Q 573 215 583 214 Q 604 211 597 189 Q 575 111 535 55 L 509 23 Q 424 -67 230 -112 Q 214 -115 226 -125 Q 233 -129 289 -127 Q 359 -123 439 -85 Q 500 -57 546 -13 L 579 24 Z" fill="lightgray"></path>
				<path d="M 546 -13 Q 592 -59 710 -148 Q 750 -172 921 -131 Q 961 -122 956 -111 Q 955 -107 915 -97 Q 699 -60 606 6 L 579 24 L 535 55 L 459 118 Q 416 155 380 152 Q 377 152 375 151 C 345 150 343 150 362 137 Q 447 80 509 23 L 546 -13 Z" fill="lightgray"></path>
</g>
		<text x="40" y="140" font-size="128" fill="#999999">5</text></g>
</g>
	<g id="id1:id1" transform="translate(0.0,1024)">
		<g id="id1:id0:id0" transform="matrix(1.0,0,0,1.0,0,0.0)">			<g stroke="lightgray" stroke-width="4" transform="scale(4, 4)"> <rect x="0" y="0" width="256" height="256" fill="white" stroke-width="4"/></g>
			<g transform="scale(0.92, -0.92) translate(60, -920)">					<path d="M 395 668 Q 411 693 430 712 Q 440 725 427 740 Q 387 776 358 774 Q 348 773 348 757 Q 357 667 242 551 Q 226 536 218 524 Q 208 509 224 513 Q 240 514 264 530 Q 336 579 378 643 Q 378 644 379 645 L 395 668 Z" fill="black"></path>
				<path d="M 379 645 Q 380 645 383 643 Q 425 616 488 632 Q 717 680 731 689 Q 741 698 735 707 Q 728 720 696 728 Q 666 734 569 701 Q 488 679 395 668 C 365 664 353 660 379 645 Z" fill="black"></path>
				<path d="M 414 307 Q 415 311 416 317 L 416 343 Q 416 353 415 364 Q 411 389 409 411 L 405 437 Q 398 492 398 514 C 397 539 397 539 383 546 Q 373 552 345 558 Q 332 562 329 556 Q 322 550 330 534 Q 358 465 370 356 Q 370 317 391 296 C 408 277 408 278 414 307 Z" fill="black"></path>
				<path d="M 600 338 Q 616 313 633 305 Q 643 296 659 319 Q 674 341 704 465 Q 714 496 737 522 Q 750 535 740 549 Q 724 565 681 593 Q 665 602 587 584 Q 557 584 383 546 C 354 540 369 506 398 514 Q 473 535 601 552 Q 629 556 641 547 Q 654 537 650 518 Q 626 379 606 368 C 592 349 592 349 600 338 Z" fill="black"></path>
				<path d="M 409 411 L 414 411 Q 505 427 571 437 Q 593 441 585 453 Q 575 466 551 471 Q 527 474 405 437 C 376 428 379 410 409 411 Z" fill="black"></path>
				<path d="M 416 317 L 426 317 Q 526 330 600 338 C 630 341 634 356 606 368 Q 600 371 594 372 Q 572 376 416 343 C 387 337 386 317 416 317 Z" fill="red"></path>
				<path d="M 436 220 Q 445 235 460 245 Q 467 249 467 259 Q 467 268 457 280 Q 435 302 414 307 C 392 315 392 315 391 296 Q 395 227 265 100 Q 262 99 260 96 Q 223 62 130 -1 Q 123 -5 132 -9 Q 193 -9 315 91 L 362 137 L 375 151 Q 393 172 416 196 L 436 220 Z" fill="lightgray"></path>
				<path d="M 579 24 Q 619 78 657 154 Q 673 184 696 202 Q 718 217 705 233 Q 692 246 660 262 Q 635 272 559 244 Q 472 226 436 220 C 406 215 387 204 416 196 Q 458 180 512 194 Q 573 215 583 214 Q 604 211 597 189 Q 575 111 535 55 L 509 23 Q 424 -67 230 -112 Q 214 -115 226 -125 Q 233 -129 289 -127 Q 359 -123 439 -85 Q 500 -57 546 -13 L 579 24 Z" fill="lightgray"></path>
				<path d="M 546 -13 Q 592 -59 710 -148 Q 750 -172 921 -131 Q 961 -122 956 -111 Q 955 -107 915 -97 Q 699 -60 606 6 L 579 24 L 535 55 L 459 118 Q 416 155 380 152 Q 377 152 375 151 C 345 150 343 150 362 137 Q 447 80 509 23 L 546 -13 Z" fill="lightgray"></path>
</g>
		<text x="40" y="140" font-size="128" fill="#999999">6</text></g>
		<g id="id1:id1:id1" transform="matrix(1.0,0,0,1.0,1024,0.0)">			<g stroke="lightgray" stroke-width="4" transform="scale(4, 4)"> <rect x="0" y="0" width="256" height="256" fill="white" stroke-width="4"/></g>
			<g transform="scale(0.92, -0.92) translate(60, -920)">					<path d="M 395 668 Q 411 693 430 712 Q 440 725 427 740 Q 387 776 358 774 Q 348 773 348 757 Q 357 667 242 551 Q 226 536 218 524 Q 208 509 224 513 Q 240 514 264 530 Q 336 579 378 643 Q 378 644 379 645 L 395 668 Z" fill="black"></path>
				<path d="M 379 645 Q 380 645 383 643 Q 425 616 488 632 Q 717 680 731 689 Q 741 698 735 707 Q 728 720 696 728 Q 666 734 569 701 Q 488 679 395 668 C 365 664 353 660 379 645 Z" fill="black"></path>
				<path d="M 414 307 Q 415 311 416 317 L 416 343 Q 416 353 415 364 Q 411 389 409 411 L 405 437 Q 398 492 398 514 C 397 539 397 539 383 546 Q 373 552 345 558 Q 332 562 329 556 Q 322 550 330 534 Q 358 465 370 356 Q 370 317 391 296 C 408 277 408 278 414 307 Z" fill="black"></path>
				<path d="M 600 338 Q 616 313 633 305 Q 643 296 659 319 Q 674 341 704 465 Q 714 496 737 522 Q 750 535 740 549 Q 724 565 681 593 Q 665 602 587 584 Q 557 584 383 546 C 354 540 369 506 398 514 Q 473 535 601 552 Q 629 556 641 547 Q 654 537 650 518 Q 626 379 606 368 C 592 349 592 349 600 338 Z" fill="black"></path>
				<path d="M 409 411 L 414 411 Q 505 427 571 437 Q 593 441 585 453 Q 575 466 551 471 Q 527 474 405 437 C 376 428 379 410 409 411 Z" fill="black"></path>
				<path d="M 416 317 L 426 317 Q 526 330 600 338 C 630 341 634 356 606 368 Q 600 371 594 372 Q 572 376 416 343 C 387 337 386 317 416 317 Z" fill="black"></path>
				<path d="M 436 220 Q 445 235 460 245 Q 467 249 467 259 Q 467 268 457 280 Q 435 302 414 307 C 392 315 392 315 391 296 Q 395 227 265 100 Q 262 99 260 96 Q 223 62 130 -1 Q 123 -5 132 -9 Q 193 -9 315 91 L 362 137 L 375 151 Q 393 172 416 196 L 436 220 Z" fill="red"></path>
				<path d="M 579 24 Q 619 78 657 154 Q 673 184 696 202 Q 718 217 705 233 Q 692 246 660 262 Q 635 272 559 244 Q 472 226 436 220 C 406 215 387 204 416 196 Q 458 180 512 194 Q 573 215 583 214 Q 604 211 597 189 Q 575 111 535 55 L 509 23 Q 424 -67 230 -112 Q 214 -115 226 -125 Q 233 -129 289 -127 Q 359 -123 439 -85 Q 500 -57 546 -13 L 579 24 Z" fill="lightgray"></path>
				<path d="M 546 -13 Q 592 -59 710 -148 Q 750 -172 921 -131 Q 961 -122 956 -111 Q 955 -107 915 -97 Q 699 -60 606 6 L 579 24 L 535 55 L 459 118 Q 416 155 380 152 Q 377 152 375 151 C 345 150 343 150 362 137 Q 447 80 509 23 L 546 -13 Z" fill="lightgray"></path>
</g>
		<text x="40" y="140" font-size="128" fill="#999999">7</text></g>
		<g id="id1:id2:id2" transform="matrix(1.0,0,0,1.0,2048,0.0)">			<g stroke="lightgray" stroke-width="4" transform="scale(4, 4)"> <rect x="0" y="0" width="256" height="256" fill="white" stroke-width="4"/></g>
			<g transform="scale(0.92, -0.92) translate(60, -920)">					<path d="M 395 668 Q 411 693 430 712 Q 440 725 427 740 Q 387 776 358 774 Q 348 773 348 757 Q 357 667 242 551 Q 226 536 218 524 Q 208 509 224 513 Q 240 514 264 530 Q 336 579 378 643 Q 378 644 379 645 L 395 668 Z" fill="black"></path>
				<path d="M 379 645 Q 380 645 383 643 Q 425 616 488 632 Q 717 680 731 689 Q 741 698 735 707 Q 728 720 696 728 Q 666 734 569 701 Q 488 679 395 668 C 365 664 353 660 379 645 Z" fill="black"></path>
				<path d="M 414 307 Q 415 311 416 317 L 416 343 Q 416 353 415 364 Q 411 389 409 411 L 405 437 Q 398 492 398 514 C 397 539 397 539 383 546 Q 373 552 345 558 Q 332 562 329 556 Q 322 550 330 534 Q 358 465 370 356 Q 370 317 391 296 C 408 277 408 278 414 307 Z" fill="black"></path>
				<path d="M 600 338 Q 616 313 633 305 Q 643 296 659 319 Q 674 341 704 465 Q 714 496 737 522 Q 750 535 740 549 Q 724 565 681 593 Q 665 602 587 584 Q 557 584 383 546 C 354 540 369 506 398 514 Q 473 535 601 552 Q 629 556 641 547 Q 654 537 650 518 Q 626 379 606 368 C 592 349 592 349 600 338 Z" fill="black"></path>
				<path d="M 409 411 L 414 411 Q 505 427 571 437 Q 593 441 585 453 Q 575 466 551 471 Q 527 474 405 437 C 376 428 379 410 409 411 Z" fill="black"></path>
				<path d="M 416 317 L 426 317 Q 526 330 600 338 C 630 341 634 356 606 368 Q 600 371 594 372 Q 572 376 416 343 C 387 337 386 317 416 317 Z" fill="black"></path>
				<path d="M 436 220 Q 445 235 460 245 Q 467 249 467 259 Q 467 268 457 280 Q 435 302 414 307 C 392 315 392 315 391 296 Q 395 227 265 100 Q 262 99 260 96 Q 223 62 130 -1 Q 123 -5 132 -9 Q 193 -9 315 91 L 362 137 L 375 151 Q 393 172 416 196 L 436 220 Z" fill="black"></path>
				<path d="M 579 24 Q 619 78 657 154 Q 673 184 696 202 Q 718 217 705 233 Q 692 246 660 262 Q 635 272 559 244 Q 472 226 436 220 C 406 215 387 204 416 196 Q 458 180 512 194 Q 573 215 583 214 Q 604 211 597 189 Q 575 111 535 55 L 509 23 Q 424 -67 230 -112 Q 214 -115 226 -125 Q 233 -129 289 -127 Q 359 -123 439 -85 Q 500 -57 546 -13 L 579 24 Z" fill="red"></path>
				<path d="M 546 -13 Q 592 -59 710 -148 Q 750 -172 921 -131 Q 961 -122 956 -111 Q 955 -107 915 -97 Q 699 -60 606 6 L 579 24 L 535 55 L 459 118 Q 416 155 380 152 Q 377 152 375 151 C 345 150 343 150 362 137 Q 447 80 509 23 L 546 -13 Z" fill="lightgray"></path>
</g>
		<text x="40" y="140" font-size="128" fill="#999999">8</text></g>
		<g id="id1:id3:id3" transform="matrix(1.0,0,0,1.0,3072,0.0)">			<g stroke="lightgray" stroke-width="4" transform="scale(4, 4)"> <rect x="0" y="0" width="256" height="256" fill="white" stroke-width="4"/></g>
			<g transform="scale(0.92, -0.92) translate(60, -920)">					<path d="M 395 668 Q 411 693 430 712 Q 440 725 427 740 Q 387 776 358 774 Q 348 773 348 757 Q 357 667 242 551 Q 226 536 218 524 Q 208 509 224 513 Q 240 514 264 530 Q 336 579 378 643 Q 378 644 379 645 L 395 668 Z" fill="black"></path>
				<path d="M 379 645 Q 380 645 383 643 Q 425 616 488 632 Q 717 680 731 689 Q 741 698 735 707 Q 728 720 696 728 Q 666 734 569 701 Q 488 679 395 668 C 365 664 353 660 379 645 Z" fill="black"></path>
				<path d="M 414 307 Q 415 311 416 317 L 416 343 Q 416 353 415 364 Q 411 389 409 411 L 405 437 Q 398 492 398 514 C 397 539 397 539 383 546 Q 373 552 345 558 Q 332 562 329 556 Q 322 550 330 534 Q 358 465 370 356 Q 370 317 391 296 C 408 277 408 278 414 307 Z" fill="black"></path>
				<path d="M 600 338 Q 616 313 633 305 Q 643 296 659 319 Q 674 341 704 465 Q 714 496 737 522 Q 750 535 740 549 Q 724 565 681 593 Q 665 602 587 584 Q 557 584 383 546 C 354 540 369 506 398 514 Q 473 535 601 552 Q 629 556 641 547 Q 654 537 650 518 Q 626 379 606 368 C 592 349 592 349 600 338 Z" fill="black"></path>
				<path d="M 409 411 L 414 411 Q 505 427 571 437 Q 593 441 585 453 Q 575 466 551 471 Q 527 474 405 437 C 376 428 379 410 409 411 Z" fill="black"></path>
				<path d="M 416 317 L 426 317 Q 526 330 600 338 C 630 341 634 356 606 368 Q 600 371 594 372 Q 572 376 416 343 C 387 337 386 317 416 317 Z" fill="black"></path>
				<path d="M 436 220 Q 445 235 460 245 Q 467 249 467 259 Q 467 268 457 280 Q 435 302 414 307 C 392 315 392 315 391 296 Q 395 227 265 100 Q 262 99 260 96 Q 223 62 130 -1 Q 123 -5 132 -9 Q 193 -9 315 91 L 362 137 L 375 151 Q 393 172 416 196 L 436 220 Z" fill="black"></path>
				<path d="M 579 24 Q 619 78 657 154 Q 673 184 696 202 Q 718 217 705 233 Q 692 246 660 262 Q 635 272 559 244 Q 472 226 436 220 C 406 215 387 204 416 196 Q 458 180 512 194 Q 573 215 583 214 Q 604 211 597 189 Q 575 111 535 55 L 509 23 Q 424 -67 230 -112 Q 214 -115 226 -125 Q 233 -129 289 -127 Q 359 -123 439 -85 Q 500 -57 546 -13 L 579 24 Z" fill="black"></path>
				<path d="M 546 -13 Q 592 -59 710 -148 Q 750 -172 921 -131 Q 961 -122 956 -111 Q 955 -107 915 -97 Q 699 -60 606 6 L 579 24 L 535 55 L 459 118 Q 416 155 380 152 Q 377 152 375 151 C 345 150 343 150 362 137 Q 447 80 509 23 L 546 -13 Z" fill="red"></path>
</g>
		<text x="40" y="140" font-size="128" fill="#999999">9</text></g>
		<g id="id1:id4:id4" transform="matrix(1.0,0,0,1.0,4096,0.0)">			<g stroke="white" stroke-width="4" transform="scale(4, 4)"> <rect x="1" y="1" width="255" height="255" fill="white" stroke-width="0"/></g>
</g>
</g>
</svg>
