<?xml version="1.0" standalone="no"?>
<!DOCTYPE svg PUBLIC "-//W3C//DTD SVG 1.1//EN"
 "http://www.w3.org/Graphics/SVG/1.1/DTD/svg11.dtd">
<!-- generate by Japanese dictionary app com.asnsami.kanjidictionary -->

<svg xmlns="http://www.w3.org/2000/svg" xmlns:sodipodi="http://sodipodi.sourceforge.net/DTD/sodipodi-0.dtd" version="1.1" width="640" height="128" viewBox="0 0 5120 1024">
	<g id="id0:id0" transform="translate(0.0,0)">
		<g id="id0:id0:id0" transform="matrix(1.0,0,0,1.0,0,0.0)">			<g stroke="lightgray" stroke-width="4" transform="scale(4, 4)"> <rect x="0" y="0" width="256" height="256" fill="white" stroke-width="4"/></g>
			<g transform="scale(0.92, -0.92) translate(60, -920)">					<path d="M 354 240 L 330 422 C 326 452 325 462 325 462 L 308 474 Q 293 485 270 486 Q 248 487 243 482 Q 241 474 245 466 L 257 446 Q 266 430 270 415 L 279 375 L 301 234 C 306 204 358 210 354 240 Z" fill="red"></path>
				<path d="M 330 422 L 467 436 L 530 442 L 623 454 Q 656 457 662 452 Q 668 447 666 433 Q 666 415 659 393 L 628 262 C 621 233 682 238 691 267 L 730 386 L 741 414 Q 745 428 755 438 L 768 451 Q 776 459 776 464 Q 777 469 768 478 Q 762 486 733 504 Q 705 521 690 519 Q 676 516 652 508 Q 628 499 581 492 L 532 485 L 469 477 L 325 462 C 295 459 300 419 330 422 Z" fill="lightgray"></path>
				<path d="M 445 248 L 354 240 L 301 234 L 153 223 L 107 222 Q 92 222 90 216 Q 85 207 105 194 Q 125 181 143 175 Q 161 168 170 168 Q 179 168 200 173 L 243 184 Q 278 194 359 203 L 435 211 L 495 216 L 500 216 L 526 217 L 713 223 Q 777 224 818 223 Q 859 221 874 223 L 908 225 Q 921 224 931 234 Q 933 239 925 248 Q 919 259 900 266 Q 869 284 840 284 L 725 270 L 691 267 L 628 262 L 503 252 L 445 248 Z" fill="lightgray"></path>
				<path d="M 467 436 L 465 403 Q 457 306 445 248 L 435 211 L 425 180 Q 418 160 390 110 Q 340 28 283 -14 Q 234 -53 159 -88 L 125 -103 Q 117 -107 118 -112 Q 120 -117 129 -116 L 169 -108 Q 229 -100 308 -50 Q 350 -24 377 3 Q 447 80 475 157 Q 488 193 495 216 L 503 252 L 508 275 Q 513 298 517 336 L 525 399 Q 525 412 530 442 L 532 485 L 537 581 Q 543 632 551 654 Q 559 675 550 683 Q 541 690 517 698 L 484 706 Q 471 710 458 708 Q 445 706 442 702 Q 440 697 446 685 L 455 663 Q 461 653 462 635 L 469 570 Q 472 506 469 477 L 467 436 Z" fill="lightgray"></path>
				<path d="M 500 216 L 536 146 Q 550 119 576 79 L 674 -66 Q 696 -98 714 -106 Q 742 -126 849 -119 L 907 -113 L 920 -109 Q 926 -108 926 -102 Q 926 -96 917 -92 L 905 -88 L 858 -68 Q 857 -68 850 -64 L 750 -2 Q 711 23 690 42 Q 670 60 631 98 Q 593 136 566 169 Q 540 202 534 208 L 526 217 C 506 239 486 243 500 216 Z" fill="lightgray"></path>
</g>
		<text x="40" y="140" font-size="128" fill="#999999">1</text></g>
		<g id="id0:id1:id1" transform="matrix(1.0,0,0,1.0,1024,0.0)">			<g stroke="lightgray" stroke-width="4" transform="scale(4, 4)"> <rect x="0" y="0" width="256" height="256" fill="white" stroke-width="4"/></g>
			<g transform="scale(0.92, -0.92) translate(60, -920)">					<path d="M 354 240 L 330 422 C 326 452 325 462 325 462 L 308 474 Q 293 485 270 486 Q 248 487 243 482 Q 241 474 245 466 L 257 446 Q 266 430 270 415 L 279 375 L 301 234 C 306 204 358 210 354 240 Z" fill="black"></path>
				<path d="M 330 422 L 467 436 L 530 442 L 623 454 Q 656 457 662 452 Q 668 447 666 433 Q 666 415 659 393 L 628 262 C 621 233 682 238 691 267 L 730 386 L 741 414 Q 745 428 755 438 L 768 451 Q 776 459 776 464 Q 777 469 768 478 Q 762 486 733 504 Q 705 521 690 519 Q 676 516 652 508 Q 628 499 581 492 L 532 485 L 469 477 L 325 462 C 295 459 300 419 330 422 Z" fill="red"></path>
				<path d="M 445 248 L 354 240 L 301 234 L 153 223 L 107 222 Q 92 222 90 216 Q 85 207 105 194 Q 125 181 143 175 Q 161 168 170 168 Q 179 168 200 173 L 243 184 Q 278 194 359 203 L 435 211 L 495 216 L 500 216 L 526 217 L 713 223 Q 777 224 818 223 Q 859 221 874 223 L 908 225 Q 921 224 931 234 Q 933 239 925 248 Q 919 259 900 266 Q 869 284 840 284 L 725 270 L 691 267 L 628 262 L 503 252 L 445 248 Z" fill="lightgray"></path>
				<path d="M 467 436 L 465 403 Q 457 306 445 248 L 435 211 L 425 180 Q 418 160 390 110 Q 340 28 283 -14 Q 234 -53 159 -88 L 125 -103 Q 117 -107 118 -112 Q 120 -117 129 -116 L 169 -108 Q 229 -100 308 -50 Q 350 -24 377 3 Q 447 80 475 157 Q 488 193 495 216 L 503 252 L 508 275 Q 513 298 517 336 L 525 399 Q 525 412 530 442 L 532 485 L 537 581 Q 543 632 551 654 Q 559 675 550 683 Q 541 690 517 698 L 484 706 Q 471 710 458 708 Q 445 706 442 702 Q 440 697 446 685 L 455 663 Q 461 653 462 635 L 469 570 Q 472 506 469 477 L 467 436 Z" fill="lightgray"></path>
				<path d="M 500 216 L 536 146 Q 550 119 576 79 L 674 -66 Q 696 -98 714 -106 Q 742 -126 849 -119 L 907 -113 L 920 -109 Q 926 -108 926 -102 Q 926 -96 917 -92 L 905 -88 L 858 -68 Q 857 -68 850 -64 L 750 -2 Q 711 23 690 42 Q 670 60 631 98 Q 593 136 566 169 Q 540 202 534 208 L 526 217 C 506 239 486 243 500 216 Z" fill="lightgray"></path>
</g>
		<text x="40" y="140" font-size="128" fill="#999999">2</text></g>
		<g id="id0:id2:id2" transform="matrix(1.0,0,0,1.0,2048,0.0)">			<g stroke="lightgray" stroke-width="4" transform="scale(4, 4)"> <rect x="0" y="0" width="256" height="256" fill="white" stroke-width="4"/></g>
			<g transform="scale(0.92, -0.92) translate(60, -920)">					<path d="M 354 240 L 330 422 C 326 452 325 462 325 462 L 308 474 Q 293 485 270 486 Q 248 487 243 482 Q 241 474 245 466 L 257 446 Q 266 430 270 415 L 279 375 L 301 234 C 306 204 358 210 354 240 Z" fill="black"></path>
				<path d="M 330 422 L 467 436 L 530 442 L 623 454 Q 656 457 662 452 Q 668 447 666 433 Q 666 415 659 393 L 628 262 C 621 233 682 238 691 267 L 730 386 L 741 414 Q 745 428 755 438 L 768 451 Q 776 459 776 464 Q 777 469 768 478 Q 762 486 733 504 Q 705 521 690 519 Q 676 516 652 508 Q 628 499 581 492 L 532 485 L 469 477 L 325 462 C 295 459 300 419 330 422 Z" fill="black"></path>
				<path d="M 445 248 L 354 240 L 301 234 L 153 223 L 107 222 Q 92 222 90 216 Q 85 207 105 194 Q 125 181 143 175 Q 161 168 170 168 Q 179 168 200 173 L 243 184 Q 278 194 359 203 L 435 211 L 495 216 L 500 216 L 526 217 L 713 223 Q 777 224 818 223 Q 859 221 874 223 L 908 225 Q 921 224 931 234 Q 933 239 925 248 Q 919 259 900 266 Q 869 284 840 284 L 725 270 L 691 267 L 628 262 L 503 252 L 445 248 Z" fill="red"></path>
				<path d="M 467 436 L 465 403 Q 457 306 445 248 L 435 211 L 425 180 Q 418 160 390 110 Q 340 28 283 -14 Q 234 -53 159 -88 L 125 -103 Q 117 -107 118 -112 Q 120 -117 129 -116 L 169 -108 Q 229 -100 308 -50 Q 350 -24 377 3 Q 447 80 475 157 Q 488 193 495 216 L 503 252 L 508 275 Q 513 298 517 336 L 525 399 Q 525 412 530 442 L 532 485 L 537 581 Q 543 632 551 654 Q 559 675 550 683 Q 541 690 517 698 L 484 706 Q 471 710 458 708 Q 445 706 442 702 Q 440 697 446 685 L 455 663 Q 461 653 462 635 L 469 570 Q 472 506 469 477 L 467 436 Z" fill="lightgray"></path>
				<path d="M 500 216 L 536 146 Q 550 119 576 79 L 674 -66 Q 696 -98 714 -106 Q 742 -126 849 -119 L 907 -113 L 920 -109 Q 926 -108 926 -102 Q 926 -96 917 -92 L 905 -88 L 858 -68 Q 857 -68 850 -64 L 750 -2 Q 711 23 690 42 Q 670 60 631 98 Q 593 136 566 169 Q 540 202 534 208 L 526 217 C 506 239 486 243 500 216 Z" fill="lightgray"></path>
</g>
		<text x="40" y="140" font-size="128" fill="#999999">3</text></g>
		<g id="id0:id3:id3" transform="matrix(1.0,0,0,1.0,3072,0.0)">			<g stroke="lightgray" stroke-width="4" transform="scale(4, 4)"> <rect x="0" y="0" width="256" height="256" fill="white" stroke-width="4"/></g>
			<g transform="scale(0.92, -0.92) translate(60, -920)">					<path d="M 354 240 L 330 422 C 326 452 325 462 325 462 L 308 474 Q 293 485 270 486 Q 248 487 243 482 Q 241 474 245 466 L 257 446 Q 266 430 270 415 L 279 375 L 301 234 C 306 204 358 210 354 240 Z" fill="black"></path>
				<path d="M 330 422 L 467 436 L 530 442 L 623 454 Q 656 457 662 452 Q 668 447 666 433 Q 666 415 659 393 L 628 262 C 621 233 682 238 691 267 L 730 386 L 741 414 Q 745 428 755 438 L 768 451 Q 776 459 776 464 Q 777 469 768 478 Q 762 486 733 504 Q 705 521 690 519 Q 676 516 652 508 Q 628 499 581 492 L 532 485 L 469 477 L 325 462 C 295 459 300 419 330 422 Z" fill="black"></path>
				<path d="M 445 248 L 354 240 L 301 234 L 153 223 L 107 222 Q 92 222 90 216 Q 85 207 105 194 Q 125 181 143 175 Q 161 168 170 168 Q 179 168 200 173 L 243 184 Q 278 194 359 203 L 435 211 L 495 216 L 500 216 L 526 217 L 713 223 Q 777 224 818 223 Q 859 221 874 223 L 908 225 Q 921 224 931 234 Q 933 239 925 248 Q 919 259 900 266 Q 869 284 840 284 L 725 270 L 691 267 L 628 262 L 503 252 L 445 248 Z" fill="black"></path>
				<path d="M 467 436 L 465 403 Q 457 306 445 248 L 435 211 L 425 180 Q 418 160 390 110 Q 340 28 283 -14 Q 234 -53 159 -88 L 125 -103 Q 117 -107 118 -112 Q 120 -117 129 -116 L 169 -108 Q 229 -100 308 -50 Q 350 -24 377 3 Q 447 80 475 157 Q 488 193 495 216 L 503 252 L 508 275 Q 513 298 517 336 L 525 399 Q 525 412 530 442 L 532 485 L 537 581 Q 543 632 551 654 Q 559 675 550 683 Q 541 690 517 698 L 484 706 Q 471 710 458 708 Q 445 706 442 702 Q 440 697 446 685 L 455 663 Q 461 653 462 635 L 469 570 Q 472 506 469 477 L 467 436 Z" fill="red"></path>
				<path d="M 500 216 L 536 146 Q 550 119 576 79 L 674 -66 Q 696 -98 714 -106 Q 742 -126 849 -119 L 907 -113 L 920 -109 Q 926 -108 926 -102 Q 926 -96 917 -92 L 905 -88 L 858 -68 Q 857 -68 850 -64 L 750 -2 Q 711 23 690 42 Q 670 60 631 98 Q 593 136 566 169 Q 540 202 534 208 L 526 217 C 506 239 486 243 500 216 Z" fill="lightgray"></path>
</g>
		<text x="40" y="140" font-size="128" fill="#999999">4</text></g>
		<g id="id0:id4:id4" transform="matrix(1.0,0,0,1.0,4096,0.0)">			<g stroke="lightgray" stroke-width="4" transform="scale(4, 4)"> <rect x="0" y="0" width="256" height="256" fill="white" stroke-width="4"/></g>
			<g transform="scale(0.92, -0.92) translate(60, -920)">					<path d="M 354 240 L 330 422 C 326 452 325 462 325 462 L 308 474 Q 293 485 270 486 Q 248 487 243 482 Q 241 474 245 466 L 257 446 Q 266 430 270 415 L 279 375 L 301 234 C 306 204 358 210 354 240 Z" fill="black"></path>
				<path d="M 330 422 L 467 436 L 530 442 L 623 454 Q 656 457 662 452 Q 668 447 666 433 Q 666 415 659 393 L 628 262 C 621 233 682 238 691 267 L 730 386 L 741 414 Q 745 428 755 438 L 768 451 Q 776 459 776 464 Q 777 469 768 478 Q 762 486 733 504 Q 705 521 690 519 Q 676 516 652 508 Q 628 499 581 492 L 532 485 L 469 477 L 325 462 C 295 459 300 419 330 422 Z" fill="black"></path>
				<path d="M 445 248 L 354 240 L 301 234 L 153 223 L 107 222 Q 92 222 90 216 Q 85 207 105 194 Q 125 181 143 175 Q 161 168 170 168 Q 179 168 200 173 L 243 184 Q 278 194 359 203 L 435 211 L 495 216 L 500 216 L 526 217 L 713 223 Q 777 224 818 223 Q 859 221 874 223 L 908 225 Q 921 224 931 234 Q 933 239 925 248 Q 919 259 900 266 Q 869 284 840 284 L 725 270 L 691 267 L 628 262 L 503 252 L 445 248 Z" fill="black"></path>
				<path d="M 467 436 L 465 403 Q 457 306 445 248 L 435 211 L 425 180 Q 418 160 390 110 Q 340 28 283 -14 Q 234 -53 159 -88 L 125 -103 Q 117 -107 118 -112 Q 120 -117 129 -116 L 169 -108 Q 229 -100 308 -50 Q 350 -24 377 3 Q 447 80 475 157 Q 488 193 495 216 L 503 252 L 508 275 Q 513 298 517 336 L 525 399 Q 525 412 530 442 L 532 485 L 537 581 Q 543 632 551 654 Q 559 675 550 683 Q 541 690 517 698 L 484 706 Q 471 710 458 708 Q 445 706 442 702 Q 440 697 446 685 L 455 663 Q 461 653 462 635 L 469 570 Q 472 506 469 477 L 467 436 Z" fill="black"></path>
				<path d="M 500 216 L 536 146 Q 550 119 576 79 L 674 -66 Q 696 -98 714 -106 Q 742 -126 849 -119 L 907 -113 L 920 -109 Q 926 -108 926 -102 Q 926 -96 917 -92 L 905 -88 L 858 -68 Q 857 -68 850 -64 L 750 -2 Q 711 23 690 42 Q 670 60 631 98 Q 593 136 566 169 Q 540 202 534 208 L 526 217 C 506 239 486 243 500 216 Z" fill="red"></path>
</g>
		<text x="40" y="140" font-size="128" fill="#999999">5</text></g>
</g>
</svg>
