<?xml version="1.0" standalone="no"?>
<!DOCTYPE svg PUBLIC "-//W3C//DTD SVG 1.1//EN"
 "http://www.w3.org/Graphics/SVG/1.1/DTD/svg11.dtd">
<!-- generate by Japanese dictionary app com.asnsami.kanjidictionary -->

<svg xmlns="http://www.w3.org/2000/svg" xmlns:sodipodi="http://sodipodi.sourceforge.net/DTD/sodipodi-0.dtd" version="1.1" width="640" height="256" viewBox="0 0 5120 2048">
	<g id="id0:id0" transform="translate(0.0,0)">
		<g id="id0:id0:id0" transform="matrix(1.0,0,0,1.0,0,0.0)">			<g stroke="lightgray" stroke-width="4" transform="scale(4, 4)"> <rect x="0" y="0" width="256" height="256" fill="white" stroke-width="4"/></g>
			<g transform="scale(0.92, -0.92) translate(60, -920)">					<path d="M 509 596 L 519 614 Q 523 617 523 634 Q 515 672 494 685 Q 481 692 454 705 Q 436 711 431 712 L 415 715 Q 409 716 407 711 Q 405 706 409 701 L 414 685 Q 422 659 441 633 Q 460 606 474 592 C 495 570 495 570 509 596 Z" fill="red"></path>
				<path d="M 229 578 L 223 604 Q 219 618 214 624 Q 209 630 206 629 Q 196 627 191 614 L 176 570 L 151 510 L 137 484 Q 125 453 138 432 Q 144 421 158 421 Q 177 418 205 474 L 223 512 Q 230 539 231 545 L 229 578 Z" fill="lightgray"></path>
				<path d="M 711 580 Q 718 574 719 568 Q 720 561 695 524 L 674 497 Q 667 487 668 486 Q 669 484 680 487 L 706 495 Q 732 503 758 510 L 830 522 Q 844 526 844 539 Q 844 544 839 555 Q 835 566 802 594 Q 770 621 761 625 Q 752 629 741 630 L 509 596 L 474 592 L 229 578 C 199 576 202 554 231 545 L 260 536 Q 266 534 286 537 L 341 546 L 594 577 L 692 582 Q 701 585 711 580 Z" fill="lightgray"></path>
				<path d="M 224 328 L 212 316 Q 202 306 203 303 Q 205 300 218 306 L 237 313 Q 253 320 261 326 Q 270 331 297 353 L 331 386 L 364 424 Q 373 434 381 441 Q 396 455 383 468 Q 363 494 339 498 Q 328 500 325 498 Q 323 496 322 488 L 315 452 Q 310 440 286 404 Q 263 367 224 328 Z" fill="lightgray"></path>
				<path d="M 516 482 L 598 404 L 625 376 Q 642 358 655 357 Q 668 356 673 359 Q 680 366 684 371 Q 695 396 681 422 Q 665 457 561 484 L 529 494 Q 513 495 512 493 Q 511 489 516 482 Z" fill="lightgray"></path>
				<path d="M 502 336 L 507 344 Q 514 351 498 367 Q 482 383 474 387 Q 466 391 455 398 Q 444 405 434 402 Q 431 400 430 392 L 427 370 Q 422 340 407 319 Q 393 297 349 243 Q 306 189 186 100 Q 121 52 92 35 L 65 20 Q 60 15 63 11 Q 66 7 80 11 L 94 15 Q 107 16 151 36 Q 238 75 325 148 Q 383 200 403 222 Q 423 243 482 314 L 502 336 Z" fill="lightgray"></path>
				<path d="M 482 314 L 525 282 Q 536 275 570 242 L 623 188 L 693 122 Q 716 97 740 81 Q 764 64 793 64 Q 822 64 878 72 L 947 85 Q 954 87 958 92 Q 962 96 950 103 L 876 126 Q 814 146 784 157 Q 754 167 726 184 L 651 234 L 554 303 L 502 336 C 477 352 458 332 482 314 Z" fill="lightgray"></path>
				<path d="M 342 107 L 321 112 L 300 113 Q 296 114 290 113 Q 284 111 284 107 Q 284 102 288 98 L 298 89 L 308 71 L 315 52 L 334 -70 Q 340 -114 365 -121 Q 371 -121 375 -108 L 379 -95 L 378 -60 L 368 41 L 363 73 C 358 103 358 103 342 107 Z" fill="lightgray"></path>
				<path d="M 615 -56 L 654 34 Q 659 51 676 69 Q 693 86 693 91 Q 689 102 678 110 Q 667 117 659 124 Q 651 130 634 137 Q 621 144 617 144 Q 614 144 597 140 Q 580 136 531 130 L 342 107 C 312 103 334 64 363 73 L 406 86 Q 421 90 455 94 L 527 102 L 561 104 L 579 102 Q 588 100 589 93 Q 592 86 584 50 L 569 -44 C 564 -74 603 -84 615 -56 Z" fill="lightgray"></path>
				<path d="M 379 -95 L 395 -96 L 583 -82 L 624 -82 Q 642 -74 627 -64 Q 620 -61 615 -56 C 596 -41 596 -41 569 -44 L 434 -58 L 378 -60 C 348 -61 349 -93 379 -95 Z" fill="lightgray"></path>
</g>
		<text x="40" y="140" font-size="128" fill="#999999">1</text></g>
		<g id="id0:id1:id1" transform="matrix(1.0,0,0,1.0,1024,0.0)">			<g stroke="lightgray" stroke-width="4" transform="scale(4, 4)"> <rect x="0" y="0" width="256" height="256" fill="white" stroke-width="4"/></g>
			<g transform="scale(0.92, -0.92) translate(60, -920)">					<path d="M 509 596 L 519 614 Q 523 617 523 634 Q 515 672 494 685 Q 481 692 454 705 Q 436 711 431 712 L 415 715 Q 409 716 407 711 Q 405 706 409 701 L 414 685 Q 422 659 441 633 Q 460 606 474 592 C 495 570 495 570 509 596 Z" fill="black"></path>
				<path d="M 229 578 L 223 604 Q 219 618 214 624 Q 209 630 206 629 Q 196 627 191 614 L 176 570 L 151 510 L 137 484 Q 125 453 138 432 Q 144 421 158 421 Q 177 418 205 474 L 223 512 Q 230 539 231 545 L 229 578 Z" fill="red"></path>
				<path d="M 711 580 Q 718 574 719 568 Q 720 561 695 524 L 674 497 Q 667 487 668 486 Q 669 484 680 487 L 706 495 Q 732 503 758 510 L 830 522 Q 844 526 844 539 Q 844 544 839 555 Q 835 566 802 594 Q 770 621 761 625 Q 752 629 741 630 L 509 596 L 474 592 L 229 578 C 199 576 202 554 231 545 L 260 536 Q 266 534 286 537 L 341 546 L 594 577 L 692 582 Q 701 585 711 580 Z" fill="lightgray"></path>
				<path d="M 224 328 L 212 316 Q 202 306 203 303 Q 205 300 218 306 L 237 313 Q 253 320 261 326 Q 270 331 297 353 L 331 386 L 364 424 Q 373 434 381 441 Q 396 455 383 468 Q 363 494 339 498 Q 328 500 325 498 Q 323 496 322 488 L 315 452 Q 310 440 286 404 Q 263 367 224 328 Z" fill="lightgray"></path>
				<path d="M 516 482 L 598 404 L 625 376 Q 642 358 655 357 Q 668 356 673 359 Q 680 366 684 371 Q 695 396 681 422 Q 665 457 561 484 L 529 494 Q 513 495 512 493 Q 511 489 516 482 Z" fill="lightgray"></path>
				<path d="M 502 336 L 507 344 Q 514 351 498 367 Q 482 383 474 387 Q 466 391 455 398 Q 444 405 434 402 Q 431 400 430 392 L 427 370 Q 422 340 407 319 Q 393 297 349 243 Q 306 189 186 100 Q 121 52 92 35 L 65 20 Q 60 15 63 11 Q 66 7 80 11 L 94 15 Q 107 16 151 36 Q 238 75 325 148 Q 383 200 403 222 Q 423 243 482 314 L 502 336 Z" fill="lightgray"></path>
				<path d="M 482 314 L 525 282 Q 536 275 570 242 L 623 188 L 693 122 Q 716 97 740 81 Q 764 64 793 64 Q 822 64 878 72 L 947 85 Q 954 87 958 92 Q 962 96 950 103 L 876 126 Q 814 146 784 157 Q 754 167 726 184 L 651 234 L 554 303 L 502 336 C 477 352 458 332 482 314 Z" fill="lightgray"></path>
				<path d="M 342 107 L 321 112 L 300 113 Q 296 114 290 113 Q 284 111 284 107 Q 284 102 288 98 L 298 89 L 308 71 L 315 52 L 334 -70 Q 340 -114 365 -121 Q 371 -121 375 -108 L 379 -95 L 378 -60 L 368 41 L 363 73 C 358 103 358 103 342 107 Z" fill="lightgray"></path>
				<path d="M 615 -56 L 654 34 Q 659 51 676 69 Q 693 86 693 91 Q 689 102 678 110 Q 667 117 659 124 Q 651 130 634 137 Q 621 144 617 144 Q 614 144 597 140 Q 580 136 531 130 L 342 107 C 312 103 334 64 363 73 L 406 86 Q 421 90 455 94 L 527 102 L 561 104 L 579 102 Q 588 100 589 93 Q 592 86 584 50 L 569 -44 C 564 -74 603 -84 615 -56 Z" fill="lightgray"></path>
				<path d="M 379 -95 L 395 -96 L 583 -82 L 624 -82 Q 642 -74 627 -64 Q 620 -61 615 -56 C 596 -41 596 -41 569 -44 L 434 -58 L 378 -60 C 348 -61 349 -93 379 -95 Z" fill="lightgray"></path>
</g>
		<text x="40" y="140" font-size="128" fill="#999999">2</text></g>
		<g id="id0:id2:id2" transform="matrix(1.0,0,0,1.0,2048,0.0)">			<g stroke="lightgray" stroke-width="4" transform="scale(4, 4)"> <rect x="0" y="0" width="256" height="256" fill="white" stroke-width="4"/></g>
			<g transform="scale(0.92, -0.92) translate(60, -920)">					<path d="M 509 596 L 519 614 Q 523 617 523 634 Q 515 672 494 685 Q 481 692 454 705 Q 436 711 431 712 L 415 715 Q 409 716 407 711 Q 405 706 409 701 L 414 685 Q 422 659 441 633 Q 460 606 474 592 C 495 570 495 570 509 596 Z" fill="black"></path>
				<path d="M 229 578 L 223 604 Q 219 618 214 624 Q 209 630 206 629 Q 196 627 191 614 L 176 570 L 151 510 L 137 484 Q 125 453 138 432 Q 144 421 158 421 Q 177 418 205 474 L 223 512 Q 230 539 231 545 L 229 578 Z" fill="black"></path>
				<path d="M 711 580 Q 718 574 719 568 Q 720 561 695 524 L 674 497 Q 667 487 668 486 Q 669 484 680 487 L 706 495 Q 732 503 758 510 L 830 522 Q 844 526 844 539 Q 844 544 839 555 Q 835 566 802 594 Q 770 621 761 625 Q 752 629 741 630 L 509 596 L 474 592 L 229 578 C 199 576 202 554 231 545 L 260 536 Q 266 534 286 537 L 341 546 L 594 577 L 692 582 Q 701 585 711 580 Z" fill="red"></path>
				<path d="M 224 328 L 212 316 Q 202 306 203 303 Q 205 300 218 306 L 237 313 Q 253 320 261 326 Q 270 331 297 353 L 331 386 L 364 424 Q 373 434 381 441 Q 396 455 383 468 Q 363 494 339 498 Q 328 500 325 498 Q 323 496 322 488 L 315 452 Q 310 440 286 404 Q 263 367 224 328 Z" fill="lightgray"></path>
				<path d="M 516 482 L 598 404 L 625 376 Q 642 358 655 357 Q 668 356 673 359 Q 680 366 684 371 Q 695 396 681 422 Q 665 457 561 484 L 529 494 Q 513 495 512 493 Q 511 489 516 482 Z" fill="lightgray"></path>
				<path d="M 502 336 L 507 344 Q 514 351 498 367 Q 482 383 474 387 Q 466 391 455 398 Q 444 405 434 402 Q 431 400 430 392 L 427 370 Q 422 340 407 319 Q 393 297 349 243 Q 306 189 186 100 Q 121 52 92 35 L 65 20 Q 60 15 63 11 Q 66 7 80 11 L 94 15 Q 107 16 151 36 Q 238 75 325 148 Q 383 200 403 222 Q 423 243 482 314 L 502 336 Z" fill="lightgray"></path>
				<path d="M 482 314 L 525 282 Q 536 275 570 242 L 623 188 L 693 122 Q 716 97 740 81 Q 764 64 793 64 Q 822 64 878 72 L 947 85 Q 954 87 958 92 Q 962 96 950 103 L 876 126 Q 814 146 784 157 Q 754 167 726 184 L 651 234 L 554 303 L 502 336 C 477 352 458 332 482 314 Z" fill="lightgray"></path>
				<path d="M 342 107 L 321 112 L 300 113 Q 296 114 290 113 Q 284 111 284 107 Q 284 102 288 98 L 298 89 L 308 71 L 315 52 L 334 -70 Q 340 -114 365 -121 Q 371 -121 375 -108 L 379 -95 L 378 -60 L 368 41 L 363 73 C 358 103 358 103 342 107 Z" fill="lightgray"></path>
				<path d="M 615 -56 L 654 34 Q 659 51 676 69 Q 693 86 693 91 Q 689 102 678 110 Q 667 117 659 124 Q 651 130 634 137 Q 621 144 617 144 Q 614 144 597 140 Q 580 136 531 130 L 342 107 C 312 103 334 64 363 73 L 406 86 Q 421 90 455 94 L 527 102 L 561 104 L 579 102 Q 588 100 589 93 Q 592 86 584 50 L 569 -44 C 564 -74 603 -84 615 -56 Z" fill="lightgray"></path>
				<path d="M 379 -95 L 395 -96 L 583 -82 L 624 -82 Q 642 -74 627 -64 Q 620 -61 615 -56 C 596 -41 596 -41 569 -44 L 434 -58 L 378 -60 C 348 -61 349 -93 379 -95 Z" fill="lightgray"></path>
</g>
		<text x="40" y="140" font-size="128" fill="#999999">3</text></g>
		<g id="id0:id3:id3" transform="matrix(1.0,0,0,1.0,3072,0.0)">			<g stroke="lightgray" stroke-width="4" transform="scale(4, 4)"> <rect x="0" y="0" width="256" height="256" fill="white" stroke-width="4"/></g>
			<g transform="scale(0.92, -0.92) translate(60, -920)">					<path d="M 509 596 L 519 614 Q 523 617 523 634 Q 515 672 494 685 Q 481 692 454 705 Q 436 711 431 712 L 415 715 Q 409 716 407 711 Q 405 706 409 701 L 414 685 Q 422 659 441 633 Q 460 606 474 592 C 495 570 495 570 509 596 Z" fill="black"></path>
				<path d="M 229 578 L 223 604 Q 219 618 214 624 Q 209 630 206 629 Q 196 627 191 614 L 176 570 L 151 510 L 137 484 Q 125 453 138 432 Q 144 421 158 421 Q 177 418 205 474 L 223 512 Q 230 539 231 545 L 229 578 Z" fill="black"></path>
				<path d="M 711 580 Q 718 574 719 568 Q 720 561 695 524 L 674 497 Q 667 487 668 486 Q 669 484 680 487 L 706 495 Q 732 503 758 510 L 830 522 Q 844 526 844 539 Q 844 544 839 555 Q 835 566 802 594 Q 770 621 761 625 Q 752 629 741 630 L 509 596 L 474 592 L 229 578 C 199 576 202 554 231 545 L 260 536 Q 266 534 286 537 L 341 546 L 594 577 L 692 582 Q 701 585 711 580 Z" fill="black"></path>
				<path d="M 224 328 L 212 316 Q 202 306 203 303 Q 205 300 218 306 L 237 313 Q 253 320 261 326 Q 270 331 297 353 L 331 386 L 364 424 Q 373 434 381 441 Q 396 455 383 468 Q 363 494 339 498 Q 328 500 325 498 Q 323 496 322 488 L 315 452 Q 310 440 286 404 Q 263 367 224 328 Z" fill="red"></path>
				<path d="M 516 482 L 598 404 L 625 376 Q 642 358 655 357 Q 668 356 673 359 Q 680 366 684 371 Q 695 396 681 422 Q 665 457 561 484 L 529 494 Q 513 495 512 493 Q 511 489 516 482 Z" fill="lightgray"></path>
				<path d="M 502 336 L 507 344 Q 514 351 498 367 Q 482 383 474 387 Q 466 391 455 398 Q 444 405 434 402 Q 431 400 430 392 L 427 370 Q 422 340 407 319 Q 393 297 349 243 Q 306 189 186 100 Q 121 52 92 35 L 65 20 Q 60 15 63 11 Q 66 7 80 11 L 94 15 Q 107 16 151 36 Q 238 75 325 148 Q 383 200 403 222 Q 423 243 482 314 L 502 336 Z" fill="lightgray"></path>
				<path d="M 482 314 L 525 282 Q 536 275 570 242 L 623 188 L 693 122 Q 716 97 740 81 Q 764 64 793 64 Q 822 64 878 72 L 947 85 Q 954 87 958 92 Q 962 96 950 103 L 876 126 Q 814 146 784 157 Q 754 167 726 184 L 651 234 L 554 303 L 502 336 C 477 352 458 332 482 314 Z" fill="lightgray"></path>
				<path d="M 342 107 L 321 112 L 300 113 Q 296 114 290 113 Q 284 111 284 107 Q 284 102 288 98 L 298 89 L 308 71 L 315 52 L 334 -70 Q 340 -114 365 -121 Q 371 -121 375 -108 L 379 -95 L 378 -60 L 368 41 L 363 73 C 358 103 358 103 342 107 Z" fill="lightgray"></path>
				<path d="M 615 -56 L 654 34 Q 659 51 676 69 Q 693 86 693 91 Q 689 102 678 110 Q 667 117 659 124 Q 651 130 634 137 Q 621 144 617 144 Q 614 144 597 140 Q 580 136 531 130 L 342 107 C 312 103 334 64 363 73 L 406 86 Q 421 90 455 94 L 527 102 L 561 104 L 579 102 Q 588 100 589 93 Q 592 86 584 50 L 569 -44 C 564 -74 603 -84 615 -56 Z" fill="lightgray"></path>
				<path d="M 379 -95 L 395 -96 L 583 -82 L 624 -82 Q 642 -74 627 -64 Q 620 -61 615 -56 C 596 -41 596 -41 569 -44 L 434 -58 L 378 -60 C 348 -61 349 -93 379 -95 Z" fill="lightgray"></path>
</g>
		<text x="40" y="140" font-size="128" fill="#999999">4</text></g>
		<g id="id0:id4:id4" transform="matrix(1.0,0,0,1.0,4096,0.0)">			<g stroke="lightgray" stroke-width="4" transform="scale(4, 4)"> <rect x="0" y="0" width="256" height="256" fill="white" stroke-width="4"/></g>
			<g transform="scale(0.92, -0.92) translate(60, -920)">					<path d="M 509 596 L 519 614 Q 523 617 523 634 Q 515 672 494 685 Q 481 692 454 705 Q 436 711 431 712 L 415 715 Q 409 716 407 711 Q 405 706 409 701 L 414 685 Q 422 659 441 633 Q 460 606 474 592 C 495 570 495 570 509 596 Z" fill="black"></path>
				<path d="M 229 578 L 223 604 Q 219 618 214 624 Q 209 630 206 629 Q 196 627 191 614 L 176 570 L 151 510 L 137 484 Q 125 453 138 432 Q 144 421 158 421 Q 177 418 205 474 L 223 512 Q 230 539 231 545 L 229 578 Z" fill="black"></path>
				<path d="M 711 580 Q 718 574 719 568 Q 720 561 695 524 L 674 497 Q 667 487 668 486 Q 669 484 680 487 L 706 495 Q 732 503 758 510 L 830 522 Q 844 526 844 539 Q 844 544 839 555 Q 835 566 802 594 Q 770 621 761 625 Q 752 629 741 630 L 509 596 L 474 592 L 229 578 C 199 576 202 554 231 545 L 260 536 Q 266 534 286 537 L 341 546 L 594 577 L 692 582 Q 701 585 711 580 Z" fill="black"></path>
				<path d="M 224 328 L 212 316 Q 202 306 203 303 Q 205 300 218 306 L 237 313 Q 253 320 261 326 Q 270 331 297 353 L 331 386 L 364 424 Q 373 434 381 441 Q 396 455 383 468 Q 363 494 339 498 Q 328 500 325 498 Q 323 496 322 488 L 315 452 Q 310 440 286 404 Q 263 367 224 328 Z" fill="black"></path>
				<path d="M 516 482 L 598 404 L 625 376 Q 642 358 655 357 Q 668 356 673 359 Q 680 366 684 371 Q 695 396 681 422 Q 665 457 561 484 L 529 494 Q 513 495 512 493 Q 511 489 516 482 Z" fill="red"></path>
				<path d="M 502 336 L 507 344 Q 514 351 498 367 Q 482 383 474 387 Q 466 391 455 398 Q 444 405 434 402 Q 431 400 430 392 L 427 370 Q 422 340 407 319 Q 393 297 349 243 Q 306 189 186 100 Q 121 52 92 35 L 65 20 Q 60 15 63 11 Q 66 7 80 11 L 94 15 Q 107 16 151 36 Q 238 75 325 148 Q 383 200 403 222 Q 423 243 482 314 L 502 336 Z" fill="lightgray"></path>
				<path d="M 482 314 L 525 282 Q 536 275 570 242 L 623 188 L 693 122 Q 716 97 740 81 Q 764 64 793 64 Q 822 64 878 72 L 947 85 Q 954 87 958 92 Q 962 96 950 103 L 876 126 Q 814 146 784 157 Q 754 167 726 184 L 651 234 L 554 303 L 502 336 C 477 352 458 332 482 314 Z" fill="lightgray"></path>
				<path d="M 342 107 L 321 112 L 300 113 Q 296 114 290 113 Q 284 111 284 107 Q 284 102 288 98 L 298 89 L 308 71 L 315 52 L 334 -70 Q 340 -114 365 -121 Q 371 -121 375 -108 L 379 -95 L 378 -60 L 368 41 L 363 73 C 358 103 358 103 342 107 Z" fill="lightgray"></path>
				<path d="M 615 -56 L 654 34 Q 659 51 676 69 Q 693 86 693 91 Q 689 102 678 110 Q 667 117 659 124 Q 651 130 634 137 Q 621 144 617 144 Q 614 144 597 140 Q 580 136 531 130 L 342 107 C 312 103 334 64 363 73 L 406 86 Q 421 90 455 94 L 527 102 L 561 104 L 579 102 Q 588 100 589 93 Q 592 86 584 50 L 569 -44 C 564 -74 603 -84 615 -56 Z" fill="lightgray"></path>
				<path d="M 379 -95 L 395 -96 L 583 -82 L 624 -82 Q 642 -74 627 -64 Q 620 -61 615 -56 C 596 -41 596 -41 569 -44 L 434 -58 L 378 -60 C 348 -61 349 -93 379 -95 Z" fill="lightgray"></path>
</g>
		<text x="40" y="140" font-size="128" fill="#999999">5</text></g>
</g>
	<g id="id1:id1" transform="translate(0.0,1024)">
		<g id="id1:id0:id0" transform="matrix(1.0,0,0,1.0,0,0.0)">			<g stroke="lightgray" stroke-width="4" transform="scale(4, 4)"> <rect x="0" y="0" width="256" height="256" fill="white" stroke-width="4"/></g>
			<g transform="scale(0.92, -0.92) translate(60, -920)">					<path d="M 509 596 L 519 614 Q 523 617 523 634 Q 515 672 494 685 Q 481 692 454 705 Q 436 711 431 712 L 415 715 Q 409 716 407 711 Q 405 706 409 701 L 414 685 Q 422 659 441 633 Q 460 606 474 592 C 495 570 495 570 509 596 Z" fill="black"></path>
				<path d="M 229 578 L 223 604 Q 219 618 214 624 Q 209 630 206 629 Q 196 627 191 614 L 176 570 L 151 510 L 137 484 Q 125 453 138 432 Q 144 421 158 421 Q 177 418 205 474 L 223 512 Q 230 539 231 545 L 229 578 Z" fill="black"></path>
				<path d="M 711 580 Q 718 574 719 568 Q 720 561 695 524 L 674 497 Q 667 487 668 486 Q 669 484 680 487 L 706 495 Q 732 503 758 510 L 830 522 Q 844 526 844 539 Q 844 544 839 555 Q 835 566 802 594 Q 770 621 761 625 Q 752 629 741 630 L 509 596 L 474 592 L 229 578 C 199 576 202 554 231 545 L 260 536 Q 266 534 286 537 L 341 546 L 594 577 L 692 582 Q 701 585 711 580 Z" fill="black"></path>
				<path d="M 224 328 L 212 316 Q 202 306 203 303 Q 205 300 218 306 L 237 313 Q 253 320 261 326 Q 270 331 297 353 L 331 386 L 364 424 Q 373 434 381 441 Q 396 455 383 468 Q 363 494 339 498 Q 328 500 325 498 Q 323 496 322 488 L 315 452 Q 310 440 286 404 Q 263 367 224 328 Z" fill="black"></path>
				<path d="M 516 482 L 598 404 L 625 376 Q 642 358 655 357 Q 668 356 673 359 Q 680 366 684 371 Q 695 396 681 422 Q 665 457 561 484 L 529 494 Q 513 495 512 493 Q 511 489 516 482 Z" fill="black"></path>
				<path d="M 502 336 L 507 344 Q 514 351 498 367 Q 482 383 474 387 Q 466 391 455 398 Q 444 405 434 402 Q 431 400 430 392 L 427 370 Q 422 340 407 319 Q 393 297 349 243 Q 306 189 186 100 Q 121 52 92 35 L 65 20 Q 60 15 63 11 Q 66 7 80 11 L 94 15 Q 107 16 151 36 Q 238 75 325 148 Q 383 200 403 222 Q 423 243 482 314 L 502 336 Z" fill="red"></path>
				<path d="M 482 314 L 525 282 Q 536 275 570 242 L 623 188 L 693 122 Q 716 97 740 81 Q 764 64 793 64 Q 822 64 878 72 L 947 85 Q 954 87 958 92 Q 962 96 950 103 L 876 126 Q 814 146 784 157 Q 754 167 726 184 L 651 234 L 554 303 L 502 336 C 477 352 458 332 482 314 Z" fill="lightgray"></path>
				<path d="M 342 107 L 321 112 L 300 113 Q 296 114 290 113 Q 284 111 284 107 Q 284 102 288 98 L 298 89 L 308 71 L 315 52 L 334 -70 Q 340 -114 365 -121 Q 371 -121 375 -108 L 379 -95 L 378 -60 L 368 41 L 363 73 C 358 103 358 103 342 107 Z" fill="lightgray"></path>
				<path d="M 615 -56 L 654 34 Q 659 51 676 69 Q 693 86 693 91 Q 689 102 678 110 Q 667 117 659 124 Q 651 130 634 137 Q 621 144 617 144 Q 614 144 597 140 Q 580 136 531 130 L 342 107 C 312 103 334 64 363 73 L 406 86 Q 421 90 455 94 L 527 102 L 561 104 L 579 102 Q 588 100 589 93 Q 592 86 584 50 L 569 -44 C 564 -74 603 -84 615 -56 Z" fill="lightgray"></path>
				<path d="M 379 -95 L 395 -96 L 583 -82 L 624 -82 Q 642 -74 627 -64 Q 620 -61 615 -56 C 596 -41 596 -41 569 -44 L 434 -58 L 378 -60 C 348 -61 349 -93 379 -95 Z" fill="lightgray"></path>
</g>
		<text x="40" y="140" font-size="128" fill="#999999">6</text></g>
		<g id="id1:id1:id1" transform="matrix(1.0,0,0,1.0,1024,0.0)">			<g stroke="lightgray" stroke-width="4" transform="scale(4, 4)"> <rect x="0" y="0" width="256" height="256" fill="white" stroke-width="4"/></g>
			<g transform="scale(0.92, -0.92) translate(60, -920)">					<path d="M 509 596 L 519 614 Q 523 617 523 634 Q 515 672 494 685 Q 481 692 454 705 Q 436 711 431 712 L 415 715 Q 409 716 407 711 Q 405 706 409 701 L 414 685 Q 422 659 441 633 Q 460 606 474 592 C 495 570 495 570 509 596 Z" fill="black"></path>
				<path d="M 229 578 L 223 604 Q 219 618 214 624 Q 209 630 206 629 Q 196 627 191 614 L 176 570 L 151 510 L 137 484 Q 125 453 138 432 Q 144 421 158 421 Q 177 418 205 474 L 223 512 Q 230 539 231 545 L 229 578 Z" fill="black"></path>
				<path d="M 711 580 Q 718 574 719 568 Q 720 561 695 524 L 674 497 Q 667 487 668 486 Q 669 484 680 487 L 706 495 Q 732 503 758 510 L 830 522 Q 844 526 844 539 Q 844 544 839 555 Q 835 566 802 594 Q 770 621 761 625 Q 752 629 741 630 L 509 596 L 474 592 L 229 578 C 199 576 202 554 231 545 L 260 536 Q 266 534 286 537 L 341 546 L 594 577 L 692 582 Q 701 585 711 580 Z" fill="black"></path>
				<path d="M 224 328 L 212 316 Q 202 306 203 303 Q 205 300 218 306 L 237 313 Q 253 320 261 326 Q 270 331 297 353 L 331 386 L 364 424 Q 373 434 381 441 Q 396 455 383 468 Q 363 494 339 498 Q 328 500 325 498 Q 323 496 322 488 L 315 452 Q 310 440 286 404 Q 263 367 224 328 Z" fill="black"></path>
				<path d="M 516 482 L 598 404 L 625 376 Q 642 358 655 357 Q 668 356 673 359 Q 680 366 684 371 Q 695 396 681 422 Q 665 457 561 484 L 529 494 Q 513 495 512 493 Q 511 489 516 482 Z" fill="black"></path>
				<path d="M 502 336 L 507 344 Q 514 351 498 367 Q 482 383 474 387 Q 466 391 455 398 Q 444 405 434 402 Q 431 400 430 392 L 427 370 Q 422 340 407 319 Q 393 297 349 243 Q 306 189 186 100 Q 121 52 92 35 L 65 20 Q 60 15 63 11 Q 66 7 80 11 L 94 15 Q 107 16 151 36 Q 238 75 325 148 Q 383 200 403 222 Q 423 243 482 314 L 502 336 Z" fill="black"></path>
				<path d="M 482 314 L 525 282 Q 536 275 570 242 L 623 188 L 693 122 Q 716 97 740 81 Q 764 64 793 64 Q 822 64 878 72 L 947 85 Q 954 87 958 92 Q 962 96 950 103 L 876 126 Q 814 146 784 157 Q 754 167 726 184 L 651 234 L 554 303 L 502 336 C 477 352 458 332 482 314 Z" fill="red"></path>
				<path d="M 342 107 L 321 112 L 300 113 Q 296 114 290 113 Q 284 111 284 107 Q 284 102 288 98 L 298 89 L 308 71 L 315 52 L 334 -70 Q 340 -114 365 -121 Q 371 -121 375 -108 L 379 -95 L 378 -60 L 368 41 L 363 73 C 358 103 358 103 342 107 Z" fill="lightgray"></path>
				<path d="M 615 -56 L 654 34 Q 659 51 676 69 Q 693 86 693 91 Q 689 102 678 110 Q 667 117 659 124 Q 651 130 634 137 Q 621 144 617 144 Q 614 144 597 140 Q 580 136 531 130 L 342 107 C 312 103 334 64 363 73 L 406 86 Q 421 90 455 94 L 527 102 L 561 104 L 579 102 Q 588 100 589 93 Q 592 86 584 50 L 569 -44 C 564 -74 603 -84 615 -56 Z" fill="lightgray"></path>
				<path d="M 379 -95 L 395 -96 L 583 -82 L 624 -82 Q 642 -74 627 -64 Q 620 -61 615 -56 C 596 -41 596 -41 569 -44 L 434 -58 L 378 -60 C 348 -61 349 -93 379 -95 Z" fill="lightgray"></path>
</g>
		<text x="40" y="140" font-size="128" fill="#999999">7</text></g>
		<g id="id1:id2:id2" transform="matrix(1.0,0,0,1.0,2048,0.0)">			<g stroke="lightgray" stroke-width="4" transform="scale(4, 4)"> <rect x="0" y="0" width="256" height="256" fill="white" stroke-width="4"/></g>
			<g transform="scale(0.92, -0.92) translate(60, -920)">					<path d="M 509 596 L 519 614 Q 523 617 523 634 Q 515 672 494 685 Q 481 692 454 705 Q 436 711 431 712 L 415 715 Q 409 716 407 711 Q 405 706 409 701 L 414 685 Q 422 659 441 633 Q 460 606 474 592 C 495 570 495 570 509 596 Z" fill="black"></path>
				<path d="M 229 578 L 223 604 Q 219 618 214 624 Q 209 630 206 629 Q 196 627 191 614 L 176 570 L 151 510 L 137 484 Q 125 453 138 432 Q 144 421 158 421 Q 177 418 205 474 L 223 512 Q 230 539 231 545 L 229 578 Z" fill="black"></path>
				<path d="M 711 580 Q 718 574 719 568 Q 720 561 695 524 L 674 497 Q 667 487 668 486 Q 669 484 680 487 L 706 495 Q 732 503 758 510 L 830 522 Q 844 526 844 539 Q 844 544 839 555 Q 835 566 802 594 Q 770 621 761 625 Q 752 629 741 630 L 509 596 L 474 592 L 229 578 C 199 576 202 554 231 545 L 260 536 Q 266 534 286 537 L 341 546 L 594 577 L 692 582 Q 701 585 711 580 Z" fill="black"></path>
				<path d="M 224 328 L 212 316 Q 202 306 203 303 Q 205 300 218 306 L 237 313 Q 253 320 261 326 Q 270 331 297 353 L 331 386 L 364 424 Q 373 434 381 441 Q 396 455 383 468 Q 363 494 339 498 Q 328 500 325 498 Q 323 496 322 488 L 315 452 Q 310 440 286 404 Q 263 367 224 328 Z" fill="black"></path>
				<path d="M 516 482 L 598 404 L 625 376 Q 642 358 655 357 Q 668 356 673 359 Q 680 366 684 371 Q 695 396 681 422 Q 665 457 561 484 L 529 494 Q 513 495 512 493 Q 511 489 516 482 Z" fill="black"></path>
				<path d="M 502 336 L 507 344 Q 514 351 498 367 Q 482 383 474 387 Q 466 391 455 398 Q 444 405 434 402 Q 431 400 430 392 L 427 370 Q 422 340 407 319 Q 393 297 349 243 Q 306 189 186 100 Q 121 52 92 35 L 65 20 Q 60 15 63 11 Q 66 7 80 11 L 94 15 Q 107 16 151 36 Q 238 75 325 148 Q 383 200 403 222 Q 423 243 482 314 L 502 336 Z" fill="black"></path>
				<path d="M 482 314 L 525 282 Q 536 275 570 242 L 623 188 L 693 122 Q 716 97 740 81 Q 764 64 793 64 Q 822 64 878 72 L 947 85 Q 954 87 958 92 Q 962 96 950 103 L 876 126 Q 814 146 784 157 Q 754 167 726 184 L 651 234 L 554 303 L 502 336 C 477 352 458 332 482 314 Z" fill="black"></path>
				<path d="M 342 107 L 321 112 L 300 113 Q 296 114 290 113 Q 284 111 284 107 Q 284 102 288 98 L 298 89 L 308 71 L 315 52 L 334 -70 Q 340 -114 365 -121 Q 371 -121 375 -108 L 379 -95 L 378 -60 L 368 41 L 363 73 C 358 103 358 103 342 107 Z" fill="red"></path>
				<path d="M 615 -56 L 654 34 Q 659 51 676 69 Q 693 86 693 91 Q 689 102 678 110 Q 667 117 659 124 Q 651 130 634 137 Q 621 144 617 144 Q 614 144 597 140 Q 580 136 531 130 L 342 107 C 312 103 334 64 363 73 L 406 86 Q 421 90 455 94 L 527 102 L 561 104 L 579 102 Q 588 100 589 93 Q 592 86 584 50 L 569 -44 C 564 -74 603 -84 615 -56 Z" fill="lightgray"></path>
				<path d="M 379 -95 L 395 -96 L 583 -82 L 624 -82 Q 642 -74 627 -64 Q 620 -61 615 -56 C 596 -41 596 -41 569 -44 L 434 -58 L 378 -60 C 348 -61 349 -93 379 -95 Z" fill="lightgray"></path>
</g>
		<text x="40" y="140" font-size="128" fill="#999999">8</text></g>
		<g id="id1:id3:id3" transform="matrix(1.0,0,0,1.0,3072,0.0)">			<g stroke="lightgray" stroke-width="4" transform="scale(4, 4)"> <rect x="0" y="0" width="256" height="256" fill="white" stroke-width="4"/></g>
			<g transform="scale(0.92, -0.92) translate(60, -920)">					<path d="M 509 596 L 519 614 Q 523 617 523 634 Q 515 672 494 685 Q 481 692 454 705 Q 436 711 431 712 L 415 715 Q 409 716 407 711 Q 405 706 409 701 L 414 685 Q 422 659 441 633 Q 460 606 474 592 C 495 570 495 570 509 596 Z" fill="black"></path>
				<path d="M 229 578 L 223 604 Q 219 618 214 624 Q 209 630 206 629 Q 196 627 191 614 L 176 570 L 151 510 L 137 484 Q 125 453 138 432 Q 144 421 158 421 Q 177 418 205 474 L 223 512 Q 230 539 231 545 L 229 578 Z" fill="black"></path>
				<path d="M 711 580 Q 718 574 719 568 Q 720 561 695 524 L 674 497 Q 667 487 668 486 Q 669 484 680 487 L 706 495 Q 732 503 758 510 L 830 522 Q 844 526 844 539 Q 844 544 839 555 Q 835 566 802 594 Q 770 621 761 625 Q 752 629 741 630 L 509 596 L 474 592 L 229 578 C 199 576 202 554 231 545 L 260 536 Q 266 534 286 537 L 341 546 L 594 577 L 692 582 Q 701 585 711 580 Z" fill="black"></path>
				<path d="M 224 328 L 212 316 Q 202 306 203 303 Q 205 300 218 306 L 237 313 Q 253 320 261 326 Q 270 331 297 353 L 331 386 L 364 424 Q 373 434 381 441 Q 396 455 383 468 Q 363 494 339 498 Q 328 500 325 498 Q 323 496 322 488 L 315 452 Q 310 440 286 404 Q 263 367 224 328 Z" fill="black"></path>
				<path d="M 516 482 L 598 404 L 625 376 Q 642 358 655 357 Q 668 356 673 359 Q 680 366 684 371 Q 695 396 681 422 Q 665 457 561 484 L 529 494 Q 513 495 512 493 Q 511 489 516 482 Z" fill="black"></path>
				<path d="M 502 336 L 507 344 Q 514 351 498 367 Q 482 383 474 387 Q 466 391 455 398 Q 444 405 434 402 Q 431 400 430 392 L 427 370 Q 422 340 407 319 Q 393 297 349 243 Q 306 189 186 100 Q 121 52 92 35 L 65 20 Q 60 15 63 11 Q 66 7 80 11 L 94 15 Q 107 16 151 36 Q 238 75 325 148 Q 383 200 403 222 Q 423 243 482 314 L 502 336 Z" fill="black"></path>
				<path d="M 482 314 L 525 282 Q 536 275 570 242 L 623 188 L 693 122 Q 716 97 740 81 Q 764 64 793 64 Q 822 64 878 72 L 947 85 Q 954 87 958 92 Q 962 96 950 103 L 876 126 Q 814 146 784 157 Q 754 167 726 184 L 651 234 L 554 303 L 502 336 C 477 352 458 332 482 314 Z" fill="black"></path>
				<path d="M 342 107 L 321 112 L 300 113 Q 296 114 290 113 Q 284 111 284 107 Q 284 102 288 98 L 298 89 L 308 71 L 315 52 L 334 -70 Q 340 -114 365 -121 Q 371 -121 375 -108 L 379 -95 L 378 -60 L 368 41 L 363 73 C 358 103 358 103 342 107 Z" fill="black"></path>
				<path d="M 615 -56 L 654 34 Q 659 51 676 69 Q 693 86 693 91 Q 689 102 678 110 Q 667 117 659 124 Q 651 130 634 137 Q 621 144 617 144 Q 614 144 597 140 Q 580 136 531 130 L 342 107 C 312 103 334 64 363 73 L 406 86 Q 421 90 455 94 L 527 102 L 561 104 L 579 102 Q 588 100 589 93 Q 592 86 584 50 L 569 -44 C 564 -74 603 -84 615 -56 Z" fill="red"></path>
				<path d="M 379 -95 L 395 -96 L 583 -82 L 624 -82 Q 642 -74 627 -64 Q 620 -61 615 -56 C 596 -41 596 -41 569 -44 L 434 -58 L 378 -60 C 348 -61 349 -93 379 -95 Z" fill="lightgray"></path>
</g>
		<text x="40" y="140" font-size="128" fill="#999999">9</text></g>
		<g id="id1:id4:id4" transform="matrix(1.0,0,0,1.0,4096,0.0)">			<g stroke="lightgray" stroke-width="4" transform="scale(4, 4)"> <rect x="0" y="0" width="256" height="256" fill="white" stroke-width="4"/></g>
			<g transform="scale(0.92, -0.92) translate(60, -920)">					<path d="M 509 596 L 519 614 Q 523 617 523 634 Q 515 672 494 685 Q 481 692 454 705 Q 436 711 431 712 L 415 715 Q 409 716 407 711 Q 405 706 409 701 L 414 685 Q 422 659 441 633 Q 460 606 474 592 C 495 570 495 570 509 596 Z" fill="black"></path>
				<path d="M 229 578 L 223 604 Q 219 618 214 624 Q 209 630 206 629 Q 196 627 191 614 L 176 570 L 151 510 L 137 484 Q 125 453 138 432 Q 144 421 158 421 Q 177 418 205 474 L 223 512 Q 230 539 231 545 L 229 578 Z" fill="black"></path>
				<path d="M 711 580 Q 718 574 719 568 Q 720 561 695 524 L 674 497 Q 667 487 668 486 Q 669 484 680 487 L 706 495 Q 732 503 758 510 L 830 522 Q 844 526 844 539 Q 844 544 839 555 Q 835 566 802 594 Q 770 621 761 625 Q 752 629 741 630 L 509 596 L 474 592 L 229 578 C 199 576 202 554 231 545 L 260 536 Q 266 534 286 537 L 341 546 L 594 577 L 692 582 Q 701 585 711 580 Z" fill="black"></path>
				<path d="M 224 328 L 212 316 Q 202 306 203 303 Q 205 300 218 306 L 237 313 Q 253 320 261 326 Q 270 331 297 353 L 331 386 L 364 424 Q 373 434 381 441 Q 396 455 383 468 Q 363 494 339 498 Q 328 500 325 498 Q 323 496 322 488 L 315 452 Q 310 440 286 404 Q 263 367 224 328 Z" fill="black"></path>
				<path d="M 516 482 L 598 404 L 625 376 Q 642 358 655 357 Q 668 356 673 359 Q 680 366 684 371 Q 695 396 681 422 Q 665 457 561 484 L 529 494 Q 513 495 512 493 Q 511 489 516 482 Z" fill="black"></path>
				<path d="M 502 336 L 507 344 Q 514 351 498 367 Q 482 383 474 387 Q 466 391 455 398 Q 444 405 434 402 Q 431 400 430 392 L 427 370 Q 422 340 407 319 Q 393 297 349 243 Q 306 189 186 100 Q 121 52 92 35 L 65 20 Q 60 15 63 11 Q 66 7 80 11 L 94 15 Q 107 16 151 36 Q 238 75 325 148 Q 383 200 403 222 Q 423 243 482 314 L 502 336 Z" fill="black"></path>
				<path d="M 482 314 L 525 282 Q 536 275 570 242 L 623 188 L 693 122 Q 716 97 740 81 Q 764 64 793 64 Q 822 64 878 72 L 947 85 Q 954 87 958 92 Q 962 96 950 103 L 876 126 Q 814 146 784 157 Q 754 167 726 184 L 651 234 L 554 303 L 502 336 C 477 352 458 332 482 314 Z" fill="black"></path>
				<path d="M 342 107 L 321 112 L 300 113 Q 296 114 290 113 Q 284 111 284 107 Q 284 102 288 98 L 298 89 L 308 71 L 315 52 L 334 -70 Q 340 -114 365 -121 Q 371 -121 375 -108 L 379 -95 L 378 -60 L 368 41 L 363 73 C 358 103 358 103 342 107 Z" fill="black"></path>
				<path d="M 615 -56 L 654 34 Q 659 51 676 69 Q 693 86 693 91 Q 689 102 678 110 Q 667 117 659 124 Q 651 130 634 137 Q 621 144 617 144 Q 614 144 597 140 Q 580 136 531 130 L 342 107 C 312 103 334 64 363 73 L 406 86 Q 421 90 455 94 L 527 102 L 561 104 L 579 102 Q 588 100 589 93 Q 592 86 584 50 L 569 -44 C 564 -74 603 -84 615 -56 Z" fill="black"></path>
				<path d="M 379 -95 L 395 -96 L 583 -82 L 624 -82 Q 642 -74 627 -64 Q 620 -61 615 -56 C 596 -41 596 -41 569 -44 L 434 -58 L 378 -60 C 348 -61 349 -93 379 -95 Z" fill="red"></path>
</g>
		<text x="40" y="140" font-size="128" fill="#999999">10</text></g>
</g>
</svg>
