<?xml version="1.0" standalone="no"?>
<!DOCTYPE svg PUBLIC "-//W3C//DTD SVG 1.1//EN"
 "http://www.w3.org/Graphics/SVG/1.1/DTD/svg11.dtd">
<!-- generate by Japanese dictionary app com.asnsami.kanjidictionary -->

<svg xmlns="http://www.w3.org/2000/svg" xmlns:sodipodi="http://sodipodi.sourceforge.net/DTD/sodipodi-0.dtd" version="1.1" width="640" height="128" viewBox="0 0 5120 1024">
	<g id="id0:id0" transform="translate(0.0,0)">
		<g id="id0:id0:id0" transform="matrix(1.0,0,0,1.0,0,0.0)">			<g stroke="lightgray" stroke-width="4" transform="scale(4, 4)"> <rect x="0" y="0" width="256" height="256" fill="white" stroke-width="4"/></g>
			<g transform="scale(0.92, -0.92) translate(60, -920)">					<path d="M 173 -10 Q 166 -17 166 -22 L 166 -24 Q 167 -26 170 -26 Q 173 -26 178 -24 L 198 -14 Q 218 -4 248 19 Q 278 42 302 73 Q 328 104 343 143 Q 358 182 367 234 Q 376 286 379 347 L 382 441 Q 384 471 386 496 Q 388 522 392 536 Q 398 554 398 560 Q 398 566 394 572 Q 390 578 372 585 Q 354 592 347 595 Q 339 598 325 601 Q 311 604 306 604 Q 296 604 294 599 Q 293 596 293 594 L 293 591 Q 294 586 300 575 Q 308 563 311 550 Q 315 536 317 519 Q 319 502 320 472 Q 320 434 319 386 Q 318 338 314 288 Q 310 237 299 191 Q 288 145 270 112 Q 252 79 226 46 Q 200 14 185 0 L 173 -10 Z" fill="red"></path>
				<path d="M 592 232 L 595 434 Q 595 440 598 474 Q 601 508 603 518 Q 604 528 611 545 Q 615 555 615 561 L 615 564 Q 614 571 605 579 Q 596 587 582 593 Q 567 600 556 602 Q 546 605 538 605 Q 530 604 526 601 Q 523 598 523 595 Q 523 594 524 592 Q 526 586 531 578 Q 535 569 537 559 Q 540 548 541 536 Q 542 524 544 504 Q 545 484 545 473 L 545 342 Q 545 330 542 285 Q 540 240 538 224 Q 537 208 533 182 Q 529 156 526 144 Q 521 125 521 117 L 521 115 Q 521 108 524 96 Q 526 83 530 72 Q 533 62 537 53 Q 540 44 545 40 Q 550 33 555 33 Q 559 34 565 40 Q 572 46 577 58 Q 582 68 584 76 Q 587 83 590 95 Q 592 107 594 128 Q 594 136 593 158 Q 593 180 592 232 Z" fill="lightgray"></path>
				<path d="M 777 562 L 773 0 L 773 -26 Q 773 -50 774 -65 Q 775 -88 777 -103 Q 778 -118 782 -132 Q 786 -146 792 -146 Q 796 -146 800 -141 Q 805 -135 807 -128 Q 808 -120 814 -104 L 823 -62 Q 827 -38 830 -2 L 834 69 L 842 563 L 844 590 L 846 616 Q 847 636 855 650 Q 863 663 863 669 Q 862 674 852 683 Q 840 692 824 698 Q 807 704 800 705 Q 792 706 772 709 L 768 709 Q 762 709 759 707 Q 755 704 755 698 L 755 696 Q 755 690 760 681 Q 765 670 768 659 Q 772 648 773 622 Q 774 596 777 562 Z" fill="lightgray"></path>
</g>
		<text x="40" y="140" font-size="128" fill="#999999">1</text></g>
		<g id="id0:id1:id1" transform="matrix(1.0,0,0,1.0,1024,0.0)">			<g stroke="lightgray" stroke-width="4" transform="scale(4, 4)"> <rect x="0" y="0" width="256" height="256" fill="white" stroke-width="4"/></g>
			<g transform="scale(0.92, -0.92) translate(60, -920)">					<path d="M 173 -10 Q 166 -17 166 -22 L 166 -24 Q 167 -26 170 -26 Q 173 -26 178 -24 L 198 -14 Q 218 -4 248 19 Q 278 42 302 73 Q 328 104 343 143 Q 358 182 367 234 Q 376 286 379 347 L 382 441 Q 384 471 386 496 Q 388 522 392 536 Q 398 554 398 560 Q 398 566 394 572 Q 390 578 372 585 Q 354 592 347 595 Q 339 598 325 601 Q 311 604 306 604 Q 296 604 294 599 Q 293 596 293 594 L 293 591 Q 294 586 300 575 Q 308 563 311 550 Q 315 536 317 519 Q 319 502 320 472 Q 320 434 319 386 Q 318 338 314 288 Q 310 237 299 191 Q 288 145 270 112 Q 252 79 226 46 Q 200 14 185 0 L 173 -10 Z" fill="black"></path>
				<path d="M 592 232 L 595 434 Q 595 440 598 474 Q 601 508 603 518 Q 604 528 611 545 Q 615 555 615 561 L 615 564 Q 614 571 605 579 Q 596 587 582 593 Q 567 600 556 602 Q 546 605 538 605 Q 530 604 526 601 Q 523 598 523 595 Q 523 594 524 592 Q 526 586 531 578 Q 535 569 537 559 Q 540 548 541 536 Q 542 524 544 504 Q 545 484 545 473 L 545 342 Q 545 330 542 285 Q 540 240 538 224 Q 537 208 533 182 Q 529 156 526 144 Q 521 125 521 117 L 521 115 Q 521 108 524 96 Q 526 83 530 72 Q 533 62 537 53 Q 540 44 545 40 Q 550 33 555 33 Q 559 34 565 40 Q 572 46 577 58 Q 582 68 584 76 Q 587 83 590 95 Q 592 107 594 128 Q 594 136 593 158 Q 593 180 592 232 Z" fill="red"></path>
				<path d="M 777 562 L 773 0 L 773 -26 Q 773 -50 774 -65 Q 775 -88 777 -103 Q 778 -118 782 -132 Q 786 -146 792 -146 Q 796 -146 800 -141 Q 805 -135 807 -128 Q 808 -120 814 -104 L 823 -62 Q 827 -38 830 -2 L 834 69 L 842 563 L 844 590 L 846 616 Q 847 636 855 650 Q 863 663 863 669 Q 862 674 852 683 Q 840 692 824 698 Q 807 704 800 705 Q 792 706 772 709 L 768 709 Q 762 709 759 707 Q 755 704 755 698 L 755 696 Q 755 690 760 681 Q 765 670 768 659 Q 772 648 773 622 Q 774 596 777 562 Z" fill="lightgray"></path>
</g>
		<text x="40" y="140" font-size="128" fill="#999999">2</text></g>
		<g id="id0:id2:id2" transform="matrix(1.0,0,0,1.0,2048,0.0)">			<g stroke="lightgray" stroke-width="4" transform="scale(4, 4)"> <rect x="0" y="0" width="256" height="256" fill="white" stroke-width="4"/></g>
			<g transform="scale(0.92, -0.92) translate(60, -920)">					<path d="M 173 -10 Q 166 -17 166 -22 L 166 -24 Q 167 -26 170 -26 Q 173 -26 178 -24 L 198 -14 Q 218 -4 248 19 Q 278 42 302 73 Q 328 104 343 143 Q 358 182 367 234 Q 376 286 379 347 L 382 441 Q 384 471 386 496 Q 388 522 392 536 Q 398 554 398 560 Q 398 566 394 572 Q 390 578 372 585 Q 354 592 347 595 Q 339 598 325 601 Q 311 604 306 604 Q 296 604 294 599 Q 293 596 293 594 L 293 591 Q 294 586 300 575 Q 308 563 311 550 Q 315 536 317 519 Q 319 502 320 472 Q 320 434 319 386 Q 318 338 314 288 Q 310 237 299 191 Q 288 145 270 112 Q 252 79 226 46 Q 200 14 185 0 L 173 -10 Z" fill="black"></path>
				<path d="M 592 232 L 595 434 Q 595 440 598 474 Q 601 508 603 518 Q 604 528 611 545 Q 615 555 615 561 L 615 564 Q 614 571 605 579 Q 596 587 582 593 Q 567 600 556 602 Q 546 605 538 605 Q 530 604 526 601 Q 523 598 523 595 Q 523 594 524 592 Q 526 586 531 578 Q 535 569 537 559 Q 540 548 541 536 Q 542 524 544 504 Q 545 484 545 473 L 545 342 Q 545 330 542 285 Q 540 240 538 224 Q 537 208 533 182 Q 529 156 526 144 Q 521 125 521 117 L 521 115 Q 521 108 524 96 Q 526 83 530 72 Q 533 62 537 53 Q 540 44 545 40 Q 550 33 555 33 Q 559 34 565 40 Q 572 46 577 58 Q 582 68 584 76 Q 587 83 590 95 Q 592 107 594 128 Q 594 136 593 158 Q 593 180 592 232 Z" fill="black"></path>
				<path d="M 777 562 L 773 0 L 773 -26 Q 773 -50 774 -65 Q 775 -88 777 -103 Q 778 -118 782 -132 Q 786 -146 792 -146 Q 796 -146 800 -141 Q 805 -135 807 -128 Q 808 -120 814 -104 L 823 -62 Q 827 -38 830 -2 L 834 69 L 842 563 L 844 590 L 846 616 Q 847 636 855 650 Q 863 663 863 669 Q 862 674 852 683 Q 840 692 824 698 Q 807 704 800 705 Q 792 706 772 709 L 768 709 Q 762 709 759 707 Q 755 704 755 698 L 755 696 Q 755 690 760 681 Q 765 670 768 659 Q 772 648 773 622 Q 774 596 777 562 Z" fill="red"></path>
</g>
		<text x="40" y="140" font-size="128" fill="#999999">3</text></g>
		<g id="id0:id3:id3" transform="matrix(1.0,0,0,1.0,3072,0.0)">			<g stroke="white" stroke-width="4" transform="scale(4, 4)"> <rect x="1" y="1" width="255" height="255" fill="white" stroke-width="0"/></g>
</g>
		<g id="id0:id4:id4" transform="matrix(1.0,0,0,1.0,4096,0.0)">			<g stroke="white" stroke-width="4" transform="scale(4, 4)"> <rect x="1" y="1" width="255" height="255" fill="white" stroke-width="0"/></g>
</g>
</g>
</svg>
