<?xml version="1.0" standalone="no"?>
<!DOCTYPE svg PUBLIC "-//W3C//DTD SVG 1.1//EN"
 "http://www.w3.org/Graphics/SVG/1.1/DTD/svg11.dtd">
<!-- generate by Japanese dictionary app com.asnsami.kanjidictionary -->

<svg xmlns="http://www.w3.org/2000/svg" xmlns:sodipodi="http://sodipodi.sourceforge.net/DTD/sodipodi-0.dtd" version="1.1" width="640" height="512" viewBox="0 0 5120 4096">
	<g id="id0:id0" transform="translate(0.0,0)">
		<g id="id0:id0:id0" transform="matrix(1.0,0,0,1.0,0,0.0)">			<g stroke="lightgray" stroke-width="4" transform="scale(4, 4)"> <rect x="0" y="0" width="256" height="256" fill="white" stroke-width="4"/></g>
			<g transform="scale(0.92, -0.92) translate(60, -920)">					<path d="M 344 674 L 377 679 Q 393 680 399 683 Q 405 685 407 685 Q 410 685 418 688 Q 427 690 427 695 L 429 699 Q 430 703 421 708 Q 414 714 397 719 Q 380 724 375 723 Q 373 721 363 719 Q 353 716 349 716 L 297 703 L 209 690 Q 190 687 204 675 Q 211 669 213 668 L 234 664 Q 255 662 259 663 L 295 667 L 344 674 Z" fill="red"></path>
				<path d="M 339 620 L 344 674 L 349 716 L 350 732 Q 356 750 356 753 Q 356 756 351 764 Q 344 772 301 781 Q 283 782 283 770 Q 283 765 285 757 L 289 747 Q 294 736 295 718 L 297 703 L 295 667 L 297 614 C 298 584 336 590 339 620 Z" fill="lightgray"></path>
				<path d="M 484 604 Q 484 622 450 630 L 431 635 Q 425 636 413 634 L 339 620 L 297 614 L 146 592 Q 133 590 133 585 Q 133 579 137 578 L 148 572 Q 152 568 166 565 Q 181 561 203 566 Q 213 570 257 576 L 303 584 L 453 596 Q 481 596 484 604 Z" fill="lightgray"></path>
				<path d="M 439 499 L 437 506 Q 432 511 417 518 Q 402 524 396 524 L 373 517 Q 354 509 339 508 L 292 496 L 208 485 Q 198 484 196 482 Q 195 479 199 471 Q 204 463 219 460 Q 234 456 247 458 L 293 464 L 337 472 L 354 474 Q 424 484 431 491 Q 437 494 439 499 Z" fill="lightgray"></path>
				<path d="M 339 508 L 341 519 L 347 536 Q 348 543 343 548 Q 339 555 311 563 Q 283 570 281 559 Q 277 556 282 546 L 287 537 Q 289 534 290 524 L 292 511 L 292 496 L 293 464 L 295 400 C 296 370 328 379 331 409 L 337 472 L 339 508 Z" fill="lightgray"></path>
				<path d="M 295 400 L 221 385 Q 217 384 196 382 L 183 382 L 166 380 Q 163 382 149 382 L 133 384 Q 119 384 119 376 Q 119 365 138 344 Q 172 316 179 319 L 187 319 Q 189 319 217 333 Q 245 347 276 358 L 449 416 Q 461 420 457 427 Q 453 433 444 432 L 331 409 L 295 400 Z" fill="lightgray"></path>
				<path d="M 765 642 L 889 649 Q 898 650 900 652 Q 903 656 900 664 Q 894 672 867 686 Q 841 700 813 690 L 770 683 L 717 673 L 679 666 L 520 648 Q 511 648 509 644 Q 508 640 515 634 Q 523 627 538 620 Q 553 612 565 615 L 721 638 L 765 642 Z" fill="lightgray"></path>
				<path d="M 721 638 L 719 554 L 715 471 Q 711 454 700 454 Q 697 454 685 457 L 669 460 L 656 464 Q 645 467 643 462 Q 642 458 649 452 L 658 442 Q 676 422 685 411 L 707 380 Q 711 368 723 368 Q 735 364 749 385 Q 767 415 767 460 Q 767 476 764 506 Q 761 535 763 556 L 765 642 L 770 683 L 772 696 Q 772 704 777 716 Q 782 727 781 732 Q 779 745 737 763 L 711 768 Q 705 769 701 764 Q 697 758 702 747 Q 708 736 709 732 Q 711 727 714 722 Q 717 716 717 696 L 717 673 L 721 638 Z" fill="lightgray"></path>
				<path d="M 586 577 L 562 583 Q 555 584 553 579 Q 551 574 554 570 L 565 552 Q 578 525 604 491 Q 621 472 635 486 Q 656 521 638 547 Q 621 568 586 577 Z" fill="lightgray"></path>
				<path d="M 465 355 L 515 394 L 545 410 Q 553 417 554 421 Q 556 425 549 432 Q 547 436 537 442 Q 518 458 499 462 Q 481 465 478 462 Q 475 458 475 450 L 475 435 Q 474 417 457 394 L 419 350 C 399 327 441 337 465 355 Z" fill="lightgray"></path>
				<path d="M 320 343 Q 320 338 322 336 Q 345 323 354 298 L 360 270 L 370 207 Q 378 155 389 152 Q 403 148 411 161 L 413 192 L 406 246 L 402 274 L 396 322 C 394 341 394 341 371 346 L 356 349 Q 350 351 335 352 Q 320 353 320 343 Z" fill="lightgray"></path>
				<path d="M 607 182 L 612 168 Q 619 145 636 161 Q 653 177 661 204 L 692 300 Q 698 318 705 328 Q 713 338 713 341 Q 713 344 706 353 Q 700 361 691 366 L 673 376 Q 655 386 643 386 Q 632 386 619 382 Q 607 377 593 376 L 465 355 L 419 350 L 371 346 C 341 344 366 318 396 322 L 559 344 L 604 346 Q 634 349 638 336 Q 640 331 638 317 L 630 281 L 625 265 L 621 243 Q 618 235 614 216 C 607 187 607 183 607 182 Z" fill="lightgray"></path>
				<path d="M 578 298 L 563 297 L 499 286 L 402 274 C 372 270 376 244 406 246 L 595 261 Q 621 263 625 265 C 650 271 650 271 630 281 L 610 291 L 578 298 Z" fill="lightgray"></path>
				<path d="M 411 161 L 469 165 L 530 173 L 607 182 C 637 185 644 213 614 216 L 595 218 Q 592 219 575 216 L 538 208 L 469 198 L 413 192 C 383 189 381 159 411 161 Z" fill="lightgray"></path>
				<path d="M 334 97 L 314 106 L 289 113 Q 275 117 273 105 Q 273 102 277 92 Q 282 81 283 71 L 289 35 L 289 -18 L 285 -46 Q 284 -54 285 -61 Q 292 -80 302 -90 Q 309 -102 319 -92 Q 331 -82 333 -46 L 335 -28 Q 335 -14 337 -8 L 339 67 C 340 94 340 94 334 97 Z" fill="lightgray"></path>
				<path d="M 475 111 L 334 97 C 304 94 309 63 339 67 L 477 84 L 526 85 L 656 93 Q 681 95 687 89 Q 692 81 692 62 Q 692 43 691 38 L 688 8 Q 688 5 683 -25 Q 675 -41 669 -42 Q 664 -44 631 -36 L 617 -32 Q 609 -31 605 -33 Q 602 -36 610 -44 L 630 -66 Q 636 -73 642 -84 Q 650 -94 653 -104 Q 657 -114 661 -118 L 670 -121 Q 679 -125 696 -117 Q 713 -109 728 -87 Q 743 -66 745 -40 L 752 36 Q 751 51 756 63 L 765 81 Q 772 92 772 97 Q 772 101 764 111 Q 756 120 740 126 Q 716 140 704 141 Q 692 142 665 136 Q 639 129 610 126 L 530 116 L 475 111 Z" fill="lightgray"></path>
				<path d="M 469 165 L 475 111 L 477 84 L 473 -84 Q 469 -164 480 -183 L 486 -194 Q 488 -196 490 -196 L 494 -194 Q 497 -192 505 -166 L 515 -126 L 523 -31 L 526 85 L 530 116 L 532 137 L 539 158 L 539 164 Q 539 168 530 173 C 508 193 466 195 469 165 Z" fill="lightgray"></path>
</g>
		<text x="40" y="140" font-size="128" fill="#999999">1</text></g>
		<g id="id0:id1:id1" transform="matrix(1.0,0,0,1.0,1024,0.0)">			<g stroke="lightgray" stroke-width="4" transform="scale(4, 4)"> <rect x="0" y="0" width="256" height="256" fill="white" stroke-width="4"/></g>
			<g transform="scale(0.92, -0.92) translate(60, -920)">					<path d="M 344 674 L 377 679 Q 393 680 399 683 Q 405 685 407 685 Q 410 685 418 688 Q 427 690 427 695 L 429 699 Q 430 703 421 708 Q 414 714 397 719 Q 380 724 375 723 Q 373 721 363 719 Q 353 716 349 716 L 297 703 L 209 690 Q 190 687 204 675 Q 211 669 213 668 L 234 664 Q 255 662 259 663 L 295 667 L 344 674 Z" fill="black"></path>
				<path d="M 339 620 L 344 674 L 349 716 L 350 732 Q 356 750 356 753 Q 356 756 351 764 Q 344 772 301 781 Q 283 782 283 770 Q 283 765 285 757 L 289 747 Q 294 736 295 718 L 297 703 L 295 667 L 297 614 C 298 584 336 590 339 620 Z" fill="red"></path>
				<path d="M 484 604 Q 484 622 450 630 L 431 635 Q 425 636 413 634 L 339 620 L 297 614 L 146 592 Q 133 590 133 585 Q 133 579 137 578 L 148 572 Q 152 568 166 565 Q 181 561 203 566 Q 213 570 257 576 L 303 584 L 453 596 Q 481 596 484 604 Z" fill="lightgray"></path>
				<path d="M 439 499 L 437 506 Q 432 511 417 518 Q 402 524 396 524 L 373 517 Q 354 509 339 508 L 292 496 L 208 485 Q 198 484 196 482 Q 195 479 199 471 Q 204 463 219 460 Q 234 456 247 458 L 293 464 L 337 472 L 354 474 Q 424 484 431 491 Q 437 494 439 499 Z" fill="lightgray"></path>
				<path d="M 339 508 L 341 519 L 347 536 Q 348 543 343 548 Q 339 555 311 563 Q 283 570 281 559 Q 277 556 282 546 L 287 537 Q 289 534 290 524 L 292 511 L 292 496 L 293 464 L 295 400 C 296 370 328 379 331 409 L 337 472 L 339 508 Z" fill="lightgray"></path>
				<path d="M 295 400 L 221 385 Q 217 384 196 382 L 183 382 L 166 380 Q 163 382 149 382 L 133 384 Q 119 384 119 376 Q 119 365 138 344 Q 172 316 179 319 L 187 319 Q 189 319 217 333 Q 245 347 276 358 L 449 416 Q 461 420 457 427 Q 453 433 444 432 L 331 409 L 295 400 Z" fill="lightgray"></path>
				<path d="M 765 642 L 889 649 Q 898 650 900 652 Q 903 656 900 664 Q 894 672 867 686 Q 841 700 813 690 L 770 683 L 717 673 L 679 666 L 520 648 Q 511 648 509 644 Q 508 640 515 634 Q 523 627 538 620 Q 553 612 565 615 L 721 638 L 765 642 Z" fill="lightgray"></path>
				<path d="M 721 638 L 719 554 L 715 471 Q 711 454 700 454 Q 697 454 685 457 L 669 460 L 656 464 Q 645 467 643 462 Q 642 458 649 452 L 658 442 Q 676 422 685 411 L 707 380 Q 711 368 723 368 Q 735 364 749 385 Q 767 415 767 460 Q 767 476 764 506 Q 761 535 763 556 L 765 642 L 770 683 L 772 696 Q 772 704 777 716 Q 782 727 781 732 Q 779 745 737 763 L 711 768 Q 705 769 701 764 Q 697 758 702 747 Q 708 736 709 732 Q 711 727 714 722 Q 717 716 717 696 L 717 673 L 721 638 Z" fill="lightgray"></path>
				<path d="M 586 577 L 562 583 Q 555 584 553 579 Q 551 574 554 570 L 565 552 Q 578 525 604 491 Q 621 472 635 486 Q 656 521 638 547 Q 621 568 586 577 Z" fill="lightgray"></path>
				<path d="M 465 355 L 515 394 L 545 410 Q 553 417 554 421 Q 556 425 549 432 Q 547 436 537 442 Q 518 458 499 462 Q 481 465 478 462 Q 475 458 475 450 L 475 435 Q 474 417 457 394 L 419 350 C 399 327 441 337 465 355 Z" fill="lightgray"></path>
				<path d="M 320 343 Q 320 338 322 336 Q 345 323 354 298 L 360 270 L 370 207 Q 378 155 389 152 Q 403 148 411 161 L 413 192 L 406 246 L 402 274 L 396 322 C 394 341 394 341 371 346 L 356 349 Q 350 351 335 352 Q 320 353 320 343 Z" fill="lightgray"></path>
				<path d="M 607 182 L 612 168 Q 619 145 636 161 Q 653 177 661 204 L 692 300 Q 698 318 705 328 Q 713 338 713 341 Q 713 344 706 353 Q 700 361 691 366 L 673 376 Q 655 386 643 386 Q 632 386 619 382 Q 607 377 593 376 L 465 355 L 419 350 L 371 346 C 341 344 366 318 396 322 L 559 344 L 604 346 Q 634 349 638 336 Q 640 331 638 317 L 630 281 L 625 265 L 621 243 Q 618 235 614 216 C 607 187 607 183 607 182 Z" fill="lightgray"></path>
				<path d="M 578 298 L 563 297 L 499 286 L 402 274 C 372 270 376 244 406 246 L 595 261 Q 621 263 625 265 C 650 271 650 271 630 281 L 610 291 L 578 298 Z" fill="lightgray"></path>
				<path d="M 411 161 L 469 165 L 530 173 L 607 182 C 637 185 644 213 614 216 L 595 218 Q 592 219 575 216 L 538 208 L 469 198 L 413 192 C 383 189 381 159 411 161 Z" fill="lightgray"></path>
				<path d="M 334 97 L 314 106 L 289 113 Q 275 117 273 105 Q 273 102 277 92 Q 282 81 283 71 L 289 35 L 289 -18 L 285 -46 Q 284 -54 285 -61 Q 292 -80 302 -90 Q 309 -102 319 -92 Q 331 -82 333 -46 L 335 -28 Q 335 -14 337 -8 L 339 67 C 340 94 340 94 334 97 Z" fill="lightgray"></path>
				<path d="M 475 111 L 334 97 C 304 94 309 63 339 67 L 477 84 L 526 85 L 656 93 Q 681 95 687 89 Q 692 81 692 62 Q 692 43 691 38 L 688 8 Q 688 5 683 -25 Q 675 -41 669 -42 Q 664 -44 631 -36 L 617 -32 Q 609 -31 605 -33 Q 602 -36 610 -44 L 630 -66 Q 636 -73 642 -84 Q 650 -94 653 -104 Q 657 -114 661 -118 L 670 -121 Q 679 -125 696 -117 Q 713 -109 728 -87 Q 743 -66 745 -40 L 752 36 Q 751 51 756 63 L 765 81 Q 772 92 772 97 Q 772 101 764 111 Q 756 120 740 126 Q 716 140 704 141 Q 692 142 665 136 Q 639 129 610 126 L 530 116 L 475 111 Z" fill="lightgray"></path>
				<path d="M 469 165 L 475 111 L 477 84 L 473 -84 Q 469 -164 480 -183 L 486 -194 Q 488 -196 490 -196 L 494 -194 Q 497 -192 505 -166 L 515 -126 L 523 -31 L 526 85 L 530 116 L 532 137 L 539 158 L 539 164 Q 539 168 530 173 C 508 193 466 195 469 165 Z" fill="lightgray"></path>
</g>
		<text x="40" y="140" font-size="128" fill="#999999">2</text></g>
		<g id="id0:id2:id2" transform="matrix(1.0,0,0,1.0,2048,0.0)">			<g stroke="lightgray" stroke-width="4" transform="scale(4, 4)"> <rect x="0" y="0" width="256" height="256" fill="white" stroke-width="4"/></g>
			<g transform="scale(0.92, -0.92) translate(60, -920)">					<path d="M 344 674 L 377 679 Q 393 680 399 683 Q 405 685 407 685 Q 410 685 418 688 Q 427 690 427 695 L 429 699 Q 430 703 421 708 Q 414 714 397 719 Q 380 724 375 723 Q 373 721 363 719 Q 353 716 349 716 L 297 703 L 209 690 Q 190 687 204 675 Q 211 669 213 668 L 234 664 Q 255 662 259 663 L 295 667 L 344 674 Z" fill="black"></path>
				<path d="M 339 620 L 344 674 L 349 716 L 350 732 Q 356 750 356 753 Q 356 756 351 764 Q 344 772 301 781 Q 283 782 283 770 Q 283 765 285 757 L 289 747 Q 294 736 295 718 L 297 703 L 295 667 L 297 614 C 298 584 336 590 339 620 Z" fill="black"></path>
				<path d="M 484 604 Q 484 622 450 630 L 431 635 Q 425 636 413 634 L 339 620 L 297 614 L 146 592 Q 133 590 133 585 Q 133 579 137 578 L 148 572 Q 152 568 166 565 Q 181 561 203 566 Q 213 570 257 576 L 303 584 L 453 596 Q 481 596 484 604 Z" fill="red"></path>
				<path d="M 439 499 L 437 506 Q 432 511 417 518 Q 402 524 396 524 L 373 517 Q 354 509 339 508 L 292 496 L 208 485 Q 198 484 196 482 Q 195 479 199 471 Q 204 463 219 460 Q 234 456 247 458 L 293 464 L 337 472 L 354 474 Q 424 484 431 491 Q 437 494 439 499 Z" fill="lightgray"></path>
				<path d="M 339 508 L 341 519 L 347 536 Q 348 543 343 548 Q 339 555 311 563 Q 283 570 281 559 Q 277 556 282 546 L 287 537 Q 289 534 290 524 L 292 511 L 292 496 L 293 464 L 295 400 C 296 370 328 379 331 409 L 337 472 L 339 508 Z" fill="lightgray"></path>
				<path d="M 295 400 L 221 385 Q 217 384 196 382 L 183 382 L 166 380 Q 163 382 149 382 L 133 384 Q 119 384 119 376 Q 119 365 138 344 Q 172 316 179 319 L 187 319 Q 189 319 217 333 Q 245 347 276 358 L 449 416 Q 461 420 457 427 Q 453 433 444 432 L 331 409 L 295 400 Z" fill="lightgray"></path>
				<path d="M 765 642 L 889 649 Q 898 650 900 652 Q 903 656 900 664 Q 894 672 867 686 Q 841 700 813 690 L 770 683 L 717 673 L 679 666 L 520 648 Q 511 648 509 644 Q 508 640 515 634 Q 523 627 538 620 Q 553 612 565 615 L 721 638 L 765 642 Z" fill="lightgray"></path>
				<path d="M 721 638 L 719 554 L 715 471 Q 711 454 700 454 Q 697 454 685 457 L 669 460 L 656 464 Q 645 467 643 462 Q 642 458 649 452 L 658 442 Q 676 422 685 411 L 707 380 Q 711 368 723 368 Q 735 364 749 385 Q 767 415 767 460 Q 767 476 764 506 Q 761 535 763 556 L 765 642 L 770 683 L 772 696 Q 772 704 777 716 Q 782 727 781 732 Q 779 745 737 763 L 711 768 Q 705 769 701 764 Q 697 758 702 747 Q 708 736 709 732 Q 711 727 714 722 Q 717 716 717 696 L 717 673 L 721 638 Z" fill="lightgray"></path>
				<path d="M 586 577 L 562 583 Q 555 584 553 579 Q 551 574 554 570 L 565 552 Q 578 525 604 491 Q 621 472 635 486 Q 656 521 638 547 Q 621 568 586 577 Z" fill="lightgray"></path>
				<path d="M 465 355 L 515 394 L 545 410 Q 553 417 554 421 Q 556 425 549 432 Q 547 436 537 442 Q 518 458 499 462 Q 481 465 478 462 Q 475 458 475 450 L 475 435 Q 474 417 457 394 L 419 350 C 399 327 441 337 465 355 Z" fill="lightgray"></path>
				<path d="M 320 343 Q 320 338 322 336 Q 345 323 354 298 L 360 270 L 370 207 Q 378 155 389 152 Q 403 148 411 161 L 413 192 L 406 246 L 402 274 L 396 322 C 394 341 394 341 371 346 L 356 349 Q 350 351 335 352 Q 320 353 320 343 Z" fill="lightgray"></path>
				<path d="M 607 182 L 612 168 Q 619 145 636 161 Q 653 177 661 204 L 692 300 Q 698 318 705 328 Q 713 338 713 341 Q 713 344 706 353 Q 700 361 691 366 L 673 376 Q 655 386 643 386 Q 632 386 619 382 Q 607 377 593 376 L 465 355 L 419 350 L 371 346 C 341 344 366 318 396 322 L 559 344 L 604 346 Q 634 349 638 336 Q 640 331 638 317 L 630 281 L 625 265 L 621 243 Q 618 235 614 216 C 607 187 607 183 607 182 Z" fill="lightgray"></path>
				<path d="M 578 298 L 563 297 L 499 286 L 402 274 C 372 270 376 244 406 246 L 595 261 Q 621 263 625 265 C 650 271 650 271 630 281 L 610 291 L 578 298 Z" fill="lightgray"></path>
				<path d="M 411 161 L 469 165 L 530 173 L 607 182 C 637 185 644 213 614 216 L 595 218 Q 592 219 575 216 L 538 208 L 469 198 L 413 192 C 383 189 381 159 411 161 Z" fill="lightgray"></path>
				<path d="M 334 97 L 314 106 L 289 113 Q 275 117 273 105 Q 273 102 277 92 Q 282 81 283 71 L 289 35 L 289 -18 L 285 -46 Q 284 -54 285 -61 Q 292 -80 302 -90 Q 309 -102 319 -92 Q 331 -82 333 -46 L 335 -28 Q 335 -14 337 -8 L 339 67 C 340 94 340 94 334 97 Z" fill="lightgray"></path>
				<path d="M 475 111 L 334 97 C 304 94 309 63 339 67 L 477 84 L 526 85 L 656 93 Q 681 95 687 89 Q 692 81 692 62 Q 692 43 691 38 L 688 8 Q 688 5 683 -25 Q 675 -41 669 -42 Q 664 -44 631 -36 L 617 -32 Q 609 -31 605 -33 Q 602 -36 610 -44 L 630 -66 Q 636 -73 642 -84 Q 650 -94 653 -104 Q 657 -114 661 -118 L 670 -121 Q 679 -125 696 -117 Q 713 -109 728 -87 Q 743 -66 745 -40 L 752 36 Q 751 51 756 63 L 765 81 Q 772 92 772 97 Q 772 101 764 111 Q 756 120 740 126 Q 716 140 704 141 Q 692 142 665 136 Q 639 129 610 126 L 530 116 L 475 111 Z" fill="lightgray"></path>
				<path d="M 469 165 L 475 111 L 477 84 L 473 -84 Q 469 -164 480 -183 L 486 -194 Q 488 -196 490 -196 L 494 -194 Q 497 -192 505 -166 L 515 -126 L 523 -31 L 526 85 L 530 116 L 532 137 L 539 158 L 539 164 Q 539 168 530 173 C 508 193 466 195 469 165 Z" fill="lightgray"></path>
</g>
		<text x="40" y="140" font-size="128" fill="#999999">3</text></g>
		<g id="id0:id3:id3" transform="matrix(1.0,0,0,1.0,3072,0.0)">			<g stroke="lightgray" stroke-width="4" transform="scale(4, 4)"> <rect x="0" y="0" width="256" height="256" fill="white" stroke-width="4"/></g>
			<g transform="scale(0.92, -0.92) translate(60, -920)">					<path d="M 344 674 L 377 679 Q 393 680 399 683 Q 405 685 407 685 Q 410 685 418 688 Q 427 690 427 695 L 429 699 Q 430 703 421 708 Q 414 714 397 719 Q 380 724 375 723 Q 373 721 363 719 Q 353 716 349 716 L 297 703 L 209 690 Q 190 687 204 675 Q 211 669 213 668 L 234 664 Q 255 662 259 663 L 295 667 L 344 674 Z" fill="black"></path>
				<path d="M 339 620 L 344 674 L 349 716 L 350 732 Q 356 750 356 753 Q 356 756 351 764 Q 344 772 301 781 Q 283 782 283 770 Q 283 765 285 757 L 289 747 Q 294 736 295 718 L 297 703 L 295 667 L 297 614 C 298 584 336 590 339 620 Z" fill="black"></path>
				<path d="M 484 604 Q 484 622 450 630 L 431 635 Q 425 636 413 634 L 339 620 L 297 614 L 146 592 Q 133 590 133 585 Q 133 579 137 578 L 148 572 Q 152 568 166 565 Q 181 561 203 566 Q 213 570 257 576 L 303 584 L 453 596 Q 481 596 484 604 Z" fill="black"></path>
				<path d="M 439 499 L 437 506 Q 432 511 417 518 Q 402 524 396 524 L 373 517 Q 354 509 339 508 L 292 496 L 208 485 Q 198 484 196 482 Q 195 479 199 471 Q 204 463 219 460 Q 234 456 247 458 L 293 464 L 337 472 L 354 474 Q 424 484 431 491 Q 437 494 439 499 Z" fill="red"></path>
				<path d="M 339 508 L 341 519 L 347 536 Q 348 543 343 548 Q 339 555 311 563 Q 283 570 281 559 Q 277 556 282 546 L 287 537 Q 289 534 290 524 L 292 511 L 292 496 L 293 464 L 295 400 C 296 370 328 379 331 409 L 337 472 L 339 508 Z" fill="lightgray"></path>
				<path d="M 295 400 L 221 385 Q 217 384 196 382 L 183 382 L 166 380 Q 163 382 149 382 L 133 384 Q 119 384 119 376 Q 119 365 138 344 Q 172 316 179 319 L 187 319 Q 189 319 217 333 Q 245 347 276 358 L 449 416 Q 461 420 457 427 Q 453 433 444 432 L 331 409 L 295 400 Z" fill="lightgray"></path>
				<path d="M 765 642 L 889 649 Q 898 650 900 652 Q 903 656 900 664 Q 894 672 867 686 Q 841 700 813 690 L 770 683 L 717 673 L 679 666 L 520 648 Q 511 648 509 644 Q 508 640 515 634 Q 523 627 538 620 Q 553 612 565 615 L 721 638 L 765 642 Z" fill="lightgray"></path>
				<path d="M 721 638 L 719 554 L 715 471 Q 711 454 700 454 Q 697 454 685 457 L 669 460 L 656 464 Q 645 467 643 462 Q 642 458 649 452 L 658 442 Q 676 422 685 411 L 707 380 Q 711 368 723 368 Q 735 364 749 385 Q 767 415 767 460 Q 767 476 764 506 Q 761 535 763 556 L 765 642 L 770 683 L 772 696 Q 772 704 777 716 Q 782 727 781 732 Q 779 745 737 763 L 711 768 Q 705 769 701 764 Q 697 758 702 747 Q 708 736 709 732 Q 711 727 714 722 Q 717 716 717 696 L 717 673 L 721 638 Z" fill="lightgray"></path>
				<path d="M 586 577 L 562 583 Q 555 584 553 579 Q 551 574 554 570 L 565 552 Q 578 525 604 491 Q 621 472 635 486 Q 656 521 638 547 Q 621 568 586 577 Z" fill="lightgray"></path>
				<path d="M 465 355 L 515 394 L 545 410 Q 553 417 554 421 Q 556 425 549 432 Q 547 436 537 442 Q 518 458 499 462 Q 481 465 478 462 Q 475 458 475 450 L 475 435 Q 474 417 457 394 L 419 350 C 399 327 441 337 465 355 Z" fill="lightgray"></path>
				<path d="M 320 343 Q 320 338 322 336 Q 345 323 354 298 L 360 270 L 370 207 Q 378 155 389 152 Q 403 148 411 161 L 413 192 L 406 246 L 402 274 L 396 322 C 394 341 394 341 371 346 L 356 349 Q 350 351 335 352 Q 320 353 320 343 Z" fill="lightgray"></path>
				<path d="M 607 182 L 612 168 Q 619 145 636 161 Q 653 177 661 204 L 692 300 Q 698 318 705 328 Q 713 338 713 341 Q 713 344 706 353 Q 700 361 691 366 L 673 376 Q 655 386 643 386 Q 632 386 619 382 Q 607 377 593 376 L 465 355 L 419 350 L 371 346 C 341 344 366 318 396 322 L 559 344 L 604 346 Q 634 349 638 336 Q 640 331 638 317 L 630 281 L 625 265 L 621 243 Q 618 235 614 216 C 607 187 607 183 607 182 Z" fill="lightgray"></path>
				<path d="M 578 298 L 563 297 L 499 286 L 402 274 C 372 270 376 244 406 246 L 595 261 Q 621 263 625 265 C 650 271 650 271 630 281 L 610 291 L 578 298 Z" fill="lightgray"></path>
				<path d="M 411 161 L 469 165 L 530 173 L 607 182 C 637 185 644 213 614 216 L 595 218 Q 592 219 575 216 L 538 208 L 469 198 L 413 192 C 383 189 381 159 411 161 Z" fill="lightgray"></path>
				<path d="M 334 97 L 314 106 L 289 113 Q 275 117 273 105 Q 273 102 277 92 Q 282 81 283 71 L 289 35 L 289 -18 L 285 -46 Q 284 -54 285 -61 Q 292 -80 302 -90 Q 309 -102 319 -92 Q 331 -82 333 -46 L 335 -28 Q 335 -14 337 -8 L 339 67 C 340 94 340 94 334 97 Z" fill="lightgray"></path>
				<path d="M 475 111 L 334 97 C 304 94 309 63 339 67 L 477 84 L 526 85 L 656 93 Q 681 95 687 89 Q 692 81 692 62 Q 692 43 691 38 L 688 8 Q 688 5 683 -25 Q 675 -41 669 -42 Q 664 -44 631 -36 L 617 -32 Q 609 -31 605 -33 Q 602 -36 610 -44 L 630 -66 Q 636 -73 642 -84 Q 650 -94 653 -104 Q 657 -114 661 -118 L 670 -121 Q 679 -125 696 -117 Q 713 -109 728 -87 Q 743 -66 745 -40 L 752 36 Q 751 51 756 63 L 765 81 Q 772 92 772 97 Q 772 101 764 111 Q 756 120 740 126 Q 716 140 704 141 Q 692 142 665 136 Q 639 129 610 126 L 530 116 L 475 111 Z" fill="lightgray"></path>
				<path d="M 469 165 L 475 111 L 477 84 L 473 -84 Q 469 -164 480 -183 L 486 -194 Q 488 -196 490 -196 L 494 -194 Q 497 -192 505 -166 L 515 -126 L 523 -31 L 526 85 L 530 116 L 532 137 L 539 158 L 539 164 Q 539 168 530 173 C 508 193 466 195 469 165 Z" fill="lightgray"></path>
</g>
		<text x="40" y="140" font-size="128" fill="#999999">4</text></g>
		<g id="id0:id4:id4" transform="matrix(1.0,0,0,1.0,4096,0.0)">			<g stroke="lightgray" stroke-width="4" transform="scale(4, 4)"> <rect x="0" y="0" width="256" height="256" fill="white" stroke-width="4"/></g>
			<g transform="scale(0.92, -0.92) translate(60, -920)">					<path d="M 344 674 L 377 679 Q 393 680 399 683 Q 405 685 407 685 Q 410 685 418 688 Q 427 690 427 695 L 429 699 Q 430 703 421 708 Q 414 714 397 719 Q 380 724 375 723 Q 373 721 363 719 Q 353 716 349 716 L 297 703 L 209 690 Q 190 687 204 675 Q 211 669 213 668 L 234 664 Q 255 662 259 663 L 295 667 L 344 674 Z" fill="black"></path>
				<path d="M 339 620 L 344 674 L 349 716 L 350 732 Q 356 750 356 753 Q 356 756 351 764 Q 344 772 301 781 Q 283 782 283 770 Q 283 765 285 757 L 289 747 Q 294 736 295 718 L 297 703 L 295 667 L 297 614 C 298 584 336 590 339 620 Z" fill="black"></path>
				<path d="M 484 604 Q 484 622 450 630 L 431 635 Q 425 636 413 634 L 339 620 L 297 614 L 146 592 Q 133 590 133 585 Q 133 579 137 578 L 148 572 Q 152 568 166 565 Q 181 561 203 566 Q 213 570 257 576 L 303 584 L 453 596 Q 481 596 484 604 Z" fill="black"></path>
				<path d="M 439 499 L 437 506 Q 432 511 417 518 Q 402 524 396 524 L 373 517 Q 354 509 339 508 L 292 496 L 208 485 Q 198 484 196 482 Q 195 479 199 471 Q 204 463 219 460 Q 234 456 247 458 L 293 464 L 337 472 L 354 474 Q 424 484 431 491 Q 437 494 439 499 Z" fill="black"></path>
				<path d="M 339 508 L 341 519 L 347 536 Q 348 543 343 548 Q 339 555 311 563 Q 283 570 281 559 Q 277 556 282 546 L 287 537 Q 289 534 290 524 L 292 511 L 292 496 L 293 464 L 295 400 C 296 370 328 379 331 409 L 337 472 L 339 508 Z" fill="red"></path>
				<path d="M 295 400 L 221 385 Q 217 384 196 382 L 183 382 L 166 380 Q 163 382 149 382 L 133 384 Q 119 384 119 376 Q 119 365 138 344 Q 172 316 179 319 L 187 319 Q 189 319 217 333 Q 245 347 276 358 L 449 416 Q 461 420 457 427 Q 453 433 444 432 L 331 409 L 295 400 Z" fill="lightgray"></path>
				<path d="M 765 642 L 889 649 Q 898 650 900 652 Q 903 656 900 664 Q 894 672 867 686 Q 841 700 813 690 L 770 683 L 717 673 L 679 666 L 520 648 Q 511 648 509 644 Q 508 640 515 634 Q 523 627 538 620 Q 553 612 565 615 L 721 638 L 765 642 Z" fill="lightgray"></path>
				<path d="M 721 638 L 719 554 L 715 471 Q 711 454 700 454 Q 697 454 685 457 L 669 460 L 656 464 Q 645 467 643 462 Q 642 458 649 452 L 658 442 Q 676 422 685 411 L 707 380 Q 711 368 723 368 Q 735 364 749 385 Q 767 415 767 460 Q 767 476 764 506 Q 761 535 763 556 L 765 642 L 770 683 L 772 696 Q 772 704 777 716 Q 782 727 781 732 Q 779 745 737 763 L 711 768 Q 705 769 701 764 Q 697 758 702 747 Q 708 736 709 732 Q 711 727 714 722 Q 717 716 717 696 L 717 673 L 721 638 Z" fill="lightgray"></path>
				<path d="M 586 577 L 562 583 Q 555 584 553 579 Q 551 574 554 570 L 565 552 Q 578 525 604 491 Q 621 472 635 486 Q 656 521 638 547 Q 621 568 586 577 Z" fill="lightgray"></path>
				<path d="M 465 355 L 515 394 L 545 410 Q 553 417 554 421 Q 556 425 549 432 Q 547 436 537 442 Q 518 458 499 462 Q 481 465 478 462 Q 475 458 475 450 L 475 435 Q 474 417 457 394 L 419 350 C 399 327 441 337 465 355 Z" fill="lightgray"></path>
				<path d="M 320 343 Q 320 338 322 336 Q 345 323 354 298 L 360 270 L 370 207 Q 378 155 389 152 Q 403 148 411 161 L 413 192 L 406 246 L 402 274 L 396 322 C 394 341 394 341 371 346 L 356 349 Q 350 351 335 352 Q 320 353 320 343 Z" fill="lightgray"></path>
				<path d="M 607 182 L 612 168 Q 619 145 636 161 Q 653 177 661 204 L 692 300 Q 698 318 705 328 Q 713 338 713 341 Q 713 344 706 353 Q 700 361 691 366 L 673 376 Q 655 386 643 386 Q 632 386 619 382 Q 607 377 593 376 L 465 355 L 419 350 L 371 346 C 341 344 366 318 396 322 L 559 344 L 604 346 Q 634 349 638 336 Q 640 331 638 317 L 630 281 L 625 265 L 621 243 Q 618 235 614 216 C 607 187 607 183 607 182 Z" fill="lightgray"></path>
				<path d="M 578 298 L 563 297 L 499 286 L 402 274 C 372 270 376 244 406 246 L 595 261 Q 621 263 625 265 C 650 271 650 271 630 281 L 610 291 L 578 298 Z" fill="lightgray"></path>
				<path d="M 411 161 L 469 165 L 530 173 L 607 182 C 637 185 644 213 614 216 L 595 218 Q 592 219 575 216 L 538 208 L 469 198 L 413 192 C 383 189 381 159 411 161 Z" fill="lightgray"></path>
				<path d="M 334 97 L 314 106 L 289 113 Q 275 117 273 105 Q 273 102 277 92 Q 282 81 283 71 L 289 35 L 289 -18 L 285 -46 Q 284 -54 285 -61 Q 292 -80 302 -90 Q 309 -102 319 -92 Q 331 -82 333 -46 L 335 -28 Q 335 -14 337 -8 L 339 67 C 340 94 340 94 334 97 Z" fill="lightgray"></path>
				<path d="M 475 111 L 334 97 C 304 94 309 63 339 67 L 477 84 L 526 85 L 656 93 Q 681 95 687 89 Q 692 81 692 62 Q 692 43 691 38 L 688 8 Q 688 5 683 -25 Q 675 -41 669 -42 Q 664 -44 631 -36 L 617 -32 Q 609 -31 605 -33 Q 602 -36 610 -44 L 630 -66 Q 636 -73 642 -84 Q 650 -94 653 -104 Q 657 -114 661 -118 L 670 -121 Q 679 -125 696 -117 Q 713 -109 728 -87 Q 743 -66 745 -40 L 752 36 Q 751 51 756 63 L 765 81 Q 772 92 772 97 Q 772 101 764 111 Q 756 120 740 126 Q 716 140 704 141 Q 692 142 665 136 Q 639 129 610 126 L 530 116 L 475 111 Z" fill="lightgray"></path>
				<path d="M 469 165 L 475 111 L 477 84 L 473 -84 Q 469 -164 480 -183 L 486 -194 Q 488 -196 490 -196 L 494 -194 Q 497 -192 505 -166 L 515 -126 L 523 -31 L 526 85 L 530 116 L 532 137 L 539 158 L 539 164 Q 539 168 530 173 C 508 193 466 195 469 165 Z" fill="lightgray"></path>
</g>
		<text x="40" y="140" font-size="128" fill="#999999">5</text></g>
</g>
	<g id="id1:id1" transform="translate(0.0,1024)">
		<g id="id1:id0:id0" transform="matrix(1.0,0,0,1.0,0,0.0)">			<g stroke="lightgray" stroke-width="4" transform="scale(4, 4)"> <rect x="0" y="0" width="256" height="256" fill="white" stroke-width="4"/></g>
			<g transform="scale(0.92, -0.92) translate(60, -920)">					<path d="M 344 674 L 377 679 Q 393 680 399 683 Q 405 685 407 685 Q 410 685 418 688 Q 427 690 427 695 L 429 699 Q 430 703 421 708 Q 414 714 397 719 Q 380 724 375 723 Q 373 721 363 719 Q 353 716 349 716 L 297 703 L 209 690 Q 190 687 204 675 Q 211 669 213 668 L 234 664 Q 255 662 259 663 L 295 667 L 344 674 Z" fill="black"></path>
				<path d="M 339 620 L 344 674 L 349 716 L 350 732 Q 356 750 356 753 Q 356 756 351 764 Q 344 772 301 781 Q 283 782 283 770 Q 283 765 285 757 L 289 747 Q 294 736 295 718 L 297 703 L 295 667 L 297 614 C 298 584 336 590 339 620 Z" fill="black"></path>
				<path d="M 484 604 Q 484 622 450 630 L 431 635 Q 425 636 413 634 L 339 620 L 297 614 L 146 592 Q 133 590 133 585 Q 133 579 137 578 L 148 572 Q 152 568 166 565 Q 181 561 203 566 Q 213 570 257 576 L 303 584 L 453 596 Q 481 596 484 604 Z" fill="black"></path>
				<path d="M 439 499 L 437 506 Q 432 511 417 518 Q 402 524 396 524 L 373 517 Q 354 509 339 508 L 292 496 L 208 485 Q 198 484 196 482 Q 195 479 199 471 Q 204 463 219 460 Q 234 456 247 458 L 293 464 L 337 472 L 354 474 Q 424 484 431 491 Q 437 494 439 499 Z" fill="black"></path>
				<path d="M 339 508 L 341 519 L 347 536 Q 348 543 343 548 Q 339 555 311 563 Q 283 570 281 559 Q 277 556 282 546 L 287 537 Q 289 534 290 524 L 292 511 L 292 496 L 293 464 L 295 400 C 296 370 328 379 331 409 L 337 472 L 339 508 Z" fill="black"></path>
				<path d="M 295 400 L 221 385 Q 217 384 196 382 L 183 382 L 166 380 Q 163 382 149 382 L 133 384 Q 119 384 119 376 Q 119 365 138 344 Q 172 316 179 319 L 187 319 Q 189 319 217 333 Q 245 347 276 358 L 449 416 Q 461 420 457 427 Q 453 433 444 432 L 331 409 L 295 400 Z" fill="red"></path>
				<path d="M 765 642 L 889 649 Q 898 650 900 652 Q 903 656 900 664 Q 894 672 867 686 Q 841 700 813 690 L 770 683 L 717 673 L 679 666 L 520 648 Q 511 648 509 644 Q 508 640 515 634 Q 523 627 538 620 Q 553 612 565 615 L 721 638 L 765 642 Z" fill="lightgray"></path>
				<path d="M 721 638 L 719 554 L 715 471 Q 711 454 700 454 Q 697 454 685 457 L 669 460 L 656 464 Q 645 467 643 462 Q 642 458 649 452 L 658 442 Q 676 422 685 411 L 707 380 Q 711 368 723 368 Q 735 364 749 385 Q 767 415 767 460 Q 767 476 764 506 Q 761 535 763 556 L 765 642 L 770 683 L 772 696 Q 772 704 777 716 Q 782 727 781 732 Q 779 745 737 763 L 711 768 Q 705 769 701 764 Q 697 758 702 747 Q 708 736 709 732 Q 711 727 714 722 Q 717 716 717 696 L 717 673 L 721 638 Z" fill="lightgray"></path>
				<path d="M 586 577 L 562 583 Q 555 584 553 579 Q 551 574 554 570 L 565 552 Q 578 525 604 491 Q 621 472 635 486 Q 656 521 638 547 Q 621 568 586 577 Z" fill="lightgray"></path>
				<path d="M 465 355 L 515 394 L 545 410 Q 553 417 554 421 Q 556 425 549 432 Q 547 436 537 442 Q 518 458 499 462 Q 481 465 478 462 Q 475 458 475 450 L 475 435 Q 474 417 457 394 L 419 350 C 399 327 441 337 465 355 Z" fill="lightgray"></path>
				<path d="M 320 343 Q 320 338 322 336 Q 345 323 354 298 L 360 270 L 370 207 Q 378 155 389 152 Q 403 148 411 161 L 413 192 L 406 246 L 402 274 L 396 322 C 394 341 394 341 371 346 L 356 349 Q 350 351 335 352 Q 320 353 320 343 Z" fill="lightgray"></path>
				<path d="M 607 182 L 612 168 Q 619 145 636 161 Q 653 177 661 204 L 692 300 Q 698 318 705 328 Q 713 338 713 341 Q 713 344 706 353 Q 700 361 691 366 L 673 376 Q 655 386 643 386 Q 632 386 619 382 Q 607 377 593 376 L 465 355 L 419 350 L 371 346 C 341 344 366 318 396 322 L 559 344 L 604 346 Q 634 349 638 336 Q 640 331 638 317 L 630 281 L 625 265 L 621 243 Q 618 235 614 216 C 607 187 607 183 607 182 Z" fill="lightgray"></path>
				<path d="M 578 298 L 563 297 L 499 286 L 402 274 C 372 270 376 244 406 246 L 595 261 Q 621 263 625 265 C 650 271 650 271 630 281 L 610 291 L 578 298 Z" fill="lightgray"></path>
				<path d="M 411 161 L 469 165 L 530 173 L 607 182 C 637 185 644 213 614 216 L 595 218 Q 592 219 575 216 L 538 208 L 469 198 L 413 192 C 383 189 381 159 411 161 Z" fill="lightgray"></path>
				<path d="M 334 97 L 314 106 L 289 113 Q 275 117 273 105 Q 273 102 277 92 Q 282 81 283 71 L 289 35 L 289 -18 L 285 -46 Q 284 -54 285 -61 Q 292 -80 302 -90 Q 309 -102 319 -92 Q 331 -82 333 -46 L 335 -28 Q 335 -14 337 -8 L 339 67 C 340 94 340 94 334 97 Z" fill="lightgray"></path>
				<path d="M 475 111 L 334 97 C 304 94 309 63 339 67 L 477 84 L 526 85 L 656 93 Q 681 95 687 89 Q 692 81 692 62 Q 692 43 691 38 L 688 8 Q 688 5 683 -25 Q 675 -41 669 -42 Q 664 -44 631 -36 L 617 -32 Q 609 -31 605 -33 Q 602 -36 610 -44 L 630 -66 Q 636 -73 642 -84 Q 650 -94 653 -104 Q 657 -114 661 -118 L 670 -121 Q 679 -125 696 -117 Q 713 -109 728 -87 Q 743 -66 745 -40 L 752 36 Q 751 51 756 63 L 765 81 Q 772 92 772 97 Q 772 101 764 111 Q 756 120 740 126 Q 716 140 704 141 Q 692 142 665 136 Q 639 129 610 126 L 530 116 L 475 111 Z" fill="lightgray"></path>
				<path d="M 469 165 L 475 111 L 477 84 L 473 -84 Q 469 -164 480 -183 L 486 -194 Q 488 -196 490 -196 L 494 -194 Q 497 -192 505 -166 L 515 -126 L 523 -31 L 526 85 L 530 116 L 532 137 L 539 158 L 539 164 Q 539 168 530 173 C 508 193 466 195 469 165 Z" fill="lightgray"></path>
</g>
		<text x="40" y="140" font-size="128" fill="#999999">6</text></g>
		<g id="id1:id1:id1" transform="matrix(1.0,0,0,1.0,1024,0.0)">			<g stroke="lightgray" stroke-width="4" transform="scale(4, 4)"> <rect x="0" y="0" width="256" height="256" fill="white" stroke-width="4"/></g>
			<g transform="scale(0.92, -0.92) translate(60, -920)">					<path d="M 344 674 L 377 679 Q 393 680 399 683 Q 405 685 407 685 Q 410 685 418 688 Q 427 690 427 695 L 429 699 Q 430 703 421 708 Q 414 714 397 719 Q 380 724 375 723 Q 373 721 363 719 Q 353 716 349 716 L 297 703 L 209 690 Q 190 687 204 675 Q 211 669 213 668 L 234 664 Q 255 662 259 663 L 295 667 L 344 674 Z" fill="black"></path>
				<path d="M 339 620 L 344 674 L 349 716 L 350 732 Q 356 750 356 753 Q 356 756 351 764 Q 344 772 301 781 Q 283 782 283 770 Q 283 765 285 757 L 289 747 Q 294 736 295 718 L 297 703 L 295 667 L 297 614 C 298 584 336 590 339 620 Z" fill="black"></path>
				<path d="M 484 604 Q 484 622 450 630 L 431 635 Q 425 636 413 634 L 339 620 L 297 614 L 146 592 Q 133 590 133 585 Q 133 579 137 578 L 148 572 Q 152 568 166 565 Q 181 561 203 566 Q 213 570 257 576 L 303 584 L 453 596 Q 481 596 484 604 Z" fill="black"></path>
				<path d="M 439 499 L 437 506 Q 432 511 417 518 Q 402 524 396 524 L 373 517 Q 354 509 339 508 L 292 496 L 208 485 Q 198 484 196 482 Q 195 479 199 471 Q 204 463 219 460 Q 234 456 247 458 L 293 464 L 337 472 L 354 474 Q 424 484 431 491 Q 437 494 439 499 Z" fill="black"></path>
				<path d="M 339 508 L 341 519 L 347 536 Q 348 543 343 548 Q 339 555 311 563 Q 283 570 281 559 Q 277 556 282 546 L 287 537 Q 289 534 290 524 L 292 511 L 292 496 L 293 464 L 295 400 C 296 370 328 379 331 409 L 337 472 L 339 508 Z" fill="black"></path>
				<path d="M 295 400 L 221 385 Q 217 384 196 382 L 183 382 L 166 380 Q 163 382 149 382 L 133 384 Q 119 384 119 376 Q 119 365 138 344 Q 172 316 179 319 L 187 319 Q 189 319 217 333 Q 245 347 276 358 L 449 416 Q 461 420 457 427 Q 453 433 444 432 L 331 409 L 295 400 Z" fill="black"></path>
				<path d="M 765 642 L 889 649 Q 898 650 900 652 Q 903 656 900 664 Q 894 672 867 686 Q 841 700 813 690 L 770 683 L 717 673 L 679 666 L 520 648 Q 511 648 509 644 Q 508 640 515 634 Q 523 627 538 620 Q 553 612 565 615 L 721 638 L 765 642 Z" fill="red"></path>
				<path d="M 721 638 L 719 554 L 715 471 Q 711 454 700 454 Q 697 454 685 457 L 669 460 L 656 464 Q 645 467 643 462 Q 642 458 649 452 L 658 442 Q 676 422 685 411 L 707 380 Q 711 368 723 368 Q 735 364 749 385 Q 767 415 767 460 Q 767 476 764 506 Q 761 535 763 556 L 765 642 L 770 683 L 772 696 Q 772 704 777 716 Q 782 727 781 732 Q 779 745 737 763 L 711 768 Q 705 769 701 764 Q 697 758 702 747 Q 708 736 709 732 Q 711 727 714 722 Q 717 716 717 696 L 717 673 L 721 638 Z" fill="lightgray"></path>
				<path d="M 586 577 L 562 583 Q 555 584 553 579 Q 551 574 554 570 L 565 552 Q 578 525 604 491 Q 621 472 635 486 Q 656 521 638 547 Q 621 568 586 577 Z" fill="lightgray"></path>
				<path d="M 465 355 L 515 394 L 545 410 Q 553 417 554 421 Q 556 425 549 432 Q 547 436 537 442 Q 518 458 499 462 Q 481 465 478 462 Q 475 458 475 450 L 475 435 Q 474 417 457 394 L 419 350 C 399 327 441 337 465 355 Z" fill="lightgray"></path>
				<path d="M 320 343 Q 320 338 322 336 Q 345 323 354 298 L 360 270 L 370 207 Q 378 155 389 152 Q 403 148 411 161 L 413 192 L 406 246 L 402 274 L 396 322 C 394 341 394 341 371 346 L 356 349 Q 350 351 335 352 Q 320 353 320 343 Z" fill="lightgray"></path>
				<path d="M 607 182 L 612 168 Q 619 145 636 161 Q 653 177 661 204 L 692 300 Q 698 318 705 328 Q 713 338 713 341 Q 713 344 706 353 Q 700 361 691 366 L 673 376 Q 655 386 643 386 Q 632 386 619 382 Q 607 377 593 376 L 465 355 L 419 350 L 371 346 C 341 344 366 318 396 322 L 559 344 L 604 346 Q 634 349 638 336 Q 640 331 638 317 L 630 281 L 625 265 L 621 243 Q 618 235 614 216 C 607 187 607 183 607 182 Z" fill="lightgray"></path>
				<path d="M 578 298 L 563 297 L 499 286 L 402 274 C 372 270 376 244 406 246 L 595 261 Q 621 263 625 265 C 650 271 650 271 630 281 L 610 291 L 578 298 Z" fill="lightgray"></path>
				<path d="M 411 161 L 469 165 L 530 173 L 607 182 C 637 185 644 213 614 216 L 595 218 Q 592 219 575 216 L 538 208 L 469 198 L 413 192 C 383 189 381 159 411 161 Z" fill="lightgray"></path>
				<path d="M 334 97 L 314 106 L 289 113 Q 275 117 273 105 Q 273 102 277 92 Q 282 81 283 71 L 289 35 L 289 -18 L 285 -46 Q 284 -54 285 -61 Q 292 -80 302 -90 Q 309 -102 319 -92 Q 331 -82 333 -46 L 335 -28 Q 335 -14 337 -8 L 339 67 C 340 94 340 94 334 97 Z" fill="lightgray"></path>
				<path d="M 475 111 L 334 97 C 304 94 309 63 339 67 L 477 84 L 526 85 L 656 93 Q 681 95 687 89 Q 692 81 692 62 Q 692 43 691 38 L 688 8 Q 688 5 683 -25 Q 675 -41 669 -42 Q 664 -44 631 -36 L 617 -32 Q 609 -31 605 -33 Q 602 -36 610 -44 L 630 -66 Q 636 -73 642 -84 Q 650 -94 653 -104 Q 657 -114 661 -118 L 670 -121 Q 679 -125 696 -117 Q 713 -109 728 -87 Q 743 -66 745 -40 L 752 36 Q 751 51 756 63 L 765 81 Q 772 92 772 97 Q 772 101 764 111 Q 756 120 740 126 Q 716 140 704 141 Q 692 142 665 136 Q 639 129 610 126 L 530 116 L 475 111 Z" fill="lightgray"></path>
				<path d="M 469 165 L 475 111 L 477 84 L 473 -84 Q 469 -164 480 -183 L 486 -194 Q 488 -196 490 -196 L 494 -194 Q 497 -192 505 -166 L 515 -126 L 523 -31 L 526 85 L 530 116 L 532 137 L 539 158 L 539 164 Q 539 168 530 173 C 508 193 466 195 469 165 Z" fill="lightgray"></path>
</g>
		<text x="40" y="140" font-size="128" fill="#999999">7</text></g>
		<g id="id1:id2:id2" transform="matrix(1.0,0,0,1.0,2048,0.0)">			<g stroke="lightgray" stroke-width="4" transform="scale(4, 4)"> <rect x="0" y="0" width="256" height="256" fill="white" stroke-width="4"/></g>
			<g transform="scale(0.92, -0.92) translate(60, -920)">					<path d="M 344 674 L 377 679 Q 393 680 399 683 Q 405 685 407 685 Q 410 685 418 688 Q 427 690 427 695 L 429 699 Q 430 703 421 708 Q 414 714 397 719 Q 380 724 375 723 Q 373 721 363 719 Q 353 716 349 716 L 297 703 L 209 690 Q 190 687 204 675 Q 211 669 213 668 L 234 664 Q 255 662 259 663 L 295 667 L 344 674 Z" fill="black"></path>
				<path d="M 339 620 L 344 674 L 349 716 L 350 732 Q 356 750 356 753 Q 356 756 351 764 Q 344 772 301 781 Q 283 782 283 770 Q 283 765 285 757 L 289 747 Q 294 736 295 718 L 297 703 L 295 667 L 297 614 C 298 584 336 590 339 620 Z" fill="black"></path>
				<path d="M 484 604 Q 484 622 450 630 L 431 635 Q 425 636 413 634 L 339 620 L 297 614 L 146 592 Q 133 590 133 585 Q 133 579 137 578 L 148 572 Q 152 568 166 565 Q 181 561 203 566 Q 213 570 257 576 L 303 584 L 453 596 Q 481 596 484 604 Z" fill="black"></path>
				<path d="M 439 499 L 437 506 Q 432 511 417 518 Q 402 524 396 524 L 373 517 Q 354 509 339 508 L 292 496 L 208 485 Q 198 484 196 482 Q 195 479 199 471 Q 204 463 219 460 Q 234 456 247 458 L 293 464 L 337 472 L 354 474 Q 424 484 431 491 Q 437 494 439 499 Z" fill="black"></path>
				<path d="M 339 508 L 341 519 L 347 536 Q 348 543 343 548 Q 339 555 311 563 Q 283 570 281 559 Q 277 556 282 546 L 287 537 Q 289 534 290 524 L 292 511 L 292 496 L 293 464 L 295 400 C 296 370 328 379 331 409 L 337 472 L 339 508 Z" fill="black"></path>
				<path d="M 295 400 L 221 385 Q 217 384 196 382 L 183 382 L 166 380 Q 163 382 149 382 L 133 384 Q 119 384 119 376 Q 119 365 138 344 Q 172 316 179 319 L 187 319 Q 189 319 217 333 Q 245 347 276 358 L 449 416 Q 461 420 457 427 Q 453 433 444 432 L 331 409 L 295 400 Z" fill="black"></path>
				<path d="M 765 642 L 889 649 Q 898 650 900 652 Q 903 656 900 664 Q 894 672 867 686 Q 841 700 813 690 L 770 683 L 717 673 L 679 666 L 520 648 Q 511 648 509 644 Q 508 640 515 634 Q 523 627 538 620 Q 553 612 565 615 L 721 638 L 765 642 Z" fill="black"></path>
				<path d="M 721 638 L 719 554 L 715 471 Q 711 454 700 454 Q 697 454 685 457 L 669 460 L 656 464 Q 645 467 643 462 Q 642 458 649 452 L 658 442 Q 676 422 685 411 L 707 380 Q 711 368 723 368 Q 735 364 749 385 Q 767 415 767 460 Q 767 476 764 506 Q 761 535 763 556 L 765 642 L 770 683 L 772 696 Q 772 704 777 716 Q 782 727 781 732 Q 779 745 737 763 L 711 768 Q 705 769 701 764 Q 697 758 702 747 Q 708 736 709 732 Q 711 727 714 722 Q 717 716 717 696 L 717 673 L 721 638 Z" fill="red"></path>
				<path d="M 586 577 L 562 583 Q 555 584 553 579 Q 551 574 554 570 L 565 552 Q 578 525 604 491 Q 621 472 635 486 Q 656 521 638 547 Q 621 568 586 577 Z" fill="lightgray"></path>
				<path d="M 465 355 L 515 394 L 545 410 Q 553 417 554 421 Q 556 425 549 432 Q 547 436 537 442 Q 518 458 499 462 Q 481 465 478 462 Q 475 458 475 450 L 475 435 Q 474 417 457 394 L 419 350 C 399 327 441 337 465 355 Z" fill="lightgray"></path>
				<path d="M 320 343 Q 320 338 322 336 Q 345 323 354 298 L 360 270 L 370 207 Q 378 155 389 152 Q 403 148 411 161 L 413 192 L 406 246 L 402 274 L 396 322 C 394 341 394 341 371 346 L 356 349 Q 350 351 335 352 Q 320 353 320 343 Z" fill="lightgray"></path>
				<path d="M 607 182 L 612 168 Q 619 145 636 161 Q 653 177 661 204 L 692 300 Q 698 318 705 328 Q 713 338 713 341 Q 713 344 706 353 Q 700 361 691 366 L 673 376 Q 655 386 643 386 Q 632 386 619 382 Q 607 377 593 376 L 465 355 L 419 350 L 371 346 C 341 344 366 318 396 322 L 559 344 L 604 346 Q 634 349 638 336 Q 640 331 638 317 L 630 281 L 625 265 L 621 243 Q 618 235 614 216 C 607 187 607 183 607 182 Z" fill="lightgray"></path>
				<path d="M 578 298 L 563 297 L 499 286 L 402 274 C 372 270 376 244 406 246 L 595 261 Q 621 263 625 265 C 650 271 650 271 630 281 L 610 291 L 578 298 Z" fill="lightgray"></path>
				<path d="M 411 161 L 469 165 L 530 173 L 607 182 C 637 185 644 213 614 216 L 595 218 Q 592 219 575 216 L 538 208 L 469 198 L 413 192 C 383 189 381 159 411 161 Z" fill="lightgray"></path>
				<path d="M 334 97 L 314 106 L 289 113 Q 275 117 273 105 Q 273 102 277 92 Q 282 81 283 71 L 289 35 L 289 -18 L 285 -46 Q 284 -54 285 -61 Q 292 -80 302 -90 Q 309 -102 319 -92 Q 331 -82 333 -46 L 335 -28 Q 335 -14 337 -8 L 339 67 C 340 94 340 94 334 97 Z" fill="lightgray"></path>
				<path d="M 475 111 L 334 97 C 304 94 309 63 339 67 L 477 84 L 526 85 L 656 93 Q 681 95 687 89 Q 692 81 692 62 Q 692 43 691 38 L 688 8 Q 688 5 683 -25 Q 675 -41 669 -42 Q 664 -44 631 -36 L 617 -32 Q 609 -31 605 -33 Q 602 -36 610 -44 L 630 -66 Q 636 -73 642 -84 Q 650 -94 653 -104 Q 657 -114 661 -118 L 670 -121 Q 679 -125 696 -117 Q 713 -109 728 -87 Q 743 -66 745 -40 L 752 36 Q 751 51 756 63 L 765 81 Q 772 92 772 97 Q 772 101 764 111 Q 756 120 740 126 Q 716 140 704 141 Q 692 142 665 136 Q 639 129 610 126 L 530 116 L 475 111 Z" fill="lightgray"></path>
				<path d="M 469 165 L 475 111 L 477 84 L 473 -84 Q 469 -164 480 -183 L 486 -194 Q 488 -196 490 -196 L 494 -194 Q 497 -192 505 -166 L 515 -126 L 523 -31 L 526 85 L 530 116 L 532 137 L 539 158 L 539 164 Q 539 168 530 173 C 508 193 466 195 469 165 Z" fill="lightgray"></path>
</g>
		<text x="40" y="140" font-size="128" fill="#999999">8</text></g>
		<g id="id1:id3:id3" transform="matrix(1.0,0,0,1.0,3072,0.0)">			<g stroke="lightgray" stroke-width="4" transform="scale(4, 4)"> <rect x="0" y="0" width="256" height="256" fill="white" stroke-width="4"/></g>
			<g transform="scale(0.92, -0.92) translate(60, -920)">					<path d="M 344 674 L 377 679 Q 393 680 399 683 Q 405 685 407 685 Q 410 685 418 688 Q 427 690 427 695 L 429 699 Q 430 703 421 708 Q 414 714 397 719 Q 380 724 375 723 Q 373 721 363 719 Q 353 716 349 716 L 297 703 L 209 690 Q 190 687 204 675 Q 211 669 213 668 L 234 664 Q 255 662 259 663 L 295 667 L 344 674 Z" fill="black"></path>
				<path d="M 339 620 L 344 674 L 349 716 L 350 732 Q 356 750 356 753 Q 356 756 351 764 Q 344 772 301 781 Q 283 782 283 770 Q 283 765 285 757 L 289 747 Q 294 736 295 718 L 297 703 L 295 667 L 297 614 C 298 584 336 590 339 620 Z" fill="black"></path>
				<path d="M 484 604 Q 484 622 450 630 L 431 635 Q 425 636 413 634 L 339 620 L 297 614 L 146 592 Q 133 590 133 585 Q 133 579 137 578 L 148 572 Q 152 568 166 565 Q 181 561 203 566 Q 213 570 257 576 L 303 584 L 453 596 Q 481 596 484 604 Z" fill="black"></path>
				<path d="M 439 499 L 437 506 Q 432 511 417 518 Q 402 524 396 524 L 373 517 Q 354 509 339 508 L 292 496 L 208 485 Q 198 484 196 482 Q 195 479 199 471 Q 204 463 219 460 Q 234 456 247 458 L 293 464 L 337 472 L 354 474 Q 424 484 431 491 Q 437 494 439 499 Z" fill="black"></path>
				<path d="M 339 508 L 341 519 L 347 536 Q 348 543 343 548 Q 339 555 311 563 Q 283 570 281 559 Q 277 556 282 546 L 287 537 Q 289 534 290 524 L 292 511 L 292 496 L 293 464 L 295 400 C 296 370 328 379 331 409 L 337 472 L 339 508 Z" fill="black"></path>
				<path d="M 295 400 L 221 385 Q 217 384 196 382 L 183 382 L 166 380 Q 163 382 149 382 L 133 384 Q 119 384 119 376 Q 119 365 138 344 Q 172 316 179 319 L 187 319 Q 189 319 217 333 Q 245 347 276 358 L 449 416 Q 461 420 457 427 Q 453 433 444 432 L 331 409 L 295 400 Z" fill="black"></path>
				<path d="M 765 642 L 889 649 Q 898 650 900 652 Q 903 656 900 664 Q 894 672 867 686 Q 841 700 813 690 L 770 683 L 717 673 L 679 666 L 520 648 Q 511 648 509 644 Q 508 640 515 634 Q 523 627 538 620 Q 553 612 565 615 L 721 638 L 765 642 Z" fill="black"></path>
				<path d="M 721 638 L 719 554 L 715 471 Q 711 454 700 454 Q 697 454 685 457 L 669 460 L 656 464 Q 645 467 643 462 Q 642 458 649 452 L 658 442 Q 676 422 685 411 L 707 380 Q 711 368 723 368 Q 735 364 749 385 Q 767 415 767 460 Q 767 476 764 506 Q 761 535 763 556 L 765 642 L 770 683 L 772 696 Q 772 704 777 716 Q 782 727 781 732 Q 779 745 737 763 L 711 768 Q 705 769 701 764 Q 697 758 702 747 Q 708 736 709 732 Q 711 727 714 722 Q 717 716 717 696 L 717 673 L 721 638 Z" fill="black"></path>
				<path d="M 586 577 L 562 583 Q 555 584 553 579 Q 551 574 554 570 L 565 552 Q 578 525 604 491 Q 621 472 635 486 Q 656 521 638 547 Q 621 568 586 577 Z" fill="red"></path>
				<path d="M 465 355 L 515 394 L 545 410 Q 553 417 554 421 Q 556 425 549 432 Q 547 436 537 442 Q 518 458 499 462 Q 481 465 478 462 Q 475 458 475 450 L 475 435 Q 474 417 457 394 L 419 350 C 399 327 441 337 465 355 Z" fill="lightgray"></path>
				<path d="M 320 343 Q 320 338 322 336 Q 345 323 354 298 L 360 270 L 370 207 Q 378 155 389 152 Q 403 148 411 161 L 413 192 L 406 246 L 402 274 L 396 322 C 394 341 394 341 371 346 L 356 349 Q 350 351 335 352 Q 320 353 320 343 Z" fill="lightgray"></path>
				<path d="M 607 182 L 612 168 Q 619 145 636 161 Q 653 177 661 204 L 692 300 Q 698 318 705 328 Q 713 338 713 341 Q 713 344 706 353 Q 700 361 691 366 L 673 376 Q 655 386 643 386 Q 632 386 619 382 Q 607 377 593 376 L 465 355 L 419 350 L 371 346 C 341 344 366 318 396 322 L 559 344 L 604 346 Q 634 349 638 336 Q 640 331 638 317 L 630 281 L 625 265 L 621 243 Q 618 235 614 216 C 607 187 607 183 607 182 Z" fill="lightgray"></path>
				<path d="M 578 298 L 563 297 L 499 286 L 402 274 C 372 270 376 244 406 246 L 595 261 Q 621 263 625 265 C 650 271 650 271 630 281 L 610 291 L 578 298 Z" fill="lightgray"></path>
				<path d="M 411 161 L 469 165 L 530 173 L 607 182 C 637 185 644 213 614 216 L 595 218 Q 592 219 575 216 L 538 208 L 469 198 L 413 192 C 383 189 381 159 411 161 Z" fill="lightgray"></path>
				<path d="M 334 97 L 314 106 L 289 113 Q 275 117 273 105 Q 273 102 277 92 Q 282 81 283 71 L 289 35 L 289 -18 L 285 -46 Q 284 -54 285 -61 Q 292 -80 302 -90 Q 309 -102 319 -92 Q 331 -82 333 -46 L 335 -28 Q 335 -14 337 -8 L 339 67 C 340 94 340 94 334 97 Z" fill="lightgray"></path>
				<path d="M 475 111 L 334 97 C 304 94 309 63 339 67 L 477 84 L 526 85 L 656 93 Q 681 95 687 89 Q 692 81 692 62 Q 692 43 691 38 L 688 8 Q 688 5 683 -25 Q 675 -41 669 -42 Q 664 -44 631 -36 L 617 -32 Q 609 -31 605 -33 Q 602 -36 610 -44 L 630 -66 Q 636 -73 642 -84 Q 650 -94 653 -104 Q 657 -114 661 -118 L 670 -121 Q 679 -125 696 -117 Q 713 -109 728 -87 Q 743 -66 745 -40 L 752 36 Q 751 51 756 63 L 765 81 Q 772 92 772 97 Q 772 101 764 111 Q 756 120 740 126 Q 716 140 704 141 Q 692 142 665 136 Q 639 129 610 126 L 530 116 L 475 111 Z" fill="lightgray"></path>
				<path d="M 469 165 L 475 111 L 477 84 L 473 -84 Q 469 -164 480 -183 L 486 -194 Q 488 -196 490 -196 L 494 -194 Q 497 -192 505 -166 L 515 -126 L 523 -31 L 526 85 L 530 116 L 532 137 L 539 158 L 539 164 Q 539 168 530 173 C 508 193 466 195 469 165 Z" fill="lightgray"></path>
</g>
		<text x="40" y="140" font-size="128" fill="#999999">9</text></g>
		<g id="id1:id4:id4" transform="matrix(1.0,0,0,1.0,4096,0.0)">			<g stroke="lightgray" stroke-width="4" transform="scale(4, 4)"> <rect x="0" y="0" width="256" height="256" fill="white" stroke-width="4"/></g>
			<g transform="scale(0.92, -0.92) translate(60, -920)">					<path d="M 344 674 L 377 679 Q 393 680 399 683 Q 405 685 407 685 Q 410 685 418 688 Q 427 690 427 695 L 429 699 Q 430 703 421 708 Q 414 714 397 719 Q 380 724 375 723 Q 373 721 363 719 Q 353 716 349 716 L 297 703 L 209 690 Q 190 687 204 675 Q 211 669 213 668 L 234 664 Q 255 662 259 663 L 295 667 L 344 674 Z" fill="black"></path>
				<path d="M 339 620 L 344 674 L 349 716 L 350 732 Q 356 750 356 753 Q 356 756 351 764 Q 344 772 301 781 Q 283 782 283 770 Q 283 765 285 757 L 289 747 Q 294 736 295 718 L 297 703 L 295 667 L 297 614 C 298 584 336 590 339 620 Z" fill="black"></path>
				<path d="M 484 604 Q 484 622 450 630 L 431 635 Q 425 636 413 634 L 339 620 L 297 614 L 146 592 Q 133 590 133 585 Q 133 579 137 578 L 148 572 Q 152 568 166 565 Q 181 561 203 566 Q 213 570 257 576 L 303 584 L 453 596 Q 481 596 484 604 Z" fill="black"></path>
				<path d="M 439 499 L 437 506 Q 432 511 417 518 Q 402 524 396 524 L 373 517 Q 354 509 339 508 L 292 496 L 208 485 Q 198 484 196 482 Q 195 479 199 471 Q 204 463 219 460 Q 234 456 247 458 L 293 464 L 337 472 L 354 474 Q 424 484 431 491 Q 437 494 439 499 Z" fill="black"></path>
				<path d="M 339 508 L 341 519 L 347 536 Q 348 543 343 548 Q 339 555 311 563 Q 283 570 281 559 Q 277 556 282 546 L 287 537 Q 289 534 290 524 L 292 511 L 292 496 L 293 464 L 295 400 C 296 370 328 379 331 409 L 337 472 L 339 508 Z" fill="black"></path>
				<path d="M 295 400 L 221 385 Q 217 384 196 382 L 183 382 L 166 380 Q 163 382 149 382 L 133 384 Q 119 384 119 376 Q 119 365 138 344 Q 172 316 179 319 L 187 319 Q 189 319 217 333 Q 245 347 276 358 L 449 416 Q 461 420 457 427 Q 453 433 444 432 L 331 409 L 295 400 Z" fill="black"></path>
				<path d="M 765 642 L 889 649 Q 898 650 900 652 Q 903 656 900 664 Q 894 672 867 686 Q 841 700 813 690 L 770 683 L 717 673 L 679 666 L 520 648 Q 511 648 509 644 Q 508 640 515 634 Q 523 627 538 620 Q 553 612 565 615 L 721 638 L 765 642 Z" fill="black"></path>
				<path d="M 721 638 L 719 554 L 715 471 Q 711 454 700 454 Q 697 454 685 457 L 669 460 L 656 464 Q 645 467 643 462 Q 642 458 649 452 L 658 442 Q 676 422 685 411 L 707 380 Q 711 368 723 368 Q 735 364 749 385 Q 767 415 767 460 Q 767 476 764 506 Q 761 535 763 556 L 765 642 L 770 683 L 772 696 Q 772 704 777 716 Q 782 727 781 732 Q 779 745 737 763 L 711 768 Q 705 769 701 764 Q 697 758 702 747 Q 708 736 709 732 Q 711 727 714 722 Q 717 716 717 696 L 717 673 L 721 638 Z" fill="black"></path>
				<path d="M 586 577 L 562 583 Q 555 584 553 579 Q 551 574 554 570 L 565 552 Q 578 525 604 491 Q 621 472 635 486 Q 656 521 638 547 Q 621 568 586 577 Z" fill="black"></path>
				<path d="M 465 355 L 515 394 L 545 410 Q 553 417 554 421 Q 556 425 549 432 Q 547 436 537 442 Q 518 458 499 462 Q 481 465 478 462 Q 475 458 475 450 L 475 435 Q 474 417 457 394 L 419 350 C 399 327 441 337 465 355 Z" fill="red"></path>
				<path d="M 320 343 Q 320 338 322 336 Q 345 323 354 298 L 360 270 L 370 207 Q 378 155 389 152 Q 403 148 411 161 L 413 192 L 406 246 L 402 274 L 396 322 C 394 341 394 341 371 346 L 356 349 Q 350 351 335 352 Q 320 353 320 343 Z" fill="lightgray"></path>
				<path d="M 607 182 L 612 168 Q 619 145 636 161 Q 653 177 661 204 L 692 300 Q 698 318 705 328 Q 713 338 713 341 Q 713 344 706 353 Q 700 361 691 366 L 673 376 Q 655 386 643 386 Q 632 386 619 382 Q 607 377 593 376 L 465 355 L 419 350 L 371 346 C 341 344 366 318 396 322 L 559 344 L 604 346 Q 634 349 638 336 Q 640 331 638 317 L 630 281 L 625 265 L 621 243 Q 618 235 614 216 C 607 187 607 183 607 182 Z" fill="lightgray"></path>
				<path d="M 578 298 L 563 297 L 499 286 L 402 274 C 372 270 376 244 406 246 L 595 261 Q 621 263 625 265 C 650 271 650 271 630 281 L 610 291 L 578 298 Z" fill="lightgray"></path>
				<path d="M 411 161 L 469 165 L 530 173 L 607 182 C 637 185 644 213 614 216 L 595 218 Q 592 219 575 216 L 538 208 L 469 198 L 413 192 C 383 189 381 159 411 161 Z" fill="lightgray"></path>
				<path d="M 334 97 L 314 106 L 289 113 Q 275 117 273 105 Q 273 102 277 92 Q 282 81 283 71 L 289 35 L 289 -18 L 285 -46 Q 284 -54 285 -61 Q 292 -80 302 -90 Q 309 -102 319 -92 Q 331 -82 333 -46 L 335 -28 Q 335 -14 337 -8 L 339 67 C 340 94 340 94 334 97 Z" fill="lightgray"></path>
				<path d="M 475 111 L 334 97 C 304 94 309 63 339 67 L 477 84 L 526 85 L 656 93 Q 681 95 687 89 Q 692 81 692 62 Q 692 43 691 38 L 688 8 Q 688 5 683 -25 Q 675 -41 669 -42 Q 664 -44 631 -36 L 617 -32 Q 609 -31 605 -33 Q 602 -36 610 -44 L 630 -66 Q 636 -73 642 -84 Q 650 -94 653 -104 Q 657 -114 661 -118 L 670 -121 Q 679 -125 696 -117 Q 713 -109 728 -87 Q 743 -66 745 -40 L 752 36 Q 751 51 756 63 L 765 81 Q 772 92 772 97 Q 772 101 764 111 Q 756 120 740 126 Q 716 140 704 141 Q 692 142 665 136 Q 639 129 610 126 L 530 116 L 475 111 Z" fill="lightgray"></path>
				<path d="M 469 165 L 475 111 L 477 84 L 473 -84 Q 469 -164 480 -183 L 486 -194 Q 488 -196 490 -196 L 494 -194 Q 497 -192 505 -166 L 515 -126 L 523 -31 L 526 85 L 530 116 L 532 137 L 539 158 L 539 164 Q 539 168 530 173 C 508 193 466 195 469 165 Z" fill="lightgray"></path>
</g>
		<text x="40" y="140" font-size="128" fill="#999999">10</text></g>
</g>
	<g id="id2:id2" transform="translate(0.0,2048)">
		<g id="id2:id0:id0" transform="matrix(1.0,0,0,1.0,0,0.0)">			<g stroke="lightgray" stroke-width="4" transform="scale(4, 4)"> <rect x="0" y="0" width="256" height="256" fill="white" stroke-width="4"/></g>
			<g transform="scale(0.92, -0.92) translate(60, -920)">					<path d="M 344 674 L 377 679 Q 393 680 399 683 Q 405 685 407 685 Q 410 685 418 688 Q 427 690 427 695 L 429 699 Q 430 703 421 708 Q 414 714 397 719 Q 380 724 375 723 Q 373 721 363 719 Q 353 716 349 716 L 297 703 L 209 690 Q 190 687 204 675 Q 211 669 213 668 L 234 664 Q 255 662 259 663 L 295 667 L 344 674 Z" fill="black"></path>
				<path d="M 339 620 L 344 674 L 349 716 L 350 732 Q 356 750 356 753 Q 356 756 351 764 Q 344 772 301 781 Q 283 782 283 770 Q 283 765 285 757 L 289 747 Q 294 736 295 718 L 297 703 L 295 667 L 297 614 C 298 584 336 590 339 620 Z" fill="black"></path>
				<path d="M 484 604 Q 484 622 450 630 L 431 635 Q 425 636 413 634 L 339 620 L 297 614 L 146 592 Q 133 590 133 585 Q 133 579 137 578 L 148 572 Q 152 568 166 565 Q 181 561 203 566 Q 213 570 257 576 L 303 584 L 453 596 Q 481 596 484 604 Z" fill="black"></path>
				<path d="M 439 499 L 437 506 Q 432 511 417 518 Q 402 524 396 524 L 373 517 Q 354 509 339 508 L 292 496 L 208 485 Q 198 484 196 482 Q 195 479 199 471 Q 204 463 219 460 Q 234 456 247 458 L 293 464 L 337 472 L 354 474 Q 424 484 431 491 Q 437 494 439 499 Z" fill="black"></path>
				<path d="M 339 508 L 341 519 L 347 536 Q 348 543 343 548 Q 339 555 311 563 Q 283 570 281 559 Q 277 556 282 546 L 287 537 Q 289 534 290 524 L 292 511 L 292 496 L 293 464 L 295 400 C 296 370 328 379 331 409 L 337 472 L 339 508 Z" fill="black"></path>
				<path d="M 295 400 L 221 385 Q 217 384 196 382 L 183 382 L 166 380 Q 163 382 149 382 L 133 384 Q 119 384 119 376 Q 119 365 138 344 Q 172 316 179 319 L 187 319 Q 189 319 217 333 Q 245 347 276 358 L 449 416 Q 461 420 457 427 Q 453 433 444 432 L 331 409 L 295 400 Z" fill="black"></path>
				<path d="M 765 642 L 889 649 Q 898 650 900 652 Q 903 656 900 664 Q 894 672 867 686 Q 841 700 813 690 L 770 683 L 717 673 L 679 666 L 520 648 Q 511 648 509 644 Q 508 640 515 634 Q 523 627 538 620 Q 553 612 565 615 L 721 638 L 765 642 Z" fill="black"></path>
				<path d="M 721 638 L 719 554 L 715 471 Q 711 454 700 454 Q 697 454 685 457 L 669 460 L 656 464 Q 645 467 643 462 Q 642 458 649 452 L 658 442 Q 676 422 685 411 L 707 380 Q 711 368 723 368 Q 735 364 749 385 Q 767 415 767 460 Q 767 476 764 506 Q 761 535 763 556 L 765 642 L 770 683 L 772 696 Q 772 704 777 716 Q 782 727 781 732 Q 779 745 737 763 L 711 768 Q 705 769 701 764 Q 697 758 702 747 Q 708 736 709 732 Q 711 727 714 722 Q 717 716 717 696 L 717 673 L 721 638 Z" fill="black"></path>
				<path d="M 586 577 L 562 583 Q 555 584 553 579 Q 551 574 554 570 L 565 552 Q 578 525 604 491 Q 621 472 635 486 Q 656 521 638 547 Q 621 568 586 577 Z" fill="black"></path>
				<path d="M 465 355 L 515 394 L 545 410 Q 553 417 554 421 Q 556 425 549 432 Q 547 436 537 442 Q 518 458 499 462 Q 481 465 478 462 Q 475 458 475 450 L 475 435 Q 474 417 457 394 L 419 350 C 399 327 441 337 465 355 Z" fill="black"></path>
				<path d="M 320 343 Q 320 338 322 336 Q 345 323 354 298 L 360 270 L 370 207 Q 378 155 389 152 Q 403 148 411 161 L 413 192 L 406 246 L 402 274 L 396 322 C 394 341 394 341 371 346 L 356 349 Q 350 351 335 352 Q 320 353 320 343 Z" fill="red"></path>
				<path d="M 607 182 L 612 168 Q 619 145 636 161 Q 653 177 661 204 L 692 300 Q 698 318 705 328 Q 713 338 713 341 Q 713 344 706 353 Q 700 361 691 366 L 673 376 Q 655 386 643 386 Q 632 386 619 382 Q 607 377 593 376 L 465 355 L 419 350 L 371 346 C 341 344 366 318 396 322 L 559 344 L 604 346 Q 634 349 638 336 Q 640 331 638 317 L 630 281 L 625 265 L 621 243 Q 618 235 614 216 C 607 187 607 183 607 182 Z" fill="lightgray"></path>
				<path d="M 578 298 L 563 297 L 499 286 L 402 274 C 372 270 376 244 406 246 L 595 261 Q 621 263 625 265 C 650 271 650 271 630 281 L 610 291 L 578 298 Z" fill="lightgray"></path>
				<path d="M 411 161 L 469 165 L 530 173 L 607 182 C 637 185 644 213 614 216 L 595 218 Q 592 219 575 216 L 538 208 L 469 198 L 413 192 C 383 189 381 159 411 161 Z" fill="lightgray"></path>
				<path d="M 334 97 L 314 106 L 289 113 Q 275 117 273 105 Q 273 102 277 92 Q 282 81 283 71 L 289 35 L 289 -18 L 285 -46 Q 284 -54 285 -61 Q 292 -80 302 -90 Q 309 -102 319 -92 Q 331 -82 333 -46 L 335 -28 Q 335 -14 337 -8 L 339 67 C 340 94 340 94 334 97 Z" fill="lightgray"></path>
				<path d="M 475 111 L 334 97 C 304 94 309 63 339 67 L 477 84 L 526 85 L 656 93 Q 681 95 687 89 Q 692 81 692 62 Q 692 43 691 38 L 688 8 Q 688 5 683 -25 Q 675 -41 669 -42 Q 664 -44 631 -36 L 617 -32 Q 609 -31 605 -33 Q 602 -36 610 -44 L 630 -66 Q 636 -73 642 -84 Q 650 -94 653 -104 Q 657 -114 661 -118 L 670 -121 Q 679 -125 696 -117 Q 713 -109 728 -87 Q 743 -66 745 -40 L 752 36 Q 751 51 756 63 L 765 81 Q 772 92 772 97 Q 772 101 764 111 Q 756 120 740 126 Q 716 140 704 141 Q 692 142 665 136 Q 639 129 610 126 L 530 116 L 475 111 Z" fill="lightgray"></path>
				<path d="M 469 165 L 475 111 L 477 84 L 473 -84 Q 469 -164 480 -183 L 486 -194 Q 488 -196 490 -196 L 494 -194 Q 497 -192 505 -166 L 515 -126 L 523 -31 L 526 85 L 530 116 L 532 137 L 539 158 L 539 164 Q 539 168 530 173 C 508 193 466 195 469 165 Z" fill="lightgray"></path>
</g>
		<text x="40" y="140" font-size="128" fill="#999999">11</text></g>
		<g id="id2:id1:id1" transform="matrix(1.0,0,0,1.0,1024,0.0)">			<g stroke="lightgray" stroke-width="4" transform="scale(4, 4)"> <rect x="0" y="0" width="256" height="256" fill="white" stroke-width="4"/></g>
			<g transform="scale(0.92, -0.92) translate(60, -920)">					<path d="M 344 674 L 377 679 Q 393 680 399 683 Q 405 685 407 685 Q 410 685 418 688 Q 427 690 427 695 L 429 699 Q 430 703 421 708 Q 414 714 397 719 Q 380 724 375 723 Q 373 721 363 719 Q 353 716 349 716 L 297 703 L 209 690 Q 190 687 204 675 Q 211 669 213 668 L 234 664 Q 255 662 259 663 L 295 667 L 344 674 Z" fill="black"></path>
				<path d="M 339 620 L 344 674 L 349 716 L 350 732 Q 356 750 356 753 Q 356 756 351 764 Q 344 772 301 781 Q 283 782 283 770 Q 283 765 285 757 L 289 747 Q 294 736 295 718 L 297 703 L 295 667 L 297 614 C 298 584 336 590 339 620 Z" fill="black"></path>
				<path d="M 484 604 Q 484 622 450 630 L 431 635 Q 425 636 413 634 L 339 620 L 297 614 L 146 592 Q 133 590 133 585 Q 133 579 137 578 L 148 572 Q 152 568 166 565 Q 181 561 203 566 Q 213 570 257 576 L 303 584 L 453 596 Q 481 596 484 604 Z" fill="black"></path>
				<path d="M 439 499 L 437 506 Q 432 511 417 518 Q 402 524 396 524 L 373 517 Q 354 509 339 508 L 292 496 L 208 485 Q 198 484 196 482 Q 195 479 199 471 Q 204 463 219 460 Q 234 456 247 458 L 293 464 L 337 472 L 354 474 Q 424 484 431 491 Q 437 494 439 499 Z" fill="black"></path>
				<path d="M 339 508 L 341 519 L 347 536 Q 348 543 343 548 Q 339 555 311 563 Q 283 570 281 559 Q 277 556 282 546 L 287 537 Q 289 534 290 524 L 292 511 L 292 496 L 293 464 L 295 400 C 296 370 328 379 331 409 L 337 472 L 339 508 Z" fill="black"></path>
				<path d="M 295 400 L 221 385 Q 217 384 196 382 L 183 382 L 166 380 Q 163 382 149 382 L 133 384 Q 119 384 119 376 Q 119 365 138 344 Q 172 316 179 319 L 187 319 Q 189 319 217 333 Q 245 347 276 358 L 449 416 Q 461 420 457 427 Q 453 433 444 432 L 331 409 L 295 400 Z" fill="black"></path>
				<path d="M 765 642 L 889 649 Q 898 650 900 652 Q 903 656 900 664 Q 894 672 867 686 Q 841 700 813 690 L 770 683 L 717 673 L 679 666 L 520 648 Q 511 648 509 644 Q 508 640 515 634 Q 523 627 538 620 Q 553 612 565 615 L 721 638 L 765 642 Z" fill="black"></path>
				<path d="M 721 638 L 719 554 L 715 471 Q 711 454 700 454 Q 697 454 685 457 L 669 460 L 656 464 Q 645 467 643 462 Q 642 458 649 452 L 658 442 Q 676 422 685 411 L 707 380 Q 711 368 723 368 Q 735 364 749 385 Q 767 415 767 460 Q 767 476 764 506 Q 761 535 763 556 L 765 642 L 770 683 L 772 696 Q 772 704 777 716 Q 782 727 781 732 Q 779 745 737 763 L 711 768 Q 705 769 701 764 Q 697 758 702 747 Q 708 736 709 732 Q 711 727 714 722 Q 717 716 717 696 L 717 673 L 721 638 Z" fill="black"></path>
				<path d="M 586 577 L 562 583 Q 555 584 553 579 Q 551 574 554 570 L 565 552 Q 578 525 604 491 Q 621 472 635 486 Q 656 521 638 547 Q 621 568 586 577 Z" fill="black"></path>
				<path d="M 465 355 L 515 394 L 545 410 Q 553 417 554 421 Q 556 425 549 432 Q 547 436 537 442 Q 518 458 499 462 Q 481 465 478 462 Q 475 458 475 450 L 475 435 Q 474 417 457 394 L 419 350 C 399 327 441 337 465 355 Z" fill="black"></path>
				<path d="M 320 343 Q 320 338 322 336 Q 345 323 354 298 L 360 270 L 370 207 Q 378 155 389 152 Q 403 148 411 161 L 413 192 L 406 246 L 402 274 L 396 322 C 394 341 394 341 371 346 L 356 349 Q 350 351 335 352 Q 320 353 320 343 Z" fill="black"></path>
				<path d="M 607 182 L 612 168 Q 619 145 636 161 Q 653 177 661 204 L 692 300 Q 698 318 705 328 Q 713 338 713 341 Q 713 344 706 353 Q 700 361 691 366 L 673 376 Q 655 386 643 386 Q 632 386 619 382 Q 607 377 593 376 L 465 355 L 419 350 L 371 346 C 341 344 366 318 396 322 L 559 344 L 604 346 Q 634 349 638 336 Q 640 331 638 317 L 630 281 L 625 265 L 621 243 Q 618 235 614 216 C 607 187 607 183 607 182 Z" fill="red"></path>
				<path d="M 578 298 L 563 297 L 499 286 L 402 274 C 372 270 376 244 406 246 L 595 261 Q 621 263 625 265 C 650 271 650 271 630 281 L 610 291 L 578 298 Z" fill="lightgray"></path>
				<path d="M 411 161 L 469 165 L 530 173 L 607 182 C 637 185 644 213 614 216 L 595 218 Q 592 219 575 216 L 538 208 L 469 198 L 413 192 C 383 189 381 159 411 161 Z" fill="lightgray"></path>
				<path d="M 334 97 L 314 106 L 289 113 Q 275 117 273 105 Q 273 102 277 92 Q 282 81 283 71 L 289 35 L 289 -18 L 285 -46 Q 284 -54 285 -61 Q 292 -80 302 -90 Q 309 -102 319 -92 Q 331 -82 333 -46 L 335 -28 Q 335 -14 337 -8 L 339 67 C 340 94 340 94 334 97 Z" fill="lightgray"></path>
				<path d="M 475 111 L 334 97 C 304 94 309 63 339 67 L 477 84 L 526 85 L 656 93 Q 681 95 687 89 Q 692 81 692 62 Q 692 43 691 38 L 688 8 Q 688 5 683 -25 Q 675 -41 669 -42 Q 664 -44 631 -36 L 617 -32 Q 609 -31 605 -33 Q 602 -36 610 -44 L 630 -66 Q 636 -73 642 -84 Q 650 -94 653 -104 Q 657 -114 661 -118 L 670 -121 Q 679 -125 696 -117 Q 713 -109 728 -87 Q 743 -66 745 -40 L 752 36 Q 751 51 756 63 L 765 81 Q 772 92 772 97 Q 772 101 764 111 Q 756 120 740 126 Q 716 140 704 141 Q 692 142 665 136 Q 639 129 610 126 L 530 116 L 475 111 Z" fill="lightgray"></path>
				<path d="M 469 165 L 475 111 L 477 84 L 473 -84 Q 469 -164 480 -183 L 486 -194 Q 488 -196 490 -196 L 494 -194 Q 497 -192 505 -166 L 515 -126 L 523 -31 L 526 85 L 530 116 L 532 137 L 539 158 L 539 164 Q 539 168 530 173 C 508 193 466 195 469 165 Z" fill="lightgray"></path>
</g>
		<text x="40" y="140" font-size="128" fill="#999999">12</text></g>
		<g id="id2:id2:id2" transform="matrix(1.0,0,0,1.0,2048,0.0)">			<g stroke="lightgray" stroke-width="4" transform="scale(4, 4)"> <rect x="0" y="0" width="256" height="256" fill="white" stroke-width="4"/></g>
			<g transform="scale(0.92, -0.92) translate(60, -920)">					<path d="M 344 674 L 377 679 Q 393 680 399 683 Q 405 685 407 685 Q 410 685 418 688 Q 427 690 427 695 L 429 699 Q 430 703 421 708 Q 414 714 397 719 Q 380 724 375 723 Q 373 721 363 719 Q 353 716 349 716 L 297 703 L 209 690 Q 190 687 204 675 Q 211 669 213 668 L 234 664 Q 255 662 259 663 L 295 667 L 344 674 Z" fill="black"></path>
				<path d="M 339 620 L 344 674 L 349 716 L 350 732 Q 356 750 356 753 Q 356 756 351 764 Q 344 772 301 781 Q 283 782 283 770 Q 283 765 285 757 L 289 747 Q 294 736 295 718 L 297 703 L 295 667 L 297 614 C 298 584 336 590 339 620 Z" fill="black"></path>
				<path d="M 484 604 Q 484 622 450 630 L 431 635 Q 425 636 413 634 L 339 620 L 297 614 L 146 592 Q 133 590 133 585 Q 133 579 137 578 L 148 572 Q 152 568 166 565 Q 181 561 203 566 Q 213 570 257 576 L 303 584 L 453 596 Q 481 596 484 604 Z" fill="black"></path>
				<path d="M 439 499 L 437 506 Q 432 511 417 518 Q 402 524 396 524 L 373 517 Q 354 509 339 508 L 292 496 L 208 485 Q 198 484 196 482 Q 195 479 199 471 Q 204 463 219 460 Q 234 456 247 458 L 293 464 L 337 472 L 354 474 Q 424 484 431 491 Q 437 494 439 499 Z" fill="black"></path>
				<path d="M 339 508 L 341 519 L 347 536 Q 348 543 343 548 Q 339 555 311 563 Q 283 570 281 559 Q 277 556 282 546 L 287 537 Q 289 534 290 524 L 292 511 L 292 496 L 293 464 L 295 400 C 296 370 328 379 331 409 L 337 472 L 339 508 Z" fill="black"></path>
				<path d="M 295 400 L 221 385 Q 217 384 196 382 L 183 382 L 166 380 Q 163 382 149 382 L 133 384 Q 119 384 119 376 Q 119 365 138 344 Q 172 316 179 319 L 187 319 Q 189 319 217 333 Q 245 347 276 358 L 449 416 Q 461 420 457 427 Q 453 433 444 432 L 331 409 L 295 400 Z" fill="black"></path>
				<path d="M 765 642 L 889 649 Q 898 650 900 652 Q 903 656 900 664 Q 894 672 867 686 Q 841 700 813 690 L 770 683 L 717 673 L 679 666 L 520 648 Q 511 648 509 644 Q 508 640 515 634 Q 523 627 538 620 Q 553 612 565 615 L 721 638 L 765 642 Z" fill="black"></path>
				<path d="M 721 638 L 719 554 L 715 471 Q 711 454 700 454 Q 697 454 685 457 L 669 460 L 656 464 Q 645 467 643 462 Q 642 458 649 452 L 658 442 Q 676 422 685 411 L 707 380 Q 711 368 723 368 Q 735 364 749 385 Q 767 415 767 460 Q 767 476 764 506 Q 761 535 763 556 L 765 642 L 770 683 L 772 696 Q 772 704 777 716 Q 782 727 781 732 Q 779 745 737 763 L 711 768 Q 705 769 701 764 Q 697 758 702 747 Q 708 736 709 732 Q 711 727 714 722 Q 717 716 717 696 L 717 673 L 721 638 Z" fill="black"></path>
				<path d="M 586 577 L 562 583 Q 555 584 553 579 Q 551 574 554 570 L 565 552 Q 578 525 604 491 Q 621 472 635 486 Q 656 521 638 547 Q 621 568 586 577 Z" fill="black"></path>
				<path d="M 465 355 L 515 394 L 545 410 Q 553 417 554 421 Q 556 425 549 432 Q 547 436 537 442 Q 518 458 499 462 Q 481 465 478 462 Q 475 458 475 450 L 475 435 Q 474 417 457 394 L 419 350 C 399 327 441 337 465 355 Z" fill="black"></path>
				<path d="M 320 343 Q 320 338 322 336 Q 345 323 354 298 L 360 270 L 370 207 Q 378 155 389 152 Q 403 148 411 161 L 413 192 L 406 246 L 402 274 L 396 322 C 394 341 394 341 371 346 L 356 349 Q 350 351 335 352 Q 320 353 320 343 Z" fill="black"></path>
				<path d="M 607 182 L 612 168 Q 619 145 636 161 Q 653 177 661 204 L 692 300 Q 698 318 705 328 Q 713 338 713 341 Q 713 344 706 353 Q 700 361 691 366 L 673 376 Q 655 386 643 386 Q 632 386 619 382 Q 607 377 593 376 L 465 355 L 419 350 L 371 346 C 341 344 366 318 396 322 L 559 344 L 604 346 Q 634 349 638 336 Q 640 331 638 317 L 630 281 L 625 265 L 621 243 Q 618 235 614 216 C 607 187 607 183 607 182 Z" fill="black"></path>
				<path d="M 578 298 L 563 297 L 499 286 L 402 274 C 372 270 376 244 406 246 L 595 261 Q 621 263 625 265 C 650 271 650 271 630 281 L 610 291 L 578 298 Z" fill="red"></path>
				<path d="M 411 161 L 469 165 L 530 173 L 607 182 C 637 185 644 213 614 216 L 595 218 Q 592 219 575 216 L 538 208 L 469 198 L 413 192 C 383 189 381 159 411 161 Z" fill="lightgray"></path>
				<path d="M 334 97 L 314 106 L 289 113 Q 275 117 273 105 Q 273 102 277 92 Q 282 81 283 71 L 289 35 L 289 -18 L 285 -46 Q 284 -54 285 -61 Q 292 -80 302 -90 Q 309 -102 319 -92 Q 331 -82 333 -46 L 335 -28 Q 335 -14 337 -8 L 339 67 C 340 94 340 94 334 97 Z" fill="lightgray"></path>
				<path d="M 475 111 L 334 97 C 304 94 309 63 339 67 L 477 84 L 526 85 L 656 93 Q 681 95 687 89 Q 692 81 692 62 Q 692 43 691 38 L 688 8 Q 688 5 683 -25 Q 675 -41 669 -42 Q 664 -44 631 -36 L 617 -32 Q 609 -31 605 -33 Q 602 -36 610 -44 L 630 -66 Q 636 -73 642 -84 Q 650 -94 653 -104 Q 657 -114 661 -118 L 670 -121 Q 679 -125 696 -117 Q 713 -109 728 -87 Q 743 -66 745 -40 L 752 36 Q 751 51 756 63 L 765 81 Q 772 92 772 97 Q 772 101 764 111 Q 756 120 740 126 Q 716 140 704 141 Q 692 142 665 136 Q 639 129 610 126 L 530 116 L 475 111 Z" fill="lightgray"></path>
				<path d="M 469 165 L 475 111 L 477 84 L 473 -84 Q 469 -164 480 -183 L 486 -194 Q 488 -196 490 -196 L 494 -194 Q 497 -192 505 -166 L 515 -126 L 523 -31 L 526 85 L 530 116 L 532 137 L 539 158 L 539 164 Q 539 168 530 173 C 508 193 466 195 469 165 Z" fill="lightgray"></path>
</g>
		<text x="40" y="140" font-size="128" fill="#999999">13</text></g>
		<g id="id2:id3:id3" transform="matrix(1.0,0,0,1.0,3072,0.0)">			<g stroke="lightgray" stroke-width="4" transform="scale(4, 4)"> <rect x="0" y="0" width="256" height="256" fill="white" stroke-width="4"/></g>
			<g transform="scale(0.92, -0.92) translate(60, -920)">					<path d="M 344 674 L 377 679 Q 393 680 399 683 Q 405 685 407 685 Q 410 685 418 688 Q 427 690 427 695 L 429 699 Q 430 703 421 708 Q 414 714 397 719 Q 380 724 375 723 Q 373 721 363 719 Q 353 716 349 716 L 297 703 L 209 690 Q 190 687 204 675 Q 211 669 213 668 L 234 664 Q 255 662 259 663 L 295 667 L 344 674 Z" fill="black"></path>
				<path d="M 339 620 L 344 674 L 349 716 L 350 732 Q 356 750 356 753 Q 356 756 351 764 Q 344 772 301 781 Q 283 782 283 770 Q 283 765 285 757 L 289 747 Q 294 736 295 718 L 297 703 L 295 667 L 297 614 C 298 584 336 590 339 620 Z" fill="black"></path>
				<path d="M 484 604 Q 484 622 450 630 L 431 635 Q 425 636 413 634 L 339 620 L 297 614 L 146 592 Q 133 590 133 585 Q 133 579 137 578 L 148 572 Q 152 568 166 565 Q 181 561 203 566 Q 213 570 257 576 L 303 584 L 453 596 Q 481 596 484 604 Z" fill="black"></path>
				<path d="M 439 499 L 437 506 Q 432 511 417 518 Q 402 524 396 524 L 373 517 Q 354 509 339 508 L 292 496 L 208 485 Q 198 484 196 482 Q 195 479 199 471 Q 204 463 219 460 Q 234 456 247 458 L 293 464 L 337 472 L 354 474 Q 424 484 431 491 Q 437 494 439 499 Z" fill="black"></path>
				<path d="M 339 508 L 341 519 L 347 536 Q 348 543 343 548 Q 339 555 311 563 Q 283 570 281 559 Q 277 556 282 546 L 287 537 Q 289 534 290 524 L 292 511 L 292 496 L 293 464 L 295 400 C 296 370 328 379 331 409 L 337 472 L 339 508 Z" fill="black"></path>
				<path d="M 295 400 L 221 385 Q 217 384 196 382 L 183 382 L 166 380 Q 163 382 149 382 L 133 384 Q 119 384 119 376 Q 119 365 138 344 Q 172 316 179 319 L 187 319 Q 189 319 217 333 Q 245 347 276 358 L 449 416 Q 461 420 457 427 Q 453 433 444 432 L 331 409 L 295 400 Z" fill="black"></path>
				<path d="M 765 642 L 889 649 Q 898 650 900 652 Q 903 656 900 664 Q 894 672 867 686 Q 841 700 813 690 L 770 683 L 717 673 L 679 666 L 520 648 Q 511 648 509 644 Q 508 640 515 634 Q 523 627 538 620 Q 553 612 565 615 L 721 638 L 765 642 Z" fill="black"></path>
				<path d="M 721 638 L 719 554 L 715 471 Q 711 454 700 454 Q 697 454 685 457 L 669 460 L 656 464 Q 645 467 643 462 Q 642 458 649 452 L 658 442 Q 676 422 685 411 L 707 380 Q 711 368 723 368 Q 735 364 749 385 Q 767 415 767 460 Q 767 476 764 506 Q 761 535 763 556 L 765 642 L 770 683 L 772 696 Q 772 704 777 716 Q 782 727 781 732 Q 779 745 737 763 L 711 768 Q 705 769 701 764 Q 697 758 702 747 Q 708 736 709 732 Q 711 727 714 722 Q 717 716 717 696 L 717 673 L 721 638 Z" fill="black"></path>
				<path d="M 586 577 L 562 583 Q 555 584 553 579 Q 551 574 554 570 L 565 552 Q 578 525 604 491 Q 621 472 635 486 Q 656 521 638 547 Q 621 568 586 577 Z" fill="black"></path>
				<path d="M 465 355 L 515 394 L 545 410 Q 553 417 554 421 Q 556 425 549 432 Q 547 436 537 442 Q 518 458 499 462 Q 481 465 478 462 Q 475 458 475 450 L 475 435 Q 474 417 457 394 L 419 350 C 399 327 441 337 465 355 Z" fill="black"></path>
				<path d="M 320 343 Q 320 338 322 336 Q 345 323 354 298 L 360 270 L 370 207 Q 378 155 389 152 Q 403 148 411 161 L 413 192 L 406 246 L 402 274 L 396 322 C 394 341 394 341 371 346 L 356 349 Q 350 351 335 352 Q 320 353 320 343 Z" fill="black"></path>
				<path d="M 607 182 L 612 168 Q 619 145 636 161 Q 653 177 661 204 L 692 300 Q 698 318 705 328 Q 713 338 713 341 Q 713 344 706 353 Q 700 361 691 366 L 673 376 Q 655 386 643 386 Q 632 386 619 382 Q 607 377 593 376 L 465 355 L 419 350 L 371 346 C 341 344 366 318 396 322 L 559 344 L 604 346 Q 634 349 638 336 Q 640 331 638 317 L 630 281 L 625 265 L 621 243 Q 618 235 614 216 C 607 187 607 183 607 182 Z" fill="black"></path>
				<path d="M 578 298 L 563 297 L 499 286 L 402 274 C 372 270 376 244 406 246 L 595 261 Q 621 263 625 265 C 650 271 650 271 630 281 L 610 291 L 578 298 Z" fill="black"></path>
				<path d="M 411 161 L 469 165 L 530 173 L 607 182 C 637 185 644 213 614 216 L 595 218 Q 592 219 575 216 L 538 208 L 469 198 L 413 192 C 383 189 381 159 411 161 Z" fill="red"></path>
				<path d="M 334 97 L 314 106 L 289 113 Q 275 117 273 105 Q 273 102 277 92 Q 282 81 283 71 L 289 35 L 289 -18 L 285 -46 Q 284 -54 285 -61 Q 292 -80 302 -90 Q 309 -102 319 -92 Q 331 -82 333 -46 L 335 -28 Q 335 -14 337 -8 L 339 67 C 340 94 340 94 334 97 Z" fill="lightgray"></path>
				<path d="M 475 111 L 334 97 C 304 94 309 63 339 67 L 477 84 L 526 85 L 656 93 Q 681 95 687 89 Q 692 81 692 62 Q 692 43 691 38 L 688 8 Q 688 5 683 -25 Q 675 -41 669 -42 Q 664 -44 631 -36 L 617 -32 Q 609 -31 605 -33 Q 602 -36 610 -44 L 630 -66 Q 636 -73 642 -84 Q 650 -94 653 -104 Q 657 -114 661 -118 L 670 -121 Q 679 -125 696 -117 Q 713 -109 728 -87 Q 743 -66 745 -40 L 752 36 Q 751 51 756 63 L 765 81 Q 772 92 772 97 Q 772 101 764 111 Q 756 120 740 126 Q 716 140 704 141 Q 692 142 665 136 Q 639 129 610 126 L 530 116 L 475 111 Z" fill="lightgray"></path>
				<path d="M 469 165 L 475 111 L 477 84 L 473 -84 Q 469 -164 480 -183 L 486 -194 Q 488 -196 490 -196 L 494 -194 Q 497 -192 505 -166 L 515 -126 L 523 -31 L 526 85 L 530 116 L 532 137 L 539 158 L 539 164 Q 539 168 530 173 C 508 193 466 195 469 165 Z" fill="lightgray"></path>
</g>
		<text x="40" y="140" font-size="128" fill="#999999">14</text></g>
		<g id="id2:id4:id4" transform="matrix(1.0,0,0,1.0,4096,0.0)">			<g stroke="lightgray" stroke-width="4" transform="scale(4, 4)"> <rect x="0" y="0" width="256" height="256" fill="white" stroke-width="4"/></g>
			<g transform="scale(0.92, -0.92) translate(60, -920)">					<path d="M 344 674 L 377 679 Q 393 680 399 683 Q 405 685 407 685 Q 410 685 418 688 Q 427 690 427 695 L 429 699 Q 430 703 421 708 Q 414 714 397 719 Q 380 724 375 723 Q 373 721 363 719 Q 353 716 349 716 L 297 703 L 209 690 Q 190 687 204 675 Q 211 669 213 668 L 234 664 Q 255 662 259 663 L 295 667 L 344 674 Z" fill="black"></path>
				<path d="M 339 620 L 344 674 L 349 716 L 350 732 Q 356 750 356 753 Q 356 756 351 764 Q 344 772 301 781 Q 283 782 283 770 Q 283 765 285 757 L 289 747 Q 294 736 295 718 L 297 703 L 295 667 L 297 614 C 298 584 336 590 339 620 Z" fill="black"></path>
				<path d="M 484 604 Q 484 622 450 630 L 431 635 Q 425 636 413 634 L 339 620 L 297 614 L 146 592 Q 133 590 133 585 Q 133 579 137 578 L 148 572 Q 152 568 166 565 Q 181 561 203 566 Q 213 570 257 576 L 303 584 L 453 596 Q 481 596 484 604 Z" fill="black"></path>
				<path d="M 439 499 L 437 506 Q 432 511 417 518 Q 402 524 396 524 L 373 517 Q 354 509 339 508 L 292 496 L 208 485 Q 198 484 196 482 Q 195 479 199 471 Q 204 463 219 460 Q 234 456 247 458 L 293 464 L 337 472 L 354 474 Q 424 484 431 491 Q 437 494 439 499 Z" fill="black"></path>
				<path d="M 339 508 L 341 519 L 347 536 Q 348 543 343 548 Q 339 555 311 563 Q 283 570 281 559 Q 277 556 282 546 L 287 537 Q 289 534 290 524 L 292 511 L 292 496 L 293 464 L 295 400 C 296 370 328 379 331 409 L 337 472 L 339 508 Z" fill="black"></path>
				<path d="M 295 400 L 221 385 Q 217 384 196 382 L 183 382 L 166 380 Q 163 382 149 382 L 133 384 Q 119 384 119 376 Q 119 365 138 344 Q 172 316 179 319 L 187 319 Q 189 319 217 333 Q 245 347 276 358 L 449 416 Q 461 420 457 427 Q 453 433 444 432 L 331 409 L 295 400 Z" fill="black"></path>
				<path d="M 765 642 L 889 649 Q 898 650 900 652 Q 903 656 900 664 Q 894 672 867 686 Q 841 700 813 690 L 770 683 L 717 673 L 679 666 L 520 648 Q 511 648 509 644 Q 508 640 515 634 Q 523 627 538 620 Q 553 612 565 615 L 721 638 L 765 642 Z" fill="black"></path>
				<path d="M 721 638 L 719 554 L 715 471 Q 711 454 700 454 Q 697 454 685 457 L 669 460 L 656 464 Q 645 467 643 462 Q 642 458 649 452 L 658 442 Q 676 422 685 411 L 707 380 Q 711 368 723 368 Q 735 364 749 385 Q 767 415 767 460 Q 767 476 764 506 Q 761 535 763 556 L 765 642 L 770 683 L 772 696 Q 772 704 777 716 Q 782 727 781 732 Q 779 745 737 763 L 711 768 Q 705 769 701 764 Q 697 758 702 747 Q 708 736 709 732 Q 711 727 714 722 Q 717 716 717 696 L 717 673 L 721 638 Z" fill="black"></path>
				<path d="M 586 577 L 562 583 Q 555 584 553 579 Q 551 574 554 570 L 565 552 Q 578 525 604 491 Q 621 472 635 486 Q 656 521 638 547 Q 621 568 586 577 Z" fill="black"></path>
				<path d="M 465 355 L 515 394 L 545 410 Q 553 417 554 421 Q 556 425 549 432 Q 547 436 537 442 Q 518 458 499 462 Q 481 465 478 462 Q 475 458 475 450 L 475 435 Q 474 417 457 394 L 419 350 C 399 327 441 337 465 355 Z" fill="black"></path>
				<path d="M 320 343 Q 320 338 322 336 Q 345 323 354 298 L 360 270 L 370 207 Q 378 155 389 152 Q 403 148 411 161 L 413 192 L 406 246 L 402 274 L 396 322 C 394 341 394 341 371 346 L 356 349 Q 350 351 335 352 Q 320 353 320 343 Z" fill="black"></path>
				<path d="M 607 182 L 612 168 Q 619 145 636 161 Q 653 177 661 204 L 692 300 Q 698 318 705 328 Q 713 338 713 341 Q 713 344 706 353 Q 700 361 691 366 L 673 376 Q 655 386 643 386 Q 632 386 619 382 Q 607 377 593 376 L 465 355 L 419 350 L 371 346 C 341 344 366 318 396 322 L 559 344 L 604 346 Q 634 349 638 336 Q 640 331 638 317 L 630 281 L 625 265 L 621 243 Q 618 235 614 216 C 607 187 607 183 607 182 Z" fill="black"></path>
				<path d="M 578 298 L 563 297 L 499 286 L 402 274 C 372 270 376 244 406 246 L 595 261 Q 621 263 625 265 C 650 271 650 271 630 281 L 610 291 L 578 298 Z" fill="black"></path>
				<path d="M 411 161 L 469 165 L 530 173 L 607 182 C 637 185 644 213 614 216 L 595 218 Q 592 219 575 216 L 538 208 L 469 198 L 413 192 C 383 189 381 159 411 161 Z" fill="black"></path>
				<path d="M 334 97 L 314 106 L 289 113 Q 275 117 273 105 Q 273 102 277 92 Q 282 81 283 71 L 289 35 L 289 -18 L 285 -46 Q 284 -54 285 -61 Q 292 -80 302 -90 Q 309 -102 319 -92 Q 331 -82 333 -46 L 335 -28 Q 335 -14 337 -8 L 339 67 C 340 94 340 94 334 97 Z" fill="red"></path>
				<path d="M 475 111 L 334 97 C 304 94 309 63 339 67 L 477 84 L 526 85 L 656 93 Q 681 95 687 89 Q 692 81 692 62 Q 692 43 691 38 L 688 8 Q 688 5 683 -25 Q 675 -41 669 -42 Q 664 -44 631 -36 L 617 -32 Q 609 -31 605 -33 Q 602 -36 610 -44 L 630 -66 Q 636 -73 642 -84 Q 650 -94 653 -104 Q 657 -114 661 -118 L 670 -121 Q 679 -125 696 -117 Q 713 -109 728 -87 Q 743 -66 745 -40 L 752 36 Q 751 51 756 63 L 765 81 Q 772 92 772 97 Q 772 101 764 111 Q 756 120 740 126 Q 716 140 704 141 Q 692 142 665 136 Q 639 129 610 126 L 530 116 L 475 111 Z" fill="lightgray"></path>
				<path d="M 469 165 L 475 111 L 477 84 L 473 -84 Q 469 -164 480 -183 L 486 -194 Q 488 -196 490 -196 L 494 -194 Q 497 -192 505 -166 L 515 -126 L 523 -31 L 526 85 L 530 116 L 532 137 L 539 158 L 539 164 Q 539 168 530 173 C 508 193 466 195 469 165 Z" fill="lightgray"></path>
</g>
		<text x="40" y="140" font-size="128" fill="#999999">15</text></g>
</g>
	<g id="id3:id3" transform="translate(0.0,3072)">
		<g id="id3:id0:id0" transform="matrix(1.0,0,0,1.0,0,0.0)">			<g stroke="lightgray" stroke-width="4" transform="scale(4, 4)"> <rect x="0" y="0" width="256" height="256" fill="white" stroke-width="4"/></g>
			<g transform="scale(0.92, -0.92) translate(60, -920)">					<path d="M 344 674 L 377 679 Q 393 680 399 683 Q 405 685 407 685 Q 410 685 418 688 Q 427 690 427 695 L 429 699 Q 430 703 421 708 Q 414 714 397 719 Q 380 724 375 723 Q 373 721 363 719 Q 353 716 349 716 L 297 703 L 209 690 Q 190 687 204 675 Q 211 669 213 668 L 234 664 Q 255 662 259 663 L 295 667 L 344 674 Z" fill="black"></path>
				<path d="M 339 620 L 344 674 L 349 716 L 350 732 Q 356 750 356 753 Q 356 756 351 764 Q 344 772 301 781 Q 283 782 283 770 Q 283 765 285 757 L 289 747 Q 294 736 295 718 L 297 703 L 295 667 L 297 614 C 298 584 336 590 339 620 Z" fill="black"></path>
				<path d="M 484 604 Q 484 622 450 630 L 431 635 Q 425 636 413 634 L 339 620 L 297 614 L 146 592 Q 133 590 133 585 Q 133 579 137 578 L 148 572 Q 152 568 166 565 Q 181 561 203 566 Q 213 570 257 576 L 303 584 L 453 596 Q 481 596 484 604 Z" fill="black"></path>
				<path d="M 439 499 L 437 506 Q 432 511 417 518 Q 402 524 396 524 L 373 517 Q 354 509 339 508 L 292 496 L 208 485 Q 198 484 196 482 Q 195 479 199 471 Q 204 463 219 460 Q 234 456 247 458 L 293 464 L 337 472 L 354 474 Q 424 484 431 491 Q 437 494 439 499 Z" fill="black"></path>
				<path d="M 339 508 L 341 519 L 347 536 Q 348 543 343 548 Q 339 555 311 563 Q 283 570 281 559 Q 277 556 282 546 L 287 537 Q 289 534 290 524 L 292 511 L 292 496 L 293 464 L 295 400 C 296 370 328 379 331 409 L 337 472 L 339 508 Z" fill="black"></path>
				<path d="M 295 400 L 221 385 Q 217 384 196 382 L 183 382 L 166 380 Q 163 382 149 382 L 133 384 Q 119 384 119 376 Q 119 365 138 344 Q 172 316 179 319 L 187 319 Q 189 319 217 333 Q 245 347 276 358 L 449 416 Q 461 420 457 427 Q 453 433 444 432 L 331 409 L 295 400 Z" fill="black"></path>
				<path d="M 765 642 L 889 649 Q 898 650 900 652 Q 903 656 900 664 Q 894 672 867 686 Q 841 700 813 690 L 770 683 L 717 673 L 679 666 L 520 648 Q 511 648 509 644 Q 508 640 515 634 Q 523 627 538 620 Q 553 612 565 615 L 721 638 L 765 642 Z" fill="black"></path>
				<path d="M 721 638 L 719 554 L 715 471 Q 711 454 700 454 Q 697 454 685 457 L 669 460 L 656 464 Q 645 467 643 462 Q 642 458 649 452 L 658 442 Q 676 422 685 411 L 707 380 Q 711 368 723 368 Q 735 364 749 385 Q 767 415 767 460 Q 767 476 764 506 Q 761 535 763 556 L 765 642 L 770 683 L 772 696 Q 772 704 777 716 Q 782 727 781 732 Q 779 745 737 763 L 711 768 Q 705 769 701 764 Q 697 758 702 747 Q 708 736 709 732 Q 711 727 714 722 Q 717 716 717 696 L 717 673 L 721 638 Z" fill="black"></path>
				<path d="M 586 577 L 562 583 Q 555 584 553 579 Q 551 574 554 570 L 565 552 Q 578 525 604 491 Q 621 472 635 486 Q 656 521 638 547 Q 621 568 586 577 Z" fill="black"></path>
				<path d="M 465 355 L 515 394 L 545 410 Q 553 417 554 421 Q 556 425 549 432 Q 547 436 537 442 Q 518 458 499 462 Q 481 465 478 462 Q 475 458 475 450 L 475 435 Q 474 417 457 394 L 419 350 C 399 327 441 337 465 355 Z" fill="black"></path>
				<path d="M 320 343 Q 320 338 322 336 Q 345 323 354 298 L 360 270 L 370 207 Q 378 155 389 152 Q 403 148 411 161 L 413 192 L 406 246 L 402 274 L 396 322 C 394 341 394 341 371 346 L 356 349 Q 350 351 335 352 Q 320 353 320 343 Z" fill="black"></path>
				<path d="M 607 182 L 612 168 Q 619 145 636 161 Q 653 177 661 204 L 692 300 Q 698 318 705 328 Q 713 338 713 341 Q 713 344 706 353 Q 700 361 691 366 L 673 376 Q 655 386 643 386 Q 632 386 619 382 Q 607 377 593 376 L 465 355 L 419 350 L 371 346 C 341 344 366 318 396 322 L 559 344 L 604 346 Q 634 349 638 336 Q 640 331 638 317 L 630 281 L 625 265 L 621 243 Q 618 235 614 216 C 607 187 607 183 607 182 Z" fill="black"></path>
				<path d="M 578 298 L 563 297 L 499 286 L 402 274 C 372 270 376 244 406 246 L 595 261 Q 621 263 625 265 C 650 271 650 271 630 281 L 610 291 L 578 298 Z" fill="black"></path>
				<path d="M 411 161 L 469 165 L 530 173 L 607 182 C 637 185 644 213 614 216 L 595 218 Q 592 219 575 216 L 538 208 L 469 198 L 413 192 C 383 189 381 159 411 161 Z" fill="black"></path>
				<path d="M 334 97 L 314 106 L 289 113 Q 275 117 273 105 Q 273 102 277 92 Q 282 81 283 71 L 289 35 L 289 -18 L 285 -46 Q 284 -54 285 -61 Q 292 -80 302 -90 Q 309 -102 319 -92 Q 331 -82 333 -46 L 335 -28 Q 335 -14 337 -8 L 339 67 C 340 94 340 94 334 97 Z" fill="black"></path>
				<path d="M 475 111 L 334 97 C 304 94 309 63 339 67 L 477 84 L 526 85 L 656 93 Q 681 95 687 89 Q 692 81 692 62 Q 692 43 691 38 L 688 8 Q 688 5 683 -25 Q 675 -41 669 -42 Q 664 -44 631 -36 L 617 -32 Q 609 -31 605 -33 Q 602 -36 610 -44 L 630 -66 Q 636 -73 642 -84 Q 650 -94 653 -104 Q 657 -114 661 -118 L 670 -121 Q 679 -125 696 -117 Q 713 -109 728 -87 Q 743 -66 745 -40 L 752 36 Q 751 51 756 63 L 765 81 Q 772 92 772 97 Q 772 101 764 111 Q 756 120 740 126 Q 716 140 704 141 Q 692 142 665 136 Q 639 129 610 126 L 530 116 L 475 111 Z" fill="red"></path>
				<path d="M 469 165 L 475 111 L 477 84 L 473 -84 Q 469 -164 480 -183 L 486 -194 Q 488 -196 490 -196 L 494 -194 Q 497 -192 505 -166 L 515 -126 L 523 -31 L 526 85 L 530 116 L 532 137 L 539 158 L 539 164 Q 539 168 530 173 C 508 193 466 195 469 165 Z" fill="lightgray"></path>
</g>
		<text x="40" y="140" font-size="128" fill="#999999">16</text></g>
		<g id="id3:id1:id1" transform="matrix(1.0,0,0,1.0,1024,0.0)">			<g stroke="lightgray" stroke-width="4" transform="scale(4, 4)"> <rect x="0" y="0" width="256" height="256" fill="white" stroke-width="4"/></g>
			<g transform="scale(0.92, -0.92) translate(60, -920)">					<path d="M 344 674 L 377 679 Q 393 680 399 683 Q 405 685 407 685 Q 410 685 418 688 Q 427 690 427 695 L 429 699 Q 430 703 421 708 Q 414 714 397 719 Q 380 724 375 723 Q 373 721 363 719 Q 353 716 349 716 L 297 703 L 209 690 Q 190 687 204 675 Q 211 669 213 668 L 234 664 Q 255 662 259 663 L 295 667 L 344 674 Z" fill="black"></path>
				<path d="M 339 620 L 344 674 L 349 716 L 350 732 Q 356 750 356 753 Q 356 756 351 764 Q 344 772 301 781 Q 283 782 283 770 Q 283 765 285 757 L 289 747 Q 294 736 295 718 L 297 703 L 295 667 L 297 614 C 298 584 336 590 339 620 Z" fill="black"></path>
				<path d="M 484 604 Q 484 622 450 630 L 431 635 Q 425 636 413 634 L 339 620 L 297 614 L 146 592 Q 133 590 133 585 Q 133 579 137 578 L 148 572 Q 152 568 166 565 Q 181 561 203 566 Q 213 570 257 576 L 303 584 L 453 596 Q 481 596 484 604 Z" fill="black"></path>
				<path d="M 439 499 L 437 506 Q 432 511 417 518 Q 402 524 396 524 L 373 517 Q 354 509 339 508 L 292 496 L 208 485 Q 198 484 196 482 Q 195 479 199 471 Q 204 463 219 460 Q 234 456 247 458 L 293 464 L 337 472 L 354 474 Q 424 484 431 491 Q 437 494 439 499 Z" fill="black"></path>
				<path d="M 339 508 L 341 519 L 347 536 Q 348 543 343 548 Q 339 555 311 563 Q 283 570 281 559 Q 277 556 282 546 L 287 537 Q 289 534 290 524 L 292 511 L 292 496 L 293 464 L 295 400 C 296 370 328 379 331 409 L 337 472 L 339 508 Z" fill="black"></path>
				<path d="M 295 400 L 221 385 Q 217 384 196 382 L 183 382 L 166 380 Q 163 382 149 382 L 133 384 Q 119 384 119 376 Q 119 365 138 344 Q 172 316 179 319 L 187 319 Q 189 319 217 333 Q 245 347 276 358 L 449 416 Q 461 420 457 427 Q 453 433 444 432 L 331 409 L 295 400 Z" fill="black"></path>
				<path d="M 765 642 L 889 649 Q 898 650 900 652 Q 903 656 900 664 Q 894 672 867 686 Q 841 700 813 690 L 770 683 L 717 673 L 679 666 L 520 648 Q 511 648 509 644 Q 508 640 515 634 Q 523 627 538 620 Q 553 612 565 615 L 721 638 L 765 642 Z" fill="black"></path>
				<path d="M 721 638 L 719 554 L 715 471 Q 711 454 700 454 Q 697 454 685 457 L 669 460 L 656 464 Q 645 467 643 462 Q 642 458 649 452 L 658 442 Q 676 422 685 411 L 707 380 Q 711 368 723 368 Q 735 364 749 385 Q 767 415 767 460 Q 767 476 764 506 Q 761 535 763 556 L 765 642 L 770 683 L 772 696 Q 772 704 777 716 Q 782 727 781 732 Q 779 745 737 763 L 711 768 Q 705 769 701 764 Q 697 758 702 747 Q 708 736 709 732 Q 711 727 714 722 Q 717 716 717 696 L 717 673 L 721 638 Z" fill="black"></path>
				<path d="M 586 577 L 562 583 Q 555 584 553 579 Q 551 574 554 570 L 565 552 Q 578 525 604 491 Q 621 472 635 486 Q 656 521 638 547 Q 621 568 586 577 Z" fill="black"></path>
				<path d="M 465 355 L 515 394 L 545 410 Q 553 417 554 421 Q 556 425 549 432 Q 547 436 537 442 Q 518 458 499 462 Q 481 465 478 462 Q 475 458 475 450 L 475 435 Q 474 417 457 394 L 419 350 C 399 327 441 337 465 355 Z" fill="black"></path>
				<path d="M 320 343 Q 320 338 322 336 Q 345 323 354 298 L 360 270 L 370 207 Q 378 155 389 152 Q 403 148 411 161 L 413 192 L 406 246 L 402 274 L 396 322 C 394 341 394 341 371 346 L 356 349 Q 350 351 335 352 Q 320 353 320 343 Z" fill="black"></path>
				<path d="M 607 182 L 612 168 Q 619 145 636 161 Q 653 177 661 204 L 692 300 Q 698 318 705 328 Q 713 338 713 341 Q 713 344 706 353 Q 700 361 691 366 L 673 376 Q 655 386 643 386 Q 632 386 619 382 Q 607 377 593 376 L 465 355 L 419 350 L 371 346 C 341 344 366 318 396 322 L 559 344 L 604 346 Q 634 349 638 336 Q 640 331 638 317 L 630 281 L 625 265 L 621 243 Q 618 235 614 216 C 607 187 607 183 607 182 Z" fill="black"></path>
				<path d="M 578 298 L 563 297 L 499 286 L 402 274 C 372 270 376 244 406 246 L 595 261 Q 621 263 625 265 C 650 271 650 271 630 281 L 610 291 L 578 298 Z" fill="black"></path>
				<path d="M 411 161 L 469 165 L 530 173 L 607 182 C 637 185 644 213 614 216 L 595 218 Q 592 219 575 216 L 538 208 L 469 198 L 413 192 C 383 189 381 159 411 161 Z" fill="black"></path>
				<path d="M 334 97 L 314 106 L 289 113 Q 275 117 273 105 Q 273 102 277 92 Q 282 81 283 71 L 289 35 L 289 -18 L 285 -46 Q 284 -54 285 -61 Q 292 -80 302 -90 Q 309 -102 319 -92 Q 331 -82 333 -46 L 335 -28 Q 335 -14 337 -8 L 339 67 C 340 94 340 94 334 97 Z" fill="black"></path>
				<path d="M 475 111 L 334 97 C 304 94 309 63 339 67 L 477 84 L 526 85 L 656 93 Q 681 95 687 89 Q 692 81 692 62 Q 692 43 691 38 L 688 8 Q 688 5 683 -25 Q 675 -41 669 -42 Q 664 -44 631 -36 L 617 -32 Q 609 -31 605 -33 Q 602 -36 610 -44 L 630 -66 Q 636 -73 642 -84 Q 650 -94 653 -104 Q 657 -114 661 -118 L 670 -121 Q 679 -125 696 -117 Q 713 -109 728 -87 Q 743 -66 745 -40 L 752 36 Q 751 51 756 63 L 765 81 Q 772 92 772 97 Q 772 101 764 111 Q 756 120 740 126 Q 716 140 704 141 Q 692 142 665 136 Q 639 129 610 126 L 530 116 L 475 111 Z" fill="black"></path>
				<path d="M 469 165 L 475 111 L 477 84 L 473 -84 Q 469 -164 480 -183 L 486 -194 Q 488 -196 490 -196 L 494 -194 Q 497 -192 505 -166 L 515 -126 L 523 -31 L 526 85 L 530 116 L 532 137 L 539 158 L 539 164 Q 539 168 530 173 C 508 193 466 195 469 165 Z" fill="red"></path>
</g>
		<text x="40" y="140" font-size="128" fill="#999999">17</text></g>
		<g id="id3:id2:id2" transform="matrix(1.0,0,0,1.0,2048,0.0)">			<g stroke="white" stroke-width="4" transform="scale(4, 4)"> <rect x="1" y="1" width="255" height="255" fill="white" stroke-width="0"/></g>
</g>
		<g id="id3:id3:id3" transform="matrix(1.0,0,0,1.0,3072,0.0)">			<g stroke="white" stroke-width="4" transform="scale(4, 4)"> <rect x="1" y="1" width="255" height="255" fill="white" stroke-width="0"/></g>
</g>
		<g id="id3:id4:id4" transform="matrix(1.0,0,0,1.0,4096,0.0)">			<g stroke="white" stroke-width="4" transform="scale(4, 4)"> <rect x="1" y="1" width="255" height="255" fill="white" stroke-width="0"/></g>
</g>
</g>
</svg>
