<?xml version="1.0" standalone="no"?>
<!DOCTYPE svg PUBLIC "-//W3C//DTD SVG 1.1//EN"
 "http://www.w3.org/Graphics/SVG/1.1/DTD/svg11.dtd">
<!-- generate by Japanese dictionary app com.asnsami.kanjidictionary -->

<svg xmlns="http://www.w3.org/2000/svg" xmlns:sodipodi="http://sodipodi.sourceforge.net/DTD/sodipodi-0.dtd" version="1.1" width="640" height="128" viewBox="0 0 5120 1024">
	<g id="id0:id0" transform="translate(0.0,0)">
		<g id="id0:id0:id0" transform="matrix(1.0,0,0,1.0,0,0.0)">			<g stroke="lightgray" stroke-width="4" transform="scale(4, 4)"> <rect x="0" y="0" width="256" height="256" fill="white" stroke-width="4"/></g>
			<g transform="scale(0.92, -0.92) translate(60, -920)">					<path d="M 674 368 Q 780 375 920 358 Q 947 354 953 364 Q 963 379 949 393 Q 871 462 802 439 Q 763 430 715 424 Q 694 423 675 420 L 617 415 Q 496 405 400 392 L 341 386 Q 302 383 269 378 Q 167 365 92 366 Q 76 366 75 353 Q 74 340 95 323 Q 143 286 182 299 Q 248 326 336 336 L 396 344 Q 481 357 617 364 L 674 368 Z" fill="red"></path>
				<path d="M 400 392 Q 400 536 412 578 Q 419 600 399 608 Q 341 639 310 623 Q 295 616 306 600 Q 348 548 341 386 L 336 336 Q 303 146 174 26 L 144 -6 Q 131 -19 145 -19 Q 161 -18 198 5 Q 258 45 298 100 Q 379 199 396 344 L 400 392 Z" fill="lightgray"></path>
				<path d="M 617 364 Q 617 192 613 97 Q 607 -68 628 -104 Q 643 -120 652 -98 Q 671 -59 672 263 Q 673 320 674 368 L 675 420 Q 679 537 684 599 Q 685 630 703 658 Q 710 674 689 691 Q 664 710 619 723 Q 598 729 585 714 Q 575 705 588 693 Q 616 669 618 635 Q 618 556 617 415 L 617 364 Z" fill="lightgray"></path>
</g>
		<text x="40" y="140" font-size="128" fill="#999999">1</text></g>
		<g id="id0:id1:id1" transform="matrix(1.0,0,0,1.0,1024,0.0)">			<g stroke="lightgray" stroke-width="4" transform="scale(4, 4)"> <rect x="0" y="0" width="256" height="256" fill="white" stroke-width="4"/></g>
			<g transform="scale(0.92, -0.92) translate(60, -920)">					<path d="M 674 368 Q 780 375 920 358 Q 947 354 953 364 Q 963 379 949 393 Q 871 462 802 439 Q 763 430 715 424 Q 694 423 675 420 L 617 415 Q 496 405 400 392 L 341 386 Q 302 383 269 378 Q 167 365 92 366 Q 76 366 75 353 Q 74 340 95 323 Q 143 286 182 299 Q 248 326 336 336 L 396 344 Q 481 357 617 364 L 674 368 Z" fill="black"></path>
				<path d="M 400 392 Q 400 536 412 578 Q 419 600 399 608 Q 341 639 310 623 Q 295 616 306 600 Q 348 548 341 386 L 336 336 Q 303 146 174 26 L 144 -6 Q 131 -19 145 -19 Q 161 -18 198 5 Q 258 45 298 100 Q 379 199 396 344 L 400 392 Z" fill="red"></path>
				<path d="M 617 364 Q 617 192 613 97 Q 607 -68 628 -104 Q 643 -120 652 -98 Q 671 -59 672 263 Q 673 320 674 368 L 675 420 Q 679 537 684 599 Q 685 630 703 658 Q 710 674 689 691 Q 664 710 619 723 Q 598 729 585 714 Q 575 705 588 693 Q 616 669 618 635 Q 618 556 617 415 L 617 364 Z" fill="lightgray"></path>
</g>
		<text x="40" y="140" font-size="128" fill="#999999">2</text></g>
		<g id="id0:id2:id2" transform="matrix(1.0,0,0,1.0,2048,0.0)">			<g stroke="lightgray" stroke-width="4" transform="scale(4, 4)"> <rect x="0" y="0" width="256" height="256" fill="white" stroke-width="4"/></g>
			<g transform="scale(0.92, -0.92) translate(60, -920)">					<path d="M 674 368 Q 780 375 920 358 Q 947 354 953 364 Q 963 379 949 393 Q 871 462 802 439 Q 763 430 715 424 Q 694 423 675 420 L 617 415 Q 496 405 400 392 L 341 386 Q 302 383 269 378 Q 167 365 92 366 Q 76 366 75 353 Q 74 340 95 323 Q 143 286 182 299 Q 248 326 336 336 L 396 344 Q 481 357 617 364 L 674 368 Z" fill="black"></path>
				<path d="M 400 392 Q 400 536 412 578 Q 419 600 399 608 Q 341 639 310 623 Q 295 616 306 600 Q 348 548 341 386 L 336 336 Q 303 146 174 26 L 144 -6 Q 131 -19 145 -19 Q 161 -18 198 5 Q 258 45 298 100 Q 379 199 396 344 L 400 392 Z" fill="black"></path>
				<path d="M 617 364 Q 617 192 613 97 Q 607 -68 628 -104 Q 643 -120 652 -98 Q 671 -59 672 263 Q 673 320 674 368 L 675 420 Q 679 537 684 599 Q 685 630 703 658 Q 710 674 689 691 Q 664 710 619 723 Q 598 729 585 714 Q 575 705 588 693 Q 616 669 618 635 Q 618 556 617 415 L 617 364 Z" fill="red"></path>
</g>
		<text x="40" y="140" font-size="128" fill="#999999">3</text></g>
		<g id="id0:id3:id3" transform="matrix(1.0,0,0,1.0,3072,0.0)">			<g stroke="white" stroke-width="4" transform="scale(4, 4)"> <rect x="1" y="1" width="255" height="255" fill="white" stroke-width="0"/></g>
</g>
		<g id="id0:id4:id4" transform="matrix(1.0,0,0,1.0,4096,0.0)">			<g stroke="white" stroke-width="4" transform="scale(4, 4)"> <rect x="1" y="1" width="255" height="255" fill="white" stroke-width="0"/></g>
</g>
</g>
</svg>
