<?xml version="1.0" standalone="no"?>
<!DOCTYPE svg PUBLIC "-//W3C//DTD SVG 1.1//EN"
 "http://www.w3.org/Graphics/SVG/1.1/DTD/svg11.dtd">
<!-- generate by Japanese dictionary app com.asnsami.kanjidictionary -->

<svg xmlns="http://www.w3.org/2000/svg" xmlns:sodipodi="http://sodipodi.sourceforge.net/DTD/sodipodi-0.dtd" version="1.1" width="640" height="256" viewBox="0 0 5120 2048">
	<g id="id0:id0" transform="translate(0.0,0)">
		<g id="id0:id0:id0" transform="matrix(1.0,0,0,1.0,0,0.0)">			<g stroke="lightgray" stroke-width="4" transform="scale(4, 4)"> <rect x="0" y="0" width="256" height="256" fill="white" stroke-width="4"/></g>
			<g transform="scale(0.92, -0.92) translate(60, -920)">					<path d="M 134 448 Q 116 388 87 334 Q 69 295 91 264 Q 101 246 121 262 Q 169 305 167 391 Q 168 425 159 451 Q 153 458 147 460 Q 138 457 134 448 Z" fill="red"></path>
				<path d="M 299 467 Q 299 566 319 636 Q 334 663 308 680 Q 292 692 262 709 Q 238 725 217 710 Q 213 706 218 690 Q 249 642 251 577 Q 251 154 235 67 Q 231 45 224 21 Q 212 -21 239 -82 Q 246 -100 254 -103 Q 260 -110 268 -101 Q 275 -97 286 -76 Q 296 -51 295 -19 Q 294 27 299 436 L 299 467 Z" fill="lightgray"></path>
				<path d="M 299 436 Q 383 358 396 356 L 398 356 Q 408 357 413 369 Q 417 382 410 409 Q 404 436 312 466 Q 305 467 299 467 C 269 468 277 456 299 436 Z" fill="lightgray"></path>
				<path d="M 684 512 Q 760 525 875 529 Q 933 533 938 542 Q 942 555 924 568 Q 863 608 808 590 Q 676 557 424 509 Q 402 505 419 488 Q 435 473 455 469 Q 477 465 495 470 Q 558 491 631 503 L 684 512 Z" fill="lightgray"></path>
				<path d="M 634 349 Q 707 464 708 471 Q 707 477 704 483 Q 694 501 684 512 C 666 536 634 533 631 503 Q 632 475 594 390 L 571 349 Q 493 222 339 77 Q 332 73 332 65 Q 331 59 338 60 Q 428 76 592 290 L 634 349 Z" fill="lightgray"></path>
				<path d="M 592 290 Q 592 136 589 98 Q 583 46 571 -9 Q 558 -55 593 -107 Q 594 -111 599 -115 Q 618 -133 631 -103 Q 647 -60 646 -10 Q 640 240 647 297 Q 656 327 644 338 Q 640 344 634 349 L 594 390 Q 587 396 579 399 Q 569 400 563 393 Q 557 378 571 349 L 592 290 Z" fill="lightgray"></path>
				<path d="M 731 244 Q 789 195 858 122 Q 876 101 892 97 Q 902 96 909 107 Q 922 120 907 167 Q 894 218 731 277 Q 721 281 719 269 Q 719 254 731 244 Z" fill="lightgray"></path>
</g>
		<text x="40" y="140" font-size="128" fill="#999999">1</text></g>
		<g id="id0:id1:id1" transform="matrix(1.0,0,0,1.0,1024,0.0)">			<g stroke="lightgray" stroke-width="4" transform="scale(4, 4)"> <rect x="0" y="0" width="256" height="256" fill="white" stroke-width="4"/></g>
			<g transform="scale(0.92, -0.92) translate(60, -920)">					<path d="M 134 448 Q 116 388 87 334 Q 69 295 91 264 Q 101 246 121 262 Q 169 305 167 391 Q 168 425 159 451 Q 153 458 147 460 Q 138 457 134 448 Z" fill="black"></path>
				<path d="M 299 467 Q 299 566 319 636 Q 334 663 308 680 Q 292 692 262 709 Q 238 725 217 710 Q 213 706 218 690 Q 249 642 251 577 Q 251 154 235 67 Q 231 45 224 21 Q 212 -21 239 -82 Q 246 -100 254 -103 Q 260 -110 268 -101 Q 275 -97 286 -76 Q 296 -51 295 -19 Q 294 27 299 436 L 299 467 Z" fill="red"></path>
				<path d="M 299 436 Q 383 358 396 356 L 398 356 Q 408 357 413 369 Q 417 382 410 409 Q 404 436 312 466 Q 305 467 299 467 C 269 468 277 456 299 436 Z" fill="lightgray"></path>
				<path d="M 684 512 Q 760 525 875 529 Q 933 533 938 542 Q 942 555 924 568 Q 863 608 808 590 Q 676 557 424 509 Q 402 505 419 488 Q 435 473 455 469 Q 477 465 495 470 Q 558 491 631 503 L 684 512 Z" fill="lightgray"></path>
				<path d="M 634 349 Q 707 464 708 471 Q 707 477 704 483 Q 694 501 684 512 C 666 536 634 533 631 503 Q 632 475 594 390 L 571 349 Q 493 222 339 77 Q 332 73 332 65 Q 331 59 338 60 Q 428 76 592 290 L 634 349 Z" fill="lightgray"></path>
				<path d="M 592 290 Q 592 136 589 98 Q 583 46 571 -9 Q 558 -55 593 -107 Q 594 -111 599 -115 Q 618 -133 631 -103 Q 647 -60 646 -10 Q 640 240 647 297 Q 656 327 644 338 Q 640 344 634 349 L 594 390 Q 587 396 579 399 Q 569 400 563 393 Q 557 378 571 349 L 592 290 Z" fill="lightgray"></path>
				<path d="M 731 244 Q 789 195 858 122 Q 876 101 892 97 Q 902 96 909 107 Q 922 120 907 167 Q 894 218 731 277 Q 721 281 719 269 Q 719 254 731 244 Z" fill="lightgray"></path>
</g>
		<text x="40" y="140" font-size="128" fill="#999999">2</text></g>
		<g id="id0:id2:id2" transform="matrix(1.0,0,0,1.0,2048,0.0)">			<g stroke="lightgray" stroke-width="4" transform="scale(4, 4)"> <rect x="0" y="0" width="256" height="256" fill="white" stroke-width="4"/></g>
			<g transform="scale(0.92, -0.92) translate(60, -920)">					<path d="M 134 448 Q 116 388 87 334 Q 69 295 91 264 Q 101 246 121 262 Q 169 305 167 391 Q 168 425 159 451 Q 153 458 147 460 Q 138 457 134 448 Z" fill="black"></path>
				<path d="M 299 467 Q 299 566 319 636 Q 334 663 308 680 Q 292 692 262 709 Q 238 725 217 710 Q 213 706 218 690 Q 249 642 251 577 Q 251 154 235 67 Q 231 45 224 21 Q 212 -21 239 -82 Q 246 -100 254 -103 Q 260 -110 268 -101 Q 275 -97 286 -76 Q 296 -51 295 -19 Q 294 27 299 436 L 299 467 Z" fill="black"></path>
				<path d="M 299 436 Q 383 358 396 356 L 398 356 Q 408 357 413 369 Q 417 382 410 409 Q 404 436 312 466 Q 305 467 299 467 C 269 468 277 456 299 436 Z" fill="red"></path>
				<path d="M 684 512 Q 760 525 875 529 Q 933 533 938 542 Q 942 555 924 568 Q 863 608 808 590 Q 676 557 424 509 Q 402 505 419 488 Q 435 473 455 469 Q 477 465 495 470 Q 558 491 631 503 L 684 512 Z" fill="lightgray"></path>
				<path d="M 634 349 Q 707 464 708 471 Q 707 477 704 483 Q 694 501 684 512 C 666 536 634 533 631 503 Q 632 475 594 390 L 571 349 Q 493 222 339 77 Q 332 73 332 65 Q 331 59 338 60 Q 428 76 592 290 L 634 349 Z" fill="lightgray"></path>
				<path d="M 592 290 Q 592 136 589 98 Q 583 46 571 -9 Q 558 -55 593 -107 Q 594 -111 599 -115 Q 618 -133 631 -103 Q 647 -60 646 -10 Q 640 240 647 297 Q 656 327 644 338 Q 640 344 634 349 L 594 390 Q 587 396 579 399 Q 569 400 563 393 Q 557 378 571 349 L 592 290 Z" fill="lightgray"></path>
				<path d="M 731 244 Q 789 195 858 122 Q 876 101 892 97 Q 902 96 909 107 Q 922 120 907 167 Q 894 218 731 277 Q 721 281 719 269 Q 719 254 731 244 Z" fill="lightgray"></path>
</g>
		<text x="40" y="140" font-size="128" fill="#999999">3</text></g>
		<g id="id0:id3:id3" transform="matrix(1.0,0,0,1.0,3072,0.0)">			<g stroke="lightgray" stroke-width="4" transform="scale(4, 4)"> <rect x="0" y="0" width="256" height="256" fill="white" stroke-width="4"/></g>
			<g transform="scale(0.92, -0.92) translate(60, -920)">					<path d="M 134 448 Q 116 388 87 334 Q 69 295 91 264 Q 101 246 121 262 Q 169 305 167 391 Q 168 425 159 451 Q 153 458 147 460 Q 138 457 134 448 Z" fill="black"></path>
				<path d="M 299 467 Q 299 566 319 636 Q 334 663 308 680 Q 292 692 262 709 Q 238 725 217 710 Q 213 706 218 690 Q 249 642 251 577 Q 251 154 235 67 Q 231 45 224 21 Q 212 -21 239 -82 Q 246 -100 254 -103 Q 260 -110 268 -101 Q 275 -97 286 -76 Q 296 -51 295 -19 Q 294 27 299 436 L 299 467 Z" fill="black"></path>
				<path d="M 299 436 Q 383 358 396 356 L 398 356 Q 408 357 413 369 Q 417 382 410 409 Q 404 436 312 466 Q 305 467 299 467 C 269 468 277 456 299 436 Z" fill="black"></path>
				<path d="M 684 512 Q 760 525 875 529 Q 933 533 938 542 Q 942 555 924 568 Q 863 608 808 590 Q 676 557 424 509 Q 402 505 419 488 Q 435 473 455 469 Q 477 465 495 470 Q 558 491 631 503 L 684 512 Z" fill="red"></path>
				<path d="M 634 349 Q 707 464 708 471 Q 707 477 704 483 Q 694 501 684 512 C 666 536 634 533 631 503 Q 632 475 594 390 L 571 349 Q 493 222 339 77 Q 332 73 332 65 Q 331 59 338 60 Q 428 76 592 290 L 634 349 Z" fill="lightgray"></path>
				<path d="M 592 290 Q 592 136 589 98 Q 583 46 571 -9 Q 558 -55 593 -107 Q 594 -111 599 -115 Q 618 -133 631 -103 Q 647 -60 646 -10 Q 640 240 647 297 Q 656 327 644 338 Q 640 344 634 349 L 594 390 Q 587 396 579 399 Q 569 400 563 393 Q 557 378 571 349 L 592 290 Z" fill="lightgray"></path>
				<path d="M 731 244 Q 789 195 858 122 Q 876 101 892 97 Q 902 96 909 107 Q 922 120 907 167 Q 894 218 731 277 Q 721 281 719 269 Q 719 254 731 244 Z" fill="lightgray"></path>
</g>
		<text x="40" y="140" font-size="128" fill="#999999">4</text></g>
		<g id="id0:id4:id4" transform="matrix(1.0,0,0,1.0,4096,0.0)">			<g stroke="lightgray" stroke-width="4" transform="scale(4, 4)"> <rect x="0" y="0" width="256" height="256" fill="white" stroke-width="4"/></g>
			<g transform="scale(0.92, -0.92) translate(60, -920)">					<path d="M 134 448 Q 116 388 87 334 Q 69 295 91 264 Q 101 246 121 262 Q 169 305 167 391 Q 168 425 159 451 Q 153 458 147 460 Q 138 457 134 448 Z" fill="black"></path>
				<path d="M 299 467 Q 299 566 319 636 Q 334 663 308 680 Q 292 692 262 709 Q 238 725 217 710 Q 213 706 218 690 Q 249 642 251 577 Q 251 154 235 67 Q 231 45 224 21 Q 212 -21 239 -82 Q 246 -100 254 -103 Q 260 -110 268 -101 Q 275 -97 286 -76 Q 296 -51 295 -19 Q 294 27 299 436 L 299 467 Z" fill="black"></path>
				<path d="M 299 436 Q 383 358 396 356 L 398 356 Q 408 357 413 369 Q 417 382 410 409 Q 404 436 312 466 Q 305 467 299 467 C 269 468 277 456 299 436 Z" fill="black"></path>
				<path d="M 684 512 Q 760 525 875 529 Q 933 533 938 542 Q 942 555 924 568 Q 863 608 808 590 Q 676 557 424 509 Q 402 505 419 488 Q 435 473 455 469 Q 477 465 495 470 Q 558 491 631 503 L 684 512 Z" fill="black"></path>
				<path d="M 634 349 Q 707 464 708 471 Q 707 477 704 483 Q 694 501 684 512 C 666 536 634 533 631 503 Q 632 475 594 390 L 571 349 Q 493 222 339 77 Q 332 73 332 65 Q 331 59 338 60 Q 428 76 592 290 L 634 349 Z" fill="red"></path>
				<path d="M 592 290 Q 592 136 589 98 Q 583 46 571 -9 Q 558 -55 593 -107 Q 594 -111 599 -115 Q 618 -133 631 -103 Q 647 -60 646 -10 Q 640 240 647 297 Q 656 327 644 338 Q 640 344 634 349 L 594 390 Q 587 396 579 399 Q 569 400 563 393 Q 557 378 571 349 L 592 290 Z" fill="lightgray"></path>
				<path d="M 731 244 Q 789 195 858 122 Q 876 101 892 97 Q 902 96 909 107 Q 922 120 907 167 Q 894 218 731 277 Q 721 281 719 269 Q 719 254 731 244 Z" fill="lightgray"></path>
</g>
		<text x="40" y="140" font-size="128" fill="#999999">5</text></g>
</g>
	<g id="id1:id1" transform="translate(0.0,1024)">
		<g id="id1:id0:id0" transform="matrix(1.0,0,0,1.0,0,0.0)">			<g stroke="lightgray" stroke-width="4" transform="scale(4, 4)"> <rect x="0" y="0" width="256" height="256" fill="white" stroke-width="4"/></g>
			<g transform="scale(0.92, -0.92) translate(60, -920)">					<path d="M 134 448 Q 116 388 87 334 Q 69 295 91 264 Q 101 246 121 262 Q 169 305 167 391 Q 168 425 159 451 Q 153 458 147 460 Q 138 457 134 448 Z" fill="black"></path>
				<path d="M 299 467 Q 299 566 319 636 Q 334 663 308 680 Q 292 692 262 709 Q 238 725 217 710 Q 213 706 218 690 Q 249 642 251 577 Q 251 154 235 67 Q 231 45 224 21 Q 212 -21 239 -82 Q 246 -100 254 -103 Q 260 -110 268 -101 Q 275 -97 286 -76 Q 296 -51 295 -19 Q 294 27 299 436 L 299 467 Z" fill="black"></path>
				<path d="M 299 436 Q 383 358 396 356 L 398 356 Q 408 357 413 369 Q 417 382 410 409 Q 404 436 312 466 Q 305 467 299 467 C 269 468 277 456 299 436 Z" fill="black"></path>
				<path d="M 684 512 Q 760 525 875 529 Q 933 533 938 542 Q 942 555 924 568 Q 863 608 808 590 Q 676 557 424 509 Q 402 505 419 488 Q 435 473 455 469 Q 477 465 495 470 Q 558 491 631 503 L 684 512 Z" fill="black"></path>
				<path d="M 634 349 Q 707 464 708 471 Q 707 477 704 483 Q 694 501 684 512 C 666 536 634 533 631 503 Q 632 475 594 390 L 571 349 Q 493 222 339 77 Q 332 73 332 65 Q 331 59 338 60 Q 428 76 592 290 L 634 349 Z" fill="black"></path>
				<path d="M 592 290 Q 592 136 589 98 Q 583 46 571 -9 Q 558 -55 593 -107 Q 594 -111 599 -115 Q 618 -133 631 -103 Q 647 -60 646 -10 Q 640 240 647 297 Q 656 327 644 338 Q 640 344 634 349 L 594 390 Q 587 396 579 399 Q 569 400 563 393 Q 557 378 571 349 L 592 290 Z" fill="red"></path>
				<path d="M 731 244 Q 789 195 858 122 Q 876 101 892 97 Q 902 96 909 107 Q 922 120 907 167 Q 894 218 731 277 Q 721 281 719 269 Q 719 254 731 244 Z" fill="lightgray"></path>
</g>
		<text x="40" y="140" font-size="128" fill="#999999">6</text></g>
		<g id="id1:id1:id1" transform="matrix(1.0,0,0,1.0,1024,0.0)">			<g stroke="lightgray" stroke-width="4" transform="scale(4, 4)"> <rect x="0" y="0" width="256" height="256" fill="white" stroke-width="4"/></g>
			<g transform="scale(0.92, -0.92) translate(60, -920)">					<path d="M 134 448 Q 116 388 87 334 Q 69 295 91 264 Q 101 246 121 262 Q 169 305 167 391 Q 168 425 159 451 Q 153 458 147 460 Q 138 457 134 448 Z" fill="black"></path>
				<path d="M 299 467 Q 299 566 319 636 Q 334 663 308 680 Q 292 692 262 709 Q 238 725 217 710 Q 213 706 218 690 Q 249 642 251 577 Q 251 154 235 67 Q 231 45 224 21 Q 212 -21 239 -82 Q 246 -100 254 -103 Q 260 -110 268 -101 Q 275 -97 286 -76 Q 296 -51 295 -19 Q 294 27 299 436 L 299 467 Z" fill="black"></path>
				<path d="M 299 436 Q 383 358 396 356 L 398 356 Q 408 357 413 369 Q 417 382 410 409 Q 404 436 312 466 Q 305 467 299 467 C 269 468 277 456 299 436 Z" fill="black"></path>
				<path d="M 684 512 Q 760 525 875 529 Q 933 533 938 542 Q 942 555 924 568 Q 863 608 808 590 Q 676 557 424 509 Q 402 505 419 488 Q 435 473 455 469 Q 477 465 495 470 Q 558 491 631 503 L 684 512 Z" fill="black"></path>
				<path d="M 634 349 Q 707 464 708 471 Q 707 477 704 483 Q 694 501 684 512 C 666 536 634 533 631 503 Q 632 475 594 390 L 571 349 Q 493 222 339 77 Q 332 73 332 65 Q 331 59 338 60 Q 428 76 592 290 L 634 349 Z" fill="black"></path>
				<path d="M 592 290 Q 592 136 589 98 Q 583 46 571 -9 Q 558 -55 593 -107 Q 594 -111 599 -115 Q 618 -133 631 -103 Q 647 -60 646 -10 Q 640 240 647 297 Q 656 327 644 338 Q 640 344 634 349 L 594 390 Q 587 396 579 399 Q 569 400 563 393 Q 557 378 571 349 L 592 290 Z" fill="black"></path>
				<path d="M 731 244 Q 789 195 858 122 Q 876 101 892 97 Q 902 96 909 107 Q 922 120 907 167 Q 894 218 731 277 Q 721 281 719 269 Q 719 254 731 244 Z" fill="red"></path>
</g>
		<text x="40" y="140" font-size="128" fill="#999999">7</text></g>
		<g id="id1:id2:id2" transform="matrix(1.0,0,0,1.0,2048,0.0)">			<g stroke="white" stroke-width="4" transform="scale(4, 4)"> <rect x="1" y="1" width="255" height="255" fill="white" stroke-width="0"/></g>
</g>
		<g id="id1:id3:id3" transform="matrix(1.0,0,0,1.0,3072,0.0)">			<g stroke="white" stroke-width="4" transform="scale(4, 4)"> <rect x="1" y="1" width="255" height="255" fill="white" stroke-width="0"/></g>
</g>
		<g id="id1:id4:id4" transform="matrix(1.0,0,0,1.0,4096,0.0)">			<g stroke="white" stroke-width="4" transform="scale(4, 4)"> <rect x="1" y="1" width="255" height="255" fill="white" stroke-width="0"/></g>
</g>
</g>
</svg>
