<?xml version="1.0" standalone="no"?>
<!DOCTYPE svg PUBLIC "-//W3C//DTD SVG 1.1//EN"
 "http://www.w3.org/Graphics/SVG/1.1/DTD/svg11.dtd">
<!-- generate by Japanese dictionary app com.asnsami.kanjidictionary -->

<svg xmlns="http://www.w3.org/2000/svg" xmlns:sodipodi="http://sodipodi.sourceforge.net/DTD/sodipodi-0.dtd" version="1.1" width="640" height="384" viewBox="0 0 5120 3072">
	<g id="id0:id0" transform="translate(0.0,0)">
		<g id="id0:id0:id0" transform="matrix(1.0,0,0,1.0,0,0.0)">			<g stroke="lightgray" stroke-width="4" transform="scale(4, 4)"> <rect x="0" y="0" width="256" height="256" fill="white" stroke-width="4"/></g>
			<g transform="scale(0.92, -0.92) translate(60, -920)">					<path d="M 183 440 L 92 426 Q 87 426 85 420 Q 81 410 121 398 L 145 396 L 206 405 L 251 412 L 268 414 L 305 422 Q 329 426 337 432 Q 346 438 346 442 Q 346 446 339 453 Q 332 459 316 464 Q 301 468 290 468 L 254 457 L 205 446 L 183 440 Z" fill="red"></path>
				<path d="M 206 405 L 202 280 L 199 222 L 193 93 L 189 49 Q 186 27 178 22 Q 170 16 165 15 Q 161 13 135 22 L 118 26 L 97 33 Q 91 34 89 30 Q 88 26 93 21 L 136 -19 L 155 -42 Q 167 -55 176 -70 L 185 -84 Q 194 -97 214 -80 Q 239 -57 247 -11 Q 249 19 249 36 L 247 124 L 247 264 L 248 306 L 251 412 L 254 457 L 257 519 Q 257 529 261 550 Q 261 574 269 600 Q 278 625 281 628 L 287 638 L 290 650 Q 290 670 253 692 Q 217 713 190 706 Q 181 699 189 671 Q 197 652 203 600 L 205 553 L 205 446 L 206 405 Z" fill="lightgray"></path>
				<path d="M 202 280 L 129 236 L 74 206 Q 56 196 50 196 L 35 192 L 29 189 Q 25 174 46 157 L 67 140 Q 89 124 106 133 Q 112 142 142 171 L 199 222 L 247 264 L 323 332 Q 338 344 333 351 Q 329 357 315 349 L 248 306 L 202 280 Z" fill="lightgray"></path>
				<path d="M 445 523 L 495 609 L 509 630 Q 517 642 523 647 L 531 657 Q 530 670 509 685 Q 459 714 459 693 Q 461 692 461 684 Q 465 666 460 648 L 427 521 C 419 492 430 497 445 523 Z" fill="lightgray"></path>
				<path d="M 427 521 L 413 518 L 396 524 Q 374 533 368 528 Q 363 523 365 511 L 371 491 Q 378 472 380 388 L 377 274 L 374 228 L 369 194 L 357 141 Q 356 132 342 94 Q 328 55 316 34 L 277 -23 Q 270 -33 272 -37 Q 275 -41 286 -34 L 301 -23 Q 317 -11 336 11 Q 356 32 381 82 Q 406 131 417 214 L 421 248 L 423 282 L 427 418 Q 427 443 430 456 Q 433 477 434 478 Q 434 490 435 497 C 436 522 436 522 427 521 Z" fill="lightgray"></path>
				<path d="M 564 -35 L 571 -11 Q 579 11 579 67 L 577 296 L 577 318 L 578 410 L 580 441 Q 582 469 583 475 L 592 495 L 596 507 Q 598 513 594 517 Q 594 523 575 536 Q 557 549 547 550 Q 539 555 534 553 L 510 546 L 483 535 L 445 523 C 416 514 400 489 435 497 L 499 511 Q 511 514 518 507 Q 526 499 527 489 Q 529 479 529 447 L 531 306 L 531 281 L 529 144 L 525 76 Q 524 42 517 25 Q 510 8 501 6 Q 487 4 471 8 L 445 14 Q 439 15 434 12 Q 432 10 439 2 L 455 -12 L 472 -30 L 491 -55 Q 499 -65 509 -75 Q 517 -81 532 -70 Q 542 -68 551 -54 Q 560 -42 564 -35 Z" fill="lightgray"></path>
				<path d="M 437 422 L 450 391 L 463 364 Q 478 331 499 351 Q 507 359 506 376 Q 505 392 497 404 Q 489 413 477 420 L 457 428 Q 450 432 442 432 Q 429 433 437 422 Z" fill="lightgray"></path>
				<path d="M 430 214 L 457 156 L 467 139 Q 469 136 476 136 Q 484 136 492 144 Q 501 151 500 169 Q 499 186 492 197 Q 486 207 465 216 L 451 220 Q 440 224 433 224 Q 426 224 430 214 Z" fill="lightgray"></path>
				<path d="M 577 296 L 598 302 Q 611 303 608 314 Q 606 322 594 320 L 577 318 L 531 306 L 423 282 L 377 274 L 334 270 L 313 272 Q 303 272 299 274 L 293 275 Q 287 274 285 270 Q 283 265 285 261 Q 287 256 301 242 Q 303 241 321 226 L 335 218 Q 344 216 347 217 L 359 220 L 374 228 L 421 248 L 531 281 L 577 296 Z" fill="lightgray"></path>
				<path d="M 689 472 L 695 528 Q 697 546 697 553 C 698 574 698 574 687 579 L 657 592 Q 651 597 633 589 Q 630 586 632 582 L 636 572 Q 643 565 645 556 L 648 533 Q 648 510 643 465 Q 639 419 613 368 L 605 354 Q 601 343 602 340 Q 606 338 613 342 L 626 353 Q 646 368 657 388 Q 676 416 689 472 Z" fill="lightgray"></path>
				<path d="M 697 553 L 739 566 Q 754 572 761 567 Q 768 562 766 537 L 761 452 Q 759 425 761 411 Q 763 396 775 380 Q 787 363 829 354 Q 862 352 871 353 Q 926 356 937 367 Q 946 373 947 383 Q 949 393 938 402 Q 927 410 910 414 Q 893 418 875 412 L 850 403 Q 822 396 812 403 Q 802 410 802 443 Q 802 476 809 502 L 833 550 L 840 560 Q 854 582 821 599 Q 812 600 800 608 Q 791 612 783 614 L 766 616 L 753 611 L 687 579 C 660 566 668 544 697 553 Z" fill="lightgray"></path>
				<path d="M 726 93 L 707 71 L 666 29 Q 647 9 607 -14 L 585 -26 Q 577 -31 578 -35 Q 580 -39 589 -38 L 611 -33 Q 623 -30 641 -23 L 672 -9 L 705 13 L 733 36 Q 741 42 753 54 L 782 94 L 795 116 L 850 253 Q 854 258 862 266 Q 871 273 871 281 Q 871 288 862 297 Q 853 305 843 309 Q 834 312 824 317 Q 815 321 810 317 L 795 310 Q 775 299 717 284 L 676 275 Q 650 270 645 271 C 615 268 644 231 673 240 L 772 272 Q 779 275 785 273 Q 794 264 785 240 L 775 202 Q 774 187 760 156 L 749 130 L 726 93 Z" fill="lightgray"></path>
				<path d="M 655 212 L 726 93 L 753 54 L 797 -10 Q 799 -17 810 -31 Q 822 -45 834 -51 Q 855 -66 949 -43 L 986 -32 Q 993 -31 992 -24 Q 991 -18 982 -15 L 916 7 L 873 26 Q 854 36 827 56 Q 800 76 782 94 L 749 130 L 726 160 Q 715 175 707 186 L 673 240 C 657 265 654 270 645 271 L 620 274 Q 613 274 611 273 Q 609 271 609 264 Q 609 257 620 249 Q 632 240 639 230 L 655 212 Z" fill="lightgray"></path>
</g>
		<text x="40" y="140" font-size="128" fill="#999999">1</text></g>
		<g id="id0:id1:id1" transform="matrix(1.0,0,0,1.0,1024,0.0)">			<g stroke="lightgray" stroke-width="4" transform="scale(4, 4)"> <rect x="0" y="0" width="256" height="256" fill="white" stroke-width="4"/></g>
			<g transform="scale(0.92, -0.92) translate(60, -920)">					<path d="M 183 440 L 92 426 Q 87 426 85 420 Q 81 410 121 398 L 145 396 L 206 405 L 251 412 L 268 414 L 305 422 Q 329 426 337 432 Q 346 438 346 442 Q 346 446 339 453 Q 332 459 316 464 Q 301 468 290 468 L 254 457 L 205 446 L 183 440 Z" fill="black"></path>
				<path d="M 206 405 L 202 280 L 199 222 L 193 93 L 189 49 Q 186 27 178 22 Q 170 16 165 15 Q 161 13 135 22 L 118 26 L 97 33 Q 91 34 89 30 Q 88 26 93 21 L 136 -19 L 155 -42 Q 167 -55 176 -70 L 185 -84 Q 194 -97 214 -80 Q 239 -57 247 -11 Q 249 19 249 36 L 247 124 L 247 264 L 248 306 L 251 412 L 254 457 L 257 519 Q 257 529 261 550 Q 261 574 269 600 Q 278 625 281 628 L 287 638 L 290 650 Q 290 670 253 692 Q 217 713 190 706 Q 181 699 189 671 Q 197 652 203 600 L 205 553 L 205 446 L 206 405 Z" fill="red"></path>
				<path d="M 202 280 L 129 236 L 74 206 Q 56 196 50 196 L 35 192 L 29 189 Q 25 174 46 157 L 67 140 Q 89 124 106 133 Q 112 142 142 171 L 199 222 L 247 264 L 323 332 Q 338 344 333 351 Q 329 357 315 349 L 248 306 L 202 280 Z" fill="lightgray"></path>
				<path d="M 445 523 L 495 609 L 509 630 Q 517 642 523 647 L 531 657 Q 530 670 509 685 Q 459 714 459 693 Q 461 692 461 684 Q 465 666 460 648 L 427 521 C 419 492 430 497 445 523 Z" fill="lightgray"></path>
				<path d="M 427 521 L 413 518 L 396 524 Q 374 533 368 528 Q 363 523 365 511 L 371 491 Q 378 472 380 388 L 377 274 L 374 228 L 369 194 L 357 141 Q 356 132 342 94 Q 328 55 316 34 L 277 -23 Q 270 -33 272 -37 Q 275 -41 286 -34 L 301 -23 Q 317 -11 336 11 Q 356 32 381 82 Q 406 131 417 214 L 421 248 L 423 282 L 427 418 Q 427 443 430 456 Q 433 477 434 478 Q 434 490 435 497 C 436 522 436 522 427 521 Z" fill="lightgray"></path>
				<path d="M 564 -35 L 571 -11 Q 579 11 579 67 L 577 296 L 577 318 L 578 410 L 580 441 Q 582 469 583 475 L 592 495 L 596 507 Q 598 513 594 517 Q 594 523 575 536 Q 557 549 547 550 Q 539 555 534 553 L 510 546 L 483 535 L 445 523 C 416 514 400 489 435 497 L 499 511 Q 511 514 518 507 Q 526 499 527 489 Q 529 479 529 447 L 531 306 L 531 281 L 529 144 L 525 76 Q 524 42 517 25 Q 510 8 501 6 Q 487 4 471 8 L 445 14 Q 439 15 434 12 Q 432 10 439 2 L 455 -12 L 472 -30 L 491 -55 Q 499 -65 509 -75 Q 517 -81 532 -70 Q 542 -68 551 -54 Q 560 -42 564 -35 Z" fill="lightgray"></path>
				<path d="M 437 422 L 450 391 L 463 364 Q 478 331 499 351 Q 507 359 506 376 Q 505 392 497 404 Q 489 413 477 420 L 457 428 Q 450 432 442 432 Q 429 433 437 422 Z" fill="lightgray"></path>
				<path d="M 430 214 L 457 156 L 467 139 Q 469 136 476 136 Q 484 136 492 144 Q 501 151 500 169 Q 499 186 492 197 Q 486 207 465 216 L 451 220 Q 440 224 433 224 Q 426 224 430 214 Z" fill="lightgray"></path>
				<path d="M 577 296 L 598 302 Q 611 303 608 314 Q 606 322 594 320 L 577 318 L 531 306 L 423 282 L 377 274 L 334 270 L 313 272 Q 303 272 299 274 L 293 275 Q 287 274 285 270 Q 283 265 285 261 Q 287 256 301 242 Q 303 241 321 226 L 335 218 Q 344 216 347 217 L 359 220 L 374 228 L 421 248 L 531 281 L 577 296 Z" fill="lightgray"></path>
				<path d="M 689 472 L 695 528 Q 697 546 697 553 C 698 574 698 574 687 579 L 657 592 Q 651 597 633 589 Q 630 586 632 582 L 636 572 Q 643 565 645 556 L 648 533 Q 648 510 643 465 Q 639 419 613 368 L 605 354 Q 601 343 602 340 Q 606 338 613 342 L 626 353 Q 646 368 657 388 Q 676 416 689 472 Z" fill="lightgray"></path>
				<path d="M 697 553 L 739 566 Q 754 572 761 567 Q 768 562 766 537 L 761 452 Q 759 425 761 411 Q 763 396 775 380 Q 787 363 829 354 Q 862 352 871 353 Q 926 356 937 367 Q 946 373 947 383 Q 949 393 938 402 Q 927 410 910 414 Q 893 418 875 412 L 850 403 Q 822 396 812 403 Q 802 410 802 443 Q 802 476 809 502 L 833 550 L 840 560 Q 854 582 821 599 Q 812 600 800 608 Q 791 612 783 614 L 766 616 L 753 611 L 687 579 C 660 566 668 544 697 553 Z" fill="lightgray"></path>
				<path d="M 726 93 L 707 71 L 666 29 Q 647 9 607 -14 L 585 -26 Q 577 -31 578 -35 Q 580 -39 589 -38 L 611 -33 Q 623 -30 641 -23 L 672 -9 L 705 13 L 733 36 Q 741 42 753 54 L 782 94 L 795 116 L 850 253 Q 854 258 862 266 Q 871 273 871 281 Q 871 288 862 297 Q 853 305 843 309 Q 834 312 824 317 Q 815 321 810 317 L 795 310 Q 775 299 717 284 L 676 275 Q 650 270 645 271 C 615 268 644 231 673 240 L 772 272 Q 779 275 785 273 Q 794 264 785 240 L 775 202 Q 774 187 760 156 L 749 130 L 726 93 Z" fill="lightgray"></path>
				<path d="M 655 212 L 726 93 L 753 54 L 797 -10 Q 799 -17 810 -31 Q 822 -45 834 -51 Q 855 -66 949 -43 L 986 -32 Q 993 -31 992 -24 Q 991 -18 982 -15 L 916 7 L 873 26 Q 854 36 827 56 Q 800 76 782 94 L 749 130 L 726 160 Q 715 175 707 186 L 673 240 C 657 265 654 270 645 271 L 620 274 Q 613 274 611 273 Q 609 271 609 264 Q 609 257 620 249 Q 632 240 639 230 L 655 212 Z" fill="lightgray"></path>
</g>
		<text x="40" y="140" font-size="128" fill="#999999">2</text></g>
		<g id="id0:id2:id2" transform="matrix(1.0,0,0,1.0,2048,0.0)">			<g stroke="lightgray" stroke-width="4" transform="scale(4, 4)"> <rect x="0" y="0" width="256" height="256" fill="white" stroke-width="4"/></g>
			<g transform="scale(0.92, -0.92) translate(60, -920)">					<path d="M 183 440 L 92 426 Q 87 426 85 420 Q 81 410 121 398 L 145 396 L 206 405 L 251 412 L 268 414 L 305 422 Q 329 426 337 432 Q 346 438 346 442 Q 346 446 339 453 Q 332 459 316 464 Q 301 468 290 468 L 254 457 L 205 446 L 183 440 Z" fill="black"></path>
				<path d="M 206 405 L 202 280 L 199 222 L 193 93 L 189 49 Q 186 27 178 22 Q 170 16 165 15 Q 161 13 135 22 L 118 26 L 97 33 Q 91 34 89 30 Q 88 26 93 21 L 136 -19 L 155 -42 Q 167 -55 176 -70 L 185 -84 Q 194 -97 214 -80 Q 239 -57 247 -11 Q 249 19 249 36 L 247 124 L 247 264 L 248 306 L 251 412 L 254 457 L 257 519 Q 257 529 261 550 Q 261 574 269 600 Q 278 625 281 628 L 287 638 L 290 650 Q 290 670 253 692 Q 217 713 190 706 Q 181 699 189 671 Q 197 652 203 600 L 205 553 L 205 446 L 206 405 Z" fill="black"></path>
				<path d="M 202 280 L 129 236 L 74 206 Q 56 196 50 196 L 35 192 L 29 189 Q 25 174 46 157 L 67 140 Q 89 124 106 133 Q 112 142 142 171 L 199 222 L 247 264 L 323 332 Q 338 344 333 351 Q 329 357 315 349 L 248 306 L 202 280 Z" fill="red"></path>
				<path d="M 445 523 L 495 609 L 509 630 Q 517 642 523 647 L 531 657 Q 530 670 509 685 Q 459 714 459 693 Q 461 692 461 684 Q 465 666 460 648 L 427 521 C 419 492 430 497 445 523 Z" fill="lightgray"></path>
				<path d="M 427 521 L 413 518 L 396 524 Q 374 533 368 528 Q 363 523 365 511 L 371 491 Q 378 472 380 388 L 377 274 L 374 228 L 369 194 L 357 141 Q 356 132 342 94 Q 328 55 316 34 L 277 -23 Q 270 -33 272 -37 Q 275 -41 286 -34 L 301 -23 Q 317 -11 336 11 Q 356 32 381 82 Q 406 131 417 214 L 421 248 L 423 282 L 427 418 Q 427 443 430 456 Q 433 477 434 478 Q 434 490 435 497 C 436 522 436 522 427 521 Z" fill="lightgray"></path>
				<path d="M 564 -35 L 571 -11 Q 579 11 579 67 L 577 296 L 577 318 L 578 410 L 580 441 Q 582 469 583 475 L 592 495 L 596 507 Q 598 513 594 517 Q 594 523 575 536 Q 557 549 547 550 Q 539 555 534 553 L 510 546 L 483 535 L 445 523 C 416 514 400 489 435 497 L 499 511 Q 511 514 518 507 Q 526 499 527 489 Q 529 479 529 447 L 531 306 L 531 281 L 529 144 L 525 76 Q 524 42 517 25 Q 510 8 501 6 Q 487 4 471 8 L 445 14 Q 439 15 434 12 Q 432 10 439 2 L 455 -12 L 472 -30 L 491 -55 Q 499 -65 509 -75 Q 517 -81 532 -70 Q 542 -68 551 -54 Q 560 -42 564 -35 Z" fill="lightgray"></path>
				<path d="M 437 422 L 450 391 L 463 364 Q 478 331 499 351 Q 507 359 506 376 Q 505 392 497 404 Q 489 413 477 420 L 457 428 Q 450 432 442 432 Q 429 433 437 422 Z" fill="lightgray"></path>
				<path d="M 430 214 L 457 156 L 467 139 Q 469 136 476 136 Q 484 136 492 144 Q 501 151 500 169 Q 499 186 492 197 Q 486 207 465 216 L 451 220 Q 440 224 433 224 Q 426 224 430 214 Z" fill="lightgray"></path>
				<path d="M 577 296 L 598 302 Q 611 303 608 314 Q 606 322 594 320 L 577 318 L 531 306 L 423 282 L 377 274 L 334 270 L 313 272 Q 303 272 299 274 L 293 275 Q 287 274 285 270 Q 283 265 285 261 Q 287 256 301 242 Q 303 241 321 226 L 335 218 Q 344 216 347 217 L 359 220 L 374 228 L 421 248 L 531 281 L 577 296 Z" fill="lightgray"></path>
				<path d="M 689 472 L 695 528 Q 697 546 697 553 C 698 574 698 574 687 579 L 657 592 Q 651 597 633 589 Q 630 586 632 582 L 636 572 Q 643 565 645 556 L 648 533 Q 648 510 643 465 Q 639 419 613 368 L 605 354 Q 601 343 602 340 Q 606 338 613 342 L 626 353 Q 646 368 657 388 Q 676 416 689 472 Z" fill="lightgray"></path>
				<path d="M 697 553 L 739 566 Q 754 572 761 567 Q 768 562 766 537 L 761 452 Q 759 425 761 411 Q 763 396 775 380 Q 787 363 829 354 Q 862 352 871 353 Q 926 356 937 367 Q 946 373 947 383 Q 949 393 938 402 Q 927 410 910 414 Q 893 418 875 412 L 850 403 Q 822 396 812 403 Q 802 410 802 443 Q 802 476 809 502 L 833 550 L 840 560 Q 854 582 821 599 Q 812 600 800 608 Q 791 612 783 614 L 766 616 L 753 611 L 687 579 C 660 566 668 544 697 553 Z" fill="lightgray"></path>
				<path d="M 726 93 L 707 71 L 666 29 Q 647 9 607 -14 L 585 -26 Q 577 -31 578 -35 Q 580 -39 589 -38 L 611 -33 Q 623 -30 641 -23 L 672 -9 L 705 13 L 733 36 Q 741 42 753 54 L 782 94 L 795 116 L 850 253 Q 854 258 862 266 Q 871 273 871 281 Q 871 288 862 297 Q 853 305 843 309 Q 834 312 824 317 Q 815 321 810 317 L 795 310 Q 775 299 717 284 L 676 275 Q 650 270 645 271 C 615 268 644 231 673 240 L 772 272 Q 779 275 785 273 Q 794 264 785 240 L 775 202 Q 774 187 760 156 L 749 130 L 726 93 Z" fill="lightgray"></path>
				<path d="M 655 212 L 726 93 L 753 54 L 797 -10 Q 799 -17 810 -31 Q 822 -45 834 -51 Q 855 -66 949 -43 L 986 -32 Q 993 -31 992 -24 Q 991 -18 982 -15 L 916 7 L 873 26 Q 854 36 827 56 Q 800 76 782 94 L 749 130 L 726 160 Q 715 175 707 186 L 673 240 C 657 265 654 270 645 271 L 620 274 Q 613 274 611 273 Q 609 271 609 264 Q 609 257 620 249 Q 632 240 639 230 L 655 212 Z" fill="lightgray"></path>
</g>
		<text x="40" y="140" font-size="128" fill="#999999">3</text></g>
		<g id="id0:id3:id3" transform="matrix(1.0,0,0,1.0,3072,0.0)">			<g stroke="lightgray" stroke-width="4" transform="scale(4, 4)"> <rect x="0" y="0" width="256" height="256" fill="white" stroke-width="4"/></g>
			<g transform="scale(0.92, -0.92) translate(60, -920)">					<path d="M 183 440 L 92 426 Q 87 426 85 420 Q 81 410 121 398 L 145 396 L 206 405 L 251 412 L 268 414 L 305 422 Q 329 426 337 432 Q 346 438 346 442 Q 346 446 339 453 Q 332 459 316 464 Q 301 468 290 468 L 254 457 L 205 446 L 183 440 Z" fill="black"></path>
				<path d="M 206 405 L 202 280 L 199 222 L 193 93 L 189 49 Q 186 27 178 22 Q 170 16 165 15 Q 161 13 135 22 L 118 26 L 97 33 Q 91 34 89 30 Q 88 26 93 21 L 136 -19 L 155 -42 Q 167 -55 176 -70 L 185 -84 Q 194 -97 214 -80 Q 239 -57 247 -11 Q 249 19 249 36 L 247 124 L 247 264 L 248 306 L 251 412 L 254 457 L 257 519 Q 257 529 261 550 Q 261 574 269 600 Q 278 625 281 628 L 287 638 L 290 650 Q 290 670 253 692 Q 217 713 190 706 Q 181 699 189 671 Q 197 652 203 600 L 205 553 L 205 446 L 206 405 Z" fill="black"></path>
				<path d="M 202 280 L 129 236 L 74 206 Q 56 196 50 196 L 35 192 L 29 189 Q 25 174 46 157 L 67 140 Q 89 124 106 133 Q 112 142 142 171 L 199 222 L 247 264 L 323 332 Q 338 344 333 351 Q 329 357 315 349 L 248 306 L 202 280 Z" fill="black"></path>
				<path d="M 445 523 L 495 609 L 509 630 Q 517 642 523 647 L 531 657 Q 530 670 509 685 Q 459 714 459 693 Q 461 692 461 684 Q 465 666 460 648 L 427 521 C 419 492 430 497 445 523 Z" fill="red"></path>
				<path d="M 427 521 L 413 518 L 396 524 Q 374 533 368 528 Q 363 523 365 511 L 371 491 Q 378 472 380 388 L 377 274 L 374 228 L 369 194 L 357 141 Q 356 132 342 94 Q 328 55 316 34 L 277 -23 Q 270 -33 272 -37 Q 275 -41 286 -34 L 301 -23 Q 317 -11 336 11 Q 356 32 381 82 Q 406 131 417 214 L 421 248 L 423 282 L 427 418 Q 427 443 430 456 Q 433 477 434 478 Q 434 490 435 497 C 436 522 436 522 427 521 Z" fill="lightgray"></path>
				<path d="M 564 -35 L 571 -11 Q 579 11 579 67 L 577 296 L 577 318 L 578 410 L 580 441 Q 582 469 583 475 L 592 495 L 596 507 Q 598 513 594 517 Q 594 523 575 536 Q 557 549 547 550 Q 539 555 534 553 L 510 546 L 483 535 L 445 523 C 416 514 400 489 435 497 L 499 511 Q 511 514 518 507 Q 526 499 527 489 Q 529 479 529 447 L 531 306 L 531 281 L 529 144 L 525 76 Q 524 42 517 25 Q 510 8 501 6 Q 487 4 471 8 L 445 14 Q 439 15 434 12 Q 432 10 439 2 L 455 -12 L 472 -30 L 491 -55 Q 499 -65 509 -75 Q 517 -81 532 -70 Q 542 -68 551 -54 Q 560 -42 564 -35 Z" fill="lightgray"></path>
				<path d="M 437 422 L 450 391 L 463 364 Q 478 331 499 351 Q 507 359 506 376 Q 505 392 497 404 Q 489 413 477 420 L 457 428 Q 450 432 442 432 Q 429 433 437 422 Z" fill="lightgray"></path>
				<path d="M 430 214 L 457 156 L 467 139 Q 469 136 476 136 Q 484 136 492 144 Q 501 151 500 169 Q 499 186 492 197 Q 486 207 465 216 L 451 220 Q 440 224 433 224 Q 426 224 430 214 Z" fill="lightgray"></path>
				<path d="M 577 296 L 598 302 Q 611 303 608 314 Q 606 322 594 320 L 577 318 L 531 306 L 423 282 L 377 274 L 334 270 L 313 272 Q 303 272 299 274 L 293 275 Q 287 274 285 270 Q 283 265 285 261 Q 287 256 301 242 Q 303 241 321 226 L 335 218 Q 344 216 347 217 L 359 220 L 374 228 L 421 248 L 531 281 L 577 296 Z" fill="lightgray"></path>
				<path d="M 689 472 L 695 528 Q 697 546 697 553 C 698 574 698 574 687 579 L 657 592 Q 651 597 633 589 Q 630 586 632 582 L 636 572 Q 643 565 645 556 L 648 533 Q 648 510 643 465 Q 639 419 613 368 L 605 354 Q 601 343 602 340 Q 606 338 613 342 L 626 353 Q 646 368 657 388 Q 676 416 689 472 Z" fill="lightgray"></path>
				<path d="M 697 553 L 739 566 Q 754 572 761 567 Q 768 562 766 537 L 761 452 Q 759 425 761 411 Q 763 396 775 380 Q 787 363 829 354 Q 862 352 871 353 Q 926 356 937 367 Q 946 373 947 383 Q 949 393 938 402 Q 927 410 910 414 Q 893 418 875 412 L 850 403 Q 822 396 812 403 Q 802 410 802 443 Q 802 476 809 502 L 833 550 L 840 560 Q 854 582 821 599 Q 812 600 800 608 Q 791 612 783 614 L 766 616 L 753 611 L 687 579 C 660 566 668 544 697 553 Z" fill="lightgray"></path>
				<path d="M 726 93 L 707 71 L 666 29 Q 647 9 607 -14 L 585 -26 Q 577 -31 578 -35 Q 580 -39 589 -38 L 611 -33 Q 623 -30 641 -23 L 672 -9 L 705 13 L 733 36 Q 741 42 753 54 L 782 94 L 795 116 L 850 253 Q 854 258 862 266 Q 871 273 871 281 Q 871 288 862 297 Q 853 305 843 309 Q 834 312 824 317 Q 815 321 810 317 L 795 310 Q 775 299 717 284 L 676 275 Q 650 270 645 271 C 615 268 644 231 673 240 L 772 272 Q 779 275 785 273 Q 794 264 785 240 L 775 202 Q 774 187 760 156 L 749 130 L 726 93 Z" fill="lightgray"></path>
				<path d="M 655 212 L 726 93 L 753 54 L 797 -10 Q 799 -17 810 -31 Q 822 -45 834 -51 Q 855 -66 949 -43 L 986 -32 Q 993 -31 992 -24 Q 991 -18 982 -15 L 916 7 L 873 26 Q 854 36 827 56 Q 800 76 782 94 L 749 130 L 726 160 Q 715 175 707 186 L 673 240 C 657 265 654 270 645 271 L 620 274 Q 613 274 611 273 Q 609 271 609 264 Q 609 257 620 249 Q 632 240 639 230 L 655 212 Z" fill="lightgray"></path>
</g>
		<text x="40" y="140" font-size="128" fill="#999999">4</text></g>
		<g id="id0:id4:id4" transform="matrix(1.0,0,0,1.0,4096,0.0)">			<g stroke="lightgray" stroke-width="4" transform="scale(4, 4)"> <rect x="0" y="0" width="256" height="256" fill="white" stroke-width="4"/></g>
			<g transform="scale(0.92, -0.92) translate(60, -920)">					<path d="M 183 440 L 92 426 Q 87 426 85 420 Q 81 410 121 398 L 145 396 L 206 405 L 251 412 L 268 414 L 305 422 Q 329 426 337 432 Q 346 438 346 442 Q 346 446 339 453 Q 332 459 316 464 Q 301 468 290 468 L 254 457 L 205 446 L 183 440 Z" fill="black"></path>
				<path d="M 206 405 L 202 280 L 199 222 L 193 93 L 189 49 Q 186 27 178 22 Q 170 16 165 15 Q 161 13 135 22 L 118 26 L 97 33 Q 91 34 89 30 Q 88 26 93 21 L 136 -19 L 155 -42 Q 167 -55 176 -70 L 185 -84 Q 194 -97 214 -80 Q 239 -57 247 -11 Q 249 19 249 36 L 247 124 L 247 264 L 248 306 L 251 412 L 254 457 L 257 519 Q 257 529 261 550 Q 261 574 269 600 Q 278 625 281 628 L 287 638 L 290 650 Q 290 670 253 692 Q 217 713 190 706 Q 181 699 189 671 Q 197 652 203 600 L 205 553 L 205 446 L 206 405 Z" fill="black"></path>
				<path d="M 202 280 L 129 236 L 74 206 Q 56 196 50 196 L 35 192 L 29 189 Q 25 174 46 157 L 67 140 Q 89 124 106 133 Q 112 142 142 171 L 199 222 L 247 264 L 323 332 Q 338 344 333 351 Q 329 357 315 349 L 248 306 L 202 280 Z" fill="black"></path>
				<path d="M 445 523 L 495 609 L 509 630 Q 517 642 523 647 L 531 657 Q 530 670 509 685 Q 459 714 459 693 Q 461 692 461 684 Q 465 666 460 648 L 427 521 C 419 492 430 497 445 523 Z" fill="black"></path>
				<path d="M 427 521 L 413 518 L 396 524 Q 374 533 368 528 Q 363 523 365 511 L 371 491 Q 378 472 380 388 L 377 274 L 374 228 L 369 194 L 357 141 Q 356 132 342 94 Q 328 55 316 34 L 277 -23 Q 270 -33 272 -37 Q 275 -41 286 -34 L 301 -23 Q 317 -11 336 11 Q 356 32 381 82 Q 406 131 417 214 L 421 248 L 423 282 L 427 418 Q 427 443 430 456 Q 433 477 434 478 Q 434 490 435 497 C 436 522 436 522 427 521 Z" fill="red"></path>
				<path d="M 564 -35 L 571 -11 Q 579 11 579 67 L 577 296 L 577 318 L 578 410 L 580 441 Q 582 469 583 475 L 592 495 L 596 507 Q 598 513 594 517 Q 594 523 575 536 Q 557 549 547 550 Q 539 555 534 553 L 510 546 L 483 535 L 445 523 C 416 514 400 489 435 497 L 499 511 Q 511 514 518 507 Q 526 499 527 489 Q 529 479 529 447 L 531 306 L 531 281 L 529 144 L 525 76 Q 524 42 517 25 Q 510 8 501 6 Q 487 4 471 8 L 445 14 Q 439 15 434 12 Q 432 10 439 2 L 455 -12 L 472 -30 L 491 -55 Q 499 -65 509 -75 Q 517 -81 532 -70 Q 542 -68 551 -54 Q 560 -42 564 -35 Z" fill="lightgray"></path>
				<path d="M 437 422 L 450 391 L 463 364 Q 478 331 499 351 Q 507 359 506 376 Q 505 392 497 404 Q 489 413 477 420 L 457 428 Q 450 432 442 432 Q 429 433 437 422 Z" fill="lightgray"></path>
				<path d="M 430 214 L 457 156 L 467 139 Q 469 136 476 136 Q 484 136 492 144 Q 501 151 500 169 Q 499 186 492 197 Q 486 207 465 216 L 451 220 Q 440 224 433 224 Q 426 224 430 214 Z" fill="lightgray"></path>
				<path d="M 577 296 L 598 302 Q 611 303 608 314 Q 606 322 594 320 L 577 318 L 531 306 L 423 282 L 377 274 L 334 270 L 313 272 Q 303 272 299 274 L 293 275 Q 287 274 285 270 Q 283 265 285 261 Q 287 256 301 242 Q 303 241 321 226 L 335 218 Q 344 216 347 217 L 359 220 L 374 228 L 421 248 L 531 281 L 577 296 Z" fill="lightgray"></path>
				<path d="M 689 472 L 695 528 Q 697 546 697 553 C 698 574 698 574 687 579 L 657 592 Q 651 597 633 589 Q 630 586 632 582 L 636 572 Q 643 565 645 556 L 648 533 Q 648 510 643 465 Q 639 419 613 368 L 605 354 Q 601 343 602 340 Q 606 338 613 342 L 626 353 Q 646 368 657 388 Q 676 416 689 472 Z" fill="lightgray"></path>
				<path d="M 697 553 L 739 566 Q 754 572 761 567 Q 768 562 766 537 L 761 452 Q 759 425 761 411 Q 763 396 775 380 Q 787 363 829 354 Q 862 352 871 353 Q 926 356 937 367 Q 946 373 947 383 Q 949 393 938 402 Q 927 410 910 414 Q 893 418 875 412 L 850 403 Q 822 396 812 403 Q 802 410 802 443 Q 802 476 809 502 L 833 550 L 840 560 Q 854 582 821 599 Q 812 600 800 608 Q 791 612 783 614 L 766 616 L 753 611 L 687 579 C 660 566 668 544 697 553 Z" fill="lightgray"></path>
				<path d="M 726 93 L 707 71 L 666 29 Q 647 9 607 -14 L 585 -26 Q 577 -31 578 -35 Q 580 -39 589 -38 L 611 -33 Q 623 -30 641 -23 L 672 -9 L 705 13 L 733 36 Q 741 42 753 54 L 782 94 L 795 116 L 850 253 Q 854 258 862 266 Q 871 273 871 281 Q 871 288 862 297 Q 853 305 843 309 Q 834 312 824 317 Q 815 321 810 317 L 795 310 Q 775 299 717 284 L 676 275 Q 650 270 645 271 C 615 268 644 231 673 240 L 772 272 Q 779 275 785 273 Q 794 264 785 240 L 775 202 Q 774 187 760 156 L 749 130 L 726 93 Z" fill="lightgray"></path>
				<path d="M 655 212 L 726 93 L 753 54 L 797 -10 Q 799 -17 810 -31 Q 822 -45 834 -51 Q 855 -66 949 -43 L 986 -32 Q 993 -31 992 -24 Q 991 -18 982 -15 L 916 7 L 873 26 Q 854 36 827 56 Q 800 76 782 94 L 749 130 L 726 160 Q 715 175 707 186 L 673 240 C 657 265 654 270 645 271 L 620 274 Q 613 274 611 273 Q 609 271 609 264 Q 609 257 620 249 Q 632 240 639 230 L 655 212 Z" fill="lightgray"></path>
</g>
		<text x="40" y="140" font-size="128" fill="#999999">5</text></g>
</g>
	<g id="id1:id1" transform="translate(0.0,1024)">
		<g id="id1:id0:id0" transform="matrix(1.0,0,0,1.0,0,0.0)">			<g stroke="lightgray" stroke-width="4" transform="scale(4, 4)"> <rect x="0" y="0" width="256" height="256" fill="white" stroke-width="4"/></g>
			<g transform="scale(0.92, -0.92) translate(60, -920)">					<path d="M 183 440 L 92 426 Q 87 426 85 420 Q 81 410 121 398 L 145 396 L 206 405 L 251 412 L 268 414 L 305 422 Q 329 426 337 432 Q 346 438 346 442 Q 346 446 339 453 Q 332 459 316 464 Q 301 468 290 468 L 254 457 L 205 446 L 183 440 Z" fill="black"></path>
				<path d="M 206 405 L 202 280 L 199 222 L 193 93 L 189 49 Q 186 27 178 22 Q 170 16 165 15 Q 161 13 135 22 L 118 26 L 97 33 Q 91 34 89 30 Q 88 26 93 21 L 136 -19 L 155 -42 Q 167 -55 176 -70 L 185 -84 Q 194 -97 214 -80 Q 239 -57 247 -11 Q 249 19 249 36 L 247 124 L 247 264 L 248 306 L 251 412 L 254 457 L 257 519 Q 257 529 261 550 Q 261 574 269 600 Q 278 625 281 628 L 287 638 L 290 650 Q 290 670 253 692 Q 217 713 190 706 Q 181 699 189 671 Q 197 652 203 600 L 205 553 L 205 446 L 206 405 Z" fill="black"></path>
				<path d="M 202 280 L 129 236 L 74 206 Q 56 196 50 196 L 35 192 L 29 189 Q 25 174 46 157 L 67 140 Q 89 124 106 133 Q 112 142 142 171 L 199 222 L 247 264 L 323 332 Q 338 344 333 351 Q 329 357 315 349 L 248 306 L 202 280 Z" fill="black"></path>
				<path d="M 445 523 L 495 609 L 509 630 Q 517 642 523 647 L 531 657 Q 530 670 509 685 Q 459 714 459 693 Q 461 692 461 684 Q 465 666 460 648 L 427 521 C 419 492 430 497 445 523 Z" fill="black"></path>
				<path d="M 427 521 L 413 518 L 396 524 Q 374 533 368 528 Q 363 523 365 511 L 371 491 Q 378 472 380 388 L 377 274 L 374 228 L 369 194 L 357 141 Q 356 132 342 94 Q 328 55 316 34 L 277 -23 Q 270 -33 272 -37 Q 275 -41 286 -34 L 301 -23 Q 317 -11 336 11 Q 356 32 381 82 Q 406 131 417 214 L 421 248 L 423 282 L 427 418 Q 427 443 430 456 Q 433 477 434 478 Q 434 490 435 497 C 436 522 436 522 427 521 Z" fill="black"></path>
				<path d="M 564 -35 L 571 -11 Q 579 11 579 67 L 577 296 L 577 318 L 578 410 L 580 441 Q 582 469 583 475 L 592 495 L 596 507 Q 598 513 594 517 Q 594 523 575 536 Q 557 549 547 550 Q 539 555 534 553 L 510 546 L 483 535 L 445 523 C 416 514 400 489 435 497 L 499 511 Q 511 514 518 507 Q 526 499 527 489 Q 529 479 529 447 L 531 306 L 531 281 L 529 144 L 525 76 Q 524 42 517 25 Q 510 8 501 6 Q 487 4 471 8 L 445 14 Q 439 15 434 12 Q 432 10 439 2 L 455 -12 L 472 -30 L 491 -55 Q 499 -65 509 -75 Q 517 -81 532 -70 Q 542 -68 551 -54 Q 560 -42 564 -35 Z" fill="red"></path>
				<path d="M 437 422 L 450 391 L 463 364 Q 478 331 499 351 Q 507 359 506 376 Q 505 392 497 404 Q 489 413 477 420 L 457 428 Q 450 432 442 432 Q 429 433 437 422 Z" fill="lightgray"></path>
				<path d="M 430 214 L 457 156 L 467 139 Q 469 136 476 136 Q 484 136 492 144 Q 501 151 500 169 Q 499 186 492 197 Q 486 207 465 216 L 451 220 Q 440 224 433 224 Q 426 224 430 214 Z" fill="lightgray"></path>
				<path d="M 577 296 L 598 302 Q 611 303 608 314 Q 606 322 594 320 L 577 318 L 531 306 L 423 282 L 377 274 L 334 270 L 313 272 Q 303 272 299 274 L 293 275 Q 287 274 285 270 Q 283 265 285 261 Q 287 256 301 242 Q 303 241 321 226 L 335 218 Q 344 216 347 217 L 359 220 L 374 228 L 421 248 L 531 281 L 577 296 Z" fill="lightgray"></path>
				<path d="M 689 472 L 695 528 Q 697 546 697 553 C 698 574 698 574 687 579 L 657 592 Q 651 597 633 589 Q 630 586 632 582 L 636 572 Q 643 565 645 556 L 648 533 Q 648 510 643 465 Q 639 419 613 368 L 605 354 Q 601 343 602 340 Q 606 338 613 342 L 626 353 Q 646 368 657 388 Q 676 416 689 472 Z" fill="lightgray"></path>
				<path d="M 697 553 L 739 566 Q 754 572 761 567 Q 768 562 766 537 L 761 452 Q 759 425 761 411 Q 763 396 775 380 Q 787 363 829 354 Q 862 352 871 353 Q 926 356 937 367 Q 946 373 947 383 Q 949 393 938 402 Q 927 410 910 414 Q 893 418 875 412 L 850 403 Q 822 396 812 403 Q 802 410 802 443 Q 802 476 809 502 L 833 550 L 840 560 Q 854 582 821 599 Q 812 600 800 608 Q 791 612 783 614 L 766 616 L 753 611 L 687 579 C 660 566 668 544 697 553 Z" fill="lightgray"></path>
				<path d="M 726 93 L 707 71 L 666 29 Q 647 9 607 -14 L 585 -26 Q 577 -31 578 -35 Q 580 -39 589 -38 L 611 -33 Q 623 -30 641 -23 L 672 -9 L 705 13 L 733 36 Q 741 42 753 54 L 782 94 L 795 116 L 850 253 Q 854 258 862 266 Q 871 273 871 281 Q 871 288 862 297 Q 853 305 843 309 Q 834 312 824 317 Q 815 321 810 317 L 795 310 Q 775 299 717 284 L 676 275 Q 650 270 645 271 C 615 268 644 231 673 240 L 772 272 Q 779 275 785 273 Q 794 264 785 240 L 775 202 Q 774 187 760 156 L 749 130 L 726 93 Z" fill="lightgray"></path>
				<path d="M 655 212 L 726 93 L 753 54 L 797 -10 Q 799 -17 810 -31 Q 822 -45 834 -51 Q 855 -66 949 -43 L 986 -32 Q 993 -31 992 -24 Q 991 -18 982 -15 L 916 7 L 873 26 Q 854 36 827 56 Q 800 76 782 94 L 749 130 L 726 160 Q 715 175 707 186 L 673 240 C 657 265 654 270 645 271 L 620 274 Q 613 274 611 273 Q 609 271 609 264 Q 609 257 620 249 Q 632 240 639 230 L 655 212 Z" fill="lightgray"></path>
</g>
		<text x="40" y="140" font-size="128" fill="#999999">6</text></g>
		<g id="id1:id1:id1" transform="matrix(1.0,0,0,1.0,1024,0.0)">			<g stroke="lightgray" stroke-width="4" transform="scale(4, 4)"> <rect x="0" y="0" width="256" height="256" fill="white" stroke-width="4"/></g>
			<g transform="scale(0.92, -0.92) translate(60, -920)">					<path d="M 183 440 L 92 426 Q 87 426 85 420 Q 81 410 121 398 L 145 396 L 206 405 L 251 412 L 268 414 L 305 422 Q 329 426 337 432 Q 346 438 346 442 Q 346 446 339 453 Q 332 459 316 464 Q 301 468 290 468 L 254 457 L 205 446 L 183 440 Z" fill="black"></path>
				<path d="M 206 405 L 202 280 L 199 222 L 193 93 L 189 49 Q 186 27 178 22 Q 170 16 165 15 Q 161 13 135 22 L 118 26 L 97 33 Q 91 34 89 30 Q 88 26 93 21 L 136 -19 L 155 -42 Q 167 -55 176 -70 L 185 -84 Q 194 -97 214 -80 Q 239 -57 247 -11 Q 249 19 249 36 L 247 124 L 247 264 L 248 306 L 251 412 L 254 457 L 257 519 Q 257 529 261 550 Q 261 574 269 600 Q 278 625 281 628 L 287 638 L 290 650 Q 290 670 253 692 Q 217 713 190 706 Q 181 699 189 671 Q 197 652 203 600 L 205 553 L 205 446 L 206 405 Z" fill="black"></path>
				<path d="M 202 280 L 129 236 L 74 206 Q 56 196 50 196 L 35 192 L 29 189 Q 25 174 46 157 L 67 140 Q 89 124 106 133 Q 112 142 142 171 L 199 222 L 247 264 L 323 332 Q 338 344 333 351 Q 329 357 315 349 L 248 306 L 202 280 Z" fill="black"></path>
				<path d="M 445 523 L 495 609 L 509 630 Q 517 642 523 647 L 531 657 Q 530 670 509 685 Q 459 714 459 693 Q 461 692 461 684 Q 465 666 460 648 L 427 521 C 419 492 430 497 445 523 Z" fill="black"></path>
				<path d="M 427 521 L 413 518 L 396 524 Q 374 533 368 528 Q 363 523 365 511 L 371 491 Q 378 472 380 388 L 377 274 L 374 228 L 369 194 L 357 141 Q 356 132 342 94 Q 328 55 316 34 L 277 -23 Q 270 -33 272 -37 Q 275 -41 286 -34 L 301 -23 Q 317 -11 336 11 Q 356 32 381 82 Q 406 131 417 214 L 421 248 L 423 282 L 427 418 Q 427 443 430 456 Q 433 477 434 478 Q 434 490 435 497 C 436 522 436 522 427 521 Z" fill="black"></path>
				<path d="M 564 -35 L 571 -11 Q 579 11 579 67 L 577 296 L 577 318 L 578 410 L 580 441 Q 582 469 583 475 L 592 495 L 596 507 Q 598 513 594 517 Q 594 523 575 536 Q 557 549 547 550 Q 539 555 534 553 L 510 546 L 483 535 L 445 523 C 416 514 400 489 435 497 L 499 511 Q 511 514 518 507 Q 526 499 527 489 Q 529 479 529 447 L 531 306 L 531 281 L 529 144 L 525 76 Q 524 42 517 25 Q 510 8 501 6 Q 487 4 471 8 L 445 14 Q 439 15 434 12 Q 432 10 439 2 L 455 -12 L 472 -30 L 491 -55 Q 499 -65 509 -75 Q 517 -81 532 -70 Q 542 -68 551 -54 Q 560 -42 564 -35 Z" fill="black"></path>
				<path d="M 437 422 L 450 391 L 463 364 Q 478 331 499 351 Q 507 359 506 376 Q 505 392 497 404 Q 489 413 477 420 L 457 428 Q 450 432 442 432 Q 429 433 437 422 Z" fill="red"></path>
				<path d="M 430 214 L 457 156 L 467 139 Q 469 136 476 136 Q 484 136 492 144 Q 501 151 500 169 Q 499 186 492 197 Q 486 207 465 216 L 451 220 Q 440 224 433 224 Q 426 224 430 214 Z" fill="lightgray"></path>
				<path d="M 577 296 L 598 302 Q 611 303 608 314 Q 606 322 594 320 L 577 318 L 531 306 L 423 282 L 377 274 L 334 270 L 313 272 Q 303 272 299 274 L 293 275 Q 287 274 285 270 Q 283 265 285 261 Q 287 256 301 242 Q 303 241 321 226 L 335 218 Q 344 216 347 217 L 359 220 L 374 228 L 421 248 L 531 281 L 577 296 Z" fill="lightgray"></path>
				<path d="M 689 472 L 695 528 Q 697 546 697 553 C 698 574 698 574 687 579 L 657 592 Q 651 597 633 589 Q 630 586 632 582 L 636 572 Q 643 565 645 556 L 648 533 Q 648 510 643 465 Q 639 419 613 368 L 605 354 Q 601 343 602 340 Q 606 338 613 342 L 626 353 Q 646 368 657 388 Q 676 416 689 472 Z" fill="lightgray"></path>
				<path d="M 697 553 L 739 566 Q 754 572 761 567 Q 768 562 766 537 L 761 452 Q 759 425 761 411 Q 763 396 775 380 Q 787 363 829 354 Q 862 352 871 353 Q 926 356 937 367 Q 946 373 947 383 Q 949 393 938 402 Q 927 410 910 414 Q 893 418 875 412 L 850 403 Q 822 396 812 403 Q 802 410 802 443 Q 802 476 809 502 L 833 550 L 840 560 Q 854 582 821 599 Q 812 600 800 608 Q 791 612 783 614 L 766 616 L 753 611 L 687 579 C 660 566 668 544 697 553 Z" fill="lightgray"></path>
				<path d="M 726 93 L 707 71 L 666 29 Q 647 9 607 -14 L 585 -26 Q 577 -31 578 -35 Q 580 -39 589 -38 L 611 -33 Q 623 -30 641 -23 L 672 -9 L 705 13 L 733 36 Q 741 42 753 54 L 782 94 L 795 116 L 850 253 Q 854 258 862 266 Q 871 273 871 281 Q 871 288 862 297 Q 853 305 843 309 Q 834 312 824 317 Q 815 321 810 317 L 795 310 Q 775 299 717 284 L 676 275 Q 650 270 645 271 C 615 268 644 231 673 240 L 772 272 Q 779 275 785 273 Q 794 264 785 240 L 775 202 Q 774 187 760 156 L 749 130 L 726 93 Z" fill="lightgray"></path>
				<path d="M 655 212 L 726 93 L 753 54 L 797 -10 Q 799 -17 810 -31 Q 822 -45 834 -51 Q 855 -66 949 -43 L 986 -32 Q 993 -31 992 -24 Q 991 -18 982 -15 L 916 7 L 873 26 Q 854 36 827 56 Q 800 76 782 94 L 749 130 L 726 160 Q 715 175 707 186 L 673 240 C 657 265 654 270 645 271 L 620 274 Q 613 274 611 273 Q 609 271 609 264 Q 609 257 620 249 Q 632 240 639 230 L 655 212 Z" fill="lightgray"></path>
</g>
		<text x="40" y="140" font-size="128" fill="#999999">7</text></g>
		<g id="id1:id2:id2" transform="matrix(1.0,0,0,1.0,2048,0.0)">			<g stroke="lightgray" stroke-width="4" transform="scale(4, 4)"> <rect x="0" y="0" width="256" height="256" fill="white" stroke-width="4"/></g>
			<g transform="scale(0.92, -0.92) translate(60, -920)">					<path d="M 183 440 L 92 426 Q 87 426 85 420 Q 81 410 121 398 L 145 396 L 206 405 L 251 412 L 268 414 L 305 422 Q 329 426 337 432 Q 346 438 346 442 Q 346 446 339 453 Q 332 459 316 464 Q 301 468 290 468 L 254 457 L 205 446 L 183 440 Z" fill="black"></path>
				<path d="M 206 405 L 202 280 L 199 222 L 193 93 L 189 49 Q 186 27 178 22 Q 170 16 165 15 Q 161 13 135 22 L 118 26 L 97 33 Q 91 34 89 30 Q 88 26 93 21 L 136 -19 L 155 -42 Q 167 -55 176 -70 L 185 -84 Q 194 -97 214 -80 Q 239 -57 247 -11 Q 249 19 249 36 L 247 124 L 247 264 L 248 306 L 251 412 L 254 457 L 257 519 Q 257 529 261 550 Q 261 574 269 600 Q 278 625 281 628 L 287 638 L 290 650 Q 290 670 253 692 Q 217 713 190 706 Q 181 699 189 671 Q 197 652 203 600 L 205 553 L 205 446 L 206 405 Z" fill="black"></path>
				<path d="M 202 280 L 129 236 L 74 206 Q 56 196 50 196 L 35 192 L 29 189 Q 25 174 46 157 L 67 140 Q 89 124 106 133 Q 112 142 142 171 L 199 222 L 247 264 L 323 332 Q 338 344 333 351 Q 329 357 315 349 L 248 306 L 202 280 Z" fill="black"></path>
				<path d="M 445 523 L 495 609 L 509 630 Q 517 642 523 647 L 531 657 Q 530 670 509 685 Q 459 714 459 693 Q 461 692 461 684 Q 465 666 460 648 L 427 521 C 419 492 430 497 445 523 Z" fill="black"></path>
				<path d="M 427 521 L 413 518 L 396 524 Q 374 533 368 528 Q 363 523 365 511 L 371 491 Q 378 472 380 388 L 377 274 L 374 228 L 369 194 L 357 141 Q 356 132 342 94 Q 328 55 316 34 L 277 -23 Q 270 -33 272 -37 Q 275 -41 286 -34 L 301 -23 Q 317 -11 336 11 Q 356 32 381 82 Q 406 131 417 214 L 421 248 L 423 282 L 427 418 Q 427 443 430 456 Q 433 477 434 478 Q 434 490 435 497 C 436 522 436 522 427 521 Z" fill="black"></path>
				<path d="M 564 -35 L 571 -11 Q 579 11 579 67 L 577 296 L 577 318 L 578 410 L 580 441 Q 582 469 583 475 L 592 495 L 596 507 Q 598 513 594 517 Q 594 523 575 536 Q 557 549 547 550 Q 539 555 534 553 L 510 546 L 483 535 L 445 523 C 416 514 400 489 435 497 L 499 511 Q 511 514 518 507 Q 526 499 527 489 Q 529 479 529 447 L 531 306 L 531 281 L 529 144 L 525 76 Q 524 42 517 25 Q 510 8 501 6 Q 487 4 471 8 L 445 14 Q 439 15 434 12 Q 432 10 439 2 L 455 -12 L 472 -30 L 491 -55 Q 499 -65 509 -75 Q 517 -81 532 -70 Q 542 -68 551 -54 Q 560 -42 564 -35 Z" fill="black"></path>
				<path d="M 437 422 L 450 391 L 463 364 Q 478 331 499 351 Q 507 359 506 376 Q 505 392 497 404 Q 489 413 477 420 L 457 428 Q 450 432 442 432 Q 429 433 437 422 Z" fill="black"></path>
				<path d="M 430 214 L 457 156 L 467 139 Q 469 136 476 136 Q 484 136 492 144 Q 501 151 500 169 Q 499 186 492 197 Q 486 207 465 216 L 451 220 Q 440 224 433 224 Q 426 224 430 214 Z" fill="red"></path>
				<path d="M 577 296 L 598 302 Q 611 303 608 314 Q 606 322 594 320 L 577 318 L 531 306 L 423 282 L 377 274 L 334 270 L 313 272 Q 303 272 299 274 L 293 275 Q 287 274 285 270 Q 283 265 285 261 Q 287 256 301 242 Q 303 241 321 226 L 335 218 Q 344 216 347 217 L 359 220 L 374 228 L 421 248 L 531 281 L 577 296 Z" fill="lightgray"></path>
				<path d="M 689 472 L 695 528 Q 697 546 697 553 C 698 574 698 574 687 579 L 657 592 Q 651 597 633 589 Q 630 586 632 582 L 636 572 Q 643 565 645 556 L 648 533 Q 648 510 643 465 Q 639 419 613 368 L 605 354 Q 601 343 602 340 Q 606 338 613 342 L 626 353 Q 646 368 657 388 Q 676 416 689 472 Z" fill="lightgray"></path>
				<path d="M 697 553 L 739 566 Q 754 572 761 567 Q 768 562 766 537 L 761 452 Q 759 425 761 411 Q 763 396 775 380 Q 787 363 829 354 Q 862 352 871 353 Q 926 356 937 367 Q 946 373 947 383 Q 949 393 938 402 Q 927 410 910 414 Q 893 418 875 412 L 850 403 Q 822 396 812 403 Q 802 410 802 443 Q 802 476 809 502 L 833 550 L 840 560 Q 854 582 821 599 Q 812 600 800 608 Q 791 612 783 614 L 766 616 L 753 611 L 687 579 C 660 566 668 544 697 553 Z" fill="lightgray"></path>
				<path d="M 726 93 L 707 71 L 666 29 Q 647 9 607 -14 L 585 -26 Q 577 -31 578 -35 Q 580 -39 589 -38 L 611 -33 Q 623 -30 641 -23 L 672 -9 L 705 13 L 733 36 Q 741 42 753 54 L 782 94 L 795 116 L 850 253 Q 854 258 862 266 Q 871 273 871 281 Q 871 288 862 297 Q 853 305 843 309 Q 834 312 824 317 Q 815 321 810 317 L 795 310 Q 775 299 717 284 L 676 275 Q 650 270 645 271 C 615 268 644 231 673 240 L 772 272 Q 779 275 785 273 Q 794 264 785 240 L 775 202 Q 774 187 760 156 L 749 130 L 726 93 Z" fill="lightgray"></path>
				<path d="M 655 212 L 726 93 L 753 54 L 797 -10 Q 799 -17 810 -31 Q 822 -45 834 -51 Q 855 -66 949 -43 L 986 -32 Q 993 -31 992 -24 Q 991 -18 982 -15 L 916 7 L 873 26 Q 854 36 827 56 Q 800 76 782 94 L 749 130 L 726 160 Q 715 175 707 186 L 673 240 C 657 265 654 270 645 271 L 620 274 Q 613 274 611 273 Q 609 271 609 264 Q 609 257 620 249 Q 632 240 639 230 L 655 212 Z" fill="lightgray"></path>
</g>
		<text x="40" y="140" font-size="128" fill="#999999">8</text></g>
		<g id="id1:id3:id3" transform="matrix(1.0,0,0,1.0,3072,0.0)">			<g stroke="lightgray" stroke-width="4" transform="scale(4, 4)"> <rect x="0" y="0" width="256" height="256" fill="white" stroke-width="4"/></g>
			<g transform="scale(0.92, -0.92) translate(60, -920)">					<path d="M 183 440 L 92 426 Q 87 426 85 420 Q 81 410 121 398 L 145 396 L 206 405 L 251 412 L 268 414 L 305 422 Q 329 426 337 432 Q 346 438 346 442 Q 346 446 339 453 Q 332 459 316 464 Q 301 468 290 468 L 254 457 L 205 446 L 183 440 Z" fill="black"></path>
				<path d="M 206 405 L 202 280 L 199 222 L 193 93 L 189 49 Q 186 27 178 22 Q 170 16 165 15 Q 161 13 135 22 L 118 26 L 97 33 Q 91 34 89 30 Q 88 26 93 21 L 136 -19 L 155 -42 Q 167 -55 176 -70 L 185 -84 Q 194 -97 214 -80 Q 239 -57 247 -11 Q 249 19 249 36 L 247 124 L 247 264 L 248 306 L 251 412 L 254 457 L 257 519 Q 257 529 261 550 Q 261 574 269 600 Q 278 625 281 628 L 287 638 L 290 650 Q 290 670 253 692 Q 217 713 190 706 Q 181 699 189 671 Q 197 652 203 600 L 205 553 L 205 446 L 206 405 Z" fill="black"></path>
				<path d="M 202 280 L 129 236 L 74 206 Q 56 196 50 196 L 35 192 L 29 189 Q 25 174 46 157 L 67 140 Q 89 124 106 133 Q 112 142 142 171 L 199 222 L 247 264 L 323 332 Q 338 344 333 351 Q 329 357 315 349 L 248 306 L 202 280 Z" fill="black"></path>
				<path d="M 445 523 L 495 609 L 509 630 Q 517 642 523 647 L 531 657 Q 530 670 509 685 Q 459 714 459 693 Q 461 692 461 684 Q 465 666 460 648 L 427 521 C 419 492 430 497 445 523 Z" fill="black"></path>
				<path d="M 427 521 L 413 518 L 396 524 Q 374 533 368 528 Q 363 523 365 511 L 371 491 Q 378 472 380 388 L 377 274 L 374 228 L 369 194 L 357 141 Q 356 132 342 94 Q 328 55 316 34 L 277 -23 Q 270 -33 272 -37 Q 275 -41 286 -34 L 301 -23 Q 317 -11 336 11 Q 356 32 381 82 Q 406 131 417 214 L 421 248 L 423 282 L 427 418 Q 427 443 430 456 Q 433 477 434 478 Q 434 490 435 497 C 436 522 436 522 427 521 Z" fill="black"></path>
				<path d="M 564 -35 L 571 -11 Q 579 11 579 67 L 577 296 L 577 318 L 578 410 L 580 441 Q 582 469 583 475 L 592 495 L 596 507 Q 598 513 594 517 Q 594 523 575 536 Q 557 549 547 550 Q 539 555 534 553 L 510 546 L 483 535 L 445 523 C 416 514 400 489 435 497 L 499 511 Q 511 514 518 507 Q 526 499 527 489 Q 529 479 529 447 L 531 306 L 531 281 L 529 144 L 525 76 Q 524 42 517 25 Q 510 8 501 6 Q 487 4 471 8 L 445 14 Q 439 15 434 12 Q 432 10 439 2 L 455 -12 L 472 -30 L 491 -55 Q 499 -65 509 -75 Q 517 -81 532 -70 Q 542 -68 551 -54 Q 560 -42 564 -35 Z" fill="black"></path>
				<path d="M 437 422 L 450 391 L 463 364 Q 478 331 499 351 Q 507 359 506 376 Q 505 392 497 404 Q 489 413 477 420 L 457 428 Q 450 432 442 432 Q 429 433 437 422 Z" fill="black"></path>
				<path d="M 430 214 L 457 156 L 467 139 Q 469 136 476 136 Q 484 136 492 144 Q 501 151 500 169 Q 499 186 492 197 Q 486 207 465 216 L 451 220 Q 440 224 433 224 Q 426 224 430 214 Z" fill="black"></path>
				<path d="M 577 296 L 598 302 Q 611 303 608 314 Q 606 322 594 320 L 577 318 L 531 306 L 423 282 L 377 274 L 334 270 L 313 272 Q 303 272 299 274 L 293 275 Q 287 274 285 270 Q 283 265 285 261 Q 287 256 301 242 Q 303 241 321 226 L 335 218 Q 344 216 347 217 L 359 220 L 374 228 L 421 248 L 531 281 L 577 296 Z" fill="red"></path>
				<path d="M 689 472 L 695 528 Q 697 546 697 553 C 698 574 698 574 687 579 L 657 592 Q 651 597 633 589 Q 630 586 632 582 L 636 572 Q 643 565 645 556 L 648 533 Q 648 510 643 465 Q 639 419 613 368 L 605 354 Q 601 343 602 340 Q 606 338 613 342 L 626 353 Q 646 368 657 388 Q 676 416 689 472 Z" fill="lightgray"></path>
				<path d="M 697 553 L 739 566 Q 754 572 761 567 Q 768 562 766 537 L 761 452 Q 759 425 761 411 Q 763 396 775 380 Q 787 363 829 354 Q 862 352 871 353 Q 926 356 937 367 Q 946 373 947 383 Q 949 393 938 402 Q 927 410 910 414 Q 893 418 875 412 L 850 403 Q 822 396 812 403 Q 802 410 802 443 Q 802 476 809 502 L 833 550 L 840 560 Q 854 582 821 599 Q 812 600 800 608 Q 791 612 783 614 L 766 616 L 753 611 L 687 579 C 660 566 668 544 697 553 Z" fill="lightgray"></path>
				<path d="M 726 93 L 707 71 L 666 29 Q 647 9 607 -14 L 585 -26 Q 577 -31 578 -35 Q 580 -39 589 -38 L 611 -33 Q 623 -30 641 -23 L 672 -9 L 705 13 L 733 36 Q 741 42 753 54 L 782 94 L 795 116 L 850 253 Q 854 258 862 266 Q 871 273 871 281 Q 871 288 862 297 Q 853 305 843 309 Q 834 312 824 317 Q 815 321 810 317 L 795 310 Q 775 299 717 284 L 676 275 Q 650 270 645 271 C 615 268 644 231 673 240 L 772 272 Q 779 275 785 273 Q 794 264 785 240 L 775 202 Q 774 187 760 156 L 749 130 L 726 93 Z" fill="lightgray"></path>
				<path d="M 655 212 L 726 93 L 753 54 L 797 -10 Q 799 -17 810 -31 Q 822 -45 834 -51 Q 855 -66 949 -43 L 986 -32 Q 993 -31 992 -24 Q 991 -18 982 -15 L 916 7 L 873 26 Q 854 36 827 56 Q 800 76 782 94 L 749 130 L 726 160 Q 715 175 707 186 L 673 240 C 657 265 654 270 645 271 L 620 274 Q 613 274 611 273 Q 609 271 609 264 Q 609 257 620 249 Q 632 240 639 230 L 655 212 Z" fill="lightgray"></path>
</g>
		<text x="40" y="140" font-size="128" fill="#999999">9</text></g>
		<g id="id1:id4:id4" transform="matrix(1.0,0,0,1.0,4096,0.0)">			<g stroke="lightgray" stroke-width="4" transform="scale(4, 4)"> <rect x="0" y="0" width="256" height="256" fill="white" stroke-width="4"/></g>
			<g transform="scale(0.92, -0.92) translate(60, -920)">					<path d="M 183 440 L 92 426 Q 87 426 85 420 Q 81 410 121 398 L 145 396 L 206 405 L 251 412 L 268 414 L 305 422 Q 329 426 337 432 Q 346 438 346 442 Q 346 446 339 453 Q 332 459 316 464 Q 301 468 290 468 L 254 457 L 205 446 L 183 440 Z" fill="black"></path>
				<path d="M 206 405 L 202 280 L 199 222 L 193 93 L 189 49 Q 186 27 178 22 Q 170 16 165 15 Q 161 13 135 22 L 118 26 L 97 33 Q 91 34 89 30 Q 88 26 93 21 L 136 -19 L 155 -42 Q 167 -55 176 -70 L 185 -84 Q 194 -97 214 -80 Q 239 -57 247 -11 Q 249 19 249 36 L 247 124 L 247 264 L 248 306 L 251 412 L 254 457 L 257 519 Q 257 529 261 550 Q 261 574 269 600 Q 278 625 281 628 L 287 638 L 290 650 Q 290 670 253 692 Q 217 713 190 706 Q 181 699 189 671 Q 197 652 203 600 L 205 553 L 205 446 L 206 405 Z" fill="black"></path>
				<path d="M 202 280 L 129 236 L 74 206 Q 56 196 50 196 L 35 192 L 29 189 Q 25 174 46 157 L 67 140 Q 89 124 106 133 Q 112 142 142 171 L 199 222 L 247 264 L 323 332 Q 338 344 333 351 Q 329 357 315 349 L 248 306 L 202 280 Z" fill="black"></path>
				<path d="M 445 523 L 495 609 L 509 630 Q 517 642 523 647 L 531 657 Q 530 670 509 685 Q 459 714 459 693 Q 461 692 461 684 Q 465 666 460 648 L 427 521 C 419 492 430 497 445 523 Z" fill="black"></path>
				<path d="M 427 521 L 413 518 L 396 524 Q 374 533 368 528 Q 363 523 365 511 L 371 491 Q 378 472 380 388 L 377 274 L 374 228 L 369 194 L 357 141 Q 356 132 342 94 Q 328 55 316 34 L 277 -23 Q 270 -33 272 -37 Q 275 -41 286 -34 L 301 -23 Q 317 -11 336 11 Q 356 32 381 82 Q 406 131 417 214 L 421 248 L 423 282 L 427 418 Q 427 443 430 456 Q 433 477 434 478 Q 434 490 435 497 C 436 522 436 522 427 521 Z" fill="black"></path>
				<path d="M 564 -35 L 571 -11 Q 579 11 579 67 L 577 296 L 577 318 L 578 410 L 580 441 Q 582 469 583 475 L 592 495 L 596 507 Q 598 513 594 517 Q 594 523 575 536 Q 557 549 547 550 Q 539 555 534 553 L 510 546 L 483 535 L 445 523 C 416 514 400 489 435 497 L 499 511 Q 511 514 518 507 Q 526 499 527 489 Q 529 479 529 447 L 531 306 L 531 281 L 529 144 L 525 76 Q 524 42 517 25 Q 510 8 501 6 Q 487 4 471 8 L 445 14 Q 439 15 434 12 Q 432 10 439 2 L 455 -12 L 472 -30 L 491 -55 Q 499 -65 509 -75 Q 517 -81 532 -70 Q 542 -68 551 -54 Q 560 -42 564 -35 Z" fill="black"></path>
				<path d="M 437 422 L 450 391 L 463 364 Q 478 331 499 351 Q 507 359 506 376 Q 505 392 497 404 Q 489 413 477 420 L 457 428 Q 450 432 442 432 Q 429 433 437 422 Z" fill="black"></path>
				<path d="M 430 214 L 457 156 L 467 139 Q 469 136 476 136 Q 484 136 492 144 Q 501 151 500 169 Q 499 186 492 197 Q 486 207 465 216 L 451 220 Q 440 224 433 224 Q 426 224 430 214 Z" fill="black"></path>
				<path d="M 577 296 L 598 302 Q 611 303 608 314 Q 606 322 594 320 L 577 318 L 531 306 L 423 282 L 377 274 L 334 270 L 313 272 Q 303 272 299 274 L 293 275 Q 287 274 285 270 Q 283 265 285 261 Q 287 256 301 242 Q 303 241 321 226 L 335 218 Q 344 216 347 217 L 359 220 L 374 228 L 421 248 L 531 281 L 577 296 Z" fill="black"></path>
				<path d="M 689 472 L 695 528 Q 697 546 697 553 C 698 574 698 574 687 579 L 657 592 Q 651 597 633 589 Q 630 586 632 582 L 636 572 Q 643 565 645 556 L 648 533 Q 648 510 643 465 Q 639 419 613 368 L 605 354 Q 601 343 602 340 Q 606 338 613 342 L 626 353 Q 646 368 657 388 Q 676 416 689 472 Z" fill="red"></path>
				<path d="M 697 553 L 739 566 Q 754 572 761 567 Q 768 562 766 537 L 761 452 Q 759 425 761 411 Q 763 396 775 380 Q 787 363 829 354 Q 862 352 871 353 Q 926 356 937 367 Q 946 373 947 383 Q 949 393 938 402 Q 927 410 910 414 Q 893 418 875 412 L 850 403 Q 822 396 812 403 Q 802 410 802 443 Q 802 476 809 502 L 833 550 L 840 560 Q 854 582 821 599 Q 812 600 800 608 Q 791 612 783 614 L 766 616 L 753 611 L 687 579 C 660 566 668 544 697 553 Z" fill="lightgray"></path>
				<path d="M 726 93 L 707 71 L 666 29 Q 647 9 607 -14 L 585 -26 Q 577 -31 578 -35 Q 580 -39 589 -38 L 611 -33 Q 623 -30 641 -23 L 672 -9 L 705 13 L 733 36 Q 741 42 753 54 L 782 94 L 795 116 L 850 253 Q 854 258 862 266 Q 871 273 871 281 Q 871 288 862 297 Q 853 305 843 309 Q 834 312 824 317 Q 815 321 810 317 L 795 310 Q 775 299 717 284 L 676 275 Q 650 270 645 271 C 615 268 644 231 673 240 L 772 272 Q 779 275 785 273 Q 794 264 785 240 L 775 202 Q 774 187 760 156 L 749 130 L 726 93 Z" fill="lightgray"></path>
				<path d="M 655 212 L 726 93 L 753 54 L 797 -10 Q 799 -17 810 -31 Q 822 -45 834 -51 Q 855 -66 949 -43 L 986 -32 Q 993 -31 992 -24 Q 991 -18 982 -15 L 916 7 L 873 26 Q 854 36 827 56 Q 800 76 782 94 L 749 130 L 726 160 Q 715 175 707 186 L 673 240 C 657 265 654 270 645 271 L 620 274 Q 613 274 611 273 Q 609 271 609 264 Q 609 257 620 249 Q 632 240 639 230 L 655 212 Z" fill="lightgray"></path>
</g>
		<text x="40" y="140" font-size="128" fill="#999999">10</text></g>
</g>
	<g id="id2:id2" transform="translate(0.0,2048)">
		<g id="id2:id0:id0" transform="matrix(1.0,0,0,1.0,0,0.0)">			<g stroke="lightgray" stroke-width="4" transform="scale(4, 4)"> <rect x="0" y="0" width="256" height="256" fill="white" stroke-width="4"/></g>
			<g transform="scale(0.92, -0.92) translate(60, -920)">					<path d="M 183 440 L 92 426 Q 87 426 85 420 Q 81 410 121 398 L 145 396 L 206 405 L 251 412 L 268 414 L 305 422 Q 329 426 337 432 Q 346 438 346 442 Q 346 446 339 453 Q 332 459 316 464 Q 301 468 290 468 L 254 457 L 205 446 L 183 440 Z" fill="black"></path>
				<path d="M 206 405 L 202 280 L 199 222 L 193 93 L 189 49 Q 186 27 178 22 Q 170 16 165 15 Q 161 13 135 22 L 118 26 L 97 33 Q 91 34 89 30 Q 88 26 93 21 L 136 -19 L 155 -42 Q 167 -55 176 -70 L 185 -84 Q 194 -97 214 -80 Q 239 -57 247 -11 Q 249 19 249 36 L 247 124 L 247 264 L 248 306 L 251 412 L 254 457 L 257 519 Q 257 529 261 550 Q 261 574 269 600 Q 278 625 281 628 L 287 638 L 290 650 Q 290 670 253 692 Q 217 713 190 706 Q 181 699 189 671 Q 197 652 203 600 L 205 553 L 205 446 L 206 405 Z" fill="black"></path>
				<path d="M 202 280 L 129 236 L 74 206 Q 56 196 50 196 L 35 192 L 29 189 Q 25 174 46 157 L 67 140 Q 89 124 106 133 Q 112 142 142 171 L 199 222 L 247 264 L 323 332 Q 338 344 333 351 Q 329 357 315 349 L 248 306 L 202 280 Z" fill="black"></path>
				<path d="M 445 523 L 495 609 L 509 630 Q 517 642 523 647 L 531 657 Q 530 670 509 685 Q 459 714 459 693 Q 461 692 461 684 Q 465 666 460 648 L 427 521 C 419 492 430 497 445 523 Z" fill="black"></path>
				<path d="M 427 521 L 413 518 L 396 524 Q 374 533 368 528 Q 363 523 365 511 L 371 491 Q 378 472 380 388 L 377 274 L 374 228 L 369 194 L 357 141 Q 356 132 342 94 Q 328 55 316 34 L 277 -23 Q 270 -33 272 -37 Q 275 -41 286 -34 L 301 -23 Q 317 -11 336 11 Q 356 32 381 82 Q 406 131 417 214 L 421 248 L 423 282 L 427 418 Q 427 443 430 456 Q 433 477 434 478 Q 434 490 435 497 C 436 522 436 522 427 521 Z" fill="black"></path>
				<path d="M 564 -35 L 571 -11 Q 579 11 579 67 L 577 296 L 577 318 L 578 410 L 580 441 Q 582 469 583 475 L 592 495 L 596 507 Q 598 513 594 517 Q 594 523 575 536 Q 557 549 547 550 Q 539 555 534 553 L 510 546 L 483 535 L 445 523 C 416 514 400 489 435 497 L 499 511 Q 511 514 518 507 Q 526 499 527 489 Q 529 479 529 447 L 531 306 L 531 281 L 529 144 L 525 76 Q 524 42 517 25 Q 510 8 501 6 Q 487 4 471 8 L 445 14 Q 439 15 434 12 Q 432 10 439 2 L 455 -12 L 472 -30 L 491 -55 Q 499 -65 509 -75 Q 517 -81 532 -70 Q 542 -68 551 -54 Q 560 -42 564 -35 Z" fill="black"></path>
				<path d="M 437 422 L 450 391 L 463 364 Q 478 331 499 351 Q 507 359 506 376 Q 505 392 497 404 Q 489 413 477 420 L 457 428 Q 450 432 442 432 Q 429 433 437 422 Z" fill="black"></path>
				<path d="M 430 214 L 457 156 L 467 139 Q 469 136 476 136 Q 484 136 492 144 Q 501 151 500 169 Q 499 186 492 197 Q 486 207 465 216 L 451 220 Q 440 224 433 224 Q 426 224 430 214 Z" fill="black"></path>
				<path d="M 577 296 L 598 302 Q 611 303 608 314 Q 606 322 594 320 L 577 318 L 531 306 L 423 282 L 377 274 L 334 270 L 313 272 Q 303 272 299 274 L 293 275 Q 287 274 285 270 Q 283 265 285 261 Q 287 256 301 242 Q 303 241 321 226 L 335 218 Q 344 216 347 217 L 359 220 L 374 228 L 421 248 L 531 281 L 577 296 Z" fill="black"></path>
				<path d="M 689 472 L 695 528 Q 697 546 697 553 C 698 574 698 574 687 579 L 657 592 Q 651 597 633 589 Q 630 586 632 582 L 636 572 Q 643 565 645 556 L 648 533 Q 648 510 643 465 Q 639 419 613 368 L 605 354 Q 601 343 602 340 Q 606 338 613 342 L 626 353 Q 646 368 657 388 Q 676 416 689 472 Z" fill="black"></path>
				<path d="M 697 553 L 739 566 Q 754 572 761 567 Q 768 562 766 537 L 761 452 Q 759 425 761 411 Q 763 396 775 380 Q 787 363 829 354 Q 862 352 871 353 Q 926 356 937 367 Q 946 373 947 383 Q 949 393 938 402 Q 927 410 910 414 Q 893 418 875 412 L 850 403 Q 822 396 812 403 Q 802 410 802 443 Q 802 476 809 502 L 833 550 L 840 560 Q 854 582 821 599 Q 812 600 800 608 Q 791 612 783 614 L 766 616 L 753 611 L 687 579 C 660 566 668 544 697 553 Z" fill="red"></path>
				<path d="M 726 93 L 707 71 L 666 29 Q 647 9 607 -14 L 585 -26 Q 577 -31 578 -35 Q 580 -39 589 -38 L 611 -33 Q 623 -30 641 -23 L 672 -9 L 705 13 L 733 36 Q 741 42 753 54 L 782 94 L 795 116 L 850 253 Q 854 258 862 266 Q 871 273 871 281 Q 871 288 862 297 Q 853 305 843 309 Q 834 312 824 317 Q 815 321 810 317 L 795 310 Q 775 299 717 284 L 676 275 Q 650 270 645 271 C 615 268 644 231 673 240 L 772 272 Q 779 275 785 273 Q 794 264 785 240 L 775 202 Q 774 187 760 156 L 749 130 L 726 93 Z" fill="lightgray"></path>
				<path d="M 655 212 L 726 93 L 753 54 L 797 -10 Q 799 -17 810 -31 Q 822 -45 834 -51 Q 855 -66 949 -43 L 986 -32 Q 993 -31 992 -24 Q 991 -18 982 -15 L 916 7 L 873 26 Q 854 36 827 56 Q 800 76 782 94 L 749 130 L 726 160 Q 715 175 707 186 L 673 240 C 657 265 654 270 645 271 L 620 274 Q 613 274 611 273 Q 609 271 609 264 Q 609 257 620 249 Q 632 240 639 230 L 655 212 Z" fill="lightgray"></path>
</g>
		<text x="40" y="140" font-size="128" fill="#999999">11</text></g>
		<g id="id2:id1:id1" transform="matrix(1.0,0,0,1.0,1024,0.0)">			<g stroke="lightgray" stroke-width="4" transform="scale(4, 4)"> <rect x="0" y="0" width="256" height="256" fill="white" stroke-width="4"/></g>
			<g transform="scale(0.92, -0.92) translate(60, -920)">					<path d="M 183 440 L 92 426 Q 87 426 85 420 Q 81 410 121 398 L 145 396 L 206 405 L 251 412 L 268 414 L 305 422 Q 329 426 337 432 Q 346 438 346 442 Q 346 446 339 453 Q 332 459 316 464 Q 301 468 290 468 L 254 457 L 205 446 L 183 440 Z" fill="black"></path>
				<path d="M 206 405 L 202 280 L 199 222 L 193 93 L 189 49 Q 186 27 178 22 Q 170 16 165 15 Q 161 13 135 22 L 118 26 L 97 33 Q 91 34 89 30 Q 88 26 93 21 L 136 -19 L 155 -42 Q 167 -55 176 -70 L 185 -84 Q 194 -97 214 -80 Q 239 -57 247 -11 Q 249 19 249 36 L 247 124 L 247 264 L 248 306 L 251 412 L 254 457 L 257 519 Q 257 529 261 550 Q 261 574 269 600 Q 278 625 281 628 L 287 638 L 290 650 Q 290 670 253 692 Q 217 713 190 706 Q 181 699 189 671 Q 197 652 203 600 L 205 553 L 205 446 L 206 405 Z" fill="black"></path>
				<path d="M 202 280 L 129 236 L 74 206 Q 56 196 50 196 L 35 192 L 29 189 Q 25 174 46 157 L 67 140 Q 89 124 106 133 Q 112 142 142 171 L 199 222 L 247 264 L 323 332 Q 338 344 333 351 Q 329 357 315 349 L 248 306 L 202 280 Z" fill="black"></path>
				<path d="M 445 523 L 495 609 L 509 630 Q 517 642 523 647 L 531 657 Q 530 670 509 685 Q 459 714 459 693 Q 461 692 461 684 Q 465 666 460 648 L 427 521 C 419 492 430 497 445 523 Z" fill="black"></path>
				<path d="M 427 521 L 413 518 L 396 524 Q 374 533 368 528 Q 363 523 365 511 L 371 491 Q 378 472 380 388 L 377 274 L 374 228 L 369 194 L 357 141 Q 356 132 342 94 Q 328 55 316 34 L 277 -23 Q 270 -33 272 -37 Q 275 -41 286 -34 L 301 -23 Q 317 -11 336 11 Q 356 32 381 82 Q 406 131 417 214 L 421 248 L 423 282 L 427 418 Q 427 443 430 456 Q 433 477 434 478 Q 434 490 435 497 C 436 522 436 522 427 521 Z" fill="black"></path>
				<path d="M 564 -35 L 571 -11 Q 579 11 579 67 L 577 296 L 577 318 L 578 410 L 580 441 Q 582 469 583 475 L 592 495 L 596 507 Q 598 513 594 517 Q 594 523 575 536 Q 557 549 547 550 Q 539 555 534 553 L 510 546 L 483 535 L 445 523 C 416 514 400 489 435 497 L 499 511 Q 511 514 518 507 Q 526 499 527 489 Q 529 479 529 447 L 531 306 L 531 281 L 529 144 L 525 76 Q 524 42 517 25 Q 510 8 501 6 Q 487 4 471 8 L 445 14 Q 439 15 434 12 Q 432 10 439 2 L 455 -12 L 472 -30 L 491 -55 Q 499 -65 509 -75 Q 517 -81 532 -70 Q 542 -68 551 -54 Q 560 -42 564 -35 Z" fill="black"></path>
				<path d="M 437 422 L 450 391 L 463 364 Q 478 331 499 351 Q 507 359 506 376 Q 505 392 497 404 Q 489 413 477 420 L 457 428 Q 450 432 442 432 Q 429 433 437 422 Z" fill="black"></path>
				<path d="M 430 214 L 457 156 L 467 139 Q 469 136 476 136 Q 484 136 492 144 Q 501 151 500 169 Q 499 186 492 197 Q 486 207 465 216 L 451 220 Q 440 224 433 224 Q 426 224 430 214 Z" fill="black"></path>
				<path d="M 577 296 L 598 302 Q 611 303 608 314 Q 606 322 594 320 L 577 318 L 531 306 L 423 282 L 377 274 L 334 270 L 313 272 Q 303 272 299 274 L 293 275 Q 287 274 285 270 Q 283 265 285 261 Q 287 256 301 242 Q 303 241 321 226 L 335 218 Q 344 216 347 217 L 359 220 L 374 228 L 421 248 L 531 281 L 577 296 Z" fill="black"></path>
				<path d="M 689 472 L 695 528 Q 697 546 697 553 C 698 574 698 574 687 579 L 657 592 Q 651 597 633 589 Q 630 586 632 582 L 636 572 Q 643 565 645 556 L 648 533 Q 648 510 643 465 Q 639 419 613 368 L 605 354 Q 601 343 602 340 Q 606 338 613 342 L 626 353 Q 646 368 657 388 Q 676 416 689 472 Z" fill="black"></path>
				<path d="M 697 553 L 739 566 Q 754 572 761 567 Q 768 562 766 537 L 761 452 Q 759 425 761 411 Q 763 396 775 380 Q 787 363 829 354 Q 862 352 871 353 Q 926 356 937 367 Q 946 373 947 383 Q 949 393 938 402 Q 927 410 910 414 Q 893 418 875 412 L 850 403 Q 822 396 812 403 Q 802 410 802 443 Q 802 476 809 502 L 833 550 L 840 560 Q 854 582 821 599 Q 812 600 800 608 Q 791 612 783 614 L 766 616 L 753 611 L 687 579 C 660 566 668 544 697 553 Z" fill="black"></path>
				<path d="M 726 93 L 707 71 L 666 29 Q 647 9 607 -14 L 585 -26 Q 577 -31 578 -35 Q 580 -39 589 -38 L 611 -33 Q 623 -30 641 -23 L 672 -9 L 705 13 L 733 36 Q 741 42 753 54 L 782 94 L 795 116 L 850 253 Q 854 258 862 266 Q 871 273 871 281 Q 871 288 862 297 Q 853 305 843 309 Q 834 312 824 317 Q 815 321 810 317 L 795 310 Q 775 299 717 284 L 676 275 Q 650 270 645 271 C 615 268 644 231 673 240 L 772 272 Q 779 275 785 273 Q 794 264 785 240 L 775 202 Q 774 187 760 156 L 749 130 L 726 93 Z" fill="red"></path>
				<path d="M 655 212 L 726 93 L 753 54 L 797 -10 Q 799 -17 810 -31 Q 822 -45 834 -51 Q 855 -66 949 -43 L 986 -32 Q 993 -31 992 -24 Q 991 -18 982 -15 L 916 7 L 873 26 Q 854 36 827 56 Q 800 76 782 94 L 749 130 L 726 160 Q 715 175 707 186 L 673 240 C 657 265 654 270 645 271 L 620 274 Q 613 274 611 273 Q 609 271 609 264 Q 609 257 620 249 Q 632 240 639 230 L 655 212 Z" fill="lightgray"></path>
</g>
		<text x="40" y="140" font-size="128" fill="#999999">12</text></g>
		<g id="id2:id2:id2" transform="matrix(1.0,0,0,1.0,2048,0.0)">			<g stroke="lightgray" stroke-width="4" transform="scale(4, 4)"> <rect x="0" y="0" width="256" height="256" fill="white" stroke-width="4"/></g>
			<g transform="scale(0.92, -0.92) translate(60, -920)">					<path d="M 183 440 L 92 426 Q 87 426 85 420 Q 81 410 121 398 L 145 396 L 206 405 L 251 412 L 268 414 L 305 422 Q 329 426 337 432 Q 346 438 346 442 Q 346 446 339 453 Q 332 459 316 464 Q 301 468 290 468 L 254 457 L 205 446 L 183 440 Z" fill="black"></path>
				<path d="M 206 405 L 202 280 L 199 222 L 193 93 L 189 49 Q 186 27 178 22 Q 170 16 165 15 Q 161 13 135 22 L 118 26 L 97 33 Q 91 34 89 30 Q 88 26 93 21 L 136 -19 L 155 -42 Q 167 -55 176 -70 L 185 -84 Q 194 -97 214 -80 Q 239 -57 247 -11 Q 249 19 249 36 L 247 124 L 247 264 L 248 306 L 251 412 L 254 457 L 257 519 Q 257 529 261 550 Q 261 574 269 600 Q 278 625 281 628 L 287 638 L 290 650 Q 290 670 253 692 Q 217 713 190 706 Q 181 699 189 671 Q 197 652 203 600 L 205 553 L 205 446 L 206 405 Z" fill="black"></path>
				<path d="M 202 280 L 129 236 L 74 206 Q 56 196 50 196 L 35 192 L 29 189 Q 25 174 46 157 L 67 140 Q 89 124 106 133 Q 112 142 142 171 L 199 222 L 247 264 L 323 332 Q 338 344 333 351 Q 329 357 315 349 L 248 306 L 202 280 Z" fill="black"></path>
				<path d="M 445 523 L 495 609 L 509 630 Q 517 642 523 647 L 531 657 Q 530 670 509 685 Q 459 714 459 693 Q 461 692 461 684 Q 465 666 460 648 L 427 521 C 419 492 430 497 445 523 Z" fill="black"></path>
				<path d="M 427 521 L 413 518 L 396 524 Q 374 533 368 528 Q 363 523 365 511 L 371 491 Q 378 472 380 388 L 377 274 L 374 228 L 369 194 L 357 141 Q 356 132 342 94 Q 328 55 316 34 L 277 -23 Q 270 -33 272 -37 Q 275 -41 286 -34 L 301 -23 Q 317 -11 336 11 Q 356 32 381 82 Q 406 131 417 214 L 421 248 L 423 282 L 427 418 Q 427 443 430 456 Q 433 477 434 478 Q 434 490 435 497 C 436 522 436 522 427 521 Z" fill="black"></path>
				<path d="M 564 -35 L 571 -11 Q 579 11 579 67 L 577 296 L 577 318 L 578 410 L 580 441 Q 582 469 583 475 L 592 495 L 596 507 Q 598 513 594 517 Q 594 523 575 536 Q 557 549 547 550 Q 539 555 534 553 L 510 546 L 483 535 L 445 523 C 416 514 400 489 435 497 L 499 511 Q 511 514 518 507 Q 526 499 527 489 Q 529 479 529 447 L 531 306 L 531 281 L 529 144 L 525 76 Q 524 42 517 25 Q 510 8 501 6 Q 487 4 471 8 L 445 14 Q 439 15 434 12 Q 432 10 439 2 L 455 -12 L 472 -30 L 491 -55 Q 499 -65 509 -75 Q 517 -81 532 -70 Q 542 -68 551 -54 Q 560 -42 564 -35 Z" fill="black"></path>
				<path d="M 437 422 L 450 391 L 463 364 Q 478 331 499 351 Q 507 359 506 376 Q 505 392 497 404 Q 489 413 477 420 L 457 428 Q 450 432 442 432 Q 429 433 437 422 Z" fill="black"></path>
				<path d="M 430 214 L 457 156 L 467 139 Q 469 136 476 136 Q 484 136 492 144 Q 501 151 500 169 Q 499 186 492 197 Q 486 207 465 216 L 451 220 Q 440 224 433 224 Q 426 224 430 214 Z" fill="black"></path>
				<path d="M 577 296 L 598 302 Q 611 303 608 314 Q 606 322 594 320 L 577 318 L 531 306 L 423 282 L 377 274 L 334 270 L 313 272 Q 303 272 299 274 L 293 275 Q 287 274 285 270 Q 283 265 285 261 Q 287 256 301 242 Q 303 241 321 226 L 335 218 Q 344 216 347 217 L 359 220 L 374 228 L 421 248 L 531 281 L 577 296 Z" fill="black"></path>
				<path d="M 689 472 L 695 528 Q 697 546 697 553 C 698 574 698 574 687 579 L 657 592 Q 651 597 633 589 Q 630 586 632 582 L 636 572 Q 643 565 645 556 L 648 533 Q 648 510 643 465 Q 639 419 613 368 L 605 354 Q 601 343 602 340 Q 606 338 613 342 L 626 353 Q 646 368 657 388 Q 676 416 689 472 Z" fill="black"></path>
				<path d="M 697 553 L 739 566 Q 754 572 761 567 Q 768 562 766 537 L 761 452 Q 759 425 761 411 Q 763 396 775 380 Q 787 363 829 354 Q 862 352 871 353 Q 926 356 937 367 Q 946 373 947 383 Q 949 393 938 402 Q 927 410 910 414 Q 893 418 875 412 L 850 403 Q 822 396 812 403 Q 802 410 802 443 Q 802 476 809 502 L 833 550 L 840 560 Q 854 582 821 599 Q 812 600 800 608 Q 791 612 783 614 L 766 616 L 753 611 L 687 579 C 660 566 668 544 697 553 Z" fill="black"></path>
				<path d="M 726 93 L 707 71 L 666 29 Q 647 9 607 -14 L 585 -26 Q 577 -31 578 -35 Q 580 -39 589 -38 L 611 -33 Q 623 -30 641 -23 L 672 -9 L 705 13 L 733 36 Q 741 42 753 54 L 782 94 L 795 116 L 850 253 Q 854 258 862 266 Q 871 273 871 281 Q 871 288 862 297 Q 853 305 843 309 Q 834 312 824 317 Q 815 321 810 317 L 795 310 Q 775 299 717 284 L 676 275 Q 650 270 645 271 C 615 268 644 231 673 240 L 772 272 Q 779 275 785 273 Q 794 264 785 240 L 775 202 Q 774 187 760 156 L 749 130 L 726 93 Z" fill="black"></path>
				<path d="M 655 212 L 726 93 L 753 54 L 797 -10 Q 799 -17 810 -31 Q 822 -45 834 -51 Q 855 -66 949 -43 L 986 -32 Q 993 -31 992 -24 Q 991 -18 982 -15 L 916 7 L 873 26 Q 854 36 827 56 Q 800 76 782 94 L 749 130 L 726 160 Q 715 175 707 186 L 673 240 C 657 265 654 270 645 271 L 620 274 Q 613 274 611 273 Q 609 271 609 264 Q 609 257 620 249 Q 632 240 639 230 L 655 212 Z" fill="red"></path>
</g>
		<text x="40" y="140" font-size="128" fill="#999999">13</text></g>
		<g id="id2:id3:id3" transform="matrix(1.0,0,0,1.0,3072,0.0)">			<g stroke="white" stroke-width="4" transform="scale(4, 4)"> <rect x="1" y="1" width="255" height="255" fill="white" stroke-width="0"/></g>
</g>
		<g id="id2:id4:id4" transform="matrix(1.0,0,0,1.0,4096,0.0)">			<g stroke="white" stroke-width="4" transform="scale(4, 4)"> <rect x="1" y="1" width="255" height="255" fill="white" stroke-width="0"/></g>
</g>
</g>
</svg>
