<?xml version="1.0" standalone="no"?>
<!DOCTYPE svg PUBLIC "-//W3C//DTD SVG 1.1//EN"
 "http://www.w3.org/Graphics/SVG/1.1/DTD/svg11.dtd">
<!-- generate by Japanese dictionary app com.asnsami.kanjidictionary -->

<svg xmlns="http://www.w3.org/2000/svg" xmlns:sodipodi="http://sodipodi.sourceforge.net/DTD/sodipodi-0.dtd" version="1.1" width="640" height="384" viewBox="0 0 5120 3072">
	<g id="id0:id0" transform="translate(0.0,0)">
		<g id="id0:id0:id0" transform="matrix(1.0,0,0,1.0,0,0.0)">			<g stroke="lightgray" stroke-width="4" transform="scale(4, 4)"> <rect x="0" y="0" width="256" height="256" fill="white" stroke-width="4"/></g>
			<g transform="scale(0.92, -0.92) translate(60, -920)">					<path d="M 356 504 L 360 514 Q 363 524 363 545 Q 364 566 355 581 Q 347 593 324 610 Q 305 626 292 630 L 275 637 Q 263 640 259 637 Q 255 633 257 626 L 264 610 Q 266 599 276 578 L 297 533 Q 304 514 309 509 Q 314 503 323 496 C 346 478 346 478 356 504 Z" fill="red"></path>
				<path d="M 446 480 L 467 483 Q 480 484 482 489 Q 482 493 477 501 Q 467 518 432 518 L 356 504 L 323 496 L 253 480 Q 193 466 177 464 L 126 458 Q 121 456 122 449 Q 123 441 135 434 Q 168 415 181 417 Q 194 418 215 426 L 243 436 L 279 446 L 320 458 L 425 477 Q 428 476 446 480 Z" fill="lightgray"></path>
				<path d="M 316 340 L 329 331 Q 341 324 358 321 Q 375 318 379 315 Q 383 312 383 303 Q 385 294 382 277 L 379 258 Q 371 205 364 184 L 334 98 Q 314 37 293 34 Q 284 31 271 38 L 240 52 L 230 59 Q 221 62 218 59 Q 215 56 219 52 L 230 36 Q 234 27 251 2 Q 268 -24 271 -36 Q 275 -49 279 -50 Q 288 -55 303 -44 Q 323 -33 334 -22 Q 351 -3 359 10 Q 367 22 387 73 Q 407 123 411 140 L 438 249 Q 438 251 443 266 L 449 280 L 459 294 Q 464 302 462 307 Q 461 312 449 327 Q 437 342 430 348 Q 420 354 413 356 L 353 358 Q 347 360 340 361 L 327 363 C 297 368 291 357 316 340 Z" fill="lightgray"></path>
				<path d="M 279 446 L 280 426 Q 282 412 261 336 Q 248 300 237 275 L 202 210 Q 165 146 110 91 L 59 45 Q 55 41 57 37 Q 60 32 68 35 L 76 40 Q 127 61 177 111 Q 212 143 234 179 Q 257 214 278 255 L 307 324 L 316 340 L 327 363 L 337 391 L 350 412 Q 356 421 356 428 Q 356 434 342 442 L 320 458 C 296 476 278 476 279 446 Z" fill="lightgray"></path>
				<path d="M 589 498 L 601 516 Q 645 590 651 609 Q 658 627 666 634 L 679 650 Q 681 652 681 656 Q 684 671 652 696 L 626 710 Q 617 713 609 710 Q 601 707 602 690 Q 604 672 595 646 Q 595 638 581 602 Q 569 565 562 551 L 530 490 L 499 438 L 469 394 Q 463 387 465 382 Q 467 376 480 384 L 501 401 Q 509 406 523 421 L 545 444 L 571 474 L 589 498 Z" fill="lightgray"></path>
				<path d="M 855 556 L 829 561 Q 821 561 792 552 L 711 528 L 651 512 L 589 498 C 560 491 542 482 571 474 L 593 468 Q 607 461 751 500 Q 812 516 866 516 L 887 520 Q 899 520 899 528 Q 901 533 892 538 Q 865 553 855 556 Z" fill="lightgray"></path>
				<path d="M 616 344 L 645 383 L 655 394 Q 662 400 661 406 Q 658 416 631 431 L 616 436 Q 600 440 598 440 Q 587 439 591 425 Q 591 391 558 340 L 528 291 L 498 249 Q 495 245 498 242 Q 501 239 508 242 L 522 252 Q 523 252 541 268 L 576 298 L 593 315 L 616 344 Z" fill="lightgray"></path>
				<path d="M 708 320 L 749 327 Q 812 338 829 343 L 850 348 Q 857 349 859 355 Q 861 360 860 362 Q 860 364 852 370 L 843 376 Q 841 376 836 381 Q 832 386 819 386 Q 806 386 800 384 Q 794 381 783 379 Q 747 365 672 350 L 635 346 Q 630 344 616 344 C 586 343 563 319 593 315 L 609 313 Q 631 310 657 315 L 708 320 Z" fill="lightgray"></path>
				<path d="M 895 234 L 875 232 L 847 226 L 712 204 L 658 196 L 533 177 Q 500 171 495 171 L 473 168 Q 466 168 463 162 Q 461 158 469 153 L 485 144 Q 508 133 521 130 Q 534 126 555 134 L 608 146 Q 624 147 646 152 L 699 162 L 845 176 L 955 181 Q 962 180 964 187 Q 965 193 958 199 L 942 213 Q 927 225 917 228 Q 907 231 895 234 Z" fill="lightgray"></path>
				<path d="M 712 204 L 721 245 Q 723 255 729 275 L 734 290 L 734 298 Q 734 303 725 310 Q 721 310 717 313 L 708 320 C 684 337 648 344 657 315 L 665 290 Q 668 274 667 263 L 665 235 L 658 196 L 646 152 L 635 120 Q 628 96 603 65 Q 578 34 555 14 Q 532 -7 498 -26 Q 464 -45 445 -51 L 434 -55 Q 424 -56 424 -66 Q 425 -71 435 -70 L 449 -68 Q 511 -63 575 -20 Q 611 4 635 34 Q 660 63 670 88 Q 681 113 699 162 L 712 204 Z" fill="lightgray"></path>
				<path d="M 740 107 L 782 61 Q 807 32 833 -7 Q 864 -53 885 -70 Q 902 -86 912 -84 Q 923 -82 933 -61 Q 943 -38 922 -4 Q 902 29 870 52 Q 839 74 806 89 Q 774 104 768 108 L 749 116 Q 740 118 739 114 Q 734 112 740 107 Z" fill="lightgray"></path>
</g>
		<text x="40" y="140" font-size="128" fill="#999999">1</text></g>
		<g id="id0:id1:id1" transform="matrix(1.0,0,0,1.0,1024,0.0)">			<g stroke="lightgray" stroke-width="4" transform="scale(4, 4)"> <rect x="0" y="0" width="256" height="256" fill="white" stroke-width="4"/></g>
			<g transform="scale(0.92, -0.92) translate(60, -920)">					<path d="M 356 504 L 360 514 Q 363 524 363 545 Q 364 566 355 581 Q 347 593 324 610 Q 305 626 292 630 L 275 637 Q 263 640 259 637 Q 255 633 257 626 L 264 610 Q 266 599 276 578 L 297 533 Q 304 514 309 509 Q 314 503 323 496 C 346 478 346 478 356 504 Z" fill="black"></path>
				<path d="M 446 480 L 467 483 Q 480 484 482 489 Q 482 493 477 501 Q 467 518 432 518 L 356 504 L 323 496 L 253 480 Q 193 466 177 464 L 126 458 Q 121 456 122 449 Q 123 441 135 434 Q 168 415 181 417 Q 194 418 215 426 L 243 436 L 279 446 L 320 458 L 425 477 Q 428 476 446 480 Z" fill="red"></path>
				<path d="M 316 340 L 329 331 Q 341 324 358 321 Q 375 318 379 315 Q 383 312 383 303 Q 385 294 382 277 L 379 258 Q 371 205 364 184 L 334 98 Q 314 37 293 34 Q 284 31 271 38 L 240 52 L 230 59 Q 221 62 218 59 Q 215 56 219 52 L 230 36 Q 234 27 251 2 Q 268 -24 271 -36 Q 275 -49 279 -50 Q 288 -55 303 -44 Q 323 -33 334 -22 Q 351 -3 359 10 Q 367 22 387 73 Q 407 123 411 140 L 438 249 Q 438 251 443 266 L 449 280 L 459 294 Q 464 302 462 307 Q 461 312 449 327 Q 437 342 430 348 Q 420 354 413 356 L 353 358 Q 347 360 340 361 L 327 363 C 297 368 291 357 316 340 Z" fill="lightgray"></path>
				<path d="M 279 446 L 280 426 Q 282 412 261 336 Q 248 300 237 275 L 202 210 Q 165 146 110 91 L 59 45 Q 55 41 57 37 Q 60 32 68 35 L 76 40 Q 127 61 177 111 Q 212 143 234 179 Q 257 214 278 255 L 307 324 L 316 340 L 327 363 L 337 391 L 350 412 Q 356 421 356 428 Q 356 434 342 442 L 320 458 C 296 476 278 476 279 446 Z" fill="lightgray"></path>
				<path d="M 589 498 L 601 516 Q 645 590 651 609 Q 658 627 666 634 L 679 650 Q 681 652 681 656 Q 684 671 652 696 L 626 710 Q 617 713 609 710 Q 601 707 602 690 Q 604 672 595 646 Q 595 638 581 602 Q 569 565 562 551 L 530 490 L 499 438 L 469 394 Q 463 387 465 382 Q 467 376 480 384 L 501 401 Q 509 406 523 421 L 545 444 L 571 474 L 589 498 Z" fill="lightgray"></path>
				<path d="M 855 556 L 829 561 Q 821 561 792 552 L 711 528 L 651 512 L 589 498 C 560 491 542 482 571 474 L 593 468 Q 607 461 751 500 Q 812 516 866 516 L 887 520 Q 899 520 899 528 Q 901 533 892 538 Q 865 553 855 556 Z" fill="lightgray"></path>
				<path d="M 616 344 L 645 383 L 655 394 Q 662 400 661 406 Q 658 416 631 431 L 616 436 Q 600 440 598 440 Q 587 439 591 425 Q 591 391 558 340 L 528 291 L 498 249 Q 495 245 498 242 Q 501 239 508 242 L 522 252 Q 523 252 541 268 L 576 298 L 593 315 L 616 344 Z" fill="lightgray"></path>
				<path d="M 708 320 L 749 327 Q 812 338 829 343 L 850 348 Q 857 349 859 355 Q 861 360 860 362 Q 860 364 852 370 L 843 376 Q 841 376 836 381 Q 832 386 819 386 Q 806 386 800 384 Q 794 381 783 379 Q 747 365 672 350 L 635 346 Q 630 344 616 344 C 586 343 563 319 593 315 L 609 313 Q 631 310 657 315 L 708 320 Z" fill="lightgray"></path>
				<path d="M 895 234 L 875 232 L 847 226 L 712 204 L 658 196 L 533 177 Q 500 171 495 171 L 473 168 Q 466 168 463 162 Q 461 158 469 153 L 485 144 Q 508 133 521 130 Q 534 126 555 134 L 608 146 Q 624 147 646 152 L 699 162 L 845 176 L 955 181 Q 962 180 964 187 Q 965 193 958 199 L 942 213 Q 927 225 917 228 Q 907 231 895 234 Z" fill="lightgray"></path>
				<path d="M 712 204 L 721 245 Q 723 255 729 275 L 734 290 L 734 298 Q 734 303 725 310 Q 721 310 717 313 L 708 320 C 684 337 648 344 657 315 L 665 290 Q 668 274 667 263 L 665 235 L 658 196 L 646 152 L 635 120 Q 628 96 603 65 Q 578 34 555 14 Q 532 -7 498 -26 Q 464 -45 445 -51 L 434 -55 Q 424 -56 424 -66 Q 425 -71 435 -70 L 449 -68 Q 511 -63 575 -20 Q 611 4 635 34 Q 660 63 670 88 Q 681 113 699 162 L 712 204 Z" fill="lightgray"></path>
				<path d="M 740 107 L 782 61 Q 807 32 833 -7 Q 864 -53 885 -70 Q 902 -86 912 -84 Q 923 -82 933 -61 Q 943 -38 922 -4 Q 902 29 870 52 Q 839 74 806 89 Q 774 104 768 108 L 749 116 Q 740 118 739 114 Q 734 112 740 107 Z" fill="lightgray"></path>
</g>
		<text x="40" y="140" font-size="128" fill="#999999">2</text></g>
		<g id="id0:id2:id2" transform="matrix(1.0,0,0,1.0,2048,0.0)">			<g stroke="lightgray" stroke-width="4" transform="scale(4, 4)"> <rect x="0" y="0" width="256" height="256" fill="white" stroke-width="4"/></g>
			<g transform="scale(0.92, -0.92) translate(60, -920)">					<path d="M 356 504 L 360 514 Q 363 524 363 545 Q 364 566 355 581 Q 347 593 324 610 Q 305 626 292 630 L 275 637 Q 263 640 259 637 Q 255 633 257 626 L 264 610 Q 266 599 276 578 L 297 533 Q 304 514 309 509 Q 314 503 323 496 C 346 478 346 478 356 504 Z" fill="black"></path>
				<path d="M 446 480 L 467 483 Q 480 484 482 489 Q 482 493 477 501 Q 467 518 432 518 L 356 504 L 323 496 L 253 480 Q 193 466 177 464 L 126 458 Q 121 456 122 449 Q 123 441 135 434 Q 168 415 181 417 Q 194 418 215 426 L 243 436 L 279 446 L 320 458 L 425 477 Q 428 476 446 480 Z" fill="black"></path>
				<path d="M 316 340 L 329 331 Q 341 324 358 321 Q 375 318 379 315 Q 383 312 383 303 Q 385 294 382 277 L 379 258 Q 371 205 364 184 L 334 98 Q 314 37 293 34 Q 284 31 271 38 L 240 52 L 230 59 Q 221 62 218 59 Q 215 56 219 52 L 230 36 Q 234 27 251 2 Q 268 -24 271 -36 Q 275 -49 279 -50 Q 288 -55 303 -44 Q 323 -33 334 -22 Q 351 -3 359 10 Q 367 22 387 73 Q 407 123 411 140 L 438 249 Q 438 251 443 266 L 449 280 L 459 294 Q 464 302 462 307 Q 461 312 449 327 Q 437 342 430 348 Q 420 354 413 356 L 353 358 Q 347 360 340 361 L 327 363 C 297 368 291 357 316 340 Z" fill="red"></path>
				<path d="M 279 446 L 280 426 Q 282 412 261 336 Q 248 300 237 275 L 202 210 Q 165 146 110 91 L 59 45 Q 55 41 57 37 Q 60 32 68 35 L 76 40 Q 127 61 177 111 Q 212 143 234 179 Q 257 214 278 255 L 307 324 L 316 340 L 327 363 L 337 391 L 350 412 Q 356 421 356 428 Q 356 434 342 442 L 320 458 C 296 476 278 476 279 446 Z" fill="lightgray"></path>
				<path d="M 589 498 L 601 516 Q 645 590 651 609 Q 658 627 666 634 L 679 650 Q 681 652 681 656 Q 684 671 652 696 L 626 710 Q 617 713 609 710 Q 601 707 602 690 Q 604 672 595 646 Q 595 638 581 602 Q 569 565 562 551 L 530 490 L 499 438 L 469 394 Q 463 387 465 382 Q 467 376 480 384 L 501 401 Q 509 406 523 421 L 545 444 L 571 474 L 589 498 Z" fill="lightgray"></path>
				<path d="M 855 556 L 829 561 Q 821 561 792 552 L 711 528 L 651 512 L 589 498 C 560 491 542 482 571 474 L 593 468 Q 607 461 751 500 Q 812 516 866 516 L 887 520 Q 899 520 899 528 Q 901 533 892 538 Q 865 553 855 556 Z" fill="lightgray"></path>
				<path d="M 616 344 L 645 383 L 655 394 Q 662 400 661 406 Q 658 416 631 431 L 616 436 Q 600 440 598 440 Q 587 439 591 425 Q 591 391 558 340 L 528 291 L 498 249 Q 495 245 498 242 Q 501 239 508 242 L 522 252 Q 523 252 541 268 L 576 298 L 593 315 L 616 344 Z" fill="lightgray"></path>
				<path d="M 708 320 L 749 327 Q 812 338 829 343 L 850 348 Q 857 349 859 355 Q 861 360 860 362 Q 860 364 852 370 L 843 376 Q 841 376 836 381 Q 832 386 819 386 Q 806 386 800 384 Q 794 381 783 379 Q 747 365 672 350 L 635 346 Q 630 344 616 344 C 586 343 563 319 593 315 L 609 313 Q 631 310 657 315 L 708 320 Z" fill="lightgray"></path>
				<path d="M 895 234 L 875 232 L 847 226 L 712 204 L 658 196 L 533 177 Q 500 171 495 171 L 473 168 Q 466 168 463 162 Q 461 158 469 153 L 485 144 Q 508 133 521 130 Q 534 126 555 134 L 608 146 Q 624 147 646 152 L 699 162 L 845 176 L 955 181 Q 962 180 964 187 Q 965 193 958 199 L 942 213 Q 927 225 917 228 Q 907 231 895 234 Z" fill="lightgray"></path>
				<path d="M 712 204 L 721 245 Q 723 255 729 275 L 734 290 L 734 298 Q 734 303 725 310 Q 721 310 717 313 L 708 320 C 684 337 648 344 657 315 L 665 290 Q 668 274 667 263 L 665 235 L 658 196 L 646 152 L 635 120 Q 628 96 603 65 Q 578 34 555 14 Q 532 -7 498 -26 Q 464 -45 445 -51 L 434 -55 Q 424 -56 424 -66 Q 425 -71 435 -70 L 449 -68 Q 511 -63 575 -20 Q 611 4 635 34 Q 660 63 670 88 Q 681 113 699 162 L 712 204 Z" fill="lightgray"></path>
				<path d="M 740 107 L 782 61 Q 807 32 833 -7 Q 864 -53 885 -70 Q 902 -86 912 -84 Q 923 -82 933 -61 Q 943 -38 922 -4 Q 902 29 870 52 Q 839 74 806 89 Q 774 104 768 108 L 749 116 Q 740 118 739 114 Q 734 112 740 107 Z" fill="lightgray"></path>
</g>
		<text x="40" y="140" font-size="128" fill="#999999">3</text></g>
		<g id="id0:id3:id3" transform="matrix(1.0,0,0,1.0,3072,0.0)">			<g stroke="lightgray" stroke-width="4" transform="scale(4, 4)"> <rect x="0" y="0" width="256" height="256" fill="white" stroke-width="4"/></g>
			<g transform="scale(0.92, -0.92) translate(60, -920)">					<path d="M 356 504 L 360 514 Q 363 524 363 545 Q 364 566 355 581 Q 347 593 324 610 Q 305 626 292 630 L 275 637 Q 263 640 259 637 Q 255 633 257 626 L 264 610 Q 266 599 276 578 L 297 533 Q 304 514 309 509 Q 314 503 323 496 C 346 478 346 478 356 504 Z" fill="black"></path>
				<path d="M 446 480 L 467 483 Q 480 484 482 489 Q 482 493 477 501 Q 467 518 432 518 L 356 504 L 323 496 L 253 480 Q 193 466 177 464 L 126 458 Q 121 456 122 449 Q 123 441 135 434 Q 168 415 181 417 Q 194 418 215 426 L 243 436 L 279 446 L 320 458 L 425 477 Q 428 476 446 480 Z" fill="black"></path>
				<path d="M 316 340 L 329 331 Q 341 324 358 321 Q 375 318 379 315 Q 383 312 383 303 Q 385 294 382 277 L 379 258 Q 371 205 364 184 L 334 98 Q 314 37 293 34 Q 284 31 271 38 L 240 52 L 230 59 Q 221 62 218 59 Q 215 56 219 52 L 230 36 Q 234 27 251 2 Q 268 -24 271 -36 Q 275 -49 279 -50 Q 288 -55 303 -44 Q 323 -33 334 -22 Q 351 -3 359 10 Q 367 22 387 73 Q 407 123 411 140 L 438 249 Q 438 251 443 266 L 449 280 L 459 294 Q 464 302 462 307 Q 461 312 449 327 Q 437 342 430 348 Q 420 354 413 356 L 353 358 Q 347 360 340 361 L 327 363 C 297 368 291 357 316 340 Z" fill="black"></path>
				<path d="M 279 446 L 280 426 Q 282 412 261 336 Q 248 300 237 275 L 202 210 Q 165 146 110 91 L 59 45 Q 55 41 57 37 Q 60 32 68 35 L 76 40 Q 127 61 177 111 Q 212 143 234 179 Q 257 214 278 255 L 307 324 L 316 340 L 327 363 L 337 391 L 350 412 Q 356 421 356 428 Q 356 434 342 442 L 320 458 C 296 476 278 476 279 446 Z" fill="red"></path>
				<path d="M 589 498 L 601 516 Q 645 590 651 609 Q 658 627 666 634 L 679 650 Q 681 652 681 656 Q 684 671 652 696 L 626 710 Q 617 713 609 710 Q 601 707 602 690 Q 604 672 595 646 Q 595 638 581 602 Q 569 565 562 551 L 530 490 L 499 438 L 469 394 Q 463 387 465 382 Q 467 376 480 384 L 501 401 Q 509 406 523 421 L 545 444 L 571 474 L 589 498 Z" fill="lightgray"></path>
				<path d="M 855 556 L 829 561 Q 821 561 792 552 L 711 528 L 651 512 L 589 498 C 560 491 542 482 571 474 L 593 468 Q 607 461 751 500 Q 812 516 866 516 L 887 520 Q 899 520 899 528 Q 901 533 892 538 Q 865 553 855 556 Z" fill="lightgray"></path>
				<path d="M 616 344 L 645 383 L 655 394 Q 662 400 661 406 Q 658 416 631 431 L 616 436 Q 600 440 598 440 Q 587 439 591 425 Q 591 391 558 340 L 528 291 L 498 249 Q 495 245 498 242 Q 501 239 508 242 L 522 252 Q 523 252 541 268 L 576 298 L 593 315 L 616 344 Z" fill="lightgray"></path>
				<path d="M 708 320 L 749 327 Q 812 338 829 343 L 850 348 Q 857 349 859 355 Q 861 360 860 362 Q 860 364 852 370 L 843 376 Q 841 376 836 381 Q 832 386 819 386 Q 806 386 800 384 Q 794 381 783 379 Q 747 365 672 350 L 635 346 Q 630 344 616 344 C 586 343 563 319 593 315 L 609 313 Q 631 310 657 315 L 708 320 Z" fill="lightgray"></path>
				<path d="M 895 234 L 875 232 L 847 226 L 712 204 L 658 196 L 533 177 Q 500 171 495 171 L 473 168 Q 466 168 463 162 Q 461 158 469 153 L 485 144 Q 508 133 521 130 Q 534 126 555 134 L 608 146 Q 624 147 646 152 L 699 162 L 845 176 L 955 181 Q 962 180 964 187 Q 965 193 958 199 L 942 213 Q 927 225 917 228 Q 907 231 895 234 Z" fill="lightgray"></path>
				<path d="M 712 204 L 721 245 Q 723 255 729 275 L 734 290 L 734 298 Q 734 303 725 310 Q 721 310 717 313 L 708 320 C 684 337 648 344 657 315 L 665 290 Q 668 274 667 263 L 665 235 L 658 196 L 646 152 L 635 120 Q 628 96 603 65 Q 578 34 555 14 Q 532 -7 498 -26 Q 464 -45 445 -51 L 434 -55 Q 424 -56 424 -66 Q 425 -71 435 -70 L 449 -68 Q 511 -63 575 -20 Q 611 4 635 34 Q 660 63 670 88 Q 681 113 699 162 L 712 204 Z" fill="lightgray"></path>
				<path d="M 740 107 L 782 61 Q 807 32 833 -7 Q 864 -53 885 -70 Q 902 -86 912 -84 Q 923 -82 933 -61 Q 943 -38 922 -4 Q 902 29 870 52 Q 839 74 806 89 Q 774 104 768 108 L 749 116 Q 740 118 739 114 Q 734 112 740 107 Z" fill="lightgray"></path>
</g>
		<text x="40" y="140" font-size="128" fill="#999999">4</text></g>
		<g id="id0:id4:id4" transform="matrix(1.0,0,0,1.0,4096,0.0)">			<g stroke="lightgray" stroke-width="4" transform="scale(4, 4)"> <rect x="0" y="0" width="256" height="256" fill="white" stroke-width="4"/></g>
			<g transform="scale(0.92, -0.92) translate(60, -920)">					<path d="M 356 504 L 360 514 Q 363 524 363 545 Q 364 566 355 581 Q 347 593 324 610 Q 305 626 292 630 L 275 637 Q 263 640 259 637 Q 255 633 257 626 L 264 610 Q 266 599 276 578 L 297 533 Q 304 514 309 509 Q 314 503 323 496 C 346 478 346 478 356 504 Z" fill="black"></path>
				<path d="M 446 480 L 467 483 Q 480 484 482 489 Q 482 493 477 501 Q 467 518 432 518 L 356 504 L 323 496 L 253 480 Q 193 466 177 464 L 126 458 Q 121 456 122 449 Q 123 441 135 434 Q 168 415 181 417 Q 194 418 215 426 L 243 436 L 279 446 L 320 458 L 425 477 Q 428 476 446 480 Z" fill="black"></path>
				<path d="M 316 340 L 329 331 Q 341 324 358 321 Q 375 318 379 315 Q 383 312 383 303 Q 385 294 382 277 L 379 258 Q 371 205 364 184 L 334 98 Q 314 37 293 34 Q 284 31 271 38 L 240 52 L 230 59 Q 221 62 218 59 Q 215 56 219 52 L 230 36 Q 234 27 251 2 Q 268 -24 271 -36 Q 275 -49 279 -50 Q 288 -55 303 -44 Q 323 -33 334 -22 Q 351 -3 359 10 Q 367 22 387 73 Q 407 123 411 140 L 438 249 Q 438 251 443 266 L 449 280 L 459 294 Q 464 302 462 307 Q 461 312 449 327 Q 437 342 430 348 Q 420 354 413 356 L 353 358 Q 347 360 340 361 L 327 363 C 297 368 291 357 316 340 Z" fill="black"></path>
				<path d="M 279 446 L 280 426 Q 282 412 261 336 Q 248 300 237 275 L 202 210 Q 165 146 110 91 L 59 45 Q 55 41 57 37 Q 60 32 68 35 L 76 40 Q 127 61 177 111 Q 212 143 234 179 Q 257 214 278 255 L 307 324 L 316 340 L 327 363 L 337 391 L 350 412 Q 356 421 356 428 Q 356 434 342 442 L 320 458 C 296 476 278 476 279 446 Z" fill="black"></path>
				<path d="M 589 498 L 601 516 Q 645 590 651 609 Q 658 627 666 634 L 679 650 Q 681 652 681 656 Q 684 671 652 696 L 626 710 Q 617 713 609 710 Q 601 707 602 690 Q 604 672 595 646 Q 595 638 581 602 Q 569 565 562 551 L 530 490 L 499 438 L 469 394 Q 463 387 465 382 Q 467 376 480 384 L 501 401 Q 509 406 523 421 L 545 444 L 571 474 L 589 498 Z" fill="red"></path>
				<path d="M 855 556 L 829 561 Q 821 561 792 552 L 711 528 L 651 512 L 589 498 C 560 491 542 482 571 474 L 593 468 Q 607 461 751 500 Q 812 516 866 516 L 887 520 Q 899 520 899 528 Q 901 533 892 538 Q 865 553 855 556 Z" fill="lightgray"></path>
				<path d="M 616 344 L 645 383 L 655 394 Q 662 400 661 406 Q 658 416 631 431 L 616 436 Q 600 440 598 440 Q 587 439 591 425 Q 591 391 558 340 L 528 291 L 498 249 Q 495 245 498 242 Q 501 239 508 242 L 522 252 Q 523 252 541 268 L 576 298 L 593 315 L 616 344 Z" fill="lightgray"></path>
				<path d="M 708 320 L 749 327 Q 812 338 829 343 L 850 348 Q 857 349 859 355 Q 861 360 860 362 Q 860 364 852 370 L 843 376 Q 841 376 836 381 Q 832 386 819 386 Q 806 386 800 384 Q 794 381 783 379 Q 747 365 672 350 L 635 346 Q 630 344 616 344 C 586 343 563 319 593 315 L 609 313 Q 631 310 657 315 L 708 320 Z" fill="lightgray"></path>
				<path d="M 895 234 L 875 232 L 847 226 L 712 204 L 658 196 L 533 177 Q 500 171 495 171 L 473 168 Q 466 168 463 162 Q 461 158 469 153 L 485 144 Q 508 133 521 130 Q 534 126 555 134 L 608 146 Q 624 147 646 152 L 699 162 L 845 176 L 955 181 Q 962 180 964 187 Q 965 193 958 199 L 942 213 Q 927 225 917 228 Q 907 231 895 234 Z" fill="lightgray"></path>
				<path d="M 712 204 L 721 245 Q 723 255 729 275 L 734 290 L 734 298 Q 734 303 725 310 Q 721 310 717 313 L 708 320 C 684 337 648 344 657 315 L 665 290 Q 668 274 667 263 L 665 235 L 658 196 L 646 152 L 635 120 Q 628 96 603 65 Q 578 34 555 14 Q 532 -7 498 -26 Q 464 -45 445 -51 L 434 -55 Q 424 -56 424 -66 Q 425 -71 435 -70 L 449 -68 Q 511 -63 575 -20 Q 611 4 635 34 Q 660 63 670 88 Q 681 113 699 162 L 712 204 Z" fill="lightgray"></path>
				<path d="M 740 107 L 782 61 Q 807 32 833 -7 Q 864 -53 885 -70 Q 902 -86 912 -84 Q 923 -82 933 -61 Q 943 -38 922 -4 Q 902 29 870 52 Q 839 74 806 89 Q 774 104 768 108 L 749 116 Q 740 118 739 114 Q 734 112 740 107 Z" fill="lightgray"></path>
</g>
		<text x="40" y="140" font-size="128" fill="#999999">5</text></g>
</g>
	<g id="id1:id1" transform="translate(0.0,1024)">
		<g id="id1:id0:id0" transform="matrix(1.0,0,0,1.0,0,0.0)">			<g stroke="lightgray" stroke-width="4" transform="scale(4, 4)"> <rect x="0" y="0" width="256" height="256" fill="white" stroke-width="4"/></g>
			<g transform="scale(0.92, -0.92) translate(60, -920)">					<path d="M 356 504 L 360 514 Q 363 524 363 545 Q 364 566 355 581 Q 347 593 324 610 Q 305 626 292 630 L 275 637 Q 263 640 259 637 Q 255 633 257 626 L 264 610 Q 266 599 276 578 L 297 533 Q 304 514 309 509 Q 314 503 323 496 C 346 478 346 478 356 504 Z" fill="black"></path>
				<path d="M 446 480 L 467 483 Q 480 484 482 489 Q 482 493 477 501 Q 467 518 432 518 L 356 504 L 323 496 L 253 480 Q 193 466 177 464 L 126 458 Q 121 456 122 449 Q 123 441 135 434 Q 168 415 181 417 Q 194 418 215 426 L 243 436 L 279 446 L 320 458 L 425 477 Q 428 476 446 480 Z" fill="black"></path>
				<path d="M 316 340 L 329 331 Q 341 324 358 321 Q 375 318 379 315 Q 383 312 383 303 Q 385 294 382 277 L 379 258 Q 371 205 364 184 L 334 98 Q 314 37 293 34 Q 284 31 271 38 L 240 52 L 230 59 Q 221 62 218 59 Q 215 56 219 52 L 230 36 Q 234 27 251 2 Q 268 -24 271 -36 Q 275 -49 279 -50 Q 288 -55 303 -44 Q 323 -33 334 -22 Q 351 -3 359 10 Q 367 22 387 73 Q 407 123 411 140 L 438 249 Q 438 251 443 266 L 449 280 L 459 294 Q 464 302 462 307 Q 461 312 449 327 Q 437 342 430 348 Q 420 354 413 356 L 353 358 Q 347 360 340 361 L 327 363 C 297 368 291 357 316 340 Z" fill="black"></path>
				<path d="M 279 446 L 280 426 Q 282 412 261 336 Q 248 300 237 275 L 202 210 Q 165 146 110 91 L 59 45 Q 55 41 57 37 Q 60 32 68 35 L 76 40 Q 127 61 177 111 Q 212 143 234 179 Q 257 214 278 255 L 307 324 L 316 340 L 327 363 L 337 391 L 350 412 Q 356 421 356 428 Q 356 434 342 442 L 320 458 C 296 476 278 476 279 446 Z" fill="black"></path>
				<path d="M 589 498 L 601 516 Q 645 590 651 609 Q 658 627 666 634 L 679 650 Q 681 652 681 656 Q 684 671 652 696 L 626 710 Q 617 713 609 710 Q 601 707 602 690 Q 604 672 595 646 Q 595 638 581 602 Q 569 565 562 551 L 530 490 L 499 438 L 469 394 Q 463 387 465 382 Q 467 376 480 384 L 501 401 Q 509 406 523 421 L 545 444 L 571 474 L 589 498 Z" fill="black"></path>
				<path d="M 855 556 L 829 561 Q 821 561 792 552 L 711 528 L 651 512 L 589 498 C 560 491 542 482 571 474 L 593 468 Q 607 461 751 500 Q 812 516 866 516 L 887 520 Q 899 520 899 528 Q 901 533 892 538 Q 865 553 855 556 Z" fill="red"></path>
				<path d="M 616 344 L 645 383 L 655 394 Q 662 400 661 406 Q 658 416 631 431 L 616 436 Q 600 440 598 440 Q 587 439 591 425 Q 591 391 558 340 L 528 291 L 498 249 Q 495 245 498 242 Q 501 239 508 242 L 522 252 Q 523 252 541 268 L 576 298 L 593 315 L 616 344 Z" fill="lightgray"></path>
				<path d="M 708 320 L 749 327 Q 812 338 829 343 L 850 348 Q 857 349 859 355 Q 861 360 860 362 Q 860 364 852 370 L 843 376 Q 841 376 836 381 Q 832 386 819 386 Q 806 386 800 384 Q 794 381 783 379 Q 747 365 672 350 L 635 346 Q 630 344 616 344 C 586 343 563 319 593 315 L 609 313 Q 631 310 657 315 L 708 320 Z" fill="lightgray"></path>
				<path d="M 895 234 L 875 232 L 847 226 L 712 204 L 658 196 L 533 177 Q 500 171 495 171 L 473 168 Q 466 168 463 162 Q 461 158 469 153 L 485 144 Q 508 133 521 130 Q 534 126 555 134 L 608 146 Q 624 147 646 152 L 699 162 L 845 176 L 955 181 Q 962 180 964 187 Q 965 193 958 199 L 942 213 Q 927 225 917 228 Q 907 231 895 234 Z" fill="lightgray"></path>
				<path d="M 712 204 L 721 245 Q 723 255 729 275 L 734 290 L 734 298 Q 734 303 725 310 Q 721 310 717 313 L 708 320 C 684 337 648 344 657 315 L 665 290 Q 668 274 667 263 L 665 235 L 658 196 L 646 152 L 635 120 Q 628 96 603 65 Q 578 34 555 14 Q 532 -7 498 -26 Q 464 -45 445 -51 L 434 -55 Q 424 -56 424 -66 Q 425 -71 435 -70 L 449 -68 Q 511 -63 575 -20 Q 611 4 635 34 Q 660 63 670 88 Q 681 113 699 162 L 712 204 Z" fill="lightgray"></path>
				<path d="M 740 107 L 782 61 Q 807 32 833 -7 Q 864 -53 885 -70 Q 902 -86 912 -84 Q 923 -82 933 -61 Q 943 -38 922 -4 Q 902 29 870 52 Q 839 74 806 89 Q 774 104 768 108 L 749 116 Q 740 118 739 114 Q 734 112 740 107 Z" fill="lightgray"></path>
</g>
		<text x="40" y="140" font-size="128" fill="#999999">6</text></g>
		<g id="id1:id1:id1" transform="matrix(1.0,0,0,1.0,1024,0.0)">			<g stroke="lightgray" stroke-width="4" transform="scale(4, 4)"> <rect x="0" y="0" width="256" height="256" fill="white" stroke-width="4"/></g>
			<g transform="scale(0.92, -0.92) translate(60, -920)">					<path d="M 356 504 L 360 514 Q 363 524 363 545 Q 364 566 355 581 Q 347 593 324 610 Q 305 626 292 630 L 275 637 Q 263 640 259 637 Q 255 633 257 626 L 264 610 Q 266 599 276 578 L 297 533 Q 304 514 309 509 Q 314 503 323 496 C 346 478 346 478 356 504 Z" fill="black"></path>
				<path d="M 446 480 L 467 483 Q 480 484 482 489 Q 482 493 477 501 Q 467 518 432 518 L 356 504 L 323 496 L 253 480 Q 193 466 177 464 L 126 458 Q 121 456 122 449 Q 123 441 135 434 Q 168 415 181 417 Q 194 418 215 426 L 243 436 L 279 446 L 320 458 L 425 477 Q 428 476 446 480 Z" fill="black"></path>
				<path d="M 316 340 L 329 331 Q 341 324 358 321 Q 375 318 379 315 Q 383 312 383 303 Q 385 294 382 277 L 379 258 Q 371 205 364 184 L 334 98 Q 314 37 293 34 Q 284 31 271 38 L 240 52 L 230 59 Q 221 62 218 59 Q 215 56 219 52 L 230 36 Q 234 27 251 2 Q 268 -24 271 -36 Q 275 -49 279 -50 Q 288 -55 303 -44 Q 323 -33 334 -22 Q 351 -3 359 10 Q 367 22 387 73 Q 407 123 411 140 L 438 249 Q 438 251 443 266 L 449 280 L 459 294 Q 464 302 462 307 Q 461 312 449 327 Q 437 342 430 348 Q 420 354 413 356 L 353 358 Q 347 360 340 361 L 327 363 C 297 368 291 357 316 340 Z" fill="black"></path>
				<path d="M 279 446 L 280 426 Q 282 412 261 336 Q 248 300 237 275 L 202 210 Q 165 146 110 91 L 59 45 Q 55 41 57 37 Q 60 32 68 35 L 76 40 Q 127 61 177 111 Q 212 143 234 179 Q 257 214 278 255 L 307 324 L 316 340 L 327 363 L 337 391 L 350 412 Q 356 421 356 428 Q 356 434 342 442 L 320 458 C 296 476 278 476 279 446 Z" fill="black"></path>
				<path d="M 589 498 L 601 516 Q 645 590 651 609 Q 658 627 666 634 L 679 650 Q 681 652 681 656 Q 684 671 652 696 L 626 710 Q 617 713 609 710 Q 601 707 602 690 Q 604 672 595 646 Q 595 638 581 602 Q 569 565 562 551 L 530 490 L 499 438 L 469 394 Q 463 387 465 382 Q 467 376 480 384 L 501 401 Q 509 406 523 421 L 545 444 L 571 474 L 589 498 Z" fill="black"></path>
				<path d="M 855 556 L 829 561 Q 821 561 792 552 L 711 528 L 651 512 L 589 498 C 560 491 542 482 571 474 L 593 468 Q 607 461 751 500 Q 812 516 866 516 L 887 520 Q 899 520 899 528 Q 901 533 892 538 Q 865 553 855 556 Z" fill="black"></path>
				<path d="M 616 344 L 645 383 L 655 394 Q 662 400 661 406 Q 658 416 631 431 L 616 436 Q 600 440 598 440 Q 587 439 591 425 Q 591 391 558 340 L 528 291 L 498 249 Q 495 245 498 242 Q 501 239 508 242 L 522 252 Q 523 252 541 268 L 576 298 L 593 315 L 616 344 Z" fill="red"></path>
				<path d="M 708 320 L 749 327 Q 812 338 829 343 L 850 348 Q 857 349 859 355 Q 861 360 860 362 Q 860 364 852 370 L 843 376 Q 841 376 836 381 Q 832 386 819 386 Q 806 386 800 384 Q 794 381 783 379 Q 747 365 672 350 L 635 346 Q 630 344 616 344 C 586 343 563 319 593 315 L 609 313 Q 631 310 657 315 L 708 320 Z" fill="lightgray"></path>
				<path d="M 895 234 L 875 232 L 847 226 L 712 204 L 658 196 L 533 177 Q 500 171 495 171 L 473 168 Q 466 168 463 162 Q 461 158 469 153 L 485 144 Q 508 133 521 130 Q 534 126 555 134 L 608 146 Q 624 147 646 152 L 699 162 L 845 176 L 955 181 Q 962 180 964 187 Q 965 193 958 199 L 942 213 Q 927 225 917 228 Q 907 231 895 234 Z" fill="lightgray"></path>
				<path d="M 712 204 L 721 245 Q 723 255 729 275 L 734 290 L 734 298 Q 734 303 725 310 Q 721 310 717 313 L 708 320 C 684 337 648 344 657 315 L 665 290 Q 668 274 667 263 L 665 235 L 658 196 L 646 152 L 635 120 Q 628 96 603 65 Q 578 34 555 14 Q 532 -7 498 -26 Q 464 -45 445 -51 L 434 -55 Q 424 -56 424 -66 Q 425 -71 435 -70 L 449 -68 Q 511 -63 575 -20 Q 611 4 635 34 Q 660 63 670 88 Q 681 113 699 162 L 712 204 Z" fill="lightgray"></path>
				<path d="M 740 107 L 782 61 Q 807 32 833 -7 Q 864 -53 885 -70 Q 902 -86 912 -84 Q 923 -82 933 -61 Q 943 -38 922 -4 Q 902 29 870 52 Q 839 74 806 89 Q 774 104 768 108 L 749 116 Q 740 118 739 114 Q 734 112 740 107 Z" fill="lightgray"></path>
</g>
		<text x="40" y="140" font-size="128" fill="#999999">7</text></g>
		<g id="id1:id2:id2" transform="matrix(1.0,0,0,1.0,2048,0.0)">			<g stroke="lightgray" stroke-width="4" transform="scale(4, 4)"> <rect x="0" y="0" width="256" height="256" fill="white" stroke-width="4"/></g>
			<g transform="scale(0.92, -0.92) translate(60, -920)">					<path d="M 356 504 L 360 514 Q 363 524 363 545 Q 364 566 355 581 Q 347 593 324 610 Q 305 626 292 630 L 275 637 Q 263 640 259 637 Q 255 633 257 626 L 264 610 Q 266 599 276 578 L 297 533 Q 304 514 309 509 Q 314 503 323 496 C 346 478 346 478 356 504 Z" fill="black"></path>
				<path d="M 446 480 L 467 483 Q 480 484 482 489 Q 482 493 477 501 Q 467 518 432 518 L 356 504 L 323 496 L 253 480 Q 193 466 177 464 L 126 458 Q 121 456 122 449 Q 123 441 135 434 Q 168 415 181 417 Q 194 418 215 426 L 243 436 L 279 446 L 320 458 L 425 477 Q 428 476 446 480 Z" fill="black"></path>
				<path d="M 316 340 L 329 331 Q 341 324 358 321 Q 375 318 379 315 Q 383 312 383 303 Q 385 294 382 277 L 379 258 Q 371 205 364 184 L 334 98 Q 314 37 293 34 Q 284 31 271 38 L 240 52 L 230 59 Q 221 62 218 59 Q 215 56 219 52 L 230 36 Q 234 27 251 2 Q 268 -24 271 -36 Q 275 -49 279 -50 Q 288 -55 303 -44 Q 323 -33 334 -22 Q 351 -3 359 10 Q 367 22 387 73 Q 407 123 411 140 L 438 249 Q 438 251 443 266 L 449 280 L 459 294 Q 464 302 462 307 Q 461 312 449 327 Q 437 342 430 348 Q 420 354 413 356 L 353 358 Q 347 360 340 361 L 327 363 C 297 368 291 357 316 340 Z" fill="black"></path>
				<path d="M 279 446 L 280 426 Q 282 412 261 336 Q 248 300 237 275 L 202 210 Q 165 146 110 91 L 59 45 Q 55 41 57 37 Q 60 32 68 35 L 76 40 Q 127 61 177 111 Q 212 143 234 179 Q 257 214 278 255 L 307 324 L 316 340 L 327 363 L 337 391 L 350 412 Q 356 421 356 428 Q 356 434 342 442 L 320 458 C 296 476 278 476 279 446 Z" fill="black"></path>
				<path d="M 589 498 L 601 516 Q 645 590 651 609 Q 658 627 666 634 L 679 650 Q 681 652 681 656 Q 684 671 652 696 L 626 710 Q 617 713 609 710 Q 601 707 602 690 Q 604 672 595 646 Q 595 638 581 602 Q 569 565 562 551 L 530 490 L 499 438 L 469 394 Q 463 387 465 382 Q 467 376 480 384 L 501 401 Q 509 406 523 421 L 545 444 L 571 474 L 589 498 Z" fill="black"></path>
				<path d="M 855 556 L 829 561 Q 821 561 792 552 L 711 528 L 651 512 L 589 498 C 560 491 542 482 571 474 L 593 468 Q 607 461 751 500 Q 812 516 866 516 L 887 520 Q 899 520 899 528 Q 901 533 892 538 Q 865 553 855 556 Z" fill="black"></path>
				<path d="M 616 344 L 645 383 L 655 394 Q 662 400 661 406 Q 658 416 631 431 L 616 436 Q 600 440 598 440 Q 587 439 591 425 Q 591 391 558 340 L 528 291 L 498 249 Q 495 245 498 242 Q 501 239 508 242 L 522 252 Q 523 252 541 268 L 576 298 L 593 315 L 616 344 Z" fill="black"></path>
				<path d="M 708 320 L 749 327 Q 812 338 829 343 L 850 348 Q 857 349 859 355 Q 861 360 860 362 Q 860 364 852 370 L 843 376 Q 841 376 836 381 Q 832 386 819 386 Q 806 386 800 384 Q 794 381 783 379 Q 747 365 672 350 L 635 346 Q 630 344 616 344 C 586 343 563 319 593 315 L 609 313 Q 631 310 657 315 L 708 320 Z" fill="red"></path>
				<path d="M 895 234 L 875 232 L 847 226 L 712 204 L 658 196 L 533 177 Q 500 171 495 171 L 473 168 Q 466 168 463 162 Q 461 158 469 153 L 485 144 Q 508 133 521 130 Q 534 126 555 134 L 608 146 Q 624 147 646 152 L 699 162 L 845 176 L 955 181 Q 962 180 964 187 Q 965 193 958 199 L 942 213 Q 927 225 917 228 Q 907 231 895 234 Z" fill="lightgray"></path>
				<path d="M 712 204 L 721 245 Q 723 255 729 275 L 734 290 L 734 298 Q 734 303 725 310 Q 721 310 717 313 L 708 320 C 684 337 648 344 657 315 L 665 290 Q 668 274 667 263 L 665 235 L 658 196 L 646 152 L 635 120 Q 628 96 603 65 Q 578 34 555 14 Q 532 -7 498 -26 Q 464 -45 445 -51 L 434 -55 Q 424 -56 424 -66 Q 425 -71 435 -70 L 449 -68 Q 511 -63 575 -20 Q 611 4 635 34 Q 660 63 670 88 Q 681 113 699 162 L 712 204 Z" fill="lightgray"></path>
				<path d="M 740 107 L 782 61 Q 807 32 833 -7 Q 864 -53 885 -70 Q 902 -86 912 -84 Q 923 -82 933 -61 Q 943 -38 922 -4 Q 902 29 870 52 Q 839 74 806 89 Q 774 104 768 108 L 749 116 Q 740 118 739 114 Q 734 112 740 107 Z" fill="lightgray"></path>
</g>
		<text x="40" y="140" font-size="128" fill="#999999">8</text></g>
		<g id="id1:id3:id3" transform="matrix(1.0,0,0,1.0,3072,0.0)">			<g stroke="lightgray" stroke-width="4" transform="scale(4, 4)"> <rect x="0" y="0" width="256" height="256" fill="white" stroke-width="4"/></g>
			<g transform="scale(0.92, -0.92) translate(60, -920)">					<path d="M 356 504 L 360 514 Q 363 524 363 545 Q 364 566 355 581 Q 347 593 324 610 Q 305 626 292 630 L 275 637 Q 263 640 259 637 Q 255 633 257 626 L 264 610 Q 266 599 276 578 L 297 533 Q 304 514 309 509 Q 314 503 323 496 C 346 478 346 478 356 504 Z" fill="black"></path>
				<path d="M 446 480 L 467 483 Q 480 484 482 489 Q 482 493 477 501 Q 467 518 432 518 L 356 504 L 323 496 L 253 480 Q 193 466 177 464 L 126 458 Q 121 456 122 449 Q 123 441 135 434 Q 168 415 181 417 Q 194 418 215 426 L 243 436 L 279 446 L 320 458 L 425 477 Q 428 476 446 480 Z" fill="black"></path>
				<path d="M 316 340 L 329 331 Q 341 324 358 321 Q 375 318 379 315 Q 383 312 383 303 Q 385 294 382 277 L 379 258 Q 371 205 364 184 L 334 98 Q 314 37 293 34 Q 284 31 271 38 L 240 52 L 230 59 Q 221 62 218 59 Q 215 56 219 52 L 230 36 Q 234 27 251 2 Q 268 -24 271 -36 Q 275 -49 279 -50 Q 288 -55 303 -44 Q 323 -33 334 -22 Q 351 -3 359 10 Q 367 22 387 73 Q 407 123 411 140 L 438 249 Q 438 251 443 266 L 449 280 L 459 294 Q 464 302 462 307 Q 461 312 449 327 Q 437 342 430 348 Q 420 354 413 356 L 353 358 Q 347 360 340 361 L 327 363 C 297 368 291 357 316 340 Z" fill="black"></path>
				<path d="M 279 446 L 280 426 Q 282 412 261 336 Q 248 300 237 275 L 202 210 Q 165 146 110 91 L 59 45 Q 55 41 57 37 Q 60 32 68 35 L 76 40 Q 127 61 177 111 Q 212 143 234 179 Q 257 214 278 255 L 307 324 L 316 340 L 327 363 L 337 391 L 350 412 Q 356 421 356 428 Q 356 434 342 442 L 320 458 C 296 476 278 476 279 446 Z" fill="black"></path>
				<path d="M 589 498 L 601 516 Q 645 590 651 609 Q 658 627 666 634 L 679 650 Q 681 652 681 656 Q 684 671 652 696 L 626 710 Q 617 713 609 710 Q 601 707 602 690 Q 604 672 595 646 Q 595 638 581 602 Q 569 565 562 551 L 530 490 L 499 438 L 469 394 Q 463 387 465 382 Q 467 376 480 384 L 501 401 Q 509 406 523 421 L 545 444 L 571 474 L 589 498 Z" fill="black"></path>
				<path d="M 855 556 L 829 561 Q 821 561 792 552 L 711 528 L 651 512 L 589 498 C 560 491 542 482 571 474 L 593 468 Q 607 461 751 500 Q 812 516 866 516 L 887 520 Q 899 520 899 528 Q 901 533 892 538 Q 865 553 855 556 Z" fill="black"></path>
				<path d="M 616 344 L 645 383 L 655 394 Q 662 400 661 406 Q 658 416 631 431 L 616 436 Q 600 440 598 440 Q 587 439 591 425 Q 591 391 558 340 L 528 291 L 498 249 Q 495 245 498 242 Q 501 239 508 242 L 522 252 Q 523 252 541 268 L 576 298 L 593 315 L 616 344 Z" fill="black"></path>
				<path d="M 708 320 L 749 327 Q 812 338 829 343 L 850 348 Q 857 349 859 355 Q 861 360 860 362 Q 860 364 852 370 L 843 376 Q 841 376 836 381 Q 832 386 819 386 Q 806 386 800 384 Q 794 381 783 379 Q 747 365 672 350 L 635 346 Q 630 344 616 344 C 586 343 563 319 593 315 L 609 313 Q 631 310 657 315 L 708 320 Z" fill="black"></path>
				<path d="M 895 234 L 875 232 L 847 226 L 712 204 L 658 196 L 533 177 Q 500 171 495 171 L 473 168 Q 466 168 463 162 Q 461 158 469 153 L 485 144 Q 508 133 521 130 Q 534 126 555 134 L 608 146 Q 624 147 646 152 L 699 162 L 845 176 L 955 181 Q 962 180 964 187 Q 965 193 958 199 L 942 213 Q 927 225 917 228 Q 907 231 895 234 Z" fill="red"></path>
				<path d="M 712 204 L 721 245 Q 723 255 729 275 L 734 290 L 734 298 Q 734 303 725 310 Q 721 310 717 313 L 708 320 C 684 337 648 344 657 315 L 665 290 Q 668 274 667 263 L 665 235 L 658 196 L 646 152 L 635 120 Q 628 96 603 65 Q 578 34 555 14 Q 532 -7 498 -26 Q 464 -45 445 -51 L 434 -55 Q 424 -56 424 -66 Q 425 -71 435 -70 L 449 -68 Q 511 -63 575 -20 Q 611 4 635 34 Q 660 63 670 88 Q 681 113 699 162 L 712 204 Z" fill="lightgray"></path>
				<path d="M 740 107 L 782 61 Q 807 32 833 -7 Q 864 -53 885 -70 Q 902 -86 912 -84 Q 923 -82 933 -61 Q 943 -38 922 -4 Q 902 29 870 52 Q 839 74 806 89 Q 774 104 768 108 L 749 116 Q 740 118 739 114 Q 734 112 740 107 Z" fill="lightgray"></path>
</g>
		<text x="40" y="140" font-size="128" fill="#999999">9</text></g>
		<g id="id1:id4:id4" transform="matrix(1.0,0,0,1.0,4096,0.0)">			<g stroke="lightgray" stroke-width="4" transform="scale(4, 4)"> <rect x="0" y="0" width="256" height="256" fill="white" stroke-width="4"/></g>
			<g transform="scale(0.92, -0.92) translate(60, -920)">					<path d="M 356 504 L 360 514 Q 363 524 363 545 Q 364 566 355 581 Q 347 593 324 610 Q 305 626 292 630 L 275 637 Q 263 640 259 637 Q 255 633 257 626 L 264 610 Q 266 599 276 578 L 297 533 Q 304 514 309 509 Q 314 503 323 496 C 346 478 346 478 356 504 Z" fill="black"></path>
				<path d="M 446 480 L 467 483 Q 480 484 482 489 Q 482 493 477 501 Q 467 518 432 518 L 356 504 L 323 496 L 253 480 Q 193 466 177 464 L 126 458 Q 121 456 122 449 Q 123 441 135 434 Q 168 415 181 417 Q 194 418 215 426 L 243 436 L 279 446 L 320 458 L 425 477 Q 428 476 446 480 Z" fill="black"></path>
				<path d="M 316 340 L 329 331 Q 341 324 358 321 Q 375 318 379 315 Q 383 312 383 303 Q 385 294 382 277 L 379 258 Q 371 205 364 184 L 334 98 Q 314 37 293 34 Q 284 31 271 38 L 240 52 L 230 59 Q 221 62 218 59 Q 215 56 219 52 L 230 36 Q 234 27 251 2 Q 268 -24 271 -36 Q 275 -49 279 -50 Q 288 -55 303 -44 Q 323 -33 334 -22 Q 351 -3 359 10 Q 367 22 387 73 Q 407 123 411 140 L 438 249 Q 438 251 443 266 L 449 280 L 459 294 Q 464 302 462 307 Q 461 312 449 327 Q 437 342 430 348 Q 420 354 413 356 L 353 358 Q 347 360 340 361 L 327 363 C 297 368 291 357 316 340 Z" fill="black"></path>
				<path d="M 279 446 L 280 426 Q 282 412 261 336 Q 248 300 237 275 L 202 210 Q 165 146 110 91 L 59 45 Q 55 41 57 37 Q 60 32 68 35 L 76 40 Q 127 61 177 111 Q 212 143 234 179 Q 257 214 278 255 L 307 324 L 316 340 L 327 363 L 337 391 L 350 412 Q 356 421 356 428 Q 356 434 342 442 L 320 458 C 296 476 278 476 279 446 Z" fill="black"></path>
				<path d="M 589 498 L 601 516 Q 645 590 651 609 Q 658 627 666 634 L 679 650 Q 681 652 681 656 Q 684 671 652 696 L 626 710 Q 617 713 609 710 Q 601 707 602 690 Q 604 672 595 646 Q 595 638 581 602 Q 569 565 562 551 L 530 490 L 499 438 L 469 394 Q 463 387 465 382 Q 467 376 480 384 L 501 401 Q 509 406 523 421 L 545 444 L 571 474 L 589 498 Z" fill="black"></path>
				<path d="M 855 556 L 829 561 Q 821 561 792 552 L 711 528 L 651 512 L 589 498 C 560 491 542 482 571 474 L 593 468 Q 607 461 751 500 Q 812 516 866 516 L 887 520 Q 899 520 899 528 Q 901 533 892 538 Q 865 553 855 556 Z" fill="black"></path>
				<path d="M 616 344 L 645 383 L 655 394 Q 662 400 661 406 Q 658 416 631 431 L 616 436 Q 600 440 598 440 Q 587 439 591 425 Q 591 391 558 340 L 528 291 L 498 249 Q 495 245 498 242 Q 501 239 508 242 L 522 252 Q 523 252 541 268 L 576 298 L 593 315 L 616 344 Z" fill="black"></path>
				<path d="M 708 320 L 749 327 Q 812 338 829 343 L 850 348 Q 857 349 859 355 Q 861 360 860 362 Q 860 364 852 370 L 843 376 Q 841 376 836 381 Q 832 386 819 386 Q 806 386 800 384 Q 794 381 783 379 Q 747 365 672 350 L 635 346 Q 630 344 616 344 C 586 343 563 319 593 315 L 609 313 Q 631 310 657 315 L 708 320 Z" fill="black"></path>
				<path d="M 895 234 L 875 232 L 847 226 L 712 204 L 658 196 L 533 177 Q 500 171 495 171 L 473 168 Q 466 168 463 162 Q 461 158 469 153 L 485 144 Q 508 133 521 130 Q 534 126 555 134 L 608 146 Q 624 147 646 152 L 699 162 L 845 176 L 955 181 Q 962 180 964 187 Q 965 193 958 199 L 942 213 Q 927 225 917 228 Q 907 231 895 234 Z" fill="black"></path>
				<path d="M 712 204 L 721 245 Q 723 255 729 275 L 734 290 L 734 298 Q 734 303 725 310 Q 721 310 717 313 L 708 320 C 684 337 648 344 657 315 L 665 290 Q 668 274 667 263 L 665 235 L 658 196 L 646 152 L 635 120 Q 628 96 603 65 Q 578 34 555 14 Q 532 -7 498 -26 Q 464 -45 445 -51 L 434 -55 Q 424 -56 424 -66 Q 425 -71 435 -70 L 449 -68 Q 511 -63 575 -20 Q 611 4 635 34 Q 660 63 670 88 Q 681 113 699 162 L 712 204 Z" fill="red"></path>
				<path d="M 740 107 L 782 61 Q 807 32 833 -7 Q 864 -53 885 -70 Q 902 -86 912 -84 Q 923 -82 933 -61 Q 943 -38 922 -4 Q 902 29 870 52 Q 839 74 806 89 Q 774 104 768 108 L 749 116 Q 740 118 739 114 Q 734 112 740 107 Z" fill="lightgray"></path>
</g>
		<text x="40" y="140" font-size="128" fill="#999999">10</text></g>
</g>
	<g id="id2:id2" transform="translate(0.0,2048)">
		<g id="id2:id0:id0" transform="matrix(1.0,0,0,1.0,0,0.0)">			<g stroke="lightgray" stroke-width="4" transform="scale(4, 4)"> <rect x="0" y="0" width="256" height="256" fill="white" stroke-width="4"/></g>
			<g transform="scale(0.92, -0.92) translate(60, -920)">					<path d="M 356 504 L 360 514 Q 363 524 363 545 Q 364 566 355 581 Q 347 593 324 610 Q 305 626 292 630 L 275 637 Q 263 640 259 637 Q 255 633 257 626 L 264 610 Q 266 599 276 578 L 297 533 Q 304 514 309 509 Q 314 503 323 496 C 346 478 346 478 356 504 Z" fill="black"></path>
				<path d="M 446 480 L 467 483 Q 480 484 482 489 Q 482 493 477 501 Q 467 518 432 518 L 356 504 L 323 496 L 253 480 Q 193 466 177 464 L 126 458 Q 121 456 122 449 Q 123 441 135 434 Q 168 415 181 417 Q 194 418 215 426 L 243 436 L 279 446 L 320 458 L 425 477 Q 428 476 446 480 Z" fill="black"></path>
				<path d="M 316 340 L 329 331 Q 341 324 358 321 Q 375 318 379 315 Q 383 312 383 303 Q 385 294 382 277 L 379 258 Q 371 205 364 184 L 334 98 Q 314 37 293 34 Q 284 31 271 38 L 240 52 L 230 59 Q 221 62 218 59 Q 215 56 219 52 L 230 36 Q 234 27 251 2 Q 268 -24 271 -36 Q 275 -49 279 -50 Q 288 -55 303 -44 Q 323 -33 334 -22 Q 351 -3 359 10 Q 367 22 387 73 Q 407 123 411 140 L 438 249 Q 438 251 443 266 L 449 280 L 459 294 Q 464 302 462 307 Q 461 312 449 327 Q 437 342 430 348 Q 420 354 413 356 L 353 358 Q 347 360 340 361 L 327 363 C 297 368 291 357 316 340 Z" fill="black"></path>
				<path d="M 279 446 L 280 426 Q 282 412 261 336 Q 248 300 237 275 L 202 210 Q 165 146 110 91 L 59 45 Q 55 41 57 37 Q 60 32 68 35 L 76 40 Q 127 61 177 111 Q 212 143 234 179 Q 257 214 278 255 L 307 324 L 316 340 L 327 363 L 337 391 L 350 412 Q 356 421 356 428 Q 356 434 342 442 L 320 458 C 296 476 278 476 279 446 Z" fill="black"></path>
				<path d="M 589 498 L 601 516 Q 645 590 651 609 Q 658 627 666 634 L 679 650 Q 681 652 681 656 Q 684 671 652 696 L 626 710 Q 617 713 609 710 Q 601 707 602 690 Q 604 672 595 646 Q 595 638 581 602 Q 569 565 562 551 L 530 490 L 499 438 L 469 394 Q 463 387 465 382 Q 467 376 480 384 L 501 401 Q 509 406 523 421 L 545 444 L 571 474 L 589 498 Z" fill="black"></path>
				<path d="M 855 556 L 829 561 Q 821 561 792 552 L 711 528 L 651 512 L 589 498 C 560 491 542 482 571 474 L 593 468 Q 607 461 751 500 Q 812 516 866 516 L 887 520 Q 899 520 899 528 Q 901 533 892 538 Q 865 553 855 556 Z" fill="black"></path>
				<path d="M 616 344 L 645 383 L 655 394 Q 662 400 661 406 Q 658 416 631 431 L 616 436 Q 600 440 598 440 Q 587 439 591 425 Q 591 391 558 340 L 528 291 L 498 249 Q 495 245 498 242 Q 501 239 508 242 L 522 252 Q 523 252 541 268 L 576 298 L 593 315 L 616 344 Z" fill="black"></path>
				<path d="M 708 320 L 749 327 Q 812 338 829 343 L 850 348 Q 857 349 859 355 Q 861 360 860 362 Q 860 364 852 370 L 843 376 Q 841 376 836 381 Q 832 386 819 386 Q 806 386 800 384 Q 794 381 783 379 Q 747 365 672 350 L 635 346 Q 630 344 616 344 C 586 343 563 319 593 315 L 609 313 Q 631 310 657 315 L 708 320 Z" fill="black"></path>
				<path d="M 895 234 L 875 232 L 847 226 L 712 204 L 658 196 L 533 177 Q 500 171 495 171 L 473 168 Q 466 168 463 162 Q 461 158 469 153 L 485 144 Q 508 133 521 130 Q 534 126 555 134 L 608 146 Q 624 147 646 152 L 699 162 L 845 176 L 955 181 Q 962 180 964 187 Q 965 193 958 199 L 942 213 Q 927 225 917 228 Q 907 231 895 234 Z" fill="black"></path>
				<path d="M 712 204 L 721 245 Q 723 255 729 275 L 734 290 L 734 298 Q 734 303 725 310 Q 721 310 717 313 L 708 320 C 684 337 648 344 657 315 L 665 290 Q 668 274 667 263 L 665 235 L 658 196 L 646 152 L 635 120 Q 628 96 603 65 Q 578 34 555 14 Q 532 -7 498 -26 Q 464 -45 445 -51 L 434 -55 Q 424 -56 424 -66 Q 425 -71 435 -70 L 449 -68 Q 511 -63 575 -20 Q 611 4 635 34 Q 660 63 670 88 Q 681 113 699 162 L 712 204 Z" fill="black"></path>
				<path d="M 740 107 L 782 61 Q 807 32 833 -7 Q 864 -53 885 -70 Q 902 -86 912 -84 Q 923 -82 933 -61 Q 943 -38 922 -4 Q 902 29 870 52 Q 839 74 806 89 Q 774 104 768 108 L 749 116 Q 740 118 739 114 Q 734 112 740 107 Z" fill="red"></path>
</g>
		<text x="40" y="140" font-size="128" fill="#999999">11</text></g>
		<g id="id2:id1:id1" transform="matrix(1.0,0,0,1.0,1024,0.0)">			<g stroke="white" stroke-width="4" transform="scale(4, 4)"> <rect x="1" y="1" width="255" height="255" fill="white" stroke-width="0"/></g>
</g>
		<g id="id2:id2:id2" transform="matrix(1.0,0,0,1.0,2048,0.0)">			<g stroke="white" stroke-width="4" transform="scale(4, 4)"> <rect x="1" y="1" width="255" height="255" fill="white" stroke-width="0"/></g>
</g>
		<g id="id2:id3:id3" transform="matrix(1.0,0,0,1.0,3072,0.0)">			<g stroke="white" stroke-width="4" transform="scale(4, 4)"> <rect x="1" y="1" width="255" height="255" fill="white" stroke-width="0"/></g>
</g>
		<g id="id2:id4:id4" transform="matrix(1.0,0,0,1.0,4096,0.0)">			<g stroke="white" stroke-width="4" transform="scale(4, 4)"> <rect x="1" y="1" width="255" height="255" fill="white" stroke-width="0"/></g>
</g>
</g>
</svg>
