<?xml version="1.0" standalone="no"?>
<!DOCTYPE svg PUBLIC "-//W3C//DTD SVG 1.1//EN"
 "http://www.w3.org/Graphics/SVG/1.1/DTD/svg11.dtd">
<!-- generate by Japanese dictionary app com.asnsami.kanjidictionary -->

<svg xmlns="http://www.w3.org/2000/svg" xmlns:sodipodi="http://sodipodi.sourceforge.net/DTD/sodipodi-0.dtd" version="1.1" width="640" height="384" viewBox="0 0 5120 3072">
	<g id="id0:id0" transform="translate(0.0,0)">
		<g id="id0:id0:id0" transform="matrix(1.0,0,0,1.0,0,0.0)">			<g stroke="lightgray" stroke-width="4" transform="scale(4, 4)"> <rect x="0" y="0" width="256" height="256" fill="white" stroke-width="4"/></g>
			<g transform="scale(0.92, -0.92) translate(60, -920)">					<path d="M 291 541 Q 301 541 308 551 Q 315 561 315 582 Q 313 600 307.5 610 Q 302 620 275.5 635 Q 249 650 215 654 L 197 657 Q 170 661 183 641 L 197 622 Q 256 541 291 541 Z" fill="red"></path>
				<path d="M 111 444 Q 99 445 95 441 Q 93 436 95 433 L 111 412 Q 127 386 146 365 Q 165 344 175 339 Q 213 326 219 348 Q 223 352 223 370 Q 223 405 199 419 Q 191 426 168.5 431 Q 146 436 133 440 L 111 444 Z" fill="lightgray"></path>
				<path d="M 201 171 L 163 119 Q 141 94 115 73.5 Q 89 53 85 45 Q 81 32 93 0 L 105 -32 Q 108 -41 119 -55 Q 122 -62 130.5 -64 Q 139 -66 143 -59 Q 153 -49 157.5 -33.5 Q 162 -18 165 -10 L 181 32 Q 217 113 233 146 Q 249 179 267 232 L 285 278 Q 286 285 280 290 Q 275 297 267 283 L 201 171 Z" fill="lightgray"></path>
				<path d="M 473 600 L 517 608 L 586 617 Q 670 628 670 629 L 745 636 L 809 640 L 863 643 Q 869 643 871 645 L 876 651 Q 876 652 872 659.5 Q 868 667 843.5 678 Q 819 689 817 691 Q 815 693 800 691 L 718 675 L 615 660 L 383 630 Q 375 629 373 624 Q 375 617 379.5 611 Q 384 605 401 598 L 473 600 Z" fill="lightgray"></path>
				<path d="M 401 598 L 406 577 L 408 551 Q 414 469 391 359 Q 367 248 353 204 Q 310 85 271 28 L 241 -17 Q 229 -34 211 -52 L 197 -70 Q 189 -78 194 -82 Q 199 -86 211 -78 L 231 -62 Q 254 -48 289 -10 Q 324 28 344 60 Q 386 123 421 260 Q 444 342 454 416 L 469 550 L 477 582 Q 477 589 473 600 C 470 630 394 627 401 598 Z" fill="lightgray"></path>
				<path d="M 615 452 L 584 444 L 559 441 Q 541 438 536 438 L 511 437 Q 505 436 503 434 Q 495 426 504 421 Q 513 416 528 408 Q 543 400 567 403 L 581 404 Q 591 404 617 412 L 670 420 L 725 428 Q 760 434 771 437 L 802 444 Q 808 445 815 452 Q 820 465 804 472 Q 800 476 785 479 Q 766 487 739 479.5 Q 712 472 672 463 L 615 452 Z" fill="lightgray"></path>
				<path d="M 624 579 Q 610 583 603 579 Q 595 574 594 568 Q 593 561 597 557 L 605 541 Q 613 521 613 510 L 613 498 L 615 452 L 617 412 L 620 316 C 621 286 667 295 668 325 L 670 420 L 672 463 L 677 508 Q 677 524 681 534 Q 685 543 685 550 Q 685 562 662 569 L 650 573 L 636 575 L 624 579 Z" fill="lightgray"></path>
				<path d="M 620 316 L 597 314 L 551 307 L 513 302 Q 492 298 481 298 L 459 297 Q 441 295 454 280 Q 459 272 476 266 Q 493 260 503 260 L 540 266 Q 542 266 576 272 L 677 288 L 850 300 L 884 300 Q 897 300 904 305 Q 919 315 907 325 Q 903 331 888 336 L 859 348 Q 840 354 815 349 L 775 342 L 721 334 L 668 325 L 620 316 Z" fill="lightgray"></path>
				<path d="M 620 151 L 601 146 L 555 142 L 517 138 L 489 134 Q 461 130 487 117 Q 505 107 528 105.5 Q 551 104 557 105 L 622 114 L 677 120 L 710 123 Q 732 124 748 128 Q 767 130 787 134 L 823 141 Q 842 145 838 157 Q 838 162 835 165 Q 832 168 812.5 176.5 Q 793 185 769 180 L 754 176 Q 737 170 714 167 L 681 162 L 620 151 Z" fill="lightgray"></path>
				<path d="M 693 221 Q 693 233 660 244 Q 626 255 614 253 Q 602 250 601 244 Q 599 239 601 230 L 609 217 Q 609 216 610 214 L 617 200 L 620 174 L 620 151 L 622 114 L 622 2 C 622 -28 671 -23 672 7 L 677 120 L 681 162 L 681 176 L 683 180 L 683 185 Q 687 193 687 199 Q 687 205 688 207 L 693 221 Z" fill="lightgray"></path>
				<path d="M 622 2 L 565 -2 L 459 -11 L 425 -12 L 411 -13 Q 403 -13 400 -14 L 375 -14 Q 367 -16 364 -19 Q 362 -27 364.5 -30.5 Q 367 -34 381 -42 L 399 -51 L 416 -56 Q 433 -62 441 -62.5 Q 449 -63 479 -56.5 Q 509 -50 557 -46 Q 677 -32 823 -32 L 901 -32 L 960 -36 Q 979 -36 983 -32 Q 987 -28 987 -19.5 Q 987 -11 970 0 Q 951 14 934 18 Q 912 28 896 29 Q 880 30 853 26 Q 804 15 737 10 L 672 7 L 622 2 Z" fill="lightgray"></path>
</g>
		<text x="40" y="140" font-size="128" fill="#999999">1</text></g>
		<g id="id0:id1:id1" transform="matrix(1.0,0,0,1.0,1024,0.0)">			<g stroke="lightgray" stroke-width="4" transform="scale(4, 4)"> <rect x="0" y="0" width="256" height="256" fill="white" stroke-width="4"/></g>
			<g transform="scale(0.92, -0.92) translate(60, -920)">					<path d="M 291 541 Q 301 541 308 551 Q 315 561 315 582 Q 313 600 307.5 610 Q 302 620 275.5 635 Q 249 650 215 654 L 197 657 Q 170 661 183 641 L 197 622 Q 256 541 291 541 Z" fill="black"></path>
				<path d="M 111 444 Q 99 445 95 441 Q 93 436 95 433 L 111 412 Q 127 386 146 365 Q 165 344 175 339 Q 213 326 219 348 Q 223 352 223 370 Q 223 405 199 419 Q 191 426 168.5 431 Q 146 436 133 440 L 111 444 Z" fill="red"></path>
				<path d="M 201 171 L 163 119 Q 141 94 115 73.5 Q 89 53 85 45 Q 81 32 93 0 L 105 -32 Q 108 -41 119 -55 Q 122 -62 130.5 -64 Q 139 -66 143 -59 Q 153 -49 157.5 -33.5 Q 162 -18 165 -10 L 181 32 Q 217 113 233 146 Q 249 179 267 232 L 285 278 Q 286 285 280 290 Q 275 297 267 283 L 201 171 Z" fill="lightgray"></path>
				<path d="M 473 600 L 517 608 L 586 617 Q 670 628 670 629 L 745 636 L 809 640 L 863 643 Q 869 643 871 645 L 876 651 Q 876 652 872 659.5 Q 868 667 843.5 678 Q 819 689 817 691 Q 815 693 800 691 L 718 675 L 615 660 L 383 630 Q 375 629 373 624 Q 375 617 379.5 611 Q 384 605 401 598 L 473 600 Z" fill="lightgray"></path>
				<path d="M 401 598 L 406 577 L 408 551 Q 414 469 391 359 Q 367 248 353 204 Q 310 85 271 28 L 241 -17 Q 229 -34 211 -52 L 197 -70 Q 189 -78 194 -82 Q 199 -86 211 -78 L 231 -62 Q 254 -48 289 -10 Q 324 28 344 60 Q 386 123 421 260 Q 444 342 454 416 L 469 550 L 477 582 Q 477 589 473 600 C 470 630 394 627 401 598 Z" fill="lightgray"></path>
				<path d="M 615 452 L 584 444 L 559 441 Q 541 438 536 438 L 511 437 Q 505 436 503 434 Q 495 426 504 421 Q 513 416 528 408 Q 543 400 567 403 L 581 404 Q 591 404 617 412 L 670 420 L 725 428 Q 760 434 771 437 L 802 444 Q 808 445 815 452 Q 820 465 804 472 Q 800 476 785 479 Q 766 487 739 479.5 Q 712 472 672 463 L 615 452 Z" fill="lightgray"></path>
				<path d="M 624 579 Q 610 583 603 579 Q 595 574 594 568 Q 593 561 597 557 L 605 541 Q 613 521 613 510 L 613 498 L 615 452 L 617 412 L 620 316 C 621 286 667 295 668 325 L 670 420 L 672 463 L 677 508 Q 677 524 681 534 Q 685 543 685 550 Q 685 562 662 569 L 650 573 L 636 575 L 624 579 Z" fill="lightgray"></path>
				<path d="M 620 316 L 597 314 L 551 307 L 513 302 Q 492 298 481 298 L 459 297 Q 441 295 454 280 Q 459 272 476 266 Q 493 260 503 260 L 540 266 Q 542 266 576 272 L 677 288 L 850 300 L 884 300 Q 897 300 904 305 Q 919 315 907 325 Q 903 331 888 336 L 859 348 Q 840 354 815 349 L 775 342 L 721 334 L 668 325 L 620 316 Z" fill="lightgray"></path>
				<path d="M 620 151 L 601 146 L 555 142 L 517 138 L 489 134 Q 461 130 487 117 Q 505 107 528 105.5 Q 551 104 557 105 L 622 114 L 677 120 L 710 123 Q 732 124 748 128 Q 767 130 787 134 L 823 141 Q 842 145 838 157 Q 838 162 835 165 Q 832 168 812.5 176.5 Q 793 185 769 180 L 754 176 Q 737 170 714 167 L 681 162 L 620 151 Z" fill="lightgray"></path>
				<path d="M 693 221 Q 693 233 660 244 Q 626 255 614 253 Q 602 250 601 244 Q 599 239 601 230 L 609 217 Q 609 216 610 214 L 617 200 L 620 174 L 620 151 L 622 114 L 622 2 C 622 -28 671 -23 672 7 L 677 120 L 681 162 L 681 176 L 683 180 L 683 185 Q 687 193 687 199 Q 687 205 688 207 L 693 221 Z" fill="lightgray"></path>
				<path d="M 622 2 L 565 -2 L 459 -11 L 425 -12 L 411 -13 Q 403 -13 400 -14 L 375 -14 Q 367 -16 364 -19 Q 362 -27 364.5 -30.5 Q 367 -34 381 -42 L 399 -51 L 416 -56 Q 433 -62 441 -62.5 Q 449 -63 479 -56.5 Q 509 -50 557 -46 Q 677 -32 823 -32 L 901 -32 L 960 -36 Q 979 -36 983 -32 Q 987 -28 987 -19.5 Q 987 -11 970 0 Q 951 14 934 18 Q 912 28 896 29 Q 880 30 853 26 Q 804 15 737 10 L 672 7 L 622 2 Z" fill="lightgray"></path>
</g>
		<text x="40" y="140" font-size="128" fill="#999999">2</text></g>
		<g id="id0:id2:id2" transform="matrix(1.0,0,0,1.0,2048,0.0)">			<g stroke="lightgray" stroke-width="4" transform="scale(4, 4)"> <rect x="0" y="0" width="256" height="256" fill="white" stroke-width="4"/></g>
			<g transform="scale(0.92, -0.92) translate(60, -920)">					<path d="M 291 541 Q 301 541 308 551 Q 315 561 315 582 Q 313 600 307.5 610 Q 302 620 275.5 635 Q 249 650 215 654 L 197 657 Q 170 661 183 641 L 197 622 Q 256 541 291 541 Z" fill="black"></path>
				<path d="M 111 444 Q 99 445 95 441 Q 93 436 95 433 L 111 412 Q 127 386 146 365 Q 165 344 175 339 Q 213 326 219 348 Q 223 352 223 370 Q 223 405 199 419 Q 191 426 168.5 431 Q 146 436 133 440 L 111 444 Z" fill="black"></path>
				<path d="M 201 171 L 163 119 Q 141 94 115 73.5 Q 89 53 85 45 Q 81 32 93 0 L 105 -32 Q 108 -41 119 -55 Q 122 -62 130.5 -64 Q 139 -66 143 -59 Q 153 -49 157.5 -33.5 Q 162 -18 165 -10 L 181 32 Q 217 113 233 146 Q 249 179 267 232 L 285 278 Q 286 285 280 290 Q 275 297 267 283 L 201 171 Z" fill="red"></path>
				<path d="M 473 600 L 517 608 L 586 617 Q 670 628 670 629 L 745 636 L 809 640 L 863 643 Q 869 643 871 645 L 876 651 Q 876 652 872 659.5 Q 868 667 843.5 678 Q 819 689 817 691 Q 815 693 800 691 L 718 675 L 615 660 L 383 630 Q 375 629 373 624 Q 375 617 379.5 611 Q 384 605 401 598 L 473 600 Z" fill="lightgray"></path>
				<path d="M 401 598 L 406 577 L 408 551 Q 414 469 391 359 Q 367 248 353 204 Q 310 85 271 28 L 241 -17 Q 229 -34 211 -52 L 197 -70 Q 189 -78 194 -82 Q 199 -86 211 -78 L 231 -62 Q 254 -48 289 -10 Q 324 28 344 60 Q 386 123 421 260 Q 444 342 454 416 L 469 550 L 477 582 Q 477 589 473 600 C 470 630 394 627 401 598 Z" fill="lightgray"></path>
				<path d="M 615 452 L 584 444 L 559 441 Q 541 438 536 438 L 511 437 Q 505 436 503 434 Q 495 426 504 421 Q 513 416 528 408 Q 543 400 567 403 L 581 404 Q 591 404 617 412 L 670 420 L 725 428 Q 760 434 771 437 L 802 444 Q 808 445 815 452 Q 820 465 804 472 Q 800 476 785 479 Q 766 487 739 479.5 Q 712 472 672 463 L 615 452 Z" fill="lightgray"></path>
				<path d="M 624 579 Q 610 583 603 579 Q 595 574 594 568 Q 593 561 597 557 L 605 541 Q 613 521 613 510 L 613 498 L 615 452 L 617 412 L 620 316 C 621 286 667 295 668 325 L 670 420 L 672 463 L 677 508 Q 677 524 681 534 Q 685 543 685 550 Q 685 562 662 569 L 650 573 L 636 575 L 624 579 Z" fill="lightgray"></path>
				<path d="M 620 316 L 597 314 L 551 307 L 513 302 Q 492 298 481 298 L 459 297 Q 441 295 454 280 Q 459 272 476 266 Q 493 260 503 260 L 540 266 Q 542 266 576 272 L 677 288 L 850 300 L 884 300 Q 897 300 904 305 Q 919 315 907 325 Q 903 331 888 336 L 859 348 Q 840 354 815 349 L 775 342 L 721 334 L 668 325 L 620 316 Z" fill="lightgray"></path>
				<path d="M 620 151 L 601 146 L 555 142 L 517 138 L 489 134 Q 461 130 487 117 Q 505 107 528 105.5 Q 551 104 557 105 L 622 114 L 677 120 L 710 123 Q 732 124 748 128 Q 767 130 787 134 L 823 141 Q 842 145 838 157 Q 838 162 835 165 Q 832 168 812.5 176.5 Q 793 185 769 180 L 754 176 Q 737 170 714 167 L 681 162 L 620 151 Z" fill="lightgray"></path>
				<path d="M 693 221 Q 693 233 660 244 Q 626 255 614 253 Q 602 250 601 244 Q 599 239 601 230 L 609 217 Q 609 216 610 214 L 617 200 L 620 174 L 620 151 L 622 114 L 622 2 C 622 -28 671 -23 672 7 L 677 120 L 681 162 L 681 176 L 683 180 L 683 185 Q 687 193 687 199 Q 687 205 688 207 L 693 221 Z" fill="lightgray"></path>
				<path d="M 622 2 L 565 -2 L 459 -11 L 425 -12 L 411 -13 Q 403 -13 400 -14 L 375 -14 Q 367 -16 364 -19 Q 362 -27 364.5 -30.5 Q 367 -34 381 -42 L 399 -51 L 416 -56 Q 433 -62 441 -62.5 Q 449 -63 479 -56.5 Q 509 -50 557 -46 Q 677 -32 823 -32 L 901 -32 L 960 -36 Q 979 -36 983 -32 Q 987 -28 987 -19.5 Q 987 -11 970 0 Q 951 14 934 18 Q 912 28 896 29 Q 880 30 853 26 Q 804 15 737 10 L 672 7 L 622 2 Z" fill="lightgray"></path>
</g>
		<text x="40" y="140" font-size="128" fill="#999999">3</text></g>
		<g id="id0:id3:id3" transform="matrix(1.0,0,0,1.0,3072,0.0)">			<g stroke="lightgray" stroke-width="4" transform="scale(4, 4)"> <rect x="0" y="0" width="256" height="256" fill="white" stroke-width="4"/></g>
			<g transform="scale(0.92, -0.92) translate(60, -920)">					<path d="M 291 541 Q 301 541 308 551 Q 315 561 315 582 Q 313 600 307.5 610 Q 302 620 275.5 635 Q 249 650 215 654 L 197 657 Q 170 661 183 641 L 197 622 Q 256 541 291 541 Z" fill="black"></path>
				<path d="M 111 444 Q 99 445 95 441 Q 93 436 95 433 L 111 412 Q 127 386 146 365 Q 165 344 175 339 Q 213 326 219 348 Q 223 352 223 370 Q 223 405 199 419 Q 191 426 168.5 431 Q 146 436 133 440 L 111 444 Z" fill="black"></path>
				<path d="M 201 171 L 163 119 Q 141 94 115 73.5 Q 89 53 85 45 Q 81 32 93 0 L 105 -32 Q 108 -41 119 -55 Q 122 -62 130.5 -64 Q 139 -66 143 -59 Q 153 -49 157.5 -33.5 Q 162 -18 165 -10 L 181 32 Q 217 113 233 146 Q 249 179 267 232 L 285 278 Q 286 285 280 290 Q 275 297 267 283 L 201 171 Z" fill="black"></path>
				<path d="M 473 600 L 517 608 L 586 617 Q 670 628 670 629 L 745 636 L 809 640 L 863 643 Q 869 643 871 645 L 876 651 Q 876 652 872 659.5 Q 868 667 843.5 678 Q 819 689 817 691 Q 815 693 800 691 L 718 675 L 615 660 L 383 630 Q 375 629 373 624 Q 375 617 379.5 611 Q 384 605 401 598 L 473 600 Z" fill="red"></path>
				<path d="M 401 598 L 406 577 L 408 551 Q 414 469 391 359 Q 367 248 353 204 Q 310 85 271 28 L 241 -17 Q 229 -34 211 -52 L 197 -70 Q 189 -78 194 -82 Q 199 -86 211 -78 L 231 -62 Q 254 -48 289 -10 Q 324 28 344 60 Q 386 123 421 260 Q 444 342 454 416 L 469 550 L 477 582 Q 477 589 473 600 C 470 630 394 627 401 598 Z" fill="lightgray"></path>
				<path d="M 615 452 L 584 444 L 559 441 Q 541 438 536 438 L 511 437 Q 505 436 503 434 Q 495 426 504 421 Q 513 416 528 408 Q 543 400 567 403 L 581 404 Q 591 404 617 412 L 670 420 L 725 428 Q 760 434 771 437 L 802 444 Q 808 445 815 452 Q 820 465 804 472 Q 800 476 785 479 Q 766 487 739 479.5 Q 712 472 672 463 L 615 452 Z" fill="lightgray"></path>
				<path d="M 624 579 Q 610 583 603 579 Q 595 574 594 568 Q 593 561 597 557 L 605 541 Q 613 521 613 510 L 613 498 L 615 452 L 617 412 L 620 316 C 621 286 667 295 668 325 L 670 420 L 672 463 L 677 508 Q 677 524 681 534 Q 685 543 685 550 Q 685 562 662 569 L 650 573 L 636 575 L 624 579 Z" fill="lightgray"></path>
				<path d="M 620 316 L 597 314 L 551 307 L 513 302 Q 492 298 481 298 L 459 297 Q 441 295 454 280 Q 459 272 476 266 Q 493 260 503 260 L 540 266 Q 542 266 576 272 L 677 288 L 850 300 L 884 300 Q 897 300 904 305 Q 919 315 907 325 Q 903 331 888 336 L 859 348 Q 840 354 815 349 L 775 342 L 721 334 L 668 325 L 620 316 Z" fill="lightgray"></path>
				<path d="M 620 151 L 601 146 L 555 142 L 517 138 L 489 134 Q 461 130 487 117 Q 505 107 528 105.5 Q 551 104 557 105 L 622 114 L 677 120 L 710 123 Q 732 124 748 128 Q 767 130 787 134 L 823 141 Q 842 145 838 157 Q 838 162 835 165 Q 832 168 812.5 176.5 Q 793 185 769 180 L 754 176 Q 737 170 714 167 L 681 162 L 620 151 Z" fill="lightgray"></path>
				<path d="M 693 221 Q 693 233 660 244 Q 626 255 614 253 Q 602 250 601 244 Q 599 239 601 230 L 609 217 Q 609 216 610 214 L 617 200 L 620 174 L 620 151 L 622 114 L 622 2 C 622 -28 671 -23 672 7 L 677 120 L 681 162 L 681 176 L 683 180 L 683 185 Q 687 193 687 199 Q 687 205 688 207 L 693 221 Z" fill="lightgray"></path>
				<path d="M 622 2 L 565 -2 L 459 -11 L 425 -12 L 411 -13 Q 403 -13 400 -14 L 375 -14 Q 367 -16 364 -19 Q 362 -27 364.5 -30.5 Q 367 -34 381 -42 L 399 -51 L 416 -56 Q 433 -62 441 -62.5 Q 449 -63 479 -56.5 Q 509 -50 557 -46 Q 677 -32 823 -32 L 901 -32 L 960 -36 Q 979 -36 983 -32 Q 987 -28 987 -19.5 Q 987 -11 970 0 Q 951 14 934 18 Q 912 28 896 29 Q 880 30 853 26 Q 804 15 737 10 L 672 7 L 622 2 Z" fill="lightgray"></path>
</g>
		<text x="40" y="140" font-size="128" fill="#999999">4</text></g>
		<g id="id0:id4:id4" transform="matrix(1.0,0,0,1.0,4096,0.0)">			<g stroke="lightgray" stroke-width="4" transform="scale(4, 4)"> <rect x="0" y="0" width="256" height="256" fill="white" stroke-width="4"/></g>
			<g transform="scale(0.92, -0.92) translate(60, -920)">					<path d="M 291 541 Q 301 541 308 551 Q 315 561 315 582 Q 313 600 307.5 610 Q 302 620 275.5 635 Q 249 650 215 654 L 197 657 Q 170 661 183 641 L 197 622 Q 256 541 291 541 Z" fill="black"></path>
				<path d="M 111 444 Q 99 445 95 441 Q 93 436 95 433 L 111 412 Q 127 386 146 365 Q 165 344 175 339 Q 213 326 219 348 Q 223 352 223 370 Q 223 405 199 419 Q 191 426 168.5 431 Q 146 436 133 440 L 111 444 Z" fill="black"></path>
				<path d="M 201 171 L 163 119 Q 141 94 115 73.5 Q 89 53 85 45 Q 81 32 93 0 L 105 -32 Q 108 -41 119 -55 Q 122 -62 130.5 -64 Q 139 -66 143 -59 Q 153 -49 157.5 -33.5 Q 162 -18 165 -10 L 181 32 Q 217 113 233 146 Q 249 179 267 232 L 285 278 Q 286 285 280 290 Q 275 297 267 283 L 201 171 Z" fill="black"></path>
				<path d="M 473 600 L 517 608 L 586 617 Q 670 628 670 629 L 745 636 L 809 640 L 863 643 Q 869 643 871 645 L 876 651 Q 876 652 872 659.5 Q 868 667 843.5 678 Q 819 689 817 691 Q 815 693 800 691 L 718 675 L 615 660 L 383 630 Q 375 629 373 624 Q 375 617 379.5 611 Q 384 605 401 598 L 473 600 Z" fill="black"></path>
				<path d="M 401 598 L 406 577 L 408 551 Q 414 469 391 359 Q 367 248 353 204 Q 310 85 271 28 L 241 -17 Q 229 -34 211 -52 L 197 -70 Q 189 -78 194 -82 Q 199 -86 211 -78 L 231 -62 Q 254 -48 289 -10 Q 324 28 344 60 Q 386 123 421 260 Q 444 342 454 416 L 469 550 L 477 582 Q 477 589 473 600 C 470 630 394 627 401 598 Z" fill="red"></path>
				<path d="M 615 452 L 584 444 L 559 441 Q 541 438 536 438 L 511 437 Q 505 436 503 434 Q 495 426 504 421 Q 513 416 528 408 Q 543 400 567 403 L 581 404 Q 591 404 617 412 L 670 420 L 725 428 Q 760 434 771 437 L 802 444 Q 808 445 815 452 Q 820 465 804 472 Q 800 476 785 479 Q 766 487 739 479.5 Q 712 472 672 463 L 615 452 Z" fill="lightgray"></path>
				<path d="M 624 579 Q 610 583 603 579 Q 595 574 594 568 Q 593 561 597 557 L 605 541 Q 613 521 613 510 L 613 498 L 615 452 L 617 412 L 620 316 C 621 286 667 295 668 325 L 670 420 L 672 463 L 677 508 Q 677 524 681 534 Q 685 543 685 550 Q 685 562 662 569 L 650 573 L 636 575 L 624 579 Z" fill="lightgray"></path>
				<path d="M 620 316 L 597 314 L 551 307 L 513 302 Q 492 298 481 298 L 459 297 Q 441 295 454 280 Q 459 272 476 266 Q 493 260 503 260 L 540 266 Q 542 266 576 272 L 677 288 L 850 300 L 884 300 Q 897 300 904 305 Q 919 315 907 325 Q 903 331 888 336 L 859 348 Q 840 354 815 349 L 775 342 L 721 334 L 668 325 L 620 316 Z" fill="lightgray"></path>
				<path d="M 620 151 L 601 146 L 555 142 L 517 138 L 489 134 Q 461 130 487 117 Q 505 107 528 105.5 Q 551 104 557 105 L 622 114 L 677 120 L 710 123 Q 732 124 748 128 Q 767 130 787 134 L 823 141 Q 842 145 838 157 Q 838 162 835 165 Q 832 168 812.5 176.5 Q 793 185 769 180 L 754 176 Q 737 170 714 167 L 681 162 L 620 151 Z" fill="lightgray"></path>
				<path d="M 693 221 Q 693 233 660 244 Q 626 255 614 253 Q 602 250 601 244 Q 599 239 601 230 L 609 217 Q 609 216 610 214 L 617 200 L 620 174 L 620 151 L 622 114 L 622 2 C 622 -28 671 -23 672 7 L 677 120 L 681 162 L 681 176 L 683 180 L 683 185 Q 687 193 687 199 Q 687 205 688 207 L 693 221 Z" fill="lightgray"></path>
				<path d="M 622 2 L 565 -2 L 459 -11 L 425 -12 L 411 -13 Q 403 -13 400 -14 L 375 -14 Q 367 -16 364 -19 Q 362 -27 364.5 -30.5 Q 367 -34 381 -42 L 399 -51 L 416 -56 Q 433 -62 441 -62.5 Q 449 -63 479 -56.5 Q 509 -50 557 -46 Q 677 -32 823 -32 L 901 -32 L 960 -36 Q 979 -36 983 -32 Q 987 -28 987 -19.5 Q 987 -11 970 0 Q 951 14 934 18 Q 912 28 896 29 Q 880 30 853 26 Q 804 15 737 10 L 672 7 L 622 2 Z" fill="lightgray"></path>
</g>
		<text x="40" y="140" font-size="128" fill="#999999">5</text></g>
</g>
	<g id="id1:id1" transform="translate(0.0,1024)">
		<g id="id1:id0:id0" transform="matrix(1.0,0,0,1.0,0,0.0)">			<g stroke="lightgray" stroke-width="4" transform="scale(4, 4)"> <rect x="0" y="0" width="256" height="256" fill="white" stroke-width="4"/></g>
			<g transform="scale(0.92, -0.92) translate(60, -920)">					<path d="M 291 541 Q 301 541 308 551 Q 315 561 315 582 Q 313 600 307.5 610 Q 302 620 275.5 635 Q 249 650 215 654 L 197 657 Q 170 661 183 641 L 197 622 Q 256 541 291 541 Z" fill="black"></path>
				<path d="M 111 444 Q 99 445 95 441 Q 93 436 95 433 L 111 412 Q 127 386 146 365 Q 165 344 175 339 Q 213 326 219 348 Q 223 352 223 370 Q 223 405 199 419 Q 191 426 168.5 431 Q 146 436 133 440 L 111 444 Z" fill="black"></path>
				<path d="M 201 171 L 163 119 Q 141 94 115 73.5 Q 89 53 85 45 Q 81 32 93 0 L 105 -32 Q 108 -41 119 -55 Q 122 -62 130.5 -64 Q 139 -66 143 -59 Q 153 -49 157.5 -33.5 Q 162 -18 165 -10 L 181 32 Q 217 113 233 146 Q 249 179 267 232 L 285 278 Q 286 285 280 290 Q 275 297 267 283 L 201 171 Z" fill="black"></path>
				<path d="M 473 600 L 517 608 L 586 617 Q 670 628 670 629 L 745 636 L 809 640 L 863 643 Q 869 643 871 645 L 876 651 Q 876 652 872 659.5 Q 868 667 843.5 678 Q 819 689 817 691 Q 815 693 800 691 L 718 675 L 615 660 L 383 630 Q 375 629 373 624 Q 375 617 379.5 611 Q 384 605 401 598 L 473 600 Z" fill="black"></path>
				<path d="M 401 598 L 406 577 L 408 551 Q 414 469 391 359 Q 367 248 353 204 Q 310 85 271 28 L 241 -17 Q 229 -34 211 -52 L 197 -70 Q 189 -78 194 -82 Q 199 -86 211 -78 L 231 -62 Q 254 -48 289 -10 Q 324 28 344 60 Q 386 123 421 260 Q 444 342 454 416 L 469 550 L 477 582 Q 477 589 473 600 C 470 630 394 627 401 598 Z" fill="black"></path>
				<path d="M 615 452 L 584 444 L 559 441 Q 541 438 536 438 L 511 437 Q 505 436 503 434 Q 495 426 504 421 Q 513 416 528 408 Q 543 400 567 403 L 581 404 Q 591 404 617 412 L 670 420 L 725 428 Q 760 434 771 437 L 802 444 Q 808 445 815 452 Q 820 465 804 472 Q 800 476 785 479 Q 766 487 739 479.5 Q 712 472 672 463 L 615 452 Z" fill="red"></path>
				<path d="M 624 579 Q 610 583 603 579 Q 595 574 594 568 Q 593 561 597 557 L 605 541 Q 613 521 613 510 L 613 498 L 615 452 L 617 412 L 620 316 C 621 286 667 295 668 325 L 670 420 L 672 463 L 677 508 Q 677 524 681 534 Q 685 543 685 550 Q 685 562 662 569 L 650 573 L 636 575 L 624 579 Z" fill="lightgray"></path>
				<path d="M 620 316 L 597 314 L 551 307 L 513 302 Q 492 298 481 298 L 459 297 Q 441 295 454 280 Q 459 272 476 266 Q 493 260 503 260 L 540 266 Q 542 266 576 272 L 677 288 L 850 300 L 884 300 Q 897 300 904 305 Q 919 315 907 325 Q 903 331 888 336 L 859 348 Q 840 354 815 349 L 775 342 L 721 334 L 668 325 L 620 316 Z" fill="lightgray"></path>
				<path d="M 620 151 L 601 146 L 555 142 L 517 138 L 489 134 Q 461 130 487 117 Q 505 107 528 105.5 Q 551 104 557 105 L 622 114 L 677 120 L 710 123 Q 732 124 748 128 Q 767 130 787 134 L 823 141 Q 842 145 838 157 Q 838 162 835 165 Q 832 168 812.5 176.5 Q 793 185 769 180 L 754 176 Q 737 170 714 167 L 681 162 L 620 151 Z" fill="lightgray"></path>
				<path d="M 693 221 Q 693 233 660 244 Q 626 255 614 253 Q 602 250 601 244 Q 599 239 601 230 L 609 217 Q 609 216 610 214 L 617 200 L 620 174 L 620 151 L 622 114 L 622 2 C 622 -28 671 -23 672 7 L 677 120 L 681 162 L 681 176 L 683 180 L 683 185 Q 687 193 687 199 Q 687 205 688 207 L 693 221 Z" fill="lightgray"></path>
				<path d="M 622 2 L 565 -2 L 459 -11 L 425 -12 L 411 -13 Q 403 -13 400 -14 L 375 -14 Q 367 -16 364 -19 Q 362 -27 364.5 -30.5 Q 367 -34 381 -42 L 399 -51 L 416 -56 Q 433 -62 441 -62.5 Q 449 -63 479 -56.5 Q 509 -50 557 -46 Q 677 -32 823 -32 L 901 -32 L 960 -36 Q 979 -36 983 -32 Q 987 -28 987 -19.5 Q 987 -11 970 0 Q 951 14 934 18 Q 912 28 896 29 Q 880 30 853 26 Q 804 15 737 10 L 672 7 L 622 2 Z" fill="lightgray"></path>
</g>
		<text x="40" y="140" font-size="128" fill="#999999">6</text></g>
		<g id="id1:id1:id1" transform="matrix(1.0,0,0,1.0,1024,0.0)">			<g stroke="lightgray" stroke-width="4" transform="scale(4, 4)"> <rect x="0" y="0" width="256" height="256" fill="white" stroke-width="4"/></g>
			<g transform="scale(0.92, -0.92) translate(60, -920)">					<path d="M 291 541 Q 301 541 308 551 Q 315 561 315 582 Q 313 600 307.5 610 Q 302 620 275.5 635 Q 249 650 215 654 L 197 657 Q 170 661 183 641 L 197 622 Q 256 541 291 541 Z" fill="black"></path>
				<path d="M 111 444 Q 99 445 95 441 Q 93 436 95 433 L 111 412 Q 127 386 146 365 Q 165 344 175 339 Q 213 326 219 348 Q 223 352 223 370 Q 223 405 199 419 Q 191 426 168.5 431 Q 146 436 133 440 L 111 444 Z" fill="black"></path>
				<path d="M 201 171 L 163 119 Q 141 94 115 73.5 Q 89 53 85 45 Q 81 32 93 0 L 105 -32 Q 108 -41 119 -55 Q 122 -62 130.5 -64 Q 139 -66 143 -59 Q 153 -49 157.5 -33.5 Q 162 -18 165 -10 L 181 32 Q 217 113 233 146 Q 249 179 267 232 L 285 278 Q 286 285 280 290 Q 275 297 267 283 L 201 171 Z" fill="black"></path>
				<path d="M 473 600 L 517 608 L 586 617 Q 670 628 670 629 L 745 636 L 809 640 L 863 643 Q 869 643 871 645 L 876 651 Q 876 652 872 659.5 Q 868 667 843.5 678 Q 819 689 817 691 Q 815 693 800 691 L 718 675 L 615 660 L 383 630 Q 375 629 373 624 Q 375 617 379.5 611 Q 384 605 401 598 L 473 600 Z" fill="black"></path>
				<path d="M 401 598 L 406 577 L 408 551 Q 414 469 391 359 Q 367 248 353 204 Q 310 85 271 28 L 241 -17 Q 229 -34 211 -52 L 197 -70 Q 189 -78 194 -82 Q 199 -86 211 -78 L 231 -62 Q 254 -48 289 -10 Q 324 28 344 60 Q 386 123 421 260 Q 444 342 454 416 L 469 550 L 477 582 Q 477 589 473 600 C 470 630 394 627 401 598 Z" fill="black"></path>
				<path d="M 615 452 L 584 444 L 559 441 Q 541 438 536 438 L 511 437 Q 505 436 503 434 Q 495 426 504 421 Q 513 416 528 408 Q 543 400 567 403 L 581 404 Q 591 404 617 412 L 670 420 L 725 428 Q 760 434 771 437 L 802 444 Q 808 445 815 452 Q 820 465 804 472 Q 800 476 785 479 Q 766 487 739 479.5 Q 712 472 672 463 L 615 452 Z" fill="black"></path>
				<path d="M 624 579 Q 610 583 603 579 Q 595 574 594 568 Q 593 561 597 557 L 605 541 Q 613 521 613 510 L 613 498 L 615 452 L 617 412 L 620 316 C 621 286 667 295 668 325 L 670 420 L 672 463 L 677 508 Q 677 524 681 534 Q 685 543 685 550 Q 685 562 662 569 L 650 573 L 636 575 L 624 579 Z" fill="red"></path>
				<path d="M 620 316 L 597 314 L 551 307 L 513 302 Q 492 298 481 298 L 459 297 Q 441 295 454 280 Q 459 272 476 266 Q 493 260 503 260 L 540 266 Q 542 266 576 272 L 677 288 L 850 300 L 884 300 Q 897 300 904 305 Q 919 315 907 325 Q 903 331 888 336 L 859 348 Q 840 354 815 349 L 775 342 L 721 334 L 668 325 L 620 316 Z" fill="lightgray"></path>
				<path d="M 620 151 L 601 146 L 555 142 L 517 138 L 489 134 Q 461 130 487 117 Q 505 107 528 105.5 Q 551 104 557 105 L 622 114 L 677 120 L 710 123 Q 732 124 748 128 Q 767 130 787 134 L 823 141 Q 842 145 838 157 Q 838 162 835 165 Q 832 168 812.5 176.5 Q 793 185 769 180 L 754 176 Q 737 170 714 167 L 681 162 L 620 151 Z" fill="lightgray"></path>
				<path d="M 693 221 Q 693 233 660 244 Q 626 255 614 253 Q 602 250 601 244 Q 599 239 601 230 L 609 217 Q 609 216 610 214 L 617 200 L 620 174 L 620 151 L 622 114 L 622 2 C 622 -28 671 -23 672 7 L 677 120 L 681 162 L 681 176 L 683 180 L 683 185 Q 687 193 687 199 Q 687 205 688 207 L 693 221 Z" fill="lightgray"></path>
				<path d="M 622 2 L 565 -2 L 459 -11 L 425 -12 L 411 -13 Q 403 -13 400 -14 L 375 -14 Q 367 -16 364 -19 Q 362 -27 364.5 -30.5 Q 367 -34 381 -42 L 399 -51 L 416 -56 Q 433 -62 441 -62.5 Q 449 -63 479 -56.5 Q 509 -50 557 -46 Q 677 -32 823 -32 L 901 -32 L 960 -36 Q 979 -36 983 -32 Q 987 -28 987 -19.5 Q 987 -11 970 0 Q 951 14 934 18 Q 912 28 896 29 Q 880 30 853 26 Q 804 15 737 10 L 672 7 L 622 2 Z" fill="lightgray"></path>
</g>
		<text x="40" y="140" font-size="128" fill="#999999">7</text></g>
		<g id="id1:id2:id2" transform="matrix(1.0,0,0,1.0,2048,0.0)">			<g stroke="lightgray" stroke-width="4" transform="scale(4, 4)"> <rect x="0" y="0" width="256" height="256" fill="white" stroke-width="4"/></g>
			<g transform="scale(0.92, -0.92) translate(60, -920)">					<path d="M 291 541 Q 301 541 308 551 Q 315 561 315 582 Q 313 600 307.5 610 Q 302 620 275.5 635 Q 249 650 215 654 L 197 657 Q 170 661 183 641 L 197 622 Q 256 541 291 541 Z" fill="black"></path>
				<path d="M 111 444 Q 99 445 95 441 Q 93 436 95 433 L 111 412 Q 127 386 146 365 Q 165 344 175 339 Q 213 326 219 348 Q 223 352 223 370 Q 223 405 199 419 Q 191 426 168.5 431 Q 146 436 133 440 L 111 444 Z" fill="black"></path>
				<path d="M 201 171 L 163 119 Q 141 94 115 73.5 Q 89 53 85 45 Q 81 32 93 0 L 105 -32 Q 108 -41 119 -55 Q 122 -62 130.5 -64 Q 139 -66 143 -59 Q 153 -49 157.5 -33.5 Q 162 -18 165 -10 L 181 32 Q 217 113 233 146 Q 249 179 267 232 L 285 278 Q 286 285 280 290 Q 275 297 267 283 L 201 171 Z" fill="black"></path>
				<path d="M 473 600 L 517 608 L 586 617 Q 670 628 670 629 L 745 636 L 809 640 L 863 643 Q 869 643 871 645 L 876 651 Q 876 652 872 659.5 Q 868 667 843.5 678 Q 819 689 817 691 Q 815 693 800 691 L 718 675 L 615 660 L 383 630 Q 375 629 373 624 Q 375 617 379.5 611 Q 384 605 401 598 L 473 600 Z" fill="black"></path>
				<path d="M 401 598 L 406 577 L 408 551 Q 414 469 391 359 Q 367 248 353 204 Q 310 85 271 28 L 241 -17 Q 229 -34 211 -52 L 197 -70 Q 189 -78 194 -82 Q 199 -86 211 -78 L 231 -62 Q 254 -48 289 -10 Q 324 28 344 60 Q 386 123 421 260 Q 444 342 454 416 L 469 550 L 477 582 Q 477 589 473 600 C 470 630 394 627 401 598 Z" fill="black"></path>
				<path d="M 615 452 L 584 444 L 559 441 Q 541 438 536 438 L 511 437 Q 505 436 503 434 Q 495 426 504 421 Q 513 416 528 408 Q 543 400 567 403 L 581 404 Q 591 404 617 412 L 670 420 L 725 428 Q 760 434 771 437 L 802 444 Q 808 445 815 452 Q 820 465 804 472 Q 800 476 785 479 Q 766 487 739 479.5 Q 712 472 672 463 L 615 452 Z" fill="black"></path>
				<path d="M 624 579 Q 610 583 603 579 Q 595 574 594 568 Q 593 561 597 557 L 605 541 Q 613 521 613 510 L 613 498 L 615 452 L 617 412 L 620 316 C 621 286 667 295 668 325 L 670 420 L 672 463 L 677 508 Q 677 524 681 534 Q 685 543 685 550 Q 685 562 662 569 L 650 573 L 636 575 L 624 579 Z" fill="black"></path>
				<path d="M 620 316 L 597 314 L 551 307 L 513 302 Q 492 298 481 298 L 459 297 Q 441 295 454 280 Q 459 272 476 266 Q 493 260 503 260 L 540 266 Q 542 266 576 272 L 677 288 L 850 300 L 884 300 Q 897 300 904 305 Q 919 315 907 325 Q 903 331 888 336 L 859 348 Q 840 354 815 349 L 775 342 L 721 334 L 668 325 L 620 316 Z" fill="red"></path>
				<path d="M 620 151 L 601 146 L 555 142 L 517 138 L 489 134 Q 461 130 487 117 Q 505 107 528 105.5 Q 551 104 557 105 L 622 114 L 677 120 L 710 123 Q 732 124 748 128 Q 767 130 787 134 L 823 141 Q 842 145 838 157 Q 838 162 835 165 Q 832 168 812.5 176.5 Q 793 185 769 180 L 754 176 Q 737 170 714 167 L 681 162 L 620 151 Z" fill="lightgray"></path>
				<path d="M 693 221 Q 693 233 660 244 Q 626 255 614 253 Q 602 250 601 244 Q 599 239 601 230 L 609 217 Q 609 216 610 214 L 617 200 L 620 174 L 620 151 L 622 114 L 622 2 C 622 -28 671 -23 672 7 L 677 120 L 681 162 L 681 176 L 683 180 L 683 185 Q 687 193 687 199 Q 687 205 688 207 L 693 221 Z" fill="lightgray"></path>
				<path d="M 622 2 L 565 -2 L 459 -11 L 425 -12 L 411 -13 Q 403 -13 400 -14 L 375 -14 Q 367 -16 364 -19 Q 362 -27 364.5 -30.5 Q 367 -34 381 -42 L 399 -51 L 416 -56 Q 433 -62 441 -62.5 Q 449 -63 479 -56.5 Q 509 -50 557 -46 Q 677 -32 823 -32 L 901 -32 L 960 -36 Q 979 -36 983 -32 Q 987 -28 987 -19.5 Q 987 -11 970 0 Q 951 14 934 18 Q 912 28 896 29 Q 880 30 853 26 Q 804 15 737 10 L 672 7 L 622 2 Z" fill="lightgray"></path>
</g>
		<text x="40" y="140" font-size="128" fill="#999999">8</text></g>
		<g id="id1:id3:id3" transform="matrix(1.0,0,0,1.0,3072,0.0)">			<g stroke="lightgray" stroke-width="4" transform="scale(4, 4)"> <rect x="0" y="0" width="256" height="256" fill="white" stroke-width="4"/></g>
			<g transform="scale(0.92, -0.92) translate(60, -920)">					<path d="M 291 541 Q 301 541 308 551 Q 315 561 315 582 Q 313 600 307.5 610 Q 302 620 275.5 635 Q 249 650 215 654 L 197 657 Q 170 661 183 641 L 197 622 Q 256 541 291 541 Z" fill="black"></path>
				<path d="M 111 444 Q 99 445 95 441 Q 93 436 95 433 L 111 412 Q 127 386 146 365 Q 165 344 175 339 Q 213 326 219 348 Q 223 352 223 370 Q 223 405 199 419 Q 191 426 168.5 431 Q 146 436 133 440 L 111 444 Z" fill="black"></path>
				<path d="M 201 171 L 163 119 Q 141 94 115 73.5 Q 89 53 85 45 Q 81 32 93 0 L 105 -32 Q 108 -41 119 -55 Q 122 -62 130.5 -64 Q 139 -66 143 -59 Q 153 -49 157.5 -33.5 Q 162 -18 165 -10 L 181 32 Q 217 113 233 146 Q 249 179 267 232 L 285 278 Q 286 285 280 290 Q 275 297 267 283 L 201 171 Z" fill="black"></path>
				<path d="M 473 600 L 517 608 L 586 617 Q 670 628 670 629 L 745 636 L 809 640 L 863 643 Q 869 643 871 645 L 876 651 Q 876 652 872 659.5 Q 868 667 843.5 678 Q 819 689 817 691 Q 815 693 800 691 L 718 675 L 615 660 L 383 630 Q 375 629 373 624 Q 375 617 379.5 611 Q 384 605 401 598 L 473 600 Z" fill="black"></path>
				<path d="M 401 598 L 406 577 L 408 551 Q 414 469 391 359 Q 367 248 353 204 Q 310 85 271 28 L 241 -17 Q 229 -34 211 -52 L 197 -70 Q 189 -78 194 -82 Q 199 -86 211 -78 L 231 -62 Q 254 -48 289 -10 Q 324 28 344 60 Q 386 123 421 260 Q 444 342 454 416 L 469 550 L 477 582 Q 477 589 473 600 C 470 630 394 627 401 598 Z" fill="black"></path>
				<path d="M 615 452 L 584 444 L 559 441 Q 541 438 536 438 L 511 437 Q 505 436 503 434 Q 495 426 504 421 Q 513 416 528 408 Q 543 400 567 403 L 581 404 Q 591 404 617 412 L 670 420 L 725 428 Q 760 434 771 437 L 802 444 Q 808 445 815 452 Q 820 465 804 472 Q 800 476 785 479 Q 766 487 739 479.5 Q 712 472 672 463 L 615 452 Z" fill="black"></path>
				<path d="M 624 579 Q 610 583 603 579 Q 595 574 594 568 Q 593 561 597 557 L 605 541 Q 613 521 613 510 L 613 498 L 615 452 L 617 412 L 620 316 C 621 286 667 295 668 325 L 670 420 L 672 463 L 677 508 Q 677 524 681 534 Q 685 543 685 550 Q 685 562 662 569 L 650 573 L 636 575 L 624 579 Z" fill="black"></path>
				<path d="M 620 316 L 597 314 L 551 307 L 513 302 Q 492 298 481 298 L 459 297 Q 441 295 454 280 Q 459 272 476 266 Q 493 260 503 260 L 540 266 Q 542 266 576 272 L 677 288 L 850 300 L 884 300 Q 897 300 904 305 Q 919 315 907 325 Q 903 331 888 336 L 859 348 Q 840 354 815 349 L 775 342 L 721 334 L 668 325 L 620 316 Z" fill="black"></path>
				<path d="M 620 151 L 601 146 L 555 142 L 517 138 L 489 134 Q 461 130 487 117 Q 505 107 528 105.5 Q 551 104 557 105 L 622 114 L 677 120 L 710 123 Q 732 124 748 128 Q 767 130 787 134 L 823 141 Q 842 145 838 157 Q 838 162 835 165 Q 832 168 812.5 176.5 Q 793 185 769 180 L 754 176 Q 737 170 714 167 L 681 162 L 620 151 Z" fill="red"></path>
				<path d="M 693 221 Q 693 233 660 244 Q 626 255 614 253 Q 602 250 601 244 Q 599 239 601 230 L 609 217 Q 609 216 610 214 L 617 200 L 620 174 L 620 151 L 622 114 L 622 2 C 622 -28 671 -23 672 7 L 677 120 L 681 162 L 681 176 L 683 180 L 683 185 Q 687 193 687 199 Q 687 205 688 207 L 693 221 Z" fill="lightgray"></path>
				<path d="M 622 2 L 565 -2 L 459 -11 L 425 -12 L 411 -13 Q 403 -13 400 -14 L 375 -14 Q 367 -16 364 -19 Q 362 -27 364.5 -30.5 Q 367 -34 381 -42 L 399 -51 L 416 -56 Q 433 -62 441 -62.5 Q 449 -63 479 -56.5 Q 509 -50 557 -46 Q 677 -32 823 -32 L 901 -32 L 960 -36 Q 979 -36 983 -32 Q 987 -28 987 -19.5 Q 987 -11 970 0 Q 951 14 934 18 Q 912 28 896 29 Q 880 30 853 26 Q 804 15 737 10 L 672 7 L 622 2 Z" fill="lightgray"></path>
</g>
		<text x="40" y="140" font-size="128" fill="#999999">9</text></g>
		<g id="id1:id4:id4" transform="matrix(1.0,0,0,1.0,4096,0.0)">			<g stroke="lightgray" stroke-width="4" transform="scale(4, 4)"> <rect x="0" y="0" width="256" height="256" fill="white" stroke-width="4"/></g>
			<g transform="scale(0.92, -0.92) translate(60, -920)">					<path d="M 291 541 Q 301 541 308 551 Q 315 561 315 582 Q 313 600 307.5 610 Q 302 620 275.5 635 Q 249 650 215 654 L 197 657 Q 170 661 183 641 L 197 622 Q 256 541 291 541 Z" fill="black"></path>
				<path d="M 111 444 Q 99 445 95 441 Q 93 436 95 433 L 111 412 Q 127 386 146 365 Q 165 344 175 339 Q 213 326 219 348 Q 223 352 223 370 Q 223 405 199 419 Q 191 426 168.5 431 Q 146 436 133 440 L 111 444 Z" fill="black"></path>
				<path d="M 201 171 L 163 119 Q 141 94 115 73.5 Q 89 53 85 45 Q 81 32 93 0 L 105 -32 Q 108 -41 119 -55 Q 122 -62 130.5 -64 Q 139 -66 143 -59 Q 153 -49 157.5 -33.5 Q 162 -18 165 -10 L 181 32 Q 217 113 233 146 Q 249 179 267 232 L 285 278 Q 286 285 280 290 Q 275 297 267 283 L 201 171 Z" fill="black"></path>
				<path d="M 473 600 L 517 608 L 586 617 Q 670 628 670 629 L 745 636 L 809 640 L 863 643 Q 869 643 871 645 L 876 651 Q 876 652 872 659.5 Q 868 667 843.5 678 Q 819 689 817 691 Q 815 693 800 691 L 718 675 L 615 660 L 383 630 Q 375 629 373 624 Q 375 617 379.5 611 Q 384 605 401 598 L 473 600 Z" fill="black"></path>
				<path d="M 401 598 L 406 577 L 408 551 Q 414 469 391 359 Q 367 248 353 204 Q 310 85 271 28 L 241 -17 Q 229 -34 211 -52 L 197 -70 Q 189 -78 194 -82 Q 199 -86 211 -78 L 231 -62 Q 254 -48 289 -10 Q 324 28 344 60 Q 386 123 421 260 Q 444 342 454 416 L 469 550 L 477 582 Q 477 589 473 600 C 470 630 394 627 401 598 Z" fill="black"></path>
				<path d="M 615 452 L 584 444 L 559 441 Q 541 438 536 438 L 511 437 Q 505 436 503 434 Q 495 426 504 421 Q 513 416 528 408 Q 543 400 567 403 L 581 404 Q 591 404 617 412 L 670 420 L 725 428 Q 760 434 771 437 L 802 444 Q 808 445 815 452 Q 820 465 804 472 Q 800 476 785 479 Q 766 487 739 479.5 Q 712 472 672 463 L 615 452 Z" fill="black"></path>
				<path d="M 624 579 Q 610 583 603 579 Q 595 574 594 568 Q 593 561 597 557 L 605 541 Q 613 521 613 510 L 613 498 L 615 452 L 617 412 L 620 316 C 621 286 667 295 668 325 L 670 420 L 672 463 L 677 508 Q 677 524 681 534 Q 685 543 685 550 Q 685 562 662 569 L 650 573 L 636 575 L 624 579 Z" fill="black"></path>
				<path d="M 620 316 L 597 314 L 551 307 L 513 302 Q 492 298 481 298 L 459 297 Q 441 295 454 280 Q 459 272 476 266 Q 493 260 503 260 L 540 266 Q 542 266 576 272 L 677 288 L 850 300 L 884 300 Q 897 300 904 305 Q 919 315 907 325 Q 903 331 888 336 L 859 348 Q 840 354 815 349 L 775 342 L 721 334 L 668 325 L 620 316 Z" fill="black"></path>
				<path d="M 620 151 L 601 146 L 555 142 L 517 138 L 489 134 Q 461 130 487 117 Q 505 107 528 105.5 Q 551 104 557 105 L 622 114 L 677 120 L 710 123 Q 732 124 748 128 Q 767 130 787 134 L 823 141 Q 842 145 838 157 Q 838 162 835 165 Q 832 168 812.5 176.5 Q 793 185 769 180 L 754 176 Q 737 170 714 167 L 681 162 L 620 151 Z" fill="black"></path>
				<path d="M 693 221 Q 693 233 660 244 Q 626 255 614 253 Q 602 250 601 244 Q 599 239 601 230 L 609 217 Q 609 216 610 214 L 617 200 L 620 174 L 620 151 L 622 114 L 622 2 C 622 -28 671 -23 672 7 L 677 120 L 681 162 L 681 176 L 683 180 L 683 185 Q 687 193 687 199 Q 687 205 688 207 L 693 221 Z" fill="red"></path>
				<path d="M 622 2 L 565 -2 L 459 -11 L 425 -12 L 411 -13 Q 403 -13 400 -14 L 375 -14 Q 367 -16 364 -19 Q 362 -27 364.5 -30.5 Q 367 -34 381 -42 L 399 -51 L 416 -56 Q 433 -62 441 -62.5 Q 449 -63 479 -56.5 Q 509 -50 557 -46 Q 677 -32 823 -32 L 901 -32 L 960 -36 Q 979 -36 983 -32 Q 987 -28 987 -19.5 Q 987 -11 970 0 Q 951 14 934 18 Q 912 28 896 29 Q 880 30 853 26 Q 804 15 737 10 L 672 7 L 622 2 Z" fill="lightgray"></path>
</g>
		<text x="40" y="140" font-size="128" fill="#999999">10</text></g>
</g>
	<g id="id2:id2" transform="translate(0.0,2048)">
		<g id="id2:id0:id0" transform="matrix(1.0,0,0,1.0,0,0.0)">			<g stroke="lightgray" stroke-width="4" transform="scale(4, 4)"> <rect x="0" y="0" width="256" height="256" fill="white" stroke-width="4"/></g>
			<g transform="scale(0.92, -0.92) translate(60, -920)">					<path d="M 291 541 Q 301 541 308 551 Q 315 561 315 582 Q 313 600 307.5 610 Q 302 620 275.5 635 Q 249 650 215 654 L 197 657 Q 170 661 183 641 L 197 622 Q 256 541 291 541 Z" fill="black"></path>
				<path d="M 111 444 Q 99 445 95 441 Q 93 436 95 433 L 111 412 Q 127 386 146 365 Q 165 344 175 339 Q 213 326 219 348 Q 223 352 223 370 Q 223 405 199 419 Q 191 426 168.5 431 Q 146 436 133 440 L 111 444 Z" fill="black"></path>
				<path d="M 201 171 L 163 119 Q 141 94 115 73.5 Q 89 53 85 45 Q 81 32 93 0 L 105 -32 Q 108 -41 119 -55 Q 122 -62 130.5 -64 Q 139 -66 143 -59 Q 153 -49 157.5 -33.5 Q 162 -18 165 -10 L 181 32 Q 217 113 233 146 Q 249 179 267 232 L 285 278 Q 286 285 280 290 Q 275 297 267 283 L 201 171 Z" fill="black"></path>
				<path d="M 473 600 L 517 608 L 586 617 Q 670 628 670 629 L 745 636 L 809 640 L 863 643 Q 869 643 871 645 L 876 651 Q 876 652 872 659.5 Q 868 667 843.5 678 Q 819 689 817 691 Q 815 693 800 691 L 718 675 L 615 660 L 383 630 Q 375 629 373 624 Q 375 617 379.5 611 Q 384 605 401 598 L 473 600 Z" fill="black"></path>
				<path d="M 401 598 L 406 577 L 408 551 Q 414 469 391 359 Q 367 248 353 204 Q 310 85 271 28 L 241 -17 Q 229 -34 211 -52 L 197 -70 Q 189 -78 194 -82 Q 199 -86 211 -78 L 231 -62 Q 254 -48 289 -10 Q 324 28 344 60 Q 386 123 421 260 Q 444 342 454 416 L 469 550 L 477 582 Q 477 589 473 600 C 470 630 394 627 401 598 Z" fill="black"></path>
				<path d="M 615 452 L 584 444 L 559 441 Q 541 438 536 438 L 511 437 Q 505 436 503 434 Q 495 426 504 421 Q 513 416 528 408 Q 543 400 567 403 L 581 404 Q 591 404 617 412 L 670 420 L 725 428 Q 760 434 771 437 L 802 444 Q 808 445 815 452 Q 820 465 804 472 Q 800 476 785 479 Q 766 487 739 479.5 Q 712 472 672 463 L 615 452 Z" fill="black"></path>
				<path d="M 624 579 Q 610 583 603 579 Q 595 574 594 568 Q 593 561 597 557 L 605 541 Q 613 521 613 510 L 613 498 L 615 452 L 617 412 L 620 316 C 621 286 667 295 668 325 L 670 420 L 672 463 L 677 508 Q 677 524 681 534 Q 685 543 685 550 Q 685 562 662 569 L 650 573 L 636 575 L 624 579 Z" fill="black"></path>
				<path d="M 620 316 L 597 314 L 551 307 L 513 302 Q 492 298 481 298 L 459 297 Q 441 295 454 280 Q 459 272 476 266 Q 493 260 503 260 L 540 266 Q 542 266 576 272 L 677 288 L 850 300 L 884 300 Q 897 300 904 305 Q 919 315 907 325 Q 903 331 888 336 L 859 348 Q 840 354 815 349 L 775 342 L 721 334 L 668 325 L 620 316 Z" fill="black"></path>
				<path d="M 620 151 L 601 146 L 555 142 L 517 138 L 489 134 Q 461 130 487 117 Q 505 107 528 105.5 Q 551 104 557 105 L 622 114 L 677 120 L 710 123 Q 732 124 748 128 Q 767 130 787 134 L 823 141 Q 842 145 838 157 Q 838 162 835 165 Q 832 168 812.5 176.5 Q 793 185 769 180 L 754 176 Q 737 170 714 167 L 681 162 L 620 151 Z" fill="black"></path>
				<path d="M 693 221 Q 693 233 660 244 Q 626 255 614 253 Q 602 250 601 244 Q 599 239 601 230 L 609 217 Q 609 216 610 214 L 617 200 L 620 174 L 620 151 L 622 114 L 622 2 C 622 -28 671 -23 672 7 L 677 120 L 681 162 L 681 176 L 683 180 L 683 185 Q 687 193 687 199 Q 687 205 688 207 L 693 221 Z" fill="black"></path>
				<path d="M 622 2 L 565 -2 L 459 -11 L 425 -12 L 411 -13 Q 403 -13 400 -14 L 375 -14 Q 367 -16 364 -19 Q 362 -27 364.5 -30.5 Q 367 -34 381 -42 L 399 -51 L 416 -56 Q 433 -62 441 -62.5 Q 449 -63 479 -56.5 Q 509 -50 557 -46 Q 677 -32 823 -32 L 901 -32 L 960 -36 Q 979 -36 983 -32 Q 987 -28 987 -19.5 Q 987 -11 970 0 Q 951 14 934 18 Q 912 28 896 29 Q 880 30 853 26 Q 804 15 737 10 L 672 7 L 622 2 Z" fill="red"></path>
</g>
		<text x="40" y="140" font-size="128" fill="#999999">11</text></g>
		<g id="id2:id1:id1" transform="matrix(1.0,0,0,1.0,1024,0.0)">			<g stroke="white" stroke-width="4" transform="scale(4, 4)"> <rect x="1" y="1" width="255" height="255" fill="white" stroke-width="0"/></g>
</g>
		<g id="id2:id2:id2" transform="matrix(1.0,0,0,1.0,2048,0.0)">			<g stroke="white" stroke-width="4" transform="scale(4, 4)"> <rect x="1" y="1" width="255" height="255" fill="white" stroke-width="0"/></g>
</g>
		<g id="id2:id3:id3" transform="matrix(1.0,0,0,1.0,3072,0.0)">			<g stroke="white" stroke-width="4" transform="scale(4, 4)"> <rect x="1" y="1" width="255" height="255" fill="white" stroke-width="0"/></g>
</g>
		<g id="id2:id4:id4" transform="matrix(1.0,0,0,1.0,4096,0.0)">			<g stroke="white" stroke-width="4" transform="scale(4, 4)"> <rect x="1" y="1" width="255" height="255" fill="white" stroke-width="0"/></g>
</g>
</g>
</svg>
