<?xml version="1.0" standalone="no"?>
<!DOCTYPE svg PUBLIC "-//W3C//DTD SVG 1.1//EN"
 "http://www.w3.org/Graphics/SVG/1.1/DTD/svg11.dtd">
<!-- generate by Japanese dictionary app com.asnsami.kanjidictionary -->

<svg xmlns="http://www.w3.org/2000/svg" xmlns:sodipodi="http://sodipodi.sourceforge.net/DTD/sodipodi-0.dtd" version="1.1" width="640" height="384" viewBox="0 0 5120 3072">
	<g id="id0:id0" transform="translate(0.0,0)">
		<g id="id0:id0:id0" transform="matrix(1.0,0,0,1.0,0,0.0)">			<g stroke="lightgray" stroke-width="4" transform="scale(4, 4)"> <rect x="0" y="0" width="256" height="256" fill="white" stroke-width="4"/></g>
			<g transform="scale(0.92, -0.92) translate(60, -920)">					<path d="M 336 573 Q 336 616 284 629 Q 269 633 253.5 637.5 Q 238 642 237 642 L 211 646 Q 202 648 200 644 Q 198 640 208 624 L 221 606 L 253 565 Q 286 532 309 535 Q 333 535 336 573 Z" fill="red"></path>
				<path d="M 118 392 Q 133 371 153 351 Q 201 303 231 318 Q 246 333 246 358 Q 246 383 219 400 Q 198 410 177 417 Q 145 425 140 426 L 114 430 Q 100 431 98.5 425.5 Q 97 420 100 416 L 118 392 Z" fill="lightgray"></path>
				<path d="M 281 214 Q 274 199 259 174 L 230 128 Q 220 114 214 105 L 191 79 Q 182 68 160.5 54 Q 139 40 136 34 Q 132 30 130.5 13.5 Q 129 -3 141 -32 Q 152 -54 158 -71 Q 168 -86 182 -86 Q 193 -82 203 -53 L 215 -26 L 233 27 Q 245 51 261 89 L 292 162 L 316 223 L 327 258 Q 331 264 323 272 Q 316 276 311 266 L 297 240 L 281 214 Z" fill="lightgray"></path>
				<path d="M 638 598 L 715 608 Q 736 610 761 615 L 797 625 Q 809 626 812 631 L 814 639 Q 814 646 794 655.5 Q 774 665 766 667 Q 747 669 743 668 L 679 652 L 639 644 L 576 633 L 545 629 L 483 623 Q 450 618 447 618 L 420 615 Q 412 614 410.5 612 Q 409 610 413.5 602.5 Q 418 595 431 587 Q 444 579 460.5 579 Q 477 579 505 581 L 576 591 L 638 598 Z" fill="lightgray"></path>
				<path d="M 634 486 L 739 504 Q 782 510 786 517 Q 790 524 789 530 Q 789 537 763 541 L 744 547 Q 724 549 720 548 L 694 543 Q 674 538 664 537 L 636 531 L 576 521 L 550 516 Q 533 512 519 510 L 473 505 L 450 501 Q 442 501 440 496 Q 438 491 445 484 Q 452 477 466 474 Q 489 464 537 472 L 576 478 L 634 486 Z" fill="lightgray"></path>
				<path d="M 632 404 L 634 486 L 636 531 L 638 598 L 639 644 L 640 663 Q 640 666 644 690 Q 648 714 654 726 Q 659 738 658 746 Q 655 758 624 770 L 601 777 Q 550 790 550 766 Q 550 762 559 745 Q 568 728 571 702 L 573 690 Q 576 675 576 645 L 576 633 L 576 591 L 576 521 L 576 478 L 576 398 C 576 368 631 374 632 404 Z" fill="lightgray"></path>
				<path d="M 627 369 Q 686 376 709 378 L 748 380 L 812 382 L 948 380 Q 963 380 964.5 383 Q 966 386 969 388 Q 983 399 949 421 L 921 436 Q 900 445 853 436 L 825 427 Q 799 427 787 423 L 723 416 L 632 404 L 576 398 L 551 396 Q 550 395 526 392 L 455 384 Q 379 376 354 376 L 318 374 Q 303 374 302 367 Q 300 361 308 353 Q 316 345 329 341 L 371 326 Q 388 324 392 324.5 Q 396 325 436.5 337 Q 477 349 548 360 L 627 369 Z" fill="lightgray"></path>
				<path d="M 443 18 Q 425 -45 422 -91 Q 422 -102 430 -115 Q 437 -128 439 -130 Q 451 -153 457 -148 Q 472 -136 487 -61 L 492 48 L 494 66 L 496 106 Q 497 111 498 133 L 499 163 L 501 202 Q 501 226 498 247 C 495 277 512 275 503 278 L 464 289 Q 447 292 439 289 Q 427 289 436 274 Q 445 259 447 243 Q 467 175 443 18 Z" fill="lightgray"></path>
				<path d="M 745 65 L 739 -29 Q 736 -73 722 -83 Q 710 -89 683 -82 L 666 -78 L 649 -72 Q 633 -68 630 -72 Q 626 -75 638 -83 L 656 -99 L 669 -109 Q 670 -110 677 -116 Q 684 -122 693 -135 Q 702 -147 709 -161 Q 716 -175 722 -177 Q 729 -179 744 -171 Q 758 -162 771 -145 Q 797 -107 795 -36 L 794 32 L 795 198 Q 795 224 798 234 Q 800 244 810 254 Q 819 263 820 268 Q 820 273 813 282 Q 806 291 786 304 Q 766 316 762 319 L 752 324 Q 748 324 731 317 Q 713 310 691 307 L 651 300 L 503 278 C 473 274 468 243 498 247 L 552 254 L 708 272 Q 728 276 735 267 Q 741 258 742 245 L 743 187 L 745 165 L 745 89 L 745 65 Z" fill="lightgray"></path>
				<path d="M 498 133 L 533 133 Q 556 134 633 146 L 745 165 C 775 170 772 181 743 187 L 727 190 L 710 196 Q 692 199 667 191 Q 641 183 623 180 L 549 169 Q 507 164 499 163 C 469 159 468 133 498 133 Z" fill="lightgray"></path>
				<path d="M 492 48 L 516 42 Q 535 38 542 38 Q 549 37 577 42 L 722 64 Q 730 65 745 65 C 775 65 774 84 745 89 L 718 94 Q 702 97 662 91 L 560 74 Q 556 74 494 66 C 464 62 463 55 492 48 Z" fill="lightgray"></path>
</g>
		<text x="40" y="140" font-size="128" fill="#999999">1</text></g>
		<g id="id0:id1:id1" transform="matrix(1.0,0,0,1.0,1024,0.0)">			<g stroke="lightgray" stroke-width="4" transform="scale(4, 4)"> <rect x="0" y="0" width="256" height="256" fill="white" stroke-width="4"/></g>
			<g transform="scale(0.92, -0.92) translate(60, -920)">					<path d="M 336 573 Q 336 616 284 629 Q 269 633 253.5 637.5 Q 238 642 237 642 L 211 646 Q 202 648 200 644 Q 198 640 208 624 L 221 606 L 253 565 Q 286 532 309 535 Q 333 535 336 573 Z" fill="black"></path>
				<path d="M 118 392 Q 133 371 153 351 Q 201 303 231 318 Q 246 333 246 358 Q 246 383 219 400 Q 198 410 177 417 Q 145 425 140 426 L 114 430 Q 100 431 98.5 425.5 Q 97 420 100 416 L 118 392 Z" fill="red"></path>
				<path d="M 281 214 Q 274 199 259 174 L 230 128 Q 220 114 214 105 L 191 79 Q 182 68 160.5 54 Q 139 40 136 34 Q 132 30 130.5 13.5 Q 129 -3 141 -32 Q 152 -54 158 -71 Q 168 -86 182 -86 Q 193 -82 203 -53 L 215 -26 L 233 27 Q 245 51 261 89 L 292 162 L 316 223 L 327 258 Q 331 264 323 272 Q 316 276 311 266 L 297 240 L 281 214 Z" fill="lightgray"></path>
				<path d="M 638 598 L 715 608 Q 736 610 761 615 L 797 625 Q 809 626 812 631 L 814 639 Q 814 646 794 655.5 Q 774 665 766 667 Q 747 669 743 668 L 679 652 L 639 644 L 576 633 L 545 629 L 483 623 Q 450 618 447 618 L 420 615 Q 412 614 410.5 612 Q 409 610 413.5 602.5 Q 418 595 431 587 Q 444 579 460.5 579 Q 477 579 505 581 L 576 591 L 638 598 Z" fill="lightgray"></path>
				<path d="M 634 486 L 739 504 Q 782 510 786 517 Q 790 524 789 530 Q 789 537 763 541 L 744 547 Q 724 549 720 548 L 694 543 Q 674 538 664 537 L 636 531 L 576 521 L 550 516 Q 533 512 519 510 L 473 505 L 450 501 Q 442 501 440 496 Q 438 491 445 484 Q 452 477 466 474 Q 489 464 537 472 L 576 478 L 634 486 Z" fill="lightgray"></path>
				<path d="M 632 404 L 634 486 L 636 531 L 638 598 L 639 644 L 640 663 Q 640 666 644 690 Q 648 714 654 726 Q 659 738 658 746 Q 655 758 624 770 L 601 777 Q 550 790 550 766 Q 550 762 559 745 Q 568 728 571 702 L 573 690 Q 576 675 576 645 L 576 633 L 576 591 L 576 521 L 576 478 L 576 398 C 576 368 631 374 632 404 Z" fill="lightgray"></path>
				<path d="M 627 369 Q 686 376 709 378 L 748 380 L 812 382 L 948 380 Q 963 380 964.5 383 Q 966 386 969 388 Q 983 399 949 421 L 921 436 Q 900 445 853 436 L 825 427 Q 799 427 787 423 L 723 416 L 632 404 L 576 398 L 551 396 Q 550 395 526 392 L 455 384 Q 379 376 354 376 L 318 374 Q 303 374 302 367 Q 300 361 308 353 Q 316 345 329 341 L 371 326 Q 388 324 392 324.5 Q 396 325 436.5 337 Q 477 349 548 360 L 627 369 Z" fill="lightgray"></path>
				<path d="M 443 18 Q 425 -45 422 -91 Q 422 -102 430 -115 Q 437 -128 439 -130 Q 451 -153 457 -148 Q 472 -136 487 -61 L 492 48 L 494 66 L 496 106 Q 497 111 498 133 L 499 163 L 501 202 Q 501 226 498 247 C 495 277 512 275 503 278 L 464 289 Q 447 292 439 289 Q 427 289 436 274 Q 445 259 447 243 Q 467 175 443 18 Z" fill="lightgray"></path>
				<path d="M 745 65 L 739 -29 Q 736 -73 722 -83 Q 710 -89 683 -82 L 666 -78 L 649 -72 Q 633 -68 630 -72 Q 626 -75 638 -83 L 656 -99 L 669 -109 Q 670 -110 677 -116 Q 684 -122 693 -135 Q 702 -147 709 -161 Q 716 -175 722 -177 Q 729 -179 744 -171 Q 758 -162 771 -145 Q 797 -107 795 -36 L 794 32 L 795 198 Q 795 224 798 234 Q 800 244 810 254 Q 819 263 820 268 Q 820 273 813 282 Q 806 291 786 304 Q 766 316 762 319 L 752 324 Q 748 324 731 317 Q 713 310 691 307 L 651 300 L 503 278 C 473 274 468 243 498 247 L 552 254 L 708 272 Q 728 276 735 267 Q 741 258 742 245 L 743 187 L 745 165 L 745 89 L 745 65 Z" fill="lightgray"></path>
				<path d="M 498 133 L 533 133 Q 556 134 633 146 L 745 165 C 775 170 772 181 743 187 L 727 190 L 710 196 Q 692 199 667 191 Q 641 183 623 180 L 549 169 Q 507 164 499 163 C 469 159 468 133 498 133 Z" fill="lightgray"></path>
				<path d="M 492 48 L 516 42 Q 535 38 542 38 Q 549 37 577 42 L 722 64 Q 730 65 745 65 C 775 65 774 84 745 89 L 718 94 Q 702 97 662 91 L 560 74 Q 556 74 494 66 C 464 62 463 55 492 48 Z" fill="lightgray"></path>
</g>
		<text x="40" y="140" font-size="128" fill="#999999">2</text></g>
		<g id="id0:id2:id2" transform="matrix(1.0,0,0,1.0,2048,0.0)">			<g stroke="lightgray" stroke-width="4" transform="scale(4, 4)"> <rect x="0" y="0" width="256" height="256" fill="white" stroke-width="4"/></g>
			<g transform="scale(0.92, -0.92) translate(60, -920)">					<path d="M 336 573 Q 336 616 284 629 Q 269 633 253.5 637.5 Q 238 642 237 642 L 211 646 Q 202 648 200 644 Q 198 640 208 624 L 221 606 L 253 565 Q 286 532 309 535 Q 333 535 336 573 Z" fill="black"></path>
				<path d="M 118 392 Q 133 371 153 351 Q 201 303 231 318 Q 246 333 246 358 Q 246 383 219 400 Q 198 410 177 417 Q 145 425 140 426 L 114 430 Q 100 431 98.5 425.5 Q 97 420 100 416 L 118 392 Z" fill="black"></path>
				<path d="M 281 214 Q 274 199 259 174 L 230 128 Q 220 114 214 105 L 191 79 Q 182 68 160.5 54 Q 139 40 136 34 Q 132 30 130.5 13.5 Q 129 -3 141 -32 Q 152 -54 158 -71 Q 168 -86 182 -86 Q 193 -82 203 -53 L 215 -26 L 233 27 Q 245 51 261 89 L 292 162 L 316 223 L 327 258 Q 331 264 323 272 Q 316 276 311 266 L 297 240 L 281 214 Z" fill="red"></path>
				<path d="M 638 598 L 715 608 Q 736 610 761 615 L 797 625 Q 809 626 812 631 L 814 639 Q 814 646 794 655.5 Q 774 665 766 667 Q 747 669 743 668 L 679 652 L 639 644 L 576 633 L 545 629 L 483 623 Q 450 618 447 618 L 420 615 Q 412 614 410.5 612 Q 409 610 413.5 602.5 Q 418 595 431 587 Q 444 579 460.5 579 Q 477 579 505 581 L 576 591 L 638 598 Z" fill="lightgray"></path>
				<path d="M 634 486 L 739 504 Q 782 510 786 517 Q 790 524 789 530 Q 789 537 763 541 L 744 547 Q 724 549 720 548 L 694 543 Q 674 538 664 537 L 636 531 L 576 521 L 550 516 Q 533 512 519 510 L 473 505 L 450 501 Q 442 501 440 496 Q 438 491 445 484 Q 452 477 466 474 Q 489 464 537 472 L 576 478 L 634 486 Z" fill="lightgray"></path>
				<path d="M 632 404 L 634 486 L 636 531 L 638 598 L 639 644 L 640 663 Q 640 666 644 690 Q 648 714 654 726 Q 659 738 658 746 Q 655 758 624 770 L 601 777 Q 550 790 550 766 Q 550 762 559 745 Q 568 728 571 702 L 573 690 Q 576 675 576 645 L 576 633 L 576 591 L 576 521 L 576 478 L 576 398 C 576 368 631 374 632 404 Z" fill="lightgray"></path>
				<path d="M 627 369 Q 686 376 709 378 L 748 380 L 812 382 L 948 380 Q 963 380 964.5 383 Q 966 386 969 388 Q 983 399 949 421 L 921 436 Q 900 445 853 436 L 825 427 Q 799 427 787 423 L 723 416 L 632 404 L 576 398 L 551 396 Q 550 395 526 392 L 455 384 Q 379 376 354 376 L 318 374 Q 303 374 302 367 Q 300 361 308 353 Q 316 345 329 341 L 371 326 Q 388 324 392 324.5 Q 396 325 436.5 337 Q 477 349 548 360 L 627 369 Z" fill="lightgray"></path>
				<path d="M 443 18 Q 425 -45 422 -91 Q 422 -102 430 -115 Q 437 -128 439 -130 Q 451 -153 457 -148 Q 472 -136 487 -61 L 492 48 L 494 66 L 496 106 Q 497 111 498 133 L 499 163 L 501 202 Q 501 226 498 247 C 495 277 512 275 503 278 L 464 289 Q 447 292 439 289 Q 427 289 436 274 Q 445 259 447 243 Q 467 175 443 18 Z" fill="lightgray"></path>
				<path d="M 745 65 L 739 -29 Q 736 -73 722 -83 Q 710 -89 683 -82 L 666 -78 L 649 -72 Q 633 -68 630 -72 Q 626 -75 638 -83 L 656 -99 L 669 -109 Q 670 -110 677 -116 Q 684 -122 693 -135 Q 702 -147 709 -161 Q 716 -175 722 -177 Q 729 -179 744 -171 Q 758 -162 771 -145 Q 797 -107 795 -36 L 794 32 L 795 198 Q 795 224 798 234 Q 800 244 810 254 Q 819 263 820 268 Q 820 273 813 282 Q 806 291 786 304 Q 766 316 762 319 L 752 324 Q 748 324 731 317 Q 713 310 691 307 L 651 300 L 503 278 C 473 274 468 243 498 247 L 552 254 L 708 272 Q 728 276 735 267 Q 741 258 742 245 L 743 187 L 745 165 L 745 89 L 745 65 Z" fill="lightgray"></path>
				<path d="M 498 133 L 533 133 Q 556 134 633 146 L 745 165 C 775 170 772 181 743 187 L 727 190 L 710 196 Q 692 199 667 191 Q 641 183 623 180 L 549 169 Q 507 164 499 163 C 469 159 468 133 498 133 Z" fill="lightgray"></path>
				<path d="M 492 48 L 516 42 Q 535 38 542 38 Q 549 37 577 42 L 722 64 Q 730 65 745 65 C 775 65 774 84 745 89 L 718 94 Q 702 97 662 91 L 560 74 Q 556 74 494 66 C 464 62 463 55 492 48 Z" fill="lightgray"></path>
</g>
		<text x="40" y="140" font-size="128" fill="#999999">3</text></g>
		<g id="id0:id3:id3" transform="matrix(1.0,0,0,1.0,3072,0.0)">			<g stroke="lightgray" stroke-width="4" transform="scale(4, 4)"> <rect x="0" y="0" width="256" height="256" fill="white" stroke-width="4"/></g>
			<g transform="scale(0.92, -0.92) translate(60, -920)">					<path d="M 336 573 Q 336 616 284 629 Q 269 633 253.5 637.5 Q 238 642 237 642 L 211 646 Q 202 648 200 644 Q 198 640 208 624 L 221 606 L 253 565 Q 286 532 309 535 Q 333 535 336 573 Z" fill="black"></path>
				<path d="M 118 392 Q 133 371 153 351 Q 201 303 231 318 Q 246 333 246 358 Q 246 383 219 400 Q 198 410 177 417 Q 145 425 140 426 L 114 430 Q 100 431 98.5 425.5 Q 97 420 100 416 L 118 392 Z" fill="black"></path>
				<path d="M 281 214 Q 274 199 259 174 L 230 128 Q 220 114 214 105 L 191 79 Q 182 68 160.5 54 Q 139 40 136 34 Q 132 30 130.5 13.5 Q 129 -3 141 -32 Q 152 -54 158 -71 Q 168 -86 182 -86 Q 193 -82 203 -53 L 215 -26 L 233 27 Q 245 51 261 89 L 292 162 L 316 223 L 327 258 Q 331 264 323 272 Q 316 276 311 266 L 297 240 L 281 214 Z" fill="black"></path>
				<path d="M 638 598 L 715 608 Q 736 610 761 615 L 797 625 Q 809 626 812 631 L 814 639 Q 814 646 794 655.5 Q 774 665 766 667 Q 747 669 743 668 L 679 652 L 639 644 L 576 633 L 545 629 L 483 623 Q 450 618 447 618 L 420 615 Q 412 614 410.5 612 Q 409 610 413.5 602.5 Q 418 595 431 587 Q 444 579 460.5 579 Q 477 579 505 581 L 576 591 L 638 598 Z" fill="red"></path>
				<path d="M 634 486 L 739 504 Q 782 510 786 517 Q 790 524 789 530 Q 789 537 763 541 L 744 547 Q 724 549 720 548 L 694 543 Q 674 538 664 537 L 636 531 L 576 521 L 550 516 Q 533 512 519 510 L 473 505 L 450 501 Q 442 501 440 496 Q 438 491 445 484 Q 452 477 466 474 Q 489 464 537 472 L 576 478 L 634 486 Z" fill="lightgray"></path>
				<path d="M 632 404 L 634 486 L 636 531 L 638 598 L 639 644 L 640 663 Q 640 666 644 690 Q 648 714 654 726 Q 659 738 658 746 Q 655 758 624 770 L 601 777 Q 550 790 550 766 Q 550 762 559 745 Q 568 728 571 702 L 573 690 Q 576 675 576 645 L 576 633 L 576 591 L 576 521 L 576 478 L 576 398 C 576 368 631 374 632 404 Z" fill="lightgray"></path>
				<path d="M 627 369 Q 686 376 709 378 L 748 380 L 812 382 L 948 380 Q 963 380 964.5 383 Q 966 386 969 388 Q 983 399 949 421 L 921 436 Q 900 445 853 436 L 825 427 Q 799 427 787 423 L 723 416 L 632 404 L 576 398 L 551 396 Q 550 395 526 392 L 455 384 Q 379 376 354 376 L 318 374 Q 303 374 302 367 Q 300 361 308 353 Q 316 345 329 341 L 371 326 Q 388 324 392 324.5 Q 396 325 436.5 337 Q 477 349 548 360 L 627 369 Z" fill="lightgray"></path>
				<path d="M 443 18 Q 425 -45 422 -91 Q 422 -102 430 -115 Q 437 -128 439 -130 Q 451 -153 457 -148 Q 472 -136 487 -61 L 492 48 L 494 66 L 496 106 Q 497 111 498 133 L 499 163 L 501 202 Q 501 226 498 247 C 495 277 512 275 503 278 L 464 289 Q 447 292 439 289 Q 427 289 436 274 Q 445 259 447 243 Q 467 175 443 18 Z" fill="lightgray"></path>
				<path d="M 745 65 L 739 -29 Q 736 -73 722 -83 Q 710 -89 683 -82 L 666 -78 L 649 -72 Q 633 -68 630 -72 Q 626 -75 638 -83 L 656 -99 L 669 -109 Q 670 -110 677 -116 Q 684 -122 693 -135 Q 702 -147 709 -161 Q 716 -175 722 -177 Q 729 -179 744 -171 Q 758 -162 771 -145 Q 797 -107 795 -36 L 794 32 L 795 198 Q 795 224 798 234 Q 800 244 810 254 Q 819 263 820 268 Q 820 273 813 282 Q 806 291 786 304 Q 766 316 762 319 L 752 324 Q 748 324 731 317 Q 713 310 691 307 L 651 300 L 503 278 C 473 274 468 243 498 247 L 552 254 L 708 272 Q 728 276 735 267 Q 741 258 742 245 L 743 187 L 745 165 L 745 89 L 745 65 Z" fill="lightgray"></path>
				<path d="M 498 133 L 533 133 Q 556 134 633 146 L 745 165 C 775 170 772 181 743 187 L 727 190 L 710 196 Q 692 199 667 191 Q 641 183 623 180 L 549 169 Q 507 164 499 163 C 469 159 468 133 498 133 Z" fill="lightgray"></path>
				<path d="M 492 48 L 516 42 Q 535 38 542 38 Q 549 37 577 42 L 722 64 Q 730 65 745 65 C 775 65 774 84 745 89 L 718 94 Q 702 97 662 91 L 560 74 Q 556 74 494 66 C 464 62 463 55 492 48 Z" fill="lightgray"></path>
</g>
		<text x="40" y="140" font-size="128" fill="#999999">4</text></g>
		<g id="id0:id4:id4" transform="matrix(1.0,0,0,1.0,4096,0.0)">			<g stroke="lightgray" stroke-width="4" transform="scale(4, 4)"> <rect x="0" y="0" width="256" height="256" fill="white" stroke-width="4"/></g>
			<g transform="scale(0.92, -0.92) translate(60, -920)">					<path d="M 336 573 Q 336 616 284 629 Q 269 633 253.5 637.5 Q 238 642 237 642 L 211 646 Q 202 648 200 644 Q 198 640 208 624 L 221 606 L 253 565 Q 286 532 309 535 Q 333 535 336 573 Z" fill="black"></path>
				<path d="M 118 392 Q 133 371 153 351 Q 201 303 231 318 Q 246 333 246 358 Q 246 383 219 400 Q 198 410 177 417 Q 145 425 140 426 L 114 430 Q 100 431 98.5 425.5 Q 97 420 100 416 L 118 392 Z" fill="black"></path>
				<path d="M 281 214 Q 274 199 259 174 L 230 128 Q 220 114 214 105 L 191 79 Q 182 68 160.5 54 Q 139 40 136 34 Q 132 30 130.5 13.5 Q 129 -3 141 -32 Q 152 -54 158 -71 Q 168 -86 182 -86 Q 193 -82 203 -53 L 215 -26 L 233 27 Q 245 51 261 89 L 292 162 L 316 223 L 327 258 Q 331 264 323 272 Q 316 276 311 266 L 297 240 L 281 214 Z" fill="black"></path>
				<path d="M 638 598 L 715 608 Q 736 610 761 615 L 797 625 Q 809 626 812 631 L 814 639 Q 814 646 794 655.5 Q 774 665 766 667 Q 747 669 743 668 L 679 652 L 639 644 L 576 633 L 545 629 L 483 623 Q 450 618 447 618 L 420 615 Q 412 614 410.5 612 Q 409 610 413.5 602.5 Q 418 595 431 587 Q 444 579 460.5 579 Q 477 579 505 581 L 576 591 L 638 598 Z" fill="black"></path>
				<path d="M 634 486 L 739 504 Q 782 510 786 517 Q 790 524 789 530 Q 789 537 763 541 L 744 547 Q 724 549 720 548 L 694 543 Q 674 538 664 537 L 636 531 L 576 521 L 550 516 Q 533 512 519 510 L 473 505 L 450 501 Q 442 501 440 496 Q 438 491 445 484 Q 452 477 466 474 Q 489 464 537 472 L 576 478 L 634 486 Z" fill="red"></path>
				<path d="M 632 404 L 634 486 L 636 531 L 638 598 L 639 644 L 640 663 Q 640 666 644 690 Q 648 714 654 726 Q 659 738 658 746 Q 655 758 624 770 L 601 777 Q 550 790 550 766 Q 550 762 559 745 Q 568 728 571 702 L 573 690 Q 576 675 576 645 L 576 633 L 576 591 L 576 521 L 576 478 L 576 398 C 576 368 631 374 632 404 Z" fill="lightgray"></path>
				<path d="M 627 369 Q 686 376 709 378 L 748 380 L 812 382 L 948 380 Q 963 380 964.5 383 Q 966 386 969 388 Q 983 399 949 421 L 921 436 Q 900 445 853 436 L 825 427 Q 799 427 787 423 L 723 416 L 632 404 L 576 398 L 551 396 Q 550 395 526 392 L 455 384 Q 379 376 354 376 L 318 374 Q 303 374 302 367 Q 300 361 308 353 Q 316 345 329 341 L 371 326 Q 388 324 392 324.5 Q 396 325 436.5 337 Q 477 349 548 360 L 627 369 Z" fill="lightgray"></path>
				<path d="M 443 18 Q 425 -45 422 -91 Q 422 -102 430 -115 Q 437 -128 439 -130 Q 451 -153 457 -148 Q 472 -136 487 -61 L 492 48 L 494 66 L 496 106 Q 497 111 498 133 L 499 163 L 501 202 Q 501 226 498 247 C 495 277 512 275 503 278 L 464 289 Q 447 292 439 289 Q 427 289 436 274 Q 445 259 447 243 Q 467 175 443 18 Z" fill="lightgray"></path>
				<path d="M 745 65 L 739 -29 Q 736 -73 722 -83 Q 710 -89 683 -82 L 666 -78 L 649 -72 Q 633 -68 630 -72 Q 626 -75 638 -83 L 656 -99 L 669 -109 Q 670 -110 677 -116 Q 684 -122 693 -135 Q 702 -147 709 -161 Q 716 -175 722 -177 Q 729 -179 744 -171 Q 758 -162 771 -145 Q 797 -107 795 -36 L 794 32 L 795 198 Q 795 224 798 234 Q 800 244 810 254 Q 819 263 820 268 Q 820 273 813 282 Q 806 291 786 304 Q 766 316 762 319 L 752 324 Q 748 324 731 317 Q 713 310 691 307 L 651 300 L 503 278 C 473 274 468 243 498 247 L 552 254 L 708 272 Q 728 276 735 267 Q 741 258 742 245 L 743 187 L 745 165 L 745 89 L 745 65 Z" fill="lightgray"></path>
				<path d="M 498 133 L 533 133 Q 556 134 633 146 L 745 165 C 775 170 772 181 743 187 L 727 190 L 710 196 Q 692 199 667 191 Q 641 183 623 180 L 549 169 Q 507 164 499 163 C 469 159 468 133 498 133 Z" fill="lightgray"></path>
				<path d="M 492 48 L 516 42 Q 535 38 542 38 Q 549 37 577 42 L 722 64 Q 730 65 745 65 C 775 65 774 84 745 89 L 718 94 Q 702 97 662 91 L 560 74 Q 556 74 494 66 C 464 62 463 55 492 48 Z" fill="lightgray"></path>
</g>
		<text x="40" y="140" font-size="128" fill="#999999">5</text></g>
</g>
	<g id="id1:id1" transform="translate(0.0,1024)">
		<g id="id1:id0:id0" transform="matrix(1.0,0,0,1.0,0,0.0)">			<g stroke="lightgray" stroke-width="4" transform="scale(4, 4)"> <rect x="0" y="0" width="256" height="256" fill="white" stroke-width="4"/></g>
			<g transform="scale(0.92, -0.92) translate(60, -920)">					<path d="M 336 573 Q 336 616 284 629 Q 269 633 253.5 637.5 Q 238 642 237 642 L 211 646 Q 202 648 200 644 Q 198 640 208 624 L 221 606 L 253 565 Q 286 532 309 535 Q 333 535 336 573 Z" fill="black"></path>
				<path d="M 118 392 Q 133 371 153 351 Q 201 303 231 318 Q 246 333 246 358 Q 246 383 219 400 Q 198 410 177 417 Q 145 425 140 426 L 114 430 Q 100 431 98.5 425.5 Q 97 420 100 416 L 118 392 Z" fill="black"></path>
				<path d="M 281 214 Q 274 199 259 174 L 230 128 Q 220 114 214 105 L 191 79 Q 182 68 160.5 54 Q 139 40 136 34 Q 132 30 130.5 13.5 Q 129 -3 141 -32 Q 152 -54 158 -71 Q 168 -86 182 -86 Q 193 -82 203 -53 L 215 -26 L 233 27 Q 245 51 261 89 L 292 162 L 316 223 L 327 258 Q 331 264 323 272 Q 316 276 311 266 L 297 240 L 281 214 Z" fill="black"></path>
				<path d="M 638 598 L 715 608 Q 736 610 761 615 L 797 625 Q 809 626 812 631 L 814 639 Q 814 646 794 655.5 Q 774 665 766 667 Q 747 669 743 668 L 679 652 L 639 644 L 576 633 L 545 629 L 483 623 Q 450 618 447 618 L 420 615 Q 412 614 410.5 612 Q 409 610 413.5 602.5 Q 418 595 431 587 Q 444 579 460.5 579 Q 477 579 505 581 L 576 591 L 638 598 Z" fill="black"></path>
				<path d="M 634 486 L 739 504 Q 782 510 786 517 Q 790 524 789 530 Q 789 537 763 541 L 744 547 Q 724 549 720 548 L 694 543 Q 674 538 664 537 L 636 531 L 576 521 L 550 516 Q 533 512 519 510 L 473 505 L 450 501 Q 442 501 440 496 Q 438 491 445 484 Q 452 477 466 474 Q 489 464 537 472 L 576 478 L 634 486 Z" fill="black"></path>
				<path d="M 632 404 L 634 486 L 636 531 L 638 598 L 639 644 L 640 663 Q 640 666 644 690 Q 648 714 654 726 Q 659 738 658 746 Q 655 758 624 770 L 601 777 Q 550 790 550 766 Q 550 762 559 745 Q 568 728 571 702 L 573 690 Q 576 675 576 645 L 576 633 L 576 591 L 576 521 L 576 478 L 576 398 C 576 368 631 374 632 404 Z" fill="red"></path>
				<path d="M 627 369 Q 686 376 709 378 L 748 380 L 812 382 L 948 380 Q 963 380 964.5 383 Q 966 386 969 388 Q 983 399 949 421 L 921 436 Q 900 445 853 436 L 825 427 Q 799 427 787 423 L 723 416 L 632 404 L 576 398 L 551 396 Q 550 395 526 392 L 455 384 Q 379 376 354 376 L 318 374 Q 303 374 302 367 Q 300 361 308 353 Q 316 345 329 341 L 371 326 Q 388 324 392 324.5 Q 396 325 436.5 337 Q 477 349 548 360 L 627 369 Z" fill="lightgray"></path>
				<path d="M 443 18 Q 425 -45 422 -91 Q 422 -102 430 -115 Q 437 -128 439 -130 Q 451 -153 457 -148 Q 472 -136 487 -61 L 492 48 L 494 66 L 496 106 Q 497 111 498 133 L 499 163 L 501 202 Q 501 226 498 247 C 495 277 512 275 503 278 L 464 289 Q 447 292 439 289 Q 427 289 436 274 Q 445 259 447 243 Q 467 175 443 18 Z" fill="lightgray"></path>
				<path d="M 745 65 L 739 -29 Q 736 -73 722 -83 Q 710 -89 683 -82 L 666 -78 L 649 -72 Q 633 -68 630 -72 Q 626 -75 638 -83 L 656 -99 L 669 -109 Q 670 -110 677 -116 Q 684 -122 693 -135 Q 702 -147 709 -161 Q 716 -175 722 -177 Q 729 -179 744 -171 Q 758 -162 771 -145 Q 797 -107 795 -36 L 794 32 L 795 198 Q 795 224 798 234 Q 800 244 810 254 Q 819 263 820 268 Q 820 273 813 282 Q 806 291 786 304 Q 766 316 762 319 L 752 324 Q 748 324 731 317 Q 713 310 691 307 L 651 300 L 503 278 C 473 274 468 243 498 247 L 552 254 L 708 272 Q 728 276 735 267 Q 741 258 742 245 L 743 187 L 745 165 L 745 89 L 745 65 Z" fill="lightgray"></path>
				<path d="M 498 133 L 533 133 Q 556 134 633 146 L 745 165 C 775 170 772 181 743 187 L 727 190 L 710 196 Q 692 199 667 191 Q 641 183 623 180 L 549 169 Q 507 164 499 163 C 469 159 468 133 498 133 Z" fill="lightgray"></path>
				<path d="M 492 48 L 516 42 Q 535 38 542 38 Q 549 37 577 42 L 722 64 Q 730 65 745 65 C 775 65 774 84 745 89 L 718 94 Q 702 97 662 91 L 560 74 Q 556 74 494 66 C 464 62 463 55 492 48 Z" fill="lightgray"></path>
</g>
		<text x="40" y="140" font-size="128" fill="#999999">6</text></g>
		<g id="id1:id1:id1" transform="matrix(1.0,0,0,1.0,1024,0.0)">			<g stroke="lightgray" stroke-width="4" transform="scale(4, 4)"> <rect x="0" y="0" width="256" height="256" fill="white" stroke-width="4"/></g>
			<g transform="scale(0.92, -0.92) translate(60, -920)">					<path d="M 336 573 Q 336 616 284 629 Q 269 633 253.5 637.5 Q 238 642 237 642 L 211 646 Q 202 648 200 644 Q 198 640 208 624 L 221 606 L 253 565 Q 286 532 309 535 Q 333 535 336 573 Z" fill="black"></path>
				<path d="M 118 392 Q 133 371 153 351 Q 201 303 231 318 Q 246 333 246 358 Q 246 383 219 400 Q 198 410 177 417 Q 145 425 140 426 L 114 430 Q 100 431 98.5 425.5 Q 97 420 100 416 L 118 392 Z" fill="black"></path>
				<path d="M 281 214 Q 274 199 259 174 L 230 128 Q 220 114 214 105 L 191 79 Q 182 68 160.5 54 Q 139 40 136 34 Q 132 30 130.5 13.5 Q 129 -3 141 -32 Q 152 -54 158 -71 Q 168 -86 182 -86 Q 193 -82 203 -53 L 215 -26 L 233 27 Q 245 51 261 89 L 292 162 L 316 223 L 327 258 Q 331 264 323 272 Q 316 276 311 266 L 297 240 L 281 214 Z" fill="black"></path>
				<path d="M 638 598 L 715 608 Q 736 610 761 615 L 797 625 Q 809 626 812 631 L 814 639 Q 814 646 794 655.5 Q 774 665 766 667 Q 747 669 743 668 L 679 652 L 639 644 L 576 633 L 545 629 L 483 623 Q 450 618 447 618 L 420 615 Q 412 614 410.5 612 Q 409 610 413.5 602.5 Q 418 595 431 587 Q 444 579 460.5 579 Q 477 579 505 581 L 576 591 L 638 598 Z" fill="black"></path>
				<path d="M 634 486 L 739 504 Q 782 510 786 517 Q 790 524 789 530 Q 789 537 763 541 L 744 547 Q 724 549 720 548 L 694 543 Q 674 538 664 537 L 636 531 L 576 521 L 550 516 Q 533 512 519 510 L 473 505 L 450 501 Q 442 501 440 496 Q 438 491 445 484 Q 452 477 466 474 Q 489 464 537 472 L 576 478 L 634 486 Z" fill="black"></path>
				<path d="M 632 404 L 634 486 L 636 531 L 638 598 L 639 644 L 640 663 Q 640 666 644 690 Q 648 714 654 726 Q 659 738 658 746 Q 655 758 624 770 L 601 777 Q 550 790 550 766 Q 550 762 559 745 Q 568 728 571 702 L 573 690 Q 576 675 576 645 L 576 633 L 576 591 L 576 521 L 576 478 L 576 398 C 576 368 631 374 632 404 Z" fill="black"></path>
				<path d="M 627 369 Q 686 376 709 378 L 748 380 L 812 382 L 948 380 Q 963 380 964.5 383 Q 966 386 969 388 Q 983 399 949 421 L 921 436 Q 900 445 853 436 L 825 427 Q 799 427 787 423 L 723 416 L 632 404 L 576 398 L 551 396 Q 550 395 526 392 L 455 384 Q 379 376 354 376 L 318 374 Q 303 374 302 367 Q 300 361 308 353 Q 316 345 329 341 L 371 326 Q 388 324 392 324.5 Q 396 325 436.5 337 Q 477 349 548 360 L 627 369 Z" fill="red"></path>
				<path d="M 443 18 Q 425 -45 422 -91 Q 422 -102 430 -115 Q 437 -128 439 -130 Q 451 -153 457 -148 Q 472 -136 487 -61 L 492 48 L 494 66 L 496 106 Q 497 111 498 133 L 499 163 L 501 202 Q 501 226 498 247 C 495 277 512 275 503 278 L 464 289 Q 447 292 439 289 Q 427 289 436 274 Q 445 259 447 243 Q 467 175 443 18 Z" fill="lightgray"></path>
				<path d="M 745 65 L 739 -29 Q 736 -73 722 -83 Q 710 -89 683 -82 L 666 -78 L 649 -72 Q 633 -68 630 -72 Q 626 -75 638 -83 L 656 -99 L 669 -109 Q 670 -110 677 -116 Q 684 -122 693 -135 Q 702 -147 709 -161 Q 716 -175 722 -177 Q 729 -179 744 -171 Q 758 -162 771 -145 Q 797 -107 795 -36 L 794 32 L 795 198 Q 795 224 798 234 Q 800 244 810 254 Q 819 263 820 268 Q 820 273 813 282 Q 806 291 786 304 Q 766 316 762 319 L 752 324 Q 748 324 731 317 Q 713 310 691 307 L 651 300 L 503 278 C 473 274 468 243 498 247 L 552 254 L 708 272 Q 728 276 735 267 Q 741 258 742 245 L 743 187 L 745 165 L 745 89 L 745 65 Z" fill="lightgray"></path>
				<path d="M 498 133 L 533 133 Q 556 134 633 146 L 745 165 C 775 170 772 181 743 187 L 727 190 L 710 196 Q 692 199 667 191 Q 641 183 623 180 L 549 169 Q 507 164 499 163 C 469 159 468 133 498 133 Z" fill="lightgray"></path>
				<path d="M 492 48 L 516 42 Q 535 38 542 38 Q 549 37 577 42 L 722 64 Q 730 65 745 65 C 775 65 774 84 745 89 L 718 94 Q 702 97 662 91 L 560 74 Q 556 74 494 66 C 464 62 463 55 492 48 Z" fill="lightgray"></path>
</g>
		<text x="40" y="140" font-size="128" fill="#999999">7</text></g>
		<g id="id1:id2:id2" transform="matrix(1.0,0,0,1.0,2048,0.0)">			<g stroke="lightgray" stroke-width="4" transform="scale(4, 4)"> <rect x="0" y="0" width="256" height="256" fill="white" stroke-width="4"/></g>
			<g transform="scale(0.92, -0.92) translate(60, -920)">					<path d="M 336 573 Q 336 616 284 629 Q 269 633 253.5 637.5 Q 238 642 237 642 L 211 646 Q 202 648 200 644 Q 198 640 208 624 L 221 606 L 253 565 Q 286 532 309 535 Q 333 535 336 573 Z" fill="black"></path>
				<path d="M 118 392 Q 133 371 153 351 Q 201 303 231 318 Q 246 333 246 358 Q 246 383 219 400 Q 198 410 177 417 Q 145 425 140 426 L 114 430 Q 100 431 98.5 425.5 Q 97 420 100 416 L 118 392 Z" fill="black"></path>
				<path d="M 281 214 Q 274 199 259 174 L 230 128 Q 220 114 214 105 L 191 79 Q 182 68 160.5 54 Q 139 40 136 34 Q 132 30 130.5 13.5 Q 129 -3 141 -32 Q 152 -54 158 -71 Q 168 -86 182 -86 Q 193 -82 203 -53 L 215 -26 L 233 27 Q 245 51 261 89 L 292 162 L 316 223 L 327 258 Q 331 264 323 272 Q 316 276 311 266 L 297 240 L 281 214 Z" fill="black"></path>
				<path d="M 638 598 L 715 608 Q 736 610 761 615 L 797 625 Q 809 626 812 631 L 814 639 Q 814 646 794 655.5 Q 774 665 766 667 Q 747 669 743 668 L 679 652 L 639 644 L 576 633 L 545 629 L 483 623 Q 450 618 447 618 L 420 615 Q 412 614 410.5 612 Q 409 610 413.5 602.5 Q 418 595 431 587 Q 444 579 460.5 579 Q 477 579 505 581 L 576 591 L 638 598 Z" fill="black"></path>
				<path d="M 634 486 L 739 504 Q 782 510 786 517 Q 790 524 789 530 Q 789 537 763 541 L 744 547 Q 724 549 720 548 L 694 543 Q 674 538 664 537 L 636 531 L 576 521 L 550 516 Q 533 512 519 510 L 473 505 L 450 501 Q 442 501 440 496 Q 438 491 445 484 Q 452 477 466 474 Q 489 464 537 472 L 576 478 L 634 486 Z" fill="black"></path>
				<path d="M 632 404 L 634 486 L 636 531 L 638 598 L 639 644 L 640 663 Q 640 666 644 690 Q 648 714 654 726 Q 659 738 658 746 Q 655 758 624 770 L 601 777 Q 550 790 550 766 Q 550 762 559 745 Q 568 728 571 702 L 573 690 Q 576 675 576 645 L 576 633 L 576 591 L 576 521 L 576 478 L 576 398 C 576 368 631 374 632 404 Z" fill="black"></path>
				<path d="M 627 369 Q 686 376 709 378 L 748 380 L 812 382 L 948 380 Q 963 380 964.5 383 Q 966 386 969 388 Q 983 399 949 421 L 921 436 Q 900 445 853 436 L 825 427 Q 799 427 787 423 L 723 416 L 632 404 L 576 398 L 551 396 Q 550 395 526 392 L 455 384 Q 379 376 354 376 L 318 374 Q 303 374 302 367 Q 300 361 308 353 Q 316 345 329 341 L 371 326 Q 388 324 392 324.5 Q 396 325 436.5 337 Q 477 349 548 360 L 627 369 Z" fill="black"></path>
				<path d="M 443 18 Q 425 -45 422 -91 Q 422 -102 430 -115 Q 437 -128 439 -130 Q 451 -153 457 -148 Q 472 -136 487 -61 L 492 48 L 494 66 L 496 106 Q 497 111 498 133 L 499 163 L 501 202 Q 501 226 498 247 C 495 277 512 275 503 278 L 464 289 Q 447 292 439 289 Q 427 289 436 274 Q 445 259 447 243 Q 467 175 443 18 Z" fill="red"></path>
				<path d="M 745 65 L 739 -29 Q 736 -73 722 -83 Q 710 -89 683 -82 L 666 -78 L 649 -72 Q 633 -68 630 -72 Q 626 -75 638 -83 L 656 -99 L 669 -109 Q 670 -110 677 -116 Q 684 -122 693 -135 Q 702 -147 709 -161 Q 716 -175 722 -177 Q 729 -179 744 -171 Q 758 -162 771 -145 Q 797 -107 795 -36 L 794 32 L 795 198 Q 795 224 798 234 Q 800 244 810 254 Q 819 263 820 268 Q 820 273 813 282 Q 806 291 786 304 Q 766 316 762 319 L 752 324 Q 748 324 731 317 Q 713 310 691 307 L 651 300 L 503 278 C 473 274 468 243 498 247 L 552 254 L 708 272 Q 728 276 735 267 Q 741 258 742 245 L 743 187 L 745 165 L 745 89 L 745 65 Z" fill="lightgray"></path>
				<path d="M 498 133 L 533 133 Q 556 134 633 146 L 745 165 C 775 170 772 181 743 187 L 727 190 L 710 196 Q 692 199 667 191 Q 641 183 623 180 L 549 169 Q 507 164 499 163 C 469 159 468 133 498 133 Z" fill="lightgray"></path>
				<path d="M 492 48 L 516 42 Q 535 38 542 38 Q 549 37 577 42 L 722 64 Q 730 65 745 65 C 775 65 774 84 745 89 L 718 94 Q 702 97 662 91 L 560 74 Q 556 74 494 66 C 464 62 463 55 492 48 Z" fill="lightgray"></path>
</g>
		<text x="40" y="140" font-size="128" fill="#999999">8</text></g>
		<g id="id1:id3:id3" transform="matrix(1.0,0,0,1.0,3072,0.0)">			<g stroke="lightgray" stroke-width="4" transform="scale(4, 4)"> <rect x="0" y="0" width="256" height="256" fill="white" stroke-width="4"/></g>
			<g transform="scale(0.92, -0.92) translate(60, -920)">					<path d="M 336 573 Q 336 616 284 629 Q 269 633 253.5 637.5 Q 238 642 237 642 L 211 646 Q 202 648 200 644 Q 198 640 208 624 L 221 606 L 253 565 Q 286 532 309 535 Q 333 535 336 573 Z" fill="black"></path>
				<path d="M 118 392 Q 133 371 153 351 Q 201 303 231 318 Q 246 333 246 358 Q 246 383 219 400 Q 198 410 177 417 Q 145 425 140 426 L 114 430 Q 100 431 98.5 425.5 Q 97 420 100 416 L 118 392 Z" fill="black"></path>
				<path d="M 281 214 Q 274 199 259 174 L 230 128 Q 220 114 214 105 L 191 79 Q 182 68 160.5 54 Q 139 40 136 34 Q 132 30 130.5 13.5 Q 129 -3 141 -32 Q 152 -54 158 -71 Q 168 -86 182 -86 Q 193 -82 203 -53 L 215 -26 L 233 27 Q 245 51 261 89 L 292 162 L 316 223 L 327 258 Q 331 264 323 272 Q 316 276 311 266 L 297 240 L 281 214 Z" fill="black"></path>
				<path d="M 638 598 L 715 608 Q 736 610 761 615 L 797 625 Q 809 626 812 631 L 814 639 Q 814 646 794 655.5 Q 774 665 766 667 Q 747 669 743 668 L 679 652 L 639 644 L 576 633 L 545 629 L 483 623 Q 450 618 447 618 L 420 615 Q 412 614 410.5 612 Q 409 610 413.5 602.5 Q 418 595 431 587 Q 444 579 460.5 579 Q 477 579 505 581 L 576 591 L 638 598 Z" fill="black"></path>
				<path d="M 634 486 L 739 504 Q 782 510 786 517 Q 790 524 789 530 Q 789 537 763 541 L 744 547 Q 724 549 720 548 L 694 543 Q 674 538 664 537 L 636 531 L 576 521 L 550 516 Q 533 512 519 510 L 473 505 L 450 501 Q 442 501 440 496 Q 438 491 445 484 Q 452 477 466 474 Q 489 464 537 472 L 576 478 L 634 486 Z" fill="black"></path>
				<path d="M 632 404 L 634 486 L 636 531 L 638 598 L 639 644 L 640 663 Q 640 666 644 690 Q 648 714 654 726 Q 659 738 658 746 Q 655 758 624 770 L 601 777 Q 550 790 550 766 Q 550 762 559 745 Q 568 728 571 702 L 573 690 Q 576 675 576 645 L 576 633 L 576 591 L 576 521 L 576 478 L 576 398 C 576 368 631 374 632 404 Z" fill="black"></path>
				<path d="M 627 369 Q 686 376 709 378 L 748 380 L 812 382 L 948 380 Q 963 380 964.5 383 Q 966 386 969 388 Q 983 399 949 421 L 921 436 Q 900 445 853 436 L 825 427 Q 799 427 787 423 L 723 416 L 632 404 L 576 398 L 551 396 Q 550 395 526 392 L 455 384 Q 379 376 354 376 L 318 374 Q 303 374 302 367 Q 300 361 308 353 Q 316 345 329 341 L 371 326 Q 388 324 392 324.5 Q 396 325 436.5 337 Q 477 349 548 360 L 627 369 Z" fill="black"></path>
				<path d="M 443 18 Q 425 -45 422 -91 Q 422 -102 430 -115 Q 437 -128 439 -130 Q 451 -153 457 -148 Q 472 -136 487 -61 L 492 48 L 494 66 L 496 106 Q 497 111 498 133 L 499 163 L 501 202 Q 501 226 498 247 C 495 277 512 275 503 278 L 464 289 Q 447 292 439 289 Q 427 289 436 274 Q 445 259 447 243 Q 467 175 443 18 Z" fill="black"></path>
				<path d="M 745 65 L 739 -29 Q 736 -73 722 -83 Q 710 -89 683 -82 L 666 -78 L 649 -72 Q 633 -68 630 -72 Q 626 -75 638 -83 L 656 -99 L 669 -109 Q 670 -110 677 -116 Q 684 -122 693 -135 Q 702 -147 709 -161 Q 716 -175 722 -177 Q 729 -179 744 -171 Q 758 -162 771 -145 Q 797 -107 795 -36 L 794 32 L 795 198 Q 795 224 798 234 Q 800 244 810 254 Q 819 263 820 268 Q 820 273 813 282 Q 806 291 786 304 Q 766 316 762 319 L 752 324 Q 748 324 731 317 Q 713 310 691 307 L 651 300 L 503 278 C 473 274 468 243 498 247 L 552 254 L 708 272 Q 728 276 735 267 Q 741 258 742 245 L 743 187 L 745 165 L 745 89 L 745 65 Z" fill="red"></path>
				<path d="M 498 133 L 533 133 Q 556 134 633 146 L 745 165 C 775 170 772 181 743 187 L 727 190 L 710 196 Q 692 199 667 191 Q 641 183 623 180 L 549 169 Q 507 164 499 163 C 469 159 468 133 498 133 Z" fill="lightgray"></path>
				<path d="M 492 48 L 516 42 Q 535 38 542 38 Q 549 37 577 42 L 722 64 Q 730 65 745 65 C 775 65 774 84 745 89 L 718 94 Q 702 97 662 91 L 560 74 Q 556 74 494 66 C 464 62 463 55 492 48 Z" fill="lightgray"></path>
</g>
		<text x="40" y="140" font-size="128" fill="#999999">9</text></g>
		<g id="id1:id4:id4" transform="matrix(1.0,0,0,1.0,4096,0.0)">			<g stroke="lightgray" stroke-width="4" transform="scale(4, 4)"> <rect x="0" y="0" width="256" height="256" fill="white" stroke-width="4"/></g>
			<g transform="scale(0.92, -0.92) translate(60, -920)">					<path d="M 336 573 Q 336 616 284 629 Q 269 633 253.5 637.5 Q 238 642 237 642 L 211 646 Q 202 648 200 644 Q 198 640 208 624 L 221 606 L 253 565 Q 286 532 309 535 Q 333 535 336 573 Z" fill="black"></path>
				<path d="M 118 392 Q 133 371 153 351 Q 201 303 231 318 Q 246 333 246 358 Q 246 383 219 400 Q 198 410 177 417 Q 145 425 140 426 L 114 430 Q 100 431 98.5 425.5 Q 97 420 100 416 L 118 392 Z" fill="black"></path>
				<path d="M 281 214 Q 274 199 259 174 L 230 128 Q 220 114 214 105 L 191 79 Q 182 68 160.5 54 Q 139 40 136 34 Q 132 30 130.5 13.5 Q 129 -3 141 -32 Q 152 -54 158 -71 Q 168 -86 182 -86 Q 193 -82 203 -53 L 215 -26 L 233 27 Q 245 51 261 89 L 292 162 L 316 223 L 327 258 Q 331 264 323 272 Q 316 276 311 266 L 297 240 L 281 214 Z" fill="black"></path>
				<path d="M 638 598 L 715 608 Q 736 610 761 615 L 797 625 Q 809 626 812 631 L 814 639 Q 814 646 794 655.5 Q 774 665 766 667 Q 747 669 743 668 L 679 652 L 639 644 L 576 633 L 545 629 L 483 623 Q 450 618 447 618 L 420 615 Q 412 614 410.5 612 Q 409 610 413.5 602.5 Q 418 595 431 587 Q 444 579 460.5 579 Q 477 579 505 581 L 576 591 L 638 598 Z" fill="black"></path>
				<path d="M 634 486 L 739 504 Q 782 510 786 517 Q 790 524 789 530 Q 789 537 763 541 L 744 547 Q 724 549 720 548 L 694 543 Q 674 538 664 537 L 636 531 L 576 521 L 550 516 Q 533 512 519 510 L 473 505 L 450 501 Q 442 501 440 496 Q 438 491 445 484 Q 452 477 466 474 Q 489 464 537 472 L 576 478 L 634 486 Z" fill="black"></path>
				<path d="M 632 404 L 634 486 L 636 531 L 638 598 L 639 644 L 640 663 Q 640 666 644 690 Q 648 714 654 726 Q 659 738 658 746 Q 655 758 624 770 L 601 777 Q 550 790 550 766 Q 550 762 559 745 Q 568 728 571 702 L 573 690 Q 576 675 576 645 L 576 633 L 576 591 L 576 521 L 576 478 L 576 398 C 576 368 631 374 632 404 Z" fill="black"></path>
				<path d="M 627 369 Q 686 376 709 378 L 748 380 L 812 382 L 948 380 Q 963 380 964.5 383 Q 966 386 969 388 Q 983 399 949 421 L 921 436 Q 900 445 853 436 L 825 427 Q 799 427 787 423 L 723 416 L 632 404 L 576 398 L 551 396 Q 550 395 526 392 L 455 384 Q 379 376 354 376 L 318 374 Q 303 374 302 367 Q 300 361 308 353 Q 316 345 329 341 L 371 326 Q 388 324 392 324.5 Q 396 325 436.5 337 Q 477 349 548 360 L 627 369 Z" fill="black"></path>
				<path d="M 443 18 Q 425 -45 422 -91 Q 422 -102 430 -115 Q 437 -128 439 -130 Q 451 -153 457 -148 Q 472 -136 487 -61 L 492 48 L 494 66 L 496 106 Q 497 111 498 133 L 499 163 L 501 202 Q 501 226 498 247 C 495 277 512 275 503 278 L 464 289 Q 447 292 439 289 Q 427 289 436 274 Q 445 259 447 243 Q 467 175 443 18 Z" fill="black"></path>
				<path d="M 745 65 L 739 -29 Q 736 -73 722 -83 Q 710 -89 683 -82 L 666 -78 L 649 -72 Q 633 -68 630 -72 Q 626 -75 638 -83 L 656 -99 L 669 -109 Q 670 -110 677 -116 Q 684 -122 693 -135 Q 702 -147 709 -161 Q 716 -175 722 -177 Q 729 -179 744 -171 Q 758 -162 771 -145 Q 797 -107 795 -36 L 794 32 L 795 198 Q 795 224 798 234 Q 800 244 810 254 Q 819 263 820 268 Q 820 273 813 282 Q 806 291 786 304 Q 766 316 762 319 L 752 324 Q 748 324 731 317 Q 713 310 691 307 L 651 300 L 503 278 C 473 274 468 243 498 247 L 552 254 L 708 272 Q 728 276 735 267 Q 741 258 742 245 L 743 187 L 745 165 L 745 89 L 745 65 Z" fill="black"></path>
				<path d="M 498 133 L 533 133 Q 556 134 633 146 L 745 165 C 775 170 772 181 743 187 L 727 190 L 710 196 Q 692 199 667 191 Q 641 183 623 180 L 549 169 Q 507 164 499 163 C 469 159 468 133 498 133 Z" fill="red"></path>
				<path d="M 492 48 L 516 42 Q 535 38 542 38 Q 549 37 577 42 L 722 64 Q 730 65 745 65 C 775 65 774 84 745 89 L 718 94 Q 702 97 662 91 L 560 74 Q 556 74 494 66 C 464 62 463 55 492 48 Z" fill="lightgray"></path>
</g>
		<text x="40" y="140" font-size="128" fill="#999999">10</text></g>
</g>
	<g id="id2:id2" transform="translate(0.0,2048)">
		<g id="id2:id0:id0" transform="matrix(1.0,0,0,1.0,0,0.0)">			<g stroke="lightgray" stroke-width="4" transform="scale(4, 4)"> <rect x="0" y="0" width="256" height="256" fill="white" stroke-width="4"/></g>
			<g transform="scale(0.92, -0.92) translate(60, -920)">					<path d="M 336 573 Q 336 616 284 629 Q 269 633 253.5 637.5 Q 238 642 237 642 L 211 646 Q 202 648 200 644 Q 198 640 208 624 L 221 606 L 253 565 Q 286 532 309 535 Q 333 535 336 573 Z" fill="black"></path>
				<path d="M 118 392 Q 133 371 153 351 Q 201 303 231 318 Q 246 333 246 358 Q 246 383 219 400 Q 198 410 177 417 Q 145 425 140 426 L 114 430 Q 100 431 98.5 425.5 Q 97 420 100 416 L 118 392 Z" fill="black"></path>
				<path d="M 281 214 Q 274 199 259 174 L 230 128 Q 220 114 214 105 L 191 79 Q 182 68 160.5 54 Q 139 40 136 34 Q 132 30 130.5 13.5 Q 129 -3 141 -32 Q 152 -54 158 -71 Q 168 -86 182 -86 Q 193 -82 203 -53 L 215 -26 L 233 27 Q 245 51 261 89 L 292 162 L 316 223 L 327 258 Q 331 264 323 272 Q 316 276 311 266 L 297 240 L 281 214 Z" fill="black"></path>
				<path d="M 638 598 L 715 608 Q 736 610 761 615 L 797 625 Q 809 626 812 631 L 814 639 Q 814 646 794 655.5 Q 774 665 766 667 Q 747 669 743 668 L 679 652 L 639 644 L 576 633 L 545 629 L 483 623 Q 450 618 447 618 L 420 615 Q 412 614 410.5 612 Q 409 610 413.5 602.5 Q 418 595 431 587 Q 444 579 460.5 579 Q 477 579 505 581 L 576 591 L 638 598 Z" fill="black"></path>
				<path d="M 634 486 L 739 504 Q 782 510 786 517 Q 790 524 789 530 Q 789 537 763 541 L 744 547 Q 724 549 720 548 L 694 543 Q 674 538 664 537 L 636 531 L 576 521 L 550 516 Q 533 512 519 510 L 473 505 L 450 501 Q 442 501 440 496 Q 438 491 445 484 Q 452 477 466 474 Q 489 464 537 472 L 576 478 L 634 486 Z" fill="black"></path>
				<path d="M 632 404 L 634 486 L 636 531 L 638 598 L 639 644 L 640 663 Q 640 666 644 690 Q 648 714 654 726 Q 659 738 658 746 Q 655 758 624 770 L 601 777 Q 550 790 550 766 Q 550 762 559 745 Q 568 728 571 702 L 573 690 Q 576 675 576 645 L 576 633 L 576 591 L 576 521 L 576 478 L 576 398 C 576 368 631 374 632 404 Z" fill="black"></path>
				<path d="M 627 369 Q 686 376 709 378 L 748 380 L 812 382 L 948 380 Q 963 380 964.5 383 Q 966 386 969 388 Q 983 399 949 421 L 921 436 Q 900 445 853 436 L 825 427 Q 799 427 787 423 L 723 416 L 632 404 L 576 398 L 551 396 Q 550 395 526 392 L 455 384 Q 379 376 354 376 L 318 374 Q 303 374 302 367 Q 300 361 308 353 Q 316 345 329 341 L 371 326 Q 388 324 392 324.5 Q 396 325 436.5 337 Q 477 349 548 360 L 627 369 Z" fill="black"></path>
				<path d="M 443 18 Q 425 -45 422 -91 Q 422 -102 430 -115 Q 437 -128 439 -130 Q 451 -153 457 -148 Q 472 -136 487 -61 L 492 48 L 494 66 L 496 106 Q 497 111 498 133 L 499 163 L 501 202 Q 501 226 498 247 C 495 277 512 275 503 278 L 464 289 Q 447 292 439 289 Q 427 289 436 274 Q 445 259 447 243 Q 467 175 443 18 Z" fill="black"></path>
				<path d="M 745 65 L 739 -29 Q 736 -73 722 -83 Q 710 -89 683 -82 L 666 -78 L 649 -72 Q 633 -68 630 -72 Q 626 -75 638 -83 L 656 -99 L 669 -109 Q 670 -110 677 -116 Q 684 -122 693 -135 Q 702 -147 709 -161 Q 716 -175 722 -177 Q 729 -179 744 -171 Q 758 -162 771 -145 Q 797 -107 795 -36 L 794 32 L 795 198 Q 795 224 798 234 Q 800 244 810 254 Q 819 263 820 268 Q 820 273 813 282 Q 806 291 786 304 Q 766 316 762 319 L 752 324 Q 748 324 731 317 Q 713 310 691 307 L 651 300 L 503 278 C 473 274 468 243 498 247 L 552 254 L 708 272 Q 728 276 735 267 Q 741 258 742 245 L 743 187 L 745 165 L 745 89 L 745 65 Z" fill="black"></path>
				<path d="M 498 133 L 533 133 Q 556 134 633 146 L 745 165 C 775 170 772 181 743 187 L 727 190 L 710 196 Q 692 199 667 191 Q 641 183 623 180 L 549 169 Q 507 164 499 163 C 469 159 468 133 498 133 Z" fill="black"></path>
				<path d="M 492 48 L 516 42 Q 535 38 542 38 Q 549 37 577 42 L 722 64 Q 730 65 745 65 C 775 65 774 84 745 89 L 718 94 Q 702 97 662 91 L 560 74 Q 556 74 494 66 C 464 62 463 55 492 48 Z" fill="red"></path>
</g>
		<text x="40" y="140" font-size="128" fill="#999999">11</text></g>
		<g id="id2:id1:id1" transform="matrix(1.0,0,0,1.0,1024,0.0)">			<g stroke="white" stroke-width="4" transform="scale(4, 4)"> <rect x="1" y="1" width="255" height="255" fill="white" stroke-width="0"/></g>
</g>
		<g id="id2:id2:id2" transform="matrix(1.0,0,0,1.0,2048,0.0)">			<g stroke="white" stroke-width="4" transform="scale(4, 4)"> <rect x="1" y="1" width="255" height="255" fill="white" stroke-width="0"/></g>
</g>
		<g id="id2:id3:id3" transform="matrix(1.0,0,0,1.0,3072,0.0)">			<g stroke="white" stroke-width="4" transform="scale(4, 4)"> <rect x="1" y="1" width="255" height="255" fill="white" stroke-width="0"/></g>
</g>
		<g id="id2:id4:id4" transform="matrix(1.0,0,0,1.0,4096,0.0)">			<g stroke="white" stroke-width="4" transform="scale(4, 4)"> <rect x="1" y="1" width="255" height="255" fill="white" stroke-width="0"/></g>
</g>
</g>
</svg>
