<?xml version="1.0" standalone="no"?>
<!DOCTYPE svg PUBLIC "-//W3C//DTD SVG 1.1//EN"
 "http://www.w3.org/Graphics/SVG/1.1/DTD/svg11.dtd">
<!-- generate by Japanese dictionary app com.asnsami.kanjidictionary -->

<svg xmlns="http://www.w3.org/2000/svg" xmlns:sodipodi="http://sodipodi.sourceforge.net/DTD/sodipodi-0.dtd" version="1.1" width="640" height="384" viewBox="0 0 5120 3072">
	<g id="id0:id0" transform="translate(0.0,0)">
		<g id="id0:id0:id0" transform="matrix(1.0,0,0,1.0,0,0.0)">			<g stroke="lightgray" stroke-width="4" transform="scale(4, 4)"> <rect x="0" y="0" width="256" height="256" fill="white" stroke-width="4"/></g>
			<g transform="scale(0.92, -0.92) translate(60, -920)">					<path d="M 219 598 Q 234 578 247 571 Q 258 563 271 564 Q 284 565 291 574 Q 299 587 299 600 Q 296 628 282 642 L 261 654 L 227 667 Q 206 674 194 675 L 175 679 Q 167 680 162 675 Q 159 670 165 666 L 219 598 Z" fill="red"></path>
				<path d="M 101 461 Q 91 462 85 458 Q 83 455 85 452 L 93 440 L 119 411 Q 143 381 149.5 373 Q 156 365 171 357 Q 186 349 198.5 350.5 Q 211 352 217 361 Q 230 381 219 413 Q 210 428 201 434 Q 165 454 119 457 L 101 461 Z" fill="lightgray"></path>
				<path d="M 255 276 L 228.5 224.5 Q 202 173 192 159 Q 182 145 172 129.5 Q 162 114 133 78 Q 115 59 105.5 53 Q 96 47 94 45 Q 87 33 95 -3 L 108 -37 Q 113 -51 121 -65 Q 125 -78 129 -80 Q 144 -89 157 -74 Q 165 -61 169.5 -41 Q 174 -21 180.5 5.5 Q 187 32 213 97 L 241 168 Q 250 189 261 228 L 280 295 Q 281 302 275 304 Q 269 305 265 298 L 255 276 Z" fill="lightgray"></path>
				<path d="M 425 596 L 377 587 Q 347 583 340 582 Q 333 581 331 575 Q 331 570 335 566 Q 342 556 370 556 Q 376 553 401 557 Q 426 561 432 562 L 448 564 L 489 570 L 573 589 Q 582 590 587 593.5 Q 592 597 591 601 Q 591 614 569 620 Q 555 627 542 627 L 494 612 L 450 601 L 437 598 L 435 598 Q 431 596 425 596 Z" fill="lightgray"></path>
				<path d="M 448 564 L 445 524 Q 445 506 439 458 Q 433 410 433 409 Q 427 391 427 384 Q 427 377 432.5 358.5 Q 438 340 448 330 Q 449 325 454 323 Q 457 323 465 330 L 477 345 Q 483 353 485 360 Q 491 370 492 376 L 487 426 L 489 570 L 494 612 L 494 646 Q 494 682 499.5 697.5 Q 505 713 505 714.5 Q 505 716 499 723 Q 493 730 474 733.5 Q 455 737 447 740 Q 431 740 431 729 L 433 724 L 435 718 Q 443 702 445 680 Q 450 662 450 652 L 450 601 L 448 564 Z" fill="lightgray"></path>
				<path d="M 289 355 Q 282 352 287 347 Q 288 343 297 346 L 320 354 Q 333 358 358.5 379.5 Q 384 401 385.5 407 Q 387 413 394 427 L 415 479 L 421 489 L 423 497 Q 423 512 384 522 Q 368 527 366 526 Q 352 522 358 511 Q 374 481 357 436 Q 341 401 339 397 Q 328 378 305 365 L 289 355 Z" fill="lightgray"></path>
				<path d="M 515 458 Q 515 436 523 422 Q 535 395 576 395 Q 605 392 637 404 C 653 410 653 410 643 423 L 637 431 Q 627 444 611 444 L 601 440 L 586 436 Q 578 434 571 436 Q 563 436 559 440 Q 555 444 556 459 Q 557 474 561 481 Q 563 491 569 497 Q 575 506 576 509 Q 577 519 531 535 Q 521 536 517 535 Q 513 534 513 528 L 515 514 Q 519 507 518 486 Q 517 464 515 458 Z" fill="lightgray"></path>
				<path d="M 641 610 Q 629 611 626.5 607.5 Q 624 604 626 598 Q 628 588 653 582 Q 678 576 712 583 L 741 587 L 785 594 L 846 604 L 876 610 Q 892 613 898 621 Q 904 629 892 637.5 Q 880 646 867 650 Q 854 654 847.5 654 Q 841 654 816 646.5 Q 791 639 787 638 L 741 625 L 714 618 Q 706 618 702 617 L 641 610 Z" fill="lightgray"></path>
				<path d="M 741 587 L 737 512 L 733 453 L 725 394 L 729 374 Q 737 354 741 348 Q 749 340 755.5 338 Q 762 336 769 349 Q 784 378 785 391 L 781 455 L 785 594 L 787 638 L 787 666 L 788 671 L 790 687 L 792 708 Q 792 710 794 720 L 796 733 Q 796 736 787 743 Q 761 758 743 757 Q 725 756 725 750 Q 725 744 730.5 735 Q 736 726 739 699 L 741 671 L 741 625 L 741 587 Z" fill="lightgray"></path>
				<path d="M 637 404 L 628 392 Q 626 389 611 376 Q 603 366 597 360 L 584 354 Q 570 344 573 342 L 580 340 L 591 344 Q 594 344 601 348 L 622 357 Q 635 363 653 380 Q 690 414 693 438 Q 698 450 699 459.5 Q 700 469 702 478 Q 704 487 704 494.5 Q 704 502 708 506 L 712 515 Q 716 529 695 537 L 666 546 Q 655 549 653 547 Q 637 544 648.5 526 Q 660 508 658 480.5 Q 656 453 651 441 L 643 423 L 637 404 Z" fill="lightgray"></path>
				<path d="M 873 466 Q 873 499 880 511 Q 881 518 885.5 522.5 Q 890 527 890 530 Q 893 538 874 550 Q 855 562 832 562 Q 826 560 823.5 559 Q 821 558 823 553 L 825 537 Q 827 515 827 508 L 825 446 Q 824 425 832 403.5 Q 840 382 853 374 Q 867 361 882 360 Q 899 355 928.5 356.5 Q 958 358 978 370 Q 987 374 987 381 L 985 389 L 983 390 L 972 400 Q 964 409 960 412 Q 951 415 947 414 L 936 408 Q 925 401 903 400 Q 881 399 873 418 Q 869 423 871 436 L 873 466 Z" fill="lightgray"></path>
				<path d="M 447 30 Q 429 -33 426 -79 Q 426 -90 434 -103 Q 441 -116 443 -118 Q 455 -141 461 -136 Q 476 -124 491 -49 L 496 45 L 498 63 L 500 103 Q 501 108 502 135 L 503 165 L 505 199 Q 505 223 502 244 C 499 274 516 272 507 275 L 468 286 Q 451 289 443 286 Q 430 286 440 271 Q 449 256 451 240 Q 472 166 447 30 Z" fill="lightgray"></path>
				<path d="M 715 58 L 709 -11 Q 706 -55 692 -65 Q 680 -71 653 -64 L 636 -60 L 619 -54 Q 603 -50 600 -54 Q 596 -57 608 -65 L 626 -81 L 639 -91 Q 640 -92 647 -98 Q 654 -104 663 -117 Q 672 -129 679 -143 Q 686 -157 692 -159 Q 699 -161 714 -153 Q 728 -144 741 -127 Q 767 -89 765 -18 L 764 40 L 765 191 Q 765 217 768 227 Q 770 237 780 247 Q 789 256 790 261 Q 790 266 783 275 Q 776 284 756 297 Q 736 309 732 312 L 722 317 Q 718 317 701 310 Q 683 303 661 300 L 621 293 L 507 275 C 477 270 472 240 502 244 L 556 251 L 678 265 Q 698 269 705 260 Q 711 251 712 238 L 713 185 L 715 163 L 715 82 L 715 58 Z" fill="lightgray"></path>
				<path d="M 502 135 L 537 135 Q 560 136 603 144 L 715 163 C 745 168 742 179 713 185 L 697 188 L 680 194 Q 662 197 637 189 Q 611 181 593 178 L 553 171 Q 511 166 503 165 C 473 161 472 135 502 135 Z" fill="lightgray"></path>
				<path d="M 496 45 L 520 39 Q 539 35 546 35 Q 553 34 581 39 L 692 57 Q 700 58 715 58 C 745 58 744 77 715 82 L 688 87 Q 672 90 632 84 L 564 71 Q 560 71 498 63 C 468 59 467 52 496 45 Z" fill="lightgray"></path>
</g>
		<text x="40" y="140" font-size="128" fill="#999999">1</text></g>
		<g id="id0:id1:id1" transform="matrix(1.0,0,0,1.0,1024,0.0)">			<g stroke="lightgray" stroke-width="4" transform="scale(4, 4)"> <rect x="0" y="0" width="256" height="256" fill="white" stroke-width="4"/></g>
			<g transform="scale(0.92, -0.92) translate(60, -920)">					<path d="M 219 598 Q 234 578 247 571 Q 258 563 271 564 Q 284 565 291 574 Q 299 587 299 600 Q 296 628 282 642 L 261 654 L 227 667 Q 206 674 194 675 L 175 679 Q 167 680 162 675 Q 159 670 165 666 L 219 598 Z" fill="black"></path>
				<path d="M 101 461 Q 91 462 85 458 Q 83 455 85 452 L 93 440 L 119 411 Q 143 381 149.5 373 Q 156 365 171 357 Q 186 349 198.5 350.5 Q 211 352 217 361 Q 230 381 219 413 Q 210 428 201 434 Q 165 454 119 457 L 101 461 Z" fill="red"></path>
				<path d="M 255 276 L 228.5 224.5 Q 202 173 192 159 Q 182 145 172 129.5 Q 162 114 133 78 Q 115 59 105.5 53 Q 96 47 94 45 Q 87 33 95 -3 L 108 -37 Q 113 -51 121 -65 Q 125 -78 129 -80 Q 144 -89 157 -74 Q 165 -61 169.5 -41 Q 174 -21 180.5 5.5 Q 187 32 213 97 L 241 168 Q 250 189 261 228 L 280 295 Q 281 302 275 304 Q 269 305 265 298 L 255 276 Z" fill="lightgray"></path>
				<path d="M 425 596 L 377 587 Q 347 583 340 582 Q 333 581 331 575 Q 331 570 335 566 Q 342 556 370 556 Q 376 553 401 557 Q 426 561 432 562 L 448 564 L 489 570 L 573 589 Q 582 590 587 593.5 Q 592 597 591 601 Q 591 614 569 620 Q 555 627 542 627 L 494 612 L 450 601 L 437 598 L 435 598 Q 431 596 425 596 Z" fill="lightgray"></path>
				<path d="M 448 564 L 445 524 Q 445 506 439 458 Q 433 410 433 409 Q 427 391 427 384 Q 427 377 432.5 358.5 Q 438 340 448 330 Q 449 325 454 323 Q 457 323 465 330 L 477 345 Q 483 353 485 360 Q 491 370 492 376 L 487 426 L 489 570 L 494 612 L 494 646 Q 494 682 499.5 697.5 Q 505 713 505 714.5 Q 505 716 499 723 Q 493 730 474 733.5 Q 455 737 447 740 Q 431 740 431 729 L 433 724 L 435 718 Q 443 702 445 680 Q 450 662 450 652 L 450 601 L 448 564 Z" fill="lightgray"></path>
				<path d="M 289 355 Q 282 352 287 347 Q 288 343 297 346 L 320 354 Q 333 358 358.5 379.5 Q 384 401 385.5 407 Q 387 413 394 427 L 415 479 L 421 489 L 423 497 Q 423 512 384 522 Q 368 527 366 526 Q 352 522 358 511 Q 374 481 357 436 Q 341 401 339 397 Q 328 378 305 365 L 289 355 Z" fill="lightgray"></path>
				<path d="M 515 458 Q 515 436 523 422 Q 535 395 576 395 Q 605 392 637 404 C 653 410 653 410 643 423 L 637 431 Q 627 444 611 444 L 601 440 L 586 436 Q 578 434 571 436 Q 563 436 559 440 Q 555 444 556 459 Q 557 474 561 481 Q 563 491 569 497 Q 575 506 576 509 Q 577 519 531 535 Q 521 536 517 535 Q 513 534 513 528 L 515 514 Q 519 507 518 486 Q 517 464 515 458 Z" fill="lightgray"></path>
				<path d="M 641 610 Q 629 611 626.5 607.5 Q 624 604 626 598 Q 628 588 653 582 Q 678 576 712 583 L 741 587 L 785 594 L 846 604 L 876 610 Q 892 613 898 621 Q 904 629 892 637.5 Q 880 646 867 650 Q 854 654 847.5 654 Q 841 654 816 646.5 Q 791 639 787 638 L 741 625 L 714 618 Q 706 618 702 617 L 641 610 Z" fill="lightgray"></path>
				<path d="M 741 587 L 737 512 L 733 453 L 725 394 L 729 374 Q 737 354 741 348 Q 749 340 755.5 338 Q 762 336 769 349 Q 784 378 785 391 L 781 455 L 785 594 L 787 638 L 787 666 L 788 671 L 790 687 L 792 708 Q 792 710 794 720 L 796 733 Q 796 736 787 743 Q 761 758 743 757 Q 725 756 725 750 Q 725 744 730.5 735 Q 736 726 739 699 L 741 671 L 741 625 L 741 587 Z" fill="lightgray"></path>
				<path d="M 637 404 L 628 392 Q 626 389 611 376 Q 603 366 597 360 L 584 354 Q 570 344 573 342 L 580 340 L 591 344 Q 594 344 601 348 L 622 357 Q 635 363 653 380 Q 690 414 693 438 Q 698 450 699 459.5 Q 700 469 702 478 Q 704 487 704 494.5 Q 704 502 708 506 L 712 515 Q 716 529 695 537 L 666 546 Q 655 549 653 547 Q 637 544 648.5 526 Q 660 508 658 480.5 Q 656 453 651 441 L 643 423 L 637 404 Z" fill="lightgray"></path>
				<path d="M 873 466 Q 873 499 880 511 Q 881 518 885.5 522.5 Q 890 527 890 530 Q 893 538 874 550 Q 855 562 832 562 Q 826 560 823.5 559 Q 821 558 823 553 L 825 537 Q 827 515 827 508 L 825 446 Q 824 425 832 403.5 Q 840 382 853 374 Q 867 361 882 360 Q 899 355 928.5 356.5 Q 958 358 978 370 Q 987 374 987 381 L 985 389 L 983 390 L 972 400 Q 964 409 960 412 Q 951 415 947 414 L 936 408 Q 925 401 903 400 Q 881 399 873 418 Q 869 423 871 436 L 873 466 Z" fill="lightgray"></path>
				<path d="M 447 30 Q 429 -33 426 -79 Q 426 -90 434 -103 Q 441 -116 443 -118 Q 455 -141 461 -136 Q 476 -124 491 -49 L 496 45 L 498 63 L 500 103 Q 501 108 502 135 L 503 165 L 505 199 Q 505 223 502 244 C 499 274 516 272 507 275 L 468 286 Q 451 289 443 286 Q 430 286 440 271 Q 449 256 451 240 Q 472 166 447 30 Z" fill="lightgray"></path>
				<path d="M 715 58 L 709 -11 Q 706 -55 692 -65 Q 680 -71 653 -64 L 636 -60 L 619 -54 Q 603 -50 600 -54 Q 596 -57 608 -65 L 626 -81 L 639 -91 Q 640 -92 647 -98 Q 654 -104 663 -117 Q 672 -129 679 -143 Q 686 -157 692 -159 Q 699 -161 714 -153 Q 728 -144 741 -127 Q 767 -89 765 -18 L 764 40 L 765 191 Q 765 217 768 227 Q 770 237 780 247 Q 789 256 790 261 Q 790 266 783 275 Q 776 284 756 297 Q 736 309 732 312 L 722 317 Q 718 317 701 310 Q 683 303 661 300 L 621 293 L 507 275 C 477 270 472 240 502 244 L 556 251 L 678 265 Q 698 269 705 260 Q 711 251 712 238 L 713 185 L 715 163 L 715 82 L 715 58 Z" fill="lightgray"></path>
				<path d="M 502 135 L 537 135 Q 560 136 603 144 L 715 163 C 745 168 742 179 713 185 L 697 188 L 680 194 Q 662 197 637 189 Q 611 181 593 178 L 553 171 Q 511 166 503 165 C 473 161 472 135 502 135 Z" fill="lightgray"></path>
				<path d="M 496 45 L 520 39 Q 539 35 546 35 Q 553 34 581 39 L 692 57 Q 700 58 715 58 C 745 58 744 77 715 82 L 688 87 Q 672 90 632 84 L 564 71 Q 560 71 498 63 C 468 59 467 52 496 45 Z" fill="lightgray"></path>
</g>
		<text x="40" y="140" font-size="128" fill="#999999">2</text></g>
		<g id="id0:id2:id2" transform="matrix(1.0,0,0,1.0,2048,0.0)">			<g stroke="lightgray" stroke-width="4" transform="scale(4, 4)"> <rect x="0" y="0" width="256" height="256" fill="white" stroke-width="4"/></g>
			<g transform="scale(0.92, -0.92) translate(60, -920)">					<path d="M 219 598 Q 234 578 247 571 Q 258 563 271 564 Q 284 565 291 574 Q 299 587 299 600 Q 296 628 282 642 L 261 654 L 227 667 Q 206 674 194 675 L 175 679 Q 167 680 162 675 Q 159 670 165 666 L 219 598 Z" fill="black"></path>
				<path d="M 101 461 Q 91 462 85 458 Q 83 455 85 452 L 93 440 L 119 411 Q 143 381 149.5 373 Q 156 365 171 357 Q 186 349 198.5 350.5 Q 211 352 217 361 Q 230 381 219 413 Q 210 428 201 434 Q 165 454 119 457 L 101 461 Z" fill="black"></path>
				<path d="M 255 276 L 228.5 224.5 Q 202 173 192 159 Q 182 145 172 129.5 Q 162 114 133 78 Q 115 59 105.5 53 Q 96 47 94 45 Q 87 33 95 -3 L 108 -37 Q 113 -51 121 -65 Q 125 -78 129 -80 Q 144 -89 157 -74 Q 165 -61 169.5 -41 Q 174 -21 180.5 5.5 Q 187 32 213 97 L 241 168 Q 250 189 261 228 L 280 295 Q 281 302 275 304 Q 269 305 265 298 L 255 276 Z" fill="red"></path>
				<path d="M 425 596 L 377 587 Q 347 583 340 582 Q 333 581 331 575 Q 331 570 335 566 Q 342 556 370 556 Q 376 553 401 557 Q 426 561 432 562 L 448 564 L 489 570 L 573 589 Q 582 590 587 593.5 Q 592 597 591 601 Q 591 614 569 620 Q 555 627 542 627 L 494 612 L 450 601 L 437 598 L 435 598 Q 431 596 425 596 Z" fill="lightgray"></path>
				<path d="M 448 564 L 445 524 Q 445 506 439 458 Q 433 410 433 409 Q 427 391 427 384 Q 427 377 432.5 358.5 Q 438 340 448 330 Q 449 325 454 323 Q 457 323 465 330 L 477 345 Q 483 353 485 360 Q 491 370 492 376 L 487 426 L 489 570 L 494 612 L 494 646 Q 494 682 499.5 697.5 Q 505 713 505 714.5 Q 505 716 499 723 Q 493 730 474 733.5 Q 455 737 447 740 Q 431 740 431 729 L 433 724 L 435 718 Q 443 702 445 680 Q 450 662 450 652 L 450 601 L 448 564 Z" fill="lightgray"></path>
				<path d="M 289 355 Q 282 352 287 347 Q 288 343 297 346 L 320 354 Q 333 358 358.5 379.5 Q 384 401 385.5 407 Q 387 413 394 427 L 415 479 L 421 489 L 423 497 Q 423 512 384 522 Q 368 527 366 526 Q 352 522 358 511 Q 374 481 357 436 Q 341 401 339 397 Q 328 378 305 365 L 289 355 Z" fill="lightgray"></path>
				<path d="M 515 458 Q 515 436 523 422 Q 535 395 576 395 Q 605 392 637 404 C 653 410 653 410 643 423 L 637 431 Q 627 444 611 444 L 601 440 L 586 436 Q 578 434 571 436 Q 563 436 559 440 Q 555 444 556 459 Q 557 474 561 481 Q 563 491 569 497 Q 575 506 576 509 Q 577 519 531 535 Q 521 536 517 535 Q 513 534 513 528 L 515 514 Q 519 507 518 486 Q 517 464 515 458 Z" fill="lightgray"></path>
				<path d="M 641 610 Q 629 611 626.5 607.5 Q 624 604 626 598 Q 628 588 653 582 Q 678 576 712 583 L 741 587 L 785 594 L 846 604 L 876 610 Q 892 613 898 621 Q 904 629 892 637.5 Q 880 646 867 650 Q 854 654 847.5 654 Q 841 654 816 646.5 Q 791 639 787 638 L 741 625 L 714 618 Q 706 618 702 617 L 641 610 Z" fill="lightgray"></path>
				<path d="M 741 587 L 737 512 L 733 453 L 725 394 L 729 374 Q 737 354 741 348 Q 749 340 755.5 338 Q 762 336 769 349 Q 784 378 785 391 L 781 455 L 785 594 L 787 638 L 787 666 L 788 671 L 790 687 L 792 708 Q 792 710 794 720 L 796 733 Q 796 736 787 743 Q 761 758 743 757 Q 725 756 725 750 Q 725 744 730.5 735 Q 736 726 739 699 L 741 671 L 741 625 L 741 587 Z" fill="lightgray"></path>
				<path d="M 637 404 L 628 392 Q 626 389 611 376 Q 603 366 597 360 L 584 354 Q 570 344 573 342 L 580 340 L 591 344 Q 594 344 601 348 L 622 357 Q 635 363 653 380 Q 690 414 693 438 Q 698 450 699 459.5 Q 700 469 702 478 Q 704 487 704 494.5 Q 704 502 708 506 L 712 515 Q 716 529 695 537 L 666 546 Q 655 549 653 547 Q 637 544 648.5 526 Q 660 508 658 480.5 Q 656 453 651 441 L 643 423 L 637 404 Z" fill="lightgray"></path>
				<path d="M 873 466 Q 873 499 880 511 Q 881 518 885.5 522.5 Q 890 527 890 530 Q 893 538 874 550 Q 855 562 832 562 Q 826 560 823.5 559 Q 821 558 823 553 L 825 537 Q 827 515 827 508 L 825 446 Q 824 425 832 403.5 Q 840 382 853 374 Q 867 361 882 360 Q 899 355 928.5 356.5 Q 958 358 978 370 Q 987 374 987 381 L 985 389 L 983 390 L 972 400 Q 964 409 960 412 Q 951 415 947 414 L 936 408 Q 925 401 903 400 Q 881 399 873 418 Q 869 423 871 436 L 873 466 Z" fill="lightgray"></path>
				<path d="M 447 30 Q 429 -33 426 -79 Q 426 -90 434 -103 Q 441 -116 443 -118 Q 455 -141 461 -136 Q 476 -124 491 -49 L 496 45 L 498 63 L 500 103 Q 501 108 502 135 L 503 165 L 505 199 Q 505 223 502 244 C 499 274 516 272 507 275 L 468 286 Q 451 289 443 286 Q 430 286 440 271 Q 449 256 451 240 Q 472 166 447 30 Z" fill="lightgray"></path>
				<path d="M 715 58 L 709 -11 Q 706 -55 692 -65 Q 680 -71 653 -64 L 636 -60 L 619 -54 Q 603 -50 600 -54 Q 596 -57 608 -65 L 626 -81 L 639 -91 Q 640 -92 647 -98 Q 654 -104 663 -117 Q 672 -129 679 -143 Q 686 -157 692 -159 Q 699 -161 714 -153 Q 728 -144 741 -127 Q 767 -89 765 -18 L 764 40 L 765 191 Q 765 217 768 227 Q 770 237 780 247 Q 789 256 790 261 Q 790 266 783 275 Q 776 284 756 297 Q 736 309 732 312 L 722 317 Q 718 317 701 310 Q 683 303 661 300 L 621 293 L 507 275 C 477 270 472 240 502 244 L 556 251 L 678 265 Q 698 269 705 260 Q 711 251 712 238 L 713 185 L 715 163 L 715 82 L 715 58 Z" fill="lightgray"></path>
				<path d="M 502 135 L 537 135 Q 560 136 603 144 L 715 163 C 745 168 742 179 713 185 L 697 188 L 680 194 Q 662 197 637 189 Q 611 181 593 178 L 553 171 Q 511 166 503 165 C 473 161 472 135 502 135 Z" fill="lightgray"></path>
				<path d="M 496 45 L 520 39 Q 539 35 546 35 Q 553 34 581 39 L 692 57 Q 700 58 715 58 C 745 58 744 77 715 82 L 688 87 Q 672 90 632 84 L 564 71 Q 560 71 498 63 C 468 59 467 52 496 45 Z" fill="lightgray"></path>
</g>
		<text x="40" y="140" font-size="128" fill="#999999">3</text></g>
		<g id="id0:id3:id3" transform="matrix(1.0,0,0,1.0,3072,0.0)">			<g stroke="lightgray" stroke-width="4" transform="scale(4, 4)"> <rect x="0" y="0" width="256" height="256" fill="white" stroke-width="4"/></g>
			<g transform="scale(0.92, -0.92) translate(60, -920)">					<path d="M 219 598 Q 234 578 247 571 Q 258 563 271 564 Q 284 565 291 574 Q 299 587 299 600 Q 296 628 282 642 L 261 654 L 227 667 Q 206 674 194 675 L 175 679 Q 167 680 162 675 Q 159 670 165 666 L 219 598 Z" fill="black"></path>
				<path d="M 101 461 Q 91 462 85 458 Q 83 455 85 452 L 93 440 L 119 411 Q 143 381 149.5 373 Q 156 365 171 357 Q 186 349 198.5 350.5 Q 211 352 217 361 Q 230 381 219 413 Q 210 428 201 434 Q 165 454 119 457 L 101 461 Z" fill="black"></path>
				<path d="M 255 276 L 228.5 224.5 Q 202 173 192 159 Q 182 145 172 129.5 Q 162 114 133 78 Q 115 59 105.5 53 Q 96 47 94 45 Q 87 33 95 -3 L 108 -37 Q 113 -51 121 -65 Q 125 -78 129 -80 Q 144 -89 157 -74 Q 165 -61 169.5 -41 Q 174 -21 180.5 5.5 Q 187 32 213 97 L 241 168 Q 250 189 261 228 L 280 295 Q 281 302 275 304 Q 269 305 265 298 L 255 276 Z" fill="black"></path>
				<path d="M 425 596 L 377 587 Q 347 583 340 582 Q 333 581 331 575 Q 331 570 335 566 Q 342 556 370 556 Q 376 553 401 557 Q 426 561 432 562 L 448 564 L 489 570 L 573 589 Q 582 590 587 593.5 Q 592 597 591 601 Q 591 614 569 620 Q 555 627 542 627 L 494 612 L 450 601 L 437 598 L 435 598 Q 431 596 425 596 Z" fill="red"></path>
				<path d="M 448 564 L 445 524 Q 445 506 439 458 Q 433 410 433 409 Q 427 391 427 384 Q 427 377 432.5 358.5 Q 438 340 448 330 Q 449 325 454 323 Q 457 323 465 330 L 477 345 Q 483 353 485 360 Q 491 370 492 376 L 487 426 L 489 570 L 494 612 L 494 646 Q 494 682 499.5 697.5 Q 505 713 505 714.5 Q 505 716 499 723 Q 493 730 474 733.5 Q 455 737 447 740 Q 431 740 431 729 L 433 724 L 435 718 Q 443 702 445 680 Q 450 662 450 652 L 450 601 L 448 564 Z" fill="lightgray"></path>
				<path d="M 289 355 Q 282 352 287 347 Q 288 343 297 346 L 320 354 Q 333 358 358.5 379.5 Q 384 401 385.5 407 Q 387 413 394 427 L 415 479 L 421 489 L 423 497 Q 423 512 384 522 Q 368 527 366 526 Q 352 522 358 511 Q 374 481 357 436 Q 341 401 339 397 Q 328 378 305 365 L 289 355 Z" fill="lightgray"></path>
				<path d="M 515 458 Q 515 436 523 422 Q 535 395 576 395 Q 605 392 637 404 C 653 410 653 410 643 423 L 637 431 Q 627 444 611 444 L 601 440 L 586 436 Q 578 434 571 436 Q 563 436 559 440 Q 555 444 556 459 Q 557 474 561 481 Q 563 491 569 497 Q 575 506 576 509 Q 577 519 531 535 Q 521 536 517 535 Q 513 534 513 528 L 515 514 Q 519 507 518 486 Q 517 464 515 458 Z" fill="lightgray"></path>
				<path d="M 641 610 Q 629 611 626.5 607.5 Q 624 604 626 598 Q 628 588 653 582 Q 678 576 712 583 L 741 587 L 785 594 L 846 604 L 876 610 Q 892 613 898 621 Q 904 629 892 637.5 Q 880 646 867 650 Q 854 654 847.5 654 Q 841 654 816 646.5 Q 791 639 787 638 L 741 625 L 714 618 Q 706 618 702 617 L 641 610 Z" fill="lightgray"></path>
				<path d="M 741 587 L 737 512 L 733 453 L 725 394 L 729 374 Q 737 354 741 348 Q 749 340 755.5 338 Q 762 336 769 349 Q 784 378 785 391 L 781 455 L 785 594 L 787 638 L 787 666 L 788 671 L 790 687 L 792 708 Q 792 710 794 720 L 796 733 Q 796 736 787 743 Q 761 758 743 757 Q 725 756 725 750 Q 725 744 730.5 735 Q 736 726 739 699 L 741 671 L 741 625 L 741 587 Z" fill="lightgray"></path>
				<path d="M 637 404 L 628 392 Q 626 389 611 376 Q 603 366 597 360 L 584 354 Q 570 344 573 342 L 580 340 L 591 344 Q 594 344 601 348 L 622 357 Q 635 363 653 380 Q 690 414 693 438 Q 698 450 699 459.5 Q 700 469 702 478 Q 704 487 704 494.5 Q 704 502 708 506 L 712 515 Q 716 529 695 537 L 666 546 Q 655 549 653 547 Q 637 544 648.5 526 Q 660 508 658 480.5 Q 656 453 651 441 L 643 423 L 637 404 Z" fill="lightgray"></path>
				<path d="M 873 466 Q 873 499 880 511 Q 881 518 885.5 522.5 Q 890 527 890 530 Q 893 538 874 550 Q 855 562 832 562 Q 826 560 823.5 559 Q 821 558 823 553 L 825 537 Q 827 515 827 508 L 825 446 Q 824 425 832 403.5 Q 840 382 853 374 Q 867 361 882 360 Q 899 355 928.5 356.5 Q 958 358 978 370 Q 987 374 987 381 L 985 389 L 983 390 L 972 400 Q 964 409 960 412 Q 951 415 947 414 L 936 408 Q 925 401 903 400 Q 881 399 873 418 Q 869 423 871 436 L 873 466 Z" fill="lightgray"></path>
				<path d="M 447 30 Q 429 -33 426 -79 Q 426 -90 434 -103 Q 441 -116 443 -118 Q 455 -141 461 -136 Q 476 -124 491 -49 L 496 45 L 498 63 L 500 103 Q 501 108 502 135 L 503 165 L 505 199 Q 505 223 502 244 C 499 274 516 272 507 275 L 468 286 Q 451 289 443 286 Q 430 286 440 271 Q 449 256 451 240 Q 472 166 447 30 Z" fill="lightgray"></path>
				<path d="M 715 58 L 709 -11 Q 706 -55 692 -65 Q 680 -71 653 -64 L 636 -60 L 619 -54 Q 603 -50 600 -54 Q 596 -57 608 -65 L 626 -81 L 639 -91 Q 640 -92 647 -98 Q 654 -104 663 -117 Q 672 -129 679 -143 Q 686 -157 692 -159 Q 699 -161 714 -153 Q 728 -144 741 -127 Q 767 -89 765 -18 L 764 40 L 765 191 Q 765 217 768 227 Q 770 237 780 247 Q 789 256 790 261 Q 790 266 783 275 Q 776 284 756 297 Q 736 309 732 312 L 722 317 Q 718 317 701 310 Q 683 303 661 300 L 621 293 L 507 275 C 477 270 472 240 502 244 L 556 251 L 678 265 Q 698 269 705 260 Q 711 251 712 238 L 713 185 L 715 163 L 715 82 L 715 58 Z" fill="lightgray"></path>
				<path d="M 502 135 L 537 135 Q 560 136 603 144 L 715 163 C 745 168 742 179 713 185 L 697 188 L 680 194 Q 662 197 637 189 Q 611 181 593 178 L 553 171 Q 511 166 503 165 C 473 161 472 135 502 135 Z" fill="lightgray"></path>
				<path d="M 496 45 L 520 39 Q 539 35 546 35 Q 553 34 581 39 L 692 57 Q 700 58 715 58 C 745 58 744 77 715 82 L 688 87 Q 672 90 632 84 L 564 71 Q 560 71 498 63 C 468 59 467 52 496 45 Z" fill="lightgray"></path>
</g>
		<text x="40" y="140" font-size="128" fill="#999999">4</text></g>
		<g id="id0:id4:id4" transform="matrix(1.0,0,0,1.0,4096,0.0)">			<g stroke="lightgray" stroke-width="4" transform="scale(4, 4)"> <rect x="0" y="0" width="256" height="256" fill="white" stroke-width="4"/></g>
			<g transform="scale(0.92, -0.92) translate(60, -920)">					<path d="M 219 598 Q 234 578 247 571 Q 258 563 271 564 Q 284 565 291 574 Q 299 587 299 600 Q 296 628 282 642 L 261 654 L 227 667 Q 206 674 194 675 L 175 679 Q 167 680 162 675 Q 159 670 165 666 L 219 598 Z" fill="black"></path>
				<path d="M 101 461 Q 91 462 85 458 Q 83 455 85 452 L 93 440 L 119 411 Q 143 381 149.5 373 Q 156 365 171 357 Q 186 349 198.5 350.5 Q 211 352 217 361 Q 230 381 219 413 Q 210 428 201 434 Q 165 454 119 457 L 101 461 Z" fill="black"></path>
				<path d="M 255 276 L 228.5 224.5 Q 202 173 192 159 Q 182 145 172 129.5 Q 162 114 133 78 Q 115 59 105.5 53 Q 96 47 94 45 Q 87 33 95 -3 L 108 -37 Q 113 -51 121 -65 Q 125 -78 129 -80 Q 144 -89 157 -74 Q 165 -61 169.5 -41 Q 174 -21 180.5 5.5 Q 187 32 213 97 L 241 168 Q 250 189 261 228 L 280 295 Q 281 302 275 304 Q 269 305 265 298 L 255 276 Z" fill="black"></path>
				<path d="M 425 596 L 377 587 Q 347 583 340 582 Q 333 581 331 575 Q 331 570 335 566 Q 342 556 370 556 Q 376 553 401 557 Q 426 561 432 562 L 448 564 L 489 570 L 573 589 Q 582 590 587 593.5 Q 592 597 591 601 Q 591 614 569 620 Q 555 627 542 627 L 494 612 L 450 601 L 437 598 L 435 598 Q 431 596 425 596 Z" fill="black"></path>
				<path d="M 448 564 L 445 524 Q 445 506 439 458 Q 433 410 433 409 Q 427 391 427 384 Q 427 377 432.5 358.5 Q 438 340 448 330 Q 449 325 454 323 Q 457 323 465 330 L 477 345 Q 483 353 485 360 Q 491 370 492 376 L 487 426 L 489 570 L 494 612 L 494 646 Q 494 682 499.5 697.5 Q 505 713 505 714.5 Q 505 716 499 723 Q 493 730 474 733.5 Q 455 737 447 740 Q 431 740 431 729 L 433 724 L 435 718 Q 443 702 445 680 Q 450 662 450 652 L 450 601 L 448 564 Z" fill="red"></path>
				<path d="M 289 355 Q 282 352 287 347 Q 288 343 297 346 L 320 354 Q 333 358 358.5 379.5 Q 384 401 385.5 407 Q 387 413 394 427 L 415 479 L 421 489 L 423 497 Q 423 512 384 522 Q 368 527 366 526 Q 352 522 358 511 Q 374 481 357 436 Q 341 401 339 397 Q 328 378 305 365 L 289 355 Z" fill="lightgray"></path>
				<path d="M 515 458 Q 515 436 523 422 Q 535 395 576 395 Q 605 392 637 404 C 653 410 653 410 643 423 L 637 431 Q 627 444 611 444 L 601 440 L 586 436 Q 578 434 571 436 Q 563 436 559 440 Q 555 444 556 459 Q 557 474 561 481 Q 563 491 569 497 Q 575 506 576 509 Q 577 519 531 535 Q 521 536 517 535 Q 513 534 513 528 L 515 514 Q 519 507 518 486 Q 517 464 515 458 Z" fill="lightgray"></path>
				<path d="M 641 610 Q 629 611 626.5 607.5 Q 624 604 626 598 Q 628 588 653 582 Q 678 576 712 583 L 741 587 L 785 594 L 846 604 L 876 610 Q 892 613 898 621 Q 904 629 892 637.5 Q 880 646 867 650 Q 854 654 847.5 654 Q 841 654 816 646.5 Q 791 639 787 638 L 741 625 L 714 618 Q 706 618 702 617 L 641 610 Z" fill="lightgray"></path>
				<path d="M 741 587 L 737 512 L 733 453 L 725 394 L 729 374 Q 737 354 741 348 Q 749 340 755.5 338 Q 762 336 769 349 Q 784 378 785 391 L 781 455 L 785 594 L 787 638 L 787 666 L 788 671 L 790 687 L 792 708 Q 792 710 794 720 L 796 733 Q 796 736 787 743 Q 761 758 743 757 Q 725 756 725 750 Q 725 744 730.5 735 Q 736 726 739 699 L 741 671 L 741 625 L 741 587 Z" fill="lightgray"></path>
				<path d="M 637 404 L 628 392 Q 626 389 611 376 Q 603 366 597 360 L 584 354 Q 570 344 573 342 L 580 340 L 591 344 Q 594 344 601 348 L 622 357 Q 635 363 653 380 Q 690 414 693 438 Q 698 450 699 459.5 Q 700 469 702 478 Q 704 487 704 494.5 Q 704 502 708 506 L 712 515 Q 716 529 695 537 L 666 546 Q 655 549 653 547 Q 637 544 648.5 526 Q 660 508 658 480.5 Q 656 453 651 441 L 643 423 L 637 404 Z" fill="lightgray"></path>
				<path d="M 873 466 Q 873 499 880 511 Q 881 518 885.5 522.5 Q 890 527 890 530 Q 893 538 874 550 Q 855 562 832 562 Q 826 560 823.5 559 Q 821 558 823 553 L 825 537 Q 827 515 827 508 L 825 446 Q 824 425 832 403.5 Q 840 382 853 374 Q 867 361 882 360 Q 899 355 928.5 356.5 Q 958 358 978 370 Q 987 374 987 381 L 985 389 L 983 390 L 972 400 Q 964 409 960 412 Q 951 415 947 414 L 936 408 Q 925 401 903 400 Q 881 399 873 418 Q 869 423 871 436 L 873 466 Z" fill="lightgray"></path>
				<path d="M 447 30 Q 429 -33 426 -79 Q 426 -90 434 -103 Q 441 -116 443 -118 Q 455 -141 461 -136 Q 476 -124 491 -49 L 496 45 L 498 63 L 500 103 Q 501 108 502 135 L 503 165 L 505 199 Q 505 223 502 244 C 499 274 516 272 507 275 L 468 286 Q 451 289 443 286 Q 430 286 440 271 Q 449 256 451 240 Q 472 166 447 30 Z" fill="lightgray"></path>
				<path d="M 715 58 L 709 -11 Q 706 -55 692 -65 Q 680 -71 653 -64 L 636 -60 L 619 -54 Q 603 -50 600 -54 Q 596 -57 608 -65 L 626 -81 L 639 -91 Q 640 -92 647 -98 Q 654 -104 663 -117 Q 672 -129 679 -143 Q 686 -157 692 -159 Q 699 -161 714 -153 Q 728 -144 741 -127 Q 767 -89 765 -18 L 764 40 L 765 191 Q 765 217 768 227 Q 770 237 780 247 Q 789 256 790 261 Q 790 266 783 275 Q 776 284 756 297 Q 736 309 732 312 L 722 317 Q 718 317 701 310 Q 683 303 661 300 L 621 293 L 507 275 C 477 270 472 240 502 244 L 556 251 L 678 265 Q 698 269 705 260 Q 711 251 712 238 L 713 185 L 715 163 L 715 82 L 715 58 Z" fill="lightgray"></path>
				<path d="M 502 135 L 537 135 Q 560 136 603 144 L 715 163 C 745 168 742 179 713 185 L 697 188 L 680 194 Q 662 197 637 189 Q 611 181 593 178 L 553 171 Q 511 166 503 165 C 473 161 472 135 502 135 Z" fill="lightgray"></path>
				<path d="M 496 45 L 520 39 Q 539 35 546 35 Q 553 34 581 39 L 692 57 Q 700 58 715 58 C 745 58 744 77 715 82 L 688 87 Q 672 90 632 84 L 564 71 Q 560 71 498 63 C 468 59 467 52 496 45 Z" fill="lightgray"></path>
</g>
		<text x="40" y="140" font-size="128" fill="#999999">5</text></g>
</g>
	<g id="id1:id1" transform="translate(0.0,1024)">
		<g id="id1:id0:id0" transform="matrix(1.0,0,0,1.0,0,0.0)">			<g stroke="lightgray" stroke-width="4" transform="scale(4, 4)"> <rect x="0" y="0" width="256" height="256" fill="white" stroke-width="4"/></g>
			<g transform="scale(0.92, -0.92) translate(60, -920)">					<path d="M 219 598 Q 234 578 247 571 Q 258 563 271 564 Q 284 565 291 574 Q 299 587 299 600 Q 296 628 282 642 L 261 654 L 227 667 Q 206 674 194 675 L 175 679 Q 167 680 162 675 Q 159 670 165 666 L 219 598 Z" fill="black"></path>
				<path d="M 101 461 Q 91 462 85 458 Q 83 455 85 452 L 93 440 L 119 411 Q 143 381 149.5 373 Q 156 365 171 357 Q 186 349 198.5 350.5 Q 211 352 217 361 Q 230 381 219 413 Q 210 428 201 434 Q 165 454 119 457 L 101 461 Z" fill="black"></path>
				<path d="M 255 276 L 228.5 224.5 Q 202 173 192 159 Q 182 145 172 129.5 Q 162 114 133 78 Q 115 59 105.5 53 Q 96 47 94 45 Q 87 33 95 -3 L 108 -37 Q 113 -51 121 -65 Q 125 -78 129 -80 Q 144 -89 157 -74 Q 165 -61 169.5 -41 Q 174 -21 180.5 5.5 Q 187 32 213 97 L 241 168 Q 250 189 261 228 L 280 295 Q 281 302 275 304 Q 269 305 265 298 L 255 276 Z" fill="black"></path>
				<path d="M 425 596 L 377 587 Q 347 583 340 582 Q 333 581 331 575 Q 331 570 335 566 Q 342 556 370 556 Q 376 553 401 557 Q 426 561 432 562 L 448 564 L 489 570 L 573 589 Q 582 590 587 593.5 Q 592 597 591 601 Q 591 614 569 620 Q 555 627 542 627 L 494 612 L 450 601 L 437 598 L 435 598 Q 431 596 425 596 Z" fill="black"></path>
				<path d="M 448 564 L 445 524 Q 445 506 439 458 Q 433 410 433 409 Q 427 391 427 384 Q 427 377 432.5 358.5 Q 438 340 448 330 Q 449 325 454 323 Q 457 323 465 330 L 477 345 Q 483 353 485 360 Q 491 370 492 376 L 487 426 L 489 570 L 494 612 L 494 646 Q 494 682 499.5 697.5 Q 505 713 505 714.5 Q 505 716 499 723 Q 493 730 474 733.5 Q 455 737 447 740 Q 431 740 431 729 L 433 724 L 435 718 Q 443 702 445 680 Q 450 662 450 652 L 450 601 L 448 564 Z" fill="black"></path>
				<path d="M 289 355 Q 282 352 287 347 Q 288 343 297 346 L 320 354 Q 333 358 358.5 379.5 Q 384 401 385.5 407 Q 387 413 394 427 L 415 479 L 421 489 L 423 497 Q 423 512 384 522 Q 368 527 366 526 Q 352 522 358 511 Q 374 481 357 436 Q 341 401 339 397 Q 328 378 305 365 L 289 355 Z" fill="red"></path>
				<path d="M 515 458 Q 515 436 523 422 Q 535 395 576 395 Q 605 392 637 404 C 653 410 653 410 643 423 L 637 431 Q 627 444 611 444 L 601 440 L 586 436 Q 578 434 571 436 Q 563 436 559 440 Q 555 444 556 459 Q 557 474 561 481 Q 563 491 569 497 Q 575 506 576 509 Q 577 519 531 535 Q 521 536 517 535 Q 513 534 513 528 L 515 514 Q 519 507 518 486 Q 517 464 515 458 Z" fill="lightgray"></path>
				<path d="M 641 610 Q 629 611 626.5 607.5 Q 624 604 626 598 Q 628 588 653 582 Q 678 576 712 583 L 741 587 L 785 594 L 846 604 L 876 610 Q 892 613 898 621 Q 904 629 892 637.5 Q 880 646 867 650 Q 854 654 847.5 654 Q 841 654 816 646.5 Q 791 639 787 638 L 741 625 L 714 618 Q 706 618 702 617 L 641 610 Z" fill="lightgray"></path>
				<path d="M 741 587 L 737 512 L 733 453 L 725 394 L 729 374 Q 737 354 741 348 Q 749 340 755.5 338 Q 762 336 769 349 Q 784 378 785 391 L 781 455 L 785 594 L 787 638 L 787 666 L 788 671 L 790 687 L 792 708 Q 792 710 794 720 L 796 733 Q 796 736 787 743 Q 761 758 743 757 Q 725 756 725 750 Q 725 744 730.5 735 Q 736 726 739 699 L 741 671 L 741 625 L 741 587 Z" fill="lightgray"></path>
				<path d="M 637 404 L 628 392 Q 626 389 611 376 Q 603 366 597 360 L 584 354 Q 570 344 573 342 L 580 340 L 591 344 Q 594 344 601 348 L 622 357 Q 635 363 653 380 Q 690 414 693 438 Q 698 450 699 459.5 Q 700 469 702 478 Q 704 487 704 494.5 Q 704 502 708 506 L 712 515 Q 716 529 695 537 L 666 546 Q 655 549 653 547 Q 637 544 648.5 526 Q 660 508 658 480.5 Q 656 453 651 441 L 643 423 L 637 404 Z" fill="lightgray"></path>
				<path d="M 873 466 Q 873 499 880 511 Q 881 518 885.5 522.5 Q 890 527 890 530 Q 893 538 874 550 Q 855 562 832 562 Q 826 560 823.5 559 Q 821 558 823 553 L 825 537 Q 827 515 827 508 L 825 446 Q 824 425 832 403.5 Q 840 382 853 374 Q 867 361 882 360 Q 899 355 928.5 356.5 Q 958 358 978 370 Q 987 374 987 381 L 985 389 L 983 390 L 972 400 Q 964 409 960 412 Q 951 415 947 414 L 936 408 Q 925 401 903 400 Q 881 399 873 418 Q 869 423 871 436 L 873 466 Z" fill="lightgray"></path>
				<path d="M 447 30 Q 429 -33 426 -79 Q 426 -90 434 -103 Q 441 -116 443 -118 Q 455 -141 461 -136 Q 476 -124 491 -49 L 496 45 L 498 63 L 500 103 Q 501 108 502 135 L 503 165 L 505 199 Q 505 223 502 244 C 499 274 516 272 507 275 L 468 286 Q 451 289 443 286 Q 430 286 440 271 Q 449 256 451 240 Q 472 166 447 30 Z" fill="lightgray"></path>
				<path d="M 715 58 L 709 -11 Q 706 -55 692 -65 Q 680 -71 653 -64 L 636 -60 L 619 -54 Q 603 -50 600 -54 Q 596 -57 608 -65 L 626 -81 L 639 -91 Q 640 -92 647 -98 Q 654 -104 663 -117 Q 672 -129 679 -143 Q 686 -157 692 -159 Q 699 -161 714 -153 Q 728 -144 741 -127 Q 767 -89 765 -18 L 764 40 L 765 191 Q 765 217 768 227 Q 770 237 780 247 Q 789 256 790 261 Q 790 266 783 275 Q 776 284 756 297 Q 736 309 732 312 L 722 317 Q 718 317 701 310 Q 683 303 661 300 L 621 293 L 507 275 C 477 270 472 240 502 244 L 556 251 L 678 265 Q 698 269 705 260 Q 711 251 712 238 L 713 185 L 715 163 L 715 82 L 715 58 Z" fill="lightgray"></path>
				<path d="M 502 135 L 537 135 Q 560 136 603 144 L 715 163 C 745 168 742 179 713 185 L 697 188 L 680 194 Q 662 197 637 189 Q 611 181 593 178 L 553 171 Q 511 166 503 165 C 473 161 472 135 502 135 Z" fill="lightgray"></path>
				<path d="M 496 45 L 520 39 Q 539 35 546 35 Q 553 34 581 39 L 692 57 Q 700 58 715 58 C 745 58 744 77 715 82 L 688 87 Q 672 90 632 84 L 564 71 Q 560 71 498 63 C 468 59 467 52 496 45 Z" fill="lightgray"></path>
</g>
		<text x="40" y="140" font-size="128" fill="#999999">6</text></g>
		<g id="id1:id1:id1" transform="matrix(1.0,0,0,1.0,1024,0.0)">			<g stroke="lightgray" stroke-width="4" transform="scale(4, 4)"> <rect x="0" y="0" width="256" height="256" fill="white" stroke-width="4"/></g>
			<g transform="scale(0.92, -0.92) translate(60, -920)">					<path d="M 219 598 Q 234 578 247 571 Q 258 563 271 564 Q 284 565 291 574 Q 299 587 299 600 Q 296 628 282 642 L 261 654 L 227 667 Q 206 674 194 675 L 175 679 Q 167 680 162 675 Q 159 670 165 666 L 219 598 Z" fill="black"></path>
				<path d="M 101 461 Q 91 462 85 458 Q 83 455 85 452 L 93 440 L 119 411 Q 143 381 149.5 373 Q 156 365 171 357 Q 186 349 198.5 350.5 Q 211 352 217 361 Q 230 381 219 413 Q 210 428 201 434 Q 165 454 119 457 L 101 461 Z" fill="black"></path>
				<path d="M 255 276 L 228.5 224.5 Q 202 173 192 159 Q 182 145 172 129.5 Q 162 114 133 78 Q 115 59 105.5 53 Q 96 47 94 45 Q 87 33 95 -3 L 108 -37 Q 113 -51 121 -65 Q 125 -78 129 -80 Q 144 -89 157 -74 Q 165 -61 169.5 -41 Q 174 -21 180.5 5.5 Q 187 32 213 97 L 241 168 Q 250 189 261 228 L 280 295 Q 281 302 275 304 Q 269 305 265 298 L 255 276 Z" fill="black"></path>
				<path d="M 425 596 L 377 587 Q 347 583 340 582 Q 333 581 331 575 Q 331 570 335 566 Q 342 556 370 556 Q 376 553 401 557 Q 426 561 432 562 L 448 564 L 489 570 L 573 589 Q 582 590 587 593.5 Q 592 597 591 601 Q 591 614 569 620 Q 555 627 542 627 L 494 612 L 450 601 L 437 598 L 435 598 Q 431 596 425 596 Z" fill="black"></path>
				<path d="M 448 564 L 445 524 Q 445 506 439 458 Q 433 410 433 409 Q 427 391 427 384 Q 427 377 432.5 358.5 Q 438 340 448 330 Q 449 325 454 323 Q 457 323 465 330 L 477 345 Q 483 353 485 360 Q 491 370 492 376 L 487 426 L 489 570 L 494 612 L 494 646 Q 494 682 499.5 697.5 Q 505 713 505 714.5 Q 505 716 499 723 Q 493 730 474 733.5 Q 455 737 447 740 Q 431 740 431 729 L 433 724 L 435 718 Q 443 702 445 680 Q 450 662 450 652 L 450 601 L 448 564 Z" fill="black"></path>
				<path d="M 289 355 Q 282 352 287 347 Q 288 343 297 346 L 320 354 Q 333 358 358.5 379.5 Q 384 401 385.5 407 Q 387 413 394 427 L 415 479 L 421 489 L 423 497 Q 423 512 384 522 Q 368 527 366 526 Q 352 522 358 511 Q 374 481 357 436 Q 341 401 339 397 Q 328 378 305 365 L 289 355 Z" fill="black"></path>
				<path d="M 515 458 Q 515 436 523 422 Q 535 395 576 395 Q 605 392 637 404 C 653 410 653 410 643 423 L 637 431 Q 627 444 611 444 L 601 440 L 586 436 Q 578 434 571 436 Q 563 436 559 440 Q 555 444 556 459 Q 557 474 561 481 Q 563 491 569 497 Q 575 506 576 509 Q 577 519 531 535 Q 521 536 517 535 Q 513 534 513 528 L 515 514 Q 519 507 518 486 Q 517 464 515 458 Z" fill="red"></path>
				<path d="M 641 610 Q 629 611 626.5 607.5 Q 624 604 626 598 Q 628 588 653 582 Q 678 576 712 583 L 741 587 L 785 594 L 846 604 L 876 610 Q 892 613 898 621 Q 904 629 892 637.5 Q 880 646 867 650 Q 854 654 847.5 654 Q 841 654 816 646.5 Q 791 639 787 638 L 741 625 L 714 618 Q 706 618 702 617 L 641 610 Z" fill="lightgray"></path>
				<path d="M 741 587 L 737 512 L 733 453 L 725 394 L 729 374 Q 737 354 741 348 Q 749 340 755.5 338 Q 762 336 769 349 Q 784 378 785 391 L 781 455 L 785 594 L 787 638 L 787 666 L 788 671 L 790 687 L 792 708 Q 792 710 794 720 L 796 733 Q 796 736 787 743 Q 761 758 743 757 Q 725 756 725 750 Q 725 744 730.5 735 Q 736 726 739 699 L 741 671 L 741 625 L 741 587 Z" fill="lightgray"></path>
				<path d="M 637 404 L 628 392 Q 626 389 611 376 Q 603 366 597 360 L 584 354 Q 570 344 573 342 L 580 340 L 591 344 Q 594 344 601 348 L 622 357 Q 635 363 653 380 Q 690 414 693 438 Q 698 450 699 459.5 Q 700 469 702 478 Q 704 487 704 494.5 Q 704 502 708 506 L 712 515 Q 716 529 695 537 L 666 546 Q 655 549 653 547 Q 637 544 648.5 526 Q 660 508 658 480.5 Q 656 453 651 441 L 643 423 L 637 404 Z" fill="lightgray"></path>
				<path d="M 873 466 Q 873 499 880 511 Q 881 518 885.5 522.5 Q 890 527 890 530 Q 893 538 874 550 Q 855 562 832 562 Q 826 560 823.5 559 Q 821 558 823 553 L 825 537 Q 827 515 827 508 L 825 446 Q 824 425 832 403.5 Q 840 382 853 374 Q 867 361 882 360 Q 899 355 928.5 356.5 Q 958 358 978 370 Q 987 374 987 381 L 985 389 L 983 390 L 972 400 Q 964 409 960 412 Q 951 415 947 414 L 936 408 Q 925 401 903 400 Q 881 399 873 418 Q 869 423 871 436 L 873 466 Z" fill="lightgray"></path>
				<path d="M 447 30 Q 429 -33 426 -79 Q 426 -90 434 -103 Q 441 -116 443 -118 Q 455 -141 461 -136 Q 476 -124 491 -49 L 496 45 L 498 63 L 500 103 Q 501 108 502 135 L 503 165 L 505 199 Q 505 223 502 244 C 499 274 516 272 507 275 L 468 286 Q 451 289 443 286 Q 430 286 440 271 Q 449 256 451 240 Q 472 166 447 30 Z" fill="lightgray"></path>
				<path d="M 715 58 L 709 -11 Q 706 -55 692 -65 Q 680 -71 653 -64 L 636 -60 L 619 -54 Q 603 -50 600 -54 Q 596 -57 608 -65 L 626 -81 L 639 -91 Q 640 -92 647 -98 Q 654 -104 663 -117 Q 672 -129 679 -143 Q 686 -157 692 -159 Q 699 -161 714 -153 Q 728 -144 741 -127 Q 767 -89 765 -18 L 764 40 L 765 191 Q 765 217 768 227 Q 770 237 780 247 Q 789 256 790 261 Q 790 266 783 275 Q 776 284 756 297 Q 736 309 732 312 L 722 317 Q 718 317 701 310 Q 683 303 661 300 L 621 293 L 507 275 C 477 270 472 240 502 244 L 556 251 L 678 265 Q 698 269 705 260 Q 711 251 712 238 L 713 185 L 715 163 L 715 82 L 715 58 Z" fill="lightgray"></path>
				<path d="M 502 135 L 537 135 Q 560 136 603 144 L 715 163 C 745 168 742 179 713 185 L 697 188 L 680 194 Q 662 197 637 189 Q 611 181 593 178 L 553 171 Q 511 166 503 165 C 473 161 472 135 502 135 Z" fill="lightgray"></path>
				<path d="M 496 45 L 520 39 Q 539 35 546 35 Q 553 34 581 39 L 692 57 Q 700 58 715 58 C 745 58 744 77 715 82 L 688 87 Q 672 90 632 84 L 564 71 Q 560 71 498 63 C 468 59 467 52 496 45 Z" fill="lightgray"></path>
</g>
		<text x="40" y="140" font-size="128" fill="#999999">7</text></g>
		<g id="id1:id2:id2" transform="matrix(1.0,0,0,1.0,2048,0.0)">			<g stroke="lightgray" stroke-width="4" transform="scale(4, 4)"> <rect x="0" y="0" width="256" height="256" fill="white" stroke-width="4"/></g>
			<g transform="scale(0.92, -0.92) translate(60, -920)">					<path d="M 219 598 Q 234 578 247 571 Q 258 563 271 564 Q 284 565 291 574 Q 299 587 299 600 Q 296 628 282 642 L 261 654 L 227 667 Q 206 674 194 675 L 175 679 Q 167 680 162 675 Q 159 670 165 666 L 219 598 Z" fill="black"></path>
				<path d="M 101 461 Q 91 462 85 458 Q 83 455 85 452 L 93 440 L 119 411 Q 143 381 149.5 373 Q 156 365 171 357 Q 186 349 198.5 350.5 Q 211 352 217 361 Q 230 381 219 413 Q 210 428 201 434 Q 165 454 119 457 L 101 461 Z" fill="black"></path>
				<path d="M 255 276 L 228.5 224.5 Q 202 173 192 159 Q 182 145 172 129.5 Q 162 114 133 78 Q 115 59 105.5 53 Q 96 47 94 45 Q 87 33 95 -3 L 108 -37 Q 113 -51 121 -65 Q 125 -78 129 -80 Q 144 -89 157 -74 Q 165 -61 169.5 -41 Q 174 -21 180.5 5.5 Q 187 32 213 97 L 241 168 Q 250 189 261 228 L 280 295 Q 281 302 275 304 Q 269 305 265 298 L 255 276 Z" fill="black"></path>
				<path d="M 425 596 L 377 587 Q 347 583 340 582 Q 333 581 331 575 Q 331 570 335 566 Q 342 556 370 556 Q 376 553 401 557 Q 426 561 432 562 L 448 564 L 489 570 L 573 589 Q 582 590 587 593.5 Q 592 597 591 601 Q 591 614 569 620 Q 555 627 542 627 L 494 612 L 450 601 L 437 598 L 435 598 Q 431 596 425 596 Z" fill="black"></path>
				<path d="M 448 564 L 445 524 Q 445 506 439 458 Q 433 410 433 409 Q 427 391 427 384 Q 427 377 432.5 358.5 Q 438 340 448 330 Q 449 325 454 323 Q 457 323 465 330 L 477 345 Q 483 353 485 360 Q 491 370 492 376 L 487 426 L 489 570 L 494 612 L 494 646 Q 494 682 499.5 697.5 Q 505 713 505 714.5 Q 505 716 499 723 Q 493 730 474 733.5 Q 455 737 447 740 Q 431 740 431 729 L 433 724 L 435 718 Q 443 702 445 680 Q 450 662 450 652 L 450 601 L 448 564 Z" fill="black"></path>
				<path d="M 289 355 Q 282 352 287 347 Q 288 343 297 346 L 320 354 Q 333 358 358.5 379.5 Q 384 401 385.5 407 Q 387 413 394 427 L 415 479 L 421 489 L 423 497 Q 423 512 384 522 Q 368 527 366 526 Q 352 522 358 511 Q 374 481 357 436 Q 341 401 339 397 Q 328 378 305 365 L 289 355 Z" fill="black"></path>
				<path d="M 515 458 Q 515 436 523 422 Q 535 395 576 395 Q 605 392 637 404 C 653 410 653 410 643 423 L 637 431 Q 627 444 611 444 L 601 440 L 586 436 Q 578 434 571 436 Q 563 436 559 440 Q 555 444 556 459 Q 557 474 561 481 Q 563 491 569 497 Q 575 506 576 509 Q 577 519 531 535 Q 521 536 517 535 Q 513 534 513 528 L 515 514 Q 519 507 518 486 Q 517 464 515 458 Z" fill="black"></path>
				<path d="M 641 610 Q 629 611 626.5 607.5 Q 624 604 626 598 Q 628 588 653 582 Q 678 576 712 583 L 741 587 L 785 594 L 846 604 L 876 610 Q 892 613 898 621 Q 904 629 892 637.5 Q 880 646 867 650 Q 854 654 847.5 654 Q 841 654 816 646.5 Q 791 639 787 638 L 741 625 L 714 618 Q 706 618 702 617 L 641 610 Z" fill="red"></path>
				<path d="M 741 587 L 737 512 L 733 453 L 725 394 L 729 374 Q 737 354 741 348 Q 749 340 755.5 338 Q 762 336 769 349 Q 784 378 785 391 L 781 455 L 785 594 L 787 638 L 787 666 L 788 671 L 790 687 L 792 708 Q 792 710 794 720 L 796 733 Q 796 736 787 743 Q 761 758 743 757 Q 725 756 725 750 Q 725 744 730.5 735 Q 736 726 739 699 L 741 671 L 741 625 L 741 587 Z" fill="lightgray"></path>
				<path d="M 637 404 L 628 392 Q 626 389 611 376 Q 603 366 597 360 L 584 354 Q 570 344 573 342 L 580 340 L 591 344 Q 594 344 601 348 L 622 357 Q 635 363 653 380 Q 690 414 693 438 Q 698 450 699 459.5 Q 700 469 702 478 Q 704 487 704 494.5 Q 704 502 708 506 L 712 515 Q 716 529 695 537 L 666 546 Q 655 549 653 547 Q 637 544 648.5 526 Q 660 508 658 480.5 Q 656 453 651 441 L 643 423 L 637 404 Z" fill="lightgray"></path>
				<path d="M 873 466 Q 873 499 880 511 Q 881 518 885.5 522.5 Q 890 527 890 530 Q 893 538 874 550 Q 855 562 832 562 Q 826 560 823.5 559 Q 821 558 823 553 L 825 537 Q 827 515 827 508 L 825 446 Q 824 425 832 403.5 Q 840 382 853 374 Q 867 361 882 360 Q 899 355 928.5 356.5 Q 958 358 978 370 Q 987 374 987 381 L 985 389 L 983 390 L 972 400 Q 964 409 960 412 Q 951 415 947 414 L 936 408 Q 925 401 903 400 Q 881 399 873 418 Q 869 423 871 436 L 873 466 Z" fill="lightgray"></path>
				<path d="M 447 30 Q 429 -33 426 -79 Q 426 -90 434 -103 Q 441 -116 443 -118 Q 455 -141 461 -136 Q 476 -124 491 -49 L 496 45 L 498 63 L 500 103 Q 501 108 502 135 L 503 165 L 505 199 Q 505 223 502 244 C 499 274 516 272 507 275 L 468 286 Q 451 289 443 286 Q 430 286 440 271 Q 449 256 451 240 Q 472 166 447 30 Z" fill="lightgray"></path>
				<path d="M 715 58 L 709 -11 Q 706 -55 692 -65 Q 680 -71 653 -64 L 636 -60 L 619 -54 Q 603 -50 600 -54 Q 596 -57 608 -65 L 626 -81 L 639 -91 Q 640 -92 647 -98 Q 654 -104 663 -117 Q 672 -129 679 -143 Q 686 -157 692 -159 Q 699 -161 714 -153 Q 728 -144 741 -127 Q 767 -89 765 -18 L 764 40 L 765 191 Q 765 217 768 227 Q 770 237 780 247 Q 789 256 790 261 Q 790 266 783 275 Q 776 284 756 297 Q 736 309 732 312 L 722 317 Q 718 317 701 310 Q 683 303 661 300 L 621 293 L 507 275 C 477 270 472 240 502 244 L 556 251 L 678 265 Q 698 269 705 260 Q 711 251 712 238 L 713 185 L 715 163 L 715 82 L 715 58 Z" fill="lightgray"></path>
				<path d="M 502 135 L 537 135 Q 560 136 603 144 L 715 163 C 745 168 742 179 713 185 L 697 188 L 680 194 Q 662 197 637 189 Q 611 181 593 178 L 553 171 Q 511 166 503 165 C 473 161 472 135 502 135 Z" fill="lightgray"></path>
				<path d="M 496 45 L 520 39 Q 539 35 546 35 Q 553 34 581 39 L 692 57 Q 700 58 715 58 C 745 58 744 77 715 82 L 688 87 Q 672 90 632 84 L 564 71 Q 560 71 498 63 C 468 59 467 52 496 45 Z" fill="lightgray"></path>
</g>
		<text x="40" y="140" font-size="128" fill="#999999">8</text></g>
		<g id="id1:id3:id3" transform="matrix(1.0,0,0,1.0,3072,0.0)">			<g stroke="lightgray" stroke-width="4" transform="scale(4, 4)"> <rect x="0" y="0" width="256" height="256" fill="white" stroke-width="4"/></g>
			<g transform="scale(0.92, -0.92) translate(60, -920)">					<path d="M 219 598 Q 234 578 247 571 Q 258 563 271 564 Q 284 565 291 574 Q 299 587 299 600 Q 296 628 282 642 L 261 654 L 227 667 Q 206 674 194 675 L 175 679 Q 167 680 162 675 Q 159 670 165 666 L 219 598 Z" fill="black"></path>
				<path d="M 101 461 Q 91 462 85 458 Q 83 455 85 452 L 93 440 L 119 411 Q 143 381 149.5 373 Q 156 365 171 357 Q 186 349 198.5 350.5 Q 211 352 217 361 Q 230 381 219 413 Q 210 428 201 434 Q 165 454 119 457 L 101 461 Z" fill="black"></path>
				<path d="M 255 276 L 228.5 224.5 Q 202 173 192 159 Q 182 145 172 129.5 Q 162 114 133 78 Q 115 59 105.5 53 Q 96 47 94 45 Q 87 33 95 -3 L 108 -37 Q 113 -51 121 -65 Q 125 -78 129 -80 Q 144 -89 157 -74 Q 165 -61 169.5 -41 Q 174 -21 180.5 5.5 Q 187 32 213 97 L 241 168 Q 250 189 261 228 L 280 295 Q 281 302 275 304 Q 269 305 265 298 L 255 276 Z" fill="black"></path>
				<path d="M 425 596 L 377 587 Q 347 583 340 582 Q 333 581 331 575 Q 331 570 335 566 Q 342 556 370 556 Q 376 553 401 557 Q 426 561 432 562 L 448 564 L 489 570 L 573 589 Q 582 590 587 593.5 Q 592 597 591 601 Q 591 614 569 620 Q 555 627 542 627 L 494 612 L 450 601 L 437 598 L 435 598 Q 431 596 425 596 Z" fill="black"></path>
				<path d="M 448 564 L 445 524 Q 445 506 439 458 Q 433 410 433 409 Q 427 391 427 384 Q 427 377 432.5 358.5 Q 438 340 448 330 Q 449 325 454 323 Q 457 323 465 330 L 477 345 Q 483 353 485 360 Q 491 370 492 376 L 487 426 L 489 570 L 494 612 L 494 646 Q 494 682 499.5 697.5 Q 505 713 505 714.5 Q 505 716 499 723 Q 493 730 474 733.5 Q 455 737 447 740 Q 431 740 431 729 L 433 724 L 435 718 Q 443 702 445 680 Q 450 662 450 652 L 450 601 L 448 564 Z" fill="black"></path>
				<path d="M 289 355 Q 282 352 287 347 Q 288 343 297 346 L 320 354 Q 333 358 358.5 379.5 Q 384 401 385.5 407 Q 387 413 394 427 L 415 479 L 421 489 L 423 497 Q 423 512 384 522 Q 368 527 366 526 Q 352 522 358 511 Q 374 481 357 436 Q 341 401 339 397 Q 328 378 305 365 L 289 355 Z" fill="black"></path>
				<path d="M 515 458 Q 515 436 523 422 Q 535 395 576 395 Q 605 392 637 404 C 653 410 653 410 643 423 L 637 431 Q 627 444 611 444 L 601 440 L 586 436 Q 578 434 571 436 Q 563 436 559 440 Q 555 444 556 459 Q 557 474 561 481 Q 563 491 569 497 Q 575 506 576 509 Q 577 519 531 535 Q 521 536 517 535 Q 513 534 513 528 L 515 514 Q 519 507 518 486 Q 517 464 515 458 Z" fill="black"></path>
				<path d="M 641 610 Q 629 611 626.5 607.5 Q 624 604 626 598 Q 628 588 653 582 Q 678 576 712 583 L 741 587 L 785 594 L 846 604 L 876 610 Q 892 613 898 621 Q 904 629 892 637.5 Q 880 646 867 650 Q 854 654 847.5 654 Q 841 654 816 646.5 Q 791 639 787 638 L 741 625 L 714 618 Q 706 618 702 617 L 641 610 Z" fill="black"></path>
				<path d="M 741 587 L 737 512 L 733 453 L 725 394 L 729 374 Q 737 354 741 348 Q 749 340 755.5 338 Q 762 336 769 349 Q 784 378 785 391 L 781 455 L 785 594 L 787 638 L 787 666 L 788 671 L 790 687 L 792 708 Q 792 710 794 720 L 796 733 Q 796 736 787 743 Q 761 758 743 757 Q 725 756 725 750 Q 725 744 730.5 735 Q 736 726 739 699 L 741 671 L 741 625 L 741 587 Z" fill="red"></path>
				<path d="M 637 404 L 628 392 Q 626 389 611 376 Q 603 366 597 360 L 584 354 Q 570 344 573 342 L 580 340 L 591 344 Q 594 344 601 348 L 622 357 Q 635 363 653 380 Q 690 414 693 438 Q 698 450 699 459.5 Q 700 469 702 478 Q 704 487 704 494.5 Q 704 502 708 506 L 712 515 Q 716 529 695 537 L 666 546 Q 655 549 653 547 Q 637 544 648.5 526 Q 660 508 658 480.5 Q 656 453 651 441 L 643 423 L 637 404 Z" fill="lightgray"></path>
				<path d="M 873 466 Q 873 499 880 511 Q 881 518 885.5 522.5 Q 890 527 890 530 Q 893 538 874 550 Q 855 562 832 562 Q 826 560 823.5 559 Q 821 558 823 553 L 825 537 Q 827 515 827 508 L 825 446 Q 824 425 832 403.5 Q 840 382 853 374 Q 867 361 882 360 Q 899 355 928.5 356.5 Q 958 358 978 370 Q 987 374 987 381 L 985 389 L 983 390 L 972 400 Q 964 409 960 412 Q 951 415 947 414 L 936 408 Q 925 401 903 400 Q 881 399 873 418 Q 869 423 871 436 L 873 466 Z" fill="lightgray"></path>
				<path d="M 447 30 Q 429 -33 426 -79 Q 426 -90 434 -103 Q 441 -116 443 -118 Q 455 -141 461 -136 Q 476 -124 491 -49 L 496 45 L 498 63 L 500 103 Q 501 108 502 135 L 503 165 L 505 199 Q 505 223 502 244 C 499 274 516 272 507 275 L 468 286 Q 451 289 443 286 Q 430 286 440 271 Q 449 256 451 240 Q 472 166 447 30 Z" fill="lightgray"></path>
				<path d="M 715 58 L 709 -11 Q 706 -55 692 -65 Q 680 -71 653 -64 L 636 -60 L 619 -54 Q 603 -50 600 -54 Q 596 -57 608 -65 L 626 -81 L 639 -91 Q 640 -92 647 -98 Q 654 -104 663 -117 Q 672 -129 679 -143 Q 686 -157 692 -159 Q 699 -161 714 -153 Q 728 -144 741 -127 Q 767 -89 765 -18 L 764 40 L 765 191 Q 765 217 768 227 Q 770 237 780 247 Q 789 256 790 261 Q 790 266 783 275 Q 776 284 756 297 Q 736 309 732 312 L 722 317 Q 718 317 701 310 Q 683 303 661 300 L 621 293 L 507 275 C 477 270 472 240 502 244 L 556 251 L 678 265 Q 698 269 705 260 Q 711 251 712 238 L 713 185 L 715 163 L 715 82 L 715 58 Z" fill="lightgray"></path>
				<path d="M 502 135 L 537 135 Q 560 136 603 144 L 715 163 C 745 168 742 179 713 185 L 697 188 L 680 194 Q 662 197 637 189 Q 611 181 593 178 L 553 171 Q 511 166 503 165 C 473 161 472 135 502 135 Z" fill="lightgray"></path>
				<path d="M 496 45 L 520 39 Q 539 35 546 35 Q 553 34 581 39 L 692 57 Q 700 58 715 58 C 745 58 744 77 715 82 L 688 87 Q 672 90 632 84 L 564 71 Q 560 71 498 63 C 468 59 467 52 496 45 Z" fill="lightgray"></path>
</g>
		<text x="40" y="140" font-size="128" fill="#999999">9</text></g>
		<g id="id1:id4:id4" transform="matrix(1.0,0,0,1.0,4096,0.0)">			<g stroke="lightgray" stroke-width="4" transform="scale(4, 4)"> <rect x="0" y="0" width="256" height="256" fill="white" stroke-width="4"/></g>
			<g transform="scale(0.92, -0.92) translate(60, -920)">					<path d="M 219 598 Q 234 578 247 571 Q 258 563 271 564 Q 284 565 291 574 Q 299 587 299 600 Q 296 628 282 642 L 261 654 L 227 667 Q 206 674 194 675 L 175 679 Q 167 680 162 675 Q 159 670 165 666 L 219 598 Z" fill="black"></path>
				<path d="M 101 461 Q 91 462 85 458 Q 83 455 85 452 L 93 440 L 119 411 Q 143 381 149.5 373 Q 156 365 171 357 Q 186 349 198.5 350.5 Q 211 352 217 361 Q 230 381 219 413 Q 210 428 201 434 Q 165 454 119 457 L 101 461 Z" fill="black"></path>
				<path d="M 255 276 L 228.5 224.5 Q 202 173 192 159 Q 182 145 172 129.5 Q 162 114 133 78 Q 115 59 105.5 53 Q 96 47 94 45 Q 87 33 95 -3 L 108 -37 Q 113 -51 121 -65 Q 125 -78 129 -80 Q 144 -89 157 -74 Q 165 -61 169.5 -41 Q 174 -21 180.5 5.5 Q 187 32 213 97 L 241 168 Q 250 189 261 228 L 280 295 Q 281 302 275 304 Q 269 305 265 298 L 255 276 Z" fill="black"></path>
				<path d="M 425 596 L 377 587 Q 347 583 340 582 Q 333 581 331 575 Q 331 570 335 566 Q 342 556 370 556 Q 376 553 401 557 Q 426 561 432 562 L 448 564 L 489 570 L 573 589 Q 582 590 587 593.5 Q 592 597 591 601 Q 591 614 569 620 Q 555 627 542 627 L 494 612 L 450 601 L 437 598 L 435 598 Q 431 596 425 596 Z" fill="black"></path>
				<path d="M 448 564 L 445 524 Q 445 506 439 458 Q 433 410 433 409 Q 427 391 427 384 Q 427 377 432.5 358.5 Q 438 340 448 330 Q 449 325 454 323 Q 457 323 465 330 L 477 345 Q 483 353 485 360 Q 491 370 492 376 L 487 426 L 489 570 L 494 612 L 494 646 Q 494 682 499.5 697.5 Q 505 713 505 714.5 Q 505 716 499 723 Q 493 730 474 733.5 Q 455 737 447 740 Q 431 740 431 729 L 433 724 L 435 718 Q 443 702 445 680 Q 450 662 450 652 L 450 601 L 448 564 Z" fill="black"></path>
				<path d="M 289 355 Q 282 352 287 347 Q 288 343 297 346 L 320 354 Q 333 358 358.5 379.5 Q 384 401 385.5 407 Q 387 413 394 427 L 415 479 L 421 489 L 423 497 Q 423 512 384 522 Q 368 527 366 526 Q 352 522 358 511 Q 374 481 357 436 Q 341 401 339 397 Q 328 378 305 365 L 289 355 Z" fill="black"></path>
				<path d="M 515 458 Q 515 436 523 422 Q 535 395 576 395 Q 605 392 637 404 C 653 410 653 410 643 423 L 637 431 Q 627 444 611 444 L 601 440 L 586 436 Q 578 434 571 436 Q 563 436 559 440 Q 555 444 556 459 Q 557 474 561 481 Q 563 491 569 497 Q 575 506 576 509 Q 577 519 531 535 Q 521 536 517 535 Q 513 534 513 528 L 515 514 Q 519 507 518 486 Q 517 464 515 458 Z" fill="black"></path>
				<path d="M 641 610 Q 629 611 626.5 607.5 Q 624 604 626 598 Q 628 588 653 582 Q 678 576 712 583 L 741 587 L 785 594 L 846 604 L 876 610 Q 892 613 898 621 Q 904 629 892 637.5 Q 880 646 867 650 Q 854 654 847.5 654 Q 841 654 816 646.5 Q 791 639 787 638 L 741 625 L 714 618 Q 706 618 702 617 L 641 610 Z" fill="black"></path>
				<path d="M 741 587 L 737 512 L 733 453 L 725 394 L 729 374 Q 737 354 741 348 Q 749 340 755.5 338 Q 762 336 769 349 Q 784 378 785 391 L 781 455 L 785 594 L 787 638 L 787 666 L 788 671 L 790 687 L 792 708 Q 792 710 794 720 L 796 733 Q 796 736 787 743 Q 761 758 743 757 Q 725 756 725 750 Q 725 744 730.5 735 Q 736 726 739 699 L 741 671 L 741 625 L 741 587 Z" fill="black"></path>
				<path d="M 637 404 L 628 392 Q 626 389 611 376 Q 603 366 597 360 L 584 354 Q 570 344 573 342 L 580 340 L 591 344 Q 594 344 601 348 L 622 357 Q 635 363 653 380 Q 690 414 693 438 Q 698 450 699 459.5 Q 700 469 702 478 Q 704 487 704 494.5 Q 704 502 708 506 L 712 515 Q 716 529 695 537 L 666 546 Q 655 549 653 547 Q 637 544 648.5 526 Q 660 508 658 480.5 Q 656 453 651 441 L 643 423 L 637 404 Z" fill="red"></path>
				<path d="M 873 466 Q 873 499 880 511 Q 881 518 885.5 522.5 Q 890 527 890 530 Q 893 538 874 550 Q 855 562 832 562 Q 826 560 823.5 559 Q 821 558 823 553 L 825 537 Q 827 515 827 508 L 825 446 Q 824 425 832 403.5 Q 840 382 853 374 Q 867 361 882 360 Q 899 355 928.5 356.5 Q 958 358 978 370 Q 987 374 987 381 L 985 389 L 983 390 L 972 400 Q 964 409 960 412 Q 951 415 947 414 L 936 408 Q 925 401 903 400 Q 881 399 873 418 Q 869 423 871 436 L 873 466 Z" fill="lightgray"></path>
				<path d="M 447 30 Q 429 -33 426 -79 Q 426 -90 434 -103 Q 441 -116 443 -118 Q 455 -141 461 -136 Q 476 -124 491 -49 L 496 45 L 498 63 L 500 103 Q 501 108 502 135 L 503 165 L 505 199 Q 505 223 502 244 C 499 274 516 272 507 275 L 468 286 Q 451 289 443 286 Q 430 286 440 271 Q 449 256 451 240 Q 472 166 447 30 Z" fill="lightgray"></path>
				<path d="M 715 58 L 709 -11 Q 706 -55 692 -65 Q 680 -71 653 -64 L 636 -60 L 619 -54 Q 603 -50 600 -54 Q 596 -57 608 -65 L 626 -81 L 639 -91 Q 640 -92 647 -98 Q 654 -104 663 -117 Q 672 -129 679 -143 Q 686 -157 692 -159 Q 699 -161 714 -153 Q 728 -144 741 -127 Q 767 -89 765 -18 L 764 40 L 765 191 Q 765 217 768 227 Q 770 237 780 247 Q 789 256 790 261 Q 790 266 783 275 Q 776 284 756 297 Q 736 309 732 312 L 722 317 Q 718 317 701 310 Q 683 303 661 300 L 621 293 L 507 275 C 477 270 472 240 502 244 L 556 251 L 678 265 Q 698 269 705 260 Q 711 251 712 238 L 713 185 L 715 163 L 715 82 L 715 58 Z" fill="lightgray"></path>
				<path d="M 502 135 L 537 135 Q 560 136 603 144 L 715 163 C 745 168 742 179 713 185 L 697 188 L 680 194 Q 662 197 637 189 Q 611 181 593 178 L 553 171 Q 511 166 503 165 C 473 161 472 135 502 135 Z" fill="lightgray"></path>
				<path d="M 496 45 L 520 39 Q 539 35 546 35 Q 553 34 581 39 L 692 57 Q 700 58 715 58 C 745 58 744 77 715 82 L 688 87 Q 672 90 632 84 L 564 71 Q 560 71 498 63 C 468 59 467 52 496 45 Z" fill="lightgray"></path>
</g>
		<text x="40" y="140" font-size="128" fill="#999999">10</text></g>
</g>
	<g id="id2:id2" transform="translate(0.0,2048)">
		<g id="id2:id0:id0" transform="matrix(1.0,0,0,1.0,0,0.0)">			<g stroke="lightgray" stroke-width="4" transform="scale(4, 4)"> <rect x="0" y="0" width="256" height="256" fill="white" stroke-width="4"/></g>
			<g transform="scale(0.92, -0.92) translate(60, -920)">					<path d="M 219 598 Q 234 578 247 571 Q 258 563 271 564 Q 284 565 291 574 Q 299 587 299 600 Q 296 628 282 642 L 261 654 L 227 667 Q 206 674 194 675 L 175 679 Q 167 680 162 675 Q 159 670 165 666 L 219 598 Z" fill="black"></path>
				<path d="M 101 461 Q 91 462 85 458 Q 83 455 85 452 L 93 440 L 119 411 Q 143 381 149.5 373 Q 156 365 171 357 Q 186 349 198.5 350.5 Q 211 352 217 361 Q 230 381 219 413 Q 210 428 201 434 Q 165 454 119 457 L 101 461 Z" fill="black"></path>
				<path d="M 255 276 L 228.5 224.5 Q 202 173 192 159 Q 182 145 172 129.5 Q 162 114 133 78 Q 115 59 105.5 53 Q 96 47 94 45 Q 87 33 95 -3 L 108 -37 Q 113 -51 121 -65 Q 125 -78 129 -80 Q 144 -89 157 -74 Q 165 -61 169.5 -41 Q 174 -21 180.5 5.5 Q 187 32 213 97 L 241 168 Q 250 189 261 228 L 280 295 Q 281 302 275 304 Q 269 305 265 298 L 255 276 Z" fill="black"></path>
				<path d="M 425 596 L 377 587 Q 347 583 340 582 Q 333 581 331 575 Q 331 570 335 566 Q 342 556 370 556 Q 376 553 401 557 Q 426 561 432 562 L 448 564 L 489 570 L 573 589 Q 582 590 587 593.5 Q 592 597 591 601 Q 591 614 569 620 Q 555 627 542 627 L 494 612 L 450 601 L 437 598 L 435 598 Q 431 596 425 596 Z" fill="black"></path>
				<path d="M 448 564 L 445 524 Q 445 506 439 458 Q 433 410 433 409 Q 427 391 427 384 Q 427 377 432.5 358.5 Q 438 340 448 330 Q 449 325 454 323 Q 457 323 465 330 L 477 345 Q 483 353 485 360 Q 491 370 492 376 L 487 426 L 489 570 L 494 612 L 494 646 Q 494 682 499.5 697.5 Q 505 713 505 714.5 Q 505 716 499 723 Q 493 730 474 733.5 Q 455 737 447 740 Q 431 740 431 729 L 433 724 L 435 718 Q 443 702 445 680 Q 450 662 450 652 L 450 601 L 448 564 Z" fill="black"></path>
				<path d="M 289 355 Q 282 352 287 347 Q 288 343 297 346 L 320 354 Q 333 358 358.5 379.5 Q 384 401 385.5 407 Q 387 413 394 427 L 415 479 L 421 489 L 423 497 Q 423 512 384 522 Q 368 527 366 526 Q 352 522 358 511 Q 374 481 357 436 Q 341 401 339 397 Q 328 378 305 365 L 289 355 Z" fill="black"></path>
				<path d="M 515 458 Q 515 436 523 422 Q 535 395 576 395 Q 605 392 637 404 C 653 410 653 410 643 423 L 637 431 Q 627 444 611 444 L 601 440 L 586 436 Q 578 434 571 436 Q 563 436 559 440 Q 555 444 556 459 Q 557 474 561 481 Q 563 491 569 497 Q 575 506 576 509 Q 577 519 531 535 Q 521 536 517 535 Q 513 534 513 528 L 515 514 Q 519 507 518 486 Q 517 464 515 458 Z" fill="black"></path>
				<path d="M 641 610 Q 629 611 626.5 607.5 Q 624 604 626 598 Q 628 588 653 582 Q 678 576 712 583 L 741 587 L 785 594 L 846 604 L 876 610 Q 892 613 898 621 Q 904 629 892 637.5 Q 880 646 867 650 Q 854 654 847.5 654 Q 841 654 816 646.5 Q 791 639 787 638 L 741 625 L 714 618 Q 706 618 702 617 L 641 610 Z" fill="black"></path>
				<path d="M 741 587 L 737 512 L 733 453 L 725 394 L 729 374 Q 737 354 741 348 Q 749 340 755.5 338 Q 762 336 769 349 Q 784 378 785 391 L 781 455 L 785 594 L 787 638 L 787 666 L 788 671 L 790 687 L 792 708 Q 792 710 794 720 L 796 733 Q 796 736 787 743 Q 761 758 743 757 Q 725 756 725 750 Q 725 744 730.5 735 Q 736 726 739 699 L 741 671 L 741 625 L 741 587 Z" fill="black"></path>
				<path d="M 637 404 L 628 392 Q 626 389 611 376 Q 603 366 597 360 L 584 354 Q 570 344 573 342 L 580 340 L 591 344 Q 594 344 601 348 L 622 357 Q 635 363 653 380 Q 690 414 693 438 Q 698 450 699 459.5 Q 700 469 702 478 Q 704 487 704 494.5 Q 704 502 708 506 L 712 515 Q 716 529 695 537 L 666 546 Q 655 549 653 547 Q 637 544 648.5 526 Q 660 508 658 480.5 Q 656 453 651 441 L 643 423 L 637 404 Z" fill="black"></path>
				<path d="M 873 466 Q 873 499 880 511 Q 881 518 885.5 522.5 Q 890 527 890 530 Q 893 538 874 550 Q 855 562 832 562 Q 826 560 823.5 559 Q 821 558 823 553 L 825 537 Q 827 515 827 508 L 825 446 Q 824 425 832 403.5 Q 840 382 853 374 Q 867 361 882 360 Q 899 355 928.5 356.5 Q 958 358 978 370 Q 987 374 987 381 L 985 389 L 983 390 L 972 400 Q 964 409 960 412 Q 951 415 947 414 L 936 408 Q 925 401 903 400 Q 881 399 873 418 Q 869 423 871 436 L 873 466 Z" fill="red"></path>
				<path d="M 447 30 Q 429 -33 426 -79 Q 426 -90 434 -103 Q 441 -116 443 -118 Q 455 -141 461 -136 Q 476 -124 491 -49 L 496 45 L 498 63 L 500 103 Q 501 108 502 135 L 503 165 L 505 199 Q 505 223 502 244 C 499 274 516 272 507 275 L 468 286 Q 451 289 443 286 Q 430 286 440 271 Q 449 256 451 240 Q 472 166 447 30 Z" fill="lightgray"></path>
				<path d="M 715 58 L 709 -11 Q 706 -55 692 -65 Q 680 -71 653 -64 L 636 -60 L 619 -54 Q 603 -50 600 -54 Q 596 -57 608 -65 L 626 -81 L 639 -91 Q 640 -92 647 -98 Q 654 -104 663 -117 Q 672 -129 679 -143 Q 686 -157 692 -159 Q 699 -161 714 -153 Q 728 -144 741 -127 Q 767 -89 765 -18 L 764 40 L 765 191 Q 765 217 768 227 Q 770 237 780 247 Q 789 256 790 261 Q 790 266 783 275 Q 776 284 756 297 Q 736 309 732 312 L 722 317 Q 718 317 701 310 Q 683 303 661 300 L 621 293 L 507 275 C 477 270 472 240 502 244 L 556 251 L 678 265 Q 698 269 705 260 Q 711 251 712 238 L 713 185 L 715 163 L 715 82 L 715 58 Z" fill="lightgray"></path>
				<path d="M 502 135 L 537 135 Q 560 136 603 144 L 715 163 C 745 168 742 179 713 185 L 697 188 L 680 194 Q 662 197 637 189 Q 611 181 593 178 L 553 171 Q 511 166 503 165 C 473 161 472 135 502 135 Z" fill="lightgray"></path>
				<path d="M 496 45 L 520 39 Q 539 35 546 35 Q 553 34 581 39 L 692 57 Q 700 58 715 58 C 745 58 744 77 715 82 L 688 87 Q 672 90 632 84 L 564 71 Q 560 71 498 63 C 468 59 467 52 496 45 Z" fill="lightgray"></path>
</g>
		<text x="40" y="140" font-size="128" fill="#999999">11</text></g>
		<g id="id2:id1:id1" transform="matrix(1.0,0,0,1.0,1024,0.0)">			<g stroke="lightgray" stroke-width="4" transform="scale(4, 4)"> <rect x="0" y="0" width="256" height="256" fill="white" stroke-width="4"/></g>
			<g transform="scale(0.92, -0.92) translate(60, -920)">					<path d="M 219 598 Q 234 578 247 571 Q 258 563 271 564 Q 284 565 291 574 Q 299 587 299 600 Q 296 628 282 642 L 261 654 L 227 667 Q 206 674 194 675 L 175 679 Q 167 680 162 675 Q 159 670 165 666 L 219 598 Z" fill="black"></path>
				<path d="M 101 461 Q 91 462 85 458 Q 83 455 85 452 L 93 440 L 119 411 Q 143 381 149.5 373 Q 156 365 171 357 Q 186 349 198.5 350.5 Q 211 352 217 361 Q 230 381 219 413 Q 210 428 201 434 Q 165 454 119 457 L 101 461 Z" fill="black"></path>
				<path d="M 255 276 L 228.5 224.5 Q 202 173 192 159 Q 182 145 172 129.5 Q 162 114 133 78 Q 115 59 105.5 53 Q 96 47 94 45 Q 87 33 95 -3 L 108 -37 Q 113 -51 121 -65 Q 125 -78 129 -80 Q 144 -89 157 -74 Q 165 -61 169.5 -41 Q 174 -21 180.5 5.5 Q 187 32 213 97 L 241 168 Q 250 189 261 228 L 280 295 Q 281 302 275 304 Q 269 305 265 298 L 255 276 Z" fill="black"></path>
				<path d="M 425 596 L 377 587 Q 347 583 340 582 Q 333 581 331 575 Q 331 570 335 566 Q 342 556 370 556 Q 376 553 401 557 Q 426 561 432 562 L 448 564 L 489 570 L 573 589 Q 582 590 587 593.5 Q 592 597 591 601 Q 591 614 569 620 Q 555 627 542 627 L 494 612 L 450 601 L 437 598 L 435 598 Q 431 596 425 596 Z" fill="black"></path>
				<path d="M 448 564 L 445 524 Q 445 506 439 458 Q 433 410 433 409 Q 427 391 427 384 Q 427 377 432.5 358.5 Q 438 340 448 330 Q 449 325 454 323 Q 457 323 465 330 L 477 345 Q 483 353 485 360 Q 491 370 492 376 L 487 426 L 489 570 L 494 612 L 494 646 Q 494 682 499.5 697.5 Q 505 713 505 714.5 Q 505 716 499 723 Q 493 730 474 733.5 Q 455 737 447 740 Q 431 740 431 729 L 433 724 L 435 718 Q 443 702 445 680 Q 450 662 450 652 L 450 601 L 448 564 Z" fill="black"></path>
				<path d="M 289 355 Q 282 352 287 347 Q 288 343 297 346 L 320 354 Q 333 358 358.5 379.5 Q 384 401 385.5 407 Q 387 413 394 427 L 415 479 L 421 489 L 423 497 Q 423 512 384 522 Q 368 527 366 526 Q 352 522 358 511 Q 374 481 357 436 Q 341 401 339 397 Q 328 378 305 365 L 289 355 Z" fill="black"></path>
				<path d="M 515 458 Q 515 436 523 422 Q 535 395 576 395 Q 605 392 637 404 C 653 410 653 410 643 423 L 637 431 Q 627 444 611 444 L 601 440 L 586 436 Q 578 434 571 436 Q 563 436 559 440 Q 555 444 556 459 Q 557 474 561 481 Q 563 491 569 497 Q 575 506 576 509 Q 577 519 531 535 Q 521 536 517 535 Q 513 534 513 528 L 515 514 Q 519 507 518 486 Q 517 464 515 458 Z" fill="black"></path>
				<path d="M 641 610 Q 629 611 626.5 607.5 Q 624 604 626 598 Q 628 588 653 582 Q 678 576 712 583 L 741 587 L 785 594 L 846 604 L 876 610 Q 892 613 898 621 Q 904 629 892 637.5 Q 880 646 867 650 Q 854 654 847.5 654 Q 841 654 816 646.5 Q 791 639 787 638 L 741 625 L 714 618 Q 706 618 702 617 L 641 610 Z" fill="black"></path>
				<path d="M 741 587 L 737 512 L 733 453 L 725 394 L 729 374 Q 737 354 741 348 Q 749 340 755.5 338 Q 762 336 769 349 Q 784 378 785 391 L 781 455 L 785 594 L 787 638 L 787 666 L 788 671 L 790 687 L 792 708 Q 792 710 794 720 L 796 733 Q 796 736 787 743 Q 761 758 743 757 Q 725 756 725 750 Q 725 744 730.5 735 Q 736 726 739 699 L 741 671 L 741 625 L 741 587 Z" fill="black"></path>
				<path d="M 637 404 L 628 392 Q 626 389 611 376 Q 603 366 597 360 L 584 354 Q 570 344 573 342 L 580 340 L 591 344 Q 594 344 601 348 L 622 357 Q 635 363 653 380 Q 690 414 693 438 Q 698 450 699 459.5 Q 700 469 702 478 Q 704 487 704 494.5 Q 704 502 708 506 L 712 515 Q 716 529 695 537 L 666 546 Q 655 549 653 547 Q 637 544 648.5 526 Q 660 508 658 480.5 Q 656 453 651 441 L 643 423 L 637 404 Z" fill="black"></path>
				<path d="M 873 466 Q 873 499 880 511 Q 881 518 885.5 522.5 Q 890 527 890 530 Q 893 538 874 550 Q 855 562 832 562 Q 826 560 823.5 559 Q 821 558 823 553 L 825 537 Q 827 515 827 508 L 825 446 Q 824 425 832 403.5 Q 840 382 853 374 Q 867 361 882 360 Q 899 355 928.5 356.5 Q 958 358 978 370 Q 987 374 987 381 L 985 389 L 983 390 L 972 400 Q 964 409 960 412 Q 951 415 947 414 L 936 408 Q 925 401 903 400 Q 881 399 873 418 Q 869 423 871 436 L 873 466 Z" fill="black"></path>
				<path d="M 447 30 Q 429 -33 426 -79 Q 426 -90 434 -103 Q 441 -116 443 -118 Q 455 -141 461 -136 Q 476 -124 491 -49 L 496 45 L 498 63 L 500 103 Q 501 108 502 135 L 503 165 L 505 199 Q 505 223 502 244 C 499 274 516 272 507 275 L 468 286 Q 451 289 443 286 Q 430 286 440 271 Q 449 256 451 240 Q 472 166 447 30 Z" fill="red"></path>
				<path d="M 715 58 L 709 -11 Q 706 -55 692 -65 Q 680 -71 653 -64 L 636 -60 L 619 -54 Q 603 -50 600 -54 Q 596 -57 608 -65 L 626 -81 L 639 -91 Q 640 -92 647 -98 Q 654 -104 663 -117 Q 672 -129 679 -143 Q 686 -157 692 -159 Q 699 -161 714 -153 Q 728 -144 741 -127 Q 767 -89 765 -18 L 764 40 L 765 191 Q 765 217 768 227 Q 770 237 780 247 Q 789 256 790 261 Q 790 266 783 275 Q 776 284 756 297 Q 736 309 732 312 L 722 317 Q 718 317 701 310 Q 683 303 661 300 L 621 293 L 507 275 C 477 270 472 240 502 244 L 556 251 L 678 265 Q 698 269 705 260 Q 711 251 712 238 L 713 185 L 715 163 L 715 82 L 715 58 Z" fill="lightgray"></path>
				<path d="M 502 135 L 537 135 Q 560 136 603 144 L 715 163 C 745 168 742 179 713 185 L 697 188 L 680 194 Q 662 197 637 189 Q 611 181 593 178 L 553 171 Q 511 166 503 165 C 473 161 472 135 502 135 Z" fill="lightgray"></path>
				<path d="M 496 45 L 520 39 Q 539 35 546 35 Q 553 34 581 39 L 692 57 Q 700 58 715 58 C 745 58 744 77 715 82 L 688 87 Q 672 90 632 84 L 564 71 Q 560 71 498 63 C 468 59 467 52 496 45 Z" fill="lightgray"></path>
</g>
		<text x="40" y="140" font-size="128" fill="#999999">12</text></g>
		<g id="id2:id2:id2" transform="matrix(1.0,0,0,1.0,2048,0.0)">			<g stroke="lightgray" stroke-width="4" transform="scale(4, 4)"> <rect x="0" y="0" width="256" height="256" fill="white" stroke-width="4"/></g>
			<g transform="scale(0.92, -0.92) translate(60, -920)">					<path d="M 219 598 Q 234 578 247 571 Q 258 563 271 564 Q 284 565 291 574 Q 299 587 299 600 Q 296 628 282 642 L 261 654 L 227 667 Q 206 674 194 675 L 175 679 Q 167 680 162 675 Q 159 670 165 666 L 219 598 Z" fill="black"></path>
				<path d="M 101 461 Q 91 462 85 458 Q 83 455 85 452 L 93 440 L 119 411 Q 143 381 149.5 373 Q 156 365 171 357 Q 186 349 198.5 350.5 Q 211 352 217 361 Q 230 381 219 413 Q 210 428 201 434 Q 165 454 119 457 L 101 461 Z" fill="black"></path>
				<path d="M 255 276 L 228.5 224.5 Q 202 173 192 159 Q 182 145 172 129.5 Q 162 114 133 78 Q 115 59 105.5 53 Q 96 47 94 45 Q 87 33 95 -3 L 108 -37 Q 113 -51 121 -65 Q 125 -78 129 -80 Q 144 -89 157 -74 Q 165 -61 169.5 -41 Q 174 -21 180.5 5.5 Q 187 32 213 97 L 241 168 Q 250 189 261 228 L 280 295 Q 281 302 275 304 Q 269 305 265 298 L 255 276 Z" fill="black"></path>
				<path d="M 425 596 L 377 587 Q 347 583 340 582 Q 333 581 331 575 Q 331 570 335 566 Q 342 556 370 556 Q 376 553 401 557 Q 426 561 432 562 L 448 564 L 489 570 L 573 589 Q 582 590 587 593.5 Q 592 597 591 601 Q 591 614 569 620 Q 555 627 542 627 L 494 612 L 450 601 L 437 598 L 435 598 Q 431 596 425 596 Z" fill="black"></path>
				<path d="M 448 564 L 445 524 Q 445 506 439 458 Q 433 410 433 409 Q 427 391 427 384 Q 427 377 432.5 358.5 Q 438 340 448 330 Q 449 325 454 323 Q 457 323 465 330 L 477 345 Q 483 353 485 360 Q 491 370 492 376 L 487 426 L 489 570 L 494 612 L 494 646 Q 494 682 499.5 697.5 Q 505 713 505 714.5 Q 505 716 499 723 Q 493 730 474 733.5 Q 455 737 447 740 Q 431 740 431 729 L 433 724 L 435 718 Q 443 702 445 680 Q 450 662 450 652 L 450 601 L 448 564 Z" fill="black"></path>
				<path d="M 289 355 Q 282 352 287 347 Q 288 343 297 346 L 320 354 Q 333 358 358.5 379.5 Q 384 401 385.5 407 Q 387 413 394 427 L 415 479 L 421 489 L 423 497 Q 423 512 384 522 Q 368 527 366 526 Q 352 522 358 511 Q 374 481 357 436 Q 341 401 339 397 Q 328 378 305 365 L 289 355 Z" fill="black"></path>
				<path d="M 515 458 Q 515 436 523 422 Q 535 395 576 395 Q 605 392 637 404 C 653 410 653 410 643 423 L 637 431 Q 627 444 611 444 L 601 440 L 586 436 Q 578 434 571 436 Q 563 436 559 440 Q 555 444 556 459 Q 557 474 561 481 Q 563 491 569 497 Q 575 506 576 509 Q 577 519 531 535 Q 521 536 517 535 Q 513 534 513 528 L 515 514 Q 519 507 518 486 Q 517 464 515 458 Z" fill="black"></path>
				<path d="M 641 610 Q 629 611 626.5 607.5 Q 624 604 626 598 Q 628 588 653 582 Q 678 576 712 583 L 741 587 L 785 594 L 846 604 L 876 610 Q 892 613 898 621 Q 904 629 892 637.5 Q 880 646 867 650 Q 854 654 847.5 654 Q 841 654 816 646.5 Q 791 639 787 638 L 741 625 L 714 618 Q 706 618 702 617 L 641 610 Z" fill="black"></path>
				<path d="M 741 587 L 737 512 L 733 453 L 725 394 L 729 374 Q 737 354 741 348 Q 749 340 755.5 338 Q 762 336 769 349 Q 784 378 785 391 L 781 455 L 785 594 L 787 638 L 787 666 L 788 671 L 790 687 L 792 708 Q 792 710 794 720 L 796 733 Q 796 736 787 743 Q 761 758 743 757 Q 725 756 725 750 Q 725 744 730.5 735 Q 736 726 739 699 L 741 671 L 741 625 L 741 587 Z" fill="black"></path>
				<path d="M 637 404 L 628 392 Q 626 389 611 376 Q 603 366 597 360 L 584 354 Q 570 344 573 342 L 580 340 L 591 344 Q 594 344 601 348 L 622 357 Q 635 363 653 380 Q 690 414 693 438 Q 698 450 699 459.5 Q 700 469 702 478 Q 704 487 704 494.5 Q 704 502 708 506 L 712 515 Q 716 529 695 537 L 666 546 Q 655 549 653 547 Q 637 544 648.5 526 Q 660 508 658 480.5 Q 656 453 651 441 L 643 423 L 637 404 Z" fill="black"></path>
				<path d="M 873 466 Q 873 499 880 511 Q 881 518 885.5 522.5 Q 890 527 890 530 Q 893 538 874 550 Q 855 562 832 562 Q 826 560 823.5 559 Q 821 558 823 553 L 825 537 Q 827 515 827 508 L 825 446 Q 824 425 832 403.5 Q 840 382 853 374 Q 867 361 882 360 Q 899 355 928.5 356.5 Q 958 358 978 370 Q 987 374 987 381 L 985 389 L 983 390 L 972 400 Q 964 409 960 412 Q 951 415 947 414 L 936 408 Q 925 401 903 400 Q 881 399 873 418 Q 869 423 871 436 L 873 466 Z" fill="black"></path>
				<path d="M 447 30 Q 429 -33 426 -79 Q 426 -90 434 -103 Q 441 -116 443 -118 Q 455 -141 461 -136 Q 476 -124 491 -49 L 496 45 L 498 63 L 500 103 Q 501 108 502 135 L 503 165 L 505 199 Q 505 223 502 244 C 499 274 516 272 507 275 L 468 286 Q 451 289 443 286 Q 430 286 440 271 Q 449 256 451 240 Q 472 166 447 30 Z" fill="black"></path>
				<path d="M 715 58 L 709 -11 Q 706 -55 692 -65 Q 680 -71 653 -64 L 636 -60 L 619 -54 Q 603 -50 600 -54 Q 596 -57 608 -65 L 626 -81 L 639 -91 Q 640 -92 647 -98 Q 654 -104 663 -117 Q 672 -129 679 -143 Q 686 -157 692 -159 Q 699 -161 714 -153 Q 728 -144 741 -127 Q 767 -89 765 -18 L 764 40 L 765 191 Q 765 217 768 227 Q 770 237 780 247 Q 789 256 790 261 Q 790 266 783 275 Q 776 284 756 297 Q 736 309 732 312 L 722 317 Q 718 317 701 310 Q 683 303 661 300 L 621 293 L 507 275 C 477 270 472 240 502 244 L 556 251 L 678 265 Q 698 269 705 260 Q 711 251 712 238 L 713 185 L 715 163 L 715 82 L 715 58 Z" fill="red"></path>
				<path d="M 502 135 L 537 135 Q 560 136 603 144 L 715 163 C 745 168 742 179 713 185 L 697 188 L 680 194 Q 662 197 637 189 Q 611 181 593 178 L 553 171 Q 511 166 503 165 C 473 161 472 135 502 135 Z" fill="lightgray"></path>
				<path d="M 496 45 L 520 39 Q 539 35 546 35 Q 553 34 581 39 L 692 57 Q 700 58 715 58 C 745 58 744 77 715 82 L 688 87 Q 672 90 632 84 L 564 71 Q 560 71 498 63 C 468 59 467 52 496 45 Z" fill="lightgray"></path>
</g>
		<text x="40" y="140" font-size="128" fill="#999999">13</text></g>
		<g id="id2:id3:id3" transform="matrix(1.0,0,0,1.0,3072,0.0)">			<g stroke="lightgray" stroke-width="4" transform="scale(4, 4)"> <rect x="0" y="0" width="256" height="256" fill="white" stroke-width="4"/></g>
			<g transform="scale(0.92, -0.92) translate(60, -920)">					<path d="M 219 598 Q 234 578 247 571 Q 258 563 271 564 Q 284 565 291 574 Q 299 587 299 600 Q 296 628 282 642 L 261 654 L 227 667 Q 206 674 194 675 L 175 679 Q 167 680 162 675 Q 159 670 165 666 L 219 598 Z" fill="black"></path>
				<path d="M 101 461 Q 91 462 85 458 Q 83 455 85 452 L 93 440 L 119 411 Q 143 381 149.5 373 Q 156 365 171 357 Q 186 349 198.5 350.5 Q 211 352 217 361 Q 230 381 219 413 Q 210 428 201 434 Q 165 454 119 457 L 101 461 Z" fill="black"></path>
				<path d="M 255 276 L 228.5 224.5 Q 202 173 192 159 Q 182 145 172 129.5 Q 162 114 133 78 Q 115 59 105.5 53 Q 96 47 94 45 Q 87 33 95 -3 L 108 -37 Q 113 -51 121 -65 Q 125 -78 129 -80 Q 144 -89 157 -74 Q 165 -61 169.5 -41 Q 174 -21 180.5 5.5 Q 187 32 213 97 L 241 168 Q 250 189 261 228 L 280 295 Q 281 302 275 304 Q 269 305 265 298 L 255 276 Z" fill="black"></path>
				<path d="M 425 596 L 377 587 Q 347 583 340 582 Q 333 581 331 575 Q 331 570 335 566 Q 342 556 370 556 Q 376 553 401 557 Q 426 561 432 562 L 448 564 L 489 570 L 573 589 Q 582 590 587 593.5 Q 592 597 591 601 Q 591 614 569 620 Q 555 627 542 627 L 494 612 L 450 601 L 437 598 L 435 598 Q 431 596 425 596 Z" fill="black"></path>
				<path d="M 448 564 L 445 524 Q 445 506 439 458 Q 433 410 433 409 Q 427 391 427 384 Q 427 377 432.5 358.5 Q 438 340 448 330 Q 449 325 454 323 Q 457 323 465 330 L 477 345 Q 483 353 485 360 Q 491 370 492 376 L 487 426 L 489 570 L 494 612 L 494 646 Q 494 682 499.5 697.5 Q 505 713 505 714.5 Q 505 716 499 723 Q 493 730 474 733.5 Q 455 737 447 740 Q 431 740 431 729 L 433 724 L 435 718 Q 443 702 445 680 Q 450 662 450 652 L 450 601 L 448 564 Z" fill="black"></path>
				<path d="M 289 355 Q 282 352 287 347 Q 288 343 297 346 L 320 354 Q 333 358 358.5 379.5 Q 384 401 385.5 407 Q 387 413 394 427 L 415 479 L 421 489 L 423 497 Q 423 512 384 522 Q 368 527 366 526 Q 352 522 358 511 Q 374 481 357 436 Q 341 401 339 397 Q 328 378 305 365 L 289 355 Z" fill="black"></path>
				<path d="M 515 458 Q 515 436 523 422 Q 535 395 576 395 Q 605 392 637 404 C 653 410 653 410 643 423 L 637 431 Q 627 444 611 444 L 601 440 L 586 436 Q 578 434 571 436 Q 563 436 559 440 Q 555 444 556 459 Q 557 474 561 481 Q 563 491 569 497 Q 575 506 576 509 Q 577 519 531 535 Q 521 536 517 535 Q 513 534 513 528 L 515 514 Q 519 507 518 486 Q 517 464 515 458 Z" fill="black"></path>
				<path d="M 641 610 Q 629 611 626.5 607.5 Q 624 604 626 598 Q 628 588 653 582 Q 678 576 712 583 L 741 587 L 785 594 L 846 604 L 876 610 Q 892 613 898 621 Q 904 629 892 637.5 Q 880 646 867 650 Q 854 654 847.5 654 Q 841 654 816 646.5 Q 791 639 787 638 L 741 625 L 714 618 Q 706 618 702 617 L 641 610 Z" fill="black"></path>
				<path d="M 741 587 L 737 512 L 733 453 L 725 394 L 729 374 Q 737 354 741 348 Q 749 340 755.5 338 Q 762 336 769 349 Q 784 378 785 391 L 781 455 L 785 594 L 787 638 L 787 666 L 788 671 L 790 687 L 792 708 Q 792 710 794 720 L 796 733 Q 796 736 787 743 Q 761 758 743 757 Q 725 756 725 750 Q 725 744 730.5 735 Q 736 726 739 699 L 741 671 L 741 625 L 741 587 Z" fill="black"></path>
				<path d="M 637 404 L 628 392 Q 626 389 611 376 Q 603 366 597 360 L 584 354 Q 570 344 573 342 L 580 340 L 591 344 Q 594 344 601 348 L 622 357 Q 635 363 653 380 Q 690 414 693 438 Q 698 450 699 459.5 Q 700 469 702 478 Q 704 487 704 494.5 Q 704 502 708 506 L 712 515 Q 716 529 695 537 L 666 546 Q 655 549 653 547 Q 637 544 648.5 526 Q 660 508 658 480.5 Q 656 453 651 441 L 643 423 L 637 404 Z" fill="black"></path>
				<path d="M 873 466 Q 873 499 880 511 Q 881 518 885.5 522.5 Q 890 527 890 530 Q 893 538 874 550 Q 855 562 832 562 Q 826 560 823.5 559 Q 821 558 823 553 L 825 537 Q 827 515 827 508 L 825 446 Q 824 425 832 403.5 Q 840 382 853 374 Q 867 361 882 360 Q 899 355 928.5 356.5 Q 958 358 978 370 Q 987 374 987 381 L 985 389 L 983 390 L 972 400 Q 964 409 960 412 Q 951 415 947 414 L 936 408 Q 925 401 903 400 Q 881 399 873 418 Q 869 423 871 436 L 873 466 Z" fill="black"></path>
				<path d="M 447 30 Q 429 -33 426 -79 Q 426 -90 434 -103 Q 441 -116 443 -118 Q 455 -141 461 -136 Q 476 -124 491 -49 L 496 45 L 498 63 L 500 103 Q 501 108 502 135 L 503 165 L 505 199 Q 505 223 502 244 C 499 274 516 272 507 275 L 468 286 Q 451 289 443 286 Q 430 286 440 271 Q 449 256 451 240 Q 472 166 447 30 Z" fill="black"></path>
				<path d="M 715 58 L 709 -11 Q 706 -55 692 -65 Q 680 -71 653 -64 L 636 -60 L 619 -54 Q 603 -50 600 -54 Q 596 -57 608 -65 L 626 -81 L 639 -91 Q 640 -92 647 -98 Q 654 -104 663 -117 Q 672 -129 679 -143 Q 686 -157 692 -159 Q 699 -161 714 -153 Q 728 -144 741 -127 Q 767 -89 765 -18 L 764 40 L 765 191 Q 765 217 768 227 Q 770 237 780 247 Q 789 256 790 261 Q 790 266 783 275 Q 776 284 756 297 Q 736 309 732 312 L 722 317 Q 718 317 701 310 Q 683 303 661 300 L 621 293 L 507 275 C 477 270 472 240 502 244 L 556 251 L 678 265 Q 698 269 705 260 Q 711 251 712 238 L 713 185 L 715 163 L 715 82 L 715 58 Z" fill="black"></path>
				<path d="M 502 135 L 537 135 Q 560 136 603 144 L 715 163 C 745 168 742 179 713 185 L 697 188 L 680 194 Q 662 197 637 189 Q 611 181 593 178 L 553 171 Q 511 166 503 165 C 473 161 472 135 502 135 Z" fill="red"></path>
				<path d="M 496 45 L 520 39 Q 539 35 546 35 Q 553 34 581 39 L 692 57 Q 700 58 715 58 C 745 58 744 77 715 82 L 688 87 Q 672 90 632 84 L 564 71 Q 560 71 498 63 C 468 59 467 52 496 45 Z" fill="lightgray"></path>
</g>
		<text x="40" y="140" font-size="128" fill="#999999">14</text></g>
		<g id="id2:id4:id4" transform="matrix(1.0,0,0,1.0,4096,0.0)">			<g stroke="lightgray" stroke-width="4" transform="scale(4, 4)"> <rect x="0" y="0" width="256" height="256" fill="white" stroke-width="4"/></g>
			<g transform="scale(0.92, -0.92) translate(60, -920)">					<path d="M 219 598 Q 234 578 247 571 Q 258 563 271 564 Q 284 565 291 574 Q 299 587 299 600 Q 296 628 282 642 L 261 654 L 227 667 Q 206 674 194 675 L 175 679 Q 167 680 162 675 Q 159 670 165 666 L 219 598 Z" fill="black"></path>
				<path d="M 101 461 Q 91 462 85 458 Q 83 455 85 452 L 93 440 L 119 411 Q 143 381 149.5 373 Q 156 365 171 357 Q 186 349 198.5 350.5 Q 211 352 217 361 Q 230 381 219 413 Q 210 428 201 434 Q 165 454 119 457 L 101 461 Z" fill="black"></path>
				<path d="M 255 276 L 228.5 224.5 Q 202 173 192 159 Q 182 145 172 129.5 Q 162 114 133 78 Q 115 59 105.5 53 Q 96 47 94 45 Q 87 33 95 -3 L 108 -37 Q 113 -51 121 -65 Q 125 -78 129 -80 Q 144 -89 157 -74 Q 165 -61 169.5 -41 Q 174 -21 180.5 5.5 Q 187 32 213 97 L 241 168 Q 250 189 261 228 L 280 295 Q 281 302 275 304 Q 269 305 265 298 L 255 276 Z" fill="black"></path>
				<path d="M 425 596 L 377 587 Q 347 583 340 582 Q 333 581 331 575 Q 331 570 335 566 Q 342 556 370 556 Q 376 553 401 557 Q 426 561 432 562 L 448 564 L 489 570 L 573 589 Q 582 590 587 593.5 Q 592 597 591 601 Q 591 614 569 620 Q 555 627 542 627 L 494 612 L 450 601 L 437 598 L 435 598 Q 431 596 425 596 Z" fill="black"></path>
				<path d="M 448 564 L 445 524 Q 445 506 439 458 Q 433 410 433 409 Q 427 391 427 384 Q 427 377 432.5 358.5 Q 438 340 448 330 Q 449 325 454 323 Q 457 323 465 330 L 477 345 Q 483 353 485 360 Q 491 370 492 376 L 487 426 L 489 570 L 494 612 L 494 646 Q 494 682 499.5 697.5 Q 505 713 505 714.5 Q 505 716 499 723 Q 493 730 474 733.5 Q 455 737 447 740 Q 431 740 431 729 L 433 724 L 435 718 Q 443 702 445 680 Q 450 662 450 652 L 450 601 L 448 564 Z" fill="black"></path>
				<path d="M 289 355 Q 282 352 287 347 Q 288 343 297 346 L 320 354 Q 333 358 358.5 379.5 Q 384 401 385.5 407 Q 387 413 394 427 L 415 479 L 421 489 L 423 497 Q 423 512 384 522 Q 368 527 366 526 Q 352 522 358 511 Q 374 481 357 436 Q 341 401 339 397 Q 328 378 305 365 L 289 355 Z" fill="black"></path>
				<path d="M 515 458 Q 515 436 523 422 Q 535 395 576 395 Q 605 392 637 404 C 653 410 653 410 643 423 L 637 431 Q 627 444 611 444 L 601 440 L 586 436 Q 578 434 571 436 Q 563 436 559 440 Q 555 444 556 459 Q 557 474 561 481 Q 563 491 569 497 Q 575 506 576 509 Q 577 519 531 535 Q 521 536 517 535 Q 513 534 513 528 L 515 514 Q 519 507 518 486 Q 517 464 515 458 Z" fill="black"></path>
				<path d="M 641 610 Q 629 611 626.5 607.5 Q 624 604 626 598 Q 628 588 653 582 Q 678 576 712 583 L 741 587 L 785 594 L 846 604 L 876 610 Q 892 613 898 621 Q 904 629 892 637.5 Q 880 646 867 650 Q 854 654 847.5 654 Q 841 654 816 646.5 Q 791 639 787 638 L 741 625 L 714 618 Q 706 618 702 617 L 641 610 Z" fill="black"></path>
				<path d="M 741 587 L 737 512 L 733 453 L 725 394 L 729 374 Q 737 354 741 348 Q 749 340 755.5 338 Q 762 336 769 349 Q 784 378 785 391 L 781 455 L 785 594 L 787 638 L 787 666 L 788 671 L 790 687 L 792 708 Q 792 710 794 720 L 796 733 Q 796 736 787 743 Q 761 758 743 757 Q 725 756 725 750 Q 725 744 730.5 735 Q 736 726 739 699 L 741 671 L 741 625 L 741 587 Z" fill="black"></path>
				<path d="M 637 404 L 628 392 Q 626 389 611 376 Q 603 366 597 360 L 584 354 Q 570 344 573 342 L 580 340 L 591 344 Q 594 344 601 348 L 622 357 Q 635 363 653 380 Q 690 414 693 438 Q 698 450 699 459.5 Q 700 469 702 478 Q 704 487 704 494.5 Q 704 502 708 506 L 712 515 Q 716 529 695 537 L 666 546 Q 655 549 653 547 Q 637 544 648.5 526 Q 660 508 658 480.5 Q 656 453 651 441 L 643 423 L 637 404 Z" fill="black"></path>
				<path d="M 873 466 Q 873 499 880 511 Q 881 518 885.5 522.5 Q 890 527 890 530 Q 893 538 874 550 Q 855 562 832 562 Q 826 560 823.5 559 Q 821 558 823 553 L 825 537 Q 827 515 827 508 L 825 446 Q 824 425 832 403.5 Q 840 382 853 374 Q 867 361 882 360 Q 899 355 928.5 356.5 Q 958 358 978 370 Q 987 374 987 381 L 985 389 L 983 390 L 972 400 Q 964 409 960 412 Q 951 415 947 414 L 936 408 Q 925 401 903 400 Q 881 399 873 418 Q 869 423 871 436 L 873 466 Z" fill="black"></path>
				<path d="M 447 30 Q 429 -33 426 -79 Q 426 -90 434 -103 Q 441 -116 443 -118 Q 455 -141 461 -136 Q 476 -124 491 -49 L 496 45 L 498 63 L 500 103 Q 501 108 502 135 L 503 165 L 505 199 Q 505 223 502 244 C 499 274 516 272 507 275 L 468 286 Q 451 289 443 286 Q 430 286 440 271 Q 449 256 451 240 Q 472 166 447 30 Z" fill="black"></path>
				<path d="M 715 58 L 709 -11 Q 706 -55 692 -65 Q 680 -71 653 -64 L 636 -60 L 619 -54 Q 603 -50 600 -54 Q 596 -57 608 -65 L 626 -81 L 639 -91 Q 640 -92 647 -98 Q 654 -104 663 -117 Q 672 -129 679 -143 Q 686 -157 692 -159 Q 699 -161 714 -153 Q 728 -144 741 -127 Q 767 -89 765 -18 L 764 40 L 765 191 Q 765 217 768 227 Q 770 237 780 247 Q 789 256 790 261 Q 790 266 783 275 Q 776 284 756 297 Q 736 309 732 312 L 722 317 Q 718 317 701 310 Q 683 303 661 300 L 621 293 L 507 275 C 477 270 472 240 502 244 L 556 251 L 678 265 Q 698 269 705 260 Q 711 251 712 238 L 713 185 L 715 163 L 715 82 L 715 58 Z" fill="black"></path>
				<path d="M 502 135 L 537 135 Q 560 136 603 144 L 715 163 C 745 168 742 179 713 185 L 697 188 L 680 194 Q 662 197 637 189 Q 611 181 593 178 L 553 171 Q 511 166 503 165 C 473 161 472 135 502 135 Z" fill="black"></path>
				<path d="M 496 45 L 520 39 Q 539 35 546 35 Q 553 34 581 39 L 692 57 Q 700 58 715 58 C 745 58 744 77 715 82 L 688 87 Q 672 90 632 84 L 564 71 Q 560 71 498 63 C 468 59 467 52 496 45 Z" fill="red"></path>
</g>
		<text x="40" y="140" font-size="128" fill="#999999">15</text></g>
</g>
</svg>
