<?xml version="1.0" standalone="no"?>
<!DOCTYPE svg PUBLIC "-//W3C//DTD SVG 1.1//EN"
 "http://www.w3.org/Graphics/SVG/1.1/DTD/svg11.dtd">
<!-- generate by Japanese dictionary app com.asnsami.kanjidictionary -->

<svg xmlns="http://www.w3.org/2000/svg" xmlns:sodipodi="http://sodipodi.sourceforge.net/DTD/sodipodi-0.dtd" version="1.1" width="640" height="256" viewBox="0 0 5120 2048">
	<g id="id0:id0" transform="translate(0.0,0)">
		<g id="id0:id0:id0" transform="matrix(1.0,0,0,1.0,0,0.0)">			<g stroke="lightgray" stroke-width="4" transform="scale(4, 4)"> <rect x="0" y="0" width="256" height="256" fill="white" stroke-width="4"/></g>
			<g transform="scale(0.92, -0.92) translate(60, -920)">					<path d="M 89 338 L 82 213 Q 81 185 78 160 Q 74 136 69 112 Q 64 89 64 80 L 64 74 Q 64 61 67 50 Q 70 38 76 26 Q 81 15 88 9 Q 94 2 98 2 Q 106 2 111 16 Q 116 30 119 47 L 122 82 L 128 218 L 128 245 L 132 372 L 132 396 L 138 536 C 139 557 139 557 128 560 L 86 572 L 83 572 Q 79 572 75 570 Q 70 567 68 564 Q 67 562 67 560 Q 67 558 68 556 Q 69 552 74 545 Q 79 537 82 529 L 88 504 Q 91 491 91 462 L 91 447 L 89 338 Z" fill="red"></path>
				<path d="M 247 56 L 254 36 L 263 14 Q 270 -8 276 -13 Q 282 -18 287 -18 Q 295 -18 305 -6 Q 316 6 324 23 Q 334 40 335 58 Q 336 70 336 95 L 336 123 L 334 246 L 335 474 Q 335 505 339 520 Q 342 535 346 543 Q 349 551 349 556 Q 348 561 342 568 Q 334 575 319 584 Q 303 594 295 598 Q 286 602 280 602 Q 276 602 267 598 Q 258 594 237 588 Q 216 582 204 578 L 128 560 C 99 553 109 528 138 536 L 176 546 Q 193 552 210 553 Q 227 555 240 556 L 247 556 Q 265 556 271 551 Q 278 546 280 537 Q 283 529 284 497 L 284 412 L 284 392 L 282 260 L 283 240 L 280 169 Q 280 144 278 131 Q 277 118 276 110 Q 274 101 271 86 C 265 57 237 84 247 56 Z" fill="lightgray"></path>
				<path d="M 132 372 L 157 368 L 163 368 Q 175 368 198 373 L 243 384 Q 256 386 284 392 C 313 398 313 405 284 412 L 260 418 Q 240 422 234 422 Q 227 422 213 417 Q 198 412 180 408 Q 162 404 132 396 C 103 388 102 377 132 372 Z" fill="lightgray"></path>
				<path d="M 128 218 L 155 215 L 159 215 Q 172 215 202 222 Q 238 231 248 233 Q 258 236 283 240 C 313 245 311 253 282 260 L 236 271 L 234 271 Q 227 271 201 264 Q 172 255 128 245 C 99 238 98 221 128 218 Z" fill="lightgray"></path>
				<path d="M 119 47 L 140 46 Q 144 46 170 50 Q 197 54 215 54 Q 232 56 247 56 C 277 56 299 76 271 86 L 252 93 Q 242 97 230 98 Q 222 98 202 94 Q 182 90 164 87 Q 145 85 122 82 C 92 78 89 48 119 47 Z" fill="lightgray"></path>
				<path d="M 442 458 L 434 476 Q 428 492 421 493 Q 416 493 412 489 Q 408 484 407 470 Q 406 455 400 434 Q 394 413 384 397 L 368 368 Q 363 358 362 350 Q 362 336 371 323 Q 380 310 390 310 Q 401 312 412 324 Q 423 336 430 358 Q 436 380 439 393 Q 442 407 444 428 L 442 458 Z" fill="lightgray"></path>
				<path d="M 540 468 L 480 462 Q 474 461 442 458 C 412 455 416 439 444 428 L 465 420 L 468 420 Q 475 420 488 424 L 535 436 L 594 449 L 697 460 L 733 465 Q 749 464 753 459 Q 755 455 755 451 Q 755 448 754 444 Q 752 434 748 426 L 714 360 Q 713 357 713 355 Q 713 352 714 350 Q 716 348 719 348 Q 723 348 727 350 L 745 361 Q 758 368 773 375 Q 789 382 810 387 Q 832 393 852 396 Q 873 398 877 404 Q 878 407 878 411 Q 878 417 874 427 Q 868 442 852 457 Q 836 473 830 478 L 803 496 Q 782 510 778 510 L 775 510 Q 770 510 760 507 Q 748 503 724 497 Q 700 490 686 488 L 600 476 L 540 468 Z" fill="lightgray"></path>
				<path d="M 600 476 L 614 576 Q 616 589 620 609 Q 624 629 627 636 Q 630 644 633 650 Q 636 656 636 661 L 636 663 Q 636 668 628 675 Q 620 681 604 687 Q 588 692 580 694 Q 572 696 560 698 L 555 698 Q 549 698 547 696 Q 544 694 543 690 Q 543 686 548 676 Q 554 666 554 647 Q 555 632 555 621 Q 554 610 550 563 L 540 468 L 535 436 L 527 384 Q 524 364 514 315 Q 503 266 490 226 Q 477 186 456 138 Q 434 91 414 57 Q 394 23 375 1 Q 356 -21 335 -43 L 322 -56 Q 317 -63 317 -66 Q 317 -67 318 -68 Q 321 -70 324 -70 Q 327 -70 330 -68 L 342 -61 Q 357 -52 374 -39 Q 391 -26 414 -3 Q 436 20 462 58 Q 488 96 506 135 Q 524 173 540 217 Q 554 261 563 296 Q 572 331 579 368 L 594 449 L 600 476 Z" fill="lightgray"></path>
				<path d="M 896 58 Q 889 22 878 5 Q 868 -13 840 -26 Q 812 -40 757 -40 L 749 -40 Q 711 -40 685 -32 Q 656 -22 647 -6 Q 638 11 638 34 L 638 41 Q 638 57 641 86 Q 645 122 649 144 Q 653 164 660 189 Q 666 213 673 226 Q 680 238 680 242 Q 680 248 676 252 Q 673 258 665 263 Q 656 269 636 278 Q 616 288 601 289 Q 594 289 590 286 Q 586 284 585 278 Q 585 272 588 266 L 596 248 Q 601 234 602 213 Q 602 200 601 179 L 593 87 Q 591 62 591 46 L 591 37 Q 591 18 594 2 Q 598 -18 609 -40 Q 620 -62 646 -78 Q 671 -93 719 -97 Q 745 -100 770 -100 Q 790 -100 810 -98 Q 854 -94 880 -85 Q 907 -76 926 -64 Q 945 -52 954 -41 Q 962 -31 962 -24 Q 962 -20 960 -13 L 939 21 Q 929 38 924 64 L 916 95 Q 913 107 909 107 L 908 107 Q 904 106 902 98 L 896 58 Z" fill="lightgray"></path>
</g>
		<text x="40" y="140" font-size="128" fill="#999999">1</text></g>
		<g id="id0:id1:id1" transform="matrix(1.0,0,0,1.0,1024,0.0)">			<g stroke="lightgray" stroke-width="4" transform="scale(4, 4)"> <rect x="0" y="0" width="256" height="256" fill="white" stroke-width="4"/></g>
			<g transform="scale(0.92, -0.92) translate(60, -920)">					<path d="M 89 338 L 82 213 Q 81 185 78 160 Q 74 136 69 112 Q 64 89 64 80 L 64 74 Q 64 61 67 50 Q 70 38 76 26 Q 81 15 88 9 Q 94 2 98 2 Q 106 2 111 16 Q 116 30 119 47 L 122 82 L 128 218 L 128 245 L 132 372 L 132 396 L 138 536 C 139 557 139 557 128 560 L 86 572 L 83 572 Q 79 572 75 570 Q 70 567 68 564 Q 67 562 67 560 Q 67 558 68 556 Q 69 552 74 545 Q 79 537 82 529 L 88 504 Q 91 491 91 462 L 91 447 L 89 338 Z" fill="black"></path>
				<path d="M 247 56 L 254 36 L 263 14 Q 270 -8 276 -13 Q 282 -18 287 -18 Q 295 -18 305 -6 Q 316 6 324 23 Q 334 40 335 58 Q 336 70 336 95 L 336 123 L 334 246 L 335 474 Q 335 505 339 520 Q 342 535 346 543 Q 349 551 349 556 Q 348 561 342 568 Q 334 575 319 584 Q 303 594 295 598 Q 286 602 280 602 Q 276 602 267 598 Q 258 594 237 588 Q 216 582 204 578 L 128 560 C 99 553 109 528 138 536 L 176 546 Q 193 552 210 553 Q 227 555 240 556 L 247 556 Q 265 556 271 551 Q 278 546 280 537 Q 283 529 284 497 L 284 412 L 284 392 L 282 260 L 283 240 L 280 169 Q 280 144 278 131 Q 277 118 276 110 Q 274 101 271 86 C 265 57 237 84 247 56 Z" fill="red"></path>
				<path d="M 132 372 L 157 368 L 163 368 Q 175 368 198 373 L 243 384 Q 256 386 284 392 C 313 398 313 405 284 412 L 260 418 Q 240 422 234 422 Q 227 422 213 417 Q 198 412 180 408 Q 162 404 132 396 C 103 388 102 377 132 372 Z" fill="lightgray"></path>
				<path d="M 128 218 L 155 215 L 159 215 Q 172 215 202 222 Q 238 231 248 233 Q 258 236 283 240 C 313 245 311 253 282 260 L 236 271 L 234 271 Q 227 271 201 264 Q 172 255 128 245 C 99 238 98 221 128 218 Z" fill="lightgray"></path>
				<path d="M 119 47 L 140 46 Q 144 46 170 50 Q 197 54 215 54 Q 232 56 247 56 C 277 56 299 76 271 86 L 252 93 Q 242 97 230 98 Q 222 98 202 94 Q 182 90 164 87 Q 145 85 122 82 C 92 78 89 48 119 47 Z" fill="lightgray"></path>
				<path d="M 442 458 L 434 476 Q 428 492 421 493 Q 416 493 412 489 Q 408 484 407 470 Q 406 455 400 434 Q 394 413 384 397 L 368 368 Q 363 358 362 350 Q 362 336 371 323 Q 380 310 390 310 Q 401 312 412 324 Q 423 336 430 358 Q 436 380 439 393 Q 442 407 444 428 L 442 458 Z" fill="lightgray"></path>
				<path d="M 540 468 L 480 462 Q 474 461 442 458 C 412 455 416 439 444 428 L 465 420 L 468 420 Q 475 420 488 424 L 535 436 L 594 449 L 697 460 L 733 465 Q 749 464 753 459 Q 755 455 755 451 Q 755 448 754 444 Q 752 434 748 426 L 714 360 Q 713 357 713 355 Q 713 352 714 350 Q 716 348 719 348 Q 723 348 727 350 L 745 361 Q 758 368 773 375 Q 789 382 810 387 Q 832 393 852 396 Q 873 398 877 404 Q 878 407 878 411 Q 878 417 874 427 Q 868 442 852 457 Q 836 473 830 478 L 803 496 Q 782 510 778 510 L 775 510 Q 770 510 760 507 Q 748 503 724 497 Q 700 490 686 488 L 600 476 L 540 468 Z" fill="lightgray"></path>
				<path d="M 600 476 L 614 576 Q 616 589 620 609 Q 624 629 627 636 Q 630 644 633 650 Q 636 656 636 661 L 636 663 Q 636 668 628 675 Q 620 681 604 687 Q 588 692 580 694 Q 572 696 560 698 L 555 698 Q 549 698 547 696 Q 544 694 543 690 Q 543 686 548 676 Q 554 666 554 647 Q 555 632 555 621 Q 554 610 550 563 L 540 468 L 535 436 L 527 384 Q 524 364 514 315 Q 503 266 490 226 Q 477 186 456 138 Q 434 91 414 57 Q 394 23 375 1 Q 356 -21 335 -43 L 322 -56 Q 317 -63 317 -66 Q 317 -67 318 -68 Q 321 -70 324 -70 Q 327 -70 330 -68 L 342 -61 Q 357 -52 374 -39 Q 391 -26 414 -3 Q 436 20 462 58 Q 488 96 506 135 Q 524 173 540 217 Q 554 261 563 296 Q 572 331 579 368 L 594 449 L 600 476 Z" fill="lightgray"></path>
				<path d="M 896 58 Q 889 22 878 5 Q 868 -13 840 -26 Q 812 -40 757 -40 L 749 -40 Q 711 -40 685 -32 Q 656 -22 647 -6 Q 638 11 638 34 L 638 41 Q 638 57 641 86 Q 645 122 649 144 Q 653 164 660 189 Q 666 213 673 226 Q 680 238 680 242 Q 680 248 676 252 Q 673 258 665 263 Q 656 269 636 278 Q 616 288 601 289 Q 594 289 590 286 Q 586 284 585 278 Q 585 272 588 266 L 596 248 Q 601 234 602 213 Q 602 200 601 179 L 593 87 Q 591 62 591 46 L 591 37 Q 591 18 594 2 Q 598 -18 609 -40 Q 620 -62 646 -78 Q 671 -93 719 -97 Q 745 -100 770 -100 Q 790 -100 810 -98 Q 854 -94 880 -85 Q 907 -76 926 -64 Q 945 -52 954 -41 Q 962 -31 962 -24 Q 962 -20 960 -13 L 939 21 Q 929 38 924 64 L 916 95 Q 913 107 909 107 L 908 107 Q 904 106 902 98 L 896 58 Z" fill="lightgray"></path>
</g>
		<text x="40" y="140" font-size="128" fill="#999999">2</text></g>
		<g id="id0:id2:id2" transform="matrix(1.0,0,0,1.0,2048,0.0)">			<g stroke="lightgray" stroke-width="4" transform="scale(4, 4)"> <rect x="0" y="0" width="256" height="256" fill="white" stroke-width="4"/></g>
			<g transform="scale(0.92, -0.92) translate(60, -920)">					<path d="M 89 338 L 82 213 Q 81 185 78 160 Q 74 136 69 112 Q 64 89 64 80 L 64 74 Q 64 61 67 50 Q 70 38 76 26 Q 81 15 88 9 Q 94 2 98 2 Q 106 2 111 16 Q 116 30 119 47 L 122 82 L 128 218 L 128 245 L 132 372 L 132 396 L 138 536 C 139 557 139 557 128 560 L 86 572 L 83 572 Q 79 572 75 570 Q 70 567 68 564 Q 67 562 67 560 Q 67 558 68 556 Q 69 552 74 545 Q 79 537 82 529 L 88 504 Q 91 491 91 462 L 91 447 L 89 338 Z" fill="black"></path>
				<path d="M 247 56 L 254 36 L 263 14 Q 270 -8 276 -13 Q 282 -18 287 -18 Q 295 -18 305 -6 Q 316 6 324 23 Q 334 40 335 58 Q 336 70 336 95 L 336 123 L 334 246 L 335 474 Q 335 505 339 520 Q 342 535 346 543 Q 349 551 349 556 Q 348 561 342 568 Q 334 575 319 584 Q 303 594 295 598 Q 286 602 280 602 Q 276 602 267 598 Q 258 594 237 588 Q 216 582 204 578 L 128 560 C 99 553 109 528 138 536 L 176 546 Q 193 552 210 553 Q 227 555 240 556 L 247 556 Q 265 556 271 551 Q 278 546 280 537 Q 283 529 284 497 L 284 412 L 284 392 L 282 260 L 283 240 L 280 169 Q 280 144 278 131 Q 277 118 276 110 Q 274 101 271 86 C 265 57 237 84 247 56 Z" fill="black"></path>
				<path d="M 132 372 L 157 368 L 163 368 Q 175 368 198 373 L 243 384 Q 256 386 284 392 C 313 398 313 405 284 412 L 260 418 Q 240 422 234 422 Q 227 422 213 417 Q 198 412 180 408 Q 162 404 132 396 C 103 388 102 377 132 372 Z" fill="red"></path>
				<path d="M 128 218 L 155 215 L 159 215 Q 172 215 202 222 Q 238 231 248 233 Q 258 236 283 240 C 313 245 311 253 282 260 L 236 271 L 234 271 Q 227 271 201 264 Q 172 255 128 245 C 99 238 98 221 128 218 Z" fill="lightgray"></path>
				<path d="M 119 47 L 140 46 Q 144 46 170 50 Q 197 54 215 54 Q 232 56 247 56 C 277 56 299 76 271 86 L 252 93 Q 242 97 230 98 Q 222 98 202 94 Q 182 90 164 87 Q 145 85 122 82 C 92 78 89 48 119 47 Z" fill="lightgray"></path>
				<path d="M 442 458 L 434 476 Q 428 492 421 493 Q 416 493 412 489 Q 408 484 407 470 Q 406 455 400 434 Q 394 413 384 397 L 368 368 Q 363 358 362 350 Q 362 336 371 323 Q 380 310 390 310 Q 401 312 412 324 Q 423 336 430 358 Q 436 380 439 393 Q 442 407 444 428 L 442 458 Z" fill="lightgray"></path>
				<path d="M 540 468 L 480 462 Q 474 461 442 458 C 412 455 416 439 444 428 L 465 420 L 468 420 Q 475 420 488 424 L 535 436 L 594 449 L 697 460 L 733 465 Q 749 464 753 459 Q 755 455 755 451 Q 755 448 754 444 Q 752 434 748 426 L 714 360 Q 713 357 713 355 Q 713 352 714 350 Q 716 348 719 348 Q 723 348 727 350 L 745 361 Q 758 368 773 375 Q 789 382 810 387 Q 832 393 852 396 Q 873 398 877 404 Q 878 407 878 411 Q 878 417 874 427 Q 868 442 852 457 Q 836 473 830 478 L 803 496 Q 782 510 778 510 L 775 510 Q 770 510 760 507 Q 748 503 724 497 Q 700 490 686 488 L 600 476 L 540 468 Z" fill="lightgray"></path>
				<path d="M 600 476 L 614 576 Q 616 589 620 609 Q 624 629 627 636 Q 630 644 633 650 Q 636 656 636 661 L 636 663 Q 636 668 628 675 Q 620 681 604 687 Q 588 692 580 694 Q 572 696 560 698 L 555 698 Q 549 698 547 696 Q 544 694 543 690 Q 543 686 548 676 Q 554 666 554 647 Q 555 632 555 621 Q 554 610 550 563 L 540 468 L 535 436 L 527 384 Q 524 364 514 315 Q 503 266 490 226 Q 477 186 456 138 Q 434 91 414 57 Q 394 23 375 1 Q 356 -21 335 -43 L 322 -56 Q 317 -63 317 -66 Q 317 -67 318 -68 Q 321 -70 324 -70 Q 327 -70 330 -68 L 342 -61 Q 357 -52 374 -39 Q 391 -26 414 -3 Q 436 20 462 58 Q 488 96 506 135 Q 524 173 540 217 Q 554 261 563 296 Q 572 331 579 368 L 594 449 L 600 476 Z" fill="lightgray"></path>
				<path d="M 896 58 Q 889 22 878 5 Q 868 -13 840 -26 Q 812 -40 757 -40 L 749 -40 Q 711 -40 685 -32 Q 656 -22 647 -6 Q 638 11 638 34 L 638 41 Q 638 57 641 86 Q 645 122 649 144 Q 653 164 660 189 Q 666 213 673 226 Q 680 238 680 242 Q 680 248 676 252 Q 673 258 665 263 Q 656 269 636 278 Q 616 288 601 289 Q 594 289 590 286 Q 586 284 585 278 Q 585 272 588 266 L 596 248 Q 601 234 602 213 Q 602 200 601 179 L 593 87 Q 591 62 591 46 L 591 37 Q 591 18 594 2 Q 598 -18 609 -40 Q 620 -62 646 -78 Q 671 -93 719 -97 Q 745 -100 770 -100 Q 790 -100 810 -98 Q 854 -94 880 -85 Q 907 -76 926 -64 Q 945 -52 954 -41 Q 962 -31 962 -24 Q 962 -20 960 -13 L 939 21 Q 929 38 924 64 L 916 95 Q 913 107 909 107 L 908 107 Q 904 106 902 98 L 896 58 Z" fill="lightgray"></path>
</g>
		<text x="40" y="140" font-size="128" fill="#999999">3</text></g>
		<g id="id0:id3:id3" transform="matrix(1.0,0,0,1.0,3072,0.0)">			<g stroke="lightgray" stroke-width="4" transform="scale(4, 4)"> <rect x="0" y="0" width="256" height="256" fill="white" stroke-width="4"/></g>
			<g transform="scale(0.92, -0.92) translate(60, -920)">					<path d="M 89 338 L 82 213 Q 81 185 78 160 Q 74 136 69 112 Q 64 89 64 80 L 64 74 Q 64 61 67 50 Q 70 38 76 26 Q 81 15 88 9 Q 94 2 98 2 Q 106 2 111 16 Q 116 30 119 47 L 122 82 L 128 218 L 128 245 L 132 372 L 132 396 L 138 536 C 139 557 139 557 128 560 L 86 572 L 83 572 Q 79 572 75 570 Q 70 567 68 564 Q 67 562 67 560 Q 67 558 68 556 Q 69 552 74 545 Q 79 537 82 529 L 88 504 Q 91 491 91 462 L 91 447 L 89 338 Z" fill="black"></path>
				<path d="M 247 56 L 254 36 L 263 14 Q 270 -8 276 -13 Q 282 -18 287 -18 Q 295 -18 305 -6 Q 316 6 324 23 Q 334 40 335 58 Q 336 70 336 95 L 336 123 L 334 246 L 335 474 Q 335 505 339 520 Q 342 535 346 543 Q 349 551 349 556 Q 348 561 342 568 Q 334 575 319 584 Q 303 594 295 598 Q 286 602 280 602 Q 276 602 267 598 Q 258 594 237 588 Q 216 582 204 578 L 128 560 C 99 553 109 528 138 536 L 176 546 Q 193 552 210 553 Q 227 555 240 556 L 247 556 Q 265 556 271 551 Q 278 546 280 537 Q 283 529 284 497 L 284 412 L 284 392 L 282 260 L 283 240 L 280 169 Q 280 144 278 131 Q 277 118 276 110 Q 274 101 271 86 C 265 57 237 84 247 56 Z" fill="black"></path>
				<path d="M 132 372 L 157 368 L 163 368 Q 175 368 198 373 L 243 384 Q 256 386 284 392 C 313 398 313 405 284 412 L 260 418 Q 240 422 234 422 Q 227 422 213 417 Q 198 412 180 408 Q 162 404 132 396 C 103 388 102 377 132 372 Z" fill="black"></path>
				<path d="M 128 218 L 155 215 L 159 215 Q 172 215 202 222 Q 238 231 248 233 Q 258 236 283 240 C 313 245 311 253 282 260 L 236 271 L 234 271 Q 227 271 201 264 Q 172 255 128 245 C 99 238 98 221 128 218 Z" fill="red"></path>
				<path d="M 119 47 L 140 46 Q 144 46 170 50 Q 197 54 215 54 Q 232 56 247 56 C 277 56 299 76 271 86 L 252 93 Q 242 97 230 98 Q 222 98 202 94 Q 182 90 164 87 Q 145 85 122 82 C 92 78 89 48 119 47 Z" fill="lightgray"></path>
				<path d="M 442 458 L 434 476 Q 428 492 421 493 Q 416 493 412 489 Q 408 484 407 470 Q 406 455 400 434 Q 394 413 384 397 L 368 368 Q 363 358 362 350 Q 362 336 371 323 Q 380 310 390 310 Q 401 312 412 324 Q 423 336 430 358 Q 436 380 439 393 Q 442 407 444 428 L 442 458 Z" fill="lightgray"></path>
				<path d="M 540 468 L 480 462 Q 474 461 442 458 C 412 455 416 439 444 428 L 465 420 L 468 420 Q 475 420 488 424 L 535 436 L 594 449 L 697 460 L 733 465 Q 749 464 753 459 Q 755 455 755 451 Q 755 448 754 444 Q 752 434 748 426 L 714 360 Q 713 357 713 355 Q 713 352 714 350 Q 716 348 719 348 Q 723 348 727 350 L 745 361 Q 758 368 773 375 Q 789 382 810 387 Q 832 393 852 396 Q 873 398 877 404 Q 878 407 878 411 Q 878 417 874 427 Q 868 442 852 457 Q 836 473 830 478 L 803 496 Q 782 510 778 510 L 775 510 Q 770 510 760 507 Q 748 503 724 497 Q 700 490 686 488 L 600 476 L 540 468 Z" fill="lightgray"></path>
				<path d="M 600 476 L 614 576 Q 616 589 620 609 Q 624 629 627 636 Q 630 644 633 650 Q 636 656 636 661 L 636 663 Q 636 668 628 675 Q 620 681 604 687 Q 588 692 580 694 Q 572 696 560 698 L 555 698 Q 549 698 547 696 Q 544 694 543 690 Q 543 686 548 676 Q 554 666 554 647 Q 555 632 555 621 Q 554 610 550 563 L 540 468 L 535 436 L 527 384 Q 524 364 514 315 Q 503 266 490 226 Q 477 186 456 138 Q 434 91 414 57 Q 394 23 375 1 Q 356 -21 335 -43 L 322 -56 Q 317 -63 317 -66 Q 317 -67 318 -68 Q 321 -70 324 -70 Q 327 -70 330 -68 L 342 -61 Q 357 -52 374 -39 Q 391 -26 414 -3 Q 436 20 462 58 Q 488 96 506 135 Q 524 173 540 217 Q 554 261 563 296 Q 572 331 579 368 L 594 449 L 600 476 Z" fill="lightgray"></path>
				<path d="M 896 58 Q 889 22 878 5 Q 868 -13 840 -26 Q 812 -40 757 -40 L 749 -40 Q 711 -40 685 -32 Q 656 -22 647 -6 Q 638 11 638 34 L 638 41 Q 638 57 641 86 Q 645 122 649 144 Q 653 164 660 189 Q 666 213 673 226 Q 680 238 680 242 Q 680 248 676 252 Q 673 258 665 263 Q 656 269 636 278 Q 616 288 601 289 Q 594 289 590 286 Q 586 284 585 278 Q 585 272 588 266 L 596 248 Q 601 234 602 213 Q 602 200 601 179 L 593 87 Q 591 62 591 46 L 591 37 Q 591 18 594 2 Q 598 -18 609 -40 Q 620 -62 646 -78 Q 671 -93 719 -97 Q 745 -100 770 -100 Q 790 -100 810 -98 Q 854 -94 880 -85 Q 907 -76 926 -64 Q 945 -52 954 -41 Q 962 -31 962 -24 Q 962 -20 960 -13 L 939 21 Q 929 38 924 64 L 916 95 Q 913 107 909 107 L 908 107 Q 904 106 902 98 L 896 58 Z" fill="lightgray"></path>
</g>
		<text x="40" y="140" font-size="128" fill="#999999">4</text></g>
		<g id="id0:id4:id4" transform="matrix(1.0,0,0,1.0,4096,0.0)">			<g stroke="lightgray" stroke-width="4" transform="scale(4, 4)"> <rect x="0" y="0" width="256" height="256" fill="white" stroke-width="4"/></g>
			<g transform="scale(0.92, -0.92) translate(60, -920)">					<path d="M 89 338 L 82 213 Q 81 185 78 160 Q 74 136 69 112 Q 64 89 64 80 L 64 74 Q 64 61 67 50 Q 70 38 76 26 Q 81 15 88 9 Q 94 2 98 2 Q 106 2 111 16 Q 116 30 119 47 L 122 82 L 128 218 L 128 245 L 132 372 L 132 396 L 138 536 C 139 557 139 557 128 560 L 86 572 L 83 572 Q 79 572 75 570 Q 70 567 68 564 Q 67 562 67 560 Q 67 558 68 556 Q 69 552 74 545 Q 79 537 82 529 L 88 504 Q 91 491 91 462 L 91 447 L 89 338 Z" fill="black"></path>
				<path d="M 247 56 L 254 36 L 263 14 Q 270 -8 276 -13 Q 282 -18 287 -18 Q 295 -18 305 -6 Q 316 6 324 23 Q 334 40 335 58 Q 336 70 336 95 L 336 123 L 334 246 L 335 474 Q 335 505 339 520 Q 342 535 346 543 Q 349 551 349 556 Q 348 561 342 568 Q 334 575 319 584 Q 303 594 295 598 Q 286 602 280 602 Q 276 602 267 598 Q 258 594 237 588 Q 216 582 204 578 L 128 560 C 99 553 109 528 138 536 L 176 546 Q 193 552 210 553 Q 227 555 240 556 L 247 556 Q 265 556 271 551 Q 278 546 280 537 Q 283 529 284 497 L 284 412 L 284 392 L 282 260 L 283 240 L 280 169 Q 280 144 278 131 Q 277 118 276 110 Q 274 101 271 86 C 265 57 237 84 247 56 Z" fill="black"></path>
				<path d="M 132 372 L 157 368 L 163 368 Q 175 368 198 373 L 243 384 Q 256 386 284 392 C 313 398 313 405 284 412 L 260 418 Q 240 422 234 422 Q 227 422 213 417 Q 198 412 180 408 Q 162 404 132 396 C 103 388 102 377 132 372 Z" fill="black"></path>
				<path d="M 128 218 L 155 215 L 159 215 Q 172 215 202 222 Q 238 231 248 233 Q 258 236 283 240 C 313 245 311 253 282 260 L 236 271 L 234 271 Q 227 271 201 264 Q 172 255 128 245 C 99 238 98 221 128 218 Z" fill="black"></path>
				<path d="M 119 47 L 140 46 Q 144 46 170 50 Q 197 54 215 54 Q 232 56 247 56 C 277 56 299 76 271 86 L 252 93 Q 242 97 230 98 Q 222 98 202 94 Q 182 90 164 87 Q 145 85 122 82 C 92 78 89 48 119 47 Z" fill="red"></path>
				<path d="M 442 458 L 434 476 Q 428 492 421 493 Q 416 493 412 489 Q 408 484 407 470 Q 406 455 400 434 Q 394 413 384 397 L 368 368 Q 363 358 362 350 Q 362 336 371 323 Q 380 310 390 310 Q 401 312 412 324 Q 423 336 430 358 Q 436 380 439 393 Q 442 407 444 428 L 442 458 Z" fill="lightgray"></path>
				<path d="M 540 468 L 480 462 Q 474 461 442 458 C 412 455 416 439 444 428 L 465 420 L 468 420 Q 475 420 488 424 L 535 436 L 594 449 L 697 460 L 733 465 Q 749 464 753 459 Q 755 455 755 451 Q 755 448 754 444 Q 752 434 748 426 L 714 360 Q 713 357 713 355 Q 713 352 714 350 Q 716 348 719 348 Q 723 348 727 350 L 745 361 Q 758 368 773 375 Q 789 382 810 387 Q 832 393 852 396 Q 873 398 877 404 Q 878 407 878 411 Q 878 417 874 427 Q 868 442 852 457 Q 836 473 830 478 L 803 496 Q 782 510 778 510 L 775 510 Q 770 510 760 507 Q 748 503 724 497 Q 700 490 686 488 L 600 476 L 540 468 Z" fill="lightgray"></path>
				<path d="M 600 476 L 614 576 Q 616 589 620 609 Q 624 629 627 636 Q 630 644 633 650 Q 636 656 636 661 L 636 663 Q 636 668 628 675 Q 620 681 604 687 Q 588 692 580 694 Q 572 696 560 698 L 555 698 Q 549 698 547 696 Q 544 694 543 690 Q 543 686 548 676 Q 554 666 554 647 Q 555 632 555 621 Q 554 610 550 563 L 540 468 L 535 436 L 527 384 Q 524 364 514 315 Q 503 266 490 226 Q 477 186 456 138 Q 434 91 414 57 Q 394 23 375 1 Q 356 -21 335 -43 L 322 -56 Q 317 -63 317 -66 Q 317 -67 318 -68 Q 321 -70 324 -70 Q 327 -70 330 -68 L 342 -61 Q 357 -52 374 -39 Q 391 -26 414 -3 Q 436 20 462 58 Q 488 96 506 135 Q 524 173 540 217 Q 554 261 563 296 Q 572 331 579 368 L 594 449 L 600 476 Z" fill="lightgray"></path>
				<path d="M 896 58 Q 889 22 878 5 Q 868 -13 840 -26 Q 812 -40 757 -40 L 749 -40 Q 711 -40 685 -32 Q 656 -22 647 -6 Q 638 11 638 34 L 638 41 Q 638 57 641 86 Q 645 122 649 144 Q 653 164 660 189 Q 666 213 673 226 Q 680 238 680 242 Q 680 248 676 252 Q 673 258 665 263 Q 656 269 636 278 Q 616 288 601 289 Q 594 289 590 286 Q 586 284 585 278 Q 585 272 588 266 L 596 248 Q 601 234 602 213 Q 602 200 601 179 L 593 87 Q 591 62 591 46 L 591 37 Q 591 18 594 2 Q 598 -18 609 -40 Q 620 -62 646 -78 Q 671 -93 719 -97 Q 745 -100 770 -100 Q 790 -100 810 -98 Q 854 -94 880 -85 Q 907 -76 926 -64 Q 945 -52 954 -41 Q 962 -31 962 -24 Q 962 -20 960 -13 L 939 21 Q 929 38 924 64 L 916 95 Q 913 107 909 107 L 908 107 Q 904 106 902 98 L 896 58 Z" fill="lightgray"></path>
</g>
		<text x="40" y="140" font-size="128" fill="#999999">5</text></g>
</g>
	<g id="id1:id1" transform="translate(0.0,1024)">
		<g id="id1:id0:id0" transform="matrix(1.0,0,0,1.0,0,0.0)">			<g stroke="lightgray" stroke-width="4" transform="scale(4, 4)"> <rect x="0" y="0" width="256" height="256" fill="white" stroke-width="4"/></g>
			<g transform="scale(0.92, -0.92) translate(60, -920)">					<path d="M 89 338 L 82 213 Q 81 185 78 160 Q 74 136 69 112 Q 64 89 64 80 L 64 74 Q 64 61 67 50 Q 70 38 76 26 Q 81 15 88 9 Q 94 2 98 2 Q 106 2 111 16 Q 116 30 119 47 L 122 82 L 128 218 L 128 245 L 132 372 L 132 396 L 138 536 C 139 557 139 557 128 560 L 86 572 L 83 572 Q 79 572 75 570 Q 70 567 68 564 Q 67 562 67 560 Q 67 558 68 556 Q 69 552 74 545 Q 79 537 82 529 L 88 504 Q 91 491 91 462 L 91 447 L 89 338 Z" fill="black"></path>
				<path d="M 247 56 L 254 36 L 263 14 Q 270 -8 276 -13 Q 282 -18 287 -18 Q 295 -18 305 -6 Q 316 6 324 23 Q 334 40 335 58 Q 336 70 336 95 L 336 123 L 334 246 L 335 474 Q 335 505 339 520 Q 342 535 346 543 Q 349 551 349 556 Q 348 561 342 568 Q 334 575 319 584 Q 303 594 295 598 Q 286 602 280 602 Q 276 602 267 598 Q 258 594 237 588 Q 216 582 204 578 L 128 560 C 99 553 109 528 138 536 L 176 546 Q 193 552 210 553 Q 227 555 240 556 L 247 556 Q 265 556 271 551 Q 278 546 280 537 Q 283 529 284 497 L 284 412 L 284 392 L 282 260 L 283 240 L 280 169 Q 280 144 278 131 Q 277 118 276 110 Q 274 101 271 86 C 265 57 237 84 247 56 Z" fill="black"></path>
				<path d="M 132 372 L 157 368 L 163 368 Q 175 368 198 373 L 243 384 Q 256 386 284 392 C 313 398 313 405 284 412 L 260 418 Q 240 422 234 422 Q 227 422 213 417 Q 198 412 180 408 Q 162 404 132 396 C 103 388 102 377 132 372 Z" fill="black"></path>
				<path d="M 128 218 L 155 215 L 159 215 Q 172 215 202 222 Q 238 231 248 233 Q 258 236 283 240 C 313 245 311 253 282 260 L 236 271 L 234 271 Q 227 271 201 264 Q 172 255 128 245 C 99 238 98 221 128 218 Z" fill="black"></path>
				<path d="M 119 47 L 140 46 Q 144 46 170 50 Q 197 54 215 54 Q 232 56 247 56 C 277 56 299 76 271 86 L 252 93 Q 242 97 230 98 Q 222 98 202 94 Q 182 90 164 87 Q 145 85 122 82 C 92 78 89 48 119 47 Z" fill="black"></path>
				<path d="M 442 458 L 434 476 Q 428 492 421 493 Q 416 493 412 489 Q 408 484 407 470 Q 406 455 400 434 Q 394 413 384 397 L 368 368 Q 363 358 362 350 Q 362 336 371 323 Q 380 310 390 310 Q 401 312 412 324 Q 423 336 430 358 Q 436 380 439 393 Q 442 407 444 428 L 442 458 Z" fill="red"></path>
				<path d="M 540 468 L 480 462 Q 474 461 442 458 C 412 455 416 439 444 428 L 465 420 L 468 420 Q 475 420 488 424 L 535 436 L 594 449 L 697 460 L 733 465 Q 749 464 753 459 Q 755 455 755 451 Q 755 448 754 444 Q 752 434 748 426 L 714 360 Q 713 357 713 355 Q 713 352 714 350 Q 716 348 719 348 Q 723 348 727 350 L 745 361 Q 758 368 773 375 Q 789 382 810 387 Q 832 393 852 396 Q 873 398 877 404 Q 878 407 878 411 Q 878 417 874 427 Q 868 442 852 457 Q 836 473 830 478 L 803 496 Q 782 510 778 510 L 775 510 Q 770 510 760 507 Q 748 503 724 497 Q 700 490 686 488 L 600 476 L 540 468 Z" fill="lightgray"></path>
				<path d="M 600 476 L 614 576 Q 616 589 620 609 Q 624 629 627 636 Q 630 644 633 650 Q 636 656 636 661 L 636 663 Q 636 668 628 675 Q 620 681 604 687 Q 588 692 580 694 Q 572 696 560 698 L 555 698 Q 549 698 547 696 Q 544 694 543 690 Q 543 686 548 676 Q 554 666 554 647 Q 555 632 555 621 Q 554 610 550 563 L 540 468 L 535 436 L 527 384 Q 524 364 514 315 Q 503 266 490 226 Q 477 186 456 138 Q 434 91 414 57 Q 394 23 375 1 Q 356 -21 335 -43 L 322 -56 Q 317 -63 317 -66 Q 317 -67 318 -68 Q 321 -70 324 -70 Q 327 -70 330 -68 L 342 -61 Q 357 -52 374 -39 Q 391 -26 414 -3 Q 436 20 462 58 Q 488 96 506 135 Q 524 173 540 217 Q 554 261 563 296 Q 572 331 579 368 L 594 449 L 600 476 Z" fill="lightgray"></path>
				<path d="M 896 58 Q 889 22 878 5 Q 868 -13 840 -26 Q 812 -40 757 -40 L 749 -40 Q 711 -40 685 -32 Q 656 -22 647 -6 Q 638 11 638 34 L 638 41 Q 638 57 641 86 Q 645 122 649 144 Q 653 164 660 189 Q 666 213 673 226 Q 680 238 680 242 Q 680 248 676 252 Q 673 258 665 263 Q 656 269 636 278 Q 616 288 601 289 Q 594 289 590 286 Q 586 284 585 278 Q 585 272 588 266 L 596 248 Q 601 234 602 213 Q 602 200 601 179 L 593 87 Q 591 62 591 46 L 591 37 Q 591 18 594 2 Q 598 -18 609 -40 Q 620 -62 646 -78 Q 671 -93 719 -97 Q 745 -100 770 -100 Q 790 -100 810 -98 Q 854 -94 880 -85 Q 907 -76 926 -64 Q 945 -52 954 -41 Q 962 -31 962 -24 Q 962 -20 960 -13 L 939 21 Q 929 38 924 64 L 916 95 Q 913 107 909 107 L 908 107 Q 904 106 902 98 L 896 58 Z" fill="lightgray"></path>
</g>
		<text x="40" y="140" font-size="128" fill="#999999">6</text></g>
		<g id="id1:id1:id1" transform="matrix(1.0,0,0,1.0,1024,0.0)">			<g stroke="lightgray" stroke-width="4" transform="scale(4, 4)"> <rect x="0" y="0" width="256" height="256" fill="white" stroke-width="4"/></g>
			<g transform="scale(0.92, -0.92) translate(60, -920)">					<path d="M 89 338 L 82 213 Q 81 185 78 160 Q 74 136 69 112 Q 64 89 64 80 L 64 74 Q 64 61 67 50 Q 70 38 76 26 Q 81 15 88 9 Q 94 2 98 2 Q 106 2 111 16 Q 116 30 119 47 L 122 82 L 128 218 L 128 245 L 132 372 L 132 396 L 138 536 C 139 557 139 557 128 560 L 86 572 L 83 572 Q 79 572 75 570 Q 70 567 68 564 Q 67 562 67 560 Q 67 558 68 556 Q 69 552 74 545 Q 79 537 82 529 L 88 504 Q 91 491 91 462 L 91 447 L 89 338 Z" fill="black"></path>
				<path d="M 247 56 L 254 36 L 263 14 Q 270 -8 276 -13 Q 282 -18 287 -18 Q 295 -18 305 -6 Q 316 6 324 23 Q 334 40 335 58 Q 336 70 336 95 L 336 123 L 334 246 L 335 474 Q 335 505 339 520 Q 342 535 346 543 Q 349 551 349 556 Q 348 561 342 568 Q 334 575 319 584 Q 303 594 295 598 Q 286 602 280 602 Q 276 602 267 598 Q 258 594 237 588 Q 216 582 204 578 L 128 560 C 99 553 109 528 138 536 L 176 546 Q 193 552 210 553 Q 227 555 240 556 L 247 556 Q 265 556 271 551 Q 278 546 280 537 Q 283 529 284 497 L 284 412 L 284 392 L 282 260 L 283 240 L 280 169 Q 280 144 278 131 Q 277 118 276 110 Q 274 101 271 86 C 265 57 237 84 247 56 Z" fill="black"></path>
				<path d="M 132 372 L 157 368 L 163 368 Q 175 368 198 373 L 243 384 Q 256 386 284 392 C 313 398 313 405 284 412 L 260 418 Q 240 422 234 422 Q 227 422 213 417 Q 198 412 180 408 Q 162 404 132 396 C 103 388 102 377 132 372 Z" fill="black"></path>
				<path d="M 128 218 L 155 215 L 159 215 Q 172 215 202 222 Q 238 231 248 233 Q 258 236 283 240 C 313 245 311 253 282 260 L 236 271 L 234 271 Q 227 271 201 264 Q 172 255 128 245 C 99 238 98 221 128 218 Z" fill="black"></path>
				<path d="M 119 47 L 140 46 Q 144 46 170 50 Q 197 54 215 54 Q 232 56 247 56 C 277 56 299 76 271 86 L 252 93 Q 242 97 230 98 Q 222 98 202 94 Q 182 90 164 87 Q 145 85 122 82 C 92 78 89 48 119 47 Z" fill="black"></path>
				<path d="M 442 458 L 434 476 Q 428 492 421 493 Q 416 493 412 489 Q 408 484 407 470 Q 406 455 400 434 Q 394 413 384 397 L 368 368 Q 363 358 362 350 Q 362 336 371 323 Q 380 310 390 310 Q 401 312 412 324 Q 423 336 430 358 Q 436 380 439 393 Q 442 407 444 428 L 442 458 Z" fill="black"></path>
				<path d="M 540 468 L 480 462 Q 474 461 442 458 C 412 455 416 439 444 428 L 465 420 L 468 420 Q 475 420 488 424 L 535 436 L 594 449 L 697 460 L 733 465 Q 749 464 753 459 Q 755 455 755 451 Q 755 448 754 444 Q 752 434 748 426 L 714 360 Q 713 357 713 355 Q 713 352 714 350 Q 716 348 719 348 Q 723 348 727 350 L 745 361 Q 758 368 773 375 Q 789 382 810 387 Q 832 393 852 396 Q 873 398 877 404 Q 878 407 878 411 Q 878 417 874 427 Q 868 442 852 457 Q 836 473 830 478 L 803 496 Q 782 510 778 510 L 775 510 Q 770 510 760 507 Q 748 503 724 497 Q 700 490 686 488 L 600 476 L 540 468 Z" fill="red"></path>
				<path d="M 600 476 L 614 576 Q 616 589 620 609 Q 624 629 627 636 Q 630 644 633 650 Q 636 656 636 661 L 636 663 Q 636 668 628 675 Q 620 681 604 687 Q 588 692 580 694 Q 572 696 560 698 L 555 698 Q 549 698 547 696 Q 544 694 543 690 Q 543 686 548 676 Q 554 666 554 647 Q 555 632 555 621 Q 554 610 550 563 L 540 468 L 535 436 L 527 384 Q 524 364 514 315 Q 503 266 490 226 Q 477 186 456 138 Q 434 91 414 57 Q 394 23 375 1 Q 356 -21 335 -43 L 322 -56 Q 317 -63 317 -66 Q 317 -67 318 -68 Q 321 -70 324 -70 Q 327 -70 330 -68 L 342 -61 Q 357 -52 374 -39 Q 391 -26 414 -3 Q 436 20 462 58 Q 488 96 506 135 Q 524 173 540 217 Q 554 261 563 296 Q 572 331 579 368 L 594 449 L 600 476 Z" fill="lightgray"></path>
				<path d="M 896 58 Q 889 22 878 5 Q 868 -13 840 -26 Q 812 -40 757 -40 L 749 -40 Q 711 -40 685 -32 Q 656 -22 647 -6 Q 638 11 638 34 L 638 41 Q 638 57 641 86 Q 645 122 649 144 Q 653 164 660 189 Q 666 213 673 226 Q 680 238 680 242 Q 680 248 676 252 Q 673 258 665 263 Q 656 269 636 278 Q 616 288 601 289 Q 594 289 590 286 Q 586 284 585 278 Q 585 272 588 266 L 596 248 Q 601 234 602 213 Q 602 200 601 179 L 593 87 Q 591 62 591 46 L 591 37 Q 591 18 594 2 Q 598 -18 609 -40 Q 620 -62 646 -78 Q 671 -93 719 -97 Q 745 -100 770 -100 Q 790 -100 810 -98 Q 854 -94 880 -85 Q 907 -76 926 -64 Q 945 -52 954 -41 Q 962 -31 962 -24 Q 962 -20 960 -13 L 939 21 Q 929 38 924 64 L 916 95 Q 913 107 909 107 L 908 107 Q 904 106 902 98 L 896 58 Z" fill="lightgray"></path>
</g>
		<text x="40" y="140" font-size="128" fill="#999999">7</text></g>
		<g id="id1:id2:id2" transform="matrix(1.0,0,0,1.0,2048,0.0)">			<g stroke="lightgray" stroke-width="4" transform="scale(4, 4)"> <rect x="0" y="0" width="256" height="256" fill="white" stroke-width="4"/></g>
			<g transform="scale(0.92, -0.92) translate(60, -920)">					<path d="M 89 338 L 82 213 Q 81 185 78 160 Q 74 136 69 112 Q 64 89 64 80 L 64 74 Q 64 61 67 50 Q 70 38 76 26 Q 81 15 88 9 Q 94 2 98 2 Q 106 2 111 16 Q 116 30 119 47 L 122 82 L 128 218 L 128 245 L 132 372 L 132 396 L 138 536 C 139 557 139 557 128 560 L 86 572 L 83 572 Q 79 572 75 570 Q 70 567 68 564 Q 67 562 67 560 Q 67 558 68 556 Q 69 552 74 545 Q 79 537 82 529 L 88 504 Q 91 491 91 462 L 91 447 L 89 338 Z" fill="black"></path>
				<path d="M 247 56 L 254 36 L 263 14 Q 270 -8 276 -13 Q 282 -18 287 -18 Q 295 -18 305 -6 Q 316 6 324 23 Q 334 40 335 58 Q 336 70 336 95 L 336 123 L 334 246 L 335 474 Q 335 505 339 520 Q 342 535 346 543 Q 349 551 349 556 Q 348 561 342 568 Q 334 575 319 584 Q 303 594 295 598 Q 286 602 280 602 Q 276 602 267 598 Q 258 594 237 588 Q 216 582 204 578 L 128 560 C 99 553 109 528 138 536 L 176 546 Q 193 552 210 553 Q 227 555 240 556 L 247 556 Q 265 556 271 551 Q 278 546 280 537 Q 283 529 284 497 L 284 412 L 284 392 L 282 260 L 283 240 L 280 169 Q 280 144 278 131 Q 277 118 276 110 Q 274 101 271 86 C 265 57 237 84 247 56 Z" fill="black"></path>
				<path d="M 132 372 L 157 368 L 163 368 Q 175 368 198 373 L 243 384 Q 256 386 284 392 C 313 398 313 405 284 412 L 260 418 Q 240 422 234 422 Q 227 422 213 417 Q 198 412 180 408 Q 162 404 132 396 C 103 388 102 377 132 372 Z" fill="black"></path>
				<path d="M 128 218 L 155 215 L 159 215 Q 172 215 202 222 Q 238 231 248 233 Q 258 236 283 240 C 313 245 311 253 282 260 L 236 271 L 234 271 Q 227 271 201 264 Q 172 255 128 245 C 99 238 98 221 128 218 Z" fill="black"></path>
				<path d="M 119 47 L 140 46 Q 144 46 170 50 Q 197 54 215 54 Q 232 56 247 56 C 277 56 299 76 271 86 L 252 93 Q 242 97 230 98 Q 222 98 202 94 Q 182 90 164 87 Q 145 85 122 82 C 92 78 89 48 119 47 Z" fill="black"></path>
				<path d="M 442 458 L 434 476 Q 428 492 421 493 Q 416 493 412 489 Q 408 484 407 470 Q 406 455 400 434 Q 394 413 384 397 L 368 368 Q 363 358 362 350 Q 362 336 371 323 Q 380 310 390 310 Q 401 312 412 324 Q 423 336 430 358 Q 436 380 439 393 Q 442 407 444 428 L 442 458 Z" fill="black"></path>
				<path d="M 540 468 L 480 462 Q 474 461 442 458 C 412 455 416 439 444 428 L 465 420 L 468 420 Q 475 420 488 424 L 535 436 L 594 449 L 697 460 L 733 465 Q 749 464 753 459 Q 755 455 755 451 Q 755 448 754 444 Q 752 434 748 426 L 714 360 Q 713 357 713 355 Q 713 352 714 350 Q 716 348 719 348 Q 723 348 727 350 L 745 361 Q 758 368 773 375 Q 789 382 810 387 Q 832 393 852 396 Q 873 398 877 404 Q 878 407 878 411 Q 878 417 874 427 Q 868 442 852 457 Q 836 473 830 478 L 803 496 Q 782 510 778 510 L 775 510 Q 770 510 760 507 Q 748 503 724 497 Q 700 490 686 488 L 600 476 L 540 468 Z" fill="black"></path>
				<path d="M 600 476 L 614 576 Q 616 589 620 609 Q 624 629 627 636 Q 630 644 633 650 Q 636 656 636 661 L 636 663 Q 636 668 628 675 Q 620 681 604 687 Q 588 692 580 694 Q 572 696 560 698 L 555 698 Q 549 698 547 696 Q 544 694 543 690 Q 543 686 548 676 Q 554 666 554 647 Q 555 632 555 621 Q 554 610 550 563 L 540 468 L 535 436 L 527 384 Q 524 364 514 315 Q 503 266 490 226 Q 477 186 456 138 Q 434 91 414 57 Q 394 23 375 1 Q 356 -21 335 -43 L 322 -56 Q 317 -63 317 -66 Q 317 -67 318 -68 Q 321 -70 324 -70 Q 327 -70 330 -68 L 342 -61 Q 357 -52 374 -39 Q 391 -26 414 -3 Q 436 20 462 58 Q 488 96 506 135 Q 524 173 540 217 Q 554 261 563 296 Q 572 331 579 368 L 594 449 L 600 476 Z" fill="red"></path>
				<path d="M 896 58 Q 889 22 878 5 Q 868 -13 840 -26 Q 812 -40 757 -40 L 749 -40 Q 711 -40 685 -32 Q 656 -22 647 -6 Q 638 11 638 34 L 638 41 Q 638 57 641 86 Q 645 122 649 144 Q 653 164 660 189 Q 666 213 673 226 Q 680 238 680 242 Q 680 248 676 252 Q 673 258 665 263 Q 656 269 636 278 Q 616 288 601 289 Q 594 289 590 286 Q 586 284 585 278 Q 585 272 588 266 L 596 248 Q 601 234 602 213 Q 602 200 601 179 L 593 87 Q 591 62 591 46 L 591 37 Q 591 18 594 2 Q 598 -18 609 -40 Q 620 -62 646 -78 Q 671 -93 719 -97 Q 745 -100 770 -100 Q 790 -100 810 -98 Q 854 -94 880 -85 Q 907 -76 926 -64 Q 945 -52 954 -41 Q 962 -31 962 -24 Q 962 -20 960 -13 L 939 21 Q 929 38 924 64 L 916 95 Q 913 107 909 107 L 908 107 Q 904 106 902 98 L 896 58 Z" fill="lightgray"></path>
</g>
		<text x="40" y="140" font-size="128" fill="#999999">8</text></g>
		<g id="id1:id3:id3" transform="matrix(1.0,0,0,1.0,3072,0.0)">			<g stroke="lightgray" stroke-width="4" transform="scale(4, 4)"> <rect x="0" y="0" width="256" height="256" fill="white" stroke-width="4"/></g>
			<g transform="scale(0.92, -0.92) translate(60, -920)">					<path d="M 89 338 L 82 213 Q 81 185 78 160 Q 74 136 69 112 Q 64 89 64 80 L 64 74 Q 64 61 67 50 Q 70 38 76 26 Q 81 15 88 9 Q 94 2 98 2 Q 106 2 111 16 Q 116 30 119 47 L 122 82 L 128 218 L 128 245 L 132 372 L 132 396 L 138 536 C 139 557 139 557 128 560 L 86 572 L 83 572 Q 79 572 75 570 Q 70 567 68 564 Q 67 562 67 560 Q 67 558 68 556 Q 69 552 74 545 Q 79 537 82 529 L 88 504 Q 91 491 91 462 L 91 447 L 89 338 Z" fill="black"></path>
				<path d="M 247 56 L 254 36 L 263 14 Q 270 -8 276 -13 Q 282 -18 287 -18 Q 295 -18 305 -6 Q 316 6 324 23 Q 334 40 335 58 Q 336 70 336 95 L 336 123 L 334 246 L 335 474 Q 335 505 339 520 Q 342 535 346 543 Q 349 551 349 556 Q 348 561 342 568 Q 334 575 319 584 Q 303 594 295 598 Q 286 602 280 602 Q 276 602 267 598 Q 258 594 237 588 Q 216 582 204 578 L 128 560 C 99 553 109 528 138 536 L 176 546 Q 193 552 210 553 Q 227 555 240 556 L 247 556 Q 265 556 271 551 Q 278 546 280 537 Q 283 529 284 497 L 284 412 L 284 392 L 282 260 L 283 240 L 280 169 Q 280 144 278 131 Q 277 118 276 110 Q 274 101 271 86 C 265 57 237 84 247 56 Z" fill="black"></path>
				<path d="M 132 372 L 157 368 L 163 368 Q 175 368 198 373 L 243 384 Q 256 386 284 392 C 313 398 313 405 284 412 L 260 418 Q 240 422 234 422 Q 227 422 213 417 Q 198 412 180 408 Q 162 404 132 396 C 103 388 102 377 132 372 Z" fill="black"></path>
				<path d="M 128 218 L 155 215 L 159 215 Q 172 215 202 222 Q 238 231 248 233 Q 258 236 283 240 C 313 245 311 253 282 260 L 236 271 L 234 271 Q 227 271 201 264 Q 172 255 128 245 C 99 238 98 221 128 218 Z" fill="black"></path>
				<path d="M 119 47 L 140 46 Q 144 46 170 50 Q 197 54 215 54 Q 232 56 247 56 C 277 56 299 76 271 86 L 252 93 Q 242 97 230 98 Q 222 98 202 94 Q 182 90 164 87 Q 145 85 122 82 C 92 78 89 48 119 47 Z" fill="black"></path>
				<path d="M 442 458 L 434 476 Q 428 492 421 493 Q 416 493 412 489 Q 408 484 407 470 Q 406 455 400 434 Q 394 413 384 397 L 368 368 Q 363 358 362 350 Q 362 336 371 323 Q 380 310 390 310 Q 401 312 412 324 Q 423 336 430 358 Q 436 380 439 393 Q 442 407 444 428 L 442 458 Z" fill="black"></path>
				<path d="M 540 468 L 480 462 Q 474 461 442 458 C 412 455 416 439 444 428 L 465 420 L 468 420 Q 475 420 488 424 L 535 436 L 594 449 L 697 460 L 733 465 Q 749 464 753 459 Q 755 455 755 451 Q 755 448 754 444 Q 752 434 748 426 L 714 360 Q 713 357 713 355 Q 713 352 714 350 Q 716 348 719 348 Q 723 348 727 350 L 745 361 Q 758 368 773 375 Q 789 382 810 387 Q 832 393 852 396 Q 873 398 877 404 Q 878 407 878 411 Q 878 417 874 427 Q 868 442 852 457 Q 836 473 830 478 L 803 496 Q 782 510 778 510 L 775 510 Q 770 510 760 507 Q 748 503 724 497 Q 700 490 686 488 L 600 476 L 540 468 Z" fill="black"></path>
				<path d="M 600 476 L 614 576 Q 616 589 620 609 Q 624 629 627 636 Q 630 644 633 650 Q 636 656 636 661 L 636 663 Q 636 668 628 675 Q 620 681 604 687 Q 588 692 580 694 Q 572 696 560 698 L 555 698 Q 549 698 547 696 Q 544 694 543 690 Q 543 686 548 676 Q 554 666 554 647 Q 555 632 555 621 Q 554 610 550 563 L 540 468 L 535 436 L 527 384 Q 524 364 514 315 Q 503 266 490 226 Q 477 186 456 138 Q 434 91 414 57 Q 394 23 375 1 Q 356 -21 335 -43 L 322 -56 Q 317 -63 317 -66 Q 317 -67 318 -68 Q 321 -70 324 -70 Q 327 -70 330 -68 L 342 -61 Q 357 -52 374 -39 Q 391 -26 414 -3 Q 436 20 462 58 Q 488 96 506 135 Q 524 173 540 217 Q 554 261 563 296 Q 572 331 579 368 L 594 449 L 600 476 Z" fill="black"></path>
				<path d="M 896 58 Q 889 22 878 5 Q 868 -13 840 -26 Q 812 -40 757 -40 L 749 -40 Q 711 -40 685 -32 Q 656 -22 647 -6 Q 638 11 638 34 L 638 41 Q 638 57 641 86 Q 645 122 649 144 Q 653 164 660 189 Q 666 213 673 226 Q 680 238 680 242 Q 680 248 676 252 Q 673 258 665 263 Q 656 269 636 278 Q 616 288 601 289 Q 594 289 590 286 Q 586 284 585 278 Q 585 272 588 266 L 596 248 Q 601 234 602 213 Q 602 200 601 179 L 593 87 Q 591 62 591 46 L 591 37 Q 591 18 594 2 Q 598 -18 609 -40 Q 620 -62 646 -78 Q 671 -93 719 -97 Q 745 -100 770 -100 Q 790 -100 810 -98 Q 854 -94 880 -85 Q 907 -76 926 -64 Q 945 -52 954 -41 Q 962 -31 962 -24 Q 962 -20 960 -13 L 939 21 Q 929 38 924 64 L 916 95 Q 913 107 909 107 L 908 107 Q 904 106 902 98 L 896 58 Z" fill="red"></path>
</g>
		<text x="40" y="140" font-size="128" fill="#999999">9</text></g>
		<g id="id1:id4:id4" transform="matrix(1.0,0,0,1.0,4096,0.0)">			<g stroke="white" stroke-width="4" transform="scale(4, 4)"> <rect x="1" y="1" width="255" height="255" fill="white" stroke-width="0"/></g>
</g>
</g>
</svg>
