<?xml version="1.0" standalone="no"?>
<!DOCTYPE svg PUBLIC "-//W3C//DTD SVG 1.1//EN"
 "http://www.w3.org/Graphics/SVG/1.1/DTD/svg11.dtd">
<!-- generate by Japanese dictionary app com.asnsami.kanjidictionary -->

<svg xmlns="http://www.w3.org/2000/svg" xmlns:sodipodi="http://sodipodi.sourceforge.net/DTD/sodipodi-0.dtd" version="1.1" width="640" height="256" viewBox="0 0 5120 2048">
	<g id="id0:id0" transform="translate(0.0,0)">
		<g id="id0:id0:id0" transform="matrix(1.0,0,0,1.0,0,0.0)">			<g stroke="lightgray" stroke-width="4" transform="scale(4, 4)"> <rect x="0" y="0" width="256" height="256" fill="white" stroke-width="4"/></g>
			<g transform="scale(0.92, -0.92) translate(60, -920)">					<path d="M 286 564 L 369 575 Q 426 581 433 587 Q 439 591 439 597 Q 439 600 437 604 Q 433 614 403 624 Q 391 627 379 627 Q 362 627 345 622 L 254 605 L 152 597 Q 135 597 135 590 Q 135 586 140 580 Q 155 564 179 557 Q 192 553 208 553 Q 218 553 230 555 L 286 564 Z" fill="red"></path>
				<path d="M 165 340 L 161 333 Q 128 270 75 197 L 71 186 Q 71 182 75 182 L 78 182 L 92 190 Q 137 230 163 264 L 181 290 L 210 338 L 222 356 Q 255 413 273 462 L 301 526 Q 304 531 304 536 Q 304 547 293 557 L 286 564 C 265 585 228 585 230 555 Q 231 552 231 545 Q 231 534 228 510 Q 222 474 209 436 L 167 344 L 165 340 Z" fill="lightgray"></path>
				<path d="M 181 290 Q 190 241 193 190 Q 196 124 210 102 Q 217 94 229 94 L 234 94 Q 240 106 241 144 L 240 178 L 239 200 L 233 304 C 232 328 232 328 221 333 L 210 338 C 183 350 176 320 181 290 Z" fill="lightgray"></path>
				<path d="M 383 184 L 418 299 Q 429 311 429 320 Q 429 328 420 334 L 379 360 Q 368 367 357 367 Q 348 367 340 362 L 282 344 L 221 333 C 191 328 203 303 233 304 L 241 304 L 309 313 Q 320 315 327 315 Q 339 315 344 311 Q 349 308 349 291 Q 349 279 346 258 L 335 194 C 330 164 374 155 383 184 Z" fill="lightgray"></path>
				<path d="M 241 144 L 256 144 L 391 154 Q 401 154 403 163 Q 403 169 383 184 L 335 194 L 332 194 L 240 178 C 210 173 211 144 241 144 Z" fill="lightgray"></path>
				<path d="M 505 624 Q 493 628 485 628 Q 478 628 474 625 Q 468 621 468 616 Q 468 613 471 608 L 480 585 L 485 551 L 489 474 L 489 458 Q 489 410 484 353 Q 478 287 463 220 Q 448 153 427 96 Q 408 42 385 2 L 380 -12 Q 380 -17 385 -17 L 387 -17 L 407 0 L 446 52 Q 470 86 497 160 Q 521 232 533 314 L 540 389 L 542 430 L 542 538 L 546 578 L 546 589 C 547 616 534 618 505 624 Z" fill="lightgray"></path>
				<path d="M 680 495 L 667 276 Q 665 226 665 184 Q 665 121 670 77 Q 673 50 682 32 Q 691 16 710 1 Q 729 -11 770 -16 L 861 -16 Q 912 -13 943 8 Q 954 15 954 32 Q 954 43 949 58 Q 937 97 932 141 Q 928 184 923 188 L 922 188 Q 917 188 915 181 L 898 119 Q 889 76 863 51 Q 851 44 817 41 L 806 41 Q 781 41 763 45 Q 742 51 734 63 Q 725 72 722 92 Q 714 122 714 214 Q 714 242 715 275 Q 718 419 732 487 Q 744 553 781 594 Q 783 599 783 604 Q 783 615 774 626 Q 762 641 729 654 Q 712 661 699 661 Q 689 661 681 656 Q 638 638 602 631 Q 568 625 505 624 C 475 623 516 587 546 589 L 607 594 Q 639 599 656 599 Q 672 599 676 595 Q 682 591 682 551 Q 682 529 680 495 Z" fill="lightgray"></path>
				<path d="M 540 389 Q 583 334 609 313 Q 616 308 623 308 Q 629 308 636 311 Q 646 316 646 334 Q 646 339 645 346 Q 641 373 633 383 L 602 405 L 542 430 C 514 442 521 413 540 389 Z" fill="lightgray"></path>
</g>
		<text x="40" y="140" font-size="128" fill="#999999">1</text></g>
		<g id="id0:id1:id1" transform="matrix(1.0,0,0,1.0,1024,0.0)">			<g stroke="lightgray" stroke-width="4" transform="scale(4, 4)"> <rect x="0" y="0" width="256" height="256" fill="white" stroke-width="4"/></g>
			<g transform="scale(0.92, -0.92) translate(60, -920)">					<path d="M 286 564 L 369 575 Q 426 581 433 587 Q 439 591 439 597 Q 439 600 437 604 Q 433 614 403 624 Q 391 627 379 627 Q 362 627 345 622 L 254 605 L 152 597 Q 135 597 135 590 Q 135 586 140 580 Q 155 564 179 557 Q 192 553 208 553 Q 218 553 230 555 L 286 564 Z" fill="black"></path>
				<path d="M 165 340 L 161 333 Q 128 270 75 197 L 71 186 Q 71 182 75 182 L 78 182 L 92 190 Q 137 230 163 264 L 181 290 L 210 338 L 222 356 Q 255 413 273 462 L 301 526 Q 304 531 304 536 Q 304 547 293 557 L 286 564 C 265 585 228 585 230 555 Q 231 552 231 545 Q 231 534 228 510 Q 222 474 209 436 L 167 344 L 165 340 Z" fill="red"></path>
				<path d="M 181 290 Q 190 241 193 190 Q 196 124 210 102 Q 217 94 229 94 L 234 94 Q 240 106 241 144 L 240 178 L 239 200 L 233 304 C 232 328 232 328 221 333 L 210 338 C 183 350 176 320 181 290 Z" fill="lightgray"></path>
				<path d="M 383 184 L 418 299 Q 429 311 429 320 Q 429 328 420 334 L 379 360 Q 368 367 357 367 Q 348 367 340 362 L 282 344 L 221 333 C 191 328 203 303 233 304 L 241 304 L 309 313 Q 320 315 327 315 Q 339 315 344 311 Q 349 308 349 291 Q 349 279 346 258 L 335 194 C 330 164 374 155 383 184 Z" fill="lightgray"></path>
				<path d="M 241 144 L 256 144 L 391 154 Q 401 154 403 163 Q 403 169 383 184 L 335 194 L 332 194 L 240 178 C 210 173 211 144 241 144 Z" fill="lightgray"></path>
				<path d="M 505 624 Q 493 628 485 628 Q 478 628 474 625 Q 468 621 468 616 Q 468 613 471 608 L 480 585 L 485 551 L 489 474 L 489 458 Q 489 410 484 353 Q 478 287 463 220 Q 448 153 427 96 Q 408 42 385 2 L 380 -12 Q 380 -17 385 -17 L 387 -17 L 407 0 L 446 52 Q 470 86 497 160 Q 521 232 533 314 L 540 389 L 542 430 L 542 538 L 546 578 L 546 589 C 547 616 534 618 505 624 Z" fill="lightgray"></path>
				<path d="M 680 495 L 667 276 Q 665 226 665 184 Q 665 121 670 77 Q 673 50 682 32 Q 691 16 710 1 Q 729 -11 770 -16 L 861 -16 Q 912 -13 943 8 Q 954 15 954 32 Q 954 43 949 58 Q 937 97 932 141 Q 928 184 923 188 L 922 188 Q 917 188 915 181 L 898 119 Q 889 76 863 51 Q 851 44 817 41 L 806 41 Q 781 41 763 45 Q 742 51 734 63 Q 725 72 722 92 Q 714 122 714 214 Q 714 242 715 275 Q 718 419 732 487 Q 744 553 781 594 Q 783 599 783 604 Q 783 615 774 626 Q 762 641 729 654 Q 712 661 699 661 Q 689 661 681 656 Q 638 638 602 631 Q 568 625 505 624 C 475 623 516 587 546 589 L 607 594 Q 639 599 656 599 Q 672 599 676 595 Q 682 591 682 551 Q 682 529 680 495 Z" fill="lightgray"></path>
				<path d="M 540 389 Q 583 334 609 313 Q 616 308 623 308 Q 629 308 636 311 Q 646 316 646 334 Q 646 339 645 346 Q 641 373 633 383 L 602 405 L 542 430 C 514 442 521 413 540 389 Z" fill="lightgray"></path>
</g>
		<text x="40" y="140" font-size="128" fill="#999999">2</text></g>
		<g id="id0:id2:id2" transform="matrix(1.0,0,0,1.0,2048,0.0)">			<g stroke="lightgray" stroke-width="4" transform="scale(4, 4)"> <rect x="0" y="0" width="256" height="256" fill="white" stroke-width="4"/></g>
			<g transform="scale(0.92, -0.92) translate(60, -920)">					<path d="M 286 564 L 369 575 Q 426 581 433 587 Q 439 591 439 597 Q 439 600 437 604 Q 433 614 403 624 Q 391 627 379 627 Q 362 627 345 622 L 254 605 L 152 597 Q 135 597 135 590 Q 135 586 140 580 Q 155 564 179 557 Q 192 553 208 553 Q 218 553 230 555 L 286 564 Z" fill="black"></path>
				<path d="M 165 340 L 161 333 Q 128 270 75 197 L 71 186 Q 71 182 75 182 L 78 182 L 92 190 Q 137 230 163 264 L 181 290 L 210 338 L 222 356 Q 255 413 273 462 L 301 526 Q 304 531 304 536 Q 304 547 293 557 L 286 564 C 265 585 228 585 230 555 Q 231 552 231 545 Q 231 534 228 510 Q 222 474 209 436 L 167 344 L 165 340 Z" fill="black"></path>
				<path d="M 181 290 Q 190 241 193 190 Q 196 124 210 102 Q 217 94 229 94 L 234 94 Q 240 106 241 144 L 240 178 L 239 200 L 233 304 C 232 328 232 328 221 333 L 210 338 C 183 350 176 320 181 290 Z" fill="red"></path>
				<path d="M 383 184 L 418 299 Q 429 311 429 320 Q 429 328 420 334 L 379 360 Q 368 367 357 367 Q 348 367 340 362 L 282 344 L 221 333 C 191 328 203 303 233 304 L 241 304 L 309 313 Q 320 315 327 315 Q 339 315 344 311 Q 349 308 349 291 Q 349 279 346 258 L 335 194 C 330 164 374 155 383 184 Z" fill="lightgray"></path>
				<path d="M 241 144 L 256 144 L 391 154 Q 401 154 403 163 Q 403 169 383 184 L 335 194 L 332 194 L 240 178 C 210 173 211 144 241 144 Z" fill="lightgray"></path>
				<path d="M 505 624 Q 493 628 485 628 Q 478 628 474 625 Q 468 621 468 616 Q 468 613 471 608 L 480 585 L 485 551 L 489 474 L 489 458 Q 489 410 484 353 Q 478 287 463 220 Q 448 153 427 96 Q 408 42 385 2 L 380 -12 Q 380 -17 385 -17 L 387 -17 L 407 0 L 446 52 Q 470 86 497 160 Q 521 232 533 314 L 540 389 L 542 430 L 542 538 L 546 578 L 546 589 C 547 616 534 618 505 624 Z" fill="lightgray"></path>
				<path d="M 680 495 L 667 276 Q 665 226 665 184 Q 665 121 670 77 Q 673 50 682 32 Q 691 16 710 1 Q 729 -11 770 -16 L 861 -16 Q 912 -13 943 8 Q 954 15 954 32 Q 954 43 949 58 Q 937 97 932 141 Q 928 184 923 188 L 922 188 Q 917 188 915 181 L 898 119 Q 889 76 863 51 Q 851 44 817 41 L 806 41 Q 781 41 763 45 Q 742 51 734 63 Q 725 72 722 92 Q 714 122 714 214 Q 714 242 715 275 Q 718 419 732 487 Q 744 553 781 594 Q 783 599 783 604 Q 783 615 774 626 Q 762 641 729 654 Q 712 661 699 661 Q 689 661 681 656 Q 638 638 602 631 Q 568 625 505 624 C 475 623 516 587 546 589 L 607 594 Q 639 599 656 599 Q 672 599 676 595 Q 682 591 682 551 Q 682 529 680 495 Z" fill="lightgray"></path>
				<path d="M 540 389 Q 583 334 609 313 Q 616 308 623 308 Q 629 308 636 311 Q 646 316 646 334 Q 646 339 645 346 Q 641 373 633 383 L 602 405 L 542 430 C 514 442 521 413 540 389 Z" fill="lightgray"></path>
</g>
		<text x="40" y="140" font-size="128" fill="#999999">3</text></g>
		<g id="id0:id3:id3" transform="matrix(1.0,0,0,1.0,3072,0.0)">			<g stroke="lightgray" stroke-width="4" transform="scale(4, 4)"> <rect x="0" y="0" width="256" height="256" fill="white" stroke-width="4"/></g>
			<g transform="scale(0.92, -0.92) translate(60, -920)">					<path d="M 286 564 L 369 575 Q 426 581 433 587 Q 439 591 439 597 Q 439 600 437 604 Q 433 614 403 624 Q 391 627 379 627 Q 362 627 345 622 L 254 605 L 152 597 Q 135 597 135 590 Q 135 586 140 580 Q 155 564 179 557 Q 192 553 208 553 Q 218 553 230 555 L 286 564 Z" fill="black"></path>
				<path d="M 165 340 L 161 333 Q 128 270 75 197 L 71 186 Q 71 182 75 182 L 78 182 L 92 190 Q 137 230 163 264 L 181 290 L 210 338 L 222 356 Q 255 413 273 462 L 301 526 Q 304 531 304 536 Q 304 547 293 557 L 286 564 C 265 585 228 585 230 555 Q 231 552 231 545 Q 231 534 228 510 Q 222 474 209 436 L 167 344 L 165 340 Z" fill="black"></path>
				<path d="M 181 290 Q 190 241 193 190 Q 196 124 210 102 Q 217 94 229 94 L 234 94 Q 240 106 241 144 L 240 178 L 239 200 L 233 304 C 232 328 232 328 221 333 L 210 338 C 183 350 176 320 181 290 Z" fill="black"></path>
				<path d="M 383 184 L 418 299 Q 429 311 429 320 Q 429 328 420 334 L 379 360 Q 368 367 357 367 Q 348 367 340 362 L 282 344 L 221 333 C 191 328 203 303 233 304 L 241 304 L 309 313 Q 320 315 327 315 Q 339 315 344 311 Q 349 308 349 291 Q 349 279 346 258 L 335 194 C 330 164 374 155 383 184 Z" fill="red"></path>
				<path d="M 241 144 L 256 144 L 391 154 Q 401 154 403 163 Q 403 169 383 184 L 335 194 L 332 194 L 240 178 C 210 173 211 144 241 144 Z" fill="lightgray"></path>
				<path d="M 505 624 Q 493 628 485 628 Q 478 628 474 625 Q 468 621 468 616 Q 468 613 471 608 L 480 585 L 485 551 L 489 474 L 489 458 Q 489 410 484 353 Q 478 287 463 220 Q 448 153 427 96 Q 408 42 385 2 L 380 -12 Q 380 -17 385 -17 L 387 -17 L 407 0 L 446 52 Q 470 86 497 160 Q 521 232 533 314 L 540 389 L 542 430 L 542 538 L 546 578 L 546 589 C 547 616 534 618 505 624 Z" fill="lightgray"></path>
				<path d="M 680 495 L 667 276 Q 665 226 665 184 Q 665 121 670 77 Q 673 50 682 32 Q 691 16 710 1 Q 729 -11 770 -16 L 861 -16 Q 912 -13 943 8 Q 954 15 954 32 Q 954 43 949 58 Q 937 97 932 141 Q 928 184 923 188 L 922 188 Q 917 188 915 181 L 898 119 Q 889 76 863 51 Q 851 44 817 41 L 806 41 Q 781 41 763 45 Q 742 51 734 63 Q 725 72 722 92 Q 714 122 714 214 Q 714 242 715 275 Q 718 419 732 487 Q 744 553 781 594 Q 783 599 783 604 Q 783 615 774 626 Q 762 641 729 654 Q 712 661 699 661 Q 689 661 681 656 Q 638 638 602 631 Q 568 625 505 624 C 475 623 516 587 546 589 L 607 594 Q 639 599 656 599 Q 672 599 676 595 Q 682 591 682 551 Q 682 529 680 495 Z" fill="lightgray"></path>
				<path d="M 540 389 Q 583 334 609 313 Q 616 308 623 308 Q 629 308 636 311 Q 646 316 646 334 Q 646 339 645 346 Q 641 373 633 383 L 602 405 L 542 430 C 514 442 521 413 540 389 Z" fill="lightgray"></path>
</g>
		<text x="40" y="140" font-size="128" fill="#999999">4</text></g>
		<g id="id0:id4:id4" transform="matrix(1.0,0,0,1.0,4096,0.0)">			<g stroke="lightgray" stroke-width="4" transform="scale(4, 4)"> <rect x="0" y="0" width="256" height="256" fill="white" stroke-width="4"/></g>
			<g transform="scale(0.92, -0.92) translate(60, -920)">					<path d="M 286 564 L 369 575 Q 426 581 433 587 Q 439 591 439 597 Q 439 600 437 604 Q 433 614 403 624 Q 391 627 379 627 Q 362 627 345 622 L 254 605 L 152 597 Q 135 597 135 590 Q 135 586 140 580 Q 155 564 179 557 Q 192 553 208 553 Q 218 553 230 555 L 286 564 Z" fill="black"></path>
				<path d="M 165 340 L 161 333 Q 128 270 75 197 L 71 186 Q 71 182 75 182 L 78 182 L 92 190 Q 137 230 163 264 L 181 290 L 210 338 L 222 356 Q 255 413 273 462 L 301 526 Q 304 531 304 536 Q 304 547 293 557 L 286 564 C 265 585 228 585 230 555 Q 231 552 231 545 Q 231 534 228 510 Q 222 474 209 436 L 167 344 L 165 340 Z" fill="black"></path>
				<path d="M 181 290 Q 190 241 193 190 Q 196 124 210 102 Q 217 94 229 94 L 234 94 Q 240 106 241 144 L 240 178 L 239 200 L 233 304 C 232 328 232 328 221 333 L 210 338 C 183 350 176 320 181 290 Z" fill="black"></path>
				<path d="M 383 184 L 418 299 Q 429 311 429 320 Q 429 328 420 334 L 379 360 Q 368 367 357 367 Q 348 367 340 362 L 282 344 L 221 333 C 191 328 203 303 233 304 L 241 304 L 309 313 Q 320 315 327 315 Q 339 315 344 311 Q 349 308 349 291 Q 349 279 346 258 L 335 194 C 330 164 374 155 383 184 Z" fill="black"></path>
				<path d="M 241 144 L 256 144 L 391 154 Q 401 154 403 163 Q 403 169 383 184 L 335 194 L 332 194 L 240 178 C 210 173 211 144 241 144 Z" fill="red"></path>
				<path d="M 505 624 Q 493 628 485 628 Q 478 628 474 625 Q 468 621 468 616 Q 468 613 471 608 L 480 585 L 485 551 L 489 474 L 489 458 Q 489 410 484 353 Q 478 287 463 220 Q 448 153 427 96 Q 408 42 385 2 L 380 -12 Q 380 -17 385 -17 L 387 -17 L 407 0 L 446 52 Q 470 86 497 160 Q 521 232 533 314 L 540 389 L 542 430 L 542 538 L 546 578 L 546 589 C 547 616 534 618 505 624 Z" fill="lightgray"></path>
				<path d="M 680 495 L 667 276 Q 665 226 665 184 Q 665 121 670 77 Q 673 50 682 32 Q 691 16 710 1 Q 729 -11 770 -16 L 861 -16 Q 912 -13 943 8 Q 954 15 954 32 Q 954 43 949 58 Q 937 97 932 141 Q 928 184 923 188 L 922 188 Q 917 188 915 181 L 898 119 Q 889 76 863 51 Q 851 44 817 41 L 806 41 Q 781 41 763 45 Q 742 51 734 63 Q 725 72 722 92 Q 714 122 714 214 Q 714 242 715 275 Q 718 419 732 487 Q 744 553 781 594 Q 783 599 783 604 Q 783 615 774 626 Q 762 641 729 654 Q 712 661 699 661 Q 689 661 681 656 Q 638 638 602 631 Q 568 625 505 624 C 475 623 516 587 546 589 L 607 594 Q 639 599 656 599 Q 672 599 676 595 Q 682 591 682 551 Q 682 529 680 495 Z" fill="lightgray"></path>
				<path d="M 540 389 Q 583 334 609 313 Q 616 308 623 308 Q 629 308 636 311 Q 646 316 646 334 Q 646 339 645 346 Q 641 373 633 383 L 602 405 L 542 430 C 514 442 521 413 540 389 Z" fill="lightgray"></path>
</g>
		<text x="40" y="140" font-size="128" fill="#999999">5</text></g>
</g>
	<g id="id1:id1" transform="translate(0.0,1024)">
		<g id="id1:id0:id0" transform="matrix(1.0,0,0,1.0,0,0.0)">			<g stroke="lightgray" stroke-width="4" transform="scale(4, 4)"> <rect x="0" y="0" width="256" height="256" fill="white" stroke-width="4"/></g>
			<g transform="scale(0.92, -0.92) translate(60, -920)">					<path d="M 286 564 L 369 575 Q 426 581 433 587 Q 439 591 439 597 Q 439 600 437 604 Q 433 614 403 624 Q 391 627 379 627 Q 362 627 345 622 L 254 605 L 152 597 Q 135 597 135 590 Q 135 586 140 580 Q 155 564 179 557 Q 192 553 208 553 Q 218 553 230 555 L 286 564 Z" fill="black"></path>
				<path d="M 165 340 L 161 333 Q 128 270 75 197 L 71 186 Q 71 182 75 182 L 78 182 L 92 190 Q 137 230 163 264 L 181 290 L 210 338 L 222 356 Q 255 413 273 462 L 301 526 Q 304 531 304 536 Q 304 547 293 557 L 286 564 C 265 585 228 585 230 555 Q 231 552 231 545 Q 231 534 228 510 Q 222 474 209 436 L 167 344 L 165 340 Z" fill="black"></path>
				<path d="M 181 290 Q 190 241 193 190 Q 196 124 210 102 Q 217 94 229 94 L 234 94 Q 240 106 241 144 L 240 178 L 239 200 L 233 304 C 232 328 232 328 221 333 L 210 338 C 183 350 176 320 181 290 Z" fill="black"></path>
				<path d="M 383 184 L 418 299 Q 429 311 429 320 Q 429 328 420 334 L 379 360 Q 368 367 357 367 Q 348 367 340 362 L 282 344 L 221 333 C 191 328 203 303 233 304 L 241 304 L 309 313 Q 320 315 327 315 Q 339 315 344 311 Q 349 308 349 291 Q 349 279 346 258 L 335 194 C 330 164 374 155 383 184 Z" fill="black"></path>
				<path d="M 241 144 L 256 144 L 391 154 Q 401 154 403 163 Q 403 169 383 184 L 335 194 L 332 194 L 240 178 C 210 173 211 144 241 144 Z" fill="black"></path>
				<path d="M 505 624 Q 493 628 485 628 Q 478 628 474 625 Q 468 621 468 616 Q 468 613 471 608 L 480 585 L 485 551 L 489 474 L 489 458 Q 489 410 484 353 Q 478 287 463 220 Q 448 153 427 96 Q 408 42 385 2 L 380 -12 Q 380 -17 385 -17 L 387 -17 L 407 0 L 446 52 Q 470 86 497 160 Q 521 232 533 314 L 540 389 L 542 430 L 542 538 L 546 578 L 546 589 C 547 616 534 618 505 624 Z" fill="red"></path>
				<path d="M 680 495 L 667 276 Q 665 226 665 184 Q 665 121 670 77 Q 673 50 682 32 Q 691 16 710 1 Q 729 -11 770 -16 L 861 -16 Q 912 -13 943 8 Q 954 15 954 32 Q 954 43 949 58 Q 937 97 932 141 Q 928 184 923 188 L 922 188 Q 917 188 915 181 L 898 119 Q 889 76 863 51 Q 851 44 817 41 L 806 41 Q 781 41 763 45 Q 742 51 734 63 Q 725 72 722 92 Q 714 122 714 214 Q 714 242 715 275 Q 718 419 732 487 Q 744 553 781 594 Q 783 599 783 604 Q 783 615 774 626 Q 762 641 729 654 Q 712 661 699 661 Q 689 661 681 656 Q 638 638 602 631 Q 568 625 505 624 C 475 623 516 587 546 589 L 607 594 Q 639 599 656 599 Q 672 599 676 595 Q 682 591 682 551 Q 682 529 680 495 Z" fill="lightgray"></path>
				<path d="M 540 389 Q 583 334 609 313 Q 616 308 623 308 Q 629 308 636 311 Q 646 316 646 334 Q 646 339 645 346 Q 641 373 633 383 L 602 405 L 542 430 C 514 442 521 413 540 389 Z" fill="lightgray"></path>
</g>
		<text x="40" y="140" font-size="128" fill="#999999">6</text></g>
		<g id="id1:id1:id1" transform="matrix(1.0,0,0,1.0,1024,0.0)">			<g stroke="lightgray" stroke-width="4" transform="scale(4, 4)"> <rect x="0" y="0" width="256" height="256" fill="white" stroke-width="4"/></g>
			<g transform="scale(0.92, -0.92) translate(60, -920)">					<path d="M 286 564 L 369 575 Q 426 581 433 587 Q 439 591 439 597 Q 439 600 437 604 Q 433 614 403 624 Q 391 627 379 627 Q 362 627 345 622 L 254 605 L 152 597 Q 135 597 135 590 Q 135 586 140 580 Q 155 564 179 557 Q 192 553 208 553 Q 218 553 230 555 L 286 564 Z" fill="black"></path>
				<path d="M 165 340 L 161 333 Q 128 270 75 197 L 71 186 Q 71 182 75 182 L 78 182 L 92 190 Q 137 230 163 264 L 181 290 L 210 338 L 222 356 Q 255 413 273 462 L 301 526 Q 304 531 304 536 Q 304 547 293 557 L 286 564 C 265 585 228 585 230 555 Q 231 552 231 545 Q 231 534 228 510 Q 222 474 209 436 L 167 344 L 165 340 Z" fill="black"></path>
				<path d="M 181 290 Q 190 241 193 190 Q 196 124 210 102 Q 217 94 229 94 L 234 94 Q 240 106 241 144 L 240 178 L 239 200 L 233 304 C 232 328 232 328 221 333 L 210 338 C 183 350 176 320 181 290 Z" fill="black"></path>
				<path d="M 383 184 L 418 299 Q 429 311 429 320 Q 429 328 420 334 L 379 360 Q 368 367 357 367 Q 348 367 340 362 L 282 344 L 221 333 C 191 328 203 303 233 304 L 241 304 L 309 313 Q 320 315 327 315 Q 339 315 344 311 Q 349 308 349 291 Q 349 279 346 258 L 335 194 C 330 164 374 155 383 184 Z" fill="black"></path>
				<path d="M 241 144 L 256 144 L 391 154 Q 401 154 403 163 Q 403 169 383 184 L 335 194 L 332 194 L 240 178 C 210 173 211 144 241 144 Z" fill="black"></path>
				<path d="M 505 624 Q 493 628 485 628 Q 478 628 474 625 Q 468 621 468 616 Q 468 613 471 608 L 480 585 L 485 551 L 489 474 L 489 458 Q 489 410 484 353 Q 478 287 463 220 Q 448 153 427 96 Q 408 42 385 2 L 380 -12 Q 380 -17 385 -17 L 387 -17 L 407 0 L 446 52 Q 470 86 497 160 Q 521 232 533 314 L 540 389 L 542 430 L 542 538 L 546 578 L 546 589 C 547 616 534 618 505 624 Z" fill="black"></path>
				<path d="M 680 495 L 667 276 Q 665 226 665 184 Q 665 121 670 77 Q 673 50 682 32 Q 691 16 710 1 Q 729 -11 770 -16 L 861 -16 Q 912 -13 943 8 Q 954 15 954 32 Q 954 43 949 58 Q 937 97 932 141 Q 928 184 923 188 L 922 188 Q 917 188 915 181 L 898 119 Q 889 76 863 51 Q 851 44 817 41 L 806 41 Q 781 41 763 45 Q 742 51 734 63 Q 725 72 722 92 Q 714 122 714 214 Q 714 242 715 275 Q 718 419 732 487 Q 744 553 781 594 Q 783 599 783 604 Q 783 615 774 626 Q 762 641 729 654 Q 712 661 699 661 Q 689 661 681 656 Q 638 638 602 631 Q 568 625 505 624 C 475 623 516 587 546 589 L 607 594 Q 639 599 656 599 Q 672 599 676 595 Q 682 591 682 551 Q 682 529 680 495 Z" fill="red"></path>
				<path d="M 540 389 Q 583 334 609 313 Q 616 308 623 308 Q 629 308 636 311 Q 646 316 646 334 Q 646 339 645 346 Q 641 373 633 383 L 602 405 L 542 430 C 514 442 521 413 540 389 Z" fill="lightgray"></path>
</g>
		<text x="40" y="140" font-size="128" fill="#999999">7</text></g>
		<g id="id1:id2:id2" transform="matrix(1.0,0,0,1.0,2048,0.0)">			<g stroke="lightgray" stroke-width="4" transform="scale(4, 4)"> <rect x="0" y="0" width="256" height="256" fill="white" stroke-width="4"/></g>
			<g transform="scale(0.92, -0.92) translate(60, -920)">					<path d="M 286 564 L 369 575 Q 426 581 433 587 Q 439 591 439 597 Q 439 600 437 604 Q 433 614 403 624 Q 391 627 379 627 Q 362 627 345 622 L 254 605 L 152 597 Q 135 597 135 590 Q 135 586 140 580 Q 155 564 179 557 Q 192 553 208 553 Q 218 553 230 555 L 286 564 Z" fill="black"></path>
				<path d="M 165 340 L 161 333 Q 128 270 75 197 L 71 186 Q 71 182 75 182 L 78 182 L 92 190 Q 137 230 163 264 L 181 290 L 210 338 L 222 356 Q 255 413 273 462 L 301 526 Q 304 531 304 536 Q 304 547 293 557 L 286 564 C 265 585 228 585 230 555 Q 231 552 231 545 Q 231 534 228 510 Q 222 474 209 436 L 167 344 L 165 340 Z" fill="black"></path>
				<path d="M 181 290 Q 190 241 193 190 Q 196 124 210 102 Q 217 94 229 94 L 234 94 Q 240 106 241 144 L 240 178 L 239 200 L 233 304 C 232 328 232 328 221 333 L 210 338 C 183 350 176 320 181 290 Z" fill="black"></path>
				<path d="M 383 184 L 418 299 Q 429 311 429 320 Q 429 328 420 334 L 379 360 Q 368 367 357 367 Q 348 367 340 362 L 282 344 L 221 333 C 191 328 203 303 233 304 L 241 304 L 309 313 Q 320 315 327 315 Q 339 315 344 311 Q 349 308 349 291 Q 349 279 346 258 L 335 194 C 330 164 374 155 383 184 Z" fill="black"></path>
				<path d="M 241 144 L 256 144 L 391 154 Q 401 154 403 163 Q 403 169 383 184 L 335 194 L 332 194 L 240 178 C 210 173 211 144 241 144 Z" fill="black"></path>
				<path d="M 505 624 Q 493 628 485 628 Q 478 628 474 625 Q 468 621 468 616 Q 468 613 471 608 L 480 585 L 485 551 L 489 474 L 489 458 Q 489 410 484 353 Q 478 287 463 220 Q 448 153 427 96 Q 408 42 385 2 L 380 -12 Q 380 -17 385 -17 L 387 -17 L 407 0 L 446 52 Q 470 86 497 160 Q 521 232 533 314 L 540 389 L 542 430 L 542 538 L 546 578 L 546 589 C 547 616 534 618 505 624 Z" fill="black"></path>
				<path d="M 680 495 L 667 276 Q 665 226 665 184 Q 665 121 670 77 Q 673 50 682 32 Q 691 16 710 1 Q 729 -11 770 -16 L 861 -16 Q 912 -13 943 8 Q 954 15 954 32 Q 954 43 949 58 Q 937 97 932 141 Q 928 184 923 188 L 922 188 Q 917 188 915 181 L 898 119 Q 889 76 863 51 Q 851 44 817 41 L 806 41 Q 781 41 763 45 Q 742 51 734 63 Q 725 72 722 92 Q 714 122 714 214 Q 714 242 715 275 Q 718 419 732 487 Q 744 553 781 594 Q 783 599 783 604 Q 783 615 774 626 Q 762 641 729 654 Q 712 661 699 661 Q 689 661 681 656 Q 638 638 602 631 Q 568 625 505 624 C 475 623 516 587 546 589 L 607 594 Q 639 599 656 599 Q 672 599 676 595 Q 682 591 682 551 Q 682 529 680 495 Z" fill="black"></path>
				<path d="M 540 389 Q 583 334 609 313 Q 616 308 623 308 Q 629 308 636 311 Q 646 316 646 334 Q 646 339 645 346 Q 641 373 633 383 L 602 405 L 542 430 C 514 442 521 413 540 389 Z" fill="red"></path>
</g>
		<text x="40" y="140" font-size="128" fill="#999999">8</text></g>
		<g id="id1:id3:id3" transform="matrix(1.0,0,0,1.0,3072,0.0)">			<g stroke="white" stroke-width="4" transform="scale(4, 4)"> <rect x="1" y="1" width="255" height="255" fill="white" stroke-width="0"/></g>
</g>
		<g id="id1:id4:id4" transform="matrix(1.0,0,0,1.0,4096,0.0)">			<g stroke="white" stroke-width="4" transform="scale(4, 4)"> <rect x="1" y="1" width="255" height="255" fill="white" stroke-width="0"/></g>
</g>
</g>
</svg>
