<?xml version="1.0" standalone="no"?>
<!DOCTYPE svg PUBLIC "-//W3C//DTD SVG 1.1//EN"
 "http://www.w3.org/Graphics/SVG/1.1/DTD/svg11.dtd">
<!-- generate by Japanese dictionary app com.asnsami.kanjidictionary -->

<svg xmlns="http://www.w3.org/2000/svg" xmlns:sodipodi="http://sodipodi.sourceforge.net/DTD/sodipodi-0.dtd" version="1.1" width="640" height="384" viewBox="0 0 5120 3072">
	<g id="id0:id0" transform="translate(0.0,0)">
		<g id="id0:id0:id0" transform="matrix(1.0,0,0,1.0,0,0.0)">			<g stroke="lightgray" stroke-width="4" transform="scale(4, 4)"> <rect x="0" y="0" width="256" height="256" fill="white" stroke-width="4"/></g>
			<g transform="scale(0.92, -0.92) translate(60, -920)">					<path d="M 407 622 L 417 632 L 431 652 L 444 666 Q 445 667 453 673 Q 458 682 449 694 Q 439 704 433 708 L 409 722 Q 381 734 375 727.5 Q 369 721 369.5 710 Q 370 699 365 678 Q 352 639 337 615.5 Q 322 592 292 547 L 264 512 L 234 481 L 215 464 Q 209 456 209 452 Q 209 441 225 450 L 249 462 Q 278 474 328 524 Q 345 541 345 544 L 358 558 Q 370 574 390 599 L 407 622 Z" fill="red"></path>
				<path d="M 460 594 L 517 600 L 542 604 Q 561 605 569 612 Q 578 617 577 621 Q 575 625 567 631 Q 559 637 556 638 L 537 643 Q 525 646 519 646 L 495 640 L 479 637 L 407 622 C 378 616 361 606 390 599 L 421 592 Q 425 591 436 592 L 460 594 Z" fill="lightgray"></path>
				<path d="M 345 544 Q 353 538 378 523 Q 402 507 429 482 Q 455 456 467 456 Q 481 453 494 463 Q 502 471 504 484 Q 505 496 496 508 Q 486 519 448 534 Q 409 548 358 558 C 329 564 321 561 345 544 Z" fill="lightgray"></path>
				<path d="M 675 576 Q 689 593 708 618 L 716 636 L 731 655 L 743 673 Q 746 677 755 686 L 765 692 Q 770 701 769.5 704.5 Q 769 708 760 722 Q 750 734 726 749 Q 702 764 691 761 L 683 757 Q 681 751 681 740 Q 684 719 671 686 L 655 650 Q 648 634 635 609 L 609 568 L 587 538 L 547 492 Q 538 479 539 478 Q 543 470 560 478 L 581 489 Q 620 511 663 562 L 675 576 Z" fill="lightgray"></path>
				<path d="M 708 618 L 723 613 Q 736 608 749 608 Q 762 608 796 611 L 869 618 L 911 626 Q 929 629 936 636 Q 944 641 943 645 Q 943 650 918 661 Q 892 671 873 667 L 838 658 L 716 636 C 686 631 680 627 708 618 Z" fill="lightgray"></path>
				<path d="M 663 562 Q 705 538 732 517 Q 778 486 798 463 Q 814 450 829 450 Q 844 450 853 460 Q 862 469 857 488 Q 851 503 833 518 Q 815 533 769 553 Q 723 572 675 576 C 645 579 637 577 663 562 Z" fill="lightgray"></path>
				<path d="M 412 292 L 439 296 Q 465 298 483 302 L 521 309 Q 538 312 545.5 319.5 Q 553 327 538 336 L 519 344 Q 483 352 481 350 L 456 344 L 415 335 L 365 326 L 331 321 L 297 315 Q 288 315 262 309.5 Q 236 304 199 304 L 177 302 Q 159 302 168 288 Q 185 271 234 269.5 Q 283 268 295 274 L 327 279 Q 332 279 336 280 L 359 286 L 412 292 Z" fill="lightgray"></path>
				<path d="M 360 62 Q 359 51 356.5 18.5 Q 354 -14 343 -52 Q 332 -90 362 -140 Q 373 -155 377 -154 Q 381 -153 389 -143 Q 404 -119 408 -82 L 406 -20 L 410 198 L 410 217 L 412 292 L 415 335 L 415 350 Q 416 365 423 380 Q 429 398 428 406 Q 427 414 395 430 L 373 439 Q 365 442 356.5 440 Q 348 438 346 434 Q 345 430 348 422 L 353 404 Q 357 395 360 381 L 364 356 Q 364 335 365 326 L 363 188 L 362 79 L 360 62 Z" fill="lightgray"></path>
				<path d="M 359 286 L 337 239 Q 335 234 296 175 Q 256 116 222 82 Q 193 51 159 24 L 137 5 Q 126 -2 128 -9 Q 131 -14 143 -8 L 172 4 Q 266 54 323 133 Q 330 146 333 148 Q 335 150 341 158 Q 347 165 347 166 L 363 188 C 444 300 372 313 359 286 Z" fill="lightgray"></path>
				<path d="M 410 198 L 441 156 Q 466 124 473 117 Q 480 105 491 100 Q 497 96 509 98 Q 517 100 523 115 Q 528 130 528 143 Q 527 156 523 165 Q 519 174 501 185 Q 482 195 467 200 Q 451 204 448 205 L 428 211 L 410 217 C 391 223 392 222 410 198 Z" fill="lightgray"></path>
				<path d="M 649 365 L 622 374 L 603 378 Q 584 380 582 373 Q 579 366 591 341 Q 603 316 603 251 L 600 124 Q 599 117 599 99 Q 597 90 593 62 Q 589 34 581 10 Q 573 -15 573 -20 Q 572 -25 577 -41 Q 581 -57 584 -63 Q 586 -68 595 -88 Q 604 -107 611 -105 Q 618 -105 626 -93 Q 633 -80 634 -76 L 641 -50 L 643 -14 L 647 18 L 647 41 Q 647 46 649 82 L 650 112 L 651 134 L 653 203 L 653 228 L 653 267 L 655 299 L 655 334 C 655 363 655 363 649 365 Z" fill="lightgray"></path>
				<path d="M 811 -40 L 823 -62 L 842 -112 Q 850 -130 860 -134 Q 870 -137 889 -116 Q 908 -94 914 -71 Q 922 -49 923 -39 Q 923 -28 921 3 Q 911 67 911 164 L 916 290 Q 918 311 919 323 Q 920 334 924 338 L 932 348 Q 934 356 934 359 Q 934 362 924 369 Q 908 383 903 385 L 871 399 Q 850 409 847 409 Q 844 409 827 402 L 807 394 Q 793 390 759 386 L 715 376 Q 681 369 649 365 C 619 361 626 327 655 334 L 685 341 Q 728 350 773 354 Q 818 358 824 358 Q 848 358 852 338 Q 854 318 854 301 L 854 246 L 854 225 L 854 184 Q 854 146 853 126 L 853 109 L 851 56 L 848 10 Q 848 -12 842 -14 C 834 -43 797 -14 811 -40 Z" fill="lightgray"></path>
				<path d="M 653 203 L 679 201 Q 686 198 772 212 L 792 216 L 827 220 Q 847 225 854 225 C 884 228 883 237 854 246 L 827 254 Q 819 258 811 258 L 653 228 C 624 222 623 205 653 203 Z" fill="lightgray"></path>
				<path d="M 649 82 L 704 84 Q 724 84 767 94 L 809 101 Q 816 103 853 109 C 883 114 882 117 853 126 L 819 137 Q 808 141 796 141 L 775 137 Q 774 137 768 136 L 758 133 L 743 129 L 732 126 Q 721 124 711 122 L 650 112 C 620 107 619 81 649 82 Z" fill="lightgray"></path>
				<path d="M 781 -43 Q 792 -42 811 -40 C 841 -37 872 -19 842 -14 Q 841 -15 826 -10 L 804 -4 Q 787 -2 771 -6 Q 755 -10 725 -10 L 643 -14 C 613 -15 611 -50 641 -50 L 678 -50 L 781 -43 Z" fill="lightgray"></path>
</g>
		<text x="40" y="140" font-size="128" fill="#999999">1</text></g>
		<g id="id0:id1:id1" transform="matrix(1.0,0,0,1.0,1024,0.0)">			<g stroke="lightgray" stroke-width="4" transform="scale(4, 4)"> <rect x="0" y="0" width="256" height="256" fill="white" stroke-width="4"/></g>
			<g transform="scale(0.92, -0.92) translate(60, -920)">					<path d="M 407 622 L 417 632 L 431 652 L 444 666 Q 445 667 453 673 Q 458 682 449 694 Q 439 704 433 708 L 409 722 Q 381 734 375 727.5 Q 369 721 369.5 710 Q 370 699 365 678 Q 352 639 337 615.5 Q 322 592 292 547 L 264 512 L 234 481 L 215 464 Q 209 456 209 452 Q 209 441 225 450 L 249 462 Q 278 474 328 524 Q 345 541 345 544 L 358 558 Q 370 574 390 599 L 407 622 Z" fill="black"></path>
				<path d="M 460 594 L 517 600 L 542 604 Q 561 605 569 612 Q 578 617 577 621 Q 575 625 567 631 Q 559 637 556 638 L 537 643 Q 525 646 519 646 L 495 640 L 479 637 L 407 622 C 378 616 361 606 390 599 L 421 592 Q 425 591 436 592 L 460 594 Z" fill="red"></path>
				<path d="M 345 544 Q 353 538 378 523 Q 402 507 429 482 Q 455 456 467 456 Q 481 453 494 463 Q 502 471 504 484 Q 505 496 496 508 Q 486 519 448 534 Q 409 548 358 558 C 329 564 321 561 345 544 Z" fill="lightgray"></path>
				<path d="M 675 576 Q 689 593 708 618 L 716 636 L 731 655 L 743 673 Q 746 677 755 686 L 765 692 Q 770 701 769.5 704.5 Q 769 708 760 722 Q 750 734 726 749 Q 702 764 691 761 L 683 757 Q 681 751 681 740 Q 684 719 671 686 L 655 650 Q 648 634 635 609 L 609 568 L 587 538 L 547 492 Q 538 479 539 478 Q 543 470 560 478 L 581 489 Q 620 511 663 562 L 675 576 Z" fill="lightgray"></path>
				<path d="M 708 618 L 723 613 Q 736 608 749 608 Q 762 608 796 611 L 869 618 L 911 626 Q 929 629 936 636 Q 944 641 943 645 Q 943 650 918 661 Q 892 671 873 667 L 838 658 L 716 636 C 686 631 680 627 708 618 Z" fill="lightgray"></path>
				<path d="M 663 562 Q 705 538 732 517 Q 778 486 798 463 Q 814 450 829 450 Q 844 450 853 460 Q 862 469 857 488 Q 851 503 833 518 Q 815 533 769 553 Q 723 572 675 576 C 645 579 637 577 663 562 Z" fill="lightgray"></path>
				<path d="M 412 292 L 439 296 Q 465 298 483 302 L 521 309 Q 538 312 545.5 319.5 Q 553 327 538 336 L 519 344 Q 483 352 481 350 L 456 344 L 415 335 L 365 326 L 331 321 L 297 315 Q 288 315 262 309.5 Q 236 304 199 304 L 177 302 Q 159 302 168 288 Q 185 271 234 269.5 Q 283 268 295 274 L 327 279 Q 332 279 336 280 L 359 286 L 412 292 Z" fill="lightgray"></path>
				<path d="M 360 62 Q 359 51 356.5 18.5 Q 354 -14 343 -52 Q 332 -90 362 -140 Q 373 -155 377 -154 Q 381 -153 389 -143 Q 404 -119 408 -82 L 406 -20 L 410 198 L 410 217 L 412 292 L 415 335 L 415 350 Q 416 365 423 380 Q 429 398 428 406 Q 427 414 395 430 L 373 439 Q 365 442 356.5 440 Q 348 438 346 434 Q 345 430 348 422 L 353 404 Q 357 395 360 381 L 364 356 Q 364 335 365 326 L 363 188 L 362 79 L 360 62 Z" fill="lightgray"></path>
				<path d="M 359 286 L 337 239 Q 335 234 296 175 Q 256 116 222 82 Q 193 51 159 24 L 137 5 Q 126 -2 128 -9 Q 131 -14 143 -8 L 172 4 Q 266 54 323 133 Q 330 146 333 148 Q 335 150 341 158 Q 347 165 347 166 L 363 188 C 444 300 372 313 359 286 Z" fill="lightgray"></path>
				<path d="M 410 198 L 441 156 Q 466 124 473 117 Q 480 105 491 100 Q 497 96 509 98 Q 517 100 523 115 Q 528 130 528 143 Q 527 156 523 165 Q 519 174 501 185 Q 482 195 467 200 Q 451 204 448 205 L 428 211 L 410 217 C 391 223 392 222 410 198 Z" fill="lightgray"></path>
				<path d="M 649 365 L 622 374 L 603 378 Q 584 380 582 373 Q 579 366 591 341 Q 603 316 603 251 L 600 124 Q 599 117 599 99 Q 597 90 593 62 Q 589 34 581 10 Q 573 -15 573 -20 Q 572 -25 577 -41 Q 581 -57 584 -63 Q 586 -68 595 -88 Q 604 -107 611 -105 Q 618 -105 626 -93 Q 633 -80 634 -76 L 641 -50 L 643 -14 L 647 18 L 647 41 Q 647 46 649 82 L 650 112 L 651 134 L 653 203 L 653 228 L 653 267 L 655 299 L 655 334 C 655 363 655 363 649 365 Z" fill="lightgray"></path>
				<path d="M 811 -40 L 823 -62 L 842 -112 Q 850 -130 860 -134 Q 870 -137 889 -116 Q 908 -94 914 -71 Q 922 -49 923 -39 Q 923 -28 921 3 Q 911 67 911 164 L 916 290 Q 918 311 919 323 Q 920 334 924 338 L 932 348 Q 934 356 934 359 Q 934 362 924 369 Q 908 383 903 385 L 871 399 Q 850 409 847 409 Q 844 409 827 402 L 807 394 Q 793 390 759 386 L 715 376 Q 681 369 649 365 C 619 361 626 327 655 334 L 685 341 Q 728 350 773 354 Q 818 358 824 358 Q 848 358 852 338 Q 854 318 854 301 L 854 246 L 854 225 L 854 184 Q 854 146 853 126 L 853 109 L 851 56 L 848 10 Q 848 -12 842 -14 C 834 -43 797 -14 811 -40 Z" fill="lightgray"></path>
				<path d="M 653 203 L 679 201 Q 686 198 772 212 L 792 216 L 827 220 Q 847 225 854 225 C 884 228 883 237 854 246 L 827 254 Q 819 258 811 258 L 653 228 C 624 222 623 205 653 203 Z" fill="lightgray"></path>
				<path d="M 649 82 L 704 84 Q 724 84 767 94 L 809 101 Q 816 103 853 109 C 883 114 882 117 853 126 L 819 137 Q 808 141 796 141 L 775 137 Q 774 137 768 136 L 758 133 L 743 129 L 732 126 Q 721 124 711 122 L 650 112 C 620 107 619 81 649 82 Z" fill="lightgray"></path>
				<path d="M 781 -43 Q 792 -42 811 -40 C 841 -37 872 -19 842 -14 Q 841 -15 826 -10 L 804 -4 Q 787 -2 771 -6 Q 755 -10 725 -10 L 643 -14 C 613 -15 611 -50 641 -50 L 678 -50 L 781 -43 Z" fill="lightgray"></path>
</g>
		<text x="40" y="140" font-size="128" fill="#999999">2</text></g>
		<g id="id0:id2:id2" transform="matrix(1.0,0,0,1.0,2048,0.0)">			<g stroke="lightgray" stroke-width="4" transform="scale(4, 4)"> <rect x="0" y="0" width="256" height="256" fill="white" stroke-width="4"/></g>
			<g transform="scale(0.92, -0.92) translate(60, -920)">					<path d="M 407 622 L 417 632 L 431 652 L 444 666 Q 445 667 453 673 Q 458 682 449 694 Q 439 704 433 708 L 409 722 Q 381 734 375 727.5 Q 369 721 369.5 710 Q 370 699 365 678 Q 352 639 337 615.5 Q 322 592 292 547 L 264 512 L 234 481 L 215 464 Q 209 456 209 452 Q 209 441 225 450 L 249 462 Q 278 474 328 524 Q 345 541 345 544 L 358 558 Q 370 574 390 599 L 407 622 Z" fill="black"></path>
				<path d="M 460 594 L 517 600 L 542 604 Q 561 605 569 612 Q 578 617 577 621 Q 575 625 567 631 Q 559 637 556 638 L 537 643 Q 525 646 519 646 L 495 640 L 479 637 L 407 622 C 378 616 361 606 390 599 L 421 592 Q 425 591 436 592 L 460 594 Z" fill="black"></path>
				<path d="M 345 544 Q 353 538 378 523 Q 402 507 429 482 Q 455 456 467 456 Q 481 453 494 463 Q 502 471 504 484 Q 505 496 496 508 Q 486 519 448 534 Q 409 548 358 558 C 329 564 321 561 345 544 Z" fill="red"></path>
				<path d="M 675 576 Q 689 593 708 618 L 716 636 L 731 655 L 743 673 Q 746 677 755 686 L 765 692 Q 770 701 769.5 704.5 Q 769 708 760 722 Q 750 734 726 749 Q 702 764 691 761 L 683 757 Q 681 751 681 740 Q 684 719 671 686 L 655 650 Q 648 634 635 609 L 609 568 L 587 538 L 547 492 Q 538 479 539 478 Q 543 470 560 478 L 581 489 Q 620 511 663 562 L 675 576 Z" fill="lightgray"></path>
				<path d="M 708 618 L 723 613 Q 736 608 749 608 Q 762 608 796 611 L 869 618 L 911 626 Q 929 629 936 636 Q 944 641 943 645 Q 943 650 918 661 Q 892 671 873 667 L 838 658 L 716 636 C 686 631 680 627 708 618 Z" fill="lightgray"></path>
				<path d="M 663 562 Q 705 538 732 517 Q 778 486 798 463 Q 814 450 829 450 Q 844 450 853 460 Q 862 469 857 488 Q 851 503 833 518 Q 815 533 769 553 Q 723 572 675 576 C 645 579 637 577 663 562 Z" fill="lightgray"></path>
				<path d="M 412 292 L 439 296 Q 465 298 483 302 L 521 309 Q 538 312 545.5 319.5 Q 553 327 538 336 L 519 344 Q 483 352 481 350 L 456 344 L 415 335 L 365 326 L 331 321 L 297 315 Q 288 315 262 309.5 Q 236 304 199 304 L 177 302 Q 159 302 168 288 Q 185 271 234 269.5 Q 283 268 295 274 L 327 279 Q 332 279 336 280 L 359 286 L 412 292 Z" fill="lightgray"></path>
				<path d="M 360 62 Q 359 51 356.5 18.5 Q 354 -14 343 -52 Q 332 -90 362 -140 Q 373 -155 377 -154 Q 381 -153 389 -143 Q 404 -119 408 -82 L 406 -20 L 410 198 L 410 217 L 412 292 L 415 335 L 415 350 Q 416 365 423 380 Q 429 398 428 406 Q 427 414 395 430 L 373 439 Q 365 442 356.5 440 Q 348 438 346 434 Q 345 430 348 422 L 353 404 Q 357 395 360 381 L 364 356 Q 364 335 365 326 L 363 188 L 362 79 L 360 62 Z" fill="lightgray"></path>
				<path d="M 359 286 L 337 239 Q 335 234 296 175 Q 256 116 222 82 Q 193 51 159 24 L 137 5 Q 126 -2 128 -9 Q 131 -14 143 -8 L 172 4 Q 266 54 323 133 Q 330 146 333 148 Q 335 150 341 158 Q 347 165 347 166 L 363 188 C 444 300 372 313 359 286 Z" fill="lightgray"></path>
				<path d="M 410 198 L 441 156 Q 466 124 473 117 Q 480 105 491 100 Q 497 96 509 98 Q 517 100 523 115 Q 528 130 528 143 Q 527 156 523 165 Q 519 174 501 185 Q 482 195 467 200 Q 451 204 448 205 L 428 211 L 410 217 C 391 223 392 222 410 198 Z" fill="lightgray"></path>
				<path d="M 649 365 L 622 374 L 603 378 Q 584 380 582 373 Q 579 366 591 341 Q 603 316 603 251 L 600 124 Q 599 117 599 99 Q 597 90 593 62 Q 589 34 581 10 Q 573 -15 573 -20 Q 572 -25 577 -41 Q 581 -57 584 -63 Q 586 -68 595 -88 Q 604 -107 611 -105 Q 618 -105 626 -93 Q 633 -80 634 -76 L 641 -50 L 643 -14 L 647 18 L 647 41 Q 647 46 649 82 L 650 112 L 651 134 L 653 203 L 653 228 L 653 267 L 655 299 L 655 334 C 655 363 655 363 649 365 Z" fill="lightgray"></path>
				<path d="M 811 -40 L 823 -62 L 842 -112 Q 850 -130 860 -134 Q 870 -137 889 -116 Q 908 -94 914 -71 Q 922 -49 923 -39 Q 923 -28 921 3 Q 911 67 911 164 L 916 290 Q 918 311 919 323 Q 920 334 924 338 L 932 348 Q 934 356 934 359 Q 934 362 924 369 Q 908 383 903 385 L 871 399 Q 850 409 847 409 Q 844 409 827 402 L 807 394 Q 793 390 759 386 L 715 376 Q 681 369 649 365 C 619 361 626 327 655 334 L 685 341 Q 728 350 773 354 Q 818 358 824 358 Q 848 358 852 338 Q 854 318 854 301 L 854 246 L 854 225 L 854 184 Q 854 146 853 126 L 853 109 L 851 56 L 848 10 Q 848 -12 842 -14 C 834 -43 797 -14 811 -40 Z" fill="lightgray"></path>
				<path d="M 653 203 L 679 201 Q 686 198 772 212 L 792 216 L 827 220 Q 847 225 854 225 C 884 228 883 237 854 246 L 827 254 Q 819 258 811 258 L 653 228 C 624 222 623 205 653 203 Z" fill="lightgray"></path>
				<path d="M 649 82 L 704 84 Q 724 84 767 94 L 809 101 Q 816 103 853 109 C 883 114 882 117 853 126 L 819 137 Q 808 141 796 141 L 775 137 Q 774 137 768 136 L 758 133 L 743 129 L 732 126 Q 721 124 711 122 L 650 112 C 620 107 619 81 649 82 Z" fill="lightgray"></path>
				<path d="M 781 -43 Q 792 -42 811 -40 C 841 -37 872 -19 842 -14 Q 841 -15 826 -10 L 804 -4 Q 787 -2 771 -6 Q 755 -10 725 -10 L 643 -14 C 613 -15 611 -50 641 -50 L 678 -50 L 781 -43 Z" fill="lightgray"></path>
</g>
		<text x="40" y="140" font-size="128" fill="#999999">3</text></g>
		<g id="id0:id3:id3" transform="matrix(1.0,0,0,1.0,3072,0.0)">			<g stroke="lightgray" stroke-width="4" transform="scale(4, 4)"> <rect x="0" y="0" width="256" height="256" fill="white" stroke-width="4"/></g>
			<g transform="scale(0.92, -0.92) translate(60, -920)">					<path d="M 407 622 L 417 632 L 431 652 L 444 666 Q 445 667 453 673 Q 458 682 449 694 Q 439 704 433 708 L 409 722 Q 381 734 375 727.5 Q 369 721 369.5 710 Q 370 699 365 678 Q 352 639 337 615.5 Q 322 592 292 547 L 264 512 L 234 481 L 215 464 Q 209 456 209 452 Q 209 441 225 450 L 249 462 Q 278 474 328 524 Q 345 541 345 544 L 358 558 Q 370 574 390 599 L 407 622 Z" fill="black"></path>
				<path d="M 460 594 L 517 600 L 542 604 Q 561 605 569 612 Q 578 617 577 621 Q 575 625 567 631 Q 559 637 556 638 L 537 643 Q 525 646 519 646 L 495 640 L 479 637 L 407 622 C 378 616 361 606 390 599 L 421 592 Q 425 591 436 592 L 460 594 Z" fill="black"></path>
				<path d="M 345 544 Q 353 538 378 523 Q 402 507 429 482 Q 455 456 467 456 Q 481 453 494 463 Q 502 471 504 484 Q 505 496 496 508 Q 486 519 448 534 Q 409 548 358 558 C 329 564 321 561 345 544 Z" fill="black"></path>
				<path d="M 675 576 Q 689 593 708 618 L 716 636 L 731 655 L 743 673 Q 746 677 755 686 L 765 692 Q 770 701 769.5 704.5 Q 769 708 760 722 Q 750 734 726 749 Q 702 764 691 761 L 683 757 Q 681 751 681 740 Q 684 719 671 686 L 655 650 Q 648 634 635 609 L 609 568 L 587 538 L 547 492 Q 538 479 539 478 Q 543 470 560 478 L 581 489 Q 620 511 663 562 L 675 576 Z" fill="red"></path>
				<path d="M 708 618 L 723 613 Q 736 608 749 608 Q 762 608 796 611 L 869 618 L 911 626 Q 929 629 936 636 Q 944 641 943 645 Q 943 650 918 661 Q 892 671 873 667 L 838 658 L 716 636 C 686 631 680 627 708 618 Z" fill="lightgray"></path>
				<path d="M 663 562 Q 705 538 732 517 Q 778 486 798 463 Q 814 450 829 450 Q 844 450 853 460 Q 862 469 857 488 Q 851 503 833 518 Q 815 533 769 553 Q 723 572 675 576 C 645 579 637 577 663 562 Z" fill="lightgray"></path>
				<path d="M 412 292 L 439 296 Q 465 298 483 302 L 521 309 Q 538 312 545.5 319.5 Q 553 327 538 336 L 519 344 Q 483 352 481 350 L 456 344 L 415 335 L 365 326 L 331 321 L 297 315 Q 288 315 262 309.5 Q 236 304 199 304 L 177 302 Q 159 302 168 288 Q 185 271 234 269.5 Q 283 268 295 274 L 327 279 Q 332 279 336 280 L 359 286 L 412 292 Z" fill="lightgray"></path>
				<path d="M 360 62 Q 359 51 356.5 18.5 Q 354 -14 343 -52 Q 332 -90 362 -140 Q 373 -155 377 -154 Q 381 -153 389 -143 Q 404 -119 408 -82 L 406 -20 L 410 198 L 410 217 L 412 292 L 415 335 L 415 350 Q 416 365 423 380 Q 429 398 428 406 Q 427 414 395 430 L 373 439 Q 365 442 356.5 440 Q 348 438 346 434 Q 345 430 348 422 L 353 404 Q 357 395 360 381 L 364 356 Q 364 335 365 326 L 363 188 L 362 79 L 360 62 Z" fill="lightgray"></path>
				<path d="M 359 286 L 337 239 Q 335 234 296 175 Q 256 116 222 82 Q 193 51 159 24 L 137 5 Q 126 -2 128 -9 Q 131 -14 143 -8 L 172 4 Q 266 54 323 133 Q 330 146 333 148 Q 335 150 341 158 Q 347 165 347 166 L 363 188 C 444 300 372 313 359 286 Z" fill="lightgray"></path>
				<path d="M 410 198 L 441 156 Q 466 124 473 117 Q 480 105 491 100 Q 497 96 509 98 Q 517 100 523 115 Q 528 130 528 143 Q 527 156 523 165 Q 519 174 501 185 Q 482 195 467 200 Q 451 204 448 205 L 428 211 L 410 217 C 391 223 392 222 410 198 Z" fill="lightgray"></path>
				<path d="M 649 365 L 622 374 L 603 378 Q 584 380 582 373 Q 579 366 591 341 Q 603 316 603 251 L 600 124 Q 599 117 599 99 Q 597 90 593 62 Q 589 34 581 10 Q 573 -15 573 -20 Q 572 -25 577 -41 Q 581 -57 584 -63 Q 586 -68 595 -88 Q 604 -107 611 -105 Q 618 -105 626 -93 Q 633 -80 634 -76 L 641 -50 L 643 -14 L 647 18 L 647 41 Q 647 46 649 82 L 650 112 L 651 134 L 653 203 L 653 228 L 653 267 L 655 299 L 655 334 C 655 363 655 363 649 365 Z" fill="lightgray"></path>
				<path d="M 811 -40 L 823 -62 L 842 -112 Q 850 -130 860 -134 Q 870 -137 889 -116 Q 908 -94 914 -71 Q 922 -49 923 -39 Q 923 -28 921 3 Q 911 67 911 164 L 916 290 Q 918 311 919 323 Q 920 334 924 338 L 932 348 Q 934 356 934 359 Q 934 362 924 369 Q 908 383 903 385 L 871 399 Q 850 409 847 409 Q 844 409 827 402 L 807 394 Q 793 390 759 386 L 715 376 Q 681 369 649 365 C 619 361 626 327 655 334 L 685 341 Q 728 350 773 354 Q 818 358 824 358 Q 848 358 852 338 Q 854 318 854 301 L 854 246 L 854 225 L 854 184 Q 854 146 853 126 L 853 109 L 851 56 L 848 10 Q 848 -12 842 -14 C 834 -43 797 -14 811 -40 Z" fill="lightgray"></path>
				<path d="M 653 203 L 679 201 Q 686 198 772 212 L 792 216 L 827 220 Q 847 225 854 225 C 884 228 883 237 854 246 L 827 254 Q 819 258 811 258 L 653 228 C 624 222 623 205 653 203 Z" fill="lightgray"></path>
				<path d="M 649 82 L 704 84 Q 724 84 767 94 L 809 101 Q 816 103 853 109 C 883 114 882 117 853 126 L 819 137 Q 808 141 796 141 L 775 137 Q 774 137 768 136 L 758 133 L 743 129 L 732 126 Q 721 124 711 122 L 650 112 C 620 107 619 81 649 82 Z" fill="lightgray"></path>
				<path d="M 781 -43 Q 792 -42 811 -40 C 841 -37 872 -19 842 -14 Q 841 -15 826 -10 L 804 -4 Q 787 -2 771 -6 Q 755 -10 725 -10 L 643 -14 C 613 -15 611 -50 641 -50 L 678 -50 L 781 -43 Z" fill="lightgray"></path>
</g>
		<text x="40" y="140" font-size="128" fill="#999999">4</text></g>
		<g id="id0:id4:id4" transform="matrix(1.0,0,0,1.0,4096,0.0)">			<g stroke="lightgray" stroke-width="4" transform="scale(4, 4)"> <rect x="0" y="0" width="256" height="256" fill="white" stroke-width="4"/></g>
			<g transform="scale(0.92, -0.92) translate(60, -920)">					<path d="M 407 622 L 417 632 L 431 652 L 444 666 Q 445 667 453 673 Q 458 682 449 694 Q 439 704 433 708 L 409 722 Q 381 734 375 727.5 Q 369 721 369.5 710 Q 370 699 365 678 Q 352 639 337 615.5 Q 322 592 292 547 L 264 512 L 234 481 L 215 464 Q 209 456 209 452 Q 209 441 225 450 L 249 462 Q 278 474 328 524 Q 345 541 345 544 L 358 558 Q 370 574 390 599 L 407 622 Z" fill="black"></path>
				<path d="M 460 594 L 517 600 L 542 604 Q 561 605 569 612 Q 578 617 577 621 Q 575 625 567 631 Q 559 637 556 638 L 537 643 Q 525 646 519 646 L 495 640 L 479 637 L 407 622 C 378 616 361 606 390 599 L 421 592 Q 425 591 436 592 L 460 594 Z" fill="black"></path>
				<path d="M 345 544 Q 353 538 378 523 Q 402 507 429 482 Q 455 456 467 456 Q 481 453 494 463 Q 502 471 504 484 Q 505 496 496 508 Q 486 519 448 534 Q 409 548 358 558 C 329 564 321 561 345 544 Z" fill="black"></path>
				<path d="M 675 576 Q 689 593 708 618 L 716 636 L 731 655 L 743 673 Q 746 677 755 686 L 765 692 Q 770 701 769.5 704.5 Q 769 708 760 722 Q 750 734 726 749 Q 702 764 691 761 L 683 757 Q 681 751 681 740 Q 684 719 671 686 L 655 650 Q 648 634 635 609 L 609 568 L 587 538 L 547 492 Q 538 479 539 478 Q 543 470 560 478 L 581 489 Q 620 511 663 562 L 675 576 Z" fill="black"></path>
				<path d="M 708 618 L 723 613 Q 736 608 749 608 Q 762 608 796 611 L 869 618 L 911 626 Q 929 629 936 636 Q 944 641 943 645 Q 943 650 918 661 Q 892 671 873 667 L 838 658 L 716 636 C 686 631 680 627 708 618 Z" fill="red"></path>
				<path d="M 663 562 Q 705 538 732 517 Q 778 486 798 463 Q 814 450 829 450 Q 844 450 853 460 Q 862 469 857 488 Q 851 503 833 518 Q 815 533 769 553 Q 723 572 675 576 C 645 579 637 577 663 562 Z" fill="lightgray"></path>
				<path d="M 412 292 L 439 296 Q 465 298 483 302 L 521 309 Q 538 312 545.5 319.5 Q 553 327 538 336 L 519 344 Q 483 352 481 350 L 456 344 L 415 335 L 365 326 L 331 321 L 297 315 Q 288 315 262 309.5 Q 236 304 199 304 L 177 302 Q 159 302 168 288 Q 185 271 234 269.5 Q 283 268 295 274 L 327 279 Q 332 279 336 280 L 359 286 L 412 292 Z" fill="lightgray"></path>
				<path d="M 360 62 Q 359 51 356.5 18.5 Q 354 -14 343 -52 Q 332 -90 362 -140 Q 373 -155 377 -154 Q 381 -153 389 -143 Q 404 -119 408 -82 L 406 -20 L 410 198 L 410 217 L 412 292 L 415 335 L 415 350 Q 416 365 423 380 Q 429 398 428 406 Q 427 414 395 430 L 373 439 Q 365 442 356.5 440 Q 348 438 346 434 Q 345 430 348 422 L 353 404 Q 357 395 360 381 L 364 356 Q 364 335 365 326 L 363 188 L 362 79 L 360 62 Z" fill="lightgray"></path>
				<path d="M 359 286 L 337 239 Q 335 234 296 175 Q 256 116 222 82 Q 193 51 159 24 L 137 5 Q 126 -2 128 -9 Q 131 -14 143 -8 L 172 4 Q 266 54 323 133 Q 330 146 333 148 Q 335 150 341 158 Q 347 165 347 166 L 363 188 C 444 300 372 313 359 286 Z" fill="lightgray"></path>
				<path d="M 410 198 L 441 156 Q 466 124 473 117 Q 480 105 491 100 Q 497 96 509 98 Q 517 100 523 115 Q 528 130 528 143 Q 527 156 523 165 Q 519 174 501 185 Q 482 195 467 200 Q 451 204 448 205 L 428 211 L 410 217 C 391 223 392 222 410 198 Z" fill="lightgray"></path>
				<path d="M 649 365 L 622 374 L 603 378 Q 584 380 582 373 Q 579 366 591 341 Q 603 316 603 251 L 600 124 Q 599 117 599 99 Q 597 90 593 62 Q 589 34 581 10 Q 573 -15 573 -20 Q 572 -25 577 -41 Q 581 -57 584 -63 Q 586 -68 595 -88 Q 604 -107 611 -105 Q 618 -105 626 -93 Q 633 -80 634 -76 L 641 -50 L 643 -14 L 647 18 L 647 41 Q 647 46 649 82 L 650 112 L 651 134 L 653 203 L 653 228 L 653 267 L 655 299 L 655 334 C 655 363 655 363 649 365 Z" fill="lightgray"></path>
				<path d="M 811 -40 L 823 -62 L 842 -112 Q 850 -130 860 -134 Q 870 -137 889 -116 Q 908 -94 914 -71 Q 922 -49 923 -39 Q 923 -28 921 3 Q 911 67 911 164 L 916 290 Q 918 311 919 323 Q 920 334 924 338 L 932 348 Q 934 356 934 359 Q 934 362 924 369 Q 908 383 903 385 L 871 399 Q 850 409 847 409 Q 844 409 827 402 L 807 394 Q 793 390 759 386 L 715 376 Q 681 369 649 365 C 619 361 626 327 655 334 L 685 341 Q 728 350 773 354 Q 818 358 824 358 Q 848 358 852 338 Q 854 318 854 301 L 854 246 L 854 225 L 854 184 Q 854 146 853 126 L 853 109 L 851 56 L 848 10 Q 848 -12 842 -14 C 834 -43 797 -14 811 -40 Z" fill="lightgray"></path>
				<path d="M 653 203 L 679 201 Q 686 198 772 212 L 792 216 L 827 220 Q 847 225 854 225 C 884 228 883 237 854 246 L 827 254 Q 819 258 811 258 L 653 228 C 624 222 623 205 653 203 Z" fill="lightgray"></path>
				<path d="M 649 82 L 704 84 Q 724 84 767 94 L 809 101 Q 816 103 853 109 C 883 114 882 117 853 126 L 819 137 Q 808 141 796 141 L 775 137 Q 774 137 768 136 L 758 133 L 743 129 L 732 126 Q 721 124 711 122 L 650 112 C 620 107 619 81 649 82 Z" fill="lightgray"></path>
				<path d="M 781 -43 Q 792 -42 811 -40 C 841 -37 872 -19 842 -14 Q 841 -15 826 -10 L 804 -4 Q 787 -2 771 -6 Q 755 -10 725 -10 L 643 -14 C 613 -15 611 -50 641 -50 L 678 -50 L 781 -43 Z" fill="lightgray"></path>
</g>
		<text x="40" y="140" font-size="128" fill="#999999">5</text></g>
</g>
	<g id="id1:id1" transform="translate(0.0,1024)">
		<g id="id1:id0:id0" transform="matrix(1.0,0,0,1.0,0,0.0)">			<g stroke="lightgray" stroke-width="4" transform="scale(4, 4)"> <rect x="0" y="0" width="256" height="256" fill="white" stroke-width="4"/></g>
			<g transform="scale(0.92, -0.92) translate(60, -920)">					<path d="M 407 622 L 417 632 L 431 652 L 444 666 Q 445 667 453 673 Q 458 682 449 694 Q 439 704 433 708 L 409 722 Q 381 734 375 727.5 Q 369 721 369.5 710 Q 370 699 365 678 Q 352 639 337 615.5 Q 322 592 292 547 L 264 512 L 234 481 L 215 464 Q 209 456 209 452 Q 209 441 225 450 L 249 462 Q 278 474 328 524 Q 345 541 345 544 L 358 558 Q 370 574 390 599 L 407 622 Z" fill="black"></path>
				<path d="M 460 594 L 517 600 L 542 604 Q 561 605 569 612 Q 578 617 577 621 Q 575 625 567 631 Q 559 637 556 638 L 537 643 Q 525 646 519 646 L 495 640 L 479 637 L 407 622 C 378 616 361 606 390 599 L 421 592 Q 425 591 436 592 L 460 594 Z" fill="black"></path>
				<path d="M 345 544 Q 353 538 378 523 Q 402 507 429 482 Q 455 456 467 456 Q 481 453 494 463 Q 502 471 504 484 Q 505 496 496 508 Q 486 519 448 534 Q 409 548 358 558 C 329 564 321 561 345 544 Z" fill="black"></path>
				<path d="M 675 576 Q 689 593 708 618 L 716 636 L 731 655 L 743 673 Q 746 677 755 686 L 765 692 Q 770 701 769.5 704.5 Q 769 708 760 722 Q 750 734 726 749 Q 702 764 691 761 L 683 757 Q 681 751 681 740 Q 684 719 671 686 L 655 650 Q 648 634 635 609 L 609 568 L 587 538 L 547 492 Q 538 479 539 478 Q 543 470 560 478 L 581 489 Q 620 511 663 562 L 675 576 Z" fill="black"></path>
				<path d="M 708 618 L 723 613 Q 736 608 749 608 Q 762 608 796 611 L 869 618 L 911 626 Q 929 629 936 636 Q 944 641 943 645 Q 943 650 918 661 Q 892 671 873 667 L 838 658 L 716 636 C 686 631 680 627 708 618 Z" fill="black"></path>
				<path d="M 663 562 Q 705 538 732 517 Q 778 486 798 463 Q 814 450 829 450 Q 844 450 853 460 Q 862 469 857 488 Q 851 503 833 518 Q 815 533 769 553 Q 723 572 675 576 C 645 579 637 577 663 562 Z" fill="red"></path>
				<path d="M 412 292 L 439 296 Q 465 298 483 302 L 521 309 Q 538 312 545.5 319.5 Q 553 327 538 336 L 519 344 Q 483 352 481 350 L 456 344 L 415 335 L 365 326 L 331 321 L 297 315 Q 288 315 262 309.5 Q 236 304 199 304 L 177 302 Q 159 302 168 288 Q 185 271 234 269.5 Q 283 268 295 274 L 327 279 Q 332 279 336 280 L 359 286 L 412 292 Z" fill="lightgray"></path>
				<path d="M 360 62 Q 359 51 356.5 18.5 Q 354 -14 343 -52 Q 332 -90 362 -140 Q 373 -155 377 -154 Q 381 -153 389 -143 Q 404 -119 408 -82 L 406 -20 L 410 198 L 410 217 L 412 292 L 415 335 L 415 350 Q 416 365 423 380 Q 429 398 428 406 Q 427 414 395 430 L 373 439 Q 365 442 356.5 440 Q 348 438 346 434 Q 345 430 348 422 L 353 404 Q 357 395 360 381 L 364 356 Q 364 335 365 326 L 363 188 L 362 79 L 360 62 Z" fill="lightgray"></path>
				<path d="M 359 286 L 337 239 Q 335 234 296 175 Q 256 116 222 82 Q 193 51 159 24 L 137 5 Q 126 -2 128 -9 Q 131 -14 143 -8 L 172 4 Q 266 54 323 133 Q 330 146 333 148 Q 335 150 341 158 Q 347 165 347 166 L 363 188 C 444 300 372 313 359 286 Z" fill="lightgray"></path>
				<path d="M 410 198 L 441 156 Q 466 124 473 117 Q 480 105 491 100 Q 497 96 509 98 Q 517 100 523 115 Q 528 130 528 143 Q 527 156 523 165 Q 519 174 501 185 Q 482 195 467 200 Q 451 204 448 205 L 428 211 L 410 217 C 391 223 392 222 410 198 Z" fill="lightgray"></path>
				<path d="M 649 365 L 622 374 L 603 378 Q 584 380 582 373 Q 579 366 591 341 Q 603 316 603 251 L 600 124 Q 599 117 599 99 Q 597 90 593 62 Q 589 34 581 10 Q 573 -15 573 -20 Q 572 -25 577 -41 Q 581 -57 584 -63 Q 586 -68 595 -88 Q 604 -107 611 -105 Q 618 -105 626 -93 Q 633 -80 634 -76 L 641 -50 L 643 -14 L 647 18 L 647 41 Q 647 46 649 82 L 650 112 L 651 134 L 653 203 L 653 228 L 653 267 L 655 299 L 655 334 C 655 363 655 363 649 365 Z" fill="lightgray"></path>
				<path d="M 811 -40 L 823 -62 L 842 -112 Q 850 -130 860 -134 Q 870 -137 889 -116 Q 908 -94 914 -71 Q 922 -49 923 -39 Q 923 -28 921 3 Q 911 67 911 164 L 916 290 Q 918 311 919 323 Q 920 334 924 338 L 932 348 Q 934 356 934 359 Q 934 362 924 369 Q 908 383 903 385 L 871 399 Q 850 409 847 409 Q 844 409 827 402 L 807 394 Q 793 390 759 386 L 715 376 Q 681 369 649 365 C 619 361 626 327 655 334 L 685 341 Q 728 350 773 354 Q 818 358 824 358 Q 848 358 852 338 Q 854 318 854 301 L 854 246 L 854 225 L 854 184 Q 854 146 853 126 L 853 109 L 851 56 L 848 10 Q 848 -12 842 -14 C 834 -43 797 -14 811 -40 Z" fill="lightgray"></path>
				<path d="M 653 203 L 679 201 Q 686 198 772 212 L 792 216 L 827 220 Q 847 225 854 225 C 884 228 883 237 854 246 L 827 254 Q 819 258 811 258 L 653 228 C 624 222 623 205 653 203 Z" fill="lightgray"></path>
				<path d="M 649 82 L 704 84 Q 724 84 767 94 L 809 101 Q 816 103 853 109 C 883 114 882 117 853 126 L 819 137 Q 808 141 796 141 L 775 137 Q 774 137 768 136 L 758 133 L 743 129 L 732 126 Q 721 124 711 122 L 650 112 C 620 107 619 81 649 82 Z" fill="lightgray"></path>
				<path d="M 781 -43 Q 792 -42 811 -40 C 841 -37 872 -19 842 -14 Q 841 -15 826 -10 L 804 -4 Q 787 -2 771 -6 Q 755 -10 725 -10 L 643 -14 C 613 -15 611 -50 641 -50 L 678 -50 L 781 -43 Z" fill="lightgray"></path>
</g>
		<text x="40" y="140" font-size="128" fill="#999999">6</text></g>
		<g id="id1:id1:id1" transform="matrix(1.0,0,0,1.0,1024,0.0)">			<g stroke="lightgray" stroke-width="4" transform="scale(4, 4)"> <rect x="0" y="0" width="256" height="256" fill="white" stroke-width="4"/></g>
			<g transform="scale(0.92, -0.92) translate(60, -920)">					<path d="M 407 622 L 417 632 L 431 652 L 444 666 Q 445 667 453 673 Q 458 682 449 694 Q 439 704 433 708 L 409 722 Q 381 734 375 727.5 Q 369 721 369.5 710 Q 370 699 365 678 Q 352 639 337 615.5 Q 322 592 292 547 L 264 512 L 234 481 L 215 464 Q 209 456 209 452 Q 209 441 225 450 L 249 462 Q 278 474 328 524 Q 345 541 345 544 L 358 558 Q 370 574 390 599 L 407 622 Z" fill="black"></path>
				<path d="M 460 594 L 517 600 L 542 604 Q 561 605 569 612 Q 578 617 577 621 Q 575 625 567 631 Q 559 637 556 638 L 537 643 Q 525 646 519 646 L 495 640 L 479 637 L 407 622 C 378 616 361 606 390 599 L 421 592 Q 425 591 436 592 L 460 594 Z" fill="black"></path>
				<path d="M 345 544 Q 353 538 378 523 Q 402 507 429 482 Q 455 456 467 456 Q 481 453 494 463 Q 502 471 504 484 Q 505 496 496 508 Q 486 519 448 534 Q 409 548 358 558 C 329 564 321 561 345 544 Z" fill="black"></path>
				<path d="M 675 576 Q 689 593 708 618 L 716 636 L 731 655 L 743 673 Q 746 677 755 686 L 765 692 Q 770 701 769.5 704.5 Q 769 708 760 722 Q 750 734 726 749 Q 702 764 691 761 L 683 757 Q 681 751 681 740 Q 684 719 671 686 L 655 650 Q 648 634 635 609 L 609 568 L 587 538 L 547 492 Q 538 479 539 478 Q 543 470 560 478 L 581 489 Q 620 511 663 562 L 675 576 Z" fill="black"></path>
				<path d="M 708 618 L 723 613 Q 736 608 749 608 Q 762 608 796 611 L 869 618 L 911 626 Q 929 629 936 636 Q 944 641 943 645 Q 943 650 918 661 Q 892 671 873 667 L 838 658 L 716 636 C 686 631 680 627 708 618 Z" fill="black"></path>
				<path d="M 663 562 Q 705 538 732 517 Q 778 486 798 463 Q 814 450 829 450 Q 844 450 853 460 Q 862 469 857 488 Q 851 503 833 518 Q 815 533 769 553 Q 723 572 675 576 C 645 579 637 577 663 562 Z" fill="black"></path>
				<path d="M 412 292 L 439 296 Q 465 298 483 302 L 521 309 Q 538 312 545.5 319.5 Q 553 327 538 336 L 519 344 Q 483 352 481 350 L 456 344 L 415 335 L 365 326 L 331 321 L 297 315 Q 288 315 262 309.5 Q 236 304 199 304 L 177 302 Q 159 302 168 288 Q 185 271 234 269.5 Q 283 268 295 274 L 327 279 Q 332 279 336 280 L 359 286 L 412 292 Z" fill="red"></path>
				<path d="M 360 62 Q 359 51 356.5 18.5 Q 354 -14 343 -52 Q 332 -90 362 -140 Q 373 -155 377 -154 Q 381 -153 389 -143 Q 404 -119 408 -82 L 406 -20 L 410 198 L 410 217 L 412 292 L 415 335 L 415 350 Q 416 365 423 380 Q 429 398 428 406 Q 427 414 395 430 L 373 439 Q 365 442 356.5 440 Q 348 438 346 434 Q 345 430 348 422 L 353 404 Q 357 395 360 381 L 364 356 Q 364 335 365 326 L 363 188 L 362 79 L 360 62 Z" fill="lightgray"></path>
				<path d="M 359 286 L 337 239 Q 335 234 296 175 Q 256 116 222 82 Q 193 51 159 24 L 137 5 Q 126 -2 128 -9 Q 131 -14 143 -8 L 172 4 Q 266 54 323 133 Q 330 146 333 148 Q 335 150 341 158 Q 347 165 347 166 L 363 188 C 444 300 372 313 359 286 Z" fill="lightgray"></path>
				<path d="M 410 198 L 441 156 Q 466 124 473 117 Q 480 105 491 100 Q 497 96 509 98 Q 517 100 523 115 Q 528 130 528 143 Q 527 156 523 165 Q 519 174 501 185 Q 482 195 467 200 Q 451 204 448 205 L 428 211 L 410 217 C 391 223 392 222 410 198 Z" fill="lightgray"></path>
				<path d="M 649 365 L 622 374 L 603 378 Q 584 380 582 373 Q 579 366 591 341 Q 603 316 603 251 L 600 124 Q 599 117 599 99 Q 597 90 593 62 Q 589 34 581 10 Q 573 -15 573 -20 Q 572 -25 577 -41 Q 581 -57 584 -63 Q 586 -68 595 -88 Q 604 -107 611 -105 Q 618 -105 626 -93 Q 633 -80 634 -76 L 641 -50 L 643 -14 L 647 18 L 647 41 Q 647 46 649 82 L 650 112 L 651 134 L 653 203 L 653 228 L 653 267 L 655 299 L 655 334 C 655 363 655 363 649 365 Z" fill="lightgray"></path>
				<path d="M 811 -40 L 823 -62 L 842 -112 Q 850 -130 860 -134 Q 870 -137 889 -116 Q 908 -94 914 -71 Q 922 -49 923 -39 Q 923 -28 921 3 Q 911 67 911 164 L 916 290 Q 918 311 919 323 Q 920 334 924 338 L 932 348 Q 934 356 934 359 Q 934 362 924 369 Q 908 383 903 385 L 871 399 Q 850 409 847 409 Q 844 409 827 402 L 807 394 Q 793 390 759 386 L 715 376 Q 681 369 649 365 C 619 361 626 327 655 334 L 685 341 Q 728 350 773 354 Q 818 358 824 358 Q 848 358 852 338 Q 854 318 854 301 L 854 246 L 854 225 L 854 184 Q 854 146 853 126 L 853 109 L 851 56 L 848 10 Q 848 -12 842 -14 C 834 -43 797 -14 811 -40 Z" fill="lightgray"></path>
				<path d="M 653 203 L 679 201 Q 686 198 772 212 L 792 216 L 827 220 Q 847 225 854 225 C 884 228 883 237 854 246 L 827 254 Q 819 258 811 258 L 653 228 C 624 222 623 205 653 203 Z" fill="lightgray"></path>
				<path d="M 649 82 L 704 84 Q 724 84 767 94 L 809 101 Q 816 103 853 109 C 883 114 882 117 853 126 L 819 137 Q 808 141 796 141 L 775 137 Q 774 137 768 136 L 758 133 L 743 129 L 732 126 Q 721 124 711 122 L 650 112 C 620 107 619 81 649 82 Z" fill="lightgray"></path>
				<path d="M 781 -43 Q 792 -42 811 -40 C 841 -37 872 -19 842 -14 Q 841 -15 826 -10 L 804 -4 Q 787 -2 771 -6 Q 755 -10 725 -10 L 643 -14 C 613 -15 611 -50 641 -50 L 678 -50 L 781 -43 Z" fill="lightgray"></path>
</g>
		<text x="40" y="140" font-size="128" fill="#999999">7</text></g>
		<g id="id1:id2:id2" transform="matrix(1.0,0,0,1.0,2048,0.0)">			<g stroke="lightgray" stroke-width="4" transform="scale(4, 4)"> <rect x="0" y="0" width="256" height="256" fill="white" stroke-width="4"/></g>
			<g transform="scale(0.92, -0.92) translate(60, -920)">					<path d="M 407 622 L 417 632 L 431 652 L 444 666 Q 445 667 453 673 Q 458 682 449 694 Q 439 704 433 708 L 409 722 Q 381 734 375 727.5 Q 369 721 369.5 710 Q 370 699 365 678 Q 352 639 337 615.5 Q 322 592 292 547 L 264 512 L 234 481 L 215 464 Q 209 456 209 452 Q 209 441 225 450 L 249 462 Q 278 474 328 524 Q 345 541 345 544 L 358 558 Q 370 574 390 599 L 407 622 Z" fill="black"></path>
				<path d="M 460 594 L 517 600 L 542 604 Q 561 605 569 612 Q 578 617 577 621 Q 575 625 567 631 Q 559 637 556 638 L 537 643 Q 525 646 519 646 L 495 640 L 479 637 L 407 622 C 378 616 361 606 390 599 L 421 592 Q 425 591 436 592 L 460 594 Z" fill="black"></path>
				<path d="M 345 544 Q 353 538 378 523 Q 402 507 429 482 Q 455 456 467 456 Q 481 453 494 463 Q 502 471 504 484 Q 505 496 496 508 Q 486 519 448 534 Q 409 548 358 558 C 329 564 321 561 345 544 Z" fill="black"></path>
				<path d="M 675 576 Q 689 593 708 618 L 716 636 L 731 655 L 743 673 Q 746 677 755 686 L 765 692 Q 770 701 769.5 704.5 Q 769 708 760 722 Q 750 734 726 749 Q 702 764 691 761 L 683 757 Q 681 751 681 740 Q 684 719 671 686 L 655 650 Q 648 634 635 609 L 609 568 L 587 538 L 547 492 Q 538 479 539 478 Q 543 470 560 478 L 581 489 Q 620 511 663 562 L 675 576 Z" fill="black"></path>
				<path d="M 708 618 L 723 613 Q 736 608 749 608 Q 762 608 796 611 L 869 618 L 911 626 Q 929 629 936 636 Q 944 641 943 645 Q 943 650 918 661 Q 892 671 873 667 L 838 658 L 716 636 C 686 631 680 627 708 618 Z" fill="black"></path>
				<path d="M 663 562 Q 705 538 732 517 Q 778 486 798 463 Q 814 450 829 450 Q 844 450 853 460 Q 862 469 857 488 Q 851 503 833 518 Q 815 533 769 553 Q 723 572 675 576 C 645 579 637 577 663 562 Z" fill="black"></path>
				<path d="M 412 292 L 439 296 Q 465 298 483 302 L 521 309 Q 538 312 545.5 319.5 Q 553 327 538 336 L 519 344 Q 483 352 481 350 L 456 344 L 415 335 L 365 326 L 331 321 L 297 315 Q 288 315 262 309.5 Q 236 304 199 304 L 177 302 Q 159 302 168 288 Q 185 271 234 269.5 Q 283 268 295 274 L 327 279 Q 332 279 336 280 L 359 286 L 412 292 Z" fill="black"></path>
				<path d="M 360 62 Q 359 51 356.5 18.5 Q 354 -14 343 -52 Q 332 -90 362 -140 Q 373 -155 377 -154 Q 381 -153 389 -143 Q 404 -119 408 -82 L 406 -20 L 410 198 L 410 217 L 412 292 L 415 335 L 415 350 Q 416 365 423 380 Q 429 398 428 406 Q 427 414 395 430 L 373 439 Q 365 442 356.5 440 Q 348 438 346 434 Q 345 430 348 422 L 353 404 Q 357 395 360 381 L 364 356 Q 364 335 365 326 L 363 188 L 362 79 L 360 62 Z" fill="red"></path>
				<path d="M 359 286 L 337 239 Q 335 234 296 175 Q 256 116 222 82 Q 193 51 159 24 L 137 5 Q 126 -2 128 -9 Q 131 -14 143 -8 L 172 4 Q 266 54 323 133 Q 330 146 333 148 Q 335 150 341 158 Q 347 165 347 166 L 363 188 C 444 300 372 313 359 286 Z" fill="lightgray"></path>
				<path d="M 410 198 L 441 156 Q 466 124 473 117 Q 480 105 491 100 Q 497 96 509 98 Q 517 100 523 115 Q 528 130 528 143 Q 527 156 523 165 Q 519 174 501 185 Q 482 195 467 200 Q 451 204 448 205 L 428 211 L 410 217 C 391 223 392 222 410 198 Z" fill="lightgray"></path>
				<path d="M 649 365 L 622 374 L 603 378 Q 584 380 582 373 Q 579 366 591 341 Q 603 316 603 251 L 600 124 Q 599 117 599 99 Q 597 90 593 62 Q 589 34 581 10 Q 573 -15 573 -20 Q 572 -25 577 -41 Q 581 -57 584 -63 Q 586 -68 595 -88 Q 604 -107 611 -105 Q 618 -105 626 -93 Q 633 -80 634 -76 L 641 -50 L 643 -14 L 647 18 L 647 41 Q 647 46 649 82 L 650 112 L 651 134 L 653 203 L 653 228 L 653 267 L 655 299 L 655 334 C 655 363 655 363 649 365 Z" fill="lightgray"></path>
				<path d="M 811 -40 L 823 -62 L 842 -112 Q 850 -130 860 -134 Q 870 -137 889 -116 Q 908 -94 914 -71 Q 922 -49 923 -39 Q 923 -28 921 3 Q 911 67 911 164 L 916 290 Q 918 311 919 323 Q 920 334 924 338 L 932 348 Q 934 356 934 359 Q 934 362 924 369 Q 908 383 903 385 L 871 399 Q 850 409 847 409 Q 844 409 827 402 L 807 394 Q 793 390 759 386 L 715 376 Q 681 369 649 365 C 619 361 626 327 655 334 L 685 341 Q 728 350 773 354 Q 818 358 824 358 Q 848 358 852 338 Q 854 318 854 301 L 854 246 L 854 225 L 854 184 Q 854 146 853 126 L 853 109 L 851 56 L 848 10 Q 848 -12 842 -14 C 834 -43 797 -14 811 -40 Z" fill="lightgray"></path>
				<path d="M 653 203 L 679 201 Q 686 198 772 212 L 792 216 L 827 220 Q 847 225 854 225 C 884 228 883 237 854 246 L 827 254 Q 819 258 811 258 L 653 228 C 624 222 623 205 653 203 Z" fill="lightgray"></path>
				<path d="M 649 82 L 704 84 Q 724 84 767 94 L 809 101 Q 816 103 853 109 C 883 114 882 117 853 126 L 819 137 Q 808 141 796 141 L 775 137 Q 774 137 768 136 L 758 133 L 743 129 L 732 126 Q 721 124 711 122 L 650 112 C 620 107 619 81 649 82 Z" fill="lightgray"></path>
				<path d="M 781 -43 Q 792 -42 811 -40 C 841 -37 872 -19 842 -14 Q 841 -15 826 -10 L 804 -4 Q 787 -2 771 -6 Q 755 -10 725 -10 L 643 -14 C 613 -15 611 -50 641 -50 L 678 -50 L 781 -43 Z" fill="lightgray"></path>
</g>
		<text x="40" y="140" font-size="128" fill="#999999">8</text></g>
		<g id="id1:id3:id3" transform="matrix(1.0,0,0,1.0,3072,0.0)">			<g stroke="lightgray" stroke-width="4" transform="scale(4, 4)"> <rect x="0" y="0" width="256" height="256" fill="white" stroke-width="4"/></g>
			<g transform="scale(0.92, -0.92) translate(60, -920)">					<path d="M 407 622 L 417 632 L 431 652 L 444 666 Q 445 667 453 673 Q 458 682 449 694 Q 439 704 433 708 L 409 722 Q 381 734 375 727.5 Q 369 721 369.5 710 Q 370 699 365 678 Q 352 639 337 615.5 Q 322 592 292 547 L 264 512 L 234 481 L 215 464 Q 209 456 209 452 Q 209 441 225 450 L 249 462 Q 278 474 328 524 Q 345 541 345 544 L 358 558 Q 370 574 390 599 L 407 622 Z" fill="black"></path>
				<path d="M 460 594 L 517 600 L 542 604 Q 561 605 569 612 Q 578 617 577 621 Q 575 625 567 631 Q 559 637 556 638 L 537 643 Q 525 646 519 646 L 495 640 L 479 637 L 407 622 C 378 616 361 606 390 599 L 421 592 Q 425 591 436 592 L 460 594 Z" fill="black"></path>
				<path d="M 345 544 Q 353 538 378 523 Q 402 507 429 482 Q 455 456 467 456 Q 481 453 494 463 Q 502 471 504 484 Q 505 496 496 508 Q 486 519 448 534 Q 409 548 358 558 C 329 564 321 561 345 544 Z" fill="black"></path>
				<path d="M 675 576 Q 689 593 708 618 L 716 636 L 731 655 L 743 673 Q 746 677 755 686 L 765 692 Q 770 701 769.5 704.5 Q 769 708 760 722 Q 750 734 726 749 Q 702 764 691 761 L 683 757 Q 681 751 681 740 Q 684 719 671 686 L 655 650 Q 648 634 635 609 L 609 568 L 587 538 L 547 492 Q 538 479 539 478 Q 543 470 560 478 L 581 489 Q 620 511 663 562 L 675 576 Z" fill="black"></path>
				<path d="M 708 618 L 723 613 Q 736 608 749 608 Q 762 608 796 611 L 869 618 L 911 626 Q 929 629 936 636 Q 944 641 943 645 Q 943 650 918 661 Q 892 671 873 667 L 838 658 L 716 636 C 686 631 680 627 708 618 Z" fill="black"></path>
				<path d="M 663 562 Q 705 538 732 517 Q 778 486 798 463 Q 814 450 829 450 Q 844 450 853 460 Q 862 469 857 488 Q 851 503 833 518 Q 815 533 769 553 Q 723 572 675 576 C 645 579 637 577 663 562 Z" fill="black"></path>
				<path d="M 412 292 L 439 296 Q 465 298 483 302 L 521 309 Q 538 312 545.5 319.5 Q 553 327 538 336 L 519 344 Q 483 352 481 350 L 456 344 L 415 335 L 365 326 L 331 321 L 297 315 Q 288 315 262 309.5 Q 236 304 199 304 L 177 302 Q 159 302 168 288 Q 185 271 234 269.5 Q 283 268 295 274 L 327 279 Q 332 279 336 280 L 359 286 L 412 292 Z" fill="black"></path>
				<path d="M 360 62 Q 359 51 356.5 18.5 Q 354 -14 343 -52 Q 332 -90 362 -140 Q 373 -155 377 -154 Q 381 -153 389 -143 Q 404 -119 408 -82 L 406 -20 L 410 198 L 410 217 L 412 292 L 415 335 L 415 350 Q 416 365 423 380 Q 429 398 428 406 Q 427 414 395 430 L 373 439 Q 365 442 356.5 440 Q 348 438 346 434 Q 345 430 348 422 L 353 404 Q 357 395 360 381 L 364 356 Q 364 335 365 326 L 363 188 L 362 79 L 360 62 Z" fill="black"></path>
				<path d="M 359 286 L 337 239 Q 335 234 296 175 Q 256 116 222 82 Q 193 51 159 24 L 137 5 Q 126 -2 128 -9 Q 131 -14 143 -8 L 172 4 Q 266 54 323 133 Q 330 146 333 148 Q 335 150 341 158 Q 347 165 347 166 L 363 188 C 444 300 372 313 359 286 Z" fill="red"></path>
				<path d="M 410 198 L 441 156 Q 466 124 473 117 Q 480 105 491 100 Q 497 96 509 98 Q 517 100 523 115 Q 528 130 528 143 Q 527 156 523 165 Q 519 174 501 185 Q 482 195 467 200 Q 451 204 448 205 L 428 211 L 410 217 C 391 223 392 222 410 198 Z" fill="lightgray"></path>
				<path d="M 649 365 L 622 374 L 603 378 Q 584 380 582 373 Q 579 366 591 341 Q 603 316 603 251 L 600 124 Q 599 117 599 99 Q 597 90 593 62 Q 589 34 581 10 Q 573 -15 573 -20 Q 572 -25 577 -41 Q 581 -57 584 -63 Q 586 -68 595 -88 Q 604 -107 611 -105 Q 618 -105 626 -93 Q 633 -80 634 -76 L 641 -50 L 643 -14 L 647 18 L 647 41 Q 647 46 649 82 L 650 112 L 651 134 L 653 203 L 653 228 L 653 267 L 655 299 L 655 334 C 655 363 655 363 649 365 Z" fill="lightgray"></path>
				<path d="M 811 -40 L 823 -62 L 842 -112 Q 850 -130 860 -134 Q 870 -137 889 -116 Q 908 -94 914 -71 Q 922 -49 923 -39 Q 923 -28 921 3 Q 911 67 911 164 L 916 290 Q 918 311 919 323 Q 920 334 924 338 L 932 348 Q 934 356 934 359 Q 934 362 924 369 Q 908 383 903 385 L 871 399 Q 850 409 847 409 Q 844 409 827 402 L 807 394 Q 793 390 759 386 L 715 376 Q 681 369 649 365 C 619 361 626 327 655 334 L 685 341 Q 728 350 773 354 Q 818 358 824 358 Q 848 358 852 338 Q 854 318 854 301 L 854 246 L 854 225 L 854 184 Q 854 146 853 126 L 853 109 L 851 56 L 848 10 Q 848 -12 842 -14 C 834 -43 797 -14 811 -40 Z" fill="lightgray"></path>
				<path d="M 653 203 L 679 201 Q 686 198 772 212 L 792 216 L 827 220 Q 847 225 854 225 C 884 228 883 237 854 246 L 827 254 Q 819 258 811 258 L 653 228 C 624 222 623 205 653 203 Z" fill="lightgray"></path>
				<path d="M 649 82 L 704 84 Q 724 84 767 94 L 809 101 Q 816 103 853 109 C 883 114 882 117 853 126 L 819 137 Q 808 141 796 141 L 775 137 Q 774 137 768 136 L 758 133 L 743 129 L 732 126 Q 721 124 711 122 L 650 112 C 620 107 619 81 649 82 Z" fill="lightgray"></path>
				<path d="M 781 -43 Q 792 -42 811 -40 C 841 -37 872 -19 842 -14 Q 841 -15 826 -10 L 804 -4 Q 787 -2 771 -6 Q 755 -10 725 -10 L 643 -14 C 613 -15 611 -50 641 -50 L 678 -50 L 781 -43 Z" fill="lightgray"></path>
</g>
		<text x="40" y="140" font-size="128" fill="#999999">9</text></g>
		<g id="id1:id4:id4" transform="matrix(1.0,0,0,1.0,4096,0.0)">			<g stroke="lightgray" stroke-width="4" transform="scale(4, 4)"> <rect x="0" y="0" width="256" height="256" fill="white" stroke-width="4"/></g>
			<g transform="scale(0.92, -0.92) translate(60, -920)">					<path d="M 407 622 L 417 632 L 431 652 L 444 666 Q 445 667 453 673 Q 458 682 449 694 Q 439 704 433 708 L 409 722 Q 381 734 375 727.5 Q 369 721 369.5 710 Q 370 699 365 678 Q 352 639 337 615.5 Q 322 592 292 547 L 264 512 L 234 481 L 215 464 Q 209 456 209 452 Q 209 441 225 450 L 249 462 Q 278 474 328 524 Q 345 541 345 544 L 358 558 Q 370 574 390 599 L 407 622 Z" fill="black"></path>
				<path d="M 460 594 L 517 600 L 542 604 Q 561 605 569 612 Q 578 617 577 621 Q 575 625 567 631 Q 559 637 556 638 L 537 643 Q 525 646 519 646 L 495 640 L 479 637 L 407 622 C 378 616 361 606 390 599 L 421 592 Q 425 591 436 592 L 460 594 Z" fill="black"></path>
				<path d="M 345 544 Q 353 538 378 523 Q 402 507 429 482 Q 455 456 467 456 Q 481 453 494 463 Q 502 471 504 484 Q 505 496 496 508 Q 486 519 448 534 Q 409 548 358 558 C 329 564 321 561 345 544 Z" fill="black"></path>
				<path d="M 675 576 Q 689 593 708 618 L 716 636 L 731 655 L 743 673 Q 746 677 755 686 L 765 692 Q 770 701 769.5 704.5 Q 769 708 760 722 Q 750 734 726 749 Q 702 764 691 761 L 683 757 Q 681 751 681 740 Q 684 719 671 686 L 655 650 Q 648 634 635 609 L 609 568 L 587 538 L 547 492 Q 538 479 539 478 Q 543 470 560 478 L 581 489 Q 620 511 663 562 L 675 576 Z" fill="black"></path>
				<path d="M 708 618 L 723 613 Q 736 608 749 608 Q 762 608 796 611 L 869 618 L 911 626 Q 929 629 936 636 Q 944 641 943 645 Q 943 650 918 661 Q 892 671 873 667 L 838 658 L 716 636 C 686 631 680 627 708 618 Z" fill="black"></path>
				<path d="M 663 562 Q 705 538 732 517 Q 778 486 798 463 Q 814 450 829 450 Q 844 450 853 460 Q 862 469 857 488 Q 851 503 833 518 Q 815 533 769 553 Q 723 572 675 576 C 645 579 637 577 663 562 Z" fill="black"></path>
				<path d="M 412 292 L 439 296 Q 465 298 483 302 L 521 309 Q 538 312 545.5 319.5 Q 553 327 538 336 L 519 344 Q 483 352 481 350 L 456 344 L 415 335 L 365 326 L 331 321 L 297 315 Q 288 315 262 309.5 Q 236 304 199 304 L 177 302 Q 159 302 168 288 Q 185 271 234 269.5 Q 283 268 295 274 L 327 279 Q 332 279 336 280 L 359 286 L 412 292 Z" fill="black"></path>
				<path d="M 360 62 Q 359 51 356.5 18.5 Q 354 -14 343 -52 Q 332 -90 362 -140 Q 373 -155 377 -154 Q 381 -153 389 -143 Q 404 -119 408 -82 L 406 -20 L 410 198 L 410 217 L 412 292 L 415 335 L 415 350 Q 416 365 423 380 Q 429 398 428 406 Q 427 414 395 430 L 373 439 Q 365 442 356.5 440 Q 348 438 346 434 Q 345 430 348 422 L 353 404 Q 357 395 360 381 L 364 356 Q 364 335 365 326 L 363 188 L 362 79 L 360 62 Z" fill="black"></path>
				<path d="M 359 286 L 337 239 Q 335 234 296 175 Q 256 116 222 82 Q 193 51 159 24 L 137 5 Q 126 -2 128 -9 Q 131 -14 143 -8 L 172 4 Q 266 54 323 133 Q 330 146 333 148 Q 335 150 341 158 Q 347 165 347 166 L 363 188 C 444 300 372 313 359 286 Z" fill="black"></path>
				<path d="M 410 198 L 441 156 Q 466 124 473 117 Q 480 105 491 100 Q 497 96 509 98 Q 517 100 523 115 Q 528 130 528 143 Q 527 156 523 165 Q 519 174 501 185 Q 482 195 467 200 Q 451 204 448 205 L 428 211 L 410 217 C 391 223 392 222 410 198 Z" fill="red"></path>
				<path d="M 649 365 L 622 374 L 603 378 Q 584 380 582 373 Q 579 366 591 341 Q 603 316 603 251 L 600 124 Q 599 117 599 99 Q 597 90 593 62 Q 589 34 581 10 Q 573 -15 573 -20 Q 572 -25 577 -41 Q 581 -57 584 -63 Q 586 -68 595 -88 Q 604 -107 611 -105 Q 618 -105 626 -93 Q 633 -80 634 -76 L 641 -50 L 643 -14 L 647 18 L 647 41 Q 647 46 649 82 L 650 112 L 651 134 L 653 203 L 653 228 L 653 267 L 655 299 L 655 334 C 655 363 655 363 649 365 Z" fill="lightgray"></path>
				<path d="M 811 -40 L 823 -62 L 842 -112 Q 850 -130 860 -134 Q 870 -137 889 -116 Q 908 -94 914 -71 Q 922 -49 923 -39 Q 923 -28 921 3 Q 911 67 911 164 L 916 290 Q 918 311 919 323 Q 920 334 924 338 L 932 348 Q 934 356 934 359 Q 934 362 924 369 Q 908 383 903 385 L 871 399 Q 850 409 847 409 Q 844 409 827 402 L 807 394 Q 793 390 759 386 L 715 376 Q 681 369 649 365 C 619 361 626 327 655 334 L 685 341 Q 728 350 773 354 Q 818 358 824 358 Q 848 358 852 338 Q 854 318 854 301 L 854 246 L 854 225 L 854 184 Q 854 146 853 126 L 853 109 L 851 56 L 848 10 Q 848 -12 842 -14 C 834 -43 797 -14 811 -40 Z" fill="lightgray"></path>
				<path d="M 653 203 L 679 201 Q 686 198 772 212 L 792 216 L 827 220 Q 847 225 854 225 C 884 228 883 237 854 246 L 827 254 Q 819 258 811 258 L 653 228 C 624 222 623 205 653 203 Z" fill="lightgray"></path>
				<path d="M 649 82 L 704 84 Q 724 84 767 94 L 809 101 Q 816 103 853 109 C 883 114 882 117 853 126 L 819 137 Q 808 141 796 141 L 775 137 Q 774 137 768 136 L 758 133 L 743 129 L 732 126 Q 721 124 711 122 L 650 112 C 620 107 619 81 649 82 Z" fill="lightgray"></path>
				<path d="M 781 -43 Q 792 -42 811 -40 C 841 -37 872 -19 842 -14 Q 841 -15 826 -10 L 804 -4 Q 787 -2 771 -6 Q 755 -10 725 -10 L 643 -14 C 613 -15 611 -50 641 -50 L 678 -50 L 781 -43 Z" fill="lightgray"></path>
</g>
		<text x="40" y="140" font-size="128" fill="#999999">10</text></g>
</g>
	<g id="id2:id2" transform="translate(0.0,2048)">
		<g id="id2:id0:id0" transform="matrix(1.0,0,0,1.0,0,0.0)">			<g stroke="lightgray" stroke-width="4" transform="scale(4, 4)"> <rect x="0" y="0" width="256" height="256" fill="white" stroke-width="4"/></g>
			<g transform="scale(0.92, -0.92) translate(60, -920)">					<path d="M 407 622 L 417 632 L 431 652 L 444 666 Q 445 667 453 673 Q 458 682 449 694 Q 439 704 433 708 L 409 722 Q 381 734 375 727.5 Q 369 721 369.5 710 Q 370 699 365 678 Q 352 639 337 615.5 Q 322 592 292 547 L 264 512 L 234 481 L 215 464 Q 209 456 209 452 Q 209 441 225 450 L 249 462 Q 278 474 328 524 Q 345 541 345 544 L 358 558 Q 370 574 390 599 L 407 622 Z" fill="black"></path>
				<path d="M 460 594 L 517 600 L 542 604 Q 561 605 569 612 Q 578 617 577 621 Q 575 625 567 631 Q 559 637 556 638 L 537 643 Q 525 646 519 646 L 495 640 L 479 637 L 407 622 C 378 616 361 606 390 599 L 421 592 Q 425 591 436 592 L 460 594 Z" fill="black"></path>
				<path d="M 345 544 Q 353 538 378 523 Q 402 507 429 482 Q 455 456 467 456 Q 481 453 494 463 Q 502 471 504 484 Q 505 496 496 508 Q 486 519 448 534 Q 409 548 358 558 C 329 564 321 561 345 544 Z" fill="black"></path>
				<path d="M 675 576 Q 689 593 708 618 L 716 636 L 731 655 L 743 673 Q 746 677 755 686 L 765 692 Q 770 701 769.5 704.5 Q 769 708 760 722 Q 750 734 726 749 Q 702 764 691 761 L 683 757 Q 681 751 681 740 Q 684 719 671 686 L 655 650 Q 648 634 635 609 L 609 568 L 587 538 L 547 492 Q 538 479 539 478 Q 543 470 560 478 L 581 489 Q 620 511 663 562 L 675 576 Z" fill="black"></path>
				<path d="M 708 618 L 723 613 Q 736 608 749 608 Q 762 608 796 611 L 869 618 L 911 626 Q 929 629 936 636 Q 944 641 943 645 Q 943 650 918 661 Q 892 671 873 667 L 838 658 L 716 636 C 686 631 680 627 708 618 Z" fill="black"></path>
				<path d="M 663 562 Q 705 538 732 517 Q 778 486 798 463 Q 814 450 829 450 Q 844 450 853 460 Q 862 469 857 488 Q 851 503 833 518 Q 815 533 769 553 Q 723 572 675 576 C 645 579 637 577 663 562 Z" fill="black"></path>
				<path d="M 412 292 L 439 296 Q 465 298 483 302 L 521 309 Q 538 312 545.5 319.5 Q 553 327 538 336 L 519 344 Q 483 352 481 350 L 456 344 L 415 335 L 365 326 L 331 321 L 297 315 Q 288 315 262 309.5 Q 236 304 199 304 L 177 302 Q 159 302 168 288 Q 185 271 234 269.5 Q 283 268 295 274 L 327 279 Q 332 279 336 280 L 359 286 L 412 292 Z" fill="black"></path>
				<path d="M 360 62 Q 359 51 356.5 18.5 Q 354 -14 343 -52 Q 332 -90 362 -140 Q 373 -155 377 -154 Q 381 -153 389 -143 Q 404 -119 408 -82 L 406 -20 L 410 198 L 410 217 L 412 292 L 415 335 L 415 350 Q 416 365 423 380 Q 429 398 428 406 Q 427 414 395 430 L 373 439 Q 365 442 356.5 440 Q 348 438 346 434 Q 345 430 348 422 L 353 404 Q 357 395 360 381 L 364 356 Q 364 335 365 326 L 363 188 L 362 79 L 360 62 Z" fill="black"></path>
				<path d="M 359 286 L 337 239 Q 335 234 296 175 Q 256 116 222 82 Q 193 51 159 24 L 137 5 Q 126 -2 128 -9 Q 131 -14 143 -8 L 172 4 Q 266 54 323 133 Q 330 146 333 148 Q 335 150 341 158 Q 347 165 347 166 L 363 188 C 444 300 372 313 359 286 Z" fill="black"></path>
				<path d="M 410 198 L 441 156 Q 466 124 473 117 Q 480 105 491 100 Q 497 96 509 98 Q 517 100 523 115 Q 528 130 528 143 Q 527 156 523 165 Q 519 174 501 185 Q 482 195 467 200 Q 451 204 448 205 L 428 211 L 410 217 C 391 223 392 222 410 198 Z" fill="black"></path>
				<path d="M 649 365 L 622 374 L 603 378 Q 584 380 582 373 Q 579 366 591 341 Q 603 316 603 251 L 600 124 Q 599 117 599 99 Q 597 90 593 62 Q 589 34 581 10 Q 573 -15 573 -20 Q 572 -25 577 -41 Q 581 -57 584 -63 Q 586 -68 595 -88 Q 604 -107 611 -105 Q 618 -105 626 -93 Q 633 -80 634 -76 L 641 -50 L 643 -14 L 647 18 L 647 41 Q 647 46 649 82 L 650 112 L 651 134 L 653 203 L 653 228 L 653 267 L 655 299 L 655 334 C 655 363 655 363 649 365 Z" fill="red"></path>
				<path d="M 811 -40 L 823 -62 L 842 -112 Q 850 -130 860 -134 Q 870 -137 889 -116 Q 908 -94 914 -71 Q 922 -49 923 -39 Q 923 -28 921 3 Q 911 67 911 164 L 916 290 Q 918 311 919 323 Q 920 334 924 338 L 932 348 Q 934 356 934 359 Q 934 362 924 369 Q 908 383 903 385 L 871 399 Q 850 409 847 409 Q 844 409 827 402 L 807 394 Q 793 390 759 386 L 715 376 Q 681 369 649 365 C 619 361 626 327 655 334 L 685 341 Q 728 350 773 354 Q 818 358 824 358 Q 848 358 852 338 Q 854 318 854 301 L 854 246 L 854 225 L 854 184 Q 854 146 853 126 L 853 109 L 851 56 L 848 10 Q 848 -12 842 -14 C 834 -43 797 -14 811 -40 Z" fill="lightgray"></path>
				<path d="M 653 203 L 679 201 Q 686 198 772 212 L 792 216 L 827 220 Q 847 225 854 225 C 884 228 883 237 854 246 L 827 254 Q 819 258 811 258 L 653 228 C 624 222 623 205 653 203 Z" fill="lightgray"></path>
				<path d="M 649 82 L 704 84 Q 724 84 767 94 L 809 101 Q 816 103 853 109 C 883 114 882 117 853 126 L 819 137 Q 808 141 796 141 L 775 137 Q 774 137 768 136 L 758 133 L 743 129 L 732 126 Q 721 124 711 122 L 650 112 C 620 107 619 81 649 82 Z" fill="lightgray"></path>
				<path d="M 781 -43 Q 792 -42 811 -40 C 841 -37 872 -19 842 -14 Q 841 -15 826 -10 L 804 -4 Q 787 -2 771 -6 Q 755 -10 725 -10 L 643 -14 C 613 -15 611 -50 641 -50 L 678 -50 L 781 -43 Z" fill="lightgray"></path>
</g>
		<text x="40" y="140" font-size="128" fill="#999999">11</text></g>
		<g id="id2:id1:id1" transform="matrix(1.0,0,0,1.0,1024,0.0)">			<g stroke="lightgray" stroke-width="4" transform="scale(4, 4)"> <rect x="0" y="0" width="256" height="256" fill="white" stroke-width="4"/></g>
			<g transform="scale(0.92, -0.92) translate(60, -920)">					<path d="M 407 622 L 417 632 L 431 652 L 444 666 Q 445 667 453 673 Q 458 682 449 694 Q 439 704 433 708 L 409 722 Q 381 734 375 727.5 Q 369 721 369.5 710 Q 370 699 365 678 Q 352 639 337 615.5 Q 322 592 292 547 L 264 512 L 234 481 L 215 464 Q 209 456 209 452 Q 209 441 225 450 L 249 462 Q 278 474 328 524 Q 345 541 345 544 L 358 558 Q 370 574 390 599 L 407 622 Z" fill="black"></path>
				<path d="M 460 594 L 517 600 L 542 604 Q 561 605 569 612 Q 578 617 577 621 Q 575 625 567 631 Q 559 637 556 638 L 537 643 Q 525 646 519 646 L 495 640 L 479 637 L 407 622 C 378 616 361 606 390 599 L 421 592 Q 425 591 436 592 L 460 594 Z" fill="black"></path>
				<path d="M 345 544 Q 353 538 378 523 Q 402 507 429 482 Q 455 456 467 456 Q 481 453 494 463 Q 502 471 504 484 Q 505 496 496 508 Q 486 519 448 534 Q 409 548 358 558 C 329 564 321 561 345 544 Z" fill="black"></path>
				<path d="M 675 576 Q 689 593 708 618 L 716 636 L 731 655 L 743 673 Q 746 677 755 686 L 765 692 Q 770 701 769.5 704.5 Q 769 708 760 722 Q 750 734 726 749 Q 702 764 691 761 L 683 757 Q 681 751 681 740 Q 684 719 671 686 L 655 650 Q 648 634 635 609 L 609 568 L 587 538 L 547 492 Q 538 479 539 478 Q 543 470 560 478 L 581 489 Q 620 511 663 562 L 675 576 Z" fill="black"></path>
				<path d="M 708 618 L 723 613 Q 736 608 749 608 Q 762 608 796 611 L 869 618 L 911 626 Q 929 629 936 636 Q 944 641 943 645 Q 943 650 918 661 Q 892 671 873 667 L 838 658 L 716 636 C 686 631 680 627 708 618 Z" fill="black"></path>
				<path d="M 663 562 Q 705 538 732 517 Q 778 486 798 463 Q 814 450 829 450 Q 844 450 853 460 Q 862 469 857 488 Q 851 503 833 518 Q 815 533 769 553 Q 723 572 675 576 C 645 579 637 577 663 562 Z" fill="black"></path>
				<path d="M 412 292 L 439 296 Q 465 298 483 302 L 521 309 Q 538 312 545.5 319.5 Q 553 327 538 336 L 519 344 Q 483 352 481 350 L 456 344 L 415 335 L 365 326 L 331 321 L 297 315 Q 288 315 262 309.5 Q 236 304 199 304 L 177 302 Q 159 302 168 288 Q 185 271 234 269.5 Q 283 268 295 274 L 327 279 Q 332 279 336 280 L 359 286 L 412 292 Z" fill="black"></path>
				<path d="M 360 62 Q 359 51 356.5 18.5 Q 354 -14 343 -52 Q 332 -90 362 -140 Q 373 -155 377 -154 Q 381 -153 389 -143 Q 404 -119 408 -82 L 406 -20 L 410 198 L 410 217 L 412 292 L 415 335 L 415 350 Q 416 365 423 380 Q 429 398 428 406 Q 427 414 395 430 L 373 439 Q 365 442 356.5 440 Q 348 438 346 434 Q 345 430 348 422 L 353 404 Q 357 395 360 381 L 364 356 Q 364 335 365 326 L 363 188 L 362 79 L 360 62 Z" fill="black"></path>
				<path d="M 359 286 L 337 239 Q 335 234 296 175 Q 256 116 222 82 Q 193 51 159 24 L 137 5 Q 126 -2 128 -9 Q 131 -14 143 -8 L 172 4 Q 266 54 323 133 Q 330 146 333 148 Q 335 150 341 158 Q 347 165 347 166 L 363 188 C 444 300 372 313 359 286 Z" fill="black"></path>
				<path d="M 410 198 L 441 156 Q 466 124 473 117 Q 480 105 491 100 Q 497 96 509 98 Q 517 100 523 115 Q 528 130 528 143 Q 527 156 523 165 Q 519 174 501 185 Q 482 195 467 200 Q 451 204 448 205 L 428 211 L 410 217 C 391 223 392 222 410 198 Z" fill="black"></path>
				<path d="M 649 365 L 622 374 L 603 378 Q 584 380 582 373 Q 579 366 591 341 Q 603 316 603 251 L 600 124 Q 599 117 599 99 Q 597 90 593 62 Q 589 34 581 10 Q 573 -15 573 -20 Q 572 -25 577 -41 Q 581 -57 584 -63 Q 586 -68 595 -88 Q 604 -107 611 -105 Q 618 -105 626 -93 Q 633 -80 634 -76 L 641 -50 L 643 -14 L 647 18 L 647 41 Q 647 46 649 82 L 650 112 L 651 134 L 653 203 L 653 228 L 653 267 L 655 299 L 655 334 C 655 363 655 363 649 365 Z" fill="black"></path>
				<path d="M 811 -40 L 823 -62 L 842 -112 Q 850 -130 860 -134 Q 870 -137 889 -116 Q 908 -94 914 -71 Q 922 -49 923 -39 Q 923 -28 921 3 Q 911 67 911 164 L 916 290 Q 918 311 919 323 Q 920 334 924 338 L 932 348 Q 934 356 934 359 Q 934 362 924 369 Q 908 383 903 385 L 871 399 Q 850 409 847 409 Q 844 409 827 402 L 807 394 Q 793 390 759 386 L 715 376 Q 681 369 649 365 C 619 361 626 327 655 334 L 685 341 Q 728 350 773 354 Q 818 358 824 358 Q 848 358 852 338 Q 854 318 854 301 L 854 246 L 854 225 L 854 184 Q 854 146 853 126 L 853 109 L 851 56 L 848 10 Q 848 -12 842 -14 C 834 -43 797 -14 811 -40 Z" fill="red"></path>
				<path d="M 653 203 L 679 201 Q 686 198 772 212 L 792 216 L 827 220 Q 847 225 854 225 C 884 228 883 237 854 246 L 827 254 Q 819 258 811 258 L 653 228 C 624 222 623 205 653 203 Z" fill="lightgray"></path>
				<path d="M 649 82 L 704 84 Q 724 84 767 94 L 809 101 Q 816 103 853 109 C 883 114 882 117 853 126 L 819 137 Q 808 141 796 141 L 775 137 Q 774 137 768 136 L 758 133 L 743 129 L 732 126 Q 721 124 711 122 L 650 112 C 620 107 619 81 649 82 Z" fill="lightgray"></path>
				<path d="M 781 -43 Q 792 -42 811 -40 C 841 -37 872 -19 842 -14 Q 841 -15 826 -10 L 804 -4 Q 787 -2 771 -6 Q 755 -10 725 -10 L 643 -14 C 613 -15 611 -50 641 -50 L 678 -50 L 781 -43 Z" fill="lightgray"></path>
</g>
		<text x="40" y="140" font-size="128" fill="#999999">12</text></g>
		<g id="id2:id2:id2" transform="matrix(1.0,0,0,1.0,2048,0.0)">			<g stroke="lightgray" stroke-width="4" transform="scale(4, 4)"> <rect x="0" y="0" width="256" height="256" fill="white" stroke-width="4"/></g>
			<g transform="scale(0.92, -0.92) translate(60, -920)">					<path d="M 407 622 L 417 632 L 431 652 L 444 666 Q 445 667 453 673 Q 458 682 449 694 Q 439 704 433 708 L 409 722 Q 381 734 375 727.5 Q 369 721 369.5 710 Q 370 699 365 678 Q 352 639 337 615.5 Q 322 592 292 547 L 264 512 L 234 481 L 215 464 Q 209 456 209 452 Q 209 441 225 450 L 249 462 Q 278 474 328 524 Q 345 541 345 544 L 358 558 Q 370 574 390 599 L 407 622 Z" fill="black"></path>
				<path d="M 460 594 L 517 600 L 542 604 Q 561 605 569 612 Q 578 617 577 621 Q 575 625 567 631 Q 559 637 556 638 L 537 643 Q 525 646 519 646 L 495 640 L 479 637 L 407 622 C 378 616 361 606 390 599 L 421 592 Q 425 591 436 592 L 460 594 Z" fill="black"></path>
				<path d="M 345 544 Q 353 538 378 523 Q 402 507 429 482 Q 455 456 467 456 Q 481 453 494 463 Q 502 471 504 484 Q 505 496 496 508 Q 486 519 448 534 Q 409 548 358 558 C 329 564 321 561 345 544 Z" fill="black"></path>
				<path d="M 675 576 Q 689 593 708 618 L 716 636 L 731 655 L 743 673 Q 746 677 755 686 L 765 692 Q 770 701 769.5 704.5 Q 769 708 760 722 Q 750 734 726 749 Q 702 764 691 761 L 683 757 Q 681 751 681 740 Q 684 719 671 686 L 655 650 Q 648 634 635 609 L 609 568 L 587 538 L 547 492 Q 538 479 539 478 Q 543 470 560 478 L 581 489 Q 620 511 663 562 L 675 576 Z" fill="black"></path>
				<path d="M 708 618 L 723 613 Q 736 608 749 608 Q 762 608 796 611 L 869 618 L 911 626 Q 929 629 936 636 Q 944 641 943 645 Q 943 650 918 661 Q 892 671 873 667 L 838 658 L 716 636 C 686 631 680 627 708 618 Z" fill="black"></path>
				<path d="M 663 562 Q 705 538 732 517 Q 778 486 798 463 Q 814 450 829 450 Q 844 450 853 460 Q 862 469 857 488 Q 851 503 833 518 Q 815 533 769 553 Q 723 572 675 576 C 645 579 637 577 663 562 Z" fill="black"></path>
				<path d="M 412 292 L 439 296 Q 465 298 483 302 L 521 309 Q 538 312 545.5 319.5 Q 553 327 538 336 L 519 344 Q 483 352 481 350 L 456 344 L 415 335 L 365 326 L 331 321 L 297 315 Q 288 315 262 309.5 Q 236 304 199 304 L 177 302 Q 159 302 168 288 Q 185 271 234 269.5 Q 283 268 295 274 L 327 279 Q 332 279 336 280 L 359 286 L 412 292 Z" fill="black"></path>
				<path d="M 360 62 Q 359 51 356.5 18.5 Q 354 -14 343 -52 Q 332 -90 362 -140 Q 373 -155 377 -154 Q 381 -153 389 -143 Q 404 -119 408 -82 L 406 -20 L 410 198 L 410 217 L 412 292 L 415 335 L 415 350 Q 416 365 423 380 Q 429 398 428 406 Q 427 414 395 430 L 373 439 Q 365 442 356.5 440 Q 348 438 346 434 Q 345 430 348 422 L 353 404 Q 357 395 360 381 L 364 356 Q 364 335 365 326 L 363 188 L 362 79 L 360 62 Z" fill="black"></path>
				<path d="M 359 286 L 337 239 Q 335 234 296 175 Q 256 116 222 82 Q 193 51 159 24 L 137 5 Q 126 -2 128 -9 Q 131 -14 143 -8 L 172 4 Q 266 54 323 133 Q 330 146 333 148 Q 335 150 341 158 Q 347 165 347 166 L 363 188 C 444 300 372 313 359 286 Z" fill="black"></path>
				<path d="M 410 198 L 441 156 Q 466 124 473 117 Q 480 105 491 100 Q 497 96 509 98 Q 517 100 523 115 Q 528 130 528 143 Q 527 156 523 165 Q 519 174 501 185 Q 482 195 467 200 Q 451 204 448 205 L 428 211 L 410 217 C 391 223 392 222 410 198 Z" fill="black"></path>
				<path d="M 649 365 L 622 374 L 603 378 Q 584 380 582 373 Q 579 366 591 341 Q 603 316 603 251 L 600 124 Q 599 117 599 99 Q 597 90 593 62 Q 589 34 581 10 Q 573 -15 573 -20 Q 572 -25 577 -41 Q 581 -57 584 -63 Q 586 -68 595 -88 Q 604 -107 611 -105 Q 618 -105 626 -93 Q 633 -80 634 -76 L 641 -50 L 643 -14 L 647 18 L 647 41 Q 647 46 649 82 L 650 112 L 651 134 L 653 203 L 653 228 L 653 267 L 655 299 L 655 334 C 655 363 655 363 649 365 Z" fill="black"></path>
				<path d="M 811 -40 L 823 -62 L 842 -112 Q 850 -130 860 -134 Q 870 -137 889 -116 Q 908 -94 914 -71 Q 922 -49 923 -39 Q 923 -28 921 3 Q 911 67 911 164 L 916 290 Q 918 311 919 323 Q 920 334 924 338 L 932 348 Q 934 356 934 359 Q 934 362 924 369 Q 908 383 903 385 L 871 399 Q 850 409 847 409 Q 844 409 827 402 L 807 394 Q 793 390 759 386 L 715 376 Q 681 369 649 365 C 619 361 626 327 655 334 L 685 341 Q 728 350 773 354 Q 818 358 824 358 Q 848 358 852 338 Q 854 318 854 301 L 854 246 L 854 225 L 854 184 Q 854 146 853 126 L 853 109 L 851 56 L 848 10 Q 848 -12 842 -14 C 834 -43 797 -14 811 -40 Z" fill="black"></path>
				<path d="M 653 203 L 679 201 Q 686 198 772 212 L 792 216 L 827 220 Q 847 225 854 225 C 884 228 883 237 854 246 L 827 254 Q 819 258 811 258 L 653 228 C 624 222 623 205 653 203 Z" fill="red"></path>
				<path d="M 649 82 L 704 84 Q 724 84 767 94 L 809 101 Q 816 103 853 109 C 883 114 882 117 853 126 L 819 137 Q 808 141 796 141 L 775 137 Q 774 137 768 136 L 758 133 L 743 129 L 732 126 Q 721 124 711 122 L 650 112 C 620 107 619 81 649 82 Z" fill="lightgray"></path>
				<path d="M 781 -43 Q 792 -42 811 -40 C 841 -37 872 -19 842 -14 Q 841 -15 826 -10 L 804 -4 Q 787 -2 771 -6 Q 755 -10 725 -10 L 643 -14 C 613 -15 611 -50 641 -50 L 678 -50 L 781 -43 Z" fill="lightgray"></path>
</g>
		<text x="40" y="140" font-size="128" fill="#999999">13</text></g>
		<g id="id2:id3:id3" transform="matrix(1.0,0,0,1.0,3072,0.0)">			<g stroke="lightgray" stroke-width="4" transform="scale(4, 4)"> <rect x="0" y="0" width="256" height="256" fill="white" stroke-width="4"/></g>
			<g transform="scale(0.92, -0.92) translate(60, -920)">					<path d="M 407 622 L 417 632 L 431 652 L 444 666 Q 445 667 453 673 Q 458 682 449 694 Q 439 704 433 708 L 409 722 Q 381 734 375 727.5 Q 369 721 369.5 710 Q 370 699 365 678 Q 352 639 337 615.5 Q 322 592 292 547 L 264 512 L 234 481 L 215 464 Q 209 456 209 452 Q 209 441 225 450 L 249 462 Q 278 474 328 524 Q 345 541 345 544 L 358 558 Q 370 574 390 599 L 407 622 Z" fill="black"></path>
				<path d="M 460 594 L 517 600 L 542 604 Q 561 605 569 612 Q 578 617 577 621 Q 575 625 567 631 Q 559 637 556 638 L 537 643 Q 525 646 519 646 L 495 640 L 479 637 L 407 622 C 378 616 361 606 390 599 L 421 592 Q 425 591 436 592 L 460 594 Z" fill="black"></path>
				<path d="M 345 544 Q 353 538 378 523 Q 402 507 429 482 Q 455 456 467 456 Q 481 453 494 463 Q 502 471 504 484 Q 505 496 496 508 Q 486 519 448 534 Q 409 548 358 558 C 329 564 321 561 345 544 Z" fill="black"></path>
				<path d="M 675 576 Q 689 593 708 618 L 716 636 L 731 655 L 743 673 Q 746 677 755 686 L 765 692 Q 770 701 769.5 704.5 Q 769 708 760 722 Q 750 734 726 749 Q 702 764 691 761 L 683 757 Q 681 751 681 740 Q 684 719 671 686 L 655 650 Q 648 634 635 609 L 609 568 L 587 538 L 547 492 Q 538 479 539 478 Q 543 470 560 478 L 581 489 Q 620 511 663 562 L 675 576 Z" fill="black"></path>
				<path d="M 708 618 L 723 613 Q 736 608 749 608 Q 762 608 796 611 L 869 618 L 911 626 Q 929 629 936 636 Q 944 641 943 645 Q 943 650 918 661 Q 892 671 873 667 L 838 658 L 716 636 C 686 631 680 627 708 618 Z" fill="black"></path>
				<path d="M 663 562 Q 705 538 732 517 Q 778 486 798 463 Q 814 450 829 450 Q 844 450 853 460 Q 862 469 857 488 Q 851 503 833 518 Q 815 533 769 553 Q 723 572 675 576 C 645 579 637 577 663 562 Z" fill="black"></path>
				<path d="M 412 292 L 439 296 Q 465 298 483 302 L 521 309 Q 538 312 545.5 319.5 Q 553 327 538 336 L 519 344 Q 483 352 481 350 L 456 344 L 415 335 L 365 326 L 331 321 L 297 315 Q 288 315 262 309.5 Q 236 304 199 304 L 177 302 Q 159 302 168 288 Q 185 271 234 269.5 Q 283 268 295 274 L 327 279 Q 332 279 336 280 L 359 286 L 412 292 Z" fill="black"></path>
				<path d="M 360 62 Q 359 51 356.5 18.5 Q 354 -14 343 -52 Q 332 -90 362 -140 Q 373 -155 377 -154 Q 381 -153 389 -143 Q 404 -119 408 -82 L 406 -20 L 410 198 L 410 217 L 412 292 L 415 335 L 415 350 Q 416 365 423 380 Q 429 398 428 406 Q 427 414 395 430 L 373 439 Q 365 442 356.5 440 Q 348 438 346 434 Q 345 430 348 422 L 353 404 Q 357 395 360 381 L 364 356 Q 364 335 365 326 L 363 188 L 362 79 L 360 62 Z" fill="black"></path>
				<path d="M 359 286 L 337 239 Q 335 234 296 175 Q 256 116 222 82 Q 193 51 159 24 L 137 5 Q 126 -2 128 -9 Q 131 -14 143 -8 L 172 4 Q 266 54 323 133 Q 330 146 333 148 Q 335 150 341 158 Q 347 165 347 166 L 363 188 C 444 300 372 313 359 286 Z" fill="black"></path>
				<path d="M 410 198 L 441 156 Q 466 124 473 117 Q 480 105 491 100 Q 497 96 509 98 Q 517 100 523 115 Q 528 130 528 143 Q 527 156 523 165 Q 519 174 501 185 Q 482 195 467 200 Q 451 204 448 205 L 428 211 L 410 217 C 391 223 392 222 410 198 Z" fill="black"></path>
				<path d="M 649 365 L 622 374 L 603 378 Q 584 380 582 373 Q 579 366 591 341 Q 603 316 603 251 L 600 124 Q 599 117 599 99 Q 597 90 593 62 Q 589 34 581 10 Q 573 -15 573 -20 Q 572 -25 577 -41 Q 581 -57 584 -63 Q 586 -68 595 -88 Q 604 -107 611 -105 Q 618 -105 626 -93 Q 633 -80 634 -76 L 641 -50 L 643 -14 L 647 18 L 647 41 Q 647 46 649 82 L 650 112 L 651 134 L 653 203 L 653 228 L 653 267 L 655 299 L 655 334 C 655 363 655 363 649 365 Z" fill="black"></path>
				<path d="M 811 -40 L 823 -62 L 842 -112 Q 850 -130 860 -134 Q 870 -137 889 -116 Q 908 -94 914 -71 Q 922 -49 923 -39 Q 923 -28 921 3 Q 911 67 911 164 L 916 290 Q 918 311 919 323 Q 920 334 924 338 L 932 348 Q 934 356 934 359 Q 934 362 924 369 Q 908 383 903 385 L 871 399 Q 850 409 847 409 Q 844 409 827 402 L 807 394 Q 793 390 759 386 L 715 376 Q 681 369 649 365 C 619 361 626 327 655 334 L 685 341 Q 728 350 773 354 Q 818 358 824 358 Q 848 358 852 338 Q 854 318 854 301 L 854 246 L 854 225 L 854 184 Q 854 146 853 126 L 853 109 L 851 56 L 848 10 Q 848 -12 842 -14 C 834 -43 797 -14 811 -40 Z" fill="black"></path>
				<path d="M 653 203 L 679 201 Q 686 198 772 212 L 792 216 L 827 220 Q 847 225 854 225 C 884 228 883 237 854 246 L 827 254 Q 819 258 811 258 L 653 228 C 624 222 623 205 653 203 Z" fill="black"></path>
				<path d="M 649 82 L 704 84 Q 724 84 767 94 L 809 101 Q 816 103 853 109 C 883 114 882 117 853 126 L 819 137 Q 808 141 796 141 L 775 137 Q 774 137 768 136 L 758 133 L 743 129 L 732 126 Q 721 124 711 122 L 650 112 C 620 107 619 81 649 82 Z" fill="red"></path>
				<path d="M 781 -43 Q 792 -42 811 -40 C 841 -37 872 -19 842 -14 Q 841 -15 826 -10 L 804 -4 Q 787 -2 771 -6 Q 755 -10 725 -10 L 643 -14 C 613 -15 611 -50 641 -50 L 678 -50 L 781 -43 Z" fill="lightgray"></path>
</g>
		<text x="40" y="140" font-size="128" fill="#999999">14</text></g>
		<g id="id2:id4:id4" transform="matrix(1.0,0,0,1.0,4096,0.0)">			<g stroke="lightgray" stroke-width="4" transform="scale(4, 4)"> <rect x="0" y="0" width="256" height="256" fill="white" stroke-width="4"/></g>
			<g transform="scale(0.92, -0.92) translate(60, -920)">					<path d="M 407 622 L 417 632 L 431 652 L 444 666 Q 445 667 453 673 Q 458 682 449 694 Q 439 704 433 708 L 409 722 Q 381 734 375 727.5 Q 369 721 369.5 710 Q 370 699 365 678 Q 352 639 337 615.5 Q 322 592 292 547 L 264 512 L 234 481 L 215 464 Q 209 456 209 452 Q 209 441 225 450 L 249 462 Q 278 474 328 524 Q 345 541 345 544 L 358 558 Q 370 574 390 599 L 407 622 Z" fill="black"></path>
				<path d="M 460 594 L 517 600 L 542 604 Q 561 605 569 612 Q 578 617 577 621 Q 575 625 567 631 Q 559 637 556 638 L 537 643 Q 525 646 519 646 L 495 640 L 479 637 L 407 622 C 378 616 361 606 390 599 L 421 592 Q 425 591 436 592 L 460 594 Z" fill="black"></path>
				<path d="M 345 544 Q 353 538 378 523 Q 402 507 429 482 Q 455 456 467 456 Q 481 453 494 463 Q 502 471 504 484 Q 505 496 496 508 Q 486 519 448 534 Q 409 548 358 558 C 329 564 321 561 345 544 Z" fill="black"></path>
				<path d="M 675 576 Q 689 593 708 618 L 716 636 L 731 655 L 743 673 Q 746 677 755 686 L 765 692 Q 770 701 769.5 704.5 Q 769 708 760 722 Q 750 734 726 749 Q 702 764 691 761 L 683 757 Q 681 751 681 740 Q 684 719 671 686 L 655 650 Q 648 634 635 609 L 609 568 L 587 538 L 547 492 Q 538 479 539 478 Q 543 470 560 478 L 581 489 Q 620 511 663 562 L 675 576 Z" fill="black"></path>
				<path d="M 708 618 L 723 613 Q 736 608 749 608 Q 762 608 796 611 L 869 618 L 911 626 Q 929 629 936 636 Q 944 641 943 645 Q 943 650 918 661 Q 892 671 873 667 L 838 658 L 716 636 C 686 631 680 627 708 618 Z" fill="black"></path>
				<path d="M 663 562 Q 705 538 732 517 Q 778 486 798 463 Q 814 450 829 450 Q 844 450 853 460 Q 862 469 857 488 Q 851 503 833 518 Q 815 533 769 553 Q 723 572 675 576 C 645 579 637 577 663 562 Z" fill="black"></path>
				<path d="M 412 292 L 439 296 Q 465 298 483 302 L 521 309 Q 538 312 545.5 319.5 Q 553 327 538 336 L 519 344 Q 483 352 481 350 L 456 344 L 415 335 L 365 326 L 331 321 L 297 315 Q 288 315 262 309.5 Q 236 304 199 304 L 177 302 Q 159 302 168 288 Q 185 271 234 269.5 Q 283 268 295 274 L 327 279 Q 332 279 336 280 L 359 286 L 412 292 Z" fill="black"></path>
				<path d="M 360 62 Q 359 51 356.5 18.5 Q 354 -14 343 -52 Q 332 -90 362 -140 Q 373 -155 377 -154 Q 381 -153 389 -143 Q 404 -119 408 -82 L 406 -20 L 410 198 L 410 217 L 412 292 L 415 335 L 415 350 Q 416 365 423 380 Q 429 398 428 406 Q 427 414 395 430 L 373 439 Q 365 442 356.5 440 Q 348 438 346 434 Q 345 430 348 422 L 353 404 Q 357 395 360 381 L 364 356 Q 364 335 365 326 L 363 188 L 362 79 L 360 62 Z" fill="black"></path>
				<path d="M 359 286 L 337 239 Q 335 234 296 175 Q 256 116 222 82 Q 193 51 159 24 L 137 5 Q 126 -2 128 -9 Q 131 -14 143 -8 L 172 4 Q 266 54 323 133 Q 330 146 333 148 Q 335 150 341 158 Q 347 165 347 166 L 363 188 C 444 300 372 313 359 286 Z" fill="black"></path>
				<path d="M 410 198 L 441 156 Q 466 124 473 117 Q 480 105 491 100 Q 497 96 509 98 Q 517 100 523 115 Q 528 130 528 143 Q 527 156 523 165 Q 519 174 501 185 Q 482 195 467 200 Q 451 204 448 205 L 428 211 L 410 217 C 391 223 392 222 410 198 Z" fill="black"></path>
				<path d="M 649 365 L 622 374 L 603 378 Q 584 380 582 373 Q 579 366 591 341 Q 603 316 603 251 L 600 124 Q 599 117 599 99 Q 597 90 593 62 Q 589 34 581 10 Q 573 -15 573 -20 Q 572 -25 577 -41 Q 581 -57 584 -63 Q 586 -68 595 -88 Q 604 -107 611 -105 Q 618 -105 626 -93 Q 633 -80 634 -76 L 641 -50 L 643 -14 L 647 18 L 647 41 Q 647 46 649 82 L 650 112 L 651 134 L 653 203 L 653 228 L 653 267 L 655 299 L 655 334 C 655 363 655 363 649 365 Z" fill="black"></path>
				<path d="M 811 -40 L 823 -62 L 842 -112 Q 850 -130 860 -134 Q 870 -137 889 -116 Q 908 -94 914 -71 Q 922 -49 923 -39 Q 923 -28 921 3 Q 911 67 911 164 L 916 290 Q 918 311 919 323 Q 920 334 924 338 L 932 348 Q 934 356 934 359 Q 934 362 924 369 Q 908 383 903 385 L 871 399 Q 850 409 847 409 Q 844 409 827 402 L 807 394 Q 793 390 759 386 L 715 376 Q 681 369 649 365 C 619 361 626 327 655 334 L 685 341 Q 728 350 773 354 Q 818 358 824 358 Q 848 358 852 338 Q 854 318 854 301 L 854 246 L 854 225 L 854 184 Q 854 146 853 126 L 853 109 L 851 56 L 848 10 Q 848 -12 842 -14 C 834 -43 797 -14 811 -40 Z" fill="black"></path>
				<path d="M 653 203 L 679 201 Q 686 198 772 212 L 792 216 L 827 220 Q 847 225 854 225 C 884 228 883 237 854 246 L 827 254 Q 819 258 811 258 L 653 228 C 624 222 623 205 653 203 Z" fill="black"></path>
				<path d="M 649 82 L 704 84 Q 724 84 767 94 L 809 101 Q 816 103 853 109 C 883 114 882 117 853 126 L 819 137 Q 808 141 796 141 L 775 137 Q 774 137 768 136 L 758 133 L 743 129 L 732 126 Q 721 124 711 122 L 650 112 C 620 107 619 81 649 82 Z" fill="black"></path>
				<path d="M 781 -43 Q 792 -42 811 -40 C 841 -37 872 -19 842 -14 Q 841 -15 826 -10 L 804 -4 Q 787 -2 771 -6 Q 755 -10 725 -10 L 643 -14 C 613 -15 611 -50 641 -50 L 678 -50 L 781 -43 Z" fill="red"></path>
</g>
		<text x="40" y="140" font-size="128" fill="#999999">15</text></g>
</g>
</svg>
