<?xml version="1.0" standalone="no"?>
<!DOCTYPE svg PUBLIC "-//W3C//DTD SVG 1.1//EN"
 "http://www.w3.org/Graphics/SVG/1.1/DTD/svg11.dtd">
<!-- generate by Japanese dictionary app com.asnsami.kanjidictionary -->

<svg xmlns="http://www.w3.org/2000/svg" xmlns:sodipodi="http://sodipodi.sourceforge.net/DTD/sodipodi-0.dtd" version="1.1" width="640" height="384" viewBox="0 0 5120 3072">
	<g id="id0:id0" transform="translate(0.0,0)">
		<g id="id0:id0:id0" transform="matrix(1.0,0,0,1.0,0,0.0)">			<g stroke="lightgray" stroke-width="4" transform="scale(4, 4)"> <rect x="0" y="0" width="256" height="256" fill="white" stroke-width="4"/></g>
			<g transform="scale(0.92, -0.92) translate(60, -920)">					<path d="M 338 693 L 316 700 Q 310 703 301 706 Q 292 708 282 710 Q 271 711 264 709 Q 257 706 257 698 Q 257 694 266 689 Q 289 668 301 603 L 318 479 Q 321 465 331 447 Q 342 431 350 433 Q 357 434 367 453 L 368 485 L 360 561 L 344 667 C 340 692 340 692 338 693 Z" fill="red"></path>
				<path d="M 682 480 L 690 459 Q 695 446 710 449 Q 724 452 731 459 Q 741 469 749 498 L 796 640 Q 801 657 812 677 Q 823 695 822 700 Q 822 703 823 706 Q 823 709 823 710 Q 822 711 820 713 Q 800 731 766 744 Q 731 757 713 757 Q 705 757 668 743 Q 631 729 521 711 Q 410 693 338 693 C 308 692 314 667 344 667 L 374 667 Q 387 665 420 670 L 494 681 L 553 689 L 678 708 Q 708 712 717 704 Q 726 696 722 669 L 710 595 L 691 514 C 684 485 681 482 682 480 Z" fill="lightgray"></path>
				<path d="M 430 566 Q 436 563 445.5 562.5 Q 455 562 462 563 Q 469 564 480.5 566 Q 492 568 497 569 L 548 574 Q 630 581 633 581 Q 650 582 651 589 Q 651 603 611 615 Q 604 617 595 617.5 Q 586 618 580.5 617.5 Q 575 617 563.5 615 Q 552 613 550 612 L 497 605 L 458 601 Q 436 599 414 598 Q 398 596 398 590 Q 399 583 430 566 Z" fill="lightgray"></path>
				<path d="M 497 569 L 497 495 C 497 465 545 471 546 501 L 548 574 L 550 612 L 553 689 C 554 719 493 711 494 681 L 497 610 L 497 605 L 497 569 Z" fill="lightgray"></path>
				<path d="M 504 464 L 565 470 L 635 478 Q 650 480 682 480 C 712 480 720 508 691 514 L 676 517 Q 667 518 635 513 Q 603 508 546 501 L 497 495 L 368 485 C 338 483 337 451 367 453 L 470 461 L 504 464 Z" fill="lightgray"></path>
				<path d="M 380 331 Q 380 333 383 336 Q 386 338 391 341 Q 395 344 400 347 Q 404 350 411 353 Q 417 356 420 358 Q 462 383 523 414 Q 524 415 528 417 Q 531 419 533 420 Q 534 420 537 422 Q 539 423 539 424 Q 539 425 540 427 Q 541 428 540 430 Q 539 432 538 435 Q 537 437 536 440 Q 529 452 504 464 C 478 478 474 480 470 461 L 468 450 Q 461 428 381 361 L 357 345 L 344 340 Q 330 334 320 329 Q 310 324 310 321 Q 303 306 328 279 Q 337 269 341 269 Q 345 269 361 276 Q 376 283 396 286 L 490 301 C 520 306 564 332 534 331 L 398 327 Q 388 326 384 327 Q 380 327 380 331 Z" fill="lightgray"></path>
				<path d="M 490 301 L 327 200 Q 307 188 291 185 Q 275 182 271 180 Q 262 172 266 160 Q 270 148 277 139 Q 284 130 289 127 Q 298 118 303 118 Q 308 117 319 124 Q 331 130 349 134 L 494 166 L 541 174 L 702 204 C 731 209 714 232 684 228 L 350 188 L 628 328 Q 641 335 653 337 Q 666 338 669 343 Q 672 348 667 364 Q 662 379 642 396 Q 624 413 615 413 Q 604 413 601 406 Q 592 378 573 362 L 534 331 L 490 301 Z" fill="lightgray"></path>
				<path d="M 702 204 L 726 176 Q 732 168 752.5 152.5 Q 773 137 781 141 Q 796 154 795 175 Q 794 242 716 271 Q 685 284 673 288 L 658 293 Q 650 295 647 289 Q 644 283 649 275 L 684 228 L 702 204 Z" fill="lightgray"></path>
				<path d="M 494 166 L 501 143 Q 507 124 506 61 Q 504 -2 505 -24 Q 505 -46 495 -51 Q 484 -56 463 -48 Q 440 -41 438 -40 L 420 -36 Q 413 -35 412 -40 Q 411 -45 416 -48 L 426 -56 L 441 -66 Q 458 -77 492 -123 Q 499 -133 505 -135 Q 510 -136 522 -130 Q 558 -110 561 -19 L 561 22 Q 561 90 567 119 Q 573 147 568 156 Q 563 165 541 174 C 514 187 485 195 494 166 Z" fill="lightgray"></path>
				<path d="M 207 -60 Q 202 -65 202 -72 Q 202 -78 210 -74 L 227 -70 Q 265 -56 315 -1 Q 334 19 336 22 Q 358 39 360 47 Q 362 56 347.5 69 Q 333 82 321 89 Q 307 97 300 95 Q 297 94 295 93 Q 293 92 292 89.5 Q 291 87 290.5 84.5 Q 290 82 289.5 76 Q 289 70 288 65 Q 284 43 261 7 Q 238 -29 217 -48 L 207 -60 Z" fill="lightgray"></path>
				<path d="M 676 89 L 696 66 Q 720 38 749.5 -2.5 Q 779 -43 795.5 -57 Q 812 -71 827 -69 Q 842 -69 846 -36.5 Q 850 -4 841 8 Q 836 24 818 39 Q 773 82 691 106 L 673 113 Q 667 115 663 111.5 Q 659 108 665 101 L 676 89 Z" fill="lightgray"></path>
</g>
		<text x="40" y="140" font-size="128" fill="#999999">1</text></g>
		<g id="id0:id1:id1" transform="matrix(1.0,0,0,1.0,1024,0.0)">			<g stroke="lightgray" stroke-width="4" transform="scale(4, 4)"> <rect x="0" y="0" width="256" height="256" fill="white" stroke-width="4"/></g>
			<g transform="scale(0.92, -0.92) translate(60, -920)">					<path d="M 338 693 L 316 700 Q 310 703 301 706 Q 292 708 282 710 Q 271 711 264 709 Q 257 706 257 698 Q 257 694 266 689 Q 289 668 301 603 L 318 479 Q 321 465 331 447 Q 342 431 350 433 Q 357 434 367 453 L 368 485 L 360 561 L 344 667 C 340 692 340 692 338 693 Z" fill="black"></path>
				<path d="M 682 480 L 690 459 Q 695 446 710 449 Q 724 452 731 459 Q 741 469 749 498 L 796 640 Q 801 657 812 677 Q 823 695 822 700 Q 822 703 823 706 Q 823 709 823 710 Q 822 711 820 713 Q 800 731 766 744 Q 731 757 713 757 Q 705 757 668 743 Q 631 729 521 711 Q 410 693 338 693 C 308 692 314 667 344 667 L 374 667 Q 387 665 420 670 L 494 681 L 553 689 L 678 708 Q 708 712 717 704 Q 726 696 722 669 L 710 595 L 691 514 C 684 485 681 482 682 480 Z" fill="red"></path>
				<path d="M 430 566 Q 436 563 445.5 562.5 Q 455 562 462 563 Q 469 564 480.5 566 Q 492 568 497 569 L 548 574 Q 630 581 633 581 Q 650 582 651 589 Q 651 603 611 615 Q 604 617 595 617.5 Q 586 618 580.5 617.5 Q 575 617 563.5 615 Q 552 613 550 612 L 497 605 L 458 601 Q 436 599 414 598 Q 398 596 398 590 Q 399 583 430 566 Z" fill="lightgray"></path>
				<path d="M 497 569 L 497 495 C 497 465 545 471 546 501 L 548 574 L 550 612 L 553 689 C 554 719 493 711 494 681 L 497 610 L 497 605 L 497 569 Z" fill="lightgray"></path>
				<path d="M 504 464 L 565 470 L 635 478 Q 650 480 682 480 C 712 480 720 508 691 514 L 676 517 Q 667 518 635 513 Q 603 508 546 501 L 497 495 L 368 485 C 338 483 337 451 367 453 L 470 461 L 504 464 Z" fill="lightgray"></path>
				<path d="M 380 331 Q 380 333 383 336 Q 386 338 391 341 Q 395 344 400 347 Q 404 350 411 353 Q 417 356 420 358 Q 462 383 523 414 Q 524 415 528 417 Q 531 419 533 420 Q 534 420 537 422 Q 539 423 539 424 Q 539 425 540 427 Q 541 428 540 430 Q 539 432 538 435 Q 537 437 536 440 Q 529 452 504 464 C 478 478 474 480 470 461 L 468 450 Q 461 428 381 361 L 357 345 L 344 340 Q 330 334 320 329 Q 310 324 310 321 Q 303 306 328 279 Q 337 269 341 269 Q 345 269 361 276 Q 376 283 396 286 L 490 301 C 520 306 564 332 534 331 L 398 327 Q 388 326 384 327 Q 380 327 380 331 Z" fill="lightgray"></path>
				<path d="M 490 301 L 327 200 Q 307 188 291 185 Q 275 182 271 180 Q 262 172 266 160 Q 270 148 277 139 Q 284 130 289 127 Q 298 118 303 118 Q 308 117 319 124 Q 331 130 349 134 L 494 166 L 541 174 L 702 204 C 731 209 714 232 684 228 L 350 188 L 628 328 Q 641 335 653 337 Q 666 338 669 343 Q 672 348 667 364 Q 662 379 642 396 Q 624 413 615 413 Q 604 413 601 406 Q 592 378 573 362 L 534 331 L 490 301 Z" fill="lightgray"></path>
				<path d="M 702 204 L 726 176 Q 732 168 752.5 152.5 Q 773 137 781 141 Q 796 154 795 175 Q 794 242 716 271 Q 685 284 673 288 L 658 293 Q 650 295 647 289 Q 644 283 649 275 L 684 228 L 702 204 Z" fill="lightgray"></path>
				<path d="M 494 166 L 501 143 Q 507 124 506 61 Q 504 -2 505 -24 Q 505 -46 495 -51 Q 484 -56 463 -48 Q 440 -41 438 -40 L 420 -36 Q 413 -35 412 -40 Q 411 -45 416 -48 L 426 -56 L 441 -66 Q 458 -77 492 -123 Q 499 -133 505 -135 Q 510 -136 522 -130 Q 558 -110 561 -19 L 561 22 Q 561 90 567 119 Q 573 147 568 156 Q 563 165 541 174 C 514 187 485 195 494 166 Z" fill="lightgray"></path>
				<path d="M 207 -60 Q 202 -65 202 -72 Q 202 -78 210 -74 L 227 -70 Q 265 -56 315 -1 Q 334 19 336 22 Q 358 39 360 47 Q 362 56 347.5 69 Q 333 82 321 89 Q 307 97 300 95 Q 297 94 295 93 Q 293 92 292 89.5 Q 291 87 290.5 84.5 Q 290 82 289.5 76 Q 289 70 288 65 Q 284 43 261 7 Q 238 -29 217 -48 L 207 -60 Z" fill="lightgray"></path>
				<path d="M 676 89 L 696 66 Q 720 38 749.5 -2.5 Q 779 -43 795.5 -57 Q 812 -71 827 -69 Q 842 -69 846 -36.5 Q 850 -4 841 8 Q 836 24 818 39 Q 773 82 691 106 L 673 113 Q 667 115 663 111.5 Q 659 108 665 101 L 676 89 Z" fill="lightgray"></path>
</g>
		<text x="40" y="140" font-size="128" fill="#999999">2</text></g>
		<g id="id0:id2:id2" transform="matrix(1.0,0,0,1.0,2048,0.0)">			<g stroke="lightgray" stroke-width="4" transform="scale(4, 4)"> <rect x="0" y="0" width="256" height="256" fill="white" stroke-width="4"/></g>
			<g transform="scale(0.92, -0.92) translate(60, -920)">					<path d="M 338 693 L 316 700 Q 310 703 301 706 Q 292 708 282 710 Q 271 711 264 709 Q 257 706 257 698 Q 257 694 266 689 Q 289 668 301 603 L 318 479 Q 321 465 331 447 Q 342 431 350 433 Q 357 434 367 453 L 368 485 L 360 561 L 344 667 C 340 692 340 692 338 693 Z" fill="black"></path>
				<path d="M 682 480 L 690 459 Q 695 446 710 449 Q 724 452 731 459 Q 741 469 749 498 L 796 640 Q 801 657 812 677 Q 823 695 822 700 Q 822 703 823 706 Q 823 709 823 710 Q 822 711 820 713 Q 800 731 766 744 Q 731 757 713 757 Q 705 757 668 743 Q 631 729 521 711 Q 410 693 338 693 C 308 692 314 667 344 667 L 374 667 Q 387 665 420 670 L 494 681 L 553 689 L 678 708 Q 708 712 717 704 Q 726 696 722 669 L 710 595 L 691 514 C 684 485 681 482 682 480 Z" fill="black"></path>
				<path d="M 430 566 Q 436 563 445.5 562.5 Q 455 562 462 563 Q 469 564 480.5 566 Q 492 568 497 569 L 548 574 Q 630 581 633 581 Q 650 582 651 589 Q 651 603 611 615 Q 604 617 595 617.5 Q 586 618 580.5 617.5 Q 575 617 563.5 615 Q 552 613 550 612 L 497 605 L 458 601 Q 436 599 414 598 Q 398 596 398 590 Q 399 583 430 566 Z" fill="red"></path>
				<path d="M 497 569 L 497 495 C 497 465 545 471 546 501 L 548 574 L 550 612 L 553 689 C 554 719 493 711 494 681 L 497 610 L 497 605 L 497 569 Z" fill="lightgray"></path>
				<path d="M 504 464 L 565 470 L 635 478 Q 650 480 682 480 C 712 480 720 508 691 514 L 676 517 Q 667 518 635 513 Q 603 508 546 501 L 497 495 L 368 485 C 338 483 337 451 367 453 L 470 461 L 504 464 Z" fill="lightgray"></path>
				<path d="M 380 331 Q 380 333 383 336 Q 386 338 391 341 Q 395 344 400 347 Q 404 350 411 353 Q 417 356 420 358 Q 462 383 523 414 Q 524 415 528 417 Q 531 419 533 420 Q 534 420 537 422 Q 539 423 539 424 Q 539 425 540 427 Q 541 428 540 430 Q 539 432 538 435 Q 537 437 536 440 Q 529 452 504 464 C 478 478 474 480 470 461 L 468 450 Q 461 428 381 361 L 357 345 L 344 340 Q 330 334 320 329 Q 310 324 310 321 Q 303 306 328 279 Q 337 269 341 269 Q 345 269 361 276 Q 376 283 396 286 L 490 301 C 520 306 564 332 534 331 L 398 327 Q 388 326 384 327 Q 380 327 380 331 Z" fill="lightgray"></path>
				<path d="M 490 301 L 327 200 Q 307 188 291 185 Q 275 182 271 180 Q 262 172 266 160 Q 270 148 277 139 Q 284 130 289 127 Q 298 118 303 118 Q 308 117 319 124 Q 331 130 349 134 L 494 166 L 541 174 L 702 204 C 731 209 714 232 684 228 L 350 188 L 628 328 Q 641 335 653 337 Q 666 338 669 343 Q 672 348 667 364 Q 662 379 642 396 Q 624 413 615 413 Q 604 413 601 406 Q 592 378 573 362 L 534 331 L 490 301 Z" fill="lightgray"></path>
				<path d="M 702 204 L 726 176 Q 732 168 752.5 152.5 Q 773 137 781 141 Q 796 154 795 175 Q 794 242 716 271 Q 685 284 673 288 L 658 293 Q 650 295 647 289 Q 644 283 649 275 L 684 228 L 702 204 Z" fill="lightgray"></path>
				<path d="M 494 166 L 501 143 Q 507 124 506 61 Q 504 -2 505 -24 Q 505 -46 495 -51 Q 484 -56 463 -48 Q 440 -41 438 -40 L 420 -36 Q 413 -35 412 -40 Q 411 -45 416 -48 L 426 -56 L 441 -66 Q 458 -77 492 -123 Q 499 -133 505 -135 Q 510 -136 522 -130 Q 558 -110 561 -19 L 561 22 Q 561 90 567 119 Q 573 147 568 156 Q 563 165 541 174 C 514 187 485 195 494 166 Z" fill="lightgray"></path>
				<path d="M 207 -60 Q 202 -65 202 -72 Q 202 -78 210 -74 L 227 -70 Q 265 -56 315 -1 Q 334 19 336 22 Q 358 39 360 47 Q 362 56 347.5 69 Q 333 82 321 89 Q 307 97 300 95 Q 297 94 295 93 Q 293 92 292 89.5 Q 291 87 290.5 84.5 Q 290 82 289.5 76 Q 289 70 288 65 Q 284 43 261 7 Q 238 -29 217 -48 L 207 -60 Z" fill="lightgray"></path>
				<path d="M 676 89 L 696 66 Q 720 38 749.5 -2.5 Q 779 -43 795.5 -57 Q 812 -71 827 -69 Q 842 -69 846 -36.5 Q 850 -4 841 8 Q 836 24 818 39 Q 773 82 691 106 L 673 113 Q 667 115 663 111.5 Q 659 108 665 101 L 676 89 Z" fill="lightgray"></path>
</g>
		<text x="40" y="140" font-size="128" fill="#999999">3</text></g>
		<g id="id0:id3:id3" transform="matrix(1.0,0,0,1.0,3072,0.0)">			<g stroke="lightgray" stroke-width="4" transform="scale(4, 4)"> <rect x="0" y="0" width="256" height="256" fill="white" stroke-width="4"/></g>
			<g transform="scale(0.92, -0.92) translate(60, -920)">					<path d="M 338 693 L 316 700 Q 310 703 301 706 Q 292 708 282 710 Q 271 711 264 709 Q 257 706 257 698 Q 257 694 266 689 Q 289 668 301 603 L 318 479 Q 321 465 331 447 Q 342 431 350 433 Q 357 434 367 453 L 368 485 L 360 561 L 344 667 C 340 692 340 692 338 693 Z" fill="black"></path>
				<path d="M 682 480 L 690 459 Q 695 446 710 449 Q 724 452 731 459 Q 741 469 749 498 L 796 640 Q 801 657 812 677 Q 823 695 822 700 Q 822 703 823 706 Q 823 709 823 710 Q 822 711 820 713 Q 800 731 766 744 Q 731 757 713 757 Q 705 757 668 743 Q 631 729 521 711 Q 410 693 338 693 C 308 692 314 667 344 667 L 374 667 Q 387 665 420 670 L 494 681 L 553 689 L 678 708 Q 708 712 717 704 Q 726 696 722 669 L 710 595 L 691 514 C 684 485 681 482 682 480 Z" fill="black"></path>
				<path d="M 430 566 Q 436 563 445.5 562.5 Q 455 562 462 563 Q 469 564 480.5 566 Q 492 568 497 569 L 548 574 Q 630 581 633 581 Q 650 582 651 589 Q 651 603 611 615 Q 604 617 595 617.5 Q 586 618 580.5 617.5 Q 575 617 563.5 615 Q 552 613 550 612 L 497 605 L 458 601 Q 436 599 414 598 Q 398 596 398 590 Q 399 583 430 566 Z" fill="black"></path>
				<path d="M 497 569 L 497 495 C 497 465 545 471 546 501 L 548 574 L 550 612 L 553 689 C 554 719 493 711 494 681 L 497 610 L 497 605 L 497 569 Z" fill="red"></path>
				<path d="M 504 464 L 565 470 L 635 478 Q 650 480 682 480 C 712 480 720 508 691 514 L 676 517 Q 667 518 635 513 Q 603 508 546 501 L 497 495 L 368 485 C 338 483 337 451 367 453 L 470 461 L 504 464 Z" fill="lightgray"></path>
				<path d="M 380 331 Q 380 333 383 336 Q 386 338 391 341 Q 395 344 400 347 Q 404 350 411 353 Q 417 356 420 358 Q 462 383 523 414 Q 524 415 528 417 Q 531 419 533 420 Q 534 420 537 422 Q 539 423 539 424 Q 539 425 540 427 Q 541 428 540 430 Q 539 432 538 435 Q 537 437 536 440 Q 529 452 504 464 C 478 478 474 480 470 461 L 468 450 Q 461 428 381 361 L 357 345 L 344 340 Q 330 334 320 329 Q 310 324 310 321 Q 303 306 328 279 Q 337 269 341 269 Q 345 269 361 276 Q 376 283 396 286 L 490 301 C 520 306 564 332 534 331 L 398 327 Q 388 326 384 327 Q 380 327 380 331 Z" fill="lightgray"></path>
				<path d="M 490 301 L 327 200 Q 307 188 291 185 Q 275 182 271 180 Q 262 172 266 160 Q 270 148 277 139 Q 284 130 289 127 Q 298 118 303 118 Q 308 117 319 124 Q 331 130 349 134 L 494 166 L 541 174 L 702 204 C 731 209 714 232 684 228 L 350 188 L 628 328 Q 641 335 653 337 Q 666 338 669 343 Q 672 348 667 364 Q 662 379 642 396 Q 624 413 615 413 Q 604 413 601 406 Q 592 378 573 362 L 534 331 L 490 301 Z" fill="lightgray"></path>
				<path d="M 702 204 L 726 176 Q 732 168 752.5 152.5 Q 773 137 781 141 Q 796 154 795 175 Q 794 242 716 271 Q 685 284 673 288 L 658 293 Q 650 295 647 289 Q 644 283 649 275 L 684 228 L 702 204 Z" fill="lightgray"></path>
				<path d="M 494 166 L 501 143 Q 507 124 506 61 Q 504 -2 505 -24 Q 505 -46 495 -51 Q 484 -56 463 -48 Q 440 -41 438 -40 L 420 -36 Q 413 -35 412 -40 Q 411 -45 416 -48 L 426 -56 L 441 -66 Q 458 -77 492 -123 Q 499 -133 505 -135 Q 510 -136 522 -130 Q 558 -110 561 -19 L 561 22 Q 561 90 567 119 Q 573 147 568 156 Q 563 165 541 174 C 514 187 485 195 494 166 Z" fill="lightgray"></path>
				<path d="M 207 -60 Q 202 -65 202 -72 Q 202 -78 210 -74 L 227 -70 Q 265 -56 315 -1 Q 334 19 336 22 Q 358 39 360 47 Q 362 56 347.5 69 Q 333 82 321 89 Q 307 97 300 95 Q 297 94 295 93 Q 293 92 292 89.5 Q 291 87 290.5 84.5 Q 290 82 289.5 76 Q 289 70 288 65 Q 284 43 261 7 Q 238 -29 217 -48 L 207 -60 Z" fill="lightgray"></path>
				<path d="M 676 89 L 696 66 Q 720 38 749.5 -2.5 Q 779 -43 795.5 -57 Q 812 -71 827 -69 Q 842 -69 846 -36.5 Q 850 -4 841 8 Q 836 24 818 39 Q 773 82 691 106 L 673 113 Q 667 115 663 111.5 Q 659 108 665 101 L 676 89 Z" fill="lightgray"></path>
</g>
		<text x="40" y="140" font-size="128" fill="#999999">4</text></g>
		<g id="id0:id4:id4" transform="matrix(1.0,0,0,1.0,4096,0.0)">			<g stroke="lightgray" stroke-width="4" transform="scale(4, 4)"> <rect x="0" y="0" width="256" height="256" fill="white" stroke-width="4"/></g>
			<g transform="scale(0.92, -0.92) translate(60, -920)">					<path d="M 338 693 L 316 700 Q 310 703 301 706 Q 292 708 282 710 Q 271 711 264 709 Q 257 706 257 698 Q 257 694 266 689 Q 289 668 301 603 L 318 479 Q 321 465 331 447 Q 342 431 350 433 Q 357 434 367 453 L 368 485 L 360 561 L 344 667 C 340 692 340 692 338 693 Z" fill="black"></path>
				<path d="M 682 480 L 690 459 Q 695 446 710 449 Q 724 452 731 459 Q 741 469 749 498 L 796 640 Q 801 657 812 677 Q 823 695 822 700 Q 822 703 823 706 Q 823 709 823 710 Q 822 711 820 713 Q 800 731 766 744 Q 731 757 713 757 Q 705 757 668 743 Q 631 729 521 711 Q 410 693 338 693 C 308 692 314 667 344 667 L 374 667 Q 387 665 420 670 L 494 681 L 553 689 L 678 708 Q 708 712 717 704 Q 726 696 722 669 L 710 595 L 691 514 C 684 485 681 482 682 480 Z" fill="black"></path>
				<path d="M 430 566 Q 436 563 445.5 562.5 Q 455 562 462 563 Q 469 564 480.5 566 Q 492 568 497 569 L 548 574 Q 630 581 633 581 Q 650 582 651 589 Q 651 603 611 615 Q 604 617 595 617.5 Q 586 618 580.5 617.5 Q 575 617 563.5 615 Q 552 613 550 612 L 497 605 L 458 601 Q 436 599 414 598 Q 398 596 398 590 Q 399 583 430 566 Z" fill="black"></path>
				<path d="M 497 569 L 497 495 C 497 465 545 471 546 501 L 548 574 L 550 612 L 553 689 C 554 719 493 711 494 681 L 497 610 L 497 605 L 497 569 Z" fill="black"></path>
				<path d="M 504 464 L 565 470 L 635 478 Q 650 480 682 480 C 712 480 720 508 691 514 L 676 517 Q 667 518 635 513 Q 603 508 546 501 L 497 495 L 368 485 C 338 483 337 451 367 453 L 470 461 L 504 464 Z" fill="red"></path>
				<path d="M 380 331 Q 380 333 383 336 Q 386 338 391 341 Q 395 344 400 347 Q 404 350 411 353 Q 417 356 420 358 Q 462 383 523 414 Q 524 415 528 417 Q 531 419 533 420 Q 534 420 537 422 Q 539 423 539 424 Q 539 425 540 427 Q 541 428 540 430 Q 539 432 538 435 Q 537 437 536 440 Q 529 452 504 464 C 478 478 474 480 470 461 L 468 450 Q 461 428 381 361 L 357 345 L 344 340 Q 330 334 320 329 Q 310 324 310 321 Q 303 306 328 279 Q 337 269 341 269 Q 345 269 361 276 Q 376 283 396 286 L 490 301 C 520 306 564 332 534 331 L 398 327 Q 388 326 384 327 Q 380 327 380 331 Z" fill="lightgray"></path>
				<path d="M 490 301 L 327 200 Q 307 188 291 185 Q 275 182 271 180 Q 262 172 266 160 Q 270 148 277 139 Q 284 130 289 127 Q 298 118 303 118 Q 308 117 319 124 Q 331 130 349 134 L 494 166 L 541 174 L 702 204 C 731 209 714 232 684 228 L 350 188 L 628 328 Q 641 335 653 337 Q 666 338 669 343 Q 672 348 667 364 Q 662 379 642 396 Q 624 413 615 413 Q 604 413 601 406 Q 592 378 573 362 L 534 331 L 490 301 Z" fill="lightgray"></path>
				<path d="M 702 204 L 726 176 Q 732 168 752.5 152.5 Q 773 137 781 141 Q 796 154 795 175 Q 794 242 716 271 Q 685 284 673 288 L 658 293 Q 650 295 647 289 Q 644 283 649 275 L 684 228 L 702 204 Z" fill="lightgray"></path>
				<path d="M 494 166 L 501 143 Q 507 124 506 61 Q 504 -2 505 -24 Q 505 -46 495 -51 Q 484 -56 463 -48 Q 440 -41 438 -40 L 420 -36 Q 413 -35 412 -40 Q 411 -45 416 -48 L 426 -56 L 441 -66 Q 458 -77 492 -123 Q 499 -133 505 -135 Q 510 -136 522 -130 Q 558 -110 561 -19 L 561 22 Q 561 90 567 119 Q 573 147 568 156 Q 563 165 541 174 C 514 187 485 195 494 166 Z" fill="lightgray"></path>
				<path d="M 207 -60 Q 202 -65 202 -72 Q 202 -78 210 -74 L 227 -70 Q 265 -56 315 -1 Q 334 19 336 22 Q 358 39 360 47 Q 362 56 347.5 69 Q 333 82 321 89 Q 307 97 300 95 Q 297 94 295 93 Q 293 92 292 89.5 Q 291 87 290.5 84.5 Q 290 82 289.5 76 Q 289 70 288 65 Q 284 43 261 7 Q 238 -29 217 -48 L 207 -60 Z" fill="lightgray"></path>
				<path d="M 676 89 L 696 66 Q 720 38 749.5 -2.5 Q 779 -43 795.5 -57 Q 812 -71 827 -69 Q 842 -69 846 -36.5 Q 850 -4 841 8 Q 836 24 818 39 Q 773 82 691 106 L 673 113 Q 667 115 663 111.5 Q 659 108 665 101 L 676 89 Z" fill="lightgray"></path>
</g>
		<text x="40" y="140" font-size="128" fill="#999999">5</text></g>
</g>
	<g id="id1:id1" transform="translate(0.0,1024)">
		<g id="id1:id0:id0" transform="matrix(1.0,0,0,1.0,0,0.0)">			<g stroke="lightgray" stroke-width="4" transform="scale(4, 4)"> <rect x="0" y="0" width="256" height="256" fill="white" stroke-width="4"/></g>
			<g transform="scale(0.92, -0.92) translate(60, -920)">					<path d="M 338 693 L 316 700 Q 310 703 301 706 Q 292 708 282 710 Q 271 711 264 709 Q 257 706 257 698 Q 257 694 266 689 Q 289 668 301 603 L 318 479 Q 321 465 331 447 Q 342 431 350 433 Q 357 434 367 453 L 368 485 L 360 561 L 344 667 C 340 692 340 692 338 693 Z" fill="black"></path>
				<path d="M 682 480 L 690 459 Q 695 446 710 449 Q 724 452 731 459 Q 741 469 749 498 L 796 640 Q 801 657 812 677 Q 823 695 822 700 Q 822 703 823 706 Q 823 709 823 710 Q 822 711 820 713 Q 800 731 766 744 Q 731 757 713 757 Q 705 757 668 743 Q 631 729 521 711 Q 410 693 338 693 C 308 692 314 667 344 667 L 374 667 Q 387 665 420 670 L 494 681 L 553 689 L 678 708 Q 708 712 717 704 Q 726 696 722 669 L 710 595 L 691 514 C 684 485 681 482 682 480 Z" fill="black"></path>
				<path d="M 430 566 Q 436 563 445.5 562.5 Q 455 562 462 563 Q 469 564 480.5 566 Q 492 568 497 569 L 548 574 Q 630 581 633 581 Q 650 582 651 589 Q 651 603 611 615 Q 604 617 595 617.5 Q 586 618 580.5 617.5 Q 575 617 563.5 615 Q 552 613 550 612 L 497 605 L 458 601 Q 436 599 414 598 Q 398 596 398 590 Q 399 583 430 566 Z" fill="black"></path>
				<path d="M 497 569 L 497 495 C 497 465 545 471 546 501 L 548 574 L 550 612 L 553 689 C 554 719 493 711 494 681 L 497 610 L 497 605 L 497 569 Z" fill="black"></path>
				<path d="M 504 464 L 565 470 L 635 478 Q 650 480 682 480 C 712 480 720 508 691 514 L 676 517 Q 667 518 635 513 Q 603 508 546 501 L 497 495 L 368 485 C 338 483 337 451 367 453 L 470 461 L 504 464 Z" fill="black"></path>
				<path d="M 380 331 Q 380 333 383 336 Q 386 338 391 341 Q 395 344 400 347 Q 404 350 411 353 Q 417 356 420 358 Q 462 383 523 414 Q 524 415 528 417 Q 531 419 533 420 Q 534 420 537 422 Q 539 423 539 424 Q 539 425 540 427 Q 541 428 540 430 Q 539 432 538 435 Q 537 437 536 440 Q 529 452 504 464 C 478 478 474 480 470 461 L 468 450 Q 461 428 381 361 L 357 345 L 344 340 Q 330 334 320 329 Q 310 324 310 321 Q 303 306 328 279 Q 337 269 341 269 Q 345 269 361 276 Q 376 283 396 286 L 490 301 C 520 306 564 332 534 331 L 398 327 Q 388 326 384 327 Q 380 327 380 331 Z" fill="red"></path>
				<path d="M 490 301 L 327 200 Q 307 188 291 185 Q 275 182 271 180 Q 262 172 266 160 Q 270 148 277 139 Q 284 130 289 127 Q 298 118 303 118 Q 308 117 319 124 Q 331 130 349 134 L 494 166 L 541 174 L 702 204 C 731 209 714 232 684 228 L 350 188 L 628 328 Q 641 335 653 337 Q 666 338 669 343 Q 672 348 667 364 Q 662 379 642 396 Q 624 413 615 413 Q 604 413 601 406 Q 592 378 573 362 L 534 331 L 490 301 Z" fill="lightgray"></path>
				<path d="M 702 204 L 726 176 Q 732 168 752.5 152.5 Q 773 137 781 141 Q 796 154 795 175 Q 794 242 716 271 Q 685 284 673 288 L 658 293 Q 650 295 647 289 Q 644 283 649 275 L 684 228 L 702 204 Z" fill="lightgray"></path>
				<path d="M 494 166 L 501 143 Q 507 124 506 61 Q 504 -2 505 -24 Q 505 -46 495 -51 Q 484 -56 463 -48 Q 440 -41 438 -40 L 420 -36 Q 413 -35 412 -40 Q 411 -45 416 -48 L 426 -56 L 441 -66 Q 458 -77 492 -123 Q 499 -133 505 -135 Q 510 -136 522 -130 Q 558 -110 561 -19 L 561 22 Q 561 90 567 119 Q 573 147 568 156 Q 563 165 541 174 C 514 187 485 195 494 166 Z" fill="lightgray"></path>
				<path d="M 207 -60 Q 202 -65 202 -72 Q 202 -78 210 -74 L 227 -70 Q 265 -56 315 -1 Q 334 19 336 22 Q 358 39 360 47 Q 362 56 347.5 69 Q 333 82 321 89 Q 307 97 300 95 Q 297 94 295 93 Q 293 92 292 89.5 Q 291 87 290.5 84.5 Q 290 82 289.5 76 Q 289 70 288 65 Q 284 43 261 7 Q 238 -29 217 -48 L 207 -60 Z" fill="lightgray"></path>
				<path d="M 676 89 L 696 66 Q 720 38 749.5 -2.5 Q 779 -43 795.5 -57 Q 812 -71 827 -69 Q 842 -69 846 -36.5 Q 850 -4 841 8 Q 836 24 818 39 Q 773 82 691 106 L 673 113 Q 667 115 663 111.5 Q 659 108 665 101 L 676 89 Z" fill="lightgray"></path>
</g>
		<text x="40" y="140" font-size="128" fill="#999999">6</text></g>
		<g id="id1:id1:id1" transform="matrix(1.0,0,0,1.0,1024,0.0)">			<g stroke="lightgray" stroke-width="4" transform="scale(4, 4)"> <rect x="0" y="0" width="256" height="256" fill="white" stroke-width="4"/></g>
			<g transform="scale(0.92, -0.92) translate(60, -920)">					<path d="M 338 693 L 316 700 Q 310 703 301 706 Q 292 708 282 710 Q 271 711 264 709 Q 257 706 257 698 Q 257 694 266 689 Q 289 668 301 603 L 318 479 Q 321 465 331 447 Q 342 431 350 433 Q 357 434 367 453 L 368 485 L 360 561 L 344 667 C 340 692 340 692 338 693 Z" fill="black"></path>
				<path d="M 682 480 L 690 459 Q 695 446 710 449 Q 724 452 731 459 Q 741 469 749 498 L 796 640 Q 801 657 812 677 Q 823 695 822 700 Q 822 703 823 706 Q 823 709 823 710 Q 822 711 820 713 Q 800 731 766 744 Q 731 757 713 757 Q 705 757 668 743 Q 631 729 521 711 Q 410 693 338 693 C 308 692 314 667 344 667 L 374 667 Q 387 665 420 670 L 494 681 L 553 689 L 678 708 Q 708 712 717 704 Q 726 696 722 669 L 710 595 L 691 514 C 684 485 681 482 682 480 Z" fill="black"></path>
				<path d="M 430 566 Q 436 563 445.5 562.5 Q 455 562 462 563 Q 469 564 480.5 566 Q 492 568 497 569 L 548 574 Q 630 581 633 581 Q 650 582 651 589 Q 651 603 611 615 Q 604 617 595 617.5 Q 586 618 580.5 617.5 Q 575 617 563.5 615 Q 552 613 550 612 L 497 605 L 458 601 Q 436 599 414 598 Q 398 596 398 590 Q 399 583 430 566 Z" fill="black"></path>
				<path d="M 497 569 L 497 495 C 497 465 545 471 546 501 L 548 574 L 550 612 L 553 689 C 554 719 493 711 494 681 L 497 610 L 497 605 L 497 569 Z" fill="black"></path>
				<path d="M 504 464 L 565 470 L 635 478 Q 650 480 682 480 C 712 480 720 508 691 514 L 676 517 Q 667 518 635 513 Q 603 508 546 501 L 497 495 L 368 485 C 338 483 337 451 367 453 L 470 461 L 504 464 Z" fill="black"></path>
				<path d="M 380 331 Q 380 333 383 336 Q 386 338 391 341 Q 395 344 400 347 Q 404 350 411 353 Q 417 356 420 358 Q 462 383 523 414 Q 524 415 528 417 Q 531 419 533 420 Q 534 420 537 422 Q 539 423 539 424 Q 539 425 540 427 Q 541 428 540 430 Q 539 432 538 435 Q 537 437 536 440 Q 529 452 504 464 C 478 478 474 480 470 461 L 468 450 Q 461 428 381 361 L 357 345 L 344 340 Q 330 334 320 329 Q 310 324 310 321 Q 303 306 328 279 Q 337 269 341 269 Q 345 269 361 276 Q 376 283 396 286 L 490 301 C 520 306 564 332 534 331 L 398 327 Q 388 326 384 327 Q 380 327 380 331 Z" fill="black"></path>
				<path d="M 490 301 L 327 200 Q 307 188 291 185 Q 275 182 271 180 Q 262 172 266 160 Q 270 148 277 139 Q 284 130 289 127 Q 298 118 303 118 Q 308 117 319 124 Q 331 130 349 134 L 494 166 L 541 174 L 702 204 C 731 209 714 232 684 228 L 350 188 L 628 328 Q 641 335 653 337 Q 666 338 669 343 Q 672 348 667 364 Q 662 379 642 396 Q 624 413 615 413 Q 604 413 601 406 Q 592 378 573 362 L 534 331 L 490 301 Z" fill="red"></path>
				<path d="M 702 204 L 726 176 Q 732 168 752.5 152.5 Q 773 137 781 141 Q 796 154 795 175 Q 794 242 716 271 Q 685 284 673 288 L 658 293 Q 650 295 647 289 Q 644 283 649 275 L 684 228 L 702 204 Z" fill="lightgray"></path>
				<path d="M 494 166 L 501 143 Q 507 124 506 61 Q 504 -2 505 -24 Q 505 -46 495 -51 Q 484 -56 463 -48 Q 440 -41 438 -40 L 420 -36 Q 413 -35 412 -40 Q 411 -45 416 -48 L 426 -56 L 441 -66 Q 458 -77 492 -123 Q 499 -133 505 -135 Q 510 -136 522 -130 Q 558 -110 561 -19 L 561 22 Q 561 90 567 119 Q 573 147 568 156 Q 563 165 541 174 C 514 187 485 195 494 166 Z" fill="lightgray"></path>
				<path d="M 207 -60 Q 202 -65 202 -72 Q 202 -78 210 -74 L 227 -70 Q 265 -56 315 -1 Q 334 19 336 22 Q 358 39 360 47 Q 362 56 347.5 69 Q 333 82 321 89 Q 307 97 300 95 Q 297 94 295 93 Q 293 92 292 89.5 Q 291 87 290.5 84.5 Q 290 82 289.5 76 Q 289 70 288 65 Q 284 43 261 7 Q 238 -29 217 -48 L 207 -60 Z" fill="lightgray"></path>
				<path d="M 676 89 L 696 66 Q 720 38 749.5 -2.5 Q 779 -43 795.5 -57 Q 812 -71 827 -69 Q 842 -69 846 -36.5 Q 850 -4 841 8 Q 836 24 818 39 Q 773 82 691 106 L 673 113 Q 667 115 663 111.5 Q 659 108 665 101 L 676 89 Z" fill="lightgray"></path>
</g>
		<text x="40" y="140" font-size="128" fill="#999999">7</text></g>
		<g id="id1:id2:id2" transform="matrix(1.0,0,0,1.0,2048,0.0)">			<g stroke="lightgray" stroke-width="4" transform="scale(4, 4)"> <rect x="0" y="0" width="256" height="256" fill="white" stroke-width="4"/></g>
			<g transform="scale(0.92, -0.92) translate(60, -920)">					<path d="M 338 693 L 316 700 Q 310 703 301 706 Q 292 708 282 710 Q 271 711 264 709 Q 257 706 257 698 Q 257 694 266 689 Q 289 668 301 603 L 318 479 Q 321 465 331 447 Q 342 431 350 433 Q 357 434 367 453 L 368 485 L 360 561 L 344 667 C 340 692 340 692 338 693 Z" fill="black"></path>
				<path d="M 682 480 L 690 459 Q 695 446 710 449 Q 724 452 731 459 Q 741 469 749 498 L 796 640 Q 801 657 812 677 Q 823 695 822 700 Q 822 703 823 706 Q 823 709 823 710 Q 822 711 820 713 Q 800 731 766 744 Q 731 757 713 757 Q 705 757 668 743 Q 631 729 521 711 Q 410 693 338 693 C 308 692 314 667 344 667 L 374 667 Q 387 665 420 670 L 494 681 L 553 689 L 678 708 Q 708 712 717 704 Q 726 696 722 669 L 710 595 L 691 514 C 684 485 681 482 682 480 Z" fill="black"></path>
				<path d="M 430 566 Q 436 563 445.5 562.5 Q 455 562 462 563 Q 469 564 480.5 566 Q 492 568 497 569 L 548 574 Q 630 581 633 581 Q 650 582 651 589 Q 651 603 611 615 Q 604 617 595 617.5 Q 586 618 580.5 617.5 Q 575 617 563.5 615 Q 552 613 550 612 L 497 605 L 458 601 Q 436 599 414 598 Q 398 596 398 590 Q 399 583 430 566 Z" fill="black"></path>
				<path d="M 497 569 L 497 495 C 497 465 545 471 546 501 L 548 574 L 550 612 L 553 689 C 554 719 493 711 494 681 L 497 610 L 497 605 L 497 569 Z" fill="black"></path>
				<path d="M 504 464 L 565 470 L 635 478 Q 650 480 682 480 C 712 480 720 508 691 514 L 676 517 Q 667 518 635 513 Q 603 508 546 501 L 497 495 L 368 485 C 338 483 337 451 367 453 L 470 461 L 504 464 Z" fill="black"></path>
				<path d="M 380 331 Q 380 333 383 336 Q 386 338 391 341 Q 395 344 400 347 Q 404 350 411 353 Q 417 356 420 358 Q 462 383 523 414 Q 524 415 528 417 Q 531 419 533 420 Q 534 420 537 422 Q 539 423 539 424 Q 539 425 540 427 Q 541 428 540 430 Q 539 432 538 435 Q 537 437 536 440 Q 529 452 504 464 C 478 478 474 480 470 461 L 468 450 Q 461 428 381 361 L 357 345 L 344 340 Q 330 334 320 329 Q 310 324 310 321 Q 303 306 328 279 Q 337 269 341 269 Q 345 269 361 276 Q 376 283 396 286 L 490 301 C 520 306 564 332 534 331 L 398 327 Q 388 326 384 327 Q 380 327 380 331 Z" fill="black"></path>
				<path d="M 490 301 L 327 200 Q 307 188 291 185 Q 275 182 271 180 Q 262 172 266 160 Q 270 148 277 139 Q 284 130 289 127 Q 298 118 303 118 Q 308 117 319 124 Q 331 130 349 134 L 494 166 L 541 174 L 702 204 C 731 209 714 232 684 228 L 350 188 L 628 328 Q 641 335 653 337 Q 666 338 669 343 Q 672 348 667 364 Q 662 379 642 396 Q 624 413 615 413 Q 604 413 601 406 Q 592 378 573 362 L 534 331 L 490 301 Z" fill="black"></path>
				<path d="M 702 204 L 726 176 Q 732 168 752.5 152.5 Q 773 137 781 141 Q 796 154 795 175 Q 794 242 716 271 Q 685 284 673 288 L 658 293 Q 650 295 647 289 Q 644 283 649 275 L 684 228 L 702 204 Z" fill="red"></path>
				<path d="M 494 166 L 501 143 Q 507 124 506 61 Q 504 -2 505 -24 Q 505 -46 495 -51 Q 484 -56 463 -48 Q 440 -41 438 -40 L 420 -36 Q 413 -35 412 -40 Q 411 -45 416 -48 L 426 -56 L 441 -66 Q 458 -77 492 -123 Q 499 -133 505 -135 Q 510 -136 522 -130 Q 558 -110 561 -19 L 561 22 Q 561 90 567 119 Q 573 147 568 156 Q 563 165 541 174 C 514 187 485 195 494 166 Z" fill="lightgray"></path>
				<path d="M 207 -60 Q 202 -65 202 -72 Q 202 -78 210 -74 L 227 -70 Q 265 -56 315 -1 Q 334 19 336 22 Q 358 39 360 47 Q 362 56 347.5 69 Q 333 82 321 89 Q 307 97 300 95 Q 297 94 295 93 Q 293 92 292 89.5 Q 291 87 290.5 84.5 Q 290 82 289.5 76 Q 289 70 288 65 Q 284 43 261 7 Q 238 -29 217 -48 L 207 -60 Z" fill="lightgray"></path>
				<path d="M 676 89 L 696 66 Q 720 38 749.5 -2.5 Q 779 -43 795.5 -57 Q 812 -71 827 -69 Q 842 -69 846 -36.5 Q 850 -4 841 8 Q 836 24 818 39 Q 773 82 691 106 L 673 113 Q 667 115 663 111.5 Q 659 108 665 101 L 676 89 Z" fill="lightgray"></path>
</g>
		<text x="40" y="140" font-size="128" fill="#999999">8</text></g>
		<g id="id1:id3:id3" transform="matrix(1.0,0,0,1.0,3072,0.0)">			<g stroke="lightgray" stroke-width="4" transform="scale(4, 4)"> <rect x="0" y="0" width="256" height="256" fill="white" stroke-width="4"/></g>
			<g transform="scale(0.92, -0.92) translate(60, -920)">					<path d="M 338 693 L 316 700 Q 310 703 301 706 Q 292 708 282 710 Q 271 711 264 709 Q 257 706 257 698 Q 257 694 266 689 Q 289 668 301 603 L 318 479 Q 321 465 331 447 Q 342 431 350 433 Q 357 434 367 453 L 368 485 L 360 561 L 344 667 C 340 692 340 692 338 693 Z" fill="black"></path>
				<path d="M 682 480 L 690 459 Q 695 446 710 449 Q 724 452 731 459 Q 741 469 749 498 L 796 640 Q 801 657 812 677 Q 823 695 822 700 Q 822 703 823 706 Q 823 709 823 710 Q 822 711 820 713 Q 800 731 766 744 Q 731 757 713 757 Q 705 757 668 743 Q 631 729 521 711 Q 410 693 338 693 C 308 692 314 667 344 667 L 374 667 Q 387 665 420 670 L 494 681 L 553 689 L 678 708 Q 708 712 717 704 Q 726 696 722 669 L 710 595 L 691 514 C 684 485 681 482 682 480 Z" fill="black"></path>
				<path d="M 430 566 Q 436 563 445.5 562.5 Q 455 562 462 563 Q 469 564 480.5 566 Q 492 568 497 569 L 548 574 Q 630 581 633 581 Q 650 582 651 589 Q 651 603 611 615 Q 604 617 595 617.5 Q 586 618 580.5 617.5 Q 575 617 563.5 615 Q 552 613 550 612 L 497 605 L 458 601 Q 436 599 414 598 Q 398 596 398 590 Q 399 583 430 566 Z" fill="black"></path>
				<path d="M 497 569 L 497 495 C 497 465 545 471 546 501 L 548 574 L 550 612 L 553 689 C 554 719 493 711 494 681 L 497 610 L 497 605 L 497 569 Z" fill="black"></path>
				<path d="M 504 464 L 565 470 L 635 478 Q 650 480 682 480 C 712 480 720 508 691 514 L 676 517 Q 667 518 635 513 Q 603 508 546 501 L 497 495 L 368 485 C 338 483 337 451 367 453 L 470 461 L 504 464 Z" fill="black"></path>
				<path d="M 380 331 Q 380 333 383 336 Q 386 338 391 341 Q 395 344 400 347 Q 404 350 411 353 Q 417 356 420 358 Q 462 383 523 414 Q 524 415 528 417 Q 531 419 533 420 Q 534 420 537 422 Q 539 423 539 424 Q 539 425 540 427 Q 541 428 540 430 Q 539 432 538 435 Q 537 437 536 440 Q 529 452 504 464 C 478 478 474 480 470 461 L 468 450 Q 461 428 381 361 L 357 345 L 344 340 Q 330 334 320 329 Q 310 324 310 321 Q 303 306 328 279 Q 337 269 341 269 Q 345 269 361 276 Q 376 283 396 286 L 490 301 C 520 306 564 332 534 331 L 398 327 Q 388 326 384 327 Q 380 327 380 331 Z" fill="black"></path>
				<path d="M 490 301 L 327 200 Q 307 188 291 185 Q 275 182 271 180 Q 262 172 266 160 Q 270 148 277 139 Q 284 130 289 127 Q 298 118 303 118 Q 308 117 319 124 Q 331 130 349 134 L 494 166 L 541 174 L 702 204 C 731 209 714 232 684 228 L 350 188 L 628 328 Q 641 335 653 337 Q 666 338 669 343 Q 672 348 667 364 Q 662 379 642 396 Q 624 413 615 413 Q 604 413 601 406 Q 592 378 573 362 L 534 331 L 490 301 Z" fill="black"></path>
				<path d="M 702 204 L 726 176 Q 732 168 752.5 152.5 Q 773 137 781 141 Q 796 154 795 175 Q 794 242 716 271 Q 685 284 673 288 L 658 293 Q 650 295 647 289 Q 644 283 649 275 L 684 228 L 702 204 Z" fill="black"></path>
				<path d="M 494 166 L 501 143 Q 507 124 506 61 Q 504 -2 505 -24 Q 505 -46 495 -51 Q 484 -56 463 -48 Q 440 -41 438 -40 L 420 -36 Q 413 -35 412 -40 Q 411 -45 416 -48 L 426 -56 L 441 -66 Q 458 -77 492 -123 Q 499 -133 505 -135 Q 510 -136 522 -130 Q 558 -110 561 -19 L 561 22 Q 561 90 567 119 Q 573 147 568 156 Q 563 165 541 174 C 514 187 485 195 494 166 Z" fill="red"></path>
				<path d="M 207 -60 Q 202 -65 202 -72 Q 202 -78 210 -74 L 227 -70 Q 265 -56 315 -1 Q 334 19 336 22 Q 358 39 360 47 Q 362 56 347.5 69 Q 333 82 321 89 Q 307 97 300 95 Q 297 94 295 93 Q 293 92 292 89.5 Q 291 87 290.5 84.5 Q 290 82 289.5 76 Q 289 70 288 65 Q 284 43 261 7 Q 238 -29 217 -48 L 207 -60 Z" fill="lightgray"></path>
				<path d="M 676 89 L 696 66 Q 720 38 749.5 -2.5 Q 779 -43 795.5 -57 Q 812 -71 827 -69 Q 842 -69 846 -36.5 Q 850 -4 841 8 Q 836 24 818 39 Q 773 82 691 106 L 673 113 Q 667 115 663 111.5 Q 659 108 665 101 L 676 89 Z" fill="lightgray"></path>
</g>
		<text x="40" y="140" font-size="128" fill="#999999">9</text></g>
		<g id="id1:id4:id4" transform="matrix(1.0,0,0,1.0,4096,0.0)">			<g stroke="lightgray" stroke-width="4" transform="scale(4, 4)"> <rect x="0" y="0" width="256" height="256" fill="white" stroke-width="4"/></g>
			<g transform="scale(0.92, -0.92) translate(60, -920)">					<path d="M 338 693 L 316 700 Q 310 703 301 706 Q 292 708 282 710 Q 271 711 264 709 Q 257 706 257 698 Q 257 694 266 689 Q 289 668 301 603 L 318 479 Q 321 465 331 447 Q 342 431 350 433 Q 357 434 367 453 L 368 485 L 360 561 L 344 667 C 340 692 340 692 338 693 Z" fill="black"></path>
				<path d="M 682 480 L 690 459 Q 695 446 710 449 Q 724 452 731 459 Q 741 469 749 498 L 796 640 Q 801 657 812 677 Q 823 695 822 700 Q 822 703 823 706 Q 823 709 823 710 Q 822 711 820 713 Q 800 731 766 744 Q 731 757 713 757 Q 705 757 668 743 Q 631 729 521 711 Q 410 693 338 693 C 308 692 314 667 344 667 L 374 667 Q 387 665 420 670 L 494 681 L 553 689 L 678 708 Q 708 712 717 704 Q 726 696 722 669 L 710 595 L 691 514 C 684 485 681 482 682 480 Z" fill="black"></path>
				<path d="M 430 566 Q 436 563 445.5 562.5 Q 455 562 462 563 Q 469 564 480.5 566 Q 492 568 497 569 L 548 574 Q 630 581 633 581 Q 650 582 651 589 Q 651 603 611 615 Q 604 617 595 617.5 Q 586 618 580.5 617.5 Q 575 617 563.5 615 Q 552 613 550 612 L 497 605 L 458 601 Q 436 599 414 598 Q 398 596 398 590 Q 399 583 430 566 Z" fill="black"></path>
				<path d="M 497 569 L 497 495 C 497 465 545 471 546 501 L 548 574 L 550 612 L 553 689 C 554 719 493 711 494 681 L 497 610 L 497 605 L 497 569 Z" fill="black"></path>
				<path d="M 504 464 L 565 470 L 635 478 Q 650 480 682 480 C 712 480 720 508 691 514 L 676 517 Q 667 518 635 513 Q 603 508 546 501 L 497 495 L 368 485 C 338 483 337 451 367 453 L 470 461 L 504 464 Z" fill="black"></path>
				<path d="M 380 331 Q 380 333 383 336 Q 386 338 391 341 Q 395 344 400 347 Q 404 350 411 353 Q 417 356 420 358 Q 462 383 523 414 Q 524 415 528 417 Q 531 419 533 420 Q 534 420 537 422 Q 539 423 539 424 Q 539 425 540 427 Q 541 428 540 430 Q 539 432 538 435 Q 537 437 536 440 Q 529 452 504 464 C 478 478 474 480 470 461 L 468 450 Q 461 428 381 361 L 357 345 L 344 340 Q 330 334 320 329 Q 310 324 310 321 Q 303 306 328 279 Q 337 269 341 269 Q 345 269 361 276 Q 376 283 396 286 L 490 301 C 520 306 564 332 534 331 L 398 327 Q 388 326 384 327 Q 380 327 380 331 Z" fill="black"></path>
				<path d="M 490 301 L 327 200 Q 307 188 291 185 Q 275 182 271 180 Q 262 172 266 160 Q 270 148 277 139 Q 284 130 289 127 Q 298 118 303 118 Q 308 117 319 124 Q 331 130 349 134 L 494 166 L 541 174 L 702 204 C 731 209 714 232 684 228 L 350 188 L 628 328 Q 641 335 653 337 Q 666 338 669 343 Q 672 348 667 364 Q 662 379 642 396 Q 624 413 615 413 Q 604 413 601 406 Q 592 378 573 362 L 534 331 L 490 301 Z" fill="black"></path>
				<path d="M 702 204 L 726 176 Q 732 168 752.5 152.5 Q 773 137 781 141 Q 796 154 795 175 Q 794 242 716 271 Q 685 284 673 288 L 658 293 Q 650 295 647 289 Q 644 283 649 275 L 684 228 L 702 204 Z" fill="black"></path>
				<path d="M 494 166 L 501 143 Q 507 124 506 61 Q 504 -2 505 -24 Q 505 -46 495 -51 Q 484 -56 463 -48 Q 440 -41 438 -40 L 420 -36 Q 413 -35 412 -40 Q 411 -45 416 -48 L 426 -56 L 441 -66 Q 458 -77 492 -123 Q 499 -133 505 -135 Q 510 -136 522 -130 Q 558 -110 561 -19 L 561 22 Q 561 90 567 119 Q 573 147 568 156 Q 563 165 541 174 C 514 187 485 195 494 166 Z" fill="black"></path>
				<path d="M 207 -60 Q 202 -65 202 -72 Q 202 -78 210 -74 L 227 -70 Q 265 -56 315 -1 Q 334 19 336 22 Q 358 39 360 47 Q 362 56 347.5 69 Q 333 82 321 89 Q 307 97 300 95 Q 297 94 295 93 Q 293 92 292 89.5 Q 291 87 290.5 84.5 Q 290 82 289.5 76 Q 289 70 288 65 Q 284 43 261 7 Q 238 -29 217 -48 L 207 -60 Z" fill="red"></path>
				<path d="M 676 89 L 696 66 Q 720 38 749.5 -2.5 Q 779 -43 795.5 -57 Q 812 -71 827 -69 Q 842 -69 846 -36.5 Q 850 -4 841 8 Q 836 24 818 39 Q 773 82 691 106 L 673 113 Q 667 115 663 111.5 Q 659 108 665 101 L 676 89 Z" fill="lightgray"></path>
</g>
		<text x="40" y="140" font-size="128" fill="#999999">10</text></g>
</g>
	<g id="id2:id2" transform="translate(0.0,2048)">
		<g id="id2:id0:id0" transform="matrix(1.0,0,0,1.0,0,0.0)">			<g stroke="lightgray" stroke-width="4" transform="scale(4, 4)"> <rect x="0" y="0" width="256" height="256" fill="white" stroke-width="4"/></g>
			<g transform="scale(0.92, -0.92) translate(60, -920)">					<path d="M 338 693 L 316 700 Q 310 703 301 706 Q 292 708 282 710 Q 271 711 264 709 Q 257 706 257 698 Q 257 694 266 689 Q 289 668 301 603 L 318 479 Q 321 465 331 447 Q 342 431 350 433 Q 357 434 367 453 L 368 485 L 360 561 L 344 667 C 340 692 340 692 338 693 Z" fill="black"></path>
				<path d="M 682 480 L 690 459 Q 695 446 710 449 Q 724 452 731 459 Q 741 469 749 498 L 796 640 Q 801 657 812 677 Q 823 695 822 700 Q 822 703 823 706 Q 823 709 823 710 Q 822 711 820 713 Q 800 731 766 744 Q 731 757 713 757 Q 705 757 668 743 Q 631 729 521 711 Q 410 693 338 693 C 308 692 314 667 344 667 L 374 667 Q 387 665 420 670 L 494 681 L 553 689 L 678 708 Q 708 712 717 704 Q 726 696 722 669 L 710 595 L 691 514 C 684 485 681 482 682 480 Z" fill="black"></path>
				<path d="M 430 566 Q 436 563 445.5 562.5 Q 455 562 462 563 Q 469 564 480.5 566 Q 492 568 497 569 L 548 574 Q 630 581 633 581 Q 650 582 651 589 Q 651 603 611 615 Q 604 617 595 617.5 Q 586 618 580.5 617.5 Q 575 617 563.5 615 Q 552 613 550 612 L 497 605 L 458 601 Q 436 599 414 598 Q 398 596 398 590 Q 399 583 430 566 Z" fill="black"></path>
				<path d="M 497 569 L 497 495 C 497 465 545 471 546 501 L 548 574 L 550 612 L 553 689 C 554 719 493 711 494 681 L 497 610 L 497 605 L 497 569 Z" fill="black"></path>
				<path d="M 504 464 L 565 470 L 635 478 Q 650 480 682 480 C 712 480 720 508 691 514 L 676 517 Q 667 518 635 513 Q 603 508 546 501 L 497 495 L 368 485 C 338 483 337 451 367 453 L 470 461 L 504 464 Z" fill="black"></path>
				<path d="M 380 331 Q 380 333 383 336 Q 386 338 391 341 Q 395 344 400 347 Q 404 350 411 353 Q 417 356 420 358 Q 462 383 523 414 Q 524 415 528 417 Q 531 419 533 420 Q 534 420 537 422 Q 539 423 539 424 Q 539 425 540 427 Q 541 428 540 430 Q 539 432 538 435 Q 537 437 536 440 Q 529 452 504 464 C 478 478 474 480 470 461 L 468 450 Q 461 428 381 361 L 357 345 L 344 340 Q 330 334 320 329 Q 310 324 310 321 Q 303 306 328 279 Q 337 269 341 269 Q 345 269 361 276 Q 376 283 396 286 L 490 301 C 520 306 564 332 534 331 L 398 327 Q 388 326 384 327 Q 380 327 380 331 Z" fill="black"></path>
				<path d="M 490 301 L 327 200 Q 307 188 291 185 Q 275 182 271 180 Q 262 172 266 160 Q 270 148 277 139 Q 284 130 289 127 Q 298 118 303 118 Q 308 117 319 124 Q 331 130 349 134 L 494 166 L 541 174 L 702 204 C 731 209 714 232 684 228 L 350 188 L 628 328 Q 641 335 653 337 Q 666 338 669 343 Q 672 348 667 364 Q 662 379 642 396 Q 624 413 615 413 Q 604 413 601 406 Q 592 378 573 362 L 534 331 L 490 301 Z" fill="black"></path>
				<path d="M 702 204 L 726 176 Q 732 168 752.5 152.5 Q 773 137 781 141 Q 796 154 795 175 Q 794 242 716 271 Q 685 284 673 288 L 658 293 Q 650 295 647 289 Q 644 283 649 275 L 684 228 L 702 204 Z" fill="black"></path>
				<path d="M 494 166 L 501 143 Q 507 124 506 61 Q 504 -2 505 -24 Q 505 -46 495 -51 Q 484 -56 463 -48 Q 440 -41 438 -40 L 420 -36 Q 413 -35 412 -40 Q 411 -45 416 -48 L 426 -56 L 441 -66 Q 458 -77 492 -123 Q 499 -133 505 -135 Q 510 -136 522 -130 Q 558 -110 561 -19 L 561 22 Q 561 90 567 119 Q 573 147 568 156 Q 563 165 541 174 C 514 187 485 195 494 166 Z" fill="black"></path>
				<path d="M 207 -60 Q 202 -65 202 -72 Q 202 -78 210 -74 L 227 -70 Q 265 -56 315 -1 Q 334 19 336 22 Q 358 39 360 47 Q 362 56 347.5 69 Q 333 82 321 89 Q 307 97 300 95 Q 297 94 295 93 Q 293 92 292 89.5 Q 291 87 290.5 84.5 Q 290 82 289.5 76 Q 289 70 288 65 Q 284 43 261 7 Q 238 -29 217 -48 L 207 -60 Z" fill="black"></path>
				<path d="M 676 89 L 696 66 Q 720 38 749.5 -2.5 Q 779 -43 795.5 -57 Q 812 -71 827 -69 Q 842 -69 846 -36.5 Q 850 -4 841 8 Q 836 24 818 39 Q 773 82 691 106 L 673 113 Q 667 115 663 111.5 Q 659 108 665 101 L 676 89 Z" fill="red"></path>
</g>
		<text x="40" y="140" font-size="128" fill="#999999">11</text></g>
		<g id="id2:id1:id1" transform="matrix(1.0,0,0,1.0,1024,0.0)">			<g stroke="white" stroke-width="4" transform="scale(4, 4)"> <rect x="1" y="1" width="255" height="255" fill="white" stroke-width="0"/></g>
</g>
		<g id="id2:id2:id2" transform="matrix(1.0,0,0,1.0,2048,0.0)">			<g stroke="white" stroke-width="4" transform="scale(4, 4)"> <rect x="1" y="1" width="255" height="255" fill="white" stroke-width="0"/></g>
</g>
		<g id="id2:id3:id3" transform="matrix(1.0,0,0,1.0,3072,0.0)">			<g stroke="white" stroke-width="4" transform="scale(4, 4)"> <rect x="1" y="1" width="255" height="255" fill="white" stroke-width="0"/></g>
</g>
		<g id="id2:id4:id4" transform="matrix(1.0,0,0,1.0,4096,0.0)">			<g stroke="white" stroke-width="4" transform="scale(4, 4)"> <rect x="1" y="1" width="255" height="255" fill="white" stroke-width="0"/></g>
</g>
</g>
</svg>
