<?xml version="1.0" standalone="no"?>
<!DOCTYPE svg PUBLIC "-//W3C//DTD SVG 1.1//EN"
 "http://www.w3.org/Graphics/SVG/1.1/DTD/svg11.dtd">
<!-- generate by Japanese dictionary app com.asnsami.kanjidictionary -->

<svg xmlns="http://www.w3.org/2000/svg" xmlns:sodipodi="http://sodipodi.sourceforge.net/DTD/sodipodi-0.dtd" version="1.1" width="640" height="384" viewBox="0 0 5120 3072">
	<g id="id0:id0" transform="translate(0.0,0)">
		<g id="id0:id0:id0" transform="matrix(1.0,0,0,1.0,0,0.0)">			<g stroke="lightgray" stroke-width="4" transform="scale(4, 4)"> <rect x="0" y="0" width="256" height="256" fill="white" stroke-width="4"/></g>
			<g transform="scale(0.92, -0.92) translate(60, -920)">					<path d="M 284 407 L 218 404 Q 193 404 187 410 Q 184 413 196 428 L 227 471 Q 250 504 256 510 L 305 574 Q 307 578 310 581 L 324 593 Q 332 601 334 604 Q 336 607 335 614 Q 330 635 306 650 Q 282 669 274 668 Q 266 667 263 660 Q 260 653 260 639 Q 259 624 232 562 Q 223 533 203 504 Q 183 474 175 462 Q 167 449 155 436 Q 142 422 140 420 Q 138 418 128 413 Q 117 407 116 403 Q 114 399 118 390 L 127 367 Q 132 353 138 350 Q 146 342 157 349 Q 168 356 188 363 Q 208 369 210 369 L 268 381 C 297 387 314 408 284 407 Z" fill="red"></path>
				<path d="M 336 264 L 248 234 Q 221 224 218 227 Q 214 230 216 233 L 227 250 L 255 286 L 373 446 L 395 467 Q 408 481 405 490 Q 401 498 392 513 L 380 529 L 368 541 Q 351 552 342 543 Q 339 535 337 511 Q 335 487 304 438 L 284 407 L 268 381 L 237 334 Q 237 331 211 297 Q 184 262 180 257 Q 176 251 171 244 Q 165 237 159 233 Q 153 229 146 223 Q 138 216 138 212 Q 138 207 142 200 L 152 184 Q 152 180 162 170 Q 173 164 176 163 Q 179 162 198 174 Q 216 186 219 189 Q 222 192 228 194 L 246 202 L 348 243 C 376 254 364 274 336 264 Z" fill="lightgray"></path>
				<path d="M 348 243 L 356 230 Q 365 211 380 207 Q 401 205 407 237 Q 407 268 388 287 Q 379 296 360 308 Q 318 329 311 322 Q 309 319 318 300 L 328 283 Q 331 274 336 264 L 348 243 Z" fill="lightgray"></path>
				<path d="M 82 120 Q 74 122 72.5 117.5 Q 71 113 72 110 L 78 89 L 100 25 Q 101 24 103 19 L 110 3 Q 121 -29 140 -31 Q 148 -32 154 -29 Q 170 -16 172.5 11 Q 175 38 160.5 60 Q 146 82 136 88 L 97 114 L 82 120 Z" fill="lightgray"></path>
				<path d="M 210 118 Q 210 115 217 101 L 226 80 Q 253 26 274 26 Q 296 31 299 60 Q 303 110 228 135 L 212 140 Q 206 142 204 140 Q 202 134 205 130 L 210 118 Z" fill="lightgray"></path>
				<path d="M 316 167 L 316 166 L 318 164 Q 318 160 325 153 L 332 134 Q 334 128 343 114 Q 351 98 364 90 Q 377 82 390 93 Q 395 101 398 109 Q 401 136 393.5 146 Q 386 156 371 165.5 Q 356 175 349 177 L 332 182 L 318 187 Q 313 188 311 186 L 312 178 L 316 167 Z" fill="lightgray"></path>
				<path d="M 591 699 L 594 688 L 600 671 Q 606 654 620 627 Q 634 599 640 594 Q 646 589 655 583 C 680 566 688 561 697 587 L 702 601 Q 711 617 697 651 Q 687 667 677 676 Q 667 684 644 695 Q 621 705 606 707 Q 591 708 591 699 Z" fill="lightgray"></path>
				<path d="M 488 558 L 484 568 Q 483 570 479 580 Q 475 590 467 590 Q 459 590 458 570.5 Q 457 551 446 524 Q 435 497 432.5 493.5 Q 430 490 430 484 L 420 462 Q 418 451 421 436 Q 427 409 450 409 Q 465 413 474 440 L 484 468 Q 490 486 490.5 497.5 Q 491 509 495 523 L 488 558 Z" fill="lightgray"></path>
				<path d="M 655 583 L 600 572 L 545 564 Q 499 560 488 558 C 458 554 465 521 495 523 L 506 524 L 524 524 L 608 538 L 675 546 Q 684 546 712 550 L 822 564 Q 840 564 842 558 Q 843 551 841 537 L 817 474 Q 816 473 818 468 Q 824 466 828 470 L 839 478 L 856 492 L 943 537 Q 954 548 948 558 Q 946 568 925 580 L 893 598 L 867 608 Q 852 614 841 614 Q 829 614 803 607 Q 776 600 773 600 L 732 592 Q 712 591 697 587 L 655 583 Z" fill="lightgray"></path>
				<path d="M 564 415 L 552 422 L 537 427 Q 511 434 506 429 Q 499 426 506 413 L 514 396 Q 519 387 520 378 L 524 354 Q 526 332 526 312 L 526 249 Q 526 173 517 74 L 511 20 L 506 -16 Q 502 -28 502 -40 L 506 -56 Q 518 -85 528 -94 Q 538 -102 542 -100 Q 552 -94 553 -74 L 553 -62 L 558 -19 L 560 14 L 562 142 L 562 174 L 564 253 L 566 284 L 567 390 C 567 413 567 413 564 415 Z" fill="lightgray"></path>
				<path d="M 761 296 L 778 354 L 786 377 Q 788 383 800 402 Q 812 420 812 426 Q 812 432 807 436 Q 801 440 787 447 L 763 459 Q 748 464 740 462 Q 731 462 720 456 L 697 444 L 645 428 Q 631 423 611 423 Q 590 422 564 415 C 535 408 537 388 567 390 L 581 391 L 608 394 Q 609 394 616 396 L 711 415 Q 734 420 734 404 Q 735 398 734 391 L 721 306 C 716 276 753 267 761 296 Z" fill="lightgray"></path>
				<path d="M 612 256 L 650 260 L 711 268 L 764 272 Q 769 273 771 278 Q 772 283 770 286 Q 767 288 765 292 L 761 296 C 749 310 749 310 721 306 L 690 302 L 631 292 L 602 288 Q 574 288 566 284 C 537 275 534 252 564 253 L 585 254 L 612 256 Z" fill="lightgray"></path>
				<path d="M 812 22 L 839 116 Q 844 138 857 155 Q 869 171 868 180 Q 866 189 855 196 L 807 218 Q 795 221 788 220 Q 781 219 755 209 Q 729 198 682 188 L 656 184 Q 629 180 609 176 L 595 175 Q 590 174 562 174 C 532 174 532 143 562 142 L 587 141 Q 599 138 639 146 Q 679 154 681 154 L 728 162 Q 737 164 754 165 Q 770 166 773 163 Q 776 160 778 153 L 777 150 L 776 123 L 764 33 C 760 3 804 -7 812 22 Z" fill="lightgray"></path>
				<path d="M 558 -19 L 594 -18 Q 624 -18 667 -14 L 757 -6 Q 784 -3 806 -4 Q 828 -5 830 2 Q 832 8 825 12 Q 819 18 812 22 C 794 34 794 34 764 33 L 733 32 Q 731 32 728 31 L 713 29 Q 704 29 673 25 L 560 14 C 530 11 528 -20 558 -19 Z" fill="lightgray"></path>
</g>
		<text x="40" y="140" font-size="128" fill="#999999">1</text></g>
		<g id="id0:id1:id1" transform="matrix(1.0,0,0,1.0,1024,0.0)">			<g stroke="lightgray" stroke-width="4" transform="scale(4, 4)"> <rect x="0" y="0" width="256" height="256" fill="white" stroke-width="4"/></g>
			<g transform="scale(0.92, -0.92) translate(60, -920)">					<path d="M 284 407 L 218 404 Q 193 404 187 410 Q 184 413 196 428 L 227 471 Q 250 504 256 510 L 305 574 Q 307 578 310 581 L 324 593 Q 332 601 334 604 Q 336 607 335 614 Q 330 635 306 650 Q 282 669 274 668 Q 266 667 263 660 Q 260 653 260 639 Q 259 624 232 562 Q 223 533 203 504 Q 183 474 175 462 Q 167 449 155 436 Q 142 422 140 420 Q 138 418 128 413 Q 117 407 116 403 Q 114 399 118 390 L 127 367 Q 132 353 138 350 Q 146 342 157 349 Q 168 356 188 363 Q 208 369 210 369 L 268 381 C 297 387 314 408 284 407 Z" fill="black"></path>
				<path d="M 336 264 L 248 234 Q 221 224 218 227 Q 214 230 216 233 L 227 250 L 255 286 L 373 446 L 395 467 Q 408 481 405 490 Q 401 498 392 513 L 380 529 L 368 541 Q 351 552 342 543 Q 339 535 337 511 Q 335 487 304 438 L 284 407 L 268 381 L 237 334 Q 237 331 211 297 Q 184 262 180 257 Q 176 251 171 244 Q 165 237 159 233 Q 153 229 146 223 Q 138 216 138 212 Q 138 207 142 200 L 152 184 Q 152 180 162 170 Q 173 164 176 163 Q 179 162 198 174 Q 216 186 219 189 Q 222 192 228 194 L 246 202 L 348 243 C 376 254 364 274 336 264 Z" fill="red"></path>
				<path d="M 348 243 L 356 230 Q 365 211 380 207 Q 401 205 407 237 Q 407 268 388 287 Q 379 296 360 308 Q 318 329 311 322 Q 309 319 318 300 L 328 283 Q 331 274 336 264 L 348 243 Z" fill="lightgray"></path>
				<path d="M 82 120 Q 74 122 72.5 117.5 Q 71 113 72 110 L 78 89 L 100 25 Q 101 24 103 19 L 110 3 Q 121 -29 140 -31 Q 148 -32 154 -29 Q 170 -16 172.5 11 Q 175 38 160.5 60 Q 146 82 136 88 L 97 114 L 82 120 Z" fill="lightgray"></path>
				<path d="M 210 118 Q 210 115 217 101 L 226 80 Q 253 26 274 26 Q 296 31 299 60 Q 303 110 228 135 L 212 140 Q 206 142 204 140 Q 202 134 205 130 L 210 118 Z" fill="lightgray"></path>
				<path d="M 316 167 L 316 166 L 318 164 Q 318 160 325 153 L 332 134 Q 334 128 343 114 Q 351 98 364 90 Q 377 82 390 93 Q 395 101 398 109 Q 401 136 393.5 146 Q 386 156 371 165.5 Q 356 175 349 177 L 332 182 L 318 187 Q 313 188 311 186 L 312 178 L 316 167 Z" fill="lightgray"></path>
				<path d="M 591 699 L 594 688 L 600 671 Q 606 654 620 627 Q 634 599 640 594 Q 646 589 655 583 C 680 566 688 561 697 587 L 702 601 Q 711 617 697 651 Q 687 667 677 676 Q 667 684 644 695 Q 621 705 606 707 Q 591 708 591 699 Z" fill="lightgray"></path>
				<path d="M 488 558 L 484 568 Q 483 570 479 580 Q 475 590 467 590 Q 459 590 458 570.5 Q 457 551 446 524 Q 435 497 432.5 493.5 Q 430 490 430 484 L 420 462 Q 418 451 421 436 Q 427 409 450 409 Q 465 413 474 440 L 484 468 Q 490 486 490.5 497.5 Q 491 509 495 523 L 488 558 Z" fill="lightgray"></path>
				<path d="M 655 583 L 600 572 L 545 564 Q 499 560 488 558 C 458 554 465 521 495 523 L 506 524 L 524 524 L 608 538 L 675 546 Q 684 546 712 550 L 822 564 Q 840 564 842 558 Q 843 551 841 537 L 817 474 Q 816 473 818 468 Q 824 466 828 470 L 839 478 L 856 492 L 943 537 Q 954 548 948 558 Q 946 568 925 580 L 893 598 L 867 608 Q 852 614 841 614 Q 829 614 803 607 Q 776 600 773 600 L 732 592 Q 712 591 697 587 L 655 583 Z" fill="lightgray"></path>
				<path d="M 564 415 L 552 422 L 537 427 Q 511 434 506 429 Q 499 426 506 413 L 514 396 Q 519 387 520 378 L 524 354 Q 526 332 526 312 L 526 249 Q 526 173 517 74 L 511 20 L 506 -16 Q 502 -28 502 -40 L 506 -56 Q 518 -85 528 -94 Q 538 -102 542 -100 Q 552 -94 553 -74 L 553 -62 L 558 -19 L 560 14 L 562 142 L 562 174 L 564 253 L 566 284 L 567 390 C 567 413 567 413 564 415 Z" fill="lightgray"></path>
				<path d="M 761 296 L 778 354 L 786 377 Q 788 383 800 402 Q 812 420 812 426 Q 812 432 807 436 Q 801 440 787 447 L 763 459 Q 748 464 740 462 Q 731 462 720 456 L 697 444 L 645 428 Q 631 423 611 423 Q 590 422 564 415 C 535 408 537 388 567 390 L 581 391 L 608 394 Q 609 394 616 396 L 711 415 Q 734 420 734 404 Q 735 398 734 391 L 721 306 C 716 276 753 267 761 296 Z" fill="lightgray"></path>
				<path d="M 612 256 L 650 260 L 711 268 L 764 272 Q 769 273 771 278 Q 772 283 770 286 Q 767 288 765 292 L 761 296 C 749 310 749 310 721 306 L 690 302 L 631 292 L 602 288 Q 574 288 566 284 C 537 275 534 252 564 253 L 585 254 L 612 256 Z" fill="lightgray"></path>
				<path d="M 812 22 L 839 116 Q 844 138 857 155 Q 869 171 868 180 Q 866 189 855 196 L 807 218 Q 795 221 788 220 Q 781 219 755 209 Q 729 198 682 188 L 656 184 Q 629 180 609 176 L 595 175 Q 590 174 562 174 C 532 174 532 143 562 142 L 587 141 Q 599 138 639 146 Q 679 154 681 154 L 728 162 Q 737 164 754 165 Q 770 166 773 163 Q 776 160 778 153 L 777 150 L 776 123 L 764 33 C 760 3 804 -7 812 22 Z" fill="lightgray"></path>
				<path d="M 558 -19 L 594 -18 Q 624 -18 667 -14 L 757 -6 Q 784 -3 806 -4 Q 828 -5 830 2 Q 832 8 825 12 Q 819 18 812 22 C 794 34 794 34 764 33 L 733 32 Q 731 32 728 31 L 713 29 Q 704 29 673 25 L 560 14 C 530 11 528 -20 558 -19 Z" fill="lightgray"></path>
</g>
		<text x="40" y="140" font-size="128" fill="#999999">2</text></g>
		<g id="id0:id2:id2" transform="matrix(1.0,0,0,1.0,2048,0.0)">			<g stroke="lightgray" stroke-width="4" transform="scale(4, 4)"> <rect x="0" y="0" width="256" height="256" fill="white" stroke-width="4"/></g>
			<g transform="scale(0.92, -0.92) translate(60, -920)">					<path d="M 284 407 L 218 404 Q 193 404 187 410 Q 184 413 196 428 L 227 471 Q 250 504 256 510 L 305 574 Q 307 578 310 581 L 324 593 Q 332 601 334 604 Q 336 607 335 614 Q 330 635 306 650 Q 282 669 274 668 Q 266 667 263 660 Q 260 653 260 639 Q 259 624 232 562 Q 223 533 203 504 Q 183 474 175 462 Q 167 449 155 436 Q 142 422 140 420 Q 138 418 128 413 Q 117 407 116 403 Q 114 399 118 390 L 127 367 Q 132 353 138 350 Q 146 342 157 349 Q 168 356 188 363 Q 208 369 210 369 L 268 381 C 297 387 314 408 284 407 Z" fill="black"></path>
				<path d="M 336 264 L 248 234 Q 221 224 218 227 Q 214 230 216 233 L 227 250 L 255 286 L 373 446 L 395 467 Q 408 481 405 490 Q 401 498 392 513 L 380 529 L 368 541 Q 351 552 342 543 Q 339 535 337 511 Q 335 487 304 438 L 284 407 L 268 381 L 237 334 Q 237 331 211 297 Q 184 262 180 257 Q 176 251 171 244 Q 165 237 159 233 Q 153 229 146 223 Q 138 216 138 212 Q 138 207 142 200 L 152 184 Q 152 180 162 170 Q 173 164 176 163 Q 179 162 198 174 Q 216 186 219 189 Q 222 192 228 194 L 246 202 L 348 243 C 376 254 364 274 336 264 Z" fill="black"></path>
				<path d="M 348 243 L 356 230 Q 365 211 380 207 Q 401 205 407 237 Q 407 268 388 287 Q 379 296 360 308 Q 318 329 311 322 Q 309 319 318 300 L 328 283 Q 331 274 336 264 L 348 243 Z" fill="red"></path>
				<path d="M 82 120 Q 74 122 72.5 117.5 Q 71 113 72 110 L 78 89 L 100 25 Q 101 24 103 19 L 110 3 Q 121 -29 140 -31 Q 148 -32 154 -29 Q 170 -16 172.5 11 Q 175 38 160.5 60 Q 146 82 136 88 L 97 114 L 82 120 Z" fill="lightgray"></path>
				<path d="M 210 118 Q 210 115 217 101 L 226 80 Q 253 26 274 26 Q 296 31 299 60 Q 303 110 228 135 L 212 140 Q 206 142 204 140 Q 202 134 205 130 L 210 118 Z" fill="lightgray"></path>
				<path d="M 316 167 L 316 166 L 318 164 Q 318 160 325 153 L 332 134 Q 334 128 343 114 Q 351 98 364 90 Q 377 82 390 93 Q 395 101 398 109 Q 401 136 393.5 146 Q 386 156 371 165.5 Q 356 175 349 177 L 332 182 L 318 187 Q 313 188 311 186 L 312 178 L 316 167 Z" fill="lightgray"></path>
				<path d="M 591 699 L 594 688 L 600 671 Q 606 654 620 627 Q 634 599 640 594 Q 646 589 655 583 C 680 566 688 561 697 587 L 702 601 Q 711 617 697 651 Q 687 667 677 676 Q 667 684 644 695 Q 621 705 606 707 Q 591 708 591 699 Z" fill="lightgray"></path>
				<path d="M 488 558 L 484 568 Q 483 570 479 580 Q 475 590 467 590 Q 459 590 458 570.5 Q 457 551 446 524 Q 435 497 432.5 493.5 Q 430 490 430 484 L 420 462 Q 418 451 421 436 Q 427 409 450 409 Q 465 413 474 440 L 484 468 Q 490 486 490.5 497.5 Q 491 509 495 523 L 488 558 Z" fill="lightgray"></path>
				<path d="M 655 583 L 600 572 L 545 564 Q 499 560 488 558 C 458 554 465 521 495 523 L 506 524 L 524 524 L 608 538 L 675 546 Q 684 546 712 550 L 822 564 Q 840 564 842 558 Q 843 551 841 537 L 817 474 Q 816 473 818 468 Q 824 466 828 470 L 839 478 L 856 492 L 943 537 Q 954 548 948 558 Q 946 568 925 580 L 893 598 L 867 608 Q 852 614 841 614 Q 829 614 803 607 Q 776 600 773 600 L 732 592 Q 712 591 697 587 L 655 583 Z" fill="lightgray"></path>
				<path d="M 564 415 L 552 422 L 537 427 Q 511 434 506 429 Q 499 426 506 413 L 514 396 Q 519 387 520 378 L 524 354 Q 526 332 526 312 L 526 249 Q 526 173 517 74 L 511 20 L 506 -16 Q 502 -28 502 -40 L 506 -56 Q 518 -85 528 -94 Q 538 -102 542 -100 Q 552 -94 553 -74 L 553 -62 L 558 -19 L 560 14 L 562 142 L 562 174 L 564 253 L 566 284 L 567 390 C 567 413 567 413 564 415 Z" fill="lightgray"></path>
				<path d="M 761 296 L 778 354 L 786 377 Q 788 383 800 402 Q 812 420 812 426 Q 812 432 807 436 Q 801 440 787 447 L 763 459 Q 748 464 740 462 Q 731 462 720 456 L 697 444 L 645 428 Q 631 423 611 423 Q 590 422 564 415 C 535 408 537 388 567 390 L 581 391 L 608 394 Q 609 394 616 396 L 711 415 Q 734 420 734 404 Q 735 398 734 391 L 721 306 C 716 276 753 267 761 296 Z" fill="lightgray"></path>
				<path d="M 612 256 L 650 260 L 711 268 L 764 272 Q 769 273 771 278 Q 772 283 770 286 Q 767 288 765 292 L 761 296 C 749 310 749 310 721 306 L 690 302 L 631 292 L 602 288 Q 574 288 566 284 C 537 275 534 252 564 253 L 585 254 L 612 256 Z" fill="lightgray"></path>
				<path d="M 812 22 L 839 116 Q 844 138 857 155 Q 869 171 868 180 Q 866 189 855 196 L 807 218 Q 795 221 788 220 Q 781 219 755 209 Q 729 198 682 188 L 656 184 Q 629 180 609 176 L 595 175 Q 590 174 562 174 C 532 174 532 143 562 142 L 587 141 Q 599 138 639 146 Q 679 154 681 154 L 728 162 Q 737 164 754 165 Q 770 166 773 163 Q 776 160 778 153 L 777 150 L 776 123 L 764 33 C 760 3 804 -7 812 22 Z" fill="lightgray"></path>
				<path d="M 558 -19 L 594 -18 Q 624 -18 667 -14 L 757 -6 Q 784 -3 806 -4 Q 828 -5 830 2 Q 832 8 825 12 Q 819 18 812 22 C 794 34 794 34 764 33 L 733 32 Q 731 32 728 31 L 713 29 Q 704 29 673 25 L 560 14 C 530 11 528 -20 558 -19 Z" fill="lightgray"></path>
</g>
		<text x="40" y="140" font-size="128" fill="#999999">3</text></g>
		<g id="id0:id3:id3" transform="matrix(1.0,0,0,1.0,3072,0.0)">			<g stroke="lightgray" stroke-width="4" transform="scale(4, 4)"> <rect x="0" y="0" width="256" height="256" fill="white" stroke-width="4"/></g>
			<g transform="scale(0.92, -0.92) translate(60, -920)">					<path d="M 284 407 L 218 404 Q 193 404 187 410 Q 184 413 196 428 L 227 471 Q 250 504 256 510 L 305 574 Q 307 578 310 581 L 324 593 Q 332 601 334 604 Q 336 607 335 614 Q 330 635 306 650 Q 282 669 274 668 Q 266 667 263 660 Q 260 653 260 639 Q 259 624 232 562 Q 223 533 203 504 Q 183 474 175 462 Q 167 449 155 436 Q 142 422 140 420 Q 138 418 128 413 Q 117 407 116 403 Q 114 399 118 390 L 127 367 Q 132 353 138 350 Q 146 342 157 349 Q 168 356 188 363 Q 208 369 210 369 L 268 381 C 297 387 314 408 284 407 Z" fill="black"></path>
				<path d="M 336 264 L 248 234 Q 221 224 218 227 Q 214 230 216 233 L 227 250 L 255 286 L 373 446 L 395 467 Q 408 481 405 490 Q 401 498 392 513 L 380 529 L 368 541 Q 351 552 342 543 Q 339 535 337 511 Q 335 487 304 438 L 284 407 L 268 381 L 237 334 Q 237 331 211 297 Q 184 262 180 257 Q 176 251 171 244 Q 165 237 159 233 Q 153 229 146 223 Q 138 216 138 212 Q 138 207 142 200 L 152 184 Q 152 180 162 170 Q 173 164 176 163 Q 179 162 198 174 Q 216 186 219 189 Q 222 192 228 194 L 246 202 L 348 243 C 376 254 364 274 336 264 Z" fill="black"></path>
				<path d="M 348 243 L 356 230 Q 365 211 380 207 Q 401 205 407 237 Q 407 268 388 287 Q 379 296 360 308 Q 318 329 311 322 Q 309 319 318 300 L 328 283 Q 331 274 336 264 L 348 243 Z" fill="black"></path>
				<path d="M 82 120 Q 74 122 72.5 117.5 Q 71 113 72 110 L 78 89 L 100 25 Q 101 24 103 19 L 110 3 Q 121 -29 140 -31 Q 148 -32 154 -29 Q 170 -16 172.5 11 Q 175 38 160.5 60 Q 146 82 136 88 L 97 114 L 82 120 Z" fill="red"></path>
				<path d="M 210 118 Q 210 115 217 101 L 226 80 Q 253 26 274 26 Q 296 31 299 60 Q 303 110 228 135 L 212 140 Q 206 142 204 140 Q 202 134 205 130 L 210 118 Z" fill="lightgray"></path>
				<path d="M 316 167 L 316 166 L 318 164 Q 318 160 325 153 L 332 134 Q 334 128 343 114 Q 351 98 364 90 Q 377 82 390 93 Q 395 101 398 109 Q 401 136 393.5 146 Q 386 156 371 165.5 Q 356 175 349 177 L 332 182 L 318 187 Q 313 188 311 186 L 312 178 L 316 167 Z" fill="lightgray"></path>
				<path d="M 591 699 L 594 688 L 600 671 Q 606 654 620 627 Q 634 599 640 594 Q 646 589 655 583 C 680 566 688 561 697 587 L 702 601 Q 711 617 697 651 Q 687 667 677 676 Q 667 684 644 695 Q 621 705 606 707 Q 591 708 591 699 Z" fill="lightgray"></path>
				<path d="M 488 558 L 484 568 Q 483 570 479 580 Q 475 590 467 590 Q 459 590 458 570.5 Q 457 551 446 524 Q 435 497 432.5 493.5 Q 430 490 430 484 L 420 462 Q 418 451 421 436 Q 427 409 450 409 Q 465 413 474 440 L 484 468 Q 490 486 490.5 497.5 Q 491 509 495 523 L 488 558 Z" fill="lightgray"></path>
				<path d="M 655 583 L 600 572 L 545 564 Q 499 560 488 558 C 458 554 465 521 495 523 L 506 524 L 524 524 L 608 538 L 675 546 Q 684 546 712 550 L 822 564 Q 840 564 842 558 Q 843 551 841 537 L 817 474 Q 816 473 818 468 Q 824 466 828 470 L 839 478 L 856 492 L 943 537 Q 954 548 948 558 Q 946 568 925 580 L 893 598 L 867 608 Q 852 614 841 614 Q 829 614 803 607 Q 776 600 773 600 L 732 592 Q 712 591 697 587 L 655 583 Z" fill="lightgray"></path>
				<path d="M 564 415 L 552 422 L 537 427 Q 511 434 506 429 Q 499 426 506 413 L 514 396 Q 519 387 520 378 L 524 354 Q 526 332 526 312 L 526 249 Q 526 173 517 74 L 511 20 L 506 -16 Q 502 -28 502 -40 L 506 -56 Q 518 -85 528 -94 Q 538 -102 542 -100 Q 552 -94 553 -74 L 553 -62 L 558 -19 L 560 14 L 562 142 L 562 174 L 564 253 L 566 284 L 567 390 C 567 413 567 413 564 415 Z" fill="lightgray"></path>
				<path d="M 761 296 L 778 354 L 786 377 Q 788 383 800 402 Q 812 420 812 426 Q 812 432 807 436 Q 801 440 787 447 L 763 459 Q 748 464 740 462 Q 731 462 720 456 L 697 444 L 645 428 Q 631 423 611 423 Q 590 422 564 415 C 535 408 537 388 567 390 L 581 391 L 608 394 Q 609 394 616 396 L 711 415 Q 734 420 734 404 Q 735 398 734 391 L 721 306 C 716 276 753 267 761 296 Z" fill="lightgray"></path>
				<path d="M 612 256 L 650 260 L 711 268 L 764 272 Q 769 273 771 278 Q 772 283 770 286 Q 767 288 765 292 L 761 296 C 749 310 749 310 721 306 L 690 302 L 631 292 L 602 288 Q 574 288 566 284 C 537 275 534 252 564 253 L 585 254 L 612 256 Z" fill="lightgray"></path>
				<path d="M 812 22 L 839 116 Q 844 138 857 155 Q 869 171 868 180 Q 866 189 855 196 L 807 218 Q 795 221 788 220 Q 781 219 755 209 Q 729 198 682 188 L 656 184 Q 629 180 609 176 L 595 175 Q 590 174 562 174 C 532 174 532 143 562 142 L 587 141 Q 599 138 639 146 Q 679 154 681 154 L 728 162 Q 737 164 754 165 Q 770 166 773 163 Q 776 160 778 153 L 777 150 L 776 123 L 764 33 C 760 3 804 -7 812 22 Z" fill="lightgray"></path>
				<path d="M 558 -19 L 594 -18 Q 624 -18 667 -14 L 757 -6 Q 784 -3 806 -4 Q 828 -5 830 2 Q 832 8 825 12 Q 819 18 812 22 C 794 34 794 34 764 33 L 733 32 Q 731 32 728 31 L 713 29 Q 704 29 673 25 L 560 14 C 530 11 528 -20 558 -19 Z" fill="lightgray"></path>
</g>
		<text x="40" y="140" font-size="128" fill="#999999">4</text></g>
		<g id="id0:id4:id4" transform="matrix(1.0,0,0,1.0,4096,0.0)">			<g stroke="lightgray" stroke-width="4" transform="scale(4, 4)"> <rect x="0" y="0" width="256" height="256" fill="white" stroke-width="4"/></g>
			<g transform="scale(0.92, -0.92) translate(60, -920)">					<path d="M 284 407 L 218 404 Q 193 404 187 410 Q 184 413 196 428 L 227 471 Q 250 504 256 510 L 305 574 Q 307 578 310 581 L 324 593 Q 332 601 334 604 Q 336 607 335 614 Q 330 635 306 650 Q 282 669 274 668 Q 266 667 263 660 Q 260 653 260 639 Q 259 624 232 562 Q 223 533 203 504 Q 183 474 175 462 Q 167 449 155 436 Q 142 422 140 420 Q 138 418 128 413 Q 117 407 116 403 Q 114 399 118 390 L 127 367 Q 132 353 138 350 Q 146 342 157 349 Q 168 356 188 363 Q 208 369 210 369 L 268 381 C 297 387 314 408 284 407 Z" fill="black"></path>
				<path d="M 336 264 L 248 234 Q 221 224 218 227 Q 214 230 216 233 L 227 250 L 255 286 L 373 446 L 395 467 Q 408 481 405 490 Q 401 498 392 513 L 380 529 L 368 541 Q 351 552 342 543 Q 339 535 337 511 Q 335 487 304 438 L 284 407 L 268 381 L 237 334 Q 237 331 211 297 Q 184 262 180 257 Q 176 251 171 244 Q 165 237 159 233 Q 153 229 146 223 Q 138 216 138 212 Q 138 207 142 200 L 152 184 Q 152 180 162 170 Q 173 164 176 163 Q 179 162 198 174 Q 216 186 219 189 Q 222 192 228 194 L 246 202 L 348 243 C 376 254 364 274 336 264 Z" fill="black"></path>
				<path d="M 348 243 L 356 230 Q 365 211 380 207 Q 401 205 407 237 Q 407 268 388 287 Q 379 296 360 308 Q 318 329 311 322 Q 309 319 318 300 L 328 283 Q 331 274 336 264 L 348 243 Z" fill="black"></path>
				<path d="M 82 120 Q 74 122 72.5 117.5 Q 71 113 72 110 L 78 89 L 100 25 Q 101 24 103 19 L 110 3 Q 121 -29 140 -31 Q 148 -32 154 -29 Q 170 -16 172.5 11 Q 175 38 160.5 60 Q 146 82 136 88 L 97 114 L 82 120 Z" fill="black"></path>
				<path d="M 210 118 Q 210 115 217 101 L 226 80 Q 253 26 274 26 Q 296 31 299 60 Q 303 110 228 135 L 212 140 Q 206 142 204 140 Q 202 134 205 130 L 210 118 Z" fill="red"></path>
				<path d="M 316 167 L 316 166 L 318 164 Q 318 160 325 153 L 332 134 Q 334 128 343 114 Q 351 98 364 90 Q 377 82 390 93 Q 395 101 398 109 Q 401 136 393.5 146 Q 386 156 371 165.5 Q 356 175 349 177 L 332 182 L 318 187 Q 313 188 311 186 L 312 178 L 316 167 Z" fill="lightgray"></path>
				<path d="M 591 699 L 594 688 L 600 671 Q 606 654 620 627 Q 634 599 640 594 Q 646 589 655 583 C 680 566 688 561 697 587 L 702 601 Q 711 617 697 651 Q 687 667 677 676 Q 667 684 644 695 Q 621 705 606 707 Q 591 708 591 699 Z" fill="lightgray"></path>
				<path d="M 488 558 L 484 568 Q 483 570 479 580 Q 475 590 467 590 Q 459 590 458 570.5 Q 457 551 446 524 Q 435 497 432.5 493.5 Q 430 490 430 484 L 420 462 Q 418 451 421 436 Q 427 409 450 409 Q 465 413 474 440 L 484 468 Q 490 486 490.5 497.5 Q 491 509 495 523 L 488 558 Z" fill="lightgray"></path>
				<path d="M 655 583 L 600 572 L 545 564 Q 499 560 488 558 C 458 554 465 521 495 523 L 506 524 L 524 524 L 608 538 L 675 546 Q 684 546 712 550 L 822 564 Q 840 564 842 558 Q 843 551 841 537 L 817 474 Q 816 473 818 468 Q 824 466 828 470 L 839 478 L 856 492 L 943 537 Q 954 548 948 558 Q 946 568 925 580 L 893 598 L 867 608 Q 852 614 841 614 Q 829 614 803 607 Q 776 600 773 600 L 732 592 Q 712 591 697 587 L 655 583 Z" fill="lightgray"></path>
				<path d="M 564 415 L 552 422 L 537 427 Q 511 434 506 429 Q 499 426 506 413 L 514 396 Q 519 387 520 378 L 524 354 Q 526 332 526 312 L 526 249 Q 526 173 517 74 L 511 20 L 506 -16 Q 502 -28 502 -40 L 506 -56 Q 518 -85 528 -94 Q 538 -102 542 -100 Q 552 -94 553 -74 L 553 -62 L 558 -19 L 560 14 L 562 142 L 562 174 L 564 253 L 566 284 L 567 390 C 567 413 567 413 564 415 Z" fill="lightgray"></path>
				<path d="M 761 296 L 778 354 L 786 377 Q 788 383 800 402 Q 812 420 812 426 Q 812 432 807 436 Q 801 440 787 447 L 763 459 Q 748 464 740 462 Q 731 462 720 456 L 697 444 L 645 428 Q 631 423 611 423 Q 590 422 564 415 C 535 408 537 388 567 390 L 581 391 L 608 394 Q 609 394 616 396 L 711 415 Q 734 420 734 404 Q 735 398 734 391 L 721 306 C 716 276 753 267 761 296 Z" fill="lightgray"></path>
				<path d="M 612 256 L 650 260 L 711 268 L 764 272 Q 769 273 771 278 Q 772 283 770 286 Q 767 288 765 292 L 761 296 C 749 310 749 310 721 306 L 690 302 L 631 292 L 602 288 Q 574 288 566 284 C 537 275 534 252 564 253 L 585 254 L 612 256 Z" fill="lightgray"></path>
				<path d="M 812 22 L 839 116 Q 844 138 857 155 Q 869 171 868 180 Q 866 189 855 196 L 807 218 Q 795 221 788 220 Q 781 219 755 209 Q 729 198 682 188 L 656 184 Q 629 180 609 176 L 595 175 Q 590 174 562 174 C 532 174 532 143 562 142 L 587 141 Q 599 138 639 146 Q 679 154 681 154 L 728 162 Q 737 164 754 165 Q 770 166 773 163 Q 776 160 778 153 L 777 150 L 776 123 L 764 33 C 760 3 804 -7 812 22 Z" fill="lightgray"></path>
				<path d="M 558 -19 L 594 -18 Q 624 -18 667 -14 L 757 -6 Q 784 -3 806 -4 Q 828 -5 830 2 Q 832 8 825 12 Q 819 18 812 22 C 794 34 794 34 764 33 L 733 32 Q 731 32 728 31 L 713 29 Q 704 29 673 25 L 560 14 C 530 11 528 -20 558 -19 Z" fill="lightgray"></path>
</g>
		<text x="40" y="140" font-size="128" fill="#999999">5</text></g>
</g>
	<g id="id1:id1" transform="translate(0.0,1024)">
		<g id="id1:id0:id0" transform="matrix(1.0,0,0,1.0,0,0.0)">			<g stroke="lightgray" stroke-width="4" transform="scale(4, 4)"> <rect x="0" y="0" width="256" height="256" fill="white" stroke-width="4"/></g>
			<g transform="scale(0.92, -0.92) translate(60, -920)">					<path d="M 284 407 L 218 404 Q 193 404 187 410 Q 184 413 196 428 L 227 471 Q 250 504 256 510 L 305 574 Q 307 578 310 581 L 324 593 Q 332 601 334 604 Q 336 607 335 614 Q 330 635 306 650 Q 282 669 274 668 Q 266 667 263 660 Q 260 653 260 639 Q 259 624 232 562 Q 223 533 203 504 Q 183 474 175 462 Q 167 449 155 436 Q 142 422 140 420 Q 138 418 128 413 Q 117 407 116 403 Q 114 399 118 390 L 127 367 Q 132 353 138 350 Q 146 342 157 349 Q 168 356 188 363 Q 208 369 210 369 L 268 381 C 297 387 314 408 284 407 Z" fill="black"></path>
				<path d="M 336 264 L 248 234 Q 221 224 218 227 Q 214 230 216 233 L 227 250 L 255 286 L 373 446 L 395 467 Q 408 481 405 490 Q 401 498 392 513 L 380 529 L 368 541 Q 351 552 342 543 Q 339 535 337 511 Q 335 487 304 438 L 284 407 L 268 381 L 237 334 Q 237 331 211 297 Q 184 262 180 257 Q 176 251 171 244 Q 165 237 159 233 Q 153 229 146 223 Q 138 216 138 212 Q 138 207 142 200 L 152 184 Q 152 180 162 170 Q 173 164 176 163 Q 179 162 198 174 Q 216 186 219 189 Q 222 192 228 194 L 246 202 L 348 243 C 376 254 364 274 336 264 Z" fill="black"></path>
				<path d="M 348 243 L 356 230 Q 365 211 380 207 Q 401 205 407 237 Q 407 268 388 287 Q 379 296 360 308 Q 318 329 311 322 Q 309 319 318 300 L 328 283 Q 331 274 336 264 L 348 243 Z" fill="black"></path>
				<path d="M 82 120 Q 74 122 72.5 117.5 Q 71 113 72 110 L 78 89 L 100 25 Q 101 24 103 19 L 110 3 Q 121 -29 140 -31 Q 148 -32 154 -29 Q 170 -16 172.5 11 Q 175 38 160.5 60 Q 146 82 136 88 L 97 114 L 82 120 Z" fill="black"></path>
				<path d="M 210 118 Q 210 115 217 101 L 226 80 Q 253 26 274 26 Q 296 31 299 60 Q 303 110 228 135 L 212 140 Q 206 142 204 140 Q 202 134 205 130 L 210 118 Z" fill="black"></path>
				<path d="M 316 167 L 316 166 L 318 164 Q 318 160 325 153 L 332 134 Q 334 128 343 114 Q 351 98 364 90 Q 377 82 390 93 Q 395 101 398 109 Q 401 136 393.5 146 Q 386 156 371 165.5 Q 356 175 349 177 L 332 182 L 318 187 Q 313 188 311 186 L 312 178 L 316 167 Z" fill="red"></path>
				<path d="M 591 699 L 594 688 L 600 671 Q 606 654 620 627 Q 634 599 640 594 Q 646 589 655 583 C 680 566 688 561 697 587 L 702 601 Q 711 617 697 651 Q 687 667 677 676 Q 667 684 644 695 Q 621 705 606 707 Q 591 708 591 699 Z" fill="lightgray"></path>
				<path d="M 488 558 L 484 568 Q 483 570 479 580 Q 475 590 467 590 Q 459 590 458 570.5 Q 457 551 446 524 Q 435 497 432.5 493.5 Q 430 490 430 484 L 420 462 Q 418 451 421 436 Q 427 409 450 409 Q 465 413 474 440 L 484 468 Q 490 486 490.5 497.5 Q 491 509 495 523 L 488 558 Z" fill="lightgray"></path>
				<path d="M 655 583 L 600 572 L 545 564 Q 499 560 488 558 C 458 554 465 521 495 523 L 506 524 L 524 524 L 608 538 L 675 546 Q 684 546 712 550 L 822 564 Q 840 564 842 558 Q 843 551 841 537 L 817 474 Q 816 473 818 468 Q 824 466 828 470 L 839 478 L 856 492 L 943 537 Q 954 548 948 558 Q 946 568 925 580 L 893 598 L 867 608 Q 852 614 841 614 Q 829 614 803 607 Q 776 600 773 600 L 732 592 Q 712 591 697 587 L 655 583 Z" fill="lightgray"></path>
				<path d="M 564 415 L 552 422 L 537 427 Q 511 434 506 429 Q 499 426 506 413 L 514 396 Q 519 387 520 378 L 524 354 Q 526 332 526 312 L 526 249 Q 526 173 517 74 L 511 20 L 506 -16 Q 502 -28 502 -40 L 506 -56 Q 518 -85 528 -94 Q 538 -102 542 -100 Q 552 -94 553 -74 L 553 -62 L 558 -19 L 560 14 L 562 142 L 562 174 L 564 253 L 566 284 L 567 390 C 567 413 567 413 564 415 Z" fill="lightgray"></path>
				<path d="M 761 296 L 778 354 L 786 377 Q 788 383 800 402 Q 812 420 812 426 Q 812 432 807 436 Q 801 440 787 447 L 763 459 Q 748 464 740 462 Q 731 462 720 456 L 697 444 L 645 428 Q 631 423 611 423 Q 590 422 564 415 C 535 408 537 388 567 390 L 581 391 L 608 394 Q 609 394 616 396 L 711 415 Q 734 420 734 404 Q 735 398 734 391 L 721 306 C 716 276 753 267 761 296 Z" fill="lightgray"></path>
				<path d="M 612 256 L 650 260 L 711 268 L 764 272 Q 769 273 771 278 Q 772 283 770 286 Q 767 288 765 292 L 761 296 C 749 310 749 310 721 306 L 690 302 L 631 292 L 602 288 Q 574 288 566 284 C 537 275 534 252 564 253 L 585 254 L 612 256 Z" fill="lightgray"></path>
				<path d="M 812 22 L 839 116 Q 844 138 857 155 Q 869 171 868 180 Q 866 189 855 196 L 807 218 Q 795 221 788 220 Q 781 219 755 209 Q 729 198 682 188 L 656 184 Q 629 180 609 176 L 595 175 Q 590 174 562 174 C 532 174 532 143 562 142 L 587 141 Q 599 138 639 146 Q 679 154 681 154 L 728 162 Q 737 164 754 165 Q 770 166 773 163 Q 776 160 778 153 L 777 150 L 776 123 L 764 33 C 760 3 804 -7 812 22 Z" fill="lightgray"></path>
				<path d="M 558 -19 L 594 -18 Q 624 -18 667 -14 L 757 -6 Q 784 -3 806 -4 Q 828 -5 830 2 Q 832 8 825 12 Q 819 18 812 22 C 794 34 794 34 764 33 L 733 32 Q 731 32 728 31 L 713 29 Q 704 29 673 25 L 560 14 C 530 11 528 -20 558 -19 Z" fill="lightgray"></path>
</g>
		<text x="40" y="140" font-size="128" fill="#999999">6</text></g>
		<g id="id1:id1:id1" transform="matrix(1.0,0,0,1.0,1024,0.0)">			<g stroke="lightgray" stroke-width="4" transform="scale(4, 4)"> <rect x="0" y="0" width="256" height="256" fill="white" stroke-width="4"/></g>
			<g transform="scale(0.92, -0.92) translate(60, -920)">					<path d="M 284 407 L 218 404 Q 193 404 187 410 Q 184 413 196 428 L 227 471 Q 250 504 256 510 L 305 574 Q 307 578 310 581 L 324 593 Q 332 601 334 604 Q 336 607 335 614 Q 330 635 306 650 Q 282 669 274 668 Q 266 667 263 660 Q 260 653 260 639 Q 259 624 232 562 Q 223 533 203 504 Q 183 474 175 462 Q 167 449 155 436 Q 142 422 140 420 Q 138 418 128 413 Q 117 407 116 403 Q 114 399 118 390 L 127 367 Q 132 353 138 350 Q 146 342 157 349 Q 168 356 188 363 Q 208 369 210 369 L 268 381 C 297 387 314 408 284 407 Z" fill="black"></path>
				<path d="M 336 264 L 248 234 Q 221 224 218 227 Q 214 230 216 233 L 227 250 L 255 286 L 373 446 L 395 467 Q 408 481 405 490 Q 401 498 392 513 L 380 529 L 368 541 Q 351 552 342 543 Q 339 535 337 511 Q 335 487 304 438 L 284 407 L 268 381 L 237 334 Q 237 331 211 297 Q 184 262 180 257 Q 176 251 171 244 Q 165 237 159 233 Q 153 229 146 223 Q 138 216 138 212 Q 138 207 142 200 L 152 184 Q 152 180 162 170 Q 173 164 176 163 Q 179 162 198 174 Q 216 186 219 189 Q 222 192 228 194 L 246 202 L 348 243 C 376 254 364 274 336 264 Z" fill="black"></path>
				<path d="M 348 243 L 356 230 Q 365 211 380 207 Q 401 205 407 237 Q 407 268 388 287 Q 379 296 360 308 Q 318 329 311 322 Q 309 319 318 300 L 328 283 Q 331 274 336 264 L 348 243 Z" fill="black"></path>
				<path d="M 82 120 Q 74 122 72.5 117.5 Q 71 113 72 110 L 78 89 L 100 25 Q 101 24 103 19 L 110 3 Q 121 -29 140 -31 Q 148 -32 154 -29 Q 170 -16 172.5 11 Q 175 38 160.5 60 Q 146 82 136 88 L 97 114 L 82 120 Z" fill="black"></path>
				<path d="M 210 118 Q 210 115 217 101 L 226 80 Q 253 26 274 26 Q 296 31 299 60 Q 303 110 228 135 L 212 140 Q 206 142 204 140 Q 202 134 205 130 L 210 118 Z" fill="black"></path>
				<path d="M 316 167 L 316 166 L 318 164 Q 318 160 325 153 L 332 134 Q 334 128 343 114 Q 351 98 364 90 Q 377 82 390 93 Q 395 101 398 109 Q 401 136 393.5 146 Q 386 156 371 165.5 Q 356 175 349 177 L 332 182 L 318 187 Q 313 188 311 186 L 312 178 L 316 167 Z" fill="black"></path>
				<path d="M 591 699 L 594 688 L 600 671 Q 606 654 620 627 Q 634 599 640 594 Q 646 589 655 583 C 680 566 688 561 697 587 L 702 601 Q 711 617 697 651 Q 687 667 677 676 Q 667 684 644 695 Q 621 705 606 707 Q 591 708 591 699 Z" fill="red"></path>
				<path d="M 488 558 L 484 568 Q 483 570 479 580 Q 475 590 467 590 Q 459 590 458 570.5 Q 457 551 446 524 Q 435 497 432.5 493.5 Q 430 490 430 484 L 420 462 Q 418 451 421 436 Q 427 409 450 409 Q 465 413 474 440 L 484 468 Q 490 486 490.5 497.5 Q 491 509 495 523 L 488 558 Z" fill="lightgray"></path>
				<path d="M 655 583 L 600 572 L 545 564 Q 499 560 488 558 C 458 554 465 521 495 523 L 506 524 L 524 524 L 608 538 L 675 546 Q 684 546 712 550 L 822 564 Q 840 564 842 558 Q 843 551 841 537 L 817 474 Q 816 473 818 468 Q 824 466 828 470 L 839 478 L 856 492 L 943 537 Q 954 548 948 558 Q 946 568 925 580 L 893 598 L 867 608 Q 852 614 841 614 Q 829 614 803 607 Q 776 600 773 600 L 732 592 Q 712 591 697 587 L 655 583 Z" fill="lightgray"></path>
				<path d="M 564 415 L 552 422 L 537 427 Q 511 434 506 429 Q 499 426 506 413 L 514 396 Q 519 387 520 378 L 524 354 Q 526 332 526 312 L 526 249 Q 526 173 517 74 L 511 20 L 506 -16 Q 502 -28 502 -40 L 506 -56 Q 518 -85 528 -94 Q 538 -102 542 -100 Q 552 -94 553 -74 L 553 -62 L 558 -19 L 560 14 L 562 142 L 562 174 L 564 253 L 566 284 L 567 390 C 567 413 567 413 564 415 Z" fill="lightgray"></path>
				<path d="M 761 296 L 778 354 L 786 377 Q 788 383 800 402 Q 812 420 812 426 Q 812 432 807 436 Q 801 440 787 447 L 763 459 Q 748 464 740 462 Q 731 462 720 456 L 697 444 L 645 428 Q 631 423 611 423 Q 590 422 564 415 C 535 408 537 388 567 390 L 581 391 L 608 394 Q 609 394 616 396 L 711 415 Q 734 420 734 404 Q 735 398 734 391 L 721 306 C 716 276 753 267 761 296 Z" fill="lightgray"></path>
				<path d="M 612 256 L 650 260 L 711 268 L 764 272 Q 769 273 771 278 Q 772 283 770 286 Q 767 288 765 292 L 761 296 C 749 310 749 310 721 306 L 690 302 L 631 292 L 602 288 Q 574 288 566 284 C 537 275 534 252 564 253 L 585 254 L 612 256 Z" fill="lightgray"></path>
				<path d="M 812 22 L 839 116 Q 844 138 857 155 Q 869 171 868 180 Q 866 189 855 196 L 807 218 Q 795 221 788 220 Q 781 219 755 209 Q 729 198 682 188 L 656 184 Q 629 180 609 176 L 595 175 Q 590 174 562 174 C 532 174 532 143 562 142 L 587 141 Q 599 138 639 146 Q 679 154 681 154 L 728 162 Q 737 164 754 165 Q 770 166 773 163 Q 776 160 778 153 L 777 150 L 776 123 L 764 33 C 760 3 804 -7 812 22 Z" fill="lightgray"></path>
				<path d="M 558 -19 L 594 -18 Q 624 -18 667 -14 L 757 -6 Q 784 -3 806 -4 Q 828 -5 830 2 Q 832 8 825 12 Q 819 18 812 22 C 794 34 794 34 764 33 L 733 32 Q 731 32 728 31 L 713 29 Q 704 29 673 25 L 560 14 C 530 11 528 -20 558 -19 Z" fill="lightgray"></path>
</g>
		<text x="40" y="140" font-size="128" fill="#999999">7</text></g>
		<g id="id1:id2:id2" transform="matrix(1.0,0,0,1.0,2048,0.0)">			<g stroke="lightgray" stroke-width="4" transform="scale(4, 4)"> <rect x="0" y="0" width="256" height="256" fill="white" stroke-width="4"/></g>
			<g transform="scale(0.92, -0.92) translate(60, -920)">					<path d="M 284 407 L 218 404 Q 193 404 187 410 Q 184 413 196 428 L 227 471 Q 250 504 256 510 L 305 574 Q 307 578 310 581 L 324 593 Q 332 601 334 604 Q 336 607 335 614 Q 330 635 306 650 Q 282 669 274 668 Q 266 667 263 660 Q 260 653 260 639 Q 259 624 232 562 Q 223 533 203 504 Q 183 474 175 462 Q 167 449 155 436 Q 142 422 140 420 Q 138 418 128 413 Q 117 407 116 403 Q 114 399 118 390 L 127 367 Q 132 353 138 350 Q 146 342 157 349 Q 168 356 188 363 Q 208 369 210 369 L 268 381 C 297 387 314 408 284 407 Z" fill="black"></path>
				<path d="M 336 264 L 248 234 Q 221 224 218 227 Q 214 230 216 233 L 227 250 L 255 286 L 373 446 L 395 467 Q 408 481 405 490 Q 401 498 392 513 L 380 529 L 368 541 Q 351 552 342 543 Q 339 535 337 511 Q 335 487 304 438 L 284 407 L 268 381 L 237 334 Q 237 331 211 297 Q 184 262 180 257 Q 176 251 171 244 Q 165 237 159 233 Q 153 229 146 223 Q 138 216 138 212 Q 138 207 142 200 L 152 184 Q 152 180 162 170 Q 173 164 176 163 Q 179 162 198 174 Q 216 186 219 189 Q 222 192 228 194 L 246 202 L 348 243 C 376 254 364 274 336 264 Z" fill="black"></path>
				<path d="M 348 243 L 356 230 Q 365 211 380 207 Q 401 205 407 237 Q 407 268 388 287 Q 379 296 360 308 Q 318 329 311 322 Q 309 319 318 300 L 328 283 Q 331 274 336 264 L 348 243 Z" fill="black"></path>
				<path d="M 82 120 Q 74 122 72.5 117.5 Q 71 113 72 110 L 78 89 L 100 25 Q 101 24 103 19 L 110 3 Q 121 -29 140 -31 Q 148 -32 154 -29 Q 170 -16 172.5 11 Q 175 38 160.5 60 Q 146 82 136 88 L 97 114 L 82 120 Z" fill="black"></path>
				<path d="M 210 118 Q 210 115 217 101 L 226 80 Q 253 26 274 26 Q 296 31 299 60 Q 303 110 228 135 L 212 140 Q 206 142 204 140 Q 202 134 205 130 L 210 118 Z" fill="black"></path>
				<path d="M 316 167 L 316 166 L 318 164 Q 318 160 325 153 L 332 134 Q 334 128 343 114 Q 351 98 364 90 Q 377 82 390 93 Q 395 101 398 109 Q 401 136 393.5 146 Q 386 156 371 165.5 Q 356 175 349 177 L 332 182 L 318 187 Q 313 188 311 186 L 312 178 L 316 167 Z" fill="black"></path>
				<path d="M 591 699 L 594 688 L 600 671 Q 606 654 620 627 Q 634 599 640 594 Q 646 589 655 583 C 680 566 688 561 697 587 L 702 601 Q 711 617 697 651 Q 687 667 677 676 Q 667 684 644 695 Q 621 705 606 707 Q 591 708 591 699 Z" fill="black"></path>
				<path d="M 488 558 L 484 568 Q 483 570 479 580 Q 475 590 467 590 Q 459 590 458 570.5 Q 457 551 446 524 Q 435 497 432.5 493.5 Q 430 490 430 484 L 420 462 Q 418 451 421 436 Q 427 409 450 409 Q 465 413 474 440 L 484 468 Q 490 486 490.5 497.5 Q 491 509 495 523 L 488 558 Z" fill="red"></path>
				<path d="M 655 583 L 600 572 L 545 564 Q 499 560 488 558 C 458 554 465 521 495 523 L 506 524 L 524 524 L 608 538 L 675 546 Q 684 546 712 550 L 822 564 Q 840 564 842 558 Q 843 551 841 537 L 817 474 Q 816 473 818 468 Q 824 466 828 470 L 839 478 L 856 492 L 943 537 Q 954 548 948 558 Q 946 568 925 580 L 893 598 L 867 608 Q 852 614 841 614 Q 829 614 803 607 Q 776 600 773 600 L 732 592 Q 712 591 697 587 L 655 583 Z" fill="lightgray"></path>
				<path d="M 564 415 L 552 422 L 537 427 Q 511 434 506 429 Q 499 426 506 413 L 514 396 Q 519 387 520 378 L 524 354 Q 526 332 526 312 L 526 249 Q 526 173 517 74 L 511 20 L 506 -16 Q 502 -28 502 -40 L 506 -56 Q 518 -85 528 -94 Q 538 -102 542 -100 Q 552 -94 553 -74 L 553 -62 L 558 -19 L 560 14 L 562 142 L 562 174 L 564 253 L 566 284 L 567 390 C 567 413 567 413 564 415 Z" fill="lightgray"></path>
				<path d="M 761 296 L 778 354 L 786 377 Q 788 383 800 402 Q 812 420 812 426 Q 812 432 807 436 Q 801 440 787 447 L 763 459 Q 748 464 740 462 Q 731 462 720 456 L 697 444 L 645 428 Q 631 423 611 423 Q 590 422 564 415 C 535 408 537 388 567 390 L 581 391 L 608 394 Q 609 394 616 396 L 711 415 Q 734 420 734 404 Q 735 398 734 391 L 721 306 C 716 276 753 267 761 296 Z" fill="lightgray"></path>
				<path d="M 612 256 L 650 260 L 711 268 L 764 272 Q 769 273 771 278 Q 772 283 770 286 Q 767 288 765 292 L 761 296 C 749 310 749 310 721 306 L 690 302 L 631 292 L 602 288 Q 574 288 566 284 C 537 275 534 252 564 253 L 585 254 L 612 256 Z" fill="lightgray"></path>
				<path d="M 812 22 L 839 116 Q 844 138 857 155 Q 869 171 868 180 Q 866 189 855 196 L 807 218 Q 795 221 788 220 Q 781 219 755 209 Q 729 198 682 188 L 656 184 Q 629 180 609 176 L 595 175 Q 590 174 562 174 C 532 174 532 143 562 142 L 587 141 Q 599 138 639 146 Q 679 154 681 154 L 728 162 Q 737 164 754 165 Q 770 166 773 163 Q 776 160 778 153 L 777 150 L 776 123 L 764 33 C 760 3 804 -7 812 22 Z" fill="lightgray"></path>
				<path d="M 558 -19 L 594 -18 Q 624 -18 667 -14 L 757 -6 Q 784 -3 806 -4 Q 828 -5 830 2 Q 832 8 825 12 Q 819 18 812 22 C 794 34 794 34 764 33 L 733 32 Q 731 32 728 31 L 713 29 Q 704 29 673 25 L 560 14 C 530 11 528 -20 558 -19 Z" fill="lightgray"></path>
</g>
		<text x="40" y="140" font-size="128" fill="#999999">8</text></g>
		<g id="id1:id3:id3" transform="matrix(1.0,0,0,1.0,3072,0.0)">			<g stroke="lightgray" stroke-width="4" transform="scale(4, 4)"> <rect x="0" y="0" width="256" height="256" fill="white" stroke-width="4"/></g>
			<g transform="scale(0.92, -0.92) translate(60, -920)">					<path d="M 284 407 L 218 404 Q 193 404 187 410 Q 184 413 196 428 L 227 471 Q 250 504 256 510 L 305 574 Q 307 578 310 581 L 324 593 Q 332 601 334 604 Q 336 607 335 614 Q 330 635 306 650 Q 282 669 274 668 Q 266 667 263 660 Q 260 653 260 639 Q 259 624 232 562 Q 223 533 203 504 Q 183 474 175 462 Q 167 449 155 436 Q 142 422 140 420 Q 138 418 128 413 Q 117 407 116 403 Q 114 399 118 390 L 127 367 Q 132 353 138 350 Q 146 342 157 349 Q 168 356 188 363 Q 208 369 210 369 L 268 381 C 297 387 314 408 284 407 Z" fill="black"></path>
				<path d="M 336 264 L 248 234 Q 221 224 218 227 Q 214 230 216 233 L 227 250 L 255 286 L 373 446 L 395 467 Q 408 481 405 490 Q 401 498 392 513 L 380 529 L 368 541 Q 351 552 342 543 Q 339 535 337 511 Q 335 487 304 438 L 284 407 L 268 381 L 237 334 Q 237 331 211 297 Q 184 262 180 257 Q 176 251 171 244 Q 165 237 159 233 Q 153 229 146 223 Q 138 216 138 212 Q 138 207 142 200 L 152 184 Q 152 180 162 170 Q 173 164 176 163 Q 179 162 198 174 Q 216 186 219 189 Q 222 192 228 194 L 246 202 L 348 243 C 376 254 364 274 336 264 Z" fill="black"></path>
				<path d="M 348 243 L 356 230 Q 365 211 380 207 Q 401 205 407 237 Q 407 268 388 287 Q 379 296 360 308 Q 318 329 311 322 Q 309 319 318 300 L 328 283 Q 331 274 336 264 L 348 243 Z" fill="black"></path>
				<path d="M 82 120 Q 74 122 72.5 117.5 Q 71 113 72 110 L 78 89 L 100 25 Q 101 24 103 19 L 110 3 Q 121 -29 140 -31 Q 148 -32 154 -29 Q 170 -16 172.5 11 Q 175 38 160.5 60 Q 146 82 136 88 L 97 114 L 82 120 Z" fill="black"></path>
				<path d="M 210 118 Q 210 115 217 101 L 226 80 Q 253 26 274 26 Q 296 31 299 60 Q 303 110 228 135 L 212 140 Q 206 142 204 140 Q 202 134 205 130 L 210 118 Z" fill="black"></path>
				<path d="M 316 167 L 316 166 L 318 164 Q 318 160 325 153 L 332 134 Q 334 128 343 114 Q 351 98 364 90 Q 377 82 390 93 Q 395 101 398 109 Q 401 136 393.5 146 Q 386 156 371 165.5 Q 356 175 349 177 L 332 182 L 318 187 Q 313 188 311 186 L 312 178 L 316 167 Z" fill="black"></path>
				<path d="M 591 699 L 594 688 L 600 671 Q 606 654 620 627 Q 634 599 640 594 Q 646 589 655 583 C 680 566 688 561 697 587 L 702 601 Q 711 617 697 651 Q 687 667 677 676 Q 667 684 644 695 Q 621 705 606 707 Q 591 708 591 699 Z" fill="black"></path>
				<path d="M 488 558 L 484 568 Q 483 570 479 580 Q 475 590 467 590 Q 459 590 458 570.5 Q 457 551 446 524 Q 435 497 432.5 493.5 Q 430 490 430 484 L 420 462 Q 418 451 421 436 Q 427 409 450 409 Q 465 413 474 440 L 484 468 Q 490 486 490.5 497.5 Q 491 509 495 523 L 488 558 Z" fill="black"></path>
				<path d="M 655 583 L 600 572 L 545 564 Q 499 560 488 558 C 458 554 465 521 495 523 L 506 524 L 524 524 L 608 538 L 675 546 Q 684 546 712 550 L 822 564 Q 840 564 842 558 Q 843 551 841 537 L 817 474 Q 816 473 818 468 Q 824 466 828 470 L 839 478 L 856 492 L 943 537 Q 954 548 948 558 Q 946 568 925 580 L 893 598 L 867 608 Q 852 614 841 614 Q 829 614 803 607 Q 776 600 773 600 L 732 592 Q 712 591 697 587 L 655 583 Z" fill="red"></path>
				<path d="M 564 415 L 552 422 L 537 427 Q 511 434 506 429 Q 499 426 506 413 L 514 396 Q 519 387 520 378 L 524 354 Q 526 332 526 312 L 526 249 Q 526 173 517 74 L 511 20 L 506 -16 Q 502 -28 502 -40 L 506 -56 Q 518 -85 528 -94 Q 538 -102 542 -100 Q 552 -94 553 -74 L 553 -62 L 558 -19 L 560 14 L 562 142 L 562 174 L 564 253 L 566 284 L 567 390 C 567 413 567 413 564 415 Z" fill="lightgray"></path>
				<path d="M 761 296 L 778 354 L 786 377 Q 788 383 800 402 Q 812 420 812 426 Q 812 432 807 436 Q 801 440 787 447 L 763 459 Q 748 464 740 462 Q 731 462 720 456 L 697 444 L 645 428 Q 631 423 611 423 Q 590 422 564 415 C 535 408 537 388 567 390 L 581 391 L 608 394 Q 609 394 616 396 L 711 415 Q 734 420 734 404 Q 735 398 734 391 L 721 306 C 716 276 753 267 761 296 Z" fill="lightgray"></path>
				<path d="M 612 256 L 650 260 L 711 268 L 764 272 Q 769 273 771 278 Q 772 283 770 286 Q 767 288 765 292 L 761 296 C 749 310 749 310 721 306 L 690 302 L 631 292 L 602 288 Q 574 288 566 284 C 537 275 534 252 564 253 L 585 254 L 612 256 Z" fill="lightgray"></path>
				<path d="M 812 22 L 839 116 Q 844 138 857 155 Q 869 171 868 180 Q 866 189 855 196 L 807 218 Q 795 221 788 220 Q 781 219 755 209 Q 729 198 682 188 L 656 184 Q 629 180 609 176 L 595 175 Q 590 174 562 174 C 532 174 532 143 562 142 L 587 141 Q 599 138 639 146 Q 679 154 681 154 L 728 162 Q 737 164 754 165 Q 770 166 773 163 Q 776 160 778 153 L 777 150 L 776 123 L 764 33 C 760 3 804 -7 812 22 Z" fill="lightgray"></path>
				<path d="M 558 -19 L 594 -18 Q 624 -18 667 -14 L 757 -6 Q 784 -3 806 -4 Q 828 -5 830 2 Q 832 8 825 12 Q 819 18 812 22 C 794 34 794 34 764 33 L 733 32 Q 731 32 728 31 L 713 29 Q 704 29 673 25 L 560 14 C 530 11 528 -20 558 -19 Z" fill="lightgray"></path>
</g>
		<text x="40" y="140" font-size="128" fill="#999999">9</text></g>
		<g id="id1:id4:id4" transform="matrix(1.0,0,0,1.0,4096,0.0)">			<g stroke="lightgray" stroke-width="4" transform="scale(4, 4)"> <rect x="0" y="0" width="256" height="256" fill="white" stroke-width="4"/></g>
			<g transform="scale(0.92, -0.92) translate(60, -920)">					<path d="M 284 407 L 218 404 Q 193 404 187 410 Q 184 413 196 428 L 227 471 Q 250 504 256 510 L 305 574 Q 307 578 310 581 L 324 593 Q 332 601 334 604 Q 336 607 335 614 Q 330 635 306 650 Q 282 669 274 668 Q 266 667 263 660 Q 260 653 260 639 Q 259 624 232 562 Q 223 533 203 504 Q 183 474 175 462 Q 167 449 155 436 Q 142 422 140 420 Q 138 418 128 413 Q 117 407 116 403 Q 114 399 118 390 L 127 367 Q 132 353 138 350 Q 146 342 157 349 Q 168 356 188 363 Q 208 369 210 369 L 268 381 C 297 387 314 408 284 407 Z" fill="black"></path>
				<path d="M 336 264 L 248 234 Q 221 224 218 227 Q 214 230 216 233 L 227 250 L 255 286 L 373 446 L 395 467 Q 408 481 405 490 Q 401 498 392 513 L 380 529 L 368 541 Q 351 552 342 543 Q 339 535 337 511 Q 335 487 304 438 L 284 407 L 268 381 L 237 334 Q 237 331 211 297 Q 184 262 180 257 Q 176 251 171 244 Q 165 237 159 233 Q 153 229 146 223 Q 138 216 138 212 Q 138 207 142 200 L 152 184 Q 152 180 162 170 Q 173 164 176 163 Q 179 162 198 174 Q 216 186 219 189 Q 222 192 228 194 L 246 202 L 348 243 C 376 254 364 274 336 264 Z" fill="black"></path>
				<path d="M 348 243 L 356 230 Q 365 211 380 207 Q 401 205 407 237 Q 407 268 388 287 Q 379 296 360 308 Q 318 329 311 322 Q 309 319 318 300 L 328 283 Q 331 274 336 264 L 348 243 Z" fill="black"></path>
				<path d="M 82 120 Q 74 122 72.5 117.5 Q 71 113 72 110 L 78 89 L 100 25 Q 101 24 103 19 L 110 3 Q 121 -29 140 -31 Q 148 -32 154 -29 Q 170 -16 172.5 11 Q 175 38 160.5 60 Q 146 82 136 88 L 97 114 L 82 120 Z" fill="black"></path>
				<path d="M 210 118 Q 210 115 217 101 L 226 80 Q 253 26 274 26 Q 296 31 299 60 Q 303 110 228 135 L 212 140 Q 206 142 204 140 Q 202 134 205 130 L 210 118 Z" fill="black"></path>
				<path d="M 316 167 L 316 166 L 318 164 Q 318 160 325 153 L 332 134 Q 334 128 343 114 Q 351 98 364 90 Q 377 82 390 93 Q 395 101 398 109 Q 401 136 393.5 146 Q 386 156 371 165.5 Q 356 175 349 177 L 332 182 L 318 187 Q 313 188 311 186 L 312 178 L 316 167 Z" fill="black"></path>
				<path d="M 591 699 L 594 688 L 600 671 Q 606 654 620 627 Q 634 599 640 594 Q 646 589 655 583 C 680 566 688 561 697 587 L 702 601 Q 711 617 697 651 Q 687 667 677 676 Q 667 684 644 695 Q 621 705 606 707 Q 591 708 591 699 Z" fill="black"></path>
				<path d="M 488 558 L 484 568 Q 483 570 479 580 Q 475 590 467 590 Q 459 590 458 570.5 Q 457 551 446 524 Q 435 497 432.5 493.5 Q 430 490 430 484 L 420 462 Q 418 451 421 436 Q 427 409 450 409 Q 465 413 474 440 L 484 468 Q 490 486 490.5 497.5 Q 491 509 495 523 L 488 558 Z" fill="black"></path>
				<path d="M 655 583 L 600 572 L 545 564 Q 499 560 488 558 C 458 554 465 521 495 523 L 506 524 L 524 524 L 608 538 L 675 546 Q 684 546 712 550 L 822 564 Q 840 564 842 558 Q 843 551 841 537 L 817 474 Q 816 473 818 468 Q 824 466 828 470 L 839 478 L 856 492 L 943 537 Q 954 548 948 558 Q 946 568 925 580 L 893 598 L 867 608 Q 852 614 841 614 Q 829 614 803 607 Q 776 600 773 600 L 732 592 Q 712 591 697 587 L 655 583 Z" fill="black"></path>
				<path d="M 564 415 L 552 422 L 537 427 Q 511 434 506 429 Q 499 426 506 413 L 514 396 Q 519 387 520 378 L 524 354 Q 526 332 526 312 L 526 249 Q 526 173 517 74 L 511 20 L 506 -16 Q 502 -28 502 -40 L 506 -56 Q 518 -85 528 -94 Q 538 -102 542 -100 Q 552 -94 553 -74 L 553 -62 L 558 -19 L 560 14 L 562 142 L 562 174 L 564 253 L 566 284 L 567 390 C 567 413 567 413 564 415 Z" fill="red"></path>
				<path d="M 761 296 L 778 354 L 786 377 Q 788 383 800 402 Q 812 420 812 426 Q 812 432 807 436 Q 801 440 787 447 L 763 459 Q 748 464 740 462 Q 731 462 720 456 L 697 444 L 645 428 Q 631 423 611 423 Q 590 422 564 415 C 535 408 537 388 567 390 L 581 391 L 608 394 Q 609 394 616 396 L 711 415 Q 734 420 734 404 Q 735 398 734 391 L 721 306 C 716 276 753 267 761 296 Z" fill="lightgray"></path>
				<path d="M 612 256 L 650 260 L 711 268 L 764 272 Q 769 273 771 278 Q 772 283 770 286 Q 767 288 765 292 L 761 296 C 749 310 749 310 721 306 L 690 302 L 631 292 L 602 288 Q 574 288 566 284 C 537 275 534 252 564 253 L 585 254 L 612 256 Z" fill="lightgray"></path>
				<path d="M 812 22 L 839 116 Q 844 138 857 155 Q 869 171 868 180 Q 866 189 855 196 L 807 218 Q 795 221 788 220 Q 781 219 755 209 Q 729 198 682 188 L 656 184 Q 629 180 609 176 L 595 175 Q 590 174 562 174 C 532 174 532 143 562 142 L 587 141 Q 599 138 639 146 Q 679 154 681 154 L 728 162 Q 737 164 754 165 Q 770 166 773 163 Q 776 160 778 153 L 777 150 L 776 123 L 764 33 C 760 3 804 -7 812 22 Z" fill="lightgray"></path>
				<path d="M 558 -19 L 594 -18 Q 624 -18 667 -14 L 757 -6 Q 784 -3 806 -4 Q 828 -5 830 2 Q 832 8 825 12 Q 819 18 812 22 C 794 34 794 34 764 33 L 733 32 Q 731 32 728 31 L 713 29 Q 704 29 673 25 L 560 14 C 530 11 528 -20 558 -19 Z" fill="lightgray"></path>
</g>
		<text x="40" y="140" font-size="128" fill="#999999">10</text></g>
</g>
	<g id="id2:id2" transform="translate(0.0,2048)">
		<g id="id2:id0:id0" transform="matrix(1.0,0,0,1.0,0,0.0)">			<g stroke="lightgray" stroke-width="4" transform="scale(4, 4)"> <rect x="0" y="0" width="256" height="256" fill="white" stroke-width="4"/></g>
			<g transform="scale(0.92, -0.92) translate(60, -920)">					<path d="M 284 407 L 218 404 Q 193 404 187 410 Q 184 413 196 428 L 227 471 Q 250 504 256 510 L 305 574 Q 307 578 310 581 L 324 593 Q 332 601 334 604 Q 336 607 335 614 Q 330 635 306 650 Q 282 669 274 668 Q 266 667 263 660 Q 260 653 260 639 Q 259 624 232 562 Q 223 533 203 504 Q 183 474 175 462 Q 167 449 155 436 Q 142 422 140 420 Q 138 418 128 413 Q 117 407 116 403 Q 114 399 118 390 L 127 367 Q 132 353 138 350 Q 146 342 157 349 Q 168 356 188 363 Q 208 369 210 369 L 268 381 C 297 387 314 408 284 407 Z" fill="black"></path>
				<path d="M 336 264 L 248 234 Q 221 224 218 227 Q 214 230 216 233 L 227 250 L 255 286 L 373 446 L 395 467 Q 408 481 405 490 Q 401 498 392 513 L 380 529 L 368 541 Q 351 552 342 543 Q 339 535 337 511 Q 335 487 304 438 L 284 407 L 268 381 L 237 334 Q 237 331 211 297 Q 184 262 180 257 Q 176 251 171 244 Q 165 237 159 233 Q 153 229 146 223 Q 138 216 138 212 Q 138 207 142 200 L 152 184 Q 152 180 162 170 Q 173 164 176 163 Q 179 162 198 174 Q 216 186 219 189 Q 222 192 228 194 L 246 202 L 348 243 C 376 254 364 274 336 264 Z" fill="black"></path>
				<path d="M 348 243 L 356 230 Q 365 211 380 207 Q 401 205 407 237 Q 407 268 388 287 Q 379 296 360 308 Q 318 329 311 322 Q 309 319 318 300 L 328 283 Q 331 274 336 264 L 348 243 Z" fill="black"></path>
				<path d="M 82 120 Q 74 122 72.5 117.5 Q 71 113 72 110 L 78 89 L 100 25 Q 101 24 103 19 L 110 3 Q 121 -29 140 -31 Q 148 -32 154 -29 Q 170 -16 172.5 11 Q 175 38 160.5 60 Q 146 82 136 88 L 97 114 L 82 120 Z" fill="black"></path>
				<path d="M 210 118 Q 210 115 217 101 L 226 80 Q 253 26 274 26 Q 296 31 299 60 Q 303 110 228 135 L 212 140 Q 206 142 204 140 Q 202 134 205 130 L 210 118 Z" fill="black"></path>
				<path d="M 316 167 L 316 166 L 318 164 Q 318 160 325 153 L 332 134 Q 334 128 343 114 Q 351 98 364 90 Q 377 82 390 93 Q 395 101 398 109 Q 401 136 393.5 146 Q 386 156 371 165.5 Q 356 175 349 177 L 332 182 L 318 187 Q 313 188 311 186 L 312 178 L 316 167 Z" fill="black"></path>
				<path d="M 591 699 L 594 688 L 600 671 Q 606 654 620 627 Q 634 599 640 594 Q 646 589 655 583 C 680 566 688 561 697 587 L 702 601 Q 711 617 697 651 Q 687 667 677 676 Q 667 684 644 695 Q 621 705 606 707 Q 591 708 591 699 Z" fill="black"></path>
				<path d="M 488 558 L 484 568 Q 483 570 479 580 Q 475 590 467 590 Q 459 590 458 570.5 Q 457 551 446 524 Q 435 497 432.5 493.5 Q 430 490 430 484 L 420 462 Q 418 451 421 436 Q 427 409 450 409 Q 465 413 474 440 L 484 468 Q 490 486 490.5 497.5 Q 491 509 495 523 L 488 558 Z" fill="black"></path>
				<path d="M 655 583 L 600 572 L 545 564 Q 499 560 488 558 C 458 554 465 521 495 523 L 506 524 L 524 524 L 608 538 L 675 546 Q 684 546 712 550 L 822 564 Q 840 564 842 558 Q 843 551 841 537 L 817 474 Q 816 473 818 468 Q 824 466 828 470 L 839 478 L 856 492 L 943 537 Q 954 548 948 558 Q 946 568 925 580 L 893 598 L 867 608 Q 852 614 841 614 Q 829 614 803 607 Q 776 600 773 600 L 732 592 Q 712 591 697 587 L 655 583 Z" fill="black"></path>
				<path d="M 564 415 L 552 422 L 537 427 Q 511 434 506 429 Q 499 426 506 413 L 514 396 Q 519 387 520 378 L 524 354 Q 526 332 526 312 L 526 249 Q 526 173 517 74 L 511 20 L 506 -16 Q 502 -28 502 -40 L 506 -56 Q 518 -85 528 -94 Q 538 -102 542 -100 Q 552 -94 553 -74 L 553 -62 L 558 -19 L 560 14 L 562 142 L 562 174 L 564 253 L 566 284 L 567 390 C 567 413 567 413 564 415 Z" fill="black"></path>
				<path d="M 761 296 L 778 354 L 786 377 Q 788 383 800 402 Q 812 420 812 426 Q 812 432 807 436 Q 801 440 787 447 L 763 459 Q 748 464 740 462 Q 731 462 720 456 L 697 444 L 645 428 Q 631 423 611 423 Q 590 422 564 415 C 535 408 537 388 567 390 L 581 391 L 608 394 Q 609 394 616 396 L 711 415 Q 734 420 734 404 Q 735 398 734 391 L 721 306 C 716 276 753 267 761 296 Z" fill="red"></path>
				<path d="M 612 256 L 650 260 L 711 268 L 764 272 Q 769 273 771 278 Q 772 283 770 286 Q 767 288 765 292 L 761 296 C 749 310 749 310 721 306 L 690 302 L 631 292 L 602 288 Q 574 288 566 284 C 537 275 534 252 564 253 L 585 254 L 612 256 Z" fill="lightgray"></path>
				<path d="M 812 22 L 839 116 Q 844 138 857 155 Q 869 171 868 180 Q 866 189 855 196 L 807 218 Q 795 221 788 220 Q 781 219 755 209 Q 729 198 682 188 L 656 184 Q 629 180 609 176 L 595 175 Q 590 174 562 174 C 532 174 532 143 562 142 L 587 141 Q 599 138 639 146 Q 679 154 681 154 L 728 162 Q 737 164 754 165 Q 770 166 773 163 Q 776 160 778 153 L 777 150 L 776 123 L 764 33 C 760 3 804 -7 812 22 Z" fill="lightgray"></path>
				<path d="M 558 -19 L 594 -18 Q 624 -18 667 -14 L 757 -6 Q 784 -3 806 -4 Q 828 -5 830 2 Q 832 8 825 12 Q 819 18 812 22 C 794 34 794 34 764 33 L 733 32 Q 731 32 728 31 L 713 29 Q 704 29 673 25 L 560 14 C 530 11 528 -20 558 -19 Z" fill="lightgray"></path>
</g>
		<text x="40" y="140" font-size="128" fill="#999999">11</text></g>
		<g id="id2:id1:id1" transform="matrix(1.0,0,0,1.0,1024,0.0)">			<g stroke="lightgray" stroke-width="4" transform="scale(4, 4)"> <rect x="0" y="0" width="256" height="256" fill="white" stroke-width="4"/></g>
			<g transform="scale(0.92, -0.92) translate(60, -920)">					<path d="M 284 407 L 218 404 Q 193 404 187 410 Q 184 413 196 428 L 227 471 Q 250 504 256 510 L 305 574 Q 307 578 310 581 L 324 593 Q 332 601 334 604 Q 336 607 335 614 Q 330 635 306 650 Q 282 669 274 668 Q 266 667 263 660 Q 260 653 260 639 Q 259 624 232 562 Q 223 533 203 504 Q 183 474 175 462 Q 167 449 155 436 Q 142 422 140 420 Q 138 418 128 413 Q 117 407 116 403 Q 114 399 118 390 L 127 367 Q 132 353 138 350 Q 146 342 157 349 Q 168 356 188 363 Q 208 369 210 369 L 268 381 C 297 387 314 408 284 407 Z" fill="black"></path>
				<path d="M 336 264 L 248 234 Q 221 224 218 227 Q 214 230 216 233 L 227 250 L 255 286 L 373 446 L 395 467 Q 408 481 405 490 Q 401 498 392 513 L 380 529 L 368 541 Q 351 552 342 543 Q 339 535 337 511 Q 335 487 304 438 L 284 407 L 268 381 L 237 334 Q 237 331 211 297 Q 184 262 180 257 Q 176 251 171 244 Q 165 237 159 233 Q 153 229 146 223 Q 138 216 138 212 Q 138 207 142 200 L 152 184 Q 152 180 162 170 Q 173 164 176 163 Q 179 162 198 174 Q 216 186 219 189 Q 222 192 228 194 L 246 202 L 348 243 C 376 254 364 274 336 264 Z" fill="black"></path>
				<path d="M 348 243 L 356 230 Q 365 211 380 207 Q 401 205 407 237 Q 407 268 388 287 Q 379 296 360 308 Q 318 329 311 322 Q 309 319 318 300 L 328 283 Q 331 274 336 264 L 348 243 Z" fill="black"></path>
				<path d="M 82 120 Q 74 122 72.5 117.5 Q 71 113 72 110 L 78 89 L 100 25 Q 101 24 103 19 L 110 3 Q 121 -29 140 -31 Q 148 -32 154 -29 Q 170 -16 172.5 11 Q 175 38 160.5 60 Q 146 82 136 88 L 97 114 L 82 120 Z" fill="black"></path>
				<path d="M 210 118 Q 210 115 217 101 L 226 80 Q 253 26 274 26 Q 296 31 299 60 Q 303 110 228 135 L 212 140 Q 206 142 204 140 Q 202 134 205 130 L 210 118 Z" fill="black"></path>
				<path d="M 316 167 L 316 166 L 318 164 Q 318 160 325 153 L 332 134 Q 334 128 343 114 Q 351 98 364 90 Q 377 82 390 93 Q 395 101 398 109 Q 401 136 393.5 146 Q 386 156 371 165.5 Q 356 175 349 177 L 332 182 L 318 187 Q 313 188 311 186 L 312 178 L 316 167 Z" fill="black"></path>
				<path d="M 591 699 L 594 688 L 600 671 Q 606 654 620 627 Q 634 599 640 594 Q 646 589 655 583 C 680 566 688 561 697 587 L 702 601 Q 711 617 697 651 Q 687 667 677 676 Q 667 684 644 695 Q 621 705 606 707 Q 591 708 591 699 Z" fill="black"></path>
				<path d="M 488 558 L 484 568 Q 483 570 479 580 Q 475 590 467 590 Q 459 590 458 570.5 Q 457 551 446 524 Q 435 497 432.5 493.5 Q 430 490 430 484 L 420 462 Q 418 451 421 436 Q 427 409 450 409 Q 465 413 474 440 L 484 468 Q 490 486 490.5 497.5 Q 491 509 495 523 L 488 558 Z" fill="black"></path>
				<path d="M 655 583 L 600 572 L 545 564 Q 499 560 488 558 C 458 554 465 521 495 523 L 506 524 L 524 524 L 608 538 L 675 546 Q 684 546 712 550 L 822 564 Q 840 564 842 558 Q 843 551 841 537 L 817 474 Q 816 473 818 468 Q 824 466 828 470 L 839 478 L 856 492 L 943 537 Q 954 548 948 558 Q 946 568 925 580 L 893 598 L 867 608 Q 852 614 841 614 Q 829 614 803 607 Q 776 600 773 600 L 732 592 Q 712 591 697 587 L 655 583 Z" fill="black"></path>
				<path d="M 564 415 L 552 422 L 537 427 Q 511 434 506 429 Q 499 426 506 413 L 514 396 Q 519 387 520 378 L 524 354 Q 526 332 526 312 L 526 249 Q 526 173 517 74 L 511 20 L 506 -16 Q 502 -28 502 -40 L 506 -56 Q 518 -85 528 -94 Q 538 -102 542 -100 Q 552 -94 553 -74 L 553 -62 L 558 -19 L 560 14 L 562 142 L 562 174 L 564 253 L 566 284 L 567 390 C 567 413 567 413 564 415 Z" fill="black"></path>
				<path d="M 761 296 L 778 354 L 786 377 Q 788 383 800 402 Q 812 420 812 426 Q 812 432 807 436 Q 801 440 787 447 L 763 459 Q 748 464 740 462 Q 731 462 720 456 L 697 444 L 645 428 Q 631 423 611 423 Q 590 422 564 415 C 535 408 537 388 567 390 L 581 391 L 608 394 Q 609 394 616 396 L 711 415 Q 734 420 734 404 Q 735 398 734 391 L 721 306 C 716 276 753 267 761 296 Z" fill="black"></path>
				<path d="M 612 256 L 650 260 L 711 268 L 764 272 Q 769 273 771 278 Q 772 283 770 286 Q 767 288 765 292 L 761 296 C 749 310 749 310 721 306 L 690 302 L 631 292 L 602 288 Q 574 288 566 284 C 537 275 534 252 564 253 L 585 254 L 612 256 Z" fill="red"></path>
				<path d="M 812 22 L 839 116 Q 844 138 857 155 Q 869 171 868 180 Q 866 189 855 196 L 807 218 Q 795 221 788 220 Q 781 219 755 209 Q 729 198 682 188 L 656 184 Q 629 180 609 176 L 595 175 Q 590 174 562 174 C 532 174 532 143 562 142 L 587 141 Q 599 138 639 146 Q 679 154 681 154 L 728 162 Q 737 164 754 165 Q 770 166 773 163 Q 776 160 778 153 L 777 150 L 776 123 L 764 33 C 760 3 804 -7 812 22 Z" fill="lightgray"></path>
				<path d="M 558 -19 L 594 -18 Q 624 -18 667 -14 L 757 -6 Q 784 -3 806 -4 Q 828 -5 830 2 Q 832 8 825 12 Q 819 18 812 22 C 794 34 794 34 764 33 L 733 32 Q 731 32 728 31 L 713 29 Q 704 29 673 25 L 560 14 C 530 11 528 -20 558 -19 Z" fill="lightgray"></path>
</g>
		<text x="40" y="140" font-size="128" fill="#999999">12</text></g>
		<g id="id2:id2:id2" transform="matrix(1.0,0,0,1.0,2048,0.0)">			<g stroke="lightgray" stroke-width="4" transform="scale(4, 4)"> <rect x="0" y="0" width="256" height="256" fill="white" stroke-width="4"/></g>
			<g transform="scale(0.92, -0.92) translate(60, -920)">					<path d="M 284 407 L 218 404 Q 193 404 187 410 Q 184 413 196 428 L 227 471 Q 250 504 256 510 L 305 574 Q 307 578 310 581 L 324 593 Q 332 601 334 604 Q 336 607 335 614 Q 330 635 306 650 Q 282 669 274 668 Q 266 667 263 660 Q 260 653 260 639 Q 259 624 232 562 Q 223 533 203 504 Q 183 474 175 462 Q 167 449 155 436 Q 142 422 140 420 Q 138 418 128 413 Q 117 407 116 403 Q 114 399 118 390 L 127 367 Q 132 353 138 350 Q 146 342 157 349 Q 168 356 188 363 Q 208 369 210 369 L 268 381 C 297 387 314 408 284 407 Z" fill="black"></path>
				<path d="M 336 264 L 248 234 Q 221 224 218 227 Q 214 230 216 233 L 227 250 L 255 286 L 373 446 L 395 467 Q 408 481 405 490 Q 401 498 392 513 L 380 529 L 368 541 Q 351 552 342 543 Q 339 535 337 511 Q 335 487 304 438 L 284 407 L 268 381 L 237 334 Q 237 331 211 297 Q 184 262 180 257 Q 176 251 171 244 Q 165 237 159 233 Q 153 229 146 223 Q 138 216 138 212 Q 138 207 142 200 L 152 184 Q 152 180 162 170 Q 173 164 176 163 Q 179 162 198 174 Q 216 186 219 189 Q 222 192 228 194 L 246 202 L 348 243 C 376 254 364 274 336 264 Z" fill="black"></path>
				<path d="M 348 243 L 356 230 Q 365 211 380 207 Q 401 205 407 237 Q 407 268 388 287 Q 379 296 360 308 Q 318 329 311 322 Q 309 319 318 300 L 328 283 Q 331 274 336 264 L 348 243 Z" fill="black"></path>
				<path d="M 82 120 Q 74 122 72.5 117.5 Q 71 113 72 110 L 78 89 L 100 25 Q 101 24 103 19 L 110 3 Q 121 -29 140 -31 Q 148 -32 154 -29 Q 170 -16 172.5 11 Q 175 38 160.5 60 Q 146 82 136 88 L 97 114 L 82 120 Z" fill="black"></path>
				<path d="M 210 118 Q 210 115 217 101 L 226 80 Q 253 26 274 26 Q 296 31 299 60 Q 303 110 228 135 L 212 140 Q 206 142 204 140 Q 202 134 205 130 L 210 118 Z" fill="black"></path>
				<path d="M 316 167 L 316 166 L 318 164 Q 318 160 325 153 L 332 134 Q 334 128 343 114 Q 351 98 364 90 Q 377 82 390 93 Q 395 101 398 109 Q 401 136 393.5 146 Q 386 156 371 165.5 Q 356 175 349 177 L 332 182 L 318 187 Q 313 188 311 186 L 312 178 L 316 167 Z" fill="black"></path>
				<path d="M 591 699 L 594 688 L 600 671 Q 606 654 620 627 Q 634 599 640 594 Q 646 589 655 583 C 680 566 688 561 697 587 L 702 601 Q 711 617 697 651 Q 687 667 677 676 Q 667 684 644 695 Q 621 705 606 707 Q 591 708 591 699 Z" fill="black"></path>
				<path d="M 488 558 L 484 568 Q 483 570 479 580 Q 475 590 467 590 Q 459 590 458 570.5 Q 457 551 446 524 Q 435 497 432.5 493.5 Q 430 490 430 484 L 420 462 Q 418 451 421 436 Q 427 409 450 409 Q 465 413 474 440 L 484 468 Q 490 486 490.5 497.5 Q 491 509 495 523 L 488 558 Z" fill="black"></path>
				<path d="M 655 583 L 600 572 L 545 564 Q 499 560 488 558 C 458 554 465 521 495 523 L 506 524 L 524 524 L 608 538 L 675 546 Q 684 546 712 550 L 822 564 Q 840 564 842 558 Q 843 551 841 537 L 817 474 Q 816 473 818 468 Q 824 466 828 470 L 839 478 L 856 492 L 943 537 Q 954 548 948 558 Q 946 568 925 580 L 893 598 L 867 608 Q 852 614 841 614 Q 829 614 803 607 Q 776 600 773 600 L 732 592 Q 712 591 697 587 L 655 583 Z" fill="black"></path>
				<path d="M 564 415 L 552 422 L 537 427 Q 511 434 506 429 Q 499 426 506 413 L 514 396 Q 519 387 520 378 L 524 354 Q 526 332 526 312 L 526 249 Q 526 173 517 74 L 511 20 L 506 -16 Q 502 -28 502 -40 L 506 -56 Q 518 -85 528 -94 Q 538 -102 542 -100 Q 552 -94 553 -74 L 553 -62 L 558 -19 L 560 14 L 562 142 L 562 174 L 564 253 L 566 284 L 567 390 C 567 413 567 413 564 415 Z" fill="black"></path>
				<path d="M 761 296 L 778 354 L 786 377 Q 788 383 800 402 Q 812 420 812 426 Q 812 432 807 436 Q 801 440 787 447 L 763 459 Q 748 464 740 462 Q 731 462 720 456 L 697 444 L 645 428 Q 631 423 611 423 Q 590 422 564 415 C 535 408 537 388 567 390 L 581 391 L 608 394 Q 609 394 616 396 L 711 415 Q 734 420 734 404 Q 735 398 734 391 L 721 306 C 716 276 753 267 761 296 Z" fill="black"></path>
				<path d="M 612 256 L 650 260 L 711 268 L 764 272 Q 769 273 771 278 Q 772 283 770 286 Q 767 288 765 292 L 761 296 C 749 310 749 310 721 306 L 690 302 L 631 292 L 602 288 Q 574 288 566 284 C 537 275 534 252 564 253 L 585 254 L 612 256 Z" fill="black"></path>
				<path d="M 812 22 L 839 116 Q 844 138 857 155 Q 869 171 868 180 Q 866 189 855 196 L 807 218 Q 795 221 788 220 Q 781 219 755 209 Q 729 198 682 188 L 656 184 Q 629 180 609 176 L 595 175 Q 590 174 562 174 C 532 174 532 143 562 142 L 587 141 Q 599 138 639 146 Q 679 154 681 154 L 728 162 Q 737 164 754 165 Q 770 166 773 163 Q 776 160 778 153 L 777 150 L 776 123 L 764 33 C 760 3 804 -7 812 22 Z" fill="red"></path>
				<path d="M 558 -19 L 594 -18 Q 624 -18 667 -14 L 757 -6 Q 784 -3 806 -4 Q 828 -5 830 2 Q 832 8 825 12 Q 819 18 812 22 C 794 34 794 34 764 33 L 733 32 Q 731 32 728 31 L 713 29 Q 704 29 673 25 L 560 14 C 530 11 528 -20 558 -19 Z" fill="lightgray"></path>
</g>
		<text x="40" y="140" font-size="128" fill="#999999">13</text></g>
		<g id="id2:id3:id3" transform="matrix(1.0,0,0,1.0,3072,0.0)">			<g stroke="lightgray" stroke-width="4" transform="scale(4, 4)"> <rect x="0" y="0" width="256" height="256" fill="white" stroke-width="4"/></g>
			<g transform="scale(0.92, -0.92) translate(60, -920)">					<path d="M 284 407 L 218 404 Q 193 404 187 410 Q 184 413 196 428 L 227 471 Q 250 504 256 510 L 305 574 Q 307 578 310 581 L 324 593 Q 332 601 334 604 Q 336 607 335 614 Q 330 635 306 650 Q 282 669 274 668 Q 266 667 263 660 Q 260 653 260 639 Q 259 624 232 562 Q 223 533 203 504 Q 183 474 175 462 Q 167 449 155 436 Q 142 422 140 420 Q 138 418 128 413 Q 117 407 116 403 Q 114 399 118 390 L 127 367 Q 132 353 138 350 Q 146 342 157 349 Q 168 356 188 363 Q 208 369 210 369 L 268 381 C 297 387 314 408 284 407 Z" fill="black"></path>
				<path d="M 336 264 L 248 234 Q 221 224 218 227 Q 214 230 216 233 L 227 250 L 255 286 L 373 446 L 395 467 Q 408 481 405 490 Q 401 498 392 513 L 380 529 L 368 541 Q 351 552 342 543 Q 339 535 337 511 Q 335 487 304 438 L 284 407 L 268 381 L 237 334 Q 237 331 211 297 Q 184 262 180 257 Q 176 251 171 244 Q 165 237 159 233 Q 153 229 146 223 Q 138 216 138 212 Q 138 207 142 200 L 152 184 Q 152 180 162 170 Q 173 164 176 163 Q 179 162 198 174 Q 216 186 219 189 Q 222 192 228 194 L 246 202 L 348 243 C 376 254 364 274 336 264 Z" fill="black"></path>
				<path d="M 348 243 L 356 230 Q 365 211 380 207 Q 401 205 407 237 Q 407 268 388 287 Q 379 296 360 308 Q 318 329 311 322 Q 309 319 318 300 L 328 283 Q 331 274 336 264 L 348 243 Z" fill="black"></path>
				<path d="M 82 120 Q 74 122 72.5 117.5 Q 71 113 72 110 L 78 89 L 100 25 Q 101 24 103 19 L 110 3 Q 121 -29 140 -31 Q 148 -32 154 -29 Q 170 -16 172.5 11 Q 175 38 160.5 60 Q 146 82 136 88 L 97 114 L 82 120 Z" fill="black"></path>
				<path d="M 210 118 Q 210 115 217 101 L 226 80 Q 253 26 274 26 Q 296 31 299 60 Q 303 110 228 135 L 212 140 Q 206 142 204 140 Q 202 134 205 130 L 210 118 Z" fill="black"></path>
				<path d="M 316 167 L 316 166 L 318 164 Q 318 160 325 153 L 332 134 Q 334 128 343 114 Q 351 98 364 90 Q 377 82 390 93 Q 395 101 398 109 Q 401 136 393.5 146 Q 386 156 371 165.5 Q 356 175 349 177 L 332 182 L 318 187 Q 313 188 311 186 L 312 178 L 316 167 Z" fill="black"></path>
				<path d="M 591 699 L 594 688 L 600 671 Q 606 654 620 627 Q 634 599 640 594 Q 646 589 655 583 C 680 566 688 561 697 587 L 702 601 Q 711 617 697 651 Q 687 667 677 676 Q 667 684 644 695 Q 621 705 606 707 Q 591 708 591 699 Z" fill="black"></path>
				<path d="M 488 558 L 484 568 Q 483 570 479 580 Q 475 590 467 590 Q 459 590 458 570.5 Q 457 551 446 524 Q 435 497 432.5 493.5 Q 430 490 430 484 L 420 462 Q 418 451 421 436 Q 427 409 450 409 Q 465 413 474 440 L 484 468 Q 490 486 490.5 497.5 Q 491 509 495 523 L 488 558 Z" fill="black"></path>
				<path d="M 655 583 L 600 572 L 545 564 Q 499 560 488 558 C 458 554 465 521 495 523 L 506 524 L 524 524 L 608 538 L 675 546 Q 684 546 712 550 L 822 564 Q 840 564 842 558 Q 843 551 841 537 L 817 474 Q 816 473 818 468 Q 824 466 828 470 L 839 478 L 856 492 L 943 537 Q 954 548 948 558 Q 946 568 925 580 L 893 598 L 867 608 Q 852 614 841 614 Q 829 614 803 607 Q 776 600 773 600 L 732 592 Q 712 591 697 587 L 655 583 Z" fill="black"></path>
				<path d="M 564 415 L 552 422 L 537 427 Q 511 434 506 429 Q 499 426 506 413 L 514 396 Q 519 387 520 378 L 524 354 Q 526 332 526 312 L 526 249 Q 526 173 517 74 L 511 20 L 506 -16 Q 502 -28 502 -40 L 506 -56 Q 518 -85 528 -94 Q 538 -102 542 -100 Q 552 -94 553 -74 L 553 -62 L 558 -19 L 560 14 L 562 142 L 562 174 L 564 253 L 566 284 L 567 390 C 567 413 567 413 564 415 Z" fill="black"></path>
				<path d="M 761 296 L 778 354 L 786 377 Q 788 383 800 402 Q 812 420 812 426 Q 812 432 807 436 Q 801 440 787 447 L 763 459 Q 748 464 740 462 Q 731 462 720 456 L 697 444 L 645 428 Q 631 423 611 423 Q 590 422 564 415 C 535 408 537 388 567 390 L 581 391 L 608 394 Q 609 394 616 396 L 711 415 Q 734 420 734 404 Q 735 398 734 391 L 721 306 C 716 276 753 267 761 296 Z" fill="black"></path>
				<path d="M 612 256 L 650 260 L 711 268 L 764 272 Q 769 273 771 278 Q 772 283 770 286 Q 767 288 765 292 L 761 296 C 749 310 749 310 721 306 L 690 302 L 631 292 L 602 288 Q 574 288 566 284 C 537 275 534 252 564 253 L 585 254 L 612 256 Z" fill="black"></path>
				<path d="M 812 22 L 839 116 Q 844 138 857 155 Q 869 171 868 180 Q 866 189 855 196 L 807 218 Q 795 221 788 220 Q 781 219 755 209 Q 729 198 682 188 L 656 184 Q 629 180 609 176 L 595 175 Q 590 174 562 174 C 532 174 532 143 562 142 L 587 141 Q 599 138 639 146 Q 679 154 681 154 L 728 162 Q 737 164 754 165 Q 770 166 773 163 Q 776 160 778 153 L 777 150 L 776 123 L 764 33 C 760 3 804 -7 812 22 Z" fill="black"></path>
				<path d="M 558 -19 L 594 -18 Q 624 -18 667 -14 L 757 -6 Q 784 -3 806 -4 Q 828 -5 830 2 Q 832 8 825 12 Q 819 18 812 22 C 794 34 794 34 764 33 L 733 32 Q 731 32 728 31 L 713 29 Q 704 29 673 25 L 560 14 C 530 11 528 -20 558 -19 Z" fill="red"></path>
</g>
		<text x="40" y="140" font-size="128" fill="#999999">14</text></g>
		<g id="id2:id4:id4" transform="matrix(1.0,0,0,1.0,4096,0.0)">			<g stroke="white" stroke-width="4" transform="scale(4, 4)"> <rect x="1" y="1" width="255" height="255" fill="white" stroke-width="0"/></g>
</g>
</g>
</svg>
