<?xml version="1.0" standalone="no"?>
<!DOCTYPE svg PUBLIC "-//W3C//DTD SVG 1.1//EN"
 "http://www.w3.org/Graphics/SVG/1.1/DTD/svg11.dtd">
<!-- generate by Japanese dictionary app com.asnsami.kanjidictionary -->

<svg xmlns="http://www.w3.org/2000/svg" xmlns:sodipodi="http://sodipodi.sourceforge.net/DTD/sodipodi-0.dtd" version="1.1" width="640" height="384" viewBox="0 0 5120 3072">
	<g id="id0:id0" transform="translate(0.0,0)">
		<g id="id0:id0:id0" transform="matrix(1.0,0,0,1.0,0,0.0)">			<g stroke="lightgray" stroke-width="4" transform="scale(4, 4)"> <rect x="0" y="0" width="256" height="256" fill="white" stroke-width="4"/></g>
			<g transform="scale(0.92, -0.92) translate(60, -920)">					<path d="M 191 622 Q 171 622 171 618 Q 171 613 209 557 Q 253 494 284 494 Q 307 494 307 522 Q 307 544 298 565 Q 283 596 250 609 Q 223 621 191 622 Z" fill="red"></path>
				<path d="M 244 379 Q 238 379 207 357 Q 148 320 116 318 Q 109 318 84 322 Q 76 321 76 310 Q 76 304 97 291 Q 124 278 139 278 Q 148 278 215 306 Q 223 306 223 303 L 212 127 Q 208 65 170 22 Q 156 7 156 -1 Q 156 -20 166 -39 Q 178 -70 191 -70 Q 198 -70 209 -52 Q 253 13 321 73 Q 359 110 359 115 Q 359 123 347 123 Q 342 123 251 60 L 268 251 Q 273 290 297 313 Q 319 331 319 335 Q 319 349 292 364 Q 265 379 244 379 Z" fill="lightgray"></path>
				<path d="M 584 723 Q 567 723 567 710 Q 567 708 569 700 Q 575 687 575 675 Q 567 623 513 526 Q 447 422 372 360 Q 332 326 332 322 Q 332 318 343 318 Q 384 318 471 397 Q 549 469 616 597 Q 620 603 624 610 L 635 630 Q 645 647 653 659 Q 664 672 664 679 Q 664 690 629 708 Q 602 723 584 723 Z" fill="lightgray"></path>
				<path d="M 624 610 Q 636 596 656 567 Q 767 419 804 389 Q 819 379 827 379 Q 860 379 919 388 Q 987 397 987 406 Q 987 411 950 420 Q 882 436 833 467 Q 763 507 655 609 Q 643 621 635 630 C 615 652 605 633 624 610 Z" fill="lightgray"></path>
				<path d="M 687 446 Q 675 446 657 441 Q 567 417 508 406 Q 492 404 492 398 Q 492 392 512 387 Q 537 379 559 379 Q 580 379 712 402 Q 727 407 727 423 Q 727 445 687 446 Z" fill="lightgray"></path>
				<path d="M 446 283 Q 442 288 431 292 Q 411 303 399 303 Q 387 302 387 291 Q 387 288 400 262 Q 412 235 412 203 L 412 81 Q 412 31 402 -13 Q 391 -33 391 -41 Q 391 -55 402 -78 Q 417 -106 424 -106 Q 440 -106 447 -84 Q 451 -60 452 -25 L 452 67 L 452 91 L 452 164 L 452 186 Q 453 215 459 256 C 461 273 461 273 446 283 Z" fill="lightgray"></path>
				<path d="M 555 322 Q 552 322 540 315 Q 516 298 494 292 Q 475 287 446 283 C 416 278 430 248 459 256 Q 464 256 494 267 Q 530 278 540 278 Q 553 278 557 272 Q 563 263 563 232 L 563 197 L 563 178 L 563 106 L 562 79 Q 560 -5 557 -13 Q 551 -26 540 -26 Q 532 -26 509 -13 Q 494 -5 487 -5 Q 479 -5 479 -9 Q 479 -12 483 -16 Q 522 -66 540 -92 Q 550 -106 555 -106 Q 575 -106 597 -64 Q 611 -36 611 17 Q 607 127 607 232 Q 607 255 617 267 Q 624 275 624 278 Q 624 292 595 309 Q 570 322 555 322 Z" fill="lightgray"></path>
				<path d="M 563 197 Q 559 206 540 207 Q 531 207 521 204 Q 483 192 452 186 C 423 180 422 167 452 164 Q 460 163 468 163 Q 479 163 559 175 Q 561 176 563 178 C 571 185 571 185 563 197 Z" fill="lightgray"></path>
				<path d="M 452 67 Q 460 66 468 66 Q 480 66 562 79 C 592 84 591 94 563 106 Q 558 109 544 110 Q 536 110 525 107 Q 484 97 452 91 C 423 85 422 70 452 67 Z" fill="lightgray"></path>
				<path d="M 672 278 Q 659 278 659 270 L 666 263 Q 677 251 680 231 L 680 79 Q 683 39 695 39 Q 706 39 719 52 Q 727 69 727 101 L 727 194 Q 727 204 735 234 Q 735 245 707 265 Q 687 278 672 278 Z" fill="lightgray"></path>
				<path d="M 775 371 Q 768 371 768 362 Q 768 358 776 346 Q 800 314 800 247 L 800 -13 Q 800 -46 787 -49 Q 787 -46 754 -37 Q 715 -22 703 -22 Q 699 -22 699 -26 Q 700 -32 708 -38 Q 730 -53 788 -131 Q 799 -146 808 -146 Q 831 -146 845 -110 Q 859 -67 859 -22 Q 859 -8 853 33 Q 848 65 848 248 Q 848 277 859 300 Q 865 312 867 314 Q 867 333 828 354 Q 797 371 775 371 Z" fill="lightgray"></path>
</g>
		<text x="40" y="140" font-size="128" fill="#999999">1</text></g>
		<g id="id0:id1:id1" transform="matrix(1.0,0,0,1.0,1024,0.0)">			<g stroke="lightgray" stroke-width="4" transform="scale(4, 4)"> <rect x="0" y="0" width="256" height="256" fill="white" stroke-width="4"/></g>
			<g transform="scale(0.92, -0.92) translate(60, -920)">					<path d="M 191 622 Q 171 622 171 618 Q 171 613 209 557 Q 253 494 284 494 Q 307 494 307 522 Q 307 544 298 565 Q 283 596 250 609 Q 223 621 191 622 Z" fill="black"></path>
				<path d="M 244 379 Q 238 379 207 357 Q 148 320 116 318 Q 109 318 84 322 Q 76 321 76 310 Q 76 304 97 291 Q 124 278 139 278 Q 148 278 215 306 Q 223 306 223 303 L 212 127 Q 208 65 170 22 Q 156 7 156 -1 Q 156 -20 166 -39 Q 178 -70 191 -70 Q 198 -70 209 -52 Q 253 13 321 73 Q 359 110 359 115 Q 359 123 347 123 Q 342 123 251 60 L 268 251 Q 273 290 297 313 Q 319 331 319 335 Q 319 349 292 364 Q 265 379 244 379 Z" fill="red"></path>
				<path d="M 584 723 Q 567 723 567 710 Q 567 708 569 700 Q 575 687 575 675 Q 567 623 513 526 Q 447 422 372 360 Q 332 326 332 322 Q 332 318 343 318 Q 384 318 471 397 Q 549 469 616 597 Q 620 603 624 610 L 635 630 Q 645 647 653 659 Q 664 672 664 679 Q 664 690 629 708 Q 602 723 584 723 Z" fill="lightgray"></path>
				<path d="M 624 610 Q 636 596 656 567 Q 767 419 804 389 Q 819 379 827 379 Q 860 379 919 388 Q 987 397 987 406 Q 987 411 950 420 Q 882 436 833 467 Q 763 507 655 609 Q 643 621 635 630 C 615 652 605 633 624 610 Z" fill="lightgray"></path>
				<path d="M 687 446 Q 675 446 657 441 Q 567 417 508 406 Q 492 404 492 398 Q 492 392 512 387 Q 537 379 559 379 Q 580 379 712 402 Q 727 407 727 423 Q 727 445 687 446 Z" fill="lightgray"></path>
				<path d="M 446 283 Q 442 288 431 292 Q 411 303 399 303 Q 387 302 387 291 Q 387 288 400 262 Q 412 235 412 203 L 412 81 Q 412 31 402 -13 Q 391 -33 391 -41 Q 391 -55 402 -78 Q 417 -106 424 -106 Q 440 -106 447 -84 Q 451 -60 452 -25 L 452 67 L 452 91 L 452 164 L 452 186 Q 453 215 459 256 C 461 273 461 273 446 283 Z" fill="lightgray"></path>
				<path d="M 555 322 Q 552 322 540 315 Q 516 298 494 292 Q 475 287 446 283 C 416 278 430 248 459 256 Q 464 256 494 267 Q 530 278 540 278 Q 553 278 557 272 Q 563 263 563 232 L 563 197 L 563 178 L 563 106 L 562 79 Q 560 -5 557 -13 Q 551 -26 540 -26 Q 532 -26 509 -13 Q 494 -5 487 -5 Q 479 -5 479 -9 Q 479 -12 483 -16 Q 522 -66 540 -92 Q 550 -106 555 -106 Q 575 -106 597 -64 Q 611 -36 611 17 Q 607 127 607 232 Q 607 255 617 267 Q 624 275 624 278 Q 624 292 595 309 Q 570 322 555 322 Z" fill="lightgray"></path>
				<path d="M 563 197 Q 559 206 540 207 Q 531 207 521 204 Q 483 192 452 186 C 423 180 422 167 452 164 Q 460 163 468 163 Q 479 163 559 175 Q 561 176 563 178 C 571 185 571 185 563 197 Z" fill="lightgray"></path>
				<path d="M 452 67 Q 460 66 468 66 Q 480 66 562 79 C 592 84 591 94 563 106 Q 558 109 544 110 Q 536 110 525 107 Q 484 97 452 91 C 423 85 422 70 452 67 Z" fill="lightgray"></path>
				<path d="M 672 278 Q 659 278 659 270 L 666 263 Q 677 251 680 231 L 680 79 Q 683 39 695 39 Q 706 39 719 52 Q 727 69 727 101 L 727 194 Q 727 204 735 234 Q 735 245 707 265 Q 687 278 672 278 Z" fill="lightgray"></path>
				<path d="M 775 371 Q 768 371 768 362 Q 768 358 776 346 Q 800 314 800 247 L 800 -13 Q 800 -46 787 -49 Q 787 -46 754 -37 Q 715 -22 703 -22 Q 699 -22 699 -26 Q 700 -32 708 -38 Q 730 -53 788 -131 Q 799 -146 808 -146 Q 831 -146 845 -110 Q 859 -67 859 -22 Q 859 -8 853 33 Q 848 65 848 248 Q 848 277 859 300 Q 865 312 867 314 Q 867 333 828 354 Q 797 371 775 371 Z" fill="lightgray"></path>
</g>
		<text x="40" y="140" font-size="128" fill="#999999">2</text></g>
		<g id="id0:id2:id2" transform="matrix(1.0,0,0,1.0,2048,0.0)">			<g stroke="lightgray" stroke-width="4" transform="scale(4, 4)"> <rect x="0" y="0" width="256" height="256" fill="white" stroke-width="4"/></g>
			<g transform="scale(0.92, -0.92) translate(60, -920)">					<path d="M 191 622 Q 171 622 171 618 Q 171 613 209 557 Q 253 494 284 494 Q 307 494 307 522 Q 307 544 298 565 Q 283 596 250 609 Q 223 621 191 622 Z" fill="black"></path>
				<path d="M 244 379 Q 238 379 207 357 Q 148 320 116 318 Q 109 318 84 322 Q 76 321 76 310 Q 76 304 97 291 Q 124 278 139 278 Q 148 278 215 306 Q 223 306 223 303 L 212 127 Q 208 65 170 22 Q 156 7 156 -1 Q 156 -20 166 -39 Q 178 -70 191 -70 Q 198 -70 209 -52 Q 253 13 321 73 Q 359 110 359 115 Q 359 123 347 123 Q 342 123 251 60 L 268 251 Q 273 290 297 313 Q 319 331 319 335 Q 319 349 292 364 Q 265 379 244 379 Z" fill="black"></path>
				<path d="M 584 723 Q 567 723 567 710 Q 567 708 569 700 Q 575 687 575 675 Q 567 623 513 526 Q 447 422 372 360 Q 332 326 332 322 Q 332 318 343 318 Q 384 318 471 397 Q 549 469 616 597 Q 620 603 624 610 L 635 630 Q 645 647 653 659 Q 664 672 664 679 Q 664 690 629 708 Q 602 723 584 723 Z" fill="red"></path>
				<path d="M 624 610 Q 636 596 656 567 Q 767 419 804 389 Q 819 379 827 379 Q 860 379 919 388 Q 987 397 987 406 Q 987 411 950 420 Q 882 436 833 467 Q 763 507 655 609 Q 643 621 635 630 C 615 652 605 633 624 610 Z" fill="lightgray"></path>
				<path d="M 687 446 Q 675 446 657 441 Q 567 417 508 406 Q 492 404 492 398 Q 492 392 512 387 Q 537 379 559 379 Q 580 379 712 402 Q 727 407 727 423 Q 727 445 687 446 Z" fill="lightgray"></path>
				<path d="M 446 283 Q 442 288 431 292 Q 411 303 399 303 Q 387 302 387 291 Q 387 288 400 262 Q 412 235 412 203 L 412 81 Q 412 31 402 -13 Q 391 -33 391 -41 Q 391 -55 402 -78 Q 417 -106 424 -106 Q 440 -106 447 -84 Q 451 -60 452 -25 L 452 67 L 452 91 L 452 164 L 452 186 Q 453 215 459 256 C 461 273 461 273 446 283 Z" fill="lightgray"></path>
				<path d="M 555 322 Q 552 322 540 315 Q 516 298 494 292 Q 475 287 446 283 C 416 278 430 248 459 256 Q 464 256 494 267 Q 530 278 540 278 Q 553 278 557 272 Q 563 263 563 232 L 563 197 L 563 178 L 563 106 L 562 79 Q 560 -5 557 -13 Q 551 -26 540 -26 Q 532 -26 509 -13 Q 494 -5 487 -5 Q 479 -5 479 -9 Q 479 -12 483 -16 Q 522 -66 540 -92 Q 550 -106 555 -106 Q 575 -106 597 -64 Q 611 -36 611 17 Q 607 127 607 232 Q 607 255 617 267 Q 624 275 624 278 Q 624 292 595 309 Q 570 322 555 322 Z" fill="lightgray"></path>
				<path d="M 563 197 Q 559 206 540 207 Q 531 207 521 204 Q 483 192 452 186 C 423 180 422 167 452 164 Q 460 163 468 163 Q 479 163 559 175 Q 561 176 563 178 C 571 185 571 185 563 197 Z" fill="lightgray"></path>
				<path d="M 452 67 Q 460 66 468 66 Q 480 66 562 79 C 592 84 591 94 563 106 Q 558 109 544 110 Q 536 110 525 107 Q 484 97 452 91 C 423 85 422 70 452 67 Z" fill="lightgray"></path>
				<path d="M 672 278 Q 659 278 659 270 L 666 263 Q 677 251 680 231 L 680 79 Q 683 39 695 39 Q 706 39 719 52 Q 727 69 727 101 L 727 194 Q 727 204 735 234 Q 735 245 707 265 Q 687 278 672 278 Z" fill="lightgray"></path>
				<path d="M 775 371 Q 768 371 768 362 Q 768 358 776 346 Q 800 314 800 247 L 800 -13 Q 800 -46 787 -49 Q 787 -46 754 -37 Q 715 -22 703 -22 Q 699 -22 699 -26 Q 700 -32 708 -38 Q 730 -53 788 -131 Q 799 -146 808 -146 Q 831 -146 845 -110 Q 859 -67 859 -22 Q 859 -8 853 33 Q 848 65 848 248 Q 848 277 859 300 Q 865 312 867 314 Q 867 333 828 354 Q 797 371 775 371 Z" fill="lightgray"></path>
</g>
		<text x="40" y="140" font-size="128" fill="#999999">3</text></g>
		<g id="id0:id3:id3" transform="matrix(1.0,0,0,1.0,3072,0.0)">			<g stroke="lightgray" stroke-width="4" transform="scale(4, 4)"> <rect x="0" y="0" width="256" height="256" fill="white" stroke-width="4"/></g>
			<g transform="scale(0.92, -0.92) translate(60, -920)">					<path d="M 191 622 Q 171 622 171 618 Q 171 613 209 557 Q 253 494 284 494 Q 307 494 307 522 Q 307 544 298 565 Q 283 596 250 609 Q 223 621 191 622 Z" fill="black"></path>
				<path d="M 244 379 Q 238 379 207 357 Q 148 320 116 318 Q 109 318 84 322 Q 76 321 76 310 Q 76 304 97 291 Q 124 278 139 278 Q 148 278 215 306 Q 223 306 223 303 L 212 127 Q 208 65 170 22 Q 156 7 156 -1 Q 156 -20 166 -39 Q 178 -70 191 -70 Q 198 -70 209 -52 Q 253 13 321 73 Q 359 110 359 115 Q 359 123 347 123 Q 342 123 251 60 L 268 251 Q 273 290 297 313 Q 319 331 319 335 Q 319 349 292 364 Q 265 379 244 379 Z" fill="black"></path>
				<path d="M 584 723 Q 567 723 567 710 Q 567 708 569 700 Q 575 687 575 675 Q 567 623 513 526 Q 447 422 372 360 Q 332 326 332 322 Q 332 318 343 318 Q 384 318 471 397 Q 549 469 616 597 Q 620 603 624 610 L 635 630 Q 645 647 653 659 Q 664 672 664 679 Q 664 690 629 708 Q 602 723 584 723 Z" fill="black"></path>
				<path d="M 624 610 Q 636 596 656 567 Q 767 419 804 389 Q 819 379 827 379 Q 860 379 919 388 Q 987 397 987 406 Q 987 411 950 420 Q 882 436 833 467 Q 763 507 655 609 Q 643 621 635 630 C 615 652 605 633 624 610 Z" fill="red"></path>
				<path d="M 687 446 Q 675 446 657 441 Q 567 417 508 406 Q 492 404 492 398 Q 492 392 512 387 Q 537 379 559 379 Q 580 379 712 402 Q 727 407 727 423 Q 727 445 687 446 Z" fill="lightgray"></path>
				<path d="M 446 283 Q 442 288 431 292 Q 411 303 399 303 Q 387 302 387 291 Q 387 288 400 262 Q 412 235 412 203 L 412 81 Q 412 31 402 -13 Q 391 -33 391 -41 Q 391 -55 402 -78 Q 417 -106 424 -106 Q 440 -106 447 -84 Q 451 -60 452 -25 L 452 67 L 452 91 L 452 164 L 452 186 Q 453 215 459 256 C 461 273 461 273 446 283 Z" fill="lightgray"></path>
				<path d="M 555 322 Q 552 322 540 315 Q 516 298 494 292 Q 475 287 446 283 C 416 278 430 248 459 256 Q 464 256 494 267 Q 530 278 540 278 Q 553 278 557 272 Q 563 263 563 232 L 563 197 L 563 178 L 563 106 L 562 79 Q 560 -5 557 -13 Q 551 -26 540 -26 Q 532 -26 509 -13 Q 494 -5 487 -5 Q 479 -5 479 -9 Q 479 -12 483 -16 Q 522 -66 540 -92 Q 550 -106 555 -106 Q 575 -106 597 -64 Q 611 -36 611 17 Q 607 127 607 232 Q 607 255 617 267 Q 624 275 624 278 Q 624 292 595 309 Q 570 322 555 322 Z" fill="lightgray"></path>
				<path d="M 563 197 Q 559 206 540 207 Q 531 207 521 204 Q 483 192 452 186 C 423 180 422 167 452 164 Q 460 163 468 163 Q 479 163 559 175 Q 561 176 563 178 C 571 185 571 185 563 197 Z" fill="lightgray"></path>
				<path d="M 452 67 Q 460 66 468 66 Q 480 66 562 79 C 592 84 591 94 563 106 Q 558 109 544 110 Q 536 110 525 107 Q 484 97 452 91 C 423 85 422 70 452 67 Z" fill="lightgray"></path>
				<path d="M 672 278 Q 659 278 659 270 L 666 263 Q 677 251 680 231 L 680 79 Q 683 39 695 39 Q 706 39 719 52 Q 727 69 727 101 L 727 194 Q 727 204 735 234 Q 735 245 707 265 Q 687 278 672 278 Z" fill="lightgray"></path>
				<path d="M 775 371 Q 768 371 768 362 Q 768 358 776 346 Q 800 314 800 247 L 800 -13 Q 800 -46 787 -49 Q 787 -46 754 -37 Q 715 -22 703 -22 Q 699 -22 699 -26 Q 700 -32 708 -38 Q 730 -53 788 -131 Q 799 -146 808 -146 Q 831 -146 845 -110 Q 859 -67 859 -22 Q 859 -8 853 33 Q 848 65 848 248 Q 848 277 859 300 Q 865 312 867 314 Q 867 333 828 354 Q 797 371 775 371 Z" fill="lightgray"></path>
</g>
		<text x="40" y="140" font-size="128" fill="#999999">4</text></g>
		<g id="id0:id4:id4" transform="matrix(1.0,0,0,1.0,4096,0.0)">			<g stroke="lightgray" stroke-width="4" transform="scale(4, 4)"> <rect x="0" y="0" width="256" height="256" fill="white" stroke-width="4"/></g>
			<g transform="scale(0.92, -0.92) translate(60, -920)">					<path d="M 191 622 Q 171 622 171 618 Q 171 613 209 557 Q 253 494 284 494 Q 307 494 307 522 Q 307 544 298 565 Q 283 596 250 609 Q 223 621 191 622 Z" fill="black"></path>
				<path d="M 244 379 Q 238 379 207 357 Q 148 320 116 318 Q 109 318 84 322 Q 76 321 76 310 Q 76 304 97 291 Q 124 278 139 278 Q 148 278 215 306 Q 223 306 223 303 L 212 127 Q 208 65 170 22 Q 156 7 156 -1 Q 156 -20 166 -39 Q 178 -70 191 -70 Q 198 -70 209 -52 Q 253 13 321 73 Q 359 110 359 115 Q 359 123 347 123 Q 342 123 251 60 L 268 251 Q 273 290 297 313 Q 319 331 319 335 Q 319 349 292 364 Q 265 379 244 379 Z" fill="black"></path>
				<path d="M 584 723 Q 567 723 567 710 Q 567 708 569 700 Q 575 687 575 675 Q 567 623 513 526 Q 447 422 372 360 Q 332 326 332 322 Q 332 318 343 318 Q 384 318 471 397 Q 549 469 616 597 Q 620 603 624 610 L 635 630 Q 645 647 653 659 Q 664 672 664 679 Q 664 690 629 708 Q 602 723 584 723 Z" fill="black"></path>
				<path d="M 624 610 Q 636 596 656 567 Q 767 419 804 389 Q 819 379 827 379 Q 860 379 919 388 Q 987 397 987 406 Q 987 411 950 420 Q 882 436 833 467 Q 763 507 655 609 Q 643 621 635 630 C 615 652 605 633 624 610 Z" fill="black"></path>
				<path d="M 687 446 Q 675 446 657 441 Q 567 417 508 406 Q 492 404 492 398 Q 492 392 512 387 Q 537 379 559 379 Q 580 379 712 402 Q 727 407 727 423 Q 727 445 687 446 Z" fill="red"></path>
				<path d="M 446 283 Q 442 288 431 292 Q 411 303 399 303 Q 387 302 387 291 Q 387 288 400 262 Q 412 235 412 203 L 412 81 Q 412 31 402 -13 Q 391 -33 391 -41 Q 391 -55 402 -78 Q 417 -106 424 -106 Q 440 -106 447 -84 Q 451 -60 452 -25 L 452 67 L 452 91 L 452 164 L 452 186 Q 453 215 459 256 C 461 273 461 273 446 283 Z" fill="lightgray"></path>
				<path d="M 555 322 Q 552 322 540 315 Q 516 298 494 292 Q 475 287 446 283 C 416 278 430 248 459 256 Q 464 256 494 267 Q 530 278 540 278 Q 553 278 557 272 Q 563 263 563 232 L 563 197 L 563 178 L 563 106 L 562 79 Q 560 -5 557 -13 Q 551 -26 540 -26 Q 532 -26 509 -13 Q 494 -5 487 -5 Q 479 -5 479 -9 Q 479 -12 483 -16 Q 522 -66 540 -92 Q 550 -106 555 -106 Q 575 -106 597 -64 Q 611 -36 611 17 Q 607 127 607 232 Q 607 255 617 267 Q 624 275 624 278 Q 624 292 595 309 Q 570 322 555 322 Z" fill="lightgray"></path>
				<path d="M 563 197 Q 559 206 540 207 Q 531 207 521 204 Q 483 192 452 186 C 423 180 422 167 452 164 Q 460 163 468 163 Q 479 163 559 175 Q 561 176 563 178 C 571 185 571 185 563 197 Z" fill="lightgray"></path>
				<path d="M 452 67 Q 460 66 468 66 Q 480 66 562 79 C 592 84 591 94 563 106 Q 558 109 544 110 Q 536 110 525 107 Q 484 97 452 91 C 423 85 422 70 452 67 Z" fill="lightgray"></path>
				<path d="M 672 278 Q 659 278 659 270 L 666 263 Q 677 251 680 231 L 680 79 Q 683 39 695 39 Q 706 39 719 52 Q 727 69 727 101 L 727 194 Q 727 204 735 234 Q 735 245 707 265 Q 687 278 672 278 Z" fill="lightgray"></path>
				<path d="M 775 371 Q 768 371 768 362 Q 768 358 776 346 Q 800 314 800 247 L 800 -13 Q 800 -46 787 -49 Q 787 -46 754 -37 Q 715 -22 703 -22 Q 699 -22 699 -26 Q 700 -32 708 -38 Q 730 -53 788 -131 Q 799 -146 808 -146 Q 831 -146 845 -110 Q 859 -67 859 -22 Q 859 -8 853 33 Q 848 65 848 248 Q 848 277 859 300 Q 865 312 867 314 Q 867 333 828 354 Q 797 371 775 371 Z" fill="lightgray"></path>
</g>
		<text x="40" y="140" font-size="128" fill="#999999">5</text></g>
</g>
	<g id="id1:id1" transform="translate(0.0,1024)">
		<g id="id1:id0:id0" transform="matrix(1.0,0,0,1.0,0,0.0)">			<g stroke="lightgray" stroke-width="4" transform="scale(4, 4)"> <rect x="0" y="0" width="256" height="256" fill="white" stroke-width="4"/></g>
			<g transform="scale(0.92, -0.92) translate(60, -920)">					<path d="M 191 622 Q 171 622 171 618 Q 171 613 209 557 Q 253 494 284 494 Q 307 494 307 522 Q 307 544 298 565 Q 283 596 250 609 Q 223 621 191 622 Z" fill="black"></path>
				<path d="M 244 379 Q 238 379 207 357 Q 148 320 116 318 Q 109 318 84 322 Q 76 321 76 310 Q 76 304 97 291 Q 124 278 139 278 Q 148 278 215 306 Q 223 306 223 303 L 212 127 Q 208 65 170 22 Q 156 7 156 -1 Q 156 -20 166 -39 Q 178 -70 191 -70 Q 198 -70 209 -52 Q 253 13 321 73 Q 359 110 359 115 Q 359 123 347 123 Q 342 123 251 60 L 268 251 Q 273 290 297 313 Q 319 331 319 335 Q 319 349 292 364 Q 265 379 244 379 Z" fill="black"></path>
				<path d="M 584 723 Q 567 723 567 710 Q 567 708 569 700 Q 575 687 575 675 Q 567 623 513 526 Q 447 422 372 360 Q 332 326 332 322 Q 332 318 343 318 Q 384 318 471 397 Q 549 469 616 597 Q 620 603 624 610 L 635 630 Q 645 647 653 659 Q 664 672 664 679 Q 664 690 629 708 Q 602 723 584 723 Z" fill="black"></path>
				<path d="M 624 610 Q 636 596 656 567 Q 767 419 804 389 Q 819 379 827 379 Q 860 379 919 388 Q 987 397 987 406 Q 987 411 950 420 Q 882 436 833 467 Q 763 507 655 609 Q 643 621 635 630 C 615 652 605 633 624 610 Z" fill="black"></path>
				<path d="M 687 446 Q 675 446 657 441 Q 567 417 508 406 Q 492 404 492 398 Q 492 392 512 387 Q 537 379 559 379 Q 580 379 712 402 Q 727 407 727 423 Q 727 445 687 446 Z" fill="black"></path>
				<path d="M 446 283 Q 442 288 431 292 Q 411 303 399 303 Q 387 302 387 291 Q 387 288 400 262 Q 412 235 412 203 L 412 81 Q 412 31 402 -13 Q 391 -33 391 -41 Q 391 -55 402 -78 Q 417 -106 424 -106 Q 440 -106 447 -84 Q 451 -60 452 -25 L 452 67 L 452 91 L 452 164 L 452 186 Q 453 215 459 256 C 461 273 461 273 446 283 Z" fill="red"></path>
				<path d="M 555 322 Q 552 322 540 315 Q 516 298 494 292 Q 475 287 446 283 C 416 278 430 248 459 256 Q 464 256 494 267 Q 530 278 540 278 Q 553 278 557 272 Q 563 263 563 232 L 563 197 L 563 178 L 563 106 L 562 79 Q 560 -5 557 -13 Q 551 -26 540 -26 Q 532 -26 509 -13 Q 494 -5 487 -5 Q 479 -5 479 -9 Q 479 -12 483 -16 Q 522 -66 540 -92 Q 550 -106 555 -106 Q 575 -106 597 -64 Q 611 -36 611 17 Q 607 127 607 232 Q 607 255 617 267 Q 624 275 624 278 Q 624 292 595 309 Q 570 322 555 322 Z" fill="lightgray"></path>
				<path d="M 563 197 Q 559 206 540 207 Q 531 207 521 204 Q 483 192 452 186 C 423 180 422 167 452 164 Q 460 163 468 163 Q 479 163 559 175 Q 561 176 563 178 C 571 185 571 185 563 197 Z" fill="lightgray"></path>
				<path d="M 452 67 Q 460 66 468 66 Q 480 66 562 79 C 592 84 591 94 563 106 Q 558 109 544 110 Q 536 110 525 107 Q 484 97 452 91 C 423 85 422 70 452 67 Z" fill="lightgray"></path>
				<path d="M 672 278 Q 659 278 659 270 L 666 263 Q 677 251 680 231 L 680 79 Q 683 39 695 39 Q 706 39 719 52 Q 727 69 727 101 L 727 194 Q 727 204 735 234 Q 735 245 707 265 Q 687 278 672 278 Z" fill="lightgray"></path>
				<path d="M 775 371 Q 768 371 768 362 Q 768 358 776 346 Q 800 314 800 247 L 800 -13 Q 800 -46 787 -49 Q 787 -46 754 -37 Q 715 -22 703 -22 Q 699 -22 699 -26 Q 700 -32 708 -38 Q 730 -53 788 -131 Q 799 -146 808 -146 Q 831 -146 845 -110 Q 859 -67 859 -22 Q 859 -8 853 33 Q 848 65 848 248 Q 848 277 859 300 Q 865 312 867 314 Q 867 333 828 354 Q 797 371 775 371 Z" fill="lightgray"></path>
</g>
		<text x="40" y="140" font-size="128" fill="#999999">6</text></g>
		<g id="id1:id1:id1" transform="matrix(1.0,0,0,1.0,1024,0.0)">			<g stroke="lightgray" stroke-width="4" transform="scale(4, 4)"> <rect x="0" y="0" width="256" height="256" fill="white" stroke-width="4"/></g>
			<g transform="scale(0.92, -0.92) translate(60, -920)">					<path d="M 191 622 Q 171 622 171 618 Q 171 613 209 557 Q 253 494 284 494 Q 307 494 307 522 Q 307 544 298 565 Q 283 596 250 609 Q 223 621 191 622 Z" fill="black"></path>
				<path d="M 244 379 Q 238 379 207 357 Q 148 320 116 318 Q 109 318 84 322 Q 76 321 76 310 Q 76 304 97 291 Q 124 278 139 278 Q 148 278 215 306 Q 223 306 223 303 L 212 127 Q 208 65 170 22 Q 156 7 156 -1 Q 156 -20 166 -39 Q 178 -70 191 -70 Q 198 -70 209 -52 Q 253 13 321 73 Q 359 110 359 115 Q 359 123 347 123 Q 342 123 251 60 L 268 251 Q 273 290 297 313 Q 319 331 319 335 Q 319 349 292 364 Q 265 379 244 379 Z" fill="black"></path>
				<path d="M 584 723 Q 567 723 567 710 Q 567 708 569 700 Q 575 687 575 675 Q 567 623 513 526 Q 447 422 372 360 Q 332 326 332 322 Q 332 318 343 318 Q 384 318 471 397 Q 549 469 616 597 Q 620 603 624 610 L 635 630 Q 645 647 653 659 Q 664 672 664 679 Q 664 690 629 708 Q 602 723 584 723 Z" fill="black"></path>
				<path d="M 624 610 Q 636 596 656 567 Q 767 419 804 389 Q 819 379 827 379 Q 860 379 919 388 Q 987 397 987 406 Q 987 411 950 420 Q 882 436 833 467 Q 763 507 655 609 Q 643 621 635 630 C 615 652 605 633 624 610 Z" fill="black"></path>
				<path d="M 687 446 Q 675 446 657 441 Q 567 417 508 406 Q 492 404 492 398 Q 492 392 512 387 Q 537 379 559 379 Q 580 379 712 402 Q 727 407 727 423 Q 727 445 687 446 Z" fill="black"></path>
				<path d="M 446 283 Q 442 288 431 292 Q 411 303 399 303 Q 387 302 387 291 Q 387 288 400 262 Q 412 235 412 203 L 412 81 Q 412 31 402 -13 Q 391 -33 391 -41 Q 391 -55 402 -78 Q 417 -106 424 -106 Q 440 -106 447 -84 Q 451 -60 452 -25 L 452 67 L 452 91 L 452 164 L 452 186 Q 453 215 459 256 C 461 273 461 273 446 283 Z" fill="black"></path>
				<path d="M 555 322 Q 552 322 540 315 Q 516 298 494 292 Q 475 287 446 283 C 416 278 430 248 459 256 Q 464 256 494 267 Q 530 278 540 278 Q 553 278 557 272 Q 563 263 563 232 L 563 197 L 563 178 L 563 106 L 562 79 Q 560 -5 557 -13 Q 551 -26 540 -26 Q 532 -26 509 -13 Q 494 -5 487 -5 Q 479 -5 479 -9 Q 479 -12 483 -16 Q 522 -66 540 -92 Q 550 -106 555 -106 Q 575 -106 597 -64 Q 611 -36 611 17 Q 607 127 607 232 Q 607 255 617 267 Q 624 275 624 278 Q 624 292 595 309 Q 570 322 555 322 Z" fill="red"></path>
				<path d="M 563 197 Q 559 206 540 207 Q 531 207 521 204 Q 483 192 452 186 C 423 180 422 167 452 164 Q 460 163 468 163 Q 479 163 559 175 Q 561 176 563 178 C 571 185 571 185 563 197 Z" fill="lightgray"></path>
				<path d="M 452 67 Q 460 66 468 66 Q 480 66 562 79 C 592 84 591 94 563 106 Q 558 109 544 110 Q 536 110 525 107 Q 484 97 452 91 C 423 85 422 70 452 67 Z" fill="lightgray"></path>
				<path d="M 672 278 Q 659 278 659 270 L 666 263 Q 677 251 680 231 L 680 79 Q 683 39 695 39 Q 706 39 719 52 Q 727 69 727 101 L 727 194 Q 727 204 735 234 Q 735 245 707 265 Q 687 278 672 278 Z" fill="lightgray"></path>
				<path d="M 775 371 Q 768 371 768 362 Q 768 358 776 346 Q 800 314 800 247 L 800 -13 Q 800 -46 787 -49 Q 787 -46 754 -37 Q 715 -22 703 -22 Q 699 -22 699 -26 Q 700 -32 708 -38 Q 730 -53 788 -131 Q 799 -146 808 -146 Q 831 -146 845 -110 Q 859 -67 859 -22 Q 859 -8 853 33 Q 848 65 848 248 Q 848 277 859 300 Q 865 312 867 314 Q 867 333 828 354 Q 797 371 775 371 Z" fill="lightgray"></path>
</g>
		<text x="40" y="140" font-size="128" fill="#999999">7</text></g>
		<g id="id1:id2:id2" transform="matrix(1.0,0,0,1.0,2048,0.0)">			<g stroke="lightgray" stroke-width="4" transform="scale(4, 4)"> <rect x="0" y="0" width="256" height="256" fill="white" stroke-width="4"/></g>
			<g transform="scale(0.92, -0.92) translate(60, -920)">					<path d="M 191 622 Q 171 622 171 618 Q 171 613 209 557 Q 253 494 284 494 Q 307 494 307 522 Q 307 544 298 565 Q 283 596 250 609 Q 223 621 191 622 Z" fill="black"></path>
				<path d="M 244 379 Q 238 379 207 357 Q 148 320 116 318 Q 109 318 84 322 Q 76 321 76 310 Q 76 304 97 291 Q 124 278 139 278 Q 148 278 215 306 Q 223 306 223 303 L 212 127 Q 208 65 170 22 Q 156 7 156 -1 Q 156 -20 166 -39 Q 178 -70 191 -70 Q 198 -70 209 -52 Q 253 13 321 73 Q 359 110 359 115 Q 359 123 347 123 Q 342 123 251 60 L 268 251 Q 273 290 297 313 Q 319 331 319 335 Q 319 349 292 364 Q 265 379 244 379 Z" fill="black"></path>
				<path d="M 584 723 Q 567 723 567 710 Q 567 708 569 700 Q 575 687 575 675 Q 567 623 513 526 Q 447 422 372 360 Q 332 326 332 322 Q 332 318 343 318 Q 384 318 471 397 Q 549 469 616 597 Q 620 603 624 610 L 635 630 Q 645 647 653 659 Q 664 672 664 679 Q 664 690 629 708 Q 602 723 584 723 Z" fill="black"></path>
				<path d="M 624 610 Q 636 596 656 567 Q 767 419 804 389 Q 819 379 827 379 Q 860 379 919 388 Q 987 397 987 406 Q 987 411 950 420 Q 882 436 833 467 Q 763 507 655 609 Q 643 621 635 630 C 615 652 605 633 624 610 Z" fill="black"></path>
				<path d="M 687 446 Q 675 446 657 441 Q 567 417 508 406 Q 492 404 492 398 Q 492 392 512 387 Q 537 379 559 379 Q 580 379 712 402 Q 727 407 727 423 Q 727 445 687 446 Z" fill="black"></path>
				<path d="M 446 283 Q 442 288 431 292 Q 411 303 399 303 Q 387 302 387 291 Q 387 288 400 262 Q 412 235 412 203 L 412 81 Q 412 31 402 -13 Q 391 -33 391 -41 Q 391 -55 402 -78 Q 417 -106 424 -106 Q 440 -106 447 -84 Q 451 -60 452 -25 L 452 67 L 452 91 L 452 164 L 452 186 Q 453 215 459 256 C 461 273 461 273 446 283 Z" fill="black"></path>
				<path d="M 555 322 Q 552 322 540 315 Q 516 298 494 292 Q 475 287 446 283 C 416 278 430 248 459 256 Q 464 256 494 267 Q 530 278 540 278 Q 553 278 557 272 Q 563 263 563 232 L 563 197 L 563 178 L 563 106 L 562 79 Q 560 -5 557 -13 Q 551 -26 540 -26 Q 532 -26 509 -13 Q 494 -5 487 -5 Q 479 -5 479 -9 Q 479 -12 483 -16 Q 522 -66 540 -92 Q 550 -106 555 -106 Q 575 -106 597 -64 Q 611 -36 611 17 Q 607 127 607 232 Q 607 255 617 267 Q 624 275 624 278 Q 624 292 595 309 Q 570 322 555 322 Z" fill="black"></path>
				<path d="M 563 197 Q 559 206 540 207 Q 531 207 521 204 Q 483 192 452 186 C 423 180 422 167 452 164 Q 460 163 468 163 Q 479 163 559 175 Q 561 176 563 178 C 571 185 571 185 563 197 Z" fill="red"></path>
				<path d="M 452 67 Q 460 66 468 66 Q 480 66 562 79 C 592 84 591 94 563 106 Q 558 109 544 110 Q 536 110 525 107 Q 484 97 452 91 C 423 85 422 70 452 67 Z" fill="lightgray"></path>
				<path d="M 672 278 Q 659 278 659 270 L 666 263 Q 677 251 680 231 L 680 79 Q 683 39 695 39 Q 706 39 719 52 Q 727 69 727 101 L 727 194 Q 727 204 735 234 Q 735 245 707 265 Q 687 278 672 278 Z" fill="lightgray"></path>
				<path d="M 775 371 Q 768 371 768 362 Q 768 358 776 346 Q 800 314 800 247 L 800 -13 Q 800 -46 787 -49 Q 787 -46 754 -37 Q 715 -22 703 -22 Q 699 -22 699 -26 Q 700 -32 708 -38 Q 730 -53 788 -131 Q 799 -146 808 -146 Q 831 -146 845 -110 Q 859 -67 859 -22 Q 859 -8 853 33 Q 848 65 848 248 Q 848 277 859 300 Q 865 312 867 314 Q 867 333 828 354 Q 797 371 775 371 Z" fill="lightgray"></path>
</g>
		<text x="40" y="140" font-size="128" fill="#999999">8</text></g>
		<g id="id1:id3:id3" transform="matrix(1.0,0,0,1.0,3072,0.0)">			<g stroke="lightgray" stroke-width="4" transform="scale(4, 4)"> <rect x="0" y="0" width="256" height="256" fill="white" stroke-width="4"/></g>
			<g transform="scale(0.92, -0.92) translate(60, -920)">					<path d="M 191 622 Q 171 622 171 618 Q 171 613 209 557 Q 253 494 284 494 Q 307 494 307 522 Q 307 544 298 565 Q 283 596 250 609 Q 223 621 191 622 Z" fill="black"></path>
				<path d="M 244 379 Q 238 379 207 357 Q 148 320 116 318 Q 109 318 84 322 Q 76 321 76 310 Q 76 304 97 291 Q 124 278 139 278 Q 148 278 215 306 Q 223 306 223 303 L 212 127 Q 208 65 170 22 Q 156 7 156 -1 Q 156 -20 166 -39 Q 178 -70 191 -70 Q 198 -70 209 -52 Q 253 13 321 73 Q 359 110 359 115 Q 359 123 347 123 Q 342 123 251 60 L 268 251 Q 273 290 297 313 Q 319 331 319 335 Q 319 349 292 364 Q 265 379 244 379 Z" fill="black"></path>
				<path d="M 584 723 Q 567 723 567 710 Q 567 708 569 700 Q 575 687 575 675 Q 567 623 513 526 Q 447 422 372 360 Q 332 326 332 322 Q 332 318 343 318 Q 384 318 471 397 Q 549 469 616 597 Q 620 603 624 610 L 635 630 Q 645 647 653 659 Q 664 672 664 679 Q 664 690 629 708 Q 602 723 584 723 Z" fill="black"></path>
				<path d="M 624 610 Q 636 596 656 567 Q 767 419 804 389 Q 819 379 827 379 Q 860 379 919 388 Q 987 397 987 406 Q 987 411 950 420 Q 882 436 833 467 Q 763 507 655 609 Q 643 621 635 630 C 615 652 605 633 624 610 Z" fill="black"></path>
				<path d="M 687 446 Q 675 446 657 441 Q 567 417 508 406 Q 492 404 492 398 Q 492 392 512 387 Q 537 379 559 379 Q 580 379 712 402 Q 727 407 727 423 Q 727 445 687 446 Z" fill="black"></path>
				<path d="M 446 283 Q 442 288 431 292 Q 411 303 399 303 Q 387 302 387 291 Q 387 288 400 262 Q 412 235 412 203 L 412 81 Q 412 31 402 -13 Q 391 -33 391 -41 Q 391 -55 402 -78 Q 417 -106 424 -106 Q 440 -106 447 -84 Q 451 -60 452 -25 L 452 67 L 452 91 L 452 164 L 452 186 Q 453 215 459 256 C 461 273 461 273 446 283 Z" fill="black"></path>
				<path d="M 555 322 Q 552 322 540 315 Q 516 298 494 292 Q 475 287 446 283 C 416 278 430 248 459 256 Q 464 256 494 267 Q 530 278 540 278 Q 553 278 557 272 Q 563 263 563 232 L 563 197 L 563 178 L 563 106 L 562 79 Q 560 -5 557 -13 Q 551 -26 540 -26 Q 532 -26 509 -13 Q 494 -5 487 -5 Q 479 -5 479 -9 Q 479 -12 483 -16 Q 522 -66 540 -92 Q 550 -106 555 -106 Q 575 -106 597 -64 Q 611 -36 611 17 Q 607 127 607 232 Q 607 255 617 267 Q 624 275 624 278 Q 624 292 595 309 Q 570 322 555 322 Z" fill="black"></path>
				<path d="M 563 197 Q 559 206 540 207 Q 531 207 521 204 Q 483 192 452 186 C 423 180 422 167 452 164 Q 460 163 468 163 Q 479 163 559 175 Q 561 176 563 178 C 571 185 571 185 563 197 Z" fill="black"></path>
				<path d="M 452 67 Q 460 66 468 66 Q 480 66 562 79 C 592 84 591 94 563 106 Q 558 109 544 110 Q 536 110 525 107 Q 484 97 452 91 C 423 85 422 70 452 67 Z" fill="red"></path>
				<path d="M 672 278 Q 659 278 659 270 L 666 263 Q 677 251 680 231 L 680 79 Q 683 39 695 39 Q 706 39 719 52 Q 727 69 727 101 L 727 194 Q 727 204 735 234 Q 735 245 707 265 Q 687 278 672 278 Z" fill="lightgray"></path>
				<path d="M 775 371 Q 768 371 768 362 Q 768 358 776 346 Q 800 314 800 247 L 800 -13 Q 800 -46 787 -49 Q 787 -46 754 -37 Q 715 -22 703 -22 Q 699 -22 699 -26 Q 700 -32 708 -38 Q 730 -53 788 -131 Q 799 -146 808 -146 Q 831 -146 845 -110 Q 859 -67 859 -22 Q 859 -8 853 33 Q 848 65 848 248 Q 848 277 859 300 Q 865 312 867 314 Q 867 333 828 354 Q 797 371 775 371 Z" fill="lightgray"></path>
</g>
		<text x="40" y="140" font-size="128" fill="#999999">9</text></g>
		<g id="id1:id4:id4" transform="matrix(1.0,0,0,1.0,4096,0.0)">			<g stroke="lightgray" stroke-width="4" transform="scale(4, 4)"> <rect x="0" y="0" width="256" height="256" fill="white" stroke-width="4"/></g>
			<g transform="scale(0.92, -0.92) translate(60, -920)">					<path d="M 191 622 Q 171 622 171 618 Q 171 613 209 557 Q 253 494 284 494 Q 307 494 307 522 Q 307 544 298 565 Q 283 596 250 609 Q 223 621 191 622 Z" fill="black"></path>
				<path d="M 244 379 Q 238 379 207 357 Q 148 320 116 318 Q 109 318 84 322 Q 76 321 76 310 Q 76 304 97 291 Q 124 278 139 278 Q 148 278 215 306 Q 223 306 223 303 L 212 127 Q 208 65 170 22 Q 156 7 156 -1 Q 156 -20 166 -39 Q 178 -70 191 -70 Q 198 -70 209 -52 Q 253 13 321 73 Q 359 110 359 115 Q 359 123 347 123 Q 342 123 251 60 L 268 251 Q 273 290 297 313 Q 319 331 319 335 Q 319 349 292 364 Q 265 379 244 379 Z" fill="black"></path>
				<path d="M 584 723 Q 567 723 567 710 Q 567 708 569 700 Q 575 687 575 675 Q 567 623 513 526 Q 447 422 372 360 Q 332 326 332 322 Q 332 318 343 318 Q 384 318 471 397 Q 549 469 616 597 Q 620 603 624 610 L 635 630 Q 645 647 653 659 Q 664 672 664 679 Q 664 690 629 708 Q 602 723 584 723 Z" fill="black"></path>
				<path d="M 624 610 Q 636 596 656 567 Q 767 419 804 389 Q 819 379 827 379 Q 860 379 919 388 Q 987 397 987 406 Q 987 411 950 420 Q 882 436 833 467 Q 763 507 655 609 Q 643 621 635 630 C 615 652 605 633 624 610 Z" fill="black"></path>
				<path d="M 687 446 Q 675 446 657 441 Q 567 417 508 406 Q 492 404 492 398 Q 492 392 512 387 Q 537 379 559 379 Q 580 379 712 402 Q 727 407 727 423 Q 727 445 687 446 Z" fill="black"></path>
				<path d="M 446 283 Q 442 288 431 292 Q 411 303 399 303 Q 387 302 387 291 Q 387 288 400 262 Q 412 235 412 203 L 412 81 Q 412 31 402 -13 Q 391 -33 391 -41 Q 391 -55 402 -78 Q 417 -106 424 -106 Q 440 -106 447 -84 Q 451 -60 452 -25 L 452 67 L 452 91 L 452 164 L 452 186 Q 453 215 459 256 C 461 273 461 273 446 283 Z" fill="black"></path>
				<path d="M 555 322 Q 552 322 540 315 Q 516 298 494 292 Q 475 287 446 283 C 416 278 430 248 459 256 Q 464 256 494 267 Q 530 278 540 278 Q 553 278 557 272 Q 563 263 563 232 L 563 197 L 563 178 L 563 106 L 562 79 Q 560 -5 557 -13 Q 551 -26 540 -26 Q 532 -26 509 -13 Q 494 -5 487 -5 Q 479 -5 479 -9 Q 479 -12 483 -16 Q 522 -66 540 -92 Q 550 -106 555 -106 Q 575 -106 597 -64 Q 611 -36 611 17 Q 607 127 607 232 Q 607 255 617 267 Q 624 275 624 278 Q 624 292 595 309 Q 570 322 555 322 Z" fill="black"></path>
				<path d="M 563 197 Q 559 206 540 207 Q 531 207 521 204 Q 483 192 452 186 C 423 180 422 167 452 164 Q 460 163 468 163 Q 479 163 559 175 Q 561 176 563 178 C 571 185 571 185 563 197 Z" fill="black"></path>
				<path d="M 452 67 Q 460 66 468 66 Q 480 66 562 79 C 592 84 591 94 563 106 Q 558 109 544 110 Q 536 110 525 107 Q 484 97 452 91 C 423 85 422 70 452 67 Z" fill="black"></path>
				<path d="M 672 278 Q 659 278 659 270 L 666 263 Q 677 251 680 231 L 680 79 Q 683 39 695 39 Q 706 39 719 52 Q 727 69 727 101 L 727 194 Q 727 204 735 234 Q 735 245 707 265 Q 687 278 672 278 Z" fill="red"></path>
				<path d="M 775 371 Q 768 371 768 362 Q 768 358 776 346 Q 800 314 800 247 L 800 -13 Q 800 -46 787 -49 Q 787 -46 754 -37 Q 715 -22 703 -22 Q 699 -22 699 -26 Q 700 -32 708 -38 Q 730 -53 788 -131 Q 799 -146 808 -146 Q 831 -146 845 -110 Q 859 -67 859 -22 Q 859 -8 853 33 Q 848 65 848 248 Q 848 277 859 300 Q 865 312 867 314 Q 867 333 828 354 Q 797 371 775 371 Z" fill="lightgray"></path>
</g>
		<text x="40" y="140" font-size="128" fill="#999999">10</text></g>
</g>
	<g id="id2:id2" transform="translate(0.0,2048)">
		<g id="id2:id0:id0" transform="matrix(1.0,0,0,1.0,0,0.0)">			<g stroke="lightgray" stroke-width="4" transform="scale(4, 4)"> <rect x="0" y="0" width="256" height="256" fill="white" stroke-width="4"/></g>
			<g transform="scale(0.92, -0.92) translate(60, -920)">					<path d="M 191 622 Q 171 622 171 618 Q 171 613 209 557 Q 253 494 284 494 Q 307 494 307 522 Q 307 544 298 565 Q 283 596 250 609 Q 223 621 191 622 Z" fill="black"></path>
				<path d="M 244 379 Q 238 379 207 357 Q 148 320 116 318 Q 109 318 84 322 Q 76 321 76 310 Q 76 304 97 291 Q 124 278 139 278 Q 148 278 215 306 Q 223 306 223 303 L 212 127 Q 208 65 170 22 Q 156 7 156 -1 Q 156 -20 166 -39 Q 178 -70 191 -70 Q 198 -70 209 -52 Q 253 13 321 73 Q 359 110 359 115 Q 359 123 347 123 Q 342 123 251 60 L 268 251 Q 273 290 297 313 Q 319 331 319 335 Q 319 349 292 364 Q 265 379 244 379 Z" fill="black"></path>
				<path d="M 584 723 Q 567 723 567 710 Q 567 708 569 700 Q 575 687 575 675 Q 567 623 513 526 Q 447 422 372 360 Q 332 326 332 322 Q 332 318 343 318 Q 384 318 471 397 Q 549 469 616 597 Q 620 603 624 610 L 635 630 Q 645 647 653 659 Q 664 672 664 679 Q 664 690 629 708 Q 602 723 584 723 Z" fill="black"></path>
				<path d="M 624 610 Q 636 596 656 567 Q 767 419 804 389 Q 819 379 827 379 Q 860 379 919 388 Q 987 397 987 406 Q 987 411 950 420 Q 882 436 833 467 Q 763 507 655 609 Q 643 621 635 630 C 615 652 605 633 624 610 Z" fill="black"></path>
				<path d="M 687 446 Q 675 446 657 441 Q 567 417 508 406 Q 492 404 492 398 Q 492 392 512 387 Q 537 379 559 379 Q 580 379 712 402 Q 727 407 727 423 Q 727 445 687 446 Z" fill="black"></path>
				<path d="M 446 283 Q 442 288 431 292 Q 411 303 399 303 Q 387 302 387 291 Q 387 288 400 262 Q 412 235 412 203 L 412 81 Q 412 31 402 -13 Q 391 -33 391 -41 Q 391 -55 402 -78 Q 417 -106 424 -106 Q 440 -106 447 -84 Q 451 -60 452 -25 L 452 67 L 452 91 L 452 164 L 452 186 Q 453 215 459 256 C 461 273 461 273 446 283 Z" fill="black"></path>
				<path d="M 555 322 Q 552 322 540 315 Q 516 298 494 292 Q 475 287 446 283 C 416 278 430 248 459 256 Q 464 256 494 267 Q 530 278 540 278 Q 553 278 557 272 Q 563 263 563 232 L 563 197 L 563 178 L 563 106 L 562 79 Q 560 -5 557 -13 Q 551 -26 540 -26 Q 532 -26 509 -13 Q 494 -5 487 -5 Q 479 -5 479 -9 Q 479 -12 483 -16 Q 522 -66 540 -92 Q 550 -106 555 -106 Q 575 -106 597 -64 Q 611 -36 611 17 Q 607 127 607 232 Q 607 255 617 267 Q 624 275 624 278 Q 624 292 595 309 Q 570 322 555 322 Z" fill="black"></path>
				<path d="M 563 197 Q 559 206 540 207 Q 531 207 521 204 Q 483 192 452 186 C 423 180 422 167 452 164 Q 460 163 468 163 Q 479 163 559 175 Q 561 176 563 178 C 571 185 571 185 563 197 Z" fill="black"></path>
				<path d="M 452 67 Q 460 66 468 66 Q 480 66 562 79 C 592 84 591 94 563 106 Q 558 109 544 110 Q 536 110 525 107 Q 484 97 452 91 C 423 85 422 70 452 67 Z" fill="black"></path>
				<path d="M 672 278 Q 659 278 659 270 L 666 263 Q 677 251 680 231 L 680 79 Q 683 39 695 39 Q 706 39 719 52 Q 727 69 727 101 L 727 194 Q 727 204 735 234 Q 735 245 707 265 Q 687 278 672 278 Z" fill="black"></path>
				<path d="M 775 371 Q 768 371 768 362 Q 768 358 776 346 Q 800 314 800 247 L 800 -13 Q 800 -46 787 -49 Q 787 -46 754 -37 Q 715 -22 703 -22 Q 699 -22 699 -26 Q 700 -32 708 -38 Q 730 -53 788 -131 Q 799 -146 808 -146 Q 831 -146 845 -110 Q 859 -67 859 -22 Q 859 -8 853 33 Q 848 65 848 248 Q 848 277 859 300 Q 865 312 867 314 Q 867 333 828 354 Q 797 371 775 371 Z" fill="red"></path>
</g>
		<text x="40" y="140" font-size="128" fill="#999999">11</text></g>
		<g id="id2:id1:id1" transform="matrix(1.0,0,0,1.0,1024,0.0)">			<g stroke="white" stroke-width="4" transform="scale(4, 4)"> <rect x="1" y="1" width="255" height="255" fill="white" stroke-width="0"/></g>
</g>
		<g id="id2:id2:id2" transform="matrix(1.0,0,0,1.0,2048,0.0)">			<g stroke="white" stroke-width="4" transform="scale(4, 4)"> <rect x="1" y="1" width="255" height="255" fill="white" stroke-width="0"/></g>
</g>
		<g id="id2:id3:id3" transform="matrix(1.0,0,0,1.0,3072,0.0)">			<g stroke="white" stroke-width="4" transform="scale(4, 4)"> <rect x="1" y="1" width="255" height="255" fill="white" stroke-width="0"/></g>
</g>
		<g id="id2:id4:id4" transform="matrix(1.0,0,0,1.0,4096,0.0)">			<g stroke="white" stroke-width="4" transform="scale(4, 4)"> <rect x="1" y="1" width="255" height="255" fill="white" stroke-width="0"/></g>
</g>
</g>
</svg>
