<?xml version="1.0" standalone="no"?>
<!DOCTYPE svg PUBLIC "-//W3C//DTD SVG 1.1//EN"
 "http://www.w3.org/Graphics/SVG/1.1/DTD/svg11.dtd">
<!-- generate by Japanese dictionary app com.asnsami.kanjidictionary -->

<svg xmlns="http://www.w3.org/2000/svg" xmlns:sodipodi="http://sodipodi.sourceforge.net/DTD/sodipodi-0.dtd" version="1.1" width="640" height="256" viewBox="0 0 5120 2048">
	<g id="id0:id0" transform="translate(0.0,0)">
		<g id="id0:id0:id0" transform="matrix(1.0,0,0,1.0,0,0.0)">			<g stroke="lightgray" stroke-width="4" transform="scale(4, 4)"> <rect x="0" y="0" width="256" height="256" fill="white" stroke-width="4"/></g>
			<g transform="scale(0.92, -0.92) translate(60, -920)">					<path d="M 493 744 Q 439 690 296 612 Q 292 602 298 600 Q 337 600 497 679 Q 534 704 597 722 Q 613 723 617 732 Q 620 742 607 753 Q 543 792 511 785 Q 504 781 504 770 Q 505 755 493 744 Z" fill="red"></path>
				<path d="M 276 521 Q 304 499 334 470 Q 346 460 360 460 Q 369 461 373 473 Q 377 486 369 511 Q 363 530 334 544 Q 267 568 252 563 Q 248 559 249 548 Q 252 538 276 521 Z" fill="lightgray"></path>
				<path d="M 423 595 Q 468 535 490 534 Q 503 533 509 549 Q 510 561 502 580 Q 493 593 473 602 Q 442 617 428 619 Q 419 620 418 611 Q 417 604 423 595 Z" fill="lightgray"></path>
				<path d="M 485 442 Q 498 451 513 459 Q 684 568 719 596 Q 746 615 767 621 Q 783 625 786 634 Q 786 641 776 651 Q 748 676 721 688 Q 705 695 694 679 Q 660 604 410 444 Q 329 392 216 340 Q 209 337 209 333 Q 210 330 218 330 Q 276 334 307 350 Q 377 380 451 421 L 485 442 Z" fill="lightgray"></path>
				<path d="M 604 244 Q 635 160 593 26 Q 577 -17 564 -24 Q 555 -28 479 -15 Q 437 -5 436 -12 Q 435 -21 448 -35 Q 515 -92 542 -130 Q 557 -151 573 -147 Q 595 -143 618 -112 Q 643 -70 659 3 Q 678 102 671 165 Q 655 336 487 441 Q 486 442 485 442 C 460 458 426 438 451 421 Q 467 411 484 397 L 536 349 Q 554 330 570 306 L 604 244 Z" fill="lightgray"></path>
				<path d="M 484 397 Q 483 396 483 393 Q 449 303 206 158 Q 185 148 210 147 Q 297 147 465 287 Q 477 303 536 349 C 560 368 494 425 484 397 Z" fill="lightgray"></path>
				<path d="M 570 306 Q 569 305 567 301 Q 477 151 297 24 Q 251 -7 186 -47 Q 170 -60 181 -63 Q 190 -69 205 -65 Q 353 -26 514 137 Q 527 152 542 167 Q 597 225 596 229 Q 600 236 604 244 C 618 271 586 332 570 306 Z" fill="lightgray"></path>
</g>
		<text x="40" y="140" font-size="128" fill="#999999">1</text></g>
		<g id="id0:id1:id1" transform="matrix(1.0,0,0,1.0,1024,0.0)">			<g stroke="lightgray" stroke-width="4" transform="scale(4, 4)"> <rect x="0" y="0" width="256" height="256" fill="white" stroke-width="4"/></g>
			<g transform="scale(0.92, -0.92) translate(60, -920)">					<path d="M 493 744 Q 439 690 296 612 Q 292 602 298 600 Q 337 600 497 679 Q 534 704 597 722 Q 613 723 617 732 Q 620 742 607 753 Q 543 792 511 785 Q 504 781 504 770 Q 505 755 493 744 Z" fill="black"></path>
				<path d="M 276 521 Q 304 499 334 470 Q 346 460 360 460 Q 369 461 373 473 Q 377 486 369 511 Q 363 530 334 544 Q 267 568 252 563 Q 248 559 249 548 Q 252 538 276 521 Z" fill="red"></path>
				<path d="M 423 595 Q 468 535 490 534 Q 503 533 509 549 Q 510 561 502 580 Q 493 593 473 602 Q 442 617 428 619 Q 419 620 418 611 Q 417 604 423 595 Z" fill="lightgray"></path>
				<path d="M 485 442 Q 498 451 513 459 Q 684 568 719 596 Q 746 615 767 621 Q 783 625 786 634 Q 786 641 776 651 Q 748 676 721 688 Q 705 695 694 679 Q 660 604 410 444 Q 329 392 216 340 Q 209 337 209 333 Q 210 330 218 330 Q 276 334 307 350 Q 377 380 451 421 L 485 442 Z" fill="lightgray"></path>
				<path d="M 604 244 Q 635 160 593 26 Q 577 -17 564 -24 Q 555 -28 479 -15 Q 437 -5 436 -12 Q 435 -21 448 -35 Q 515 -92 542 -130 Q 557 -151 573 -147 Q 595 -143 618 -112 Q 643 -70 659 3 Q 678 102 671 165 Q 655 336 487 441 Q 486 442 485 442 C 460 458 426 438 451 421 Q 467 411 484 397 L 536 349 Q 554 330 570 306 L 604 244 Z" fill="lightgray"></path>
				<path d="M 484 397 Q 483 396 483 393 Q 449 303 206 158 Q 185 148 210 147 Q 297 147 465 287 Q 477 303 536 349 C 560 368 494 425 484 397 Z" fill="lightgray"></path>
				<path d="M 570 306 Q 569 305 567 301 Q 477 151 297 24 Q 251 -7 186 -47 Q 170 -60 181 -63 Q 190 -69 205 -65 Q 353 -26 514 137 Q 527 152 542 167 Q 597 225 596 229 Q 600 236 604 244 C 618 271 586 332 570 306 Z" fill="lightgray"></path>
</g>
		<text x="40" y="140" font-size="128" fill="#999999">2</text></g>
		<g id="id0:id2:id2" transform="matrix(1.0,0,0,1.0,2048,0.0)">			<g stroke="lightgray" stroke-width="4" transform="scale(4, 4)"> <rect x="0" y="0" width="256" height="256" fill="white" stroke-width="4"/></g>
			<g transform="scale(0.92, -0.92) translate(60, -920)">					<path d="M 493 744 Q 439 690 296 612 Q 292 602 298 600 Q 337 600 497 679 Q 534 704 597 722 Q 613 723 617 732 Q 620 742 607 753 Q 543 792 511 785 Q 504 781 504 770 Q 505 755 493 744 Z" fill="black"></path>
				<path d="M 276 521 Q 304 499 334 470 Q 346 460 360 460 Q 369 461 373 473 Q 377 486 369 511 Q 363 530 334 544 Q 267 568 252 563 Q 248 559 249 548 Q 252 538 276 521 Z" fill="black"></path>
				<path d="M 423 595 Q 468 535 490 534 Q 503 533 509 549 Q 510 561 502 580 Q 493 593 473 602 Q 442 617 428 619 Q 419 620 418 611 Q 417 604 423 595 Z" fill="red"></path>
				<path d="M 485 442 Q 498 451 513 459 Q 684 568 719 596 Q 746 615 767 621 Q 783 625 786 634 Q 786 641 776 651 Q 748 676 721 688 Q 705 695 694 679 Q 660 604 410 444 Q 329 392 216 340 Q 209 337 209 333 Q 210 330 218 330 Q 276 334 307 350 Q 377 380 451 421 L 485 442 Z" fill="lightgray"></path>
				<path d="M 604 244 Q 635 160 593 26 Q 577 -17 564 -24 Q 555 -28 479 -15 Q 437 -5 436 -12 Q 435 -21 448 -35 Q 515 -92 542 -130 Q 557 -151 573 -147 Q 595 -143 618 -112 Q 643 -70 659 3 Q 678 102 671 165 Q 655 336 487 441 Q 486 442 485 442 C 460 458 426 438 451 421 Q 467 411 484 397 L 536 349 Q 554 330 570 306 L 604 244 Z" fill="lightgray"></path>
				<path d="M 484 397 Q 483 396 483 393 Q 449 303 206 158 Q 185 148 210 147 Q 297 147 465 287 Q 477 303 536 349 C 560 368 494 425 484 397 Z" fill="lightgray"></path>
				<path d="M 570 306 Q 569 305 567 301 Q 477 151 297 24 Q 251 -7 186 -47 Q 170 -60 181 -63 Q 190 -69 205 -65 Q 353 -26 514 137 Q 527 152 542 167 Q 597 225 596 229 Q 600 236 604 244 C 618 271 586 332 570 306 Z" fill="lightgray"></path>
</g>
		<text x="40" y="140" font-size="128" fill="#999999">3</text></g>
		<g id="id0:id3:id3" transform="matrix(1.0,0,0,1.0,3072,0.0)">			<g stroke="lightgray" stroke-width="4" transform="scale(4, 4)"> <rect x="0" y="0" width="256" height="256" fill="white" stroke-width="4"/></g>
			<g transform="scale(0.92, -0.92) translate(60, -920)">					<path d="M 493 744 Q 439 690 296 612 Q 292 602 298 600 Q 337 600 497 679 Q 534 704 597 722 Q 613 723 617 732 Q 620 742 607 753 Q 543 792 511 785 Q 504 781 504 770 Q 505 755 493 744 Z" fill="black"></path>
				<path d="M 276 521 Q 304 499 334 470 Q 346 460 360 460 Q 369 461 373 473 Q 377 486 369 511 Q 363 530 334 544 Q 267 568 252 563 Q 248 559 249 548 Q 252 538 276 521 Z" fill="black"></path>
				<path d="M 423 595 Q 468 535 490 534 Q 503 533 509 549 Q 510 561 502 580 Q 493 593 473 602 Q 442 617 428 619 Q 419 620 418 611 Q 417 604 423 595 Z" fill="black"></path>
				<path d="M 485 442 Q 498 451 513 459 Q 684 568 719 596 Q 746 615 767 621 Q 783 625 786 634 Q 786 641 776 651 Q 748 676 721 688 Q 705 695 694 679 Q 660 604 410 444 Q 329 392 216 340 Q 209 337 209 333 Q 210 330 218 330 Q 276 334 307 350 Q 377 380 451 421 L 485 442 Z" fill="red"></path>
				<path d="M 604 244 Q 635 160 593 26 Q 577 -17 564 -24 Q 555 -28 479 -15 Q 437 -5 436 -12 Q 435 -21 448 -35 Q 515 -92 542 -130 Q 557 -151 573 -147 Q 595 -143 618 -112 Q 643 -70 659 3 Q 678 102 671 165 Q 655 336 487 441 Q 486 442 485 442 C 460 458 426 438 451 421 Q 467 411 484 397 L 536 349 Q 554 330 570 306 L 604 244 Z" fill="lightgray"></path>
				<path d="M 484 397 Q 483 396 483 393 Q 449 303 206 158 Q 185 148 210 147 Q 297 147 465 287 Q 477 303 536 349 C 560 368 494 425 484 397 Z" fill="lightgray"></path>
				<path d="M 570 306 Q 569 305 567 301 Q 477 151 297 24 Q 251 -7 186 -47 Q 170 -60 181 -63 Q 190 -69 205 -65 Q 353 -26 514 137 Q 527 152 542 167 Q 597 225 596 229 Q 600 236 604 244 C 618 271 586 332 570 306 Z" fill="lightgray"></path>
</g>
		<text x="40" y="140" font-size="128" fill="#999999">4</text></g>
		<g id="id0:id4:id4" transform="matrix(1.0,0,0,1.0,4096,0.0)">			<g stroke="lightgray" stroke-width="4" transform="scale(4, 4)"> <rect x="0" y="0" width="256" height="256" fill="white" stroke-width="4"/></g>
			<g transform="scale(0.92, -0.92) translate(60, -920)">					<path d="M 493 744 Q 439 690 296 612 Q 292 602 298 600 Q 337 600 497 679 Q 534 704 597 722 Q 613 723 617 732 Q 620 742 607 753 Q 543 792 511 785 Q 504 781 504 770 Q 505 755 493 744 Z" fill="black"></path>
				<path d="M 276 521 Q 304 499 334 470 Q 346 460 360 460 Q 369 461 373 473 Q 377 486 369 511 Q 363 530 334 544 Q 267 568 252 563 Q 248 559 249 548 Q 252 538 276 521 Z" fill="black"></path>
				<path d="M 423 595 Q 468 535 490 534 Q 503 533 509 549 Q 510 561 502 580 Q 493 593 473 602 Q 442 617 428 619 Q 419 620 418 611 Q 417 604 423 595 Z" fill="black"></path>
				<path d="M 485 442 Q 498 451 513 459 Q 684 568 719 596 Q 746 615 767 621 Q 783 625 786 634 Q 786 641 776 651 Q 748 676 721 688 Q 705 695 694 679 Q 660 604 410 444 Q 329 392 216 340 Q 209 337 209 333 Q 210 330 218 330 Q 276 334 307 350 Q 377 380 451 421 L 485 442 Z" fill="black"></path>
				<path d="M 604 244 Q 635 160 593 26 Q 577 -17 564 -24 Q 555 -28 479 -15 Q 437 -5 436 -12 Q 435 -21 448 -35 Q 515 -92 542 -130 Q 557 -151 573 -147 Q 595 -143 618 -112 Q 643 -70 659 3 Q 678 102 671 165 Q 655 336 487 441 Q 486 442 485 442 C 460 458 426 438 451 421 Q 467 411 484 397 L 536 349 Q 554 330 570 306 L 604 244 Z" fill="red"></path>
				<path d="M 484 397 Q 483 396 483 393 Q 449 303 206 158 Q 185 148 210 147 Q 297 147 465 287 Q 477 303 536 349 C 560 368 494 425 484 397 Z" fill="lightgray"></path>
				<path d="M 570 306 Q 569 305 567 301 Q 477 151 297 24 Q 251 -7 186 -47 Q 170 -60 181 -63 Q 190 -69 205 -65 Q 353 -26 514 137 Q 527 152 542 167 Q 597 225 596 229 Q 600 236 604 244 C 618 271 586 332 570 306 Z" fill="lightgray"></path>
</g>
		<text x="40" y="140" font-size="128" fill="#999999">5</text></g>
</g>
	<g id="id1:id1" transform="translate(0.0,1024)">
		<g id="id1:id0:id0" transform="matrix(1.0,0,0,1.0,0,0.0)">			<g stroke="lightgray" stroke-width="4" transform="scale(4, 4)"> <rect x="0" y="0" width="256" height="256" fill="white" stroke-width="4"/></g>
			<g transform="scale(0.92, -0.92) translate(60, -920)">					<path d="M 493 744 Q 439 690 296 612 Q 292 602 298 600 Q 337 600 497 679 Q 534 704 597 722 Q 613 723 617 732 Q 620 742 607 753 Q 543 792 511 785 Q 504 781 504 770 Q 505 755 493 744 Z" fill="black"></path>
				<path d="M 276 521 Q 304 499 334 470 Q 346 460 360 460 Q 369 461 373 473 Q 377 486 369 511 Q 363 530 334 544 Q 267 568 252 563 Q 248 559 249 548 Q 252 538 276 521 Z" fill="black"></path>
				<path d="M 423 595 Q 468 535 490 534 Q 503 533 509 549 Q 510 561 502 580 Q 493 593 473 602 Q 442 617 428 619 Q 419 620 418 611 Q 417 604 423 595 Z" fill="black"></path>
				<path d="M 485 442 Q 498 451 513 459 Q 684 568 719 596 Q 746 615 767 621 Q 783 625 786 634 Q 786 641 776 651 Q 748 676 721 688 Q 705 695 694 679 Q 660 604 410 444 Q 329 392 216 340 Q 209 337 209 333 Q 210 330 218 330 Q 276 334 307 350 Q 377 380 451 421 L 485 442 Z" fill="black"></path>
				<path d="M 604 244 Q 635 160 593 26 Q 577 -17 564 -24 Q 555 -28 479 -15 Q 437 -5 436 -12 Q 435 -21 448 -35 Q 515 -92 542 -130 Q 557 -151 573 -147 Q 595 -143 618 -112 Q 643 -70 659 3 Q 678 102 671 165 Q 655 336 487 441 Q 486 442 485 442 C 460 458 426 438 451 421 Q 467 411 484 397 L 536 349 Q 554 330 570 306 L 604 244 Z" fill="black"></path>
				<path d="M 484 397 Q 483 396 483 393 Q 449 303 206 158 Q 185 148 210 147 Q 297 147 465 287 Q 477 303 536 349 C 560 368 494 425 484 397 Z" fill="red"></path>
				<path d="M 570 306 Q 569 305 567 301 Q 477 151 297 24 Q 251 -7 186 -47 Q 170 -60 181 -63 Q 190 -69 205 -65 Q 353 -26 514 137 Q 527 152 542 167 Q 597 225 596 229 Q 600 236 604 244 C 618 271 586 332 570 306 Z" fill="lightgray"></path>
</g>
		<text x="40" y="140" font-size="128" fill="#999999">6</text></g>
		<g id="id1:id1:id1" transform="matrix(1.0,0,0,1.0,1024,0.0)">			<g stroke="lightgray" stroke-width="4" transform="scale(4, 4)"> <rect x="0" y="0" width="256" height="256" fill="white" stroke-width="4"/></g>
			<g transform="scale(0.92, -0.92) translate(60, -920)">					<path d="M 493 744 Q 439 690 296 612 Q 292 602 298 600 Q 337 600 497 679 Q 534 704 597 722 Q 613 723 617 732 Q 620 742 607 753 Q 543 792 511 785 Q 504 781 504 770 Q 505 755 493 744 Z" fill="black"></path>
				<path d="M 276 521 Q 304 499 334 470 Q 346 460 360 460 Q 369 461 373 473 Q 377 486 369 511 Q 363 530 334 544 Q 267 568 252 563 Q 248 559 249 548 Q 252 538 276 521 Z" fill="black"></path>
				<path d="M 423 595 Q 468 535 490 534 Q 503 533 509 549 Q 510 561 502 580 Q 493 593 473 602 Q 442 617 428 619 Q 419 620 418 611 Q 417 604 423 595 Z" fill="black"></path>
				<path d="M 485 442 Q 498 451 513 459 Q 684 568 719 596 Q 746 615 767 621 Q 783 625 786 634 Q 786 641 776 651 Q 748 676 721 688 Q 705 695 694 679 Q 660 604 410 444 Q 329 392 216 340 Q 209 337 209 333 Q 210 330 218 330 Q 276 334 307 350 Q 377 380 451 421 L 485 442 Z" fill="black"></path>
				<path d="M 604 244 Q 635 160 593 26 Q 577 -17 564 -24 Q 555 -28 479 -15 Q 437 -5 436 -12 Q 435 -21 448 -35 Q 515 -92 542 -130 Q 557 -151 573 -147 Q 595 -143 618 -112 Q 643 -70 659 3 Q 678 102 671 165 Q 655 336 487 441 Q 486 442 485 442 C 460 458 426 438 451 421 Q 467 411 484 397 L 536 349 Q 554 330 570 306 L 604 244 Z" fill="black"></path>
				<path d="M 484 397 Q 483 396 483 393 Q 449 303 206 158 Q 185 148 210 147 Q 297 147 465 287 Q 477 303 536 349 C 560 368 494 425 484 397 Z" fill="black"></path>
				<path d="M 570 306 Q 569 305 567 301 Q 477 151 297 24 Q 251 -7 186 -47 Q 170 -60 181 -63 Q 190 -69 205 -65 Q 353 -26 514 137 Q 527 152 542 167 Q 597 225 596 229 Q 600 236 604 244 C 618 271 586 332 570 306 Z" fill="red"></path>
</g>
		<text x="40" y="140" font-size="128" fill="#999999">7</text></g>
		<g id="id1:id2:id2" transform="matrix(1.0,0,0,1.0,2048,0.0)">			<g stroke="white" stroke-width="4" transform="scale(4, 4)"> <rect x="1" y="1" width="255" height="255" fill="white" stroke-width="0"/></g>
</g>
		<g id="id1:id3:id3" transform="matrix(1.0,0,0,1.0,3072,0.0)">			<g stroke="white" stroke-width="4" transform="scale(4, 4)"> <rect x="1" y="1" width="255" height="255" fill="white" stroke-width="0"/></g>
</g>
		<g id="id1:id4:id4" transform="matrix(1.0,0,0,1.0,4096,0.0)">			<g stroke="white" stroke-width="4" transform="scale(4, 4)"> <rect x="1" y="1" width="255" height="255" fill="white" stroke-width="0"/></g>
</g>
</g>
</svg>
