<?xml version="1.0" standalone="no"?>
<!DOCTYPE svg PUBLIC "-//W3C//DTD SVG 1.1//EN"
 "http://www.w3.org/Graphics/SVG/1.1/DTD/svg11.dtd">
<!-- generate by Japanese dictionary app com.asnsami.kanjidictionary -->

<svg xmlns="http://www.w3.org/2000/svg" xmlns:sodipodi="http://sodipodi.sourceforge.net/DTD/sodipodi-0.dtd" version="1.1" width="640" height="384" viewBox="0 0 5120 3072">
	<g id="id0:id0" transform="translate(0.0,0)">
		<g id="id0:id0:id0" transform="matrix(1.0,0,0,1.0,0,0.0)">			<g stroke="lightgray" stroke-width="4" transform="scale(4, 4)"> <rect x="0" y="0" width="256" height="256" fill="white" stroke-width="4"/></g>
			<g transform="scale(0.92, -0.92) translate(60, -920)">					<path d="M 192 580 L 170 572 C 142 562 146 540 175 547 L 249 566 Q 260 568 264 562 Q 268 555 262 542 L 234 477 Q 228 463 228 457 Q 228 451 231 441 C 238 412 258 430 264 459 Q 265 485 330 553 L 347 570 Q 354 578 354 582 Q 354 585 346 594 Q 335 605 295 622 Q 281 626 276 625 Q 272 623 261 614 L 230 597 Q 212 588 192 580 Z" fill="red"></path>
				<path d="M 231 441 L 244 414 Q 260 380 262 353 Q 264 326 256 321 Q 248 316 230 322 L 189 330 Q 183 331 180 327 Q 178 322 183 319 L 214 296 Q 219 292 240 272 L 264 252 Q 271 244 276 243 Q 281 242 296 253 Q 309 262 318 282 Q 339 333 294 404 L 272 435 Q 263 449 264 459 C 261 489 218 468 231 441 Z" fill="lightgray"></path>
				<path d="M 170 572 L 147 583 Q 140 588 122 588 Q 92 587 112 560 Q 128 532 128 450 L 126 307 L 120 210 Q 116 126 106 72 L 97 27 Q 90 -6 92 -19 Q 95 -33 104 -52 Q 127 -100 139 -76 Q 152 -52 153 -24 L 157 58 Q 160 121 162 136 L 175 547 C 176 569 176 569 170 572 Z" fill="lightgray"></path>
				<path d="M 482 366 L 476 433 L 463 538 C 461 556 461 556 442 562 L 424 568 Q 414 571 404 572 Q 387 573 392 560 Q 395 556 402 549 Q 419 530 427 490 L 444 358 Q 448 322 465 322 Q 472 322 481 336 C 484 341 484 341 482 366 Z" fill="lightgray"></path>
				<path d="M 712 538 L 706 479 L 683 368 C 680 353 680 353 682 350 L 690 339 Q 694 324 714 336 L 722 345 Q 728 351 737 382 L 767 500 Q 771 515 778 528 Q 795 554 795 562 Q 795 570 766 591 Q 724 614 716 614 Q 708 614 694 609 Q 680 603 662 599 L 608 585 Q 564 573 442 562 C 412 559 433 535 463 538 L 536 545 L 588 554 L 684 569 Q 700 572 707 564 Q 714 555 712 538 Z" fill="lightgray"></path>
				<path d="M 604 446 L 677 455 Q 685 458 686 471 Q 687 495 625 481 L 605 478 L 551 468 L 503 460 Q 493 457 494 448 Q 496 429 531 438 L 551 440 L 604 446 Z" fill="lightgray"></path>
				<path d="M 683 368 L 669 381 Q 662 387 644 385 L 602 380 L 553 374 L 482 366 C 452 363 451 333 481 336 L 552 344 L 600 347 L 682 350 C 702 351 702 351 683 368 Z" fill="lightgray"></path>
				<path d="M 363 193 L 368 42 Q 368 15 364 -3 Q 361 -21 361 -25 Q 362 -30 370 -47 Q 379 -64 392 -64 Q 408 -63 408 -18 L 406 198 L 408 229 L 410 243 L 414 256 Q 414 275 358 286 Q 348 286 345 282 Q 343 278 348 264 Q 353 250 358 224 L 363 193 Z" fill="lightgray"></path>
				<path d="M 341 224 L 298 228 Q 283 226 295 213 Q 306 193 363 193 L 406 198 L 551 216 L 596 221 L 764 232 Q 787 235 795 227 Q 810 212 806 166 Q 799 77 797 62 L 793 31 Q 786 5 767 3 Q 762 3 742 11 L 704 24 Q 697 26 693 24 Q 690 22 694 16 L 726 -24 Q 745 -49 751 -65 Q 757 -82 761 -83 Q 766 -85 771 -86 Q 776 -88 788 -80 Q 825 -62 838 -18 Q 852 25 860 114 Q 863 181 871 197 L 878 215 Q 884 224 884 229 Q 885 234 873 245 Q 830 286 802 286 Q 796 286 777 280 Q 758 273 712 268 L 597 254 L 551 246 L 408 229 L 358 224 L 341 224 Z" fill="lightgray"></path>
				<path d="M 602 380 L 602 410 L 604 446 L 605 478 L 606 492 Q 606 495 611 512 Q 616 529 615 534 Q 612 544 588 554 C 561 567 522 572 536 545 L 545 528 Q 549 518 551 490 L 551 468 L 551 440 L 553 374 L 552 344 L 551 246 L 551 216 L 551 121 C 551 91 592 100 593 130 L 596 221 L 597 254 L 600 347 L 602 380 Z" fill="lightgray"></path>
				<path d="M 551 121 L 513 114 Q 487 109 474 110 L 460 113 Q 450 114 441 114 Q 423 114 430 100 Q 437 86 455 73 Q 463 64 466 63 L 474 59 Q 479 56 482 56 Q 485 55 489 55 Q 494 54 498 56 Q 502 57 505 60 L 533 73 Q 557 84 562 85 L 687 128 C 715 138 705 156 676 149 L 593 130 L 551 121 Z" fill="lightgray"></path>
				<path d="M 687 128 L 708 85 Q 712 72 723 72 Q 734 71 744 86 Q 763 113 742 148 Q 736 157 716 170 Q 696 183 683 188 L 664 196 Q 657 199 654 196 Q 652 193 656 187 L 676 149 L 687 128 Z" fill="lightgray"></path>
</g>
		<text x="40" y="140" font-size="128" fill="#999999">1</text></g>
		<g id="id0:id1:id1" transform="matrix(1.0,0,0,1.0,1024,0.0)">			<g stroke="lightgray" stroke-width="4" transform="scale(4, 4)"> <rect x="0" y="0" width="256" height="256" fill="white" stroke-width="4"/></g>
			<g transform="scale(0.92, -0.92) translate(60, -920)">					<path d="M 192 580 L 170 572 C 142 562 146 540 175 547 L 249 566 Q 260 568 264 562 Q 268 555 262 542 L 234 477 Q 228 463 228 457 Q 228 451 231 441 C 238 412 258 430 264 459 Q 265 485 330 553 L 347 570 Q 354 578 354 582 Q 354 585 346 594 Q 335 605 295 622 Q 281 626 276 625 Q 272 623 261 614 L 230 597 Q 212 588 192 580 Z" fill="black"></path>
				<path d="M 231 441 L 244 414 Q 260 380 262 353 Q 264 326 256 321 Q 248 316 230 322 L 189 330 Q 183 331 180 327 Q 178 322 183 319 L 214 296 Q 219 292 240 272 L 264 252 Q 271 244 276 243 Q 281 242 296 253 Q 309 262 318 282 Q 339 333 294 404 L 272 435 Q 263 449 264 459 C 261 489 218 468 231 441 Z" fill="red"></path>
				<path d="M 170 572 L 147 583 Q 140 588 122 588 Q 92 587 112 560 Q 128 532 128 450 L 126 307 L 120 210 Q 116 126 106 72 L 97 27 Q 90 -6 92 -19 Q 95 -33 104 -52 Q 127 -100 139 -76 Q 152 -52 153 -24 L 157 58 Q 160 121 162 136 L 175 547 C 176 569 176 569 170 572 Z" fill="lightgray"></path>
				<path d="M 482 366 L 476 433 L 463 538 C 461 556 461 556 442 562 L 424 568 Q 414 571 404 572 Q 387 573 392 560 Q 395 556 402 549 Q 419 530 427 490 L 444 358 Q 448 322 465 322 Q 472 322 481 336 C 484 341 484 341 482 366 Z" fill="lightgray"></path>
				<path d="M 712 538 L 706 479 L 683 368 C 680 353 680 353 682 350 L 690 339 Q 694 324 714 336 L 722 345 Q 728 351 737 382 L 767 500 Q 771 515 778 528 Q 795 554 795 562 Q 795 570 766 591 Q 724 614 716 614 Q 708 614 694 609 Q 680 603 662 599 L 608 585 Q 564 573 442 562 C 412 559 433 535 463 538 L 536 545 L 588 554 L 684 569 Q 700 572 707 564 Q 714 555 712 538 Z" fill="lightgray"></path>
				<path d="M 604 446 L 677 455 Q 685 458 686 471 Q 687 495 625 481 L 605 478 L 551 468 L 503 460 Q 493 457 494 448 Q 496 429 531 438 L 551 440 L 604 446 Z" fill="lightgray"></path>
				<path d="M 683 368 L 669 381 Q 662 387 644 385 L 602 380 L 553 374 L 482 366 C 452 363 451 333 481 336 L 552 344 L 600 347 L 682 350 C 702 351 702 351 683 368 Z" fill="lightgray"></path>
				<path d="M 363 193 L 368 42 Q 368 15 364 -3 Q 361 -21 361 -25 Q 362 -30 370 -47 Q 379 -64 392 -64 Q 408 -63 408 -18 L 406 198 L 408 229 L 410 243 L 414 256 Q 414 275 358 286 Q 348 286 345 282 Q 343 278 348 264 Q 353 250 358 224 L 363 193 Z" fill="lightgray"></path>
				<path d="M 341 224 L 298 228 Q 283 226 295 213 Q 306 193 363 193 L 406 198 L 551 216 L 596 221 L 764 232 Q 787 235 795 227 Q 810 212 806 166 Q 799 77 797 62 L 793 31 Q 786 5 767 3 Q 762 3 742 11 L 704 24 Q 697 26 693 24 Q 690 22 694 16 L 726 -24 Q 745 -49 751 -65 Q 757 -82 761 -83 Q 766 -85 771 -86 Q 776 -88 788 -80 Q 825 -62 838 -18 Q 852 25 860 114 Q 863 181 871 197 L 878 215 Q 884 224 884 229 Q 885 234 873 245 Q 830 286 802 286 Q 796 286 777 280 Q 758 273 712 268 L 597 254 L 551 246 L 408 229 L 358 224 L 341 224 Z" fill="lightgray"></path>
				<path d="M 602 380 L 602 410 L 604 446 L 605 478 L 606 492 Q 606 495 611 512 Q 616 529 615 534 Q 612 544 588 554 C 561 567 522 572 536 545 L 545 528 Q 549 518 551 490 L 551 468 L 551 440 L 553 374 L 552 344 L 551 246 L 551 216 L 551 121 C 551 91 592 100 593 130 L 596 221 L 597 254 L 600 347 L 602 380 Z" fill="lightgray"></path>
				<path d="M 551 121 L 513 114 Q 487 109 474 110 L 460 113 Q 450 114 441 114 Q 423 114 430 100 Q 437 86 455 73 Q 463 64 466 63 L 474 59 Q 479 56 482 56 Q 485 55 489 55 Q 494 54 498 56 Q 502 57 505 60 L 533 73 Q 557 84 562 85 L 687 128 C 715 138 705 156 676 149 L 593 130 L 551 121 Z" fill="lightgray"></path>
				<path d="M 687 128 L 708 85 Q 712 72 723 72 Q 734 71 744 86 Q 763 113 742 148 Q 736 157 716 170 Q 696 183 683 188 L 664 196 Q 657 199 654 196 Q 652 193 656 187 L 676 149 L 687 128 Z" fill="lightgray"></path>
</g>
		<text x="40" y="140" font-size="128" fill="#999999">2</text></g>
		<g id="id0:id2:id2" transform="matrix(1.0,0,0,1.0,2048,0.0)">			<g stroke="lightgray" stroke-width="4" transform="scale(4, 4)"> <rect x="0" y="0" width="256" height="256" fill="white" stroke-width="4"/></g>
			<g transform="scale(0.92, -0.92) translate(60, -920)">					<path d="M 192 580 L 170 572 C 142 562 146 540 175 547 L 249 566 Q 260 568 264 562 Q 268 555 262 542 L 234 477 Q 228 463 228 457 Q 228 451 231 441 C 238 412 258 430 264 459 Q 265 485 330 553 L 347 570 Q 354 578 354 582 Q 354 585 346 594 Q 335 605 295 622 Q 281 626 276 625 Q 272 623 261 614 L 230 597 Q 212 588 192 580 Z" fill="black"></path>
				<path d="M 231 441 L 244 414 Q 260 380 262 353 Q 264 326 256 321 Q 248 316 230 322 L 189 330 Q 183 331 180 327 Q 178 322 183 319 L 214 296 Q 219 292 240 272 L 264 252 Q 271 244 276 243 Q 281 242 296 253 Q 309 262 318 282 Q 339 333 294 404 L 272 435 Q 263 449 264 459 C 261 489 218 468 231 441 Z" fill="black"></path>
				<path d="M 170 572 L 147 583 Q 140 588 122 588 Q 92 587 112 560 Q 128 532 128 450 L 126 307 L 120 210 Q 116 126 106 72 L 97 27 Q 90 -6 92 -19 Q 95 -33 104 -52 Q 127 -100 139 -76 Q 152 -52 153 -24 L 157 58 Q 160 121 162 136 L 175 547 C 176 569 176 569 170 572 Z" fill="red"></path>
				<path d="M 482 366 L 476 433 L 463 538 C 461 556 461 556 442 562 L 424 568 Q 414 571 404 572 Q 387 573 392 560 Q 395 556 402 549 Q 419 530 427 490 L 444 358 Q 448 322 465 322 Q 472 322 481 336 C 484 341 484 341 482 366 Z" fill="lightgray"></path>
				<path d="M 712 538 L 706 479 L 683 368 C 680 353 680 353 682 350 L 690 339 Q 694 324 714 336 L 722 345 Q 728 351 737 382 L 767 500 Q 771 515 778 528 Q 795 554 795 562 Q 795 570 766 591 Q 724 614 716 614 Q 708 614 694 609 Q 680 603 662 599 L 608 585 Q 564 573 442 562 C 412 559 433 535 463 538 L 536 545 L 588 554 L 684 569 Q 700 572 707 564 Q 714 555 712 538 Z" fill="lightgray"></path>
				<path d="M 604 446 L 677 455 Q 685 458 686 471 Q 687 495 625 481 L 605 478 L 551 468 L 503 460 Q 493 457 494 448 Q 496 429 531 438 L 551 440 L 604 446 Z" fill="lightgray"></path>
				<path d="M 683 368 L 669 381 Q 662 387 644 385 L 602 380 L 553 374 L 482 366 C 452 363 451 333 481 336 L 552 344 L 600 347 L 682 350 C 702 351 702 351 683 368 Z" fill="lightgray"></path>
				<path d="M 363 193 L 368 42 Q 368 15 364 -3 Q 361 -21 361 -25 Q 362 -30 370 -47 Q 379 -64 392 -64 Q 408 -63 408 -18 L 406 198 L 408 229 L 410 243 L 414 256 Q 414 275 358 286 Q 348 286 345 282 Q 343 278 348 264 Q 353 250 358 224 L 363 193 Z" fill="lightgray"></path>
				<path d="M 341 224 L 298 228 Q 283 226 295 213 Q 306 193 363 193 L 406 198 L 551 216 L 596 221 L 764 232 Q 787 235 795 227 Q 810 212 806 166 Q 799 77 797 62 L 793 31 Q 786 5 767 3 Q 762 3 742 11 L 704 24 Q 697 26 693 24 Q 690 22 694 16 L 726 -24 Q 745 -49 751 -65 Q 757 -82 761 -83 Q 766 -85 771 -86 Q 776 -88 788 -80 Q 825 -62 838 -18 Q 852 25 860 114 Q 863 181 871 197 L 878 215 Q 884 224 884 229 Q 885 234 873 245 Q 830 286 802 286 Q 796 286 777 280 Q 758 273 712 268 L 597 254 L 551 246 L 408 229 L 358 224 L 341 224 Z" fill="lightgray"></path>
				<path d="M 602 380 L 602 410 L 604 446 L 605 478 L 606 492 Q 606 495 611 512 Q 616 529 615 534 Q 612 544 588 554 C 561 567 522 572 536 545 L 545 528 Q 549 518 551 490 L 551 468 L 551 440 L 553 374 L 552 344 L 551 246 L 551 216 L 551 121 C 551 91 592 100 593 130 L 596 221 L 597 254 L 600 347 L 602 380 Z" fill="lightgray"></path>
				<path d="M 551 121 L 513 114 Q 487 109 474 110 L 460 113 Q 450 114 441 114 Q 423 114 430 100 Q 437 86 455 73 Q 463 64 466 63 L 474 59 Q 479 56 482 56 Q 485 55 489 55 Q 494 54 498 56 Q 502 57 505 60 L 533 73 Q 557 84 562 85 L 687 128 C 715 138 705 156 676 149 L 593 130 L 551 121 Z" fill="lightgray"></path>
				<path d="M 687 128 L 708 85 Q 712 72 723 72 Q 734 71 744 86 Q 763 113 742 148 Q 736 157 716 170 Q 696 183 683 188 L 664 196 Q 657 199 654 196 Q 652 193 656 187 L 676 149 L 687 128 Z" fill="lightgray"></path>
</g>
		<text x="40" y="140" font-size="128" fill="#999999">3</text></g>
		<g id="id0:id3:id3" transform="matrix(1.0,0,0,1.0,3072,0.0)">			<g stroke="lightgray" stroke-width="4" transform="scale(4, 4)"> <rect x="0" y="0" width="256" height="256" fill="white" stroke-width="4"/></g>
			<g transform="scale(0.92, -0.92) translate(60, -920)">					<path d="M 192 580 L 170 572 C 142 562 146 540 175 547 L 249 566 Q 260 568 264 562 Q 268 555 262 542 L 234 477 Q 228 463 228 457 Q 228 451 231 441 C 238 412 258 430 264 459 Q 265 485 330 553 L 347 570 Q 354 578 354 582 Q 354 585 346 594 Q 335 605 295 622 Q 281 626 276 625 Q 272 623 261 614 L 230 597 Q 212 588 192 580 Z" fill="black"></path>
				<path d="M 231 441 L 244 414 Q 260 380 262 353 Q 264 326 256 321 Q 248 316 230 322 L 189 330 Q 183 331 180 327 Q 178 322 183 319 L 214 296 Q 219 292 240 272 L 264 252 Q 271 244 276 243 Q 281 242 296 253 Q 309 262 318 282 Q 339 333 294 404 L 272 435 Q 263 449 264 459 C 261 489 218 468 231 441 Z" fill="black"></path>
				<path d="M 170 572 L 147 583 Q 140 588 122 588 Q 92 587 112 560 Q 128 532 128 450 L 126 307 L 120 210 Q 116 126 106 72 L 97 27 Q 90 -6 92 -19 Q 95 -33 104 -52 Q 127 -100 139 -76 Q 152 -52 153 -24 L 157 58 Q 160 121 162 136 L 175 547 C 176 569 176 569 170 572 Z" fill="black"></path>
				<path d="M 482 366 L 476 433 L 463 538 C 461 556 461 556 442 562 L 424 568 Q 414 571 404 572 Q 387 573 392 560 Q 395 556 402 549 Q 419 530 427 490 L 444 358 Q 448 322 465 322 Q 472 322 481 336 C 484 341 484 341 482 366 Z" fill="red"></path>
				<path d="M 712 538 L 706 479 L 683 368 C 680 353 680 353 682 350 L 690 339 Q 694 324 714 336 L 722 345 Q 728 351 737 382 L 767 500 Q 771 515 778 528 Q 795 554 795 562 Q 795 570 766 591 Q 724 614 716 614 Q 708 614 694 609 Q 680 603 662 599 L 608 585 Q 564 573 442 562 C 412 559 433 535 463 538 L 536 545 L 588 554 L 684 569 Q 700 572 707 564 Q 714 555 712 538 Z" fill="lightgray"></path>
				<path d="M 604 446 L 677 455 Q 685 458 686 471 Q 687 495 625 481 L 605 478 L 551 468 L 503 460 Q 493 457 494 448 Q 496 429 531 438 L 551 440 L 604 446 Z" fill="lightgray"></path>
				<path d="M 683 368 L 669 381 Q 662 387 644 385 L 602 380 L 553 374 L 482 366 C 452 363 451 333 481 336 L 552 344 L 600 347 L 682 350 C 702 351 702 351 683 368 Z" fill="lightgray"></path>
				<path d="M 363 193 L 368 42 Q 368 15 364 -3 Q 361 -21 361 -25 Q 362 -30 370 -47 Q 379 -64 392 -64 Q 408 -63 408 -18 L 406 198 L 408 229 L 410 243 L 414 256 Q 414 275 358 286 Q 348 286 345 282 Q 343 278 348 264 Q 353 250 358 224 L 363 193 Z" fill="lightgray"></path>
				<path d="M 341 224 L 298 228 Q 283 226 295 213 Q 306 193 363 193 L 406 198 L 551 216 L 596 221 L 764 232 Q 787 235 795 227 Q 810 212 806 166 Q 799 77 797 62 L 793 31 Q 786 5 767 3 Q 762 3 742 11 L 704 24 Q 697 26 693 24 Q 690 22 694 16 L 726 -24 Q 745 -49 751 -65 Q 757 -82 761 -83 Q 766 -85 771 -86 Q 776 -88 788 -80 Q 825 -62 838 -18 Q 852 25 860 114 Q 863 181 871 197 L 878 215 Q 884 224 884 229 Q 885 234 873 245 Q 830 286 802 286 Q 796 286 777 280 Q 758 273 712 268 L 597 254 L 551 246 L 408 229 L 358 224 L 341 224 Z" fill="lightgray"></path>
				<path d="M 602 380 L 602 410 L 604 446 L 605 478 L 606 492 Q 606 495 611 512 Q 616 529 615 534 Q 612 544 588 554 C 561 567 522 572 536 545 L 545 528 Q 549 518 551 490 L 551 468 L 551 440 L 553 374 L 552 344 L 551 246 L 551 216 L 551 121 C 551 91 592 100 593 130 L 596 221 L 597 254 L 600 347 L 602 380 Z" fill="lightgray"></path>
				<path d="M 551 121 L 513 114 Q 487 109 474 110 L 460 113 Q 450 114 441 114 Q 423 114 430 100 Q 437 86 455 73 Q 463 64 466 63 L 474 59 Q 479 56 482 56 Q 485 55 489 55 Q 494 54 498 56 Q 502 57 505 60 L 533 73 Q 557 84 562 85 L 687 128 C 715 138 705 156 676 149 L 593 130 L 551 121 Z" fill="lightgray"></path>
				<path d="M 687 128 L 708 85 Q 712 72 723 72 Q 734 71 744 86 Q 763 113 742 148 Q 736 157 716 170 Q 696 183 683 188 L 664 196 Q 657 199 654 196 Q 652 193 656 187 L 676 149 L 687 128 Z" fill="lightgray"></path>
</g>
		<text x="40" y="140" font-size="128" fill="#999999">4</text></g>
		<g id="id0:id4:id4" transform="matrix(1.0,0,0,1.0,4096,0.0)">			<g stroke="lightgray" stroke-width="4" transform="scale(4, 4)"> <rect x="0" y="0" width="256" height="256" fill="white" stroke-width="4"/></g>
			<g transform="scale(0.92, -0.92) translate(60, -920)">					<path d="M 192 580 L 170 572 C 142 562 146 540 175 547 L 249 566 Q 260 568 264 562 Q 268 555 262 542 L 234 477 Q 228 463 228 457 Q 228 451 231 441 C 238 412 258 430 264 459 Q 265 485 330 553 L 347 570 Q 354 578 354 582 Q 354 585 346 594 Q 335 605 295 622 Q 281 626 276 625 Q 272 623 261 614 L 230 597 Q 212 588 192 580 Z" fill="black"></path>
				<path d="M 231 441 L 244 414 Q 260 380 262 353 Q 264 326 256 321 Q 248 316 230 322 L 189 330 Q 183 331 180 327 Q 178 322 183 319 L 214 296 Q 219 292 240 272 L 264 252 Q 271 244 276 243 Q 281 242 296 253 Q 309 262 318 282 Q 339 333 294 404 L 272 435 Q 263 449 264 459 C 261 489 218 468 231 441 Z" fill="black"></path>
				<path d="M 170 572 L 147 583 Q 140 588 122 588 Q 92 587 112 560 Q 128 532 128 450 L 126 307 L 120 210 Q 116 126 106 72 L 97 27 Q 90 -6 92 -19 Q 95 -33 104 -52 Q 127 -100 139 -76 Q 152 -52 153 -24 L 157 58 Q 160 121 162 136 L 175 547 C 176 569 176 569 170 572 Z" fill="black"></path>
				<path d="M 482 366 L 476 433 L 463 538 C 461 556 461 556 442 562 L 424 568 Q 414 571 404 572 Q 387 573 392 560 Q 395 556 402 549 Q 419 530 427 490 L 444 358 Q 448 322 465 322 Q 472 322 481 336 C 484 341 484 341 482 366 Z" fill="black"></path>
				<path d="M 712 538 L 706 479 L 683 368 C 680 353 680 353 682 350 L 690 339 Q 694 324 714 336 L 722 345 Q 728 351 737 382 L 767 500 Q 771 515 778 528 Q 795 554 795 562 Q 795 570 766 591 Q 724 614 716 614 Q 708 614 694 609 Q 680 603 662 599 L 608 585 Q 564 573 442 562 C 412 559 433 535 463 538 L 536 545 L 588 554 L 684 569 Q 700 572 707 564 Q 714 555 712 538 Z" fill="red"></path>
				<path d="M 604 446 L 677 455 Q 685 458 686 471 Q 687 495 625 481 L 605 478 L 551 468 L 503 460 Q 493 457 494 448 Q 496 429 531 438 L 551 440 L 604 446 Z" fill="lightgray"></path>
				<path d="M 683 368 L 669 381 Q 662 387 644 385 L 602 380 L 553 374 L 482 366 C 452 363 451 333 481 336 L 552 344 L 600 347 L 682 350 C 702 351 702 351 683 368 Z" fill="lightgray"></path>
				<path d="M 363 193 L 368 42 Q 368 15 364 -3 Q 361 -21 361 -25 Q 362 -30 370 -47 Q 379 -64 392 -64 Q 408 -63 408 -18 L 406 198 L 408 229 L 410 243 L 414 256 Q 414 275 358 286 Q 348 286 345 282 Q 343 278 348 264 Q 353 250 358 224 L 363 193 Z" fill="lightgray"></path>
				<path d="M 341 224 L 298 228 Q 283 226 295 213 Q 306 193 363 193 L 406 198 L 551 216 L 596 221 L 764 232 Q 787 235 795 227 Q 810 212 806 166 Q 799 77 797 62 L 793 31 Q 786 5 767 3 Q 762 3 742 11 L 704 24 Q 697 26 693 24 Q 690 22 694 16 L 726 -24 Q 745 -49 751 -65 Q 757 -82 761 -83 Q 766 -85 771 -86 Q 776 -88 788 -80 Q 825 -62 838 -18 Q 852 25 860 114 Q 863 181 871 197 L 878 215 Q 884 224 884 229 Q 885 234 873 245 Q 830 286 802 286 Q 796 286 777 280 Q 758 273 712 268 L 597 254 L 551 246 L 408 229 L 358 224 L 341 224 Z" fill="lightgray"></path>
				<path d="M 602 380 L 602 410 L 604 446 L 605 478 L 606 492 Q 606 495 611 512 Q 616 529 615 534 Q 612 544 588 554 C 561 567 522 572 536 545 L 545 528 Q 549 518 551 490 L 551 468 L 551 440 L 553 374 L 552 344 L 551 246 L 551 216 L 551 121 C 551 91 592 100 593 130 L 596 221 L 597 254 L 600 347 L 602 380 Z" fill="lightgray"></path>
				<path d="M 551 121 L 513 114 Q 487 109 474 110 L 460 113 Q 450 114 441 114 Q 423 114 430 100 Q 437 86 455 73 Q 463 64 466 63 L 474 59 Q 479 56 482 56 Q 485 55 489 55 Q 494 54 498 56 Q 502 57 505 60 L 533 73 Q 557 84 562 85 L 687 128 C 715 138 705 156 676 149 L 593 130 L 551 121 Z" fill="lightgray"></path>
				<path d="M 687 128 L 708 85 Q 712 72 723 72 Q 734 71 744 86 Q 763 113 742 148 Q 736 157 716 170 Q 696 183 683 188 L 664 196 Q 657 199 654 196 Q 652 193 656 187 L 676 149 L 687 128 Z" fill="lightgray"></path>
</g>
		<text x="40" y="140" font-size="128" fill="#999999">5</text></g>
</g>
	<g id="id1:id1" transform="translate(0.0,1024)">
		<g id="id1:id0:id0" transform="matrix(1.0,0,0,1.0,0,0.0)">			<g stroke="lightgray" stroke-width="4" transform="scale(4, 4)"> <rect x="0" y="0" width="256" height="256" fill="white" stroke-width="4"/></g>
			<g transform="scale(0.92, -0.92) translate(60, -920)">					<path d="M 192 580 L 170 572 C 142 562 146 540 175 547 L 249 566 Q 260 568 264 562 Q 268 555 262 542 L 234 477 Q 228 463 228 457 Q 228 451 231 441 C 238 412 258 430 264 459 Q 265 485 330 553 L 347 570 Q 354 578 354 582 Q 354 585 346 594 Q 335 605 295 622 Q 281 626 276 625 Q 272 623 261 614 L 230 597 Q 212 588 192 580 Z" fill="black"></path>
				<path d="M 231 441 L 244 414 Q 260 380 262 353 Q 264 326 256 321 Q 248 316 230 322 L 189 330 Q 183 331 180 327 Q 178 322 183 319 L 214 296 Q 219 292 240 272 L 264 252 Q 271 244 276 243 Q 281 242 296 253 Q 309 262 318 282 Q 339 333 294 404 L 272 435 Q 263 449 264 459 C 261 489 218 468 231 441 Z" fill="black"></path>
				<path d="M 170 572 L 147 583 Q 140 588 122 588 Q 92 587 112 560 Q 128 532 128 450 L 126 307 L 120 210 Q 116 126 106 72 L 97 27 Q 90 -6 92 -19 Q 95 -33 104 -52 Q 127 -100 139 -76 Q 152 -52 153 -24 L 157 58 Q 160 121 162 136 L 175 547 C 176 569 176 569 170 572 Z" fill="black"></path>
				<path d="M 482 366 L 476 433 L 463 538 C 461 556 461 556 442 562 L 424 568 Q 414 571 404 572 Q 387 573 392 560 Q 395 556 402 549 Q 419 530 427 490 L 444 358 Q 448 322 465 322 Q 472 322 481 336 C 484 341 484 341 482 366 Z" fill="black"></path>
				<path d="M 712 538 L 706 479 L 683 368 C 680 353 680 353 682 350 L 690 339 Q 694 324 714 336 L 722 345 Q 728 351 737 382 L 767 500 Q 771 515 778 528 Q 795 554 795 562 Q 795 570 766 591 Q 724 614 716 614 Q 708 614 694 609 Q 680 603 662 599 L 608 585 Q 564 573 442 562 C 412 559 433 535 463 538 L 536 545 L 588 554 L 684 569 Q 700 572 707 564 Q 714 555 712 538 Z" fill="black"></path>
				<path d="M 604 446 L 677 455 Q 685 458 686 471 Q 687 495 625 481 L 605 478 L 551 468 L 503 460 Q 493 457 494 448 Q 496 429 531 438 L 551 440 L 604 446 Z" fill="red"></path>
				<path d="M 683 368 L 669 381 Q 662 387 644 385 L 602 380 L 553 374 L 482 366 C 452 363 451 333 481 336 L 552 344 L 600 347 L 682 350 C 702 351 702 351 683 368 Z" fill="lightgray"></path>
				<path d="M 363 193 L 368 42 Q 368 15 364 -3 Q 361 -21 361 -25 Q 362 -30 370 -47 Q 379 -64 392 -64 Q 408 -63 408 -18 L 406 198 L 408 229 L 410 243 L 414 256 Q 414 275 358 286 Q 348 286 345 282 Q 343 278 348 264 Q 353 250 358 224 L 363 193 Z" fill="lightgray"></path>
				<path d="M 341 224 L 298 228 Q 283 226 295 213 Q 306 193 363 193 L 406 198 L 551 216 L 596 221 L 764 232 Q 787 235 795 227 Q 810 212 806 166 Q 799 77 797 62 L 793 31 Q 786 5 767 3 Q 762 3 742 11 L 704 24 Q 697 26 693 24 Q 690 22 694 16 L 726 -24 Q 745 -49 751 -65 Q 757 -82 761 -83 Q 766 -85 771 -86 Q 776 -88 788 -80 Q 825 -62 838 -18 Q 852 25 860 114 Q 863 181 871 197 L 878 215 Q 884 224 884 229 Q 885 234 873 245 Q 830 286 802 286 Q 796 286 777 280 Q 758 273 712 268 L 597 254 L 551 246 L 408 229 L 358 224 L 341 224 Z" fill="lightgray"></path>
				<path d="M 602 380 L 602 410 L 604 446 L 605 478 L 606 492 Q 606 495 611 512 Q 616 529 615 534 Q 612 544 588 554 C 561 567 522 572 536 545 L 545 528 Q 549 518 551 490 L 551 468 L 551 440 L 553 374 L 552 344 L 551 246 L 551 216 L 551 121 C 551 91 592 100 593 130 L 596 221 L 597 254 L 600 347 L 602 380 Z" fill="lightgray"></path>
				<path d="M 551 121 L 513 114 Q 487 109 474 110 L 460 113 Q 450 114 441 114 Q 423 114 430 100 Q 437 86 455 73 Q 463 64 466 63 L 474 59 Q 479 56 482 56 Q 485 55 489 55 Q 494 54 498 56 Q 502 57 505 60 L 533 73 Q 557 84 562 85 L 687 128 C 715 138 705 156 676 149 L 593 130 L 551 121 Z" fill="lightgray"></path>
				<path d="M 687 128 L 708 85 Q 712 72 723 72 Q 734 71 744 86 Q 763 113 742 148 Q 736 157 716 170 Q 696 183 683 188 L 664 196 Q 657 199 654 196 Q 652 193 656 187 L 676 149 L 687 128 Z" fill="lightgray"></path>
</g>
		<text x="40" y="140" font-size="128" fill="#999999">6</text></g>
		<g id="id1:id1:id1" transform="matrix(1.0,0,0,1.0,1024,0.0)">			<g stroke="lightgray" stroke-width="4" transform="scale(4, 4)"> <rect x="0" y="0" width="256" height="256" fill="white" stroke-width="4"/></g>
			<g transform="scale(0.92, -0.92) translate(60, -920)">					<path d="M 192 580 L 170 572 C 142 562 146 540 175 547 L 249 566 Q 260 568 264 562 Q 268 555 262 542 L 234 477 Q 228 463 228 457 Q 228 451 231 441 C 238 412 258 430 264 459 Q 265 485 330 553 L 347 570 Q 354 578 354 582 Q 354 585 346 594 Q 335 605 295 622 Q 281 626 276 625 Q 272 623 261 614 L 230 597 Q 212 588 192 580 Z" fill="black"></path>
				<path d="M 231 441 L 244 414 Q 260 380 262 353 Q 264 326 256 321 Q 248 316 230 322 L 189 330 Q 183 331 180 327 Q 178 322 183 319 L 214 296 Q 219 292 240 272 L 264 252 Q 271 244 276 243 Q 281 242 296 253 Q 309 262 318 282 Q 339 333 294 404 L 272 435 Q 263 449 264 459 C 261 489 218 468 231 441 Z" fill="black"></path>
				<path d="M 170 572 L 147 583 Q 140 588 122 588 Q 92 587 112 560 Q 128 532 128 450 L 126 307 L 120 210 Q 116 126 106 72 L 97 27 Q 90 -6 92 -19 Q 95 -33 104 -52 Q 127 -100 139 -76 Q 152 -52 153 -24 L 157 58 Q 160 121 162 136 L 175 547 C 176 569 176 569 170 572 Z" fill="black"></path>
				<path d="M 482 366 L 476 433 L 463 538 C 461 556 461 556 442 562 L 424 568 Q 414 571 404 572 Q 387 573 392 560 Q 395 556 402 549 Q 419 530 427 490 L 444 358 Q 448 322 465 322 Q 472 322 481 336 C 484 341 484 341 482 366 Z" fill="black"></path>
				<path d="M 712 538 L 706 479 L 683 368 C 680 353 680 353 682 350 L 690 339 Q 694 324 714 336 L 722 345 Q 728 351 737 382 L 767 500 Q 771 515 778 528 Q 795 554 795 562 Q 795 570 766 591 Q 724 614 716 614 Q 708 614 694 609 Q 680 603 662 599 L 608 585 Q 564 573 442 562 C 412 559 433 535 463 538 L 536 545 L 588 554 L 684 569 Q 700 572 707 564 Q 714 555 712 538 Z" fill="black"></path>
				<path d="M 604 446 L 677 455 Q 685 458 686 471 Q 687 495 625 481 L 605 478 L 551 468 L 503 460 Q 493 457 494 448 Q 496 429 531 438 L 551 440 L 604 446 Z" fill="black"></path>
				<path d="M 683 368 L 669 381 Q 662 387 644 385 L 602 380 L 553 374 L 482 366 C 452 363 451 333 481 336 L 552 344 L 600 347 L 682 350 C 702 351 702 351 683 368 Z" fill="red"></path>
				<path d="M 363 193 L 368 42 Q 368 15 364 -3 Q 361 -21 361 -25 Q 362 -30 370 -47 Q 379 -64 392 -64 Q 408 -63 408 -18 L 406 198 L 408 229 L 410 243 L 414 256 Q 414 275 358 286 Q 348 286 345 282 Q 343 278 348 264 Q 353 250 358 224 L 363 193 Z" fill="lightgray"></path>
				<path d="M 341 224 L 298 228 Q 283 226 295 213 Q 306 193 363 193 L 406 198 L 551 216 L 596 221 L 764 232 Q 787 235 795 227 Q 810 212 806 166 Q 799 77 797 62 L 793 31 Q 786 5 767 3 Q 762 3 742 11 L 704 24 Q 697 26 693 24 Q 690 22 694 16 L 726 -24 Q 745 -49 751 -65 Q 757 -82 761 -83 Q 766 -85 771 -86 Q 776 -88 788 -80 Q 825 -62 838 -18 Q 852 25 860 114 Q 863 181 871 197 L 878 215 Q 884 224 884 229 Q 885 234 873 245 Q 830 286 802 286 Q 796 286 777 280 Q 758 273 712 268 L 597 254 L 551 246 L 408 229 L 358 224 L 341 224 Z" fill="lightgray"></path>
				<path d="M 602 380 L 602 410 L 604 446 L 605 478 L 606 492 Q 606 495 611 512 Q 616 529 615 534 Q 612 544 588 554 C 561 567 522 572 536 545 L 545 528 Q 549 518 551 490 L 551 468 L 551 440 L 553 374 L 552 344 L 551 246 L 551 216 L 551 121 C 551 91 592 100 593 130 L 596 221 L 597 254 L 600 347 L 602 380 Z" fill="lightgray"></path>
				<path d="M 551 121 L 513 114 Q 487 109 474 110 L 460 113 Q 450 114 441 114 Q 423 114 430 100 Q 437 86 455 73 Q 463 64 466 63 L 474 59 Q 479 56 482 56 Q 485 55 489 55 Q 494 54 498 56 Q 502 57 505 60 L 533 73 Q 557 84 562 85 L 687 128 C 715 138 705 156 676 149 L 593 130 L 551 121 Z" fill="lightgray"></path>
				<path d="M 687 128 L 708 85 Q 712 72 723 72 Q 734 71 744 86 Q 763 113 742 148 Q 736 157 716 170 Q 696 183 683 188 L 664 196 Q 657 199 654 196 Q 652 193 656 187 L 676 149 L 687 128 Z" fill="lightgray"></path>
</g>
		<text x="40" y="140" font-size="128" fill="#999999">7</text></g>
		<g id="id1:id2:id2" transform="matrix(1.0,0,0,1.0,2048,0.0)">			<g stroke="lightgray" stroke-width="4" transform="scale(4, 4)"> <rect x="0" y="0" width="256" height="256" fill="white" stroke-width="4"/></g>
			<g transform="scale(0.92, -0.92) translate(60, -920)">					<path d="M 192 580 L 170 572 C 142 562 146 540 175 547 L 249 566 Q 260 568 264 562 Q 268 555 262 542 L 234 477 Q 228 463 228 457 Q 228 451 231 441 C 238 412 258 430 264 459 Q 265 485 330 553 L 347 570 Q 354 578 354 582 Q 354 585 346 594 Q 335 605 295 622 Q 281 626 276 625 Q 272 623 261 614 L 230 597 Q 212 588 192 580 Z" fill="black"></path>
				<path d="M 231 441 L 244 414 Q 260 380 262 353 Q 264 326 256 321 Q 248 316 230 322 L 189 330 Q 183 331 180 327 Q 178 322 183 319 L 214 296 Q 219 292 240 272 L 264 252 Q 271 244 276 243 Q 281 242 296 253 Q 309 262 318 282 Q 339 333 294 404 L 272 435 Q 263 449 264 459 C 261 489 218 468 231 441 Z" fill="black"></path>
				<path d="M 170 572 L 147 583 Q 140 588 122 588 Q 92 587 112 560 Q 128 532 128 450 L 126 307 L 120 210 Q 116 126 106 72 L 97 27 Q 90 -6 92 -19 Q 95 -33 104 -52 Q 127 -100 139 -76 Q 152 -52 153 -24 L 157 58 Q 160 121 162 136 L 175 547 C 176 569 176 569 170 572 Z" fill="black"></path>
				<path d="M 482 366 L 476 433 L 463 538 C 461 556 461 556 442 562 L 424 568 Q 414 571 404 572 Q 387 573 392 560 Q 395 556 402 549 Q 419 530 427 490 L 444 358 Q 448 322 465 322 Q 472 322 481 336 C 484 341 484 341 482 366 Z" fill="black"></path>
				<path d="M 712 538 L 706 479 L 683 368 C 680 353 680 353 682 350 L 690 339 Q 694 324 714 336 L 722 345 Q 728 351 737 382 L 767 500 Q 771 515 778 528 Q 795 554 795 562 Q 795 570 766 591 Q 724 614 716 614 Q 708 614 694 609 Q 680 603 662 599 L 608 585 Q 564 573 442 562 C 412 559 433 535 463 538 L 536 545 L 588 554 L 684 569 Q 700 572 707 564 Q 714 555 712 538 Z" fill="black"></path>
				<path d="M 604 446 L 677 455 Q 685 458 686 471 Q 687 495 625 481 L 605 478 L 551 468 L 503 460 Q 493 457 494 448 Q 496 429 531 438 L 551 440 L 604 446 Z" fill="black"></path>
				<path d="M 683 368 L 669 381 Q 662 387 644 385 L 602 380 L 553 374 L 482 366 C 452 363 451 333 481 336 L 552 344 L 600 347 L 682 350 C 702 351 702 351 683 368 Z" fill="black"></path>
				<path d="M 363 193 L 368 42 Q 368 15 364 -3 Q 361 -21 361 -25 Q 362 -30 370 -47 Q 379 -64 392 -64 Q 408 -63 408 -18 L 406 198 L 408 229 L 410 243 L 414 256 Q 414 275 358 286 Q 348 286 345 282 Q 343 278 348 264 Q 353 250 358 224 L 363 193 Z" fill="red"></path>
				<path d="M 341 224 L 298 228 Q 283 226 295 213 Q 306 193 363 193 L 406 198 L 551 216 L 596 221 L 764 232 Q 787 235 795 227 Q 810 212 806 166 Q 799 77 797 62 L 793 31 Q 786 5 767 3 Q 762 3 742 11 L 704 24 Q 697 26 693 24 Q 690 22 694 16 L 726 -24 Q 745 -49 751 -65 Q 757 -82 761 -83 Q 766 -85 771 -86 Q 776 -88 788 -80 Q 825 -62 838 -18 Q 852 25 860 114 Q 863 181 871 197 L 878 215 Q 884 224 884 229 Q 885 234 873 245 Q 830 286 802 286 Q 796 286 777 280 Q 758 273 712 268 L 597 254 L 551 246 L 408 229 L 358 224 L 341 224 Z" fill="lightgray"></path>
				<path d="M 602 380 L 602 410 L 604 446 L 605 478 L 606 492 Q 606 495 611 512 Q 616 529 615 534 Q 612 544 588 554 C 561 567 522 572 536 545 L 545 528 Q 549 518 551 490 L 551 468 L 551 440 L 553 374 L 552 344 L 551 246 L 551 216 L 551 121 C 551 91 592 100 593 130 L 596 221 L 597 254 L 600 347 L 602 380 Z" fill="lightgray"></path>
				<path d="M 551 121 L 513 114 Q 487 109 474 110 L 460 113 Q 450 114 441 114 Q 423 114 430 100 Q 437 86 455 73 Q 463 64 466 63 L 474 59 Q 479 56 482 56 Q 485 55 489 55 Q 494 54 498 56 Q 502 57 505 60 L 533 73 Q 557 84 562 85 L 687 128 C 715 138 705 156 676 149 L 593 130 L 551 121 Z" fill="lightgray"></path>
				<path d="M 687 128 L 708 85 Q 712 72 723 72 Q 734 71 744 86 Q 763 113 742 148 Q 736 157 716 170 Q 696 183 683 188 L 664 196 Q 657 199 654 196 Q 652 193 656 187 L 676 149 L 687 128 Z" fill="lightgray"></path>
</g>
		<text x="40" y="140" font-size="128" fill="#999999">8</text></g>
		<g id="id1:id3:id3" transform="matrix(1.0,0,0,1.0,3072,0.0)">			<g stroke="lightgray" stroke-width="4" transform="scale(4, 4)"> <rect x="0" y="0" width="256" height="256" fill="white" stroke-width="4"/></g>
			<g transform="scale(0.92, -0.92) translate(60, -920)">					<path d="M 192 580 L 170 572 C 142 562 146 540 175 547 L 249 566 Q 260 568 264 562 Q 268 555 262 542 L 234 477 Q 228 463 228 457 Q 228 451 231 441 C 238 412 258 430 264 459 Q 265 485 330 553 L 347 570 Q 354 578 354 582 Q 354 585 346 594 Q 335 605 295 622 Q 281 626 276 625 Q 272 623 261 614 L 230 597 Q 212 588 192 580 Z" fill="black"></path>
				<path d="M 231 441 L 244 414 Q 260 380 262 353 Q 264 326 256 321 Q 248 316 230 322 L 189 330 Q 183 331 180 327 Q 178 322 183 319 L 214 296 Q 219 292 240 272 L 264 252 Q 271 244 276 243 Q 281 242 296 253 Q 309 262 318 282 Q 339 333 294 404 L 272 435 Q 263 449 264 459 C 261 489 218 468 231 441 Z" fill="black"></path>
				<path d="M 170 572 L 147 583 Q 140 588 122 588 Q 92 587 112 560 Q 128 532 128 450 L 126 307 L 120 210 Q 116 126 106 72 L 97 27 Q 90 -6 92 -19 Q 95 -33 104 -52 Q 127 -100 139 -76 Q 152 -52 153 -24 L 157 58 Q 160 121 162 136 L 175 547 C 176 569 176 569 170 572 Z" fill="black"></path>
				<path d="M 482 366 L 476 433 L 463 538 C 461 556 461 556 442 562 L 424 568 Q 414 571 404 572 Q 387 573 392 560 Q 395 556 402 549 Q 419 530 427 490 L 444 358 Q 448 322 465 322 Q 472 322 481 336 C 484 341 484 341 482 366 Z" fill="black"></path>
				<path d="M 712 538 L 706 479 L 683 368 C 680 353 680 353 682 350 L 690 339 Q 694 324 714 336 L 722 345 Q 728 351 737 382 L 767 500 Q 771 515 778 528 Q 795 554 795 562 Q 795 570 766 591 Q 724 614 716 614 Q 708 614 694 609 Q 680 603 662 599 L 608 585 Q 564 573 442 562 C 412 559 433 535 463 538 L 536 545 L 588 554 L 684 569 Q 700 572 707 564 Q 714 555 712 538 Z" fill="black"></path>
				<path d="M 604 446 L 677 455 Q 685 458 686 471 Q 687 495 625 481 L 605 478 L 551 468 L 503 460 Q 493 457 494 448 Q 496 429 531 438 L 551 440 L 604 446 Z" fill="black"></path>
				<path d="M 683 368 L 669 381 Q 662 387 644 385 L 602 380 L 553 374 L 482 366 C 452 363 451 333 481 336 L 552 344 L 600 347 L 682 350 C 702 351 702 351 683 368 Z" fill="black"></path>
				<path d="M 363 193 L 368 42 Q 368 15 364 -3 Q 361 -21 361 -25 Q 362 -30 370 -47 Q 379 -64 392 -64 Q 408 -63 408 -18 L 406 198 L 408 229 L 410 243 L 414 256 Q 414 275 358 286 Q 348 286 345 282 Q 343 278 348 264 Q 353 250 358 224 L 363 193 Z" fill="black"></path>
				<path d="M 341 224 L 298 228 Q 283 226 295 213 Q 306 193 363 193 L 406 198 L 551 216 L 596 221 L 764 232 Q 787 235 795 227 Q 810 212 806 166 Q 799 77 797 62 L 793 31 Q 786 5 767 3 Q 762 3 742 11 L 704 24 Q 697 26 693 24 Q 690 22 694 16 L 726 -24 Q 745 -49 751 -65 Q 757 -82 761 -83 Q 766 -85 771 -86 Q 776 -88 788 -80 Q 825 -62 838 -18 Q 852 25 860 114 Q 863 181 871 197 L 878 215 Q 884 224 884 229 Q 885 234 873 245 Q 830 286 802 286 Q 796 286 777 280 Q 758 273 712 268 L 597 254 L 551 246 L 408 229 L 358 224 L 341 224 Z" fill="red"></path>
				<path d="M 602 380 L 602 410 L 604 446 L 605 478 L 606 492 Q 606 495 611 512 Q 616 529 615 534 Q 612 544 588 554 C 561 567 522 572 536 545 L 545 528 Q 549 518 551 490 L 551 468 L 551 440 L 553 374 L 552 344 L 551 246 L 551 216 L 551 121 C 551 91 592 100 593 130 L 596 221 L 597 254 L 600 347 L 602 380 Z" fill="lightgray"></path>
				<path d="M 551 121 L 513 114 Q 487 109 474 110 L 460 113 Q 450 114 441 114 Q 423 114 430 100 Q 437 86 455 73 Q 463 64 466 63 L 474 59 Q 479 56 482 56 Q 485 55 489 55 Q 494 54 498 56 Q 502 57 505 60 L 533 73 Q 557 84 562 85 L 687 128 C 715 138 705 156 676 149 L 593 130 L 551 121 Z" fill="lightgray"></path>
				<path d="M 687 128 L 708 85 Q 712 72 723 72 Q 734 71 744 86 Q 763 113 742 148 Q 736 157 716 170 Q 696 183 683 188 L 664 196 Q 657 199 654 196 Q 652 193 656 187 L 676 149 L 687 128 Z" fill="lightgray"></path>
</g>
		<text x="40" y="140" font-size="128" fill="#999999">9</text></g>
		<g id="id1:id4:id4" transform="matrix(1.0,0,0,1.0,4096,0.0)">			<g stroke="lightgray" stroke-width="4" transform="scale(4, 4)"> <rect x="0" y="0" width="256" height="256" fill="white" stroke-width="4"/></g>
			<g transform="scale(0.92, -0.92) translate(60, -920)">					<path d="M 192 580 L 170 572 C 142 562 146 540 175 547 L 249 566 Q 260 568 264 562 Q 268 555 262 542 L 234 477 Q 228 463 228 457 Q 228 451 231 441 C 238 412 258 430 264 459 Q 265 485 330 553 L 347 570 Q 354 578 354 582 Q 354 585 346 594 Q 335 605 295 622 Q 281 626 276 625 Q 272 623 261 614 L 230 597 Q 212 588 192 580 Z" fill="black"></path>
				<path d="M 231 441 L 244 414 Q 260 380 262 353 Q 264 326 256 321 Q 248 316 230 322 L 189 330 Q 183 331 180 327 Q 178 322 183 319 L 214 296 Q 219 292 240 272 L 264 252 Q 271 244 276 243 Q 281 242 296 253 Q 309 262 318 282 Q 339 333 294 404 L 272 435 Q 263 449 264 459 C 261 489 218 468 231 441 Z" fill="black"></path>
				<path d="M 170 572 L 147 583 Q 140 588 122 588 Q 92 587 112 560 Q 128 532 128 450 L 126 307 L 120 210 Q 116 126 106 72 L 97 27 Q 90 -6 92 -19 Q 95 -33 104 -52 Q 127 -100 139 -76 Q 152 -52 153 -24 L 157 58 Q 160 121 162 136 L 175 547 C 176 569 176 569 170 572 Z" fill="black"></path>
				<path d="M 482 366 L 476 433 L 463 538 C 461 556 461 556 442 562 L 424 568 Q 414 571 404 572 Q 387 573 392 560 Q 395 556 402 549 Q 419 530 427 490 L 444 358 Q 448 322 465 322 Q 472 322 481 336 C 484 341 484 341 482 366 Z" fill="black"></path>
				<path d="M 712 538 L 706 479 L 683 368 C 680 353 680 353 682 350 L 690 339 Q 694 324 714 336 L 722 345 Q 728 351 737 382 L 767 500 Q 771 515 778 528 Q 795 554 795 562 Q 795 570 766 591 Q 724 614 716 614 Q 708 614 694 609 Q 680 603 662 599 L 608 585 Q 564 573 442 562 C 412 559 433 535 463 538 L 536 545 L 588 554 L 684 569 Q 700 572 707 564 Q 714 555 712 538 Z" fill="black"></path>
				<path d="M 604 446 L 677 455 Q 685 458 686 471 Q 687 495 625 481 L 605 478 L 551 468 L 503 460 Q 493 457 494 448 Q 496 429 531 438 L 551 440 L 604 446 Z" fill="black"></path>
				<path d="M 683 368 L 669 381 Q 662 387 644 385 L 602 380 L 553 374 L 482 366 C 452 363 451 333 481 336 L 552 344 L 600 347 L 682 350 C 702 351 702 351 683 368 Z" fill="black"></path>
				<path d="M 363 193 L 368 42 Q 368 15 364 -3 Q 361 -21 361 -25 Q 362 -30 370 -47 Q 379 -64 392 -64 Q 408 -63 408 -18 L 406 198 L 408 229 L 410 243 L 414 256 Q 414 275 358 286 Q 348 286 345 282 Q 343 278 348 264 Q 353 250 358 224 L 363 193 Z" fill="black"></path>
				<path d="M 341 224 L 298 228 Q 283 226 295 213 Q 306 193 363 193 L 406 198 L 551 216 L 596 221 L 764 232 Q 787 235 795 227 Q 810 212 806 166 Q 799 77 797 62 L 793 31 Q 786 5 767 3 Q 762 3 742 11 L 704 24 Q 697 26 693 24 Q 690 22 694 16 L 726 -24 Q 745 -49 751 -65 Q 757 -82 761 -83 Q 766 -85 771 -86 Q 776 -88 788 -80 Q 825 -62 838 -18 Q 852 25 860 114 Q 863 181 871 197 L 878 215 Q 884 224 884 229 Q 885 234 873 245 Q 830 286 802 286 Q 796 286 777 280 Q 758 273 712 268 L 597 254 L 551 246 L 408 229 L 358 224 L 341 224 Z" fill="black"></path>
				<path d="M 602 380 L 602 410 L 604 446 L 605 478 L 606 492 Q 606 495 611 512 Q 616 529 615 534 Q 612 544 588 554 C 561 567 522 572 536 545 L 545 528 Q 549 518 551 490 L 551 468 L 551 440 L 553 374 L 552 344 L 551 246 L 551 216 L 551 121 C 551 91 592 100 593 130 L 596 221 L 597 254 L 600 347 L 602 380 Z" fill="red"></path>
				<path d="M 551 121 L 513 114 Q 487 109 474 110 L 460 113 Q 450 114 441 114 Q 423 114 430 100 Q 437 86 455 73 Q 463 64 466 63 L 474 59 Q 479 56 482 56 Q 485 55 489 55 Q 494 54 498 56 Q 502 57 505 60 L 533 73 Q 557 84 562 85 L 687 128 C 715 138 705 156 676 149 L 593 130 L 551 121 Z" fill="lightgray"></path>
				<path d="M 687 128 L 708 85 Q 712 72 723 72 Q 734 71 744 86 Q 763 113 742 148 Q 736 157 716 170 Q 696 183 683 188 L 664 196 Q 657 199 654 196 Q 652 193 656 187 L 676 149 L 687 128 Z" fill="lightgray"></path>
</g>
		<text x="40" y="140" font-size="128" fill="#999999">10</text></g>
</g>
	<g id="id2:id2" transform="translate(0.0,2048)">
		<g id="id2:id0:id0" transform="matrix(1.0,0,0,1.0,0,0.0)">			<g stroke="lightgray" stroke-width="4" transform="scale(4, 4)"> <rect x="0" y="0" width="256" height="256" fill="white" stroke-width="4"/></g>
			<g transform="scale(0.92, -0.92) translate(60, -920)">					<path d="M 192 580 L 170 572 C 142 562 146 540 175 547 L 249 566 Q 260 568 264 562 Q 268 555 262 542 L 234 477 Q 228 463 228 457 Q 228 451 231 441 C 238 412 258 430 264 459 Q 265 485 330 553 L 347 570 Q 354 578 354 582 Q 354 585 346 594 Q 335 605 295 622 Q 281 626 276 625 Q 272 623 261 614 L 230 597 Q 212 588 192 580 Z" fill="black"></path>
				<path d="M 231 441 L 244 414 Q 260 380 262 353 Q 264 326 256 321 Q 248 316 230 322 L 189 330 Q 183 331 180 327 Q 178 322 183 319 L 214 296 Q 219 292 240 272 L 264 252 Q 271 244 276 243 Q 281 242 296 253 Q 309 262 318 282 Q 339 333 294 404 L 272 435 Q 263 449 264 459 C 261 489 218 468 231 441 Z" fill="black"></path>
				<path d="M 170 572 L 147 583 Q 140 588 122 588 Q 92 587 112 560 Q 128 532 128 450 L 126 307 L 120 210 Q 116 126 106 72 L 97 27 Q 90 -6 92 -19 Q 95 -33 104 -52 Q 127 -100 139 -76 Q 152 -52 153 -24 L 157 58 Q 160 121 162 136 L 175 547 C 176 569 176 569 170 572 Z" fill="black"></path>
				<path d="M 482 366 L 476 433 L 463 538 C 461 556 461 556 442 562 L 424 568 Q 414 571 404 572 Q 387 573 392 560 Q 395 556 402 549 Q 419 530 427 490 L 444 358 Q 448 322 465 322 Q 472 322 481 336 C 484 341 484 341 482 366 Z" fill="black"></path>
				<path d="M 712 538 L 706 479 L 683 368 C 680 353 680 353 682 350 L 690 339 Q 694 324 714 336 L 722 345 Q 728 351 737 382 L 767 500 Q 771 515 778 528 Q 795 554 795 562 Q 795 570 766 591 Q 724 614 716 614 Q 708 614 694 609 Q 680 603 662 599 L 608 585 Q 564 573 442 562 C 412 559 433 535 463 538 L 536 545 L 588 554 L 684 569 Q 700 572 707 564 Q 714 555 712 538 Z" fill="black"></path>
				<path d="M 604 446 L 677 455 Q 685 458 686 471 Q 687 495 625 481 L 605 478 L 551 468 L 503 460 Q 493 457 494 448 Q 496 429 531 438 L 551 440 L 604 446 Z" fill="black"></path>
				<path d="M 683 368 L 669 381 Q 662 387 644 385 L 602 380 L 553 374 L 482 366 C 452 363 451 333 481 336 L 552 344 L 600 347 L 682 350 C 702 351 702 351 683 368 Z" fill="black"></path>
				<path d="M 363 193 L 368 42 Q 368 15 364 -3 Q 361 -21 361 -25 Q 362 -30 370 -47 Q 379 -64 392 -64 Q 408 -63 408 -18 L 406 198 L 408 229 L 410 243 L 414 256 Q 414 275 358 286 Q 348 286 345 282 Q 343 278 348 264 Q 353 250 358 224 L 363 193 Z" fill="black"></path>
				<path d="M 341 224 L 298 228 Q 283 226 295 213 Q 306 193 363 193 L 406 198 L 551 216 L 596 221 L 764 232 Q 787 235 795 227 Q 810 212 806 166 Q 799 77 797 62 L 793 31 Q 786 5 767 3 Q 762 3 742 11 L 704 24 Q 697 26 693 24 Q 690 22 694 16 L 726 -24 Q 745 -49 751 -65 Q 757 -82 761 -83 Q 766 -85 771 -86 Q 776 -88 788 -80 Q 825 -62 838 -18 Q 852 25 860 114 Q 863 181 871 197 L 878 215 Q 884 224 884 229 Q 885 234 873 245 Q 830 286 802 286 Q 796 286 777 280 Q 758 273 712 268 L 597 254 L 551 246 L 408 229 L 358 224 L 341 224 Z" fill="black"></path>
				<path d="M 602 380 L 602 410 L 604 446 L 605 478 L 606 492 Q 606 495 611 512 Q 616 529 615 534 Q 612 544 588 554 C 561 567 522 572 536 545 L 545 528 Q 549 518 551 490 L 551 468 L 551 440 L 553 374 L 552 344 L 551 246 L 551 216 L 551 121 C 551 91 592 100 593 130 L 596 221 L 597 254 L 600 347 L 602 380 Z" fill="black"></path>
				<path d="M 551 121 L 513 114 Q 487 109 474 110 L 460 113 Q 450 114 441 114 Q 423 114 430 100 Q 437 86 455 73 Q 463 64 466 63 L 474 59 Q 479 56 482 56 Q 485 55 489 55 Q 494 54 498 56 Q 502 57 505 60 L 533 73 Q 557 84 562 85 L 687 128 C 715 138 705 156 676 149 L 593 130 L 551 121 Z" fill="red"></path>
				<path d="M 687 128 L 708 85 Q 712 72 723 72 Q 734 71 744 86 Q 763 113 742 148 Q 736 157 716 170 Q 696 183 683 188 L 664 196 Q 657 199 654 196 Q 652 193 656 187 L 676 149 L 687 128 Z" fill="lightgray"></path>
</g>
		<text x="40" y="140" font-size="128" fill="#999999">11</text></g>
		<g id="id2:id1:id1" transform="matrix(1.0,0,0,1.0,1024,0.0)">			<g stroke="lightgray" stroke-width="4" transform="scale(4, 4)"> <rect x="0" y="0" width="256" height="256" fill="white" stroke-width="4"/></g>
			<g transform="scale(0.92, -0.92) translate(60, -920)">					<path d="M 192 580 L 170 572 C 142 562 146 540 175 547 L 249 566 Q 260 568 264 562 Q 268 555 262 542 L 234 477 Q 228 463 228 457 Q 228 451 231 441 C 238 412 258 430 264 459 Q 265 485 330 553 L 347 570 Q 354 578 354 582 Q 354 585 346 594 Q 335 605 295 622 Q 281 626 276 625 Q 272 623 261 614 L 230 597 Q 212 588 192 580 Z" fill="black"></path>
				<path d="M 231 441 L 244 414 Q 260 380 262 353 Q 264 326 256 321 Q 248 316 230 322 L 189 330 Q 183 331 180 327 Q 178 322 183 319 L 214 296 Q 219 292 240 272 L 264 252 Q 271 244 276 243 Q 281 242 296 253 Q 309 262 318 282 Q 339 333 294 404 L 272 435 Q 263 449 264 459 C 261 489 218 468 231 441 Z" fill="black"></path>
				<path d="M 170 572 L 147 583 Q 140 588 122 588 Q 92 587 112 560 Q 128 532 128 450 L 126 307 L 120 210 Q 116 126 106 72 L 97 27 Q 90 -6 92 -19 Q 95 -33 104 -52 Q 127 -100 139 -76 Q 152 -52 153 -24 L 157 58 Q 160 121 162 136 L 175 547 C 176 569 176 569 170 572 Z" fill="black"></path>
				<path d="M 482 366 L 476 433 L 463 538 C 461 556 461 556 442 562 L 424 568 Q 414 571 404 572 Q 387 573 392 560 Q 395 556 402 549 Q 419 530 427 490 L 444 358 Q 448 322 465 322 Q 472 322 481 336 C 484 341 484 341 482 366 Z" fill="black"></path>
				<path d="M 712 538 L 706 479 L 683 368 C 680 353 680 353 682 350 L 690 339 Q 694 324 714 336 L 722 345 Q 728 351 737 382 L 767 500 Q 771 515 778 528 Q 795 554 795 562 Q 795 570 766 591 Q 724 614 716 614 Q 708 614 694 609 Q 680 603 662 599 L 608 585 Q 564 573 442 562 C 412 559 433 535 463 538 L 536 545 L 588 554 L 684 569 Q 700 572 707 564 Q 714 555 712 538 Z" fill="black"></path>
				<path d="M 604 446 L 677 455 Q 685 458 686 471 Q 687 495 625 481 L 605 478 L 551 468 L 503 460 Q 493 457 494 448 Q 496 429 531 438 L 551 440 L 604 446 Z" fill="black"></path>
				<path d="M 683 368 L 669 381 Q 662 387 644 385 L 602 380 L 553 374 L 482 366 C 452 363 451 333 481 336 L 552 344 L 600 347 L 682 350 C 702 351 702 351 683 368 Z" fill="black"></path>
				<path d="M 363 193 L 368 42 Q 368 15 364 -3 Q 361 -21 361 -25 Q 362 -30 370 -47 Q 379 -64 392 -64 Q 408 -63 408 -18 L 406 198 L 408 229 L 410 243 L 414 256 Q 414 275 358 286 Q 348 286 345 282 Q 343 278 348 264 Q 353 250 358 224 L 363 193 Z" fill="black"></path>
				<path d="M 341 224 L 298 228 Q 283 226 295 213 Q 306 193 363 193 L 406 198 L 551 216 L 596 221 L 764 232 Q 787 235 795 227 Q 810 212 806 166 Q 799 77 797 62 L 793 31 Q 786 5 767 3 Q 762 3 742 11 L 704 24 Q 697 26 693 24 Q 690 22 694 16 L 726 -24 Q 745 -49 751 -65 Q 757 -82 761 -83 Q 766 -85 771 -86 Q 776 -88 788 -80 Q 825 -62 838 -18 Q 852 25 860 114 Q 863 181 871 197 L 878 215 Q 884 224 884 229 Q 885 234 873 245 Q 830 286 802 286 Q 796 286 777 280 Q 758 273 712 268 L 597 254 L 551 246 L 408 229 L 358 224 L 341 224 Z" fill="black"></path>
				<path d="M 602 380 L 602 410 L 604 446 L 605 478 L 606 492 Q 606 495 611 512 Q 616 529 615 534 Q 612 544 588 554 C 561 567 522 572 536 545 L 545 528 Q 549 518 551 490 L 551 468 L 551 440 L 553 374 L 552 344 L 551 246 L 551 216 L 551 121 C 551 91 592 100 593 130 L 596 221 L 597 254 L 600 347 L 602 380 Z" fill="black"></path>
				<path d="M 551 121 L 513 114 Q 487 109 474 110 L 460 113 Q 450 114 441 114 Q 423 114 430 100 Q 437 86 455 73 Q 463 64 466 63 L 474 59 Q 479 56 482 56 Q 485 55 489 55 Q 494 54 498 56 Q 502 57 505 60 L 533 73 Q 557 84 562 85 L 687 128 C 715 138 705 156 676 149 L 593 130 L 551 121 Z" fill="black"></path>
				<path d="M 687 128 L 708 85 Q 712 72 723 72 Q 734 71 744 86 Q 763 113 742 148 Q 736 157 716 170 Q 696 183 683 188 L 664 196 Q 657 199 654 196 Q 652 193 656 187 L 676 149 L 687 128 Z" fill="red"></path>
</g>
		<text x="40" y="140" font-size="128" fill="#999999">12</text></g>
		<g id="id2:id2:id2" transform="matrix(1.0,0,0,1.0,2048,0.0)">			<g stroke="white" stroke-width="4" transform="scale(4, 4)"> <rect x="1" y="1" width="255" height="255" fill="white" stroke-width="0"/></g>
</g>
		<g id="id2:id3:id3" transform="matrix(1.0,0,0,1.0,3072,0.0)">			<g stroke="white" stroke-width="4" transform="scale(4, 4)"> <rect x="1" y="1" width="255" height="255" fill="white" stroke-width="0"/></g>
</g>
		<g id="id2:id4:id4" transform="matrix(1.0,0,0,1.0,4096,0.0)">			<g stroke="white" stroke-width="4" transform="scale(4, 4)"> <rect x="1" y="1" width="255" height="255" fill="white" stroke-width="0"/></g>
</g>
</g>
</svg>
